0, 0, Header, 0, 1, 384
1, 0, Start_track
1, 0, Copyright_t, "(C) John Sankey 1998"
1, 0, Program_c, 0, 6
1, 0, Pitch_bend_c, 0, 8192
1, 0, Program_c, 1, 6
1, 0, Pitch_bend_c, 1, 7792
1, 0, Program_c, 2, 6
1, 0, Pitch_bend_c, 2, 7876
1, 0, Program_c, 3, 6
1, 0, Pitch_bend_c, 3, 7952
1, 0, Program_c, 4, 6
1, 0, Pitch_bend_c, 4, 7792
1, 0, Program_c, 5, 6
1, 0, Pitch_bend_c, 5, 8112
1, 0, Program_c, 6, 6
1, 0, Pitch_bend_c, 6, 7712
1, 0, Program_c, 7, 6
1, 0, Pitch_bend_c, 7, 8037
1, 0, Program_c, 8, 6
1, 0, Pitch_bend_c, 8, 7872
1, 0, Program_c, 10, 6
1, 0, Pitch_bend_c, 10, 7712
1, 0, Program_c, 11, 6
1, 0, Pitch_bend_c, 11, 8032
1, 0, Program_c, 12, 6
1, 0, Pitch_bend_c, 12, 7872
1, 0, Tempo, 500000
1, 96, Note_on_c, 2, 74, 127
1, 192, Note_on_c, 0, 72, 127
1, 193, Note_off_c, 2, 74, 127
1, 288, Note_on_c, 12, 71, 127
1, 289, Note_off_c, 0, 72, 127
1, 384, Note_on_c, 10, 69, 127
1, 385, Note_off_c, 12, 71, 127
1, 480, Note_on_c, 7, 67, 127
1, 481, Note_off_c, 10, 69, 127
1, 660, Note_off_c, 7, 67, 127
1, 864, Note_on_c, 7, 55, 127
1, 864, Note_on_c, 12, 59, 127
1, 864, Note_on_c, 2, 62, 127
1, 954, Note_off_c, 2, 62, 127
1, 954, Note_off_c, 12, 59, 127
1, 959, Note_off_c, 7, 55, 127
1, 1248, Note_on_c, 7, 55, 127
1, 1248, Note_on_c, 0, 60, 127
1, 1248, Note_on_c, 4, 64, 127
1, 1338, Note_off_c, 4, 64, 127
1, 1338, Note_off_c, 0, 60, 127
1, 1338, Note_off_c, 7, 55, 127
1, 1632, Note_on_c, 7, 55, 127
1, 1632, Note_on_c, 12, 59, 127
1, 1632, Note_on_c, 2, 62, 127
1, 1760, Note_off_c, 2, 62, 127
1, 1760, Note_off_c, 12, 59, 127
1, 1760, Note_off_c, 7, 55, 127
1, 2352, Note_on_c, 2, 74, 127
1, 2448, Note_on_c, 0, 72, 127
1, 2449, Note_off_c, 2, 74, 127
1, 2544, Note_on_c, 12, 71, 127
1, 2545, Note_off_c, 0, 72, 127
1, 2640, Note_on_c, 10, 69, 127
1, 2641, Note_off_c, 12, 71, 127
1, 2736, Note_on_c, 7, 67, 127
1, 2737, Note_off_c, 10, 69, 127
1, 2832, Note_on_c, 6, 66, 127
1, 2833, Note_off_c, 7, 67, 127
1, 2928, Note_on_c, 4, 64, 127
1, 2929, Note_off_c, 6, 66, 127
1, 3024, Note_on_c, 2, 62, 127
1, 3025, Note_off_c, 4, 64, 127
1, 3120, Note_on_c, 0, 60, 127
1, 3121, Note_off_c, 2, 62, 127
1, 3216, Note_on_c, 12, 59, 127
1, 3217, Note_off_c, 0, 60, 127
1, 3312, Note_on_c, 10, 57, 127
1, 3313, Note_off_c, 12, 59, 127
1, 3408, Note_on_c, 7, 55, 127
1, 3409, Note_off_c, 10, 57, 127
1, 3504, Note_on_c, 0, 60, 127
1, 3504, Note_on_c, 10, 57, 127
1, 3504, Note_on_c, 6, 54, 127
1, 3504, Note_on_c, 7, 43, 127
1, 3504, Note_on_c, 2, 50, 127
1, 3505, Note_off_c, 7, 55, 127
1, 3594, Note_off_c, 2, 50, 127
1, 3594, Note_off_c, 7, 43, 127
1, 3594, Note_off_c, 6, 54, 127
1, 3594, Note_off_c, 10, 57, 127
1, 3594, Note_off_c, 0, 60, 127
1, 3904, Note_on_c, 7, 55, 127
1, 3904, Note_on_c, 7, 43, 127
1, 3904, Note_on_c, 7, 31, 127
1, 3904, Note_on_c, 2, 50, 127
1, 3904, Note_on_c, 12, 59, 127
1, 4032, Note_off_c, 12, 59, 127
1, 4032, Note_off_c, 2, 50, 127
1, 4032, Note_off_c, 7, 31, 127
1, 4032, Note_off_c, 7, 43, 127
1, 4032, Note_off_c, 7, 55, 127
1, 4752, Note_on_c, 7, 55, 127
1, 4848, Note_on_c, 12, 59, 127
1, 4942, Note_off_c, 7, 55, 127
1, 4944, Note_on_c, 0, 60, 127
1, 4945, Note_off_c, 12, 59, 127
1, 5040, Note_on_c, 2, 62, 127
1, 5041, Note_off_c, 0, 60, 127
1, 5136, Note_on_c, 4, 64, 127
1, 5137, Note_off_c, 2, 62, 127
1, 5232, Note_on_c, 6, 66, 127
1, 5233, Note_off_c, 4, 64, 127
1, 5328, Note_on_c, 7, 67, 127
1, 5329, Note_off_c, 6, 66, 127
1, 5424, Note_on_c, 10, 69, 127
1, 5425, Note_off_c, 7, 67, 127
1, 5520, Note_on_c, 12, 71, 127
1, 5521, Note_off_c, 10, 69, 127
1, 5616, Note_on_c, 0, 72, 127
1, 5617, Note_off_c, 12, 71, 127
1, 5712, Note_on_c, 2, 74, 127
1, 5713, Note_off_c, 0, 72, 127
1, 5792, Note_off_c, 2, 74, 127
1, 5808, Note_on_c, 4, 76, 127
1, 5888, Note_off_c, 4, 76, 127
1, 5904, Note_on_c, 6, 54, 127
1, 6000, Note_on_c, 10, 57, 127
1, 6094, Note_off_c, 6, 54, 127
1, 6096, Note_on_c, 12, 59, 127
1, 6097, Note_off_c, 10, 57, 127
1, 6192, Note_on_c, 0, 60, 127
1, 6193, Note_off_c, 12, 59, 127
1, 6288, Note_on_c, 2, 62, 127
1, 6289, Note_off_c, 0, 60, 127
1, 6384, Note_on_c, 4, 64, 127
1, 6385, Note_off_c, 2, 62, 127
1, 6480, Note_on_c, 6, 66, 127
1, 6481, Note_off_c, 4, 64, 127
1, 6576, Note_on_c, 7, 67, 127
1, 6577, Note_off_c, 6, 66, 127
1, 6672, Note_on_c, 10, 69, 127
1, 6673, Note_off_c, 7, 67, 127
1, 6768, Note_on_c, 12, 71, 127
1, 6769, Note_off_c, 10, 69, 127
1, 6864, Note_on_c, 0, 72, 127
1, 6865, Note_off_c, 12, 71, 127
1, 6944, Note_off_c, 0, 72, 127
1, 6960, Note_on_c, 2, 74, 127
1, 7040, Note_off_c, 2, 74, 127
1, 7056, Note_on_c, 4, 52, 127
1, 7152, Note_on_c, 7, 55, 127
1, 7246, Note_off_c, 4, 52, 127
1, 7248, Note_on_c, 10, 57, 127
1, 7249, Note_off_c, 7, 55, 127
1, 7344, Note_on_c, 12, 59, 127
1, 7345, Note_off_c, 10, 57, 127
1, 7440, Note_on_c, 0, 60, 127
1, 7441, Note_off_c, 12, 59, 127
1, 7536, Note_on_c, 2, 62, 127
1, 7537, Note_off_c, 0, 60, 127
1, 7632, Note_on_c, 4, 64, 127
1, 7633, Note_off_c, 2, 62, 127
1, 7728, Note_on_c, 6, 66, 127
1, 7729, Note_off_c, 4, 64, 127
1, 7824, Note_on_c, 7, 67, 127
1, 7825, Note_off_c, 6, 66, 127
1, 7920, Note_on_c, 10, 69, 127
1, 7921, Note_off_c, 7, 67, 127
1, 8016, Note_on_c, 12, 71, 127
1, 8017, Note_off_c, 10, 69, 127
1, 8109, Note_off_c, 12, 71, 127
1, 8112, Note_on_c, 0, 72, 127
1, 8208, Note_on_c, 2, 50, 127
1, 8272, Note_off_c, 0, 72, 127
1, 8304, Note_on_c, 0, 72, 127
1, 8398, Note_off_c, 2, 50, 127
1, 8400, Note_on_c, 10, 69, 127
1, 8401, Note_off_c, 0, 72, 127
1, 8496, Note_on_c, 6, 66, 127
1, 8497, Note_off_c, 10, 69, 127
1, 8592, Note_on_c, 2, 62, 127
1, 8593, Note_off_c, 6, 66, 127
1, 8688, Note_on_c, 10, 57, 127
1, 8689, Note_off_c, 2, 62, 127
1, 8784, Note_on_c, 6, 54, 127
1, 8785, Note_off_c, 10, 57, 127
1, 8880, Note_on_c, 2, 50, 127
1, 8881, Note_off_c, 6, 54, 127
1, 8976, Note_on_c, 2, 38, 127
1, 8977, Note_off_c, 2, 50, 127
1, 9072, Note_on_c, 0, 60, 127
1, 9166, Note_off_c, 2, 38, 127
1, 9168, Note_on_c, 12, 59, 127
1, 9169, Note_off_c, 0, 60, 127
1, 9264, Note_on_c, 10, 57, 127
1, 9265, Note_off_c, 12, 59, 127
1, 9360, Note_on_c, 7, 55, 127
1, 9361, Note_off_c, 10, 57, 127
1, 9456, Note_on_c, 12, 71, 127
1, 9546, Note_off_c, 12, 71, 127
1, 9550, Note_off_c, 7, 55, 127
1, 9552, Note_on_c, 7, 67, 127
1, 9642, Note_off_c, 7, 67, 127
1, 9648, Note_on_c, 6, 66, 127
1, 9738, Note_off_c, 6, 66, 127
1, 9744, Note_on_c, 2, 62, 127
1, 9840, Note_on_c, 12, 59, 127
1, 9841, Note_off_c, 2, 62, 127
1, 9936, Note_on_c, 7, 55, 127
1, 9937, Note_off_c, 12, 59, 127
1, 10032, Note_on_c, 2, 50, 127
1, 10033, Note_off_c, 7, 55, 127
1, 10128, Note_on_c, 7, 43, 127
1, 10129, Note_off_c, 2, 50, 127
1, 10224, Note_on_c, 6, 54, 127
1, 10318, Note_off_c, 7, 43, 127
1, 10320, Note_on_c, 4, 52, 127
1, 10321, Note_off_c, 6, 54, 127
1, 10416, Note_on_c, 2, 50, 127
1, 10417, Note_off_c, 4, 52, 127
1, 10512, Note_on_c, 1, 49, 127
1, 10513, Note_off_c, 2, 50, 127
1, 10608, Note_on_c, 12, 71, 127
1, 10698, Note_off_c, 12, 71, 127
1, 10702, Note_off_c, 1, 49, 127
1, 10704, Note_on_c, 7, 67, 127
1, 10794, Note_off_c, 7, 67, 127
1, 10800, Note_on_c, 4, 64, 127
1, 10890, Note_off_c, 4, 64, 127
1, 10896, Note_on_c, 1, 61, 127
1, 10992, Note_on_c, 7, 55, 127
1, 10993, Note_off_c, 1, 61, 127
1, 11088, Note_on_c, 4, 52, 127
1, 11089, Note_off_c, 7, 55, 127
1, 11184, Note_on_c, 1, 49, 127
1, 11185, Note_off_c, 4, 52, 127
1, 11280, Note_on_c, 1, 37, 127
1, 11281, Note_off_c, 1, 49, 127
1, 11376, Note_on_c, 12, 59, 127
1, 11470, Note_off_c, 1, 37, 127
1, 11472, Note_on_c, 10, 57, 127
1, 11473, Note_off_c, 12, 59, 127
1, 11568, Note_on_c, 7, 55, 127
1, 11569, Note_off_c, 10, 57, 127
1, 11664, Note_on_c, 6, 54, 127
1, 11665, Note_off_c, 7, 55, 127
1, 11760, Note_on_c, 10, 69, 127
1, 11850, Note_off_c, 10, 69, 127
1, 11854, Note_off_c, 6, 54, 127
1, 11856, Note_on_c, 6, 66, 127
1, 11946, Note_off_c, 6, 66, 127
1, 11952, Note_on_c, 4, 64, 127
1, 12042, Note_off_c, 4, 64, 127
1, 12048, Note_on_c, 1, 61, 127
1, 12144, Note_on_c, 10, 57, 127
1, 12145, Note_off_c, 1, 61, 127
1, 12240, Note_on_c, 6, 54, 127
1, 12241, Note_off_c, 10, 57, 127
1, 12336, Note_on_c, 1, 49, 127
1, 12337, Note_off_c, 6, 54, 127
1, 12432, Note_on_c, 6, 42, 127
1, 12433, Note_off_c, 1, 49, 127
1, 12528, Note_on_c, 4, 52, 127
1, 12622, Note_off_c, 6, 42, 127
1, 12624, Note_on_c, 2, 50, 127
1, 12625, Note_off_c, 4, 52, 127
1, 12720, Note_on_c, 1, 49, 127
1, 12721, Note_off_c, 2, 50, 127
1, 12816, Note_on_c, 12, 47, 127
1, 12817, Note_off_c, 1, 49, 127
1, 12912, Note_on_c, 10, 69, 127
1, 13002, Note_off_c, 10, 69, 127
1, 13006, Note_off_c, 12, 47, 127
1, 13008, Note_on_c, 6, 66, 127
1, 13098, Note_off_c, 6, 66, 127
1, 13104, Note_on_c, 2, 62, 127
1, 13194, Note_off_c, 2, 62, 127
1, 13200, Note_on_c, 12, 59, 127
1, 13296, Note_on_c, 6, 54, 127
1, 13297, Note_off_c, 12, 59, 127
1, 13392, Note_on_c, 2, 50, 127
1, 13393, Note_off_c, 6, 54, 127
1, 13488, Note_on_c, 12, 47, 127
1, 13489, Note_off_c, 2, 50, 127
1, 13584, Note_on_c, 12, 35, 127
1, 13585, Note_off_c, 12, 47, 127
1, 13680, Note_on_c, 10, 57, 127
1, 13774, Note_off_c, 12, 35, 127
1, 13776, Note_on_c, 7, 55, 127
1, 13777, Note_off_c, 10, 57, 127
1, 13872, Note_on_c, 6, 54, 127
1, 13873, Note_off_c, 7, 55, 127
1, 13968, Note_on_c, 4, 52, 127
1, 13969, Note_off_c, 6, 54, 127
1, 14064, Note_on_c, 7, 67, 127
1, 14154, Note_off_c, 7, 67, 127
1, 14158, Note_off_c, 4, 52, 127
1, 14160, Note_on_c, 4, 64, 127
1, 14250, Note_off_c, 4, 64, 127
1, 14256, Note_on_c, 2, 62, 127
1, 14346, Note_off_c, 2, 62, 127
1, 14352, Note_on_c, 12, 59, 127
1, 14448, Note_on_c, 7, 55, 127
1, 14449, Note_off_c, 12, 59, 127
1, 14544, Note_on_c, 4, 52, 127
1, 14545, Note_off_c, 7, 55, 127
1, 14640, Note_on_c, 12, 47, 127
1, 14641, Note_off_c, 4, 52, 127
1, 14736, Note_on_c, 4, 40, 127
1, 14737, Note_off_c, 12, 47, 127
1, 14832, Note_on_c, 2, 50, 127
1, 14926, Note_off_c, 4, 40, 127
1, 14928, Note_on_c, 1, 49, 127
1, 14929, Note_off_c, 2, 50, 127
1, 15024, Note_on_c, 12, 47, 127
1, 15025, Note_off_c, 1, 49, 127
1, 15120, Note_on_c, 10, 45, 127
1, 15121, Note_off_c, 12, 47, 127
1, 15216, Note_on_c, 7, 67, 127
1, 15306, Note_off_c, 7, 67, 127
1, 15310, Note_off_c, 10, 45, 127
1, 15312, Note_on_c, 4, 64, 127
1, 15402, Note_off_c, 4, 64, 127
1, 15408, Note_on_c, 1, 61, 127
1, 15498, Note_off_c, 1, 61, 127
1, 15504, Note_on_c, 10, 57, 127
1, 15600, Note_on_c, 4, 52, 127
1, 15601, Note_off_c, 10, 57, 127
1, 15696, Note_on_c, 1, 49, 127
1, 15697, Note_off_c, 4, 52, 127
1, 15792, Note_on_c, 10, 45, 127
1, 15793, Note_off_c, 1, 49, 127
1, 15888, Note_on_c, 10, 33, 127
1, 15889, Note_off_c, 10, 45, 127
1, 15984, Note_on_c, 7, 55, 127
1, 16078, Note_off_c, 10, 33, 127
1, 16080, Note_on_c, 6, 54, 127
1, 16081, Note_off_c, 7, 55, 127
1, 16176, Note_on_c, 4, 52, 127
1, 16177, Note_off_c, 6, 54, 127
1, 16272, Note_on_c, 2, 50, 127
1, 16273, Note_off_c, 4, 52, 127
1, 16368, Note_on_c, 10, 57, 127
1, 16464, Note_on_c, 12, 59, 127
1, 16465, Note_off_c, 10, 57, 127
1, 16552, Note_off_c, 2, 50, 127
1, 16560, Note_on_c, 1, 61, 127
1, 16561, Note_off_c, 12, 59, 127
1, 16656, Note_on_c, 2, 62, 127
1, 16657, Note_off_c, 1, 61, 127
1, 16752, Note_on_c, 4, 64, 127
1, 16753, Note_off_c, 2, 62, 127
1, 16848, Note_on_c, 5, 65, 127
1, 16849, Note_off_c, 4, 64, 127
1, 16944, Note_on_c, 2, 62, 127
1, 16998, Note_off_c, 5, 65, 127
1, 17040, Note_on_c, 8, 56, 127
1, 17136, Note_on_c, 5, 65, 127
1, 17137, Note_off_c, 8, 56, 127
1, 17137, Note_off_c, 2, 62, 127
1, 17232, Note_on_c, 4, 64, 127
1, 17233, Note_off_c, 5, 65, 127
1, 17328, Note_on_c, 2, 62, 127
1, 17329, Note_off_c, 4, 64, 127
1, 17424, Note_on_c, 1, 61, 127
1, 17425, Note_off_c, 2, 62, 127
1, 17520, Note_on_c, 2, 62, 127
1, 17521, Note_off_c, 1, 61, 127
1, 17616, Note_on_c, 4, 64, 127
1, 17617, Note_off_c, 2, 62, 127
1, 17712, Note_on_c, 6, 66, 127
1, 17713, Note_off_c, 4, 64, 127
1, 17808, Note_on_c, 7, 67, 127
1, 17809, Note_off_c, 6, 66, 127
1, 17904, Note_on_c, 10, 69, 127
1, 17905, Note_off_c, 7, 67, 127
1, 17992, Note_off_c, 10, 69, 127
1, 18000, Note_on_c, 11, 70, 127
1, 18080, Note_off_c, 11, 70, 127
1, 18096, Note_on_c, 7, 67, 127
1, 18166, Note_off_c, 7, 67, 127
1, 18190, Note_on_c, 5, 77, 127
1, 18278, Note_off_c, 5, 77, 127
1, 18282, Note_on_c, 4, 76, 127
1, 18370, Note_off_c, 4, 76, 127
1, 18376, Note_on_c, 2, 74, 127
1, 18448, Note_off_c, 2, 74, 127
1, 18462, Note_on_c, 1, 73, 127
1, 18517, Note_off_c, 1, 73, 127
1, 18576, Note_on_c, 10, 81, 127
1, 18672, Note_on_c, 7, 79, 127
1, 18746, Note_off_c, 10, 81, 127
1, 18768, Note_on_c, 6, 78, 127
1, 18769, Note_off_c, 7, 79, 127
1, 18864, Note_on_c, 4, 76, 127
1, 18865, Note_off_c, 6, 78, 127
1, 18960, Note_on_c, 2, 74, 127
1, 18961, Note_off_c, 4, 76, 127
1, 19180, Note_off_c, 2, 74, 127
1, 19344, Note_on_c, 6, 66, 127
1, 19344, Note_on_c, 2, 62, 127
1, 19344, Note_on_c, 10, 69, 127
1, 19434, Note_off_c, 10, 69, 127
1, 19434, Note_off_c, 2, 62, 127
1, 19434, Note_off_c, 6, 66, 127
1, 19728, Note_on_c, 12, 71, 127
1, 19728, Note_on_c, 2, 62, 127
1, 19728, Note_on_c, 7, 67, 127
1, 19818, Note_off_c, 7, 67, 127
1, 19818, Note_off_c, 2, 62, 127
1, 19818, Note_off_c, 12, 71, 127
1, 20112, Note_on_c, 2, 62, 127
1, 20112, Note_on_c, 10, 69, 127
1, 20112, Note_on_c, 6, 66, 127
1, 20240, Note_off_c, 6, 66, 127
1, 20240, Note_off_c, 10, 69, 127
1, 20240, Note_off_c, 2, 62, 127
1, 20880, Note_on_c, 10, 81, 127
1, 20976, Note_on_c, 7, 79, 127
1, 21000, Note_off_c, 10, 81, 127
1, 21072, Note_on_c, 6, 78, 127
1, 21073, Note_off_c, 7, 79, 127
1, 21168, Note_on_c, 4, 76, 127
1, 21169, Note_off_c, 6, 78, 127
1, 21264, Note_on_c, 2, 74, 127
1, 21265, Note_off_c, 4, 76, 127
1, 21360, Note_on_c, 1, 73, 127
1, 21361, Note_off_c, 2, 74, 127
1, 21456, Note_on_c, 12, 71, 127
1, 21457, Note_off_c, 1, 73, 127
1, 21552, Note_on_c, 10, 69, 127
1, 21553, Note_off_c, 12, 71, 127
1, 21648, Note_on_c, 7, 67, 127
1, 21649, Note_off_c, 10, 69, 127
1, 21744, Note_on_c, 6, 66, 127
1, 21745, Note_off_c, 7, 67, 127
1, 21840, Note_on_c, 4, 64, 127
1, 21841, Note_off_c, 6, 66, 127
1, 21936, Note_on_c, 2, 62, 127
1, 21937, Note_off_c, 4, 64, 127
1, 22032, Note_on_c, 2, 50, 127
1, 22032, Note_on_c, 10, 57, 127
1, 22032, Note_on_c, 7, 67, 127
1, 22032, Note_on_c, 4, 64, 127
1, 22032, Note_on_c, 1, 61, 127
1, 22033, Note_off_c, 2, 62, 127
1, 22122, Note_off_c, 1, 61, 127
1, 22122, Note_off_c, 4, 64, 127
1, 22122, Note_off_c, 7, 67, 127
1, 22122, Note_off_c, 10, 57, 127
1, 22122, Note_off_c, 2, 50, 127
1, 22416, Note_on_c, 2, 38, 127
1, 22416, Note_on_c, 2, 50, 127
1, 22416, Note_on_c, 6, 66, 127
1, 22416, Note_on_c, 10, 57, 127
1, 22416, Note_on_c, 2, 62, 127
1, 22544, Note_off_c, 2, 62, 127
1, 22544, Note_off_c, 10, 57, 127
1, 22544, Note_off_c, 6, 66, 127
1, 22544, Note_off_c, 2, 50, 127
1, 22544, Note_off_c, 2, 38, 127
1, 23184, Note_on_c, 7, 43, 127
1, 23280, Note_on_c, 6, 66, 127
1, 23376, Note_on_c, 7, 55, 127
1, 23376, Note_on_c, 4, 64, 127
1, 23377, Note_off_c, 6, 66, 127
1, 23377, Note_off_c, 7, 43, 127
1, 23472, Note_on_c, 6, 66, 127
1, 23473, Note_off_c, 4, 64, 127
1, 23568, Note_on_c, 12, 59, 127
1, 23568, Note_on_c, 7, 67, 127
1, 23569, Note_off_c, 6, 66, 127
1, 23569, Note_off_c, 7, 55, 127
1, 23664, Note_on_c, 6, 66, 127
1, 23665, Note_off_c, 7, 67, 127
1, 23760, Note_on_c, 7, 55, 127
1, 23760, Note_on_c, 4, 64, 127
1, 23761, Note_off_c, 6, 66, 127
1, 23761, Note_off_c, 12, 59, 127
1, 23856, Note_on_c, 6, 66, 127
1, 23857, Note_off_c, 4, 64, 127
1, 23952, Note_on_c, 4, 52, 127
1, 23952, Note_on_c, 7, 67, 127
1, 23953, Note_off_c, 6, 66, 127
1, 23953, Note_off_c, 7, 55, 127
1, 24048, Note_on_c, 4, 64, 127
1, 24049, Note_off_c, 7, 67, 127
1, 24136, Note_off_c, 4, 52, 127
1, 24144, Note_on_c, 1, 49, 127
1, 24144, Note_on_c, 10, 69, 127
1, 24145, Note_off_c, 4, 64, 127
1, 24240, Note_on_c, 12, 71, 127
1, 24241, Note_off_c, 10, 69, 127
1, 24328, Note_off_c, 1, 49, 127
1, 24336, Note_on_c, 10, 45, 127
1, 24336, Note_on_c, 1, 73, 127
1, 24337, Note_off_c, 12, 71, 127
1, 24432, Note_on_c, 7, 67, 127
1, 24433, Note_off_c, 1, 73, 127
1, 24528, Note_on_c, 10, 57, 127
1, 24528, Note_on_c, 6, 66, 127
1, 24529, Note_off_c, 7, 67, 127
1, 24529, Note_off_c, 10, 45, 127
1, 24624, Note_on_c, 7, 67, 127
1, 24625, Note_off_c, 6, 66, 127
1, 24720, Note_on_c, 1, 61, 127
1, 24720, Note_on_c, 10, 69, 127
1, 24721, Note_off_c, 7, 67, 127
1, 24721, Note_off_c, 10, 57, 127
1, 24816, Note_on_c, 7, 67, 127
1, 24817, Note_off_c, 10, 69, 127
1, 24912, Note_on_c, 10, 57, 127
1, 24912, Note_on_c, 6, 66, 127
1, 24913, Note_off_c, 7, 67, 127
1, 24913, Note_off_c, 1, 61, 127
1, 25008, Note_on_c, 7, 67, 127
1, 25009, Note_off_c, 6, 66, 127
1, 25104, Note_on_c, 6, 54, 127
1, 25104, Note_on_c, 10, 69, 127
1, 25105, Note_off_c, 7, 67, 127
1, 25105, Note_off_c, 10, 57, 127
1, 25200, Note_on_c, 6, 66, 127
1, 25201, Note_off_c, 10, 69, 127
1, 25288, Note_off_c, 6, 54, 127
1, 25296, Note_on_c, 2, 50, 127
1, 25296, Note_on_c, 12, 71, 127
1, 25297, Note_off_c, 6, 66, 127
1, 25392, Note_on_c, 1, 73, 127
1, 25393, Note_off_c, 12, 71, 127
1, 25480, Note_off_c, 2, 50, 127
1, 25488, Note_on_c, 12, 47, 127
1, 25488, Note_on_c, 2, 74, 127
1, 25489, Note_off_c, 1, 73, 127
1, 25584, Note_on_c, 10, 69, 127
1, 25585, Note_off_c, 2, 74, 127
1, 25680, Note_on_c, 12, 59, 127
1, 25680, Note_on_c, 7, 67, 127
1, 25681, Note_off_c, 10, 69, 127
1, 25681, Note_off_c, 12, 47, 127
1, 25776, Note_on_c, 10, 69, 127
1, 25777, Note_off_c, 7, 67, 127
1, 25872, Note_on_c, 2, 62, 127
1, 25872, Note_on_c, 12, 71, 127
1, 25873, Note_off_c, 10, 69, 127
1, 25873, Note_off_c, 12, 59, 127
1, 25968, Note_on_c, 10, 69, 127
1, 25969, Note_off_c, 12, 71, 127
1, 26064, Note_on_c, 12, 59, 127
1, 26064, Note_on_c, 7, 67, 127
1, 26065, Note_off_c, 10, 69, 127
1, 26065, Note_off_c, 2, 62, 127
1, 26160, Note_on_c, 10, 69, 127
1, 26161, Note_off_c, 7, 67, 127
1, 26256, Note_on_c, 7, 55, 127
1, 26256, Note_on_c, 12, 71, 127
1, 26257, Note_off_c, 10, 69, 127
1, 26257, Note_off_c, 12, 59, 127
1, 26352, Note_on_c, 7, 67, 127
1, 26353, Note_off_c, 12, 71, 127
1, 26440, Note_off_c, 7, 55, 127
1, 26448, Note_on_c, 4, 52, 127
1, 26448, Note_on_c, 1, 73, 127
1, 26449, Note_off_c, 7, 67, 127
1, 26544, Note_on_c, 2, 74, 127
1, 26545, Note_off_c, 1, 73, 127
1, 26632, Note_off_c, 4, 52, 127
1, 26640, Note_on_c, 1, 49, 127
1, 26640, Note_on_c, 4, 76, 127
1, 26641, Note_off_c, 2, 74, 127
1, 26736, Note_on_c, 12, 71, 127
1, 26737, Note_off_c, 4, 76, 127
1, 26832, Note_on_c, 1, 61, 127
1, 26832, Note_on_c, 10, 69, 127
1, 26833, Note_off_c, 12, 71, 127
1, 26833, Note_off_c, 1, 49, 127
1, 26928, Note_on_c, 12, 71, 127
1, 26929, Note_off_c, 10, 69, 127
1, 27024, Note_on_c, 4, 64, 127
1, 27024, Note_on_c, 1, 73, 127
1, 27025, Note_off_c, 12, 71, 127
1, 27025, Note_off_c, 1, 61, 127
1, 27120, Note_on_c, 12, 71, 127
1, 27121, Note_off_c, 1, 73, 127
1, 27216, Note_on_c, 1, 61, 127
1, 27216, Note_on_c, 10, 69, 127
1, 27217, Note_off_c, 12, 71, 127
1, 27217, Note_off_c, 4, 64, 127
1, 27312, Note_on_c, 12, 71, 127
1, 27313, Note_off_c, 10, 69, 127
1, 27408, Note_on_c, 10, 57, 127
1, 27408, Note_on_c, 1, 73, 127
1, 27409, Note_off_c, 12, 71, 127
1, 27409, Note_off_c, 1, 61, 127
1, 27504, Note_on_c, 10, 69, 127
1, 27505, Note_off_c, 1, 73, 127
1, 27600, Note_on_c, 6, 54, 127
1, 27600, Note_on_c, 2, 74, 127
1, 27601, Note_off_c, 10, 69, 127
1, 27601, Note_off_c, 10, 57, 127
1, 27696, Note_on_c, 4, 76, 127
1, 27697, Note_off_c, 2, 74, 127
1, 27792, Note_on_c, 2, 50, 127
1, 27792, Note_on_c, 6, 78, 127
1, 27793, Note_off_c, 4, 76, 127
1, 27793, Note_off_c, 6, 54, 127
1, 27888, Note_on_c, 2, 62, 127
1, 27888, Note_on_c, 7, 79, 127
1, 27889, Note_off_c, 6, 78, 127
1, 27889, Note_off_c, 2, 50, 127
1, 27984, Note_on_c, 1, 61, 127
1, 27984, Note_on_c, 10, 81, 127
1, 27985, Note_off_c, 7, 79, 127
1, 27985, Note_off_c, 2, 62, 127
1, 28080, Note_on_c, 2, 62, 127
1, 28081, Note_off_c, 1, 61, 127
1, 28174, Note_off_c, 10, 81, 127
1, 28176, Note_on_c, 4, 64, 127
1, 28177, Note_off_c, 2, 62, 127
1, 28272, Note_on_c, 2, 62, 127
1, 28273, Note_off_c, 4, 64, 127
1, 28368, Note_on_c, 1, 61, 127
1, 28368, Note_on_c, 6, 78, 127
1, 28369, Note_off_c, 2, 62, 127
1, 28464, Note_on_c, 2, 62, 127
1, 28465, Note_off_c, 1, 61, 127
1, 28552, Note_off_c, 6, 78, 127
1, 28560, Note_on_c, 12, 59, 127
1, 28560, Note_on_c, 7, 79, 127
1, 28561, Note_off_c, 2, 62, 127
1, 28656, Note_on_c, 2, 62, 127
1, 28657, Note_off_c, 12, 59, 127
1, 28744, Note_off_c, 7, 79, 127
1, 28752, Note_on_c, 12, 59, 127
1, 28752, Note_on_c, 10, 81, 127
1, 28753, Note_off_c, 2, 62, 127
1, 28848, Note_on_c, 10, 57, 127
1, 28849, Note_off_c, 12, 59, 127
1, 28936, Note_off_c, 10, 81, 127
1, 28944, Note_on_c, 7, 55, 127
1, 28944, Note_on_c, 12, 83, 127
1, 28945, Note_off_c, 10, 57, 127
1, 29040, Note_on_c, 2, 62, 127
1, 29040, Note_on_c, 10, 81, 127
1, 29041, Note_off_c, 12, 83, 127
1, 29074, Note_off_c, 7, 55, 127
1, 29136, Note_on_c, 1, 61, 127
1, 29136, Note_on_c, 12, 83, 127
1, 29137, Note_off_c, 10, 81, 127
1, 29137, Note_off_c, 2, 62, 127
1, 29232, Note_on_c, 2, 62, 127
1, 29233, Note_off_c, 1, 61, 127
1, 29328, Note_on_c, 4, 64, 127
1, 29328, Note_on_c, 1, 73, 127
1, 29329, Note_off_c, 2, 62, 127
1, 29329, Note_off_c, 12, 83, 127
1, 29424, Note_on_c, 2, 62, 127
1, 29425, Note_off_c, 4, 64, 127
1, 29468, Note_off_c, 1, 73, 127
1, 29520, Note_on_c, 1, 61, 127
1, 29520, Note_on_c, 4, 76, 127
1, 29521, Note_off_c, 2, 62, 127
1, 29616, Note_on_c, 2, 62, 127
1, 29617, Note_off_c, 1, 61, 127
1, 29704, Note_off_c, 4, 76, 127
1, 29712, Note_on_c, 10, 57, 127
1, 29712, Note_on_c, 6, 78, 127
1, 29713, Note_off_c, 2, 62, 127
1, 29808, Note_on_c, 2, 62, 127
1, 29809, Note_off_c, 10, 57, 127
1, 29896, Note_off_c, 6, 78, 127
1, 29904, Note_on_c, 10, 57, 127
1, 29904, Note_on_c, 7, 79, 127
1, 29905, Note_off_c, 2, 62, 127
1, 30000, Note_on_c, 7, 55, 127
1, 30001, Note_off_c, 10, 57, 127
1, 30088, Note_off_c, 7, 79, 127
1, 30096, Note_on_c, 6, 54, 127
1, 30096, Note_on_c, 10, 81, 127
1, 30097, Note_off_c, 7, 55, 127
1, 30192, Note_on_c, 2, 62, 127
1, 30192, Note_on_c, 7, 79, 127
1, 30193, Note_off_c, 10, 81, 127
1, 30216, Note_off_c, 6, 54, 127
1, 30288, Note_on_c, 1, 61, 127
1, 30288, Note_on_c, 10, 81, 127
1, 30289, Note_off_c, 7, 79, 127
1, 30289, Note_off_c, 2, 62, 127
1, 30384, Note_on_c, 2, 62, 127
1, 30385, Note_off_c, 1, 61, 127
1, 30480, Note_on_c, 4, 64, 127
1, 30480, Note_on_c, 12, 71, 127
1, 30481, Note_off_c, 2, 62, 127
1, 30481, Note_off_c, 10, 81, 127
1, 30576, Note_on_c, 2, 62, 127
1, 30577, Note_off_c, 4, 64, 127
1, 30620, Note_off_c, 12, 71, 127
1, 30672, Note_on_c, 1, 61, 127
1, 30672, Note_on_c, 6, 78, 127
1, 30673, Note_off_c, 2, 62, 127
1, 30768, Note_on_c, 2, 62, 127
1, 30769, Note_off_c, 1, 61, 127
1, 30856, Note_off_c, 6, 78, 127
1, 30864, Note_on_c, 7, 55, 127
1, 30864, Note_on_c, 12, 83, 127
1, 30865, Note_off_c, 2, 62, 127
1, 30960, Note_on_c, 2, 62, 127
1, 30961, Note_off_c, 7, 55, 127
1, 31048, Note_off_c, 12, 83, 127
1, 31056, Note_on_c, 7, 55, 127
1, 31056, Note_on_c, 10, 81, 127
1, 31057, Note_off_c, 2, 62, 127
1, 31152, Note_on_c, 6, 54, 127
1, 31153, Note_off_c, 7, 55, 127
1, 31240, Note_off_c, 10, 81, 127
1, 31248, Note_on_c, 4, 52, 127
1, 31248, Note_on_c, 7, 79, 127
1, 31249, Note_off_c, 6, 54, 127
1, 31344, Note_on_c, 2, 62, 127
1, 31344, Note_on_c, 6, 78, 127
1, 31345, Note_off_c, 7, 79, 127
1, 31368, Note_off_c, 4, 52, 127
1, 31440, Note_on_c, 1, 61, 127
1, 31440, Note_on_c, 7, 79, 127
1, 31441, Note_off_c, 6, 78, 127
1, 31441, Note_off_c, 2, 62, 127
1, 31536, Note_on_c, 2, 62, 127
1, 31537, Note_off_c, 1, 61, 127
1, 31632, Note_on_c, 4, 64, 127
1, 31632, Note_on_c, 10, 69, 127
1, 31633, Note_off_c, 2, 62, 127
1, 31633, Note_off_c, 7, 79, 127
1, 31728, Note_on_c, 2, 62, 127
1, 31729, Note_off_c, 4, 64, 127
1, 31772, Note_off_c, 10, 69, 127
1, 31824, Note_on_c, 1, 61, 127
1, 31824, Note_on_c, 4, 76, 127
1, 31825, Note_off_c, 2, 62, 127
1, 31920, Note_on_c, 2, 62, 127
1, 31921, Note_off_c, 1, 61, 127
1, 32008, Note_off_c, 4, 76, 127
1, 32016, Note_on_c, 6, 54, 127
1, 32016, Note_on_c, 10, 81, 127
1, 32017, Note_off_c, 2, 62, 127
1, 32112, Note_on_c, 2, 62, 127
1, 32113, Note_off_c, 6, 54, 127
1, 32200, Note_off_c, 10, 81, 127
1, 32208, Note_on_c, 6, 54, 127
1, 32208, Note_on_c, 7, 79, 127
1, 32209, Note_off_c, 2, 62, 127
1, 32304, Note_on_c, 4, 52, 127
1, 32305, Note_off_c, 6, 54, 127
1, 32392, Note_off_c, 7, 79, 127
1, 32400, Note_on_c, 2, 50, 127
1, 32400, Note_on_c, 6, 78, 127
1, 32401, Note_off_c, 4, 52, 127
1, 32496, Note_on_c, 4, 76, 127
1, 32497, Note_off_c, 6, 78, 127
1, 32592, Note_on_c, 10, 57, 127
1, 32592, Note_on_c, 2, 74, 127
1, 32593, Note_off_c, 4, 76, 127
1, 32593, Note_off_c, 2, 50, 127
1, 32688, Note_on_c, 1, 73, 127
1, 32689, Note_off_c, 2, 74, 127
1, 32784, Note_on_c, 6, 54, 127
1, 32784, Note_on_c, 2, 74, 127
1, 32785, Note_off_c, 1, 73, 127
1, 32785, Note_off_c, 10, 57, 127
1, 32880, Note_on_c, 6, 78, 127
1, 32881, Note_off_c, 2, 74, 127
1, 32976, Note_on_c, 2, 50, 127
1, 32976, Note_on_c, 10, 69, 127
1, 32977, Note_off_c, 6, 78, 127
1, 32977, Note_off_c, 6, 54, 127
1, 33072, Note_on_c, 1, 73, 127
1, 33073, Note_off_c, 10, 69, 127
1, 33168, Note_on_c, 1, 49, 127
1, 33168, Note_on_c, 2, 74, 127
1, 33169, Note_off_c, 1, 73, 127
1, 33169, Note_off_c, 2, 50, 127
1, 33264, Note_on_c, 6, 78, 127
1, 33265, Note_off_c, 2, 74, 127
1, 33343, Note_off_c, 1, 49, 127
1, 33360, Note_on_c, 10, 57, 127
1, 33360, Note_on_c, 10, 69, 127
1, 33361, Note_off_c, 6, 78, 127
1, 33456, Note_on_c, 1, 73, 127
1, 33457, Note_off_c, 10, 69, 127
1, 33535, Note_off_c, 10, 57, 127
1, 33552, Note_on_c, 12, 47, 127
1, 33552, Note_on_c, 5, 77, 127
1, 33553, Note_off_c, 1, 73, 127
1, 33648, Note_on_c, 4, 76, 127
1, 33649, Note_off_c, 5, 77, 127
1, 33744, Note_on_c, 8, 56, 127
1, 33744, Note_on_c, 2, 74, 127
1, 33745, Note_off_c, 4, 76, 127
1, 33745, Note_off_c, 12, 47, 127
1, 33840, Note_on_c, 1, 73, 127
1, 33841, Note_off_c, 2, 74, 127
1, 33936, Note_on_c, 5, 53, 127
1, 33936, Note_on_c, 2, 74, 127
1, 33937, Note_off_c, 1, 73, 127
1, 33937, Note_off_c, 8, 56, 127
1, 34032, Note_on_c, 5, 77, 127
1, 34033, Note_off_c, 2, 74, 127
1, 34128, Note_on_c, 2, 50, 127
1, 34128, Note_on_c, 8, 68, 127
1, 34129, Note_off_c, 5, 77, 127
1, 34129, Note_off_c, 5, 53, 127
1, 34224, Note_on_c, 1, 73, 127
1, 34225, Note_off_c, 8, 68, 127
1, 34320, Note_on_c, 10, 45, 127
1, 34320, Note_on_c, 2, 74, 127
1, 34321, Note_off_c, 1, 73, 127
1, 34321, Note_off_c, 2, 50, 127
1, 34416, Note_on_c, 5, 77, 127
1, 34417, Note_off_c, 2, 74, 127
1, 34490, Note_off_c, 10, 45, 127
1, 34512, Note_on_c, 10, 57, 127
1, 34512, Note_on_c, 10, 69, 127
1, 34513, Note_off_c, 5, 77, 127
1, 34608, Note_on_c, 2, 74, 127
1, 34609, Note_off_c, 10, 69, 127
1, 34682, Note_off_c, 10, 57, 127
1, 34704, Note_on_c, 8, 44, 127
1, 34704, Note_on_c, 5, 77, 127
1, 34705, Note_off_c, 2, 74, 127
1, 34800, Note_on_c, 4, 76, 127
1, 34801, Note_off_c, 5, 77, 127
1, 34896, Note_on_c, 12, 59, 127
1, 34896, Note_on_c, 2, 74, 127
1, 34897, Note_off_c, 4, 76, 127
1, 34897, Note_off_c, 8, 44, 127
1, 34992, Note_on_c, 1, 73, 127
1, 34993, Note_off_c, 2, 74, 127
1, 35088, Note_on_c, 5, 53, 127
1, 35088, Note_on_c, 2, 74, 127
1, 35089, Note_off_c, 1, 73, 127
1, 35089, Note_off_c, 12, 59, 127
1, 35184, Note_on_c, 5, 77, 127
1, 35185, Note_off_c, 2, 74, 127
1, 35280, Note_on_c, 2, 50, 127
1, 35280, Note_on_c, 8, 68, 127
1, 35281, Note_off_c, 5, 77, 127
1, 35281, Note_off_c, 5, 53, 127
1, 35376, Note_on_c, 1, 73, 127
1, 35377, Note_off_c, 8, 68, 127
1, 35472, Note_on_c, 8, 44, 127
1, 35472, Note_on_c, 2, 74, 127
1, 35473, Note_off_c, 1, 73, 127
1, 35473, Note_off_c, 2, 50, 127
1, 35568, Note_on_c, 5, 77, 127
1, 35569, Note_off_c, 2, 74, 127
1, 35637, Note_off_c, 8, 44, 127
1, 35664, Note_on_c, 12, 59, 127
1, 35664, Note_on_c, 4, 76, 127
1, 35665, Note_off_c, 5, 77, 127
1, 35760, Note_on_c, 2, 74, 127
1, 35761, Note_off_c, 4, 76, 127
1, 35829, Note_off_c, 12, 59, 127
1, 35856, Note_on_c, 10, 57, 127
1, 35856, Note_on_c, 1, 73, 127
1, 35857, Note_off_c, 2, 74, 127
1, 35952, Note_on_c, 10, 45, 127
1, 35953, Note_off_c, 10, 57, 127
1, 36048, Note_on_c, 1, 49, 127
1, 36049, Note_off_c, 10, 45, 127
1, 36136, Note_off_c, 1, 73, 127
1, 36144, Note_on_c, 4, 52, 127
1, 36145, Note_off_c, 1, 49, 127
1, 36240, Note_on_c, 10, 57, 127
1, 36241, Note_off_c, 4, 52, 127
1, 36336, Note_on_c, 1, 61, 127
1, 36337, Note_off_c, 10, 57, 127
1, 36432, Note_on_c, 4, 64, 127
1, 36433, Note_off_c, 1, 61, 127
1, 36528, Note_on_c, 7, 67, 127
1, 36529, Note_off_c, 4, 64, 127
1, 36624, Note_on_c, 1, 73, 127
1, 36625, Note_off_c, 7, 67, 127
1, 36720, Note_on_c, 7, 67, 127
1, 36722, Note_off_c, 1, 73, 127
1, 36816, Note_on_c, 6, 66, 127
1, 36817, Note_off_c, 7, 67, 127
1, 36912, Note_on_c, 4, 64, 127
1, 36913, Note_off_c, 6, 66, 127
1, 37008, Note_on_c, 6, 66, 127
1, 37008, Note_on_c, 2, 74, 127
1, 37008, Note_on_c, 10, 69, 127
1, 37009, Note_off_c, 4, 64, 127
1, 37104, Note_on_c, 10, 45, 127
1, 37200, Note_on_c, 2, 50, 127
1, 37201, Note_off_c, 10, 45, 127
1, 37288, Note_off_c, 10, 69, 127
1, 37288, Note_off_c, 2, 74, 127
1, 37288, Note_off_c, 6, 66, 127
1, 37296, Note_on_c, 6, 54, 127
1, 37297, Note_off_c, 2, 50, 127
1, 37392, Note_on_c, 10, 57, 127
1, 37393, Note_off_c, 6, 54, 127
1, 37488, Note_on_c, 2, 62, 127
1, 37489, Note_off_c, 10, 57, 127
1, 37584, Note_on_c, 6, 66, 127
1, 37585, Note_off_c, 2, 62, 127
1, 37680, Note_on_c, 10, 69, 127
1, 37681, Note_off_c, 6, 66, 127
1, 37776, Note_on_c, 2, 74, 127
1, 37777, Note_off_c, 10, 69, 127
1, 37872, Note_on_c, 10, 69, 127
1, 37968, Note_on_c, 7, 67, 127
1, 37969, Note_off_c, 10, 69, 127
1, 37998, Note_off_c, 2, 74, 127
1, 38064, Note_on_c, 6, 66, 127
1, 38065, Note_off_c, 7, 67, 127
1, 38160, Note_on_c, 4, 76, 127
1, 38160, Note_on_c, 1, 73, 127
1, 38160, Note_on_c, 7, 67, 127
1, 38161, Note_off_c, 6, 66, 127
1, 38256, Note_on_c, 10, 45, 127
1, 38352, Note_on_c, 4, 52, 127
1, 38353, Note_off_c, 10, 45, 127
1, 38440, Note_off_c, 7, 67, 127
1, 38440, Note_off_c, 1, 73, 127
1, 38440, Note_off_c, 4, 76, 127
1, 38448, Note_on_c, 10, 57, 127
1, 38449, Note_off_c, 4, 52, 127
1, 38544, Note_on_c, 1, 61, 127
1, 38545, Note_off_c, 10, 57, 127
1, 38640, Note_on_c, 4, 64, 127
1, 38641, Note_off_c, 1, 61, 127
1, 38736, Note_on_c, 7, 67, 127
1, 38737, Note_off_c, 4, 64, 127
1, 38832, Note_on_c, 1, 73, 127
1, 38833, Note_off_c, 7, 67, 127
1, 38928, Note_on_c, 4, 76, 127
1, 38929, Note_off_c, 1, 73, 127
1, 39024, Note_on_c, 1, 73, 127
1, 39120, Note_on_c, 12, 71, 127
1, 39121, Note_off_c, 1, 73, 127
1, 39168, Note_off_c, 4, 76, 127
1, 39216, Note_on_c, 10, 69, 127
1, 39217, Note_off_c, 12, 71, 127
1, 39312, Note_on_c, 5, 77, 127
1, 39312, Note_on_c, 2, 74, 127
1, 39312, Note_on_c, 10, 69, 127
1, 39313, Note_off_c, 10, 69, 127
1, 39408, Note_on_c, 10, 45, 127
1, 39504, Note_on_c, 2, 50, 127
1, 39505, Note_off_c, 10, 45, 127
1, 39592, Note_off_c, 10, 69, 127
1, 39592, Note_off_c, 2, 74, 127
1, 39592, Note_off_c, 5, 77, 127
1, 39600, Note_on_c, 10, 57, 127
1, 39601, Note_off_c, 2, 50, 127
1, 39696, Note_on_c, 2, 62, 127
1, 39697, Note_off_c, 10, 57, 127
1, 39792, Note_on_c, 5, 65, 127
1, 39793, Note_off_c, 2, 62, 127
1, 39888, Note_on_c, 10, 69, 127
1, 39889, Note_off_c, 5, 65, 127
1, 39984, Note_on_c, 2, 74, 127
1, 39985, Note_off_c, 10, 69, 127
1, 40080, Note_on_c, 5, 77, 127
1, 40081, Note_off_c, 2, 74, 127
1, 40176, Note_on_c, 2, 74, 127
1, 40272, Note_on_c, 0, 72, 127
1, 40273, Note_off_c, 2, 74, 127
1, 40368, Note_on_c, 12, 71, 127
1, 40369, Note_off_c, 0, 72, 127
1, 40394, Note_off_c, 5, 77, 127
1, 40464, Note_on_c, 8, 80, 127
1, 40464, Note_on_c, 2, 74, 127
1, 40464, Note_on_c, 12, 71, 127
1, 40465, Note_off_c, 12, 71, 127
1, 40560, Note_on_c, 10, 45, 127
1, 40656, Note_on_c, 12, 47, 127
1, 40657, Note_off_c, 10, 45, 127
1, 40744, Note_off_c, 12, 71, 127
1, 40744, Note_off_c, 2, 74, 127
1, 40744, Note_off_c, 8, 80, 127
1, 40752, Note_on_c, 2, 50, 127
1, 40753, Note_off_c, 12, 47, 127
1, 40848, Note_on_c, 8, 56, 127
1, 40849, Note_off_c, 2, 50, 127
1, 40944, Note_on_c, 12, 59, 127
1, 40945, Note_off_c, 8, 56, 127
1, 41040, Note_on_c, 2, 62, 127
1, 41041, Note_off_c, 12, 59, 127
1, 41136, Note_on_c, 8, 68, 127
1, 41137, Note_off_c, 2, 62, 127
1, 41232, Note_on_c, 12, 71, 127
1, 41233, Note_off_c, 8, 68, 127
1, 41328, Note_on_c, 2, 74, 127
1, 41329, Note_off_c, 12, 71, 127
1, 41424, Note_on_c, 5, 77, 127
1, 41425, Note_off_c, 2, 74, 127
1, 41520, Note_on_c, 8, 80, 127
1, 41521, Note_off_c, 5, 77, 127
1, 41616, Note_on_c, 10, 33, 127
1, 41616, Note_on_c, 4, 76, 127
1, 41616, Note_on_c, 1, 73, 127
1, 41616, Note_on_c, 10, 81, 127
1, 41617, Note_off_c, 8, 80, 127
1, 41812, Note_on_c, 10, 69, 127
1, 41856, Note_off_c, 10, 81, 127
1, 41856, Note_off_c, 1, 73, 127
1, 41856, Note_off_c, 4, 76, 127
1, 41856, Note_off_c, 10, 33, 127
1, 41907, Note_on_c, 12, 71, 127
1, 41909, Note_off_c, 10, 69, 127
1, 42002, Note_on_c, 1, 73, 127
1, 42004, Note_off_c, 12, 71, 127
1, 42097, Note_on_c, 2, 74, 127
1, 42099, Note_off_c, 1, 73, 127
1, 42192, Note_on_c, 4, 76, 127
1, 42194, Note_off_c, 2, 74, 127
1, 42384, Note_on_c, 1, 61, 127
1, 42384, Note_on_c, 10, 57, 127
1, 42544, Note_off_c, 10, 57, 127
1, 42544, Note_off_c, 1, 61, 127
1, 42552, Note_off_c, 4, 76, 127
1, 42576, Note_on_c, 7, 67, 127
1, 42766, Note_off_c, 7, 67, 127
1, 42768, Note_on_c, 11, 58, 127
1, 42768, Note_on_c, 1, 61, 127
1, 42960, Note_on_c, 6, 66, 127
1, 43048, Note_off_c, 1, 61, 127
1, 43048, Note_off_c, 11, 58, 127
1, 43056, Note_on_c, 8, 68, 127
1, 43057, Note_off_c, 6, 66, 127
1, 43152, Note_on_c, 11, 70, 127
1, 43153, Note_off_c, 8, 68, 127
1, 43248, Note_on_c, 12, 71, 127
1, 43249, Note_off_c, 11, 70, 127
1, 43344, Note_on_c, 1, 73, 127
1, 43345, Note_off_c, 12, 71, 127
1, 43440, Note_on_c, 2, 74, 127
1, 43441, Note_off_c, 1, 73, 127
1, 43536, Note_on_c, 11, 58, 127
1, 43536, Note_on_c, 6, 54, 127
1, 43536, Note_on_c, 4, 76, 127
1, 43537, Note_off_c, 2, 74, 127
1, 43632, Note_on_c, 2, 74, 127
1, 43633, Note_off_c, 4, 76, 127
1, 43696, Note_off_c, 6, 54, 127
1, 43696, Note_off_c, 11, 58, 127
1, 43728, Note_on_c, 1, 73, 127
1, 43729, Note_off_c, 2, 74, 127
1, 43824, Note_on_c, 4, 76, 127
1, 43825, Note_off_c, 1, 73, 127
1, 43920, Note_on_c, 12, 59, 127
1, 43920, Note_on_c, 2, 74, 127
1, 43921, Note_off_c, 4, 76, 127
1, 44016, Note_on_c, 1, 61, 127
1, 44017, Note_off_c, 12, 59, 127
1, 44112, Note_on_c, 2, 62, 127
1, 44113, Note_off_c, 1, 61, 127
1, 44113, Note_off_c, 2, 74, 127
1, 44208, Note_on_c, 4, 64, 127
1, 44209, Note_off_c, 2, 62, 127
1, 44304, Note_on_c, 6, 66, 127
1, 44305, Note_off_c, 4, 64, 127
1, 44400, Note_on_c, 7, 67, 127
1, 44401, Note_off_c, 6, 66, 127
1, 44496, Note_on_c, 10, 69, 127
1, 44497, Note_off_c, 7, 67, 127
1, 44688, Note_on_c, 4, 52, 127
1, 44688, Note_on_c, 6, 78, 127
1, 44856, Note_off_c, 10, 69, 127
1, 44878, Note_off_c, 6, 78, 127
1, 44880, Note_on_c, 0, 60, 127
1, 44881, Note_off_c, 4, 52, 127
1, 45072, Note_on_c, 3, 51, 127
1, 45072, Note_on_c, 10, 81, 127
1, 45260, Note_off_c, 0, 60, 127
1, 45264, Note_on_c, 12, 59, 127
1, 45265, Note_off_c, 3, 51, 127
1, 45360, Note_on_c, 1, 61, 127
1, 45361, Note_off_c, 12, 59, 127
1, 45456, Note_on_c, 3, 63, 127
1, 45457, Note_off_c, 1, 61, 127
1, 45457, Note_off_c, 10, 81, 127
1, 45552, Note_on_c, 4, 64, 127
1, 45553, Note_off_c, 3, 63, 127
1, 45648, Note_on_c, 6, 66, 127
1, 45649, Note_off_c, 4, 64, 127
1, 45744, Note_on_c, 7, 67, 127
1, 45745, Note_off_c, 6, 66, 127
1, 45840, Note_on_c, 12, 59, 127
1, 45840, Note_on_c, 10, 69, 127
1, 45840, Note_on_c, 3, 75, 127
1, 45841, Note_off_c, 7, 67, 127
1, 45936, Note_on_c, 7, 67, 127
1, 45937, Note_off_c, 10, 69, 127
1, 46000, Note_off_c, 12, 59, 127
1, 46030, Note_off_c, 3, 75, 127
1, 46032, Note_on_c, 6, 66, 127
1, 46033, Note_off_c, 7, 67, 127
1, 46128, Note_on_c, 10, 69, 127
1, 46129, Note_off_c, 6, 66, 127
1, 46224, Note_on_c, 7, 67, 127
1, 46224, Note_on_c, 4, 64, 127
1, 46224, Note_on_c, 4, 76, 127
1, 46224, Note_on_c, 12, 83, 127
1, 46225, Note_off_c, 10, 69, 127
1, 46320, Note_on_c, 10, 81, 127
1, 46321, Note_off_c, 12, 83, 127
1, 46416, Note_on_c, 7, 79, 127
1, 46417, Note_off_c, 10, 81, 127
1, 46504, Note_off_c, 4, 76, 127
1, 46504, Note_off_c, 4, 64, 127
1, 46504, Note_off_c, 7, 67, 127
1, 46512, Note_on_c, 6, 78, 127
1, 46513, Note_off_c, 7, 79, 127
1, 46608, Note_on_c, 4, 76, 127
1, 46609, Note_off_c, 6, 78, 127
1, 46798, Note_off_c, 4, 76, 127
1, 46992, Note_on_c, 4, 64, 127
1, 46992, Note_on_c, 12, 71, 127
1, 46992, Note_on_c, 7, 67, 127
1, 47082, Note_off_c, 7, 67, 127
1, 47082, Note_off_c, 12, 71, 127
1, 47082, Note_off_c, 4, 64, 127
1, 47376, Note_on_c, 0, 72, 127
1, 47376, Note_on_c, 10, 69, 127
1, 47376, Note_on_c, 3, 63, 127
1, 47466, Note_off_c, 3, 63, 127
1, 47466, Note_off_c, 10, 69, 127
1, 47466, Note_off_c, 0, 72, 127
1, 47760, Note_on_c, 4, 64, 127
1, 47760, Note_on_c, 12, 71, 127
1, 47760, Note_on_c, 7, 67, 127
1, 47950, Note_off_c, 7, 67, 127
1, 47950, Note_off_c, 12, 71, 127
1, 47950, Note_off_c, 4, 64, 127
1, 48528, Note_on_c, 12, 83, 127
1, 48624, Note_on_c, 10, 81, 127
1, 48625, Note_off_c, 12, 83, 127
1, 48720, Note_on_c, 7, 79, 127
1, 48721, Note_off_c, 10, 81, 127
1, 48816, Note_on_c, 6, 78, 127
1, 48817, Note_off_c, 7, 79, 127
1, 48912, Note_on_c, 4, 76, 127
1, 48913, Note_off_c, 6, 78, 127
1, 49008, Note_on_c, 2, 74, 127
1, 49009, Note_off_c, 4, 76, 127
1, 49104, Note_on_c, 0, 72, 127
1, 49105, Note_off_c, 2, 74, 127
1, 49200, Note_on_c, 12, 71, 127
1, 49201, Note_off_c, 0, 72, 127
1, 49296, Note_on_c, 10, 69, 127
1, 49297, Note_off_c, 12, 71, 127
1, 49392, Note_on_c, 7, 67, 127
1, 49393, Note_off_c, 10, 69, 127
1, 49488, Note_on_c, 6, 66, 127
1, 49489, Note_off_c, 7, 67, 127
1, 49584, Note_on_c, 4, 64, 127
1, 49585, Note_off_c, 6, 66, 127
1, 49680, Note_on_c, 4, 52, 127
1, 49680, Note_on_c, 12, 59, 127
1, 49680, Note_on_c, 10, 69, 127
1, 49680, Note_on_c, 6, 66, 127
1, 49680, Note_on_c, 3, 63, 127
1, 49681, Note_off_c, 4, 64, 127
1, 49770, Note_off_c, 3, 63, 127
1, 49770, Note_off_c, 6, 66, 127
1, 49770, Note_off_c, 10, 69, 127
1, 49770, Note_off_c, 12, 59, 127
1, 49770, Note_off_c, 4, 52, 127
1, 50064, Note_on_c, 4, 40, 127
1, 50064, Note_on_c, 4, 52, 127
1, 50064, Note_on_c, 4, 64, 127
1, 50064, Note_on_c, 12, 59, 127
1, 50064, Note_on_c, 7, 67, 127
1, 50254, Note_off_c, 7, 67, 127
1, 50254, Note_off_c, 12, 59, 127
1, 50254, Note_off_c, 4, 64, 127
1, 50254, Note_off_c, 4, 52, 127
1, 50254, Note_off_c, 4, 40, 127
1, 50832, Note_on_c, 4, 52, 127
1, 50928, Note_on_c, 7, 55, 127
1, 51022, Note_off_c, 4, 52, 127
1, 51024, Note_on_c, 10, 57, 127
1, 51025, Note_off_c, 7, 55, 127
1, 51120, Note_on_c, 12, 59, 127
1, 51121, Note_off_c, 10, 57, 127
1, 51216, Note_on_c, 0, 60, 127
1, 51217, Note_off_c, 12, 59, 127
1, 51312, Note_on_c, 2, 62, 127
1, 51313, Note_off_c, 0, 60, 127
1, 51408, Note_on_c, 4, 64, 127
1, 51409, Note_off_c, 2, 62, 127
1, 51504, Note_on_c, 6, 66, 127
1, 51505, Note_off_c, 4, 64, 127
1, 51600, Note_on_c, 7, 67, 127
1, 51601, Note_off_c, 6, 66, 127
1, 51696, Note_on_c, 10, 69, 127
1, 51697, Note_off_c, 7, 67, 127
1, 51792, Note_on_c, 12, 71, 127
1, 51793, Note_off_c, 10, 69, 127
1, 51872, Note_off_c, 12, 71, 127
1, 51888, Note_on_c, 0, 72, 127
1, 51968, Note_off_c, 0, 72, 127
1, 51984, Note_on_c, 6, 54, 127
1, 52080, Note_on_c, 10, 57, 127
1, 52174, Note_off_c, 6, 54, 127
1, 52176, Note_on_c, 12, 59, 127
1, 52177, Note_off_c, 10, 57, 127
1, 52272, Note_on_c, 0, 60, 127
1, 52273, Note_off_c, 12, 59, 127
1, 52368, Note_on_c, 2, 62, 127
1, 52369, Note_off_c, 0, 60, 127
1, 52464, Note_on_c, 4, 64, 127
1, 52465, Note_off_c, 2, 62, 127
1, 52560, Note_on_c, 6, 66, 127
1, 52561, Note_off_c, 4, 64, 127
1, 52656, Note_on_c, 7, 67, 127
1, 52657, Note_off_c, 6, 66, 127
1, 52752, Note_on_c, 10, 69, 127
1, 52753, Note_off_c, 7, 67, 127
1, 52848, Note_on_c, 12, 71, 127
1, 52849, Note_off_c, 10, 69, 127
1, 52944, Note_on_c, 0, 72, 127
1, 52945, Note_off_c, 12, 71, 127
1, 53024, Note_off_c, 0, 72, 127
1, 53040, Note_on_c, 2, 74, 127
1, 53120, Note_off_c, 2, 74, 127
1, 53136, Note_on_c, 7, 55, 127
1, 53232, Note_on_c, 12, 59, 127
1, 53326, Note_off_c, 7, 55, 127
1, 53328, Note_on_c, 0, 60, 127
1, 53329, Note_off_c, 12, 59, 127
1, 53424, Note_on_c, 2, 62, 127
1, 53425, Note_off_c, 0, 60, 127
1, 53520, Note_on_c, 4, 64, 127
1, 53521, Note_off_c, 2, 62, 127
1, 53616, Note_on_c, 6, 66, 127
1, 53617, Note_off_c, 4, 64, 127
1, 53712, Note_on_c, 7, 67, 127
1, 53713, Note_off_c, 6, 66, 127
1, 53808, Note_on_c, 10, 69, 127
1, 53809, Note_off_c, 7, 67, 127
1, 53904, Note_on_c, 12, 71, 127
1, 53905, Note_off_c, 10, 69, 127
1, 54000, Note_on_c, 0, 72, 127
1, 54001, Note_off_c, 12, 71, 127
1, 54096, Note_on_c, 2, 74, 127
1, 54097, Note_off_c, 0, 72, 127
1, 54176, Note_off_c, 2, 74, 127
1, 54192, Note_on_c, 4, 76, 127
1, 54272, Note_off_c, 4, 76, 127
1, 54288, Note_on_c, 10, 57, 127
1, 54384, Note_on_c, 0, 60, 127
1, 54478, Note_off_c, 10, 57, 127
1, 54480, Note_on_c, 2, 62, 127
1, 54481, Note_off_c, 0, 60, 127
1, 54576, Note_on_c, 4, 64, 127
1, 54577, Note_off_c, 2, 62, 127
1, 54672, Note_on_c, 5, 65, 127
1, 54673, Note_off_c, 4, 64, 127
1, 54768, Note_on_c, 7, 67, 127
1, 54769, Note_off_c, 5, 65, 127
1, 54864, Note_on_c, 10, 69, 127
1, 54865, Note_off_c, 7, 67, 127
1, 54960, Note_on_c, 12, 71, 127
1, 54961, Note_off_c, 10, 69, 127
1, 55056, Note_on_c, 0, 72, 127
1, 55057, Note_off_c, 12, 71, 127
1, 55152, Note_on_c, 2, 74, 127
1, 55153, Note_off_c, 0, 72, 127
1, 55248, Note_on_c, 4, 76, 127
1, 55249, Note_off_c, 2, 74, 127
1, 55336, Note_off_c, 4, 76, 127
1, 55344, Note_on_c, 5, 77, 127
1, 55432, Note_off_c, 5, 77, 127
1, 55440, Note_on_c, 3, 75, 127
1, 55536, Note_on_c, 10, 81, 127
1, 55630, Note_off_c, 3, 75, 127
1, 55632, Note_on_c, 12, 47, 127
1, 55632, Note_on_c, 6, 78, 127
1, 55633, Note_off_c, 10, 81, 127
1, 55728, Note_on_c, 1, 49, 127
1, 55728, Note_on_c, 3, 75, 127
1, 55729, Note_off_c, 6, 78, 127
1, 55729, Note_off_c, 12, 47, 127
1, 55824, Note_on_c, 3, 51, 127
1, 55824, Note_on_c, 12, 71, 127
1, 55825, Note_off_c, 3, 75, 127
1, 55825, Note_off_c, 1, 49, 127
1, 55920, Note_on_c, 4, 52, 127
1, 55921, Note_off_c, 3, 51, 127
1, 56016, Note_on_c, 6, 54, 127
1, 56017, Note_off_c, 4, 52, 127
1, 56112, Note_on_c, 7, 55, 127
1, 56113, Note_off_c, 6, 54, 127
1, 56204, Note_off_c, 12, 71, 127
1, 56208, Note_on_c, 10, 57, 127
1, 56209, Note_off_c, 7, 55, 127
1, 56304, Note_on_c, 7, 55, 127
1, 56305, Note_off_c, 10, 57, 127
1, 56400, Note_on_c, 6, 54, 127
1, 56401, Note_off_c, 7, 55, 127
1, 56496, Note_on_c, 10, 57, 127
1, 56497, Note_off_c, 6, 54, 127
1, 56592, Note_on_c, 7, 55, 127
1, 56593, Note_off_c, 10, 57, 127
1, 56688, Note_on_c, 10, 57, 127
1, 56784, Note_on_c, 12, 59, 127
1, 56785, Note_off_c, 10, 57, 127
1, 56880, Note_on_c, 1, 61, 127
1, 56881, Note_off_c, 12, 59, 127
1, 56972, Note_off_c, 7, 55, 127
1, 56976, Note_on_c, 3, 63, 127
1, 56977, Note_off_c, 1, 61, 127
1, 57072, Note_on_c, 6, 54, 127
1, 57072, Note_on_c, 4, 64, 127
1, 57073, Note_off_c, 3, 63, 127
1, 57168, Note_on_c, 4, 52, 127
1, 57168, Note_on_c, 6, 66, 127
1, 57169, Note_off_c, 4, 64, 127
1, 57169, Note_off_c, 6, 54, 127
1, 57264, Note_on_c, 2, 50, 127
1, 57264, Note_on_c, 7, 67, 127
1, 57265, Note_off_c, 6, 66, 127
1, 57265, Note_off_c, 4, 52, 127
1, 57360, Note_on_c, 1, 49, 127
1, 57360, Note_on_c, 10, 69, 127
1, 57361, Note_off_c, 7, 67, 127
1, 57361, Note_off_c, 2, 50, 127
1, 57456, Note_on_c, 4, 52, 127
1, 57456, Note_on_c, 7, 67, 127
1, 57457, Note_off_c, 10, 69, 127
1, 57457, Note_off_c, 1, 49, 127
1, 57546, Note_off_c, 7, 67, 127
1, 57552, Note_on_c, 3, 51, 127
1, 57552, Note_on_c, 6, 66, 127
1, 57553, Note_off_c, 4, 52, 127
1, 57642, Note_off_c, 6, 66, 127
1, 57648, Note_on_c, 6, 54, 127
1, 57648, Note_on_c, 10, 69, 127
1, 57649, Note_off_c, 3, 51, 127
1, 57738, Note_off_c, 10, 69, 127
1, 57744, Note_on_c, 4, 52, 127
1, 57744, Note_on_c, 7, 67, 127
1, 57745, Note_off_c, 6, 54, 127
1, 57840, Note_on_c, 6, 66, 127
1, 57841, Note_off_c, 7, 67, 127
1, 57936, Note_on_c, 7, 67, 127
1, 57937, Note_off_c, 6, 66, 127
1, 58032, Note_on_c, 10, 69, 127
1, 58033, Note_off_c, 7, 67, 127
1, 58128, Note_on_c, 12, 71, 127
1, 58129, Note_off_c, 10, 69, 127
1, 58174, Note_off_c, 4, 52, 127
1, 58224, Note_on_c, 2, 50, 127
1, 58224, Note_on_c, 0, 72, 127
1, 58225, Note_off_c, 12, 71, 127
1, 58320, Note_on_c, 0, 48, 127
1, 58320, Note_on_c, 2, 74, 127
1, 58321, Note_off_c, 0, 72, 127
1, 58321, Note_off_c, 2, 50, 127
1, 58416, Note_on_c, 12, 47, 127
1, 58416, Note_on_c, 4, 76, 127
1, 58417, Note_off_c, 2, 74, 127
1, 58417, Note_off_c, 0, 48, 127
1, 58512, Note_on_c, 10, 45, 127
1, 58512, Note_on_c, 5, 77, 127
1, 58513, Note_off_c, 4, 76, 127
1, 58513, Note_off_c, 12, 47, 127
1, 58608, Note_on_c, 0, 48, 127
1, 58608, Note_on_c, 4, 76, 127
1, 58609, Note_off_c, 5, 77, 127
1, 58609, Note_off_c, 10, 45, 127
1, 58698, Note_off_c, 4, 76, 127
1, 58704, Note_on_c, 12, 47, 127
1, 58704, Note_on_c, 2, 74, 127
1, 58705, Note_off_c, 0, 48, 127
1, 58794, Note_off_c, 2, 74, 127
1, 58800, Note_on_c, 2, 50, 127
1, 58800, Note_on_c, 5, 77, 127
1, 58801, Note_off_c, 12, 47, 127
1, 58890, Note_off_c, 5, 77, 127
1, 58896, Note_on_c, 0, 48, 127
1, 58896, Note_on_c, 4, 76, 127
1, 58897, Note_off_c, 2, 50, 127
1, 58992, Note_on_c, 2, 74, 127
1, 58993, Note_off_c, 4, 76, 127
1, 59088, Note_on_c, 4, 76, 127
1, 59089, Note_off_c, 2, 74, 127
1, 59184, Note_on_c, 6, 78, 127
1, 59185, Note_off_c, 4, 76, 127
1, 59280, Note_on_c, 8, 80, 127
1, 59281, Note_off_c, 6, 78, 127
1, 59336, Note_off_c, 0, 48, 127
1, 59376, Note_on_c, 12, 47, 127
1, 59376, Note_on_c, 10, 81, 127
1, 59377, Note_off_c, 8, 80, 127
1, 59472, Note_on_c, 10, 45, 127
1, 59472, Note_on_c, 12, 83, 127
1, 59473, Note_off_c, 10, 81, 127
1, 59473, Note_off_c, 12, 47, 127
1, 59568, Note_on_c, 7, 43, 127
1, 59568, Note_on_c, 0, 84, 127
1, 59569, Note_off_c, 12, 83, 127
1, 59569, Note_off_c, 10, 45, 127
1, 59664, Note_on_c, 6, 42, 127
1, 59664, Note_on_c, 2, 86, 127
1, 59665, Note_off_c, 0, 84, 127
1, 59665, Note_off_c, 7, 43, 127
1, 59760, Note_on_c, 10, 45, 127
1, 59760, Note_on_c, 0, 84, 127
1, 59761, Note_off_c, 2, 86, 127
1, 59761, Note_off_c, 6, 42, 127
1, 59850, Note_off_c, 0, 84, 127
1, 59856, Note_on_c, 8, 44, 127
1, 59856, Note_on_c, 12, 83, 127
1, 59857, Note_off_c, 10, 45, 127
1, 59946, Note_off_c, 12, 83, 127
1, 59952, Note_on_c, 12, 47, 127
1, 59952, Note_on_c, 2, 86, 127
1, 59953, Note_off_c, 8, 44, 127
1, 60042, Note_off_c, 2, 86, 127
1, 60048, Note_on_c, 10, 45, 127
1, 60048, Note_on_c, 0, 84, 127
1, 60049, Note_off_c, 12, 47, 127
1, 60144, Note_on_c, 12, 83, 127
1, 60145, Note_off_c, 0, 84, 127
1, 60240, Note_on_c, 10, 81, 127
1, 60241, Note_off_c, 12, 83, 127
1, 60268, Note_off_c, 10, 45, 127
1, 60336, Note_on_c, 8, 80, 127
1, 60337, Note_off_c, 10, 81, 127
1, 60432, Note_on_c, 10, 57, 127
1, 60432, Note_on_c, 10, 81, 127
1, 60433, Note_off_c, 8, 80, 127
1, 60528, Note_on_c, 7, 79, 127
1, 60529, Note_off_c, 10, 81, 127
1, 60624, Note_on_c, 5, 77, 127
1, 60625, Note_off_c, 7, 79, 127
1, 60652, Note_off_c, 10, 57, 127
1, 60720, Note_on_c, 4, 76, 127
1, 60721, Note_off_c, 5, 77, 127
1, 60816, Note_on_c, 2, 74, 127
1, 60817, Note_off_c, 4, 76, 127
1, 60912, Note_on_c, 0, 72, 127
1, 60913, Note_off_c, 2, 74, 127
1, 61008, Note_on_c, 12, 71, 127
1, 61009, Note_off_c, 0, 72, 127
1, 61104, Note_on_c, 10, 69, 127
1, 61105, Note_off_c, 12, 71, 127
1, 61200, Note_on_c, 8, 68, 127
1, 61201, Note_off_c, 10, 69, 127
1, 61296, Note_on_c, 2, 74, 127
1, 61388, Note_off_c, 8, 68, 127
1, 61392, Note_on_c, 0, 72, 127
1, 61393, Note_off_c, 2, 74, 127
1, 61488, Note_on_c, 12, 71, 127
1, 61489, Note_off_c, 0, 72, 127
1, 61584, Note_on_c, 10, 69, 127
1, 61584, Note_on_c, 0, 72, 127
1, 61585, Note_off_c, 12, 71, 127
1, 61680, Note_on_c, 12, 71, 127
1, 61681, Note_off_c, 0, 72, 127
1, 61773, Note_off_c, 10, 69, 127
1, 61776, Note_on_c, 10, 69, 127
1, 61777, Note_off_c, 12, 71, 127
1, 61872, Note_on_c, 7, 67, 127
1, 61873, Note_off_c, 10, 69, 127
1, 61968, Note_on_c, 5, 65, 127
1, 61969, Note_off_c, 7, 67, 127
1, 62064, Note_on_c, 4, 64, 127
1, 62065, Note_off_c, 5, 65, 127
1, 62160, Note_on_c, 2, 62, 127
1, 62161, Note_off_c, 4, 64, 127
1, 62256, Note_on_c, 0, 60, 127
1, 62257, Note_off_c, 2, 62, 127
1, 62346, Note_off_c, 0, 60, 127
1, 62352, Note_on_c, 12, 59, 127
1, 62448, Note_on_c, 5, 65, 127
1, 62544, Note_on_c, 4, 64, 127
1, 62545, Note_off_c, 5, 65, 127
1, 62582, Note_off_c, 12, 59, 127
1, 62640, Note_on_c, 2, 62, 127
1, 62641, Note_off_c, 4, 64, 127
1, 62736, Note_on_c, 8, 56, 127
1, 62736, Note_on_c, 4, 64, 127
1, 62737, Note_off_c, 2, 62, 127
1, 62832, Note_on_c, 2, 62, 127
1, 62833, Note_off_c, 4, 64, 127
1, 62928, Note_on_c, 0, 60, 127
1, 62929, Note_off_c, 2, 62, 127
1, 62956, Note_off_c, 8, 56, 127
1, 63024, Note_on_c, 12, 59, 127
1, 63025, Note_off_c, 0, 60, 127
1, 63120, Note_on_c, 10, 57, 127
1, 63121, Note_off_c, 12, 59, 127
1, 63216, Note_on_c, 8, 56, 127
1, 63217, Note_off_c, 10, 57, 127
1, 63312, Note_on_c, 6, 54, 127
1, 63313, Note_off_c, 8, 56, 127
1, 63408, Note_on_c, 4, 52, 127
1, 63409, Note_off_c, 6, 54, 127
1, 63498, Note_off_c, 4, 52, 127
1, 63504, Note_on_c, 2, 50, 127
1, 63600, Note_on_c, 12, 59, 127
1, 63696, Note_on_c, 10, 57, 127
1, 63697, Note_off_c, 12, 59, 127
1, 63754, Note_off_c, 2, 50, 127
1, 63792, Note_on_c, 8, 56, 127
1, 63793, Note_off_c, 10, 57, 127
1, 63888, Note_on_c, 0, 48, 127
1, 63888, Note_on_c, 10, 57, 127
1, 63889, Note_off_c, 8, 56, 127
1, 63984, Note_on_c, 5, 53, 127
1, 63985, Note_off_c, 10, 57, 127
1, 64080, Note_on_c, 4, 52, 127
1, 64081, Note_off_c, 5, 53, 127
1, 64148, Note_off_c, 0, 48, 127
1, 64176, Note_on_c, 2, 50, 127
1, 64177, Note_off_c, 4, 52, 127
1, 64272, Note_on_c, 0, 48, 127
1, 64273, Note_off_c, 2, 50, 127
1, 64368, Note_on_c, 12, 47, 127
1, 64369, Note_off_c, 0, 48, 127
1, 64464, Note_on_c, 10, 45, 127
1, 64465, Note_off_c, 12, 47, 127
1, 64560, Note_on_c, 8, 44, 127
1, 64561, Note_off_c, 10, 45, 127
1, 64656, Note_on_c, 10, 45, 127
1, 64657, Note_off_c, 8, 44, 127
1, 64752, Note_on_c, 5, 77, 127
1, 64848, Note_on_c, 10, 57, 127
1, 64848, Note_on_c, 4, 76, 127
1, 64849, Note_off_c, 5, 77, 127
1, 64876, Note_off_c, 10, 45, 127
1, 64944, Note_on_c, 2, 74, 127
1, 64945, Note_off_c, 4, 76, 127
1, 65040, Note_on_c, 0, 60, 127
1, 65040, Note_on_c, 4, 76, 127
1, 65041, Note_off_c, 2, 74, 127
1, 65041, Note_off_c, 10, 57, 127
1, 65136, Note_on_c, 2, 74, 127
1, 65137, Note_off_c, 4, 76, 127
1, 65210, Note_off_c, 0, 60, 127
1, 65232, Note_on_c, 10, 57, 127
1, 65232, Note_on_c, 0, 72, 127
1, 65233, Note_off_c, 2, 74, 127
1, 65328, Note_on_c, 12, 71, 127
1, 65329, Note_off_c, 0, 72, 127
1, 65402, Note_off_c, 10, 57, 127
1, 65424, Note_on_c, 5, 53, 127
1, 65424, Note_on_c, 10, 69, 127
1, 65425, Note_off_c, 12, 71, 127
1, 65520, Note_on_c, 2, 74, 127
1, 65521, Note_off_c, 10, 69, 127
1, 65594, Note_off_c, 5, 53, 127
1, 65610, Note_off_c, 2, 74, 127
1, 65616, Note_on_c, 2, 50, 127
1, 65616, Note_on_c, 4, 76, 127
1, 65706, Note_off_c, 4, 76, 127
1, 65712, Note_on_c, 5, 77, 127
1, 65786, Note_off_c, 2, 50, 127
1, 65802, Note_off_c, 5, 77, 127
1, 65808, Note_on_c, 7, 43, 127
1, 65808, Note_on_c, 12, 71, 127
1, 65904, Note_on_c, 2, 74, 127
1, 65905, Note_off_c, 12, 71, 127
1, 66000, Note_on_c, 7, 55, 127
1, 66000, Note_on_c, 4, 76, 127
1, 66001, Note_off_c, 2, 74, 127
1, 66028, Note_off_c, 7, 43, 127
1, 66096, Note_on_c, 5, 77, 127
1, 66097, Note_off_c, 4, 76, 127
1, 66192, Note_on_c, 12, 59, 127
1, 66192, Note_on_c, 7, 67, 127
1, 66193, Note_off_c, 5, 77, 127
1, 66193, Note_off_c, 7, 55, 127
1, 66288, Note_on_c, 5, 77, 127
1, 66289, Note_off_c, 7, 67, 127
1, 66362, Note_off_c, 12, 59, 127
1, 66384, Note_on_c, 7, 55, 127
1, 66384, Note_on_c, 4, 76, 127
1, 66385, Note_off_c, 5, 77, 127
1, 66480, Note_on_c, 2, 74, 127
1, 66481, Note_off_c, 4, 76, 127
1, 66554, Note_off_c, 7, 55, 127
1, 66576, Note_on_c, 4, 52, 127
1, 66576, Note_on_c, 0, 72, 127
1, 66577, Note_off_c, 2, 74, 127
1, 66672, Note_on_c, 2, 74, 127
1, 66673, Note_off_c, 0, 72, 127
1, 66746, Note_off_c, 4, 52, 127
1, 66762, Note_off_c, 2, 74, 127
1, 66768, Note_on_c, 0, 48, 127
1, 66768, Note_on_c, 4, 76, 127
1, 66858, Note_off_c, 4, 76, 127
1, 66864, Note_on_c, 0, 72, 127
1, 66938, Note_off_c, 0, 48, 127
1, 66954, Note_off_c, 0, 72, 127
1, 66960, Note_on_c, 5, 41, 127
1, 66960, Note_on_c, 10, 69, 127
1, 67056, Note_on_c, 2, 74, 127
1, 67057, Note_off_c, 10, 69, 127
1, 67152, Note_on_c, 5, 53, 127
1, 67152, Note_on_c, 0, 72, 127
1, 67153, Note_off_c, 2, 74, 127
1, 67180, Note_off_c, 5, 41, 127
1, 67248, Note_on_c, 12, 71, 127
1, 67249, Note_off_c, 0, 72, 127
1, 67344, Note_on_c, 10, 57, 127
1, 67344, Note_on_c, 0, 72, 127
1, 67345, Note_off_c, 12, 71, 127
1, 67345, Note_off_c, 5, 53, 127
1, 67440, Note_on_c, 12, 71, 127
1, 67441, Note_off_c, 0, 72, 127
1, 67514, Note_off_c, 10, 57, 127
1, 67536, Note_on_c, 5, 53, 127
1, 67536, Note_on_c, 10, 69, 127
1, 67537, Note_off_c, 12, 71, 127
1, 67632, Note_on_c, 7, 67, 127
1, 67633, Note_off_c, 10, 69, 127
1, 67706, Note_off_c, 5, 53, 127
1, 67728, Note_on_c, 2, 50, 127
1, 67728, Note_on_c, 5, 65, 127
1, 67729, Note_off_c, 7, 67, 127
1, 67824, Note_on_c, 12, 71, 127
1, 67825, Note_off_c, 5, 65, 127
1, 67898, Note_off_c, 2, 50, 127
1, 67914, Note_off_c, 12, 71, 127
1, 67920, Note_on_c, 12, 47, 127
1, 67920, Note_on_c, 0, 72, 127
1, 68010, Note_off_c, 0, 72, 127
1, 68016, Note_on_c, 2, 74, 127
1, 68090, Note_off_c, 12, 47, 127
1, 68106, Note_off_c, 2, 74, 127
1, 68112, Note_on_c, 4, 40, 127
1, 68112, Note_on_c, 7, 67, 127
1, 68208, Note_on_c, 12, 71, 127
1, 68209, Note_off_c, 7, 67, 127
1, 68304, Note_on_c, 4, 52, 127
1, 68304, Note_on_c, 0, 72, 127
1, 68305, Note_off_c, 12, 71, 127
1, 68332, Note_off_c, 4, 40, 127
1, 68400, Note_on_c, 2, 74, 127
1, 68401, Note_off_c, 0, 72, 127
1, 68496, Note_on_c, 7, 55, 127
1, 68496, Note_on_c, 4, 64, 127
1, 68497, Note_off_c, 2, 74, 127
1, 68497, Note_off_c, 4, 52, 127
1, 68592, Note_on_c, 2, 74, 127
1, 68593, Note_off_c, 4, 64, 127
1, 68666, Note_off_c, 7, 55, 127
1, 68688, Note_on_c, 4, 52, 127
1, 68688, Note_on_c, 0, 72, 127
1, 68689, Note_off_c, 2, 74, 127
1, 68784, Note_on_c, 12, 71, 127
1, 68785, Note_off_c, 0, 72, 127
1, 68858, Note_off_c, 4, 52, 127
1, 68880, Note_on_c, 0, 48, 127
1, 68880, Note_on_c, 10, 69, 127
1, 68881, Note_off_c, 12, 71, 127
1, 68976, Note_on_c, 12, 71, 127
1, 68977, Note_off_c, 10, 69, 127
1, 69050, Note_off_c, 0, 48, 127
1, 69066, Note_off_c, 12, 71, 127
1, 69072, Note_on_c, 10, 45, 127
1, 69072, Note_on_c, 0, 72, 127
1, 69162, Note_off_c, 0, 72, 127
1, 69168, Note_on_c, 10, 69, 127
1, 69242, Note_off_c, 10, 45, 127
1, 69258, Note_off_c, 10, 69, 127
1, 69264, Note_on_c, 2, 38, 127
1, 69264, Note_on_c, 5, 65, 127
1, 69360, Note_on_c, 0, 36, 127
1, 69361, Note_off_c, 2, 38, 127
1, 69456, Note_on_c, 2, 38, 127
1, 69456, Note_on_c, 12, 71, 127
1, 69457, Note_off_c, 0, 36, 127
1, 69457, Note_off_c, 5, 65, 127
1, 69552, Note_on_c, 4, 40, 127
1, 69552, Note_on_c, 0, 72, 127
1, 69553, Note_off_c, 12, 71, 127
1, 69553, Note_off_c, 2, 38, 127
1, 69648, Note_on_c, 5, 41, 127
1, 69648, Note_on_c, 2, 74, 127
1, 69649, Note_off_c, 0, 72, 127
1, 69649, Note_off_c, 4, 40, 127
1, 69744, Note_on_c, 7, 43, 127
1, 69745, Note_off_c, 5, 41, 127
1, 69840, Note_on_c, 10, 45, 127
1, 69841, Note_off_c, 7, 43, 127
1, 69936, Note_on_c, 12, 47, 127
1, 69937, Note_off_c, 10, 45, 127
1, 69968, Note_off_c, 2, 74, 127
1, 70032, Note_on_c, 0, 48, 127
1, 70033, Note_off_c, 12, 47, 127
1, 70128, Note_on_c, 12, 47, 127
1, 70128, Note_on_c, 7, 67, 127
1, 70129, Note_off_c, 0, 48, 127
1, 70218, Note_off_c, 7, 67, 127
1, 70224, Note_on_c, 10, 45, 127
1, 70224, Note_on_c, 5, 65, 127
1, 70225, Note_off_c, 12, 47, 127
1, 70314, Note_off_c, 5, 65, 127
1, 70320, Note_on_c, 0, 48, 127
1, 70320, Note_on_c, 4, 64, 127
1, 70321, Note_off_c, 10, 45, 127
1, 70410, Note_off_c, 4, 64, 127
1, 70416, Note_on_c, 12, 47, 127
1, 70416, Note_on_c, 5, 65, 127
1, 70417, Note_off_c, 0, 48, 127
1, 70512, Note_on_c, 10, 45, 127
1, 70513, Note_off_c, 12, 47, 127
1, 70608, Note_on_c, 7, 43, 127
1, 70608, Note_on_c, 12, 71, 127
1, 70609, Note_off_c, 10, 45, 127
1, 70609, Note_off_c, 5, 65, 127
1, 70704, Note_on_c, 10, 45, 127
1, 70704, Note_on_c, 0, 72, 127
1, 70705, Note_off_c, 12, 71, 127
1, 70705, Note_off_c, 7, 43, 127
1, 70800, Note_on_c, 12, 47, 127
1, 70800, Note_on_c, 2, 74, 127
1, 70801, Note_off_c, 0, 72, 127
1, 70801, Note_off_c, 10, 45, 127
1, 70896, Note_on_c, 0, 48, 127
1, 70897, Note_off_c, 12, 47, 127
1, 70992, Note_on_c, 2, 50, 127
1, 70993, Note_off_c, 0, 48, 127
1, 71088, Note_on_c, 4, 52, 127
1, 71089, Note_off_c, 2, 50, 127
1, 71184, Note_on_c, 5, 53, 127
1, 71185, Note_off_c, 4, 52, 127
1, 71200, Note_off_c, 2, 74, 127
1, 71280, Note_on_c, 4, 52, 127
1, 71280, Note_on_c, 0, 72, 127
1, 71281, Note_off_c, 5, 53, 127
1, 71370, Note_off_c, 0, 72, 127
1, 71376, Note_on_c, 2, 50, 127
1, 71376, Note_on_c, 12, 71, 127
1, 71377, Note_off_c, 4, 52, 127
1, 71466, Note_off_c, 12, 71, 127
1, 71472, Note_on_c, 5, 53, 127
1, 71472, Note_on_c, 2, 74, 127
1, 71473, Note_off_c, 2, 50, 127
1, 71562, Note_off_c, 2, 74, 127
1, 71568, Note_on_c, 4, 52, 127
1, 71568, Note_on_c, 7, 67, 127
1, 71569, Note_off_c, 5, 53, 127
1, 71664, Note_on_c, 4, 40, 127
1, 71664, Note_on_c, 0, 72, 127
1, 71665, Note_off_c, 4, 52, 127
1, 71718, Note_off_c, 7, 67, 127
1, 71760, Note_on_c, 5, 41, 127
1, 71760, Note_on_c, 12, 71, 127
1, 71761, Note_off_c, 0, 72, 127
1, 71761, Note_off_c, 4, 40, 127
1, 71856, Note_on_c, 7, 43, 127
1, 71856, Note_on_c, 10, 69, 127
1, 71857, Note_off_c, 12, 71, 127
1, 71857, Note_off_c, 5, 41, 127
1, 71952, Note_on_c, 10, 45, 127
1, 71952, Note_on_c, 7, 67, 127
1, 71953, Note_off_c, 10, 69, 127
1, 71953, Note_off_c, 7, 43, 127
1, 72048, Note_on_c, 12, 47, 127
1, 72048, Note_on_c, 5, 65, 127
1, 72049, Note_off_c, 7, 67, 127
1, 72049, Note_off_c, 10, 45, 127
1, 72144, Note_on_c, 0, 48, 127
1, 72144, Note_on_c, 4, 64, 127
1, 72145, Note_off_c, 5, 65, 127
1, 72145, Note_off_c, 12, 47, 127
1, 72240, Note_on_c, 2, 50, 127
1, 72240, Note_on_c, 2, 62, 127
1, 72241, Note_off_c, 4, 64, 127
1, 72241, Note_off_c, 0, 48, 127
1, 72336, Note_on_c, 4, 52, 127
1, 72336, Note_on_c, 0, 60, 127
1, 72337, Note_off_c, 2, 62, 127
1, 72337, Note_off_c, 2, 50, 127
1, 72432, Note_on_c, 2, 50, 127
1, 72432, Note_on_c, 4, 64, 127
1, 72433, Note_off_c, 4, 52, 127
1, 72496, Note_off_c, 0, 60, 127
1, 72522, Note_off_c, 4, 64, 127
1, 72528, Note_on_c, 4, 52, 127
1, 72528, Note_on_c, 2, 62, 127
1, 72529, Note_off_c, 2, 50, 127
1, 72618, Note_off_c, 2, 62, 127
1, 72624, Note_on_c, 5, 53, 127
1, 72624, Note_on_c, 0, 60, 127
1, 72625, Note_off_c, 4, 52, 127
1, 72714, Note_off_c, 0, 60, 127
1, 72720, Note_on_c, 7, 55, 127
1, 72720, Note_on_c, 12, 59, 127
1, 72721, Note_off_c, 5, 53, 127
1, 72816, Note_on_c, 0, 60, 127
1, 72910, Note_off_c, 12, 59, 127
1, 72912, Note_on_c, 5, 53, 127
1, 72912, Note_on_c, 2, 62, 127
1, 72913, Note_off_c, 0, 60, 127
1, 72913, Note_off_c, 7, 55, 127
1, 73008, Note_on_c, 4, 52, 127
1, 73008, Note_on_c, 4, 64, 127
1, 73009, Note_off_c, 2, 62, 127
1, 73009, Note_off_c, 5, 53, 127
1, 73104, Note_on_c, 2, 50, 127
1, 73104, Note_on_c, 5, 65, 127
1, 73105, Note_off_c, 4, 64, 127
1, 73105, Note_off_c, 4, 52, 127
1, 73200, Note_on_c, 0, 48, 127
1, 73200, Note_on_c, 7, 67, 127
1, 73201, Note_off_c, 5, 65, 127
1, 73201, Note_off_c, 2, 50, 127
1, 73296, Note_on_c, 12, 47, 127
1, 73296, Note_on_c, 10, 69, 127
1, 73297, Note_off_c, 7, 67, 127
1, 73297, Note_off_c, 0, 48, 127
1, 73392, Note_on_c, 10, 45, 127
1, 73392, Note_on_c, 12, 71, 127
1, 73393, Note_off_c, 10, 69, 127
1, 73393, Note_off_c, 12, 47, 127
1, 73488, Note_on_c, 7, 43, 127
1, 73488, Note_on_c, 0, 72, 127
1, 73489, Note_off_c, 12, 71, 127
1, 73489, Note_off_c, 10, 45, 127
1, 73584, Note_on_c, 5, 41, 127
1, 73584, Note_on_c, 2, 74, 127
1, 73585, Note_off_c, 0, 72, 127
1, 73585, Note_off_c, 7, 43, 127
1, 73659, Note_off_c, 2, 74, 127
1, 73664, Note_off_c, 5, 41, 127
1, 73680, Note_on_c, 4, 40, 127
1, 73680, Note_on_c, 4, 76, 127
1, 73755, Note_off_c, 4, 76, 127
1, 73760, Note_off_c, 4, 40, 127
1, 73776, Note_on_c, 2, 38, 127
1, 73776, Note_on_c, 5, 77, 127
1, 73846, Note_off_c, 5, 77, 127
1, 73856, Note_off_c, 2, 38, 127
1, 73872, Note_on_c, 0, 36, 127
1, 73872, Note_on_c, 7, 79, 127
1, 73968, Note_on_c, 5, 77, 127
1, 73982, Note_off_c, 7, 79, 127
1, 74064, Note_on_c, 4, 76, 127
1, 74065, Note_off_c, 5, 77, 127
1, 74160, Note_on_c, 2, 74, 127
1, 74161, Note_off_c, 4, 76, 127
1, 74252, Note_off_c, 0, 36, 127
1, 74256, Note_on_c, 0, 72, 127
1, 74257, Note_off_c, 2, 74, 127
1, 74446, Note_off_c, 0, 72, 127
1, 74640, Note_on_c, 0, 60, 127
1, 74640, Note_on_c, 7, 67, 127
1, 74640, Note_on_c, 4, 64, 127
1, 74760, Note_off_c, 4, 64, 127
1, 74760, Note_off_c, 7, 67, 127
1, 74760, Note_off_c, 0, 60, 127
1, 75024, Note_on_c, 0, 60, 127
1, 75024, Note_on_c, 10, 69, 127
1, 75024, Note_on_c, 5, 65, 127
1, 75144, Note_off_c, 5, 65, 127
1, 75144, Note_off_c, 10, 69, 127
1, 75144, Note_off_c, 0, 60, 127
1, 75408, Note_on_c, 0, 60, 127
1, 75408, Note_on_c, 4, 64, 127
1, 75408, Note_on_c, 7, 67, 127
1, 75598, Note_off_c, 7, 67, 127
1, 75598, Note_off_c, 4, 64, 127
1, 75598, Note_off_c, 0, 60, 127
1, 76176, Note_on_c, 7, 79, 127
1, 76272, Note_on_c, 5, 77, 127
1, 76273, Note_off_c, 7, 79, 127
1, 76368, Note_on_c, 4, 76, 127
1, 76369, Note_off_c, 5, 77, 127
1, 76464, Note_on_c, 2, 74, 127
1, 76465, Note_off_c, 4, 76, 127
1, 76560, Note_on_c, 0, 72, 127
1, 76561, Note_off_c, 2, 74, 127
1, 76656, Note_on_c, 12, 71, 127
1, 76657, Note_off_c, 0, 72, 127
1, 76752, Note_on_c, 10, 69, 127
1, 76753, Note_off_c, 12, 71, 127
1, 76848, Note_on_c, 7, 67, 127
1, 76849, Note_off_c, 10, 69, 127
1, 76944, Note_on_c, 5, 65, 127
1, 76945, Note_off_c, 7, 67, 127
1, 77040, Note_on_c, 4, 64, 127
1, 77041, Note_off_c, 5, 65, 127
1, 77136, Note_on_c, 2, 62, 127
1, 77137, Note_off_c, 4, 64, 127
1, 77232, Note_on_c, 0, 60, 127
1, 77233, Note_off_c, 2, 62, 127
1, 77328, Note_on_c, 7, 55, 127
1, 77328, Note_on_c, 0, 48, 127
1, 77328, Note_on_c, 12, 59, 127
1, 77328, Note_on_c, 5, 65, 127
1, 77328, Note_on_c, 2, 62, 127
1, 77329, Note_off_c, 0, 60, 127
1, 77418, Note_off_c, 2, 62, 127
1, 77418, Note_off_c, 5, 65, 127
1, 77418, Note_off_c, 12, 59, 127
1, 77418, Note_off_c, 0, 48, 127
1, 77418, Note_off_c, 7, 55, 127
1, 77712, Note_on_c, 0, 48, 127
1, 77712, Note_on_c, 0, 36, 127
1, 77712, Note_on_c, 7, 55, 127
1, 77712, Note_on_c, 4, 64, 127
1, 77712, Note_on_c, 0, 60, 127
1, 77902, Note_off_c, 0, 60, 127
1, 77902, Note_off_c, 4, 64, 127
1, 77902, Note_off_c, 7, 55, 127
1, 77902, Note_off_c, 0, 36, 127
1, 77902, Note_off_c, 0, 48, 127
1, 78480, Note_on_c, 0, 48, 127
1, 78576, Note_on_c, 0, 60, 127
1, 78577, Note_off_c, 0, 48, 127
1, 78672, Note_on_c, 4, 64, 127
1, 78672, Note_on_c, 0, 72, 127
1, 78673, Note_off_c, 0, 60, 127
1, 78768, Note_on_c, 0, 60, 127
1, 78769, Note_off_c, 4, 64, 127
1, 78864, Note_on_c, 10, 57, 127
1, 78864, Note_on_c, 4, 76, 127
1, 78865, Note_off_c, 0, 60, 127
1, 78865, Note_off_c, 0, 72, 127
1, 78960, Note_on_c, 0, 60, 127
1, 78961, Note_off_c, 10, 57, 127
1, 79056, Note_on_c, 4, 64, 127
1, 79056, Note_on_c, 0, 72, 127
1, 79057, Note_off_c, 0, 60, 127
1, 79057, Note_off_c, 4, 76, 127
1, 79152, Note_on_c, 0, 60, 127
1, 79153, Note_off_c, 4, 64, 127
1, 79248, Note_on_c, 6, 54, 127
1, 79248, Note_on_c, 10, 69, 127
1, 79249, Note_off_c, 0, 60, 127
1, 79249, Note_off_c, 0, 72, 127
1, 79344, Note_on_c, 0, 60, 127
1, 79345, Note_off_c, 6, 54, 127
1, 79440, Note_on_c, 4, 64, 127
1, 79440, Note_on_c, 6, 66, 127
1, 79441, Note_off_c, 0, 60, 127
1, 79441, Note_off_c, 10, 69, 127
1, 79536, Note_on_c, 0, 60, 127
1, 79537, Note_off_c, 4, 64, 127
1, 79632, Note_on_c, 12, 47, 127
1, 79633, Note_off_c, 0, 60, 127
1, 79660, Note_off_c, 6, 66, 127
1, 79728, Note_on_c, 12, 71, 127
1, 79824, Note_on_c, 12, 59, 127
1, 79824, Note_on_c, 2, 74, 127
1, 79825, Note_off_c, 12, 71, 127
1, 79825, Note_off_c, 12, 47, 127
1, 79920, Note_on_c, 12, 71, 127
1, 79921, Note_off_c, 2, 74, 127
1, 80016, Note_on_c, 2, 62, 127
1, 80016, Note_on_c, 6, 66, 127
1, 80017, Note_off_c, 12, 71, 127
1, 80017, Note_off_c, 12, 59, 127
1, 80112, Note_on_c, 12, 71, 127
1, 80113, Note_off_c, 6, 66, 127
1, 80208, Note_on_c, 12, 59, 127
1, 80208, Note_on_c, 2, 74, 127
1, 80209, Note_off_c, 12, 71, 127
1, 80209, Note_off_c, 2, 62, 127
1, 80304, Note_on_c, 12, 71, 127
1, 80305, Note_off_c, 2, 74, 127
1, 80400, Note_on_c, 7, 55, 127
1, 80400, Note_on_c, 4, 64, 127
1, 80401, Note_off_c, 12, 71, 127
1, 80401, Note_off_c, 12, 59, 127
1, 80496, Note_on_c, 12, 71, 127
1, 80497, Note_off_c, 4, 64, 127
1, 80592, Note_on_c, 4, 52, 127
1, 80592, Note_on_c, 2, 74, 127
1, 80593, Note_off_c, 12, 71, 127
1, 80593, Note_off_c, 7, 55, 127
1, 80688, Note_on_c, 12, 71, 127
1, 80689, Note_off_c, 2, 74, 127
1, 80784, Note_on_c, 10, 45, 127
1, 80784, Note_on_c, 0, 72, 127
1, 80785, Note_off_c, 12, 71, 127
1, 80785, Note_off_c, 4, 52, 127
1, 80880, Note_on_c, 10, 57, 127
1, 80881, Note_off_c, 10, 45, 127
1, 80976, Note_on_c, 0, 60, 127
1, 80976, Note_on_c, 10, 81, 127
1, 80977, Note_off_c, 10, 57, 127
1, 80977, Note_off_c, 0, 72, 127
1, 81072, Note_on_c, 10, 57, 127
1, 81073, Note_off_c, 0, 60, 127
1, 81160, Note_off_c, 10, 81, 127
1, 81168, Note_on_c, 6, 54, 127
1, 81168, Note_on_c, 0, 84, 127
1, 81169, Note_off_c, 10, 57, 127
1, 81264, Note_on_c, 10, 57, 127
1, 81265, Note_off_c, 6, 54, 127
1, 81352, Note_off_c, 0, 84, 127
1, 81360, Note_on_c, 0, 60, 127
1, 81360, Note_on_c, 10, 81, 127
1, 81361, Note_off_c, 10, 57, 127
1, 81456, Note_on_c, 10, 57, 127
1, 81457, Note_off_c, 0, 60, 127
1, 81544, Note_off_c, 10, 81, 127
1, 81552, Note_on_c, 2, 50, 127
1, 81552, Note_on_c, 6, 78, 127
1, 81553, Note_off_c, 10, 57, 127
1, 81648, Note_on_c, 10, 57, 127
1, 81649, Note_off_c, 2, 50, 127
1, 81736, Note_off_c, 6, 78, 127
1, 81744, Note_on_c, 0, 60, 127
1, 81744, Note_on_c, 2, 74, 127
1, 81745, Note_off_c, 10, 57, 127
1, 81840, Note_on_c, 10, 57, 127
1, 81841, Note_off_c, 0, 60, 127
1, 81936, Note_on_c, 7, 43, 127
1, 81937, Note_off_c, 10, 57, 127
1, 81964, Note_off_c, 2, 74, 127
1, 82032, Note_on_c, 7, 79, 127
1, 82128, Note_on_c, 7, 55, 127
1, 82128, Note_on_c, 12, 83, 127
1, 82129, Note_off_c, 7, 79, 127
1, 82129, Note_off_c, 7, 43, 127
1, 82224, Note_on_c, 7, 79, 127
1, 82225, Note_off_c, 12, 83, 127
1, 82320, Note_on_c, 12, 59, 127
1, 82320, Note_on_c, 2, 74, 127
1, 82321, Note_off_c, 7, 79, 127
1, 82321, Note_off_c, 7, 55, 127
1, 82416, Note_on_c, 7, 79, 127
1, 82417, Note_off_c, 2, 74, 127
1, 82512, Note_on_c, 7, 55, 127
1, 82512, Note_on_c, 12, 83, 127
1, 82513, Note_off_c, 7, 79, 127
1, 82513, Note_off_c, 12, 59, 127
1, 82608, Note_on_c, 7, 79, 127
1, 82609, Note_off_c, 12, 83, 127
1, 82704, Note_on_c, 4, 52, 127
1, 82704, Note_on_c, 0, 72, 127
1, 82705, Note_off_c, 7, 79, 127
1, 82705, Note_off_c, 7, 55, 127
1, 82800, Note_on_c, 12, 83, 127
1, 82801, Note_off_c, 0, 72, 127
1, 82896, Note_on_c, 0, 48, 127
1, 82896, Note_on_c, 10, 81, 127
1, 82897, Note_off_c, 12, 83, 127
1, 82897, Note_off_c, 4, 52, 127
1, 82992, Note_on_c, 7, 79, 127
1, 82993, Note_off_c, 10, 81, 127
1, 83088, Note_on_c, 2, 50, 127
1, 83088, Note_on_c, 6, 78, 127
1, 83089, Note_off_c, 7, 79, 127
1, 83089, Note_off_c, 0, 48, 127
1, 83280, Note_on_c, 2, 62, 127
1, 83281, Note_off_c, 6, 78, 127
1, 83368, Note_off_c, 2, 50, 127
1, 83376, Note_on_c, 4, 64, 127
1, 83377, Note_off_c, 2, 62, 127
1, 83472, Note_on_c, 2, 38, 127
1, 83472, Note_on_c, 6, 66, 127
1, 83473, Note_off_c, 4, 64, 127
1, 83568, Note_on_c, 7, 67, 127
1, 83569, Note_off_c, 6, 66, 127
1, 83664, Note_on_c, 10, 69, 127
1, 83665, Note_off_c, 7, 67, 127
1, 83752, Note_off_c, 2, 38, 127
1, 83856, Note_on_c, 6, 54, 127
1, 83856, Note_on_c, 2, 50, 127
1, 84046, Note_off_c, 2, 50, 127
1, 84046, Note_off_c, 6, 54, 127
1, 84048, Note_on_c, 0, 60, 127
1, 84049, Note_off_c, 10, 69, 127
1, 84240, Note_on_c, 2, 50, 127
1, 84240, Note_on_c, 7, 55, 127
1, 84268, Note_off_c, 0, 60, 127
1, 84336, Note_on_c, 11, 58, 127
1, 84432, Note_on_c, 0, 60, 127
1, 84433, Note_off_c, 11, 58, 127
1, 84520, Note_off_c, 7, 55, 127
1, 84520, Note_off_c, 2, 50, 127
1, 84528, Note_on_c, 2, 62, 127
1, 84529, Note_off_c, 0, 60, 127
1, 84624, Note_on_c, 2, 38, 127
1, 84624, Note_on_c, 4, 64, 127
1, 84625, Note_off_c, 2, 62, 127
1, 84720, Note_on_c, 6, 66, 127
1, 84721, Note_off_c, 4, 64, 127
1, 84814, Note_off_c, 2, 38, 127
1, 84816, Note_on_c, 7, 67, 127
1, 84817, Note_off_c, 6, 66, 127
1, 84912, Note_on_c, 10, 69, 127
1, 84913, Note_off_c, 7, 67, 127
1, 85008, Note_on_c, 7, 55, 127
1, 85008, Note_on_c, 4, 52, 127
1, 85008, Note_on_c, 2, 50, 127
1, 85008, Note_on_c, 1, 61, 127
1, 85008, Note_on_c, 11, 70, 127
1, 85009, Note_off_c, 10, 69, 127
1, 85104, Note_on_c, 10, 69, 127
1, 85105, Note_off_c, 11, 70, 127
1, 85168, Note_off_c, 1, 61, 127
1, 85198, Note_off_c, 2, 50, 127
1, 85198, Note_off_c, 4, 52, 127
1, 85198, Note_off_c, 7, 55, 127
1, 85200, Note_on_c, 7, 67, 127
1, 85201, Note_off_c, 10, 69, 127
1, 85296, Note_on_c, 11, 70, 127
1, 85297, Note_off_c, 7, 67, 127
1, 85392, Note_on_c, 6, 54, 127
1, 85392, Note_on_c, 10, 57, 127
1, 85392, Note_on_c, 2, 50, 127
1, 85392, Note_on_c, 2, 62, 127
1, 85392, Note_on_c, 10, 69, 127
1, 85393, Note_off_c, 11, 70, 127
1, 85488, Note_on_c, 7, 67, 127
1, 85512, Note_off_c, 10, 69, 127
1, 85584, Note_on_c, 6, 66, 127
1, 85585, Note_off_c, 7, 67, 127
1, 85672, Note_off_c, 2, 62, 127
1, 85672, Note_off_c, 2, 50, 127
1, 85672, Note_off_c, 10, 57, 127
1, 85672, Note_off_c, 6, 54, 127
1, 85680, Note_on_c, 7, 67, 127
1, 85681, Note_off_c, 6, 66, 127
1, 85776, Note_on_c, 2, 38, 127
1, 85776, Note_on_c, 10, 69, 127
1, 85777, Note_off_c, 7, 67, 127
1, 85872, Note_on_c, 11, 70, 127
1, 85873, Note_off_c, 10, 69, 127
1, 85966, Note_off_c, 2, 38, 127
1, 85968, Note_on_c, 0, 72, 127
1, 85969, Note_off_c, 11, 70, 127
1, 86160, Note_on_c, 10, 57, 127
1, 86160, Note_on_c, 6, 54, 127
1, 86160, Note_on_c, 2, 50, 127
1, 86350, Note_off_c, 2, 50, 127
1, 86350, Note_off_c, 6, 54, 127
1, 86350, Note_off_c, 10, 57, 127
1, 86352, Note_on_c, 3, 63, 127
1, 86353, Note_off_c, 0, 72, 127
1, 86544, Note_on_c, 11, 58, 127
1, 86544, Note_on_c, 7, 55, 127
1, 86544, Note_on_c, 2, 50, 127
1, 86572, Note_off_c, 3, 63, 127
1, 86640, Note_on_c, 2, 62, 127
1, 86736, Note_on_c, 4, 64, 127
1, 86737, Note_off_c, 2, 62, 127
1, 86824, Note_off_c, 2, 50, 127
1, 86824, Note_off_c, 7, 55, 127
1, 86824, Note_off_c, 11, 58, 127
1, 86832, Note_on_c, 6, 66, 127
1, 86833, Note_off_c, 4, 64, 127
1, 86928, Note_on_c, 2, 38, 127
1, 86928, Note_on_c, 7, 67, 127
1, 86929, Note_off_c, 6, 66, 127
1, 87024, Note_on_c, 10, 69, 127
1, 87025, Note_off_c, 7, 67, 127
1, 87118, Note_off_c, 2, 38, 127
1, 87120, Note_on_c, 11, 70, 127
1, 87121, Note_off_c, 10, 69, 127
1, 87216, Note_on_c, 0, 72, 127
1, 87217, Note_off_c, 11, 70, 127
1, 87312, Note_on_c, 2, 50, 127
1, 87312, Note_on_c, 11, 58, 127
1, 87312, Note_on_c, 7, 55, 127
1, 87312, Note_on_c, 2, 74, 127
1, 87313, Note_off_c, 0, 72, 127
1, 87408, Note_on_c, 0, 72, 127
1, 87409, Note_off_c, 2, 74, 127
1, 87502, Note_off_c, 7, 55, 127
1, 87502, Note_off_c, 11, 58, 127
1, 87502, Note_off_c, 2, 50, 127
1, 87504, Note_on_c, 11, 70, 127
1, 87505, Note_off_c, 0, 72, 127
1, 87600, Note_on_c, 2, 74, 127
1, 87601, Note_off_c, 11, 70, 127
1, 87696, Note_on_c, 2, 50, 127
1, 87696, Note_on_c, 10, 57, 127
1, 87696, Note_on_c, 6, 54, 127
1, 87696, Note_on_c, 0, 72, 127
1, 87697, Note_off_c, 2, 74, 127
1, 87792, Note_on_c, 11, 70, 127
1, 87793, Note_off_c, 0, 72, 127
1, 87888, Note_on_c, 10, 69, 127
1, 87889, Note_off_c, 11, 70, 127
1, 87976, Note_off_c, 6, 54, 127
1, 87976, Note_off_c, 10, 57, 127
1, 87976, Note_off_c, 2, 50, 127
1, 87984, Note_on_c, 11, 70, 127
1, 87985, Note_off_c, 10, 69, 127
1, 88080, Note_on_c, 2, 38, 127
1, 88080, Note_on_c, 0, 72, 127
1, 88081, Note_off_c, 11, 70, 127
1, 88176, Note_on_c, 2, 74, 127
1, 88177, Note_off_c, 0, 72, 127
1, 88270, Note_off_c, 2, 38, 127
1, 88272, Note_on_c, 3, 75, 127
1, 88273, Note_off_c, 2, 74, 127
1, 88464, Note_on_c, 11, 58, 127
1, 88464, Note_on_c, 2, 50, 127
1, 88464, Note_on_c, 7, 55, 127
1, 88612, Note_off_c, 3, 75, 127
1, 88654, Note_off_c, 7, 55, 127
1, 88654, Note_off_c, 2, 50, 127
1, 88654, Note_off_c, 11, 58, 127
1, 88656, Note_on_c, 7, 67, 127
1, 88848, Note_on_c, 2, 50, 127
1, 88848, Note_on_c, 10, 57, 127
1, 88848, Note_on_c, 0, 60, 127
1, 88876, Note_off_c, 7, 67, 127
1, 88944, Note_on_c, 6, 66, 127
1, 89040, Note_on_c, 11, 58, 127
1, 89040, Note_on_c, 7, 55, 127
1, 89040, Note_on_c, 4, 64, 127
1, 89041, Note_off_c, 6, 66, 127
1, 89041, Note_off_c, 0, 60, 127
1, 89041, Note_off_c, 10, 57, 127
1, 89128, Note_off_c, 2, 50, 127
1, 89136, Note_on_c, 2, 62, 127
1, 89137, Note_off_c, 4, 64, 127
1, 89232, Note_on_c, 6, 54, 127
1, 89232, Note_on_c, 10, 57, 127
1, 89232, Note_on_c, 4, 64, 127
1, 89233, Note_off_c, 2, 62, 127
1, 89233, Note_off_c, 7, 55, 127
1, 89233, Note_off_c, 11, 58, 127
1, 89328, Note_on_c, 6, 66, 127
1, 89329, Note_off_c, 4, 64, 127
1, 89424, Note_on_c, 7, 55, 127
1, 89424, Note_on_c, 4, 52, 127
1, 89424, Note_on_c, 7, 67, 127
1, 89425, Note_off_c, 6, 66, 127
1, 89425, Note_off_c, 10, 57, 127
1, 89425, Note_off_c, 6, 54, 127
1, 89520, Note_on_c, 10, 69, 127
1, 89521, Note_off_c, 7, 67, 127
1, 89584, Note_off_c, 4, 52, 127
1, 89584, Note_off_c, 7, 55, 127
1, 89616, Note_on_c, 5, 53, 127
1, 89616, Note_on_c, 2, 50, 127
1, 89616, Note_on_c, 12, 71, 127
1, 89617, Note_off_c, 10, 69, 127
1, 89712, Note_on_c, 0, 72, 127
1, 89713, Note_off_c, 12, 71, 127
1, 89756, Note_off_c, 2, 50, 127
1, 89756, Note_off_c, 5, 53, 127
1, 89808, Note_on_c, 0, 48, 127
1, 89808, Note_on_c, 3, 51, 127
1, 89808, Note_on_c, 2, 74, 127
1, 89809, Note_off_c, 0, 72, 127
1, 89904, Note_on_c, 3, 75, 127
1, 89905, Note_off_c, 2, 74, 127
1, 89938, Note_off_c, 3, 51, 127
1, 89938, Note_off_c, 0, 48, 127
1, 90000, Note_on_c, 12, 47, 127
1, 90000, Note_on_c, 2, 50, 127
1, 90000, Note_on_c, 5, 53, 127
1, 90000, Note_on_c, 5, 77, 127
1, 90001, Note_off_c, 3, 75, 127
1, 90096, Note_on_c, 7, 55, 127
1, 90097, Note_off_c, 5, 53, 127
1, 90097, Note_off_c, 2, 50, 127
1, 90097, Note_off_c, 12, 47, 127
1, 90192, Note_on_c, 6, 54, 127
1, 90192, Note_on_c, 7, 67, 127
1, 90220, Note_off_c, 5, 77, 127
1, 90236, Note_off_c, 7, 55, 127
1, 90288, Note_on_c, 7, 55, 127
1, 90289, Note_off_c, 6, 54, 127
1, 90382, Note_off_c, 7, 67, 127
1, 90384, Note_on_c, 10, 57, 127
1, 90428, Note_off_c, 7, 55, 127
1, 90480, Note_on_c, 7, 55, 127
1, 90481, Note_off_c, 10, 57, 127
1, 90576, Note_on_c, 6, 54, 127
1, 90576, Note_on_c, 12, 71, 127
1, 90620, Note_off_c, 7, 55, 127
1, 90672, Note_on_c, 7, 55, 127
1, 90673, Note_off_c, 6, 54, 127
1, 90768, Note_on_c, 4, 52, 127
1, 90768, Note_on_c, 0, 72, 127
1, 90769, Note_off_c, 7, 55, 127
1, 90769, Note_off_c, 12, 71, 127
1, 90864, Note_on_c, 7, 55, 127
1, 90865, Note_off_c, 4, 52, 127
1, 90960, Note_on_c, 4, 52, 127
1, 90960, Note_on_c, 2, 74, 127
1, 90961, Note_off_c, 7, 55, 127
1, 90961, Note_off_c, 0, 72, 127
1, 91056, Note_on_c, 2, 50, 127
1, 91057, Note_off_c, 4, 52, 127
1, 91152, Note_on_c, 0, 48, 127
1, 91152, Note_on_c, 4, 76, 127
1, 91153, Note_off_c, 2, 50, 127
1, 91153, Note_off_c, 2, 74, 127
1, 91248, Note_on_c, 7, 55, 127
1, 91248, Note_on_c, 2, 74, 127
1, 91249, Note_off_c, 4, 76, 127
1, 91249, Note_off_c, 0, 48, 127
1, 91344, Note_on_c, 6, 54, 127
1, 91344, Note_on_c, 4, 76, 127
1, 91345, Note_off_c, 2, 74, 127
1, 91345, Note_off_c, 7, 55, 127
1, 91440, Note_on_c, 7, 55, 127
1, 91441, Note_off_c, 6, 54, 127
1, 91536, Note_on_c, 10, 57, 127
1, 91536, Note_on_c, 6, 66, 127
1, 91537, Note_off_c, 7, 55, 127
1, 91537, Note_off_c, 4, 76, 127
1, 91632, Note_on_c, 7, 55, 127
1, 91633, Note_off_c, 10, 57, 127
1, 91728, Note_on_c, 6, 54, 127
1, 91728, Note_on_c, 10, 69, 127
1, 91729, Note_off_c, 7, 55, 127
1, 91729, Note_off_c, 6, 66, 127
1, 91824, Note_on_c, 7, 55, 127
1, 91825, Note_off_c, 6, 54, 127
1, 91912, Note_off_c, 10, 69, 127
1, 91920, Note_on_c, 2, 50, 127
1, 91920, Note_on_c, 12, 71, 127
1, 91921, Note_off_c, 7, 55, 127
1, 92016, Note_on_c, 7, 55, 127
1, 92017, Note_off_c, 2, 50, 127
1, 92104, Note_off_c, 12, 71, 127
1, 92112, Note_on_c, 2, 50, 127
1, 92112, Note_on_c, 0, 72, 127
1, 92113, Note_off_c, 7, 55, 127
1, 92208, Note_on_c, 0, 48, 127
1, 92209, Note_off_c, 2, 50, 127
1, 92296, Note_off_c, 0, 72, 127
1, 92304, Note_on_c, 12, 47, 127
1, 92304, Note_on_c, 2, 74, 127
1, 92305, Note_off_c, 0, 48, 127
1, 92400, Note_on_c, 6, 66, 127
1, 92401, Note_off_c, 2, 74, 127
1, 92496, Note_on_c, 7, 55, 127
1, 92496, Note_on_c, 4, 64, 127
1, 92497, Note_off_c, 6, 66, 127
1, 92497, Note_off_c, 12, 47, 127
1, 92592, Note_on_c, 6, 66, 127
1, 92593, Note_off_c, 4, 64, 127
1, 92688, Note_on_c, 12, 59, 127
1, 92688, Note_on_c, 7, 67, 127
1, 92689, Note_off_c, 6, 66, 127
1, 92689, Note_off_c, 7, 55, 127
1, 92784, Note_on_c, 6, 66, 127
1, 92785, Note_off_c, 7, 67, 127
1, 92880, Note_on_c, 7, 55, 127
1, 92880, Note_on_c, 4, 64, 127
1, 92881, Note_off_c, 6, 66, 127
1, 92881, Note_off_c, 12, 59, 127
1, 92976, Note_on_c, 6, 66, 127
1, 92977, Note_off_c, 4, 64, 127
1, 93072, Note_on_c, 4, 52, 127
1, 93072, Note_on_c, 7, 67, 127
1, 93073, Note_off_c, 6, 66, 127
1, 93073, Note_off_c, 7, 55, 127
1, 93168, Note_on_c, 4, 64, 127
1, 93169, Note_off_c, 7, 67, 127
1, 93256, Note_off_c, 4, 52, 127
1, 93264, Note_on_c, 0, 48, 127
1, 93264, Note_on_c, 10, 69, 127
1, 93265, Note_off_c, 4, 64, 127
1, 93360, Note_on_c, 12, 71, 127
1, 93361, Note_off_c, 10, 69, 127
1, 93448, Note_off_c, 0, 48, 127
1, 93456, Note_on_c, 10, 45, 127
1, 93456, Note_on_c, 0, 72, 127
1, 93457, Note_off_c, 12, 71, 127
1, 93552, Note_on_c, 4, 64, 127
1, 93553, Note_off_c, 0, 72, 127
1, 93648, Note_on_c, 6, 54, 127
1, 93648, Note_on_c, 2, 62, 127
1, 93649, Note_off_c, 4, 64, 127
1, 93649, Note_off_c, 10, 45, 127
1, 93744, Note_on_c, 4, 64, 127
1, 93745, Note_off_c, 2, 62, 127
1, 93840, Note_on_c, 10, 57, 127
1, 93840, Note_on_c, 6, 66, 127
1, 93841, Note_off_c, 4, 64, 127
1, 93841, Note_off_c, 6, 54, 127
1, 93936, Note_on_c, 4, 64, 127
1, 93937, Note_off_c, 6, 66, 127
1, 94032, Note_on_c, 6, 54, 127
1, 94032, Note_on_c, 2, 62, 127
1, 94033, Note_off_c, 4, 64, 127
1, 94033, Note_off_c, 10, 57, 127
1, 94128, Note_on_c, 4, 64, 127
1, 94129, Note_off_c, 2, 62, 127
1, 94224, Note_on_c, 2, 50, 127
1, 94224, Note_on_c, 6, 66, 127
1, 94225, Note_off_c, 4, 64, 127
1, 94225, Note_off_c, 6, 54, 127
1, 94320, Note_on_c, 2, 62, 127
1, 94321, Note_off_c, 6, 66, 127
1, 94408, Note_off_c, 2, 50, 127
1, 94416, Note_on_c, 12, 47, 127
1, 94416, Note_on_c, 7, 67, 127
1, 94417, Note_off_c, 2, 62, 127
1, 94512, Note_on_c, 10, 69, 127
1, 94513, Note_off_c, 7, 67, 127
1, 94600, Note_off_c, 12, 47, 127
1, 94608, Note_on_c, 7, 43, 127
1, 94608, Note_on_c, 12, 71, 127
1, 94609, Note_off_c, 10, 69, 127
1, 94704, Note_on_c, 10, 69, 127
1, 94705, Note_off_c, 12, 71, 127
1, 94800, Note_on_c, 2, 50, 127
1, 94800, Note_on_c, 7, 67, 127
1, 94801, Note_off_c, 10, 69, 127
1, 94801, Note_off_c, 7, 43, 127
1, 94896, Note_on_c, 6, 66, 127
1, 94897, Note_off_c, 7, 67, 127
1, 94992, Note_on_c, 12, 47, 127
1, 94992, Note_on_c, 7, 67, 127
1, 94993, Note_off_c, 6, 66, 127
1, 94993, Note_off_c, 2, 50, 127
1, 95088, Note_on_c, 12, 71, 127
1, 95089, Note_off_c, 7, 67, 127
1, 95176, Note_off_c, 12, 47, 127
1, 95184, Note_on_c, 7, 43, 127
1, 95184, Note_on_c, 2, 62, 127
1, 95185, Note_off_c, 12, 71, 127
1, 95280, Note_on_c, 6, 66, 127
1, 95281, Note_off_c, 2, 62, 127
1, 95368, Note_off_c, 7, 43, 127
1, 95376, Note_on_c, 6, 42, 127
1, 95376, Note_on_c, 7, 67, 127
1, 95377, Note_off_c, 6, 66, 127
1, 95472, Note_on_c, 12, 71, 127
1, 95473, Note_off_c, 7, 67, 127
1, 95568, Note_on_c, 2, 50, 127
1, 95568, Note_on_c, 2, 62, 127
1, 95569, Note_off_c, 12, 71, 127
1, 95569, Note_off_c, 6, 42, 127
1, 95648, Note_off_c, 2, 62, 127
1, 95664, Note_on_c, 6, 66, 127
1, 95729, Note_off_c, 6, 66, 127
1, 95760, Note_on_c, 4, 40, 127
1, 95760, Note_on_c, 11, 70, 127
1, 95761, Note_off_c, 2, 50, 127
1, 95856, Note_on_c, 10, 69, 127
1, 95857, Note_off_c, 11, 70, 127
1, 95952, Note_on_c, 1, 49, 127
1, 95952, Note_on_c, 7, 67, 127
1, 95953, Note_off_c, 10, 69, 127
1, 95953, Note_off_c, 4, 40, 127
1, 96048, Note_on_c, 6, 66, 127
1, 96049, Note_off_c, 7, 67, 127
1, 96144, Note_on_c, 11, 46, 127
1, 96144, Note_on_c, 7, 67, 127
1, 96145, Note_off_c, 6, 66, 127
1, 96145, Note_off_c, 1, 49, 127
1, 96240, Note_on_c, 11, 70, 127
1, 96241, Note_off_c, 7, 67, 127
1, 96328, Note_off_c, 11, 46, 127
1, 96336, Note_on_c, 7, 43, 127
1, 96336, Note_on_c, 1, 61, 127
1, 96337, Note_off_c, 11, 70, 127
1, 96432, Note_on_c, 6, 66, 127
1, 96433, Note_off_c, 1, 61, 127
1, 96518, Note_off_c, 7, 43, 127
1, 96528, Note_on_c, 2, 38, 127
1, 96528, Note_on_c, 7, 67, 127
1, 96529, Note_off_c, 6, 66, 127
1, 96624, Note_on_c, 11, 70, 127
1, 96625, Note_off_c, 7, 67, 127
1, 96720, Note_on_c, 2, 50, 127
1, 96720, Note_on_c, 2, 62, 127
1, 96721, Note_off_c, 11, 70, 127
1, 96721, Note_off_c, 2, 38, 127
1, 96800, Note_off_c, 2, 62, 127
1, 96816, Note_on_c, 6, 66, 127
1, 96891, Note_off_c, 6, 66, 127
1, 96912, Note_on_c, 1, 37, 127
1, 96912, Note_on_c, 11, 70, 127
1, 96913, Note_off_c, 2, 50, 127
1, 97008, Note_on_c, 10, 69, 127
1, 97009, Note_off_c, 11, 70, 127
1, 97104, Note_on_c, 4, 52, 127
1, 97104, Note_on_c, 7, 67, 127
1, 97105, Note_off_c, 10, 69, 127
1, 97105, Note_off_c, 1, 37, 127
1, 97200, Note_on_c, 6, 66, 127
1, 97201, Note_off_c, 7, 67, 127
1, 97296, Note_on_c, 11, 46, 127
1, 97296, Note_on_c, 7, 67, 127
1, 97297, Note_off_c, 6, 66, 127
1, 97297, Note_off_c, 4, 52, 127
1, 97392, Note_on_c, 11, 70, 127
1, 97393, Note_off_c, 7, 67, 127
1, 97480, Note_off_c, 11, 46, 127
1, 97488, Note_on_c, 7, 43, 127
1, 97488, Note_on_c, 1, 61, 127
1, 97489, Note_off_c, 11, 70, 127
1, 97584, Note_on_c, 6, 66, 127
1, 97585, Note_off_c, 1, 61, 127
1, 97672, Note_off_c, 7, 43, 127
1, 97680, Note_on_c, 1, 37, 127
1, 97680, Note_on_c, 7, 67, 127
1, 97681, Note_off_c, 6, 66, 127
1, 97776, Note_on_c, 11, 70, 127
1, 97777, Note_off_c, 7, 67, 127
1, 97872, Note_on_c, 4, 52, 127
1, 97872, Note_on_c, 10, 69, 127
1, 97873, Note_off_c, 11, 70, 127
1, 97873, Note_off_c, 1, 37, 127
1, 97952, Note_off_c, 10, 69, 127
1, 97968, Note_on_c, 7, 67, 127
1, 98048, Note_off_c, 7, 67, 127
1, 98065, Note_off_c, 4, 52, 127
1, 98128, Note_on_c, 0, 36, 127
1, 98128, Note_on_c, 6, 78, 127
1, 98128, Note_on_c, 2, 74, 127
1, 98128, Note_on_c, 10, 69, 127
1, 98768, Note_off_c, 10, 69, 127
1, 98768, Note_off_c, 2, 74, 127
1, 98768, Note_off_c, 6, 78, 127
1, 98768, Note_off_c, 0, 36, 127
1, 99023, Note_on_c, 6, 78, 127
1, 99133, Note_off_c, 6, 78, 127
1, 99136, Note_on_c, 7, 79, 127
1, 99232, Note_on_c, 10, 81, 127
1, 99233, Note_off_c, 7, 79, 127
1, 99328, Note_on_c, 7, 79, 127
1, 99329, Note_off_c, 10, 81, 127
1, 99424, Note_on_c, 6, 78, 127
1, 99425, Note_off_c, 7, 79, 127
1, 99520, Note_on_c, 4, 76, 127
1, 99521, Note_off_c, 6, 78, 127
1, 99616, Note_on_c, 2, 74, 127
1, 99617, Note_off_c, 4, 76, 127
1, 99712, Note_on_c, 2, 86, 127
1, 99756, Note_off_c, 2, 74, 127
1, 99808, Note_on_c, 12, 47, 127
1, 99904, Note_on_c, 6, 78, 127
1, 99904, Note_on_c, 0, 48, 127
1, 99905, Note_off_c, 12, 47, 127
1, 99905, Note_off_c, 2, 86, 127
1, 100000, Note_on_c, 2, 50, 127
1, 100001, Note_off_c, 0, 48, 127
1, 100096, Note_on_c, 7, 79, 127
1, 100096, Note_on_c, 0, 48, 127
1, 100097, Note_off_c, 2, 50, 127
1, 100097, Note_off_c, 6, 78, 127
1, 100192, Note_on_c, 12, 47, 127
1, 100193, Note_off_c, 0, 48, 127
1, 100288, Note_on_c, 12, 71, 127
1, 100288, Note_on_c, 10, 45, 127
1, 100289, Note_off_c, 12, 47, 127
1, 100289, Note_off_c, 7, 79, 127
1, 100384, Note_on_c, 7, 43, 127
1, 100385, Note_off_c, 10, 45, 127
1, 100480, Note_on_c, 10, 69, 127
1, 100480, Note_on_c, 2, 50, 127
1, 100481, Note_off_c, 7, 43, 127
1, 100481, Note_off_c, 12, 71, 127
1, 100640, Note_off_c, 2, 50, 127
1, 100640, Note_off_c, 10, 69, 127
1, 100672, Note_on_c, 6, 78, 127
1, 100672, Note_on_c, 2, 38, 127
1, 100832, Note_off_c, 2, 38, 127
1, 100832, Note_off_c, 6, 78, 127
1, 100864, Note_on_c, 7, 67, 127
1, 100864, Note_on_c, 7, 43, 127
1, 100960, Note_on_c, 7, 79, 127
1, 100961, Note_off_c, 7, 67, 127
1, 101056, Note_on_c, 6, 78, 127
1, 101056, Note_on_c, 7, 55, 127
1, 101057, Note_off_c, 7, 79, 127
1, 101057, Note_off_c, 7, 43, 127
1, 101152, Note_on_c, 7, 79, 127
1, 101153, Note_off_c, 6, 78, 127
1, 101246, Note_off_c, 7, 55, 127
1, 101248, Note_on_c, 4, 76, 127
1, 101249, Note_off_c, 7, 79, 127
1, 101344, Note_on_c, 7, 79, 127
1, 101345, Note_off_c, 4, 76, 127
1, 101440, Note_on_c, 2, 74, 127
1, 101440, Note_on_c, 12, 59, 127
1, 101441, Note_off_c, 7, 79, 127
1, 101530, Note_off_c, 2, 74, 127
1, 101536, Note_on_c, 7, 79, 127
1, 101632, Note_on_c, 0, 72, 127
1, 101632, Note_on_c, 4, 52, 127
1, 101633, Note_off_c, 7, 79, 127
1, 101633, Note_off_c, 12, 59, 127
1, 101722, Note_off_c, 0, 72, 127
1, 101728, Note_on_c, 7, 79, 127
1, 101824, Note_on_c, 12, 71, 127
1, 101824, Note_on_c, 7, 55, 127
1, 101825, Note_off_c, 7, 79, 127
1, 101825, Note_off_c, 4, 52, 127
1, 101914, Note_off_c, 12, 71, 127
1, 101920, Note_on_c, 7, 79, 127
1, 102016, Note_on_c, 10, 69, 127
1, 102016, Note_on_c, 7, 43, 127
1, 102017, Note_off_c, 7, 79, 127
1, 102017, Note_off_c, 7, 55, 127
1, 102112, Note_on_c, 6, 78, 127
1, 102113, Note_off_c, 10, 69, 127
1, 102208, Note_on_c, 4, 76, 127
1, 102208, Note_on_c, 0, 60, 127
1, 102209, Note_off_c, 6, 78, 127
1, 102209, Note_off_c, 7, 43, 127
1, 102304, Note_on_c, 6, 78, 127
1, 102305, Note_off_c, 4, 76, 127
1, 102398, Note_off_c, 0, 60, 127
1, 102400, Note_on_c, 2, 74, 127
1, 102401, Note_off_c, 6, 78, 127
1, 102496, Note_on_c, 6, 78, 127
1, 102497, Note_off_c, 2, 74, 127
1, 102592, Note_on_c, 0, 72, 127
1, 102592, Note_on_c, 10, 57, 127
1, 102593, Note_off_c, 6, 78, 127
1, 102682, Note_off_c, 0, 72, 127
1, 102688, Note_on_c, 6, 78, 127
1, 102784, Note_on_c, 12, 71, 127
1, 102784, Note_on_c, 2, 50, 127
1, 102785, Note_off_c, 6, 78, 127
1, 102785, Note_off_c, 10, 57, 127
1, 102874, Note_off_c, 12, 71, 127
1, 102880, Note_on_c, 6, 78, 127
1, 102976, Note_on_c, 10, 69, 127
1, 102976, Note_on_c, 6, 54, 127
1, 102977, Note_off_c, 6, 78, 127
1, 102977, Note_off_c, 2, 50, 127
1, 103066, Note_off_c, 10, 69, 127
1, 103072, Note_on_c, 0, 72, 127
1, 103168, Note_on_c, 5, 77, 127
1, 103168, Note_on_c, 7, 43, 127
1, 103169, Note_off_c, 0, 72, 127
1, 103169, Note_off_c, 6, 54, 127
1, 103264, Note_on_c, 7, 67, 127
1, 103264, Note_on_c, 12, 59, 127
1, 103265, Note_off_c, 7, 43, 127
1, 103265, Note_off_c, 5, 77, 127
1, 103360, Note_on_c, 6, 66, 127
1, 103360, Note_on_c, 10, 57, 127
1, 103361, Note_off_c, 12, 59, 127
1, 103361, Note_off_c, 7, 67, 127
1, 103456, Note_on_c, 7, 67, 127
1, 103456, Note_on_c, 12, 59, 127
1, 103457, Note_off_c, 10, 57, 127
1, 103457, Note_off_c, 6, 66, 127
1, 103552, Note_on_c, 10, 69, 127
1, 103552, Note_on_c, 7, 55, 127
1, 103553, Note_off_c, 12, 59, 127
1, 103553, Note_off_c, 7, 67, 127
1, 103648, Note_on_c, 7, 67, 127
1, 103648, Note_on_c, 12, 59, 127
1, 103649, Note_off_c, 7, 55, 127
1, 103649, Note_off_c, 10, 69, 127
1, 103744, Note_on_c, 12, 71, 127
1, 103744, Note_on_c, 5, 53, 127
1, 103745, Note_off_c, 12, 59, 127
1, 103745, Note_off_c, 7, 67, 127
1, 103834, Note_off_c, 12, 71, 127
1, 103840, Note_on_c, 7, 67, 127
1, 103840, Note_on_c, 12, 59, 127
1, 103841, Note_off_c, 5, 53, 127
1, 103936, Note_on_c, 0, 72, 127
1, 103936, Note_on_c, 4, 52, 127
1, 103937, Note_off_c, 12, 59, 127
1, 103937, Note_off_c, 7, 67, 127
1, 104026, Note_off_c, 0, 72, 127
1, 104032, Note_on_c, 7, 67, 127
1, 104032, Note_on_c, 12, 59, 127
1, 104033, Note_off_c, 4, 52, 127
1, 104128, Note_on_c, 2, 74, 127
1, 104128, Note_on_c, 2, 50, 127
1, 104129, Note_off_c, 12, 59, 127
1, 104129, Note_off_c, 7, 67, 127
1, 104218, Note_off_c, 2, 74, 127
1, 104224, Note_on_c, 7, 67, 127
1, 104224, Note_on_c, 12, 59, 127
1, 104225, Note_off_c, 2, 50, 127
1, 104320, Note_on_c, 4, 76, 127
1, 104320, Note_on_c, 0, 48, 127
1, 104321, Note_off_c, 12, 59, 127
1, 104321, Note_off_c, 7, 67, 127
1, 104416, Note_on_c, 6, 66, 127
1, 104416, Note_on_c, 10, 57, 127
1, 104417, Note_off_c, 0, 48, 127
1, 104417, Note_off_c, 4, 76, 127
1, 104512, Note_on_c, 4, 64, 127
1, 104512, Note_on_c, 7, 55, 127
1, 104513, Note_off_c, 10, 57, 127
1, 104513, Note_off_c, 6, 66, 127
1, 104608, Note_on_c, 6, 66, 127
1, 104608, Note_on_c, 10, 57, 127
1, 104609, Note_off_c, 7, 55, 127
1, 104609, Note_off_c, 4, 64, 127
1, 104704, Note_on_c, 7, 67, 127
1, 104704, Note_on_c, 6, 54, 127
1, 104705, Note_off_c, 10, 57, 127
1, 104705, Note_off_c, 6, 66, 127
1, 104800, Note_on_c, 6, 66, 127
1, 104800, Note_on_c, 10, 57, 127
1, 104801, Note_off_c, 6, 54, 127
1, 104801, Note_off_c, 7, 67, 127
1, 104896, Note_on_c, 10, 69, 127
1, 104896, Note_on_c, 4, 52, 127
1, 104897, Note_off_c, 10, 57, 127
1, 104897, Note_off_c, 6, 66, 127
1, 104986, Note_off_c, 10, 69, 127
1, 104992, Note_on_c, 6, 66, 127
1, 104992, Note_on_c, 10, 57, 127
1, 104993, Note_off_c, 4, 52, 127
1, 105088, Note_on_c, 12, 71, 127
1, 105088, Note_on_c, 2, 50, 127
1, 105089, Note_off_c, 10, 57, 127
1, 105089, Note_off_c, 6, 66, 127
1, 105178, Note_off_c, 12, 71, 127
1, 105184, Note_on_c, 6, 66, 127
1, 105184, Note_on_c, 10, 57, 127
1, 105185, Note_off_c, 2, 50, 127
1, 105280, Note_on_c, 0, 72, 127
1, 105280, Note_on_c, 0, 48, 127
1, 105281, Note_off_c, 10, 57, 127
1, 105281, Note_off_c, 6, 66, 127
1, 105370, Note_off_c, 0, 72, 127
1, 105376, Note_on_c, 6, 66, 127
1, 105376, Note_on_c, 10, 57, 127
1, 105377, Note_off_c, 0, 48, 127
1, 105472, Note_on_c, 2, 74, 127
1, 105472, Note_on_c, 12, 47, 127
1, 105473, Note_off_c, 10, 57, 127
1, 105473, Note_off_c, 6, 66, 127
1, 105568, Note_on_c, 4, 64, 127
1, 105568, Note_on_c, 7, 55, 127
1, 105569, Note_off_c, 12, 47, 127
1, 105569, Note_off_c, 2, 74, 127
1, 105664, Note_on_c, 2, 62, 127
1, 105664, Note_on_c, 6, 54, 127
1, 105665, Note_off_c, 7, 55, 127
1, 105665, Note_off_c, 4, 64, 127
1, 105760, Note_on_c, 4, 64, 127
1, 105760, Note_on_c, 7, 55, 127
1, 105761, Note_off_c, 6, 54, 127
1, 105761, Note_off_c, 2, 62, 127
1, 105856, Note_on_c, 6, 66, 127
1, 105856, Note_on_c, 4, 52, 127
1, 105857, Note_off_c, 7, 55, 127
1, 105857, Note_off_c, 4, 64, 127
1, 105952, Note_on_c, 4, 64, 127
1, 105952, Note_on_c, 7, 55, 127
1, 105953, Note_off_c, 4, 52, 127
1, 105953, Note_off_c, 6, 66, 127
1, 106048, Note_on_c, 7, 67, 127
1, 106048, Note_on_c, 2, 50, 127
1, 106049, Note_off_c, 7, 55, 127
1, 106049, Note_off_c, 4, 64, 127
1, 106138, Note_off_c, 7, 67, 127
1, 106144, Note_on_c, 4, 64, 127
1, 106144, Note_on_c, 7, 55, 127
1, 106145, Note_off_c, 2, 50, 127
1, 106240, Note_on_c, 10, 69, 127
1, 106240, Note_on_c, 0, 48, 127
1, 106241, Note_off_c, 7, 55, 127
1, 106241, Note_off_c, 4, 64, 127
1, 106330, Note_off_c, 10, 69, 127
1, 106336, Note_on_c, 4, 64, 127
1, 106336, Note_on_c, 7, 55, 127
1, 106337, Note_off_c, 0, 48, 127
1, 106432, Note_on_c, 12, 71, 127
1, 106432, Note_on_c, 12, 47, 127
1, 106433, Note_off_c, 7, 55, 127
1, 106433, Note_off_c, 4, 64, 127
1, 106522, Note_off_c, 12, 71, 127
1, 106528, Note_on_c, 4, 64, 127
1, 106528, Note_on_c, 7, 55, 127
1, 106529, Note_off_c, 12, 47, 127
1, 106624, Note_on_c, 0, 72, 127
1, 106624, Note_on_c, 10, 45, 127
1, 106625, Note_off_c, 7, 55, 127
1, 106625, Note_off_c, 4, 64, 127
1, 106720, Note_on_c, 0, 48, 127
1, 106721, Note_off_c, 10, 45, 127
1, 106816, Note_on_c, 4, 52, 127
1, 106817, Note_off_c, 0, 48, 127
1, 106912, Note_on_c, 7, 55, 127
1, 106913, Note_off_c, 4, 52, 127
1, 107008, Note_on_c, 6, 54, 127
1, 107009, Note_off_c, 7, 55, 127
1, 107104, Note_on_c, 2, 62, 127
1, 107105, Note_off_c, 0, 72, 127
1, 107200, Note_on_c, 10, 69, 127
1, 107200, Note_on_c, 2, 50, 127
1, 107201, Note_off_c, 2, 62, 127
1, 107201, Note_off_c, 6, 54, 127
1, 107296, Note_on_c, 0, 72, 127
1, 107297, Note_off_c, 10, 69, 127
1, 107392, Note_on_c, 12, 71, 127
1, 107392, Note_on_c, 7, 55, 127
1, 107393, Note_off_c, 0, 72, 127
1, 107393, Note_off_c, 2, 50, 127
1, 107488, Note_on_c, 10, 69, 127
1, 107489, Note_off_c, 12, 71, 127
1, 107584, Note_on_c, 7, 67, 127
1, 107584, Note_on_c, 12, 47, 127
1, 107585, Note_off_c, 10, 69, 127
1, 107585, Note_off_c, 7, 55, 127
1, 107680, Note_on_c, 6, 66, 127
1, 107681, Note_off_c, 7, 67, 127
1, 107776, Note_on_c, 4, 64, 127
1, 107776, Note_on_c, 0, 48, 127
1, 107777, Note_off_c, 6, 66, 127
1, 107777, Note_off_c, 12, 47, 127
1, 107872, Note_on_c, 2, 62, 127
1, 107873, Note_off_c, 4, 64, 127
1, 107968, Note_on_c, 0, 60, 127
1, 107968, Note_on_c, 10, 45, 127
1, 107969, Note_off_c, 2, 62, 127
1, 107969, Note_off_c, 0, 48, 127
1, 108064, Note_on_c, 12, 59, 127
1, 108065, Note_off_c, 0, 60, 127
1, 108160, Note_on_c, 2, 50, 127
1, 108160, Note_on_c, 10, 57, 127
1, 108161, Note_off_c, 12, 59, 127
1, 108161, Note_off_c, 10, 45, 127
1, 108256, Note_on_c, 7, 55, 127
1, 108257, Note_off_c, 10, 57, 127
1, 108352, Note_on_c, 6, 54, 127
1, 108353, Note_off_c, 7, 55, 127
1, 108440, Note_off_c, 2, 50, 127
1, 108448, Note_on_c, 4, 52, 127
1, 108449, Note_off_c, 6, 54, 127
1, 108544, Note_on_c, 2, 50, 127
1, 108544, Note_on_c, 2, 38, 127
1, 108545, Note_off_c, 4, 52, 127
1, 108640, Note_on_c, 0, 48, 127
1, 108641, Note_off_c, 2, 50, 127
1, 108737, Note_off_c, 0, 48, 127
1, 108747, Note_on_c, 12, 47, 127
1, 108824, Note_off_c, 2, 38, 127
1, 108859, Note_off_c, 12, 47, 127
1, 108862, Note_on_c, 10, 45, 127
1, 108991, Note_off_c, 10, 45, 127
1, 109024, Note_on_c, 7, 43, 127
1, 109024, Note_on_c, 7, 31, 127
1, 110824, Note_off_c, 7, 31, 127
1, 110824, Note_off_c, 7, 43, 127
1, 111477, Note_on_c, 7, 79, 127
1, 111793, Note_off_c, 7, 79, 127
1, 111808, Note_on_c, 12, 71, 127
1, 111808, Note_on_c, 2, 74, 127
1, 111808, Note_on_c, 7, 79, 127
1, 111808, Note_on_c, 7, 55, 127
1, 112192, Note_on_c, 7, 43, 127
1, 112318, Note_off_c, 2, 74, 127
1, 112318, Note_off_c, 12, 71, 127
1, 112384, Note_off_c, 7, 79, 127
1, 112384, Note_on_c, 6, 78, 127
1, 112480, Note_off_c, 6, 78, 127
1, 112480, Note_on_c, 4, 76, 127
1, 112574, Note_off_c, 7, 43, 127
1, 112576, Note_off_c, 4, 76, 127
1, 112576, Note_on_c, 2, 74, 127
1, 112576, Note_on_c, 12, 47, 127
1, 112702, Note_off_c, 2, 74, 127
1, 112704, Note_on_c, 0, 72, 127
1, 112830, Note_off_c, 0, 72, 127
1, 112832, Note_on_c, 12, 71, 127
1, 112958, Note_off_c, 12, 71, 127
1, 112958, Note_off_c, 12, 47, 127
1, 112958, Note_off_c, 7, 55, 127
1, 112960, Note_on_c, 0, 72, 127
1, 112960, Note_on_c, 6, 54, 127
1, 112960, Note_on_c, 2, 50, 127
1, 113086, Note_off_c, 0, 72, 127
1, 113088, Note_on_c, 12, 71, 127
1, 113214, Note_off_c, 12, 71, 127
1, 113216, Note_on_c, 10, 69, 127
1, 113342, Note_off_c, 10, 69, 127
1, 113342, Note_off_c, 2, 50, 127
1, 113342, Note_off_c, 6, 54, 127
1, 113344, Note_on_c, 12, 71, 127
1, 113344, Note_on_c, 7, 55, 127
1, 113470, Note_off_c, 12, 71, 127
1, 113472, Note_on_c, 7, 67, 127
1, 113598, Note_off_c, 7, 67, 127
1, 113600, Note_on_c, 10, 69, 127
1, 113726, Note_off_c, 10, 69, 127
1, 113728, Note_on_c, 12, 71, 127
1, 113872, Note_off_c, 12, 71, 127
1, 113874, Note_on_c, 10, 69, 127
1, 113884, Note_off_c, 7, 55, 127
1, 113896, Note_on_c, 6, 54, 127
1, 113986, Note_off_c, 10, 69, 127
1, 114002, Note_on_c, 7, 67, 127
1, 114004, Note_on_c, 4, 52, 127
1, 114008, Note_off_c, 6, 54, 127
1, 114104, Note_off_c, 4, 52, 127
1, 114112, Note_on_c, 2, 74, 127
1, 114112, Note_on_c, 2, 50, 127
1, 114128, Note_off_c, 7, 67, 127
1, 114238, Note_off_c, 2, 50, 127
1, 114240, Note_on_c, 0, 48, 127
1, 114366, Note_off_c, 0, 48, 127
1, 114368, Note_on_c, 12, 47, 127
1, 114494, Note_off_c, 12, 47, 127
1, 114496, Note_on_c, 0, 48, 127
1, 114622, Note_off_c, 0, 48, 127
1, 114624, Note_on_c, 12, 47, 127
1, 114730, Note_on_c, 2, 74, 127
1, 114750, Note_off_c, 12, 47, 127
1, 114750, Note_off_c, 2, 74, 127
1, 114752, Note_on_c, 10, 45, 127
1, 114774, Note_off_c, 2, 74, 127
1, 114792, Note_on_c, 0, 72, 127
1, 114836, Note_on_c, 2, 74, 127
1, 114867, Note_off_c, 0, 72, 127
1, 114878, Note_off_c, 10, 45, 127
1, 114880, Note_on_c, 7, 79, 127
1, 114880, Note_on_c, 12, 47, 127
1, 114891, Note_off_c, 2, 74, 127
1, 115006, Note_off_c, 7, 79, 127
1, 115008, Note_on_c, 10, 81, 127
1, 115134, Note_off_c, 10, 81, 127
1, 115136, Note_on_c, 12, 83, 127
1, 115262, Note_off_c, 12, 83, 127
1, 115262, Note_off_c, 12, 47, 127
1, 115264, Note_on_c, 2, 74, 127
1, 115264, Note_on_c, 7, 43, 127
1, 115390, Note_off_c, 2, 74, 127
1, 115392, Note_on_c, 4, 76, 127
1, 115518, Note_off_c, 4, 76, 127
1, 115520, Note_on_c, 5, 77, 127
1, 115646, Note_off_c, 5, 77, 127
1, 115646, Note_off_c, 7, 43, 127
1, 115648, Note_on_c, 4, 76, 127
1, 115648, Note_on_c, 0, 48, 127
1, 115774, Note_off_c, 4, 76, 127
1, 115776, Note_on_c, 10, 81, 127
1, 115902, Note_off_c, 10, 81, 127
1, 115904, Note_on_c, 12, 83, 127
1, 116030, Note_off_c, 12, 83, 127
1, 116030, Note_off_c, 0, 48, 127
1, 116032, Note_on_c, 0, 84, 127
1, 116032, Note_on_c, 10, 45, 127
1, 116158, Note_off_c, 0, 84, 127
1, 116160, Note_on_c, 12, 83, 127
1, 116286, Note_off_c, 12, 83, 127
1, 116288, Note_on_c, 10, 81, 127
1, 116414, Note_off_c, 10, 81, 127
1, 116414, Note_off_c, 10, 45, 127
1, 116416, Note_on_c, 7, 79, 127
1, 116416, Note_on_c, 2, 50, 127
1, 116542, Note_off_c, 2, 50, 127
1, 116544, Note_on_c, 10, 57, 127
1, 116670, Note_off_c, 10, 57, 127
1, 116672, Note_on_c, 12, 59, 127
1, 116798, Note_off_c, 12, 59, 127
1, 116800, Note_on_c, 0, 60, 127
1, 116862, Note_off_c, 7, 79, 127
1, 116864, Note_on_c, 6, 78, 127
1, 116926, Note_off_c, 0, 60, 127
1, 116928, Note_on_c, 7, 79, 127
1, 116928, Note_on_c, 12, 59, 127
1, 116936, Note_off_c, 6, 78, 127
1, 116992, Note_on_c, 6, 78, 127
1, 117000, Note_off_c, 7, 79, 127
1, 117054, Note_off_c, 12, 59, 127
1, 117056, Note_on_c, 7, 79, 127
1, 117056, Note_on_c, 10, 57, 127
1, 117064, Note_off_c, 6, 78, 127
1, 117182, Note_off_c, 10, 57, 127
1, 117182, Note_off_c, 7, 79, 127
1, 117184, Note_on_c, 7, 79, 127
1, 117184, Note_on_c, 7, 55, 127
1, 117310, Note_off_c, 7, 55, 127
1, 117312, Note_on_c, 6, 54, 127
1, 117438, Note_off_c, 6, 54, 127
1, 117440, Note_on_c, 7, 55, 127
1, 117566, Note_off_c, 7, 55, 127
1, 117566, Note_off_c, 7, 79, 127
1, 117568, Note_on_c, 10, 81, 127
1, 117568, Note_on_c, 10, 57, 127
1, 117694, Note_off_c, 10, 57, 127
1, 117696, Note_on_c, 7, 55, 127
1, 117822, Note_off_c, 7, 55, 127
1, 117824, Note_on_c, 6, 54, 127
1, 117948, Note_off_c, 10, 81, 127
1, 117950, Note_off_c, 6, 54, 127
1, 117952, Note_on_c, 4, 64, 127
1, 118080, Note_on_c, 0, 72, 127
1, 118206, Note_off_c, 0, 72, 127
1, 118208, Note_on_c, 12, 71, 127
1, 118334, Note_off_c, 12, 71, 127
1, 118334, Note_off_c, 4, 64, 127
1, 118336, Note_on_c, 0, 72, 127
1, 118336, Note_on_c, 3, 63, 127
1, 118462, Note_off_c, 0, 72, 127
1, 118464, Note_on_c, 12, 71, 127
1, 118590, Note_off_c, 12, 71, 127
1, 118592, Note_on_c, 10, 69, 127
1, 118718, Note_off_c, 10, 69, 127
1, 118720, Note_on_c, 12, 71, 127
1, 118846, Note_off_c, 3, 63, 127
1, 118848, Note_on_c, 3, 63, 127
1, 118974, Note_off_c, 3, 63, 127
1, 118976, Note_on_c, 1, 61, 127
1, 119102, Note_off_c, 1, 61, 127
1, 119102, Note_off_c, 12, 71, 127
1, 119104, Note_on_c, 10, 81, 127
1, 119104, Note_on_c, 3, 63, 127
1, 119230, Note_off_c, 3, 63, 127
1, 119232, Note_on_c, 1, 61, 127
1, 119358, Note_off_c, 1, 61, 127
1, 119360, Note_on_c, 12, 59, 127
1, 119486, Note_off_c, 12, 59, 127
1, 119488, Note_on_c, 4, 64, 127
1, 119564, Note_off_c, 10, 81, 127
1, 119616, Note_on_c, 7, 79, 127
1, 119742, Note_off_c, 7, 79, 127
1, 119744, Note_on_c, 10, 81, 127
1, 119870, Note_off_c, 10, 81, 127
1, 119870, Note_off_c, 4, 64, 127
1, 119872, Note_on_c, 12, 83, 127
1, 119872, Note_on_c, 4, 52, 127
1, 119998, Note_off_c, 12, 83, 127
1, 120000, Note_on_c, 10, 81, 127
1, 120126, Note_off_c, 10, 81, 127
1, 120128, Note_on_c, 7, 79, 127
1, 120254, Note_off_c, 7, 79, 127
1, 120254, Note_off_c, 4, 52, 127
1, 120256, Note_on_c, 6, 78, 127
1, 120256, Note_on_c, 7, 55, 127
1, 120382, Note_off_c, 6, 78, 127
1, 120384, Note_on_c, 4, 76, 127
1, 120510, Note_off_c, 4, 76, 127
1, 120512, Note_on_c, 6, 78, 127
1, 120638, Note_off_c, 6, 78, 127
1, 120638, Note_off_c, 7, 55, 127
1, 120640, Note_on_c, 7, 79, 127
1, 120640, Note_on_c, 4, 52, 127
1, 120766, Note_off_c, 7, 79, 127
1, 120768, Note_on_c, 6, 78, 127
1, 120894, Note_off_c, 6, 78, 127
1, 120896, Note_on_c, 4, 76, 127
1, 121022, Note_off_c, 4, 76, 127
1, 121022, Note_off_c, 4, 52, 127
1, 121024, Note_on_c, 2, 74, 127
1, 121024, Note_on_c, 10, 57, 127
1, 121150, Note_off_c, 2, 74, 127
1, 121152, Note_on_c, 1, 73, 127
1, 121278, Note_off_c, 1, 73, 127
1, 121280, Note_on_c, 2, 74, 127
1, 121406, Note_off_c, 2, 74, 127
1, 121406, Note_off_c, 10, 57, 127
1, 121408, Note_on_c, 4, 76, 127
1, 121408, Note_on_c, 10, 45, 127
1, 121534, Note_off_c, 4, 76, 127
1, 121536, Note_on_c, 2, 74, 127
1, 121662, Note_off_c, 2, 74, 127
1, 121664, Note_on_c, 1, 73, 127
1, 121790, Note_off_c, 1, 73, 127
1, 121792, Note_on_c, 12, 71, 127
1, 121908, Note_off_c, 10, 45, 127
1, 121918, Note_off_c, 12, 71, 127
1, 121920, Note_on_c, 10, 69, 127
1, 121920, Note_on_c, 1, 49, 127
1, 122046, Note_off_c, 1, 49, 127
1, 122046, Note_off_c, 10, 69, 127
1, 122048, Note_on_c, 12, 47, 127
1, 122174, Note_off_c, 12, 47, 127
1, 122176, Note_on_c, 7, 79, 127
1, 122176, Note_on_c, 1, 49, 127
1, 122302, Note_off_c, 1, 49, 127
1, 122304, Note_on_c, 12, 47, 127
1, 122430, Note_off_c, 12, 47, 127
1, 122432, Note_on_c, 10, 45, 127
1, 122558, Note_off_c, 10, 45, 127
1, 122560, Note_on_c, 2, 50, 127
1, 122676, Note_off_c, 7, 79, 127
1, 122688, Note_on_c, 6, 78, 127
1, 122814, Note_off_c, 6, 78, 127
1, 122816, Note_on_c, 7, 79, 127
1, 122942, Note_off_c, 7, 79, 127
1, 122942, Note_off_c, 2, 50, 127
1, 122944, Note_on_c, 10, 81, 127
1, 122944, Note_on_c, 2, 38, 127
1, 123070, Note_off_c, 10, 81, 127
1, 123072, Note_on_c, 7, 79, 127
1, 123198, Note_off_c, 7, 79, 127
1, 123200, Note_on_c, 6, 78, 127
1, 123326, Note_off_c, 6, 78, 127
1, 123326, Note_off_c, 2, 38, 127
1, 123328, Note_on_c, 4, 76, 127
1, 123328, Note_on_c, 6, 42, 127
1, 123454, Note_off_c, 4, 76, 127
1, 123456, Note_on_c, 2, 74, 127
1, 123582, Note_off_c, 2, 74, 127
1, 123584, Note_on_c, 4, 76, 127
1, 123710, Note_off_c, 4, 76, 127
1, 123710, Note_off_c, 6, 42, 127
1, 123712, Note_on_c, 6, 78, 127
1, 123712, Note_on_c, 2, 38, 127
1, 123838, Note_off_c, 6, 78, 127
1, 123840, Note_on_c, 4, 76, 127
1, 123966, Note_off_c, 4, 76, 127
1, 123968, Note_on_c, 2, 74, 127
1, 124094, Note_off_c, 2, 74, 127
1, 124094, Note_off_c, 2, 38, 127
1, 124096, Note_on_c, 0, 72, 127
1, 124096, Note_on_c, 7, 43, 127
1, 124222, Note_off_c, 0, 72, 127
1, 124224, Note_on_c, 12, 71, 127
1, 124350, Note_off_c, 12, 71, 127
1, 124352, Note_on_c, 0, 72, 127
1, 124478, Note_off_c, 0, 72, 127
1, 124478, Note_off_c, 7, 43, 127
1, 124480, Note_on_c, 2, 74, 127
1, 124480, Note_on_c, 7, 55, 127
1, 124606, Note_off_c, 2, 74, 127
1, 124608, Note_on_c, 0, 72, 127
1, 124734, Note_off_c, 0, 72, 127
1, 124736, Note_on_c, 12, 71, 127
1, 124862, Note_off_c, 12, 71, 127
1, 124864, Note_on_c, 10, 69, 127
1, 124980, Note_off_c, 7, 55, 127
1, 124990, Note_off_c, 10, 69, 127
1, 124992, Note_on_c, 7, 67, 127
1, 124992, Note_on_c, 7, 55, 127
1, 125118, Note_off_c, 7, 55, 127
1, 125118, Note_off_c, 7, 67, 127
1, 125120, Note_on_c, 10, 57, 127
1, 125246, Note_off_c, 10, 57, 127
1, 125248, Note_on_c, 5, 77, 127
1, 125248, Note_on_c, 12, 59, 127
1, 125374, Note_off_c, 12, 59, 127
1, 125376, Note_on_c, 12, 59, 127
1, 125502, Note_off_c, 12, 59, 127
1, 125504, Note_on_c, 1, 61, 127
1, 125630, Note_off_c, 1, 61, 127
1, 125632, Note_on_c, 2, 62, 127
1, 125758, Note_off_c, 5, 77, 127
1, 125760, Note_on_c, 4, 76, 127
1, 125886, Note_off_c, 4, 76, 127
1, 125888, Note_on_c, 2, 74, 127
1, 126014, Note_off_c, 2, 74, 127
1, 126014, Note_off_c, 2, 62, 127
1, 126016, Note_on_c, 4, 76, 127
1, 126016, Note_on_c, 8, 56, 127
1, 126142, Note_off_c, 4, 76, 127
1, 126144, Note_on_c, 2, 74, 127
1, 126270, Note_off_c, 2, 74, 127
1, 126272, Note_on_c, 1, 73, 127
1, 126398, Note_off_c, 1, 73, 127
1, 126398, Note_off_c, 8, 56, 127
1, 126400, Note_on_c, 2, 74, 127
1, 126400, Note_on_c, 12, 59, 127
1, 126526, Note_off_c, 2, 74, 127
1, 126528, Note_on_c, 1, 73, 127
1, 126654, Note_off_c, 1, 73, 127
1, 126656, Note_on_c, 12, 71, 127
1, 126782, Note_off_c, 12, 71, 127
1, 126782, Note_off_c, 12, 59, 127
1, 126784, Note_on_c, 8, 80, 127
1, 126784, Note_on_c, 4, 52, 127
1, 127038, Note_off_c, 8, 80, 127
1, 127040, Note_on_c, 10, 81, 127
1, 127166, Note_off_c, 10, 81, 127
1, 127166, Note_off_c, 4, 52, 127
1, 127168, Note_on_c, 2, 74, 127
1, 127168, Note_on_c, 4, 52, 127
1, 127168, Note_on_c, 10, 57, 127
1, 127168, Note_on_c, 10, 45, 127
1, 127548, Note_off_c, 2, 74, 127
1, 127552, Note_on_c, 1, 73, 127
1, 127616, Note_on_c, 2, 74, 127
1, 127628, Note_off_c, 1, 73, 127
1, 127678, Note_off_c, 10, 45, 127
1, 127678, Note_off_c, 10, 57, 127
1, 127678, Note_off_c, 4, 52, 127
1, 127680, Note_on_c, 1, 73, 127
1, 127680, Note_on_c, 7, 55, 127
1, 127692, Note_off_c, 2, 74, 127
1, 127744, Note_on_c, 2, 74, 127
1, 127756, Note_off_c, 1, 73, 127
1, 127806, Note_off_c, 7, 55, 127
1, 127808, Note_on_c, 1, 73, 127
1, 127808, Note_on_c, 6, 54, 127
1, 127820, Note_off_c, 2, 74, 127
1, 127872, Note_on_c, 2, 74, 127
1, 127884, Note_off_c, 1, 73, 127
1, 127934, Note_off_c, 6, 54, 127
1, 127936, Note_on_c, 1, 73, 127
1, 127936, Note_on_c, 4, 52, 127
1, 127948, Note_off_c, 2, 74, 127
1, 128062, Note_off_c, 4, 52, 127
1, 128062, Note_off_c, 1, 73, 127
1, 128064, Note_on_c, 2, 74, 127
1, 128064, Note_on_c, 2, 50, 127
1, 128190, Note_off_c, 2, 50, 127
1, 128190, Note_off_c, 2, 74, 127
1, 128192, Note_on_c, 4, 76, 127
1, 128192, Note_on_c, 1, 49, 127
1, 128318, Note_off_c, 1, 49, 127
1, 128318, Note_off_c, 4, 76, 127
1, 128320, Note_on_c, 7, 67, 127
1, 128320, Note_on_c, 2, 50, 127
1, 128446, Note_off_c, 2, 50, 127
1, 128448, Note_on_c, 1, 49, 127
1, 128574, Note_off_c, 1, 49, 127
1, 128574, Note_off_c, 7, 67, 127
1, 128576, Note_on_c, 7, 67, 127
1, 128576, Note_on_c, 12, 47, 127
1, 128702, Note_off_c, 12, 47, 127
1, 128704, Note_on_c, 4, 76, 127
1, 128704, Note_on_c, 1, 49, 127
1, 128830, Note_off_c, 1, 49, 127
1, 128832, Note_on_c, 10, 45, 127
1, 128948, Note_off_c, 7, 67, 127
1, 128958, Note_off_c, 10, 45, 127
1, 128960, Note_on_c, 6, 66, 127
1, 128960, Note_on_c, 12, 47, 127
1, 129086, Note_off_c, 12, 47, 127
1, 129086, Note_off_c, 6, 66, 127
1, 129088, Note_on_c, 4, 64, 127
1, 129088, Note_on_c, 1, 49, 127
1, 129214, Note_off_c, 1, 49, 127
1, 129216, Note_on_c, 12, 47, 127
1, 129342, Note_off_c, 12, 47, 127
1, 129342, Note_off_c, 4, 64, 127
1, 129344, Note_on_c, 10, 69, 127
1, 129344, Note_on_c, 10, 45, 127
1, 129470, Note_off_c, 10, 45, 127
1, 129470, Note_off_c, 10, 69, 127
1, 129472, Note_on_c, 6, 66, 127
1, 129472, Note_on_c, 2, 50, 127
1, 129598, Note_off_c, 2, 50, 127
1, 129600, Note_on_c, 6, 54, 127
1, 129726, Note_off_c, 6, 54, 127
1, 129726, Note_off_c, 4, 76, 127
1, 129728, Note_on_c, 10, 69, 127
1, 129728, Note_on_c, 4, 52, 127
1, 129854, Note_off_c, 4, 52, 127
1, 129854, Note_off_c, 10, 69, 127
1, 129856, Note_on_c, 2, 74, 127
1, 129856, Note_on_c, 2, 50, 127
1, 129982, Note_off_c, 2, 50, 127
1, 129984, Note_on_c, 4, 52, 127
1, 130110, Note_off_c, 4, 52, 127
1, 130110, Note_off_c, 2, 74, 127
1, 130112, Note_on_c, 0, 72, 127
1, 130112, Note_on_c, 6, 54, 127
1, 130238, Note_off_c, 6, 54, 127
1, 130238, Note_off_c, 0, 72, 127
1, 130240, Note_on_c, 12, 71, 127
1, 130240, Note_on_c, 7, 55, 127
1, 130366, Note_off_c, 7, 55, 127
1, 130368, Note_on_c, 10, 57, 127
1, 130494, Note_off_c, 10, 57, 127
1, 130494, Note_off_c, 6, 66, 127
1, 130496, Note_on_c, 4, 64, 127
1, 130496, Note_on_c, 12, 59, 127
1, 130622, Note_off_c, 12, 59, 127
1, 130622, Note_off_c, 4, 64, 127
1, 130624, Note_on_c, 6, 66, 127
1, 130624, Note_on_c, 3, 51, 127
1, 130750, Note_off_c, 3, 51, 127
1, 130752, Note_on_c, 4, 52, 127
1, 130878, Note_off_c, 4, 52, 127
1, 130878, Note_off_c, 6, 66, 127
1, 130880, Note_on_c, 10, 69, 127
1, 130880, Note_on_c, 6, 54, 127
1, 131006, Note_off_c, 6, 54, 127
1, 131006, Note_off_c, 10, 69, 127
1, 131008, Note_on_c, 7, 67, 127
1, 131008, Note_on_c, 4, 52, 127
1, 131134, Note_off_c, 4, 52, 127
1, 131136, Note_on_c, 12, 59, 127
1, 131262, Note_off_c, 12, 59, 127
1, 131262, Note_off_c, 12, 71, 127
1, 131264, Note_on_c, 7, 79, 127
1, 131264, Note_on_c, 1, 61, 127
1, 131390, Note_off_c, 1, 61, 127
1, 131390, Note_off_c, 7, 79, 127
1, 131392, Note_on_c, 6, 78, 127
1, 131392, Note_on_c, 2, 62, 127
1, 131518, Note_off_c, 2, 62, 127
1, 131520, Note_on_c, 1, 61, 127
1, 131646, Note_off_c, 1, 61, 127
1, 131646, Note_off_c, 6, 78, 127
1, 131648, Note_on_c, 7, 79, 127
1, 131648, Note_on_c, 12, 59, 127
1, 131774, Note_off_c, 12, 59, 127
1, 131774, Note_off_c, 7, 79, 127
1, 131776, Note_on_c, 10, 69, 127
1, 131776, Note_on_c, 1, 61, 127
1, 131902, Note_off_c, 1, 61, 127
1, 131904, Note_on_c, 10, 57, 127
1, 132030, Note_off_c, 10, 57, 127
1, 132030, Note_off_c, 7, 67, 127
1, 132032, Note_on_c, 7, 67, 127
1, 132032, Note_on_c, 12, 59, 127
1, 132158, Note_off_c, 12, 59, 127
1, 132158, Note_off_c, 7, 67, 127
1, 132160, Note_on_c, 6, 66, 127
1, 132160, Note_on_c, 1, 61, 127
1, 132286, Note_off_c, 1, 61, 127
1, 132288, Note_on_c, 12, 59, 127
1, 132414, Note_off_c, 12, 59, 127
1, 132414, Note_off_c, 6, 66, 127
1, 132416, Note_on_c, 7, 67, 127
1, 132416, Note_on_c, 10, 57, 127
1, 132542, Note_off_c, 10, 57, 127
1, 132542, Note_off_c, 7, 67, 127
1, 132544, Note_on_c, 6, 66, 127
1, 132544, Note_on_c, 2, 62, 127
1, 132670, Note_off_c, 2, 62, 127
1, 132672, Note_on_c, 1, 61, 127
1, 132798, Note_off_c, 1, 61, 127
1, 132798, Note_off_c, 10, 69, 127
1, 132800, Note_on_c, 2, 74, 127
1, 132800, Note_on_c, 12, 59, 127
1, 132926, Note_off_c, 12, 59, 127
1, 132926, Note_off_c, 2, 74, 127
1, 132928, Note_on_c, 4, 76, 127
1, 132928, Note_on_c, 10, 57, 127
1, 133054, Note_off_c, 10, 57, 127
1, 133056, Note_on_c, 12, 59, 127
1, 133182, Note_off_c, 12, 59, 127
1, 133182, Note_off_c, 4, 76, 127
1, 133184, Note_on_c, 6, 78, 127
1, 133184, Note_on_c, 0, 60, 127
1, 133310, Note_off_c, 0, 60, 127
1, 133310, Note_off_c, 6, 78, 127
1, 133312, Note_on_c, 7, 67, 127
1, 133312, Note_on_c, 12, 59, 127
1, 133424, Note_off_c, 6, 66, 127
1, 133440, Note_on_c, 6, 66, 127
1, 133566, Note_off_c, 6, 66, 127
1, 133568, Note_on_c, 4, 64, 127
1, 133694, Note_off_c, 4, 64, 127
1, 133696, Note_on_c, 6, 66, 127
1, 133822, Note_off_c, 6, 66, 127
1, 133824, Note_on_c, 4, 64, 127
1, 133950, Note_off_c, 4, 64, 127
1, 133952, Note_on_c, 3, 63, 127
1, 134078, Note_off_c, 3, 63, 127
1, 134080, Note_on_c, 4, 64, 127
1, 134192, Note_off_c, 12, 59, 127
1, 134208, Note_on_c, 10, 57, 127
1, 134334, Note_off_c, 10, 57, 127
1, 134334, Note_off_c, 7, 67, 127
1, 134336, Note_on_c, 12, 71, 127
1, 134336, Note_on_c, 7, 55, 127
1, 134462, Note_off_c, 7, 55, 127
1, 134462, Note_off_c, 12, 71, 127
1, 134464, Note_on_c, 10, 69, 127
1, 134464, Note_on_c, 6, 54, 127
1, 134590, Note_off_c, 6, 54, 127
1, 134592, Note_on_c, 7, 55, 127
1, 134718, Note_off_c, 7, 55, 127
1, 134718, Note_off_c, 10, 69, 127
1, 134720, Note_on_c, 0, 72, 127
1, 134720, Note_on_c, 10, 57, 127
1, 134846, Note_off_c, 10, 57, 127
1, 134846, Note_off_c, 0, 72, 127
1, 134848, Note_on_c, 12, 71, 127
1, 134848, Note_on_c, 7, 55, 127
1, 134960, Note_off_c, 4, 64, 127
1, 134976, Note_on_c, 3, 63, 127
1, 135102, Note_off_c, 3, 63, 127
1, 135104, Note_on_c, 4, 64, 127
1, 135230, Note_off_c, 4, 64, 127
1, 135232, Note_on_c, 6, 66, 127
1, 135358, Note_off_c, 6, 66, 127
1, 135360, Note_on_c, 4, 64, 127
1, 135486, Note_off_c, 4, 64, 127
1, 135488, Note_on_c, 3, 63, 127
1, 135614, Note_off_c, 3, 63, 127
1, 135616, Note_on_c, 4, 64, 127
1, 135728, Note_off_c, 7, 55, 127
1, 135742, Note_off_c, 4, 64, 127
1, 135744, Note_on_c, 6, 66, 127
1, 135744, Note_on_c, 6, 54, 127
1, 135870, Note_off_c, 6, 54, 127
1, 135870, Note_off_c, 6, 66, 127
1, 135872, Note_on_c, 7, 67, 127
1, 135872, Note_on_c, 4, 52, 127
1, 135998, Note_off_c, 4, 52, 127
1, 135998, Note_off_c, 7, 67, 127
1, 136000, Note_on_c, 10, 69, 127
1, 136000, Note_on_c, 3, 51, 127
1, 136126, Note_off_c, 3, 51, 127
1, 136126, Note_off_c, 10, 69, 127
1, 136128, Note_on_c, 7, 67, 127
1, 136128, Note_on_c, 4, 52, 127
1, 136254, Note_off_c, 4, 52, 127
1, 136254, Note_off_c, 7, 67, 127
1, 136256, Note_on_c, 6, 66, 127
1, 136256, Note_on_c, 6, 54, 127
1, 136382, Note_off_c, 6, 54, 127
1, 136382, Note_off_c, 6, 66, 127
1, 136384, Note_on_c, 7, 67, 127
1, 136384, Note_on_c, 4, 52, 127
1, 136508, Note_off_c, 12, 71, 127
1, 136512, Note_on_c, 1, 73, 127
1, 136638, Note_off_c, 1, 73, 127
1, 136640, Note_on_c, 2, 74, 127
1, 136766, Note_off_c, 2, 74, 127
1, 136768, Note_on_c, 4, 76, 127
1, 136894, Note_off_c, 4, 76, 127
1, 136896, Note_on_c, 2, 74, 127
1, 137022, Note_off_c, 2, 74, 127
1, 137024, Note_on_c, 1, 73, 127
1, 137150, Note_off_c, 1, 73, 127
1, 137152, Note_on_c, 2, 74, 127
1, 137264, Note_off_c, 4, 52, 127
1, 137278, Note_off_c, 2, 74, 127
1, 137280, Note_on_c, 4, 76, 127
1, 137280, Note_on_c, 2, 50, 127
1, 137406, Note_off_c, 2, 50, 127
1, 137406, Note_off_c, 4, 76, 127
1, 137408, Note_on_c, 6, 78, 127
1, 137408, Note_on_c, 1, 49, 127
1, 137534, Note_off_c, 1, 49, 127
1, 137534, Note_off_c, 6, 78, 127
1, 137536, Note_on_c, 7, 79, 127
1, 137536, Note_on_c, 12, 47, 127
1, 137662, Note_off_c, 12, 47, 127
1, 137662, Note_off_c, 7, 79, 127
1, 137664, Note_on_c, 6, 78, 127
1, 137664, Note_on_c, 1, 49, 127
1, 137790, Note_off_c, 1, 49, 127
1, 137790, Note_off_c, 6, 78, 127
1, 137792, Note_on_c, 4, 76, 127
1, 137792, Note_on_c, 2, 50, 127
1, 137918, Note_off_c, 2, 50, 127
1, 137918, Note_off_c, 4, 76, 127
1, 137920, Note_on_c, 10, 81, 127
1, 137920, Note_on_c, 1, 49, 127
1, 138044, Note_off_c, 7, 67, 127
1, 138048, Note_on_c, 10, 69, 127
1, 138174, Note_off_c, 10, 69, 127
1, 138176, Note_on_c, 12, 71, 127
1, 138300, Note_off_c, 10, 81, 127
1, 138302, Note_off_c, 12, 71, 127
1, 138302, Note_off_c, 1, 49, 127
1, 138304, Note_on_c, 1, 73, 127
1, 138304, Note_on_c, 10, 45, 127
1, 138430, Note_off_c, 1, 73, 127
1, 138432, Note_on_c, 1, 73, 127
1, 138558, Note_off_c, 1, 73, 127
1, 138560, Note_on_c, 2, 74, 127
1, 138686, Note_off_c, 2, 74, 127
1, 138686, Note_off_c, 10, 45, 127
1, 138688, Note_on_c, 4, 76, 127
1, 138688, Note_on_c, 4, 40, 127
1, 138814, Note_off_c, 4, 76, 127
1, 138816, Note_on_c, 4, 76, 127
1, 138942, Note_off_c, 4, 76, 127
1, 138944, Note_on_c, 6, 78, 127
1, 139070, Note_off_c, 6, 78, 127
1, 139070, Note_off_c, 4, 40, 127
1, 139072, Note_on_c, 7, 79, 127
1, 139072, Note_on_c, 1, 37, 127
1, 139198, Note_off_c, 7, 79, 127
1, 139200, Note_on_c, 7, 79, 127
1, 139326, Note_off_c, 7, 79, 127
1, 139328, Note_on_c, 10, 81, 127
1, 139454, Note_off_c, 10, 81, 127
1, 139454, Note_off_c, 1, 37, 127
1, 139456, Note_on_c, 11, 82, 127
1, 139456, Note_on_c, 10, 33, 127
1, 139582, Note_off_c, 10, 33, 127
1, 139584, Note_on_c, 10, 45, 127
1, 139642, Note_off_c, 11, 82, 127
1, 139710, Note_off_c, 10, 45, 127
1, 139712, Note_on_c, 8, 80, 127
1, 139712, Note_on_c, 12, 47, 127
1, 139838, Note_off_c, 12, 47, 127
1, 139838, Note_off_c, 8, 80, 127
1, 139840, Note_on_c, 10, 81, 127
1, 139840, Note_on_c, 1, 49, 127
1, 139966, Note_off_c, 1, 49, 127
1, 139968, Note_on_c, 2, 50, 127
1, 140094, Note_off_c, 2, 50, 127
1, 140096, Note_on_c, 4, 52, 127
1, 140222, Note_off_c, 4, 52, 127
1, 140224, Note_on_c, 6, 54, 127
1, 140350, Note_off_c, 6, 54, 127
1, 140352, Note_on_c, 7, 55, 127
1, 140410, Note_off_c, 10, 81, 127
1, 140478, Note_off_c, 7, 55, 127
1, 140480, Note_on_c, 1, 85, 127
1, 140480, Note_on_c, 10, 57, 127
1, 140606, Note_off_c, 10, 57, 127
1, 140606, Note_off_c, 1, 85, 127
1, 140608, Note_on_c, 2, 86, 127
1, 140608, Note_on_c, 12, 59, 127
1, 140734, Note_off_c, 12, 59, 127
1, 140736, Note_on_c, 1, 61, 127
1, 140862, Note_off_c, 1, 61, 127
1, 140862, Note_off_c, 2, 86, 127
1, 140864, Note_on_c, 6, 78, 127
1, 140864, Note_on_c, 2, 62, 127
1, 140990, Note_off_c, 2, 62, 127
1, 140990, Note_off_c, 6, 78, 127
1, 140992, Note_on_c, 8, 80, 127
1, 140992, Note_on_c, 4, 64, 127
1, 141056, Note_off_c, 8, 80, 127
1, 141056, Note_on_c, 6, 78, 127
1, 141118, Note_off_c, 6, 78, 127
1, 141118, Note_off_c, 4, 64, 127
1, 141120, Note_on_c, 8, 80, 127
1, 141120, Note_on_c, 2, 62, 127
1, 141246, Note_off_c, 2, 62, 127
1, 141246, Note_off_c, 8, 80, 127
1, 141248, Note_on_c, 10, 81, 127
1, 141248, Note_on_c, 1, 61, 127
1, 141374, Note_off_c, 1, 61, 127
1, 141374, Note_off_c, 10, 81, 127
1, 141376, Note_on_c, 1, 73, 127
1, 141376, Note_on_c, 6, 66, 127
1, 141502, Note_off_c, 6, 66, 127
1, 141504, Note_on_c, 4, 64, 127
1, 141630, Note_off_c, 4, 64, 127
1, 141630, Note_off_c, 1, 73, 127
1, 141632, Note_on_c, 2, 74, 127
1, 141632, Note_on_c, 2, 62, 127
1, 141758, Note_off_c, 2, 62, 127
1, 141758, Note_off_c, 2, 74, 127
1, 141760, Note_on_c, 6, 78, 127
1, 141760, Note_on_c, 10, 69, 127
1, 142142, Note_off_c, 10, 69, 127
1, 142142, Note_off_c, 6, 78, 127
1, 142144, Note_on_c, 4, 76, 127
1, 142144, Note_on_c, 10, 57, 127
1, 142206, Note_off_c, 4, 76, 127
1, 142206, Note_on_c, 6, 78, 127
1, 142268, Note_off_c, 6, 78, 127
1, 142272, Note_on_c, 4, 76, 127
1, 142400, Note_on_c, 2, 74, 127
1, 142410, Note_off_c, 4, 76, 127
1, 142516, Note_off_c, 2, 74, 127
1, 142526, Note_off_c, 10, 57, 127
1, 142528, Note_on_c, 2, 74, 127
1, 142528, Note_on_c, 12, 59, 127
1, 142654, Note_off_c, 2, 74, 127
1, 142656, Note_on_c, 1, 73, 127
1, 142782, Note_off_c, 1, 73, 127
1, 142784, Note_on_c, 12, 71, 127
1, 142784, Note_on_c, 2, 62, 127
1, 142908, Note_off_c, 12, 59, 127
1, 142910, Note_off_c, 2, 62, 127
1, 142910, Note_off_c, 12, 71, 127
1, 142912, Note_on_c, 0, 72, 127
1, 142912, Note_on_c, 10, 57, 127
1, 142912, Note_on_c, 6, 54, 127
1, 143038, Note_off_c, 0, 72, 127
1, 143040, Note_on_c, 12, 71, 127
1, 143166, Note_off_c, 12, 71, 127
1, 143166, Note_off_c, 10, 57, 127
1, 143168, Note_on_c, 10, 69, 127
1, 143168, Note_on_c, 2, 62, 127
1, 143292, Note_off_c, 6, 54, 127
1, 143294, Note_off_c, 2, 62, 127
1, 143294, Note_off_c, 10, 69, 127
1, 143296, Note_on_c, 12, 71, 127
1, 143296, Note_on_c, 7, 55, 127
1, 143422, Note_off_c, 12, 71, 127
1, 143424, Note_on_c, 10, 69, 127
1, 143550, Note_off_c, 10, 69, 127
1, 143552, Note_on_c, 7, 67, 127
1, 143552, Note_on_c, 2, 62, 127
1, 143676, Note_off_c, 7, 55, 127
1, 143678, Note_off_c, 2, 62, 127
1, 143678, Note_off_c, 7, 67, 127
1, 143680, Note_on_c, 10, 69, 127
1, 143680, Note_on_c, 6, 54, 127
1, 143680, Note_on_c, 12, 47, 127
1, 143806, Note_off_c, 10, 69, 127
1, 143808, Note_on_c, 7, 67, 127
1, 143934, Note_off_c, 7, 67, 127
1, 143934, Note_off_c, 6, 54, 127
1, 143936, Note_on_c, 6, 66, 127
1, 143936, Note_on_c, 2, 62, 127
1, 144060, Note_off_c, 12, 47, 127
1, 144062, Note_off_c, 2, 62, 127
1, 144062, Note_off_c, 6, 66, 127
1, 144064, Note_on_c, 7, 67, 127
1, 144064, Note_on_c, 4, 52, 127
1, 144064, Note_on_c, 1, 49, 127
1, 144190, Note_off_c, 7, 67, 127
1, 144192, Note_on_c, 6, 66, 127
1, 144318, Note_off_c, 6, 66, 127
1, 144320, Note_on_c, 4, 64, 127
1, 144446, Note_off_c, 4, 64, 127
1, 144446, Note_off_c, 1, 49, 127
1, 144446, Note_off_c, 4, 52, 127
1, 144448, Note_on_c, 6, 66, 127
1, 144448, Note_on_c, 2, 50, 127
1, 144448, Note_on_c, 10, 57, 127
1, 144702, Note_off_c, 6, 66, 127
1, 144704, Note_on_c, 2, 74, 127
1, 144820, Note_off_c, 2, 74, 127
1, 144830, Note_off_c, 2, 50, 127
1, 144832, Note_on_c, 4, 64, 127
1, 144832, Note_on_c, 10, 45, 127
1, 145086, Note_off_c, 4, 64, 127
1, 145088, Note_on_c, 7, 67, 127
1, 145204, Note_off_c, 7, 67, 127
1, 145208, Note_off_c, 10, 57, 127
1, 145216, Note_on_c, 2, 74, 127
1, 145216, Note_on_c, 7, 55, 127
1, 145470, Note_off_c, 2, 74, 127
1, 145472, Note_on_c, 1, 73, 127
1, 145588, Note_off_c, 1, 73, 127
1, 145592, Note_off_c, 10, 45, 127
1, 145600, Note_on_c, 2, 74, 127
1, 145600, Note_on_c, 2, 50, 127
1, 145716, Note_off_c, 7, 55, 127
1, 145728, Note_on_c, 6, 54, 127
1, 145854, Note_off_c, 6, 54, 127
1, 145856, Note_on_c, 4, 52, 127
1, 145982, Note_off_c, 4, 52, 127
1, 145984, Note_on_c, 6, 54, 127
1, 146110, Note_off_c, 2, 74, 127
1, 146112, Note_on_c, 10, 69, 127
1, 146238, Note_off_c, 10, 69, 127
1, 146240, Note_on_c, 7, 67, 127
1, 146280, Note_off_c, 2, 50, 127
1, 146304, Note_off_c, 6, 54, 127
1, 146366, Note_off_c, 7, 67, 127
1, 146368, Note_on_c, 10, 69, 127
1, 146368, Note_on_c, 6, 66, 127
1, 146368, Note_on_c, 2, 62, 127
1, 146492, Note_off_c, 6, 66, 127
1, 146494, Note_off_c, 10, 69, 127
1, 146496, Note_on_c, 6, 66, 127
1, 146622, Note_off_c, 6, 66, 127
1, 146624, Note_on_c, 4, 64, 127
1, 146648, Note_off_c, 2, 62, 127
1, 146750, Note_off_c, 4, 64, 127
1, 146752, Note_on_c, 6, 66, 127
1, 146752, Note_on_c, 2, 62, 127
1, 146752, Note_on_c, 10, 57, 127
1, 146876, Note_off_c, 2, 62, 127
1, 146878, Note_off_c, 6, 66, 127
1, 146880, Note_on_c, 2, 62, 127
1, 147006, Note_off_c, 2, 62, 127
1, 147008, Note_on_c, 1, 61, 127
1, 147032, Note_off_c, 10, 57, 127
1, 147134, Note_off_c, 1, 61, 127
1, 147136, Note_on_c, 2, 62, 127
1, 147136, Note_on_c, 10, 57, 127
1, 147136, Note_on_c, 6, 54, 127
1, 147264, Note_on_c, 2, 50, 127
1, 147390, Note_off_c, 2, 50, 127
1, 147392, Note_on_c, 1, 49, 127
1, 147518, Note_off_c, 1, 49, 127
1, 147520, Note_on_c, 2, 50, 127
1, 147646, Note_off_c, 2, 50, 127
1, 147648, Note_on_c, 10, 45, 127
1, 147774, Note_off_c, 10, 45, 127
1, 147776, Note_off_c, 6, 54, 127
1, 147776, Note_off_c, 10, 57, 127
1, 147776, Note_off_c, 2, 62, 127
1, 147776, Note_on_c, 6, 42, 127
1, 147902, Note_off_c, 6, 42, 127
1, 147904, Note_on_c, 2, 38, 127
1, 148464, Note_off_c, 2, 38, 127
1, 148506, Note_on_c, 10, 69, 127
1, 148632, Note_off_c, 10, 69, 127
1, 148672, Note_on_c, 2, 62, 127
1, 148672, Note_on_c, 10, 69, 127
1, 148672, Note_on_c, 6, 66, 127
1, 148672, Note_on_c, 2, 50, 127
1, 149056, Note_on_c, 2, 38, 127
1, 149182, Note_off_c, 6, 66, 127
1, 149182, Note_off_c, 10, 69, 127
1, 149182, Note_off_c, 2, 62, 127
1, 149200, Note_on_c, 12, 71, 127
1, 149316, Note_off_c, 12, 71, 127
1, 149320, Note_on_c, 1, 73, 127
1, 149436, Note_off_c, 1, 73, 127
1, 149438, Note_off_c, 2, 38, 127
1, 149440, Note_on_c, 2, 74, 127
1, 149440, Note_on_c, 6, 42, 127
1, 149566, Note_off_c, 2, 74, 127
1, 149568, Note_on_c, 4, 76, 127
1, 149694, Note_off_c, 4, 76, 127
1, 149696, Note_on_c, 6, 78, 127
1, 149822, Note_off_c, 6, 78, 127
1, 149822, Note_off_c, 6, 42, 127
1, 149822, Note_off_c, 2, 50, 127
1, 149824, Note_on_c, 4, 76, 127
1, 149824, Note_on_c, 10, 45, 127
1, 149824, Note_on_c, 1, 49, 127
1, 149950, Note_off_c, 4, 76, 127
1, 149952, Note_on_c, 6, 78, 127
1, 150078, Note_off_c, 6, 78, 127
1, 150080, Note_on_c, 7, 79, 127
1, 150206, Note_off_c, 7, 79, 127
1, 150206, Note_off_c, 1, 49, 127
1, 150206, Note_off_c, 10, 45, 127
1, 150208, Note_on_c, 6, 78, 127
1, 150208, Note_on_c, 2, 50, 127
1, 150334, Note_off_c, 6, 78, 127
1, 150336, Note_on_c, 4, 76, 127
1, 150462, Note_off_c, 4, 76, 127
1, 150464, Note_on_c, 2, 74, 127
1, 150590, Note_off_c, 2, 74, 127
1, 150592, Note_on_c, 10, 81, 127
1, 150718, Note_off_c, 2, 50, 127
1, 150720, Note_on_c, 4, 52, 127
1, 150846, Note_off_c, 4, 52, 127
1, 150848, Note_on_c, 0, 72, 127
1, 150848, Note_on_c, 6, 54, 127
1, 150892, Note_off_c, 10, 81, 127
1, 150974, Note_off_c, 6, 54, 127
1, 150974, Note_off_c, 0, 72, 127
1, 150976, Note_on_c, 12, 71, 127
1, 150976, Note_on_c, 7, 55, 127
1, 151102, Note_off_c, 7, 55, 127
1, 151104, Note_on_c, 10, 57, 127
1, 151230, Note_off_c, 10, 57, 127
1, 151232, Note_on_c, 7, 79, 127
1, 151232, Note_on_c, 12, 59, 127
1, 151256, Note_off_c, 12, 71, 127
1, 151358, Note_off_c, 12, 59, 127
1, 151358, Note_off_c, 7, 79, 127
1, 151360, Note_on_c, 0, 72, 127
1, 151360, Note_on_c, 10, 57, 127
1, 151486, Note_off_c, 10, 57, 127
1, 151488, Note_on_c, 12, 59, 127
1, 151614, Note_off_c, 12, 59, 127
1, 151616, Note_on_c, 6, 78, 127
1, 151616, Note_on_c, 0, 60, 127
1, 151620, Note_off_c, 0, 72, 127
1, 151732, Note_off_c, 6, 78, 127
1, 151742, Note_off_c, 0, 60, 127
1, 151744, Note_on_c, 2, 74, 127
1, 151744, Note_on_c, 12, 59, 127
1, 151872, Note_on_c, 7, 79, 127
1, 151904, Note_off_c, 2, 74, 127
1, 151998, Note_off_c, 7, 79, 127
1, 152000, Note_on_c, 6, 78, 127
1, 152126, Note_off_c, 6, 78, 127
1, 152126, Note_off_c, 12, 59, 127
1, 152128, Note_on_c, 7, 79, 127
1, 152128, Note_on_c, 7, 55, 127
1, 152254, Note_off_c, 7, 79, 127
1, 152256, Note_on_c, 10, 81, 127
1, 152382, Note_off_c, 10, 81, 127
1, 152384, Note_on_c, 12, 83, 127
1, 152510, Note_off_c, 12, 83, 127
1, 152510, Note_off_c, 7, 55, 127
1, 152512, Note_on_c, 4, 76, 127
1, 152512, Note_on_c, 0, 60, 127
1, 152640, Note_on_c, 0, 84, 127
1, 152692, Note_off_c, 4, 76, 127
1, 152766, Note_off_c, 0, 84, 127
1, 152768, Note_on_c, 12, 83, 127
1, 152894, Note_off_c, 12, 83, 127
1, 152894, Note_off_c, 0, 60, 127
1, 152896, Note_on_c, 10, 81, 127
1, 152896, Note_on_c, 6, 54, 127
1, 153022, Note_off_c, 10, 81, 127
1, 153024, Note_on_c, 7, 79, 127
1, 153150, Note_off_c, 7, 79, 127
1, 153152, Note_on_c, 6, 78, 127
1, 153278, Note_off_c, 6, 78, 127
1, 153278, Note_off_c, 6, 54, 127
1, 153280, Note_on_c, 4, 76, 127
1, 153280, Note_on_c, 12, 59, 127
1, 153406, Note_off_c, 12, 59, 127
1, 153408, Note_on_c, 6, 54, 127
1, 153534, Note_off_c, 6, 54, 127
1, 153536, Note_on_c, 7, 55, 127
1, 153662, Note_off_c, 7, 55, 127
1, 153664, Note_on_c, 10, 57, 127
1, 153728, Note_on_c, 3, 75, 127
1, 153742, Note_off_c, 4, 76, 127
1, 153790, Note_off_c, 10, 57, 127
1, 153792, Note_on_c, 4, 76, 127
1, 153792, Note_on_c, 7, 55, 127
1, 153816, Note_off_c, 3, 75, 127
1, 153856, Note_on_c, 3, 75, 127
1, 153880, Note_off_c, 4, 76, 127
1, 153918, Note_off_c, 7, 55, 127
1, 153920, Note_on_c, 4, 76, 127
1, 153920, Note_on_c, 6, 54, 127
1, 153944, Note_off_c, 3, 75, 127
1, 153984, Note_on_c, 3, 75, 127
1, 154008, Note_off_c, 4, 76, 127
1, 154046, Note_off_c, 3, 75, 127
1, 154046, Note_off_c, 6, 54, 127
1, 154048, Note_on_c, 12, 83, 127
1, 154048, Note_on_c, 4, 52, 127
1, 154112, Note_off_c, 12, 83, 127
1, 154112, Note_on_c, 10, 81, 127
1, 154174, Note_off_c, 4, 52, 127
1, 154176, Note_off_c, 10, 81, 127
1, 154176, Note_on_c, 12, 83, 127
1, 154176, Note_on_c, 3, 51, 127
1, 154302, Note_off_c, 3, 51, 127
1, 154304, Note_on_c, 4, 52, 127
1, 154430, Note_off_c, 4, 52, 127
1, 154432, Note_on_c, 6, 54, 127
1, 154558, Note_off_c, 6, 54, 127
1, 154560, Note_on_c, 4, 52, 127
1, 154686, Note_off_c, 4, 52, 127
1, 154688, Note_on_c, 3, 51, 127
1, 154814, Note_off_c, 3, 51, 127
1, 154816, Note_on_c, 8, 56, 127
1, 154942, Note_off_c, 12, 83, 127
1, 154944, Note_on_c, 5, 77, 127
1, 155070, Note_off_c, 5, 77, 127
1, 155072, Note_on_c, 4, 76, 127
1, 155198, Note_off_c, 4, 76, 127
1, 155200, Note_on_c, 5, 77, 127
1, 155326, Note_off_c, 5, 77, 127
1, 155328, Note_on_c, 4, 76, 127
1, 155454, Note_off_c, 4, 76, 127
1, 155456, Note_on_c, 2, 74, 127
1, 155582, Note_off_c, 2, 74, 127
1, 155584, Note_on_c, 4, 76, 127
1, 155696, Note_off_c, 8, 56, 127
1, 155712, Note_on_c, 4, 52, 127
1, 155824, Note_off_c, 4, 76, 127
1, 155838, Note_off_c, 4, 52, 127
1, 155840, Note_on_c, 12, 83, 127
1, 155840, Note_on_c, 6, 54, 127
1, 155966, Note_off_c, 6, 54, 127
1, 155966, Note_off_c, 12, 83, 127
1, 155968, Note_on_c, 2, 74, 127
1, 155968, Note_on_c, 8, 56, 127
1, 156094, Note_off_c, 8, 56, 127
1, 156096, Note_on_c, 6, 54, 127
1, 156222, Note_off_c, 6, 54, 127
1, 156224, Note_on_c, 4, 52, 127
1, 156350, Note_off_c, 4, 52, 127
1, 156352, Note_on_c, 10, 57, 127
1, 156468, Note_off_c, 2, 74, 127
1, 156480, Note_on_c, 4, 64, 127
1, 156606, Note_off_c, 4, 64, 127
1, 156608, Note_on_c, 6, 66, 127
1, 156734, Note_off_c, 6, 66, 127
1, 156734, Note_off_c, 10, 57, 127
1, 156736, Note_on_c, 8, 68, 127
1, 156736, Note_on_c, 4, 52, 127
1, 156862, Note_off_c, 8, 68, 127
1, 156864, Note_on_c, 10, 69, 127
1, 156990, Note_off_c, 10, 69, 127
1, 156992, Note_on_c, 12, 71, 127
1, 157118, Note_off_c, 12, 71, 127
1, 157118, Note_off_c, 4, 52, 127
1, 157120, Note_on_c, 0, 72, 127
1, 157120, Note_on_c, 10, 45, 127
1, 157246, Note_off_c, 0, 72, 127
1, 157248, Note_on_c, 10, 69, 127
1, 157374, Note_off_c, 10, 69, 127
1, 157376, Note_on_c, 12, 71, 127
1, 157502, Note_off_c, 12, 71, 127
1, 157502, Note_off_c, 10, 45, 127
1, 157504, Note_on_c, 0, 72, 127
1, 157504, Note_on_c, 10, 57, 127
1, 157630, Note_off_c, 0, 72, 127
1, 157632, Note_on_c, 2, 74, 127
1, 157758, Note_off_c, 2, 74, 127
1, 157760, Note_on_c, 4, 76, 127
1, 157886, Note_off_c, 4, 76, 127
1, 157886, Note_off_c, 10, 57, 127
1, 157888, Note_on_c, 6, 78, 127
1, 157888, Note_on_c, 4, 52, 127
1, 158014, Note_off_c, 6, 78, 127
1, 158016, Note_on_c, 0, 72, 127
1, 158142, Note_off_c, 0, 72, 127
1, 158144, Note_on_c, 12, 71, 127
1, 158270, Note_off_c, 12, 71, 127
1, 158270, Note_off_c, 4, 52, 127
1, 158272, Note_on_c, 0, 72, 127
1, 158272, Note_on_c, 3, 51, 127
1, 158398, Note_off_c, 0, 72, 127
1, 158400, Note_on_c, 12, 71, 127
1, 158526, Note_off_c, 12, 71, 127
1, 158528, Note_on_c, 10, 69, 127
1, 158654, Note_off_c, 10, 69, 127
1, 158656, Note_on_c, 12, 71, 127
1, 158772, Note_off_c, 3, 51, 127
1, 158784, Note_on_c, 12, 47, 127
1, 158896, Note_off_c, 12, 71, 127
1, 158910, Note_off_c, 12, 47, 127
1, 158912, Note_on_c, 6, 78, 127
1, 158912, Note_on_c, 1, 49, 127
1, 159038, Note_off_c, 1, 49, 127
1, 159038, Note_off_c, 6, 78, 127
1, 159040, Note_on_c, 10, 69, 127
1, 159040, Note_on_c, 3, 51, 127
1, 159166, Note_off_c, 3, 51, 127
1, 159168, Note_on_c, 1, 49, 127
1, 159294, Note_off_c, 1, 49, 127
1, 159296, Note_on_c, 12, 47, 127
1, 159422, Note_off_c, 12, 47, 127
1, 159424, Note_on_c, 4, 52, 127
1, 159550, Note_off_c, 10, 69, 127
1, 159552, Note_on_c, 12, 59, 127
1, 159678, Note_off_c, 12, 59, 127
1, 159680, Note_on_c, 1, 61, 127
1, 159806, Note_off_c, 1, 61, 127
1, 159806, Note_off_c, 4, 52, 127
1, 159808, Note_on_c, 3, 63, 127
1, 159808, Note_on_c, 12, 47, 127
1, 159934, Note_off_c, 3, 63, 127
1, 159936, Note_on_c, 4, 64, 127
1, 160062, Note_off_c, 4, 64, 127
1, 160064, Note_on_c, 6, 66, 127
1, 160190, Note_off_c, 6, 66, 127
1, 160190, Note_off_c, 12, 47, 127
1, 160192, Note_on_c, 7, 67, 127
1, 160192, Note_on_c, 4, 40, 127
1, 160318, Note_off_c, 7, 67, 127
1, 160320, Note_on_c, 4, 64, 127
1, 160446, Note_off_c, 4, 64, 127
1, 160448, Note_on_c, 6, 66, 127
1, 160574, Note_off_c, 6, 66, 127
1, 160574, Note_off_c, 4, 40, 127
1, 160576, Note_on_c, 7, 67, 127
1, 160576, Note_on_c, 4, 52, 127
1, 160702, Note_off_c, 7, 67, 127
1, 160704, Note_on_c, 10, 69, 127
1, 160830, Note_off_c, 10, 69, 127
1, 160832, Note_on_c, 12, 71, 127
1, 160958, Note_off_c, 12, 71, 127
1, 160958, Note_off_c, 4, 52, 127
1, 160960, Note_on_c, 0, 72, 127
1, 160960, Note_on_c, 10, 45, 127
1, 161086, Note_off_c, 0, 72, 127
1, 161088, Note_on_c, 10, 69, 127
1, 161214, Note_off_c, 10, 69, 127
1, 161216, Note_on_c, 8, 68, 127
1, 161342, Note_off_c, 8, 68, 127
1, 161344, Note_on_c, 10, 69, 127
1, 161344, Note_on_c, 10, 33, 127
1, 161470, Note_off_c, 10, 69, 127
1, 161472, Note_on_c, 5, 65, 127
1, 161598, Note_off_c, 5, 65, 127
1, 161600, Note_on_c, 4, 64, 127
1, 161720, Note_off_c, 10, 45, 127
1, 161724, Note_off_c, 10, 33, 127
1, 161726, Note_off_c, 4, 64, 127
1, 161728, Note_on_c, 5, 65, 127
1, 161854, Note_off_c, 5, 65, 127
1, 161856, Note_on_c, 5, 77, 127
1, 161856, Note_on_c, 10, 57, 127
1, 161982, Note_off_c, 10, 57, 127
1, 161984, Note_on_c, 7, 55, 127
1, 162110, Note_off_c, 7, 55, 127
1, 162112, Note_on_c, 10, 57, 127
1, 162238, Note_off_c, 10, 57, 127
1, 162240, Note_on_c, 7, 55, 127
1, 162296, Note_off_c, 5, 77, 127
1, 162366, Note_off_c, 7, 55, 127
1, 162368, Note_on_c, 4, 76, 127
1, 162368, Note_on_c, 6, 54, 127
1, 162494, Note_off_c, 6, 54, 127
1, 162494, Note_off_c, 4, 76, 127
1, 162496, Note_on_c, 3, 75, 127
1, 162496, Note_on_c, 12, 59, 127
1, 162622, Note_off_c, 3, 75, 127
1, 162624, Note_on_c, 0, 72, 127
1, 162750, Note_off_c, 0, 72, 127
1, 162752, Note_on_c, 12, 71, 127
1, 162878, Note_off_c, 12, 71, 127
1, 162878, Note_off_c, 12, 59, 127
1, 162880, Note_on_c, 0, 72, 127
1, 162880, Note_on_c, 6, 54, 127
1, 163006, Note_off_c, 0, 72, 127
1, 163008, Note_on_c, 10, 69, 127
1, 163134, Note_off_c, 10, 69, 127
1, 163136, Note_on_c, 8, 68, 127
1, 163262, Note_off_c, 8, 68, 127
1, 163262, Note_off_c, 6, 54, 127
1, 163264, Note_on_c, 10, 69, 127
1, 163264, Note_on_c, 3, 51, 127
1, 163390, Note_off_c, 10, 69, 127
1, 163392, Note_on_c, 12, 71, 127
1, 163518, Note_off_c, 12, 71, 127
1, 163520, Note_on_c, 1, 73, 127
1, 163646, Note_off_c, 1, 73, 127
1, 163646, Note_off_c, 3, 51, 127
1, 163648, Note_on_c, 3, 75, 127
1, 163648, Note_on_c, 12, 47, 127
1, 163774, Note_off_c, 3, 75, 127
1, 163776, Note_on_c, 4, 76, 127
1, 163902, Note_off_c, 4, 76, 127
1, 163904, Note_on_c, 6, 78, 127
1, 164030, Note_off_c, 6, 78, 127
1, 164030, Note_off_c, 12, 47, 127
1, 164032, Note_on_c, 4, 76, 127
1, 164032, Note_on_c, 4, 52, 127
1, 164158, Note_off_c, 4, 76, 127
1, 164160, Note_on_c, 0, 72, 127
1, 164286, Note_off_c, 0, 72, 127
1, 164288, Note_on_c, 12, 71, 127
1, 164414, Note_off_c, 12, 71, 127
1, 164416, Note_on_c, 0, 72, 127
1, 164416, Note_on_c, 4, 40, 127
1, 164542, Note_off_c, 0, 72, 127
1, 164544, Note_on_c, 10, 69, 127
1, 164670, Note_off_c, 10, 69, 127
1, 164672, Note_on_c, 8, 68, 127
1, 164792, Note_off_c, 4, 52, 127
1, 164796, Note_off_c, 4, 40, 127
1, 164798, Note_off_c, 8, 68, 127
1, 164800, Note_on_c, 10, 69, 127
1, 164926, Note_off_c, 10, 69, 127
1, 164928, Note_on_c, 10, 81, 127
1, 164928, Note_on_c, 0, 60, 127
1, 165054, Note_off_c, 0, 60, 127
1, 165056, Note_on_c, 12, 59, 127
1, 165182, Note_off_c, 12, 59, 127
1, 165184, Note_on_c, 0, 60, 127
1, 165310, Note_off_c, 0, 60, 127
1, 165312, Note_on_c, 12, 59, 127
1, 165378, Note_off_c, 10, 81, 127
1, 165438, Note_off_c, 12, 59, 127
1, 165440, Note_on_c, 7, 79, 127
1, 165440, Note_on_c, 10, 57, 127
1, 165566, Note_off_c, 10, 57, 127
1, 165566, Note_off_c, 7, 79, 127
1, 165568, Note_on_c, 6, 78, 127
1, 165568, Note_on_c, 3, 63, 127
1, 165694, Note_off_c, 6, 78, 127
1, 165696, Note_on_c, 0, 72, 127
1, 165822, Note_off_c, 0, 72, 127
1, 165824, Note_on_c, 12, 71, 127
1, 165950, Note_off_c, 12, 71, 127
1, 165950, Note_off_c, 3, 63, 127
1, 165952, Note_on_c, 0, 72, 127
1, 165952, Note_on_c, 10, 57, 127
1, 166078, Note_off_c, 0, 72, 127
1, 166080, Note_on_c, 10, 69, 127
1, 166206, Note_off_c, 10, 69, 127
1, 166208, Note_on_c, 8, 68, 127
1, 166334, Note_off_c, 8, 68, 127
1, 166334, Note_off_c, 10, 57, 127
1, 166336, Note_on_c, 10, 69, 127
1, 166336, Note_on_c, 6, 54, 127
1, 166462, Note_off_c, 10, 69, 127
1, 166464, Note_on_c, 3, 75, 127
1, 166590, Note_off_c, 3, 75, 127
1, 166592, Note_on_c, 4, 76, 127
1, 166718, Note_off_c, 4, 76, 127
1, 166718, Note_off_c, 6, 54, 127
1, 166720, Note_on_c, 6, 78, 127
1, 166720, Note_on_c, 3, 51, 127
1, 166846, Note_off_c, 6, 78, 127
1, 166848, Note_on_c, 7, 79, 127
1, 166974, Note_off_c, 7, 79, 127
1, 166976, Note_on_c, 10, 81, 127
1, 167102, Note_off_c, 10, 81, 127
1, 167102, Note_off_c, 3, 51, 127
1, 167104, Note_on_c, 7, 79, 127
1, 167104, Note_on_c, 4, 52, 127
1, 167230, Note_off_c, 7, 79, 127
1, 167232, Note_on_c, 4, 76, 127
1, 167358, Note_off_c, 4, 76, 127
1, 167360, Note_on_c, 3, 75, 127
1, 167486, Note_off_c, 3, 75, 127
1, 167488, Note_on_c, 4, 76, 127
1, 167488, Note_on_c, 4, 40, 127
1, 167614, Note_off_c, 4, 76, 127
1, 167616, Note_on_c, 0, 72, 127
1, 167742, Note_off_c, 0, 72, 127
1, 167744, Note_on_c, 12, 71, 127
1, 167864, Note_off_c, 4, 52, 127
1, 167868, Note_off_c, 4, 40, 127
1, 167870, Note_off_c, 12, 71, 127
1, 167872, Note_on_c, 0, 72, 127
1, 167998, Note_off_c, 0, 72, 127
1, 168000, Note_on_c, 0, 84, 127
1, 168000, Note_on_c, 4, 64, 127
1, 168126, Note_off_c, 4, 64, 127
1, 168128, Note_on_c, 2, 62, 127
1, 168254, Note_off_c, 2, 62, 127
1, 168256, Note_on_c, 4, 64, 127
1, 168382, Note_off_c, 4, 64, 127
1, 168384, Note_on_c, 2, 62, 127
1, 168480, Note_off_c, 0, 84, 127
1, 168510, Note_off_c, 2, 62, 127
1, 168512, Note_on_c, 12, 83, 127
1, 168512, Note_on_c, 1, 61, 127
1, 168638, Note_off_c, 1, 61, 127
1, 168638, Note_off_c, 12, 83, 127
1, 168640, Note_on_c, 11, 82, 127
1, 168640, Note_on_c, 7, 67, 127
1, 168768, Note_on_c, 4, 76, 127
1, 168880, Note_off_c, 11, 82, 127
1, 168894, Note_off_c, 4, 76, 127
1, 168896, Note_on_c, 6, 78, 127
1, 169022, Note_off_c, 6, 78, 127
1, 169022, Note_off_c, 7, 67, 127
1, 169024, Note_on_c, 7, 79, 127
1, 169024, Note_on_c, 1, 61, 127
1, 169150, Note_off_c, 7, 79, 127
1, 169152, Note_on_c, 6, 78, 127
1, 169278, Note_off_c, 6, 78, 127
1, 169280, Note_on_c, 4, 76, 127
1, 169406, Note_off_c, 4, 76, 127
1, 169406, Note_off_c, 1, 61, 127
1, 169408, Note_on_c, 3, 75, 127
1, 169408, Note_on_c, 6, 66, 127
1, 169536, Note_on_c, 10, 81, 127
1, 169648, Note_off_c, 3, 75, 127
1, 169662, Note_off_c, 10, 81, 127
1, 169664, Note_on_c, 12, 83, 127
1, 169790, Note_off_c, 12, 83, 127
1, 169790, Note_off_c, 6, 66, 127
1, 169792, Note_on_c, 0, 84, 127
1, 169792, Note_on_c, 6, 54, 127
1, 169918, Note_off_c, 0, 84, 127
1, 169920, Note_on_c, 12, 83, 127
1, 170046, Note_off_c, 12, 83, 127
1, 170048, Note_on_c, 10, 81, 127
1, 170174, Note_off_c, 10, 81, 127
1, 170174, Note_off_c, 6, 54, 127
1, 170176, Note_on_c, 12, 83, 127
1, 170176, Note_on_c, 7, 55, 127
1, 170302, Note_off_c, 12, 83, 127
1, 170304, Note_on_c, 10, 81, 127
1, 170430, Note_off_c, 10, 81, 127
1, 170432, Note_on_c, 7, 79, 127
1, 170558, Note_off_c, 7, 79, 127
1, 170558, Note_off_c, 7, 55, 127
1, 170560, Note_on_c, 6, 78, 127
1, 170560, Note_on_c, 10, 57, 127
1, 170686, Note_off_c, 6, 78, 127
1, 170688, Note_on_c, 7, 79, 127
1, 170814, Note_off_c, 7, 79, 127
1, 170816, Note_on_c, 4, 76, 127
1, 170942, Note_off_c, 10, 57, 127
1, 170944, Note_on_c, 7, 79, 127
1, 170944, Note_on_c, 12, 59, 127
1, 171124, Note_off_c, 4, 76, 127
1, 171136, Note_on_c, 12, 71, 127
1, 171324, Note_off_c, 7, 79, 127
1, 171326, Note_off_c, 12, 59, 127
1, 171328, Note_on_c, 3, 75, 127
1, 171328, Note_on_c, 6, 78, 127
1, 171328, Note_on_c, 12, 47, 127
1, 171516, Note_off_c, 12, 71, 127
1, 171520, Note_on_c, 10, 69, 127
1, 171708, Note_off_c, 6, 78, 127
1, 171708, Note_off_c, 3, 75, 127
1, 171710, Note_off_c, 10, 69, 127
1, 171710, Note_off_c, 12, 47, 127
1, 171712, Note_on_c, 7, 67, 127
1, 171712, Note_on_c, 12, 71, 127
1, 171712, Note_on_c, 4, 76, 127
1, 171712, Note_on_c, 4, 52, 127
1, 171838, Note_off_c, 4, 52, 127
1, 171840, Note_on_c, 12, 47, 127
1, 171966, Note_off_c, 12, 47, 127
1, 171968, Note_on_c, 10, 45, 127
1, 172094, Note_off_c, 10, 45, 127
1, 172096, Note_on_c, 7, 43, 127
1, 172222, Note_off_c, 7, 43, 127
1, 172224, Note_on_c, 10, 45, 127
1, 172350, Note_off_c, 10, 45, 127
1, 172352, Note_on_c, 12, 47, 127
1, 172472, Note_off_c, 12, 71, 127
1, 172472, Note_off_c, 7, 67, 127
1, 172478, Note_off_c, 12, 47, 127
1, 172480, Note_on_c, 4, 40, 127
1, 172552, Note_off_c, 4, 76, 127
1, 172608, Note_on_c, 12, 71, 127
1, 172734, Note_off_c, 12, 71, 127
1, 172734, Note_off_c, 4, 40, 127
1, 172736, Note_on_c, 10, 69, 127
1, 172736, Note_on_c, 7, 43, 127
1, 172862, Note_off_c, 7, 43, 127
1, 172862, Note_off_c, 10, 69, 127
1, 172864, Note_on_c, 7, 67, 127
1, 172864, Note_on_c, 12, 47, 127
1, 172990, Note_off_c, 7, 67, 127
1, 172992, Note_on_c, 6, 66, 127
1, 173118, Note_off_c, 6, 66, 127
1, 173118, Note_off_c, 12, 47, 127
1, 173120, Note_on_c, 7, 67, 127
1, 173120, Note_on_c, 4, 52, 127
1, 173246, Note_off_c, 4, 52, 127
1, 173246, Note_off_c, 7, 67, 127
1, 173248, Note_on_c, 1, 73, 127
1, 173248, Note_on_c, 10, 45, 127
1, 173374, Note_off_c, 10, 45, 127
1, 173376, Note_on_c, 12, 47, 127
1, 173502, Note_off_c, 12, 47, 127
1, 173502, Note_off_c, 1, 73, 127
1, 173504, Note_on_c, 7, 67, 127
1, 173504, Note_on_c, 1, 49, 127
1, 173630, Note_off_c, 1, 49, 127
1, 173630, Note_off_c, 7, 67, 127
1, 173632, Note_on_c, 2, 74, 127
1, 173632, Note_on_c, 12, 47, 127
1, 173758, Note_off_c, 12, 47, 127
1, 173760, Note_on_c, 1, 49, 127
1, 173886, Note_off_c, 1, 49, 127
1, 173886, Note_off_c, 2, 74, 127
1, 173888, Note_on_c, 7, 67, 127
1, 173888, Note_on_c, 2, 50, 127
1, 174014, Note_off_c, 2, 50, 127
1, 174014, Note_off_c, 7, 67, 127
1, 174016, Note_on_c, 4, 76, 127
1, 174016, Note_on_c, 1, 49, 127
1, 174142, Note_off_c, 1, 49, 127
1, 174144, Note_on_c, 2, 50, 127
1, 174270, Note_off_c, 2, 50, 127
1, 174270, Note_off_c, 4, 76, 127
1, 174272, Note_on_c, 7, 67, 127
1, 174272, Note_on_c, 4, 52, 127
1, 174398, Note_off_c, 4, 52, 127
1, 174398, Note_off_c, 7, 67, 127
1, 174400, Note_on_c, 6, 66, 127
1, 174400, Note_on_c, 10, 45, 127
1, 174526, Note_off_c, 10, 45, 127
1, 174528, Note_on_c, 12, 47, 127
1, 174654, Note_off_c, 12, 47, 127
1, 174654, Note_off_c, 6, 66, 127
1, 174656, Note_on_c, 4, 64, 127
1, 174656, Note_on_c, 1, 49, 127
1, 174782, Note_off_c, 1, 49, 127
1, 174782, Note_off_c, 4, 64, 127
1, 174784, Note_on_c, 6, 66, 127
1, 174784, Note_on_c, 2, 50, 127
1, 174910, Note_off_c, 2, 50, 127
1, 174912, Note_on_c, 4, 52, 127
1, 175038, Note_off_c, 4, 52, 127
1, 175038, Note_off_c, 6, 66, 127
1, 175040, Note_on_c, 2, 62, 127
1, 175040, Note_on_c, 6, 54, 127
1, 175166, Note_off_c, 6, 54, 127
1, 175166, Note_off_c, 2, 62, 127
1, 175168, Note_on_c, 7, 67, 127
1, 175168, Note_on_c, 4, 52, 127
1, 175294, Note_off_c, 4, 52, 127
1, 175296, Note_on_c, 6, 54, 127
1, 175422, Note_off_c, 6, 54, 127
1, 175422, Note_off_c, 7, 67, 127
1, 175424, Note_on_c, 2, 62, 127
1, 175424, Note_on_c, 7, 55, 127
1, 175550, Note_off_c, 7, 55, 127
1, 175550, Note_off_c, 2, 62, 127
1, 175552, Note_on_c, 10, 69, 127
1, 175552, Note_on_c, 6, 54, 127
1, 175678, Note_off_c, 6, 54, 127
1, 175680, Note_on_c, 7, 55, 127
1, 175806, Note_off_c, 7, 55, 127
1, 175806, Note_off_c, 10, 69, 127
1, 175808, Note_on_c, 2, 62, 127
1, 175808, Note_on_c, 10, 57, 127
1, 175934, Note_off_c, 10, 57, 127
1, 175934, Note_off_c, 2, 62, 127
1, 175936, Note_on_c, 0, 72, 127
1, 175936, Note_on_c, 2, 50, 127
1, 176062, Note_off_c, 2, 50, 127
1, 176062, Note_off_c, 0, 72, 127
1, 176064, Note_on_c, 12, 71, 127
1, 176064, Note_on_c, 4, 52, 127
1, 176190, Note_off_c, 4, 52, 127
1, 176190, Note_off_c, 12, 71, 127
1, 176192, Note_on_c, 10, 69, 127
1, 176192, Note_on_c, 6, 54, 127
1, 176318, Note_off_c, 6, 54, 127
1, 176318, Note_off_c, 10, 69, 127
1, 176320, Note_on_c, 12, 71, 127
1, 176320, Note_on_c, 7, 55, 127
1, 176446, Note_off_c, 7, 55, 127
1, 176448, Note_on_c, 10, 57, 127
1, 176574, Note_off_c, 10, 57, 127
1, 176574, Note_off_c, 12, 71, 127
1, 176576, Note_on_c, 5, 65, 127
1, 176576, Note_on_c, 12, 59, 127
1, 176702, Note_off_c, 12, 59, 127
1, 176702, Note_off_c, 5, 65, 127
1, 176704, Note_on_c, 0, 72, 127
1, 176704, Note_on_c, 10, 57, 127
1, 176830, Note_off_c, 10, 57, 127
1, 176832, Note_on_c, 12, 59, 127
1, 176958, Note_off_c, 12, 59, 127
1, 176958, Note_off_c, 0, 72, 127
1, 176960, Note_on_c, 5, 65, 127
1, 176960, Note_on_c, 0, 60, 127
1, 177086, Note_off_c, 0, 60, 127
1, 177086, Note_off_c, 5, 65, 127
1, 177088, Note_on_c, 2, 74, 127
1, 177088, Note_on_c, 12, 59, 127
1, 177214, Note_off_c, 12, 59, 127
1, 177216, Note_on_c, 0, 60, 127
1, 177342, Note_off_c, 0, 60, 127
1, 177342, Note_off_c, 2, 74, 127
1, 177344, Note_on_c, 5, 65, 127
1, 177344, Note_on_c, 2, 62, 127
1, 177470, Note_off_c, 2, 62, 127
1, 177470, Note_off_c, 5, 65, 127
1, 177472, Note_on_c, 4, 64, 127
1, 177472, Note_on_c, 7, 55, 127
1, 177598, Note_off_c, 7, 55, 127
1, 177600, Note_on_c, 10, 57, 127
1, 177726, Note_off_c, 10, 57, 127
1, 177726, Note_off_c, 4, 64, 127
1, 177728, Note_on_c, 2, 62, 127
1, 177728, Note_on_c, 12, 59, 127
1, 177854, Note_off_c, 12, 59, 127
1, 177854, Note_off_c, 2, 62, 127
1, 177856, Note_on_c, 4, 64, 127
1, 177856, Note_on_c, 0, 60, 127
1, 177920, Note_on_c, 2, 62, 127
1, 177928, Note_off_c, 4, 64, 127
1, 177982, Note_off_c, 0, 60, 127
1, 177984, Note_on_c, 4, 64, 127
1, 177984, Note_on_c, 12, 59, 127
1, 177992, Note_off_c, 2, 62, 127
1, 178110, Note_off_c, 12, 59, 127
1, 178112, Note_on_c, 10, 57, 127
1, 178238, Note_off_c, 10, 57, 127
1, 178240, Note_on_c, 8, 56, 127
1, 178366, Note_off_c, 8, 56, 127
1, 178368, Note_on_c, 10, 57, 127
1, 178494, Note_off_c, 10, 57, 127
1, 178494, Note_off_c, 4, 64, 127
1, 178496, Note_on_c, 4, 64, 127
1, 178496, Note_on_c, 12, 59, 127
1, 178622, Note_off_c, 12, 59, 127
1, 178622, Note_off_c, 4, 64, 127
1, 178624, Note_on_c, 0, 72, 127
1, 178624, Note_on_c, 10, 57, 127
1, 178750, Note_off_c, 10, 57, 127
1, 178752, Note_on_c, 7, 55, 127
1, 178878, Note_off_c, 7, 55, 127
1, 178880, Note_on_c, 6, 54, 127
1, 179006, Note_off_c, 6, 54, 127
1, 179008, Note_on_c, 4, 52, 127
1, 179134, Note_off_c, 4, 52, 127
1, 179136, Note_on_c, 6, 54, 127
1, 179262, Note_off_c, 6, 54, 127
1, 179264, Note_on_c, 7, 55, 127
1, 179390, Note_off_c, 7, 55, 127
1, 179392, Note_on_c, 6, 54, 127
1, 179484, Note_off_c, 0, 72, 127
1, 179520, Note_on_c, 4, 64, 127
1, 179646, Note_off_c, 4, 64, 127
1, 179648, Note_on_c, 2, 62, 127
1, 179774, Note_off_c, 2, 62, 127
1, 179776, Note_on_c, 4, 64, 127
1, 179902, Note_off_c, 4, 64, 127
1, 179904, Note_on_c, 2, 62, 127
1, 180030, Note_off_c, 2, 62, 127
1, 180032, Note_on_c, 0, 60, 127
1, 180158, Note_off_c, 0, 60, 127
1, 180160, Note_on_c, 2, 62, 127
1, 180286, Note_off_c, 6, 54, 127
1, 180288, Note_on_c, 6, 54, 127
1, 180414, Note_off_c, 6, 54, 127
1, 180416, Note_on_c, 4, 52, 127
1, 180542, Note_off_c, 4, 52, 127
1, 180542, Note_off_c, 2, 62, 127
1, 180544, Note_on_c, 0, 72, 127
1, 180544, Note_on_c, 6, 54, 127
1, 180670, Note_off_c, 6, 54, 127
1, 180672, Note_on_c, 4, 52, 127
1, 180798, Note_off_c, 4, 52, 127
1, 180800, Note_on_c, 2, 50, 127
1, 180926, Note_off_c, 2, 50, 127
1, 180928, Note_on_c, 7, 55, 127
1, 181034, Note_off_c, 0, 72, 127
1, 181056, Note_on_c, 12, 71, 127
1, 181182, Note_off_c, 12, 71, 127
1, 181184, Note_on_c, 0, 72, 127
1, 181310, Note_off_c, 0, 72, 127
1, 181310, Note_off_c, 7, 55, 127
1, 181312, Note_on_c, 2, 74, 127
1, 181312, Note_on_c, 7, 43, 127
1, 181438, Note_off_c, 2, 74, 127
1, 181440, Note_on_c, 0, 72, 127
1, 181566, Note_off_c, 0, 72, 127
1, 181568, Note_on_c, 12, 71, 127
1, 181694, Note_off_c, 12, 71, 127
1, 181694, Note_off_c, 7, 43, 127
1, 181696, Note_on_c, 10, 69, 127
1, 181696, Note_on_c, 12, 47, 127
1, 181822, Note_off_c, 10, 69, 127
1, 181824, Note_on_c, 7, 67, 127
1, 181950, Note_off_c, 7, 67, 127
1, 181952, Note_on_c, 10, 69, 127
1, 182078, Note_off_c, 10, 69, 127
1, 182078, Note_off_c, 12, 47, 127
1, 182080, Note_on_c, 12, 71, 127
1, 182080, Note_on_c, 7, 43, 127
1, 182206, Note_off_c, 12, 71, 127
1, 182208, Note_on_c, 10, 69, 127
1, 182334, Note_off_c, 10, 69, 127
1, 182336, Note_on_c, 7, 67, 127
1, 182462, Note_off_c, 7, 67, 127
1, 182462, Note_off_c, 7, 43, 127
1, 182464, Note_on_c, 5, 65, 127
1, 182464, Note_on_c, 0, 48, 127
1, 182590, Note_off_c, 5, 65, 127
1, 182592, Note_on_c, 4, 64, 127
1, 182718, Note_off_c, 4, 64, 127
1, 182720, Note_on_c, 5, 65, 127
1, 182846, Note_off_c, 5, 65, 127
1, 182846, Note_off_c, 0, 48, 127
1, 182848, Note_on_c, 7, 67, 127
1, 182848, Note_on_c, 0, 36, 127
1, 182974, Note_off_c, 7, 67, 127
1, 182976, Note_on_c, 5, 65, 127
1, 183102, Note_off_c, 5, 65, 127
1, 183104, Note_on_c, 4, 64, 127
1, 183230, Note_off_c, 4, 64, 127
1, 183232, Note_on_c, 2, 62, 127
1, 183358, Note_off_c, 2, 62, 127
1, 183358, Note_off_c, 0, 36, 127
1, 183360, Note_on_c, 0, 60, 127
1, 183360, Note_on_c, 0, 48, 127
1, 183486, Note_off_c, 0, 48, 127
1, 183486, Note_off_c, 0, 60, 127
1, 183488, Note_on_c, 2, 50, 127
1, 183614, Note_off_c, 2, 50, 127
1, 183616, Note_on_c, 11, 70, 127
1, 183616, Note_on_c, 4, 52, 127
1, 183742, Note_off_c, 4, 52, 127
1, 183744, Note_on_c, 4, 52, 127
1, 183870, Note_off_c, 4, 52, 127
1, 183872, Note_on_c, 6, 54, 127
1, 183998, Note_off_c, 6, 54, 127
1, 184000, Note_on_c, 7, 55, 127
1, 184126, Note_off_c, 11, 70, 127
1, 184128, Note_on_c, 10, 69, 127
1, 184254, Note_off_c, 10, 69, 127
1, 184256, Note_on_c, 7, 67, 127
1, 184382, Note_off_c, 7, 67, 127
1, 184382, Note_off_c, 7, 55, 127
1, 184384, Note_on_c, 10, 69, 127
1, 184384, Note_on_c, 1, 49, 127
1, 184510, Note_off_c, 10, 69, 127
1, 184512, Note_on_c, 7, 67, 127
1, 184638, Note_off_c, 7, 67, 127
1, 184640, Note_on_c, 6, 66, 127
1, 184766, Note_off_c, 6, 66, 127
1, 184766, Note_off_c, 1, 49, 127
1, 184768, Note_on_c, 7, 67, 127
1, 184768, Note_on_c, 4, 52, 127
1, 184894, Note_off_c, 7, 67, 127
1, 184896, Note_on_c, 6, 66, 127
1, 185022, Note_off_c, 6, 66, 127
1, 185024, Note_on_c, 4, 64, 127
1, 185150, Note_off_c, 4, 64, 127
1, 185150, Note_off_c, 4, 52, 127
1, 185152, Note_on_c, 1, 73, 127
1, 185152, Note_on_c, 10, 45, 127
1, 185406, Note_off_c, 1, 73, 127
1, 185408, Note_on_c, 2, 74, 127
1, 185534, Note_off_c, 2, 74, 127
1, 185534, Note_off_c, 10, 45, 127
1, 185536, Note_on_c, 7, 67, 127
1, 185536, Note_on_c, 2, 38, 127
1, 185726, Note_off_c, 7, 67, 127
1, 185728, Note_on_c, 6, 66, 127
1, 185824, Note_on_c, 4, 64, 127
1, 185836, Note_off_c, 6, 66, 127
1, 185918, Note_off_c, 2, 38, 127
1, 185920, Note_on_c, 6, 66, 127
1, 185920, Note_on_c, 2, 50, 127
1, 185932, Note_off_c, 4, 64, 127
1, 186016, Note_on_c, 7, 67, 127
1, 186026, Note_off_c, 6, 66, 127
1, 186112, Note_on_c, 6, 66, 127
1, 186124, Note_off_c, 7, 67, 127
1, 186208, Note_on_c, 4, 64, 127
1, 186220, Note_off_c, 6, 66, 127
1, 186304, Note_on_c, 2, 62, 127
1, 186316, Note_off_c, 4, 64, 127
1, 186418, Note_off_c, 2, 50, 127
1, 186432, Note_on_c, 0, 48, 127
1, 186558, Note_off_c, 0, 48, 127
1, 186560, Note_on_c, 12, 47, 127
1, 186686, Note_off_c, 12, 47, 127
1, 186688, Note_on_c, 10, 45, 127
1, 186814, Note_off_c, 10, 45, 127
1, 186816, Note_on_c, 12, 47, 127
1, 186942, Note_off_c, 12, 47, 127
1, 186944, Note_on_c, 0, 48, 127
1, 187070, Note_off_c, 0, 48, 127
1, 187072, Note_on_c, 12, 35, 127
1, 187104, Note_off_c, 2, 62, 127
1, 187200, Note_on_c, 2, 62, 127
1, 187326, Note_off_c, 2, 62, 127
1, 187328, Note_on_c, 4, 64, 127
1, 187454, Note_off_c, 4, 64, 127
1, 187454, Note_off_c, 12, 35, 127
1, 187456, Note_on_c, 6, 66, 127
1, 187456, Note_on_c, 12, 59, 127
1, 187582, Note_off_c, 6, 66, 127
1, 187584, Note_on_c, 6, 66, 127
1, 187710, Note_off_c, 6, 66, 127
1, 187712, Note_on_c, 7, 67, 127
1, 187838, Note_off_c, 7, 67, 127
1, 187838, Note_off_c, 12, 59, 127
1, 187840, Note_on_c, 10, 69, 127
1, 187840, Note_on_c, 10, 57, 127
1, 187966, Note_off_c, 10, 69, 127
1, 187968, Note_on_c, 10, 69, 127
1, 188094, Note_off_c, 10, 69, 127
1, 188096, Note_on_c, 12, 71, 127
1, 188222, Note_off_c, 12, 71, 127
1, 188222, Note_off_c, 10, 57, 127
1, 188224, Note_on_c, 0, 72, 127
1, 188224, Note_on_c, 7, 55, 127
1, 188350, Note_off_c, 0, 72, 127
1, 188352, Note_on_c, 0, 72, 127
1, 188478, Note_off_c, 0, 72, 127
1, 188480, Note_on_c, 2, 74, 127
1, 188606, Note_off_c, 2, 74, 127
1, 188606, Note_off_c, 7, 55, 127
1, 188608, Note_on_c, 3, 75, 127
1, 188608, Note_on_c, 6, 54, 127
1, 188734, Note_off_c, 6, 54, 127
1, 188736, Note_on_c, 2, 38, 127
1, 188862, Note_off_c, 2, 38, 127
1, 188862, Note_off_c, 3, 75, 127
1, 188864, Note_on_c, 1, 73, 127
1, 188864, Note_on_c, 4, 40, 127
1, 188984, Note_off_c, 1, 73, 127
1, 188990, Note_off_c, 4, 40, 127
1, 188992, Note_on_c, 2, 74, 127
1, 188992, Note_on_c, 6, 42, 127
1, 189118, Note_off_c, 6, 42, 127
1, 189120, Note_on_c, 7, 43, 127
1, 189246, Note_off_c, 7, 43, 127
1, 189248, Note_on_c, 10, 45, 127
1, 189374, Note_off_c, 10, 45, 127
1, 189376, Note_on_c, 12, 47, 127
1, 189502, Note_off_c, 12, 47, 127
1, 189504, Note_on_c, 0, 48, 127
1, 189592, Note_off_c, 2, 74, 127
1, 189630, Note_off_c, 0, 48, 127
1, 189632, Note_on_c, 6, 78, 127
1, 189632, Note_on_c, 2, 50, 127
1, 189758, Note_off_c, 2, 50, 127
1, 189758, Note_off_c, 6, 78, 127
1, 189760, Note_on_c, 7, 79, 127
1, 189760, Note_on_c, 4, 52, 127
1, 189886, Note_off_c, 4, 52, 127
1, 189888, Note_on_c, 6, 54, 127
1, 190014, Note_off_c, 6, 54, 127
1, 190014, Note_off_c, 7, 79, 127
1, 190016, Note_on_c, 12, 71, 127
1, 190016, Note_on_c, 7, 55, 127
1, 190142, Note_off_c, 7, 55, 127
1, 190142, Note_off_c, 12, 71, 127
1, 190144, Note_on_c, 1, 73, 127
1, 190144, Note_on_c, 10, 57, 127
1, 190270, Note_off_c, 10, 57, 127
1, 190272, Note_on_c, 7, 55, 127
1, 190398, Note_off_c, 7, 55, 127
1, 190398, Note_off_c, 1, 73, 127
1, 190400, Note_on_c, 2, 74, 127
1, 190400, Note_on_c, 6, 54, 127
1, 190526, Note_off_c, 6, 54, 127
1, 190526, Note_off_c, 2, 74, 127
1, 190528, Note_on_c, 6, 66, 127
1, 190528, Note_on_c, 12, 59, 127
1, 190654, Note_off_c, 12, 59, 127
1, 190656, Note_on_c, 10, 57, 127
1, 190782, Note_off_c, 10, 57, 127
1, 190782, Note_off_c, 6, 66, 127
1, 190784, Note_on_c, 7, 67, 127
1, 190784, Note_on_c, 7, 55, 127
1, 190910, Note_off_c, 7, 55, 127
1, 190910, Note_off_c, 7, 67, 127
1, 190912, Note_on_c, 12, 71, 127
1, 190912, Note_on_c, 2, 62, 127
1, 191294, Note_off_c, 2, 62, 127
1, 191296, Note_on_c, 2, 50, 127
1, 191358, Note_off_c, 12, 71, 127
1, 191360, Note_on_c, 10, 69, 127
1, 191422, Note_off_c, 10, 69, 127
1, 191424, Note_on_c, 12, 71, 127
1, 191486, Note_off_c, 12, 71, 127
1, 191488, Note_on_c, 10, 69, 127
1, 191550, Note_off_c, 10, 69, 127
1, 191552, Note_on_c, 7, 67, 127
1, 191678, Note_off_c, 7, 67, 127
1, 191678, Note_off_c, 2, 50, 127
1, 191680, Note_on_c, 7, 67, 127
1, 191680, Note_on_c, 4, 52, 127
1, 191806, Note_off_c, 4, 52, 127
1, 191808, Note_on_c, 12, 47, 127
1, 191934, Note_off_c, 12, 47, 127
1, 191934, Note_off_c, 7, 67, 127
1, 191936, Note_on_c, 4, 64, 127
1, 191936, Note_on_c, 7, 43, 127
1, 192062, Note_off_c, 7, 43, 127
1, 192062, Note_off_c, 4, 64, 127
1, 192064, Note_on_c, 2, 62, 127
1, 192064, Note_on_c, 4, 40, 127
1, 192190, Note_off_c, 4, 40, 127
1, 192192, Note_on_c, 7, 43, 127
1, 192318, Note_off_c, 7, 43, 127
1, 192318, Note_off_c, 2, 62, 127
1, 192320, Note_on_c, 7, 67, 127
1, 192320, Note_on_c, 12, 47, 127
1, 192446, Note_off_c, 12, 47, 127
1, 192446, Note_off_c, 7, 67, 127
1, 192448, Note_on_c, 0, 60, 127
1, 192448, Note_on_c, 4, 52, 127
1, 192574, Note_off_c, 4, 52, 127
1, 192576, Note_on_c, 2, 50, 127
1, 192702, Note_off_c, 2, 50, 127
1, 192702, Note_off_c, 0, 60, 127
1, 192704, Note_on_c, 7, 67, 127
1, 192704, Note_on_c, 0, 48, 127
1, 192830, Note_off_c, 0, 48, 127
1, 192830, Note_off_c, 7, 67, 127
1, 192832, Note_on_c, 12, 59, 127
1, 192832, Note_on_c, 2, 50, 127
1, 192958, Note_off_c, 2, 50, 127
1, 192960, Note_on_c, 0, 48, 127
1, 193086, Note_off_c, 0, 48, 127
1, 193086, Note_off_c, 12, 59, 127
1, 193088, Note_on_c, 7, 67, 127
1, 193088, Note_on_c, 12, 47, 127
1, 193214, Note_off_c, 12, 47, 127
1, 193214, Note_off_c, 7, 67, 127
1, 193216, Note_on_c, 0, 48, 127
1, 193216, Note_on_c, 10, 57, 127
1, 193342, Note_off_c, 0, 48, 127
1, 193344, Note_on_c, 12, 47, 127
1, 193448, Note_off_c, 12, 47, 127
1, 193470, Note_off_c, 10, 57, 127
1, 193470, Note_on_c, 6, 66, 127
1, 193494, Note_on_c, 0, 48, 127
1, 193596, Note_off_c, 6, 66, 127
1, 193600, Note_on_c, 12, 47, 127
1, 193602, Note_on_c, 7, 67, 127
1, 193620, Note_off_c, 0, 48, 127
1, 193726, Note_off_c, 12, 47, 127
1, 193728, Note_off_c, 7, 67, 127
1, 193728, Note_on_c, 6, 66, 127
1, 193728, Note_on_c, 10, 45, 127
1, 193854, Note_off_c, 10, 45, 127
1, 193854, Note_off_c, 6, 66, 127
1, 193856, Note_on_c, 4, 64, 127
1, 193856, Note_on_c, 7, 43, 127
1, 193982, Note_off_c, 7, 43, 127
1, 193982, Note_off_c, 4, 64, 127
1, 193984, Note_on_c, 7, 67, 127
1, 193984, Note_on_c, 2, 50, 127
1, 194366, Note_off_c, 7, 67, 127
1, 194368, Note_on_c, 6, 66, 127
1, 194368, Note_on_c, 2, 38, 127
1, 194430, Note_off_c, 6, 66, 127
1, 194432, Note_on_c, 7, 67, 127
1, 194494, Note_off_c, 7, 67, 127
1, 194496, Note_on_c, 6, 66, 127
1, 194622, Note_off_c, 6, 66, 127
1, 194624, Note_on_c, 7, 67, 127
1, 194744, Note_off_c, 2, 50, 127
1, 194750, Note_off_c, 7, 67, 127
1, 194750, Note_off_c, 2, 38, 127
1, 194752, Note_on_c, 7, 67, 127
1, 194752, Note_on_c, 7, 43, 127
1, 195032, Note_off_c, 7, 43, 127
1, 195136, Note_on_c, 2, 62, 127
1, 195136, Note_on_c, 12, 59, 127
1, 195312, Note_on_c, 12, 71, 127
1, 195328, Note_off_c, 7, 67, 127
1, 195412, Note_off_c, 12, 71, 127
1, 195416, Note_off_c, 12, 59, 127
1, 195416, Note_off_c, 2, 62, 127
1, 195416, Note_on_c, 10, 69, 127
1, 195516, Note_off_c, 10, 69, 127
1, 195520, Note_on_c, 12, 71, 127
1, 195520, Note_on_c, 2, 62, 127
1, 195520, Note_on_c, 7, 67, 127
1, 195646, Note_off_c, 12, 71, 127
1, 195648, Note_on_c, 2, 74, 127
1, 195774, Note_off_c, 2, 74, 127
1, 195776, Note_on_c, 0, 72, 127
1, 195800, Note_off_c, 7, 67, 127
1, 195800, Note_off_c, 2, 62, 127
1, 195902, Note_off_c, 0, 72, 127
1, 195904, Note_on_c, 2, 74, 127
1, 195904, Note_on_c, 12, 71, 127
1, 195904, Note_on_c, 7, 67, 127
1, 196030, Note_off_c, 2, 74, 127
1, 196032, Note_on_c, 7, 79, 127
1, 196158, Note_off_c, 7, 79, 127
1, 196160, Note_on_c, 6, 78, 127
1, 196184, Note_off_c, 7, 67, 127
1, 196184, Note_off_c, 12, 71, 127
1, 196286, Note_off_c, 6, 78, 127
1, 196288, Note_on_c, 7, 79, 127
1, 196288, Note_on_c, 2, 74, 127
1, 196288, Note_on_c, 12, 71, 127
1, 196416, Note_on_c, 7, 43, 127
1, 196542, Note_off_c, 7, 43, 127
1, 196544, Note_on_c, 6, 42, 127
1, 196670, Note_off_c, 6, 42, 127
1, 196672, Note_on_c, 7, 43, 127
1, 196798, Note_off_c, 7, 43, 127
1, 196812, Note_on_c, 2, 38, 127
1, 196938, Note_off_c, 2, 38, 127
1, 196960, Note_on_c, 12, 35, 127
1, 197086, Note_off_c, 12, 35, 127
1, 197165, Note_on_c, 7, 31, 127
1, 197438, Note_off_c, 12, 71, 127
1, 197438, Note_off_c, 2, 74, 127
1, 197438, Note_off_c, 7, 79, 127
1, 198783, Note_on_c, 2, 74, 127
1, 198865, Note_off_c, 7, 31, 127
1, 198910, Note_off_c, 2, 74, 127
1, 198911, Note_on_c, 4, 76, 127
1, 199038, Note_off_c, 4, 76, 127
1, 199039, Note_on_c, 6, 78, 127
1, 199166, Note_off_c, 6, 78, 127
1, 199167, Note_on_c, 7, 55, 127
1, 199167, Note_on_c, 7, 79, 127
1, 199294, Note_off_c, 7, 79, 127
1, 199295, Note_on_c, 2, 74, 127
1, 199422, Note_off_c, 2, 74, 127
1, 199422, Note_off_c, 7, 55, 127
1, 199423, Note_on_c, 12, 59, 127
1, 199423, Note_on_c, 12, 71, 127
1, 199550, Note_off_c, 12, 71, 127
1, 199551, Note_on_c, 2, 74, 127
1, 199583, Note_off_c, 12, 59, 127
1, 199678, Note_off_c, 2, 74, 127
1, 199679, Note_on_c, 2, 62, 127
1, 199679, Note_on_c, 7, 67, 127
1, 199806, Note_off_c, 7, 67, 127
1, 199807, Note_on_c, 12, 71, 127
1, 199839, Note_off_c, 2, 62, 127
1, 199934, Note_off_c, 12, 71, 127
1, 199935, Note_on_c, 12, 59, 127
1, 199935, Note_on_c, 2, 74, 127
1, 200062, Note_off_c, 2, 74, 127
1, 200063, Note_on_c, 12, 71, 127
1, 200095, Note_off_c, 12, 59, 127
1, 200190, Note_off_c, 12, 71, 127
1, 200191, Note_on_c, 7, 55, 127
1, 200191, Note_on_c, 7, 79, 127
1, 200318, Note_off_c, 7, 79, 127
1, 200319, Note_on_c, 2, 74, 127
1, 200351, Note_off_c, 7, 55, 127
1, 200446, Note_off_c, 2, 74, 127
1, 200447, Note_on_c, 12, 83, 127
1, 200574, Note_off_c, 12, 83, 127
1, 200575, Note_on_c, 7, 79, 127
1, 200702, Note_off_c, 7, 79, 127
1, 200703, Note_on_c, 6, 54, 127
1, 200703, Note_on_c, 10, 81, 127
1, 200830, Note_off_c, 10, 81, 127
1, 200831, Note_on_c, 6, 78, 127
1, 200958, Note_off_c, 6, 78, 127
1, 200958, Note_off_c, 6, 54, 127
1, 200959, Note_on_c, 10, 57, 127
1, 200959, Note_on_c, 2, 74, 127
1, 201086, Note_off_c, 2, 74, 127
1, 201087, Note_on_c, 6, 78, 127
1, 201119, Note_off_c, 10, 57, 127
1, 201214, Note_off_c, 6, 78, 127
1, 201215, Note_on_c, 2, 62, 127
1, 201215, Note_on_c, 10, 69, 127
1, 201342, Note_off_c, 10, 69, 127
1, 201343, Note_on_c, 2, 74, 127
1, 201375, Note_off_c, 2, 62, 127
1, 201470, Note_off_c, 2, 74, 127
1, 201471, Note_on_c, 10, 57, 127
1, 201471, Note_on_c, 6, 78, 127
1, 201598, Note_off_c, 6, 78, 127
1, 201599, Note_on_c, 2, 74, 127
1, 201631, Note_off_c, 10, 57, 127
1, 201726, Note_off_c, 2, 74, 127
1, 201727, Note_on_c, 6, 54, 127
1, 201727, Note_on_c, 10, 81, 127
1, 201854, Note_off_c, 10, 81, 127
1, 201855, Note_on_c, 6, 78, 127
1, 201887, Note_off_c, 6, 54, 127
1, 201982, Note_off_c, 6, 78, 127
1, 201983, Note_on_c, 0, 84, 127
1, 202110, Note_off_c, 0, 84, 127
1, 202111, Note_on_c, 10, 81, 127
1, 202238, Note_off_c, 10, 81, 127
1, 202239, Note_on_c, 7, 55, 127
1, 202239, Note_on_c, 12, 83, 127
1, 202366, Note_off_c, 12, 83, 127
1, 202367, Note_on_c, 7, 79, 127
1, 202494, Note_off_c, 7, 79, 127
1, 202494, Note_off_c, 7, 55, 127
1, 202495, Note_on_c, 12, 59, 127
1, 202495, Note_on_c, 2, 74, 127
1, 202622, Note_off_c, 2, 74, 127
1, 202623, Note_on_c, 7, 79, 127
1, 202655, Note_off_c, 12, 59, 127
1, 202750, Note_off_c, 7, 79, 127
1, 202751, Note_on_c, 2, 62, 127
1, 202751, Note_on_c, 0, 84, 127
1, 202878, Note_off_c, 0, 84, 127
1, 202879, Note_on_c, 10, 81, 127
1, 202911, Note_off_c, 2, 62, 127
1, 203006, Note_off_c, 10, 81, 127
1, 203007, Note_on_c, 7, 67, 127
1, 203007, Note_on_c, 12, 83, 127
1, 203134, Note_off_c, 12, 83, 127
1, 203135, Note_on_c, 7, 79, 127
1, 203262, Note_off_c, 7, 79, 127
1, 203262, Note_off_c, 7, 67, 127
1, 203263, Note_on_c, 12, 59, 127
1, 203263, Note_on_c, 2, 74, 127
1, 203390, Note_off_c, 2, 74, 127
1, 203391, Note_on_c, 7, 79, 127
1, 203423, Note_off_c, 12, 59, 127
1, 203518, Note_off_c, 7, 79, 127
1, 203519, Note_on_c, 2, 62, 127
1, 203519, Note_on_c, 0, 84, 127
1, 203646, Note_off_c, 0, 84, 127
1, 203647, Note_on_c, 10, 81, 127
1, 203679, Note_off_c, 2, 62, 127
1, 203774, Note_off_c, 10, 81, 127
1, 203775, Note_on_c, 7, 55, 127
1, 203775, Note_on_c, 12, 83, 127
1, 203902, Note_off_c, 12, 83, 127
1, 203903, Note_on_c, 7, 79, 127
1, 204030, Note_off_c, 7, 79, 127
1, 204030, Note_off_c, 7, 55, 127
1, 204031, Note_on_c, 0, 60, 127
1, 204031, Note_on_c, 10, 81, 127
1, 204158, Note_off_c, 10, 81, 127
1, 204159, Note_on_c, 6, 78, 127
1, 204191, Note_off_c, 0, 60, 127
1, 204286, Note_off_c, 6, 78, 127
1, 204287, Note_on_c, 10, 57, 127
1, 204287, Note_on_c, 7, 79, 127
1, 204414, Note_off_c, 7, 79, 127
1, 204415, Note_on_c, 4, 76, 127
1, 204447, Note_off_c, 10, 57, 127
1, 204542, Note_off_c, 4, 76, 127
1, 204543, Note_on_c, 2, 62, 127
1, 204543, Note_on_c, 6, 78, 127
1, 204671, Note_on_c, 2, 74, 127
1, 204783, Note_off_c, 6, 78, 127
1, 204798, Note_off_c, 2, 74, 127
1, 204799, Note_on_c, 2, 50, 127
1, 204799, Note_on_c, 10, 69, 127
1, 204926, Note_off_c, 10, 69, 127
1, 204927, Note_on_c, 2, 74, 127
1, 204959, Note_off_c, 2, 50, 127
1, 205050, Note_off_c, 2, 62, 127
1, 205054, Note_off_c, 2, 74, 127
1, 205055, Note_on_c, 0, 60, 127
1, 205055, Note_on_c, 6, 78, 127
1, 205182, Note_off_c, 6, 78, 127
1, 205183, Note_on_c, 2, 74, 127
1, 205215, Note_off_c, 0, 60, 127
1, 205310, Note_off_c, 2, 74, 127
1, 205311, Note_on_c, 12, 59, 127
1, 205311, Note_on_c, 7, 79, 127
1, 205438, Note_off_c, 7, 79, 127
1, 205439, Note_on_c, 2, 74, 127
1, 205471, Note_off_c, 12, 59, 127
1, 205566, Note_off_c, 2, 74, 127
1, 205567, Note_on_c, 10, 57, 127
1, 205567, Note_on_c, 10, 81, 127
1, 205694, Note_off_c, 10, 81, 127
1, 205695, Note_on_c, 2, 74, 127
1, 205727, Note_off_c, 10, 57, 127
1, 205822, Note_off_c, 2, 74, 127
1, 205823, Note_on_c, 7, 55, 127
1, 205823, Note_on_c, 12, 83, 127
1, 205950, Note_off_c, 12, 83, 127
1, 205951, Note_on_c, 2, 74, 127
1, 205983, Note_off_c, 7, 55, 127
1, 206078, Note_off_c, 2, 74, 127
1, 206079, Note_on_c, 0, 60, 127
1, 206079, Note_on_c, 4, 76, 127
1, 206207, Note_on_c, 0, 72, 127
1, 206319, Note_off_c, 4, 76, 127
1, 206334, Note_off_c, 0, 72, 127
1, 206335, Note_on_c, 0, 48, 127
1, 206335, Note_on_c, 7, 67, 127
1, 206462, Note_off_c, 7, 67, 127
1, 206463, Note_on_c, 0, 72, 127
1, 206495, Note_off_c, 0, 48, 127
1, 206586, Note_off_c, 0, 60, 127
1, 206590, Note_off_c, 0, 72, 127
1, 206591, Note_on_c, 12, 59, 127
1, 206591, Note_on_c, 4, 76, 127
1, 206718, Note_off_c, 4, 76, 127
1, 206719, Note_on_c, 0, 72, 127
1, 206751, Note_off_c, 12, 59, 127
1, 206846, Note_off_c, 0, 72, 127
1, 206847, Note_on_c, 10, 57, 127
1, 206847, Note_on_c, 6, 78, 127
1, 206974, Note_off_c, 6, 78, 127
1, 206975, Note_on_c, 0, 72, 127
1, 207007, Note_off_c, 10, 57, 127
1, 207102, Note_off_c, 0, 72, 127
1, 207103, Note_on_c, 7, 55, 127
1, 207103, Note_on_c, 7, 79, 127
1, 207230, Note_off_c, 7, 79, 127
1, 207231, Note_on_c, 0, 72, 127
1, 207263, Note_off_c, 7, 55, 127
1, 207358, Note_off_c, 0, 72, 127
1, 207359, Note_on_c, 6, 54, 127
1, 207359, Note_on_c, 10, 81, 127
1, 207486, Note_off_c, 10, 81, 127
1, 207487, Note_on_c, 0, 72, 127
1, 207519, Note_off_c, 6, 54, 127
1, 207614, Note_off_c, 0, 72, 127
1, 207615, Note_on_c, 12, 59, 127
1, 207615, Note_on_c, 3, 75, 127
1, 207743, Note_on_c, 12, 71, 127
1, 207842, Note_off_c, 3, 75, 127
1, 207870, Note_off_c, 12, 71, 127
1, 207871, Note_on_c, 12, 47, 127
1, 207871, Note_on_c, 6, 66, 127
1, 207998, Note_off_c, 6, 66, 127
1, 207999, Note_on_c, 12, 71, 127
1, 208031, Note_off_c, 12, 47, 127
1, 208122, Note_off_c, 12, 59, 127
1, 208126, Note_off_c, 12, 71, 127
1, 208127, Note_on_c, 10, 57, 127
1, 208127, Note_on_c, 3, 75, 127
1, 208254, Note_off_c, 3, 75, 127
1, 208255, Note_on_c, 12, 71, 127
1, 208287, Note_off_c, 10, 57, 127
1, 208382, Note_off_c, 12, 71, 127
1, 208383, Note_on_c, 7, 55, 127
1, 208383, Note_on_c, 4, 76, 127
1, 208510, Note_off_c, 4, 76, 127
1, 208511, Note_on_c, 12, 71, 127
1, 208638, Note_off_c, 12, 71, 127
1, 208638, Note_off_c, 7, 55, 127
1, 208639, Note_on_c, 6, 54, 127
1, 208639, Note_on_c, 6, 78, 127
1, 208766, Note_off_c, 6, 78, 127
1, 208767, Note_on_c, 12, 71, 127
1, 208799, Note_off_c, 6, 54, 127
1, 208894, Note_off_c, 12, 71, 127
1, 208895, Note_on_c, 4, 52, 127
1, 208895, Note_on_c, 7, 79, 127
1, 209022, Note_off_c, 7, 79, 127
1, 209023, Note_on_c, 12, 71, 127
1, 209055, Note_off_c, 4, 52, 127
1, 209150, Note_off_c, 12, 71, 127
1, 209151, Note_on_c, 10, 57, 127
1, 209151, Note_on_c, 1, 73, 127
1, 209278, Note_off_c, 1, 73, 127
1, 209279, Note_on_c, 7, 79, 127
1, 209406, Note_off_c, 7, 79, 127
1, 209406, Note_off_c, 10, 57, 127
1, 209407, Note_on_c, 12, 59, 127
1, 209407, Note_on_c, 2, 74, 127
1, 209534, Note_off_c, 2, 74, 127
1, 209535, Note_on_c, 7, 79, 127
1, 209567, Note_off_c, 12, 59, 127
1, 209662, Note_off_c, 7, 79, 127
1, 209663, Note_on_c, 1, 61, 127
1, 209663, Note_on_c, 4, 76, 127
1, 209790, Note_off_c, 4, 76, 127
1, 209791, Note_on_c, 7, 79, 127
1, 209823, Note_off_c, 1, 61, 127
1, 209918, Note_off_c, 7, 79, 127
1, 209919, Note_on_c, 2, 62, 127
1, 209919, Note_on_c, 6, 78, 127
1, 210046, Note_off_c, 6, 78, 127
1, 210047, Note_on_c, 2, 74, 127
1, 210174, Note_off_c, 2, 74, 127
1, 210174, Note_off_c, 2, 62, 127
1, 210175, Note_on_c, 12, 59, 127
1, 210175, Note_on_c, 8, 80, 127
1, 210302, Note_off_c, 8, 80, 127
1, 210303, Note_on_c, 2, 74, 127
1, 210335, Note_off_c, 12, 59, 127
1, 210430, Note_off_c, 2, 74, 127
1, 210431, Note_on_c, 4, 52, 127
1, 210431, Note_on_c, 12, 83, 127
1, 210558, Note_off_c, 12, 83, 127
1, 210559, Note_on_c, 2, 74, 127
1, 210591, Note_off_c, 4, 52, 127
1, 210686, Note_off_c, 2, 74, 127
1, 210687, Note_on_c, 10, 57, 127
1, 210687, Note_on_c, 1, 73, 127
1, 210814, Note_off_c, 1, 73, 127
1, 210815, Note_on_c, 2, 74, 127
1, 210942, Note_off_c, 2, 74, 127
1, 210943, Note_on_c, 10, 45, 127
1, 210943, Note_on_c, 4, 76, 127
1, 211070, Note_off_c, 4, 76, 127
1, 211071, Note_on_c, 1, 73, 127
1, 211194, Note_off_c, 10, 57, 127
1, 211198, Note_off_c, 1, 73, 127
1, 211199, Note_on_c, 10, 57, 127
1, 211199, Note_on_c, 10, 69, 127
1, 211223, Note_off_c, 10, 45, 127
1, 211327, Note_on_c, 7, 67, 127
1, 211434, Note_off_c, 7, 67, 127
1, 211455, Note_on_c, 6, 66, 127
1, 211506, Note_off_c, 10, 57, 127
1, 211519, Note_off_c, 10, 69, 127
1, 211562, Note_off_c, 6, 66, 127
1, 211583, Note_on_c, 10, 69, 127
1, 211710, Note_off_c, 10, 69, 127
1, 211711, Note_on_c, 6, 54, 127
1, 211711, Note_on_c, 2, 74, 127
1, 211838, Note_off_c, 2, 74, 127
1, 211839, Note_on_c, 10, 69, 127
1, 211871, Note_off_c, 6, 54, 127
1, 211966, Note_off_c, 10, 69, 127
1, 211967, Note_on_c, 2, 50, 127
1, 211967, Note_on_c, 6, 78, 127
1, 212094, Note_off_c, 6, 78, 127
1, 212095, Note_on_c, 2, 74, 127
1, 212154, Note_off_c, 2, 50, 127
1, 212222, Note_off_c, 2, 74, 127
1, 212223, Note_on_c, 8, 80, 127
1, 212350, Note_off_c, 8, 80, 127
1, 212351, Note_on_c, 1, 49, 127
1, 212351, Note_on_c, 10, 81, 127
1, 212478, Note_off_c, 10, 81, 127
1, 212478, Note_off_c, 1, 49, 127
1, 212479, Note_on_c, 2, 50, 127
1, 212479, Note_on_c, 10, 69, 127
1, 212606, Note_off_c, 2, 50, 127
1, 212607, Note_on_c, 1, 49, 127
1, 212734, Note_off_c, 1, 49, 127
1, 212735, Note_on_c, 12, 47, 127
1, 212862, Note_off_c, 12, 47, 127
1, 212863, Note_on_c, 10, 45, 127
1, 212990, Note_off_c, 10, 45, 127
1, 212991, Note_on_c, 7, 55, 127
1, 213118, Note_off_c, 10, 69, 127
1, 213119, Note_on_c, 12, 71, 127
1, 213246, Note_off_c, 12, 71, 127
1, 213246, Note_off_c, 7, 55, 127
1, 213247, Note_on_c, 4, 52, 127
1, 213247, Note_on_c, 1, 73, 127
1, 213374, Note_off_c, 1, 73, 127
1, 213375, Note_on_c, 10, 69, 127
1, 213407, Note_off_c, 4, 52, 127
1, 213502, Note_off_c, 10, 69, 127
1, 213503, Note_on_c, 1, 49, 127
1, 213503, Note_on_c, 4, 76, 127
1, 213630, Note_off_c, 4, 76, 127
1, 213631, Note_on_c, 10, 69, 127
1, 213716, Note_off_c, 1, 49, 127
1, 213757, Note_off_c, 10, 69, 127
1, 213758, Note_on_c, 6, 78, 127
1, 213885, Note_off_c, 6, 78, 127
1, 213886, Note_on_c, 12, 47, 127
1, 213886, Note_on_c, 7, 79, 127
1, 214013, Note_off_c, 7, 79, 127
1, 214013, Note_off_c, 12, 47, 127
1, 214014, Note_on_c, 2, 50, 127
1, 214014, Note_on_c, 10, 69, 127
1, 214141, Note_off_c, 2, 50, 127
1, 214142, Note_on_c, 1, 49, 127
1, 214269, Note_off_c, 1, 49, 127
1, 214270, Note_on_c, 12, 47, 127
1, 214397, Note_off_c, 12, 47, 127
1, 214398, Note_on_c, 10, 45, 127
1, 214525, Note_off_c, 10, 45, 127
1, 214526, Note_on_c, 6, 54, 127
1, 214643, Note_off_c, 10, 69, 127
1, 214654, Note_on_c, 12, 71, 127
1, 214781, Note_off_c, 12, 71, 127
1, 214781, Note_off_c, 6, 54, 127
1, 214782, Note_on_c, 4, 52, 127
1, 214782, Note_on_c, 1, 73, 127
1, 214909, Note_off_c, 1, 73, 127
1, 214910, Note_on_c, 2, 74, 127
1, 214942, Note_off_c, 4, 52, 127
1, 215037, Note_off_c, 2, 74, 127
1, 215038, Note_on_c, 2, 50, 127
1, 215038, Note_on_c, 4, 76, 127
1, 215165, Note_off_c, 4, 76, 127
1, 215166, Note_on_c, 6, 78, 127
1, 215198, Note_off_c, 2, 50, 127
1, 215293, Note_off_c, 6, 78, 127
1, 215294, Note_on_c, 1, 49, 127
1, 215294, Note_on_c, 7, 79, 127
1, 215421, Note_off_c, 7, 79, 127
1, 215422, Note_on_c, 10, 81, 127
1, 215549, Note_off_c, 10, 81, 127
1, 215549, Note_off_c, 1, 49, 127
1, 215550, Note_on_c, 2, 50, 127
1, 215550, Note_on_c, 12, 83, 127
1, 215677, Note_off_c, 12, 83, 127
1, 215678, Note_on_c, 1, 85, 127
1, 215710, Note_off_c, 2, 50, 127
1, 215805, Note_off_c, 1, 85, 127
1, 215806, Note_on_c, 4, 52, 127
1, 215806, Note_on_c, 2, 86, 127
1, 215918, Note_on_c, 1, 85, 127
1, 215919, Note_off_c, 2, 86, 127
1, 215966, Note_off_c, 4, 52, 127
1, 215981, Note_off_c, 1, 85, 127
1, 215990, Note_on_c, 12, 83, 127
1, 216053, Note_off_c, 12, 83, 127
1, 216062, Note_on_c, 6, 54, 127
1, 216062, Note_on_c, 10, 81, 127
1, 216189, Note_off_c, 10, 81, 127
1, 216190, Note_on_c, 7, 79, 127
1, 216222, Note_off_c, 6, 54, 127
1, 216317, Note_off_c, 7, 79, 127
1, 216318, Note_on_c, 7, 55, 127
1, 216318, Note_on_c, 6, 78, 127
1, 216478, Note_off_c, 7, 55, 127
1, 216573, Note_off_c, 6, 78, 127
1, 216574, Note_on_c, 10, 57, 127
1, 216574, Note_on_c, 4, 76, 127
1, 216649, Note_on_c, 2, 74, 127
1, 216654, Note_off_c, 4, 76, 127
1, 216728, Note_on_c, 4, 76, 127
1, 216732, Note_off_c, 2, 74, 127
1, 216734, Note_off_c, 10, 57, 127
1, 216830, Note_on_c, 12, 59, 127
1, 216830, Note_on_c, 2, 74, 127
1, 216837, Note_off_c, 4, 76, 127
1, 216957, Note_off_c, 2, 74, 127
1, 216958, Note_on_c, 10, 69, 127
1, 217085, Note_off_c, 10, 69, 127
1, 217085, Note_off_c, 12, 59, 127
1, 217086, Note_on_c, 4, 52, 127
1, 217086, Note_on_c, 8, 68, 127
1, 217213, Note_off_c, 8, 68, 127
1, 217214, Note_on_c, 12, 71, 127
1, 217246, Note_off_c, 4, 52, 127
1, 217341, Note_off_c, 12, 71, 127
1, 217342, Note_on_c, 8, 56, 127
1, 217342, Note_on_c, 4, 64, 127
1, 217469, Note_off_c, 4, 64, 127
1, 217470, Note_on_c, 2, 74, 127
1, 217502, Note_off_c, 8, 56, 127
1, 217597, Note_off_c, 2, 74, 127
1, 217598, Note_on_c, 10, 57, 127
1, 217598, Note_on_c, 1, 73, 127
1, 217725, Note_off_c, 1, 73, 127
1, 217726, Note_on_c, 10, 69, 127
1, 217853, Note_off_c, 10, 69, 127
1, 217854, Note_on_c, 10, 45, 127
1, 217854, Note_on_c, 4, 64, 127
1, 217981, Note_off_c, 4, 64, 127
1, 217982, Note_on_c, 2, 62, 127
1, 218014, Note_off_c, 10, 45, 127
1, 218105, Note_off_c, 10, 57, 127
1, 218109, Note_off_c, 2, 62, 127
1, 218110, Note_on_c, 7, 55, 127
1, 218110, Note_on_c, 1, 61, 127
1, 218237, Note_off_c, 1, 61, 127
1, 218238, Note_on_c, 2, 62, 127
1, 218270, Note_off_c, 7, 55, 127
1, 218365, Note_off_c, 2, 62, 127
1, 218366, Note_on_c, 6, 54, 127
1, 218366, Note_on_c, 0, 72, 127
1, 218493, Note_off_c, 0, 72, 127
1, 218494, Note_on_c, 10, 69, 127
1, 218526, Note_off_c, 6, 54, 127
1, 218621, Note_off_c, 10, 69, 127
1, 218622, Note_on_c, 2, 50, 127
1, 218622, Note_on_c, 6, 66, 127
1, 218749, Note_off_c, 6, 66, 127
1, 218750, Note_on_c, 2, 62, 127
1, 218782, Note_off_c, 2, 50, 127
1, 218877, Note_off_c, 2, 62, 127
1, 218878, Note_on_c, 6, 54, 127
1, 218878, Note_on_c, 1, 61, 127
1, 219005, Note_off_c, 1, 61, 127
1, 219006, Note_on_c, 2, 62, 127
1, 219038, Note_off_c, 6, 54, 127
1, 219133, Note_off_c, 2, 62, 127
1, 219134, Note_on_c, 7, 55, 127
1, 219134, Note_on_c, 12, 71, 127
1, 219261, Note_off_c, 12, 71, 127
1, 219262, Note_on_c, 10, 69, 127
1, 219389, Note_off_c, 10, 69, 127
1, 219389, Note_off_c, 7, 55, 127
1, 219390, Note_on_c, 12, 47, 127
1, 219390, Note_on_c, 7, 67, 127
1, 219517, Note_off_c, 7, 67, 127
1, 219518, Note_on_c, 2, 62, 127
1, 219550, Note_off_c, 12, 47, 127
1, 219645, Note_off_c, 2, 62, 127
1, 219646, Note_on_c, 4, 52, 127
1, 219646, Note_on_c, 1, 61, 127
1, 219773, Note_off_c, 1, 61, 127
1, 219774, Note_on_c, 2, 62, 127
1, 219806, Note_off_c, 4, 52, 127
1, 219901, Note_off_c, 2, 62, 127
1, 219902, Note_on_c, 6, 54, 127
1, 219902, Note_on_c, 10, 69, 127
1, 220029, Note_off_c, 10, 69, 127
1, 220030, Note_on_c, 7, 67, 127
1, 220157, Note_off_c, 7, 67, 127
1, 220157, Note_off_c, 6, 54, 127
1, 220158, Note_on_c, 10, 45, 127
1, 220158, Note_on_c, 6, 66, 127
1, 220285, Note_off_c, 6, 66, 127
1, 220286, Note_on_c, 2, 62, 127
1, 220318, Note_off_c, 10, 45, 127
1, 220413, Note_off_c, 2, 62, 127
1, 220414, Note_on_c, 2, 50, 127
1, 220414, Note_on_c, 1, 61, 127
1, 220541, Note_off_c, 1, 61, 127
1, 220542, Note_on_c, 2, 62, 127
1, 220574, Note_off_c, 2, 50, 127
1, 220669, Note_off_c, 2, 62, 127
1, 220670, Note_on_c, 4, 52, 127
1, 220670, Note_on_c, 7, 67, 127
1, 220797, Note_off_c, 7, 67, 127
1, 220798, Note_on_c, 6, 66, 127
1, 220925, Note_off_c, 6, 66, 127
1, 220925, Note_off_c, 4, 52, 127
1, 220926, Note_on_c, 7, 43, 127
1, 220926, Note_on_c, 4, 64, 127
1, 221053, Note_off_c, 4, 64, 127
1, 221054, Note_on_c, 2, 62, 127
1, 221086, Note_off_c, 7, 43, 127
1, 221181, Note_off_c, 2, 62, 127
1, 221182, Note_on_c, 12, 47, 127
1, 221182, Note_on_c, 1, 61, 127
1, 221309, Note_off_c, 1, 61, 127
1, 221310, Note_on_c, 12, 59, 127
1, 221342, Note_off_c, 12, 47, 127
1, 221437, Note_off_c, 12, 59, 127
1, 221438, Note_on_c, 1, 49, 127
1, 221438, Note_on_c, 10, 57, 127
1, 221565, Note_off_c, 10, 57, 127
1, 221566, Note_on_c, 1, 61, 127
1, 221693, Note_off_c, 1, 61, 127
1, 221693, Note_off_c, 1, 49, 127
1, 221694, Note_on_c, 10, 57, 127
1, 221694, Note_on_c, 4, 64, 127
1, 221821, Note_off_c, 4, 64, 127
1, 221822, Note_on_c, 7, 67, 127
1, 221854, Note_off_c, 10, 57, 127
1, 221949, Note_off_c, 7, 67, 127
1, 221950, Note_on_c, 7, 55, 127
1, 221950, Note_on_c, 1, 73, 127
1, 222077, Note_off_c, 1, 73, 127
1, 222078, Note_on_c, 4, 76, 127
1, 222110, Note_off_c, 7, 55, 127
1, 222205, Note_off_c, 4, 76, 127
1, 222206, Note_on_c, 6, 54, 127
1, 222206, Note_on_c, 10, 81, 127
1, 222366, Note_off_c, 6, 54, 127
1, 222393, Note_off_c, 10, 81, 127
1, 222462, Note_on_c, 7, 43, 127
1, 222462, Note_on_c, 2, 74, 127
1, 222462, Note_on_c, 6, 66, 127
1, 222622, Note_off_c, 7, 43, 127
1, 222649, Note_off_c, 6, 66, 127
1, 222649, Note_off_c, 2, 74, 127
1, 222718, Note_on_c, 10, 45, 127
1, 222718, Note_on_c, 1, 73, 127
1, 222718, Note_on_c, 4, 64, 127
1, 222878, Note_off_c, 10, 45, 127
1, 222905, Note_off_c, 4, 64, 127
1, 222905, Note_off_c, 1, 73, 127
1, 222974, Note_on_c, 2, 38, 127
1, 222974, Note_on_c, 2, 74, 127
1, 222974, Note_on_c, 6, 66, 127
1, 223357, Note_off_c, 2, 38, 127
1, 223374, Note_on_c, 10, 57, 127
1, 223427, Note_off_c, 6, 66, 127
1, 223427, Note_off_c, 2, 74, 127
1, 223500, Note_off_c, 10, 57, 127
1, 223501, Note_on_c, 12, 59, 127
1, 223628, Note_off_c, 12, 59, 127
1, 223629, Note_on_c, 10, 81, 127
1, 223629, Note_on_c, 1, 61, 127
1, 223756, Note_off_c, 1, 61, 127
1, 223756, Note_off_c, 10, 81, 127
1, 223757, Note_on_c, 6, 78, 127
1, 223757, Note_on_c, 2, 62, 127
1, 223884, Note_off_c, 2, 62, 127
1, 223885, Note_on_c, 10, 57, 127
1, 224012, Note_off_c, 10, 57, 127
1, 224013, Note_on_c, 2, 74, 127
1, 224013, Note_on_c, 6, 54, 127
1, 224050, Note_off_c, 6, 78, 127
1, 224139, Note_off_c, 6, 54, 127
1, 224140, Note_on_c, 10, 57, 127
1, 224199, Note_off_c, 2, 74, 127
1, 224267, Note_off_c, 10, 57, 127
1, 224268, Note_on_c, 1, 73, 127
1, 224268, Note_on_c, 4, 52, 127
1, 224395, Note_off_c, 4, 52, 127
1, 224396, Note_on_c, 7, 55, 127
1, 224455, Note_off_c, 1, 73, 127
1, 224523, Note_off_c, 7, 55, 127
1, 224524, Note_on_c, 2, 74, 127
1, 224524, Note_on_c, 6, 54, 127
1, 224651, Note_off_c, 6, 54, 127
1, 224652, Note_on_c, 10, 57, 127
1, 224779, Note_off_c, 10, 57, 127
1, 224780, Note_on_c, 4, 76, 127
1, 224780, Note_on_c, 7, 55, 127
1, 224817, Note_off_c, 2, 74, 127
1, 224906, Note_off_c, 7, 55, 127
1, 224907, Note_on_c, 12, 59, 127
1, 224966, Note_off_c, 4, 76, 127
1, 225034, Note_off_c, 12, 59, 127
1, 225035, Note_on_c, 6, 78, 127
1, 225035, Note_on_c, 10, 57, 127
1, 225162, Note_off_c, 10, 57, 127
1, 225163, Note_on_c, 0, 60, 127
1, 225222, Note_off_c, 6, 78, 127
1, 225290, Note_off_c, 0, 60, 127
1, 225291, Note_on_c, 7, 79, 127
1, 225291, Note_on_c, 12, 59, 127
1, 225418, Note_off_c, 12, 59, 127
1, 225418, Note_off_c, 7, 79, 127
1, 225419, Note_on_c, 10, 81, 127
1, 225419, Note_on_c, 2, 62, 127
1, 225546, Note_off_c, 2, 62, 127
1, 225546, Note_off_c, 10, 81, 127
1, 225547, Note_on_c, 12, 83, 127
1, 225547, Note_on_c, 0, 60, 127
1, 225610, Note_off_c, 12, 83, 127
1, 225611, Note_on_c, 10, 81, 127
1, 225674, Note_off_c, 10, 81, 127
1, 225674, Note_off_c, 0, 60, 127
1, 225675, Note_on_c, 12, 83, 127
1, 225675, Note_on_c, 4, 64, 127
1, 225738, Note_off_c, 12, 83, 127
1, 225739, Note_on_c, 10, 81, 127
1, 225802, Note_off_c, 10, 81, 127
1, 225802, Note_off_c, 4, 64, 127
1, 225803, Note_on_c, 12, 83, 127
1, 225803, Note_on_c, 2, 62, 127
1, 225866, Note_off_c, 12, 83, 127
1, 225867, Note_on_c, 10, 81, 127
1, 225930, Note_off_c, 10, 81, 127
1, 225930, Note_off_c, 2, 62, 127
1, 225931, Note_on_c, 7, 79, 127
1, 225931, Note_on_c, 6, 66, 127
1, 225994, Note_off_c, 7, 79, 127
1, 225995, Note_on_c, 10, 81, 127
1, 226058, Note_off_c, 10, 81, 127
1, 226058, Note_off_c, 6, 66, 127
1, 226059, Note_on_c, 12, 83, 127
1, 226059, Note_on_c, 7, 67, 127
1, 226186, Note_off_c, 7, 67, 127
1, 226187, Note_on_c, 2, 62, 127
1, 226314, Note_off_c, 2, 62, 127
1, 226315, Note_on_c, 12, 59, 127
1, 226442, Note_off_c, 12, 59, 127
1, 226443, Note_on_c, 2, 62, 127
1, 226566, Note_off_c, 12, 83, 127
1, 226570, Note_off_c, 2, 62, 127
1, 226571, Note_on_c, 12, 71, 127
1, 226571, Note_on_c, 7, 55, 127
1, 226698, Note_off_c, 7, 55, 127
1, 226699, Note_on_c, 12, 59, 127
1, 226758, Note_off_c, 12, 71, 127
1, 226826, Note_off_c, 12, 59, 127
1, 226827, Note_on_c, 4, 76, 127
1, 226827, Note_on_c, 0, 60, 127
1, 226954, Note_off_c, 0, 60, 127
1, 226955, Note_on_c, 12, 59, 127
1, 227082, Note_off_c, 12, 59, 127
1, 227083, Note_on_c, 3, 75, 127
1, 227083, Note_on_c, 10, 57, 127
1, 227120, Note_off_c, 4, 76, 127
1, 227209, Note_off_c, 10, 57, 127
1, 227210, Note_on_c, 12, 59, 127
1, 227269, Note_off_c, 3, 75, 127
1, 227337, Note_off_c, 12, 59, 127
1, 227338, Note_on_c, 4, 76, 127
1, 227338, Note_on_c, 7, 55, 127
1, 227465, Note_off_c, 7, 55, 127
1, 227466, Note_on_c, 12, 59, 127
1, 227525, Note_off_c, 4, 76, 127
1, 227593, Note_off_c, 12, 59, 127
1, 227594, Note_on_c, 10, 81, 127
1, 227594, Note_on_c, 6, 54, 127
1, 227721, Note_off_c, 6, 54, 127
1, 227722, Note_on_c, 10, 57, 127
1, 227849, Note_off_c, 10, 57, 127
1, 227850, Note_on_c, 0, 72, 127
1, 227850, Note_on_c, 4, 52, 127
1, 227901, Note_off_c, 10, 81, 127
1, 227977, Note_off_c, 4, 52, 127
1, 227978, Note_on_c, 10, 57, 127
1, 228037, Note_off_c, 0, 72, 127
1, 228105, Note_off_c, 10, 57, 127
1, 228106, Note_on_c, 12, 71, 127
1, 228106, Note_on_c, 3, 51, 127
1, 228233, Note_off_c, 3, 51, 127
1, 228234, Note_on_c, 10, 57, 127
1, 228293, Note_off_c, 12, 71, 127
1, 228361, Note_off_c, 10, 57, 127
1, 228362, Note_on_c, 7, 79, 127
1, 228362, Note_on_c, 4, 52, 127
1, 228489, Note_off_c, 4, 52, 127
1, 228490, Note_on_c, 7, 55, 127
1, 228617, Note_off_c, 7, 55, 127
1, 228617, Note_off_c, 7, 79, 127
1, 228618, Note_on_c, 10, 81, 127
1, 228618, Note_on_c, 2, 50, 127
1, 228745, Note_off_c, 2, 50, 127
1, 228745, Note_off_c, 10, 81, 127
1, 228746, Note_on_c, 7, 79, 127
1, 228746, Note_on_c, 7, 55, 127
1, 228873, Note_off_c, 7, 55, 127
1, 228873, Note_off_c, 7, 79, 127
1, 228874, Note_on_c, 6, 78, 127
1, 228874, Note_on_c, 0, 48, 127
1, 229001, Note_off_c, 0, 48, 127
1, 229001, Note_off_c, 6, 78, 127
1, 229002, Note_on_c, 4, 76, 127
1, 229002, Note_on_c, 10, 57, 127
1, 229129, Note_off_c, 10, 57, 127
1, 229129, Note_off_c, 4, 76, 127
1, 229130, Note_on_c, 3, 75, 127
1, 229130, Note_on_c, 12, 59, 127
1, 229257, Note_off_c, 12, 59, 127
1, 229258, Note_on_c, 6, 54, 127
1, 229385, Note_off_c, 6, 54, 127
1, 229386, Note_on_c, 12, 71, 127
1, 229386, Note_on_c, 3, 51, 127
1, 229423, Note_off_c, 3, 75, 127
1, 229512, Note_off_c, 3, 51, 127
1, 229513, Note_on_c, 6, 54, 127
1, 229572, Note_off_c, 12, 71, 127
1, 229640, Note_off_c, 6, 54, 127
1, 229641, Note_on_c, 12, 83, 127
1, 229641, Note_on_c, 10, 45, 127
1, 229768, Note_off_c, 10, 45, 127
1, 229769, Note_on_c, 3, 51, 127
1, 229896, Note_off_c, 3, 51, 127
1, 229897, Note_on_c, 7, 43, 127
1, 230024, Note_off_c, 7, 43, 127
1, 230025, Note_on_c, 12, 47, 127
1, 230134, Note_off_c, 12, 83, 127
1, 230151, Note_off_c, 12, 47, 127
1, 230152, Note_on_c, 7, 79, 127
1, 230152, Note_on_c, 4, 52, 127
1, 230279, Note_off_c, 4, 52, 127
1, 230280, Note_on_c, 12, 47, 127
1, 230339, Note_off_c, 7, 79, 127
1, 230407, Note_off_c, 12, 47, 127
1, 230408, Note_on_c, 4, 76, 127
1, 230408, Note_on_c, 7, 55, 127
1, 230535, Note_off_c, 7, 55, 127
1, 230536, Note_on_c, 4, 52, 127
1, 230595, Note_off_c, 4, 76, 127
1, 230663, Note_off_c, 4, 52, 127
1, 230664, Note_on_c, 11, 58, 127
1, 230791, Note_off_c, 11, 58, 127
1, 230792, Note_on_c, 3, 75, 127
1, 230792, Note_on_c, 12, 59, 127
1, 230919, Note_off_c, 12, 59, 127
1, 230919, Note_off_c, 3, 75, 127
1, 230920, Note_on_c, 4, 76, 127
1, 230920, Note_on_c, 12, 47, 127
1, 231047, Note_off_c, 4, 76, 127
1, 231048, Note_on_c, 3, 75, 127
1, 231175, Note_off_c, 3, 75, 127
1, 231176, Note_on_c, 1, 73, 127
1, 231303, Note_off_c, 1, 73, 127
1, 231304, Note_on_c, 12, 71, 127
1, 231431, Note_off_c, 12, 71, 127
1, 231432, Note_on_c, 10, 81, 127
1, 231533, Note_off_c, 12, 47, 127
1, 231560, Note_on_c, 1, 49, 127
1, 231659, Note_off_c, 10, 81, 127
1, 231687, Note_off_c, 1, 49, 127
1, 231688, Note_on_c, 6, 78, 127
1, 231688, Note_on_c, 3, 51, 127
1, 231815, Note_off_c, 3, 51, 127
1, 231816, Note_on_c, 12, 47, 127
1, 231875, Note_off_c, 6, 78, 127
1, 231943, Note_off_c, 12, 47, 127
1, 231944, Note_on_c, 3, 75, 127
1, 231944, Note_on_c, 6, 54, 127
1, 232071, Note_off_c, 6, 54, 127
1, 232072, Note_on_c, 12, 47, 127
1, 232157, Note_off_c, 3, 75, 127
1, 232198, Note_off_c, 12, 47, 127
1, 232199, Note_on_c, 7, 55, 127
1, 232326, Note_off_c, 7, 55, 127
1, 232327, Note_on_c, 1, 73, 127
1, 232327, Note_on_c, 10, 57, 127
1, 232454, Note_off_c, 10, 57, 127
1, 232454, Note_off_c, 1, 73, 127
1, 232455, Note_on_c, 4, 76, 127
1, 232455, Note_on_c, 12, 47, 127
1, 232582, Note_off_c, 4, 76, 127
1, 232583, Note_on_c, 3, 75, 127
1, 232710, Note_off_c, 3, 75, 127
1, 232711, Note_on_c, 1, 73, 127
1, 232838, Note_off_c, 1, 73, 127
1, 232839, Note_on_c, 12, 71, 127
1, 232946, Note_off_c, 12, 71, 127
1, 232967, Note_on_c, 7, 79, 127
1, 233068, Note_off_c, 12, 47, 127
1, 233095, Note_on_c, 1, 49, 127
1, 233222, Note_off_c, 1, 49, 127
1, 233223, Note_on_c, 6, 78, 127
1, 233223, Note_on_c, 3, 51, 127
1, 233274, Note_off_c, 7, 79, 127
1, 233350, Note_off_c, 3, 51, 127
1, 233351, Note_on_c, 4, 52, 127
1, 233410, Note_off_c, 6, 78, 127
1, 233478, Note_off_c, 4, 52, 127
1, 233479, Note_on_c, 4, 76, 127
1, 233479, Note_on_c, 6, 54, 127
1, 233606, Note_off_c, 6, 54, 127
1, 233607, Note_on_c, 7, 55, 127
1, 233666, Note_off_c, 4, 76, 127
1, 233734, Note_off_c, 7, 55, 127
1, 233735, Note_on_c, 0, 84, 127
1, 233735, Note_on_c, 10, 57, 127
1, 233862, Note_off_c, 10, 57, 127
1, 233863, Note_on_c, 12, 59, 127
1, 233990, Note_off_c, 12, 59, 127
1, 233990, Note_off_c, 0, 84, 127
1, 233991, Note_on_c, 12, 83, 127
1, 233991, Note_on_c, 1, 61, 127
1, 234118, Note_off_c, 1, 61, 127
1, 234119, Note_on_c, 3, 63, 127
1, 234178, Note_off_c, 12, 83, 127
1, 234246, Note_off_c, 3, 63, 127
1, 234247, Note_on_c, 10, 81, 127
1, 234247, Note_on_c, 4, 64, 127
1, 234354, Note_off_c, 4, 64, 127
1, 234375, Note_on_c, 3, 63, 127
1, 234482, Note_off_c, 3, 63, 127
1, 234503, Note_on_c, 4, 64, 127
1, 234591, Note_off_c, 10, 81, 127
1, 234631, Note_on_c, 7, 79, 127
1, 234758, Note_off_c, 7, 79, 127
1, 234758, Note_off_c, 4, 64, 127
1, 234759, Note_on_c, 12, 83, 127
1, 234759, Note_on_c, 7, 55, 127
1, 234886, Note_off_c, 12, 83, 127
1, 234887, Note_on_c, 10, 81, 127
1, 234986, Note_off_c, 7, 55, 127
1, 235014, Note_off_c, 10, 81, 127
1, 235015, Note_on_c, 7, 79, 127
1, 235015, Note_on_c, 12, 59, 127
1, 235143, Note_on_c, 6, 78, 127
1, 235144, Note_off_c, 7, 79, 127
1, 235241, Note_off_c, 12, 59, 127
1, 235270, Note_on_c, 4, 76, 127
1, 235270, Note_on_c, 4, 52, 127
1, 235273, Note_off_c, 6, 78, 127
1, 235397, Note_off_c, 4, 52, 127
1, 235398, Note_on_c, 12, 47, 127
1, 235525, Note_off_c, 12, 47, 127
1, 235526, Note_on_c, 7, 43, 127
1, 235653, Note_off_c, 7, 43, 127
1, 235654, Note_on_c, 12, 47, 127
1, 235781, Note_off_c, 12, 47, 127
1, 235782, Note_on_c, 7, 79, 127
1, 235782, Note_on_c, 4, 40, 127
1, 235830, Note_off_c, 4, 76, 127
1, 235909, Note_off_c, 4, 40, 127
1, 235910, Note_on_c, 4, 52, 127
1, 235955, Note_off_c, 7, 79, 127
1, 236036, Note_off_c, 4, 52, 127
1, 236037, Note_on_c, 1, 73, 127
1, 236037, Note_on_c, 10, 45, 127
1, 236164, Note_off_c, 10, 45, 127
1, 236165, Note_on_c, 12, 47, 127
1, 236292, Note_off_c, 12, 47, 127
1, 236293, Note_on_c, 10, 69, 127
1, 236293, Note_on_c, 1, 49, 127
1, 236344, Note_off_c, 1, 73, 127
1, 236420, Note_off_c, 1, 49, 127
1, 236421, Note_on_c, 10, 45, 127
1, 236466, Note_off_c, 10, 69, 127
1, 236547, Note_off_c, 10, 45, 127
1, 236548, Note_on_c, 12, 71, 127
1, 236548, Note_on_c, 2, 50, 127
1, 236675, Note_off_c, 2, 50, 127
1, 236676, Note_on_c, 10, 45, 127
1, 236721, Note_off_c, 12, 71, 127
1, 236802, Note_off_c, 10, 45, 127
1, 236803, Note_on_c, 1, 73, 127
1, 236803, Note_on_c, 4, 52, 127
1, 236930, Note_off_c, 4, 52, 127
1, 236931, Note_on_c, 10, 45, 127
1, 236976, Note_off_c, 1, 73, 127
1, 237057, Note_off_c, 10, 45, 127
1, 237058, Note_on_c, 2, 74, 127
1, 237058, Note_on_c, 6, 54, 127
1, 237185, Note_off_c, 6, 54, 127
1, 237186, Note_on_c, 10, 45, 127
1, 237231, Note_off_c, 2, 74, 127
1, 237312, Note_off_c, 10, 45, 127
1, 237313, Note_on_c, 4, 76, 127
1, 237313, Note_on_c, 7, 55, 127
1, 237440, Note_off_c, 7, 55, 127
1, 237441, Note_on_c, 10, 45, 127
1, 237486, Note_off_c, 4, 76, 127
1, 237567, Note_off_c, 10, 45, 127
1, 237568, Note_on_c, 6, 78, 127
1, 237568, Note_on_c, 2, 50, 127
1, 237695, Note_off_c, 2, 50, 127
1, 237696, Note_on_c, 4, 52, 127
1, 237823, Note_off_c, 4, 52, 127
1, 237824, Note_on_c, 2, 74, 127
1, 237824, Note_on_c, 6, 54, 127
1, 237875, Note_off_c, 6, 78, 127
1, 237951, Note_off_c, 6, 54, 127
1, 237952, Note_on_c, 2, 50, 127
1, 237997, Note_off_c, 2, 74, 127
1, 238078, Note_off_c, 2, 50, 127
1, 238079, Note_on_c, 4, 76, 127
1, 238079, Note_on_c, 7, 55, 127
1, 238206, Note_off_c, 7, 55, 127
1, 238207, Note_on_c, 2, 50, 127
1, 238252, Note_off_c, 4, 76, 127
1, 238333, Note_off_c, 2, 50, 127
1, 238334, Note_on_c, 6, 78, 127
1, 238334, Note_on_c, 10, 57, 127
1, 238461, Note_off_c, 10, 57, 127
1, 238462, Note_on_c, 2, 50, 127
1, 238507, Note_off_c, 6, 78, 127
1, 238588, Note_off_c, 2, 50, 127
1, 238589, Note_on_c, 7, 79, 127
1, 238589, Note_on_c, 12, 59, 127
1, 238716, Note_off_c, 12, 59, 127
1, 238717, Note_on_c, 2, 50, 127
1, 238762, Note_off_c, 7, 79, 127
1, 238843, Note_off_c, 2, 50, 127
1, 238844, Note_on_c, 10, 81, 127
1, 238844, Note_on_c, 0, 60, 127
1, 238971, Note_off_c, 0, 60, 127
1, 238972, Note_on_c, 2, 50, 127
1, 239017, Note_off_c, 10, 81, 127
1, 239098, Note_off_c, 2, 50, 127
1, 239099, Note_on_c, 12, 83, 127
1, 239099, Note_on_c, 7, 55, 127
1, 239226, Note_off_c, 7, 55, 127
1, 239227, Note_on_c, 10, 57, 127
1, 239354, Note_off_c, 10, 57, 127
1, 239355, Note_on_c, 7, 79, 127
1, 239355, Note_on_c, 12, 59, 127
1, 239406, Note_off_c, 12, 83, 127
1, 239482, Note_off_c, 12, 59, 127
1, 239483, Note_on_c, 7, 55, 127
1, 239528, Note_off_c, 7, 79, 127
1, 239609, Note_off_c, 7, 55, 127
1, 239610, Note_on_c, 10, 81, 127
1, 239610, Note_on_c, 0, 60, 127
1, 239737, Note_off_c, 0, 60, 127
1, 239738, Note_on_c, 7, 55, 127
1, 239783, Note_off_c, 10, 81, 127
1, 239864, Note_off_c, 7, 55, 127
1, 239865, Note_on_c, 12, 83, 127
1, 239865, Note_on_c, 2, 62, 127
1, 239992, Note_off_c, 2, 62, 127
1, 239993, Note_on_c, 7, 55, 127
1, 240038, Note_off_c, 12, 83, 127
1, 240119, Note_off_c, 7, 55, 127
1, 240120, Note_on_c, 0, 84, 127
1, 240120, Note_on_c, 4, 64, 127
1, 240247, Note_off_c, 4, 64, 127
1, 240248, Note_on_c, 7, 55, 127
1, 240293, Note_off_c, 0, 84, 127
1, 240374, Note_off_c, 7, 55, 127
1, 240375, Note_on_c, 2, 86, 127
1, 240375, Note_on_c, 5, 65, 127
1, 240502, Note_off_c, 5, 65, 127
1, 240503, Note_on_c, 7, 55, 127
1, 240548, Note_off_c, 2, 86, 127
1, 240629, Note_off_c, 7, 55, 127
1, 240630, Note_on_c, 4, 76, 127
1, 240630, Note_on_c, 0, 60, 127
1, 240757, Note_off_c, 0, 60, 127
1, 240758, Note_on_c, 2, 62, 127
1, 240885, Note_off_c, 2, 62, 127
1, 240886, Note_on_c, 6, 78, 127
1, 240886, Note_on_c, 0, 60, 127
1, 240917, Note_off_c, 4, 76, 127
1, 241013, Note_off_c, 0, 60, 127
1, 241014, Note_on_c, 12, 59, 127
1, 241073, Note_off_c, 6, 78, 127
1, 241141, Note_off_c, 12, 59, 127
1, 241142, Note_on_c, 7, 79, 127
1, 241142, Note_on_c, 10, 57, 127
1, 241269, Note_off_c, 10, 57, 127
1, 241270, Note_on_c, 7, 55, 127
1, 241329, Note_off_c, 7, 79, 127
1, 241397, Note_off_c, 7, 55, 127
1, 241398, Note_on_c, 10, 81, 127
1, 241398, Note_on_c, 6, 54, 127
1, 241525, Note_off_c, 6, 54, 127
1, 241526, Note_on_c, 4, 52, 127
1, 241653, Note_off_c, 4, 52, 127
1, 241654, Note_on_c, 2, 74, 127
1, 241654, Note_on_c, 2, 50, 127
1, 241731, Note_off_c, 10, 81, 127
1, 241780, Note_off_c, 2, 50, 127
1, 241781, Note_on_c, 0, 48, 127
1, 241840, Note_off_c, 2, 74, 127
1, 241908, Note_off_c, 0, 48, 127
1, 241909, Note_on_c, 10, 81, 127
1, 241909, Note_on_c, 12, 47, 127
1, 242036, Note_off_c, 12, 47, 127
1, 242037, Note_on_c, 10, 45, 127
1, 242096, Note_off_c, 10, 81, 127
1, 242164, Note_off_c, 10, 45, 127
1, 242165, Note_on_c, 12, 83, 127
1, 242165, Note_on_c, 7, 43, 127
1, 242292, Note_off_c, 7, 43, 127
1, 242293, Note_on_c, 7, 79, 127
1, 242293, Note_on_c, 12, 47, 127
1, 242298, Note_off_c, 12, 83, 127
1, 242419, Note_off_c, 12, 47, 127
1, 242419, Note_off_c, 7, 79, 127
1, 242420, Note_on_c, 2, 74, 127
1, 242420, Note_on_c, 2, 50, 127
1, 242547, Note_off_c, 2, 50, 127
1, 242547, Note_off_c, 2, 74, 127
1, 242548, Note_on_c, 12, 71, 127
1, 242548, Note_on_c, 7, 55, 127
1, 242675, Note_off_c, 7, 55, 127
1, 242675, Note_off_c, 12, 71, 127
1, 242676, Note_on_c, 2, 74, 127
1, 242676, Note_on_c, 6, 54, 127
1, 242803, Note_off_c, 6, 54, 127
1, 242803, Note_off_c, 2, 74, 127
1, 242804, Note_on_c, 7, 79, 127
1, 242804, Note_on_c, 4, 52, 127
1, 242931, Note_off_c, 4, 52, 127
1, 242931, Note_off_c, 7, 79, 127
1, 242932, Note_on_c, 10, 81, 127
1, 242932, Note_on_c, 3, 51, 127
1, 243059, Note_off_c, 10, 81, 127
1, 243060, Note_on_c, 6, 78, 127
1, 243092, Note_off_c, 3, 51, 127
1, 243187, Note_off_c, 6, 78, 127
1, 243188, Note_on_c, 3, 75, 127
1, 243188, Note_on_c, 12, 47, 127
1, 243315, Note_off_c, 3, 75, 127
1, 243316, Note_on_c, 12, 71, 127
1, 243348, Note_off_c, 12, 47, 127
1, 243443, Note_off_c, 12, 71, 127
1, 243444, Note_on_c, 11, 70, 127
1, 243444, Note_on_c, 3, 51, 127
1, 243571, Note_off_c, 11, 70, 127
1, 243572, Note_on_c, 12, 71, 127
1, 243604, Note_off_c, 3, 51, 127
1, 243699, Note_off_c, 12, 71, 127
1, 243700, Note_on_c, 7, 79, 127
1, 243700, Note_on_c, 4, 40, 127
1, 243827, Note_off_c, 4, 40, 127
1, 243828, Note_on_c, 4, 76, 127
1, 243828, Note_on_c, 7, 43, 127
1, 243833, Note_off_c, 7, 79, 127
1, 243954, Note_off_c, 7, 43, 127
1, 243954, Note_off_c, 4, 76, 127
1, 243955, Note_on_c, 12, 71, 127
1, 243955, Note_on_c, 12, 47, 127
1, 244082, Note_off_c, 12, 47, 127
1, 244082, Note_off_c, 12, 71, 127
1, 244083, Note_on_c, 7, 67, 127
1, 244083, Note_on_c, 4, 52, 127
1, 244210, Note_off_c, 4, 52, 127
1, 244210, Note_off_c, 7, 67, 127
1, 244211, Note_on_c, 12, 71, 127
1, 244211, Note_on_c, 2, 50, 127
1, 244338, Note_off_c, 2, 50, 127
1, 244338, Note_off_c, 12, 71, 127
1, 244339, Note_on_c, 4, 76, 127
1, 244339, Note_on_c, 0, 48, 127
1, 244466, Note_off_c, 0, 48, 127
1, 244466, Note_off_c, 4, 76, 127
1, 244467, Note_on_c, 5, 77, 127
1, 244467, Note_on_c, 12, 47, 127
1, 244594, Note_off_c, 5, 77, 127
1, 244595, Note_on_c, 2, 74, 127
1, 244627, Note_off_c, 12, 47, 127
1, 244722, Note_off_c, 2, 74, 127
1, 244723, Note_on_c, 12, 71, 127
1, 244723, Note_on_c, 7, 43, 127
1, 244850, Note_off_c, 12, 71, 127
1, 244851, Note_on_c, 7, 67, 127
1, 244883, Note_off_c, 7, 43, 127
1, 244978, Note_off_c, 7, 67, 127
1, 244979, Note_on_c, 6, 66, 127
1, 244979, Note_on_c, 12, 47, 127
1, 245106, Note_off_c, 6, 66, 127
1, 245107, Note_on_c, 7, 67, 127
1, 245139, Note_off_c, 12, 47, 127
1, 245234, Note_off_c, 7, 67, 127
1, 245235, Note_on_c, 4, 76, 127
1, 245235, Note_on_c, 0, 36, 127
1, 245362, Note_off_c, 4, 76, 127
1, 245363, Note_on_c, 2, 74, 127
1, 245490, Note_off_c, 2, 74, 127
1, 245490, Note_off_c, 0, 36, 127
1, 245491, Note_on_c, 0, 72, 127
1, 245491, Note_on_c, 7, 43, 127
1, 245618, Note_off_c, 0, 72, 127
1, 245619, Note_on_c, 12, 71, 127
1, 245651, Note_off_c, 7, 43, 127
1, 245746, Note_off_c, 12, 71, 127
1, 245747, Note_on_c, 10, 69, 127
1, 245747, Note_on_c, 0, 48, 127
1, 245874, Note_off_c, 10, 69, 127
1, 245875, Note_on_c, 7, 67, 127
1, 246002, Note_off_c, 7, 67, 127
1, 246003, Note_on_c, 6, 66, 127
1, 246130, Note_off_c, 6, 66, 127
1, 246131, Note_on_c, 10, 69, 127
1, 246258, Note_off_c, 10, 69, 127
1, 246258, Note_off_c, 0, 48, 127
1, 246259, Note_on_c, 0, 72, 127
1, 246259, Note_on_c, 6, 42, 127
1, 246386, Note_off_c, 0, 72, 127
1, 246387, Note_on_c, 2, 74, 127
1, 246419, Note_off_c, 6, 42, 127
1, 246514, Note_off_c, 2, 74, 127
1, 246515, Note_on_c, 6, 78, 127
1, 246515, Note_on_c, 10, 45, 127
1, 246642, Note_off_c, 6, 78, 127
1, 246643, Note_on_c, 10, 81, 127
1, 246675, Note_off_c, 10, 45, 127
1, 246770, Note_off_c, 10, 81, 127
1, 246771, Note_on_c, 2, 86, 127
1, 246771, Note_on_c, 12, 35, 127
1, 246931, Note_off_c, 12, 35, 127
1, 246958, Note_off_c, 2, 86, 127
1, 247049, Note_on_c, 7, 79, 127
1, 247049, Note_on_c, 12, 71, 127
1, 247049, Note_on_c, 0, 36, 127
1, 247209, Note_off_c, 0, 36, 127
1, 247236, Note_off_c, 12, 71, 127
1, 247236, Note_off_c, 7, 79, 127
1, 247346, Note_on_c, 6, 78, 127
1, 247346, Note_on_c, 2, 38, 127
1, 247346, Note_on_c, 10, 69, 127
1, 247506, Note_off_c, 2, 38, 127
1, 247533, Note_off_c, 10, 69, 127
1, 247533, Note_off_c, 6, 78, 127
1, 247702, Note_on_c, 7, 31, 127
1, 247702, Note_on_c, 12, 71, 127
1, 247702, Note_on_c, 7, 79, 127
1, 249502, Note_off_c, 7, 79, 127
1, 249502, Note_off_c, 12, 71, 127
1, 249502, Note_off_c, 7, 31, 127
1, 251620, Note_on_c, 2, 74, 127
1, 251620, Note_on_c, 12, 71, 127
1, 251780, Note_off_c, 12, 71, 127
1, 251780, Note_off_c, 2, 74, 127
1, 251781, Note_on_c, 10, 69, 127
1, 251781, Note_on_c, 0, 72, 127
1, 252057, Note_off_c, 0, 72, 127
1, 252057, Note_off_c, 10, 69, 127
1, 252058, Note_on_c, 12, 71, 127
1, 252058, Note_on_c, 7, 67, 127
1, 252195, Note_off_c, 7, 67, 127
1, 252195, Note_off_c, 12, 71, 127
1, 252196, Note_on_c, 10, 69, 127
1, 252196, Note_on_c, 0, 72, 127
1, 252333, Note_off_c, 0, 72, 127
1, 252333, Note_off_c, 10, 69, 127
1, 252334, Note_on_c, 10, 69, 127
1, 252334, Note_on_c, 0, 72, 127
1, 252610, Note_off_c, 0, 72, 127
1, 252610, Note_off_c, 10, 69, 127
1, 252611, Note_on_c, 12, 71, 127
1, 252611, Note_on_c, 2, 74, 127
1, 252750, Note_on_c, 7, 55, 127
1, 252887, Note_off_c, 7, 55, 127
1, 252887, Note_off_c, 2, 74, 127
1, 252887, Note_off_c, 12, 71, 127
1, 252888, Note_on_c, 2, 74, 127
1, 252888, Note_on_c, 12, 71, 127
1, 252888, Note_on_c, 5, 53, 127
1, 253303, Note_off_c, 5, 53, 127
1, 253304, Note_on_c, 4, 52, 127
1, 253408, Note_off_c, 12, 71, 127
1, 253408, Note_off_c, 2, 74, 127
1, 253441, Note_off_c, 4, 52, 127
1, 253442, Note_on_c, 0, 72, 127
1, 253442, Note_on_c, 4, 76, 127
1, 253442, Note_on_c, 2, 50, 127
1, 253857, Note_off_c, 2, 50, 127
1, 253857, Note_off_c, 4, 76, 127
1, 253857, Note_off_c, 0, 72, 127
1, 253858, Note_on_c, 2, 74, 127
1, 253858, Note_on_c, 5, 77, 127
1, 253858, Note_on_c, 0, 48, 127
1, 253995, Note_off_c, 0, 48, 127
1, 253995, Note_off_c, 5, 77, 127
1, 253995, Note_off_c, 2, 74, 127
1, 253996, Note_on_c, 4, 76, 127
1, 253996, Note_on_c, 0, 72, 127
1, 253996, Note_on_c, 10, 57, 127
1, 254272, Note_off_c, 10, 57, 127
1, 254273, Note_on_c, 8, 56, 127
1, 254410, Note_off_c, 8, 56, 127
1, 254411, Note_on_c, 4, 52, 127
1, 254548, Note_off_c, 4, 52, 127
1, 254548, Note_off_c, 0, 72, 127
1, 254548, Note_off_c, 4, 76, 127
1, 254549, Note_on_c, 2, 74, 127
1, 254549, Note_on_c, 12, 71, 127
1, 254549, Note_on_c, 10, 57, 127
1, 254825, Note_off_c, 12, 71, 127
1, 254825, Note_off_c, 2, 74, 127
1, 254826, Note_on_c, 0, 72, 127
1, 254826, Note_on_c, 4, 76, 127
1, 255102, Note_off_c, 4, 76, 127
1, 255102, Note_off_c, 0, 72, 127
1, 255103, Note_on_c, 12, 71, 127
1, 255103, Note_on_c, 2, 74, 127
1, 255391, Note_off_c, 2, 74, 127
1, 255391, Note_off_c, 12, 71, 127
1, 255392, Note_on_c, 0, 72, 127
1, 255392, Note_on_c, 10, 69, 127
1, 255518, Note_off_c, 10, 57, 127
1, 255519, Note_on_c, 7, 55, 127
1, 255656, Note_off_c, 7, 55, 127
1, 255657, Note_on_c, 6, 54, 127
1, 256042, Note_off_c, 10, 69, 127
1, 256042, Note_off_c, 0, 72, 127
1, 256072, Note_off_c, 6, 54, 127
1, 256073, Note_on_c, 2, 74, 127
1, 256073, Note_on_c, 2, 50, 127
1, 256210, Note_off_c, 2, 50, 127
1, 256210, Note_off_c, 2, 74, 127
1, 256211, Note_on_c, 7, 67, 127
1, 256211, Note_on_c, 12, 71, 127
1, 256211, Note_on_c, 7, 55, 127
1, 256626, Note_off_c, 12, 71, 127
1, 256626, Note_off_c, 7, 67, 127
1, 256627, Note_on_c, 10, 69, 127
1, 256627, Note_on_c, 6, 66, 127
1, 256764, Note_off_c, 6, 66, 127
1, 256764, Note_off_c, 10, 69, 127
1, 256764, Note_off_c, 7, 55, 127
1, 256765, Note_on_c, 7, 67, 127
1, 256765, Note_on_c, 12, 71, 127
1, 256765, Note_on_c, 0, 48, 127
1, 257180, Note_off_c, 12, 71, 127
1, 257180, Note_off_c, 7, 67, 127
1, 257181, Note_on_c, 10, 69, 127
1, 257181, Note_on_c, 0, 72, 127
1, 257318, Note_off_c, 0, 72, 127
1, 257318, Note_off_c, 10, 69, 127
1, 257318, Note_off_c, 0, 48, 127
1, 257319, Note_on_c, 12, 71, 127
1, 257319, Note_on_c, 7, 67, 127
1, 257319, Note_on_c, 2, 50, 127
1, 257614, Note_on_c, 10, 69, 127
1, 257614, Note_on_c, 6, 66, 127
1, 257617, Note_off_c, 7, 67, 127
1, 257617, Note_off_c, 12, 71, 127
1, 257874, Note_on_c, 2, 38, 127
1, 258047, Note_off_c, 6, 66, 127
1, 258047, Note_off_c, 10, 69, 127
1, 258151, Note_on_c, 6, 78, 127
1, 258151, Note_on_c, 10, 69, 127
1, 258423, Note_off_c, 2, 38, 127
1, 258427, Note_off_c, 10, 69, 127
1, 258427, Note_off_c, 6, 78, 127
1, 258427, Note_off_c, 2, 50, 127
1, 258428, Note_on_c, 2, 74, 127
1, 258428, Note_on_c, 6, 66, 127
1, 258843, Note_off_c, 6, 66, 127
1, 258843, Note_off_c, 2, 74, 127
1, 258844, Note_on_c, 4, 76, 127
1, 258844, Note_on_c, 7, 67, 127
1, 258981, Note_off_c, 7, 67, 127
1, 258981, Note_off_c, 4, 76, 127
1, 258982, Note_on_c, 6, 78, 127
1, 258982, Note_on_c, 10, 69, 127
1, 259398, Note_on_c, 2, 62, 127
1, 259535, Note_off_c, 2, 62, 127
1, 259535, Note_off_c, 10, 69, 127
1, 259535, Note_off_c, 6, 78, 127
1, 259536, Note_on_c, 7, 79, 127
1, 259536, Note_on_c, 12, 71, 127
1, 259536, Note_on_c, 0, 60, 127
1, 259951, Note_off_c, 0, 60, 127
1, 259952, Note_on_c, 12, 59, 127
1, 260089, Note_off_c, 12, 59, 127
1, 260089, Note_off_c, 12, 71, 127
1, 260089, Note_off_c, 7, 79, 127
1, 260090, Note_on_c, 0, 72, 127
1, 260090, Note_on_c, 10, 81, 127
1, 260090, Note_on_c, 10, 57, 127
1, 260505, Note_off_c, 10, 57, 127
1, 260505, Note_off_c, 10, 81, 127
1, 260505, Note_off_c, 0, 72, 127
1, 260506, Note_on_c, 2, 74, 127
1, 260506, Note_on_c, 12, 83, 127
1, 260506, Note_on_c, 7, 55, 127
1, 260643, Note_off_c, 7, 55, 127
1, 260643, Note_off_c, 12, 83, 127
1, 260644, Note_on_c, 4, 76, 127
1, 260644, Note_on_c, 0, 60, 127
1, 260852, Note_off_c, 2, 74, 127
1, 261060, Note_on_c, 7, 67, 127
1, 261197, Note_off_c, 7, 67, 127
1, 261197, Note_off_c, 0, 60, 127
1, 261198, Note_on_c, 0, 72, 127
1, 261198, Note_on_c, 10, 57, 127
1, 261614, Note_off_c, 4, 76, 127
1, 261614, Note_on_c, 6, 78, 127
1, 261751, Note_off_c, 6, 78, 127
1, 261751, Note_off_c, 10, 57, 127
1, 261752, Note_on_c, 7, 79, 127
1, 261752, Note_on_c, 4, 64, 127
1, 262168, Note_off_c, 0, 72, 127
1, 262168, Note_on_c, 12, 71, 127
1, 262305, Note_off_c, 12, 71, 127
1, 262305, Note_off_c, 4, 64, 127
1, 262306, Note_on_c, 10, 69, 127
1, 262306, Note_on_c, 0, 60, 127
1, 262615, Note_on_c, 6, 78, 127
1, 262631, Note_off_c, 7, 79, 127
1, 262738, Note_on_c, 4, 76, 127
1, 262751, Note_off_c, 6, 78, 127
1, 262855, Note_off_c, 10, 69, 127
1, 262858, Note_off_c, 4, 76, 127
1, 262859, Note_off_c, 0, 60, 127
1, 262860, Note_on_c, 2, 74, 127
1, 262860, Note_on_c, 12, 71, 127
1, 262860, Note_on_c, 2, 62, 127
1, 263275, Note_off_c, 12, 71, 127
1, 263275, Note_off_c, 2, 74, 127
1, 263276, Note_on_c, 10, 69, 127
1, 263276, Note_on_c, 0, 72, 127
1, 263413, Note_off_c, 0, 72, 127
1, 263413, Note_off_c, 10, 69, 127
1, 263414, Note_on_c, 10, 81, 127
1, 263414, Note_on_c, 7, 67, 127
1, 263829, Note_off_c, 7, 67, 127
1, 263829, Note_off_c, 10, 81, 127
1, 263830, Note_on_c, 0, 72, 127
1, 263830, Note_on_c, 6, 66, 127
1, 263967, Note_off_c, 6, 66, 127
1, 263967, Note_off_c, 0, 72, 127
1, 263967, Note_off_c, 2, 62, 127
1, 263968, Note_on_c, 0, 72, 127
1, 263968, Note_on_c, 6, 66, 127
1, 263968, Note_on_c, 7, 55, 127
1, 264272, Note_on_c, 7, 67, 127
1, 264272, Note_on_c, 12, 71, 127
1, 264273, Note_off_c, 6, 66, 127
1, 264273, Note_off_c, 0, 72, 127
1, 264522, Note_off_c, 7, 55, 127
1, 264523, Note_on_c, 7, 43, 127
1, 264734, Note_off_c, 12, 71, 127
1, 264734, Note_off_c, 7, 67, 127
1, 264938, Note_off_c, 7, 43, 127
1, 264939, Note_on_c, 2, 74, 127
1, 264939, Note_on_c, 7, 55, 127
1, 265076, Note_off_c, 7, 55, 127
1, 265076, Note_off_c, 2, 74, 127
1, 265077, Note_on_c, 7, 79, 127
1, 265077, Note_on_c, 12, 59, 127
1, 265492, Note_off_c, 12, 59, 127
1, 265492, Note_off_c, 7, 79, 127
1, 265493, Note_on_c, 10, 81, 127
1, 265493, Note_on_c, 2, 62, 127
1, 265630, Note_off_c, 2, 62, 127
1, 265630, Note_off_c, 10, 81, 127
1, 265631, Note_on_c, 12, 83, 127
1, 265631, Note_on_c, 7, 67, 127
1, 266047, Note_on_c, 10, 81, 127
1, 266180, Note_off_c, 12, 83, 127
1, 266184, Note_off_c, 10, 81, 127
1, 266184, Note_off_c, 7, 67, 127
1, 266185, Note_on_c, 7, 79, 127
1, 266185, Note_on_c, 12, 83, 127
1, 266185, Note_on_c, 7, 55, 127
1, 266600, Note_off_c, 7, 79, 127
1, 266601, Note_on_c, 6, 78, 127
1, 266738, Note_off_c, 6, 78, 127
1, 266738, Note_off_c, 7, 55, 127
1, 266739, Note_on_c, 4, 76, 127
1, 266739, Note_on_c, 7, 67, 127
1, 267144, Note_off_c, 12, 83, 127
1, 267154, Note_off_c, 4, 76, 127
1, 267155, Note_on_c, 2, 74, 127
1, 267155, Note_on_c, 12, 83, 127
1, 267292, Note_off_c, 12, 83, 127
1, 267292, Note_off_c, 2, 74, 127
1, 267293, Note_on_c, 6, 78, 127
1, 267293, Note_on_c, 1, 73, 127
1, 267708, Note_off_c, 7, 67, 127
1, 267709, Note_on_c, 12, 71, 127
1, 267846, Note_off_c, 12, 71, 127
1, 267846, Note_off_c, 6, 78, 127
1, 267846, Note_on_c, 4, 76, 127
1, 267847, Note_on_c, 10, 69, 127
1, 268260, Note_off_c, 4, 76, 127
1, 268261, Note_off_c, 10, 69, 127
1, 268262, Note_on_c, 4, 76, 127
1, 268262, Note_on_c, 7, 67, 127
1, 268399, Note_off_c, 7, 67, 127
1, 268399, Note_off_c, 4, 76, 127
1, 268400, Note_on_c, 10, 81, 127
1, 268400, Note_on_c, 6, 66, 127
1, 268813, Note_off_c, 1, 73, 127
1, 268814, Note_off_c, 6, 66, 127
1, 268815, Note_on_c, 1, 73, 127
1, 268815, Note_on_c, 4, 64, 127
1, 268952, Note_off_c, 4, 64, 127
1, 268952, Note_off_c, 1, 73, 127
1, 268953, Note_on_c, 12, 71, 127
1, 268953, Note_on_c, 2, 62, 127
1, 269368, Note_off_c, 10, 81, 127
1, 269369, Note_on_c, 12, 83, 127
1, 269506, Note_off_c, 12, 83, 127
1, 269507, Note_on_c, 10, 81, 127
1, 269785, Note_on_c, 8, 80, 127
1, 269794, Note_off_c, 10, 81, 127
1, 269879, Note_on_c, 10, 81, 127
1, 269886, Note_off_c, 8, 80, 127
1, 269922, Note_off_c, 2, 62, 127
1, 269923, Note_on_c, 12, 59, 127
1, 269972, Note_on_c, 8, 80, 127
1, 269979, Note_off_c, 10, 81, 127
1, 270060, Note_off_c, 12, 59, 127
1, 270061, Note_on_c, 4, 64, 127
1, 270457, Note_off_c, 8, 80, 127
1, 270476, Note_off_c, 4, 64, 127
1, 270477, Note_on_c, 10, 81, 127
1, 270477, Note_on_c, 2, 62, 127
1, 270613, Note_off_c, 12, 71, 127
1, 270614, Note_off_c, 2, 62, 127
1, 270614, Note_off_c, 10, 81, 127
1, 270615, Note_on_c, 10, 81, 127
1, 270615, Note_on_c, 1, 61, 127
1, 271031, Note_on_c, 4, 64, 127
1, 271168, Note_off_c, 4, 64, 127
1, 271169, Note_on_c, 10, 69, 127
1, 271308, Note_off_c, 10, 81, 127
1, 271308, Note_on_c, 7, 79, 127
1, 271445, Note_off_c, 7, 79, 127
1, 271446, Note_on_c, 6, 78, 127
1, 271582, Note_off_c, 1, 61, 127
1, 271583, Note_off_c, 6, 78, 127
1, 271584, Note_on_c, 10, 81, 127
1, 271584, Note_on_c, 10, 57, 127
1, 271721, Note_off_c, 10, 57, 127
1, 271721, Note_off_c, 10, 81, 127
1, 271722, Note_on_c, 7, 79, 127
1, 271722, Note_on_c, 12, 59, 127
1, 271859, Note_off_c, 7, 79, 127
1, 271860, Note_on_c, 6, 78, 127
1, 271997, Note_off_c, 6, 78, 127
1, 271998, Note_on_c, 4, 76, 127
1, 272135, Note_off_c, 4, 76, 127
1, 272135, Note_off_c, 12, 59, 127
1, 272136, Note_on_c, 7, 79, 127
1, 272136, Note_on_c, 1, 61, 127
1, 272273, Note_off_c, 1, 61, 127
1, 272273, Note_off_c, 7, 79, 127
1, 272274, Note_on_c, 6, 78, 127
1, 272274, Note_on_c, 2, 62, 127
1, 272689, Note_off_c, 2, 62, 127
1, 272690, Note_on_c, 2, 50, 127
1, 272765, Note_off_c, 6, 78, 127
1, 272826, Note_off_c, 10, 69, 127
1, 272827, Note_off_c, 2, 50, 127
1, 272828, Note_on_c, 12, 71, 127
1, 272828, Note_on_c, 7, 55, 127
1, 273243, Note_off_c, 7, 55, 127
1, 273244, Note_on_c, 2, 62, 127
1, 273244, Note_on_c, 6, 54, 127
1, 273381, Note_off_c, 6, 54, 127
1, 273381, Note_off_c, 2, 62, 127
1, 273382, Note_on_c, 7, 67, 127
1, 273382, Note_on_c, 4, 52, 127
1, 273658, Note_off_c, 12, 71, 127
1, 273659, Note_on_c, 4, 76, 127
1, 273796, Note_off_c, 4, 52, 127
1, 273797, Note_on_c, 2, 50, 127
1, 273934, Note_off_c, 2, 50, 127
1, 273934, Note_off_c, 4, 76, 127
1, 273935, Note_on_c, 10, 69, 127
1, 273935, Note_on_c, 1, 49, 127
1, 274350, Note_off_c, 1, 49, 127
1, 274351, Note_on_c, 10, 45, 127
1, 274488, Note_off_c, 10, 45, 127
1, 274488, Note_off_c, 7, 67, 127
1, 274489, Note_on_c, 6, 66, 127
1, 274489, Note_on_c, 2, 50, 127
1, 274599, Note_off_c, 10, 69, 127
1, 274628, Note_on_c, 10, 69, 127
1, 274765, Note_off_c, 10, 69, 127
1, 274766, Note_on_c, 12, 71, 127
1, 274903, Note_off_c, 12, 71, 127
1, 274903, Note_off_c, 2, 50, 127
1, 274904, Note_on_c, 1, 73, 127
1, 274904, Note_on_c, 1, 49, 127
1, 275037, Note_off_c, 6, 66, 127
1, 275041, Note_off_c, 1, 49, 127
1, 275041, Note_off_c, 1, 73, 127
1, 275042, Note_on_c, 2, 74, 127
1, 275042, Note_on_c, 12, 47, 127
1, 275171, Note_off_c, 2, 74, 127
1, 275172, Note_on_c, 4, 76, 127
1, 275301, Note_off_c, 4, 76, 127
1, 275302, Note_on_c, 6, 78, 127
1, 275400, Note_on_c, 4, 76, 127
1, 275406, Note_off_c, 6, 78, 127
1, 275457, Note_off_c, 12, 47, 127
1, 275458, Note_on_c, 10, 45, 127
1, 275498, Note_on_c, 2, 74, 127
1, 275501, Note_off_c, 4, 76, 127
1, 275589, Note_off_c, 2, 74, 127
1, 275595, Note_off_c, 10, 45, 127
1, 275596, Note_on_c, 12, 83, 127
1, 275596, Note_on_c, 7, 43, 127
1, 275943, Note_off_c, 12, 83, 127
1, 276011, Note_off_c, 7, 43, 127
1, 276012, Note_on_c, 12, 71, 127
1, 276012, Note_on_c, 7, 67, 127
1, 276012, Note_on_c, 4, 40, 127
1, 276149, Note_off_c, 4, 40, 127
1, 276149, Note_off_c, 7, 67, 127
1, 276149, Note_off_c, 12, 71, 127
1, 276150, Note_on_c, 6, 66, 127
1, 276150, Note_on_c, 2, 74, 127
1, 276150, Note_on_c, 10, 45, 127
1, 276704, Note_off_c, 10, 45, 127
1, 276704, Note_off_c, 2, 74, 127
1, 276704, Note_off_c, 6, 66, 127
1, 276705, Note_on_c, 1, 73, 127
1, 276705, Note_on_c, 4, 64, 127
1, 276705, Note_on_c, 10, 33, 127
1, 277120, Note_off_c, 1, 73, 127
1, 277121, Note_on_c, 2, 74, 127
1, 277254, Note_off_c, 4, 64, 127
1, 277258, Note_off_c, 2, 74, 127
1, 277258, Note_off_c, 10, 33, 127
1, 277259, Note_on_c, 6, 66, 127
1, 277259, Note_on_c, 2, 74, 127
1, 277259, Note_on_c, 2, 38, 127
1, 278090, Note_off_c, 2, 74, 127
1, 278090, Note_off_c, 6, 66, 127
1, 278207, Note_on_c, 10, 81, 127
1, 278207, Note_on_c, 6, 78, 127
1, 278328, Note_off_c, 2, 38, 127
1, 278367, Note_off_c, 6, 78, 127
1, 278367, Note_off_c, 10, 81, 127
1, 278368, Note_on_c, 2, 74, 127
1, 278368, Note_on_c, 6, 78, 127
1, 278783, Note_off_c, 6, 78, 127
1, 278783, Note_off_c, 2, 74, 127
1, 278784, Note_on_c, 4, 76, 127
1, 278784, Note_on_c, 7, 79, 127
1, 278921, Note_off_c, 7, 79, 127
1, 278921, Note_off_c, 4, 76, 127
1, 278922, Note_on_c, 10, 81, 127
1, 278922, Note_on_c, 6, 78, 127
1, 279338, Note_on_c, 2, 62, 127
1, 279475, Note_off_c, 2, 62, 127
1, 279475, Note_off_c, 6, 78, 127
1, 279475, Note_off_c, 10, 81, 127
1, 279476, Note_on_c, 6, 78, 127
1, 279476, Note_on_c, 10, 81, 127
1, 279476, Note_on_c, 0, 60, 127
1, 279891, Note_off_c, 0, 60, 127
1, 279892, Note_on_c, 12, 59, 127
1, 280029, Note_off_c, 12, 59, 127
1, 280029, Note_off_c, 10, 81, 127
1, 280029, Note_off_c, 6, 78, 127
1, 280030, Note_on_c, 12, 83, 127
1, 280030, Note_on_c, 7, 79, 127
1, 280030, Note_on_c, 10, 57, 127
1, 280445, Note_off_c, 10, 57, 127
1, 280445, Note_off_c, 7, 79, 127
1, 280445, Note_off_c, 12, 83, 127
1, 280446, Note_on_c, 10, 81, 127
1, 280446, Note_on_c, 0, 84, 127
1, 280446, Note_on_c, 7, 55, 127
1, 280583, Note_off_c, 7, 55, 127
1, 280583, Note_off_c, 0, 84, 127
1, 280583, Note_off_c, 10, 81, 127
1, 280584, Note_on_c, 7, 79, 127
1, 280584, Note_on_c, 12, 83, 127
1, 280584, Note_on_c, 3, 63, 127
1, 280999, Note_off_c, 3, 63, 127
1, 281000, Note_on_c, 12, 59, 127
1, 281114, Note_on_c, 6, 78, 127
1, 281114, Note_on_c, 10, 81, 127
1, 281115, Note_on_c, 4, 64, 127
1, 281125, Note_off_c, 12, 83, 127
1, 281125, Note_off_c, 7, 79, 127
1, 281137, Note_off_c, 12, 59, 127
1, 281360, Note_off_c, 10, 81, 127
1, 281360, Note_off_c, 6, 78, 127
1, 281418, Note_on_c, 12, 83, 127
1, 281418, Note_on_c, 7, 79, 127
1, 281693, Note_off_c, 7, 79, 127
1, 281693, Note_off_c, 12, 83, 127
1, 281694, Note_on_c, 10, 81, 127
1, 281694, Note_on_c, 6, 78, 127
1, 281947, Note_off_c, 4, 64, 127
1, 281969, Note_off_c, 6, 78, 127
1, 281969, Note_off_c, 10, 81, 127
1, 281970, Note_on_c, 4, 76, 127
1, 281970, Note_on_c, 7, 79, 127
1, 281971, Note_on_c, 2, 62, 127
1, 282247, Note_off_c, 2, 62, 127
1, 282248, Note_on_c, 0, 60, 127
1, 282663, Note_off_c, 7, 79, 127
1, 282663, Note_off_c, 4, 76, 127
1, 282664, Note_on_c, 6, 78, 127
1, 282801, Note_off_c, 6, 78, 127
1, 282802, Note_on_c, 10, 81, 127
1, 282802, Note_on_c, 4, 64, 127
1, 283217, Note_off_c, 10, 81, 127
1, 283218, Note_on_c, 7, 79, 127
1, 283355, Note_off_c, 7, 79, 127
1, 283355, Note_off_c, 4, 64, 127
1, 283356, Note_on_c, 6, 78, 127
1, 283356, Note_on_c, 10, 69, 127
1, 283493, Note_off_c, 6, 78, 127
1, 283494, Note_on_c, 7, 79, 127
1, 283631, Note_off_c, 7, 79, 127
1, 283632, Note_on_c, 6, 78, 127
1, 283769, Note_off_c, 6, 78, 127
1, 283770, Note_on_c, 4, 76, 127
1, 283906, Note_off_c, 0, 60, 127
1, 283907, Note_off_c, 4, 76, 127
1, 283907, Note_off_c, 10, 69, 127
1, 283908, Note_on_c, 4, 76, 127
1, 283908, Note_on_c, 12, 59, 127
1, 283908, Note_on_c, 12, 71, 127
1, 284203, Note_on_c, 3, 75, 127
1, 284206, Note_off_c, 4, 76, 127
1, 284462, Note_off_c, 12, 71, 127
1, 284463, Note_on_c, 12, 47, 127
1, 284665, Note_off_c, 3, 75, 127
1, 284740, Note_on_c, 3, 75, 127
1, 284740, Note_on_c, 6, 78, 127
1, 285012, Note_off_c, 12, 47, 127
1, 285016, Note_off_c, 6, 78, 127
1, 285016, Note_off_c, 3, 75, 127
1, 285016, Note_off_c, 12, 59, 127
1, 285017, Note_on_c, 4, 76, 127
1, 285017, Note_on_c, 12, 71, 127
1, 285099, Note_on_c, 3, 75, 127
1, 285108, Note_off_c, 4, 76, 127
1, 285181, Note_on_c, 4, 76, 127
1, 285190, Note_off_c, 3, 75, 127
1, 285263, Note_on_c, 3, 75, 127
1, 285272, Note_off_c, 4, 76, 127
1, 285418, Note_off_c, 3, 75, 127
1, 285420, Note_off_c, 12, 71, 127
1, 285431, Note_on_c, 1, 73, 127
1, 285431, Note_on_c, 4, 76, 127
1, 285568, Note_off_c, 4, 76, 127
1, 285568, Note_off_c, 1, 73, 127
1, 285569, Note_on_c, 3, 75, 127
1, 285569, Note_on_c, 6, 78, 127
1, 285985, Note_on_c, 12, 71, 127
1, 286122, Note_off_c, 12, 71, 127
1, 286122, Note_off_c, 6, 78, 127
1, 286122, Note_off_c, 3, 75, 127
1, 286123, Note_on_c, 6, 78, 127
1, 286123, Note_on_c, 3, 75, 127
1, 286123, Note_on_c, 10, 69, 127
1, 286538, Note_off_c, 10, 69, 127
1, 286539, Note_on_c, 7, 67, 127
1, 286676, Note_off_c, 7, 67, 127
1, 286676, Note_off_c, 3, 75, 127
1, 286676, Note_off_c, 6, 78, 127
1, 286677, Note_on_c, 7, 79, 127
1, 286677, Note_on_c, 4, 76, 127
1, 286677, Note_on_c, 6, 66, 127
1, 287092, Note_off_c, 6, 66, 127
1, 287092, Note_off_c, 4, 76, 127
1, 287092, Note_off_c, 7, 79, 127
1, 287093, Note_on_c, 6, 78, 127
1, 287093, Note_on_c, 10, 81, 127
1, 287093, Note_on_c, 4, 64, 127
1, 287230, Note_off_c, 4, 64, 127
1, 287230, Note_off_c, 10, 81, 127
1, 287230, Note_off_c, 6, 78, 127
1, 287231, Note_on_c, 4, 76, 127
1, 287231, Note_on_c, 7, 79, 127
1, 287231, Note_on_c, 12, 71, 127
1, 287526, Note_on_c, 6, 78, 127
1, 287526, Note_on_c, 3, 75, 127
1, 287529, Note_off_c, 7, 79, 127
1, 287529, Note_off_c, 4, 76, 127
1, 287786, Note_on_c, 12, 59, 127
1, 287931, Note_off_c, 3, 75, 127
1, 287931, Note_off_c, 6, 78, 127
1, 288064, Note_on_c, 3, 75, 127
1, 288064, Note_on_c, 6, 78, 127
1, 288336, Note_off_c, 12, 59, 127
1, 288340, Note_off_c, 6, 78, 127
1, 288340, Note_off_c, 3, 75, 127
1, 288340, Note_off_c, 12, 71, 127
1, 288341, Note_on_c, 12, 71, 127
1, 288341, Note_on_c, 8, 80, 127
1, 288756, Note_off_c, 8, 80, 127
1, 288756, Note_off_c, 12, 71, 127
1, 288757, Note_on_c, 10, 81, 127
1, 288757, Note_on_c, 0, 72, 127
1, 288894, Note_off_c, 0, 72, 127
1, 288894, Note_off_c, 10, 81, 127
1, 288895, Note_on_c, 12, 83, 127
1, 288895, Note_on_c, 2, 74, 127
1, 289310, Note_off_c, 12, 83, 127
1, 289311, Note_on_c, 0, 84, 127
1, 289311, Note_on_c, 5, 65, 127
1, 289448, Note_off_c, 5, 65, 127
1, 289448, Note_off_c, 0, 84, 127
1, 289449, Note_on_c, 8, 80, 127
1, 289449, Note_on_c, 4, 64, 127
1, 289855, Note_off_c, 2, 74, 127
1, 289864, Note_off_c, 4, 64, 127
1, 289865, Note_on_c, 5, 77, 127
1, 289865, Note_on_c, 2, 62, 127
1, 290002, Note_off_c, 2, 62, 127
1, 290002, Note_off_c, 5, 77, 127
1, 290003, Note_on_c, 4, 76, 127
1, 290003, Note_on_c, 0, 60, 127
1, 290409, Note_off_c, 8, 80, 127
1, 290418, Note_off_c, 0, 60, 127
1, 290418, Note_off_c, 4, 76, 127
1, 290419, Note_on_c, 2, 74, 127
1, 290419, Note_on_c, 8, 80, 127
1, 290419, Note_on_c, 12, 59, 127
1, 290556, Note_off_c, 12, 59, 127
1, 290556, Note_off_c, 8, 80, 127
1, 290556, Note_off_c, 2, 74, 127
1, 290557, Note_on_c, 10, 81, 127
1, 290557, Note_on_c, 4, 76, 127
1, 290557, Note_on_c, 0, 60, 127
1, 291111, Note_off_c, 0, 60, 127
1, 291112, Note_on_c, 0, 48, 127
1, 291388, Note_off_c, 10, 81, 127
1, 291527, Note_off_c, 4, 76, 127
1, 291528, Note_on_c, 10, 81, 127
1, 291665, Note_off_c, 10, 81, 127
1, 291665, Note_off_c, 0, 48, 127
1, 291666, Note_on_c, 4, 76, 127
1, 291666, Note_on_c, 0, 60, 127
1, 292081, Note_off_c, 4, 76, 127
1, 292082, Note_on_c, 6, 78, 127
1, 292219, Note_off_c, 6, 78, 127
1, 292219, Note_off_c, 0, 60, 127
1, 292220, Note_on_c, 7, 79, 127
1, 292220, Note_on_c, 1, 61, 127
1, 292357, Note_off_c, 7, 79, 127
1, 292358, Note_on_c, 6, 78, 127
1, 292495, Note_off_c, 6, 78, 127
1, 292496, Note_on_c, 4, 76, 127
1, 292633, Note_off_c, 4, 76, 127
1, 292634, Note_on_c, 7, 79, 127
1, 292771, Note_off_c, 7, 79, 127
1, 292771, Note_off_c, 1, 61, 127
1, 292772, Note_on_c, 6, 78, 127
1, 292772, Note_on_c, 2, 62, 127
1, 293188, Note_on_c, 2, 74, 127
1, 293325, Note_off_c, 2, 74, 127
1, 293325, Note_off_c, 2, 62, 127
1, 293326, Note_on_c, 10, 69, 127
1, 293326, Note_on_c, 2, 50, 127
1, 293741, Note_off_c, 10, 69, 127
1, 293742, Note_on_c, 12, 71, 127
1, 293879, Note_off_c, 12, 71, 127
1, 293879, Note_off_c, 2, 50, 127
1, 293880, Note_on_c, 0, 72, 127
1, 293880, Note_on_c, 2, 62, 127
1, 294017, Note_off_c, 0, 72, 127
1, 294018, Note_on_c, 12, 71, 127
1, 294155, Note_off_c, 12, 71, 127
1, 294156, Note_on_c, 10, 69, 127
1, 294293, Note_off_c, 10, 69, 127
1, 294294, Note_on_c, 0, 72, 127
1, 294430, Note_off_c, 6, 78, 127
1, 294431, Note_off_c, 0, 72, 127
1, 294431, Note_off_c, 2, 62, 127
1, 294432, Note_on_c, 12, 71, 127
1, 294432, Note_on_c, 3, 63, 127
1, 294569, Note_off_c, 3, 63, 127
1, 294570, Note_on_c, 6, 66, 127
1, 294707, Note_off_c, 6, 66, 127
1, 294708, Note_on_c, 7, 67, 127
1, 294845, Note_off_c, 7, 67, 127
1, 294846, Note_on_c, 3, 75, 127
1, 294846, Note_on_c, 10, 69, 127
1, 294983, Note_off_c, 10, 69, 127
1, 294983, Note_off_c, 3, 75, 127
1, 294984, Note_on_c, 4, 76, 127
1, 294984, Note_on_c, 7, 67, 127
1, 295121, Note_off_c, 7, 67, 127
1, 295122, Note_on_c, 6, 66, 127
1, 295259, Note_off_c, 6, 66, 127
1, 295260, Note_on_c, 4, 64, 127
1, 295397, Note_off_c, 4, 64, 127
1, 295397, Note_off_c, 4, 76, 127
1, 295398, Note_on_c, 10, 81, 127
1, 295398, Note_on_c, 3, 63, 127
1, 295535, Note_off_c, 3, 63, 127
1, 295535, Note_off_c, 10, 81, 127
1, 295536, Note_on_c, 7, 79, 127
1, 295536, Note_on_c, 4, 64, 127
1, 295944, Note_off_c, 12, 71, 127
1, 295951, Note_off_c, 4, 64, 127
1, 295951, Note_off_c, 7, 79, 127
1, 295967, Note_on_c, 6, 78, 127
1, 295967, Note_on_c, 10, 69, 127
1, 295967, Note_on_c, 10, 57, 127
1, 296091, Note_off_c, 10, 57, 127
1, 296091, Note_off_c, 10, 69, 127
1, 296091, Note_off_c, 6, 78, 127
1, 296091, Note_on_c, 7, 67, 127
1, 296091, Note_on_c, 4, 76, 127
1, 296091, Note_on_c, 12, 59, 127
1, 296645, Note_off_c, 12, 59, 127
1, 296645, Note_off_c, 4, 76, 127
1, 296645, Note_off_c, 7, 67, 127
1, 296646, Note_on_c, 3, 75, 127
1, 296646, Note_on_c, 6, 66, 127
1, 296646, Note_on_c, 12, 47, 127
1, 297061, Note_off_c, 3, 75, 127
1, 297062, Note_on_c, 4, 76, 127
1, 297195, Note_off_c, 6, 66, 127
1, 297199, Note_off_c, 4, 76, 127
1, 297199, Note_off_c, 12, 47, 127
1, 297200, Note_on_c, 7, 67, 127
1, 297200, Note_on_c, 4, 76, 127
1, 297200, Note_on_c, 4, 52, 127
1, 297749, Note_off_c, 7, 67, 127
1, 297755, Note_on_c, 4, 40, 127
1, 297892, Note_off_c, 4, 76, 127
1, 297893, Note_on_c, 7, 79, 127
1, 298030, Note_off_c, 7, 79, 127
1, 298031, Note_on_c, 6, 78, 127
1, 298168, Note_off_c, 6, 78, 127
1, 298169, Note_on_c, 10, 81, 127
1, 298302, Note_off_c, 4, 40, 127
1, 298306, Note_off_c, 10, 81, 127
1, 298306, Note_off_c, 4, 52, 127
1, 298307, Note_on_c, 7, 79, 127
1, 298444, Note_off_c, 7, 79, 127
1, 298445, Note_on_c, 6, 78, 127
1, 298582, Note_off_c, 6, 78, 127
1, 298583, Note_on_c, 4, 76, 127
1, 298720, Note_off_c, 4, 76, 127
1, 298721, Note_on_c, 2, 74, 127
1, 298858, Note_off_c, 2, 74, 127
1, 298859, Note_on_c, 0, 72, 127
1, 299135, Note_off_c, 0, 72, 127
1, 299136, Note_on_c, 12, 71, 127
1, 299136, Note_on_c, 5, 65, 127
1, 299412, Note_off_c, 5, 65, 127
1, 299413, Note_on_c, 4, 64, 127
1, 299482, Note_off_c, 12, 71, 127
1, 299551, Note_on_c, 2, 74, 127
1, 299688, Note_off_c, 2, 74, 127
1, 299688, Note_off_c, 4, 64, 127
1, 299689, Note_on_c, 0, 72, 127
1, 299689, Note_on_c, 2, 62, 127
1, 299689, Note_on_c, 5, 65, 127
1, 299826, Note_off_c, 0, 72, 127
1, 299827, Note_on_c, 12, 71, 127
1, 299964, Note_off_c, 12, 71, 127
1, 299964, Note_off_c, 5, 65, 127
1, 299964, Note_off_c, 2, 62, 127
1, 299965, Note_on_c, 10, 81, 127
1, 299965, Note_on_c, 0, 60, 127
1, 299965, Note_on_c, 4, 64, 127
1, 300241, Note_off_c, 4, 64, 127
1, 300241, Note_off_c, 0, 60, 127
1, 300242, Note_on_c, 12, 59, 127
1, 300242, Note_on_c, 2, 62, 127
1, 300355, Note_off_c, 10, 81, 127
1, 300381, Note_on_c, 7, 79, 127
1, 300518, Note_off_c, 7, 79, 127
1, 300518, Note_off_c, 2, 62, 127
1, 300518, Note_off_c, 12, 59, 127
1, 300519, Note_on_c, 5, 77, 127
1, 300519, Note_on_c, 0, 60, 127
1, 300794, Note_on_c, 4, 76, 127
1, 300795, Note_off_c, 0, 60, 127
1, 300795, Note_off_c, 5, 77, 127
1, 300796, Note_on_c, 12, 59, 127
1, 301071, Note_off_c, 12, 59, 127
1, 301074, Note_on_c, 0, 60, 127
1, 301155, Note_off_c, 4, 76, 127
1, 301213, Note_on_c, 7, 79, 127
1, 301350, Note_off_c, 7, 79, 127
1, 301350, Note_off_c, 0, 60, 127
1, 301351, Note_on_c, 6, 78, 127
1, 301351, Note_on_c, 2, 62, 127
1, 301488, Note_off_c, 6, 78, 127
1, 301489, Note_on_c, 4, 76, 127
1, 301626, Note_off_c, 4, 76, 127
1, 301626, Note_off_c, 2, 62, 127
1, 301627, Note_on_c, 0, 84, 127
1, 301627, Note_on_c, 10, 57, 127
1, 301627, Note_on_c, 4, 64, 127
1, 301903, Note_off_c, 4, 64, 127
1, 301904, Note_on_c, 6, 66, 127
1, 302041, Note_off_c, 0, 84, 127
1, 302042, Note_on_c, 10, 81, 127
1, 302175, Note_off_c, 10, 57, 127
1, 302179, Note_off_c, 10, 81, 127
1, 302179, Note_off_c, 6, 66, 127
1, 302180, Note_on_c, 12, 83, 127
1, 302180, Note_on_c, 7, 55, 127
1, 302180, Note_on_c, 7, 67, 127
1, 302456, Note_off_c, 12, 83, 127
1, 302457, Note_on_c, 10, 81, 127
1, 302548, Note_off_c, 10, 81, 127
1, 302549, Note_on_c, 7, 79, 127
1, 302640, Note_off_c, 7, 79, 127
1, 302641, Note_on_c, 6, 78, 127
1, 302732, Note_off_c, 6, 78, 127
1, 302732, Note_off_c, 7, 55, 127
1, 302733, Note_on_c, 4, 76, 127
1, 302733, Note_on_c, 0, 60, 127
1, 303138, Note_off_c, 7, 67, 127
1, 303148, Note_off_c, 4, 76, 127
1, 303149, Note_on_c, 4, 76, 127
1, 303149, Note_on_c, 7, 67, 127
1, 303282, Note_off_c, 0, 60, 127
1, 303286, Note_off_c, 7, 67, 127
1, 303286, Note_off_c, 4, 76, 127
1, 303287, Note_on_c, 6, 78, 127
1, 303287, Note_on_c, 10, 69, 127
1, 303287, Note_on_c, 1, 61, 127
1, 303702, Note_off_c, 10, 69, 127
1, 303702, Note_off_c, 6, 78, 127
1, 303703, Note_on_c, 7, 79, 127
1, 303703, Note_on_c, 12, 71, 127
1, 303836, Note_off_c, 1, 61, 127
1, 303840, Note_off_c, 12, 71, 127
1, 303840, Note_off_c, 7, 79, 127
1, 303841, Note_on_c, 6, 78, 127
1, 303841, Note_on_c, 2, 62, 127
1, 303841, Note_on_c, 10, 69, 127
1, 303978, Note_off_c, 6, 78, 127
1, 303979, Note_on_c, 7, 79, 127
1, 304116, Note_off_c, 7, 79, 127
1, 304117, Note_on_c, 10, 81, 127
1, 304254, Note_off_c, 10, 81, 127
1, 304255, Note_on_c, 6, 78, 127
1, 304392, Note_off_c, 6, 78, 127
1, 304392, Note_off_c, 10, 69, 127
1, 304393, Note_on_c, 2, 74, 127
1, 304393, Note_on_c, 2, 50, 127
1, 304798, Note_off_c, 2, 50, 127
1, 304805, Note_off_c, 2, 62, 127
1, 304809, Note_on_c, 6, 66, 127
1, 304809, Note_on_c, 10, 69, 127
1, 304946, Note_off_c, 10, 69, 127
1, 304946, Note_off_c, 6, 66, 127
1, 304947, Note_on_c, 2, 62, 127
1, 304947, Note_on_c, 6, 66, 127
1, 305362, Note_off_c, 6, 66, 127
1, 305362, Note_off_c, 2, 62, 127
1, 305363, Note_on_c, 7, 67, 127
1, 305363, Note_on_c, 4, 64, 127
1, 305500, Note_off_c, 4, 64, 127
1, 305500, Note_off_c, 7, 67, 127
1, 305501, Note_on_c, 6, 66, 127
1, 305501, Note_on_c, 10, 69, 127
1, 305917, Note_on_c, 2, 50, 127
1, 306054, Note_off_c, 2, 50, 127
1, 306054, Note_off_c, 10, 69, 127
1, 306054, Note_off_c, 6, 66, 127
1, 306055, Note_on_c, 6, 66, 127
1, 306055, Note_on_c, 10, 69, 127
1, 306055, Note_on_c, 0, 48, 127
1, 306470, Note_off_c, 0, 48, 127
1, 306471, Note_on_c, 12, 47, 127
1, 306608, Note_off_c, 12, 47, 127
1, 306608, Note_off_c, 10, 69, 127
1, 306608, Note_off_c, 6, 66, 127
1, 306609, Note_on_c, 12, 71, 127
1, 306609, Note_on_c, 7, 67, 127
1, 306609, Note_on_c, 10, 45, 127
1, 307024, Note_off_c, 10, 45, 127
1, 307024, Note_off_c, 7, 67, 127
1, 307024, Note_off_c, 12, 71, 127
1, 307025, Note_on_c, 10, 69, 127
1, 307025, Note_on_c, 0, 72, 127
1, 307025, Note_on_c, 7, 43, 127
1, 307162, Note_off_c, 7, 43, 127
1, 307162, Note_off_c, 0, 72, 127
1, 307162, Note_off_c, 10, 69, 127
1, 307163, Note_on_c, 7, 67, 127
1, 307163, Note_on_c, 12, 71, 127
1, 307163, Note_on_c, 2, 50, 127
1, 307458, Note_on_c, 10, 69, 127
1, 307458, Note_on_c, 6, 66, 127
1, 307461, Note_off_c, 12, 71, 127
1, 307461, Note_off_c, 7, 67, 127
1, 307718, Note_on_c, 2, 38, 127
1, 307861, Note_off_c, 2, 74, 127
1, 307920, Note_off_c, 6, 66, 127
1, 307920, Note_off_c, 10, 69, 127
1, 308111, Note_on_c, 6, 78, 127
1, 308111, Note_on_c, 10, 69, 127
1, 308267, Note_off_c, 2, 38, 127
1, 308271, Note_off_c, 10, 69, 127
1, 308271, Note_off_c, 6, 78, 127
1, 308271, Note_off_c, 2, 50, 127
1, 308272, Note_on_c, 6, 66, 127
1, 308272, Note_on_c, 2, 74, 127
1, 308687, Note_off_c, 2, 74, 127
1, 308687, Note_off_c, 6, 66, 127
1, 308688, Note_on_c, 4, 76, 127
1, 308688, Note_on_c, 7, 67, 127
1, 308825, Note_off_c, 7, 67, 127
1, 308825, Note_off_c, 4, 76, 127
1, 308826, Note_on_c, 6, 78, 127
1, 308826, Note_on_c, 10, 69, 127
1, 309242, Note_on_c, 4, 64, 127
1, 309379, Note_off_c, 4, 64, 127
1, 309379, Note_off_c, 10, 69, 127
1, 309379, Note_off_c, 6, 78, 127
1, 309380, Note_on_c, 12, 71, 127
1, 309380, Note_on_c, 10, 81, 127
1, 309380, Note_on_c, 2, 62, 127
1, 309656, Note_off_c, 10, 81, 127
1, 309657, Note_on_c, 8, 80, 127
1, 309794, Note_off_c, 2, 62, 127
1, 309795, Note_on_c, 0, 60, 127
1, 309932, Note_off_c, 0, 60, 127
1, 309933, Note_on_c, 12, 59, 127
1, 310209, Note_off_c, 8, 80, 127
1, 310209, Note_off_c, 12, 71, 127
1, 310210, Note_on_c, 0, 72, 127
1, 310210, Note_on_c, 10, 81, 127
1, 310347, Note_off_c, 12, 59, 127
1, 310348, Note_on_c, 10, 57, 127
1, 310485, Note_off_c, 10, 57, 127
1, 310485, Note_off_c, 10, 81, 127
1, 310485, Note_off_c, 0, 72, 127
1, 310486, Note_on_c, 12, 83, 127
1, 310486, Note_on_c, 2, 74, 127
1, 310486, Note_on_c, 8, 56, 127
1, 310623, Note_off_c, 12, 83, 127
1, 310624, Note_on_c, 5, 77, 127
1, 310761, Note_off_c, 5, 77, 127
1, 310762, Note_on_c, 4, 76, 127
1, 310802, Note_off_c, 2, 74, 127
1, 310899, Note_off_c, 4, 76, 127
1, 310900, Note_on_c, 2, 74, 127
1, 311033, Note_off_c, 8, 56, 127
1, 311037, Note_off_c, 2, 74, 127
1, 311038, Note_on_c, 4, 76, 127
1, 311177, Note_on_c, 2, 74, 127
1, 311226, Note_off_c, 4, 76, 127
1, 311314, Note_off_c, 2, 74, 127
1, 311315, Note_on_c, 0, 72, 127
1, 311452, Note_off_c, 0, 72, 127
1, 311453, Note_on_c, 12, 71, 127
1, 311590, Note_off_c, 12, 71, 127
1, 311591, Note_on_c, 10, 69, 127
1, 311728, Note_off_c, 10, 69, 127
1, 311729, Note_on_c, 8, 68, 127
1, 311866, Note_off_c, 8, 68, 127
1, 311867, Note_on_c, 6, 66, 127
1, 312004, Note_off_c, 6, 66, 127
1, 312005, Note_on_c, 4, 64, 127
1, 312132, Note_off_c, 4, 64, 127
1, 312144, Note_on_c, 2, 74, 127
1, 312283, Note_on_c, 0, 72, 127
1, 312303, Note_off_c, 2, 74, 127
1, 312420, Note_off_c, 0, 72, 127
1, 312421, Note_on_c, 12, 71, 127
1, 312558, Note_off_c, 12, 71, 127
1, 312559, Note_on_c, 2, 74, 127
1, 312559, Note_on_c, 4, 52, 127
1, 312696, Note_off_c, 4, 52, 127
1, 312696, Note_off_c, 2, 74, 127
1, 312697, Note_on_c, 0, 72, 127
1, 312697, Note_on_c, 10, 57, 127
1, 313112, Note_off_c, 10, 57, 127
1, 313113, Note_on_c, 4, 64, 127
1, 313113, Note_on_c, 7, 55, 127
1, 313250, Note_off_c, 7, 55, 127
1, 313250, Note_off_c, 4, 64, 127
1, 313251, Note_on_c, 10, 69, 127
1, 313251, Note_on_c, 6, 54, 127
1, 313666, Note_off_c, 6, 54, 127
1, 313666, Note_off_c, 10, 69, 127
1, 313667, Note_on_c, 7, 67, 127
1, 313667, Note_on_c, 4, 52, 127
1, 313804, Note_off_c, 4, 52, 127
1, 313804, Note_off_c, 7, 67, 127
1, 313805, Note_on_c, 6, 66, 127
1, 313805, Note_on_c, 2, 50, 127
1, 313909, Note_off_c, 0, 72, 127
1, 313944, Note_on_c, 12, 71, 127
1, 314081, Note_off_c, 12, 71, 127
1, 314082, Note_on_c, 10, 69, 127
1, 314219, Note_off_c, 10, 69, 127
1, 314219, Note_off_c, 2, 50, 127
1, 314220, Note_on_c, 0, 72, 127
1, 314220, Note_on_c, 7, 43, 127
1, 314353, Note_off_c, 6, 66, 127
1, 314357, Note_off_c, 7, 43, 127
1, 314357, Note_off_c, 0, 72, 127
1, 314358, Note_on_c, 7, 67, 127
1, 314358, Note_on_c, 12, 71, 127
1, 314358, Note_on_c, 7, 55, 127
1, 314734, Note_off_c, 12, 71, 127
1, 314734, Note_off_c, 7, 67, 127
1, 314773, Note_off_c, 7, 55, 127
1, 314774, Note_on_c, 0, 72, 127
1, 314774, Note_on_c, 4, 76, 127
1, 314774, Note_on_c, 6, 66, 127
1, 314911, Note_off_c, 6, 66, 127
1, 314911, Note_off_c, 4, 76, 127
1, 314911, Note_off_c, 0, 72, 127
1, 314912, Note_on_c, 12, 71, 127
1, 314912, Note_on_c, 2, 74, 127
1, 314912, Note_on_c, 7, 67, 127
1, 315328, Note_on_c, 10, 57, 127
1, 315465, Note_off_c, 10, 57, 127
1, 315466, Note_on_c, 12, 59, 127
1, 315807, Note_off_c, 7, 67, 127
1, 315807, Note_off_c, 2, 74, 127
1, 315807, Note_off_c, 12, 71, 127
1, 315881, Note_off_c, 12, 59, 127
1, 315882, Note_on_c, 10, 69, 127
1, 315882, Note_on_c, 0, 72, 127
1, 315882, Note_on_c, 4, 64, 127
1, 315882, Note_on_c, 0, 60, 127
1, 316019, Note_off_c, 0, 60, 127
1, 316019, Note_off_c, 4, 64, 127
1, 316019, Note_off_c, 0, 72, 127
1, 316019, Note_off_c, 10, 69, 127
1, 316020, Note_on_c, 7, 67, 127
1, 316020, Note_on_c, 12, 71, 127
1, 316020, Note_on_c, 2, 62, 127
1, 316574, Note_off_c, 2, 62, 127
1, 316574, Note_off_c, 12, 71, 127
1, 316574, Note_off_c, 7, 67, 127
1, 316575, Note_on_c, 6, 66, 127
1, 316575, Note_on_c, 12, 71, 127
1, 316575, Note_on_c, 0, 60, 127
1, 316575, Note_on_c, 2, 50, 127
1, 316712, Note_off_c, 12, 71, 127
1, 316713, Note_on_c, 10, 69, 127
1, 316781, Note_off_c, 10, 69, 127
1, 316782, Note_on_c, 12, 71, 127
1, 316850, Note_off_c, 12, 71, 127
1, 316851, Note_on_c, 10, 69, 127
1, 317020, Note_off_c, 10, 69, 127
1, 317021, Note_on_c, 7, 67, 127
1, 317150, Note_off_c, 7, 67, 127
1, 317150, Note_off_c, 2, 50, 127
1, 317150, Note_off_c, 0, 60, 127
1, 317150, Note_off_c, 6, 66, 127
1, 317151, Note_on_c, 2, 62, 127
1, 317151, Note_on_c, 12, 59, 127
1, 317151, Note_on_c, 7, 67, 127
1, 317151, Note_on_c, 7, 55, 127
1, 317151, Note_on_c, 7, 43, 127
1, 319051, Note_off_c, 7, 43, 127
1, 319051, Note_off_c, 7, 55, 127
1, 319051, Note_off_c, 7, 67, 127
1, 319051, Note_off_c, 12, 59, 127
1, 319051, Note_off_c, 2, 62, 127
1, 319677, Note_on_c, 2, 62, 127
1, 319821, Note_on_c, 7, 55, 127
1, 319826, Note_off_c, 2, 62, 127
1, 319911, Note_off_c, 7, 55, 127
1, 319965, Note_on_c, 12, 59, 127
1, 320055, Note_off_c, 12, 59, 127
1, 320109, Note_on_c, 7, 67, 127
1, 320244, Note_off_c, 7, 67, 127
1, 320253, Note_on_c, 12, 59, 127
1, 320343, Note_off_c, 12, 59, 127
1, 320397, Note_on_c, 2, 62, 127
1, 320487, Note_off_c, 2, 62, 127
1, 320541, Note_on_c, 12, 71, 127
1, 320685, Note_on_c, 2, 62, 127
1, 320690, Note_off_c, 12, 71, 127
1, 320775, Note_off_c, 2, 62, 127
1, 320829, Note_on_c, 7, 67, 127
1, 320919, Note_off_c, 7, 67, 127
1, 320973, Note_on_c, 2, 74, 127
1, 321108, Note_off_c, 2, 74, 127
1, 321117, Note_on_c, 7, 67, 127
1, 321207, Note_off_c, 7, 67, 127
1, 321261, Note_on_c, 12, 71, 127
1, 321351, Note_off_c, 12, 71, 127
1, 321405, Note_on_c, 7, 79, 127
1, 321549, Note_on_c, 12, 71, 127
1, 321554, Note_off_c, 7, 79, 127
1, 321639, Note_off_c, 12, 71, 127
1, 321693, Note_on_c, 2, 74, 127
1, 321783, Note_off_c, 2, 74, 127
1, 321837, Note_on_c, 12, 83, 127
1, 321972, Note_off_c, 12, 83, 127
1, 321981, Note_on_c, 2, 74, 127
1, 322071, Note_off_c, 2, 74, 127
1, 322125, Note_on_c, 7, 79, 127
1, 322215, Note_off_c, 7, 79, 127
1, 322269, Note_on_c, 7, 79, 127
1, 322269, Note_on_c, 0, 84, 127
1, 322337, Note_on_c, 12, 83, 127
1, 322341, Note_off_c, 0, 84, 127
1, 322405, Note_on_c, 2, 74, 127
1, 322405, Note_on_c, 0, 84, 127
1, 322408, Note_off_c, 12, 83, 127
1, 322472, Note_on_c, 12, 83, 127
1, 322476, Note_off_c, 0, 84, 127
1, 322495, Note_off_c, 2, 74, 127
1, 322541, Note_on_c, 1, 73, 127
1, 322541, Note_on_c, 0, 84, 127
1, 322544, Note_off_c, 12, 83, 127
1, 322608, Note_on_c, 12, 83, 127
1, 322612, Note_off_c, 0, 84, 127
1, 322631, Note_off_c, 1, 73, 127
1, 322677, Note_on_c, 2, 74, 127
1, 322677, Note_on_c, 0, 84, 127
1, 322680, Note_off_c, 12, 83, 127
1, 322744, Note_on_c, 12, 83, 127
1, 322748, Note_off_c, 0, 84, 127
1, 322767, Note_off_c, 2, 74, 127
1, 322813, Note_on_c, 2, 62, 127
1, 322813, Note_on_c, 10, 81, 127
1, 322813, Note_on_c, 6, 78, 127
1, 322816, Note_off_c, 12, 83, 127
1, 322845, Note_off_c, 7, 79, 127
1, 323023, Note_off_c, 10, 81, 127
1, 323023, Note_off_c, 2, 62, 127
1, 323098, Note_off_c, 6, 78, 127
1, 323134, Note_on_c, 12, 83, 127
1, 323278, Note_on_c, 2, 74, 127
1, 323283, Note_off_c, 12, 83, 127
1, 323368, Note_off_c, 2, 74, 127
1, 323422, Note_on_c, 7, 79, 127
1, 323512, Note_off_c, 7, 79, 127
1, 323566, Note_on_c, 4, 76, 127
1, 323701, Note_off_c, 4, 76, 127
1, 323710, Note_on_c, 7, 67, 127
1, 323800, Note_off_c, 7, 67, 127
1, 323854, Note_on_c, 12, 71, 127
1, 323944, Note_off_c, 12, 71, 127
1, 323998, Note_on_c, 10, 81, 127
1, 324142, Note_on_c, 1, 73, 127
1, 324147, Note_off_c, 10, 81, 127
1, 324232, Note_off_c, 1, 73, 127
1, 324286, Note_on_c, 4, 76, 127
1, 324376, Note_off_c, 4, 76, 127
1, 324430, Note_on_c, 2, 74, 127
1, 324565, Note_off_c, 2, 74, 127
1, 324574, Note_on_c, 6, 66, 127
1, 324664, Note_off_c, 6, 66, 127
1, 324718, Note_on_c, 10, 69, 127
1, 324808, Note_off_c, 10, 69, 127
1, 324862, Note_on_c, 7, 79, 127
1, 325006, Note_on_c, 12, 71, 127
1, 325011, Note_off_c, 7, 79, 127
1, 325096, Note_off_c, 12, 71, 127
1, 325150, Note_on_c, 2, 74, 127
1, 325240, Note_off_c, 2, 74, 127
1, 325294, Note_on_c, 1, 73, 127
1, 325429, Note_off_c, 1, 73, 127
1, 325438, Note_on_c, 4, 64, 127
1, 325528, Note_off_c, 4, 64, 127
1, 325582, Note_on_c, 7, 67, 127
1, 325672, Note_off_c, 7, 67, 127
1, 325726, Note_on_c, 6, 78, 127
1, 325870, Note_on_c, 10, 69, 127
1, 325875, Note_off_c, 6, 78, 127
1, 325960, Note_off_c, 10, 69, 127
1, 326014, Note_on_c, 1, 73, 127
1, 326104, Note_off_c, 1, 73, 127
1, 326158, Note_on_c, 12, 71, 127
1, 326293, Note_off_c, 12, 71, 127
1, 326302, Note_on_c, 2, 62, 127
1, 326392, Note_off_c, 2, 62, 127
1, 326446, Note_on_c, 6, 66, 127
1, 326536, Note_off_c, 6, 66, 127
1, 326590, Note_on_c, 4, 76, 127
1, 326734, Note_on_c, 7, 67, 127
1, 326739, Note_off_c, 4, 76, 127
1, 326824, Note_off_c, 7, 67, 127
1, 326878, Note_on_c, 12, 71, 127
1, 326968, Note_off_c, 12, 71, 127
1, 327022, Note_on_c, 10, 69, 127
1, 327157, Note_off_c, 10, 69, 127
1, 327166, Note_on_c, 1, 61, 127
1, 327256, Note_off_c, 1, 61, 127
1, 327310, Note_on_c, 4, 64, 127
1, 327400, Note_off_c, 4, 64, 127
1, 327454, Note_on_c, 2, 74, 127
1, 327598, Note_on_c, 6, 66, 127
1, 327603, Note_off_c, 2, 74, 127
1, 327688, Note_off_c, 6, 66, 127
1, 327742, Note_on_c, 10, 69, 127
1, 327832, Note_off_c, 10, 69, 127
1, 327886, Note_on_c, 7, 67, 127
1, 328021, Note_off_c, 7, 67, 127
1, 328030, Note_on_c, 12, 59, 127
1, 328120, Note_off_c, 12, 59, 127
1, 328174, Note_on_c, 2, 62, 127
1, 328264, Note_off_c, 2, 62, 127
1, 328318, Note_on_c, 7, 55, 127
1, 328595, Note_on_c, 2, 74, 127
1, 328595, Note_on_c, 4, 64, 127
1, 328603, Note_off_c, 7, 55, 127
1, 328859, Note_off_c, 4, 64, 127
1, 328859, Note_off_c, 2, 74, 127
1, 328872, Note_on_c, 1, 73, 127
1, 328872, Note_on_c, 10, 57, 127
1, 328872, Note_on_c, 7, 67, 127
1, 329136, Note_off_c, 7, 67, 127
1, 329136, Note_off_c, 1, 73, 127
1, 329149, Note_on_c, 2, 62, 127
1, 329149, Note_on_c, 7, 67, 127
1, 329149, Note_on_c, 1, 73, 127
1, 329157, Note_off_c, 10, 57, 127
1, 329455, Note_on_c, 6, 66, 127
1, 329455, Note_on_c, 2, 74, 127
1, 329463, Note_off_c, 1, 73, 127
1, 329463, Note_off_c, 7, 67, 127
1, 329785, Note_off_c, 2, 74, 127
1, 329785, Note_off_c, 6, 66, 127
1, 329898, Note_off_c, 2, 62, 127
1, 330046, Note_on_c, 10, 57, 127
1, 330190, Note_on_c, 2, 50, 127
1, 330195, Note_off_c, 10, 57, 127
1, 330280, Note_off_c, 2, 50, 127
1, 330334, Note_on_c, 6, 54, 127
1, 330424, Note_off_c, 6, 54, 127
1, 330478, Note_on_c, 2, 62, 127
1, 330613, Note_off_c, 2, 62, 127
1, 330622, Note_on_c, 6, 54, 127
1, 330712, Note_off_c, 6, 54, 127
1, 330766, Note_on_c, 10, 57, 127
1, 330856, Note_off_c, 10, 57, 127
1, 330910, Note_on_c, 6, 66, 127
1, 331054, Note_on_c, 10, 57, 127
1, 331059, Note_off_c, 6, 66, 127
1, 331144, Note_off_c, 10, 57, 127
1, 331198, Note_on_c, 2, 62, 127
1, 331288, Note_off_c, 2, 62, 127
1, 331342, Note_on_c, 10, 69, 127
1, 331477, Note_off_c, 10, 69, 127
1, 331486, Note_on_c, 2, 62, 127
1, 331576, Note_off_c, 2, 62, 127
1, 331630, Note_on_c, 6, 66, 127
1, 331720, Note_off_c, 6, 66, 127
1, 331774, Note_on_c, 0, 72, 127
1, 331918, Note_on_c, 6, 66, 127
1, 331923, Note_off_c, 0, 72, 127
1, 332008, Note_off_c, 6, 66, 127
1, 332062, Note_on_c, 10, 69, 127
1, 332152, Note_off_c, 10, 69, 127
1, 332206, Note_on_c, 3, 75, 127
1, 332341, Note_off_c, 3, 75, 127
1, 332350, Note_on_c, 10, 69, 127
1, 332440, Note_off_c, 10, 69, 127
1, 332494, Note_on_c, 0, 72, 127
1, 332638, Note_on_c, 3, 63, 127
1, 332638, Note_on_c, 6, 78, 127
1, 332910, Note_on_c, 12, 71, 127
1, 332926, Note_off_c, 0, 72, 127
1, 333000, Note_off_c, 12, 71, 127
1, 333046, Note_on_c, 7, 79, 127
1, 333070, Note_off_c, 6, 78, 127
1, 333114, Note_on_c, 10, 81, 127
1, 333118, Note_off_c, 7, 79, 127
1, 333162, Note_off_c, 10, 81, 127
1, 333182, Note_on_c, 4, 64, 127
1, 333182, Note_on_c, 7, 79, 127
1, 333214, Note_off_c, 3, 63, 127
1, 333392, Note_off_c, 7, 79, 127
1, 333467, Note_off_c, 4, 64, 127
1, 333503, Note_on_c, 12, 59, 127
1, 333647, Note_on_c, 4, 52, 127
1, 333652, Note_off_c, 12, 59, 127
1, 333737, Note_off_c, 4, 52, 127
1, 333791, Note_on_c, 7, 55, 127
1, 333881, Note_off_c, 7, 55, 127
1, 333935, Note_on_c, 4, 64, 127
1, 334070, Note_off_c, 4, 64, 127
1, 334079, Note_on_c, 7, 55, 127
1, 334169, Note_off_c, 7, 55, 127
1, 334223, Note_on_c, 12, 59, 127
1, 334313, Note_off_c, 12, 59, 127
1, 334367, Note_on_c, 7, 67, 127
1, 334511, Note_on_c, 12, 59, 127
1, 334516, Note_off_c, 7, 67, 127
1, 334601, Note_off_c, 12, 59, 127
1, 334655, Note_on_c, 4, 64, 127
1, 334745, Note_off_c, 4, 64, 127
1, 334799, Note_on_c, 12, 71, 127
1, 334934, Note_off_c, 12, 71, 127
1, 334943, Note_on_c, 4, 64, 127
1, 335033, Note_off_c, 4, 64, 127
1, 335087, Note_on_c, 7, 67, 127
1, 335177, Note_off_c, 7, 67, 127
1, 335231, Note_on_c, 2, 74, 127
1, 335375, Note_on_c, 8, 68, 127
1, 335380, Note_off_c, 2, 74, 127
1, 335465, Note_off_c, 8, 68, 127
1, 335519, Note_on_c, 12, 71, 127
1, 335609, Note_off_c, 12, 71, 127
1, 335663, Note_on_c, 5, 77, 127
1, 335798, Note_off_c, 5, 77, 127
1, 335807, Note_on_c, 12, 71, 127
1, 335897, Note_off_c, 12, 71, 127
1, 335951, Note_on_c, 2, 74, 127
1, 336095, Note_on_c, 4, 64, 127
1, 336095, Note_on_c, 8, 80, 127
1, 336231, Note_on_c, 10, 81, 127
1, 336244, Note_off_c, 8, 80, 127
1, 336321, Note_off_c, 10, 81, 127
1, 336359, Note_off_c, 4, 64, 127
1, 336368, Note_on_c, 12, 83, 127
1, 336368, Note_on_c, 8, 68, 127
1, 336497, Note_off_c, 2, 74, 127
1, 336505, Note_on_c, 2, 74, 127
1, 336511, Note_off_c, 12, 83, 127
1, 336633, Note_off_c, 8, 68, 127
1, 336636, Note_on_c, 10, 69, 127
1, 336636, Note_on_c, 10, 57, 127
1, 336636, Note_on_c, 0, 72, 127
1, 336640, Note_off_c, 2, 74, 127
1, 336846, Note_off_c, 0, 72, 127
1, 336846, Note_off_c, 10, 57, 127
1, 336921, Note_off_c, 10, 69, 127
1, 337032, Note_on_c, 6, 78, 127
1, 337176, Note_on_c, 10, 69, 127
1, 337181, Note_off_c, 6, 78, 127
1, 337266, Note_off_c, 10, 69, 127
1, 337320, Note_on_c, 0, 72, 127
1, 337410, Note_off_c, 0, 72, 127
1, 337464, Note_on_c, 12, 71, 127
1, 337599, Note_off_c, 12, 71, 127
1, 337608, Note_on_c, 3, 63, 127
1, 337698, Note_off_c, 3, 63, 127
1, 337752, Note_on_c, 6, 66, 127
1, 337842, Note_off_c, 6, 66, 127
1, 337896, Note_on_c, 7, 79, 127
1, 338040, Note_on_c, 12, 71, 127
1, 338045, Note_off_c, 7, 79, 127
1, 338130, Note_off_c, 12, 71, 127
1, 338184, Note_on_c, 4, 76, 127
1, 338274, Note_off_c, 4, 76, 127
1, 338328, Note_on_c, 11, 70, 127
1, 338463, Note_off_c, 11, 70, 127
1, 338472, Note_on_c, 1, 61, 127
1, 338562, Note_off_c, 1, 61, 127
1, 338616, Note_on_c, 4, 64, 127
1, 338706, Note_off_c, 4, 64, 127
1, 338760, Note_on_c, 6, 78, 127
1, 338904, Note_on_c, 10, 69, 127
1, 338909, Note_off_c, 6, 78, 127
1, 338994, Note_off_c, 10, 69, 127
1, 339048, Note_on_c, 0, 72, 127
1, 339138, Note_off_c, 0, 72, 127
1, 339192, Note_on_c, 12, 71, 127
1, 339327, Note_off_c, 12, 71, 127
1, 339336, Note_on_c, 3, 63, 127
1, 339426, Note_off_c, 3, 63, 127
1, 339480, Note_on_c, 6, 66, 127
1, 339570, Note_off_c, 6, 66, 127
1, 339624, Note_on_c, 10, 81, 127
1, 339768, Note_on_c, 0, 72, 127
1, 339773, Note_off_c, 10, 81, 127
1, 339858, Note_off_c, 0, 72, 127
1, 339912, Note_on_c, 4, 76, 127
1, 340002, Note_off_c, 4, 76, 127
1, 340056, Note_on_c, 3, 75, 127
1, 340191, Note_off_c, 3, 75, 127
1, 340200, Note_on_c, 6, 66, 127
1, 340290, Note_off_c, 6, 66, 127
1, 340344, Note_on_c, 10, 69, 127
1, 340434, Note_off_c, 10, 69, 127
1, 340488, Note_on_c, 7, 79, 127
1, 340632, Note_on_c, 12, 71, 127
1, 340637, Note_off_c, 7, 79, 127
1, 340722, Note_off_c, 12, 71, 127
1, 340776, Note_on_c, 2, 74, 127
1, 340866, Note_off_c, 2, 74, 127
1, 340920, Note_on_c, 0, 72, 127
1, 341055, Note_off_c, 0, 72, 127
1, 341064, Note_on_c, 4, 64, 127
1, 341154, Note_off_c, 4, 64, 127
1, 341208, Note_on_c, 7, 67, 127
1, 341298, Note_off_c, 7, 67, 127
1, 341352, Note_on_c, 6, 78, 127
1, 341496, Note_on_c, 10, 69, 127
1, 341501, Note_off_c, 6, 78, 127
1, 341586, Note_off_c, 10, 69, 127
1, 341640, Note_on_c, 0, 72, 127
1, 341730, Note_off_c, 0, 72, 127
1, 341784, Note_on_c, 12, 71, 127
1, 341919, Note_off_c, 12, 71, 127
1, 341928, Note_on_c, 2, 62, 127
1, 342018, Note_off_c, 2, 62, 127
1, 342072, Note_on_c, 6, 66, 127
1, 342162, Note_off_c, 6, 66, 127
1, 342216, Note_on_c, 4, 76, 127
1, 342360, Note_on_c, 7, 67, 127
1, 342365, Note_off_c, 4, 76, 127
1, 342450, Note_off_c, 7, 67, 127
1, 342504, Note_on_c, 12, 71, 127
1, 342594, Note_off_c, 12, 71, 127
1, 342648, Note_on_c, 10, 69, 127
1, 342783, Note_off_c, 10, 69, 127
1, 342792, Note_on_c, 0, 60, 127
1, 342882, Note_off_c, 0, 60, 127
1, 342936, Note_on_c, 4, 64, 127
1, 343026, Note_off_c, 4, 64, 127
1, 343080, Note_on_c, 3, 75, 127
1, 343224, Note_on_c, 6, 66, 127
1, 343229, Note_off_c, 3, 75, 127
1, 343314, Note_off_c, 6, 66, 127
1, 343368, Note_on_c, 10, 69, 127
1, 343458, Note_off_c, 10, 69, 127
1, 343512, Note_on_c, 3, 63, 127
1, 343647, Note_off_c, 3, 63, 127
1, 343656, Note_on_c, 6, 66, 127
1, 343746, Note_off_c, 6, 66, 127
1, 343800, Note_on_c, 10, 69, 127
1, 343890, Note_off_c, 10, 69, 127
1, 343944, Note_on_c, 0, 72, 127
1, 344088, Note_on_c, 6, 66, 127
1, 344093, Note_off_c, 0, 72, 127
1, 344178, Note_off_c, 6, 66, 127
1, 344232, Note_on_c, 10, 69, 127
1, 344322, Note_off_c, 10, 69, 127
1, 344376, Note_on_c, 3, 75, 127
1, 344511, Note_off_c, 3, 75, 127
1, 344520, Note_on_c, 10, 69, 127
1, 344610, Note_off_c, 10, 69, 127
1, 344664, Note_on_c, 0, 72, 127
1, 344754, Note_off_c, 0, 72, 127
1, 344808, Note_on_c, 6, 78, 127
1, 344952, Note_on_c, 0, 72, 127
1, 344957, Note_off_c, 6, 78, 127
1, 345042, Note_off_c, 0, 72, 127
1, 345096, Note_on_c, 3, 75, 127
1, 345186, Note_off_c, 3, 75, 127
1, 345240, Note_on_c, 10, 81, 127
1, 345375, Note_off_c, 10, 81, 127
1, 345384, Note_on_c, 3, 75, 127
1, 345474, Note_off_c, 3, 75, 127
1, 345528, Note_on_c, 6, 78, 127
1, 345618, Note_off_c, 6, 78, 127
1, 345672, Note_on_c, 7, 79, 127
1, 345672, Note_on_c, 4, 76, 127
1, 345936, Note_off_c, 4, 76, 127
1, 345936, Note_off_c, 7, 79, 127
1, 345949, Note_on_c, 4, 76, 127
1, 345949, Note_on_c, 12, 71, 127
1, 345949, Note_on_c, 7, 55, 127
1, 346213, Note_off_c, 7, 55, 127
1, 346213, Note_off_c, 12, 71, 127
1, 346213, Note_off_c, 4, 76, 127
1, 346226, Note_on_c, 10, 69, 127
1, 346226, Note_on_c, 3, 75, 127
1, 346226, Note_on_c, 12, 59, 127
1, 346490, Note_off_c, 12, 59, 127
1, 346490, Note_off_c, 3, 75, 127
1, 346490, Note_off_c, 10, 69, 127
1, 346503, Note_on_c, 10, 69, 127
1, 346503, Note_on_c, 3, 75, 127
1, 346503, Note_on_c, 4, 64, 127
1, 346778, Note_on_c, 4, 76, 127
1, 346778, Note_on_c, 7, 67, 127
1, 346782, Note_off_c, 3, 75, 127
1, 346782, Note_off_c, 10, 69, 127
1, 346868, Note_off_c, 7, 67, 127
1, 346934, Note_off_c, 4, 64, 127
1, 346969, Note_on_c, 2, 62, 127
1, 347042, Note_off_c, 4, 76, 127
1, 347074, Note_off_c, 2, 62, 127
1, 347124, Note_on_c, 1, 61, 127
1, 347214, Note_off_c, 1, 61, 127
1, 347262, Note_on_c, 12, 59, 127
1, 347352, Note_off_c, 12, 59, 127
1, 347400, Note_on_c, 10, 57, 127
1, 347544, Note_on_c, 4, 64, 127
1, 347549, Note_off_c, 10, 57, 127
1, 347634, Note_off_c, 4, 64, 127
1, 347688, Note_on_c, 1, 61, 127
1, 347778, Note_off_c, 1, 61, 127
1, 347832, Note_on_c, 7, 67, 127
1, 347967, Note_off_c, 7, 67, 127
1, 347976, Note_on_c, 4, 64, 127
1, 348066, Note_off_c, 4, 64, 127
1, 348120, Note_on_c, 1, 61, 127
1, 348210, Note_off_c, 1, 61, 127
1, 348264, Note_on_c, 10, 57, 127
1, 348408, Note_on_c, 6, 66, 127
1, 348413, Note_off_c, 10, 57, 127
1, 348498, Note_off_c, 6, 66, 127
1, 348552, Note_on_c, 2, 62, 127
1, 348642, Note_off_c, 2, 62, 127
1, 348696, Note_on_c, 10, 69, 127
1, 348831, Note_off_c, 10, 69, 127
1, 348840, Note_on_c, 6, 66, 127
1, 348930, Note_off_c, 6, 66, 127
1, 348984, Note_on_c, 2, 62, 127
1, 349074, Note_off_c, 2, 62, 127
1, 349128, Note_on_c, 10, 57, 127
1, 349272, Note_on_c, 4, 64, 127
1, 349277, Note_off_c, 10, 57, 127
1, 349362, Note_off_c, 4, 64, 127
1, 349416, Note_on_c, 1, 61, 127
1, 349506, Note_off_c, 1, 61, 127
1, 349560, Note_on_c, 7, 67, 127
1, 349695, Note_off_c, 7, 67, 127
1, 349704, Note_on_c, 4, 64, 127
1, 349794, Note_off_c, 4, 64, 127
1, 349848, Note_on_c, 1, 61, 127
1, 349938, Note_off_c, 1, 61, 127
1, 349992, Note_on_c, 10, 57, 127
1, 350136, Note_on_c, 6, 66, 127
1, 350141, Note_off_c, 10, 57, 127
1, 350226, Note_off_c, 6, 66, 127
1, 350280, Note_on_c, 2, 62, 127
1, 350370, Note_off_c, 2, 62, 127
1, 350424, Note_on_c, 10, 69, 127
1, 350514, Note_off_c, 10, 69, 127
1, 350568, Note_on_c, 6, 66, 127
1, 350658, Note_off_c, 6, 66, 127
1, 350712, Note_on_c, 2, 62, 127
1, 350802, Note_off_c, 2, 62, 127
1, 350856, Note_on_c, 7, 55, 127
1, 351000, Note_on_c, 2, 62, 127
1, 351005, Note_off_c, 7, 55, 127
1, 351090, Note_off_c, 2, 62, 127
1, 351144, Note_on_c, 12, 59, 127
1, 351234, Note_off_c, 12, 59, 127
1, 351288, Note_on_c, 5, 65, 127
1, 351423, Note_off_c, 5, 65, 127
1, 351432, Note_on_c, 2, 62, 127
1, 351522, Note_off_c, 2, 62, 127
1, 351576, Note_on_c, 12, 59, 127
1, 351666, Note_off_c, 12, 59, 127
1, 351720, Note_on_c, 7, 55, 127
1, 351864, Note_on_c, 4, 64, 127
1, 351869, Note_off_c, 7, 55, 127
1, 351954, Note_off_c, 4, 64, 127
1, 352008, Note_on_c, 0, 60, 127
1, 352098, Note_off_c, 0, 60, 127
1, 352152, Note_on_c, 7, 67, 127
1, 352287, Note_off_c, 7, 67, 127
1, 352296, Note_on_c, 4, 64, 127
1, 352386, Note_off_c, 4, 64, 127
1, 352440, Note_on_c, 0, 60, 127
1, 352530, Note_off_c, 0, 60, 127
1, 352584, Note_on_c, 7, 55, 127
1, 352728, Note_on_c, 2, 62, 127
1, 352733, Note_off_c, 7, 55, 127
1, 352818, Note_off_c, 2, 62, 127
1, 352872, Note_on_c, 12, 59, 127
1, 352962, Note_off_c, 12, 59, 127
1, 353016, Note_on_c, 5, 65, 127
1, 353151, Note_off_c, 5, 65, 127
1, 353160, Note_on_c, 2, 62, 127
1, 353250, Note_off_c, 2, 62, 127
1, 353304, Note_on_c, 12, 59, 127
1, 353394, Note_off_c, 12, 59, 127
1, 353448, Note_on_c, 7, 55, 127
1, 353592, Note_on_c, 4, 64, 127
1, 353597, Note_off_c, 7, 55, 127
1, 353682, Note_off_c, 4, 64, 127
1, 353736, Note_on_c, 0, 60, 127
1, 353826, Note_off_c, 0, 60, 127
1, 353880, Note_on_c, 7, 67, 127
1, 353970, Note_off_c, 7, 67, 127
1, 354024, Note_on_c, 4, 64, 127
1, 354114, Note_off_c, 4, 64, 127
1, 354168, Note_on_c, 0, 60, 127
1, 354258, Note_off_c, 0, 60, 127
1, 354312, Note_on_c, 6, 66, 127
1, 354312, Note_on_c, 0, 48, 127
1, 354456, Note_on_c, 4, 64, 127
1, 354461, Note_off_c, 0, 48, 127
1, 354461, Note_off_c, 6, 66, 127
1, 354546, Note_off_c, 4, 64, 127
1, 354600, Note_on_c, 2, 62, 127
1, 354600, Note_on_c, 6, 54, 127
1, 354690, Note_off_c, 6, 54, 127
1, 354690, Note_off_c, 2, 62, 127
1, 354744, Note_on_c, 10, 69, 127
1, 354834, Note_off_c, 10, 69, 127
1, 354888, Note_on_c, 6, 66, 127
1, 354888, Note_on_c, 10, 57, 127
1, 354978, Note_off_c, 10, 57, 127
1, 354978, Note_off_c, 6, 66, 127
1, 355032, Note_on_c, 4, 64, 127
1, 355122, Note_off_c, 4, 64, 127
1, 355176, Note_on_c, 6, 54, 127
1, 355176, Note_on_c, 2, 62, 127
1, 355320, Note_on_c, 10, 57, 127
1, 355325, Note_off_c, 2, 62, 127
1, 355325, Note_off_c, 6, 54, 127
1, 355410, Note_off_c, 10, 57, 127
1, 355464, Note_on_c, 2, 62, 127
1, 355464, Note_on_c, 2, 50, 127
1, 355554, Note_off_c, 2, 50, 127
1, 355554, Note_off_c, 2, 62, 127
1, 355608, Note_on_c, 6, 66, 127
1, 355698, Note_off_c, 6, 66, 127
1, 355752, Note_on_c, 2, 62, 127
1, 355752, Note_on_c, 0, 48, 127
1, 355842, Note_off_c, 0, 48, 127
1, 355842, Note_off_c, 2, 62, 127
1, 355896, Note_on_c, 6, 66, 127
1, 355986, Note_off_c, 6, 66, 127
1, 356040, Note_on_c, 7, 67, 127
1, 356040, Note_on_c, 12, 47, 127
1, 356184, Note_on_c, 2, 62, 127
1, 356189, Note_off_c, 12, 47, 127
1, 356189, Note_off_c, 7, 67, 127
1, 356274, Note_off_c, 2, 62, 127
1, 356328, Note_on_c, 7, 67, 127
1, 356328, Note_on_c, 2, 50, 127
1, 356418, Note_off_c, 2, 50, 127
1, 356418, Note_off_c, 7, 67, 127
1, 356472, Note_on_c, 12, 71, 127
1, 356562, Note_off_c, 12, 71, 127
1, 356616, Note_on_c, 7, 55, 127
1, 356616, Note_on_c, 7, 67, 127
1, 356706, Note_off_c, 7, 67, 127
1, 356706, Note_off_c, 7, 55, 127
1, 356760, Note_on_c, 12, 71, 127
1, 356850, Note_off_c, 12, 71, 127
1, 356904, Note_on_c, 12, 59, 127
1, 356904, Note_on_c, 2, 74, 127
1, 357046, Note_off_c, 12, 59, 127
1, 357048, Note_on_c, 12, 71, 127
1, 357053, Note_off_c, 2, 74, 127
1, 357138, Note_off_c, 12, 71, 127
1, 357192, Note_on_c, 7, 67, 127
1, 357192, Note_on_c, 2, 62, 127
1, 357252, Note_off_c, 2, 62, 127
1, 357282, Note_off_c, 7, 67, 127
1, 357336, Note_on_c, 5, 77, 127
1, 357426, Note_off_c, 5, 77, 127
1, 357480, Note_on_c, 2, 74, 127
1, 357480, Note_on_c, 7, 67, 127
1, 357518, Note_off_c, 7, 67, 127
1, 357570, Note_off_c, 2, 74, 127
1, 357624, Note_on_c, 12, 71, 127
1, 357714, Note_off_c, 12, 71, 127
1, 357768, Note_on_c, 4, 76, 127
1, 357912, Note_on_c, 7, 67, 127
1, 357917, Note_off_c, 4, 76, 127
1, 358002, Note_off_c, 7, 67, 127
1, 358056, Note_on_c, 12, 71, 127
1, 358146, Note_off_c, 12, 71, 127
1, 358200, Note_on_c, 10, 69, 127
1, 358335, Note_off_c, 10, 69, 127
1, 358344, Note_on_c, 0, 60, 127
1, 358434, Note_off_c, 0, 60, 127
1, 358488, Note_on_c, 4, 64, 127
1, 358578, Note_off_c, 4, 64, 127
1, 358632, Note_on_c, 2, 74, 127
1, 358776, Note_on_c, 6, 66, 127
1, 358781, Note_off_c, 2, 74, 127
1, 358866, Note_off_c, 6, 66, 127
1, 358920, Note_on_c, 10, 69, 127
1, 359010, Note_off_c, 10, 69, 127
1, 359064, Note_on_c, 7, 67, 127
1, 359199, Note_off_c, 7, 67, 127
1, 359208, Note_on_c, 12, 59, 127
1, 359298, Note_off_c, 12, 59, 127
1, 359352, Note_on_c, 2, 62, 127
1, 359442, Note_off_c, 2, 62, 127
1, 359496, Note_on_c, 0, 72, 127
1, 359640, Note_on_c, 4, 64, 127
1, 359645, Note_off_c, 0, 72, 127
1, 359730, Note_off_c, 4, 64, 127
1, 359784, Note_on_c, 7, 67, 127
1, 359874, Note_off_c, 7, 67, 127
1, 359928, Note_on_c, 6, 66, 127
1, 360063, Note_off_c, 6, 66, 127
1, 360072, Note_on_c, 10, 57, 127
1, 360162, Note_off_c, 10, 57, 127
1, 360216, Note_on_c, 0, 60, 127
1, 360306, Note_off_c, 0, 60, 127
1, 360360, Note_on_c, 12, 71, 127
1, 360504, Note_on_c, 2, 62, 127
1, 360509, Note_off_c, 12, 71, 127
1, 360594, Note_off_c, 2, 62, 127
1, 360648, Note_on_c, 6, 66, 127
1, 360738, Note_off_c, 6, 66, 127
1, 360792, Note_on_c, 4, 64, 127
1, 360927, Note_off_c, 4, 64, 127
1, 360936, Note_on_c, 7, 55, 127
1, 361026, Note_off_c, 7, 55, 127
1, 361080, Note_on_c, 12, 59, 127
1, 361170, Note_off_c, 12, 59, 127
1, 361224, Note_on_c, 10, 69, 127
1, 361368, Note_on_c, 0, 60, 127
1, 361373, Note_off_c, 10, 69, 127
1, 361458, Note_off_c, 0, 60, 127
1, 361512, Note_on_c, 4, 64, 127
1, 361602, Note_off_c, 4, 64, 127
1, 361656, Note_on_c, 2, 62, 127
1, 361791, Note_off_c, 2, 62, 127
1, 361800, Note_on_c, 6, 54, 127
1, 361890, Note_off_c, 6, 54, 127
1, 361944, Note_on_c, 10, 57, 127
1, 362034, Note_off_c, 10, 57, 127
1, 362088, Note_on_c, 7, 67, 127
1, 362232, Note_on_c, 12, 59, 127
1, 362237, Note_off_c, 7, 67, 127
1, 362322, Note_off_c, 12, 59, 127
1, 362376, Note_on_c, 2, 62, 127
1, 362466, Note_off_c, 2, 62, 127
1, 362520, Note_on_c, 0, 60, 127
1, 362655, Note_off_c, 0, 60, 127
1, 362664, Note_on_c, 4, 52, 127
1, 362754, Note_off_c, 4, 52, 127
1, 362808, Note_on_c, 7, 55, 127
1, 362898, Note_off_c, 7, 55, 127
1, 362952, Note_on_c, 0, 48, 127
1, 363216, Note_off_c, 0, 48, 127
1, 363240, Note_on_c, 7, 79, 127
1, 363240, Note_on_c, 10, 69, 127
1, 363450, Note_off_c, 10, 69, 127
1, 363450, Note_off_c, 7, 79, 127
1, 363528, Note_on_c, 0, 72, 127
1, 363528, Note_on_c, 6, 78, 127
1, 363528, Note_on_c, 2, 50, 127
1, 363738, Note_off_c, 6, 78, 127
1, 363738, Note_off_c, 0, 72, 127
1, 363792, Note_off_c, 2, 50, 127
1, 363816, Note_on_c, 7, 43, 127
1, 363816, Note_on_c, 6, 78, 127
1, 363816, Note_on_c, 0, 72, 127
1, 364371, Note_off_c, 0, 72, 127
1, 364371, Note_off_c, 6, 78, 127
1, 364389, Note_on_c, 7, 79, 127
1, 364389, Note_on_c, 12, 71, 127
1, 364603, Note_off_c, 7, 43, 127
1, 365189, Note_off_c, 12, 71, 127
1, 365189, Note_off_c, 7, 79, 127
1, 366091, Note_on_c, 7, 43, 127
1, 366091, Note_on_c, 2, 62, 127
1, 366385, Note_off_c, 7, 43, 127
1, 366396, Note_off_c, 2, 62, 127
1, 366398, Note_on_c, 7, 55, 127
1, 366398, Note_on_c, 7, 67, 127
1, 366473, Note_off_c, 7, 67, 127
1, 366475, Note_on_c, 6, 66, 127
1, 366550, Note_off_c, 6, 66, 127
1, 366552, Note_on_c, 7, 67, 127
1, 366706, Note_on_c, 12, 59, 127
1, 367012, Note_off_c, 7, 67, 127
1, 367014, Note_on_c, 4, 64, 127
1, 367014, Note_on_c, 7, 67, 127
1, 367115, Note_off_c, 7, 67, 127
1, 367117, Note_on_c, 10, 69, 127
1, 367218, Note_off_c, 10, 69, 127
1, 367220, Note_on_c, 12, 71, 127
1, 367319, Note_off_c, 12, 71, 127
1, 367321, Note_off_c, 12, 59, 127
1, 367321, Note_off_c, 7, 55, 127
1, 367323, Note_on_c, 6, 54, 127
1, 367323, Note_on_c, 12, 71, 127
1, 367617, Note_off_c, 4, 64, 127
1, 367628, Note_off_c, 12, 71, 127
1, 367630, Note_on_c, 2, 62, 127
1, 367630, Note_on_c, 10, 69, 127
1, 367928, Note_off_c, 10, 69, 127
1, 367936, Note_off_c, 6, 54, 127
1, 367938, Note_on_c, 7, 55, 127
1, 367938, Note_on_c, 7, 67, 127
1, 368236, Note_off_c, 7, 67, 127
1, 368244, Note_off_c, 7, 55, 127
1, 368246, Note_on_c, 10, 57, 127
1, 368246, Note_on_c, 6, 66, 127
1, 368552, Note_off_c, 6, 66, 127
1, 368552, Note_off_c, 2, 62, 127
1, 368554, Note_on_c, 7, 67, 127
1, 368554, Note_on_c, 4, 64, 127
1, 368852, Note_off_c, 7, 67, 127
1, 368860, Note_off_c, 4, 64, 127
1, 368860, Note_off_c, 10, 57, 127
1, 368862, Note_on_c, 10, 45, 127
1, 368862, Note_on_c, 1, 61, 127
1, 368862, Note_on_c, 4, 64, 127
1, 369160, Note_off_c, 4, 64, 127
1, 369168, Note_off_c, 1, 61, 127
1, 369168, Note_off_c, 10, 45, 127
1, 369170, Note_on_c, 12, 47, 127
1, 369170, Note_on_c, 2, 62, 127
1, 369322, Note_off_c, 12, 47, 127
1, 369324, Note_on_c, 0, 60, 127
1, 369476, Note_off_c, 0, 60, 127
1, 369478, Note_on_c, 12, 59, 127
1, 369478, Note_on_c, 10, 69, 127
1, 369630, Note_off_c, 12, 59, 127
1, 369632, Note_on_c, 10, 57, 127
1, 369776, Note_off_c, 10, 69, 127
1, 369784, Note_off_c, 10, 57, 127
1, 369786, Note_on_c, 12, 59, 127
1, 369786, Note_on_c, 7, 67, 127
1, 369938, Note_off_c, 12, 59, 127
1, 369940, Note_on_c, 7, 55, 127
1, 370084, Note_off_c, 7, 67, 127
1, 370092, Note_off_c, 7, 55, 127
1, 370094, Note_on_c, 10, 45, 127
1, 370094, Note_on_c, 6, 66, 127
1, 370246, Note_off_c, 10, 45, 127
1, 370248, Note_on_c, 10, 57, 127
1, 370400, Note_off_c, 10, 57, 127
1, 370400, Note_off_c, 6, 66, 127
1, 370402, Note_on_c, 7, 55, 127
1, 370402, Note_on_c, 0, 72, 127
1, 370554, Note_off_c, 7, 55, 127
1, 370556, Note_on_c, 6, 54, 127
1, 370700, Note_off_c, 0, 72, 127
1, 370708, Note_off_c, 6, 54, 127
1, 370710, Note_on_c, 7, 55, 127
1, 370710, Note_on_c, 12, 71, 127
1, 370862, Note_off_c, 7, 55, 127
1, 370864, Note_on_c, 4, 52, 127
1, 371008, Note_off_c, 12, 71, 127
1, 371016, Note_off_c, 4, 52, 127
1, 371018, Note_on_c, 6, 54, 127
1, 371018, Note_on_c, 10, 69, 127
1, 371319, Note_off_c, 2, 62, 127
1, 371324, Note_off_c, 10, 69, 127
1, 371326, Note_on_c, 4, 76, 127
1, 371326, Note_on_c, 0, 72, 127
1, 371624, Note_off_c, 4, 76, 127
1, 371632, Note_off_c, 0, 72, 127
1, 371632, Note_off_c, 6, 54, 127
1, 371634, Note_on_c, 7, 55, 127
1, 371634, Note_on_c, 12, 71, 127
1, 371634, Note_on_c, 2, 74, 127
1, 371932, Note_off_c, 2, 74, 127
1, 371940, Note_off_c, 12, 71, 127
1, 371940, Note_off_c, 7, 55, 127
1, 371942, Note_on_c, 0, 48, 127
1, 371942, Note_on_c, 10, 69, 127
1, 371942, Note_on_c, 2, 74, 127
1, 372017, Note_off_c, 2, 74, 127
1, 372019, Note_on_c, 0, 72, 127
1, 372094, Note_off_c, 0, 72, 127
1, 372096, Note_on_c, 2, 74, 127
1, 372171, Note_off_c, 2, 74, 127
1, 372173, Note_on_c, 0, 72, 127
1, 372247, Note_off_c, 10, 69, 127
1, 372249, Note_off_c, 0, 72, 127
1, 372249, Note_off_c, 0, 48, 127
1, 372251, Note_on_c, 2, 50, 127
1, 372251, Note_on_c, 12, 71, 127
1, 372251, Note_on_c, 7, 67, 127
1, 372403, Note_off_c, 12, 71, 127
1, 372405, Note_on_c, 10, 69, 127
1, 372555, Note_off_c, 7, 67, 127
1, 372557, Note_off_c, 10, 69, 127
1, 372557, Note_off_c, 2, 50, 127
1, 372559, Note_on_c, 2, 38, 127
1, 372559, Note_on_c, 6, 66, 127
1, 372559, Note_on_c, 2, 74, 127
1, 372857, Note_off_c, 2, 74, 127
1, 372865, Note_off_c, 6, 66, 127
1, 372865, Note_off_c, 2, 38, 127
1, 372867, Note_on_c, 7, 43, 127
1, 372867, Note_on_c, 0, 72, 127
1, 372867, Note_on_c, 7, 67, 127
1, 373019, Note_off_c, 0, 72, 127
1, 373021, Note_on_c, 12, 71, 127
1, 373173, Note_off_c, 12, 71, 127
1, 373173, Note_off_c, 7, 43, 127
1, 373175, Note_on_c, 7, 55, 127
1, 373175, Note_on_c, 10, 69, 127
1, 373316, Note_off_c, 7, 67, 127
1, 373327, Note_off_c, 10, 69, 127
1, 373329, Note_on_c, 7, 67, 127
1, 373449, Note_off_c, 7, 67, 127
1, 373481, Note_off_c, 7, 55, 127
1, 373495, Note_on_c, 2, 62, 127
1, 373495, Note_on_c, 6, 54, 127
1, 373783, Note_off_c, 6, 54, 127
1, 373783, Note_off_c, 2, 62, 127
1, 373789, Note_on_c, 4, 52, 127
1, 373789, Note_on_c, 7, 67, 127
1, 373864, Note_off_c, 7, 67, 127
1, 373866, Note_on_c, 6, 66, 127
1, 373941, Note_off_c, 6, 66, 127
1, 373943, Note_on_c, 7, 67, 127
1, 374097, Note_on_c, 12, 59, 127
1, 374403, Note_off_c, 7, 67, 127
1, 374405, Note_on_c, 7, 67, 127
1, 374405, Note_on_c, 1, 61, 127
1, 374450, Note_off_c, 12, 59, 127
1, 374506, Note_off_c, 7, 67, 127
1, 374508, Note_on_c, 10, 69, 127
1, 374609, Note_off_c, 10, 69, 127
1, 374611, Note_on_c, 12, 71, 127
1, 374710, Note_off_c, 12, 71, 127
1, 374712, Note_off_c, 4, 52, 127
1, 374714, Note_on_c, 6, 54, 127
1, 374714, Note_on_c, 12, 71, 127
1, 375008, Note_off_c, 1, 61, 127
1, 375019, Note_off_c, 12, 71, 127
1, 375021, Note_on_c, 2, 62, 127
1, 375021, Note_on_c, 10, 69, 127
1, 375319, Note_off_c, 10, 69, 127
1, 375327, Note_off_c, 6, 54, 127
1, 375329, Note_on_c, 12, 59, 127
1, 375329, Note_on_c, 7, 67, 127
1, 375627, Note_off_c, 7, 67, 127
1, 375635, Note_off_c, 12, 59, 127
1, 375637, Note_on_c, 7, 55, 127
1, 375637, Note_on_c, 6, 66, 127
1, 375943, Note_off_c, 6, 66, 127
1, 375943, Note_off_c, 2, 62, 127
1, 375945, Note_on_c, 4, 64, 127
1, 375945, Note_on_c, 7, 67, 127
1, 376243, Note_off_c, 7, 67, 127
1, 376251, Note_off_c, 4, 64, 127
1, 376251, Note_off_c, 7, 55, 127
1, 376253, Note_on_c, 1, 61, 127
1, 376253, Note_on_c, 10, 57, 127
1, 376253, Note_on_c, 4, 64, 127
1, 376551, Note_off_c, 4, 64, 127
1, 376559, Note_off_c, 10, 57, 127
1, 376559, Note_off_c, 1, 61, 127
1, 376561, Note_on_c, 12, 59, 127
1, 376561, Note_on_c, 2, 62, 127
1, 376713, Note_off_c, 2, 62, 127
1, 376715, Note_on_c, 6, 66, 127
1, 376867, Note_off_c, 6, 66, 127
1, 376869, Note_on_c, 12, 47, 127
1, 376869, Note_on_c, 4, 64, 127
1, 377021, Note_off_c, 4, 64, 127
1, 377023, Note_on_c, 2, 62, 127
1, 377175, Note_off_c, 2, 62, 127
1, 377175, Note_off_c, 12, 47, 127
1, 377177, Note_on_c, 1, 49, 127
1, 377177, Note_on_c, 4, 64, 127
1, 377329, Note_off_c, 4, 64, 127
1, 377331, Note_on_c, 6, 66, 127
1, 377483, Note_off_c, 6, 66, 127
1, 377483, Note_off_c, 12, 59, 127
1, 377485, Note_on_c, 10, 57, 127
1, 377485, Note_on_c, 7, 67, 127
1, 377637, Note_off_c, 7, 67, 127
1, 377639, Note_on_c, 4, 76, 127
1, 377786, Note_off_c, 1, 49, 127
1, 377791, Note_off_c, 4, 76, 127
1, 377793, Note_on_c, 1, 49, 127
1, 377793, Note_on_c, 2, 74, 127
1, 377945, Note_off_c, 2, 74, 127
1, 377947, Note_on_c, 1, 73, 127
1, 378099, Note_off_c, 1, 73, 127
1, 378099, Note_off_c, 1, 49, 127
1, 378101, Note_on_c, 2, 50, 127
1, 378101, Note_on_c, 12, 71, 127
1, 378253, Note_off_c, 12, 71, 127
1, 378255, Note_on_c, 10, 69, 127
1, 378407, Note_off_c, 10, 69, 127
1, 378407, Note_off_c, 10, 57, 127
1, 378409, Note_on_c, 12, 59, 127
1, 378409, Note_on_c, 8, 68, 127
1, 378561, Note_off_c, 8, 68, 127
1, 378563, Note_on_c, 10, 69, 127
1, 378710, Note_off_c, 2, 50, 127
1, 378716, Note_on_c, 2, 50, 127
1, 378716, Note_on_c, 10, 81, 127
1, 378721, Note_off_c, 10, 69, 127
1, 379014, Note_off_c, 2, 50, 127
1, 379014, Note_off_c, 12, 59, 127
1, 379022, Note_off_c, 10, 81, 127
1, 379024, Note_on_c, 1, 61, 127
1, 379024, Note_on_c, 4, 52, 127
1, 379024, Note_on_c, 7, 79, 127
1, 379248, Note_off_c, 7, 79, 127
1, 379322, Note_off_c, 4, 52, 127
1, 379322, Note_off_c, 1, 61, 127
1, 379332, Note_on_c, 6, 54, 127
1, 379332, Note_on_c, 2, 62, 127
1, 379332, Note_on_c, 6, 78, 127
1, 379638, Note_off_c, 6, 78, 127
1, 379638, Note_off_c, 2, 62, 127
1, 379638, Note_off_c, 6, 54, 127
1, 379640, Note_on_c, 7, 55, 127
1, 379640, Note_on_c, 2, 74, 127
1, 379640, Note_on_c, 6, 66, 127
1, 379936, Note_off_c, 2, 74, 127
1, 379946, Note_off_c, 6, 66, 127
1, 379946, Note_off_c, 7, 55, 127
1, 379948, Note_on_c, 10, 57, 127
1, 379948, Note_on_c, 1, 73, 127
1, 379948, Note_on_c, 4, 64, 127
1, 380244, Note_off_c, 1, 73, 127
1, 380254, Note_off_c, 4, 64, 127
1, 380254, Note_off_c, 10, 57, 127
1, 380256, Note_on_c, 2, 50, 127
1, 380256, Note_on_c, 2, 74, 127
1, 380256, Note_on_c, 6, 66, 127
1, 380800, Note_off_c, 6, 66, 127
1, 380800, Note_off_c, 2, 74, 127
1, 380851, Note_off_c, 2, 50, 127
1, 380870, Note_on_c, 2, 50, 127
1, 380870, Note_on_c, 10, 81, 127
1, 381176, Note_off_c, 10, 81, 127
1, 381176, Note_off_c, 2, 50, 127
1, 381178, Note_on_c, 0, 60, 127
1, 381178, Note_on_c, 2, 74, 127
1, 381253, Note_off_c, 2, 74, 127
1, 381255, Note_on_c, 0, 72, 127
1, 381330, Note_off_c, 0, 72, 127
1, 381332, Note_on_c, 2, 74, 127
1, 381486, Note_on_c, 6, 66, 127
1, 381780, Note_off_c, 2, 74, 127
1, 381791, Note_off_c, 6, 66, 127
1, 381793, Note_on_c, 10, 69, 127
1, 381793, Note_on_c, 2, 74, 127
1, 381894, Note_off_c, 2, 74, 127
1, 381896, Note_on_c, 4, 76, 127
1, 381997, Note_off_c, 4, 76, 127
1, 381999, Note_on_c, 6, 78, 127
1, 382098, Note_off_c, 6, 78, 127
1, 382098, Note_off_c, 10, 69, 127
1, 382100, Note_off_c, 0, 60, 127
1, 382102, Note_on_c, 12, 59, 127
1, 382102, Note_on_c, 2, 62, 127
1, 382102, Note_on_c, 7, 79, 127
1, 382408, Note_off_c, 2, 62, 127
1, 382410, Note_on_c, 7, 67, 127
1, 382711, Note_off_c, 7, 79, 127
1, 382716, Note_off_c, 7, 67, 127
1, 382716, Note_off_c, 12, 59, 127
1, 382718, Note_on_c, 10, 57, 127
1, 382718, Note_on_c, 10, 81, 127
1, 382718, Note_on_c, 6, 66, 127
1, 383016, Note_off_c, 10, 81, 127
1, 383024, Note_off_c, 10, 57, 127
1, 383026, Note_on_c, 7, 55, 127
1, 383026, Note_on_c, 12, 83, 127
1, 383327, Note_off_c, 6, 66, 127
1, 383332, Note_off_c, 12, 83, 127
1, 383332, Note_off_c, 7, 55, 127
1, 383334, Note_on_c, 10, 57, 127
1, 383334, Note_on_c, 4, 64, 127
1, 383334, Note_on_c, 10, 81, 127
1, 383486, Note_off_c, 10, 81, 127
1, 383488, Note_on_c, 7, 79, 127
1, 383638, Note_off_c, 4, 64, 127
1, 383640, Note_off_c, 7, 79, 127
1, 383640, Note_off_c, 10, 57, 127
1, 383642, Note_on_c, 12, 59, 127
1, 383642, Note_on_c, 6, 78, 127
1, 383642, Note_on_c, 3, 63, 127
1, 383794, Note_off_c, 6, 78, 127
1, 383796, Note_on_c, 7, 79, 127
1, 383946, Note_off_c, 3, 63, 127
1, 383948, Note_off_c, 7, 79, 127
1, 383948, Note_off_c, 12, 59, 127
1, 383950, Note_on_c, 4, 52, 127
1, 383950, Note_on_c, 10, 81, 127
1, 383950, Note_on_c, 4, 64, 127
1, 384102, Note_off_c, 10, 81, 127
1, 384104, Note_on_c, 7, 79, 127
1, 384254, Note_off_c, 4, 64, 127
1, 384256, Note_off_c, 7, 79, 127
1, 384256, Note_off_c, 4, 52, 127
1, 384258, Note_on_c, 12, 59, 127
1, 384258, Note_on_c, 6, 78, 127
1, 384410, Note_off_c, 6, 78, 127
1, 384412, Note_on_c, 4, 76, 127
1, 384540, Note_off_c, 4, 76, 127
1, 384564, Note_off_c, 12, 59, 127
1, 384572, Note_on_c, 4, 64, 127
1, 384572, Note_on_c, 7, 79, 127
1, 384722, Note_on_c, 0, 60, 127
1, 384724, Note_off_c, 4, 64, 127
1, 384873, Note_on_c, 4, 64, 127
1, 384873, Note_on_c, 0, 72, 127
1, 384875, Note_off_c, 0, 60, 127
1, 384878, Note_off_c, 7, 79, 127
1, 385025, Note_off_c, 4, 64, 127
1, 385027, Note_on_c, 2, 62, 127
1, 385179, Note_off_c, 2, 62, 127
1, 385179, Note_off_c, 0, 72, 127
1, 385181, Note_on_c, 0, 60, 127
1, 385181, Note_on_c, 12, 71, 127
1, 385333, Note_off_c, 0, 60, 127
1, 385335, Note_on_c, 12, 59, 127
1, 385487, Note_off_c, 12, 59, 127
1, 385487, Note_off_c, 12, 71, 127
1, 385489, Note_on_c, 4, 64, 127
1, 385489, Note_on_c, 0, 72, 127
1, 385590, Note_off_c, 0, 72, 127
1, 385592, Note_on_c, 2, 74, 127
1, 385642, Note_off_c, 4, 64, 127
1, 385644, Note_on_c, 0, 60, 127
1, 385694, Note_off_c, 2, 74, 127
1, 385696, Note_on_c, 4, 76, 127
1, 385795, Note_off_c, 4, 76, 127
1, 385797, Note_off_c, 0, 60, 127
1, 385799, Note_on_c, 4, 64, 127
1, 385799, Note_on_c, 7, 67, 127
1, 385951, Note_off_c, 4, 64, 127
1, 385953, Note_on_c, 2, 62, 127
1, 386105, Note_off_c, 2, 62, 127
1, 386107, Note_on_c, 0, 60, 127
1, 386259, Note_off_c, 0, 60, 127
1, 386261, Note_on_c, 12, 59, 127
1, 386376, Note_off_c, 7, 67, 127
1, 386413, Note_off_c, 12, 59, 127
1, 386415, Note_on_c, 4, 64, 127
1, 386415, Note_on_c, 7, 79, 127
1, 386567, Note_off_c, 4, 64, 127
1, 386569, Note_on_c, 0, 60, 127
1, 386721, Note_off_c, 0, 60, 127
1, 386721, Note_off_c, 7, 79, 127
1, 386723, Note_on_c, 4, 64, 127
1, 386723, Note_on_c, 0, 72, 127
1, 386875, Note_off_c, 4, 64, 127
1, 386877, Note_on_c, 2, 62, 127
1, 387029, Note_off_c, 2, 62, 127
1, 387029, Note_off_c, 0, 72, 127
1, 387031, Note_on_c, 0, 60, 127
1, 387031, Note_on_c, 12, 71, 127
1, 387183, Note_off_c, 0, 60, 127
1, 387185, Note_on_c, 12, 59, 127
1, 387337, Note_off_c, 12, 59, 127
1, 387337, Note_off_c, 12, 71, 127
1, 387339, Note_on_c, 4, 64, 127
1, 387339, Note_on_c, 0, 72, 127
1, 387440, Note_off_c, 0, 72, 127
1, 387442, Note_on_c, 2, 74, 127
1, 387492, Note_off_c, 4, 64, 127
1, 387494, Note_on_c, 0, 60, 127
1, 387544, Note_off_c, 2, 74, 127
1, 387546, Note_on_c, 4, 76, 127
1, 387645, Note_off_c, 4, 76, 127
1, 387647, Note_off_c, 0, 60, 127
1, 387649, Note_on_c, 4, 64, 127
1, 387649, Note_on_c, 7, 67, 127
1, 387801, Note_off_c, 4, 64, 127
1, 387803, Note_on_c, 2, 62, 127
1, 387955, Note_off_c, 2, 62, 127
1, 387957, Note_on_c, 0, 60, 127
1, 388109, Note_off_c, 0, 60, 127
1, 388111, Note_on_c, 12, 59, 127
1, 388210, Note_off_c, 7, 67, 127
1, 388263, Note_off_c, 12, 59, 127
1, 388265, Note_on_c, 2, 62, 127
1, 388265, Note_on_c, 5, 77, 127
1, 388417, Note_off_c, 2, 62, 127
1, 388419, Note_on_c, 12, 59, 127
1, 388571, Note_off_c, 12, 59, 127
1, 388573, Note_on_c, 0, 60, 127
1, 388573, Note_on_c, 10, 69, 127
1, 388874, Note_off_c, 5, 77, 127
1, 388879, Note_off_c, 10, 69, 127
1, 388879, Note_off_c, 0, 60, 127
1, 388881, Note_on_c, 2, 50, 127
1, 388881, Note_on_c, 5, 77, 127
1, 388881, Note_on_c, 12, 71, 127
1, 389179, Note_off_c, 5, 77, 127
1, 389187, Note_off_c, 12, 71, 127
1, 389187, Note_off_c, 2, 50, 127
1, 389189, Note_on_c, 0, 48, 127
1, 389189, Note_on_c, 4, 76, 127
1, 389189, Note_on_c, 0, 72, 127
1, 389487, Note_off_c, 4, 76, 127
1, 389495, Note_off_c, 0, 48, 127
1, 389497, Note_on_c, 12, 47, 127
1, 389497, Note_on_c, 0, 84, 127
1, 389798, Note_off_c, 0, 72, 127
1, 389803, Note_off_c, 0, 84, 127
1, 389803, Note_off_c, 12, 47, 127
1, 389805, Note_on_c, 10, 57, 127
1, 389805, Note_on_c, 0, 72, 127
1, 389805, Note_on_c, 6, 78, 127
1, 390103, Note_off_c, 6, 78, 127
1, 390111, Note_off_c, 0, 72, 127
1, 390111, Note_off_c, 10, 57, 127
1, 390113, Note_on_c, 7, 55, 127
1, 390113, Note_on_c, 12, 71, 127
1, 390113, Note_on_c, 7, 79, 127
1, 390411, Note_off_c, 7, 79, 127
1, 390419, Note_off_c, 12, 71, 127
1, 390419, Note_off_c, 7, 55, 127
1, 390421, Note_on_c, 6, 54, 127
1, 390421, Note_on_c, 10, 69, 127
1, 390575, Note_on_c, 12, 71, 127
1, 390727, Note_off_c, 12, 71, 127
1, 390727, Note_off_c, 6, 54, 127
1, 390729, Note_on_c, 2, 50, 127
1, 390729, Note_on_c, 0, 72, 127
1, 391027, Note_off_c, 0, 72, 127
1, 391030, Note_off_c, 10, 69, 127
1, 391035, Note_off_c, 2, 50, 127
1, 391037, Note_on_c, 7, 55, 127
1, 391037, Note_on_c, 12, 71, 127
1, 391037, Note_on_c, 7, 67, 127
1, 391335, Note_off_c, 12, 71, 127
1, 391343, Note_off_c, 7, 67, 127
1, 391343, Note_off_c, 7, 55, 127
1, 391345, Note_on_c, 2, 50, 127
1, 391345, Note_on_c, 6, 66, 127
1, 391345, Note_on_c, 10, 69, 127
1, 391497, Note_off_c, 2, 50, 127
1, 391499, Note_on_c, 2, 62, 127
1, 391651, Note_off_c, 2, 62, 127
1, 391653, Note_on_c, 0, 60, 127
1, 391805, Note_off_c, 0, 60, 127
1, 391807, Note_on_c, 12, 59, 127
1, 391890, Note_off_c, 10, 69, 127
1, 391906, Note_off_c, 6, 66, 127
1, 391959, Note_off_c, 12, 59, 127
1, 391961, Note_on_c, 0, 60, 127
1, 391961, Note_on_c, 2, 74, 127
1, 392113, Note_off_c, 0, 60, 127
1, 392115, Note_on_c, 10, 57, 127
1, 392267, Note_off_c, 10, 57, 127
1, 392267, Note_off_c, 2, 74, 127
1, 392269, Note_on_c, 12, 59, 127
1, 392269, Note_on_c, 7, 79, 127
1, 392344, Note_off_c, 7, 79, 127
1, 392346, Note_on_c, 6, 78, 127
1, 392421, Note_off_c, 6, 78, 127
1, 392423, Note_on_c, 7, 79, 127
1, 392577, Note_on_c, 2, 62, 127
1, 392871, Note_off_c, 7, 79, 127
1, 392882, Note_off_c, 2, 62, 127
1, 392884, Note_on_c, 7, 67, 127
1, 392884, Note_on_c, 7, 79, 127
1, 392985, Note_off_c, 7, 79, 127
1, 392987, Note_on_c, 10, 81, 127
1, 393088, Note_off_c, 10, 81, 127
1, 393090, Note_on_c, 12, 83, 127
1, 393189, Note_off_c, 12, 83, 127
1, 393191, Note_off_c, 12, 59, 127
1, 393193, Note_on_c, 0, 60, 127
1, 393193, Note_on_c, 4, 76, 127
1, 393494, Note_off_c, 7, 67, 127
1, 393500, Note_on_c, 8, 68, 127
1, 393801, Note_off_c, 4, 76, 127
1, 393806, Note_off_c, 8, 68, 127
1, 393806, Note_off_c, 0, 60, 127
1, 393808, Note_on_c, 5, 65, 127
1, 393808, Note_on_c, 2, 74, 127
1, 393808, Note_on_c, 10, 69, 127
1, 394106, Note_off_c, 2, 74, 127
1, 394114, Note_off_c, 5, 65, 127
1, 394116, Note_on_c, 2, 62, 127
1, 394116, Note_on_c, 0, 72, 127
1, 394422, Note_off_c, 0, 72, 127
1, 394422, Note_off_c, 2, 62, 127
1, 394424, Note_on_c, 4, 64, 127
1, 394424, Note_on_c, 12, 71, 127
1, 394576, Note_off_c, 12, 71, 127
1, 394578, Note_on_c, 0, 72, 127
1, 394730, Note_off_c, 0, 72, 127
1, 394730, Note_off_c, 4, 64, 127
1, 394730, Note_off_c, 10, 69, 127
1, 394732, Note_on_c, 4, 52, 127
1, 394732, Note_on_c, 2, 74, 127
1, 394732, Note_on_c, 8, 68, 127
1, 394884, Note_off_c, 2, 74, 127
1, 394886, Note_on_c, 12, 71, 127
1, 395036, Note_off_c, 8, 68, 127
1, 395038, Note_off_c, 12, 71, 127
1, 395038, Note_off_c, 4, 52, 127
1, 395040, Note_on_c, 10, 45, 127
1, 395040, Note_on_c, 10, 69, 127
1, 395040, Note_on_c, 2, 74, 127
1, 395192, Note_off_c, 2, 74, 127
1, 395194, Note_on_c, 0, 72, 127
1, 395346, Note_off_c, 0, 72, 127
1, 395346, Note_off_c, 10, 45, 127
1, 395348, Note_on_c, 10, 57, 127
1, 395348, Note_on_c, 12, 71, 127
1, 395489, Note_off_c, 10, 69, 127
1, 395500, Note_off_c, 12, 71, 127
1, 395502, Note_on_c, 10, 69, 127
1, 395630, Note_off_c, 10, 69, 127
1, 395654, Note_off_c, 10, 57, 127
1, 395656, Note_on_c, 8, 56, 127
1, 395656, Note_on_c, 2, 74, 127
1, 395808, Note_off_c, 2, 74, 127
1, 395810, Note_on_c, 12, 71, 127
1, 395962, Note_off_c, 12, 71, 127
1, 395962, Note_off_c, 8, 56, 127
1, 395964, Note_on_c, 10, 57, 127
1, 395964, Note_on_c, 2, 74, 127
1, 396116, Note_off_c, 2, 74, 127
1, 396118, Note_on_c, 0, 72, 127
1, 396270, Note_off_c, 0, 72, 127
1, 396270, Note_off_c, 10, 57, 127
1, 396272, Note_on_c, 0, 48, 127
1, 396272, Note_on_c, 12, 71, 127
1, 396424, Note_off_c, 12, 71, 127
1, 396426, Note_on_c, 10, 69, 127
1, 396562, Note_off_c, 10, 69, 127
1, 396568, Note_off_c, 0, 48, 127
1, 396579, Note_on_c, 12, 47, 127
1, 396579, Note_on_c, 2, 74, 127
1, 396731, Note_off_c, 2, 74, 127
1, 396733, Note_on_c, 12, 71, 127
1, 396875, Note_off_c, 12, 47, 127
1, 396885, Note_off_c, 12, 71, 127
1, 396887, Note_on_c, 10, 45, 127
1, 396887, Note_on_c, 2, 74, 127
1, 397039, Note_off_c, 2, 74, 127
1, 397041, Note_on_c, 0, 72, 127
1, 397193, Note_off_c, 0, 72, 127
1, 397193, Note_off_c, 10, 45, 127
1, 397195, Note_on_c, 7, 55, 127
1, 397195, Note_on_c, 12, 71, 127
1, 397347, Note_off_c, 12, 71, 127
1, 397349, Note_on_c, 10, 69, 127
1, 397485, Note_off_c, 10, 69, 127
1, 397491, Note_off_c, 7, 55, 127
1, 397502, Note_on_c, 6, 54, 127
1, 397502, Note_on_c, 0, 72, 127
1, 397654, Note_off_c, 0, 72, 127
1, 397656, Note_on_c, 10, 69, 127
1, 397798, Note_off_c, 6, 54, 127
1, 397808, Note_off_c, 10, 69, 127
1, 397810, Note_on_c, 7, 55, 127
1, 397810, Note_on_c, 0, 72, 127
1, 397962, Note_off_c, 0, 72, 127
1, 397964, Note_on_c, 12, 71, 127
1, 398116, Note_off_c, 12, 71, 127
1, 398116, Note_off_c, 7, 55, 127
1, 398118, Note_on_c, 12, 47, 127
1, 398118, Note_on_c, 10, 69, 127
1, 398270, Note_off_c, 10, 69, 127
1, 398272, Note_on_c, 7, 67, 127
1, 398408, Note_off_c, 7, 67, 127
1, 398414, Note_off_c, 12, 47, 127
1, 398425, Note_on_c, 10, 45, 127
1, 398425, Note_on_c, 0, 72, 127
1, 398577, Note_off_c, 0, 72, 127
1, 398579, Note_on_c, 10, 69, 127
1, 398721, Note_off_c, 10, 45, 127
1, 398731, Note_off_c, 10, 69, 127
1, 398733, Note_on_c, 7, 43, 127
1, 398733, Note_on_c, 0, 72, 127
1, 398885, Note_off_c, 0, 72, 127
1, 398887, Note_on_c, 12, 71, 127
1, 399037, Note_off_c, 7, 43, 127
1, 399039, Note_off_c, 12, 71, 127
1, 399041, Note_on_c, 10, 69, 127
1, 399193, Note_off_c, 10, 69, 127
1, 399195, Note_on_c, 12, 59, 127
1, 399195, Note_on_c, 7, 67, 127
1, 399347, Note_off_c, 7, 67, 127
1, 399347, Note_off_c, 12, 59, 127
1, 399349, Note_on_c, 10, 57, 127
1, 399349, Note_on_c, 10, 69, 127
1, 399501, Note_off_c, 10, 69, 127
1, 399501, Note_off_c, 10, 57, 127
1, 399503, Note_on_c, 7, 55, 127
1, 399503, Note_on_c, 12, 71, 127
1, 399655, Note_off_c, 12, 71, 127
1, 399655, Note_off_c, 7, 55, 127
1, 399657, Note_on_c, 0, 60, 127
1, 399657, Note_on_c, 4, 64, 127
1, 399809, Note_off_c, 0, 60, 127
1, 399811, Note_on_c, 12, 59, 127
1, 399963, Note_off_c, 12, 59, 127
1, 399965, Note_on_c, 10, 57, 127
1, 400117, Note_off_c, 10, 57, 127
1, 400119, Note_on_c, 7, 55, 127
1, 400234, Note_off_c, 4, 64, 127
1, 400271, Note_off_c, 7, 55, 127
1, 400273, Note_on_c, 0, 60, 127
1, 400273, Note_on_c, 6, 66, 127
1, 400374, Note_off_c, 6, 66, 127
1, 400376, Note_on_c, 7, 67, 127
1, 400426, Note_off_c, 0, 60, 127
1, 400428, Note_on_c, 10, 57, 127
1, 400478, Note_off_c, 7, 67, 127
1, 400480, Note_on_c, 10, 69, 127
1, 400579, Note_off_c, 10, 69, 127
1, 400581, Note_off_c, 10, 57, 127
1, 400583, Note_on_c, 0, 60, 127
1, 400583, Note_on_c, 2, 62, 127
1, 400735, Note_off_c, 0, 60, 127
1, 400737, Note_on_c, 12, 59, 127
1, 400889, Note_off_c, 12, 59, 127
1, 400891, Note_on_c, 10, 57, 127
1, 401043, Note_off_c, 10, 57, 127
1, 401045, Note_on_c, 7, 55, 127
1, 401197, Note_off_c, 7, 55, 127
1, 401197, Note_off_c, 2, 62, 127
1, 401199, Note_on_c, 0, 60, 127
1, 401199, Note_on_c, 2, 74, 127
1, 401351, Note_off_c, 0, 60, 127
1, 401353, Note_on_c, 10, 57, 127
1, 401505, Note_off_c, 10, 57, 127
1, 401505, Note_off_c, 2, 74, 127
1, 401507, Note_on_c, 0, 60, 127
1, 401507, Note_on_c, 7, 67, 127
1, 401582, Note_off_c, 7, 67, 127
1, 401584, Note_on_c, 6, 66, 127
1, 401659, Note_off_c, 6, 66, 127
1, 401659, Note_off_c, 0, 60, 127
1, 401661, Note_on_c, 12, 59, 127
1, 401661, Note_on_c, 7, 67, 127
1, 401813, Note_off_c, 12, 59, 127
1, 401815, Note_on_c, 10, 57, 127
1, 401967, Note_off_c, 10, 57, 127
1, 401969, Note_on_c, 7, 55, 127
1, 402110, Note_off_c, 7, 67, 127
1, 402121, Note_off_c, 7, 55, 127
1, 402123, Note_on_c, 0, 60, 127
1, 402123, Note_on_c, 6, 66, 127
1, 402224, Note_off_c, 6, 66, 127
1, 402226, Note_on_c, 7, 67, 127
1, 402276, Note_off_c, 0, 60, 127
1, 402278, Note_on_c, 10, 57, 127
1, 402328, Note_off_c, 7, 67, 127
1, 402330, Note_on_c, 10, 69, 127
1, 402429, Note_off_c, 10, 69, 127
1, 402431, Note_off_c, 10, 57, 127
1, 402433, Note_on_c, 0, 60, 127
1, 402433, Note_on_c, 2, 62, 127
1, 402585, Note_off_c, 0, 60, 127
1, 402587, Note_on_c, 12, 59, 127
1, 402739, Note_off_c, 12, 59, 127
1, 402741, Note_on_c, 10, 57, 127
1, 402893, Note_off_c, 10, 57, 127
1, 402895, Note_on_c, 7, 55, 127
1, 403010, Note_off_c, 2, 62, 127
1, 403047, Note_off_c, 7, 55, 127
1, 403049, Note_on_c, 10, 57, 127
1, 403049, Note_on_c, 2, 74, 127
1, 403201, Note_off_c, 10, 57, 127
1, 403203, Note_on_c, 6, 54, 127
1, 403355, Note_off_c, 6, 54, 127
1, 403355, Note_off_c, 2, 74, 127
1, 403357, Note_on_c, 7, 55, 127
1, 403357, Note_on_c, 0, 72, 127
1, 403663, Note_off_c, 0, 72, 127
1, 403665, Note_on_c, 5, 65, 127
1, 403665, Note_on_c, 12, 71, 127
1, 403971, Note_off_c, 12, 71, 127
1, 403971, Note_off_c, 5, 65, 127
1, 403973, Note_on_c, 0, 72, 127
1, 403973, Note_on_c, 4, 64, 127
1, 404074, Note_off_c, 0, 72, 127
1, 404076, Note_on_c, 2, 74, 127
1, 404177, Note_off_c, 2, 74, 127
1, 404179, Note_on_c, 4, 76, 127
1, 404278, Note_off_c, 4, 76, 127
1, 404280, Note_off_c, 7, 55, 127
1, 404282, Note_on_c, 10, 57, 127
1, 404282, Note_on_c, 5, 77, 127
1, 404583, Note_off_c, 4, 64, 127
1, 404589, Note_on_c, 4, 64, 127
1, 404890, Note_off_c, 5, 77, 127
1, 404895, Note_off_c, 4, 64, 127
1, 404895, Note_off_c, 10, 57, 127
1, 404897, Note_on_c, 12, 59, 127
1, 404897, Note_on_c, 2, 62, 127
1, 404897, Note_on_c, 7, 79, 127
1, 405195, Note_off_c, 7, 79, 127
1, 405203, Note_off_c, 2, 62, 127
1, 405203, Note_off_c, 12, 59, 127
1, 405205, Note_on_c, 0, 60, 127
1, 405205, Note_on_c, 4, 76, 127
1, 405511, Note_off_c, 4, 76, 127
1, 405511, Note_off_c, 0, 60, 127
1, 405513, Note_on_c, 5, 53, 127
1, 405513, Note_on_c, 5, 77, 127
1, 405513, Note_on_c, 2, 74, 127
1, 405811, Note_off_c, 5, 77, 127
1, 405819, Note_off_c, 2, 74, 127
1, 405819, Note_off_c, 5, 53, 127
1, 405821, Note_on_c, 7, 55, 127
1, 405821, Note_on_c, 2, 74, 127
1, 405821, Note_on_c, 12, 71, 127
1, 406119, Note_off_c, 2, 74, 127
1, 406127, Note_off_c, 7, 55, 127
1, 406129, Note_on_c, 0, 48, 127
1, 406129, Note_on_c, 5, 77, 127
1, 406281, Note_off_c, 5, 77, 127
1, 406283, Note_on_c, 4, 76, 127
1, 406430, Note_off_c, 12, 71, 127
1, 406435, Note_off_c, 4, 76, 127
1, 406437, Note_on_c, 12, 59, 127
1, 406437, Note_on_c, 2, 74, 127
1, 406589, Note_off_c, 2, 74, 127
1, 406591, Note_on_c, 0, 72, 127
1, 406743, Note_off_c, 0, 72, 127
1, 406743, Note_off_c, 12, 59, 127
1, 406745, Note_on_c, 10, 57, 127
1, 406745, Note_on_c, 4, 76, 127
1, 406897, Note_off_c, 4, 76, 127
1, 406899, Note_on_c, 0, 72, 127
1, 407051, Note_off_c, 0, 72, 127
1, 407051, Note_off_c, 0, 48, 127
1, 407053, Note_on_c, 12, 47, 127
1, 407053, Note_on_c, 4, 76, 127
1, 407205, Note_off_c, 4, 76, 127
1, 407207, Note_on_c, 2, 74, 127
1, 407354, Note_off_c, 10, 57, 127
1, 407359, Note_off_c, 2, 74, 127
1, 407361, Note_on_c, 10, 57, 127
1, 407361, Note_on_c, 0, 72, 127
1, 407513, Note_off_c, 0, 72, 127
1, 407515, Note_on_c, 12, 71, 127
1, 407667, Note_off_c, 12, 71, 127
1, 407667, Note_off_c, 10, 57, 127
1, 407669, Note_on_c, 7, 55, 127
1, 407669, Note_on_c, 2, 74, 127
1, 407821, Note_off_c, 2, 74, 127
1, 407823, Note_on_c, 12, 71, 127
1, 407975, Note_off_c, 12, 71, 127
1, 407975, Note_off_c, 12, 47, 127
1, 407977, Note_on_c, 10, 45, 127
1, 407977, Note_on_c, 2, 74, 127
1, 408129, Note_off_c, 2, 74, 127
1, 408131, Note_on_c, 0, 72, 127
1, 408278, Note_off_c, 7, 55, 127
1, 408283, Note_off_c, 0, 72, 127
1, 408285, Note_on_c, 7, 55, 127
1, 408285, Note_on_c, 12, 71, 127
1, 408437, Note_off_c, 12, 71, 127
1, 408439, Note_on_c, 10, 69, 127
1, 408591, Note_off_c, 10, 69, 127
1, 408591, Note_off_c, 7, 55, 127
1, 408593, Note_on_c, 6, 54, 127
1, 408593, Note_on_c, 0, 72, 127
1, 408745, Note_off_c, 0, 72, 127
1, 408747, Note_on_c, 10, 69, 127
1, 408889, Note_off_c, 6, 54, 127
1, 408899, Note_off_c, 10, 69, 127
1, 408899, Note_off_c, 10, 45, 127
1, 408901, Note_on_c, 7, 55, 127
1, 408901, Note_on_c, 12, 47, 127
1, 408901, Note_on_c, 2, 74, 127
1, 409237, Note_on_c, 7, 67, 127
1, 409237, Note_on_c, 12, 59, 127
1, 409237, Note_on_c, 0, 48, 127
1, 409239, Note_off_c, 2, 74, 127
1, 409239, Note_off_c, 12, 47, 127
1, 409239, Note_off_c, 7, 55, 127
1, 409543, Note_off_c, 0, 48, 127
1, 409543, Note_off_c, 12, 59, 127
1, 409543, Note_off_c, 7, 67, 127
1, 409593, Note_on_c, 2, 50, 127
1, 409593, Note_on_c, 10, 57, 127
1, 409593, Note_on_c, 6, 66, 127
1, 409899, Note_off_c, 6, 66, 127
1, 409899, Note_off_c, 10, 57, 127
1, 409899, Note_off_c, 2, 50, 127
1, 409993, Note_on_c, 7, 43, 127
1, 409993, Note_on_c, 12, 59, 127
1, 409993, Note_on_c, 7, 67, 127
1, 411393, Note_off_c, 7, 67, 127
1, 411393, Note_off_c, 12, 59, 127
1, 411393, Note_off_c, 7, 43, 127
1, 412057, Note_on_c, 2, 74, 127
1, 412341, Note_off_c, 2, 74, 127
1, 412377, Note_on_c, 4, 76, 127
1, 412766, Note_off_c, 4, 76, 127
1, 412770, Note_on_c, 0, 72, 127
1, 412897, Note_off_c, 0, 72, 127
1, 412901, Note_on_c, 10, 69, 127
1, 413028, Note_off_c, 10, 69, 127
1, 413032, Note_on_c, 6, 66, 127
1, 413159, Note_off_c, 6, 66, 127
1, 413163, Note_on_c, 2, 74, 127
1, 413354, Note_off_c, 2, 74, 127
1, 413425, Note_on_c, 7, 67, 127
1, 413616, Note_off_c, 7, 67, 127
1, 413949, Note_on_c, 0, 72, 127
1, 414338, Note_off_c, 0, 72, 127
1, 414342, Note_on_c, 10, 69, 127
1, 414469, Note_off_c, 10, 69, 127
1, 414473, Note_on_c, 6, 66, 127
1, 414600, Note_off_c, 6, 66, 127
1, 414604, Note_on_c, 2, 62, 127
1, 414731, Note_off_c, 2, 62, 127
1, 414735, Note_on_c, 12, 71, 127
1, 414862, Note_off_c, 12, 71, 127
1, 414866, Note_on_c, 10, 69, 127
1, 414993, Note_off_c, 10, 69, 127
1, 414997, Note_on_c, 12, 71, 127
1, 415124, Note_off_c, 12, 71, 127
1, 415128, Note_on_c, 0, 72, 127
1, 415255, Note_off_c, 0, 72, 127
1, 415259, Note_on_c, 7, 79, 127
1, 415259, Note_on_c, 12, 71, 127
1, 415386, Note_off_c, 12, 71, 127
1, 415390, Note_on_c, 10, 69, 127
1, 415517, Note_off_c, 10, 69, 127
1, 415517, Note_off_c, 7, 79, 127
1, 415521, Note_on_c, 12, 83, 127
1, 415521, Note_on_c, 7, 67, 127
1, 415779, Note_off_c, 7, 67, 127
1, 415783, Note_on_c, 7, 55, 127
1, 415910, Note_off_c, 12, 83, 127
1, 415914, Note_on_c, 7, 79, 127
1, 416041, Note_off_c, 7, 79, 127
1, 416041, Note_off_c, 7, 55, 127
1, 416045, Note_on_c, 4, 76, 127
1, 416045, Note_on_c, 7, 67, 127
1, 416172, Note_off_c, 4, 76, 127
1, 416176, Note_on_c, 1, 73, 127
1, 416303, Note_off_c, 1, 73, 127
1, 416307, Note_on_c, 10, 81, 127
1, 416434, Note_off_c, 7, 67, 127
1, 416438, Note_on_c, 4, 64, 127
1, 416498, Note_off_c, 10, 81, 127
1, 416565, Note_off_c, 4, 64, 127
1, 416569, Note_on_c, 2, 74, 127
1, 416569, Note_on_c, 6, 66, 127
1, 416696, Note_off_c, 6, 66, 127
1, 416700, Note_on_c, 10, 69, 127
1, 416760, Note_off_c, 2, 74, 127
1, 416827, Note_off_c, 10, 69, 127
1, 416831, Note_on_c, 7, 67, 127
1, 416958, Note_off_c, 7, 67, 127
1, 416962, Note_on_c, 6, 66, 127
1, 417089, Note_off_c, 6, 66, 127
1, 417093, Note_on_c, 7, 79, 127
1, 417093, Note_on_c, 4, 64, 127
1, 417351, Note_off_c, 4, 64, 127
1, 417355, Note_on_c, 1, 61, 127
1, 417482, Note_off_c, 7, 79, 127
1, 417486, Note_on_c, 4, 76, 127
1, 417613, Note_off_c, 4, 76, 127
1, 417613, Note_off_c, 1, 61, 127
1, 417617, Note_on_c, 1, 73, 127
1, 417617, Note_on_c, 10, 57, 127
1, 417744, Note_off_c, 1, 73, 127
1, 417748, Note_on_c, 10, 69, 127
1, 417875, Note_off_c, 10, 69, 127
1, 417875, Note_off_c, 10, 57, 127
1, 417879, Note_on_c, 6, 78, 127
1, 417879, Note_on_c, 2, 62, 127
1, 418006, Note_off_c, 6, 78, 127
1, 418010, Note_on_c, 4, 76, 127
1, 418137, Note_off_c, 4, 76, 127
1, 418137, Note_off_c, 2, 62, 127
1, 418141, Note_on_c, 6, 78, 127
1, 418141, Note_on_c, 10, 69, 127
1, 418268, Note_off_c, 6, 78, 127
1, 418272, Note_on_c, 10, 81, 127
1, 418366, Note_off_c, 10, 69, 127
1, 418399, Note_off_c, 10, 81, 127
1, 418403, Note_on_c, 2, 74, 127
1, 418403, Note_on_c, 12, 71, 127
1, 418530, Note_off_c, 2, 74, 127
1, 418534, Note_on_c, 6, 78, 127
1, 418628, Note_off_c, 12, 71, 127
1, 418661, Note_off_c, 6, 78, 127
1, 418665, Note_on_c, 7, 79, 127
1, 418665, Note_on_c, 4, 64, 127
1, 418792, Note_off_c, 7, 79, 127
1, 418796, Note_on_c, 6, 78, 127
1, 418923, Note_off_c, 6, 78, 127
1, 418923, Note_off_c, 4, 64, 127
1, 418927, Note_on_c, 7, 79, 127
1, 418927, Note_on_c, 12, 71, 127
1, 419054, Note_off_c, 7, 79, 127
1, 419058, Note_on_c, 12, 83, 127
1, 419152, Note_off_c, 12, 71, 127
1, 419185, Note_off_c, 12, 83, 127
1, 419189, Note_on_c, 4, 76, 127
1, 419189, Note_on_c, 0, 72, 127
1, 419316, Note_off_c, 4, 76, 127
1, 419320, Note_on_c, 7, 79, 127
1, 419414, Note_off_c, 0, 72, 127
1, 419447, Note_off_c, 7, 79, 127
1, 419451, Note_on_c, 10, 81, 127
1, 419451, Note_on_c, 6, 66, 127
1, 419578, Note_off_c, 10, 81, 127
1, 419582, Note_on_c, 7, 79, 127
1, 419709, Note_off_c, 7, 79, 127
1, 419709, Note_off_c, 6, 66, 127
1, 419713, Note_on_c, 10, 81, 127
1, 419713, Note_on_c, 0, 72, 127
1, 419840, Note_off_c, 10, 81, 127
1, 419844, Note_on_c, 0, 84, 127
1, 419938, Note_off_c, 0, 72, 127
1, 419971, Note_off_c, 0, 84, 127
1, 419975, Note_on_c, 6, 78, 127
1, 419975, Note_on_c, 2, 74, 127
1, 420102, Note_off_c, 6, 78, 127
1, 420106, Note_on_c, 10, 81, 127
1, 420225, Note_off_c, 2, 74, 127
1, 420233, Note_off_c, 10, 81, 127
1, 420237, Note_on_c, 12, 83, 127
1, 420237, Note_on_c, 7, 67, 127
1, 420364, Note_off_c, 12, 83, 127
1, 420368, Note_on_c, 10, 81, 127
1, 420495, Note_off_c, 10, 81, 127
1, 420495, Note_off_c, 7, 67, 127
1, 420499, Note_on_c, 0, 84, 127
1, 420499, Note_on_c, 4, 76, 127
1, 420626, Note_off_c, 0, 84, 127
1, 420630, Note_on_c, 12, 83, 127
1, 420724, Note_off_c, 4, 76, 127
1, 420757, Note_off_c, 12, 83, 127
1, 420761, Note_on_c, 10, 81, 127
1, 420761, Note_on_c, 0, 72, 127
1, 420888, Note_off_c, 10, 81, 127
1, 420892, Note_on_c, 7, 79, 127
1, 420986, Note_off_c, 0, 72, 127
1, 421019, Note_off_c, 7, 79, 127
1, 421023, Note_on_c, 6, 78, 127
1, 421023, Note_on_c, 2, 74, 127
1, 421150, Note_off_c, 6, 78, 127
1, 421154, Note_on_c, 4, 76, 127
1, 421281, Note_off_c, 4, 76, 127
1, 421281, Note_off_c, 2, 74, 127
1, 421285, Note_on_c, 6, 78, 127
1, 421285, Note_on_c, 10, 69, 127
1, 421412, Note_off_c, 6, 78, 127
1, 421416, Note_on_c, 7, 79, 127
1, 421543, Note_off_c, 7, 79, 127
1, 421543, Note_off_c, 10, 69, 127
1, 421547, Note_on_c, 4, 76, 127
1, 421547, Note_on_c, 2, 62, 127
1, 421547, Note_on_c, 2, 74, 127
1, 421674, Note_off_c, 4, 76, 127
1, 421678, Note_on_c, 6, 78, 127
1, 421805, Note_off_c, 6, 78, 127
1, 421805, Note_off_c, 2, 62, 127
1, 421809, Note_on_c, 7, 79, 127
1, 421809, Note_on_c, 4, 64, 127
1, 422067, Note_off_c, 2, 74, 127
1, 422071, Note_on_c, 0, 72, 127
1, 422198, Note_off_c, 4, 64, 127
1, 422202, Note_on_c, 0, 60, 127
1, 422329, Note_off_c, 0, 60, 127
1, 422329, Note_off_c, 7, 79, 127
1, 422333, Note_on_c, 0, 84, 127
1, 422333, Note_on_c, 10, 57, 127
1, 422460, Note_off_c, 10, 57, 127
1, 422464, Note_on_c, 6, 54, 127
1, 422591, Note_off_c, 6, 54, 127
1, 422591, Note_off_c, 0, 84, 127
1, 422595, Note_on_c, 6, 78, 127
1, 422595, Note_on_c, 2, 62, 127
1, 422722, Note_off_c, 0, 72, 127
1, 422726, Note_on_c, 10, 69, 127
1, 422786, Note_off_c, 2, 62, 127
1, 422853, Note_off_c, 10, 69, 127
1, 422853, Note_off_c, 6, 78, 127
1, 422857, Note_on_c, 7, 79, 127
1, 422857, Note_on_c, 7, 55, 127
1, 422857, Note_on_c, 12, 71, 127
1, 422984, Note_off_c, 12, 71, 127
1, 422988, Note_on_c, 2, 74, 127
1, 423048, Note_off_c, 7, 55, 127
1, 423115, Note_off_c, 2, 74, 127
1, 423119, Note_on_c, 0, 72, 127
1, 423246, Note_off_c, 0, 72, 127
1, 423250, Note_on_c, 12, 71, 127
1, 423377, Note_off_c, 12, 71, 127
1, 423381, Note_on_c, 0, 60, 127
1, 423381, Note_on_c, 10, 69, 127
1, 423639, Note_off_c, 7, 79, 127
1, 423643, Note_on_c, 6, 78, 127
1, 423770, Note_off_c, 0, 60, 127
1, 423774, Note_on_c, 10, 57, 127
1, 423901, Note_off_c, 10, 57, 127
1, 423901, Note_off_c, 6, 78, 127
1, 423905, Note_on_c, 10, 81, 127
1, 423905, Note_on_c, 6, 54, 127
1, 424032, Note_off_c, 6, 54, 127
1, 424036, Note_on_c, 2, 50, 127
1, 424163, Note_off_c, 2, 50, 127
1, 424163, Note_off_c, 10, 81, 127
1, 424167, Note_on_c, 2, 74, 127
1, 424167, Note_on_c, 12, 59, 127
1, 424294, Note_off_c, 12, 59, 127
1, 424298, Note_on_c, 10, 57, 127
1, 424425, Note_off_c, 10, 57, 127
1, 424425, Note_off_c, 2, 74, 127
1, 424425, Note_off_c, 10, 69, 127
1, 424429, Note_on_c, 4, 76, 127
1, 424429, Note_on_c, 12, 59, 127
1, 424429, Note_on_c, 7, 67, 127
1, 424556, Note_off_c, 12, 59, 127
1, 424560, Note_on_c, 0, 60, 127
1, 424687, Note_off_c, 0, 60, 127
1, 424687, Note_off_c, 7, 67, 127
1, 424687, Note_off_c, 4, 76, 127
1, 424691, Note_on_c, 6, 78, 127
1, 424691, Note_on_c, 12, 59, 127
1, 424691, Note_on_c, 10, 69, 127
1, 424818, Note_off_c, 12, 59, 127
1, 424822, Note_on_c, 10, 57, 127
1, 424949, Note_off_c, 10, 57, 127
1, 424949, Note_off_c, 10, 69, 127
1, 424949, Note_off_c, 6, 78, 127
1, 424953, Note_on_c, 7, 79, 127
1, 424953, Note_on_c, 7, 55, 127
1, 424953, Note_on_c, 12, 71, 127
1, 425080, Note_off_c, 12, 71, 127
1, 425084, Note_on_c, 10, 69, 127
1, 425211, Note_off_c, 10, 69, 127
1, 425211, Note_off_c, 7, 55, 127
1, 425212, Note_off_c, 7, 79, 127
1, 425215, Note_on_c, 2, 62, 127
1, 425215, Note_on_c, 12, 71, 127
1, 425342, Note_off_c, 12, 71, 127
1, 425346, Note_on_c, 2, 74, 127
1, 425440, Note_off_c, 2, 62, 127
1, 425473, Note_off_c, 2, 74, 127
1, 425477, Note_on_c, 4, 64, 127
1, 425477, Note_on_c, 7, 67, 127
1, 425604, Note_off_c, 7, 67, 127
1, 425608, Note_on_c, 12, 71, 127
1, 425702, Note_off_c, 4, 64, 127
1, 425735, Note_off_c, 12, 71, 127
1, 425739, Note_on_c, 10, 57, 127
1, 425739, Note_on_c, 0, 72, 127
1, 425866, Note_off_c, 0, 72, 127
1, 425870, Note_on_c, 12, 71, 127
1, 425997, Note_off_c, 12, 71, 127
1, 425997, Note_off_c, 10, 57, 127
1, 426001, Note_on_c, 4, 64, 127
1, 426001, Note_on_c, 0, 72, 127
1, 426128, Note_off_c, 0, 72, 127
1, 426132, Note_on_c, 4, 76, 127
1, 426226, Note_off_c, 4, 64, 127
1, 426259, Note_off_c, 4, 76, 127
1, 426263, Note_on_c, 5, 65, 127
1, 426263, Note_on_c, 10, 69, 127
1, 426390, Note_off_c, 10, 69, 127
1, 426394, Note_on_c, 0, 72, 127
1, 426488, Note_off_c, 5, 65, 127
1, 426521, Note_off_c, 0, 72, 127
1, 426525, Note_on_c, 12, 59, 127
1, 426525, Note_on_c, 2, 74, 127
1, 426652, Note_off_c, 2, 74, 127
1, 426656, Note_on_c, 0, 72, 127
1, 426783, Note_off_c, 0, 72, 127
1, 426783, Note_off_c, 12, 59, 127
1, 426787, Note_on_c, 5, 65, 127
1, 426787, Note_on_c, 2, 74, 127
1, 426914, Note_off_c, 2, 74, 127
1, 426918, Note_on_c, 5, 77, 127
1, 427012, Note_off_c, 5, 65, 127
1, 427045, Note_off_c, 5, 77, 127
1, 427049, Note_on_c, 7, 67, 127
1, 427049, Note_on_c, 12, 71, 127
1, 427176, Note_off_c, 12, 71, 127
1, 427180, Note_on_c, 2, 74, 127
1, 427274, Note_off_c, 7, 67, 127
1, 427309, Note_off_c, 2, 74, 127
1, 427310, Note_on_c, 4, 76, 127
1, 427310, Note_on_c, 0, 60, 127
1, 427437, Note_off_c, 0, 60, 127
1, 427441, Note_on_c, 12, 59, 127
1, 427568, Note_off_c, 12, 59, 127
1, 427568, Note_off_c, 4, 76, 127
1, 427572, Note_on_c, 6, 78, 127
1, 427572, Note_on_c, 0, 60, 127
1, 427572, Note_on_c, 10, 69, 127
1, 427699, Note_off_c, 0, 60, 127
1, 427703, Note_on_c, 2, 62, 127
1, 427797, Note_off_c, 10, 69, 127
1, 427830, Note_off_c, 2, 62, 127
1, 427830, Note_off_c, 6, 78, 127
1, 427834, Note_on_c, 8, 80, 127
1, 427834, Note_on_c, 0, 60, 127
1, 427834, Note_on_c, 12, 71, 127
1, 427961, Note_off_c, 0, 60, 127
1, 427965, Note_on_c, 12, 59, 127
1, 428059, Note_off_c, 12, 71, 127
1, 428092, Note_off_c, 12, 59, 127
1, 428092, Note_off_c, 8, 80, 127
1, 428096, Note_on_c, 10, 81, 127
1, 428096, Note_on_c, 10, 57, 127
1, 428096, Note_on_c, 0, 72, 127
1, 428223, Note_off_c, 0, 72, 127
1, 428227, Note_on_c, 12, 71, 127
1, 428354, Note_off_c, 12, 71, 127
1, 428354, Note_off_c, 10, 57, 127
1, 428355, Note_off_c, 10, 81, 127
1, 428358, Note_on_c, 4, 64, 127
1, 428358, Note_on_c, 0, 72, 127
1, 428485, Note_off_c, 0, 72, 127
1, 428489, Note_on_c, 4, 76, 127
1, 428583, Note_off_c, 4, 64, 127
1, 428616, Note_off_c, 4, 76, 127
1, 428620, Note_on_c, 6, 66, 127
1, 428620, Note_on_c, 10, 69, 127
1, 428747, Note_off_c, 10, 69, 127
1, 428751, Note_on_c, 0, 72, 127
1, 428845, Note_off_c, 6, 66, 127
1, 428878, Note_off_c, 0, 72, 127
1, 428882, Note_on_c, 12, 59, 127
1, 428882, Note_on_c, 2, 74, 127
1, 429009, Note_off_c, 2, 74, 127
1, 429013, Note_on_c, 0, 72, 127
1, 429140, Note_off_c, 0, 72, 127
1, 429140, Note_off_c, 12, 59, 127
1, 429144, Note_on_c, 6, 66, 127
1, 429144, Note_on_c, 2, 74, 127
1, 429271, Note_off_c, 2, 74, 127
1, 429275, Note_on_c, 6, 78, 127
1, 429369, Note_off_c, 6, 66, 127
1, 429402, Note_off_c, 6, 78, 127
1, 429406, Note_on_c, 7, 67, 127
1, 429406, Note_on_c, 12, 71, 127
1, 429533, Note_off_c, 12, 71, 127
1, 429537, Note_on_c, 2, 74, 127
1, 429631, Note_off_c, 7, 67, 127
1, 429664, Note_off_c, 2, 74, 127
1, 429668, Note_on_c, 1, 61, 127
1, 429668, Note_on_c, 4, 76, 127
1, 429795, Note_off_c, 4, 76, 127
1, 429799, Note_on_c, 2, 74, 127
1, 429926, Note_off_c, 2, 74, 127
1, 429926, Note_off_c, 1, 61, 127
1, 429930, Note_on_c, 7, 67, 127
1, 429930, Note_on_c, 4, 76, 127
1, 430057, Note_off_c, 4, 76, 127
1, 430061, Note_on_c, 7, 79, 127
1, 430155, Note_off_c, 7, 67, 127
1, 430188, Note_off_c, 7, 79, 127
1, 430192, Note_on_c, 10, 69, 127
1, 430192, Note_on_c, 1, 73, 127
1, 430319, Note_off_c, 1, 73, 127
1, 430323, Note_on_c, 4, 76, 127
1, 430417, Note_off_c, 10, 69, 127
1, 430452, Note_off_c, 4, 76, 127
1, 430453, Note_on_c, 6, 78, 127
1, 430453, Note_on_c, 2, 62, 127
1, 430580, Note_off_c, 2, 62, 127
1, 430584, Note_on_c, 1, 61, 127
1, 430711, Note_off_c, 1, 61, 127
1, 430711, Note_off_c, 6, 78, 127
1, 430715, Note_on_c, 7, 79, 127
1, 430715, Note_on_c, 2, 62, 127
1, 430715, Note_on_c, 12, 71, 127
1, 430842, Note_off_c, 2, 62, 127
1, 430846, Note_on_c, 4, 64, 127
1, 430940, Note_off_c, 12, 71, 127
1, 430973, Note_off_c, 4, 64, 127
1, 430973, Note_off_c, 7, 79, 127
1, 430977, Note_on_c, 10, 81, 127
1, 430977, Note_on_c, 2, 62, 127
1, 430977, Note_on_c, 1, 73, 127
1, 431104, Note_off_c, 2, 62, 127
1, 431108, Note_on_c, 1, 61, 127
1, 431202, Note_off_c, 1, 73, 127
1, 431235, Note_off_c, 1, 61, 127
1, 431239, Note_on_c, 12, 59, 127
1, 431239, Note_on_c, 2, 74, 127
1, 431366, Note_off_c, 2, 74, 127
1, 431370, Note_on_c, 1, 73, 127
1, 431497, Note_off_c, 1, 73, 127
1, 431497, Note_off_c, 10, 81, 127
1, 431501, Note_on_c, 7, 79, 127
1, 431501, Note_on_c, 2, 74, 127
1, 431628, Note_off_c, 2, 74, 127
1, 431628, Note_off_c, 12, 59, 127
1, 431632, Note_on_c, 7, 55, 127
1, 431632, Note_on_c, 4, 76, 127
1, 431759, Note_off_c, 4, 76, 127
1, 431759, Note_off_c, 7, 55, 127
1, 431763, Note_on_c, 4, 52, 127
1, 431763, Note_on_c, 12, 71, 127
1, 431890, Note_off_c, 12, 71, 127
1, 431890, Note_off_c, 4, 52, 127
1, 431894, Note_on_c, 1, 49, 127
1, 431894, Note_on_c, 2, 74, 127
1, 432021, Note_off_c, 2, 74, 127
1, 432021, Note_off_c, 1, 49, 127
1, 432025, Note_on_c, 10, 57, 127
1, 432025, Note_on_c, 1, 73, 127
1, 432152, Note_off_c, 1, 73, 127
1, 432156, Note_on_c, 12, 71, 127
1, 432216, Note_off_c, 10, 57, 127
1, 432283, Note_off_c, 12, 71, 127
1, 432283, Note_off_c, 7, 79, 127
1, 432287, Note_on_c, 6, 78, 127
1, 432287, Note_on_c, 2, 50, 127
1, 432287, Note_on_c, 1, 73, 127
1, 432414, Note_off_c, 1, 73, 127
1, 432418, Note_on_c, 2, 74, 127
1, 432478, Note_off_c, 2, 50, 127
1, 432545, Note_off_c, 2, 74, 127
1, 432549, Note_on_c, 10, 69, 127
1, 432676, Note_off_c, 10, 69, 127
1, 432680, Note_on_c, 1, 73, 127
1, 432807, Note_off_c, 1, 73, 127
1, 432811, Note_on_c, 7, 55, 127
1, 432811, Note_on_c, 12, 71, 127
1, 432938, Note_off_c, 12, 71, 127
1, 432942, Note_on_c, 10, 69, 127
1, 433069, Note_off_c, 10, 69, 127
1, 433069, Note_off_c, 6, 78, 127
1, 433073, Note_on_c, 4, 76, 127
1, 433073, Note_on_c, 12, 71, 127
1, 433200, Note_off_c, 12, 71, 127
1, 433200, Note_off_c, 7, 55, 127
1, 433204, Note_on_c, 4, 52, 127
1, 433204, Note_on_c, 1, 73, 127
1, 433331, Note_off_c, 1, 73, 127
1, 433331, Note_off_c, 4, 52, 127
1, 433335, Note_on_c, 1, 49, 127
1, 433335, Note_on_c, 7, 67, 127
1, 433462, Note_off_c, 7, 67, 127
1, 433462, Note_off_c, 1, 49, 127
1, 433466, Note_on_c, 10, 45, 127
1, 433466, Note_on_c, 12, 71, 127
1, 433593, Note_off_c, 12, 71, 127
1, 433593, Note_off_c, 10, 45, 127
1, 433597, Note_on_c, 6, 54, 127
1, 433597, Note_on_c, 10, 69, 127
1, 433724, Note_off_c, 6, 54, 127
1, 433728, Note_on_c, 4, 52, 127
1, 433855, Note_off_c, 4, 52, 127
1, 433855, Note_off_c, 4, 76, 127
1, 433859, Note_on_c, 2, 74, 127
1, 433859, Note_on_c, 6, 54, 127
1, 433986, Note_off_c, 6, 54, 127
1, 433990, Note_on_c, 10, 57, 127
1, 434099, Note_off_c, 2, 74, 127
1, 434115, Note_off_c, 10, 69, 127
1, 434116, Note_off_c, 10, 57, 127
1, 434120, Note_on_c, 6, 78, 127
1, 434120, Note_on_c, 2, 50, 127
1, 434247, Note_off_c, 2, 50, 127
1, 434251, Note_on_c, 6, 54, 127
1, 434378, Note_off_c, 6, 54, 127
1, 434382, Note_on_c, 8, 56, 127
1, 434509, Note_off_c, 8, 56, 127
1, 434513, Note_on_c, 6, 54, 127
1, 434640, Note_off_c, 6, 54, 127
1, 434640, Note_off_c, 6, 78, 127
1, 434644, Note_on_c, 4, 76, 127
1, 434644, Note_on_c, 8, 56, 127
1, 434771, Note_off_c, 8, 56, 127
1, 434775, Note_on_c, 12, 59, 127
1, 434884, Note_off_c, 4, 76, 127
1, 434902, Note_off_c, 12, 59, 127
1, 434906, Note_on_c, 2, 74, 127
1, 434906, Note_on_c, 4, 52, 127
1, 435033, Note_off_c, 4, 52, 127
1, 435037, Note_on_c, 8, 56, 127
1, 435164, Note_off_c, 8, 56, 127
1, 435168, Note_on_c, 11, 58, 127
1, 435295, Note_off_c, 11, 58, 127
1, 435299, Note_on_c, 8, 56, 127
1, 435426, Note_off_c, 8, 56, 127
1, 435426, Note_off_c, 2, 74, 127
1, 435430, Note_on_c, 1, 73, 127
1, 435430, Note_on_c, 11, 58, 127
1, 435557, Note_off_c, 11, 58, 127
1, 435561, Note_on_c, 1, 61, 127
1, 435670, Note_off_c, 1, 73, 127
1, 435688, Note_off_c, 1, 61, 127
1, 435692, Note_on_c, 4, 76, 127
1, 435692, Note_on_c, 6, 54, 127
1, 435819, Note_off_c, 6, 54, 127
1, 435823, Note_on_c, 11, 58, 127
1, 435950, Note_off_c, 11, 58, 127
1, 435954, Note_on_c, 12, 59, 127
1, 436081, Note_off_c, 12, 59, 127
1, 436085, Note_on_c, 11, 58, 127
1, 436212, Note_off_c, 11, 58, 127
1, 436212, Note_off_c, 4, 76, 127
1, 436216, Note_on_c, 2, 74, 127
1, 436216, Note_on_c, 12, 59, 127
1, 436343, Note_off_c, 12, 59, 127
1, 436347, Note_on_c, 2, 62, 127
1, 436456, Note_off_c, 2, 74, 127
1, 436474, Note_off_c, 2, 62, 127
1, 436478, Note_on_c, 0, 72, 127
1, 436478, Note_on_c, 6, 54, 127
1, 436605, Note_off_c, 6, 54, 127
1, 436609, Note_on_c, 10, 57, 127
1, 436736, Note_off_c, 10, 57, 127
1, 436740, Note_on_c, 8, 56, 127
1, 436867, Note_off_c, 8, 56, 127
1, 436871, Note_on_c, 6, 54, 127
1, 436998, Note_off_c, 6, 54, 127
1, 436998, Note_off_c, 0, 72, 127
1, 437002, Note_on_c, 12, 71, 127
1, 437002, Note_on_c, 8, 56, 127
1, 437129, Note_off_c, 8, 56, 127
1, 437133, Note_on_c, 12, 59, 127
1, 437242, Note_off_c, 12, 71, 127
1, 437260, Note_off_c, 12, 59, 127
1, 437264, Note_on_c, 2, 74, 127
1, 437264, Note_on_c, 4, 52, 127
1, 437391, Note_off_c, 4, 52, 127
1, 437395, Note_on_c, 8, 56, 127
1, 437522, Note_off_c, 8, 56, 127
1, 437526, Note_on_c, 10, 57, 127
1, 437653, Note_off_c, 10, 57, 127
1, 437657, Note_on_c, 8, 56, 127
1, 437784, Note_off_c, 8, 56, 127
1, 437784, Note_off_c, 2, 74, 127
1, 437788, Note_on_c, 0, 72, 127
1, 437788, Note_on_c, 10, 57, 127
1, 437915, Note_off_c, 10, 57, 127
1, 437919, Note_on_c, 0, 60, 127
1, 438028, Note_off_c, 0, 72, 127
1, 438046, Note_off_c, 0, 60, 127
1, 438050, Note_on_c, 12, 71, 127
1, 438050, Note_on_c, 4, 52, 127
1, 438177, Note_off_c, 4, 52, 127
1, 438181, Note_on_c, 7, 55, 127
1, 438308, Note_off_c, 7, 55, 127
1, 438312, Note_on_c, 6, 54, 127
1, 438439, Note_off_c, 6, 54, 127
1, 438443, Note_on_c, 4, 52, 127
1, 438570, Note_off_c, 4, 52, 127
1, 438570, Note_off_c, 12, 71, 127
1, 438574, Note_on_c, 10, 69, 127
1, 438574, Note_on_c, 6, 54, 127
1, 438701, Note_off_c, 6, 54, 127
1, 438705, Note_on_c, 10, 57, 127
1, 438814, Note_off_c, 10, 69, 127
1, 438832, Note_off_c, 10, 57, 127
1, 438836, Note_on_c, 0, 72, 127
1, 438836, Note_on_c, 2, 50, 127
1, 438963, Note_off_c, 2, 50, 127
1, 438967, Note_on_c, 6, 54, 127
1, 439094, Note_off_c, 6, 54, 127
1, 439098, Note_on_c, 7, 55, 127
1, 439225, Note_off_c, 7, 55, 127
1, 439229, Note_on_c, 6, 54, 127
1, 439356, Note_off_c, 6, 54, 127
1, 439356, Note_off_c, 0, 72, 127
1, 439360, Note_on_c, 12, 71, 127
1, 439360, Note_on_c, 7, 55, 127
1, 439487, Note_off_c, 7, 55, 127
1, 439491, Note_on_c, 10, 57, 127
1, 439600, Note_off_c, 12, 71, 127
1, 439618, Note_off_c, 10, 57, 127
1, 439622, Note_on_c, 2, 74, 127
1, 439622, Note_on_c, 12, 59, 127
1, 439622, Note_on_c, 6, 66, 127
1, 439749, Note_off_c, 12, 59, 127
1, 439753, Note_on_c, 7, 55, 127
1, 439880, Note_off_c, 7, 55, 127
1, 439884, Note_on_c, 10, 57, 127
1, 440011, Note_off_c, 10, 57, 127
1, 440015, Note_on_c, 7, 55, 127
1, 440142, Note_off_c, 7, 55, 127
1, 440142, Note_off_c, 6, 66, 127
1, 440142, Note_off_c, 2, 74, 127
1, 440146, Note_on_c, 1, 73, 127
1, 440146, Note_on_c, 10, 57, 127
1, 440146, Note_on_c, 4, 64, 127
1, 440273, Note_off_c, 10, 57, 127
1, 440277, Note_on_c, 12, 59, 127
1, 440386, Note_off_c, 4, 64, 127
1, 440386, Note_off_c, 1, 73, 127
1, 440404, Note_off_c, 12, 59, 127
1, 440408, Note_on_c, 10, 81, 127
1, 440408, Note_on_c, 1, 61, 127
1, 440408, Note_on_c, 10, 69, 127
1, 440535, Note_off_c, 1, 61, 127
1, 440539, Note_on_c, 10, 57, 127
1, 440666, Note_off_c, 10, 57, 127
1, 440666, Note_off_c, 10, 69, 127
1, 440670, Note_on_c, 2, 62, 127
1, 440670, Note_on_c, 12, 71, 127
1, 440797, Note_off_c, 2, 62, 127
1, 440801, Note_on_c, 12, 59, 127
1, 440928, Note_off_c, 12, 59, 127
1, 440928, Note_off_c, 10, 81, 127
1, 440932, Note_on_c, 7, 79, 127
1, 440932, Note_on_c, 4, 64, 127
1, 441059, Note_off_c, 12, 71, 127
1, 441063, Note_on_c, 7, 67, 127
1, 441190, Note_off_c, 7, 67, 127
1, 441190, Note_off_c, 4, 64, 127
1, 441191, Note_off_c, 7, 79, 127
1, 441194, Note_on_c, 7, 55, 127
1, 441194, Note_on_c, 4, 64, 127
1, 441321, Note_off_c, 4, 64, 127
1, 441325, Note_on_c, 1, 61, 127
1, 441452, Note_off_c, 1, 61, 127
1, 441456, Note_on_c, 1, 73, 127
1, 441456, Note_on_c, 10, 69, 127
1, 441583, Note_off_c, 7, 55, 127
1, 441587, Note_on_c, 4, 52, 127
1, 441647, Note_off_c, 10, 69, 127
1, 441714, Note_off_c, 4, 52, 127
1, 441714, Note_off_c, 1, 73, 127
1, 441718, Note_on_c, 10, 69, 127
1, 441718, Note_on_c, 6, 54, 127
1, 441718, Note_on_c, 2, 62, 127
1, 441845, Note_off_c, 6, 54, 127
1, 441849, Note_on_c, 10, 57, 127
1, 441909, Note_off_c, 2, 62, 127
1, 441976, Note_off_c, 10, 57, 127
1, 441976, Note_off_c, 10, 69, 127
1, 441980, Note_on_c, 2, 74, 127
1, 441980, Note_on_c, 7, 55, 127
1, 442107, Note_off_c, 7, 55, 127
1, 442111, Note_on_c, 6, 54, 127
1, 442238, Note_off_c, 6, 54, 127
1, 442242, Note_on_c, 4, 52, 127
1, 442242, Note_on_c, 7, 67, 127
1, 442369, Note_off_c, 4, 52, 127
1, 442373, Note_on_c, 10, 45, 127
1, 442500, Note_off_c, 10, 45, 127
1, 442500, Note_off_c, 2, 74, 127
1, 442504, Note_on_c, 1, 73, 127
1, 442504, Note_on_c, 10, 57, 127
1, 442631, Note_off_c, 10, 57, 127
1, 442631, Note_off_c, 7, 67, 127
1, 442635, Note_on_c, 7, 55, 127
1, 442635, Note_on_c, 4, 64, 127
1, 442762, Note_off_c, 4, 64, 127
1, 442762, Note_off_c, 7, 55, 127
1, 442763, Note_off_c, 1, 73, 127
1, 442766, Note_on_c, 6, 54, 127
1, 442766, Note_on_c, 1, 61, 127
1, 442893, Note_off_c, 1, 61, 127
1, 442893, Note_off_c, 6, 54, 127
1, 442897, Note_on_c, 4, 52, 127
1, 442897, Note_on_c, 10, 57, 127
1, 443024, Note_off_c, 10, 57, 127
1, 443024, Note_off_c, 4, 52, 127
1, 443028, Note_on_c, 2, 74, 127
1, 443028, Note_on_c, 2, 50, 127
1, 443028, Note_on_c, 6, 66, 127
1, 443155, Note_off_c, 6, 66, 127
1, 443159, Note_on_c, 4, 64, 127
1, 443286, Note_off_c, 4, 64, 127
1, 443286, Note_off_c, 2, 50, 127
1, 443290, Note_on_c, 10, 57, 127
1, 443290, Note_on_c, 6, 66, 127
1, 443417, Note_off_c, 6, 66, 127
1, 443421, Note_on_c, 10, 69, 127
1, 443515, Note_off_c, 10, 57, 127
1, 443548, Note_off_c, 10, 69, 127
1, 443552, Note_on_c, 12, 59, 127
1, 443552, Note_on_c, 2, 62, 127
1, 443679, Note_off_c, 2, 62, 127
1, 443683, Note_on_c, 6, 66, 127
1, 443777, Note_off_c, 12, 59, 127
1, 443810, Note_off_c, 6, 66, 127
1, 443814, Note_on_c, 4, 52, 127
1, 443814, Note_on_c, 7, 67, 127
1, 443941, Note_off_c, 2, 74, 127
1, 443945, Note_on_c, 0, 72, 127
1, 444072, Note_off_c, 0, 72, 127
1, 444072, Note_off_c, 4, 52, 127
1, 444076, Note_on_c, 2, 74, 127
1, 444076, Note_on_c, 12, 47, 127
1, 444203, Note_off_c, 2, 74, 127
1, 444207, Note_on_c, 4, 76, 127
1, 444301, Note_off_c, 12, 47, 127
1, 444334, Note_off_c, 4, 76, 127
1, 444338, Note_on_c, 12, 71, 127
1, 444338, Note_on_c, 7, 43, 127
1, 444465, Note_off_c, 12, 71, 127
1, 444469, Note_on_c, 2, 74, 127
1, 444563, Note_off_c, 7, 43, 127
1, 444596, Note_off_c, 2, 74, 127
1, 444600, Note_on_c, 0, 72, 127
1, 444600, Note_on_c, 4, 40, 127
1, 444727, Note_off_c, 7, 67, 127
1, 444731, Note_on_c, 6, 66, 127
1, 444858, Note_off_c, 6, 66, 127
1, 444858, Note_off_c, 4, 40, 127
1, 444862, Note_on_c, 12, 59, 127
1, 444862, Note_on_c, 7, 67, 127
1, 444989, Note_off_c, 7, 67, 127
1, 444993, Note_on_c, 12, 71, 127
1, 445087, Note_off_c, 12, 59, 127
1, 445120, Note_off_c, 12, 71, 127
1, 445124, Note_on_c, 0, 60, 127
1, 445124, Note_on_c, 4, 64, 127
1, 445251, Note_off_c, 4, 64, 127
1, 445255, Note_on_c, 7, 67, 127
1, 445349, Note_off_c, 0, 60, 127
1, 445382, Note_off_c, 7, 67, 127
1, 445386, Note_on_c, 6, 54, 127
1, 445386, Note_on_c, 10, 69, 127
1, 445513, Note_off_c, 0, 72, 127
1, 445517, Note_on_c, 12, 71, 127
1, 445644, Note_off_c, 12, 71, 127
1, 445644, Note_off_c, 6, 54, 127
1, 445648, Note_on_c, 0, 72, 127
1, 445648, Note_on_c, 2, 50, 127
1, 445775, Note_off_c, 0, 72, 127
1, 445779, Note_on_c, 2, 74, 127
1, 445904, Note_off_c, 10, 69, 127
1, 445905, Note_off_c, 2, 74, 127
1, 445905, Note_off_c, 2, 50, 127
1, 445909, Note_on_c, 10, 69, 127
1, 445909, Note_on_c, 4, 52, 127
1, 446040, Note_on_c, 0, 72, 127
1, 446167, Note_off_c, 0, 72, 127
1, 446167, Note_off_c, 4, 52, 127
1, 446168, Note_off_c, 10, 69, 127
1, 446171, Note_on_c, 12, 71, 127
1, 446171, Note_on_c, 5, 53, 127
1, 446171, Note_on_c, 7, 67, 127
1, 446298, Note_off_c, 12, 71, 127
1, 446302, Note_on_c, 10, 69, 127
1, 446429, Note_off_c, 10, 69, 127
1, 446429, Note_off_c, 5, 53, 127
1, 446433, Note_on_c, 12, 71, 127
1, 446433, Note_on_c, 4, 52, 127
1, 446560, Note_off_c, 12, 71, 127
1, 446564, Note_on_c, 0, 72, 127
1, 446691, Note_off_c, 0, 72, 127
1, 446691, Note_off_c, 4, 52, 127
1, 446695, Note_on_c, 2, 74, 127
1, 446695, Note_on_c, 2, 50, 127
1, 446822, Note_off_c, 2, 74, 127
1, 446826, Note_on_c, 12, 71, 127
1, 446953, Note_off_c, 12, 71, 127
1, 446953, Note_off_c, 2, 50, 127
1, 446957, Note_on_c, 4, 76, 127
1, 446957, Note_on_c, 0, 48, 127
1, 447084, Note_off_c, 7, 67, 127
1, 447088, Note_on_c, 7, 55, 127
1, 447215, Note_off_c, 7, 55, 127
1, 447219, Note_on_c, 0, 60, 127
1, 447346, Note_off_c, 0, 48, 127
1, 447346, Note_off_c, 4, 76, 127
1, 447350, Note_on_c, 0, 72, 127
1, 447350, Note_on_c, 10, 57, 127
1, 447477, Note_off_c, 10, 57, 127
1, 447477, Note_off_c, 0, 72, 127
1, 447481, Note_on_c, 10, 69, 127
1, 447481, Note_on_c, 6, 54, 127
1, 447608, Note_off_c, 6, 54, 127
1, 447608, Note_off_c, 10, 69, 127
1, 447612, Note_on_c, 6, 66, 127
1, 447612, Note_on_c, 10, 57, 127
1, 447739, Note_off_c, 10, 57, 127
1, 447739, Note_off_c, 6, 66, 127
1, 447743, Note_on_c, 2, 74, 127
1, 447743, Note_on_c, 12, 47, 127
1, 447870, Note_off_c, 0, 60, 127
1, 447874, Note_on_c, 10, 57, 127
1, 447934, Note_off_c, 2, 74, 127
1, 448001, Note_off_c, 10, 57, 127
1, 448005, Note_on_c, 7, 67, 127
1, 448005, Note_on_c, 12, 59, 127
1, 448132, Note_off_c, 12, 47, 127
1, 448136, Note_on_c, 7, 55, 127
1, 448196, Note_off_c, 7, 67, 127
1, 448263, Note_off_c, 7, 55, 127
1, 448267, Note_on_c, 4, 52, 127
1, 448394, Note_off_c, 4, 52, 127
1, 448398, Note_on_c, 7, 55, 127
1, 448525, Note_off_c, 7, 55, 127
1, 448529, Note_on_c, 0, 72, 127
1, 448529, Note_on_c, 10, 45, 127
1, 448656, Note_off_c, 12, 59, 127
1, 448660, Note_on_c, 7, 55, 127
1, 448787, Note_off_c, 7, 55, 127
1, 448791, Note_on_c, 10, 57, 127
1, 448918, Note_off_c, 10, 45, 127
1, 448918, Note_off_c, 0, 72, 127
1, 448922, Note_on_c, 10, 69, 127
1, 448922, Note_on_c, 6, 54, 127
1, 449049, Note_off_c, 6, 54, 127
1, 449049, Note_off_c, 10, 69, 127
1, 449053, Note_on_c, 6, 66, 127
1, 449053, Note_on_c, 2, 50, 127
1, 449180, Note_off_c, 2, 50, 127
1, 449180, Note_off_c, 6, 66, 127
1, 449184, Note_on_c, 2, 62, 127
1, 449184, Note_on_c, 6, 54, 127
1, 449311, Note_off_c, 6, 54, 127
1, 449311, Note_off_c, 2, 62, 127
1, 449315, Note_on_c, 12, 71, 127
1, 449315, Note_on_c, 7, 43, 127
1, 449442, Note_off_c, 10, 57, 127
1, 449446, Note_on_c, 6, 54, 127
1, 449506, Note_off_c, 12, 71, 127
1, 449573, Note_off_c, 6, 54, 127
1, 449577, Note_on_c, 4, 64, 127
1, 449577, Note_on_c, 7, 55, 127
1, 449704, Note_off_c, 7, 43, 127
1, 449708, Note_on_c, 4, 52, 127
1, 449768, Note_off_c, 4, 64, 127
1, 449835, Note_off_c, 4, 52, 127
1, 449839, Note_on_c, 1, 49, 127
1, 449966, Note_off_c, 1, 49, 127
1, 449970, Note_on_c, 4, 52, 127
1, 450097, Note_off_c, 4, 52, 127
1, 450101, Note_on_c, 10, 69, 127
1, 450101, Note_on_c, 6, 42, 127
1, 450228, Note_off_c, 7, 55, 127
1, 450232, Note_on_c, 4, 52, 127
1, 450359, Note_off_c, 4, 52, 127
1, 450363, Note_on_c, 6, 54, 127
1, 450490, Note_off_c, 6, 42, 127
1, 450490, Note_off_c, 10, 69, 127
1, 450494, Note_on_c, 6, 66, 127
1, 450494, Note_on_c, 2, 50, 127
1, 450621, Note_off_c, 2, 50, 127
1, 450621, Note_off_c, 6, 66, 127
1, 450625, Note_on_c, 2, 62, 127
1, 450625, Note_on_c, 12, 47, 127
1, 450752, Note_off_c, 12, 47, 127
1, 450752, Note_off_c, 2, 62, 127
1, 450756, Note_on_c, 12, 59, 127
1, 450756, Note_on_c, 2, 50, 127
1, 450883, Note_off_c, 2, 50, 127
1, 450883, Note_off_c, 12, 59, 127
1, 450887, Note_on_c, 7, 67, 127
1, 450887, Note_on_c, 4, 40, 127
1, 451014, Note_off_c, 6, 54, 127
1, 451018, Note_on_c, 2, 50, 127
1, 451078, Note_off_c, 7, 67, 127
1, 451145, Note_off_c, 2, 50, 127
1, 451149, Note_on_c, 1, 61, 127
1, 451149, Note_on_c, 4, 52, 127
1, 451276, Note_off_c, 4, 40, 127
1, 451280, Note_on_c, 1, 49, 127
1, 451340, Note_off_c, 1, 61, 127
1, 451407, Note_off_c, 1, 49, 127
1, 451408, Note_off_c, 4, 52, 127
1, 451411, Note_on_c, 10, 45, 127
1, 451538, Note_off_c, 10, 45, 127
1, 451542, Note_on_c, 1, 49, 127
1, 451669, Note_off_c, 1, 49, 127
1, 451673, Note_on_c, 2, 38, 127
1, 451804, Note_on_c, 4, 64, 127
1, 451931, Note_off_c, 4, 64, 127
1, 451931, Note_off_c, 2, 38, 127
1, 451935, Note_on_c, 6, 66, 127
1, 451935, Note_on_c, 10, 45, 127
1, 452062, Note_off_c, 6, 66, 127
1, 452066, Note_on_c, 10, 69, 127
1, 452160, Note_off_c, 10, 45, 127
1, 452193, Note_off_c, 10, 69, 127
1, 452197, Note_on_c, 2, 62, 127
1, 452197, Note_on_c, 12, 47, 127
1, 452324, Note_off_c, 2, 62, 127
1, 452328, Note_on_c, 6, 66, 127
1, 452422, Note_off_c, 12, 47, 127
1, 452455, Note_off_c, 6, 66, 127
1, 452459, Note_on_c, 7, 67, 127
1, 452459, Note_on_c, 4, 40, 127
1, 452586, Note_off_c, 7, 67, 127
1, 452590, Note_on_c, 6, 66, 127
1, 452717, Note_off_c, 6, 66, 127
1, 452717, Note_off_c, 4, 40, 127
1, 452721, Note_on_c, 7, 67, 127
1, 452721, Note_on_c, 12, 47, 127
1, 452848, Note_off_c, 7, 67, 127
1, 452852, Note_on_c, 12, 71, 127
1, 452946, Note_off_c, 12, 47, 127
1, 452979, Note_off_c, 12, 71, 127
1, 452983, Note_on_c, 4, 64, 127
1, 452983, Note_on_c, 0, 48, 127
1, 453110, Note_off_c, 4, 64, 127
1, 453114, Note_on_c, 7, 67, 127
1, 453208, Note_off_c, 0, 48, 127
1, 453241, Note_off_c, 7, 67, 127
1, 453245, Note_on_c, 10, 69, 127
1, 453245, Note_on_c, 6, 42, 127
1, 453372, Note_off_c, 10, 69, 127
1, 453376, Note_on_c, 7, 67, 127
1, 453503, Note_off_c, 7, 67, 127
1, 453503, Note_off_c, 6, 42, 127
1, 453507, Note_on_c, 10, 69, 127
1, 453507, Note_on_c, 0, 48, 127
1, 453634, Note_off_c, 10, 69, 127
1, 453638, Note_on_c, 0, 72, 127
1, 453732, Note_off_c, 0, 48, 127
1, 453765, Note_off_c, 0, 72, 127
1, 453769, Note_on_c, 6, 66, 127
1, 453769, Note_on_c, 2, 50, 127
1, 453896, Note_off_c, 6, 66, 127
1, 453900, Note_on_c, 10, 69, 127
1, 453994, Note_off_c, 2, 50, 127
1, 454027, Note_off_c, 10, 69, 127
1, 454031, Note_on_c, 12, 71, 127
1, 454031, Note_on_c, 7, 43, 127
1, 454158, Note_off_c, 12, 71, 127
1, 454162, Note_on_c, 10, 69, 127
1, 454289, Note_off_c, 10, 69, 127
1, 454289, Note_off_c, 7, 43, 127
1, 454293, Note_on_c, 12, 71, 127
1, 454293, Note_on_c, 2, 50, 127
1, 454420, Note_off_c, 12, 71, 127
1, 454424, Note_on_c, 1, 73, 127
1, 454518, Note_off_c, 2, 50, 127
1, 454551, Note_off_c, 1, 73, 127
1, 454555, Note_on_c, 2, 74, 127
1, 454555, Note_on_c, 4, 52, 127
1, 454682, Note_off_c, 2, 74, 127
1, 454686, Note_on_c, 12, 71, 127
1, 454780, Note_off_c, 4, 52, 127
1, 454813, Note_off_c, 12, 71, 127
1, 454817, Note_on_c, 1, 73, 127
1, 454817, Note_on_c, 10, 45, 127
1, 454944, Note_off_c, 10, 45, 127
1, 454948, Note_on_c, 6, 54, 127
1, 455075, Note_off_c, 6, 54, 127
1, 455075, Note_off_c, 1, 73, 127
1, 455079, Note_on_c, 10, 69, 127
1, 455079, Note_on_c, 7, 55, 127
1, 455206, Note_off_c, 7, 55, 127
1, 455210, Note_on_c, 10, 57, 127
1, 455319, Note_off_c, 10, 69, 127
1, 455337, Note_off_c, 10, 57, 127
1, 455341, Note_on_c, 4, 76, 127
1, 455341, Note_on_c, 4, 52, 127
1, 455468, Note_off_c, 4, 52, 127
1, 455472, Note_on_c, 7, 55, 127
1, 455599, Note_off_c, 7, 55, 127
1, 455603, Note_on_c, 6, 54, 127
1, 455730, Note_off_c, 6, 54, 127
1, 455734, Note_on_c, 4, 52, 127
1, 455861, Note_off_c, 4, 52, 127
1, 455861, Note_off_c, 4, 76, 127
1, 455865, Note_on_c, 2, 74, 127
1, 455865, Note_on_c, 6, 54, 127
1, 455992, Note_off_c, 6, 54, 127
1, 455996, Note_on_c, 10, 57, 127
1, 456105, Note_off_c, 2, 74, 127
1, 456123, Note_off_c, 10, 57, 127
1, 456127, Note_on_c, 6, 78, 127
1, 456127, Note_on_c, 2, 50, 127
1, 456127, Note_on_c, 2, 74, 127
1, 456254, Note_off_c, 2, 50, 127
1, 456258, Note_on_c, 6, 54, 127
1, 456385, Note_off_c, 6, 54, 127
1, 456389, Note_on_c, 4, 52, 127
1, 456516, Note_off_c, 4, 52, 127
1, 456520, Note_on_c, 2, 50, 127
1, 456647, Note_off_c, 2, 50, 127
1, 456647, Note_off_c, 2, 74, 127
1, 456647, Note_off_c, 6, 78, 127
1, 456651, Note_on_c, 4, 76, 127
1, 456651, Note_on_c, 4, 52, 127
1, 456651, Note_on_c, 1, 73, 127
1, 456778, Note_off_c, 4, 52, 127
1, 456782, Note_on_c, 7, 55, 127
1, 456891, Note_off_c, 1, 73, 127
1, 456891, Note_off_c, 4, 76, 127
1, 456909, Note_off_c, 7, 55, 127
1, 456913, Note_on_c, 7, 79, 127
1, 456913, Note_on_c, 1, 49, 127
1, 456913, Note_on_c, 4, 76, 127
1, 457040, Note_off_c, 1, 49, 127
1, 457044, Note_on_c, 4, 52, 127
1, 457171, Note_off_c, 4, 52, 127
1, 457175, Note_on_c, 2, 50, 127
1, 457302, Note_off_c, 2, 50, 127
1, 457306, Note_on_c, 1, 49, 127
1, 457433, Note_off_c, 1, 49, 127
1, 457433, Note_off_c, 4, 76, 127
1, 457433, Note_off_c, 7, 79, 127
1, 457437, Note_on_c, 6, 78, 127
1, 457437, Note_on_c, 2, 50, 127
1, 457437, Note_on_c, 2, 74, 127
1, 457564, Note_off_c, 2, 50, 127
1, 457568, Note_on_c, 6, 54, 127
1, 457677, Note_off_c, 2, 74, 127
1, 457677, Note_off_c, 6, 78, 127
1, 457695, Note_off_c, 6, 54, 127
1, 457699, Note_on_c, 10, 81, 127
1, 457699, Note_on_c, 12, 47, 127
1, 457699, Note_on_c, 6, 78, 127
1, 457826, Note_off_c, 12, 47, 127
1, 457830, Note_on_c, 2, 50, 127
1, 457957, Note_off_c, 2, 50, 127
1, 457957, Note_off_c, 10, 81, 127
1, 457961, Note_on_c, 12, 83, 127
1, 457961, Note_on_c, 7, 43, 127
1, 458088, Note_off_c, 6, 78, 127
1, 458092, Note_on_c, 2, 74, 127
1, 458219, Note_off_c, 2, 74, 127
1, 458219, Note_off_c, 7, 43, 127
1, 458223, Note_on_c, 7, 55, 127
1, 458223, Note_on_c, 4, 76, 127
1, 458350, Note_off_c, 12, 83, 127
1, 458354, Note_on_c, 7, 79, 127
1, 458481, Note_off_c, 7, 79, 127
1, 458481, Note_off_c, 4, 76, 127
1, 458482, Note_off_c, 7, 55, 127
1, 458485, Note_on_c, 4, 76, 127
1, 458485, Note_on_c, 7, 67, 127
1, 458612, Note_off_c, 4, 76, 127
1, 458616, Note_on_c, 1, 73, 127
1, 458743, Note_off_c, 1, 73, 127
1, 458747, Note_on_c, 10, 81, 127
1, 458874, Note_off_c, 7, 67, 127
1, 458878, Note_on_c, 4, 64, 127
1, 458938, Note_off_c, 10, 81, 127
1, 459005, Note_off_c, 4, 64, 127
1, 459009, Note_on_c, 2, 74, 127
1, 459009, Note_on_c, 6, 66, 127
1, 459136, Note_off_c, 6, 66, 127
1, 459140, Note_on_c, 10, 69, 127
1, 459200, Note_off_c, 2, 74, 127
1, 459267, Note_off_c, 10, 69, 127
1, 459271, Note_on_c, 6, 54, 127
1, 459271, Note_on_c, 2, 62, 127
1, 459398, Note_off_c, 2, 62, 127
1, 459402, Note_on_c, 6, 66, 127
1, 459529, Note_off_c, 6, 66, 127
1, 459533, Note_on_c, 7, 79, 127
1, 459533, Note_on_c, 12, 71, 127
1, 459660, Note_off_c, 6, 54, 127
1, 459664, Note_on_c, 2, 50, 127
1, 459791, Note_off_c, 2, 50, 127
1, 459791, Note_off_c, 12, 71, 127
1, 459795, Note_on_c, 4, 52, 127
1, 459795, Note_on_c, 1, 73, 127
1, 459922, Note_off_c, 4, 52, 127
1, 459922, Note_off_c, 7, 79, 127
1, 459926, Note_on_c, 4, 76, 127
1, 459926, Note_on_c, 7, 55, 127
1, 460053, Note_off_c, 7, 55, 127
1, 460053, Note_off_c, 4, 76, 127
1, 460054, Note_off_c, 1, 73, 127
1, 460057, Note_on_c, 1, 73, 127
1, 460057, Note_on_c, 10, 45, 127
1, 460184, Note_off_c, 10, 45, 127
1, 460184, Note_off_c, 1, 73, 127
1, 460188, Note_on_c, 10, 69, 127
1, 460188, Note_on_c, 1, 49, 127
1, 460315, Note_off_c, 1, 49, 127
1, 460315, Note_off_c, 10, 69, 127
1, 460319, Note_on_c, 6, 78, 127
1, 460319, Note_on_c, 2, 50, 127
1, 460446, Note_off_c, 2, 50, 127
1, 460450, Note_on_c, 4, 52, 127
1, 460577, Note_off_c, 4, 52, 127
1, 460577, Note_off_c, 6, 78, 127
1, 460581, Note_on_c, 6, 54, 127
1, 460581, Note_on_c, 10, 69, 127
1, 460581, Note_on_c, 2, 74, 127
1, 460708, Note_off_c, 6, 54, 127
1, 460712, Note_on_c, 10, 57, 127
1, 460839, Note_off_c, 10, 57, 127
1, 460839, Note_off_c, 2, 74, 127
1, 460839, Note_off_c, 10, 69, 127
1, 460843, Note_on_c, 0, 72, 127
1, 460843, Note_on_c, 2, 50, 127
1, 460843, Note_on_c, 10, 69, 127
1, 460970, Note_off_c, 2, 50, 127
1, 460974, Note_on_c, 6, 54, 127
1, 461101, Note_off_c, 6, 54, 127
1, 461101, Note_off_c, 0, 72, 127
1, 461105, Note_on_c, 12, 71, 127
1, 461105, Note_on_c, 7, 55, 127
1, 461232, Note_off_c, 7, 55, 127
1, 461232, Note_off_c, 10, 69, 127
1, 461236, Note_on_c, 4, 52, 127
1, 461236, Note_on_c, 7, 67, 127
1, 461363, Note_off_c, 4, 52, 127
1, 461363, Note_off_c, 12, 71, 127
1, 461367, Note_on_c, 4, 76, 127
1, 461367, Note_on_c, 1, 49, 127
1, 461494, Note_off_c, 1, 49, 127
1, 461498, Note_on_c, 4, 52, 127
1, 461625, Note_off_c, 4, 52, 127
1, 461625, Note_off_c, 4, 76, 127
1, 461625, Note_off_c, 7, 67, 127
1, 461629, Note_on_c, 7, 67, 127
1, 461629, Note_on_c, 10, 45, 127
1, 461629, Note_on_c, 4, 64, 127
1, 461756, Note_off_c, 10, 45, 127
1, 461760, Note_on_c, 1, 49, 127
1, 461887, Note_off_c, 1, 49, 127
1, 461891, Note_on_c, 2, 38, 127
1, 462149, Note_off_c, 2, 38, 127
1, 462149, Note_off_c, 4, 64, 127
1, 462149, Note_off_c, 7, 67, 127
1, 462150, Note_on_c, 2, 50, 127
1, 462153, Note_on_c, 2, 62, 127
1, 462153, Note_on_c, 6, 66, 127
1, 462385, Note_off_c, 6, 66, 127
1, 462385, Note_off_c, 2, 62, 127
1, 462408, Note_off_c, 2, 50, 127
1, 462444, Note_on_c, 10, 57, 127
1, 462675, Note_off_c, 10, 57, 127
1, 462723, Note_on_c, 2, 50, 127
1, 462912, Note_off_c, 2, 50, 127
1, 463004, Note_on_c, 7, 55, 127
1, 463229, Note_off_c, 7, 55, 127
1, 463611, Note_on_c, 7, 55, 127
1, 463748, Note_off_c, 7, 55, 127
1, 463756, Note_on_c, 6, 54, 127
1, 463883, Note_off_c, 6, 54, 127
1, 463887, Note_on_c, 4, 52, 127
1, 464014, Note_off_c, 4, 52, 127
1, 464018, Note_on_c, 6, 54, 127
1, 464145, Note_off_c, 6, 54, 127
1, 464149, Note_on_c, 2, 50, 127
1, 464276, Note_off_c, 2, 50, 127
1, 464280, Note_on_c, 12, 47, 127
1, 464407, Note_off_c, 12, 47, 127
1, 464411, Note_on_c, 1, 49, 127
1, 464538, Note_off_c, 1, 49, 127
1, 464542, Note_on_c, 2, 50, 127
1, 464625, Note_off_c, 2, 50, 127
1, 464629, Note_on_c, 1, 49, 127
1, 464712, Note_off_c, 1, 49, 127
1, 464716, Note_on_c, 2, 50, 127
1, 464799, Note_off_c, 2, 50, 127
1, 464803, Note_on_c, 1, 49, 127
1, 464886, Note_off_c, 1, 49, 127
1, 464890, Note_on_c, 12, 47, 127
1, 464973, Note_off_c, 12, 47, 127
1, 464977, Note_on_c, 1, 49, 127
1, 465060, Note_off_c, 1, 49, 127
1, 465064, Note_on_c, 2, 50, 127
1, 465191, Note_off_c, 2, 50, 127
1, 465195, Note_on_c, 1, 49, 127
1, 465322, Note_off_c, 1, 49, 127
1, 465326, Note_on_c, 2, 50, 127
1, 465453, Note_off_c, 2, 50, 127
1, 465457, Note_on_c, 4, 52, 127
1, 465584, Note_off_c, 4, 52, 127
1, 465588, Note_on_c, 6, 54, 127
1, 465588, Note_on_c, 2, 62, 127
1, 465715, Note_off_c, 6, 54, 127
1, 465719, Note_on_c, 2, 50, 127
1, 465846, Note_off_c, 2, 50, 127
1, 465846, Note_off_c, 2, 62, 127
1, 465850, Note_on_c, 4, 52, 127
1, 465850, Note_on_c, 7, 55, 127
1, 465977, Note_off_c, 4, 52, 127
1, 465981, Note_on_c, 2, 50, 127
1, 466041, Note_off_c, 7, 55, 127
1, 466108, Note_off_c, 2, 50, 127
1, 466112, Note_on_c, 4, 52, 127
1, 466112, Note_on_c, 0, 60, 127
1, 466239, Note_off_c, 4, 52, 127
1, 466243, Note_on_c, 6, 54, 127
1, 466303, Note_off_c, 0, 60, 127
1, 466370, Note_off_c, 6, 54, 127
1, 466374, Note_on_c, 7, 55, 127
1, 466501, Note_off_c, 7, 55, 127
1, 466505, Note_on_c, 4, 52, 127
1, 466632, Note_off_c, 4, 52, 127
1, 466636, Note_on_c, 6, 54, 127
1, 466767, Note_on_c, 0, 60, 127
1, 466894, Note_off_c, 0, 60, 127
1, 466894, Note_off_c, 6, 54, 127
1, 466898, Note_on_c, 2, 50, 127
1, 466898, Note_on_c, 12, 59, 127
1, 467025, Note_off_c, 12, 59, 127
1, 467029, Note_on_c, 10, 57, 127
1, 467156, Note_off_c, 10, 57, 127
1, 467156, Note_off_c, 2, 50, 127
1, 467160, Note_on_c, 7, 55, 127
1, 467160, Note_on_c, 12, 59, 127
1, 467287, Note_off_c, 12, 59, 127
1, 467290, Note_off_c, 7, 55, 127
1, 467291, Note_on_c, 7, 55, 127
1, 467418, Note_off_c, 7, 55, 127
1, 467422, Note_on_c, 4, 52, 127
1, 467549, Note_off_c, 4, 52, 127
1, 467553, Note_on_c, 2, 50, 127
1, 467553, Note_on_c, 6, 54, 127
1, 467680, Note_off_c, 6, 54, 127
1, 467680, Note_off_c, 2, 50, 127
1, 467684, Note_on_c, 0, 48, 127
1, 467684, Note_on_c, 7, 55, 127
1, 467745, Note_off_c, 7, 55, 127
1, 467749, Note_on_c, 6, 54, 127
1, 467810, Note_off_c, 6, 54, 127
1, 467810, Note_off_c, 0, 48, 127
1, 467814, Note_on_c, 12, 47, 127
1, 467814, Note_on_c, 7, 55, 127
1, 467875, Note_off_c, 7, 55, 127
1, 467879, Note_on_c, 6, 54, 127
1, 467940, Note_off_c, 6, 54, 127
1, 467940, Note_off_c, 12, 47, 127
1, 467944, Note_on_c, 0, 48, 127
1, 467944, Note_on_c, 7, 55, 127
1, 468005, Note_off_c, 7, 55, 127
1, 468009, Note_on_c, 6, 54, 127
1, 468070, Note_off_c, 6, 54, 127
1, 468070, Note_off_c, 0, 48, 127
1, 468074, Note_on_c, 10, 45, 127
1, 468074, Note_on_c, 4, 52, 127
1, 468135, Note_off_c, 4, 52, 127
1, 468139, Note_on_c, 6, 54, 127
1, 468200, Note_off_c, 6, 54, 127
1, 468200, Note_off_c, 10, 45, 127
1, 468204, Note_on_c, 12, 47, 127
1, 468204, Note_on_c, 7, 55, 127
1, 468331, Note_off_c, 12, 47, 127
1, 468335, Note_on_c, 4, 52, 127
1, 468422, Note_off_c, 7, 55, 127
1, 468462, Note_off_c, 4, 52, 127
1, 468466, Note_on_c, 2, 50, 127
1, 468466, Note_on_c, 10, 57, 127
1, 468527, Note_off_c, 10, 57, 127
1, 468531, Note_on_c, 8, 56, 127
1, 468592, Note_off_c, 8, 56, 127
1, 468592, Note_off_c, 2, 50, 127
1, 468596, Note_on_c, 1, 49, 127
1, 468596, Note_on_c, 10, 57, 127
1, 468657, Note_off_c, 10, 57, 127
1, 468661, Note_on_c, 8, 56, 127
1, 468722, Note_off_c, 8, 56, 127
1, 468722, Note_off_c, 1, 49, 127
1, 468726, Note_on_c, 2, 50, 127
1, 468726, Note_on_c, 10, 57, 127
1, 468787, Note_off_c, 10, 57, 127
1, 468791, Note_on_c, 8, 56, 127
1, 468852, Note_off_c, 8, 56, 127
1, 468852, Note_off_c, 2, 50, 127
1, 468856, Note_on_c, 12, 47, 127
1, 468856, Note_on_c, 6, 54, 127
1, 468917, Note_off_c, 6, 54, 127
1, 468921, Note_on_c, 8, 56, 127
1, 468982, Note_off_c, 8, 56, 127
1, 468982, Note_off_c, 12, 47, 127
1, 468986, Note_on_c, 1, 49, 127
1, 468986, Note_on_c, 10, 57, 127
1, 469113, Note_off_c, 10, 57, 127
1, 469117, Note_on_c, 12, 59, 127
1, 469204, Note_off_c, 1, 49, 127
1, 469244, Note_off_c, 12, 59, 127
1, 469248, Note_on_c, 4, 52, 127
1, 469248, Note_on_c, 10, 57, 127
1, 469331, Note_off_c, 4, 52, 127
1, 469335, Note_on_c, 3, 51, 127
1, 469375, Note_off_c, 10, 57, 127
1, 469379, Note_on_c, 7, 55, 127
1, 469419, Note_off_c, 3, 51, 127
1, 469423, Note_on_c, 4, 52, 127
1, 469506, Note_off_c, 4, 52, 127
1, 469506, Note_off_c, 7, 55, 127
1, 469510, Note_on_c, 3, 51, 127
1, 469510, Note_on_c, 10, 57, 127
1, 469593, Note_off_c, 3, 51, 127
1, 469597, Note_on_c, 1, 49, 127
1, 469637, Note_off_c, 10, 57, 127
1, 469641, Note_on_c, 6, 54, 127
1, 469681, Note_off_c, 1, 49, 127
1, 469685, Note_on_c, 3, 51, 127
1, 469768, Note_off_c, 3, 51, 127
1, 469768, Note_off_c, 6, 54, 127
1, 469772, Note_on_c, 4, 52, 127
1, 469772, Note_on_c, 7, 55, 127
1, 469874, Note_off_c, 7, 55, 127
1, 469899, Note_off_c, 4, 52, 127
1, 469903, Note_on_c, 6, 54, 127
1, 469903, Note_on_c, 12, 59, 127
1, 470030, Note_off_c, 12, 59, 127
1, 470030, Note_off_c, 6, 54, 127
1, 470034, Note_on_c, 7, 55, 127
1, 470034, Note_on_c, 10, 57, 127
1, 470117, Note_off_c, 7, 55, 127
1, 470121, Note_on_c, 6, 54, 127
1, 470161, Note_off_c, 10, 57, 127
1, 470165, Note_on_c, 12, 59, 127
1, 470205, Note_off_c, 6, 54, 127
1, 470209, Note_on_c, 7, 55, 127
1, 470292, Note_off_c, 7, 55, 127
1, 470292, Note_off_c, 12, 59, 127
1, 470296, Note_on_c, 10, 69, 127
1, 470296, Note_on_c, 6, 54, 127
1, 470296, Note_on_c, 0, 60, 127
1, 470379, Note_off_c, 6, 54, 127
1, 470383, Note_on_c, 4, 52, 127
1, 470423, Note_off_c, 0, 60, 127
1, 470427, Note_on_c, 10, 57, 127
1, 470467, Note_off_c, 4, 52, 127
1, 470471, Note_on_c, 6, 54, 127
1, 470554, Note_off_c, 6, 54, 127
1, 470554, Note_off_c, 10, 57, 127
1, 470554, Note_off_c, 10, 69, 127
1, 470558, Note_on_c, 2, 62, 127
1, 470558, Note_on_c, 7, 55, 127
1, 470558, Note_on_c, 12, 59, 127
1, 470685, Note_off_c, 12, 59, 127
1, 470689, Note_on_c, 10, 57, 127
1, 470749, Note_off_c, 2, 62, 127
1, 470816, Note_off_c, 10, 57, 127
1, 470816, Note_off_c, 7, 55, 127
1, 470820, Note_on_c, 7, 67, 127
1, 470820, Note_on_c, 4, 52, 127
1, 470820, Note_on_c, 12, 59, 127
1, 470947, Note_off_c, 12, 59, 127
1, 470951, Note_on_c, 1, 61, 127
1, 471011, Note_off_c, 7, 67, 127
1, 471078, Note_off_c, 1, 61, 127
1, 471079, Note_off_c, 4, 52, 127
1, 471082, Note_on_c, 2, 62, 127
1, 471209, Note_off_c, 2, 62, 127
1, 471213, Note_on_c, 12, 59, 127
1, 471340, Note_off_c, 12, 59, 127
1, 471344, Note_on_c, 10, 57, 127
1, 471344, Note_on_c, 1, 61, 127
1, 471475, Note_on_c, 7, 67, 127
1, 471602, Note_off_c, 7, 67, 127
1, 471602, Note_off_c, 1, 61, 127
1, 471602, Note_off_c, 10, 57, 127
1, 471606, Note_on_c, 6, 66, 127
1, 471606, Note_on_c, 2, 50, 127
1, 471606, Note_on_c, 10, 57, 127
1, 471733, Note_off_c, 6, 66, 127
1, 471737, Note_on_c, 4, 64, 127
1, 471864, Note_off_c, 4, 64, 127
1, 471864, Note_off_c, 10, 57, 127
1, 471865, Note_off_c, 2, 50, 127
1, 471868, Note_on_c, 6, 66, 127
1, 471868, Note_on_c, 2, 62, 127
1, 471995, Note_off_c, 2, 62, 127
1, 471995, Note_off_c, 6, 66, 127
1, 471999, Note_on_c, 2, 62, 127
1, 472126, Note_off_c, 2, 62, 127
1, 472130, Note_on_c, 12, 59, 127
1, 472130, Note_on_c, 7, 43, 127
1, 472261, Note_on_c, 10, 57, 127
1, 472331, Note_off_c, 12, 59, 127
1, 472335, Note_on_c, 1, 61, 127
1, 472388, Note_off_c, 1, 61, 127
1, 472388, Note_off_c, 10, 57, 127
1, 472388, Note_off_c, 7, 43, 127
1, 472392, Note_on_c, 2, 62, 127
1, 472392, Note_on_c, 10, 45, 127
1, 472392, Note_on_c, 7, 55, 127
1, 472442, Note_off_c, 2, 62, 127
1, 472446, Note_on_c, 1, 61, 127
1, 472496, Note_off_c, 1, 61, 127
1, 472500, Note_on_c, 2, 62, 127
1, 472518, Note_off_c, 7, 55, 127
1, 472522, Note_on_c, 6, 54, 127
1, 472551, Note_off_c, 2, 62, 127
1, 472555, Note_on_c, 1, 61, 127
1, 472605, Note_off_c, 1, 61, 127
1, 472609, Note_on_c, 2, 62, 127
1, 472649, Note_off_c, 2, 62, 127
1, 472649, Note_off_c, 6, 54, 127
1, 472650, Note_off_c, 10, 45, 127
1, 472653, Note_on_c, 1, 61, 127
1, 472653, Note_on_c, 7, 55, 127
1, 472703, Note_off_c, 1, 61, 127
1, 472707, Note_on_c, 2, 62, 127
1, 472757, Note_off_c, 2, 62, 127
1, 472761, Note_on_c, 1, 61, 127
1, 472779, Note_off_c, 7, 55, 127
1, 472783, Note_on_c, 4, 52, 127
1, 472812, Note_off_c, 1, 61, 127
1, 472816, Note_on_c, 12, 59, 127
1, 472866, Note_off_c, 12, 59, 127
1, 472870, Note_on_c, 1, 61, 127
1, 472910, Note_off_c, 1, 61, 127
1, 472910, Note_off_c, 4, 52, 127
1, 472914, Note_on_c, 2, 62, 127
1, 472914, Note_on_c, 2, 50, 127
1, 472914, Note_on_c, 6, 54, 127
1, 473041, Note_off_c, 6, 54, 127
1, 473041, Note_off_c, 2, 62, 127
1, 473045, Note_on_c, 4, 64, 127
1, 473045, Note_on_c, 8, 56, 127
1, 473172, Note_off_c, 8, 56, 127
1, 473172, Note_off_c, 4, 64, 127
1, 473172, Note_off_c, 2, 50, 127
1, 473176, Note_on_c, 2, 62, 127
1, 473176, Note_on_c, 12, 47, 127
1, 473176, Note_on_c, 10, 57, 127
1, 473237, Note_off_c, 10, 57, 127
1, 473241, Note_on_c, 8, 56, 127
1, 473302, Note_off_c, 8, 56, 127
1, 473302, Note_off_c, 2, 62, 127
1, 473306, Note_on_c, 1, 61, 127
1, 473306, Note_on_c, 10, 57, 127
1, 473367, Note_off_c, 10, 57, 127
1, 473371, Note_on_c, 8, 56, 127
1, 473432, Note_off_c, 8, 56, 127
1, 473432, Note_off_c, 1, 61, 127
1, 473433, Note_off_c, 12, 47, 127
1, 473436, Note_on_c, 2, 62, 127
1, 473436, Note_on_c, 10, 57, 127
1, 473497, Note_off_c, 10, 57, 127
1, 473501, Note_on_c, 8, 56, 127
1, 473562, Note_off_c, 8, 56, 127
1, 473562, Note_off_c, 2, 62, 127
1, 473566, Note_on_c, 12, 59, 127
1, 473566, Note_on_c, 6, 54, 127
1, 473627, Note_off_c, 6, 54, 127
1, 473631, Note_on_c, 8, 56, 127
1, 473692, Note_off_c, 8, 56, 127
1, 473692, Note_off_c, 12, 59, 127
1, 473696, Note_on_c, 1, 61, 127
1, 473696, Note_on_c, 10, 57, 127
1, 473827, Note_on_c, 12, 47, 127
1, 473897, Note_off_c, 1, 61, 127
1, 473901, Note_on_c, 3, 63, 127
1, 473954, Note_off_c, 3, 63, 127
1, 473954, Note_off_c, 12, 47, 127
1, 473954, Note_off_c, 10, 57, 127
1, 473958, Note_on_c, 4, 64, 127
1, 473958, Note_on_c, 10, 45, 127
1, 473958, Note_on_c, 6, 54, 127
1, 474008, Note_off_c, 4, 64, 127
1, 474012, Note_on_c, 3, 63, 127
1, 474062, Note_off_c, 3, 63, 127
1, 474066, Note_on_c, 4, 64, 127
1, 474084, Note_off_c, 10, 45, 127
1, 474088, Note_on_c, 7, 43, 127
1, 474117, Note_off_c, 4, 64, 127
1, 474121, Note_on_c, 3, 63, 127
1, 474171, Note_off_c, 3, 63, 127
1, 474175, Note_on_c, 4, 64, 127
1, 474215, Note_off_c, 4, 64, 127
1, 474215, Note_off_c, 7, 43, 127
1, 474219, Note_on_c, 3, 63, 127
1, 474219, Note_on_c, 10, 45, 127
1, 474269, Note_off_c, 3, 63, 127
1, 474273, Note_on_c, 4, 64, 127
1, 474323, Note_off_c, 4, 64, 127
1, 474327, Note_on_c, 3, 63, 127
1, 474345, Note_off_c, 10, 45, 127
1, 474349, Note_on_c, 6, 42, 127
1, 474378, Note_off_c, 3, 63, 127
1, 474382, Note_on_c, 1, 61, 127
1, 474432, Note_off_c, 1, 61, 127
1, 474436, Note_on_c, 3, 63, 127
1, 474476, Note_off_c, 3, 63, 127
1, 474476, Note_off_c, 6, 42, 127
1, 474476, Note_off_c, 6, 54, 127
1, 474480, Note_on_c, 4, 64, 127
1, 474480, Note_on_c, 7, 43, 127
1, 474480, Note_on_c, 4, 52, 127
1, 474607, Note_off_c, 4, 64, 127
1, 474611, Note_on_c, 12, 71, 127
1, 474738, Note_off_c, 12, 71, 127
1, 474738, Note_off_c, 7, 43, 127
1, 474739, Note_off_c, 4, 52, 127
1, 474742, Note_on_c, 10, 69, 127
1, 474742, Note_on_c, 10, 45, 127
1, 474869, Note_off_c, 10, 69, 127
1, 474873, Note_on_c, 7, 67, 127
1, 475000, Note_off_c, 7, 67, 127
1, 475000, Note_off_c, 10, 45, 127
1, 475004, Note_on_c, 10, 69, 127
1, 475004, Note_on_c, 12, 47, 127
1, 475131, Note_off_c, 10, 69, 127
1, 475135, Note_on_c, 6, 66, 127
1, 475262, Note_off_c, 6, 66, 127
1, 475262, Note_off_c, 12, 47, 127
1, 475266, Note_on_c, 7, 67, 127
1, 475266, Note_on_c, 4, 40, 127
1, 475393, Note_off_c, 7, 67, 127
1, 475397, Note_on_c, 4, 64, 127
1, 475524, Note_off_c, 4, 64, 127
1, 475528, Note_on_c, 10, 69, 127
1, 475528, Note_on_c, 2, 62, 127
1, 475578, Note_off_c, 10, 69, 127
1, 475582, Note_on_c, 8, 68, 127
1, 475632, Note_off_c, 8, 68, 127
1, 475636, Note_on_c, 10, 69, 127
1, 475654, Note_off_c, 2, 62, 127
1, 475658, Note_on_c, 0, 60, 127
1, 475687, Note_off_c, 10, 69, 127
1, 475691, Note_on_c, 8, 68, 127
1, 475741, Note_off_c, 8, 68, 127
1, 475745, Note_on_c, 10, 69, 127
1, 475783, Note_off_c, 4, 40, 127
1, 475784, Note_off_c, 10, 69, 127
1, 475784, Note_off_c, 0, 60, 127
1, 475788, Note_on_c, 8, 68, 127
1, 475788, Note_on_c, 2, 62, 127
1, 475838, Note_off_c, 8, 68, 127
1, 475842, Note_on_c, 10, 69, 127
1, 475892, Note_off_c, 10, 69, 127
1, 475896, Note_on_c, 8, 68, 127
1, 475914, Note_off_c, 2, 62, 127
1, 475918, Note_on_c, 12, 59, 127
1, 475947, Note_off_c, 8, 68, 127
1, 475951, Note_on_c, 6, 66, 127
1, 476001, Note_off_c, 6, 66, 127
1, 476005, Note_on_c, 8, 68, 127
1, 476045, Note_off_c, 8, 68, 127
1, 476045, Note_off_c, 12, 59, 127
1, 476049, Note_on_c, 10, 69, 127
1, 476049, Note_on_c, 0, 60, 127
1, 476176, Note_off_c, 10, 69, 127
1, 476180, Note_on_c, 4, 76, 127
1, 476307, Note_off_c, 4, 76, 127
1, 476307, Note_off_c, 0, 60, 127
1, 476311, Note_on_c, 2, 74, 127
1, 476311, Note_on_c, 2, 62, 127
1, 476438, Note_off_c, 2, 74, 127
1, 476442, Note_on_c, 0, 72, 127
1, 476569, Note_off_c, 0, 72, 127
1, 476569, Note_off_c, 2, 62, 127
1, 476573, Note_on_c, 2, 74, 127
1, 476573, Note_on_c, 4, 64, 127
1, 476700, Note_off_c, 2, 74, 127
1, 476704, Note_on_c, 12, 71, 127
1, 476831, Note_off_c, 12, 71, 127
1, 476831, Note_off_c, 4, 64, 127
1, 476835, Note_on_c, 0, 72, 127
1, 476835, Note_on_c, 10, 57, 127
1, 476962, Note_off_c, 0, 72, 127
1, 476966, Note_on_c, 10, 81, 127
1, 477026, Note_off_c, 10, 57, 127
1, 477093, Note_off_c, 10, 81, 127
1, 477097, Note_on_c, 7, 79, 127
1, 477097, Note_on_c, 2, 62, 127
1, 477224, Note_off_c, 7, 79, 127
1, 477228, Note_on_c, 5, 77, 127
1, 477288, Note_off_c, 2, 62, 127
1, 477355, Note_off_c, 5, 77, 127
1, 477359, Note_on_c, 7, 79, 127
1, 477486, Note_off_c, 7, 79, 127
1, 477490, Note_on_c, 4, 76, 127
1, 477617, Note_off_c, 4, 76, 127
1, 477621, Note_on_c, 5, 77, 127
1, 477752, Note_on_c, 2, 62, 127
1, 477879, Note_off_c, 2, 62, 127
1, 477879, Note_off_c, 5, 77, 127
1, 477883, Note_on_c, 8, 68, 127
1, 477883, Note_on_c, 0, 60, 127
1, 478010, Note_off_c, 0, 60, 127
1, 478014, Note_on_c, 12, 59, 127
1, 478141, Note_off_c, 12, 59, 127
1, 478141, Note_off_c, 8, 68, 127
1, 478145, Note_on_c, 10, 69, 127
1, 478145, Note_on_c, 0, 60, 127
1, 478272, Note_off_c, 0, 60, 127
1, 478276, Note_on_c, 10, 57, 127
1, 478403, Note_off_c, 10, 57, 127
1, 478404, Note_off_c, 10, 69, 127
1, 478407, Note_on_c, 6, 54, 127
1, 478534, Note_off_c, 6, 54, 127
1, 478538, Note_on_c, 0, 84, 127
1, 478538, Note_on_c, 8, 56, 127
1, 478665, Note_off_c, 8, 56, 127
1, 478665, Note_off_c, 0, 84, 127
1, 478669, Note_on_c, 12, 83, 127
1, 478669, Note_on_c, 10, 57, 127
1, 478730, Note_off_c, 10, 57, 127
1, 478734, Note_on_c, 8, 56, 127
1, 478795, Note_off_c, 8, 56, 127
1, 478795, Note_off_c, 12, 83, 127
1, 478799, Note_on_c, 10, 81, 127
1, 478799, Note_on_c, 10, 57, 127
1, 478860, Note_off_c, 10, 57, 127
1, 478864, Note_on_c, 8, 56, 127
1, 478925, Note_off_c, 8, 56, 127
1, 478925, Note_off_c, 10, 81, 127
1, 478929, Note_on_c, 12, 83, 127
1, 478929, Note_on_c, 10, 57, 127
1, 478990, Note_off_c, 10, 57, 127
1, 478994, Note_on_c, 8, 56, 127
1, 479055, Note_off_c, 8, 56, 127
1, 479055, Note_off_c, 12, 83, 127
1, 479059, Note_on_c, 2, 74, 127
1, 479059, Note_on_c, 6, 54, 127
1, 479120, Note_off_c, 6, 54, 127
1, 479124, Note_on_c, 8, 56, 127
1, 479185, Note_off_c, 8, 56, 127
1, 479185, Note_off_c, 2, 74, 127
1, 479189, Note_on_c, 0, 72, 127
1, 479189, Note_on_c, 10, 57, 127
1, 479316, Note_off_c, 0, 72, 127
1, 479320, Note_on_c, 12, 83, 127
1, 479447, Note_off_c, 12, 83, 127
1, 479447, Note_off_c, 10, 57, 127
1, 479451, Note_on_c, 10, 81, 127
1, 479451, Note_on_c, 0, 60, 127
1, 479578, Note_off_c, 10, 81, 127
1, 479582, Note_on_c, 8, 80, 127
1, 479709, Note_off_c, 8, 80, 127
1, 479709, Note_off_c, 0, 60, 127
1, 479713, Note_on_c, 10, 81, 127
1, 479713, Note_on_c, 4, 64, 127
1, 479840, Note_off_c, 10, 81, 127
1, 479844, Note_on_c, 0, 72, 127
1, 479971, Note_off_c, 0, 72, 127
1, 479971, Note_off_c, 4, 64, 127
1, 479975, Note_on_c, 12, 71, 127
1, 479975, Note_on_c, 3, 63, 127
1, 480102, Note_off_c, 12, 71, 127
1, 480106, Note_on_c, 10, 81, 127
1, 480233, Note_off_c, 10, 81, 127
1, 480233, Note_off_c, 3, 63, 127
1, 480237, Note_on_c, 7, 79, 127
1, 480237, Note_on_c, 12, 71, 127
1, 480364, Note_off_c, 7, 79, 127
1, 480368, Note_on_c, 6, 78, 127
1, 480495, Note_off_c, 6, 78, 127
1, 480495, Note_off_c, 12, 71, 127
1, 480499, Note_on_c, 7, 79, 127
1, 480499, Note_on_c, 4, 64, 127
1, 480626, Note_off_c, 7, 79, 127
1, 480630, Note_on_c, 12, 71, 127
1, 480757, Note_off_c, 12, 71, 127
1, 480757, Note_off_c, 4, 64, 127
1, 480761, Note_on_c, 0, 72, 127
1, 480761, Note_on_c, 10, 69, 127
1, 480888, Note_off_c, 10, 69, 127
1, 480888, Note_off_c, 0, 72, 127
1, 480892, Note_on_c, 7, 79, 127
1, 480892, Note_on_c, 12, 71, 127
1, 481019, Note_off_c, 12, 71, 127
1, 481019, Note_off_c, 7, 79, 127
1, 481023, Note_on_c, 6, 78, 127
1, 481023, Note_on_c, 10, 69, 127
1, 481150, Note_off_c, 10, 69, 127
1, 481150, Note_off_c, 6, 78, 127
1, 481154, Note_on_c, 4, 76, 127
1, 481154, Note_on_c, 7, 67, 127
1, 481281, Note_off_c, 7, 67, 127
1, 481281, Note_off_c, 4, 76, 127
1, 481285, Note_on_c, 6, 78, 127
1, 481285, Note_on_c, 10, 69, 127
1, 481412, Note_off_c, 10, 69, 127
1, 481412, Note_off_c, 6, 78, 127
1, 481416, Note_on_c, 10, 81, 127
1, 481416, Note_on_c, 6, 66, 127
1, 481543, Note_off_c, 6, 66, 127
1, 481543, Note_off_c, 10, 81, 127
1, 481547, Note_on_c, 3, 75, 127
1, 481547, Note_on_c, 12, 71, 127
1, 481674, Note_off_c, 12, 71, 127
1, 481678, Note_on_c, 10, 69, 127
1, 481748, Note_off_c, 3, 75, 127
1, 481752, Note_on_c, 4, 76, 127
1, 481805, Note_off_c, 4, 76, 127
1, 481805, Note_off_c, 10, 69, 127
1, 481809, Note_on_c, 6, 78, 127
1, 481809, Note_on_c, 7, 67, 127
1, 481859, Note_off_c, 6, 78, 127
1, 481863, Note_on_c, 4, 76, 127
1, 481913, Note_off_c, 4, 76, 127
1, 481917, Note_on_c, 6, 78, 127
1, 481935, Note_off_c, 7, 67, 127
1, 481939, Note_on_c, 6, 66, 127
1, 481968, Note_off_c, 6, 78, 127
1, 481972, Note_on_c, 4, 76, 127
1, 482022, Note_off_c, 4, 76, 127
1, 482026, Note_on_c, 6, 78, 127
1, 482066, Note_off_c, 6, 78, 127
1, 482066, Note_off_c, 6, 66, 127
1, 482070, Note_on_c, 4, 76, 127
1, 482070, Note_on_c, 7, 67, 127
1, 482120, Note_off_c, 4, 76, 127
1, 482124, Note_on_c, 6, 78, 127
1, 482174, Note_off_c, 6, 78, 127
1, 482178, Note_on_c, 4, 76, 127
1, 482196, Note_off_c, 7, 67, 127
1, 482200, Note_on_c, 4, 64, 127
1, 482229, Note_off_c, 4, 76, 127
1, 482233, Note_on_c, 3, 75, 127
1, 482283, Note_off_c, 3, 75, 127
1, 482287, Note_on_c, 4, 76, 127
1, 482327, Note_off_c, 4, 76, 127
1, 482327, Note_off_c, 4, 64, 127
1, 482331, Note_on_c, 6, 78, 127
1, 482331, Note_on_c, 3, 63, 127
1, 482458, Note_off_c, 6, 78, 127
1, 482462, Note_on_c, 4, 76, 127
1, 482589, Note_off_c, 4, 76, 127
1, 482589, Note_off_c, 3, 63, 127
1, 482593, Note_on_c, 6, 78, 127
1, 482593, Note_on_c, 6, 66, 127
1, 482720, Note_off_c, 6, 78, 127
1, 482724, Note_on_c, 10, 81, 127
1, 482851, Note_off_c, 10, 81, 127
1, 482851, Note_off_c, 6, 66, 127
1, 482855, Note_on_c, 7, 79, 127
1, 482855, Note_on_c, 12, 59, 127
1, 482855, Note_on_c, 12, 71, 127
1, 482982, Note_off_c, 7, 79, 127
1, 482986, Note_on_c, 6, 78, 127
1, 483113, Note_off_c, 6, 78, 127
1, 483113, Note_off_c, 12, 59, 127
1, 483117, Note_on_c, 4, 76, 127
1, 483117, Note_on_c, 0, 60, 127
1, 483308, Note_off_c, 4, 76, 127
1, 483375, Note_off_c, 12, 71, 127
1, 483379, Note_on_c, 10, 81, 127
1, 483379, Note_on_c, 10, 69, 127
1, 483506, Note_off_c, 0, 60, 127
1, 483510, Note_on_c, 10, 57, 127
1, 483570, Note_off_c, 10, 81, 127
1, 483637, Note_off_c, 10, 57, 127
1, 483637, Note_off_c, 10, 69, 127
1, 483641, Note_on_c, 6, 54, 127
1, 483641, Note_on_c, 0, 72, 127
1, 483768, Note_off_c, 6, 54, 127
1, 483772, Note_on_c, 2, 50, 127
1, 483899, Note_off_c, 2, 50, 127
1, 483899, Note_off_c, 0, 72, 127
1, 483903, Note_on_c, 12, 59, 127
1, 483903, Note_on_c, 3, 63, 127
1, 484034, Note_on_c, 10, 81, 127
1, 484094, Note_off_c, 12, 59, 127
1, 484161, Note_off_c, 10, 81, 127
1, 484165, Note_on_c, 7, 79, 127
1, 484165, Note_on_c, 4, 52, 127
1, 484165, Note_on_c, 12, 59, 127
1, 484217, Note_off_c, 3, 63, 127
1, 484292, Note_off_c, 7, 79, 127
1, 484296, Note_on_c, 6, 78, 127
1, 484356, Note_off_c, 4, 52, 127
1, 484423, Note_off_c, 6, 78, 127
1, 484426, Note_off_c, 12, 59, 127
1, 484427, Note_on_c, 7, 79, 127
1, 484427, Note_on_c, 4, 64, 127
1, 484554, Note_off_c, 7, 79, 127
1, 484558, Note_on_c, 4, 76, 127
1, 484685, Note_off_c, 4, 76, 127
1, 484685, Note_off_c, 4, 64, 127
1, 484689, Note_on_c, 1, 73, 127
1, 484689, Note_on_c, 10, 57, 127
1, 484689, Note_on_c, 4, 64, 127
1, 484889, Note_off_c, 1, 73, 127
1, 484893, Note_on_c, 3, 75, 127
1, 484946, Note_off_c, 3, 75, 127
1, 484946, Note_off_c, 4, 64, 127
1, 484950, Note_on_c, 4, 76, 127
1, 484950, Note_on_c, 6, 66, 127
1, 485000, Note_off_c, 4, 76, 127
1, 485004, Note_on_c, 3, 75, 127
1, 485054, Note_off_c, 3, 75, 127
1, 485058, Note_on_c, 4, 76, 127
1, 485076, Note_off_c, 10, 57, 127
1, 485080, Note_on_c, 6, 54, 127
1, 485109, Note_off_c, 4, 76, 127
1, 485113, Note_on_c, 3, 75, 127
1, 485163, Note_off_c, 3, 75, 127
1, 485167, Note_on_c, 4, 76, 127
1, 485207, Note_off_c, 4, 76, 127
1, 485207, Note_off_c, 6, 54, 127
1, 485211, Note_on_c, 3, 75, 127
1, 485211, Note_on_c, 3, 51, 127
1, 485261, Note_off_c, 3, 75, 127
1, 485265, Note_on_c, 4, 76, 127
1, 485315, Note_off_c, 4, 76, 127
1, 485319, Note_on_c, 3, 75, 127
1, 485337, Note_off_c, 3, 51, 127
1, 485341, Note_on_c, 12, 47, 127
1, 485370, Note_off_c, 3, 75, 127
1, 485374, Note_on_c, 1, 73, 127
1, 485424, Note_off_c, 1, 73, 127
1, 485428, Note_on_c, 3, 75, 127
1, 485468, Note_off_c, 3, 75, 127
1, 485468, Note_off_c, 12, 47, 127
1, 485468, Note_off_c, 6, 66, 127
1, 485472, Note_on_c, 4, 76, 127
1, 485472, Note_on_c, 7, 55, 127
1, 485472, Note_on_c, 12, 59, 127
1, 485599, Note_off_c, 7, 55, 127
1, 485599, Note_off_c, 4, 76, 127
1, 485603, Note_on_c, 3, 75, 127
1, 485603, Note_on_c, 6, 54, 127
1, 485730, Note_off_c, 6, 54, 127
1, 485730, Note_off_c, 3, 75, 127
1, 485731, Note_off_c, 12, 59, 127
1, 485734, Note_on_c, 4, 76, 127
1, 485734, Note_on_c, 7, 55, 127
1, 485861, Note_off_c, 7, 55, 127
1, 485861, Note_off_c, 4, 76, 127
1, 485865, Note_on_c, 7, 79, 127
1, 485865, Note_on_c, 12, 59, 127
1, 485992, Note_off_c, 12, 59, 127
1, 485992, Note_off_c, 7, 79, 127
1, 485996, Note_on_c, 6, 78, 127
1, 485996, Note_on_c, 3, 51, 127
1, 486123, Note_off_c, 3, 51, 127
1, 486123, Note_off_c, 6, 78, 127
1, 486127, Note_on_c, 10, 81, 127
1, 486127, Note_on_c, 6, 54, 127
1, 486254, Note_off_c, 6, 54, 127
1, 486254, Note_off_c, 10, 81, 127
1, 486258, Note_on_c, 7, 79, 127
1, 486258, Note_on_c, 4, 52, 127
1, 486385, Note_off_c, 7, 79, 127
1, 486389, Note_on_c, 6, 78, 127
1, 486516, Note_off_c, 6, 78, 127
1, 486516, Note_off_c, 4, 52, 127
1, 486520, Note_on_c, 7, 79, 127
1, 486520, Note_on_c, 12, 59, 127
1, 486647, Note_off_c, 7, 79, 127
1, 486651, Note_on_c, 12, 83, 127
1, 486745, Note_off_c, 12, 59, 127
1, 486778, Note_off_c, 12, 83, 127
1, 486782, Note_on_c, 4, 76, 127
1, 486782, Note_on_c, 0, 60, 127
1, 486909, Note_off_c, 4, 76, 127
1, 486913, Note_on_c, 8, 80, 127
1, 487007, Note_off_c, 0, 60, 127
1, 487040, Note_off_c, 8, 80, 127
1, 487044, Note_on_c, 10, 81, 127
1, 487044, Note_on_c, 6, 54, 127
1, 487171, Note_off_c, 10, 81, 127
1, 487175, Note_on_c, 8, 80, 127
1, 487302, Note_off_c, 8, 80, 127
1, 487302, Note_off_c, 6, 54, 127
1, 487306, Note_on_c, 10, 81, 127
1, 487306, Note_on_c, 0, 60, 127
1, 487433, Note_off_c, 10, 81, 127
1, 487437, Note_on_c, 0, 84, 127
1, 487531, Note_off_c, 0, 60, 127
1, 487564, Note_off_c, 0, 84, 127
1, 487568, Note_on_c, 6, 78, 127
1, 487568, Note_on_c, 2, 62, 127
1, 487695, Note_off_c, 6, 78, 127
1, 487699, Note_on_c, 10, 81, 127
1, 487793, Note_off_c, 2, 62, 127
1, 487826, Note_off_c, 10, 81, 127
1, 487830, Note_on_c, 12, 83, 127
1, 487830, Note_on_c, 8, 56, 127
1, 487957, Note_off_c, 12, 83, 127
1, 487961, Note_on_c, 10, 81, 127
1, 488088, Note_off_c, 10, 81, 127
1, 488088, Note_off_c, 8, 56, 127
1, 488092, Note_on_c, 12, 83, 127
1, 488092, Note_on_c, 2, 62, 127
1, 488219, Note_off_c, 12, 83, 127
1, 488223, Note_on_c, 2, 86, 127
1, 488317, Note_off_c, 2, 62, 127
1, 488350, Note_off_c, 2, 86, 127
1, 488354, Note_on_c, 8, 80, 127
1, 488354, Note_on_c, 4, 64, 127
1, 488481, Note_off_c, 8, 80, 127
1, 488485, Note_on_c, 12, 83, 127
1, 488579, Note_off_c, 4, 64, 127
1, 488612, Note_off_c, 12, 83, 127
1, 488616, Note_on_c, 0, 84, 127
1, 488616, Note_on_c, 10, 57, 127
1, 488743, Note_off_c, 0, 84, 127
1, 488747, Note_on_c, 12, 83, 127
1, 488874, Note_off_c, 12, 83, 127
1, 488874, Note_off_c, 10, 57, 127
1, 488878, Note_on_c, 10, 81, 127
1, 488878, Note_on_c, 12, 59, 127
1, 489005, Note_off_c, 10, 81, 127
1, 489009, Note_on_c, 7, 79, 127
1, 489103, Note_off_c, 12, 59, 127
1, 489136, Note_off_c, 7, 79, 127
1, 489140, Note_on_c, 10, 81, 127
1, 489140, Note_on_c, 0, 60, 127
1, 489267, Note_off_c, 10, 81, 127
1, 489271, Note_on_c, 4, 76, 127
1, 489398, Note_off_c, 4, 76, 127
1, 489402, Note_on_c, 5, 77, 127
1, 489402, Note_on_c, 10, 69, 127
1, 489593, Note_off_c, 10, 69, 127
1, 489660, Note_off_c, 0, 60, 127
1, 489664, Note_on_c, 12, 59, 127
1, 489664, Note_on_c, 2, 74, 127
1, 489791, Note_off_c, 5, 77, 127
1, 489795, Note_on_c, 2, 86, 127
1, 489855, Note_off_c, 2, 74, 127
1, 489922, Note_off_c, 2, 86, 127
1, 489922, Note_off_c, 12, 59, 127
1, 489926, Note_on_c, 12, 83, 127
1, 489926, Note_on_c, 10, 57, 127
1, 490053, Note_off_c, 12, 83, 127
1, 490057, Note_on_c, 8, 80, 127
1, 490184, Note_off_c, 8, 80, 127
1, 490184, Note_off_c, 10, 57, 127
1, 490188, Note_on_c, 4, 76, 127
1, 490188, Note_on_c, 8, 56, 127
1, 490319, Note_on_c, 2, 74, 127
1, 490446, Note_off_c, 2, 74, 127
1, 490446, Note_off_c, 8, 56, 127
1, 490446, Note_off_c, 4, 76, 127
1, 490450, Note_on_c, 10, 81, 127
1, 490450, Note_on_c, 10, 57, 127
1, 490450, Note_on_c, 0, 72, 127
1, 490577, Note_off_c, 0, 72, 127
1, 490581, Note_on_c, 12, 71, 127
1, 490708, Note_off_c, 12, 71, 127
1, 490709, Note_off_c, 10, 57, 127
1, 490709, Note_off_c, 10, 81, 127
1, 490712, Note_on_c, 0, 72, 127
1, 490839, Note_off_c, 0, 72, 127
1, 490843, Note_on_c, 10, 69, 127
1, 490970, Note_off_c, 10, 69, 127
1, 490974, Note_on_c, 2, 74, 127
1, 490974, Note_on_c, 6, 66, 127
1, 491101, Note_off_c, 6, 66, 127
1, 491105, Note_on_c, 8, 68, 127
1, 491232, Note_off_c, 8, 68, 127
1, 491236, Note_on_c, 10, 69, 127
1, 491297, Note_off_c, 10, 69, 127
1, 491301, Note_on_c, 8, 68, 127
1, 491362, Note_off_c, 8, 68, 127
1, 491362, Note_off_c, 2, 74, 127
1, 491366, Note_on_c, 12, 83, 127
1, 491366, Note_on_c, 10, 69, 127
1, 491427, Note_off_c, 10, 69, 127
1, 491431, Note_on_c, 8, 68, 127
1, 491492, Note_off_c, 8, 68, 127
1, 491492, Note_off_c, 12, 83, 127
1, 491496, Note_on_c, 8, 80, 127
1, 491496, Note_on_c, 10, 69, 127
1, 491557, Note_off_c, 10, 69, 127
1, 491561, Note_on_c, 8, 68, 127
1, 491622, Note_off_c, 8, 68, 127
1, 491622, Note_off_c, 8, 80, 127
1, 491626, Note_on_c, 4, 76, 127
1, 491626, Note_on_c, 6, 66, 127
1, 491687, Note_off_c, 6, 66, 127
1, 491691, Note_on_c, 8, 68, 127
1, 491752, Note_off_c, 8, 68, 127
1, 491752, Note_off_c, 4, 76, 127
1, 491756, Note_on_c, 0, 72, 127
1, 491756, Note_on_c, 10, 69, 127
1, 491883, Note_off_c, 10, 69, 127
1, 491887, Note_on_c, 8, 68, 127
1, 492014, Note_off_c, 8, 68, 127
1, 492014, Note_off_c, 0, 72, 127
1, 492018, Note_on_c, 4, 76, 127
1, 492018, Note_on_c, 10, 69, 127
1, 492145, Note_off_c, 10, 69, 127
1, 492149, Note_on_c, 12, 71, 127
1, 492276, Note_off_c, 12, 71, 127
1, 492276, Note_off_c, 4, 76, 127
1, 492280, Note_on_c, 10, 81, 127
1, 492280, Note_on_c, 0, 72, 127
1, 492407, Note_off_c, 0, 72, 127
1, 492411, Note_on_c, 10, 69, 127
1, 492538, Note_off_c, 10, 69, 127
1, 492538, Note_off_c, 10, 81, 127
1, 492542, Note_on_c, 2, 74, 127
1, 492542, Note_on_c, 12, 71, 127
1, 492669, Note_off_c, 12, 71, 127
1, 492673, Note_on_c, 10, 69, 127
1, 492733, Note_off_c, 2, 74, 127
1, 492800, Note_off_c, 10, 69, 127
1, 492804, Note_on_c, 7, 79, 127
1, 492804, Note_on_c, 12, 71, 127
1, 492931, Note_off_c, 12, 71, 127
1, 492935, Note_on_c, 1, 73, 127
1, 492995, Note_off_c, 7, 79, 127
1, 493062, Note_off_c, 1, 73, 127
1, 493066, Note_on_c, 2, 74, 127
1, 493193, Note_off_c, 2, 74, 127
1, 493197, Note_on_c, 12, 71, 127
1, 493324, Note_off_c, 12, 71, 127
1, 493328, Note_on_c, 1, 73, 127
1, 493459, Note_on_c, 7, 79, 127
1, 493586, Note_off_c, 7, 79, 127
1, 493586, Note_off_c, 1, 73, 127
1, 493590, Note_on_c, 6, 78, 127
1, 493590, Note_on_c, 10, 69, 127
1, 493717, Note_off_c, 6, 78, 127
1, 493721, Note_on_c, 4, 76, 127
1, 493848, Note_off_c, 4, 76, 127
1, 493848, Note_off_c, 10, 69, 127
1, 493852, Note_on_c, 6, 78, 127
1, 493852, Note_on_c, 2, 74, 127
1, 493979, Note_off_c, 2, 74, 127
1, 493979, Note_off_c, 6, 78, 127
1, 493983, Note_on_c, 2, 74, 127
1, 494110, Note_off_c, 2, 74, 127
1, 494114, Note_on_c, 12, 71, 127
1, 494245, Note_on_c, 10, 69, 127
1, 494315, Note_off_c, 12, 71, 127
1, 494319, Note_on_c, 1, 73, 127
1, 494372, Note_off_c, 1, 73, 127
1, 494372, Note_off_c, 10, 69, 127
1, 494376, Note_on_c, 2, 74, 127
1, 494376, Note_on_c, 7, 67, 127
1, 494426, Note_off_c, 2, 74, 127
1, 494430, Note_on_c, 1, 73, 127
1, 494480, Note_off_c, 1, 73, 127
1, 494484, Note_on_c, 2, 74, 127
1, 494502, Note_off_c, 7, 67, 127
1, 494506, Note_on_c, 6, 66, 127
1, 494535, Note_off_c, 2, 74, 127
1, 494539, Note_on_c, 1, 73, 127
1, 494589, Note_off_c, 1, 73, 127
1, 494593, Note_on_c, 2, 74, 127
1, 494633, Note_off_c, 2, 74, 127
1, 494633, Note_off_c, 6, 66, 127
1, 494637, Note_on_c, 1, 73, 127
1, 494637, Note_on_c, 7, 67, 127
1, 494687, Note_off_c, 1, 73, 127
1, 494691, Note_on_c, 2, 74, 127
1, 494741, Note_off_c, 2, 74, 127
1, 494745, Note_on_c, 1, 73, 127
1, 494763, Note_off_c, 7, 67, 127
1, 494767, Note_on_c, 4, 64, 127
1, 494796, Note_off_c, 1, 73, 127
1, 494800, Note_on_c, 12, 71, 127
1, 494850, Note_off_c, 12, 71, 127
1, 494854, Note_on_c, 1, 73, 127
1, 494894, Note_off_c, 1, 73, 127
1, 494894, Note_off_c, 4, 64, 127
1, 494898, Note_on_c, 2, 74, 127
1, 494898, Note_on_c, 6, 66, 127
1, 495025, Note_off_c, 6, 66, 127
1, 495029, Note_on_c, 7, 67, 127
1, 495116, Note_off_c, 2, 74, 127
1, 495156, Note_off_c, 7, 67, 127
1, 495160, Note_on_c, 0, 72, 127
1, 495160, Note_on_c, 5, 65, 127
1, 495210, Note_off_c, 0, 72, 127
1, 495214, Note_on_c, 12, 71, 127
1, 495264, Note_off_c, 12, 71, 127
1, 495268, Note_on_c, 0, 72, 127
1, 495286, Note_off_c, 5, 65, 127
1, 495290, Note_on_c, 4, 64, 127
1, 495319, Note_off_c, 0, 72, 127
1, 495323, Note_on_c, 12, 71, 127
1, 495373, Note_off_c, 12, 71, 127
1, 495377, Note_on_c, 0, 72, 127
1, 495417, Note_off_c, 0, 72, 127
1, 495417, Note_off_c, 4, 64, 127
1, 495421, Note_on_c, 12, 71, 127
1, 495421, Note_on_c, 5, 65, 127
1, 495471, Note_off_c, 12, 71, 127
1, 495475, Note_on_c, 0, 72, 127
1, 495525, Note_off_c, 0, 72, 127
1, 495529, Note_on_c, 12, 71, 127
1, 495547, Note_off_c, 5, 65, 127
1, 495551, Note_on_c, 2, 62, 127
1, 495580, Note_off_c, 12, 71, 127
1, 495584, Note_on_c, 10, 69, 127
1, 495634, Note_off_c, 10, 69, 127
1, 495638, Note_on_c, 12, 71, 127
1, 495678, Note_off_c, 12, 71, 127
1, 495678, Note_off_c, 2, 62, 127
1, 495682, Note_on_c, 0, 72, 127
1, 495682, Note_on_c, 4, 64, 127
1, 495809, Note_off_c, 4, 64, 127
1, 495809, Note_off_c, 0, 72, 127
1, 495813, Note_on_c, 2, 74, 127
1, 495813, Note_on_c, 6, 66, 127
1, 495940, Note_off_c, 6, 66, 127
1, 495940, Note_off_c, 2, 74, 127
1, 495944, Note_on_c, 0, 72, 127
1, 495944, Note_on_c, 7, 67, 127
1, 496005, Note_off_c, 7, 67, 127
1, 496009, Note_on_c, 6, 66, 127
1, 496070, Note_off_c, 6, 66, 127
1, 496070, Note_off_c, 0, 72, 127
1, 496074, Note_on_c, 12, 71, 127
1, 496074, Note_on_c, 7, 67, 127
1, 496135, Note_off_c, 7, 67, 127
1, 496139, Note_on_c, 6, 66, 127
1, 496200, Note_off_c, 6, 66, 127
1, 496200, Note_off_c, 12, 71, 127
1, 496204, Note_on_c, 0, 72, 127
1, 496204, Note_on_c, 7, 67, 127
1, 496265, Note_off_c, 7, 67, 127
1, 496269, Note_on_c, 6, 66, 127
1, 496330, Note_off_c, 6, 66, 127
1, 496330, Note_off_c, 0, 72, 127
1, 496334, Note_on_c, 10, 69, 127
1, 496334, Note_on_c, 4, 64, 127
1, 496395, Note_off_c, 4, 64, 127
1, 496399, Note_on_c, 6, 66, 127
1, 496460, Note_off_c, 6, 66, 127
1, 496460, Note_off_c, 10, 69, 127
1, 496464, Note_on_c, 12, 71, 127
1, 496464, Note_on_c, 7, 67, 127
1, 496591, Note_off_c, 12, 71, 127
1, 496595, Note_on_c, 10, 69, 127
1, 496722, Note_off_c, 10, 69, 127
1, 496726, Note_on_c, 12, 71, 127
1, 496853, Note_off_c, 12, 71, 127
1, 496857, Note_on_c, 0, 72, 127
1, 496984, Note_off_c, 0, 72, 127
1, 496988, Note_on_c, 2, 74, 127
1, 497064, Note_off_c, 7, 67, 127
1, 497119, Note_on_c, 6, 66, 127
1, 497246, Note_off_c, 2, 74, 127
1, 497250, Note_on_c, 7, 67, 127
1, 497250, Note_on_c, 4, 52, 127
1, 497377, Note_off_c, 6, 66, 127
1, 497381, Note_on_c, 4, 64, 127
1, 497508, Note_off_c, 7, 67, 127
1, 497512, Note_on_c, 0, 72, 127
1, 497639, Note_off_c, 4, 52, 127
1, 497643, Note_on_c, 0, 48, 127
1, 497770, Note_off_c, 0, 48, 127
1, 497770, Note_off_c, 4, 64, 127
1, 497771, Note_off_c, 0, 72, 127
1, 497774, Note_on_c, 10, 45, 127
1, 497774, Note_on_c, 10, 69, 127
1, 497901, Note_off_c, 10, 45, 127
1, 497905, Note_on_c, 6, 42, 127
1, 498032, Note_off_c, 6, 42, 127
1, 498032, Note_off_c, 10, 69, 127
1, 498036, Note_on_c, 2, 50, 127
1, 498036, Note_on_c, 6, 66, 127
1, 498167, Note_on_c, 0, 72, 127
1, 498227, Note_off_c, 2, 50, 127
1, 498294, Note_off_c, 0, 72, 127
1, 498294, Note_off_c, 6, 66, 127
1, 498298, Note_on_c, 12, 71, 127
1, 498298, Note_on_c, 7, 43, 127
1, 498298, Note_on_c, 2, 62, 127
1, 498425, Note_off_c, 12, 71, 127
1, 498429, Note_on_c, 10, 69, 127
1, 498489, Note_off_c, 7, 43, 127
1, 498556, Note_off_c, 10, 69, 127
1, 498556, Note_off_c, 2, 62, 127
1, 498560, Note_on_c, 12, 71, 127
1, 498560, Note_on_c, 7, 55, 127
1, 498687, Note_off_c, 12, 71, 127
1, 498691, Note_on_c, 7, 67, 127
1, 498818, Note_off_c, 7, 67, 127
1, 498822, Note_on_c, 4, 64, 127
1, 498822, Note_on_c, 0, 48, 127
1, 499022, Note_off_c, 4, 64, 127
1, 499026, Note_on_c, 6, 66, 127
1, 499079, Note_off_c, 6, 66, 127
1, 499079, Note_off_c, 7, 55, 127
1, 499083, Note_on_c, 7, 67, 127
1, 499083, Note_on_c, 10, 57, 127
1, 499133, Note_off_c, 7, 67, 127
1, 499137, Note_on_c, 6, 66, 127
1, 499187, Note_off_c, 6, 66, 127
1, 499191, Note_on_c, 7, 67, 127
1, 499209, Note_off_c, 0, 48, 127
1, 499213, Note_on_c, 10, 45, 127
1, 499242, Note_off_c, 7, 67, 127
1, 499246, Note_on_c, 6, 66, 127
1, 499296, Note_off_c, 6, 66, 127
1, 499300, Note_on_c, 7, 67, 127
1, 499340, Note_off_c, 7, 67, 127
1, 499340, Note_off_c, 10, 45, 127
1, 499344, Note_on_c, 6, 66, 127
1, 499344, Note_on_c, 6, 42, 127
1, 499394, Note_off_c, 6, 66, 127
1, 499398, Note_on_c, 7, 67, 127
1, 499448, Note_off_c, 7, 67, 127
1, 499452, Note_on_c, 6, 66, 127
1, 499470, Note_off_c, 6, 42, 127
1, 499474, Note_on_c, 2, 38, 127
1, 499503, Note_off_c, 6, 66, 127
1, 499507, Note_on_c, 4, 64, 127
1, 499557, Note_off_c, 4, 64, 127
1, 499561, Note_on_c, 6, 66, 127
1, 499601, Note_off_c, 6, 66, 127
1, 499601, Note_off_c, 2, 38, 127
1, 499601, Note_off_c, 10, 57, 127
1, 499605, Note_on_c, 7, 67, 127
1, 499605, Note_on_c, 12, 47, 127
1, 499605, Note_on_c, 2, 50, 127
1, 499732, Note_off_c, 12, 47, 127
1, 499736, Note_on_c, 10, 45, 127
1, 499863, Note_off_c, 10, 45, 127
1, 499863, Note_off_c, 7, 67, 127
1, 499864, Note_off_c, 2, 50, 127
1, 499867, Note_on_c, 2, 74, 127
1, 499867, Note_on_c, 12, 47, 127
1, 499994, Note_off_c, 12, 47, 127
1, 499998, Note_on_c, 2, 50, 127
1, 500092, Note_off_c, 2, 74, 127
1, 500125, Note_off_c, 2, 50, 127
1, 500129, Note_on_c, 4, 76, 127
1, 500129, Note_on_c, 7, 43, 127
1, 500256, Note_off_c, 7, 43, 127
1, 500260, Note_on_c, 12, 47, 127
1, 500354, Note_off_c, 4, 76, 127
1, 500387, Note_off_c, 12, 47, 127
1, 500391, Note_on_c, 10, 69, 127
1, 500391, Note_on_c, 0, 48, 127
1, 500518, Note_off_c, 0, 48, 127
1, 500522, Note_on_c, 12, 47, 127
1, 500649, Note_off_c, 12, 47, 127
1, 500649, Note_off_c, 10, 69, 127
1, 500653, Note_on_c, 4, 76, 127
1, 500653, Note_on_c, 0, 48, 127
1, 500780, Note_off_c, 0, 48, 127
1, 500784, Note_on_c, 4, 52, 127
1, 500878, Note_off_c, 4, 76, 127
1, 500911, Note_off_c, 4, 52, 127
1, 500915, Note_on_c, 6, 78, 127
1, 500915, Note_on_c, 10, 45, 127
1, 501042, Note_off_c, 10, 45, 127
1, 501046, Note_on_c, 0, 48, 127
1, 501140, Note_off_c, 6, 78, 127
1, 501173, Note_off_c, 0, 48, 127
1, 501177, Note_on_c, 12, 71, 127
1, 501177, Note_on_c, 2, 50, 127
1, 501304, Note_off_c, 2, 50, 127
1, 501308, Note_on_c, 0, 48, 127
1, 501435, Note_off_c, 0, 48, 127
1, 501435, Note_off_c, 12, 71, 127
1, 501439, Note_on_c, 6, 78, 127
1, 501439, Note_on_c, 2, 50, 127
1, 501566, Note_off_c, 2, 50, 127
1, 501570, Note_on_c, 6, 54, 127
1, 501664, Note_off_c, 6, 78, 127
1, 501697, Note_off_c, 6, 54, 127
1, 501701, Note_on_c, 7, 79, 127
1, 501701, Note_on_c, 12, 47, 127
1, 501828, Note_off_c, 12, 47, 127
1, 501832, Note_on_c, 2, 50, 127
1, 501926, Note_off_c, 7, 79, 127
1, 501959, Note_off_c, 2, 50, 127
1, 501963, Note_on_c, 0, 72, 127
1, 501963, Note_on_c, 4, 52, 127
1, 502094, Note_on_c, 12, 71, 127
1, 502221, Note_off_c, 12, 71, 127
1, 502221, Note_off_c, 4, 52, 127
1, 502225, Note_on_c, 0, 48, 127
1, 502225, Note_on_c, 10, 69, 127
1, 502352, Note_off_c, 10, 69, 127
1, 502356, Note_on_c, 7, 67, 127
1, 502457, Note_off_c, 0, 48, 127
1, 502483, Note_off_c, 7, 67, 127
1, 502487, Note_on_c, 10, 45, 127
1, 502487, Note_on_c, 10, 69, 127
1, 502614, Note_off_c, 10, 69, 127
1, 502618, Note_on_c, 4, 64, 127
1, 502719, Note_off_c, 10, 45, 127
1, 502745, Note_off_c, 4, 64, 127
1, 502749, Note_on_c, 2, 50, 127
1, 502749, Note_on_c, 6, 66, 127
1, 502876, Note_off_c, 0, 72, 127
1, 502880, Note_on_c, 2, 74, 127
1, 503007, Note_off_c, 2, 74, 127
1, 503007, Note_off_c, 2, 50, 127
1, 503008, Note_off_c, 6, 66, 127
1, 503011, Note_on_c, 0, 72, 127
1, 503011, Note_on_c, 6, 54, 127
1, 503138, Note_off_c, 0, 72, 127
1, 503142, Note_on_c, 12, 71, 127
1, 503250, Note_off_c, 6, 54, 127
1, 503269, Note_off_c, 12, 71, 127
1, 503273, Note_on_c, 0, 72, 127
1, 503273, Note_on_c, 2, 50, 127
1, 503400, Note_off_c, 0, 72, 127
1, 503404, Note_on_c, 10, 69, 127
1, 503512, Note_off_c, 2, 50, 127
1, 503531, Note_off_c, 10, 69, 127
1, 503535, Note_on_c, 12, 71, 127
1, 503535, Note_on_c, 7, 55, 127
1, 503666, Note_on_c, 10, 69, 127
1, 503793, Note_off_c, 10, 69, 127
1, 503793, Note_off_c, 7, 55, 127
1, 503793, Note_off_c, 12, 71, 127
1, 503797, Note_on_c, 1, 73, 127
1, 503797, Note_on_c, 4, 52, 127
1, 503797, Note_on_c, 7, 67, 127
1, 503924, Note_off_c, 7, 67, 127
1, 503928, Note_on_c, 6, 66, 127
1, 504043, Note_off_c, 4, 52, 127
1, 504055, Note_off_c, 6, 66, 127
1, 504059, Note_on_c, 10, 57, 127
1, 504059, Note_on_c, 7, 67, 127
1, 504186, Note_off_c, 7, 67, 127
1, 504190, Note_on_c, 4, 64, 127
1, 504305, Note_off_c, 10, 57, 127
1, 504317, Note_off_c, 4, 64, 127
1, 504317, Note_off_c, 1, 73, 127
1, 504321, Note_on_c, 2, 74, 127
1, 504321, Note_on_c, 2, 50, 127
1, 504321, Note_on_c, 6, 66, 127
1, 504448, Note_off_c, 2, 50, 127
1, 504452, Note_on_c, 4, 52, 127
1, 504579, Note_off_c, 4, 52, 127
1, 504579, Note_off_c, 2, 74, 127
1, 504583, Note_on_c, 10, 69, 127
1, 504583, Note_on_c, 2, 50, 127
1, 504710, Note_off_c, 2, 50, 127
1, 504714, Note_on_c, 0, 48, 127
1, 504841, Note_off_c, 0, 48, 127
1, 504841, Note_off_c, 10, 69, 127
1, 504841, Note_off_c, 6, 66, 127
1, 504845, Note_on_c, 2, 74, 127
1, 504845, Note_on_c, 12, 47, 127
1, 504845, Note_on_c, 2, 62, 127
1, 504972, Note_off_c, 12, 47, 127
1, 504976, Note_on_c, 10, 45, 127
1, 505103, Note_off_c, 10, 45, 127
1, 505103, Note_off_c, 2, 62, 127
1, 505107, Note_on_c, 7, 43, 127
1, 505107, Note_on_c, 4, 64, 127
1, 505234, Note_off_c, 2, 74, 127
1, 505238, Note_on_c, 12, 71, 127
1, 505365, Note_off_c, 12, 71, 127
1, 505365, Note_off_c, 7, 43, 127
1, 505369, Note_on_c, 7, 67, 127
1, 505369, Note_on_c, 0, 48, 127
1, 505496, Note_off_c, 4, 64, 127
1, 505500, Note_on_c, 0, 60, 127
1, 505627, Note_off_c, 0, 60, 127
1, 505627, Note_off_c, 7, 67, 127
1, 505628, Note_off_c, 0, 48, 127
1, 505631, Note_on_c, 0, 72, 127
1, 505631, Note_on_c, 10, 57, 127
1, 505758, Note_off_c, 10, 57, 127
1, 505762, Note_on_c, 6, 54, 127
1, 505889, Note_off_c, 6, 54, 127
1, 505889, Note_off_c, 0, 72, 127
1, 505893, Note_on_c, 6, 66, 127
1, 505893, Note_on_c, 2, 62, 127
1, 506024, Note_on_c, 0, 48, 127
1, 506084, Note_off_c, 2, 62, 127
1, 506151, Note_off_c, 0, 48, 127
1, 506151, Note_off_c, 6, 66, 127
1, 506155, Note_on_c, 2, 62, 127
1, 506155, Note_on_c, 12, 47, 127
1, 506155, Note_on_c, 7, 55, 127
1, 506282, Note_off_c, 12, 47, 127
1, 506286, Note_on_c, 10, 45, 127
1, 506346, Note_off_c, 7, 55, 127
1, 506413, Note_off_c, 10, 45, 127
1, 506413, Note_off_c, 2, 62, 127
1, 506417, Note_on_c, 7, 67, 127
1, 506417, Note_on_c, 12, 47, 127
1, 506544, Note_off_c, 12, 47, 127
1, 506548, Note_on_c, 7, 43, 127
1, 506675, Note_off_c, 7, 43, 127
1, 506679, Note_on_c, 4, 40, 127
1, 506679, Note_on_c, 0, 60, 127
1, 506806, Note_off_c, 4, 40, 127
1, 506806, Note_off_c, 7, 67, 127
1, 506807, Note_on_c, 6, 66, 127
1, 506810, Note_on_c, 6, 42, 127
1, 506873, Note_off_c, 6, 66, 127
1, 506874, Note_on_c, 4, 64, 127
1, 506937, Note_off_c, 6, 42, 127
1, 506940, Note_off_c, 4, 64, 127
1, 506941, Note_on_c, 2, 62, 127
1, 506941, Note_on_c, 7, 43, 127
1, 507024, Note_off_c, 7, 43, 127
1, 507028, Note_on_c, 6, 42, 127
1, 507068, Note_off_c, 0, 60, 127
1, 507072, Note_on_c, 10, 57, 127
1, 507112, Note_off_c, 6, 42, 127
1, 507116, Note_on_c, 7, 43, 127
1, 507199, Note_off_c, 7, 43, 127
1, 507199, Note_off_c, 10, 57, 127
1, 507200, Note_off_c, 2, 62, 127
1, 507203, Note_on_c, 6, 42, 127
1, 507203, Note_on_c, 6, 54, 127
1, 507286, Note_off_c, 6, 42, 127
1, 507290, Note_on_c, 4, 40, 127
1, 507330, Note_off_c, 6, 54, 127
1, 507334, Note_on_c, 2, 50, 127
1, 507374, Note_off_c, 4, 40, 127
1, 507378, Note_on_c, 6, 42, 127
1, 507461, Note_off_c, 6, 42, 127
1, 507461, Note_off_c, 2, 50, 127
1, 507465, Note_on_c, 7, 43, 127
1, 507465, Note_on_c, 12, 59, 127
1, 507596, Note_on_c, 0, 60, 127
1, 507723, Note_off_c, 0, 60, 127
1, 507727, Note_on_c, 2, 62, 127
1, 507727, Note_on_c, 7, 31, 127
1, 507854, Note_off_c, 2, 62, 127
1, 507858, Note_on_c, 5, 65, 127
1, 507983, Note_off_c, 7, 43, 127
1, 507984, Note_off_c, 5, 65, 127
1, 507984, Note_off_c, 7, 31, 127
1, 507988, Note_on_c, 4, 64, 127
1, 507988, Note_on_c, 7, 43, 127
1, 508115, Note_off_c, 4, 64, 127
1, 508119, Note_on_c, 7, 67, 127
1, 508246, Note_off_c, 7, 67, 127
1, 508246, Note_off_c, 7, 43, 127
1, 508246, Note_off_c, 12, 59, 127
1, 508250, Note_on_c, 5, 65, 127
1, 508250, Note_on_c, 10, 45, 127
1, 508250, Note_on_c, 0, 60, 127
1, 508377, Note_off_c, 10, 45, 127
1, 508377, Note_off_c, 5, 65, 127
1, 508381, Note_on_c, 7, 67, 127
1, 508381, Note_on_c, 12, 47, 127
1, 508508, Note_off_c, 12, 47, 127
1, 508508, Note_off_c, 7, 67, 127
1, 508508, Note_off_c, 0, 60, 127
1, 508512, Note_on_c, 5, 65, 127
1, 508512, Note_on_c, 0, 48, 127
1, 508512, Note_on_c, 2, 62, 127
1, 508595, Note_off_c, 0, 48, 127
1, 508599, Note_on_c, 12, 47, 127
1, 508639, Note_off_c, 5, 65, 127
1, 508643, Note_on_c, 4, 64, 127
1, 508683, Note_off_c, 12, 47, 127
1, 508687, Note_on_c, 0, 48, 127
1, 508770, Note_off_c, 0, 48, 127
1, 508770, Note_off_c, 4, 64, 127
1, 508771, Note_off_c, 2, 62, 127
1, 508774, Note_on_c, 5, 65, 127
1, 508774, Note_on_c, 12, 47, 127
1, 508857, Note_off_c, 12, 47, 127
1, 508861, Note_on_c, 10, 45, 127
1, 508901, Note_off_c, 5, 65, 127
1, 508905, Note_on_c, 2, 62, 127
1, 508945, Note_off_c, 10, 45, 127
1, 508949, Note_on_c, 12, 47, 127
1, 509032, Note_off_c, 12, 47, 127
1, 509032, Note_off_c, 2, 62, 127
1, 509036, Note_on_c, 4, 64, 127
1, 509036, Note_on_c, 0, 48, 127
1, 509036, Note_on_c, 7, 55, 127
1, 509163, Note_off_c, 4, 64, 127
1, 509167, Note_on_c, 10, 69, 127
1, 509254, Note_off_c, 0, 48, 127
1, 509294, Note_off_c, 10, 69, 127
1, 509294, Note_off_c, 7, 55, 127
1, 509298, Note_on_c, 7, 67, 127
1, 509298, Note_on_c, 2, 50, 127
1, 509298, Note_on_c, 4, 52, 127
1, 509381, Note_off_c, 2, 50, 127
1, 509385, Note_on_c, 1, 49, 127
1, 509425, Note_off_c, 7, 67, 127
1, 509429, Note_on_c, 6, 66, 127
1, 509469, Note_off_c, 1, 49, 127
1, 509473, Note_on_c, 2, 50, 127
1, 509556, Note_off_c, 2, 50, 127
1, 509556, Note_off_c, 6, 66, 127
1, 509556, Note_off_c, 4, 52, 127
1, 509560, Note_on_c, 7, 67, 127
1, 509560, Note_on_c, 1, 49, 127
1, 509643, Note_off_c, 1, 49, 127
1, 509647, Note_on_c, 12, 47, 127
1, 509687, Note_off_c, 7, 67, 127
1, 509691, Note_on_c, 4, 64, 127
1, 509731, Note_off_c, 12, 47, 127
1, 509735, Note_on_c, 1, 49, 127
1, 509818, Note_off_c, 1, 49, 127
1, 509818, Note_off_c, 4, 64, 127
1, 509822, Note_on_c, 6, 66, 127
1, 509822, Note_on_c, 2, 50, 127
1, 509822, Note_on_c, 10, 57, 127
1, 509949, Note_off_c, 6, 66, 127
1, 509953, Note_on_c, 12, 71, 127
1, 510040, Note_off_c, 2, 50, 127
1, 510080, Note_off_c, 12, 71, 127
1, 510080, Note_off_c, 10, 57, 127
1, 510084, Note_on_c, 10, 69, 127
1, 510084, Note_on_c, 4, 52, 127
1, 510084, Note_on_c, 6, 54, 127
1, 510167, Note_off_c, 4, 52, 127
1, 510171, Note_on_c, 3, 51, 127
1, 510211, Note_off_c, 10, 69, 127
1, 510215, Note_on_c, 7, 67, 127
1, 510255, Note_off_c, 3, 51, 127
1, 510259, Note_on_c, 4, 52, 127
1, 510342, Note_off_c, 4, 52, 127
1, 510342, Note_off_c, 7, 67, 127
1, 510343, Note_off_c, 6, 54, 127
1, 510346, Note_on_c, 10, 69, 127
1, 510346, Note_on_c, 3, 51, 127
1, 510429, Note_off_c, 3, 51, 127
1, 510433, Note_on_c, 1, 49, 127
1, 510473, Note_off_c, 10, 69, 127
1, 510477, Note_on_c, 6, 66, 127
1, 510517, Note_off_c, 1, 49, 127
1, 510521, Note_on_c, 3, 51, 127
1, 510604, Note_off_c, 3, 51, 127
1, 510604, Note_off_c, 6, 66, 127
1, 510608, Note_on_c, 7, 67, 127
1, 510608, Note_on_c, 4, 52, 127
1, 510735, Note_off_c, 4, 52, 127
1, 510739, Note_on_c, 6, 54, 127
1, 510739, Note_on_c, 2, 62, 127
1, 510866, Note_off_c, 2, 62, 127
1, 510866, Note_off_c, 6, 54, 127
1, 510866, Note_off_c, 7, 67, 127
1, 510870, Note_on_c, 10, 69, 127
1, 510870, Note_on_c, 7, 55, 127
1, 510870, Note_on_c, 0, 60, 127
1, 510953, Note_off_c, 7, 55, 127
1, 510957, Note_on_c, 6, 54, 127
1, 510997, Note_off_c, 0, 60, 127
1, 511001, Note_on_c, 12, 59, 127
1, 511041, Note_off_c, 6, 54, 127
1, 511045, Note_on_c, 7, 55, 127
1, 511128, Note_off_c, 7, 55, 127
1, 511128, Note_off_c, 12, 59, 127
1, 511129, Note_off_c, 10, 69, 127
1, 511132, Note_on_c, 6, 54, 127
1, 511132, Note_on_c, 0, 60, 127
1, 511215, Note_off_c, 6, 54, 127
1, 511219, Note_on_c, 4, 52, 127
1, 511259, Note_off_c, 0, 60, 127
1, 511263, Note_on_c, 10, 57, 127
1, 511303, Note_off_c, 4, 52, 127
1, 511307, Note_on_c, 6, 54, 127
1, 511390, Note_off_c, 6, 54, 127
1, 511390, Note_off_c, 10, 57, 127
1, 511394, Note_on_c, 7, 55, 127
1, 511394, Note_on_c, 12, 59, 127
1, 511521, Note_off_c, 12, 59, 127
1, 511525, Note_on_c, 2, 62, 127
1, 511652, Note_off_c, 7, 55, 127
1, 511656, Note_on_c, 7, 67, 127
1, 511656, Note_on_c, 12, 47, 127
1, 511783, Note_off_c, 7, 67, 127
1, 511787, Note_on_c, 12, 71, 127
1, 511914, Note_off_c, 12, 71, 127
1, 511914, Note_off_c, 12, 47, 127
1, 511918, Note_on_c, 10, 69, 127
1, 511918, Note_on_c, 2, 50, 127
1, 512057, Note_on_c, 6, 66, 127
1, 512109, Note_off_c, 10, 69, 127
1, 512176, Note_off_c, 2, 62, 127
1, 512177, Note_off_c, 6, 66, 127
1, 512204, Note_off_c, 2, 50, 127
1, 512248, Note_on_c, 7, 43, 127
1, 512248, Note_on_c, 0, 60, 127
1, 512248, Note_on_c, 6, 66, 127
1, 512705, Note_off_c, 6, 66, 127
1, 512705, Note_off_c, 0, 60, 127
1, 512795, Note_on_c, 7, 67, 127
1, 512795, Note_on_c, 12, 59, 127
1, 513873, Note_off_c, 7, 43, 127
1, 513995, Note_off_c, 12, 59, 127
1, 513995, Note_off_c, 7, 67, 127
1, 517632, End_track
0, 0, End_of_file
