0, 0, Header, 0, 1, 384
1, 0, Start_track
1, 0, Copyright_t, "(C) John Sankey 1998"
1, 0, Program_c, 0, 6
1, 0, Pitch_bend_c, 0, 8192
1, 0, Program_c, 1, 6
1, 0, Pitch_bend_c, 1, 7792
1, 0, Program_c, 2, 6
1, 0, Pitch_bend_c, 2, 7876
1, 0, Program_c, 3, 6
1, 0, Pitch_bend_c, 3, 7952
1, 0, Program_c, 4, 6
1, 0, Pitch_bend_c, 4, 7792
1, 0, Program_c, 5, 6
1, 0, Pitch_bend_c, 5, 8112
1, 0, Program_c, 6, 6
1, 0, Pitch_bend_c, 6, 7712
1, 0, Program_c, 7, 6
1, 0, Pitch_bend_c, 7, 8037
1, 0, Program_c, 8, 6
1, 0, Pitch_bend_c, 8, 7872
1, 0, Program_c, 10, 6
1, 0, Pitch_bend_c, 10, 7712
1, 0, Program_c, 11, 6
1, 0, Pitch_bend_c, 11, 8032
1, 0, Program_c, 12, 6
1, 0, Pitch_bend_c, 12, 7872
1, 0, Tempo, 500000
1, 55, Note_on_c, 10, 57, 127
1, 191, Note_on_c, 10, 69, 127
1, 325, Note_off_c, 10, 69, 127
1, 325, Note_off_c, 10, 57, 127
1, 326, Note_on_c, 10, 45, 127
1, 326, Note_on_c, 12, 71, 127
1, 460, Note_off_c, 12, 71, 127
1, 461, Note_on_c, 8, 68, 127
1, 595, Note_off_c, 8, 68, 127
1, 595, Note_off_c, 10, 45, 127
1, 596, Note_on_c, 10, 57, 127
1, 596, Note_on_c, 10, 69, 127
1, 730, Note_off_c, 10, 69, 127
1, 731, Note_on_c, 0, 72, 127
1, 865, Note_off_c, 0, 72, 127
1, 866, Note_on_c, 2, 62, 127
1, 990, Note_off_c, 10, 57, 127
1, 1000, Note_off_c, 2, 62, 127
1, 1001, Note_on_c, 12, 71, 127
1, 1135, Note_off_c, 12, 71, 127
1, 1136, Note_on_c, 8, 56, 127
1, 1136, Note_on_c, 4, 64, 127
1, 1270, Note_off_c, 4, 64, 127
1, 1271, Note_on_c, 2, 62, 127
1, 1405, Note_off_c, 2, 62, 127
1, 1405, Note_off_c, 8, 56, 127
1, 1406, Note_on_c, 4, 52, 127
1, 1406, Note_on_c, 0, 60, 127
1, 1540, Note_off_c, 0, 60, 127
1, 1541, Note_on_c, 12, 59, 127
1, 1674, Note_off_c, 4, 52, 127
1, 1675, Note_off_c, 12, 59, 127
1, 1676, Note_on_c, 0, 60, 127
1, 1812, Note_on_c, 10, 57, 127
1, 1916, Note_off_c, 0, 60, 127
1, 1946, Note_off_c, 10, 57, 127
1, 1947, Note_on_c, 12, 59, 127
1, 1947, Note_on_c, 4, 64, 127
1, 2081, Note_off_c, 12, 59, 127
1, 2082, Note_on_c, 8, 56, 127
1, 2187, Note_off_c, 4, 64, 127
1, 2216, Note_off_c, 8, 56, 127
1, 2217, Note_on_c, 10, 57, 127
1, 2217, Note_on_c, 10, 69, 127
1, 2351, Note_off_c, 10, 57, 127
1, 2352, Note_on_c, 0, 60, 127
1, 2486, Note_off_c, 0, 60, 127
1, 2487, Note_on_c, 2, 50, 127
1, 2517, Note_off_c, 10, 69, 127
1, 2621, Note_off_c, 2, 50, 127
1, 2622, Note_on_c, 12, 59, 127
1, 2756, Note_off_c, 12, 59, 127
1, 2757, Note_on_c, 4, 52, 127
1, 2757, Note_on_c, 8, 68, 127
1, 2891, Note_off_c, 4, 52, 127
1, 2892, Note_on_c, 2, 50, 127
1, 2997, Note_off_c, 8, 68, 127
1, 3026, Note_off_c, 2, 50, 127
1, 3027, Note_on_c, 0, 48, 127
1, 3027, Note_on_c, 12, 71, 127
1, 3161, Note_off_c, 0, 48, 127
1, 3162, Note_on_c, 12, 47, 127
1, 3296, Note_off_c, 12, 47, 127
1, 3297, Note_on_c, 0, 48, 127
1, 3337, Note_off_c, 12, 71, 127
1, 3433, Note_on_c, 10, 69, 127
1, 3567, Note_off_c, 10, 69, 127
1, 3567, Note_off_c, 0, 48, 127
1, 3568, Note_on_c, 4, 52, 127
1, 3568, Note_on_c, 8, 68, 127
1, 3702, Note_off_c, 8, 68, 127
1, 3703, Note_on_c, 10, 69, 127
1, 3837, Note_off_c, 10, 69, 127
1, 3837, Note_off_c, 4, 52, 127
1, 3838, Note_on_c, 10, 57, 127
1, 3838, Note_on_c, 12, 71, 127
1, 3972, Note_off_c, 12, 71, 127
1, 3973, Note_on_c, 0, 72, 127
1, 4107, Note_off_c, 0, 72, 127
1, 4108, Note_on_c, 2, 74, 127
1, 4204, Note_off_c, 10, 57, 127
1, 4242, Note_off_c, 2, 74, 127
1, 4243, Note_on_c, 5, 77, 127
1, 4377, Note_off_c, 5, 77, 127
1, 4378, Note_on_c, 8, 56, 127
1, 4378, Note_on_c, 12, 71, 127
1, 4512, Note_off_c, 12, 71, 127
1, 4513, Note_on_c, 5, 77, 127
1, 4647, Note_off_c, 5, 77, 127
1, 4647, Note_off_c, 8, 56, 127
1, 4648, Note_on_c, 12, 59, 127
1, 4648, Note_on_c, 4, 76, 127
1, 4782, Note_off_c, 4, 76, 127
1, 4783, Note_on_c, 2, 74, 127
1, 4917, Note_off_c, 2, 74, 127
1, 4918, Note_on_c, 0, 72, 127
1, 5014, Note_off_c, 12, 59, 127
1, 5054, Note_on_c, 10, 57, 127
1, 5188, Note_off_c, 10, 57, 127
1, 5188, Note_off_c, 0, 72, 127
1, 5189, Note_on_c, 8, 56, 127
1, 5189, Note_on_c, 12, 71, 127
1, 5323, Note_off_c, 12, 71, 127
1, 5323, Note_off_c, 8, 56, 127
1, 5324, Note_on_c, 10, 57, 127
1, 5324, Note_on_c, 10, 69, 127
1, 5434, Note_off_c, 10, 69, 127
1, 5458, Note_off_c, 10, 57, 127
1, 5459, Note_on_c, 12, 59, 127
1, 5459, Note_on_c, 5, 77, 127
1, 5593, Note_off_c, 12, 59, 127
1, 5594, Note_on_c, 0, 60, 127
1, 5728, Note_off_c, 0, 60, 127
1, 5729, Note_on_c, 2, 62, 127
1, 5863, Note_off_c, 2, 62, 127
1, 5864, Note_on_c, 5, 65, 127
1, 5966, Note_off_c, 5, 77, 127
1, 5998, Note_off_c, 5, 65, 127
1, 5999, Note_on_c, 12, 59, 127
1, 5999, Note_on_c, 4, 76, 127
1, 6133, Note_off_c, 4, 76, 127
1, 6133, Note_off_c, 12, 59, 127
1, 6134, Note_on_c, 5, 65, 127
1, 6134, Note_on_c, 2, 74, 127
1, 6268, Note_off_c, 2, 74, 127
1, 6268, Note_off_c, 5, 65, 127
1, 6269, Note_on_c, 4, 64, 127
1, 6269, Note_on_c, 7, 79, 127
1, 6403, Note_off_c, 4, 64, 127
1, 6404, Note_on_c, 2, 62, 127
1, 6494, Note_off_c, 7, 79, 127
1, 6538, Note_off_c, 2, 62, 127
1, 6539, Note_on_c, 0, 60, 127
1, 6539, Note_on_c, 4, 76, 127
1, 6673, Note_off_c, 4, 76, 127
1, 6674, Note_on_c, 0, 72, 127
1, 6808, Note_off_c, 0, 72, 127
1, 6808, Note_off_c, 0, 60, 127
1, 6809, Note_on_c, 4, 64, 127
1, 6809, Note_on_c, 2, 74, 127
1, 6943, Note_off_c, 2, 74, 127
1, 6944, Note_on_c, 12, 71, 127
1, 7070, Note_off_c, 4, 64, 127
1, 7078, Note_off_c, 12, 71, 127
1, 7079, Note_on_c, 10, 57, 127
1, 7079, Note_on_c, 0, 72, 127
1, 7214, Note_on_c, 4, 76, 127
1, 7225, Note_off_c, 0, 72, 127
1, 7323, Note_off_c, 10, 57, 127
1, 7349, Note_on_c, 5, 65, 127
1, 7349, Note_on_c, 10, 81, 127
1, 7360, Note_off_c, 4, 76, 127
1, 7485, Note_on_c, 12, 71, 127
1, 7619, Note_off_c, 12, 71, 127
1, 7619, Note_off_c, 5, 65, 127
1, 7620, Note_on_c, 2, 62, 127
1, 7620, Note_on_c, 0, 72, 127
1, 7645, Note_off_c, 10, 81, 127
1, 7754, Note_off_c, 0, 72, 127
1, 7755, Note_on_c, 10, 69, 127
1, 7889, Note_off_c, 10, 69, 127
1, 7889, Note_off_c, 2, 62, 127
1, 7890, Note_on_c, 7, 55, 127
1, 7890, Note_on_c, 12, 71, 127
1, 8024, Note_off_c, 12, 71, 127
1, 8025, Note_on_c, 2, 74, 127
1, 8159, Note_off_c, 2, 74, 127
1, 8159, Note_off_c, 7, 55, 127
1, 8160, Note_on_c, 4, 64, 127
1, 8160, Note_on_c, 7, 79, 127
1, 8296, Note_on_c, 10, 69, 127
1, 8430, Note_off_c, 10, 69, 127
1, 8430, Note_off_c, 4, 64, 127
1, 8431, Note_on_c, 0, 60, 127
1, 8431, Note_on_c, 12, 71, 127
1, 8456, Note_off_c, 7, 79, 127
1, 8565, Note_off_c, 12, 71, 127
1, 8566, Note_on_c, 8, 68, 127
1, 8700, Note_off_c, 8, 68, 127
1, 8700, Note_off_c, 0, 60, 127
1, 8701, Note_on_c, 5, 53, 127
1, 8701, Note_on_c, 10, 69, 127
1, 8835, Note_off_c, 10, 69, 127
1, 8836, Note_on_c, 0, 72, 127
1, 8970, Note_off_c, 0, 72, 127
1, 8970, Note_off_c, 5, 53, 127
1, 8971, Note_on_c, 2, 62, 127
1, 8971, Note_on_c, 5, 77, 127
1, 9105, Note_off_c, 2, 62, 127
1, 9106, Note_on_c, 12, 59, 127
1, 9240, Note_off_c, 12, 59, 127
1, 9241, Note_on_c, 0, 60, 127
1, 9241, Note_on_c, 2, 74, 127
1, 9281, Note_off_c, 5, 77, 127
1, 9376, Note_off_c, 0, 60, 127
1, 9377, Note_on_c, 10, 57, 127
1, 9511, Note_off_c, 10, 57, 127
1, 9511, Note_off_c, 2, 74, 127
1, 9512, Note_on_c, 12, 59, 127
1, 9512, Note_on_c, 7, 67, 127
1, 9646, Note_off_c, 12, 59, 127
1, 9647, Note_on_c, 2, 62, 127
1, 9781, Note_off_c, 2, 62, 127
1, 9781, Note_off_c, 7, 67, 127
1, 9782, Note_on_c, 7, 67, 127
1, 9782, Note_on_c, 4, 76, 127
1, 9916, Note_off_c, 7, 67, 127
1, 9917, Note_on_c, 10, 57, 127
1, 10051, Note_off_c, 10, 57, 127
1, 10052, Note_on_c, 12, 59, 127
1, 10052, Note_on_c, 0, 72, 127
1, 10092, Note_off_c, 4, 76, 127
1, 10187, Note_off_c, 12, 59, 127
1, 10188, Note_on_c, 7, 55, 127
1, 10322, Note_off_c, 7, 55, 127
1, 10322, Note_off_c, 0, 72, 127
1, 10323, Note_on_c, 10, 57, 127
1, 10323, Note_on_c, 5, 65, 127
1, 10457, Note_off_c, 10, 57, 127
1, 10458, Note_on_c, 0, 60, 127
1, 10592, Note_off_c, 0, 60, 127
1, 10592, Note_off_c, 5, 65, 127
1, 10593, Note_on_c, 5, 65, 127
1, 10593, Note_on_c, 2, 74, 127
1, 10727, Note_off_c, 5, 65, 127
1, 10728, Note_on_c, 8, 56, 127
1, 10728, Note_on_c, 4, 64, 127
1, 10862, Note_off_c, 4, 64, 127
1, 10862, Note_off_c, 8, 56, 127
1, 10863, Note_on_c, 10, 57, 127
1, 10863, Note_on_c, 5, 65, 127
1, 10903, Note_off_c, 2, 74, 127
1, 10998, Note_off_c, 10, 57, 127
1, 10999, Note_on_c, 6, 54, 127
1, 10999, Note_on_c, 2, 62, 127
1, 11061, Note_off_c, 5, 65, 127
1, 11133, Note_off_c, 2, 62, 127
1, 11133, Note_off_c, 6, 54, 127
1, 11134, Note_on_c, 8, 56, 127
1, 11134, Note_on_c, 4, 64, 127
1, 11261, Note_off_c, 4, 64, 127
1, 11268, Note_off_c, 8, 56, 127
1, 11269, Note_on_c, 12, 59, 127
1, 11269, Note_on_c, 8, 68, 127
1, 11396, Note_off_c, 8, 68, 127
1, 11403, Note_off_c, 12, 59, 127
1, 11404, Note_on_c, 4, 64, 127
1, 11404, Note_on_c, 0, 72, 127
1, 11538, Note_off_c, 4, 64, 127
1, 11539, Note_on_c, 10, 57, 127
1, 11673, Note_off_c, 10, 57, 127
1, 11673, Note_off_c, 0, 72, 127
1, 11674, Note_on_c, 2, 62, 127
1, 11674, Note_on_c, 12, 71, 127
1, 11808, Note_off_c, 2, 62, 127
1, 11809, Note_on_c, 4, 52, 127
1, 11943, Note_off_c, 4, 52, 127
1, 11943, Note_off_c, 12, 71, 127
1, 11944, Note_on_c, 5, 53, 127
1, 11944, Note_on_c, 10, 69, 127
1, 12078, Note_off_c, 5, 53, 127
1, 12079, Note_on_c, 2, 50, 127
1, 12213, Note_off_c, 2, 50, 127
1, 12213, Note_off_c, 10, 69, 127
1, 12214, Note_on_c, 4, 52, 127
1, 12214, Note_on_c, 8, 68, 127
1, 12348, Note_off_c, 8, 68, 127
1, 12349, Note_on_c, 10, 69, 127
1, 12483, Note_off_c, 10, 69, 127
1, 12483, Note_off_c, 4, 52, 127
1, 12484, Note_on_c, 8, 56, 127
1, 12484, Note_on_c, 12, 71, 127
1, 12618, Note_off_c, 12, 71, 127
1, 12619, Note_on_c, 5, 65, 127
1, 12739, Note_off_c, 5, 65, 127
1, 12745, Note_off_c, 8, 56, 127
1, 12755, Note_on_c, 4, 52, 127
1, 12755, Note_on_c, 4, 64, 127
1, 12868, Note_off_c, 4, 64, 127
1, 12891, Note_on_c, 2, 62, 127
1, 12990, Note_off_c, 2, 62, 127
1, 13003, Note_off_c, 4, 52, 127
1, 13027, Note_on_c, 10, 57, 127
1, 13027, Note_on_c, 0, 60, 127
1, 13163, Note_on_c, 4, 64, 127
1, 13231, Note_off_c, 0, 60, 127
1, 13297, Note_off_c, 4, 64, 127
1, 13297, Note_off_c, 10, 57, 127
1, 13298, Note_on_c, 10, 45, 127
1, 13298, Note_on_c, 5, 65, 127
1, 13432, Note_off_c, 5, 65, 127
1, 13433, Note_on_c, 2, 62, 127
1, 13567, Note_off_c, 2, 62, 127
1, 13567, Note_off_c, 10, 45, 127
1, 13568, Note_on_c, 10, 57, 127
1, 13568, Note_on_c, 4, 64, 127
1, 13702, Note_off_c, 4, 64, 127
1, 13703, Note_on_c, 10, 69, 127
1, 13837, Note_off_c, 10, 69, 127
1, 13838, Note_on_c, 12, 71, 127
1, 13934, Note_off_c, 10, 57, 127
1, 13974, Note_on_c, 8, 56, 127
1, 13974, Note_on_c, 4, 64, 127
1, 14107, Note_off_c, 12, 71, 127
1, 14108, Note_off_c, 4, 64, 127
1, 14108, Note_off_c, 8, 56, 127
1, 14109, Note_on_c, 10, 57, 127
1, 14109, Note_on_c, 5, 65, 127
1, 14243, Note_off_c, 5, 65, 127
1, 14243, Note_off_c, 10, 57, 127
1, 14244, Note_on_c, 6, 54, 127
1, 14244, Note_on_c, 2, 62, 127
1, 14378, Note_off_c, 2, 62, 127
1, 14378, Note_off_c, 6, 54, 127
1, 14379, Note_on_c, 8, 56, 127
1, 14379, Note_on_c, 4, 64, 127
1, 14513, Note_off_c, 4, 64, 127
1, 14513, Note_off_c, 8, 56, 127
1, 14514, Note_on_c, 4, 52, 127
1, 14514, Note_on_c, 12, 71, 127
1, 14648, Note_off_c, 12, 71, 127
1, 14648, Note_off_c, 4, 52, 127
1, 14649, Note_on_c, 10, 57, 127
1, 14649, Note_on_c, 0, 72, 127
1, 14783, Note_off_c, 10, 57, 127
1, 14784, Note_on_c, 8, 56, 127
1, 14784, Note_on_c, 4, 64, 127
1, 14917, Note_off_c, 0, 72, 127
1, 14918, Note_off_c, 4, 64, 127
1, 14918, Note_off_c, 8, 56, 127
1, 14919, Note_on_c, 10, 57, 127
1, 14919, Note_on_c, 5, 65, 127
1, 15053, Note_off_c, 5, 65, 127
1, 15053, Note_off_c, 10, 57, 127
1, 15054, Note_on_c, 12, 59, 127
1, 15054, Note_on_c, 2, 62, 127
1, 15188, Note_off_c, 2, 62, 127
1, 15188, Note_off_c, 12, 59, 127
1, 15189, Note_on_c, 0, 60, 127
1, 15189, Note_on_c, 4, 64, 127
1, 15323, Note_off_c, 4, 64, 127
1, 15323, Note_off_c, 0, 60, 127
1, 15324, Note_on_c, 2, 62, 127
1, 15324, Note_on_c, 0, 72, 127
1, 15458, Note_off_c, 0, 72, 127
1, 15458, Note_off_c, 2, 62, 127
1, 15459, Note_on_c, 4, 64, 127
1, 15459, Note_on_c, 12, 71, 127
1, 15593, Note_off_c, 12, 71, 127
1, 15593, Note_off_c, 4, 64, 127
1, 15594, Note_on_c, 5, 65, 127
1, 15594, Note_on_c, 10, 69, 127
1, 15728, Note_off_c, 10, 69, 127
1, 15728, Note_off_c, 5, 65, 127
1, 15729, Note_on_c, 4, 64, 127
1, 15729, Note_on_c, 8, 68, 127
1, 15863, Note_off_c, 4, 64, 127
1, 15864, Note_on_c, 2, 62, 127
1, 15864, Note_on_c, 12, 71, 127
1, 15898, Note_off_c, 8, 68, 127
1, 15998, Note_off_c, 12, 71, 127
1, 15998, Note_off_c, 2, 62, 127
1, 15999, Note_on_c, 0, 60, 127
1, 15999, Note_on_c, 4, 64, 127
1, 16133, Note_off_c, 0, 60, 127
1, 16134, Note_on_c, 12, 59, 127
1, 16267, Note_off_c, 4, 64, 127
1, 16268, Note_off_c, 12, 59, 127
1, 16269, Note_on_c, 10, 57, 127
1, 16405, Note_on_c, 4, 76, 127
1, 16539, Note_off_c, 4, 76, 127
1, 16540, Note_on_c, 10, 45, 127
1, 16540, Note_on_c, 5, 77, 127
1, 16674, Note_off_c, 5, 77, 127
1, 16675, Note_on_c, 2, 74, 127
1, 16805, Note_off_c, 10, 57, 127
1, 16809, Note_off_c, 2, 74, 127
1, 16809, Note_off_c, 10, 45, 127
1, 16810, Note_on_c, 10, 57, 127
1, 16810, Note_on_c, 4, 76, 127
1, 16944, Note_off_c, 4, 76, 127
1, 16945, Note_on_c, 0, 72, 127
1, 17041, Note_off_c, 10, 57, 127
1, 17079, Note_off_c, 0, 72, 127
1, 17080, Note_on_c, 7, 55, 127
1, 17080, Note_on_c, 12, 71, 127
1, 17216, Note_on_c, 4, 76, 127
1, 17236, Note_off_c, 12, 71, 127
1, 17350, Note_off_c, 4, 76, 127
1, 17351, Note_on_c, 7, 43, 127
1, 17351, Note_on_c, 5, 77, 127
1, 17485, Note_off_c, 5, 77, 127
1, 17486, Note_on_c, 2, 74, 127
1, 17616, Note_off_c, 7, 55, 127
1, 17620, Note_off_c, 2, 74, 127
1, 17620, Note_off_c, 7, 43, 127
1, 17621, Note_on_c, 7, 55, 127
1, 17621, Note_on_c, 4, 76, 127
1, 17755, Note_off_c, 4, 76, 127
1, 17756, Note_on_c, 12, 71, 127
1, 17890, Note_off_c, 12, 71, 127
1, 17890, Note_off_c, 7, 55, 127
1, 17891, Note_on_c, 5, 53, 127
1, 17891, Note_on_c, 10, 69, 127
1, 18027, Note_on_c, 4, 76, 127
1, 18047, Note_off_c, 10, 69, 127
1, 18161, Note_off_c, 4, 76, 127
1, 18162, Note_on_c, 5, 41, 127
1, 18162, Note_on_c, 5, 77, 127
1, 18296, Note_off_c, 5, 77, 127
1, 18297, Note_on_c, 2, 74, 127
1, 18427, Note_off_c, 5, 53, 127
1, 18431, Note_off_c, 2, 74, 127
1, 18431, Note_off_c, 5, 41, 127
1, 18432, Note_on_c, 5, 53, 127
1, 18432, Note_on_c, 4, 76, 127
1, 18566, Note_off_c, 4, 76, 127
1, 18567, Note_on_c, 10, 69, 127
1, 18701, Note_off_c, 10, 69, 127
1, 18701, Note_off_c, 5, 53, 127
1, 18702, Note_on_c, 4, 52, 127
1, 18702, Note_on_c, 8, 68, 127
1, 18836, Note_off_c, 8, 68, 127
1, 18837, Note_on_c, 12, 71, 127
1, 18971, Note_off_c, 12, 71, 127
1, 18971, Note_off_c, 4, 52, 127
1, 18972, Note_on_c, 8, 44, 127
1, 18972, Note_on_c, 4, 64, 127
1, 19106, Note_off_c, 4, 64, 127
1, 19107, Note_on_c, 0, 72, 127
1, 19241, Note_off_c, 0, 72, 127
1, 19241, Note_off_c, 8, 44, 127
1, 19242, Note_on_c, 4, 40, 127
1, 19242, Note_on_c, 2, 74, 127
1, 19376, Note_off_c, 2, 74, 127
1, 19377, Note_on_c, 12, 71, 127
1, 19511, Note_off_c, 12, 71, 127
1, 19511, Note_off_c, 4, 40, 127
1, 19512, Note_on_c, 10, 45, 127
1, 19512, Note_on_c, 0, 72, 127
1, 19646, Note_off_c, 0, 72, 127
1, 19647, Note_on_c, 4, 76, 127
1, 19781, Note_off_c, 4, 76, 127
1, 19781, Note_off_c, 10, 45, 127
1, 19782, Note_on_c, 12, 47, 127
1, 19782, Note_on_c, 10, 69, 127
1, 19916, Note_off_c, 10, 69, 127
1, 19917, Note_on_c, 8, 68, 127
1, 20051, Note_off_c, 8, 68, 127
1, 20051, Note_off_c, 12, 47, 127
1, 20052, Note_on_c, 0, 48, 127
1, 20052, Note_on_c, 10, 69, 127
1, 20186, Note_off_c, 10, 69, 127
1, 20187, Note_on_c, 0, 72, 127
1, 20321, Note_off_c, 0, 72, 127
1, 20321, Note_off_c, 0, 48, 127
1, 20322, Note_on_c, 2, 50, 127
1, 20322, Note_on_c, 6, 66, 127
1, 20458, Note_on_c, 10, 69, 127
1, 20591, Note_off_c, 6, 66, 127
1, 20592, Note_off_c, 10, 69, 127
1, 20592, Note_off_c, 2, 50, 127
1, 20593, Note_on_c, 6, 54, 127
1, 20593, Note_on_c, 2, 62, 127
1, 20727, Note_off_c, 2, 62, 127
1, 20728, Note_on_c, 12, 71, 127
1, 20862, Note_off_c, 12, 71, 127
1, 20862, Note_off_c, 6, 54, 127
1, 20863, Note_on_c, 2, 50, 127
1, 20863, Note_on_c, 0, 72, 127
1, 20997, Note_off_c, 0, 72, 127
1, 20998, Note_on_c, 10, 69, 127
1, 21132, Note_off_c, 10, 69, 127
1, 21132, Note_off_c, 2, 50, 127
1, 21133, Note_on_c, 7, 55, 127
1, 21133, Note_on_c, 12, 71, 127
1, 21267, Note_off_c, 12, 71, 127
1, 21268, Note_on_c, 2, 74, 127
1, 21402, Note_off_c, 2, 74, 127
1, 21402, Note_off_c, 7, 55, 127
1, 21403, Note_on_c, 10, 57, 127
1, 21403, Note_on_c, 7, 67, 127
1, 21537, Note_off_c, 7, 67, 127
1, 21538, Note_on_c, 6, 66, 127
1, 21672, Note_off_c, 6, 66, 127
1, 21672, Note_off_c, 10, 57, 127
1, 21673, Note_on_c, 12, 59, 127
1, 21673, Note_on_c, 7, 67, 127
1, 21807, Note_off_c, 7, 67, 127
1, 21808, Note_on_c, 12, 71, 127
1, 21942, Note_off_c, 12, 71, 127
1, 21942, Note_off_c, 12, 59, 127
1, 21943, Note_on_c, 0, 60, 127
1, 21943, Note_on_c, 4, 64, 127
1, 22079, Note_on_c, 7, 67, 127
1, 22212, Note_off_c, 4, 64, 127
1, 22213, Note_off_c, 7, 67, 127
1, 22213, Note_off_c, 0, 60, 127
1, 22214, Note_on_c, 4, 52, 127
1, 22214, Note_on_c, 0, 60, 127
1, 22348, Note_off_c, 0, 60, 127
1, 22349, Note_on_c, 10, 69, 127
1, 22483, Note_off_c, 10, 69, 127
1, 22483, Note_off_c, 4, 52, 127
1, 22484, Note_on_c, 0, 48, 127
1, 22484, Note_on_c, 12, 71, 127
1, 22618, Note_off_c, 12, 71, 127
1, 22619, Note_on_c, 7, 67, 127
1, 22753, Note_off_c, 7, 67, 127
1, 22753, Note_off_c, 0, 48, 127
1, 22754, Note_on_c, 6, 54, 127
1, 22754, Note_on_c, 10, 69, 127
1, 22888, Note_off_c, 10, 69, 127
1, 22889, Note_on_c, 0, 72, 127
1, 23023, Note_off_c, 0, 72, 127
1, 23023, Note_off_c, 6, 54, 127
1, 23024, Note_on_c, 7, 55, 127
1, 23024, Note_on_c, 6, 66, 127
1, 23158, Note_off_c, 6, 66, 127
1, 23159, Note_on_c, 4, 64, 127
1, 23293, Note_off_c, 4, 64, 127
1, 23293, Note_off_c, 7, 55, 127
1, 23294, Note_on_c, 10, 57, 127
1, 23294, Note_on_c, 6, 66, 127
1, 23428, Note_off_c, 6, 66, 127
1, 23429, Note_on_c, 10, 69, 127
1, 23563, Note_off_c, 10, 69, 127
1, 23563, Note_off_c, 10, 57, 127
1, 23564, Note_on_c, 12, 59, 127
1, 23564, Note_on_c, 3, 63, 127
1, 23700, Note_on_c, 6, 66, 127
1, 23833, Note_off_c, 3, 63, 127
1, 23834, Note_off_c, 6, 66, 127
1, 23834, Note_off_c, 12, 59, 127
1, 23835, Note_on_c, 3, 51, 127
1, 23835, Note_on_c, 12, 59, 127
1, 23969, Note_off_c, 12, 59, 127
1, 23970, Note_on_c, 7, 67, 127
1, 24104, Note_off_c, 7, 67, 127
1, 24104, Note_off_c, 3, 51, 127
1, 24105, Note_on_c, 12, 47, 127
1, 24105, Note_on_c, 10, 69, 127
1, 24239, Note_off_c, 10, 69, 127
1, 24240, Note_on_c, 6, 66, 127
1, 24363, Note_off_c, 6, 66, 127
1, 24374, Note_off_c, 12, 47, 127
1, 24375, Note_on_c, 4, 52, 127
1, 24375, Note_on_c, 7, 67, 127
1, 24509, Note_off_c, 4, 52, 127
1, 24510, Note_on_c, 4, 64, 127
1, 24603, Note_off_c, 7, 67, 127
1, 24644, Note_off_c, 4, 64, 127
1, 24645, Note_on_c, 6, 66, 127
1, 24645, Note_on_c, 12, 71, 127
1, 24779, Note_off_c, 6, 66, 127
1, 24780, Note_on_c, 3, 63, 127
1, 24914, Note_off_c, 3, 63, 127
1, 24914, Note_off_c, 12, 71, 127
1, 24915, Note_on_c, 4, 64, 127
1, 24915, Note_on_c, 4, 76, 127
1, 25049, Note_off_c, 4, 64, 127
1, 25050, Note_on_c, 7, 67, 127
1, 25184, Note_off_c, 7, 67, 127
1, 25185, Note_on_c, 10, 57, 127
1, 25253, Note_off_c, 4, 76, 127
1, 25319, Note_off_c, 10, 57, 127
1, 25320, Note_on_c, 6, 66, 127
1, 25454, Note_off_c, 6, 66, 127
1, 25455, Note_on_c, 12, 59, 127
1, 25455, Note_on_c, 3, 75, 127
1, 25589, Note_off_c, 12, 59, 127
1, 25590, Note_on_c, 10, 57, 127
1, 25724, Note_off_c, 10, 57, 127
1, 25724, Note_off_c, 3, 75, 127
1, 25725, Note_on_c, 7, 55, 127
1, 25725, Note_on_c, 6, 78, 127
1, 25859, Note_off_c, 7, 55, 127
1, 25860, Note_on_c, 6, 54, 127
1, 25994, Note_off_c, 6, 54, 127
1, 25995, Note_on_c, 7, 55, 127
1, 26006, Note_off_c, 6, 78, 127
1, 26130, Note_on_c, 4, 76, 127
1, 26264, Note_off_c, 4, 76, 127
1, 26264, Note_off_c, 7, 55, 127
1, 26265, Note_on_c, 12, 47, 127
1, 26265, Note_on_c, 6, 78, 127
1, 26399, Note_off_c, 6, 78, 127
1, 26400, Note_on_c, 3, 75, 127
1, 26534, Note_off_c, 3, 75, 127
1, 26534, Note_off_c, 12, 47, 127
1, 26535, Note_on_c, 4, 52, 127
1, 26535, Note_on_c, 4, 76, 127
1, 26669, Note_off_c, 4, 76, 127
1, 26670, Note_on_c, 7, 79, 127
1, 26804, Note_off_c, 7, 79, 127
1, 26805, Note_on_c, 10, 69, 127
1, 26845, Note_off_c, 4, 52, 127
1, 26940, Note_off_c, 10, 69, 127
1, 26941, Note_on_c, 6, 78, 127
1, 27075, Note_off_c, 6, 78, 127
1, 27076, Note_on_c, 3, 51, 127
1, 27076, Note_on_c, 12, 71, 127
1, 27210, Note_off_c, 12, 71, 127
1, 27211, Note_on_c, 10, 69, 127
1, 27345, Note_off_c, 10, 69, 127
1, 27345, Note_off_c, 3, 51, 127
1, 27346, Note_on_c, 6, 54, 127
1, 27346, Note_on_c, 7, 67, 127
1, 27480, Note_off_c, 7, 67, 127
1, 27481, Note_on_c, 6, 66, 127
1, 27615, Note_off_c, 6, 66, 127
1, 27616, Note_on_c, 7, 67, 127
1, 27656, Note_off_c, 6, 54, 127
1, 27752, Note_on_c, 4, 52, 127
1, 27886, Note_off_c, 4, 52, 127
1, 27886, Note_off_c, 7, 67, 127
1, 27887, Note_on_c, 3, 51, 127
1, 27887, Note_on_c, 6, 66, 127
1, 28014, Note_off_c, 6, 66, 127
1, 28021, Note_off_c, 3, 51, 127
1, 28022, Note_on_c, 4, 52, 127
1, 28022, Note_on_c, 4, 64, 127
1, 28149, Note_off_c, 4, 64, 127
1, 28156, Note_off_c, 4, 52, 127
1, 28157, Note_on_c, 6, 54, 127
1, 28157, Note_on_c, 0, 72, 127
1, 28291, Note_off_c, 6, 54, 127
1, 28292, Note_on_c, 7, 55, 127
1, 28426, Note_off_c, 7, 55, 127
1, 28427, Note_on_c, 10, 57, 127
1, 28561, Note_off_c, 10, 57, 127
1, 28562, Note_on_c, 0, 60, 127
1, 28593, Note_off_c, 0, 72, 127
1, 28696, Note_off_c, 0, 60, 127
1, 28697, Note_on_c, 6, 54, 127
1, 28697, Note_on_c, 12, 71, 127
1, 28824, Note_off_c, 12, 71, 127
1, 28831, Note_off_c, 6, 54, 127
1, 28832, Note_on_c, 0, 60, 127
1, 28832, Note_on_c, 10, 69, 127
1, 28959, Note_off_c, 10, 69, 127
1, 28966, Note_off_c, 0, 60, 127
1, 28967, Note_on_c, 12, 59, 127
1, 28967, Note_on_c, 2, 74, 127
1, 29101, Note_off_c, 12, 59, 127
1, 29102, Note_on_c, 10, 57, 127
1, 29221, Note_off_c, 2, 74, 127
1, 29237, Note_off_c, 10, 57, 127
1, 29238, Note_on_c, 7, 55, 127
1, 29238, Note_on_c, 12, 71, 127
1, 29372, Note_off_c, 12, 71, 127
1, 29373, Note_on_c, 0, 72, 127
1, 29507, Note_off_c, 0, 72, 127
1, 29507, Note_off_c, 7, 55, 127
1, 29508, Note_on_c, 6, 54, 127
1, 29508, Note_on_c, 2, 74, 127
1, 29642, Note_off_c, 2, 74, 127
1, 29642, Note_off_c, 6, 54, 127
1, 29643, Note_on_c, 4, 52, 127
1, 29643, Note_on_c, 4, 76, 127
1, 29777, Note_off_c, 4, 76, 127
1, 29777, Note_off_c, 4, 52, 127
1, 29778, Note_on_c, 0, 60, 127
1, 29778, Note_on_c, 6, 78, 127
1, 29912, Note_off_c, 6, 78, 127
1, 29913, Note_on_c, 7, 79, 127
1, 30047, Note_off_c, 7, 79, 127
1, 30048, Note_on_c, 10, 81, 127
1, 30182, Note_off_c, 10, 81, 127
1, 30183, Note_on_c, 0, 84, 127
1, 30271, Note_off_c, 0, 60, 127
1, 30318, Note_off_c, 0, 84, 127
1, 30319, Note_on_c, 12, 59, 127
1, 30319, Note_on_c, 6, 78, 127
1, 30453, Note_off_c, 6, 78, 127
1, 30453, Note_off_c, 12, 59, 127
1, 30454, Note_on_c, 10, 57, 127
1, 30454, Note_on_c, 0, 84, 127
1, 30588, Note_off_c, 0, 84, 127
1, 30588, Note_off_c, 10, 57, 127
1, 30589, Note_on_c, 2, 62, 127
1, 30589, Note_on_c, 12, 83, 127
1, 30723, Note_off_c, 12, 83, 127
1, 30724, Note_on_c, 10, 81, 127
1, 30843, Note_off_c, 2, 62, 127
1, 30859, Note_off_c, 10, 81, 127
1, 30860, Note_on_c, 12, 59, 127
1, 30860, Note_on_c, 7, 79, 127
1, 30994, Note_off_c, 12, 59, 127
1, 30995, Note_on_c, 7, 55, 127
1, 31129, Note_off_c, 7, 55, 127
1, 31129, Note_off_c, 7, 79, 127
1, 31130, Note_on_c, 10, 57, 127
1, 31130, Note_on_c, 12, 83, 127
1, 31264, Note_off_c, 10, 57, 127
1, 31265, Note_on_c, 6, 54, 127
1, 31399, Note_off_c, 6, 54, 127
1, 31399, Note_off_c, 12, 83, 127
1, 31400, Note_on_c, 7, 55, 127
1, 31400, Note_on_c, 4, 76, 127
1, 31534, Note_off_c, 7, 55, 127
1, 31535, Note_on_c, 12, 59, 127
1, 31669, Note_off_c, 12, 59, 127
1, 31669, Note_off_c, 4, 76, 127
1, 31670, Note_on_c, 4, 64, 127
1, 31670, Note_on_c, 0, 72, 127
1, 31804, Note_off_c, 4, 64, 127
1, 31805, Note_on_c, 6, 54, 127
1, 31924, Note_off_c, 0, 72, 127
1, 31940, Note_off_c, 6, 54, 127
1, 31941, Note_on_c, 7, 55, 127
1, 31941, Note_on_c, 10, 81, 127
1, 32075, Note_off_c, 7, 55, 127
1, 32076, Note_on_c, 4, 52, 127
1, 32210, Note_off_c, 4, 52, 127
1, 32210, Note_off_c, 10, 81, 127
1, 32211, Note_on_c, 6, 54, 127
1, 32211, Note_on_c, 2, 74, 127
1, 32345, Note_off_c, 6, 54, 127
1, 32346, Note_on_c, 10, 57, 127
1, 32480, Note_off_c, 10, 57, 127
1, 32480, Note_off_c, 2, 74, 127
1, 32481, Note_on_c, 2, 62, 127
1, 32481, Note_on_c, 12, 71, 127
1, 32615, Note_off_c, 2, 62, 127
1, 32616, Note_on_c, 4, 52, 127
1, 32735, Note_off_c, 12, 71, 127
1, 32751, Note_off_c, 4, 52, 127
1, 32752, Note_on_c, 6, 54, 127
1, 32752, Note_on_c, 7, 79, 127
1, 32886, Note_off_c, 6, 54, 127
1, 32887, Note_on_c, 2, 50, 127
1, 33021, Note_off_c, 2, 50, 127
1, 33021, Note_off_c, 7, 79, 127
1, 33022, Note_on_c, 4, 52, 127
1, 33022, Note_on_c, 0, 72, 127
1, 33156, Note_off_c, 4, 52, 127
1, 33157, Note_on_c, 7, 55, 127
1, 33291, Note_off_c, 7, 55, 127
1, 33291, Note_off_c, 0, 72, 127
1, 33292, Note_on_c, 0, 60, 127
1, 33292, Note_on_c, 10, 69, 127
1, 33426, Note_off_c, 10, 69, 127
1, 33427, Note_on_c, 6, 66, 127
1, 33561, Note_off_c, 6, 66, 127
1, 33561, Note_off_c, 0, 60, 127
1, 33562, Note_on_c, 10, 57, 127
1, 33562, Note_on_c, 7, 67, 127
1, 33696, Note_off_c, 7, 67, 127
1, 33697, Note_on_c, 4, 64, 127
1, 33831, Note_off_c, 4, 64, 127
1, 33831, Note_off_c, 10, 57, 127
1, 33832, Note_on_c, 2, 50, 127
1, 33832, Note_on_c, 6, 66, 127
1, 33966, Note_off_c, 6, 66, 127
1, 33967, Note_on_c, 10, 69, 127
1, 34101, Note_off_c, 10, 69, 127
1, 34101, Note_off_c, 2, 50, 127
1, 34102, Note_on_c, 12, 59, 127
1, 34102, Note_on_c, 2, 74, 127
1, 34238, Note_on_c, 4, 64, 127
1, 34306, Note_off_c, 2, 74, 127
1, 34372, Note_off_c, 4, 64, 127
1, 34372, Note_off_c, 12, 59, 127
1, 34373, Note_on_c, 7, 55, 127
1, 34373, Note_on_c, 6, 66, 127
1, 34507, Note_off_c, 6, 66, 127
1, 34508, Note_on_c, 3, 63, 127
1, 34642, Note_off_c, 3, 63, 127
1, 34642, Note_off_c, 7, 55, 127
1, 34643, Note_on_c, 0, 48, 127
1, 34643, Note_on_c, 4, 64, 127
1, 34777, Note_off_c, 4, 64, 127
1, 34778, Note_on_c, 7, 67, 127
1, 34912, Note_off_c, 7, 67, 127
1, 34912, Note_off_c, 0, 48, 127
1, 34913, Note_on_c, 10, 57, 127
1, 34913, Note_on_c, 0, 72, 127
1, 35047, Note_off_c, 10, 57, 127
1, 35048, Note_on_c, 12, 47, 127
1, 35048, Note_on_c, 3, 63, 127
1, 35116, Note_off_c, 0, 72, 127
1, 35182, Note_off_c, 3, 63, 127
1, 35182, Note_off_c, 12, 47, 127
1, 35183, Note_on_c, 0, 48, 127
1, 35183, Note_on_c, 4, 64, 127
1, 35317, Note_off_c, 4, 64, 127
1, 35317, Note_off_c, 0, 48, 127
1, 35318, Note_on_c, 10, 45, 127
1, 35318, Note_on_c, 1, 61, 127
1, 35452, Note_off_c, 1, 61, 127
1, 35452, Note_off_c, 10, 45, 127
1, 35453, Note_on_c, 12, 47, 127
1, 35453, Note_on_c, 3, 63, 127
1, 35587, Note_off_c, 3, 63, 127
1, 35587, Note_off_c, 12, 47, 127
1, 35588, Note_on_c, 3, 51, 127
1, 35588, Note_on_c, 6, 66, 127
1, 35722, Note_off_c, 6, 66, 127
1, 35722, Note_off_c, 3, 51, 127
1, 35723, Note_on_c, 7, 55, 127
1, 35723, Note_on_c, 12, 71, 127
1, 35859, Note_on_c, 4, 64, 127
1, 35893, Note_off_c, 12, 71, 127
1, 35993, Note_off_c, 4, 64, 127
1, 35993, Note_off_c, 7, 55, 127
1, 35994, Note_on_c, 6, 54, 127
1, 35994, Note_on_c, 10, 69, 127
1, 36130, Note_on_c, 12, 59, 127
1, 36178, Note_off_c, 10, 69, 127
1, 36264, Note_off_c, 12, 59, 127
1, 36264, Note_off_c, 6, 54, 127
1, 36265, Note_on_c, 4, 52, 127
1, 36265, Note_on_c, 0, 60, 127
1, 36401, Note_on_c, 10, 57, 127
1, 36435, Note_off_c, 0, 60, 127
1, 36535, Note_off_c, 10, 57, 127
1, 36535, Note_off_c, 4, 52, 127
1, 36536, Note_on_c, 3, 51, 127
1, 36536, Note_on_c, 12, 59, 127
1, 36672, Note_on_c, 3, 63, 127
1, 36706, Note_off_c, 12, 59, 127
1, 36806, Note_off_c, 3, 63, 127
1, 36806, Note_off_c, 3, 51, 127
1, 36807, Note_on_c, 12, 47, 127
1, 36807, Note_on_c, 6, 66, 127
1, 36941, Note_off_c, 6, 66, 127
1, 36942, Note_on_c, 10, 69, 127
1, 37062, Note_off_c, 10, 69, 127
1, 37076, Note_off_c, 12, 47, 127
1, 37077, Note_on_c, 3, 51, 127
1, 37077, Note_on_c, 7, 67, 127
1, 37190, Note_off_c, 7, 67, 127
1, 37213, Note_on_c, 6, 66, 127
1, 37357, Note_on_c, 4, 52, 127
1, 37357, Note_on_c, 7, 67, 127
1, 37361, Note_off_c, 6, 66, 127
1, 37398, Note_off_c, 3, 51, 127
1, 37491, Note_off_c, 7, 67, 127
1, 37492, Note_on_c, 12, 71, 127
1, 37626, Note_off_c, 12, 71, 127
1, 37627, Note_on_c, 4, 40, 127
1, 37627, Note_on_c, 0, 72, 127
1, 37761, Note_off_c, 0, 72, 127
1, 37762, Note_on_c, 10, 69, 127
1, 37892, Note_off_c, 4, 52, 127
1, 37896, Note_off_c, 10, 69, 127
1, 37896, Note_off_c, 4, 40, 127
1, 37897, Note_on_c, 4, 52, 127
1, 37897, Note_on_c, 12, 71, 127
1, 38031, Note_off_c, 12, 71, 127
1, 38032, Note_on_c, 4, 76, 127
1, 38166, Note_off_c, 4, 76, 127
1, 38167, Note_on_c, 6, 78, 127
1, 38291, Note_off_c, 4, 52, 127
1, 38302, Note_on_c, 3, 51, 127
1, 38302, Note_on_c, 12, 71, 127
1, 38392, Note_off_c, 6, 78, 127
1, 38436, Note_off_c, 12, 71, 127
1, 38436, Note_off_c, 3, 51, 127
1, 38437, Note_on_c, 4, 52, 127
1, 38437, Note_on_c, 0, 72, 127
1, 38571, Note_off_c, 0, 72, 127
1, 38571, Note_off_c, 4, 52, 127
1, 38572, Note_on_c, 1, 49, 127
1, 38572, Note_on_c, 10, 69, 127
1, 38706, Note_off_c, 10, 69, 127
1, 38706, Note_off_c, 1, 49, 127
1, 38707, Note_on_c, 3, 51, 127
1, 38707, Note_on_c, 12, 71, 127
1, 38841, Note_off_c, 12, 71, 127
1, 38841, Note_off_c, 3, 51, 127
1, 38842, Note_on_c, 12, 47, 127
1, 38842, Note_on_c, 6, 78, 127
1, 38976, Note_off_c, 6, 78, 127
1, 38976, Note_off_c, 12, 47, 127
1, 38977, Note_on_c, 4, 52, 127
1, 38977, Note_on_c, 7, 79, 127
1, 39113, Note_on_c, 12, 71, 127
1, 39203, Note_off_c, 7, 79, 127
1, 39247, Note_off_c, 12, 71, 127
1, 39248, Note_on_c, 4, 40, 127
1, 39248, Note_on_c, 0, 72, 127
1, 39316, Note_off_c, 4, 52, 127
1, 39382, Note_off_c, 0, 72, 127
1, 39383, Note_on_c, 10, 69, 127
1, 39507, Note_off_c, 4, 40, 127
1, 39517, Note_off_c, 10, 69, 127
1, 39518, Note_on_c, 4, 52, 127
1, 39518, Note_on_c, 12, 71, 127
1, 39652, Note_off_c, 12, 71, 127
1, 39653, Note_on_c, 7, 79, 127
1, 39787, Note_off_c, 7, 79, 127
1, 39787, Note_off_c, 4, 52, 127
1, 39788, Note_on_c, 12, 47, 127
1, 39788, Note_on_c, 6, 78, 127
1, 39922, Note_off_c, 6, 78, 127
1, 39922, Note_off_c, 12, 47, 127
1, 39923, Note_on_c, 0, 48, 127
1, 39923, Note_on_c, 4, 76, 127
1, 40057, Note_off_c, 4, 76, 127
1, 40057, Note_off_c, 0, 48, 127
1, 40058, Note_on_c, 12, 47, 127
1, 40058, Note_on_c, 3, 75, 127
1, 40192, Note_off_c, 3, 75, 127
1, 40192, Note_off_c, 12, 47, 127
1, 40193, Note_on_c, 10, 45, 127
1, 40193, Note_on_c, 6, 78, 127
1, 40327, Note_off_c, 6, 78, 127
1, 40327, Note_off_c, 10, 45, 127
1, 40328, Note_on_c, 7, 43, 127
1, 40328, Note_on_c, 12, 71, 127
1, 40462, Note_off_c, 7, 43, 127
1, 40463, Note_on_c, 6, 42, 127
1, 40596, Note_off_c, 12, 71, 127
1, 40597, Note_off_c, 6, 42, 127
1, 40598, Note_on_c, 7, 43, 127
1, 40732, Note_off_c, 7, 43, 127
1, 40733, Note_on_c, 12, 47, 127
1, 40867, Note_off_c, 12, 47, 127
1, 40868, Note_on_c, 0, 48, 127
1, 40868, Note_on_c, 4, 76, 127
1, 41002, Note_off_c, 4, 76, 127
1, 41002, Note_off_c, 0, 48, 127
1, 41003, Note_on_c, 10, 45, 127
1, 41003, Note_on_c, 6, 78, 127
1, 41137, Note_off_c, 6, 78, 127
1, 41137, Note_off_c, 10, 45, 127
1, 41138, Note_on_c, 12, 47, 127
1, 41138, Note_on_c, 7, 79, 127
1, 41272, Note_off_c, 12, 47, 127
1, 41273, Note_on_c, 7, 43, 127
1, 41362, Note_off_c, 7, 79, 127
1, 41407, Note_off_c, 7, 43, 127
1, 41408, Note_on_c, 6, 42, 127
1, 41408, Note_on_c, 10, 69, 127
1, 41542, Note_off_c, 6, 42, 127
1, 41543, Note_on_c, 12, 47, 127
1, 41667, Note_off_c, 10, 69, 127
1, 41677, Note_off_c, 12, 47, 127
1, 41678, Note_on_c, 0, 48, 127
1, 41678, Note_on_c, 10, 69, 127
1, 41723, Note_on_c, 7, 67, 127
1, 41744, Note_off_c, 10, 69, 127
1, 41768, Note_on_c, 10, 69, 127
1, 41789, Note_off_c, 7, 67, 127
1, 41812, Note_off_c, 0, 48, 127
1, 41813, Note_on_c, 10, 45, 127
1, 41813, Note_on_c, 7, 67, 127
1, 41834, Note_off_c, 10, 69, 127
1, 41858, Note_on_c, 6, 66, 127
1, 41879, Note_off_c, 7, 67, 127
1, 41947, Note_off_c, 10, 45, 127
1, 41948, Note_off_c, 6, 66, 127
1, 41948, Note_on_c, 12, 47, 127
1, 41948, Note_on_c, 7, 67, 127
1, 42082, Note_off_c, 7, 67, 127
1, 42082, Note_off_c, 12, 47, 127
1, 42083, Note_on_c, 6, 42, 127
1, 42083, Note_on_c, 10, 69, 127
1, 42217, Note_off_c, 10, 69, 127
1, 42217, Note_off_c, 6, 42, 127
1, 42218, Note_on_c, 4, 40, 127
1, 42218, Note_on_c, 12, 71, 127
1, 42352, Note_off_c, 12, 71, 127
1, 42352, Note_off_c, 4, 40, 127
1, 42353, Note_on_c, 12, 47, 127
1, 42353, Note_on_c, 7, 67, 127
1, 42487, Note_off_c, 7, 67, 127
1, 42487, Note_off_c, 12, 47, 127
1, 42488, Note_on_c, 0, 48, 127
1, 42488, Note_on_c, 10, 69, 127
1, 42622, Note_off_c, 10, 69, 127
1, 42622, Note_off_c, 0, 48, 127
1, 42623, Note_on_c, 10, 45, 127
1, 42623, Note_on_c, 6, 66, 127
1, 42757, Note_off_c, 6, 66, 127
1, 42757, Note_off_c, 10, 45, 127
1, 42758, Note_on_c, 12, 47, 127
1, 42758, Note_on_c, 7, 67, 127
1, 42892, Note_off_c, 7, 67, 127
1, 42892, Note_off_c, 12, 47, 127
1, 42893, Note_on_c, 4, 40, 127
1, 42893, Note_on_c, 4, 76, 127
1, 43027, Note_off_c, 4, 76, 127
1, 43027, Note_off_c, 4, 40, 127
1, 43028, Note_on_c, 3, 39, 127
1, 43028, Note_on_c, 7, 67, 127
1, 43075, Note_on_c, 6, 66, 127
1, 43095, Note_off_c, 7, 67, 127
1, 43122, Note_on_c, 4, 64, 127
1, 43142, Note_off_c, 6, 66, 127
1, 43163, Note_off_c, 3, 39, 127
1, 43164, Note_on_c, 6, 42, 127
1, 43168, Note_on_c, 6, 66, 127
1, 43188, Note_off_c, 4, 64, 127
1, 43215, Note_on_c, 7, 67, 127
1, 43235, Note_off_c, 6, 66, 127
1, 43262, Note_on_c, 6, 66, 127
1, 43282, Note_off_c, 7, 67, 127
1, 43299, Note_off_c, 6, 42, 127
1, 43300, Note_on_c, 12, 47, 127
1, 43308, Note_on_c, 7, 67, 127
1, 43328, Note_off_c, 6, 66, 127
1, 43355, Note_on_c, 6, 66, 127
1, 43375, Note_off_c, 7, 67, 127
1, 43402, Note_on_c, 7, 67, 127
1, 43422, Note_off_c, 6, 66, 127
1, 43435, Note_off_c, 12, 47, 127
1, 43436, Note_on_c, 7, 43, 127
1, 43449, Note_on_c, 6, 66, 127
1, 43469, Note_off_c, 7, 67, 127
1, 43496, Note_on_c, 7, 67, 127
1, 43516, Note_off_c, 6, 66, 127
1, 43543, Note_on_c, 6, 66, 127
1, 43563, Note_off_c, 7, 67, 127
1, 43571, Note_off_c, 7, 43, 127
1, 43572, Note_on_c, 10, 45, 127
1, 43589, Note_on_c, 7, 67, 127
1, 43609, Note_off_c, 6, 66, 127
1, 43636, Note_on_c, 6, 66, 127
1, 43656, Note_off_c, 7, 67, 127
1, 43707, Note_off_c, 10, 45, 127
1, 43708, Note_on_c, 6, 42, 127
1, 43842, Note_off_c, 6, 42, 127
1, 43842, Note_off_c, 6, 66, 127
1, 43843, Note_on_c, 7, 43, 127
1, 43979, Note_on_c, 12, 71, 127
1, 44113, Note_off_c, 12, 71, 127
1, 44113, Note_off_c, 7, 43, 127
1, 44114, Note_on_c, 6, 42, 127
1, 44114, Note_on_c, 4, 76, 127
1, 44248, Note_off_c, 4, 76, 127
1, 44249, Note_on_c, 3, 75, 127
1, 44383, Note_off_c, 3, 75, 127
1, 44383, Note_off_c, 6, 42, 127
1, 44384, Note_on_c, 4, 40, 127
1, 44384, Note_on_c, 4, 76, 127
1, 44518, Note_off_c, 4, 76, 127
1, 44519, Note_on_c, 7, 79, 127
1, 44653, Note_off_c, 7, 79, 127
1, 44653, Note_off_c, 4, 40, 127
1, 44654, Note_on_c, 10, 45, 127
1, 44654, Note_on_c, 0, 72, 127
1, 44790, Note_on_c, 4, 76, 127
1, 44923, Note_off_c, 0, 72, 127
1, 44924, Note_off_c, 4, 76, 127
1, 44924, Note_off_c, 10, 45, 127
1, 44925, Note_on_c, 0, 48, 127
1, 44925, Note_on_c, 10, 69, 127
1, 45059, Note_off_c, 10, 69, 127
1, 45060, Note_on_c, 6, 78, 127
1, 45194, Note_off_c, 6, 78, 127
1, 45194, Note_off_c, 0, 48, 127
1, 45195, Note_on_c, 10, 45, 127
1, 45195, Note_on_c, 7, 79, 127
1, 45329, Note_off_c, 7, 79, 127
1, 45330, Note_on_c, 4, 76, 127
1, 45464, Note_off_c, 4, 76, 127
1, 45464, Note_off_c, 10, 45, 127
1, 45465, Note_on_c, 2, 50, 127
1, 45465, Note_on_c, 6, 78, 127
1, 45599, Note_off_c, 6, 78, 127
1, 45600, Note_on_c, 10, 81, 127
1, 45734, Note_off_c, 10, 81, 127
1, 45734, Note_off_c, 2, 50, 127
1, 45735, Note_on_c, 4, 52, 127
1, 45735, Note_on_c, 2, 74, 127
1, 45869, Note_off_c, 2, 74, 127
1, 45870, Note_on_c, 1, 73, 127
1, 46004, Note_off_c, 1, 73, 127
1, 46004, Note_off_c, 4, 52, 127
1, 46005, Note_on_c, 6, 54, 127
1, 46005, Note_on_c, 2, 74, 127
1, 46139, Note_off_c, 2, 74, 127
1, 46140, Note_on_c, 6, 78, 127
1, 46274, Note_off_c, 6, 78, 127
1, 46274, Note_off_c, 6, 54, 127
1, 46275, Note_on_c, 7, 55, 127
1, 46275, Note_on_c, 12, 71, 127
1, 46411, Note_on_c, 2, 74, 127
1, 46544, Note_off_c, 12, 71, 127
1, 46545, Note_off_c, 2, 74, 127
1, 46545, Note_off_c, 7, 55, 127
1, 46546, Note_on_c, 12, 59, 127
1, 46546, Note_on_c, 7, 67, 127
1, 46680, Note_off_c, 7, 67, 127
1, 46681, Note_on_c, 4, 76, 127
1, 46815, Note_off_c, 4, 76, 127
1, 46815, Note_off_c, 12, 59, 127
1, 46816, Note_on_c, 7, 55, 127
1, 46816, Note_on_c, 6, 78, 127
1, 46950, Note_off_c, 6, 78, 127
1, 46951, Note_on_c, 3, 75, 127
1, 47085, Note_off_c, 3, 75, 127
1, 47085, Note_off_c, 7, 55, 127
1, 47086, Note_on_c, 0, 60, 127
1, 47086, Note_on_c, 4, 76, 127
1, 47220, Note_off_c, 4, 76, 127
1, 47221, Note_on_c, 7, 79, 127
1, 47355, Note_off_c, 7, 79, 127
1, 47355, Note_off_c, 0, 60, 127
1, 47356, Note_on_c, 4, 52, 127
1, 47356, Note_on_c, 0, 72, 127
1, 47490, Note_off_c, 0, 72, 127
1, 47491, Note_on_c, 12, 71, 127
1, 47625, Note_off_c, 12, 71, 127
1, 47625, Note_off_c, 4, 52, 127
1, 47626, Note_on_c, 0, 48, 127
1, 47626, Note_on_c, 0, 72, 127
1, 47760, Note_off_c, 0, 72, 127
1, 47761, Note_on_c, 4, 76, 127
1, 47895, Note_off_c, 4, 76, 127
1, 47895, Note_off_c, 0, 48, 127
1, 47896, Note_on_c, 6, 54, 127
1, 47896, Note_on_c, 10, 69, 127
1, 48032, Note_on_c, 0, 72, 127
1, 48165, Note_off_c, 10, 69, 127
1, 48166, Note_off_c, 0, 72, 127
1, 48166, Note_off_c, 6, 54, 127
1, 48167, Note_on_c, 10, 57, 127
1, 48167, Note_on_c, 6, 66, 127
1, 48301, Note_off_c, 6, 66, 127
1, 48302, Note_on_c, 3, 75, 127
1, 48436, Note_off_c, 3, 75, 127
1, 48436, Note_off_c, 10, 57, 127
1, 48437, Note_on_c, 6, 54, 127
1, 48437, Note_on_c, 4, 76, 127
1, 48571, Note_off_c, 4, 76, 127
1, 48572, Note_on_c, 1, 73, 127
1, 48706, Note_off_c, 1, 73, 127
1, 48706, Note_off_c, 6, 54, 127
1, 48707, Note_on_c, 12, 59, 127
1, 48707, Note_on_c, 3, 75, 127
1, 48841, Note_off_c, 3, 75, 127
1, 48842, Note_on_c, 6, 78, 127
1, 48976, Note_off_c, 6, 78, 127
1, 48976, Note_off_c, 12, 59, 127
1, 48977, Note_on_c, 3, 51, 127
1, 48977, Note_on_c, 12, 71, 127
1, 49111, Note_off_c, 12, 71, 127
1, 49112, Note_on_c, 7, 79, 127
1, 49238, Note_off_c, 3, 51, 127
1, 49246, Note_off_c, 7, 79, 127
1, 49247, Note_on_c, 12, 47, 127
1, 49247, Note_on_c, 10, 81, 127
1, 49381, Note_off_c, 10, 81, 127
1, 49382, Note_on_c, 6, 78, 127
1, 49508, Note_off_c, 12, 47, 127
1, 49516, Note_off_c, 6, 78, 127
1, 49517, Note_on_c, 4, 52, 127
1, 49517, Note_on_c, 7, 79, 127
1, 49651, Note_off_c, 4, 52, 127
1, 49652, Note_on_c, 4, 64, 127
1, 49786, Note_off_c, 4, 64, 127
1, 49787, Note_on_c, 6, 66, 127
1, 49911, Note_off_c, 7, 79, 127
1, 49921, Note_off_c, 6, 66, 127
1, 49922, Note_on_c, 3, 63, 127
1, 50056, Note_off_c, 3, 63, 127
1, 50057, Note_on_c, 4, 64, 127
1, 50191, Note_off_c, 4, 64, 127
1, 50192, Note_on_c, 7, 67, 127
1, 50326, Note_off_c, 7, 67, 127
1, 50327, Note_on_c, 10, 57, 127
1, 50463, Note_on_c, 4, 76, 127
1, 50597, Note_off_c, 4, 76, 127
1, 50597, Note_off_c, 10, 57, 127
1, 50598, Note_on_c, 0, 60, 127
1, 50598, Note_on_c, 6, 78, 127
1, 50732, Note_off_c, 6, 78, 127
1, 50733, Note_on_c, 3, 75, 127
1, 50867, Note_off_c, 3, 75, 127
1, 50867, Note_off_c, 0, 60, 127
1, 50868, Note_on_c, 6, 54, 127
1, 50868, Note_on_c, 4, 76, 127
1, 51002, Note_off_c, 4, 76, 127
1, 51003, Note_on_c, 0, 84, 127
1, 51137, Note_off_c, 0, 84, 127
1, 51137, Note_off_c, 6, 54, 127
1, 51138, Note_on_c, 7, 55, 127
1, 51138, Note_on_c, 12, 83, 127
1, 51274, Note_on_c, 4, 76, 127
1, 51364, Note_off_c, 12, 83, 127
1, 51408, Note_off_c, 4, 76, 127
1, 51408, Note_off_c, 7, 55, 127
1, 51409, Note_on_c, 12, 59, 127
1, 51409, Note_on_c, 6, 78, 127
1, 51543, Note_off_c, 6, 78, 127
1, 51544, Note_on_c, 3, 75, 127
1, 51678, Note_off_c, 3, 75, 127
1, 51678, Note_off_c, 12, 59, 127
1, 51679, Note_on_c, 4, 52, 127
1, 51679, Note_on_c, 4, 76, 127
1, 51813, Note_off_c, 4, 76, 127
1, 51814, Note_on_c, 12, 83, 127
1, 51948, Note_off_c, 12, 83, 127
1, 51948, Note_off_c, 4, 52, 127
1, 51949, Note_on_c, 0, 60, 127
1, 51949, Note_on_c, 10, 81, 127
1, 52188, Note_off_c, 10, 81, 127
1, 52219, Note_off_c, 0, 60, 127
1, 52220, Note_on_c, 10, 57, 127
1, 52220, Note_on_c, 7, 79, 127
1, 52286, Note_off_c, 7, 79, 127
1, 52287, Note_on_c, 6, 78, 127
1, 52353, Note_off_c, 6, 78, 127
1, 52354, Note_on_c, 7, 79, 127
1, 52420, Note_off_c, 7, 79, 127
1, 52421, Note_on_c, 6, 78, 127
1, 52487, Note_off_c, 6, 78, 127
1, 52487, Note_off_c, 10, 57, 127
1, 52488, Note_on_c, 12, 59, 127
1, 52488, Note_on_c, 7, 79, 127
1, 52554, Note_off_c, 7, 79, 127
1, 52555, Note_on_c, 6, 78, 127
1, 52621, Note_off_c, 6, 78, 127
1, 52622, Note_on_c, 4, 76, 127
1, 52688, Note_off_c, 4, 76, 127
1, 52689, Note_on_c, 6, 78, 127
1, 52755, Note_off_c, 6, 78, 127
1, 52755, Note_off_c, 12, 59, 127
1, 52756, Note_on_c, 4, 52, 127
1, 52756, Note_on_c, 4, 76, 127
1, 52890, Note_off_c, 4, 52, 127
1, 52891, Note_on_c, 6, 54, 127
1, 53025, Note_off_c, 6, 54, 127
1, 53026, Note_on_c, 7, 55, 127
1, 53160, Note_off_c, 7, 55, 127
1, 53161, Note_on_c, 10, 57, 127
1, 53291, Note_off_c, 4, 76, 127
1, 53295, Note_off_c, 10, 57, 127
1, 53296, Note_on_c, 11, 58, 127
1, 53420, Note_off_c, 11, 58, 127
1, 53431, Note_on_c, 2, 50, 127
1, 53555, Note_off_c, 2, 50, 127
1, 53566, Note_on_c, 1, 49, 127
1, 53702, Note_on_c, 12, 71, 127
1, 53836, Note_off_c, 12, 71, 127
1, 53836, Note_off_c, 1, 49, 127
1, 53837, Note_on_c, 4, 52, 127
1, 53837, Note_on_c, 1, 73, 127
1, 53971, Note_off_c, 1, 73, 127
1, 53972, Note_on_c, 4, 76, 127
1, 54106, Note_off_c, 4, 76, 127
1, 54106, Note_off_c, 4, 52, 127
1, 54107, Note_on_c, 1, 49, 127
1, 54107, Note_on_c, 7, 79, 127
1, 54241, Note_off_c, 7, 79, 127
1, 54242, Note_on_c, 2, 74, 127
1, 54376, Note_off_c, 2, 74, 127
1, 54376, Note_off_c, 1, 49, 127
1, 54377, Note_on_c, 10, 45, 127
1, 54377, Note_on_c, 4, 76, 127
1, 54511, Note_off_c, 4, 76, 127
1, 54512, Note_on_c, 7, 79, 127
1, 54616, Note_off_c, 10, 45, 127
1, 54646, Note_off_c, 7, 79, 127
1, 54647, Note_on_c, 1, 61, 127
1, 54647, Note_on_c, 11, 82, 127
1, 54781, Note_off_c, 11, 82, 127
1, 54782, Note_on_c, 7, 79, 127
1, 54901, Note_off_c, 1, 61, 127
1, 54917, Note_off_c, 7, 79, 127
1, 54918, Note_on_c, 4, 76, 127
1, 55052, Note_off_c, 4, 76, 127
1, 55053, Note_on_c, 5, 77, 127
1, 55187, Note_off_c, 5, 77, 127
1, 55188, Note_on_c, 4, 52, 127
1, 55188, Note_on_c, 7, 79, 127
1, 55322, Note_off_c, 7, 79, 127
1, 55323, Note_on_c, 4, 76, 127
1, 55457, Note_off_c, 4, 76, 127
1, 55457, Note_off_c, 4, 52, 127
1, 55458, Note_on_c, 10, 57, 127
1, 55458, Note_on_c, 1, 73, 127
1, 55592, Note_off_c, 1, 73, 127
1, 55593, Note_on_c, 11, 70, 127
1, 55705, Note_off_c, 10, 57, 127
1, 55728, Note_off_c, 11, 70, 127
1, 55729, Note_on_c, 1, 49, 127
1, 55729, Note_on_c, 10, 69, 127
1, 55863, Note_off_c, 10, 69, 127
1, 55864, Note_on_c, 7, 79, 127
1, 55976, Note_off_c, 1, 49, 127
1, 55999, Note_off_c, 7, 79, 127
1, 56000, Note_on_c, 2, 50, 127
1, 56000, Note_on_c, 5, 77, 127
1, 56134, Note_off_c, 2, 50, 127
1, 56135, Note_on_c, 4, 52, 127
1, 56269, Note_off_c, 4, 52, 127
1, 56270, Note_on_c, 5, 53, 127
1, 56404, Note_off_c, 5, 53, 127
1, 56405, Note_on_c, 7, 55, 127
1, 56539, Note_off_c, 7, 55, 127
1, 56540, Note_on_c, 8, 56, 127
1, 56674, Note_off_c, 8, 56, 127
1, 56675, Note_off_c, 5, 77, 127
1, 56675, Note_on_c, 0, 48, 127
1, 56809, Note_off_c, 0, 48, 127
1, 56810, Note_on_c, 12, 47, 127
1, 56946, Note_on_c, 10, 69, 127
1, 57080, Note_off_c, 10, 69, 127
1, 57080, Note_off_c, 12, 47, 127
1, 57081, Note_on_c, 2, 50, 127
1, 57081, Note_on_c, 12, 71, 127
1, 57215, Note_off_c, 12, 71, 127
1, 57216, Note_on_c, 2, 74, 127
1, 57350, Note_off_c, 2, 74, 127
1, 57350, Note_off_c, 2, 50, 127
1, 57351, Note_on_c, 12, 47, 127
1, 57351, Note_on_c, 5, 77, 127
1, 57485, Note_off_c, 5, 77, 127
1, 57486, Note_on_c, 0, 72, 127
1, 57620, Note_off_c, 0, 72, 127
1, 57620, Note_off_c, 12, 47, 127
1, 57621, Note_on_c, 7, 43, 127
1, 57621, Note_on_c, 2, 74, 127
1, 57755, Note_off_c, 2, 74, 127
1, 57756, Note_on_c, 5, 77, 127
1, 57860, Note_off_c, 7, 43, 127
1, 57890, Note_off_c, 5, 77, 127
1, 57891, Note_on_c, 12, 59, 127
1, 57891, Note_on_c, 8, 80, 127
1, 58025, Note_off_c, 8, 80, 127
1, 58026, Note_on_c, 5, 77, 127
1, 58152, Note_off_c, 12, 59, 127
1, 58160, Note_off_c, 5, 77, 127
1, 58161, Note_on_c, 2, 74, 127
1, 58295, Note_off_c, 2, 74, 127
1, 58296, Note_on_c, 3, 75, 127
1, 58430, Note_off_c, 3, 75, 127
1, 58431, Note_on_c, 2, 50, 127
1, 58431, Note_on_c, 5, 77, 127
1, 58565, Note_off_c, 5, 77, 127
1, 58566, Note_on_c, 2, 74, 127
1, 58700, Note_off_c, 2, 74, 127
1, 58700, Note_off_c, 2, 50, 127
1, 58701, Note_on_c, 7, 55, 127
1, 58701, Note_on_c, 12, 71, 127
1, 58835, Note_off_c, 12, 71, 127
1, 58836, Note_on_c, 8, 68, 127
1, 58940, Note_off_c, 7, 55, 127
1, 58970, Note_off_c, 8, 68, 127
1, 58971, Note_on_c, 12, 47, 127
1, 58971, Note_on_c, 7, 67, 127
1, 59105, Note_off_c, 7, 67, 127
1, 59106, Note_on_c, 5, 77, 127
1, 59210, Note_off_c, 12, 47, 127
1, 59240, Note_off_c, 5, 77, 127
1, 59241, Note_on_c, 0, 48, 127
1, 59241, Note_on_c, 4, 76, 127
1, 59375, Note_off_c, 0, 48, 127
1, 59376, Note_on_c, 2, 50, 127
1, 59510, Note_off_c, 2, 50, 127
1, 59511, Note_on_c, 4, 52, 127
1, 59635, Note_off_c, 4, 76, 127
1, 59645, Note_off_c, 4, 52, 127
1, 59646, Note_on_c, 12, 47, 127
1, 59780, Note_off_c, 12, 47, 127
1, 59781, Note_on_c, 0, 48, 127
1, 59915, Note_off_c, 0, 48, 127
1, 59916, Note_on_c, 10, 45, 127
1, 60050, Note_off_c, 10, 45, 127
1, 60051, Note_on_c, 5, 41, 127
1, 60187, Note_on_c, 10, 81, 127
1, 60306, Note_off_c, 5, 41, 127
1, 60322, Note_off_c, 10, 81, 127
1, 60323, Note_on_c, 5, 53, 127
1, 60323, Note_on_c, 11, 82, 127
1, 60457, Note_off_c, 11, 82, 127
1, 60458, Note_on_c, 8, 80, 127
1, 60591, Note_off_c, 5, 53, 127
1, 60592, Note_off_c, 8, 80, 127
1, 60593, Note_on_c, 10, 81, 127
1, 60727, Note_off_c, 10, 81, 127
1, 60728, Note_on_c, 0, 84, 127
1, 60862, Note_off_c, 0, 84, 127
1, 60863, Note_on_c, 12, 47, 127
1, 60863, Note_on_c, 2, 74, 127
1, 60997, Note_off_c, 2, 74, 127
1, 60998, Note_on_c, 8, 80, 127
1, 61117, Note_off_c, 12, 47, 127
1, 61133, Note_off_c, 8, 80, 127
1, 61134, Note_on_c, 12, 59, 127
1, 61134, Note_on_c, 10, 81, 127
1, 61268, Note_off_c, 10, 81, 127
1, 61269, Note_on_c, 6, 78, 127
1, 61402, Note_off_c, 12, 59, 127
1, 61403, Note_off_c, 6, 78, 127
1, 61404, Note_on_c, 8, 80, 127
1, 61538, Note_off_c, 8, 80, 127
1, 61539, Note_on_c, 12, 83, 127
1, 61673, Note_off_c, 12, 83, 127
1, 61674, Note_on_c, 10, 57, 127
1, 61674, Note_on_c, 0, 72, 127
1, 61808, Note_off_c, 0, 72, 127
1, 61809, Note_on_c, 10, 81, 127
1, 61943, Note_off_c, 10, 81, 127
1, 61943, Note_off_c, 10, 57, 127
1, 61944, Note_on_c, 2, 50, 127
1, 61944, Note_on_c, 5, 77, 127
1, 62078, Note_off_c, 5, 77, 127
1, 62079, Note_on_c, 2, 74, 127
1, 62213, Note_off_c, 2, 74, 127
1, 62213, Note_off_c, 2, 50, 127
1, 62214, Note_on_c, 5, 53, 127
1, 62214, Note_on_c, 12, 71, 127
1, 62348, Note_off_c, 12, 71, 127
1, 62349, Note_on_c, 2, 74, 127
1, 62483, Note_off_c, 2, 74, 127
1, 62483, Note_off_c, 5, 53, 127
1, 62484, Note_on_c, 4, 52, 127
1, 62484, Note_on_c, 10, 69, 127
1, 62534, Note_on_c, 8, 68, 127
1, 62550, Note_off_c, 10, 69, 127
1, 62584, Note_on_c, 10, 69, 127
1, 62600, Note_off_c, 8, 68, 127
1, 62617, Note_off_c, 4, 52, 127
1, 62618, Note_on_c, 5, 53, 127
1, 62634, Note_on_c, 8, 68, 127
1, 62650, Note_off_c, 10, 69, 127
1, 62684, Note_on_c, 10, 69, 127
1, 62700, Note_off_c, 8, 68, 127
1, 62734, Note_on_c, 8, 68, 127
1, 62750, Note_off_c, 10, 69, 127
1, 62752, Note_off_c, 5, 53, 127
1, 62753, Note_on_c, 4, 52, 127
1, 62887, Note_off_c, 4, 52, 127
1, 62888, Note_on_c, 2, 50, 127
1, 62888, Note_on_c, 6, 66, 127
1, 62892, Note_off_c, 8, 68, 127
1, 63022, Note_off_c, 6, 66, 127
1, 63022, Note_off_c, 2, 50, 127
1, 63023, Note_on_c, 0, 48, 127
1, 63023, Note_on_c, 4, 64, 127
1, 63157, Note_off_c, 0, 48, 127
1, 63158, Note_on_c, 12, 47, 127
1, 63291, Note_off_c, 4, 64, 127
1, 63292, Note_off_c, 12, 47, 127
1, 63293, Note_on_c, 10, 45, 127
1, 63429, Note_on_c, 4, 76, 127
1, 63563, Note_off_c, 4, 76, 127
1, 63564, Note_on_c, 10, 57, 127
1, 63564, Note_on_c, 5, 77, 127
1, 63574, Note_off_c, 10, 45, 127
1, 63698, Note_off_c, 5, 77, 127
1, 63699, Note_on_c, 2, 74, 127
1, 63825, Note_off_c, 10, 57, 127
1, 63833, Note_off_c, 2, 74, 127
1, 63834, Note_on_c, 10, 45, 127
1, 63834, Note_on_c, 4, 76, 127
1, 63968, Note_off_c, 4, 76, 127
1, 63969, Note_on_c, 0, 72, 127
1, 64103, Note_off_c, 0, 72, 127
1, 64103, Note_off_c, 10, 45, 127
1, 64104, Note_on_c, 7, 43, 127
1, 64104, Note_on_c, 12, 71, 127
1, 64240, Note_on_c, 4, 76, 127
1, 64302, Note_off_c, 12, 71, 127
1, 64374, Note_off_c, 4, 76, 127
1, 64375, Note_on_c, 7, 55, 127
1, 64375, Note_on_c, 5, 77, 127
1, 64385, Note_off_c, 7, 43, 127
1, 64509, Note_off_c, 5, 77, 127
1, 64510, Note_on_c, 2, 74, 127
1, 64636, Note_off_c, 7, 55, 127
1, 64644, Note_off_c, 2, 74, 127
1, 64645, Note_on_c, 7, 43, 127
1, 64645, Note_on_c, 4, 76, 127
1, 64779, Note_off_c, 4, 76, 127
1, 64780, Note_on_c, 12, 71, 127
1, 64914, Note_off_c, 12, 71, 127
1, 64914, Note_off_c, 7, 43, 127
1, 64915, Note_on_c, 5, 41, 127
1, 64915, Note_on_c, 10, 69, 127
1, 65051, Note_on_c, 4, 76, 127
1, 65113, Note_off_c, 10, 69, 127
1, 65185, Note_off_c, 4, 76, 127
1, 65186, Note_on_c, 5, 53, 127
1, 65186, Note_on_c, 5, 77, 127
1, 65196, Note_off_c, 5, 41, 127
1, 65320, Note_off_c, 5, 77, 127
1, 65321, Note_on_c, 2, 74, 127
1, 65447, Note_off_c, 5, 53, 127
1, 65455, Note_off_c, 2, 74, 127
1, 65456, Note_on_c, 5, 41, 127
1, 65456, Note_on_c, 4, 76, 127
1, 65590, Note_off_c, 4, 76, 127
1, 65591, Note_on_c, 10, 69, 127
1, 65725, Note_off_c, 10, 69, 127
1, 65725, Note_off_c, 5, 41, 127
1, 65726, Note_on_c, 4, 40, 127
1, 65726, Note_on_c, 8, 68, 127
1, 65862, Note_on_c, 12, 71, 127
1, 65924, Note_off_c, 8, 68, 127
1, 65996, Note_off_c, 12, 71, 127
1, 65996, Note_off_c, 4, 40, 127
1, 65997, Note_on_c, 8, 44, 127
1, 65997, Note_on_c, 4, 64, 127
1, 66131, Note_off_c, 4, 64, 127
1, 66132, Note_on_c, 0, 72, 127
1, 66266, Note_off_c, 0, 72, 127
1, 66266, Note_off_c, 8, 44, 127
1, 66267, Note_on_c, 4, 40, 127
1, 66267, Note_on_c, 2, 74, 127
1, 66401, Note_off_c, 2, 74, 127
1, 66402, Note_on_c, 12, 71, 127
1, 66536, Note_off_c, 12, 71, 127
1, 66536, Note_off_c, 4, 40, 127
1, 66537, Note_on_c, 10, 45, 127
1, 66537, Note_on_c, 0, 72, 127
1, 66673, Note_on_c, 4, 76, 127
1, 66763, Note_off_c, 0, 72, 127
1, 66807, Note_off_c, 4, 76, 127
1, 66807, Note_off_c, 10, 45, 127
1, 66808, Note_on_c, 0, 48, 127
1, 66808, Note_on_c, 10, 69, 127
1, 66942, Note_off_c, 10, 69, 127
1, 66943, Note_on_c, 5, 77, 127
1, 67077, Note_off_c, 5, 77, 127
1, 67077, Note_off_c, 0, 48, 127
1, 67078, Note_on_c, 10, 45, 127
1, 67078, Note_on_c, 7, 79, 127
1, 67212, Note_off_c, 7, 79, 127
1, 67213, Note_on_c, 4, 76, 127
1, 67347, Note_off_c, 4, 76, 127
1, 67347, Note_off_c, 10, 45, 127
1, 67348, Note_on_c, 2, 50, 127
1, 67348, Note_on_c, 5, 77, 127
1, 67482, Note_off_c, 5, 77, 127
1, 67483, Note_on_c, 10, 81, 127
1, 67617, Note_off_c, 10, 81, 127
1, 67617, Note_off_c, 2, 50, 127
1, 67618, Note_on_c, 4, 52, 127
1, 67618, Note_on_c, 2, 74, 127
1, 67752, Note_off_c, 2, 74, 127
1, 67753, Note_on_c, 0, 72, 127
1, 67887, Note_off_c, 0, 72, 127
1, 67887, Note_off_c, 4, 52, 127
1, 67888, Note_on_c, 5, 53, 127
1, 67888, Note_on_c, 2, 74, 127
1, 68022, Note_off_c, 2, 74, 127
1, 68023, Note_on_c, 5, 77, 127
1, 68157, Note_off_c, 5, 77, 127
1, 68157, Note_off_c, 5, 53, 127
1, 68158, Note_on_c, 7, 55, 127
1, 68158, Note_on_c, 12, 71, 127
1, 68294, Note_on_c, 2, 74, 127
1, 68413, Note_off_c, 12, 71, 127
1, 68429, Note_off_c, 2, 74, 127
1, 68429, Note_off_c, 7, 55, 127
1, 68430, Note_on_c, 12, 59, 127
1, 68430, Note_on_c, 7, 67, 127
1, 68564, Note_off_c, 7, 67, 127
1, 68565, Note_on_c, 4, 76, 127
1, 68699, Note_off_c, 4, 76, 127
1, 68699, Note_off_c, 12, 59, 127
1, 68700, Note_on_c, 7, 55, 127
1, 68700, Note_on_c, 5, 77, 127
1, 68834, Note_off_c, 5, 77, 127
1, 68835, Note_on_c, 2, 74, 127
1, 68969, Note_off_c, 2, 74, 127
1, 68969, Note_off_c, 7, 55, 127
1, 68970, Note_on_c, 0, 48, 127
1, 68970, Note_on_c, 4, 76, 127
1, 69104, Note_off_c, 4, 76, 127
1, 69105, Note_on_c, 7, 79, 127
1, 69239, Note_off_c, 7, 79, 127
1, 69239, Note_off_c, 0, 48, 127
1, 69240, Note_on_c, 2, 50, 127
1, 69240, Note_on_c, 0, 72, 127
1, 69374, Note_off_c, 0, 72, 127
1, 69375, Note_on_c, 12, 71, 127
1, 69509, Note_off_c, 12, 71, 127
1, 69509, Note_off_c, 2, 50, 127
1, 69510, Note_on_c, 4, 52, 127
1, 69510, Note_on_c, 0, 72, 127
1, 69644, Note_off_c, 0, 72, 127
1, 69645, Note_on_c, 4, 76, 127
1, 69779, Note_off_c, 4, 76, 127
1, 69779, Note_off_c, 4, 52, 127
1, 69780, Note_on_c, 5, 53, 127
1, 69780, Note_on_c, 10, 69, 127
1, 69916, Note_on_c, 0, 72, 127
1, 70006, Note_off_c, 10, 69, 127
1, 70050, Note_off_c, 0, 72, 127
1, 70050, Note_off_c, 5, 53, 127
1, 70051, Note_on_c, 10, 57, 127
1, 70051, Note_on_c, 5, 65, 127
1, 70185, Note_off_c, 5, 65, 127
1, 70186, Note_on_c, 2, 74, 127
1, 70320, Note_off_c, 2, 74, 127
1, 70320, Note_off_c, 10, 57, 127
1, 70321, Note_on_c, 5, 53, 127
1, 70321, Note_on_c, 4, 76, 127
1, 70455, Note_off_c, 4, 76, 127
1, 70456, Note_on_c, 0, 72, 127
1, 70590, Note_off_c, 0, 72, 127
1, 70590, Note_off_c, 5, 53, 127
1, 70591, Note_on_c, 12, 47, 127
1, 70591, Note_on_c, 2, 74, 127
1, 70725, Note_off_c, 2, 74, 127
1, 70726, Note_on_c, 5, 77, 127
1, 70860, Note_off_c, 5, 77, 127
1, 70860, Note_off_c, 12, 47, 127
1, 70861, Note_on_c, 0, 48, 127
1, 70861, Note_on_c, 12, 71, 127
1, 70995, Note_off_c, 12, 71, 127
1, 70996, Note_on_c, 10, 69, 127
1, 71130, Note_off_c, 10, 69, 127
1, 71130, Note_off_c, 0, 48, 127
1, 71131, Note_on_c, 2, 50, 127
1, 71131, Note_on_c, 12, 71, 127
1, 71265, Note_off_c, 12, 71, 127
1, 71266, Note_on_c, 2, 74, 127
1, 71400, Note_off_c, 2, 74, 127
1, 71400, Note_off_c, 2, 50, 127
1, 71401, Note_on_c, 4, 52, 127
1, 71401, Note_on_c, 8, 68, 127
1, 71537, Note_on_c, 12, 71, 127
1, 71585, Note_off_c, 8, 68, 127
1, 71671, Note_off_c, 12, 71, 127
1, 71671, Note_off_c, 4, 52, 127
1, 71672, Note_on_c, 8, 56, 127
1, 71672, Note_on_c, 4, 64, 127
1, 71806, Note_off_c, 4, 64, 127
1, 71807, Note_on_c, 0, 72, 127
1, 71941, Note_off_c, 0, 72, 127
1, 71941, Note_off_c, 8, 56, 127
1, 71942, Note_on_c, 4, 52, 127
1, 71942, Note_on_c, 2, 74, 127
1, 72076, Note_off_c, 2, 74, 127
1, 72077, Note_on_c, 12, 71, 127
1, 72211, Note_off_c, 12, 71, 127
1, 72211, Note_off_c, 4, 52, 127
1, 72212, Note_on_c, 10, 57, 127
1, 72212, Note_on_c, 0, 72, 127
1, 72348, Note_on_c, 4, 76, 127
1, 72382, Note_off_c, 0, 72, 127
1, 72482, Note_off_c, 4, 76, 127
1, 72482, Note_off_c, 10, 57, 127
1, 72483, Note_on_c, 0, 60, 127
1, 72483, Note_on_c, 10, 69, 127
1, 72617, Note_off_c, 10, 69, 127
1, 72618, Note_on_c, 8, 68, 127
1, 72752, Note_off_c, 8, 68, 127
1, 72752, Note_off_c, 0, 60, 127
1, 72753, Note_on_c, 10, 57, 127
1, 72753, Note_on_c, 10, 69, 127
1, 72887, Note_off_c, 10, 69, 127
1, 72888, Note_on_c, 0, 72, 127
1, 73022, Note_off_c, 0, 72, 127
1, 73022, Note_off_c, 10, 57, 127
1, 73023, Note_on_c, 5, 53, 127
1, 73023, Note_on_c, 2, 74, 127
1, 73159, Note_on_c, 5, 77, 127
1, 73292, Note_off_c, 2, 74, 127
1, 73293, Note_off_c, 5, 77, 127
1, 73293, Note_off_c, 5, 53, 127
1, 73294, Note_on_c, 4, 52, 127
1, 73294, Note_on_c, 10, 69, 127
1, 73428, Note_off_c, 10, 69, 127
1, 73429, Note_on_c, 8, 68, 127
1, 73563, Note_off_c, 8, 68, 127
1, 73563, Note_off_c, 4, 52, 127
1, 73564, Note_on_c, 2, 50, 127
1, 73564, Note_on_c, 10, 69, 127
1, 73698, Note_off_c, 10, 69, 127
1, 73699, Note_on_c, 2, 74, 127
1, 73833, Note_off_c, 2, 74, 127
1, 73833, Note_off_c, 2, 50, 127
1, 73834, Note_on_c, 1, 49, 127
1, 73834, Note_on_c, 4, 76, 127
1, 73970, Note_on_c, 7, 79, 127
1, 74104, Note_off_c, 7, 79, 127
1, 74104, Note_off_c, 1, 49, 127
1, 74105, Note_on_c, 12, 47, 127
1, 74105, Note_on_c, 10, 69, 127
1, 74215, Note_off_c, 4, 76, 127
1, 74239, Note_off_c, 10, 69, 127
1, 74240, Note_on_c, 8, 68, 127
1, 74374, Note_off_c, 8, 68, 127
1, 74374, Note_off_c, 12, 47, 127
1, 74375, Note_on_c, 10, 45, 127
1, 74375, Note_on_c, 10, 69, 127
1, 74509, Note_off_c, 10, 69, 127
1, 74510, Note_on_c, 4, 76, 127
1, 74644, Note_off_c, 4, 76, 127
1, 74644, Note_off_c, 10, 45, 127
1, 74645, Note_on_c, 2, 50, 127
1, 74645, Note_on_c, 5, 77, 127
1, 74779, Note_off_c, 2, 50, 127
1, 74780, Note_on_c, 5, 53, 127
1, 74914, Note_off_c, 5, 53, 127
1, 74915, Note_on_c, 10, 57, 127
1, 75049, Note_off_c, 10, 57, 127
1, 75050, Note_on_c, 4, 52, 127
1, 75184, Note_off_c, 4, 52, 127
1, 75185, Note_on_c, 5, 53, 127
1, 75319, Note_off_c, 5, 53, 127
1, 75320, Note_off_c, 5, 77, 127
1, 75320, Note_on_c, 10, 57, 127
1, 75454, Note_off_c, 10, 57, 127
1, 75455, Note_on_c, 2, 62, 127
1, 75591, Note_on_c, 10, 69, 127
1, 75725, Note_off_c, 10, 69, 127
1, 75725, Note_off_c, 2, 62, 127
1, 75726, Note_on_c, 5, 65, 127
1, 75726, Note_on_c, 12, 71, 127
1, 75860, Note_off_c, 12, 71, 127
1, 75861, Note_on_c, 8, 68, 127
1, 75995, Note_off_c, 8, 68, 127
1, 75995, Note_off_c, 5, 65, 127
1, 75996, Note_on_c, 12, 59, 127
1, 75996, Note_on_c, 10, 69, 127
1, 76130, Note_off_c, 10, 69, 127
1, 76131, Note_on_c, 5, 77, 127
1, 76265, Note_off_c, 5, 77, 127
1, 76265, Note_off_c, 12, 59, 127
1, 76266, Note_on_c, 0, 60, 127
1, 76266, Note_on_c, 4, 76, 127
1, 76402, Note_on_c, 10, 69, 127
1, 76436, Note_off_c, 4, 76, 127
1, 76536, Note_off_c, 10, 69, 127
1, 76536, Note_off_c, 0, 60, 127
1, 76537, Note_on_c, 4, 64, 127
1, 76537, Note_on_c, 12, 71, 127
1, 76671, Note_off_c, 12, 71, 127
1, 76672, Note_on_c, 8, 68, 127
1, 76806, Note_off_c, 8, 68, 127
1, 76806, Note_off_c, 4, 64, 127
1, 76807, Note_on_c, 10, 57, 127
1, 76807, Note_on_c, 10, 69, 127
1, 76941, Note_off_c, 10, 69, 127
1, 76942, Note_on_c, 4, 76, 127
1, 77076, Note_off_c, 4, 76, 127
1, 77076, Note_off_c, 10, 57, 127
1, 77077, Note_on_c, 5, 53, 127
1, 77077, Note_on_c, 2, 74, 127
1, 77313, Note_off_c, 2, 74, 127
1, 77347, Note_off_c, 5, 53, 127
1, 77348, Note_on_c, 2, 50, 127
1, 77348, Note_on_c, 0, 72, 127
1, 77414, Note_off_c, 0, 72, 127
1, 77415, Note_on_c, 12, 71, 127
1, 77481, Note_off_c, 12, 71, 127
1, 77482, Note_on_c, 0, 72, 127
1, 77548, Note_off_c, 0, 72, 127
1, 77549, Note_on_c, 12, 71, 127
1, 77615, Note_off_c, 12, 71, 127
1, 77615, Note_off_c, 2, 50, 127
1, 77616, Note_on_c, 4, 52, 127
1, 77616, Note_on_c, 0, 72, 127
1, 77682, Note_off_c, 0, 72, 127
1, 77683, Note_on_c, 12, 71, 127
1, 77749, Note_off_c, 12, 71, 127
1, 77750, Note_on_c, 10, 69, 127
1, 77816, Note_off_c, 10, 69, 127
1, 77817, Note_on_c, 12, 71, 127
1, 77883, Note_off_c, 12, 71, 127
1, 77883, Note_off_c, 4, 52, 127
1, 77892, Note_on_c, 10, 57, 127
1, 77892, Note_on_c, 10, 69, 127
1, 78026, Note_off_c, 10, 69, 127
1, 78027, Note_on_c, 4, 64, 127
1, 78160, Note_off_c, 10, 57, 127
1, 78161, Note_off_c, 4, 64, 127
1, 78162, Note_on_c, 10, 45, 127
1, 78162, Note_on_c, 5, 65, 127
1, 78296, Note_off_c, 5, 65, 127
1, 78297, Note_on_c, 2, 62, 127
1, 78431, Note_off_c, 2, 62, 127
1, 78431, Note_off_c, 10, 45, 127
1, 78432, Note_on_c, 10, 57, 127
1, 78432, Note_on_c, 4, 64, 127
1, 78568, Note_on_c, 10, 69, 127
1, 78702, Note_off_c, 10, 69, 127
1, 78703, Note_on_c, 12, 71, 127
1, 78827, Note_off_c, 4, 64, 127
1, 78837, Note_off_c, 12, 71, 127
1, 78837, Note_off_c, 10, 57, 127
1, 78838, Note_on_c, 8, 56, 127
1, 78838, Note_on_c, 4, 64, 127
1, 78972, Note_off_c, 4, 64, 127
1, 78972, Note_off_c, 8, 56, 127
1, 78973, Note_on_c, 10, 57, 127
1, 78973, Note_on_c, 5, 65, 127
1, 79107, Note_off_c, 5, 65, 127
1, 79107, Note_off_c, 10, 57, 127
1, 79108, Note_on_c, 6, 54, 127
1, 79108, Note_on_c, 2, 62, 127
1, 79242, Note_off_c, 2, 62, 127
1, 79242, Note_off_c, 6, 54, 127
1, 79243, Note_on_c, 8, 56, 127
1, 79243, Note_on_c, 4, 64, 127
1, 79377, Note_off_c, 8, 56, 127
1, 79378, Note_on_c, 4, 52, 127
1, 79378, Note_on_c, 12, 71, 127
1, 79512, Note_off_c, 12, 71, 127
1, 79512, Note_off_c, 4, 52, 127
1, 79513, Note_on_c, 10, 57, 127
1, 79513, Note_on_c, 0, 72, 127
1, 79637, Note_off_c, 4, 64, 127
1, 79647, Note_off_c, 0, 72, 127
1, 79648, Note_on_c, 4, 64, 127
1, 79782, Note_off_c, 4, 64, 127
1, 79782, Note_off_c, 10, 57, 127
1, 79783, Note_on_c, 10, 45, 127
1, 79783, Note_on_c, 5, 65, 127
1, 79917, Note_off_c, 5, 65, 127
1, 79918, Note_on_c, 2, 62, 127
1, 80052, Note_off_c, 2, 62, 127
1, 80052, Note_off_c, 10, 45, 127
1, 80053, Note_on_c, 10, 57, 127
1, 80053, Note_on_c, 4, 64, 127
1, 80189, Note_on_c, 0, 72, 127
1, 80323, Note_off_c, 0, 72, 127
1, 80323, Note_off_c, 10, 57, 127
1, 80324, Note_on_c, 4, 52, 127
1, 80324, Note_on_c, 12, 71, 127
1, 80448, Note_off_c, 4, 64, 127
1, 80458, Note_off_c, 12, 71, 127
1, 80458, Note_off_c, 4, 52, 127
1, 80459, Note_on_c, 5, 53, 127
1, 80459, Note_on_c, 10, 69, 127
1, 80593, Note_off_c, 10, 69, 127
1, 80593, Note_off_c, 5, 53, 127
1, 80594, Note_on_c, 4, 52, 127
1, 80594, Note_on_c, 8, 68, 127
1, 80728, Note_off_c, 8, 68, 127
1, 80728, Note_off_c, 4, 52, 127
1, 80729, Note_on_c, 2, 50, 127
1, 80729, Note_on_c, 6, 66, 127
1, 80863, Note_off_c, 6, 66, 127
1, 80863, Note_off_c, 2, 50, 127
1, 80864, Note_on_c, 0, 48, 127
1, 80864, Note_on_c, 4, 64, 127
1, 80998, Note_off_c, 4, 64, 127
1, 80998, Note_off_c, 0, 48, 127
1, 80999, Note_on_c, 12, 47, 127
1, 80999, Note_on_c, 2, 62, 127
1, 81133, Note_off_c, 2, 62, 127
1, 81133, Note_off_c, 12, 47, 127
1, 81134, Note_on_c, 10, 45, 127
1, 81134, Note_on_c, 0, 60, 127
1, 81268, Note_off_c, 10, 45, 127
1, 81269, Note_on_c, 4, 52, 127
1, 81402, Note_off_c, 0, 60, 127
1, 81403, Note_off_c, 4, 52, 127
1, 81404, Note_on_c, 5, 53, 127
1, 81538, Note_off_c, 5, 53, 127
1, 81539, Note_on_c, 2, 50, 127
1, 81539, Note_on_c, 10, 69, 127
1, 81673, Note_off_c, 10, 69, 127
1, 81673, Note_off_c, 2, 50, 127
1, 81674, Note_on_c, 4, 52, 127
1, 81674, Note_on_c, 8, 68, 127
1, 81808, Note_off_c, 8, 68, 127
1, 81808, Note_off_c, 4, 52, 127
1, 81809, Note_on_c, 10, 45, 127
1, 81809, Note_on_c, 10, 69, 127
1, 81943, Note_off_c, 10, 69, 127
1, 81943, Note_off_c, 10, 45, 127
1, 81944, Note_on_c, 12, 47, 127
1, 81944, Note_on_c, 2, 62, 127
1, 82078, Note_off_c, 12, 47, 127
1, 82079, Note_on_c, 4, 52, 127
1, 82212, Note_off_c, 2, 62, 127
1, 82213, Note_off_c, 4, 52, 127
1, 82214, Note_on_c, 5, 53, 127
1, 82348, Note_off_c, 5, 53, 127
1, 82349, Note_on_c, 2, 50, 127
1, 82349, Note_on_c, 10, 69, 127
1, 82483, Note_off_c, 10, 69, 127
1, 82483, Note_off_c, 2, 50, 127
1, 82484, Note_on_c, 4, 52, 127
1, 82484, Note_on_c, 8, 68, 127
1, 82618, Note_off_c, 8, 68, 127
1, 82618, Note_off_c, 4, 52, 127
1, 82619, Note_on_c, 12, 47, 127
1, 82619, Note_on_c, 10, 69, 127
1, 82753, Note_off_c, 10, 69, 127
1, 82753, Note_off_c, 12, 47, 127
1, 82754, Note_on_c, 0, 48, 127
1, 82754, Note_on_c, 4, 64, 127
1, 82888, Note_off_c, 4, 64, 127
1, 82888, Note_off_c, 0, 48, 127
1, 82889, Note_on_c, 4, 52, 127
1, 82889, Note_on_c, 8, 68, 127
1, 83023, Note_off_c, 8, 68, 127
1, 83023, Note_off_c, 4, 52, 127
1, 83024, Note_on_c, 5, 53, 127
1, 83024, Note_on_c, 10, 69, 127
1, 83158, Note_off_c, 10, 69, 127
1, 83158, Note_off_c, 5, 53, 127
1, 83159, Note_on_c, 2, 50, 127
1, 83159, Note_on_c, 12, 71, 127
1, 83293, Note_off_c, 12, 71, 127
1, 83293, Note_off_c, 2, 50, 127
1, 83294, Note_on_c, 4, 52, 127
1, 83294, Note_on_c, 0, 72, 127
1, 83428, Note_off_c, 4, 52, 127
1, 83429, Note_on_c, 0, 48, 127
1, 83563, Note_off_c, 0, 48, 127
1, 83564, Note_on_c, 2, 50, 127
1, 83646, Note_off_c, 0, 72, 127
1, 83700, Note_on_c, 10, 69, 127
1, 83834, Note_off_c, 10, 69, 127
1, 83835, Note_on_c, 12, 71, 127
1, 83969, Note_off_c, 12, 71, 127
1, 83970, Note_on_c, 8, 68, 127
1, 84104, Note_off_c, 8, 68, 127
1, 84105, Note_on_c, 10, 69, 127
1, 84239, Note_off_c, 10, 69, 127
1, 84240, Note_off_c, 2, 50, 127
1, 84240, Note_on_c, 0, 72, 127
1, 84374, Note_off_c, 0, 72, 127
1, 84375, Note_on_c, 5, 77, 127
1, 84511, Note_on_c, 12, 47, 127
1, 84645, Note_off_c, 12, 47, 127
1, 84646, Note_on_c, 0, 48, 127
1, 84780, Note_off_c, 0, 48, 127
1, 84781, Note_on_c, 10, 45, 127
1, 84915, Note_off_c, 10, 45, 127
1, 84916, Note_on_c, 12, 47, 127
1, 85050, Note_off_c, 12, 47, 127
1, 85051, Note_on_c, 2, 50, 127
1, 85185, Note_off_c, 2, 50, 127
1, 85185, Note_off_c, 5, 77, 127
1, 85186, Note_on_c, 8, 56, 127
1, 85322, Note_on_c, 2, 74, 127
1, 85456, Note_off_c, 2, 74, 127
1, 85457, Note_on_c, 4, 76, 127
1, 85591, Note_off_c, 4, 76, 127
1, 85592, Note_on_c, 1, 73, 127
1, 85726, Note_off_c, 1, 73, 127
1, 85727, Note_on_c, 2, 74, 127
1, 85861, Note_off_c, 2, 74, 127
1, 85862, Note_on_c, 5, 77, 127
1, 85890, Note_off_c, 8, 56, 127
1, 85996, Note_off_c, 5, 77, 127
1, 85997, Note_on_c, 12, 83, 127
1, 86133, Note_on_c, 4, 52, 127
1, 86267, Note_off_c, 4, 52, 127
1, 86268, Note_on_c, 5, 53, 127
1, 86402, Note_off_c, 5, 53, 127
1, 86403, Note_on_c, 2, 50, 127
1, 86537, Note_off_c, 2, 50, 127
1, 86538, Note_on_c, 4, 52, 127
1, 86672, Note_off_c, 4, 52, 127
1, 86673, Note_on_c, 8, 56, 127
1, 86807, Note_off_c, 8, 56, 127
1, 86807, Note_off_c, 12, 83, 127
1, 86808, Note_on_c, 0, 60, 127
1, 86944, Note_on_c, 0, 72, 127
1, 87078, Note_off_c, 0, 72, 127
1, 87078, Note_off_c, 0, 60, 127
1, 87079, Note_on_c, 4, 64, 127
1, 87079, Note_on_c, 2, 74, 127
1, 87213, Note_off_c, 2, 74, 127
1, 87214, Note_on_c, 12, 71, 127
1, 87348, Note_off_c, 12, 71, 127
1, 87348, Note_off_c, 4, 64, 127
1, 87349, Note_on_c, 10, 57, 127
1, 87349, Note_on_c, 0, 72, 127
1, 87483, Note_off_c, 0, 72, 127
1, 87484, Note_on_c, 4, 76, 127
1, 87618, Note_off_c, 4, 76, 127
1, 87618, Note_off_c, 10, 57, 127
1, 87619, Note_on_c, 5, 65, 127
1, 87619, Note_on_c, 10, 81, 127
1, 87755, Note_on_c, 12, 71, 127
1, 87889, Note_off_c, 12, 71, 127
1, 87889, Note_off_c, 5, 65, 127
1, 87890, Note_on_c, 2, 62, 127
1, 87890, Note_on_c, 0, 72, 127
1, 87930, Note_off_c, 10, 81, 127
1, 88025, Note_off_c, 0, 72, 127
1, 88026, Note_on_c, 10, 69, 127
1, 88160, Note_off_c, 10, 69, 127
1, 88160, Note_off_c, 2, 62, 127
1, 88161, Note_on_c, 7, 55, 127
1, 88161, Note_on_c, 12, 71, 127
1, 88295, Note_off_c, 12, 71, 127
1, 88296, Note_on_c, 2, 74, 127
1, 88430, Note_off_c, 2, 74, 127
1, 88430, Note_off_c, 7, 55, 127
1, 88431, Note_on_c, 4, 64, 127
1, 88431, Note_on_c, 7, 79, 127
1, 88567, Note_on_c, 10, 69, 127
1, 88701, Note_off_c, 10, 69, 127
1, 88701, Note_off_c, 4, 64, 127
1, 88702, Note_on_c, 0, 60, 127
1, 88702, Note_on_c, 12, 71, 127
1, 88742, Note_off_c, 7, 79, 127
1, 88837, Note_off_c, 12, 71, 127
1, 88838, Note_on_c, 8, 68, 127
1, 88972, Note_off_c, 8, 68, 127
1, 88972, Note_off_c, 0, 60, 127
1, 88973, Note_on_c, 5, 53, 127
1, 88973, Note_on_c, 10, 69, 127
1, 89107, Note_off_c, 10, 69, 127
1, 89108, Note_on_c, 0, 72, 127
1, 89242, Note_off_c, 0, 72, 127
1, 89242, Note_off_c, 5, 53, 127
1, 89243, Note_on_c, 2, 62, 127
1, 89243, Note_on_c, 5, 77, 127
1, 89377, Note_off_c, 2, 62, 127
1, 89378, Note_on_c, 12, 59, 127
1, 89512, Note_off_c, 12, 59, 127
1, 89512, Note_off_c, 5, 77, 127
1, 89513, Note_on_c, 0, 60, 127
1, 89513, Note_on_c, 2, 74, 127
1, 89647, Note_off_c, 0, 60, 127
1, 89648, Note_on_c, 10, 57, 127
1, 89782, Note_off_c, 10, 57, 127
1, 89782, Note_off_c, 2, 74, 127
1, 89783, Note_on_c, 12, 59, 127
1, 89783, Note_on_c, 7, 67, 127
1, 89917, Note_off_c, 12, 59, 127
1, 89918, Note_on_c, 2, 62, 127
1, 90052, Note_off_c, 2, 62, 127
1, 90052, Note_off_c, 7, 67, 127
1, 90053, Note_on_c, 7, 67, 127
1, 90053, Note_on_c, 4, 76, 127
1, 90187, Note_off_c, 7, 67, 127
1, 90188, Note_on_c, 10, 57, 127
1, 90322, Note_off_c, 10, 57, 127
1, 90322, Note_off_c, 4, 76, 127
1, 90323, Note_on_c, 12, 59, 127
1, 90323, Note_on_c, 0, 72, 127
1, 90457, Note_off_c, 12, 59, 127
1, 90458, Note_on_c, 8, 56, 127
1, 90592, Note_off_c, 8, 56, 127
1, 90592, Note_off_c, 0, 72, 127
1, 90593, Note_on_c, 10, 57, 127
1, 90593, Note_on_c, 5, 65, 127
1, 90727, Note_off_c, 10, 57, 127
1, 90728, Note_on_c, 0, 60, 127
1, 90862, Note_off_c, 0, 60, 127
1, 90862, Note_off_c, 5, 65, 127
1, 90863, Note_on_c, 5, 65, 127
1, 90863, Note_on_c, 2, 74, 127
1, 90997, Note_off_c, 5, 65, 127
1, 90998, Note_on_c, 8, 56, 127
1, 90998, Note_on_c, 4, 64, 127
1, 91132, Note_off_c, 4, 64, 127
1, 91132, Note_off_c, 8, 56, 127
1, 91133, Note_on_c, 10, 57, 127
1, 91133, Note_on_c, 5, 65, 127
1, 91201, Note_off_c, 2, 74, 127
1, 91267, Note_off_c, 5, 65, 127
1, 91267, Note_off_c, 10, 57, 127
1, 91268, Note_on_c, 6, 54, 127
1, 91268, Note_on_c, 2, 62, 127
1, 91402, Note_off_c, 2, 62, 127
1, 91402, Note_off_c, 6, 54, 127
1, 91403, Note_on_c, 8, 56, 127
1, 91403, Note_on_c, 4, 64, 127
1, 91537, Note_off_c, 4, 64, 127
1, 91537, Note_off_c, 8, 56, 127
1, 91538, Note_on_c, 12, 59, 127
1, 91538, Note_on_c, 8, 68, 127
1, 91672, Note_off_c, 8, 68, 127
1, 91672, Note_off_c, 12, 59, 127
1, 91673, Note_on_c, 4, 64, 127
1, 91673, Note_on_c, 0, 72, 127
1, 91807, Note_off_c, 4, 64, 127
1, 91808, Note_on_c, 6, 54, 127
1, 91808, Note_on_c, 3, 63, 127
1, 91942, Note_off_c, 3, 63, 127
1, 91942, Note_off_c, 6, 54, 127
1, 91943, Note_on_c, 8, 56, 127
1, 91943, Note_on_c, 4, 64, 127
1, 92011, Note_off_c, 0, 72, 127
1, 92077, Note_off_c, 4, 64, 127
1, 92077, Note_off_c, 8, 56, 127
1, 92078, Note_on_c, 4, 52, 127
1, 92078, Note_on_c, 1, 61, 127
1, 92212, Note_off_c, 1, 61, 127
1, 92212, Note_off_c, 4, 52, 127
1, 92213, Note_on_c, 6, 54, 127
1, 92213, Note_on_c, 2, 62, 127
1, 92347, Note_off_c, 2, 62, 127
1, 92347, Note_off_c, 6, 54, 127
1, 92348, Note_on_c, 10, 57, 127
1, 92348, Note_on_c, 6, 66, 127
1, 92482, Note_off_c, 6, 66, 127
1, 92482, Note_off_c, 10, 57, 127
1, 92483, Note_on_c, 3, 51, 127
1, 92483, Note_on_c, 10, 69, 127
1, 92617, Note_off_c, 10, 69, 127
1, 92618, Note_on_c, 6, 66, 127
1, 92752, Note_off_c, 6, 66, 127
1, 92752, Note_off_c, 3, 51, 127
1, 92753, Note_on_c, 6, 54, 127
1, 92753, Note_on_c, 3, 63, 127
1, 92887, Note_off_c, 3, 63, 127
1, 92888, Note_on_c, 0, 60, 127
1, 93022, Note_off_c, 0, 60, 127
1, 93022, Note_off_c, 6, 54, 127
1, 93023, Note_on_c, 3, 51, 127
1, 93023, Note_on_c, 12, 59, 127
1, 93157, Note_off_c, 12, 59, 127
1, 93158, Note_on_c, 10, 69, 127
1, 93292, Note_off_c, 10, 69, 127
1, 93292, Note_off_c, 3, 51, 127
1, 93293, Note_on_c, 4, 52, 127
1, 93293, Note_on_c, 8, 68, 127
1, 93427, Note_off_c, 4, 52, 127
1, 93428, Note_on_c, 2, 50, 127
1, 93428, Note_on_c, 12, 71, 127
1, 93465, Note_off_c, 8, 68, 127
1, 93562, Note_off_c, 12, 71, 127
1, 93562, Note_off_c, 2, 50, 127
1, 93563, Note_on_c, 12, 47, 127
1, 93563, Note_on_c, 2, 74, 127
1, 93697, Note_off_c, 2, 74, 127
1, 93697, Note_off_c, 12, 47, 127
1, 93698, Note_on_c, 8, 44, 127
1, 93698, Note_on_c, 5, 77, 127
1, 93832, Note_off_c, 5, 77, 127
1, 93832, Note_off_c, 8, 44, 127
1, 93833, Note_on_c, 12, 47, 127
1, 93833, Note_on_c, 4, 76, 127
1, 93967, Note_off_c, 12, 47, 127
1, 93968, Note_on_c, 2, 50, 127
1, 94102, Note_off_c, 2, 50, 127
1, 94103, Note_on_c, 0, 36, 127
1, 94239, Note_off_c, 4, 76, 127
1, 94240, Note_on_c, 10, 69, 127
1, 94376, Note_off_c, 10, 69, 127
1, 94376, Note_off_c, 0, 36, 127
1, 94377, Note_on_c, 2, 38, 127
1, 94377, Note_on_c, 0, 72, 127
1, 94513, Note_off_c, 0, 72, 127
1, 94514, Note_on_c, 12, 71, 127
1, 94650, Note_off_c, 12, 71, 127
1, 94650, Note_off_c, 2, 38, 127
1, 94651, Note_on_c, 4, 40, 127
1, 94651, Note_on_c, 10, 69, 127
1, 94787, Note_off_c, 10, 69, 127
1, 94788, Note_on_c, 8, 68, 127
1, 94936, Note_off_c, 4, 40, 127
1, 94941, Note_on_c, 5, 41, 127
1, 94941, Note_on_c, 10, 69, 127
1, 94946, Note_off_c, 8, 68, 127
1, 95080, Note_off_c, 10, 69, 127
1, 95081, Note_on_c, 4, 64, 127
1, 95220, Note_off_c, 4, 64, 127
1, 95220, Note_off_c, 5, 41, 127
1, 95221, Note_on_c, 10, 45, 127
1, 95221, Note_on_c, 5, 65, 127
1, 95360, Note_off_c, 5, 65, 127
1, 95361, Note_on_c, 2, 62, 127
1, 95500, Note_off_c, 2, 62, 127
1, 95500, Note_off_c, 10, 45, 127
1, 95501, Note_on_c, 2, 50, 127
1, 95501, Note_on_c, 11, 70, 127
1, 95640, Note_off_c, 11, 70, 127
1, 95641, Note_on_c, 8, 68, 127
1, 95780, Note_off_c, 8, 68, 127
1, 95780, Note_off_c, 2, 50, 127
1, 95781, Note_on_c, 3, 51, 127
1, 95781, Note_on_c, 10, 69, 127
1, 95935, Note_off_c, 10, 69, 127
1, 95937, Note_on_c, 0, 72, 127
1, 96091, Note_off_c, 0, 72, 127
1, 96091, Note_off_c, 3, 51, 127
1, 96093, Note_on_c, 4, 52, 127
1, 96093, Note_on_c, 4, 64, 127
1, 96261, Note_off_c, 4, 64, 127
1, 96263, Note_on_c, 10, 69, 127
1, 96431, Note_off_c, 10, 69, 127
1, 96433, Note_on_c, 4, 40, 127
1, 96433, Note_on_c, 12, 71, 127
1, 96646, Note_off_c, 12, 71, 127
1, 96646, Note_on_c, 8, 68, 127
1, 96822, Note_off_c, 4, 40, 127
1, 96869, Note_off_c, 4, 52, 127
1, 96870, Note_off_c, 8, 68, 127
1, 96895, Note_on_c, 10, 45, 127
1, 96895, Note_on_c, 10, 69, 127
1, 99695, Note_off_c, 10, 69, 127
1, 99895, Note_off_c, 10, 45, 127
1, 100239, Note_on_c, 4, 76, 127
1, 100367, Note_off_c, 4, 76, 127
1, 100372, Note_on_c, 2, 74, 127
1, 100486, Note_off_c, 2, 74, 127
1, 100502, Note_on_c, 10, 45, 127
1, 100502, Note_on_c, 4, 76, 127
1, 100762, Note_off_c, 10, 45, 127
1, 100763, Note_on_c, 0, 48, 127
1, 100894, Note_on_c, 2, 74, 127
1, 100993, Note_off_c, 4, 76, 127
1, 101024, Note_off_c, 2, 74, 127
1, 101024, Note_off_c, 0, 48, 127
1, 101025, Note_on_c, 0, 72, 127
1, 101025, Note_on_c, 4, 52, 127
1, 101155, Note_off_c, 0, 72, 127
1, 101156, Note_on_c, 12, 71, 127
1, 101286, Note_off_c, 12, 71, 127
1, 101286, Note_off_c, 4, 52, 127
1, 101287, Note_on_c, 0, 72, 127
1, 101287, Note_on_c, 10, 57, 127
1, 101547, Note_off_c, 0, 72, 127
1, 101548, Note_on_c, 12, 71, 127
1, 101678, Note_off_c, 12, 71, 127
1, 101679, Note_on_c, 10, 69, 127
1, 101809, Note_off_c, 10, 69, 127
1, 101809, Note_off_c, 10, 57, 127
1, 101810, Note_on_c, 2, 74, 127
1, 101810, Note_on_c, 12, 59, 127
1, 102070, Note_off_c, 2, 74, 127
1, 102071, Note_on_c, 0, 72, 127
1, 102201, Note_off_c, 0, 72, 127
1, 102202, Note_on_c, 12, 71, 127
1, 102332, Note_off_c, 12, 71, 127
1, 102332, Note_off_c, 12, 59, 127
1, 102333, Note_on_c, 4, 76, 127
1, 102333, Note_on_c, 0, 60, 127
1, 102593, Note_off_c, 4, 76, 127
1, 102594, Note_on_c, 2, 74, 127
1, 102724, Note_off_c, 2, 74, 127
1, 102725, Note_on_c, 0, 72, 127
1, 102855, Note_off_c, 0, 72, 127
1, 102855, Note_off_c, 0, 60, 127
1, 102856, Note_on_c, 5, 77, 127
1, 102856, Note_on_c, 2, 62, 127
1, 103247, Note_off_c, 5, 77, 127
1, 103248, Note_on_c, 10, 69, 127
1, 103378, Note_off_c, 10, 69, 127
1, 103378, Note_off_c, 2, 62, 127
1, 103379, Note_on_c, 8, 68, 127
1, 103379, Note_on_c, 4, 64, 127
1, 103510, Note_on_c, 10, 69, 127
1, 103640, Note_off_c, 10, 69, 127
1, 103641, Note_on_c, 12, 71, 127
1, 103772, Note_on_c, 2, 74, 127
1, 103884, Note_off_c, 4, 64, 127
1, 103903, Note_on_c, 4, 64, 127
1, 104034, Note_on_c, 0, 60, 127
1, 104164, Note_off_c, 0, 60, 127
1, 104165, Note_on_c, 12, 59, 127
1, 104295, Note_off_c, 12, 59, 127
1, 104296, Note_on_c, 10, 57, 127
1, 104426, Note_off_c, 10, 57, 127
1, 104427, Note_on_c, 8, 56, 127
1, 104687, Note_off_c, 8, 56, 127
1, 104688, Note_on_c, 10, 57, 127
1, 104818, Note_off_c, 10, 57, 127
1, 104819, Note_on_c, 12, 59, 127
1, 104949, Note_off_c, 12, 59, 127
1, 104950, Note_on_c, 4, 52, 127
1, 104999, Note_off_c, 2, 74, 127
1, 105004, Note_off_c, 12, 71, 127
1, 105015, Note_off_c, 8, 68, 127
1, 105210, Note_off_c, 4, 52, 127
1, 105210, Note_off_c, 4, 64, 127
1, 105211, Note_on_c, 0, 72, 127
1, 105211, Note_on_c, 6, 54, 127
1, 105341, Note_off_c, 6, 54, 127
1, 105341, Note_off_c, 0, 72, 127
1, 105342, Note_on_c, 12, 71, 127
1, 105342, Note_on_c, 8, 56, 127
1, 105472, Note_off_c, 8, 56, 127
1, 105472, Note_off_c, 12, 71, 127
1, 105473, Note_on_c, 0, 72, 127
1, 105473, Note_on_c, 10, 57, 127
1, 105604, Note_on_c, 12, 71, 127
1, 105734, Note_off_c, 12, 71, 127
1, 105735, Note_on_c, 10, 69, 127
1, 105865, Note_off_c, 10, 69, 127
1, 105866, Note_on_c, 8, 68, 127
1, 105996, Note_off_c, 8, 68, 127
1, 105996, Note_off_c, 10, 57, 127
1, 105997, Note_on_c, 10, 69, 127
1, 105997, Note_on_c, 0, 60, 127
1, 106128, Note_off_c, 0, 72, 127
1, 106388, Note_off_c, 10, 69, 127
1, 106389, Note_on_c, 4, 64, 127
1, 106519, Note_off_c, 4, 64, 127
1, 106519, Note_off_c, 0, 60, 127
1, 106520, Note_on_c, 5, 65, 127
1, 106520, Note_on_c, 2, 62, 127
1, 106913, Note_on_c, 10, 69, 127
1, 107043, Note_off_c, 10, 69, 127
1, 107043, Note_off_c, 2, 62, 127
1, 107044, Note_on_c, 2, 74, 127
1, 107044, Note_on_c, 7, 55, 127
1, 107175, Note_off_c, 5, 65, 127
1, 107435, Note_off_c, 2, 74, 127
1, 107436, Note_on_c, 2, 62, 127
1, 107436, Note_on_c, 5, 65, 127
1, 107566, Note_off_c, 5, 65, 127
1, 107566, Note_off_c, 2, 62, 127
1, 107566, Note_off_c, 7, 55, 127
1, 107567, Note_on_c, 7, 67, 127
1, 107567, Note_on_c, 2, 62, 127
1, 107567, Note_on_c, 0, 60, 127
1, 107631, Note_off_c, 7, 67, 127
1, 107632, Note_on_c, 5, 65, 127
1, 107696, Note_off_c, 5, 65, 127
1, 107697, Note_on_c, 7, 67, 127
1, 107761, Note_off_c, 7, 67, 127
1, 107762, Note_on_c, 5, 65, 127
1, 107826, Note_off_c, 5, 65, 127
1, 107827, Note_on_c, 7, 67, 127
1, 107891, Note_off_c, 7, 67, 127
1, 107892, Note_on_c, 5, 65, 127
1, 107956, Note_off_c, 5, 65, 127
1, 107957, Note_on_c, 7, 67, 127
1, 108021, Note_off_c, 7, 67, 127
1, 108022, Note_on_c, 5, 65, 127
1, 108068, Note_off_c, 0, 60, 127
1, 108082, Note_off_c, 2, 62, 127
1, 108086, Note_off_c, 5, 65, 127
1, 108087, Note_on_c, 0, 60, 127
1, 108087, Note_on_c, 4, 64, 127
1, 108218, Note_on_c, 0, 48, 127
1, 108348, Note_off_c, 0, 48, 127
1, 108349, Note_on_c, 4, 52, 127
1, 108479, Note_off_c, 4, 52, 127
1, 108480, Note_on_c, 7, 55, 127
1, 108605, Note_off_c, 0, 60, 127
1, 108609, Note_off_c, 7, 55, 127
1, 108610, Note_on_c, 0, 60, 127
1, 108740, Note_off_c, 4, 64, 127
1, 108741, Note_on_c, 7, 67, 127
1, 108871, Note_off_c, 7, 67, 127
1, 108872, Note_on_c, 5, 65, 127
1, 109002, Note_off_c, 5, 65, 127
1, 109003, Note_on_c, 4, 64, 127
1, 109134, Note_on_c, 10, 69, 127
1, 109394, Note_off_c, 10, 69, 127
1, 109394, Note_off_c, 0, 60, 127
1, 109395, Note_on_c, 12, 71, 127
1, 109395, Note_on_c, 12, 59, 127
1, 109525, Note_off_c, 12, 59, 127
1, 109525, Note_off_c, 12, 71, 127
1, 109526, Note_on_c, 0, 72, 127
1, 109526, Note_on_c, 10, 57, 127
1, 109650, Note_off_c, 4, 64, 127
1, 109655, Note_off_c, 10, 57, 127
1, 109656, Note_on_c, 6, 66, 127
1, 109656, Note_on_c, 2, 62, 127
1, 109916, Note_off_c, 6, 66, 127
1, 109917, Note_on_c, 7, 67, 127
1, 110047, Note_off_c, 7, 67, 127
1, 110048, Note_on_c, 10, 69, 127
1, 110160, Note_off_c, 2, 62, 127
1, 110178, Note_off_c, 10, 69, 127
1, 110179, Note_on_c, 2, 62, 127
1, 110310, Note_on_c, 2, 50, 127
1, 110440, Note_off_c, 2, 50, 127
1, 110441, Note_on_c, 6, 54, 127
1, 110571, Note_off_c, 6, 54, 127
1, 110572, Note_on_c, 10, 57, 127
1, 110684, Note_off_c, 2, 62, 127
1, 110698, Note_off_c, 0, 72, 127
1, 110702, Note_off_c, 10, 57, 127
1, 110703, Note_on_c, 2, 62, 127
1, 110834, Note_on_c, 10, 69, 127
1, 110964, Note_off_c, 10, 69, 127
1, 110965, Note_on_c, 7, 67, 127
1, 111095, Note_off_c, 7, 67, 127
1, 111096, Note_on_c, 6, 66, 127
1, 111227, Note_on_c, 12, 71, 127
1, 111487, Note_off_c, 12, 71, 127
1, 111487, Note_off_c, 2, 62, 127
1, 111488, Note_on_c, 0, 72, 127
1, 111488, Note_on_c, 0, 60, 127
1, 111618, Note_off_c, 0, 60, 127
1, 111618, Note_off_c, 0, 72, 127
1, 111619, Note_on_c, 2, 74, 127
1, 111619, Note_on_c, 12, 59, 127
1, 111749, Note_off_c, 12, 59, 127
1, 111750, Note_off_c, 6, 66, 127
1, 111750, Note_on_c, 8, 68, 127
1, 111750, Note_on_c, 4, 64, 127
1, 112010, Note_off_c, 8, 68, 127
1, 112011, Note_on_c, 10, 69, 127
1, 112141, Note_off_c, 10, 69, 127
1, 112142, Note_on_c, 12, 71, 127
1, 112254, Note_off_c, 4, 64, 127
1, 112272, Note_off_c, 12, 71, 127
1, 112273, Note_on_c, 4, 64, 127
1, 112404, Note_on_c, 0, 60, 127
1, 112534, Note_off_c, 0, 60, 127
1, 112535, Note_on_c, 12, 59, 127
1, 112665, Note_off_c, 12, 59, 127
1, 112666, Note_on_c, 10, 57, 127
1, 112791, Note_off_c, 2, 74, 127
1, 112795, Note_off_c, 10, 57, 127
1, 112796, Note_on_c, 8, 56, 127
1, 112926, Note_off_c, 4, 64, 127
1, 112927, Note_on_c, 5, 77, 127
1, 113057, Note_off_c, 5, 77, 127
1, 113058, Note_on_c, 4, 76, 127
1, 113188, Note_off_c, 4, 76, 127
1, 113189, Note_on_c, 2, 74, 127
1, 113319, Note_off_c, 8, 56, 127
1, 113320, Note_on_c, 8, 80, 127
1, 113320, Note_on_c, 4, 52, 127
1, 113580, Note_off_c, 8, 80, 127
1, 113581, Note_on_c, 10, 81, 127
1, 113711, Note_off_c, 10, 81, 127
1, 113712, Note_on_c, 12, 83, 127
1, 113842, Note_off_c, 12, 83, 127
1, 113842, Note_off_c, 4, 52, 127
1, 113843, Note_on_c, 4, 76, 127
1, 113843, Note_on_c, 0, 48, 127
1, 113925, Note_off_c, 2, 74, 127
1, 113974, Note_on_c, 2, 74, 127
1, 114104, Note_off_c, 2, 74, 127
1, 114105, Note_on_c, 0, 72, 127
1, 114235, Note_off_c, 0, 72, 127
1, 114236, Note_on_c, 12, 71, 127
1, 114366, Note_off_c, 12, 71, 127
1, 114366, Note_off_c, 0, 48, 127
1, 114367, Note_on_c, 0, 72, 127
1, 114367, Note_on_c, 5, 53, 127
1, 114367, Note_on_c, 10, 57, 127
1, 114619, Note_off_c, 4, 76, 127
1, 114629, Note_on_c, 10, 81, 127
1, 114885, Note_off_c, 0, 72, 127
1, 114889, Note_off_c, 5, 53, 127
1, 114890, Note_on_c, 12, 71, 127
1, 114890, Note_on_c, 2, 50, 127
1, 115283, Note_off_c, 10, 81, 127
1, 115283, Note_on_c, 5, 77, 127
1, 115413, Note_off_c, 5, 77, 127
1, 115413, Note_off_c, 2, 50, 127
1, 115413, Note_off_c, 10, 57, 127
1, 115414, Note_on_c, 4, 76, 127
1, 115414, Note_on_c, 4, 52, 127
1, 115414, Note_on_c, 8, 56, 127
1, 115674, Note_off_c, 4, 76, 127
1, 115675, Note_on_c, 2, 74, 127
1, 115926, Note_off_c, 12, 71, 127
1, 115936, Note_off_c, 2, 74, 127
1, 115936, Note_off_c, 8, 56, 127
1, 115936, Note_off_c, 4, 52, 127
1, 115937, Note_on_c, 2, 74, 127
1, 115937, Note_on_c, 10, 57, 127
1, 116001, Note_off_c, 2, 74, 127
1, 116002, Note_on_c, 0, 72, 127
1, 116066, Note_off_c, 0, 72, 127
1, 116067, Note_on_c, 2, 74, 127
1, 116131, Note_off_c, 2, 74, 127
1, 116132, Note_on_c, 0, 72, 127
1, 116196, Note_off_c, 0, 72, 127
1, 116197, Note_on_c, 2, 74, 127
1, 116261, Note_off_c, 2, 74, 127
1, 116262, Note_on_c, 0, 72, 127
1, 116326, Note_off_c, 0, 72, 127
1, 116327, Note_on_c, 2, 74, 127
1, 116327, Note_on_c, 4, 52, 127
1, 116391, Note_off_c, 2, 74, 127
1, 116392, Note_on_c, 0, 72, 127
1, 116456, Note_off_c, 0, 72, 127
1, 116456, Note_off_c, 4, 52, 127
1, 116457, Note_on_c, 12, 71, 127
1, 116457, Note_on_c, 2, 50, 127
1, 116587, Note_off_c, 2, 50, 127
1, 116588, Note_on_c, 0, 48, 127
1, 116718, Note_off_c, 0, 48, 127
1, 116718, Note_off_c, 12, 71, 127
1, 116719, Note_on_c, 10, 69, 127
1, 116719, Note_on_c, 2, 50, 127
1, 116849, Note_off_c, 2, 50, 127
1, 116850, Note_on_c, 4, 52, 127
1, 116980, Note_off_c, 4, 52, 127
1, 116980, Note_off_c, 10, 69, 127
1, 116981, Note_on_c, 4, 76, 127
1, 116981, Note_on_c, 10, 45, 127
1, 117045, Note_off_c, 4, 76, 127
1, 117046, Note_on_c, 2, 74, 127
1, 117110, Note_off_c, 2, 74, 127
1, 117111, Note_on_c, 4, 76, 127
1, 117365, Note_off_c, 10, 57, 127
1, 117372, Note_off_c, 4, 76, 127
1, 117372, Note_off_c, 10, 45, 127
1, 117373, Note_on_c, 2, 74, 127
1, 117373, Note_on_c, 10, 57, 127
1, 117503, Note_off_c, 10, 57, 127
1, 117503, Note_off_c, 2, 74, 127
1, 117504, Note_on_c, 0, 72, 127
1, 117504, Note_on_c, 7, 55, 127
1, 117634, Note_off_c, 0, 72, 127
1, 117635, Note_on_c, 12, 71, 127
1, 117765, Note_off_c, 12, 71, 127
1, 117766, Note_on_c, 0, 72, 127
1, 117896, Note_off_c, 0, 72, 127
1, 117896, Note_off_c, 7, 55, 127
1, 117897, Note_on_c, 4, 76, 127
1, 117897, Note_on_c, 5, 53, 127
1, 118027, Note_off_c, 5, 53, 127
1, 118027, Note_off_c, 4, 76, 127
1, 118028, Note_on_c, 7, 79, 127
1, 118028, Note_on_c, 4, 52, 127
1, 118159, Note_on_c, 2, 74, 127
1, 118289, Note_off_c, 2, 74, 127
1, 118290, Note_on_c, 0, 72, 127
1, 118420, Note_off_c, 0, 72, 127
1, 118421, Note_on_c, 12, 71, 127
1, 118551, Note_off_c, 12, 71, 127
1, 118552, Note_on_c, 0, 72, 127
1, 118552, Note_on_c, 7, 55, 127
1, 118682, Note_off_c, 0, 72, 127
1, 118683, Note_on_c, 4, 76, 127
1, 118813, Note_off_c, 4, 76, 127
1, 118814, Note_on_c, 2, 74, 127
1, 118944, Note_off_c, 2, 74, 127
1, 118945, Note_on_c, 0, 72, 127
1, 119075, Note_off_c, 0, 72, 127
1, 119075, Note_off_c, 7, 55, 127
1, 119075, Note_off_c, 4, 52, 127
1, 119075, Note_off_c, 7, 79, 127
1, 119076, Note_on_c, 10, 81, 127
1, 119076, Note_on_c, 6, 54, 127
1, 119338, Note_on_c, 0, 72, 127
1, 119598, Note_off_c, 0, 72, 127
1, 119599, Note_on_c, 2, 74, 127
1, 119599, Note_on_c, 10, 57, 127
1, 119990, Note_off_c, 2, 74, 127
1, 119991, Note_on_c, 10, 69, 127
1, 120121, Note_off_c, 10, 69, 127
1, 120121, Note_off_c, 10, 57, 127
1, 120121, Note_off_c, 6, 54, 127
1, 120122, Note_on_c, 12, 71, 127
1, 120122, Note_on_c, 7, 55, 127
1, 120247, Note_off_c, 10, 81, 127
1, 120252, Note_on_c, 2, 74, 127
1, 120382, Note_off_c, 2, 74, 127
1, 120383, Note_on_c, 4, 76, 127
1, 120513, Note_off_c, 4, 76, 127
1, 120514, Note_on_c, 6, 78, 127
1, 120639, Note_off_c, 12, 71, 127
1, 120643, Note_off_c, 6, 78, 127
1, 120644, Note_on_c, 7, 79, 127
1, 120644, Note_on_c, 2, 62, 127
1, 121035, Note_off_c, 7, 79, 127
1, 121036, Note_on_c, 10, 81, 127
1, 121161, Note_off_c, 2, 62, 127
1, 121165, Note_off_c, 10, 81, 127
1, 121165, Note_off_c, 7, 55, 127
1, 121166, Note_on_c, 12, 83, 127
1, 121166, Note_on_c, 7, 67, 127
1, 121230, Note_off_c, 12, 83, 127
1, 121231, Note_on_c, 10, 81, 127
1, 121295, Note_off_c, 10, 81, 127
1, 121296, Note_on_c, 12, 83, 127
1, 121296, Note_on_c, 10, 57, 127
1, 121426, Note_off_c, 10, 57, 127
1, 121427, Note_on_c, 7, 55, 127
1, 121557, Note_off_c, 7, 55, 127
1, 121558, Note_on_c, 5, 53, 127
1, 121683, Note_off_c, 7, 67, 127
1, 121687, Note_off_c, 5, 53, 127
1, 121688, Note_on_c, 7, 55, 127
1, 121818, Note_off_c, 7, 55, 127
1, 121819, Note_on_c, 4, 52, 127
1, 121949, Note_off_c, 4, 52, 127
1, 121950, Note_on_c, 7, 55, 127
1, 122080, Note_off_c, 7, 55, 127
1, 122081, Note_on_c, 12, 59, 127
1, 122211, Note_off_c, 12, 59, 127
1, 122212, Note_on_c, 0, 60, 127
1, 122305, Note_off_c, 12, 83, 127
1, 122343, Note_on_c, 4, 76, 127
1, 122473, Note_off_c, 4, 76, 127
1, 122474, Note_on_c, 6, 78, 127
1, 122604, Note_off_c, 6, 78, 127
1, 122605, Note_on_c, 8, 80, 127
1, 122735, Note_off_c, 8, 80, 127
1, 122736, Note_on_c, 10, 81, 127
1, 122736, Note_on_c, 4, 64, 127
1, 123127, Note_off_c, 10, 81, 127
1, 123128, Note_on_c, 12, 83, 127
1, 123253, Note_off_c, 4, 64, 127
1, 123257, Note_off_c, 12, 83, 127
1, 123258, Note_on_c, 0, 84, 127
1, 123258, Note_on_c, 10, 69, 127
1, 123649, Note_off_c, 0, 84, 127
1, 123649, Note_off_c, 0, 60, 127
1, 123650, Note_on_c, 5, 77, 127
1, 123650, Note_on_c, 0, 60, 127
1, 123780, Note_off_c, 0, 60, 127
1, 123780, Note_off_c, 5, 77, 127
1, 123781, Note_on_c, 5, 77, 127
1, 123781, Note_on_c, 12, 59, 127
1, 123845, Note_off_c, 5, 77, 127
1, 123846, Note_on_c, 7, 79, 127
1, 123910, Note_off_c, 7, 79, 127
1, 123911, Note_on_c, 10, 81, 127
1, 123975, Note_off_c, 10, 81, 127
1, 123976, Note_on_c, 7, 79, 127
1, 124040, Note_off_c, 7, 79, 127
1, 124041, Note_on_c, 10, 81, 127
1, 124105, Note_off_c, 10, 81, 127
1, 124106, Note_on_c, 7, 79, 127
1, 124128, Note_off_c, 10, 69, 127
1, 124170, Note_off_c, 7, 79, 127
1, 124170, Note_off_c, 12, 59, 127
1, 124171, Note_on_c, 10, 81, 127
1, 124171, Note_on_c, 7, 67, 127
1, 124171, Note_on_c, 10, 57, 127
1, 124276, Note_off_c, 10, 81, 127
1, 124301, Note_off_c, 10, 57, 127
1, 124301, Note_off_c, 7, 67, 127
1, 124302, Note_on_c, 4, 76, 127
1, 124302, Note_on_c, 6, 66, 127
1, 124302, Note_on_c, 12, 59, 127
1, 124366, Note_off_c, 4, 76, 127
1, 124367, Note_on_c, 3, 75, 127
1, 124431, Note_off_c, 3, 75, 127
1, 124431, Note_off_c, 6, 66, 127
1, 124432, Note_on_c, 4, 76, 127
1, 124432, Note_on_c, 7, 67, 127
1, 124496, Note_off_c, 4, 76, 127
1, 124497, Note_on_c, 3, 75, 127
1, 124561, Note_off_c, 3, 75, 127
1, 124561, Note_off_c, 7, 67, 127
1, 124562, Note_on_c, 4, 76, 127
1, 124562, Note_on_c, 6, 66, 127
1, 124626, Note_off_c, 4, 76, 127
1, 124627, Note_on_c, 3, 75, 127
1, 124691, Note_off_c, 3, 75, 127
1, 124691, Note_off_c, 6, 66, 127
1, 124692, Note_on_c, 1, 73, 127
1, 124692, Note_on_c, 4, 64, 127
1, 124822, Note_off_c, 4, 64, 127
1, 124822, Note_off_c, 1, 73, 127
1, 124823, Note_on_c, 12, 71, 127
1, 124823, Note_on_c, 6, 66, 127
1, 124953, Note_off_c, 6, 66, 127
1, 124954, Note_on_c, 3, 63, 127
1, 125084, Note_off_c, 3, 63, 127
1, 125085, Note_on_c, 4, 64, 127
1, 125215, Note_off_c, 4, 64, 127
1, 125216, Note_on_c, 6, 66, 127
1, 125346, Note_off_c, 6, 66, 127
1, 125346, Note_off_c, 12, 59, 127
1, 125347, Note_on_c, 10, 57, 127
1, 125396, Note_off_c, 12, 71, 127
1, 125478, Note_on_c, 12, 71, 127
1, 125608, Note_off_c, 12, 71, 127
1, 125609, Note_on_c, 1, 73, 127
1, 125739, Note_off_c, 1, 73, 127
1, 125740, Note_on_c, 3, 75, 127
1, 125870, Note_off_c, 3, 75, 127
1, 125871, Note_on_c, 3, 75, 127
1, 125871, Note_on_c, 6, 66, 127
1, 125935, Note_off_c, 3, 75, 127
1, 125936, Note_on_c, 1, 73, 127
1, 126000, Note_off_c, 1, 73, 127
1, 126001, Note_on_c, 3, 75, 127
1, 126065, Note_off_c, 3, 75, 127
1, 126066, Note_on_c, 1, 73, 127
1, 126130, Note_off_c, 1, 73, 127
1, 126131, Note_on_c, 3, 75, 127
1, 126195, Note_off_c, 3, 75, 127
1, 126196, Note_on_c, 1, 73, 127
1, 126260, Note_off_c, 1, 73, 127
1, 126261, Note_on_c, 12, 71, 127
1, 126391, Note_off_c, 12, 71, 127
1, 126391, Note_off_c, 6, 66, 127
1, 126391, Note_off_c, 10, 57, 127
1, 126392, Note_on_c, 4, 76, 127
1, 126392, Note_on_c, 7, 55, 127
1, 126523, Note_on_c, 12, 71, 127
1, 126556, Note_off_c, 4, 76, 127
1, 126653, Note_off_c, 12, 71, 127
1, 126654, Note_on_c, 0, 72, 127
1, 126784, Note_off_c, 0, 72, 127
1, 126785, Note_on_c, 2, 74, 127
1, 126916, Note_on_c, 4, 64, 127
1, 126981, Note_on_c, 0, 72, 127
1, 126989, Note_off_c, 2, 74, 127
1, 127045, Note_off_c, 0, 72, 127
1, 127046, Note_on_c, 2, 74, 127
1, 127110, Note_off_c, 2, 74, 127
1, 127111, Note_on_c, 0, 72, 127
1, 127175, Note_off_c, 0, 72, 127
1, 127176, Note_on_c, 2, 74, 127
1, 127240, Note_off_c, 2, 74, 127
1, 127241, Note_on_c, 0, 72, 127
1, 127305, Note_off_c, 0, 72, 127
1, 127306, Note_on_c, 12, 71, 127
1, 127436, Note_off_c, 12, 71, 127
1, 127436, Note_off_c, 7, 55, 127
1, 127437, Note_on_c, 6, 78, 127
1, 127437, Note_on_c, 6, 54, 127
1, 127568, Note_on_c, 10, 69, 127
1, 127601, Note_off_c, 6, 78, 127
1, 127698, Note_off_c, 10, 69, 127
1, 127699, Note_on_c, 12, 71, 127
1, 127829, Note_off_c, 12, 71, 127
1, 127830, Note_on_c, 0, 72, 127
1, 127960, Note_off_c, 4, 64, 127
1, 127961, Note_on_c, 3, 63, 127
1, 128026, Note_on_c, 12, 71, 127
1, 128034, Note_off_c, 0, 72, 127
1, 128090, Note_off_c, 12, 71, 127
1, 128091, Note_on_c, 0, 72, 127
1, 128155, Note_off_c, 0, 72, 127
1, 128156, Note_on_c, 12, 71, 127
1, 128220, Note_off_c, 12, 71, 127
1, 128221, Note_on_c, 0, 72, 127
1, 128285, Note_off_c, 0, 72, 127
1, 128286, Note_on_c, 12, 71, 127
1, 128350, Note_off_c, 12, 71, 127
1, 128351, Note_on_c, 10, 69, 127
1, 128476, Note_off_c, 3, 63, 127
1, 128480, Note_off_c, 10, 69, 127
1, 128480, Note_off_c, 6, 54, 127
1, 128481, Note_on_c, 7, 67, 127
1, 128481, Note_on_c, 4, 64, 127
1, 128612, Note_on_c, 4, 76, 127
1, 128742, Note_off_c, 4, 76, 127
1, 128743, Note_on_c, 6, 78, 127
1, 128743, Note_on_c, 12, 59, 127
1, 128873, Note_off_c, 6, 78, 127
1, 128874, Note_on_c, 7, 79, 127
1, 129004, Note_off_c, 7, 79, 127
1, 129004, Note_off_c, 12, 59, 127
1, 129005, Note_on_c, 7, 79, 127
1, 129005, Note_on_c, 7, 55, 127
1, 129069, Note_off_c, 7, 79, 127
1, 129070, Note_on_c, 6, 78, 127
1, 129134, Note_off_c, 6, 78, 127
1, 129135, Note_on_c, 7, 79, 127
1, 129199, Note_off_c, 7, 79, 127
1, 129200, Note_on_c, 6, 78, 127
1, 129264, Note_off_c, 6, 78, 127
1, 129265, Note_on_c, 7, 79, 127
1, 129329, Note_off_c, 7, 79, 127
1, 129330, Note_on_c, 6, 78, 127
1, 129394, Note_off_c, 6, 78, 127
1, 129394, Note_off_c, 7, 55, 127
1, 129395, Note_on_c, 4, 76, 127
1, 129395, Note_on_c, 12, 59, 127
1, 129525, Note_off_c, 12, 59, 127
1, 129525, Note_off_c, 4, 76, 127
1, 129525, Note_off_c, 4, 64, 127
1, 129525, Note_off_c, 7, 67, 127
1, 129526, Note_on_c, 11, 82, 127
1, 129526, Note_on_c, 1, 49, 127
1, 129657, Note_on_c, 4, 76, 127
1, 129787, Note_off_c, 4, 76, 127
1, 129788, Note_on_c, 6, 78, 127
1, 129918, Note_off_c, 6, 78, 127
1, 129918, Note_off_c, 1, 49, 127
1, 129919, Note_on_c, 7, 79, 127
1, 129919, Note_on_c, 4, 52, 127
1, 130049, Note_off_c, 4, 52, 127
1, 130050, Note_on_c, 11, 58, 127
1, 130115, Note_on_c, 6, 78, 127
1, 130123, Note_off_c, 7, 79, 127
1, 130179, Note_off_c, 6, 78, 127
1, 130180, Note_on_c, 7, 79, 127
1, 130244, Note_off_c, 7, 79, 127
1, 130245, Note_on_c, 6, 78, 127
1, 130309, Note_off_c, 6, 78, 127
1, 130310, Note_on_c, 7, 79, 127
1, 130374, Note_off_c, 7, 79, 127
1, 130375, Note_on_c, 6, 78, 127
1, 130439, Note_off_c, 6, 78, 127
1, 130439, Note_off_c, 11, 58, 127
1, 130440, Note_on_c, 4, 76, 127
1, 130440, Note_on_c, 6, 54, 127
1, 130570, Note_off_c, 6, 54, 127
1, 130570, Note_off_c, 4, 76, 127
1, 130570, Note_off_c, 11, 82, 127
1, 130571, Note_on_c, 3, 75, 127
1, 130571, Note_on_c, 0, 60, 127
1, 130702, Note_on_c, 10, 81, 127
1, 130832, Note_off_c, 10, 81, 127
1, 130833, Note_on_c, 7, 79, 127
1, 130963, Note_off_c, 7, 79, 127
1, 130964, Note_on_c, 6, 78, 127
1, 131094, Note_off_c, 6, 78, 127
1, 131094, Note_off_c, 0, 60, 127
1, 131095, Note_on_c, 7, 79, 127
1, 131095, Note_on_c, 0, 60, 127
1, 131158, Note_on_c, 12, 59, 127
1, 131159, Note_off_c, 0, 60, 127
1, 131220, Note_on_c, 0, 60, 127
1, 131221, Note_off_c, 12, 59, 127
1, 131282, Note_on_c, 12, 59, 127
1, 131283, Note_off_c, 0, 60, 127
1, 131344, Note_on_c, 0, 60, 127
1, 131345, Note_off_c, 12, 59, 127
1, 131353, Note_off_c, 3, 75, 127
1, 131406, Note_on_c, 12, 59, 127
1, 131407, Note_off_c, 0, 60, 127
1, 131470, Note_off_c, 12, 59, 127
1, 131485, Note_on_c, 4, 76, 127
1, 131485, Note_on_c, 10, 57, 127
1, 131615, Note_off_c, 10, 57, 127
1, 131615, Note_off_c, 4, 76, 127
1, 131616, Note_on_c, 0, 72, 127
1, 131616, Note_on_c, 12, 59, 127
1, 131746, Note_off_c, 0, 72, 127
1, 131747, Note_on_c, 12, 71, 127
1, 131877, Note_off_c, 12, 71, 127
1, 131878, Note_on_c, 10, 69, 127
1, 132138, Note_off_c, 12, 59, 127
1, 132138, Note_off_c, 7, 79, 127
1, 132139, Note_on_c, 6, 78, 127
1, 132139, Note_on_c, 12, 47, 127
1, 132530, Note_off_c, 6, 78, 127
1, 132531, Note_on_c, 3, 75, 127
1, 132661, Note_off_c, 3, 75, 127
1, 132661, Note_off_c, 12, 47, 127
1, 132661, Note_off_c, 10, 69, 127
1, 132662, Note_on_c, 3, 75, 127
1, 132662, Note_on_c, 10, 69, 127
1, 132662, Note_on_c, 12, 71, 127
1, 132662, Note_on_c, 4, 40, 127
1, 133184, Note_off_c, 10, 69, 127
1, 133184, Note_off_c, 3, 75, 127
1, 133211, Note_on_c, 8, 68, 127
1, 133211, Note_on_c, 4, 76, 127
1, 133725, Note_off_c, 12, 71, 127
1, 133764, Note_on_c, 12, 71, 127
1, 133771, Note_off_c, 4, 76, 127
1, 133771, Note_off_c, 8, 68, 127
1, 134026, Note_off_c, 4, 40, 127
1, 134062, Note_on_c, 4, 40, 127
1, 134062, Note_on_c, 2, 74, 127
1, 134063, Note_off_c, 12, 71, 127
1, 134192, Note_off_c, 2, 74, 127
1, 134193, Note_on_c, 0, 72, 127
1, 134323, Note_off_c, 0, 72, 127
1, 134323, Note_off_c, 4, 40, 127
1, 134324, Note_on_c, 8, 44, 127
1, 134324, Note_on_c, 12, 71, 127
1, 134454, Note_off_c, 12, 71, 127
1, 134455, Note_on_c, 0, 72, 127
1, 134585, Note_off_c, 0, 72, 127
1, 134585, Note_off_c, 8, 44, 127
1, 134586, Note_on_c, 12, 47, 127
1, 134586, Note_on_c, 2, 74, 127
1, 134846, Note_off_c, 2, 74, 127
1, 134846, Note_off_c, 12, 47, 127
1, 134847, Note_on_c, 4, 52, 127
1, 134847, Note_on_c, 8, 68, 127
1, 135107, Note_off_c, 8, 68, 127
1, 135108, Note_on_c, 10, 69, 127
1, 135238, Note_off_c, 10, 69, 127
1, 135239, Note_on_c, 12, 71, 127
1, 135369, Note_off_c, 12, 71, 127
1, 135370, Note_on_c, 8, 56, 127
1, 135370, Note_on_c, 4, 64, 127
1, 135630, Note_off_c, 4, 64, 127
1, 135631, Note_on_c, 8, 68, 127
1, 135761, Note_off_c, 8, 68, 127
1, 135762, Note_on_c, 12, 71, 127
1, 135892, Note_off_c, 12, 71, 127
1, 135892, Note_off_c, 8, 56, 127
1, 135893, Note_on_c, 12, 59, 127
1, 135893, Note_on_c, 2, 74, 127
1, 136153, Note_off_c, 2, 74, 127
1, 136154, Note_on_c, 0, 72, 127
1, 136284, Note_off_c, 0, 72, 127
1, 136285, Note_on_c, 12, 71, 127
1, 136413, Note_off_c, 4, 52, 127
1, 136414, Note_off_c, 12, 71, 127
1, 136414, Note_off_c, 12, 59, 127
1, 136415, Note_on_c, 8, 56, 127
1, 136415, Note_on_c, 4, 52, 127
1, 136415, Note_on_c, 5, 77, 127
1, 136675, Note_off_c, 5, 77, 127
1, 136676, Note_on_c, 4, 76, 127
1, 136806, Note_off_c, 4, 76, 127
1, 136807, Note_on_c, 2, 74, 127
1, 136937, Note_off_c, 2, 74, 127
1, 136937, Note_off_c, 4, 52, 127
1, 136937, Note_off_c, 8, 56, 127
1, 136938, Note_on_c, 10, 57, 127
1, 136938, Note_on_c, 0, 72, 127
1, 137002, Note_off_c, 10, 57, 127
1, 137003, Note_on_c, 8, 56, 127
1, 137067, Note_off_c, 8, 56, 127
1, 137068, Note_on_c, 10, 57, 127
1, 137199, Note_on_c, 2, 74, 127
1, 137329, Note_off_c, 2, 74, 127
1, 137330, Note_on_c, 4, 76, 127
1, 137455, Note_off_c, 0, 72, 127
1, 137459, Note_off_c, 4, 76, 127
1, 137460, Note_on_c, 10, 69, 127
1, 137590, Note_off_c, 10, 57, 127
1, 137591, Note_on_c, 12, 59, 127
1, 137721, Note_off_c, 12, 59, 127
1, 137722, Note_on_c, 10, 57, 127
1, 137852, Note_off_c, 10, 57, 127
1, 137853, Note_on_c, 8, 56, 127
1, 137983, Note_off_c, 8, 56, 127
1, 137984, Note_on_c, 10, 57, 127
1, 138114, Note_off_c, 10, 69, 127
1, 138115, Note_on_c, 12, 71, 127
1, 138245, Note_off_c, 12, 71, 127
1, 138246, Note_on_c, 0, 72, 127
1, 138376, Note_off_c, 0, 72, 127
1, 138376, Note_off_c, 10, 57, 127
1, 138377, Note_on_c, 4, 52, 127
1, 138377, Note_on_c, 2, 74, 127
1, 138507, Note_off_c, 2, 74, 127
1, 138507, Note_off_c, 4, 52, 127
1, 138508, Note_on_c, 0, 48, 127
1, 138508, Note_on_c, 4, 76, 127
1, 138638, Note_off_c, 4, 76, 127
1, 138639, Note_on_c, 5, 77, 127
1, 138769, Note_off_c, 5, 77, 127
1, 138770, Note_on_c, 7, 79, 127
1, 138900, Note_off_c, 0, 48, 127
1, 138901, Note_on_c, 4, 52, 127
1, 139031, Note_off_c, 4, 52, 127
1, 139031, Note_off_c, 7, 79, 127
1, 139032, Note_on_c, 10, 45, 127
1, 139032, Note_on_c, 1, 73, 127
1, 139292, Note_off_c, 1, 73, 127
1, 139293, Note_on_c, 2, 74, 127
1, 139423, Note_off_c, 2, 74, 127
1, 139424, Note_on_c, 4, 76, 127
1, 139554, Note_off_c, 4, 76, 127
1, 139555, Note_on_c, 1, 49, 127
1, 139555, Note_on_c, 10, 69, 127
1, 139815, Note_off_c, 10, 69, 127
1, 139816, Note_on_c, 1, 73, 127
1, 139946, Note_off_c, 1, 73, 127
1, 139947, Note_on_c, 4, 76, 127
1, 140077, Note_off_c, 4, 76, 127
1, 140077, Note_off_c, 1, 49, 127
1, 140078, Note_on_c, 4, 52, 127
1, 140078, Note_on_c, 7, 79, 127
1, 140338, Note_off_c, 7, 79, 127
1, 140339, Note_on_c, 5, 77, 127
1, 140469, Note_off_c, 5, 77, 127
1, 140470, Note_on_c, 4, 76, 127
1, 140598, Note_off_c, 10, 45, 127
1, 140599, Note_off_c, 4, 76, 127
1, 140599, Note_off_c, 4, 52, 127
1, 140600, Note_on_c, 1, 49, 127
1, 140600, Note_on_c, 10, 45, 127
1, 140600, Note_on_c, 11, 82, 127
1, 140860, Note_off_c, 11, 82, 127
1, 140861, Note_on_c, 10, 81, 127
1, 140991, Note_off_c, 10, 81, 127
1, 140992, Note_on_c, 7, 79, 127
1, 141122, Note_off_c, 7, 79, 127
1, 141122, Note_off_c, 10, 45, 127
1, 141122, Note_off_c, 1, 49, 127
1, 141123, Note_on_c, 2, 50, 127
1, 141123, Note_on_c, 5, 77, 127
1, 141383, Note_off_c, 5, 77, 127
1, 141384, Note_on_c, 7, 79, 127
1, 141514, Note_off_c, 7, 79, 127
1, 141515, Note_on_c, 10, 81, 127
1, 141646, Note_on_c, 2, 74, 127
1, 141776, Note_off_c, 2, 50, 127
1, 141777, Note_on_c, 5, 53, 127
1, 141907, Note_off_c, 5, 53, 127
1, 141908, Note_on_c, 4, 52, 127
1, 142038, Note_off_c, 4, 52, 127
1, 142039, Note_on_c, 2, 50, 127
1, 142169, Note_off_c, 2, 50, 127
1, 142170, Note_on_c, 11, 58, 127
1, 142300, Note_off_c, 2, 74, 127
1, 142300, Note_off_c, 10, 81, 127
1, 142301, Note_on_c, 5, 77, 127
1, 142431, Note_off_c, 5, 77, 127
1, 142432, Note_on_c, 4, 76, 127
1, 142562, Note_off_c, 4, 76, 127
1, 142562, Note_off_c, 11, 58, 127
1, 142563, Note_on_c, 10, 57, 127
1, 142563, Note_on_c, 2, 74, 127
1, 142693, Note_off_c, 10, 57, 127
1, 142694, Note_on_c, 11, 58, 127
1, 142694, Note_on_c, 7, 79, 127
1, 142824, Note_off_c, 7, 79, 127
1, 142825, Note_on_c, 10, 81, 127
1, 142955, Note_off_c, 10, 81, 127
1, 142956, Note_on_c, 11, 82, 127
1, 143081, Note_off_c, 2, 74, 127
1, 143085, Note_off_c, 11, 58, 127
1, 143086, Note_on_c, 7, 55, 127
1, 143216, Note_off_c, 7, 55, 127
1, 143217, Note_on_c, 0, 60, 127
1, 143217, Note_on_c, 4, 76, 127
1, 143473, Note_off_c, 11, 82, 127
1, 143477, Note_off_c, 4, 76, 127
1, 143478, Note_on_c, 5, 77, 127
1, 143608, Note_off_c, 5, 77, 127
1, 143609, Note_on_c, 7, 79, 127
1, 143739, Note_off_c, 7, 79, 127
1, 143740, Note_on_c, 0, 72, 127
1, 143870, Note_off_c, 0, 60, 127
1, 143871, Note_on_c, 4, 52, 127
1, 144001, Note_off_c, 4, 52, 127
1, 144002, Note_on_c, 2, 50, 127
1, 144132, Note_off_c, 2, 50, 127
1, 144133, Note_on_c, 0, 48, 127
1, 144263, Note_off_c, 0, 48, 127
1, 144264, Note_on_c, 10, 57, 127
1, 144394, Note_off_c, 0, 72, 127
1, 144395, Note_on_c, 4, 76, 127
1, 144525, Note_off_c, 4, 76, 127
1, 144526, Note_on_c, 2, 74, 127
1, 144656, Note_off_c, 2, 74, 127
1, 144656, Note_off_c, 10, 57, 127
1, 144657, Note_on_c, 7, 55, 127
1, 144657, Note_on_c, 0, 72, 127
1, 144787, Note_off_c, 7, 55, 127
1, 144788, Note_on_c, 10, 57, 127
1, 144788, Note_on_c, 5, 77, 127
1, 144918, Note_off_c, 5, 77, 127
1, 144919, Note_on_c, 7, 79, 127
1, 145049, Note_off_c, 7, 79, 127
1, 145050, Note_on_c, 10, 81, 127
1, 145175, Note_off_c, 0, 72, 127
1, 145179, Note_off_c, 10, 57, 127
1, 145180, Note_on_c, 5, 53, 127
1, 145310, Note_off_c, 5, 53, 127
1, 145311, Note_on_c, 11, 58, 127
1, 145311, Note_on_c, 2, 74, 127
1, 145567, Note_off_c, 10, 81, 127
1, 145571, Note_off_c, 2, 74, 127
1, 145572, Note_on_c, 4, 76, 127
1, 145702, Note_off_c, 4, 76, 127
1, 145703, Note_on_c, 5, 77, 127
1, 145833, Note_off_c, 5, 77, 127
1, 145834, Note_on_c, 11, 70, 127
1, 145964, Note_off_c, 11, 58, 127
1, 145965, Note_on_c, 10, 57, 127
1, 146095, Note_off_c, 10, 57, 127
1, 146096, Note_on_c, 7, 55, 127
1, 146226, Note_off_c, 7, 55, 127
1, 146227, Note_on_c, 5, 53, 127
1, 146357, Note_off_c, 5, 53, 127
1, 146358, Note_on_c, 4, 52, 127
1, 146488, Note_off_c, 11, 70, 127
1, 146489, Note_on_c, 2, 74, 127
1, 146619, Note_off_c, 2, 74, 127
1, 146620, Note_on_c, 0, 72, 127
1, 146750, Note_off_c, 0, 72, 127
1, 146750, Note_off_c, 4, 52, 127
1, 146751, Note_on_c, 5, 53, 127
1, 146751, Note_on_c, 11, 70, 127
1, 146881, Note_off_c, 5, 53, 127
1, 146882, Note_on_c, 7, 55, 127
1, 146882, Note_on_c, 4, 76, 127
1, 147012, Note_off_c, 4, 76, 127
1, 147013, Note_on_c, 5, 77, 127
1, 147143, Note_off_c, 5, 77, 127
1, 147144, Note_on_c, 7, 79, 127
1, 147269, Note_off_c, 11, 70, 127
1, 147273, Note_off_c, 7, 55, 127
1, 147274, Note_on_c, 4, 52, 127
1, 147404, Note_off_c, 4, 52, 127
1, 147404, Note_off_c, 7, 79, 127
1, 147405, Note_on_c, 1, 61, 127
1, 147405, Note_on_c, 10, 69, 127
1, 147536, Note_on_c, 7, 79, 127
1, 147666, Note_off_c, 7, 79, 127
1, 147667, Note_on_c, 5, 77, 127
1, 147797, Note_off_c, 5, 77, 127
1, 147798, Note_on_c, 4, 76, 127
1, 147928, Note_off_c, 4, 76, 127
1, 147928, Note_off_c, 1, 61, 127
1, 147929, Note_on_c, 2, 62, 127
1, 147929, Note_on_c, 5, 77, 127
1, 148320, Note_off_c, 5, 77, 127
1, 148321, Note_on_c, 2, 74, 127
1, 148451, Note_off_c, 2, 62, 127
1, 148451, Note_off_c, 10, 69, 127
1, 148452, Note_on_c, 10, 57, 127
1, 148452, Note_on_c, 7, 67, 127
1, 148703, Note_off_c, 2, 74, 127
1, 148714, Note_on_c, 1, 73, 127
1, 148844, Note_off_c, 1, 73, 127
1, 148845, Note_on_c, 2, 74, 127
1, 148975, Note_off_c, 2, 74, 127
1, 148976, Note_on_c, 10, 45, 127
1, 148976, Note_on_c, 4, 76, 127
1, 149106, Note_off_c, 4, 76, 127
1, 149107, Note_on_c, 2, 74, 127
1, 149237, Note_off_c, 2, 74, 127
1, 149238, Note_on_c, 1, 73, 127
1, 149498, Note_off_c, 1, 73, 127
1, 149498, Note_off_c, 10, 45, 127
1, 149498, Note_off_c, 7, 67, 127
1, 149499, Note_on_c, 2, 50, 127
1, 149499, Note_on_c, 2, 74, 127
1, 149630, Note_on_c, 7, 67, 127
1, 149760, Note_off_c, 7, 67, 127
1, 149761, Note_on_c, 5, 65, 127
1, 149891, Note_off_c, 5, 65, 127
1, 149892, Note_on_c, 4, 64, 127
1, 150020, Note_off_c, 10, 57, 127
1, 150021, Note_off_c, 4, 64, 127
1, 150022, Note_on_c, 10, 57, 127
1, 150022, Note_on_c, 5, 65, 127
1, 150142, Note_off_c, 2, 74, 127
1, 150152, Note_off_c, 5, 65, 127
1, 150153, Note_on_c, 7, 67, 127
1, 150283, Note_off_c, 7, 67, 127
1, 150284, Note_on_c, 10, 69, 127
1, 150414, Note_off_c, 10, 69, 127
1, 150415, Note_on_c, 5, 65, 127
1, 150545, Note_off_c, 5, 65, 127
1, 150545, Note_off_c, 10, 57, 127
1, 150545, Note_off_c, 2, 50, 127
1, 150546, Note_on_c, 5, 53, 127
1, 150546, Note_on_c, 2, 62, 127
1, 150676, Note_off_c, 2, 62, 127
1, 150677, Note_on_c, 5, 65, 127
1, 150807, Note_off_c, 5, 65, 127
1, 150808, Note_on_c, 10, 69, 127
1, 150938, Note_off_c, 10, 69, 127
1, 150939, Note_on_c, 12, 71, 127
1, 151069, Note_off_c, 12, 71, 127
1, 151069, Note_off_c, 5, 53, 127
1, 151070, Note_on_c, 2, 50, 127
1, 151070, Note_on_c, 0, 72, 127
1, 151200, Note_off_c, 0, 72, 127
1, 151201, Note_on_c, 12, 71, 127
1, 151331, Note_off_c, 12, 71, 127
1, 151332, Note_on_c, 10, 69, 127
1, 151462, Note_off_c, 10, 69, 127
1, 151463, Note_on_c, 0, 72, 127
1, 151593, Note_off_c, 0, 72, 127
1, 151593, Note_off_c, 2, 50, 127
1, 151594, Note_on_c, 7, 55, 127
1, 151594, Note_on_c, 12, 71, 127
1, 151724, Note_off_c, 12, 71, 127
1, 151725, Note_on_c, 10, 69, 127
1, 151855, Note_off_c, 10, 69, 127
1, 151856, Note_on_c, 7, 67, 127
1, 151986, Note_off_c, 7, 67, 127
1, 151987, Note_on_c, 6, 66, 127
1, 152117, Note_off_c, 6, 66, 127
1, 152118, Note_on_c, 2, 50, 127
1, 152118, Note_on_c, 7, 67, 127
1, 152248, Note_off_c, 7, 67, 127
1, 152249, Note_on_c, 12, 71, 127
1, 152379, Note_off_c, 12, 71, 127
1, 152380, Note_on_c, 2, 74, 127
1, 152510, Note_off_c, 2, 74, 127
1, 152511, Note_on_c, 4, 76, 127
1, 152641, Note_off_c, 4, 76, 127
1, 152641, Note_off_c, 2, 50, 127
1, 152642, Note_on_c, 12, 47, 127
1, 152642, Note_on_c, 5, 77, 127
1, 152904, Note_on_c, 0, 72, 127
1, 153164, Note_off_c, 0, 72, 127
1, 153164, Note_off_c, 12, 47, 127
1, 153165, Note_on_c, 7, 43, 127
1, 153165, Note_on_c, 2, 74, 127
1, 153556, Note_off_c, 2, 74, 127
1, 153557, Note_on_c, 12, 71, 127
1, 153680, Note_off_c, 7, 55, 127
1, 153687, Note_off_c, 12, 71, 127
1, 153687, Note_off_c, 7, 43, 127
1, 153687, Note_off_c, 5, 77, 127
1, 153688, Note_on_c, 0, 48, 127
1, 153688, Note_on_c, 7, 67, 127
1, 153819, Note_on_c, 5, 77, 127
1, 153949, Note_off_c, 5, 77, 127
1, 153950, Note_on_c, 4, 76, 127
1, 154080, Note_off_c, 4, 76, 127
1, 154081, Note_on_c, 2, 74, 127
1, 154211, Note_off_c, 2, 74, 127
1, 154212, Note_on_c, 4, 76, 127
1, 154603, Note_off_c, 4, 76, 127
1, 154604, Note_on_c, 0, 72, 127
1, 154734, Note_off_c, 0, 72, 127
1, 154734, Note_off_c, 7, 67, 127
1, 154735, Note_on_c, 10, 69, 127
1, 154866, Note_on_c, 7, 67, 127
1, 154996, Note_off_c, 7, 67, 127
1, 154997, Note_off_c, 0, 48, 127
1, 154997, Note_on_c, 5, 65, 127
1, 155127, Note_off_c, 5, 65, 127
1, 155128, Note_on_c, 1, 49, 127
1, 155128, Note_on_c, 4, 64, 127
1, 155258, Note_off_c, 4, 64, 127
1, 155258, Note_off_c, 1, 49, 127
1, 155259, Note_on_c, 2, 50, 127
1, 155259, Note_on_c, 5, 65, 127
1, 155650, Note_off_c, 5, 65, 127
1, 155650, Note_off_c, 2, 50, 127
1, 155651, Note_on_c, 4, 52, 127
1, 155651, Note_on_c, 2, 62, 127
1, 155781, Note_off_c, 2, 62, 127
1, 155781, Note_off_c, 4, 52, 127
1, 155781, Note_off_c, 10, 69, 127
1, 155782, Note_on_c, 5, 53, 127
1, 155782, Note_on_c, 12, 59, 127
1, 155913, Note_on_c, 8, 68, 127
1, 156043, Note_off_c, 8, 68, 127
1, 156044, Note_on_c, 10, 69, 127
1, 156174, Note_off_c, 10, 69, 127
1, 156175, Note_on_c, 12, 71, 127
1, 156300, Note_off_c, 12, 59, 127
1, 156304, Note_off_c, 12, 71, 127
1, 156304, Note_off_c, 5, 53, 127
1, 156305, Note_on_c, 8, 44, 127
1, 156305, Note_on_c, 4, 64, 127
1, 156436, Note_on_c, 2, 74, 127
1, 156566, Note_off_c, 2, 74, 127
1, 156567, Note_on_c, 0, 72, 127
1, 156697, Note_off_c, 0, 72, 127
1, 156698, Note_on_c, 12, 71, 127
1, 156828, Note_off_c, 12, 71, 127
1, 156828, Note_off_c, 8, 44, 127
1, 156829, Note_on_c, 10, 45, 127
1, 156829, Note_on_c, 0, 72, 127
1, 156905, Note_off_c, 4, 64, 127
1, 156960, Note_on_c, 10, 69, 127
1, 157090, Note_off_c, 10, 69, 127
1, 157091, Note_on_c, 12, 71, 127
1, 157211, Note_off_c, 0, 72, 127
1, 157221, Note_off_c, 12, 71, 127
1, 157222, Note_on_c, 0, 72, 127
1, 157352, Note_off_c, 10, 45, 127
1, 157353, Note_on_c, 6, 42, 127
1, 157353, Note_on_c, 3, 63, 127
1, 157481, Note_off_c, 0, 72, 127
1, 157484, Note_on_c, 0, 72, 127
1, 157614, Note_off_c, 0, 72, 127
1, 157615, Note_on_c, 12, 71, 127
1, 157745, Note_off_c, 12, 71, 127
1, 157746, Note_on_c, 10, 69, 127
1, 157871, Note_off_c, 3, 63, 127
1, 157875, Note_off_c, 10, 69, 127
1, 157875, Note_off_c, 6, 42, 127
1, 157876, Note_on_c, 4, 40, 127
1, 157876, Note_on_c, 8, 68, 127
1, 158007, Note_on_c, 12, 47, 127
1, 158137, Note_off_c, 12, 47, 127
1, 158138, Note_on_c, 0, 48, 127
1, 158258, Note_off_c, 4, 40, 127
1, 158268, Note_off_c, 0, 48, 127
1, 158269, Note_on_c, 2, 50, 127
1, 158394, Note_off_c, 8, 68, 127
1, 158398, Note_off_c, 2, 50, 127
1, 158399, Note_on_c, 4, 52, 127
1, 158530, Note_on_c, 5, 65, 127
1, 158660, Note_off_c, 5, 65, 127
1, 158661, Note_on_c, 4, 64, 127
1, 158791, Note_off_c, 4, 64, 127
1, 158792, Note_on_c, 2, 62, 127
1, 158922, Note_off_c, 2, 62, 127
1, 158923, Note_on_c, 6, 54, 127
1, 158923, Note_on_c, 10, 69, 127
1, 159054, Note_on_c, 5, 65, 127
1, 159184, Note_off_c, 5, 65, 127
1, 159185, Note_on_c, 4, 64, 127
1, 159315, Note_off_c, 4, 64, 127
1, 159316, Note_on_c, 2, 62, 127
1, 159441, Note_off_c, 10, 69, 127
1, 159445, Note_off_c, 2, 62, 127
1, 159445, Note_off_c, 6, 54, 127
1, 159446, Note_on_c, 8, 56, 127
1, 159446, Note_on_c, 12, 71, 127
1, 159577, Note_on_c, 5, 65, 127
1, 159707, Note_off_c, 5, 65, 127
1, 159708, Note_on_c, 4, 64, 127
1, 159838, Note_off_c, 4, 64, 127
1, 159839, Note_on_c, 2, 62, 127
1, 159969, Note_off_c, 2, 62, 127
1, 159969, Note_off_c, 8, 56, 127
1, 159970, Note_on_c, 10, 57, 127
1, 159970, Note_on_c, 0, 60, 127
1, 160070, Note_off_c, 12, 71, 127
1, 160101, Note_on_c, 10, 69, 127
1, 160231, Note_off_c, 10, 69, 127
1, 160232, Note_on_c, 12, 71, 127
1, 160362, Note_off_c, 12, 71, 127
1, 160363, Note_on_c, 0, 72, 127
1, 160486, Note_off_c, 4, 52, 127
1, 160493, Note_off_c, 0, 72, 127
1, 160493, Note_off_c, 10, 57, 127
1, 160494, Note_on_c, 4, 52, 127
1, 160494, Note_on_c, 0, 72, 127
1, 160558, Note_off_c, 0, 72, 127
1, 160559, Note_on_c, 12, 71, 127
1, 160623, Note_off_c, 12, 71, 127
1, 160624, Note_on_c, 0, 72, 127
1, 160688, Note_off_c, 0, 72, 127
1, 160689, Note_on_c, 12, 71, 127
1, 160753, Note_off_c, 12, 71, 127
1, 160754, Note_on_c, 0, 72, 127
1, 160818, Note_off_c, 0, 72, 127
1, 160819, Note_on_c, 12, 71, 127
1, 160883, Note_off_c, 12, 71, 127
1, 160884, Note_on_c, 10, 69, 127
1, 161014, Note_off_c, 10, 69, 127
1, 161014, Note_off_c, 0, 60, 127
1, 161015, Note_on_c, 2, 62, 127
1, 161015, Note_on_c, 12, 59, 127
1, 161015, Note_on_c, 8, 68, 127
1, 161145, Note_off_c, 8, 68, 127
1, 161146, Note_on_c, 12, 71, 127
1, 161276, Note_off_c, 12, 71, 127
1, 161277, Note_on_c, 0, 72, 127
1, 161407, Note_off_c, 0, 72, 127
1, 161408, Note_on_c, 2, 74, 127
1, 161538, Note_off_c, 4, 52, 127
1, 161539, Note_on_c, 4, 52, 127
1, 161604, Note_on_c, 0, 72, 127
1, 161612, Note_off_c, 2, 74, 127
1, 161668, Note_off_c, 0, 72, 127
1, 161669, Note_on_c, 2, 74, 127
1, 161733, Note_off_c, 2, 74, 127
1, 161734, Note_on_c, 0, 72, 127
1, 161798, Note_off_c, 0, 72, 127
1, 161799, Note_on_c, 2, 74, 127
1, 161863, Note_off_c, 2, 74, 127
1, 161864, Note_on_c, 0, 72, 127
1, 161928, Note_off_c, 0, 72, 127
1, 161929, Note_on_c, 12, 71, 127
1, 162059, Note_off_c, 12, 71, 127
1, 162059, Note_off_c, 12, 59, 127
1, 162059, Note_off_c, 2, 62, 127
1, 162060, Note_on_c, 4, 64, 127
1, 162060, Note_on_c, 0, 60, 127
1, 162060, Note_on_c, 10, 69, 127
1, 162190, Note_off_c, 10, 69, 127
1, 162191, Note_on_c, 4, 76, 127
1, 162321, Note_off_c, 4, 76, 127
1, 162322, Note_on_c, 6, 78, 127
1, 162452, Note_off_c, 6, 78, 127
1, 162453, Note_on_c, 7, 79, 127
1, 162583, Note_off_c, 4, 52, 127
1, 162584, Note_on_c, 10, 57, 127
1, 162649, Note_on_c, 6, 78, 127
1, 162657, Note_off_c, 7, 79, 127
1, 162713, Note_off_c, 6, 78, 127
1, 162714, Note_on_c, 7, 79, 127
1, 162778, Note_off_c, 7, 79, 127
1, 162779, Note_on_c, 6, 78, 127
1, 162843, Note_off_c, 6, 78, 127
1, 162844, Note_on_c, 7, 79, 127
1, 162908, Note_off_c, 7, 79, 127
1, 162909, Note_on_c, 6, 78, 127
1, 162973, Note_off_c, 6, 78, 127
1, 162974, Note_on_c, 4, 76, 127
1, 163104, Note_off_c, 4, 76, 127
1, 163104, Note_off_c, 10, 57, 127
1, 163104, Note_off_c, 0, 60, 127
1, 163104, Note_off_c, 4, 64, 127
1, 163105, Note_on_c, 6, 54, 127
1, 163105, Note_on_c, 3, 75, 127
1, 163236, Note_on_c, 10, 81, 127
1, 163366, Note_off_c, 10, 81, 127
1, 163367, Note_on_c, 12, 83, 127
1, 163497, Note_off_c, 12, 83, 127
1, 163497, Note_off_c, 6, 54, 127
1, 163498, Note_on_c, 10, 57, 127
1, 163498, Note_on_c, 0, 84, 127
1, 163628, Note_off_c, 0, 84, 127
1, 163628, Note_off_c, 10, 57, 127
1, 163629, Note_on_c, 8, 56, 127
1, 163629, Note_on_c, 12, 83, 127
1, 163759, Note_off_c, 12, 83, 127
1, 163760, Note_on_c, 10, 81, 127
1, 163890, Note_off_c, 10, 81, 127
1, 163891, Note_on_c, 8, 80, 127
1, 164021, Note_off_c, 8, 80, 127
1, 164022, Note_on_c, 5, 53, 127
1, 164022, Note_on_c, 10, 81, 127
1, 164134, Note_off_c, 8, 56, 127
1, 164152, Note_off_c, 10, 81, 127
1, 164152, Note_off_c, 3, 75, 127
1, 164169, Note_on_c, 2, 74, 127
1, 164169, Note_on_c, 12, 47, 127
1, 164299, Note_off_c, 2, 74, 127
1, 164300, Note_on_c, 5, 77, 127
1, 164430, Note_off_c, 5, 77, 127
1, 164431, Note_on_c, 4, 76, 127
1, 164540, Note_off_c, 5, 53, 127
1, 164560, Note_off_c, 4, 76, 127
1, 164561, Note_on_c, 2, 74, 127
1, 164691, Note_off_c, 2, 74, 127
1, 164691, Note_off_c, 12, 47, 127
1, 164692, Note_on_c, 4, 76, 127
1, 164692, Note_on_c, 4, 52, 127
1, 164692, Note_on_c, 0, 48, 127
1, 164692, Note_on_c, 10, 57, 127
1, 164822, Note_off_c, 4, 76, 127
1, 164823, Note_on_c, 12, 71, 127
1, 164953, Note_off_c, 12, 71, 127
1, 164954, Note_on_c, 0, 72, 127
1, 165084, Note_off_c, 0, 72, 127
1, 165084, Note_off_c, 0, 48, 127
1, 165085, Note_on_c, 10, 69, 127
1, 165085, Note_on_c, 2, 50, 127
1, 165210, Note_off_c, 10, 57, 127
1, 165210, Note_off_c, 4, 52, 127
1, 165214, Note_off_c, 2, 50, 127
1, 165214, Note_off_c, 10, 69, 127
1, 165215, Note_on_c, 4, 64, 127
1, 165215, Note_on_c, 4, 52, 127
1, 165496, Note_on_c, 10, 69, 127
1, 165771, Note_off_c, 4, 64, 127
1, 165775, Note_off_c, 10, 69, 127
1, 165775, Note_off_c, 4, 52, 127
1, 165776, Note_on_c, 12, 71, 127
1, 165776, Note_on_c, 2, 62, 127
1, 165776, Note_on_c, 4, 40, 127
1, 166196, Note_off_c, 12, 71, 127
1, 166197, Note_on_c, 8, 68, 127
1, 166332, Note_off_c, 2, 62, 127
1, 166336, Note_off_c, 8, 68, 127
1, 166336, Note_off_c, 4, 40, 127
1, 166337, Note_on_c, 4, 64, 127
1, 166337, Note_on_c, 8, 68, 127
1, 166337, Note_on_c, 2, 62, 127
1, 166337, Note_on_c, 10, 33, 127
1, 166337, Note_on_c, 10, 45, 127
1, 166994, Note_off_c, 2, 62, 127
1, 166994, Note_off_c, 8, 68, 127
1, 167012, Note_on_c, 0, 60, 127
1, 167012, Note_on_c, 10, 69, 127
1, 169212, Note_off_c, 10, 69, 127
1, 169212, Note_off_c, 0, 60, 127
1, 169237, Note_off_c, 4, 64, 127
1, 169337, Note_off_c, 10, 45, 127
1, 169337, Note_off_c, 10, 33, 127
1, 169707, Note_on_c, 2, 74, 127
1, 169849, Note_off_c, 2, 74, 127
1, 169851, Note_on_c, 0, 72, 127
1, 169993, Note_off_c, 0, 72, 127
1, 169995, Note_on_c, 12, 71, 127
1, 170137, Note_off_c, 12, 71, 127
1, 170139, Note_on_c, 10, 45, 127
1, 170139, Note_on_c, 0, 72, 127
1, 170499, Note_off_c, 0, 72, 127
1, 170559, Note_off_c, 10, 45, 127
1, 170571, Note_on_c, 4, 76, 127
1, 170713, Note_off_c, 4, 76, 127
1, 170715, Note_on_c, 0, 48, 127
1, 170715, Note_on_c, 10, 81, 127
1, 171075, Note_off_c, 10, 81, 127
1, 171135, Note_off_c, 0, 48, 127
1, 171147, Note_on_c, 4, 76, 127
1, 171289, Note_off_c, 4, 76, 127
1, 171291, Note_on_c, 4, 52, 127
1, 171291, Note_on_c, 12, 83, 127
1, 171651, Note_off_c, 12, 83, 127
1, 171711, Note_off_c, 4, 52, 127
1, 171723, Note_on_c, 2, 74, 127
1, 171865, Note_off_c, 2, 74, 127
1, 171867, Note_on_c, 0, 72, 127
1, 172009, Note_off_c, 0, 72, 127
1, 172011, Note_on_c, 8, 56, 127
1, 172011, Note_on_c, 4, 76, 127
1, 172153, Note_off_c, 4, 76, 127
1, 172153, Note_off_c, 8, 56, 127
1, 172155, Note_on_c, 10, 57, 127
1, 172155, Note_on_c, 6, 78, 127
1, 172297, Note_off_c, 6, 78, 127
1, 172297, Note_off_c, 10, 57, 127
1, 172299, Note_on_c, 12, 59, 127
1, 172299, Note_on_c, 8, 80, 127
1, 172441, Note_off_c, 8, 80, 127
1, 172441, Note_off_c, 12, 59, 127
1, 172443, Note_on_c, 0, 60, 127
1, 172443, Note_on_c, 10, 81, 127
1, 172585, Note_off_c, 0, 60, 127
1, 172587, Note_on_c, 4, 64, 127
1, 172728, Note_off_c, 10, 81, 127
1, 172730, Note_off_c, 4, 64, 127
1, 172732, Note_on_c, 2, 62, 127
1, 172874, Note_off_c, 2, 62, 127
1, 172876, Note_on_c, 4, 64, 127
1, 172876, Note_on_c, 4, 76, 127
1, 173018, Note_off_c, 4, 76, 127
1, 173018, Note_off_c, 4, 64, 127
1, 173020, Note_on_c, 8, 56, 127
1, 173020, Note_on_c, 12, 83, 127
1, 173162, Note_off_c, 8, 56, 127
1, 173164, Note_on_c, 4, 64, 127
1, 173305, Note_off_c, 12, 83, 127
1, 173307, Note_off_c, 4, 64, 127
1, 173309, Note_on_c, 2, 62, 127
1, 173451, Note_off_c, 2, 62, 127
1, 173453, Note_on_c, 4, 64, 127
1, 173453, Note_on_c, 2, 74, 127
1, 173595, Note_off_c, 2, 74, 127
1, 173595, Note_off_c, 4, 64, 127
1, 173597, Note_on_c, 10, 57, 127
1, 173597, Note_on_c, 0, 72, 127
1, 173739, Note_off_c, 0, 72, 127
1, 173739, Note_off_c, 10, 57, 127
1, 173741, Note_on_c, 0, 60, 127
1, 173741, Note_on_c, 10, 69, 127
1, 173883, Note_off_c, 10, 69, 127
1, 173883, Note_off_c, 0, 60, 127
1, 173885, Note_on_c, 2, 62, 127
1, 173885, Note_on_c, 12, 71, 127
1, 174027, Note_off_c, 12, 71, 127
1, 174027, Note_off_c, 2, 62, 127
1, 174029, Note_on_c, 4, 64, 127
1, 174029, Note_on_c, 0, 72, 127
1, 174171, Note_off_c, 0, 72, 127
1, 174171, Note_off_c, 4, 64, 127
1, 174173, Note_on_c, 5, 65, 127
1, 174173, Note_on_c, 2, 74, 127
1, 174315, Note_off_c, 2, 74, 127
1, 174317, Note_on_c, 4, 76, 127
1, 174459, Note_off_c, 4, 76, 127
1, 174461, Note_on_c, 5, 77, 127
1, 174591, Note_off_c, 5, 65, 127
1, 174603, Note_off_c, 5, 77, 127
1, 174605, Note_on_c, 8, 56, 127
1, 174605, Note_on_c, 4, 76, 127
1, 174747, Note_off_c, 4, 76, 127
1, 174747, Note_off_c, 8, 56, 127
1, 174749, Note_on_c, 10, 57, 127
1, 174749, Note_on_c, 2, 74, 127
1, 174891, Note_off_c, 2, 74, 127
1, 174893, Note_on_c, 0, 72, 127
1, 175035, Note_off_c, 0, 72, 127
1, 175037, Note_on_c, 12, 71, 127
1, 175167, Note_off_c, 10, 57, 127
1, 175179, Note_off_c, 12, 71, 127
1, 175181, Note_on_c, 5, 53, 127
1, 175181, Note_on_c, 10, 69, 127
1, 175323, Note_off_c, 10, 69, 127
1, 175323, Note_off_c, 5, 53, 127
1, 175325, Note_on_c, 4, 52, 127
1, 175325, Note_on_c, 8, 68, 127
1, 175467, Note_off_c, 8, 68, 127
1, 175469, Note_on_c, 10, 69, 127
1, 175611, Note_off_c, 10, 69, 127
1, 175613, Note_on_c, 12, 71, 127
1, 175755, Note_off_c, 12, 71, 127
1, 175757, Note_on_c, 8, 68, 127
1, 175899, Note_off_c, 8, 68, 127
1, 175901, Note_on_c, 4, 64, 127
1, 176015, Note_off_c, 4, 52, 127
1, 176045, Note_on_c, 8, 56, 127
1, 176187, Note_off_c, 8, 56, 127
1, 176189, Note_on_c, 12, 59, 127
1, 176331, Note_off_c, 12, 59, 127
1, 176333, Note_on_c, 8, 56, 127
1, 176475, Note_off_c, 8, 56, 127
1, 176477, Note_on_c, 4, 52, 127
1, 176619, Note_off_c, 4, 52, 127
1, 176621, Note_off_c, 4, 64, 127
1, 176621, Note_on_c, 8, 56, 127
1, 176763, Note_off_c, 8, 56, 127
1, 176765, Note_on_c, 2, 50, 127
1, 176907, Note_off_c, 2, 50, 127
1, 176909, Note_on_c, 8, 56, 127
1, 177039, Note_off_c, 8, 56, 127
1, 177053, Note_on_c, 0, 48, 127
1, 177197, Note_on_c, 2, 62, 127
1, 177339, Note_off_c, 2, 62, 127
1, 177341, Note_on_c, 0, 60, 127
1, 177471, Note_off_c, 0, 48, 127
1, 177483, Note_off_c, 0, 60, 127
1, 177485, Note_on_c, 4, 52, 127
1, 177485, Note_on_c, 12, 59, 127
1, 177627, Note_off_c, 12, 59, 127
1, 177627, Note_off_c, 4, 52, 127
1, 177629, Note_on_c, 10, 45, 127
1, 177629, Note_on_c, 0, 60, 127
1, 177771, Note_off_c, 0, 60, 127
1, 177773, Note_on_c, 10, 57, 127
1, 177915, Note_off_c, 10, 57, 127
1, 177917, Note_on_c, 0, 60, 127
1, 178055, Note_off_c, 10, 45, 127
1, 178059, Note_off_c, 0, 60, 127
1, 178061, Note_on_c, 12, 47, 127
1, 178061, Note_on_c, 4, 64, 127
1, 178203, Note_off_c, 4, 64, 127
1, 178203, Note_off_c, 12, 47, 127
1, 178205, Note_on_c, 0, 48, 127
1, 178205, Note_on_c, 10, 69, 127
1, 178347, Note_off_c, 10, 69, 127
1, 178349, Note_on_c, 8, 68, 127
1, 178491, Note_off_c, 8, 68, 127
1, 178493, Note_on_c, 6, 66, 127
1, 178631, Note_off_c, 0, 48, 127
1, 178635, Note_off_c, 6, 66, 127
1, 178637, Note_on_c, 4, 52, 127
1, 178637, Note_on_c, 4, 64, 127
1, 178779, Note_off_c, 4, 64, 127
1, 178779, Note_off_c, 4, 52, 127
1, 178781, Note_on_c, 10, 57, 127
1, 178781, Note_on_c, 0, 72, 127
1, 178923, Note_off_c, 0, 72, 127
1, 178925, Note_on_c, 12, 71, 127
1, 179067, Note_off_c, 12, 71, 127
1, 179069, Note_on_c, 10, 69, 127
1, 179141, Note_off_c, 10, 57, 127
1, 179211, Note_off_c, 10, 69, 127
1, 179213, Note_on_c, 10, 45, 127
1, 179213, Note_on_c, 7, 67, 127
1, 179355, Note_off_c, 7, 67, 127
1, 179355, Note_off_c, 10, 45, 127
1, 179357, Note_on_c, 2, 50, 127
1, 179357, Note_on_c, 5, 65, 127
1, 179499, Note_off_c, 5, 65, 127
1, 179501, Note_on_c, 2, 62, 127
1, 179643, Note_off_c, 2, 62, 127
1, 179645, Note_on_c, 5, 65, 127
1, 179783, Note_off_c, 2, 50, 127
1, 179787, Note_off_c, 5, 65, 127
1, 179789, Note_on_c, 4, 52, 127
1, 179789, Note_on_c, 10, 69, 127
1, 179931, Note_off_c, 10, 69, 127
1, 179931, Note_off_c, 4, 52, 127
1, 179933, Note_on_c, 5, 53, 127
1, 179933, Note_on_c, 2, 74, 127
1, 180075, Note_off_c, 2, 74, 127
1, 180077, Note_on_c, 1, 73, 127
1, 180219, Note_off_c, 1, 73, 127
1, 180221, Note_on_c, 12, 71, 127
1, 180359, Note_off_c, 5, 53, 127
1, 180363, Note_off_c, 12, 71, 127
1, 180365, Note_on_c, 10, 57, 127
1, 180365, Note_on_c, 10, 69, 127
1, 180507, Note_off_c, 10, 69, 127
1, 180507, Note_off_c, 10, 57, 127
1, 180509, Note_on_c, 2, 62, 127
1, 180509, Note_on_c, 5, 77, 127
1, 180651, Note_off_c, 5, 77, 127
1, 180653, Note_on_c, 4, 76, 127
1, 180795, Note_off_c, 4, 76, 127
1, 180797, Note_on_c, 2, 74, 127
1, 180869, Note_off_c, 2, 62, 127
1, 180939, Note_off_c, 2, 74, 127
1, 180941, Note_on_c, 2, 50, 127
1, 180941, Note_on_c, 0, 72, 127
1, 181083, Note_off_c, 0, 72, 127
1, 181083, Note_off_c, 2, 50, 127
1, 181085, Note_on_c, 7, 55, 127
1, 181085, Note_on_c, 12, 71, 127
1, 181227, Note_off_c, 12, 71, 127
1, 181229, Note_on_c, 7, 67, 127
1, 181371, Note_off_c, 7, 67, 127
1, 181373, Note_on_c, 12, 71, 127
1, 181511, Note_off_c, 7, 55, 127
1, 181515, Note_off_c, 12, 71, 127
1, 181517, Note_on_c, 10, 57, 127
1, 181517, Note_on_c, 2, 74, 127
1, 181659, Note_off_c, 2, 74, 127
1, 181659, Note_off_c, 10, 57, 127
1, 181661, Note_on_c, 12, 59, 127
1, 181661, Note_on_c, 7, 79, 127
1, 181803, Note_off_c, 7, 79, 127
1, 181805, Note_on_c, 6, 78, 127
1, 181947, Note_off_c, 6, 78, 127
1, 181949, Note_on_c, 4, 76, 127
1, 182087, Note_off_c, 12, 59, 127
1, 182091, Note_off_c, 4, 76, 127
1, 182093, Note_on_c, 2, 62, 127
1, 182093, Note_on_c, 2, 74, 127
1, 182235, Note_off_c, 2, 74, 127
1, 182235, Note_off_c, 2, 62, 127
1, 182237, Note_on_c, 7, 67, 127
1, 182237, Note_on_c, 12, 83, 127
1, 182379, Note_off_c, 12, 83, 127
1, 182381, Note_on_c, 10, 81, 127
1, 182523, Note_off_c, 10, 81, 127
1, 182525, Note_on_c, 7, 79, 127
1, 182627, Note_off_c, 7, 67, 127
1, 182667, Note_off_c, 7, 79, 127
1, 182669, Note_on_c, 7, 55, 127
1, 182669, Note_on_c, 5, 77, 127
1, 182811, Note_off_c, 5, 77, 127
1, 182811, Note_off_c, 7, 55, 127
1, 182813, Note_on_c, 0, 60, 127
1, 182813, Note_on_c, 4, 76, 127
1, 182955, Note_off_c, 4, 76, 127
1, 182957, Note_on_c, 0, 72, 127
1, 183099, Note_off_c, 0, 72, 127
1, 183101, Note_on_c, 4, 76, 127
1, 183239, Note_off_c, 0, 60, 127
1, 183243, Note_off_c, 4, 76, 127
1, 183245, Note_on_c, 2, 62, 127
1, 183245, Note_on_c, 7, 79, 127
1, 183387, Note_off_c, 7, 79, 127
1, 183387, Note_off_c, 2, 62, 127
1, 183389, Note_on_c, 4, 64, 127
1, 183389, Note_on_c, 0, 84, 127
1, 183531, Note_off_c, 0, 84, 127
1, 183533, Note_on_c, 12, 83, 127
1, 183675, Note_off_c, 12, 83, 127
1, 183677, Note_on_c, 10, 81, 127
1, 183807, Note_off_c, 4, 64, 127
1, 183819, Note_off_c, 10, 81, 127
1, 183821, Note_on_c, 0, 60, 127
1, 183821, Note_on_c, 7, 79, 127
1, 183963, Note_off_c, 7, 79, 127
1, 183963, Note_off_c, 0, 60, 127
1, 183965, Note_on_c, 5, 65, 127
1, 183965, Note_on_c, 10, 81, 127
1, 184383, Note_off_c, 10, 81, 127
1, 184397, Note_on_c, 5, 53, 127
1, 184397, Note_on_c, 2, 74, 127
1, 184535, Note_off_c, 5, 65, 127
1, 184539, Note_off_c, 2, 74, 127
1, 184539, Note_off_c, 5, 53, 127
1, 184541, Note_on_c, 5, 65, 127
1, 184541, Note_on_c, 4, 76, 127
1, 184683, Note_off_c, 4, 76, 127
1, 184685, Note_on_c, 2, 74, 127
1, 184827, Note_off_c, 2, 74, 127
1, 184829, Note_on_c, 1, 73, 127
1, 184971, Note_off_c, 1, 73, 127
1, 184973, Note_on_c, 5, 53, 127
1, 184973, Note_on_c, 2, 74, 127
1, 185111, Note_off_c, 5, 65, 127
1, 185115, Note_off_c, 2, 74, 127
1, 185115, Note_off_c, 5, 53, 127
1, 185117, Note_on_c, 5, 65, 127
1, 185117, Note_on_c, 4, 76, 127
1, 185259, Note_off_c, 4, 76, 127
1, 185261, Note_on_c, 2, 74, 127
1, 185403, Note_off_c, 2, 74, 127
1, 185405, Note_on_c, 1, 73, 127
1, 185547, Note_off_c, 1, 73, 127
1, 185549, Note_on_c, 2, 74, 127
1, 185691, Note_off_c, 2, 74, 127
1, 185693, Note_on_c, 7, 79, 127
1, 185777, Note_off_c, 5, 65, 127
1, 185837, Note_on_c, 2, 62, 127
1, 185979, Note_off_c, 2, 62, 127
1, 185981, Note_on_c, 4, 64, 127
1, 186111, Note_off_c, 7, 79, 127
1, 186123, Note_off_c, 4, 64, 127
1, 186125, Note_on_c, 5, 65, 127
1, 186125, Note_on_c, 12, 71, 127
1, 186267, Note_off_c, 12, 71, 127
1, 186267, Note_off_c, 5, 65, 127
1, 186269, Note_on_c, 4, 64, 127
1, 186269, Note_on_c, 0, 72, 127
1, 186411, Note_off_c, 4, 64, 127
1, 186413, Note_on_c, 2, 62, 127
1, 186555, Note_off_c, 2, 62, 127
1, 186557, Note_on_c, 0, 60, 127
1, 186699, Note_off_c, 0, 60, 127
1, 186701, Note_on_c, 12, 59, 127
1, 186843, Note_off_c, 12, 59, 127
1, 186845, Note_on_c, 10, 57, 127
1, 186987, Note_off_c, 10, 57, 127
1, 186989, Note_on_c, 7, 55, 127
1, 187131, Note_off_c, 7, 55, 127
1, 187133, Note_on_c, 5, 53, 127
1, 187275, Note_off_c, 5, 53, 127
1, 187277, Note_on_c, 4, 52, 127
1, 187419, Note_off_c, 4, 52, 127
1, 187421, Note_on_c, 2, 50, 127
1, 187739, Note_off_c, 0, 72, 127
1, 187853, Note_on_c, 2, 38, 127
1, 187853, Note_on_c, 12, 71, 127
1, 187991, Note_off_c, 2, 50, 127
1, 187995, Note_off_c, 12, 71, 127
1, 187995, Note_off_c, 2, 38, 127
1, 187997, Note_on_c, 2, 50, 127
1, 187997, Note_on_c, 0, 72, 127
1, 188139, Note_off_c, 0, 72, 127
1, 188141, Note_on_c, 12, 71, 127
1, 188283, Note_off_c, 12, 71, 127
1, 188285, Note_on_c, 10, 69, 127
1, 188427, Note_off_c, 10, 69, 127
1, 188429, Note_on_c, 2, 38, 127
1, 188429, Note_on_c, 12, 71, 127
1, 188567, Note_off_c, 2, 50, 127
1, 188571, Note_off_c, 12, 71, 127
1, 188571, Note_off_c, 2, 38, 127
1, 188573, Note_on_c, 2, 50, 127
1, 188573, Note_on_c, 0, 72, 127
1, 188715, Note_off_c, 0, 72, 127
1, 188717, Note_on_c, 12, 71, 127
1, 188859, Note_off_c, 12, 71, 127
1, 188861, Note_on_c, 10, 69, 127
1, 189003, Note_off_c, 10, 69, 127
1, 189005, Note_on_c, 12, 71, 127
1, 189147, Note_off_c, 12, 71, 127
1, 189149, Note_on_c, 4, 76, 127
1, 189233, Note_off_c, 2, 50, 127
1, 189293, Note_on_c, 12, 47, 127
1, 189435, Note_off_c, 12, 47, 127
1, 189437, Note_on_c, 0, 48, 127
1, 189567, Note_off_c, 4, 76, 127
1, 189579, Note_off_c, 0, 48, 127
1, 189581, Note_on_c, 2, 50, 127
1, 189581, Note_on_c, 8, 68, 127
1, 189723, Note_off_c, 8, 68, 127
1, 189723, Note_off_c, 2, 50, 127
1, 189725, Note_on_c, 0, 48, 127
1, 189725, Note_on_c, 10, 69, 127
1, 189867, Note_off_c, 0, 48, 127
1, 189869, Note_on_c, 12, 47, 127
1, 190011, Note_off_c, 12, 47, 127
1, 190013, Note_on_c, 10, 45, 127
1, 190155, Note_off_c, 10, 45, 127
1, 190157, Note_on_c, 7, 43, 127
1, 190299, Note_off_c, 7, 43, 127
1, 190301, Note_on_c, 5, 41, 127
1, 190443, Note_off_c, 5, 41, 127
1, 190445, Note_on_c, 4, 40, 127
1, 190587, Note_off_c, 4, 40, 127
1, 190589, Note_on_c, 2, 38, 127
1, 190731, Note_off_c, 2, 38, 127
1, 190733, Note_on_c, 0, 36, 127
1, 190875, Note_off_c, 0, 36, 127
1, 190877, Note_on_c, 12, 35, 127
1, 190925, Note_off_c, 10, 69, 127
1, 191021, Note_on_c, 2, 74, 127
1, 191163, Note_off_c, 2, 74, 127
1, 191165, Note_on_c, 4, 76, 127
1, 191295, Note_off_c, 12, 35, 127
1, 191307, Note_off_c, 4, 76, 127
1, 191309, Note_on_c, 8, 44, 127
1, 191309, Note_on_c, 5, 77, 127
1, 191451, Note_off_c, 5, 77, 127
1, 191451, Note_off_c, 8, 44, 127
1, 191453, Note_on_c, 10, 45, 127
1, 191453, Note_on_c, 4, 76, 127
1, 191595, Note_off_c, 4, 76, 127
1, 191597, Note_on_c, 2, 74, 127
1, 191739, Note_off_c, 2, 74, 127
1, 191741, Note_on_c, 0, 72, 127
1, 191871, Note_off_c, 10, 45, 127
1, 191883, Note_off_c, 0, 72, 127
1, 191885, Note_on_c, 0, 36, 127
1, 191885, Note_on_c, 12, 71, 127
1, 192027, Note_off_c, 12, 71, 127
1, 192027, Note_off_c, 0, 36, 127
1, 192029, Note_on_c, 5, 41, 127
1, 192029, Note_on_c, 10, 69, 127
1, 192171, Note_off_c, 10, 69, 127
1, 192173, Note_on_c, 8, 68, 127
1, 192315, Note_off_c, 8, 68, 127
1, 192317, Note_on_c, 10, 69, 127
1, 192447, Note_off_c, 5, 41, 127
1, 192459, Note_off_c, 10, 69, 127
1, 192461, Note_on_c, 2, 38, 127
1, 192461, Note_on_c, 12, 71, 127
1, 192603, Note_off_c, 12, 71, 127
1, 192603, Note_off_c, 2, 38, 127
1, 192605, Note_on_c, 4, 40, 127
1, 192605, Note_on_c, 4, 64, 127
1, 192749, Note_on_c, 12, 71, 127
1, 192785, Note_off_c, 4, 64, 127
1, 192891, Note_off_c, 12, 71, 127
1, 192893, Note_on_c, 8, 68, 127
1, 193035, Note_off_c, 8, 68, 127
1, 193037, Note_on_c, 5, 65, 127
1, 193179, Note_off_c, 5, 65, 127
1, 193179, Note_off_c, 4, 40, 127
1, 193181, Note_on_c, 4, 64, 127
1, 193325, Note_on_c, 0, 72, 127
1, 193369, Note_off_c, 4, 64, 127
1, 193468, Note_off_c, 0, 72, 127
1, 193470, Note_on_c, 10, 69, 127
1, 193612, Note_off_c, 10, 69, 127
1, 193614, Note_on_c, 10, 57, 127
1, 193614, Note_on_c, 5, 65, 127
1, 193756, Note_off_c, 5, 65, 127
1, 193756, Note_off_c, 10, 57, 127
1, 193758, Note_on_c, 8, 56, 127
1, 193758, Note_on_c, 4, 64, 127
1, 193902, Note_on_c, 2, 74, 127
1, 193953, Note_off_c, 4, 64, 127
1, 194045, Note_off_c, 2, 74, 127
1, 194047, Note_on_c, 12, 71, 127
1, 194177, Note_off_c, 8, 56, 127
1, 194189, Note_off_c, 12, 71, 127
1, 194191, Note_on_c, 2, 62, 127
1, 194191, Note_on_c, 5, 65, 127
1, 194333, Note_off_c, 5, 65, 127
1, 194333, Note_off_c, 2, 62, 127
1, 194335, Note_on_c, 0, 60, 127
1, 194335, Note_on_c, 4, 64, 127
1, 194479, Note_on_c, 0, 72, 127
1, 194537, Note_off_c, 4, 64, 127
1, 194621, Note_off_c, 0, 72, 127
1, 194623, Note_on_c, 10, 69, 127
1, 194755, Note_off_c, 0, 60, 127
1, 194765, Note_off_c, 10, 69, 127
1, 194767, Note_on_c, 5, 65, 127
1, 194909, Note_off_c, 5, 65, 127
1, 194911, Note_on_c, 4, 64, 127
1, 195055, Note_on_c, 12, 71, 127
1, 195121, Note_off_c, 4, 64, 127
1, 195197, Note_off_c, 12, 71, 127
1, 195199, Note_on_c, 8, 68, 127
1, 195341, Note_off_c, 8, 68, 127
1, 195343, Note_on_c, 12, 59, 127
1, 195343, Note_on_c, 5, 65, 127
1, 195485, Note_off_c, 5, 65, 127
1, 195485, Note_off_c, 12, 59, 127
1, 195487, Note_on_c, 0, 60, 127
1, 195487, Note_on_c, 4, 64, 127
1, 195631, Note_on_c, 0, 72, 127
1, 195705, Note_off_c, 4, 64, 127
1, 195774, Note_off_c, 0, 72, 127
1, 195776, Note_on_c, 10, 69, 127
1, 195906, Note_off_c, 0, 60, 127
1, 195918, Note_off_c, 10, 69, 127
1, 195920, Note_on_c, 10, 57, 127
1, 195920, Note_on_c, 5, 65, 127
1, 196062, Note_off_c, 5, 65, 127
1, 196062, Note_off_c, 10, 57, 127
1, 196064, Note_on_c, 8, 56, 127
1, 196064, Note_on_c, 4, 64, 127
1, 196208, Note_on_c, 2, 74, 127
1, 196289, Note_off_c, 4, 64, 127
1, 196351, Note_off_c, 2, 74, 127
1, 196353, Note_on_c, 12, 71, 127
1, 196485, Note_off_c, 8, 56, 127
1, 196495, Note_off_c, 12, 71, 127
1, 196497, Note_on_c, 5, 65, 127
1, 196639, Note_off_c, 5, 65, 127
1, 196641, Note_on_c, 4, 64, 127
1, 196785, Note_on_c, 0, 72, 127
1, 196873, Note_off_c, 4, 64, 127
1, 196927, Note_off_c, 0, 72, 127
1, 196929, Note_on_c, 10, 69, 127
1, 197071, Note_off_c, 10, 69, 127
1, 197073, Note_on_c, 10, 57, 127
1, 197073, Note_on_c, 5, 65, 127
1, 197215, Note_off_c, 5, 65, 127
1, 197215, Note_off_c, 10, 57, 127
1, 197217, Note_on_c, 8, 56, 127
1, 197217, Note_on_c, 4, 64, 127
1, 197359, Note_off_c, 8, 56, 127
1, 197361, Note_on_c, 2, 62, 127
1, 197361, Note_on_c, 12, 71, 127
1, 197457, Note_off_c, 4, 64, 127
1, 197503, Note_off_c, 12, 71, 127
1, 197503, Note_off_c, 2, 62, 127
1, 197505, Note_on_c, 12, 59, 127
1, 197505, Note_on_c, 8, 68, 127
1, 197647, Note_off_c, 8, 68, 127
1, 197647, Note_off_c, 12, 59, 127
1, 197649, Note_on_c, 8, 56, 127
1, 197649, Note_on_c, 5, 65, 127
1, 197791, Note_off_c, 5, 65, 127
1, 197791, Note_off_c, 8, 56, 127
1, 197793, Note_on_c, 10, 57, 127
1, 197793, Note_on_c, 4, 64, 127
1, 197935, Note_off_c, 10, 57, 127
1, 197937, Note_on_c, 0, 60, 127
1, 198079, Note_off_c, 0, 60, 127
1, 198081, Note_on_c, 10, 57, 127
1, 198223, Note_off_c, 10, 57, 127
1, 198225, Note_on_c, 4, 52, 127
1, 198367, Note_off_c, 4, 52, 127
1, 198367, Note_off_c, 4, 64, 127
1, 198369, Note_on_c, 7, 55, 127
1, 198369, Note_on_c, 0, 72, 127
1, 198439, Note_off_c, 0, 72, 127
1, 198439, Note_off_c, 7, 55, 127
1, 198441, Note_on_c, 5, 53, 127
1, 198441, Note_on_c, 2, 74, 127
1, 198511, Note_off_c, 2, 74, 127
1, 198511, Note_off_c, 5, 53, 127
1, 198513, Note_on_c, 7, 55, 127
1, 198513, Note_on_c, 4, 76, 127
1, 198583, Note_off_c, 4, 76, 127
1, 198583, Note_off_c, 7, 55, 127
1, 198585, Note_on_c, 5, 53, 127
1, 198585, Note_on_c, 2, 74, 127
1, 198655, Note_off_c, 2, 74, 127
1, 198655, Note_off_c, 5, 53, 127
1, 198657, Note_on_c, 7, 55, 127
1, 198657, Note_on_c, 4, 76, 127
1, 198727, Note_off_c, 4, 76, 127
1, 198727, Note_off_c, 7, 55, 127
1, 198729, Note_on_c, 5, 53, 127
1, 198729, Note_on_c, 2, 74, 127
1, 198799, Note_off_c, 2, 74, 127
1, 198799, Note_off_c, 5, 53, 127
1, 198801, Note_on_c, 4, 52, 127
1, 198801, Note_on_c, 4, 76, 127
1, 198871, Note_off_c, 4, 76, 127
1, 198871, Note_off_c, 4, 52, 127
1, 198873, Note_on_c, 5, 53, 127
1, 198873, Note_on_c, 2, 74, 127
1, 198943, Note_off_c, 2, 74, 127
1, 198943, Note_off_c, 5, 53, 127
1, 198945, Note_on_c, 7, 55, 127
1, 198945, Note_on_c, 4, 76, 127
1, 199015, Note_off_c, 4, 76, 127
1, 199015, Note_off_c, 7, 55, 127
1, 199017, Note_on_c, 5, 53, 127
1, 199017, Note_on_c, 2, 74, 127
1, 199087, Note_off_c, 2, 74, 127
1, 199087, Note_off_c, 5, 53, 127
1, 199089, Note_on_c, 7, 55, 127
1, 199089, Note_on_c, 4, 76, 127
1, 199159, Note_off_c, 4, 76, 127
1, 199159, Note_off_c, 7, 55, 127
1, 199161, Note_on_c, 5, 53, 127
1, 199161, Note_on_c, 2, 74, 127
1, 199231, Note_off_c, 2, 74, 127
1, 199231, Note_off_c, 5, 53, 127
1, 199233, Note_on_c, 7, 55, 127
1, 199233, Note_on_c, 4, 76, 127
1, 199303, Note_off_c, 4, 76, 127
1, 199303, Note_off_c, 7, 55, 127
1, 199305, Note_on_c, 5, 53, 127
1, 199305, Note_on_c, 2, 74, 127
1, 199375, Note_off_c, 2, 74, 127
1, 199375, Note_off_c, 5, 53, 127
1, 199377, Note_on_c, 7, 55, 127
1, 199377, Note_on_c, 0, 72, 127
1, 199447, Note_off_c, 0, 72, 127
1, 199447, Note_off_c, 7, 55, 127
1, 199449, Note_on_c, 5, 53, 127
1, 199449, Note_on_c, 2, 74, 127
1, 199519, Note_off_c, 2, 74, 127
1, 199519, Note_off_c, 5, 53, 127
1, 199521, Note_on_c, 4, 52, 127
1, 199521, Note_on_c, 4, 76, 127
1, 199663, Note_off_c, 4, 52, 127
1, 199681, Note_on_c, 8, 56, 127
1, 199823, Note_off_c, 8, 56, 127
1, 199825, Note_on_c, 12, 59, 127
1, 199967, Note_off_c, 12, 59, 127
1, 199969, Note_on_c, 8, 56, 127
1, 200111, Note_off_c, 8, 56, 127
1, 200113, Note_on_c, 4, 52, 127
1, 200239, Note_off_c, 4, 76, 127
1, 200257, Note_on_c, 2, 74, 127
1, 200399, Note_off_c, 2, 74, 127
1, 200401, Note_on_c, 0, 72, 127
1, 200543, Note_off_c, 0, 72, 127
1, 200545, Note_on_c, 12, 71, 127
1, 200545, Note_on_c, 8, 56, 127
1, 200687, Note_off_c, 8, 56, 127
1, 200687, Note_off_c, 12, 71, 127
1, 200689, Note_on_c, 0, 72, 127
1, 200689, Note_on_c, 10, 57, 127
1, 200831, Note_off_c, 0, 72, 127
1, 200833, Note_on_c, 4, 76, 127
1, 200975, Note_off_c, 4, 76, 127
1, 200977, Note_on_c, 0, 72, 127
1, 201107, Note_off_c, 10, 57, 127
1, 201119, Note_off_c, 0, 72, 127
1, 201121, Note_on_c, 10, 69, 127
1, 201121, Note_on_c, 0, 60, 127
1, 201263, Note_off_c, 0, 60, 127
1, 201263, Note_off_c, 10, 69, 127
1, 201265, Note_on_c, 8, 68, 127
1, 201265, Note_on_c, 12, 59, 127
1, 201343, Note_off_c, 4, 52, 127
1, 201407, Note_off_c, 8, 68, 127
1, 201409, Note_on_c, 12, 71, 127
1, 201409, Note_on_c, 8, 56, 127
1, 201550, Note_off_c, 12, 59, 127
1, 201552, Note_off_c, 8, 56, 127
1, 201552, Note_off_c, 12, 71, 127
1, 201554, Note_on_c, 8, 68, 127
1, 201554, Note_on_c, 12, 59, 127
1, 201696, Note_off_c, 8, 68, 127
1, 201698, Note_on_c, 4, 64, 127
1, 201698, Note_on_c, 8, 56, 127
1, 201839, Note_off_c, 12, 59, 127
1, 201841, Note_off_c, 8, 56, 127
1, 201841, Note_off_c, 4, 64, 127
1, 201843, Note_on_c, 2, 62, 127
1, 201843, Note_on_c, 4, 52, 127
1, 201985, Note_off_c, 2, 62, 127
1, 201987, Note_on_c, 5, 65, 127
1, 202129, Note_off_c, 5, 65, 127
1, 202131, Note_on_c, 4, 64, 127
1, 202273, Note_off_c, 4, 64, 127
1, 202275, Note_on_c, 2, 62, 127
1, 202275, Note_on_c, 8, 56, 127
1, 202417, Note_off_c, 8, 56, 127
1, 202417, Note_off_c, 2, 62, 127
1, 202419, Note_on_c, 0, 60, 127
1, 202419, Note_on_c, 10, 57, 127
1, 202561, Note_off_c, 0, 60, 127
1, 202563, Note_on_c, 4, 64, 127
1, 202705, Note_off_c, 4, 64, 127
1, 202707, Note_on_c, 0, 60, 127
1, 202837, Note_off_c, 10, 57, 127
1, 202847, Note_off_c, 4, 52, 127
1, 202849, Note_off_c, 0, 60, 127
1, 202851, Note_on_c, 10, 57, 127
1, 202851, Note_on_c, 6, 54, 127
1, 202993, Note_off_c, 6, 54, 127
1, 202993, Note_off_c, 10, 57, 127
1, 202995, Note_on_c, 8, 56, 127
1, 202995, Note_on_c, 4, 52, 127
1, 203139, Note_on_c, 12, 59, 127
1, 203283, Note_on_c, 4, 64, 127
1, 203571, Note_on_c, 4, 40, 127
1, 204000, Note_off_c, 8, 56, 127
1, 204002, Note_off_c, 12, 59, 127
1, 204004, Note_off_c, 4, 64, 127
1, 204146, Note_off_c, 4, 52, 127
1, 204292, Note_off_c, 4, 40, 127
1, 204292, Note_on_c, 12, 71, 127
1, 204434, Note_off_c, 12, 71, 127
1, 204436, Note_on_c, 0, 72, 127
1, 204578, Note_off_c, 0, 72, 127
1, 204580, Note_on_c, 10, 69, 127
1, 204722, Note_off_c, 10, 69, 127
1, 204724, Note_on_c, 8, 68, 127
1, 204724, Note_on_c, 4, 40, 127
1, 205114, Note_off_c, 8, 68, 127
1, 205144, Note_off_c, 4, 40, 127
1, 205156, Note_on_c, 4, 64, 127
1, 205298, Note_off_c, 4, 64, 127
1, 205300, Note_on_c, 12, 71, 127
1, 205300, Note_on_c, 4, 52, 127
1, 205690, Note_off_c, 12, 71, 127
1, 205720, Note_off_c, 4, 52, 127
1, 205732, Note_on_c, 2, 62, 127
1, 205874, Note_off_c, 2, 62, 127
1, 205876, Note_on_c, 4, 64, 127
1, 205876, Note_on_c, 8, 56, 127
1, 206266, Note_off_c, 4, 64, 127
1, 206296, Note_off_c, 8, 56, 127
1, 206308, Note_on_c, 12, 59, 127
1, 206450, Note_off_c, 12, 59, 127
1, 206452, Note_on_c, 0, 60, 127
1, 206594, Note_off_c, 0, 60, 127
1, 206596, Note_on_c, 4, 64, 127
1, 206596, Note_on_c, 8, 56, 127
1, 206738, Note_off_c, 8, 56, 127
1, 206738, Note_off_c, 4, 64, 127
1, 206740, Note_on_c, 5, 65, 127
1, 206740, Note_on_c, 10, 57, 127
1, 206882, Note_off_c, 10, 57, 127
1, 206882, Note_off_c, 5, 65, 127
1, 206884, Note_on_c, 2, 62, 127
1, 206884, Note_on_c, 12, 59, 127
1, 207026, Note_off_c, 12, 59, 127
1, 207026, Note_off_c, 2, 62, 127
1, 207028, Note_on_c, 4, 64, 127
1, 207028, Note_on_c, 0, 60, 127
1, 207170, Note_off_c, 0, 60, 127
1, 207172, Note_on_c, 4, 52, 127
1, 207314, Note_off_c, 4, 52, 127
1, 207316, Note_on_c, 2, 50, 127
1, 207446, Note_off_c, 4, 64, 127
1, 207458, Note_off_c, 2, 50, 127
1, 207460, Note_on_c, 10, 69, 127
1, 207460, Note_on_c, 0, 48, 127
1, 207602, Note_off_c, 0, 48, 127
1, 207602, Note_off_c, 10, 69, 127
1, 207604, Note_on_c, 8, 68, 127
1, 207604, Note_on_c, 12, 47, 127
1, 207746, Note_off_c, 12, 47, 127
1, 207748, Note_on_c, 2, 50, 127
1, 207890, Note_off_c, 2, 50, 127
1, 207892, Note_on_c, 0, 48, 127
1, 208022, Note_off_c, 8, 68, 127
1, 208034, Note_off_c, 0, 48, 127
1, 208036, Note_on_c, 2, 74, 127
1, 208036, Note_on_c, 12, 47, 127
1, 208178, Note_off_c, 12, 47, 127
1, 208178, Note_off_c, 2, 74, 127
1, 208180, Note_on_c, 0, 72, 127
1, 208180, Note_on_c, 10, 45, 127
1, 208322, Note_off_c, 0, 72, 127
1, 208324, Note_on_c, 4, 76, 127
1, 208466, Note_off_c, 4, 76, 127
1, 208468, Note_on_c, 10, 81, 127
1, 208598, Note_off_c, 10, 45, 127
1, 208610, Note_off_c, 10, 81, 127
1, 208612, Note_on_c, 7, 79, 127
1, 208612, Note_on_c, 0, 48, 127
1, 208754, Note_off_c, 0, 48, 127
1, 208754, Note_off_c, 7, 79, 127
1, 208756, Note_on_c, 5, 77, 127
1, 208756, Note_on_c, 2, 50, 127
1, 208898, Note_off_c, 5, 77, 127
1, 208900, Note_on_c, 4, 76, 127
1, 209042, Note_off_c, 4, 76, 127
1, 209044, Note_on_c, 2, 74, 127
1, 209174, Note_off_c, 2, 50, 127
1, 209186, Note_off_c, 2, 74, 127
1, 209188, Note_on_c, 0, 72, 127
1, 209188, Note_on_c, 5, 53, 127
1, 209330, Note_off_c, 5, 53, 127
1, 209330, Note_off_c, 0, 72, 127
1, 209332, Note_on_c, 12, 71, 127
1, 209332, Note_on_c, 8, 56, 127
1, 209474, Note_off_c, 12, 71, 127
1, 209476, Note_on_c, 10, 69, 127
1, 209618, Note_off_c, 10, 69, 127
1, 209620, Note_on_c, 8, 68, 127
1, 209750, Note_off_c, 8, 56, 127
1, 209762, Note_off_c, 8, 68, 127
1, 209764, Note_on_c, 6, 66, 127
1, 209764, Note_on_c, 12, 59, 127
1, 209906, Note_off_c, 12, 59, 127
1, 209906, Note_off_c, 6, 66, 127
1, 209908, Note_on_c, 4, 64, 127
1, 210052, Note_on_c, 2, 74, 127
1, 210052, Note_on_c, 4, 52, 127
1, 210193, Note_off_c, 4, 64, 127
1, 210195, Note_off_c, 4, 52, 127
1, 210195, Note_off_c, 2, 74, 127
1, 210197, Note_on_c, 0, 72, 127
1, 210197, Note_on_c, 6, 54, 127
1, 210339, Note_off_c, 6, 54, 127
1, 210339, Note_off_c, 0, 72, 127
1, 210341, Note_on_c, 12, 71, 127
1, 210341, Note_on_c, 8, 56, 127
1, 210483, Note_off_c, 8, 56, 127
1, 210483, Note_off_c, 12, 71, 127
1, 210485, Note_on_c, 0, 72, 127
1, 210485, Note_on_c, 10, 57, 127
1, 210555, Note_off_c, 0, 72, 127
1, 210557, Note_on_c, 12, 71, 127
1, 210627, Note_off_c, 12, 71, 127
1, 210627, Note_off_c, 10, 57, 127
1, 210629, Note_on_c, 0, 72, 127
1, 210629, Note_on_c, 0, 60, 127
1, 210771, Note_off_c, 0, 60, 127
1, 210773, Note_on_c, 4, 64, 127
1, 210915, Note_off_c, 4, 64, 127
1, 210917, Note_on_c, 0, 60, 127
1, 211059, Note_off_c, 0, 60, 127
1, 211061, Note_on_c, 10, 57, 127
1, 211203, Note_off_c, 10, 57, 127
1, 211205, Note_on_c, 0, 60, 127
1, 211347, Note_off_c, 0, 60, 127
1, 211349, Note_on_c, 7, 55, 127
1, 211491, Note_off_c, 7, 55, 127
1, 211493, Note_on_c, 0, 60, 127
1, 211635, Note_off_c, 0, 60, 127
1, 211637, Note_on_c, 5, 53, 127
1, 211779, Note_off_c, 0, 72, 127
1, 211781, Note_on_c, 12, 71, 127
1, 211923, Note_off_c, 12, 71, 127
1, 211925, Note_on_c, 10, 69, 127
1, 212067, Note_off_c, 10, 69, 127
1, 212069, Note_on_c, 7, 67, 127
1, 212211, Note_off_c, 7, 67, 127
1, 212213, Note_on_c, 10, 69, 127
1, 212297, Note_off_c, 5, 53, 127
1, 212355, Note_off_c, 10, 69, 127
1, 212357, Note_on_c, 5, 65, 127
1, 212357, Note_on_c, 4, 52, 127
1, 212499, Note_off_c, 4, 52, 127
1, 212499, Note_off_c, 5, 65, 127
1, 212501, Note_on_c, 10, 69, 127
1, 212501, Note_on_c, 2, 50, 127
1, 212643, Note_off_c, 2, 50, 127
1, 212643, Note_off_c, 10, 69, 127
1, 212645, Note_on_c, 0, 72, 127
1, 212645, Note_on_c, 0, 48, 127
1, 212787, Note_off_c, 0, 48, 127
1, 212787, Note_off_c, 0, 72, 127
1, 212789, Note_on_c, 5, 77, 127
1, 212789, Note_on_c, 2, 50, 127
1, 212931, Note_off_c, 5, 77, 127
1, 212933, Note_on_c, 4, 76, 127
1, 213075, Note_off_c, 4, 76, 127
1, 213077, Note_on_c, 2, 74, 127
1, 213207, Note_off_c, 2, 50, 127
1, 213219, Note_off_c, 2, 74, 127
1, 213221, Note_on_c, 0, 72, 127
1, 213221, Note_on_c, 5, 53, 127
1, 213363, Note_off_c, 5, 53, 127
1, 213363, Note_off_c, 0, 72, 127
1, 213365, Note_on_c, 2, 74, 127
1, 213365, Note_on_c, 12, 47, 127
1, 213507, Note_off_c, 2, 74, 127
1, 213509, Note_on_c, 0, 72, 127
1, 213651, Note_off_c, 0, 72, 127
1, 213653, Note_on_c, 12, 71, 127
1, 213755, Note_off_c, 12, 47, 127
1, 213795, Note_off_c, 12, 71, 127
1, 213797, Note_on_c, 10, 69, 127
1, 213797, Note_on_c, 2, 50, 127
1, 213939, Note_off_c, 2, 50, 127
1, 213939, Note_off_c, 10, 69, 127
1, 213941, Note_on_c, 12, 71, 127
1, 213941, Note_on_c, 7, 55, 127
1, 214083, Note_off_c, 12, 71, 127
1, 214085, Note_on_c, 7, 67, 127
1, 214227, Note_off_c, 7, 67, 127
1, 214229, Note_on_c, 12, 71, 127
1, 214331, Note_off_c, 7, 55, 127
1, 214371, Note_off_c, 12, 71, 127
1, 214373, Note_on_c, 2, 74, 127
1, 214373, Note_on_c, 5, 53, 127
1, 214515, Note_off_c, 5, 53, 127
1, 214515, Note_off_c, 2, 74, 127
1, 214517, Note_on_c, 7, 79, 127
1, 214517, Note_on_c, 4, 52, 127
1, 214659, Note_off_c, 7, 79, 127
1, 214661, Note_on_c, 5, 77, 127
1, 214803, Note_off_c, 5, 77, 127
1, 214805, Note_on_c, 4, 76, 127
1, 214922, Note_off_c, 4, 52, 127
1, 214948, Note_off_c, 4, 76, 127
1, 214950, Note_on_c, 2, 74, 127
1, 214950, Note_on_c, 7, 55, 127
1, 215092, Note_off_c, 7, 55, 127
1, 215092, Note_off_c, 2, 74, 127
1, 215094, Note_on_c, 4, 76, 127
1, 215094, Note_on_c, 0, 48, 127
1, 215236, Note_off_c, 4, 76, 127
1, 215238, Note_on_c, 2, 74, 127
1, 215380, Note_off_c, 2, 74, 127
1, 215382, Note_on_c, 0, 72, 127
1, 215499, Note_off_c, 0, 48, 127
1, 215525, Note_off_c, 0, 72, 127
1, 215527, Note_on_c, 12, 71, 127
1, 215527, Note_on_c, 4, 52, 127
1, 215669, Note_off_c, 4, 52, 127
1, 215669, Note_off_c, 12, 71, 127
1, 215671, Note_on_c, 0, 72, 127
1, 215671, Note_on_c, 10, 57, 127
1, 215813, Note_off_c, 0, 72, 127
1, 215815, Note_on_c, 10, 69, 127
1, 215957, Note_off_c, 10, 69, 127
1, 215959, Note_on_c, 0, 72, 127
1, 216076, Note_off_c, 10, 57, 127
1, 216102, Note_off_c, 0, 72, 127
1, 216104, Note_on_c, 4, 76, 127
1, 216104, Note_on_c, 7, 55, 127
1, 216246, Note_off_c, 7, 55, 127
1, 216246, Note_off_c, 4, 76, 127
1, 216248, Note_on_c, 10, 81, 127
1, 216248, Note_on_c, 5, 53, 127
1, 216390, Note_off_c, 10, 81, 127
1, 216392, Note_on_c, 7, 79, 127
1, 216534, Note_off_c, 7, 79, 127
1, 216536, Note_on_c, 5, 77, 127
1, 216653, Note_off_c, 5, 53, 127
1, 216679, Note_off_c, 5, 77, 127
1, 216681, Note_on_c, 4, 76, 127
1, 216681, Note_on_c, 10, 57, 127
1, 216823, Note_off_c, 10, 57, 127
1, 216823, Note_off_c, 4, 76, 127
1, 216825, Note_on_c, 2, 74, 127
1, 216825, Note_on_c, 12, 47, 127
1, 216967, Note_off_c, 12, 47, 127
1, 216967, Note_off_c, 2, 74, 127
1, 216969, Note_on_c, 0, 72, 127
1, 216969, Note_on_c, 4, 64, 127
1, 217111, Note_off_c, 4, 64, 127
1, 217111, Note_off_c, 0, 72, 127
1, 217113, Note_on_c, 12, 71, 127
1, 217113, Note_on_c, 2, 62, 127
1, 217255, Note_off_c, 2, 62, 127
1, 217255, Note_off_c, 12, 71, 127
1, 217257, Note_on_c, 10, 69, 127
1, 217257, Note_on_c, 0, 60, 127
1, 217399, Note_off_c, 0, 60, 127
1, 217399, Note_off_c, 10, 69, 127
1, 217401, Note_on_c, 7, 67, 127
1, 217401, Note_on_c, 12, 59, 127
1, 217543, Note_off_c, 12, 59, 127
1, 217543, Note_off_c, 7, 67, 127
1, 217545, Note_on_c, 12, 71, 127
1, 217545, Note_on_c, 2, 62, 127
1, 217687, Note_off_c, 2, 62, 127
1, 217687, Note_off_c, 12, 71, 127
1, 217689, Note_on_c, 0, 72, 127
1, 217689, Note_on_c, 4, 64, 127
1, 217831, Note_off_c, 4, 64, 127
1, 217831, Note_off_c, 0, 72, 127
1, 217833, Note_on_c, 2, 74, 127
1, 217833, Note_on_c, 5, 65, 127
1, 217975, Note_off_c, 2, 74, 127
1, 217977, Note_on_c, 0, 72, 127
1, 217977, Note_on_c, 7, 55, 127
1, 218043, Note_off_c, 5, 65, 127
1, 218119, Note_off_c, 7, 55, 127
1, 218119, Note_off_c, 0, 72, 127
1, 218121, Note_on_c, 12, 71, 127
1, 218121, Note_on_c, 2, 62, 127
1, 218263, Note_off_c, 2, 62, 127
1, 218263, Note_off_c, 12, 71, 127
1, 218265, Note_on_c, 10, 69, 127
1, 218265, Note_on_c, 0, 60, 127
1, 218407, Note_off_c, 0, 60, 127
1, 218407, Note_off_c, 10, 69, 127
1, 218409, Note_on_c, 7, 67, 127
1, 218409, Note_on_c, 12, 59, 127
1, 218551, Note_off_c, 12, 59, 127
1, 218551, Note_off_c, 7, 67, 127
1, 218553, Note_on_c, 0, 72, 127
1, 218553, Note_on_c, 4, 64, 127
1, 218913, Note_off_c, 4, 64, 127
1, 218971, Note_off_c, 0, 72, 127
1, 218985, Note_on_c, 5, 65, 127
1, 218985, Note_on_c, 10, 45, 127
1, 219127, Note_off_c, 10, 45, 127
1, 219127, Note_off_c, 5, 65, 127
1, 219129, Note_on_c, 7, 67, 127
1, 219129, Note_on_c, 10, 57, 127
1, 219271, Note_off_c, 7, 67, 127
1, 219273, Note_on_c, 5, 65, 127
1, 219415, Note_off_c, 5, 65, 127
1, 219417, Note_on_c, 4, 64, 127
1, 219559, Note_off_c, 4, 64, 127
1, 219561, Note_on_c, 5, 65, 127
1, 219561, Note_on_c, 10, 45, 127
1, 219699, Note_off_c, 10, 57, 127
1, 219703, Note_off_c, 10, 45, 127
1, 219703, Note_off_c, 5, 65, 127
1, 219705, Note_on_c, 7, 67, 127
1, 219705, Note_on_c, 10, 57, 127
1, 219847, Note_off_c, 7, 67, 127
1, 219849, Note_on_c, 5, 65, 127
1, 219991, Note_off_c, 5, 65, 127
1, 219993, Note_on_c, 4, 64, 127
1, 220135, Note_off_c, 4, 64, 127
1, 220137, Note_on_c, 5, 65, 127
1, 220279, Note_off_c, 5, 65, 127
1, 220281, Note_on_c, 12, 71, 127
1, 220365, Note_off_c, 10, 57, 127
1, 220425, Note_on_c, 5, 53, 127
1, 220567, Note_off_c, 5, 53, 127
1, 220569, Note_on_c, 7, 55, 127
1, 220671, Note_off_c, 12, 71, 127
1, 220711, Note_off_c, 7, 55, 127
1, 220713, Note_on_c, 2, 62, 127
1, 220713, Note_on_c, 10, 57, 127
1, 220855, Note_off_c, 10, 57, 127
1, 220855, Note_off_c, 2, 62, 127
1, 220857, Note_on_c, 4, 64, 127
1, 220857, Note_on_c, 7, 55, 127
1, 220927, Note_off_c, 4, 64, 127
1, 220929, Note_on_c, 2, 62, 127
1, 220999, Note_off_c, 2, 62, 127
1, 220999, Note_off_c, 7, 55, 127
1, 221001, Note_on_c, 4, 64, 127
1, 221001, Note_on_c, 5, 53, 127
1, 221143, Note_off_c, 5, 53, 127
1, 221145, Note_on_c, 4, 52, 127
1, 221287, Note_off_c, 4, 52, 127
1, 221289, Note_on_c, 2, 50, 127
1, 221431, Note_off_c, 2, 50, 127
1, 221433, Note_on_c, 0, 48, 127
1, 221575, Note_off_c, 0, 48, 127
1, 221577, Note_on_c, 12, 47, 127
1, 221719, Note_off_c, 12, 47, 127
1, 221721, Note_on_c, 10, 45, 127
1, 221863, Note_off_c, 10, 45, 127
1, 221865, Note_on_c, 7, 43, 127
1, 222007, Note_off_c, 7, 43, 127
1, 222009, Note_on_c, 5, 41, 127
1, 222151, Note_off_c, 5, 41, 127
1, 222151, Note_off_c, 4, 64, 127
1, 222153, Note_on_c, 10, 45, 127
1, 222295, Note_off_c, 10, 45, 127
1, 222297, Note_on_c, 7, 43, 127
1, 222439, Note_off_c, 7, 43, 127
1, 222441, Note_on_c, 2, 62, 127
1, 222441, Note_on_c, 5, 41, 127
1, 222583, Note_off_c, 5, 41, 127
1, 222583, Note_off_c, 2, 62, 127
1, 222585, Note_on_c, 4, 64, 127
1, 222585, Note_on_c, 5, 53, 127
1, 222727, Note_off_c, 4, 64, 127
1, 222729, Note_on_c, 2, 62, 127
1, 222871, Note_off_c, 2, 62, 127
1, 222873, Note_on_c, 0, 60, 127
1, 223015, Note_off_c, 0, 60, 127
1, 223017, Note_on_c, 2, 62, 127
1, 223017, Note_on_c, 5, 41, 127
1, 223155, Note_off_c, 5, 53, 127
1, 223159, Note_off_c, 5, 41, 127
1, 223159, Note_off_c, 2, 62, 127
1, 223161, Note_on_c, 4, 64, 127
1, 223161, Note_on_c, 5, 53, 127
1, 223303, Note_off_c, 4, 64, 127
1, 223305, Note_on_c, 2, 62, 127
1, 223447, Note_off_c, 2, 62, 127
1, 223449, Note_on_c, 0, 60, 127
1, 223591, Note_off_c, 0, 60, 127
1, 223593, Note_on_c, 2, 62, 127
1, 223735, Note_off_c, 2, 62, 127
1, 223737, Note_on_c, 7, 67, 127
1, 223869, Note_off_c, 5, 53, 127
1, 223881, Note_on_c, 2, 50, 127
1, 224023, Note_off_c, 2, 50, 127
1, 224025, Note_on_c, 4, 52, 127
1, 224142, Note_off_c, 7, 67, 127
1, 224168, Note_off_c, 4, 52, 127
1, 224170, Note_on_c, 12, 59, 127
1, 224170, Note_on_c, 5, 53, 127
1, 224312, Note_off_c, 5, 53, 127
1, 224312, Note_off_c, 12, 59, 127
1, 224314, Note_on_c, 0, 60, 127
1, 224314, Note_on_c, 4, 52, 127
1, 224384, Note_off_c, 0, 60, 127
1, 224386, Note_on_c, 12, 59, 127
1, 224456, Note_off_c, 12, 59, 127
1, 224456, Note_off_c, 4, 52, 127
1, 224458, Note_on_c, 0, 60, 127
1, 224458, Note_on_c, 2, 50, 127
1, 224600, Note_off_c, 2, 50, 127
1, 224602, Note_on_c, 0, 48, 127
1, 224744, Note_off_c, 0, 48, 127
1, 224746, Note_on_c, 12, 47, 127
1, 224888, Note_off_c, 12, 47, 127
1, 224890, Note_on_c, 10, 45, 127
1, 225032, Note_off_c, 10, 45, 127
1, 225034, Note_on_c, 7, 43, 127
1, 225176, Note_off_c, 7, 43, 127
1, 225178, Note_on_c, 5, 41, 127
1, 225320, Note_off_c, 5, 41, 127
1, 225322, Note_on_c, 4, 40, 127
1, 225464, Note_off_c, 4, 40, 127
1, 225466, Note_on_c, 2, 38, 127
1, 225568, Note_off_c, 0, 60, 127
1, 225610, Note_on_c, 5, 65, 127
1, 225752, Note_off_c, 5, 65, 127
1, 225754, Note_on_c, 7, 67, 127
1, 225826, Note_off_c, 2, 38, 127
1, 225896, Note_off_c, 7, 67, 127
1, 225898, Note_on_c, 10, 69, 127
1, 225898, Note_on_c, 12, 47, 127
1, 226040, Note_off_c, 12, 47, 127
1, 226040, Note_off_c, 10, 69, 127
1, 226042, Note_on_c, 7, 67, 127
1, 226042, Note_on_c, 0, 48, 127
1, 226184, Note_off_c, 7, 67, 127
1, 226186, Note_on_c, 5, 65, 127
1, 226328, Note_off_c, 5, 65, 127
1, 226330, Note_on_c, 4, 64, 127
1, 226468, Note_off_c, 0, 48, 127
1, 226472, Note_off_c, 4, 64, 127
1, 226474, Note_on_c, 2, 62, 127
1, 226474, Note_on_c, 7, 43, 127
1, 226616, Note_off_c, 7, 43, 127
1, 226616, Note_off_c, 2, 62, 127
1, 226618, Note_on_c, 0, 60, 127
1, 226618, Note_on_c, 10, 45, 127
1, 226760, Note_off_c, 0, 60, 127
1, 226762, Note_on_c, 12, 59, 127
1, 226904, Note_off_c, 12, 59, 127
1, 226906, Note_on_c, 0, 60, 127
1, 227044, Note_off_c, 10, 45, 127
1, 227048, Note_off_c, 0, 60, 127
1, 227050, Note_on_c, 2, 62, 127
1, 227050, Note_on_c, 5, 41, 127
1, 227192, Note_off_c, 5, 41, 127
1, 227192, Note_off_c, 2, 62, 127
1, 227194, Note_on_c, 7, 55, 127
1, 227194, Note_on_c, 7, 43, 127
1, 227336, Note_off_c, 7, 43, 127
1, 227338, Note_on_c, 5, 53, 127
1, 227480, Note_off_c, 5, 53, 127
1, 227482, Note_on_c, 4, 52, 127
1, 227612, Note_off_c, 7, 55, 127
1, 227624, Note_off_c, 4, 52, 127
1, 227626, Note_on_c, 12, 59, 127
1, 227626, Note_on_c, 2, 50, 127
1, 227768, Note_off_c, 2, 50, 127
1, 227768, Note_off_c, 12, 59, 127
1, 227770, Note_on_c, 0, 60, 127
1, 227770, Note_on_c, 7, 43, 127
1, 227912, Note_off_c, 7, 43, 127
1, 227914, Note_on_c, 4, 52, 127
1, 228056, Note_off_c, 4, 52, 127
1, 228058, Note_on_c, 2, 50, 127
1, 228188, Note_off_c, 0, 60, 127
1, 228200, Note_off_c, 2, 50, 127
1, 228202, Note_on_c, 7, 55, 127
1, 228202, Note_on_c, 0, 48, 127
1, 228344, Note_off_c, 0, 48, 127
1, 228346, Note_on_c, 2, 62, 127
1, 228346, Note_on_c, 7, 43, 127
1, 228404, Note_off_c, 7, 55, 127
1, 228488, Note_off_c, 7, 43, 127
1, 228490, Note_on_c, 2, 50, 127
1, 228632, Note_off_c, 2, 50, 127
1, 228634, Note_on_c, 0, 48, 127
1, 228764, Note_off_c, 2, 62, 127
1, 228776, Note_off_c, 0, 48, 127
1, 228778, Note_on_c, 7, 55, 127
1, 228778, Note_on_c, 12, 47, 127
1, 228920, Note_off_c, 12, 47, 127
1, 228922, Note_on_c, 4, 64, 127
1, 228922, Note_on_c, 7, 43, 127
1, 228988, Note_off_c, 7, 55, 127
1, 229064, Note_off_c, 7, 43, 127
1, 229066, Note_on_c, 0, 48, 127
1, 229208, Note_off_c, 0, 48, 127
1, 229210, Note_on_c, 12, 47, 127
1, 229340, Note_off_c, 4, 64, 127
1, 229352, Note_off_c, 12, 47, 127
1, 229354, Note_on_c, 7, 55, 127
1, 229354, Note_on_c, 10, 45, 127
1, 229496, Note_off_c, 10, 45, 127
1, 229498, Note_on_c, 2, 62, 127
1, 229498, Note_on_c, 12, 47, 127
1, 229572, Note_off_c, 7, 55, 127
1, 229641, Note_off_c, 12, 47, 127
1, 229643, Note_on_c, 7, 43, 127
1, 229785, Note_off_c, 7, 43, 127
1, 229787, Note_on_c, 10, 45, 127
1, 229917, Note_off_c, 2, 62, 127
1, 229929, Note_off_c, 10, 45, 127
1, 229931, Note_on_c, 7, 55, 127
1, 229931, Note_on_c, 12, 47, 127
1, 230073, Note_off_c, 12, 47, 127
1, 230075, Note_on_c, 4, 64, 127
1, 230075, Note_on_c, 0, 48, 127
1, 230156, Note_off_c, 7, 55, 127
1, 230218, Note_off_c, 0, 48, 127
1, 230220, Note_on_c, 7, 43, 127
1, 230362, Note_off_c, 7, 43, 127
1, 230364, Note_on_c, 12, 47, 127
1, 230494, Note_off_c, 4, 64, 127
1, 230506, Note_off_c, 12, 47, 127
1, 230508, Note_on_c, 7, 55, 127
1, 230508, Note_on_c, 0, 48, 127
1, 230650, Note_off_c, 0, 48, 127
1, 230652, Note_on_c, 5, 65, 127
1, 230652, Note_on_c, 2, 50, 127
1, 230740, Note_off_c, 7, 55, 127
1, 230794, Note_off_c, 2, 50, 127
1, 230796, Note_on_c, 7, 43, 127
1, 230938, Note_off_c, 7, 43, 127
1, 230940, Note_on_c, 10, 45, 127
1, 231070, Note_off_c, 5, 65, 127
1, 231082, Note_off_c, 10, 45, 127
1, 231084, Note_on_c, 7, 55, 127
1, 231084, Note_on_c, 12, 47, 127
1, 231226, Note_off_c, 12, 47, 127
1, 231228, Note_on_c, 4, 64, 127
1, 231228, Note_on_c, 0, 48, 127
1, 231324, Note_off_c, 7, 55, 127
1, 231370, Note_off_c, 0, 48, 127
1, 231372, Note_on_c, 4, 52, 127
1, 231514, Note_off_c, 4, 52, 127
1, 231516, Note_on_c, 2, 50, 127
1, 231646, Note_off_c, 4, 64, 127
1, 231658, Note_off_c, 2, 50, 127
1, 231660, Note_on_c, 7, 55, 127
1, 231660, Note_on_c, 0, 48, 127
1, 231802, Note_off_c, 0, 48, 127
1, 231804, Note_on_c, 5, 65, 127
1, 231804, Note_on_c, 12, 47, 127
1, 231908, Note_off_c, 7, 55, 127
1, 231947, Note_off_c, 12, 47, 127
1, 231949, Note_on_c, 10, 45, 127
1, 232091, Note_off_c, 10, 45, 127
1, 232093, Note_on_c, 7, 43, 127
1, 232223, Note_off_c, 5, 65, 127
1, 232235, Note_off_c, 7, 43, 127
1, 232237, Note_on_c, 7, 55, 127
1, 232237, Note_on_c, 5, 41, 127
1, 232372, Note_off_c, 7, 55, 127
1, 232380, Note_off_c, 5, 41, 127
1, 232382, Note_on_c, 7, 67, 127
1, 232382, Note_on_c, 4, 40, 127
1, 232524, Note_off_c, 7, 67, 127
1, 232526, Note_on_c, 4, 64, 127
1, 232668, Note_off_c, 4, 64, 127
1, 232670, Note_on_c, 5, 65, 127
1, 232800, Note_off_c, 4, 40, 127
1, 232812, Note_off_c, 5, 65, 127
1, 232814, Note_on_c, 7, 67, 127
1, 232814, Note_on_c, 4, 52, 127
1, 232956, Note_off_c, 4, 52, 127
1, 232956, Note_off_c, 7, 67, 127
1, 232958, Note_on_c, 10, 69, 127
1, 232958, Note_on_c, 5, 53, 127
1, 233100, Note_off_c, 10, 69, 127
1, 233102, Note_on_c, 5, 65, 127
1, 233244, Note_off_c, 5, 65, 127
1, 233246, Note_on_c, 4, 64, 127
1, 233376, Note_off_c, 5, 53, 127
1, 233388, Note_off_c, 4, 64, 127
1, 233390, Note_on_c, 2, 62, 127
1, 233390, Note_on_c, 5, 41, 127
1, 233532, Note_off_c, 5, 41, 127
1, 233532, Note_off_c, 2, 62, 127
1, 233534, Note_on_c, 2, 74, 127
1, 233534, Note_on_c, 7, 43, 127
1, 233676, Note_off_c, 2, 74, 127
1, 233678, Note_on_c, 12, 71, 127
1, 233820, Note_off_c, 12, 71, 127
1, 233822, Note_on_c, 0, 72, 127
1, 233952, Note_off_c, 7, 43, 127
1, 233964, Note_off_c, 0, 72, 127
1, 233966, Note_on_c, 2, 74, 127
1, 233966, Note_on_c, 7, 55, 127
1, 234108, Note_off_c, 7, 55, 127
1, 234108, Note_off_c, 2, 74, 127
1, 234110, Note_on_c, 0, 72, 127
1, 234110, Note_on_c, 10, 57, 127
1, 234254, Note_on_c, 10, 69, 127
1, 234320, Note_off_c, 0, 72, 127
1, 234396, Note_off_c, 10, 69, 127
1, 234398, Note_on_c, 7, 67, 127
1, 234528, Note_off_c, 10, 57, 127
1, 234540, Note_off_c, 7, 67, 127
1, 234542, Note_on_c, 5, 65, 127
1, 234542, Note_on_c, 10, 45, 127
1, 234684, Note_off_c, 10, 45, 127
1, 234684, Note_off_c, 5, 65, 127
1, 234686, Note_on_c, 2, 74, 127
1, 234686, Note_on_c, 12, 47, 127
1, 234830, Note_on_c, 12, 71, 127
1, 234896, Note_off_c, 2, 74, 127
1, 234972, Note_off_c, 12, 71, 127
1, 234974, Note_on_c, 0, 72, 127
1, 235104, Note_off_c, 12, 47, 127
1, 235116, Note_off_c, 0, 72, 127
1, 235118, Note_on_c, 2, 74, 127
1, 235118, Note_on_c, 12, 59, 127
1, 235260, Note_off_c, 12, 59, 127
1, 235260, Note_off_c, 2, 74, 127
1, 235262, Note_on_c, 4, 76, 127
1, 235262, Note_on_c, 0, 60, 127
1, 235406, Note_on_c, 0, 72, 127
1, 235472, Note_off_c, 4, 76, 127
1, 235548, Note_off_c, 0, 72, 127
1, 235550, Note_on_c, 12, 71, 127
1, 235680, Note_off_c, 0, 60, 127
1, 235692, Note_off_c, 12, 71, 127
1, 235694, Note_on_c, 10, 69, 127
1, 235694, Note_on_c, 0, 48, 127
1, 235836, Note_off_c, 0, 48, 127
1, 235836, Note_off_c, 10, 69, 127
1, 235838, Note_on_c, 5, 77, 127
1, 235838, Note_on_c, 2, 50, 127
1, 235982, Note_on_c, 2, 74, 127
1, 236048, Note_off_c, 5, 77, 127
1, 236124, Note_off_c, 2, 74, 127
1, 236126, Note_on_c, 4, 76, 127
1, 236256, Note_off_c, 2, 50, 127
1, 236268, Note_off_c, 4, 76, 127
1, 236270, Note_on_c, 5, 77, 127
1, 236270, Note_on_c, 2, 62, 127
1, 236412, Note_off_c, 2, 62, 127
1, 236412, Note_off_c, 5, 77, 127
1, 236414, Note_on_c, 7, 79, 127
1, 236414, Note_on_c, 4, 64, 127
1, 236558, Note_on_c, 4, 76, 127
1, 236624, Note_off_c, 7, 79, 127
1, 236700, Note_off_c, 4, 76, 127
1, 236702, Note_on_c, 2, 74, 127
1, 236832, Note_off_c, 4, 64, 127
1, 236844, Note_off_c, 2, 74, 127
1, 236846, Note_on_c, 0, 72, 127
1, 236846, Note_on_c, 4, 52, 127
1, 236988, Note_off_c, 4, 52, 127
1, 236988, Note_off_c, 0, 72, 127
1, 236990, Note_on_c, 10, 81, 127
1, 236990, Note_on_c, 5, 53, 127
1, 237132, Note_off_c, 10, 81, 127
1, 237134, Note_on_c, 5, 77, 127
1, 237276, Note_off_c, 5, 77, 127
1, 237278, Note_on_c, 7, 79, 127
1, 237408, Note_off_c, 5, 53, 127
1, 237420, Note_off_c, 7, 79, 127
1, 237422, Note_on_c, 10, 81, 127
1, 237422, Note_on_c, 5, 65, 127
1, 237564, Note_off_c, 5, 65, 127
1, 237564, Note_off_c, 10, 81, 127
1, 237566, Note_on_c, 0, 72, 127
1, 237566, Note_on_c, 7, 55, 127
1, 237656, Note_on_c, 12, 71, 127
1, 237686, Note_off_c, 0, 72, 127
1, 237708, Note_off_c, 7, 55, 127
1, 237710, Note_on_c, 12, 59, 127
1, 237725, Note_on_c, 0, 72, 127
1, 237727, Note_off_c, 12, 71, 127
1, 237795, Note_on_c, 12, 71, 127
1, 237797, Note_off_c, 0, 72, 127
1, 237854, Note_off_c, 12, 59, 127
1, 237856, Note_on_c, 2, 62, 127
1, 237865, Note_on_c, 0, 72, 127
1, 237867, Note_off_c, 12, 71, 127
1, 237935, Note_on_c, 12, 71, 127
1, 237937, Note_off_c, 0, 72, 127
1, 238000, Note_off_c, 2, 62, 127
1, 238002, Note_on_c, 5, 65, 127
1, 238005, Note_on_c, 0, 72, 127
1, 238007, Note_off_c, 12, 71, 127
1, 238075, Note_on_c, 12, 71, 127
1, 238077, Note_off_c, 0, 72, 127
1, 238146, Note_off_c, 5, 65, 127
1, 238148, Note_on_c, 4, 64, 127
1, 238290, Note_off_c, 12, 71, 127
1, 238292, Note_on_c, 7, 67, 127
1, 238434, Note_off_c, 7, 67, 127
1, 238436, Note_on_c, 10, 69, 127
1, 238566, Note_off_c, 4, 64, 127
1, 238578, Note_off_c, 10, 69, 127
1, 238580, Note_on_c, 12, 71, 127
1, 238580, Note_on_c, 7, 55, 127
1, 238722, Note_off_c, 7, 55, 127
1, 238722, Note_off_c, 12, 71, 127
1, 238724, Note_on_c, 0, 72, 127
1, 238724, Note_on_c, 5, 53, 127
1, 238866, Note_off_c, 0, 72, 127
1, 238868, Note_on_c, 2, 74, 127
1, 239010, Note_off_c, 2, 74, 127
1, 239012, Note_on_c, 4, 76, 127
1, 239142, Note_off_c, 5, 53, 127
1, 239154, Note_off_c, 4, 76, 127
1, 239156, Note_on_c, 5, 77, 127
1, 239156, Note_on_c, 2, 62, 127
1, 239298, Note_off_c, 2, 62, 127
1, 239298, Note_off_c, 5, 77, 127
1, 239300, Note_on_c, 7, 79, 127
1, 239300, Note_on_c, 0, 60, 127
1, 239442, Note_off_c, 7, 79, 127
1, 239444, Note_on_c, 5, 77, 127
1, 239586, Note_off_c, 5, 77, 127
1, 239588, Note_on_c, 10, 81, 127
1, 239718, Note_off_c, 0, 60, 127
1, 239730, Note_off_c, 10, 81, 127
1, 239732, Note_on_c, 7, 79, 127
1, 239732, Note_on_c, 4, 52, 127
1, 239874, Note_off_c, 4, 52, 127
1, 239874, Note_off_c, 7, 79, 127
1, 239876, Note_on_c, 5, 77, 127
1, 239876, Note_on_c, 10, 57, 127
1, 240018, Note_off_c, 5, 77, 127
1, 240020, Note_on_c, 4, 76, 127
1, 240162, Note_off_c, 4, 76, 127
1, 240164, Note_on_c, 2, 74, 127
1, 240294, Note_off_c, 10, 57, 127
1, 240306, Note_off_c, 2, 74, 127
1, 240308, Note_on_c, 0, 72, 127
1, 240308, Note_on_c, 5, 53, 127
1, 240450, Note_off_c, 5, 53, 127
1, 240450, Note_off_c, 0, 72, 127
1, 240452, Note_on_c, 4, 76, 127
1, 240452, Note_on_c, 7, 55, 127
1, 240594, Note_off_c, 4, 76, 127
1, 240596, Note_on_c, 2, 74, 127
1, 240738, Note_off_c, 2, 74, 127
1, 240740, Note_on_c, 0, 72, 127
1, 240870, Note_off_c, 7, 55, 127
1, 240882, Note_off_c, 0, 72, 127
1, 240884, Note_on_c, 12, 71, 127
1, 240884, Note_on_c, 7, 43, 127
1, 241026, Note_off_c, 7, 43, 127
1, 241026, Note_off_c, 12, 71, 127
1, 241028, Note_on_c, 0, 72, 127
1, 241028, Note_on_c, 0, 48, 127
1, 241172, Note_on_c, 0, 36, 127
1, 241314, Note_off_c, 0, 36, 127
1, 241316, Note_on_c, 4, 40, 127
1, 241458, Note_off_c, 4, 40, 127
1, 241460, Note_on_c, 7, 43, 127
1, 241598, Note_off_c, 0, 48, 127
1, 241598, Note_off_c, 0, 72, 127
1, 241602, Note_off_c, 7, 43, 127
1, 241604, Note_on_c, 0, 48, 127
1, 241748, Note_on_c, 7, 67, 127
1, 241890, Note_off_c, 7, 67, 127
1, 241892, Note_on_c, 0, 72, 127
1, 242034, Note_off_c, 0, 72, 127
1, 242036, Note_on_c, 2, 74, 127
1, 242174, Note_off_c, 0, 48, 127
1, 242178, Note_off_c, 2, 74, 127
1, 242180, Note_on_c, 4, 76, 127
1, 242322, Note_off_c, 4, 76, 127
1, 242324, Note_on_c, 0, 72, 127
1, 242324, Note_on_c, 4, 52, 127
1, 242466, Note_off_c, 4, 52, 127
1, 242466, Note_off_c, 0, 72, 127
1, 242468, Note_on_c, 2, 74, 127
1, 242468, Note_on_c, 5, 53, 127
1, 242610, Note_off_c, 5, 53, 127
1, 242610, Note_off_c, 2, 74, 127
1, 242612, Note_on_c, 4, 76, 127
1, 242612, Note_on_c, 7, 55, 127
1, 242754, Note_off_c, 7, 55, 127
1, 242754, Note_off_c, 4, 76, 127
1, 242756, Note_on_c, 10, 69, 127
1, 242756, Note_on_c, 1, 49, 127
1, 242898, Note_off_c, 1, 49, 127
1, 242898, Note_off_c, 10, 69, 127
1, 242900, Note_on_c, 1, 73, 127
1, 242900, Note_on_c, 4, 52, 127
1, 243042, Note_off_c, 4, 52, 127
1, 243042, Note_off_c, 1, 73, 127
1, 243044, Note_on_c, 4, 76, 127
1, 243044, Note_on_c, 7, 55, 127
1, 243186, Note_off_c, 4, 76, 127
1, 243188, Note_on_c, 7, 79, 127
1, 243329, Note_off_c, 7, 55, 127
1, 243331, Note_off_c, 7, 79, 127
1, 243333, Note_on_c, 11, 82, 127
1, 243477, Note_on_c, 4, 52, 127
1, 243619, Note_off_c, 4, 52, 127
1, 243621, Note_on_c, 5, 53, 127
1, 243751, Note_off_c, 11, 82, 127
1, 243763, Note_off_c, 5, 53, 127
1, 243765, Note_on_c, 1, 73, 127
1, 243765, Note_on_c, 7, 55, 127
1, 243907, Note_off_c, 7, 55, 127
1, 243907, Note_off_c, 1, 73, 127
1, 243909, Note_on_c, 2, 74, 127
1, 243909, Note_on_c, 5, 53, 127
1, 244051, Note_off_c, 5, 53, 127
1, 244053, Note_on_c, 4, 52, 127
1, 244195, Note_off_c, 4, 52, 127
1, 244197, Note_on_c, 2, 50, 127
1, 244335, Note_off_c, 2, 74, 127
1, 244339, Note_off_c, 2, 50, 127
1, 244341, Note_on_c, 4, 76, 127
1, 244341, Note_on_c, 1, 49, 127
1, 244483, Note_off_c, 1, 49, 127
1, 244483, Note_off_c, 4, 76, 127
1, 244485, Note_on_c, 5, 77, 127
1, 244485, Note_on_c, 2, 50, 127
1, 244627, Note_off_c, 2, 50, 127
1, 244629, Note_on_c, 2, 38, 127
1, 244771, Note_off_c, 2, 38, 127
1, 244773, Note_on_c, 5, 41, 127
1, 244915, Note_off_c, 5, 41, 127
1, 244917, Note_on_c, 10, 45, 127
1, 245059, Note_off_c, 10, 45, 127
1, 245061, Note_on_c, 2, 50, 127
1, 245196, Note_off_c, 5, 77, 127
1, 245205, Note_on_c, 10, 69, 127
1, 245347, Note_off_c, 10, 69, 127
1, 245349, Note_on_c, 2, 74, 127
1, 245491, Note_off_c, 2, 74, 127
1, 245493, Note_on_c, 4, 76, 127
1, 245635, Note_off_c, 4, 76, 127
1, 245637, Note_on_c, 5, 77, 127
1, 245766, Note_off_c, 2, 50, 127
1, 245780, Note_off_c, 5, 77, 127
1, 245782, Note_on_c, 2, 74, 127
1, 245782, Note_on_c, 5, 53, 127
1, 245924, Note_off_c, 5, 53, 127
1, 245924, Note_off_c, 2, 74, 127
1, 245926, Note_on_c, 4, 76, 127
1, 245926, Note_on_c, 7, 55, 127
1, 246068, Note_off_c, 7, 55, 127
1, 246068, Note_off_c, 4, 76, 127
1, 246070, Note_on_c, 5, 77, 127
1, 246070, Note_on_c, 10, 57, 127
1, 246212, Note_off_c, 10, 57, 127
1, 246212, Note_off_c, 5, 77, 127
1, 246214, Note_on_c, 12, 71, 127
1, 246214, Note_on_c, 3, 51, 127
1, 246356, Note_off_c, 3, 51, 127
1, 246356, Note_off_c, 12, 71, 127
1, 246358, Note_on_c, 3, 75, 127
1, 246358, Note_on_c, 6, 54, 127
1, 246500, Note_off_c, 6, 54, 127
1, 246500, Note_off_c, 3, 75, 127
1, 246502, Note_on_c, 6, 78, 127
1, 246502, Note_on_c, 10, 57, 127
1, 246644, Note_off_c, 6, 78, 127
1, 246646, Note_on_c, 10, 81, 127
1, 246788, Note_off_c, 10, 81, 127
1, 246790, Note_on_c, 0, 84, 127
1, 246832, Note_off_c, 10, 57, 127
1, 246934, Note_on_c, 6, 54, 127
1, 247076, Note_off_c, 6, 54, 127
1, 247078, Note_on_c, 7, 55, 127
1, 247208, Note_off_c, 0, 84, 127
1, 247220, Note_off_c, 7, 55, 127
1, 247222, Note_on_c, 3, 75, 127
1, 247222, Note_on_c, 10, 57, 127
1, 247364, Note_off_c, 10, 57, 127
1, 247364, Note_off_c, 3, 75, 127
1, 247366, Note_on_c, 4, 76, 127
1, 247366, Note_on_c, 7, 55, 127
1, 247508, Note_off_c, 7, 55, 127
1, 247510, Note_on_c, 6, 54, 127
1, 247652, Note_off_c, 6, 54, 127
1, 247654, Note_on_c, 4, 52, 127
1, 247792, Note_off_c, 4, 76, 127
1, 247796, Note_off_c, 4, 52, 127
1, 247798, Note_on_c, 6, 78, 127
1, 247798, Note_on_c, 3, 51, 127
1, 247940, Note_off_c, 3, 51, 127
1, 247940, Note_off_c, 6, 78, 127
1, 247942, Note_on_c, 7, 79, 127
1, 247942, Note_on_c, 4, 52, 127
1, 248086, Note_on_c, 4, 40, 127
1, 248212, Note_off_c, 4, 52, 127
1, 248228, Note_off_c, 4, 40, 127
1, 248230, Note_on_c, 7, 43, 127
1, 248372, Note_off_c, 7, 43, 127
1, 248374, Note_on_c, 12, 47, 127
1, 248516, Note_off_c, 12, 47, 127
1, 248518, Note_on_c, 4, 52, 127
1, 248660, Note_off_c, 7, 79, 127
1, 248662, Note_on_c, 4, 76, 127
1, 248804, Note_off_c, 4, 76, 127
1, 248806, Note_on_c, 6, 78, 127
1, 248948, Note_off_c, 6, 78, 127
1, 248950, Note_on_c, 8, 80, 127
1, 249058, Note_off_c, 4, 52, 127
1, 249092, Note_off_c, 8, 80, 127
1, 249094, Note_on_c, 10, 81, 127
1, 249236, Note_off_c, 10, 81, 127
1, 249238, Note_on_c, 8, 80, 127
1, 249238, Note_on_c, 0, 48, 127
1, 249380, Note_off_c, 0, 48, 127
1, 249380, Note_off_c, 8, 80, 127
1, 249382, Note_on_c, 6, 78, 127
1, 249382, Note_on_c, 2, 50, 127
1, 249524, Note_off_c, 2, 50, 127
1, 249524, Note_off_c, 6, 78, 127
1, 249526, Note_on_c, 8, 80, 127
1, 249526, Note_on_c, 4, 52, 127
1, 249668, Note_off_c, 4, 52, 127
1, 249668, Note_off_c, 8, 80, 127
1, 249670, Note_on_c, 10, 81, 127
1, 249670, Note_on_c, 5, 53, 127
1, 249812, Note_off_c, 5, 53, 127
1, 249814, Note_on_c, 4, 52, 127
1, 249956, Note_off_c, 4, 52, 127
1, 249958, Note_on_c, 5, 53, 127
1, 250088, Note_off_c, 10, 81, 127
1, 250100, Note_off_c, 5, 53, 127
1, 250102, Note_on_c, 2, 74, 127
1, 250102, Note_on_c, 7, 55, 127
1, 250244, Note_off_c, 7, 55, 127
1, 250244, Note_off_c, 2, 74, 127
1, 250246, Note_on_c, 1, 73, 127
1, 250246, Note_on_c, 10, 57, 127
1, 250388, Note_off_c, 10, 57, 127
1, 250388, Note_off_c, 1, 73, 127
1, 250390, Note_on_c, 2, 74, 127
1, 250390, Note_on_c, 12, 59, 127
1, 250532, Note_off_c, 12, 59, 127
1, 250532, Note_off_c, 2, 74, 127
1, 250534, Note_on_c, 4, 76, 127
1, 250534, Note_on_c, 1, 61, 127
1, 250676, Note_off_c, 1, 61, 127
1, 250676, Note_off_c, 4, 76, 127
1, 250678, Note_on_c, 5, 77, 127
1, 250678, Note_on_c, 2, 62, 127
1, 250820, Note_off_c, 2, 62, 127
1, 250820, Note_off_c, 5, 77, 127
1, 250822, Note_on_c, 7, 79, 127
1, 250822, Note_on_c, 4, 64, 127
1, 250964, Note_off_c, 7, 79, 127
1, 250966, Note_on_c, 5, 77, 127
1, 251108, Note_off_c, 5, 77, 127
1, 251110, Note_on_c, 7, 79, 127
1, 251240, Note_off_c, 4, 64, 127
1, 251252, Note_off_c, 7, 79, 127
1, 251254, Note_on_c, 4, 76, 127
1, 251254, Note_on_c, 10, 57, 127
1, 251396, Note_off_c, 10, 57, 127
1, 251396, Note_off_c, 4, 76, 127
1, 251398, Note_on_c, 5, 77, 127
1, 251398, Note_on_c, 2, 62, 127
1, 251540, Note_off_c, 5, 77, 127
1, 251542, Note_on_c, 2, 74, 127
1, 251684, Note_off_c, 2, 74, 127
1, 251686, Note_on_c, 4, 76, 127
1, 251816, Note_off_c, 2, 62, 127
1, 251828, Note_off_c, 4, 76, 127
1, 251830, Note_on_c, 5, 77, 127
1, 251830, Note_on_c, 10, 57, 127
1, 251972, Note_off_c, 10, 57, 127
1, 251972, Note_off_c, 5, 77, 127
1, 251974, Note_on_c, 4, 76, 127
1, 251974, Note_on_c, 0, 60, 127
1, 252116, Note_off_c, 4, 76, 127
1, 252118, Note_on_c, 0, 72, 127
1, 252260, Note_off_c, 0, 72, 127
1, 252262, Note_on_c, 2, 74, 127
1, 252392, Note_off_c, 0, 60, 127
1, 252404, Note_off_c, 2, 74, 127
1, 252406, Note_on_c, 4, 76, 127
1, 252406, Note_on_c, 10, 57, 127
1, 252548, Note_off_c, 10, 57, 127
1, 252548, Note_off_c, 4, 76, 127
1, 252550, Note_on_c, 2, 74, 127
1, 252550, Note_on_c, 12, 59, 127
1, 252692, Note_off_c, 2, 74, 127
1, 252694, Note_on_c, 12, 71, 127
1, 252836, Note_off_c, 12, 71, 127
1, 252838, Note_on_c, 0, 72, 127
1, 252968, Note_off_c, 12, 59, 127
1, 252980, Note_off_c, 0, 72, 127
1, 252982, Note_on_c, 2, 74, 127
1, 252982, Note_on_c, 4, 52, 127
1, 253124, Note_off_c, 4, 52, 127
1, 253124, Note_off_c, 2, 74, 127
1, 253126, Note_on_c, 0, 72, 127
1, 253126, Note_on_c, 10, 57, 127
1, 253268, Note_off_c, 0, 72, 127
1, 253270, Note_on_c, 10, 69, 127
1, 253412, Note_off_c, 10, 69, 127
1, 253414, Note_on_c, 8, 68, 127
1, 253544, Note_off_c, 10, 57, 127
1, 253556, Note_off_c, 8, 68, 127
1, 253558, Note_on_c, 10, 69, 127
1, 253558, Note_on_c, 0, 48, 127
1, 253700, Note_off_c, 0, 48, 127
1, 253700, Note_off_c, 10, 69, 127
1, 253702, Note_on_c, 2, 74, 127
1, 253702, Note_on_c, 5, 53, 127
1, 253844, Note_off_c, 2, 74, 127
1, 253846, Note_on_c, 4, 76, 127
1, 253988, Note_off_c, 4, 76, 127
1, 253990, Note_on_c, 5, 77, 127
1, 254120, Note_off_c, 5, 53, 127
1, 254132, Note_off_c, 5, 77, 127
1, 254134, Note_on_c, 4, 76, 127
1, 254134, Note_on_c, 8, 44, 127
1, 254276, Note_off_c, 8, 44, 127
1, 254276, Note_off_c, 4, 76, 127
1, 254278, Note_on_c, 2, 74, 127
1, 254278, Note_on_c, 10, 45, 127
1, 254420, Note_off_c, 2, 74, 127
1, 254422, Note_on_c, 0, 72, 127
1, 254564, Note_off_c, 0, 72, 127
1, 254566, Note_on_c, 12, 71, 127
1, 254696, Note_off_c, 10, 45, 127
1, 254708, Note_off_c, 12, 71, 127
1, 254710, Note_on_c, 10, 69, 127
1, 254710, Note_on_c, 5, 41, 127
1, 254852, Note_off_c, 5, 41, 127
1, 254852, Note_off_c, 10, 69, 127
1, 254854, Note_on_c, 8, 68, 127
1, 254854, Note_on_c, 4, 40, 127
1, 254996, Note_off_c, 8, 68, 127
1, 254998, Note_on_c, 6, 66, 127
1, 255140, Note_off_c, 6, 66, 127
1, 255142, Note_on_c, 8, 68, 127
1, 255284, Note_off_c, 8, 68, 127
1, 255286, Note_on_c, 6, 66, 127
1, 255428, Note_off_c, 6, 66, 127
1, 255430, Note_on_c, 4, 64, 127
1, 255686, Note_off_c, 4, 40, 127
1, 255718, Note_on_c, 6, 42, 127
1, 255860, Note_off_c, 6, 42, 127
1, 255862, Note_on_c, 8, 44, 127
1, 256000, Note_off_c, 4, 64, 127
1, 256004, Note_off_c, 8, 44, 127
1, 256006, Note_on_c, 10, 45, 127
1, 256148, Note_off_c, 10, 45, 127
1, 256150, Note_on_c, 5, 77, 127
1, 256150, Note_on_c, 12, 47, 127
1, 256292, Note_off_c, 12, 47, 127
1, 256292, Note_off_c, 5, 77, 127
1, 256294, Note_on_c, 4, 76, 127
1, 256294, Note_on_c, 0, 48, 127
1, 256436, Note_off_c, 0, 48, 127
1, 256436, Note_off_c, 4, 76, 127
1, 256438, Note_on_c, 2, 74, 127
1, 256438, Note_on_c, 2, 50, 127
1, 256580, Note_off_c, 2, 50, 127
1, 256580, Note_off_c, 2, 74, 127
1, 256582, Note_on_c, 0, 72, 127
1, 256582, Note_on_c, 4, 52, 127
1, 256725, Note_off_c, 0, 72, 127
1, 256727, Note_on_c, 4, 76, 127
1, 256870, Note_off_c, 4, 76, 127
1, 256872, Note_on_c, 8, 80, 127
1, 257015, Note_off_c, 8, 80, 127
1, 257017, Note_on_c, 10, 81, 127
1, 257017, Note_on_c, 4, 40, 127
1, 257156, Note_off_c, 4, 52, 127
1, 257161, Note_off_c, 4, 40, 127
1, 257161, Note_off_c, 10, 81, 127
1, 257163, Note_on_c, 12, 71, 127
1, 257163, Note_on_c, 4, 52, 127
1, 257306, Note_off_c, 12, 71, 127
1, 257308, Note_on_c, 2, 74, 127
1, 257451, Note_off_c, 2, 74, 127
1, 257453, Note_on_c, 6, 78, 127
1, 257596, Note_off_c, 6, 78, 127
1, 257598, Note_on_c, 7, 79, 127
1, 257598, Note_on_c, 4, 40, 127
1, 257737, Note_off_c, 4, 52, 127
1, 257742, Note_off_c, 4, 40, 127
1, 257742, Note_off_c, 7, 79, 127
1, 257744, Note_on_c, 10, 69, 127
1, 257744, Note_on_c, 4, 52, 127
1, 257887, Note_off_c, 10, 69, 127
1, 257889, Note_on_c, 0, 72, 127
1, 258032, Note_off_c, 0, 72, 127
1, 258034, Note_on_c, 4, 76, 127
1, 258177, Note_off_c, 4, 76, 127
1, 258179, Note_on_c, 5, 77, 127
1, 258179, Note_on_c, 4, 40, 127
1, 258318, Note_off_c, 4, 52, 127
1, 258323, Note_off_c, 4, 40, 127
1, 258323, Note_off_c, 5, 77, 127
1, 258325, Note_on_c, 8, 68, 127
1, 258325, Note_on_c, 4, 52, 127
1, 258469, Note_off_c, 8, 68, 127
1, 258471, Note_on_c, 12, 71, 127
1, 258615, Note_off_c, 12, 71, 127
1, 258617, Note_on_c, 3, 75, 127
1, 258761, Note_off_c, 3, 75, 127
1, 258763, Note_on_c, 4, 76, 127
1, 258763, Note_on_c, 4, 40, 127
1, 258903, Note_off_c, 4, 52, 127
1, 258908, Note_off_c, 4, 40, 127
1, 258908, Note_off_c, 4, 76, 127
1, 258910, Note_on_c, 6, 66, 127
1, 258910, Note_on_c, 4, 52, 127
1, 259054, Note_off_c, 6, 66, 127
1, 259056, Note_on_c, 10, 69, 127
1, 259200, Note_off_c, 10, 69, 127
1, 259202, Note_on_c, 4, 76, 127
1, 259346, Note_off_c, 4, 76, 127
1, 259348, Note_on_c, 1, 73, 127
1, 259348, Note_on_c, 4, 40, 127
1, 259488, Note_off_c, 4, 52, 127
1, 259493, Note_off_c, 4, 40, 127
1, 259493, Note_off_c, 1, 73, 127
1, 259495, Note_on_c, 8, 68, 127
1, 259495, Note_on_c, 4, 52, 127
1, 259639, Note_off_c, 8, 68, 127
1, 259641, Note_on_c, 12, 71, 127
1, 259785, Note_off_c, 12, 71, 127
1, 259787, Note_on_c, 2, 74, 127
1, 259931, Note_off_c, 2, 74, 127
1, 259933, Note_on_c, 12, 71, 127
1, 259933, Note_on_c, 4, 40, 127
1, 260073, Note_off_c, 4, 52, 127
1, 260078, Note_off_c, 4, 40, 127
1, 260078, Note_off_c, 12, 71, 127
1, 260080, Note_on_c, 0, 72, 127
1, 260080, Note_on_c, 4, 52, 127
1, 260225, Note_off_c, 0, 72, 127
1, 260227, Note_on_c, 10, 69, 127
1, 260372, Note_off_c, 10, 69, 127
1, 260374, Note_on_c, 5, 65, 127
1, 260519, Note_off_c, 5, 65, 127
1, 260521, Note_on_c, 4, 64, 127
1, 260521, Note_on_c, 4, 40, 127
1, 260662, Note_off_c, 4, 52, 127
1, 260667, Note_off_c, 4, 40, 127
1, 260667, Note_off_c, 4, 64, 127
1, 260669, Note_on_c, 12, 71, 127
1, 260669, Note_on_c, 4, 52, 127
1, 260814, Note_off_c, 12, 71, 127
1, 260816, Note_on_c, 8, 68, 127
1, 260961, Note_off_c, 8, 68, 127
1, 260963, Note_on_c, 4, 64, 127
1, 261096, Note_off_c, 4, 52, 127
1, 261108, Note_off_c, 4, 64, 127
1, 261110, Note_on_c, 2, 62, 127
1, 261110, Note_on_c, 12, 47, 127
1, 261255, Note_off_c, 12, 47, 127
1, 261255, Note_off_c, 2, 62, 127
1, 261257, Note_on_c, 10, 69, 127
1, 261257, Note_on_c, 0, 48, 127
1, 261402, Note_off_c, 10, 69, 127
1, 261404, Note_on_c, 6, 66, 127
1, 261549, Note_off_c, 6, 66, 127
1, 261551, Note_on_c, 3, 63, 127
1, 261684, Note_off_c, 0, 48, 127
1, 261696, Note_off_c, 3, 63, 127
1, 261698, Note_on_c, 0, 60, 127
1, 261698, Note_on_c, 10, 45, 127
1, 261843, Note_off_c, 10, 45, 127
1, 261843, Note_off_c, 0, 60, 127
1, 261845, Note_on_c, 12, 59, 127
1, 261845, Note_on_c, 2, 38, 127
1, 261991, Note_off_c, 12, 59, 127
1, 261993, Note_on_c, 10, 69, 127
1, 262139, Note_off_c, 10, 69, 127
1, 262141, Note_on_c, 8, 68, 127
1, 262287, Note_off_c, 8, 68, 127
1, 262289, Note_on_c, 6, 66, 127
1, 262435, Note_off_c, 6, 66, 127
1, 262437, Note_on_c, 4, 64, 127
1, 262523, Note_off_c, 2, 38, 127
1, 262583, Note_off_c, 4, 64, 127
1, 262585, Note_on_c, 8, 68, 127
1, 262585, Note_on_c, 4, 40, 127
1, 262731, Note_off_c, 4, 40, 127
1, 262731, Note_off_c, 8, 68, 127
1, 262733, Note_on_c, 12, 71, 127
1, 262733, Note_on_c, 6, 42, 127
1, 262879, Note_off_c, 6, 42, 127
1, 262879, Note_off_c, 12, 71, 127
1, 262881, Note_on_c, 2, 74, 127
1, 262881, Note_on_c, 8, 44, 127
1, 263027, Note_off_c, 8, 44, 127
1, 263027, Note_off_c, 2, 74, 127
1, 263029, Note_on_c, 0, 72, 127
1, 263029, Note_on_c, 10, 45, 127
1, 263101, Note_off_c, 0, 72, 127
1, 263103, Note_on_c, 12, 71, 127
1, 263175, Note_off_c, 12, 71, 127
1, 263175, Note_off_c, 10, 45, 127
1, 263177, Note_on_c, 0, 72, 127
1, 263177, Note_on_c, 8, 44, 127
1, 263323, Note_off_c, 8, 44, 127
1, 263325, Note_on_c, 10, 45, 127
1, 263467, Note_on_c, 12, 47, 127
1, 263467, Note_on_c, 12, 71, 127
1, 263471, Note_off_c, 10, 45, 127
1, 263471, Note_off_c, 0, 72, 127
1, 263613, Note_off_c, 12, 71, 127
1, 263613, Note_off_c, 12, 47, 127
1, 263629, Note_on_c, 4, 76, 127
1, 263629, Note_on_c, 0, 48, 127
1, 263777, Note_off_c, 0, 48, 127
1, 263779, Note_on_c, 12, 47, 127
1, 263927, Note_off_c, 12, 47, 127
1, 263929, Note_on_c, 0, 48, 127
1, 264065, Note_off_c, 4, 76, 127
1, 264077, Note_off_c, 0, 48, 127
1, 264079, Note_on_c, 12, 71, 127
1, 264079, Note_on_c, 2, 50, 127
1, 264227, Note_off_c, 2, 50, 127
1, 264227, Note_off_c, 12, 71, 127
1, 264229, Note_on_c, 0, 72, 127
1, 264229, Note_on_c, 4, 52, 127
1, 264377, Note_off_c, 4, 52, 127
1, 264379, Note_on_c, 2, 50, 127
1, 264527, Note_off_c, 2, 50, 127
1, 264529, Note_on_c, 0, 48, 127
1, 264665, Note_off_c, 0, 72, 127
1, 264677, Note_off_c, 0, 48, 127
1, 264679, Note_on_c, 10, 69, 127
1, 264679, Note_on_c, 2, 50, 127
1, 264827, Note_off_c, 2, 50, 127
1, 264827, Note_off_c, 10, 69, 127
1, 264829, Note_on_c, 4, 64, 127
1, 264829, Note_on_c, 4, 52, 127
1, 264902, Note_off_c, 4, 64, 127
1, 264904, Note_on_c, 2, 62, 127
1, 264977, Note_off_c, 2, 62, 127
1, 264979, Note_on_c, 4, 64, 127
1, 265129, Note_on_c, 4, 40, 127
1, 265277, Note_off_c, 4, 64, 127
1, 265279, Note_on_c, 8, 68, 127
1, 265422, Note_off_c, 4, 52, 127
1, 265427, Note_off_c, 8, 68, 127
1, 265427, Note_off_c, 4, 40, 127
1, 265429, Note_on_c, 10, 69, 127
1, 265429, Note_on_c, 10, 45, 127
1, 265783, Note_on_c, 4, 64, 127
1, 265960, Note_on_c, 0, 60, 127
1, 266145, Note_on_c, 10, 57, 127
1, 267929, Note_off_c, 10, 45, 127
1, 268011, Note_off_c, 0, 60, 127
1, 268018, Note_off_c, 4, 64, 127
1, 268051, Note_off_c, 10, 69, 127
1, 269145, Note_off_c, 10, 57, 127
1, 269356, Note_on_c, 10, 69, 127
1, 269693, Note_off_c, 10, 69, 127
1, 269695, Note_on_c, 10, 69, 127
1, 269751, Note_on_c, 8, 68, 127
1, 269797, Note_off_c, 10, 69, 127
1, 269808, Note_on_c, 10, 69, 127
1, 269854, Note_off_c, 8, 68, 127
1, 269865, Note_on_c, 8, 68, 127
1, 269911, Note_off_c, 10, 69, 127
1, 269922, Note_on_c, 6, 66, 127
1, 269968, Note_off_c, 8, 68, 127
1, 269979, Note_on_c, 8, 68, 127
1, 270025, Note_off_c, 6, 66, 127
1, 270036, Note_on_c, 10, 69, 127
1, 270082, Note_off_c, 8, 68, 127
1, 270373, Note_off_c, 10, 69, 127
1, 270375, Note_on_c, 4, 64, 127
1, 270431, Note_on_c, 2, 62, 127
1, 270477, Note_off_c, 4, 64, 127
1, 270488, Note_on_c, 4, 64, 127
1, 270534, Note_off_c, 2, 62, 127
1, 270712, Note_off_c, 4, 64, 127
1, 270714, Note_on_c, 5, 65, 127
1, 270825, Note_off_c, 5, 65, 127
1, 270827, Note_on_c, 4, 64, 127
1, 270938, Note_off_c, 4, 64, 127
1, 270940, Note_on_c, 2, 62, 127
1, 271051, Note_off_c, 2, 62, 127
1, 271053, Note_on_c, 4, 64, 127
1, 271390, Note_off_c, 4, 64, 127
1, 271392, Note_on_c, 10, 57, 127
1, 271392, Note_on_c, 0, 60, 127
1, 271392, Note_on_c, 4, 64, 127
1, 271729, Note_off_c, 4, 64, 127
1, 271729, Note_off_c, 0, 60, 127
1, 271729, Note_off_c, 10, 57, 127
1, 271731, Note_on_c, 10, 57, 127
1, 271731, Note_on_c, 4, 64, 127
1, 271731, Note_on_c, 12, 59, 127
1, 271816, Note_on_c, 8, 56, 127
1, 271834, Note_off_c, 10, 57, 127
1, 271901, Note_on_c, 6, 54, 127
1, 271919, Note_off_c, 8, 56, 127
1, 271986, Note_on_c, 8, 56, 127
1, 272004, Note_off_c, 6, 54, 127
1, 272069, Note_off_c, 12, 59, 127
1, 272069, Note_off_c, 4, 64, 127
1, 272071, Note_on_c, 10, 57, 127
1, 272071, Note_on_c, 4, 64, 127
1, 272071, Note_on_c, 0, 60, 127
1, 272089, Note_off_c, 8, 56, 127
1, 272408, Note_off_c, 0, 60, 127
1, 272408, Note_off_c, 4, 64, 127
1, 272408, Note_off_c, 10, 57, 127
1, 272410, Note_on_c, 4, 52, 127
1, 272410, Note_on_c, 10, 69, 127
1, 272410, Note_on_c, 0, 72, 127
1, 272747, Note_off_c, 0, 72, 127
1, 272747, Note_off_c, 10, 69, 127
1, 272747, Note_off_c, 4, 52, 127
1, 272749, Note_on_c, 5, 53, 127
1, 272749, Note_on_c, 8, 68, 127
1, 272749, Note_on_c, 12, 71, 127
1, 272860, Note_off_c, 5, 53, 127
1, 272862, Note_on_c, 4, 52, 127
1, 272973, Note_off_c, 4, 52, 127
1, 272975, Note_on_c, 2, 50, 127
1, 273084, Note_off_c, 12, 71, 127
1, 273084, Note_off_c, 8, 68, 127
1, 273086, Note_off_c, 2, 50, 127
1, 273088, Note_on_c, 4, 52, 127
1, 273425, Note_off_c, 4, 52, 127
1, 273427, Note_on_c, 4, 40, 127
1, 273427, Note_on_c, 0, 60, 127
1, 273427, Note_on_c, 10, 69, 127
1, 273764, Note_off_c, 10, 69, 127
1, 273764, Note_off_c, 0, 60, 127
1, 273764, Note_off_c, 4, 40, 127
1, 273766, Note_on_c, 4, 40, 127
1, 273766, Note_on_c, 12, 59, 127
1, 273766, Note_on_c, 10, 69, 127
1, 273822, Note_on_c, 8, 68, 127
1, 273868, Note_off_c, 10, 69, 127
1, 273879, Note_on_c, 10, 69, 127
1, 273925, Note_off_c, 8, 68, 127
1, 273936, Note_on_c, 8, 68, 127
1, 273982, Note_off_c, 10, 69, 127
1, 273993, Note_on_c, 6, 66, 127
1, 274039, Note_off_c, 8, 68, 127
1, 274050, Note_on_c, 8, 68, 127
1, 274096, Note_off_c, 6, 66, 127
1, 274103, Note_off_c, 12, 59, 127
1, 274105, Note_off_c, 4, 40, 127
1, 274107, Note_on_c, 4, 40, 127
1, 274107, Note_on_c, 0, 60, 127
1, 274107, Note_on_c, 10, 69, 127
1, 274153, Note_off_c, 8, 68, 127
1, 274444, Note_off_c, 10, 69, 127
1, 274444, Note_off_c, 0, 60, 127
1, 274444, Note_off_c, 4, 40, 127
1, 274446, Note_on_c, 4, 52, 127
1, 274446, Note_on_c, 2, 74, 127
1, 274446, Note_on_c, 12, 71, 127
1, 274783, Note_off_c, 12, 71, 127
1, 274783, Note_off_c, 2, 74, 127
1, 274783, Note_off_c, 4, 52, 127
1, 274785, Note_on_c, 5, 53, 127
1, 274785, Note_on_c, 10, 69, 127
1, 274785, Note_on_c, 0, 72, 127
1, 274896, Note_off_c, 5, 53, 127
1, 274898, Note_on_c, 4, 52, 127
1, 275009, Note_off_c, 4, 52, 127
1, 275011, Note_on_c, 2, 50, 127
1, 275120, Note_off_c, 0, 72, 127
1, 275120, Note_off_c, 10, 69, 127
1, 275122, Note_off_c, 2, 50, 127
1, 275124, Note_on_c, 4, 52, 127
1, 275461, Note_off_c, 4, 52, 127
1, 275463, Note_on_c, 4, 40, 127
1, 275463, Note_on_c, 10, 69, 127
1, 275463, Note_on_c, 0, 60, 127
1, 275800, Note_off_c, 0, 60, 127
1, 275800, Note_off_c, 10, 69, 127
1, 275800, Note_off_c, 4, 40, 127
1, 275802, Note_on_c, 4, 40, 127
1, 275802, Note_on_c, 12, 59, 127
1, 275802, Note_on_c, 10, 69, 127
1, 275858, Note_on_c, 8, 68, 127
1, 275904, Note_off_c, 10, 69, 127
1, 275915, Note_on_c, 10, 69, 127
1, 275961, Note_off_c, 8, 68, 127
1, 275972, Note_on_c, 8, 68, 127
1, 276018, Note_off_c, 10, 69, 127
1, 276029, Note_on_c, 6, 66, 127
1, 276075, Note_off_c, 8, 68, 127
1, 276086, Note_on_c, 8, 68, 127
1, 276132, Note_off_c, 6, 66, 127
1, 276139, Note_off_c, 12, 59, 127
1, 276141, Note_off_c, 4, 40, 127
1, 276143, Note_on_c, 4, 40, 127
1, 276143, Note_on_c, 10, 69, 127
1, 276143, Note_on_c, 0, 60, 127
1, 276189, Note_off_c, 8, 68, 127
1, 276480, Note_off_c, 0, 60, 127
1, 276480, Note_off_c, 10, 69, 127
1, 276480, Note_off_c, 4, 40, 127
1, 276482, Note_on_c, 4, 52, 127
1, 276482, Note_on_c, 5, 77, 127
1, 276482, Note_on_c, 10, 69, 127
1, 276819, Note_off_c, 10, 69, 127
1, 276819, Note_off_c, 5, 77, 127
1, 276819, Note_off_c, 4, 52, 127
1, 276821, Note_on_c, 5, 53, 127
1, 276821, Note_on_c, 4, 76, 127
1, 276821, Note_on_c, 8, 68, 127
1, 276932, Note_off_c, 5, 53, 127
1, 276934, Note_on_c, 4, 52, 127
1, 277045, Note_off_c, 4, 52, 127
1, 277047, Note_on_c, 2, 50, 127
1, 277156, Note_off_c, 8, 68, 127
1, 277156, Note_off_c, 4, 76, 127
1, 277158, Note_off_c, 2, 50, 127
1, 277160, Note_on_c, 4, 52, 127
1, 277497, Note_off_c, 4, 52, 127
1, 277499, Note_on_c, 4, 64, 127
1, 277499, Note_on_c, 8, 68, 127
1, 277499, Note_on_c, 4, 76, 127
1, 277836, Note_off_c, 4, 76, 127
1, 277836, Note_off_c, 8, 68, 127
1, 277836, Note_off_c, 4, 64, 127
1, 277838, Note_on_c, 6, 66, 127
1, 277838, Note_on_c, 10, 69, 127
1, 277838, Note_on_c, 4, 76, 127
1, 278175, Note_off_c, 4, 76, 127
1, 278175, Note_off_c, 10, 69, 127
1, 278175, Note_off_c, 6, 66, 127
1, 278177, Note_on_c, 8, 68, 127
1, 278177, Note_on_c, 4, 76, 127
1, 278177, Note_on_c, 12, 71, 127
1, 278514, Note_off_c, 12, 71, 127
1, 278514, Note_off_c, 4, 76, 127
1, 278514, Note_off_c, 8, 68, 127
1, 278516, Note_on_c, 10, 69, 127
1, 278516, Note_on_c, 4, 76, 127
1, 278516, Note_on_c, 0, 72, 127
1, 278853, Note_off_c, 4, 76, 127
1, 278855, Note_on_c, 10, 57, 127
1, 278855, Note_on_c, 5, 77, 127
1, 278966, Note_off_c, 5, 77, 127
1, 278968, Note_on_c, 4, 76, 127
1, 279079, Note_off_c, 4, 76, 127
1, 279081, Note_on_c, 2, 74, 127
1, 279192, Note_off_c, 2, 74, 127
1, 279192, Note_off_c, 10, 57, 127
1, 279194, Note_on_c, 10, 57, 127
1, 279194, Note_on_c, 4, 76, 127
1, 279531, Note_off_c, 4, 76, 127
1, 279531, Note_off_c, 10, 57, 127
1, 279531, Note_off_c, 10, 69, 127
1, 279533, Note_on_c, 10, 69, 127
1, 279533, Note_on_c, 7, 79, 127
1, 279644, Note_off_c, 7, 79, 127
1, 279646, Note_on_c, 5, 77, 127
1, 279757, Note_off_c, 5, 77, 127
1, 279759, Note_on_c, 4, 76, 127
1, 279870, Note_off_c, 4, 76, 127
1, 279870, Note_off_c, 10, 69, 127
1, 279872, Note_on_c, 10, 69, 127
1, 279872, Note_on_c, 5, 77, 127
1, 280209, Note_off_c, 5, 77, 127
1, 280209, Note_off_c, 10, 69, 127
1, 280211, Note_on_c, 10, 57, 127
1, 280211, Note_on_c, 10, 81, 127
1, 280322, Note_off_c, 10, 81, 127
1, 280324, Note_on_c, 7, 79, 127
1, 280435, Note_off_c, 7, 79, 127
1, 280437, Note_on_c, 5, 77, 127
1, 280546, Note_off_c, 0, 72, 127
1, 280548, Note_off_c, 5, 77, 127
1, 280548, Note_off_c, 10, 57, 127
1, 280550, Note_on_c, 4, 64, 127
1, 280550, Note_on_c, 7, 79, 127
1, 280887, Note_off_c, 4, 64, 127
1, 280889, Note_on_c, 4, 52, 127
1, 280889, Note_on_c, 2, 74, 127
1, 281000, Note_off_c, 2, 74, 127
1, 281002, Note_on_c, 0, 72, 127
1, 281113, Note_off_c, 0, 72, 127
1, 281115, Note_on_c, 12, 71, 127
1, 281226, Note_off_c, 12, 71, 127
1, 281226, Note_off_c, 4, 52, 127
1, 281228, Note_on_c, 4, 52, 127
1, 281228, Note_on_c, 0, 72, 127
1, 281565, Note_off_c, 0, 72, 127
1, 281565, Note_off_c, 4, 52, 127
1, 281567, Note_on_c, 4, 64, 127
1, 281567, Note_on_c, 4, 76, 127
1, 281678, Note_off_c, 4, 76, 127
1, 281680, Note_on_c, 2, 74, 127
1, 281791, Note_off_c, 2, 74, 127
1, 281793, Note_on_c, 0, 72, 127
1, 281904, Note_off_c, 0, 72, 127
1, 281904, Note_off_c, 4, 64, 127
1, 281906, Note_on_c, 4, 64, 127
1, 281906, Note_on_c, 0, 72, 127
1, 282051, Note_off_c, 7, 79, 127
1, 282074, Note_off_c, 0, 72, 127
1, 282076, Note_on_c, 7, 79, 127
1, 282244, Note_off_c, 4, 64, 127
1, 282246, Note_on_c, 4, 52, 127
1, 282246, Note_on_c, 11, 70, 127
1, 282583, Note_off_c, 11, 70, 127
1, 282583, Note_off_c, 4, 52, 127
1, 282585, Note_on_c, 5, 53, 127
1, 282585, Note_on_c, 10, 69, 127
1, 282889, Note_off_c, 7, 79, 127
1, 282923, Note_off_c, 5, 53, 127
1, 282925, Note_on_c, 4, 52, 127
1, 282925, Note_on_c, 7, 79, 127
1, 283036, Note_off_c, 7, 79, 127
1, 283038, Note_on_c, 5, 77, 127
1, 283149, Note_off_c, 5, 77, 127
1, 283151, Note_on_c, 4, 76, 127
1, 283257, Note_off_c, 10, 69, 127
1, 283262, Note_off_c, 4, 76, 127
1, 283262, Note_off_c, 4, 52, 127
1, 283264, Note_on_c, 2, 50, 127
1, 283264, Note_on_c, 5, 77, 127
1, 283601, Note_off_c, 5, 77, 127
1, 283601, Note_off_c, 2, 50, 127
1, 283603, Note_on_c, 7, 55, 127
1, 283603, Note_on_c, 5, 77, 127
1, 283603, Note_on_c, 12, 71, 127
1, 283714, Note_off_c, 5, 77, 127
1, 283716, Note_on_c, 4, 76, 127
1, 283827, Note_off_c, 4, 76, 127
1, 283829, Note_on_c, 2, 74, 127
1, 283938, Note_off_c, 12, 71, 127
1, 283940, Note_off_c, 2, 74, 127
1, 283940, Note_off_c, 7, 55, 127
1, 283942, Note_on_c, 0, 60, 127
1, 283942, Note_on_c, 0, 72, 127
1, 283942, Note_on_c, 4, 76, 127
1, 284279, Note_off_c, 4, 76, 127
1, 284279, Note_off_c, 0, 60, 127
1, 284281, Note_on_c, 5, 53, 127
1, 284281, Note_on_c, 4, 76, 127
1, 284392, Note_off_c, 4, 76, 127
1, 284394, Note_on_c, 2, 74, 127
1, 284472, Note_off_c, 0, 72, 127
1, 284506, Note_off_c, 2, 74, 127
1, 284508, Note_on_c, 0, 72, 127
1, 284619, Note_off_c, 0, 72, 127
1, 284619, Note_off_c, 5, 53, 127
1, 284621, Note_on_c, 7, 55, 127
1, 284621, Note_on_c, 0, 72, 127
1, 284621, Note_on_c, 4, 76, 127
1, 284958, Note_off_c, 4, 76, 127
1, 284958, Note_off_c, 0, 72, 127
1, 284958, Note_off_c, 7, 55, 127
1, 284960, Note_on_c, 7, 43, 127
1, 284960, Note_on_c, 2, 74, 127
1, 284960, Note_on_c, 12, 71, 127
1, 285295, Note_off_c, 12, 71, 127
1, 285295, Note_off_c, 2, 74, 127
1, 285297, Note_off_c, 7, 43, 127
1, 285299, Note_on_c, 7, 43, 127
1, 285636, Note_off_c, 7, 43, 127
1, 285638, Note_on_c, 7, 55, 127
1, 285638, Note_on_c, 4, 76, 127
1, 285638, Note_on_c, 0, 84, 127
1, 285975, Note_off_c, 0, 84, 127
1, 285975, Note_off_c, 4, 76, 127
1, 285975, Note_off_c, 7, 55, 127
1, 285977, Note_on_c, 7, 55, 127
1, 285977, Note_on_c, 2, 74, 127
1, 285977, Note_on_c, 0, 84, 127
1, 286033, Note_on_c, 12, 83, 127
1, 286079, Note_off_c, 0, 84, 127
1, 286090, Note_on_c, 0, 84, 127
1, 286136, Note_off_c, 12, 83, 127
1, 286147, Note_on_c, 12, 83, 127
1, 286193, Note_off_c, 0, 84, 127
1, 286204, Note_on_c, 10, 81, 127
1, 286250, Note_off_c, 12, 83, 127
1, 286261, Note_on_c, 12, 83, 127
1, 286307, Note_off_c, 10, 81, 127
1, 286314, Note_off_c, 2, 74, 127
1, 286316, Note_off_c, 7, 55, 127
1, 286318, Note_on_c, 7, 43, 127
1, 286318, Note_on_c, 4, 76, 127
1, 286318, Note_on_c, 0, 84, 127
1, 286364, Note_off_c, 12, 83, 127
1, 286655, Note_off_c, 0, 84, 127
1, 286655, Note_off_c, 4, 76, 127
1, 286655, Note_off_c, 7, 43, 127
1, 286657, Note_on_c, 7, 55, 127
1, 286657, Note_on_c, 12, 71, 127
1, 286657, Note_on_c, 5, 77, 127
1, 286713, Note_on_c, 4, 76, 127
1, 286759, Note_off_c, 5, 77, 127
1, 286770, Note_on_c, 5, 77, 127
1, 286816, Note_off_c, 4, 76, 127
1, 286994, Note_off_c, 5, 77, 127
1, 286994, Note_off_c, 7, 55, 127
1, 286996, Note_on_c, 7, 43, 127
1, 286996, Note_on_c, 7, 79, 127
1, 287107, Note_off_c, 7, 79, 127
1, 287109, Note_on_c, 5, 77, 127
1, 287220, Note_off_c, 5, 77, 127
1, 287222, Note_on_c, 4, 76, 127
1, 287328, Note_off_c, 12, 71, 127
1, 287333, Note_off_c, 4, 76, 127
1, 287333, Note_off_c, 7, 43, 127
1, 287335, Note_on_c, 7, 43, 127
1, 287335, Note_on_c, 5, 77, 127
1, 287672, Note_off_c, 5, 77, 127
1, 287672, Note_off_c, 7, 43, 127
1, 287674, Note_on_c, 7, 55, 127
1, 287674, Note_on_c, 10, 81, 127
1, 287785, Note_off_c, 10, 81, 127
1, 287787, Note_on_c, 7, 79, 127
1, 287898, Note_off_c, 7, 79, 127
1, 287900, Note_on_c, 5, 77, 127
1, 288011, Note_off_c, 5, 77, 127
1, 288011, Note_off_c, 7, 55, 127
1, 288013, Note_on_c, 7, 55, 127
1, 288013, Note_on_c, 7, 79, 127
1, 288124, Note_off_c, 7, 79, 127
1, 288126, Note_on_c, 5, 77, 127
1, 288237, Note_off_c, 5, 77, 127
1, 288239, Note_on_c, 4, 76, 127
1, 288350, Note_off_c, 4, 76, 127
1, 288350, Note_off_c, 7, 55, 127
1, 288352, Note_on_c, 7, 43, 127
1, 288352, Note_on_c, 5, 77, 127
1, 288463, Note_off_c, 5, 77, 127
1, 288465, Note_on_c, 4, 76, 127
1, 288576, Note_off_c, 4, 76, 127
1, 288578, Note_on_c, 2, 74, 127
1, 288689, Note_off_c, 2, 74, 127
1, 288689, Note_off_c, 7, 43, 127
1, 288691, Note_on_c, 7, 55, 127
1, 288691, Note_on_c, 4, 76, 127
1, 288691, Note_on_c, 0, 72, 127
1, 288747, Note_on_c, 2, 74, 127
1, 288793, Note_off_c, 4, 76, 127
1, 288804, Note_on_c, 4, 76, 127
1, 288850, Note_off_c, 2, 74, 127
1, 289028, Note_off_c, 4, 76, 127
1, 289028, Note_off_c, 7, 55, 127
1, 289030, Note_on_c, 7, 43, 127
1, 289030, Note_on_c, 5, 77, 127
1, 289141, Note_off_c, 5, 77, 127
1, 289143, Note_on_c, 4, 76, 127
1, 289185, Note_off_c, 0, 72, 127
1, 289254, Note_off_c, 4, 76, 127
1, 289256, Note_on_c, 2, 74, 127
1, 289367, Note_off_c, 2, 74, 127
1, 289367, Note_off_c, 7, 43, 127
1, 289369, Note_on_c, 7, 43, 127
1, 289369, Note_on_c, 4, 76, 127
1, 289706, Note_off_c, 4, 76, 127
1, 289706, Note_off_c, 7, 43, 127
1, 289708, Note_on_c, 7, 55, 127
1, 289708, Note_on_c, 0, 84, 127
1, 289708, Note_on_c, 4, 76, 127
1, 290045, Note_off_c, 4, 76, 127
1, 290045, Note_off_c, 0, 84, 127
1, 290045, Note_off_c, 7, 55, 127
1, 290047, Note_on_c, 5, 53, 127
1, 290047, Note_on_c, 2, 74, 127
1, 290047, Note_on_c, 0, 84, 127
1, 290103, Note_on_c, 12, 83, 127
1, 290149, Note_off_c, 0, 84, 127
1, 290158, Note_off_c, 5, 53, 127
1, 290160, Note_on_c, 4, 52, 127
1, 290160, Note_on_c, 0, 84, 127
1, 290206, Note_off_c, 12, 83, 127
1, 290217, Note_on_c, 12, 83, 127
1, 290263, Note_off_c, 0, 84, 127
1, 290272, Note_off_c, 4, 52, 127
1, 290274, Note_on_c, 5, 53, 127
1, 290274, Note_on_c, 10, 81, 127
1, 290320, Note_off_c, 12, 83, 127
1, 290331, Note_on_c, 12, 83, 127
1, 290377, Note_off_c, 10, 81, 127
1, 290384, Note_off_c, 2, 74, 127
1, 290386, Note_off_c, 5, 53, 127
1, 290388, Note_on_c, 7, 55, 127
1, 290388, Note_on_c, 0, 84, 127
1, 290388, Note_on_c, 4, 76, 127
1, 290434, Note_off_c, 12, 83, 127
1, 290499, Note_off_c, 7, 55, 127
1, 290501, Note_on_c, 5, 53, 127
1, 290612, Note_off_c, 5, 53, 127
1, 290614, Note_on_c, 4, 52, 127
1, 290725, Note_off_c, 4, 52, 127
1, 290725, Note_off_c, 4, 76, 127
1, 290725, Note_off_c, 0, 84, 127
1, 290727, Note_on_c, 5, 53, 127
1, 290727, Note_on_c, 12, 71, 127
1, 290727, Note_on_c, 2, 74, 127
1, 290783, Note_on_c, 0, 72, 127
1, 290829, Note_off_c, 2, 74, 127
1, 290840, Note_on_c, 2, 74, 127
1, 290886, Note_off_c, 0, 72, 127
1, 291064, Note_off_c, 2, 74, 127
1, 291064, Note_off_c, 5, 53, 127
1, 291066, Note_on_c, 2, 50, 127
1, 291066, Note_on_c, 5, 77, 127
1, 291177, Note_off_c, 5, 77, 127
1, 291179, Note_on_c, 4, 76, 127
1, 291221, Note_off_c, 12, 71, 127
1, 291290, Note_off_c, 4, 76, 127
1, 291292, Note_on_c, 2, 74, 127
1, 291403, Note_off_c, 2, 74, 127
1, 291403, Note_off_c, 2, 50, 127
1, 291405, Note_on_c, 4, 52, 127
1, 291405, Note_on_c, 7, 79, 127
1, 291516, Note_off_c, 7, 79, 127
1, 291518, Note_on_c, 5, 77, 127
1, 291629, Note_off_c, 5, 77, 127
1, 291631, Note_on_c, 4, 76, 127
1, 291742, Note_off_c, 4, 76, 127
1, 291742, Note_off_c, 4, 52, 127
1, 291744, Note_on_c, 0, 48, 127
1, 291744, Note_on_c, 5, 77, 127
1, 291744, Note_on_c, 10, 69, 127
1, 291855, Note_off_c, 5, 77, 127
1, 291857, Note_on_c, 4, 76, 127
1, 291968, Note_off_c, 4, 76, 127
1, 291970, Note_on_c, 2, 74, 127
1, 292079, Note_off_c, 10, 69, 127
1, 292081, Note_off_c, 2, 74, 127
1, 292081, Note_off_c, 0, 48, 127
1, 292083, Note_on_c, 7, 55, 127
1, 292083, Note_on_c, 7, 67, 127
1, 292083, Note_on_c, 4, 76, 127
1, 292194, Note_off_c, 4, 76, 127
1, 292196, Note_on_c, 2, 74, 127
1, 292307, Note_off_c, 2, 74, 127
1, 292309, Note_on_c, 0, 72, 127
1, 292418, Note_off_c, 7, 67, 127
1, 292420, Note_off_c, 0, 72, 127
1, 292420, Note_off_c, 7, 55, 127
1, 292422, Note_on_c, 7, 43, 127
1, 292422, Note_on_c, 2, 74, 127
1, 292422, Note_on_c, 5, 65, 127
1, 292533, Note_off_c, 2, 74, 127
1, 292535, Note_on_c, 0, 72, 127
1, 292646, Note_off_c, 0, 72, 127
1, 292648, Note_on_c, 12, 71, 127
1, 292757, Note_off_c, 5, 65, 127
1, 292759, Note_off_c, 12, 71, 127
1, 292759, Note_off_c, 7, 43, 127
1, 292761, Note_on_c, 0, 48, 127
1, 292761, Note_on_c, 0, 72, 127
1, 292761, Note_on_c, 4, 64, 127
1, 293098, Note_off_c, 0, 48, 127
1, 293100, Note_on_c, 7, 43, 127
1, 293437, Note_off_c, 7, 43, 127
1, 293439, Note_on_c, 0, 36, 127
1, 293776, Note_off_c, 0, 36, 127
1, 293776, Note_off_c, 4, 64, 127
1, 293776, Note_off_c, 0, 72, 127
1, 293802, Note_on_c, 0, 60, 127
1, 294139, Note_off_c, 0, 60, 127
1, 294141, Note_on_c, 0, 60, 127
1, 294226, Note_on_c, 12, 59, 127
1, 294244, Note_off_c, 0, 60, 127
1, 294311, Note_on_c, 10, 57, 127
1, 294329, Note_off_c, 12, 59, 127
1, 294396, Note_on_c, 12, 59, 127
1, 294414, Note_off_c, 10, 57, 127
1, 294481, Note_on_c, 0, 60, 127
1, 294499, Note_off_c, 12, 59, 127
1, 294818, Note_off_c, 0, 60, 127
1, 294820, Note_on_c, 7, 55, 127
1, 295157, Note_off_c, 7, 55, 127
1, 295159, Note_on_c, 10, 57, 127
1, 295270, Note_off_c, 10, 57, 127
1, 295272, Note_on_c, 7, 55, 127
1, 295383, Note_off_c, 7, 55, 127
1, 295385, Note_on_c, 6, 54, 127
1, 295496, Note_off_c, 6, 54, 127
1, 295498, Note_on_c, 7, 55, 127
1, 295837, Note_on_c, 7, 79, 127
1, 295837, Note_on_c, 4, 76, 127
1, 295837, Note_on_c, 7, 43, 127
1, 295948, Note_off_c, 4, 76, 127
1, 295950, Note_on_c, 2, 74, 127
1, 296061, Note_off_c, 2, 74, 127
1, 296063, Note_on_c, 0, 72, 127
1, 296172, Note_off_c, 7, 79, 127
1, 296174, Note_off_c, 0, 72, 127
1, 296174, Note_off_c, 7, 43, 127
1, 296176, Note_on_c, 5, 77, 127
1, 296176, Note_on_c, 2, 74, 127
1, 296176, Note_on_c, 7, 43, 127
1, 296287, Note_off_c, 2, 74, 127
1, 296289, Note_on_c, 0, 72, 127
1, 296400, Note_off_c, 0, 72, 127
1, 296402, Note_on_c, 12, 71, 127
1, 296511, Note_off_c, 5, 77, 127
1, 296513, Note_off_c, 12, 71, 127
1, 296513, Note_off_c, 7, 43, 127
1, 296515, Note_on_c, 0, 72, 127
1, 296515, Note_on_c, 4, 76, 127
1, 296515, Note_on_c, 7, 43, 127
1, 296626, Note_off_c, 0, 72, 127
1, 296628, Note_on_c, 12, 71, 127
1, 296739, Note_off_c, 12, 71, 127
1, 296741, Note_on_c, 10, 69, 127
1, 296850, Note_off_c, 4, 76, 127
1, 296852, Note_off_c, 10, 69, 127
1, 296852, Note_off_c, 7, 43, 127
1, 296854, Note_on_c, 12, 71, 127
1, 296854, Note_on_c, 2, 74, 127
1, 296854, Note_on_c, 7, 43, 127
1, 296965, Note_off_c, 12, 71, 127
1, 296967, Note_on_c, 10, 69, 127
1, 297078, Note_off_c, 10, 69, 127
1, 297080, Note_on_c, 7, 67, 127
1, 297189, Note_off_c, 2, 74, 127
1, 297191, Note_off_c, 7, 67, 127
1, 297193, Note_on_c, 0, 72, 127
1, 297193, Note_on_c, 6, 78, 127
1, 297304, Note_off_c, 0, 72, 127
1, 297306, Note_on_c, 12, 71, 127
1, 297417, Note_off_c, 12, 71, 127
1, 297419, Note_on_c, 10, 69, 127
1, 297498, Note_off_c, 7, 55, 127
1, 297528, Note_off_c, 6, 78, 127
1, 297530, Note_off_c, 10, 69, 127
1, 297532, Note_on_c, 7, 79, 127
1, 297532, Note_on_c, 12, 71, 127
1, 297867, Note_off_c, 12, 71, 127
1, 297867, Note_off_c, 7, 79, 127
1, 297869, Note_off_c, 7, 43, 127
1, 297887, Note_on_c, 2, 62, 127
1, 298224, Note_off_c, 2, 62, 127
1, 298226, Note_on_c, 2, 62, 127
1, 298311, Note_on_c, 1, 61, 127
1, 298329, Note_off_c, 2, 62, 127
1, 298396, Note_on_c, 12, 59, 127
1, 298414, Note_off_c, 1, 61, 127
1, 298481, Note_on_c, 1, 61, 127
1, 298499, Note_off_c, 12, 59, 127
1, 298566, Note_on_c, 2, 62, 127
1, 298584, Note_off_c, 1, 61, 127
1, 298903, Note_off_c, 2, 62, 127
1, 298905, Note_on_c, 10, 57, 127
1, 299242, Note_off_c, 10, 57, 127
1, 299244, Note_on_c, 12, 59, 127
1, 299355, Note_off_c, 12, 59, 127
1, 299357, Note_on_c, 10, 57, 127
1, 299468, Note_off_c, 10, 57, 127
1, 299470, Note_on_c, 8, 56, 127
1, 299581, Note_off_c, 8, 56, 127
1, 299583, Note_on_c, 10, 57, 127
1, 299922, Note_on_c, 10, 45, 127
1, 299922, Note_on_c, 10, 69, 127
1, 299922, Note_on_c, 5, 77, 127
1, 300033, Note_off_c, 5, 77, 127
1, 300035, Note_on_c, 4, 76, 127
1, 300146, Note_off_c, 4, 76, 127
1, 300148, Note_on_c, 2, 74, 127
1, 300257, Note_off_c, 10, 69, 127
1, 300259, Note_off_c, 2, 74, 127
1, 300259, Note_off_c, 10, 45, 127
1, 300261, Note_on_c, 10, 45, 127
1, 300261, Note_on_c, 4, 76, 127
1, 300261, Note_on_c, 7, 67, 127
1, 300372, Note_off_c, 4, 76, 127
1, 300374, Note_on_c, 2, 74, 127
1, 300485, Note_off_c, 2, 74, 127
1, 300487, Note_on_c, 1, 73, 127
1, 300596, Note_off_c, 7, 67, 127
1, 300598, Note_off_c, 1, 73, 127
1, 300598, Note_off_c, 10, 45, 127
1, 300600, Note_on_c, 10, 45, 127
1, 300600, Note_on_c, 2, 74, 127
1, 300600, Note_on_c, 5, 65, 127
1, 300711, Note_off_c, 2, 74, 127
1, 300713, Note_on_c, 1, 73, 127
1, 300824, Note_off_c, 1, 73, 127
1, 300826, Note_on_c, 12, 71, 127
1, 300935, Note_off_c, 5, 65, 127
1, 300937, Note_off_c, 12, 71, 127
1, 300937, Note_off_c, 10, 45, 127
1, 300939, Note_on_c, 10, 45, 127
1, 300939, Note_on_c, 4, 64, 127
1, 300939, Note_on_c, 1, 73, 127
1, 300983, Note_off_c, 10, 57, 127
1, 301050, Note_off_c, 1, 73, 127
1, 301052, Note_on_c, 12, 71, 127
1, 301163, Note_off_c, 12, 71, 127
1, 301165, Note_on_c, 10, 69, 127
1, 301274, Note_off_c, 4, 64, 127
1, 301276, Note_off_c, 10, 69, 127
1, 301278, Note_on_c, 8, 68, 127
1, 301278, Note_on_c, 2, 74, 127
1, 301389, Note_off_c, 2, 74, 127
1, 301391, Note_on_c, 1, 73, 127
1, 301502, Note_off_c, 1, 73, 127
1, 301504, Note_on_c, 12, 71, 127
1, 301613, Note_off_c, 8, 68, 127
1, 301615, Note_off_c, 12, 71, 127
1, 301617, Note_on_c, 10, 69, 127
1, 301617, Note_on_c, 1, 73, 127
1, 301786, Note_off_c, 10, 45, 127
1, 301954, Note_off_c, 1, 73, 127
1, 301954, Note_off_c, 10, 69, 127
1, 301956, Note_on_c, 10, 57, 127
1, 301956, Note_on_c, 10, 69, 127
1, 302067, Note_off_c, 10, 69, 127
1, 302069, Note_on_c, 12, 71, 127
1, 302180, Note_off_c, 12, 71, 127
1, 302182, Note_on_c, 1, 73, 127
1, 302293, Note_off_c, 1, 73, 127
1, 302293, Note_off_c, 10, 57, 127
1, 302295, Note_on_c, 10, 57, 127
1, 302295, Note_on_c, 1, 73, 127
1, 302380, Note_on_c, 7, 55, 127
1, 302398, Note_off_c, 10, 57, 127
1, 302407, Note_off_c, 1, 73, 127
1, 302409, Note_on_c, 2, 74, 127
1, 302465, Note_on_c, 5, 53, 127
1, 302483, Note_off_c, 7, 55, 127
1, 302520, Note_off_c, 2, 74, 127
1, 302522, Note_on_c, 4, 76, 127
1, 302550, Note_on_c, 7, 55, 127
1, 302568, Note_off_c, 5, 53, 127
1, 302633, Note_off_c, 4, 76, 127
1, 302635, Note_on_c, 10, 57, 127
1, 302635, Note_on_c, 4, 76, 127
1, 302653, Note_off_c, 7, 55, 127
1, 302747, Note_off_c, 4, 76, 127
1, 302749, Note_on_c, 5, 77, 127
1, 302860, Note_off_c, 5, 77, 127
1, 302862, Note_on_c, 7, 79, 127
1, 302973, Note_off_c, 7, 79, 127
1, 302973, Note_off_c, 10, 57, 127
1, 302975, Note_on_c, 2, 50, 127
1, 302975, Note_on_c, 5, 77, 127
1, 303086, Note_off_c, 5, 77, 127
1, 303088, Note_on_c, 4, 76, 127
1, 303199, Note_off_c, 4, 76, 127
1, 303201, Note_on_c, 5, 77, 127
1, 303312, Note_off_c, 5, 77, 127
1, 303312, Note_off_c, 2, 50, 127
1, 303314, Note_on_c, 4, 52, 127
1, 303314, Note_on_c, 7, 79, 127
1, 303425, Note_off_c, 7, 79, 127
1, 303425, Note_off_c, 4, 52, 127
1, 303427, Note_on_c, 2, 50, 127
1, 303427, Note_on_c, 5, 77, 127
1, 303538, Note_off_c, 5, 77, 127
1, 303538, Note_off_c, 2, 50, 127
1, 303540, Note_on_c, 1, 49, 127
1, 303540, Note_on_c, 4, 76, 127
1, 303651, Note_off_c, 4, 76, 127
1, 303651, Note_off_c, 1, 49, 127
1, 303653, Note_on_c, 2, 50, 127
1, 303653, Note_on_c, 5, 77, 127
1, 303990, Note_off_c, 2, 50, 127
1, 303992, Note_on_c, 2, 62, 127
1, 303992, Note_on_c, 2, 74, 127
1, 304103, Note_off_c, 2, 74, 127
1, 304105, Note_on_c, 4, 76, 127
1, 304204, Note_off_c, 5, 77, 127
1, 304216, Note_off_c, 4, 76, 127
1, 304218, Note_on_c, 5, 77, 127
1, 304329, Note_off_c, 5, 77, 127
1, 304329, Note_off_c, 2, 62, 127
1, 304331, Note_on_c, 2, 62, 127
1, 304331, Note_on_c, 5, 77, 127
1, 304416, Note_on_c, 1, 61, 127
1, 304434, Note_off_c, 2, 62, 127
1, 304445, Note_on_c, 7, 79, 127
1, 304501, Note_on_c, 12, 59, 127
1, 304519, Note_off_c, 1, 61, 127
1, 304556, Note_off_c, 7, 79, 127
1, 304558, Note_on_c, 10, 81, 127
1, 304586, Note_on_c, 1, 61, 127
1, 304604, Note_off_c, 12, 59, 127
1, 304669, Note_off_c, 10, 81, 127
1, 304671, Note_on_c, 2, 62, 127
1, 304671, Note_on_c, 10, 81, 127
1, 304689, Note_off_c, 1, 61, 127
1, 304783, Note_off_c, 10, 81, 127
1, 304785, Note_on_c, 11, 82, 127
1, 304896, Note_off_c, 11, 82, 127
1, 304898, Note_on_c, 0, 84, 127
1, 305009, Note_off_c, 0, 84, 127
1, 305009, Note_off_c, 2, 62, 127
1, 305011, Note_on_c, 7, 55, 127
1, 305011, Note_on_c, 11, 82, 127
1, 305122, Note_off_c, 11, 82, 127
1, 305124, Note_on_c, 10, 81, 127
1, 305235, Note_off_c, 10, 81, 127
1, 305237, Note_on_c, 11, 82, 127
1, 305348, Note_off_c, 11, 82, 127
1, 305348, Note_off_c, 7, 55, 127
1, 305350, Note_on_c, 10, 57, 127
1, 305350, Note_on_c, 0, 84, 127
1, 305461, Note_off_c, 0, 84, 127
1, 305461, Note_off_c, 10, 57, 127
1, 305463, Note_on_c, 7, 55, 127
1, 305463, Note_on_c, 11, 82, 127
1, 305574, Note_off_c, 11, 82, 127
1, 305574, Note_off_c, 7, 55, 127
1, 305576, Note_on_c, 5, 53, 127
1, 305576, Note_on_c, 10, 81, 127
1, 305687, Note_off_c, 10, 81, 127
1, 305687, Note_off_c, 5, 53, 127
1, 305687, Note_off_c, 5, 77, 127
1, 305689, Note_on_c, 7, 55, 127
1, 305689, Note_on_c, 11, 82, 127
1, 305689, Note_on_c, 4, 76, 127
1, 306026, Note_off_c, 11, 82, 127
1, 306026, Note_off_c, 7, 55, 127
1, 306028, Note_on_c, 0, 60, 127
1, 306028, Note_on_c, 0, 72, 127
1, 306139, Note_off_c, 0, 72, 127
1, 306141, Note_on_c, 2, 74, 127
1, 306240, Note_off_c, 4, 76, 127
1, 306252, Note_off_c, 2, 74, 127
1, 306254, Note_on_c, 4, 76, 127
1, 306365, Note_off_c, 4, 76, 127
1, 306365, Note_off_c, 0, 60, 127
1, 306367, Note_on_c, 0, 60, 127
1, 306367, Note_on_c, 4, 76, 127
1, 306452, Note_on_c, 11, 58, 127
1, 306470, Note_off_c, 0, 60, 127
1, 306481, Note_on_c, 5, 77, 127
1, 306537, Note_on_c, 10, 57, 127
1, 306555, Note_off_c, 11, 58, 127
1, 306592, Note_off_c, 5, 77, 127
1, 306594, Note_on_c, 7, 79, 127
1, 306622, Note_on_c, 11, 58, 127
1, 306640, Note_off_c, 10, 57, 127
1, 306705, Note_off_c, 7, 79, 127
1, 306707, Note_on_c, 0, 60, 127
1, 306707, Note_on_c, 7, 79, 127
1, 306725, Note_off_c, 11, 58, 127
1, 306819, Note_off_c, 7, 79, 127
1, 306821, Note_on_c, 10, 81, 127
1, 306932, Note_off_c, 10, 81, 127
1, 306934, Note_on_c, 11, 82, 127
1, 307045, Note_off_c, 11, 82, 127
1, 307045, Note_off_c, 0, 60, 127
1, 307047, Note_on_c, 5, 53, 127
1, 307047, Note_on_c, 10, 81, 127
1, 307158, Note_off_c, 10, 81, 127
1, 307160, Note_on_c, 7, 79, 127
1, 307271, Note_off_c, 7, 79, 127
1, 307273, Note_on_c, 10, 81, 127
1, 307384, Note_off_c, 10, 81, 127
1, 307384, Note_off_c, 5, 53, 127
1, 307386, Note_on_c, 7, 55, 127
1, 307386, Note_on_c, 11, 82, 127
1, 307497, Note_off_c, 11, 82, 127
1, 307497, Note_off_c, 7, 55, 127
1, 307499, Note_on_c, 5, 53, 127
1, 307499, Note_on_c, 10, 81, 127
1, 307610, Note_off_c, 10, 81, 127
1, 307610, Note_off_c, 5, 53, 127
1, 307612, Note_on_c, 4, 52, 127
1, 307612, Note_on_c, 7, 79, 127
1, 307723, Note_off_c, 7, 79, 127
1, 307723, Note_off_c, 4, 52, 127
1, 307723, Note_off_c, 4, 76, 127
1, 307725, Note_on_c, 5, 53, 127
1, 307725, Note_on_c, 10, 81, 127
1, 307725, Note_on_c, 2, 74, 127
1, 308062, Note_off_c, 2, 74, 127
1, 308062, Note_off_c, 10, 81, 127
1, 308062, Note_off_c, 5, 53, 127
1, 308064, Note_on_c, 11, 58, 127
1, 308064, Note_on_c, 2, 74, 127
1, 308064, Note_on_c, 5, 65, 127
1, 308401, Note_off_c, 5, 65, 127
1, 308401, Note_off_c, 2, 74, 127
1, 308401, Note_off_c, 11, 58, 127
1, 308403, Note_on_c, 7, 55, 127
1, 308403, Note_on_c, 7, 67, 127
1, 308403, Note_on_c, 4, 76, 127
1, 308740, Note_off_c, 4, 76, 127
1, 308740, Note_off_c, 7, 67, 127
1, 308740, Note_off_c, 7, 55, 127
1, 308742, Note_on_c, 10, 57, 127
1, 308742, Note_on_c, 1, 73, 127
1, 308742, Note_on_c, 4, 64, 127
1, 309079, Note_off_c, 4, 64, 127
1, 309079, Note_off_c, 1, 73, 127
1, 309079, Note_off_c, 10, 57, 127
1, 309081, Note_on_c, 2, 50, 127
1, 309081, Note_on_c, 2, 74, 127
1, 309081, Note_on_c, 5, 65, 127
1, 309418, Note_off_c, 2, 50, 127
1, 309420, Note_on_c, 10, 45, 127
1, 309752, Note_off_c, 2, 74, 127
1, 309757, Note_off_c, 10, 45, 127
1, 309759, Note_on_c, 2, 38, 127
1, 309928, Note_off_c, 5, 65, 127
1, 310096, Note_off_c, 2, 38, 127
1, 310098, Note_on_c, 10, 57, 127
1, 310098, Note_on_c, 5, 77, 127
1, 310098, Note_on_c, 2, 74, 127
1, 310209, Note_off_c, 10, 57, 127
1, 310211, Note_on_c, 7, 55, 127
1, 310322, Note_off_c, 7, 55, 127
1, 310324, Note_on_c, 5, 53, 127
1, 310435, Note_off_c, 5, 53, 127
1, 310435, Note_off_c, 2, 74, 127
1, 310435, Note_off_c, 5, 77, 127
1, 310437, Note_on_c, 5, 53, 127
1, 310437, Note_on_c, 5, 77, 127
1, 310437, Note_on_c, 2, 74, 127
1, 310548, Note_off_c, 5, 53, 127
1, 310550, Note_on_c, 4, 52, 127
1, 310661, Note_off_c, 4, 52, 127
1, 310663, Note_on_c, 2, 50, 127
1, 310774, Note_off_c, 2, 50, 127
1, 310774, Note_off_c, 2, 74, 127
1, 310774, Note_off_c, 5, 77, 127
1, 310776, Note_on_c, 2, 50, 127
1, 310776, Note_on_c, 5, 77, 127
1, 310776, Note_on_c, 2, 74, 127
1, 310887, Note_off_c, 2, 50, 127
1, 310889, Note_on_c, 0, 48, 127
1, 311000, Note_off_c, 0, 48, 127
1, 311002, Note_on_c, 12, 47, 127
1, 311113, Note_off_c, 12, 47, 127
1, 311113, Note_off_c, 2, 74, 127
1, 311113, Note_off_c, 5, 77, 127
1, 311115, Note_on_c, 12, 47, 127
1, 311115, Note_on_c, 5, 77, 127
1, 311115, Note_on_c, 2, 74, 127
1, 311226, Note_off_c, 12, 47, 127
1, 311228, Note_on_c, 10, 45, 127
1, 311339, Note_off_c, 10, 45, 127
1, 311341, Note_on_c, 7, 43, 127
1, 311452, Note_off_c, 7, 43, 127
1, 311454, Note_on_c, 7, 43, 127
1, 311565, Note_off_c, 7, 43, 127
1, 311567, Note_on_c, 10, 45, 127
1, 311678, Note_off_c, 10, 45, 127
1, 311680, Note_on_c, 12, 47, 127
1, 311791, Note_off_c, 12, 47, 127
1, 311793, Note_on_c, 12, 47, 127
1, 311904, Note_off_c, 12, 47, 127
1, 311906, Note_on_c, 0, 48, 127
1, 312017, Note_off_c, 0, 48, 127
1, 312019, Note_on_c, 2, 50, 127
1, 312130, Note_off_c, 2, 50, 127
1, 312130, Note_off_c, 2, 74, 127
1, 312130, Note_off_c, 5, 77, 127
1, 312132, Note_on_c, 2, 50, 127
1, 312132, Note_on_c, 5, 77, 127
1, 312132, Note_on_c, 2, 74, 127
1, 312243, Note_off_c, 2, 50, 127
1, 312245, Note_on_c, 4, 52, 127
1, 312356, Note_off_c, 4, 52, 127
1, 312358, Note_on_c, 5, 53, 127
1, 312469, Note_off_c, 5, 53, 127
1, 312469, Note_off_c, 2, 74, 127
1, 312469, Note_off_c, 5, 77, 127
1, 312471, Note_on_c, 7, 55, 127
1, 312471, Note_on_c, 4, 76, 127
1, 312471, Note_on_c, 0, 72, 127
1, 312582, Note_off_c, 4, 76, 127
1, 312584, Note_on_c, 2, 74, 127
1, 312695, Note_off_c, 2, 74, 127
1, 312697, Note_on_c, 4, 76, 127
1, 312806, Note_off_c, 0, 72, 127
1, 312808, Note_off_c, 4, 76, 127
1, 312808, Note_off_c, 7, 55, 127
1, 312810, Note_on_c, 7, 43, 127
1, 312810, Note_on_c, 12, 71, 127
1, 312810, Note_on_c, 5, 77, 127
1, 312921, Note_off_c, 5, 77, 127
1, 312923, Note_on_c, 4, 76, 127
1, 313034, Note_off_c, 4, 76, 127
1, 313036, Note_on_c, 2, 74, 127
1, 313145, Note_off_c, 12, 71, 127
1, 313147, Note_off_c, 2, 74, 127
1, 313147, Note_off_c, 7, 43, 127
1, 313149, Note_on_c, 0, 48, 127
1, 313149, Note_on_c, 4, 76, 127
1, 313149, Note_on_c, 0, 72, 127
1, 313260, Note_off_c, 0, 48, 127
1, 313262, Note_on_c, 2, 50, 127
1, 313373, Note_off_c, 2, 50, 127
1, 313375, Note_on_c, 4, 52, 127
1, 313486, Note_off_c, 4, 52, 127
1, 313486, Note_off_c, 0, 72, 127
1, 313486, Note_off_c, 4, 76, 127
1, 313488, Note_on_c, 4, 52, 127
1, 313488, Note_on_c, 2, 74, 127
1, 313599, Note_off_c, 4, 52, 127
1, 313601, Note_on_c, 5, 53, 127
1, 313656, Note_off_c, 2, 74, 127
1, 313658, Note_on_c, 4, 76, 127
1, 313713, Note_off_c, 5, 53, 127
1, 313715, Note_on_c, 7, 55, 127
1, 313826, Note_off_c, 7, 55, 127
1, 313826, Note_off_c, 4, 76, 127
1, 313828, Note_on_c, 7, 55, 127
1, 313828, Note_on_c, 0, 72, 127
1, 313939, Note_off_c, 7, 55, 127
1, 313941, Note_on_c, 10, 57, 127
1, 314052, Note_off_c, 10, 57, 127
1, 314054, Note_on_c, 12, 59, 127
1, 314165, Note_off_c, 12, 59, 127
1, 314165, Note_off_c, 0, 72, 127
1, 314167, Note_on_c, 0, 60, 127
1, 314167, Note_on_c, 4, 64, 127
1, 314167, Note_on_c, 10, 81, 127
1, 314504, Note_off_c, 10, 81, 127
1, 314504, Note_off_c, 4, 64, 127
1, 314504, Note_off_c, 0, 60, 127
1, 314506, Note_on_c, 12, 59, 127
1, 314506, Note_on_c, 2, 62, 127
1, 314506, Note_on_c, 10, 81, 127
1, 314562, Note_on_c, 8, 80, 127
1, 314608, Note_off_c, 10, 81, 127
1, 314619, Note_on_c, 10, 81, 127
1, 314665, Note_off_c, 8, 80, 127
1, 314676, Note_on_c, 8, 80, 127
1, 314722, Note_off_c, 10, 81, 127
1, 314733, Note_on_c, 6, 78, 127
1, 314779, Note_off_c, 8, 80, 127
1, 314790, Note_on_c, 8, 80, 127
1, 314836, Note_off_c, 6, 78, 127
1, 314845, Note_off_c, 2, 62, 127
1, 314845, Note_off_c, 12, 59, 127
1, 314847, Note_on_c, 0, 60, 127
1, 314847, Note_on_c, 10, 57, 127
1, 314847, Note_on_c, 10, 81, 127
1, 314893, Note_off_c, 8, 80, 127
1, 315184, Note_off_c, 10, 81, 127
1, 315184, Note_off_c, 10, 57, 127
1, 315184, Note_off_c, 0, 60, 127
1, 315186, Note_on_c, 8, 56, 127
1, 315186, Note_on_c, 12, 59, 127
1, 315186, Note_on_c, 2, 74, 127
1, 315523, Note_off_c, 2, 74, 127
1, 315523, Note_off_c, 12, 59, 127
1, 315523, Note_off_c, 8, 56, 127
1, 315525, Note_on_c, 10, 57, 127
1, 315525, Note_on_c, 6, 54, 127
1, 315525, Note_on_c, 4, 76, 127
1, 315636, Note_off_c, 4, 76, 127
1, 315638, Note_on_c, 2, 74, 127
1, 315749, Note_off_c, 2, 74, 127
1, 315751, Note_on_c, 0, 72, 127
1, 315862, Note_off_c, 0, 72, 127
1, 315862, Note_off_c, 6, 54, 127
1, 315862, Note_off_c, 10, 57, 127
1, 315864, Note_on_c, 8, 56, 127
1, 315864, Note_on_c, 12, 59, 127
1, 315864, Note_on_c, 2, 74, 127
1, 315975, Note_off_c, 2, 74, 127
1, 315977, Note_on_c, 0, 72, 127
1, 316088, Note_off_c, 0, 72, 127
1, 316090, Note_on_c, 12, 71, 127
1, 316201, Note_off_c, 12, 71, 127
1, 316201, Note_off_c, 12, 59, 127
1, 316201, Note_off_c, 8, 56, 127
1, 316203, Note_on_c, 4, 64, 127
1, 316203, Note_on_c, 10, 57, 127
1, 316203, Note_on_c, 0, 72, 127
1, 316314, Note_off_c, 0, 72, 127
1, 316316, Note_on_c, 12, 71, 127
1, 316427, Note_off_c, 12, 71, 127
1, 316429, Note_on_c, 10, 69, 127
1, 316540, Note_off_c, 10, 69, 127
1, 316540, Note_off_c, 10, 57, 127
1, 316540, Note_off_c, 4, 64, 127
1, 316542, Note_on_c, 5, 53, 127
1, 316542, Note_on_c, 2, 62, 127
1, 316542, Note_on_c, 12, 71, 127
1, 316653, Note_off_c, 12, 71, 127
1, 316655, Note_on_c, 10, 69, 127
1, 316766, Note_off_c, 10, 69, 127
1, 316768, Note_on_c, 8, 68, 127
1, 316879, Note_off_c, 8, 68, 127
1, 316879, Note_off_c, 2, 62, 127
1, 316879, Note_off_c, 5, 53, 127
1, 316881, Note_on_c, 0, 60, 127
1, 316881, Note_on_c, 2, 50, 127
1, 316881, Note_on_c, 10, 69, 127
1, 316992, Note_off_c, 10, 69, 127
1, 316994, Note_on_c, 8, 68, 127
1, 317105, Note_off_c, 8, 68, 127
1, 317107, Note_on_c, 6, 66, 127
1, 317218, Note_off_c, 6, 66, 127
1, 317218, Note_off_c, 2, 50, 127
1, 317218, Note_off_c, 0, 60, 127
1, 317220, Note_on_c, 4, 52, 127
1, 317220, Note_on_c, 12, 59, 127
1, 317220, Note_on_c, 8, 68, 127
1, 317331, Note_off_c, 8, 68, 127
1, 317333, Note_on_c, 10, 69, 127
1, 317444, Note_off_c, 10, 69, 127
1, 317446, Note_on_c, 12, 71, 127
1, 317557, Note_off_c, 12, 71, 127
1, 317557, Note_off_c, 12, 59, 127
1, 317557, Note_off_c, 4, 52, 127
1, 317559, Note_on_c, 4, 40, 127
1, 317559, Note_on_c, 10, 69, 127
1, 317670, Note_off_c, 10, 69, 127
1, 317672, Note_on_c, 8, 68, 127
1, 317783, Note_off_c, 8, 68, 127
1, 317785, Note_on_c, 6, 66, 127
1, 317896, Note_off_c, 6, 66, 127
1, 317896, Note_off_c, 4, 40, 127
1, 317898, Note_on_c, 4, 40, 127
1, 317898, Note_on_c, 4, 64, 127
1, 318235, Note_off_c, 4, 64, 127
1, 318235, Note_off_c, 4, 40, 127
1, 318237, Note_on_c, 4, 52, 127
1, 318237, Note_on_c, 0, 72, 127
1, 318237, Note_on_c, 10, 69, 127
1, 318574, Note_off_c, 10, 69, 127
1, 318574, Note_off_c, 0, 72, 127
1, 318574, Note_off_c, 4, 52, 127
1, 318576, Note_on_c, 4, 52, 127
1, 318576, Note_on_c, 8, 68, 127
1, 318576, Note_on_c, 0, 72, 127
1, 318632, Note_on_c, 12, 71, 127
1, 318678, Note_off_c, 0, 72, 127
1, 318689, Note_on_c, 0, 72, 127
1, 318735, Note_off_c, 12, 71, 127
1, 318746, Note_on_c, 12, 71, 127
1, 318792, Note_off_c, 0, 72, 127
1, 318803, Note_on_c, 10, 69, 127
1, 318849, Note_off_c, 12, 71, 127
1, 318860, Note_on_c, 12, 71, 127
1, 318906, Note_off_c, 10, 69, 127
1, 318913, Note_off_c, 8, 68, 127
1, 318915, Note_off_c, 4, 52, 127
1, 318917, Note_on_c, 4, 40, 127
1, 318917, Note_on_c, 10, 69, 127
1, 318917, Note_on_c, 0, 72, 127
1, 318963, Note_off_c, 12, 71, 127
1, 319254, Note_off_c, 0, 72, 127
1, 319254, Note_off_c, 10, 69, 127
1, 319254, Note_off_c, 4, 40, 127
1, 319256, Note_on_c, 4, 52, 127
1, 319256, Note_on_c, 2, 74, 127
1, 319256, Note_on_c, 12, 71, 127
1, 319312, Note_on_c, 0, 72, 127
1, 319358, Note_off_c, 2, 74, 127
1, 319369, Note_on_c, 2, 74, 127
1, 319415, Note_off_c, 0, 72, 127
1, 319593, Note_off_c, 2, 74, 127
1, 319593, Note_off_c, 4, 52, 127
1, 319595, Note_on_c, 4, 40, 127
1, 319595, Note_on_c, 0, 72, 127
1, 319706, Note_off_c, 0, 72, 127
1, 319708, Note_on_c, 2, 74, 127
1, 319750, Note_off_c, 12, 71, 127
1, 319819, Note_off_c, 2, 74, 127
1, 319821, Note_on_c, 4, 76, 127
1, 319932, Note_off_c, 4, 76, 127
1, 319932, Note_off_c, 4, 40, 127
1, 319934, Note_on_c, 4, 40, 127
1, 319934, Note_on_c, 2, 74, 127
1, 320271, Note_off_c, 2, 74, 127
1, 320271, Note_off_c, 4, 40, 127
1, 320273, Note_on_c, 4, 52, 127
1, 320273, Note_on_c, 12, 71, 127
1, 320273, Note_on_c, 8, 68, 127
1, 320384, Note_off_c, 12, 71, 127
1, 320386, Note_on_c, 0, 72, 127
1, 320497, Note_off_c, 0, 72, 127
1, 320499, Note_on_c, 2, 74, 127
1, 320608, Note_off_c, 8, 68, 127
1, 320610, Note_off_c, 2, 74, 127
1, 320610, Note_off_c, 4, 52, 127
1, 320612, Note_on_c, 4, 52, 127
1, 320612, Note_on_c, 0, 72, 127
1, 320612, Note_on_c, 10, 69, 127
1, 320723, Note_off_c, 0, 72, 127
1, 320725, Note_on_c, 2, 74, 127
1, 320836, Note_off_c, 2, 74, 127
1, 320838, Note_on_c, 4, 76, 127
1, 320947, Note_off_c, 10, 69, 127
1, 320949, Note_off_c, 4, 76, 127
1, 320949, Note_off_c, 4, 52, 127
1, 320951, Note_on_c, 4, 40, 127
1, 320951, Note_on_c, 2, 74, 127
1, 320951, Note_on_c, 12, 71, 127
1, 321062, Note_off_c, 2, 74, 127
1, 321064, Note_on_c, 4, 76, 127
1, 321175, Note_off_c, 4, 76, 127
1, 321177, Note_on_c, 5, 77, 127
1, 321286, Note_off_c, 12, 71, 127
1, 321288, Note_off_c, 5, 77, 127
1, 321288, Note_off_c, 4, 40, 127
1, 321290, Note_on_c, 2, 50, 127
1, 321290, Note_on_c, 8, 68, 127
1, 321290, Note_on_c, 4, 76, 127
1, 321401, Note_off_c, 4, 76, 127
1, 321403, Note_on_c, 2, 74, 127
1, 321514, Note_off_c, 2, 74, 127
1, 321516, Note_on_c, 4, 76, 127
1, 321627, Note_off_c, 4, 76, 127
1, 321627, Note_off_c, 2, 50, 127
1, 321629, Note_on_c, 2, 38, 127
1, 321629, Note_on_c, 5, 77, 127
1, 321740, Note_off_c, 5, 77, 127
1, 321742, Note_on_c, 4, 76, 127
1, 321853, Note_off_c, 4, 76, 127
1, 321855, Note_on_c, 2, 74, 127
1, 321961, Note_off_c, 8, 68, 127
1, 321966, Note_off_c, 2, 74, 127
1, 321966, Note_off_c, 2, 38, 127
1, 321968, Note_on_c, 2, 38, 127
1, 321968, Note_on_c, 4, 76, 127
1, 322215, Note_off_c, 2, 38, 127
1, 322293, Note_off_c, 4, 76, 127
1, 322315, Note_on_c, 0, 60, 127
1, 322315, Note_on_c, 10, 81, 127
1, 322315, Note_on_c, 4, 76, 127
1, 322652, Note_off_c, 4, 76, 127
1, 322652, Note_off_c, 10, 81, 127
1, 322652, Note_off_c, 0, 60, 127
1, 322654, Note_on_c, 12, 59, 127
1, 322654, Note_on_c, 2, 74, 127
1, 322654, Note_on_c, 10, 81, 127
1, 322710, Note_on_c, 8, 80, 127
1, 322756, Note_off_c, 10, 81, 127
1, 322765, Note_off_c, 12, 59, 127
1, 322767, Note_on_c, 10, 57, 127
1, 322767, Note_on_c, 10, 81, 127
1, 322813, Note_off_c, 8, 80, 127
1, 322824, Note_on_c, 8, 80, 127
1, 322870, Note_off_c, 10, 81, 127
1, 322879, Note_off_c, 10, 57, 127
1, 322881, Note_on_c, 12, 59, 127
1, 322881, Note_on_c, 6, 78, 127
1, 322927, Note_off_c, 8, 80, 127
1, 322938, Note_on_c, 8, 80, 127
1, 322984, Note_off_c, 6, 78, 127
1, 322991, Note_off_c, 2, 74, 127
1, 322993, Note_off_c, 12, 59, 127
1, 322995, Note_on_c, 0, 60, 127
1, 322995, Note_on_c, 10, 81, 127
1, 322995, Note_on_c, 4, 76, 127
1, 323041, Note_off_c, 8, 80, 127
1, 323106, Note_off_c, 0, 60, 127
1, 323108, Note_on_c, 12, 59, 127
1, 323219, Note_off_c, 12, 59, 127
1, 323221, Note_on_c, 10, 57, 127
1, 323332, Note_off_c, 10, 57, 127
1, 323332, Note_off_c, 4, 76, 127
1, 323332, Note_off_c, 10, 81, 127
1, 323334, Note_on_c, 8, 56, 127
1, 323334, Note_on_c, 2, 74, 127
1, 323334, Note_on_c, 12, 71, 127
1, 323392, Note_on_c, 0, 72, 127
1, 323439, Note_off_c, 2, 74, 127
1, 323450, Note_on_c, 2, 74, 127
1, 323497, Note_off_c, 0, 72, 127
1, 323681, Note_off_c, 2, 74, 127
1, 323681, Note_off_c, 8, 56, 127
1, 323683, Note_on_c, 4, 52, 127
1, 323683, Note_on_c, 5, 77, 127
1, 323798, Note_off_c, 5, 77, 127
1, 323800, Note_on_c, 4, 76, 127
1, 323915, Note_off_c, 4, 76, 127
1, 323917, Note_on_c, 2, 74, 127
1, 324026, Note_off_c, 12, 71, 127
1, 324031, Note_off_c, 2, 74, 127
1, 324031, Note_off_c, 4, 52, 127
1, 324033, Note_on_c, 0, 48, 127
1, 324033, Note_on_c, 4, 76, 127
1, 324148, Note_off_c, 4, 76, 127
1, 324150, Note_on_c, 2, 74, 127
1, 324265, Note_off_c, 2, 74, 127
1, 324267, Note_on_c, 0, 72, 127
1, 324382, Note_off_c, 0, 72, 127
1, 324382, Note_off_c, 0, 48, 127
1, 324384, Note_on_c, 10, 45, 127
1, 324384, Note_on_c, 2, 74, 127
1, 324384, Note_on_c, 5, 65, 127
1, 324499, Note_off_c, 2, 74, 127
1, 324501, Note_on_c, 0, 72, 127
1, 324616, Note_off_c, 0, 72, 127
1, 324618, Note_on_c, 12, 71, 127
1, 324731, Note_off_c, 5, 65, 127
1, 324733, Note_off_c, 12, 71, 127
1, 324733, Note_off_c, 10, 45, 127
1, 324735, Note_on_c, 4, 52, 127
1, 324735, Note_on_c, 0, 72, 127
1, 324735, Note_on_c, 4, 64, 127
1, 324855, Note_off_c, 0, 72, 127
1, 324857, Note_on_c, 12, 71, 127
1, 324977, Note_off_c, 12, 71, 127
1, 324979, Note_on_c, 10, 69, 127
1, 325097, Note_off_c, 4, 64, 127
1, 325099, Note_off_c, 10, 69, 127
1, 325099, Note_off_c, 4, 52, 127
1, 325101, Note_on_c, 4, 40, 127
1, 325101, Note_on_c, 2, 62, 127
1, 325101, Note_on_c, 12, 71, 127
1, 325221, Note_off_c, 12, 71, 127
1, 325223, Note_on_c, 10, 69, 127
1, 325343, Note_off_c, 10, 69, 127
1, 325345, Note_on_c, 8, 68, 127
1, 325463, Note_off_c, 2, 62, 127
1, 325465, Note_off_c, 8, 68, 127
1, 325465, Note_off_c, 4, 40, 127
1, 325467, Note_on_c, 10, 45, 127
1, 325467, Note_on_c, 10, 69, 127
1, 325467, Note_on_c, 0, 60, 127
1, 325959, Note_off_c, 10, 45, 127
1, 325984, Note_on_c, 4, 52, 127
1, 326505, Note_off_c, 4, 52, 127
1, 326547, Note_on_c, 10, 57, 127
1, 328342, Note_off_c, 0, 60, 127
1, 328342, Note_off_c, 10, 69, 127
1, 328372, Note_off_c, 10, 57, 127
1, 328827, Note_on_c, 10, 57, 127
1, 328827, Note_on_c, 4, 52, 127
1, 328827, Note_on_c, 10, 45, 127
1, 328827, Note_on_c, 0, 48, 127
1, 328827, Note_on_c, 10, 69, 127
1, 329036, Note_on_c, 12, 71, 127
1, 329044, Note_off_c, 10, 69, 127
1, 329241, Note_off_c, 0, 48, 127
1, 329241, Note_off_c, 10, 45, 127
1, 329241, Note_off_c, 4, 52, 127
1, 329241, Note_off_c, 10, 57, 127
1, 329245, Note_on_c, 0, 72, 127
1, 329253, Note_off_c, 12, 71, 127
1, 329314, Note_off_c, 0, 72, 127
1, 329315, Note_on_c, 12, 71, 127
1, 329384, Note_off_c, 12, 71, 127
1, 329385, Note_on_c, 0, 72, 127
1, 329454, Note_off_c, 0, 72, 127
1, 329455, Note_on_c, 12, 71, 127
1, 329524, Note_off_c, 12, 71, 127
1, 329525, Note_on_c, 10, 69, 127
1, 329594, Note_off_c, 10, 69, 127
1, 329595, Note_on_c, 12, 71, 127
1, 329664, Note_off_c, 12, 71, 127
1, 329665, Note_on_c, 0, 72, 127
1, 329861, Note_off_c, 0, 72, 127
1, 329874, Note_on_c, 8, 68, 127
1, 330050, Note_off_c, 8, 68, 127
1, 330083, Note_on_c, 10, 57, 127
1, 330083, Note_on_c, 10, 69, 127
1, 330291, Note_off_c, 10, 57, 127
1, 330292, Note_on_c, 12, 59, 127
1, 330388, Note_off_c, 10, 69, 127
1, 330500, Note_off_c, 12, 59, 127
1, 330501, Note_on_c, 0, 60, 127
1, 330501, Note_on_c, 4, 64, 127
1, 330605, Note_off_c, 0, 60, 127
1, 330606, Note_on_c, 12, 59, 127
1, 330710, Note_off_c, 12, 59, 127
1, 330711, Note_on_c, 10, 57, 127
1, 330807, Note_off_c, 4, 64, 127
1, 330815, Note_off_c, 10, 57, 127
1, 330816, Note_on_c, 12, 59, 127
1, 330920, Note_off_c, 12, 59, 127
1, 330921, Note_on_c, 0, 60, 127
1, 330921, Note_on_c, 10, 69, 127
1, 331129, Note_off_c, 0, 60, 127
1, 331130, Note_on_c, 10, 57, 127
1, 331226, Note_off_c, 10, 69, 127
1, 331338, Note_off_c, 10, 57, 127
1, 331339, Note_on_c, 8, 56, 127
1, 331339, Note_on_c, 12, 71, 127
1, 331548, Note_on_c, 0, 72, 127
1, 331556, Note_off_c, 12, 71, 127
1, 331732, Note_off_c, 8, 56, 127
1, 331758, Note_on_c, 10, 57, 127
1, 331758, Note_on_c, 2, 74, 127
1, 331766, Note_off_c, 0, 72, 127
1, 331827, Note_off_c, 2, 74, 127
1, 331828, Note_on_c, 0, 72, 127
1, 331897, Note_off_c, 0, 72, 127
1, 331898, Note_on_c, 2, 74, 127
1, 331967, Note_off_c, 2, 74, 127
1, 331968, Note_on_c, 0, 72, 127
1, 332037, Note_off_c, 0, 72, 127
1, 332038, Note_on_c, 12, 71, 127
1, 332107, Note_off_c, 12, 71, 127
1, 332108, Note_on_c, 0, 72, 127
1, 332152, Note_off_c, 10, 57, 127
1, 332177, Note_off_c, 0, 72, 127
1, 332178, Note_on_c, 5, 53, 127
1, 332178, Note_on_c, 2, 74, 127
1, 332386, Note_off_c, 2, 74, 127
1, 332387, Note_on_c, 10, 69, 127
1, 332570, Note_off_c, 5, 53, 127
1, 332595, Note_off_c, 10, 69, 127
1, 332596, Note_on_c, 4, 52, 127
1, 332596, Note_on_c, 12, 71, 127
1, 332647, Note_off_c, 12, 71, 127
1, 332648, Note_on_c, 10, 69, 127
1, 332699, Note_off_c, 10, 69, 127
1, 332700, Note_on_c, 12, 71, 127
1, 332804, Note_off_c, 4, 52, 127
1, 332805, Note_on_c, 6, 54, 127
1, 333013, Note_off_c, 6, 54, 127
1, 333013, Note_off_c, 12, 71, 127
1, 333014, Note_on_c, 8, 56, 127
1, 333014, Note_on_c, 4, 76, 127
1, 333118, Note_off_c, 8, 56, 127
1, 333119, Note_on_c, 6, 54, 127
1, 333223, Note_off_c, 6, 54, 127
1, 333224, Note_on_c, 4, 52, 127
1, 333328, Note_off_c, 4, 52, 127
1, 333329, Note_on_c, 6, 54, 127
1, 333386, Note_off_c, 4, 76, 127
1, 333433, Note_off_c, 6, 54, 127
1, 333434, Note_on_c, 8, 56, 127
1, 333434, Note_on_c, 2, 74, 127
1, 333642, Note_off_c, 8, 56, 127
1, 333643, Note_on_c, 4, 52, 127
1, 333815, Note_off_c, 2, 74, 127
1, 333851, Note_off_c, 4, 52, 127
1, 333852, Note_on_c, 10, 57, 127
1, 333852, Note_on_c, 2, 74, 127
1, 333956, Note_off_c, 2, 74, 127
1, 333957, Note_on_c, 0, 72, 127
1, 334061, Note_off_c, 0, 72, 127
1, 334061, Note_off_c, 10, 57, 127
1, 334062, Note_on_c, 10, 45, 127
1, 334062, Note_on_c, 12, 71, 127
1, 334166, Note_off_c, 12, 71, 127
1, 334167, Note_on_c, 0, 72, 127
1, 334272, Note_on_c, 5, 77, 127
1, 334376, Note_off_c, 10, 45, 127
1, 334377, Note_on_c, 10, 69, 127
1, 334481, Note_off_c, 10, 69, 127
1, 334482, Note_on_c, 7, 67, 127
1, 334586, Note_off_c, 7, 67, 127
1, 334587, Note_on_c, 5, 65, 127
1, 334686, Note_off_c, 0, 72, 127
1, 334690, Note_off_c, 5, 77, 127
1, 334691, Note_on_c, 4, 76, 127
1, 334691, Note_on_c, 12, 71, 127
1, 334795, Note_off_c, 5, 65, 127
1, 334796, Note_on_c, 7, 67, 127
1, 334900, Note_off_c, 7, 67, 127
1, 334901, Note_on_c, 5, 65, 127
1, 335005, Note_off_c, 5, 65, 127
1, 335006, Note_on_c, 4, 64, 127
1, 335085, Note_off_c, 12, 71, 127
1, 335110, Note_off_c, 4, 64, 127
1, 335110, Note_off_c, 4, 76, 127
1, 335111, Note_on_c, 5, 65, 127
1, 335111, Note_on_c, 12, 71, 127
1, 335215, Note_off_c, 12, 71, 127
1, 335216, Note_on_c, 10, 69, 127
1, 335320, Note_off_c, 10, 69, 127
1, 335320, Note_off_c, 5, 65, 127
1, 335321, Note_on_c, 5, 53, 127
1, 335321, Note_on_c, 8, 68, 127
1, 335425, Note_off_c, 8, 68, 127
1, 335426, Note_on_c, 10, 69, 127
1, 335531, Note_on_c, 2, 74, 127
1, 335635, Note_off_c, 5, 53, 127
1, 335636, Note_on_c, 5, 65, 127
1, 335740, Note_off_c, 5, 65, 127
1, 335741, Note_on_c, 4, 64, 127
1, 335845, Note_off_c, 4, 64, 127
1, 335846, Note_on_c, 2, 62, 127
1, 335945, Note_off_c, 10, 69, 127
1, 335949, Note_off_c, 2, 74, 127
1, 335950, Note_on_c, 7, 67, 127
1, 335950, Note_on_c, 0, 72, 127
1, 336054, Note_off_c, 2, 62, 127
1, 336055, Note_on_c, 4, 64, 127
1, 336159, Note_off_c, 4, 64, 127
1, 336160, Note_on_c, 2, 62, 127
1, 336264, Note_off_c, 2, 62, 127
1, 336265, Note_on_c, 0, 60, 127
1, 336354, Note_off_c, 7, 67, 127
1, 336368, Note_off_c, 0, 60, 127
1, 336369, Note_on_c, 5, 65, 127
1, 336369, Note_on_c, 2, 62, 127
1, 336386, Note_off_c, 0, 72, 127
1, 336473, Note_on_c, 12, 71, 127
1, 336577, Note_off_c, 12, 71, 127
1, 336577, Note_off_c, 2, 62, 127
1, 336578, Note_on_c, 12, 59, 127
1, 336578, Note_on_c, 10, 69, 127
1, 336682, Note_off_c, 10, 69, 127
1, 336683, Note_on_c, 8, 68, 127
1, 336783, Note_off_c, 5, 65, 127
1, 336786, Note_off_c, 8, 68, 127
1, 336786, Note_off_c, 12, 59, 127
1, 336787, Note_on_c, 4, 64, 127
1, 336787, Note_on_c, 0, 60, 127
1, 336787, Note_on_c, 10, 69, 127
1, 336891, Note_off_c, 10, 69, 127
1, 336892, Note_on_c, 12, 71, 127
1, 336996, Note_off_c, 12, 71, 127
1, 336996, Note_off_c, 0, 60, 127
1, 336997, Note_on_c, 10, 57, 127
1, 336997, Note_on_c, 0, 72, 127
1, 337101, Note_off_c, 0, 72, 127
1, 337101, Note_off_c, 10, 57, 127
1, 337102, Note_on_c, 12, 59, 127
1, 337102, Note_on_c, 2, 74, 127
1, 337206, Note_off_c, 2, 74, 127
1, 337206, Note_off_c, 12, 59, 127
1, 337207, Note_on_c, 0, 60, 127
1, 337207, Note_on_c, 4, 76, 127
1, 337311, Note_off_c, 4, 76, 127
1, 337312, Note_on_c, 2, 74, 127
1, 337416, Note_off_c, 2, 74, 127
1, 337416, Note_off_c, 0, 60, 127
1, 337416, Note_off_c, 4, 64, 127
1, 337417, Note_on_c, 2, 62, 127
1, 337417, Note_on_c, 4, 76, 127
1, 337521, Note_off_c, 4, 76, 127
1, 337522, Note_on_c, 5, 77, 127
1, 337626, Note_off_c, 5, 77, 127
1, 337626, Note_off_c, 2, 62, 127
1, 337627, Note_on_c, 4, 64, 127
1, 337627, Note_on_c, 10, 69, 127
1, 337696, Note_off_c, 10, 69, 127
1, 337697, Note_on_c, 8, 68, 127
1, 337766, Note_off_c, 8, 68, 127
1, 337767, Note_on_c, 10, 69, 127
1, 337836, Note_off_c, 10, 69, 127
1, 337836, Note_off_c, 4, 64, 127
1, 337837, Note_on_c, 5, 65, 127
1, 337837, Note_on_c, 8, 68, 127
1, 337906, Note_off_c, 8, 68, 127
1, 337907, Note_on_c, 10, 69, 127
1, 337976, Note_off_c, 10, 69, 127
1, 337977, Note_on_c, 8, 68, 127
1, 338046, Note_off_c, 8, 68, 127
1, 338046, Note_off_c, 5, 65, 127
1, 338047, Note_on_c, 4, 64, 127
1, 338047, Note_on_c, 10, 69, 127
1, 338116, Note_off_c, 10, 69, 127
1, 338117, Note_on_c, 8, 68, 127
1, 338256, Note_off_c, 8, 68, 127
1, 338256, Note_off_c, 4, 64, 127
1, 338257, Note_on_c, 2, 62, 127
1, 338257, Note_on_c, 6, 66, 127
1, 338465, Note_off_c, 6, 66, 127
1, 338465, Note_off_c, 2, 62, 127
1, 338466, Note_on_c, 0, 60, 127
1, 338466, Note_on_c, 4, 64, 127
1, 338674, Note_off_c, 0, 60, 127
1, 338675, Note_on_c, 12, 59, 127
1, 338771, Note_off_c, 4, 64, 127
1, 338883, Note_off_c, 12, 59, 127
1, 338884, Note_on_c, 10, 57, 127
1, 338884, Note_on_c, 0, 72, 127
1, 339092, Note_off_c, 10, 57, 127
1, 339093, Note_on_c, 10, 45, 127
1, 339093, Note_on_c, 4, 64, 127
1, 339197, Note_off_c, 4, 64, 127
1, 339198, Note_on_c, 5, 65, 127
1, 339302, Note_off_c, 5, 65, 127
1, 339303, Note_on_c, 7, 67, 127
1, 339334, Note_off_c, 10, 45, 127
1, 339372, Note_off_c, 7, 67, 127
1, 339373, Note_on_c, 5, 65, 127
1, 339408, Note_on_c, 10, 57, 127
1, 339442, Note_off_c, 5, 65, 127
1, 339443, Note_on_c, 7, 67, 127
1, 339512, Note_off_c, 7, 67, 127
1, 339512, Note_off_c, 10, 57, 127
1, 339513, Note_on_c, 7, 55, 127
1, 339513, Note_on_c, 5, 65, 127
1, 339582, Note_off_c, 5, 65, 127
1, 339583, Note_on_c, 4, 64, 127
1, 339617, Note_off_c, 7, 55, 127
1, 339618, Note_on_c, 5, 53, 127
1, 339652, Note_off_c, 4, 64, 127
1, 339653, Note_on_c, 5, 65, 127
1, 339722, Note_off_c, 5, 65, 127
1, 339722, Note_off_c, 5, 53, 127
1, 339723, Note_on_c, 4, 52, 127
1, 339723, Note_on_c, 7, 67, 127
1, 339827, Note_off_c, 4, 52, 127
1, 339828, Note_on_c, 7, 55, 127
1, 339932, Note_off_c, 7, 55, 127
1, 339932, Note_off_c, 7, 67, 127
1, 339933, Note_on_c, 4, 52, 127
1, 339933, Note_on_c, 0, 60, 127
1, 340037, Note_off_c, 4, 52, 127
1, 340038, Note_on_c, 0, 48, 127
1, 340142, Note_off_c, 0, 48, 127
1, 340142, Note_off_c, 0, 60, 127
1, 340143, Note_on_c, 5, 53, 127
1, 340143, Note_on_c, 10, 69, 127
1, 340195, Note_off_c, 0, 72, 127
1, 340247, Note_on_c, 0, 72, 127
1, 340351, Note_off_c, 0, 72, 127
1, 340351, Note_off_c, 5, 53, 127
1, 340352, Note_on_c, 5, 41, 127
1, 340352, Note_on_c, 12, 71, 127
1, 340456, Note_off_c, 12, 71, 127
1, 340457, Note_on_c, 0, 72, 127
1, 340561, Note_off_c, 0, 72, 127
1, 340561, Note_off_c, 5, 41, 127
1, 340562, Note_on_c, 10, 57, 127
1, 340562, Note_on_c, 2, 74, 127
1, 340666, Note_off_c, 2, 74, 127
1, 340667, Note_on_c, 0, 72, 127
1, 340771, Note_off_c, 0, 72, 127
1, 340771, Note_off_c, 10, 57, 127
1, 340771, Note_off_c, 10, 69, 127
1, 340772, Note_on_c, 7, 55, 127
1, 340772, Note_on_c, 12, 71, 127
1, 340876, Note_off_c, 12, 71, 127
1, 340877, Note_on_c, 0, 72, 127
1, 340981, Note_off_c, 0, 72, 127
1, 340981, Note_off_c, 7, 55, 127
1, 340982, Note_on_c, 7, 55, 127
1, 340982, Note_on_c, 10, 81, 127
1, 341086, Note_off_c, 10, 81, 127
1, 341087, Note_on_c, 0, 72, 127
1, 341191, Note_off_c, 0, 72, 127
1, 341191, Note_off_c, 7, 55, 127
1, 341192, Note_on_c, 6, 54, 127
1, 341192, Note_on_c, 12, 71, 127
1, 341296, Note_off_c, 12, 71, 127
1, 341297, Note_on_c, 0, 72, 127
1, 341401, Note_off_c, 0, 72, 127
1, 341401, Note_off_c, 6, 54, 127
1, 341402, Note_on_c, 6, 54, 127
1, 341402, Note_on_c, 2, 74, 127
1, 341610, Note_off_c, 6, 54, 127
1, 341611, Note_on_c, 6, 42, 127
1, 341611, Note_on_c, 10, 69, 127
1, 341715, Note_off_c, 10, 69, 127
1, 341716, Note_on_c, 12, 71, 127
1, 341820, Note_off_c, 12, 71, 127
1, 341821, Note_on_c, 0, 72, 127
1, 341852, Note_off_c, 6, 42, 127
1, 341890, Note_off_c, 0, 72, 127
1, 341891, Note_on_c, 12, 71, 127
1, 341926, Note_on_c, 6, 54, 127
1, 341960, Note_off_c, 12, 71, 127
1, 341961, Note_on_c, 0, 72, 127
1, 342030, Note_off_c, 0, 72, 127
1, 342030, Note_off_c, 6, 54, 127
1, 342031, Note_on_c, 7, 55, 127
1, 342031, Note_on_c, 12, 71, 127
1, 342100, Note_off_c, 12, 71, 127
1, 342101, Note_on_c, 10, 69, 127
1, 342135, Note_off_c, 7, 55, 127
1, 342136, Note_on_c, 10, 57, 127
1, 342170, Note_off_c, 10, 69, 127
1, 342171, Note_on_c, 12, 71, 127
1, 342240, Note_off_c, 12, 71, 127
1, 342240, Note_off_c, 10, 57, 127
1, 342241, Note_on_c, 7, 55, 127
1, 342241, Note_on_c, 0, 72, 127
1, 342345, Note_off_c, 7, 55, 127
1, 342346, Note_on_c, 6, 54, 127
1, 342450, Note_off_c, 6, 54, 127
1, 342450, Note_off_c, 0, 72, 127
1, 342451, Note_on_c, 4, 52, 127
1, 342451, Note_on_c, 10, 69, 127
1, 342555, Note_off_c, 4, 52, 127
1, 342556, Note_on_c, 2, 50, 127
1, 342660, Note_off_c, 2, 50, 127
1, 342660, Note_off_c, 10, 69, 127
1, 342661, Note_on_c, 7, 55, 127
1, 342661, Note_on_c, 12, 71, 127
1, 342713, Note_off_c, 2, 74, 127
1, 342764, Note_off_c, 12, 71, 127
1, 342765, Note_on_c, 2, 74, 127
1, 342869, Note_off_c, 2, 74, 127
1, 342869, Note_off_c, 7, 55, 127
1, 342870, Note_on_c, 7, 43, 127
1, 342870, Note_on_c, 0, 72, 127
1, 342974, Note_off_c, 0, 72, 127
1, 342975, Note_on_c, 2, 74, 127
1, 343079, Note_off_c, 2, 74, 127
1, 343079, Note_off_c, 7, 43, 127
1, 343080, Note_on_c, 12, 59, 127
1, 343080, Note_on_c, 4, 76, 127
1, 343184, Note_off_c, 4, 76, 127
1, 343185, Note_on_c, 2, 74, 127
1, 343289, Note_off_c, 2, 74, 127
1, 343289, Note_off_c, 12, 59, 127
1, 343290, Note_on_c, 10, 57, 127
1, 343290, Note_on_c, 0, 72, 127
1, 343394, Note_off_c, 0, 72, 127
1, 343395, Note_on_c, 2, 74, 127
1, 343499, Note_off_c, 2, 74, 127
1, 343499, Note_off_c, 10, 57, 127
1, 343500, Note_on_c, 10, 57, 127
1, 343500, Note_on_c, 12, 83, 127
1, 343604, Note_off_c, 12, 83, 127
1, 343605, Note_on_c, 2, 74, 127
1, 343709, Note_off_c, 2, 74, 127
1, 343709, Note_off_c, 10, 57, 127
1, 343710, Note_on_c, 8, 56, 127
1, 343710, Note_on_c, 0, 72, 127
1, 343814, Note_off_c, 0, 72, 127
1, 343815, Note_on_c, 2, 74, 127
1, 343919, Note_off_c, 2, 74, 127
1, 343919, Note_off_c, 8, 56, 127
1, 343920, Note_on_c, 8, 56, 127
1, 343920, Note_on_c, 4, 76, 127
1, 344024, Note_off_c, 8, 56, 127
1, 344025, Note_on_c, 5, 65, 127
1, 344129, Note_off_c, 5, 65, 127
1, 344130, Note_on_c, 4, 64, 127
1, 344130, Note_on_c, 8, 68, 127
1, 344234, Note_off_c, 4, 64, 127
1, 344235, Note_on_c, 2, 62, 127
1, 344281, Note_off_c, 4, 76, 127
1, 344339, Note_off_c, 2, 62, 127
1, 344339, Note_off_c, 8, 68, 127
1, 344340, Note_on_c, 0, 60, 127
1, 344340, Note_on_c, 10, 69, 127
1, 344340, Note_on_c, 6, 78, 127
1, 344444, Note_off_c, 0, 60, 127
1, 344445, Note_on_c, 4, 64, 127
1, 344549, Note_off_c, 4, 64, 127
1, 344549, Note_off_c, 6, 78, 127
1, 344549, Note_off_c, 10, 69, 127
1, 344550, Note_on_c, 2, 62, 127
1, 344550, Note_on_c, 12, 71, 127
1, 344550, Note_on_c, 8, 80, 127
1, 344654, Note_off_c, 2, 62, 127
1, 344655, Note_on_c, 0, 60, 127
1, 344759, Note_off_c, 0, 60, 127
1, 344759, Note_off_c, 8, 80, 127
1, 344759, Note_off_c, 12, 71, 127
1, 344760, Note_on_c, 12, 59, 127
1, 344760, Note_on_c, 0, 72, 127
1, 344760, Note_on_c, 10, 81, 127
1, 344864, Note_off_c, 12, 59, 127
1, 344865, Note_on_c, 2, 62, 127
1, 344969, Note_off_c, 2, 62, 127
1, 344969, Note_off_c, 10, 81, 127
1, 344969, Note_off_c, 0, 72, 127
1, 344970, Note_on_c, 0, 60, 127
1, 344970, Note_on_c, 12, 83, 127
1, 344970, Note_on_c, 2, 74, 127
1, 345074, Note_off_c, 0, 60, 127
1, 345075, Note_on_c, 12, 59, 127
1, 345179, Note_off_c, 12, 59, 127
1, 345179, Note_off_c, 2, 74, 127
1, 345179, Note_off_c, 12, 83, 127
1, 345180, Note_on_c, 10, 57, 127
1, 345180, Note_on_c, 0, 84, 127
1, 345180, Note_on_c, 4, 76, 127
1, 345284, Note_off_c, 0, 84, 127
1, 345285, Note_on_c, 10, 81, 127
1, 345388, Note_off_c, 4, 76, 127
1, 345389, Note_off_c, 10, 81, 127
1, 345390, Note_on_c, 6, 66, 127
1, 345390, Note_on_c, 7, 79, 127
1, 345494, Note_off_c, 7, 79, 127
1, 345495, Note_on_c, 10, 81, 127
1, 345595, Note_off_c, 10, 57, 127
1, 345598, Note_off_c, 10, 81, 127
1, 345599, Note_on_c, 7, 55, 127
1, 345599, Note_on_c, 12, 83, 127
1, 345703, Note_off_c, 12, 83, 127
1, 345704, Note_on_c, 7, 79, 127
1, 345804, Note_off_c, 6, 66, 127
1, 345807, Note_off_c, 7, 79, 127
1, 345808, Note_on_c, 4, 64, 127
1, 345808, Note_on_c, 6, 78, 127
1, 345912, Note_off_c, 6, 78, 127
1, 345913, Note_on_c, 7, 79, 127
1, 346013, Note_off_c, 7, 55, 127
1, 346016, Note_off_c, 7, 79, 127
1, 346017, Note_on_c, 6, 54, 127
1, 346017, Note_on_c, 10, 81, 127
1, 346121, Note_off_c, 10, 81, 127
1, 346122, Note_on_c, 6, 78, 127
1, 346222, Note_off_c, 4, 64, 127
1, 346225, Note_off_c, 6, 78, 127
1, 346226, Note_on_c, 3, 63, 127
1, 346226, Note_on_c, 4, 76, 127
1, 346330, Note_off_c, 4, 76, 127
1, 346331, Note_on_c, 6, 78, 127
1, 346431, Note_off_c, 6, 54, 127
1, 346434, Note_off_c, 6, 78, 127
1, 346434, Note_off_c, 3, 63, 127
1, 346435, Note_on_c, 4, 64, 127
1, 346435, Note_on_c, 4, 52, 127
1, 346435, Note_on_c, 7, 79, 127
1, 346539, Note_off_c, 7, 79, 127
1, 346540, Note_on_c, 4, 76, 127
1, 346644, Note_off_c, 4, 76, 127
1, 346644, Note_off_c, 4, 52, 127
1, 346645, Note_on_c, 6, 54, 127
1, 346645, Note_on_c, 3, 75, 127
1, 346749, Note_off_c, 3, 75, 127
1, 346749, Note_off_c, 6, 54, 127
1, 346750, Note_on_c, 7, 55, 127
1, 346750, Note_on_c, 4, 76, 127
1, 346850, Note_off_c, 4, 64, 127
1, 346853, Note_off_c, 4, 76, 127
1, 346853, Note_off_c, 7, 55, 127
1, 346854, Note_on_c, 10, 45, 127
1, 346854, Note_on_c, 6, 78, 127
1, 347063, Note_on_c, 0, 72, 127
1, 347268, Note_off_c, 6, 78, 127
1, 347271, Note_off_c, 10, 45, 127
1, 347272, Note_on_c, 12, 47, 127
1, 347272, Note_on_c, 3, 75, 127
1, 347368, Note_off_c, 0, 72, 127
1, 347481, Note_on_c, 12, 71, 127
1, 347686, Note_off_c, 3, 75, 127
1, 347689, Note_off_c, 12, 71, 127
1, 347689, Note_off_c, 12, 47, 127
1, 347690, Note_on_c, 4, 40, 127
1, 347690, Note_on_c, 4, 76, 127
1, 347690, Note_on_c, 10, 69, 127
1, 348108, Note_off_c, 10, 69, 127
1, 348108, Note_off_c, 4, 40, 127
1, 348109, Note_on_c, 12, 47, 127
1, 348109, Note_on_c, 8, 68, 127
1, 348527, Note_off_c, 12, 47, 127
1, 348528, Note_on_c, 4, 52, 127
1, 348759, Note_off_c, 4, 76, 127
1, 348946, Note_off_c, 4, 52, 127
1, 348946, Note_off_c, 8, 68, 127
1, 348947, Note_on_c, 8, 56, 127
1, 348947, Note_on_c, 4, 52, 127
1, 348947, Note_on_c, 12, 71, 127
1, 349155, Note_off_c, 12, 71, 127
1, 349155, Note_off_c, 8, 56, 127
1, 349156, Note_on_c, 10, 57, 127
1, 349156, Note_on_c, 0, 72, 127
1, 349364, Note_off_c, 0, 72, 127
1, 349364, Note_off_c, 10, 57, 127
1, 349365, Note_on_c, 12, 59, 127
1, 349365, Note_on_c, 2, 74, 127
1, 349469, Note_off_c, 2, 74, 127
1, 349469, Note_off_c, 12, 59, 127
1, 349470, Note_on_c, 10, 57, 127
1, 349470, Note_on_c, 0, 72, 127
1, 349574, Note_off_c, 0, 72, 127
1, 349574, Note_off_c, 10, 57, 127
1, 349575, Note_on_c, 8, 56, 127
1, 349575, Note_on_c, 12, 71, 127
1, 349679, Note_off_c, 12, 71, 127
1, 349679, Note_off_c, 8, 56, 127
1, 349680, Note_on_c, 10, 57, 127
1, 349680, Note_on_c, 0, 72, 127
1, 349784, Note_off_c, 0, 72, 127
1, 349784, Note_off_c, 10, 57, 127
1, 349784, Note_off_c, 4, 52, 127
1, 349785, Note_on_c, 12, 59, 127
1, 349785, Note_on_c, 2, 74, 127
1, 349993, Note_off_c, 2, 74, 127
1, 349994, Note_on_c, 12, 71, 127
1, 350025, Note_off_c, 12, 59, 127
1, 350203, Note_off_c, 12, 71, 127
1, 350204, Note_on_c, 8, 56, 127
1, 350204, Note_on_c, 12, 59, 127
1, 350204, Note_on_c, 5, 65, 127
1, 350412, Note_off_c, 5, 65, 127
1, 350413, Note_on_c, 4, 64, 127
1, 350596, Note_off_c, 12, 59, 127
1, 350596, Note_off_c, 8, 56, 127
1, 350621, Note_off_c, 4, 64, 127
1, 350622, Note_on_c, 8, 56, 127
1, 350622, Note_on_c, 12, 59, 127
1, 350622, Note_on_c, 5, 65, 127
1, 350830, Note_off_c, 5, 65, 127
1, 350831, Note_on_c, 2, 62, 127
1, 351014, Note_off_c, 12, 59, 127
1, 351014, Note_off_c, 8, 56, 127
1, 351039, Note_off_c, 2, 62, 127
1, 351040, Note_on_c, 12, 59, 127
1, 351040, Note_on_c, 8, 56, 127
1, 351040, Note_on_c, 4, 64, 127
1, 351248, Note_off_c, 4, 64, 127
1, 351249, Note_on_c, 12, 71, 127
1, 351432, Note_off_c, 8, 56, 127
1, 351432, Note_off_c, 12, 59, 127
1, 351457, Note_off_c, 12, 71, 127
1, 351458, Note_on_c, 7, 55, 127
1, 351458, Note_on_c, 4, 64, 127
1, 351458, Note_on_c, 1, 73, 127
1, 351666, Note_off_c, 1, 73, 127
1, 351666, Note_off_c, 4, 64, 127
1, 351667, Note_on_c, 5, 65, 127
1, 351667, Note_on_c, 2, 74, 127
1, 351875, Note_off_c, 2, 74, 127
1, 351875, Note_off_c, 5, 65, 127
1, 351876, Note_on_c, 7, 67, 127
1, 351876, Note_on_c, 4, 76, 127
1, 351980, Note_off_c, 4, 76, 127
1, 351980, Note_off_c, 7, 67, 127
1, 351981, Note_on_c, 5, 65, 127
1, 351981, Note_on_c, 2, 74, 127
1, 352085, Note_off_c, 2, 74, 127
1, 352085, Note_off_c, 5, 65, 127
1, 352086, Note_on_c, 4, 64, 127
1, 352086, Note_on_c, 1, 73, 127
1, 352190, Note_off_c, 1, 73, 127
1, 352190, Note_off_c, 4, 64, 127
1, 352191, Note_on_c, 5, 65, 127
1, 352191, Note_on_c, 2, 74, 127
1, 352295, Note_off_c, 2, 74, 127
1, 352295, Note_off_c, 5, 65, 127
1, 352295, Note_off_c, 7, 55, 127
1, 352296, Note_on_c, 7, 67, 127
1, 352296, Note_on_c, 4, 76, 127
1, 352504, Note_off_c, 4, 76, 127
1, 352505, Note_on_c, 1, 73, 127
1, 352557, Note_off_c, 7, 67, 127
1, 352713, Note_off_c, 1, 73, 127
1, 352714, Note_on_c, 4, 64, 127
1, 352714, Note_on_c, 1, 61, 127
1, 352714, Note_on_c, 11, 70, 127
1, 352922, Note_off_c, 11, 70, 127
1, 352923, Note_on_c, 10, 69, 127
1, 353106, Note_off_c, 1, 61, 127
1, 353106, Note_off_c, 4, 64, 127
1, 353131, Note_off_c, 10, 69, 127
1, 353132, Note_on_c, 1, 61, 127
1, 353132, Note_on_c, 4, 64, 127
1, 353132, Note_on_c, 11, 70, 127
1, 353340, Note_off_c, 11, 70, 127
1, 353341, Note_on_c, 7, 67, 127
1, 353524, Note_off_c, 4, 64, 127
1, 353524, Note_off_c, 1, 61, 127
1, 353549, Note_off_c, 7, 67, 127
1, 353550, Note_on_c, 4, 64, 127
1, 353550, Note_on_c, 1, 61, 127
1, 353550, Note_on_c, 10, 69, 127
1, 353758, Note_off_c, 10, 69, 127
1, 353759, Note_on_c, 7, 79, 127
1, 353942, Note_off_c, 1, 61, 127
1, 353942, Note_off_c, 4, 64, 127
1, 353967, Note_off_c, 7, 79, 127
1, 353968, Note_on_c, 2, 62, 127
1, 353968, Note_on_c, 5, 77, 127
1, 354072, Note_off_c, 5, 77, 127
1, 354073, Note_on_c, 2, 74, 127
1, 354177, Note_off_c, 2, 74, 127
1, 354178, Note_on_c, 2, 50, 127
1, 354178, Note_on_c, 1, 73, 127
1, 354282, Note_off_c, 1, 73, 127
1, 354283, Note_on_c, 2, 74, 127
1, 354386, Note_off_c, 2, 50, 127
1, 354387, Note_off_c, 2, 74, 127
1, 354388, Note_on_c, 5, 77, 127
1, 354388, Note_on_c, 11, 82, 127
1, 354395, Note_off_c, 2, 62, 127
1, 354493, Note_on_c, 2, 74, 127
1, 354597, Note_off_c, 2, 74, 127
1, 354598, Note_on_c, 0, 72, 127
1, 354702, Note_off_c, 0, 72, 127
1, 354703, Note_on_c, 11, 70, 127
1, 354803, Note_off_c, 11, 82, 127
1, 354803, Note_off_c, 5, 77, 127
1, 354806, Note_off_c, 11, 70, 127
1, 354807, Note_on_c, 4, 76, 127
1, 354807, Note_on_c, 10, 81, 127
1, 354912, Note_on_c, 0, 72, 127
1, 355016, Note_off_c, 0, 72, 127
1, 355017, Note_on_c, 11, 70, 127
1, 355121, Note_off_c, 11, 70, 127
1, 355122, Note_on_c, 10, 69, 127
1, 355222, Note_off_c, 10, 81, 127
1, 355225, Note_off_c, 10, 69, 127
1, 355226, Note_on_c, 11, 70, 127
1, 355331, Note_off_c, 4, 76, 127
1, 355331, Note_on_c, 2, 74, 127
1, 355434, Note_off_c, 11, 70, 127
1, 355435, Note_off_c, 2, 74, 127
1, 355436, Note_on_c, 11, 58, 127
1, 355436, Note_on_c, 1, 73, 127
1, 355540, Note_off_c, 1, 73, 127
1, 355541, Note_on_c, 2, 74, 127
1, 355646, Note_on_c, 7, 79, 127
1, 355677, Note_off_c, 11, 58, 127
1, 355751, Note_on_c, 11, 70, 127
1, 355855, Note_off_c, 11, 70, 127
1, 355856, Note_on_c, 10, 69, 127
1, 355960, Note_off_c, 10, 69, 127
1, 355961, Note_on_c, 7, 67, 127
1, 356055, Note_off_c, 2, 74, 127
1, 356062, Note_off_c, 7, 79, 127
1, 356065, Note_off_c, 7, 67, 127
1, 356066, Note_on_c, 5, 77, 127
1, 356066, Note_on_c, 0, 72, 127
1, 356171, Note_on_c, 10, 69, 127
1, 356275, Note_off_c, 10, 69, 127
1, 356276, Note_on_c, 7, 67, 127
1, 356380, Note_off_c, 7, 67, 127
1, 356381, Note_on_c, 5, 65, 127
1, 356481, Note_off_c, 0, 72, 127
1, 356481, Note_off_c, 5, 77, 127
1, 356484, Note_off_c, 5, 65, 127
1, 356485, Note_on_c, 11, 70, 127
1, 356485, Note_on_c, 7, 67, 127
1, 356693, Note_off_c, 7, 67, 127
1, 356694, Note_on_c, 7, 55, 127
1, 356694, Note_on_c, 4, 76, 127
1, 356899, Note_off_c, 11, 70, 127
1, 356902, Note_off_c, 4, 76, 127
1, 356902, Note_off_c, 7, 55, 127
1, 356903, Note_on_c, 10, 57, 127
1, 356903, Note_on_c, 5, 77, 127
1, 356903, Note_on_c, 10, 69, 127
1, 357111, Note_off_c, 10, 69, 127
1, 357111, Note_off_c, 5, 77, 127
1, 357112, Note_on_c, 4, 76, 127
1, 357112, Note_on_c, 7, 67, 127
1, 357320, Note_off_c, 7, 67, 127
1, 357320, Note_off_c, 4, 76, 127
1, 357320, Note_off_c, 10, 57, 127
1, 357321, Note_on_c, 10, 45, 127
1, 357321, Note_on_c, 5, 65, 127
1, 357321, Note_on_c, 2, 74, 127
1, 357529, Note_off_c, 2, 74, 127
1, 357529, Note_off_c, 5, 65, 127
1, 357530, Note_on_c, 4, 64, 127
1, 357530, Note_on_c, 1, 73, 127
1, 357738, Note_off_c, 1, 73, 127
1, 357738, Note_off_c, 4, 64, 127
1, 357738, Note_off_c, 10, 45, 127
1, 357739, Note_on_c, 2, 50, 127
1, 357739, Note_on_c, 5, 65, 127
1, 357739, Note_on_c, 2, 74, 127
1, 357947, Note_off_c, 2, 50, 127
1, 357948, Note_on_c, 10, 45, 127
1, 358052, Note_off_c, 10, 45, 127
1, 358053, Note_on_c, 7, 43, 127
1, 358157, Note_off_c, 7, 43, 127
1, 358158, Note_on_c, 5, 41, 127
1, 358262, Note_off_c, 5, 41, 127
1, 358263, Note_on_c, 7, 43, 127
1, 358367, Note_off_c, 7, 43, 127
1, 358368, Note_on_c, 10, 45, 127
1, 358576, Note_off_c, 10, 45, 127
1, 358577, Note_on_c, 2, 38, 127
1, 358786, Note_off_c, 2, 74, 127
1, 358961, Note_off_c, 5, 65, 127
1, 358992, Note_off_c, 2, 38, 127
1, 358996, Note_on_c, 5, 77, 127
1, 359101, Note_on_c, 2, 50, 127
1, 359205, Note_off_c, 2, 50, 127
1, 359206, Note_on_c, 4, 52, 127
1, 359206, Note_on_c, 2, 74, 127
1, 359310, Note_off_c, 4, 52, 127
1, 359311, Note_on_c, 5, 53, 127
1, 359415, Note_off_c, 5, 53, 127
1, 359415, Note_off_c, 2, 74, 127
1, 359416, Note_on_c, 7, 55, 127
1, 359416, Note_on_c, 1, 73, 127
1, 359520, Note_off_c, 7, 55, 127
1, 359521, Note_on_c, 10, 57, 127
1, 359625, Note_off_c, 10, 57, 127
1, 359625, Note_off_c, 1, 73, 127
1, 359626, Note_on_c, 12, 59, 127
1, 359626, Note_on_c, 2, 74, 127
1, 359730, Note_off_c, 12, 59, 127
1, 359731, Note_on_c, 1, 61, 127
1, 359835, Note_off_c, 1, 61, 127
1, 359835, Note_off_c, 2, 74, 127
1, 359836, Note_on_c, 2, 62, 127
1, 359836, Note_on_c, 10, 69, 127
1, 359940, Note_off_c, 2, 62, 127
1, 359941, Note_on_c, 4, 64, 127
1, 360045, Note_off_c, 4, 64, 127
1, 360045, Note_off_c, 10, 69, 127
1, 360046, Note_on_c, 5, 65, 127
1, 360046, Note_on_c, 2, 74, 127
1, 360150, Note_off_c, 5, 65, 127
1, 360151, Note_on_c, 2, 62, 127
1, 360255, Note_off_c, 2, 62, 127
1, 360256, Note_on_c, 7, 67, 127
1, 360308, Note_off_c, 5, 77, 127
1, 360359, Note_off_c, 2, 74, 127
1, 360360, Note_on_c, 12, 71, 127
1, 360464, Note_off_c, 12, 71, 127
1, 360464, Note_off_c, 7, 67, 127
1, 360465, Note_on_c, 2, 62, 127
1, 360465, Note_on_c, 10, 69, 127
1, 360569, Note_off_c, 10, 69, 127
1, 360570, Note_on_c, 12, 71, 127
1, 360674, Note_off_c, 12, 71, 127
1, 360674, Note_off_c, 2, 62, 127
1, 360675, Note_on_c, 7, 55, 127
1, 360675, Note_on_c, 0, 72, 127
1, 360779, Note_off_c, 0, 72, 127
1, 360780, Note_on_c, 12, 71, 127
1, 360884, Note_off_c, 12, 71, 127
1, 360884, Note_off_c, 7, 55, 127
1, 360885, Note_on_c, 2, 50, 127
1, 360885, Note_on_c, 10, 69, 127
1, 360989, Note_off_c, 10, 69, 127
1, 360990, Note_on_c, 12, 71, 127
1, 361094, Note_off_c, 12, 71, 127
1, 361094, Note_off_c, 2, 50, 127
1, 361095, Note_on_c, 7, 43, 127
1, 361095, Note_on_c, 2, 74, 127
1, 361199, Note_off_c, 2, 74, 127
1, 361200, Note_on_c, 12, 71, 127
1, 361304, Note_off_c, 12, 71, 127
1, 361305, Note_on_c, 10, 69, 127
1, 361409, Note_off_c, 10, 69, 127
1, 361410, Note_on_c, 12, 71, 127
1, 361510, Note_off_c, 7, 43, 127
1, 361513, Note_off_c, 12, 71, 127
1, 361514, Note_on_c, 4, 76, 127
1, 361619, Note_on_c, 0, 48, 127
1, 361723, Note_off_c, 0, 48, 127
1, 361724, Note_on_c, 2, 50, 127
1, 361724, Note_on_c, 0, 72, 127
1, 361828, Note_off_c, 2, 50, 127
1, 361829, Note_on_c, 4, 52, 127
1, 361933, Note_off_c, 4, 52, 127
1, 361933, Note_off_c, 0, 72, 127
1, 361934, Note_on_c, 5, 53, 127
1, 361934, Note_on_c, 12, 71, 127
1, 362038, Note_off_c, 5, 53, 127
1, 362039, Note_on_c, 7, 55, 127
1, 362143, Note_off_c, 7, 55, 127
1, 362143, Note_off_c, 12, 71, 127
1, 362144, Note_on_c, 10, 57, 127
1, 362144, Note_on_c, 0, 72, 127
1, 362248, Note_off_c, 10, 57, 127
1, 362249, Note_on_c, 12, 59, 127
1, 362353, Note_off_c, 12, 59, 127
1, 362353, Note_off_c, 0, 72, 127
1, 362354, Note_on_c, 0, 60, 127
1, 362354, Note_on_c, 7, 67, 127
1, 362458, Note_off_c, 0, 60, 127
1, 362459, Note_on_c, 2, 62, 127
1, 362563, Note_off_c, 2, 62, 127
1, 362563, Note_off_c, 7, 67, 127
1, 362564, Note_on_c, 4, 64, 127
1, 362564, Note_on_c, 0, 72, 127
1, 362668, Note_off_c, 4, 64, 127
1, 362669, Note_on_c, 0, 60, 127
1, 362773, Note_off_c, 0, 60, 127
1, 362774, Note_on_c, 5, 65, 127
1, 362826, Note_off_c, 4, 76, 127
1, 362877, Note_off_c, 0, 72, 127
1, 362878, Note_on_c, 10, 69, 127
1, 362982, Note_off_c, 10, 69, 127
1, 362982, Note_off_c, 5, 65, 127
1, 362983, Note_on_c, 0, 60, 127
1, 362983, Note_on_c, 8, 68, 127
1, 363087, Note_off_c, 8, 68, 127
1, 363088, Note_on_c, 10, 69, 127
1, 363192, Note_off_c, 10, 69, 127
1, 363192, Note_off_c, 0, 60, 127
1, 363193, Note_on_c, 5, 53, 127
1, 363193, Note_on_c, 12, 71, 127
1, 363297, Note_off_c, 12, 71, 127
1, 363298, Note_on_c, 10, 69, 127
1, 363402, Note_off_c, 10, 69, 127
1, 363402, Note_off_c, 5, 53, 127
1, 363403, Note_on_c, 0, 48, 127
1, 363403, Note_on_c, 8, 68, 127
1, 363507, Note_off_c, 8, 68, 127
1, 363508, Note_on_c, 10, 69, 127
1, 363612, Note_off_c, 10, 69, 127
1, 363612, Note_off_c, 0, 48, 127
1, 363613, Note_on_c, 5, 41, 127
1, 363613, Note_on_c, 0, 72, 127
1, 363717, Note_off_c, 0, 72, 127
1, 363718, Note_on_c, 10, 69, 127
1, 363822, Note_off_c, 10, 69, 127
1, 363823, Note_on_c, 8, 68, 127
1, 363927, Note_off_c, 8, 68, 127
1, 363928, Note_on_c, 10, 69, 127
1, 364028, Note_off_c, 5, 41, 127
1, 364031, Note_off_c, 10, 69, 127
1, 364032, Note_on_c, 2, 74, 127
1, 364136, Note_off_c, 2, 74, 127
1, 364137, Note_on_c, 4, 76, 127
1, 364241, Note_off_c, 4, 76, 127
1, 364242, Note_on_c, 12, 47, 127
1, 364242, Note_on_c, 5, 77, 127
1, 364450, Note_off_c, 12, 47, 127
1, 364451, Note_on_c, 0, 48, 127
1, 364536, Note_off_c, 5, 77, 127
1, 364556, Note_on_c, 4, 76, 127
1, 364660, Note_off_c, 4, 76, 127
1, 364660, Note_off_c, 0, 48, 127
1, 364661, Note_on_c, 2, 50, 127
1, 364661, Note_on_c, 2, 74, 127
1, 364765, Note_off_c, 2, 74, 127
1, 364766, Note_on_c, 0, 72, 127
1, 364870, Note_off_c, 0, 72, 127
1, 364870, Note_off_c, 2, 50, 127
1, 364871, Note_on_c, 4, 52, 127
1, 364871, Note_on_c, 2, 74, 127
1, 364975, Note_off_c, 2, 74, 127
1, 364976, Note_on_c, 0, 72, 127
1, 365080, Note_off_c, 0, 72, 127
1, 365080, Note_off_c, 4, 52, 127
1, 365081, Note_on_c, 6, 54, 127
1, 365081, Note_on_c, 12, 71, 127
1, 365185, Note_off_c, 12, 71, 127
1, 365186, Note_on_c, 10, 69, 127
1, 365290, Note_off_c, 10, 69, 127
1, 365290, Note_off_c, 6, 54, 127
1, 365291, Note_on_c, 8, 56, 127
1, 365291, Note_on_c, 12, 71, 127
1, 365395, Note_off_c, 12, 71, 127
1, 365396, Note_on_c, 0, 72, 127
1, 365500, Note_off_c, 0, 72, 127
1, 365500, Note_off_c, 8, 56, 127
1, 365501, Note_on_c, 4, 52, 127
1, 365501, Note_on_c, 2, 74, 127
1, 365709, Note_off_c, 4, 52, 127
1, 365710, Note_on_c, 6, 54, 127
1, 365801, Note_off_c, 2, 74, 127
1, 365815, Note_on_c, 0, 72, 127
1, 365919, Note_off_c, 0, 72, 127
1, 365919, Note_off_c, 6, 54, 127
1, 365920, Note_on_c, 8, 56, 127
1, 365920, Note_on_c, 12, 71, 127
1, 366024, Note_off_c, 12, 71, 127
1, 366025, Note_on_c, 10, 69, 127
1, 366129, Note_off_c, 10, 69, 127
1, 366129, Note_off_c, 8, 56, 127
1, 366130, Note_on_c, 10, 57, 127
1, 366130, Note_on_c, 12, 71, 127
1, 366234, Note_off_c, 12, 71, 127
1, 366235, Note_on_c, 10, 69, 127
1, 366339, Note_off_c, 10, 69, 127
1, 366339, Note_off_c, 10, 57, 127
1, 366340, Note_on_c, 12, 59, 127
1, 366340, Note_on_c, 8, 68, 127
1, 366444, Note_off_c, 8, 68, 127
1, 366445, Note_on_c, 6, 66, 127
1, 366549, Note_off_c, 6, 66, 127
1, 366549, Note_off_c, 12, 59, 127
1, 366550, Note_on_c, 0, 60, 127
1, 366550, Note_on_c, 4, 64, 127
1, 366654, Note_off_c, 4, 64, 127
1, 366655, Note_on_c, 8, 68, 127
1, 366759, Note_off_c, 8, 68, 127
1, 366759, Note_off_c, 0, 60, 127
1, 366760, Note_on_c, 12, 59, 127
1, 366760, Note_on_c, 6, 66, 127
1, 366864, Note_off_c, 6, 66, 127
1, 366865, Note_on_c, 4, 64, 127
1, 366969, Note_off_c, 4, 64, 127
1, 366969, Note_off_c, 12, 59, 127
1, 366970, Note_on_c, 0, 60, 127
1, 366970, Note_on_c, 10, 69, 127
1, 367074, Note_off_c, 10, 69, 127
1, 367075, Note_on_c, 0, 72, 127
1, 367179, Note_off_c, 0, 72, 127
1, 367179, Note_off_c, 0, 60, 127
1, 367180, Note_on_c, 2, 62, 127
1, 367180, Note_on_c, 12, 71, 127
1, 367284, Note_off_c, 12, 71, 127
1, 367285, Note_on_c, 10, 69, 127
1, 367389, Note_off_c, 10, 69, 127
1, 367389, Note_off_c, 2, 62, 127
1, 367390, Note_on_c, 8, 56, 127
1, 367390, Note_on_c, 2, 74, 127
1, 367494, Note_off_c, 2, 74, 127
1, 367495, Note_on_c, 0, 72, 127
1, 367599, Note_off_c, 0, 72, 127
1, 367599, Note_off_c, 8, 56, 127
1, 367600, Note_on_c, 10, 57, 127
1, 367600, Note_on_c, 12, 71, 127
1, 367704, Note_off_c, 12, 71, 127
1, 367705, Note_on_c, 10, 69, 127
1, 367809, Note_off_c, 10, 69, 127
1, 367809, Note_off_c, 10, 57, 127
1, 367810, Note_on_c, 8, 56, 127
1, 367810, Note_on_c, 4, 76, 127
1, 367914, Note_off_c, 8, 56, 127
1, 367915, Note_on_c, 10, 57, 127
1, 367997, Note_off_c, 4, 76, 127
1, 368019, Note_off_c, 10, 57, 127
1, 368020, Note_on_c, 12, 59, 127
1, 368020, Note_on_c, 2, 74, 127
1, 368112, Note_off_c, 2, 74, 127
1, 368125, Note_on_c, 0, 72, 127
1, 368218, Note_off_c, 0, 72, 127
1, 368230, Note_on_c, 12, 71, 127
1, 368321, Note_off_c, 12, 71, 127
1, 368334, Note_off_c, 12, 59, 127
1, 368335, Note_on_c, 10, 57, 127
1, 368335, Note_on_c, 10, 69, 127
1, 368424, Note_off_c, 10, 57, 127
1, 368425, Note_off_c, 10, 69, 127
1, 368440, Note_on_c, 8, 56, 127
1, 368440, Note_on_c, 8, 68, 127
1, 368528, Note_off_c, 8, 68, 127
1, 368528, Note_off_c, 8, 56, 127
1, 368545, Note_on_c, 6, 54, 127
1, 368545, Note_on_c, 6, 66, 127
1, 368631, Note_off_c, 6, 54, 127
1, 368632, Note_off_c, 6, 66, 127
1, 368650, Note_on_c, 4, 52, 127
1, 368650, Note_on_c, 4, 64, 127
1, 368738, Note_off_c, 4, 52, 127
1, 368743, Note_off_c, 4, 64, 127
1, 368755, Note_on_c, 2, 50, 127
1, 368755, Note_on_c, 2, 62, 127
1, 368844, Note_off_c, 2, 50, 127
1, 368848, Note_off_c, 2, 62, 127
1, 368860, Note_on_c, 0, 48, 127
1, 368860, Note_on_c, 0, 60, 127
1, 368947, Note_off_c, 0, 48, 127
1, 368953, Note_off_c, 0, 60, 127
1, 368973, Note_on_c, 12, 47, 127
1, 368973, Note_on_c, 12, 59, 127
1, 369062, Note_off_c, 12, 47, 127
1, 369066, Note_off_c, 12, 59, 127
1, 369094, Note_on_c, 0, 48, 127
1, 369199, Note_on_c, 4, 64, 127
1, 369303, Note_off_c, 4, 64, 127
1, 369303, Note_off_c, 0, 48, 127
1, 369304, Note_on_c, 2, 62, 127
1, 369304, Note_on_c, 0, 60, 127
1, 369408, Note_off_c, 2, 62, 127
1, 369409, Note_on_c, 4, 64, 127
1, 369513, Note_off_c, 4, 64, 127
1, 369513, Note_off_c, 0, 60, 127
1, 369514, Note_on_c, 6, 66, 127
1, 369514, Note_on_c, 12, 59, 127
1, 369618, Note_off_c, 6, 66, 127
1, 369619, Note_on_c, 4, 64, 127
1, 369723, Note_off_c, 4, 64, 127
1, 369723, Note_off_c, 12, 59, 127
1, 369724, Note_on_c, 2, 62, 127
1, 369724, Note_on_c, 0, 48, 127
1, 369828, Note_off_c, 2, 62, 127
1, 369829, Note_on_c, 4, 64, 127
1, 369933, Note_off_c, 4, 64, 127
1, 369933, Note_off_c, 0, 48, 127
1, 369934, Note_on_c, 7, 67, 127
1, 369934, Note_on_c, 1, 49, 127
1, 370039, Note_on_c, 4, 64, 127
1, 370054, Note_off_c, 7, 67, 127
1, 370143, Note_off_c, 4, 64, 127
1, 370143, Note_off_c, 1, 49, 127
1, 370144, Note_on_c, 2, 62, 127
1, 370144, Note_on_c, 10, 57, 127
1, 370248, Note_off_c, 2, 62, 127
1, 370249, Note_on_c, 4, 64, 127
1, 370348, Note_off_c, 4, 64, 127
1, 370353, Note_off_c, 10, 57, 127
1, 370354, Note_on_c, 2, 50, 127
1, 370460, Note_on_c, 6, 66, 127
1, 370565, Note_off_c, 6, 66, 127
1, 370565, Note_off_c, 2, 50, 127
1, 370566, Note_on_c, 4, 64, 127
1, 370566, Note_on_c, 2, 62, 127
1, 370671, Note_off_c, 4, 64, 127
1, 370672, Note_on_c, 6, 66, 127
1, 370777, Note_off_c, 6, 66, 127
1, 370777, Note_off_c, 2, 62, 127
1, 370778, Note_on_c, 8, 68, 127
1, 370778, Note_on_c, 0, 60, 127
1, 370883, Note_off_c, 8, 68, 127
1, 370884, Note_on_c, 6, 66, 127
1, 370989, Note_off_c, 6, 66, 127
1, 370989, Note_off_c, 0, 60, 127
1, 370990, Note_on_c, 4, 64, 127
1, 370990, Note_on_c, 2, 50, 127
1, 371095, Note_off_c, 4, 64, 127
1, 371096, Note_on_c, 6, 66, 127
1, 371201, Note_off_c, 6, 66, 127
1, 371201, Note_off_c, 2, 50, 127
1, 371202, Note_on_c, 10, 69, 127
1, 371202, Note_on_c, 3, 51, 127
1, 371308, Note_on_c, 6, 66, 127
1, 371334, Note_off_c, 10, 69, 127
1, 371412, Note_off_c, 6, 66, 127
1, 371412, Note_off_c, 3, 51, 127
1, 371413, Note_on_c, 4, 64, 127
1, 371413, Note_on_c, 12, 59, 127
1, 371518, Note_off_c, 4, 64, 127
1, 371519, Note_on_c, 6, 66, 127
1, 371618, Note_off_c, 6, 66, 127
1, 371624, Note_off_c, 12, 59, 127
1, 371625, Note_on_c, 4, 52, 127
1, 371731, Note_on_c, 8, 68, 127
1, 371836, Note_off_c, 8, 68, 127
1, 371836, Note_off_c, 4, 52, 127
1, 371837, Note_on_c, 6, 66, 127
1, 371837, Note_on_c, 4, 64, 127
1, 371942, Note_off_c, 6, 66, 127
1, 371943, Note_on_c, 8, 68, 127
1, 372048, Note_off_c, 8, 68, 127
1, 372048, Note_off_c, 4, 64, 127
1, 372049, Note_on_c, 10, 69, 127
1, 372049, Note_on_c, 2, 62, 127
1, 372154, Note_off_c, 10, 69, 127
1, 372155, Note_on_c, 8, 68, 127
1, 372260, Note_off_c, 8, 68, 127
1, 372260, Note_off_c, 2, 62, 127
1, 372261, Note_on_c, 6, 66, 127
1, 372261, Note_on_c, 4, 52, 127
1, 372366, Note_off_c, 6, 66, 127
1, 372367, Note_on_c, 8, 68, 127
1, 372472, Note_off_c, 8, 68, 127
1, 372472, Note_off_c, 4, 52, 127
1, 372473, Note_on_c, 12, 71, 127
1, 372473, Note_on_c, 5, 53, 127
1, 372579, Note_on_c, 8, 68, 127
1, 372617, Note_off_c, 12, 71, 127
1, 372684, Note_off_c, 8, 68, 127
1, 372684, Note_off_c, 5, 53, 127
1, 372685, Note_on_c, 6, 66, 127
1, 372685, Note_on_c, 2, 62, 127
1, 372790, Note_off_c, 6, 66, 127
1, 372791, Note_on_c, 8, 68, 127
1, 372891, Note_off_c, 8, 68, 127
1, 372897, Note_off_c, 2, 62, 127
1, 372898, Note_on_c, 0, 60, 127
1, 373005, Note_on_c, 10, 69, 127
1, 373111, Note_off_c, 10, 69, 127
1, 373111, Note_off_c, 0, 60, 127
1, 373112, Note_on_c, 8, 68, 127
1, 373112, Note_on_c, 12, 59, 127
1, 373218, Note_off_c, 8, 68, 127
1, 373219, Note_on_c, 10, 69, 127
1, 373325, Note_off_c, 10, 69, 127
1, 373325, Note_off_c, 12, 59, 127
1, 373326, Note_on_c, 12, 71, 127
1, 373326, Note_on_c, 10, 57, 127
1, 373433, Note_on_c, 10, 69, 127
1, 373449, Note_off_c, 12, 71, 127
1, 373539, Note_off_c, 10, 69, 127
1, 373539, Note_off_c, 10, 57, 127
1, 373540, Note_on_c, 8, 68, 127
1, 373540, Note_on_c, 5, 65, 127
1, 373646, Note_off_c, 8, 68, 127
1, 373647, Note_on_c, 10, 69, 127
1, 373753, Note_off_c, 10, 69, 127
1, 373753, Note_off_c, 5, 65, 127
1, 373754, Note_on_c, 1, 73, 127
1, 373754, Note_on_c, 7, 55, 127
1, 373861, Note_on_c, 10, 69, 127
1, 373864, Note_off_c, 1, 73, 127
1, 373966, Note_off_c, 10, 69, 127
1, 373966, Note_off_c, 7, 55, 127
1, 373967, Note_on_c, 8, 68, 127
1, 373967, Note_on_c, 4, 64, 127
1, 374073, Note_off_c, 8, 68, 127
1, 374074, Note_on_c, 10, 69, 127
1, 374180, Note_off_c, 10, 69, 127
1, 374180, Note_off_c, 4, 64, 127
1, 374181, Note_on_c, 2, 74, 127
1, 374181, Note_on_c, 5, 53, 127
1, 374288, Note_on_c, 10, 69, 127
1, 374304, Note_off_c, 2, 74, 127
1, 374394, Note_off_c, 10, 69, 127
1, 374394, Note_off_c, 5, 53, 127
1, 374395, Note_on_c, 8, 68, 127
1, 374395, Note_on_c, 2, 62, 127
1, 374501, Note_off_c, 8, 68, 127
1, 374502, Note_on_c, 10, 69, 127
1, 374608, Note_off_c, 10, 69, 127
1, 374608, Note_off_c, 2, 62, 127
1, 374609, Note_on_c, 4, 76, 127
1, 374609, Note_on_c, 4, 52, 127
1, 374716, Note_on_c, 10, 69, 127
1, 374732, Note_off_c, 4, 76, 127
1, 374822, Note_off_c, 10, 69, 127
1, 374822, Note_off_c, 4, 52, 127
1, 374823, Note_on_c, 8, 68, 127
1, 374823, Note_on_c, 1, 61, 127
1, 374929, Note_off_c, 8, 68, 127
1, 374930, Note_on_c, 10, 69, 127
1, 375036, Note_off_c, 10, 69, 127
1, 375036, Note_off_c, 1, 61, 127
1, 375037, Note_on_c, 5, 77, 127
1, 375037, Note_on_c, 2, 50, 127
1, 375251, Note_on_c, 2, 62, 127
1, 375464, Note_off_c, 2, 62, 127
1, 375465, Note_on_c, 8, 56, 127
1, 375572, Note_off_c, 5, 77, 127
1, 375573, Note_on_c, 2, 74, 127
1, 375680, Note_off_c, 2, 74, 127
1, 375680, Note_off_c, 8, 56, 127
1, 375680, Note_off_c, 2, 50, 127
1, 375681, Note_on_c, 0, 72, 127
1, 375681, Note_on_c, 12, 59, 127
1, 375788, Note_off_c, 0, 72, 127
1, 375789, Note_on_c, 2, 74, 127
1, 375896, Note_off_c, 2, 74, 127
1, 375897, Note_on_c, 4, 76, 127
1, 375897, Note_on_c, 0, 48, 127
1, 376004, Note_off_c, 4, 76, 127
1, 376005, Note_on_c, 0, 72, 127
1, 376108, Note_off_c, 12, 59, 127
1, 376111, Note_off_c, 0, 72, 127
1, 376112, Note_on_c, 12, 71, 127
1, 376112, Note_on_c, 10, 57, 127
1, 376219, Note_off_c, 12, 71, 127
1, 376220, Note_on_c, 0, 72, 127
1, 376323, Note_off_c, 0, 48, 127
1, 376326, Note_off_c, 0, 72, 127
1, 376327, Note_on_c, 2, 74, 127
1, 376327, Note_on_c, 12, 47, 127
1, 376434, Note_off_c, 2, 74, 127
1, 376435, Note_on_c, 12, 71, 127
1, 376538, Note_off_c, 10, 57, 127
1, 376541, Note_off_c, 12, 71, 127
1, 376542, Note_on_c, 10, 69, 127
1, 376542, Note_on_c, 8, 56, 127
1, 376649, Note_off_c, 10, 69, 127
1, 376650, Note_on_c, 12, 71, 127
1, 376753, Note_off_c, 12, 47, 127
1, 376756, Note_off_c, 12, 71, 127
1, 376756, Note_off_c, 8, 56, 127
1, 376757, Note_on_c, 0, 72, 127
1, 376757, Note_on_c, 10, 57, 127
1, 376757, Note_on_c, 10, 45, 127
1, 376865, Note_off_c, 0, 72, 127
1, 376866, Note_on_c, 10, 69, 127
1, 376974, Note_off_c, 10, 69, 127
1, 376974, Note_off_c, 10, 45, 127
1, 376975, Note_on_c, 8, 68, 127
1, 376975, Note_on_c, 12, 47, 127
1, 377083, Note_off_c, 12, 47, 127
1, 377083, Note_off_c, 8, 68, 127
1, 377084, Note_on_c, 10, 69, 127
1, 377084, Note_on_c, 0, 48, 127
1, 377188, Note_off_c, 10, 57, 127
1, 377191, Note_off_c, 0, 48, 127
1, 377191, Note_off_c, 10, 69, 127
1, 377192, Note_on_c, 12, 71, 127
1, 377192, Note_on_c, 2, 38, 127
1, 377409, Note_on_c, 5, 65, 127
1, 377622, Note_off_c, 12, 71, 127
1, 377625, Note_off_c, 2, 38, 127
1, 377626, Note_on_c, 8, 68, 127
1, 377626, Note_on_c, 4, 40, 127
1, 377726, Note_off_c, 5, 65, 127
1, 377844, Note_on_c, 4, 64, 127
1, 378057, Note_off_c, 8, 68, 127
1, 378060, Note_off_c, 4, 64, 127
1, 378060, Note_off_c, 4, 40, 127
1, 378061, Note_on_c, 2, 62, 127
1, 378061, Note_on_c, 10, 69, 127
1, 378061, Note_on_c, 10, 45, 127
1, 378572, Note_off_c, 2, 62, 127
1, 378605, Note_on_c, 0, 60, 127
1, 378605, Note_on_c, 4, 52, 127
1, 378828, Note_off_c, 10, 45, 127
1, 379148, Note_off_c, 4, 52, 127
1, 379200, Note_on_c, 10, 57, 127
1, 379628, Note_off_c, 0, 60, 127
1, 380304, Note_off_c, 10, 57, 127
1, 380526, Note_on_c, 4, 76, 127
1, 380526, Note_on_c, 4, 52, 127
1, 380526, Note_on_c, 10, 57, 127
1, 380526, Note_on_c, 0, 48, 127
1, 380526, Note_on_c, 10, 45, 127
1, 380640, Note_off_c, 4, 76, 127
1, 380641, Note_on_c, 0, 72, 127
1, 380735, Note_off_c, 10, 69, 127
1, 380754, Note_off_c, 10, 45, 127
1, 380754, Note_off_c, 0, 48, 127
1, 380754, Note_off_c, 10, 57, 127
1, 380754, Note_off_c, 4, 52, 127
1, 380755, Note_off_c, 0, 72, 127
1, 380756, Note_on_c, 10, 69, 127
1, 380986, Note_on_c, 4, 52, 127
1, 380986, Note_on_c, 10, 57, 127
1, 380986, Note_on_c, 0, 48, 127
1, 381214, Note_off_c, 0, 48, 127
1, 381214, Note_off_c, 10, 57, 127
1, 381214, Note_off_c, 4, 52, 127
1, 381215, Note_off_c, 10, 69, 127
1, 381216, Note_on_c, 8, 68, 127
1, 381330, Note_off_c, 8, 68, 127
1, 381331, Note_on_c, 10, 69, 127
1, 381445, Note_off_c, 10, 69, 127
1, 381446, Note_on_c, 12, 71, 127
1, 381446, Note_on_c, 4, 52, 127
1, 381446, Note_on_c, 8, 56, 127
1, 381560, Note_off_c, 12, 71, 127
1, 381561, Note_on_c, 0, 72, 127
1, 381674, Note_off_c, 8, 56, 127
1, 381674, Note_off_c, 4, 52, 127
1, 381675, Note_off_c, 0, 72, 127
1, 381676, Note_on_c, 2, 74, 127
1, 381790, Note_off_c, 2, 74, 127
1, 381791, Note_on_c, 12, 71, 127
1, 381905, Note_off_c, 12, 71, 127
1, 381906, Note_on_c, 2, 74, 127
1, 381906, Note_on_c, 10, 57, 127
1, 382020, Note_off_c, 2, 74, 127
1, 382021, Note_on_c, 0, 72, 127
1, 382134, Note_off_c, 10, 57, 127
1, 382135, Note_off_c, 0, 72, 127
1, 382136, Note_on_c, 12, 71, 127
1, 382244, Note_off_c, 12, 71, 127
1, 382251, Note_on_c, 10, 69, 127
1, 382341, Note_off_c, 10, 69, 127
1, 382366, Note_on_c, 4, 76, 127
1, 382366, Note_on_c, 4, 52, 127
1, 382366, Note_on_c, 0, 48, 127
1, 382366, Note_on_c, 10, 45, 127
1, 382366, Note_on_c, 10, 57, 127
1, 382480, Note_off_c, 4, 76, 127
1, 382481, Note_on_c, 2, 74, 127
1, 382594, Note_off_c, 10, 57, 127
1, 382594, Note_off_c, 10, 45, 127
1, 382594, Note_off_c, 0, 48, 127
1, 382594, Note_off_c, 4, 52, 127
1, 382595, Note_off_c, 2, 74, 127
1, 382596, Note_on_c, 0, 72, 127
1, 382710, Note_off_c, 0, 72, 127
1, 382711, Note_on_c, 12, 71, 127
1, 382825, Note_off_c, 12, 71, 127
1, 382826, Note_on_c, 10, 69, 127
1, 382826, Note_on_c, 0, 48, 127
1, 382826, Note_on_c, 4, 52, 127
1, 382826, Note_on_c, 10, 57, 127
1, 382940, Note_off_c, 10, 69, 127
1, 382941, Note_on_c, 4, 64, 127
1, 383054, Note_off_c, 10, 57, 127
1, 383054, Note_off_c, 4, 52, 127
1, 383054, Note_off_c, 0, 48, 127
1, 383055, Note_off_c, 4, 64, 127
1, 383056, Note_on_c, 10, 69, 127
1, 383170, Note_off_c, 10, 69, 127
1, 383171, Note_on_c, 0, 72, 127
1, 383285, Note_off_c, 0, 72, 127
1, 383286, Note_on_c, 12, 71, 127
1, 383286, Note_on_c, 4, 52, 127
1, 383286, Note_on_c, 8, 56, 127
1, 383400, Note_off_c, 12, 71, 127
1, 383401, Note_on_c, 4, 64, 127
1, 383514, Note_off_c, 8, 56, 127
1, 383514, Note_off_c, 4, 52, 127
1, 383515, Note_off_c, 4, 64, 127
1, 383516, Note_on_c, 12, 71, 127
1, 383630, Note_off_c, 12, 71, 127
1, 383631, Note_on_c, 2, 74, 127
1, 383745, Note_off_c, 2, 74, 127
1, 383746, Note_on_c, 0, 72, 127
1, 383746, Note_on_c, 10, 57, 127
1, 383860, Note_off_c, 0, 72, 127
1, 383861, Note_on_c, 4, 76, 127
1, 383974, Note_off_c, 10, 57, 127
1, 383975, Note_off_c, 4, 76, 127
1, 383976, Note_on_c, 0, 72, 127
1, 384090, Note_off_c, 0, 72, 127
1, 384091, Note_on_c, 10, 69, 127
1, 384205, Note_off_c, 10, 69, 127
1, 384206, Note_on_c, 0, 72, 127
1, 384206, Note_on_c, 10, 45, 127
1, 384320, Note_off_c, 0, 72, 127
1, 384321, Note_on_c, 10, 69, 127
1, 384435, Note_off_c, 10, 69, 127
1, 384435, Note_off_c, 10, 45, 127
1, 384436, Note_on_c, 7, 67, 127
1, 384436, Note_on_c, 10, 57, 127
1, 384550, Note_off_c, 7, 67, 127
1, 384551, Note_on_c, 5, 65, 127
1, 384665, Note_off_c, 5, 65, 127
1, 384665, Note_off_c, 10, 57, 127
1, 384666, Note_on_c, 4, 64, 127
1, 384666, Note_on_c, 7, 55, 127
1, 384780, Note_off_c, 4, 64, 127
1, 384781, Note_on_c, 7, 67, 127
1, 384895, Note_off_c, 7, 67, 127
1, 384895, Note_off_c, 7, 55, 127
1, 384896, Note_on_c, 10, 69, 127
1, 384896, Note_on_c, 7, 43, 127
1, 385010, Note_off_c, 10, 69, 127
1, 385011, Note_on_c, 12, 71, 127
1, 385125, Note_off_c, 12, 71, 127
1, 385125, Note_off_c, 7, 43, 127
1, 385126, Note_on_c, 0, 72, 127
1, 385126, Note_on_c, 5, 41, 127
1, 385240, Note_off_c, 0, 72, 127
1, 385241, Note_on_c, 5, 65, 127
1, 385355, Note_off_c, 5, 65, 127
1, 385355, Note_off_c, 5, 41, 127
1, 385356, Note_on_c, 4, 64, 127
1, 385356, Note_on_c, 5, 53, 127
1, 385470, Note_off_c, 4, 64, 127
1, 385471, Note_on_c, 2, 62, 127
1, 385585, Note_off_c, 2, 62, 127
1, 385585, Note_off_c, 5, 53, 127
1, 385586, Note_on_c, 0, 60, 127
1, 385586, Note_on_c, 4, 52, 127
1, 385700, Note_off_c, 0, 60, 127
1, 385701, Note_on_c, 7, 67, 127
1, 385815, Note_off_c, 7, 67, 127
1, 385815, Note_off_c, 4, 52, 127
1, 385816, Note_on_c, 10, 69, 127
1, 385816, Note_on_c, 4, 40, 127
1, 385930, Note_off_c, 10, 69, 127
1, 385931, Note_on_c, 12, 71, 127
1, 386045, Note_off_c, 12, 71, 127
1, 386045, Note_off_c, 4, 40, 127
1, 386046, Note_on_c, 0, 72, 127
1, 386046, Note_on_c, 10, 45, 127
1, 386160, Note_off_c, 0, 72, 127
1, 386161, Note_on_c, 12, 71, 127
1, 386275, Note_off_c, 12, 71, 127
1, 386275, Note_off_c, 10, 45, 127
1, 386276, Note_on_c, 0, 72, 127
1, 386276, Note_on_c, 5, 53, 127
1, 386390, Note_off_c, 0, 72, 127
1, 386391, Note_on_c, 10, 69, 127
1, 386505, Note_off_c, 10, 69, 127
1, 386505, Note_off_c, 5, 53, 127
1, 386506, Note_on_c, 0, 72, 127
1, 386506, Note_on_c, 4, 52, 127
1, 386620, Note_off_c, 0, 72, 127
1, 386621, Note_on_c, 12, 71, 127
1, 386735, Note_off_c, 12, 71, 127
1, 386735, Note_off_c, 4, 52, 127
1, 386736, Note_on_c, 0, 72, 127
1, 386736, Note_on_c, 7, 43, 127
1, 386850, Note_off_c, 0, 72, 127
1, 386851, Note_on_c, 7, 67, 127
1, 386965, Note_off_c, 7, 67, 127
1, 386965, Note_off_c, 7, 43, 127
1, 386966, Note_on_c, 0, 72, 127
1, 386966, Note_on_c, 5, 41, 127
1, 387080, Note_off_c, 0, 72, 127
1, 387081, Note_on_c, 12, 71, 127
1, 387195, Note_off_c, 12, 71, 127
1, 387195, Note_off_c, 5, 41, 127
1, 387196, Note_on_c, 0, 72, 127
1, 387196, Note_on_c, 2, 50, 127
1, 387310, Note_off_c, 0, 72, 127
1, 387311, Note_on_c, 5, 65, 127
1, 387425, Note_off_c, 5, 65, 127
1, 387425, Note_off_c, 2, 50, 127
1, 387426, Note_on_c, 4, 64, 127
1, 387426, Note_on_c, 0, 48, 127
1, 387540, Note_off_c, 4, 64, 127
1, 387541, Note_on_c, 7, 67, 127
1, 387655, Note_off_c, 7, 67, 127
1, 387655, Note_off_c, 0, 48, 127
1, 387656, Note_on_c, 10, 69, 127
1, 387656, Note_on_c, 4, 40, 127
1, 387770, Note_off_c, 10, 69, 127
1, 387771, Note_on_c, 12, 71, 127
1, 387885, Note_off_c, 12, 71, 127
1, 387885, Note_off_c, 4, 40, 127
1, 387886, Note_on_c, 0, 72, 127
1, 387886, Note_on_c, 7, 43, 127
1, 388000, Note_off_c, 0, 72, 127
1, 388001, Note_on_c, 2, 74, 127
1, 388115, Note_off_c, 2, 74, 127
1, 388115, Note_off_c, 7, 43, 127
1, 388116, Note_on_c, 4, 76, 127
1, 388116, Note_on_c, 0, 48, 127
1, 388345, Note_off_c, 0, 48, 127
1, 388346, Note_on_c, 5, 41, 127
1, 388404, Note_off_c, 4, 76, 127
1, 388462, Note_on_c, 2, 74, 127
1, 388576, Note_off_c, 2, 74, 127
1, 388576, Note_off_c, 5, 41, 127
1, 388577, Note_on_c, 4, 76, 127
1, 388577, Note_on_c, 10, 45, 127
1, 388691, Note_off_c, 4, 76, 127
1, 388692, Note_on_c, 5, 77, 127
1, 388806, Note_off_c, 5, 77, 127
1, 388806, Note_off_c, 10, 45, 127
1, 388807, Note_on_c, 4, 76, 127
1, 388807, Note_on_c, 2, 50, 127
1, 388921, Note_off_c, 4, 76, 127
1, 388922, Note_on_c, 2, 74, 127
1, 389036, Note_off_c, 2, 74, 127
1, 389036, Note_off_c, 2, 50, 127
1, 389037, Note_on_c, 0, 72, 127
1, 389037, Note_on_c, 5, 53, 127
1, 389151, Note_off_c, 0, 72, 127
1, 389152, Note_on_c, 12, 71, 127
1, 389266, Note_off_c, 12, 71, 127
1, 389267, Note_on_c, 10, 69, 127
1, 389381, Note_off_c, 10, 69, 127
1, 389381, Note_off_c, 5, 53, 127
1, 389382, Note_on_c, 7, 67, 127
1, 389382, Note_on_c, 4, 52, 127
1, 389496, Note_off_c, 4, 52, 127
1, 389496, Note_off_c, 7, 67, 127
1, 389497, Note_on_c, 10, 69, 127
1, 389497, Note_on_c, 2, 50, 127
1, 389611, Note_off_c, 2, 50, 127
1, 389611, Note_off_c, 10, 69, 127
1, 389612, Note_on_c, 12, 71, 127
1, 389612, Note_on_c, 0, 48, 127
1, 389726, Note_off_c, 0, 48, 127
1, 389726, Note_off_c, 12, 71, 127
1, 389727, Note_on_c, 0, 72, 127
1, 389727, Note_on_c, 12, 47, 127
1, 389841, Note_off_c, 12, 47, 127
1, 389841, Note_off_c, 0, 72, 127
1, 389842, Note_on_c, 2, 74, 127
1, 389842, Note_on_c, 10, 45, 127
1, 389956, Note_off_c, 10, 45, 127
1, 389956, Note_off_c, 2, 74, 127
1, 389957, Note_on_c, 4, 76, 127
1, 389957, Note_on_c, 7, 43, 127
1, 390071, Note_off_c, 7, 43, 127
1, 390071, Note_off_c, 4, 76, 127
1, 390072, Note_on_c, 5, 77, 127
1, 390072, Note_on_c, 5, 41, 127
1, 390186, Note_off_c, 5, 41, 127
1, 390186, Note_off_c, 5, 77, 127
1, 390187, Note_on_c, 7, 79, 127
1, 390187, Note_on_c, 4, 40, 127
1, 390360, Note_off_c, 4, 40, 127
1, 390416, Note_off_c, 7, 79, 127
1, 390417, Note_on_c, 0, 72, 127
1, 390417, Note_on_c, 10, 45, 127
1, 390590, Note_off_c, 10, 45, 127
1, 390646, Note_off_c, 0, 72, 127
1, 390647, Note_on_c, 4, 76, 127
1, 390647, Note_on_c, 5, 41, 127
1, 390761, Note_off_c, 4, 76, 127
1, 390762, Note_on_c, 2, 74, 127
1, 390820, Note_off_c, 5, 41, 127
1, 390876, Note_off_c, 2, 74, 127
1, 390877, Note_on_c, 0, 72, 127
1, 390877, Note_on_c, 7, 43, 127
1, 390991, Note_off_c, 0, 72, 127
1, 390992, Note_on_c, 12, 71, 127
1, 391050, Note_off_c, 7, 43, 127
1, 391106, Note_off_c, 12, 71, 127
1, 391107, Note_on_c, 0, 72, 127
1, 391107, Note_on_c, 0, 36, 127
1, 391221, Note_off_c, 0, 72, 127
1, 391222, Note_on_c, 12, 71, 127
1, 391336, Note_off_c, 12, 71, 127
1, 391337, Note_on_c, 0, 72, 127
1, 391539, Note_off_c, 0, 36, 127
1, 391567, Note_off_c, 0, 72, 127
1, 391568, Note_on_c, 7, 79, 127
1, 391568, Note_on_c, 7, 55, 127
1, 391568, Note_on_c, 0, 60, 127
1, 391568, Note_on_c, 4, 52, 127
1, 391568, Note_on_c, 0, 48, 127
1, 391682, Note_off_c, 7, 79, 127
1, 391683, Note_on_c, 4, 76, 127
1, 391796, Note_off_c, 0, 48, 127
1, 391796, Note_off_c, 4, 52, 127
1, 391796, Note_off_c, 0, 60, 127
1, 391796, Note_off_c, 7, 55, 127
1, 391797, Note_off_c, 4, 76, 127
1, 391798, Note_on_c, 0, 72, 127
1, 392028, Note_on_c, 7, 55, 127
1, 392028, Note_on_c, 0, 60, 127
1, 392028, Note_on_c, 4, 52, 127
1, 392256, Note_off_c, 4, 52, 127
1, 392256, Note_off_c, 0, 60, 127
1, 392256, Note_off_c, 7, 55, 127
1, 392257, Note_off_c, 0, 72, 127
1, 392258, Note_on_c, 12, 71, 127
1, 392372, Note_off_c, 12, 71, 127
1, 392373, Note_on_c, 0, 72, 127
1, 392487, Note_off_c, 0, 72, 127
1, 392488, Note_on_c, 2, 74, 127
1, 392488, Note_on_c, 12, 59, 127
1, 392488, Note_on_c, 7, 55, 127
1, 392602, Note_off_c, 2, 74, 127
1, 392603, Note_on_c, 4, 76, 127
1, 392716, Note_off_c, 7, 55, 127
1, 392716, Note_off_c, 12, 59, 127
1, 392717, Note_off_c, 4, 76, 127
1, 392718, Note_on_c, 5, 77, 127
1, 392832, Note_off_c, 5, 77, 127
1, 392833, Note_on_c, 2, 74, 127
1, 392947, Note_off_c, 2, 74, 127
1, 392948, Note_on_c, 5, 77, 127
1, 392948, Note_on_c, 0, 60, 127
1, 393062, Note_off_c, 5, 77, 127
1, 393063, Note_on_c, 4, 76, 127
1, 393176, Note_off_c, 0, 60, 127
1, 393177, Note_off_c, 4, 76, 127
1, 393178, Note_on_c, 2, 74, 127
1, 393286, Note_off_c, 2, 74, 127
1, 393293, Note_on_c, 0, 72, 127
1, 393383, Note_off_c, 0, 72, 127
1, 393408, Note_on_c, 10, 81, 127
1, 393408, Note_on_c, 10, 57, 127
1, 393408, Note_on_c, 2, 62, 127
1, 393408, Note_on_c, 5, 53, 127
1, 393522, Note_off_c, 10, 81, 127
1, 393523, Note_on_c, 5, 77, 127
1, 393636, Note_off_c, 5, 53, 127
1, 393636, Note_off_c, 2, 62, 127
1, 393636, Note_off_c, 10, 57, 127
1, 393637, Note_off_c, 5, 77, 127
1, 393638, Note_on_c, 2, 74, 127
1, 393868, Note_on_c, 7, 55, 127
1, 393868, Note_on_c, 11, 58, 127
1, 394096, Note_off_c, 11, 58, 127
1, 394096, Note_off_c, 7, 55, 127
1, 394097, Note_off_c, 2, 74, 127
1, 394098, Note_on_c, 1, 73, 127
1, 394212, Note_off_c, 1, 73, 127
1, 394213, Note_on_c, 2, 74, 127
1, 394327, Note_off_c, 2, 74, 127
1, 394328, Note_on_c, 4, 76, 127
1, 394328, Note_on_c, 10, 57, 127
1, 394328, Note_on_c, 1, 49, 127
1, 394328, Note_on_c, 4, 52, 127
1, 394442, Note_off_c, 4, 76, 127
1, 394443, Note_on_c, 5, 77, 127
1, 394556, Note_off_c, 4, 52, 127
1, 394556, Note_off_c, 1, 49, 127
1, 394556, Note_off_c, 10, 57, 127
1, 394557, Note_off_c, 5, 77, 127
1, 394558, Note_on_c, 7, 79, 127
1, 394672, Note_off_c, 7, 79, 127
1, 394673, Note_on_c, 4, 76, 127
1, 394787, Note_off_c, 4, 76, 127
1, 394788, Note_on_c, 7, 79, 127
1, 394788, Note_on_c, 2, 50, 127
1, 394788, Note_on_c, 10, 57, 127
1, 394902, Note_off_c, 7, 79, 127
1, 394903, Note_on_c, 5, 77, 127
1, 395016, Note_off_c, 10, 57, 127
1, 395016, Note_off_c, 2, 50, 127
1, 395017, Note_off_c, 5, 77, 127
1, 395018, Note_on_c, 4, 76, 127
1, 395132, Note_off_c, 4, 76, 127
1, 395133, Note_on_c, 2, 74, 127
1, 395241, Note_off_c, 2, 74, 127
1, 395248, Note_on_c, 11, 82, 127
1, 395248, Note_on_c, 2, 62, 127
1, 395362, Note_off_c, 11, 82, 127
1, 395363, Note_on_c, 0, 84, 127
1, 395477, Note_off_c, 0, 84, 127
1, 395477, Note_off_c, 2, 62, 127
1, 395478, Note_on_c, 11, 82, 127
1, 395478, Note_on_c, 2, 50, 127
1, 395592, Note_off_c, 11, 82, 127
1, 395593, Note_on_c, 7, 79, 127
1, 395707, Note_off_c, 7, 79, 127
1, 395707, Note_off_c, 2, 50, 127
1, 395708, Note_on_c, 10, 81, 127
1, 395708, Note_on_c, 0, 48, 127
1, 395822, Note_off_c, 10, 81, 127
1, 395823, Note_on_c, 2, 86, 127
1, 395937, Note_off_c, 2, 86, 127
1, 395937, Note_off_c, 0, 48, 127
1, 395938, Note_on_c, 10, 81, 127
1, 395938, Note_on_c, 0, 60, 127
1, 396052, Note_off_c, 10, 81, 127
1, 396053, Note_on_c, 5, 77, 127
1, 396167, Note_off_c, 5, 77, 127
1, 396167, Note_off_c, 0, 60, 127
1, 396168, Note_on_c, 7, 79, 127
1, 396168, Note_on_c, 11, 58, 127
1, 396282, Note_off_c, 7, 79, 127
1, 396283, Note_on_c, 10, 81, 127
1, 396397, Note_off_c, 10, 81, 127
1, 396397, Note_off_c, 11, 58, 127
1, 396398, Note_on_c, 7, 79, 127
1, 396398, Note_on_c, 11, 46, 127
1, 396512, Note_off_c, 7, 79, 127
1, 396513, Note_on_c, 4, 76, 127
1, 396627, Note_off_c, 4, 76, 127
1, 396627, Note_off_c, 11, 46, 127
1, 396628, Note_on_c, 5, 77, 127
1, 396628, Note_on_c, 10, 45, 127
1, 396743, Note_on_c, 2, 86, 127
1, 396772, Note_off_c, 5, 77, 127
1, 396857, Note_off_c, 2, 86, 127
1, 396857, Note_off_c, 10, 45, 127
1, 396858, Note_on_c, 5, 77, 127
1, 396858, Note_on_c, 10, 57, 127
1, 396972, Note_off_c, 5, 77, 127
1, 396973, Note_on_c, 2, 74, 127
1, 397087, Note_off_c, 2, 74, 127
1, 397087, Note_off_c, 10, 57, 127
1, 397088, Note_on_c, 3, 75, 127
1, 397088, Note_on_c, 7, 55, 127
1, 397202, Note_off_c, 3, 75, 127
1, 397203, Note_on_c, 11, 82, 127
1, 397317, Note_off_c, 11, 82, 127
1, 397317, Note_off_c, 7, 55, 127
1, 397318, Note_on_c, 7, 79, 127
1, 397318, Note_on_c, 7, 43, 127
1, 397432, Note_off_c, 7, 79, 127
1, 397433, Note_on_c, 3, 75, 127
1, 397547, Note_off_c, 3, 75, 127
1, 397548, Note_on_c, 1, 73, 127
1, 397606, Note_off_c, 7, 43, 127
1, 397662, Note_off_c, 1, 73, 127
1, 397663, Note_on_c, 10, 69, 127
1, 397663, Note_on_c, 4, 52, 127
1, 397777, Note_off_c, 4, 52, 127
1, 397777, Note_off_c, 10, 69, 127
1, 397778, Note_on_c, 10, 81, 127
1, 397778, Note_on_c, 5, 53, 127
1, 397892, Note_off_c, 5, 53, 127
1, 397893, Note_on_c, 7, 55, 127
1, 398007, Note_off_c, 7, 55, 127
1, 398007, Note_off_c, 10, 81, 127
1, 398008, Note_on_c, 2, 74, 127
1, 398008, Note_on_c, 10, 57, 127
1, 398084, Note_off_c, 2, 74, 127
1, 398085, Note_on_c, 1, 73, 127
1, 398161, Note_off_c, 1, 73, 127
1, 398162, Note_on_c, 2, 74, 127
1, 398238, Note_off_c, 2, 74, 127
1, 398238, Note_off_c, 10, 57, 127
1, 398239, Note_on_c, 4, 76, 127
1, 398239, Note_on_c, 10, 45, 127
1, 398353, Note_off_c, 4, 76, 127
1, 398354, Note_on_c, 1, 73, 127
1, 398468, Note_off_c, 1, 73, 127
1, 398468, Note_off_c, 10, 45, 127
1, 398469, Note_on_c, 2, 74, 127
1, 398469, Note_on_c, 2, 50, 127
1, 398545, Note_off_c, 2, 74, 127
1, 398546, Note_on_c, 1, 73, 127
1, 398583, Note_off_c, 2, 50, 127
1, 398584, Note_on_c, 10, 45, 127
1, 398621, Note_off_c, 1, 73, 127
1, 398622, Note_on_c, 2, 74, 127
1, 398698, Note_off_c, 10, 45, 127
1, 398699, Note_on_c, 5, 41, 127
1, 398813, Note_off_c, 5, 41, 127
1, 398814, Note_on_c, 10, 45, 127
1, 398850, Note_off_c, 2, 74, 127
1, 398928, Note_off_c, 10, 45, 127
1, 398929, Note_on_c, 5, 77, 127
1, 398929, Note_on_c, 2, 38, 127
1, 399043, Note_off_c, 5, 77, 127
1, 399044, Note_on_c, 2, 74, 127
1, 399158, Note_off_c, 2, 74, 127
1, 399158, Note_off_c, 2, 38, 127
1, 399159, Note_on_c, 10, 69, 127
1, 399159, Note_on_c, 5, 41, 127
1, 399273, Note_off_c, 5, 41, 127
1, 399274, Note_on_c, 10, 45, 127
1, 399388, Note_off_c, 10, 45, 127
1, 399389, Note_on_c, 2, 50, 127
1, 399567, Note_off_c, 10, 69, 127
1, 399619, Note_off_c, 2, 50, 127
1, 399620, Note_on_c, 12, 71, 127
1, 399620, Note_on_c, 0, 48, 127
1, 399734, Note_off_c, 12, 71, 127
1, 399735, Note_on_c, 0, 72, 127
1, 399849, Note_off_c, 0, 72, 127
1, 399849, Note_off_c, 0, 48, 127
1, 399850, Note_on_c, 2, 74, 127
1, 399850, Note_on_c, 12, 47, 127
1, 399964, Note_off_c, 2, 74, 127
1, 399965, Note_on_c, 4, 76, 127
1, 400079, Note_off_c, 4, 76, 127
1, 400079, Note_off_c, 12, 47, 127
1, 400080, Note_on_c, 5, 77, 127
1, 400080, Note_on_c, 10, 45, 127
1, 400194, Note_off_c, 5, 77, 127
1, 400195, Note_on_c, 2, 74, 127
1, 400309, Note_off_c, 2, 74, 127
1, 400309, Note_off_c, 10, 45, 127
1, 400310, Note_on_c, 0, 72, 127
1, 400310, Note_on_c, 7, 43, 127
1, 400424, Note_off_c, 0, 72, 127
1, 400425, Note_on_c, 12, 71, 127
1, 400539, Note_off_c, 12, 71, 127
1, 400539, Note_off_c, 7, 43, 127
1, 400540, Note_on_c, 10, 69, 127
1, 400540, Note_on_c, 10, 45, 127
1, 400648, Note_off_c, 10, 69, 127
1, 400654, Note_off_c, 10, 45, 127
1, 400655, Note_on_c, 7, 67, 127
1, 400655, Note_on_c, 12, 47, 127
1, 400757, Note_off_c, 7, 67, 127
1, 400769, Note_off_c, 12, 47, 127
1, 400770, Note_on_c, 4, 76, 127
1, 400770, Note_on_c, 0, 48, 127
1, 400884, Note_off_c, 0, 48, 127
1, 400884, Note_off_c, 4, 76, 127
1, 400885, Note_on_c, 0, 72, 127
1, 400885, Note_on_c, 2, 50, 127
1, 400999, Note_off_c, 2, 50, 127
1, 400999, Note_off_c, 0, 72, 127
1, 401000, Note_on_c, 8, 68, 127
1, 401000, Note_on_c, 4, 52, 127
1, 401114, Note_off_c, 4, 52, 127
1, 401115, Note_on_c, 0, 48, 127
1, 401229, Note_off_c, 0, 48, 127
1, 401230, Note_on_c, 5, 53, 127
1, 401408, Note_off_c, 8, 68, 127
1, 401460, Note_off_c, 5, 53, 127
1, 401461, Note_on_c, 10, 69, 127
1, 401461, Note_on_c, 4, 52, 127
1, 401575, Note_off_c, 10, 69, 127
1, 401576, Note_on_c, 12, 71, 127
1, 401690, Note_off_c, 12, 71, 127
1, 401690, Note_off_c, 4, 52, 127
1, 401691, Note_on_c, 0, 72, 127
1, 401691, Note_on_c, 2, 50, 127
1, 401805, Note_off_c, 0, 72, 127
1, 401806, Note_on_c, 2, 74, 127
1, 401920, Note_off_c, 2, 74, 127
1, 401920, Note_off_c, 2, 50, 127
1, 401921, Note_on_c, 4, 76, 127
1, 401921, Note_on_c, 0, 48, 127
1, 402035, Note_off_c, 4, 76, 127
1, 402036, Note_on_c, 0, 72, 127
1, 402150, Note_off_c, 0, 72, 127
1, 402150, Note_off_c, 0, 48, 127
1, 402151, Note_on_c, 12, 71, 127
1, 402151, Note_on_c, 2, 50, 127
1, 402265, Note_off_c, 12, 71, 127
1, 402266, Note_on_c, 10, 69, 127
1, 402380, Note_off_c, 10, 69, 127
1, 402380, Note_off_c, 2, 50, 127
1, 402381, Note_on_c, 8, 68, 127
1, 402381, Note_on_c, 0, 48, 127
1, 402495, Note_off_c, 8, 68, 127
1, 402496, Note_on_c, 10, 69, 127
1, 402604, Note_off_c, 10, 69, 127
1, 402610, Note_off_c, 0, 48, 127
1, 402611, Note_on_c, 2, 74, 127
1, 402611, Note_on_c, 12, 47, 127
1, 402725, Note_off_c, 2, 74, 127
1, 402726, Note_on_c, 5, 65, 127
1, 402840, Note_off_c, 5, 65, 127
1, 402840, Note_off_c, 12, 47, 127
1, 402841, Note_on_c, 4, 64, 127
1, 402841, Note_on_c, 10, 45, 127
1, 402955, Note_off_c, 4, 64, 127
1, 402956, Note_on_c, 2, 62, 127
1, 403070, Note_off_c, 2, 62, 127
1, 403070, Note_off_c, 10, 45, 127
1, 403071, Note_on_c, 2, 74, 127
1, 403071, Note_on_c, 12, 47, 127
1, 403185, Note_off_c, 2, 74, 127
1, 403186, Note_on_c, 8, 68, 127
1, 403300, Note_off_c, 8, 68, 127
1, 403300, Note_off_c, 12, 47, 127
1, 403301, Note_on_c, 6, 66, 127
1, 403301, Note_on_c, 10, 45, 127
1, 403415, Note_off_c, 6, 66, 127
1, 403416, Note_on_c, 4, 64, 127
1, 403530, Note_off_c, 4, 64, 127
1, 403530, Note_off_c, 10, 45, 127
1, 403531, Note_on_c, 2, 74, 127
1, 403531, Note_on_c, 8, 44, 127
1, 403645, Note_off_c, 2, 74, 127
1, 403646, Note_on_c, 12, 71, 127
1, 403760, Note_off_c, 12, 71, 127
1, 403760, Note_off_c, 8, 44, 127
1, 403761, Note_on_c, 10, 69, 127
1, 403761, Note_on_c, 6, 42, 127
1, 403875, Note_off_c, 10, 69, 127
1, 403876, Note_on_c, 8, 68, 127
1, 403990, Note_off_c, 8, 68, 127
1, 403990, Note_off_c, 6, 42, 127
1, 403991, Note_on_c, 2, 74, 127
1, 403991, Note_on_c, 8, 44, 127
1, 404105, Note_off_c, 2, 74, 127
1, 404106, Note_on_c, 0, 72, 127
1, 404220, Note_off_c, 0, 72, 127
1, 404220, Note_off_c, 8, 44, 127
1, 404221, Note_on_c, 12, 71, 127
1, 404221, Note_on_c, 4, 52, 127
1, 404335, Note_off_c, 12, 71, 127
1, 404336, Note_on_c, 5, 77, 127
1, 404450, Note_off_c, 5, 77, 127
1, 404450, Note_off_c, 4, 52, 127
1, 404451, Note_on_c, 4, 76, 127
1, 404451, Note_on_c, 6, 54, 127
1, 404565, Note_off_c, 4, 76, 127
1, 404566, Note_on_c, 2, 74, 127
1, 404680, Note_off_c, 2, 74, 127
1, 404680, Note_off_c, 6, 54, 127
1, 404681, Note_on_c, 0, 72, 127
1, 404681, Note_on_c, 8, 56, 127
1, 404795, Note_off_c, 0, 72, 127
1, 404796, Note_on_c, 12, 71, 127
1, 404910, Note_off_c, 12, 71, 127
1, 404910, Note_off_c, 8, 56, 127
1, 404911, Note_on_c, 0, 72, 127
1, 404911, Note_on_c, 10, 57, 127
1, 405025, Note_off_c, 0, 72, 127
1, 405026, Note_on_c, 12, 71, 127
1, 405140, Note_off_c, 12, 71, 127
1, 405140, Note_off_c, 10, 57, 127
1, 405141, Note_on_c, 2, 74, 127
1, 405141, Note_on_c, 5, 53, 127
1, 405255, Note_off_c, 2, 74, 127
1, 405256, Note_on_c, 0, 72, 127
1, 405370, Note_off_c, 0, 72, 127
1, 405370, Note_off_c, 5, 53, 127
1, 405371, Note_on_c, 12, 71, 127
1, 405371, Note_on_c, 2, 50, 127
1, 405485, Note_off_c, 12, 71, 127
1, 405486, Note_on_c, 10, 69, 127
1, 405600, Note_off_c, 10, 69, 127
1, 405600, Note_off_c, 2, 50, 127
1, 405601, Note_on_c, 8, 68, 127
1, 405601, Note_on_c, 5, 53, 127
1, 405715, Note_off_c, 8, 68, 127
1, 405716, Note_on_c, 10, 69, 127
1, 405830, Note_off_c, 10, 69, 127
1, 405830, Note_off_c, 5, 53, 127
1, 405831, Note_on_c, 12, 71, 127
1, 405831, Note_on_c, 4, 52, 127
1, 405945, Note_off_c, 12, 71, 127
1, 405946, Note_on_c, 8, 68, 127
1, 406060, Note_off_c, 8, 68, 127
1, 406060, Note_off_c, 4, 52, 127
1, 406061, Note_on_c, 6, 66, 127
1, 406061, Note_on_c, 2, 50, 127
1, 406169, Note_off_c, 6, 66, 127
1, 406192, Note_on_c, 4, 64, 127
1, 406282, Note_off_c, 4, 64, 127
1, 406290, Note_off_c, 2, 50, 127
1, 406307, Note_on_c, 0, 48, 127
1, 406307, Note_on_c, 4, 52, 127
1, 406307, Note_on_c, 10, 57, 127
1, 406307, Note_on_c, 4, 76, 127
1, 406423, Note_off_c, 4, 76, 127
1, 406424, Note_on_c, 0, 72, 127
1, 406539, Note_off_c, 10, 57, 127
1, 406539, Note_off_c, 4, 52, 127
1, 406539, Note_off_c, 0, 48, 127
1, 406540, Note_off_c, 0, 72, 127
1, 406541, Note_on_c, 10, 69, 127
1, 406776, Note_on_c, 2, 50, 127
1, 406776, Note_on_c, 12, 47, 127
1, 406776, Note_on_c, 5, 53, 127
1, 406776, Note_on_c, 12, 59, 127
1, 406892, Note_off_c, 10, 69, 127
1, 406893, Note_on_c, 8, 68, 127
1, 407008, Note_off_c, 12, 59, 127
1, 407008, Note_off_c, 5, 53, 127
1, 407008, Note_off_c, 12, 47, 127
1, 407008, Note_off_c, 2, 50, 127
1, 407009, Note_off_c, 8, 68, 127
1, 407010, Note_on_c, 10, 69, 127
1, 407244, Note_off_c, 10, 69, 127
1, 407245, Note_on_c, 10, 45, 127
1, 407245, Note_on_c, 12, 47, 127
1, 407245, Note_on_c, 2, 50, 127
1, 407245, Note_on_c, 5, 53, 127
1, 407245, Note_on_c, 12, 71, 127
1, 407355, Note_off_c, 12, 47, 127
1, 407361, Note_off_c, 12, 71, 127
1, 407362, Note_on_c, 0, 72, 127
1, 407477, Note_off_c, 5, 53, 127
1, 407477, Note_off_c, 2, 50, 127
1, 407477, Note_off_c, 10, 45, 127
1, 407478, Note_off_c, 0, 72, 127
1, 407479, Note_on_c, 2, 74, 127
1, 407595, Note_off_c, 2, 74, 127
1, 407596, Note_on_c, 4, 76, 127
1, 407712, Note_off_c, 4, 76, 127
1, 407713, Note_on_c, 2, 50, 127
1, 407713, Note_on_c, 8, 44, 127
1, 407713, Note_on_c, 12, 47, 127
1, 407713, Note_on_c, 5, 77, 127
1, 407832, Note_off_c, 5, 77, 127
1, 407832, Note_off_c, 12, 47, 127
1, 407832, Note_off_c, 8, 44, 127
1, 407833, Note_on_c, 10, 45, 127
1, 407833, Note_on_c, 4, 76, 127
1, 407951, Note_off_c, 2, 50, 127
1, 407952, Note_off_c, 4, 76, 127
1, 407952, Note_off_c, 10, 45, 127
1, 407953, Note_on_c, 12, 47, 127
1, 407953, Note_on_c, 2, 74, 127
1, 408072, Note_off_c, 2, 74, 127
1, 408072, Note_off_c, 12, 47, 127
1, 408073, Note_on_c, 0, 48, 127
1, 408073, Note_on_c, 5, 77, 127
1, 408192, Note_off_c, 5, 77, 127
1, 408192, Note_off_c, 0, 48, 127
1, 408193, Note_on_c, 2, 50, 127
1, 408193, Note_on_c, 4, 76, 127
1, 408312, Note_off_c, 4, 76, 127
1, 408312, Note_off_c, 2, 50, 127
1, 408313, Note_on_c, 4, 52, 127
1, 408313, Note_on_c, 2, 74, 127
1, 408432, Note_off_c, 2, 74, 127
1, 408432, Note_off_c, 4, 52, 127
1, 408433, Note_on_c, 6, 54, 127
1, 408433, Note_on_c, 0, 72, 127
1, 408552, Note_off_c, 0, 72, 127
1, 408552, Note_off_c, 6, 54, 127
1, 408553, Note_on_c, 8, 56, 127
1, 408553, Note_on_c, 12, 71, 127
1, 408672, Note_off_c, 12, 71, 127
1, 408672, Note_off_c, 8, 56, 127
1, 408673, Note_on_c, 10, 57, 127
1, 408673, Note_on_c, 0, 72, 127
1, 408800, Note_off_c, 0, 72, 127
1, 408801, Note_on_c, 2, 74, 127
1, 408928, Note_off_c, 2, 74, 127
1, 408928, Note_off_c, 10, 57, 127
1, 408929, Note_on_c, 0, 48, 127
1, 408929, Note_on_c, 4, 76, 127
1, 409056, Note_off_c, 4, 76, 127
1, 409057, Note_on_c, 10, 69, 127
1, 409184, Note_off_c, 10, 69, 127
1, 409184, Note_off_c, 0, 48, 127
1, 409185, Note_on_c, 2, 50, 127
1, 409185, Note_on_c, 0, 72, 127
1, 409312, Note_off_c, 0, 72, 127
1, 409313, Note_on_c, 12, 71, 127
1, 409440, Note_off_c, 12, 71, 127
1, 409440, Note_off_c, 2, 50, 127
1, 409441, Note_on_c, 4, 52, 127
1, 409441, Note_on_c, 10, 69, 127
1, 409568, Note_off_c, 10, 69, 127
1, 409576, Note_on_c, 8, 68, 127
1, 409696, Note_off_c, 4, 52, 127
1, 409710, Note_off_c, 8, 68, 127
1, 409721, Note_on_c, 10, 45, 127
1, 409721, Note_on_c, 10, 69, 127
1, 409784, Note_off_c, 10, 69, 127
1, 409785, Note_on_c, 8, 68, 127
1, 409848, Note_off_c, 8, 68, 127
1, 409849, Note_on_c, 10, 69, 127
1, 410921, Note_off_c, 10, 45, 127
1, 411321, Note_on_c, 4, 64, 127
1, 411335, Note_off_c, 10, 69, 127
1, 411469, Note_on_c, 10, 57, 127
1, 411473, Note_off_c, 4, 64, 127
1, 411584, Note_off_c, 10, 57, 127
1, 411590, Note_on_c, 0, 60, 127
1, 411705, Note_off_c, 0, 60, 127
1, 411711, Note_on_c, 4, 64, 127
1, 411826, Note_off_c, 4, 64, 127
1, 411832, Note_on_c, 10, 69, 127
1, 411947, Note_off_c, 10, 69, 127
1, 411953, Note_on_c, 8, 68, 127
1, 412068, Note_off_c, 8, 68, 127
1, 412074, Note_on_c, 10, 69, 127
1, 412189, Note_off_c, 10, 69, 127
1, 412195, Note_on_c, 12, 59, 127
1, 412310, Note_off_c, 12, 59, 127
1, 412316, Note_on_c, 2, 62, 127
1, 412431, Note_off_c, 2, 62, 127
1, 412437, Note_on_c, 4, 64, 127
1, 412552, Note_off_c, 4, 64, 127
1, 412558, Note_on_c, 10, 69, 127
1, 412673, Note_off_c, 10, 69, 127
1, 412679, Note_on_c, 8, 68, 127
1, 412794, Note_off_c, 8, 68, 127
1, 412800, Note_on_c, 10, 69, 127
1, 412915, Note_off_c, 10, 69, 127
1, 412921, Note_on_c, 0, 60, 127
1, 413036, Note_off_c, 0, 60, 127
1, 413042, Note_on_c, 4, 64, 127
1, 413157, Note_off_c, 4, 64, 127
1, 413163, Note_on_c, 8, 68, 127
1, 413278, Note_off_c, 8, 68, 127
1, 413284, Note_on_c, 10, 69, 127
1, 413399, Note_off_c, 10, 69, 127
1, 413405, Note_on_c, 12, 71, 127
1, 413520, Note_off_c, 12, 71, 127
1, 413526, Note_on_c, 0, 72, 127
1, 413641, Note_off_c, 0, 72, 127
1, 413647, Note_on_c, 2, 62, 127
1, 413762, Note_off_c, 2, 62, 127
1, 413768, Note_on_c, 0, 72, 127
1, 413883, Note_off_c, 0, 72, 127
1, 413889, Note_on_c, 10, 69, 127
1, 414004, Note_off_c, 10, 69, 127
1, 414010, Note_on_c, 11, 70, 127
1, 414125, Note_off_c, 11, 70, 127
1, 414131, Note_on_c, 2, 74, 127
1, 414246, Note_off_c, 2, 74, 127
1, 414252, Note_on_c, 10, 57, 127
1, 414252, Note_on_c, 10, 69, 127
1, 414367, Note_off_c, 10, 69, 127
1, 414367, Note_off_c, 10, 57, 127
1, 414373, Note_on_c, 4, 52, 127
1, 414373, Note_on_c, 8, 68, 127
1, 414488, Note_off_c, 4, 52, 127
1, 414494, Note_on_c, 8, 56, 127
1, 414609, Note_off_c, 8, 56, 127
1, 414615, Note_on_c, 12, 59, 127
1, 414730, Note_off_c, 12, 59, 127
1, 414736, Note_on_c, 4, 64, 127
1, 414826, Note_off_c, 8, 68, 127
1, 414852, Note_off_c, 4, 64, 127
1, 414858, Note_on_c, 3, 63, 127
1, 414858, Note_on_c, 6, 66, 127
1, 414973, Note_off_c, 6, 66, 127
1, 414973, Note_off_c, 3, 63, 127
1, 414979, Note_on_c, 4, 64, 127
1, 414979, Note_on_c, 7, 67, 127
1, 415094, Note_off_c, 7, 67, 127
1, 415094, Note_off_c, 4, 64, 127
1, 415100, Note_on_c, 6, 54, 127
1, 415100, Note_on_c, 10, 69, 127
1, 415215, Note_off_c, 6, 54, 127
1, 415221, Note_on_c, 10, 57, 127
1, 415336, Note_off_c, 10, 57, 127
1, 415342, Note_on_c, 12, 59, 127
1, 415457, Note_off_c, 12, 59, 127
1, 415463, Note_on_c, 4, 64, 127
1, 415553, Note_off_c, 10, 69, 127
1, 415579, Note_off_c, 4, 64, 127
1, 415585, Note_on_c, 3, 63, 127
1, 415585, Note_on_c, 12, 71, 127
1, 415700, Note_off_c, 12, 71, 127
1, 415700, Note_off_c, 3, 63, 127
1, 415706, Note_on_c, 4, 64, 127
1, 415706, Note_on_c, 0, 72, 127
1, 415821, Note_off_c, 0, 72, 127
1, 415821, Note_off_c, 4, 64, 127
1, 415827, Note_on_c, 7, 55, 127
1, 415827, Note_on_c, 12, 71, 127
1, 415942, Note_off_c, 7, 55, 127
1, 415948, Note_on_c, 12, 59, 127
1, 416063, Note_off_c, 12, 59, 127
1, 416069, Note_on_c, 3, 63, 127
1, 416184, Note_off_c, 3, 63, 127
1, 416190, Note_on_c, 4, 64, 127
1, 416294, Note_off_c, 12, 71, 127
1, 416305, Note_off_c, 4, 64, 127
1, 416311, Note_on_c, 6, 66, 127
1, 416311, Note_on_c, 3, 75, 127
1, 416426, Note_off_c, 3, 75, 127
1, 416426, Note_off_c, 6, 66, 127
1, 416432, Note_on_c, 7, 67, 127
1, 416432, Note_on_c, 4, 76, 127
1, 416547, Note_off_c, 4, 76, 127
1, 416547, Note_off_c, 7, 67, 127
1, 416553, Note_on_c, 10, 57, 127
1, 416553, Note_on_c, 0, 72, 127
1, 416668, Note_off_c, 10, 57, 127
1, 416674, Note_on_c, 7, 67, 127
1, 416789, Note_off_c, 7, 67, 127
1, 416795, Note_on_c, 4, 64, 127
1, 416910, Note_off_c, 4, 64, 127
1, 416916, Note_on_c, 5, 65, 127
1, 417031, Note_off_c, 5, 65, 127
1, 417037, Note_on_c, 10, 69, 127
1, 417152, Note_off_c, 10, 69, 127
1, 417158, Note_on_c, 4, 64, 127
1, 417273, Note_off_c, 4, 64, 127
1, 417279, Note_on_c, 3, 63, 127
1, 417396, Note_off_c, 0, 72, 127
1, 417400, Note_on_c, 12, 71, 127
1, 417515, Note_off_c, 12, 71, 127
1, 417521, Note_on_c, 10, 69, 127
1, 417636, Note_off_c, 10, 69, 127
1, 417642, Note_on_c, 12, 71, 127
1, 417757, Note_off_c, 12, 71, 127
1, 417759, Note_off_c, 3, 63, 127
1, 417763, Note_on_c, 1, 61, 127
1, 417763, Note_on_c, 6, 78, 127
1, 417878, Note_off_c, 6, 78, 127
1, 417878, Note_off_c, 1, 61, 127
1, 417884, Note_on_c, 3, 63, 127
1, 417884, Note_on_c, 10, 69, 127
1, 417999, Note_off_c, 3, 63, 127
1, 418005, Note_on_c, 4, 64, 127
1, 418100, Note_off_c, 10, 69, 127
1, 418126, Note_on_c, 7, 67, 127
1, 418241, Note_off_c, 7, 67, 127
1, 418247, Note_on_c, 6, 66, 127
1, 418362, Note_off_c, 6, 66, 127
1, 418368, Note_on_c, 7, 67, 127
1, 418485, Note_off_c, 4, 64, 127
1, 418489, Note_on_c, 12, 59, 127
1, 418604, Note_off_c, 12, 59, 127
1, 418610, Note_on_c, 2, 62, 127
1, 418725, Note_off_c, 2, 62, 127
1, 418731, Note_on_c, 1, 61, 127
1, 418821, Note_off_c, 7, 67, 127
1, 418852, Note_on_c, 10, 69, 127
1, 418967, Note_off_c, 10, 69, 127
1, 418973, Note_on_c, 7, 67, 127
1, 419088, Note_off_c, 7, 67, 127
1, 419094, Note_on_c, 10, 69, 127
1, 419209, Note_off_c, 10, 69, 127
1, 419211, Note_off_c, 1, 61, 127
1, 419215, Note_on_c, 12, 59, 127
1, 419215, Note_on_c, 4, 76, 127
1, 419330, Note_off_c, 4, 76, 127
1, 419330, Note_off_c, 12, 59, 127
1, 419336, Note_on_c, 1, 61, 127
1, 419336, Note_on_c, 7, 67, 127
1, 419451, Note_off_c, 1, 61, 127
1, 419457, Note_on_c, 2, 62, 127
1, 419562, Note_off_c, 7, 67, 127
1, 419578, Note_on_c, 5, 65, 127
1, 419693, Note_off_c, 5, 65, 127
1, 419699, Note_on_c, 4, 64, 127
1, 419814, Note_off_c, 4, 64, 127
1, 419820, Note_on_c, 5, 65, 127
1, 419937, Note_off_c, 2, 62, 127
1, 419941, Note_on_c, 10, 57, 127
1, 420056, Note_off_c, 10, 57, 127
1, 420062, Note_on_c, 0, 60, 127
1, 420177, Note_off_c, 0, 60, 127
1, 420183, Note_on_c, 12, 59, 127
1, 420273, Note_off_c, 5, 65, 127
1, 420304, Note_on_c, 5, 65, 127
1, 420419, Note_off_c, 5, 65, 127
1, 420421, Note_off_c, 12, 59, 127
1, 420425, Note_on_c, 0, 60, 127
1, 420425, Note_on_c, 4, 64, 127
1, 420540, Note_off_c, 4, 64, 127
1, 420540, Note_off_c, 0, 60, 127
1, 420546, Note_on_c, 12, 59, 127
1, 420546, Note_on_c, 5, 65, 127
1, 420661, Note_off_c, 5, 65, 127
1, 420667, Note_on_c, 2, 74, 127
1, 420782, Note_off_c, 2, 74, 127
1, 420784, Note_off_c, 12, 59, 127
1, 420788, Note_on_c, 10, 57, 127
1, 420788, Note_on_c, 5, 65, 127
1, 420903, Note_off_c, 10, 57, 127
1, 420909, Note_on_c, 8, 56, 127
1, 421026, Note_off_c, 5, 65, 127
1, 421030, Note_on_c, 4, 64, 127
1, 421145, Note_off_c, 4, 64, 127
1, 421147, Note_off_c, 8, 56, 127
1, 421151, Note_on_c, 12, 59, 127
1, 421151, Note_on_c, 2, 62, 127
1, 421266, Note_off_c, 2, 62, 127
1, 421266, Note_off_c, 12, 59, 127
1, 421272, Note_on_c, 8, 56, 127
1, 421272, Note_on_c, 4, 64, 127
1, 421387, Note_off_c, 4, 64, 127
1, 421393, Note_on_c, 2, 74, 127
1, 421508, Note_off_c, 2, 74, 127
1, 421510, Note_off_c, 8, 56, 127
1, 421514, Note_on_c, 4, 52, 127
1, 421514, Note_on_c, 4, 64, 127
1, 421629, Note_off_c, 4, 64, 127
1, 421629, Note_off_c, 4, 52, 127
1, 421635, Note_on_c, 10, 57, 127
1, 421635, Note_on_c, 10, 45, 127
1, 421635, Note_on_c, 0, 72, 127
1, 421750, Note_off_c, 10, 45, 127
1, 421756, Note_on_c, 0, 48, 127
1, 421871, Note_off_c, 0, 48, 127
1, 421875, Note_off_c, 10, 57, 127
1, 421877, Note_on_c, 4, 52, 127
1, 421877, Note_on_c, 8, 68, 127
1, 421992, Note_off_c, 8, 68, 127
1, 421992, Note_off_c, 4, 52, 127
1, 421998, Note_on_c, 10, 57, 127
1, 421998, Note_on_c, 10, 69, 127
1, 422113, Note_off_c, 10, 57, 127
1, 422117, Note_off_c, 0, 72, 127
1, 422119, Note_on_c, 8, 56, 127
1, 422119, Note_on_c, 12, 71, 127
1, 422234, Note_off_c, 12, 71, 127
1, 422234, Note_off_c, 8, 56, 127
1, 422240, Note_on_c, 10, 57, 127
1, 422240, Note_on_c, 0, 72, 127
1, 422355, Note_off_c, 0, 72, 127
1, 422355, Note_off_c, 10, 57, 127
1, 422361, Note_on_c, 12, 47, 127
1, 422361, Note_on_c, 2, 74, 127
1, 422476, Note_off_c, 12, 47, 127
1, 422482, Note_on_c, 2, 50, 127
1, 422597, Note_off_c, 2, 50, 127
1, 422602, Note_off_c, 10, 69, 127
1, 422603, Note_on_c, 4, 52, 127
1, 422603, Note_on_c, 8, 68, 127
1, 422718, Note_off_c, 8, 68, 127
1, 422718, Note_off_c, 4, 52, 127
1, 422724, Note_on_c, 10, 57, 127
1, 422724, Note_on_c, 12, 71, 127
1, 422839, Note_off_c, 10, 57, 127
1, 422843, Note_off_c, 2, 74, 127
1, 422845, Note_on_c, 8, 56, 127
1, 422845, Note_on_c, 4, 76, 127
1, 422960, Note_off_c, 4, 76, 127
1, 422960, Note_off_c, 8, 56, 127
1, 422966, Note_on_c, 10, 57, 127
1, 422966, Note_on_c, 5, 77, 127
1, 423081, Note_off_c, 5, 77, 127
1, 423081, Note_off_c, 10, 57, 127
1, 423087, Note_on_c, 0, 48, 127
1, 423087, Note_on_c, 4, 76, 127
1, 423202, Note_off_c, 0, 48, 127
1, 423206, Note_off_c, 12, 71, 127
1, 423208, Note_on_c, 4, 52, 127
1, 423208, Note_on_c, 10, 69, 127
1, 423323, Note_off_c, 10, 69, 127
1, 423323, Note_off_c, 4, 52, 127
1, 423329, Note_on_c, 8, 56, 127
1, 423329, Note_on_c, 12, 71, 127
1, 423444, Note_off_c, 12, 71, 127
1, 423444, Note_off_c, 8, 56, 127
1, 423450, Note_on_c, 10, 57, 127
1, 423450, Note_on_c, 0, 72, 127
1, 423565, Note_off_c, 10, 57, 127
1, 423569, Note_off_c, 4, 76, 127
1, 423571, Note_on_c, 12, 59, 127
1, 423571, Note_on_c, 8, 80, 127
1, 423686, Note_off_c, 8, 80, 127
1, 423686, Note_off_c, 12, 59, 127
1, 423692, Note_on_c, 0, 60, 127
1, 423692, Note_on_c, 10, 81, 127
1, 423807, Note_off_c, 10, 81, 127
1, 423807, Note_off_c, 0, 60, 127
1, 423813, Note_on_c, 2, 50, 127
1, 423813, Note_on_c, 5, 77, 127
1, 423928, Note_off_c, 2, 50, 127
1, 423932, Note_off_c, 0, 72, 127
1, 423934, Note_on_c, 0, 60, 127
1, 423934, Note_on_c, 10, 69, 127
1, 424049, Note_off_c, 10, 69, 127
1, 424049, Note_off_c, 0, 60, 127
1, 424055, Note_on_c, 10, 57, 127
1, 424055, Note_on_c, 1, 73, 127
1, 424170, Note_off_c, 1, 73, 127
1, 424170, Note_off_c, 10, 57, 127
1, 424176, Note_on_c, 11, 58, 127
1, 424176, Note_on_c, 2, 74, 127
1, 424291, Note_off_c, 2, 74, 127
1, 424291, Note_off_c, 11, 58, 127
1, 424295, Note_off_c, 5, 77, 127
1, 424297, Note_on_c, 2, 62, 127
1, 424297, Note_on_c, 5, 77, 127
1, 424412, Note_off_c, 5, 77, 127
1, 424412, Note_off_c, 2, 62, 127
1, 424418, Note_on_c, 10, 57, 127
1, 424418, Note_on_c, 0, 72, 127
1, 424533, Note_off_c, 0, 72, 127
1, 424533, Note_off_c, 10, 57, 127
1, 424539, Note_on_c, 8, 56, 127
1, 424539, Note_on_c, 12, 71, 127
1, 424660, Note_on_c, 4, 76, 127
1, 424775, Note_off_c, 4, 76, 127
1, 424777, Note_off_c, 8, 56, 127
1, 424781, Note_on_c, 12, 59, 127
1, 424781, Note_on_c, 2, 74, 127
1, 424896, Note_off_c, 2, 74, 127
1, 424896, Note_off_c, 12, 59, 127
1, 424902, Note_on_c, 8, 56, 127
1, 424902, Note_on_c, 4, 76, 127
1, 425017, Note_off_c, 4, 76, 127
1, 425023, Note_on_c, 12, 83, 127
1, 425138, Note_off_c, 12, 83, 127
1, 425140, Note_off_c, 8, 56, 127
1, 425144, Note_on_c, 4, 52, 127
1, 425144, Note_on_c, 2, 74, 127
1, 425259, Note_off_c, 2, 74, 127
1, 425259, Note_off_c, 4, 52, 127
1, 425263, Note_off_c, 12, 71, 127
1, 425265, Note_on_c, 10, 45, 127
1, 425265, Note_on_c, 0, 72, 127
1, 425380, Note_off_c, 10, 45, 127
1, 425386, Note_on_c, 0, 48, 127
1, 425386, Note_on_c, 10, 69, 127
1, 425501, Note_off_c, 10, 69, 127
1, 425501, Note_off_c, 0, 48, 127
1, 425507, Note_on_c, 4, 52, 127
1, 425507, Note_on_c, 4, 64, 127
1, 425622, Note_off_c, 4, 64, 127
1, 425622, Note_off_c, 4, 52, 127
1, 425628, Note_on_c, 10, 57, 127
1, 425628, Note_on_c, 0, 60, 127
1, 425743, Note_off_c, 0, 60, 127
1, 425743, Note_off_c, 10, 57, 127
1, 425749, Note_on_c, 0, 60, 127
1, 425749, Note_on_c, 4, 64, 127
1, 425864, Note_off_c, 4, 64, 127
1, 425864, Note_off_c, 0, 60, 127
1, 425870, Note_on_c, 10, 57, 127
1, 425870, Note_on_c, 10, 69, 127
1, 425985, Note_off_c, 10, 69, 127
1, 425985, Note_off_c, 10, 57, 127
1, 425989, Note_off_c, 0, 72, 127
1, 425991, Note_on_c, 6, 54, 127
1, 425991, Note_on_c, 2, 62, 127
1, 426106, Note_off_c, 2, 62, 127
1, 426106, Note_off_c, 6, 54, 127
1, 426112, Note_on_c, 10, 57, 127
1, 426112, Note_on_c, 10, 69, 127
1, 426227, Note_off_c, 10, 69, 127
1, 426227, Note_off_c, 10, 57, 127
1, 426233, Note_on_c, 2, 62, 127
1, 426233, Note_on_c, 6, 66, 127
1, 426348, Note_off_c, 6, 66, 127
1, 426348, Note_off_c, 2, 62, 127
1, 426354, Note_on_c, 2, 50, 127
1, 426354, Note_on_c, 10, 69, 127
1, 426469, Note_off_c, 10, 69, 127
1, 426469, Note_off_c, 2, 50, 127
1, 426475, Note_on_c, 6, 54, 127
1, 426475, Note_on_c, 6, 66, 127
1, 426590, Note_off_c, 6, 66, 127
1, 426590, Note_off_c, 6, 54, 127
1, 426596, Note_on_c, 10, 57, 127
1, 426596, Note_on_c, 2, 62, 127
1, 426711, Note_off_c, 2, 62, 127
1, 426711, Note_off_c, 10, 57, 127
1, 426717, Note_on_c, 7, 43, 127
1, 426717, Note_on_c, 12, 71, 127
1, 426832, Note_off_c, 7, 43, 127
1, 426838, Note_on_c, 12, 47, 127
1, 426838, Note_on_c, 7, 67, 127
1, 426953, Note_off_c, 7, 67, 127
1, 426953, Note_off_c, 12, 47, 127
1, 426959, Note_on_c, 2, 50, 127
1, 426959, Note_on_c, 2, 62, 127
1, 427074, Note_off_c, 2, 62, 127
1, 427074, Note_off_c, 2, 50, 127
1, 427080, Note_on_c, 7, 55, 127
1, 427080, Note_on_c, 12, 59, 127
1, 427195, Note_off_c, 12, 59, 127
1, 427195, Note_off_c, 7, 55, 127
1, 427201, Note_on_c, 12, 59, 127
1, 427201, Note_on_c, 2, 62, 127
1, 427316, Note_off_c, 2, 62, 127
1, 427316, Note_off_c, 12, 59, 127
1, 427322, Note_on_c, 7, 55, 127
1, 427322, Note_on_c, 7, 67, 127
1, 427437, Note_off_c, 7, 67, 127
1, 427437, Note_off_c, 7, 55, 127
1, 427441, Note_off_c, 12, 71, 127
1, 427443, Note_on_c, 4, 52, 127
1, 427443, Note_on_c, 0, 60, 127
1, 427558, Note_off_c, 0, 60, 127
1, 427558, Note_off_c, 4, 52, 127
1, 427564, Note_on_c, 7, 55, 127
1, 427564, Note_on_c, 7, 67, 127
1, 427679, Note_off_c, 7, 67, 127
1, 427679, Note_off_c, 7, 55, 127
1, 427685, Note_on_c, 0, 60, 127
1, 427685, Note_on_c, 4, 64, 127
1, 427800, Note_off_c, 4, 64, 127
1, 427800, Note_off_c, 0, 60, 127
1, 427806, Note_on_c, 0, 48, 127
1, 427806, Note_on_c, 7, 67, 127
1, 427921, Note_off_c, 7, 67, 127
1, 427921, Note_off_c, 0, 48, 127
1, 427927, Note_on_c, 4, 52, 127
1, 427927, Note_on_c, 4, 64, 127
1, 428042, Note_off_c, 4, 64, 127
1, 428042, Note_off_c, 4, 52, 127
1, 428048, Note_on_c, 7, 55, 127
1, 428048, Note_on_c, 0, 60, 127
1, 428163, Note_off_c, 0, 60, 127
1, 428163, Note_off_c, 7, 55, 127
1, 428169, Note_on_c, 6, 42, 127
1, 428169, Note_on_c, 10, 69, 127
1, 428284, Note_off_c, 6, 42, 127
1, 428290, Note_on_c, 10, 45, 127
1, 428290, Note_on_c, 6, 66, 127
1, 428405, Note_off_c, 6, 66, 127
1, 428405, Note_off_c, 10, 45, 127
1, 428411, Note_on_c, 0, 48, 127
1, 428411, Note_on_c, 4, 64, 127
1, 428526, Note_off_c, 4, 64, 127
1, 428526, Note_off_c, 0, 48, 127
1, 428532, Note_on_c, 6, 54, 127
1, 428532, Note_on_c, 3, 63, 127
1, 428647, Note_off_c, 3, 63, 127
1, 428647, Note_off_c, 6, 54, 127
1, 428651, Note_off_c, 10, 69, 127
1, 428653, Note_on_c, 10, 57, 127
1, 428653, Note_on_c, 4, 64, 127
1, 428768, Note_off_c, 4, 64, 127
1, 428768, Note_off_c, 10, 57, 127
1, 428774, Note_on_c, 6, 54, 127
1, 428774, Note_on_c, 6, 66, 127
1, 428889, Note_off_c, 6, 66, 127
1, 428889, Note_off_c, 6, 54, 127
1, 428895, Note_on_c, 3, 51, 127
1, 428895, Note_on_c, 12, 59, 127
1, 429010, Note_off_c, 12, 59, 127
1, 429010, Note_off_c, 3, 51, 127
1, 429016, Note_on_c, 6, 54, 127
1, 429016, Note_on_c, 6, 66, 127
1, 429131, Note_off_c, 6, 66, 127
1, 429131, Note_off_c, 6, 54, 127
1, 429137, Note_on_c, 12, 59, 127
1, 429137, Note_on_c, 3, 63, 127
1, 429252, Note_off_c, 3, 63, 127
1, 429252, Note_off_c, 12, 59, 127
1, 429258, Note_on_c, 12, 47, 127
1, 429258, Note_on_c, 6, 66, 127
1, 429373, Note_off_c, 6, 66, 127
1, 429373, Note_off_c, 12, 47, 127
1, 429379, Note_on_c, 3, 51, 127
1, 429379, Note_on_c, 3, 63, 127
1, 429494, Note_off_c, 3, 63, 127
1, 429494, Note_off_c, 3, 51, 127
1, 429500, Note_on_c, 6, 54, 127
1, 429500, Note_on_c, 12, 59, 127
1, 429615, Note_off_c, 12, 59, 127
1, 429615, Note_off_c, 6, 54, 127
1, 429621, Note_on_c, 4, 40, 127
1, 429621, Note_on_c, 7, 67, 127
1, 429736, Note_off_c, 4, 40, 127
1, 429742, Note_on_c, 7, 43, 127
1, 429742, Note_on_c, 12, 71, 127
1, 429857, Note_off_c, 12, 71, 127
1, 429857, Note_off_c, 7, 43, 127
1, 429863, Note_on_c, 12, 47, 127
1, 429863, Note_on_c, 3, 75, 127
1, 429978, Note_off_c, 3, 75, 127
1, 429978, Note_off_c, 12, 47, 127
1, 429984, Note_on_c, 4, 52, 127
1, 429984, Note_on_c, 4, 76, 127
1, 430099, Note_off_c, 4, 52, 127
1, 430103, Note_off_c, 7, 67, 127
1, 430105, Note_on_c, 3, 51, 127
1, 430105, Note_on_c, 6, 66, 127
1, 430220, Note_off_c, 6, 66, 127
1, 430220, Note_off_c, 3, 51, 127
1, 430226, Note_on_c, 4, 52, 127
1, 430226, Note_on_c, 7, 67, 127
1, 430341, Note_off_c, 7, 67, 127
1, 430341, Note_off_c, 4, 52, 127
1, 430347, Note_on_c, 6, 42, 127
1, 430347, Note_on_c, 10, 69, 127
1, 430462, Note_off_c, 6, 42, 127
1, 430466, Note_off_c, 4, 76, 127
1, 430468, Note_on_c, 10, 45, 127
1, 430583, Note_off_c, 10, 45, 127
1, 430589, Note_on_c, 12, 47, 127
1, 430589, Note_on_c, 3, 75, 127
1, 430704, Note_off_c, 3, 75, 127
1, 430704, Note_off_c, 12, 47, 127
1, 430710, Note_on_c, 4, 52, 127
1, 430710, Note_on_c, 6, 78, 127
1, 430825, Note_off_c, 4, 52, 127
1, 430829, Note_off_c, 10, 69, 127
1, 430831, Note_on_c, 3, 51, 127
1, 430831, Note_on_c, 12, 71, 127
1, 430946, Note_off_c, 12, 71, 127
1, 430946, Note_off_c, 3, 51, 127
1, 430952, Note_on_c, 4, 52, 127
1, 430952, Note_on_c, 0, 72, 127
1, 431067, Note_off_c, 0, 72, 127
1, 431067, Note_off_c, 4, 52, 127
1, 431073, Note_on_c, 7, 43, 127
1, 431073, Note_on_c, 12, 71, 127
1, 431188, Note_off_c, 7, 43, 127
1, 431192, Note_off_c, 6, 78, 127
1, 431194, Note_on_c, 12, 47, 127
1, 431194, Note_on_c, 4, 76, 127
1, 431309, Note_off_c, 4, 76, 127
1, 431309, Note_off_c, 12, 47, 127
1, 431315, Note_on_c, 3, 51, 127
1, 431315, Note_on_c, 6, 78, 127
1, 431430, Note_off_c, 6, 78, 127
1, 431430, Note_off_c, 3, 51, 127
1, 431436, Note_on_c, 4, 52, 127
1, 431436, Note_on_c, 7, 79, 127
1, 431551, Note_off_c, 4, 52, 127
1, 431555, Note_off_c, 12, 71, 127
1, 431557, Note_on_c, 6, 54, 127
1, 431557, Note_on_c, 3, 75, 127
1, 431672, Note_off_c, 3, 75, 127
1, 431672, Note_off_c, 6, 54, 127
1, 431678, Note_on_c, 7, 55, 127
1, 431678, Note_on_c, 4, 76, 127
1, 431793, Note_off_c, 4, 76, 127
1, 431793, Note_off_c, 7, 55, 127
1, 431799, Note_on_c, 10, 45, 127
1, 431799, Note_on_c, 0, 72, 127
1, 431914, Note_off_c, 10, 45, 127
1, 431918, Note_off_c, 7, 79, 127
1, 431920, Note_on_c, 7, 55, 127
1, 431920, Note_on_c, 4, 76, 127
1, 432035, Note_off_c, 4, 76, 127
1, 432035, Note_off_c, 7, 55, 127
1, 432041, Note_on_c, 4, 52, 127
1, 432041, Note_on_c, 8, 80, 127
1, 432156, Note_off_c, 8, 80, 127
1, 432156, Note_off_c, 4, 52, 127
1, 432162, Note_on_c, 5, 53, 127
1, 432162, Note_on_c, 10, 81, 127
1, 432277, Note_off_c, 10, 81, 127
1, 432277, Note_off_c, 5, 53, 127
1, 432283, Note_on_c, 10, 57, 127
1, 432283, Note_on_c, 0, 84, 127
1, 432398, Note_off_c, 0, 84, 127
1, 432398, Note_off_c, 10, 57, 127
1, 432404, Note_on_c, 4, 52, 127
1, 432404, Note_on_c, 7, 79, 127
1, 432519, Note_off_c, 7, 79, 127
1, 432519, Note_off_c, 4, 52, 127
1, 432525, Note_on_c, 3, 51, 127
1, 432525, Note_on_c, 6, 78, 127
1, 432630, Note_off_c, 0, 72, 127
1, 432646, Note_on_c, 12, 71, 127
1, 432765, Note_off_c, 12, 71, 127
1, 432767, Note_on_c, 10, 69, 127
1, 432882, Note_off_c, 10, 69, 127
1, 432888, Note_on_c, 12, 71, 127
1, 433003, Note_off_c, 12, 71, 127
1, 433005, Note_off_c, 3, 51, 127
1, 433007, Note_off_c, 6, 78, 127
1, 433009, Note_on_c, 1, 49, 127
1, 433009, Note_on_c, 6, 78, 127
1, 433124, Note_off_c, 6, 78, 127
1, 433124, Note_off_c, 1, 49, 127
1, 433130, Note_on_c, 3, 51, 127
1, 433130, Note_on_c, 10, 69, 127
1, 433245, Note_off_c, 10, 69, 127
1, 433245, Note_off_c, 3, 51, 127
1, 433251, Note_on_c, 4, 40, 127
1, 433251, Note_on_c, 7, 67, 127
1, 433366, Note_off_c, 4, 40, 127
1, 433372, Note_on_c, 7, 43, 127
1, 433372, Note_on_c, 4, 76, 127
1, 433487, Note_off_c, 4, 76, 127
1, 433487, Note_off_c, 7, 43, 127
1, 433493, Note_on_c, 12, 47, 127
1, 433493, Note_on_c, 3, 75, 127
1, 433608, Note_off_c, 3, 75, 127
1, 433608, Note_off_c, 12, 47, 127
1, 433614, Note_on_c, 4, 52, 127
1, 433614, Note_on_c, 4, 76, 127
1, 433729, Note_off_c, 4, 52, 127
1, 433735, Note_on_c, 7, 55, 127
1, 433850, Note_off_c, 7, 55, 127
1, 433852, Note_off_c, 4, 76, 127
1, 433856, Note_on_c, 4, 52, 127
1, 433856, Note_on_c, 12, 71, 127
1, 433971, Note_off_c, 12, 71, 127
1, 433971, Note_off_c, 4, 52, 127
1, 433977, Note_on_c, 1, 49, 127
1, 433977, Note_on_c, 4, 76, 127
1, 434082, Note_off_c, 7, 67, 127
1, 434098, Note_on_c, 10, 69, 127
1, 434213, Note_off_c, 10, 69, 127
1, 434219, Note_on_c, 7, 67, 127
1, 434334, Note_off_c, 7, 67, 127
1, 434340, Note_on_c, 10, 69, 127
1, 434455, Note_off_c, 10, 69, 127
1, 434457, Note_off_c, 1, 49, 127
1, 434459, Note_off_c, 4, 76, 127
1, 434461, Note_on_c, 12, 47, 127
1, 434461, Note_on_c, 4, 76, 127
1, 434576, Note_off_c, 4, 76, 127
1, 434576, Note_off_c, 12, 47, 127
1, 434582, Note_on_c, 1, 49, 127
1, 434582, Note_on_c, 7, 67, 127
1, 434697, Note_off_c, 7, 67, 127
1, 434697, Note_off_c, 1, 49, 127
1, 434703, Note_on_c, 2, 38, 127
1, 434703, Note_on_c, 5, 65, 127
1, 434818, Note_off_c, 2, 38, 127
1, 434824, Note_on_c, 5, 41, 127
1, 434824, Note_on_c, 2, 74, 127
1, 434939, Note_off_c, 2, 74, 127
1, 434939, Note_off_c, 5, 41, 127
1, 434945, Note_on_c, 10, 45, 127
1, 434945, Note_on_c, 1, 73, 127
1, 435060, Note_off_c, 1, 73, 127
1, 435060, Note_off_c, 10, 45, 127
1, 435066, Note_on_c, 2, 50, 127
1, 435066, Note_on_c, 2, 74, 127
1, 435181, Note_off_c, 2, 50, 127
1, 435187, Note_on_c, 5, 53, 127
1, 435302, Note_off_c, 5, 53, 127
1, 435304, Note_off_c, 2, 74, 127
1, 435308, Note_on_c, 2, 50, 127
1, 435308, Note_on_c, 10, 69, 127
1, 435423, Note_off_c, 10, 69, 127
1, 435423, Note_off_c, 2, 50, 127
1, 435429, Note_on_c, 12, 47, 127
1, 435429, Note_on_c, 2, 74, 127
1, 435534, Note_off_c, 5, 65, 127
1, 435550, Note_on_c, 7, 67, 127
1, 435665, Note_off_c, 7, 67, 127
1, 435671, Note_on_c, 5, 65, 127
1, 435786, Note_off_c, 5, 65, 127
1, 435792, Note_on_c, 7, 67, 127
1, 435907, Note_off_c, 7, 67, 127
1, 435909, Note_off_c, 12, 47, 127
1, 435911, Note_off_c, 2, 74, 127
1, 435913, Note_on_c, 10, 45, 127
1, 435913, Note_on_c, 2, 74, 127
1, 436028, Note_off_c, 2, 74, 127
1, 436028, Note_off_c, 10, 45, 127
1, 436034, Note_on_c, 12, 47, 127
1, 436034, Note_on_c, 5, 65, 127
1, 436149, Note_off_c, 5, 65, 127
1, 436149, Note_off_c, 12, 47, 127
1, 436155, Note_on_c, 0, 36, 127
1, 436155, Note_on_c, 4, 64, 127
1, 436270, Note_off_c, 0, 36, 127
1, 436276, Note_on_c, 4, 40, 127
1, 436276, Note_on_c, 0, 72, 127
1, 436391, Note_off_c, 0, 72, 127
1, 436391, Note_off_c, 4, 40, 127
1, 436397, Note_on_c, 7, 43, 127
1, 436397, Note_on_c, 12, 71, 127
1, 436512, Note_off_c, 12, 71, 127
1, 436512, Note_off_c, 7, 43, 127
1, 436518, Note_on_c, 0, 48, 127
1, 436518, Note_on_c, 0, 72, 127
1, 436633, Note_off_c, 0, 48, 127
1, 436639, Note_on_c, 4, 52, 127
1, 436754, Note_off_c, 4, 52, 127
1, 436756, Note_off_c, 0, 72, 127
1, 436760, Note_on_c, 0, 48, 127
1, 436760, Note_on_c, 8, 68, 127
1, 436875, Note_off_c, 8, 68, 127
1, 436875, Note_off_c, 0, 48, 127
1, 436881, Note_on_c, 5, 41, 127
1, 436881, Note_on_c, 10, 69, 127
1, 436986, Note_off_c, 4, 64, 127
1, 436996, Note_off_c, 5, 41, 127
1, 437002, Note_on_c, 10, 45, 127
1, 437117, Note_off_c, 10, 45, 127
1, 437123, Note_on_c, 0, 48, 127
1, 437123, Note_on_c, 10, 57, 127
1, 437238, Note_off_c, 10, 57, 127
1, 437238, Note_off_c, 0, 48, 127
1, 437244, Note_on_c, 5, 53, 127
1, 437244, Note_on_c, 2, 62, 127
1, 437359, Note_off_c, 5, 53, 127
1, 437365, Note_on_c, 10, 57, 127
1, 437457, Note_off_c, 10, 69, 127
1, 437481, Note_off_c, 10, 57, 127
1, 437487, Note_on_c, 5, 53, 127
1, 437487, Note_on_c, 10, 69, 127
1, 437602, Note_off_c, 10, 69, 127
1, 437602, Note_off_c, 5, 53, 127
1, 437608, Note_on_c, 12, 47, 127
1, 437608, Note_on_c, 2, 74, 127
1, 437698, Note_off_c, 2, 62, 127
1, 437724, Note_off_c, 12, 47, 127
1, 437730, Note_on_c, 2, 50, 127
1, 437730, Note_on_c, 5, 65, 127
1, 437845, Note_off_c, 5, 65, 127
1, 437845, Note_off_c, 2, 50, 127
1, 437851, Note_on_c, 5, 53, 127
1, 437851, Note_on_c, 10, 69, 127
1, 437966, Note_off_c, 10, 69, 127
1, 437966, Note_off_c, 5, 53, 127
1, 437972, Note_on_c, 12, 59, 127
1, 437972, Note_on_c, 8, 68, 127
1, 438087, Note_off_c, 8, 68, 127
1, 438087, Note_off_c, 12, 59, 127
1, 438093, Note_on_c, 2, 62, 127
1, 438093, Note_on_c, 12, 71, 127
1, 438208, Note_off_c, 12, 71, 127
1, 438208, Note_off_c, 2, 62, 127
1, 438214, Note_on_c, 12, 59, 127
1, 438214, Note_on_c, 10, 69, 127
1, 438329, Note_off_c, 10, 69, 127
1, 438329, Note_off_c, 12, 59, 127
1, 438335, Note_on_c, 4, 52, 127
1, 438335, Note_on_c, 12, 71, 127
1, 438440, Note_off_c, 2, 74, 127
1, 438450, Note_off_c, 4, 52, 127
1, 438456, Note_on_c, 8, 56, 127
1, 438456, Note_on_c, 12, 83, 127
1, 438571, Note_off_c, 12, 83, 127
1, 438571, Note_off_c, 8, 56, 127
1, 438575, Note_off_c, 12, 71, 127
1, 438577, Note_on_c, 12, 59, 127
1, 438577, Note_on_c, 8, 80, 127
1, 438692, Note_off_c, 8, 80, 127
1, 438692, Note_off_c, 12, 59, 127
1, 438698, Note_on_c, 4, 64, 127
1, 438698, Note_on_c, 4, 76, 127
1, 438813, Note_off_c, 4, 76, 127
1, 438813, Note_off_c, 4, 64, 127
1, 438819, Note_on_c, 8, 68, 127
1, 438819, Note_on_c, 12, 71, 127
1, 438934, Note_off_c, 12, 71, 127
1, 438934, Note_off_c, 8, 68, 127
1, 438940, Note_on_c, 4, 64, 127
1, 438940, Note_on_c, 4, 76, 127
1, 439055, Note_off_c, 4, 76, 127
1, 439055, Note_off_c, 4, 64, 127
1, 439061, Note_on_c, 0, 60, 127
1, 439061, Note_on_c, 10, 69, 127
1, 439176, Note_off_c, 10, 69, 127
1, 439182, Note_on_c, 0, 72, 127
1, 439297, Note_off_c, 0, 72, 127
1, 439303, Note_on_c, 4, 76, 127
1, 439418, Note_off_c, 4, 76, 127
1, 439424, Note_on_c, 4, 64, 127
1, 439424, Note_on_c, 10, 81, 127
1, 439539, Note_off_c, 10, 81, 127
1, 439545, Note_on_c, 8, 80, 127
1, 439660, Note_off_c, 8, 80, 127
1, 439666, Note_on_c, 10, 81, 127
1, 439781, Note_off_c, 10, 81, 127
1, 439783, Note_off_c, 4, 64, 127
1, 439785, Note_off_c, 0, 60, 127
1, 439787, Note_on_c, 2, 62, 127
1, 439787, Note_on_c, 5, 65, 127
1, 439787, Note_on_c, 12, 71, 127
1, 439902, Note_off_c, 12, 71, 127
1, 439908, Note_on_c, 2, 74, 127
1, 440023, Note_off_c, 2, 74, 127
1, 440025, Note_off_c, 5, 65, 127
1, 440025, Note_off_c, 2, 62, 127
1, 440029, Note_on_c, 4, 64, 127
1, 440029, Note_on_c, 0, 60, 127
1, 440029, Note_on_c, 4, 76, 127
1, 440144, Note_off_c, 4, 76, 127
1, 440144, Note_off_c, 0, 60, 127
1, 440144, Note_off_c, 4, 64, 127
1, 440150, Note_on_c, 2, 62, 127
1, 440150, Note_on_c, 12, 59, 127
1, 440150, Note_on_c, 10, 81, 127
1, 440265, Note_off_c, 10, 81, 127
1, 440271, Note_on_c, 8, 80, 127
1, 440386, Note_off_c, 8, 80, 127
1, 440392, Note_on_c, 10, 81, 127
1, 440507, Note_off_c, 10, 81, 127
1, 440509, Note_off_c, 12, 59, 127
1, 440509, Note_off_c, 2, 62, 127
1, 440513, Note_on_c, 4, 64, 127
1, 440513, Note_on_c, 10, 57, 127
1, 440513, Note_on_c, 0, 72, 127
1, 440628, Note_off_c, 0, 72, 127
1, 440634, Note_on_c, 4, 76, 127
1, 440749, Note_off_c, 4, 76, 127
1, 440751, Note_off_c, 4, 64, 127
1, 440755, Note_on_c, 12, 59, 127
1, 440755, Note_on_c, 8, 80, 127
1, 440870, Note_off_c, 8, 80, 127
1, 440870, Note_off_c, 12, 59, 127
1, 440876, Note_on_c, 0, 60, 127
1, 440876, Note_on_c, 10, 81, 127
1, 440991, Note_off_c, 10, 81, 127
1, 440997, Note_on_c, 12, 83, 127
1, 441112, Note_off_c, 12, 83, 127
1, 441114, Note_off_c, 0, 60, 127
1, 441118, Note_on_c, 7, 55, 127
1, 441118, Note_on_c, 4, 64, 127
1, 441118, Note_on_c, 0, 84, 127
1, 441120, Note_off_c, 10, 57, 127
1, 441233, Note_off_c, 0, 84, 127
1, 441233, Note_off_c, 4, 64, 127
1, 441233, Note_off_c, 7, 55, 127
1, 441239, Note_on_c, 5, 53, 127
1, 441239, Note_on_c, 10, 57, 127
1, 441239, Note_on_c, 2, 74, 127
1, 441354, Note_off_c, 2, 74, 127
1, 441360, Note_on_c, 0, 84, 127
1, 441475, Note_off_c, 0, 84, 127
1, 441481, Note_on_c, 10, 81, 127
1, 441596, Note_off_c, 10, 81, 127
1, 441598, Note_off_c, 10, 57, 127
1, 441602, Note_on_c, 2, 62, 127
1, 441602, Note_on_c, 11, 82, 127
1, 441717, Note_off_c, 11, 82, 127
1, 441723, Note_on_c, 2, 86, 127
1, 441838, Note_off_c, 2, 86, 127
1, 441844, Note_on_c, 10, 81, 127
1, 441959, Note_off_c, 10, 81, 127
1, 441963, Note_off_c, 5, 53, 127
1, 441965, Note_on_c, 4, 52, 127
1, 441965, Note_on_c, 8, 80, 127
1, 442055, Note_off_c, 2, 62, 127
1, 442081, Note_off_c, 8, 80, 127
1, 442081, Note_off_c, 4, 52, 127
1, 442087, Note_on_c, 8, 56, 127
1, 442087, Note_on_c, 12, 83, 127
1, 442202, Note_off_c, 12, 83, 127
1, 442202, Note_off_c, 8, 56, 127
1, 442208, Note_on_c, 12, 59, 127
1, 442208, Note_on_c, 8, 80, 127
1, 442323, Note_off_c, 8, 80, 127
1, 442323, Note_off_c, 12, 59, 127
1, 442329, Note_on_c, 4, 64, 127
1, 442329, Note_on_c, 4, 76, 127
1, 442444, Note_off_c, 4, 76, 127
1, 442444, Note_off_c, 4, 64, 127
1, 442450, Note_on_c, 8, 68, 127
1, 442450, Note_on_c, 12, 71, 127
1, 442565, Note_off_c, 12, 71, 127
1, 442565, Note_off_c, 8, 68, 127
1, 442571, Note_on_c, 4, 64, 127
1, 442571, Note_on_c, 2, 74, 127
1, 442686, Note_off_c, 2, 74, 127
1, 442686, Note_off_c, 4, 64, 127
1, 442692, Note_on_c, 10, 45, 127
1, 442692, Note_on_c, 0, 72, 127
1, 442692, Note_on_c, 10, 69, 127
1, 442807, Note_off_c, 0, 72, 127
1, 442807, Note_off_c, 10, 45, 127
1, 442813, Note_on_c, 0, 48, 127
1, 442813, Note_on_c, 4, 76, 127
1, 442928, Note_off_c, 4, 76, 127
1, 442928, Note_off_c, 0, 48, 127
1, 442932, Note_off_c, 10, 69, 127
1, 442934, Note_on_c, 4, 52, 127
1, 442934, Note_on_c, 0, 72, 127
1, 443049, Note_off_c, 0, 72, 127
1, 443049, Note_off_c, 4, 52, 127
1, 443055, Note_on_c, 10, 57, 127
1, 443055, Note_on_c, 10, 69, 127
1, 443170, Note_off_c, 10, 69, 127
1, 443170, Note_off_c, 10, 57, 127
1, 443176, Note_on_c, 0, 60, 127
1, 443176, Note_on_c, 4, 64, 127
1, 443291, Note_off_c, 4, 64, 127
1, 443291, Note_off_c, 0, 60, 127
1, 443297, Note_on_c, 10, 57, 127
1, 443297, Note_on_c, 7, 67, 127
1, 443412, Note_off_c, 7, 67, 127
1, 443412, Note_off_c, 10, 57, 127
1, 443418, Note_on_c, 2, 50, 127
1, 443418, Note_on_c, 5, 65, 127
1, 443533, Note_off_c, 5, 65, 127
1, 443539, Note_on_c, 5, 53, 127
1, 443539, Note_on_c, 10, 81, 127
1, 443654, Note_off_c, 10, 81, 127
1, 443654, Note_off_c, 5, 53, 127
1, 443660, Note_on_c, 10, 57, 127
1, 443660, Note_on_c, 5, 77, 127
1, 443775, Note_off_c, 5, 77, 127
1, 443775, Note_off_c, 10, 57, 127
1, 443776, Note_off_c, 2, 50, 127
1, 443781, Note_on_c, 2, 62, 127
1, 443781, Note_on_c, 2, 74, 127
1, 443896, Note_off_c, 2, 74, 127
1, 443896, Note_off_c, 2, 62, 127
1, 443902, Note_on_c, 5, 65, 127
1, 443902, Note_on_c, 10, 69, 127
1, 444017, Note_off_c, 10, 69, 127
1, 444017, Note_off_c, 5, 65, 127
1, 444023, Note_on_c, 2, 62, 127
1, 444023, Note_on_c, 0, 72, 127
1, 444138, Note_off_c, 0, 72, 127
1, 444138, Note_off_c, 2, 62, 127
1, 444144, Note_on_c, 7, 43, 127
1, 444144, Note_on_c, 12, 71, 127
1, 444144, Note_on_c, 7, 67, 127
1, 444259, Note_off_c, 12, 71, 127
1, 444259, Note_off_c, 7, 43, 127
1, 444265, Note_on_c, 12, 47, 127
1, 444265, Note_on_c, 2, 74, 127
1, 444380, Note_off_c, 2, 74, 127
1, 444380, Note_off_c, 12, 47, 127
1, 444386, Note_on_c, 2, 50, 127
1, 444386, Note_on_c, 12, 71, 127
1, 444501, Note_off_c, 12, 71, 127
1, 444501, Note_off_c, 2, 50, 127
1, 444502, Note_off_c, 7, 67, 127
1, 444507, Note_on_c, 7, 55, 127
1, 444507, Note_on_c, 7, 67, 127
1, 444622, Note_off_c, 7, 67, 127
1, 444622, Note_off_c, 7, 55, 127
1, 444628, Note_on_c, 12, 59, 127
1, 444628, Note_on_c, 2, 62, 127
1, 444743, Note_off_c, 2, 62, 127
1, 444743, Note_off_c, 12, 59, 127
1, 444749, Note_on_c, 7, 55, 127
1, 444749, Note_on_c, 5, 65, 127
1, 444864, Note_off_c, 5, 65, 127
1, 444864, Note_off_c, 7, 55, 127
1, 444870, Note_on_c, 0, 48, 127
1, 444870, Note_on_c, 4, 64, 127
1, 444985, Note_off_c, 4, 64, 127
1, 444991, Note_on_c, 4, 76, 127
1, 445108, Note_off_c, 0, 48, 127
1, 445112, Note_on_c, 10, 45, 127
1, 445112, Note_on_c, 0, 72, 127
1, 445227, Note_off_c, 0, 72, 127
1, 445227, Note_off_c, 10, 45, 127
1, 445233, Note_on_c, 5, 53, 127
1, 445233, Note_on_c, 12, 71, 127
1, 445348, Note_off_c, 12, 71, 127
1, 445354, Note_on_c, 10, 69, 127
1, 445471, Note_off_c, 5, 53, 127
1, 445473, Note_off_c, 4, 76, 127
1, 445475, Note_on_c, 5, 41, 127
1, 445475, Note_on_c, 2, 74, 127
1, 445590, Note_off_c, 2, 74, 127
1, 445590, Note_off_c, 5, 41, 127
1, 445596, Note_on_c, 4, 40, 127
1, 445596, Note_on_c, 4, 76, 127
1, 445637, Note_off_c, 10, 69, 127
1, 445657, Note_on_c, 0, 72, 127
1, 445709, Note_off_c, 0, 72, 127
1, 445712, Note_off_c, 4, 40, 127
1, 445718, Note_on_c, 8, 44, 127
1, 445718, Note_on_c, 12, 71, 127
1, 445770, Note_off_c, 12, 71, 127
1, 445779, Note_on_c, 10, 69, 127
1, 445831, Note_off_c, 10, 69, 127
1, 445834, Note_off_c, 8, 44, 127
1, 445840, Note_on_c, 12, 47, 127
1, 445840, Note_on_c, 8, 68, 127
1, 445890, Note_off_c, 8, 68, 127
1, 445900, Note_on_c, 6, 66, 127
1, 445952, Note_off_c, 6, 66, 127
1, 445955, Note_off_c, 12, 47, 127
1, 445961, Note_on_c, 4, 52, 127
1, 445961, Note_on_c, 4, 64, 127
1, 446199, Note_off_c, 4, 52, 127
1, 446203, Note_on_c, 12, 59, 127
1, 446318, Note_off_c, 12, 59, 127
1, 446319, Note_off_c, 4, 64, 127
1, 446322, Note_off_c, 4, 76, 127
1, 446324, Note_on_c, 4, 64, 127
1, 446439, Note_off_c, 4, 64, 127
1, 446445, Note_on_c, 12, 59, 127
1, 446560, Note_off_c, 12, 59, 127
1, 446566, Note_on_c, 8, 56, 127
1, 446681, Note_off_c, 8, 56, 127
1, 446687, Note_on_c, 4, 52, 127
1, 446802, Note_off_c, 4, 52, 127
1, 446808, Note_on_c, 3, 51, 127
1, 446923, Note_off_c, 3, 51, 127
1, 446929, Note_on_c, 4, 52, 127
1, 447044, Note_off_c, 4, 52, 127
1, 447050, Note_on_c, 2, 62, 127
1, 447165, Note_off_c, 2, 62, 127
1, 447171, Note_on_c, 12, 59, 127
1, 447286, Note_off_c, 12, 59, 127
1, 447292, Note_on_c, 8, 56, 127
1, 447407, Note_off_c, 8, 56, 127
1, 447413, Note_on_c, 4, 52, 127
1, 447528, Note_off_c, 4, 52, 127
1, 447534, Note_on_c, 3, 51, 127
1, 447649, Note_off_c, 3, 51, 127
1, 447655, Note_on_c, 4, 52, 127
1, 447770, Note_off_c, 4, 52, 127
1, 447776, Note_on_c, 0, 60, 127
1, 447891, Note_off_c, 0, 60, 127
1, 447897, Note_on_c, 10, 57, 127
1, 448012, Note_off_c, 10, 57, 127
1, 448018, Note_on_c, 5, 53, 127
1, 448133, Note_off_c, 5, 53, 127
1, 448139, Note_on_c, 4, 52, 127
1, 448254, Note_off_c, 4, 52, 127
1, 448260, Note_on_c, 8, 56, 127
1, 448375, Note_off_c, 8, 56, 127
1, 448381, Note_on_c, 10, 57, 127
1, 448496, Note_off_c, 10, 57, 127
1, 448502, Note_on_c, 5, 53, 127
1, 448617, Note_off_c, 5, 53, 127
1, 448623, Note_on_c, 2, 50, 127
1, 448738, Note_off_c, 2, 50, 127
1, 448744, Note_on_c, 12, 47, 127
1, 448859, Note_off_c, 12, 47, 127
1, 448865, Note_on_c, 8, 44, 127
1, 448980, Note_off_c, 8, 44, 127
1, 448986, Note_on_c, 4, 52, 127
1, 449101, Note_off_c, 4, 52, 127
1, 449107, Note_on_c, 2, 50, 127
1, 449107, Note_on_c, 4, 64, 127
1, 449222, Note_off_c, 4, 64, 127
1, 449222, Note_off_c, 2, 50, 127
1, 449228, Note_on_c, 0, 48, 127
1, 449228, Note_on_c, 10, 69, 127
1, 449343, Note_off_c, 10, 69, 127
1, 449349, Note_on_c, 4, 64, 127
1, 449464, Note_off_c, 4, 64, 127
1, 449470, Note_on_c, 0, 60, 127
1, 449585, Note_off_c, 0, 60, 127
1, 449591, Note_on_c, 10, 57, 127
1, 449706, Note_off_c, 10, 57, 127
1, 449710, Note_off_c, 0, 48, 127
1, 449712, Note_on_c, 8, 56, 127
1, 449712, Note_on_c, 12, 47, 127
1, 449827, Note_off_c, 12, 47, 127
1, 449827, Note_off_c, 8, 56, 127
1, 449833, Note_on_c, 0, 48, 127
1, 449833, Note_on_c, 10, 57, 127
1, 449948, Note_off_c, 10, 57, 127
1, 449948, Note_off_c, 0, 48, 127
1, 449954, Note_on_c, 1, 49, 127
1, 449954, Note_on_c, 7, 67, 127
1, 450069, Note_off_c, 7, 67, 127
1, 450075, Note_on_c, 4, 64, 127
1, 450190, Note_off_c, 4, 64, 127
1, 450196, Note_on_c, 1, 61, 127
1, 450311, Note_off_c, 1, 61, 127
1, 450317, Note_on_c, 10, 57, 127
1, 450432, Note_off_c, 10, 57, 127
1, 450436, Note_off_c, 1, 49, 127
1, 450438, Note_on_c, 8, 56, 127
1, 450438, Note_on_c, 12, 47, 127
1, 450553, Note_off_c, 12, 47, 127
1, 450553, Note_off_c, 8, 56, 127
1, 450559, Note_on_c, 10, 57, 127
1, 450559, Note_on_c, 1, 49, 127
1, 450674, Note_off_c, 1, 49, 127
1, 450674, Note_off_c, 10, 57, 127
1, 450680, Note_on_c, 2, 50, 127
1, 450680, Note_on_c, 5, 65, 127
1, 450795, Note_off_c, 5, 65, 127
1, 450801, Note_on_c, 2, 62, 127
1, 450916, Note_off_c, 2, 62, 127
1, 450922, Note_on_c, 11, 58, 127
1, 451037, Note_off_c, 11, 58, 127
1, 451043, Note_on_c, 10, 57, 127
1, 451158, Note_off_c, 10, 57, 127
1, 451162, Note_off_c, 2, 50, 127
1, 451164, Note_on_c, 1, 61, 127
1, 451164, Note_on_c, 4, 52, 127
1, 451279, Note_off_c, 4, 52, 127
1, 451279, Note_off_c, 1, 61, 127
1, 451285, Note_on_c, 5, 53, 127
1, 451285, Note_on_c, 2, 62, 127
1, 451400, Note_off_c, 2, 62, 127
1, 451400, Note_off_c, 5, 53, 127
1, 451406, Note_on_c, 11, 58, 127
1, 451406, Note_on_c, 7, 43, 127
1, 451521, Note_off_c, 11, 58, 127
1, 451527, Note_on_c, 7, 55, 127
1, 451585, Note_off_c, 7, 43, 127
1, 451643, Note_off_c, 7, 55, 127
1, 451649, Note_on_c, 4, 52, 127
1, 451764, Note_off_c, 4, 52, 127
1, 451770, Note_on_c, 10, 45, 127
1, 451770, Note_on_c, 1, 49, 127
1, 451885, Note_off_c, 1, 49, 127
1, 451891, Note_on_c, 10, 57, 127
1, 451949, Note_off_c, 10, 45, 127
1, 452007, Note_off_c, 10, 57, 127
1, 452013, Note_on_c, 7, 55, 127
1, 452128, Note_off_c, 7, 55, 127
1, 452134, Note_on_c, 5, 53, 127
1, 452134, Note_on_c, 2, 38, 127
1, 452249, Note_off_c, 5, 53, 127
1, 452255, Note_on_c, 10, 57, 127
1, 452370, Note_off_c, 10, 57, 127
1, 452374, Note_off_c, 2, 38, 127
1, 452376, Note_on_c, 5, 53, 127
1, 452491, Note_off_c, 5, 53, 127
1, 452497, Note_on_c, 2, 50, 127
1, 452612, Note_off_c, 2, 50, 127
1, 452618, Note_on_c, 10, 45, 127
1, 452733, Note_off_c, 10, 45, 127
1, 452739, Note_on_c, 0, 48, 127
1, 452854, Note_off_c, 0, 48, 127
1, 452860, Note_on_c, 12, 47, 127
1, 452981, Note_on_c, 6, 54, 127
1, 453096, Note_off_c, 6, 54, 127
1, 453102, Note_on_c, 7, 55, 127
1, 453217, Note_off_c, 7, 55, 127
1, 453223, Note_on_c, 12, 59, 127
1, 453338, Note_off_c, 12, 59, 127
1, 453344, Note_on_c, 2, 62, 127
1, 453459, Note_off_c, 2, 62, 127
1, 453465, Note_on_c, 5, 53, 127
1, 453580, Note_off_c, 5, 53, 127
1, 453584, Note_off_c, 12, 47, 127
1, 453586, Note_on_c, 4, 52, 127
1, 453701, Note_off_c, 4, 52, 127
1, 453707, Note_on_c, 7, 55, 127
1, 453822, Note_off_c, 7, 55, 127
1, 453828, Note_on_c, 4, 52, 127
1, 453943, Note_off_c, 4, 52, 127
1, 453949, Note_on_c, 0, 48, 127
1, 454064, Note_off_c, 0, 48, 127
1, 454070, Note_on_c, 8, 44, 127
1, 454185, Note_off_c, 8, 44, 127
1, 454191, Note_on_c, 12, 47, 127
1, 454306, Note_off_c, 12, 47, 127
1, 454312, Note_on_c, 10, 45, 127
1, 454433, Note_on_c, 4, 52, 127
1, 454548, Note_off_c, 4, 52, 127
1, 454554, Note_on_c, 5, 53, 127
1, 454669, Note_off_c, 5, 53, 127
1, 454675, Note_on_c, 10, 57, 127
1, 454790, Note_off_c, 10, 57, 127
1, 454796, Note_on_c, 0, 60, 127
1, 454911, Note_off_c, 0, 60, 127
1, 454917, Note_on_c, 4, 52, 127
1, 455032, Note_off_c, 4, 52, 127
1, 455036, Note_off_c, 10, 45, 127
1, 455038, Note_on_c, 2, 50, 127
1, 455153, Note_off_c, 2, 50, 127
1, 455159, Note_on_c, 5, 53, 127
1, 455274, Note_off_c, 5, 53, 127
1, 455280, Note_on_c, 2, 50, 127
1, 455395, Note_off_c, 2, 50, 127
1, 455401, Note_on_c, 12, 47, 127
1, 455516, Note_off_c, 12, 47, 127
1, 455522, Note_on_c, 6, 42, 127
1, 455637, Note_off_c, 6, 42, 127
1, 455643, Note_on_c, 10, 45, 127
1, 455758, Note_off_c, 10, 45, 127
1, 455764, Note_on_c, 8, 44, 127
1, 455885, Note_on_c, 2, 50, 127
1, 456000, Note_off_c, 2, 50, 127
1, 456006, Note_on_c, 4, 52, 127
1, 456121, Note_off_c, 4, 52, 127
1, 456127, Note_on_c, 8, 56, 127
1, 456242, Note_off_c, 8, 56, 127
1, 456246, Note_off_c, 8, 44, 127
1, 456248, Note_on_c, 4, 40, 127
1, 456248, Note_on_c, 12, 59, 127
1, 456363, Note_off_c, 12, 59, 127
1, 456363, Note_off_c, 4, 40, 127
1, 456369, Note_on_c, 8, 44, 127
1, 456369, Note_on_c, 2, 50, 127
1, 456484, Note_off_c, 2, 50, 127
1, 456484, Note_off_c, 8, 44, 127
1, 456490, Note_on_c, 0, 48, 127
1, 456490, Note_on_c, 10, 45, 127
1, 456605, Note_off_c, 0, 48, 127
1, 456611, Note_on_c, 4, 52, 127
1, 456726, Note_off_c, 4, 52, 127
1, 456732, Note_on_c, 5, 53, 127
1, 456847, Note_off_c, 5, 53, 127
1, 456853, Note_on_c, 10, 57, 127
1, 456968, Note_off_c, 10, 57, 127
1, 456972, Note_off_c, 10, 45, 127
1, 456974, Note_on_c, 5, 41, 127
1, 456974, Note_on_c, 0, 60, 127
1, 457089, Note_off_c, 0, 60, 127
1, 457089, Note_off_c, 5, 41, 127
1, 457095, Note_on_c, 10, 45, 127
1, 457095, Note_on_c, 4, 52, 127
1, 457210, Note_off_c, 4, 52, 127
1, 457210, Note_off_c, 10, 45, 127
1, 457216, Note_on_c, 2, 50, 127
1, 457216, Note_on_c, 12, 47, 127
1, 457331, Note_off_c, 2, 50, 127
1, 457337, Note_on_c, 6, 54, 127
1, 457452, Note_off_c, 6, 54, 127
1, 457458, Note_on_c, 7, 55, 127
1, 457573, Note_off_c, 7, 55, 127
1, 457579, Note_on_c, 12, 59, 127
1, 457694, Note_off_c, 12, 59, 127
1, 457698, Note_off_c, 12, 47, 127
1, 457700, Note_on_c, 7, 43, 127
1, 457700, Note_on_c, 2, 62, 127
1, 457815, Note_off_c, 2, 62, 127
1, 457815, Note_off_c, 7, 43, 127
1, 457821, Note_on_c, 12, 47, 127
1, 457821, Note_on_c, 5, 53, 127
1, 457936, Note_off_c, 5, 53, 127
1, 457936, Note_off_c, 12, 47, 127
1, 457942, Note_on_c, 0, 48, 127
1, 457942, Note_on_c, 4, 52, 127
1, 458057, Note_off_c, 4, 52, 127
1, 458063, Note_on_c, 8, 56, 127
1, 458178, Note_off_c, 8, 56, 127
1, 458184, Note_on_c, 10, 57, 127
1, 458299, Note_off_c, 10, 57, 127
1, 458305, Note_on_c, 0, 60, 127
1, 458420, Note_off_c, 0, 60, 127
1, 458424, Note_off_c, 0, 48, 127
1, 458426, Note_on_c, 10, 45, 127
1, 458426, Note_on_c, 4, 64, 127
1, 458541, Note_off_c, 4, 64, 127
1, 458541, Note_off_c, 10, 45, 127
1, 458547, Note_on_c, 1, 49, 127
1, 458547, Note_on_c, 7, 55, 127
1, 458662, Note_off_c, 7, 55, 127
1, 458662, Note_off_c, 1, 49, 127
1, 458668, Note_on_c, 2, 50, 127
1, 458668, Note_on_c, 5, 53, 127
1, 458783, Note_off_c, 5, 53, 127
1, 458789, Note_on_c, 10, 57, 127
1, 458904, Note_off_c, 10, 57, 127
1, 458910, Note_on_c, 11, 58, 127
1, 459025, Note_off_c, 11, 58, 127
1, 459031, Note_on_c, 2, 62, 127
1, 459146, Note_off_c, 2, 62, 127
1, 459152, Note_on_c, 5, 65, 127
1, 459267, Note_off_c, 5, 65, 127
1, 459273, Note_on_c, 10, 57, 127
1, 459273, Note_on_c, 12, 71, 127
1, 459388, Note_off_c, 12, 71, 127
1, 459388, Note_off_c, 10, 57, 127
1, 459394, Note_on_c, 8, 56, 127
1, 459394, Note_on_c, 4, 76, 127
1, 459509, Note_off_c, 4, 76, 127
1, 459515, Note_on_c, 12, 71, 127
1, 459630, Note_off_c, 12, 71, 127
1, 459636, Note_on_c, 8, 68, 127
1, 459751, Note_off_c, 8, 68, 127
1, 459753, Note_off_c, 8, 56, 127
1, 459754, Note_off_c, 2, 50, 127
1, 459757, Note_on_c, 10, 57, 127
1, 459757, Note_on_c, 0, 48, 127
1, 459757, Note_on_c, 4, 64, 127
1, 459872, Note_off_c, 4, 64, 127
1, 459878, Note_on_c, 3, 63, 127
1, 459993, Note_off_c, 3, 63, 127
1, 459999, Note_on_c, 4, 64, 127
1, 460114, Note_off_c, 4, 64, 127
1, 460116, Note_off_c, 0, 48, 127
1, 460120, Note_on_c, 12, 47, 127
1, 460120, Note_on_c, 2, 74, 127
1, 460235, Note_off_c, 2, 74, 127
1, 460241, Note_on_c, 12, 71, 127
1, 460356, Note_off_c, 12, 71, 127
1, 460362, Note_on_c, 8, 68, 127
1, 460477, Note_off_c, 8, 68, 127
1, 460479, Note_off_c, 12, 47, 127
1, 460481, Note_off_c, 10, 57, 127
1, 460483, Note_on_c, 8, 56, 127
1, 460483, Note_on_c, 4, 52, 127
1, 460483, Note_on_c, 4, 64, 127
1, 460598, Note_off_c, 4, 64, 127
1, 460604, Note_on_c, 3, 63, 127
1, 460719, Note_off_c, 3, 63, 127
1, 460725, Note_on_c, 4, 64, 127
1, 460840, Note_off_c, 4, 64, 127
1, 460842, Note_off_c, 4, 52, 127
1, 460842, Note_off_c, 8, 56, 127
1, 460846, Note_on_c, 10, 57, 127
1, 460846, Note_on_c, 10, 45, 127
1, 460846, Note_on_c, 0, 72, 127
1, 460961, Note_off_c, 0, 72, 127
1, 460967, Note_on_c, 10, 69, 127
1, 461082, Note_off_c, 10, 69, 127
1, 461088, Note_on_c, 5, 65, 127
1, 461203, Note_off_c, 5, 65, 127
1, 461205, Note_off_c, 10, 45, 127
1, 461205, Note_off_c, 10, 57, 127
1, 461209, Note_on_c, 0, 48, 127
1, 461209, Note_on_c, 4, 64, 127
1, 461324, Note_off_c, 4, 64, 127
1, 461330, Note_on_c, 8, 68, 127
1, 461445, Note_off_c, 8, 68, 127
1, 461451, Note_on_c, 10, 69, 127
1, 461566, Note_off_c, 10, 69, 127
1, 461568, Note_off_c, 0, 48, 127
1, 461572, Note_on_c, 2, 50, 127
1, 461572, Note_on_c, 5, 65, 127
1, 461687, Note_off_c, 5, 65, 127
1, 461693, Note_on_c, 2, 62, 127
1, 461808, Note_off_c, 2, 62, 127
1, 461814, Note_on_c, 12, 59, 127
1, 461929, Note_off_c, 12, 59, 127
1, 461931, Note_off_c, 2, 50, 127
1, 461935, Note_on_c, 12, 59, 127
1, 461935, Note_on_c, 4, 52, 127
1, 461935, Note_on_c, 8, 56, 127
1, 462050, Note_off_c, 8, 56, 127
1, 462056, Note_on_c, 4, 64, 127
1, 462171, Note_off_c, 4, 64, 127
1, 462177, Note_on_c, 2, 62, 127
1, 462292, Note_off_c, 2, 62, 127
1, 462294, Note_off_c, 4, 52, 127
1, 462298, Note_on_c, 10, 45, 127
1, 462298, Note_on_c, 0, 60, 127
1, 462413, Note_off_c, 0, 60, 127
1, 462417, Note_off_c, 12, 59, 127
1, 462419, Note_on_c, 0, 48, 127
1, 462419, Note_on_c, 4, 64, 127
1, 462534, Note_off_c, 4, 64, 127
1, 462534, Note_off_c, 0, 48, 127
1, 462540, Note_on_c, 4, 52, 127
1, 462540, Note_on_c, 10, 69, 127
1, 462655, Note_off_c, 10, 69, 127
1, 462655, Note_off_c, 4, 52, 127
1, 462656, Note_off_c, 10, 45, 127
1, 462661, Note_on_c, 10, 57, 127
1, 462661, Note_on_c, 0, 72, 127
1, 462776, Note_off_c, 0, 72, 127
1, 462776, Note_off_c, 10, 57, 127
1, 462782, Note_on_c, 12, 59, 127
1, 462782, Note_on_c, 8, 68, 127
1, 462897, Note_off_c, 8, 68, 127
1, 462897, Note_off_c, 12, 59, 127
1, 462903, Note_on_c, 0, 60, 127
1, 462903, Note_on_c, 10, 69, 127
1, 463018, Note_off_c, 10, 69, 127
1, 463018, Note_off_c, 0, 60, 127
1, 463024, Note_on_c, 2, 62, 127
1, 463024, Note_on_c, 0, 72, 127
1, 463139, Note_off_c, 0, 72, 127
1, 463139, Note_off_c, 2, 62, 127
1, 463145, Note_on_c, 10, 57, 127
1, 463145, Note_on_c, 6, 66, 127
1, 463260, Note_off_c, 6, 66, 127
1, 463260, Note_off_c, 10, 57, 127
1, 463266, Note_on_c, 12, 59, 127
1, 463266, Note_on_c, 7, 67, 127
1, 463381, Note_off_c, 7, 67, 127
1, 463381, Note_off_c, 12, 59, 127
1, 463387, Note_on_c, 6, 54, 127
1, 463387, Note_on_c, 0, 72, 127
1, 463502, Note_off_c, 0, 72, 127
1, 463502, Note_off_c, 6, 54, 127
1, 463508, Note_on_c, 7, 55, 127
1, 463508, Note_on_c, 4, 64, 127
1, 463623, Note_off_c, 4, 64, 127
1, 463623, Note_off_c, 7, 55, 127
1, 463629, Note_on_c, 10, 57, 127
1, 463629, Note_on_c, 6, 66, 127
1, 463744, Note_off_c, 6, 66, 127
1, 463750, Note_on_c, 7, 43, 127
1, 463750, Note_on_c, 12, 59, 127
1, 463865, Note_off_c, 12, 59, 127
1, 463869, Note_off_c, 10, 57, 127
1, 463871, Note_on_c, 12, 47, 127
1, 463871, Note_on_c, 2, 62, 127
1, 463986, Note_off_c, 2, 62, 127
1, 463986, Note_off_c, 12, 47, 127
1, 463992, Note_on_c, 2, 50, 127
1, 463992, Note_on_c, 7, 67, 127
1, 464107, Note_off_c, 7, 67, 127
1, 464107, Note_off_c, 2, 50, 127
1, 464108, Note_off_c, 7, 43, 127
1, 464113, Note_on_c, 7, 55, 127
1, 464113, Note_on_c, 12, 71, 127
1, 464228, Note_off_c, 12, 71, 127
1, 464228, Note_off_c, 7, 55, 127
1, 464234, Note_on_c, 10, 57, 127
1, 464234, Note_on_c, 6, 66, 127
1, 464349, Note_off_c, 6, 66, 127
1, 464349, Note_off_c, 10, 57, 127
1, 464355, Note_on_c, 12, 59, 127
1, 464355, Note_on_c, 7, 67, 127
1, 464470, Note_off_c, 7, 67, 127
1, 464470, Note_off_c, 12, 59, 127
1, 464476, Note_on_c, 0, 60, 127
1, 464476, Note_on_c, 12, 71, 127
1, 464591, Note_off_c, 12, 71, 127
1, 464591, Note_off_c, 0, 60, 127
1, 464597, Note_on_c, 7, 55, 127
1, 464597, Note_on_c, 4, 64, 127
1, 464712, Note_off_c, 4, 64, 127
1, 464712, Note_off_c, 7, 55, 127
1, 464718, Note_on_c, 10, 57, 127
1, 464718, Note_on_c, 6, 66, 127
1, 464833, Note_off_c, 6, 66, 127
1, 464833, Note_off_c, 10, 57, 127
1, 464839, Note_on_c, 4, 52, 127
1, 464839, Note_on_c, 12, 71, 127
1, 464954, Note_off_c, 12, 71, 127
1, 464954, Note_off_c, 4, 52, 127
1, 464960, Note_on_c, 6, 54, 127
1, 464960, Note_on_c, 3, 63, 127
1, 465075, Note_off_c, 3, 63, 127
1, 465075, Note_off_c, 6, 54, 127
1, 465081, Note_on_c, 7, 55, 127
1, 465081, Note_on_c, 4, 64, 127
1, 465196, Note_off_c, 4, 64, 127
1, 465202, Note_on_c, 6, 42, 127
1, 465202, Note_on_c, 10, 57, 127
1, 465317, Note_off_c, 10, 57, 127
1, 465321, Note_off_c, 7, 55, 127
1, 465323, Note_on_c, 10, 45, 127
1, 465323, Note_on_c, 0, 60, 127
1, 465438, Note_off_c, 0, 60, 127
1, 465438, Note_off_c, 10, 45, 127
1, 465444, Note_on_c, 0, 48, 127
1, 465444, Note_on_c, 4, 64, 127
1, 465559, Note_off_c, 4, 64, 127
1, 465559, Note_off_c, 0, 48, 127
1, 465560, Note_off_c, 6, 42, 127
1, 465565, Note_on_c, 6, 54, 127
1, 465565, Note_on_c, 10, 69, 127
1, 465680, Note_off_c, 10, 69, 127
1, 465680, Note_off_c, 6, 54, 127
1, 465686, Note_on_c, 7, 55, 127
1, 465686, Note_on_c, 4, 64, 127
1, 465801, Note_off_c, 4, 64, 127
1, 465801, Note_off_c, 7, 55, 127
1, 465807, Note_on_c, 10, 57, 127
1, 465807, Note_on_c, 6, 66, 127
1, 465922, Note_off_c, 6, 66, 127
1, 465922, Note_off_c, 10, 57, 127
1, 465928, Note_on_c, 12, 59, 127
1, 465928, Note_on_c, 10, 69, 127
1, 466043, Note_off_c, 10, 69, 127
1, 466043, Note_off_c, 12, 59, 127
1, 466049, Note_on_c, 6, 54, 127
1, 466049, Note_on_c, 3, 63, 127
1, 466164, Note_off_c, 3, 63, 127
1, 466164, Note_off_c, 6, 54, 127
1, 466170, Note_on_c, 7, 55, 127
1, 466170, Note_on_c, 4, 64, 127
1, 466285, Note_off_c, 4, 64, 127
1, 466285, Note_off_c, 7, 55, 127
1, 466291, Note_on_c, 3, 51, 127
1, 466291, Note_on_c, 10, 69, 127
1, 466406, Note_off_c, 10, 69, 127
1, 466406, Note_off_c, 3, 51, 127
1, 466412, Note_on_c, 4, 52, 127
1, 466412, Note_on_c, 1, 61, 127
1, 466527, Note_off_c, 1, 61, 127
1, 466527, Note_off_c, 4, 52, 127
1, 466533, Note_on_c, 6, 54, 127
1, 466533, Note_on_c, 3, 63, 127
1, 466648, Note_off_c, 3, 63, 127
1, 466648, Note_off_c, 6, 54, 127
1, 466654, Note_on_c, 4, 40, 127
1, 466654, Note_on_c, 7, 67, 127
1, 466773, Note_off_c, 4, 40, 127
1, 466775, Note_on_c, 7, 43, 127
1, 466775, Note_on_c, 4, 64, 127
1, 466890, Note_off_c, 4, 64, 127
1, 466890, Note_off_c, 7, 43, 127
1, 466896, Note_on_c, 12, 47, 127
1, 466896, Note_on_c, 12, 59, 127
1, 467011, Note_off_c, 12, 59, 127
1, 467011, Note_off_c, 12, 47, 127
1, 467012, Note_off_c, 7, 67, 127
1, 467017, Note_on_c, 4, 52, 127
1, 467017, Note_on_c, 7, 55, 127
1, 467132, Note_off_c, 7, 55, 127
1, 467132, Note_off_c, 4, 52, 127
1, 467138, Note_on_c, 3, 51, 127
1, 467138, Note_on_c, 6, 54, 127
1, 467253, Note_off_c, 6, 54, 127
1, 467253, Note_off_c, 3, 51, 127
1, 467259, Note_on_c, 4, 52, 127
1, 467259, Note_on_c, 7, 55, 127
1, 467374, Note_off_c, 7, 55, 127
1, 467374, Note_off_c, 4, 52, 127
1, 467380, Note_on_c, 10, 45, 127
1, 467380, Note_on_c, 7, 67, 127
1, 467495, Note_off_c, 10, 45, 127
1, 467501, Note_on_c, 1, 49, 127
1, 467501, Note_on_c, 4, 64, 127
1, 467616, Note_off_c, 4, 64, 127
1, 467616, Note_off_c, 1, 49, 127
1, 467622, Note_on_c, 4, 52, 127
1, 467622, Note_on_c, 2, 62, 127
1, 467737, Note_off_c, 2, 62, 127
1, 467737, Note_off_c, 4, 52, 127
1, 467738, Note_off_c, 7, 67, 127
1, 467743, Note_on_c, 10, 57, 127
1, 467743, Note_on_c, 1, 61, 127
1, 467858, Note_off_c, 1, 61, 127
1, 467858, Note_off_c, 10, 57, 127
1, 467864, Note_on_c, 8, 56, 127
1, 467864, Note_on_c, 12, 59, 127
1, 467979, Note_off_c, 12, 59, 127
1, 467979, Note_off_c, 8, 56, 127
1, 467985, Note_on_c, 10, 57, 127
1, 467985, Note_on_c, 1, 61, 127
1, 468100, Note_off_c, 1, 61, 127
1, 468100, Note_off_c, 10, 57, 127
1, 468106, Note_on_c, 2, 38, 127
1, 468106, Note_on_c, 6, 66, 127
1, 468221, Note_off_c, 2, 38, 127
1, 468227, Note_on_c, 6, 42, 127
1, 468227, Note_on_c, 2, 62, 127
1, 468342, Note_off_c, 2, 62, 127
1, 468342, Note_off_c, 6, 42, 127
1, 468348, Note_on_c, 10, 45, 127
1, 468348, Note_on_c, 10, 57, 127
1, 468463, Note_off_c, 10, 57, 127
1, 468463, Note_off_c, 10, 45, 127
1, 468464, Note_off_c, 6, 66, 127
1, 468469, Note_on_c, 2, 50, 127
1, 468469, Note_on_c, 6, 54, 127
1, 468584, Note_off_c, 6, 54, 127
1, 468584, Note_off_c, 2, 50, 127
1, 468590, Note_on_c, 1, 49, 127
1, 468590, Note_on_c, 5, 53, 127
1, 468705, Note_off_c, 5, 53, 127
1, 468705, Note_off_c, 1, 49, 127
1, 468711, Note_on_c, 2, 50, 127
1, 468711, Note_on_c, 6, 54, 127
1, 468826, Note_off_c, 6, 54, 127
1, 468826, Note_off_c, 2, 50, 127
1, 468832, Note_on_c, 7, 43, 127
1, 468832, Note_on_c, 6, 66, 127
1, 468947, Note_off_c, 7, 43, 127
1, 468953, Note_on_c, 12, 47, 127
1, 468953, Note_on_c, 2, 62, 127
1, 469068, Note_off_c, 2, 62, 127
1, 469068, Note_off_c, 12, 47, 127
1, 469074, Note_on_c, 2, 50, 127
1, 469074, Note_on_c, 1, 61, 127
1, 469189, Note_off_c, 1, 61, 127
1, 469189, Note_off_c, 2, 50, 127
1, 469190, Note_off_c, 6, 66, 127
1, 469195, Note_on_c, 7, 55, 127
1, 469195, Note_on_c, 12, 59, 127
1, 469310, Note_off_c, 12, 59, 127
1, 469310, Note_off_c, 7, 55, 127
1, 469316, Note_on_c, 6, 54, 127
1, 469316, Note_on_c, 11, 58, 127
1, 469431, Note_off_c, 11, 58, 127
1, 469431, Note_off_c, 6, 54, 127
1, 469437, Note_on_c, 7, 55, 127
1, 469437, Note_on_c, 12, 59, 127
1, 469552, Note_off_c, 12, 59, 127
1, 469552, Note_off_c, 7, 55, 127
1, 469558, Note_on_c, 1, 37, 127
1, 469558, Note_on_c, 4, 64, 127
1, 469673, Note_off_c, 1, 37, 127
1, 469679, Note_on_c, 4, 40, 127
1, 469679, Note_on_c, 1, 61, 127
1, 469794, Note_off_c, 1, 61, 127
1, 469794, Note_off_c, 4, 40, 127
1, 469800, Note_on_c, 7, 43, 127
1, 469800, Note_on_c, 11, 58, 127
1, 469915, Note_off_c, 11, 58, 127
1, 469915, Note_off_c, 7, 43, 127
1, 469916, Note_off_c, 4, 64, 127
1, 469921, Note_on_c, 1, 49, 127
1, 469921, Note_on_c, 4, 52, 127
1, 470036, Note_off_c, 4, 52, 127
1, 470036, Note_off_c, 1, 49, 127
1, 470042, Note_on_c, 12, 47, 127
1, 470042, Note_on_c, 3, 51, 127
1, 470157, Note_off_c, 3, 51, 127
1, 470157, Note_off_c, 12, 47, 127
1, 470163, Note_on_c, 1, 49, 127
1, 470163, Note_on_c, 4, 52, 127
1, 470278, Note_off_c, 4, 52, 127
1, 470278, Note_off_c, 1, 49, 127
1, 470284, Note_on_c, 6, 42, 127
1, 470284, Note_on_c, 4, 64, 127
1, 470399, Note_off_c, 6, 42, 127
1, 470404, Note_off_c, 4, 64, 127
1, 470405, Note_on_c, 8, 44, 127
1, 470405, Note_on_c, 1, 61, 127
1, 470520, Note_off_c, 1, 61, 127
1, 470520, Note_off_c, 8, 44, 127
1, 470526, Note_on_c, 1, 49, 127
1, 470526, Note_on_c, 12, 59, 127
1, 470641, Note_off_c, 12, 59, 127
1, 470641, Note_off_c, 1, 49, 127
1, 470647, Note_on_c, 6, 54, 127
1, 470647, Note_on_c, 11, 58, 127
1, 470762, Note_off_c, 11, 58, 127
1, 470762, Note_off_c, 6, 54, 127
1, 470768, Note_on_c, 4, 52, 127
1, 470768, Note_on_c, 8, 56, 127
1, 470883, Note_off_c, 8, 56, 127
1, 470883, Note_off_c, 4, 52, 127
1, 470889, Note_on_c, 11, 58, 127
1, 470889, Note_on_c, 6, 54, 127
1, 470889, Note_on_c, 6, 78, 127
1, 471004, Note_off_c, 6, 78, 127
1, 471004, Note_off_c, 6, 54, 127
1, 471004, Note_off_c, 11, 58, 127
1, 471010, Note_on_c, 6, 54, 127
1, 471010, Note_on_c, 2, 50, 127
1, 471010, Note_on_c, 12, 83, 127
1, 471125, Note_off_c, 12, 83, 127
1, 471131, Note_on_c, 6, 78, 127
1, 471246, Note_off_c, 6, 78, 127
1, 471252, Note_on_c, 2, 74, 127
1, 471367, Note_off_c, 2, 74, 127
1, 471368, Note_off_c, 6, 54, 127
1, 471373, Note_on_c, 12, 71, 127
1, 471488, Note_off_c, 12, 71, 127
1, 471490, Note_off_c, 2, 50, 127
1, 471494, Note_on_c, 1, 49, 127
1, 471494, Note_on_c, 11, 70, 127
1, 471609, Note_off_c, 11, 70, 127
1, 471609, Note_off_c, 1, 49, 127
1, 471615, Note_on_c, 2, 50, 127
1, 471615, Note_on_c, 12, 71, 127
1, 471730, Note_off_c, 12, 71, 127
1, 471730, Note_off_c, 2, 50, 127
1, 471736, Note_on_c, 12, 59, 127
1, 471736, Note_on_c, 3, 51, 127
1, 471736, Note_on_c, 10, 81, 127
1, 471851, Note_off_c, 10, 81, 127
1, 471857, Note_on_c, 6, 78, 127
1, 471972, Note_off_c, 6, 78, 127
1, 471978, Note_on_c, 3, 75, 127
1, 472093, Note_off_c, 3, 75, 127
1, 472094, Note_off_c, 12, 59, 127
1, 472099, Note_on_c, 12, 71, 127
1, 472214, Note_off_c, 12, 71, 127
1, 472216, Note_off_c, 3, 51, 127
1, 472220, Note_on_c, 1, 49, 127
1, 472220, Note_on_c, 11, 70, 127
1, 472335, Note_off_c, 11, 70, 127
1, 472335, Note_off_c, 1, 49, 127
1, 472341, Note_on_c, 3, 51, 127
1, 472341, Note_on_c, 12, 71, 127
1, 472456, Note_off_c, 12, 71, 127
1, 472456, Note_off_c, 3, 51, 127
1, 472462, Note_on_c, 12, 59, 127
1, 472462, Note_on_c, 4, 52, 127
1, 472462, Note_on_c, 7, 79, 127
1, 472577, Note_off_c, 7, 79, 127
1, 472583, Note_on_c, 4, 76, 127
1, 472698, Note_off_c, 4, 76, 127
1, 472704, Note_on_c, 0, 72, 127
1, 472819, Note_off_c, 0, 72, 127
1, 472820, Note_off_c, 12, 59, 127
1, 472825, Note_on_c, 12, 71, 127
1, 472940, Note_off_c, 12, 71, 127
1, 472942, Note_off_c, 4, 52, 127
1, 472946, Note_on_c, 6, 54, 127
1, 472946, Note_on_c, 3, 75, 127
1, 473061, Note_off_c, 3, 75, 127
1, 473061, Note_off_c, 6, 54, 127
1, 473067, Note_on_c, 7, 55, 127
1, 473067, Note_on_c, 4, 76, 127
1, 473182, Note_off_c, 4, 76, 127
1, 473182, Note_off_c, 7, 55, 127
1, 473188, Note_on_c, 10, 57, 127
1, 473188, Note_on_c, 0, 72, 127
1, 473303, Note_off_c, 0, 72, 127
1, 473308, Note_off_c, 10, 57, 127
1, 473309, Note_on_c, 10, 69, 127
1, 473424, Note_off_c, 10, 69, 127
1, 473430, Note_on_c, 6, 66, 127
1, 473545, Note_off_c, 6, 66, 127
1, 473551, Note_on_c, 12, 59, 127
1, 473551, Note_on_c, 3, 63, 127
1, 473666, Note_off_c, 3, 63, 127
1, 473671, Note_off_c, 12, 59, 127
1, 473672, Note_on_c, 12, 71, 127
1, 473787, Note_off_c, 12, 71, 127
1, 473793, Note_on_c, 12, 71, 127
1, 473793, Note_on_c, 10, 69, 127
1, 473908, Note_off_c, 10, 69, 127
1, 473908, Note_off_c, 12, 71, 127
1, 473914, Note_on_c, 4, 52, 127
1, 473914, Note_on_c, 4, 76, 127
1, 473914, Note_on_c, 7, 67, 127
1, 474029, Note_off_c, 4, 76, 127
1, 474034, Note_off_c, 4, 52, 127
1, 474035, Note_on_c, 12, 71, 127
1, 474150, Note_off_c, 12, 71, 127
1, 474154, Note_off_c, 7, 67, 127
1, 474156, Note_on_c, 7, 67, 127
1, 474271, Note_off_c, 7, 67, 127
1, 474277, Note_on_c, 4, 64, 127
1, 474392, Note_off_c, 4, 64, 127
1, 474398, Note_on_c, 3, 63, 127
1, 474398, Note_on_c, 6, 78, 127
1, 474513, Note_off_c, 6, 78, 127
1, 474513, Note_off_c, 3, 63, 127
1, 474519, Note_on_c, 4, 64, 127
1, 474519, Note_on_c, 7, 79, 127
1, 474634, Note_off_c, 7, 79, 127
1, 474634, Note_off_c, 4, 64, 127
1, 474640, Note_on_c, 2, 74, 127
1, 474640, Note_on_c, 8, 80, 127
1, 474755, Note_off_c, 2, 74, 127
1, 474761, Note_on_c, 12, 71, 127
1, 474876, Note_off_c, 12, 71, 127
1, 474882, Note_on_c, 8, 68, 127
1, 474997, Note_off_c, 8, 68, 127
1, 475003, Note_on_c, 4, 64, 127
1, 475118, Note_off_c, 4, 64, 127
1, 475122, Note_off_c, 8, 80, 127
1, 475124, Note_on_c, 3, 63, 127
1, 475124, Note_on_c, 6, 78, 127
1, 475239, Note_off_c, 6, 78, 127
1, 475239, Note_off_c, 3, 63, 127
1, 475245, Note_on_c, 4, 64, 127
1, 475245, Note_on_c, 8, 80, 127
1, 475360, Note_off_c, 8, 80, 127
1, 475360, Note_off_c, 4, 64, 127
1, 475366, Note_on_c, 0, 72, 127
1, 475366, Note_on_c, 10, 81, 127
1, 475481, Note_off_c, 0, 72, 127
1, 475487, Note_on_c, 10, 69, 127
1, 475602, Note_off_c, 10, 69, 127
1, 475608, Note_on_c, 5, 65, 127
1, 475723, Note_off_c, 5, 65, 127
1, 475729, Note_on_c, 4, 64, 127
1, 475844, Note_off_c, 4, 64, 127
1, 475846, Note_off_c, 10, 81, 127
1, 475850, Note_on_c, 8, 68, 127
1, 475850, Note_on_c, 12, 83, 127
1, 475965, Note_off_c, 12, 83, 127
1, 475965, Note_off_c, 8, 68, 127
1, 475971, Note_on_c, 10, 69, 127
1, 475971, Note_on_c, 0, 84, 127
1, 476086, Note_off_c, 0, 84, 127
1, 476086, Note_off_c, 10, 69, 127
1, 476092, Note_on_c, 5, 65, 127
1, 476092, Note_on_c, 2, 74, 127
1, 476207, Note_off_c, 5, 65, 127
1, 476213, Note_on_c, 2, 62, 127
1, 476328, Note_off_c, 2, 62, 127
1, 476330, Note_off_c, 2, 74, 127
1, 476334, Note_on_c, 12, 59, 127
1, 476334, Note_on_c, 5, 77, 127
1, 476449, Note_off_c, 5, 77, 127
1, 476449, Note_off_c, 12, 59, 127
1, 476455, Note_on_c, 8, 56, 127
1, 476455, Note_on_c, 12, 71, 127
1, 476570, Note_off_c, 8, 56, 127
1, 476576, Note_on_c, 4, 64, 127
1, 476691, Note_off_c, 4, 64, 127
1, 476693, Note_off_c, 12, 71, 127
1, 476697, Note_on_c, 4, 64, 127
1, 476697, Note_on_c, 2, 62, 127
1, 476697, Note_on_c, 8, 80, 127
1, 476812, Note_off_c, 8, 80, 127
1, 476812, Note_off_c, 2, 62, 127
1, 476812, Note_off_c, 4, 64, 127
1, 476818, Note_on_c, 10, 69, 127
1, 476818, Note_on_c, 0, 60, 127
1, 476818, Note_on_c, 10, 81, 127
1, 476933, Note_off_c, 10, 69, 127
1, 476939, Note_on_c, 4, 64, 127
1, 477054, Note_off_c, 4, 64, 127
1, 477058, Note_off_c, 0, 60, 127
1, 477060, Note_on_c, 0, 60, 127
1, 477175, Note_off_c, 0, 60, 127
1, 477181, Note_on_c, 10, 57, 127
1, 477296, Note_off_c, 10, 57, 127
1, 477302, Note_on_c, 8, 56, 127
1, 477302, Note_on_c, 12, 71, 127
1, 477417, Note_off_c, 12, 71, 127
1, 477417, Note_off_c, 8, 56, 127
1, 477423, Note_on_c, 10, 57, 127
1, 477423, Note_on_c, 0, 72, 127
1, 477538, Note_off_c, 0, 72, 127
1, 477538, Note_off_c, 10, 57, 127
1, 477544, Note_on_c, 7, 67, 127
1, 477544, Note_on_c, 1, 73, 127
1, 477659, Note_off_c, 7, 67, 127
1, 477665, Note_on_c, 4, 64, 127
1, 477780, Note_off_c, 4, 64, 127
1, 477786, Note_on_c, 1, 61, 127
1, 477901, Note_off_c, 1, 61, 127
1, 477904, Note_off_c, 10, 81, 127
1, 477907, Note_on_c, 10, 57, 127
1, 478022, Note_off_c, 10, 57, 127
1, 478024, Note_off_c, 1, 73, 127
1, 478028, Note_on_c, 8, 56, 127
1, 478028, Note_on_c, 12, 71, 127
1, 478143, Note_off_c, 12, 71, 127
1, 478143, Note_off_c, 8, 56, 127
1, 478149, Note_on_c, 10, 57, 127
1, 478149, Note_on_c, 1, 73, 127
1, 478264, Note_off_c, 1, 73, 127
1, 478264, Note_off_c, 10, 57, 127
1, 478270, Note_on_c, 5, 65, 127
1, 478270, Note_on_c, 2, 74, 127
1, 478385, Note_off_c, 5, 65, 127
1, 478391, Note_on_c, 2, 62, 127
1, 478506, Note_off_c, 2, 62, 127
1, 478512, Note_on_c, 11, 58, 127
1, 478627, Note_off_c, 11, 58, 127
1, 478633, Note_on_c, 10, 57, 127
1, 478748, Note_off_c, 10, 57, 127
1, 478750, Note_off_c, 2, 74, 127
1, 478754, Note_on_c, 1, 61, 127
1, 478754, Note_on_c, 4, 76, 127
1, 478869, Note_off_c, 4, 76, 127
1, 478869, Note_off_c, 1, 61, 127
1, 478875, Note_on_c, 2, 62, 127
1, 478875, Note_on_c, 5, 77, 127
1, 478990, Note_off_c, 5, 77, 127
1, 478990, Note_off_c, 2, 62, 127
1, 478996, Note_on_c, 11, 58, 127
1, 478996, Note_on_c, 7, 79, 127
1, 478996, Note_on_c, 4, 76, 127
1, 479111, Note_off_c, 11, 58, 127
1, 479117, Note_on_c, 7, 55, 127
1, 479232, Note_off_c, 7, 55, 127
1, 479238, Note_on_c, 4, 52, 127
1, 479353, Note_off_c, 4, 52, 127
1, 479359, Note_on_c, 1, 49, 127
1, 479474, Note_off_c, 1, 49, 127
1, 479476, Note_off_c, 4, 76, 127
1, 479480, Note_on_c, 10, 57, 127
1, 479480, Note_on_c, 1, 73, 127
1, 479595, Note_off_c, 1, 73, 127
1, 479595, Note_off_c, 10, 57, 127
1, 479601, Note_on_c, 7, 55, 127
1, 479601, Note_on_c, 4, 76, 127
1, 479716, Note_off_c, 4, 76, 127
1, 479716, Note_off_c, 7, 55, 127
1, 479722, Note_on_c, 5, 53, 127
1, 479722, Note_on_c, 10, 69, 127
1, 479837, Note_off_c, 5, 53, 127
1, 479843, Note_on_c, 10, 57, 127
1, 479958, Note_off_c, 10, 57, 127
1, 479964, Note_on_c, 1, 61, 127
1, 479964, Note_on_c, 4, 76, 127
1, 480079, Note_off_c, 4, 76, 127
1, 480079, Note_off_c, 1, 61, 127
1, 480082, Note_off_c, 7, 79, 127
1, 480085, Note_on_c, 2, 62, 127
1, 480085, Note_on_c, 5, 77, 127
1, 480200, Note_off_c, 2, 62, 127
1, 480206, Note_on_c, 10, 57, 127
1, 480321, Note_off_c, 10, 57, 127
1, 480324, Note_off_c, 10, 69, 127
1, 480327, Note_on_c, 5, 53, 127
1, 480327, Note_on_c, 1, 73, 127
1, 480442, Note_off_c, 1, 73, 127
1, 480442, Note_off_c, 5, 53, 127
1, 480448, Note_on_c, 2, 50, 127
1, 480448, Note_on_c, 2, 74, 127
1, 480563, Note_off_c, 2, 50, 127
1, 480569, Note_on_c, 5, 53, 127
1, 480681, Note_off_c, 5, 77, 127
1, 480684, Note_off_c, 5, 53, 127
1, 480690, Note_on_c, 8, 56, 127
1, 480690, Note_on_c, 4, 76, 127
1, 480805, Note_off_c, 4, 76, 127
1, 480805, Note_off_c, 8, 56, 127
1, 480811, Note_on_c, 10, 57, 127
1, 480811, Note_on_c, 5, 77, 127
1, 480926, Note_off_c, 10, 57, 127
1, 480932, Note_on_c, 5, 53, 127
1, 481044, Note_off_c, 2, 74, 127
1, 481047, Note_off_c, 5, 53, 127
1, 481053, Note_on_c, 2, 50, 127
1, 481053, Note_on_c, 10, 69, 127
1, 481168, Note_off_c, 10, 69, 127
1, 481168, Note_off_c, 2, 50, 127
1, 481174, Note_on_c, 12, 47, 127
1, 481174, Note_on_c, 2, 74, 127
1, 481296, Note_off_c, 12, 47, 127
1, 481302, Note_on_c, 2, 50, 127
1, 481421, Note_off_c, 5, 77, 127
1, 481424, Note_off_c, 2, 50, 127
1, 481426, Note_off_c, 2, 74, 127
1, 481430, Note_on_c, 8, 56, 127
1, 481430, Note_on_c, 2, 74, 127
1, 481430, Note_on_c, 12, 83, 127
1, 481552, Note_off_c, 12, 83, 127
1, 481552, Note_off_c, 2, 74, 127
1, 481552, Note_off_c, 8, 56, 127
1, 481558, Note_on_c, 10, 45, 127
1, 481558, Note_on_c, 2, 74, 127
1, 481558, Note_on_c, 12, 83, 127
1, 481680, Note_off_c, 10, 45, 127
1, 481686, Note_on_c, 2, 50, 127
1, 481808, Note_off_c, 2, 50, 127
1, 481810, Note_off_c, 12, 83, 127
1, 481810, Note_off_c, 2, 74, 127
1, 481814, Note_on_c, 5, 53, 127
1, 481814, Note_on_c, 12, 71, 127
1, 481814, Note_on_c, 2, 74, 127
1, 481936, Note_off_c, 2, 74, 127
1, 481936, Note_off_c, 12, 71, 127
1, 481936, Note_off_c, 5, 53, 127
1, 481942, Note_on_c, 8, 44, 127
1, 481942, Note_on_c, 2, 74, 127
1, 481942, Note_on_c, 12, 71, 127
1, 482064, Note_off_c, 8, 44, 127
1, 482070, Note_on_c, 12, 47, 127
1, 482192, Note_off_c, 12, 47, 127
1, 482194, Note_off_c, 12, 71, 127
1, 482194, Note_off_c, 2, 74, 127
1, 482198, Note_on_c, 2, 50, 127
1, 482198, Note_on_c, 12, 71, 127
1, 482198, Note_on_c, 8, 68, 127
1, 482320, Note_off_c, 8, 68, 127
1, 482320, Note_off_c, 12, 71, 127
1, 482320, Note_off_c, 2, 50, 127
1, 482326, Note_on_c, 5, 53, 127
1, 482326, Note_on_c, 8, 68, 127
1, 482326, Note_on_c, 12, 71, 127
1, 482448, Note_off_c, 5, 53, 127
1, 482454, Note_on_c, 4, 52, 127
1, 482576, Note_off_c, 4, 52, 127
1, 482578, Note_off_c, 12, 71, 127
1, 482578, Note_off_c, 8, 68, 127
1, 482582, Note_on_c, 2, 50, 127
1, 482582, Note_on_c, 4, 76, 127
1, 482582, Note_on_c, 8, 68, 127
1, 482704, Note_off_c, 8, 68, 127
1, 482704, Note_off_c, 4, 76, 127
1, 482704, Note_off_c, 2, 50, 127
1, 482710, Note_on_c, 0, 48, 127
1, 482710, Note_on_c, 4, 76, 127
1, 482710, Note_on_c, 10, 69, 127
1, 482837, Note_off_c, 4, 76, 127
1, 482837, Note_off_c, 0, 48, 127
1, 482843, Note_on_c, 12, 47, 127
1, 482843, Note_on_c, 2, 74, 127
1, 482970, Note_off_c, 2, 74, 127
1, 482970, Note_off_c, 12, 47, 127
1, 482976, Note_on_c, 10, 45, 127
1, 482976, Note_on_c, 0, 72, 127
1, 483103, Note_off_c, 0, 72, 127
1, 483103, Note_off_c, 10, 45, 127
1, 483109, Note_on_c, 4, 52, 127
1, 483109, Note_on_c, 2, 74, 127
1, 483242, Note_off_c, 2, 74, 127
1, 483249, Note_on_c, 0, 72, 127
1, 483379, Note_off_c, 10, 69, 127
1, 483382, Note_off_c, 0, 72, 127
1, 483384, Note_off_c, 4, 52, 127
1, 483388, Note_on_c, 4, 40, 127
1, 483388, Note_on_c, 12, 71, 127
1, 483388, Note_on_c, 8, 68, 127
1, 483521, Note_off_c, 8, 68, 127
1, 483521, Note_off_c, 12, 71, 127
1, 483521, Note_off_c, 4, 40, 127
1, 483528, Note_on_c, 10, 45, 127
1, 483528, Note_on_c, 10, 69, 127
1, 483614, Note_on_c, 5, 65, 127
1, 483674, Note_off_c, 10, 45, 127
1, 483692, Note_off_c, 5, 65, 127
1, 483700, Note_on_c, 4, 64, 127
1, 483700, Note_on_c, 1, 49, 127
1, 483778, Note_off_c, 4, 64, 127
1, 483786, Note_on_c, 2, 62, 127
1, 483846, Note_off_c, 1, 49, 127
1, 483864, Note_off_c, 2, 62, 127
1, 483872, Note_on_c, 1, 61, 127
1, 483872, Note_on_c, 4, 52, 127
1, 483950, Note_off_c, 1, 61, 127
1, 483963, Note_on_c, 12, 59, 127
1, 484017, Note_off_c, 10, 69, 127
1, 484018, Note_off_c, 4, 52, 127
1, 484041, Note_off_c, 12, 59, 127
1, 484088, Note_on_c, 10, 57, 127
1, 486488, Note_off_c, 10, 57, 127
1, 489984, End_track
0, 0, End_of_file
