0, 0, Header, 1, 3, 384
1, 0, Start_track
1, 0, Time_signature, 4, 2, 24, 8
1, 0, Tempo, 500000
1, 192000, End_track
2, 0, Start_track
2, 0, Text_t, "harpsichord: John Sankey"
2, 0, Program_c, 0, 6
2, 0, Pitch_bend_c, 0, 8192
2, 0, Program_c, 1, 6
2, 0, Pitch_bend_c, 1, 7792
2, 0, Program_c, 2, 6
2, 0, Pitch_bend_c, 2, 7876
2, 0, Program_c, 3, 6
2, 0, Pitch_bend_c, 3, 7952
2, 0, Program_c, 4, 6
2, 0, Pitch_bend_c, 4, 7792
2, 0, Program_c, 5, 6
2, 0, Pitch_bend_c, 5, 8112
2, 0, Program_c, 6, 6
2, 0, Pitch_bend_c, 6, 7712
2, 0, Program_c, 7, 6
2, 0, Pitch_bend_c, 7, 8037
2, 0, Program_c, 8, 6
2, 0, Pitch_bend_c, 8, 7872
2, 0, Program_c, 10, 6
2, 0, Pitch_bend_c, 10, 7712
2, 0, Program_c, 11, 6
2, 0, Pitch_bend_c, 11, 8032
2, 0, Program_c, 12, 6
2, 0, Pitch_bend_c, 12, 7872
2, 0, Title_t, "Track 1"
2, 64, Note_on_c, 0, 60, 127
2, 64, Note_on_c, 3, 63, 127
2, 64, Note_on_c, 8, 56, 127
2, 344, Note_on_c, 8, 68, 127
2, 482, Note_off_c, 8, 68, 127
2, 484, Note_on_c, 7, 67, 127
2, 622, Note_off_c, 7, 67, 127
2, 624, Note_on_c, 8, 68, 127
2, 902, Note_off_c, 8, 68, 127
2, 904, Note_on_c, 0, 72, 127
2, 1099, Note_off_c, 0, 72, 127
2, 1183, Note_off_c, 3, 63, 127
2, 1185, Note_on_c, 3, 63, 127
2, 1465, Note_on_c, 8, 68, 127
2, 1713, Note_off_c, 8, 68, 127
2, 1713, Note_off_c, 8, 56, 127
2, 1713, Note_off_c, 0, 60, 127
2, 1739, Note_off_c, 3, 63, 127
2, 1745, Note_on_c, 11, 58, 127
2, 1745, Note_on_c, 3, 63, 127
2, 1745, Note_on_c, 7, 55, 127
2, 2026, Note_on_c, 11, 70, 127
2, 2164, Note_off_c, 11, 70, 127
2, 2166, Note_on_c, 8, 68, 127
2, 2304, Note_off_c, 8, 68, 127
2, 2306, Note_on_c, 11, 70, 127
2, 2584, Note_off_c, 11, 70, 127
2, 2586, Note_on_c, 1, 73, 127
2, 2781, Note_off_c, 1, 73, 127
2, 2864, Note_off_c, 3, 63, 127
2, 2867, Note_on_c, 3, 63, 127
2, 3147, Note_on_c, 11, 70, 127
2, 3395, Note_off_c, 11, 70, 127
2, 3421, Note_off_c, 3, 63, 127
2, 3424, Note_off_c, 7, 55, 127
2, 3424, Note_off_c, 11, 58, 127
2, 3427, Note_on_c, 0, 72, 127
2, 3708, Note_on_c, 8, 56, 127
2, 3846, Note_off_c, 8, 56, 127
2, 3848, Note_on_c, 7, 55, 127
2, 3986, Note_off_c, 7, 55, 127
2, 3986, Note_off_c, 0, 72, 127
2, 3988, Note_on_c, 0, 72, 127
2, 3988, Note_on_c, 8, 56, 127
2, 4081, Note_on_c, 3, 75, 127
2, 4175, Note_on_c, 8, 80, 127
2, 4266, Note_off_c, 8, 56, 127
2, 4268, Note_on_c, 0, 60, 127
2, 4516, Note_off_c, 0, 60, 127
2, 4542, Note_off_c, 0, 72, 127
2, 4548, Note_off_c, 3, 75, 127
2, 4549, Note_on_c, 3, 51, 127
2, 4734, Note_off_c, 8, 80, 127
2, 4827, Note_off_c, 3, 51, 127
2, 4829, Note_on_c, 3, 75, 127
2, 4829, Note_on_c, 0, 72, 127
2, 4829, Note_on_c, 8, 56, 127
2, 5084, Note_off_c, 8, 56, 127
2, 5107, Note_off_c, 0, 72, 127
2, 5107, Note_off_c, 3, 75, 127
2, 5109, Note_on_c, 1, 73, 127
2, 5109, Note_on_c, 11, 70, 127
2, 5390, Note_on_c, 11, 58, 127
2, 5528, Note_off_c, 11, 58, 127
2, 5530, Note_on_c, 8, 56, 127
2, 5668, Note_off_c, 8, 56, 127
2, 5670, Note_on_c, 7, 79, 127
2, 5670, Note_on_c, 11, 58, 127
2, 5948, Note_off_c, 11, 58, 127
2, 5948, Note_off_c, 11, 70, 127
2, 5948, Note_off_c, 1, 73, 127
2, 5950, Note_on_c, 1, 61, 127
2, 6198, Note_off_c, 1, 61, 127
2, 6224, Note_off_c, 7, 79, 127
2, 6231, Note_on_c, 3, 51, 127
2, 6509, Note_off_c, 3, 51, 127
2, 6511, Note_on_c, 11, 70, 127
2, 6511, Note_on_c, 1, 73, 127
2, 6511, Note_on_c, 7, 79, 127
2, 6511, Note_on_c, 11, 58, 127
2, 6766, Note_off_c, 11, 58, 127
2, 6789, Note_off_c, 7, 79, 127
2, 6789, Note_off_c, 1, 73, 127
2, 6789, Note_off_c, 11, 70, 127
2, 6791, Note_on_c, 8, 68, 127
2, 6931, Note_on_c, 3, 75, 127
2, 7072, Note_on_c, 8, 80, 127
2, 7072, Note_on_c, 0, 60, 127
2, 7210, Note_off_c, 0, 60, 127
2, 7212, Note_on_c, 11, 58, 127
2, 7339, Note_off_c, 3, 75, 127
2, 7350, Note_off_c, 11, 58, 127
2, 7350, Note_off_c, 8, 80, 127
2, 7352, Note_on_c, 3, 75, 127
2, 7352, Note_on_c, 0, 60, 127
2, 7630, Note_off_c, 0, 60, 127
2, 7632, Note_on_c, 3, 63, 127
2, 7880, Note_off_c, 3, 63, 127
2, 7910, Note_off_c, 8, 68, 127
2, 7912, Note_on_c, 8, 56, 127
2, 8190, Note_off_c, 8, 56, 127
2, 8191, Note_off_c, 3, 75, 127
2, 8193, Note_on_c, 3, 75, 127
2, 8193, Note_on_c, 11, 70, 127
2, 8193, Note_on_c, 0, 60, 127
2, 8448, Note_off_c, 0, 60, 127
2, 8471, Note_off_c, 11, 70, 127
2, 8471, Note_off_c, 3, 75, 127
2, 8473, Note_on_c, 8, 68, 127
2, 8473, Note_on_c, 3, 75, 127
2, 8473, Note_on_c, 5, 53, 127
2, 8751, Note_off_c, 3, 75, 127
2, 8753, Note_on_c, 8, 80, 127
2, 8891, Note_off_c, 8, 80, 127
2, 8894, Note_on_c, 7, 79, 127
2, 9032, Note_off_c, 7, 79, 127
2, 9034, Note_on_c, 8, 80, 127
2, 9034, Note_on_c, 5, 65, 127
2, 9312, Note_off_c, 8, 80, 127
2, 9314, Note_on_c, 5, 77, 127
2, 9540, Note_off_c, 5, 77, 127
2, 9592, Note_off_c, 5, 53, 127
2, 9594, Note_on_c, 0, 72, 127
2, 9872, Note_off_c, 0, 72, 127
2, 9875, Note_on_c, 3, 75, 127
2, 9997, Note_off_c, 5, 65, 127
2, 10101, Note_off_c, 3, 75, 127
2, 10152, Note_off_c, 8, 68, 127
2, 10155, Note_on_c, 11, 70, 127
2, 10155, Note_on_c, 3, 75, 127
2, 10223, Note_off_c, 3, 75, 127
2, 10225, Note_on_c, 1, 73, 127
2, 10293, Note_off_c, 1, 73, 127
2, 10295, Note_on_c, 3, 75, 127
2, 10363, Note_off_c, 3, 75, 127
2, 10365, Note_on_c, 1, 73, 127
2, 10435, Note_on_c, 11, 58, 127
2, 10573, Note_off_c, 11, 58, 127
2, 10576, Note_on_c, 8, 56, 127
2, 10713, Note_off_c, 1, 73, 127
2, 10714, Note_off_c, 8, 56, 127
2, 10716, Note_on_c, 8, 80, 127
2, 10716, Note_on_c, 11, 58, 127
2, 10994, Note_off_c, 11, 58, 127
2, 10996, Note_on_c, 1, 61, 127
2, 11244, Note_off_c, 1, 61, 127
2, 11274, Note_off_c, 11, 70, 127
2, 11276, Note_on_c, 7, 55, 127
2, 11475, Note_off_c, 8, 80, 127
2, 11554, Note_off_c, 7, 55, 127
2, 11557, Note_on_c, 1, 73, 127
2, 11557, Note_on_c, 8, 68, 127
2, 11557, Note_on_c, 11, 58, 127
2, 11812, Note_off_c, 11, 58, 127
2, 11835, Note_off_c, 8, 68, 127
2, 11835, Note_off_c, 1, 73, 127
2, 11837, Note_on_c, 7, 67, 127
2, 11837, Note_on_c, 1, 73, 127
2, 11837, Note_on_c, 3, 51, 127
2, 12115, Note_off_c, 1, 73, 127
2, 12115, Note_off_c, 7, 67, 127
2, 12117, Note_on_c, 11, 82, 127
2, 12255, Note_off_c, 11, 82, 127
2, 12257, Note_on_c, 8, 80, 127
2, 12395, Note_off_c, 8, 80, 127
2, 12398, Note_on_c, 11, 82, 127
2, 12398, Note_on_c, 3, 63, 127
2, 12678, Note_on_c, 7, 79, 127
2, 12897, Note_off_c, 7, 79, 127
2, 12956, Note_off_c, 3, 51, 127
2, 12958, Note_on_c, 1, 73, 127
2, 13236, Note_off_c, 1, 73, 127
2, 13237, Note_off_c, 3, 63, 127
2, 13237, Note_off_c, 11, 82, 127
2, 13239, Note_on_c, 11, 82, 127
2, 13239, Note_on_c, 1, 73, 127
2, 13239, Note_on_c, 7, 67, 127
2, 13479, Note_off_c, 11, 82, 127
2, 13516, Note_off_c, 7, 67, 127
2, 13517, Note_off_c, 1, 73, 127
2, 13519, Note_on_c, 0, 72, 127
2, 13519, Note_on_c, 8, 68, 127
2, 13659, Note_on_c, 11, 70, 127
2, 13723, Note_off_c, 0, 72, 127
2, 13797, Note_off_c, 11, 70, 127
2, 13799, Note_on_c, 0, 72, 127
2, 13799, Note_on_c, 8, 56, 127
2, 13937, Note_off_c, 8, 56, 127
2, 13939, Note_on_c, 7, 55, 127
2, 14073, Note_off_c, 8, 68, 127
2, 14077, Note_off_c, 7, 55, 127
2, 14080, Note_on_c, 8, 56, 127
2, 14149, Note_off_c, 0, 72, 127
2, 14220, Note_on_c, 3, 75, 127
2, 14358, Note_off_c, 3, 75, 127
2, 14358, Note_off_c, 8, 56, 127
2, 14360, Note_on_c, 5, 77, 127
2, 14360, Note_on_c, 0, 60, 127
2, 14498, Note_off_c, 5, 77, 127
2, 14500, Note_on_c, 7, 79, 127
2, 14600, Note_off_c, 0, 60, 127
2, 14638, Note_off_c, 7, 79, 127
2, 14640, Note_on_c, 8, 80, 127
2, 14640, Note_on_c, 5, 53, 127
2, 14780, Note_on_c, 5, 77, 127
2, 14800, Note_off_c, 8, 80, 127
2, 14918, Note_off_c, 5, 77, 127
2, 14918, Note_off_c, 5, 53, 127
2, 14920, Note_on_c, 2, 74, 127
2, 14920, Note_on_c, 8, 56, 127
2, 15061, Note_on_c, 5, 77, 127
2, 15080, Note_off_c, 2, 74, 127
2, 15175, Note_off_c, 8, 56, 127
2, 15199, Note_off_c, 5, 77, 127
2, 15201, Note_on_c, 11, 70, 127
2, 15201, Note_on_c, 2, 50, 127
2, 15339, Note_off_c, 11, 70, 127
2, 15341, Note_on_c, 8, 68, 127
2, 15479, Note_off_c, 8, 68, 127
2, 15479, Note_off_c, 2, 50, 127
2, 15481, Note_on_c, 11, 70, 127
2, 15481, Note_on_c, 7, 55, 127
2, 15619, Note_off_c, 7, 55, 127
2, 15621, Note_on_c, 5, 53, 127
2, 15759, Note_off_c, 5, 53, 127
2, 15761, Note_on_c, 7, 55, 127
2, 15900, Note_off_c, 11, 70, 127
2, 15902, Note_on_c, 2, 74, 127
2, 16039, Note_off_c, 7, 55, 127
2, 16040, Note_off_c, 2, 74, 127
2, 16042, Note_on_c, 3, 75, 127
2, 16042, Note_on_c, 11, 58, 127
2, 16180, Note_off_c, 3, 75, 127
2, 16182, Note_on_c, 5, 77, 127
2, 16275, Note_off_c, 11, 58, 127
2, 16320, Note_off_c, 5, 77, 127
2, 16322, Note_on_c, 7, 79, 127
2, 16322, Note_on_c, 3, 51, 127
2, 16462, Note_on_c, 3, 75, 127
2, 16482, Note_off_c, 7, 79, 127
2, 16600, Note_off_c, 3, 75, 127
2, 16600, Note_off_c, 3, 51, 127
2, 16602, Note_on_c, 0, 72, 127
2, 16602, Note_on_c, 7, 55, 127
2, 16743, Note_on_c, 3, 75, 127
2, 16762, Note_off_c, 0, 72, 127
2, 16835, Note_off_c, 7, 55, 127
2, 16881, Note_off_c, 3, 75, 127
2, 16883, Note_on_c, 8, 68, 127
2, 16883, Note_on_c, 0, 48, 127
2, 17023, Note_on_c, 11, 70, 127
2, 17043, Note_off_c, 8, 68, 127
2, 17161, Note_off_c, 11, 70, 127
2, 17161, Note_off_c, 0, 48, 127
2, 17163, Note_on_c, 7, 67, 127
2, 17163, Note_on_c, 5, 53, 127
2, 17301, Note_off_c, 5, 53, 127
2, 17303, Note_on_c, 11, 70, 127
2, 17303, Note_on_c, 3, 51, 127
2, 17323, Note_off_c, 7, 67, 127
2, 17441, Note_off_c, 3, 51, 127
2, 17441, Note_off_c, 11, 70, 127
2, 17443, Note_on_c, 8, 68, 127
2, 17443, Note_on_c, 5, 53, 127
2, 17584, Note_on_c, 0, 72, 127
2, 17720, Note_off_c, 8, 68, 127
2, 17721, Note_off_c, 5, 53, 127
2, 17722, Note_off_c, 0, 72, 127
2, 17724, Note_on_c, 2, 74, 127
2, 17724, Note_on_c, 8, 56, 127
2, 17862, Note_off_c, 2, 74, 127
2, 17864, Note_on_c, 3, 75, 127
2, 17957, Note_off_c, 8, 56, 127
2, 18002, Note_off_c, 3, 75, 127
2, 18004, Note_on_c, 5, 77, 127
2, 18004, Note_on_c, 2, 50, 127
2, 18144, Note_on_c, 2, 74, 127
2, 18237, Note_off_c, 5, 77, 127
2, 18282, Note_off_c, 2, 74, 127
2, 18282, Note_off_c, 2, 50, 127
2, 18284, Note_on_c, 11, 70, 127
2, 18284, Note_on_c, 5, 53, 127
2, 18422, Note_off_c, 11, 70, 127
2, 18424, Note_on_c, 2, 74, 127
2, 18517, Note_off_c, 5, 53, 127
2, 18562, Note_off_c, 2, 74, 127
2, 18565, Note_on_c, 7, 67, 127
2, 18565, Note_on_c, 11, 46, 127
2, 18705, Note_on_c, 8, 68, 127
2, 18754, Note_off_c, 7, 67, 127
2, 18843, Note_off_c, 8, 68, 127
2, 18843, Note_off_c, 11, 46, 127
2, 18845, Note_on_c, 5, 65, 127
2, 18845, Note_on_c, 3, 51, 127
2, 18983, Note_off_c, 3, 51, 127
2, 18985, Note_on_c, 8, 68, 127
2, 18985, Note_on_c, 2, 50, 127
2, 19034, Note_off_c, 5, 65, 127
2, 19123, Note_off_c, 2, 50, 127
2, 19123, Note_off_c, 8, 68, 127
2, 19125, Note_on_c, 7, 67, 127
2, 19125, Note_on_c, 3, 51, 127
2, 19265, Note_on_c, 11, 70, 127
2, 19402, Note_off_c, 7, 67, 127
2, 19403, Note_off_c, 11, 70, 127
2, 19403, Note_off_c, 3, 51, 127
2, 19406, Note_on_c, 0, 72, 127
2, 19406, Note_on_c, 7, 55, 127
2, 19544, Note_off_c, 0, 72, 127
2, 19546, Note_on_c, 2, 74, 127
2, 19639, Note_off_c, 7, 55, 127
2, 19684, Note_off_c, 2, 74, 127
2, 19686, Note_on_c, 3, 75, 127
2, 19686, Note_on_c, 0, 48, 127
2, 19826, Note_on_c, 0, 72, 127
2, 19919, Note_off_c, 3, 75, 127
2, 19964, Note_off_c, 0, 72, 127
2, 19964, Note_off_c, 0, 48, 127
2, 19966, Note_on_c, 8, 68, 127
2, 19966, Note_on_c, 3, 51, 127
2, 20104, Note_off_c, 8, 68, 127
2, 20106, Note_on_c, 0, 72, 127
2, 20199, Note_off_c, 3, 51, 127
2, 20244, Note_off_c, 0, 72, 127
2, 20247, Note_on_c, 5, 65, 127
2, 20247, Note_on_c, 8, 44, 127
2, 20387, Note_on_c, 3, 75, 127
2, 20524, Note_off_c, 5, 65, 127
2, 20525, Note_off_c, 3, 75, 127
2, 20525, Note_off_c, 8, 44, 127
2, 20527, Note_on_c, 2, 74, 127
2, 20527, Note_on_c, 5, 53, 127
2, 20665, Note_off_c, 5, 53, 127
2, 20665, Note_off_c, 2, 74, 127
2, 20667, Note_on_c, 3, 75, 127
2, 20667, Note_on_c, 3, 51, 127
2, 20805, Note_off_c, 3, 51, 127
2, 20805, Note_off_c, 3, 75, 127
2, 20807, Note_on_c, 8, 68, 127
2, 20807, Note_on_c, 5, 53, 127
2, 20947, Note_on_c, 3, 75, 127
2, 21084, Note_off_c, 8, 68, 127
2, 21085, Note_off_c, 3, 75, 127
2, 21085, Note_off_c, 5, 53, 127
2, 21088, Note_on_c, 2, 74, 127
2, 21088, Note_on_c, 8, 56, 127
2, 21226, Note_off_c, 2, 74, 127
2, 21228, Note_on_c, 3, 75, 127
2, 21321, Note_off_c, 8, 56, 127
2, 21366, Note_off_c, 3, 75, 127
2, 21368, Note_on_c, 5, 65, 127
2, 21368, Note_on_c, 2, 50, 127
2, 21508, Note_on_c, 3, 75, 127
2, 21645, Note_off_c, 5, 65, 127
2, 21646, Note_off_c, 3, 75, 127
2, 21646, Note_off_c, 2, 50, 127
2, 21648, Note_on_c, 2, 74, 127
2, 21648, Note_on_c, 5, 53, 127
2, 21786, Note_off_c, 2, 74, 127
2, 21788, Note_on_c, 3, 75, 127
2, 21881, Note_off_c, 5, 53, 127
2, 21926, Note_off_c, 3, 75, 127
2, 21928, Note_on_c, 7, 67, 127
2, 21928, Note_on_c, 11, 46, 127
2, 22069, Note_on_c, 3, 75, 127
2, 22205, Note_off_c, 7, 67, 127
2, 22206, Note_off_c, 11, 46, 127
2, 22207, Note_off_c, 3, 75, 127
2, 22209, Note_on_c, 2, 74, 127
2, 22209, Note_on_c, 7, 55, 127
2, 22347, Note_off_c, 7, 55, 127
2, 22347, Note_off_c, 2, 74, 127
2, 22349, Note_on_c, 3, 75, 127
2, 22349, Note_on_c, 5, 53, 127
2, 22487, Note_off_c, 5, 53, 127
2, 22487, Note_off_c, 3, 75, 127
2, 22489, Note_on_c, 11, 70, 127
2, 22489, Note_on_c, 7, 55, 127
2, 22629, Note_on_c, 3, 75, 127
2, 22766, Note_off_c, 11, 70, 127
2, 22767, Note_off_c, 3, 75, 127
2, 22767, Note_off_c, 7, 55, 127
2, 22769, Note_on_c, 2, 74, 127
2, 22769, Note_on_c, 11, 58, 127
2, 22907, Note_off_c, 2, 74, 127
2, 22910, Note_on_c, 3, 75, 127
2, 23002, Note_off_c, 11, 58, 127
2, 23048, Note_off_c, 3, 75, 127
2, 23050, Note_on_c, 7, 67, 127
2, 23050, Note_on_c, 3, 51, 127
2, 23190, Note_on_c, 3, 75, 127
2, 23327, Note_off_c, 7, 67, 127
2, 23328, Note_off_c, 3, 75, 127
2, 23328, Note_off_c, 3, 51, 127
2, 23330, Note_on_c, 2, 74, 127
2, 23330, Note_on_c, 7, 55, 127
2, 23468, Note_off_c, 2, 74, 127
2, 23470, Note_on_c, 3, 75, 127
2, 23563, Note_off_c, 7, 55, 127
2, 23608, Note_off_c, 3, 75, 127
2, 23610, Note_on_c, 8, 68, 127
2, 23610, Note_on_c, 0, 48, 127
2, 23751, Note_on_c, 3, 75, 127
2, 23858, Note_off_c, 8, 68, 127
2, 23888, Note_off_c, 0, 48, 127
2, 23889, Note_off_c, 3, 75, 127
2, 23891, Note_on_c, 1, 73, 127
2, 23891, Note_on_c, 8, 56, 127
2, 24029, Note_off_c, 8, 56, 127
2, 24031, Note_on_c, 3, 75, 127
2, 24031, Note_on_c, 7, 55, 127
2, 24139, Note_off_c, 1, 73, 127
2, 24169, Note_off_c, 7, 55, 127
2, 24169, Note_off_c, 3, 75, 127
2, 24171, Note_on_c, 0, 72, 127
2, 24171, Note_on_c, 8, 56, 127
2, 24311, Note_on_c, 3, 75, 127
2, 24419, Note_off_c, 0, 72, 127
2, 24449, Note_off_c, 3, 75, 127
2, 24449, Note_off_c, 8, 56, 127
2, 24451, Note_on_c, 11, 70, 127
2, 24451, Note_on_c, 0, 60, 127
2, 24592, Note_on_c, 3, 75, 127
2, 24684, Note_off_c, 0, 60, 127
2, 24699, Note_off_c, 11, 70, 127
2, 24730, Note_off_c, 3, 75, 127
2, 24732, Note_on_c, 8, 68, 127
2, 24732, Note_on_c, 5, 53, 127
2, 24872, Note_on_c, 3, 75, 127
2, 24980, Note_off_c, 8, 68, 127
2, 25010, Note_off_c, 3, 75, 127
2, 25010, Note_off_c, 5, 53, 127
2, 25012, Note_on_c, 7, 67, 127
2, 25012, Note_on_c, 8, 56, 127
2, 25152, Note_on_c, 3, 75, 127
2, 25245, Note_off_c, 8, 56, 127
2, 25260, Note_off_c, 7, 67, 127
2, 25290, Note_off_c, 3, 75, 127
2, 25292, Note_on_c, 5, 65, 127
2, 25292, Note_on_c, 2, 50, 127
2, 25432, Note_on_c, 3, 75, 127
2, 25540, Note_off_c, 5, 65, 127
2, 25570, Note_off_c, 3, 75, 127
2, 25570, Note_off_c, 2, 50, 127
2, 25573, Note_on_c, 7, 67, 127
2, 25573, Note_on_c, 5, 53, 127
2, 25713, Note_on_c, 3, 75, 127
2, 25813, Note_off_c, 5, 53, 127
2, 25821, Note_off_c, 7, 67, 127
2, 25851, Note_off_c, 3, 75, 127
2, 25853, Note_on_c, 8, 68, 127
2, 25853, Note_on_c, 11, 46, 127
2, 25993, Note_on_c, 2, 74, 127
2, 26131, Note_off_c, 2, 74, 127
2, 26131, Note_off_c, 11, 46, 127
2, 26133, Note_on_c, 3, 75, 127
2, 26133, Note_on_c, 2, 50, 127
2, 26261, Note_off_c, 8, 68, 127
2, 26271, Note_off_c, 3, 75, 127
2, 26273, Note_on_c, 5, 77, 127
2, 26373, Note_off_c, 2, 50, 127
2, 26411, Note_off_c, 5, 77, 127
2, 26414, Note_on_c, 7, 67, 127
2, 26414, Note_on_c, 3, 51, 127
2, 26552, Note_off_c, 7, 67, 127
2, 26554, Note_on_c, 11, 70, 127
2, 26692, Note_off_c, 11, 70, 127
2, 26692, Note_off_c, 3, 51, 127
2, 26694, Note_on_c, 8, 68, 127
2, 26694, Note_on_c, 0, 48, 127
2, 26832, Note_off_c, 8, 68, 127
2, 26834, Note_on_c, 0, 72, 127
2, 26934, Note_off_c, 0, 48, 127
2, 26972, Note_off_c, 0, 72, 127
2, 26974, Note_on_c, 11, 70, 127
2, 26974, Note_on_c, 7, 43, 127
2, 27114, Note_on_c, 3, 75, 127
2, 27222, Note_off_c, 11, 70, 127
2, 27252, Note_off_c, 3, 75, 127
2, 27252, Note_off_c, 7, 43, 127
2, 27255, Note_on_c, 2, 74, 127
2, 27255, Note_on_c, 5, 41, 127
2, 27393, Note_off_c, 2, 74, 127
2, 27395, Note_on_c, 0, 72, 127
2, 27510, Note_off_c, 5, 41, 127
2, 27533, Note_off_c, 0, 72, 127
2, 27535, Note_on_c, 11, 70, 127
2, 27535, Note_on_c, 7, 43, 127
2, 27673, Note_off_c, 11, 70, 127
2, 27675, Note_on_c, 8, 68, 127
2, 27813, Note_off_c, 8, 68, 127
2, 27813, Note_off_c, 7, 43, 127
2, 27815, Note_on_c, 11, 70, 127
2, 27815, Note_on_c, 8, 44, 127
2, 27953, Note_off_c, 11, 70, 127
2, 27955, Note_on_c, 0, 72, 127
2, 28070, Note_off_c, 8, 44, 127
2, 28093, Note_off_c, 0, 72, 127
2, 28096, Note_on_c, 2, 62, 127
2, 28096, Note_on_c, 7, 67, 127
2, 28096, Note_on_c, 11, 46, 127
2, 28164, Note_off_c, 7, 67, 127
2, 28166, Note_on_c, 5, 65, 127
2, 28234, Note_off_c, 5, 65, 127
2, 28236, Note_on_c, 7, 67, 127
2, 28304, Note_off_c, 7, 67, 127
2, 28306, Note_on_c, 5, 65, 127
2, 28374, Note_off_c, 5, 65, 127
2, 28376, Note_on_c, 7, 67, 127
2, 28444, Note_off_c, 7, 67, 127
2, 28446, Note_on_c, 5, 65, 127
2, 28504, Note_off_c, 2, 62, 127
2, 28514, Note_off_c, 5, 65, 127
2, 28516, Note_on_c, 3, 63, 127
2, 28650, Note_off_c, 11, 46, 127
2, 28654, Note_off_c, 3, 63, 127
2, 28656, Note_on_c, 3, 63, 127
2, 28936, Note_on_c, 3, 51, 127
2, 29074, Note_off_c, 3, 51, 127
2, 29077, Note_on_c, 2, 50, 127
2, 29215, Note_off_c, 2, 50, 127
2, 29215, Note_off_c, 3, 63, 127
2, 29217, Note_on_c, 7, 67, 127
2, 29217, Note_on_c, 3, 51, 127
2, 29310, Note_on_c, 11, 70, 127
2, 29404, Note_on_c, 3, 75, 127
2, 29495, Note_off_c, 3, 51, 127
2, 29497, Note_on_c, 7, 55, 127
2, 29730, Note_off_c, 7, 55, 127
2, 29771, Note_off_c, 7, 67, 127
2, 29777, Note_on_c, 11, 46, 127
2, 29864, Note_off_c, 11, 70, 127
2, 29900, Note_off_c, 3, 75, 127
2, 30055, Note_off_c, 11, 46, 127
2, 30058, Note_on_c, 7, 67, 127
2, 30058, Note_on_c, 11, 70, 127
2, 30058, Note_on_c, 3, 51, 127
2, 30291, Note_off_c, 3, 51, 127
2, 30336, Note_off_c, 11, 70, 127
2, 30336, Note_off_c, 7, 67, 127
2, 30338, Note_on_c, 8, 68, 127
2, 30338, Note_on_c, 5, 65, 127
2, 30618, Note_on_c, 5, 53, 127
2, 30756, Note_off_c, 5, 53, 127
2, 30759, Note_on_c, 3, 51, 127
2, 30897, Note_off_c, 3, 51, 127
2, 30899, Note_on_c, 2, 74, 127
2, 30899, Note_on_c, 5, 53, 127
2, 31177, Note_off_c, 5, 53, 127
2, 31179, Note_on_c, 8, 56, 127
2, 31412, Note_off_c, 8, 56, 127
2, 31457, Note_off_c, 5, 65, 127
2, 31457, Note_off_c, 8, 68, 127
2, 31459, Note_on_c, 11, 46, 127
2, 31599, Note_off_c, 2, 74, 127
2, 31737, Note_off_c, 11, 46, 127
2, 31740, Note_on_c, 5, 65, 127
2, 31740, Note_on_c, 8, 68, 127
2, 31740, Note_on_c, 2, 74, 127
2, 31740, Note_on_c, 5, 53, 127
2, 31973, Note_off_c, 5, 53, 127
2, 32018, Note_off_c, 2, 74, 127
2, 32018, Note_off_c, 8, 68, 127
2, 32018, Note_off_c, 5, 65, 127
2, 32020, Note_on_c, 7, 55, 127
2, 32021, Note_on_c, 3, 63, 127
2, 32023, Note_on_c, 7, 67, 127
2, 32024, Note_on_c, 11, 70, 127
2, 32026, Note_on_c, 3, 75, 127
2, 32299, Note_off_c, 3, 63, 127
2, 32301, Note_off_c, 7, 67, 127
2, 32302, Note_off_c, 11, 70, 127
2, 32316, Note_on_c, 3, 63, 127
2, 32434, Note_off_c, 3, 75, 127
2, 32454, Note_off_c, 3, 63, 127
2, 32456, Note_on_c, 2, 62, 127
2, 32594, Note_off_c, 2, 62, 127
2, 32597, Note_on_c, 3, 63, 127
2, 32720, Note_off_c, 7, 55, 127
2, 32875, Note_off_c, 3, 63, 127
2, 32877, Note_on_c, 3, 51, 127
2, 32877, Note_on_c, 7, 67, 127
2, 33015, Note_off_c, 3, 51, 127
2, 33017, Note_on_c, 5, 53, 127
2, 33072, Note_off_c, 7, 67, 127
2, 33155, Note_off_c, 5, 53, 127
2, 33157, Note_on_c, 7, 55, 127
2, 33157, Note_on_c, 11, 58, 127
2, 33295, Note_off_c, 7, 55, 127
2, 33297, Note_on_c, 5, 53, 127
2, 33435, Note_off_c, 5, 53, 127
2, 33435, Note_off_c, 11, 58, 127
2, 33438, Note_on_c, 7, 55, 127
2, 33438, Note_on_c, 3, 63, 127
2, 33576, Note_off_c, 7, 55, 127
2, 33578, Note_on_c, 3, 51, 127
2, 33633, Note_off_c, 3, 63, 127
2, 33716, Note_off_c, 3, 51, 127
2, 33718, Note_on_c, 11, 58, 127
2, 33998, Note_on_c, 11, 46, 127
2, 33998, Note_on_c, 5, 65, 127
2, 34136, Note_off_c, 5, 65, 127
2, 34138, Note_on_c, 3, 63, 127
2, 34276, Note_off_c, 3, 63, 127
2, 34279, Note_on_c, 5, 65, 127
2, 34546, Note_off_c, 11, 46, 127
2, 34557, Note_off_c, 5, 65, 127
2, 34559, Note_on_c, 11, 46, 127
2, 34559, Note_on_c, 8, 68, 127
2, 34697, Note_off_c, 11, 46, 127
2, 34699, Note_on_c, 0, 48, 127
2, 34754, Note_off_c, 8, 68, 127
2, 34836, Note_off_c, 11, 58, 127
2, 34837, Note_off_c, 0, 48, 127
2, 34839, Note_on_c, 2, 50, 127
2, 34839, Note_on_c, 11, 58, 127
2, 34977, Note_off_c, 2, 50, 127
2, 34979, Note_on_c, 0, 48, 127
2, 35117, Note_off_c, 0, 48, 127
2, 35120, Note_on_c, 2, 50, 127
2, 35120, Note_on_c, 5, 65, 127
2, 35247, Note_off_c, 11, 58, 127
2, 35258, Note_off_c, 2, 50, 127
2, 35260, Note_on_c, 11, 46, 127
2, 35315, Note_off_c, 5, 65, 127
2, 35398, Note_off_c, 11, 46, 127
2, 35400, Note_on_c, 3, 51, 127
2, 35400, Note_on_c, 7, 67, 127
2, 35678, Note_off_c, 7, 67, 127
2, 35680, Note_on_c, 3, 39, 127
2, 35680, Note_on_c, 11, 70, 127
2, 35818, Note_off_c, 11, 70, 127
2, 35820, Note_on_c, 8, 68, 127
2, 35958, Note_off_c, 8, 68, 127
2, 35960, Note_on_c, 11, 70, 127
2, 36176, Note_off_c, 3, 39, 127
2, 36238, Note_off_c, 11, 70, 127
2, 36239, Note_off_c, 3, 51, 127
2, 36241, Note_on_c, 1, 61, 127
2, 36241, Note_on_c, 3, 75, 127
2, 36379, Note_off_c, 1, 61, 127
2, 36381, Note_on_c, 0, 60, 127
2, 36436, Note_off_c, 3, 75, 127
2, 36519, Note_off_c, 0, 60, 127
2, 36521, Note_on_c, 11, 58, 127
2, 36521, Note_on_c, 7, 67, 127
2, 36659, Note_off_c, 11, 58, 127
2, 36661, Note_on_c, 0, 60, 127
2, 36799, Note_off_c, 0, 60, 127
2, 36799, Note_off_c, 7, 67, 127
2, 36801, Note_on_c, 8, 56, 127
2, 36801, Note_on_c, 11, 70, 127
2, 36939, Note_off_c, 8, 56, 127
2, 36942, Note_on_c, 11, 58, 127
2, 36996, Note_off_c, 11, 70, 127
2, 37080, Note_off_c, 11, 58, 127
2, 37082, Note_on_c, 7, 55, 127
2, 37082, Note_on_c, 3, 63, 127
2, 37220, Note_off_c, 7, 55, 127
2, 37222, Note_on_c, 8, 56, 127
2, 37360, Note_off_c, 8, 56, 127
2, 37360, Note_off_c, 3, 63, 127
2, 37362, Note_on_c, 5, 53, 127
2, 37362, Note_on_c, 7, 67, 127
2, 37500, Note_off_c, 7, 67, 127
2, 37500, Note_off_c, 5, 53, 127
2, 37502, Note_on_c, 7, 55, 127
2, 37502, Note_on_c, 5, 65, 127
2, 37640, Note_off_c, 5, 65, 127
2, 37640, Note_off_c, 7, 55, 127
2, 37642, Note_on_c, 3, 51, 127
2, 37642, Note_on_c, 7, 67, 127
2, 37780, Note_off_c, 3, 51, 127
2, 37783, Note_on_c, 5, 53, 127
2, 37920, Note_off_c, 7, 67, 127
2, 37921, Note_off_c, 5, 53, 127
2, 37923, Note_on_c, 1, 49, 127
2, 37923, Note_on_c, 11, 70, 127
2, 38061, Note_off_c, 1, 49, 127
2, 38063, Note_on_c, 3, 51, 127
2, 38118, Note_off_c, 11, 70, 127
2, 38201, Note_off_c, 3, 51, 127
2, 38203, Note_on_c, 0, 48, 127
2, 38203, Note_on_c, 3, 63, 127
2, 38341, Note_off_c, 0, 48, 127
2, 38343, Note_on_c, 1, 49, 127
2, 38481, Note_off_c, 1, 49, 127
2, 38481, Note_off_c, 3, 63, 127
2, 38483, Note_on_c, 11, 46, 127
2, 38483, Note_on_c, 7, 67, 127
2, 38621, Note_off_c, 11, 46, 127
2, 38624, Note_on_c, 0, 48, 127
2, 38678, Note_off_c, 7, 67, 127
2, 38762, Note_off_c, 0, 48, 127
2, 38764, Note_on_c, 8, 44, 127
2, 38764, Note_on_c, 0, 60, 127
2, 39041, Note_off_c, 0, 60, 127
2, 39044, Note_on_c, 3, 63, 127
2, 39172, Note_off_c, 8, 44, 127
2, 39182, Note_off_c, 3, 63, 127
2, 39184, Note_on_c, 1, 61, 127
2, 39322, Note_off_c, 1, 61, 127
2, 39324, Note_on_c, 3, 63, 127
2, 39602, Note_off_c, 3, 63, 127
2, 39605, Note_on_c, 6, 66, 127
2, 39605, Note_on_c, 6, 78, 127
2, 39745, Note_on_c, 5, 77, 127
2, 39751, Note_off_c, 6, 78, 127
2, 39831, Note_off_c, 6, 66, 127
2, 39885, Note_on_c, 0, 60, 127
2, 39885, Note_on_c, 3, 75, 127
2, 39891, Note_off_c, 5, 77, 127
2, 40025, Note_on_c, 5, 77, 127
2, 40031, Note_off_c, 3, 75, 127
2, 40163, Note_off_c, 0, 60, 127
2, 40165, Note_on_c, 3, 63, 127
2, 40165, Note_on_c, 1, 73, 127
2, 40171, Note_off_c, 5, 77, 127
2, 40305, Note_on_c, 3, 75, 127
2, 40311, Note_off_c, 1, 73, 127
2, 40391, Note_off_c, 3, 63, 127
2, 40446, Note_on_c, 8, 56, 127
2, 40446, Note_on_c, 0, 72, 127
2, 40451, Note_off_c, 3, 75, 127
2, 40586, Note_on_c, 1, 73, 127
2, 40592, Note_off_c, 0, 72, 127
2, 40724, Note_off_c, 8, 56, 127
2, 40726, Note_on_c, 0, 60, 127
2, 40726, Note_on_c, 11, 70, 127
2, 40732, Note_off_c, 1, 73, 127
2, 40864, Note_off_c, 0, 60, 127
2, 40866, Note_on_c, 11, 58, 127
2, 40866, Note_on_c, 0, 72, 127
2, 40872, Note_off_c, 11, 70, 127
2, 41004, Note_off_c, 11, 58, 127
2, 41006, Note_on_c, 0, 60, 127
2, 41006, Note_on_c, 8, 68, 127
2, 41012, Note_off_c, 0, 72, 127
2, 41146, Note_on_c, 11, 70, 127
2, 41152, Note_off_c, 8, 68, 127
2, 41284, Note_off_c, 0, 60, 127
2, 41287, Note_on_c, 3, 63, 127
2, 41287, Note_on_c, 6, 66, 127
2, 41292, Note_off_c, 11, 70, 127
2, 41427, Note_on_c, 8, 68, 127
2, 41433, Note_off_c, 6, 66, 127
2, 41506, Note_off_c, 3, 63, 127
2, 41567, Note_on_c, 8, 56, 127
2, 41567, Note_on_c, 5, 65, 127
2, 41573, Note_off_c, 8, 68, 127
2, 41707, Note_on_c, 6, 66, 127
2, 41713, Note_off_c, 5, 65, 127
2, 41845, Note_off_c, 8, 56, 127
2, 41847, Note_on_c, 0, 60, 127
2, 41847, Note_on_c, 3, 63, 127
2, 41853, Note_off_c, 6, 66, 127
2, 41987, Note_on_c, 5, 65, 127
2, 41993, Note_off_c, 3, 63, 127
2, 42066, Note_off_c, 0, 60, 127
2, 42125, Note_off_c, 5, 65, 127
2, 42128, Note_on_c, 5, 53, 127
2, 42128, Note_on_c, 1, 61, 127
2, 42406, Note_off_c, 1, 61, 127
2, 42408, Note_on_c, 1, 73, 127
2, 42546, Note_off_c, 1, 73, 127
2, 42548, Note_on_c, 0, 72, 127
2, 42686, Note_off_c, 0, 72, 127
2, 42688, Note_on_c, 1, 73, 127
2, 42799, Note_off_c, 5, 53, 127
2, 42828, Note_on_c, 8, 56, 127
2, 42966, Note_off_c, 8, 56, 127
2, 42966, Note_off_c, 1, 73, 127
2, 42968, Note_on_c, 11, 58, 127
2, 42968, Note_on_c, 5, 77, 127
2, 43106, Note_off_c, 11, 58, 127
2, 43109, Note_on_c, 0, 60, 127
2, 43163, Note_off_c, 5, 77, 127
2, 43247, Note_off_c, 0, 60, 127
2, 43249, Note_on_c, 1, 61, 127
2, 43249, Note_on_c, 11, 70, 127
2, 43387, Note_off_c, 1, 61, 127
2, 43389, Note_on_c, 11, 58, 127
2, 43527, Note_off_c, 11, 58, 127
2, 43527, Note_off_c, 11, 70, 127
2, 43529, Note_on_c, 7, 55, 127
2, 43529, Note_on_c, 1, 73, 127
2, 43667, Note_off_c, 7, 55, 127
2, 43669, Note_on_c, 11, 58, 127
2, 43724, Note_off_c, 1, 73, 127
2, 43807, Note_off_c, 11, 58, 127
2, 43809, Note_on_c, 3, 51, 127
2, 43809, Note_on_c, 7, 67, 127
2, 44087, Note_off_c, 7, 67, 127
2, 44090, Note_on_c, 0, 72, 127
2, 44228, Note_off_c, 0, 72, 127
2, 44230, Note_on_c, 11, 70, 127
2, 44368, Note_off_c, 11, 70, 127
2, 44370, Note_on_c, 0, 72, 127
2, 44451, Note_off_c, 3, 51, 127
2, 44510, Note_on_c, 7, 55, 127
2, 44648, Note_off_c, 7, 55, 127
2, 44648, Note_off_c, 0, 72, 127
2, 44650, Note_on_c, 8, 56, 127
2, 44650, Note_on_c, 3, 75, 127
2, 44788, Note_off_c, 8, 56, 127
2, 44791, Note_on_c, 11, 58, 127
2, 44845, Note_off_c, 3, 75, 127
2, 44929, Note_off_c, 11, 58, 127
2, 44931, Note_on_c, 0, 60, 127
2, 44931, Note_on_c, 8, 68, 127
2, 45069, Note_off_c, 0, 60, 127
2, 45071, Note_on_c, 8, 56, 127
2, 45209, Note_off_c, 8, 56, 127
2, 45209, Note_off_c, 8, 68, 127
2, 45211, Note_on_c, 5, 53, 127
2, 45211, Note_on_c, 0, 72, 127
2, 45349, Note_off_c, 5, 53, 127
2, 45351, Note_on_c, 8, 56, 127
2, 45406, Note_off_c, 0, 72, 127
2, 45489, Note_off_c, 8, 56, 127
2, 45491, Note_on_c, 1, 49, 127
2, 45491, Note_on_c, 5, 65, 127
2, 45632, Note_on_c, 3, 51, 127
2, 45637, Note_off_c, 1, 49, 127
2, 45769, Note_off_c, 5, 65, 127
2, 45770, Note_off_c, 3, 51, 127
2, 45772, Note_on_c, 0, 48, 127
2, 45772, Note_on_c, 11, 70, 127
2, 45910, Note_off_c, 11, 70, 127
2, 45912, Note_on_c, 3, 51, 127
2, 45912, Note_on_c, 8, 68, 127
2, 45918, Note_off_c, 0, 48, 127
2, 46050, Note_off_c, 8, 68, 127
2, 46050, Note_off_c, 3, 51, 127
2, 46052, Note_on_c, 1, 49, 127
2, 46052, Note_on_c, 11, 70, 127
2, 46192, Note_on_c, 5, 53, 127
2, 46212, Note_off_c, 1, 49, 127
2, 46330, Note_off_c, 5, 53, 127
2, 46330, Note_off_c, 11, 70, 127
2, 46332, Note_on_c, 7, 55, 127
2, 46332, Note_on_c, 1, 73, 127
2, 46470, Note_off_c, 7, 55, 127
2, 46472, Note_on_c, 8, 56, 127
2, 46527, Note_off_c, 1, 73, 127
2, 46610, Note_off_c, 8, 56, 127
2, 46613, Note_on_c, 11, 58, 127
2, 46613, Note_on_c, 7, 67, 127
2, 46751, Note_off_c, 11, 58, 127
2, 46753, Note_on_c, 7, 55, 127
2, 46891, Note_off_c, 7, 55, 127
2, 46891, Note_off_c, 7, 67, 127
2, 46893, Note_on_c, 3, 51, 127
2, 46893, Note_on_c, 11, 70, 127
2, 47031, Note_off_c, 3, 51, 127
2, 47033, Note_on_c, 7, 55, 127
2, 47088, Note_off_c, 11, 70, 127
2, 47171, Note_off_c, 7, 55, 127
2, 47173, Note_on_c, 0, 48, 127
2, 47173, Note_on_c, 3, 63, 127
2, 47313, Note_on_c, 1, 49, 127
2, 47319, Note_off_c, 0, 48, 127
2, 47451, Note_off_c, 1, 49, 127
2, 47451, Note_off_c, 3, 63, 127
2, 47454, Note_on_c, 11, 46, 127
2, 47454, Note_on_c, 8, 68, 127
2, 47592, Note_off_c, 8, 68, 127
2, 47594, Note_on_c, 1, 49, 127
2, 47594, Note_on_c, 7, 67, 127
2, 47600, Note_off_c, 11, 46, 127
2, 47732, Note_off_c, 7, 67, 127
2, 47732, Note_off_c, 1, 49, 127
2, 47734, Note_on_c, 0, 48, 127
2, 47734, Note_on_c, 8, 68, 127
2, 47874, Note_on_c, 3, 51, 127
2, 47894, Note_off_c, 0, 48, 127
2, 48012, Note_off_c, 3, 51, 127
2, 48012, Note_off_c, 8, 68, 127
2, 48014, Note_on_c, 5, 53, 127
2, 48014, Note_on_c, 0, 72, 127
2, 48152, Note_off_c, 5, 53, 127
2, 48154, Note_on_c, 7, 55, 127
2, 48209, Note_off_c, 0, 72, 127
2, 48292, Note_off_c, 7, 55, 127
2, 48295, Note_on_c, 8, 56, 127
2, 48295, Note_on_c, 5, 65, 127
2, 48433, Note_off_c, 8, 56, 127
2, 48435, Note_on_c, 5, 53, 127
2, 48573, Note_off_c, 5, 53, 127
2, 48573, Note_off_c, 5, 65, 127
2, 48575, Note_on_c, 1, 49, 127
2, 48575, Note_on_c, 8, 68, 127
2, 48713, Note_off_c, 1, 49, 127
2, 48715, Note_on_c, 5, 53, 127
2, 48770, Note_off_c, 8, 68, 127
2, 48853, Note_off_c, 5, 53, 127
2, 48855, Note_on_c, 11, 46, 127
2, 48855, Note_on_c, 1, 61, 127
2, 48995, Note_on_c, 8, 56, 127
2, 49030, Note_off_c, 11, 46, 127
2, 49133, Note_off_c, 8, 56, 127
2, 49133, Note_off_c, 1, 61, 127
2, 49136, Note_on_c, 7, 55, 127
2, 49136, Note_on_c, 11, 70, 127
2, 49274, Note_off_c, 11, 70, 127
2, 49274, Note_off_c, 7, 55, 127
2, 49276, Note_on_c, 8, 56, 127
2, 49276, Note_on_c, 8, 68, 127
2, 49414, Note_off_c, 8, 68, 127
2, 49416, Note_on_c, 1, 49, 127
2, 49416, Note_on_c, 11, 70, 127
2, 49553, Note_off_c, 8, 56, 127
2, 49556, Note_on_c, 8, 56, 127
2, 49591, Note_off_c, 1, 49, 127
2, 49694, Note_off_c, 8, 56, 127
2, 49694, Note_off_c, 11, 70, 127
2, 49696, Note_on_c, 7, 55, 127
2, 49696, Note_on_c, 1, 73, 127
2, 49834, Note_off_c, 7, 55, 127
2, 49836, Note_on_c, 8, 56, 127
2, 49891, Note_off_c, 1, 73, 127
2, 49976, Note_on_c, 11, 46, 127
2, 49976, Note_on_c, 7, 67, 127
2, 50113, Note_off_c, 8, 56, 127
2, 50117, Note_on_c, 8, 56, 127
2, 50151, Note_off_c, 11, 46, 127
2, 50254, Note_off_c, 7, 67, 127
2, 50255, Note_off_c, 8, 56, 127
2, 50257, Note_on_c, 7, 55, 127
2, 50257, Note_on_c, 11, 70, 127
2, 50395, Note_off_c, 7, 55, 127
2, 50397, Note_on_c, 8, 56, 127
2, 50452, Note_off_c, 11, 70, 127
2, 50537, Note_on_c, 0, 48, 127
2, 50537, Note_on_c, 3, 63, 127
2, 50674, Note_off_c, 8, 56, 127
2, 50677, Note_on_c, 8, 56, 127
2, 50712, Note_off_c, 0, 48, 127
2, 50815, Note_off_c, 8, 56, 127
2, 50815, Note_off_c, 3, 63, 127
2, 50817, Note_on_c, 7, 55, 127
2, 50817, Note_on_c, 0, 72, 127
2, 50955, Note_off_c, 0, 72, 127
2, 50955, Note_off_c, 7, 55, 127
2, 50958, Note_on_c, 8, 56, 127
2, 50958, Note_on_c, 11, 70, 127
2, 51096, Note_off_c, 11, 70, 127
2, 51098, Note_on_c, 3, 51, 127
2, 51098, Note_on_c, 0, 72, 127
2, 51235, Note_off_c, 8, 56, 127
2, 51238, Note_on_c, 8, 56, 127
2, 51273, Note_off_c, 3, 51, 127
2, 51376, Note_off_c, 8, 56, 127
2, 51376, Note_off_c, 0, 72, 127
2, 51378, Note_on_c, 7, 55, 127
2, 51378, Note_on_c, 3, 75, 127
2, 51516, Note_off_c, 7, 55, 127
2, 51518, Note_on_c, 8, 56, 127
2, 51573, Note_off_c, 3, 75, 127
2, 51658, Note_on_c, 0, 48, 127
2, 51658, Note_on_c, 8, 68, 127
2, 51766, Note_off_c, 8, 56, 127
2, 51799, Note_on_c, 8, 56, 127
2, 51833, Note_off_c, 0, 48, 127
2, 51936, Note_off_c, 8, 68, 127
2, 51937, Note_off_c, 8, 56, 127
2, 51939, Note_on_c, 7, 55, 127
2, 51939, Note_on_c, 0, 72, 127
2, 52077, Note_off_c, 7, 55, 127
2, 52079, Note_on_c, 8, 56, 127
2, 52134, Note_off_c, 0, 72, 127
2, 52219, Note_on_c, 1, 49, 127
2, 52219, Note_on_c, 5, 65, 127
2, 52283, Note_off_c, 8, 56, 127
2, 52359, Note_on_c, 8, 56, 127
2, 52394, Note_off_c, 1, 49, 127
2, 52497, Note_off_c, 5, 65, 127
2, 52499, Note_on_c, 6, 54, 127
2, 52499, Note_on_c, 1, 73, 127
2, 52607, Note_off_c, 8, 56, 127
2, 52637, Note_off_c, 1, 73, 127
2, 52637, Note_off_c, 6, 54, 127
2, 52640, Note_on_c, 8, 56, 127
2, 52640, Note_on_c, 0, 72, 127
2, 52778, Note_off_c, 0, 72, 127
2, 52780, Note_on_c, 5, 53, 127
2, 52780, Note_on_c, 1, 73, 127
2, 52888, Note_off_c, 8, 56, 127
2, 52918, Note_off_c, 5, 53, 127
2, 52920, Note_on_c, 8, 56, 127
2, 53058, Note_off_c, 1, 73, 127
2, 53060, Note_on_c, 3, 51, 127
2, 53060, Note_on_c, 5, 77, 127
2, 53168, Note_off_c, 8, 56, 127
2, 53198, Note_off_c, 3, 51, 127
2, 53200, Note_on_c, 8, 56, 127
2, 53279, Note_off_c, 5, 77, 127
2, 53340, Note_on_c, 1, 49, 127
2, 53340, Note_on_c, 11, 70, 127
2, 53448, Note_off_c, 8, 56, 127
2, 53478, Note_off_c, 1, 49, 127
2, 53480, Note_on_c, 8, 56, 127
2, 53618, Note_off_c, 11, 70, 127
2, 53621, Note_on_c, 0, 48, 127
2, 53621, Note_on_c, 1, 73, 127
2, 53728, Note_off_c, 8, 56, 127
2, 53759, Note_off_c, 0, 48, 127
2, 53761, Note_on_c, 8, 56, 127
2, 53840, Note_off_c, 1, 73, 127
2, 53899, Note_off_c, 8, 56, 127
2, 53901, Note_on_c, 11, 46, 127
2, 53901, Note_on_c, 7, 67, 127
2, 54039, Note_off_c, 11, 46, 127
2, 54041, Note_on_c, 1, 49, 127
2, 54179, Note_off_c, 1, 49, 127
2, 54179, Note_off_c, 7, 67, 127
2, 54181, Note_on_c, 0, 48, 127
2, 54181, Note_on_c, 11, 70, 127
2, 54319, Note_off_c, 0, 48, 127
2, 54321, Note_on_c, 3, 51, 127
2, 54400, Note_off_c, 11, 70, 127
2, 54459, Note_off_c, 3, 51, 127
2, 54462, Note_on_c, 1, 49, 127
2, 54462, Note_on_c, 3, 63, 127
2, 54600, Note_off_c, 1, 49, 127
2, 54602, Note_on_c, 5, 53, 127
2, 54740, Note_off_c, 5, 53, 127
2, 54740, Note_off_c, 3, 63, 127
2, 54742, Note_on_c, 3, 51, 127
2, 54742, Note_on_c, 7, 67, 127
2, 54880, Note_off_c, 3, 51, 127
2, 54882, Note_on_c, 1, 49, 127
2, 54968, Note_off_c, 7, 67, 127
2, 55020, Note_off_c, 1, 49, 127
2, 55022, Note_on_c, 0, 48, 127
2, 55022, Note_on_c, 8, 68, 127
2, 55160, Note_off_c, 8, 68, 127
2, 55160, Note_off_c, 0, 48, 127
2, 55162, Note_on_c, 3, 51, 127
2, 55162, Note_on_c, 7, 67, 127
2, 55300, Note_off_c, 7, 67, 127
2, 55300, Note_off_c, 3, 51, 127
2, 55303, Note_on_c, 1, 49, 127
2, 55303, Note_on_c, 8, 68, 127
2, 55441, Note_off_c, 1, 49, 127
2, 55443, Note_on_c, 5, 53, 127
2, 55581, Note_off_c, 5, 53, 127
2, 55583, Note_on_c, 3, 51, 127
2, 55722, Note_off_c, 8, 68, 127
2, 55723, Note_on_c, 7, 67, 127
2, 55861, Note_off_c, 7, 67, 127
2, 55861, Note_off_c, 3, 51, 127
2, 55863, Note_on_c, 5, 53, 127
2, 55863, Note_on_c, 8, 68, 127
2, 56001, Note_off_c, 8, 68, 127
2, 56001, Note_off_c, 5, 53, 127
2, 56003, Note_on_c, 1, 49, 127
2, 56003, Note_on_c, 11, 70, 127
2, 56141, Note_off_c, 11, 70, 127
2, 56141, Note_off_c, 1, 49, 127
2, 56144, Note_on_c, 3, 51, 127
2, 56144, Note_on_c, 0, 72, 127
2, 56144, Note_on_c, 7, 67, 127
2, 56275, Note_off_c, 0, 72, 127
2, 56284, Note_on_c, 11, 70, 127
2, 56352, Note_off_c, 11, 70, 127
2, 56354, Note_on_c, 0, 72, 127
2, 56422, Note_off_c, 0, 72, 127
2, 56422, Note_off_c, 3, 51, 127
2, 56424, Note_on_c, 1, 49, 127
2, 56424, Note_on_c, 11, 70, 127
2, 56492, Note_off_c, 11, 70, 127
2, 56494, Note_on_c, 0, 72, 127
2, 56562, Note_off_c, 0, 72, 127
2, 56564, Note_on_c, 11, 70, 127
2, 56632, Note_off_c, 11, 70, 127
2, 56634, Note_on_c, 0, 72, 127
2, 56702, Note_off_c, 0, 72, 127
2, 56702, Note_off_c, 1, 49, 127
2, 56704, Note_on_c, 3, 51, 127
2, 56704, Note_on_c, 11, 70, 127
2, 56844, Note_off_c, 7, 67, 127
2, 56984, Note_on_c, 3, 39, 127
2, 57083, Note_off_c, 11, 70, 127
2, 57116, Note_on_c, 8, 68, 127
2, 57241, Note_off_c, 8, 68, 127
2, 57258, Note_off_c, 3, 51, 127
2, 57262, Note_off_c, 3, 39, 127
2, 57265, Note_on_c, 8, 44, 127
2, 57265, Note_on_c, 8, 68, 127
2, 57543, Note_off_c, 8, 68, 127
2, 57545, Note_on_c, 3, 75, 127
2, 57683, Note_off_c, 3, 75, 127
2, 57685, Note_on_c, 1, 73, 127
2, 57823, Note_off_c, 1, 73, 127
2, 57825, Note_on_c, 8, 56, 127
2, 57825, Note_on_c, 3, 75, 127
2, 58103, Note_off_c, 3, 75, 127
2, 58104, Note_off_c, 8, 44, 127
2, 58106, Note_on_c, 0, 72, 127
2, 58301, Note_off_c, 0, 72, 127
2, 58386, Note_on_c, 7, 67, 127
2, 58641, Note_off_c, 7, 67, 127
2, 58664, Note_off_c, 8, 56, 127
2, 58666, Note_on_c, 11, 70, 127
2, 58921, Note_off_c, 11, 70, 127
2, 58947, Note_on_c, 11, 70, 127
2, 58947, Note_on_c, 5, 65, 127
2, 59015, Note_off_c, 11, 70, 127
2, 59017, Note_on_c, 8, 68, 127
2, 59085, Note_off_c, 8, 68, 127
2, 59087, Note_on_c, 11, 70, 127
2, 59155, Note_off_c, 11, 70, 127
2, 59157, Note_on_c, 8, 68, 127
2, 59225, Note_off_c, 8, 68, 127
2, 59227, Note_on_c, 5, 53, 127
2, 59227, Note_on_c, 11, 70, 127
2, 59295, Note_off_c, 11, 70, 127
2, 59297, Note_on_c, 8, 68, 127
2, 59365, Note_off_c, 5, 53, 127
2, 59367, Note_on_c, 3, 51, 127
2, 59501, Note_off_c, 5, 65, 127
2, 59505, Note_off_c, 3, 51, 127
2, 59505, Note_off_c, 8, 68, 127
2, 59507, Note_on_c, 5, 53, 127
2, 59507, Note_on_c, 3, 75, 127
2, 59785, Note_off_c, 5, 53, 127
2, 59788, Note_on_c, 8, 56, 127
2, 60021, Note_off_c, 8, 56, 127
2, 60068, Note_on_c, 1, 49, 127
2, 60178, Note_off_c, 3, 75, 127
2, 60208, Note_on_c, 6, 66, 127
2, 60346, Note_off_c, 6, 66, 127
2, 60346, Note_off_c, 1, 49, 127
2, 60348, Note_on_c, 5, 53, 127
2, 60348, Note_on_c, 5, 65, 127
2, 60486, Note_off_c, 5, 65, 127
2, 60488, Note_on_c, 3, 63, 127
2, 60581, Note_off_c, 5, 53, 127
2, 60626, Note_off_c, 3, 63, 127
2, 60629, Note_on_c, 11, 46, 127
2, 60629, Note_on_c, 1, 61, 127
2, 60907, Note_off_c, 1, 61, 127
2, 60909, Note_on_c, 1, 73, 127
2, 61047, Note_off_c, 1, 73, 127
2, 61049, Note_on_c, 0, 72, 127
2, 61187, Note_off_c, 0, 72, 127
2, 61189, Note_on_c, 11, 58, 127
2, 61189, Note_on_c, 1, 73, 127
2, 61467, Note_off_c, 1, 73, 127
2, 61468, Note_off_c, 11, 46, 127
2, 61470, Note_on_c, 11, 70, 127
2, 61665, Note_off_c, 11, 70, 127
2, 61750, Note_on_c, 5, 65, 127
2, 62005, Note_off_c, 5, 65, 127
2, 62028, Note_off_c, 11, 58, 127
2, 62030, Note_on_c, 8, 68, 127
2, 62285, Note_off_c, 8, 68, 127
2, 62311, Note_on_c, 3, 63, 127
2, 62311, Note_on_c, 8, 68, 127
2, 62379, Note_off_c, 8, 68, 127
2, 62381, Note_on_c, 7, 67, 127
2, 62449, Note_off_c, 7, 67, 127
2, 62451, Note_on_c, 8, 68, 127
2, 62519, Note_off_c, 8, 68, 127
2, 62521, Note_on_c, 7, 67, 127
2, 62589, Note_off_c, 7, 67, 127
2, 62591, Note_on_c, 3, 51, 127
2, 62591, Note_on_c, 8, 68, 127
2, 62659, Note_off_c, 8, 68, 127
2, 62661, Note_on_c, 7, 67, 127
2, 62729, Note_off_c, 3, 51, 127
2, 62731, Note_on_c, 1, 49, 127
2, 62865, Note_off_c, 3, 63, 127
2, 62869, Note_off_c, 1, 49, 127
2, 62869, Note_off_c, 7, 67, 127
2, 62871, Note_on_c, 3, 51, 127
2, 62871, Note_on_c, 1, 73, 127
2, 63149, Note_off_c, 3, 51, 127
2, 63152, Note_on_c, 7, 55, 127
2, 63385, Note_off_c, 7, 55, 127
2, 63432, Note_on_c, 0, 48, 127
2, 63542, Note_off_c, 1, 73, 127
2, 63572, Note_on_c, 5, 65, 127
2, 63710, Note_off_c, 5, 65, 127
2, 63710, Note_off_c, 0, 48, 127
2, 63712, Note_on_c, 3, 51, 127
2, 63712, Note_on_c, 3, 63, 127
2, 63850, Note_off_c, 3, 63, 127
2, 63852, Note_on_c, 1, 61, 127
2, 63945, Note_off_c, 3, 51, 127
2, 63990, Note_off_c, 1, 61, 127
2, 63992, Note_on_c, 8, 44, 127
2, 63992, Note_on_c, 0, 60, 127
2, 64134, Note_on_c, 8, 56, 127
2, 64134, Note_on_c, 0, 72, 127
2, 64272, Note_off_c, 0, 60, 127
2, 64272, Note_off_c, 8, 44, 127
2, 64274, Note_off_c, 0, 72, 127
2, 64274, Note_off_c, 8, 56, 127
2, 64276, Note_on_c, 7, 55, 127
2, 64276, Note_on_c, 11, 70, 127
2, 64416, Note_off_c, 11, 70, 127
2, 64416, Note_off_c, 7, 55, 127
2, 64417, Note_on_c, 8, 56, 127
2, 64417, Note_on_c, 0, 72, 127
2, 64557, Note_off_c, 0, 72, 127
2, 64557, Note_off_c, 8, 56, 127
2, 64559, Note_on_c, 5, 53, 127
2, 64559, Note_on_c, 8, 68, 127
2, 64699, Note_off_c, 5, 53, 127
2, 64701, Note_on_c, 8, 56, 127
2, 64701, Note_on_c, 0, 72, 127
2, 64721, Note_off_c, 8, 68, 127
2, 64841, Note_off_c, 0, 72, 127
2, 64841, Note_off_c, 8, 56, 127
2, 64842, Note_on_c, 3, 51, 127
2, 64842, Note_on_c, 7, 67, 127
2, 64982, Note_off_c, 3, 51, 127
2, 64984, Note_on_c, 8, 56, 127
2, 64984, Note_on_c, 0, 72, 127
2, 65004, Note_off_c, 7, 67, 127
2, 65124, Note_off_c, 0, 72, 127
2, 65124, Note_off_c, 8, 56, 127
2, 65125, Note_on_c, 1, 49, 127
2, 65125, Note_on_c, 5, 65, 127
2, 65265, Note_off_c, 1, 49, 127
2, 65267, Note_on_c, 8, 56, 127
2, 65267, Note_on_c, 0, 72, 127
2, 65287, Note_off_c, 5, 65, 127
2, 65407, Note_off_c, 0, 72, 127
2, 65407, Note_off_c, 8, 56, 127
2, 65409, Note_on_c, 0, 48, 127
2, 65409, Note_on_c, 3, 63, 127
2, 65549, Note_off_c, 0, 48, 127
2, 65550, Note_on_c, 8, 56, 127
2, 65550, Note_on_c, 0, 72, 127
2, 65571, Note_off_c, 3, 63, 127
2, 65690, Note_off_c, 0, 72, 127
2, 65690, Note_off_c, 8, 56, 127
2, 65692, Note_on_c, 11, 46, 127
2, 65692, Note_on_c, 1, 61, 127
2, 65835, Note_on_c, 11, 58, 127
2, 65835, Note_on_c, 1, 73, 127
2, 65975, Note_off_c, 1, 61, 127
2, 65975, Note_off_c, 11, 46, 127
2, 65976, Note_off_c, 1, 73, 127
2, 65976, Note_off_c, 11, 58, 127
2, 65978, Note_on_c, 8, 56, 127
2, 65978, Note_on_c, 0, 72, 127
2, 66119, Note_off_c, 0, 72, 127
2, 66119, Note_off_c, 8, 56, 127
2, 66121, Note_on_c, 11, 58, 127
2, 66121, Note_on_c, 1, 73, 127
2, 66262, Note_off_c, 1, 73, 127
2, 66262, Note_off_c, 11, 58, 127
2, 66264, Note_on_c, 7, 55, 127
2, 66264, Note_on_c, 11, 70, 127
2, 66405, Note_off_c, 7, 55, 127
2, 66407, Note_on_c, 11, 58, 127
2, 66407, Note_on_c, 1, 73, 127
2, 66427, Note_off_c, 11, 70, 127
2, 66548, Note_off_c, 1, 73, 127
2, 66548, Note_off_c, 11, 58, 127
2, 66550, Note_on_c, 5, 53, 127
2, 66550, Note_on_c, 8, 68, 127
2, 66691, Note_off_c, 5, 53, 127
2, 66693, Note_on_c, 11, 58, 127
2, 66693, Note_on_c, 1, 73, 127
2, 66713, Note_off_c, 8, 68, 127
2, 66834, Note_off_c, 1, 73, 127
2, 66834, Note_off_c, 11, 58, 127
2, 66837, Note_on_c, 3, 51, 127
2, 66837, Note_on_c, 7, 67, 127
2, 66978, Note_off_c, 3, 51, 127
2, 66980, Note_on_c, 11, 58, 127
2, 66980, Note_on_c, 1, 73, 127
2, 67000, Note_off_c, 7, 67, 127
2, 67121, Note_off_c, 1, 73, 127
2, 67121, Note_off_c, 11, 58, 127
2, 67123, Note_on_c, 1, 49, 127
2, 67123, Note_on_c, 5, 65, 127
2, 67264, Note_off_c, 1, 49, 127
2, 67266, Note_on_c, 11, 58, 127
2, 67266, Note_on_c, 1, 73, 127
2, 67286, Note_off_c, 5, 65, 127
2, 67407, Note_off_c, 1, 73, 127
2, 67407, Note_off_c, 11, 58, 127
2, 67409, Note_on_c, 0, 48, 127
2, 67409, Note_on_c, 3, 63, 127
2, 67698, Note_off_c, 3, 63, 127
2, 67699, Note_on_c, 0, 60, 127
2, 67699, Note_on_c, 11, 70, 127
2, 67754, Note_off_c, 11, 70, 127
2, 67756, Note_on_c, 8, 68, 127
2, 67812, Note_off_c, 8, 68, 127
2, 67815, Note_on_c, 11, 70, 127
2, 67870, Note_off_c, 11, 70, 127
2, 67872, Note_on_c, 8, 68, 127
2, 67928, Note_off_c, 8, 68, 127
2, 67930, Note_on_c, 7, 67, 127
2, 67981, Note_off_c, 0, 48, 127
2, 67985, Note_off_c, 7, 67, 127
2, 67987, Note_on_c, 8, 68, 127
2, 68119, Note_off_c, 0, 60, 127
2, 68276, Note_off_c, 8, 68, 127
2, 68278, Note_on_c, 5, 53, 127
2, 68278, Note_on_c, 0, 72, 127
2, 68422, Note_off_c, 5, 53, 127
2, 68424, Note_on_c, 7, 55, 127
2, 68513, Note_off_c, 0, 72, 127
2, 68567, Note_off_c, 7, 55, 127
2, 68568, Note_on_c, 8, 56, 127
2, 68568, Note_on_c, 5, 65, 127
2, 68712, Note_off_c, 8, 56, 127
2, 68714, Note_on_c, 7, 55, 127
2, 68858, Note_off_c, 7, 55, 127
2, 68858, Note_off_c, 5, 65, 127
2, 68860, Note_on_c, 8, 56, 127
2, 68860, Note_on_c, 8, 68, 127
2, 69004, Note_off_c, 8, 56, 127
2, 69006, Note_on_c, 5, 53, 127
2, 69150, Note_off_c, 5, 53, 127
2, 69152, Note_on_c, 11, 58, 127
2, 69152, Note_on_c, 1, 73, 127
2, 69444, Note_off_c, 8, 68, 127
2, 69448, Note_off_c, 1, 73, 127
2, 69450, Note_on_c, 11, 46, 127
2, 69450, Note_on_c, 8, 68, 127
2, 69547, Note_off_c, 8, 68, 127
2, 69549, Note_on_c, 7, 67, 127
2, 69646, Note_off_c, 7, 67, 127
2, 69649, Note_on_c, 5, 65, 127
2, 69741, Note_off_c, 11, 58, 127
2, 69746, Note_off_c, 5, 65, 127
2, 69748, Note_on_c, 7, 67, 127
2, 69791, Note_off_c, 11, 46, 127
2, 70047, Note_on_c, 3, 51, 127
2, 70047, Note_on_c, 11, 70, 127
2, 70194, Note_off_c, 3, 51, 127
2, 70196, Note_on_c, 5, 53, 127
2, 70311, Note_off_c, 11, 70, 127
2, 70343, Note_off_c, 5, 53, 127
2, 70345, Note_on_c, 7, 55, 127
2, 70345, Note_on_c, 3, 63, 127
2, 70492, Note_off_c, 7, 55, 127
2, 70494, Note_on_c, 5, 53, 127
2, 70641, Note_off_c, 5, 53, 127
2, 70641, Note_off_c, 3, 63, 127
2, 70641, Note_off_c, 7, 67, 127
2, 70643, Note_on_c, 7, 55, 127
2, 70643, Note_on_c, 7, 67, 127
2, 70790, Note_off_c, 7, 55, 127
2, 70792, Note_on_c, 3, 51, 127
2, 70907, Note_off_c, 7, 67, 127
2, 70939, Note_off_c, 3, 51, 127
2, 70941, Note_on_c, 8, 56, 127
2, 70941, Note_on_c, 0, 72, 127
2, 71268, Note_off_c, 0, 72, 127
2, 71268, Note_off_c, 8, 56, 127
2, 71269, Note_on_c, 1, 49, 127
2, 71269, Note_on_c, 1, 61, 127
2, 71269, Note_on_c, 8, 68, 127
2, 71269, Note_on_c, 5, 65, 127
2, 71596, Note_off_c, 5, 65, 127
2, 71596, Note_off_c, 8, 68, 127
2, 71596, Note_off_c, 1, 61, 127
2, 71596, Note_off_c, 1, 49, 127
2, 71598, Note_on_c, 3, 51, 127
2, 71598, Note_on_c, 11, 58, 127
2, 71697, Note_on_c, 3, 63, 127
2, 71796, Note_on_c, 8, 68, 127
2, 71925, Note_off_c, 3, 51, 127
2, 71926, Note_on_c, 1, 49, 127
2, 72253, Note_off_c, 1, 49, 127
2, 72255, Note_on_c, 3, 51, 127
2, 72255, Note_on_c, 7, 67, 127
2, 72258, Note_off_c, 8, 68, 127
2, 72636, Note_off_c, 3, 51, 127
2, 72637, Note_on_c, 3, 39, 127
2, 73016, Note_off_c, 3, 63, 127
2, 73018, Note_off_c, 3, 39, 127
2, 73018, Note_off_c, 7, 67, 127
2, 73018, Note_off_c, 11, 58, 127
2, 73020, Note_on_c, 8, 44, 127
2, 73020, Note_on_c, 0, 60, 127
2, 73021, Note_on_c, 3, 63, 127
2, 73023, Note_on_c, 8, 68, 127
2, 75313, Note_off_c, 0, 60, 127
2, 75313, Note_off_c, 8, 44, 127
2, 75314, Note_off_c, 3, 63, 127
2, 75316, Note_off_c, 8, 68, 127
2, 76096, Note_on_c, 8, 56, 127
2, 76481, Note_off_c, 8, 56, 127
2, 76486, Note_on_c, 3, 63, 127
2, 76851, Note_off_c, 3, 63, 127
2, 76876, Note_on_c, 0, 60, 127
2, 77261, Note_off_c, 0, 60, 127
2, 77265, Note_on_c, 8, 56, 127
2, 77630, Note_off_c, 8, 56, 127
2, 77655, Note_on_c, 5, 65, 127
2, 78030, Note_off_c, 5, 65, 127
2, 78045, Note_on_c, 1, 61, 127
2, 78420, Note_off_c, 1, 61, 127
2, 78435, Note_on_c, 3, 63, 127
2, 79214, Note_on_c, 3, 51, 127
2, 79405, Note_off_c, 3, 63, 127
2, 79410, Note_on_c, 1, 61, 127
2, 79600, Note_off_c, 3, 51, 127
2, 79601, Note_off_c, 1, 61, 127
2, 79606, Note_on_c, 8, 56, 127
2, 79606, Note_on_c, 0, 60, 127
2, 79797, Note_off_c, 0, 60, 127
2, 79801, Note_on_c, 1, 61, 127
2, 79972, Note_off_c, 8, 56, 127
2, 79992, Note_off_c, 1, 61, 127
2, 79997, Note_on_c, 7, 55, 127
2, 79997, Note_on_c, 3, 63, 127
2, 80188, Note_off_c, 3, 63, 127
2, 80193, Note_on_c, 5, 65, 127
2, 80383, Note_off_c, 7, 55, 127
2, 80384, Note_off_c, 5, 65, 127
2, 80388, Note_on_c, 3, 51, 127
2, 80388, Note_on_c, 7, 67, 127
2, 80579, Note_off_c, 7, 67, 127
2, 80584, Note_on_c, 3, 63, 127
2, 80754, Note_off_c, 3, 51, 127
2, 80775, Note_off_c, 3, 63, 127
2, 80780, Note_on_c, 0, 60, 127
2, 80780, Note_on_c, 8, 68, 127
2, 80971, Note_off_c, 8, 68, 127
2, 80975, Note_on_c, 11, 70, 127
2, 81156, Note_off_c, 0, 60, 127
2, 81166, Note_off_c, 11, 70, 127
2, 81171, Note_on_c, 8, 56, 127
2, 81171, Note_on_c, 0, 72, 127
2, 81362, Note_off_c, 0, 72, 127
2, 81366, Note_on_c, 11, 70, 127
2, 81547, Note_off_c, 8, 56, 127
2, 81557, Note_off_c, 11, 70, 127
2, 81562, Note_on_c, 11, 58, 127
2, 81562, Note_on_c, 8, 68, 127
2, 81753, Note_off_c, 8, 68, 127
2, 81758, Note_on_c, 7, 67, 127
2, 81948, Note_off_c, 11, 58, 127
2, 81949, Note_off_c, 7, 67, 127
2, 81953, Note_on_c, 3, 51, 127
2, 81953, Note_on_c, 5, 65, 127
2, 82144, Note_off_c, 5, 65, 127
2, 82149, Note_on_c, 8, 68, 127
2, 82319, Note_off_c, 3, 51, 127
2, 82340, Note_off_c, 8, 68, 127
2, 82345, Note_on_c, 11, 58, 127
2, 82345, Note_on_c, 7, 67, 127
2, 82730, Note_off_c, 11, 58, 127
2, 82734, Note_on_c, 7, 55, 127
2, 83099, Note_off_c, 7, 55, 127
2, 83124, Note_on_c, 8, 56, 127
2, 83509, Note_off_c, 8, 56, 127
2, 83514, Note_on_c, 3, 51, 127
2, 83826, Note_off_c, 7, 67, 127
2, 83879, Note_off_c, 3, 51, 127
2, 83904, Note_on_c, 8, 56, 127
2, 83904, Note_on_c, 5, 65, 127
2, 84289, Note_off_c, 8, 56, 127
2, 84294, Note_on_c, 5, 53, 127
2, 84669, Note_off_c, 5, 53, 127
2, 84684, Note_on_c, 7, 55, 127
2, 84874, Note_off_c, 5, 65, 127
2, 84879, Note_on_c, 3, 63, 127
2, 85070, Note_off_c, 3, 63, 127
2, 85075, Note_on_c, 2, 62, 127
2, 85266, Note_off_c, 2, 62, 127
2, 85271, Note_on_c, 5, 65, 127
2, 85462, Note_off_c, 5, 65, 127
2, 85466, Note_on_c, 3, 63, 127
2, 85657, Note_off_c, 7, 55, 127
2, 85662, Note_on_c, 0, 48, 127
2, 85853, Note_off_c, 0, 48, 127
2, 85857, Note_on_c, 1, 49, 127
2, 86048, Note_off_c, 1, 49, 127
2, 86053, Note_on_c, 3, 51, 127
2, 86244, Note_off_c, 3, 51, 127
2, 86249, Note_on_c, 5, 53, 127
2, 86440, Note_off_c, 5, 53, 127
2, 86444, Note_on_c, 7, 55, 127
2, 86635, Note_off_c, 7, 55, 127
2, 86635, Note_off_c, 3, 63, 127
2, 86640, Note_on_c, 8, 56, 127
2, 86640, Note_on_c, 1, 61, 127
2, 86831, Note_off_c, 1, 61, 127
2, 86831, Note_off_c, 8, 56, 127
2, 86836, Note_on_c, 5, 53, 127
2, 86836, Note_on_c, 0, 60, 127
2, 87027, Note_off_c, 0, 60, 127
2, 87027, Note_off_c, 5, 53, 127
2, 87031, Note_on_c, 11, 58, 127
2, 87031, Note_on_c, 1, 61, 127
2, 87222, Note_off_c, 1, 61, 127
2, 87222, Note_off_c, 11, 58, 127
2, 87227, Note_on_c, 0, 60, 127
2, 87227, Note_on_c, 5, 65, 127
2, 87418, Note_off_c, 5, 65, 127
2, 87418, Note_off_c, 0, 60, 127
2, 87423, Note_on_c, 1, 61, 127
2, 87423, Note_on_c, 11, 70, 127
2, 87614, Note_off_c, 11, 70, 127
2, 87614, Note_off_c, 1, 61, 127
2, 87618, Note_on_c, 0, 60, 127
2, 87618, Note_on_c, 8, 68, 127
2, 87809, Note_off_c, 8, 68, 127
2, 87809, Note_off_c, 0, 60, 127
2, 87814, Note_on_c, 11, 58, 127
2, 87814, Note_on_c, 7, 67, 127
2, 88005, Note_off_c, 7, 67, 127
2, 88005, Note_off_c, 11, 58, 127
2, 88009, Note_on_c, 8, 56, 127
2, 88009, Note_on_c, 5, 65, 127
2, 88200, Note_off_c, 5, 65, 127
2, 88200, Note_off_c, 8, 56, 127
2, 88205, Note_on_c, 7, 55, 127
2, 88205, Note_on_c, 3, 63, 127
2, 88396, Note_off_c, 3, 63, 127
2, 88396, Note_off_c, 7, 55, 127
2, 88401, Note_on_c, 11, 58, 127
2, 88401, Note_on_c, 1, 61, 127
2, 88592, Note_off_c, 1, 61, 127
2, 88592, Note_off_c, 11, 58, 127
2, 88596, Note_on_c, 8, 56, 127
2, 88596, Note_on_c, 0, 60, 127
2, 88596, Note_on_c, 8, 68, 127
2, 88787, Note_off_c, 0, 60, 127
2, 88792, Note_on_c, 11, 58, 127
2, 88982, Note_off_c, 8, 68, 127
2, 88983, Note_off_c, 11, 58, 127
2, 88988, Note_on_c, 0, 60, 127
2, 88988, Note_on_c, 3, 75, 127
2, 89179, Note_off_c, 0, 60, 127
2, 89183, Note_on_c, 1, 61, 127
2, 89344, Note_off_c, 3, 75, 127
2, 89374, Note_off_c, 1, 61, 127
2, 89379, Note_on_c, 3, 63, 127
2, 89379, Note_on_c, 0, 72, 127
2, 89569, Note_off_c, 8, 56, 127
2, 89575, Note_on_c, 8, 44, 127
2, 89765, Note_off_c, 0, 72, 127
2, 89766, Note_off_c, 8, 44, 127
2, 89770, Note_on_c, 11, 46, 127
2, 89770, Note_on_c, 8, 68, 127
2, 89961, Note_off_c, 11, 46, 127
2, 89966, Note_on_c, 0, 48, 127
2, 90126, Note_off_c, 8, 68, 127
2, 90152, Note_off_c, 3, 63, 127
2, 90157, Note_off_c, 0, 48, 127
2, 90162, Note_on_c, 1, 49, 127
2, 90162, Note_on_c, 8, 56, 127
2, 90162, Note_on_c, 5, 77, 127
2, 90353, Note_off_c, 1, 49, 127
2, 90357, Note_on_c, 3, 51, 127
2, 90538, Note_off_c, 5, 77, 127
2, 90548, Note_off_c, 3, 51, 127
2, 90553, Note_on_c, 5, 53, 127
2, 90553, Note_on_c, 1, 73, 127
2, 90744, Note_off_c, 5, 53, 127
2, 90748, Note_on_c, 3, 51, 127
2, 90929, Note_off_c, 1, 73, 127
2, 90939, Note_off_c, 3, 51, 127
2, 90940, Note_off_c, 8, 56, 127
2, 90944, Note_on_c, 1, 49, 127
2, 90944, Note_on_c, 7, 55, 127
2, 90944, Note_on_c, 3, 75, 127
2, 91135, Note_off_c, 1, 49, 127
2, 91140, Note_on_c, 0, 48, 127
2, 91331, Note_off_c, 0, 48, 127
2, 91335, Note_on_c, 11, 46, 127
2, 91526, Note_off_c, 11, 46, 127
2, 91531, Note_on_c, 1, 49, 127
2, 91722, Note_off_c, 1, 49, 127
2, 91722, Note_off_c, 7, 55, 127
2, 91727, Note_on_c, 0, 48, 127
2, 91727, Note_on_c, 8, 56, 127
2, 91727, Note_on_c, 3, 63, 127
2, 91918, Note_off_c, 8, 56, 127
2, 91922, Note_on_c, 11, 58, 127
2, 92113, Note_off_c, 11, 58, 127
2, 92113, Note_off_c, 3, 63, 127
2, 92118, Note_on_c, 0, 60, 127
2, 92118, Note_on_c, 8, 68, 127
2, 92309, Note_off_c, 0, 48, 127
2, 92314, Note_on_c, 2, 50, 127
2, 92474, Note_off_c, 8, 68, 127
2, 92504, Note_off_c, 0, 60, 127
2, 92505, Note_off_c, 2, 50, 127
2, 92509, Note_on_c, 3, 51, 127
2, 92509, Note_on_c, 11, 58, 127
2, 92509, Note_on_c, 7, 67, 127
2, 92700, Note_off_c, 3, 51, 127
2, 92705, Note_on_c, 5, 53, 127
2, 92895, Note_off_c, 7, 67, 127
2, 92896, Note_off_c, 5, 53, 127
2, 92900, Note_on_c, 7, 55, 127
2, 92900, Note_on_c, 3, 63, 127
2, 93091, Note_off_c, 11, 58, 127
2, 93096, Note_on_c, 11, 58, 127
2, 93266, Note_off_c, 3, 63, 127
2, 93287, Note_off_c, 11, 58, 127
2, 93287, Note_off_c, 3, 75, 127
2, 93292, Note_on_c, 8, 56, 127
2, 93292, Note_on_c, 0, 72, 127
2, 93292, Note_on_c, 8, 80, 127
2, 93482, Note_off_c, 7, 55, 127
2, 93487, Note_on_c, 7, 55, 127
2, 93668, Note_off_c, 0, 72, 127
2, 93678, Note_off_c, 7, 55, 127
2, 93678, Note_off_c, 8, 56, 127
2, 93683, Note_on_c, 5, 53, 127
2, 93683, Note_on_c, 0, 60, 127
2, 93683, Note_on_c, 8, 68, 127
2, 93874, Note_off_c, 5, 53, 127
2, 93879, Note_on_c, 3, 51, 127
2, 94059, Note_off_c, 8, 68, 127
2, 94069, Note_off_c, 0, 60, 127
2, 94070, Note_off_c, 3, 51, 127
2, 94074, Note_on_c, 2, 50, 127
2, 94074, Note_on_c, 5, 53, 127
2, 94074, Note_on_c, 11, 70, 127
2, 94265, Note_off_c, 2, 50, 127
2, 94270, Note_on_c, 11, 46, 127
2, 94460, Note_off_c, 5, 53, 127
2, 94461, Note_off_c, 11, 46, 127
2, 94466, Note_on_c, 0, 48, 127
2, 94657, Note_off_c, 0, 48, 127
2, 94661, Note_on_c, 2, 50, 127
2, 94852, Note_off_c, 2, 50, 127
2, 94854, Note_off_c, 8, 80, 127
2, 94855, Note_on_c, 3, 51, 127
2, 94855, Note_on_c, 7, 79, 127
2, 95046, Note_off_c, 11, 70, 127
2, 95051, Note_on_c, 3, 63, 127
2, 95242, Note_off_c, 3, 63, 127
2, 95247, Note_on_c, 5, 65, 127
2, 95438, Note_off_c, 5, 65, 127
2, 95442, Note_on_c, 7, 67, 127
2, 95633, Note_off_c, 7, 67, 127
2, 95633, Note_off_c, 7, 79, 127
2, 95638, Note_on_c, 8, 68, 127
2, 95638, Note_on_c, 5, 77, 127
2, 95829, Note_off_c, 8, 68, 127
2, 95834, Note_on_c, 11, 70, 127
2, 96024, Note_off_c, 3, 51, 127
2, 96025, Note_off_c, 11, 70, 127
2, 96029, Note_on_c, 8, 56, 127
2, 96029, Note_on_c, 0, 72, 127
2, 96220, Note_off_c, 0, 72, 127
2, 96225, Note_on_c, 11, 70, 127
2, 96395, Note_off_c, 8, 56, 127
2, 96416, Note_off_c, 11, 70, 127
2, 96421, Note_on_c, 2, 50, 127
2, 96421, Note_on_c, 8, 68, 127
2, 96612, Note_off_c, 8, 68, 127
2, 96616, Note_on_c, 7, 67, 127
2, 96807, Note_off_c, 7, 67, 127
2, 96807, Note_off_c, 2, 50, 127
2, 96812, Note_on_c, 11, 58, 127
2, 96812, Note_on_c, 5, 65, 127
2, 97003, Note_off_c, 5, 65, 127
2, 97007, Note_on_c, 8, 68, 127
2, 97178, Note_off_c, 11, 58, 127
2, 97198, Note_off_c, 8, 68, 127
2, 97203, Note_on_c, 3, 51, 127
2, 97203, Note_on_c, 7, 67, 127
2, 97394, Note_off_c, 5, 77, 127
2, 97399, Note_on_c, 11, 70, 127
2, 97590, Note_off_c, 11, 70, 127
2, 97594, Note_on_c, 0, 72, 127
2, 97785, Note_off_c, 0, 72, 127
2, 97790, Note_on_c, 2, 74, 127
2, 97981, Note_off_c, 2, 74, 127
2, 97986, Note_on_c, 3, 75, 127
2, 98176, Note_off_c, 3, 51, 127
2, 98181, Note_on_c, 3, 51, 127
2, 98372, Note_off_c, 3, 51, 127
2, 98377, Note_on_c, 5, 53, 127
2, 98568, Note_off_c, 5, 53, 127
2, 98573, Note_on_c, 7, 55, 127
2, 98763, Note_off_c, 7, 67, 127
2, 98764, Note_off_c, 7, 55, 127
2, 98768, Note_on_c, 8, 56, 127
2, 98768, Note_on_c, 5, 65, 127
2, 98959, Note_off_c, 8, 56, 127
2, 98964, Note_on_c, 11, 58, 127
2, 99155, Note_off_c, 11, 58, 127
2, 99155, Note_off_c, 3, 75, 127
2, 99159, Note_on_c, 0, 60, 127
2, 99159, Note_on_c, 8, 80, 127
2, 99350, Note_off_c, 0, 60, 127
2, 99355, Note_on_c, 11, 58, 127
2, 99535, Note_off_c, 8, 80, 127
2, 99546, Note_off_c, 11, 58, 127
2, 99551, Note_on_c, 8, 56, 127
2, 99551, Note_on_c, 1, 73, 127
2, 99742, Note_off_c, 8, 56, 127
2, 99746, Note_on_c, 7, 55, 127
2, 99937, Note_off_c, 7, 55, 127
2, 99937, Note_off_c, 1, 73, 127
2, 99942, Note_on_c, 5, 53, 127
2, 99942, Note_on_c, 11, 82, 127
2, 100133, Note_off_c, 5, 53, 127
2, 100138, Note_on_c, 8, 56, 127
2, 100318, Note_off_c, 11, 82, 127
2, 100329, Note_off_c, 8, 56, 127
2, 100330, Note_off_c, 5, 65, 127
2, 100332, Note_on_c, 7, 55, 127
2, 100332, Note_on_c, 1, 73, 127
2, 100526, Note_on_c, 3, 63, 127
2, 100717, Note_off_c, 3, 63, 127
2, 100717, Note_off_c, 7, 55, 127
2, 100722, Note_on_c, 3, 51, 127
2, 100722, Note_on_c, 5, 65, 127
2, 100913, Note_off_c, 5, 65, 127
2, 100917, Note_on_c, 7, 67, 127
2, 101108, Note_off_c, 7, 67, 127
2, 101108, Note_off_c, 1, 73, 127
2, 101113, Note_on_c, 8, 68, 127
2, 101113, Note_on_c, 0, 72, 127
2, 101170, Note_off_c, 3, 51, 127
2, 101309, Note_on_c, 8, 44, 127
2, 101500, Note_off_c, 8, 44, 127
2, 101504, Note_on_c, 11, 46, 127
2, 101695, Note_off_c, 11, 46, 127
2, 101700, Note_on_c, 0, 48, 127
2, 101891, Note_off_c, 0, 48, 127
2, 101891, Note_off_c, 0, 72, 127
2, 101896, Note_on_c, 1, 49, 127
2, 101896, Note_on_c, 11, 70, 127
2, 102087, Note_off_c, 1, 49, 127
2, 102091, Note_on_c, 3, 51, 127
2, 102282, Note_off_c, 3, 51, 127
2, 102287, Note_on_c, 5, 53, 127
2, 102478, Note_off_c, 5, 53, 127
2, 102482, Note_on_c, 3, 51, 127
2, 102673, Note_off_c, 3, 51, 127
2, 102673, Note_off_c, 8, 68, 127
2, 102678, Note_on_c, 1, 49, 127
2, 102678, Note_on_c, 7, 67, 127
2, 102869, Note_off_c, 1, 49, 127
2, 102874, Note_on_c, 0, 48, 127
2, 103065, Note_off_c, 0, 48, 127
2, 103069, Note_on_c, 11, 46, 127
2, 103260, Note_off_c, 11, 46, 127
2, 103265, Note_on_c, 1, 49, 127
2, 103451, Note_off_c, 7, 67, 127
2, 103456, Note_off_c, 1, 49, 127
2, 103456, Note_off_c, 11, 70, 127
2, 103461, Note_on_c, 0, 48, 127
2, 103461, Note_on_c, 8, 68, 127
2, 103850, Note_on_c, 7, 67, 127
2, 104041, Note_off_c, 7, 67, 127
2, 104046, Note_on_c, 5, 65, 127
2, 104237, Note_off_c, 5, 65, 127
2, 104242, Note_on_c, 8, 56, 127
2, 104242, Note_on_c, 3, 63, 127
2, 104433, Note_off_c, 3, 63, 127
2, 104433, Note_off_c, 0, 48, 127
2, 104437, Note_on_c, 1, 49, 127
2, 104437, Note_on_c, 1, 61, 127
2, 104628, Note_off_c, 1, 61, 127
2, 104628, Note_off_c, 1, 49, 127
2, 104628, Note_off_c, 8, 56, 127
2, 104633, Note_on_c, 3, 51, 127
2, 104633, Note_on_c, 3, 63, 127
2, 104633, Note_on_c, 0, 60, 127
2, 104824, Note_off_c, 0, 60, 127
2, 104824, Note_off_c, 3, 51, 127
2, 104829, Note_on_c, 0, 48, 127
2, 104829, Note_on_c, 1, 61, 127
2, 104989, Note_off_c, 3, 63, 127
2, 105020, Note_off_c, 1, 61, 127
2, 105020, Note_off_c, 0, 48, 127
2, 105024, Note_on_c, 5, 53, 127
2, 105024, Note_on_c, 0, 60, 127
2, 105024, Note_on_c, 3, 63, 127
2, 105215, Note_off_c, 8, 68, 127
2, 105220, Note_on_c, 8, 68, 127
2, 105380, Note_off_c, 0, 60, 127
2, 105410, Note_off_c, 3, 63, 127
2, 105411, Note_off_c, 8, 68, 127
2, 105416, Note_on_c, 8, 56, 127
2, 105416, Note_on_c, 11, 70, 127
2, 105607, Note_off_c, 11, 70, 127
2, 105611, Note_on_c, 0, 72, 127
2, 105802, Note_off_c, 0, 72, 127
2, 105802, Note_off_c, 8, 56, 127
2, 105807, Note_on_c, 5, 65, 127
2, 105807, Note_on_c, 1, 73, 127
2, 105997, Note_off_c, 5, 53, 127
2, 106003, Note_on_c, 3, 51, 127
2, 106183, Note_off_c, 5, 65, 127
2, 106194, Note_off_c, 3, 51, 127
2, 106198, Note_on_c, 5, 53, 127
2, 106198, Note_on_c, 1, 61, 127
2, 106389, Note_off_c, 5, 53, 127
2, 106394, Note_on_c, 1, 49, 127
2, 106574, Note_off_c, 1, 61, 127
2, 106585, Note_off_c, 1, 49, 127
2, 106589, Note_on_c, 8, 56, 127
2, 106589, Note_on_c, 3, 63, 127
2, 106589, Note_on_c, 8, 68, 127
2, 106780, Note_off_c, 8, 56, 127
2, 106785, Note_on_c, 7, 55, 127
2, 106785, Note_on_c, 11, 70, 127
2, 106967, Note_off_c, 1, 73, 127
2, 106975, Note_off_c, 8, 68, 127
2, 106976, Note_off_c, 11, 70, 127
2, 106976, Note_off_c, 7, 55, 127
2, 106981, Note_on_c, 8, 56, 127
2, 106981, Note_on_c, 0, 72, 127
2, 107172, Note_off_c, 0, 72, 127
2, 107172, Note_off_c, 8, 56, 127
2, 107176, Note_on_c, 11, 58, 127
2, 107176, Note_on_c, 3, 75, 127
2, 107367, Note_off_c, 3, 75, 127
2, 107367, Note_off_c, 11, 58, 127
2, 107367, Note_off_c, 3, 63, 127
2, 107372, Note_on_c, 0, 60, 127
2, 107372, Note_on_c, 3, 63, 127
2, 107372, Note_on_c, 8, 80, 127
2, 107563, Note_off_c, 8, 80, 127
2, 107568, Note_on_c, 7, 79, 127
2, 107758, Note_off_c, 0, 60, 127
2, 107759, Note_off_c, 7, 79, 127
2, 107763, Note_on_c, 7, 55, 127
2, 107763, Note_on_c, 8, 80, 127
2, 107954, Note_off_c, 8, 80, 127
2, 107959, Note_on_c, 11, 82, 127
2, 108129, Note_off_c, 7, 55, 127
2, 108150, Note_off_c, 11, 82, 127
2, 108155, Note_on_c, 8, 56, 127
2, 108155, Note_on_c, 0, 84, 127
2, 108346, Note_off_c, 0, 84, 127
2, 108350, Note_on_c, 11, 82, 127
2, 108541, Note_off_c, 11, 82, 127
2, 108541, Note_off_c, 8, 56, 127
2, 108546, Note_on_c, 5, 53, 127
2, 108546, Note_on_c, 8, 80, 127
2, 108737, Note_off_c, 8, 80, 127
2, 108741, Note_on_c, 7, 79, 127
2, 108912, Note_off_c, 5, 53, 127
2, 108932, Note_off_c, 7, 79, 127
2, 108932, Note_off_c, 3, 63, 127
2, 108937, Note_on_c, 11, 58, 127
2, 108937, Note_on_c, 1, 61, 127
2, 108937, Note_on_c, 5, 77, 127
2, 109128, Note_off_c, 5, 77, 127
2, 109133, Note_on_c, 7, 79, 127
2, 109323, Note_off_c, 11, 58, 127
2, 109324, Note_off_c, 7, 79, 127
2, 109328, Note_on_c, 5, 53, 127
2, 109328, Note_on_c, 8, 80, 127
2, 109519, Note_off_c, 8, 80, 127
2, 109524, Note_on_c, 0, 84, 127
2, 109694, Note_off_c, 5, 53, 127
2, 109715, Note_off_c, 0, 84, 127
2, 109720, Note_on_c, 7, 55, 127
2, 109720, Note_on_c, 11, 82, 127
2, 109911, Note_off_c, 11, 82, 127
2, 109915, Note_on_c, 8, 80, 127
2, 110106, Note_off_c, 8, 80, 127
2, 110106, Note_off_c, 7, 55, 127
2, 110111, Note_on_c, 3, 51, 127
2, 110111, Note_on_c, 7, 79, 127
2, 110302, Note_off_c, 7, 79, 127
2, 110307, Note_on_c, 5, 77, 127
2, 110477, Note_off_c, 3, 51, 127
2, 110497, Note_off_c, 1, 61, 127
2, 110498, Note_off_c, 5, 77, 127
2, 110502, Note_on_c, 8, 56, 127
2, 110502, Note_on_c, 0, 60, 127
2, 110502, Note_on_c, 3, 75, 127
2, 110693, Note_off_c, 3, 75, 127
2, 110698, Note_on_c, 5, 77, 127
2, 110888, Note_off_c, 8, 56, 127
2, 110889, Note_off_c, 5, 77, 127
2, 110894, Note_on_c, 3, 51, 127
2, 110894, Note_on_c, 7, 79, 127
2, 111085, Note_off_c, 7, 79, 127
2, 111089, Note_on_c, 11, 82, 127
2, 111260, Note_off_c, 3, 51, 127
2, 111280, Note_off_c, 11, 82, 127
2, 111285, Note_on_c, 5, 53, 127
2, 111285, Note_on_c, 8, 80, 127
2, 111476, Note_off_c, 8, 80, 127
2, 111480, Note_on_c, 7, 79, 127
2, 111671, Note_off_c, 7, 79, 127
2, 111671, Note_off_c, 5, 53, 127
2, 111676, Note_on_c, 2, 50, 127
2, 111676, Note_on_c, 5, 77, 127
2, 111867, Note_off_c, 5, 77, 127
2, 111872, Note_on_c, 3, 75, 127
2, 112042, Note_off_c, 2, 50, 127
2, 112062, Note_off_c, 0, 60, 127
2, 112063, Note_off_c, 3, 75, 127
2, 112067, Note_on_c, 7, 55, 127
2, 112067, Note_on_c, 11, 58, 127
2, 112067, Note_on_c, 2, 74, 127
2, 112258, Note_off_c, 2, 74, 127
2, 112263, Note_on_c, 3, 75, 127
2, 112453, Note_off_c, 7, 55, 127
2, 112454, Note_off_c, 3, 75, 127
2, 112459, Note_on_c, 2, 50, 127
2, 112459, Note_on_c, 5, 77, 127
2, 112650, Note_off_c, 5, 77, 127
2, 112654, Note_on_c, 8, 80, 127
2, 112825, Note_off_c, 2, 50, 127
2, 112845, Note_off_c, 8, 80, 127
2, 112850, Note_on_c, 4, 52, 127
2, 112850, Note_on_c, 7, 79, 127
2, 113041, Note_off_c, 7, 79, 127
2, 113046, Note_on_c, 5, 77, 127
2, 113236, Note_off_c, 4, 52, 127
2, 113237, Note_off_c, 5, 77, 127
2, 113241, Note_on_c, 0, 48, 127
2, 113241, Note_on_c, 4, 76, 127
2, 113432, Note_off_c, 4, 76, 127
2, 113437, Note_on_c, 7, 79, 127
2, 113607, Note_off_c, 0, 48, 127
2, 113627, Note_off_c, 11, 58, 127
2, 113628, Note_off_c, 7, 79, 127
2, 113632, Note_on_c, 2, 50, 127
2, 113632, Note_on_c, 8, 56, 127
2, 113632, Note_on_c, 5, 65, 127
2, 113632, Note_on_c, 5, 77, 127
2, 113823, Note_off_c, 5, 77, 127
2, 113828, Note_on_c, 4, 76, 127
2, 114008, Note_off_c, 2, 50, 127
2, 114018, Note_off_c, 5, 65, 127
2, 114018, Note_off_c, 8, 56, 127
2, 114019, Note_off_c, 4, 76, 127
2, 114024, Note_on_c, 4, 52, 127
2, 114024, Note_on_c, 7, 55, 127
2, 114024, Note_on_c, 0, 72, 127
2, 114024, Note_on_c, 5, 77, 127
2, 114215, Note_off_c, 5, 77, 127
2, 114219, Note_on_c, 7, 79, 127
2, 114390, Note_off_c, 0, 72, 127
2, 114400, Note_off_c, 4, 52, 127
2, 114410, Note_off_c, 7, 79, 127
2, 114415, Note_on_c, 5, 53, 127
2, 114415, Note_on_c, 8, 68, 127
2, 114415, Note_on_c, 0, 72, 127
2, 114606, Note_off_c, 7, 55, 127
2, 114611, Note_on_c, 11, 58, 127
2, 114801, Note_off_c, 0, 72, 127
2, 114801, Note_off_c, 8, 68, 127
2, 114802, Note_off_c, 11, 58, 127
2, 114806, Note_on_c, 8, 56, 127
2, 114806, Note_on_c, 5, 65, 127
2, 114806, Note_on_c, 5, 77, 127
2, 114997, Note_off_c, 8, 56, 127
2, 115002, Note_on_c, 7, 55, 127
2, 115172, Note_off_c, 5, 65, 127
2, 115193, Note_off_c, 7, 55, 127
2, 115193, Note_off_c, 5, 53, 127
2, 115198, Note_on_c, 11, 46, 127
2, 115198, Note_on_c, 5, 53, 127
2, 115198, Note_on_c, 1, 73, 127
2, 115389, Note_off_c, 5, 53, 127
2, 115393, Note_on_c, 4, 52, 127
2, 115584, Note_off_c, 4, 52, 127
2, 115584, Note_off_c, 1, 73, 127
2, 115584, Note_off_c, 5, 77, 127
2, 115589, Note_on_c, 5, 53, 127
2, 115589, Note_on_c, 11, 70, 127
2, 115589, Note_on_c, 7, 79, 127
2, 115780, Note_off_c, 7, 79, 127
2, 115780, Note_off_c, 5, 53, 127
2, 115785, Note_on_c, 7, 55, 127
2, 115785, Note_on_c, 4, 76, 127
2, 115975, Note_off_c, 11, 70, 127
2, 115976, Note_off_c, 4, 76, 127
2, 115976, Note_off_c, 7, 55, 127
2, 115976, Note_off_c, 11, 46, 127
2, 115980, Note_on_c, 5, 53, 127
2, 115980, Note_on_c, 8, 56, 127
2, 115980, Note_on_c, 0, 72, 127
2, 115980, Note_on_c, 5, 77, 127
2, 116171, Note_off_c, 5, 77, 127
2, 116171, Note_off_c, 8, 56, 127
2, 116176, Note_on_c, 11, 58, 127
2, 116176, Note_on_c, 4, 76, 127
2, 116366, Note_off_c, 0, 72, 127
2, 116367, Note_off_c, 4, 76, 127
2, 116367, Note_off_c, 11, 58, 127
2, 116371, Note_on_c, 8, 56, 127
2, 116371, Note_on_c, 2, 74, 127
2, 116371, Note_on_c, 5, 77, 127
2, 116562, Note_off_c, 5, 77, 127
2, 116562, Note_off_c, 2, 74, 127
2, 116562, Note_off_c, 8, 56, 127
2, 116567, Note_on_c, 7, 55, 127
2, 116567, Note_on_c, 4, 76, 127
2, 116567, Note_on_c, 7, 79, 127
2, 116753, Note_off_c, 5, 53, 127
2, 116758, Note_off_c, 7, 79, 127
2, 116758, Note_off_c, 4, 76, 127
2, 116758, Note_off_c, 7, 55, 127
2, 116763, Note_on_c, 5, 53, 127
2, 116763, Note_on_c, 5, 77, 127
2, 116763, Note_on_c, 8, 80, 127
2, 116957, Note_on_c, 5, 41, 127
2, 117148, Note_off_c, 5, 41, 127
2, 117148, Note_off_c, 5, 53, 127
2, 117153, Note_on_c, 7, 43, 127
2, 117153, Note_on_c, 0, 72, 127
2, 117344, Note_off_c, 7, 43, 127
2, 117348, Note_on_c, 8, 44, 127
2, 117463, Note_off_c, 5, 77, 127
2, 117539, Note_off_c, 8, 44, 127
2, 117539, Note_off_c, 0, 72, 127
2, 117544, Note_on_c, 11, 46, 127
2, 117544, Note_on_c, 1, 73, 127
2, 117735, Note_off_c, 11, 46, 127
2, 117739, Note_on_c, 8, 44, 127
2, 117930, Note_off_c, 8, 44, 127
2, 117935, Note_on_c, 7, 43, 127
2, 117935, Note_on_c, 11, 70, 127
2, 118126, Note_off_c, 7, 43, 127
2, 118131, Note_on_c, 5, 41, 127
2, 118244, Note_off_c, 1, 73, 127
2, 118322, Note_off_c, 5, 41, 127
2, 118322, Note_off_c, 8, 80, 127
2, 118326, Note_on_c, 3, 39, 127
2, 118326, Note_on_c, 3, 75, 127
2, 118326, Note_on_c, 7, 79, 127
2, 118517, Note_off_c, 3, 39, 127
2, 118522, Note_on_c, 5, 41, 127
2, 118708, Note_off_c, 11, 70, 127
2, 118713, Note_off_c, 5, 41, 127
2, 118718, Note_on_c, 7, 43, 127
2, 118718, Note_on_c, 11, 70, 127
2, 118909, Note_off_c, 7, 43, 127
2, 118913, Note_on_c, 11, 46, 127
2, 119026, Note_off_c, 3, 75, 127
2, 119104, Note_off_c, 11, 46, 127
2, 119104, Note_off_c, 11, 70, 127
2, 119109, Note_on_c, 8, 44, 127
2, 119109, Note_on_c, 0, 72, 127
2, 119300, Note_off_c, 8, 44, 127
2, 119305, Note_on_c, 7, 43, 127
2, 119496, Note_off_c, 7, 43, 127
2, 119500, Note_on_c, 5, 41, 127
2, 119500, Note_on_c, 8, 68, 127
2, 119691, Note_off_c, 5, 41, 127
2, 119696, Note_on_c, 3, 39, 127
2, 119809, Note_off_c, 0, 72, 127
2, 119886, Note_off_c, 7, 79, 127
2, 119887, Note_off_c, 3, 39, 127
2, 119891, Note_on_c, 1, 37, 127
2, 119891, Note_on_c, 1, 73, 127
2, 119891, Note_on_c, 5, 77, 127
2, 120082, Note_off_c, 1, 37, 127
2, 120087, Note_on_c, 3, 39, 127
2, 120273, Note_off_c, 8, 68, 127
2, 120278, Note_off_c, 3, 39, 127
2, 120283, Note_on_c, 5, 41, 127
2, 120283, Note_on_c, 8, 68, 127
2, 120474, Note_off_c, 5, 41, 127
2, 120478, Note_on_c, 8, 44, 127
2, 120591, Note_off_c, 1, 73, 127
2, 120669, Note_off_c, 8, 44, 127
2, 120669, Note_off_c, 8, 68, 127
2, 120674, Note_on_c, 7, 43, 127
2, 120674, Note_on_c, 11, 70, 127
2, 120865, Note_off_c, 11, 70, 127
2, 120870, Note_on_c, 0, 72, 127
2, 121060, Note_off_c, 7, 43, 127
2, 121061, Note_off_c, 0, 72, 127
2, 121065, Note_on_c, 11, 46, 127
2, 121065, Note_on_c, 1, 73, 127
2, 121256, Note_off_c, 1, 73, 127
2, 121261, Note_on_c, 0, 72, 127
2, 121451, Note_off_c, 11, 46, 127
2, 121451, Note_off_c, 5, 77, 127
2, 121452, Note_off_c, 0, 72, 127
2, 121457, Note_on_c, 0, 48, 127
2, 121457, Note_on_c, 11, 70, 127
2, 121457, Note_on_c, 4, 76, 127
2, 121648, Note_off_c, 11, 70, 127
2, 121652, Note_on_c, 8, 68, 127
2, 121843, Note_off_c, 8, 68, 127
2, 121848, Note_on_c, 0, 36, 127
2, 121848, Note_on_c, 7, 67, 127
2, 122039, Note_off_c, 7, 67, 127
2, 122044, Note_on_c, 11, 70, 127
2, 122230, Note_off_c, 0, 48, 127
2, 122234, Note_off_c, 0, 36, 127
2, 122235, Note_off_c, 11, 70, 127
2, 122235, Note_off_c, 4, 76, 127
2, 122239, Note_on_c, 5, 41, 127
2, 122239, Note_on_c, 8, 68, 127
2, 122239, Note_on_c, 5, 77, 127
2, 122433, Note_on_c, 0, 48, 127
2, 122481, Note_off_c, 5, 41, 127
2, 122622, Note_off_c, 0, 48, 127
2, 122628, Note_on_c, 2, 50, 127
2, 122819, Note_off_c, 2, 50, 127
2, 122823, Note_on_c, 4, 52, 127
2, 123009, Note_off_c, 8, 68, 127
2, 123014, Note_off_c, 4, 52, 127
2, 123019, Note_on_c, 5, 53, 127
2, 123209, Note_off_c, 5, 77, 127
2, 123214, Note_on_c, 3, 75, 127
2, 123405, Note_off_c, 3, 75, 127
2, 123410, Note_on_c, 1, 73, 127
2, 123601, Note_off_c, 1, 73, 127
2, 123606, Note_on_c, 0, 72, 127
2, 123797, Note_off_c, 0, 72, 127
2, 123801, Note_on_c, 11, 70, 127
2, 123992, Note_off_c, 11, 70, 127
2, 123997, Note_on_c, 8, 68, 127
2, 124188, Note_off_c, 8, 68, 127
2, 124193, Note_on_c, 11, 58, 127
2, 124193, Note_on_c, 7, 67, 127
2, 124384, Note_off_c, 7, 67, 127
2, 124388, Note_on_c, 8, 68, 127
2, 124579, Note_off_c, 8, 68, 127
2, 124581, Note_off_c, 5, 53, 127
2, 124582, Note_on_c, 4, 52, 127
2, 124582, Note_on_c, 11, 70, 127
2, 124773, Note_off_c, 11, 70, 127
2, 124778, Note_on_c, 1, 73, 127
2, 124965, Note_off_c, 11, 58, 127
2, 124969, Note_off_c, 1, 73, 127
2, 124974, Note_on_c, 0, 60, 127
2, 124974, Note_on_c, 0, 72, 127
2, 125165, Note_off_c, 0, 72, 127
2, 125169, Note_on_c, 11, 70, 127
2, 125355, Note_off_c, 4, 52, 127
2, 125360, Note_off_c, 11, 70, 127
2, 125365, Note_on_c, 3, 51, 127
2, 125365, Note_on_c, 10, 69, 127
2, 125556, Note_off_c, 10, 69, 127
2, 125561, Note_on_c, 0, 72, 127
2, 125747, Note_off_c, 0, 60, 127
2, 125752, Note_off_c, 0, 72, 127
2, 125756, Note_on_c, 10, 57, 127
2, 125756, Note_on_c, 1, 73, 127
2, 125947, Note_off_c, 1, 73, 127
2, 125952, Note_on_c, 3, 75, 127
2, 126138, Note_off_c, 3, 51, 127
2, 126142, Note_off_c, 10, 57, 127
2, 126143, Note_off_c, 3, 75, 127
2, 126148, Note_on_c, 1, 49, 127
2, 126148, Note_on_c, 11, 58, 127
2, 126148, Note_on_c, 5, 77, 127
2, 126339, Note_off_c, 5, 77, 127
2, 126343, Note_on_c, 3, 75, 127
2, 126534, Note_off_c, 3, 75, 127
2, 126534, Note_off_c, 11, 58, 127
2, 126539, Note_on_c, 5, 65, 127
2, 126539, Note_on_c, 1, 73, 127
2, 126730, Note_off_c, 1, 73, 127
2, 126735, Note_on_c, 0, 72, 127
2, 126925, Note_off_c, 5, 65, 127
2, 126926, Note_off_c, 0, 72, 127
2, 126926, Note_off_c, 1, 49, 127
2, 126930, Note_on_c, 6, 54, 127
2, 126930, Note_on_c, 1, 61, 127
2, 126930, Note_on_c, 11, 70, 127
2, 127121, Note_off_c, 11, 70, 127
2, 127126, Note_on_c, 1, 73, 127
2, 127316, Note_off_c, 1, 61, 127
2, 127317, Note_off_c, 1, 73, 127
2, 127321, Note_on_c, 11, 58, 127
2, 127321, Note_on_c, 6, 78, 127
2, 127512, Note_off_c, 6, 78, 127
2, 127517, Note_on_c, 5, 77, 127
2, 127707, Note_off_c, 11, 58, 127
2, 127708, Note_off_c, 5, 77, 127
2, 127713, Note_on_c, 6, 66, 127
2, 127713, Note_on_c, 3, 75, 127
2, 127904, Note_off_c, 3, 75, 127
2, 127908, Note_on_c, 1, 73, 127
2, 128099, Note_off_c, 1, 73, 127
2, 128099, Note_off_c, 6, 66, 127
2, 128099, Note_off_c, 6, 54, 127
2, 128104, Note_on_c, 6, 54, 127
2, 128104, Note_on_c, 3, 63, 127
2, 128104, Note_on_c, 0, 72, 127
2, 128295, Note_off_c, 0, 72, 127
2, 128295, Note_off_c, 6, 54, 127
2, 128300, Note_on_c, 5, 53, 127
2, 128300, Note_on_c, 11, 70, 127
2, 128490, Note_off_c, 3, 63, 127
2, 128491, Note_off_c, 11, 70, 127
2, 128491, Note_off_c, 5, 53, 127
2, 128495, Note_on_c, 3, 51, 127
2, 128495, Note_on_c, 5, 65, 127
2, 128495, Note_on_c, 10, 69, 127
2, 128686, Note_off_c, 3, 51, 127
2, 128691, Note_on_c, 6, 54, 127
2, 128882, Note_off_c, 6, 54, 127
2, 128887, Note_on_c, 5, 53, 127
2, 129078, Note_off_c, 5, 53, 127
2, 129082, Note_on_c, 3, 51, 127
2, 129273, Note_off_c, 3, 51, 127
2, 129273, Note_off_c, 10, 69, 127
2, 129273, Note_off_c, 5, 65, 127
2, 129278, Note_on_c, 1, 49, 127
2, 129278, Note_on_c, 11, 58, 127
2, 129278, Note_on_c, 5, 65, 127
2, 129278, Note_on_c, 11, 70, 127
2, 129469, Note_off_c, 11, 70, 127
2, 129469, Note_off_c, 1, 49, 127
2, 129473, Note_on_c, 0, 48, 127
2, 129473, Note_on_c, 0, 72, 127
2, 129664, Note_off_c, 0, 72, 127
2, 129664, Note_off_c, 0, 48, 127
2, 129664, Note_off_c, 5, 65, 127
2, 129669, Note_on_c, 11, 46, 127
2, 129669, Note_on_c, 11, 70, 127
2, 129669, Note_on_c, 1, 73, 127
2, 129860, Note_off_c, 11, 46, 127
2, 129865, Note_on_c, 1, 49, 127
2, 130055, Note_off_c, 11, 70, 127
2, 130056, Note_off_c, 1, 49, 127
2, 130060, Note_on_c, 3, 51, 127
2, 130060, Note_on_c, 6, 66, 127
2, 130251, Note_off_c, 3, 51, 127
2, 130256, Note_on_c, 5, 53, 127
2, 130446, Note_off_c, 6, 66, 127
2, 130447, Note_off_c, 5, 53, 127
2, 130447, Note_off_c, 1, 73, 127
2, 130452, Note_on_c, 6, 54, 127
2, 130452, Note_on_c, 3, 63, 127
2, 130452, Note_on_c, 0, 72, 127
2, 130643, Note_off_c, 0, 72, 127
2, 130643, Note_off_c, 6, 54, 127
2, 130647, Note_on_c, 3, 51, 127
2, 130647, Note_on_c, 1, 73, 127
2, 130838, Note_off_c, 1, 73, 127
2, 130838, Note_off_c, 3, 51, 127
2, 130838, Note_off_c, 3, 63, 127
2, 130838, Note_off_c, 11, 58, 127
2, 130843, Note_on_c, 5, 53, 127
2, 130843, Note_on_c, 10, 57, 127
2, 130843, Note_on_c, 0, 72, 127
2, 130843, Note_on_c, 3, 75, 127
2, 131034, Note_off_c, 10, 57, 127
2, 131039, Note_on_c, 11, 58, 127
2, 131229, Note_off_c, 0, 72, 127
2, 131230, Note_off_c, 11, 58, 127
2, 131234, Note_on_c, 0, 60, 127
2, 131234, Note_on_c, 10, 69, 127
2, 131425, Note_off_c, 0, 60, 127
2, 131430, Note_on_c, 10, 57, 127
2, 131620, Note_off_c, 10, 69, 127
2, 131621, Note_off_c, 10, 57, 127
2, 131621, Note_off_c, 5, 53, 127
2, 131626, Note_on_c, 11, 46, 127
2, 131626, Note_on_c, 5, 53, 127
2, 131626, Note_on_c, 11, 70, 127
2, 131816, Note_off_c, 3, 75, 127
2, 131821, Note_on_c, 0, 72, 127
2, 132012, Note_off_c, 0, 72, 127
2, 132012, Note_off_c, 5, 53, 127
2, 132017, Note_on_c, 11, 58, 127
2, 132017, Note_on_c, 1, 73, 127
2, 132195, Note_off_c, 11, 46, 127
2, 132206, Note_off_c, 1, 73, 127
2, 132206, Note_off_c, 11, 58, 127
2, 132211, Note_on_c, 0, 60, 127
2, 132211, Note_on_c, 5, 77, 127
2, 132402, Note_off_c, 5, 77, 127
2, 132402, Note_off_c, 0, 60, 127
2, 132407, Note_on_c, 1, 61, 127
2, 132407, Note_on_c, 11, 82, 127
2, 132598, Note_off_c, 11, 70, 127
2, 132602, Note_on_c, 5, 65, 127
2, 132793, Note_off_c, 5, 65, 127
2, 132793, Note_off_c, 11, 82, 127
2, 132798, Note_on_c, 6, 66, 127
2, 132798, Note_on_c, 5, 77, 127
2, 132989, Note_off_c, 6, 66, 127
2, 132994, Note_on_c, 8, 68, 127
2, 133184, Note_off_c, 5, 77, 127
2, 133185, Note_off_c, 8, 68, 127
2, 133189, Note_on_c, 11, 70, 127
2, 133189, Note_on_c, 6, 78, 127
2, 133380, Note_off_c, 11, 70, 127
2, 133385, Note_on_c, 8, 68, 127
2, 133575, Note_off_c, 6, 78, 127
2, 133576, Note_off_c, 8, 68, 127
2, 133580, Note_on_c, 6, 66, 127
2, 133580, Note_on_c, 3, 75, 127
2, 133771, Note_off_c, 6, 66, 127
2, 133776, Note_on_c, 5, 65, 127
2, 133966, Note_off_c, 3, 75, 127
2, 133967, Note_off_c, 5, 65, 127
2, 133967, Note_off_c, 1, 61, 127
2, 133972, Note_on_c, 0, 60, 127
2, 133972, Note_on_c, 3, 63, 127
2, 133972, Note_on_c, 8, 80, 127
2, 134163, Note_off_c, 3, 63, 127
2, 134167, Note_on_c, 5, 65, 127
2, 134358, Note_off_c, 5, 65, 127
2, 134358, Note_off_c, 8, 80, 127
2, 134363, Note_on_c, 6, 66, 127
2, 134363, Note_on_c, 3, 75, 127
2, 134554, Note_off_c, 6, 66, 127
2, 134559, Note_on_c, 11, 70, 127
2, 134749, Note_off_c, 3, 75, 127
2, 134750, Note_off_c, 11, 70, 127
2, 134754, Note_on_c, 8, 68, 127
2, 134754, Note_on_c, 5, 77, 127
2, 134945, Note_off_c, 8, 68, 127
2, 134950, Note_on_c, 6, 66, 127
2, 135140, Note_off_c, 5, 77, 127
2, 135141, Note_off_c, 6, 66, 127
2, 135146, Note_on_c, 5, 65, 127
2, 135146, Note_on_c, 1, 73, 127
2, 135337, Note_off_c, 1, 73, 127
2, 135337, Note_off_c, 5, 65, 127
2, 135341, Note_on_c, 3, 63, 127
2, 135341, Note_on_c, 5, 77, 127
2, 135532, Note_off_c, 5, 77, 127
2, 135532, Note_off_c, 3, 63, 127
2, 135532, Note_off_c, 0, 60, 127
2, 135537, Note_on_c, 11, 58, 127
2, 135537, Note_on_c, 1, 61, 127
2, 135537, Note_on_c, 6, 78, 127
2, 135728, Note_off_c, 1, 61, 127
2, 135732, Note_on_c, 3, 63, 127
2, 135923, Note_off_c, 3, 63, 127
2, 135923, Note_off_c, 6, 78, 127
2, 135928, Note_on_c, 5, 65, 127
2, 135928, Note_on_c, 1, 73, 127
2, 136119, Note_off_c, 5, 65, 127
2, 136124, Note_on_c, 8, 68, 127
2, 136314, Note_off_c, 1, 73, 127
2, 136315, Note_off_c, 8, 68, 127
2, 136319, Note_on_c, 6, 66, 127
2, 136319, Note_on_c, 3, 75, 127
2, 136510, Note_off_c, 6, 66, 127
2, 136515, Note_on_c, 5, 65, 127
2, 136705, Note_off_c, 3, 75, 127
2, 136706, Note_off_c, 5, 65, 127
2, 136711, Note_on_c, 3, 63, 127
2, 136711, Note_on_c, 0, 72, 127
2, 136902, Note_off_c, 3, 63, 127
2, 136906, Note_on_c, 1, 61, 127
2, 137097, Note_off_c, 1, 61, 127
2, 137097, Note_off_c, 0, 72, 127
2, 137097, Note_off_c, 11, 58, 127
2, 137102, Note_on_c, 10, 57, 127
2, 137102, Note_on_c, 0, 60, 127
2, 137102, Note_on_c, 5, 77, 127
2, 137293, Note_off_c, 0, 60, 127
2, 137298, Note_on_c, 1, 61, 127
2, 137488, Note_off_c, 5, 77, 127
2, 137489, Note_off_c, 1, 61, 127
2, 137493, Note_on_c, 3, 63, 127
2, 137493, Note_on_c, 0, 72, 127
2, 137684, Note_off_c, 3, 63, 127
2, 137689, Note_on_c, 6, 66, 127
2, 137879, Note_off_c, 0, 72, 127
2, 137880, Note_off_c, 6, 66, 127
2, 137880, Note_off_c, 10, 57, 127
2, 137885, Note_on_c, 11, 58, 127
2, 137885, Note_on_c, 5, 65, 127
2, 137885, Note_on_c, 1, 73, 127
2, 138076, Note_off_c, 11, 58, 127
2, 138080, Note_on_c, 3, 63, 127
2, 138271, Note_off_c, 3, 63, 127
2, 138276, Note_on_c, 1, 61, 127
2, 138467, Note_off_c, 1, 61, 127
2, 138471, Note_on_c, 0, 60, 127
2, 138662, Note_off_c, 0, 60, 127
2, 138663, Note_off_c, 5, 65, 127
2, 138667, Note_on_c, 11, 58, 127
2, 138667, Note_on_c, 5, 65, 127
2, 138858, Note_off_c, 11, 58, 127
2, 138863, Note_on_c, 8, 56, 127
2, 139053, Note_off_c, 5, 65, 127
2, 139054, Note_off_c, 8, 56, 127
2, 139058, Note_on_c, 7, 55, 127
2, 139058, Note_on_c, 11, 70, 127
2, 139249, Note_off_c, 7, 55, 127
2, 139254, Note_on_c, 5, 53, 127
2, 139444, Note_off_c, 11, 70, 127
2, 139445, Note_off_c, 5, 53, 127
2, 139450, Note_on_c, 3, 51, 127
2, 139450, Note_on_c, 7, 67, 127
2, 139641, Note_off_c, 3, 51, 127
2, 139645, Note_on_c, 1, 61, 127
2, 139836, Note_off_c, 1, 61, 127
2, 139841, Note_on_c, 0, 60, 127
2, 139841, Note_on_c, 3, 63, 127
2, 140032, Note_off_c, 0, 60, 127
2, 140037, Note_on_c, 11, 58, 127
2, 140150, Note_off_c, 7, 67, 127
2, 140228, Note_off_c, 11, 58, 127
2, 140228, Note_off_c, 1, 73, 127
2, 140232, Note_on_c, 8, 56, 127
2, 140232, Note_on_c, 0, 72, 127
2, 140423, Note_off_c, 8, 56, 127
2, 140428, Note_on_c, 7, 55, 127
2, 140618, Note_off_c, 0, 72, 127
2, 140619, Note_off_c, 7, 55, 127
2, 140619, Note_off_c, 3, 63, 127
2, 140623, Note_on_c, 5, 53, 127
2, 140623, Note_on_c, 8, 68, 127
2, 140623, Note_on_c, 5, 77, 127
2, 140814, Note_off_c, 5, 53, 127
2, 140819, Note_on_c, 7, 55, 127
2, 141009, Note_off_c, 5, 77, 127
2, 141009, Note_off_c, 8, 68, 127
2, 141010, Note_off_c, 7, 55, 127
2, 141015, Note_on_c, 8, 56, 127
2, 141015, Note_on_c, 5, 65, 127
2, 141015, Note_on_c, 2, 74, 127
2, 141206, Note_off_c, 8, 56, 127
2, 141210, Note_on_c, 0, 60, 127
2, 141395, Note_off_c, 5, 65, 127
2, 141401, Note_off_c, 0, 60, 127
2, 141401, Note_off_c, 2, 74, 127
2, 141406, Note_on_c, 11, 58, 127
2, 141406, Note_on_c, 2, 62, 127
2, 141406, Note_on_c, 11, 70, 127
2, 141597, Note_off_c, 11, 58, 127
2, 141602, Note_on_c, 8, 56, 127
2, 141772, Note_off_c, 2, 62, 127
2, 141793, Note_off_c, 8, 56, 127
2, 141797, Note_on_c, 7, 55, 127
2, 141797, Note_on_c, 3, 75, 127
2, 141988, Note_off_c, 7, 55, 127
2, 141993, Note_on_c, 5, 53, 127
2, 142106, Note_off_c, 11, 70, 127
2, 142184, Note_off_c, 5, 53, 127
2, 142189, Note_on_c, 3, 51, 127
2, 142189, Note_on_c, 7, 67, 127
2, 142380, Note_off_c, 3, 51, 127
2, 142384, Note_on_c, 1, 49, 127
2, 142575, Note_off_c, 1, 49, 127
2, 142575, Note_off_c, 7, 67, 127
2, 142580, Note_on_c, 0, 48, 127
2, 142580, Note_on_c, 8, 68, 127
2, 142771, Note_off_c, 8, 68, 127
2, 142776, Note_on_c, 11, 70, 127
2, 142966, Note_off_c, 0, 48, 127
2, 142967, Note_off_c, 11, 70, 127
2, 142971, Note_on_c, 8, 56, 127
2, 142971, Note_on_c, 0, 72, 127
2, 143162, Note_off_c, 0, 72, 127
2, 143167, Note_on_c, 11, 70, 127
2, 143357, Note_off_c, 8, 56, 127
2, 143357, Note_off_c, 3, 75, 127
2, 143358, Note_off_c, 11, 70, 127
2, 143362, Note_on_c, 11, 58, 127
2, 143362, Note_on_c, 8, 68, 127
2, 143362, Note_on_c, 2, 74, 127
2, 143553, Note_off_c, 8, 68, 127
2, 143558, Note_on_c, 7, 67, 127
2, 143748, Note_off_c, 11, 58, 127
2, 143749, Note_off_c, 7, 67, 127
2, 143754, Note_on_c, 11, 46, 127
2, 143754, Note_on_c, 5, 65, 127
2, 143945, Note_off_c, 5, 65, 127
2, 143949, Note_on_c, 8, 68, 127
2, 144140, Note_off_c, 8, 68, 127
2, 144140, Note_off_c, 11, 46, 127
2, 144140, Note_off_c, 2, 74, 127
2, 144145, Note_on_c, 3, 51, 127
2, 144145, Note_on_c, 7, 67, 127
2, 144145, Note_on_c, 3, 75, 127
2, 144336, Note_off_c, 7, 67, 127
2, 144341, Note_on_c, 8, 68, 127
2, 144532, Note_off_c, 8, 68, 127
2, 144536, Note_on_c, 11, 70, 127
2, 144727, Note_off_c, 11, 70, 127
2, 144732, Note_on_c, 7, 67, 127
2, 144923, Note_off_c, 7, 67, 127
2, 144928, Note_on_c, 3, 63, 127
2, 145118, Note_off_c, 3, 51, 127
2, 145123, Note_on_c, 5, 53, 127
2, 145314, Note_off_c, 5, 53, 127
2, 145319, Note_on_c, 7, 55, 127
2, 145319, Note_on_c, 11, 70, 127
2, 145510, Note_off_c, 7, 55, 127
2, 145514, Note_on_c, 8, 56, 127
2, 145705, Note_off_c, 8, 56, 127
2, 145705, Note_off_c, 11, 70, 127
2, 145707, Note_off_c, 3, 75, 127
2, 145709, Note_on_c, 11, 58, 127
2, 145709, Note_on_c, 7, 67, 127
2, 145900, Note_off_c, 11, 58, 127
2, 145904, Note_on_c, 0, 60, 127
2, 146028, Note_off_c, 3, 63, 127
2, 146095, Note_off_c, 0, 60, 127
2, 146100, Note_on_c, 1, 61, 127
2, 146100, Note_on_c, 3, 63, 127
2, 146291, Note_off_c, 1, 61, 127
2, 146296, Note_on_c, 0, 60, 127
2, 146482, Note_off_c, 7, 67, 127
2, 146487, Note_off_c, 0, 60, 127
2, 146491, Note_on_c, 11, 58, 127
2, 146491, Note_on_c, 1, 73, 127
2, 146682, Note_off_c, 11, 58, 127
2, 146687, Note_on_c, 8, 56, 127
2, 146873, Note_off_c, 3, 63, 127
2, 146878, Note_off_c, 8, 56, 127
2, 146883, Note_on_c, 7, 55, 127
2, 146883, Note_on_c, 11, 70, 127
2, 147074, Note_off_c, 7, 55, 127
2, 147078, Note_on_c, 11, 58, 127
2, 147264, Note_off_c, 1, 73, 127
2, 147269, Note_off_c, 11, 58, 127
2, 147269, Note_off_c, 11, 70, 127
2, 147274, Note_on_c, 8, 56, 127
2, 147274, Note_on_c, 0, 72, 127
2, 147465, Note_off_c, 8, 56, 127
2, 147469, Note_on_c, 3, 51, 127
2, 147660, Note_off_c, 3, 51, 127
2, 147665, Note_on_c, 5, 53, 127
2, 147856, Note_off_c, 5, 53, 127
2, 147861, Note_on_c, 7, 55, 127
2, 148052, Note_off_c, 7, 55, 127
2, 148056, Note_on_c, 8, 56, 127
2, 148056, Note_on_c, 8, 68, 127
2, 148247, Note_off_c, 8, 56, 127
2, 148252, Note_on_c, 11, 58, 127
2, 148443, Note_off_c, 11, 58, 127
2, 148448, Note_on_c, 0, 60, 127
2, 148448, Note_on_c, 3, 75, 127
2, 148639, Note_off_c, 0, 60, 127
2, 148643, Note_on_c, 1, 61, 127
2, 148834, Note_off_c, 1, 61, 127
2, 148836, Note_off_c, 0, 72, 127
2, 148837, Note_on_c, 3, 63, 127
2, 148837, Note_on_c, 0, 72, 127
2, 149028, Note_off_c, 3, 63, 127
2, 149033, Note_on_c, 5, 65, 127
2, 149156, Note_off_c, 8, 68, 127
2, 149220, Note_off_c, 3, 75, 127
2, 149224, Note_off_c, 5, 65, 127
2, 149229, Note_on_c, 6, 66, 127
2, 149229, Note_on_c, 8, 68, 127
2, 149420, Note_off_c, 6, 66, 127
2, 149424, Note_on_c, 5, 65, 127
2, 149610, Note_off_c, 0, 72, 127
2, 149615, Note_off_c, 5, 65, 127
2, 149615, Note_off_c, 8, 68, 127
2, 149620, Note_on_c, 3, 63, 127
2, 149620, Note_on_c, 0, 72, 127
2, 149620, Note_on_c, 6, 78, 127
2, 149811, Note_off_c, 3, 63, 127
2, 149816, Note_on_c, 1, 61, 127
2, 150007, Note_off_c, 1, 61, 127
2, 150011, Note_on_c, 0, 60, 127
2, 150011, Note_on_c, 3, 75, 127
2, 150202, Note_off_c, 0, 60, 127
2, 150207, Note_on_c, 3, 63, 127
2, 150393, Note_off_c, 0, 72, 127
2, 150398, Note_off_c, 3, 63, 127
2, 150398, Note_off_c, 6, 78, 127
2, 150403, Note_on_c, 1, 61, 127
2, 150403, Note_on_c, 5, 77, 127
2, 150594, Note_off_c, 1, 61, 127
2, 150598, Note_on_c, 3, 63, 127
2, 150789, Note_off_c, 3, 63, 127
2, 150789, Note_off_c, 3, 75, 127
2, 150794, Note_on_c, 5, 65, 127
2, 150794, Note_on_c, 8, 68, 127
2, 150985, Note_off_c, 5, 65, 127
2, 150989, Note_on_c, 3, 63, 127
2, 151180, Note_off_c, 3, 63, 127
2, 151180, Note_off_c, 8, 68, 127
2, 151185, Note_on_c, 1, 61, 127
2, 151185, Note_on_c, 11, 70, 127
2, 151376, Note_off_c, 1, 61, 127
2, 151381, Note_on_c, 0, 60, 127
2, 151572, Note_off_c, 0, 60, 127
2, 151573, Note_off_c, 5, 77, 127
2, 151575, Note_on_c, 11, 58, 127
2, 151575, Note_on_c, 1, 73, 127
2, 151575, Note_on_c, 7, 79, 127
2, 151766, Note_off_c, 11, 58, 127
2, 151771, Note_on_c, 1, 61, 127
2, 151961, Note_off_c, 7, 79, 127
2, 151962, Note_off_c, 1, 61, 127
2, 151966, Note_on_c, 0, 60, 127
2, 151966, Note_on_c, 3, 75, 127
2, 152157, Note_off_c, 0, 60, 127
2, 152162, Note_on_c, 1, 61, 127
2, 152353, Note_off_c, 1, 61, 127
2, 152353, Note_off_c, 1, 73, 127
2, 152354, Note_off_c, 11, 70, 127
2, 152356, Note_on_c, 3, 63, 127
2, 152356, Note_on_c, 7, 67, 127
2, 152547, Note_off_c, 3, 63, 127
2, 152552, Note_on_c, 1, 61, 127
2, 152742, Note_off_c, 7, 67, 127
2, 152743, Note_off_c, 1, 61, 127
2, 152747, Note_on_c, 0, 60, 127
2, 152747, Note_on_c, 10, 69, 127
2, 152938, Note_off_c, 0, 60, 127
2, 152943, Note_on_c, 11, 58, 127
2, 153134, Note_off_c, 11, 58, 127
2, 153135, Note_off_c, 3, 75, 127
2, 153137, Note_on_c, 10, 57, 127
2, 153137, Note_on_c, 0, 72, 127
2, 153137, Note_on_c, 5, 77, 127
2, 153328, Note_off_c, 10, 57, 127
2, 153333, Note_on_c, 0, 60, 127
2, 153519, Note_off_c, 10, 69, 127
2, 153523, Note_off_c, 5, 77, 127
2, 153524, Note_off_c, 0, 60, 127
2, 153528, Note_on_c, 11, 58, 127
2, 153528, Note_on_c, 1, 73, 127
2, 153719, Note_off_c, 11, 58, 127
2, 153724, Note_on_c, 0, 60, 127
2, 153915, Note_off_c, 0, 60, 127
2, 153915, Note_off_c, 0, 72, 127
2, 153920, Note_on_c, 1, 61, 127
2, 153920, Note_on_c, 5, 65, 127
2, 154111, Note_off_c, 1, 61, 127
2, 154115, Note_on_c, 0, 60, 127
2, 154306, Note_off_c, 0, 60, 127
2, 154306, Note_off_c, 5, 65, 127
2, 154306, Note_off_c, 1, 73, 127
2, 154311, Note_on_c, 11, 58, 127
2, 154311, Note_on_c, 11, 70, 127
2, 154311, Note_on_c, 1, 73, 127
2, 154502, Note_off_c, 11, 58, 127
2, 154507, Note_on_c, 8, 56, 127
2, 154697, Note_off_c, 1, 73, 127
2, 154698, Note_off_c, 8, 56, 127
2, 154702, Note_on_c, 7, 55, 127
2, 154702, Note_on_c, 11, 82, 127
2, 154893, Note_off_c, 7, 55, 127
2, 154898, Note_on_c, 11, 58, 127
2, 155088, Note_off_c, 11, 82, 127
2, 155089, Note_off_c, 11, 58, 127
2, 155094, Note_on_c, 8, 56, 127
2, 155094, Note_on_c, 0, 72, 127
2, 155285, Note_off_c, 8, 56, 127
2, 155289, Note_on_c, 11, 58, 127
2, 155480, Note_off_c, 11, 58, 127
2, 155480, Note_off_c, 0, 72, 127
2, 155485, Note_on_c, 8, 56, 127
2, 155485, Note_on_c, 1, 73, 127
2, 155676, Note_off_c, 1, 73, 127
2, 155676, Note_off_c, 8, 56, 127
2, 155676, Note_off_c, 11, 70, 127
2, 155680, Note_on_c, 7, 55, 127
2, 155680, Note_on_c, 11, 70, 127
2, 155871, Note_off_c, 11, 70, 127
2, 155871, Note_off_c, 7, 55, 127
2, 155876, Note_on_c, 5, 53, 127
2, 155876, Note_on_c, 8, 68, 127
2, 155876, Note_on_c, 0, 72, 127
2, 156067, Note_off_c, 5, 53, 127
2, 156072, Note_on_c, 3, 51, 127
2, 156262, Note_off_c, 0, 72, 127
2, 156263, Note_off_c, 3, 51, 127
2, 156267, Note_on_c, 5, 53, 127
2, 156267, Note_on_c, 8, 80, 127
2, 156458, Note_off_c, 5, 53, 127
2, 156463, Note_on_c, 1, 49, 127
2, 156653, Note_off_c, 8, 80, 127
2, 156654, Note_off_c, 1, 49, 127
2, 156659, Note_on_c, 3, 51, 127
2, 156659, Note_on_c, 11, 70, 127
2, 156849, Note_off_c, 8, 68, 127
2, 156850, Note_off_c, 3, 51, 127
2, 156854, Note_on_c, 1, 49, 127
2, 156854, Note_on_c, 7, 67, 127
2, 157045, Note_off_c, 7, 67, 127
2, 157045, Note_off_c, 1, 49, 127
2, 157045, Note_off_c, 11, 70, 127
2, 157050, Note_on_c, 0, 48, 127
2, 157050, Note_on_c, 8, 68, 127
2, 157241, Note_off_c, 8, 68, 127
2, 157241, Note_off_c, 0, 48, 127
2, 157246, Note_on_c, 11, 46, 127
2, 157246, Note_on_c, 11, 70, 127
2, 157437, Note_off_c, 11, 70, 127
2, 157437, Note_off_c, 11, 46, 127
2, 157441, Note_on_c, 8, 44, 127
2, 157441, Note_on_c, 0, 72, 127
2, 157635, Note_on_c, 3, 75, 127
2, 157826, Note_off_c, 3, 75, 127
2, 157826, Note_off_c, 8, 44, 127
2, 157831, Note_on_c, 3, 51, 127
2, 157831, Note_on_c, 5, 77, 127
2, 158022, Note_off_c, 5, 77, 127
2, 158027, Note_on_c, 7, 79, 127
2, 158217, Note_off_c, 3, 51, 127
2, 158218, Note_off_c, 7, 79, 127
2, 158222, Note_on_c, 0, 48, 127
2, 158222, Note_on_c, 8, 80, 127
2, 158413, Note_off_c, 0, 72, 127
2, 158418, Note_on_c, 1, 73, 127
2, 158608, Note_off_c, 0, 48, 127
2, 158609, Note_off_c, 1, 73, 127
2, 158614, Note_on_c, 8, 44, 127
2, 158614, Note_on_c, 3, 75, 127
2, 158805, Note_off_c, 3, 75, 127
2, 158809, Note_on_c, 0, 72, 127
2, 159000, Note_off_c, 0, 72, 127
2, 159000, Note_off_c, 8, 44, 127
2, 159005, Note_on_c, 5, 53, 127
2, 159005, Note_on_c, 1, 73, 127
2, 159195, Note_off_c, 8, 80, 127
2, 159201, Note_on_c, 7, 79, 127
2, 159391, Note_off_c, 5, 53, 127
2, 159392, Note_off_c, 7, 79, 127
2, 159396, Note_on_c, 1, 49, 127
2, 159396, Note_on_c, 5, 77, 127
2, 159587, Note_off_c, 5, 77, 127
2, 159592, Note_on_c, 8, 80, 127
2, 159782, Note_off_c, 1, 49, 127
2, 159783, Note_off_c, 8, 80, 127
2, 159787, Note_on_c, 3, 51, 127
2, 159787, Note_on_c, 7, 79, 127
2, 159978, Note_off_c, 1, 73, 127
2, 159983, Note_on_c, 0, 72, 127
2, 160174, Note_off_c, 0, 72, 127
2, 160179, Note_on_c, 11, 70, 127
2, 160370, Note_off_c, 11, 70, 127
2, 160374, Note_on_c, 1, 73, 127
2, 160565, Note_off_c, 1, 73, 127
2, 160565, Note_off_c, 3, 51, 127
2, 160570, Note_on_c, 4, 52, 127
2, 160570, Note_on_c, 7, 55, 127
2, 160570, Note_on_c, 0, 72, 127
2, 160761, Note_off_c, 4, 52, 127
2, 160766, Note_on_c, 11, 58, 127
2, 160956, Note_off_c, 7, 55, 127
2, 160957, Note_off_c, 11, 58, 127
2, 160961, Note_on_c, 8, 56, 127
2, 160961, Note_on_c, 0, 60, 127
2, 161152, Note_off_c, 8, 56, 127
2, 161157, Note_on_c, 7, 55, 127
2, 161347, Note_off_c, 0, 60, 127
2, 161348, Note_off_c, 7, 55, 127
2, 161353, Note_on_c, 5, 53, 127
2, 161353, Note_on_c, 8, 56, 127
2, 161543, Note_off_c, 0, 72, 127
2, 161548, Note_on_c, 11, 70, 127
2, 161739, Note_off_c, 11, 70, 127
2, 161739, Note_off_c, 8, 56, 127
2, 161739, Note_off_c, 5, 53, 127
2, 161744, Note_on_c, 5, 53, 127
2, 161744, Note_on_c, 8, 68, 127
2, 161935, Note_off_c, 8, 68, 127
2, 161939, Note_on_c, 7, 67, 127
2, 162130, Note_off_c, 7, 67, 127
2, 162135, Note_on_c, 2, 62, 127
2, 162135, Note_on_c, 8, 68, 127
2, 162325, Note_off_c, 7, 79, 127
2, 162331, Note_on_c, 0, 72, 127
2, 162521, Note_off_c, 2, 62, 127
2, 162522, Note_off_c, 0, 72, 127
2, 162526, Note_on_c, 12, 59, 127
2, 162526, Note_on_c, 5, 77, 127
2, 162717, Note_off_c, 8, 68, 127
2, 162722, Note_on_c, 8, 68, 127
2, 162912, Note_off_c, 12, 59, 127
2, 162913, Note_off_c, 8, 68, 127
2, 162914, Note_off_c, 5, 53, 127
2, 162916, Note_on_c, 0, 48, 127
2, 162916, Note_on_c, 0, 60, 127
2, 162916, Note_on_c, 7, 67, 127
2, 163107, Note_off_c, 0, 60, 127
2, 163107, Note_off_c, 5, 77, 127
2, 163112, Note_on_c, 3, 51, 127
2, 163112, Note_on_c, 3, 75, 127
2, 163303, Note_off_c, 3, 75, 127
2, 163303, Note_off_c, 3, 51, 127
2, 163308, Note_on_c, 5, 53, 127
2, 163308, Note_on_c, 1, 73, 127
2, 163499, Note_off_c, 1, 73, 127
2, 163499, Note_off_c, 5, 53, 127
2, 163503, Note_on_c, 7, 55, 127
2, 163503, Note_on_c, 5, 77, 127
2, 163694, Note_off_c, 5, 77, 127
2, 163694, Note_off_c, 7, 55, 127
2, 163694, Note_off_c, 7, 67, 127
2, 163699, Note_on_c, 8, 56, 127
2, 163699, Note_on_c, 3, 63, 127
2, 163699, Note_on_c, 3, 75, 127
2, 163890, Note_off_c, 8, 56, 127
2, 163894, Note_on_c, 11, 58, 127
2, 164085, Note_off_c, 11, 58, 127
2, 164085, Note_off_c, 3, 63, 127
2, 164090, Note_on_c, 0, 60, 127
2, 164090, Note_on_c, 8, 68, 127
2, 164281, Note_off_c, 0, 60, 127
2, 164286, Note_on_c, 11, 58, 127
2, 164476, Note_off_c, 8, 68, 127
2, 164476, Note_off_c, 0, 48, 127
2, 164477, Note_off_c, 11, 58, 127
2, 164481, Note_on_c, 1, 49, 127
2, 164481, Note_on_c, 8, 56, 127
2, 164481, Note_on_c, 5, 65, 127
2, 164672, Note_off_c, 8, 56, 127
2, 164677, Note_on_c, 7, 55, 127
2, 164867, Note_off_c, 5, 65, 127
2, 164868, Note_off_c, 7, 55, 127
2, 164873, Note_on_c, 5, 53, 127
2, 164873, Note_on_c, 1, 61, 127
2, 165064, Note_off_c, 5, 53, 127
2, 165068, Note_on_c, 7, 55, 127
2, 165259, Note_off_c, 7, 55, 127
2, 165259, Note_off_c, 1, 61, 127
2, 165259, Note_off_c, 3, 75, 127
2, 165264, Note_on_c, 8, 56, 127
2, 165264, Note_on_c, 11, 70, 127
2, 165264, Note_on_c, 1, 73, 127
2, 165455, Note_off_c, 8, 56, 127
2, 165460, Note_on_c, 7, 55, 127
2, 165650, Note_off_c, 11, 70, 127
2, 165651, Note_off_c, 7, 55, 127
2, 165655, Note_on_c, 5, 53, 127
2, 165655, Note_on_c, 7, 67, 127
2, 165846, Note_off_c, 5, 53, 127
2, 165851, Note_on_c, 3, 51, 127
2, 166041, Note_off_c, 7, 67, 127
2, 166041, Note_off_c, 1, 49, 127
2, 166042, Note_off_c, 3, 51, 127
2, 166046, Note_on_c, 8, 44, 127
2, 166046, Note_on_c, 5, 53, 127
2, 166046, Note_on_c, 8, 68, 127
2, 166237, Note_off_c, 5, 53, 127
2, 166237, Note_off_c, 1, 73, 127
2, 166242, Note_on_c, 3, 51, 127
2, 166242, Note_on_c, 0, 72, 127
2, 166433, Note_off_c, 0, 72, 127
2, 166433, Note_off_c, 3, 51, 127
2, 166438, Note_on_c, 1, 49, 127
2, 166438, Note_on_c, 11, 70, 127
2, 166629, Note_off_c, 11, 70, 127
2, 166629, Note_off_c, 1, 49, 127
2, 166633, Note_on_c, 5, 53, 127
2, 166633, Note_on_c, 1, 73, 127
2, 166824, Note_off_c, 1, 73, 127
2, 166824, Note_off_c, 5, 53, 127
2, 166829, Note_on_c, 3, 51, 127
2, 166829, Note_on_c, 0, 72, 127
2, 167011, Note_off_c, 3, 51, 127
2, 167019, Note_off_c, 8, 44, 127
2, 167025, Note_on_c, 5, 41, 127
2, 167215, Note_off_c, 0, 72, 127
2, 167216, Note_off_c, 5, 41, 127
2, 167216, Note_off_c, 8, 68, 127
2, 167219, Note_on_c, 7, 43, 127
2, 167219, Note_on_c, 5, 77, 127
2, 167410, Note_off_c, 7, 43, 127
2, 167414, Note_on_c, 8, 44, 127
2, 167605, Note_off_c, 8, 44, 127
2, 167605, Note_off_c, 5, 77, 127
2, 167610, Note_on_c, 11, 46, 127
2, 167610, Note_on_c, 1, 73, 127
2, 167802, Note_off_c, 11, 46, 127
2, 167807, Note_on_c, 0, 48, 127
2, 167999, Note_off_c, 0, 48, 127
2, 168004, Note_on_c, 1, 49, 127
2, 168004, Note_on_c, 11, 70, 127
2, 168196, Note_off_c, 1, 49, 127
2, 168201, Note_on_c, 3, 51, 127
2, 168393, Note_off_c, 3, 51, 127
2, 168393, Note_off_c, 11, 70, 127
2, 168399, Note_on_c, 1, 49, 127
2, 168399, Note_on_c, 6, 78, 127
2, 168591, Note_off_c, 1, 49, 127
2, 168595, Note_off_c, 1, 73, 127
2, 168596, Note_on_c, 0, 48, 127
2, 168788, Note_off_c, 0, 48, 127
2, 168788, Note_off_c, 6, 78, 127
2, 168793, Note_on_c, 11, 46, 127
2, 168793, Note_on_c, 0, 72, 127
2, 168793, Note_on_c, 3, 75, 127
2, 168985, Note_off_c, 11, 46, 127
2, 168990, Note_on_c, 8, 44, 127
2, 169182, Note_off_c, 8, 44, 127
2, 169182, Note_off_c, 3, 75, 127
2, 169182, Note_off_c, 0, 72, 127
2, 169187, Note_on_c, 1, 49, 127
2, 169187, Note_on_c, 3, 75, 127
2, 169187, Note_on_c, 8, 68, 127
2, 169187, Note_on_c, 5, 77, 127
2, 169379, Note_off_c, 1, 49, 127
2, 169384, Note_on_c, 0, 48, 127
2, 169576, Note_off_c, 0, 48, 127
2, 169576, Note_off_c, 3, 75, 127
2, 169581, Note_on_c, 1, 49, 127
2, 169581, Note_on_c, 1, 73, 127
2, 169773, Note_off_c, 1, 49, 127
2, 169778, Note_on_c, 5, 53, 127
2, 169970, Note_off_c, 5, 53, 127
2, 169971, Note_off_c, 5, 77, 127
2, 169975, Note_on_c, 3, 51, 127
2, 169975, Note_on_c, 8, 80, 127
2, 170156, Note_off_c, 1, 73, 127
2, 170167, Note_off_c, 3, 51, 127
2, 170172, Note_off_c, 8, 68, 127
2, 170172, Note_on_c, 2, 50, 127
2, 170364, Note_off_c, 2, 50, 127
2, 170364, Note_off_c, 8, 80, 127
2, 170370, Note_on_c, 0, 48, 127
2, 170370, Note_on_c, 2, 74, 127
2, 170370, Note_on_c, 5, 77, 127
2, 170562, Note_off_c, 0, 48, 127
2, 170567, Note_on_c, 11, 46, 127
2, 170759, Note_off_c, 11, 46, 127
2, 170759, Note_off_c, 5, 77, 127
2, 170759, Note_off_c, 2, 74, 127
2, 170764, Note_on_c, 3, 51, 127
2, 170764, Note_on_c, 5, 77, 127
2, 170764, Note_on_c, 11, 70, 127
2, 170764, Note_on_c, 7, 79, 127
2, 170956, Note_off_c, 3, 51, 127
2, 170961, Note_on_c, 2, 50, 127
2, 171153, Note_off_c, 2, 50, 127
2, 171153, Note_off_c, 5, 77, 127
2, 171158, Note_on_c, 3, 51, 127
2, 171158, Note_on_c, 3, 75, 127
2, 171350, Note_off_c, 3, 51, 127
2, 171355, Note_on_c, 7, 55, 127
2, 171547, Note_off_c, 7, 55, 127
2, 171548, Note_off_c, 7, 79, 127
2, 171552, Note_on_c, 5, 53, 127
2, 171552, Note_on_c, 11, 82, 127
2, 171733, Note_off_c, 3, 75, 127
2, 171744, Note_off_c, 5, 53, 127
2, 171749, Note_off_c, 11, 70, 127
2, 171749, Note_on_c, 4, 52, 127
2, 171941, Note_off_c, 4, 52, 127
2, 171941, Note_off_c, 11, 82, 127
2, 171946, Note_on_c, 2, 50, 127
2, 171946, Note_on_c, 4, 76, 127
2, 171946, Note_on_c, 7, 79, 127
2, 172138, Note_off_c, 2, 50, 127
2, 172143, Note_on_c, 0, 48, 127
2, 172335, Note_off_c, 0, 48, 127
2, 172335, Note_off_c, 7, 79, 127
2, 172335, Note_off_c, 4, 76, 127
2, 172341, Note_on_c, 5, 53, 127
2, 172341, Note_on_c, 5, 77, 127
2, 172341, Note_on_c, 0, 72, 127
2, 172341, Note_on_c, 8, 80, 127
2, 172533, Note_off_c, 5, 53, 127
2, 172538, Note_on_c, 7, 55, 127
2, 172730, Note_off_c, 7, 55, 127
2, 172730, Note_off_c, 8, 80, 127
2, 172730, Note_off_c, 5, 77, 127
2, 172735, Note_on_c, 8, 56, 127
2, 172735, Note_on_c, 5, 77, 127
2, 172927, Note_off_c, 8, 56, 127
2, 172932, Note_on_c, 5, 53, 127
2, 173120, Note_off_c, 0, 72, 127
2, 173124, Note_off_c, 5, 53, 127
2, 173124, Note_off_c, 5, 77, 127
2, 173129, Note_on_c, 11, 58, 127
2, 173129, Note_on_c, 1, 73, 127
2, 173321, Note_off_c, 11, 58, 127
2, 173326, Note_on_c, 8, 56, 127
2, 173518, Note_off_c, 8, 56, 127
2, 173523, Note_on_c, 7, 55, 127
2, 173523, Note_on_c, 11, 70, 127
2, 173715, Note_off_c, 7, 55, 127
2, 173720, Note_on_c, 5, 53, 127
2, 173912, Note_off_c, 5, 53, 127
2, 173917, Note_on_c, 3, 51, 127
2, 173917, Note_on_c, 7, 67, 127
2, 174109, Note_off_c, 3, 51, 127
2, 174114, Note_on_c, 1, 49, 127
2, 174302, Note_off_c, 11, 70, 127
2, 174306, Note_off_c, 1, 49, 127
2, 174306, Note_off_c, 7, 67, 127
2, 174307, Note_off_c, 1, 73, 127
2, 174312, Note_on_c, 0, 48, 127
2, 174312, Note_on_c, 11, 70, 127
2, 174312, Note_on_c, 7, 67, 127
2, 174312, Note_on_c, 3, 75, 127
2, 174504, Note_off_c, 0, 48, 127
2, 174509, Note_on_c, 11, 46, 127
2, 174701, Note_off_c, 11, 46, 127
2, 174701, Note_off_c, 7, 67, 127
2, 174701, Note_off_c, 11, 70, 127
2, 174706, Note_on_c, 8, 44, 127
2, 174706, Note_on_c, 8, 68, 127
2, 174706, Note_on_c, 0, 72, 127
2, 174898, Note_off_c, 8, 44, 127
2, 174903, Note_on_c, 11, 46, 127
2, 175091, Note_off_c, 3, 75, 127
2, 175095, Note_off_c, 11, 46, 127
2, 175095, Note_off_c, 0, 72, 127
2, 175095, Note_off_c, 8, 68, 127
2, 175100, Note_on_c, 0, 48, 127
2, 175100, Note_on_c, 8, 68, 127
2, 175100, Note_on_c, 5, 65, 127
2, 175100, Note_on_c, 5, 77, 127
2, 175292, Note_off_c, 0, 48, 127
2, 175297, Note_on_c, 1, 49, 127
2, 175489, Note_off_c, 1, 49, 127
2, 175489, Note_off_c, 5, 77, 127
2, 175489, Note_off_c, 5, 65, 127
2, 175489, Note_off_c, 8, 68, 127
2, 175494, Note_on_c, 3, 51, 127
2, 175494, Note_on_c, 8, 68, 127
2, 175494, Note_on_c, 3, 63, 127
2, 175494, Note_on_c, 0, 72, 127
2, 175688, Note_off_c, 3, 51, 127
2, 175693, Note_on_c, 1, 49, 127
2, 175887, Note_off_c, 1, 49, 127
2, 175891, Note_on_c, 0, 48, 127
2, 176085, Note_off_c, 0, 48, 127
2, 176090, Note_on_c, 1, 49, 127
2, 176283, Note_off_c, 0, 72, 127
2, 176283, Note_off_c, 3, 63, 127
2, 176284, Note_off_c, 1, 49, 127
2, 176288, Note_on_c, 3, 51, 127
2, 176288, Note_on_c, 1, 61, 127
2, 176288, Note_on_c, 11, 70, 127
2, 176680, Note_off_c, 3, 51, 127
2, 176682, Note_off_c, 8, 68, 127
2, 176684, Note_on_c, 3, 39, 127
2, 176684, Note_on_c, 7, 67, 127
2, 177072, Note_off_c, 1, 61, 127
2, 177076, Note_off_c, 7, 67, 127
2, 177076, Note_off_c, 3, 39, 127
2, 177081, Note_on_c, 5, 41, 127
2, 177081, Note_on_c, 0, 60, 127
2, 177081, Note_on_c, 5, 65, 127
2, 177473, Note_off_c, 11, 70, 127
2, 177478, Note_on_c, 8, 68, 127
2, 177672, Note_off_c, 8, 68, 127
2, 177677, Note_on_c, 7, 67, 127
2, 177871, Note_off_c, 7, 67, 127
2, 177875, Note_on_c, 8, 68, 127
2, 177949, Note_off_c, 5, 65, 127
2, 177949, Note_off_c, 0, 60, 127
2, 177990, Note_off_c, 5, 41, 127
2, 178074, Note_on_c, 3, 39, 127
2, 178267, Note_off_c, 8, 68, 127
2, 178268, Note_off_c, 3, 39, 127
2, 178273, Note_on_c, 5, 41, 127
2, 178273, Note_on_c, 11, 70, 127
2, 178273, Note_on_c, 3, 63, 127
2, 178273, Note_on_c, 3, 75, 127
2, 178467, Note_off_c, 5, 41, 127
2, 178471, Note_on_c, 7, 43, 127
2, 178665, Note_off_c, 7, 43, 127
2, 178665, Note_off_c, 3, 75, 127
2, 178665, Note_off_c, 3, 63, 127
2, 178665, Note_off_c, 11, 70, 127
2, 178670, Note_on_c, 8, 44, 127
2, 178670, Note_on_c, 8, 68, 127
2, 178670, Note_on_c, 3, 63, 127
2, 178670, Note_on_c, 0, 72, 127
2, 178871, Note_off_c, 8, 44, 127
2, 178875, Note_on_c, 11, 46, 127
2, 179076, Note_off_c, 11, 46, 127
2, 179077, Note_off_c, 0, 72, 127
2, 179077, Note_off_c, 8, 68, 127
2, 179081, Note_on_c, 0, 48, 127
2, 179081, Note_on_c, 8, 68, 127
2, 179282, Note_off_c, 0, 48, 127
2, 179287, Note_on_c, 3, 51, 127
2, 179484, Note_off_c, 3, 63, 127
2, 179488, Note_off_c, 3, 51, 127
2, 179493, Note_on_c, 1, 49, 127
2, 179493, Note_on_c, 5, 77, 127
2, 179694, Note_off_c, 1, 49, 127
2, 179699, Note_on_c, 0, 48, 127
2, 179895, Note_off_c, 8, 68, 127
2, 179900, Note_off_c, 0, 48, 127
2, 179900, Note_off_c, 5, 77, 127
2, 179905, Note_on_c, 11, 46, 127
2, 179905, Note_on_c, 11, 70, 127
2, 179905, Note_on_c, 5, 65, 127
2, 179905, Note_on_c, 1, 73, 127
2, 180106, Note_off_c, 11, 46, 127
2, 180111, Note_on_c, 8, 44, 127
2, 180312, Note_off_c, 8, 44, 127
2, 180312, Note_off_c, 1, 73, 127
2, 180312, Note_off_c, 5, 65, 127
2, 180312, Note_off_c, 11, 70, 127
2, 180317, Note_on_c, 7, 43, 127
2, 180317, Note_on_c, 11, 70, 127
2, 180317, Note_on_c, 3, 63, 127
2, 180317, Note_on_c, 3, 75, 127
2, 180528, Note_off_c, 7, 43, 127
2, 180533, Note_on_c, 5, 41, 127
2, 180744, Note_off_c, 5, 41, 127
2, 180749, Note_on_c, 3, 39, 127
2, 180749, Note_on_c, 7, 67, 127
2, 180960, Note_off_c, 3, 39, 127
2, 180965, Note_on_c, 1, 37, 127
2, 181172, Note_off_c, 11, 70, 127
2, 181176, Note_off_c, 1, 37, 127
2, 181176, Note_off_c, 7, 67, 127
2, 181181, Note_on_c, 0, 36, 127
2, 181181, Note_on_c, 8, 68, 127
2, 181392, Note_off_c, 0, 36, 127
2, 181397, Note_on_c, 3, 39, 127
2, 181608, Note_off_c, 3, 39, 127
2, 181609, Note_off_c, 3, 63, 127
2, 181612, Note_off_c, 3, 75, 127
2, 181614, Note_on_c, 1, 37, 127
2, 181614, Note_on_c, 5, 65, 127
2, 181614, Note_on_c, 11, 58, 127
2, 181825, Note_off_c, 1, 37, 127
2, 181831, Note_on_c, 5, 41, 127
2, 182041, Note_off_c, 11, 58, 127
2, 182041, Note_off_c, 5, 65, 127
2, 182042, Note_off_c, 5, 41, 127
2, 182047, Note_on_c, 3, 39, 127
2, 182047, Note_on_c, 11, 58, 127
2, 182276, Note_on_c, 0, 60, 127
2, 182500, Note_off_c, 0, 60, 127
2, 182505, Note_on_c, 1, 61, 127
2, 182729, Note_off_c, 1, 61, 127
2, 182734, Note_on_c, 5, 65, 127
2, 182955, Note_off_c, 11, 58, 127
2, 182958, Note_off_c, 5, 65, 127
2, 182959, Note_off_c, 3, 39, 127
2, 182959, Note_off_c, 8, 68, 127
2, 182963, Note_on_c, 3, 51, 127
2, 182963, Note_on_c, 3, 63, 127
2, 182963, Note_on_c, 7, 67, 127
2, 183225, Note_on_c, 1, 61, 127
2, 183480, Note_off_c, 1, 61, 127
2, 183486, Note_on_c, 0, 60, 127
2, 183741, Note_off_c, 0, 60, 127
2, 183748, Note_on_c, 1, 61, 127
2, 183996, Note_off_c, 3, 63, 127
2, 184002, Note_off_c, 7, 67, 127
2, 184002, Note_off_c, 3, 51, 127
2, 184003, Note_off_c, 1, 61, 127
2, 184009, Note_on_c, 8, 44, 127
2, 184009, Note_on_c, 3, 51, 127
2, 184009, Note_on_c, 0, 60, 127
2, 184009, Note_on_c, 8, 68, 127
2, 187666, Note_off_c, 8, 68, 127
2, 187666, Note_off_c, 0, 60, 127
2, 187666, Note_off_c, 3, 51, 127
2, 187666, Note_off_c, 8, 44, 127
2, 192000, End_track
3, 0, Start_track
3, 0, Title_t, "MIDI"
3, 1536, End_track
0, 0, End_of_file
