0, 0, Header, 1, 3, 384
1, 0, Start_track
1, 0, Time_signature, 4, 2, 24, 8
1, 0, Tempo, 500000
1, 238080, End_track
2, 0, Start_track
2, 0, Text_t, "harpsichord: John Sankey"
2, 0, Program_c, 0, 6
2, 0, Pitch_bend_c, 0, 8192
2, 0, Program_c, 1, 6
2, 0, Pitch_bend_c, 1, 7792
2, 0, Program_c, 2, 6
2, 0, Pitch_bend_c, 2, 7876
2, 0, Program_c, 3, 6
2, 0, Pitch_bend_c, 3, 7952
2, 0, Program_c, 4, 6
2, 0, Pitch_bend_c, 4, 7792
2, 0, Program_c, 5, 6
2, 0, Pitch_bend_c, 5, 8112
2, 0, Program_c, 6, 6
2, 0, Pitch_bend_c, 6, 7712
2, 0, Program_c, 7, 6
2, 0, Pitch_bend_c, 7, 8037
2, 0, Program_c, 8, 6
2, 0, Pitch_bend_c, 8, 7872
2, 0, Program_c, 10, 6
2, 0, Pitch_bend_c, 10, 7712
2, 0, Program_c, 11, 6
2, 0, Pitch_bend_c, 11, 8032
2, 0, Program_c, 12, 6
2, 0, Pitch_bend_c, 12, 7872
2, 0, Title_t, "Track 1"
2, 0, Note_on_c, 4, 52, 127
2, 337, Note_on_c, 12, 71, 127
2, 673, Note_off_c, 12, 71, 127
2, 675, Note_on_c, 1, 73, 127
2, 1013, Note_on_c, 8, 68, 127
2, 1349, Note_off_c, 8, 68, 127
2, 1351, Note_on_c, 10, 69, 127
2, 1519, Note_off_c, 1, 73, 127
2, 1520, Note_on_c, 1, 73, 127
2, 1687, Note_off_c, 1, 73, 127
2, 1689, Note_on_c, 12, 71, 127
2, 1843, Note_off_c, 10, 69, 127
2, 1856, Note_off_c, 12, 71, 127
2, 1858, Note_on_c, 10, 69, 127
2, 2025, Note_off_c, 10, 69, 127
2, 2027, Note_on_c, 12, 71, 127
2, 2196, Note_on_c, 10, 69, 127
2, 2363, Note_off_c, 10, 69, 127
2, 2365, Note_on_c, 8, 68, 127
2, 2532, Note_off_c, 8, 68, 127
2, 2534, Note_on_c, 6, 66, 127
2, 2701, Note_off_c, 6, 66, 127
2, 2703, Note_on_c, 8, 68, 127
2, 2871, Note_off_c, 12, 71, 127
2, 2872, Note_on_c, 12, 71, 127
2, 3039, Note_off_c, 12, 71, 127
2, 3041, Note_on_c, 4, 76, 127
2, 3208, Note_off_c, 4, 76, 127
2, 3210, Note_on_c, 3, 75, 127
2, 3377, Note_off_c, 3, 75, 127
2, 3379, Note_on_c, 1, 73, 127
2, 3546, Note_off_c, 1, 73, 127
2, 3548, Note_on_c, 12, 71, 127
2, 3715, Note_off_c, 12, 71, 127
2, 3715, Note_off_c, 8, 68, 127
2, 3717, Note_on_c, 10, 69, 127
2, 3884, Note_off_c, 10, 69, 127
2, 3886, Note_on_c, 8, 68, 127
2, 4053, Note_off_c, 8, 68, 127
2, 4055, Note_on_c, 10, 69, 127
2, 4224, Note_on_c, 8, 68, 127
2, 4391, Note_off_c, 8, 68, 127
2, 4392, Note_on_c, 6, 66, 127
2, 4559, Note_off_c, 6, 66, 127
2, 4561, Note_on_c, 4, 64, 127
2, 4728, Note_off_c, 4, 64, 127
2, 4730, Note_on_c, 6, 66, 127
2, 4898, Note_off_c, 4, 52, 127
2, 4899, Note_on_c, 4, 52, 127
2, 5066, Note_off_c, 4, 52, 127
2, 5068, Note_on_c, 3, 51, 127
2, 5235, Note_off_c, 3, 51, 127
2, 5237, Note_on_c, 1, 49, 127
2, 5404, Note_off_c, 1, 49, 127
2, 5406, Note_on_c, 3, 51, 127
2, 5573, Note_off_c, 3, 51, 127
2, 5575, Note_on_c, 6, 54, 127
2, 5742, Note_off_c, 6, 54, 127
2, 5744, Note_on_c, 12, 47, 127
2, 5911, Note_off_c, 12, 47, 127
2, 5913, Note_on_c, 3, 51, 127
2, 6080, Note_off_c, 3, 51, 127
2, 6082, Note_on_c, 4, 52, 127
2, 6237, Note_off_c, 10, 69, 127
2, 6251, Note_on_c, 10, 69, 127
2, 6418, Note_off_c, 10, 69, 127
2, 6418, Note_off_c, 4, 52, 127
2, 6419, Note_off_c, 6, 66, 127
2, 6420, Note_on_c, 4, 40, 127
2, 6420, Note_on_c, 8, 68, 127
2, 6587, Note_off_c, 8, 68, 127
2, 6589, Note_on_c, 6, 66, 127
2, 6756, Note_off_c, 6, 66, 127
2, 6756, Note_off_c, 4, 40, 127
2, 6758, Note_on_c, 4, 52, 127
2, 6758, Note_on_c, 8, 68, 127
2, 6927, Note_on_c, 6, 66, 127
2, 7094, Note_off_c, 6, 66, 127
2, 7094, Note_off_c, 4, 52, 127
2, 7096, Note_on_c, 6, 54, 127
2, 7096, Note_on_c, 4, 64, 127
2, 7263, Note_off_c, 4, 64, 127
2, 7265, Note_on_c, 3, 63, 127
2, 7432, Note_off_c, 3, 63, 127
2, 7432, Note_off_c, 6, 54, 127
2, 7434, Note_on_c, 8, 56, 127
2, 7434, Note_on_c, 4, 64, 127
2, 7602, Note_off_c, 8, 68, 127
2, 7603, Note_on_c, 8, 68, 127
2, 7768, Note_off_c, 4, 64, 127
2, 7770, Note_off_c, 8, 68, 127
2, 7770, Note_off_c, 8, 56, 127
2, 7772, Note_on_c, 10, 57, 127
2, 7772, Note_on_c, 6, 66, 127
2, 7939, Note_off_c, 6, 66, 127
2, 7941, Note_on_c, 4, 64, 127
2, 8108, Note_off_c, 4, 64, 127
2, 8108, Note_off_c, 10, 57, 127
2, 8110, Note_on_c, 12, 59, 127
2, 8110, Note_on_c, 3, 63, 127
2, 8446, Note_off_c, 3, 63, 127
2, 8448, Note_on_c, 6, 66, 127
2, 8784, Note_off_c, 6, 66, 127
2, 8785, Note_on_c, 8, 68, 127
2, 9123, Note_on_c, 3, 75, 127
2, 9459, Note_off_c, 3, 75, 127
2, 9461, Note_on_c, 4, 76, 127
2, 9629, Note_off_c, 8, 68, 127
2, 9630, Note_on_c, 8, 68, 127
2, 9797, Note_off_c, 8, 68, 127
2, 9799, Note_on_c, 6, 66, 127
2, 9966, Note_off_c, 6, 66, 127
2, 9968, Note_on_c, 4, 64, 127
2, 10135, Note_off_c, 4, 64, 127
2, 10137, Note_on_c, 6, 66, 127
2, 10305, Note_off_c, 4, 76, 127
2, 10306, Note_on_c, 4, 76, 127
2, 10473, Note_off_c, 4, 76, 127
2, 10475, Note_on_c, 3, 75, 127
2, 10642, Note_off_c, 3, 75, 127
2, 10644, Note_on_c, 1, 73, 127
2, 10811, Note_off_c, 1, 73, 127
2, 10813, Note_on_c, 3, 75, 127
2, 10981, Note_off_c, 6, 66, 127
2, 10982, Note_on_c, 6, 66, 127
2, 11149, Note_off_c, 6, 66, 127
2, 11151, Note_on_c, 12, 71, 127
2, 11318, Note_off_c, 12, 71, 127
2, 11320, Note_on_c, 10, 69, 127
2, 11487, Note_off_c, 10, 69, 127
2, 11489, Note_on_c, 8, 68, 127
2, 11656, Note_off_c, 8, 68, 127
2, 11658, Note_on_c, 6, 66, 127
2, 11825, Note_off_c, 6, 66, 127
2, 11827, Note_on_c, 4, 64, 127
2, 11994, Note_off_c, 4, 64, 127
2, 11996, Note_on_c, 3, 63, 127
2, 12163, Note_off_c, 3, 63, 127
2, 12165, Note_on_c, 4, 64, 127
2, 12323, Note_off_c, 3, 75, 127
2, 12334, Note_on_c, 3, 75, 127
2, 12501, Note_off_c, 3, 75, 127
2, 12503, Note_on_c, 1, 73, 127
2, 12670, Note_off_c, 1, 73, 127
2, 12672, Note_on_c, 12, 71, 127
2, 12839, Note_off_c, 12, 71, 127
2, 12840, Note_on_c, 1, 73, 127
2, 13008, Note_off_c, 12, 59, 127
2, 13009, Note_on_c, 12, 59, 127
2, 13176, Note_off_c, 12, 59, 127
2, 13178, Note_on_c, 11, 58, 127
2, 13345, Note_off_c, 11, 58, 127
2, 13347, Note_on_c, 8, 56, 127
2, 13514, Note_off_c, 8, 56, 127
2, 13516, Note_on_c, 11, 58, 127
2, 13683, Note_off_c, 11, 58, 127
2, 13685, Note_on_c, 1, 61, 127
2, 13852, Note_off_c, 1, 61, 127
2, 13854, Note_on_c, 6, 54, 127
2, 14021, Note_off_c, 6, 54, 127
2, 14023, Note_on_c, 11, 58, 127
2, 14190, Note_off_c, 11, 58, 127
2, 14192, Note_on_c, 12, 59, 127
2, 14347, Note_off_c, 4, 64, 127
2, 14361, Note_on_c, 4, 64, 127
2, 14528, Note_off_c, 4, 64, 127
2, 14530, Note_on_c, 3, 63, 127
2, 14697, Note_off_c, 3, 63, 127
2, 14699, Note_on_c, 1, 61, 127
2, 14866, Note_off_c, 1, 61, 127
2, 14868, Note_on_c, 3, 63, 127
2, 15022, Note_off_c, 1, 73, 127
2, 15037, Note_on_c, 1, 73, 127
2, 15204, Note_off_c, 1, 73, 127
2, 15206, Note_on_c, 12, 71, 127
2, 15373, Note_off_c, 12, 71, 127
2, 15375, Note_on_c, 11, 70, 127
2, 15542, Note_off_c, 11, 70, 127
2, 15544, Note_on_c, 12, 71, 127
2, 15710, Note_off_c, 12, 59, 127
2, 15713, Note_on_c, 1, 61, 127
2, 15880, Note_off_c, 1, 61, 127
2, 15882, Note_on_c, 12, 59, 127
2, 16049, Note_off_c, 12, 59, 127
2, 16051, Note_on_c, 10, 57, 127
2, 16217, Note_off_c, 3, 63, 127
2, 16218, Note_off_c, 10, 57, 127
2, 16220, Note_on_c, 8, 56, 127
2, 16387, Note_off_c, 12, 71, 127
2, 16389, Note_on_c, 10, 69, 127
2, 16556, Note_off_c, 10, 69, 127
2, 16558, Note_on_c, 10, 57, 127
2, 16558, Note_on_c, 8, 68, 127
2, 16725, Note_off_c, 8, 68, 127
2, 16727, Note_on_c, 6, 66, 127
2, 16894, Note_off_c, 6, 66, 127
2, 16894, Note_off_c, 10, 57, 127
2, 16896, Note_on_c, 12, 59, 127
2, 16896, Note_on_c, 5, 65, 127
2, 17063, Note_off_c, 5, 65, 127
2, 17064, Note_on_c, 8, 68, 127
2, 17231, Note_off_c, 8, 68, 127
2, 17232, Note_off_c, 12, 59, 127
2, 17233, Note_on_c, 2, 62, 127
2, 17233, Note_on_c, 12, 71, 127
2, 17400, Note_off_c, 12, 71, 127
2, 17400, Note_off_c, 2, 62, 127
2, 17402, Note_on_c, 5, 65, 127
2, 17402, Note_on_c, 2, 74, 127
2, 17569, Note_off_c, 5, 65, 127
2, 17571, Note_on_c, 6, 66, 127
2, 17738, Note_off_c, 2, 74, 127
2, 17740, Note_on_c, 2, 74, 127
2, 17907, Note_off_c, 2, 74, 127
2, 17907, Note_off_c, 6, 66, 127
2, 17909, Note_on_c, 5, 65, 127
2, 17909, Note_on_c, 1, 73, 127
2, 18076, Note_off_c, 1, 73, 127
2, 18078, Note_on_c, 12, 71, 127
2, 18244, Note_off_c, 8, 56, 127
2, 18247, Note_on_c, 6, 54, 127
2, 18401, Note_off_c, 5, 65, 127
2, 18414, Note_off_c, 12, 71, 127
2, 18416, Note_on_c, 10, 69, 127
2, 18583, Note_off_c, 10, 69, 127
2, 18585, Note_on_c, 5, 65, 127
2, 18585, Note_on_c, 8, 68, 127
2, 18752, Note_off_c, 8, 68, 127
2, 18754, Note_on_c, 12, 71, 127
2, 18921, Note_off_c, 12, 71, 127
2, 18921, Note_off_c, 5, 65, 127
2, 18923, Note_on_c, 6, 66, 127
2, 18923, Note_on_c, 10, 69, 127
2, 19090, Note_off_c, 10, 69, 127
2, 19092, Note_on_c, 1, 73, 127
2, 19259, Note_off_c, 1, 73, 127
2, 19259, Note_off_c, 6, 66, 127
2, 19261, Note_on_c, 4, 64, 127
2, 19261, Note_on_c, 6, 78, 127
2, 19428, Note_off_c, 6, 78, 127
2, 19430, Note_on_c, 10, 81, 127
2, 19597, Note_off_c, 4, 64, 127
2, 19599, Note_on_c, 3, 63, 127
2, 19766, Note_off_c, 10, 81, 127
2, 19768, Note_on_c, 6, 78, 127
2, 19935, Note_off_c, 6, 78, 127
2, 19935, Note_off_c, 3, 63, 127
2, 19937, Note_on_c, 1, 61, 127
2, 19937, Note_on_c, 8, 80, 127
2, 20104, Note_off_c, 8, 80, 127
2, 20106, Note_on_c, 10, 81, 127
2, 20271, Note_off_c, 1, 61, 127
2, 20273, Note_off_c, 10, 81, 127
2, 20275, Note_on_c, 3, 63, 127
2, 20275, Note_on_c, 0, 72, 127
2, 20429, Note_off_c, 6, 54, 127
2, 20444, Note_on_c, 4, 52, 127
2, 20611, Note_off_c, 4, 52, 127
2, 20611, Note_off_c, 0, 72, 127
2, 20611, Note_off_c, 3, 63, 127
2, 20613, Note_on_c, 3, 51, 127
2, 20613, Note_on_c, 4, 64, 127
2, 20613, Note_on_c, 1, 73, 127
2, 20780, Note_off_c, 3, 51, 127
2, 20782, Note_on_c, 1, 49, 127
2, 20949, Note_off_c, 1, 49, 127
2, 20949, Note_off_c, 1, 73, 127
2, 20949, Note_off_c, 4, 64, 127
2, 20951, Note_on_c, 0, 48, 127
2, 20951, Note_on_c, 6, 66, 127
2, 20951, Note_on_c, 3, 75, 127
2, 21118, Note_off_c, 0, 48, 127
2, 21120, Note_on_c, 3, 51, 127
2, 21287, Note_off_c, 3, 51, 127
2, 21287, Note_off_c, 6, 66, 127
2, 21288, Note_on_c, 6, 54, 127
2, 21288, Note_on_c, 10, 69, 127
2, 21455, Note_off_c, 10, 69, 127
2, 21455, Note_off_c, 6, 54, 127
2, 21457, Note_on_c, 10, 57, 127
2, 21457, Note_on_c, 0, 72, 127
2, 21619, Note_off_c, 3, 75, 127
2, 21624, Note_off_c, 0, 72, 127
2, 21626, Note_on_c, 1, 73, 127
2, 21793, Note_off_c, 10, 57, 127
2, 21795, Note_on_c, 10, 57, 127
2, 21962, Note_off_c, 10, 57, 127
2, 21962, Note_off_c, 1, 73, 127
2, 21964, Note_on_c, 8, 56, 127
2, 21964, Note_on_c, 0, 72, 127
2, 22131, Note_off_c, 8, 56, 127
2, 22133, Note_on_c, 6, 54, 127
2, 22300, Note_off_c, 6, 54, 127
2, 22300, Note_off_c, 0, 72, 127
2, 22302, Note_on_c, 4, 52, 127
2, 22302, Note_on_c, 1, 73, 127
2, 22469, Note_off_c, 4, 52, 127
2, 22471, Note_on_c, 3, 51, 127
2, 22638, Note_off_c, 3, 51, 127
2, 22640, Note_on_c, 1, 49, 127
2, 22640, Note_on_c, 8, 68, 127
2, 22807, Note_off_c, 1, 49, 127
2, 22809, Note_on_c, 6, 54, 127
2, 22970, Note_off_c, 1, 73, 127
2, 22976, Note_off_c, 6, 54, 127
2, 22976, Note_off_c, 8, 68, 127
2, 22978, Note_on_c, 4, 52, 127
2, 22978, Note_on_c, 1, 73, 127
2, 23145, Note_off_c, 4, 52, 127
2, 23147, Note_on_c, 8, 56, 127
2, 23314, Note_off_c, 8, 56, 127
2, 23314, Note_off_c, 1, 73, 127
2, 23316, Note_on_c, 1, 61, 127
2, 23316, Note_on_c, 4, 76, 127
2, 23483, Note_off_c, 1, 61, 127
2, 23485, Note_on_c, 4, 64, 127
2, 23652, Note_off_c, 4, 76, 127
2, 23654, Note_on_c, 11, 70, 127
2, 23654, Note_on_c, 7, 67, 127
2, 23821, Note_off_c, 4, 64, 127
2, 23823, Note_on_c, 1, 61, 127
2, 23990, Note_off_c, 1, 61, 127
2, 23990, Note_off_c, 11, 70, 127
2, 23992, Note_on_c, 3, 63, 127
2, 23992, Note_on_c, 12, 71, 127
2, 24159, Note_off_c, 12, 71, 127
2, 24159, Note_off_c, 3, 63, 127
2, 24161, Note_on_c, 4, 64, 127
2, 24161, Note_on_c, 1, 73, 127
2, 24322, Note_off_c, 7, 67, 127
2, 24328, Note_off_c, 4, 64, 127
2, 24330, Note_on_c, 11, 58, 127
2, 24330, Note_on_c, 6, 66, 127
2, 24354, Note_off_c, 1, 73, 127
2, 24497, Note_off_c, 6, 66, 127
2, 24499, Note_on_c, 5, 65, 127
2, 24666, Note_off_c, 5, 65, 127
2, 24666, Note_off_c, 11, 58, 127
2, 24668, Note_on_c, 1, 61, 127
2, 24668, Note_on_c, 6, 66, 127
2, 24835, Note_off_c, 6, 66, 127
2, 24837, Note_on_c, 8, 68, 127
2, 25004, Note_off_c, 8, 68, 127
2, 25004, Note_off_c, 1, 61, 127
2, 25006, Note_on_c, 6, 66, 127
2, 25006, Note_on_c, 11, 70, 127
2, 25173, Note_off_c, 11, 70, 127
2, 25175, Note_on_c, 12, 71, 127
2, 25342, Note_off_c, 12, 71, 127
2, 25342, Note_off_c, 6, 66, 127
2, 25344, Note_on_c, 1, 61, 127
2, 25344, Note_on_c, 1, 73, 127
2, 25511, Note_off_c, 1, 73, 127
2, 25512, Note_on_c, 3, 75, 127
2, 25679, Note_off_c, 3, 75, 127
2, 25680, Note_off_c, 1, 61, 127
2, 25681, Note_on_c, 11, 58, 127
2, 25681, Note_on_c, 4, 76, 127
2, 25848, Note_off_c, 4, 76, 127
2, 25850, Note_on_c, 3, 75, 127
2, 26017, Note_off_c, 3, 75, 127
2, 26017, Note_off_c, 11, 58, 127
2, 26019, Note_on_c, 6, 54, 127
2, 26019, Note_on_c, 4, 76, 127
2, 26186, Note_off_c, 4, 76, 127
2, 26188, Note_on_c, 1, 73, 127
2, 26355, Note_off_c, 1, 73, 127
2, 26355, Note_off_c, 6, 54, 127
2, 26357, Note_on_c, 12, 59, 127
2, 26357, Note_on_c, 3, 75, 127
2, 26524, Note_off_c, 12, 59, 127
2, 26526, Note_on_c, 11, 58, 127
2, 26693, Note_off_c, 11, 58, 127
2, 26695, Note_on_c, 12, 59, 127
2, 26864, Note_on_c, 1, 61, 127
2, 27031, Note_off_c, 1, 61, 127
2, 27033, Note_on_c, 3, 63, 127
2, 27200, Note_off_c, 3, 63, 127
2, 27202, Note_on_c, 4, 64, 127
2, 27369, Note_off_c, 4, 64, 127
2, 27371, Note_on_c, 6, 66, 127
2, 27538, Note_off_c, 6, 66, 127
2, 27540, Note_on_c, 8, 68, 127
2, 27707, Note_off_c, 8, 68, 127
2, 27707, Note_off_c, 12, 59, 127
2, 27709, Note_on_c, 10, 69, 127
2, 27876, Note_off_c, 10, 69, 127
2, 27878, Note_on_c, 8, 68, 127
2, 28045, Note_off_c, 8, 68, 127
2, 28047, Note_on_c, 10, 69, 127
2, 28214, Note_off_c, 10, 69, 127
2, 28216, Note_on_c, 6, 66, 127
2, 28383, Note_off_c, 6, 66, 127
2, 28385, Note_on_c, 8, 68, 127
2, 28552, Note_off_c, 8, 68, 127
2, 28554, Note_on_c, 3, 51, 127
2, 28554, Note_on_c, 6, 66, 127
2, 28721, Note_off_c, 6, 66, 127
2, 28721, Note_off_c, 3, 51, 127
2, 28723, Note_on_c, 4, 52, 127
2, 28723, Note_on_c, 8, 68, 127
2, 28890, Note_off_c, 8, 68, 127
2, 28890, Note_off_c, 4, 52, 127
2, 28892, Note_on_c, 6, 54, 127
2, 28892, Note_on_c, 11, 70, 127
2, 29049, Note_off_c, 3, 75, 127
2, 29059, Note_off_c, 11, 70, 127
2, 29059, Note_off_c, 6, 54, 127
2, 29061, Note_on_c, 8, 56, 127
2, 29061, Note_on_c, 2, 74, 127
2, 29061, Note_on_c, 12, 71, 127
2, 29228, Note_off_c, 8, 56, 127
2, 29230, Note_on_c, 11, 58, 127
2, 29397, Note_off_c, 11, 58, 127
2, 29397, Note_off_c, 12, 71, 127
2, 29397, Note_off_c, 2, 74, 127
2, 29399, Note_on_c, 12, 59, 127
2, 29399, Note_on_c, 8, 68, 127
2, 29399, Note_on_c, 12, 71, 127
2, 29566, Note_off_c, 12, 59, 127
2, 29568, Note_on_c, 1, 61, 127
2, 29735, Note_off_c, 1, 61, 127
2, 29735, Note_off_c, 12, 71, 127
2, 29735, Note_off_c, 8, 68, 127
2, 29736, Note_on_c, 2, 62, 127
2, 29736, Note_on_c, 8, 68, 127
2, 29736, Note_on_c, 5, 65, 127
2, 29903, Note_off_c, 2, 62, 127
2, 29905, Note_on_c, 1, 61, 127
2, 30072, Note_off_c, 1, 61, 127
2, 30072, Note_off_c, 8, 68, 127
2, 30074, Note_on_c, 2, 62, 127
2, 30074, Note_on_c, 12, 71, 127
2, 30241, Note_off_c, 2, 62, 127
2, 30243, Note_on_c, 12, 59, 127
2, 30404, Note_off_c, 5, 65, 127
2, 30410, Note_off_c, 12, 59, 127
2, 30412, Note_on_c, 1, 61, 127
2, 30412, Note_on_c, 4, 64, 127
2, 30579, Note_off_c, 12, 71, 127
2, 30581, Note_on_c, 12, 71, 127
2, 30748, Note_off_c, 12, 71, 127
2, 30750, Note_on_c, 11, 70, 127
2, 30917, Note_off_c, 11, 70, 127
2, 30919, Note_on_c, 8, 68, 127
2, 31086, Note_off_c, 8, 68, 127
2, 31088, Note_on_c, 11, 70, 127
2, 31255, Note_off_c, 11, 70, 127
2, 31257, Note_on_c, 12, 71, 127
2, 31424, Note_off_c, 12, 71, 127
2, 31424, Note_off_c, 1, 61, 127
2, 31426, Note_on_c, 12, 59, 127
2, 31426, Note_on_c, 1, 73, 127
2, 31593, Note_off_c, 1, 73, 127
2, 31595, Note_on_c, 11, 70, 127
2, 31762, Note_off_c, 11, 70, 127
2, 31762, Note_off_c, 12, 59, 127
2, 31764, Note_on_c, 11, 58, 127
2, 31764, Note_on_c, 6, 66, 127
2, 31925, Note_off_c, 4, 64, 127
2, 31933, Note_on_c, 4, 64, 127
2, 32100, Note_off_c, 4, 64, 127
2, 32100, Note_off_c, 6, 66, 127
2, 32102, Note_on_c, 3, 63, 127
2, 32102, Note_on_c, 6, 78, 127
2, 32269, Note_off_c, 3, 63, 127
2, 32271, Note_on_c, 1, 61, 127
2, 32432, Note_off_c, 11, 58, 127
2, 32438, Note_off_c, 1, 61, 127
2, 32440, Note_on_c, 12, 59, 127
2, 32440, Note_on_c, 3, 63, 127
2, 32607, Note_off_c, 6, 78, 127
2, 32609, Note_on_c, 4, 76, 127
2, 32776, Note_off_c, 4, 76, 127
2, 32776, Note_off_c, 3, 63, 127
2, 32776, Note_off_c, 12, 59, 127
2, 32778, Note_on_c, 11, 58, 127
2, 32778, Note_on_c, 6, 54, 127
2, 32778, Note_on_c, 8, 80, 127
2, 32945, Note_off_c, 8, 80, 127
2, 32947, Note_on_c, 6, 78, 127
2, 33114, Note_off_c, 6, 78, 127
2, 33114, Note_off_c, 6, 54, 127
2, 33114, Note_off_c, 11, 58, 127
2, 33116, Note_on_c, 12, 59, 127
2, 33116, Note_on_c, 8, 56, 127
2, 33116, Note_on_c, 4, 76, 127
2, 33283, Note_off_c, 4, 76, 127
2, 33285, Note_on_c, 3, 75, 127
2, 33452, Note_off_c, 3, 75, 127
2, 33452, Note_off_c, 8, 56, 127
2, 33454, Note_on_c, 4, 52, 127
2, 33454, Note_on_c, 1, 73, 127
2, 33621, Note_off_c, 1, 73, 127
2, 33623, Note_on_c, 12, 71, 127
2, 33790, Note_off_c, 12, 71, 127
2, 33790, Note_off_c, 4, 52, 127
2, 33792, Note_on_c, 6, 54, 127
2, 33792, Note_on_c, 3, 75, 127
2, 33959, Note_off_c, 3, 75, 127
2, 33960, Note_on_c, 6, 66, 127
2, 34127, Note_off_c, 6, 66, 127
2, 34128, Note_off_c, 12, 59, 127
2, 34129, Note_on_c, 11, 58, 127
2, 34129, Note_on_c, 1, 73, 127
2, 34296, Note_off_c, 1, 73, 127
2, 34298, Note_on_c, 4, 64, 127
2, 34460, Note_off_c, 6, 54, 127
2, 34465, Note_off_c, 4, 64, 127
2, 34465, Note_off_c, 11, 58, 127
2, 34467, Note_on_c, 12, 59, 127
2, 34467, Note_on_c, 3, 63, 127
2, 34634, Note_off_c, 3, 63, 127
2, 34636, Note_on_c, 6, 66, 127
2, 34803, Note_off_c, 6, 66, 127
2, 34805, Note_on_c, 12, 47, 127
2, 34805, Note_on_c, 12, 71, 127
2, 34972, Note_off_c, 12, 71, 127
2, 34974, Note_on_c, 11, 70, 127
2, 35135, Note_off_c, 12, 59, 127
2, 35141, Note_off_c, 11, 70, 127
2, 35141, Note_off_c, 12, 47, 127
2, 35143, Note_on_c, 12, 47, 127
2, 35143, Note_on_c, 12, 71, 127
2, 35312, Note_on_c, 6, 66, 127
2, 35479, Note_off_c, 6, 66, 127
2, 35479, Note_off_c, 12, 47, 127
2, 35481, Note_on_c, 12, 59, 127
2, 35481, Note_on_c, 4, 64, 127
2, 35648, Note_off_c, 4, 64, 127
2, 35650, Note_on_c, 6, 66, 127
2, 35811, Note_off_c, 12, 71, 127
2, 35817, Note_off_c, 12, 59, 127
2, 35819, Note_on_c, 12, 59, 127
2, 35819, Note_on_c, 8, 68, 127
2, 35984, Note_off_c, 6, 66, 127
2, 35988, Note_on_c, 4, 64, 127
2, 36155, Note_off_c, 4, 64, 127
2, 36155, Note_off_c, 12, 59, 127
2, 36157, Note_on_c, 12, 47, 127
2, 36157, Note_on_c, 3, 63, 127
2, 36324, Note_off_c, 3, 63, 127
2, 36326, Note_on_c, 4, 64, 127
2, 36487, Note_off_c, 8, 68, 127
2, 36493, Note_off_c, 12, 47, 127
2, 36495, Note_on_c, 12, 59, 127
2, 36495, Note_on_c, 6, 66, 127
2, 36662, Note_off_c, 6, 66, 127
2, 36664, Note_on_c, 8, 68, 127
2, 36831, Note_off_c, 8, 68, 127
2, 36831, Note_off_c, 12, 59, 127
2, 36833, Note_on_c, 12, 47, 127
2, 36833, Note_on_c, 10, 69, 127
2, 37000, Note_off_c, 10, 69, 127
2, 37002, Note_on_c, 8, 68, 127
2, 37169, Note_off_c, 8, 68, 127
2, 37169, Note_off_c, 12, 47, 127
2, 37170, Note_off_c, 4, 64, 127
2, 37171, Note_on_c, 12, 47, 127
2, 37171, Note_on_c, 10, 69, 127
2, 37340, Note_on_c, 4, 64, 127
2, 37507, Note_off_c, 4, 64, 127
2, 37507, Note_off_c, 12, 47, 127
2, 37509, Note_on_c, 12, 59, 127
2, 37509, Note_on_c, 3, 63, 127
2, 37676, Note_off_c, 3, 63, 127
2, 37678, Note_on_c, 4, 64, 127
2, 37839, Note_off_c, 10, 69, 127
2, 37845, Note_off_c, 12, 59, 127
2, 37847, Note_on_c, 12, 59, 127
2, 37847, Note_on_c, 6, 66, 127
2, 38012, Note_off_c, 4, 64, 127
2, 38016, Note_on_c, 3, 63, 127
2, 38183, Note_off_c, 3, 63, 127
2, 38183, Note_off_c, 12, 59, 127
2, 38184, Note_on_c, 12, 47, 127
2, 38184, Note_on_c, 1, 61, 127
2, 38351, Note_off_c, 1, 61, 127
2, 38353, Note_on_c, 3, 63, 127
2, 38515, Note_off_c, 6, 66, 127
2, 38520, Note_off_c, 12, 47, 127
2, 38522, Note_on_c, 12, 59, 127
2, 38522, Note_on_c, 4, 64, 127
2, 38687, Note_off_c, 3, 63, 127
2, 38689, Note_off_c, 4, 64, 127
2, 38691, Note_on_c, 6, 66, 127
2, 38858, Note_off_c, 6, 66, 127
2, 38858, Note_off_c, 12, 59, 127
2, 38860, Note_on_c, 12, 47, 127
2, 38860, Note_on_c, 7, 67, 127
2, 39027, Note_off_c, 7, 67, 127
2, 39029, Note_on_c, 6, 66, 127
2, 39196, Note_off_c, 6, 66, 127
2, 39196, Note_off_c, 12, 47, 127
2, 39198, Note_on_c, 12, 47, 127
2, 39198, Note_on_c, 7, 67, 127
2, 39367, Note_on_c, 3, 63, 127
2, 39534, Note_off_c, 3, 63, 127
2, 39534, Note_off_c, 12, 47, 127
2, 39536, Note_on_c, 12, 59, 127
2, 39536, Note_on_c, 1, 61, 127
2, 39703, Note_off_c, 1, 61, 127
2, 39705, Note_on_c, 3, 63, 127
2, 39866, Note_off_c, 7, 67, 127
2, 39872, Note_off_c, 12, 59, 127
2, 39874, Note_on_c, 12, 59, 127
2, 39874, Note_on_c, 4, 64, 127
2, 40039, Note_off_c, 3, 63, 127
2, 40043, Note_on_c, 1, 61, 127
2, 40210, Note_off_c, 1, 61, 127
2, 40210, Note_off_c, 12, 59, 127
2, 40212, Note_on_c, 12, 47, 127
2, 40212, Note_on_c, 12, 59, 127
2, 40379, Note_off_c, 12, 59, 127
2, 40381, Note_on_c, 1, 61, 127
2, 40548, Note_off_c, 1, 61, 127
2, 40548, Note_off_c, 12, 47, 127
2, 40550, Note_on_c, 12, 59, 127
2, 40886, Note_off_c, 12, 59, 127
2, 40886, Note_off_c, 4, 64, 127
2, 40888, Note_on_c, 11, 58, 127
2, 40888, Note_on_c, 1, 73, 127
2, 41224, Note_off_c, 1, 73, 127
2, 41226, Note_on_c, 1, 73, 127
2, 41393, Note_off_c, 11, 58, 127
2, 41395, Note_on_c, 6, 54, 127
2, 41562, Note_off_c, 6, 54, 127
2, 41562, Note_off_c, 1, 73, 127
2, 41564, Note_on_c, 8, 56, 127
2, 41564, Note_on_c, 4, 64, 127
2, 41564, Note_on_c, 1, 61, 127
2, 41731, Note_off_c, 8, 56, 127
2, 41733, Note_on_c, 11, 58, 127
2, 41900, Note_off_c, 11, 58, 127
2, 41900, Note_off_c, 1, 61, 127
2, 41900, Note_off_c, 4, 64, 127
2, 41902, Note_on_c, 12, 59, 127
2, 41902, Note_on_c, 3, 63, 127
2, 42071, Note_on_c, 8, 56, 127
2, 42238, Note_off_c, 8, 56, 127
2, 42238, Note_off_c, 3, 63, 127
2, 42238, Note_off_c, 12, 59, 127
2, 42240, Note_on_c, 6, 54, 127
2, 42240, Note_on_c, 6, 78, 127
2, 42407, Note_off_c, 6, 54, 127
2, 42408, Note_on_c, 4, 52, 127
2, 42575, Note_off_c, 4, 52, 127
2, 42576, Note_off_c, 6, 78, 127
2, 42577, Note_on_c, 3, 51, 127
2, 42577, Note_on_c, 6, 78, 127
2, 42744, Note_off_c, 3, 51, 127
2, 42746, Note_on_c, 1, 49, 127
2, 42913, Note_off_c, 1, 49, 127
2, 42913, Note_off_c, 6, 78, 127
2, 42915, Note_on_c, 3, 51, 127
2, 42915, Note_on_c, 3, 63, 127
2, 42915, Note_on_c, 12, 71, 127
2, 43082, Note_off_c, 3, 51, 127
2, 43084, Note_on_c, 4, 52, 127
2, 43251, Note_off_c, 4, 52, 127
2, 43251, Note_off_c, 12, 71, 127
2, 43251, Note_off_c, 3, 63, 127
2, 43253, Note_on_c, 6, 54, 127
2, 43253, Note_on_c, 1, 61, 127
2, 43253, Note_on_c, 11, 70, 127
2, 43420, Note_off_c, 6, 54, 127
2, 43422, Note_on_c, 3, 51, 127
2, 43589, Note_off_c, 3, 51, 127
2, 43589, Note_off_c, 11, 70, 127
2, 43589, Note_off_c, 1, 61, 127
2, 43591, Note_on_c, 1, 49, 127
2, 43591, Note_on_c, 4, 76, 127
2, 43758, Note_off_c, 1, 49, 127
2, 43760, Note_on_c, 12, 47, 127
2, 43927, Note_off_c, 12, 47, 127
2, 43927, Note_off_c, 4, 76, 127
2, 43929, Note_on_c, 11, 46, 127
2, 43929, Note_on_c, 4, 76, 127
2, 44096, Note_off_c, 11, 46, 127
2, 44098, Note_on_c, 8, 44, 127
2, 44265, Note_off_c, 8, 44, 127
2, 44265, Note_off_c, 4, 76, 127
2, 44267, Note_on_c, 11, 46, 127
2, 44267, Note_on_c, 1, 61, 127
2, 44267, Note_on_c, 6, 66, 127
2, 44267, Note_on_c, 4, 64, 127
2, 44434, Note_off_c, 11, 46, 127
2, 44436, Note_on_c, 12, 47, 127
2, 44603, Note_off_c, 12, 47, 127
2, 44603, Note_off_c, 4, 64, 127
2, 44603, Note_off_c, 6, 66, 127
2, 44603, Note_off_c, 1, 61, 127
2, 44605, Note_on_c, 1, 49, 127
2, 44605, Note_on_c, 11, 58, 127
2, 44605, Note_on_c, 4, 64, 127
2, 44605, Note_on_c, 6, 66, 127
2, 44772, Note_off_c, 1, 49, 127
2, 44774, Note_on_c, 11, 46, 127
2, 44941, Note_off_c, 11, 46, 127
2, 44943, Note_on_c, 8, 44, 127
2, 45110, Note_off_c, 8, 44, 127
2, 45112, Note_on_c, 6, 42, 127
2, 45273, Note_off_c, 11, 58, 127
2, 45279, Note_off_c, 6, 42, 127
2, 45281, Note_on_c, 12, 47, 127
2, 45281, Note_on_c, 12, 59, 127
2, 45448, Note_off_c, 6, 66, 127
2, 45448, Note_off_c, 4, 64, 127
2, 45450, Note_on_c, 3, 63, 127
2, 45617, Note_off_c, 12, 47, 127
2, 45619, Note_on_c, 8, 44, 127
2, 45619, Note_on_c, 8, 68, 127
2, 45786, Note_off_c, 8, 68, 127
2, 45788, Note_on_c, 12, 71, 127
2, 45942, Note_off_c, 3, 63, 127
2, 45949, Note_off_c, 12, 59, 127
2, 45955, Note_off_c, 8, 44, 127
2, 45957, Note_on_c, 4, 40, 127
2, 45957, Note_on_c, 1, 61, 127
2, 46122, Note_off_c, 12, 71, 127
2, 46126, Note_on_c, 12, 71, 127
2, 46291, Note_off_c, 1, 61, 127
2, 46293, Note_off_c, 4, 40, 127
2, 46295, Note_on_c, 6, 42, 127
2, 46295, Note_on_c, 6, 54, 127
2, 46295, Note_on_c, 4, 64, 127
2, 46460, Note_off_c, 12, 71, 127
2, 46464, Note_on_c, 11, 70, 127
2, 46631, Note_off_c, 11, 70, 127
2, 46631, Note_off_c, 6, 42, 127
2, 46632, Note_on_c, 12, 47, 127
2, 46632, Note_on_c, 12, 71, 127
2, 46789, Note_off_c, 4, 64, 127
2, 46803, Note_on_c, 3, 63, 127
2, 46967, Note_off_c, 6, 54, 127
2, 46969, Note_off_c, 12, 71, 127
2, 46974, Note_on_c, 7, 55, 127
2, 46974, Note_on_c, 4, 64, 127
2, 47140, Note_off_c, 3, 63, 127
2, 47145, Note_on_c, 1, 61, 127
2, 47311, Note_off_c, 4, 64, 127
2, 47313, Note_off_c, 7, 55, 127
2, 47315, Note_on_c, 6, 54, 127
2, 47315, Note_on_c, 3, 63, 127
2, 47486, Note_off_c, 1, 61, 127
2, 47490, Note_on_c, 12, 59, 127
2, 47659, Note_off_c, 3, 63, 127
2, 47661, Note_off_c, 6, 54, 127
2, 47664, Note_on_c, 4, 52, 127
2, 47664, Note_on_c, 1, 61, 127
2, 47834, Note_off_c, 12, 59, 127
2, 47838, Note_on_c, 11, 58, 127
2, 48008, Note_off_c, 1, 61, 127
2, 48010, Note_off_c, 11, 58, 127
2, 48010, Note_off_c, 4, 52, 127
2, 48012, Note_on_c, 6, 54, 127
2, 48012, Note_on_c, 3, 63, 127
2, 48012, Note_on_c, 12, 59, 127
2, 48723, Note_off_c, 12, 59, 127
2, 48723, Note_off_c, 3, 63, 127
2, 48726, Note_off_c, 12, 47, 127
2, 48728, Note_off_c, 6, 54, 127
2, 48730, Note_on_c, 12, 59, 127
2, 49068, Note_on_c, 6, 78, 127
2, 49404, Note_off_c, 6, 78, 127
2, 49406, Note_on_c, 8, 80, 127
2, 49744, Note_on_c, 3, 75, 127
2, 50080, Note_off_c, 3, 75, 127
2, 50082, Note_on_c, 4, 76, 127
2, 50250, Note_off_c, 8, 80, 127
2, 50251, Note_on_c, 8, 80, 127
2, 50418, Note_off_c, 8, 80, 127
2, 50420, Note_on_c, 6, 78, 127
2, 50574, Note_off_c, 4, 76, 127
2, 50587, Note_off_c, 6, 78, 127
2, 50589, Note_on_c, 4, 76, 127
2, 50756, Note_off_c, 4, 76, 127
2, 50758, Note_on_c, 6, 78, 127
2, 50927, Note_on_c, 4, 76, 127
2, 51094, Note_off_c, 4, 76, 127
2, 51096, Note_on_c, 3, 75, 127
2, 51263, Note_off_c, 3, 75, 127
2, 51265, Note_on_c, 1, 73, 127
2, 51431, Note_off_c, 12, 59, 127
2, 51432, Note_off_c, 1, 73, 127
2, 51434, Note_on_c, 0, 60, 127
2, 51434, Note_on_c, 3, 75, 127
2, 51602, Note_off_c, 6, 78, 127
2, 51603, Note_on_c, 6, 78, 127
2, 51768, Note_off_c, 3, 75, 127
2, 51770, Note_off_c, 6, 78, 127
2, 51772, Note_on_c, 8, 80, 127
2, 51939, Note_off_c, 8, 80, 127
2, 51941, Note_on_c, 10, 81, 127
2, 52108, Note_off_c, 10, 81, 127
2, 52110, Note_on_c, 8, 80, 127
2, 52277, Note_off_c, 8, 80, 127
2, 52279, Note_on_c, 6, 78, 127
2, 52446, Note_off_c, 6, 78, 127
2, 52448, Note_on_c, 4, 76, 127
2, 52615, Note_off_c, 4, 76, 127
2, 52616, Note_on_c, 3, 75, 127
2, 52783, Note_off_c, 3, 75, 127
2, 52783, Note_off_c, 0, 60, 127
2, 52785, Note_on_c, 1, 61, 127
2, 52785, Note_on_c, 4, 76, 127
2, 52954, Note_on_c, 3, 75, 127
2, 53121, Note_off_c, 3, 75, 127
2, 53123, Note_on_c, 1, 73, 127
2, 53290, Note_off_c, 1, 73, 127
2, 53292, Note_on_c, 0, 72, 127
2, 53459, Note_off_c, 0, 72, 127
2, 53461, Note_on_c, 1, 73, 127
2, 53628, Note_off_c, 1, 61, 127
2, 53630, Note_on_c, 12, 59, 127
2, 53797, Note_off_c, 12, 59, 127
2, 53797, Note_off_c, 4, 76, 127
2, 53799, Note_on_c, 10, 57, 127
2, 53799, Note_on_c, 4, 76, 127
2, 53966, Note_off_c, 10, 57, 127
2, 53968, Note_on_c, 8, 56, 127
2, 54129, Note_off_c, 1, 73, 127
2, 54135, Note_off_c, 8, 56, 127
2, 54135, Note_off_c, 4, 76, 127
2, 54137, Note_on_c, 10, 57, 127
2, 54137, Note_on_c, 3, 75, 127
2, 54137, Note_on_c, 6, 66, 127
2, 54304, Note_off_c, 10, 57, 127
2, 54306, Note_on_c, 1, 61, 127
2, 54473, Note_off_c, 1, 61, 127
2, 54473, Note_off_c, 3, 75, 127
2, 54475, Note_on_c, 6, 54, 127
2, 54475, Note_on_c, 1, 73, 127
2, 54642, Note_off_c, 6, 54, 127
2, 54644, Note_on_c, 10, 57, 127
2, 54811, Note_off_c, 10, 57, 127
2, 54811, Note_off_c, 1, 73, 127
2, 54813, Note_on_c, 8, 56, 127
2, 54813, Note_on_c, 0, 72, 127
2, 54981, Note_off_c, 6, 66, 127
2, 54982, Note_on_c, 6, 66, 127
2, 55149, Note_off_c, 6, 66, 127
2, 55149, Note_off_c, 8, 56, 127
2, 55151, Note_on_c, 8, 44, 127
2, 55151, Note_on_c, 8, 68, 127
2, 55318, Note_off_c, 8, 68, 127
2, 55320, Note_on_c, 10, 69, 127
2, 55487, Note_off_c, 10, 69, 127
2, 55487, Note_off_c, 8, 44, 127
2, 55489, Note_on_c, 8, 56, 127
2, 55489, Note_on_c, 8, 68, 127
2, 55656, Note_off_c, 8, 68, 127
2, 55658, Note_on_c, 6, 66, 127
2, 55825, Note_off_c, 6, 66, 127
2, 55825, Note_off_c, 8, 56, 127
2, 55827, Note_on_c, 10, 57, 127
2, 55827, Note_on_c, 4, 64, 127
2, 55994, Note_off_c, 4, 64, 127
2, 55996, Note_on_c, 3, 63, 127
2, 56162, Note_off_c, 0, 72, 127
2, 56163, Note_off_c, 3, 63, 127
2, 56163, Note_off_c, 10, 57, 127
2, 56165, Note_on_c, 8, 56, 127
2, 56165, Note_on_c, 1, 61, 127
2, 56332, Note_off_c, 1, 61, 127
2, 56334, Note_on_c, 0, 60, 127
2, 56501, Note_off_c, 0, 60, 127
2, 56501, Note_off_c, 8, 56, 127
2, 56503, Note_on_c, 6, 54, 127
2, 56503, Note_on_c, 1, 61, 127
2, 56670, Note_off_c, 1, 61, 127
2, 56672, Note_on_c, 3, 63, 127
2, 56839, Note_off_c, 3, 63, 127
2, 56839, Note_off_c, 6, 54, 127
2, 56840, Note_on_c, 4, 52, 127
2, 56840, Note_on_c, 8, 56, 127
2, 57009, Note_on_c, 1, 73, 127
2, 57176, Note_off_c, 1, 73, 127
2, 57176, Note_off_c, 8, 56, 127
2, 57178, Note_on_c, 1, 61, 127
2, 57178, Note_on_c, 8, 68, 127
2, 57345, Note_off_c, 8, 68, 127
2, 57347, Note_on_c, 7, 67, 127
2, 57508, Note_off_c, 4, 52, 127
2, 57514, Note_off_c, 7, 67, 127
2, 57514, Note_off_c, 1, 61, 127
2, 57516, Note_on_c, 1, 61, 127
2, 57516, Note_on_c, 8, 68, 127
2, 57683, Note_off_c, 8, 68, 127
2, 57685, Note_on_c, 0, 72, 127
2, 57852, Note_off_c, 0, 72, 127
2, 57852, Note_off_c, 1, 61, 127
2, 57854, Note_on_c, 8, 56, 127
2, 57854, Note_on_c, 1, 73, 127
2, 58021, Note_off_c, 1, 73, 127
2, 58023, Note_on_c, 3, 75, 127
2, 58190, Note_off_c, 3, 75, 127
2, 58190, Note_off_c, 8, 56, 127
2, 58192, Note_on_c, 1, 49, 127
2, 58192, Note_on_c, 8, 56, 127
2, 58192, Note_on_c, 4, 76, 127
2, 58359, Note_off_c, 4, 76, 127
2, 58361, Note_on_c, 3, 75, 127
2, 58528, Note_off_c, 3, 75, 127
2, 58528, Note_off_c, 8, 56, 127
2, 58530, Note_on_c, 8, 56, 127
2, 58530, Note_on_c, 4, 76, 127
2, 58697, Note_off_c, 4, 76, 127
2, 58699, Note_on_c, 1, 73, 127
2, 58860, Note_off_c, 1, 49, 127
2, 58866, Note_off_c, 1, 73, 127
2, 58866, Note_off_c, 8, 56, 127
2, 58868, Note_on_c, 8, 56, 127
2, 58868, Note_on_c, 0, 48, 127
2, 58868, Note_on_c, 3, 75, 127
2, 59035, Note_off_c, 3, 75, 127
2, 59037, Note_on_c, 0, 72, 127
2, 59204, Note_off_c, 0, 72, 127
2, 59204, Note_off_c, 8, 56, 127
2, 59206, Note_on_c, 3, 63, 127
2, 59206, Note_on_c, 8, 68, 127
2, 59373, Note_off_c, 8, 68, 127
2, 59375, Note_on_c, 7, 67, 127
2, 59536, Note_off_c, 0, 48, 127
2, 59542, Note_off_c, 7, 67, 127
2, 59542, Note_off_c, 3, 63, 127
2, 59544, Note_on_c, 3, 63, 127
2, 59544, Note_on_c, 8, 68, 127
2, 59711, Note_off_c, 8, 68, 127
2, 59713, Note_on_c, 0, 72, 127
2, 59880, Note_off_c, 0, 72, 127
2, 59880, Note_off_c, 3, 63, 127
2, 59882, Note_on_c, 0, 60, 127
2, 59882, Note_on_c, 3, 75, 127
2, 60049, Note_off_c, 3, 75, 127
2, 60051, Note_on_c, 4, 76, 127
2, 60218, Note_off_c, 4, 76, 127
2, 60218, Note_off_c, 0, 60, 127
2, 60220, Note_on_c, 8, 44, 127
2, 60220, Note_on_c, 8, 56, 127
2, 60220, Note_on_c, 6, 78, 127
2, 60387, Note_off_c, 6, 78, 127
2, 60389, Note_on_c, 4, 76, 127
2, 60556, Note_off_c, 4, 76, 127
2, 60556, Note_off_c, 8, 56, 127
2, 60558, Note_on_c, 8, 56, 127
2, 60558, Note_on_c, 6, 78, 127
2, 60725, Note_off_c, 6, 78, 127
2, 60727, Note_on_c, 3, 75, 127
2, 60888, Note_off_c, 8, 44, 127
2, 60894, Note_off_c, 3, 75, 127
2, 60894, Note_off_c, 8, 56, 127
2, 60896, Note_on_c, 1, 49, 127
2, 60896, Note_on_c, 8, 56, 127
2, 60896, Note_on_c, 4, 76, 127
2, 61064, Note_on_c, 1, 73, 127
2, 61231, Note_off_c, 1, 73, 127
2, 61232, Note_off_c, 8, 56, 127
2, 61232, Note_off_c, 1, 49, 127
2, 61233, Note_on_c, 4, 52, 127
2, 61233, Note_on_c, 8, 68, 127
2, 61400, Note_off_c, 8, 68, 127
2, 61402, Note_on_c, 12, 71, 127
2, 61569, Note_off_c, 12, 71, 127
2, 61569, Note_off_c, 4, 52, 127
2, 61571, Note_on_c, 6, 54, 127
2, 61571, Note_on_c, 10, 69, 127
2, 61738, Note_off_c, 10, 69, 127
2, 61740, Note_on_c, 1, 73, 127
2, 61907, Note_off_c, 1, 73, 127
2, 61907, Note_off_c, 6, 54, 127
2, 61909, Note_on_c, 10, 57, 127
2, 61909, Note_on_c, 6, 66, 127
2, 62075, Note_off_c, 4, 76, 127
2, 62078, Note_on_c, 3, 75, 127
2, 62243, Note_off_c, 6, 66, 127
2, 62245, Note_off_c, 10, 57, 127
2, 62247, Note_on_c, 7, 55, 127
2, 62247, Note_on_c, 4, 64, 127
2, 62412, Note_off_c, 3, 75, 127
2, 62416, Note_on_c, 1, 73, 127
2, 62581, Note_off_c, 4, 64, 127
2, 62583, Note_off_c, 7, 55, 127
2, 62585, Note_on_c, 8, 56, 127
2, 62585, Note_on_c, 3, 63, 127
2, 62750, Note_off_c, 1, 73, 127
2, 62754, Note_on_c, 0, 72, 127
2, 62919, Note_off_c, 3, 63, 127
2, 62921, Note_off_c, 0, 72, 127
2, 62921, Note_off_c, 8, 56, 127
2, 62923, Note_on_c, 1, 49, 127
2, 62923, Note_on_c, 1, 73, 127
2, 62923, Note_on_c, 4, 64, 127
2, 63090, Note_off_c, 4, 64, 127
2, 63092, Note_on_c, 10, 69, 127
2, 63259, Note_off_c, 10, 69, 127
2, 63259, Note_off_c, 1, 49, 127
2, 63261, Note_on_c, 4, 52, 127
2, 63261, Note_on_c, 8, 68, 127
2, 63428, Note_off_c, 8, 68, 127
2, 63430, Note_on_c, 6, 66, 127
2, 63591, Note_off_c, 1, 73, 127
2, 63597, Note_off_c, 6, 66, 127
2, 63597, Note_off_c, 4, 52, 127
2, 63599, Note_on_c, 8, 56, 127
2, 63599, Note_on_c, 4, 64, 127
2, 63766, Note_off_c, 4, 64, 127
2, 63768, Note_on_c, 3, 63, 127
2, 63935, Note_off_c, 3, 63, 127
2, 63935, Note_off_c, 8, 56, 127
2, 63937, Note_on_c, 1, 61, 127
2, 63937, Note_on_c, 4, 64, 127
2, 64104, Note_off_c, 4, 64, 127
2, 64106, Note_on_c, 6, 66, 127
2, 64273, Note_off_c, 6, 66, 127
2, 64273, Note_off_c, 1, 61, 127
2, 64275, Note_on_c, 12, 59, 127
2, 64275, Note_on_c, 8, 68, 127
2, 64442, Note_off_c, 8, 68, 127
2, 64444, Note_on_c, 10, 69, 127
2, 64611, Note_off_c, 10, 69, 127
2, 64611, Note_off_c, 12, 59, 127
2, 64613, Note_on_c, 10, 57, 127
2, 64613, Note_on_c, 12, 71, 127
2, 64695, Note_off_c, 12, 71, 127
2, 64697, Note_on_c, 10, 69, 127
2, 64779, Note_off_c, 10, 69, 127
2, 64782, Note_on_c, 8, 68, 127
2, 64864, Note_off_c, 8, 68, 127
2, 64866, Note_on_c, 10, 69, 127
2, 64948, Note_off_c, 10, 69, 127
2, 64949, Note_off_c, 10, 57, 127
2, 64951, Note_on_c, 8, 56, 127
2, 64951, Note_on_c, 12, 71, 127
2, 65120, Note_on_c, 4, 76, 127
2, 65285, Note_off_c, 12, 71, 127
2, 65287, Note_off_c, 4, 76, 127
2, 65287, Note_off_c, 8, 56, 127
2, 65288, Note_on_c, 12, 59, 127
2, 65288, Note_on_c, 3, 75, 127
2, 65455, Note_off_c, 3, 75, 127
2, 65457, Note_on_c, 1, 73, 127
2, 65624, Note_off_c, 1, 73, 127
2, 65624, Note_off_c, 12, 59, 127
2, 65626, Note_on_c, 4, 64, 127
2, 65626, Note_on_c, 12, 71, 127
2, 65793, Note_off_c, 12, 71, 127
2, 65795, Note_on_c, 11, 70, 127
2, 65962, Note_off_c, 11, 70, 127
2, 65962, Note_off_c, 4, 64, 127
2, 65964, Note_on_c, 8, 68, 127
2, 65964, Note_on_c, 12, 71, 127
2, 66131, Note_off_c, 12, 71, 127
2, 66133, Note_on_c, 1, 73, 127
2, 66300, Note_off_c, 1, 73, 127
2, 66300, Note_off_c, 8, 68, 127
2, 66302, Note_on_c, 6, 66, 127
2, 66302, Note_on_c, 3, 75, 127
2, 66469, Note_off_c, 3, 75, 127
2, 66471, Note_on_c, 4, 76, 127
2, 66638, Note_off_c, 4, 76, 127
2, 66638, Note_off_c, 6, 66, 127
2, 66640, Note_on_c, 4, 64, 127
2, 66640, Note_on_c, 6, 78, 127
2, 66722, Note_off_c, 6, 78, 127
2, 66725, Note_on_c, 4, 76, 127
2, 66807, Note_off_c, 4, 76, 127
2, 66809, Note_on_c, 3, 75, 127
2, 66891, Note_off_c, 3, 75, 127
2, 66894, Note_on_c, 4, 76, 127
2, 66976, Note_off_c, 4, 76, 127
2, 66976, Note_off_c, 4, 64, 127
2, 66978, Note_on_c, 3, 63, 127
2, 66978, Note_on_c, 6, 78, 127
2, 67145, Note_off_c, 6, 78, 127
2, 67147, Note_on_c, 8, 80, 127
2, 67314, Note_off_c, 8, 80, 127
2, 67314, Note_off_c, 3, 63, 127
2, 67316, Note_on_c, 8, 68, 127
2, 67316, Note_on_c, 12, 71, 127
2, 67316, Note_on_c, 6, 78, 127
2, 67483, Note_off_c, 6, 78, 127
2, 67485, Note_on_c, 4, 76, 127
2, 67652, Note_off_c, 4, 76, 127
2, 67652, Note_off_c, 12, 71, 127
2, 67652, Note_off_c, 8, 68, 127
2, 67654, Note_on_c, 10, 69, 127
2, 67654, Note_on_c, 6, 66, 127
2, 67654, Note_on_c, 3, 75, 127
2, 67821, Note_off_c, 3, 75, 127
2, 67823, Note_on_c, 1, 73, 127
2, 67990, Note_off_c, 1, 73, 127
2, 67990, Note_off_c, 6, 66, 127
2, 67990, Note_off_c, 10, 69, 127
2, 67992, Note_on_c, 8, 68, 127
2, 67992, Note_on_c, 4, 64, 127
2, 67992, Note_on_c, 3, 75, 127
2, 68159, Note_off_c, 3, 75, 127
2, 68161, Note_on_c, 4, 76, 127
2, 68328, Note_off_c, 4, 76, 127
2, 68328, Note_off_c, 4, 64, 127
2, 68328, Note_off_c, 8, 68, 127
2, 68330, Note_on_c, 6, 66, 127
2, 68330, Note_on_c, 3, 63, 127
2, 68330, Note_on_c, 6, 78, 127
2, 68497, Note_off_c, 6, 78, 127
2, 68499, Note_on_c, 8, 80, 127
2, 68666, Note_off_c, 8, 80, 127
2, 68666, Note_off_c, 3, 63, 127
2, 68666, Note_off_c, 6, 66, 127
2, 68668, Note_on_c, 4, 64, 127
2, 68668, Note_on_c, 1, 61, 127
2, 68668, Note_on_c, 10, 81, 127
2, 68750, Note_off_c, 10, 81, 127
2, 68752, Note_on_c, 8, 80, 127
2, 68834, Note_off_c, 8, 80, 127
2, 68837, Note_on_c, 6, 78, 127
2, 68919, Note_off_c, 6, 78, 127
2, 68921, Note_on_c, 8, 80, 127
2, 69003, Note_off_c, 8, 80, 127
2, 69004, Note_off_c, 1, 61, 127
2, 69004, Note_off_c, 4, 64, 127
2, 69006, Note_on_c, 3, 63, 127
2, 69006, Note_on_c, 12, 59, 127
2, 69006, Note_on_c, 10, 81, 127
2, 69175, Note_on_c, 1, 73, 127
2, 69342, Note_off_c, 1, 73, 127
2, 69342, Note_off_c, 12, 59, 127
2, 69342, Note_off_c, 3, 63, 127
2, 69344, Note_on_c, 4, 64, 127
2, 69344, Note_on_c, 1, 61, 127
2, 69344, Note_on_c, 12, 71, 127
2, 69511, Note_off_c, 12, 71, 127
2, 69512, Note_on_c, 11, 70, 127
2, 69674, Note_off_c, 10, 81, 127
2, 69679, Note_off_c, 11, 70, 127
2, 69680, Note_off_c, 1, 61, 127
2, 69680, Note_off_c, 4, 64, 127
2, 69681, Note_on_c, 3, 63, 127
2, 69681, Note_on_c, 12, 59, 127
2, 69681, Note_on_c, 12, 71, 127
2, 69848, Note_off_c, 12, 71, 127
2, 69850, Note_on_c, 10, 81, 127
2, 70017, Note_off_c, 10, 81, 127
2, 70017, Note_off_c, 12, 59, 127
2, 70017, Note_off_c, 3, 63, 127
2, 70019, Note_on_c, 1, 61, 127
2, 70019, Note_on_c, 10, 57, 127
2, 70019, Note_on_c, 8, 80, 127
2, 70186, Note_off_c, 8, 80, 127
2, 70188, Note_on_c, 6, 78, 127
2, 70355, Note_off_c, 6, 78, 127
2, 70355, Note_off_c, 10, 57, 127
2, 70355, Note_off_c, 1, 61, 127
2, 70357, Note_on_c, 12, 59, 127
2, 70357, Note_on_c, 8, 56, 127
2, 70357, Note_on_c, 12, 83, 127
2, 70526, Note_on_c, 4, 76, 127
2, 70691, Note_off_c, 12, 83, 127
2, 70693, Note_off_c, 4, 76, 127
2, 70693, Note_off_c, 8, 56, 127
2, 70695, Note_on_c, 6, 54, 127
2, 70695, Note_on_c, 3, 75, 127
2, 70862, Note_off_c, 3, 75, 127
2, 70864, Note_on_c, 10, 81, 127
2, 71031, Note_off_c, 10, 81, 127
2, 71031, Note_off_c, 6, 54, 127
2, 71033, Note_on_c, 4, 52, 127
2, 71033, Note_on_c, 8, 80, 127
2, 71200, Note_off_c, 8, 80, 127
2, 71201, Note_off_c, 12, 59, 127
2, 71202, Note_on_c, 6, 66, 127
2, 71369, Note_off_c, 6, 66, 127
2, 71369, Note_off_c, 4, 52, 127
2, 71371, Note_on_c, 6, 54, 127
2, 71371, Note_on_c, 4, 64, 127
2, 71538, Note_off_c, 4, 64, 127
2, 71540, Note_on_c, 3, 63, 127
2, 71707, Note_off_c, 3, 63, 127
2, 71707, Note_off_c, 6, 54, 127
2, 71709, Note_on_c, 8, 56, 127
2, 71709, Note_on_c, 4, 64, 127
2, 71876, Note_off_c, 4, 64, 127
2, 71878, Note_on_c, 2, 74, 127
2, 72045, Note_off_c, 2, 74, 127
2, 72045, Note_off_c, 8, 56, 127
2, 72047, Note_on_c, 4, 52, 127
2, 72047, Note_on_c, 1, 73, 127
2, 72214, Note_off_c, 1, 73, 127
2, 72216, Note_on_c, 12, 71, 127
2, 72383, Note_off_c, 12, 71, 127
2, 72383, Note_off_c, 4, 52, 127
2, 72385, Note_on_c, 1, 49, 127
2, 72385, Note_on_c, 4, 76, 127
2, 72554, Note_on_c, 10, 69, 127
2, 72719, Note_off_c, 4, 76, 127
2, 72721, Note_off_c, 10, 69, 127
2, 72721, Note_off_c, 1, 49, 127
2, 72723, Note_on_c, 4, 52, 127
2, 72723, Note_on_c, 8, 68, 127
2, 72890, Note_off_c, 8, 68, 127
2, 72892, Note_on_c, 2, 74, 127
2, 73059, Note_off_c, 2, 74, 127
2, 73059, Note_off_c, 4, 52, 127
2, 73061, Note_on_c, 10, 45, 127
2, 73061, Note_on_c, 1, 73, 127
2, 73230, Note_on_c, 8, 80, 127
2, 73397, Note_off_c, 8, 80, 127
2, 73397, Note_off_c, 10, 45, 127
2, 73399, Note_on_c, 10, 57, 127
2, 73399, Note_on_c, 6, 78, 127
2, 73566, Note_off_c, 6, 78, 127
2, 73568, Note_on_c, 4, 76, 127
2, 73735, Note_off_c, 4, 76, 127
2, 73736, Note_on_c, 6, 78, 127
2, 73904, Note_off_c, 10, 57, 127
2, 73905, Note_on_c, 8, 56, 127
2, 74072, Note_off_c, 8, 56, 127
2, 74072, Note_off_c, 6, 78, 127
2, 74074, Note_on_c, 6, 54, 127
2, 74074, Note_on_c, 10, 81, 127
2, 74241, Note_off_c, 6, 54, 127
2, 74243, Note_on_c, 4, 52, 127
2, 74410, Note_off_c, 4, 52, 127
2, 74410, Note_off_c, 1, 73, 127
2, 74412, Note_on_c, 3, 51, 127
2, 74412, Note_on_c, 12, 71, 127
2, 74579, Note_off_c, 3, 51, 127
2, 74581, Note_on_c, 1, 49, 127
2, 74742, Note_off_c, 10, 81, 127
2, 74748, Note_off_c, 1, 49, 127
2, 74750, Note_on_c, 12, 47, 127
2, 74750, Note_on_c, 3, 75, 127
2, 74917, Note_off_c, 12, 47, 127
2, 74919, Note_on_c, 10, 45, 127
2, 75086, Note_off_c, 10, 45, 127
2, 75088, Note_on_c, 8, 44, 127
2, 75255, Note_off_c, 3, 75, 127
2, 75257, Note_on_c, 6, 78, 127
2, 75424, Note_off_c, 6, 78, 127
2, 75424, Note_off_c, 8, 44, 127
2, 75426, Note_on_c, 8, 56, 127
2, 75426, Note_on_c, 4, 76, 127
2, 75593, Note_off_c, 4, 76, 127
2, 75595, Note_on_c, 3, 75, 127
2, 75762, Note_off_c, 3, 75, 127
2, 75764, Note_on_c, 4, 76, 127
2, 75931, Note_off_c, 8, 56, 127
2, 75933, Note_on_c, 6, 54, 127
2, 76100, Note_off_c, 6, 54, 127
2, 76100, Note_off_c, 4, 76, 127
2, 76102, Note_on_c, 4, 52, 127
2, 76102, Note_on_c, 8, 80, 127
2, 76269, Note_off_c, 4, 52, 127
2, 76271, Note_on_c, 3, 51, 127
2, 76436, Note_off_c, 12, 71, 127
2, 76438, Note_off_c, 3, 51, 127
2, 76440, Note_on_c, 1, 49, 127
2, 76440, Note_on_c, 10, 69, 127
2, 76607, Note_off_c, 1, 49, 127
2, 76609, Note_on_c, 12, 47, 127
2, 76770, Note_off_c, 8, 80, 127
2, 76776, Note_off_c, 12, 47, 127
2, 76778, Note_on_c, 10, 45, 127
2, 76778, Note_on_c, 1, 73, 127
2, 76945, Note_off_c, 10, 45, 127
2, 76947, Note_on_c, 8, 44, 127
2, 77114, Note_off_c, 8, 44, 127
2, 77116, Note_on_c, 6, 42, 127
2, 77283, Note_off_c, 1, 73, 127
2, 77285, Note_on_c, 4, 76, 127
2, 77452, Note_off_c, 4, 76, 127
2, 77452, Note_off_c, 6, 42, 127
2, 77454, Note_on_c, 6, 54, 127
2, 77454, Note_on_c, 3, 75, 127
2, 77621, Note_off_c, 3, 75, 127
2, 77623, Note_on_c, 1, 73, 127
2, 77790, Note_off_c, 1, 73, 127
2, 77792, Note_on_c, 3, 75, 127
2, 77959, Note_off_c, 6, 54, 127
2, 77960, Note_on_c, 4, 52, 127
2, 78127, Note_off_c, 4, 52, 127
2, 78128, Note_off_c, 3, 75, 127
2, 78129, Note_on_c, 3, 51, 127
2, 78129, Note_on_c, 6, 78, 127
2, 78296, Note_off_c, 3, 51, 127
2, 78298, Note_on_c, 1, 49, 127
2, 78465, Note_off_c, 1, 49, 127
2, 78465, Note_off_c, 6, 78, 127
2, 78467, Note_on_c, 12, 47, 127
2, 78467, Note_on_c, 6, 78, 127
2, 78634, Note_off_c, 12, 47, 127
2, 78636, Note_on_c, 10, 45, 127
2, 78780, Note_off_c, 10, 69, 127
2, 78803, Note_off_c, 10, 45, 127
2, 78803, Note_off_c, 6, 78, 127
2, 78805, Note_on_c, 8, 44, 127
2, 78805, Note_on_c, 10, 69, 127
2, 78805, Note_on_c, 3, 63, 127
2, 78972, Note_off_c, 8, 44, 127
2, 78974, Note_on_c, 6, 42, 127
2, 79141, Note_off_c, 6, 42, 127
2, 79143, Note_on_c, 4, 40, 127
2, 79297, Note_off_c, 3, 63, 127
2, 79312, Note_on_c, 12, 59, 127
2, 79473, Note_off_c, 10, 69, 127
2, 79479, Note_off_c, 4, 40, 127
2, 79481, Note_on_c, 4, 52, 127
2, 79481, Note_on_c, 8, 68, 127
2, 79648, Note_off_c, 8, 68, 127
2, 79650, Note_on_c, 6, 66, 127
2, 79817, Note_off_c, 6, 66, 127
2, 79819, Note_on_c, 4, 64, 127
2, 79819, Note_on_c, 8, 68, 127
2, 79986, Note_off_c, 4, 52, 127
2, 79988, Note_on_c, 3, 51, 127
2, 80155, Note_off_c, 3, 51, 127
2, 80157, Note_on_c, 4, 52, 127
2, 80324, Note_off_c, 4, 52, 127
2, 80326, Note_on_c, 6, 54, 127
2, 80491, Note_off_c, 12, 59, 127
2, 80493, Note_off_c, 6, 54, 127
2, 80495, Note_on_c, 8, 56, 127
2, 80662, Note_off_c, 8, 56, 127
2, 80664, Note_on_c, 12, 59, 127
2, 80831, Note_off_c, 12, 59, 127
2, 80833, Note_on_c, 4, 52, 127
2, 81000, Note_off_c, 4, 52, 127
2, 81002, Note_on_c, 8, 56, 127
2, 81168, Note_off_c, 8, 68, 127
2, 81168, Note_off_c, 4, 64, 127
2, 81169, Note_off_c, 8, 56, 127
2, 81171, Note_on_c, 10, 57, 127
2, 81171, Note_on_c, 1, 61, 127
2, 81340, Note_on_c, 8, 68, 127
2, 81507, Note_off_c, 8, 68, 127
2, 81507, Note_off_c, 10, 57, 127
2, 81509, Note_on_c, 10, 45, 127
2, 81509, Note_on_c, 6, 66, 127
2, 81676, Note_off_c, 6, 66, 127
2, 81678, Note_on_c, 4, 64, 127
2, 81839, Note_off_c, 1, 61, 127
2, 81845, Note_off_c, 4, 64, 127
2, 81845, Note_off_c, 10, 45, 127
2, 81847, Note_on_c, 10, 57, 127
2, 81847, Note_on_c, 3, 63, 127
2, 82014, Note_off_c, 3, 63, 127
2, 82016, Note_on_c, 1, 61, 127
2, 82183, Note_off_c, 1, 61, 127
2, 82183, Note_off_c, 10, 57, 127
2, 82184, Note_on_c, 12, 59, 127
2, 82184, Note_on_c, 3, 63, 127
2, 82351, Note_off_c, 3, 63, 127
2, 82353, Note_on_c, 4, 64, 127
2, 82520, Note_off_c, 4, 64, 127
2, 82520, Note_off_c, 12, 59, 127
2, 82522, Note_on_c, 10, 57, 127
2, 82522, Note_on_c, 6, 66, 127
2, 82689, Note_off_c, 6, 66, 127
2, 82691, Note_on_c, 8, 68, 127
2, 82858, Note_off_c, 8, 68, 127
2, 82858, Note_off_c, 10, 57, 127
2, 82860, Note_on_c, 8, 56, 127
2, 82860, Note_on_c, 10, 69, 127
2, 82942, Note_off_c, 10, 69, 127
2, 82945, Note_on_c, 8, 68, 127
2, 83027, Note_off_c, 8, 68, 127
2, 83029, Note_on_c, 6, 66, 127
2, 83111, Note_off_c, 6, 66, 127
2, 83114, Note_on_c, 8, 68, 127
2, 83196, Note_off_c, 8, 68, 127
2, 83196, Note_off_c, 8, 56, 127
2, 83198, Note_on_c, 6, 54, 127
2, 83198, Note_on_c, 10, 69, 127
2, 83367, Note_on_c, 4, 64, 127
2, 83534, Note_off_c, 4, 64, 127
2, 83536, Note_on_c, 3, 63, 127
2, 83703, Note_off_c, 3, 63, 127
2, 83705, Note_on_c, 1, 61, 127
2, 83872, Note_off_c, 1, 61, 127
2, 83874, Note_on_c, 12, 59, 127
2, 84041, Note_off_c, 12, 59, 127
2, 84043, Note_on_c, 11, 58, 127
2, 84148, Note_off_c, 6, 54, 127
2, 84210, Note_off_c, 11, 58, 127
2, 84212, Note_on_c, 8, 56, 127
2, 84212, Note_on_c, 12, 59, 127
2, 84379, Note_off_c, 12, 59, 127
2, 84381, Note_on_c, 1, 61, 127
2, 84548, Note_off_c, 1, 61, 127
2, 84548, Note_off_c, 8, 56, 127
2, 84550, Note_on_c, 6, 54, 127
2, 84550, Note_on_c, 3, 63, 127
2, 84717, Note_off_c, 3, 63, 127
2, 84719, Note_on_c, 4, 64, 127
2, 84886, Note_off_c, 4, 64, 127
2, 84886, Note_off_c, 6, 54, 127
2, 84888, Note_on_c, 4, 52, 127
2, 84888, Note_on_c, 6, 66, 127
2, 84970, Note_off_c, 6, 66, 127
2, 84972, Note_on_c, 4, 64, 127
2, 85054, Note_off_c, 4, 64, 127
2, 85057, Note_on_c, 3, 63, 127
2, 85139, Note_off_c, 3, 63, 127
2, 85141, Note_on_c, 4, 64, 127
2, 85222, Note_off_c, 10, 69, 127
2, 85223, Note_off_c, 4, 64, 127
2, 85224, Note_off_c, 4, 52, 127
2, 85226, Note_on_c, 4, 52, 127
2, 85226, Note_on_c, 6, 66, 127
2, 85562, Note_off_c, 6, 66, 127
2, 85562, Note_off_c, 4, 52, 127
2, 85564, Note_on_c, 3, 51, 127
2, 85564, Note_on_c, 6, 78, 127
2, 85900, Note_off_c, 6, 78, 127
2, 85902, Note_on_c, 6, 78, 127
2, 86069, Note_off_c, 3, 51, 127
2, 86071, Note_on_c, 12, 59, 127
2, 86238, Note_off_c, 12, 59, 127
2, 86238, Note_off_c, 6, 78, 127
2, 86240, Note_on_c, 1, 61, 127
2, 86240, Note_on_c, 6, 66, 127
2, 86240, Note_on_c, 10, 69, 127
2, 86407, Note_off_c, 1, 61, 127
2, 86408, Note_on_c, 3, 63, 127
2, 86575, Note_off_c, 3, 63, 127
2, 86576, Note_off_c, 10, 69, 127
2, 86576, Note_off_c, 6, 66, 127
2, 86577, Note_on_c, 8, 68, 127
2, 86577, Note_on_c, 4, 64, 127
2, 86746, Note_on_c, 1, 61, 127
2, 86913, Note_off_c, 1, 61, 127
2, 86913, Note_off_c, 4, 64, 127
2, 86913, Note_off_c, 8, 68, 127
2, 86915, Note_on_c, 12, 59, 127
2, 86915, Note_on_c, 12, 83, 127
2, 87082, Note_off_c, 12, 59, 127
2, 87084, Note_on_c, 10, 57, 127
2, 87251, Note_off_c, 10, 57, 127
2, 87251, Note_off_c, 12, 83, 127
2, 87253, Note_on_c, 8, 56, 127
2, 87253, Note_on_c, 12, 83, 127
2, 87420, Note_off_c, 8, 56, 127
2, 87422, Note_on_c, 6, 54, 127
2, 87589, Note_off_c, 6, 54, 127
2, 87589, Note_off_c, 12, 83, 127
2, 87591, Note_on_c, 8, 56, 127
2, 87591, Note_on_c, 4, 76, 127
2, 87591, Note_on_c, 8, 68, 127
2, 87758, Note_off_c, 8, 56, 127
2, 87760, Note_on_c, 10, 57, 127
2, 87927, Note_off_c, 10, 57, 127
2, 87927, Note_off_c, 8, 68, 127
2, 87927, Note_off_c, 4, 76, 127
2, 87929, Note_on_c, 12, 59, 127
2, 87929, Note_on_c, 3, 75, 127
2, 87929, Note_on_c, 6, 66, 127
2, 88096, Note_off_c, 12, 59, 127
2, 88098, Note_on_c, 8, 56, 127
2, 88265, Note_off_c, 8, 56, 127
2, 88265, Note_off_c, 6, 66, 127
2, 88265, Note_off_c, 3, 75, 127
2, 88267, Note_on_c, 6, 54, 127
2, 88267, Note_on_c, 10, 81, 127
2, 88434, Note_off_c, 6, 54, 127
2, 88436, Note_on_c, 4, 52, 127
2, 88603, Note_off_c, 4, 52, 127
2, 88603, Note_off_c, 10, 81, 127
2, 88605, Note_on_c, 3, 51, 127
2, 88605, Note_on_c, 10, 81, 127
2, 88772, Note_off_c, 3, 51, 127
2, 88774, Note_on_c, 1, 49, 127
2, 88941, Note_off_c, 1, 49, 127
2, 88941, Note_off_c, 10, 81, 127
2, 88943, Note_on_c, 3, 51, 127
2, 88943, Note_on_c, 10, 69, 127
2, 88943, Note_on_c, 6, 66, 127
2, 88943, Note_on_c, 12, 71, 127
2, 89110, Note_off_c, 3, 51, 127
2, 89112, Note_on_c, 4, 52, 127
2, 89279, Note_off_c, 4, 52, 127
2, 89279, Note_off_c, 12, 71, 127
2, 89279, Note_off_c, 6, 66, 127
2, 89279, Note_off_c, 10, 69, 127
2, 89281, Note_on_c, 6, 54, 127
2, 89281, Note_on_c, 10, 69, 127
2, 89281, Note_on_c, 3, 63, 127
2, 89281, Note_on_c, 12, 71, 127
2, 89448, Note_off_c, 6, 54, 127
2, 89450, Note_on_c, 3, 51, 127
2, 89617, Note_off_c, 3, 51, 127
2, 89619, Note_on_c, 1, 49, 127
2, 89786, Note_off_c, 1, 49, 127
2, 89788, Note_on_c, 12, 47, 127
2, 89955, Note_off_c, 12, 47, 127
2, 89955, Note_off_c, 3, 63, 127
2, 89957, Note_on_c, 4, 52, 127
2, 89957, Note_on_c, 4, 64, 127
2, 90125, Note_off_c, 10, 69, 127
2, 90126, Note_on_c, 8, 68, 127
2, 90293, Note_off_c, 4, 52, 127
2, 90293, Note_off_c, 12, 71, 127
2, 90295, Note_on_c, 1, 49, 127
2, 90295, Note_on_c, 1, 73, 127
2, 90462, Note_off_c, 1, 73, 127
2, 90464, Note_on_c, 4, 76, 127
2, 90625, Note_off_c, 4, 64, 127
2, 90631, Note_off_c, 1, 49, 127
2, 90632, Note_off_c, 8, 68, 127
2, 90632, Note_on_c, 10, 45, 127
2, 90632, Note_on_c, 6, 66, 127
2, 90798, Note_off_c, 4, 76, 127
2, 90801, Note_on_c, 4, 76, 127
2, 90966, Note_off_c, 6, 66, 127
2, 90968, Note_off_c, 10, 45, 127
2, 90970, Note_on_c, 12, 47, 127
2, 90970, Note_on_c, 10, 69, 127
2, 91135, Note_off_c, 4, 76, 127
2, 91139, Note_on_c, 3, 75, 127
2, 91304, Note_off_c, 10, 69, 127
2, 91306, Note_off_c, 3, 75, 127
2, 91306, Note_off_c, 12, 47, 127
2, 91308, Note_on_c, 4, 52, 127
2, 91308, Note_on_c, 8, 68, 127
2, 91477, Note_on_c, 12, 71, 127
2, 91644, Note_off_c, 12, 71, 127
2, 91644, Note_off_c, 4, 52, 127
2, 91646, Note_on_c, 4, 40, 127
2, 91646, Note_on_c, 4, 76, 127
2, 91813, Note_off_c, 4, 76, 127
2, 91815, Note_on_c, 3, 75, 127
2, 91976, Note_off_c, 8, 68, 127
2, 91982, Note_off_c, 3, 75, 127
2, 91982, Note_off_c, 4, 40, 127
2, 91984, Note_on_c, 4, 40, 127
2, 91984, Note_on_c, 4, 76, 127
2, 92153, Note_on_c, 12, 71, 127
2, 92320, Note_off_c, 12, 71, 127
2, 92320, Note_off_c, 4, 40, 127
2, 92322, Note_on_c, 4, 52, 127
2, 92322, Note_on_c, 10, 69, 127
2, 92489, Note_off_c, 10, 69, 127
2, 92491, Note_on_c, 12, 71, 127
2, 92652, Note_off_c, 4, 76, 127
2, 92658, Note_off_c, 12, 71, 127
2, 92658, Note_off_c, 4, 52, 127
2, 92660, Note_on_c, 4, 52, 127
2, 92660, Note_on_c, 1, 73, 127
2, 92829, Note_on_c, 10, 69, 127
2, 92996, Note_off_c, 10, 69, 127
2, 92996, Note_off_c, 4, 52, 127
2, 92998, Note_on_c, 4, 40, 127
2, 92998, Note_on_c, 8, 68, 127
2, 93165, Note_off_c, 8, 68, 127
2, 93167, Note_on_c, 10, 69, 127
2, 93328, Note_off_c, 1, 73, 127
2, 93334, Note_off_c, 4, 40, 127
2, 93336, Note_on_c, 4, 52, 127
2, 93336, Note_on_c, 12, 71, 127
2, 93503, Note_off_c, 12, 71, 127
2, 93505, Note_on_c, 1, 73, 127
2, 93672, Note_off_c, 1, 73, 127
2, 93672, Note_off_c, 4, 52, 127
2, 93674, Note_on_c, 4, 40, 127
2, 93674, Note_on_c, 2, 74, 127
2, 93841, Note_off_c, 2, 74, 127
2, 93843, Note_on_c, 1, 73, 127
2, 94010, Note_off_c, 1, 73, 127
2, 94010, Note_off_c, 4, 40, 127
2, 94011, Note_off_c, 10, 69, 127
2, 94012, Note_on_c, 4, 40, 127
2, 94012, Note_on_c, 2, 74, 127
2, 94181, Note_on_c, 10, 69, 127
2, 94348, Note_off_c, 10, 69, 127
2, 94348, Note_off_c, 4, 40, 127
2, 94350, Note_on_c, 4, 52, 127
2, 94350, Note_on_c, 8, 68, 127
2, 94517, Note_off_c, 8, 68, 127
2, 94519, Note_on_c, 10, 69, 127
2, 94680, Note_off_c, 2, 74, 127
2, 94686, Note_off_c, 4, 52, 127
2, 94688, Note_on_c, 4, 52, 127
2, 94688, Note_on_c, 12, 71, 127
2, 94853, Note_off_c, 10, 69, 127
2, 94856, Note_on_c, 8, 68, 127
2, 95023, Note_off_c, 8, 68, 127
2, 95024, Note_off_c, 4, 52, 127
2, 95025, Note_on_c, 4, 40, 127
2, 95025, Note_on_c, 6, 66, 127
2, 95192, Note_off_c, 6, 66, 127
2, 95194, Note_on_c, 8, 68, 127
2, 95356, Note_off_c, 12, 71, 127
2, 95361, Note_off_c, 4, 40, 127
2, 95363, Note_on_c, 4, 52, 127
2, 95363, Note_on_c, 10, 69, 127
2, 95530, Note_off_c, 10, 69, 127
2, 95532, Note_on_c, 12, 71, 127
2, 95699, Note_off_c, 12, 71, 127
2, 95699, Note_off_c, 4, 52, 127
2, 95701, Note_on_c, 4, 40, 127
2, 95701, Note_on_c, 0, 72, 127
2, 95868, Note_off_c, 0, 72, 127
2, 95870, Note_on_c, 12, 71, 127
2, 96037, Note_off_c, 12, 71, 127
2, 96037, Note_off_c, 4, 40, 127
2, 96038, Note_off_c, 8, 68, 127
2, 96039, Note_on_c, 4, 40, 127
2, 96039, Note_on_c, 0, 72, 127
2, 96208, Note_on_c, 8, 68, 127
2, 96375, Note_off_c, 8, 68, 127
2, 96375, Note_off_c, 4, 40, 127
2, 96377, Note_on_c, 4, 52, 127
2, 96377, Note_on_c, 6, 66, 127
2, 96544, Note_off_c, 6, 66, 127
2, 96546, Note_on_c, 8, 68, 127
2, 96707, Note_off_c, 0, 72, 127
2, 96713, Note_off_c, 8, 68, 127
2, 96713, Note_off_c, 4, 52, 127
2, 96715, Note_on_c, 4, 52, 127
2, 96715, Note_on_c, 10, 69, 127
2, 96884, Note_on_c, 6, 66, 127
2, 97051, Note_off_c, 6, 66, 127
2, 97051, Note_off_c, 4, 52, 127
2, 97053, Note_on_c, 4, 40, 127
2, 97053, Note_on_c, 4, 64, 127
2, 97220, Note_off_c, 4, 64, 127
2, 97222, Note_on_c, 6, 66, 127
2, 97389, Note_off_c, 4, 40, 127
2, 97391, Note_on_c, 3, 39, 127
2, 97391, Note_on_c, 12, 59, 127
2, 97558, Note_off_c, 3, 39, 127
2, 97560, Note_on_c, 6, 42, 127
2, 97727, Note_off_c, 6, 42, 127
2, 97729, Note_on_c, 12, 47, 127
2, 97896, Note_off_c, 12, 47, 127
2, 97898, Note_on_c, 1, 49, 127
2, 98059, Note_off_c, 12, 59, 127
2, 98064, Note_off_c, 10, 69, 127
2, 98065, Note_off_c, 1, 49, 127
2, 98066, Note_off_c, 6, 66, 127
2, 98067, Note_on_c, 3, 51, 127
2, 98234, Note_off_c, 3, 51, 127
2, 98236, Note_on_c, 4, 52, 127
2, 98403, Note_off_c, 4, 52, 127
2, 98405, Note_on_c, 6, 54, 127
2, 98572, Note_off_c, 6, 54, 127
2, 98574, Note_on_c, 8, 56, 127
2, 98741, Note_off_c, 8, 56, 127
2, 98743, Note_on_c, 10, 57, 127
2, 98910, Note_off_c, 10, 57, 127
2, 98912, Note_on_c, 12, 59, 127
2, 99079, Note_off_c, 12, 59, 127
2, 99080, Note_on_c, 1, 61, 127
2, 99247, Note_off_c, 1, 61, 127
2, 99249, Note_on_c, 3, 63, 127
2, 99416, Note_off_c, 3, 63, 127
2, 99418, Note_on_c, 4, 64, 127
2, 99418, Note_on_c, 8, 68, 127
2, 99587, Note_on_c, 1, 61, 127
2, 99754, Note_off_c, 1, 61, 127
2, 99756, Note_on_c, 12, 59, 127
2, 99923, Note_off_c, 12, 59, 127
2, 99925, Note_on_c, 11, 58, 127
2, 100086, Note_off_c, 4, 64, 127
2, 100092, Note_off_c, 11, 58, 127
2, 100094, Note_on_c, 12, 59, 127
2, 100261, Note_off_c, 8, 68, 127
2, 100263, Note_on_c, 8, 68, 127
2, 100430, Note_off_c, 8, 68, 127
2, 100432, Note_on_c, 6, 66, 127
2, 100599, Note_off_c, 6, 66, 127
2, 100601, Note_on_c, 4, 64, 127
2, 100768, Note_off_c, 4, 64, 127
2, 100770, Note_on_c, 12, 47, 127
2, 100770, Note_on_c, 6, 66, 127
2, 100939, Note_on_c, 1, 61, 127
2, 101106, Note_off_c, 1, 61, 127
2, 101108, Note_on_c, 3, 63, 127
2, 101274, Note_off_c, 12, 59, 127
2, 101277, Note_on_c, 10, 57, 127
2, 101438, Note_off_c, 6, 66, 127
2, 101438, Note_off_c, 12, 47, 127
2, 101442, Note_off_c, 3, 63, 127
2, 101444, Note_off_c, 10, 57, 127
2, 101446, Note_on_c, 8, 56, 127
2, 101446, Note_on_c, 4, 52, 127
2, 101617, Note_on_c, 12, 59, 127
2, 101785, Note_off_c, 12, 59, 127
2, 101785, Note_off_c, 8, 56, 127
2, 101787, Note_on_c, 6, 54, 127
2, 101787, Note_on_c, 4, 64, 127
2, 101955, Note_off_c, 4, 64, 127
2, 101958, Note_on_c, 3, 63, 127
2, 102126, Note_off_c, 3, 63, 127
2, 102126, Note_off_c, 6, 54, 127
2, 102129, Note_on_c, 8, 56, 127
2, 102129, Note_on_c, 4, 64, 127
2, 102297, Note_off_c, 4, 64, 127
2, 102300, Note_on_c, 12, 59, 127
2, 102468, Note_off_c, 12, 59, 127
2, 102468, Note_off_c, 8, 56, 127
2, 102470, Note_on_c, 12, 59, 127
2, 102470, Note_on_c, 8, 68, 127
2, 102638, Note_off_c, 8, 68, 127
2, 102641, Note_on_c, 4, 64, 127
2, 102809, Note_off_c, 4, 64, 127
2, 102809, Note_off_c, 12, 59, 127
2, 102812, Note_on_c, 10, 57, 127
2, 102812, Note_on_c, 12, 71, 127
2, 102982, Note_on_c, 6, 66, 127
2, 103150, Note_off_c, 6, 66, 127
2, 103151, Note_off_c, 10, 57, 127
2, 103153, Note_on_c, 8, 56, 127
2, 103153, Note_on_c, 4, 64, 127
2, 103321, Note_off_c, 4, 64, 127
2, 103324, Note_on_c, 2, 62, 127
2, 103492, Note_off_c, 2, 62, 127
2, 103492, Note_off_c, 8, 56, 127
2, 103495, Note_on_c, 10, 57, 127
2, 103495, Note_on_c, 1, 61, 127
2, 103669, Note_off_c, 12, 71, 127
2, 103669, Note_on_c, 4, 64, 127
2, 103839, Note_off_c, 1, 61, 127
2, 103841, Note_off_c, 4, 64, 127
2, 103841, Note_off_c, 10, 57, 127
2, 103843, Note_on_c, 12, 59, 127
2, 103843, Note_on_c, 10, 69, 127
2, 104015, Note_off_c, 10, 69, 127
2, 104017, Note_on_c, 8, 68, 127
2, 104189, Note_off_c, 8, 68, 127
2, 104189, Note_off_c, 12, 59, 127
2, 104192, Note_on_c, 1, 61, 127
2, 104192, Note_on_c, 10, 69, 127
2, 104364, Note_off_c, 10, 69, 127
2, 104366, Note_on_c, 4, 64, 127
2, 104538, Note_off_c, 4, 64, 127
2, 104538, Note_off_c, 1, 61, 127
2, 104540, Note_on_c, 4, 64, 127
2, 104540, Note_on_c, 1, 73, 127
2, 104712, Note_off_c, 1, 73, 127
2, 104714, Note_on_c, 10, 69, 127
2, 104886, Note_off_c, 10, 69, 127
2, 104886, Note_off_c, 4, 64, 127
2, 104888, Note_on_c, 10, 57, 127
2, 104888, Note_on_c, 4, 76, 127
2, 105063, Note_on_c, 12, 71, 127
2, 105235, Note_off_c, 12, 71, 127
2, 105237, Note_on_c, 12, 59, 127
2, 105237, Note_on_c, 10, 69, 127
2, 105409, Note_off_c, 10, 69, 127
2, 105411, Note_on_c, 8, 68, 127
2, 105578, Note_off_c, 4, 52, 127
2, 105583, Note_off_c, 8, 68, 127
2, 105583, Note_off_c, 12, 59, 127
2, 105585, Note_on_c, 0, 60, 127
2, 105585, Note_on_c, 6, 66, 127
2, 105585, Note_on_c, 4, 52, 127
2, 105768, Note_off_c, 4, 76, 127
2, 105768, Note_on_c, 10, 69, 127
2, 105945, Note_off_c, 6, 66, 127
2, 105947, Note_off_c, 10, 69, 127
2, 105950, Note_on_c, 3, 75, 127
2, 106131, Note_off_c, 3, 75, 127
2, 106133, Note_on_c, 1, 73, 127
2, 106306, Note_off_c, 0, 60, 127
2, 106311, Note_off_c, 10, 57, 127
2, 106312, Note_off_c, 1, 73, 127
2, 106314, Note_on_c, 3, 75, 127
2, 106504, Note_off_c, 3, 75, 127
2, 106506, Note_on_c, 10, 69, 127
2, 106696, Note_off_c, 10, 69, 127
2, 106698, Note_on_c, 10, 57, 127
2, 106698, Note_on_c, 0, 60, 127
2, 106698, Note_on_c, 6, 78, 127
2, 106888, Note_off_c, 6, 78, 127
2, 106890, Note_on_c, 3, 75, 127
2, 107079, Note_off_c, 0, 60, 127
2, 107079, Note_off_c, 10, 57, 127
2, 107080, Note_off_c, 3, 75, 127
2, 107081, Note_on_c, 10, 57, 127
2, 107081, Note_on_c, 0, 60, 127
2, 107081, Note_on_c, 10, 81, 127
2, 107283, Note_off_c, 10, 81, 127
2, 107286, Note_on_c, 6, 78, 127
2, 107487, Note_off_c, 0, 60, 127
2, 107487, Note_off_c, 10, 57, 127
2, 107488, Note_off_c, 6, 78, 127
2, 107490, Note_on_c, 10, 57, 127
2, 107490, Note_on_c, 0, 60, 127
2, 107490, Note_on_c, 4, 76, 127
2, 107692, Note_off_c, 4, 76, 127
2, 107694, Note_on_c, 3, 75, 127
2, 107913, Note_off_c, 4, 52, 127
2, 107916, Note_off_c, 3, 75, 127
2, 107916, Note_off_c, 0, 60, 127
2, 107916, Note_off_c, 10, 57, 127
2, 107930, Note_on_c, 8, 56, 127
2, 107930, Note_on_c, 4, 52, 127
2, 107930, Note_on_c, 12, 59, 127
2, 107930, Note_on_c, 4, 76, 127
2, 111456, Note_off_c, 4, 76, 127
2, 111456, Note_off_c, 12, 59, 127
2, 111456, Note_off_c, 4, 52, 127
2, 111456, Note_off_c, 8, 56, 127
2, 111541, Note_on_c, 4, 52, 127
2, 112815, Note_off_c, 4, 52, 127
2, 112817, Note_on_c, 6, 54, 127
2, 113454, Note_off_c, 6, 54, 127
2, 113456, Note_on_c, 10, 57, 127
2, 114093, Note_off_c, 10, 57, 127
2, 114095, Note_on_c, 8, 56, 127
2, 114732, Note_off_c, 8, 56, 127
2, 114733, Note_on_c, 6, 54, 127
2, 115370, Note_off_c, 6, 54, 127
2, 115372, Note_on_c, 12, 59, 127
2, 115372, Note_on_c, 4, 52, 127
2, 115713, Note_off_c, 4, 52, 127
2, 115716, Note_on_c, 3, 51, 127
2, 115884, Note_off_c, 3, 51, 127
2, 115886, Note_on_c, 1, 49, 127
2, 116054, Note_off_c, 1, 49, 127
2, 116057, Note_on_c, 3, 51, 127
2, 116398, Note_off_c, 3, 51, 127
2, 116400, Note_on_c, 12, 47, 127
2, 116737, Note_off_c, 12, 59, 127
2, 116741, Note_off_c, 12, 47, 127
2, 116743, Note_on_c, 1, 61, 127
2, 116743, Note_on_c, 4, 52, 127
2, 117084, Note_off_c, 4, 52, 127
2, 117087, Note_on_c, 6, 54, 127
2, 117427, Note_off_c, 1, 61, 127
2, 117428, Note_off_c, 6, 54, 127
2, 117430, Note_on_c, 4, 64, 127
2, 117430, Note_on_c, 8, 56, 127
2, 117771, Note_off_c, 8, 56, 127
2, 117773, Note_on_c, 11, 58, 127
2, 118114, Note_off_c, 11, 58, 127
2, 118114, Note_off_c, 4, 64, 127
2, 118116, Note_on_c, 3, 63, 127
2, 118116, Note_on_c, 12, 59, 127
2, 118284, Note_off_c, 12, 59, 127
2, 118287, Note_on_c, 6, 54, 127
2, 118455, Note_off_c, 6, 54, 127
2, 118458, Note_on_c, 12, 59, 127
2, 118798, Note_off_c, 3, 63, 127
2, 118801, Note_on_c, 1, 61, 127
2, 119142, Note_off_c, 12, 59, 127
2, 119144, Note_on_c, 10, 57, 127
2, 119485, Note_off_c, 1, 61, 127
2, 119487, Note_on_c, 4, 64, 127
2, 119487, Note_on_c, 12, 59, 127
2, 119828, Note_off_c, 10, 57, 127
2, 119830, Note_on_c, 8, 56, 127
2, 119998, Note_off_c, 8, 56, 127
2, 120001, Note_on_c, 6, 54, 127
2, 120169, Note_off_c, 6, 54, 127
2, 120172, Note_on_c, 8, 56, 127
2, 120513, Note_off_c, 12, 59, 127
2, 120515, Note_on_c, 12, 59, 127
2, 120856, Note_off_c, 12, 59, 127
2, 120856, Note_off_c, 8, 56, 127
2, 120856, Note_off_c, 4, 64, 127
2, 120858, Note_on_c, 6, 66, 127
2, 120858, Note_on_c, 10, 57, 127
2, 121201, Note_on_c, 12, 59, 127
2, 121542, Note_off_c, 12, 59, 127
2, 121542, Note_off_c, 10, 57, 127
2, 121542, Note_off_c, 6, 66, 127
2, 121545, Note_on_c, 10, 69, 127
2, 121545, Note_on_c, 1, 61, 127
2, 121545, Note_on_c, 6, 54, 127
2, 121886, Note_off_c, 1, 61, 127
2, 121888, Note_on_c, 3, 63, 127
2, 122229, Note_off_c, 3, 63, 127
2, 122229, Note_off_c, 6, 54, 127
2, 122229, Note_off_c, 10, 69, 127
2, 122231, Note_on_c, 8, 68, 127
2, 122231, Note_on_c, 4, 64, 127
2, 122231, Note_on_c, 8, 56, 127
2, 122399, Note_off_c, 4, 64, 127
2, 122402, Note_on_c, 12, 59, 127
2, 122570, Note_off_c, 12, 59, 127
2, 122572, Note_on_c, 4, 64, 127
2, 122913, Note_off_c, 8, 56, 127
2, 122913, Note_off_c, 8, 68, 127
2, 122916, Note_on_c, 6, 66, 127
2, 122916, Note_on_c, 10, 57, 127
2, 123256, Note_off_c, 4, 64, 127
2, 123257, Note_off_c, 10, 57, 127
2, 123259, Note_on_c, 3, 63, 127
2, 123259, Note_on_c, 12, 59, 127
2, 123427, Note_off_c, 12, 59, 127
2, 123430, Note_on_c, 10, 57, 127
2, 123596, Note_off_c, 3, 63, 127
2, 123598, Note_off_c, 10, 57, 127
2, 123598, Note_off_c, 6, 66, 127
2, 123600, Note_on_c, 12, 71, 127
2, 123600, Note_on_c, 8, 56, 127
2, 123600, Note_on_c, 4, 64, 127
2, 123946, Note_off_c, 8, 56, 127
2, 123949, Note_on_c, 6, 54, 127
2, 124295, Note_off_c, 6, 54, 127
2, 124295, Note_off_c, 4, 64, 127
2, 124297, Note_on_c, 4, 52, 127
2, 124297, Note_on_c, 8, 56, 127
2, 124643, Note_off_c, 8, 56, 127
2, 124643, Note_off_c, 4, 52, 127
2, 124646, Note_on_c, 12, 59, 127
2, 124646, Note_on_c, 6, 54, 127
2, 124646, Note_on_c, 3, 51, 127
2, 124988, Note_off_c, 12, 71, 127
2, 124992, Note_off_c, 3, 51, 127
2, 124992, Note_off_c, 6, 54, 127
2, 124992, Note_off_c, 12, 59, 127
2, 124994, Note_on_c, 4, 64, 127
2, 124994, Note_on_c, 1, 73, 127
2, 124994, Note_on_c, 1, 49, 127
2, 124994, Note_on_c, 8, 56, 127
2, 125340, Note_off_c, 4, 64, 127
2, 125343, Note_on_c, 6, 66, 127
2, 125689, Note_off_c, 6, 66, 127
2, 125689, Note_off_c, 8, 56, 127
2, 125689, Note_off_c, 1, 73, 127
2, 125691, Note_on_c, 4, 76, 127
2, 125691, Note_on_c, 8, 68, 127
2, 125691, Note_on_c, 4, 52, 127
2, 126037, Note_off_c, 8, 68, 127
2, 126040, Note_on_c, 11, 70, 127
2, 126382, Note_off_c, 1, 49, 127
2, 126386, Note_off_c, 11, 70, 127
2, 126386, Note_off_c, 4, 52, 127
2, 126386, Note_off_c, 4, 76, 127
2, 126388, Note_on_c, 3, 75, 127
2, 126388, Note_on_c, 12, 71, 127
2, 126388, Note_on_c, 6, 54, 127
2, 126388, Note_on_c, 12, 47, 127
2, 126560, Note_off_c, 12, 71, 127
2, 126562, Note_on_c, 6, 66, 127
2, 126734, Note_off_c, 6, 66, 127
2, 126737, Note_on_c, 12, 71, 127
2, 127083, Note_off_c, 12, 47, 127
2, 127083, Note_off_c, 3, 75, 127
2, 127085, Note_on_c, 1, 73, 127
2, 127085, Note_on_c, 6, 42, 127
2, 127432, Note_off_c, 12, 71, 127
2, 127434, Note_on_c, 10, 69, 127
2, 127780, Note_off_c, 6, 42, 127
2, 127780, Note_off_c, 1, 73, 127
2, 127782, Note_on_c, 12, 71, 127
2, 127782, Note_on_c, 8, 44, 127
2, 128129, Note_off_c, 10, 69, 127
2, 128130, Note_off_c, 6, 54, 127
2, 128131, Note_on_c, 8, 68, 127
2, 128131, Note_on_c, 12, 47, 127
2, 128303, Note_off_c, 8, 68, 127
2, 128305, Note_on_c, 6, 66, 127
2, 128477, Note_off_c, 6, 66, 127
2, 128477, Note_off_c, 12, 47, 127
2, 128479, Note_on_c, 8, 68, 127
2, 128479, Note_on_c, 4, 52, 127
2, 128825, Note_off_c, 8, 44, 127
2, 128828, Note_on_c, 4, 40, 127
2, 129174, Note_off_c, 4, 40, 127
2, 129174, Note_off_c, 8, 68, 127
2, 129176, Note_on_c, 1, 61, 127
2, 129176, Note_on_c, 10, 45, 127
2, 129522, Note_off_c, 4, 52, 127
2, 129524, Note_off_c, 12, 71, 127
2, 129524, Note_on_c, 10, 69, 127
2, 129524, Note_on_c, 1, 49, 127
2, 129696, Note_off_c, 10, 69, 127
2, 129699, Note_on_c, 8, 68, 127
2, 129870, Note_off_c, 1, 49, 127
2, 129871, Note_off_c, 8, 68, 127
2, 129873, Note_on_c, 10, 69, 127
2, 129873, Note_on_c, 6, 54, 127
2, 130219, Note_off_c, 10, 45, 127
2, 130219, Note_off_c, 1, 61, 127
2, 130221, Note_on_c, 3, 63, 127
2, 130221, Note_on_c, 6, 42, 127
2, 130393, Note_off_c, 3, 63, 127
2, 130396, Note_on_c, 4, 64, 127
2, 130567, Note_off_c, 6, 42, 127
2, 130568, Note_off_c, 4, 64, 127
2, 130570, Note_on_c, 3, 63, 127
2, 130570, Note_on_c, 12, 47, 127
2, 130916, Note_off_c, 6, 54, 127
2, 130918, Note_on_c, 4, 52, 127
2, 131090, Note_off_c, 4, 52, 127
2, 131093, Note_on_c, 6, 54, 127
2, 131261, Note_off_c, 10, 69, 127
2, 131265, Note_off_c, 6, 54, 127
2, 131265, Note_off_c, 3, 63, 127
2, 131267, Note_on_c, 8, 68, 127
2, 131267, Note_on_c, 4, 64, 127
2, 131267, Note_on_c, 8, 56, 127
2, 131613, Note_off_c, 8, 56, 127
2, 131615, Note_on_c, 10, 57, 127
2, 131961, Note_off_c, 10, 57, 127
2, 131962, Note_off_c, 8, 68, 127
2, 131964, Note_on_c, 6, 66, 127
2, 131964, Note_on_c, 12, 59, 127
2, 132136, Note_off_c, 12, 59, 127
2, 132138, Note_on_c, 6, 54, 127
2, 132310, Note_off_c, 6, 54, 127
2, 132310, Note_off_c, 4, 64, 127
2, 132312, Note_on_c, 3, 63, 127
2, 132312, Note_on_c, 12, 59, 127
2, 132658, Note_off_c, 3, 63, 127
2, 132659, Note_off_c, 6, 66, 127
2, 132661, Note_on_c, 1, 61, 127
2, 132661, Note_on_c, 4, 64, 127
2, 133007, Note_off_c, 12, 59, 127
2, 133009, Note_on_c, 11, 58, 127
2, 133355, Note_off_c, 11, 58, 127
2, 133356, Note_off_c, 4, 64, 127
2, 133356, Note_off_c, 1, 61, 127
2, 133358, Note_on_c, 6, 54, 127
2, 133358, Note_on_c, 3, 63, 127
2, 133358, Note_on_c, 12, 59, 127
2, 134047, Note_off_c, 12, 47, 127
2, 134053, Note_off_c, 12, 59, 127
2, 134053, Note_off_c, 3, 63, 127
2, 134053, Note_off_c, 6, 54, 127
2, 134055, Note_on_c, 12, 59, 127
2, 134750, Note_off_c, 12, 59, 127
2, 134752, Note_on_c, 1, 61, 127
2, 134752, Note_on_c, 4, 52, 127
2, 135447, Note_off_c, 1, 61, 127
2, 135449, Note_on_c, 4, 64, 127
2, 136144, Note_off_c, 4, 64, 127
2, 136144, Note_off_c, 4, 52, 127
2, 136146, Note_on_c, 3, 63, 127
2, 136146, Note_on_c, 6, 54, 127
2, 136841, Note_off_c, 6, 54, 127
2, 136841, Note_off_c, 3, 63, 127
2, 136843, Note_on_c, 1, 61, 127
2, 136843, Note_on_c, 10, 57, 127
2, 137538, Note_off_c, 10, 57, 127
2, 137538, Note_off_c, 1, 61, 127
2, 137540, Note_on_c, 12, 59, 127
2, 137540, Note_on_c, 8, 56, 127
2, 137540, Note_on_c, 12, 47, 127
2, 137886, Note_off_c, 12, 59, 127
2, 137888, Note_on_c, 4, 64, 127
2, 138235, Note_off_c, 8, 56, 127
2, 138236, Note_on_c, 6, 54, 127
2, 138583, Note_off_c, 4, 64, 127
2, 138585, Note_on_c, 3, 63, 127
2, 138928, Note_off_c, 12, 47, 127
2, 138929, Note_off_c, 3, 63, 127
2, 138931, Note_off_c, 6, 54, 127
2, 138933, Note_on_c, 4, 64, 127
2, 138933, Note_on_c, 1, 49, 127
2, 138933, Note_on_c, 4, 52, 127
2, 139279, Note_off_c, 4, 52, 127
2, 139282, Note_on_c, 1, 61, 127
2, 139282, Note_on_c, 10, 57, 127
2, 139628, Note_off_c, 1, 49, 127
2, 139630, Note_on_c, 4, 52, 127
2, 139977, Note_off_c, 10, 57, 127
2, 139977, Note_off_c, 1, 61, 127
2, 139979, Note_on_c, 12, 59, 127
2, 139979, Note_on_c, 8, 56, 127
2, 140151, Note_off_c, 12, 59, 127
2, 140153, Note_on_c, 11, 58, 127
2, 140321, Note_off_c, 4, 64, 127
2, 140325, Note_off_c, 11, 58, 127
2, 140325, Note_off_c, 8, 56, 127
2, 140325, Note_off_c, 4, 52, 127
2, 140327, Note_on_c, 6, 66, 127
2, 140327, Note_on_c, 12, 59, 127
2, 140327, Note_on_c, 6, 54, 127
2, 140327, Note_on_c, 3, 51, 127
2, 140673, Note_off_c, 3, 51, 127
2, 140673, Note_off_c, 12, 59, 127
2, 140673, Note_off_c, 6, 66, 127
2, 140676, Note_on_c, 6, 66, 127
2, 140676, Note_on_c, 4, 52, 127
2, 140848, Note_off_c, 4, 52, 127
2, 140850, Note_on_c, 3, 51, 127
2, 141016, Note_off_c, 6, 54, 127
2, 141022, Note_off_c, 3, 51, 127
2, 141024, Note_on_c, 10, 69, 127
2, 141024, Note_on_c, 1, 49, 127
2, 141024, Note_on_c, 4, 52, 127
2, 141370, Note_off_c, 4, 52, 127
2, 141371, Note_off_c, 6, 66, 127
2, 141373, Note_on_c, 4, 64, 127
2, 141373, Note_on_c, 6, 54, 127
2, 141545, Note_off_c, 4, 64, 127
2, 141547, Note_on_c, 3, 63, 127
2, 141719, Note_off_c, 3, 63, 127
2, 141719, Note_off_c, 6, 54, 127
2, 141719, Note_off_c, 1, 49, 127
2, 141719, Note_off_c, 10, 69, 127
2, 141721, Note_on_c, 8, 68, 127
2, 141721, Note_on_c, 4, 64, 127
2, 141721, Note_on_c, 8, 56, 127
2, 141721, Note_on_c, 12, 47, 127
2, 142067, Note_off_c, 8, 56, 127
2, 142070, Note_on_c, 10, 57, 127
2, 142416, Note_off_c, 10, 57, 127
2, 142416, Note_off_c, 8, 68, 127
2, 142418, Note_on_c, 6, 66, 127
2, 142418, Note_on_c, 12, 59, 127
2, 142590, Note_off_c, 12, 59, 127
2, 142592, Note_on_c, 6, 54, 127
2, 142764, Note_off_c, 6, 54, 127
2, 142764, Note_off_c, 4, 64, 127
2, 142767, Note_on_c, 3, 63, 127
2, 142767, Note_on_c, 10, 57, 127
2, 143109, Note_off_c, 12, 47, 127
2, 143113, Note_off_c, 10, 57, 127
2, 143113, Note_off_c, 3, 63, 127
2, 143113, Note_off_c, 6, 66, 127
2, 143115, Note_on_c, 5, 65, 127
2, 143115, Note_on_c, 1, 61, 127
2, 143115, Note_on_c, 8, 56, 127
2, 143115, Note_on_c, 12, 47, 127
2, 143461, Note_off_c, 5, 65, 127
2, 143464, Note_on_c, 6, 66, 127
2, 143810, Note_off_c, 6, 66, 127
2, 143810, Note_off_c, 12, 47, 127
2, 143810, Note_off_c, 8, 56, 127
2, 143812, Note_on_c, 8, 68, 127
2, 143812, Note_on_c, 6, 54, 127
2, 143812, Note_on_c, 10, 45, 127
2, 144158, Note_off_c, 8, 68, 127
2, 144161, Note_on_c, 10, 69, 127
2, 144503, Note_off_c, 1, 61, 127
2, 144507, Note_off_c, 10, 69, 127
2, 144507, Note_off_c, 10, 45, 127
2, 144509, Note_on_c, 12, 71, 127
2, 144509, Note_on_c, 12, 59, 127
2, 144509, Note_on_c, 8, 44, 127
2, 144855, Note_off_c, 12, 59, 127
2, 144855, Note_off_c, 12, 71, 127
2, 144858, Note_on_c, 6, 66, 127
2, 144858, Note_on_c, 1, 61, 127
2, 145200, Note_off_c, 6, 54, 127
2, 145204, Note_off_c, 1, 61, 127
2, 145204, Note_off_c, 6, 66, 127
2, 145206, Note_on_c, 3, 63, 127
2, 145206, Note_on_c, 12, 71, 127
2, 145206, Note_on_c, 4, 52, 127
2, 145552, Note_off_c, 3, 63, 127
2, 145555, Note_on_c, 4, 64, 127
2, 145897, Note_off_c, 8, 44, 127
2, 145901, Note_off_c, 4, 64, 127
2, 145901, Note_off_c, 4, 52, 127
2, 145903, Note_on_c, 6, 66, 127
2, 145903, Note_on_c, 3, 51, 127
2, 145903, Note_on_c, 6, 42, 127
2, 146249, Note_off_c, 6, 42, 127
2, 146249, Note_off_c, 3, 51, 127
2, 146249, Note_off_c, 6, 66, 127
2, 146252, Note_on_c, 1, 61, 127
2, 146252, Note_on_c, 8, 44, 127
2, 146252, Note_on_c, 5, 53, 127
2, 146594, Note_off_c, 12, 71, 127
2, 146598, Note_off_c, 5, 53, 127
2, 146598, Note_off_c, 8, 44, 127
2, 146598, Note_off_c, 1, 61, 127
2, 146600, Note_on_c, 6, 66, 127
2, 146600, Note_on_c, 10, 69, 127
2, 146600, Note_on_c, 6, 54, 127
2, 146600, Note_on_c, 10, 45, 127
2, 146946, Note_off_c, 10, 45, 127
2, 146948, Note_on_c, 12, 47, 127
2, 147294, Note_off_c, 12, 47, 127
2, 147295, Note_off_c, 6, 54, 127
2, 147295, Note_off_c, 10, 69, 127
2, 147297, Note_on_c, 8, 68, 127
2, 147297, Note_on_c, 1, 49, 127
2, 147643, Note_off_c, 1, 49, 127
2, 147645, Note_on_c, 3, 51, 127
2, 147645, Note_on_c, 8, 44, 127
2, 147988, Note_off_c, 6, 66, 127
2, 147991, Note_off_c, 8, 44, 127
2, 147991, Note_off_c, 3, 51, 127
2, 147994, Note_on_c, 4, 64, 127
2, 147994, Note_on_c, 4, 52, 127
2, 147994, Note_on_c, 1, 49, 127
2, 148340, Note_off_c, 4, 52, 127
2, 148342, Note_on_c, 6, 54, 127
2, 148688, Note_off_c, 6, 54, 127
2, 148689, Note_off_c, 4, 64, 127
2, 148691, Note_on_c, 3, 63, 127
2, 148691, Note_on_c, 8, 56, 127
2, 149037, Note_off_c, 8, 56, 127
2, 149039, Note_on_c, 3, 51, 127
2, 149382, Note_off_c, 1, 49, 127
2, 149385, Note_off_c, 3, 51, 127
2, 149388, Note_on_c, 8, 56, 127
2, 149388, Note_on_c, 12, 47, 127
2, 149729, Note_off_c, 8, 68, 127
2, 149736, Note_on_c, 10, 69, 127
2, 149908, Note_off_c, 10, 69, 127
2, 149911, Note_on_c, 12, 71, 127
2, 150079, Note_off_c, 3, 63, 127
2, 150083, Note_off_c, 12, 71, 127
2, 150083, Note_off_c, 12, 47, 127
2, 150085, Note_on_c, 1, 73, 127
2, 150085, Note_on_c, 1, 61, 127
2, 150085, Note_on_c, 10, 45, 127
2, 150431, Note_off_c, 1, 61, 127
2, 150431, Note_off_c, 1, 73, 127
2, 150433, Note_on_c, 0, 72, 127
2, 150433, Note_on_c, 3, 63, 127
2, 150776, Note_off_c, 8, 56, 127
2, 150779, Note_off_c, 3, 63, 127
2, 150779, Note_off_c, 0, 72, 127
2, 150782, Note_on_c, 1, 73, 127
2, 150782, Note_on_c, 4, 64, 127
2, 150782, Note_on_c, 6, 54, 127
2, 151128, Note_off_c, 4, 64, 127
2, 151128, Note_off_c, 1, 73, 127
2, 151130, Note_on_c, 3, 75, 127
2, 151130, Note_on_c, 6, 66, 127
2, 151473, Note_off_c, 10, 45, 127
2, 151476, Note_off_c, 6, 66, 127
2, 151476, Note_off_c, 3, 75, 127
2, 151479, Note_on_c, 0, 72, 127
2, 151479, Note_on_c, 8, 68, 127
2, 151479, Note_on_c, 8, 44, 127
2, 151825, Note_off_c, 0, 72, 127
2, 151825, Note_off_c, 6, 54, 127
2, 151827, Note_on_c, 1, 73, 127
2, 151827, Note_on_c, 4, 52, 127
2, 152173, Note_off_c, 4, 52, 127
2, 152174, Note_off_c, 8, 68, 127
2, 152176, Note_on_c, 6, 66, 127
2, 152176, Note_on_c, 3, 51, 127
2, 152522, Note_off_c, 1, 73, 127
2, 152524, Note_on_c, 0, 72, 127
2, 152867, Note_off_c, 8, 44, 127
2, 152870, Note_off_c, 0, 72, 127
2, 152871, Note_off_c, 3, 51, 127
2, 152871, Note_off_c, 6, 66, 127
2, 152873, Note_on_c, 1, 73, 127
2, 152873, Note_on_c, 4, 64, 127
2, 152873, Note_on_c, 1, 49, 127
2, 153221, Note_on_c, 8, 56, 127
2, 153567, Note_off_c, 8, 56, 127
2, 153568, Note_off_c, 1, 49, 127
2, 153570, Note_on_c, 1, 61, 127
2, 153918, Note_on_c, 1, 49, 127
2, 154264, Note_off_c, 1, 49, 127
2, 154265, Note_off_c, 4, 64, 127
2, 154265, Note_off_c, 1, 73, 127
2, 154267, Note_on_c, 6, 66, 127
2, 154267, Note_on_c, 2, 50, 127
2, 154613, Note_off_c, 1, 61, 127
2, 154615, Note_on_c, 12, 59, 127
2, 154787, Note_off_c, 12, 59, 127
2, 154789, Note_on_c, 11, 58, 127
2, 154961, Note_off_c, 11, 58, 127
2, 154962, Note_off_c, 6, 66, 127
2, 154964, Note_on_c, 10, 69, 127
2, 154964, Note_on_c, 12, 59, 127
2, 155310, Note_off_c, 2, 50, 127
2, 155312, Note_on_c, 3, 51, 127
2, 155658, Note_off_c, 3, 51, 127
2, 155659, Note_off_c, 10, 69, 127
2, 155660, Note_on_c, 12, 71, 127
2, 155660, Note_on_c, 8, 68, 127
2, 155660, Note_on_c, 4, 52, 127
2, 156007, Note_off_c, 12, 59, 127
2, 156009, Note_on_c, 10, 57, 127
2, 156181, Note_off_c, 10, 57, 127
2, 156183, Note_on_c, 8, 56, 127
2, 156355, Note_off_c, 8, 56, 127
2, 156355, Note_off_c, 8, 68, 127
2, 156357, Note_on_c, 6, 66, 127
2, 156357, Note_on_c, 10, 57, 127
2, 156703, Note_off_c, 10, 57, 127
2, 156703, Note_off_c, 4, 52, 127
2, 156706, Note_on_c, 3, 51, 127
2, 156706, Note_on_c, 12, 59, 127
2, 156878, Note_off_c, 12, 59, 127
2, 156880, Note_on_c, 10, 57, 127
2, 157048, Note_off_c, 12, 71, 127
2, 157050, Note_off_c, 3, 51, 127
2, 157052, Note_off_c, 10, 57, 127
2, 157052, Note_off_c, 6, 66, 127
2, 157054, Note_on_c, 4, 64, 127
2, 157054, Note_on_c, 1, 73, 127
2, 157054, Note_on_c, 8, 56, 127
2, 157054, Note_on_c, 4, 52, 127
2, 157400, Note_off_c, 4, 64, 127
2, 157403, Note_on_c, 1, 61, 127
2, 157749, Note_off_c, 1, 61, 127
2, 157749, Note_off_c, 4, 52, 127
2, 157749, Note_off_c, 1, 73, 127
2, 157751, Note_on_c, 8, 68, 127
2, 157751, Note_on_c, 4, 76, 127
2, 157751, Note_on_c, 1, 49, 127
2, 158097, Note_off_c, 8, 56, 127
2, 158100, Note_on_c, 8, 56, 127
2, 158440, Note_off_c, 8, 68, 127
2, 158446, Note_off_c, 8, 56, 127
2, 158446, Note_off_c, 1, 49, 127
2, 158446, Note_off_c, 4, 76, 127
2, 158448, Note_on_c, 3, 75, 127
2, 158448, Note_on_c, 10, 57, 127
2, 158448, Note_on_c, 6, 54, 127
2, 158797, Note_on_c, 6, 66, 127
2, 158969, Note_off_c, 6, 66, 127
2, 158971, Note_on_c, 5, 65, 127
2, 159143, Note_off_c, 5, 65, 127
2, 159143, Note_off_c, 6, 54, 127
2, 159143, Note_off_c, 3, 75, 127
2, 159145, Note_on_c, 1, 73, 127
2, 159145, Note_on_c, 6, 66, 127
2, 159145, Note_on_c, 4, 52, 127
2, 159491, Note_off_c, 10, 57, 127
2, 159494, Note_on_c, 11, 58, 127
2, 159840, Note_off_c, 11, 58, 127
2, 159840, Note_off_c, 4, 52, 127
2, 159840, Note_off_c, 1, 73, 127
2, 159842, Note_on_c, 12, 71, 127
2, 159842, Note_on_c, 12, 59, 127
2, 159842, Note_on_c, 3, 51, 127
2, 160188, Note_off_c, 6, 66, 127
2, 160191, Note_on_c, 4, 64, 127
2, 160363, Note_off_c, 4, 64, 127
2, 160365, Note_on_c, 3, 63, 127
2, 160537, Note_off_c, 3, 63, 127
2, 160537, Note_off_c, 3, 51, 127
2, 160537, Note_off_c, 12, 71, 127
2, 160539, Note_on_c, 1, 73, 127
2, 160539, Note_on_c, 4, 64, 127
2, 160539, Note_on_c, 1, 49, 127
2, 160885, Note_off_c, 4, 64, 127
2, 160885, Note_off_c, 12, 59, 127
2, 160888, Note_on_c, 6, 66, 127
2, 160888, Note_on_c, 11, 58, 127
2, 161060, Note_off_c, 6, 66, 127
2, 161062, Note_on_c, 4, 64, 127
2, 161234, Note_off_c, 4, 64, 127
2, 161234, Note_off_c, 11, 58, 127
2, 161234, Note_off_c, 1, 49, 127
2, 161234, Note_off_c, 1, 73, 127
2, 161236, Note_on_c, 6, 66, 127
2, 161236, Note_on_c, 3, 63, 127
2, 161236, Note_on_c, 12, 59, 127
2, 161236, Note_on_c, 12, 47, 127
2, 161582, Note_off_c, 3, 63, 127
2, 161582, Note_off_c, 6, 66, 127
2, 161585, Note_on_c, 3, 63, 127
2, 161756, Note_off_c, 12, 59, 127
2, 161759, Note_on_c, 10, 57, 127
2, 161929, Note_off_c, 3, 63, 127
2, 161931, Note_off_c, 10, 57, 127
2, 161933, Note_on_c, 8, 68, 127
2, 161933, Note_on_c, 8, 56, 127
2, 162105, Note_off_c, 8, 56, 127
2, 162107, Note_on_c, 6, 54, 127
2, 162279, Note_off_c, 6, 54, 127
2, 162282, Note_on_c, 8, 56, 127
2, 162282, Note_on_c, 4, 52, 127
2, 162454, Note_off_c, 4, 52, 127
2, 162456, Note_on_c, 3, 51, 127
2, 162624, Note_off_c, 12, 47, 127
2, 162628, Note_off_c, 3, 51, 127
2, 162628, Note_off_c, 8, 56, 127
2, 162630, Note_on_c, 10, 57, 127
2, 162630, Note_on_c, 4, 52, 127
2, 162630, Note_on_c, 1, 49, 127
2, 162976, Note_off_c, 8, 68, 127
2, 162979, Note_on_c, 6, 66, 127
2, 163151, Note_off_c, 6, 66, 127
2, 163153, Note_on_c, 5, 65, 127
2, 163325, Note_off_c, 5, 65, 127
2, 163325, Note_off_c, 1, 49, 127
2, 163325, Note_off_c, 4, 52, 127
2, 163327, Note_on_c, 6, 66, 127
2, 163327, Note_on_c, 4, 52, 127
2, 163673, Note_off_c, 10, 57, 127
2, 163676, Note_on_c, 11, 58, 127
2, 164022, Note_off_c, 11, 58, 127
2, 164022, Note_off_c, 4, 52, 127
2, 164024, Note_on_c, 12, 59, 127
2, 164024, Note_on_c, 6, 54, 127
2, 164024, Note_on_c, 3, 51, 127
2, 164370, Note_off_c, 6, 66, 127
2, 164372, Note_on_c, 4, 64, 127
2, 164544, Note_off_c, 4, 64, 127
2, 164547, Note_on_c, 3, 63, 127
2, 164719, Note_off_c, 3, 63, 127
2, 164719, Note_off_c, 3, 51, 127
2, 164721, Note_on_c, 4, 64, 127
2, 164721, Note_on_c, 1, 49, 127
2, 165067, Note_off_c, 4, 64, 127
2, 165067, Note_off_c, 12, 59, 127
2, 165069, Note_on_c, 6, 66, 127
2, 165069, Note_on_c, 11, 58, 127
2, 165241, Note_off_c, 6, 66, 127
2, 165244, Note_on_c, 4, 64, 127
2, 165412, Note_off_c, 6, 54, 127
2, 165413, Note_off_c, 11, 58, 127
2, 165416, Note_off_c, 4, 64, 127
2, 165416, Note_off_c, 1, 49, 127
2, 165418, Note_on_c, 12, 59, 127
2, 165418, Note_on_c, 3, 63, 127
2, 165418, Note_on_c, 8, 56, 127
2, 165418, Note_on_c, 12, 47, 127
2, 165764, Note_off_c, 12, 47, 127
2, 165764, Note_off_c, 3, 63, 127
2, 165766, Note_on_c, 12, 71, 127
2, 165766, Note_on_c, 8, 44, 127
2, 166112, Note_off_c, 12, 71, 127
2, 166113, Note_off_c, 8, 56, 127
2, 166113, Note_off_c, 12, 59, 127
2, 166115, Note_on_c, 2, 62, 127
2, 166115, Note_on_c, 5, 65, 127
2, 166115, Note_on_c, 12, 59, 127
2, 166461, Note_off_c, 8, 44, 127
2, 166463, Note_on_c, 10, 45, 127
2, 166635, Note_off_c, 10, 45, 127
2, 166638, Note_on_c, 12, 47, 127
2, 166810, Note_off_c, 12, 47, 127
2, 166810, Note_off_c, 12, 59, 127
2, 166810, Note_off_c, 2, 62, 127
2, 166812, Note_on_c, 1, 61, 127
2, 166812, Note_on_c, 10, 57, 127
2, 166812, Note_on_c, 1, 49, 127
2, 167158, Note_off_c, 5, 65, 127
2, 167160, Note_on_c, 6, 66, 127
2, 167507, Note_off_c, 1, 49, 127
2, 167507, Note_off_c, 10, 57, 127
2, 167509, Note_on_c, 8, 56, 127
2, 167509, Note_on_c, 12, 47, 127
2, 167855, Note_off_c, 6, 66, 127
2, 167857, Note_on_c, 5, 65, 127
2, 168198, Note_off_c, 8, 56, 127
2, 168203, Note_off_c, 5, 65, 127
2, 168204, Note_off_c, 12, 47, 127
2, 168206, Note_on_c, 1, 73, 127
2, 168206, Note_on_c, 10, 45, 127
2, 168554, Note_on_c, 6, 54, 127
2, 168899, Note_off_c, 1, 61, 127
2, 168901, Note_off_c, 10, 45, 127
2, 168901, Note_off_c, 1, 73, 127
2, 168903, Note_on_c, 12, 71, 127
2, 168903, Note_on_c, 8, 68, 127
2, 168903, Note_on_c, 8, 44, 127
2, 169249, Note_off_c, 6, 54, 127
2, 169251, Note_on_c, 5, 53, 127
2, 169597, Note_off_c, 5, 53, 127
2, 169598, Note_off_c, 8, 44, 127
2, 169598, Note_off_c, 8, 68, 127
2, 169600, Note_on_c, 1, 61, 127
2, 169600, Note_on_c, 6, 54, 127
2, 169600, Note_on_c, 6, 42, 127
2, 169946, Note_off_c, 12, 71, 127
2, 169948, Note_on_c, 10, 69, 127
2, 170295, Note_off_c, 6, 42, 127
2, 170295, Note_off_c, 6, 54, 127
2, 170295, Note_off_c, 1, 61, 127
2, 170297, Note_on_c, 12, 59, 127
2, 170297, Note_on_c, 12, 47, 127
2, 170297, Note_on_c, 2, 50, 127
2, 170643, Note_off_c, 10, 69, 127
2, 170645, Note_on_c, 8, 68, 127
2, 170992, Note_off_c, 2, 50, 127
2, 170992, Note_off_c, 12, 47, 127
2, 170992, Note_off_c, 12, 59, 127
2, 170994, Note_on_c, 10, 57, 127
2, 170994, Note_on_c, 1, 49, 127
2, 171340, Note_off_c, 8, 68, 127
2, 171342, Note_on_c, 6, 66, 127
2, 171689, Note_off_c, 10, 57, 127
2, 171691, Note_on_c, 8, 56, 127
2, 171691, Note_on_c, 1, 37, 127
2, 172037, Note_off_c, 6, 66, 127
2, 172039, Note_on_c, 5, 65, 127
2, 172385, Note_off_c, 5, 65, 127
2, 172386, Note_off_c, 1, 37, 127
2, 172386, Note_off_c, 8, 56, 127
2, 172388, Note_on_c, 10, 57, 127
2, 172388, Note_on_c, 6, 66, 127
2, 172388, Note_on_c, 6, 42, 127
2, 172734, Note_off_c, 6, 42, 127
2, 172734, Note_off_c, 10, 57, 127
2, 172736, Note_on_c, 12, 59, 127
2, 172736, Note_on_c, 8, 44, 127
2, 173082, Note_off_c, 8, 44, 127
2, 173082, Note_off_c, 12, 59, 127
2, 173084, Note_on_c, 1, 61, 127
2, 173084, Note_on_c, 10, 45, 127
2, 173428, Note_off_c, 1, 49, 127
2, 173430, Note_off_c, 10, 45, 127
2, 173433, Note_on_c, 3, 51, 127
2, 173433, Note_on_c, 6, 42, 127
2, 173776, Note_off_c, 6, 66, 127
2, 173779, Note_off_c, 6, 42, 127
2, 173779, Note_off_c, 3, 51, 127
2, 173781, Note_on_c, 8, 68, 127
2, 173781, Note_on_c, 1, 49, 127
2, 173781, Note_on_c, 5, 53, 127
2, 174127, Note_off_c, 5, 53, 127
2, 174127, Note_off_c, 1, 49, 127
2, 174127, Note_off_c, 8, 68, 127
2, 174130, Note_on_c, 10, 69, 127
2, 174130, Note_on_c, 1, 49, 127
2, 174472, Note_off_c, 1, 61, 127
2, 174476, Note_off_c, 1, 49, 127
2, 174476, Note_off_c, 10, 69, 127
2, 174478, Note_on_c, 12, 71, 127
2, 174478, Note_on_c, 3, 63, 127
2, 174478, Note_on_c, 8, 56, 127
2, 174478, Note_on_c, 12, 47, 127
2, 174824, Note_off_c, 12, 47, 127
2, 174824, Note_off_c, 3, 63, 127
2, 174827, Note_on_c, 5, 65, 127
2, 174827, Note_on_c, 1, 49, 127
2, 175173, Note_off_c, 1, 49, 127
2, 175173, Note_off_c, 5, 65, 127
2, 175173, Note_off_c, 8, 56, 127
2, 175175, Note_on_c, 6, 66, 127
2, 175175, Note_on_c, 6, 54, 127
2, 175175, Note_on_c, 2, 50, 127
2, 175521, Note_off_c, 2, 50, 127
2, 175521, Note_off_c, 12, 71, 127
2, 175524, Note_on_c, 10, 69, 127
2, 175524, Note_on_c, 1, 49, 127
2, 175870, Note_off_c, 1, 49, 127
2, 175870, Note_off_c, 10, 69, 127
2, 175870, Note_off_c, 6, 54, 127
2, 175872, Note_on_c, 8, 68, 127
2, 175872, Note_on_c, 8, 56, 127
2, 175872, Note_on_c, 0, 48, 127
2, 176218, Note_off_c, 0, 48, 127
2, 176218, Note_off_c, 6, 66, 127
2, 176221, Note_on_c, 4, 64, 127
2, 176221, Note_on_c, 1, 49, 127
2, 176561, Note_off_c, 8, 56, 127
2, 176567, Note_off_c, 4, 64, 127
2, 176567, Note_off_c, 8, 68, 127
2, 176569, Note_on_c, 3, 63, 127
2, 176569, Note_on_c, 6, 66, 127
2, 176569, Note_on_c, 6, 42, 127
2, 176915, Note_off_c, 6, 42, 127
2, 176916, Note_off_c, 1, 49, 127
2, 176918, Note_on_c, 8, 44, 127
2, 176918, Note_on_c, 0, 48, 127
2, 177264, Note_off_c, 0, 48, 127
2, 177264, Note_off_c, 8, 44, 127
2, 177264, Note_off_c, 6, 66, 127
2, 177264, Note_off_c, 3, 63, 127
2, 177266, Note_on_c, 4, 64, 127
2, 177266, Note_on_c, 1, 61, 127
2, 177266, Note_on_c, 10, 45, 127
2, 177266, Note_on_c, 1, 49, 127
2, 177612, Note_off_c, 1, 49, 127
2, 177612, Note_off_c, 4, 64, 127
2, 177615, Note_on_c, 6, 66, 127
2, 177615, Note_on_c, 3, 51, 127
2, 177961, Note_off_c, 3, 51, 127
2, 177961, Note_off_c, 6, 66, 127
2, 177961, Note_off_c, 10, 45, 127
2, 177963, Note_on_c, 8, 68, 127
2, 177963, Note_on_c, 4, 52, 127
2, 177963, Note_on_c, 8, 44, 127
2, 178309, Note_off_c, 4, 52, 127
2, 178309, Note_off_c, 1, 61, 127
2, 178312, Note_on_c, 3, 63, 127
2, 178312, Note_on_c, 6, 54, 127
2, 178484, Note_off_c, 6, 54, 127
2, 178484, Note_off_c, 3, 63, 127
2, 178486, Note_on_c, 1, 61, 127
2, 178486, Note_on_c, 4, 52, 127
2, 178658, Note_off_c, 4, 52, 127
2, 178658, Note_off_c, 1, 61, 127
2, 178660, Note_on_c, 0, 60, 127
2, 178660, Note_on_c, 3, 51, 127
2, 179006, Note_off_c, 8, 68, 127
2, 179009, Note_on_c, 10, 69, 127
2, 179351, Note_off_c, 8, 44, 127
2, 179355, Note_off_c, 10, 69, 127
2, 179355, Note_off_c, 0, 60, 127
2, 179357, Note_on_c, 1, 61, 127
2, 179357, Note_on_c, 8, 68, 127
2, 179357, Note_on_c, 11, 46, 127
2, 179703, Note_off_c, 11, 46, 127
2, 179703, Note_off_c, 8, 68, 127
2, 179703, Note_off_c, 1, 61, 127
2, 179706, Note_on_c, 3, 63, 127
2, 179706, Note_on_c, 6, 66, 127
2, 179706, Note_on_c, 0, 48, 127
2, 180048, Note_off_c, 3, 51, 127
2, 180052, Note_off_c, 0, 48, 127
2, 180052, Note_off_c, 6, 66, 127
2, 180052, Note_off_c, 3, 63, 127
2, 180054, Note_on_c, 8, 56, 127
2, 180054, Note_on_c, 4, 64, 127
2, 180054, Note_on_c, 1, 49, 127
2, 180054, Note_on_c, 4, 52, 127
2, 180400, Note_off_c, 4, 52, 127
2, 180403, Note_on_c, 6, 54, 127
2, 180749, Note_off_c, 6, 54, 127
2, 180749, Note_off_c, 4, 64, 127
2, 180749, Note_off_c, 8, 56, 127
2, 180751, Note_on_c, 3, 63, 127
2, 180751, Note_on_c, 8, 56, 127
2, 181097, Note_off_c, 3, 63, 127
2, 181097, Note_off_c, 1, 49, 127
2, 181100, Note_on_c, 4, 64, 127
2, 181100, Note_on_c, 12, 47, 127
2, 181272, Note_off_c, 4, 64, 127
2, 181274, Note_on_c, 3, 63, 127
2, 181446, Note_off_c, 3, 63, 127
2, 181446, Note_off_c, 12, 47, 127
2, 181448, Note_on_c, 1, 61, 127
2, 181448, Note_on_c, 10, 45, 127
2, 181794, Note_off_c, 1, 61, 127
2, 181794, Note_off_c, 8, 56, 127
2, 181796, Note_on_c, 10, 69, 127
2, 181796, Note_on_c, 6, 54, 127
2, 182142, Note_off_c, 6, 54, 127
2, 182142, Note_off_c, 10, 69, 127
2, 182143, Note_off_c, 10, 45, 127
2, 182145, Note_on_c, 0, 60, 127
2, 182145, Note_on_c, 4, 52, 127
2, 182145, Note_on_c, 8, 44, 127
2, 182491, Note_off_c, 0, 60, 127
2, 182493, Note_on_c, 1, 61, 127
2, 182840, Note_off_c, 4, 52, 127
2, 182842, Note_on_c, 8, 68, 127
2, 182842, Note_on_c, 3, 51, 127
2, 183188, Note_off_c, 1, 61, 127
2, 183190, Note_on_c, 0, 60, 127
2, 183536, Note_off_c, 0, 60, 127
2, 183537, Note_off_c, 3, 51, 127
2, 183537, Note_off_c, 8, 68, 127
2, 183539, Note_on_c, 1, 61, 127
2, 183539, Note_on_c, 10, 69, 127
2, 183539, Note_on_c, 4, 52, 127
2, 183885, Note_off_c, 10, 69, 127
2, 183887, Note_on_c, 1, 73, 127
2, 184232, Note_off_c, 8, 44, 127
2, 184233, Note_off_c, 1, 73, 127
2, 184234, Note_off_c, 4, 52, 127
2, 184234, Note_off_c, 1, 61, 127
2, 184236, Note_on_c, 3, 63, 127
2, 184236, Note_on_c, 12, 71, 127
2, 184236, Note_on_c, 6, 42, 127
2, 184582, Note_off_c, 12, 71, 127
2, 184584, Note_on_c, 10, 69, 127
2, 184930, Note_off_c, 10, 69, 127
2, 184931, Note_off_c, 6, 42, 127
2, 184931, Note_off_c, 3, 63, 127
2, 184933, Note_on_c, 8, 68, 127
2, 184933, Note_on_c, 4, 64, 127
2, 184933, Note_on_c, 4, 40, 127
2, 185279, Note_off_c, 4, 40, 127
2, 185279, Note_off_c, 4, 64, 127
2, 185279, Note_off_c, 8, 68, 127
2, 185281, Note_on_c, 8, 68, 127
2, 185281, Note_on_c, 1, 37, 127
2, 185627, Note_off_c, 1, 37, 127
2, 185627, Note_off_c, 8, 68, 127
2, 185630, Note_on_c, 11, 70, 127
2, 185630, Note_on_c, 6, 66, 127
2, 185630, Note_on_c, 6, 42, 127
2, 185976, Note_off_c, 6, 66, 127
2, 185978, Note_on_c, 4, 64, 127
2, 186324, Note_off_c, 4, 64, 127
2, 186325, Note_off_c, 6, 42, 127
2, 186325, Note_off_c, 11, 70, 127
2, 186327, Note_on_c, 3, 63, 127
2, 186327, Note_on_c, 12, 71, 127
2, 186327, Note_on_c, 12, 47, 127
2, 186673, Note_off_c, 3, 63, 127
2, 186675, Note_on_c, 10, 69, 127
2, 187021, Note_off_c, 10, 69, 127
2, 187022, Note_off_c, 12, 47, 127
2, 187024, Note_on_c, 8, 68, 127
2, 187024, Note_on_c, 12, 59, 127
2, 187370, Note_off_c, 8, 68, 127
2, 187372, Note_on_c, 6, 66, 127
2, 187718, Note_off_c, 6, 66, 127
2, 187719, Note_off_c, 12, 59, 127
2, 187721, Note_on_c, 4, 64, 127
2, 187721, Note_on_c, 1, 61, 127
2, 188067, Note_off_c, 1, 61, 127
2, 188067, Note_off_c, 4, 64, 127
2, 188069, Note_on_c, 8, 68, 127
2, 188069, Note_on_c, 4, 64, 127
2, 188415, Note_off_c, 4, 64, 127
2, 188415, Note_off_c, 8, 68, 127
2, 188418, Note_on_c, 6, 66, 127
2, 188418, Note_on_c, 3, 63, 127
2, 188418, Note_on_c, 6, 54, 127
2, 188759, Note_off_c, 12, 71, 127
2, 188764, Note_off_c, 3, 63, 127
2, 188764, Note_off_c, 6, 66, 127
2, 188766, Note_on_c, 11, 70, 127
2, 188766, Note_on_c, 4, 64, 127
2, 188766, Note_on_c, 1, 61, 127
2, 189112, Note_off_c, 1, 61, 127
2, 189112, Note_off_c, 4, 64, 127
2, 189112, Note_off_c, 11, 70, 127
2, 189113, Note_off_c, 6, 54, 127
2, 189115, Note_on_c, 12, 71, 127
2, 189115, Note_on_c, 3, 63, 127
2, 189115, Note_on_c, 12, 59, 127
2, 189115, Note_on_c, 8, 56, 127
2, 189461, Note_off_c, 8, 56, 127
2, 189461, Note_off_c, 12, 59, 127
2, 189461, Note_off_c, 3, 63, 127
2, 189461, Note_off_c, 12, 71, 127
2, 189463, Note_on_c, 4, 64, 127
2, 189463, Note_on_c, 8, 68, 127
2, 189463, Note_on_c, 12, 59, 127
2, 189463, Note_on_c, 2, 62, 127
2, 189809, Note_off_c, 2, 62, 127
2, 189809, Note_off_c, 12, 59, 127
2, 189809, Note_off_c, 8, 68, 127
2, 189809, Note_off_c, 4, 64, 127
2, 189812, Note_on_c, 10, 69, 127
2, 189812, Note_on_c, 6, 66, 127
2, 189812, Note_on_c, 1, 61, 127
2, 189812, Note_on_c, 10, 57, 127
2, 190158, Note_off_c, 10, 57, 127
2, 190158, Note_off_c, 1, 61, 127
2, 190158, Note_off_c, 6, 66, 127
2, 190158, Note_off_c, 10, 69, 127
2, 190160, Note_on_c, 8, 68, 127
2, 190160, Note_on_c, 12, 71, 127
2, 190160, Note_on_c, 12, 59, 127
2, 190160, Note_on_c, 8, 56, 127
2, 190506, Note_off_c, 8, 56, 127
2, 190506, Note_off_c, 12, 59, 127
2, 190506, Note_off_c, 12, 71, 127
2, 190506, Note_off_c, 8, 68, 127
2, 190508, Note_on_c, 1, 73, 127
2, 190508, Note_on_c, 10, 69, 127
2, 190508, Note_on_c, 10, 57, 127
2, 190508, Note_on_c, 6, 54, 127
2, 190854, Note_off_c, 1, 73, 127
2, 190857, Note_on_c, 3, 75, 127
2, 191203, Note_off_c, 3, 75, 127
2, 191203, Note_off_c, 6, 54, 127
2, 191203, Note_off_c, 10, 57, 127
2, 191205, Note_on_c, 4, 76, 127
2, 191205, Note_on_c, 12, 59, 127
2, 191205, Note_on_c, 4, 52, 127
2, 191551, Note_off_c, 10, 69, 127
2, 191554, Note_on_c, 8, 68, 127
2, 191900, Note_off_c, 8, 68, 127
2, 191900, Note_off_c, 4, 52, 127
2, 191900, Note_off_c, 12, 59, 127
2, 191902, Note_on_c, 6, 66, 127
2, 191902, Note_on_c, 12, 59, 127
2, 192248, Note_off_c, 6, 66, 127
2, 192251, Note_on_c, 4, 64, 127
2, 192597, Note_off_c, 4, 64, 127
2, 192599, Note_on_c, 6, 66, 127
2, 192599, Note_on_c, 12, 47, 127
2, 192945, Note_off_c, 12, 59, 127
2, 192947, Note_off_c, 4, 76, 127
2, 192948, Note_on_c, 3, 75, 127
2, 192948, Note_on_c, 10, 57, 127
2, 193294, Note_off_c, 10, 57, 127
2, 193294, Note_off_c, 3, 75, 127
2, 193294, Note_off_c, 12, 47, 127
2, 193294, Note_off_c, 6, 66, 127
2, 193296, Note_on_c, 4, 76, 127
2, 193296, Note_on_c, 4, 64, 127
2, 193296, Note_on_c, 1, 49, 127
2, 193296, Note_on_c, 8, 56, 127
2, 193642, Note_off_c, 1, 49, 127
2, 193642, Note_off_c, 4, 76, 127
2, 193645, Note_on_c, 12, 71, 127
2, 193645, Note_on_c, 4, 52, 127
2, 193991, Note_off_c, 4, 52, 127
2, 193993, Note_on_c, 3, 51, 127
2, 194339, Note_off_c, 3, 51, 127
2, 194339, Note_off_c, 8, 56, 127
2, 194340, Note_off_c, 12, 71, 127
2, 194342, Note_on_c, 11, 70, 127
2, 194342, Note_on_c, 1, 49, 127
2, 194342, Note_on_c, 1, 61, 127
2, 194684, Note_off_c, 4, 64, 127
2, 194688, Note_off_c, 1, 61, 127
2, 194688, Note_off_c, 1, 49, 127
2, 194688, Note_off_c, 11, 70, 127
2, 194690, Note_on_c, 6, 66, 127
2, 194690, Note_on_c, 12, 71, 127
2, 194690, Note_on_c, 3, 51, 127
2, 194690, Note_on_c, 6, 54, 127
2, 195036, Note_off_c, 6, 54, 127
2, 195036, Note_off_c, 3, 51, 127
2, 195039, Note_on_c, 12, 47, 127
2, 195039, Note_on_c, 3, 51, 127
2, 195385, Note_off_c, 3, 51, 127
2, 195385, Note_off_c, 12, 47, 127
2, 195385, Note_off_c, 12, 71, 127
2, 195385, Note_off_c, 6, 66, 127
2, 195387, Note_on_c, 10, 69, 127
2, 195387, Note_on_c, 4, 52, 127
2, 195387, Note_on_c, 1, 49, 127
2, 195733, Note_off_c, 1, 49, 127
2, 195733, Note_off_c, 4, 52, 127
2, 195736, Note_on_c, 6, 78, 127
2, 195736, Note_on_c, 6, 54, 127
2, 195736, Note_on_c, 3, 51, 127
2, 196082, Note_off_c, 3, 51, 127
2, 196082, Note_off_c, 6, 54, 127
2, 196082, Note_off_c, 6, 78, 127
2, 196082, Note_off_c, 10, 69, 127
2, 196084, Note_on_c, 12, 71, 127
2, 196084, Note_on_c, 8, 68, 127
2, 196084, Note_on_c, 4, 52, 127
2, 196084, Note_on_c, 8, 56, 127
2, 196430, Note_off_c, 8, 56, 127
2, 196430, Note_off_c, 8, 68, 127
2, 196430, Note_off_c, 12, 71, 127
2, 196433, Note_on_c, 8, 68, 127
2, 196433, Note_on_c, 12, 59, 127
2, 196779, Note_off_c, 12, 59, 127
2, 196779, Note_off_c, 8, 68, 127
2, 196781, Note_on_c, 10, 69, 127
2, 196781, Note_on_c, 6, 66, 127
2, 196781, Note_on_c, 1, 61, 127
2, 197127, Note_off_c, 1, 61, 127
2, 197127, Note_off_c, 10, 69, 127
2, 197127, Note_off_c, 4, 52, 127
2, 197130, Note_on_c, 12, 71, 127
2, 197130, Note_on_c, 3, 51, 127
2, 197130, Note_on_c, 3, 63, 127
2, 197476, Note_off_c, 3, 63, 127
2, 197476, Note_off_c, 3, 51, 127
2, 197476, Note_off_c, 12, 71, 127
2, 197476, Note_off_c, 6, 66, 127
2, 197478, Note_on_c, 4, 64, 127
2, 197478, Note_on_c, 1, 73, 127
2, 197478, Note_on_c, 8, 56, 127
2, 197478, Note_on_c, 4, 52, 127
2, 197824, Note_off_c, 4, 52, 127
2, 197824, Note_off_c, 8, 56, 127
2, 197824, Note_off_c, 4, 64, 127
2, 197827, Note_on_c, 10, 69, 127
2, 197827, Note_on_c, 4, 52, 127
2, 197827, Note_on_c, 1, 49, 127
2, 198173, Note_off_c, 1, 49, 127
2, 198173, Note_off_c, 4, 52, 127
2, 198173, Note_off_c, 1, 73, 127
2, 198175, Note_on_c, 12, 71, 127
2, 198175, Note_on_c, 6, 54, 127
2, 198175, Note_on_c, 3, 51, 127
2, 198521, Note_off_c, 3, 51, 127
2, 198521, Note_off_c, 6, 54, 127
2, 198522, Note_off_c, 10, 69, 127
2, 198524, Note_on_c, 8, 68, 127
2, 198524, Note_on_c, 8, 56, 127
2, 198524, Note_on_c, 5, 53, 127
2, 198870, Note_off_c, 5, 53, 127
2, 198870, Note_off_c, 8, 56, 127
2, 198870, Note_off_c, 8, 68, 127
2, 198870, Note_off_c, 12, 71, 127
2, 198872, Note_on_c, 6, 66, 127
2, 198872, Note_on_c, 10, 69, 127
2, 198872, Note_on_c, 10, 57, 127
2, 198872, Note_on_c, 6, 54, 127
2, 199218, Note_off_c, 10, 57, 127
2, 199218, Note_off_c, 6, 66, 127
2, 199220, Note_on_c, 2, 74, 127
2, 199220, Note_on_c, 12, 59, 127
2, 199566, Note_off_c, 12, 59, 127
2, 199566, Note_off_c, 2, 74, 127
2, 199567, Note_off_c, 10, 69, 127
2, 199569, Note_on_c, 8, 68, 127
2, 199569, Note_on_c, 1, 73, 127
2, 199569, Note_on_c, 1, 61, 127
2, 199915, Note_off_c, 1, 73, 127
2, 199915, Note_off_c, 6, 54, 127
2, 199917, Note_on_c, 12, 71, 127
2, 199917, Note_on_c, 5, 53, 127
2, 200263, Note_off_c, 5, 53, 127
2, 200263, Note_off_c, 12, 71, 127
2, 200264, Note_off_c, 8, 68, 127
2, 200266, Note_on_c, 6, 66, 127
2, 200266, Note_on_c, 10, 69, 127
2, 200266, Note_on_c, 6, 54, 127
2, 200612, Note_off_c, 6, 54, 127
2, 200612, Note_off_c, 10, 69, 127
2, 200612, Note_off_c, 6, 66, 127
2, 200612, Note_off_c, 1, 61, 127
2, 200614, Note_on_c, 4, 76, 127
2, 200614, Note_on_c, 7, 67, 127
2, 200614, Note_on_c, 1, 61, 127
2, 200614, Note_on_c, 3, 51, 127
2, 200960, Note_off_c, 3, 51, 127
2, 200960, Note_off_c, 1, 61, 127
2, 200960, Note_off_c, 7, 67, 127
2, 200960, Note_off_c, 4, 76, 127
2, 200963, Note_on_c, 8, 68, 127
2, 200963, Note_on_c, 3, 75, 127
2, 200963, Note_on_c, 12, 59, 127
2, 200963, Note_on_c, 5, 53, 127
2, 201309, Note_off_c, 5, 53, 127
2, 201309, Note_off_c, 12, 59, 127
2, 201309, Note_off_c, 3, 75, 127
2, 201309, Note_off_c, 8, 68, 127
2, 201311, Note_on_c, 11, 70, 127
2, 201311, Note_on_c, 1, 73, 127
2, 201311, Note_on_c, 7, 55, 127
2, 201311, Note_on_c, 11, 58, 127
2, 201657, Note_off_c, 11, 58, 127
2, 201657, Note_off_c, 7, 55, 127
2, 201657, Note_off_c, 1, 73, 127
2, 201657, Note_off_c, 11, 70, 127
2, 201660, Note_on_c, 8, 68, 127
2, 201660, Note_on_c, 12, 71, 127
2, 201660, Note_on_c, 12, 59, 127
2, 201660, Note_on_c, 8, 56, 127
2, 202006, Note_off_c, 12, 59, 127
2, 202006, Note_off_c, 8, 68, 127
2, 202008, Note_on_c, 6, 66, 127
2, 202008, Note_on_c, 3, 63, 127
2, 202354, Note_off_c, 3, 63, 127
2, 202354, Note_off_c, 6, 66, 127
2, 202355, Note_off_c, 12, 71, 127
2, 202357, Note_on_c, 4, 64, 127
2, 202357, Note_on_c, 11, 70, 127
2, 202357, Note_on_c, 1, 61, 127
2, 202703, Note_off_c, 8, 56, 127
2, 202705, Note_on_c, 7, 55, 127
2, 203051, Note_off_c, 7, 55, 127
2, 203052, Note_off_c, 1, 61, 127
2, 203052, Note_off_c, 4, 64, 127
2, 203054, Note_on_c, 3, 63, 127
2, 203054, Note_on_c, 12, 59, 127
2, 203054, Note_on_c, 8, 56, 127
2, 203400, Note_off_c, 11, 70, 127
2, 203402, Note_on_c, 8, 68, 127
2, 203574, Note_off_c, 8, 68, 127
2, 203576, Note_on_c, 7, 67, 127
2, 203748, Note_off_c, 7, 67, 127
2, 203749, Note_off_c, 8, 56, 127
2, 203749, Note_off_c, 3, 63, 127
2, 203751, Note_on_c, 8, 68, 127
2, 203751, Note_on_c, 2, 62, 127
2, 203751, Note_on_c, 5, 53, 127
2, 204097, Note_off_c, 12, 59, 127
2, 204099, Note_on_c, 11, 58, 127
2, 204271, Note_off_c, 11, 58, 127
2, 204273, Note_on_c, 8, 56, 127
2, 204445, Note_off_c, 8, 56, 127
2, 204446, Note_off_c, 5, 53, 127
2, 204446, Note_off_c, 2, 62, 127
2, 204448, Note_on_c, 3, 63, 127
2, 204448, Note_on_c, 3, 51, 127
2, 204448, Note_on_c, 11, 58, 127
2, 204794, Note_off_c, 11, 58, 127
2, 204796, Note_on_c, 12, 59, 127
2, 205142, Note_off_c, 12, 59, 127
2, 205143, Note_off_c, 3, 51, 127
2, 205145, Note_on_c, 1, 61, 127
2, 205145, Note_on_c, 3, 39, 127
2, 205493, Note_off_c, 8, 68, 127
2, 205493, Note_on_c, 7, 67, 127
2, 205836, Note_off_c, 3, 63, 127
2, 205837, Note_off_c, 7, 67, 127
2, 205840, Note_off_c, 3, 39, 127
2, 205840, Note_off_c, 1, 61, 127
2, 205842, Note_on_c, 3, 63, 127
2, 205842, Note_on_c, 8, 68, 127
2, 205842, Note_on_c, 12, 59, 127
2, 205842, Note_on_c, 8, 44, 127
2, 206537, Note_off_c, 8, 44, 127
2, 206537, Note_off_c, 12, 59, 127
2, 206537, Note_off_c, 8, 68, 127
2, 206537, Note_off_c, 3, 63, 127
2, 206539, Note_on_c, 12, 59, 127
2, 206887, Note_on_c, 12, 71, 127
2, 207233, Note_off_c, 12, 71, 127
2, 207234, Note_off_c, 12, 59, 127
2, 207236, Note_on_c, 8, 68, 127
2, 207236, Note_on_c, 1, 61, 127
2, 207236, Note_on_c, 4, 52, 127
2, 207582, Note_off_c, 8, 68, 127
2, 207584, Note_on_c, 4, 64, 127
2, 207930, Note_off_c, 4, 64, 127
2, 207931, Note_off_c, 1, 61, 127
2, 207932, Note_on_c, 6, 66, 127
2, 207932, Note_on_c, 4, 64, 127
2, 208278, Note_off_c, 6, 66, 127
2, 208281, Note_on_c, 8, 68, 127
2, 208624, Note_off_c, 4, 52, 127
2, 208627, Note_off_c, 8, 68, 127
2, 208627, Note_off_c, 4, 64, 127
2, 208629, Note_on_c, 10, 69, 127
2, 208629, Note_on_c, 6, 54, 127
2, 208629, Note_on_c, 3, 63, 127
2, 208975, Note_off_c, 10, 69, 127
2, 208978, Note_on_c, 12, 71, 127
2, 209324, Note_off_c, 12, 71, 127
2, 209324, Note_off_c, 3, 63, 127
2, 209324, Note_off_c, 6, 54, 127
2, 209326, Note_on_c, 1, 73, 127
2, 209326, Note_on_c, 1, 61, 127
2, 209326, Note_on_c, 10, 57, 127
2, 209672, Note_off_c, 1, 73, 127
2, 209675, Note_on_c, 3, 75, 127
2, 210021, Note_off_c, 3, 75, 127
2, 210021, Note_off_c, 10, 57, 127
2, 210021, Note_off_c, 1, 61, 127
2, 210023, Note_on_c, 4, 76, 127
2, 210023, Note_on_c, 12, 59, 127
2, 210023, Note_on_c, 8, 56, 127
2, 210023, Note_on_c, 12, 47, 127
2, 210195, Note_off_c, 4, 76, 127
2, 210198, Note_on_c, 12, 71, 127
2, 210370, Note_off_c, 12, 71, 127
2, 210372, Note_on_c, 4, 76, 127
2, 210718, Note_off_c, 8, 56, 127
2, 210718, Note_off_c, 12, 59, 127
2, 210720, Note_on_c, 12, 71, 127
2, 210720, Note_on_c, 6, 54, 127
2, 211067, Note_off_c, 4, 76, 127
2, 211069, Note_on_c, 3, 75, 127
2, 211411, Note_off_c, 12, 47, 127
2, 211415, Note_off_c, 6, 54, 127
2, 211415, Note_off_c, 12, 71, 127
2, 211417, Note_on_c, 8, 68, 127
2, 211417, Note_on_c, 4, 52, 127
2, 211417, Note_on_c, 1, 49, 127
2, 211763, Note_off_c, 8, 68, 127
2, 211764, Note_off_c, 3, 75, 127
2, 211766, Note_on_c, 1, 73, 127
2, 211766, Note_on_c, 4, 64, 127
2, 211938, Note_off_c, 1, 73, 127
2, 211940, Note_on_c, 12, 71, 127
2, 212110, Note_off_c, 4, 64, 127
2, 212112, Note_off_c, 12, 71, 127
2, 212112, Note_off_c, 1, 49, 127
2, 212112, Note_off_c, 4, 52, 127
2, 212114, Note_on_c, 8, 68, 127
2, 212114, Note_on_c, 1, 73, 127
2, 212114, Note_on_c, 4, 52, 127
2, 212460, Note_off_c, 8, 68, 127
2, 212463, Note_on_c, 11, 70, 127
2, 212809, Note_off_c, 11, 70, 127
2, 212809, Note_off_c, 4, 52, 127
2, 212809, Note_off_c, 1, 73, 127
2, 212811, Note_on_c, 12, 71, 127
2, 212811, Note_on_c, 3, 51, 127
2, 212985, Note_on_c, 6, 66, 127
2, 213155, Note_off_c, 12, 71, 127
2, 213157, Note_off_c, 6, 66, 127
2, 213160, Note_on_c, 12, 71, 127
2, 213506, Note_off_c, 3, 51, 127
2, 213508, Note_on_c, 4, 76, 127
2, 213508, Note_on_c, 1, 49, 127
2, 213855, Note_off_c, 12, 71, 127
2, 213857, Note_on_c, 10, 69, 127
2, 213857, Note_on_c, 4, 52, 127
2, 214203, Note_off_c, 4, 52, 127
2, 214203, Note_off_c, 1, 49, 127
2, 214203, Note_off_c, 4, 76, 127
2, 214205, Note_on_c, 6, 78, 127
2, 214205, Note_on_c, 12, 47, 127
2, 214205, Note_on_c, 3, 51, 127
2, 214551, Note_off_c, 3, 51, 127
2, 214551, Note_off_c, 12, 47, 127
2, 214552, Note_off_c, 10, 69, 127
2, 214554, Note_on_c, 3, 63, 127
2, 214554, Note_on_c, 12, 59, 127
2, 214900, Note_off_c, 12, 59, 127
2, 214900, Note_off_c, 3, 63, 127
2, 214900, Note_off_c, 6, 78, 127
2, 214902, Note_on_c, 4, 64, 127
2, 214902, Note_on_c, 10, 81, 127
2, 214902, Note_on_c, 1, 61, 127
2, 215248, Note_off_c, 1, 61, 127
2, 215248, Note_off_c, 4, 64, 127
2, 215251, Note_on_c, 6, 66, 127
2, 215251, Note_on_c, 3, 63, 127
2, 215597, Note_off_c, 3, 63, 127
2, 215597, Note_off_c, 6, 66, 127
2, 215597, Note_off_c, 10, 81, 127
2, 215599, Note_on_c, 8, 80, 127
2, 215599, Note_on_c, 8, 68, 127
2, 215599, Note_on_c, 4, 64, 127
2, 215771, Note_off_c, 4, 64, 127
2, 215773, Note_on_c, 12, 59, 127
2, 215945, Note_off_c, 12, 59, 127
2, 215945, Note_off_c, 8, 68, 127
2, 215948, Note_on_c, 1, 73, 127
2, 215948, Note_on_c, 4, 64, 127
2, 216294, Note_off_c, 1, 73, 127
2, 216294, Note_off_c, 8, 80, 127
2, 216296, Note_on_c, 6, 78, 127
2, 216296, Note_on_c, 10, 69, 127
2, 216642, Note_off_c, 10, 69, 127
2, 216643, Note_off_c, 4, 64, 127
2, 216644, Note_on_c, 12, 71, 127
2, 216644, Note_on_c, 3, 63, 127
2, 216990, Note_off_c, 12, 71, 127
2, 216991, Note_off_c, 6, 78, 127
2, 216993, Note_on_c, 8, 68, 127
2, 216993, Note_on_c, 4, 76, 127
2, 217164, Note_off_c, 3, 63, 127
2, 217167, Note_on_c, 8, 56, 127
2, 217339, Note_off_c, 8, 56, 127
2, 217339, Note_off_c, 8, 68, 127
2, 217341, Note_on_c, 10, 69, 127
2, 217341, Note_on_c, 1, 61, 127
2, 217687, Note_off_c, 10, 69, 127
2, 217688, Note_off_c, 4, 76, 127
2, 217690, Note_on_c, 3, 75, 127
2, 217690, Note_on_c, 6, 66, 127
2, 218036, Note_off_c, 6, 66, 127
2, 218036, Note_off_c, 1, 61, 127
2, 218038, Note_on_c, 8, 68, 127
2, 218038, Note_on_c, 12, 59, 127
2, 218384, Note_off_c, 8, 68, 127
2, 218385, Note_off_c, 3, 75, 127
2, 218387, Note_on_c, 1, 73, 127
2, 218387, Note_on_c, 4, 64, 127
2, 218558, Note_off_c, 12, 59, 127
2, 218561, Note_on_c, 4, 52, 127
2, 218733, Note_off_c, 4, 52, 127
2, 218733, Note_off_c, 4, 64, 127
2, 218735, Note_on_c, 6, 66, 127
2, 218735, Note_on_c, 10, 57, 127
2, 219081, Note_off_c, 6, 66, 127
2, 219082, Note_off_c, 1, 73, 127
2, 219084, Note_on_c, 12, 71, 127
2, 219084, Note_on_c, 3, 63, 127
2, 219430, Note_off_c, 3, 63, 127
2, 219430, Note_off_c, 10, 57, 127
2, 219432, Note_on_c, 4, 64, 127
2, 219432, Note_on_c, 8, 56, 127
2, 219778, Note_off_c, 8, 56, 127
2, 219781, Note_on_c, 12, 47, 127
2, 219781, Note_on_c, 6, 54, 127
2, 220127, Note_off_c, 4, 64, 127
2, 220127, Note_off_c, 12, 71, 127
2, 220129, Note_on_c, 3, 63, 127
2, 220129, Note_on_c, 1, 73, 127
2, 220301, Note_off_c, 3, 63, 127
2, 220304, Note_on_c, 1, 61, 127
2, 220473, Note_off_c, 1, 73, 127
2, 220476, Note_off_c, 1, 61, 127
2, 220478, Note_on_c, 12, 71, 127
2, 220478, Note_on_c, 3, 63, 127
2, 220824, Note_off_c, 12, 71, 127
2, 220826, Note_on_c, 10, 69, 127
2, 221172, Note_off_c, 10, 69, 127
2, 221173, Note_off_c, 3, 63, 127
2, 221173, Note_off_c, 6, 54, 127
2, 221173, Note_off_c, 12, 47, 127
2, 221175, Note_on_c, 8, 68, 127
2, 221175, Note_on_c, 1, 49, 127
2, 221175, Note_on_c, 4, 52, 127
2, 221521, Note_off_c, 4, 52, 127
2, 221523, Note_on_c, 4, 64, 127
2, 221523, Note_on_c, 8, 56, 127
2, 221695, Note_off_c, 4, 64, 127
2, 221697, Note_on_c, 6, 66, 127
2, 221869, Note_off_c, 6, 66, 127
2, 221869, Note_off_c, 8, 56, 127
2, 221870, Note_off_c, 1, 49, 127
2, 221870, Note_off_c, 8, 68, 127
2, 221872, Note_on_c, 8, 68, 127
2, 221872, Note_on_c, 1, 61, 127
2, 221872, Note_on_c, 4, 52, 127
2, 222218, Note_off_c, 1, 61, 127
2, 222218, Note_off_c, 8, 68, 127
2, 222220, Note_on_c, 11, 70, 127
2, 222220, Note_on_c, 6, 54, 127
2, 222566, Note_off_c, 11, 70, 127
2, 222567, Note_off_c, 4, 52, 127
2, 222569, Note_on_c, 12, 71, 127
2, 222569, Note_on_c, 3, 51, 127
2, 222743, Note_off_c, 12, 71, 127
2, 222745, Note_on_c, 6, 66, 127
2, 222918, Note_off_c, 6, 54, 127
2, 222919, Note_off_c, 6, 66, 127
2, 222921, Note_on_c, 12, 71, 127
2, 222921, Note_on_c, 6, 54, 127
2, 223273, Note_off_c, 6, 54, 127
2, 223273, Note_off_c, 3, 51, 127
2, 223274, Note_on_c, 4, 76, 127
2, 223274, Note_on_c, 1, 49, 127
2, 223274, Note_on_c, 8, 56, 127
2, 223626, Note_off_c, 8, 56, 127
2, 223626, Note_off_c, 12, 71, 127
2, 223628, Note_on_c, 10, 69, 127
2, 223628, Note_on_c, 10, 57, 127
2, 223979, Note_off_c, 1, 49, 127
2, 223979, Note_off_c, 4, 76, 127
2, 223980, Note_off_c, 10, 57, 127
2, 223982, Note_on_c, 3, 75, 127
2, 223982, Note_on_c, 12, 47, 127
2, 223982, Note_on_c, 12, 59, 127
2, 224159, Note_off_c, 10, 69, 127
2, 224161, Note_on_c, 3, 63, 127
2, 224338, Note_off_c, 3, 63, 127
2, 224339, Note_off_c, 12, 59, 127
2, 224341, Note_on_c, 8, 68, 127
2, 224341, Note_on_c, 3, 51, 127
2, 224698, Note_off_c, 3, 51, 127
2, 224698, Note_off_c, 12, 47, 127
2, 224698, Note_off_c, 3, 75, 127
2, 224700, Note_on_c, 1, 73, 127
2, 224700, Note_on_c, 10, 45, 127
2, 224700, Note_on_c, 4, 52, 127
2, 225057, Note_off_c, 4, 52, 127
2, 225057, Note_off_c, 8, 68, 127
2, 225059, Note_on_c, 6, 66, 127
2, 225059, Note_on_c, 6, 54, 127
2, 225416, Note_off_c, 6, 54, 127
2, 225416, Note_off_c, 10, 45, 127
2, 225416, Note_off_c, 1, 73, 127
2, 225418, Note_on_c, 12, 71, 127
2, 225418, Note_on_c, 8, 56, 127
2, 225418, Note_on_c, 8, 44, 127
2, 225599, Note_off_c, 6, 66, 127
2, 225601, Note_on_c, 12, 59, 127
2, 225782, Note_off_c, 12, 59, 127
2, 225784, Note_on_c, 4, 64, 127
2, 226146, Note_off_c, 8, 44, 127
2, 226146, Note_off_c, 8, 56, 127
2, 226146, Note_off_c, 12, 71, 127
2, 226148, Note_on_c, 10, 69, 127
2, 226148, Note_on_c, 10, 57, 127
2, 226148, Note_on_c, 6, 42, 127
2, 226510, Note_off_c, 4, 64, 127
2, 226513, Note_on_c, 3, 63, 127
2, 226874, Note_off_c, 6, 42, 127
2, 226874, Note_off_c, 10, 57, 127
2, 226874, Note_off_c, 10, 69, 127
2, 226875, Note_off_c, 3, 63, 127
2, 226877, Note_on_c, 4, 64, 127
2, 226877, Note_on_c, 12, 59, 127
2, 226877, Note_on_c, 8, 68, 127
2, 226877, Note_on_c, 4, 40, 127
2, 227060, Note_off_c, 8, 68, 127
2, 227062, Note_on_c, 6, 66, 127
2, 227243, Note_off_c, 4, 64, 127
2, 227244, Note_off_c, 4, 40, 127
2, 227245, Note_off_c, 6, 66, 127
2, 227247, Note_on_c, 8, 68, 127
2, 227247, Note_on_c, 6, 42, 127
2, 227430, Note_off_c, 8, 68, 127
2, 227432, Note_on_c, 10, 69, 127
2, 227614, Note_off_c, 6, 42, 127
2, 227615, Note_off_c, 10, 69, 127
2, 227616, Note_on_c, 12, 71, 127
2, 227616, Note_on_c, 8, 44, 127
2, 227983, Note_off_c, 8, 44, 127
2, 227983, Note_off_c, 12, 71, 127
2, 227984, Note_off_c, 12, 59, 127
2, 227986, Note_on_c, 1, 61, 127
2, 227986, Note_on_c, 10, 69, 127
2, 227986, Note_on_c, 4, 64, 127
2, 227986, Note_on_c, 10, 45, 127
2, 228353, Note_off_c, 10, 45, 127
2, 228353, Note_off_c, 4, 64, 127
2, 228353, Note_off_c, 10, 69, 127
2, 228353, Note_off_c, 1, 61, 127
2, 228356, Note_on_c, 8, 68, 127
2, 228356, Note_on_c, 12, 59, 127
2, 228356, Note_on_c, 4, 64, 127
2, 228356, Note_on_c, 12, 47, 127
2, 229119, Note_off_c, 4, 64, 127
2, 229119, Note_off_c, 8, 68, 127
2, 229121, Note_on_c, 6, 66, 127
2, 229121, Note_on_c, 3, 63, 127
2, 229529, Note_off_c, 12, 59, 127
2, 229531, Note_on_c, 10, 57, 127
2, 229939, Note_off_c, 10, 57, 127
2, 229939, Note_off_c, 3, 63, 127
2, 229939, Note_off_c, 6, 66, 127
2, 229940, Note_off_c, 12, 47, 127
2, 229941, Note_on_c, 4, 64, 127
2, 229941, Note_on_c, 8, 56, 127
2, 229941, Note_on_c, 12, 59, 127
2, 229941, Note_on_c, 4, 40, 127
2, 233223, Note_off_c, 4, 40, 127
2, 233223, Note_off_c, 12, 59, 127
2, 233223, Note_off_c, 8, 56, 127
2, 233223, Note_off_c, 4, 64, 127
2, 238080, End_track
3, 0, Start_track
3, 0, Title_t, "MIDI"
3, 1536, End_track
0, 0, End_of_file
