0, 0, Header, 1, 9, 192
1, 0, Start_track
1, 0, Title_t, "untitled"
1, 0, SMPTE_offset, 96, 0, 3, 0, 0
1, 0, Time_signature, 3, 3, 12, 8
1, 0, Key_signature, 1, "major"
1, 0, Tempo, 1090909
1, 20448, Tempo, 1090909
1, 20736, Tempo, 1333333
1, 20736, End_track
2, 0, Start_track
2, 0, MIDI_port, 0
2, 0, Title_t, "R.H."
2, 0, Program_c, 0, 0
2, 0, Control_c, 0, 7, 127
2, 0, Control_c, 0, 10, 64
2, 0, Note_on_c, 0, 64, 110
2, 22, Note_on_c, 0, 64, 0
2, 24, Note_on_c, 0, 66, 110
2, 46, Note_on_c, 0, 66, 0
2, 48, Note_on_c, 0, 67, 110
2, 70, Note_on_c, 0, 67, 0
2, 72, Note_on_c, 0, 69, 110
2, 94, Note_on_c, 0, 69, 0
2, 96, Note_on_c, 0, 71, 110
2, 118, Note_on_c, 0, 71, 0
2, 120, Note_on_c, 0, 73, 110
2, 142, Note_on_c, 0, 73, 0
2, 144, Note_on_c, 0, 75, 110
2, 166, Note_on_c, 0, 75, 0
2, 168, Note_on_c, 0, 76, 110
2, 190, Note_on_c, 0, 76, 0
2, 192, Note_on_c, 0, 75, 110
2, 214, Note_on_c, 0, 75, 0
2, 216, Note_on_c, 0, 73, 110
2, 238, Note_on_c, 0, 73, 0
2, 240, Note_on_c, 0, 71, 110
2, 262, Note_on_c, 0, 71, 0
2, 264, Note_on_c, 0, 69, 110
2, 286, Note_on_c, 0, 69, 0
2, 288, Note_on_c, 0, 67, 110
2, 310, Note_on_c, 0, 67, 0
2, 312, Note_on_c, 0, 66, 110
2, 334, Note_on_c, 0, 66, 0
2, 336, Note_on_c, 0, 64, 110
2, 382, Note_on_c, 0, 64, 0
2, 432, Note_on_c, 0, 72, 110
2, 478, Note_on_c, 0, 72, 0
2, 480, Note_on_c, 0, 71, 110
2, 526, Note_on_c, 0, 71, 0
2, 528, Note_on_c, 0, 70, 110
2, 574, Note_on_c, 0, 70, 0
2, 576, Note_on_c, 0, 70, 110
2, 598, Note_on_c, 0, 70, 0
2, 600, Note_on_c, 0, 71, 110
2, 622, Note_on_c, 0, 71, 0
2, 624, Note_on_c, 0, 59, 110
2, 656, Note_on_c, 0, 59, 0
2, 720, Note_on_c, 0, 70, 110
2, 766, Note_on_c, 0, 70, 0
2, 768, Note_on_c, 0, 69, 110
2, 814, Note_on_c, 0, 69, 0
2, 816, Note_on_c, 0, 68, 110
2, 862, Note_on_c, 0, 68, 0
2, 864, Note_on_c, 0, 68, 110
2, 886, Note_on_c, 0, 68, 0
2, 888, Note_on_c, 0, 69, 110
2, 910, Note_on_c, 0, 69, 0
2, 912, Note_on_c, 0, 57, 110
2, 944, Note_on_c, 0, 57, 0
2, 984, Note_on_c, 0, 69, 110
2, 1006, Note_on_c, 0, 69, 0
2, 1008, Note_on_c, 0, 72, 110
2, 1030, Note_on_c, 0, 72, 0
2, 1032, Note_on_c, 0, 76, 110
2, 1054, Note_on_c, 0, 76, 0
2, 1056, Note_on_c, 0, 81, 110
2, 1078, Note_on_c, 0, 81, 0
2, 1080, Note_on_c, 0, 79, 110
2, 1102, Note_on_c, 0, 79, 0
2, 1104, Note_on_c, 0, 78, 110
2, 1126, Note_on_c, 0, 78, 0
2, 1128, Note_on_c, 0, 76, 110
2, 1150, Note_on_c, 0, 76, 0
2, 1152, Note_on_c, 0, 75, 110
2, 1174, Note_on_c, 0, 75, 0
2, 1176, Note_on_c, 0, 78, 110
2, 1198, Note_on_c, 0, 78, 0
2, 1200, Note_on_c, 0, 79, 110
2, 1270, Note_on_c, 0, 79, 0
2, 1272, Note_on_c, 0, 76, 110
2, 1294, Note_on_c, 0, 76, 0
2, 1296, Note_on_c, 0, 70, 110
2, 1366, Note_on_c, 0, 70, 0
2, 1368, Note_on_c, 0, 69, 110
2, 1390, Note_on_c, 0, 69, 0
2, 1392, Note_on_c, 0, 78, 110
2, 1414, Note_on_c, 0, 78, 0
2, 1416, Note_on_c, 0, 69, 110
2, 1438, Note_on_c, 0, 69, 0
2, 1440, Note_on_c, 0, 69, 110
2, 1462, Note_on_c, 0, 69, 0
2, 1464, Note_on_c, 0, 66, 110
2, 1486, Note_on_c, 0, 66, 0
2, 1488, Note_on_c, 0, 67, 110
2, 1510, Note_on_c, 0, 67, 0
2, 1512, Note_on_c, 0, 72, 110
2, 1534, Note_on_c, 0, 72, 0
2, 1536, Note_on_c, 0, 72, 110
2, 1558, Note_on_c, 0, 72, 0
2, 1560, Note_on_c, 0, 70, 110
2, 1582, Note_on_c, 0, 70, 0
2, 1584, Note_on_c, 0, 71, 110
2, 1606, Note_on_c, 0, 71, 0
2, 1608, Note_on_c, 0, 78, 110
2, 1630, Note_on_c, 0, 78, 0
2, 1632, Note_on_c, 0, 76, 110
2, 1654, Note_on_c, 0, 76, 0
2, 1656, Note_on_c, 0, 74, 110
2, 1678, Note_on_c, 0, 74, 0
2, 1680, Note_on_c, 0, 76, 110
2, 1702, Note_on_c, 0, 76, 0
2, 1704, Note_on_c, 0, 70, 110
2, 1726, Note_on_c, 0, 70, 0
2, 1728, Note_on_c, 0, 74, 110
2, 1750, Note_on_c, 0, 74, 0
2, 1752, Note_on_c, 0, 73, 110
2, 1774, Note_on_c, 0, 73, 0
2, 1776, Note_on_c, 0, 71, 110
2, 1822, Note_on_c, 0, 71, 0
2, 2112, Note_on_c, 0, 71, 110
2, 2208, Note_on_c, 0, 71, 0
2, 2208, Note_on_c, 0, 83, 110
2, 2304, Note_on_c, 0, 83, 0
2, 2304, Note_on_c, 0, 82, 110
2, 2336, Note_on_c, 0, 82, 0
2, 2400, Note_on_c, 0, 69, 110
2, 2496, Note_on_c, 0, 69, 0
2, 2496, Note_on_c, 0, 81, 110
2, 2592, Note_on_c, 0, 81, 0
2, 2592, Note_on_c, 0, 80, 110
2, 2624, Note_on_c, 0, 80, 0
2, 2688, Note_on_c, 0, 67, 110
2, 2782, Note_on_c, 0, 67, 0
2, 2784, Note_on_c, 0, 79, 110
2, 2878, Note_on_c, 0, 79, 0
2, 2880, Note_on_c, 0, 78, 110
2, 2974, Note_on_c, 0, 78, 0
2, 2976, Note_on_c, 0, 80, 110
2, 3070, Note_on_c, 0, 80, 0
2, 3072, Note_on_c, 0, 82, 110
2, 3166, Note_on_c, 0, 82, 0
2, 3168, Note_on_c, 0, 83, 110
2, 3200, Note_on_c, 0, 83, 0
2, 3360, Note_on_c, 0, 71, 110
2, 3478, Note_on_c, 0, 71, 0
2, 3480, Note_on_c, 0, 68, 110
2, 3502, Note_on_c, 0, 68, 0
2, 3504, Note_on_c, 0, 69, 110
2, 3526, Note_on_c, 0, 69, 0
2, 3528, Note_on_c, 0, 74, 110
2, 3550, Note_on_c, 0, 74, 0
2, 3552, Note_on_c, 0, 74, 110
2, 3574, Note_on_c, 0, 74, 0
2, 3576, Note_on_c, 0, 71, 110
2, 3598, Note_on_c, 0, 71, 0
2, 3600, Note_on_c, 0, 72, 110
2, 3622, Note_on_c, 0, 72, 0
2, 3624, Note_on_c, 0, 83, 110
2, 3646, Note_on_c, 0, 83, 0
2, 3648, Note_on_c, 0, 81, 110
2, 3670, Note_on_c, 0, 81, 0
2, 3672, Note_on_c, 0, 79, 110
2, 3694, Note_on_c, 0, 79, 0
2, 3696, Note_on_c, 0, 81, 110
2, 3718, Note_on_c, 0, 81, 0
2, 3720, Note_on_c, 0, 75, 110
2, 3742, Note_on_c, 0, 75, 0
2, 3744, Note_on_c, 0, 79, 110
2, 3776, Note_on_c, 0, 79, 0
2, 3936, Note_on_c, 0, 67, 110
2, 4054, Note_on_c, 0, 67, 0
2, 4056, Note_on_c, 0, 64, 110
2, 4078, Note_on_c, 0, 64, 0
2, 4080, Note_on_c, 0, 66, 110
2, 4102, Note_on_c, 0, 66, 0
2, 4104, Note_on_c, 0, 71, 110
2, 4126, Note_on_c, 0, 71, 0
2, 4128, Note_on_c, 0, 71, 110
2, 4150, Note_on_c, 0, 71, 0
2, 4152, Note_on_c, 0, 67, 110
2, 4174, Note_on_c, 0, 67, 0
2, 4176, Note_on_c, 0, 69, 110
2, 4198, Note_on_c, 0, 69, 0
2, 4200, Note_on_c, 0, 79, 110
2, 4222, Note_on_c, 0, 79, 0
2, 4224, Note_on_c, 0, 78, 110
2, 4246, Note_on_c, 0, 78, 0
2, 4248, Note_on_c, 0, 76, 110
2, 4270, Note_on_c, 0, 76, 0
2, 4272, Note_on_c, 0, 78, 110
2, 4294, Note_on_c, 0, 78, 0
2, 4296, Note_on_c, 0, 71, 110
2, 4318, Note_on_c, 0, 71, 0
2, 4320, Note_on_c, 0, 76, 110
2, 4352, Note_on_c, 0, 76, 0
2, 4512, Note_on_c, 0, 64, 110
2, 4630, Note_on_c, 0, 64, 0
2, 4632, Note_on_c, 0, 61, 110
2, 4654, Note_on_c, 0, 61, 0
2, 4656, Note_on_c, 0, 63, 110
2, 4678, Note_on_c, 0, 63, 0
2, 4680, Note_on_c, 0, 67, 110
2, 4702, Note_on_c, 0, 67, 0
2, 4704, Note_on_c, 0, 67, 110
2, 4726, Note_on_c, 0, 67, 0
2, 4728, Note_on_c, 0, 64, 110
2, 4750, Note_on_c, 0, 64, 0
2, 4752, Note_on_c, 0, 66, 110
2, 4774, Note_on_c, 0, 66, 0
2, 4776, Note_on_c, 0, 76, 110
2, 4798, Note_on_c, 0, 76, 0
2, 4800, Note_on_c, 0, 75, 110
2, 4822, Note_on_c, 0, 75, 0
2, 4824, Note_on_c, 0, 73, 110
2, 4846, Note_on_c, 0, 73, 0
2, 4848, Note_on_c, 0, 75, 110
2, 4870, Note_on_c, 0, 75, 0
2, 4872, Note_on_c, 0, 69, 110
2, 4894, Note_on_c, 0, 69, 0
2, 4896, Note_on_c, 0, 67, 110
2, 4918, Note_on_c, 0, 67, 0
2, 4920, Note_on_c, 0, 66, 110
2, 4942, Note_on_c, 0, 66, 0
2, 4944, Note_on_c, 0, 64, 110
2, 4990, Note_on_c, 0, 64, 0
2, 5184, Note_on_c, 0, 64, 110
2, 5206, Note_on_c, 0, 64, 0
2, 5208, Note_on_c, 0, 66, 110
2, 5230, Note_on_c, 0, 66, 0
2, 5232, Note_on_c, 0, 67, 110
2, 5254, Note_on_c, 0, 67, 0
2, 5256, Note_on_c, 0, 69, 110
2, 5278, Note_on_c, 0, 69, 0
2, 5280, Note_on_c, 0, 71, 110
2, 5302, Note_on_c, 0, 71, 0
2, 5304, Note_on_c, 0, 73, 110
2, 5326, Note_on_c, 0, 73, 0
2, 5328, Note_on_c, 0, 75, 110
2, 5350, Note_on_c, 0, 75, 0
2, 5352, Note_on_c, 0, 76, 110
2, 5374, Note_on_c, 0, 76, 0
2, 5376, Note_on_c, 0, 75, 110
2, 5398, Note_on_c, 0, 75, 0
2, 5400, Note_on_c, 0, 73, 110
2, 5422, Note_on_c, 0, 73, 0
2, 5424, Note_on_c, 0, 71, 110
2, 5446, Note_on_c, 0, 71, 0
2, 5448, Note_on_c, 0, 69, 110
2, 5470, Note_on_c, 0, 69, 0
2, 5472, Note_on_c, 0, 67, 110
2, 5494, Note_on_c, 0, 67, 0
2, 5496, Note_on_c, 0, 66, 110
2, 5518, Note_on_c, 0, 66, 0
2, 5520, Note_on_c, 0, 64, 110
2, 5542, Note_on_c, 0, 64, 0
2, 5544, Note_on_c, 0, 66, 110
2, 5566, Note_on_c, 0, 66, 0
2, 5568, Note_on_c, 0, 67, 110
2, 5590, Note_on_c, 0, 67, 0
2, 5592, Note_on_c, 0, 69, 110
2, 5614, Note_on_c, 0, 69, 0
2, 5616, Note_on_c, 0, 71, 110
2, 5638, Note_on_c, 0, 71, 0
2, 5640, Note_on_c, 0, 72, 110
2, 5662, Note_on_c, 0, 72, 0
2, 5664, Note_on_c, 0, 71, 110
2, 5686, Note_on_c, 0, 71, 0
2, 5688, Note_on_c, 0, 69, 110
2, 5710, Note_on_c, 0, 69, 0
2, 5712, Note_on_c, 0, 67, 110
2, 5734, Note_on_c, 0, 67, 0
2, 5736, Note_on_c, 0, 66, 110
2, 5758, Note_on_c, 0, 66, 0
2, 5760, Note_on_c, 0, 64, 110
2, 5782, Note_on_c, 0, 64, 0
2, 5784, Note_on_c, 0, 66, 110
2, 5806, Note_on_c, 0, 66, 0
2, 5808, Note_on_c, 0, 67, 110
2, 5830, Note_on_c, 0, 67, 0
2, 5832, Note_on_c, 0, 69, 110
2, 5854, Note_on_c, 0, 69, 0
2, 5856, Note_on_c, 0, 71, 110
2, 5878, Note_on_c, 0, 71, 0
2, 5880, Note_on_c, 0, 73, 110
2, 5902, Note_on_c, 0, 73, 0
2, 5904, Note_on_c, 0, 75, 110
2, 5926, Note_on_c, 0, 75, 0
2, 5928, Note_on_c, 0, 76, 110
2, 5950, Note_on_c, 0, 76, 0
2, 5952, Note_on_c, 0, 75, 110
2, 5974, Note_on_c, 0, 75, 0
2, 5976, Note_on_c, 0, 73, 110
2, 5998, Note_on_c, 0, 73, 0
2, 6000, Note_on_c, 0, 71, 110
2, 6022, Note_on_c, 0, 71, 0
2, 6024, Note_on_c, 0, 69, 110
2, 6046, Note_on_c, 0, 69, 0
2, 6048, Note_on_c, 0, 67, 110
2, 6070, Note_on_c, 0, 67, 0
2, 6072, Note_on_c, 0, 66, 110
2, 6094, Note_on_c, 0, 66, 0
2, 6096, Note_on_c, 0, 64, 110
2, 6142, Note_on_c, 0, 64, 0
2, 6192, Note_on_c, 0, 84, 110
2, 6238, Note_on_c, 0, 84, 0
2, 6240, Note_on_c, 0, 83, 110
2, 6286, Note_on_c, 0, 83, 0
2, 6288, Note_on_c, 0, 82, 110
2, 6334, Note_on_c, 0, 82, 0
2, 6336, Note_on_c, 0, 82, 110
2, 6358, Note_on_c, 0, 82, 0
2, 6360, Note_on_c, 0, 83, 110
2, 6382, Note_on_c, 0, 83, 0
2, 6384, Note_on_c, 0, 71, 110
2, 6416, Note_on_c, 0, 71, 0
2, 6480, Note_on_c, 0, 82, 110
2, 6526, Note_on_c, 0, 82, 0
2, 6528, Note_on_c, 0, 81, 110
2, 6574, Note_on_c, 0, 81, 0
2, 6576, Note_on_c, 0, 80, 110
2, 6622, Note_on_c, 0, 80, 0
2, 6624, Note_on_c, 0, 80, 110
2, 6646, Note_on_c, 0, 80, 0
2, 6648, Note_on_c, 0, 81, 110
2, 6670, Note_on_c, 0, 81, 0
2, 6672, Note_on_c, 0, 69, 110
2, 6704, Note_on_c, 0, 69, 0
2, 6744, Note_on_c, 0, 69, 110
2, 6766, Note_on_c, 0, 69, 0
2, 6768, Note_on_c, 0, 72, 110
2, 6790, Note_on_c, 0, 72, 0
2, 6792, Note_on_c, 0, 76, 110
2, 6814, Note_on_c, 0, 76, 0
2, 6816, Note_on_c, 0, 81, 110
2, 6838, Note_on_c, 0, 81, 0
2, 6840, Note_on_c, 0, 79, 110
2, 6862, Note_on_c, 0, 79, 0
2, 6864, Note_on_c, 0, 78, 110
2, 6886, Note_on_c, 0, 78, 0
2, 6888, Note_on_c, 0, 76, 110
2, 6910, Note_on_c, 0, 76, 0
2, 6912, Note_on_c, 0, 75, 110
2, 6934, Note_on_c, 0, 75, 0
2, 6936, Note_on_c, 0, 78, 110
2, 6958, Note_on_c, 0, 78, 0
2, 6960, Note_on_c, 0, 79, 110
2, 7030, Note_on_c, 0, 79, 0
2, 7032, Note_on_c, 0, 76, 110
2, 7054, Note_on_c, 0, 76, 0
2, 7056, Note_on_c, 0, 70, 110
2, 7126, Note_on_c, 0, 70, 0
2, 7128, Note_on_c, 0, 69, 110
2, 7150, Note_on_c, 0, 69, 0
2, 7152, Note_on_c, 0, 78, 110
2, 7174, Note_on_c, 0, 78, 0
2, 7176, Note_on_c, 0, 69, 110
2, 7198, Note_on_c, 0, 69, 0
2, 7200, Note_on_c, 0, 68, 110
2, 7222, Note_on_c, 0, 68, 0
2, 7224, Note_on_c, 0, 71, 110
2, 7246, Note_on_c, 0, 71, 0
2, 7248, Note_on_c, 0, 72, 110
2, 7318, Note_on_c, 0, 72, 0
2, 7320, Note_on_c, 0, 69, 110
2, 7342, Note_on_c, 0, 69, 0
2, 7344, Note_on_c, 0, 63, 110
2, 7414, Note_on_c, 0, 63, 0
2, 7416, Note_on_c, 0, 64, 110
2, 7438, Note_on_c, 0, 64, 0
2, 7440, Note_on_c, 0, 71, 110
2, 7462, Note_on_c, 0, 71, 0
2, 7464, Note_on_c, 0, 74, 110
2, 7486, Note_on_c, 0, 74, 0
2, 7488, Note_on_c, 0, 73, 110
2, 7510, Note_on_c, 0, 73, 0
2, 7512, Note_on_c, 0, 76, 110
2, 7534, Note_on_c, 0, 76, 0
2, 7536, Note_on_c, 0, 77, 110
2, 7606, Note_on_c, 0, 77, 0
2, 7608, Note_on_c, 0, 74, 110
2, 7630, Note_on_c, 0, 74, 0
2, 7632, Note_on_c, 0, 68, 110
2, 7702, Note_on_c, 0, 68, 0
2, 7704, Note_on_c, 0, 67, 110
2, 7726, Note_on_c, 0, 67, 0
2, 7728, Note_on_c, 0, 76, 110
2, 7750, Note_on_c, 0, 76, 0
2, 7752, Note_on_c, 0, 67, 110
2, 7774, Note_on_c, 0, 67, 0
2, 7776, Note_on_c, 0, 66, 110
2, 7798, Note_on_c, 0, 66, 0
2, 7800, Note_on_c, 0, 69, 110
2, 7822, Note_on_c, 0, 69, 0
2, 7824, Note_on_c, 0, 70, 110
2, 7894, Note_on_c, 0, 70, 0
2, 7896, Note_on_c, 0, 67, 110
2, 7918, Note_on_c, 0, 67, 0
2, 7920, Note_on_c, 0, 61, 110
2, 7990, Note_on_c, 0, 61, 0
2, 7992, Note_on_c, 0, 62, 110
2, 8014, Note_on_c, 0, 62, 0
2, 8016, Note_on_c, 0, 69, 110
2, 8038, Note_on_c, 0, 69, 0
2, 8040, Note_on_c, 0, 72, 110
2, 8062, Note_on_c, 0, 72, 0
2, 8064, Note_on_c, 0, 71, 110
2, 8086, Note_on_c, 0, 71, 0
2, 8088, Note_on_c, 0, 69, 110
2, 8110, Note_on_c, 0, 69, 0
2, 8112, Note_on_c, 0, 67, 110
2, 8134, Note_on_c, 0, 67, 0
2, 8136, Note_on_c, 0, 69, 110
2, 8158, Note_on_c, 0, 69, 0
2, 8160, Note_on_c, 0, 71, 110
2, 8182, Note_on_c, 0, 71, 0
2, 8184, Note_on_c, 0, 72, 110
2, 8206, Note_on_c, 0, 72, 0
2, 8208, Note_on_c, 0, 74, 110
2, 8230, Note_on_c, 0, 74, 0
2, 8232, Note_on_c, 0, 76, 110
2, 8254, Note_on_c, 0, 76, 0
2, 8256, Note_on_c, 0, 78, 110
2, 8278, Note_on_c, 0, 78, 0
2, 8280, Note_on_c, 0, 79, 110
2, 8302, Note_on_c, 0, 79, 0
2, 8304, Note_on_c, 0, 78, 110
2, 8326, Note_on_c, 0, 78, 0
2, 8328, Note_on_c, 0, 76, 110
2, 8350, Note_on_c, 0, 76, 0
2, 8352, Note_on_c, 0, 74, 110
2, 8374, Note_on_c, 0, 74, 0
2, 8376, Note_on_c, 0, 72, 110
2, 8398, Note_on_c, 0, 72, 0
2, 8400, Note_on_c, 0, 71, 110
2, 8422, Note_on_c, 0, 71, 0
2, 8424, Note_on_c, 0, 69, 110
2, 8446, Note_on_c, 0, 69, 0
2, 8448, Note_on_c, 0, 67, 110
2, 8542, Note_on_c, 0, 67, 0
2, 8544, Note_on_c, 0, 79, 110
2, 8640, Note_on_c, 0, 79, 0
2, 8640, Note_on_c, 0, 78, 110
2, 8672, Note_on_c, 0, 78, 0
2, 8736, Note_on_c, 0, 65, 110
2, 8832, Note_on_c, 0, 65, 0
2, 8832, Note_on_c, 0, 77, 110
2, 8928, Note_on_c, 0, 77, 0
2, 8928, Note_on_c, 0, 76, 110
2, 8960, Note_on_c, 0, 76, 0
2, 9024, Note_on_c, 0, 63, 110
2, 9118, Note_on_c, 0, 63, 0
2, 9120, Note_on_c, 0, 75, 110
2, 9214, Note_on_c, 0, 75, 0
2, 9216, Note_on_c, 0, 74, 110
2, 9310, Note_on_c, 0, 74, 0
2, 9312, Note_on_c, 0, 76, 110
2, 9406, Note_on_c, 0, 76, 0
2, 9408, Note_on_c, 0, 78, 110
2, 9502, Note_on_c, 0, 78, 0
2, 9504, Note_on_c, 0, 67, 110
2, 9598, Note_on_c, 0, 67, 0
2, 9600, Note_on_c, 0, 66, 110
2, 9694, Note_on_c, 0, 66, 0
2, 9696, Note_on_c, 0, 64, 110
2, 9790, Note_on_c, 0, 64, 0
2, 9792, Note_on_c, 0, 62, 110
2, 9814, Note_on_c, 0, 62, 0
2, 9816, Note_on_c, 0, 64, 110
2, 9838, Note_on_c, 0, 64, 0
2, 9840, Note_on_c, 0, 66, 110
2, 9862, Note_on_c, 0, 66, 0
2, 9864, Note_on_c, 0, 67, 110
2, 9886, Note_on_c, 0, 67, 0
2, 9888, Note_on_c, 0, 69, 110
2, 9910, Note_on_c, 0, 69, 0
2, 9912, Note_on_c, 0, 71, 110
2, 9934, Note_on_c, 0, 71, 0
2, 9936, Note_on_c, 0, 73, 110
2, 9958, Note_on_c, 0, 73, 0
2, 9960, Note_on_c, 0, 74, 110
2, 9982, Note_on_c, 0, 74, 0
2, 9984, Note_on_c, 0, 73, 110
2, 10006, Note_on_c, 0, 73, 0
2, 10008, Note_on_c, 0, 71, 110
2, 10030, Note_on_c, 0, 71, 0
2, 10032, Note_on_c, 0, 69, 110
2, 10054, Note_on_c, 0, 69, 0
2, 10056, Note_on_c, 0, 67, 110
2, 10078, Note_on_c, 0, 67, 0
2, 10080, Note_on_c, 0, 66, 110
2, 10102, Note_on_c, 0, 66, 0
2, 10104, Note_on_c, 0, 64, 110
2, 10126, Note_on_c, 0, 64, 0
2, 10128, Note_on_c, 0, 62, 110
2, 10174, Note_on_c, 0, 62, 0
2, 10224, Note_on_c, 0, 70, 110
2, 10270, Note_on_c, 0, 70, 0
2, 10272, Note_on_c, 0, 69, 110
2, 10318, Note_on_c, 0, 69, 0
2, 10320, Note_on_c, 0, 68, 110
2, 10366, Note_on_c, 0, 68, 0
2, 10368, Note_on_c, 0, 68, 110
2, 10390, Note_on_c, 0, 68, 0
2, 10392, Note_on_c, 0, 69, 110
2, 10414, Note_on_c, 0, 69, 0
2, 10416, Note_on_c, 0, 57, 110
2, 10448, Note_on_c, 0, 57, 0
2, 10512, Note_on_c, 0, 68, 110
2, 10558, Note_on_c, 0, 68, 0
2, 10560, Note_on_c, 0, 67, 110
2, 10606, Note_on_c, 0, 67, 0
2, 10608, Note_on_c, 0, 66, 110
2, 10654, Note_on_c, 0, 66, 0
2, 10656, Note_on_c, 0, 66, 110
2, 10678, Note_on_c, 0, 66, 0
2, 10680, Note_on_c, 0, 67, 110
2, 10702, Note_on_c, 0, 67, 0
2, 10704, Note_on_c, 0, 55, 110
2, 10736, Note_on_c, 0, 55, 0
2, 10776, Note_on_c, 0, 67, 110
2, 10798, Note_on_c, 0, 67, 0
2, 10800, Note_on_c, 0, 70, 110
2, 10822, Note_on_c, 0, 70, 0
2, 10824, Note_on_c, 0, 74, 110
2, 10846, Note_on_c, 0, 74, 0
2, 10848, Note_on_c, 0, 79, 110
2, 10870, Note_on_c, 0, 79, 0
2, 10872, Note_on_c, 0, 77, 110
2, 10894, Note_on_c, 0, 77, 0
2, 10896, Note_on_c, 0, 76, 110
2, 10918, Note_on_c, 0, 76, 0
2, 10920, Note_on_c, 0, 74, 110
2, 10942, Note_on_c, 0, 74, 0
2, 10944, Note_on_c, 0, 73, 110
2, 10966, Note_on_c, 0, 73, 0
2, 10968, Note_on_c, 0, 76, 110
2, 10990, Note_on_c, 0, 76, 0
2, 10992, Note_on_c, 0, 77, 110
2, 11062, Note_on_c, 0, 77, 0
2, 11064, Note_on_c, 0, 74, 110
2, 11086, Note_on_c, 0, 74, 0
2, 11088, Note_on_c, 0, 68, 110
2, 11158, Note_on_c, 0, 68, 0
2, 11160, Note_on_c, 0, 67, 110
2, 11182, Note_on_c, 0, 67, 0
2, 11184, Note_on_c, 0, 76, 110
2, 11206, Note_on_c, 0, 76, 0
2, 11208, Note_on_c, 0, 67, 110
2, 11230, Note_on_c, 0, 67, 0
2, 11232, Note_on_c, 0, 67, 110
2, 11254, Note_on_c, 0, 67, 0
2, 11256, Note_on_c, 0, 64, 110
2, 11278, Note_on_c, 0, 64, 0
2, 11280, Note_on_c, 0, 65, 110
2, 11302, Note_on_c, 0, 65, 0
2, 11304, Note_on_c, 0, 70, 110
2, 11326, Note_on_c, 0, 70, 0
2, 11328, Note_on_c, 0, 70, 110
2, 11350, Note_on_c, 0, 70, 0
2, 11352, Note_on_c, 0, 68, 110
2, 11374, Note_on_c, 0, 68, 0
2, 11376, Note_on_c, 0, 69, 110
2, 11398, Note_on_c, 0, 69, 0
2, 11400, Note_on_c, 0, 79, 110
2, 11422, Note_on_c, 0, 79, 0
2, 11424, Note_on_c, 0, 77, 110
2, 11446, Note_on_c, 0, 77, 0
2, 11448, Note_on_c, 0, 76, 110
2, 11470, Note_on_c, 0, 76, 0
2, 11472, Note_on_c, 0, 77, 110
2, 11494, Note_on_c, 0, 77, 0
2, 11496, Note_on_c, 0, 71, 110
2, 11518, Note_on_c, 0, 71, 0
2, 11520, Note_on_c, 0, 76, 110
2, 11552, Note_on_c, 0, 76, 0
2, 11712, Note_on_c, 0, 64, 110
2, 11830, Note_on_c, 0, 64, 0
2, 11832, Note_on_c, 0, 61, 110
2, 11854, Note_on_c, 0, 61, 0
2, 11856, Note_on_c, 0, 62, 110
2, 11878, Note_on_c, 0, 62, 0
2, 11880, Note_on_c, 0, 69, 110
2, 11902, Note_on_c, 0, 69, 0
2, 11904, Note_on_c, 0, 69, 110
2, 11926, Note_on_c, 0, 69, 0
2, 11928, Note_on_c, 0, 66, 110
2, 11950, Note_on_c, 0, 66, 0
2, 11952, Note_on_c, 0, 68, 110
2, 11974, Note_on_c, 0, 68, 0
2, 11976, Note_on_c, 0, 76, 110
2, 11998, Note_on_c, 0, 76, 0
2, 12000, Note_on_c, 0, 74, 110
2, 12022, Note_on_c, 0, 74, 0
2, 12024, Note_on_c, 0, 73, 110
2, 12046, Note_on_c, 0, 73, 0
2, 12048, Note_on_c, 0, 74, 110
2, 12070, Note_on_c, 0, 74, 0
2, 12072, Note_on_c, 0, 68, 110
2, 12094, Note_on_c, 0, 68, 0
2, 12096, Note_on_c, 0, 72, 110
2, 12128, Note_on_c, 0, 72, 0
2, 12288, Note_on_c, 0, 60, 110
2, 12406, Note_on_c, 0, 60, 0
2, 12408, Note_on_c, 0, 58, 110
2, 12430, Note_on_c, 0, 58, 0
2, 12432, Note_on_c, 0, 59, 110
2, 12454, Note_on_c, 0, 59, 0
2, 12456, Note_on_c, 0, 66, 110
2, 12478, Note_on_c, 0, 66, 0
2, 12480, Note_on_c, 0, 66, 110
2, 12502, Note_on_c, 0, 66, 0
2, 12504, Note_on_c, 0, 63, 110
2, 12526, Note_on_c, 0, 63, 0
2, 12528, Note_on_c, 0, 64, 110
2, 12550, Note_on_c, 0, 64, 0
2, 12552, Note_on_c, 0, 72, 110
2, 12574, Note_on_c, 0, 72, 0
2, 12576, Note_on_c, 0, 71, 110
2, 12598, Note_on_c, 0, 71, 0
2, 12600, Note_on_c, 0, 70, 110
2, 12622, Note_on_c, 0, 70, 0
2, 12624, Note_on_c, 0, 71, 110
2, 12646, Note_on_c, 0, 71, 0
2, 12648, Note_on_c, 0, 64, 110
2, 12670, Note_on_c, 0, 64, 0
2, 12672, Note_on_c, 0, 70, 110
2, 12704, Note_on_c, 0, 70, 0
2, 12960, Note_on_c, 0, 71, 110
2, 12982, Note_on_c, 0, 71, 0
2, 12984, Note_on_c, 0, 73, 110
2, 13006, Note_on_c, 0, 73, 0
2, 13008, Note_on_c, 0, 74, 110
2, 13030, Note_on_c, 0, 74, 0
2, 13032, Note_on_c, 0, 76, 110
2, 13054, Note_on_c, 0, 76, 0
2, 13056, Note_on_c, 0, 78, 110
2, 13078, Note_on_c, 0, 78, 0
2, 13080, Note_on_c, 0, 80, 110
2, 13102, Note_on_c, 0, 80, 0
2, 13104, Note_on_c, 0, 82, 110
2, 13126, Note_on_c, 0, 82, 0
2, 13128, Note_on_c, 0, 83, 110
2, 13150, Note_on_c, 0, 83, 0
2, 13152, Note_on_c, 0, 82, 110
2, 13174, Note_on_c, 0, 82, 0
2, 13176, Note_on_c, 0, 80, 110
2, 13198, Note_on_c, 0, 80, 0
2, 13200, Note_on_c, 0, 78, 110
2, 13222, Note_on_c, 0, 78, 0
2, 13224, Note_on_c, 0, 76, 110
2, 13246, Note_on_c, 0, 76, 0
2, 13248, Note_on_c, 0, 74, 110
2, 13270, Note_on_c, 0, 74, 0
2, 13272, Note_on_c, 0, 73, 110
2, 13294, Note_on_c, 0, 73, 0
2, 13296, Note_on_c, 0, 71, 110
2, 13318, Note_on_c, 0, 71, 0
2, 13320, Note_on_c, 0, 73, 110
2, 13342, Note_on_c, 0, 73, 0
2, 13344, Note_on_c, 0, 74, 110
2, 13366, Note_on_c, 0, 74, 0
2, 13368, Note_on_c, 0, 76, 110
2, 13390, Note_on_c, 0, 76, 0
2, 13392, Note_on_c, 0, 78, 110
2, 13414, Note_on_c, 0, 78, 0
2, 13416, Note_on_c, 0, 79, 110
2, 13438, Note_on_c, 0, 79, 0
2, 13440, Note_on_c, 0, 78, 110
2, 13462, Note_on_c, 0, 78, 0
2, 13464, Note_on_c, 0, 76, 110
2, 13486, Note_on_c, 0, 76, 0
2, 13488, Note_on_c, 0, 74, 110
2, 13510, Note_on_c, 0, 74, 0
2, 13512, Note_on_c, 0, 73, 110
2, 13534, Note_on_c, 0, 73, 0
2, 13536, Note_on_c, 0, 71, 110
2, 13558, Note_on_c, 0, 71, 0
2, 13560, Note_on_c, 0, 73, 110
2, 13582, Note_on_c, 0, 73, 0
2, 13584, Note_on_c, 0, 74, 110
2, 13606, Note_on_c, 0, 74, 0
2, 13608, Note_on_c, 0, 76, 110
2, 13630, Note_on_c, 0, 76, 0
2, 13632, Note_on_c, 0, 78, 110
2, 13654, Note_on_c, 0, 78, 0
2, 13656, Note_on_c, 0, 80, 110
2, 13678, Note_on_c, 0, 80, 0
2, 13680, Note_on_c, 0, 82, 110
2, 13702, Note_on_c, 0, 82, 0
2, 13704, Note_on_c, 0, 83, 110
2, 13726, Note_on_c, 0, 83, 0
2, 13728, Note_on_c, 0, 82, 110
2, 13750, Note_on_c, 0, 82, 0
2, 13752, Note_on_c, 0, 80, 110
2, 13774, Note_on_c, 0, 80, 0
2, 13776, Note_on_c, 0, 78, 110
2, 13798, Note_on_c, 0, 78, 0
2, 13800, Note_on_c, 0, 76, 110
2, 13822, Note_on_c, 0, 76, 0
2, 13824, Note_on_c, 0, 74, 110
2, 13846, Note_on_c, 0, 74, 0
2, 13848, Note_on_c, 0, 73, 110
2, 13870, Note_on_c, 0, 73, 0
2, 13872, Note_on_c, 0, 71, 110
2, 13894, Note_on_c, 0, 71, 0
2, 13896, Note_on_c, 0, 73, 110
2, 13918, Note_on_c, 0, 73, 0
2, 13920, Note_on_c, 0, 74, 110
2, 13942, Note_on_c, 0, 74, 0
2, 13944, Note_on_c, 0, 76, 110
2, 13966, Note_on_c, 0, 76, 0
2, 13968, Note_on_c, 0, 78, 110
2, 13990, Note_on_c, 0, 78, 0
2, 13992, Note_on_c, 0, 79, 110
2, 14014, Note_on_c, 0, 79, 0
2, 14016, Note_on_c, 0, 78, 110
2, 14038, Note_on_c, 0, 78, 0
2, 14040, Note_on_c, 0, 76, 110
2, 14062, Note_on_c, 0, 76, 0
2, 14064, Note_on_c, 0, 74, 110
2, 14086, Note_on_c, 0, 74, 0
2, 14088, Note_on_c, 0, 73, 110
2, 14110, Note_on_c, 0, 73, 0
2, 14112, Note_on_c, 0, 71, 110
2, 14144, Note_on_c, 0, 71, 0
2, 14208, Note_on_c, 0, 83, 110
2, 14304, Note_on_c, 0, 83, 0
2, 14304, Note_on_c, 0, 71, 110
2, 14400, Note_on_c, 0, 71, 0
2, 14400, Note_on_c, 0, 70, 110
2, 14432, Note_on_c, 0, 70, 0
2, 14496, Note_on_c, 0, 81, 110
2, 14592, Note_on_c, 0, 81, 0
2, 14592, Note_on_c, 0, 69, 110
2, 14688, Note_on_c, 0, 69, 0
2, 14688, Note_on_c, 0, 68, 110
2, 14720, Note_on_c, 0, 68, 0
2, 14784, Note_on_c, 0, 79, 110
2, 14878, Note_on_c, 0, 79, 0
2, 14880, Note_on_c, 0, 67, 110
2, 14974, Note_on_c, 0, 67, 0
2, 14976, Note_on_c, 0, 66, 110
2, 15072, Note_on_c, 0, 66, 0
2, 15072, Note_on_c, 0, 68, 110
2, 15168, Note_on_c, 0, 68, 0
2, 15168, Note_on_c, 0, 70, 110
2, 15264, Note_on_c, 0, 70, 0
2, 15264, Note_on_c, 0, 71, 110
2, 15360, Note_on_c, 0, 71, 0
2, 15360, Note_on_c, 0, 73, 110
2, 15456, Note_on_c, 0, 73, 0
2, 15456, Note_on_c, 0, 75, 110
2, 15488, Note_on_c, 0, 75, 0
2, 15552, Note_on_c, 0, 64, 110
2, 15648, Note_on_c, 0, 64, 0
2, 15648, Note_on_c, 0, 66, 110
2, 15744, Note_on_c, 0, 66, 0
2, 15744, Note_on_c, 0, 68, 110
2, 15840, Note_on_c, 0, 68, 0
2, 15840, Note_on_c, 0, 69, 110
2, 15936, Note_on_c, 0, 69, 0
2, 15936, Note_on_c, 0, 71, 110
2, 16032, Note_on_c, 0, 71, 0
2, 16032, Note_on_c, 0, 73, 110
2, 16064, Note_on_c, 0, 73, 0
2, 16128, Note_on_c, 0, 74, 110
2, 16150, Note_on_c, 0, 74, 0
2, 16152, Note_on_c, 0, 73, 110
2, 16174, Note_on_c, 0, 73, 0
2, 16176, Note_on_c, 0, 71, 110
2, 16198, Note_on_c, 0, 71, 0
2, 16200, Note_on_c, 0, 69, 110
2, 16222, Note_on_c, 0, 69, 0
2, 16224, Note_on_c, 0, 68, 110
2, 16246, Note_on_c, 0, 68, 0
2, 16248, Note_on_c, 0, 66, 110
2, 16270, Note_on_c, 0, 66, 0
2, 16272, Note_on_c, 0, 64, 110
2, 16294, Note_on_c, 0, 64, 0
2, 16296, Note_on_c, 0, 63, 110
2, 16318, Note_on_c, 0, 63, 0
2, 16320, Note_on_c, 0, 64, 110
2, 16342, Note_on_c, 0, 64, 0
2, 16344, Note_on_c, 0, 66, 110
2, 16366, Note_on_c, 0, 66, 0
2, 16368, Note_on_c, 0, 68, 110
2, 16390, Note_on_c, 0, 68, 0
2, 16392, Note_on_c, 0, 69, 110
2, 16414, Note_on_c, 0, 69, 0
2, 16416, Note_on_c, 0, 71, 110
2, 16438, Note_on_c, 0, 71, 0
2, 16440, Note_on_c, 0, 72, 110
2, 16462, Note_on_c, 0, 72, 0
2, 16464, Note_on_c, 0, 74, 110
2, 16510, Note_on_c, 0, 74, 0
2, 16632, Note_on_c, 0, 74, 110
2, 16654, Note_on_c, 0, 74, 0
2, 16656, Note_on_c, 0, 72, 110
2, 16678, Note_on_c, 0, 72, 0
2, 16680, Note_on_c, 0, 71, 110
2, 16702, Note_on_c, 0, 71, 0
2, 16704, Note_on_c, 0, 69, 110
2, 16726, Note_on_c, 0, 69, 0
2, 16728, Note_on_c, 0, 71, 110
2, 16750, Note_on_c, 0, 71, 0
2, 16752, Note_on_c, 0, 72, 110
2, 16774, Note_on_c, 0, 72, 0
2, 16776, Note_on_c, 0, 74, 110
2, 16798, Note_on_c, 0, 74, 0
2, 16800, Note_on_c, 0, 76, 110
2, 16822, Note_on_c, 0, 76, 0
2, 16824, Note_on_c, 0, 78, 110
2, 16846, Note_on_c, 0, 78, 0
2, 16848, Note_on_c, 0, 79, 110
2, 16870, Note_on_c, 0, 79, 0
2, 16872, Note_on_c, 0, 81, 110
2, 16894, Note_on_c, 0, 81, 0
2, 16896, Note_on_c, 0, 79, 110
2, 16918, Note_on_c, 0, 79, 0
2, 16920, Note_on_c, 0, 78, 110
2, 16942, Note_on_c, 0, 78, 0
2, 16944, Note_on_c, 0, 76, 110
2, 16966, Note_on_c, 0, 76, 0
2, 16968, Note_on_c, 0, 75, 110
2, 16990, Note_on_c, 0, 75, 0
2, 16992, Note_on_c, 0, 84, 110
2, 17014, Note_on_c, 0, 84, 0
2, 17016, Note_on_c, 0, 81, 110
2, 17038, Note_on_c, 0, 81, 0
2, 17040, Note_on_c, 0, 83, 110
2, 17086, Note_on_c, 0, 83, 0
2, 17208, Note_on_c, 0, 69, 110
2, 17230, Note_on_c, 0, 69, 0
2, 17232, Note_on_c, 0, 67, 110
2, 17254, Note_on_c, 0, 67, 0
2, 17256, Note_on_c, 0, 66, 110
2, 17278, Note_on_c, 0, 66, 0
2, 17280, Note_on_c, 0, 64, 110
2, 17302, Note_on_c, 0, 64, 0
2, 17304, Note_on_c, 0, 66, 110
2, 17326, Note_on_c, 0, 66, 0
2, 17328, Note_on_c, 0, 67, 110
2, 17350, Note_on_c, 0, 67, 0
2, 17352, Note_on_c, 0, 69, 110
2, 17374, Note_on_c, 0, 69, 0
2, 17376, Note_on_c, 0, 71, 110
2, 17398, Note_on_c, 0, 71, 0
2, 17400, Note_on_c, 0, 73, 110
2, 17422, Note_on_c, 0, 73, 0
2, 17424, Note_on_c, 0, 75, 110
2, 17446, Note_on_c, 0, 75, 0
2, 17448, Note_on_c, 0, 76, 110
2, 17470, Note_on_c, 0, 76, 0
2, 17472, Note_on_c, 0, 75, 110
2, 17494, Note_on_c, 0, 75, 0
2, 17496, Note_on_c, 0, 73, 110
2, 17518, Note_on_c, 0, 73, 0
2, 17520, Note_on_c, 0, 71, 110
2, 17542, Note_on_c, 0, 71, 0
2, 17544, Note_on_c, 0, 69, 110
2, 17566, Note_on_c, 0, 69, 0
2, 17568, Note_on_c, 0, 67, 110
2, 17590, Note_on_c, 0, 67, 0
2, 17592, Note_on_c, 0, 66, 110
2, 17614, Note_on_c, 0, 66, 0
2, 17616, Note_on_c, 0, 64, 110
2, 17662, Note_on_c, 0, 64, 0
2, 17712, Note_on_c, 0, 72, 110
2, 17758, Note_on_c, 0, 72, 0
2, 17760, Note_on_c, 0, 71, 110
2, 17806, Note_on_c, 0, 71, 0
2, 17808, Note_on_c, 0, 70, 110
2, 17854, Note_on_c, 0, 70, 0
2, 17856, Note_on_c, 0, 70, 110
2, 17878, Note_on_c, 0, 70, 0
2, 17880, Note_on_c, 0, 71, 110
2, 17902, Note_on_c, 0, 71, 0
2, 17904, Note_on_c, 0, 59, 110
2, 17936, Note_on_c, 0, 59, 0
2, 18000, Note_on_c, 0, 70, 110
2, 18046, Note_on_c, 0, 70, 0
2, 18048, Note_on_c, 0, 69, 110
2, 18094, Note_on_c, 0, 69, 0
2, 18096, Note_on_c, 0, 68, 110
2, 18142, Note_on_c, 0, 68, 0
2, 18144, Note_on_c, 0, 68, 110
2, 18166, Note_on_c, 0, 68, 0
2, 18168, Note_on_c, 0, 69, 110
2, 18190, Note_on_c, 0, 69, 0
2, 18192, Note_on_c, 0, 57, 110
2, 18224, Note_on_c, 0, 57, 0
2, 18264, Note_on_c, 0, 69, 110
2, 18286, Note_on_c, 0, 69, 0
2, 18288, Note_on_c, 0, 72, 110
2, 18310, Note_on_c, 0, 72, 0
2, 18312, Note_on_c, 0, 76, 110
2, 18334, Note_on_c, 0, 76, 0
2, 18336, Note_on_c, 0, 81, 110
2, 18358, Note_on_c, 0, 81, 0
2, 18360, Note_on_c, 0, 79, 110
2, 18382, Note_on_c, 0, 79, 0
2, 18384, Note_on_c, 0, 78, 110
2, 18406, Note_on_c, 0, 78, 0
2, 18408, Note_on_c, 0, 76, 110
2, 18430, Note_on_c, 0, 76, 0
2, 18432, Note_on_c, 0, 75, 110
2, 18454, Note_on_c, 0, 75, 0
2, 18456, Note_on_c, 0, 78, 110
2, 18478, Note_on_c, 0, 78, 0
2, 18480, Note_on_c, 0, 79, 110
2, 18550, Note_on_c, 0, 79, 0
2, 18552, Note_on_c, 0, 76, 110
2, 18574, Note_on_c, 0, 76, 0
2, 18576, Note_on_c, 0, 70, 110
2, 18646, Note_on_c, 0, 70, 0
2, 18648, Note_on_c, 0, 69, 110
2, 18670, Note_on_c, 0, 69, 0
2, 18672, Note_on_c, 0, 78, 110
2, 18694, Note_on_c, 0, 78, 0
2, 18696, Note_on_c, 0, 69, 110
2, 18718, Note_on_c, 0, 69, 0
2, 18720, Note_on_c, 0, 67, 110
2, 18742, Note_on_c, 0, 67, 0
2, 18744, Note_on_c, 0, 66, 110
2, 18766, Note_on_c, 0, 66, 0
2, 18768, Note_on_c, 0, 64, 110
2, 18790, Note_on_c, 0, 64, 0
2, 18792, Note_on_c, 0, 66, 110
2, 18814, Note_on_c, 0, 66, 0
2, 18816, Note_on_c, 0, 67, 110
2, 18838, Note_on_c, 0, 67, 0
2, 18840, Note_on_c, 0, 69, 110
2, 18862, Note_on_c, 0, 69, 0
2, 18864, Note_on_c, 0, 71, 110
2, 18886, Note_on_c, 0, 71, 0
2, 18888, Note_on_c, 0, 73, 110
2, 18910, Note_on_c, 0, 73, 0
2, 18912, Note_on_c, 0, 75, 110
2, 18934, Note_on_c, 0, 75, 0
2, 18936, Note_on_c, 0, 76, 110
2, 18958, Note_on_c, 0, 76, 0
2, 18960, Note_on_c, 0, 75, 110
2, 18982, Note_on_c, 0, 75, 0
2, 18984, Note_on_c, 0, 73, 110
2, 19006, Note_on_c, 0, 73, 0
2, 19008, Note_on_c, 0, 71, 110
2, 19030, Note_on_c, 0, 71, 0
2, 19032, Note_on_c, 0, 69, 110
2, 19054, Note_on_c, 0, 69, 0
2, 19056, Note_on_c, 0, 67, 110
2, 19078, Note_on_c, 0, 67, 0
2, 19080, Note_on_c, 0, 66, 110
2, 19102, Note_on_c, 0, 66, 0
2, 19104, Note_on_c, 0, 64, 110
2, 19198, Note_on_c, 0, 64, 0
2, 19200, Note_on_c, 0, 76, 110
2, 19296, Note_on_c, 0, 76, 0
2, 19296, Note_on_c, 0, 75, 110
2, 19328, Note_on_c, 0, 75, 0
2, 19392, Note_on_c, 0, 62, 110
2, 19488, Note_on_c, 0, 62, 0
2, 19488, Note_on_c, 0, 74, 110
2, 19584, Note_on_c, 0, 74, 0
2, 19584, Note_on_c, 0, 73, 110
2, 19616, Note_on_c, 0, 73, 0
2, 19680, Note_on_c, 0, 60, 110
2, 19774, Note_on_c, 0, 60, 0
2, 19776, Note_on_c, 0, 72, 110
2, 19870, Note_on_c, 0, 72, 0
2, 19872, Note_on_c, 0, 71, 110
2, 19966, Note_on_c, 0, 71, 0
2, 19968, Note_on_c, 0, 73, 110
2, 20062, Note_on_c, 0, 73, 0
2, 20064, Note_on_c, 0, 75, 110
2, 20182, Note_on_c, 0, 74, 0
2, 20182, Note_on_c, 0, 74, 0
2, 20182, Note_on_c, 0, 74, 0
2, 20182, Note_on_c, 0, 74, 0
2, 20184, Note_on_c, 0, 70, 110
2, 20206, Note_on_c, 0, 70, 0
2, 20208, Note_on_c, 0, 71, 110
2, 20278, Note_on_c, 0, 71, 0
2, 20280, Note_on_c, 0, 75, 110
2, 20302, Note_on_c, 0, 75, 0
2, 20304, Note_on_c, 0, 76, 110
2, 20374, Note_on_c, 0, 76, 0
2, 20376, Note_on_c, 0, 75, 110
2, 20398, Note_on_c, 0, 75, 0
2, 20400, Note_on_c, 0, 81, 110
2, 20470, Note_on_c, 0, 81, 0
2, 20472, Note_on_c, 0, 79, 110
2, 20494, Note_on_c, 0, 79, 0
2, 20496, Note_on_c, 0, 78, 110
2, 20518, Note_on_c, 0, 78, 0
2, 20520, Note_on_c, 0, 76, 110
2, 20542, Note_on_c, 0, 76, 0
2, 20544, Note_on_c, 0, 78, 110
2, 20638, Note_on_c, 0, 78, 0
2, 20640, Note_on_c, 0, 75, 110
2, 20654, Note_on_c, 0, 75, 0
2, 20656, Note_on_c, 0, 76, 110
2, 20670, Note_on_c, 0, 76, 0
2, 20672, Note_on_c, 0, 75, 110
2, 20686, Note_on_c, 0, 75, 0
2, 20688, Note_on_c, 0, 73, 110
2, 20710, Note_on_c, 0, 73, 0
2, 20712, Note_on_c, 0, 75, 110
2, 20734, Note_on_c, 0, 75, 0
2, 20736, Note_on_c, 0, 76, 110
2, 20992, Note_on_c, 0, 76, 0
2, 20992, Note_on_c, 0, 75, 0
2, 20992, End_track
3, 0, Start_track
3, 0, MIDI_port, 0
3, 0, Title_t, "L.H."
3, 0, Program_c, 1, 0
3, 0, Control_c, 1, 7, 127
3, 0, Control_c, 1, 10, 64
3, 384, Note_on_c, 1, 40, 110
3, 480, Note_on_c, 1, 40, 0
3, 480, Note_on_c, 1, 52, 110
3, 576, Note_on_c, 1, 52, 0
3, 576, Note_on_c, 1, 51, 110
3, 608, Note_on_c, 1, 51, 0
3, 672, Note_on_c, 1, 38, 110
3, 768, Note_on_c, 1, 38, 0
3, 768, Note_on_c, 1, 50, 110
3, 864, Note_on_c, 1, 50, 0
3, 864, Note_on_c, 1, 49, 110
3, 896, Note_on_c, 1, 49, 0
3, 960, Note_on_c, 1, 36, 110
3, 1054, Note_on_c, 1, 36, 0
3, 1056, Note_on_c, 1, 48, 110
3, 1150, Note_on_c, 1, 48, 0
3, 1152, Note_on_c, 1, 47, 110
3, 1246, Note_on_c, 1, 47, 0
3, 1248, Note_on_c, 1, 49, 110
3, 1342, Note_on_c, 1, 49, 0
3, 1344, Note_on_c, 1, 51, 110
3, 1438, Note_on_c, 1, 51, 0
3, 1440, Note_on_c, 1, 52, 110
3, 1534, Note_on_c, 1, 52, 0
3, 1536, Note_on_c, 1, 50, 110
3, 1630, Note_on_c, 1, 50, 0
3, 1632, Note_on_c, 1, 49, 110
3, 1726, Note_on_c, 1, 49, 0
3, 1728, Note_on_c, 1, 47, 110
3, 1750, Note_on_c, 1, 47, 0
3, 1752, Note_on_c, 1, 49, 110
3, 1774, Note_on_c, 1, 49, 0
3, 1776, Note_on_c, 1, 50, 110
3, 1798, Note_on_c, 1, 50, 0
3, 1800, Note_on_c, 1, 52, 110
3, 1822, Note_on_c, 1, 52, 0
3, 1824, Note_on_c, 1, 54, 110
3, 1846, Note_on_c, 1, 54, 0
3, 1848, Note_on_c, 1, 56, 110
3, 1870, Note_on_c, 1, 56, 0
3, 1872, Note_on_c, 1, 58, 110
3, 1894, Note_on_c, 1, 58, 0
3, 1896, Note_on_c, 1, 59, 110
3, 1918, Note_on_c, 1, 59, 0
3, 1920, Note_on_c, 1, 58, 110
3, 1942, Note_on_c, 1, 58, 0
3, 1944, Note_on_c, 1, 56, 110
3, 1966, Note_on_c, 1, 56, 0
3, 1968, Note_on_c, 1, 54, 110
3, 1990, Note_on_c, 1, 54, 0
3, 1992, Note_on_c, 1, 52, 110
3, 2014, Note_on_c, 1, 52, 0
3, 2016, Note_on_c, 1, 50, 110
3, 2038, Note_on_c, 1, 50, 0
3, 2040, Note_on_c, 1, 49, 110
3, 2062, Note_on_c, 1, 49, 0
3, 2064, Note_on_c, 1, 47, 110
3, 2110, Note_on_c, 1, 47, 0
3, 2160, Note_on_c, 1, 55, 110
3, 2206, Note_on_c, 1, 55, 0
3, 2208, Note_on_c, 1, 54, 110
3, 2254, Note_on_c, 1, 54, 0
3, 2256, Note_on_c, 1, 53, 110
3, 2302, Note_on_c, 1, 53, 0
3, 2304, Note_on_c, 1, 53, 110
3, 2326, Note_on_c, 1, 53, 0
3, 2328, Note_on_c, 1, 54, 110
3, 2350, Note_on_c, 1, 54, 0
3, 2352, Note_on_c, 1, 42, 110
3, 2384, Note_on_c, 1, 42, 0
3, 2448, Note_on_c, 1, 53, 110
3, 2494, Note_on_c, 1, 53, 0
3, 2496, Note_on_c, 1, 52, 110
3, 2542, Note_on_c, 1, 52, 0
3, 2544, Note_on_c, 1, 51, 110
3, 2590, Note_on_c, 1, 51, 0
3, 2592, Note_on_c, 1, 51, 110
3, 2614, Note_on_c, 1, 51, 0
3, 2616, Note_on_c, 1, 52, 110
3, 2638, Note_on_c, 1, 52, 0
3, 2640, Note_on_c, 1, 40, 110
3, 2672, Note_on_c, 1, 40, 0
3, 2712, Note_on_c, 1, 52, 110
3, 2734, Note_on_c, 1, 52, 0
3, 2736, Note_on_c, 1, 55, 110
3, 2758, Note_on_c, 1, 55, 0
3, 2760, Note_on_c, 1, 59, 110
3, 2782, Note_on_c, 1, 59, 0
3, 2784, Note_on_c, 1, 64, 110
3, 2806, Note_on_c, 1, 64, 0
3, 2808, Note_on_c, 1, 62, 110
3, 2830, Note_on_c, 1, 62, 0
3, 2832, Note_on_c, 1, 61, 110
3, 2854, Note_on_c, 1, 61, 0
3, 2856, Note_on_c, 1, 59, 110
3, 2878, Note_on_c, 1, 59, 0
3, 2880, Note_on_c, 1, 58, 110
3, 2902, Note_on_c, 1, 58, 0
3, 2904, Note_on_c, 1, 61, 110
3, 2926, Note_on_c, 1, 61, 0
3, 2928, Note_on_c, 1, 62, 110
3, 2998, Note_on_c, 1, 62, 0
3, 3000, Note_on_c, 1, 59, 110
3, 3022, Note_on_c, 1, 59, 0
3, 3024, Note_on_c, 1, 53, 110
3, 3094, Note_on_c, 1, 53, 0
3, 3096, Note_on_c, 1, 52, 110
3, 3118, Note_on_c, 1, 52, 0
3, 3120, Note_on_c, 1, 61, 110
3, 3142, Note_on_c, 1, 61, 0
3, 3144, Note_on_c, 1, 52, 110
3, 3166, Note_on_c, 1, 52, 0
3, 3168, Note_on_c, 1, 52, 110
3, 3190, Note_on_c, 1, 52, 0
3, 3192, Note_on_c, 1, 49, 110
3, 3214, Note_on_c, 1, 49, 0
3, 3216, Note_on_c, 1, 50, 110
3, 3238, Note_on_c, 1, 50, 0
3, 3240, Note_on_c, 1, 55, 110
3, 3262, Note_on_c, 1, 55, 0
3, 3264, Note_on_c, 1, 55, 110
3, 3286, Note_on_c, 1, 55, 0
3, 3288, Note_on_c, 1, 52, 110
3, 3310, Note_on_c, 1, 52, 0
3, 3312, Note_on_c, 1, 54, 110
3, 3334, Note_on_c, 1, 54, 0
3, 3336, Note_on_c, 1, 64, 110
3, 3358, Note_on_c, 1, 64, 0
3, 3360, Note_on_c, 1, 62, 110
3, 3382, Note_on_c, 1, 62, 0
3, 3384, Note_on_c, 1, 61, 110
3, 3406, Note_on_c, 1, 61, 0
3, 3408, Note_on_c, 1, 62, 110
3, 3430, Note_on_c, 1, 62, 0
3, 3432, Note_on_c, 1, 56, 110
3, 3454, Note_on_c, 1, 56, 0
3, 3456, Note_on_c, 1, 60, 110
3, 3550, Note_on_c, 1, 60, 0
3, 3648, Note_on_c, 1, 48, 110
3, 3766, Note_on_c, 1, 48, 0
3, 3768, Note_on_c, 1, 45, 110
3, 3790, Note_on_c, 1, 45, 0
3, 3792, Note_on_c, 1, 47, 110
3, 3814, Note_on_c, 1, 47, 0
3, 3816, Note_on_c, 1, 54, 110
3, 3838, Note_on_c, 1, 54, 0
3, 3840, Note_on_c, 1, 54, 110
3, 3862, Note_on_c, 1, 54, 0
3, 3864, Note_on_c, 1, 51, 110
3, 3886, Note_on_c, 1, 51, 0
3, 3888, Note_on_c, 1, 52, 110
3, 3910, Note_on_c, 1, 52, 0
3, 3912, Note_on_c, 1, 60, 110
3, 3934, Note_on_c, 1, 60, 0
3, 3936, Note_on_c, 1, 59, 110
3, 3958, Note_on_c, 1, 59, 0
3, 3960, Note_on_c, 1, 57, 110
3, 3982, Note_on_c, 1, 57, 0
3, 3984, Note_on_c, 1, 59, 110
3, 4006, Note_on_c, 1, 59, 0
3, 4008, Note_on_c, 1, 52, 110
3, 4030, Note_on_c, 1, 52, 0
3, 4032, Note_on_c, 1, 57, 110
3, 4126, Note_on_c, 1, 57, 0
3, 4224, Note_on_c, 1, 45, 110
3, 4342, Note_on_c, 1, 45, 0
3, 4344, Note_on_c, 1, 42, 110
3, 4366, Note_on_c, 1, 42, 0
3, 4368, Note_on_c, 1, 43, 110
3, 4390, Note_on_c, 1, 43, 0
3, 4392, Note_on_c, 1, 48, 110
3, 4414, Note_on_c, 1, 48, 0
3, 4416, Note_on_c, 1, 48, 110
3, 4438, Note_on_c, 1, 48, 0
3, 4440, Note_on_c, 1, 45, 110
3, 4462, Note_on_c, 1, 45, 0
3, 4464, Note_on_c, 1, 47, 110
3, 4486, Note_on_c, 1, 47, 0
3, 4488, Note_on_c, 1, 57, 110
3, 4510, Note_on_c, 1, 57, 0
3, 4512, Note_on_c, 1, 55, 110
3, 4534, Note_on_c, 1, 55, 0
3, 4536, Note_on_c, 1, 54, 110
3, 4558, Note_on_c, 1, 54, 0
3, 4560, Note_on_c, 1, 55, 110
3, 4582, Note_on_c, 1, 55, 0
3, 4584, Note_on_c, 1, 49, 110
3, 4606, Note_on_c, 1, 49, 0
3, 4608, Note_on_c, 1, 54, 110
3, 4702, Note_on_c, 1, 54, 0
3, 4800, Note_on_c, 1, 47, 110
3, 4894, Note_on_c, 1, 47, 0
3, 4896, Note_on_c, 1, 52, 110
3, 4918, Note_on_c, 1, 52, 0
3, 4920, Note_on_c, 1, 54, 110
3, 4942, Note_on_c, 1, 54, 0
3, 4944, Note_on_c, 1, 55, 110
3, 4966, Note_on_c, 1, 55, 0
3, 4968, Note_on_c, 1, 57, 110
3, 4990, Note_on_c, 1, 57, 0
3, 4992, Note_on_c, 1, 59, 110
3, 5014, Note_on_c, 1, 59, 0
3, 5016, Note_on_c, 1, 61, 110
3, 5038, Note_on_c, 1, 61, 0
3, 5040, Note_on_c, 1, 63, 110
3, 5062, Note_on_c, 1, 63, 0
3, 5064, Note_on_c, 1, 64, 110
3, 5086, Note_on_c, 1, 64, 0
3, 5088, Note_on_c, 1, 63, 110
3, 5110, Note_on_c, 1, 63, 0
3, 5112, Note_on_c, 1, 61, 110
3, 5134, Note_on_c, 1, 61, 0
3, 5136, Note_on_c, 1, 59, 110
3, 5158, Note_on_c, 1, 59, 0
3, 5160, Note_on_c, 1, 57, 110
3, 5182, Note_on_c, 1, 57, 0
3, 5184, Note_on_c, 1, 55, 110
3, 5206, Note_on_c, 1, 55, 0
3, 5208, Note_on_c, 1, 54, 110
3, 5230, Note_on_c, 1, 54, 0
3, 5232, Note_on_c, 1, 52, 110
3, 5254, Note_on_c, 1, 52, 0
3, 5256, Note_on_c, 1, 54, 110
3, 5278, Note_on_c, 1, 54, 0
3, 5280, Note_on_c, 1, 55, 110
3, 5302, Note_on_c, 1, 55, 0
3, 5304, Note_on_c, 1, 57, 110
3, 5326, Note_on_c, 1, 57, 0
3, 5328, Note_on_c, 1, 59, 110
3, 5350, Note_on_c, 1, 59, 0
3, 5352, Note_on_c, 1, 60, 110
3, 5374, Note_on_c, 1, 60, 0
3, 5376, Note_on_c, 1, 59, 110
3, 5398, Note_on_c, 1, 59, 0
3, 5400, Note_on_c, 1, 57, 110
3, 5422, Note_on_c, 1, 57, 0
3, 5424, Note_on_c, 1, 55, 110
3, 5446, Note_on_c, 1, 55, 0
3, 5448, Note_on_c, 1, 54, 110
3, 5470, Note_on_c, 1, 54, 0
3, 5472, Note_on_c, 1, 52, 110
3, 5494, Note_on_c, 1, 52, 0
3, 5496, Note_on_c, 1, 54, 110
3, 5518, Note_on_c, 1, 54, 0
3, 5520, Note_on_c, 1, 55, 110
3, 5542, Note_on_c, 1, 55, 0
3, 5544, Note_on_c, 1, 57, 110
3, 5566, Note_on_c, 1, 57, 0
3, 5568, Note_on_c, 1, 59, 110
3, 5590, Note_on_c, 1, 59, 0
3, 5592, Note_on_c, 1, 61, 110
3, 5614, Note_on_c, 1, 61, 0
3, 5616, Note_on_c, 1, 63, 110
3, 5638, Note_on_c, 1, 63, 0
3, 5640, Note_on_c, 1, 64, 110
3, 5662, Note_on_c, 1, 64, 0
3, 5664, Note_on_c, 1, 63, 110
3, 5686, Note_on_c, 1, 63, 0
3, 5688, Note_on_c, 1, 61, 110
3, 5710, Note_on_c, 1, 61, 0
3, 5712, Note_on_c, 1, 59, 110
3, 5734, Note_on_c, 1, 59, 0
3, 5736, Note_on_c, 1, 57, 110
3, 5758, Note_on_c, 1, 57, 0
3, 5760, Note_on_c, 1, 55, 110
3, 5782, Note_on_c, 1, 55, 0
3, 5784, Note_on_c, 1, 54, 110
3, 5806, Note_on_c, 1, 54, 0
3, 5808, Note_on_c, 1, 52, 110
3, 5830, Note_on_c, 1, 52, 0
3, 5832, Note_on_c, 1, 54, 110
3, 5854, Note_on_c, 1, 54, 0
3, 5856, Note_on_c, 1, 55, 110
3, 5878, Note_on_c, 1, 55, 0
3, 5880, Note_on_c, 1, 57, 110
3, 5902, Note_on_c, 1, 57, 0
3, 5904, Note_on_c, 1, 59, 110
3, 5926, Note_on_c, 1, 59, 0
3, 5928, Note_on_c, 1, 60, 110
3, 5950, Note_on_c, 1, 60, 0
3, 5952, Note_on_c, 1, 59, 110
3, 5974, Note_on_c, 1, 59, 0
3, 5976, Note_on_c, 1, 57, 110
3, 5998, Note_on_c, 1, 57, 0
3, 6000, Note_on_c, 1, 55, 110
3, 6022, Note_on_c, 1, 55, 0
3, 6024, Note_on_c, 1, 54, 110
3, 6046, Note_on_c, 1, 54, 0
3, 6048, Note_on_c, 1, 52, 110
3, 6080, Note_on_c, 1, 52, 0
3, 6144, Note_on_c, 1, 64, 110
3, 6238, Note_on_c, 1, 64, 0
3, 6240, Note_on_c, 1, 52, 110
3, 6334, Note_on_c, 1, 52, 0
3, 6336, Note_on_c, 1, 51, 110
3, 6430, Note_on_c, 1, 51, 0
3, 6432, Note_on_c, 1, 62, 110
3, 6526, Note_on_c, 1, 62, 0
3, 6528, Note_on_c, 1, 50, 110
3, 6622, Note_on_c, 1, 50, 0
3, 6624, Note_on_c, 1, 49, 110
3, 6718, Note_on_c, 1, 49, 0
3, 6720, Note_on_c, 1, 60, 110
3, 6814, Note_on_c, 1, 60, 0
3, 6816, Note_on_c, 1, 48, 110
3, 6910, Note_on_c, 1, 48, 0
3, 6912, Note_on_c, 1, 47, 110
3, 7008, Note_on_c, 1, 47, 0
3, 7008, Note_on_c, 1, 49, 110
3, 7104, Note_on_c, 1, 49, 0
3, 7104, Note_on_c, 1, 51, 110
3, 7200, Note_on_c, 1, 51, 0
3, 7200, Note_on_c, 1, 52, 110
3, 7296, Note_on_c, 1, 52, 0
3, 7296, Note_on_c, 1, 54, 110
3, 7392, Note_on_c, 1, 54, 0
3, 7392, Note_on_c, 1, 56, 110
3, 7424, Note_on_c, 1, 56, 0
3, 7488, Note_on_c, 1, 45, 110
3, 7584, Note_on_c, 1, 45, 0
3, 7584, Note_on_c, 1, 47, 110
3, 7680, Note_on_c, 1, 47, 0
3, 7680, Note_on_c, 1, 49, 110
3, 7776, Note_on_c, 1, 49, 0
3, 7776, Note_on_c, 1, 50, 110
3, 7872, Note_on_c, 1, 50, 0
3, 7872, Note_on_c, 1, 52, 110
3, 7968, Note_on_c, 1, 52, 0
3, 7968, Note_on_c, 1, 54, 110
3, 8000, Note_on_c, 1, 54, 0
3, 8064, Note_on_c, 1, 43, 110
3, 8086, Note_on_c, 1, 43, 0
3, 8088, Note_on_c, 1, 45, 110
3, 8110, Note_on_c, 1, 45, 0
3, 8112, Note_on_c, 1, 47, 110
3, 8134, Note_on_c, 1, 47, 0
3, 8136, Note_on_c, 1, 48, 110
3, 8158, Note_on_c, 1, 48, 0
3, 8160, Note_on_c, 1, 50, 110
3, 8182, Note_on_c, 1, 50, 0
3, 8184, Note_on_c, 1, 52, 110
3, 8206, Note_on_c, 1, 52, 0
3, 8208, Note_on_c, 1, 54, 110
3, 8230, Note_on_c, 1, 54, 0
3, 8232, Note_on_c, 1, 55, 110
3, 8254, Note_on_c, 1, 55, 0
3, 8256, Note_on_c, 1, 54, 110
3, 8278, Note_on_c, 1, 54, 0
3, 8280, Note_on_c, 1, 52, 110
3, 8302, Note_on_c, 1, 52, 0
3, 8304, Note_on_c, 1, 50, 110
3, 8326, Note_on_c, 1, 50, 0
3, 8328, Note_on_c, 1, 48, 110
3, 8350, Note_on_c, 1, 48, 0
3, 8352, Note_on_c, 1, 47, 110
3, 8374, Note_on_c, 1, 47, 0
3, 8376, Note_on_c, 1, 45, 110
3, 8398, Note_on_c, 1, 45, 0
3, 8400, Note_on_c, 1, 43, 110
3, 8446, Note_on_c, 1, 43, 0
3, 8496, Note_on_c, 1, 51, 110
3, 8542, Note_on_c, 1, 51, 0
3, 8544, Note_on_c, 1, 50, 110
3, 8590, Note_on_c, 1, 50, 0
3, 8592, Note_on_c, 1, 49, 110
3, 8638, Note_on_c, 1, 49, 0
3, 8640, Note_on_c, 1, 49, 110
3, 8662, Note_on_c, 1, 49, 0
3, 8664, Note_on_c, 1, 50, 110
3, 8686, Note_on_c, 1, 50, 0
3, 8688, Note_on_c, 1, 38, 110
3, 8720, Note_on_c, 1, 38, 0
3, 8784, Note_on_c, 1, 49, 110
3, 8830, Note_on_c, 1, 49, 0
3, 8832, Note_on_c, 1, 48, 110
3, 8878, Note_on_c, 1, 48, 0
3, 8880, Note_on_c, 1, 47, 110
3, 8926, Note_on_c, 1, 47, 0
3, 8928, Note_on_c, 1, 47, 110
3, 8950, Note_on_c, 1, 47, 0
3, 8952, Note_on_c, 1, 48, 110
3, 8974, Note_on_c, 1, 48, 0
3, 8976, Note_on_c, 1, 36, 110
3, 9008, Note_on_c, 1, 36, 0
3, 9048, Note_on_c, 1, 48, 110
3, 9070, Note_on_c, 1, 48, 0
3, 9072, Note_on_c, 1, 51, 110
3, 9094, Note_on_c, 1, 51, 0
3, 9096, Note_on_c, 1, 55, 110
3, 9118, Note_on_c, 1, 55, 0
3, 9120, Note_on_c, 1, 60, 110
3, 9142, Note_on_c, 1, 60, 0
3, 9144, Note_on_c, 1, 58, 110
3, 9166, Note_on_c, 1, 58, 0
3, 9168, Note_on_c, 1, 57, 110
3, 9190, Note_on_c, 1, 57, 0
3, 9192, Note_on_c, 1, 55, 110
3, 9214, Note_on_c, 1, 55, 0
3, 9216, Note_on_c, 1, 54, 110
3, 9238, Note_on_c, 1, 54, 0
3, 9240, Note_on_c, 1, 57, 110
3, 9262, Note_on_c, 1, 57, 0
3, 9264, Note_on_c, 1, 58, 110
3, 9334, Note_on_c, 1, 58, 0
3, 9336, Note_on_c, 1, 55, 110
3, 9358, Note_on_c, 1, 55, 0
3, 9360, Note_on_c, 1, 49, 110
3, 9430, Note_on_c, 1, 49, 0
3, 9432, Note_on_c, 1, 48, 110
3, 9454, Note_on_c, 1, 48, 0
3, 9456, Note_on_c, 1, 57, 110
3, 9478, Note_on_c, 1, 57, 0
3, 9480, Note_on_c, 1, 48, 110
3, 9502, Note_on_c, 1, 48, 0
3, 9504, Note_on_c, 1, 48, 110
3, 9526, Note_on_c, 1, 48, 0
3, 9528, Note_on_c, 1, 45, 110
3, 9550, Note_on_c, 1, 45, 0
3, 9552, Note_on_c, 1, 47, 110
3, 9574, Note_on_c, 1, 47, 0
3, 9576, Note_on_c, 1, 52, 110
3, 9598, Note_on_c, 1, 52, 0
3, 9600, Note_on_c, 1, 52, 110
3, 9622, Note_on_c, 1, 52, 0
3, 9624, Note_on_c, 1, 49, 110
3, 9646, Note_on_c, 1, 49, 0
3, 9648, Note_on_c, 1, 50, 110
3, 9670, Note_on_c, 1, 50, 0
3, 9672, Note_on_c, 1, 57, 110
3, 9694, Note_on_c, 1, 57, 0
3, 9696, Note_on_c, 1, 55, 110
3, 9718, Note_on_c, 1, 55, 0
3, 9720, Note_on_c, 1, 54, 110
3, 9742, Note_on_c, 1, 54, 0
3, 9744, Note_on_c, 1, 55, 110
3, 9766, Note_on_c, 1, 55, 0
3, 9768, Note_on_c, 1, 49, 110
3, 9790, Note_on_c, 1, 49, 0
3, 9792, Note_on_c, 1, 54, 110
3, 9814, Note_on_c, 1, 54, 0
3, 9816, Note_on_c, 1, 52, 110
3, 9838, Note_on_c, 1, 52, 0
3, 9840, Note_on_c, 1, 50, 110
3, 9862, Note_on_c, 1, 50, 0
3, 9864, Note_on_c, 1, 52, 110
3, 9886, Note_on_c, 1, 52, 0
3, 9888, Note_on_c, 1, 54, 110
3, 9910, Note_on_c, 1, 54, 0
3, 9912, Note_on_c, 1, 55, 110
3, 9934, Note_on_c, 1, 55, 0
3, 9936, Note_on_c, 1, 57, 110
3, 9958, Note_on_c, 1, 57, 0
3, 9960, Note_on_c, 1, 59, 110
3, 9982, Note_on_c, 1, 59, 0
3, 9984, Note_on_c, 1, 61, 110
3, 10006, Note_on_c, 1, 61, 0
3, 10008, Note_on_c, 1, 62, 110
3, 10030, Note_on_c, 1, 62, 0
3, 10032, Note_on_c, 1, 61, 110
3, 10054, Note_on_c, 1, 61, 0
3, 10056, Note_on_c, 1, 59, 110
3, 10078, Note_on_c, 1, 59, 0
3, 10080, Note_on_c, 1, 57, 110
3, 10102, Note_on_c, 1, 57, 0
3, 10104, Note_on_c, 1, 55, 110
3, 10126, Note_on_c, 1, 55, 0
3, 10128, Note_on_c, 1, 54, 110
3, 10150, Note_on_c, 1, 54, 0
3, 10152, Note_on_c, 1, 52, 110
3, 10174, Note_on_c, 1, 52, 0
3, 10176, Note_on_c, 1, 50, 110
3, 10270, Note_on_c, 1, 50, 0
3, 10272, Note_on_c, 1, 62, 110
3, 10368, Note_on_c, 1, 62, 0
3, 10368, Note_on_c, 1, 61, 110
3, 10400, Note_on_c, 1, 61, 0
3, 10464, Note_on_c, 1, 48, 110
3, 10560, Note_on_c, 1, 48, 0
3, 10560, Note_on_c, 1, 60, 110
3, 10656, Note_on_c, 1, 60, 0
3, 10656, Note_on_c, 1, 59, 110
3, 10688, Note_on_c, 1, 59, 0
3, 10752, Note_on_c, 1, 46, 110
3, 10846, Note_on_c, 1, 46, 0
3, 10848, Note_on_c, 1, 58, 110
3, 10942, Note_on_c, 1, 58, 0
3, 10944, Note_on_c, 1, 57, 110
3, 11038, Note_on_c, 1, 57, 0
3, 11040, Note_on_c, 1, 59, 110
3, 11134, Note_on_c, 1, 59, 0
3, 11136, Note_on_c, 1, 61, 110
3, 11230, Note_on_c, 1, 61, 0
3, 11232, Note_on_c, 1, 62, 110
3, 11326, Note_on_c, 1, 62, 0
3, 11424, Note_on_c, 1, 50, 110
3, 11542, Note_on_c, 1, 50, 0
3, 11544, Note_on_c, 1, 47, 110
3, 11566, Note_on_c, 1, 47, 0
3, 11568, Note_on_c, 1, 48, 110
3, 11590, Note_on_c, 1, 48, 0
3, 11592, Note_on_c, 1, 53, 110
3, 11614, Note_on_c, 1, 53, 0
3, 11616, Note_on_c, 1, 53, 110
3, 11638, Note_on_c, 1, 53, 0
3, 11640, Note_on_c, 1, 51, 110
3, 11662, Note_on_c, 1, 51, 0
3, 11664, Note_on_c, 1, 52, 110
3, 11686, Note_on_c, 1, 52, 0
3, 11688, Note_on_c, 1, 62, 110
3, 11710, Note_on_c, 1, 62, 0
3, 11712, Note_on_c, 1, 60, 110
3, 11734, Note_on_c, 1, 60, 0
3, 11736, Note_on_c, 1, 59, 110
3, 11758, Note_on_c, 1, 59, 0
3, 11760, Note_on_c, 1, 60, 110
3, 11782, Note_on_c, 1, 60, 0
3, 11784, Note_on_c, 1, 54, 110
3, 11806, Note_on_c, 1, 54, 0
3, 11808, Note_on_c, 1, 59, 110
3, 11902, Note_on_c, 1, 59, 0
3, 12000, Note_on_c, 1, 47, 110
3, 12118, Note_on_c, 1, 47, 0
3, 12120, Note_on_c, 1, 44, 110
3, 12142, Note_on_c, 1, 44, 0
3, 12144, Note_on_c, 1, 45, 110
3, 12166, Note_on_c, 1, 45, 0
3, 12168, Note_on_c, 1, 50, 110
3, 12190, Note_on_c, 1, 50, 0
3, 12192, Note_on_c, 1, 50, 110
3, 12214, Note_on_c, 1, 50, 0
3, 12216, Note_on_c, 1, 47, 110
3, 12238, Note_on_c, 1, 47, 0
3, 12240, Note_on_c, 1, 48, 110
3, 12262, Note_on_c, 1, 48, 0
3, 12264, Note_on_c, 1, 59, 110
3, 12286, Note_on_c, 1, 59, 0
3, 12288, Note_on_c, 1, 57, 110
3, 12310, Note_on_c, 1, 57, 0
3, 12312, Note_on_c, 1, 55, 110
3, 12334, Note_on_c, 1, 55, 0
3, 12336, Note_on_c, 1, 57, 110
3, 12358, Note_on_c, 1, 57, 0
3, 12360, Note_on_c, 1, 51, 110
3, 12382, Note_on_c, 1, 51, 0
3, 12384, Note_on_c, 1, 55, 110
3, 12478, Note_on_c, 1, 55, 0
3, 12576, Note_on_c, 1, 43, 110
3, 12694, Note_on_c, 1, 43, 0
3, 12696, Note_on_c, 1, 41, 110
3, 12718, Note_on_c, 1, 41, 0
3, 12720, Note_on_c, 1, 42, 110
3, 12742, Note_on_c, 1, 42, 0
3, 12744, Note_on_c, 1, 47, 110
3, 12766, Note_on_c, 1, 47, 0
3, 12768, Note_on_c, 1, 47, 110
3, 12790, Note_on_c, 1, 47, 0
3, 12792, Note_on_c, 1, 44, 110
3, 12814, Note_on_c, 1, 44, 0
3, 12816, Note_on_c, 1, 46, 110
3, 12838, Note_on_c, 1, 46, 0
3, 12840, Note_on_c, 1, 54, 110
3, 12862, Note_on_c, 1, 54, 0
3, 12864, Note_on_c, 1, 52, 110
3, 12886, Note_on_c, 1, 52, 0
3, 12888, Note_on_c, 1, 50, 110
3, 12910, Note_on_c, 1, 50, 0
3, 12912, Note_on_c, 1, 52, 110
3, 12934, Note_on_c, 1, 52, 0
3, 12936, Note_on_c, 1, 46, 110
3, 12958, Note_on_c, 1, 46, 0
3, 12960, Note_on_c, 1, 50, 110
3, 12982, Note_on_c, 1, 50, 0
3, 12984, Note_on_c, 1, 49, 110
3, 13006, Note_on_c, 1, 49, 0
3, 13008, Note_on_c, 1, 47, 110
3, 13054, Note_on_c, 1, 47, 0
3, 13248, Note_on_c, 1, 47, 110
3, 13270, Note_on_c, 1, 47, 0
3, 13272, Note_on_c, 1, 49, 110
3, 13294, Note_on_c, 1, 49, 0
3, 13296, Note_on_c, 1, 50, 110
3, 13318, Note_on_c, 1, 50, 0
3, 13320, Note_on_c, 1, 52, 110
3, 13342, Note_on_c, 1, 52, 0
3, 13344, Note_on_c, 1, 54, 110
3, 13366, Note_on_c, 1, 54, 0
3, 13368, Note_on_c, 1, 56, 110
3, 13390, Note_on_c, 1, 56, 0
3, 13392, Note_on_c, 1, 58, 110
3, 13414, Note_on_c, 1, 58, 0
3, 13416, Note_on_c, 1, 59, 110
3, 13438, Note_on_c, 1, 59, 0
3, 13440, Note_on_c, 1, 58, 110
3, 13462, Note_on_c, 1, 58, 0
3, 13464, Note_on_c, 1, 56, 110
3, 13486, Note_on_c, 1, 56, 0
3, 13488, Note_on_c, 1, 54, 110
3, 13510, Note_on_c, 1, 54, 0
3, 13512, Note_on_c, 1, 52, 110
3, 13534, Note_on_c, 1, 52, 0
3, 13536, Note_on_c, 1, 50, 110
3, 13558, Note_on_c, 1, 50, 0
3, 13560, Note_on_c, 1, 49, 110
3, 13582, Note_on_c, 1, 49, 0
3, 13584, Note_on_c, 1, 47, 110
3, 13606, Note_on_c, 1, 47, 0
3, 13608, Note_on_c, 1, 49, 110
3, 13630, Note_on_c, 1, 49, 0
3, 13632, Note_on_c, 1, 50, 110
3, 13654, Note_on_c, 1, 50, 0
3, 13656, Note_on_c, 1, 52, 110
3, 13678, Note_on_c, 1, 52, 0
3, 13680, Note_on_c, 1, 54, 110
3, 13702, Note_on_c, 1, 54, 0
3, 13704, Note_on_c, 1, 55, 110
3, 13726, Note_on_c, 1, 55, 0
3, 13728, Note_on_c, 1, 54, 110
3, 13750, Note_on_c, 1, 54, 0
3, 13752, Note_on_c, 1, 52, 110
3, 13774, Note_on_c, 1, 52, 0
3, 13776, Note_on_c, 1, 50, 110
3, 13798, Note_on_c, 1, 50, 0
3, 13800, Note_on_c, 1, 49, 110
3, 13822, Note_on_c, 1, 49, 0
3, 13824, Note_on_c, 1, 47, 110
3, 13846, Note_on_c, 1, 47, 0
3, 13848, Note_on_c, 1, 49, 110
3, 13870, Note_on_c, 1, 49, 0
3, 13872, Note_on_c, 1, 50, 110
3, 13894, Note_on_c, 1, 50, 0
3, 13896, Note_on_c, 1, 52, 110
3, 13918, Note_on_c, 1, 52, 0
3, 13920, Note_on_c, 1, 54, 110
3, 13942, Note_on_c, 1, 54, 0
3, 13944, Note_on_c, 1, 56, 110
3, 13966, Note_on_c, 1, 56, 0
3, 13968, Note_on_c, 1, 58, 110
3, 13990, Note_on_c, 1, 58, 0
3, 13992, Note_on_c, 1, 59, 110
3, 14014, Note_on_c, 1, 59, 0
3, 14016, Note_on_c, 1, 58, 110
3, 14038, Note_on_c, 1, 58, 0
3, 14040, Note_on_c, 1, 56, 110
3, 14062, Note_on_c, 1, 56, 0
3, 14064, Note_on_c, 1, 54, 110
3, 14086, Note_on_c, 1, 54, 0
3, 14088, Note_on_c, 1, 52, 110
3, 14110, Note_on_c, 1, 52, 0
3, 14112, Note_on_c, 1, 50, 110
3, 14134, Note_on_c, 1, 50, 0
3, 14136, Note_on_c, 1, 49, 110
3, 14158, Note_on_c, 1, 49, 0
3, 14160, Note_on_c, 1, 47, 110
3, 14206, Note_on_c, 1, 47, 0
3, 14256, Note_on_c, 1, 55, 110
3, 14302, Note_on_c, 1, 55, 0
3, 14304, Note_on_c, 1, 54, 110
3, 14350, Note_on_c, 1, 54, 0
3, 14352, Note_on_c, 1, 53, 110
3, 14398, Note_on_c, 1, 53, 0
3, 14400, Note_on_c, 1, 53, 110
3, 14422, Note_on_c, 1, 53, 0
3, 14424, Note_on_c, 1, 54, 110
3, 14446, Note_on_c, 1, 54, 0
3, 14448, Note_on_c, 1, 42, 110
3, 14494, Note_on_c, 1, 42, 0
3, 14544, Note_on_c, 1, 53, 110
3, 14590, Note_on_c, 1, 53, 0
3, 14592, Note_on_c, 1, 52, 110
3, 14638, Note_on_c, 1, 52, 0
3, 14640, Note_on_c, 1, 51, 110
3, 14686, Note_on_c, 1, 51, 0
3, 14688, Note_on_c, 1, 51, 110
3, 14710, Note_on_c, 1, 51, 0
3, 14712, Note_on_c, 1, 52, 110
3, 14734, Note_on_c, 1, 52, 0
3, 14736, Note_on_c, 1, 40, 110
3, 14782, Note_on_c, 1, 40, 0
3, 14808, Note_on_c, 1, 52, 110
3, 14830, Note_on_c, 1, 52, 0
3, 14832, Note_on_c, 1, 55, 110
3, 14854, Note_on_c, 1, 55, 0
3, 14856, Note_on_c, 1, 59, 110
3, 14878, Note_on_c, 1, 59, 0
3, 14880, Note_on_c, 1, 64, 110
3, 14902, Note_on_c, 1, 64, 0
3, 14904, Note_on_c, 1, 62, 110
3, 14926, Note_on_c, 1, 62, 0
3, 14928, Note_on_c, 1, 61, 110
3, 14950, Note_on_c, 1, 61, 0
3, 14952, Note_on_c, 1, 59, 110
3, 14974, Note_on_c, 1, 59, 0
3, 14976, Note_on_c, 1, 58, 110
3, 14998, Note_on_c, 1, 58, 0
3, 15000, Note_on_c, 1, 61, 110
3, 15022, Note_on_c, 1, 61, 0
3, 15024, Note_on_c, 1, 62, 110
3, 15094, Note_on_c, 1, 62, 0
3, 15096, Note_on_c, 1, 59, 110
3, 15118, Note_on_c, 1, 59, 0
3, 15120, Note_on_c, 1, 53, 110
3, 15190, Note_on_c, 1, 53, 0
3, 15192, Note_on_c, 1, 52, 110
3, 15214, Note_on_c, 1, 52, 0
3, 15216, Note_on_c, 1, 61, 110
3, 15238, Note_on_c, 1, 61, 0
3, 15240, Note_on_c, 1, 52, 110
3, 15262, Note_on_c, 1, 52, 0
3, 15264, Note_on_c, 1, 51, 110
3, 15286, Note_on_c, 1, 51, 0
3, 15288, Note_on_c, 1, 54, 110
3, 15310, Note_on_c, 1, 54, 0
3, 15312, Note_on_c, 1, 55, 110
3, 15382, Note_on_c, 1, 55, 0
3, 15384, Note_on_c, 1, 52, 110
3, 15406, Note_on_c, 1, 52, 0
3, 15408, Note_on_c, 1, 46, 110
3, 15478, Note_on_c, 1, 46, 0
3, 15480, Note_on_c, 1, 47, 110
3, 15502, Note_on_c, 1, 47, 0
3, 15504, Note_on_c, 1, 54, 110
3, 15526, Note_on_c, 1, 54, 0
3, 15528, Note_on_c, 1, 57, 110
3, 15550, Note_on_c, 1, 57, 0
3, 15552, Note_on_c, 1, 56, 110
3, 15574, Note_on_c, 1, 56, 0
3, 15576, Note_on_c, 1, 59, 110
3, 15598, Note_on_c, 1, 59, 0
3, 15600, Note_on_c, 1, 60, 110
3, 15670, Note_on_c, 1, 60, 0
3, 15672, Note_on_c, 1, 57, 110
3, 15694, Note_on_c, 1, 57, 0
3, 15696, Note_on_c, 1, 51, 110
3, 15766, Note_on_c, 1, 51, 0
3, 15768, Note_on_c, 1, 50, 110
3, 15790, Note_on_c, 1, 50, 0
3, 15792, Note_on_c, 1, 59, 110
3, 15814, Note_on_c, 1, 59, 0
3, 15816, Note_on_c, 1, 50, 110
3, 15838, Note_on_c, 1, 50, 0
3, 15840, Note_on_c, 1, 49, 110
3, 15862, Note_on_c, 1, 49, 0
3, 15864, Note_on_c, 1, 52, 110
3, 15886, Note_on_c, 1, 52, 0
3, 15888, Note_on_c, 1, 53, 110
3, 15958, Note_on_c, 1, 53, 0
3, 15960, Note_on_c, 1, 50, 110
3, 15982, Note_on_c, 1, 50, 0
3, 15984, Note_on_c, 1, 44, 110
3, 16054, Note_on_c, 1, 44, 0
3, 16056, Note_on_c, 1, 45, 110
3, 16078, Note_on_c, 1, 45, 0
3, 16080, Note_on_c, 1, 52, 110
3, 16102, Note_on_c, 1, 52, 0
3, 16104, Note_on_c, 1, 55, 110
3, 16126, Note_on_c, 1, 55, 0
3, 16128, Note_on_c, 1, 53, 110
3, 16150, Note_on_c, 1, 53, 0
3, 16152, Note_on_c, 1, 52, 110
3, 16174, Note_on_c, 1, 52, 0
3, 16176, Note_on_c, 1, 50, 110
3, 16222, Note_on_c, 1, 50, 0
3, 16344, Note_on_c, 1, 50, 110
3, 16366, Note_on_c, 1, 50, 0
3, 16368, Note_on_c, 1, 52, 110
3, 16390, Note_on_c, 1, 52, 0
3, 16392, Note_on_c, 1, 53, 110
3, 16414, Note_on_c, 1, 53, 0
3, 16416, Note_on_c, 1, 52, 110
3, 16438, Note_on_c, 1, 52, 0
3, 16440, Note_on_c, 1, 50, 110
3, 16462, Note_on_c, 1, 50, 0
3, 16464, Note_on_c, 1, 48, 110
3, 16486, Note_on_c, 1, 48, 0
3, 16488, Note_on_c, 1, 47, 110
3, 16510, Note_on_c, 1, 47, 0
3, 16512, Note_on_c, 1, 45, 110
3, 16534, Note_on_c, 1, 45, 0
3, 16536, Note_on_c, 1, 44, 110
3, 16558, Note_on_c, 1, 44, 0
3, 16560, Note_on_c, 1, 42, 110
3, 16582, Note_on_c, 1, 42, 0
3, 16584, Note_on_c, 1, 40, 110
3, 16606, Note_on_c, 1, 40, 0
3, 16608, Note_on_c, 1, 42, 110
3, 16630, Note_on_c, 1, 42, 0
3, 16632, Note_on_c, 1, 44, 110
3, 16654, Note_on_c, 1, 44, 0
3, 16656, Note_on_c, 1, 45, 110
3, 16678, Note_on_c, 1, 45, 0
3, 16680, Note_on_c, 1, 47, 110
3, 16702, Note_on_c, 1, 47, 0
3, 16704, Note_on_c, 1, 48, 110
3, 16726, Note_on_c, 1, 48, 0
3, 16728, Note_on_c, 1, 50, 110
3, 16750, Note_on_c, 1, 50, 0
3, 16752, Note_on_c, 1, 52, 110
3, 16798, Note_on_c, 1, 52, 0
3, 16920, Note_on_c, 1, 57, 110
3, 16942, Note_on_c, 1, 57, 0
3, 16944, Note_on_c, 1, 59, 110
3, 16966, Note_on_c, 1, 59, 0
3, 16968, Note_on_c, 1, 60, 110
3, 16990, Note_on_c, 1, 60, 0
3, 16992, Note_on_c, 1, 50, 110
3, 17014, Note_on_c, 1, 50, 0
3, 17016, Note_on_c, 1, 54, 110
3, 17038, Note_on_c, 1, 54, 0
3, 17040, Note_on_c, 1, 55, 110
3, 17062, Note_on_c, 1, 55, 0
3, 17064, Note_on_c, 1, 57, 110
3, 17086, Note_on_c, 1, 57, 0
3, 17088, Note_on_c, 1, 59, 110
3, 17110, Note_on_c, 1, 59, 0
3, 17112, Note_on_c, 1, 61, 110
3, 17134, Note_on_c, 1, 61, 0
3, 17136, Note_on_c, 1, 63, 110
3, 17158, Note_on_c, 1, 63, 0
3, 17160, Note_on_c, 1, 64, 110
3, 17182, Note_on_c, 1, 64, 0
3, 17184, Note_on_c, 1, 63, 110
3, 17206, Note_on_c, 1, 63, 0
3, 17208, Note_on_c, 1, 61, 110
3, 17230, Note_on_c, 1, 61, 0
3, 17232, Note_on_c, 1, 59, 110
3, 17254, Note_on_c, 1, 59, 0
3, 17256, Note_on_c, 1, 57, 110
3, 17278, Note_on_c, 1, 57, 0
3, 17280, Note_on_c, 1, 55, 110
3, 17302, Note_on_c, 1, 55, 0
3, 17304, Note_on_c, 1, 54, 110
3, 17326, Note_on_c, 1, 54, 0
3, 17328, Note_on_c, 1, 52, 110
3, 17350, Note_on_c, 1, 52, 0
3, 17352, Note_on_c, 1, 54, 110
3, 17374, Note_on_c, 1, 54, 0
3, 17376, Note_on_c, 1, 55, 110
3, 17398, Note_on_c, 1, 55, 0
3, 17400, Note_on_c, 1, 57, 110
3, 17422, Note_on_c, 1, 57, 0
3, 17424, Note_on_c, 1, 59, 110
3, 17446, Note_on_c, 1, 59, 0
3, 17448, Note_on_c, 1, 61, 110
3, 17470, Note_on_c, 1, 61, 0
3, 17472, Note_on_c, 1, 63, 110
3, 17494, Note_on_c, 1, 63, 0
3, 17496, Note_on_c, 1, 64, 110
3, 17518, Note_on_c, 1, 64, 0
3, 17520, Note_on_c, 1, 63, 110
3, 17542, Note_on_c, 1, 63, 0
3, 17544, Note_on_c, 1, 61, 110
3, 17566, Note_on_c, 1, 61, 0
3, 17568, Note_on_c, 1, 59, 110
3, 17590, Note_on_c, 1, 59, 0
3, 17592, Note_on_c, 1, 57, 110
3, 17614, Note_on_c, 1, 57, 0
3, 17616, Note_on_c, 1, 55, 110
3, 17638, Note_on_c, 1, 55, 0
3, 17640, Note_on_c, 1, 54, 110
3, 17662, Note_on_c, 1, 54, 0
3, 17664, Note_on_c, 1, 52, 110
3, 17758, Note_on_c, 1, 52, 0
3, 17760, Note_on_c, 1, 64, 110
3, 17856, Note_on_c, 1, 64, 0
3, 17856, Note_on_c, 1, 63, 110
3, 17888, Note_on_c, 1, 63, 0
3, 17952, Note_on_c, 1, 50, 110
3, 18048, Note_on_c, 1, 50, 0
3, 18048, Note_on_c, 1, 62, 110
3, 18144, Note_on_c, 1, 62, 0
3, 18144, Note_on_c, 1, 61, 110
3, 18176, Note_on_c, 1, 61, 0
3, 18240, Note_on_c, 1, 48, 110
3, 18334, Note_on_c, 1, 48, 0
3, 18336, Note_on_c, 1, 60, 110
3, 18430, Note_on_c, 1, 60, 0
3, 18432, Note_on_c, 1, 59, 110
3, 18526, Note_on_c, 1, 59, 0
3, 18528, Note_on_c, 1, 61, 110
3, 18622, Note_on_c, 1, 61, 0
3, 18624, Note_on_c, 1, 63, 110
3, 18718, Note_on_c, 1, 63, 0
3, 18720, Note_on_c, 1, 52, 110
3, 18742, Note_on_c, 1, 52, 0
3, 18744, Note_on_c, 1, 54, 110
3, 18766, Note_on_c, 1, 54, 0
3, 18768, Note_on_c, 1, 55, 110
3, 18790, Note_on_c, 1, 55, 0
3, 18792, Note_on_c, 1, 57, 110
3, 18814, Note_on_c, 1, 57, 0
3, 18816, Note_on_c, 1, 59, 110
3, 18838, Note_on_c, 1, 59, 0
3, 18840, Note_on_c, 1, 61, 110
3, 18862, Note_on_c, 1, 61, 0
3, 18864, Note_on_c, 1, 63, 110
3, 18886, Note_on_c, 1, 63, 0
3, 18888, Note_on_c, 1, 64, 110
3, 18910, Note_on_c, 1, 64, 0
3, 18912, Note_on_c, 1, 63, 110
3, 18934, Note_on_c, 1, 63, 0
3, 18936, Note_on_c, 1, 61, 110
3, 18958, Note_on_c, 1, 61, 0
3, 18960, Note_on_c, 1, 59, 110
3, 18982, Note_on_c, 1, 59, 0
3, 18984, Note_on_c, 1, 57, 110
3, 19006, Note_on_c, 1, 57, 0
3, 19008, Note_on_c, 1, 55, 110
3, 19030, Note_on_c, 1, 55, 0
3, 19032, Note_on_c, 1, 54, 110
3, 19054, Note_on_c, 1, 54, 0
3, 19056, Note_on_c, 1, 52, 110
3, 19102, Note_on_c, 1, 52, 0
3, 19152, Note_on_c, 1, 60, 110
3, 19198, Note_on_c, 1, 60, 0
3, 19200, Note_on_c, 1, 59, 110
3, 19246, Note_on_c, 1, 59, 0
3, 19248, Note_on_c, 1, 58, 110
3, 19294, Note_on_c, 1, 58, 0
3, 19296, Note_on_c, 1, 58, 110
3, 19318, Note_on_c, 1, 58, 0
3, 19320, Note_on_c, 1, 59, 110
3, 19342, Note_on_c, 1, 59, 0
3, 19344, Note_on_c, 1, 47, 110
3, 19376, Note_on_c, 1, 47, 0
3, 19440, Note_on_c, 1, 58, 110
3, 19486, Note_on_c, 1, 58, 0
3, 19488, Note_on_c, 1, 57, 110
3, 19534, Note_on_c, 1, 57, 0
3, 19536, Note_on_c, 1, 56, 110
3, 19582, Note_on_c, 1, 56, 0
3, 19584, Note_on_c, 1, 56, 110
3, 19606, Note_on_c, 1, 56, 0
3, 19608, Note_on_c, 1, 57, 110
3, 19630, Note_on_c, 1, 57, 0
3, 19632, Note_on_c, 1, 45, 110
3, 19664, Note_on_c, 1, 45, 0
3, 19704, Note_on_c, 1, 45, 110
3, 19726, Note_on_c, 1, 45, 0
3, 19728, Note_on_c, 1, 48, 110
3, 19750, Note_on_c, 1, 48, 0
3, 19752, Note_on_c, 1, 52, 110
3, 19774, Note_on_c, 1, 52, 0
3, 19776, Note_on_c, 1, 57, 110
3, 19798, Note_on_c, 1, 57, 0
3, 19800, Note_on_c, 1, 55, 110
3, 19822, Note_on_c, 1, 55, 0
3, 19824, Note_on_c, 1, 54, 110
3, 19846, Note_on_c, 1, 54, 0
3, 19848, Note_on_c, 1, 52, 110
3, 19870, Note_on_c, 1, 52, 0
3, 19872, Note_on_c, 1, 51, 110
3, 19894, Note_on_c, 1, 51, 0
3, 19896, Note_on_c, 1, 54, 110
3, 19918, Note_on_c, 1, 54, 0
3, 19920, Note_on_c, 1, 55, 110
3, 19990, Note_on_c, 1, 55, 0
3, 19992, Note_on_c, 1, 52, 110
3, 20014, Note_on_c, 1, 52, 0
3, 20016, Note_on_c, 1, 46, 110
3, 20086, Note_on_c, 1, 46, 0
3, 20088, Note_on_c, 1, 45, 110
3, 20110, Note_on_c, 1, 45, 0
3, 20112, Note_on_c, 1, 54, 110
3, 20134, Note_on_c, 1, 54, 0
3, 20136, Note_on_c, 1, 45, 110
3, 20158, Note_on_c, 1, 45, 0
3, 20160, Note_on_c, 1, 44, 110
3, 20254, Note_on_c, 1, 44, 0
3, 20256, Note_on_c, 1, 43, 110
3, 20350, Note_on_c, 1, 43, 0
3, 20352, Note_on_c, 1, 42, 110
3, 20446, Note_on_c, 1, 42, 0
3, 20448, Note_on_c, 1, 40, 110
3, 20494, Note_on_c, 1, 40, 0
3, 20496, Note_on_c, 1, 48, 110
3, 20542, Note_on_c, 1, 48, 0
3, 20544, Note_on_c, 1, 45, 110
3, 20638, Note_on_c, 1, 45, 0
3, 20640, Note_on_c, 1, 47, 110
3, 20734, Note_on_c, 1, 47, 0
3, 20736, Note_on_c, 1, 40, 110
3, 20992, Note_on_c, 1, 40, 0
3, 20992, End_track
4, 0, Start_track
4, 0, MIDI_port, 0
4, 0, Title_t, "Johann Sebastian Bach  (1685-1750)"
4, 0, End_track
5, 0, Start_track
5, 0, MIDI_port, 0
5, 0, Title_t, "Clavierubung Part III - Four Duets"
5, 0, End_track
6, 0, Start_track
6, 0, MIDI_port, 0
6, 0, Title_t, "Duet No. 1 in E minor - BWV 802"
6, 0, End_track
7, 0, Start_track
7, 0, MIDI_port, 0
7, 0, End_track
8, 0, Start_track
8, 0, MIDI_port, 0
8, 0, Title_t, "Sequenced by David Jao "
8, 0, End_track
9, 0, Start_track
9, 0, MIDI_port, 0
9, 0, Title_t, "with NoteWorthy Composer"
9, 0, End_track
0, 0, End_of_file
