0, 0, Header, 1, 3, 384
1, 0, Start_track
1, 0, Time_signature, 4, 2, 24, 8
1, 0, Tempo, 500000
1, 207360, End_track
2, 0, Start_track
2, 0, Text_t, "harpsichord: John Sankey"
2, 0, Program_c, 0, 6
2, 0, Pitch_bend_c, 0, 8192
2, 0, Program_c, 1, 6
2, 0, Pitch_bend_c, 1, 7792
2, 0, Program_c, 2, 6
2, 0, Pitch_bend_c, 2, 7876
2, 0, Program_c, 3, 6
2, 0, Pitch_bend_c, 3, 7952
2, 0, Program_c, 4, 6
2, 0, Pitch_bend_c, 4, 7792
2, 0, Program_c, 5, 6
2, 0, Pitch_bend_c, 5, 8112
2, 0, Program_c, 6, 6
2, 0, Pitch_bend_c, 6, 7712
2, 0, Program_c, 7, 6
2, 0, Pitch_bend_c, 7, 8037
2, 0, Program_c, 8, 6
2, 0, Pitch_bend_c, 8, 7872
2, 0, Program_c, 10, 6
2, 0, Pitch_bend_c, 10, 7712
2, 0, Program_c, 11, 6
2, 0, Pitch_bend_c, 11, 8032
2, 0, Program_c, 12, 6
2, 0, Pitch_bend_c, 12, 7872
2, 0, Title_t, "Track 1"
2, 58, Note_on_c, 1, 49, 127
2, 58, Note_on_c, 5, 77, 127
2, 156, Note_off_c, 5, 77, 127
2, 160, Note_on_c, 1, 73, 127
2, 258, Note_off_c, 1, 73, 127
2, 262, Note_on_c, 8, 68, 127
2, 360, Note_off_c, 8, 68, 127
2, 365, Note_on_c, 1, 73, 127
2, 463, Note_off_c, 1, 73, 127
2, 464, Note_off_c, 1, 49, 127
2, 467, Note_on_c, 1, 61, 127
2, 467, Note_on_c, 5, 77, 127
2, 565, Note_off_c, 5, 77, 127
2, 569, Note_on_c, 1, 73, 127
2, 667, Note_off_c, 1, 73, 127
2, 668, Note_off_c, 1, 61, 127
2, 671, Note_on_c, 3, 51, 127
2, 671, Note_on_c, 6, 78, 127
2, 769, Note_off_c, 6, 78, 127
2, 774, Note_on_c, 1, 73, 127
2, 872, Note_off_c, 1, 73, 127
2, 876, Note_on_c, 6, 78, 127
2, 974, Note_off_c, 6, 78, 127
2, 978, Note_on_c, 1, 73, 127
2, 1076, Note_off_c, 1, 73, 127
2, 1077, Note_off_c, 3, 51, 127
2, 1080, Note_on_c, 1, 61, 127
2, 1080, Note_on_c, 6, 78, 127
2, 1178, Note_off_c, 6, 78, 127
2, 1182, Note_on_c, 1, 73, 127
2, 1280, Note_off_c, 1, 73, 127
2, 1281, Note_off_c, 1, 61, 127
2, 1285, Note_on_c, 5, 53, 127
2, 1285, Note_on_c, 8, 80, 127
2, 1383, Note_off_c, 8, 80, 127
2, 1387, Note_on_c, 1, 73, 127
2, 1485, Note_off_c, 1, 73, 127
2, 1490, Note_on_c, 8, 80, 127
2, 1588, Note_off_c, 8, 80, 127
2, 1591, Note_on_c, 1, 73, 127
2, 1689, Note_off_c, 1, 73, 127
2, 1691, Note_off_c, 5, 53, 127
2, 1694, Note_on_c, 1, 61, 127
2, 1694, Note_on_c, 8, 80, 127
2, 1792, Note_off_c, 8, 80, 127
2, 1796, Note_on_c, 1, 73, 127
2, 1894, Note_off_c, 1, 73, 127
2, 1895, Note_off_c, 1, 61, 127
2, 1898, Note_on_c, 6, 54, 127
2, 1898, Note_on_c, 11, 82, 127
2, 1996, Note_off_c, 11, 82, 127
2, 2000, Note_on_c, 1, 73, 127
2, 2098, Note_off_c, 1, 73, 127
2, 2101, Note_on_c, 11, 82, 127
2, 2199, Note_off_c, 11, 82, 127
2, 2204, Note_on_c, 1, 73, 127
2, 2302, Note_off_c, 1, 73, 127
2, 2304, Note_off_c, 6, 54, 127
2, 2306, Note_on_c, 1, 61, 127
2, 2306, Note_on_c, 11, 82, 127
2, 2404, Note_off_c, 11, 82, 127
2, 2409, Note_on_c, 1, 73, 127
2, 2507, Note_off_c, 1, 73, 127
2, 2507, Note_off_c, 1, 61, 127
2, 2510, Note_on_c, 5, 53, 127
2, 2510, Note_on_c, 8, 80, 127
2, 2608, Note_off_c, 8, 80, 127
2, 2613, Note_on_c, 1, 73, 127
2, 2711, Note_off_c, 1, 73, 127
2, 2715, Note_on_c, 8, 80, 127
2, 2813, Note_off_c, 8, 80, 127
2, 2817, Note_on_c, 1, 73, 127
2, 2915, Note_off_c, 1, 73, 127
2, 2916, Note_off_c, 5, 53, 127
2, 2920, Note_on_c, 1, 61, 127
2, 2920, Note_on_c, 8, 80, 127
2, 3018, Note_off_c, 8, 80, 127
2, 3021, Note_on_c, 1, 73, 127
2, 3119, Note_off_c, 1, 73, 127
2, 3121, Note_off_c, 1, 61, 127
2, 3124, Note_on_c, 3, 51, 127
2, 3124, Note_on_c, 6, 78, 127
2, 3222, Note_off_c, 6, 78, 127
2, 3226, Note_on_c, 5, 77, 127
2, 3324, Note_off_c, 5, 77, 127
2, 3329, Note_on_c, 3, 75, 127
2, 3427, Note_off_c, 3, 75, 127
2, 3431, Note_on_c, 5, 77, 127
2, 3529, Note_off_c, 5, 77, 127
2, 3530, Note_off_c, 3, 51, 127
2, 3532, Note_on_c, 0, 60, 127
2, 3532, Note_on_c, 6, 78, 127
2, 3630, Note_off_c, 6, 78, 127
2, 3635, Note_on_c, 3, 75, 127
2, 3733, Note_off_c, 3, 75, 127
2, 3733, Note_off_c, 0, 60, 127
2, 3737, Note_on_c, 1, 49, 127
2, 3737, Note_on_c, 5, 77, 127
2, 3835, Note_off_c, 5, 77, 127
2, 3840, Note_on_c, 3, 75, 127
2, 3938, Note_off_c, 3, 75, 127
2, 3941, Note_on_c, 1, 73, 127
2, 4039, Note_off_c, 1, 73, 127
2, 4044, Note_on_c, 3, 75, 127
2, 4142, Note_off_c, 3, 75, 127
2, 4143, Note_off_c, 1, 49, 127
2, 4146, Note_on_c, 1, 61, 127
2, 4146, Note_on_c, 5, 77, 127
2, 4244, Note_off_c, 5, 77, 127
2, 4249, Note_on_c, 1, 73, 127
2, 4347, Note_off_c, 1, 73, 127
2, 4350, Note_on_c, 3, 75, 127
2, 4448, Note_off_c, 3, 75, 127
2, 4451, Note_on_c, 5, 77, 127
2, 4549, Note_off_c, 5, 77, 127
2, 4552, Note_off_c, 1, 61, 127
2, 4554, Note_on_c, 0, 60, 127
2, 4554, Note_on_c, 3, 75, 127
2, 4652, Note_off_c, 3, 75, 127
2, 4652, Note_off_c, 0, 60, 127
2, 4656, Note_on_c, 11, 58, 127
2, 4656, Note_on_c, 1, 73, 127
2, 4754, Note_off_c, 1, 73, 127
2, 4754, Note_off_c, 11, 58, 127
2, 4759, Note_on_c, 8, 56, 127
2, 4759, Note_on_c, 0, 72, 127
2, 4857, Note_off_c, 0, 72, 127
2, 4857, Note_off_c, 8, 56, 127
2, 4861, Note_on_c, 11, 58, 127
2, 4861, Note_on_c, 11, 70, 127
2, 4959, Note_off_c, 11, 70, 127
2, 4959, Note_off_c, 11, 58, 127
2, 4963, Note_on_c, 0, 60, 127
2, 4963, Note_on_c, 8, 68, 127
2, 5061, Note_off_c, 0, 60, 127
2, 5065, Note_on_c, 8, 56, 127
2, 5163, Note_off_c, 8, 56, 127
2, 5168, Note_on_c, 3, 51, 127
2, 5266, Note_off_c, 3, 51, 127
2, 5270, Note_on_c, 8, 56, 127
2, 5368, Note_off_c, 8, 56, 127
2, 5369, Note_off_c, 8, 68, 127
2, 5372, Note_on_c, 0, 60, 127
2, 5372, Note_on_c, 8, 80, 127
2, 5470, Note_off_c, 0, 60, 127
2, 5474, Note_on_c, 8, 56, 127
2, 5498, Note_off_c, 8, 80, 127
2, 5572, Note_off_c, 8, 56, 127
2, 5576, Note_on_c, 1, 61, 127
2, 5576, Note_on_c, 11, 70, 127
2, 5674, Note_off_c, 1, 61, 127
2, 5679, Note_on_c, 8, 56, 127
2, 5777, Note_off_c, 8, 56, 127
2, 5781, Note_on_c, 1, 61, 127
2, 5879, Note_off_c, 1, 61, 127
2, 5883, Note_on_c, 8, 56, 127
2, 5981, Note_off_c, 8, 56, 127
2, 5982, Note_off_c, 11, 70, 127
2, 5985, Note_on_c, 1, 61, 127
2, 5985, Note_on_c, 8, 80, 127
2, 6083, Note_off_c, 1, 61, 127
2, 6087, Note_on_c, 8, 56, 127
2, 6111, Note_off_c, 8, 80, 127
2, 6185, Note_off_c, 8, 56, 127
2, 6190, Note_on_c, 3, 63, 127
2, 6190, Note_on_c, 0, 72, 127
2, 6288, Note_off_c, 3, 63, 127
2, 6292, Note_on_c, 8, 56, 127
2, 6390, Note_off_c, 8, 56, 127
2, 6394, Note_on_c, 3, 63, 127
2, 6492, Note_off_c, 3, 63, 127
2, 6496, Note_on_c, 8, 56, 127
2, 6594, Note_off_c, 8, 56, 127
2, 6596, Note_off_c, 0, 72, 127
2, 6599, Note_on_c, 3, 63, 127
2, 6599, Note_on_c, 8, 80, 127
2, 6697, Note_off_c, 3, 63, 127
2, 6700, Note_on_c, 8, 56, 127
2, 6725, Note_off_c, 8, 80, 127
2, 6798, Note_off_c, 8, 56, 127
2, 6803, Note_on_c, 5, 65, 127
2, 6803, Note_on_c, 1, 73, 127
2, 6901, Note_off_c, 5, 65, 127
2, 6904, Note_on_c, 8, 56, 127
2, 7002, Note_off_c, 8, 56, 127
2, 7006, Note_on_c, 5, 65, 127
2, 7104, Note_off_c, 5, 65, 127
2, 7109, Note_on_c, 8, 56, 127
2, 7207, Note_off_c, 8, 56, 127
2, 7209, Note_off_c, 1, 73, 127
2, 7211, Note_on_c, 5, 65, 127
2, 7211, Note_on_c, 8, 80, 127
2, 7309, Note_off_c, 5, 65, 127
2, 7313, Note_on_c, 8, 56, 127
2, 7337, Note_off_c, 8, 80, 127
2, 7411, Note_off_c, 8, 56, 127
2, 7415, Note_on_c, 3, 63, 127
2, 7415, Note_on_c, 0, 72, 127
2, 7513, Note_off_c, 3, 63, 127
2, 7518, Note_on_c, 8, 56, 127
2, 7616, Note_off_c, 8, 56, 127
2, 7620, Note_on_c, 3, 63, 127
2, 7718, Note_off_c, 3, 63, 127
2, 7723, Note_on_c, 8, 56, 127
2, 7821, Note_off_c, 8, 56, 127
2, 7821, Note_off_c, 0, 72, 127
2, 7824, Note_on_c, 3, 63, 127
2, 7824, Note_on_c, 8, 80, 127
2, 7922, Note_off_c, 3, 63, 127
2, 7926, Note_on_c, 8, 56, 127
2, 7950, Note_off_c, 8, 80, 127
2, 8024, Note_off_c, 8, 56, 127
2, 8029, Note_on_c, 1, 61, 127
2, 8029, Note_on_c, 11, 70, 127
2, 8127, Note_off_c, 1, 61, 127
2, 8131, Note_on_c, 0, 60, 127
2, 8229, Note_off_c, 0, 60, 127
2, 8234, Note_on_c, 11, 58, 127
2, 8332, Note_off_c, 11, 58, 127
2, 8335, Note_on_c, 0, 60, 127
2, 8433, Note_off_c, 0, 60, 127
2, 8435, Note_off_c, 11, 70, 127
2, 8438, Note_on_c, 1, 61, 127
2, 8438, Note_on_c, 7, 79, 127
2, 8536, Note_off_c, 1, 61, 127
2, 8540, Note_on_c, 11, 58, 127
2, 8564, Note_off_c, 7, 79, 127
2, 8638, Note_off_c, 11, 58, 127
2, 8642, Note_on_c, 0, 60, 127
2, 8642, Note_on_c, 8, 68, 127
2, 8740, Note_off_c, 0, 60, 127
2, 8745, Note_on_c, 11, 58, 127
2, 8843, Note_off_c, 11, 58, 127
2, 8846, Note_on_c, 8, 56, 127
2, 8944, Note_off_c, 8, 56, 127
2, 8949, Note_on_c, 11, 58, 127
2, 9047, Note_off_c, 11, 58, 127
2, 9048, Note_off_c, 8, 68, 127
2, 9050, Note_on_c, 0, 60, 127
2, 9050, Note_on_c, 8, 80, 127
2, 9148, Note_off_c, 0, 60, 127
2, 9153, Note_on_c, 8, 56, 127
2, 9251, Note_off_c, 8, 56, 127
2, 9254, Note_on_c, 11, 58, 127
2, 9352, Note_off_c, 11, 58, 127
2, 9357, Note_on_c, 12, 59, 127
2, 9455, Note_off_c, 12, 59, 127
2, 9456, Note_off_c, 8, 80, 127
2, 9459, Note_on_c, 11, 58, 127
2, 9459, Note_on_c, 6, 78, 127
2, 9557, Note_off_c, 6, 78, 127
2, 9557, Note_off_c, 11, 58, 127
2, 9561, Note_on_c, 8, 56, 127
2, 9561, Note_on_c, 5, 77, 127
2, 9659, Note_off_c, 5, 77, 127
2, 9659, Note_off_c, 8, 56, 127
2, 9664, Note_on_c, 6, 54, 127
2, 9664, Note_on_c, 3, 75, 127
2, 9762, Note_off_c, 3, 75, 127
2, 9762, Note_off_c, 6, 54, 127
2, 9765, Note_on_c, 5, 53, 127
2, 9765, Note_on_c, 5, 77, 127
2, 9863, Note_off_c, 5, 77, 127
2, 9863, Note_off_c, 5, 53, 127
2, 9868, Note_on_c, 3, 51, 127
2, 9868, Note_on_c, 6, 78, 127
2, 9966, Note_off_c, 6, 78, 127
2, 9970, Note_on_c, 3, 75, 127
2, 10068, Note_off_c, 3, 75, 127
2, 10073, Note_on_c, 11, 70, 127
2, 10171, Note_off_c, 11, 70, 127
2, 10175, Note_on_c, 3, 75, 127
2, 10273, Note_off_c, 3, 75, 127
2, 10274, Note_off_c, 3, 51, 127
2, 10277, Note_on_c, 3, 63, 127
2, 10277, Note_on_c, 6, 78, 127
2, 10375, Note_off_c, 6, 78, 127
2, 10379, Note_on_c, 3, 75, 127
2, 10477, Note_off_c, 3, 75, 127
2, 10478, Note_off_c, 3, 63, 127
2, 10481, Note_on_c, 5, 53, 127
2, 10481, Note_on_c, 8, 80, 127
2, 10579, Note_off_c, 8, 80, 127
2, 10584, Note_on_c, 3, 75, 127
2, 10682, Note_off_c, 3, 75, 127
2, 10686, Note_on_c, 8, 80, 127
2, 10784, Note_off_c, 8, 80, 127
2, 10788, Note_on_c, 3, 75, 127
2, 10886, Note_off_c, 3, 75, 127
2, 10887, Note_off_c, 5, 53, 127
2, 10890, Note_on_c, 3, 63, 127
2, 10890, Note_on_c, 8, 80, 127
2, 10988, Note_off_c, 8, 80, 127
2, 10993, Note_on_c, 3, 75, 127
2, 11091, Note_off_c, 3, 75, 127
2, 11091, Note_off_c, 3, 63, 127
2, 11095, Note_on_c, 6, 54, 127
2, 11095, Note_on_c, 11, 82, 127
2, 11193, Note_off_c, 11, 82, 127
2, 11196, Note_on_c, 3, 75, 127
2, 11294, Note_off_c, 3, 75, 127
2, 11299, Note_on_c, 11, 82, 127
2, 11397, Note_off_c, 11, 82, 127
2, 11400, Note_on_c, 3, 75, 127
2, 11498, Note_off_c, 3, 75, 127
2, 11501, Note_off_c, 6, 54, 127
2, 11503, Note_on_c, 3, 63, 127
2, 11503, Note_on_c, 11, 82, 127
2, 11601, Note_off_c, 11, 82, 127
2, 11605, Note_on_c, 3, 75, 127
2, 11703, Note_off_c, 3, 75, 127
2, 11704, Note_off_c, 3, 63, 127
2, 11707, Note_on_c, 8, 56, 127
2, 11707, Note_on_c, 12, 83, 127
2, 11805, Note_off_c, 12, 83, 127
2, 11809, Note_on_c, 3, 75, 127
2, 11907, Note_off_c, 3, 75, 127
2, 11912, Note_on_c, 12, 83, 127
2, 12010, Note_off_c, 12, 83, 127
2, 12014, Note_on_c, 3, 75, 127
2, 12112, Note_off_c, 3, 75, 127
2, 12113, Note_off_c, 8, 56, 127
2, 12116, Note_on_c, 3, 63, 127
2, 12116, Note_on_c, 12, 83, 127
2, 12214, Note_off_c, 12, 83, 127
2, 12218, Note_on_c, 3, 75, 127
2, 12316, Note_off_c, 3, 75, 127
2, 12317, Note_off_c, 3, 63, 127
2, 12320, Note_on_c, 6, 54, 127
2, 12320, Note_on_c, 11, 82, 127
2, 12418, Note_off_c, 11, 82, 127
2, 12423, Note_on_c, 3, 75, 127
2, 12521, Note_off_c, 3, 75, 127
2, 12525, Note_on_c, 11, 82, 127
2, 12623, Note_off_c, 11, 82, 127
2, 12627, Note_on_c, 3, 75, 127
2, 12725, Note_off_c, 3, 75, 127
2, 12726, Note_off_c, 6, 54, 127
2, 12729, Note_on_c, 3, 63, 127
2, 12729, Note_on_c, 11, 82, 127
2, 12827, Note_off_c, 11, 82, 127
2, 12832, Note_on_c, 3, 75, 127
2, 12930, Note_off_c, 3, 75, 127
2, 12930, Note_off_c, 3, 63, 127
2, 12934, Note_on_c, 5, 53, 127
2, 12934, Note_on_c, 8, 80, 127
2, 13032, Note_off_c, 8, 80, 127
2, 13036, Note_on_c, 6, 78, 127
2, 13134, Note_off_c, 6, 78, 127
2, 13138, Note_on_c, 5, 77, 127
2, 13236, Note_off_c, 5, 77, 127
2, 13240, Note_on_c, 6, 78, 127
2, 13338, Note_off_c, 6, 78, 127
2, 13340, Note_off_c, 5, 53, 127
2, 13343, Note_on_c, 2, 62, 127
2, 13343, Note_on_c, 8, 80, 127
2, 13441, Note_off_c, 8, 80, 127
2, 13445, Note_on_c, 5, 77, 127
2, 13543, Note_off_c, 5, 77, 127
2, 13544, Note_off_c, 2, 62, 127
2, 13548, Note_on_c, 3, 51, 127
2, 13548, Note_on_c, 6, 78, 127
2, 13646, Note_off_c, 6, 78, 127
2, 13649, Note_on_c, 5, 77, 127
2, 13747, Note_off_c, 5, 77, 127
2, 13750, Note_on_c, 3, 75, 127
2, 13848, Note_off_c, 3, 75, 127
2, 13853, Note_on_c, 5, 77, 127
2, 13951, Note_off_c, 5, 77, 127
2, 13954, Note_off_c, 3, 51, 127
2, 13955, Note_on_c, 3, 63, 127
2, 13955, Note_on_c, 6, 78, 127
2, 14053, Note_off_c, 6, 78, 127
2, 14053, Note_off_c, 3, 63, 127
2, 14058, Note_on_c, 2, 62, 127
2, 14058, Note_on_c, 3, 75, 127
2, 14156, Note_off_c, 3, 75, 127
2, 14156, Note_off_c, 2, 62, 127
2, 14159, Note_on_c, 3, 63, 127
2, 14159, Note_on_c, 5, 77, 127
2, 14257, Note_off_c, 5, 77, 127
2, 14262, Note_on_c, 6, 78, 127
2, 14360, Note_off_c, 6, 78, 127
2, 14360, Note_off_c, 3, 63, 127
2, 14364, Note_on_c, 1, 61, 127
2, 14364, Note_on_c, 5, 77, 127
2, 14462, Note_off_c, 5, 77, 127
2, 14462, Note_off_c, 1, 61, 127
2, 14467, Note_on_c, 0, 60, 127
2, 14467, Note_on_c, 3, 75, 127
2, 14565, Note_off_c, 3, 75, 127
2, 14565, Note_off_c, 0, 60, 127
2, 14568, Note_on_c, 11, 58, 127
2, 14568, Note_on_c, 1, 73, 127
2, 14666, Note_off_c, 1, 73, 127
2, 14666, Note_off_c, 11, 58, 127
2, 14670, Note_on_c, 0, 60, 127
2, 14670, Note_on_c, 0, 72, 127
2, 14768, Note_off_c, 0, 72, 127
2, 14768, Note_off_c, 0, 60, 127
2, 14773, Note_on_c, 1, 61, 127
2, 14773, Note_on_c, 11, 70, 127
2, 14871, Note_off_c, 1, 61, 127
2, 14875, Note_on_c, 11, 58, 127
2, 14973, Note_off_c, 11, 58, 127
2, 14978, Note_on_c, 5, 53, 127
2, 15076, Note_off_c, 5, 53, 127
2, 15079, Note_on_c, 11, 58, 127
2, 15177, Note_off_c, 11, 58, 127
2, 15182, Note_on_c, 1, 61, 127
2, 15182, Note_on_c, 11, 82, 127
2, 15280, Note_off_c, 1, 61, 127
2, 15284, Note_on_c, 11, 58, 127
2, 15382, Note_off_c, 11, 58, 127
2, 15383, Note_off_c, 11, 82, 127
2, 15383, Note_off_c, 11, 70, 127
2, 15387, Note_on_c, 3, 63, 127
2, 15387, Note_on_c, 0, 72, 127
2, 15485, Note_off_c, 3, 63, 127
2, 15489, Note_on_c, 11, 58, 127
2, 15587, Note_off_c, 11, 58, 127
2, 15590, Note_on_c, 3, 63, 127
2, 15688, Note_off_c, 3, 63, 127
2, 15693, Note_on_c, 11, 58, 127
2, 15791, Note_off_c, 11, 58, 127
2, 15795, Note_on_c, 3, 63, 127
2, 15795, Note_on_c, 11, 82, 127
2, 15893, Note_off_c, 3, 63, 127
2, 15898, Note_on_c, 11, 58, 127
2, 15996, Note_off_c, 11, 58, 127
2, 15996, Note_off_c, 11, 82, 127
2, 15997, Note_off_c, 0, 72, 127
2, 16000, Note_on_c, 5, 65, 127
2, 16000, Note_on_c, 1, 73, 127
2, 16098, Note_off_c, 5, 65, 127
2, 16101, Note_on_c, 11, 58, 127
2, 16199, Note_off_c, 11, 58, 127
2, 16203, Note_on_c, 5, 65, 127
2, 16301, Note_off_c, 5, 65, 127
2, 16305, Note_on_c, 11, 58, 127
2, 16403, Note_off_c, 11, 58, 127
2, 16408, Note_on_c, 5, 65, 127
2, 16408, Note_on_c, 11, 82, 127
2, 16506, Note_off_c, 5, 65, 127
2, 16509, Note_on_c, 11, 58, 127
2, 16607, Note_off_c, 11, 58, 127
2, 16609, Note_off_c, 11, 82, 127
2, 16610, Note_off_c, 1, 73, 127
2, 16612, Note_on_c, 6, 66, 127
2, 16612, Note_on_c, 3, 75, 127
2, 16710, Note_off_c, 6, 66, 127
2, 16714, Note_on_c, 11, 58, 127
2, 16812, Note_off_c, 11, 58, 127
2, 16817, Note_on_c, 6, 66, 127
2, 16915, Note_off_c, 6, 66, 127
2, 16919, Note_on_c, 11, 58, 127
2, 17017, Note_off_c, 11, 58, 127
2, 17021, Note_on_c, 6, 66, 127
2, 17021, Note_on_c, 11, 82, 127
2, 17119, Note_off_c, 6, 66, 127
2, 17123, Note_on_c, 11, 58, 127
2, 17221, Note_off_c, 11, 58, 127
2, 17222, Note_off_c, 11, 82, 127
2, 17222, Note_off_c, 3, 75, 127
2, 17225, Note_on_c, 5, 65, 127
2, 17225, Note_on_c, 1, 73, 127
2, 17323, Note_off_c, 5, 65, 127
2, 17328, Note_on_c, 11, 58, 127
2, 17426, Note_off_c, 11, 58, 127
2, 17430, Note_on_c, 5, 65, 127
2, 17528, Note_off_c, 5, 65, 127
2, 17532, Note_on_c, 11, 58, 127
2, 17630, Note_off_c, 11, 58, 127
2, 17634, Note_on_c, 5, 65, 127
2, 17634, Note_on_c, 11, 82, 127
2, 17732, Note_off_c, 5, 65, 127
2, 17737, Note_on_c, 11, 58, 127
2, 17835, Note_off_c, 11, 58, 127
2, 17835, Note_off_c, 11, 82, 127
2, 17835, Note_off_c, 1, 73, 127
2, 17839, Note_on_c, 3, 63, 127
2, 17839, Note_on_c, 0, 72, 127
2, 17937, Note_off_c, 3, 63, 127
2, 17941, Note_on_c, 1, 61, 127
2, 18039, Note_off_c, 1, 61, 127
2, 18043, Note_on_c, 0, 60, 127
2, 18141, Note_off_c, 0, 60, 127
2, 18145, Note_on_c, 1, 61, 127
2, 18243, Note_off_c, 1, 61, 127
2, 18248, Note_on_c, 3, 63, 127
2, 18248, Note_on_c, 10, 81, 127
2, 18346, Note_off_c, 3, 63, 127
2, 18350, Note_on_c, 0, 60, 127
2, 18448, Note_off_c, 0, 60, 127
2, 18449, Note_off_c, 10, 81, 127
2, 18449, Note_off_c, 0, 72, 127
2, 18451, Note_on_c, 1, 61, 127
2, 18451, Note_on_c, 11, 70, 127
2, 18549, Note_off_c, 1, 61, 127
2, 18553, Note_on_c, 0, 60, 127
2, 18651, Note_off_c, 0, 60, 127
2, 18656, Note_on_c, 11, 58, 127
2, 18754, Note_off_c, 11, 58, 127
2, 18758, Note_on_c, 0, 60, 127
2, 18856, Note_off_c, 0, 60, 127
2, 18860, Note_on_c, 1, 61, 127
2, 18860, Note_on_c, 11, 82, 127
2, 18958, Note_off_c, 1, 61, 127
2, 18962, Note_on_c, 11, 58, 127
2, 19060, Note_off_c, 11, 58, 127
2, 19061, Note_off_c, 11, 70, 127
2, 19064, Note_on_c, 4, 64, 127
2, 19162, Note_off_c, 4, 64, 127
2, 19167, Note_on_c, 2, 62, 127
2, 19265, Note_off_c, 2, 62, 127
2, 19266, Note_off_c, 11, 82, 127
2, 19269, Note_on_c, 0, 60, 127
2, 19269, Note_on_c, 8, 80, 127
2, 19367, Note_off_c, 0, 60, 127
2, 19372, Note_on_c, 2, 62, 127
2, 19470, Note_off_c, 2, 62, 127
2, 19470, Note_off_c, 8, 80, 127
2, 19473, Note_on_c, 4, 64, 127
2, 19473, Note_on_c, 7, 79, 127
2, 19571, Note_off_c, 4, 64, 127
2, 19576, Note_on_c, 0, 60, 127
2, 19674, Note_off_c, 0, 60, 127
2, 19674, Note_off_c, 7, 79, 127
2, 19678, Note_on_c, 5, 65, 127
2, 19678, Note_on_c, 8, 80, 127
2, 19776, Note_off_c, 5, 65, 127
2, 19780, Note_on_c, 4, 64, 127
2, 19878, Note_off_c, 4, 64, 127
2, 19879, Note_off_c, 8, 80, 127
2, 19882, Note_on_c, 5, 65, 127
2, 19882, Note_on_c, 8, 68, 127
2, 19980, Note_off_c, 5, 65, 127
2, 19984, Note_on_c, 7, 67, 127
2, 20082, Note_off_c, 7, 67, 127
2, 20083, Note_off_c, 8, 68, 127
2, 20087, Note_on_c, 5, 65, 127
2, 20087, Note_on_c, 8, 80, 127
2, 20185, Note_off_c, 5, 65, 127
2, 20189, Note_on_c, 3, 63, 127
2, 20287, Note_off_c, 3, 63, 127
2, 20292, Note_on_c, 2, 62, 127
2, 20390, Note_off_c, 2, 62, 127
2, 20393, Note_on_c, 0, 60, 127
2, 20491, Note_off_c, 0, 60, 127
2, 20493, Note_off_c, 8, 80, 127
2, 20496, Note_on_c, 11, 58, 127
2, 20496, Note_on_c, 6, 78, 127
2, 20594, Note_off_c, 11, 58, 127
2, 20598, Note_on_c, 0, 60, 127
2, 20696, Note_off_c, 0, 60, 127
2, 20697, Note_off_c, 6, 78, 127
2, 20700, Note_on_c, 2, 62, 127
2, 20700, Note_on_c, 5, 77, 127
2, 20798, Note_off_c, 2, 62, 127
2, 20802, Note_on_c, 11, 58, 127
2, 20900, Note_off_c, 11, 58, 127
2, 20901, Note_off_c, 5, 77, 127
2, 20903, Note_on_c, 3, 63, 127
2, 20903, Note_on_c, 6, 78, 127
2, 21001, Note_off_c, 6, 78, 127
2, 21006, Note_on_c, 5, 77, 127
2, 21104, Note_off_c, 5, 77, 127
2, 21104, Note_off_c, 3, 63, 127
2, 21108, Note_on_c, 3, 51, 127
2, 21108, Note_on_c, 3, 75, 127
2, 21206, Note_off_c, 3, 75, 127
2, 21211, Note_on_c, 5, 77, 127
2, 21309, Note_off_c, 5, 77, 127
2, 21309, Note_off_c, 3, 51, 127
2, 21313, Note_on_c, 3, 63, 127
2, 21313, Note_on_c, 6, 78, 127
2, 21411, Note_off_c, 6, 78, 127
2, 21414, Note_on_c, 3, 75, 127
2, 21512, Note_off_c, 3, 75, 127
2, 21517, Note_on_c, 10, 81, 127
2, 21615, Note_off_c, 10, 81, 127
2, 21619, Note_on_c, 7, 79, 127
2, 21717, Note_off_c, 7, 79, 127
2, 21719, Note_off_c, 3, 63, 127
2, 21722, Note_on_c, 1, 61, 127
2, 21722, Note_on_c, 5, 77, 127
2, 21820, Note_off_c, 5, 77, 127
2, 21823, Note_on_c, 7, 79, 127
2, 21921, Note_off_c, 7, 79, 127
2, 21923, Note_off_c, 1, 61, 127
2, 21926, Note_on_c, 0, 60, 127
2, 21926, Note_on_c, 10, 81, 127
2, 22024, Note_off_c, 10, 81, 127
2, 22028, Note_on_c, 5, 77, 127
2, 22126, Note_off_c, 5, 77, 127
2, 22127, Note_off_c, 0, 60, 127
2, 22131, Note_on_c, 1, 61, 127
2, 22131, Note_on_c, 11, 82, 127
2, 22229, Note_off_c, 11, 82, 127
2, 22233, Note_on_c, 10, 81, 127
2, 22331, Note_off_c, 10, 81, 127
2, 22332, Note_off_c, 1, 61, 127
2, 22334, Note_on_c, 1, 49, 127
2, 22334, Note_on_c, 11, 82, 127
2, 22432, Note_off_c, 11, 82, 127
2, 22437, Note_on_c, 0, 84, 127
2, 22535, Note_off_c, 0, 84, 127
2, 22535, Note_off_c, 1, 49, 127
2, 22539, Note_on_c, 1, 61, 127
2, 22539, Note_on_c, 11, 82, 127
2, 22637, Note_off_c, 11, 82, 127
2, 22642, Note_on_c, 8, 80, 127
2, 22740, Note_off_c, 8, 80, 127
2, 22744, Note_on_c, 7, 79, 127
2, 22842, Note_off_c, 7, 79, 127
2, 22846, Note_on_c, 5, 77, 127
2, 22944, Note_off_c, 5, 77, 127
2, 22945, Note_off_c, 1, 61, 127
2, 22948, Note_on_c, 0, 60, 127
2, 22948, Note_on_c, 3, 75, 127
2, 23046, Note_off_c, 3, 75, 127
2, 23050, Note_on_c, 5, 77, 127
2, 23148, Note_off_c, 5, 77, 127
2, 23149, Note_off_c, 0, 60, 127
2, 23152, Note_on_c, 11, 58, 127
2, 23152, Note_on_c, 7, 79, 127
2, 23250, Note_off_c, 7, 79, 127
2, 23254, Note_on_c, 3, 75, 127
2, 23352, Note_off_c, 3, 75, 127
2, 23353, Note_off_c, 11, 58, 127
2, 23356, Note_on_c, 0, 60, 127
2, 23356, Note_on_c, 8, 80, 127
2, 23454, Note_off_c, 0, 60, 127
2, 23458, Note_on_c, 11, 58, 127
2, 23556, Note_off_c, 11, 58, 127
2, 23561, Note_on_c, 8, 56, 127
2, 23561, Note_on_c, 8, 68, 127
2, 23659, Note_off_c, 8, 56, 127
2, 23663, Note_on_c, 11, 58, 127
2, 23759, Note_off_c, 8, 80, 127
2, 23761, Note_off_c, 11, 58, 127
2, 23762, Note_off_c, 8, 68, 127
2, 23765, Note_on_c, 0, 60, 127
2, 23765, Note_on_c, 8, 80, 127
2, 23863, Note_off_c, 0, 60, 127
2, 23867, Note_on_c, 8, 56, 127
2, 23965, Note_off_c, 8, 56, 127
2, 23969, Note_on_c, 2, 62, 127
2, 24067, Note_off_c, 2, 62, 127
2, 24072, Note_on_c, 0, 60, 127
2, 24170, Note_off_c, 0, 60, 127
2, 24171, Note_off_c, 8, 80, 127
2, 24174, Note_on_c, 11, 58, 127
2, 24174, Note_on_c, 6, 78, 127
2, 24272, Note_off_c, 11, 58, 127
2, 24276, Note_on_c, 0, 60, 127
2, 24374, Note_off_c, 0, 60, 127
2, 24375, Note_off_c, 6, 78, 127
2, 24378, Note_on_c, 2, 62, 127
2, 24378, Note_on_c, 5, 77, 127
2, 24476, Note_off_c, 2, 62, 127
2, 24481, Note_on_c, 11, 58, 127
2, 24579, Note_off_c, 11, 58, 127
2, 24579, Note_off_c, 5, 77, 127
2, 24583, Note_on_c, 3, 63, 127
2, 24583, Note_on_c, 6, 78, 127
2, 24681, Note_off_c, 3, 63, 127
2, 24686, Note_on_c, 2, 62, 127
2, 24784, Note_off_c, 2, 62, 127
2, 24787, Note_on_c, 3, 63, 127
2, 24787, Note_on_c, 6, 66, 127
2, 24885, Note_off_c, 3, 63, 127
2, 24889, Note_on_c, 5, 65, 127
2, 24986, Note_off_c, 6, 78, 127
2, 24987, Note_off_c, 5, 65, 127
2, 24988, Note_off_c, 6, 66, 127
2, 24992, Note_on_c, 3, 63, 127
2, 24992, Note_on_c, 6, 78, 127
2, 25090, Note_off_c, 3, 63, 127
2, 25094, Note_on_c, 1, 61, 127
2, 25192, Note_off_c, 1, 61, 127
2, 25196, Note_on_c, 0, 60, 127
2, 25294, Note_off_c, 0, 60, 127
2, 25298, Note_on_c, 11, 58, 127
2, 25396, Note_off_c, 11, 58, 127
2, 25398, Note_off_c, 6, 78, 127
2, 25400, Note_on_c, 8, 56, 127
2, 25400, Note_on_c, 5, 77, 127
2, 25498, Note_off_c, 8, 56, 127
2, 25502, Note_on_c, 11, 58, 127
2, 25600, Note_off_c, 11, 58, 127
2, 25601, Note_off_c, 5, 77, 127
2, 25605, Note_on_c, 0, 60, 127
2, 25605, Note_on_c, 3, 75, 127
2, 25703, Note_off_c, 0, 60, 127
2, 25706, Note_on_c, 8, 56, 127
2, 25804, Note_off_c, 8, 56, 127
2, 25806, Note_off_c, 3, 75, 127
2, 25808, Note_on_c, 1, 61, 127
2, 25808, Note_on_c, 5, 77, 127
2, 25906, Note_off_c, 5, 77, 127
2, 25911, Note_on_c, 3, 75, 127
2, 26009, Note_off_c, 3, 75, 127
2, 26009, Note_off_c, 1, 61, 127
2, 26013, Note_on_c, 1, 49, 127
2, 26013, Note_on_c, 1, 73, 127
2, 26111, Note_off_c, 1, 73, 127
2, 26116, Note_on_c, 3, 75, 127
2, 26214, Note_off_c, 3, 75, 127
2, 26214, Note_off_c, 1, 49, 127
2, 26217, Note_on_c, 1, 61, 127
2, 26217, Note_on_c, 5, 77, 127
2, 26315, Note_off_c, 5, 77, 127
2, 26320, Note_on_c, 1, 73, 127
2, 26418, Note_off_c, 1, 73, 127
2, 26422, Note_on_c, 7, 79, 127
2, 26520, Note_off_c, 7, 79, 127
2, 26524, Note_on_c, 5, 77, 127
2, 26622, Note_off_c, 5, 77, 127
2, 26623, Note_off_c, 1, 61, 127
2, 26627, Note_on_c, 12, 59, 127
2, 26627, Note_on_c, 3, 75, 127
2, 26725, Note_off_c, 3, 75, 127
2, 26728, Note_on_c, 5, 77, 127
2, 26826, Note_off_c, 5, 77, 127
2, 26828, Note_off_c, 12, 59, 127
2, 26831, Note_on_c, 11, 58, 127
2, 26831, Note_on_c, 7, 79, 127
2, 26929, Note_off_c, 7, 79, 127
2, 26933, Note_on_c, 3, 75, 127
2, 27031, Note_off_c, 3, 75, 127
2, 27032, Note_off_c, 11, 58, 127
2, 27036, Note_on_c, 12, 59, 127
2, 27036, Note_on_c, 8, 80, 127
2, 27134, Note_off_c, 8, 80, 127
2, 27137, Note_on_c, 7, 79, 127
2, 27235, Note_off_c, 7, 79, 127
2, 27237, Note_off_c, 12, 59, 127
2, 27240, Note_on_c, 12, 47, 127
2, 27240, Note_on_c, 8, 80, 127
2, 27338, Note_off_c, 8, 80, 127
2, 27342, Note_on_c, 11, 82, 127
2, 27440, Note_off_c, 11, 82, 127
2, 27441, Note_off_c, 12, 47, 127
2, 27444, Note_on_c, 12, 59, 127
2, 27444, Note_on_c, 8, 80, 127
2, 27542, Note_off_c, 8, 80, 127
2, 27547, Note_on_c, 6, 78, 127
2, 27645, Note_off_c, 6, 78, 127
2, 27648, Note_on_c, 5, 77, 127
2, 27746, Note_off_c, 5, 77, 127
2, 27750, Note_on_c, 3, 75, 127
2, 27848, Note_off_c, 3, 75, 127
2, 27850, Note_off_c, 12, 59, 127
2, 27852, Note_on_c, 11, 58, 127
2, 27852, Note_on_c, 1, 73, 127
2, 27950, Note_off_c, 1, 73, 127
2, 27955, Note_on_c, 3, 75, 127
2, 28053, Note_off_c, 3, 75, 127
2, 28053, Note_off_c, 11, 58, 127
2, 28057, Note_on_c, 8, 56, 127
2, 28057, Note_on_c, 5, 77, 127
2, 28155, Note_off_c, 5, 77, 127
2, 28159, Note_on_c, 1, 73, 127
2, 28257, Note_off_c, 1, 73, 127
2, 28258, Note_off_c, 8, 56, 127
2, 28261, Note_on_c, 11, 58, 127
2, 28261, Note_on_c, 6, 66, 127
2, 28359, Note_off_c, 11, 58, 127
2, 28363, Note_on_c, 6, 54, 127
2, 28461, Note_off_c, 6, 54, 127
2, 28466, Note_on_c, 1, 49, 127
2, 28564, Note_off_c, 1, 49, 127
2, 28568, Note_on_c, 6, 54, 127
2, 28666, Note_off_c, 6, 54, 127
2, 28667, Note_off_c, 6, 66, 127
2, 28670, Note_on_c, 11, 58, 127
2, 28670, Note_on_c, 6, 78, 127
2, 28768, Note_off_c, 11, 58, 127
2, 28772, Note_on_c, 6, 54, 127
2, 28870, Note_off_c, 6, 54, 127
2, 28875, Note_on_c, 12, 59, 127
2, 28875, Note_on_c, 8, 68, 127
2, 28973, Note_off_c, 12, 59, 127
2, 28977, Note_on_c, 6, 54, 127
2, 29075, Note_off_c, 6, 54, 127
2, 29078, Note_on_c, 12, 59, 127
2, 29176, Note_off_c, 12, 59, 127
2, 29181, Note_on_c, 6, 54, 127
2, 29279, Note_off_c, 6, 54, 127
2, 29280, Note_off_c, 6, 78, 127
2, 29281, Note_off_c, 8, 68, 127
2, 29283, Note_on_c, 12, 59, 127
2, 29283, Note_on_c, 6, 78, 127
2, 29381, Note_off_c, 12, 59, 127
2, 29386, Note_on_c, 6, 54, 127
2, 29484, Note_off_c, 6, 54, 127
2, 29488, Note_on_c, 1, 61, 127
2, 29488, Note_on_c, 11, 70, 127
2, 29586, Note_off_c, 1, 61, 127
2, 29590, Note_on_c, 6, 54, 127
2, 29688, Note_off_c, 6, 54, 127
2, 29692, Note_on_c, 1, 61, 127
2, 29790, Note_off_c, 1, 61, 127
2, 29795, Note_on_c, 6, 54, 127
2, 29893, Note_off_c, 6, 54, 127
2, 29893, Note_off_c, 6, 78, 127
2, 29894, Note_off_c, 11, 70, 127
2, 29897, Note_on_c, 1, 61, 127
2, 29897, Note_on_c, 6, 78, 127
2, 29995, Note_off_c, 1, 61, 127
2, 29999, Note_on_c, 6, 54, 127
2, 30097, Note_off_c, 6, 54, 127
2, 30100, Note_on_c, 3, 63, 127
2, 30100, Note_on_c, 12, 71, 127
2, 30198, Note_off_c, 3, 63, 127
2, 30202, Note_on_c, 6, 54, 127
2, 30300, Note_off_c, 6, 54, 127
2, 30305, Note_on_c, 3, 63, 127
2, 30403, Note_off_c, 3, 63, 127
2, 30407, Note_on_c, 6, 54, 127
2, 30505, Note_off_c, 6, 54, 127
2, 30506, Note_off_c, 12, 71, 127
2, 30507, Note_off_c, 6, 78, 127
2, 30509, Note_on_c, 3, 63, 127
2, 30509, Note_on_c, 6, 78, 127
2, 30607, Note_off_c, 3, 63, 127
2, 30611, Note_on_c, 6, 54, 127
2, 30709, Note_off_c, 6, 54, 127
2, 30714, Note_on_c, 1, 61, 127
2, 30714, Note_on_c, 11, 70, 127
2, 30812, Note_off_c, 1, 61, 127
2, 30816, Note_on_c, 6, 54, 127
2, 30914, Note_off_c, 6, 54, 127
2, 30918, Note_on_c, 1, 61, 127
2, 31016, Note_off_c, 1, 61, 127
2, 31020, Note_on_c, 6, 54, 127
2, 31118, Note_off_c, 6, 54, 127
2, 31119, Note_off_c, 6, 78, 127
2, 31120, Note_off_c, 11, 70, 127
2, 31122, Note_on_c, 1, 61, 127
2, 31122, Note_on_c, 6, 78, 127
2, 31220, Note_off_c, 1, 61, 127
2, 31225, Note_on_c, 6, 54, 127
2, 31323, Note_off_c, 6, 54, 127
2, 31327, Note_on_c, 12, 59, 127
2, 31327, Note_on_c, 8, 68, 127
2, 31425, Note_off_c, 12, 59, 127
2, 31430, Note_on_c, 11, 58, 127
2, 31528, Note_off_c, 11, 58, 127
2, 31531, Note_on_c, 8, 56, 127
2, 31629, Note_off_c, 8, 56, 127
2, 31633, Note_on_c, 11, 58, 127
2, 31731, Note_off_c, 11, 58, 127
2, 31732, Note_off_c, 6, 78, 127
2, 31733, Note_off_c, 8, 68, 127
2, 31736, Note_on_c, 12, 59, 127
2, 31736, Note_on_c, 5, 77, 127
2, 31834, Note_off_c, 12, 59, 127
2, 31838, Note_on_c, 8, 56, 127
2, 31936, Note_off_c, 8, 56, 127
2, 31937, Note_off_c, 5, 77, 127
2, 31941, Note_on_c, 11, 58, 127
2, 31941, Note_on_c, 6, 66, 127
2, 32039, Note_off_c, 11, 58, 127
2, 32042, Note_on_c, 8, 56, 127
2, 32140, Note_off_c, 8, 56, 127
2, 32145, Note_on_c, 6, 54, 127
2, 32243, Note_off_c, 6, 54, 127
2, 32247, Note_on_c, 8, 56, 127
2, 32345, Note_off_c, 8, 56, 127
2, 32347, Note_off_c, 6, 66, 127
2, 32350, Note_on_c, 11, 58, 127
2, 32350, Note_on_c, 6, 78, 127
2, 32448, Note_off_c, 11, 58, 127
2, 32450, Note_on_c, 6, 54, 127
2, 32548, Note_off_c, 6, 54, 127
2, 32552, Note_on_c, 8, 56, 127
2, 32650, Note_off_c, 8, 56, 127
2, 32655, Note_on_c, 11, 58, 127
2, 32753, Note_off_c, 11, 58, 127
2, 32756, Note_off_c, 6, 78, 127
2, 32757, Note_on_c, 8, 56, 127
2, 32757, Note_on_c, 5, 77, 127
2, 32855, Note_off_c, 5, 77, 127
2, 32855, Note_off_c, 8, 56, 127
2, 32860, Note_on_c, 6, 54, 127
2, 32860, Note_on_c, 3, 75, 127
2, 32958, Note_off_c, 3, 75, 127
2, 32958, Note_off_c, 6, 54, 127
2, 32961, Note_on_c, 5, 53, 127
2, 32961, Note_on_c, 1, 73, 127
2, 33059, Note_off_c, 1, 73, 127
2, 33059, Note_off_c, 5, 53, 127
2, 33064, Note_on_c, 3, 51, 127
2, 33064, Note_on_c, 3, 75, 127
2, 33162, Note_off_c, 3, 75, 127
2, 33162, Note_off_c, 3, 51, 127
2, 33166, Note_on_c, 1, 49, 127
2, 33166, Note_on_c, 5, 77, 127
2, 33264, Note_off_c, 5, 77, 127
2, 33269, Note_on_c, 1, 73, 127
2, 33367, Note_off_c, 1, 73, 127
2, 33371, Note_on_c, 8, 68, 127
2, 33469, Note_off_c, 8, 68, 127
2, 33472, Note_on_c, 1, 73, 127
2, 33570, Note_off_c, 1, 73, 127
2, 33575, Note_on_c, 1, 61, 127
2, 33575, Note_on_c, 5, 77, 127
2, 33655, Note_off_c, 1, 49, 127
2, 33673, Note_off_c, 5, 77, 127
2, 33677, Note_on_c, 1, 73, 127
2, 33775, Note_off_c, 1, 73, 127
2, 33776, Note_off_c, 1, 61, 127
2, 33780, Note_on_c, 3, 51, 127
2, 33780, Note_on_c, 6, 78, 127
2, 33878, Note_off_c, 6, 78, 127
2, 33882, Note_on_c, 1, 73, 127
2, 33980, Note_off_c, 1, 73, 127
2, 33984, Note_on_c, 6, 78, 127
2, 34082, Note_off_c, 6, 78, 127
2, 34086, Note_on_c, 1, 73, 127
2, 34184, Note_off_c, 1, 73, 127
2, 34188, Note_on_c, 1, 61, 127
2, 34188, Note_on_c, 6, 78, 127
2, 34269, Note_off_c, 3, 51, 127
2, 34286, Note_off_c, 6, 78, 127
2, 34291, Note_on_c, 1, 73, 127
2, 34389, Note_off_c, 1, 73, 127
2, 34389, Note_off_c, 1, 61, 127
2, 34392, Note_on_c, 5, 53, 127
2, 34392, Note_on_c, 8, 80, 127
2, 34490, Note_off_c, 8, 80, 127
2, 34495, Note_on_c, 1, 73, 127
2, 34593, Note_off_c, 1, 73, 127
2, 34597, Note_on_c, 8, 80, 127
2, 34695, Note_off_c, 8, 80, 127
2, 34700, Note_on_c, 1, 73, 127
2, 34798, Note_off_c, 1, 73, 127
2, 34801, Note_on_c, 1, 61, 127
2, 34801, Note_on_c, 8, 80, 127
2, 34881, Note_off_c, 5, 53, 127
2, 34899, Note_off_c, 8, 80, 127
2, 34903, Note_on_c, 1, 73, 127
2, 35001, Note_off_c, 1, 73, 127
2, 35002, Note_off_c, 1, 61, 127
2, 35005, Note_on_c, 6, 54, 127
2, 35005, Note_on_c, 11, 82, 127
2, 35103, Note_off_c, 11, 82, 127
2, 35107, Note_on_c, 1, 73, 127
2, 35205, Note_off_c, 1, 73, 127
2, 35210, Note_on_c, 11, 82, 127
2, 35308, Note_off_c, 11, 82, 127
2, 35312, Note_on_c, 1, 73, 127
2, 35410, Note_off_c, 1, 73, 127
2, 35414, Note_on_c, 1, 61, 127
2, 35414, Note_on_c, 11, 82, 127
2, 35494, Note_off_c, 6, 54, 127
2, 35512, Note_off_c, 11, 82, 127
2, 35516, Note_on_c, 1, 73, 127
2, 35614, Note_off_c, 1, 73, 127
2, 35615, Note_off_c, 1, 61, 127
2, 35619, Note_on_c, 5, 53, 127
2, 35619, Note_on_c, 8, 80, 127
2, 35717, Note_off_c, 8, 80, 127
2, 35721, Note_on_c, 1, 73, 127
2, 35819, Note_off_c, 1, 73, 127
2, 35823, Note_on_c, 8, 80, 127
2, 35921, Note_off_c, 8, 80, 127
2, 35925, Note_on_c, 1, 73, 127
2, 36023, Note_off_c, 1, 73, 127
2, 36027, Note_on_c, 1, 61, 127
2, 36027, Note_on_c, 8, 80, 127
2, 36108, Note_off_c, 5, 53, 127
2, 36125, Note_off_c, 8, 80, 127
2, 36130, Note_on_c, 1, 73, 127
2, 36228, Note_off_c, 1, 73, 127
2, 36228, Note_off_c, 1, 61, 127
2, 36232, Note_on_c, 3, 51, 127
2, 36232, Note_on_c, 6, 78, 127
2, 36330, Note_off_c, 6, 78, 127
2, 36334, Note_on_c, 5, 77, 127
2, 36432, Note_off_c, 5, 77, 127
2, 36436, Note_on_c, 3, 75, 127
2, 36534, Note_off_c, 3, 75, 127
2, 36539, Note_on_c, 5, 77, 127
2, 36637, Note_off_c, 5, 77, 127
2, 36641, Note_on_c, 0, 60, 127
2, 36641, Note_on_c, 6, 78, 127
2, 36680, Note_off_c, 3, 51, 127
2, 36739, Note_off_c, 6, 78, 127
2, 36743, Note_on_c, 3, 75, 127
2, 36841, Note_off_c, 3, 75, 127
2, 36842, Note_off_c, 0, 60, 127
2, 36845, Note_on_c, 1, 49, 127
2, 36845, Note_on_c, 5, 77, 127
2, 36943, Note_off_c, 5, 77, 127
2, 36947, Note_on_c, 3, 75, 127
2, 37045, Note_off_c, 3, 75, 127
2, 37050, Note_on_c, 1, 73, 127
2, 37148, Note_off_c, 1, 73, 127
2, 37151, Note_on_c, 3, 75, 127
2, 37249, Note_off_c, 3, 75, 127
2, 37251, Note_off_c, 1, 49, 127
2, 37254, Note_on_c, 1, 61, 127
2, 37254, Note_on_c, 5, 77, 127
2, 37352, Note_off_c, 5, 77, 127
2, 37355, Note_on_c, 1, 73, 127
2, 37453, Note_off_c, 1, 73, 127
2, 37455, Note_off_c, 1, 61, 127
2, 37458, Note_on_c, 6, 54, 127
2, 37458, Note_on_c, 3, 75, 127
2, 37556, Note_off_c, 3, 75, 127
2, 37560, Note_on_c, 5, 77, 127
2, 37658, Note_off_c, 5, 77, 127
2, 37659, Note_off_c, 6, 54, 127
2, 37662, Note_on_c, 5, 53, 127
2, 37662, Note_on_c, 3, 75, 127
2, 37760, Note_off_c, 3, 75, 127
2, 37764, Note_on_c, 1, 73, 127
2, 37862, Note_off_c, 1, 73, 127
2, 37863, Note_off_c, 5, 53, 127
2, 37866, Note_on_c, 3, 51, 127
2, 37866, Note_on_c, 0, 72, 127
2, 37964, Note_off_c, 0, 72, 127
2, 37969, Note_on_c, 11, 70, 127
2, 38067, Note_off_c, 11, 70, 127
2, 38067, Note_off_c, 3, 51, 127
2, 38071, Note_on_c, 8, 56, 127
2, 38071, Note_on_c, 0, 72, 127
2, 38174, Note_on_c, 8, 68, 127
2, 38271, Note_off_c, 0, 72, 127
2, 38272, Note_off_c, 8, 68, 127
2, 38275, Note_on_c, 6, 66, 127
2, 38373, Note_off_c, 6, 66, 127
2, 38378, Note_on_c, 8, 68, 127
2, 38476, Note_off_c, 8, 68, 127
2, 38480, Note_on_c, 3, 63, 127
2, 38578, Note_off_c, 3, 63, 127
2, 38582, Note_on_c, 8, 68, 127
2, 38680, Note_off_c, 8, 68, 127
2, 38681, Note_off_c, 8, 56, 127
2, 38685, Note_on_c, 8, 56, 127
2, 38685, Note_on_c, 0, 72, 127
2, 38786, Note_on_c, 8, 68, 127
2, 38884, Note_off_c, 8, 68, 127
2, 38885, Note_off_c, 0, 72, 127
2, 38889, Note_on_c, 6, 66, 127
2, 38987, Note_off_c, 6, 66, 127
2, 38991, Note_on_c, 8, 68, 127
2, 39089, Note_off_c, 8, 68, 127
2, 39094, Note_on_c, 3, 63, 127
2, 39192, Note_off_c, 3, 63, 127
2, 39196, Note_on_c, 8, 68, 127
2, 39294, Note_off_c, 8, 68, 127
2, 39295, Note_off_c, 8, 56, 127
2, 39297, Note_on_c, 8, 56, 127
2, 39297, Note_on_c, 1, 73, 127
2, 39400, Note_on_c, 8, 68, 127
2, 39497, Note_off_c, 1, 73, 127
2, 39498, Note_off_c, 8, 68, 127
2, 39501, Note_on_c, 5, 65, 127
2, 39599, Note_off_c, 5, 65, 127
2, 39604, Note_on_c, 8, 68, 127
2, 39702, Note_off_c, 8, 68, 127
2, 39705, Note_on_c, 1, 61, 127
2, 39803, Note_off_c, 1, 61, 127
2, 39808, Note_on_c, 8, 68, 127
2, 39906, Note_off_c, 8, 68, 127
2, 39907, Note_off_c, 8, 56, 127
2, 39910, Note_on_c, 8, 56, 127
2, 39910, Note_on_c, 1, 73, 127
2, 40013, Note_on_c, 8, 68, 127
2, 40110, Note_off_c, 1, 73, 127
2, 40111, Note_off_c, 8, 68, 127
2, 40115, Note_on_c, 5, 65, 127
2, 40213, Note_off_c, 5, 65, 127
2, 40216, Note_on_c, 8, 68, 127
2, 40314, Note_off_c, 8, 68, 127
2, 40319, Note_on_c, 1, 61, 127
2, 40417, Note_off_c, 1, 61, 127
2, 40421, Note_on_c, 8, 68, 127
2, 40519, Note_off_c, 8, 68, 127
2, 40520, Note_off_c, 8, 56, 127
2, 40524, Note_on_c, 8, 56, 127
2, 40524, Note_on_c, 6, 78, 127
2, 40626, Note_on_c, 8, 68, 127
2, 40724, Note_off_c, 8, 68, 127
2, 40724, Note_off_c, 6, 78, 127
2, 40728, Note_on_c, 3, 63, 127
2, 40826, Note_off_c, 3, 63, 127
2, 40830, Note_on_c, 8, 68, 127
2, 40928, Note_off_c, 8, 68, 127
2, 40933, Note_on_c, 0, 60, 127
2, 41031, Note_off_c, 0, 60, 127
2, 41035, Note_on_c, 8, 68, 127
2, 41133, Note_off_c, 8, 68, 127
2, 41134, Note_off_c, 8, 56, 127
2, 41137, Note_on_c, 8, 56, 127
2, 41137, Note_on_c, 6, 78, 127
2, 41239, Note_on_c, 8, 68, 127
2, 41337, Note_off_c, 8, 68, 127
2, 41337, Note_off_c, 6, 78, 127
2, 41341, Note_on_c, 3, 63, 127
2, 41439, Note_off_c, 3, 63, 127
2, 41444, Note_on_c, 8, 68, 127
2, 41542, Note_off_c, 8, 68, 127
2, 41546, Note_on_c, 0, 60, 127
2, 41644, Note_off_c, 0, 60, 127
2, 41648, Note_on_c, 8, 68, 127
2, 41746, Note_off_c, 8, 68, 127
2, 41747, Note_off_c, 8, 56, 127
2, 41750, Note_on_c, 8, 56, 127
2, 41750, Note_on_c, 5, 77, 127
2, 41851, Note_on_c, 8, 68, 127
2, 41949, Note_off_c, 8, 68, 127
2, 41950, Note_off_c, 5, 77, 127
2, 41954, Note_on_c, 5, 65, 127
2, 42052, Note_off_c, 5, 65, 127
2, 42056, Note_on_c, 8, 68, 127
2, 42154, Note_off_c, 8, 68, 127
2, 42158, Note_on_c, 1, 61, 127
2, 42256, Note_off_c, 1, 61, 127
2, 42260, Note_on_c, 8, 68, 127
2, 42358, Note_off_c, 8, 68, 127
2, 42360, Note_off_c, 8, 56, 127
2, 42363, Note_on_c, 8, 56, 127
2, 42363, Note_on_c, 5, 77, 127
2, 42465, Note_on_c, 8, 68, 127
2, 42563, Note_off_c, 8, 68, 127
2, 42563, Note_off_c, 5, 77, 127
2, 42568, Note_on_c, 5, 65, 127
2, 42666, Note_off_c, 5, 65, 127
2, 42669, Note_on_c, 8, 68, 127
2, 42767, Note_off_c, 8, 68, 127
2, 42771, Note_on_c, 1, 61, 127
2, 42869, Note_off_c, 1, 61, 127
2, 42874, Note_on_c, 8, 68, 127
2, 42972, Note_off_c, 8, 68, 127
2, 42973, Note_off_c, 8, 56, 127
2, 42976, Note_on_c, 8, 56, 127
2, 42976, Note_on_c, 7, 79, 127
2, 43078, Note_on_c, 11, 70, 127
2, 43176, Note_off_c, 11, 70, 127
2, 43176, Note_off_c, 7, 79, 127
2, 43180, Note_on_c, 4, 64, 127
2, 43278, Note_off_c, 4, 64, 127
2, 43283, Note_on_c, 11, 70, 127
2, 43381, Note_off_c, 11, 70, 127
2, 43385, Note_on_c, 1, 61, 127
2, 43483, Note_off_c, 1, 61, 127
2, 43488, Note_on_c, 11, 70, 127
2, 43586, Note_off_c, 11, 70, 127
2, 43586, Note_off_c, 8, 56, 127
2, 43589, Note_on_c, 8, 56, 127
2, 43589, Note_on_c, 7, 79, 127
2, 43691, Note_on_c, 11, 70, 127
2, 43789, Note_off_c, 11, 70, 127
2, 43789, Note_off_c, 7, 79, 127
2, 43794, Note_on_c, 4, 64, 127
2, 43892, Note_off_c, 4, 64, 127
2, 43896, Note_on_c, 11, 70, 127
2, 43994, Note_off_c, 11, 70, 127
2, 43999, Note_on_c, 1, 61, 127
2, 44097, Note_off_c, 1, 61, 127
2, 44100, Note_on_c, 11, 70, 127
2, 44198, Note_off_c, 11, 70, 127
2, 44199, Note_off_c, 8, 56, 127
2, 44202, Note_on_c, 8, 56, 127
2, 44202, Note_on_c, 8, 80, 127
2, 44304, Note_on_c, 0, 72, 127
2, 44406, Note_on_c, 3, 63, 127
2, 44411, Note_off_c, 0, 72, 127
2, 44413, Note_off_c, 8, 80, 127
2, 44509, Note_on_c, 0, 72, 127
2, 44513, Note_off_c, 3, 63, 127
2, 44610, Note_on_c, 0, 60, 127
2, 44616, Note_off_c, 0, 72, 127
2, 44713, Note_on_c, 0, 72, 127
2, 44717, Note_off_c, 0, 60, 127
2, 44812, Note_off_c, 8, 56, 127
2, 44815, Note_on_c, 6, 54, 127
2, 44815, Note_on_c, 8, 80, 127
2, 44820, Note_off_c, 0, 72, 127
2, 44918, Note_on_c, 0, 72, 127
2, 44945, Note_off_c, 8, 80, 127
2, 45019, Note_on_c, 3, 63, 127
2, 45053, Note_off_c, 0, 72, 127
2, 45122, Note_on_c, 0, 72, 127
2, 45158, Note_off_c, 3, 63, 127
2, 45224, Note_on_c, 0, 60, 127
2, 45266, Note_off_c, 0, 72, 127
2, 45300, Note_off_c, 6, 54, 127
2, 45326, Note_on_c, 0, 72, 127
2, 45400, Note_off_c, 0, 60, 127
2, 45429, Note_on_c, 5, 53, 127
2, 45429, Note_on_c, 8, 80, 127
2, 45479, Note_off_c, 0, 72, 127
2, 45530, Note_on_c, 1, 73, 127
2, 45630, Note_off_c, 5, 53, 127
2, 45633, Note_off_c, 8, 80, 127
2, 45633, Note_on_c, 5, 65, 127
2, 45731, Note_off_c, 1, 73, 127
2, 45735, Note_on_c, 8, 68, 127
2, 45834, Note_off_c, 5, 65, 127
2, 45838, Note_on_c, 1, 61, 127
2, 45861, Note_off_c, 8, 68, 127
2, 45940, Note_on_c, 1, 73, 127
2, 46039, Note_off_c, 1, 61, 127
2, 46042, Note_on_c, 8, 56, 127
2, 46066, Note_off_c, 1, 73, 127
2, 46144, Note_on_c, 5, 77, 127
2, 46204, Note_off_c, 8, 56, 127
2, 46246, Note_on_c, 5, 53, 127
2, 46270, Note_off_c, 5, 77, 127
2, 46349, Note_on_c, 8, 80, 127
2, 46408, Note_off_c, 5, 53, 127
2, 46450, Note_on_c, 3, 51, 127
2, 46475, Note_off_c, 8, 80, 127
2, 46552, Note_on_c, 11, 82, 127
2, 46612, Note_off_c, 3, 51, 127
2, 46650, Note_off_c, 11, 82, 127
2, 46654, Note_on_c, 2, 50, 127
2, 46654, Note_on_c, 12, 83, 127
2, 46752, Note_off_c, 12, 83, 127
2, 46757, Note_on_c, 11, 82, 127
2, 46855, Note_off_c, 11, 82, 127
2, 46855, Note_off_c, 2, 50, 127
2, 46859, Note_on_c, 5, 53, 127
2, 46859, Note_on_c, 8, 80, 127
2, 46957, Note_off_c, 8, 80, 127
2, 46960, Note_on_c, 6, 78, 127
2, 47058, Note_off_c, 6, 78, 127
2, 47060, Note_off_c, 5, 53, 127
2, 47063, Note_on_c, 11, 58, 127
2, 47063, Note_on_c, 5, 77, 127
2, 47161, Note_off_c, 5, 77, 127
2, 47165, Note_on_c, 3, 75, 127
2, 47263, Note_off_c, 3, 75, 127
2, 47264, Note_off_c, 11, 58, 127
2, 47268, Note_on_c, 2, 62, 127
2, 47268, Note_on_c, 5, 77, 127
2, 47366, Note_off_c, 5, 77, 127
2, 47370, Note_on_c, 6, 78, 127
2, 47417, Note_off_c, 2, 62, 127
2, 47468, Note_off_c, 6, 78, 127
2, 47472, Note_on_c, 5, 65, 127
2, 47472, Note_on_c, 8, 80, 127
2, 47570, Note_off_c, 8, 80, 127
2, 47574, Note_on_c, 12, 83, 127
2, 47621, Note_off_c, 5, 65, 127
2, 47672, Note_off_c, 12, 83, 127
2, 47677, Note_on_c, 11, 70, 127
2, 47677, Note_on_c, 11, 82, 127
2, 47775, Note_off_c, 11, 82, 127
2, 47779, Note_on_c, 8, 80, 127
2, 47826, Note_off_c, 11, 70, 127
2, 47877, Note_off_c, 8, 80, 127
2, 47881, Note_on_c, 6, 66, 127
2, 47881, Note_on_c, 11, 82, 127
2, 47979, Note_off_c, 11, 82, 127
2, 47983, Note_on_c, 3, 75, 127
2, 48082, Note_off_c, 6, 66, 127
2, 48085, Note_on_c, 3, 63, 127
2, 48184, Note_off_c, 3, 75, 127
2, 48188, Note_on_c, 6, 66, 127
2, 48286, Note_off_c, 3, 63, 127
2, 48290, Note_on_c, 11, 58, 127
2, 48314, Note_off_c, 6, 66, 127
2, 48392, Note_on_c, 11, 70, 127
2, 48491, Note_off_c, 11, 58, 127
2, 48494, Note_on_c, 6, 54, 127
2, 48518, Note_off_c, 11, 70, 127
2, 48597, Note_on_c, 3, 75, 127
2, 48656, Note_off_c, 6, 54, 127
2, 48699, Note_on_c, 3, 51, 127
2, 48723, Note_off_c, 3, 75, 127
2, 48800, Note_on_c, 6, 78, 127
2, 48861, Note_off_c, 3, 51, 127
2, 48902, Note_on_c, 1, 49, 127
2, 48926, Note_off_c, 6, 78, 127
2, 49004, Note_on_c, 8, 80, 127
2, 49069, Note_off_c, 1, 49, 127
2, 49102, Note_off_c, 8, 80, 127
2, 49107, Note_on_c, 0, 48, 127
2, 49107, Note_on_c, 10, 81, 127
2, 49205, Note_off_c, 10, 81, 127
2, 49209, Note_on_c, 8, 80, 127
2, 49307, Note_off_c, 8, 80, 127
2, 49308, Note_off_c, 0, 48, 127
2, 49312, Note_on_c, 3, 51, 127
2, 49312, Note_on_c, 6, 78, 127
2, 49410, Note_off_c, 6, 78, 127
2, 49413, Note_on_c, 4, 76, 127
2, 49511, Note_off_c, 4, 76, 127
2, 49513, Note_off_c, 3, 51, 127
2, 49515, Note_on_c, 8, 56, 127
2, 49515, Note_on_c, 3, 75, 127
2, 49613, Note_off_c, 3, 75, 127
2, 49618, Note_on_c, 1, 73, 127
2, 49716, Note_off_c, 1, 73, 127
2, 49716, Note_off_c, 8, 56, 127
2, 49720, Note_on_c, 0, 60, 127
2, 49720, Note_on_c, 3, 75, 127
2, 49818, Note_off_c, 3, 75, 127
2, 49823, Note_on_c, 4, 76, 127
2, 49877, Note_off_c, 0, 60, 127
2, 49921, Note_off_c, 4, 76, 127
2, 49924, Note_on_c, 3, 63, 127
2, 49924, Note_on_c, 6, 78, 127
2, 50022, Note_off_c, 6, 78, 127
2, 50027, Note_on_c, 10, 81, 127
2, 50081, Note_off_c, 3, 63, 127
2, 50125, Note_off_c, 10, 81, 127
2, 50129, Note_on_c, 8, 68, 127
2, 50129, Note_on_c, 8, 80, 127
2, 50227, Note_off_c, 8, 80, 127
2, 50232, Note_on_c, 6, 78, 127
2, 50286, Note_off_c, 8, 68, 127
2, 50330, Note_off_c, 6, 78, 127
2, 50333, Note_on_c, 4, 64, 127
2, 50333, Note_on_c, 8, 80, 127
2, 50431, Note_off_c, 8, 80, 127
2, 50435, Note_on_c, 1, 73, 127
2, 50534, Note_off_c, 4, 64, 127
2, 50538, Note_on_c, 1, 61, 127
2, 50636, Note_off_c, 1, 73, 127
2, 50640, Note_on_c, 4, 76, 127
2, 50739, Note_off_c, 1, 61, 127
2, 50743, Note_on_c, 10, 57, 127
2, 50788, Note_off_c, 4, 76, 127
2, 50844, Note_on_c, 1, 73, 127
2, 50944, Note_off_c, 10, 57, 127
2, 50947, Note_on_c, 6, 54, 127
2, 50992, Note_off_c, 1, 73, 127
2, 51049, Note_on_c, 10, 69, 127
2, 51148, Note_off_c, 6, 54, 127
2, 51151, Note_on_c, 3, 63, 127
2, 51198, Note_off_c, 10, 69, 127
2, 51253, Note_on_c, 6, 66, 127
2, 51300, Note_off_c, 3, 63, 127
2, 51354, Note_on_c, 0, 60, 127
2, 51383, Note_off_c, 6, 66, 127
2, 51457, Note_on_c, 3, 75, 127
2, 51484, Note_off_c, 0, 60, 127
2, 51559, Note_on_c, 4, 52, 127
2, 51587, Note_off_c, 3, 75, 127
2, 51662, Note_on_c, 8, 68, 127
2, 51760, Note_off_c, 4, 52, 127
2, 51764, Note_on_c, 1, 61, 127
2, 51811, Note_off_c, 8, 68, 127
2, 51866, Note_on_c, 4, 64, 127
2, 51913, Note_off_c, 1, 61, 127
2, 51968, Note_on_c, 10, 57, 127
2, 52015, Note_off_c, 4, 64, 127
2, 52070, Note_on_c, 1, 73, 127
2, 52079, Note_off_c, 10, 57, 127
2, 52166, Note_on_c, 6, 54, 127
2, 52171, Note_off_c, 1, 73, 127
2, 52274, Note_on_c, 10, 69, 127
2, 52333, Note_off_c, 6, 54, 127
2, 52377, Note_on_c, 3, 51, 127
2, 52404, Note_off_c, 10, 69, 127
2, 52479, Note_on_c, 6, 66, 127
2, 52526, Note_off_c, 3, 51, 127
2, 52582, Note_on_c, 0, 48, 127
2, 52609, Note_off_c, 6, 66, 127
2, 52684, Note_on_c, 3, 63, 127
2, 52731, Note_off_c, 0, 48, 127
2, 52775, Note_off_c, 3, 63, 127
2, 52786, Note_on_c, 8, 44, 127
2, 52786, Note_on_c, 0, 60, 127
2, 52888, Note_on_c, 8, 56, 127
2, 52987, Note_off_c, 8, 44, 127
2, 52990, Note_on_c, 6, 54, 127
2, 53037, Note_off_c, 8, 56, 127
2, 53093, Note_on_c, 8, 56, 127
2, 53191, Note_off_c, 6, 54, 127
2, 53195, Note_on_c, 3, 51, 127
2, 53242, Note_off_c, 8, 56, 127
2, 53297, Note_on_c, 8, 56, 127
2, 53395, Note_off_c, 8, 56, 127
2, 53396, Note_off_c, 3, 51, 127
2, 53396, Note_off_c, 0, 60, 127
2, 53399, Note_on_c, 8, 44, 127
2, 53399, Note_on_c, 0, 60, 127
2, 53501, Note_on_c, 8, 56, 127
2, 53600, Note_off_c, 8, 44, 127
2, 53603, Note_on_c, 6, 54, 127
2, 53650, Note_off_c, 8, 56, 127
2, 53705, Note_on_c, 8, 56, 127
2, 53804, Note_off_c, 6, 54, 127
2, 53807, Note_on_c, 3, 51, 127
2, 53854, Note_off_c, 8, 56, 127
2, 53909, Note_on_c, 8, 56, 127
2, 54007, Note_off_c, 8, 56, 127
2, 54008, Note_off_c, 3, 51, 127
2, 54009, Note_off_c, 0, 60, 127
2, 54012, Note_on_c, 8, 44, 127
2, 54012, Note_on_c, 1, 61, 127
2, 54114, Note_on_c, 8, 56, 127
2, 54213, Note_off_c, 8, 44, 127
2, 54216, Note_on_c, 5, 53, 127
2, 54263, Note_off_c, 8, 56, 127
2, 54318, Note_on_c, 8, 56, 127
2, 54417, Note_off_c, 5, 53, 127
2, 54421, Note_on_c, 1, 49, 127
2, 54467, Note_off_c, 8, 56, 127
2, 54523, Note_on_c, 8, 56, 127
2, 54621, Note_off_c, 8, 56, 127
2, 54622, Note_off_c, 1, 49, 127
2, 54622, Note_off_c, 1, 61, 127
2, 54625, Note_on_c, 8, 44, 127
2, 54625, Note_on_c, 1, 61, 127
2, 54727, Note_on_c, 8, 56, 127
2, 54826, Note_off_c, 8, 44, 127
2, 54829, Note_on_c, 5, 53, 127
2, 54876, Note_off_c, 8, 56, 127
2, 54932, Note_on_c, 8, 56, 127
2, 55030, Note_off_c, 5, 53, 127
2, 55034, Note_on_c, 1, 49, 127
2, 55081, Note_off_c, 8, 56, 127
2, 55137, Note_on_c, 8, 56, 127
2, 55235, Note_off_c, 8, 56, 127
2, 55235, Note_off_c, 1, 49, 127
2, 55235, Note_off_c, 1, 61, 127
2, 55238, Note_on_c, 8, 44, 127
2, 55238, Note_on_c, 6, 66, 127
2, 55341, Note_on_c, 8, 56, 127
2, 55439, Note_off_c, 8, 44, 127
2, 55443, Note_on_c, 3, 51, 127
2, 55490, Note_off_c, 8, 56, 127
2, 55545, Note_on_c, 8, 56, 127
2, 55644, Note_off_c, 3, 51, 127
2, 55647, Note_on_c, 0, 48, 127
2, 55694, Note_off_c, 8, 56, 127
2, 55749, Note_on_c, 8, 56, 127
2, 55847, Note_off_c, 8, 56, 127
2, 55848, Note_off_c, 0, 48, 127
2, 55848, Note_off_c, 6, 66, 127
2, 55851, Note_on_c, 8, 44, 127
2, 55851, Note_on_c, 6, 66, 127
2, 55953, Note_on_c, 8, 56, 127
2, 56052, Note_off_c, 8, 44, 127
2, 56056, Note_on_c, 3, 51, 127
2, 56102, Note_off_c, 8, 56, 127
2, 56157, Note_on_c, 8, 56, 127
2, 56257, Note_off_c, 3, 51, 127
2, 56260, Note_on_c, 0, 48, 127
2, 56306, Note_off_c, 8, 56, 127
2, 56362, Note_on_c, 8, 56, 127
2, 56460, Note_off_c, 8, 56, 127
2, 56461, Note_off_c, 0, 48, 127
2, 56461, Note_off_c, 6, 66, 127
2, 56464, Note_on_c, 8, 44, 127
2, 56464, Note_on_c, 5, 65, 127
2, 56567, Note_on_c, 8, 56, 127
2, 56665, Note_off_c, 8, 44, 127
2, 56668, Note_on_c, 5, 53, 127
2, 56716, Note_off_c, 8, 56, 127
2, 56771, Note_on_c, 8, 56, 127
2, 56869, Note_off_c, 5, 53, 127
2, 56873, Note_on_c, 1, 49, 127
2, 56920, Note_off_c, 8, 56, 127
2, 56976, Note_on_c, 8, 56, 127
2, 57074, Note_off_c, 8, 56, 127
2, 57074, Note_off_c, 1, 49, 127
2, 57074, Note_off_c, 5, 65, 127
2, 57078, Note_on_c, 8, 44, 127
2, 57078, Note_on_c, 5, 65, 127
2, 57179, Note_on_c, 8, 56, 127
2, 57279, Note_off_c, 8, 44, 127
2, 57282, Note_on_c, 5, 53, 127
2, 57336, Note_off_c, 8, 56, 127
2, 57384, Note_on_c, 8, 56, 127
2, 57483, Note_off_c, 5, 53, 127
2, 57487, Note_on_c, 1, 49, 127
2, 57551, Note_off_c, 8, 56, 127
2, 57588, Note_on_c, 8, 56, 127
2, 57686, Note_off_c, 8, 56, 127
2, 57688, Note_off_c, 1, 49, 127
2, 57688, Note_off_c, 5, 65, 127
2, 57691, Note_on_c, 8, 44, 127
2, 57691, Note_on_c, 7, 67, 127
2, 57793, Note_on_c, 11, 58, 127
2, 57896, Note_on_c, 4, 52, 127
2, 57905, Note_off_c, 8, 44, 127
2, 57969, Note_off_c, 11, 58, 127
2, 57998, Note_on_c, 11, 58, 127
2, 58065, Note_off_c, 4, 52, 127
2, 58099, Note_on_c, 1, 49, 127
2, 58184, Note_off_c, 11, 58, 127
2, 58201, Note_on_c, 11, 58, 127
2, 58268, Note_off_c, 1, 49, 127
2, 58299, Note_off_c, 11, 58, 127
2, 58301, Note_off_c, 7, 67, 127
2, 58303, Note_on_c, 8, 44, 127
2, 58303, Note_on_c, 7, 67, 127
2, 58406, Note_on_c, 11, 58, 127
2, 58503, Note_off_c, 7, 67, 127
2, 58508, Note_on_c, 4, 52, 127
2, 58545, Note_off_c, 8, 44, 127
2, 58602, Note_off_c, 11, 58, 127
2, 58610, Note_on_c, 11, 58, 127
2, 58677, Note_off_c, 4, 52, 127
2, 58712, Note_on_c, 1, 49, 127
2, 58811, Note_off_c, 11, 58, 127
2, 58815, Note_on_c, 11, 58, 127
2, 58881, Note_off_c, 1, 49, 127
2, 58913, Note_off_c, 11, 58, 127
2, 58917, Note_on_c, 8, 44, 127
2, 59015, Note_off_c, 8, 44, 127
2, 59019, Note_on_c, 0, 48, 127
2, 59117, Note_off_c, 0, 48, 127
2, 59121, Note_on_c, 3, 51, 127
2, 59219, Note_off_c, 3, 51, 127
2, 59223, Note_on_c, 6, 54, 127
2, 59321, Note_off_c, 6, 54, 127
2, 59326, Note_on_c, 10, 57, 127
2, 59424, Note_off_c, 10, 57, 127
2, 59428, Note_on_c, 0, 60, 127
2, 59526, Note_off_c, 0, 60, 127
2, 59530, Note_on_c, 1, 61, 127
2, 59628, Note_off_c, 1, 61, 127
2, 59632, Note_on_c, 4, 64, 127
2, 59730, Note_off_c, 4, 64, 127
2, 59734, Note_on_c, 7, 67, 127
2, 59832, Note_off_c, 7, 67, 127
2, 59837, Note_on_c, 11, 70, 127
2, 59935, Note_off_c, 11, 70, 127
2, 59939, Note_on_c, 1, 73, 127
2, 60037, Note_off_c, 1, 73, 127
2, 60041, Note_on_c, 4, 76, 127
2, 60139, Note_off_c, 4, 76, 127
2, 60143, Note_on_c, 0, 72, 127
2, 60143, Note_on_c, 8, 44, 127
2, 60260, Note_on_c, 3, 75, 127
2, 60292, Note_off_c, 0, 72, 127
2, 60358, Note_off_c, 3, 75, 127
2, 60362, Note_on_c, 6, 78, 127
2, 60460, Note_off_c, 6, 78, 127
2, 60465, Note_on_c, 3, 75, 127
2, 60563, Note_off_c, 3, 75, 127
2, 60567, Note_on_c, 0, 72, 127
2, 60665, Note_off_c, 0, 72, 127
2, 60668, Note_on_c, 8, 68, 127
2, 60766, Note_off_c, 8, 68, 127
2, 60771, Note_on_c, 6, 66, 127
2, 60869, Note_off_c, 6, 66, 127
2, 60873, Note_on_c, 3, 63, 127
2, 60971, Note_off_c, 3, 63, 127
2, 60976, Note_on_c, 0, 60, 127
2, 61074, Note_off_c, 0, 60, 127
2, 61078, Note_on_c, 8, 56, 127
2, 61176, Note_off_c, 8, 56, 127
2, 61180, Note_on_c, 0, 60, 127
2, 61278, Note_off_c, 0, 60, 127
2, 61282, Note_on_c, 3, 63, 127
2, 61380, Note_off_c, 3, 63, 127
2, 61385, Note_on_c, 8, 56, 127
2, 61385, Note_on_c, 5, 65, 127
2, 61501, Note_on_c, 8, 68, 127
2, 61524, Note_off_c, 5, 65, 127
2, 61599, Note_off_c, 8, 68, 127
2, 61603, Note_on_c, 1, 73, 127
2, 61701, Note_off_c, 1, 73, 127
2, 61705, Note_on_c, 8, 68, 127
2, 61770, Note_off_c, 8, 44, 127
2, 61803, Note_off_c, 8, 68, 127
2, 61807, Note_on_c, 5, 65, 127
2, 61905, Note_off_c, 5, 65, 127
2, 61910, Note_on_c, 1, 61, 127
2, 61995, Note_off_c, 8, 56, 127
2, 62008, Note_off_c, 1, 61, 127
2, 62012, Note_on_c, 11, 58, 127
2, 62110, Note_off_c, 11, 58, 127
2, 62115, Note_on_c, 7, 55, 127
2, 62213, Note_off_c, 7, 55, 127
2, 62216, Note_on_c, 4, 52, 127
2, 62314, Note_off_c, 4, 52, 127
2, 62318, Note_on_c, 1, 49, 127
2, 62416, Note_off_c, 1, 49, 127
2, 62421, Note_on_c, 4, 52, 127
2, 62519, Note_off_c, 4, 52, 127
2, 62523, Note_on_c, 7, 55, 127
2, 62621, Note_off_c, 7, 55, 127
2, 62641, Note_on_c, 8, 44, 127
2, 62690, Note_off_c, 8, 44, 127
2, 62692, Note_on_c, 7, 43, 127
2, 62741, Note_off_c, 7, 43, 127
2, 62743, Note_on_c, 8, 44, 127
2, 63050, Note_on_c, 8, 56, 127
2, 63050, Note_on_c, 5, 53, 127
2, 63050, Note_on_c, 1, 49, 127
2, 63050, Note_on_c, 1, 73, 127
2, 63050, Note_on_c, 8, 68, 127
2, 63050, Note_on_c, 5, 65, 127
2, 63050, Note_on_c, 1, 61, 127
2, 63347, Note_off_c, 1, 61, 127
2, 63347, Note_off_c, 5, 65, 127
2, 63347, Note_off_c, 8, 68, 127
2, 63347, Note_off_c, 1, 73, 127
2, 63347, Note_off_c, 1, 49, 127
2, 63347, Note_off_c, 5, 53, 127
2, 63347, Note_off_c, 8, 56, 127
2, 63457, Note_on_c, 8, 56, 127
2, 63457, Note_on_c, 6, 54, 127
2, 63457, Note_on_c, 3, 51, 127
2, 63457, Note_on_c, 0, 72, 127
2, 63457, Note_on_c, 8, 68, 127
2, 63457, Note_on_c, 3, 63, 127
2, 63754, Note_off_c, 3, 63, 127
2, 63754, Note_off_c, 8, 68, 127
2, 63754, Note_off_c, 0, 72, 127
2, 63754, Note_off_c, 3, 51, 127
2, 63754, Note_off_c, 6, 54, 127
2, 63754, Note_off_c, 8, 56, 127
2, 63860, Note_off_c, 8, 44, 127
2, 63866, Note_on_c, 8, 56, 127
2, 63866, Note_on_c, 5, 53, 127
2, 63866, Note_on_c, 1, 49, 127
2, 63866, Note_on_c, 1, 73, 127
2, 63866, Note_on_c, 8, 68, 127
2, 63866, Note_on_c, 5, 65, 127
2, 63866, Note_on_c, 1, 61, 127
2, 65493, Note_off_c, 1, 61, 127
2, 65493, Note_off_c, 5, 65, 127
2, 65493, Note_off_c, 8, 68, 127
2, 65493, Note_off_c, 1, 73, 127
2, 65493, Note_off_c, 1, 49, 127
2, 65493, Note_off_c, 5, 53, 127
2, 65493, Note_off_c, 8, 56, 127
2, 66708, Note_on_c, 8, 68, 127
2, 67008, Note_off_c, 8, 68, 127
2, 67013, Note_on_c, 11, 70, 127
2, 67161, Note_off_c, 11, 70, 127
2, 67165, Note_on_c, 8, 68, 127
2, 67313, Note_off_c, 8, 68, 127
2, 67317, Note_on_c, 6, 66, 127
2, 67465, Note_off_c, 6, 66, 127
2, 67469, Note_on_c, 8, 68, 127
2, 67617, Note_off_c, 8, 68, 127
2, 67621, Note_on_c, 5, 77, 127
2, 67889, Note_off_c, 5, 77, 127
2, 67925, Note_on_c, 1, 73, 127
2, 68193, Note_off_c, 1, 73, 127
2, 68229, Note_on_c, 8, 68, 127
2, 68529, Note_off_c, 8, 68, 127
2, 68534, Note_on_c, 6, 66, 127
2, 68682, Note_off_c, 6, 66, 127
2, 68686, Note_on_c, 5, 65, 127
2, 68834, Note_off_c, 5, 65, 127
2, 68838, Note_on_c, 6, 66, 127
2, 69138, Note_off_c, 6, 66, 127
2, 69144, Note_on_c, 3, 75, 127
2, 69444, Note_off_c, 3, 75, 127
2, 69449, Note_on_c, 5, 65, 127
2, 69749, Note_off_c, 5, 65, 127
2, 69753, Note_on_c, 1, 73, 127
2, 70053, Note_off_c, 1, 73, 127
2, 70058, Note_on_c, 3, 63, 127
2, 70358, Note_off_c, 3, 63, 127
2, 70363, Note_on_c, 0, 72, 127
2, 70663, Note_off_c, 0, 72, 127
2, 70669, Note_on_c, 1, 61, 127
2, 70973, Note_on_c, 1, 73, 127
2, 71121, Note_off_c, 1, 73, 127
2, 71125, Note_on_c, 0, 72, 127
2, 71270, Note_off_c, 1, 61, 127
2, 71274, Note_off_c, 0, 72, 127
2, 71278, Note_on_c, 1, 73, 127
2, 71426, Note_off_c, 1, 73, 127
2, 71430, Note_on_c, 3, 75, 127
2, 71578, Note_off_c, 3, 75, 127
2, 71582, Note_on_c, 5, 77, 127
2, 71582, Note_on_c, 1, 61, 127
2, 71730, Note_off_c, 5, 77, 127
2, 71734, Note_on_c, 6, 78, 127
2, 71882, Note_off_c, 6, 78, 127
2, 71882, Note_off_c, 1, 61, 127
2, 71886, Note_on_c, 8, 80, 127
2, 71886, Note_on_c, 5, 65, 127
2, 72034, Note_off_c, 5, 65, 127
2, 72034, Note_off_c, 8, 80, 127
2, 72038, Note_on_c, 7, 79, 127
2, 72038, Note_on_c, 3, 63, 127
2, 72186, Note_off_c, 3, 63, 127
2, 72186, Note_off_c, 7, 79, 127
2, 72190, Note_on_c, 5, 77, 127
2, 72190, Note_on_c, 1, 61, 127
2, 72338, Note_off_c, 1, 61, 127
2, 72338, Note_off_c, 5, 77, 127
2, 72342, Note_on_c, 7, 79, 127
2, 72342, Note_on_c, 3, 63, 127
2, 72490, Note_off_c, 3, 63, 127
2, 72490, Note_off_c, 7, 79, 127
2, 72494, Note_on_c, 8, 80, 127
2, 72494, Note_on_c, 0, 72, 127
2, 72642, Note_off_c, 8, 80, 127
2, 72646, Note_on_c, 6, 78, 127
2, 72762, Note_off_c, 0, 72, 127
2, 72794, Note_off_c, 6, 78, 127
2, 72798, Note_on_c, 5, 77, 127
2, 72798, Note_on_c, 8, 68, 127
2, 72946, Note_off_c, 5, 77, 127
2, 72950, Note_on_c, 3, 75, 127
2, 73066, Note_off_c, 8, 68, 127
2, 73098, Note_off_c, 3, 75, 127
2, 73101, Note_on_c, 5, 77, 127
2, 73101, Note_on_c, 3, 63, 127
2, 73249, Note_off_c, 5, 77, 127
2, 73253, Note_on_c, 3, 75, 127
2, 73401, Note_off_c, 3, 75, 127
2, 73401, Note_off_c, 3, 63, 127
2, 73406, Note_on_c, 5, 77, 127
2, 73406, Note_on_c, 1, 61, 127
2, 73554, Note_off_c, 1, 61, 127
2, 73558, Note_on_c, 0, 60, 127
2, 73706, Note_off_c, 0, 60, 127
2, 73710, Note_on_c, 1, 61, 127
2, 73857, Note_off_c, 5, 77, 127
2, 73862, Note_on_c, 3, 75, 127
2, 74010, Note_off_c, 3, 75, 127
2, 74010, Note_off_c, 1, 61, 127
2, 74014, Note_on_c, 1, 73, 127
2, 74014, Note_on_c, 11, 70, 127
2, 74162, Note_off_c, 1, 73, 127
2, 74166, Note_on_c, 5, 77, 127
2, 74314, Note_off_c, 5, 77, 127
2, 74314, Note_off_c, 11, 70, 127
2, 74318, Note_on_c, 3, 75, 127
2, 74318, Note_on_c, 0, 60, 127
2, 74466, Note_off_c, 3, 75, 127
2, 74470, Note_on_c, 1, 73, 127
2, 74618, Note_off_c, 1, 73, 127
2, 74618, Note_off_c, 0, 60, 127
2, 74622, Note_on_c, 0, 72, 127
2, 74622, Note_on_c, 8, 68, 127
2, 74770, Note_off_c, 0, 72, 127
2, 74774, Note_on_c, 3, 75, 127
2, 74922, Note_off_c, 3, 75, 127
2, 74922, Note_off_c, 8, 68, 127
2, 74926, Note_on_c, 1, 73, 127
2, 74926, Note_on_c, 11, 58, 127
2, 75074, Note_off_c, 1, 73, 127
2, 75078, Note_on_c, 0, 72, 127
2, 75226, Note_off_c, 0, 72, 127
2, 75226, Note_off_c, 11, 58, 127
2, 75230, Note_on_c, 1, 73, 127
2, 75230, Note_on_c, 7, 67, 127
2, 75378, Note_off_c, 1, 73, 127
2, 75382, Note_on_c, 11, 70, 127
2, 75530, Note_off_c, 11, 70, 127
2, 75530, Note_off_c, 7, 67, 127
2, 75534, Note_on_c, 11, 70, 127
2, 75534, Note_on_c, 8, 56, 127
2, 75682, Note_off_c, 11, 70, 127
2, 75686, Note_on_c, 0, 72, 127
2, 75834, Note_off_c, 0, 72, 127
2, 75838, Note_on_c, 3, 75, 127
2, 75838, Note_on_c, 8, 68, 127
2, 75986, Note_off_c, 8, 68, 127
2, 75990, Note_on_c, 7, 67, 127
2, 76135, Note_off_c, 8, 56, 127
2, 76138, Note_off_c, 3, 75, 127
2, 76139, Note_off_c, 7, 67, 127
2, 76143, Note_on_c, 6, 78, 127
2, 76143, Note_on_c, 8, 68, 127
2, 76291, Note_off_c, 8, 68, 127
2, 76295, Note_on_c, 11, 70, 127
2, 76443, Note_off_c, 11, 70, 127
2, 76447, Note_on_c, 0, 72, 127
2, 76447, Note_on_c, 8, 56, 127
2, 76595, Note_off_c, 0, 72, 127
2, 76600, Note_on_c, 8, 68, 127
2, 76747, Note_off_c, 8, 56, 127
2, 76748, Note_off_c, 8, 68, 127
2, 76751, Note_on_c, 1, 73, 127
2, 76751, Note_on_c, 11, 58, 127
2, 76899, Note_off_c, 11, 58, 127
2, 76899, Note_off_c, 1, 73, 127
2, 76903, Note_on_c, 0, 72, 127
2, 76903, Note_on_c, 8, 56, 127
2, 77051, Note_off_c, 8, 56, 127
2, 77051, Note_off_c, 0, 72, 127
2, 77055, Note_on_c, 11, 70, 127
2, 77055, Note_on_c, 6, 54, 127
2, 77203, Note_off_c, 6, 54, 127
2, 77203, Note_off_c, 11, 70, 127
2, 77207, Note_on_c, 0, 72, 127
2, 77207, Note_on_c, 8, 56, 127
2, 77354, Note_off_c, 6, 78, 127
2, 77355, Note_off_c, 8, 56, 127
2, 77355, Note_off_c, 0, 72, 127
2, 77359, Note_on_c, 5, 77, 127
2, 77359, Note_on_c, 1, 73, 127
2, 77359, Note_on_c, 5, 65, 127
2, 77507, Note_off_c, 1, 73, 127
2, 77511, Note_on_c, 0, 72, 127
2, 77611, Note_off_c, 5, 65, 127
2, 77660, Note_off_c, 0, 72, 127
2, 77664, Note_on_c, 11, 70, 127
2, 77664, Note_on_c, 1, 61, 127
2, 77812, Note_off_c, 11, 70, 127
2, 77816, Note_on_c, 8, 68, 127
2, 77916, Note_off_c, 1, 61, 127
2, 77965, Note_off_c, 8, 68, 127
2, 77969, Note_on_c, 11, 70, 127
2, 77969, Note_on_c, 8, 56, 127
2, 78117, Note_off_c, 11, 70, 127
2, 78121, Note_on_c, 8, 68, 127
2, 78269, Note_off_c, 8, 68, 127
2, 78269, Note_off_c, 8, 56, 127
2, 78273, Note_on_c, 11, 70, 127
2, 78273, Note_on_c, 6, 54, 127
2, 78421, Note_off_c, 6, 54, 127
2, 78425, Note_on_c, 5, 53, 127
2, 78573, Note_off_c, 5, 53, 127
2, 78573, Note_off_c, 5, 77, 127
2, 78577, Note_on_c, 3, 75, 127
2, 78577, Note_on_c, 6, 54, 127
2, 78724, Note_off_c, 11, 70, 127
2, 78729, Note_on_c, 8, 68, 127
2, 78877, Note_off_c, 8, 68, 127
2, 78877, Note_off_c, 6, 54, 127
2, 78881, Note_on_c, 6, 66, 127
2, 78881, Note_on_c, 3, 63, 127
2, 79029, Note_off_c, 6, 66, 127
2, 79033, Note_on_c, 11, 70, 127
2, 79181, Note_off_c, 11, 70, 127
2, 79181, Note_off_c, 3, 63, 127
2, 79185, Note_on_c, 8, 68, 127
2, 79185, Note_on_c, 5, 53, 127
2, 79333, Note_off_c, 8, 68, 127
2, 79338, Note_on_c, 6, 66, 127
2, 79484, Note_off_c, 3, 75, 127
2, 79485, Note_off_c, 5, 53, 127
2, 79486, Note_off_c, 6, 66, 127
2, 79490, Note_on_c, 1, 73, 127
2, 79490, Note_on_c, 5, 65, 127
2, 79490, Note_on_c, 1, 61, 127
2, 79638, Note_off_c, 5, 65, 127
2, 79642, Note_on_c, 8, 68, 127
2, 79790, Note_off_c, 8, 68, 127
2, 79790, Note_off_c, 1, 61, 127
2, 79790, Note_off_c, 1, 73, 127
2, 79794, Note_on_c, 0, 72, 127
2, 79794, Note_on_c, 6, 66, 127
2, 79794, Note_on_c, 3, 51, 127
2, 79942, Note_off_c, 6, 66, 127
2, 79946, Note_on_c, 5, 65, 127
2, 80094, Note_off_c, 5, 65, 127
2, 80094, Note_off_c, 3, 51, 127
2, 80094, Note_off_c, 0, 72, 127
2, 80098, Note_on_c, 3, 75, 127
2, 80098, Note_on_c, 6, 66, 127
2, 80098, Note_on_c, 0, 60, 127
2, 80246, Note_off_c, 6, 66, 127
2, 80250, Note_on_c, 3, 63, 127
2, 80398, Note_off_c, 3, 63, 127
2, 80398, Note_off_c, 0, 60, 127
2, 80401, Note_on_c, 5, 65, 127
2, 80401, Note_on_c, 1, 49, 127
2, 80701, Note_off_c, 1, 49, 127
2, 80702, Note_off_c, 3, 75, 127
2, 80706, Note_on_c, 8, 68, 127
2, 80706, Note_on_c, 1, 61, 127
2, 80854, Note_off_c, 1, 61, 127
2, 80858, Note_on_c, 0, 60, 127
2, 81006, Note_off_c, 0, 60, 127
2, 81006, Note_off_c, 8, 68, 127
2, 81010, Note_on_c, 5, 77, 127
2, 81010, Note_on_c, 1, 61, 127
2, 81158, Note_off_c, 1, 61, 127
2, 81162, Note_on_c, 3, 63, 127
2, 81309, Note_off_c, 5, 65, 127
2, 81310, Note_off_c, 3, 63, 127
2, 81314, Note_on_c, 8, 68, 127
2, 81314, Note_on_c, 5, 65, 127
2, 81462, Note_off_c, 5, 65, 127
2, 81466, Note_on_c, 1, 61, 127
2, 81614, Note_off_c, 1, 61, 127
2, 81614, Note_off_c, 8, 68, 127
2, 81618, Note_on_c, 1, 73, 127
2, 81618, Note_on_c, 11, 58, 127
2, 81766, Note_off_c, 11, 58, 127
2, 81770, Note_on_c, 0, 60, 127
2, 81917, Note_off_c, 5, 77, 127
2, 81918, Note_off_c, 0, 60, 127
2, 81922, Note_on_c, 5, 77, 127
2, 81922, Note_on_c, 1, 61, 127
2, 82069, Note_off_c, 1, 73, 127
2, 82070, Note_off_c, 1, 61, 127
2, 82070, Note_off_c, 5, 77, 127
2, 82074, Note_on_c, 1, 73, 127
2, 82074, Note_on_c, 11, 58, 127
2, 82222, Note_off_c, 11, 58, 127
2, 82226, Note_on_c, 11, 70, 127
2, 82226, Note_on_c, 7, 55, 127
2, 82374, Note_off_c, 7, 55, 127
2, 82378, Note_on_c, 8, 56, 127
2, 82525, Note_off_c, 1, 73, 127
2, 82526, Note_off_c, 8, 56, 127
2, 82530, Note_on_c, 1, 73, 127
2, 82530, Note_on_c, 11, 58, 127
2, 82677, Note_off_c, 11, 70, 127
2, 82678, Note_off_c, 11, 58, 127
2, 82678, Note_off_c, 1, 73, 127
2, 82683, Note_on_c, 11, 70, 127
2, 82683, Note_on_c, 7, 55, 127
2, 82831, Note_off_c, 7, 55, 127
2, 82835, Note_on_c, 3, 63, 127
2, 82835, Note_on_c, 0, 48, 127
2, 83135, Note_off_c, 0, 48, 127
2, 83135, Note_off_c, 11, 70, 127
2, 83140, Note_on_c, 11, 70, 127
2, 83140, Note_on_c, 0, 60, 127
2, 83288, Note_off_c, 0, 60, 127
2, 83292, Note_on_c, 11, 58, 127
2, 83440, Note_off_c, 11, 58, 127
2, 83440, Note_off_c, 11, 70, 127
2, 83444, Note_on_c, 3, 75, 127
2, 83444, Note_on_c, 0, 60, 127
2, 83592, Note_off_c, 0, 60, 127
2, 83596, Note_on_c, 1, 61, 127
2, 83743, Note_off_c, 3, 63, 127
2, 83744, Note_off_c, 1, 61, 127
2, 83748, Note_on_c, 7, 67, 127
2, 83748, Note_on_c, 3, 63, 127
2, 83896, Note_off_c, 3, 63, 127
2, 83900, Note_on_c, 0, 60, 127
2, 84048, Note_off_c, 0, 60, 127
2, 84048, Note_off_c, 7, 67, 127
2, 84051, Note_on_c, 0, 72, 127
2, 84051, Note_on_c, 8, 56, 127
2, 84199, Note_off_c, 8, 56, 127
2, 84203, Note_on_c, 11, 58, 127
2, 84351, Note_off_c, 11, 58, 127
2, 84351, Note_off_c, 3, 75, 127
2, 84355, Note_on_c, 3, 75, 127
2, 84355, Note_on_c, 0, 60, 127
2, 84502, Note_off_c, 0, 72, 127
2, 84503, Note_off_c, 0, 60, 127
2, 84503, Note_off_c, 3, 75, 127
2, 84507, Note_on_c, 0, 72, 127
2, 84507, Note_on_c, 8, 56, 127
2, 84655, Note_off_c, 8, 56, 127
2, 84659, Note_on_c, 8, 68, 127
2, 84659, Note_on_c, 5, 53, 127
2, 84807, Note_off_c, 5, 53, 127
2, 84811, Note_on_c, 7, 55, 127
2, 84958, Note_off_c, 0, 72, 127
2, 84959, Note_off_c, 7, 55, 127
2, 84963, Note_on_c, 0, 72, 127
2, 84963, Note_on_c, 8, 56, 127
2, 85110, Note_off_c, 8, 68, 127
2, 85111, Note_off_c, 8, 56, 127
2, 85111, Note_off_c, 0, 72, 127
2, 85115, Note_on_c, 8, 68, 127
2, 85115, Note_on_c, 5, 53, 127
2, 85263, Note_off_c, 5, 53, 127
2, 85267, Note_on_c, 1, 61, 127
2, 85267, Note_on_c, 11, 46, 127
2, 85304, Note_off_c, 8, 68, 127
2, 85567, Note_off_c, 11, 46, 127
2, 85573, Note_on_c, 8, 68, 127
2, 85573, Note_on_c, 11, 58, 127
2, 85721, Note_off_c, 11, 58, 127
2, 85725, Note_on_c, 8, 56, 127
2, 85873, Note_off_c, 8, 56, 127
2, 85873, Note_off_c, 8, 68, 127
2, 85877, Note_on_c, 1, 73, 127
2, 85877, Note_on_c, 11, 58, 127
2, 86025, Note_off_c, 11, 58, 127
2, 86029, Note_on_c, 0, 60, 127
2, 86175, Note_off_c, 1, 61, 127
2, 86177, Note_off_c, 0, 60, 127
2, 86181, Note_on_c, 5, 65, 127
2, 86181, Note_on_c, 1, 61, 127
2, 86329, Note_off_c, 1, 61, 127
2, 86333, Note_on_c, 11, 58, 127
2, 86481, Note_off_c, 11, 58, 127
2, 86481, Note_off_c, 5, 65, 127
2, 86485, Note_on_c, 11, 70, 127
2, 86485, Note_on_c, 7, 55, 127
2, 86632, Note_off_c, 1, 73, 127
2, 86633, Note_off_c, 7, 55, 127
2, 86637, Note_on_c, 0, 72, 127
2, 86637, Note_on_c, 8, 56, 127
2, 86785, Note_off_c, 8, 56, 127
2, 86785, Note_off_c, 0, 72, 127
2, 86789, Note_on_c, 1, 73, 127
2, 86789, Note_on_c, 11, 58, 127
2, 86936, Note_off_c, 11, 70, 127
2, 86937, Note_off_c, 11, 58, 127
2, 86937, Note_off_c, 1, 73, 127
2, 86941, Note_on_c, 11, 70, 127
2, 86941, Note_on_c, 7, 55, 127
2, 87089, Note_off_c, 7, 55, 127
2, 87093, Note_on_c, 11, 82, 127
2, 87093, Note_on_c, 3, 51, 127
2, 87241, Note_off_c, 3, 51, 127
2, 87241, Note_off_c, 11, 70, 127
2, 87245, Note_on_c, 1, 73, 127
2, 87245, Note_on_c, 5, 53, 127
2, 87393, Note_off_c, 5, 53, 127
2, 87393, Note_off_c, 1, 73, 127
2, 87397, Note_on_c, 3, 75, 127
2, 87397, Note_on_c, 7, 55, 127
2, 87545, Note_off_c, 7, 55, 127
2, 87545, Note_off_c, 3, 75, 127
2, 87549, Note_on_c, 11, 70, 127
2, 87549, Note_on_c, 3, 51, 127
2, 87697, Note_off_c, 3, 51, 127
2, 87697, Note_off_c, 11, 70, 127
2, 87700, Note_on_c, 0, 72, 127
2, 87700, Note_on_c, 8, 44, 127
2, 87848, Note_off_c, 11, 82, 127
2, 87852, Note_on_c, 8, 80, 127
2, 88000, Note_off_c, 8, 80, 127
2, 88000, Note_off_c, 8, 44, 127
2, 88004, Note_on_c, 7, 79, 127
2, 88004, Note_on_c, 8, 56, 127
2, 88152, Note_off_c, 8, 56, 127
2, 88152, Note_off_c, 7, 79, 127
2, 88156, Note_on_c, 11, 82, 127
2, 88156, Note_on_c, 11, 58, 127
2, 88301, Note_off_c, 0, 72, 127
2, 88305, Note_off_c, 11, 58, 127
2, 88305, Note_off_c, 11, 82, 127
2, 88309, Note_on_c, 8, 80, 127
2, 88309, Note_on_c, 0, 60, 127
2, 88457, Note_off_c, 8, 80, 127
2, 88461, Note_on_c, 3, 75, 127
2, 88609, Note_off_c, 3, 75, 127
2, 88609, Note_off_c, 0, 60, 127
2, 88614, Note_on_c, 5, 77, 127
2, 88614, Note_on_c, 8, 68, 127
2, 88614, Note_on_c, 8, 56, 127
2, 88762, Note_off_c, 5, 77, 127
2, 88766, Note_on_c, 6, 78, 127
2, 88914, Note_off_c, 6, 78, 127
2, 88914, Note_off_c, 8, 56, 127
2, 88918, Note_on_c, 5, 77, 127
2, 88918, Note_on_c, 1, 61, 127
2, 89065, Note_off_c, 8, 68, 127
2, 89066, Note_off_c, 5, 77, 127
2, 89070, Note_on_c, 3, 75, 127
2, 89070, Note_on_c, 7, 67, 127
2, 89218, Note_off_c, 7, 67, 127
2, 89218, Note_off_c, 3, 75, 127
2, 89222, Note_on_c, 1, 73, 127
2, 89222, Note_on_c, 5, 65, 127
2, 89370, Note_off_c, 5, 65, 127
2, 89370, Note_off_c, 1, 73, 127
2, 89374, Note_on_c, 3, 75, 127
2, 89374, Note_on_c, 7, 67, 127
2, 89521, Note_off_c, 1, 61, 127
2, 89522, Note_off_c, 7, 67, 127
2, 89522, Note_off_c, 3, 75, 127
2, 89526, Note_on_c, 0, 84, 127
2, 89526, Note_on_c, 8, 68, 127
2, 89526, Note_on_c, 0, 60, 127
2, 89674, Note_off_c, 8, 68, 127
2, 89678, Note_on_c, 6, 66, 127
2, 89826, Note_off_c, 6, 66, 127
2, 89826, Note_off_c, 0, 84, 127
2, 89830, Note_on_c, 8, 80, 127
2, 89830, Note_on_c, 5, 65, 127
2, 89978, Note_off_c, 5, 65, 127
2, 89982, Note_on_c, 3, 63, 127
2, 90129, Note_off_c, 0, 60, 127
2, 90130, Note_off_c, 3, 63, 127
2, 90130, Note_off_c, 8, 80, 127
2, 90134, Note_on_c, 3, 75, 127
2, 90134, Note_on_c, 5, 65, 127
2, 90134, Note_on_c, 11, 58, 127
2, 90282, Note_off_c, 5, 65, 127
2, 90286, Note_on_c, 3, 63, 127
2, 90434, Note_off_c, 3, 63, 127
2, 90434, Note_off_c, 11, 58, 127
2, 90434, Note_off_c, 3, 75, 127
2, 90438, Note_on_c, 1, 73, 127
2, 90438, Note_on_c, 5, 65, 127
2, 90438, Note_on_c, 8, 56, 127
2, 90586, Note_off_c, 1, 73, 127
2, 90590, Note_on_c, 0, 72, 127
2, 90738, Note_off_c, 0, 72, 127
2, 90738, Note_off_c, 8, 56, 127
2, 90742, Note_on_c, 1, 73, 127
2, 90742, Note_on_c, 7, 55, 127
2, 90889, Note_off_c, 5, 65, 127
2, 90894, Note_on_c, 3, 63, 127
2, 91042, Note_off_c, 3, 63, 127
2, 91042, Note_off_c, 1, 73, 127
2, 91046, Note_on_c, 11, 82, 127
2, 91046, Note_on_c, 1, 61, 127
2, 91194, Note_off_c, 1, 61, 127
2, 91198, Note_on_c, 5, 65, 127
2, 91345, Note_off_c, 7, 55, 127
2, 91346, Note_off_c, 5, 65, 127
2, 91346, Note_off_c, 11, 82, 127
2, 91350, Note_on_c, 0, 72, 127
2, 91350, Note_on_c, 3, 63, 127
2, 91350, Note_on_c, 8, 56, 127
2, 91498, Note_off_c, 3, 63, 127
2, 91501, Note_on_c, 1, 61, 127
2, 91649, Note_off_c, 1, 61, 127
2, 91650, Note_off_c, 0, 72, 127
2, 91653, Note_on_c, 8, 80, 127
2, 91653, Note_on_c, 0, 60, 127
2, 91801, Note_off_c, 0, 60, 127
2, 91805, Note_on_c, 3, 63, 127
2, 91953, Note_off_c, 3, 63, 127
2, 91953, Note_off_c, 8, 80, 127
2, 91953, Note_off_c, 8, 56, 127
2, 91957, Note_on_c, 11, 70, 127
2, 91957, Note_on_c, 1, 61, 127
2, 91957, Note_on_c, 3, 51, 127
2, 92105, Note_off_c, 1, 61, 127
2, 92109, Note_on_c, 0, 60, 127
2, 92257, Note_off_c, 0, 60, 127
2, 92257, Note_off_c, 11, 70, 127
2, 92261, Note_on_c, 7, 79, 127
2, 92261, Note_on_c, 1, 61, 127
2, 92409, Note_off_c, 1, 61, 127
2, 92414, Note_on_c, 11, 58, 127
2, 92560, Note_off_c, 3, 51, 127
2, 92561, Note_off_c, 7, 79, 127
2, 92562, Note_off_c, 11, 58, 127
2, 92566, Note_on_c, 8, 68, 127
2, 92566, Note_on_c, 0, 60, 127
2, 92566, Note_on_c, 8, 56, 127
2, 92714, Note_off_c, 8, 68, 127
2, 92718, Note_on_c, 11, 70, 127
2, 92866, Note_off_c, 11, 70, 127
2, 92866, Note_off_c, 0, 60, 127
2, 92870, Note_on_c, 0, 72, 127
2, 92870, Note_on_c, 3, 63, 127
2, 93018, Note_off_c, 0, 72, 127
2, 93022, Note_on_c, 1, 73, 127
2, 93170, Note_off_c, 1, 73, 127
2, 93170, Note_off_c, 3, 63, 127
2, 93174, Note_on_c, 0, 72, 127
2, 93174, Note_on_c, 8, 68, 127
2, 93322, Note_off_c, 0, 72, 127
2, 93326, Note_on_c, 11, 70, 127
2, 93473, Note_off_c, 8, 56, 127
2, 93474, Note_off_c, 11, 70, 127
2, 93474, Note_off_c, 8, 68, 127
2, 93478, Note_on_c, 8, 68, 127
2, 93478, Note_on_c, 3, 63, 127
2, 93626, Note_off_c, 3, 63, 127
2, 93626, Note_off_c, 8, 68, 127
2, 93630, Note_on_c, 0, 72, 127
2, 93630, Note_on_c, 0, 60, 127
2, 93778, Note_off_c, 0, 60, 127
2, 93778, Note_off_c, 0, 72, 127
2, 93782, Note_on_c, 5, 77, 127
2, 93782, Note_on_c, 8, 56, 127
2, 93930, Note_off_c, 5, 77, 127
2, 93934, Note_on_c, 3, 75, 127
2, 94082, Note_off_c, 3, 75, 127
2, 94082, Note_off_c, 8, 56, 127
2, 94086, Note_on_c, 2, 74, 127
2, 94086, Note_on_c, 12, 59, 127
2, 94234, Note_off_c, 12, 59, 127
2, 94234, Note_off_c, 2, 74, 127
2, 94238, Note_on_c, 5, 77, 127
2, 94238, Note_on_c, 8, 56, 127
2, 94386, Note_off_c, 8, 56, 127
2, 94386, Note_off_c, 5, 77, 127
2, 94390, Note_on_c, 8, 80, 127
2, 94390, Note_on_c, 5, 53, 127
2, 94538, Note_off_c, 8, 80, 127
2, 94542, Note_on_c, 6, 78, 127
2, 94690, Note_off_c, 6, 78, 127
2, 94690, Note_off_c, 5, 53, 127
2, 94694, Note_on_c, 5, 77, 127
2, 94694, Note_on_c, 8, 56, 127
2, 94842, Note_off_c, 8, 56, 127
2, 94842, Note_off_c, 5, 77, 127
2, 94846, Note_on_c, 8, 80, 127
2, 94846, Note_on_c, 5, 53, 127
2, 94994, Note_off_c, 5, 53, 127
2, 94994, Note_off_c, 8, 80, 127
2, 94998, Note_on_c, 8, 80, 127
2, 94998, Note_on_c, 2, 50, 127
2, 95070, Note_off_c, 8, 80, 127
2, 95074, Note_on_c, 11, 82, 127
2, 95146, Note_off_c, 11, 82, 127
2, 95150, Note_on_c, 12, 83, 127
2, 95298, Note_off_c, 12, 83, 127
2, 95298, Note_off_c, 2, 50, 127
2, 95301, Note_on_c, 11, 82, 127
2, 95301, Note_on_c, 5, 53, 127
2, 95449, Note_off_c, 5, 53, 127
2, 95449, Note_off_c, 11, 82, 127
2, 95453, Note_on_c, 8, 80, 127
2, 95453, Note_on_c, 8, 56, 127
2, 95601, Note_off_c, 8, 56, 127
2, 95601, Note_off_c, 8, 80, 127
2, 95605, Note_on_c, 6, 78, 127
2, 95605, Note_on_c, 12, 59, 127
2, 95753, Note_off_c, 6, 78, 127
2, 95757, Note_on_c, 5, 77, 127
2, 95905, Note_off_c, 5, 77, 127
2, 95909, Note_on_c, 3, 75, 127
2, 95909, Note_on_c, 5, 53, 127
2, 96057, Note_off_c, 3, 75, 127
2, 96061, Note_on_c, 2, 74, 127
2, 96206, Note_off_c, 12, 59, 127
2, 96209, Note_off_c, 5, 53, 127
2, 96210, Note_off_c, 2, 74, 127
2, 96215, Note_on_c, 3, 75, 127
2, 96215, Note_on_c, 11, 58, 127
2, 96215, Note_on_c, 6, 54, 127
2, 96363, Note_off_c, 3, 75, 127
2, 96367, Note_on_c, 6, 78, 127
2, 96515, Note_off_c, 6, 78, 127
2, 96515, Note_off_c, 6, 54, 127
2, 96515, Note_off_c, 11, 58, 127
2, 96519, Note_on_c, 5, 77, 127
2, 96519, Note_on_c, 8, 56, 127
2, 96519, Note_on_c, 12, 59, 127
2, 96667, Note_off_c, 5, 77, 127
2, 96671, Note_on_c, 3, 75, 127
2, 96819, Note_off_c, 3, 75, 127
2, 96819, Note_off_c, 12, 59, 127
2, 96819, Note_off_c, 8, 56, 127
2, 96823, Note_on_c, 2, 74, 127
2, 96823, Note_on_c, 11, 58, 127
2, 96971, Note_off_c, 2, 74, 127
2, 96975, Note_on_c, 5, 77, 127
2, 97123, Note_off_c, 5, 77, 127
2, 97123, Note_off_c, 11, 58, 127
2, 97127, Note_on_c, 11, 70, 127
2, 97127, Note_on_c, 2, 50, 127
2, 97127, Note_on_c, 11, 46, 127
2, 97275, Note_off_c, 11, 70, 127
2, 97279, Note_on_c, 8, 68, 127
2, 97427, Note_off_c, 8, 68, 127
2, 97427, Note_off_c, 11, 46, 127
2, 97427, Note_off_c, 2, 50, 127
2, 97431, Note_on_c, 6, 66, 127
2, 97431, Note_on_c, 3, 39, 127
2, 97431, Note_on_c, 3, 51, 127
2, 97579, Note_off_c, 6, 66, 127
2, 97583, Note_on_c, 5, 65, 127
2, 97731, Note_off_c, 5, 65, 127
2, 97735, Note_on_c, 3, 63, 127
2, 97883, Note_off_c, 3, 63, 127
2, 97887, Note_on_c, 2, 62, 127
2, 98035, Note_off_c, 2, 62, 127
2, 98039, Note_on_c, 3, 63, 127
2, 98127, Note_off_c, 3, 51, 127
2, 98127, Note_off_c, 3, 39, 127
2, 98187, Note_off_c, 3, 63, 127
2, 98191, Note_on_c, 5, 65, 127
2, 98339, Note_off_c, 5, 65, 127
2, 98343, Note_on_c, 6, 66, 127
2, 98343, Note_on_c, 3, 51, 127
2, 98491, Note_off_c, 6, 66, 127
2, 98495, Note_on_c, 8, 68, 127
2, 98643, Note_off_c, 8, 68, 127
2, 98643, Note_off_c, 3, 51, 127
2, 98647, Note_on_c, 11, 70, 127
2, 98647, Note_on_c, 6, 54, 127
2, 98795, Note_off_c, 6, 54, 127
2, 98795, Note_off_c, 11, 70, 127
2, 98799, Note_on_c, 8, 68, 127
2, 98799, Note_on_c, 5, 53, 127
2, 98947, Note_off_c, 5, 53, 127
2, 98947, Note_off_c, 8, 68, 127
2, 98950, Note_on_c, 6, 66, 127
2, 98950, Note_on_c, 3, 51, 127
2, 99098, Note_off_c, 3, 51, 127
2, 99098, Note_off_c, 6, 66, 127
2, 99102, Note_on_c, 8, 68, 127
2, 99102, Note_on_c, 5, 53, 127
2, 99250, Note_off_c, 5, 53, 127
2, 99250, Note_off_c, 8, 68, 127
2, 99254, Note_on_c, 11, 70, 127
2, 99254, Note_on_c, 1, 61, 127
2, 99402, Note_off_c, 11, 70, 127
2, 99406, Note_on_c, 8, 68, 127
2, 99554, Note_off_c, 8, 68, 127
2, 99554, Note_off_c, 1, 61, 127
2, 99559, Note_on_c, 6, 66, 127
2, 99559, Note_on_c, 11, 58, 127
2, 99707, Note_off_c, 6, 66, 127
2, 99711, Note_on_c, 5, 65, 127
2, 99859, Note_off_c, 5, 65, 127
2, 99859, Note_off_c, 11, 58, 127
2, 99863, Note_on_c, 6, 66, 127
2, 99863, Note_on_c, 5, 53, 127
2, 100011, Note_off_c, 6, 66, 127
2, 100015, Note_on_c, 5, 65, 127
2, 100163, Note_off_c, 5, 65, 127
2, 100163, Note_off_c, 5, 53, 127
2, 100167, Note_on_c, 6, 66, 127
2, 100167, Note_on_c, 3, 51, 127
2, 100315, Note_off_c, 3, 51, 127
2, 100319, Note_on_c, 1, 49, 127
2, 100467, Note_off_c, 1, 49, 127
2, 100471, Note_on_c, 3, 51, 127
2, 100618, Note_off_c, 6, 66, 127
2, 100623, Note_on_c, 5, 65, 127
2, 100771, Note_off_c, 5, 65, 127
2, 100771, Note_off_c, 3, 51, 127
2, 100775, Note_on_c, 3, 63, 127
2, 100775, Note_on_c, 0, 60, 127
2, 100923, Note_off_c, 3, 63, 127
2, 100927, Note_on_c, 6, 66, 127
2, 101075, Note_off_c, 6, 66, 127
2, 101075, Note_off_c, 0, 60, 127
2, 101079, Note_on_c, 5, 65, 127
2, 101079, Note_on_c, 1, 49, 127
2, 101227, Note_off_c, 5, 65, 127
2, 101231, Note_on_c, 3, 63, 127
2, 101379, Note_off_c, 3, 63, 127
2, 101379, Note_off_c, 1, 49, 127
2, 101383, Note_on_c, 1, 61, 127
2, 101383, Note_on_c, 11, 58, 127
2, 101531, Note_off_c, 1, 61, 127
2, 101535, Note_on_c, 5, 65, 127
2, 101683, Note_off_c, 5, 65, 127
2, 101683, Note_off_c, 11, 58, 127
2, 101687, Note_on_c, 3, 63, 127
2, 101687, Note_on_c, 0, 48, 127
2, 101835, Note_off_c, 3, 63, 127
2, 101839, Note_on_c, 1, 61, 127
2, 101987, Note_off_c, 1, 61, 127
2, 101987, Note_off_c, 0, 48, 127
2, 101991, Note_on_c, 3, 63, 127
2, 101991, Note_on_c, 10, 57, 127
2, 102139, Note_off_c, 3, 63, 127
2, 102143, Note_on_c, 0, 60, 127
2, 102291, Note_off_c, 0, 60, 127
2, 102291, Note_off_c, 10, 57, 127
2, 102295, Note_on_c, 1, 61, 127
2, 102295, Note_on_c, 11, 46, 127
2, 102443, Note_off_c, 1, 61, 127
2, 102447, Note_on_c, 5, 65, 127
2, 102595, Note_off_c, 5, 65, 127
2, 102595, Note_off_c, 11, 46, 127
2, 102599, Note_on_c, 6, 66, 127
2, 102599, Note_on_c, 11, 58, 127
2, 102747, Note_off_c, 11, 58, 127
2, 102747, Note_off_c, 6, 66, 127
2, 102750, Note_on_c, 5, 65, 127
2, 102750, Note_on_c, 10, 57, 127
2, 102898, Note_off_c, 10, 57, 127
2, 102898, Note_off_c, 5, 65, 127
2, 102902, Note_on_c, 1, 73, 127
2, 102902, Note_on_c, 11, 58, 127
2, 103050, Note_off_c, 11, 58, 127
2, 103054, Note_on_c, 0, 60, 127
2, 103202, Note_off_c, 0, 60, 127
2, 103206, Note_on_c, 5, 65, 127
2, 103206, Note_on_c, 1, 61, 127
2, 103354, Note_off_c, 1, 61, 127
2, 103359, Note_on_c, 11, 58, 127
2, 103503, Note_off_c, 1, 73, 127
2, 103506, Note_off_c, 5, 65, 127
2, 103508, Note_off_c, 11, 58, 127
2, 103512, Note_on_c, 11, 70, 127
2, 103512, Note_on_c, 7, 55, 127
2, 103660, Note_off_c, 7, 55, 127
2, 103664, Note_on_c, 0, 72, 127
2, 103664, Note_on_c, 8, 56, 127
2, 103812, Note_off_c, 8, 56, 127
2, 103812, Note_off_c, 0, 72, 127
2, 103816, Note_on_c, 1, 73, 127
2, 103816, Note_on_c, 11, 58, 127
2, 103963, Note_off_c, 11, 70, 127
2, 103964, Note_off_c, 11, 58, 127
2, 103964, Note_off_c, 1, 73, 127
2, 103968, Note_on_c, 11, 70, 127
2, 103968, Note_on_c, 7, 55, 127
2, 104116, Note_off_c, 7, 55, 127
2, 104120, Note_on_c, 11, 82, 127
2, 104120, Note_on_c, 3, 51, 127
2, 104268, Note_off_c, 3, 51, 127
2, 104268, Note_off_c, 11, 70, 127
2, 104272, Note_on_c, 1, 73, 127
2, 104272, Note_on_c, 5, 53, 127
2, 104420, Note_off_c, 5, 53, 127
2, 104420, Note_off_c, 1, 73, 127
2, 104424, Note_on_c, 3, 75, 127
2, 104424, Note_on_c, 7, 55, 127
2, 104572, Note_off_c, 7, 55, 127
2, 104572, Note_off_c, 3, 75, 127
2, 104576, Note_on_c, 11, 70, 127
2, 104576, Note_on_c, 3, 51, 127
2, 104724, Note_off_c, 3, 51, 127
2, 104724, Note_off_c, 11, 70, 127
2, 104728, Note_on_c, 0, 72, 127
2, 104728, Note_on_c, 8, 44, 127
2, 104875, Note_off_c, 11, 82, 127
2, 104880, Note_on_c, 3, 63, 127
2, 105028, Note_off_c, 3, 63, 127
2, 105028, Note_off_c, 8, 44, 127
2, 105032, Note_on_c, 5, 65, 127
2, 105032, Note_on_c, 8, 56, 127
2, 105180, Note_off_c, 8, 56, 127
2, 105180, Note_off_c, 5, 65, 127
2, 105184, Note_on_c, 3, 63, 127
2, 105184, Note_on_c, 7, 55, 127
2, 105329, Note_off_c, 0, 72, 127
2, 105333, Note_off_c, 7, 55, 127
2, 105333, Note_off_c, 3, 63, 127
2, 105337, Note_on_c, 0, 72, 127
2, 105337, Note_on_c, 8, 56, 127
2, 105485, Note_off_c, 8, 56, 127
2, 105489, Note_on_c, 11, 58, 127
2, 105637, Note_off_c, 11, 58, 127
2, 105641, Note_on_c, 3, 63, 127
2, 105641, Note_on_c, 0, 60, 127
2, 105789, Note_off_c, 0, 60, 127
2, 105793, Note_on_c, 8, 56, 127
2, 105938, Note_off_c, 0, 72, 127
2, 105941, Note_off_c, 3, 63, 127
2, 105942, Note_off_c, 8, 56, 127
2, 105947, Note_on_c, 8, 68, 127
2, 105947, Note_on_c, 5, 53, 127
2, 106095, Note_off_c, 5, 53, 127
2, 106099, Note_on_c, 11, 70, 127
2, 106099, Note_on_c, 7, 55, 127
2, 106247, Note_off_c, 7, 55, 127
2, 106247, Note_off_c, 11, 70, 127
2, 106250, Note_on_c, 0, 72, 127
2, 106250, Note_on_c, 8, 56, 127
2, 106398, Note_off_c, 8, 56, 127
2, 106398, Note_off_c, 0, 72, 127
2, 106398, Note_off_c, 8, 68, 127
2, 106402, Note_on_c, 8, 68, 127
2, 106402, Note_on_c, 5, 53, 127
2, 106550, Note_off_c, 5, 53, 127
2, 106554, Note_on_c, 8, 80, 127
2, 106554, Note_on_c, 1, 49, 127
2, 106702, Note_off_c, 1, 49, 127
2, 106702, Note_off_c, 8, 68, 127
2, 106706, Note_on_c, 0, 72, 127
2, 106706, Note_on_c, 3, 51, 127
2, 106854, Note_off_c, 3, 51, 127
2, 106854, Note_off_c, 0, 72, 127
2, 106858, Note_on_c, 1, 73, 127
2, 106858, Note_on_c, 5, 53, 127
2, 107006, Note_off_c, 5, 53, 127
2, 107006, Note_off_c, 1, 73, 127
2, 107010, Note_on_c, 8, 68, 127
2, 107010, Note_on_c, 1, 49, 127
2, 107158, Note_off_c, 1, 49, 127
2, 107158, Note_off_c, 8, 68, 127
2, 107162, Note_on_c, 11, 70, 127
2, 107162, Note_on_c, 7, 43, 127
2, 107309, Note_off_c, 8, 80, 127
2, 107314, Note_on_c, 1, 61, 127
2, 107462, Note_off_c, 1, 61, 127
2, 107462, Note_off_c, 7, 43, 127
2, 107466, Note_on_c, 3, 63, 127
2, 107466, Note_on_c, 7, 55, 127
2, 107614, Note_off_c, 7, 55, 127
2, 107614, Note_off_c, 3, 63, 127
2, 107618, Note_on_c, 1, 61, 127
2, 107618, Note_on_c, 5, 53, 127
2, 107763, Note_off_c, 11, 70, 127
2, 107767, Note_off_c, 5, 53, 127
2, 107767, Note_off_c, 1, 61, 127
2, 107771, Note_on_c, 11, 70, 127
2, 107771, Note_on_c, 7, 55, 127
2, 107919, Note_off_c, 7, 55, 127
2, 107923, Note_on_c, 8, 56, 127
2, 108071, Note_off_c, 8, 56, 127
2, 108075, Note_on_c, 1, 61, 127
2, 108075, Note_on_c, 11, 58, 127
2, 108223, Note_off_c, 11, 58, 127
2, 108227, Note_on_c, 7, 55, 127
2, 108372, Note_off_c, 11, 70, 127
2, 108375, Note_off_c, 1, 61, 127
2, 108376, Note_off_c, 7, 55, 127
2, 108381, Note_on_c, 7, 67, 127
2, 108381, Note_on_c, 4, 52, 127
2, 108529, Note_off_c, 4, 52, 127
2, 108529, Note_off_c, 7, 67, 127
2, 108533, Note_on_c, 8, 68, 127
2, 108533, Note_on_c, 5, 53, 127
2, 108681, Note_off_c, 5, 53, 127
2, 108681, Note_off_c, 8, 68, 127
2, 108685, Note_on_c, 11, 70, 127
2, 108685, Note_on_c, 7, 55, 127
2, 108833, Note_off_c, 7, 55, 127
2, 108833, Note_off_c, 11, 70, 127
2, 108837, Note_on_c, 7, 67, 127
2, 108837, Note_on_c, 4, 52, 127
2, 108985, Note_off_c, 4, 52, 127
2, 108989, Note_on_c, 7, 79, 127
2, 108989, Note_on_c, 0, 48, 127
2, 109137, Note_off_c, 0, 48, 127
2, 109137, Note_off_c, 7, 67, 127
2, 109141, Note_on_c, 11, 70, 127
2, 109141, Note_on_c, 2, 50, 127
2, 109289, Note_off_c, 2, 50, 127
2, 109289, Note_off_c, 11, 70, 127
2, 109293, Note_on_c, 0, 72, 127
2, 109293, Note_on_c, 4, 52, 127
2, 109441, Note_off_c, 4, 52, 127
2, 109441, Note_off_c, 0, 72, 127
2, 109445, Note_on_c, 7, 67, 127
2, 109445, Note_on_c, 0, 48, 127
2, 109593, Note_off_c, 0, 48, 127
2, 109593, Note_off_c, 7, 67, 127
2, 109597, Note_on_c, 8, 68, 127
2, 109597, Note_on_c, 5, 41, 127
2, 109744, Note_off_c, 7, 79, 127
2, 109745, Note_off_c, 5, 41, 127
2, 109749, Note_on_c, 4, 76, 127
2, 109749, Note_on_c, 7, 43, 127
2, 109897, Note_off_c, 7, 43, 127
2, 109897, Note_off_c, 4, 76, 127
2, 109900, Note_on_c, 5, 77, 127
2, 109900, Note_on_c, 8, 44, 127
2, 110048, Note_off_c, 8, 44, 127
2, 110048, Note_off_c, 5, 77, 127
2, 110052, Note_on_c, 1, 73, 127
2, 110052, Note_on_c, 11, 46, 127
2, 110200, Note_off_c, 11, 46, 127
2, 110200, Note_off_c, 1, 73, 127
2, 110204, Note_on_c, 11, 70, 127
2, 110204, Note_on_c, 0, 48, 127
2, 110352, Note_off_c, 0, 48, 127
2, 110356, Note_on_c, 2, 50, 127
2, 110504, Note_off_c, 2, 50, 127
2, 110504, Note_off_c, 8, 68, 127
2, 110508, Note_on_c, 0, 60, 127
2, 110508, Note_on_c, 4, 52, 127
2, 110656, Note_off_c, 4, 52, 127
2, 110660, Note_on_c, 0, 48, 127
2, 110808, Note_off_c, 0, 48, 127
2, 110808, Note_off_c, 0, 60, 127
2, 110812, Note_on_c, 1, 61, 127
2, 110812, Note_on_c, 5, 53, 127
2, 110960, Note_off_c, 5, 53, 127
2, 110960, Note_off_c, 1, 61, 127
2, 110964, Note_on_c, 0, 60, 127
2, 110964, Note_on_c, 4, 52, 127
2, 111112, Note_off_c, 4, 52, 127
2, 111112, Note_off_c, 0, 60, 127
2, 111116, Note_on_c, 12, 59, 127
2, 111116, Note_on_c, 2, 50, 127
2, 111264, Note_off_c, 2, 50, 127
2, 111264, Note_off_c, 12, 59, 127
2, 111268, Note_on_c, 0, 60, 127
2, 111268, Note_on_c, 4, 52, 127
2, 111415, Note_off_c, 11, 70, 127
2, 111416, Note_off_c, 4, 52, 127
2, 111420, Note_on_c, 8, 68, 127
2, 111420, Note_on_c, 5, 53, 127
2, 111568, Note_off_c, 5, 53, 127
2, 111572, Note_on_c, 3, 51, 127
2, 111719, Note_off_c, 0, 60, 127
2, 111720, Note_off_c, 3, 51, 127
2, 111724, Note_on_c, 5, 65, 127
2, 111724, Note_on_c, 1, 49, 127
2, 111872, Note_off_c, 1, 49, 127
2, 111876, Note_on_c, 0, 48, 127
2, 112024, Note_off_c, 0, 48, 127
2, 112024, Note_off_c, 5, 65, 127
2, 112029, Note_on_c, 0, 60, 127
2, 112029, Note_on_c, 1, 49, 127
2, 112177, Note_off_c, 1, 49, 127
2, 112181, Note_on_c, 0, 48, 127
2, 112329, Note_off_c, 0, 48, 127
2, 112329, Note_off_c, 0, 60, 127
2, 112333, Note_on_c, 11, 58, 127
2, 112333, Note_on_c, 1, 49, 127
2, 112481, Note_off_c, 11, 58, 127
2, 112485, Note_on_c, 8, 56, 127
2, 112631, Note_off_c, 8, 68, 127
2, 112633, Note_off_c, 8, 56, 127
2, 112637, Note_on_c, 7, 67, 127
2, 112637, Note_on_c, 11, 58, 127
2, 112784, Note_off_c, 1, 49, 127
2, 112789, Note_on_c, 0, 48, 127
2, 112937, Note_off_c, 0, 48, 127
2, 112937, Note_off_c, 11, 58, 127
2, 112937, Note_off_c, 7, 67, 127
2, 112941, Note_on_c, 7, 67, 127
2, 112941, Note_on_c, 11, 46, 127
2, 113089, Note_off_c, 11, 46, 127
2, 113093, Note_on_c, 1, 49, 127
2, 113241, Note_off_c, 1, 49, 127
2, 113245, Note_on_c, 8, 56, 127
2, 113245, Note_on_c, 0, 48, 127
2, 113393, Note_off_c, 0, 48, 127
2, 113397, Note_on_c, 11, 46, 127
2, 113542, Note_off_c, 7, 67, 127
2, 113545, Note_off_c, 8, 56, 127
2, 113546, Note_off_c, 11, 46, 127
2, 113550, Note_on_c, 5, 65, 127
2, 113550, Note_on_c, 8, 44, 127
2, 113698, Note_off_c, 8, 44, 127
2, 113701, Note_on_c, 0, 48, 127
2, 113849, Note_off_c, 0, 48, 127
2, 113850, Note_off_c, 5, 65, 127
2, 113853, Note_on_c, 4, 64, 127
2, 113853, Note_on_c, 7, 55, 127
2, 113853, Note_on_c, 11, 46, 127
2, 114001, Note_off_c, 11, 46, 127
2, 114005, Note_on_c, 8, 44, 127
2, 114153, Note_off_c, 8, 44, 127
2, 114153, Note_off_c, 7, 55, 127
2, 114153, Note_off_c, 4, 64, 127
2, 114157, Note_on_c, 7, 67, 127
2, 114157, Note_on_c, 4, 64, 127
2, 114157, Note_on_c, 11, 46, 127
2, 114305, Note_off_c, 11, 46, 127
2, 114309, Note_on_c, 7, 43, 127
2, 114457, Note_off_c, 7, 43, 127
2, 114457, Note_off_c, 4, 64, 127
2, 114457, Note_off_c, 7, 67, 127
2, 114461, Note_on_c, 0, 72, 127
2, 114461, Note_on_c, 5, 53, 127
2, 114461, Note_on_c, 8, 44, 127
2, 114609, Note_off_c, 0, 72, 127
2, 114613, Note_on_c, 11, 70, 127
2, 114761, Note_off_c, 11, 70, 127
2, 114761, Note_off_c, 8, 44, 127
2, 114765, Note_on_c, 8, 68, 127
2, 114765, Note_on_c, 1, 49, 127
2, 114913, Note_off_c, 8, 68, 127
2, 114917, Note_on_c, 0, 72, 127
2, 115065, Note_off_c, 0, 72, 127
2, 115065, Note_off_c, 1, 49, 127
2, 115069, Note_on_c, 11, 70, 127
2, 115069, Note_on_c, 7, 43, 127
2, 115217, Note_off_c, 11, 70, 127
2, 115221, Note_on_c, 8, 68, 127
2, 115368, Note_off_c, 5, 53, 127
2, 115369, Note_off_c, 8, 68, 127
2, 115369, Note_off_c, 7, 43, 127
2, 115374, Note_on_c, 7, 67, 127
2, 115374, Note_on_c, 4, 52, 127
2, 115374, Note_on_c, 0, 48, 127
2, 115522, Note_off_c, 7, 67, 127
2, 115526, Note_on_c, 11, 70, 127
2, 115674, Note_off_c, 11, 70, 127
2, 115674, Note_off_c, 0, 48, 127
2, 115674, Note_off_c, 4, 52, 127
2, 115678, Note_on_c, 8, 68, 127
2, 115678, Note_on_c, 5, 53, 127
2, 115678, Note_on_c, 5, 41, 127
2, 115826, Note_off_c, 8, 68, 127
2, 115830, Note_on_c, 5, 65, 127
2, 115978, Note_off_c, 5, 65, 127
2, 115978, Note_off_c, 5, 41, 127
2, 115978, Note_off_c, 5, 53, 127
2, 115982, Note_on_c, 1, 73, 127
2, 115982, Note_on_c, 4, 52, 127
2, 115982, Note_on_c, 11, 46, 127
2, 116130, Note_off_c, 1, 73, 127
2, 116134, Note_on_c, 11, 70, 127
2, 116282, Note_off_c, 11, 70, 127
2, 116282, Note_off_c, 11, 46, 127
2, 116282, Note_off_c, 4, 52, 127
2, 116286, Note_on_c, 0, 72, 127
2, 116286, Note_on_c, 5, 53, 127
2, 116286, Note_on_c, 8, 44, 127
2, 116434, Note_off_c, 0, 72, 127
2, 116438, Note_on_c, 8, 68, 127
2, 116586, Note_off_c, 8, 68, 127
2, 116586, Note_off_c, 8, 44, 127
2, 116586, Note_off_c, 5, 53, 127
2, 116590, Note_on_c, 6, 78, 127
2, 116590, Note_on_c, 11, 58, 127
2, 116590, Note_on_c, 1, 49, 127
2, 116738, Note_off_c, 6, 78, 127
2, 116742, Note_on_c, 4, 76, 127
2, 116890, Note_off_c, 4, 76, 127
2, 116890, Note_off_c, 1, 49, 127
2, 116890, Note_off_c, 11, 58, 127
2, 116894, Note_on_c, 4, 76, 127
2, 116894, Note_on_c, 8, 56, 127
2, 116894, Note_on_c, 0, 48, 127
2, 117042, Note_off_c, 4, 76, 127
2, 117046, Note_on_c, 5, 77, 127
2, 117194, Note_off_c, 5, 77, 127
2, 117194, Note_off_c, 8, 56, 127
2, 117198, Note_on_c, 12, 83, 127
2, 117198, Note_on_c, 7, 55, 127
2, 117346, Note_off_c, 7, 55, 127
2, 117346, Note_off_c, 12, 83, 127
2, 117350, Note_on_c, 0, 84, 127
2, 117350, Note_on_c, 5, 53, 127
2, 117498, Note_off_c, 5, 53, 127
2, 117498, Note_off_c, 0, 84, 127
2, 117501, Note_on_c, 5, 77, 127
2, 117501, Note_on_c, 7, 55, 127
2, 117649, Note_off_c, 5, 77, 127
2, 117653, Note_on_c, 4, 76, 127
2, 117725, Note_off_c, 4, 76, 127
2, 117730, Note_on_c, 5, 77, 127
2, 117801, Note_off_c, 7, 55, 127
2, 117802, Note_off_c, 5, 77, 127
2, 117805, Note_on_c, 4, 76, 127
2, 117805, Note_on_c, 11, 58, 127
2, 117953, Note_off_c, 4, 76, 127
2, 117957, Note_on_c, 5, 77, 127
2, 118104, Note_off_c, 5, 77, 127
2, 118105, Note_off_c, 11, 58, 127
2, 118105, Note_off_c, 0, 48, 127
2, 118109, Note_on_c, 5, 77, 127
2, 118109, Note_on_c, 8, 56, 127
2, 118109, Note_on_c, 5, 53, 127
2, 118257, Note_off_c, 8, 56, 127
2, 118261, Note_on_c, 11, 58, 127
2, 118409, Note_off_c, 11, 58, 127
2, 118413, Note_on_c, 0, 60, 127
2, 118561, Note_off_c, 0, 60, 127
2, 118565, Note_on_c, 8, 56, 127
2, 118691, Note_off_c, 5, 53, 127
2, 118714, Note_off_c, 8, 56, 127
2, 118719, Note_on_c, 5, 53, 127
2, 118867, Note_off_c, 5, 53, 127
2, 118871, Note_on_c, 6, 54, 127
2, 119017, Note_off_c, 5, 77, 127
2, 119019, Note_off_c, 6, 54, 127
2, 119023, Note_on_c, 5, 77, 127
2, 119023, Note_on_c, 8, 56, 127
2, 119171, Note_off_c, 8, 56, 127
2, 119175, Note_on_c, 5, 53, 127
2, 119323, Note_off_c, 5, 53, 127
2, 119323, Note_off_c, 5, 77, 127
2, 119327, Note_on_c, 12, 71, 127
2, 119327, Note_on_c, 2, 50, 127
2, 119475, Note_off_c, 2, 50, 127
2, 119475, Note_off_c, 12, 71, 127
2, 119479, Note_on_c, 11, 70, 127
2, 119479, Note_on_c, 3, 51, 127
2, 119627, Note_off_c, 3, 51, 127
2, 119627, Note_off_c, 11, 70, 127
2, 119631, Note_on_c, 8, 68, 127
2, 119631, Note_on_c, 5, 53, 127
2, 119779, Note_off_c, 5, 53, 127
2, 119779, Note_off_c, 8, 68, 127
2, 119783, Note_on_c, 11, 70, 127
2, 119783, Note_on_c, 2, 50, 127
2, 119931, Note_off_c, 2, 50, 127
2, 119931, Note_off_c, 11, 70, 127
2, 119935, Note_on_c, 5, 77, 127
2, 119935, Note_on_c, 11, 46, 127
2, 120083, Note_off_c, 11, 46, 127
2, 120087, Note_on_c, 2, 50, 127
2, 120235, Note_off_c, 2, 50, 127
2, 120235, Note_off_c, 5, 77, 127
2, 120239, Note_on_c, 2, 74, 127
2, 120239, Note_on_c, 5, 53, 127
2, 120387, Note_off_c, 5, 53, 127
2, 120391, Note_on_c, 11, 58, 127
2, 120539, Note_off_c, 11, 58, 127
2, 120539, Note_off_c, 2, 74, 127
2, 120543, Note_on_c, 8, 68, 127
2, 120543, Note_on_c, 3, 51, 127
2, 120691, Note_off_c, 3, 51, 127
2, 120695, Note_on_c, 6, 54, 127
2, 120843, Note_off_c, 6, 54, 127
2, 120843, Note_off_c, 8, 68, 127
2, 120847, Note_on_c, 6, 66, 127
2, 120847, Note_on_c, 11, 58, 127
2, 120995, Note_off_c, 11, 58, 127
2, 120995, Note_off_c, 6, 66, 127
2, 120999, Note_on_c, 5, 65, 127
2, 120999, Note_on_c, 2, 62, 127
2, 121147, Note_off_c, 2, 62, 127
2, 121147, Note_off_c, 5, 65, 127
2, 121150, Note_on_c, 6, 66, 127
2, 121150, Note_on_c, 3, 63, 127
2, 121298, Note_off_c, 3, 63, 127
2, 121302, Note_on_c, 5, 65, 127
2, 121450, Note_off_c, 5, 65, 127
2, 121450, Note_off_c, 6, 66, 127
2, 121454, Note_on_c, 3, 75, 127
2, 121454, Note_on_c, 6, 66, 127
2, 121602, Note_off_c, 6, 66, 127
2, 121606, Note_on_c, 3, 63, 127
2, 121754, Note_off_c, 3, 63, 127
2, 121754, Note_off_c, 3, 75, 127
2, 121758, Note_on_c, 10, 69, 127
2, 121758, Note_on_c, 0, 60, 127
2, 121906, Note_off_c, 0, 60, 127
2, 121906, Note_off_c, 10, 69, 127
2, 121910, Note_on_c, 8, 68, 127
2, 121910, Note_on_c, 1, 61, 127
2, 122058, Note_off_c, 1, 61, 127
2, 122058, Note_off_c, 8, 68, 127
2, 122062, Note_on_c, 6, 66, 127
2, 122062, Note_on_c, 3, 63, 127
2, 122210, Note_off_c, 3, 63, 127
2, 122210, Note_off_c, 6, 66, 127
2, 122214, Note_on_c, 8, 68, 127
2, 122214, Note_on_c, 0, 60, 127
2, 122362, Note_off_c, 0, 60, 127
2, 122362, Note_off_c, 8, 68, 127
2, 122367, Note_on_c, 3, 75, 127
2, 122367, Note_on_c, 8, 56, 127
2, 122519, Note_on_c, 8, 44, 127
2, 122667, Note_off_c, 8, 44, 127
2, 122667, Note_off_c, 3, 75, 127
2, 122671, Note_on_c, 0, 72, 127
2, 122671, Note_on_c, 11, 46, 127
2, 122819, Note_off_c, 11, 46, 127
2, 122823, Note_on_c, 0, 48, 127
2, 122971, Note_off_c, 0, 48, 127
2, 122971, Note_off_c, 0, 72, 127
2, 122975, Note_on_c, 6, 66, 127
2, 122975, Note_on_c, 1, 49, 127
2, 123122, Note_off_c, 8, 56, 127
2, 123127, Note_on_c, 8, 56, 127
2, 123275, Note_off_c, 8, 56, 127
2, 123275, Note_off_c, 6, 66, 127
2, 123279, Note_on_c, 5, 65, 127
2, 123279, Note_on_c, 11, 58, 127
2, 123427, Note_off_c, 11, 58, 127
2, 123427, Note_off_c, 5, 65, 127
2, 123431, Note_on_c, 3, 63, 127
2, 123431, Note_on_c, 0, 60, 127
2, 123579, Note_off_c, 0, 60, 127
2, 123579, Note_off_c, 3, 63, 127
2, 123583, Note_on_c, 5, 65, 127
2, 123583, Note_on_c, 1, 61, 127
2, 123730, Note_off_c, 1, 49, 127
2, 123731, Note_off_c, 5, 65, 127
2, 123735, Note_on_c, 8, 68, 127
2, 123735, Note_on_c, 3, 51, 127
2, 123883, Note_off_c, 3, 51, 127
2, 123883, Note_off_c, 8, 68, 127
2, 123887, Note_on_c, 1, 73, 127
2, 123887, Note_on_c, 5, 53, 127
2, 124035, Note_off_c, 5, 53, 127
2, 124035, Note_off_c, 1, 73, 127
2, 124039, Note_on_c, 3, 75, 127
2, 124039, Note_on_c, 7, 55, 127
2, 124187, Note_off_c, 7, 55, 127
2, 124187, Note_off_c, 3, 75, 127
2, 124191, Note_on_c, 5, 77, 127
2, 124191, Note_on_c, 8, 56, 127
2, 124339, Note_off_c, 8, 56, 127
2, 124339, Note_off_c, 5, 77, 127
2, 124342, Note_off_c, 1, 61, 127
2, 124343, Note_on_c, 3, 75, 127
2, 124343, Note_on_c, 7, 55, 127
2, 124491, Note_off_c, 7, 55, 127
2, 124491, Note_off_c, 3, 75, 127
2, 124495, Note_on_c, 1, 73, 127
2, 124495, Note_on_c, 5, 53, 127
2, 124643, Note_off_c, 5, 53, 127
2, 124643, Note_off_c, 1, 73, 127
2, 124647, Note_on_c, 3, 75, 127
2, 124647, Note_on_c, 7, 55, 127
2, 124795, Note_off_c, 7, 55, 127
2, 124795, Note_off_c, 3, 75, 127
2, 124799, Note_on_c, 0, 84, 127
2, 124799, Note_on_c, 0, 72, 127
2, 124799, Note_on_c, 8, 56, 127
2, 124947, Note_off_c, 8, 56, 127
2, 124950, Note_on_c, 7, 55, 127
2, 125098, Note_off_c, 7, 55, 127
2, 125099, Note_off_c, 0, 84, 127
2, 125102, Note_on_c, 8, 80, 127
2, 125102, Note_on_c, 5, 53, 127
2, 125250, Note_off_c, 5, 53, 127
2, 125254, Note_on_c, 3, 51, 127
2, 125402, Note_off_c, 3, 51, 127
2, 125402, Note_off_c, 8, 80, 127
2, 125406, Note_on_c, 3, 75, 127
2, 125406, Note_on_c, 5, 53, 127
2, 125554, Note_off_c, 5, 53, 127
2, 125558, Note_on_c, 3, 51, 127
2, 125706, Note_off_c, 3, 51, 127
2, 125706, Note_off_c, 3, 75, 127
2, 125707, Note_off_c, 0, 72, 127
2, 125709, Note_on_c, 1, 73, 127
2, 125709, Note_on_c, 5, 53, 127
2, 125857, Note_off_c, 1, 73, 127
2, 125861, Note_on_c, 0, 72, 127
2, 126009, Note_off_c, 0, 72, 127
2, 126013, Note_on_c, 1, 73, 127
2, 126013, Note_on_c, 11, 70, 127
2, 126160, Note_off_c, 5, 53, 127
2, 126165, Note_on_c, 3, 51, 127
2, 126313, Note_off_c, 3, 51, 127
2, 126313, Note_off_c, 1, 73, 127
2, 126317, Note_on_c, 11, 82, 127
2, 126317, Note_on_c, 1, 49, 127
2, 126465, Note_off_c, 1, 49, 127
2, 126469, Note_on_c, 5, 53, 127
2, 126617, Note_off_c, 5, 53, 127
2, 126617, Note_off_c, 11, 82, 127
2, 126621, Note_on_c, 0, 72, 127
2, 126621, Note_on_c, 3, 51, 127
2, 126769, Note_off_c, 3, 51, 127
2, 126774, Note_on_c, 1, 49, 127
2, 126920, Note_off_c, 11, 70, 127
2, 126921, Note_off_c, 0, 72, 127
2, 126922, Note_off_c, 1, 49, 127
2, 126926, Note_on_c, 8, 80, 127
2, 126926, Note_on_c, 8, 68, 127
2, 126926, Note_on_c, 0, 48, 127
2, 127074, Note_off_c, 0, 48, 127
2, 127078, Note_on_c, 3, 51, 127
2, 127226, Note_off_c, 3, 51, 127
2, 127226, Note_off_c, 8, 68, 127
2, 127226, Note_off_c, 8, 80, 127
2, 127230, Note_on_c, 11, 70, 127
2, 127230, Note_on_c, 7, 67, 127
2, 127230, Note_on_c, 1, 49, 127
2, 127378, Note_off_c, 1, 49, 127
2, 127382, Note_on_c, 0, 48, 127
2, 127530, Note_off_c, 0, 48, 127
2, 127530, Note_off_c, 7, 67, 127
2, 127530, Note_off_c, 11, 70, 127
2, 127534, Note_on_c, 7, 79, 127
2, 127534, Note_on_c, 11, 70, 127
2, 127534, Note_on_c, 11, 46, 127
2, 127682, Note_off_c, 11, 46, 127
2, 127686, Note_on_c, 1, 49, 127
2, 127834, Note_off_c, 1, 49, 127
2, 127834, Note_off_c, 11, 70, 127
2, 127834, Note_off_c, 7, 79, 127
2, 127838, Note_on_c, 8, 68, 127
2, 127838, Note_on_c, 3, 63, 127
2, 127838, Note_on_c, 0, 48, 127
2, 127986, Note_off_c, 3, 63, 127
2, 127986, Note_off_c, 8, 68, 127
2, 127990, Note_on_c, 3, 63, 127
2, 128138, Note_off_c, 0, 48, 127
2, 128142, Note_on_c, 5, 65, 127
2, 128142, Note_on_c, 3, 51, 127
2, 128290, Note_off_c, 5, 65, 127
2, 128294, Note_on_c, 7, 67, 127
2, 128442, Note_off_c, 7, 67, 127
2, 128442, Note_off_c, 3, 51, 127
2, 128446, Note_on_c, 8, 68, 127
2, 128446, Note_on_c, 6, 54, 127
2, 128591, Note_off_c, 3, 63, 127
2, 128595, Note_off_c, 8, 68, 127
2, 128599, Note_on_c, 11, 70, 127
2, 128747, Note_off_c, 11, 70, 127
2, 128750, Note_on_c, 0, 72, 127
2, 128750, Note_on_c, 8, 56, 127
2, 128898, Note_off_c, 0, 72, 127
2, 128902, Note_on_c, 8, 68, 127
2, 129050, Note_off_c, 8, 68, 127
2, 129050, Note_off_c, 8, 56, 127
2, 129054, Note_on_c, 1, 73, 127
2, 129054, Note_on_c, 11, 58, 127
2, 129202, Note_off_c, 11, 58, 127
2, 129202, Note_off_c, 1, 73, 127
2, 129206, Note_on_c, 0, 72, 127
2, 129206, Note_on_c, 8, 56, 127
2, 129317, Note_off_c, 6, 54, 127
2, 129354, Note_off_c, 8, 56, 127
2, 129354, Note_off_c, 0, 72, 127
2, 129358, Note_on_c, 11, 70, 127
2, 129358, Note_on_c, 6, 54, 127
2, 129506, Note_off_c, 11, 70, 127
2, 129510, Note_on_c, 0, 72, 127
2, 129510, Note_on_c, 8, 56, 127
2, 129658, Note_off_c, 8, 56, 127
2, 129658, Note_off_c, 0, 72, 127
2, 129658, Note_off_c, 6, 54, 127
2, 129662, Note_on_c, 1, 73, 127
2, 129662, Note_on_c, 5, 65, 127
2, 129662, Note_on_c, 5, 53, 127
2, 129810, Note_off_c, 1, 73, 127
2, 129814, Note_on_c, 0, 72, 127
2, 129962, Note_off_c, 0, 72, 127
2, 129962, Note_off_c, 5, 65, 127
2, 129967, Note_on_c, 11, 70, 127
2, 129967, Note_on_c, 1, 61, 127
2, 130115, Note_off_c, 11, 70, 127
2, 130119, Note_on_c, 8, 68, 127
2, 130267, Note_off_c, 8, 68, 127
2, 130267, Note_off_c, 1, 61, 127
2, 130271, Note_on_c, 6, 66, 127
2, 130271, Note_on_c, 8, 56, 127
2, 130419, Note_off_c, 6, 66, 127
2, 130423, Note_on_c, 8, 68, 127
2, 130571, Note_off_c, 8, 68, 127
2, 130571, Note_off_c, 8, 56, 127
2, 130575, Note_on_c, 11, 70, 127
2, 130575, Note_on_c, 6, 54, 127
2, 130700, Note_off_c, 5, 53, 127
2, 130723, Note_off_c, 6, 54, 127
2, 130727, Note_on_c, 5, 53, 127
2, 130875, Note_off_c, 5, 53, 127
2, 130879, Note_on_c, 6, 54, 127
2, 130879, Note_on_c, 3, 51, 127
2, 131026, Note_off_c, 11, 70, 127
2, 131031, Note_on_c, 8, 68, 127
2, 131179, Note_off_c, 8, 68, 127
2, 131179, Note_off_c, 6, 54, 127
2, 131183, Note_on_c, 6, 66, 127
2, 131183, Note_on_c, 3, 63, 127
2, 131331, Note_off_c, 6, 66, 127
2, 131335, Note_on_c, 11, 70, 127
2, 131483, Note_off_c, 11, 70, 127
2, 131483, Note_off_c, 3, 63, 127
2, 131487, Note_on_c, 8, 68, 127
2, 131487, Note_on_c, 5, 53, 127
2, 131635, Note_off_c, 8, 68, 127
2, 131639, Note_on_c, 6, 66, 127
2, 131786, Note_off_c, 3, 51, 127
2, 131787, Note_off_c, 6, 66, 127
2, 131787, Note_off_c, 5, 53, 127
2, 131791, Note_on_c, 5, 65, 127
2, 131791, Note_on_c, 1, 61, 127
2, 131791, Note_on_c, 1, 49, 127
2, 131939, Note_off_c, 5, 65, 127
2, 131943, Note_on_c, 8, 68, 127
2, 132091, Note_off_c, 8, 68, 127
2, 132091, Note_off_c, 1, 49, 127
2, 132095, Note_on_c, 6, 66, 127
2, 132095, Note_on_c, 3, 51, 127
2, 132243, Note_off_c, 6, 66, 127
2, 132247, Note_on_c, 5, 65, 127
2, 132394, Note_off_c, 1, 61, 127
2, 132395, Note_off_c, 5, 65, 127
2, 132395, Note_off_c, 3, 51, 127
2, 132399, Note_on_c, 3, 63, 127
2, 132399, Note_on_c, 0, 60, 127
2, 132399, Note_on_c, 8, 44, 127
2, 132547, Note_off_c, 3, 63, 127
2, 132550, Note_on_c, 6, 66, 127
2, 132698, Note_off_c, 6, 66, 127
2, 132699, Note_off_c, 8, 44, 127
2, 132699, Note_off_c, 0, 60, 127
2, 132702, Note_on_c, 5, 65, 127
2, 132702, Note_on_c, 1, 61, 127
2, 132702, Note_on_c, 1, 49, 127
2, 132850, Note_off_c, 1, 49, 127
2, 132854, Note_on_c, 3, 51, 127
2, 133002, Note_off_c, 3, 51, 127
2, 133002, Note_off_c, 5, 65, 127
2, 133006, Note_on_c, 8, 68, 127
2, 133006, Note_on_c, 5, 53, 127
2, 133154, Note_off_c, 5, 53, 127
2, 133158, Note_on_c, 6, 54, 127
2, 133306, Note_off_c, 6, 54, 127
2, 133306, Note_off_c, 8, 68, 127
2, 133310, Note_on_c, 1, 73, 127
2, 133310, Note_on_c, 5, 53, 127
2, 133458, Note_off_c, 5, 53, 127
2, 133462, Note_on_c, 3, 51, 127
2, 133610, Note_off_c, 3, 51, 127
2, 133610, Note_off_c, 1, 73, 127
2, 133610, Note_off_c, 1, 61, 127
2, 133613, Note_on_c, 8, 80, 127
2, 133613, Note_on_c, 1, 49, 127
2, 133761, Note_off_c, 1, 49, 127
2, 133761, Note_off_c, 8, 80, 127
2, 133765, Note_on_c, 5, 77, 127
2, 133765, Note_on_c, 5, 53, 127
2, 133913, Note_off_c, 5, 53, 127
2, 133913, Note_off_c, 5, 77, 127
2, 133917, Note_on_c, 1, 73, 127
2, 133917, Note_on_c, 11, 58, 127
2, 134065, Note_off_c, 11, 58, 127
2, 134069, Note_on_c, 8, 56, 127
2, 134217, Note_off_c, 8, 56, 127
2, 134217, Note_off_c, 1, 73, 127
2, 134221, Note_on_c, 4, 76, 127
2, 134221, Note_on_c, 7, 55, 127
2, 134369, Note_off_c, 7, 55, 127
2, 134369, Note_off_c, 4, 76, 127
2, 134374, Note_on_c, 1, 73, 127
2, 134374, Note_on_c, 11, 58, 127
2, 134522, Note_off_c, 11, 58, 127
2, 134522, Note_off_c, 1, 73, 127
2, 134526, Note_on_c, 11, 70, 127
2, 134526, Note_on_c, 1, 61, 127
2, 134674, Note_off_c, 1, 61, 127
2, 134678, Note_on_c, 12, 59, 127
2, 134826, Note_off_c, 12, 59, 127
2, 134826, Note_off_c, 11, 70, 127
2, 134830, Note_on_c, 1, 73, 127
2, 134830, Note_on_c, 11, 58, 127
2, 134978, Note_off_c, 11, 58, 127
2, 134978, Note_off_c, 1, 73, 127
2, 134982, Note_on_c, 11, 70, 127
2, 134982, Note_on_c, 1, 61, 127
2, 135130, Note_off_c, 1, 61, 127
2, 135130, Note_off_c, 11, 70, 127
2, 135134, Note_on_c, 7, 67, 127
2, 135134, Note_on_c, 1, 61, 127
2, 135206, Note_off_c, 1, 61, 127
2, 135209, Note_on_c, 3, 63, 127
2, 135281, Note_off_c, 3, 63, 127
2, 135286, Note_on_c, 4, 64, 127
2, 135434, Note_off_c, 4, 64, 127
2, 135434, Note_off_c, 7, 67, 127
2, 135438, Note_on_c, 11, 70, 127
2, 135438, Note_on_c, 3, 63, 127
2, 135586, Note_off_c, 3, 63, 127
2, 135586, Note_off_c, 11, 70, 127
2, 135590, Note_on_c, 1, 73, 127
2, 135590, Note_on_c, 1, 61, 127
2, 135738, Note_off_c, 1, 61, 127
2, 135738, Note_off_c, 1, 73, 127
2, 135742, Note_on_c, 4, 76, 127
2, 135742, Note_on_c, 12, 59, 127
2, 135890, Note_off_c, 12, 59, 127
2, 135894, Note_on_c, 11, 58, 127
2, 136042, Note_off_c, 11, 58, 127
2, 136046, Note_on_c, 1, 73, 127
2, 136046, Note_on_c, 8, 56, 127
2, 136194, Note_off_c, 8, 56, 127
2, 136198, Note_on_c, 7, 55, 127
2, 136345, Note_off_c, 4, 76, 127
2, 136346, Note_off_c, 7, 55, 127
2, 136346, Note_off_c, 1, 73, 127
2, 136350, Note_on_c, 3, 75, 127
2, 136350, Note_on_c, 12, 71, 127
2, 136350, Note_on_c, 8, 56, 127
2, 136498, Note_off_c, 8, 56, 127
2, 136501, Note_on_c, 12, 59, 127
2, 136649, Note_off_c, 12, 59, 127
2, 136650, Note_off_c, 3, 75, 127
2, 136653, Note_on_c, 8, 80, 127
2, 136653, Note_on_c, 11, 58, 127
2, 136801, Note_off_c, 11, 58, 127
2, 136805, Note_on_c, 8, 56, 127
2, 136953, Note_off_c, 8, 56, 127
2, 136953, Note_off_c, 8, 80, 127
2, 136953, Note_off_c, 12, 71, 127
2, 136957, Note_on_c, 1, 73, 127
2, 136957, Note_on_c, 11, 70, 127
2, 136957, Note_on_c, 7, 55, 127
2, 137105, Note_off_c, 7, 55, 127
2, 137109, Note_on_c, 4, 52, 127
2, 137257, Note_off_c, 4, 52, 127
2, 137257, Note_off_c, 1, 73, 127
2, 137261, Note_on_c, 7, 79, 127
2, 137261, Note_on_c, 3, 51, 127
2, 137409, Note_off_c, 3, 51, 127
2, 137413, Note_on_c, 1, 49, 127
2, 137560, Note_off_c, 11, 70, 127
2, 137561, Note_off_c, 1, 49, 127
2, 137561, Note_off_c, 7, 79, 127
2, 137565, Note_on_c, 8, 68, 127
2, 137565, Note_on_c, 12, 47, 127
2, 137713, Note_off_c, 12, 47, 127
2, 137717, Note_on_c, 1, 49, 127
2, 137865, Note_off_c, 1, 49, 127
2, 137869, Note_on_c, 8, 80, 127
2, 137869, Note_on_c, 3, 51, 127
2, 138017, Note_off_c, 3, 51, 127
2, 138017, Note_off_c, 8, 80, 127
2, 138021, Note_on_c, 7, 79, 127
2, 138021, Note_on_c, 12, 47, 127
2, 138169, Note_off_c, 12, 47, 127
2, 138169, Note_off_c, 7, 79, 127
2, 138174, Note_on_c, 8, 80, 127
2, 138174, Note_on_c, 8, 44, 127
2, 138322, Note_off_c, 8, 80, 127
2, 138324, Note_off_c, 8, 68, 127
2, 138326, Note_on_c, 11, 82, 127
2, 138474, Note_off_c, 11, 82, 127
2, 138474, Note_off_c, 8, 44, 127
2, 138478, Note_on_c, 12, 83, 127
2, 138478, Note_on_c, 8, 56, 127
2, 138626, Note_off_c, 8, 56, 127
2, 138626, Note_off_c, 12, 83, 127
2, 138630, Note_on_c, 8, 80, 127
2, 138630, Note_on_c, 5, 53, 127
2, 138778, Note_off_c, 5, 53, 127
2, 138778, Note_off_c, 8, 80, 127
2, 138782, Note_on_c, 5, 77, 127
2, 138782, Note_on_c, 1, 49, 127
2, 138934, Note_on_c, 6, 78, 127
2, 138971, Note_off_c, 5, 77, 127
2, 139082, Note_off_c, 6, 78, 127
2, 139082, Note_off_c, 1, 49, 127
2, 139086, Note_on_c, 8, 80, 127
2, 139086, Note_on_c, 12, 59, 127
2, 139234, Note_off_c, 12, 59, 127
2, 139234, Note_off_c, 8, 80, 127
2, 139238, Note_on_c, 5, 77, 127
2, 139238, Note_on_c, 8, 56, 127
2, 139386, Note_off_c, 8, 56, 127
2, 139386, Note_off_c, 5, 77, 127
2, 139390, Note_on_c, 1, 73, 127
2, 139390, Note_on_c, 5, 53, 127
2, 139542, Note_on_c, 3, 75, 127
2, 139579, Note_off_c, 1, 73, 127
2, 139690, Note_off_c, 3, 75, 127
2, 139690, Note_off_c, 5, 53, 127
2, 139694, Note_on_c, 5, 77, 127
2, 139694, Note_on_c, 1, 49, 127
2, 139842, Note_off_c, 1, 49, 127
2, 139842, Note_off_c, 5, 77, 127
2, 139846, Note_on_c, 1, 73, 127
2, 139846, Note_on_c, 11, 46, 127
2, 139994, Note_off_c, 11, 46, 127
2, 139994, Note_off_c, 1, 73, 127
2, 139998, Note_on_c, 11, 70, 127
2, 139998, Note_on_c, 6, 42, 127
2, 140150, Note_on_c, 0, 72, 127
2, 140187, Note_off_c, 11, 70, 127
2, 140298, Note_off_c, 0, 72, 127
2, 140298, Note_off_c, 6, 42, 127
2, 140301, Note_on_c, 1, 73, 127
2, 140301, Note_on_c, 11, 58, 127
2, 140449, Note_off_c, 11, 58, 127
2, 140449, Note_off_c, 1, 73, 127
2, 140453, Note_on_c, 11, 70, 127
2, 140453, Note_on_c, 6, 54, 127
2, 140601, Note_off_c, 6, 54, 127
2, 140601, Note_off_c, 11, 70, 127
2, 140605, Note_on_c, 6, 78, 127
2, 140605, Note_on_c, 3, 51, 127
2, 140757, Note_on_c, 8, 80, 127
2, 140794, Note_off_c, 6, 78, 127
2, 140905, Note_off_c, 8, 80, 127
2, 140905, Note_off_c, 3, 51, 127
2, 140909, Note_on_c, 11, 82, 127
2, 140909, Note_on_c, 6, 54, 127
2, 141057, Note_off_c, 6, 54, 127
2, 141057, Note_off_c, 11, 82, 127
2, 141061, Note_on_c, 6, 78, 127
2, 141061, Note_on_c, 3, 51, 127
2, 141209, Note_off_c, 3, 51, 127
2, 141209, Note_off_c, 6, 78, 127
2, 141213, Note_on_c, 3, 75, 127
2, 141213, Note_on_c, 0, 48, 127
2, 141365, Note_on_c, 5, 77, 127
2, 141402, Note_off_c, 3, 75, 127
2, 141513, Note_off_c, 5, 77, 127
2, 141513, Note_off_c, 0, 48, 127
2, 141517, Note_on_c, 6, 78, 127
2, 141517, Note_on_c, 11, 58, 127
2, 141665, Note_off_c, 11, 58, 127
2, 141665, Note_off_c, 6, 78, 127
2, 141669, Note_on_c, 3, 75, 127
2, 141669, Note_on_c, 6, 54, 127
2, 141817, Note_off_c, 6, 54, 127
2, 141817, Note_off_c, 3, 75, 127
2, 141821, Note_on_c, 0, 72, 127
2, 141821, Note_on_c, 3, 51, 127
2, 141974, Note_on_c, 1, 73, 127
2, 142010, Note_off_c, 0, 72, 127
2, 142121, Note_off_c, 3, 51, 127
2, 142122, Note_off_c, 1, 73, 127
2, 142126, Note_on_c, 3, 75, 127
2, 142126, Note_on_c, 0, 48, 127
2, 142274, Note_off_c, 0, 48, 127
2, 142274, Note_off_c, 3, 75, 127
2, 142278, Note_on_c, 0, 72, 127
2, 142278, Note_on_c, 8, 44, 127
2, 142426, Note_off_c, 8, 44, 127
2, 142426, Note_off_c, 0, 72, 127
2, 142430, Note_on_c, 8, 68, 127
2, 142430, Note_on_c, 5, 41, 127
2, 142582, Note_on_c, 11, 70, 127
2, 142619, Note_off_c, 8, 68, 127
2, 142730, Note_off_c, 11, 70, 127
2, 142730, Note_off_c, 5, 41, 127
2, 142734, Note_on_c, 0, 72, 127
2, 142734, Note_on_c, 8, 56, 127
2, 142882, Note_off_c, 8, 56, 127
2, 142882, Note_off_c, 0, 72, 127
2, 142886, Note_on_c, 8, 68, 127
2, 142886, Note_on_c, 5, 53, 127
2, 143034, Note_off_c, 5, 53, 127
2, 143034, Note_off_c, 8, 68, 127
2, 143038, Note_on_c, 5, 77, 127
2, 143038, Note_on_c, 2, 50, 127
2, 143190, Note_on_c, 6, 78, 127
2, 143227, Note_off_c, 5, 77, 127
2, 143338, Note_off_c, 6, 78, 127
2, 143338, Note_off_c, 2, 50, 127
2, 143342, Note_on_c, 8, 80, 127
2, 143342, Note_on_c, 5, 53, 127
2, 143490, Note_off_c, 5, 53, 127
2, 143490, Note_off_c, 8, 80, 127
2, 143494, Note_on_c, 5, 77, 127
2, 143494, Note_on_c, 2, 50, 127
2, 143642, Note_off_c, 2, 50, 127
2, 143642, Note_off_c, 5, 77, 127
2, 143646, Note_on_c, 2, 74, 127
2, 143646, Note_on_c, 11, 46, 127
2, 143798, Note_on_c, 3, 75, 127
2, 143835, Note_off_c, 2, 74, 127
2, 143946, Note_off_c, 3, 75, 127
2, 143946, Note_off_c, 11, 46, 127
2, 143950, Note_on_c, 5, 77, 127
2, 143950, Note_on_c, 8, 56, 127
2, 144098, Note_off_c, 8, 56, 127
2, 144098, Note_off_c, 5, 77, 127
2, 144101, Note_on_c, 2, 74, 127
2, 144101, Note_on_c, 5, 53, 127
2, 144249, Note_off_c, 5, 53, 127
2, 144249, Note_off_c, 2, 74, 127
2, 144253, Note_on_c, 11, 70, 127
2, 144253, Note_on_c, 2, 50, 127
2, 144405, Note_on_c, 0, 72, 127
2, 144442, Note_off_c, 11, 70, 127
2, 144553, Note_off_c, 0, 72, 127
2, 144553, Note_off_c, 2, 50, 127
2, 144557, Note_on_c, 2, 74, 127
2, 144557, Note_on_c, 11, 46, 127
2, 144705, Note_off_c, 11, 46, 127
2, 144705, Note_off_c, 2, 74, 127
2, 144709, Note_on_c, 11, 70, 127
2, 144709, Note_on_c, 6, 42, 127
2, 144857, Note_off_c, 6, 42, 127
2, 144857, Note_off_c, 11, 70, 127
2, 144861, Note_on_c, 6, 66, 127
2, 144861, Note_on_c, 3, 39, 127
2, 145013, Note_on_c, 8, 68, 127
2, 145050, Note_off_c, 6, 66, 127
2, 145161, Note_off_c, 8, 68, 127
2, 145161, Note_off_c, 3, 39, 127
2, 145165, Note_on_c, 11, 70, 127
2, 145165, Note_on_c, 6, 54, 127
2, 145313, Note_off_c, 6, 54, 127
2, 145313, Note_off_c, 11, 70, 127
2, 145317, Note_on_c, 6, 66, 127
2, 145317, Note_on_c, 3, 51, 127
2, 145465, Note_off_c, 3, 51, 127
2, 145465, Note_off_c, 6, 66, 127
2, 145469, Note_on_c, 3, 75, 127
2, 145469, Note_on_c, 0, 48, 127
2, 145621, Note_on_c, 5, 77, 127
2, 145658, Note_off_c, 3, 75, 127
2, 145769, Note_off_c, 5, 77, 127
2, 145769, Note_off_c, 0, 48, 127
2, 145774, Note_on_c, 6, 78, 127
2, 145774, Note_on_c, 3, 51, 127
2, 145922, Note_off_c, 3, 51, 127
2, 145922, Note_off_c, 6, 78, 127
2, 145926, Note_on_c, 3, 75, 127
2, 145926, Note_on_c, 0, 48, 127
2, 146074, Note_off_c, 0, 48, 127
2, 146074, Note_off_c, 3, 75, 127
2, 146078, Note_on_c, 0, 72, 127
2, 146078, Note_on_c, 8, 44, 127
2, 146230, Note_on_c, 1, 73, 127
2, 146267, Note_off_c, 0, 72, 127
2, 146378, Note_off_c, 1, 73, 127
2, 146378, Note_off_c, 8, 44, 127
2, 146382, Note_on_c, 3, 75, 127
2, 146382, Note_on_c, 6, 54, 127
2, 146530, Note_off_c, 6, 54, 127
2, 146530, Note_off_c, 3, 75, 127
2, 146534, Note_on_c, 0, 72, 127
2, 146534, Note_on_c, 3, 51, 127
2, 146682, Note_off_c, 3, 51, 127
2, 146682, Note_off_c, 0, 72, 127
2, 146686, Note_on_c, 8, 68, 127
2, 146686, Note_on_c, 0, 48, 127
2, 146838, Note_on_c, 11, 70, 127
2, 146875, Note_off_c, 8, 68, 127
2, 146986, Note_off_c, 11, 70, 127
2, 146986, Note_off_c, 0, 48, 127
2, 146990, Note_on_c, 0, 72, 127
2, 146990, Note_on_c, 8, 44, 127
2, 147138, Note_off_c, 8, 44, 127
2, 147138, Note_off_c, 0, 72, 127
2, 147142, Note_on_c, 8, 68, 127
2, 147142, Note_on_c, 5, 41, 127
2, 147290, Note_off_c, 5, 41, 127
2, 147290, Note_off_c, 8, 68, 127
2, 147294, Note_on_c, 5, 65, 127
2, 147294, Note_on_c, 1, 37, 127
2, 147442, Note_off_c, 5, 65, 127
2, 147446, Note_on_c, 6, 66, 127
2, 147594, Note_off_c, 6, 66, 127
2, 147598, Note_on_c, 8, 68, 127
2, 147746, Note_off_c, 8, 68, 127
2, 147750, Note_on_c, 5, 65, 127
2, 147898, Note_off_c, 5, 65, 127
2, 147901, Note_on_c, 1, 61, 127
2, 148049, Note_off_c, 1, 61, 127
2, 148053, Note_on_c, 5, 65, 127
2, 148201, Note_off_c, 5, 65, 127
2, 148202, Note_off_c, 1, 37, 127
2, 148204, Note_on_c, 8, 68, 127
2, 148352, Note_off_c, 8, 68, 127
2, 148356, Note_on_c, 11, 70, 127
2, 148504, Note_off_c, 11, 70, 127
2, 148508, Note_on_c, 12, 71, 127
2, 148656, Note_off_c, 12, 71, 127
2, 148660, Note_on_c, 11, 70, 127
2, 148808, Note_off_c, 11, 70, 127
2, 148812, Note_on_c, 8, 68, 127
2, 148812, Note_on_c, 12, 59, 127
2, 148960, Note_off_c, 12, 59, 127
2, 148960, Note_off_c, 8, 68, 127
2, 148964, Note_on_c, 11, 70, 127
2, 148964, Note_on_c, 1, 49, 127
2, 149112, Note_off_c, 1, 49, 127
2, 149112, Note_off_c, 11, 70, 127
2, 149116, Note_on_c, 6, 78, 127
2, 149116, Note_on_c, 11, 58, 127
2, 149264, Note_off_c, 11, 58, 127
2, 149268, Note_on_c, 1, 49, 127
2, 149416, Note_off_c, 1, 49, 127
2, 149416, Note_off_c, 6, 78, 127
2, 149420, Note_on_c, 1, 73, 127
2, 149420, Note_on_c, 8, 56, 127
2, 149568, Note_off_c, 8, 56, 127
2, 149572, Note_on_c, 1, 49, 127
2, 149720, Note_off_c, 1, 49, 127
2, 149720, Note_off_c, 1, 73, 127
2, 149724, Note_on_c, 11, 70, 127
2, 149724, Note_on_c, 6, 54, 127
2, 149872, Note_off_c, 6, 54, 127
2, 149876, Note_on_c, 1, 49, 127
2, 150024, Note_off_c, 1, 49, 127
2, 150024, Note_off_c, 11, 70, 127
2, 150029, Note_on_c, 8, 68, 127
2, 150029, Note_on_c, 5, 53, 127
2, 150177, Note_off_c, 5, 53, 127
2, 150177, Note_off_c, 8, 68, 127
2, 150181, Note_on_c, 6, 66, 127
2, 150181, Note_on_c, 3, 51, 127
2, 150329, Note_off_c, 3, 51, 127
2, 150329, Note_off_c, 6, 66, 127
2, 150333, Note_on_c, 8, 68, 127
2, 150333, Note_on_c, 5, 53, 127
2, 150481, Note_off_c, 8, 68, 127
2, 150485, Note_on_c, 1, 61, 127
2, 150633, Note_off_c, 1, 61, 127
2, 150633, Note_off_c, 5, 53, 127
2, 150637, Note_on_c, 5, 65, 127
2, 150637, Note_on_c, 8, 44, 127
2, 150785, Note_off_c, 5, 65, 127
2, 150789, Note_on_c, 8, 68, 127
2, 150937, Note_off_c, 8, 68, 127
2, 150937, Note_off_c, 8, 44, 127
2, 150941, Note_on_c, 11, 70, 127
2, 151089, Note_off_c, 11, 70, 127
2, 151093, Note_on_c, 8, 68, 127
2, 151241, Note_off_c, 8, 68, 127
2, 151245, Note_on_c, 6, 66, 127
2, 151245, Note_on_c, 11, 58, 127
2, 151393, Note_off_c, 11, 58, 127
2, 151393, Note_off_c, 6, 66, 127
2, 151397, Note_on_c, 8, 68, 127
2, 151397, Note_on_c, 1, 49, 127
2, 151545, Note_off_c, 1, 49, 127
2, 151545, Note_off_c, 8, 68, 127
2, 151549, Note_on_c, 5, 77, 127
2, 151549, Note_on_c, 8, 56, 127
2, 151697, Note_off_c, 8, 56, 127
2, 151700, Note_on_c, 1, 49, 127
2, 151848, Note_off_c, 1, 49, 127
2, 151849, Note_off_c, 5, 77, 127
2, 151852, Note_on_c, 1, 73, 127
2, 151852, Note_on_c, 6, 54, 127
2, 152000, Note_off_c, 6, 54, 127
2, 152004, Note_on_c, 1, 49, 127
2, 152152, Note_off_c, 1, 49, 127
2, 152152, Note_off_c, 1, 73, 127
2, 152156, Note_on_c, 8, 68, 127
2, 152156, Note_on_c, 5, 53, 127
2, 152304, Note_off_c, 5, 53, 127
2, 152308, Note_on_c, 1, 49, 127
2, 152456, Note_off_c, 1, 49, 127
2, 152456, Note_off_c, 8, 68, 127
2, 152460, Note_on_c, 6, 66, 127
2, 152460, Note_on_c, 3, 51, 127
2, 152608, Note_off_c, 3, 51, 127
2, 152608, Note_off_c, 6, 66, 127
2, 152612, Note_on_c, 5, 65, 127
2, 152612, Note_on_c, 1, 49, 127
2, 152760, Note_off_c, 1, 49, 127
2, 152760, Note_off_c, 5, 65, 127
2, 152764, Note_on_c, 6, 66, 127
2, 152764, Note_on_c, 3, 51, 127
2, 152912, Note_off_c, 6, 66, 127
2, 152916, Note_on_c, 0, 60, 127
2, 153064, Note_off_c, 0, 60, 127
2, 153064, Note_off_c, 3, 51, 127
2, 153068, Note_on_c, 3, 63, 127
2, 153068, Note_on_c, 8, 44, 127
2, 153216, Note_off_c, 3, 63, 127
2, 153220, Note_on_c, 6, 66, 127
2, 153368, Note_off_c, 6, 66, 127
2, 153372, Note_on_c, 8, 68, 127
2, 153511, Note_off_c, 8, 44, 127
2, 153521, Note_off_c, 8, 68, 127
2, 153526, Note_on_c, 6, 66, 127
2, 153674, Note_off_c, 6, 66, 127
2, 153678, Note_on_c, 5, 65, 127
2, 153678, Note_on_c, 8, 56, 127
2, 153826, Note_off_c, 8, 56, 127
2, 153826, Note_off_c, 5, 65, 127
2, 153830, Note_on_c, 6, 66, 127
2, 153830, Note_on_c, 8, 44, 127
2, 153978, Note_off_c, 8, 44, 127
2, 153978, Note_off_c, 6, 66, 127
2, 153982, Note_on_c, 3, 75, 127
2, 153982, Note_on_c, 6, 54, 127
2, 154130, Note_off_c, 6, 54, 127
2, 154134, Note_on_c, 8, 44, 127
2, 154282, Note_off_c, 8, 44, 127
2, 154282, Note_off_c, 3, 75, 127
2, 154286, Note_on_c, 0, 72, 127
2, 154286, Note_on_c, 5, 53, 127
2, 154434, Note_off_c, 5, 53, 127
2, 154438, Note_on_c, 8, 44, 127
2, 154586, Note_off_c, 8, 44, 127
2, 154586, Note_off_c, 0, 72, 127
2, 154590, Note_on_c, 6, 66, 127
2, 154590, Note_on_c, 3, 51, 127
2, 154742, Note_on_c, 8, 44, 127
2, 154779, Note_off_c, 3, 51, 127
2, 154890, Note_off_c, 8, 44, 127
2, 154890, Note_off_c, 6, 66, 127
2, 154894, Note_on_c, 5, 65, 127
2, 154894, Note_on_c, 1, 49, 127
2, 155042, Note_off_c, 1, 49, 127
2, 155042, Note_off_c, 5, 65, 127
2, 155046, Note_on_c, 3, 63, 127
2, 155046, Note_on_c, 0, 48, 127
2, 155194, Note_off_c, 0, 48, 127
2, 155194, Note_off_c, 3, 63, 127
2, 155198, Note_on_c, 5, 65, 127
2, 155198, Note_on_c, 1, 49, 127
2, 155346, Note_off_c, 5, 65, 127
2, 155350, Note_on_c, 8, 68, 127
2, 155350, Note_on_c, 8, 44, 127
2, 155450, Note_off_c, 1, 49, 127
2, 155499, Note_off_c, 8, 44, 127
2, 155499, Note_off_c, 8, 68, 127
2, 155502, Note_on_c, 11, 70, 127
2, 155502, Note_on_c, 5, 53, 127
2, 155650, Note_off_c, 5, 53, 127
2, 155650, Note_off_c, 11, 70, 127
2, 155654, Note_on_c, 0, 72, 127
2, 155654, Note_on_c, 3, 51, 127
2, 155802, Note_off_c, 3, 51, 127
2, 155802, Note_off_c, 0, 72, 127
2, 155806, Note_on_c, 1, 73, 127
2, 155806, Note_on_c, 5, 53, 127
2, 155954, Note_off_c, 1, 73, 127
2, 155958, Note_on_c, 3, 75, 127
2, 155958, Note_on_c, 8, 44, 127
2, 156106, Note_off_c, 8, 44, 127
2, 156106, Note_off_c, 3, 75, 127
2, 156106, Note_off_c, 5, 53, 127
2, 156110, Note_on_c, 5, 77, 127
2, 156110, Note_on_c, 8, 56, 127
2, 156258, Note_off_c, 8, 56, 127
2, 156258, Note_off_c, 5, 77, 127
2, 156262, Note_on_c, 3, 75, 127
2, 156262, Note_on_c, 6, 54, 127
2, 156410, Note_off_c, 6, 54, 127
2, 156410, Note_off_c, 3, 75, 127
2, 156414, Note_on_c, 6, 78, 127
2, 156414, Note_on_c, 8, 56, 127
2, 156562, Note_off_c, 6, 78, 127
2, 156567, Note_on_c, 5, 77, 127
2, 156567, Note_on_c, 8, 44, 127
2, 156666, Note_off_c, 8, 56, 127
2, 156716, Note_off_c, 8, 44, 127
2, 156716, Note_off_c, 5, 77, 127
2, 156720, Note_on_c, 3, 75, 127
2, 156720, Note_on_c, 11, 58, 127
2, 156868, Note_off_c, 3, 75, 127
2, 156872, Note_on_c, 1, 73, 127
2, 156872, Note_on_c, 8, 44, 127
2, 156972, Note_off_c, 11, 58, 127
2, 157021, Note_off_c, 8, 44, 127
2, 157021, Note_off_c, 1, 73, 127
2, 157025, Note_on_c, 7, 79, 127
2, 157025, Note_on_c, 0, 60, 127
2, 157173, Note_off_c, 0, 60, 127
2, 157173, Note_off_c, 7, 79, 127
2, 157177, Note_on_c, 8, 80, 127
2, 157177, Note_on_c, 1, 61, 127
2, 157249, Note_off_c, 8, 80, 127
2, 157252, Note_on_c, 11, 82, 127
2, 157324, Note_off_c, 11, 82, 127
2, 157325, Note_off_c, 1, 61, 127
2, 157329, Note_on_c, 8, 80, 127
2, 157329, Note_on_c, 3, 63, 127
2, 157401, Note_off_c, 8, 80, 127
2, 157405, Note_on_c, 11, 82, 127
2, 157477, Note_off_c, 11, 82, 127
2, 157477, Note_off_c, 3, 63, 127
2, 157481, Note_on_c, 8, 80, 127
2, 157481, Note_on_c, 0, 60, 127
2, 157553, Note_off_c, 8, 80, 127
2, 157557, Note_on_c, 11, 82, 127
2, 157629, Note_off_c, 11, 82, 127
2, 157629, Note_off_c, 0, 60, 127
2, 157633, Note_on_c, 8, 80, 127
2, 157633, Note_on_c, 8, 56, 127
2, 157705, Note_off_c, 8, 80, 127
2, 157709, Note_on_c, 11, 82, 127
2, 157781, Note_off_c, 11, 82, 127
2, 157781, Note_off_c, 8, 56, 127
2, 157785, Note_on_c, 8, 80, 127
2, 157785, Note_on_c, 0, 60, 127
2, 157857, Note_off_c, 8, 80, 127
2, 157861, Note_on_c, 11, 82, 127
2, 157933, Note_off_c, 11, 82, 127
2, 157933, Note_off_c, 0, 60, 127
2, 157937, Note_on_c, 8, 80, 127
2, 157937, Note_on_c, 3, 63, 127
2, 158009, Note_off_c, 8, 80, 127
2, 158013, Note_on_c, 11, 82, 127
2, 158085, Note_off_c, 11, 82, 127
2, 158085, Note_off_c, 3, 63, 127
2, 158089, Note_on_c, 8, 80, 127
2, 158089, Note_on_c, 5, 65, 127
2, 158237, Note_off_c, 5, 65, 127
2, 158241, Note_on_c, 6, 66, 127
2, 158389, Note_off_c, 6, 66, 127
2, 158389, Note_off_c, 8, 80, 127
2, 158393, Note_on_c, 8, 80, 127
2, 158393, Note_on_c, 5, 65, 127
2, 158541, Note_off_c, 5, 65, 127
2, 158541, Note_off_c, 8, 80, 127
2, 158545, Note_on_c, 6, 78, 127
2, 158545, Note_on_c, 3, 63, 127
2, 158693, Note_off_c, 3, 63, 127
2, 158693, Note_off_c, 6, 78, 127
2, 158697, Note_on_c, 8, 80, 127
2, 158697, Note_on_c, 5, 65, 127
2, 158845, Note_off_c, 5, 65, 127
2, 158845, Note_off_c, 8, 80, 127
2, 158849, Note_on_c, 5, 77, 127
2, 158849, Note_on_c, 1, 73, 127
2, 159000, Note_on_c, 8, 80, 127
2, 159038, Note_off_c, 5, 77, 127
2, 159148, Note_off_c, 8, 80, 127
2, 159149, Note_off_c, 1, 73, 127
2, 159152, Note_on_c, 3, 75, 127
2, 159152, Note_on_c, 8, 68, 127
2, 159305, Note_on_c, 8, 80, 127
2, 159341, Note_off_c, 3, 75, 127
2, 159452, Note_off_c, 8, 68, 127
2, 159453, Note_off_c, 8, 80, 127
2, 159457, Note_on_c, 1, 73, 127
2, 159457, Note_on_c, 5, 65, 127
2, 159605, Note_off_c, 1, 73, 127
2, 159609, Note_on_c, 8, 80, 127
2, 159757, Note_off_c, 8, 80, 127
2, 159757, Note_off_c, 5, 65, 127
2, 159761, Note_on_c, 0, 72, 127
2, 159761, Note_on_c, 3, 63, 127
2, 159909, Note_off_c, 3, 63, 127
2, 159909, Note_off_c, 0, 72, 127
2, 159913, Note_on_c, 11, 70, 127
2, 159913, Note_on_c, 1, 61, 127
2, 160061, Note_off_c, 1, 61, 127
2, 160061, Note_off_c, 11, 70, 127
2, 160065, Note_on_c, 0, 72, 127
2, 160065, Note_on_c, 3, 63, 127
2, 160213, Note_off_c, 3, 63, 127
2, 160213, Note_off_c, 0, 72, 127
2, 160217, Note_on_c, 3, 75, 127
2, 160217, Note_on_c, 8, 56, 127
2, 160365, Note_off_c, 8, 56, 127
2, 160365, Note_off_c, 3, 75, 127
2, 160369, Note_on_c, 5, 77, 127
2, 160369, Note_on_c, 0, 60, 127
2, 160517, Note_off_c, 0, 60, 127
2, 160517, Note_off_c, 5, 77, 127
2, 160521, Note_on_c, 6, 78, 127
2, 160521, Note_on_c, 3, 63, 127
2, 160669, Note_off_c, 3, 63, 127
2, 160669, Note_off_c, 6, 78, 127
2, 160673, Note_on_c, 8, 80, 127
2, 160673, Note_on_c, 5, 65, 127
2, 160821, Note_off_c, 5, 65, 127
2, 160821, Note_off_c, 8, 80, 127
2, 160825, Note_on_c, 6, 78, 127
2, 160825, Note_on_c, 3, 63, 127
2, 160973, Note_off_c, 3, 63, 127
2, 160973, Note_off_c, 6, 78, 127
2, 160977, Note_on_c, 5, 77, 127
2, 160977, Note_on_c, 1, 61, 127
2, 161125, Note_off_c, 1, 61, 127
2, 161125, Note_off_c, 5, 77, 127
2, 161129, Note_on_c, 8, 80, 127
2, 161129, Note_on_c, 3, 63, 127
2, 161277, Note_off_c, 3, 63, 127
2, 161277, Note_off_c, 8, 80, 127
2, 161281, Note_on_c, 3, 75, 127
2, 161281, Note_on_c, 0, 72, 127
2, 161433, Note_on_c, 8, 80, 127
2, 161470, Note_off_c, 3, 75, 127
2, 161581, Note_off_c, 8, 80, 127
2, 161581, Note_off_c, 0, 72, 127
2, 161585, Note_on_c, 1, 73, 127
2, 161585, Note_on_c, 8, 68, 127
2, 161737, Note_on_c, 8, 80, 127
2, 161774, Note_off_c, 1, 73, 127
2, 161885, Note_off_c, 8, 80, 127
2, 161885, Note_off_c, 8, 68, 127
2, 161889, Note_on_c, 0, 72, 127
2, 161889, Note_on_c, 3, 63, 127
2, 162037, Note_off_c, 0, 72, 127
2, 162041, Note_on_c, 8, 80, 127
2, 162189, Note_off_c, 8, 80, 127
2, 162189, Note_off_c, 3, 63, 127
2, 162193, Note_on_c, 11, 70, 127
2, 162193, Note_on_c, 1, 61, 127
2, 162341, Note_off_c, 1, 61, 127
2, 162341, Note_off_c, 11, 70, 127
2, 162345, Note_on_c, 8, 68, 127
2, 162345, Note_on_c, 0, 60, 127
2, 162493, Note_off_c, 0, 60, 127
2, 162493, Note_off_c, 8, 68, 127
2, 162497, Note_on_c, 11, 70, 127
2, 162497, Note_on_c, 1, 61, 127
2, 162645, Note_off_c, 1, 61, 127
2, 162645, Note_off_c, 11, 70, 127
2, 162649, Note_on_c, 1, 73, 127
2, 162649, Note_on_c, 8, 56, 127
2, 162797, Note_off_c, 8, 56, 127
2, 162797, Note_off_c, 1, 73, 127
2, 162800, Note_on_c, 3, 75, 127
2, 162800, Note_on_c, 0, 60, 127
2, 162948, Note_off_c, 0, 60, 127
2, 162948, Note_off_c, 3, 75, 127
2, 162952, Note_on_c, 5, 77, 127
2, 162952, Note_on_c, 1, 61, 127
2, 163100, Note_off_c, 1, 61, 127
2, 163100, Note_off_c, 5, 77, 127
2, 163105, Note_on_c, 6, 78, 127
2, 163105, Note_on_c, 3, 63, 127
2, 163253, Note_off_c, 3, 63, 127
2, 163253, Note_off_c, 6, 78, 127
2, 163257, Note_on_c, 5, 77, 127
2, 163257, Note_on_c, 1, 61, 127
2, 163405, Note_off_c, 1, 61, 127
2, 163405, Note_off_c, 5, 77, 127
2, 163409, Note_on_c, 3, 75, 127
2, 163409, Note_on_c, 0, 60, 127
2, 163557, Note_off_c, 0, 60, 127
2, 163557, Note_off_c, 3, 75, 127
2, 163561, Note_on_c, 5, 77, 127
2, 163561, Note_on_c, 1, 61, 127
2, 163709, Note_off_c, 1, 61, 127
2, 163709, Note_off_c, 5, 77, 127
2, 163713, Note_on_c, 1, 73, 127
2, 163713, Note_on_c, 11, 70, 127
2, 163865, Note_on_c, 5, 77, 127
2, 163902, Note_off_c, 1, 73, 127
2, 164013, Note_off_c, 5, 77, 127
2, 164013, Note_off_c, 11, 70, 127
2, 164017, Note_on_c, 0, 72, 127
2, 164017, Note_on_c, 7, 67, 127
2, 164169, Note_on_c, 5, 77, 127
2, 164206, Note_off_c, 0, 72, 127
2, 164317, Note_off_c, 5, 77, 127
2, 164317, Note_off_c, 7, 67, 127
2, 164321, Note_on_c, 11, 70, 127
2, 164321, Note_on_c, 1, 61, 127
2, 164469, Note_off_c, 11, 70, 127
2, 164473, Note_on_c, 5, 77, 127
2, 164621, Note_off_c, 5, 77, 127
2, 164621, Note_off_c, 1, 61, 127
2, 164625, Note_on_c, 8, 68, 127
2, 164625, Note_on_c, 0, 60, 127
2, 164773, Note_off_c, 0, 60, 127
2, 164773, Note_off_c, 8, 68, 127
2, 164777, Note_on_c, 7, 67, 127
2, 164777, Note_on_c, 11, 58, 127
2, 164925, Note_off_c, 11, 58, 127
2, 164925, Note_off_c, 7, 67, 127
2, 164929, Note_on_c, 8, 68, 127
2, 164929, Note_on_c, 0, 60, 127
2, 165077, Note_off_c, 0, 60, 127
2, 165077, Note_off_c, 8, 68, 127
2, 165081, Note_on_c, 0, 72, 127
2, 165081, Note_on_c, 8, 56, 127
2, 165229, Note_off_c, 8, 56, 127
2, 165229, Note_off_c, 0, 72, 127
2, 165233, Note_on_c, 1, 73, 127
2, 165233, Note_on_c, 11, 58, 127
2, 165381, Note_off_c, 11, 58, 127
2, 165381, Note_off_c, 1, 73, 127
2, 165385, Note_on_c, 3, 75, 127
2, 165385, Note_on_c, 0, 60, 127
2, 165533, Note_off_c, 0, 60, 127
2, 165533, Note_off_c, 3, 75, 127
2, 165537, Note_on_c, 5, 77, 127
2, 165537, Note_on_c, 1, 61, 127
2, 165685, Note_off_c, 1, 61, 127
2, 165685, Note_off_c, 5, 77, 127
2, 165689, Note_on_c, 6, 78, 127
2, 165689, Note_on_c, 3, 63, 127
2, 165837, Note_off_c, 3, 63, 127
2, 165837, Note_off_c, 6, 78, 127
2, 165841, Note_on_c, 8, 80, 127
2, 165841, Note_on_c, 5, 65, 127
2, 165989, Note_off_c, 5, 65, 127
2, 165989, Note_off_c, 8, 80, 127
2, 165993, Note_on_c, 11, 82, 127
2, 165993, Note_on_c, 3, 63, 127
2, 166141, Note_off_c, 3, 63, 127
2, 166141, Note_off_c, 11, 82, 127
2, 166145, Note_on_c, 0, 72, 127
2, 166145, Note_on_c, 6, 66, 127
2, 166293, Note_off_c, 6, 66, 127
2, 166297, Note_on_c, 5, 65, 127
2, 166365, Note_off_c, 0, 72, 127
2, 166445, Note_off_c, 5, 65, 127
2, 166449, Note_on_c, 8, 68, 127
2, 166449, Note_on_c, 3, 63, 127
2, 166597, Note_off_c, 3, 63, 127
2, 166600, Note_on_c, 1, 61, 127
2, 166748, Note_off_c, 1, 61, 127
2, 166749, Note_off_c, 8, 68, 127
2, 166752, Note_on_c, 11, 70, 127
2, 166752, Note_on_c, 6, 66, 127
2, 166900, Note_off_c, 11, 70, 127
2, 166905, Note_on_c, 8, 68, 127
2, 167052, Note_off_c, 6, 66, 127
2, 167053, Note_off_c, 8, 68, 127
2, 167057, Note_on_c, 6, 66, 127
2, 167057, Note_on_c, 11, 58, 127
2, 167205, Note_off_c, 11, 58, 127
2, 167205, Note_off_c, 6, 66, 127
2, 167209, Note_on_c, 8, 68, 127
2, 167209, Note_on_c, 0, 60, 127
2, 167357, Note_off_c, 0, 60, 127
2, 167357, Note_off_c, 8, 68, 127
2, 167361, Note_on_c, 5, 77, 127
2, 167361, Note_on_c, 1, 61, 127
2, 167509, Note_off_c, 1, 61, 127
2, 167513, Note_on_c, 0, 60, 127
2, 167661, Note_off_c, 0, 60, 127
2, 167661, Note_off_c, 5, 77, 127
2, 167665, Note_on_c, 1, 73, 127
2, 167665, Note_on_c, 11, 58, 127
2, 167813, Note_off_c, 11, 58, 127
2, 167817, Note_on_c, 8, 56, 127
2, 167965, Note_off_c, 8, 56, 127
2, 167965, Note_off_c, 1, 73, 127
2, 167969, Note_on_c, 11, 70, 127
2, 167969, Note_on_c, 11, 58, 127
2, 168041, Note_off_c, 11, 70, 127
2, 168045, Note_on_c, 8, 68, 127
2, 168117, Note_off_c, 8, 68, 127
2, 168121, Note_on_c, 11, 70, 127
2, 168193, Note_off_c, 11, 70, 127
2, 168197, Note_on_c, 8, 68, 127
2, 168269, Note_off_c, 8, 68, 127
2, 168273, Note_on_c, 6, 66, 127
2, 168421, Note_off_c, 6, 66, 127
2, 168425, Note_on_c, 5, 65, 127
2, 168573, Note_off_c, 5, 65, 127
2, 168577, Note_on_c, 6, 66, 127
2, 168724, Note_off_c, 11, 58, 127
2, 168729, Note_on_c, 8, 56, 127
2, 168877, Note_off_c, 8, 56, 127
2, 168877, Note_off_c, 6, 66, 127
2, 168881, Note_on_c, 3, 75, 127
2, 168881, Note_on_c, 6, 54, 127
2, 169029, Note_off_c, 6, 54, 127
2, 169033, Note_on_c, 11, 58, 127
2, 169181, Note_off_c, 11, 58, 127
2, 169181, Note_off_c, 3, 75, 127
2, 169185, Note_on_c, 5, 65, 127
2, 169185, Note_on_c, 8, 56, 127
2, 169333, Note_off_c, 8, 56, 127
2, 169337, Note_on_c, 6, 54, 127
2, 169485, Note_off_c, 6, 54, 127
2, 169485, Note_off_c, 5, 65, 127
2, 169489, Note_on_c, 1, 73, 127
2, 169489, Note_on_c, 5, 53, 127
2, 169637, Note_off_c, 5, 53, 127
2, 169641, Note_on_c, 8, 56, 127
2, 169789, Note_off_c, 8, 56, 127
2, 169789, Note_off_c, 1, 73, 127
2, 169793, Note_on_c, 3, 63, 127
2, 169793, Note_on_c, 6, 54, 127
2, 169941, Note_off_c, 6, 54, 127
2, 169945, Note_on_c, 5, 53, 127
2, 170093, Note_off_c, 5, 53, 127
2, 170093, Note_off_c, 3, 63, 127
2, 170097, Note_on_c, 0, 72, 127
2, 170097, Note_on_c, 6, 54, 127
2, 170245, Note_off_c, 6, 54, 127
2, 170249, Note_on_c, 3, 51, 127
2, 170397, Note_off_c, 3, 51, 127
2, 170397, Note_off_c, 0, 72, 127
2, 170400, Note_on_c, 1, 61, 127
2, 170400, Note_on_c, 5, 53, 127
2, 170700, Note_off_c, 1, 61, 127
2, 170706, Note_on_c, 1, 73, 127
2, 170852, Note_off_c, 5, 53, 127
2, 170854, Note_off_c, 1, 73, 127
2, 170858, Note_on_c, 0, 72, 127
2, 170858, Note_on_c, 8, 56, 127
2, 171006, Note_off_c, 8, 56, 127
2, 171006, Note_off_c, 0, 72, 127
2, 171010, Note_on_c, 1, 73, 127
2, 171010, Note_on_c, 11, 58, 127
2, 171158, Note_off_c, 11, 58, 127
2, 171158, Note_off_c, 1, 73, 127
2, 171162, Note_on_c, 3, 75, 127
2, 171162, Note_on_c, 0, 60, 127
2, 171310, Note_off_c, 0, 60, 127
2, 171310, Note_off_c, 3, 75, 127
2, 171314, Note_on_c, 5, 77, 127
2, 171314, Note_on_c, 1, 61, 127
2, 171462, Note_off_c, 5, 77, 127
2, 171466, Note_on_c, 6, 78, 127
2, 171466, Note_on_c, 3, 63, 127
2, 171614, Note_off_c, 3, 63, 127
2, 171614, Note_off_c, 6, 78, 127
2, 171618, Note_on_c, 8, 80, 127
2, 171618, Note_on_c, 5, 65, 127
2, 171766, Note_off_c, 5, 65, 127
2, 171766, Note_off_c, 8, 80, 127
2, 171770, Note_on_c, 6, 78, 127
2, 171770, Note_on_c, 3, 63, 127
2, 171900, Note_off_c, 1, 61, 127
2, 171918, Note_off_c, 3, 63, 127
2, 171918, Note_off_c, 6, 78, 127
2, 171922, Note_on_c, 5, 77, 127
2, 171922, Note_on_c, 1, 61, 127
2, 172070, Note_off_c, 5, 77, 127
2, 172074, Note_on_c, 6, 78, 127
2, 172074, Note_on_c, 3, 63, 127
2, 172222, Note_off_c, 3, 63, 127
2, 172222, Note_off_c, 6, 78, 127
2, 172222, Note_off_c, 1, 61, 127
2, 172226, Note_on_c, 8, 80, 127
2, 172226, Note_on_c, 0, 72, 127
2, 172226, Note_on_c, 0, 60, 127
2, 172374, Note_off_c, 8, 80, 127
2, 172378, Note_on_c, 6, 78, 127
2, 172526, Note_off_c, 6, 78, 127
2, 172526, Note_off_c, 0, 72, 127
2, 172530, Note_on_c, 5, 77, 127
2, 172530, Note_on_c, 8, 68, 127
2, 172678, Note_off_c, 5, 77, 127
2, 172682, Note_on_c, 3, 75, 127
2, 172830, Note_off_c, 3, 75, 127
2, 172830, Note_off_c, 8, 68, 127
2, 172834, Note_on_c, 5, 77, 127
2, 172834, Note_on_c, 5, 65, 127
2, 172906, Note_off_c, 5, 65, 127
2, 172910, Note_on_c, 3, 63, 127
2, 172982, Note_off_c, 3, 63, 127
2, 172986, Note_on_c, 5, 65, 127
2, 173058, Note_off_c, 5, 65, 127
2, 173062, Note_on_c, 3, 63, 127
2, 173134, Note_off_c, 3, 63, 127
2, 173138, Note_on_c, 1, 61, 127
2, 173254, Note_off_c, 0, 60, 127
2, 173286, Note_off_c, 1, 61, 127
2, 173290, Note_on_c, 0, 60, 127
2, 173438, Note_off_c, 0, 60, 127
2, 173442, Note_on_c, 1, 61, 127
2, 173442, Note_on_c, 11, 58, 127
2, 173589, Note_off_c, 5, 77, 127
2, 173594, Note_on_c, 3, 75, 127
2, 173742, Note_off_c, 3, 75, 127
2, 173742, Note_off_c, 1, 61, 127
2, 173746, Note_on_c, 1, 73, 127
2, 173746, Note_on_c, 11, 70, 127
2, 173894, Note_off_c, 1, 73, 127
2, 173898, Note_on_c, 5, 77, 127
2, 174046, Note_off_c, 5, 77, 127
2, 174046, Note_off_c, 11, 70, 127
2, 174050, Note_on_c, 3, 75, 127
2, 174050, Note_on_c, 0, 60, 127
2, 174198, Note_off_c, 3, 75, 127
2, 174202, Note_on_c, 1, 73, 127
2, 174349, Note_off_c, 11, 58, 127
2, 174350, Note_off_c, 1, 73, 127
2, 174350, Note_off_c, 0, 60, 127
2, 174354, Note_on_c, 0, 72, 127
2, 174354, Note_on_c, 8, 68, 127
2, 174354, Note_on_c, 8, 56, 127
2, 174502, Note_off_c, 0, 72, 127
2, 174506, Note_on_c, 3, 75, 127
2, 174654, Note_off_c, 3, 75, 127
2, 174654, Note_off_c, 8, 56, 127
2, 174658, Note_on_c, 1, 73, 127
2, 174658, Note_on_c, 11, 58, 127
2, 174806, Note_off_c, 1, 73, 127
2, 174810, Note_on_c, 0, 72, 127
2, 174957, Note_off_c, 8, 68, 127
2, 174958, Note_off_c, 0, 72, 127
2, 174958, Note_off_c, 11, 58, 127
2, 174962, Note_on_c, 1, 73, 127
2, 174962, Note_on_c, 7, 67, 127
2, 174962, Note_on_c, 3, 51, 127
2, 175110, Note_off_c, 1, 73, 127
2, 175114, Note_on_c, 11, 70, 127
2, 175262, Note_off_c, 11, 70, 127
2, 175262, Note_off_c, 3, 51, 127
2, 175262, Note_off_c, 7, 67, 127
2, 175266, Note_on_c, 0, 72, 127
2, 175266, Note_on_c, 8, 56, 127
2, 175566, Note_off_c, 0, 72, 127
2, 175571, Note_on_c, 3, 75, 127
2, 175571, Note_on_c, 8, 68, 127
2, 175719, Note_off_c, 8, 68, 127
2, 175723, Note_on_c, 6, 66, 127
2, 175871, Note_off_c, 6, 66, 127
2, 175871, Note_off_c, 3, 75, 127
2, 175875, Note_on_c, 6, 78, 127
2, 175875, Note_on_c, 8, 68, 127
2, 176023, Note_off_c, 8, 68, 127
2, 176027, Note_on_c, 11, 70, 127
2, 176174, Note_off_c, 8, 56, 127
2, 176175, Note_off_c, 11, 70, 127
2, 176179, Note_on_c, 0, 72, 127
2, 176179, Note_on_c, 8, 56, 127
2, 176327, Note_off_c, 0, 72, 127
2, 176331, Note_on_c, 8, 68, 127
2, 176479, Note_off_c, 8, 68, 127
2, 176479, Note_off_c, 8, 56, 127
2, 176483, Note_on_c, 1, 73, 127
2, 176483, Note_on_c, 11, 58, 127
2, 176631, Note_off_c, 11, 58, 127
2, 176631, Note_off_c, 1, 73, 127
2, 176635, Note_on_c, 0, 72, 127
2, 176635, Note_on_c, 8, 56, 127
2, 176783, Note_off_c, 8, 56, 127
2, 176783, Note_off_c, 0, 72, 127
2, 176787, Note_on_c, 11, 70, 127
2, 176787, Note_on_c, 6, 54, 127
2, 176935, Note_off_c, 6, 54, 127
2, 176935, Note_off_c, 11, 70, 127
2, 176939, Note_on_c, 0, 72, 127
2, 176939, Note_on_c, 8, 56, 127
2, 177086, Note_off_c, 6, 78, 127
2, 177087, Note_off_c, 8, 56, 127
2, 177087, Note_off_c, 0, 72, 127
2, 177091, Note_on_c, 5, 77, 127
2, 177091, Note_on_c, 1, 73, 127
2, 177091, Note_on_c, 5, 65, 127
2, 177239, Note_off_c, 1, 73, 127
2, 177244, Note_on_c, 0, 72, 127
2, 177391, Note_off_c, 5, 65, 127
2, 177392, Note_off_c, 0, 72, 127
2, 177396, Note_on_c, 11, 70, 127
2, 177396, Note_on_c, 1, 61, 127
2, 177544, Note_off_c, 11, 70, 127
2, 177548, Note_on_c, 8, 68, 127
2, 177696, Note_off_c, 8, 68, 127
2, 177696, Note_off_c, 1, 61, 127
2, 177700, Note_on_c, 11, 70, 127
2, 177700, Note_on_c, 11, 58, 127
2, 177848, Note_off_c, 11, 58, 127
2, 177851, Note_on_c, 8, 56, 127
2, 177999, Note_off_c, 8, 56, 127
2, 178003, Note_on_c, 6, 54, 127
2, 178151, Note_off_c, 6, 54, 127
2, 178155, Note_on_c, 5, 53, 127
2, 178302, Note_off_c, 5, 77, 127
2, 178303, Note_off_c, 5, 53, 127
2, 178307, Note_on_c, 3, 75, 127
2, 178307, Note_on_c, 6, 54, 127
2, 178455, Note_off_c, 11, 70, 127
2, 178459, Note_on_c, 8, 68, 127
2, 178607, Note_off_c, 8, 68, 127
2, 178607, Note_off_c, 6, 54, 127
2, 178611, Note_on_c, 6, 66, 127
2, 178611, Note_on_c, 3, 63, 127
2, 178759, Note_off_c, 6, 66, 127
2, 178763, Note_on_c, 11, 70, 127
2, 178911, Note_off_c, 11, 70, 127
2, 178911, Note_off_c, 3, 63, 127
2, 178915, Note_on_c, 8, 68, 127
2, 178915, Note_on_c, 5, 53, 127
2, 179063, Note_off_c, 8, 68, 127
2, 179067, Note_on_c, 6, 66, 127
2, 179214, Note_off_c, 3, 75, 127
2, 179215, Note_off_c, 6, 66, 127
2, 179215, Note_off_c, 5, 53, 127
2, 179219, Note_on_c, 1, 73, 127
2, 179219, Note_on_c, 5, 65, 127
2, 179219, Note_on_c, 1, 61, 127
2, 179367, Note_off_c, 5, 65, 127
2, 179371, Note_on_c, 8, 68, 127
2, 179519, Note_off_c, 8, 68, 127
2, 179519, Note_off_c, 1, 61, 127
2, 179519, Note_off_c, 1, 73, 127
2, 179523, Note_on_c, 0, 72, 127
2, 179523, Note_on_c, 6, 66, 127
2, 179523, Note_on_c, 3, 51, 127
2, 179671, Note_off_c, 6, 66, 127
2, 179675, Note_on_c, 5, 65, 127
2, 179823, Note_off_c, 5, 65, 127
2, 179823, Note_off_c, 3, 51, 127
2, 179823, Note_off_c, 0, 72, 127
2, 179827, Note_on_c, 3, 75, 127
2, 179827, Note_on_c, 6, 66, 127
2, 179827, Note_on_c, 0, 60, 127
2, 179975, Note_off_c, 6, 66, 127
2, 179979, Note_on_c, 3, 63, 127
2, 180127, Note_off_c, 3, 63, 127
2, 180127, Note_off_c, 0, 60, 127
2, 180131, Note_on_c, 5, 65, 127
2, 180131, Note_on_c, 1, 49, 127
2, 180281, Note_off_c, 1, 49, 127
2, 180286, Note_on_c, 8, 44, 127
2, 180435, Note_off_c, 3, 75, 127
2, 180436, Note_off_c, 8, 44, 127
2, 180440, Note_on_c, 8, 68, 127
2, 180440, Note_on_c, 1, 49, 127
2, 180590, Note_off_c, 1, 49, 127
2, 180594, Note_on_c, 3, 51, 127
2, 180744, Note_off_c, 3, 51, 127
2, 180744, Note_off_c, 8, 68, 127
2, 180749, Note_on_c, 1, 73, 127
2, 180749, Note_on_c, 5, 53, 127
2, 180899, Note_off_c, 5, 53, 127
2, 180902, Note_on_c, 6, 54, 127
2, 181052, Note_off_c, 6, 54, 127
2, 181053, Note_off_c, 1, 73, 127
2, 181056, Note_on_c, 12, 71, 127
2, 181056, Note_on_c, 8, 56, 127
2, 181206, Note_off_c, 8, 56, 127
2, 181211, Note_on_c, 5, 53, 127
2, 181360, Note_off_c, 12, 71, 127
2, 181361, Note_off_c, 5, 53, 127
2, 181362, Note_off_c, 5, 65, 127
2, 181364, Note_on_c, 11, 70, 127
2, 181364, Note_on_c, 6, 54, 127
2, 181514, Note_off_c, 6, 54, 127
2, 181518, Note_on_c, 6, 42, 127
2, 181668, Note_off_c, 6, 42, 127
2, 181672, Note_on_c, 1, 61, 127
2, 181672, Note_on_c, 6, 54, 127
2, 181822, Note_off_c, 6, 54, 127
2, 181827, Note_on_c, 5, 53, 127
2, 181976, Note_off_c, 1, 61, 127
2, 181977, Note_off_c, 5, 53, 127
2, 181981, Note_on_c, 6, 66, 127
2, 181981, Note_on_c, 6, 54, 127
2, 182131, Note_off_c, 6, 54, 127
2, 182135, Note_on_c, 8, 56, 127
2, 182285, Note_off_c, 8, 56, 127
2, 182285, Note_off_c, 6, 66, 127
2, 182290, Note_on_c, 5, 65, 127
2, 182290, Note_on_c, 11, 58, 127
2, 182440, Note_off_c, 11, 58, 127
2, 182444, Note_on_c, 6, 54, 127
2, 182594, Note_off_c, 6, 54, 127
2, 182594, Note_off_c, 5, 65, 127
2, 182595, Note_off_c, 11, 70, 127
2, 182597, Note_on_c, 6, 66, 127
2, 182597, Note_on_c, 3, 51, 127
2, 182747, Note_off_c, 3, 51, 127
2, 182750, Note_on_c, 5, 53, 127
2, 182900, Note_off_c, 5, 53, 127
2, 182905, Note_on_c, 11, 70, 127
2, 182905, Note_on_c, 6, 54, 127
2, 183055, Note_off_c, 6, 54, 127
2, 183055, Note_off_c, 11, 70, 127
2, 183055, Note_off_c, 6, 66, 127
2, 183059, Note_on_c, 6, 66, 127
2, 183059, Note_on_c, 3, 51, 127
2, 183209, Note_off_c, 3, 51, 127
2, 183213, Note_on_c, 3, 63, 127
2, 183213, Note_on_c, 0, 48, 127
2, 183363, Note_off_c, 0, 48, 127
2, 183368, Note_on_c, 1, 49, 127
2, 183517, Note_off_c, 6, 66, 127
2, 183518, Note_off_c, 1, 49, 127
2, 183522, Note_on_c, 6, 66, 127
2, 183522, Note_on_c, 3, 51, 127
2, 183671, Note_off_c, 3, 63, 127
2, 183672, Note_off_c, 3, 51, 127
2, 183672, Note_off_c, 6, 66, 127
2, 183676, Note_on_c, 3, 63, 127
2, 183676, Note_on_c, 0, 48, 127
2, 183826, Note_off_c, 0, 48, 127
2, 183831, Note_on_c, 8, 56, 127
2, 183831, Note_on_c, 5, 41, 127
2, 184134, Note_off_c, 3, 63, 127
2, 184135, Note_off_c, 5, 41, 127
2, 184139, Note_on_c, 3, 63, 127
2, 184139, Note_on_c, 5, 53, 127
2, 184289, Note_off_c, 5, 53, 127
2, 184294, Note_on_c, 3, 51, 127
2, 184443, Note_off_c, 3, 63, 127
2, 184444, Note_off_c, 3, 51, 127
2, 184448, Note_on_c, 8, 68, 127
2, 184448, Note_on_c, 5, 53, 127
2, 184598, Note_off_c, 5, 53, 127
2, 184601, Note_on_c, 6, 54, 127
2, 184751, Note_off_c, 6, 54, 127
2, 184752, Note_off_c, 8, 56, 127
2, 184756, Note_on_c, 0, 60, 127
2, 184756, Note_on_c, 8, 56, 127
2, 184906, Note_off_c, 8, 56, 127
2, 184910, Note_on_c, 5, 53, 127
2, 185060, Note_off_c, 5, 53, 127
2, 185060, Note_off_c, 0, 60, 127
2, 185064, Note_on_c, 5, 65, 127
2, 185064, Note_on_c, 2, 50, 127
2, 185214, Note_off_c, 2, 50, 127
2, 185219, Note_on_c, 3, 51, 127
2, 185369, Note_off_c, 3, 51, 127
2, 185369, Note_off_c, 8, 68, 127
2, 185373, Note_on_c, 8, 68, 127
2, 185373, Note_on_c, 5, 53, 127
2, 185522, Note_off_c, 5, 65, 127
2, 185523, Note_off_c, 5, 53, 127
2, 185523, Note_off_c, 8, 68, 127
2, 185527, Note_on_c, 5, 65, 127
2, 185527, Note_on_c, 2, 50, 127
2, 185677, Note_off_c, 2, 50, 127
2, 185682, Note_on_c, 2, 62, 127
2, 185682, Note_on_c, 11, 46, 127
2, 185832, Note_off_c, 11, 46, 127
2, 185836, Note_on_c, 0, 48, 127
2, 185985, Note_off_c, 5, 65, 127
2, 185986, Note_off_c, 0, 48, 127
2, 185990, Note_on_c, 5, 65, 127
2, 185990, Note_on_c, 2, 50, 127
2, 186140, Note_off_c, 2, 50, 127
2, 186140, Note_off_c, 5, 65, 127
2, 186140, Note_off_c, 2, 62, 127
2, 186144, Note_on_c, 2, 62, 127
2, 186144, Note_on_c, 11, 46, 127
2, 186294, Note_off_c, 11, 46, 127
2, 186294, Note_off_c, 2, 62, 127
2, 186299, Note_on_c, 6, 54, 127
2, 186299, Note_on_c, 3, 39, 127
2, 186603, Note_off_c, 3, 39, 127
2, 186603, Note_off_c, 6, 54, 127
2, 186606, Note_on_c, 11, 58, 127
2, 186606, Note_on_c, 3, 51, 127
2, 186756, Note_off_c, 3, 51, 127
2, 186761, Note_on_c, 2, 50, 127
2, 186910, Note_off_c, 11, 58, 127
2, 186911, Note_off_c, 2, 50, 127
2, 186915, Note_on_c, 6, 66, 127
2, 186915, Note_on_c, 3, 51, 127
2, 187065, Note_off_c, 3, 51, 127
2, 187069, Note_on_c, 5, 53, 127
2, 187219, Note_off_c, 5, 53, 127
2, 187224, Note_on_c, 11, 58, 127
2, 187224, Note_on_c, 6, 54, 127
2, 187374, Note_off_c, 6, 54, 127
2, 187378, Note_on_c, 3, 51, 127
2, 187528, Note_off_c, 3, 51, 127
2, 187528, Note_off_c, 11, 58, 127
2, 187532, Note_on_c, 3, 63, 127
2, 187532, Note_on_c, 0, 48, 127
2, 187682, Note_off_c, 0, 48, 127
2, 187682, Note_off_c, 6, 66, 127
2, 187687, Note_on_c, 5, 65, 127
2, 187687, Note_on_c, 1, 49, 127
2, 187837, Note_off_c, 1, 49, 127
2, 187837, Note_off_c, 5, 65, 127
2, 187841, Note_on_c, 6, 66, 127
2, 187841, Note_on_c, 3, 51, 127
2, 187990, Note_off_c, 3, 63, 127
2, 187991, Note_off_c, 3, 51, 127
2, 187991, Note_off_c, 6, 66, 127
2, 187995, Note_on_c, 3, 63, 127
2, 187995, Note_on_c, 0, 48, 127
2, 188145, Note_off_c, 0, 48, 127
2, 188150, Note_on_c, 3, 75, 127
2, 188150, Note_on_c, 8, 44, 127
2, 188299, Note_off_c, 3, 63, 127
2, 188300, Note_off_c, 8, 44, 127
2, 188303, Note_on_c, 6, 66, 127
2, 188303, Note_on_c, 11, 46, 127
2, 188453, Note_off_c, 11, 46, 127
2, 188453, Note_off_c, 6, 66, 127
2, 188457, Note_on_c, 8, 68, 127
2, 188457, Note_on_c, 0, 48, 127
2, 188607, Note_off_c, 0, 48, 127
2, 188607, Note_off_c, 8, 68, 127
2, 188612, Note_on_c, 3, 63, 127
2, 188612, Note_on_c, 8, 44, 127
2, 188762, Note_off_c, 8, 44, 127
2, 188762, Note_off_c, 3, 63, 127
2, 188766, Note_on_c, 5, 65, 127
2, 188766, Note_on_c, 1, 37, 127
2, 188917, Note_off_c, 3, 75, 127
2, 188920, Note_on_c, 1, 73, 127
2, 189070, Note_off_c, 1, 73, 127
2, 189070, Note_off_c, 1, 37, 127
2, 189075, Note_on_c, 0, 72, 127
2, 189075, Note_on_c, 1, 49, 127
2, 189225, Note_off_c, 1, 49, 127
2, 189225, Note_off_c, 0, 72, 127
2, 189229, Note_on_c, 3, 75, 127
2, 189229, Note_on_c, 3, 51, 127
2, 189379, Note_off_c, 3, 51, 127
2, 189379, Note_off_c, 3, 75, 127
2, 189383, Note_on_c, 1, 73, 127
2, 189383, Note_on_c, 5, 53, 127
2, 189533, Note_off_c, 1, 73, 127
2, 189536, Note_off_c, 5, 65, 127
2, 189538, Note_on_c, 8, 68, 127
2, 189687, Note_off_c, 5, 53, 127
2, 189688, Note_off_c, 8, 68, 127
2, 189692, Note_on_c, 11, 70, 127
2, 189692, Note_on_c, 1, 61, 127
2, 189692, Note_on_c, 1, 49, 127
2, 189842, Note_off_c, 11, 70, 127
2, 189846, Note_on_c, 12, 71, 127
2, 189996, Note_off_c, 12, 71, 127
2, 189996, Note_off_c, 1, 49, 127
2, 190000, Note_on_c, 11, 70, 127
2, 190000, Note_on_c, 6, 54, 127
2, 190152, Note_off_c, 11, 70, 127
2, 190152, Note_off_c, 1, 61, 127
2, 190156, Note_on_c, 8, 68, 127
2, 190156, Note_on_c, 0, 60, 127
2, 190308, Note_off_c, 0, 60, 127
2, 190308, Note_off_c, 8, 68, 127
2, 190313, Note_on_c, 6, 66, 127
2, 190313, Note_on_c, 11, 58, 127
2, 190465, Note_off_c, 11, 58, 127
2, 190465, Note_off_c, 6, 66, 127
2, 190469, Note_on_c, 8, 68, 127
2, 190469, Note_on_c, 0, 60, 127
2, 190621, Note_off_c, 0, 60, 127
2, 190621, Note_off_c, 8, 68, 127
2, 190621, Note_off_c, 6, 54, 127
2, 190626, Note_on_c, 5, 77, 127
2, 190626, Note_on_c, 1, 61, 127
2, 190626, Note_on_c, 5, 53, 127
2, 190778, Note_off_c, 1, 61, 127
2, 190782, Note_on_c, 0, 60, 127
2, 190934, Note_off_c, 0, 60, 127
2, 190934, Note_off_c, 5, 77, 127
2, 190939, Note_on_c, 1, 73, 127
2, 190939, Note_on_c, 11, 58, 127
2, 191091, Note_off_c, 11, 58, 127
2, 191096, Note_on_c, 8, 56, 127
2, 191247, Note_off_c, 1, 73, 127
2, 191247, Note_off_c, 5, 53, 127
2, 191248, Note_off_c, 8, 56, 127
2, 191251, Note_on_c, 8, 68, 127
2, 191251, Note_on_c, 11, 58, 127
2, 191251, Note_on_c, 3, 51, 127
2, 191559, Note_off_c, 3, 51, 127
2, 191559, Note_off_c, 8, 68, 127
2, 191564, Note_on_c, 6, 66, 127
2, 191564, Note_on_c, 1, 49, 127
2, 191716, Note_off_c, 6, 66, 127
2, 191721, Note_on_c, 5, 65, 127
2, 191872, Note_off_c, 1, 49, 127
2, 191873, Note_off_c, 5, 65, 127
2, 191878, Note_on_c, 6, 66, 127
2, 191878, Note_on_c, 0, 48, 127
2, 192029, Note_off_c, 11, 58, 127
2, 192034, Note_on_c, 8, 56, 127
2, 192186, Note_off_c, 8, 56, 127
2, 192186, Note_off_c, 6, 66, 127
2, 192191, Note_on_c, 3, 75, 127
2, 192191, Note_on_c, 6, 54, 127
2, 192343, Note_off_c, 6, 54, 127
2, 192347, Note_on_c, 11, 58, 127
2, 192499, Note_off_c, 11, 58, 127
2, 192499, Note_off_c, 3, 75, 127
2, 192499, Note_off_c, 0, 48, 127
2, 192503, Note_on_c, 5, 65, 127
2, 192503, Note_on_c, 8, 56, 127
2, 192503, Note_on_c, 1, 49, 127
2, 192657, Note_off_c, 8, 56, 127
2, 192662, Note_on_c, 6, 54, 127
2, 192816, Note_off_c, 6, 54, 127
2, 192816, Note_off_c, 5, 65, 127
2, 192821, Note_on_c, 1, 73, 127
2, 192821, Note_on_c, 5, 53, 127
2, 192975, Note_off_c, 5, 53, 127
2, 192980, Note_on_c, 8, 56, 127
2, 193134, Note_off_c, 8, 56, 127
2, 193134, Note_off_c, 1, 73, 127
2, 193134, Note_off_c, 1, 49, 127
2, 193139, Note_on_c, 3, 63, 127
2, 193139, Note_on_c, 6, 54, 127
2, 193139, Note_on_c, 8, 44, 127
2, 193293, Note_off_c, 6, 54, 127
2, 193297, Note_on_c, 5, 53, 127
2, 193451, Note_off_c, 5, 53, 127
2, 193452, Note_off_c, 3, 63, 127
2, 193455, Note_on_c, 0, 72, 127
2, 193455, Note_on_c, 3, 51, 127
2, 193609, Note_off_c, 3, 51, 127
2, 193614, Note_on_c, 6, 54, 127
2, 193768, Note_off_c, 6, 54, 127
2, 193768, Note_off_c, 0, 72, 127
2, 193770, Note_off_c, 8, 44, 127
2, 193789, Note_on_c, 11, 46, 127
2, 193789, Note_on_c, 5, 53, 127
2, 193789, Note_on_c, 1, 61, 127
2, 193948, Note_off_c, 1, 61, 127
2, 193948, Note_off_c, 5, 53, 127
2, 193952, Note_on_c, 8, 56, 127
2, 193952, Note_on_c, 5, 65, 127
2, 194111, Note_off_c, 5, 65, 127
2, 194111, Note_off_c, 8, 56, 127
2, 194111, Note_off_c, 11, 46, 127
2, 194115, Note_on_c, 11, 58, 127
2, 194115, Note_on_c, 6, 66, 127
2, 194274, Note_off_c, 6, 66, 127
2, 194274, Note_off_c, 11, 58, 127
2, 194278, Note_on_c, 0, 60, 127
2, 194278, Note_on_c, 8, 68, 127
2, 194437, Note_off_c, 8, 68, 127
2, 194437, Note_off_c, 0, 60, 127
2, 194442, Note_on_c, 1, 61, 127
2, 194442, Note_on_c, 11, 70, 127
2, 194601, Note_off_c, 11, 70, 127
2, 194601, Note_off_c, 1, 61, 127
2, 194604, Note_on_c, 0, 60, 127
2, 194604, Note_on_c, 0, 72, 127
2, 194763, Note_off_c, 0, 72, 127
2, 194763, Note_off_c, 0, 60, 127
2, 194768, Note_on_c, 11, 58, 127
2, 194768, Note_on_c, 1, 73, 127
2, 194927, Note_off_c, 1, 73, 127
2, 194927, Note_off_c, 11, 58, 127
2, 194931, Note_on_c, 8, 56, 127
2, 194931, Note_on_c, 3, 75, 127
2, 195090, Note_off_c, 3, 75, 127
2, 195090, Note_off_c, 8, 56, 127
2, 195095, Note_on_c, 7, 55, 127
2, 195095, Note_on_c, 4, 76, 127
2, 195254, Note_off_c, 4, 76, 127
2, 195254, Note_off_c, 7, 55, 127
2, 195257, Note_on_c, 8, 56, 127
2, 195257, Note_on_c, 3, 75, 127
2, 195416, Note_off_c, 3, 75, 127
2, 195416, Note_off_c, 8, 56, 127
2, 195421, Note_on_c, 11, 58, 127
2, 195421, Note_on_c, 1, 73, 127
2, 195580, Note_off_c, 1, 73, 127
2, 195580, Note_off_c, 11, 58, 127
2, 195584, Note_on_c, 7, 55, 127
2, 195584, Note_on_c, 3, 75, 127
2, 195743, Note_off_c, 3, 75, 127
2, 195743, Note_off_c, 7, 55, 127
2, 195747, Note_on_c, 3, 51, 127
2, 195747, Note_on_c, 4, 76, 127
2, 195906, Note_off_c, 4, 76, 127
2, 195910, Note_on_c, 1, 49, 127
2, 195910, Note_on_c, 7, 79, 127
2, 196069, Note_off_c, 7, 79, 127
2, 196069, Note_off_c, 1, 49, 127
2, 196073, Note_on_c, 0, 48, 127
2, 196073, Note_on_c, 8, 80, 127
2, 196232, Note_off_c, 8, 80, 127
2, 196232, Note_off_c, 0, 48, 127
2, 196237, Note_on_c, 11, 46, 127
2, 196237, Note_on_c, 11, 82, 127
2, 196396, Note_off_c, 11, 82, 127
2, 196396, Note_off_c, 11, 46, 127
2, 196415, Note_on_c, 1, 73, 127
2, 196415, Note_on_c, 8, 44, 127
2, 196566, Note_off_c, 3, 51, 127
2, 196582, Note_off_c, 1, 73, 127
2, 196587, Note_on_c, 0, 72, 127
2, 196587, Note_on_c, 3, 51, 127
2, 196754, Note_off_c, 3, 51, 127
2, 196754, Note_off_c, 0, 72, 127
2, 196757, Note_on_c, 11, 70, 127
2, 196757, Note_on_c, 5, 53, 127
2, 196924, Note_off_c, 5, 53, 127
2, 196924, Note_off_c, 11, 70, 127
2, 196928, Note_on_c, 8, 68, 127
2, 196928, Note_on_c, 6, 54, 127
2, 197095, Note_off_c, 6, 54, 127
2, 197095, Note_off_c, 8, 68, 127
2, 197100, Note_on_c, 3, 75, 127
2, 197100, Note_on_c, 8, 56, 127
2, 197267, Note_off_c, 8, 56, 127
2, 197269, Note_off_c, 8, 44, 127
2, 197270, Note_on_c, 11, 58, 127
2, 197437, Note_off_c, 11, 58, 127
2, 197438, Note_off_c, 3, 75, 127
2, 197442, Note_on_c, 6, 66, 127
2, 197442, Note_on_c, 0, 60, 127
2, 197609, Note_off_c, 0, 60, 127
2, 197612, Note_on_c, 8, 56, 127
2, 197779, Note_off_c, 8, 56, 127
2, 197780, Note_off_c, 6, 66, 127
2, 197784, Note_on_c, 5, 65, 127
2, 197784, Note_on_c, 1, 61, 127
2, 198229, Note_off_c, 1, 61, 127
2, 198229, Note_off_c, 5, 65, 127
2, 198234, Note_on_c, 8, 68, 127
2, 198234, Note_on_c, 1, 73, 127
2, 198234, Note_on_c, 1, 61, 127
2, 198234, Note_on_c, 5, 41, 127
2, 198679, Note_off_c, 5, 41, 127
2, 198679, Note_off_c, 1, 61, 127
2, 198679, Note_off_c, 1, 73, 127
2, 198679, Note_off_c, 8, 68, 127
2, 198684, Note_on_c, 11, 70, 127
2, 198684, Note_on_c, 3, 63, 127
2, 198684, Note_on_c, 6, 42, 127
2, 199129, Note_off_c, 6, 42, 127
2, 199129, Note_off_c, 3, 63, 127
2, 199129, Note_off_c, 11, 70, 127
2, 199135, Note_on_c, 8, 68, 127
2, 199135, Note_on_c, 6, 66, 127
2, 199135, Note_on_c, 0, 72, 127
2, 199135, Note_on_c, 8, 44, 127
2, 199641, Note_off_c, 8, 44, 127
2, 199641, Note_off_c, 0, 72, 127
2, 199641, Note_off_c, 6, 66, 127
2, 199641, Note_off_c, 8, 68, 127
2, 199657, Note_on_c, 1, 37, 127
2, 199657, Note_on_c, 1, 49, 127
2, 199657, Note_on_c, 1, 61, 127
2, 199657, Note_on_c, 1, 73, 127
2, 199657, Note_on_c, 8, 68, 127
2, 199657, Note_on_c, 5, 65, 127
2, 203205, Note_off_c, 5, 65, 127
2, 203205, Note_off_c, 8, 68, 127
2, 203205, Note_off_c, 1, 73, 127
2, 203205, Note_off_c, 1, 61, 127
2, 203205, Note_off_c, 1, 49, 127
2, 203205, Note_off_c, 1, 37, 127
2, 207360, End_track
3, 0, Start_track
3, 0, Title_t, "MIDI"
3, 1536, End_track
0, 0, End_of_file
