0, 0, Header, 1, 3, 384
1, 0, Start_track
1, 0, Time_signature, 4, 2, 24, 8
1, 0, Tempo, 500000
1, 259584, End_track
2, 0, Start_track
2, 0, Text_t, "harpsichord: John Sankey"
2, 0, Program_c, 0, 6
2, 0, Pitch_bend_c, 0, 8192
2, 0, Program_c, 1, 6
2, 0, Pitch_bend_c, 1, 7792
2, 0, Program_c, 2, 6
2, 0, Pitch_bend_c, 2, 7876
2, 0, Program_c, 3, 6
2, 0, Pitch_bend_c, 3, 7952
2, 0, Program_c, 4, 6
2, 0, Pitch_bend_c, 4, 7792
2, 0, Program_c, 5, 6
2, 0, Pitch_bend_c, 5, 8112
2, 0, Program_c, 6, 6
2, 0, Pitch_bend_c, 6, 7712
2, 0, Program_c, 7, 6
2, 0, Pitch_bend_c, 7, 8037
2, 0, Program_c, 8, 6
2, 0, Pitch_bend_c, 8, 7872
2, 0, Program_c, 10, 6
2, 0, Pitch_bend_c, 10, 7712
2, 0, Program_c, 11, 6
2, 0, Pitch_bend_c, 11, 8032
2, 0, Program_c, 12, 6
2, 0, Pitch_bend_c, 12, 7872
2, 0, Title_t, "Track 1"
2, 32, Note_on_c, 0, 36, 127
2, 32, Note_on_c, 0, 48, 127
2, 281, Note_on_c, 0, 72, 127
2, 528, Note_off_c, 0, 72, 127
2, 531, Note_on_c, 2, 74, 127
2, 778, Note_off_c, 2, 74, 127
2, 780, Note_on_c, 4, 76, 127
2, 1030, Note_on_c, 7, 67, 127
2, 1274, Note_off_c, 4, 76, 127
2, 1280, Note_on_c, 4, 76, 127
2, 1524, Note_off_c, 7, 67, 127
2, 1529, Note_on_c, 5, 65, 127
2, 1774, Note_off_c, 4, 76, 127
2, 1779, Note_on_c, 2, 74, 127
2, 2023, Note_off_c, 5, 65, 127
2, 2028, Note_on_c, 4, 64, 127
2, 2143, Note_off_c, 2, 74, 127
2, 2153, Note_on_c, 0, 72, 127
2, 2275, Note_off_c, 0, 72, 127
2, 2278, Note_on_c, 12, 71, 127
2, 2400, Note_off_c, 12, 71, 127
2, 2403, Note_on_c, 10, 69, 127
2, 2525, Note_off_c, 10, 69, 127
2, 2528, Note_on_c, 7, 67, 127
2, 2756, Note_off_c, 4, 64, 127
2, 2777, Note_on_c, 11, 70, 127
2, 3027, Note_on_c, 4, 64, 127
2, 3256, Note_off_c, 7, 67, 127
2, 3276, Note_on_c, 7, 67, 127
2, 3505, Note_off_c, 11, 70, 127
2, 3521, Note_off_c, 4, 64, 127
2, 3526, Note_on_c, 0, 60, 127
2, 3770, Note_off_c, 7, 67, 127
2, 3776, Note_on_c, 11, 70, 127
2, 4023, Note_off_c, 11, 70, 127
2, 4025, Note_on_c, 10, 69, 127
2, 4150, Note_on_c, 7, 67, 127
2, 4272, Note_off_c, 7, 67, 127
2, 4275, Note_on_c, 5, 65, 127
2, 4397, Note_off_c, 5, 65, 127
2, 4400, Note_on_c, 4, 64, 127
2, 4522, Note_off_c, 4, 64, 127
2, 4524, Note_on_c, 5, 65, 127
2, 4753, Note_off_c, 10, 69, 127
2, 4774, Note_off_c, 0, 60, 127
2, 4774, Note_on_c, 10, 69, 127
2, 5024, Note_on_c, 2, 62, 127
2, 5252, Note_off_c, 5, 65, 127
2, 5273, Note_on_c, 5, 65, 127
2, 5502, Note_off_c, 10, 69, 127
2, 5518, Note_off_c, 2, 62, 127
2, 5523, Note_on_c, 10, 57, 127
2, 5770, Note_off_c, 10, 57, 127
2, 5772, Note_on_c, 0, 60, 127
2, 6019, Note_off_c, 0, 60, 127
2, 6022, Note_on_c, 12, 59, 127
2, 6272, Note_on_c, 2, 62, 127
2, 6519, Note_off_c, 2, 62, 127
2, 6521, Note_off_c, 5, 65, 127
2, 6521, Note_on_c, 4, 64, 127
2, 6768, Note_off_c, 4, 64, 127
2, 6771, Note_on_c, 5, 65, 127
2, 7010, Note_off_c, 12, 59, 127
2, 7020, Note_on_c, 7, 55, 127
2, 7265, Note_off_c, 5, 65, 127
2, 7270, Note_on_c, 5, 65, 127
2, 7517, Note_off_c, 5, 65, 127
2, 7520, Note_on_c, 4, 64, 127
2, 7767, Note_off_c, 4, 64, 127
2, 7769, Note_on_c, 2, 62, 127
2, 8016, Note_off_c, 2, 62, 127
2, 8016, Note_off_c, 0, 48, 127
2, 8019, Note_on_c, 4, 64, 127
2, 8019, Note_on_c, 0, 48, 127
2, 8268, Note_on_c, 0, 60, 127
2, 8515, Note_off_c, 7, 55, 127
2, 8518, Note_on_c, 12, 59, 127
2, 8765, Note_off_c, 12, 59, 127
2, 8768, Note_on_c, 10, 57, 127
2, 9004, Note_off_c, 0, 36, 127
2, 9015, Note_off_c, 10, 57, 127
2, 9017, Note_on_c, 7, 55, 127
2, 9267, Note_on_c, 5, 53, 127
2, 9514, Note_off_c, 5, 53, 127
2, 9516, Note_on_c, 4, 52, 127
2, 9750, Note_off_c, 0, 48, 127
2, 9763, Note_off_c, 4, 52, 127
2, 9766, Note_on_c, 2, 50, 127
2, 10013, Note_off_c, 2, 50, 127
2, 10016, Note_on_c, 0, 48, 127
2, 10138, Note_off_c, 0, 48, 127
2, 10140, Note_on_c, 2, 50, 127
2, 10262, Note_off_c, 2, 50, 127
2, 10265, Note_on_c, 0, 48, 127
2, 10387, Note_off_c, 0, 48, 127
2, 10390, Note_on_c, 12, 47, 127
2, 10512, Note_off_c, 12, 47, 127
2, 10515, Note_on_c, 0, 48, 127
2, 10764, Note_on_c, 4, 52, 127
2, 11014, Note_on_c, 7, 43, 127
2, 11015, Note_off_c, 0, 48, 127
2, 11264, Note_off_c, 7, 43, 127
2, 11264, Note_on_c, 11, 46, 127
2, 11511, Note_off_c, 11, 46, 127
2, 11513, Note_on_c, 10, 45, 127
2, 11760, Note_off_c, 10, 45, 127
2, 11763, Note_on_c, 7, 43, 127
2, 11964, Note_off_c, 4, 52, 127
2, 11999, Note_off_c, 0, 60, 127
2, 12007, Note_off_c, 7, 55, 127
2, 12010, Note_off_c, 7, 43, 127
2, 12012, Note_on_c, 10, 57, 127
2, 12012, Note_on_c, 5, 41, 127
2, 12262, Note_on_c, 0, 48, 127
2, 12509, Note_off_c, 0, 48, 127
2, 12512, Note_on_c, 2, 50, 127
2, 12759, Note_off_c, 2, 50, 127
2, 12761, Note_on_c, 4, 52, 127
2, 13008, Note_off_c, 4, 52, 127
2, 13011, Note_on_c, 5, 53, 127
2, 13247, Note_off_c, 4, 64, 127
2, 13260, Note_on_c, 2, 62, 127
2, 13507, Note_off_c, 5, 53, 127
2, 13510, Note_on_c, 4, 52, 127
2, 13756, Note_off_c, 2, 62, 127
2, 13760, Note_on_c, 0, 60, 127
2, 14006, Note_off_c, 4, 52, 127
2, 14006, Note_off_c, 10, 57, 127
2, 14007, Note_off_c, 0, 60, 127
2, 14009, Note_on_c, 7, 55, 127
2, 14009, Note_on_c, 12, 59, 127
2, 14009, Note_on_c, 2, 50, 127
2, 14259, Note_on_c, 2, 62, 127
2, 14506, Note_off_c, 2, 62, 127
2, 14508, Note_on_c, 7, 67, 127
2, 14737, Note_off_c, 12, 59, 127
2, 14758, Note_on_c, 12, 59, 127
2, 14997, Note_off_c, 2, 50, 127
2, 14997, Note_off_c, 7, 55, 127
2, 15002, Note_off_c, 5, 41, 127
2, 15005, Note_off_c, 12, 59, 127
2, 15008, Note_on_c, 0, 60, 127
2, 15008, Note_on_c, 4, 52, 127
2, 15008, Note_on_c, 4, 40, 127
2, 15236, Note_off_c, 7, 67, 127
2, 15257, Note_on_c, 7, 67, 127
2, 15504, Note_off_c, 7, 67, 127
2, 15507, Note_on_c, 5, 65, 127
2, 15507, Note_on_c, 10, 45, 127
2, 15508, Note_off_c, 4, 40, 127
2, 15754, Note_off_c, 5, 65, 127
2, 15756, Note_on_c, 4, 64, 127
2, 15996, Note_off_c, 4, 52, 127
2, 16003, Note_off_c, 4, 64, 127
2, 16006, Note_on_c, 5, 65, 127
2, 16006, Note_on_c, 2, 50, 127
2, 16006, Note_on_c, 2, 38, 127
2, 16069, Note_off_c, 10, 45, 127
2, 16256, Note_off_c, 0, 60, 127
2, 16256, Note_on_c, 0, 60, 127
2, 16503, Note_off_c, 0, 60, 127
2, 16505, Note_on_c, 2, 62, 127
2, 16752, Note_off_c, 2, 62, 127
2, 16755, Note_on_c, 10, 57, 127
2, 17001, Note_off_c, 2, 38, 127
2, 17002, Note_off_c, 10, 57, 127
2, 17004, Note_on_c, 12, 59, 127
2, 17004, Note_on_c, 7, 43, 127
2, 17254, Note_off_c, 5, 65, 127
2, 17254, Note_on_c, 5, 65, 127
2, 17501, Note_off_c, 5, 65, 127
2, 17504, Note_on_c, 4, 64, 127
2, 17751, Note_off_c, 4, 64, 127
2, 17753, Note_on_c, 2, 62, 127
2, 17992, Note_off_c, 12, 59, 127
2, 18000, Note_off_c, 2, 62, 127
2, 18000, Note_off_c, 2, 50, 127
2, 18003, Note_on_c, 0, 60, 127
2, 18003, Note_on_c, 4, 64, 127
2, 18003, Note_on_c, 0, 48, 127
2, 18003, Note_on_c, 0, 36, 127
2, 18004, Note_off_c, 7, 43, 127
2, 18252, Note_on_c, 7, 43, 127
2, 18315, Note_off_c, 0, 36, 127
2, 18499, Note_off_c, 7, 43, 127
2, 18502, Note_on_c, 10, 45, 127
2, 18731, Note_off_c, 0, 48, 127
2, 18749, Note_off_c, 10, 45, 127
2, 18752, Note_on_c, 12, 47, 127
2, 18999, Note_off_c, 12, 47, 127
2, 19001, Note_on_c, 0, 48, 127
2, 19251, Note_on_c, 4, 52, 127
2, 19498, Note_off_c, 4, 52, 127
2, 19498, Note_off_c, 0, 60, 127
2, 19500, Note_on_c, 0, 60, 127
2, 19500, Note_on_c, 10, 45, 127
2, 19729, Note_off_c, 0, 48, 127
2, 19747, Note_off_c, 10, 45, 127
2, 19750, Note_on_c, 0, 48, 127
2, 19997, Note_off_c, 0, 48, 127
2, 19997, Note_off_c, 4, 64, 127
2, 20000, Note_on_c, 2, 62, 127
2, 20000, Note_on_c, 6, 42, 127
2, 20228, Note_off_c, 0, 60, 127
2, 20249, Note_on_c, 0, 60, 127
2, 20496, Note_off_c, 0, 60, 127
2, 20496, Note_off_c, 6, 42, 127
2, 20499, Note_on_c, 12, 59, 127
2, 20499, Note_on_c, 2, 38, 127
2, 20746, Note_off_c, 12, 59, 127
2, 20748, Note_on_c, 10, 57, 127
2, 20995, Note_off_c, 10, 57, 127
2, 20995, Note_off_c, 2, 38, 127
2, 20998, Note_on_c, 12, 59, 127
2, 20998, Note_on_c, 7, 43, 127
2, 21248, Note_off_c, 2, 62, 127
2, 21248, Note_on_c, 2, 62, 127
2, 21495, Note_off_c, 2, 62, 127
2, 21497, Note_on_c, 4, 64, 127
2, 21744, Note_off_c, 4, 64, 127
2, 21747, Note_on_c, 7, 67, 127
2, 21986, Note_off_c, 12, 59, 127
2, 21994, Note_off_c, 7, 67, 127
2, 21996, Note_on_c, 0, 60, 127
2, 21996, Note_on_c, 10, 57, 127
2, 22118, Note_off_c, 0, 60, 127
2, 22121, Note_on_c, 12, 59, 127
2, 22243, Note_off_c, 12, 59, 127
2, 22243, Note_off_c, 7, 43, 127
2, 22246, Note_on_c, 0, 60, 127
2, 22246, Note_on_c, 10, 45, 127
2, 22368, Note_off_c, 10, 45, 127
2, 22371, Note_on_c, 12, 47, 127
2, 22493, Note_off_c, 12, 47, 127
2, 22496, Note_on_c, 0, 48, 127
2, 22618, Note_off_c, 0, 48, 127
2, 22620, Note_on_c, 2, 50, 127
2, 22742, Note_off_c, 2, 50, 127
2, 22745, Note_on_c, 4, 52, 127
2, 22989, Note_off_c, 4, 52, 127
2, 22995, Note_on_c, 6, 42, 127
2, 23244, Note_on_c, 10, 69, 127
2, 23366, Note_off_c, 10, 69, 127
2, 23369, Note_on_c, 7, 67, 127
2, 23491, Note_off_c, 7, 67, 127
2, 23494, Note_on_c, 10, 69, 127
2, 23494, Note_on_c, 2, 50, 127
2, 23741, Note_off_c, 10, 69, 127
2, 23741, Note_off_c, 0, 60, 127
2, 23744, Note_on_c, 0, 60, 127
2, 23983, Note_off_c, 6, 42, 127
2, 23991, Note_off_c, 0, 60, 127
2, 23993, Note_on_c, 12, 59, 127
2, 23993, Note_on_c, 7, 43, 127
2, 24232, Note_off_c, 10, 57, 127
2, 24243, Note_on_c, 10, 57, 127
2, 24490, Note_off_c, 10, 57, 127
2, 24492, Note_on_c, 7, 55, 127
2, 24739, Note_off_c, 7, 55, 127
2, 24742, Note_on_c, 6, 54, 127
2, 24989, Note_off_c, 6, 54, 127
2, 24992, Note_on_c, 7, 55, 127
2, 25241, Note_off_c, 12, 59, 127
2, 25241, Note_on_c, 2, 62, 127
2, 25486, Note_off_c, 7, 55, 127
2, 25488, Note_off_c, 2, 62, 127
2, 25488, Note_off_c, 7, 43, 127
2, 25491, Note_on_c, 4, 64, 127
2, 25491, Note_on_c, 5, 41, 127
2, 25738, Note_off_c, 4, 64, 127
2, 25740, Note_on_c, 5, 65, 127
2, 25987, Note_off_c, 5, 65, 127
2, 25987, Note_off_c, 5, 41, 127
2, 25990, Note_on_c, 7, 67, 127
2, 25990, Note_on_c, 4, 40, 127
2, 26240, Note_on_c, 4, 64, 127
2, 26484, Note_off_c, 2, 50, 127
2, 26486, Note_off_c, 4, 40, 127
2, 26487, Note_off_c, 4, 64, 127
2, 26489, Note_on_c, 12, 59, 127
2, 26489, Note_on_c, 7, 43, 127
2, 26489, Note_on_c, 4, 52, 127
2, 26736, Note_off_c, 12, 59, 127
2, 26739, Note_on_c, 2, 62, 127
2, 26985, Note_off_c, 7, 43, 127
2, 26986, Note_off_c, 2, 62, 127
2, 26988, Note_on_c, 1, 61, 127
2, 26988, Note_on_c, 10, 45, 127
2, 27235, Note_off_c, 1, 61, 127
2, 27238, Note_on_c, 4, 64, 127
2, 27484, Note_off_c, 10, 45, 127
2, 27488, Note_on_c, 10, 57, 127
2, 27488, Note_on_c, 1, 49, 127
2, 27732, Note_off_c, 4, 64, 127
2, 27732, Note_off_c, 7, 67, 127
2, 27737, Note_on_c, 7, 67, 127
2, 27984, Note_off_c, 7, 67, 127
2, 27984, Note_off_c, 1, 49, 127
2, 27984, Note_off_c, 4, 52, 127
2, 27987, Note_on_c, 5, 65, 127
2, 27987, Note_on_c, 2, 38, 127
2, 28236, Note_on_c, 10, 45, 127
2, 28483, Note_off_c, 10, 45, 127
2, 28486, Note_on_c, 12, 47, 127
2, 28733, Note_off_c, 12, 47, 127
2, 28736, Note_on_c, 1, 49, 127
2, 28983, Note_off_c, 1, 49, 127
2, 28985, Note_on_c, 2, 50, 127
2, 29235, Note_off_c, 2, 38, 127
2, 29235, Note_on_c, 5, 53, 127
2, 29479, Note_off_c, 2, 50, 127
2, 29482, Note_off_c, 5, 53, 127
2, 29482, Note_off_c, 10, 57, 127
2, 29484, Note_on_c, 2, 62, 127
2, 29484, Note_on_c, 12, 47, 127
2, 29731, Note_off_c, 12, 47, 127
2, 29734, Note_on_c, 2, 50, 127
2, 29981, Note_off_c, 2, 50, 127
2, 29981, Note_off_c, 5, 65, 127
2, 29984, Note_on_c, 4, 64, 127
2, 29984, Note_on_c, 8, 44, 127
2, 30212, Note_off_c, 2, 62, 127
2, 30233, Note_on_c, 2, 62, 127
2, 30480, Note_off_c, 2, 62, 127
2, 30480, Note_off_c, 8, 44, 127
2, 30483, Note_on_c, 0, 60, 127
2, 30483, Note_on_c, 4, 40, 127
2, 30730, Note_off_c, 0, 60, 127
2, 30732, Note_on_c, 12, 59, 127
2, 30979, Note_off_c, 12, 59, 127
2, 30979, Note_off_c, 4, 40, 127
2, 30982, Note_on_c, 0, 60, 127
2, 30982, Note_on_c, 10, 45, 127
2, 31232, Note_off_c, 4, 64, 127
2, 31232, Note_on_c, 4, 64, 127
2, 31478, Note_off_c, 10, 45, 127
2, 31479, Note_off_c, 4, 64, 127
2, 31481, Note_on_c, 5, 65, 127
2, 31481, Note_on_c, 7, 43, 127
2, 31728, Note_off_c, 5, 65, 127
2, 31731, Note_on_c, 7, 67, 127
2, 31977, Note_off_c, 7, 43, 127
2, 31978, Note_off_c, 7, 67, 127
2, 31980, Note_on_c, 10, 69, 127
2, 31980, Note_on_c, 5, 41, 127
2, 32105, Note_on_c, 7, 67, 127
2, 32227, Note_off_c, 7, 67, 127
2, 32230, Note_on_c, 5, 65, 127
2, 32352, Note_off_c, 5, 65, 127
2, 32355, Note_on_c, 4, 64, 127
2, 32476, Note_off_c, 5, 41, 127
2, 32477, Note_off_c, 4, 64, 127
2, 32480, Note_on_c, 5, 65, 127
2, 32480, Note_on_c, 4, 40, 127
2, 32708, Note_off_c, 10, 69, 127
2, 32727, Note_off_c, 5, 65, 127
2, 32729, Note_on_c, 10, 69, 127
2, 32976, Note_off_c, 4, 40, 127
2, 32976, Note_off_c, 0, 60, 127
2, 32979, Note_on_c, 2, 62, 127
2, 32979, Note_on_c, 5, 41, 127
2, 33223, Note_off_c, 10, 69, 127
2, 33228, Note_on_c, 0, 72, 127
2, 33475, Note_off_c, 0, 72, 127
2, 33475, Note_off_c, 5, 41, 127
2, 33478, Note_on_c, 12, 71, 127
2, 33478, Note_on_c, 2, 38, 127
2, 33725, Note_off_c, 12, 71, 127
2, 33728, Note_on_c, 10, 69, 127
2, 33974, Note_off_c, 2, 38, 127
2, 33975, Note_off_c, 10, 69, 127
2, 33977, Note_on_c, 8, 68, 127
2, 33977, Note_on_c, 4, 40, 127
2, 34227, Note_off_c, 2, 62, 127
2, 34227, Note_on_c, 5, 65, 127
2, 34474, Note_off_c, 5, 65, 127
2, 34476, Note_on_c, 4, 64, 127
2, 34723, Note_off_c, 4, 64, 127
2, 34726, Note_on_c, 2, 62, 127
2, 34973, Note_off_c, 2, 62, 127
2, 34976, Note_on_c, 0, 60, 127
2, 35225, Note_off_c, 8, 68, 127
2, 35225, Note_on_c, 4, 64, 127
2, 35472, Note_off_c, 4, 64, 127
2, 35475, Note_on_c, 10, 69, 127
2, 35704, Note_off_c, 0, 60, 127
2, 35724, Note_on_c, 0, 60, 127
2, 35971, Note_off_c, 0, 60, 127
2, 35974, Note_on_c, 12, 59, 127
2, 36220, Note_off_c, 4, 40, 127
2, 36224, Note_on_c, 12, 47, 127
2, 36463, Note_off_c, 10, 69, 127
2, 36471, Note_off_c, 12, 47, 127
2, 36473, Note_on_c, 10, 69, 127
2, 36473, Note_on_c, 0, 48, 127
2, 36720, Note_off_c, 0, 48, 127
2, 36723, Note_on_c, 2, 50, 127
2, 36969, Note_off_c, 10, 69, 127
2, 36970, Note_off_c, 2, 50, 127
2, 36972, Note_on_c, 7, 67, 127
2, 36972, Note_on_c, 4, 52, 127
2, 37219, Note_off_c, 4, 52, 127
2, 37222, Note_on_c, 7, 55, 127
2, 37468, Note_off_c, 7, 67, 127
2, 37469, Note_off_c, 7, 55, 127
2, 37469, Note_off_c, 12, 59, 127
2, 37472, Note_on_c, 2, 62, 127
2, 37472, Note_on_c, 5, 65, 127
2, 37472, Note_on_c, 12, 47, 127
2, 37719, Note_off_c, 12, 47, 127
2, 37721, Note_on_c, 2, 50, 127
2, 37968, Note_off_c, 2, 50, 127
2, 37968, Note_off_c, 5, 65, 127
2, 37971, Note_on_c, 4, 64, 127
2, 37971, Note_on_c, 1, 49, 127
2, 38200, Note_off_c, 2, 62, 127
2, 38218, Note_off_c, 1, 49, 127
2, 38220, Note_on_c, 2, 62, 127
2, 38220, Note_on_c, 4, 52, 127
2, 38467, Note_off_c, 4, 52, 127
2, 38467, Note_off_c, 2, 62, 127
2, 38470, Note_on_c, 1, 61, 127
2, 38470, Note_on_c, 10, 45, 127
2, 38699, Note_off_c, 4, 64, 127
2, 38720, Note_on_c, 4, 64, 127
2, 38720, Note_on_c, 7, 55, 127
2, 38964, Note_off_c, 10, 45, 127
2, 38964, Note_off_c, 1, 61, 127
2, 38969, Note_on_c, 10, 57, 127
2, 38969, Note_on_c, 2, 50, 127
2, 39214, Note_off_c, 7, 55, 127
2, 39214, Note_off_c, 4, 64, 127
2, 39219, Note_on_c, 4, 64, 127
2, 39219, Note_on_c, 7, 55, 127
2, 39466, Note_off_c, 7, 55, 127
2, 39476, Note_off_c, 4, 64, 127
2, 39476, Note_on_c, 2, 62, 127
2, 39476, Note_on_c, 5, 53, 127
2, 39723, Note_off_c, 5, 53, 127
2, 39733, Note_off_c, 2, 62, 127
2, 39734, Note_on_c, 4, 52, 127
2, 39734, Note_on_c, 1, 61, 127
2, 39981, Note_off_c, 4, 52, 127
2, 39991, Note_off_c, 1, 61, 127
2, 40000, Note_on_c, 2, 62, 127
2, 40000, Note_on_c, 5, 53, 127
2, 40217, Note_off_c, 10, 57, 127
2, 40297, Note_on_c, 10, 69, 127
2, 40300, Note_off_c, 2, 62, 127
2, 40464, Note_off_c, 2, 50, 127
2, 40544, Note_off_c, 10, 69, 127
2, 40547, Note_on_c, 10, 45, 127
2, 40547, Note_on_c, 12, 71, 127
2, 40794, Note_off_c, 12, 71, 127
2, 40796, Note_on_c, 1, 73, 127
2, 41043, Note_off_c, 1, 73, 127
2, 41043, Note_off_c, 10, 45, 127
2, 41046, Note_on_c, 11, 46, 127
2, 41046, Note_on_c, 2, 74, 127
2, 41293, Note_off_c, 2, 74, 127
2, 41296, Note_on_c, 5, 77, 127
2, 41545, Note_on_c, 2, 50, 127
2, 41545, Note_on_c, 10, 69, 127
2, 41792, Note_off_c, 10, 69, 127
2, 41795, Note_on_c, 0, 72, 127
2, 41994, Note_off_c, 5, 53, 127
2, 42034, Note_off_c, 11, 46, 127
2, 42041, Note_off_c, 2, 50, 127
2, 42042, Note_off_c, 0, 72, 127
2, 42044, Note_on_c, 7, 43, 127
2, 42044, Note_on_c, 7, 55, 127
2, 42044, Note_on_c, 11, 70, 127
2, 42284, Note_off_c, 5, 77, 127
2, 42294, Note_on_c, 5, 77, 127
2, 42541, Note_off_c, 5, 77, 127
2, 42544, Note_on_c, 3, 75, 127
2, 42791, Note_off_c, 3, 75, 127
2, 42793, Note_on_c, 2, 74, 127
2, 43040, Note_off_c, 2, 74, 127
2, 43043, Note_on_c, 3, 75, 127
2, 43290, Note_off_c, 3, 75, 127
2, 43292, Note_on_c, 7, 79, 127
2, 43539, Note_off_c, 7, 79, 127
2, 43542, Note_on_c, 1, 73, 127
2, 43789, Note_off_c, 1, 73, 127
2, 43792, Note_on_c, 2, 74, 127
2, 44038, Note_off_c, 7, 43, 127
2, 44039, Note_off_c, 2, 74, 127
2, 44041, Note_on_c, 10, 45, 127
2, 44041, Note_on_c, 1, 73, 127
2, 44280, Note_off_c, 11, 70, 127
2, 44291, Note_on_c, 11, 70, 127
2, 44538, Note_off_c, 11, 70, 127
2, 44540, Note_on_c, 10, 69, 127
2, 44774, Note_off_c, 7, 55, 127
2, 44790, Note_on_c, 7, 55, 127
2, 45037, Note_off_c, 7, 55, 127
2, 45040, Note_on_c, 6, 54, 127
2, 45286, Note_off_c, 10, 69, 127
2, 45289, Note_on_c, 10, 69, 127
2, 45536, Note_off_c, 6, 54, 127
2, 45536, Note_off_c, 1, 73, 127
2, 45539, Note_on_c, 5, 53, 127
2, 45539, Note_on_c, 2, 74, 127
2, 45783, Note_off_c, 10, 69, 127
2, 45788, Note_on_c, 8, 68, 127
2, 46035, Note_off_c, 8, 68, 127
2, 46035, Note_off_c, 5, 53, 127
2, 46038, Note_on_c, 4, 52, 127
2, 46038, Note_on_c, 10, 69, 127
2, 46267, Note_off_c, 2, 74, 127
2, 46288, Note_on_c, 2, 74, 127
2, 46534, Note_off_c, 4, 52, 127
2, 46535, Note_off_c, 2, 74, 127
2, 46537, Note_on_c, 2, 50, 127
2, 46537, Note_on_c, 1, 73, 127
2, 46784, Note_off_c, 1, 73, 127
2, 46787, Note_on_c, 12, 71, 127
2, 47026, Note_off_c, 10, 69, 127
2, 47031, Note_off_c, 10, 45, 127
2, 47033, Note_off_c, 2, 50, 127
2, 47034, Note_off_c, 12, 71, 127
2, 47036, Note_on_c, 4, 52, 127
2, 47036, Note_on_c, 10, 45, 127
2, 47036, Note_on_c, 1, 73, 127
2, 47036, Note_on_c, 10, 69, 127
2, 47283, Note_off_c, 1, 73, 127
2, 47286, Note_on_c, 2, 74, 127
2, 47532, Note_off_c, 4, 52, 127
2, 47533, Note_off_c, 2, 74, 127
2, 47536, Note_on_c, 10, 57, 127
2, 47536, Note_on_c, 4, 76, 127
2, 47764, Note_off_c, 10, 69, 127
2, 47785, Note_on_c, 7, 67, 127
2, 48024, Note_off_c, 10, 45, 127
2, 48032, Note_off_c, 7, 67, 127
2, 48035, Note_on_c, 2, 50, 127
2, 48035, Note_on_c, 5, 65, 127
2, 48264, Note_off_c, 4, 76, 127
2, 48284, Note_on_c, 10, 69, 127
2, 48524, Note_off_c, 10, 57, 127
2, 48531, Note_off_c, 10, 69, 127
2, 48534, Note_on_c, 11, 58, 127
2, 48534, Note_on_c, 2, 74, 127
2, 48781, Note_off_c, 2, 74, 127
2, 48784, Note_on_c, 1, 73, 127
2, 49030, Note_off_c, 11, 58, 127
2, 49031, Note_off_c, 1, 73, 127
2, 49033, Note_on_c, 10, 57, 127
2, 49033, Note_on_c, 2, 74, 127
2, 49283, Note_off_c, 5, 65, 127
2, 49283, Note_on_c, 5, 65, 127
2, 49529, Note_off_c, 10, 57, 127
2, 49530, Note_off_c, 5, 65, 127
2, 49532, Note_on_c, 7, 55, 127
2, 49532, Note_on_c, 11, 70, 127
2, 49761, Note_off_c, 2, 74, 127
2, 49782, Note_on_c, 4, 76, 127
2, 50026, Note_off_c, 11, 70, 127
2, 50028, Note_off_c, 7, 55, 127
2, 50029, Note_off_c, 4, 76, 127
2, 50032, Note_on_c, 5, 53, 127
2, 50032, Note_on_c, 10, 69, 127
2, 50032, Note_on_c, 5, 77, 127
2, 50279, Note_off_c, 5, 53, 127
2, 50281, Note_on_c, 7, 55, 127
2, 50528, Note_off_c, 7, 55, 127
2, 50531, Note_on_c, 10, 57, 127
2, 50765, Note_off_c, 2, 50, 127
2, 50778, Note_off_c, 10, 69, 127
2, 50780, Note_on_c, 0, 48, 127
2, 50780, Note_on_c, 10, 69, 127
2, 51027, Note_off_c, 10, 69, 127
2, 51027, Note_off_c, 0, 48, 127
2, 51030, Note_on_c, 12, 47, 127
2, 51030, Note_on_c, 2, 74, 127
2, 51259, Note_off_c, 10, 57, 127
2, 51280, Note_off_c, 5, 77, 127
2, 51280, Note_on_c, 8, 56, 127
2, 51280, Note_on_c, 4, 76, 127
2, 51527, Note_off_c, 4, 76, 127
2, 51527, Note_off_c, 8, 56, 127
2, 51529, Note_on_c, 10, 57, 127
2, 51529, Note_on_c, 5, 77, 127
2, 51758, Note_off_c, 2, 74, 127
2, 51758, Note_off_c, 12, 47, 127
2, 51779, Note_on_c, 10, 45, 127
2, 51779, Note_on_c, 2, 74, 127
2, 52023, Note_off_c, 5, 77, 127
2, 52023, Note_off_c, 10, 57, 127
2, 52026, Note_off_c, 10, 45, 127
2, 52028, Note_on_c, 8, 44, 127
2, 52028, Note_on_c, 4, 76, 127
2, 52273, Note_off_c, 2, 74, 127
2, 52278, Note_on_c, 4, 52, 127
2, 52278, Note_on_c, 2, 74, 127
2, 52522, Note_off_c, 8, 44, 127
2, 52525, Note_off_c, 2, 74, 127
2, 52525, Note_off_c, 4, 52, 127
2, 52528, Note_on_c, 6, 54, 127
2, 52528, Note_on_c, 0, 72, 127
2, 52775, Note_off_c, 0, 72, 127
2, 52775, Note_off_c, 6, 54, 127
2, 52777, Note_on_c, 8, 56, 127
2, 52777, Note_on_c, 12, 71, 127
2, 53024, Note_off_c, 12, 71, 127
2, 53024, Note_off_c, 8, 56, 127
2, 53027, Note_on_c, 10, 57, 127
2, 53027, Note_on_c, 0, 72, 127
2, 53276, Note_off_c, 4, 76, 127
2, 53276, Note_on_c, 0, 48, 127
2, 53276, Note_on_c, 4, 76, 127
2, 53523, Note_off_c, 4, 76, 127
2, 53523, Note_off_c, 0, 48, 127
2, 53526, Note_on_c, 5, 53, 127
2, 53526, Note_on_c, 10, 81, 127
2, 53773, Note_off_c, 10, 81, 127
2, 53773, Note_off_c, 5, 53, 127
2, 53776, Note_on_c, 4, 52, 127
2, 53776, Note_on_c, 8, 80, 127
2, 54023, Note_off_c, 8, 80, 127
2, 54023, Note_off_c, 4, 52, 127
2, 54025, Note_on_c, 5, 53, 127
2, 54025, Note_on_c, 10, 81, 127
2, 54275, Note_off_c, 0, 72, 127
2, 54275, Note_off_c, 10, 57, 127
2, 54275, Note_on_c, 10, 57, 127
2, 54275, Note_on_c, 1, 73, 127
2, 54522, Note_off_c, 1, 73, 127
2, 54522, Note_off_c, 10, 57, 127
2, 54524, Note_on_c, 12, 59, 127
2, 54524, Note_on_c, 2, 74, 127
2, 54771, Note_off_c, 2, 74, 127
2, 54771, Note_off_c, 12, 59, 127
2, 54774, Note_on_c, 1, 61, 127
2, 54774, Note_on_c, 4, 76, 127
2, 55021, Note_off_c, 4, 76, 127
2, 55021, Note_off_c, 1, 61, 127
2, 55024, Note_on_c, 2, 62, 127
2, 55024, Note_on_c, 10, 69, 127
2, 55273, Note_off_c, 10, 81, 127
2, 55273, Note_off_c, 5, 53, 127
2, 55273, Note_on_c, 4, 52, 127
2, 55273, Note_on_c, 7, 79, 127
2, 55520, Note_off_c, 7, 79, 127
2, 55520, Note_off_c, 4, 52, 127
2, 55523, Note_on_c, 5, 53, 127
2, 55523, Note_on_c, 10, 81, 127
2, 55770, Note_off_c, 10, 81, 127
2, 55770, Note_off_c, 5, 53, 127
2, 55772, Note_on_c, 2, 50, 127
2, 55772, Note_on_c, 5, 77, 127
2, 56019, Note_off_c, 5, 77, 127
2, 56019, Note_off_c, 2, 50, 127
2, 56022, Note_on_c, 11, 58, 127
2, 56022, Note_on_c, 2, 74, 127
2, 56272, Note_off_c, 10, 69, 127
2, 56272, Note_off_c, 2, 62, 127
2, 56272, Note_on_c, 2, 62, 127
2, 56272, Note_on_c, 6, 66, 127
2, 56519, Note_off_c, 6, 66, 127
2, 56519, Note_off_c, 2, 62, 127
2, 56521, Note_on_c, 4, 64, 127
2, 56521, Note_on_c, 7, 67, 127
2, 56768, Note_off_c, 7, 67, 127
2, 56768, Note_off_c, 4, 64, 127
2, 56771, Note_on_c, 6, 66, 127
2, 56771, Note_on_c, 10, 69, 127
2, 57018, Note_off_c, 10, 69, 127
2, 57018, Note_off_c, 6, 66, 127
2, 57020, Note_on_c, 7, 67, 127
2, 57020, Note_on_c, 11, 70, 127
2, 57270, Note_off_c, 2, 74, 127
2, 57270, Note_on_c, 5, 77, 127
2, 57514, Note_off_c, 11, 70, 127
2, 57517, Note_off_c, 5, 77, 127
2, 57520, Note_on_c, 4, 76, 127
2, 57766, Note_off_c, 7, 67, 127
2, 57767, Note_off_c, 4, 76, 127
2, 57769, Note_on_c, 5, 65, 127
2, 57769, Note_on_c, 7, 79, 127
2, 58016, Note_off_c, 7, 79, 127
2, 58016, Note_off_c, 5, 65, 127
2, 58019, Note_on_c, 4, 64, 127
2, 58019, Note_on_c, 0, 72, 127
2, 58258, Note_off_c, 11, 58, 127
2, 58268, Note_on_c, 10, 57, 127
2, 58515, Note_off_c, 10, 57, 127
2, 58518, Note_on_c, 7, 55, 127
2, 58518, Note_on_c, 11, 70, 127
2, 58765, Note_off_c, 7, 55, 127
2, 58768, Note_on_c, 11, 58, 127
2, 59015, Note_off_c, 11, 58, 127
2, 59017, Note_on_c, 10, 57, 127
2, 59264, Note_off_c, 11, 70, 127
2, 59267, Note_off_c, 4, 64, 127
2, 59267, Note_on_c, 0, 60, 127
2, 59267, Note_on_c, 10, 69, 127
2, 59389, Note_off_c, 10, 69, 127
2, 59392, Note_on_c, 7, 67, 127
2, 59514, Note_off_c, 7, 67, 127
2, 59514, Note_off_c, 0, 60, 127
2, 59516, Note_on_c, 5, 65, 127
2, 59516, Note_on_c, 10, 69, 127
2, 59761, Note_off_c, 0, 72, 127
2, 59763, Note_off_c, 10, 69, 127
2, 59766, Note_on_c, 3, 75, 127
2, 59766, Note_on_c, 0, 72, 127
2, 60013, Note_off_c, 0, 72, 127
2, 60013, Note_off_c, 3, 75, 127
2, 60016, Note_on_c, 2, 74, 127
2, 60016, Note_on_c, 11, 70, 127
2, 60265, Note_off_c, 10, 57, 127
2, 60265, Note_on_c, 7, 55, 127
2, 60512, Note_off_c, 7, 55, 127
2, 60515, Note_on_c, 5, 53, 127
2, 60762, Note_off_c, 5, 53, 127
2, 60764, Note_on_c, 10, 57, 127
2, 61011, Note_off_c, 10, 57, 127
2, 61011, Note_off_c, 5, 65, 127
2, 61014, Note_on_c, 11, 58, 127
2, 61014, Note_on_c, 7, 55, 127
2, 61261, Note_off_c, 2, 74, 127
2, 61264, Note_on_c, 5, 77, 127
2, 61510, Note_off_c, 7, 55, 127
2, 61510, Note_off_c, 11, 58, 127
2, 61511, Note_off_c, 11, 70, 127
2, 61513, Note_on_c, 7, 55, 127
2, 61513, Note_on_c, 0, 48, 127
2, 61513, Note_on_c, 0, 60, 127
2, 61513, Note_on_c, 11, 70, 127
2, 61758, Note_off_c, 5, 77, 127
2, 61763, Note_on_c, 4, 76, 127
2, 62009, Note_off_c, 0, 48, 127
2, 62009, Note_off_c, 7, 55, 127
2, 62010, Note_off_c, 4, 76, 127
2, 62012, Note_on_c, 5, 53, 127
2, 62012, Note_on_c, 5, 77, 127
2, 62241, Note_off_c, 11, 70, 127
2, 62262, Note_on_c, 7, 67, 127
2, 62509, Note_off_c, 7, 67, 127
2, 62512, Note_on_c, 10, 69, 127
2, 62740, Note_off_c, 5, 77, 127
2, 62761, Note_off_c, 0, 60, 127
2, 62769, Note_on_c, 10, 57, 127
2, 62769, Note_on_c, 0, 72, 127
2, 63002, Note_off_c, 10, 69, 127
2, 63016, Note_off_c, 0, 72, 127
2, 63016, Note_off_c, 10, 57, 127
2, 63019, Note_on_c, 2, 62, 127
2, 63019, Note_on_c, 5, 77, 127
2, 63019, Note_on_c, 10, 69, 127
2, 63266, Note_off_c, 5, 77, 127
2, 63268, Note_on_c, 10, 81, 127
2, 63513, Note_off_c, 10, 69, 127
2, 63515, Note_off_c, 10, 81, 127
2, 63518, Note_on_c, 2, 74, 127
2, 63518, Note_on_c, 5, 65, 127
2, 63765, Note_off_c, 2, 74, 127
2, 63768, Note_on_c, 5, 77, 127
2, 64012, Note_off_c, 5, 65, 127
2, 64015, Note_off_c, 5, 77, 127
2, 64017, Note_on_c, 12, 71, 127
2, 64017, Note_on_c, 7, 67, 127
2, 64248, Note_off_c, 5, 53, 127
2, 64264, Note_off_c, 12, 71, 127
2, 64267, Note_on_c, 5, 53, 127
2, 64267, Note_on_c, 2, 74, 127
2, 64514, Note_off_c, 2, 74, 127
2, 64514, Note_off_c, 5, 53, 127
2, 64516, Note_on_c, 4, 52, 127
2, 64516, Note_on_c, 7, 79, 127
2, 64745, Note_off_c, 7, 67, 127
2, 64763, Note_off_c, 4, 52, 127
2, 64766, Note_on_c, 2, 50, 127
2, 64766, Note_on_c, 12, 71, 127
2, 65013, Note_off_c, 12, 71, 127
2, 65013, Note_off_c, 2, 50, 127
2, 65013, Note_off_c, 2, 62, 127
2, 65016, Note_on_c, 7, 55, 127
2, 65016, Note_on_c, 4, 52, 127
2, 65016, Note_on_c, 1, 73, 127
2, 65244, Note_off_c, 7, 79, 127
2, 65265, Note_on_c, 7, 79, 127
2, 65512, Note_off_c, 7, 79, 127
2, 65512, Note_off_c, 4, 52, 127
2, 65512, Note_off_c, 7, 55, 127
2, 65515, Note_on_c, 10, 57, 127
2, 65515, Note_on_c, 10, 45, 127
2, 65515, Note_on_c, 5, 77, 127
2, 65762, Note_off_c, 5, 77, 127
2, 65764, Note_on_c, 4, 76, 127
2, 66004, Note_off_c, 1, 73, 127
2, 66011, Note_off_c, 4, 76, 127
2, 66011, Note_off_c, 10, 45, 127
2, 66014, Note_on_c, 2, 50, 127
2, 66014, Note_on_c, 5, 77, 127
2, 66014, Note_on_c, 2, 74, 127
2, 66243, Note_off_c, 10, 57, 127
2, 66264, Note_on_c, 4, 52, 127
2, 66511, Note_off_c, 4, 52, 127
2, 66513, Note_on_c, 5, 53, 127
2, 66635, Note_off_c, 2, 74, 127
2, 66638, Note_on_c, 0, 72, 127
2, 66760, Note_off_c, 0, 72, 127
2, 66760, Note_off_c, 5, 53, 127
2, 66763, Note_on_c, 10, 57, 127
2, 66763, Note_on_c, 11, 70, 127
2, 66885, Note_off_c, 11, 70, 127
2, 66888, Note_on_c, 10, 69, 127
2, 67010, Note_off_c, 10, 69, 127
2, 67010, Note_off_c, 10, 57, 127
2, 67012, Note_on_c, 2, 62, 127
2, 67012, Note_on_c, 11, 70, 127
2, 67262, Note_off_c, 5, 77, 127
2, 67262, Note_on_c, 2, 74, 127
2, 67509, Note_off_c, 2, 74, 127
2, 67512, Note_on_c, 5, 77, 127
2, 67740, Note_off_c, 11, 70, 127
2, 67758, Note_off_c, 2, 62, 127
2, 67761, Note_on_c, 0, 60, 127
2, 67761, Note_on_c, 10, 69, 127
2, 68008, Note_off_c, 10, 69, 127
2, 68008, Note_off_c, 0, 60, 127
2, 68011, Note_on_c, 12, 59, 127
2, 68011, Note_on_c, 8, 68, 127
2, 68240, Note_off_c, 5, 77, 127
2, 68250, Note_off_c, 2, 50, 127
2, 68260, Note_on_c, 2, 50, 127
2, 68260, Note_on_c, 5, 77, 127
2, 68505, Note_off_c, 12, 59, 127
2, 68507, Note_off_c, 5, 77, 127
2, 68507, Note_off_c, 2, 50, 127
2, 68510, Note_on_c, 0, 48, 127
2, 68510, Note_on_c, 4, 76, 127
2, 68739, Note_off_c, 8, 68, 127
2, 68757, Note_off_c, 0, 48, 127
2, 68760, Note_on_c, 12, 47, 127
2, 68760, Note_on_c, 8, 68, 127
2, 69007, Note_off_c, 8, 68, 127
2, 69007, Note_off_c, 12, 47, 127
2, 69009, Note_on_c, 0, 48, 127
2, 69009, Note_on_c, 10, 69, 127
2, 69238, Note_off_c, 4, 76, 127
2, 69259, Note_on_c, 3, 75, 127
2, 69505, Note_off_c, 0, 48, 127
2, 69506, Note_off_c, 3, 75, 127
2, 69508, Note_on_c, 5, 53, 127
2, 69508, Note_on_c, 2, 74, 127
2, 69755, Note_off_c, 2, 74, 127
2, 69758, Note_on_c, 1, 73, 127
2, 70004, Note_off_c, 5, 53, 127
2, 70005, Note_off_c, 1, 73, 127
2, 70008, Note_on_c, 11, 46, 127
2, 70008, Note_on_c, 2, 74, 127
2, 70257, Note_off_c, 10, 69, 127
2, 70257, Note_on_c, 2, 50, 127
2, 70257, Note_on_c, 0, 72, 127
2, 70504, Note_off_c, 0, 72, 127
2, 70504, Note_off_c, 2, 50, 127
2, 70507, Note_on_c, 4, 52, 127
2, 70507, Note_on_c, 11, 70, 127
2, 70754, Note_off_c, 11, 70, 127
2, 70754, Note_off_c, 4, 52, 127
2, 70756, Note_on_c, 6, 54, 127
2, 70756, Note_on_c, 10, 69, 127
2, 71003, Note_off_c, 10, 69, 127
2, 71003, Note_off_c, 6, 54, 127
2, 71006, Note_on_c, 7, 55, 127
2, 71006, Note_on_c, 11, 70, 127
2, 71253, Note_off_c, 7, 55, 127
2, 71256, Note_on_c, 10, 57, 127
2, 71256, Note_on_c, 6, 66, 127
2, 71500, Note_off_c, 11, 70, 127
2, 71503, Note_off_c, 6, 66, 127
2, 71503, Note_off_c, 10, 57, 127
2, 71505, Note_on_c, 11, 58, 127
2, 71505, Note_on_c, 7, 67, 127
2, 71750, Note_off_c, 2, 74, 127
2, 71750, Note_off_c, 11, 46, 127
2, 71755, Note_on_c, 3, 51, 127
2, 71755, Note_on_c, 2, 74, 127
2, 72002, Note_off_c, 2, 74, 127
2, 72002, Note_off_c, 3, 51, 127
2, 72004, Note_on_c, 10, 45, 127
2, 72004, Note_on_c, 1, 73, 127
2, 72233, Note_off_c, 11, 58, 127
2, 72254, Note_on_c, 10, 57, 127
2, 72500, Note_off_c, 1, 73, 127
2, 72501, Note_off_c, 10, 57, 127
2, 72504, Note_on_c, 4, 52, 127
2, 72504, Note_on_c, 0, 72, 127
2, 72751, Note_off_c, 4, 52, 127
2, 72753, Note_on_c, 7, 55, 127
2, 72753, Note_on_c, 11, 70, 127
2, 73000, Note_off_c, 11, 70, 127
2, 73000, Note_off_c, 7, 55, 127
2, 73003, Note_on_c, 6, 54, 127
2, 73003, Note_on_c, 10, 69, 127
2, 73247, Note_off_c, 7, 67, 127
2, 73250, Note_off_c, 10, 69, 127
2, 73250, Note_off_c, 6, 54, 127
2, 73252, Note_on_c, 7, 55, 127
2, 73252, Note_on_c, 7, 67, 127
2, 73499, Note_off_c, 7, 67, 127
2, 73499, Note_off_c, 7, 55, 127
2, 73502, Note_on_c, 10, 57, 127
2, 73502, Note_on_c, 6, 66, 127
2, 73746, Note_off_c, 10, 45, 127
2, 73749, Note_off_c, 6, 66, 127
2, 73752, Note_off_c, 0, 72, 127
2, 73752, Note_on_c, 6, 54, 127
2, 73752, Note_on_c, 0, 72, 127
2, 73752, Note_on_c, 3, 63, 127
2, 73999, Note_off_c, 3, 63, 127
2, 73999, Note_off_c, 0, 72, 127
2, 73999, Note_off_c, 6, 54, 127
2, 74001, Note_on_c, 7, 43, 127
2, 74001, Note_on_c, 12, 71, 127
2, 74001, Note_on_c, 2, 62, 127
2, 74230, Note_off_c, 10, 57, 127
2, 74248, Note_off_c, 2, 62, 127
2, 74251, Note_on_c, 7, 55, 127
2, 74251, Note_on_c, 4, 64, 127
2, 74495, Note_off_c, 12, 71, 127
2, 74498, Note_off_c, 4, 64, 127
2, 74498, Note_off_c, 7, 55, 127
2, 74500, Note_on_c, 2, 50, 127
2, 74500, Note_on_c, 11, 70, 127
2, 74500, Note_on_c, 5, 65, 127
2, 74747, Note_off_c, 5, 65, 127
2, 74747, Note_off_c, 2, 50, 127
2, 74750, Note_on_c, 5, 53, 127
2, 74750, Note_on_c, 10, 69, 127
2, 74997, Note_off_c, 10, 69, 127
2, 74997, Note_off_c, 5, 53, 127
2, 75000, Note_on_c, 4, 52, 127
2, 75000, Note_on_c, 7, 67, 127
2, 75247, Note_off_c, 7, 67, 127
2, 75247, Note_off_c, 4, 52, 127
2, 75249, Note_on_c, 5, 53, 127
2, 75249, Note_on_c, 5, 65, 127
2, 75496, Note_off_c, 5, 65, 127
2, 75496, Note_off_c, 5, 53, 127
2, 75499, Note_on_c, 7, 55, 127
2, 75499, Note_on_c, 4, 64, 127
2, 75743, Note_off_c, 7, 43, 127
2, 75748, Note_off_c, 11, 70, 127
2, 75749, Note_off_c, 4, 64, 127
2, 75752, Note_on_c, 11, 70, 127
2, 75752, Note_on_c, 1, 61, 127
2, 75752, Note_on_c, 4, 52, 127
2, 75993, Note_off_c, 7, 55, 127
2, 75999, Note_off_c, 4, 52, 127
2, 76004, Note_off_c, 1, 61, 127
2, 76004, Note_off_c, 11, 70, 127
2, 76014, Note_on_c, 5, 41, 127
2, 76014, Note_on_c, 10, 69, 127
2, 76014, Note_on_c, 0, 60, 127
2, 76264, Note_on_c, 0, 48, 127
2, 76511, Note_off_c, 0, 48, 127
2, 76513, Note_on_c, 2, 50, 127
2, 76760, Note_off_c, 2, 50, 127
2, 76763, Note_on_c, 4, 52, 127
2, 77010, Note_off_c, 4, 52, 127
2, 77012, Note_on_c, 5, 53, 127
2, 77262, Note_off_c, 5, 41, 127
2, 77262, Note_on_c, 10, 57, 127
2, 77506, Note_off_c, 5, 53, 127
2, 77509, Note_off_c, 10, 57, 127
2, 77509, Note_off_c, 0, 60, 127
2, 77512, Note_on_c, 2, 50, 127
2, 77512, Note_on_c, 5, 65, 127
2, 77759, Note_off_c, 2, 50, 127
2, 77761, Note_on_c, 5, 53, 127
2, 78008, Note_off_c, 5, 53, 127
2, 78008, Note_off_c, 10, 69, 127
2, 78011, Note_on_c, 12, 47, 127
2, 78011, Note_on_c, 7, 67, 127
2, 78240, Note_off_c, 5, 65, 127
2, 78260, Note_on_c, 5, 65, 127
2, 78507, Note_off_c, 5, 65, 127
2, 78507, Note_off_c, 12, 47, 127
2, 78510, Note_on_c, 7, 43, 127
2, 78510, Note_on_c, 4, 64, 127
2, 78757, Note_off_c, 4, 64, 127
2, 78760, Note_on_c, 2, 62, 127
2, 79006, Note_off_c, 7, 43, 127
2, 79007, Note_off_c, 2, 62, 127
2, 79009, Note_on_c, 0, 48, 127
2, 79009, Note_on_c, 4, 64, 127
2, 79259, Note_off_c, 7, 67, 127
2, 79259, Note_on_c, 7, 67, 127
2, 79506, Note_off_c, 7, 67, 127
2, 79508, Note_on_c, 10, 69, 127
2, 79755, Note_off_c, 10, 69, 127
2, 79758, Note_on_c, 0, 72, 127
2, 79997, Note_off_c, 4, 64, 127
2, 80005, Note_off_c, 0, 72, 127
2, 80008, Note_on_c, 2, 62, 127
2, 80008, Note_on_c, 5, 65, 127
2, 80130, Note_off_c, 5, 65, 127
2, 80132, Note_on_c, 4, 64, 127
2, 80254, Note_off_c, 4, 64, 127
2, 80254, Note_off_c, 0, 48, 127
2, 80257, Note_on_c, 2, 50, 127
2, 80257, Note_on_c, 5, 65, 127
2, 80379, Note_off_c, 2, 50, 127
2, 80382, Note_on_c, 4, 52, 127
2, 80504, Note_off_c, 4, 52, 127
2, 80507, Note_on_c, 5, 53, 127
2, 80629, Note_off_c, 5, 53, 127
2, 80632, Note_on_c, 7, 55, 127
2, 80754, Note_off_c, 7, 55, 127
2, 80756, Note_on_c, 10, 57, 127
2, 81000, Note_off_c, 10, 57, 127
2, 81006, Note_on_c, 12, 47, 127
2, 81256, Note_on_c, 2, 74, 127
2, 81378, Note_off_c, 2, 74, 127
2, 81380, Note_on_c, 0, 72, 127
2, 81502, Note_off_c, 0, 72, 127
2, 81505, Note_on_c, 7, 55, 127
2, 81505, Note_on_c, 2, 74, 127
2, 81752, Note_off_c, 2, 74, 127
2, 81752, Note_off_c, 5, 65, 127
2, 81755, Note_on_c, 5, 65, 127
2, 81994, Note_off_c, 12, 47, 127
2, 82002, Note_off_c, 5, 65, 127
2, 82004, Note_on_c, 0, 48, 127
2, 82004, Note_on_c, 4, 64, 127
2, 82244, Note_off_c, 2, 62, 127
2, 82254, Note_on_c, 2, 62, 127
2, 82501, Note_off_c, 2, 62, 127
2, 82504, Note_on_c, 0, 60, 127
2, 82751, Note_off_c, 0, 60, 127
2, 82753, Note_on_c, 12, 59, 127
2, 83000, Note_off_c, 12, 59, 127
2, 83003, Note_on_c, 0, 60, 127
2, 83252, Note_off_c, 4, 64, 127
2, 83252, Note_on_c, 7, 67, 127
2, 83499, Note_off_c, 7, 67, 127
2, 83499, Note_off_c, 0, 48, 127
2, 83499, Note_off_c, 7, 55, 127
2, 83502, Note_on_c, 12, 47, 127
2, 83502, Note_on_c, 10, 69, 127
2, 83749, Note_off_c, 10, 69, 127
2, 83752, Note_on_c, 12, 71, 127
2, 83991, Note_off_c, 0, 60, 127
2, 83998, Note_off_c, 12, 47, 127
2, 83999, Note_off_c, 12, 71, 127
2, 84001, Note_on_c, 10, 45, 127
2, 84001, Note_on_c, 0, 72, 127
2, 84251, Note_on_c, 10, 69, 127
2, 84497, Note_off_c, 10, 45, 127
2, 84498, Note_off_c, 10, 69, 127
2, 84500, Note_on_c, 10, 57, 127
2, 84500, Note_on_c, 0, 48, 127
2, 84500, Note_on_c, 4, 64, 127
2, 84747, Note_off_c, 4, 64, 127
2, 84750, Note_on_c, 7, 67, 127
2, 84996, Note_off_c, 0, 48, 127
2, 84997, Note_off_c, 7, 67, 127
2, 85000, Note_on_c, 2, 50, 127
2, 85000, Note_on_c, 6, 66, 127
2, 85249, Note_on_c, 10, 69, 127
2, 85494, Note_off_c, 6, 66, 127
2, 85496, Note_off_c, 2, 50, 127
2, 85499, Note_on_c, 6, 54, 127
2, 85499, Note_on_c, 2, 62, 127
2, 85743, Note_off_c, 10, 69, 127
2, 85743, Note_off_c, 0, 72, 127
2, 85748, Note_on_c, 0, 72, 127
2, 85995, Note_off_c, 0, 72, 127
2, 85995, Note_off_c, 6, 54, 127
2, 85995, Note_off_c, 10, 57, 127
2, 85998, Note_on_c, 7, 43, 127
2, 85998, Note_on_c, 12, 71, 127
2, 86248, Note_on_c, 2, 50, 127
2, 86495, Note_off_c, 2, 50, 127
2, 86497, Note_on_c, 4, 52, 127
2, 86744, Note_off_c, 4, 52, 127
2, 86747, Note_on_c, 6, 54, 127
2, 86994, Note_off_c, 6, 54, 127
2, 86996, Note_on_c, 7, 55, 127
2, 87246, Note_off_c, 7, 43, 127
2, 87246, Note_on_c, 12, 59, 127
2, 87490, Note_off_c, 7, 55, 127
2, 87493, Note_off_c, 12, 59, 127
2, 87493, Note_off_c, 12, 71, 127
2, 87493, Note_off_c, 2, 62, 127
2, 87496, Note_on_c, 4, 52, 127
2, 87496, Note_on_c, 7, 67, 127
2, 87496, Note_on_c, 1, 73, 127
2, 87618, Note_off_c, 1, 73, 127
2, 87620, Note_on_c, 2, 74, 127
2, 87742, Note_off_c, 2, 74, 127
2, 87743, Note_off_c, 4, 52, 127
2, 87745, Note_on_c, 7, 55, 127
2, 87745, Note_on_c, 4, 76, 127
2, 87992, Note_off_c, 4, 76, 127
2, 87992, Note_off_c, 7, 55, 127
2, 87995, Note_on_c, 1, 49, 127
2, 87995, Note_on_c, 10, 69, 127
2, 88224, Note_off_c, 7, 67, 127
2, 88244, Note_on_c, 7, 67, 127
2, 88491, Note_off_c, 7, 67, 127
2, 88491, Note_off_c, 1, 49, 127
2, 88494, Note_on_c, 10, 45, 127
2, 88494, Note_on_c, 5, 65, 127
2, 88741, Note_off_c, 5, 65, 127
2, 88744, Note_on_c, 4, 64, 127
2, 88990, Note_off_c, 10, 45, 127
2, 88991, Note_off_c, 4, 64, 127
2, 88993, Note_on_c, 2, 50, 127
2, 88993, Note_on_c, 5, 65, 127
2, 89243, Note_off_c, 10, 69, 127
2, 89243, Note_on_c, 10, 69, 127
2, 89489, Note_off_c, 2, 50, 127
2, 89490, Note_off_c, 10, 69, 127
2, 89492, Note_on_c, 0, 48, 127
2, 89492, Note_on_c, 11, 70, 127
2, 89739, Note_off_c, 11, 70, 127
2, 89742, Note_on_c, 0, 72, 127
2, 89988, Note_off_c, 0, 48, 127
2, 89989, Note_off_c, 0, 72, 127
2, 89992, Note_on_c, 11, 46, 127
2, 89992, Note_on_c, 2, 74, 127
2, 90116, Note_on_c, 0, 72, 127
2, 90238, Note_off_c, 0, 72, 127
2, 90241, Note_on_c, 11, 70, 127
2, 90363, Note_off_c, 11, 70, 127
2, 90366, Note_on_c, 10, 69, 127
2, 90488, Note_off_c, 10, 69, 127
2, 90488, Note_off_c, 11, 46, 127
2, 90491, Note_on_c, 10, 45, 127
2, 90491, Note_on_c, 11, 70, 127
2, 90720, Note_off_c, 2, 74, 127
2, 90738, Note_off_c, 11, 70, 127
2, 90740, Note_on_c, 2, 74, 127
2, 90987, Note_off_c, 10, 45, 127
2, 90987, Note_off_c, 5, 65, 127
2, 90990, Note_on_c, 11, 46, 127
2, 90990, Note_on_c, 7, 67, 127
2, 91234, Note_off_c, 2, 74, 127
2, 91240, Note_on_c, 5, 77, 127
2, 91486, Note_off_c, 11, 46, 127
2, 91487, Note_off_c, 5, 77, 127
2, 91489, Note_on_c, 7, 43, 127
2, 91489, Note_on_c, 4, 76, 127
2, 91736, Note_off_c, 4, 76, 127
2, 91739, Note_on_c, 2, 74, 127
2, 91985, Note_off_c, 7, 43, 127
2, 91986, Note_off_c, 2, 74, 127
2, 91988, Note_on_c, 10, 45, 127
2, 91988, Note_on_c, 1, 73, 127
2, 92238, Note_off_c, 7, 67, 127
2, 92238, Note_on_c, 11, 70, 127
2, 92485, Note_off_c, 11, 70, 127
2, 92488, Note_on_c, 10, 69, 127
2, 92735, Note_off_c, 10, 69, 127
2, 92737, Note_on_c, 7, 67, 127
2, 92984, Note_off_c, 7, 67, 127
2, 92987, Note_on_c, 5, 65, 127
2, 93236, Note_off_c, 1, 73, 127
2, 93236, Note_on_c, 10, 69, 127
2, 93483, Note_off_c, 10, 69, 127
2, 93486, Note_on_c, 2, 74, 127
2, 93715, Note_off_c, 5, 65, 127
2, 93736, Note_on_c, 5, 65, 127
2, 93983, Note_off_c, 5, 65, 127
2, 93985, Note_on_c, 4, 64, 127
2, 94231, Note_off_c, 10, 45, 127
2, 94235, Note_on_c, 4, 52, 127
2, 94474, Note_off_c, 2, 74, 127
2, 94482, Note_off_c, 4, 52, 127
2, 94484, Note_on_c, 5, 53, 127
2, 94484, Note_on_c, 2, 74, 127
2, 94731, Note_off_c, 5, 53, 127
2, 94734, Note_on_c, 7, 55, 127
2, 94980, Note_off_c, 2, 74, 127
2, 94981, Note_off_c, 7, 55, 127
2, 94984, Note_on_c, 10, 57, 127
2, 94984, Note_on_c, 0, 72, 127
2, 95231, Note_off_c, 10, 57, 127
2, 95233, Note_on_c, 0, 60, 127
2, 95480, Note_off_c, 0, 60, 127
2, 95480, Note_off_c, 0, 72, 127
2, 95480, Note_off_c, 4, 64, 127
2, 95483, Note_on_c, 4, 52, 127
2, 95483, Note_on_c, 11, 70, 127
2, 95483, Note_on_c, 7, 67, 127
2, 95730, Note_off_c, 4, 52, 127
2, 95732, Note_on_c, 7, 55, 127
2, 95979, Note_off_c, 7, 55, 127
2, 95979, Note_off_c, 11, 70, 127
2, 95982, Note_on_c, 6, 54, 127
2, 95982, Note_on_c, 10, 69, 127
2, 96211, Note_off_c, 7, 67, 127
2, 96229, Note_off_c, 6, 54, 127
2, 96232, Note_on_c, 10, 57, 127
2, 96232, Note_on_c, 7, 67, 127
2, 96479, Note_off_c, 7, 67, 127
2, 96479, Note_off_c, 10, 57, 127
2, 96481, Note_on_c, 2, 50, 127
2, 96481, Note_on_c, 6, 66, 127
2, 96710, Note_off_c, 10, 69, 127
2, 96731, Note_on_c, 0, 60, 127
2, 96731, Note_on_c, 10, 69, 127
2, 96975, Note_off_c, 6, 66, 127
2, 96975, Note_off_c, 2, 50, 127
2, 96980, Note_on_c, 7, 55, 127
2, 96980, Note_on_c, 2, 62, 127
2, 97225, Note_off_c, 10, 69, 127
2, 97225, Note_off_c, 0, 60, 127
2, 97230, Note_on_c, 0, 60, 127
2, 97230, Note_on_c, 10, 69, 127
2, 97477, Note_off_c, 10, 69, 127
2, 97477, Note_off_c, 0, 60, 127
2, 97480, Note_on_c, 11, 58, 127
2, 97480, Note_on_c, 7, 67, 127
2, 97727, Note_off_c, 7, 67, 127
2, 97727, Note_off_c, 11, 58, 127
2, 97729, Note_on_c, 10, 57, 127
2, 97729, Note_on_c, 6, 66, 127
2, 97976, Note_off_c, 6, 66, 127
2, 97976, Note_off_c, 10, 57, 127
2, 97985, Note_on_c, 11, 58, 127
2, 97985, Note_on_c, 7, 67, 127
2, 98228, Note_off_c, 2, 62, 127
2, 98252, Note_off_c, 7, 67, 127
2, 98260, Note_on_c, 2, 74, 127
2, 98475, Note_off_c, 7, 55, 127
2, 98507, Note_off_c, 2, 74, 127
2, 98510, Note_on_c, 2, 50, 127
2, 98510, Note_on_c, 4, 76, 127
2, 98757, Note_off_c, 4, 76, 127
2, 98760, Note_on_c, 6, 78, 127
2, 99006, Note_off_c, 2, 50, 127
2, 99007, Note_off_c, 6, 78, 127
2, 99009, Note_on_c, 3, 51, 127
2, 99009, Note_on_c, 7, 79, 127
2, 99256, Note_off_c, 7, 79, 127
2, 99259, Note_on_c, 11, 82, 127
2, 99505, Note_off_c, 3, 51, 127
2, 99508, Note_on_c, 7, 55, 127
2, 99508, Note_on_c, 2, 74, 127
2, 99755, Note_off_c, 2, 74, 127
2, 99758, Note_on_c, 5, 77, 127
2, 99979, Note_off_c, 11, 58, 127
2, 100004, Note_off_c, 7, 55, 127
2, 100005, Note_off_c, 5, 77, 127
2, 100008, Note_on_c, 0, 48, 127
2, 100008, Note_on_c, 0, 60, 127
2, 100008, Note_on_c, 3, 75, 127
2, 100247, Note_off_c, 11, 82, 127
2, 100257, Note_on_c, 11, 82, 127
2, 100504, Note_off_c, 11, 82, 127
2, 100507, Note_on_c, 8, 80, 127
2, 100754, Note_off_c, 8, 80, 127
2, 100756, Note_on_c, 7, 79, 127
2, 101003, Note_off_c, 7, 79, 127
2, 101006, Note_on_c, 8, 80, 127
2, 101253, Note_off_c, 8, 80, 127
2, 101256, Note_on_c, 0, 84, 127
2, 101503, Note_off_c, 0, 84, 127
2, 101505, Note_on_c, 6, 78, 127
2, 101752, Note_off_c, 6, 78, 127
2, 101755, Note_on_c, 7, 79, 127
2, 102002, Note_off_c, 7, 79, 127
2, 102002, Note_off_c, 0, 48, 127
2, 102004, Note_on_c, 2, 50, 127
2, 102004, Note_on_c, 6, 78, 127
2, 102244, Note_off_c, 3, 75, 127
2, 102254, Note_on_c, 3, 75, 127
2, 102501, Note_off_c, 3, 75, 127
2, 102504, Note_on_c, 2, 74, 127
2, 102738, Note_off_c, 0, 60, 127
2, 102753, Note_on_c, 0, 60, 127
2, 103000, Note_off_c, 0, 60, 127
2, 103003, Note_on_c, 12, 59, 127
2, 103250, Note_off_c, 2, 74, 127
2, 103252, Note_on_c, 2, 74, 127
2, 103499, Note_off_c, 12, 59, 127
2, 103499, Note_off_c, 6, 78, 127
2, 103502, Note_on_c, 11, 58, 127
2, 103502, Note_on_c, 7, 79, 127
2, 103746, Note_off_c, 2, 74, 127
2, 103752, Note_on_c, 1, 73, 127
2, 103998, Note_off_c, 11, 58, 127
2, 103999, Note_off_c, 1, 73, 127
2, 104001, Note_on_c, 10, 57, 127
2, 104001, Note_on_c, 2, 74, 127
2, 104230, Note_off_c, 7, 79, 127
2, 104251, Note_on_c, 7, 79, 127
2, 104497, Note_off_c, 10, 57, 127
2, 104498, Note_off_c, 7, 79, 127
2, 104500, Note_on_c, 7, 55, 127
2, 104500, Note_on_c, 6, 78, 127
2, 104747, Note_off_c, 6, 78, 127
2, 104750, Note_on_c, 4, 76, 127
2, 104989, Note_off_c, 2, 74, 127
2, 104994, Note_off_c, 2, 50, 127
2, 104996, Note_off_c, 7, 55, 127
2, 104997, Note_off_c, 4, 76, 127
2, 105000, Note_on_c, 2, 50, 127
2, 105000, Note_on_c, 10, 57, 127
2, 105000, Note_on_c, 6, 78, 127
2, 105000, Note_on_c, 2, 74, 127
2, 105247, Note_off_c, 6, 78, 127
2, 105249, Note_on_c, 7, 79, 127
2, 105496, Note_off_c, 7, 79, 127
2, 105496, Note_off_c, 10, 57, 127
2, 105499, Note_on_c, 2, 62, 127
2, 105499, Note_on_c, 10, 81, 127
2, 105728, Note_off_c, 2, 74, 127
2, 105748, Note_on_c, 0, 72, 127
2, 105988, Note_off_c, 2, 50, 127
2, 105995, Note_off_c, 0, 72, 127
2, 105998, Note_on_c, 7, 55, 127
2, 105998, Note_on_c, 11, 70, 127
2, 106227, Note_off_c, 10, 81, 127
2, 106248, Note_on_c, 2, 74, 127
2, 106487, Note_off_c, 2, 62, 127
2, 106492, Note_off_c, 11, 70, 127
2, 106495, Note_off_c, 2, 74, 127
2, 106497, Note_on_c, 3, 63, 127
2, 106497, Note_on_c, 7, 79, 127
2, 106497, Note_on_c, 0, 72, 127
2, 106744, Note_off_c, 7, 79, 127
2, 106747, Note_on_c, 6, 78, 127
2, 106993, Note_off_c, 3, 63, 127
2, 106994, Note_off_c, 6, 78, 127
2, 106996, Note_on_c, 2, 62, 127
2, 106996, Note_on_c, 7, 79, 127
2, 107225, Note_off_c, 0, 72, 127
2, 107246, Note_on_c, 11, 70, 127
2, 107492, Note_off_c, 2, 62, 127
2, 107493, Note_off_c, 11, 70, 127
2, 107496, Note_on_c, 0, 60, 127
2, 107496, Note_on_c, 3, 75, 127
2, 107724, Note_off_c, 7, 79, 127
2, 107745, Note_on_c, 10, 81, 127
2, 107990, Note_off_c, 3, 75, 127
2, 107992, Note_off_c, 10, 81, 127
2, 107992, Note_off_c, 0, 60, 127
2, 107995, Note_on_c, 11, 58, 127
2, 107995, Note_on_c, 2, 74, 127
2, 107995, Note_on_c, 11, 82, 127
2, 108242, Note_off_c, 11, 58, 127
2, 108244, Note_on_c, 0, 60, 127
2, 108491, Note_off_c, 0, 60, 127
2, 108494, Note_on_c, 2, 62, 127
2, 108728, Note_off_c, 7, 55, 127
2, 108741, Note_off_c, 2, 74, 127
2, 108744, Note_on_c, 5, 53, 127
2, 108744, Note_on_c, 2, 74, 127
2, 108991, Note_off_c, 2, 74, 127
2, 108991, Note_off_c, 5, 53, 127
2, 108993, Note_on_c, 4, 52, 127
2, 108993, Note_on_c, 7, 79, 127
2, 109222, Note_off_c, 2, 62, 127
2, 109243, Note_off_c, 11, 82, 127
2, 109243, Note_on_c, 1, 61, 127
2, 109243, Note_on_c, 10, 81, 127
2, 109490, Note_off_c, 10, 81, 127
2, 109490, Note_off_c, 1, 61, 127
2, 109492, Note_on_c, 2, 62, 127
2, 109492, Note_on_c, 11, 82, 127
2, 109721, Note_off_c, 7, 79, 127
2, 109721, Note_off_c, 4, 52, 127
2, 109742, Note_on_c, 2, 50, 127
2, 109742, Note_on_c, 7, 79, 127
2, 109986, Note_off_c, 11, 82, 127
2, 109986, Note_off_c, 2, 62, 127
2, 109989, Note_off_c, 2, 50, 127
2, 109992, Note_on_c, 1, 49, 127
2, 109992, Note_on_c, 10, 81, 127
2, 110236, Note_off_c, 7, 79, 127
2, 110241, Note_on_c, 10, 57, 127
2, 110241, Note_on_c, 7, 79, 127
2, 110304, Note_off_c, 1, 49, 127
2, 110488, Note_off_c, 7, 79, 127
2, 110488, Note_off_c, 10, 57, 127
2, 110491, Note_on_c, 12, 59, 127
2, 110491, Note_on_c, 5, 77, 127
2, 110738, Note_off_c, 5, 77, 127
2, 110738, Note_off_c, 12, 59, 127
2, 110740, Note_on_c, 1, 61, 127
2, 110740, Note_on_c, 4, 76, 127
2, 110987, Note_off_c, 4, 76, 127
2, 110987, Note_off_c, 1, 61, 127
2, 110990, Note_on_c, 2, 62, 127
2, 110990, Note_on_c, 5, 77, 127
2, 111240, Note_on_c, 10, 57, 127
2, 111484, Note_off_c, 2, 62, 127
2, 111487, Note_off_c, 10, 57, 127
2, 111489, Note_on_c, 2, 50, 127
2, 111734, Note_off_c, 10, 81, 127
2, 111736, Note_off_c, 2, 50, 127
2, 111739, Note_on_c, 5, 53, 127
2, 111739, Note_on_c, 8, 80, 127
2, 111986, Note_off_c, 8, 80, 127
2, 111986, Note_off_c, 5, 53, 127
2, 111988, Note_on_c, 12, 47, 127
2, 111988, Note_on_c, 7, 79, 127
2, 112238, Note_off_c, 5, 77, 127
2, 112238, Note_on_c, 7, 55, 127
2, 112238, Note_on_c, 5, 77, 127
2, 112300, Note_off_c, 12, 47, 127
2, 112485, Note_off_c, 5, 77, 127
2, 112485, Note_off_c, 7, 55, 127
2, 112488, Note_on_c, 10, 57, 127
2, 112488, Note_on_c, 4, 76, 127
2, 112735, Note_off_c, 4, 76, 127
2, 112735, Note_off_c, 10, 57, 127
2, 112737, Note_on_c, 12, 59, 127
2, 112737, Note_on_c, 2, 74, 127
2, 112984, Note_off_c, 2, 74, 127
2, 112984, Note_off_c, 12, 59, 127
2, 112987, Note_on_c, 0, 60, 127
2, 112987, Note_on_c, 4, 76, 127
2, 113236, Note_on_c, 7, 55, 127
2, 113481, Note_off_c, 0, 60, 127
2, 113483, Note_off_c, 7, 55, 127
2, 113486, Note_on_c, 0, 48, 127
2, 113730, Note_off_c, 7, 79, 127
2, 113733, Note_off_c, 0, 48, 127
2, 113736, Note_on_c, 4, 52, 127
2, 113736, Note_on_c, 7, 79, 127
2, 113983, Note_off_c, 7, 79, 127
2, 113983, Note_off_c, 4, 52, 127
2, 113985, Note_on_c, 10, 45, 127
2, 113985, Note_on_c, 6, 78, 127
2, 114235, Note_off_c, 4, 76, 127
2, 114235, Note_on_c, 3, 75, 127
2, 114482, Note_off_c, 3, 75, 127
2, 114484, Note_on_c, 10, 57, 127
2, 114484, Note_on_c, 2, 74, 127
2, 114731, Note_off_c, 2, 74, 127
2, 114734, Note_on_c, 0, 72, 127
2, 114973, Note_off_c, 10, 45, 127
2, 114981, Note_off_c, 0, 72, 127
2, 114984, Note_on_c, 12, 47, 127
2, 114984, Note_on_c, 2, 74, 127
2, 115212, Note_off_c, 10, 57, 127
2, 115233, Note_off_c, 6, 78, 127
2, 115233, Note_on_c, 7, 55, 127
2, 115233, Note_on_c, 4, 76, 127
2, 115480, Note_off_c, 4, 76, 127
2, 115480, Note_off_c, 7, 55, 127
2, 115483, Note_on_c, 2, 50, 127
2, 115483, Note_on_c, 5, 77, 127
2, 115483, Note_on_c, 7, 67, 127
2, 115730, Note_off_c, 2, 50, 127
2, 115732, Note_on_c, 5, 53, 127
2, 115972, Note_off_c, 12, 47, 127
2, 115979, Note_off_c, 5, 53, 127
2, 115982, Note_on_c, 4, 52, 127
2, 115982, Note_on_c, 0, 48, 127
2, 116229, Note_off_c, 4, 52, 127
2, 116232, Note_on_c, 5, 53, 127
2, 116478, Note_off_c, 5, 77, 127
2, 116479, Note_off_c, 5, 53, 127
2, 116479, Note_off_c, 2, 74, 127
2, 116481, Note_on_c, 7, 55, 127
2, 116481, Note_on_c, 0, 72, 127
2, 116481, Note_on_c, 4, 76, 127
2, 116728, Note_off_c, 4, 76, 127
2, 116728, Note_off_c, 0, 72, 127
2, 116731, Note_on_c, 12, 71, 127
2, 116731, Note_on_c, 2, 74, 127
2, 116978, Note_off_c, 2, 74, 127
2, 116978, Note_off_c, 12, 71, 127
2, 116980, Note_on_c, 4, 76, 127
2, 116980, Note_on_c, 0, 72, 127
2, 117227, Note_off_c, 7, 55, 127
2, 117230, Note_off_c, 0, 48, 127
2, 117230, Note_on_c, 4, 52, 127
2, 117476, Note_off_c, 0, 72, 127
2, 117477, Note_off_c, 4, 52, 127
2, 117477, Note_off_c, 7, 67, 127
2, 117480, Note_on_c, 10, 45, 127
2, 117480, Note_on_c, 11, 70, 127
2, 117727, Note_off_c, 10, 45, 127
2, 117729, Note_on_c, 0, 48, 127
2, 117976, Note_off_c, 0, 48, 127
2, 117976, Note_off_c, 11, 70, 127
2, 117979, Note_on_c, 5, 41, 127
2, 117979, Note_on_c, 10, 69, 127
2, 118226, Note_off_c, 5, 41, 127
2, 118228, Note_off_c, 4, 76, 127
2, 118228, Note_on_c, 0, 48, 127
2, 118228, Note_on_c, 4, 76, 127
2, 118475, Note_off_c, 4, 76, 127
2, 118475, Note_off_c, 0, 48, 127
2, 118478, Note_on_c, 2, 50, 127
2, 118478, Note_on_c, 2, 74, 127
2, 118725, Note_off_c, 2, 74, 127
2, 118725, Note_off_c, 2, 50, 127
2, 118728, Note_on_c, 4, 52, 127
2, 118728, Note_on_c, 0, 72, 127
2, 118975, Note_off_c, 0, 72, 127
2, 118975, Note_off_c, 4, 52, 127
2, 118977, Note_on_c, 5, 53, 127
2, 118977, Note_on_c, 2, 74, 127
2, 119227, Note_on_c, 10, 57, 127
2, 119227, Note_on_c, 5, 77, 127
2, 119232, Note_off_c, 2, 74, 127
2, 119474, Note_off_c, 5, 77, 127
2, 119474, Note_off_c, 10, 57, 127
2, 119476, Note_on_c, 2, 62, 127
2, 119476, Note_on_c, 10, 81, 127
2, 119723, Note_off_c, 10, 81, 127
2, 119731, Note_off_c, 10, 69, 127
2, 119738, Note_on_c, 0, 72, 127
2, 119738, Note_on_c, 10, 69, 127
2, 119985, Note_off_c, 10, 69, 127
2, 119985, Note_off_c, 0, 72, 127
2, 119992, Note_on_c, 7, 67, 127
2, 119992, Note_on_c, 12, 71, 127
2, 120225, Note_off_c, 5, 53, 127
2, 120241, Note_on_c, 10, 57, 127
2, 120488, Note_off_c, 10, 57, 127
2, 120491, Note_on_c, 7, 55, 127
2, 120738, Note_off_c, 7, 55, 127
2, 120740, Note_on_c, 5, 53, 127
2, 120971, Note_off_c, 2, 62, 127
2, 120987, Note_off_c, 5, 53, 127
2, 120987, Note_off_c, 12, 71, 127
2, 120987, Note_off_c, 7, 67, 127
2, 120990, Note_on_c, 7, 67, 127
2, 120990, Note_on_c, 4, 64, 127
2, 120990, Note_on_c, 0, 72, 127
2, 120990, Note_on_c, 4, 52, 127
2, 121237, Note_off_c, 4, 52, 127
2, 121240, Note_on_c, 7, 55, 127
2, 121487, Note_off_c, 7, 55, 127
2, 121489, Note_on_c, 0, 48, 127
2, 121736, Note_off_c, 0, 48, 127
2, 121739, Note_on_c, 4, 52, 127
2, 121986, Note_off_c, 4, 52, 127
2, 121988, Note_on_c, 7, 43, 127
2, 122235, Note_off_c, 4, 64, 127
2, 122235, Note_off_c, 7, 67, 127
2, 122238, Note_on_c, 7, 67, 127
2, 122238, Note_on_c, 4, 52, 127
2, 122485, Note_off_c, 4, 52, 127
2, 122485, Note_off_c, 7, 67, 127
2, 122488, Note_on_c, 5, 65, 127
2, 122488, Note_on_c, 2, 50, 127
2, 122735, Note_off_c, 2, 50, 127
2, 122735, Note_off_c, 5, 65, 127
2, 122737, Note_on_c, 4, 64, 127
2, 122737, Note_on_c, 0, 48, 127
2, 122984, Note_off_c, 0, 48, 127
2, 122984, Note_off_c, 4, 64, 127
2, 122987, Note_on_c, 2, 62, 127
2, 122987, Note_on_c, 7, 55, 127
2, 123234, Note_off_c, 2, 62, 127
2, 123236, Note_on_c, 4, 64, 127
2, 123483, Note_off_c, 4, 64, 127
2, 123486, Note_on_c, 5, 65, 127
2, 123720, Note_off_c, 0, 72, 127
2, 123736, Note_on_c, 12, 71, 127
2, 123982, Note_off_c, 7, 43, 127
2, 123983, Note_off_c, 12, 71, 127
2, 123985, Note_on_c, 0, 72, 127
2, 123985, Note_on_c, 0, 48, 127
2, 124216, Note_off_c, 5, 65, 127
2, 124237, Note_on_c, 5, 65, 127
2, 124486, Note_off_c, 5, 65, 127
2, 124490, Note_on_c, 4, 64, 127
2, 124739, Note_off_c, 4, 64, 127
2, 124742, Note_on_c, 2, 62, 127
2, 124991, Note_off_c, 2, 62, 127
2, 124994, Note_on_c, 4, 64, 127
2, 125246, Note_on_c, 7, 67, 127
2, 125498, Note_on_c, 0, 60, 127
2, 125729, Note_off_c, 4, 64, 127
2, 125745, Note_off_c, 7, 67, 127
2, 125751, Note_on_c, 4, 64, 127
2, 125997, Note_off_c, 0, 60, 127
2, 126000, Note_off_c, 4, 64, 127
2, 126000, Note_off_c, 0, 48, 127
2, 126000, Note_off_c, 0, 72, 127
2, 126003, Note_on_c, 10, 57, 127
2, 126003, Note_on_c, 0, 48, 127
2, 126258, Note_on_c, 0, 72, 127
2, 126502, Note_off_c, 7, 55, 127
2, 126510, Note_off_c, 0, 72, 127
2, 126512, Note_on_c, 2, 74, 127
2, 126512, Note_on_c, 5, 53, 127
2, 126764, Note_off_c, 5, 53, 127
2, 126764, Note_off_c, 2, 74, 127
2, 126767, Note_on_c, 4, 76, 127
2, 126767, Note_on_c, 4, 52, 127
2, 127019, Note_off_c, 4, 52, 127
2, 127019, Note_off_c, 4, 76, 127
2, 127022, Note_on_c, 5, 77, 127
2, 127022, Note_on_c, 2, 50, 127
2, 127274, Note_off_c, 2, 50, 127
2, 127274, Note_off_c, 5, 77, 127
2, 127277, Note_on_c, 10, 81, 127
2, 127277, Note_on_c, 4, 52, 127
2, 127529, Note_off_c, 4, 52, 127
2, 127529, Note_off_c, 10, 81, 127
2, 127532, Note_on_c, 2, 74, 127
2, 127532, Note_on_c, 5, 53, 127
2, 127784, Note_off_c, 2, 74, 127
2, 127786, Note_on_c, 5, 77, 127
2, 128038, Note_off_c, 5, 77, 127
2, 128038, Note_off_c, 0, 48, 127
2, 128038, Note_off_c, 10, 57, 127
2, 128041, Note_on_c, 11, 70, 127
2, 128041, Note_on_c, 7, 55, 127
2, 128041, Note_on_c, 0, 48, 127
2, 128299, Note_on_c, 10, 69, 127
2, 128546, Note_off_c, 5, 53, 127
2, 128553, Note_off_c, 10, 69, 127
2, 128556, Note_on_c, 7, 67, 127
2, 128556, Note_on_c, 4, 52, 127
2, 128810, Note_off_c, 4, 52, 127
2, 128810, Note_off_c, 7, 67, 127
2, 128813, Note_on_c, 5, 65, 127
2, 128813, Note_on_c, 2, 50, 127
2, 129067, Note_off_c, 2, 50, 127
2, 129067, Note_off_c, 5, 65, 127
2, 129071, Note_on_c, 7, 67, 127
2, 129071, Note_on_c, 4, 52, 127
2, 129328, Note_off_c, 7, 55, 127
2, 129328, Note_off_c, 11, 70, 127
2, 129328, Note_on_c, 11, 70, 127
2, 129328, Note_on_c, 5, 53, 127
2, 129580, Note_off_c, 7, 67, 127
2, 129582, Note_off_c, 5, 53, 127
2, 129586, Note_on_c, 4, 64, 127
2, 129586, Note_on_c, 7, 55, 127
2, 129837, Note_off_c, 11, 70, 127
2, 129843, Note_on_c, 7, 67, 127
2, 130090, Note_off_c, 4, 52, 127
2, 130095, Note_off_c, 4, 64, 127
2, 130097, Note_off_c, 0, 48, 127
2, 130098, Note_off_c, 7, 55, 127
2, 130116, Note_on_c, 0, 48, 127
2, 130116, Note_on_c, 10, 57, 127
2, 130116, Note_on_c, 5, 53, 127
2, 130116, Note_on_c, 0, 60, 127
2, 130355, Note_off_c, 7, 67, 127
2, 130376, Note_on_c, 4, 64, 127
2, 130633, Note_off_c, 4, 64, 127
2, 130633, Note_off_c, 5, 53, 127
2, 130633, Note_off_c, 10, 57, 127
2, 130636, Note_on_c, 4, 52, 127
2, 130636, Note_on_c, 7, 55, 127
2, 130636, Note_on_c, 5, 65, 127
2, 130893, Note_off_c, 5, 65, 127
2, 130896, Note_on_c, 7, 67, 127
2, 131145, Note_off_c, 0, 60, 127
2, 131153, Note_off_c, 7, 67, 127
2, 131153, Note_off_c, 7, 55, 127
2, 131153, Note_off_c, 4, 52, 127
2, 131156, Note_on_c, 5, 53, 127
2, 131156, Note_on_c, 2, 50, 127
2, 131156, Note_on_c, 10, 69, 127
2, 131445, Note_on_c, 5, 65, 127
2, 131731, Note_off_c, 5, 65, 127
2, 131734, Note_on_c, 8, 56, 127
2, 131734, Note_on_c, 2, 62, 127
2, 131998, Note_off_c, 10, 69, 127
2, 132022, Note_on_c, 12, 71, 127
2, 132297, Note_off_c, 2, 50, 127
2, 132297, Note_off_c, 5, 53, 127
2, 132303, Note_off_c, 2, 62, 127
2, 132305, Note_off_c, 12, 71, 127
2, 132305, Note_off_c, 0, 48, 127
2, 132306, Note_off_c, 8, 56, 127
2, 132308, Note_on_c, 7, 55, 127
2, 132308, Note_on_c, 0, 48, 127
2, 132308, Note_on_c, 4, 64, 127
2, 132308, Note_on_c, 0, 60, 127
2, 132308, Note_on_c, 0, 72, 127
2, 132308, Note_on_c, 7, 67, 127
2, 136910, Note_off_c, 7, 67, 127
2, 136910, Note_off_c, 0, 72, 127
2, 136910, Note_off_c, 0, 60, 127
2, 136910, Note_off_c, 4, 64, 127
2, 136910, Note_off_c, 0, 48, 127
2, 136910, Note_off_c, 7, 55, 127
2, 137259, Note_on_c, 7, 67, 127
2, 137430, Note_off_c, 7, 67, 127
2, 137433, Note_on_c, 5, 65, 127
2, 137604, Note_off_c, 5, 65, 127
2, 137607, Note_on_c, 7, 67, 127
2, 137950, Note_off_c, 7, 67, 127
2, 137953, Note_on_c, 0, 60, 127
2, 138296, Note_off_c, 0, 60, 127
2, 138299, Note_on_c, 10, 69, 127
2, 138384, Note_off_c, 10, 69, 127
2, 138387, Note_on_c, 7, 67, 127
2, 138472, Note_off_c, 7, 67, 127
2, 138475, Note_on_c, 10, 69, 127
2, 138560, Note_off_c, 10, 69, 127
2, 138564, Note_on_c, 7, 67, 127
2, 138649, Note_off_c, 7, 67, 127
2, 138652, Note_on_c, 10, 69, 127
2, 138995, Note_off_c, 10, 69, 127
2, 138998, Note_on_c, 7, 67, 127
2, 139861, Note_off_c, 7, 67, 127
2, 140033, Note_on_c, 5, 65, 127
2, 140204, Note_off_c, 5, 65, 127
2, 140207, Note_on_c, 4, 64, 127
2, 140378, Note_off_c, 4, 64, 127
2, 140381, Note_on_c, 5, 65, 127
2, 140552, Note_off_c, 5, 65, 127
2, 140555, Note_on_c, 7, 67, 127
2, 140726, Note_off_c, 7, 67, 127
2, 140730, Note_on_c, 4, 64, 127
2, 140901, Note_off_c, 4, 64, 127
2, 140904, Note_on_c, 5, 65, 127
2, 141075, Note_off_c, 5, 65, 127
2, 141078, Note_on_c, 2, 62, 127
2, 141249, Note_off_c, 2, 62, 127
2, 141252, Note_on_c, 5, 65, 127
2, 141423, Note_off_c, 5, 65, 127
2, 141426, Note_on_c, 4, 64, 127
2, 141597, Note_off_c, 4, 64, 127
2, 141601, Note_on_c, 5, 65, 127
2, 141772, Note_off_c, 5, 65, 127
2, 141775, Note_on_c, 7, 67, 127
2, 141946, Note_off_c, 7, 67, 127
2, 141949, Note_on_c, 10, 69, 127
2, 142120, Note_off_c, 10, 69, 127
2, 142123, Note_on_c, 5, 65, 127
2, 142294, Note_off_c, 5, 65, 127
2, 142297, Note_on_c, 7, 67, 127
2, 142468, Note_off_c, 7, 67, 127
2, 142472, Note_on_c, 4, 64, 127
2, 142643, Note_off_c, 4, 64, 127
2, 142646, Note_on_c, 2, 62, 127
2, 142817, Note_off_c, 2, 62, 127
2, 142820, Note_on_c, 4, 64, 127
2, 142820, Note_on_c, 0, 72, 127
2, 142991, Note_off_c, 0, 72, 127
2, 142991, Note_off_c, 4, 64, 127
2, 142994, Note_on_c, 5, 65, 127
2, 142994, Note_on_c, 12, 71, 127
2, 143165, Note_off_c, 12, 71, 127
2, 143165, Note_off_c, 5, 65, 127
2, 143168, Note_on_c, 4, 64, 127
2, 143168, Note_on_c, 0, 72, 127
2, 143339, Note_off_c, 4, 64, 127
2, 143343, Note_on_c, 5, 65, 127
2, 143513, Note_off_c, 0, 72, 127
2, 143514, Note_off_c, 5, 65, 127
2, 143517, Note_on_c, 2, 62, 127
2, 143517, Note_on_c, 7, 67, 127
2, 143688, Note_off_c, 2, 62, 127
2, 143691, Note_on_c, 4, 64, 127
2, 143862, Note_off_c, 4, 64, 127
2, 143862, Note_off_c, 7, 67, 127
2, 143865, Note_on_c, 0, 60, 127
2, 143865, Note_on_c, 4, 76, 127
2, 143950, Note_off_c, 4, 76, 127
2, 143954, Note_on_c, 2, 74, 127
2, 144039, Note_off_c, 2, 74, 127
2, 144039, Note_off_c, 0, 60, 127
2, 144042, Note_on_c, 12, 59, 127
2, 144042, Note_on_c, 4, 76, 127
2, 144127, Note_off_c, 4, 76, 127
2, 144130, Note_on_c, 2, 74, 127
2, 144215, Note_off_c, 2, 74, 127
2, 144216, Note_off_c, 12, 59, 127
2, 144219, Note_on_c, 0, 60, 127
2, 144219, Note_on_c, 4, 76, 127
2, 144390, Note_off_c, 0, 60, 127
2, 144393, Note_on_c, 2, 62, 127
2, 144564, Note_off_c, 2, 62, 127
2, 144564, Note_off_c, 4, 76, 127
2, 144567, Note_on_c, 0, 60, 127
2, 144567, Note_on_c, 2, 74, 127
2, 144738, Note_off_c, 0, 60, 127
2, 144741, Note_on_c, 2, 62, 127
2, 144912, Note_off_c, 2, 62, 127
2, 144916, Note_on_c, 12, 59, 127
2, 145087, Note_off_c, 12, 59, 127
2, 145090, Note_on_c, 0, 60, 127
2, 145261, Note_off_c, 0, 60, 127
2, 145264, Note_on_c, 10, 57, 127
2, 145435, Note_off_c, 10, 57, 127
2, 145438, Note_off_c, 2, 74, 127
2, 145438, Note_on_c, 12, 59, 127
2, 145609, Note_off_c, 12, 59, 127
2, 145612, Note_on_c, 0, 60, 127
2, 145612, Note_on_c, 0, 72, 127
2, 145783, Note_off_c, 0, 72, 127
2, 145783, Note_off_c, 0, 60, 127
2, 145787, Note_on_c, 2, 62, 127
2, 145787, Note_on_c, 12, 71, 127
2, 145958, Note_off_c, 12, 71, 127
2, 145958, Note_off_c, 2, 62, 127
2, 145961, Note_on_c, 4, 64, 127
2, 145961, Note_on_c, 0, 72, 127
2, 146132, Note_off_c, 0, 72, 127
2, 146132, Note_off_c, 4, 64, 127
2, 146135, Note_on_c, 6, 66, 127
2, 146135, Note_on_c, 2, 74, 127
2, 146306, Note_off_c, 2, 74, 127
2, 146306, Note_off_c, 6, 66, 127
2, 146309, Note_on_c, 7, 67, 127
2, 146309, Note_on_c, 12, 71, 127
2, 146480, Note_off_c, 12, 71, 127
2, 146483, Note_on_c, 0, 72, 127
2, 146654, Note_off_c, 0, 72, 127
2, 146658, Note_on_c, 10, 69, 127
2, 146829, Note_off_c, 10, 69, 127
2, 146832, Note_on_c, 0, 72, 127
2, 147003, Note_off_c, 0, 72, 127
2, 147003, Note_off_c, 7, 67, 127
2, 147006, Note_on_c, 6, 66, 127
2, 147006, Note_on_c, 12, 71, 127
2, 147177, Note_off_c, 12, 71, 127
2, 147177, Note_off_c, 6, 66, 127
2, 147180, Note_on_c, 4, 64, 127
2, 147180, Note_on_c, 0, 72, 127
2, 147351, Note_off_c, 0, 72, 127
2, 147351, Note_off_c, 4, 64, 127
2, 147354, Note_on_c, 7, 67, 127
2, 147354, Note_on_c, 2, 74, 127
2, 147439, Note_off_c, 7, 67, 127
2, 147443, Note_on_c, 6, 66, 127
2, 147528, Note_off_c, 6, 66, 127
2, 147528, Note_off_c, 2, 74, 127
2, 147531, Note_on_c, 7, 67, 127
2, 147531, Note_on_c, 4, 76, 127
2, 147616, Note_off_c, 7, 67, 127
2, 147620, Note_on_c, 6, 66, 127
2, 147705, Note_off_c, 6, 66, 127
2, 147705, Note_off_c, 4, 76, 127
2, 147708, Note_on_c, 7, 67, 127
2, 147708, Note_on_c, 0, 72, 127
2, 147793, Note_off_c, 7, 67, 127
2, 147796, Note_on_c, 6, 66, 127
2, 147881, Note_off_c, 6, 66, 127
2, 147882, Note_off_c, 0, 72, 127
2, 147885, Note_on_c, 4, 64, 127
2, 147885, Note_on_c, 2, 74, 127
2, 147970, Note_off_c, 4, 64, 127
2, 147973, Note_on_c, 6, 66, 127
2, 148058, Note_off_c, 6, 66, 127
2, 148059, Note_off_c, 2, 74, 127
2, 148062, Note_on_c, 7, 67, 127
2, 148062, Note_on_c, 12, 71, 127
2, 148233, Note_off_c, 12, 71, 127
2, 148236, Note_on_c, 10, 69, 127
2, 148407, Note_off_c, 10, 69, 127
2, 148410, Note_on_c, 7, 55, 127
2, 148410, Note_on_c, 12, 71, 127
2, 148581, Note_off_c, 12, 71, 127
2, 148581, Note_off_c, 7, 55, 127
2, 148584, Note_on_c, 5, 53, 127
2, 148584, Note_on_c, 0, 72, 127
2, 148755, Note_off_c, 0, 72, 127
2, 148755, Note_off_c, 5, 53, 127
2, 148758, Note_on_c, 7, 55, 127
2, 148758, Note_on_c, 12, 71, 127
2, 148929, Note_off_c, 12, 71, 127
2, 148933, Note_on_c, 0, 72, 127
2, 149103, Note_off_c, 7, 55, 127
2, 149104, Note_off_c, 0, 72, 127
2, 149107, Note_on_c, 0, 48, 127
2, 149107, Note_on_c, 10, 69, 127
2, 149278, Note_off_c, 10, 69, 127
2, 149281, Note_on_c, 12, 71, 127
2, 149452, Note_off_c, 12, 71, 127
2, 149452, Note_off_c, 0, 48, 127
2, 149455, Note_on_c, 10, 57, 127
2, 149455, Note_on_c, 0, 72, 127
2, 149540, Note_off_c, 10, 57, 127
2, 149544, Note_on_c, 7, 55, 127
2, 149629, Note_off_c, 7, 55, 127
2, 149629, Note_off_c, 7, 67, 127
2, 149632, Note_on_c, 10, 57, 127
2, 149632, Note_on_c, 4, 64, 127
2, 149717, Note_off_c, 10, 57, 127
2, 149720, Note_on_c, 7, 55, 127
2, 149805, Note_off_c, 7, 55, 127
2, 149806, Note_off_c, 4, 64, 127
2, 149809, Note_on_c, 10, 57, 127
2, 149809, Note_on_c, 5, 65, 127
2, 149980, Note_off_c, 0, 72, 127
2, 149983, Note_on_c, 10, 69, 127
2, 150154, Note_off_c, 10, 69, 127
2, 150154, Note_off_c, 10, 57, 127
2, 150157, Note_on_c, 7, 55, 127
2, 150157, Note_on_c, 11, 70, 127
2, 150329, Note_off_c, 5, 65, 127
2, 150331, Note_on_c, 2, 62, 127
2, 150502, Note_off_c, 2, 62, 127
2, 150506, Note_on_c, 4, 64, 127
2, 150677, Note_off_c, 11, 70, 127
2, 150680, Note_on_c, 7, 67, 127
2, 150851, Note_off_c, 7, 67, 127
2, 150854, Note_on_c, 10, 69, 127
2, 151025, Note_off_c, 7, 55, 127
2, 151197, Note_off_c, 4, 64, 127
2, 151200, Note_on_c, 5, 53, 127
2, 151200, Note_on_c, 2, 62, 127
2, 151371, Note_off_c, 5, 53, 127
2, 151374, Note_on_c, 4, 52, 127
2, 151545, Note_off_c, 4, 52, 127
2, 151545, Note_off_c, 2, 62, 127
2, 151545, Note_off_c, 10, 69, 127
2, 151548, Note_on_c, 5, 53, 127
2, 151548, Note_on_c, 7, 67, 127
2, 151548, Note_on_c, 12, 71, 127
2, 151719, Note_off_c, 5, 53, 127
2, 151722, Note_on_c, 7, 55, 127
2, 151893, Note_off_c, 7, 55, 127
2, 151893, Note_off_c, 12, 71, 127
2, 151897, Note_on_c, 4, 52, 127
2, 151897, Note_on_c, 0, 72, 127
2, 152068, Note_off_c, 4, 52, 127
2, 152071, Note_on_c, 5, 53, 127
2, 152242, Note_off_c, 5, 53, 127
2, 152242, Note_off_c, 7, 67, 127
2, 152245, Note_on_c, 2, 50, 127
2, 152245, Note_on_c, 5, 65, 127
2, 152416, Note_off_c, 5, 65, 127
2, 152416, Note_off_c, 2, 50, 127
2, 152419, Note_on_c, 5, 53, 127
2, 152419, Note_on_c, 10, 69, 127
2, 152590, Note_off_c, 10, 69, 127
2, 152590, Note_off_c, 5, 53, 127
2, 152591, Note_off_c, 0, 72, 127
2, 152593, Note_on_c, 4, 52, 127
2, 152593, Note_on_c, 7, 67, 127
2, 152593, Note_on_c, 0, 72, 127
2, 152764, Note_off_c, 7, 67, 127
2, 152764, Note_off_c, 4, 52, 127
2, 152768, Note_on_c, 5, 53, 127
2, 152768, Note_on_c, 10, 69, 127
2, 152939, Note_off_c, 10, 69, 127
2, 152939, Note_off_c, 5, 53, 127
2, 152942, Note_on_c, 7, 55, 127
2, 152942, Note_on_c, 2, 62, 127
2, 153113, Note_off_c, 7, 55, 127
2, 153116, Note_on_c, 10, 57, 127
2, 153287, Note_off_c, 10, 57, 127
2, 153287, Note_off_c, 0, 72, 127
2, 153290, Note_on_c, 5, 53, 127
2, 153290, Note_on_c, 12, 71, 127
2, 153461, Note_off_c, 5, 53, 127
2, 153464, Note_on_c, 7, 55, 127
2, 153635, Note_off_c, 7, 55, 127
2, 153635, Note_off_c, 12, 71, 127
2, 153636, Note_off_c, 2, 62, 127
2, 153639, Note_on_c, 4, 52, 127
2, 153639, Note_on_c, 0, 60, 127
2, 153639, Note_on_c, 0, 72, 127
2, 153810, Note_off_c, 4, 52, 127
2, 153813, Note_on_c, 2, 50, 127
2, 153982, Note_off_c, 0, 60, 127
2, 153984, Note_off_c, 2, 50, 127
2, 153987, Note_on_c, 4, 52, 127
2, 153987, Note_on_c, 7, 79, 127
2, 154158, Note_off_c, 7, 79, 127
2, 154158, Note_off_c, 4, 52, 127
2, 154161, Note_on_c, 5, 53, 127
2, 154161, Note_on_c, 5, 77, 127
2, 154332, Note_off_c, 5, 77, 127
2, 154332, Note_off_c, 5, 53, 127
2, 154335, Note_on_c, 4, 52, 127
2, 154335, Note_on_c, 7, 79, 127
2, 154506, Note_off_c, 4, 52, 127
2, 154510, Note_on_c, 5, 53, 127
2, 154681, Note_off_c, 5, 53, 127
2, 154681, Note_off_c, 0, 72, 127
2, 154684, Note_on_c, 2, 50, 127
2, 154684, Note_on_c, 0, 72, 127
2, 154855, Note_off_c, 2, 50, 127
2, 154858, Note_on_c, 4, 52, 127
2, 155024, Note_off_c, 7, 79, 127
2, 155029, Note_off_c, 4, 52, 127
2, 155032, Note_on_c, 5, 53, 127
2, 155032, Note_on_c, 10, 81, 127
2, 155117, Note_off_c, 10, 81, 127
2, 155121, Note_on_c, 7, 79, 127
2, 155206, Note_off_c, 7, 79, 127
2, 155206, Note_off_c, 5, 53, 127
2, 155209, Note_on_c, 4, 52, 127
2, 155209, Note_on_c, 10, 81, 127
2, 155375, Note_off_c, 0, 72, 127
2, 155380, Note_off_c, 4, 52, 127
2, 155383, Note_on_c, 5, 53, 127
2, 155383, Note_on_c, 0, 72, 127
2, 155554, Note_off_c, 0, 72, 127
2, 155554, Note_off_c, 5, 53, 127
2, 155557, Note_on_c, 7, 55, 127
2, 155557, Note_on_c, 12, 71, 127
2, 155728, Note_off_c, 12, 71, 127
2, 155728, Note_off_c, 7, 55, 127
2, 155729, Note_off_c, 10, 81, 127
2, 155732, Note_on_c, 5, 53, 127
2, 155732, Note_on_c, 0, 72, 127
2, 155732, Note_on_c, 7, 79, 127
2, 155903, Note_off_c, 5, 53, 127
2, 155906, Note_on_c, 7, 55, 127
2, 156077, Note_off_c, 7, 55, 127
2, 156077, Note_off_c, 0, 72, 127
2, 156080, Note_on_c, 4, 52, 127
2, 156080, Note_on_c, 7, 67, 127
2, 156251, Note_off_c, 4, 52, 127
2, 156254, Note_on_c, 5, 53, 127
2, 156425, Note_off_c, 5, 53, 127
2, 156425, Note_off_c, 7, 67, 127
2, 156426, Note_off_c, 7, 79, 127
2, 156428, Note_on_c, 2, 50, 127
2, 156428, Note_on_c, 2, 74, 127
2, 156428, Note_on_c, 6, 78, 127
2, 156599, Note_off_c, 2, 50, 127
2, 156603, Note_on_c, 1, 49, 127
2, 156773, Note_off_c, 6, 78, 127
2, 156774, Note_off_c, 1, 49, 127
2, 156777, Note_on_c, 2, 50, 127
2, 156777, Note_on_c, 10, 81, 127
2, 156948, Note_off_c, 10, 81, 127
2, 156948, Note_off_c, 2, 50, 127
2, 156951, Note_on_c, 4, 52, 127
2, 156951, Note_on_c, 7, 79, 127
2, 157122, Note_off_c, 7, 79, 127
2, 157122, Note_off_c, 4, 52, 127
2, 157122, Note_off_c, 2, 74, 127
2, 157125, Note_on_c, 6, 54, 127
2, 157125, Note_on_c, 0, 72, 127
2, 157125, Note_on_c, 10, 81, 127
2, 157296, Note_off_c, 6, 54, 127
2, 157299, Note_on_c, 7, 55, 127
2, 157470, Note_off_c, 7, 55, 127
2, 157470, Note_off_c, 10, 81, 127
2, 157474, Note_on_c, 4, 52, 127
2, 157474, Note_on_c, 2, 74, 127
2, 157645, Note_off_c, 4, 52, 127
2, 157648, Note_on_c, 6, 54, 127
2, 157819, Note_off_c, 6, 54, 127
2, 157819, Note_off_c, 2, 74, 127
2, 157819, Note_off_c, 0, 72, 127
2, 157822, Note_on_c, 7, 55, 127
2, 157822, Note_on_c, 12, 71, 127
2, 157822, Note_on_c, 12, 83, 127
2, 157907, Note_off_c, 12, 83, 127
2, 157910, Note_on_c, 10, 81, 127
2, 157995, Note_off_c, 10, 81, 127
2, 157996, Note_off_c, 7, 55, 127
2, 157999, Note_on_c, 6, 54, 127
2, 157999, Note_on_c, 12, 83, 127
2, 158170, Note_off_c, 6, 54, 127
2, 158170, Note_off_c, 12, 71, 127
2, 158173, Note_on_c, 7, 55, 127
2, 158173, Note_on_c, 2, 74, 127
2, 158344, Note_off_c, 2, 74, 127
2, 158344, Note_off_c, 7, 55, 127
2, 158347, Note_on_c, 10, 57, 127
2, 158347, Note_on_c, 0, 72, 127
2, 158518, Note_off_c, 0, 72, 127
2, 158518, Note_off_c, 10, 57, 127
2, 158519, Note_off_c, 12, 83, 127
2, 158521, Note_on_c, 7, 55, 127
2, 158521, Note_on_c, 2, 74, 127
2, 158521, Note_on_c, 10, 81, 127
2, 158692, Note_off_c, 7, 55, 127
2, 158696, Note_on_c, 10, 57, 127
2, 158866, Note_off_c, 2, 74, 127
2, 158867, Note_off_c, 10, 57, 127
2, 158870, Note_on_c, 5, 53, 127
2, 158870, Note_on_c, 10, 69, 127
2, 159041, Note_off_c, 5, 53, 127
2, 159044, Note_on_c, 7, 55, 127
2, 159215, Note_off_c, 7, 55, 127
2, 159215, Note_off_c, 10, 69, 127
2, 159215, Note_off_c, 10, 81, 127
2, 159218, Note_on_c, 4, 52, 127
2, 159218, Note_on_c, 4, 76, 127
2, 159218, Note_on_c, 8, 80, 127
2, 159389, Note_off_c, 4, 52, 127
2, 159392, Note_on_c, 2, 50, 127
2, 159563, Note_off_c, 2, 50, 127
2, 159563, Note_off_c, 8, 80, 127
2, 159567, Note_on_c, 4, 52, 127
2, 159567, Note_on_c, 12, 83, 127
2, 159738, Note_off_c, 12, 83, 127
2, 159738, Note_off_c, 4, 52, 127
2, 159741, Note_on_c, 6, 54, 127
2, 159741, Note_on_c, 10, 81, 127
2, 159912, Note_off_c, 10, 81, 127
2, 159912, Note_off_c, 6, 54, 127
2, 159912, Note_off_c, 4, 76, 127
2, 159915, Note_on_c, 8, 56, 127
2, 159915, Note_on_c, 2, 74, 127
2, 159915, Note_on_c, 12, 83, 127
2, 160086, Note_off_c, 8, 56, 127
2, 160089, Note_on_c, 10, 57, 127
2, 160260, Note_off_c, 10, 57, 127
2, 160260, Note_off_c, 12, 83, 127
2, 160263, Note_on_c, 6, 54, 127
2, 160263, Note_on_c, 4, 76, 127
2, 160434, Note_off_c, 6, 54, 127
2, 160438, Note_on_c, 8, 56, 127
2, 160608, Note_off_c, 4, 76, 127
2, 160609, Note_off_c, 8, 56, 127
2, 160609, Note_off_c, 2, 74, 127
2, 160612, Note_on_c, 10, 57, 127
2, 160612, Note_on_c, 0, 72, 127
2, 160612, Note_on_c, 0, 84, 127
2, 160697, Note_off_c, 0, 84, 127
2, 160700, Note_on_c, 12, 83, 127
2, 160785, Note_off_c, 12, 83, 127
2, 160786, Note_off_c, 10, 57, 127
2, 160789, Note_on_c, 8, 56, 127
2, 160789, Note_on_c, 0, 84, 127
2, 160960, Note_off_c, 8, 56, 127
2, 160960, Note_off_c, 0, 72, 127
2, 160963, Note_on_c, 10, 57, 127
2, 160963, Note_on_c, 4, 76, 127
2, 161134, Note_off_c, 4, 76, 127
2, 161134, Note_off_c, 10, 57, 127
2, 161137, Note_on_c, 12, 59, 127
2, 161137, Note_on_c, 2, 74, 127
2, 161308, Note_off_c, 2, 74, 127
2, 161308, Note_off_c, 12, 59, 127
2, 161311, Note_on_c, 10, 57, 127
2, 161311, Note_on_c, 4, 76, 127
2, 161482, Note_off_c, 10, 57, 127
2, 161485, Note_on_c, 12, 59, 127
2, 161656, Note_off_c, 12, 59, 127
2, 161656, Note_off_c, 4, 76, 127
2, 161660, Note_on_c, 7, 55, 127
2, 161660, Note_on_c, 10, 81, 127
2, 161831, Note_off_c, 7, 55, 127
2, 161834, Note_on_c, 10, 57, 127
2, 162005, Note_off_c, 10, 57, 127
2, 162005, Note_off_c, 10, 81, 127
2, 162008, Note_on_c, 6, 54, 127
2, 162008, Note_on_c, 2, 74, 127
2, 162179, Note_off_c, 6, 54, 127
2, 162182, Note_on_c, 7, 55, 127
2, 162353, Note_off_c, 7, 55, 127
2, 162354, Note_off_c, 0, 84, 127
2, 162356, Note_on_c, 4, 52, 127
2, 162356, Note_on_c, 0, 84, 127
2, 162527, Note_off_c, 4, 52, 127
2, 162531, Note_on_c, 6, 54, 127
2, 162701, Note_off_c, 0, 84, 127
2, 162702, Note_off_c, 6, 54, 127
2, 162705, Note_on_c, 7, 55, 127
2, 162705, Note_on_c, 12, 83, 127
2, 162876, Note_off_c, 7, 55, 127
2, 162879, Note_on_c, 10, 57, 127
2, 163050, Note_off_c, 10, 57, 127
2, 163050, Note_off_c, 12, 83, 127
2, 163053, Note_on_c, 12, 59, 127
2, 163053, Note_on_c, 7, 79, 127
2, 163224, Note_off_c, 12, 59, 127
2, 163227, Note_on_c, 7, 55, 127
2, 163398, Note_off_c, 7, 55, 127
2, 163398, Note_off_c, 7, 79, 127
2, 163402, Note_on_c, 0, 60, 127
2, 163402, Note_on_c, 4, 76, 127
2, 163573, Note_off_c, 0, 60, 127
2, 163576, Note_on_c, 12, 59, 127
2, 163747, Note_off_c, 12, 59, 127
2, 163747, Note_off_c, 2, 74, 127
2, 163750, Note_on_c, 0, 60, 127
2, 163750, Note_on_c, 0, 72, 127
2, 163921, Note_off_c, 0, 72, 127
2, 163921, Note_off_c, 0, 60, 127
2, 163924, Note_on_c, 2, 62, 127
2, 163924, Note_on_c, 12, 71, 127
2, 164095, Note_off_c, 12, 71, 127
2, 164095, Note_off_c, 2, 62, 127
2, 164096, Note_off_c, 4, 76, 127
2, 164098, Note_on_c, 0, 60, 127
2, 164098, Note_on_c, 10, 69, 127
2, 164098, Note_on_c, 6, 78, 127
2, 164269, Note_off_c, 0, 60, 127
2, 164273, Note_on_c, 2, 62, 127
2, 164443, Note_off_c, 6, 78, 127
2, 164443, Note_off_c, 10, 69, 127
2, 164444, Note_off_c, 2, 62, 127
2, 164447, Note_on_c, 12, 59, 127
2, 164447, Note_on_c, 12, 71, 127
2, 164447, Note_on_c, 7, 79, 127
2, 164618, Note_off_c, 12, 59, 127
2, 164621, Note_on_c, 0, 60, 127
2, 164792, Note_off_c, 0, 60, 127
2, 164795, Note_on_c, 2, 62, 127
2, 165138, Note_off_c, 7, 79, 127
2, 165138, Note_off_c, 12, 71, 127
2, 165141, Note_on_c, 10, 69, 127
2, 165141, Note_on_c, 6, 78, 127
2, 165312, Note_off_c, 6, 78, 127
2, 165312, Note_off_c, 10, 69, 127
2, 165315, Note_on_c, 7, 67, 127
2, 165315, Note_on_c, 4, 76, 127
2, 165486, Note_off_c, 4, 76, 127
2, 165486, Note_off_c, 7, 67, 127
2, 165489, Note_on_c, 10, 69, 127
2, 165489, Note_on_c, 7, 79, 127
2, 165574, Note_off_c, 7, 79, 127
2, 165578, Note_on_c, 6, 78, 127
2, 165663, Note_off_c, 6, 78, 127
2, 165666, Note_on_c, 7, 79, 127
2, 165751, Note_off_c, 7, 79, 127
2, 165755, Note_on_c, 6, 78, 127
2, 165840, Note_off_c, 6, 78, 127
2, 165840, Note_off_c, 10, 69, 127
2, 165840, Note_off_c, 2, 62, 127
2, 165843, Note_on_c, 2, 50, 127
2, 165843, Note_on_c, 2, 62, 127
2, 165843, Note_on_c, 7, 79, 127
2, 165928, Note_off_c, 7, 79, 127
2, 165931, Note_on_c, 6, 78, 127
2, 166016, Note_off_c, 6, 78, 127
2, 166020, Note_on_c, 7, 79, 127
2, 166191, Note_off_c, 7, 79, 127
2, 166191, Note_off_c, 2, 62, 127
2, 166191, Note_off_c, 2, 50, 127
2, 166194, Note_on_c, 7, 55, 127
2, 166194, Note_on_c, 12, 71, 127
2, 166194, Note_on_c, 7, 79, 127
2, 166537, Note_off_c, 7, 79, 127
2, 166537, Note_off_c, 7, 55, 127
2, 166540, Note_on_c, 7, 67, 127
2, 166540, Note_on_c, 4, 76, 127
2, 166711, Note_off_c, 4, 76, 127
2, 166711, Note_off_c, 7, 67, 127
2, 166714, Note_on_c, 5, 65, 127
2, 166714, Note_on_c, 2, 74, 127
2, 166880, Note_off_c, 12, 71, 127
2, 166885, Note_off_c, 2, 74, 127
2, 166885, Note_off_c, 5, 65, 127
2, 166888, Note_on_c, 7, 67, 127
2, 166888, Note_on_c, 1, 73, 127
2, 167059, Note_off_c, 7, 67, 127
2, 167062, Note_on_c, 10, 69, 127
2, 167233, Note_off_c, 10, 69, 127
2, 167233, Note_off_c, 1, 73, 127
2, 167237, Note_on_c, 5, 65, 127
2, 167237, Note_on_c, 2, 74, 127
2, 167408, Note_off_c, 5, 65, 127
2, 167411, Note_on_c, 7, 67, 127
2, 167582, Note_off_c, 7, 67, 127
2, 167585, Note_on_c, 4, 64, 127
2, 167757, Note_off_c, 2, 74, 127
2, 167759, Note_on_c, 7, 79, 127
2, 167930, Note_off_c, 7, 79, 127
2, 167933, Note_on_c, 7, 67, 127
2, 167933, Note_on_c, 11, 82, 127
2, 168104, Note_off_c, 11, 82, 127
2, 168104, Note_off_c, 7, 67, 127
2, 168108, Note_on_c, 5, 65, 127
2, 168108, Note_on_c, 10, 81, 127
2, 168279, Note_off_c, 10, 81, 127
2, 168279, Note_off_c, 5, 65, 127
2, 168282, Note_on_c, 7, 67, 127
2, 168282, Note_on_c, 7, 79, 127
2, 168453, Note_off_c, 7, 79, 127
2, 168453, Note_off_c, 7, 67, 127
2, 168456, Note_on_c, 10, 69, 127
2, 168456, Note_on_c, 5, 77, 127
2, 168627, Note_off_c, 5, 77, 127
2, 168627, Note_off_c, 10, 69, 127
2, 168630, Note_on_c, 5, 65, 127
2, 168630, Note_on_c, 4, 76, 127
2, 168801, Note_off_c, 4, 76, 127
2, 168801, Note_off_c, 5, 65, 127
2, 168804, Note_on_c, 7, 67, 127
2, 168804, Note_on_c, 2, 74, 127
2, 168975, Note_off_c, 2, 74, 127
2, 168975, Note_off_c, 7, 67, 127
2, 168976, Note_off_c, 4, 64, 127
2, 168979, Note_on_c, 4, 64, 127
2, 168979, Note_on_c, 1, 73, 127
2, 169150, Note_on_c, 7, 67, 127
2, 169319, Note_off_c, 4, 64, 127
2, 169321, Note_off_c, 7, 67, 127
2, 169322, Note_off_c, 1, 73, 127
2, 169324, Note_on_c, 2, 62, 127
2, 169324, Note_on_c, 5, 65, 127
2, 169324, Note_on_c, 2, 74, 127
2, 169495, Note_off_c, 5, 65, 127
2, 169499, Note_on_c, 7, 67, 127
2, 169669, Note_off_c, 2, 62, 127
2, 169670, Note_off_c, 7, 67, 127
2, 169673, Note_on_c, 5, 53, 127
2, 169673, Note_on_c, 10, 69, 127
2, 169844, Note_off_c, 10, 69, 127
2, 169847, Note_on_c, 11, 70, 127
2, 170018, Note_off_c, 11, 70, 127
2, 170018, Note_off_c, 5, 53, 127
2, 170018, Note_off_c, 2, 74, 127
2, 170021, Note_on_c, 10, 57, 127
2, 170021, Note_on_c, 7, 67, 127
2, 170021, Note_on_c, 1, 73, 127
2, 170192, Note_off_c, 7, 67, 127
2, 170195, Note_on_c, 10, 69, 127
2, 170364, Note_off_c, 1, 73, 127
2, 170366, Note_off_c, 10, 69, 127
2, 170366, Note_off_c, 10, 57, 127
2, 170370, Note_on_c, 2, 50, 127
2, 170370, Note_on_c, 5, 65, 127
2, 170541, Note_off_c, 5, 65, 127
2, 170544, Note_on_c, 4, 64, 127
2, 170713, Note_off_c, 2, 50, 127
2, 170715, Note_off_c, 4, 64, 127
2, 170718, Note_on_c, 5, 65, 127
2, 170718, Note_on_c, 2, 74, 127
2, 170889, Note_off_c, 2, 74, 127
2, 170889, Note_off_c, 5, 65, 127
2, 170892, Note_on_c, 7, 67, 127
2, 170892, Note_on_c, 1, 73, 127
2, 171063, Note_off_c, 1, 73, 127
2, 171063, Note_off_c, 7, 67, 127
2, 171066, Note_on_c, 5, 65, 127
2, 171066, Note_on_c, 2, 74, 127
2, 171237, Note_off_c, 5, 65, 127
2, 171241, Note_on_c, 7, 67, 127
2, 171411, Note_off_c, 2, 74, 127
2, 171412, Note_off_c, 7, 67, 127
2, 171415, Note_on_c, 4, 64, 127
2, 171415, Note_on_c, 10, 69, 127
2, 171586, Note_off_c, 4, 64, 127
2, 171589, Note_on_c, 5, 65, 127
2, 171760, Note_off_c, 5, 65, 127
2, 171760, Note_off_c, 10, 69, 127
2, 171763, Note_on_c, 2, 62, 127
2, 171763, Note_on_c, 5, 77, 127
2, 171848, Note_off_c, 5, 77, 127
2, 171852, Note_on_c, 4, 76, 127
2, 171937, Note_off_c, 4, 76, 127
2, 171937, Note_off_c, 2, 62, 127
2, 171940, Note_on_c, 0, 60, 127
2, 171940, Note_on_c, 5, 77, 127
2, 172025, Note_off_c, 5, 77, 127
2, 172028, Note_on_c, 4, 76, 127
2, 172113, Note_off_c, 4, 76, 127
2, 172114, Note_off_c, 0, 60, 127
2, 172117, Note_on_c, 2, 62, 127
2, 172117, Note_on_c, 5, 77, 127
2, 172288, Note_off_c, 2, 62, 127
2, 172291, Note_on_c, 4, 64, 127
2, 172462, Note_off_c, 4, 64, 127
2, 172462, Note_off_c, 5, 77, 127
2, 172465, Note_on_c, 2, 62, 127
2, 172465, Note_on_c, 4, 76, 127
2, 172636, Note_off_c, 2, 62, 127
2, 172639, Note_on_c, 4, 64, 127
2, 172810, Note_off_c, 4, 64, 127
2, 172814, Note_on_c, 0, 60, 127
2, 172985, Note_off_c, 0, 60, 127
2, 172988, Note_on_c, 2, 62, 127
2, 173159, Note_off_c, 2, 62, 127
2, 173162, Note_on_c, 12, 59, 127
2, 173333, Note_off_c, 12, 59, 127
2, 173336, Note_off_c, 4, 76, 127
2, 173336, Note_on_c, 0, 60, 127
2, 173507, Note_off_c, 0, 60, 127
2, 173510, Note_on_c, 2, 62, 127
2, 173510, Note_on_c, 2, 74, 127
2, 173681, Note_off_c, 2, 74, 127
2, 173681, Note_off_c, 2, 62, 127
2, 173685, Note_on_c, 4, 64, 127
2, 173685, Note_on_c, 0, 72, 127
2, 173856, Note_off_c, 0, 72, 127
2, 173856, Note_off_c, 4, 64, 127
2, 173859, Note_on_c, 6, 66, 127
2, 173859, Note_on_c, 2, 74, 127
2, 174030, Note_off_c, 2, 74, 127
2, 174030, Note_off_c, 6, 66, 127
2, 174033, Note_on_c, 8, 68, 127
2, 174033, Note_on_c, 4, 76, 127
2, 174204, Note_off_c, 4, 76, 127
2, 174204, Note_off_c, 8, 68, 127
2, 174207, Note_on_c, 10, 69, 127
2, 174207, Note_on_c, 0, 72, 127
2, 174378, Note_off_c, 0, 72, 127
2, 174381, Note_on_c, 2, 74, 127
2, 174552, Note_off_c, 2, 74, 127
2, 174556, Note_on_c, 12, 71, 127
2, 174727, Note_off_c, 12, 71, 127
2, 174730, Note_on_c, 2, 74, 127
2, 174901, Note_off_c, 2, 74, 127
2, 174901, Note_off_c, 10, 69, 127
2, 174904, Note_on_c, 8, 68, 127
2, 174904, Note_on_c, 0, 72, 127
2, 175075, Note_off_c, 0, 72, 127
2, 175075, Note_off_c, 8, 68, 127
2, 175078, Note_on_c, 6, 66, 127
2, 175078, Note_on_c, 2, 74, 127
2, 175249, Note_off_c, 2, 74, 127
2, 175249, Note_off_c, 6, 66, 127
2, 175252, Note_on_c, 10, 69, 127
2, 175252, Note_on_c, 4, 76, 127
2, 175337, Note_off_c, 10, 69, 127
2, 175341, Note_on_c, 8, 68, 127
2, 175426, Note_off_c, 8, 68, 127
2, 175426, Note_off_c, 4, 76, 127
2, 175429, Note_on_c, 10, 69, 127
2, 175429, Note_on_c, 5, 77, 127
2, 175514, Note_off_c, 10, 69, 127
2, 175518, Note_on_c, 8, 68, 127
2, 175603, Note_off_c, 8, 68, 127
2, 175603, Note_off_c, 5, 77, 127
2, 175606, Note_on_c, 10, 69, 127
2, 175606, Note_on_c, 2, 74, 127
2, 175691, Note_off_c, 10, 69, 127
2, 175694, Note_on_c, 8, 68, 127
2, 175779, Note_off_c, 8, 68, 127
2, 175780, Note_off_c, 2, 74, 127
2, 175783, Note_on_c, 6, 66, 127
2, 175783, Note_on_c, 4, 76, 127
2, 175868, Note_off_c, 6, 66, 127
2, 175871, Note_on_c, 8, 68, 127
2, 175956, Note_off_c, 8, 68, 127
2, 175957, Note_off_c, 4, 76, 127
2, 175960, Note_on_c, 10, 69, 127
2, 175960, Note_on_c, 0, 72, 127
2, 176131, Note_off_c, 10, 69, 127
2, 176134, Note_on_c, 8, 68, 127
2, 176305, Note_off_c, 8, 68, 127
2, 176305, Note_off_c, 0, 72, 127
2, 176308, Note_on_c, 10, 69, 127
2, 176308, Note_on_c, 4, 76, 127
2, 176479, Note_off_c, 4, 76, 127
2, 176479, Note_off_c, 10, 69, 127
2, 176482, Note_on_c, 12, 71, 127
2, 176482, Note_on_c, 2, 74, 127
2, 176653, Note_off_c, 2, 74, 127
2, 176653, Note_off_c, 12, 71, 127
2, 176656, Note_on_c, 10, 69, 127
2, 176656, Note_on_c, 4, 76, 127
2, 176827, Note_off_c, 10, 69, 127
2, 176831, Note_on_c, 12, 71, 127
2, 177001, Note_off_c, 4, 76, 127
2, 177002, Note_off_c, 12, 71, 127
2, 177005, Note_on_c, 7, 67, 127
2, 177005, Note_on_c, 0, 72, 127
2, 177176, Note_off_c, 7, 67, 127
2, 177179, Note_on_c, 10, 69, 127
2, 177350, Note_off_c, 10, 69, 127
2, 177350, Note_off_c, 0, 72, 127
2, 177353, Note_on_c, 6, 66, 127
2, 177353, Note_on_c, 10, 81, 127
2, 177524, Note_off_c, 6, 66, 127
2, 177527, Note_on_c, 4, 64, 127
2, 177698, Note_off_c, 4, 64, 127
2, 177698, Note_off_c, 10, 81, 127
2, 177702, Note_on_c, 6, 66, 127
2, 177702, Note_on_c, 0, 72, 127
2, 177873, Note_off_c, 6, 66, 127
2, 177876, Note_on_c, 7, 67, 127
2, 178047, Note_off_c, 7, 67, 127
2, 178047, Note_off_c, 0, 72, 127
2, 178050, Note_on_c, 6, 66, 127
2, 178050, Note_on_c, 10, 69, 127
2, 178221, Note_off_c, 6, 66, 127
2, 178224, Note_on_c, 7, 67, 127
2, 178395, Note_off_c, 7, 67, 127
2, 178395, Note_off_c, 10, 69, 127
2, 178398, Note_on_c, 4, 64, 127
2, 178398, Note_on_c, 2, 74, 127
2, 178569, Note_off_c, 4, 64, 127
2, 178573, Note_on_c, 6, 66, 127
2, 178743, Note_off_c, 2, 74, 127
2, 178744, Note_off_c, 6, 66, 127
2, 178747, Note_on_c, 7, 67, 127
2, 178747, Note_on_c, 0, 72, 127
2, 178814, Note_on_c, 12, 71, 127
2, 178817, Note_off_c, 0, 72, 127
2, 178885, Note_on_c, 0, 72, 127
2, 178886, Note_off_c, 12, 71, 127
2, 178918, Note_off_c, 7, 67, 127
2, 178921, Note_on_c, 6, 66, 127
2, 178952, Note_on_c, 12, 71, 127
2, 178955, Note_off_c, 0, 72, 127
2, 179092, Note_off_c, 6, 66, 127
2, 179095, Note_on_c, 7, 67, 127
2, 179095, Note_on_c, 2, 74, 127
2, 179100, Note_off_c, 12, 71, 127
2, 179266, Note_off_c, 2, 74, 127
2, 179266, Note_off_c, 7, 67, 127
2, 179269, Note_on_c, 10, 69, 127
2, 179269, Note_on_c, 0, 72, 127
2, 179440, Note_off_c, 0, 72, 127
2, 179440, Note_off_c, 10, 69, 127
2, 179444, Note_on_c, 7, 67, 127
2, 179444, Note_on_c, 2, 74, 127
2, 179615, Note_off_c, 7, 67, 127
2, 179618, Note_on_c, 10, 69, 127
2, 179789, Note_off_c, 10, 69, 127
2, 179789, Note_off_c, 2, 74, 127
2, 179792, Note_on_c, 5, 65, 127
2, 179792, Note_on_c, 12, 71, 127
2, 179963, Note_off_c, 5, 65, 127
2, 179966, Note_on_c, 7, 67, 127
2, 180137, Note_off_c, 7, 67, 127
2, 180137, Note_off_c, 12, 71, 127
2, 180140, Note_on_c, 4, 64, 127
2, 180140, Note_on_c, 7, 79, 127
2, 180311, Note_off_c, 4, 64, 127
2, 180315, Note_on_c, 2, 62, 127
2, 180485, Note_off_c, 7, 79, 127
2, 180486, Note_off_c, 2, 62, 127
2, 180489, Note_on_c, 4, 64, 127
2, 180489, Note_on_c, 11, 70, 127
2, 180660, Note_off_c, 4, 64, 127
2, 180663, Note_on_c, 5, 65, 127
2, 180834, Note_off_c, 5, 65, 127
2, 180834, Note_off_c, 11, 70, 127
2, 180837, Note_on_c, 4, 64, 127
2, 180837, Note_on_c, 7, 67, 127
2, 181008, Note_off_c, 4, 64, 127
2, 181011, Note_on_c, 5, 65, 127
2, 181182, Note_off_c, 5, 65, 127
2, 181182, Note_off_c, 7, 67, 127
2, 181186, Note_on_c, 2, 62, 127
2, 181186, Note_on_c, 0, 72, 127
2, 181357, Note_off_c, 2, 62, 127
2, 181360, Note_on_c, 4, 64, 127
2, 181531, Note_off_c, 4, 64, 127
2, 181531, Note_off_c, 0, 72, 127
2, 181534, Note_on_c, 5, 65, 127
2, 181534, Note_on_c, 11, 70, 127
2, 181596, Note_off_c, 11, 70, 127
2, 181599, Note_on_c, 10, 69, 127
2, 181661, Note_off_c, 10, 69, 127
2, 181664, Note_on_c, 11, 70, 127
2, 181708, Note_off_c, 5, 65, 127
2, 181711, Note_on_c, 4, 64, 127
2, 181726, Note_off_c, 11, 70, 127
2, 181729, Note_on_c, 10, 69, 127
2, 181879, Note_off_c, 10, 69, 127
2, 181882, Note_off_c, 4, 64, 127
2, 181885, Note_on_c, 5, 65, 127
2, 181885, Note_on_c, 2, 74, 127
2, 182056, Note_off_c, 2, 74, 127
2, 182056, Note_off_c, 5, 65, 127
2, 182059, Note_on_c, 7, 67, 127
2, 182059, Note_on_c, 0, 72, 127
2, 182230, Note_off_c, 0, 72, 127
2, 182230, Note_off_c, 7, 67, 127
2, 182233, Note_on_c, 5, 65, 127
2, 182233, Note_on_c, 2, 74, 127
2, 182404, Note_off_c, 2, 74, 127
2, 182404, Note_off_c, 5, 65, 127
2, 182408, Note_on_c, 7, 67, 127
2, 182408, Note_on_c, 4, 76, 127
2, 182579, Note_off_c, 4, 76, 127
2, 182579, Note_off_c, 7, 67, 127
2, 182582, Note_on_c, 4, 64, 127
2, 182582, Note_on_c, 0, 72, 127
2, 182753, Note_off_c, 0, 72, 127
2, 182753, Note_off_c, 4, 64, 127
2, 182756, Note_on_c, 5, 65, 127
2, 182756, Note_on_c, 2, 74, 127
2, 182927, Note_off_c, 2, 74, 127
2, 182927, Note_off_c, 5, 65, 127
2, 182930, Note_on_c, 2, 62, 127
2, 182930, Note_on_c, 12, 71, 127
2, 183101, Note_off_c, 12, 71, 127
2, 183104, Note_on_c, 10, 69, 127
2, 183275, Note_off_c, 10, 69, 127
2, 183275, Note_off_c, 2, 62, 127
2, 183279, Note_on_c, 7, 67, 127
2, 183279, Note_on_c, 12, 71, 127
2, 183450, Note_off_c, 12, 71, 127
2, 183450, Note_off_c, 7, 67, 127
2, 183453, Note_on_c, 5, 65, 127
2, 183453, Note_on_c, 0, 72, 127
2, 183624, Note_off_c, 0, 72, 127
2, 183624, Note_off_c, 5, 65, 127
2, 183627, Note_on_c, 7, 67, 127
2, 183627, Note_on_c, 12, 71, 127
2, 183798, Note_off_c, 12, 71, 127
2, 183798, Note_off_c, 7, 67, 127
2, 183801, Note_on_c, 10, 69, 127
2, 183801, Note_on_c, 0, 72, 127
2, 183972, Note_off_c, 0, 72, 127
2, 183972, Note_off_c, 10, 69, 127
2, 183975, Note_on_c, 5, 65, 127
2, 183975, Note_on_c, 10, 69, 127
2, 184146, Note_off_c, 10, 69, 127
2, 184146, Note_off_c, 5, 65, 127
2, 184150, Note_on_c, 7, 67, 127
2, 184150, Note_on_c, 12, 71, 127
2, 184321, Note_off_c, 12, 71, 127
2, 184321, Note_off_c, 7, 67, 127
2, 184324, Note_on_c, 4, 64, 127
2, 184324, Note_on_c, 7, 67, 127
2, 184495, Note_off_c, 4, 64, 127
2, 184498, Note_on_c, 2, 62, 127
2, 184669, Note_off_c, 2, 62, 127
2, 184669, Note_off_c, 7, 67, 127
2, 184672, Note_on_c, 4, 64, 127
2, 184672, Note_on_c, 0, 72, 127
2, 184843, Note_off_c, 0, 72, 127
2, 184843, Note_off_c, 4, 64, 127
2, 184846, Note_on_c, 5, 65, 127
2, 184846, Note_on_c, 12, 71, 127
2, 185017, Note_off_c, 12, 71, 127
2, 185017, Note_off_c, 5, 65, 127
2, 185021, Note_on_c, 4, 64, 127
2, 185021, Note_on_c, 0, 72, 127
2, 185192, Note_off_c, 0, 72, 127
2, 185192, Note_off_c, 4, 64, 127
2, 185195, Note_on_c, 5, 65, 127
2, 185195, Note_on_c, 2, 74, 127
2, 185366, Note_off_c, 2, 74, 127
2, 185366, Note_off_c, 5, 65, 127
2, 185369, Note_on_c, 2, 62, 127
2, 185369, Note_on_c, 11, 70, 127
2, 185540, Note_off_c, 11, 70, 127
2, 185540, Note_off_c, 2, 62, 127
2, 185543, Note_on_c, 4, 64, 127
2, 185543, Note_on_c, 0, 72, 127
2, 185714, Note_off_c, 0, 72, 127
2, 185714, Note_off_c, 4, 64, 127
2, 185717, Note_on_c, 0, 60, 127
2, 185717, Note_on_c, 10, 69, 127
2, 185888, Note_off_c, 10, 69, 127
2, 185892, Note_on_c, 7, 67, 127
2, 186062, Note_off_c, 0, 60, 127
2, 186063, Note_off_c, 7, 67, 127
2, 186066, Note_on_c, 5, 65, 127
2, 186066, Note_on_c, 10, 69, 127
2, 186237, Note_off_c, 10, 69, 127
2, 186237, Note_off_c, 5, 65, 127
2, 186240, Note_on_c, 4, 64, 127
2, 186240, Note_on_c, 11, 70, 127
2, 186411, Note_off_c, 11, 70, 127
2, 186411, Note_off_c, 4, 64, 127
2, 186414, Note_on_c, 5, 65, 127
2, 186414, Note_on_c, 10, 69, 127
2, 186585, Note_off_c, 10, 69, 127
2, 186585, Note_off_c, 5, 65, 127
2, 186588, Note_on_c, 7, 67, 127
2, 186588, Note_on_c, 11, 70, 127
2, 186759, Note_off_c, 11, 70, 127
2, 186759, Note_off_c, 7, 67, 127
2, 186763, Note_on_c, 4, 64, 127
2, 186763, Note_on_c, 7, 67, 127
2, 186934, Note_off_c, 7, 67, 127
2, 186934, Note_off_c, 4, 64, 127
2, 186937, Note_on_c, 5, 65, 127
2, 186937, Note_on_c, 10, 69, 127
2, 187108, Note_off_c, 10, 69, 127
2, 187108, Note_off_c, 5, 65, 127
2, 187111, Note_on_c, 2, 62, 127
2, 187111, Note_on_c, 7, 67, 127
2, 187249, Note_on_c, 5, 65, 127
2, 187267, Note_off_c, 7, 67, 127
2, 187282, Note_off_c, 2, 62, 127
2, 187285, Note_on_c, 0, 60, 127
2, 187324, Note_on_c, 4, 64, 127
2, 187342, Note_off_c, 5, 65, 127
2, 187400, Note_on_c, 5, 65, 127
2, 187407, Note_off_c, 4, 64, 127
2, 187454, Note_off_c, 0, 60, 127
2, 187457, Note_on_c, 2, 62, 127
2, 187457, Note_on_c, 7, 67, 127
2, 187496, Note_off_c, 5, 65, 127
2, 187522, Note_on_c, 5, 65, 127
2, 187542, Note_off_c, 7, 67, 127
2, 187584, Note_on_c, 7, 67, 127
2, 187605, Note_off_c, 5, 65, 127
2, 187628, Note_off_c, 2, 62, 127
2, 187631, Note_on_c, 4, 64, 127
2, 187647, Note_on_c, 5, 65, 127
2, 187667, Note_off_c, 7, 67, 127
2, 187709, Note_on_c, 7, 67, 127
2, 187730, Note_off_c, 5, 65, 127
2, 187771, Note_on_c, 5, 65, 127
2, 187792, Note_off_c, 7, 67, 127
2, 187800, Note_off_c, 4, 64, 127
2, 187803, Note_on_c, 2, 62, 127
2, 187834, Note_on_c, 7, 67, 127
2, 187854, Note_off_c, 5, 65, 127
2, 187896, Note_on_c, 5, 65, 127
2, 187917, Note_off_c, 7, 67, 127
2, 187959, Note_on_c, 7, 67, 127
2, 187972, Note_off_c, 2, 62, 127
2, 187974, Note_on_c, 4, 64, 127
2, 187981, Note_off_c, 5, 65, 127
2, 188024, Note_on_c, 5, 65, 127
2, 188044, Note_off_c, 7, 67, 127
2, 188086, Note_on_c, 7, 67, 127
2, 188107, Note_off_c, 5, 65, 127
2, 188145, Note_off_c, 4, 64, 127
2, 188148, Note_on_c, 0, 60, 127
2, 188151, Note_on_c, 5, 65, 127
2, 188171, Note_off_c, 7, 67, 127
2, 188213, Note_on_c, 7, 67, 127
2, 188234, Note_off_c, 5, 65, 127
2, 188276, Note_on_c, 5, 65, 127
2, 188296, Note_off_c, 7, 67, 127
2, 188317, Note_off_c, 0, 60, 127
2, 188320, Note_on_c, 2, 62, 127
2, 188338, Note_on_c, 7, 67, 127
2, 188359, Note_off_c, 5, 65, 127
2, 188401, Note_on_c, 5, 65, 127
2, 188421, Note_off_c, 7, 67, 127
2, 188489, Note_off_c, 2, 62, 127
2, 188492, Note_on_c, 12, 59, 127
2, 188663, Note_off_c, 12, 59, 127
2, 188666, Note_on_c, 10, 57, 127
2, 188837, Note_off_c, 10, 57, 127
2, 188840, Note_on_c, 12, 59, 127
2, 188840, Note_on_c, 2, 74, 127
2, 189011, Note_off_c, 2, 74, 127
2, 189011, Note_off_c, 12, 59, 127
2, 189014, Note_on_c, 0, 60, 127
2, 189014, Note_on_c, 0, 72, 127
2, 189185, Note_off_c, 0, 72, 127
2, 189185, Note_off_c, 0, 60, 127
2, 189188, Note_on_c, 12, 59, 127
2, 189188, Note_on_c, 2, 74, 127
2, 189359, Note_off_c, 12, 59, 127
2, 189363, Note_on_c, 0, 60, 127
2, 189516, Note_off_c, 5, 65, 127
2, 189533, Note_off_c, 2, 74, 127
2, 189534, Note_off_c, 0, 60, 127
2, 189537, Note_on_c, 10, 57, 127
2, 189537, Note_on_c, 5, 65, 127
2, 189708, Note_off_c, 10, 57, 127
2, 189711, Note_on_c, 12, 59, 127
2, 189882, Note_off_c, 12, 59, 127
2, 189882, Note_off_c, 5, 65, 127
2, 189885, Note_on_c, 0, 60, 127
2, 189885, Note_on_c, 4, 64, 127
2, 190056, Note_off_c, 4, 64, 127
2, 190059, Note_on_c, 2, 62, 127
2, 190230, Note_off_c, 2, 62, 127
2, 190234, Note_on_c, 0, 48, 127
2, 190234, Note_on_c, 4, 64, 127
2, 190405, Note_off_c, 4, 64, 127
2, 190405, Note_off_c, 0, 48, 127
2, 190408, Note_on_c, 12, 47, 127
2, 190408, Note_on_c, 5, 65, 127
2, 190579, Note_off_c, 5, 65, 127
2, 190579, Note_off_c, 12, 47, 127
2, 190582, Note_on_c, 0, 48, 127
2, 190582, Note_on_c, 4, 64, 127
2, 190753, Note_off_c, 4, 64, 127
2, 190756, Note_on_c, 5, 65, 127
2, 190927, Note_off_c, 5, 65, 127
2, 190927, Note_off_c, 0, 48, 127
2, 190927, Note_off_c, 0, 60, 127
2, 190930, Note_on_c, 7, 43, 127
2, 190930, Note_on_c, 12, 59, 127
2, 190930, Note_on_c, 2, 62, 127
2, 191101, Note_off_c, 2, 62, 127
2, 191105, Note_on_c, 4, 64, 127
2, 191275, Note_off_c, 7, 43, 127
2, 191276, Note_off_c, 4, 64, 127
2, 191279, Note_on_c, 4, 52, 127
2, 191279, Note_on_c, 0, 60, 127
2, 191364, Note_off_c, 4, 52, 127
2, 191367, Note_on_c, 2, 50, 127
2, 191452, Note_off_c, 2, 50, 127
2, 191452, Note_off_c, 12, 59, 127
2, 191456, Note_on_c, 4, 52, 127
2, 191456, Note_on_c, 12, 59, 127
2, 191541, Note_off_c, 4, 52, 127
2, 191544, Note_on_c, 2, 50, 127
2, 191629, Note_off_c, 2, 50, 127
2, 191630, Note_off_c, 12, 59, 127
2, 191632, Note_on_c, 4, 52, 127
2, 191632, Note_on_c, 10, 57, 127
2, 191804, Note_off_c, 0, 60, 127
2, 191807, Note_on_c, 0, 60, 127
2, 191977, Note_off_c, 4, 52, 127
2, 191978, Note_off_c, 0, 60, 127
2, 191981, Note_on_c, 2, 50, 127
2, 191981, Note_on_c, 12, 59, 127
2, 192152, Note_off_c, 10, 57, 127
2, 192155, Note_on_c, 10, 57, 127
2, 192326, Note_off_c, 10, 57, 127
2, 192329, Note_on_c, 7, 55, 127
2, 192501, Note_off_c, 12, 59, 127
2, 192503, Note_on_c, 12, 59, 127
2, 192674, Note_off_c, 12, 59, 127
2, 192678, Note_on_c, 10, 57, 127
2, 193020, Note_off_c, 7, 55, 127
2, 193021, Note_off_c, 2, 50, 127
2, 193023, Note_on_c, 0, 48, 127
2, 193023, Note_on_c, 7, 55, 127
2, 193194, Note_off_c, 0, 48, 127
2, 193198, Note_on_c, 12, 47, 127
2, 193368, Note_off_c, 7, 55, 127
2, 193369, Note_off_c, 12, 47, 127
2, 193372, Note_on_c, 0, 48, 127
2, 193372, Note_on_c, 6, 54, 127
2, 193543, Note_off_c, 0, 48, 127
2, 193546, Note_on_c, 2, 50, 127
2, 193717, Note_off_c, 2, 50, 127
2, 193717, Note_off_c, 6, 54, 127
2, 193718, Note_off_c, 10, 57, 127
2, 193720, Note_on_c, 12, 47, 127
2, 193720, Note_on_c, 7, 55, 127
2, 193720, Note_on_c, 12, 59, 127
2, 193891, Note_off_c, 12, 47, 127
2, 193894, Note_on_c, 0, 48, 127
2, 194065, Note_off_c, 0, 48, 127
2, 194065, Note_off_c, 12, 59, 127
2, 194069, Note_on_c, 10, 45, 127
2, 194069, Note_on_c, 0, 60, 127
2, 194240, Note_off_c, 10, 45, 127
2, 194240, Note_off_c, 7, 55, 127
2, 194243, Note_on_c, 0, 48, 127
2, 194243, Note_on_c, 6, 54, 127
2, 194414, Note_off_c, 6, 54, 127
2, 194414, Note_off_c, 0, 48, 127
2, 194417, Note_on_c, 12, 47, 127
2, 194417, Note_on_c, 7, 55, 127
2, 194588, Note_off_c, 7, 55, 127
2, 194588, Note_off_c, 12, 47, 127
2, 194591, Note_on_c, 0, 48, 127
2, 194591, Note_on_c, 4, 52, 127
2, 194762, Note_off_c, 4, 52, 127
2, 194762, Note_off_c, 0, 48, 127
2, 194765, Note_on_c, 2, 50, 127
2, 194765, Note_on_c, 6, 54, 127
2, 194936, Note_off_c, 2, 50, 127
2, 194940, Note_on_c, 4, 52, 127
2, 195111, Note_off_c, 4, 52, 127
2, 195111, Note_off_c, 0, 60, 127
2, 195114, Note_on_c, 0, 48, 127
2, 195114, Note_on_c, 10, 57, 127
2, 195285, Note_off_c, 0, 48, 127
2, 195288, Note_on_c, 2, 50, 127
2, 195459, Note_off_c, 2, 50, 127
2, 195459, Note_off_c, 10, 57, 127
2, 195462, Note_on_c, 12, 47, 127
2, 195462, Note_on_c, 2, 62, 127
2, 195633, Note_off_c, 12, 47, 127
2, 195636, Note_on_c, 2, 50, 127
2, 195807, Note_off_c, 2, 50, 127
2, 195807, Note_off_c, 6, 54, 127
2, 195811, Note_on_c, 0, 48, 127
2, 195811, Note_on_c, 12, 59, 127
2, 195982, Note_off_c, 0, 48, 127
2, 195985, Note_on_c, 2, 50, 127
2, 196156, Note_off_c, 2, 50, 127
2, 196156, Note_off_c, 12, 59, 127
2, 196159, Note_on_c, 4, 52, 127
2, 196159, Note_on_c, 7, 55, 127
2, 196330, Note_off_c, 4, 52, 127
2, 196333, Note_on_c, 5, 53, 127
2, 196504, Note_off_c, 5, 53, 127
2, 196504, Note_off_c, 2, 62, 127
2, 196507, Note_on_c, 2, 50, 127
2, 196507, Note_on_c, 12, 59, 127
2, 196678, Note_off_c, 2, 50, 127
2, 196682, Note_on_c, 4, 52, 127
2, 196852, Note_off_c, 12, 59, 127
2, 196853, Note_off_c, 4, 52, 127
2, 196856, Note_on_c, 0, 48, 127
2, 196856, Note_on_c, 4, 64, 127
2, 197027, Note_off_c, 0, 48, 127
2, 197030, Note_on_c, 4, 52, 127
2, 197201, Note_off_c, 4, 52, 127
2, 197201, Note_off_c, 7, 55, 127
2, 197204, Note_on_c, 2, 50, 127
2, 197204, Note_on_c, 0, 60, 127
2, 197375, Note_off_c, 2, 50, 127
2, 197378, Note_on_c, 4, 52, 127
2, 197549, Note_off_c, 4, 52, 127
2, 197549, Note_off_c, 0, 60, 127
2, 197553, Note_on_c, 5, 53, 127
2, 197553, Note_on_c, 10, 57, 127
2, 197724, Note_off_c, 5, 53, 127
2, 197727, Note_on_c, 7, 55, 127
2, 197898, Note_off_c, 7, 55, 127
2, 197898, Note_off_c, 4, 64, 127
2, 197901, Note_on_c, 4, 52, 127
2, 197901, Note_on_c, 0, 60, 127
2, 198072, Note_off_c, 4, 52, 127
2, 198075, Note_on_c, 5, 53, 127
2, 198246, Note_off_c, 5, 53, 127
2, 198246, Note_off_c, 0, 60, 127
2, 198249, Note_on_c, 2, 50, 127
2, 198249, Note_on_c, 5, 65, 127
2, 198420, Note_off_c, 2, 50, 127
2, 198424, Note_on_c, 5, 53, 127
2, 198595, Note_off_c, 5, 53, 127
2, 198595, Note_off_c, 10, 57, 127
2, 198598, Note_on_c, 4, 52, 127
2, 198598, Note_on_c, 2, 62, 127
2, 198769, Note_off_c, 4, 52, 127
2, 198772, Note_on_c, 5, 53, 127
2, 198943, Note_off_c, 5, 53, 127
2, 198943, Note_off_c, 2, 62, 127
2, 198946, Note_on_c, 7, 55, 127
2, 198946, Note_on_c, 12, 59, 127
2, 199117, Note_off_c, 7, 55, 127
2, 199120, Note_on_c, 10, 57, 127
2, 199291, Note_off_c, 10, 57, 127
2, 199291, Note_off_c, 5, 65, 127
2, 199295, Note_on_c, 5, 53, 127
2, 199295, Note_on_c, 2, 62, 127
2, 199466, Note_off_c, 5, 53, 127
2, 199469, Note_on_c, 7, 55, 127
2, 199640, Note_off_c, 7, 55, 127
2, 199640, Note_off_c, 2, 62, 127
2, 199643, Note_on_c, 4, 52, 127
2, 199643, Note_on_c, 7, 67, 127
2, 199814, Note_off_c, 4, 52, 127
2, 199817, Note_on_c, 2, 50, 127
2, 199988, Note_off_c, 2, 50, 127
2, 199988, Note_off_c, 12, 59, 127
2, 199991, Note_on_c, 4, 52, 127
2, 199991, Note_on_c, 12, 59, 127
2, 200162, Note_off_c, 4, 52, 127
2, 200166, Note_on_c, 5, 53, 127
2, 200336, Note_off_c, 12, 59, 127
2, 200337, Note_off_c, 5, 53, 127
2, 200337, Note_off_c, 7, 67, 127
2, 200340, Note_on_c, 4, 52, 127
2, 200340, Note_on_c, 0, 60, 127
2, 200340, Note_on_c, 10, 69, 127
2, 200511, Note_off_c, 4, 52, 127
2, 200514, Note_on_c, 5, 53, 127
2, 200685, Note_off_c, 5, 53, 127
2, 200685, Note_off_c, 10, 69, 127
2, 200685, Note_off_c, 0, 60, 127
2, 200688, Note_on_c, 2, 50, 127
2, 200688, Note_on_c, 2, 62, 127
2, 200688, Note_on_c, 12, 71, 127
2, 200859, Note_off_c, 2, 50, 127
2, 200862, Note_on_c, 4, 52, 127
2, 201033, Note_off_c, 4, 52, 127
2, 201033, Note_off_c, 12, 71, 127
2, 201033, Note_off_c, 2, 62, 127
2, 201037, Note_on_c, 0, 48, 127
2, 201037, Note_on_c, 4, 64, 127
2, 201037, Note_on_c, 0, 72, 127
2, 201208, Note_off_c, 0, 48, 127
2, 201211, Note_on_c, 2, 50, 127
2, 201382, Note_off_c, 2, 50, 127
2, 201382, Note_off_c, 4, 64, 127
2, 201385, Note_on_c, 4, 52, 127
2, 201385, Note_on_c, 7, 67, 127
2, 201556, Note_off_c, 7, 67, 127
2, 201556, Note_off_c, 4, 52, 127
2, 201559, Note_on_c, 2, 50, 127
2, 201559, Note_on_c, 5, 65, 127
2, 201730, Note_off_c, 5, 65, 127
2, 201730, Note_off_c, 2, 50, 127
2, 201733, Note_on_c, 0, 48, 127
2, 201733, Note_on_c, 7, 67, 127
2, 201904, Note_off_c, 0, 48, 127
2, 201908, Note_on_c, 11, 46, 127
2, 202078, Note_off_c, 7, 67, 127
2, 202079, Note_off_c, 11, 46, 127
2, 202082, Note_on_c, 10, 45, 127
2, 202082, Note_on_c, 0, 60, 127
2, 202253, Note_off_c, 10, 45, 127
2, 202256, Note_on_c, 7, 43, 127
2, 202427, Note_off_c, 7, 43, 127
2, 202427, Note_off_c, 0, 60, 127
2, 202430, Note_on_c, 5, 41, 127
2, 202430, Note_on_c, 10, 69, 127
2, 202515, Note_off_c, 10, 69, 127
2, 202519, Note_on_c, 7, 67, 127
2, 202604, Note_off_c, 7, 67, 127
2, 202604, Note_off_c, 5, 41, 127
2, 202607, Note_on_c, 4, 40, 127
2, 202607, Note_on_c, 10, 69, 127
2, 202692, Note_off_c, 10, 69, 127
2, 202695, Note_on_c, 7, 67, 127
2, 202780, Note_off_c, 7, 67, 127
2, 202781, Note_off_c, 4, 40, 127
2, 202784, Note_on_c, 5, 41, 127
2, 202784, Note_on_c, 10, 69, 127
2, 202955, Note_off_c, 5, 41, 127
2, 202958, Note_on_c, 7, 43, 127
2, 203129, Note_off_c, 7, 43, 127
2, 203129, Note_off_c, 10, 69, 127
2, 203132, Note_on_c, 5, 41, 127
2, 203132, Note_on_c, 7, 67, 127
2, 203303, Note_off_c, 5, 41, 127
2, 203306, Note_on_c, 7, 43, 127
2, 203477, Note_off_c, 7, 43, 127
2, 203481, Note_on_c, 4, 40, 127
2, 203652, Note_off_c, 4, 40, 127
2, 203655, Note_on_c, 5, 41, 127
2, 203826, Note_off_c, 5, 41, 127
2, 203829, Note_on_c, 2, 38, 127
2, 204000, Note_off_c, 2, 38, 127
2, 204003, Note_off_c, 7, 67, 127
2, 204003, Note_on_c, 10, 45, 127
2, 204174, Note_off_c, 10, 45, 127
2, 204177, Note_on_c, 12, 47, 127
2, 204177, Note_on_c, 5, 65, 127
2, 204348, Note_off_c, 5, 65, 127
2, 204348, Note_off_c, 12, 47, 127
2, 204352, Note_on_c, 0, 48, 127
2, 204352, Note_on_c, 4, 64, 127
2, 204523, Note_off_c, 4, 64, 127
2, 204523, Note_off_c, 0, 48, 127
2, 204526, Note_on_c, 2, 50, 127
2, 204526, Note_on_c, 5, 65, 127
2, 204697, Note_off_c, 5, 65, 127
2, 204697, Note_off_c, 2, 50, 127
2, 204700, Note_on_c, 4, 52, 127
2, 204700, Note_on_c, 7, 67, 127
2, 204871, Note_off_c, 7, 67, 127
2, 204871, Note_off_c, 4, 52, 127
2, 204874, Note_on_c, 5, 53, 127
2, 204874, Note_on_c, 4, 64, 127
2, 205045, Note_off_c, 4, 64, 127
2, 205045, Note_off_c, 5, 53, 127
2, 205048, Note_on_c, 2, 50, 127
2, 205048, Note_on_c, 5, 65, 127
2, 205219, Note_off_c, 5, 65, 127
2, 205219, Note_off_c, 2, 50, 127
2, 205223, Note_on_c, 7, 55, 127
2, 205223, Note_on_c, 2, 62, 127
2, 205394, Note_off_c, 2, 62, 127
2, 205397, Note_on_c, 5, 65, 127
2, 205568, Note_off_c, 5, 65, 127
2, 205571, Note_on_c, 4, 64, 127
2, 205742, Note_off_c, 4, 64, 127
2, 205745, Note_on_c, 5, 65, 127
2, 205916, Note_off_c, 5, 65, 127
2, 205917, Note_off_c, 0, 72, 127
2, 205919, Note_on_c, 7, 67, 127
2, 205919, Note_on_c, 12, 71, 127
2, 206090, Note_off_c, 7, 67, 127
2, 206094, Note_on_c, 10, 69, 127
2, 206265, Note_off_c, 10, 69, 127
2, 206268, Note_on_c, 5, 65, 127
2, 206439, Note_off_c, 5, 65, 127
2, 206442, Note_on_c, 7, 67, 127
2, 206613, Note_off_c, 7, 67, 127
2, 206614, Note_off_c, 7, 55, 127
2, 206616, Note_on_c, 7, 55, 127
2, 206616, Note_on_c, 4, 64, 127
2, 206787, Note_off_c, 4, 64, 127
2, 206790, Note_off_c, 12, 71, 127
2, 206790, Note_on_c, 2, 62, 127
2, 206961, Note_off_c, 2, 62, 127
2, 206965, Note_on_c, 4, 64, 127
2, 206965, Note_on_c, 0, 72, 127
2, 207136, Note_off_c, 0, 72, 127
2, 207136, Note_off_c, 4, 64, 127
2, 207139, Note_on_c, 5, 65, 127
2, 207139, Note_on_c, 12, 71, 127
2, 207310, Note_off_c, 12, 71, 127
2, 207310, Note_off_c, 5, 65, 127
2, 207313, Note_on_c, 4, 64, 127
2, 207313, Note_on_c, 0, 72, 127
2, 207484, Note_off_c, 4, 64, 127
2, 207487, Note_on_c, 5, 65, 127
2, 207658, Note_off_c, 5, 65, 127
2, 207658, Note_off_c, 0, 72, 127
2, 207661, Note_on_c, 2, 62, 127
2, 207661, Note_on_c, 7, 67, 127
2, 207832, Note_off_c, 2, 62, 127
2, 207836, Note_on_c, 4, 64, 127
2, 208006, Note_off_c, 7, 67, 127
2, 208007, Note_off_c, 4, 64, 127
2, 208010, Note_on_c, 0, 60, 127
2, 208010, Note_on_c, 4, 76, 127
2, 208095, Note_off_c, 4, 76, 127
2, 208098, Note_on_c, 2, 74, 127
2, 208183, Note_off_c, 2, 74, 127
2, 208184, Note_off_c, 0, 60, 127
2, 208187, Note_on_c, 12, 59, 127
2, 208187, Note_on_c, 4, 76, 127
2, 208272, Note_off_c, 4, 76, 127
2, 208275, Note_on_c, 2, 74, 127
2, 208360, Note_off_c, 2, 74, 127
2, 208361, Note_off_c, 12, 59, 127
2, 208363, Note_on_c, 0, 60, 127
2, 208363, Note_on_c, 4, 76, 127
2, 208534, Note_off_c, 0, 60, 127
2, 208538, Note_on_c, 2, 62, 127
2, 208708, Note_off_c, 4, 76, 127
2, 208709, Note_off_c, 2, 62, 127
2, 208712, Note_on_c, 0, 60, 127
2, 208712, Note_on_c, 2, 74, 127
2, 208883, Note_off_c, 0, 60, 127
2, 208886, Note_on_c, 2, 62, 127
2, 209057, Note_off_c, 2, 62, 127
2, 209060, Note_on_c, 12, 59, 127
2, 209231, Note_off_c, 12, 59, 127
2, 209234, Note_on_c, 0, 60, 127
2, 209395, Note_off_c, 7, 55, 127
2, 209403, Note_off_c, 0, 60, 127
2, 209406, Note_on_c, 10, 57, 127
2, 209577, Note_off_c, 10, 57, 127
2, 209580, Note_off_c, 2, 74, 127
2, 209580, Note_on_c, 12, 59, 127
2, 209751, Note_off_c, 12, 59, 127
2, 209754, Note_on_c, 0, 60, 127
2, 209754, Note_on_c, 0, 72, 127
2, 209925, Note_off_c, 0, 72, 127
2, 209925, Note_off_c, 0, 60, 127
2, 209929, Note_on_c, 2, 62, 127
2, 209929, Note_on_c, 12, 71, 127
2, 210100, Note_off_c, 12, 71, 127
2, 210100, Note_off_c, 2, 62, 127
2, 210103, Note_on_c, 4, 64, 127
2, 210103, Note_on_c, 0, 72, 127
2, 210274, Note_off_c, 0, 72, 127
2, 210274, Note_off_c, 4, 64, 127
2, 210277, Note_on_c, 6, 66, 127
2, 210277, Note_on_c, 2, 74, 127
2, 210448, Note_off_c, 2, 74, 127
2, 210448, Note_off_c, 6, 66, 127
2, 210451, Note_on_c, 12, 59, 127
2, 210451, Note_on_c, 7, 67, 127
2, 210451, Note_on_c, 12, 71, 127
2, 210622, Note_off_c, 12, 71, 127
2, 210625, Note_on_c, 0, 72, 127
2, 210796, Note_off_c, 0, 72, 127
2, 210796, Note_off_c, 12, 59, 127
2, 210800, Note_on_c, 0, 60, 127
2, 210800, Note_on_c, 10, 69, 127
2, 210971, Note_off_c, 10, 69, 127
2, 210974, Note_on_c, 0, 72, 127
2, 211145, Note_off_c, 0, 72, 127
2, 211145, Note_off_c, 0, 60, 127
2, 211145, Note_off_c, 7, 67, 127
2, 211148, Note_on_c, 10, 57, 127
2, 211148, Note_on_c, 7, 67, 127
2, 211148, Note_on_c, 12, 71, 127
2, 211319, Note_off_c, 12, 71, 127
2, 211322, Note_on_c, 0, 72, 127
2, 211493, Note_off_c, 0, 72, 127
2, 211493, Note_off_c, 10, 57, 127
2, 211496, Note_on_c, 2, 62, 127
2, 211496, Note_on_c, 2, 74, 127
2, 211667, Note_off_c, 2, 74, 127
2, 211671, Note_on_c, 4, 76, 127
2, 211841, Note_off_c, 2, 62, 127
2, 211842, Note_off_c, 4, 76, 127
2, 211842, Note_off_c, 7, 67, 127
2, 211845, Note_on_c, 2, 50, 127
2, 211845, Note_on_c, 6, 66, 127
2, 211845, Note_on_c, 0, 72, 127
2, 212016, Note_off_c, 0, 72, 127
2, 212019, Note_on_c, 2, 74, 127
2, 212190, Note_off_c, 2, 74, 127
2, 212190, Note_off_c, 6, 66, 127
2, 212190, Note_off_c, 2, 50, 127
2, 212193, Note_on_c, 7, 43, 127
2, 212193, Note_on_c, 7, 67, 127
2, 212193, Note_on_c, 12, 71, 127
2, 212364, Note_off_c, 7, 43, 127
2, 212367, Note_on_c, 6, 42, 127
2, 212538, Note_off_c, 6, 42, 127
2, 212538, Note_off_c, 12, 71, 127
2, 212542, Note_on_c, 7, 43, 127
2, 212542, Note_on_c, 2, 74, 127
2, 212713, Note_off_c, 2, 74, 127
2, 212713, Note_off_c, 7, 43, 127
2, 212716, Note_on_c, 10, 45, 127
2, 212716, Note_on_c, 0, 72, 127
2, 212887, Note_off_c, 0, 72, 127
2, 212887, Note_off_c, 10, 45, 127
2, 212890, Note_on_c, 12, 47, 127
2, 212890, Note_on_c, 2, 74, 127
2, 213061, Note_off_c, 12, 47, 127
2, 213064, Note_on_c, 0, 48, 127
2, 213235, Note_off_c, 0, 48, 127
2, 213235, Note_off_c, 2, 74, 127
2, 213235, Note_off_c, 7, 67, 127
2, 213238, Note_on_c, 10, 45, 127
2, 213238, Note_on_c, 7, 67, 127
2, 213409, Note_off_c, 10, 45, 127
2, 213413, Note_on_c, 12, 47, 127
2, 213584, Note_off_c, 12, 47, 127
2, 213587, Note_on_c, 0, 48, 127
2, 213587, Note_on_c, 4, 76, 127
2, 213758, Note_off_c, 0, 48, 127
2, 213761, Note_on_c, 12, 47, 127
2, 213927, Note_off_c, 7, 67, 127
2, 213932, Note_off_c, 12, 47, 127
2, 213935, Note_on_c, 0, 48, 127
2, 213935, Note_on_c, 7, 67, 127
2, 214106, Note_off_c, 7, 67, 127
2, 214106, Note_off_c, 0, 48, 127
2, 214109, Note_on_c, 2, 50, 127
2, 214109, Note_on_c, 5, 65, 127
2, 214280, Note_off_c, 5, 65, 127
2, 214280, Note_off_c, 2, 50, 127
2, 214281, Note_off_c, 4, 76, 127
2, 214284, Note_on_c, 0, 48, 127
2, 214284, Note_on_c, 7, 67, 127
2, 214284, Note_on_c, 2, 74, 127
2, 214455, Note_off_c, 0, 48, 127
2, 214458, Note_on_c, 2, 50, 127
2, 214629, Note_off_c, 2, 50, 127
2, 214629, Note_off_c, 7, 67, 127
2, 214632, Note_on_c, 12, 47, 127
2, 214632, Note_on_c, 2, 62, 127
2, 214803, Note_off_c, 12, 47, 127
2, 214806, Note_on_c, 0, 48, 127
2, 214977, Note_off_c, 0, 48, 127
2, 214977, Note_off_c, 2, 62, 127
2, 214978, Note_off_c, 2, 74, 127
2, 214980, Note_on_c, 10, 45, 127
2, 214980, Note_on_c, 10, 69, 127
2, 214980, Note_on_c, 0, 72, 127
2, 215065, Note_off_c, 10, 69, 127
2, 215069, Note_on_c, 7, 67, 127
2, 215154, Note_off_c, 7, 67, 127
2, 215154, Note_off_c, 10, 45, 127
2, 215157, Note_on_c, 8, 44, 127
2, 215157, Note_on_c, 10, 69, 127
2, 215328, Note_off_c, 8, 44, 127
2, 215328, Note_off_c, 0, 72, 127
2, 215331, Note_on_c, 10, 45, 127
2, 215331, Note_on_c, 4, 76, 127
2, 215502, Note_off_c, 4, 76, 127
2, 215502, Note_off_c, 10, 45, 127
2, 215506, Note_on_c, 12, 47, 127
2, 215506, Note_on_c, 2, 74, 127
2, 215677, Note_off_c, 2, 74, 127
2, 215677, Note_off_c, 12, 47, 127
2, 215677, Note_off_c, 10, 69, 127
2, 215680, Note_on_c, 0, 48, 127
2, 215680, Note_on_c, 7, 67, 127
2, 215680, Note_on_c, 4, 76, 127
2, 215851, Note_off_c, 0, 48, 127
2, 215854, Note_on_c, 2, 50, 127
2, 216025, Note_off_c, 2, 50, 127
2, 216025, Note_off_c, 4, 76, 127
2, 216028, Note_on_c, 12, 47, 127
2, 216028, Note_on_c, 10, 69, 127
2, 216199, Note_off_c, 12, 47, 127
2, 216202, Note_on_c, 0, 48, 127
2, 216373, Note_off_c, 0, 48, 127
2, 216373, Note_off_c, 10, 69, 127
2, 216374, Note_off_c, 7, 67, 127
2, 216377, Note_on_c, 2, 50, 127
2, 216377, Note_on_c, 5, 65, 127
2, 216377, Note_on_c, 5, 77, 127
2, 216548, Note_off_c, 2, 50, 127
2, 216551, Note_on_c, 0, 48, 127
2, 216722, Note_off_c, 0, 48, 127
2, 216722, Note_off_c, 5, 65, 127
2, 216725, Note_on_c, 2, 50, 127
2, 216725, Note_on_c, 10, 69, 127
2, 216896, Note_off_c, 10, 69, 127
2, 216896, Note_off_c, 2, 50, 127
2, 216899, Note_on_c, 4, 52, 127
2, 216899, Note_on_c, 7, 67, 127
2, 217070, Note_off_c, 7, 67, 127
2, 217070, Note_off_c, 4, 52, 127
2, 217071, Note_off_c, 5, 77, 127
2, 217073, Note_on_c, 2, 50, 127
2, 217073, Note_on_c, 10, 69, 127
2, 217073, Note_on_c, 4, 76, 127
2, 217244, Note_off_c, 2, 50, 127
2, 217248, Note_on_c, 4, 52, 127
2, 217418, Note_off_c, 10, 69, 127
2, 217419, Note_off_c, 4, 52, 127
2, 217422, Note_on_c, 0, 48, 127
2, 217422, Note_on_c, 4, 64, 127
2, 217593, Note_off_c, 0, 48, 127
2, 217596, Note_on_c, 2, 50, 127
2, 217767, Note_off_c, 2, 50, 127
2, 217767, Note_off_c, 4, 64, 127
2, 217767, Note_off_c, 4, 76, 127
2, 217770, Note_on_c, 12, 47, 127
2, 217770, Note_on_c, 12, 71, 127
2, 217770, Note_on_c, 2, 74, 127
2, 217855, Note_off_c, 12, 71, 127
2, 217859, Note_on_c, 10, 69, 127
2, 217944, Note_off_c, 10, 69, 127
2, 217944, Note_off_c, 12, 47, 127
2, 217947, Note_on_c, 10, 45, 127
2, 217947, Note_on_c, 12, 71, 127
2, 218118, Note_off_c, 10, 45, 127
2, 218118, Note_off_c, 2, 74, 127
2, 218121, Note_on_c, 12, 47, 127
2, 218121, Note_on_c, 5, 77, 127
2, 218292, Note_off_c, 5, 77, 127
2, 218292, Note_off_c, 12, 47, 127
2, 218295, Note_on_c, 0, 48, 127
2, 218295, Note_on_c, 4, 76, 127
2, 218466, Note_off_c, 4, 76, 127
2, 218466, Note_off_c, 0, 48, 127
2, 218467, Note_off_c, 12, 71, 127
2, 218470, Note_on_c, 2, 50, 127
2, 218470, Note_on_c, 10, 69, 127
2, 218470, Note_on_c, 5, 77, 127
2, 218641, Note_off_c, 2, 50, 127
2, 218644, Note_on_c, 4, 52, 127
2, 218815, Note_off_c, 4, 52, 127
2, 218815, Note_off_c, 5, 77, 127
2, 218818, Note_on_c, 0, 48, 127
2, 218818, Note_on_c, 12, 71, 127
2, 218989, Note_off_c, 0, 48, 127
2, 218992, Note_on_c, 2, 50, 127
2, 219163, Note_off_c, 2, 50, 127
2, 219163, Note_off_c, 12, 71, 127
2, 219164, Note_off_c, 10, 69, 127
2, 219166, Note_on_c, 4, 52, 127
2, 219166, Note_on_c, 7, 67, 127
2, 219166, Note_on_c, 7, 79, 127
2, 219337, Note_off_c, 4, 52, 127
2, 219341, Note_on_c, 2, 50, 127
2, 219511, Note_off_c, 7, 67, 127
2, 219512, Note_off_c, 2, 50, 127
2, 219515, Note_on_c, 4, 52, 127
2, 219515, Note_on_c, 12, 71, 127
2, 219686, Note_off_c, 12, 71, 127
2, 219686, Note_off_c, 4, 52, 127
2, 219689, Note_on_c, 5, 53, 127
2, 219689, Note_on_c, 10, 69, 127
2, 219860, Note_off_c, 10, 69, 127
2, 219860, Note_off_c, 5, 53, 127
2, 219860, Note_off_c, 7, 79, 127
2, 219863, Note_on_c, 4, 52, 127
2, 219863, Note_on_c, 12, 71, 127
2, 219863, Note_on_c, 5, 77, 127
2, 220034, Note_off_c, 4, 52, 127
2, 220037, Note_on_c, 5, 53, 127
2, 220208, Note_off_c, 5, 53, 127
2, 220208, Note_off_c, 12, 71, 127
2, 220212, Note_on_c, 2, 50, 127
2, 220212, Note_on_c, 7, 67, 127
2, 220383, Note_off_c, 2, 50, 127
2, 220386, Note_on_c, 4, 52, 127
2, 220557, Note_off_c, 4, 52, 127
2, 220557, Note_off_c, 7, 67, 127
2, 220557, Note_off_c, 5, 77, 127
2, 220560, Note_on_c, 0, 48, 127
2, 220560, Note_on_c, 0, 72, 127
2, 220560, Note_on_c, 4, 76, 127
2, 220633, Note_on_c, 12, 71, 127
2, 220645, Note_off_c, 0, 72, 127
2, 220706, Note_on_c, 0, 72, 127
2, 220718, Note_off_c, 12, 71, 127
2, 220734, Note_off_c, 0, 48, 127
2, 220737, Note_on_c, 12, 47, 127
2, 220908, Note_off_c, 12, 47, 127
2, 220908, Note_off_c, 4, 76, 127
2, 220911, Note_on_c, 0, 48, 127
2, 220911, Note_on_c, 5, 77, 127
2, 221082, Note_off_c, 0, 48, 127
2, 221085, Note_on_c, 2, 50, 127
2, 221256, Note_off_c, 2, 50, 127
2, 221256, Note_off_c, 5, 77, 127
2, 221257, Note_off_c, 0, 72, 127
2, 221259, Note_on_c, 4, 52, 127
2, 221259, Note_on_c, 11, 70, 127
2, 221259, Note_on_c, 7, 79, 127
2, 221430, Note_off_c, 4, 52, 127
2, 221434, Note_on_c, 5, 53, 127
2, 221605, Note_off_c, 5, 53, 127
2, 221608, Note_on_c, 2, 50, 127
2, 221779, Note_off_c, 2, 50, 127
2, 221782, Note_on_c, 4, 52, 127
2, 221953, Note_off_c, 4, 52, 127
2, 221953, Note_off_c, 11, 70, 127
2, 221956, Note_on_c, 5, 53, 127
2, 221956, Note_on_c, 10, 69, 127
2, 222127, Note_off_c, 5, 53, 127
2, 222130, Note_on_c, 7, 55, 127
2, 222301, Note_off_c, 7, 55, 127
2, 222305, Note_on_c, 5, 53, 127
2, 222476, Note_off_c, 5, 53, 127
2, 222479, Note_on_c, 4, 52, 127
2, 222650, Note_off_c, 4, 52, 127
2, 222650, Note_off_c, 7, 79, 127
2, 222653, Note_on_c, 2, 50, 127
2, 222653, Note_on_c, 5, 77, 127
2, 222824, Note_off_c, 2, 50, 127
2, 222827, Note_on_c, 0, 48, 127
2, 222998, Note_off_c, 0, 48, 127
2, 223001, Note_on_c, 12, 47, 127
2, 223172, Note_off_c, 12, 47, 127
2, 223176, Note_on_c, 10, 45, 127
2, 223347, Note_off_c, 10, 45, 127
2, 223347, Note_off_c, 10, 69, 127
2, 223350, Note_on_c, 12, 47, 127
2, 223350, Note_on_c, 7, 67, 127
2, 223521, Note_off_c, 12, 47, 127
2, 223524, Note_on_c, 7, 43, 127
2, 223695, Note_off_c, 7, 43, 127
2, 223698, Note_on_c, 10, 45, 127
2, 223869, Note_off_c, 10, 45, 127
2, 223872, Note_on_c, 12, 47, 127
2, 224043, Note_off_c, 12, 47, 127
2, 224044, Note_off_c, 5, 77, 127
2, 224047, Note_on_c, 0, 48, 127
2, 224047, Note_on_c, 4, 76, 127
2, 224218, Note_off_c, 0, 48, 127
2, 224221, Note_on_c, 2, 50, 127
2, 224392, Note_off_c, 2, 50, 127
2, 224395, Note_on_c, 12, 47, 127
2, 224566, Note_off_c, 12, 47, 127
2, 224569, Note_on_c, 0, 48, 127
2, 224740, Note_off_c, 0, 48, 127
2, 224741, Note_off_c, 7, 67, 127
2, 224743, Note_on_c, 10, 45, 127
2, 224743, Note_on_c, 5, 65, 127
2, 224914, Note_off_c, 10, 45, 127
2, 224918, Note_on_c, 0, 48, 127
2, 225089, Note_off_c, 0, 48, 127
2, 225092, Note_on_c, 12, 47, 127
2, 225263, Note_off_c, 12, 47, 127
2, 225266, Note_on_c, 0, 48, 127
2, 225437, Note_off_c, 0, 48, 127
2, 225438, Note_off_c, 4, 76, 127
2, 225440, Note_on_c, 2, 50, 127
2, 225440, Note_on_c, 2, 74, 127
2, 225611, Note_off_c, 2, 50, 127
2, 225614, Note_on_c, 4, 52, 127
2, 225785, Note_off_c, 4, 52, 127
2, 225785, Note_off_c, 2, 74, 127
2, 225789, Note_on_c, 5, 53, 127
2, 225789, Note_on_c, 0, 72, 127
2, 225960, Note_off_c, 5, 53, 127
2, 225963, Note_on_c, 2, 50, 127
2, 226134, Note_off_c, 2, 50, 127
2, 226134, Note_off_c, 0, 72, 127
2, 226137, Note_on_c, 7, 55, 127
2, 226137, Note_on_c, 12, 71, 127
2, 226308, Note_off_c, 7, 55, 127
2, 226311, Note_on_c, 10, 57, 127
2, 226482, Note_off_c, 10, 57, 127
2, 226485, Note_on_c, 5, 53, 127
2, 226485, Note_on_c, 7, 67, 127
2, 226656, Note_off_c, 5, 53, 127
2, 226660, Note_on_c, 7, 55, 127
2, 226826, Note_off_c, 12, 71, 127
2, 226830, Note_off_c, 7, 67, 127
2, 226830, Note_off_c, 5, 65, 127
2, 226831, Note_off_c, 7, 55, 127
2, 226834, Note_on_c, 10, 57, 127
2, 226834, Note_on_c, 4, 64, 127
2, 226834, Note_on_c, 0, 72, 127
2, 227005, Note_off_c, 10, 57, 127
2, 227008, Note_on_c, 12, 59, 127
2, 227179, Note_off_c, 12, 59, 127
2, 227182, Note_on_c, 7, 55, 127
2, 227353, Note_off_c, 7, 55, 127
2, 227356, Note_on_c, 10, 57, 127
2, 227527, Note_off_c, 10, 57, 127
2, 227528, Note_off_c, 4, 64, 127
2, 227531, Note_on_c, 5, 53, 127
2, 227531, Note_on_c, 2, 62, 127
2, 227702, Note_off_c, 5, 53, 127
2, 227705, Note_on_c, 7, 55, 127
2, 227876, Note_off_c, 7, 55, 127
2, 227879, Note_on_c, 4, 52, 127
2, 228050, Note_off_c, 4, 52, 127
2, 228053, Note_on_c, 5, 53, 127
2, 228224, Note_off_c, 5, 53, 127
2, 228225, Note_off_c, 0, 72, 127
2, 228227, Note_on_c, 7, 55, 127
2, 228227, Note_on_c, 12, 71, 127
2, 228398, Note_off_c, 7, 55, 127
2, 228399, Note_off_c, 2, 62, 127
2, 228402, Note_on_c, 10, 57, 127
2, 228402, Note_on_c, 5, 65, 127
2, 228573, Note_off_c, 5, 65, 127
2, 228573, Note_off_c, 10, 57, 127
2, 228576, Note_on_c, 5, 53, 127
2, 228576, Note_on_c, 4, 64, 127
2, 228747, Note_off_c, 4, 64, 127
2, 228747, Note_off_c, 5, 53, 127
2, 228750, Note_on_c, 7, 55, 127
2, 228750, Note_on_c, 2, 62, 127
2, 228921, Note_off_c, 2, 62, 127
2, 228921, Note_off_c, 7, 55, 127
2, 228921, Note_off_c, 12, 71, 127
2, 228924, Note_on_c, 4, 52, 127
2, 228924, Note_on_c, 7, 67, 127
2, 228924, Note_on_c, 0, 72, 127
2, 229100, Note_off_c, 7, 67, 127
2, 229104, Note_on_c, 10, 69, 127
2, 229280, Note_off_c, 10, 69, 127
2, 229280, Note_off_c, 0, 72, 127
2, 229280, Note_off_c, 4, 52, 127
2, 229283, Note_on_c, 5, 53, 127
2, 229283, Note_on_c, 5, 65, 127
2, 229283, Note_on_c, 2, 74, 127
2, 229459, Note_off_c, 5, 65, 127
2, 229462, Note_on_c, 7, 67, 127
2, 229638, Note_off_c, 7, 67, 127
2, 229639, Note_off_c, 2, 74, 127
2, 229639, Note_off_c, 5, 53, 127
2, 229642, Note_on_c, 7, 55, 127
2, 229642, Note_on_c, 4, 64, 127
2, 229642, Note_on_c, 7, 67, 127
2, 229818, Note_off_c, 7, 67, 127
2, 229821, Note_on_c, 0, 72, 127
2, 229998, Note_off_c, 4, 64, 127
2, 229998, Note_off_c, 7, 55, 127
2, 230001, Note_on_c, 8, 56, 127
2, 230001, Note_on_c, 2, 62, 127
2, 230177, Note_off_c, 0, 72, 127
2, 230180, Note_on_c, 12, 71, 127
2, 230356, Note_off_c, 12, 71, 127
2, 230357, Note_off_c, 2, 62, 127
2, 230357, Note_off_c, 8, 56, 127
2, 230359, Note_on_c, 10, 57, 127
2, 230359, Note_on_c, 0, 60, 127
2, 230359, Note_on_c, 0, 72, 127
2, 230530, Note_off_c, 0, 72, 127
2, 230534, Note_on_c, 5, 65, 127
2, 230704, Note_off_c, 10, 57, 127
2, 230705, Note_off_c, 5, 65, 127
2, 230708, Note_on_c, 7, 55, 127
2, 230708, Note_on_c, 4, 64, 127
2, 230879, Note_off_c, 4, 64, 127
2, 230879, Note_off_c, 7, 55, 127
2, 230882, Note_on_c, 5, 53, 127
2, 230882, Note_on_c, 2, 62, 127
2, 231053, Note_off_c, 2, 62, 127
2, 231053, Note_off_c, 5, 53, 127
2, 231053, Note_off_c, 0, 60, 127
2, 231056, Note_on_c, 7, 55, 127
2, 231056, Note_on_c, 4, 64, 127
2, 231056, Note_on_c, 0, 60, 127
2, 231227, Note_off_c, 4, 64, 127
2, 231230, Note_on_c, 5, 65, 127
2, 231401, Note_off_c, 5, 65, 127
2, 231401, Note_off_c, 7, 55, 127
2, 231405, Note_on_c, 0, 48, 127
2, 231405, Note_on_c, 2, 62, 127
2, 231576, Note_off_c, 2, 62, 127
2, 231579, Note_on_c, 4, 64, 127
2, 231750, Note_off_c, 4, 64, 127
2, 231750, Note_off_c, 0, 48, 127
2, 231753, Note_on_c, 10, 57, 127
2, 231753, Note_on_c, 5, 65, 127
2, 231838, Note_off_c, 10, 57, 127
2, 231841, Note_on_c, 7, 55, 127
2, 231926, Note_off_c, 7, 55, 127
2, 231927, Note_off_c, 5, 65, 127
2, 231930, Note_on_c, 10, 57, 127
2, 231930, Note_on_c, 4, 64, 127
2, 232015, Note_off_c, 10, 57, 127
2, 232018, Note_on_c, 7, 55, 127
2, 232103, Note_off_c, 7, 55, 127
2, 232104, Note_off_c, 4, 64, 127
2, 232107, Note_on_c, 10, 57, 127
2, 232107, Note_on_c, 5, 65, 127
2, 232278, Note_off_c, 5, 65, 127
2, 232281, Note_on_c, 7, 67, 127
2, 232452, Note_off_c, 7, 67, 127
2, 232452, Note_off_c, 10, 57, 127
2, 232455, Note_on_c, 7, 55, 127
2, 232455, Note_on_c, 5, 65, 127
2, 232626, Note_off_c, 5, 65, 127
2, 232629, Note_on_c, 7, 67, 127
2, 232800, Note_off_c, 7, 67, 127
2, 232803, Note_on_c, 4, 64, 127
2, 232974, Note_off_c, 4, 64, 127
2, 232978, Note_on_c, 5, 65, 127
2, 233149, Note_off_c, 5, 65, 127
2, 233152, Note_on_c, 2, 62, 127
2, 233309, Note_off_c, 0, 60, 127
2, 233323, Note_off_c, 2, 62, 127
2, 233326, Note_on_c, 0, 60, 127
2, 233497, Note_off_c, 7, 55, 127
2, 233500, Note_on_c, 5, 53, 127
2, 233500, Note_on_c, 2, 62, 127
2, 233671, Note_off_c, 2, 62, 127
2, 233671, Note_off_c, 5, 53, 127
2, 233674, Note_on_c, 4, 52, 127
2, 233674, Note_on_c, 4, 64, 127
2, 233845, Note_off_c, 4, 64, 127
2, 233845, Note_off_c, 4, 52, 127
2, 233849, Note_on_c, 5, 53, 127
2, 233849, Note_on_c, 2, 62, 127
2, 234020, Note_off_c, 2, 62, 127
2, 234023, Note_on_c, 4, 64, 127
2, 234194, Note_off_c, 4, 64, 127
2, 234194, Note_off_c, 5, 53, 127
2, 234197, Note_off_c, 0, 60, 127
2, 234197, Note_on_c, 2, 50, 127
2, 234197, Note_on_c, 0, 60, 127
2, 234371, Note_on_c, 2, 62, 127
2, 234542, Note_off_c, 2, 62, 127
2, 234542, Note_off_c, 2, 50, 127
2, 234545, Note_on_c, 7, 55, 127
2, 234545, Note_on_c, 4, 64, 127
2, 234630, Note_off_c, 7, 55, 127
2, 234634, Note_on_c, 5, 53, 127
2, 234719, Note_off_c, 5, 53, 127
2, 234719, Note_off_c, 4, 64, 127
2, 234722, Note_on_c, 7, 55, 127
2, 234722, Note_on_c, 2, 62, 127
2, 234807, Note_off_c, 7, 55, 127
2, 234811, Note_on_c, 5, 53, 127
2, 234891, Note_off_c, 0, 60, 127
2, 234896, Note_off_c, 5, 53, 127
2, 234896, Note_off_c, 2, 62, 127
2, 234899, Note_on_c, 7, 55, 127
2, 234899, Note_on_c, 0, 60, 127
2, 234899, Note_on_c, 4, 64, 127
2, 235070, Note_off_c, 4, 64, 127
2, 235073, Note_on_c, 5, 65, 127
2, 235244, Note_off_c, 5, 65, 127
2, 235244, Note_off_c, 7, 55, 127
2, 235247, Note_on_c, 5, 53, 127
2, 235247, Note_on_c, 4, 64, 127
2, 235418, Note_off_c, 4, 64, 127
2, 235422, Note_on_c, 5, 65, 127
2, 235593, Note_off_c, 5, 65, 127
2, 235593, Note_off_c, 0, 60, 127
2, 235596, Note_on_c, 12, 59, 127
2, 235596, Note_on_c, 2, 62, 127
2, 235767, Note_off_c, 2, 62, 127
2, 235770, Note_on_c, 4, 64, 127
2, 235941, Note_off_c, 4, 64, 127
2, 235941, Note_off_c, 12, 59, 127
2, 235941, Note_off_c, 5, 53, 127
2, 235944, Note_on_c, 4, 52, 127
2, 235944, Note_on_c, 0, 60, 127
2, 236115, Note_off_c, 4, 52, 127
2, 236118, Note_on_c, 2, 50, 127
2, 236289, Note_off_c, 2, 50, 127
2, 236293, Note_on_c, 4, 52, 127
2, 236293, Note_on_c, 7, 55, 127
2, 236464, Note_off_c, 7, 55, 127
2, 236464, Note_off_c, 4, 52, 127
2, 236467, Note_on_c, 5, 53, 127
2, 236638, Note_off_c, 5, 53, 127
2, 236641, Note_on_c, 4, 52, 127
2, 236641, Note_on_c, 7, 55, 127
2, 236812, Note_off_c, 4, 52, 127
2, 236815, Note_on_c, 5, 53, 127
2, 236986, Note_off_c, 5, 53, 127
2, 236986, Note_off_c, 7, 55, 127
2, 236989, Note_on_c, 2, 50, 127
2, 236989, Note_on_c, 0, 48, 127
2, 237160, Note_off_c, 2, 50, 127
2, 237164, Note_on_c, 4, 52, 127
2, 237334, Note_off_c, 0, 48, 127
2, 237335, Note_off_c, 4, 52, 127
2, 237338, Note_on_c, 5, 53, 127
2, 237338, Note_on_c, 10, 57, 127
2, 237423, Note_off_c, 10, 57, 127
2, 237426, Note_on_c, 7, 55, 127
2, 237511, Note_off_c, 7, 55, 127
2, 237512, Note_off_c, 5, 53, 127
2, 237515, Note_on_c, 4, 52, 127
2, 237515, Note_on_c, 10, 57, 127
2, 237600, Note_off_c, 10, 57, 127
2, 237603, Note_on_c, 7, 55, 127
2, 237688, Note_off_c, 7, 55, 127
2, 237689, Note_off_c, 4, 52, 127
2, 237691, Note_on_c, 5, 53, 127
2, 237691, Note_on_c, 10, 57, 127
2, 237862, Note_off_c, 5, 53, 127
2, 237866, Note_on_c, 7, 55, 127
2, 238036, Note_off_c, 10, 57, 127
2, 238037, Note_off_c, 7, 55, 127
2, 238040, Note_on_c, 5, 53, 127
2, 238040, Note_on_c, 7, 55, 127
2, 238211, Note_off_c, 7, 55, 127
2, 238211, Note_off_c, 5, 53, 127
2, 238214, Note_on_c, 7, 55, 127
2, 238388, Note_on_c, 4, 52, 127
2, 238559, Note_off_c, 4, 52, 127
2, 238562, Note_on_c, 5, 53, 127
2, 238733, Note_off_c, 5, 53, 127
2, 238737, Note_on_c, 2, 50, 127
2, 238903, Note_off_c, 7, 55, 127
2, 238908, Note_off_c, 2, 50, 127
2, 238911, Note_on_c, 0, 48, 127
2, 239082, Note_off_c, 0, 48, 127
2, 239085, Note_on_c, 2, 50, 127
2, 239085, Note_on_c, 5, 53, 127
2, 239256, Note_off_c, 2, 50, 127
2, 239259, Note_on_c, 4, 52, 127
2, 239387, Note_off_c, 5, 53, 127
2, 239430, Note_off_c, 4, 52, 127
2, 239433, Note_on_c, 2, 50, 127
2, 239433, Note_on_c, 5, 53, 127
2, 239604, Note_off_c, 2, 50, 127
2, 239608, Note_on_c, 0, 48, 127
2, 239778, Note_off_c, 5, 53, 127
2, 239779, Note_off_c, 0, 48, 127
2, 239782, Note_on_c, 12, 47, 127
2, 239782, Note_on_c, 2, 50, 127
2, 239953, Note_off_c, 12, 47, 127
2, 239956, Note_on_c, 10, 45, 127
2, 240127, Note_off_c, 10, 45, 127
2, 240127, Note_off_c, 2, 50, 127
2, 240130, Note_on_c, 7, 43, 127
2, 240130, Note_on_c, 7, 55, 127
2, 240301, Note_off_c, 7, 43, 127
2, 240304, Note_on_c, 5, 41, 127
2, 240475, Note_off_c, 5, 41, 127
2, 240475, Note_off_c, 0, 60, 127
2, 240479, Note_on_c, 7, 43, 127
2, 240479, Note_on_c, 12, 59, 127
2, 240650, Note_off_c, 7, 43, 127
2, 240653, Note_on_c, 10, 45, 127
2, 240824, Note_off_c, 10, 45, 127
2, 240824, Note_off_c, 12, 59, 127
2, 240824, Note_off_c, 7, 55, 127
2, 240827, Note_on_c, 7, 43, 127
2, 240827, Note_on_c, 10, 57, 127
2, 240827, Note_on_c, 0, 60, 127
2, 240998, Note_off_c, 7, 43, 127
2, 241001, Note_on_c, 5, 41, 127
2, 241172, Note_off_c, 5, 41, 127
2, 241172, Note_off_c, 0, 60, 127
2, 241172, Note_off_c, 10, 57, 127
2, 241175, Note_on_c, 4, 40, 127
2, 241175, Note_on_c, 12, 59, 127
2, 241175, Note_on_c, 2, 62, 127
2, 241346, Note_off_c, 4, 40, 127
2, 241350, Note_on_c, 2, 38, 127
2, 241520, Note_off_c, 2, 62, 127
2, 241520, Note_off_c, 12, 59, 127
2, 241521, Note_off_c, 2, 38, 127
2, 241524, Note_on_c, 0, 36, 127
2, 241524, Note_on_c, 0, 60, 127
2, 241524, Note_on_c, 4, 64, 127
2, 241701, Note_on_c, 0, 48, 127
2, 241872, Note_off_c, 0, 36, 127
2, 241875, Note_off_c, 4, 64, 127
2, 241875, Note_off_c, 0, 60, 127
2, 241877, Note_on_c, 4, 52, 127
2, 241877, Note_on_c, 11, 58, 127
2, 241877, Note_on_c, 7, 67, 127
2, 242049, Note_off_c, 0, 48, 127
2, 242051, Note_off_c, 7, 67, 127
2, 242051, Note_off_c, 11, 58, 127
2, 242051, Note_off_c, 4, 52, 127
2, 242054, Note_on_c, 0, 48, 127
2, 242054, Note_on_c, 10, 57, 127
2, 242054, Note_on_c, 5, 65, 127
2, 242228, Note_off_c, 5, 65, 127
2, 242228, Note_off_c, 10, 57, 127
2, 242231, Note_on_c, 0, 36, 127
2, 242231, Note_on_c, 11, 58, 127
2, 242231, Note_on_c, 7, 67, 127
2, 242402, Note_off_c, 0, 48, 127
2, 242405, Note_on_c, 0, 48, 127
2, 242576, Note_off_c, 0, 36, 127
2, 242579, Note_off_c, 7, 67, 127
2, 242579, Note_off_c, 11, 58, 127
2, 242582, Note_on_c, 7, 55, 127
2, 242582, Note_on_c, 4, 64, 127
2, 242582, Note_on_c, 0, 60, 127
2, 242753, Note_off_c, 0, 48, 127
2, 242756, Note_off_c, 7, 55, 127
2, 242759, Note_on_c, 0, 48, 127
2, 242933, Note_off_c, 0, 60, 127
2, 242933, Note_off_c, 4, 64, 127
2, 242936, Note_on_c, 0, 36, 127
2, 242936, Note_on_c, 0, 60, 127
2, 242936, Note_on_c, 5, 65, 127
2, 242936, Note_on_c, 10, 69, 127
2, 243107, Note_off_c, 0, 48, 127
2, 243110, Note_off_c, 0, 36, 127
2, 243112, Note_on_c, 2, 38, 127
2, 243286, Note_off_c, 2, 38, 127
2, 243289, Note_on_c, 4, 40, 127
2, 243463, Note_off_c, 4, 40, 127
2, 243466, Note_on_c, 5, 41, 127
2, 243640, Note_off_c, 5, 41, 127
2, 243640, Note_off_c, 10, 69, 127
2, 243640, Note_off_c, 5, 65, 127
2, 243643, Note_on_c, 7, 43, 127
2, 243643, Note_on_c, 4, 64, 127
2, 243643, Note_on_c, 7, 67, 127
2, 243817, Note_off_c, 7, 43, 127
2, 243820, Note_on_c, 10, 45, 127
2, 243994, Note_off_c, 10, 45, 127
2, 243996, Note_on_c, 12, 47, 127
2, 244170, Note_off_c, 12, 47, 127
2, 244173, Note_on_c, 0, 48, 127
2, 244347, Note_off_c, 0, 48, 127
2, 244347, Note_off_c, 0, 60, 127
2, 244350, Note_on_c, 0, 36, 127
2, 244527, Note_on_c, 0, 48, 127
2, 244698, Note_off_c, 0, 36, 127
2, 244701, Note_off_c, 7, 67, 127
2, 244704, Note_on_c, 2, 50, 127
2, 244704, Note_on_c, 5, 65, 127
2, 244875, Note_off_c, 0, 48, 127
2, 244875, Note_off_c, 4, 64, 127
2, 244878, Note_off_c, 5, 65, 127
2, 244878, Note_off_c, 2, 50, 127
2, 244880, Note_on_c, 0, 48, 127
2, 244880, Note_on_c, 4, 64, 127
2, 245054, Note_off_c, 4, 64, 127
2, 245057, Note_on_c, 0, 36, 127
2, 245057, Note_on_c, 5, 65, 127
2, 245228, Note_off_c, 0, 48, 127
2, 245231, Note_on_c, 0, 48, 127
2, 245402, Note_off_c, 0, 36, 127
2, 245406, Note_on_c, 5, 53, 127
2, 245406, Note_on_c, 2, 62, 127
2, 245576, Note_off_c, 0, 48, 127
2, 245580, Note_off_c, 5, 53, 127
2, 245582, Note_on_c, 0, 48, 127
2, 245751, Note_off_c, 5, 65, 127
2, 245756, Note_off_c, 0, 48, 127
2, 245759, Note_on_c, 12, 47, 127
2, 245759, Note_on_c, 7, 67, 127
2, 245933, Note_off_c, 12, 47, 127
2, 245936, Note_on_c, 0, 48, 127
2, 246105, Note_off_c, 2, 62, 127
2, 246110, Note_off_c, 0, 48, 127
2, 246113, Note_on_c, 12, 47, 127
2, 246113, Note_on_c, 2, 62, 127
2, 246287, Note_off_c, 2, 62, 127
2, 246287, Note_off_c, 12, 47, 127
2, 246290, Note_on_c, 10, 45, 127
2, 246290, Note_on_c, 0, 60, 127
2, 246463, Note_off_c, 7, 67, 127
2, 246464, Note_off_c, 0, 60, 127
2, 246464, Note_off_c, 10, 45, 127
2, 246466, Note_on_c, 7, 43, 127
2, 246466, Note_on_c, 2, 62, 127
2, 246466, Note_on_c, 5, 65, 127
2, 246640, Note_off_c, 7, 43, 127
2, 246643, Note_on_c, 5, 41, 127
2, 246817, Note_off_c, 5, 41, 127
2, 246817, Note_off_c, 2, 62, 127
2, 246820, Note_on_c, 4, 40, 127
2, 246820, Note_on_c, 7, 55, 127
2, 246994, Note_off_c, 4, 40, 127
2, 246997, Note_on_c, 2, 38, 127
2, 247170, Note_off_c, 5, 65, 127
2, 247171, Note_off_c, 2, 38, 127
2, 247171, Note_off_c, 7, 55, 127
2, 247174, Note_on_c, 0, 36, 127
2, 247174, Note_on_c, 0, 60, 127
2, 247174, Note_on_c, 4, 64, 127
2, 247356, Note_on_c, 0, 48, 127
2, 247532, Note_off_c, 0, 36, 127
2, 247535, Note_off_c, 4, 64, 127
2, 247535, Note_off_c, 0, 60, 127
2, 247538, Note_on_c, 2, 50, 127
2, 247538, Note_on_c, 12, 59, 127
2, 247538, Note_on_c, 8, 68, 127
2, 247538, Note_on_c, 5, 65, 127
2, 247714, Note_off_c, 0, 48, 127
2, 247717, Note_off_c, 2, 50, 127
2, 247720, Note_on_c, 0, 48, 127
2, 247899, Note_off_c, 5, 65, 127
2, 247899, Note_off_c, 8, 68, 127
2, 247899, Note_off_c, 12, 59, 127
2, 247902, Note_on_c, 4, 52, 127
2, 247902, Note_on_c, 0, 60, 127
2, 247902, Note_on_c, 4, 64, 127
2, 247902, Note_on_c, 7, 67, 127
2, 248081, Note_off_c, 0, 48, 127
2, 248084, Note_on_c, 0, 48, 127
2, 248263, Note_off_c, 4, 52, 127
2, 248266, Note_off_c, 7, 67, 127
2, 248266, Note_off_c, 4, 64, 127
2, 248266, Note_off_c, 0, 60, 127
2, 248268, Note_on_c, 5, 53, 127
2, 248268, Note_on_c, 2, 62, 127
2, 248268, Note_on_c, 12, 71, 127
2, 248268, Note_on_c, 8, 68, 127
2, 248448, Note_off_c, 0, 48, 127
2, 248450, Note_on_c, 0, 48, 127
2, 248629, Note_off_c, 5, 53, 127
2, 248632, Note_off_c, 8, 68, 127
2, 248632, Note_off_c, 12, 71, 127
2, 248632, Note_off_c, 2, 62, 127
2, 248635, Note_on_c, 7, 55, 127
2, 248635, Note_on_c, 4, 64, 127
2, 248635, Note_on_c, 7, 67, 127
2, 248635, Note_on_c, 0, 72, 127
2, 248819, Note_off_c, 0, 48, 127
2, 248825, Note_on_c, 0, 48, 127
2, 249009, Note_off_c, 7, 55, 127
2, 249012, Note_off_c, 0, 72, 127
2, 249012, Note_off_c, 7, 67, 127
2, 249012, Note_off_c, 4, 64, 127
2, 249014, Note_on_c, 8, 56, 127
2, 249014, Note_on_c, 2, 62, 127
2, 249014, Note_on_c, 12, 59, 127
2, 249014, Note_on_c, 5, 65, 127
2, 249199, Note_off_c, 0, 48, 127
2, 249204, Note_on_c, 0, 48, 127
2, 249388, Note_off_c, 8, 56, 127
2, 249391, Note_off_c, 5, 65, 127
2, 249391, Note_off_c, 12, 59, 127
2, 249391, Note_off_c, 2, 62, 127
2, 249394, Note_on_c, 7, 55, 127
2, 249394, Note_on_c, 0, 60, 127
2, 249394, Note_on_c, 4, 64, 127
2, 249581, Note_off_c, 0, 48, 127
2, 249586, Note_on_c, 0, 48, 127
2, 249773, Note_off_c, 4, 64, 127
2, 249775, Note_off_c, 0, 48, 127
2, 249776, Note_off_c, 0, 60, 127
2, 249779, Note_on_c, 12, 47, 127
2, 249779, Note_on_c, 4, 64, 127
2, 249779, Note_on_c, 0, 72, 127
2, 249966, Note_off_c, 12, 47, 127
2, 249969, Note_on_c, 0, 48, 127
2, 250150, Note_off_c, 7, 55, 127
2, 250156, Note_off_c, 4, 64, 127
2, 250158, Note_off_c, 0, 48, 127
2, 250161, Note_on_c, 10, 57, 127
2, 250161, Note_on_c, 5, 41, 127
2, 250161, Note_on_c, 2, 62, 127
2, 250553, Note_off_c, 0, 72, 127
2, 250561, Note_on_c, 0, 72, 127
2, 250954, Note_off_c, 2, 62, 127
2, 250959, Note_off_c, 5, 41, 127
2, 250959, Note_off_c, 10, 57, 127
2, 250962, Note_on_c, 7, 55, 127
2, 250962, Note_on_c, 7, 43, 127
2, 250962, Note_on_c, 2, 62, 127
2, 250962, Note_on_c, 5, 65, 127
2, 251354, Note_off_c, 0, 72, 127
2, 251362, Note_on_c, 12, 71, 127
2, 251755, Note_off_c, 5, 65, 127
2, 251759, Note_off_c, 12, 71, 127
2, 251760, Note_off_c, 2, 62, 127
2, 251760, Note_off_c, 7, 43, 127
2, 251760, Note_off_c, 7, 55, 127
2, 251779, Note_on_c, 0, 72, 127
2, 251779, Note_on_c, 4, 64, 127
2, 251779, Note_on_c, 7, 67, 127
2, 251779, Note_on_c, 0, 60, 127
2, 251779, Note_on_c, 0, 48, 127
2, 251779, Note_on_c, 0, 36, 127
2, 255192, Note_off_c, 0, 36, 127
2, 255192, Note_off_c, 0, 48, 127
2, 255192, Note_off_c, 0, 60, 127
2, 255192, Note_off_c, 7, 67, 127
2, 255192, Note_off_c, 4, 64, 127
2, 255192, Note_off_c, 0, 72, 127
2, 259584, End_track
3, 0, Start_track
3, 0, Title_t, "MIDI"
3, 1536, End_track
0, 0, End_of_file
