0, 0, Header, 1, 9, 192
1, 0, Start_track
1, 0, Title_t, "untitled"
1, 0, SMPTE_offset, 96, 0, 3, 0, 0
1, 0, Time_signature, 12, 3, 12, 8
1, 0, Key_signature, 1, "major"
1, 0, Tempo, 600000
1, 43488, Tempo, 500000
1, 43776, Tempo, 666667
1, 43776, End_track
2, 0, Start_track
2, 0, MIDI_port, 0
2, 0, Title_t, "R.H."
2, 0, Program_c, 0, 0
2, 0, Control_c, 0, 7, 127
2, 0, Control_c, 0, 10, 64
2, 288, Note_on_c, 0, 67, 110
2, 334, Note_on_c, 0, 67, 0
2, 336, Note_on_c, 0, 66, 110
2, 382, Note_on_c, 0, 66, 0
2, 384, Note_on_c, 0, 64, 110
2, 430, Note_on_c, 0, 64, 0
2, 432, Note_on_c, 0, 62, 110
2, 478, Note_on_c, 0, 62, 0
2, 480, Note_on_c, 0, 71, 110
2, 512, Note_on_c, 0, 71, 0
2, 576, Note_on_c, 0, 69, 110
2, 608, Note_on_c, 0, 69, 0
2, 864, Note_on_c, 0, 67, 110
2, 910, Note_on_c, 0, 67, 0
2, 912, Note_on_c, 0, 66, 110
2, 958, Note_on_c, 0, 66, 0
2, 960, Note_on_c, 0, 64, 110
2, 1006, Note_on_c, 0, 64, 0
2, 1008, Note_on_c, 0, 62, 110
2, 1054, Note_on_c, 0, 62, 0
2, 1056, Note_on_c, 0, 72, 110
2, 1088, Note_on_c, 0, 72, 0
2, 1152, Note_on_c, 0, 71, 110
2, 1184, Note_on_c, 0, 71, 0
2, 1440, Note_on_c, 0, 74, 110
2, 1486, Note_on_c, 0, 74, 0
2, 1488, Note_on_c, 0, 71, 110
2, 1534, Note_on_c, 0, 71, 0
2, 1536, Note_on_c, 0, 69, 110
2, 1582, Note_on_c, 0, 69, 0
2, 1584, Note_on_c, 0, 67, 110
2, 1630, Note_on_c, 0, 67, 0
2, 1632, Note_on_c, 0, 76, 110
2, 1678, Note_on_c, 0, 76, 0
2, 1680, Note_on_c, 0, 72, 110
2, 1726, Note_on_c, 0, 72, 0
2, 1728, Note_on_c, 0, 74, 110
2, 1774, Note_on_c, 0, 74, 0
2, 1776, Note_on_c, 0, 71, 110
2, 1822, Note_on_c, 0, 71, 0
2, 1824, Note_on_c, 0, 69, 110
2, 1870, Note_on_c, 0, 69, 0
2, 1872, Note_on_c, 0, 67, 110
2, 1918, Note_on_c, 0, 67, 0
2, 1920, Note_on_c, 0, 72, 110
2, 1966, Note_on_c, 0, 72, 0
2, 1968, Note_on_c, 0, 69, 110
2, 2014, Note_on_c, 0, 69, 0
2, 2016, Note_on_c, 0, 72, 110
2, 2062, Note_on_c, 0, 72, 0
2, 2064, Note_on_c, 0, 71, 110
2, 2110, Note_on_c, 0, 71, 0
2, 2112, Note_on_c, 0, 69, 110
2, 2158, Note_on_c, 0, 69, 0
2, 2160, Note_on_c, 0, 67, 110
2, 2206, Note_on_c, 0, 67, 0
2, 2208, Note_on_c, 0, 69, 110
2, 2254, Note_on_c, 0, 69, 0
2, 2256, Note_on_c, 0, 66, 110
2, 2302, Note_on_c, 0, 66, 0
2, 2304, Note_on_c, 0, 67, 110
2, 2350, Note_on_c, 0, 67, 0
2, 2352, Note_on_c, 0, 62, 110
2, 2398, Note_on_c, 0, 62, 0
2, 2400, Note_on_c, 0, 64, 110
2, 2446, Note_on_c, 0, 64, 0
2, 2448, Note_on_c, 0, 66, 110
2, 2494, Note_on_c, 0, 66, 0
2, 2496, Note_on_c, 0, 67, 110
2, 2542, Note_on_c, 0, 67, 0
2, 2544, Note_on_c, 0, 69, 110
2, 2590, Note_on_c, 0, 69, 0
2, 2592, Note_on_c, 0, 71, 110
2, 2638, Note_on_c, 0, 71, 0
2, 2640, Note_on_c, 0, 74, 110
2, 2686, Note_on_c, 0, 74, 0
2, 2688, Note_on_c, 0, 72, 110
2, 2734, Note_on_c, 0, 72, 0
2, 2736, Note_on_c, 0, 71, 110
2, 2782, Note_on_c, 0, 71, 0
2, 2784, Note_on_c, 0, 72, 110
2, 2830, Note_on_c, 0, 72, 0
2, 2832, Note_on_c, 0, 69, 110
2, 2878, Note_on_c, 0, 69, 0
2, 2880, Note_on_c, 0, 71, 110
2, 2926, Note_on_c, 0, 71, 0
2, 2928, Note_on_c, 0, 67, 110
2, 2974, Note_on_c, 0, 67, 0
2, 2976, Note_on_c, 0, 69, 110
2, 3022, Note_on_c, 0, 69, 0
2, 3024, Note_on_c, 0, 71, 110
2, 3070, Note_on_c, 0, 71, 0
2, 3072, Note_on_c, 0, 72, 110
2, 3118, Note_on_c, 0, 72, 0
2, 3120, Note_on_c, 0, 74, 110
2, 3166, Note_on_c, 0, 74, 0
2, 3168, Note_on_c, 0, 76, 110
2, 3214, Note_on_c, 0, 76, 0
2, 3216, Note_on_c, 0, 79, 110
2, 3262, Note_on_c, 0, 79, 0
2, 3264, Note_on_c, 0, 78, 110
2, 3310, Note_on_c, 0, 78, 0
2, 3312, Note_on_c, 0, 76, 110
2, 3358, Note_on_c, 0, 76, 0
2, 3360, Note_on_c, 0, 74, 110
2, 3406, Note_on_c, 0, 74, 0
2, 3408, Note_on_c, 0, 73, 110
2, 3454, Note_on_c, 0, 73, 0
2, 3456, Note_on_c, 0, 81, 110
2, 3502, Note_on_c, 0, 81, 0
2, 3504, Note_on_c, 0, 74, 110
2, 3550, Note_on_c, 0, 74, 0
2, 3552, Note_on_c, 0, 76, 110
2, 3598, Note_on_c, 0, 76, 0
2, 3600, Note_on_c, 0, 78, 110
2, 3646, Note_on_c, 0, 78, 0
2, 3648, Note_on_c, 0, 79, 110
2, 3694, Note_on_c, 0, 79, 0
2, 3696, Note_on_c, 0, 81, 110
2, 3742, Note_on_c, 0, 81, 0
2, 3744, Note_on_c, 0, 83, 110
2, 3790, Note_on_c, 0, 83, 0
2, 3792, Note_on_c, 0, 81, 110
2, 3838, Note_on_c, 0, 81, 0
2, 3840, Note_on_c, 0, 79, 110
2, 3886, Note_on_c, 0, 79, 0
2, 3888, Note_on_c, 0, 78, 110
2, 3934, Note_on_c, 0, 78, 0
2, 3936, Note_on_c, 0, 79, 110
2, 3982, Note_on_c, 0, 79, 0
2, 3984, Note_on_c, 0, 76, 110
2, 4030, Note_on_c, 0, 76, 0
2, 4032, Note_on_c, 0, 78, 110
2, 4078, Note_on_c, 0, 78, 0
2, 4080, Note_on_c, 0, 81, 110
2, 4126, Note_on_c, 0, 81, 0
2, 4128, Note_on_c, 0, 79, 110
2, 4174, Note_on_c, 0, 79, 0
2, 4176, Note_on_c, 0, 78, 110
2, 4222, Note_on_c, 0, 78, 0
2, 4224, Note_on_c, 0, 76, 110
2, 4270, Note_on_c, 0, 76, 0
2, 4272, Note_on_c, 0, 74, 110
2, 4318, Note_on_c, 0, 74, 0
2, 4320, Note_on_c, 0, 73, 110
2, 4366, Note_on_c, 0, 73, 0
2, 4368, Note_on_c, 0, 74, 110
2, 4414, Note_on_c, 0, 74, 0
2, 4416, Note_on_c, 0, 76, 110
2, 4462, Note_on_c, 0, 76, 0
2, 4464, Note_on_c, 0, 78, 110
2, 4510, Note_on_c, 0, 78, 0
2, 4512, Note_on_c, 0, 79, 110
2, 4654, Note_on_c, 0, 79, 0
2, 4656, Note_on_c, 0, 76, 110
2, 4702, Note_on_c, 0, 76, 0
2, 4704, Note_on_c, 0, 78, 110
2, 4750, Note_on_c, 0, 78, 0
2, 4752, Note_on_c, 0, 74, 110
2, 4798, Note_on_c, 0, 74, 0
2, 4800, Note_on_c, 0, 73, 110
2, 4846, Note_on_c, 0, 73, 0
2, 4848, Note_on_c, 0, 74, 110
2, 4894, Note_on_c, 0, 74, 0
2, 4896, Note_on_c, 0, 67, 110
2, 4928, Note_on_c, 0, 67, 0
2, 4992, Note_on_c, 0, 77, 110
2, 5230, Note_on_c, 0, 77, 0
2, 5232, Note_on_c, 0, 74, 110
2, 5278, Note_on_c, 0, 74, 0
2, 5280, Note_on_c, 0, 76, 110
2, 5326, Note_on_c, 0, 76, 0
2, 5328, Note_on_c, 0, 72, 110
2, 5374, Note_on_c, 0, 72, 0
2, 5376, Note_on_c, 0, 71, 110
2, 5422, Note_on_c, 0, 71, 0
2, 5424, Note_on_c, 0, 72, 110
2, 5470, Note_on_c, 0, 72, 0
2, 5472, Note_on_c, 0, 66, 110
2, 5504, Note_on_c, 0, 66, 0
2, 5568, Note_on_c, 0, 76, 110
2, 5806, Note_on_c, 0, 76, 0
2, 5808, Note_on_c, 0, 72, 110
2, 5854, Note_on_c, 0, 72, 0
2, 5856, Note_on_c, 0, 74, 110
2, 5902, Note_on_c, 0, 74, 0
2, 5904, Note_on_c, 0, 71, 110
2, 5950, Note_on_c, 0, 71, 0
2, 5952, Note_on_c, 0, 69, 110
2, 5998, Note_on_c, 0, 69, 0
2, 6000, Note_on_c, 0, 71, 110
2, 6046, Note_on_c, 0, 71, 0
2, 6048, Note_on_c, 0, 64, 110
2, 6094, Note_on_c, 0, 64, 0
2, 6096, Note_on_c, 0, 71, 110
2, 6142, Note_on_c, 0, 71, 0
2, 6144, Note_on_c, 0, 72, 110
2, 6190, Note_on_c, 0, 72, 0
2, 6192, Note_on_c, 0, 69, 110
2, 6238, Note_on_c, 0, 69, 0
2, 6240, Note_on_c, 0, 67, 110
2, 6286, Note_on_c, 0, 67, 0
2, 6288, Note_on_c, 0, 69, 110
2, 6334, Note_on_c, 0, 69, 0
2, 6336, Note_on_c, 0, 62, 110
2, 6382, Note_on_c, 0, 62, 0
2, 6384, Note_on_c, 0, 69, 110
2, 6430, Note_on_c, 0, 69, 0
2, 6432, Note_on_c, 0, 71, 110
2, 6478, Note_on_c, 0, 71, 0
2, 6480, Note_on_c, 0, 67, 110
2, 6526, Note_on_c, 0, 67, 0
2, 6528, Note_on_c, 0, 66, 110
2, 6574, Note_on_c, 0, 66, 0
2, 6576, Note_on_c, 0, 67, 110
2, 6622, Note_on_c, 0, 67, 0
2, 6624, Note_on_c, 0, 60, 110
2, 6670, Note_on_c, 0, 60, 0
2, 6672, Note_on_c, 0, 67, 110
2, 6718, Note_on_c, 0, 67, 0
2, 6720, Note_on_c, 0, 69, 110
2, 6766, Note_on_c, 0, 69, 0
2, 6768, Note_on_c, 0, 66, 110
2, 6814, Note_on_c, 0, 66, 0
2, 6816, Note_on_c, 0, 64, 110
2, 6862, Note_on_c, 0, 64, 0
2, 6864, Note_on_c, 0, 66, 110
2, 6910, Note_on_c, 0, 66, 0
2, 6912, Note_on_c, 0, 59, 110
2, 6958, Note_on_c, 0, 59, 0
2, 6960, Note_on_c, 0, 62, 110
2, 7006, Note_on_c, 0, 62, 0
2, 7008, Note_on_c, 0, 64, 110
2, 7054, Note_on_c, 0, 64, 0
2, 7056, Note_on_c, 0, 66, 110
2, 7102, Note_on_c, 0, 66, 0
2, 7104, Note_on_c, 0, 67, 110
2, 7150, Note_on_c, 0, 67, 0
2, 7152, Note_on_c, 0, 69, 110
2, 7198, Note_on_c, 0, 69, 0
2, 7200, Note_on_c, 0, 71, 110
2, 7246, Note_on_c, 0, 71, 0
2, 7248, Note_on_c, 0, 74, 110
2, 7294, Note_on_c, 0, 74, 0
2, 7296, Note_on_c, 0, 72, 110
2, 7342, Note_on_c, 0, 72, 0
2, 7344, Note_on_c, 0, 71, 110
2, 7390, Note_on_c, 0, 71, 0
2, 7392, Note_on_c, 0, 69, 110
2, 7438, Note_on_c, 0, 69, 0
2, 7440, Note_on_c, 0, 67, 110
2, 7486, Note_on_c, 0, 67, 0
2, 7488, Note_on_c, 0, 66, 110
2, 7534, Note_on_c, 0, 66, 0
2, 7536, Note_on_c, 0, 67, 110
2, 7582, Note_on_c, 0, 67, 0
2, 7584, Note_on_c, 0, 69, 110
2, 7630, Note_on_c, 0, 69, 0
2, 7632, Note_on_c, 0, 71, 110
2, 7678, Note_on_c, 0, 71, 0
2, 7680, Note_on_c, 0, 72, 110
2, 7726, Note_on_c, 0, 72, 0
2, 7728, Note_on_c, 0, 74, 110
2, 7774, Note_on_c, 0, 74, 0
2, 7776, Note_on_c, 0, 76, 110
2, 7822, Note_on_c, 0, 76, 0
2, 7824, Note_on_c, 0, 81, 110
2, 7870, Note_on_c, 0, 81, 0
2, 7872, Note_on_c, 0, 79, 110
2, 7918, Note_on_c, 0, 79, 0
2, 7920, Note_on_c, 0, 78, 110
2, 7966, Note_on_c, 0, 78, 0
2, 7968, Note_on_c, 0, 76, 110
2, 8014, Note_on_c, 0, 76, 0
2, 8016, Note_on_c, 0, 74, 110
2, 8062, Note_on_c, 0, 74, 0
2, 8064, Note_on_c, 0, 79, 110
2, 8110, Note_on_c, 0, 79, 0
2, 8112, Note_on_c, 0, 74, 110
2, 8158, Note_on_c, 0, 74, 0
2, 8160, Note_on_c, 0, 76, 110
2, 8206, Note_on_c, 0, 76, 0
2, 8208, Note_on_c, 0, 78, 110
2, 8254, Note_on_c, 0, 78, 0
2, 8256, Note_on_c, 0, 79, 110
2, 8302, Note_on_c, 0, 79, 0
2, 8304, Note_on_c, 0, 81, 110
2, 8350, Note_on_c, 0, 81, 0
2, 8352, Note_on_c, 0, 83, 110
2, 8398, Note_on_c, 0, 83, 0
2, 8400, Note_on_c, 0, 79, 110
2, 8446, Note_on_c, 0, 79, 0
2, 8448, Note_on_c, 0, 78, 110
2, 8494, Note_on_c, 0, 78, 0
2, 8496, Note_on_c, 0, 79, 110
2, 8542, Note_on_c, 0, 79, 0
2, 8544, Note_on_c, 0, 72, 110
2, 8590, Note_on_c, 0, 72, 0
2, 8592, Note_on_c, 0, 81, 110
2, 8638, Note_on_c, 0, 81, 0
2, 8640, Note_on_c, 0, 71, 110
2, 8686, Note_on_c, 0, 71, 0
2, 8688, Note_on_c, 0, 79, 110
2, 8734, Note_on_c, 0, 79, 0
2, 8736, Note_on_c, 0, 78, 110
2, 8782, Note_on_c, 0, 78, 0
2, 8784, Note_on_c, 0, 79, 110
2, 8830, Note_on_c, 0, 79, 0
2, 8832, Note_on_c, 0, 69, 110
2, 8878, Note_on_c, 0, 69, 0
2, 8880, Note_on_c, 0, 72, 110
2, 8926, Note_on_c, 0, 72, 0
2, 8928, Note_on_c, 0, 66, 110
2, 8974, Note_on_c, 0, 66, 0
2, 8976, Note_on_c, 0, 67, 110
2, 9022, Note_on_c, 0, 67, 0
2, 9024, Note_on_c, 0, 69, 110
2, 9070, Note_on_c, 0, 69, 0
2, 9072, Note_on_c, 0, 71, 110
2, 9118, Note_on_c, 0, 71, 0
2, 9120, Note_on_c, 0, 72, 110
2, 9310, Note_on_c, 0, 72, 0
2, 9312, Note_on_c, 0, 71, 110
2, 9344, Note_on_c, 0, 71, 0
2, 9504, Note_on_c, 0, 74, 110
2, 9550, Note_on_c, 0, 74, 0
2, 9552, Note_on_c, 0, 71, 110
2, 9598, Note_on_c, 0, 71, 0
2, 9600, Note_on_c, 0, 69, 110
2, 9646, Note_on_c, 0, 69, 0
2, 9648, Note_on_c, 0, 67, 110
2, 9694, Note_on_c, 0, 67, 0
2, 9696, Note_on_c, 0, 76, 110
2, 9728, Note_on_c, 0, 76, 0
2, 9792, Note_on_c, 0, 74, 110
2, 9824, Note_on_c, 0, 74, 0
2, 10080, Note_on_c, 0, 72, 110
2, 10126, Note_on_c, 0, 72, 0
2, 10128, Note_on_c, 0, 71, 110
2, 10174, Note_on_c, 0, 71, 0
2, 10176, Note_on_c, 0, 69, 110
2, 10222, Note_on_c, 0, 69, 0
2, 10224, Note_on_c, 0, 67, 110
2, 10270, Note_on_c, 0, 67, 0
2, 10272, Note_on_c, 0, 79, 110
2, 10304, Note_on_c, 0, 79, 0
2, 10368, Note_on_c, 0, 78, 110
2, 10400, Note_on_c, 0, 78, 0
2, 10656, Note_on_c, 0, 79, 110
2, 10702, Note_on_c, 0, 79, 0
2, 10704, Note_on_c, 0, 78, 110
2, 10750, Note_on_c, 0, 78, 0
2, 10752, Note_on_c, 0, 76, 110
2, 10798, Note_on_c, 0, 76, 0
2, 10800, Note_on_c, 0, 74, 110
2, 10846, Note_on_c, 0, 74, 0
2, 10848, Note_on_c, 0, 83, 110
2, 10894, Note_on_c, 0, 83, 0
2, 10896, Note_on_c, 0, 79, 110
2, 10942, Note_on_c, 0, 79, 0
2, 10944, Note_on_c, 0, 81, 110
2, 10990, Note_on_c, 0, 81, 0
2, 10992, Note_on_c, 0, 78, 110
2, 11038, Note_on_c, 0, 78, 0
2, 11040, Note_on_c, 0, 76, 110
2, 11086, Note_on_c, 0, 76, 0
2, 11088, Note_on_c, 0, 74, 110
2, 11134, Note_on_c, 0, 74, 0
2, 11136, Note_on_c, 0, 79, 110
2, 11182, Note_on_c, 0, 79, 0
2, 11184, Note_on_c, 0, 76, 110
2, 11230, Note_on_c, 0, 76, 0
2, 11232, Note_on_c, 0, 79, 110
2, 11278, Note_on_c, 0, 79, 0
2, 11280, Note_on_c, 0, 78, 110
2, 11326, Note_on_c, 0, 78, 0
2, 11328, Note_on_c, 0, 76, 110
2, 11374, Note_on_c, 0, 76, 0
2, 11376, Note_on_c, 0, 74, 110
2, 11422, Note_on_c, 0, 74, 0
2, 11424, Note_on_c, 0, 76, 110
2, 11470, Note_on_c, 0, 76, 0
2, 11472, Note_on_c, 0, 73, 110
2, 11518, Note_on_c, 0, 73, 0
2, 11520, Note_on_c, 0, 74, 110
2, 11854, Note_on_c, 0, 74, 0
2, 11856, Note_on_c, 0, 66, 110
2, 11902, Note_on_c, 0, 66, 0
2, 11904, Note_on_c, 0, 67, 110
2, 11950, Note_on_c, 0, 67, 0
2, 11952, Note_on_c, 0, 64, 110
2, 11998, Note_on_c, 0, 64, 0
2, 12000, Note_on_c, 0, 62, 110
2, 12046, Note_on_c, 0, 62, 0
2, 12048, Note_on_c, 0, 64, 110
2, 12094, Note_on_c, 0, 64, 0
2, 12096, Note_on_c, 0, 72, 110
2, 12430, Note_on_c, 0, 72, 0
2, 12432, Note_on_c, 0, 64, 110
2, 12478, Note_on_c, 0, 64, 0
2, 12480, Note_on_c, 0, 66, 110
2, 12526, Note_on_c, 0, 66, 0
2, 12528, Note_on_c, 0, 62, 110
2, 12574, Note_on_c, 0, 62, 0
2, 12576, Note_on_c, 0, 61, 110
2, 12622, Note_on_c, 0, 61, 0
2, 12624, Note_on_c, 0, 62, 110
2, 12670, Note_on_c, 0, 62, 0
2, 12672, Note_on_c, 0, 71, 110
2, 13006, Note_on_c, 0, 71, 0
2, 13008, Note_on_c, 0, 64, 110
2, 13054, Note_on_c, 0, 64, 0
2, 13056, Note_on_c, 0, 63, 110
2, 13102, Note_on_c, 0, 63, 0
2, 13104, Note_on_c, 0, 64, 110
2, 13150, Note_on_c, 0, 64, 0
2, 13152, Note_on_c, 0, 66, 110
2, 13198, Note_on_c, 0, 66, 0
2, 13200, Note_on_c, 0, 67, 110
2, 13246, Note_on_c, 0, 67, 0
2, 13248, Note_on_c, 0, 69, 110
2, 13280, Note_on_c, 0, 69, 0
2, 13344, Note_on_c, 0, 71, 110
2, 13376, Note_on_c, 0, 71, 0
2, 13440, Note_on_c, 0, 72, 110
2, 13582, Note_on_c, 0, 72, 0
2, 13584, Note_on_c, 0, 71, 110
2, 13630, Note_on_c, 0, 71, 0
2, 13632, Note_on_c, 0, 69, 110
2, 13678, Note_on_c, 0, 69, 0
2, 13680, Note_on_c, 0, 67, 110
2, 13726, Note_on_c, 0, 67, 0
2, 13728, Note_on_c, 0, 66, 110
2, 13774, Note_on_c, 0, 66, 0
2, 13776, Note_on_c, 0, 64, 110
2, 13822, Note_on_c, 0, 64, 0
2, 13824, Note_on_c, 0, 63, 110
2, 13870, Note_on_c, 0, 63, 0
2, 13872, Note_on_c, 0, 64, 110
2, 13918, Note_on_c, 0, 64, 0
2, 13920, Note_on_c, 0, 66, 110
2, 13966, Note_on_c, 0, 66, 0
2, 13968, Note_on_c, 0, 67, 110
2, 14014, Note_on_c, 0, 67, 0
2, 14016, Note_on_c, 0, 69, 110
2, 14158, Note_on_c, 0, 69, 0
2, 14160, Note_on_c, 0, 66, 110
2, 14206, Note_on_c, 0, 66, 0
2, 14208, Note_on_c, 0, 67, 110
2, 14254, Note_on_c, 0, 67, 0
2, 14256, Note_on_c, 0, 64, 110
2, 14302, Note_on_c, 0, 64, 0
2, 14304, Note_on_c, 0, 63, 110
2, 14350, Note_on_c, 0, 63, 0
2, 14352, Note_on_c, 0, 64, 110
2, 14398, Note_on_c, 0, 64, 0
2, 14400, Note_on_c, 0, 59, 110
2, 14446, Note_on_c, 0, 59, 0
2, 14448, Note_on_c, 0, 64, 110
2, 14494, Note_on_c, 0, 64, 0
2, 14496, Note_on_c, 0, 67, 110
2, 14542, Note_on_c, 0, 67, 0
2, 14544, Note_on_c, 0, 64, 110
2, 14590, Note_on_c, 0, 64, 0
2, 14592, Note_on_c, 0, 63, 110
2, 14638, Note_on_c, 0, 63, 0
2, 14640, Note_on_c, 0, 64, 110
2, 14686, Note_on_c, 0, 64, 0
2, 14688, Note_on_c, 0, 59, 110
2, 14734, Note_on_c, 0, 59, 0
2, 14736, Note_on_c, 0, 64, 110
2, 14782, Note_on_c, 0, 64, 0
2, 14784, Note_on_c, 0, 67, 110
2, 14830, Note_on_c, 0, 67, 0
2, 14832, Note_on_c, 0, 64, 110
2, 14878, Note_on_c, 0, 64, 0
2, 14880, Note_on_c, 0, 62, 110
2, 14926, Note_on_c, 0, 62, 0
2, 14928, Note_on_c, 0, 64, 110
2, 14974, Note_on_c, 0, 64, 0
2, 14976, Note_on_c, 0, 61, 110
2, 15022, Note_on_c, 0, 61, 0
2, 15024, Note_on_c, 0, 62, 110
2, 15070, Note_on_c, 0, 62, 0
2, 15072, Note_on_c, 0, 64, 110
2, 15118, Note_on_c, 0, 64, 0
2, 15120, Note_on_c, 0, 66, 110
2, 15166, Note_on_c, 0, 66, 0
2, 15168, Note_on_c, 0, 67, 110
2, 15310, Note_on_c, 0, 67, 0
2, 15312, Note_on_c, 0, 64, 110
2, 15358, Note_on_c, 0, 64, 0
2, 15360, Note_on_c, 0, 66, 110
2, 15406, Note_on_c, 0, 66, 0
2, 15408, Note_on_c, 0, 62, 110
2, 15454, Note_on_c, 0, 62, 0
2, 15456, Note_on_c, 0, 61, 110
2, 15502, Note_on_c, 0, 61, 0
2, 15504, Note_on_c, 0, 62, 110
2, 15550, Note_on_c, 0, 62, 0
2, 15552, Note_on_c, 0, 57, 110
2, 15598, Note_on_c, 0, 57, 0
2, 15600, Note_on_c, 0, 62, 110
2, 15646, Note_on_c, 0, 62, 0
2, 15648, Note_on_c, 0, 66, 110
2, 15694, Note_on_c, 0, 66, 0
2, 15696, Note_on_c, 0, 62, 110
2, 15742, Note_on_c, 0, 62, 0
2, 15744, Note_on_c, 0, 61, 110
2, 15790, Note_on_c, 0, 61, 0
2, 15792, Note_on_c, 0, 62, 110
2, 15838, Note_on_c, 0, 62, 0
2, 15840, Note_on_c, 0, 57, 110
2, 15886, Note_on_c, 0, 57, 0
2, 15888, Note_on_c, 0, 62, 110
2, 15934, Note_on_c, 0, 62, 0
2, 15936, Note_on_c, 0, 66, 110
2, 15982, Note_on_c, 0, 66, 0
2, 15984, Note_on_c, 0, 62, 110
2, 16030, Note_on_c, 0, 62, 0
2, 16032, Note_on_c, 0, 60, 110
2, 16078, Note_on_c, 0, 60, 0
2, 16080, Note_on_c, 0, 62, 110
2, 16126, Note_on_c, 0, 62, 0
2, 16128, Note_on_c, 0, 59, 110
2, 16174, Note_on_c, 0, 59, 0
2, 16176, Note_on_c, 0, 60, 110
2, 16222, Note_on_c, 0, 60, 0
2, 16224, Note_on_c, 0, 62, 110
2, 16270, Note_on_c, 0, 62, 0
2, 16272, Note_on_c, 0, 64, 110
2, 16318, Note_on_c, 0, 64, 0
2, 16320, Note_on_c, 0, 65, 110
2, 16462, Note_on_c, 0, 65, 0
2, 16464, Note_on_c, 0, 64, 110
2, 16510, Note_on_c, 0, 64, 0
2, 16512, Note_on_c, 0, 63, 110
2, 16558, Note_on_c, 0, 63, 0
2, 16560, Note_on_c, 0, 64, 110
2, 16606, Note_on_c, 0, 64, 0
2, 16608, Note_on_c, 0, 69, 110
2, 16654, Note_on_c, 0, 69, 0
2, 16656, Note_on_c, 0, 64, 110
2, 16702, Note_on_c, 0, 64, 0
2, 16704, Note_on_c, 0, 72, 110
2, 16750, Note_on_c, 0, 72, 0
2, 16752, Note_on_c, 0, 69, 110
2, 16798, Note_on_c, 0, 69, 0
2, 16800, Note_on_c, 0, 68, 110
2, 16846, Note_on_c, 0, 68, 0
2, 16848, Note_on_c, 0, 69, 110
2, 16894, Note_on_c, 0, 69, 0
2, 16896, Note_on_c, 0, 75, 110
2, 16942, Note_on_c, 0, 75, 0
2, 16944, Note_on_c, 0, 69, 110
2, 16990, Note_on_c, 0, 69, 0
2, 16992, Note_on_c, 0, 78, 110
2, 17024, Note_on_c, 0, 78, 0
2, 17088, Note_on_c, 0, 71, 110
2, 17120, Note_on_c, 0, 71, 0
2, 17184, Note_on_c, 0, 69, 110
2, 17216, Note_on_c, 0, 69, 0
2, 17280, Note_on_c, 0, 67, 110
2, 17326, Note_on_c, 0, 67, 0
2, 17328, Note_on_c, 0, 71, 110
2, 17374, Note_on_c, 0, 71, 0
2, 17376, Note_on_c, 0, 73, 110
2, 17422, Note_on_c, 0, 73, 0
2, 17424, Note_on_c, 0, 75, 110
2, 17470, Note_on_c, 0, 75, 0
2, 17472, Note_on_c, 0, 76, 110
2, 17518, Note_on_c, 0, 76, 0
2, 17520, Note_on_c, 0, 78, 110
2, 17566, Note_on_c, 0, 78, 0
2, 17568, Note_on_c, 0, 79, 110
2, 17614, Note_on_c, 0, 79, 0
2, 17616, Note_on_c, 0, 83, 110
2, 17662, Note_on_c, 0, 83, 0
2, 17664, Note_on_c, 0, 81, 110
2, 17710, Note_on_c, 0, 81, 0
2, 17712, Note_on_c, 0, 79, 110
2, 17758, Note_on_c, 0, 79, 0
2, 17760, Note_on_c, 0, 78, 110
2, 17806, Note_on_c, 0, 78, 0
2, 17808, Note_on_c, 0, 76, 110
2, 17854, Note_on_c, 0, 76, 0
2, 17856, Note_on_c, 0, 75, 110
2, 17902, Note_on_c, 0, 75, 0
2, 17904, Note_on_c, 0, 73, 110
2, 17950, Note_on_c, 0, 73, 0
2, 17952, Note_on_c, 0, 75, 110
2, 17998, Note_on_c, 0, 75, 0
2, 18000, Note_on_c, 0, 76, 110
2, 18046, Note_on_c, 0, 76, 0
2, 18048, Note_on_c, 0, 78, 110
2, 18094, Note_on_c, 0, 78, 0
2, 18096, Note_on_c, 0, 79, 110
2, 18142, Note_on_c, 0, 79, 0
2, 18144, Note_on_c, 0, 81, 110
2, 18190, Note_on_c, 0, 81, 0
2, 18192, Note_on_c, 0, 78, 110
2, 18238, Note_on_c, 0, 78, 0
2, 18240, Note_on_c, 0, 76, 110
2, 18286, Note_on_c, 0, 76, 0
2, 18288, Note_on_c, 0, 75, 110
2, 18334, Note_on_c, 0, 75, 0
2, 18336, Note_on_c, 0, 73, 110
2, 18382, Note_on_c, 0, 73, 0
2, 18384, Note_on_c, 0, 71, 110
2, 18430, Note_on_c, 0, 71, 0
2, 18432, Note_on_c, 0, 76, 110
2, 18478, Note_on_c, 0, 76, 0
2, 18480, Note_on_c, 0, 79, 110
2, 18526, Note_on_c, 0, 79, 0
2, 18528, Note_on_c, 0, 78, 110
2, 18574, Note_on_c, 0, 78, 0
2, 18576, Note_on_c, 0, 76, 110
2, 18622, Note_on_c, 0, 76, 0
2, 18624, Note_on_c, 0, 81, 110
2, 18670, Note_on_c, 0, 81, 0
2, 18672, Note_on_c, 0, 78, 110
2, 18718, Note_on_c, 0, 78, 0
2, 18720, Note_on_c, 0, 79, 110
2, 18766, Note_on_c, 0, 79, 0
2, 18768, Note_on_c, 0, 83, 110
2, 18814, Note_on_c, 0, 83, 0
2, 18816, Note_on_c, 0, 81, 110
2, 18862, Note_on_c, 0, 81, 0
2, 18864, Note_on_c, 0, 79, 110
2, 18910, Note_on_c, 0, 79, 0
2, 18912, Note_on_c, 0, 81, 110
2, 18958, Note_on_c, 0, 81, 0
2, 18960, Note_on_c, 0, 78, 110
2, 19006, Note_on_c, 0, 78, 0
2, 19008, Note_on_c, 0, 79, 110
2, 19054, Note_on_c, 0, 79, 0
2, 19056, Note_on_c, 0, 83, 110
2, 19102, Note_on_c, 0, 83, 0
2, 19104, Note_on_c, 0, 81, 110
2, 19150, Note_on_c, 0, 81, 0
2, 19152, Note_on_c, 0, 79, 110
2, 19198, Note_on_c, 0, 79, 0
2, 19200, Note_on_c, 0, 78, 110
2, 19246, Note_on_c, 0, 78, 0
2, 19248, Note_on_c, 0, 76, 110
2, 19294, Note_on_c, 0, 76, 0
2, 19296, Note_on_c, 0, 75, 110
2, 19342, Note_on_c, 0, 75, 0
2, 19344, Note_on_c, 0, 76, 110
2, 19390, Note_on_c, 0, 76, 0
2, 19392, Note_on_c, 0, 78, 110
2, 19438, Note_on_c, 0, 78, 0
2, 19440, Note_on_c, 0, 71, 110
2, 19486, Note_on_c, 0, 71, 0
2, 19488, Note_on_c, 0, 81, 110
2, 19678, Note_on_c, 0, 81, 0
2, 19680, Note_on_c, 0, 79, 110
2, 19712, Note_on_c, 0, 79, 0
2, 19872, Note_on_c, 0, 71, 110
2, 19918, Note_on_c, 0, 71, 0
2, 19920, Note_on_c, 0, 67, 110
2, 19966, Note_on_c, 0, 67, 0
2, 19968, Note_on_c, 0, 66, 110
2, 20014, Note_on_c, 0, 66, 0
2, 20016, Note_on_c, 0, 64, 110
2, 20062, Note_on_c, 0, 64, 0
2, 20064, Note_on_c, 0, 72, 110
2, 20096, Note_on_c, 0, 72, 0
2, 20160, Note_on_c, 0, 71, 110
2, 20192, Note_on_c, 0, 71, 0
2, 20448, Note_on_c, 0, 69, 110
2, 20494, Note_on_c, 0, 69, 0
2, 20496, Note_on_c, 0, 67, 110
2, 20542, Note_on_c, 0, 67, 0
2, 20544, Note_on_c, 0, 66, 110
2, 20590, Note_on_c, 0, 66, 0
2, 20592, Note_on_c, 0, 64, 110
2, 20638, Note_on_c, 0, 64, 0
2, 20640, Note_on_c, 0, 76, 110
2, 20672, Note_on_c, 0, 76, 0
2, 20736, Note_on_c, 0, 75, 110
2, 20768, Note_on_c, 0, 75, 0
2, 21024, Note_on_c, 0, 76, 110
2, 21070, Note_on_c, 0, 76, 0
2, 21072, Note_on_c, 0, 74, 110
2, 21118, Note_on_c, 0, 74, 0
2, 21120, Note_on_c, 0, 73, 110
2, 21166, Note_on_c, 0, 73, 0
2, 21168, Note_on_c, 0, 71, 110
2, 21214, Note_on_c, 0, 71, 0
2, 21216, Note_on_c, 0, 79, 110
2, 21262, Note_on_c, 0, 79, 0
2, 21264, Note_on_c, 0, 76, 110
2, 21310, Note_on_c, 0, 76, 0
2, 21312, Note_on_c, 0, 78, 110
2, 21358, Note_on_c, 0, 78, 0
2, 21360, Note_on_c, 0, 74, 110
2, 21406, Note_on_c, 0, 74, 0
2, 21408, Note_on_c, 0, 73, 110
2, 21454, Note_on_c, 0, 73, 0
2, 21456, Note_on_c, 0, 71, 110
2, 21502, Note_on_c, 0, 71, 0
2, 21504, Note_on_c, 0, 76, 110
2, 21550, Note_on_c, 0, 76, 0
2, 21552, Note_on_c, 0, 73, 110
2, 21598, Note_on_c, 0, 73, 0
2, 21600, Note_on_c, 0, 76, 110
2, 21646, Note_on_c, 0, 76, 0
2, 21648, Note_on_c, 0, 74, 110
2, 21694, Note_on_c, 0, 74, 0
2, 21696, Note_on_c, 0, 73, 110
2, 21742, Note_on_c, 0, 73, 0
2, 21744, Note_on_c, 0, 71, 110
2, 21790, Note_on_c, 0, 71, 0
2, 21792, Note_on_c, 0, 73, 110
2, 21838, Note_on_c, 0, 73, 0
2, 21840, Note_on_c, 0, 70, 110
2, 21886, Note_on_c, 0, 70, 0
2, 21888, Note_on_c, 0, 71, 110
2, 22222, Note_on_c, 0, 71, 0
2, 22224, Note_on_c, 0, 70, 110
2, 22270, Note_on_c, 0, 70, 0
2, 22272, Note_on_c, 0, 71, 110
2, 22318, Note_on_c, 0, 71, 0
2, 22320, Note_on_c, 0, 74, 110
2, 22366, Note_on_c, 0, 74, 0
2, 22368, Note_on_c, 0, 73, 110
2, 22414, Note_on_c, 0, 73, 0
2, 22416, Note_on_c, 0, 76, 110
2, 22462, Note_on_c, 0, 76, 0
2, 22464, Note_on_c, 0, 74, 110
2, 22496, Note_on_c, 0, 74, 0
2, 22560, Note_on_c, 0, 71, 110
2, 22592, Note_on_c, 0, 71, 0
2, 22656, Note_on_c, 0, 74, 110
2, 22678, Note_on_c, 0, 74, 0
2, 22680, Note_on_c, 0, 73, 110
2, 22702, Note_on_c, 0, 73, 0
2, 22704, Note_on_c, 0, 74, 110
2, 22726, Note_on_c, 0, 74, 0
2, 22728, Note_on_c, 0, 73, 110
2, 22750, Note_on_c, 0, 73, 0
2, 22752, Note_on_c, 0, 74, 110
2, 22784, Note_on_c, 0, 74, 0
2, 22848, Note_on_c, 0, 80, 110
2, 22880, Note_on_c, 0, 80, 0
2, 22944, Note_on_c, 0, 83, 110
2, 22976, Note_on_c, 0, 83, 0
2, 23040, Note_on_c, 0, 74, 110
2, 23374, Note_on_c, 0, 74, 0
2, 23376, Note_on_c, 0, 68, 110
2, 23422, Note_on_c, 0, 68, 0
2, 23424, Note_on_c, 0, 69, 110
2, 23470, Note_on_c, 0, 69, 0
2, 23472, Note_on_c, 0, 72, 110
2, 23518, Note_on_c, 0, 72, 0
2, 23520, Note_on_c, 0, 71, 110
2, 23566, Note_on_c, 0, 71, 0
2, 23568, Note_on_c, 0, 74, 110
2, 23614, Note_on_c, 0, 74, 0
2, 23616, Note_on_c, 0, 72, 110
2, 23648, Note_on_c, 0, 72, 0
2, 23712, Note_on_c, 0, 69, 110
2, 23744, Note_on_c, 0, 69, 0
2, 23808, Note_on_c, 0, 72, 110
2, 23830, Note_on_c, 0, 72, 0
2, 23832, Note_on_c, 0, 71, 110
2, 23854, Note_on_c, 0, 71, 0
2, 23856, Note_on_c, 0, 72, 110
2, 23878, Note_on_c, 0, 72, 0
2, 23880, Note_on_c, 0, 71, 110
2, 23902, Note_on_c, 0, 71, 0
2, 23904, Note_on_c, 0, 72, 110
2, 23936, Note_on_c, 0, 72, 0
2, 24000, Note_on_c, 0, 78, 110
2, 24032, Note_on_c, 0, 78, 0
2, 24096, Note_on_c, 0, 81, 110
2, 24128, Note_on_c, 0, 81, 0
2, 24192, Note_on_c, 0, 72, 110
2, 24526, Note_on_c, 0, 72, 0
2, 24528, Note_on_c, 0, 69, 110
2, 24574, Note_on_c, 0, 69, 0
2, 24576, Note_on_c, 0, 71, 110
2, 24622, Note_on_c, 0, 71, 0
2, 24624, Note_on_c, 0, 67, 110
2, 24670, Note_on_c, 0, 67, 0
2, 24672, Note_on_c, 0, 66, 110
2, 24718, Note_on_c, 0, 66, 0
2, 24720, Note_on_c, 0, 67, 110
2, 24766, Note_on_c, 0, 67, 0
2, 24768, Note_on_c, 0, 64, 110
2, 24814, Note_on_c, 0, 64, 0
2, 24816, Note_on_c, 0, 71, 110
2, 24862, Note_on_c, 0, 71, 0
2, 24864, Note_on_c, 0, 72, 110
2, 24910, Note_on_c, 0, 72, 0
2, 24912, Note_on_c, 0, 69, 110
2, 24958, Note_on_c, 0, 69, 0
2, 24960, Note_on_c, 0, 67, 110
2, 25006, Note_on_c, 0, 67, 0
2, 25008, Note_on_c, 0, 69, 110
2, 25054, Note_on_c, 0, 69, 0
2, 25056, Note_on_c, 0, 66, 110
2, 25102, Note_on_c, 0, 66, 0
2, 25104, Note_on_c, 0, 72, 110
2, 25150, Note_on_c, 0, 72, 0
2, 25152, Note_on_c, 0, 74, 110
2, 25198, Note_on_c, 0, 74, 0
2, 25200, Note_on_c, 0, 71, 110
2, 25246, Note_on_c, 0, 71, 0
2, 25248, Note_on_c, 0, 69, 110
2, 25294, Note_on_c, 0, 69, 0
2, 25296, Note_on_c, 0, 71, 110
2, 25342, Note_on_c, 0, 71, 0
2, 25344, Note_on_c, 0, 67, 110
2, 25390, Note_on_c, 0, 67, 0
2, 25392, Note_on_c, 0, 74, 110
2, 25438, Note_on_c, 0, 74, 0
2, 25440, Note_on_c, 0, 76, 110
2, 25486, Note_on_c, 0, 76, 0
2, 25488, Note_on_c, 0, 72, 110
2, 25534, Note_on_c, 0, 72, 0
2, 25536, Note_on_c, 0, 71, 110
2, 25582, Note_on_c, 0, 71, 0
2, 25584, Note_on_c, 0, 72, 110
2, 25630, Note_on_c, 0, 72, 0
2, 25632, Note_on_c, 0, 69, 110
2, 25678, Note_on_c, 0, 69, 0
2, 25680, Note_on_c, 0, 76, 110
2, 25726, Note_on_c, 0, 76, 0
2, 25728, Note_on_c, 0, 77, 110
2, 25774, Note_on_c, 0, 77, 0
2, 25776, Note_on_c, 0, 74, 110
2, 25822, Note_on_c, 0, 74, 0
2, 25824, Note_on_c, 0, 72, 110
2, 25870, Note_on_c, 0, 72, 0
2, 25872, Note_on_c, 0, 74, 110
2, 25918, Note_on_c, 0, 74, 0
2, 25920, Note_on_c, 0, 71, 110
2, 25952, Note_on_c, 0, 71, 0
2, 26016, Note_on_c, 0, 79, 110
2, 26254, Note_on_c, 0, 79, 0
2, 26256, Note_on_c, 0, 72, 110
2, 26302, Note_on_c, 0, 72, 0
2, 26304, Note_on_c, 0, 77, 110
2, 26350, Note_on_c, 0, 77, 0
2, 26352, Note_on_c, 0, 76, 110
2, 26398, Note_on_c, 0, 76, 0
2, 26400, Note_on_c, 0, 74, 110
2, 26446, Note_on_c, 0, 74, 0
2, 26448, Note_on_c, 0, 72, 110
2, 26494, Note_on_c, 0, 72, 0
2, 26496, Note_on_c, 0, 71, 110
2, 26542, Note_on_c, 0, 71, 0
2, 26544, Note_on_c, 0, 72, 110
2, 26590, Note_on_c, 0, 72, 0
2, 26592, Note_on_c, 0, 71, 110
2, 26638, Note_on_c, 0, 71, 0
2, 26640, Note_on_c, 0, 69, 110
2, 26686, Note_on_c, 0, 69, 0
2, 26688, Note_on_c, 0, 67, 110
2, 26734, Note_on_c, 0, 67, 0
2, 26736, Note_on_c, 0, 65, 110
2, 26782, Note_on_c, 0, 65, 0
2, 26784, Note_on_c, 0, 64, 110
2, 26830, Note_on_c, 0, 64, 0
2, 26832, Note_on_c, 0, 67, 110
2, 26878, Note_on_c, 0, 67, 0
2, 26880, Note_on_c, 0, 65, 110
2, 26926, Note_on_c, 0, 65, 0
2, 26928, Note_on_c, 0, 64, 110
2, 26974, Note_on_c, 0, 64, 0
2, 26976, Note_on_c, 0, 62, 110
2, 27022, Note_on_c, 0, 62, 0
2, 27024, Note_on_c, 0, 60, 110
2, 27070, Note_on_c, 0, 60, 0
2, 27072, Note_on_c, 0, 59, 110
2, 27118, Note_on_c, 0, 59, 0
2, 27120, Note_on_c, 0, 60, 110
2, 27166, Note_on_c, 0, 60, 0
2, 27168, Note_on_c, 0, 62, 110
2, 27214, Note_on_c, 0, 62, 0
2, 27216, Note_on_c, 0, 64, 110
2, 27262, Note_on_c, 0, 64, 0
2, 27264, Note_on_c, 0, 65, 110
2, 27310, Note_on_c, 0, 65, 0
2, 27312, Note_on_c, 0, 67, 110
2, 27358, Note_on_c, 0, 67, 0
2, 27360, Note_on_c, 0, 69, 110
2, 27406, Note_on_c, 0, 69, 0
2, 27408, Note_on_c, 0, 74, 110
2, 27454, Note_on_c, 0, 74, 0
2, 27456, Note_on_c, 0, 72, 110
2, 27502, Note_on_c, 0, 72, 0
2, 27504, Note_on_c, 0, 71, 110
2, 27550, Note_on_c, 0, 71, 0
2, 27552, Note_on_c, 0, 69, 110
2, 27598, Note_on_c, 0, 69, 0
2, 27600, Note_on_c, 0, 67, 110
2, 27646, Note_on_c, 0, 67, 0
2, 27648, Note_on_c, 0, 72, 110
2, 27694, Note_on_c, 0, 72, 0
2, 27696, Note_on_c, 0, 67, 110
2, 27742, Note_on_c, 0, 67, 0
2, 27744, Note_on_c, 0, 69, 110
2, 27790, Note_on_c, 0, 69, 0
2, 27792, Note_on_c, 0, 71, 110
2, 27838, Note_on_c, 0, 71, 0
2, 27840, Note_on_c, 0, 72, 110
2, 27886, Note_on_c, 0, 72, 0
2, 27888, Note_on_c, 0, 74, 110
2, 27934, Note_on_c, 0, 74, 0
2, 27936, Note_on_c, 0, 76, 110
2, 27982, Note_on_c, 0, 76, 0
2, 27984, Note_on_c, 0, 79, 110
2, 28030, Note_on_c, 0, 79, 0
2, 28032, Note_on_c, 0, 77, 110
2, 28078, Note_on_c, 0, 77, 0
2, 28080, Note_on_c, 0, 76, 110
2, 28126, Note_on_c, 0, 76, 0
2, 28128, Note_on_c, 0, 77, 110
2, 28174, Note_on_c, 0, 77, 0
2, 28176, Note_on_c, 0, 74, 110
2, 28222, Note_on_c, 0, 74, 0
2, 28224, Note_on_c, 0, 76, 110
2, 28270, Note_on_c, 0, 76, 0
2, 28272, Note_on_c, 0, 84, 110
2, 28318, Note_on_c, 0, 84, 0
2, 28320, Note_on_c, 0, 83, 110
2, 28366, Note_on_c, 0, 83, 0
2, 28368, Note_on_c, 0, 84, 110
2, 28414, Note_on_c, 0, 84, 0
2, 28416, Note_on_c, 0, 81, 110
2, 28462, Note_on_c, 0, 81, 0
2, 28464, Note_on_c, 0, 77, 110
2, 28510, Note_on_c, 0, 77, 0
2, 28512, Note_on_c, 0, 79, 110
2, 28558, Note_on_c, 0, 79, 0
2, 28560, Note_on_c, 0, 72, 110
2, 28606, Note_on_c, 0, 72, 0
2, 28608, Note_on_c, 0, 71, 110
2, 28654, Note_on_c, 0, 71, 0
2, 28656, Note_on_c, 0, 72, 110
2, 28702, Note_on_c, 0, 72, 0
2, 28704, Note_on_c, 0, 77, 110
2, 28846, Note_on_c, 0, 78, 0
2, 28846, Note_on_c, 0, 78, 0
2, 28846, Note_on_c, 0, 78, 0
2, 28846, Note_on_c, 0, 78, 0
2, 28846, Note_on_c, 0, 78, 0
2, 28846, Note_on_c, 0, 78, 0
2, 28846, Note_on_c, 0, 78, 0
2, 28846, Note_on_c, 0, 78, 0
2, 28848, Note_on_c, 0, 74, 110
2, 28894, Note_on_c, 0, 74, 0
2, 28896, Note_on_c, 0, 76, 110
2, 28942, Note_on_c, 0, 76, 0
2, 28944, Note_on_c, 0, 72, 110
2, 28990, Note_on_c, 0, 72, 0
2, 28992, Note_on_c, 0, 71, 110
2, 29038, Note_on_c, 0, 71, 0
2, 29040, Note_on_c, 0, 72, 110
2, 29086, Note_on_c, 0, 72, 0
2, 29088, Note_on_c, 0, 78, 110
2, 29120, Note_on_c, 0, 78, 0
2, 29184, Note_on_c, 0, 81, 110
2, 29216, Note_on_c, 0, 81, 0
2, 29280, Note_on_c, 0, 84, 110
2, 29422, Note_on_c, 0, 84, 0
2, 29424, Note_on_c, 0, 72, 110
2, 29470, Note_on_c, 0, 72, 0
2, 29472, Note_on_c, 0, 74, 110
2, 29518, Note_on_c, 0, 74, 0
2, 29520, Note_on_c, 0, 71, 110
2, 29566, Note_on_c, 0, 71, 0
2, 29568, Note_on_c, 0, 69, 110
2, 29614, Note_on_c, 0, 69, 0
2, 29616, Note_on_c, 0, 71, 110
2, 29662, Note_on_c, 0, 71, 0
2, 29664, Note_on_c, 0, 64, 110
2, 29696, Note_on_c, 0, 64, 0
2, 29760, Note_on_c, 0, 74, 110
2, 29998, Note_on_c, 0, 74, 0
2, 30000, Note_on_c, 0, 71, 110
2, 30046, Note_on_c, 0, 71, 0
2, 30048, Note_on_c, 0, 72, 110
2, 30094, Note_on_c, 0, 72, 0
2, 30096, Note_on_c, 0, 69, 110
2, 30142, Note_on_c, 0, 69, 0
2, 30144, Note_on_c, 0, 68, 110
2, 30190, Note_on_c, 0, 68, 0
2, 30192, Note_on_c, 0, 69, 110
2, 30238, Note_on_c, 0, 69, 0
2, 30240, Note_on_c, 0, 76, 110
2, 30286, Note_on_c, 0, 76, 0
2, 30288, Note_on_c, 0, 71, 110
2, 30334, Note_on_c, 0, 71, 0
2, 30336, Note_on_c, 0, 72, 110
2, 30382, Note_on_c, 0, 72, 0
2, 30384, Note_on_c, 0, 69, 110
2, 30430, Note_on_c, 0, 69, 0
2, 30432, Note_on_c, 0, 68, 110
2, 30478, Note_on_c, 0, 68, 0
2, 30480, Note_on_c, 0, 69, 110
2, 30526, Note_on_c, 0, 69, 0
2, 30528, Note_on_c, 0, 78, 110
2, 30574, Note_on_c, 0, 78, 0
2, 30576, Note_on_c, 0, 72, 110
2, 30622, Note_on_c, 0, 72, 0
2, 30624, Note_on_c, 0, 74, 110
2, 30670, Note_on_c, 0, 74, 0
2, 30672, Note_on_c, 0, 71, 110
2, 30718, Note_on_c, 0, 71, 0
2, 30720, Note_on_c, 0, 69, 110
2, 30766, Note_on_c, 0, 69, 0
2, 30768, Note_on_c, 0, 71, 110
2, 30814, Note_on_c, 0, 71, 0
2, 30816, Note_on_c, 0, 79, 110
2, 30862, Note_on_c, 0, 79, 0
2, 30864, Note_on_c, 0, 74, 110
2, 30910, Note_on_c, 0, 74, 0
2, 30912, Note_on_c, 0, 76, 110
2, 30958, Note_on_c, 0, 76, 0
2, 30960, Note_on_c, 0, 72, 110
2, 31006, Note_on_c, 0, 72, 0
2, 31008, Note_on_c, 0, 71, 110
2, 31054, Note_on_c, 0, 71, 0
2, 31056, Note_on_c, 0, 72, 110
2, 31102, Note_on_c, 0, 72, 0
2, 31104, Note_on_c, 0, 81, 110
2, 31150, Note_on_c, 0, 81, 0
2, 31152, Note_on_c, 0, 79, 110
2, 31198, Note_on_c, 0, 79, 0
2, 31200, Note_on_c, 0, 78, 110
2, 31246, Note_on_c, 0, 78, 0
2, 31248, Note_on_c, 0, 76, 110
2, 31294, Note_on_c, 0, 76, 0
2, 31296, Note_on_c, 0, 74, 110
2, 31342, Note_on_c, 0, 74, 0
2, 31344, Note_on_c, 0, 72, 110
2, 31390, Note_on_c, 0, 72, 0
2, 31392, Note_on_c, 0, 71, 110
2, 31438, Note_on_c, 0, 71, 0
2, 31440, Note_on_c, 0, 74, 110
2, 31486, Note_on_c, 0, 74, 0
2, 31488, Note_on_c, 0, 72, 110
2, 31534, Note_on_c, 0, 72, 0
2, 31536, Note_on_c, 0, 71, 110
2, 31582, Note_on_c, 0, 71, 0
2, 31584, Note_on_c, 0, 69, 110
2, 31630, Note_on_c, 0, 69, 0
2, 31632, Note_on_c, 0, 67, 110
2, 31678, Note_on_c, 0, 67, 0
2, 31680, Note_on_c, 0, 66, 110
2, 31726, Note_on_c, 0, 66, 0
2, 31728, Note_on_c, 0, 76, 110
2, 31774, Note_on_c, 0, 76, 0
2, 31776, Note_on_c, 0, 74, 110
2, 31822, Note_on_c, 0, 74, 0
2, 31824, Note_on_c, 0, 72, 110
2, 31870, Note_on_c, 0, 72, 0
2, 31872, Note_on_c, 0, 71, 110
2, 31918, Note_on_c, 0, 71, 0
2, 31920, Note_on_c, 0, 69, 110
2, 31966, Note_on_c, 0, 69, 0
2, 31968, Note_on_c, 0, 67, 110
2, 32014, Note_on_c, 0, 67, 0
2, 32016, Note_on_c, 0, 66, 110
2, 32062, Note_on_c, 0, 66, 0
2, 32064, Note_on_c, 0, 64, 110
2, 32110, Note_on_c, 0, 64, 0
2, 32112, Note_on_c, 0, 62, 110
2, 32158, Note_on_c, 0, 62, 0
2, 32160, Note_on_c, 0, 71, 110
2, 32192, Note_on_c, 0, 71, 0
2, 32256, Note_on_c, 0, 69, 110
2, 32288, Note_on_c, 0, 69, 0
2, 32592, Note_on_c, 0, 57, 110
2, 32638, Note_on_c, 0, 57, 0
2, 32640, Note_on_c, 0, 59, 110
2, 32686, Note_on_c, 0, 59, 0
2, 32688, Note_on_c, 0, 60, 110
2, 32734, Note_on_c, 0, 60, 0
2, 32736, Note_on_c, 0, 62, 110
2, 32782, Note_on_c, 0, 62, 0
2, 32784, Note_on_c, 0, 64, 110
2, 32830, Note_on_c, 0, 64, 0
2, 32832, Note_on_c, 0, 66, 110
2, 32878, Note_on_c, 0, 66, 0
2, 32880, Note_on_c, 0, 67, 110
2, 32926, Note_on_c, 0, 67, 0
2, 32928, Note_on_c, 0, 69, 110
2, 32974, Note_on_c, 0, 69, 0
2, 32976, Note_on_c, 0, 71, 110
2, 33022, Note_on_c, 0, 71, 0
2, 33024, Note_on_c, 0, 72, 110
2, 33070, Note_on_c, 0, 72, 0
2, 33072, Note_on_c, 0, 74, 110
2, 33118, Note_on_c, 0, 74, 0
2, 33120, Note_on_c, 0, 67, 110
2, 33166, Note_on_c, 0, 67, 0
2, 33168, Note_on_c, 0, 66, 110
2, 33214, Note_on_c, 0, 66, 0
2, 33216, Note_on_c, 0, 64, 110
2, 33262, Note_on_c, 0, 64, 0
2, 33264, Note_on_c, 0, 62, 110
2, 33310, Note_on_c, 0, 62, 0
2, 33312, Note_on_c, 0, 72, 110
2, 33344, Note_on_c, 0, 72, 0
2, 33408, Note_on_c, 0, 71, 110
2, 33440, Note_on_c, 0, 71, 0
2, 34272, Note_on_c, 0, 74, 110
2, 34318, Note_on_c, 0, 74, 0
2, 34320, Note_on_c, 0, 71, 110
2, 34366, Note_on_c, 0, 71, 0
2, 34368, Note_on_c, 0, 69, 110
2, 34414, Note_on_c, 0, 69, 0
2, 34416, Note_on_c, 0, 67, 110
2, 34462, Note_on_c, 0, 67, 0
2, 34464, Note_on_c, 0, 76, 110
2, 34510, Note_on_c, 0, 76, 0
2, 34512, Note_on_c, 0, 72, 110
2, 34558, Note_on_c, 0, 72, 0
2, 34560, Note_on_c, 0, 74, 110
2, 34606, Note_on_c, 0, 74, 0
2, 34608, Note_on_c, 0, 71, 110
2, 34654, Note_on_c, 0, 71, 0
2, 34656, Note_on_c, 0, 69, 110
2, 34702, Note_on_c, 0, 69, 0
2, 34704, Note_on_c, 0, 67, 110
2, 34750, Note_on_c, 0, 67, 0
2, 34752, Note_on_c, 0, 72, 110
2, 34798, Note_on_c, 0, 72, 0
2, 34800, Note_on_c, 0, 69, 110
2, 34846, Note_on_c, 0, 69, 0
2, 34848, Note_on_c, 0, 71, 110
2, 34894, Note_on_c, 0, 71, 0
2, 34896, Note_on_c, 0, 74, 110
2, 34942, Note_on_c, 0, 74, 0
2, 34944, Note_on_c, 0, 72, 110
2, 34990, Note_on_c, 0, 72, 0
2, 34992, Note_on_c, 0, 71, 110
2, 35038, Note_on_c, 0, 71, 0
2, 35040, Note_on_c, 0, 72, 110
2, 35086, Note_on_c, 0, 72, 0
2, 35088, Note_on_c, 0, 69, 110
2, 35134, Note_on_c, 0, 69, 0
2, 35136, Note_on_c, 0, 71, 110
2, 35182, Note_on_c, 0, 71, 0
2, 35184, Note_on_c, 0, 67, 110
2, 35230, Note_on_c, 0, 67, 0
2, 35232, Note_on_c, 0, 66, 110
2, 35278, Note_on_c, 0, 66, 0
2, 35280, Note_on_c, 0, 64, 110
2, 35326, Note_on_c, 0, 64, 0
2, 35328, Note_on_c, 0, 69, 110
2, 35374, Note_on_c, 0, 69, 0
2, 35376, Note_on_c, 0, 66, 110
2, 35422, Note_on_c, 0, 66, 0
2, 35424, Note_on_c, 0, 67, 110
2, 35470, Note_on_c, 0, 67, 0
2, 35472, Note_on_c, 0, 71, 110
2, 35518, Note_on_c, 0, 71, 0
2, 35520, Note_on_c, 0, 69, 110
2, 35566, Note_on_c, 0, 69, 0
2, 35568, Note_on_c, 0, 67, 110
2, 35614, Note_on_c, 0, 67, 0
2, 35616, Note_on_c, 0, 69, 110
2, 35662, Note_on_c, 0, 69, 0
2, 35664, Note_on_c, 0, 66, 110
2, 35710, Note_on_c, 0, 66, 0
2, 35712, Note_on_c, 0, 67, 110
2, 35758, Note_on_c, 0, 67, 0
2, 35760, Note_on_c, 0, 64, 110
2, 35806, Note_on_c, 0, 64, 0
2, 35808, Note_on_c, 0, 62, 110
2, 35854, Note_on_c, 0, 62, 0
2, 35856, Note_on_c, 0, 60, 110
2, 35902, Note_on_c, 0, 60, 0
2, 35904, Note_on_c, 0, 65, 110
2, 35950, Note_on_c, 0, 65, 0
2, 35952, Note_on_c, 0, 62, 110
2, 35998, Note_on_c, 0, 62, 0
2, 36000, Note_on_c, 0, 64, 110
2, 36046, Note_on_c, 0, 64, 0
2, 36048, Note_on_c, 0, 67, 110
2, 36094, Note_on_c, 0, 67, 0
2, 36096, Note_on_c, 0, 65, 110
2, 36142, Note_on_c, 0, 65, 0
2, 36144, Note_on_c, 0, 64, 110
2, 36190, Note_on_c, 0, 64, 0
2, 36192, Note_on_c, 0, 65, 110
2, 36238, Note_on_c, 0, 65, 0
2, 36240, Note_on_c, 0, 62, 110
2, 36286, Note_on_c, 0, 62, 0
2, 36288, Note_on_c, 0, 64, 110
2, 36334, Note_on_c, 0, 64, 0
2, 36336, Note_on_c, 0, 65, 110
2, 36382, Note_on_c, 0, 65, 0
2, 36384, Note_on_c, 0, 67, 110
2, 36430, Note_on_c, 0, 67, 0
2, 36432, Note_on_c, 0, 69, 110
2, 36478, Note_on_c, 0, 69, 0
2, 36480, Note_on_c, 0, 62, 110
2, 36526, Note_on_c, 0, 62, 0
2, 36528, Note_on_c, 0, 65, 110
2, 36574, Note_on_c, 0, 65, 0
2, 36576, Note_on_c, 0, 64, 110
2, 36622, Note_on_c, 0, 64, 0
2, 36624, Note_on_c, 0, 69, 110
2, 36670, Note_on_c, 0, 69, 0
2, 36672, Note_on_c, 0, 71, 110
2, 36718, Note_on_c, 0, 71, 0
2, 36720, Note_on_c, 0, 72, 110
2, 36766, Note_on_c, 0, 72, 0
2, 36768, Note_on_c, 0, 64, 110
2, 36814, Note_on_c, 0, 64, 0
2, 36816, Note_on_c, 0, 67, 110
2, 36862, Note_on_c, 0, 67, 0
2, 36864, Note_on_c, 0, 66, 110
2, 36910, Note_on_c, 0, 66, 0
2, 36912, Note_on_c, 0, 67, 110
2, 36958, Note_on_c, 0, 67, 0
2, 36960, Note_on_c, 0, 69, 110
2, 37006, Note_on_c, 0, 69, 0
2, 37008, Note_on_c, 0, 71, 110
2, 37054, Note_on_c, 0, 71, 0
2, 37056, Note_on_c, 0, 64, 110
2, 37102, Note_on_c, 0, 64, 0
2, 37104, Note_on_c, 0, 67, 110
2, 37150, Note_on_c, 0, 67, 0
2, 37152, Note_on_c, 0, 66, 110
2, 37198, Note_on_c, 0, 66, 0
2, 37200, Note_on_c, 0, 71, 110
2, 37246, Note_on_c, 0, 71, 0
2, 37248, Note_on_c, 0, 72, 110
2, 37294, Note_on_c, 0, 72, 0
2, 37296, Note_on_c, 0, 74, 110
2, 37342, Note_on_c, 0, 74, 0
2, 37344, Note_on_c, 0, 66, 110
2, 37390, Note_on_c, 0, 66, 0
2, 37392, Note_on_c, 0, 69, 110
2, 37438, Note_on_c, 0, 69, 0
2, 37440, Note_on_c, 0, 67, 110
2, 37486, Note_on_c, 0, 67, 0
2, 37488, Note_on_c, 0, 69, 110
2, 37534, Note_on_c, 0, 69, 0
2, 37536, Note_on_c, 0, 71, 110
2, 37582, Note_on_c, 0, 71, 0
2, 37584, Note_on_c, 0, 72, 110
2, 37630, Note_on_c, 0, 72, 0
2, 37632, Note_on_c, 0, 66, 110
2, 37678, Note_on_c, 0, 66, 0
2, 37680, Note_on_c, 0, 69, 110
2, 37726, Note_on_c, 0, 69, 0
2, 37728, Note_on_c, 0, 67, 110
2, 37774, Note_on_c, 0, 67, 0
2, 37776, Note_on_c, 0, 72, 110
2, 37822, Note_on_c, 0, 72, 0
2, 37824, Note_on_c, 0, 74, 110
2, 37870, Note_on_c, 0, 74, 0
2, 37872, Note_on_c, 0, 76, 110
2, 37918, Note_on_c, 0, 76, 0
2, 37920, Note_on_c, 0, 67, 110
2, 37966, Note_on_c, 0, 67, 0
2, 37968, Note_on_c, 0, 71, 110
2, 38014, Note_on_c, 0, 71, 0
2, 38016, Note_on_c, 0, 69, 110
2, 38062, Note_on_c, 0, 69, 0
2, 38064, Note_on_c, 0, 67, 110
2, 38110, Note_on_c, 0, 67, 0
2, 38112, Note_on_c, 0, 69, 110
2, 38158, Note_on_c, 0, 69, 0
2, 38160, Note_on_c, 0, 71, 110
2, 38206, Note_on_c, 0, 71, 0
2, 38208, Note_on_c, 0, 72, 110
2, 38254, Note_on_c, 0, 72, 0
2, 38256, Note_on_c, 0, 74, 110
2, 38302, Note_on_c, 0, 74, 0
2, 38304, Note_on_c, 0, 72, 110
2, 38350, Note_on_c, 0, 72, 0
2, 38352, Note_on_c, 0, 71, 110
2, 38398, Note_on_c, 0, 71, 0
2, 38400, Note_on_c, 0, 69, 110
2, 38446, Note_on_c, 0, 69, 0
2, 38448, Note_on_c, 0, 67, 110
2, 38494, Note_on_c, 0, 67, 0
2, 38496, Note_on_c, 0, 77, 110
2, 38528, Note_on_c, 0, 77, 0
2, 38592, Note_on_c, 0, 76, 110
2, 38624, Note_on_c, 0, 76, 0
2, 38880, Note_on_c, 0, 74, 110
2, 38926, Note_on_c, 0, 74, 0
2, 38928, Note_on_c, 0, 73, 110
2, 38974, Note_on_c, 0, 73, 0
2, 38976, Note_on_c, 0, 71, 110
2, 39022, Note_on_c, 0, 71, 0
2, 39024, Note_on_c, 0, 69, 110
2, 39070, Note_on_c, 0, 69, 0
2, 39072, Note_on_c, 0, 79, 110
2, 39104, Note_on_c, 0, 79, 0
2, 39168, Note_on_c, 0, 78, 110
2, 39200, Note_on_c, 0, 78, 0
2, 39456, Note_on_c, 0, 81, 110
2, 39502, Note_on_c, 0, 81, 0
2, 39504, Note_on_c, 0, 78, 110
2, 39550, Note_on_c, 0, 78, 0
2, 39552, Note_on_c, 0, 76, 110
2, 39598, Note_on_c, 0, 76, 0
2, 39600, Note_on_c, 0, 74, 110
2, 39646, Note_on_c, 0, 74, 0
2, 39648, Note_on_c, 0, 84, 110
2, 39680, Note_on_c, 0, 84, 0
2, 39744, Note_on_c, 0, 83, 110
2, 39790, Note_on_c, 0, 83, 0
2, 39792, Note_on_c, 0, 79, 110
2, 39838, Note_on_c, 0, 79, 0
2, 39840, Note_on_c, 0, 81, 110
2, 39886, Note_on_c, 0, 81, 0
2, 39888, Note_on_c, 0, 83, 110
2, 39934, Note_on_c, 0, 83, 0
2, 39936, Note_on_c, 0, 76, 110
2, 39982, Note_on_c, 0, 76, 0
2, 39984, Note_on_c, 0, 79, 110
2, 40030, Note_on_c, 0, 79, 0
2, 40032, Note_on_c, 0, 72, 110
2, 40078, Note_on_c, 0, 72, 0
2, 40080, Note_on_c, 0, 78, 110
2, 40126, Note_on_c, 0, 78, 0
2, 40128, Note_on_c, 0, 79, 110
2, 40174, Note_on_c, 0, 79, 0
2, 40176, Note_on_c, 0, 81, 110
2, 40222, Note_on_c, 0, 81, 0
2, 40224, Note_on_c, 0, 74, 110
2, 40270, Note_on_c, 0, 74, 0
2, 40272, Note_on_c, 0, 78, 110
2, 40318, Note_on_c, 0, 78, 0
2, 40320, Note_on_c, 0, 71, 110
2, 40366, Note_on_c, 0, 71, 0
2, 40368, Note_on_c, 0, 74, 110
2, 40414, Note_on_c, 0, 74, 0
2, 40416, Note_on_c, 0, 76, 110
2, 40462, Note_on_c, 0, 76, 0
2, 40464, Note_on_c, 0, 77, 110
2, 40510, Note_on_c, 0, 77, 0
2, 40512, Note_on_c, 0, 71, 110
2, 40558, Note_on_c, 0, 71, 0
2, 40560, Note_on_c, 0, 74, 110
2, 40606, Note_on_c, 0, 74, 0
2, 40608, Note_on_c, 0, 67, 110
2, 40654, Note_on_c, 0, 67, 0
2, 40656, Note_on_c, 0, 71, 110
2, 40702, Note_on_c, 0, 71, 0
2, 40704, Note_on_c, 0, 72, 110
2, 40750, Note_on_c, 0, 72, 0
2, 40752, Note_on_c, 0, 74, 110
2, 40798, Note_on_c, 0, 74, 0
2, 40800, Note_on_c, 0, 67, 110
2, 40846, Note_on_c, 0, 67, 0
2, 40848, Note_on_c, 0, 71, 110
2, 40894, Note_on_c, 0, 71, 0
2, 40896, Note_on_c, 0, 62, 110
2, 40942, Note_on_c, 0, 62, 0
2, 40944, Note_on_c, 0, 67, 110
2, 40990, Note_on_c, 0, 67, 0
2, 40992, Note_on_c, 0, 69, 110
2, 41038, Note_on_c, 0, 69, 0
2, 41040, Note_on_c, 0, 71, 110
2, 41086, Note_on_c, 0, 71, 0
2, 41088, Note_on_c, 0, 62, 110
2, 41134, Note_on_c, 0, 62, 0
2, 41136, Note_on_c, 0, 67, 110
2, 41182, Note_on_c, 0, 67, 0
2, 41184, Note_on_c, 0, 59, 110
2, 41230, Note_on_c, 0, 59, 0
2, 41232, Note_on_c, 0, 62, 110
2, 41278, Note_on_c, 0, 62, 0
2, 41280, Note_on_c, 0, 64, 110
2, 41326, Note_on_c, 0, 64, 0
2, 41328, Note_on_c, 0, 65, 110
2, 41374, Note_on_c, 0, 65, 0
2, 41376, Note_on_c, 0, 59, 110
2, 41422, Note_on_c, 0, 59, 0
2, 41424, Note_on_c, 0, 62, 110
2, 41470, Note_on_c, 0, 62, 0
2, 41472, Note_on_c, 0, 55, 110
2, 41566, Note_on_c, 0, 55, 0
2, 41760, Note_on_c, 0, 64, 110
2, 41806, Note_on_c, 0, 64, 0
2, 41808, Note_on_c, 0, 62, 110
2, 41854, Note_on_c, 0, 62, 0
2, 41856, Note_on_c, 0, 60, 110
2, 41902, Note_on_c, 0, 60, 0
2, 41904, Note_on_c, 0, 59, 110
2, 41950, Note_on_c, 0, 59, 0
2, 41952, Note_on_c, 0, 65, 110
2, 41984, Note_on_c, 0, 65, 0
2, 42048, Note_on_c, 0, 64, 110
2, 42080, Note_on_c, 0, 64, 0
2, 42336, Note_on_c, 0, 67, 110
2, 42382, Note_on_c, 0, 67, 0
2, 42384, Note_on_c, 0, 66, 110
2, 42430, Note_on_c, 0, 66, 0
2, 42432, Note_on_c, 0, 64, 110
2, 42478, Note_on_c, 0, 64, 0
2, 42480, Note_on_c, 0, 62, 110
2, 42526, Note_on_c, 0, 62, 0
2, 42528, Note_on_c, 0, 72, 110
2, 42560, Note_on_c, 0, 72, 0
2, 42624, Note_on_c, 0, 72, 110
2, 42634, Note_on_c, 0, 72, 0
2, 42636, Note_on_c, 0, 71, 110
2, 42646, Note_on_c, 0, 71, 0
2, 42648, Note_on_c, 0, 72, 110
2, 42718, Note_on_c, 0, 72, 0
2, 42912, Note_on_c, 0, 72, 110
2, 42958, Note_on_c, 0, 72, 0
2, 42960, Note_on_c, 0, 71, 110
2, 43006, Note_on_c, 0, 71, 0
2, 43008, Note_on_c, 0, 69, 110
2, 43054, Note_on_c, 0, 69, 0
2, 43056, Note_on_c, 0, 67, 110
2, 43102, Note_on_c, 0, 67, 0
2, 43104, Note_on_c, 0, 76, 110
2, 43150, Note_on_c, 0, 76, 0
2, 43152, Note_on_c, 0, 72, 110
2, 43198, Note_on_c, 0, 72, 0
2, 43200, Note_on_c, 0, 74, 110
2, 43246, Note_on_c, 0, 74, 0
2, 43248, Note_on_c, 0, 71, 110
2, 43294, Note_on_c, 0, 71, 0
2, 43296, Note_on_c, 0, 69, 110
2, 43342, Note_on_c, 0, 69, 0
2, 43344, Note_on_c, 0, 67, 110
2, 43390, Note_on_c, 0, 67, 0
2, 43392, Note_on_c, 0, 72, 110
2, 43438, Note_on_c, 0, 72, 0
2, 43440, Note_on_c, 0, 69, 110
2, 43486, Note_on_c, 0, 69, 0
2, 43488, Note_on_c, 0, 72, 110
2, 43534, Note_on_c, 0, 72, 0
2, 43536, Note_on_c, 0, 71, 110
2, 43582, Note_on_c, 0, 71, 0
2, 43584, Note_on_c, 0, 69, 110
2, 43630, Note_on_c, 0, 69, 0
2, 43632, Note_on_c, 0, 67, 110
2, 43678, Note_on_c, 0, 67, 0
2, 43680, Note_on_c, 0, 69, 110
2, 43726, Note_on_c, 0, 69, 0
2, 43728, Note_on_c, 0, 66, 110
2, 43774, Note_on_c, 0, 66, 0
2, 43776, Note_on_c, 0, 67, 110
2, 44880, Note_on_c, 0, 67, 0
2, 44880, Note_on_c, 0, 77, 0
2, 44880, End_track
3, 0, Start_track
3, 0, MIDI_port, 0
3, 0, Title_t, "L.H."
3, 0, Program_c, 1, 0
3, 0, Control_c, 1, 7, 127
3, 0, Control_c, 1, 10, 64
3, 0, Note_on_c, 1, 43, 110
3, 32, Note_on_c, 1, 43, 0
3, 96, Note_on_c, 1, 47, 110
3, 128, Note_on_c, 1, 47, 0
3, 192, Note_on_c, 1, 50, 110
3, 224, Note_on_c, 1, 50, 0
3, 288, Note_on_c, 1, 55, 110
3, 320, Note_on_c, 1, 55, 0
3, 384, Note_on_c, 1, 59, 110
3, 416, Note_on_c, 1, 59, 0
3, 480, Note_on_c, 1, 55, 110
3, 512, Note_on_c, 1, 55, 0
3, 576, Note_on_c, 1, 50, 110
3, 608, Note_on_c, 1, 50, 0
3, 672, Note_on_c, 1, 54, 110
3, 704, Note_on_c, 1, 54, 0
3, 768, Note_on_c, 1, 57, 110
3, 800, Note_on_c, 1, 57, 0
3, 864, Note_on_c, 1, 62, 110
3, 896, Note_on_c, 1, 62, 0
3, 960, Note_on_c, 1, 54, 110
3, 992, Note_on_c, 1, 54, 0
3, 1056, Note_on_c, 1, 50, 110
3, 1088, Note_on_c, 1, 50, 0
3, 1152, Note_on_c, 1, 55, 110
3, 1184, Note_on_c, 1, 55, 0
3, 1248, Note_on_c, 1, 50, 110
3, 1280, Note_on_c, 1, 50, 0
3, 1344, Note_on_c, 1, 47, 110
3, 1376, Note_on_c, 1, 47, 0
3, 1440, Note_on_c, 1, 43, 110
3, 1472, Note_on_c, 1, 43, 0
3, 1536, Note_on_c, 1, 47, 110
3, 1568, Note_on_c, 1, 47, 0
3, 1632, Note_on_c, 1, 48, 110
3, 1664, Note_on_c, 1, 48, 0
3, 1728, Note_on_c, 1, 47, 110
3, 1760, Note_on_c, 1, 47, 0
3, 1824, Note_on_c, 1, 52, 110
3, 1856, Note_on_c, 1, 52, 0
3, 1920, Note_on_c, 1, 54, 110
3, 1952, Note_on_c, 1, 54, 0
3, 2016, Note_on_c, 1, 55, 110
3, 2048, Note_on_c, 1, 55, 0
3, 2112, Note_on_c, 1, 62, 110
3, 2144, Note_on_c, 1, 62, 0
3, 2208, Note_on_c, 1, 50, 110
3, 2240, Note_on_c, 1, 50, 0
3, 2304, Note_on_c, 1, 55, 110
3, 2400, Note_on_c, 1, 55, 0
3, 2592, Note_on_c, 1, 50, 110
3, 2638, Note_on_c, 1, 50, 0
3, 2640, Note_on_c, 1, 47, 110
3, 2686, Note_on_c, 1, 47, 0
3, 2688, Note_on_c, 1, 45, 110
3, 2734, Note_on_c, 1, 45, 0
3, 2736, Note_on_c, 1, 43, 110
3, 2782, Note_on_c, 1, 43, 0
3, 2784, Note_on_c, 1, 52, 110
3, 2816, Note_on_c, 1, 52, 0
3, 2880, Note_on_c, 1, 50, 110
3, 2912, Note_on_c, 1, 50, 0
3, 3168, Note_on_c, 1, 48, 110
3, 3214, Note_on_c, 1, 48, 0
3, 3216, Note_on_c, 1, 47, 110
3, 3262, Note_on_c, 1, 47, 0
3, 3264, Note_on_c, 1, 45, 110
3, 3310, Note_on_c, 1, 45, 0
3, 3312, Note_on_c, 1, 43, 110
3, 3358, Note_on_c, 1, 43, 0
3, 3360, Note_on_c, 1, 55, 110
3, 3392, Note_on_c, 1, 55, 0
3, 3456, Note_on_c, 1, 54, 110
3, 3488, Note_on_c, 1, 54, 0
3, 3744, Note_on_c, 1, 55, 110
3, 3790, Note_on_c, 1, 55, 0
3, 3792, Note_on_c, 1, 54, 110
3, 3838, Note_on_c, 1, 54, 0
3, 3840, Note_on_c, 1, 52, 110
3, 3886, Note_on_c, 1, 52, 0
3, 3888, Note_on_c, 1, 50, 110
3, 3934, Note_on_c, 1, 50, 0
3, 3936, Note_on_c, 1, 59, 110
3, 3982, Note_on_c, 1, 59, 0
3, 3984, Note_on_c, 1, 55, 110
3, 4030, Note_on_c, 1, 55, 0
3, 4032, Note_on_c, 1, 57, 110
3, 4078, Note_on_c, 1, 57, 0
3, 4080, Note_on_c, 1, 54, 110
3, 4126, Note_on_c, 1, 54, 0
3, 4128, Note_on_c, 1, 52, 110
3, 4174, Note_on_c, 1, 52, 0
3, 4176, Note_on_c, 1, 50, 110
3, 4222, Note_on_c, 1, 50, 0
3, 4224, Note_on_c, 1, 55, 110
3, 4270, Note_on_c, 1, 55, 0
3, 4272, Note_on_c, 1, 52, 110
3, 4318, Note_on_c, 1, 52, 0
3, 4320, Note_on_c, 1, 55, 110
3, 4366, Note_on_c, 1, 55, 0
3, 4368, Note_on_c, 1, 54, 110
3, 4414, Note_on_c, 1, 54, 0
3, 4416, Note_on_c, 1, 52, 110
3, 4462, Note_on_c, 1, 52, 0
3, 4464, Note_on_c, 1, 50, 110
3, 4510, Note_on_c, 1, 50, 0
3, 4512, Note_on_c, 1, 52, 110
3, 4558, Note_on_c, 1, 52, 0
3, 4560, Note_on_c, 1, 49, 110
3, 4606, Note_on_c, 1, 49, 0
3, 4608, Note_on_c, 1, 50, 110
3, 4640, Note_on_c, 1, 50, 0
3, 4704, Note_on_c, 1, 62, 110
3, 4736, Note_on_c, 1, 62, 0
3, 4800, Note_on_c, 1, 57, 110
3, 4832, Note_on_c, 1, 57, 0
3, 4896, Note_on_c, 1, 59, 110
3, 4942, Note_on_c, 1, 59, 0
3, 4944, Note_on_c, 1, 60, 110
3, 4990, Note_on_c, 1, 60, 0
3, 4992, Note_on_c, 1, 62, 110
3, 5038, Note_on_c, 1, 62, 0
3, 5040, Note_on_c, 1, 59, 110
3, 5086, Note_on_c, 1, 59, 0
3, 5088, Note_on_c, 1, 55, 110
3, 5134, Note_on_c, 1, 55, 0
3, 5136, Note_on_c, 1, 59, 110
3, 5182, Note_on_c, 1, 59, 0
3, 5184, Note_on_c, 1, 48, 110
3, 5216, Note_on_c, 1, 48, 0
3, 5280, Note_on_c, 1, 60, 110
3, 5312, Note_on_c, 1, 60, 0
3, 5376, Note_on_c, 1, 55, 110
3, 5408, Note_on_c, 1, 55, 0
3, 5472, Note_on_c, 1, 57, 110
3, 5518, Note_on_c, 1, 57, 0
3, 5520, Note_on_c, 1, 59, 110
3, 5566, Note_on_c, 1, 59, 0
3, 5568, Note_on_c, 1, 60, 110
3, 5614, Note_on_c, 1, 60, 0
3, 5616, Note_on_c, 1, 57, 110
3, 5662, Note_on_c, 1, 57, 0
3, 5664, Note_on_c, 1, 54, 110
3, 5710, Note_on_c, 1, 54, 0
3, 5712, Note_on_c, 1, 57, 110
3, 5758, Note_on_c, 1, 57, 0
3, 5760, Note_on_c, 1, 47, 110
3, 5792, Note_on_c, 1, 47, 0
3, 5856, Note_on_c, 1, 59, 110
3, 5888, Note_on_c, 1, 59, 0
3, 5952, Note_on_c, 1, 54, 110
3, 5984, Note_on_c, 1, 54, 0
3, 6048, Note_on_c, 1, 55, 110
3, 6144, Note_on_c, 1, 55, 0
3, 6144, Note_on_c, 1, 57, 110
3, 6176, Note_on_c, 1, 57, 0
3, 6240, Note_on_c, 1, 52, 110
3, 6272, Note_on_c, 1, 52, 0
3, 6336, Note_on_c, 1, 54, 110
3, 6432, Note_on_c, 1, 54, 0
3, 6432, Note_on_c, 1, 55, 110
3, 6464, Note_on_c, 1, 55, 0
3, 6528, Note_on_c, 1, 50, 110
3, 6560, Note_on_c, 1, 50, 0
3, 6624, Note_on_c, 1, 52, 110
3, 6720, Note_on_c, 1, 52, 0
3, 6720, Note_on_c, 1, 54, 110
3, 6752, Note_on_c, 1, 54, 0
3, 6816, Note_on_c, 1, 50, 110
3, 6848, Note_on_c, 1, 50, 0
3, 6912, Note_on_c, 1, 55, 110
3, 7006, Note_on_c, 1, 55, 0
3, 7200, Note_on_c, 1, 43, 110
3, 7246, Note_on_c, 1, 43, 0
3, 7248, Note_on_c, 1, 42, 110
3, 7294, Note_on_c, 1, 42, 0
3, 7296, Note_on_c, 1, 40, 110
3, 7342, Note_on_c, 1, 40, 0
3, 7344, Note_on_c, 1, 38, 110
3, 7390, Note_on_c, 1, 38, 0
3, 7392, Note_on_c, 1, 47, 110
3, 7424, Note_on_c, 1, 47, 0
3, 7488, Note_on_c, 1, 45, 110
3, 7520, Note_on_c, 1, 45, 0
3, 7776, Note_on_c, 1, 43, 110
3, 7822, Note_on_c, 1, 43, 0
3, 7824, Note_on_c, 1, 42, 110
3, 7870, Note_on_c, 1, 42, 0
3, 7872, Note_on_c, 1, 40, 110
3, 7918, Note_on_c, 1, 40, 0
3, 7920, Note_on_c, 1, 38, 110
3, 7966, Note_on_c, 1, 38, 0
3, 7968, Note_on_c, 1, 48, 110
3, 8000, Note_on_c, 1, 48, 0
3, 8064, Note_on_c, 1, 47, 110
3, 8096, Note_on_c, 1, 47, 0
3, 8352, Note_on_c, 1, 50, 110
3, 8398, Note_on_c, 1, 50, 0
3, 8400, Note_on_c, 1, 47, 110
3, 8446, Note_on_c, 1, 47, 0
3, 8448, Note_on_c, 1, 45, 110
3, 8494, Note_on_c, 1, 45, 0
3, 8496, Note_on_c, 1, 43, 110
3, 8542, Note_on_c, 1, 43, 0
3, 8544, Note_on_c, 1, 52, 110
3, 8590, Note_on_c, 1, 52, 0
3, 8592, Note_on_c, 1, 48, 110
3, 8638, Note_on_c, 1, 48, 0
3, 8640, Note_on_c, 1, 50, 110
3, 8686, Note_on_c, 1, 50, 0
3, 8688, Note_on_c, 1, 47, 110
3, 8734, Note_on_c, 1, 47, 0
3, 8736, Note_on_c, 1, 45, 110
3, 8782, Note_on_c, 1, 45, 0
3, 8784, Note_on_c, 1, 43, 110
3, 8830, Note_on_c, 1, 43, 0
3, 8832, Note_on_c, 1, 48, 110
3, 8878, Note_on_c, 1, 48, 0
3, 8880, Note_on_c, 1, 45, 110
3, 8926, Note_on_c, 1, 45, 0
3, 8928, Note_on_c, 1, 48, 110
3, 8974, Note_on_c, 1, 48, 0
3, 8976, Note_on_c, 1, 47, 110
3, 9022, Note_on_c, 1, 47, 0
3, 9024, Note_on_c, 1, 45, 110
3, 9070, Note_on_c, 1, 45, 0
3, 9072, Note_on_c, 1, 43, 110
3, 9118, Note_on_c, 1, 43, 0
3, 9120, Note_on_c, 1, 45, 110
3, 9166, Note_on_c, 1, 45, 0
3, 9168, Note_on_c, 1, 42, 110
3, 9214, Note_on_c, 1, 42, 0
3, 9216, Note_on_c, 1, 43, 110
3, 9262, Note_on_c, 1, 43, 0
3, 9264, Note_on_c, 1, 38, 110
3, 9310, Note_on_c, 1, 38, 0
3, 9312, Note_on_c, 1, 40, 110
3, 9358, Note_on_c, 1, 40, 0
3, 9360, Note_on_c, 1, 42, 110
3, 9406, Note_on_c, 1, 42, 0
3, 9408, Note_on_c, 1, 43, 110
3, 9454, Note_on_c, 1, 43, 0
3, 9456, Note_on_c, 1, 45, 110
3, 9502, Note_on_c, 1, 45, 0
3, 9504, Note_on_c, 1, 47, 110
3, 9550, Note_on_c, 1, 47, 0
3, 9552, Note_on_c, 1, 50, 110
3, 9598, Note_on_c, 1, 50, 0
3, 9600, Note_on_c, 1, 48, 110
3, 9646, Note_on_c, 1, 48, 0
3, 9648, Note_on_c, 1, 47, 110
3, 9694, Note_on_c, 1, 47, 0
3, 9696, Note_on_c, 1, 48, 110
3, 9742, Note_on_c, 1, 48, 0
3, 9744, Note_on_c, 1, 45, 110
3, 9790, Note_on_c, 1, 45, 0
3, 9792, Note_on_c, 1, 47, 110
3, 9838, Note_on_c, 1, 47, 0
3, 9840, Note_on_c, 1, 43, 110
3, 9886, Note_on_c, 1, 43, 0
3, 9888, Note_on_c, 1, 45, 110
3, 9934, Note_on_c, 1, 45, 0
3, 9936, Note_on_c, 1, 47, 110
3, 9982, Note_on_c, 1, 47, 0
3, 9984, Note_on_c, 1, 48, 110
3, 10030, Note_on_c, 1, 48, 0
3, 10032, Note_on_c, 1, 50, 110
3, 10078, Note_on_c, 1, 50, 0
3, 10080, Note_on_c, 1, 52, 110
3, 10126, Note_on_c, 1, 52, 0
3, 10128, Note_on_c, 1, 55, 110
3, 10174, Note_on_c, 1, 55, 0
3, 10176, Note_on_c, 1, 54, 110
3, 10222, Note_on_c, 1, 54, 0
3, 10224, Note_on_c, 1, 52, 110
3, 10270, Note_on_c, 1, 52, 0
3, 10272, Note_on_c, 1, 50, 110
3, 10318, Note_on_c, 1, 50, 0
3, 10320, Note_on_c, 1, 49, 110
3, 10366, Note_on_c, 1, 49, 0
3, 10368, Note_on_c, 1, 57, 110
3, 10414, Note_on_c, 1, 57, 0
3, 10416, Note_on_c, 1, 50, 110
3, 10462, Note_on_c, 1, 50, 0
3, 10464, Note_on_c, 1, 52, 110
3, 10510, Note_on_c, 1, 52, 0
3, 10512, Note_on_c, 1, 54, 110
3, 10558, Note_on_c, 1, 54, 0
3, 10560, Note_on_c, 1, 55, 110
3, 10606, Note_on_c, 1, 55, 0
3, 10608, Note_on_c, 1, 57, 110
3, 10654, Note_on_c, 1, 57, 0
3, 10656, Note_on_c, 1, 59, 110
3, 10702, Note_on_c, 1, 59, 0
3, 10704, Note_on_c, 1, 57, 110
3, 10750, Note_on_c, 1, 57, 0
3, 10752, Note_on_c, 1, 55, 110
3, 10798, Note_on_c, 1, 55, 0
3, 10800, Note_on_c, 1, 54, 110
3, 10846, Note_on_c, 1, 54, 0
3, 10848, Note_on_c, 1, 55, 110
3, 10894, Note_on_c, 1, 55, 0
3, 10896, Note_on_c, 1, 52, 110
3, 10942, Note_on_c, 1, 52, 0
3, 10944, Note_on_c, 1, 54, 110
3, 10990, Note_on_c, 1, 54, 0
3, 10992, Note_on_c, 1, 57, 110
3, 11038, Note_on_c, 1, 57, 0
3, 11040, Note_on_c, 1, 55, 110
3, 11086, Note_on_c, 1, 55, 0
3, 11088, Note_on_c, 1, 54, 110
3, 11134, Note_on_c, 1, 54, 0
3, 11136, Note_on_c, 1, 52, 110
3, 11182, Note_on_c, 1, 52, 0
3, 11184, Note_on_c, 1, 50, 110
3, 11230, Note_on_c, 1, 50, 0
3, 11232, Note_on_c, 1, 49, 110
3, 11278, Note_on_c, 1, 49, 0
3, 11280, Note_on_c, 1, 50, 110
3, 11326, Note_on_c, 1, 50, 0
3, 11328, Note_on_c, 1, 52, 110
3, 11374, Note_on_c, 1, 52, 0
3, 11376, Note_on_c, 1, 54, 110
3, 11422, Note_on_c, 1, 54, 0
3, 11424, Note_on_c, 1, 55, 110
3, 11566, Note_on_c, 1, 55, 0
3, 11568, Note_on_c, 1, 52, 110
3, 11614, Note_on_c, 1, 52, 0
3, 11616, Note_on_c, 1, 54, 110
3, 11662, Note_on_c, 1, 54, 0
3, 11664, Note_on_c, 1, 50, 110
3, 11710, Note_on_c, 1, 50, 0
3, 11712, Note_on_c, 1, 49, 110
3, 11758, Note_on_c, 1, 49, 0
3, 11760, Note_on_c, 1, 50, 110
3, 11806, Note_on_c, 1, 50, 0
3, 11808, Note_on_c, 1, 59, 110
3, 12142, Note_on_c, 1, 59, 0
3, 12144, Note_on_c, 1, 50, 110
3, 12190, Note_on_c, 1, 50, 0
3, 12192, Note_on_c, 1, 52, 110
3, 12238, Note_on_c, 1, 52, 0
3, 12240, Note_on_c, 1, 48, 110
3, 12286, Note_on_c, 1, 48, 0
3, 12288, Note_on_c, 1, 47, 110
3, 12334, Note_on_c, 1, 47, 0
3, 12336, Note_on_c, 1, 48, 110
3, 12382, Note_on_c, 1, 48, 0
3, 12384, Note_on_c, 1, 57, 110
3, 12718, Note_on_c, 1, 57, 0
3, 12720, Note_on_c, 1, 54, 110
3, 12766, Note_on_c, 1, 54, 0
3, 12768, Note_on_c, 1, 55, 110
3, 12814, Note_on_c, 1, 55, 0
3, 12816, Note_on_c, 1, 52, 110
3, 12862, Note_on_c, 1, 52, 0
3, 12864, Note_on_c, 1, 51, 110
3, 12910, Note_on_c, 1, 51, 0
3, 12912, Note_on_c, 1, 52, 110
3, 12958, Note_on_c, 1, 52, 0
3, 12960, Note_on_c, 1, 60, 110
3, 13294, Note_on_c, 1, 60, 0
3, 13296, Note_on_c, 1, 59, 110
3, 13342, Note_on_c, 1, 59, 0
3, 13344, Note_on_c, 1, 57, 110
3, 13390, Note_on_c, 1, 57, 0
3, 13392, Note_on_c, 1, 55, 110
3, 13438, Note_on_c, 1, 55, 0
3, 13440, Note_on_c, 1, 54, 110
3, 13486, Note_on_c, 1, 54, 0
3, 13488, Note_on_c, 1, 52, 110
3, 13534, Note_on_c, 1, 52, 0
3, 13536, Note_on_c, 1, 51, 110
3, 13568, Note_on_c, 1, 51, 0
3, 13632, Note_on_c, 1, 52, 110
3, 13664, Note_on_c, 1, 52, 0
3, 13728, Note_on_c, 1, 48, 110
3, 13760, Note_on_c, 1, 48, 0
3, 13824, Note_on_c, 1, 47, 110
3, 13856, Note_on_c, 1, 47, 0
3, 13920, Note_on_c, 1, 59, 110
3, 13966, Note_on_c, 1, 59, 0
3, 13968, Note_on_c, 1, 57, 110
3, 14014, Note_on_c, 1, 57, 0
3, 14016, Note_on_c, 1, 55, 110
3, 14062, Note_on_c, 1, 55, 0
3, 14064, Note_on_c, 1, 54, 110
3, 14110, Note_on_c, 1, 54, 0
3, 14112, Note_on_c, 1, 52, 110
3, 14144, Note_on_c, 1, 52, 0
3, 14208, Note_on_c, 1, 40, 110
3, 14304, Note_on_c, 1, 40, 0
3, 14304, Note_on_c, 1, 42, 110
3, 14400, Note_on_c, 1, 42, 0
3, 14400, Note_on_c, 1, 43, 110
3, 14432, Note_on_c, 1, 43, 0
3, 14496, Note_on_c, 1, 47, 110
3, 14592, Note_on_c, 1, 47, 0
3, 14592, Note_on_c, 1, 45, 110
3, 14688, Note_on_c, 1, 45, 0
3, 14688, Note_on_c, 1, 43, 110
3, 14720, Note_on_c, 1, 43, 0
3, 14784, Note_on_c, 1, 40, 110
3, 14816, Note_on_c, 1, 40, 0
3, 14880, Note_on_c, 1, 52, 110
3, 14912, Note_on_c, 1, 52, 0
3, 14976, Note_on_c, 1, 45, 110
3, 15022, Note_on_c, 1, 45, 0
3, 15024, Note_on_c, 1, 47, 110
3, 15070, Note_on_c, 1, 47, 0
3, 15072, Note_on_c, 1, 49, 110
3, 15118, Note_on_c, 1, 49, 0
3, 15120, Note_on_c, 1, 50, 110
3, 15166, Note_on_c, 1, 50, 0
3, 15168, Note_on_c, 1, 52, 110
3, 15214, Note_on_c, 1, 52, 0
3, 15216, Note_on_c, 1, 49, 110
3, 15262, Note_on_c, 1, 49, 0
3, 15264, Note_on_c, 1, 50, 110
3, 15296, Note_on_c, 1, 50, 0
3, 15360, Note_on_c, 1, 38, 110
3, 15456, Note_on_c, 1, 38, 0
3, 15456, Note_on_c, 1, 40, 110
3, 15552, Note_on_c, 1, 40, 0
3, 15552, Note_on_c, 1, 42, 110
3, 15584, Note_on_c, 1, 42, 0
3, 15648, Note_on_c, 1, 45, 110
3, 15744, Note_on_c, 1, 45, 0
3, 15744, Note_on_c, 1, 43, 110
3, 15840, Note_on_c, 1, 43, 0
3, 15840, Note_on_c, 1, 42, 110
3, 15872, Note_on_c, 1, 42, 0
3, 15936, Note_on_c, 1, 38, 110
3, 15968, Note_on_c, 1, 38, 0
3, 16032, Note_on_c, 1, 50, 110
3, 16064, Note_on_c, 1, 50, 0
3, 16128, Note_on_c, 1, 43, 110
3, 16174, Note_on_c, 1, 43, 0
3, 16176, Note_on_c, 1, 45, 110
3, 16222, Note_on_c, 1, 45, 0
3, 16224, Note_on_c, 1, 47, 110
3, 16270, Note_on_c, 1, 47, 0
3, 16272, Note_on_c, 1, 48, 110
3, 16318, Note_on_c, 1, 48, 0
3, 16320, Note_on_c, 1, 50, 110
3, 16366, Note_on_c, 1, 50, 0
3, 16368, Note_on_c, 1, 47, 110
3, 16414, Note_on_c, 1, 47, 0
3, 16416, Note_on_c, 1, 48, 110
3, 16448, Note_on_c, 1, 48, 0
3, 16512, Note_on_c, 1, 60, 110
3, 16544, Note_on_c, 1, 60, 0
3, 16608, Note_on_c, 1, 54, 110
3, 16640, Note_on_c, 1, 54, 0
3, 16704, Note_on_c, 1, 57, 110
3, 16736, Note_on_c, 1, 57, 0
3, 16800, Note_on_c, 1, 51, 110
3, 16832, Note_on_c, 1, 51, 0
3, 16896, Note_on_c, 1, 54, 110
3, 16928, Note_on_c, 1, 54, 0
3, 16992, Note_on_c, 1, 47, 110
3, 17038, Note_on_c, 1, 47, 0
3, 17040, Note_on_c, 1, 49, 110
3, 17086, Note_on_c, 1, 49, 0
3, 17088, Note_on_c, 1, 51, 110
3, 17134, Note_on_c, 1, 51, 0
3, 17136, Note_on_c, 1, 52, 110
3, 17182, Note_on_c, 1, 52, 0
3, 17184, Note_on_c, 1, 54, 110
3, 17230, Note_on_c, 1, 54, 0
3, 17232, Note_on_c, 1, 51, 110
3, 17278, Note_on_c, 1, 51, 0
3, 17280, Note_on_c, 1, 52, 110
3, 17312, Note_on_c, 1, 52, 0
3, 17376, Note_on_c, 1, 40, 110
3, 17408, Note_on_c, 1, 40, 0
3, 17568, Note_on_c, 1, 52, 110
3, 17614, Note_on_c, 1, 52, 0
3, 17616, Note_on_c, 1, 51, 110
3, 17662, Note_on_c, 1, 51, 0
3, 17664, Note_on_c, 1, 49, 110
3, 17710, Note_on_c, 1, 49, 0
3, 17712, Note_on_c, 1, 47, 110
3, 17758, Note_on_c, 1, 47, 0
3, 17760, Note_on_c, 1, 55, 110
3, 17792, Note_on_c, 1, 55, 0
3, 17856, Note_on_c, 1, 54, 110
3, 17888, Note_on_c, 1, 54, 0
3, 18144, Note_on_c, 1, 52, 110
3, 18190, Note_on_c, 1, 52, 0
3, 18192, Note_on_c, 1, 51, 110
3, 18238, Note_on_c, 1, 51, 0
3, 18240, Note_on_c, 1, 49, 110
3, 18286, Note_on_c, 1, 49, 0
3, 18288, Note_on_c, 1, 47, 110
3, 18334, Note_on_c, 1, 47, 0
3, 18336, Note_on_c, 1, 57, 110
3, 18368, Note_on_c, 1, 57, 0
3, 18432, Note_on_c, 1, 55, 110
3, 18464, Note_on_c, 1, 55, 0
3, 18720, Note_on_c, 1, 59, 110
3, 18766, Note_on_c, 1, 59, 0
3, 18768, Note_on_c, 1, 55, 110
3, 18814, Note_on_c, 1, 55, 0
3, 18816, Note_on_c, 1, 54, 110
3, 18862, Note_on_c, 1, 54, 0
3, 18864, Note_on_c, 1, 52, 110
3, 18910, Note_on_c, 1, 52, 0
3, 18912, Note_on_c, 1, 60, 110
3, 18958, Note_on_c, 1, 60, 0
3, 18960, Note_on_c, 1, 57, 110
3, 19006, Note_on_c, 1, 57, 0
3, 19008, Note_on_c, 1, 59, 110
3, 19054, Note_on_c, 1, 59, 0
3, 19056, Note_on_c, 1, 55, 110
3, 19102, Note_on_c, 1, 55, 0
3, 19104, Note_on_c, 1, 54, 110
3, 19150, Note_on_c, 1, 54, 0
3, 19152, Note_on_c, 1, 52, 110
3, 19198, Note_on_c, 1, 52, 0
3, 19200, Note_on_c, 1, 57, 110
3, 19246, Note_on_c, 1, 57, 0
3, 19248, Note_on_c, 1, 54, 110
3, 19294, Note_on_c, 1, 54, 0
3, 19296, Note_on_c, 1, 57, 110
3, 19342, Note_on_c, 1, 57, 0
3, 19344, Note_on_c, 1, 55, 110
3, 19390, Note_on_c, 1, 55, 0
3, 19392, Note_on_c, 1, 54, 110
3, 19438, Note_on_c, 1, 54, 0
3, 19440, Note_on_c, 1, 52, 110
3, 19486, Note_on_c, 1, 52, 0
3, 19488, Note_on_c, 1, 54, 110
3, 19534, Note_on_c, 1, 54, 0
3, 19536, Note_on_c, 1, 51, 110
3, 19582, Note_on_c, 1, 51, 0
3, 19584, Note_on_c, 1, 52, 110
3, 19630, Note_on_c, 1, 52, 0
3, 19632, Note_on_c, 1, 47, 110
3, 19678, Note_on_c, 1, 47, 0
3, 19680, Note_on_c, 1, 49, 110
3, 19726, Note_on_c, 1, 49, 0
3, 19728, Note_on_c, 1, 51, 110
3, 19774, Note_on_c, 1, 51, 0
3, 19776, Note_on_c, 1, 52, 110
3, 19822, Note_on_c, 1, 52, 0
3, 19824, Note_on_c, 1, 54, 110
3, 19870, Note_on_c, 1, 54, 0
3, 19872, Note_on_c, 1, 55, 110
3, 19918, Note_on_c, 1, 55, 0
3, 19920, Note_on_c, 1, 59, 110
3, 19966, Note_on_c, 1, 59, 0
3, 19968, Note_on_c, 1, 57, 110
3, 20014, Note_on_c, 1, 57, 0
3, 20016, Note_on_c, 1, 55, 110
3, 20062, Note_on_c, 1, 55, 0
3, 20064, Note_on_c, 1, 57, 110
3, 20110, Note_on_c, 1, 57, 0
3, 20112, Note_on_c, 1, 54, 110
3, 20158, Note_on_c, 1, 54, 0
3, 20160, Note_on_c, 1, 55, 110
3, 20206, Note_on_c, 1, 55, 0
3, 20208, Note_on_c, 1, 52, 110
3, 20254, Note_on_c, 1, 52, 0
3, 20256, Note_on_c, 1, 54, 110
3, 20302, Note_on_c, 1, 54, 0
3, 20304, Note_on_c, 1, 55, 110
3, 20350, Note_on_c, 1, 55, 0
3, 20352, Note_on_c, 1, 57, 110
3, 20398, Note_on_c, 1, 57, 0
3, 20400, Note_on_c, 1, 59, 110
3, 20446, Note_on_c, 1, 59, 0
3, 20448, Note_on_c, 1, 61, 110
3, 20494, Note_on_c, 1, 61, 0
3, 20496, Note_on_c, 1, 64, 110
3, 20542, Note_on_c, 1, 64, 0
3, 20544, Note_on_c, 1, 63, 110
3, 20590, Note_on_c, 1, 63, 0
3, 20592, Note_on_c, 1, 61, 110
3, 20638, Note_on_c, 1, 61, 0
3, 20640, Note_on_c, 1, 59, 110
3, 20686, Note_on_c, 1, 59, 0
3, 20688, Note_on_c, 1, 58, 110
3, 20734, Note_on_c, 1, 58, 0
3, 20736, Note_on_c, 1, 66, 110
3, 20782, Note_on_c, 1, 66, 0
3, 20784, Note_on_c, 1, 59, 110
3, 20830, Note_on_c, 1, 59, 0
3, 20832, Note_on_c, 1, 61, 110
3, 20878, Note_on_c, 1, 61, 0
3, 20880, Note_on_c, 1, 63, 110
3, 20926, Note_on_c, 1, 63, 0
3, 20928, Note_on_c, 1, 64, 110
3, 20974, Note_on_c, 1, 64, 0
3, 20976, Note_on_c, 1, 66, 110
3, 21022, Note_on_c, 1, 66, 0
3, 21024, Note_on_c, 1, 67, 110
3, 21070, Note_on_c, 1, 67, 0
3, 21072, Note_on_c, 1, 66, 110
3, 21118, Note_on_c, 1, 66, 0
3, 21120, Note_on_c, 1, 64, 110
3, 21166, Note_on_c, 1, 64, 0
3, 21168, Note_on_c, 1, 62, 110
3, 21214, Note_on_c, 1, 62, 0
3, 21216, Note_on_c, 1, 64, 110
3, 21262, Note_on_c, 1, 64, 0
3, 21264, Note_on_c, 1, 61, 110
3, 21310, Note_on_c, 1, 61, 0
3, 21312, Note_on_c, 1, 62, 110
3, 21344, Note_on_c, 1, 62, 0
3, 21408, Note_on_c, 1, 50, 110
3, 21440, Note_on_c, 1, 50, 0
3, 21504, Note_on_c, 1, 55, 110
3, 21536, Note_on_c, 1, 55, 0
3, 21600, Note_on_c, 1, 52, 110
3, 21632, Note_on_c, 1, 52, 0
3, 21696, Note_on_c, 1, 54, 110
3, 21728, Note_on_c, 1, 54, 0
3, 21792, Note_on_c, 1, 42, 110
3, 21824, Note_on_c, 1, 42, 0
3, 21888, Note_on_c, 1, 47, 110
3, 21934, Note_on_c, 1, 47, 0
3, 21936, Note_on_c, 1, 54, 110
3, 21982, Note_on_c, 1, 54, 0
3, 21984, Note_on_c, 1, 56, 110
3, 22030, Note_on_c, 1, 56, 0
3, 22032, Note_on_c, 1, 58, 110
3, 22078, Note_on_c, 1, 58, 0
3, 22080, Note_on_c, 1, 59, 110
3, 22126, Note_on_c, 1, 59, 0
3, 22128, Note_on_c, 1, 61, 110
3, 22174, Note_on_c, 1, 61, 0
3, 22176, Note_on_c, 1, 62, 110
3, 22222, Note_on_c, 1, 62, 0
3, 22224, Note_on_c, 1, 61, 110
3, 22270, Note_on_c, 1, 61, 0
3, 22272, Note_on_c, 1, 62, 110
3, 22318, Note_on_c, 1, 62, 0
3, 22320, Note_on_c, 1, 59, 110
3, 22366, Note_on_c, 1, 59, 0
3, 22368, Note_on_c, 1, 58, 110
3, 22414, Note_on_c, 1, 58, 0
3, 22416, Note_on_c, 1, 59, 110
3, 22462, Note_on_c, 1, 59, 0
3, 22464, Note_on_c, 1, 54, 110
3, 22510, Note_on_c, 1, 54, 0
3, 22512, Note_on_c, 1, 59, 110
3, 22558, Note_on_c, 1, 59, 0
3, 22560, Note_on_c, 1, 62, 110
3, 22606, Note_on_c, 1, 62, 0
3, 22608, Note_on_c, 1, 59, 110
3, 22654, Note_on_c, 1, 59, 0
3, 22656, Note_on_c, 1, 58, 110
3, 22702, Note_on_c, 1, 58, 0
3, 22704, Note_on_c, 1, 59, 110
3, 22750, Note_on_c, 1, 59, 0
3, 22752, Note_on_c, 1, 53, 110
3, 22798, Note_on_c, 1, 53, 0
3, 22800, Note_on_c, 1, 59, 110
3, 22846, Note_on_c, 1, 59, 0
3, 22848, Note_on_c, 1, 62, 110
3, 22894, Note_on_c, 1, 62, 0
3, 22896, Note_on_c, 1, 59, 110
3, 22942, Note_on_c, 1, 59, 0
3, 22944, Note_on_c, 1, 57, 110
3, 22990, Note_on_c, 1, 57, 0
3, 22992, Note_on_c, 1, 59, 110
3, 23038, Note_on_c, 1, 59, 0
3, 23040, Note_on_c, 1, 52, 110
3, 23086, Note_on_c, 1, 52, 0
3, 23088, Note_on_c, 1, 59, 110
3, 23134, Note_on_c, 1, 59, 0
3, 23136, Note_on_c, 1, 64, 110
3, 23182, Note_on_c, 1, 64, 0
3, 23184, Note_on_c, 1, 62, 110
3, 23230, Note_on_c, 1, 62, 0
3, 23232, Note_on_c, 1, 60, 110
3, 23278, Note_on_c, 1, 60, 0
3, 23280, Note_on_c, 1, 59, 110
3, 23326, Note_on_c, 1, 59, 0
3, 23328, Note_on_c, 1, 57, 110
3, 23374, Note_on_c, 1, 57, 0
3, 23376, Note_on_c, 1, 59, 110
3, 23422, Note_on_c, 1, 59, 0
3, 23424, Note_on_c, 1, 60, 110
3, 23470, Note_on_c, 1, 60, 0
3, 23472, Note_on_c, 1, 57, 110
3, 23518, Note_on_c, 1, 57, 0
3, 23520, Note_on_c, 1, 56, 110
3, 23566, Note_on_c, 1, 56, 0
3, 23568, Note_on_c, 1, 57, 110
3, 23614, Note_on_c, 1, 57, 0
3, 23616, Note_on_c, 1, 52, 110
3, 23662, Note_on_c, 1, 52, 0
3, 23664, Note_on_c, 1, 57, 110
3, 23710, Note_on_c, 1, 57, 0
3, 23712, Note_on_c, 1, 60, 110
3, 23758, Note_on_c, 1, 60, 0
3, 23760, Note_on_c, 1, 57, 110
3, 23806, Note_on_c, 1, 57, 0
3, 23808, Note_on_c, 1, 56, 110
3, 23854, Note_on_c, 1, 56, 0
3, 23856, Note_on_c, 1, 57, 110
3, 23902, Note_on_c, 1, 57, 0
3, 23904, Note_on_c, 1, 51, 110
3, 23950, Note_on_c, 1, 51, 0
3, 23952, Note_on_c, 1, 57, 110
3, 23998, Note_on_c, 1, 57, 0
3, 24000, Note_on_c, 1, 60, 110
3, 24046, Note_on_c, 1, 60, 0
3, 24048, Note_on_c, 1, 57, 110
3, 24094, Note_on_c, 1, 57, 0
3, 24096, Note_on_c, 1, 55, 110
3, 24142, Note_on_c, 1, 55, 0
3, 24144, Note_on_c, 1, 57, 110
3, 24190, Note_on_c, 1, 57, 0
3, 24192, Note_on_c, 1, 50, 110
3, 24238, Note_on_c, 1, 50, 0
3, 24240, Note_on_c, 1, 57, 110
3, 24286, Note_on_c, 1, 57, 0
3, 24288, Note_on_c, 1, 62, 110
3, 24334, Note_on_c, 1, 62, 0
3, 24336, Note_on_c, 1, 60, 110
3, 24382, Note_on_c, 1, 60, 0
3, 24384, Note_on_c, 1, 59, 110
3, 24430, Note_on_c, 1, 59, 0
3, 24432, Note_on_c, 1, 57, 110
3, 24478, Note_on_c, 1, 57, 0
3, 24480, Note_on_c, 1, 55, 110
3, 24512, Note_on_c, 1, 55, 0
3, 24576, Note_on_c, 1, 43, 110
3, 24672, Note_on_c, 1, 43, 0
3, 24672, Note_on_c, 1, 47, 110
3, 24768, Note_on_c, 1, 47, 0
3, 24768, Note_on_c, 1, 48, 110
3, 24800, Note_on_c, 1, 48, 0
3, 24864, Note_on_c, 1, 45, 110
3, 24960, Note_on_c, 1, 45, 0
3, 24960, Note_on_c, 1, 48, 110
3, 25056, Note_on_c, 1, 48, 0
3, 25056, Note_on_c, 1, 50, 110
3, 25088, Note_on_c, 1, 50, 0
3, 25152, Note_on_c, 1, 47, 110
3, 25248, Note_on_c, 1, 47, 0
3, 25248, Note_on_c, 1, 50, 110
3, 25344, Note_on_c, 1, 50, 0
3, 25344, Note_on_c, 1, 52, 110
3, 25376, Note_on_c, 1, 52, 0
3, 25440, Note_on_c, 1, 48, 110
3, 25536, Note_on_c, 1, 48, 0
3, 25536, Note_on_c, 1, 52, 110
3, 25632, Note_on_c, 1, 52, 0
3, 25632, Note_on_c, 1, 53, 110
3, 25664, Note_on_c, 1, 53, 0
3, 25728, Note_on_c, 1, 45, 110
3, 25760, Note_on_c, 1, 45, 0
3, 25824, Note_on_c, 1, 53, 110
3, 25966, Note_on_c, 1, 53, 0
3, 25968, Note_on_c, 1, 52, 110
3, 26014, Note_on_c, 1, 52, 0
3, 26016, Note_on_c, 1, 53, 110
3, 26062, Note_on_c, 1, 53, 0
3, 26064, Note_on_c, 1, 47, 110
3, 26110, Note_on_c, 1, 47, 0
3, 26112, Note_on_c, 1, 45, 110
3, 26158, Note_on_c, 1, 45, 0
3, 26160, Note_on_c, 1, 47, 110
3, 26206, Note_on_c, 1, 47, 0
3, 26208, Note_on_c, 1, 52, 110
3, 26240, Note_on_c, 1, 52, 0
3, 26304, Note_on_c, 1, 57, 110
3, 26336, Note_on_c, 1, 57, 0
3, 26400, Note_on_c, 1, 53, 110
3, 26432, Note_on_c, 1, 53, 0
3, 26496, Note_on_c, 1, 55, 110
3, 26528, Note_on_c, 1, 55, 0
3, 26592, Note_on_c, 1, 43, 110
3, 26624, Note_on_c, 1, 43, 0
3, 26784, Note_on_c, 1, 48, 110
3, 26830, Note_on_c, 1, 48, 0
3, 26832, Note_on_c, 1, 47, 110
3, 26878, Note_on_c, 1, 47, 0
3, 26880, Note_on_c, 1, 45, 110
3, 26926, Note_on_c, 1, 45, 0
3, 26928, Note_on_c, 1, 43, 110
3, 26974, Note_on_c, 1, 43, 0
3, 26976, Note_on_c, 1, 52, 110
3, 27008, Note_on_c, 1, 52, 0
3, 27072, Note_on_c, 1, 50, 110
3, 27104, Note_on_c, 1, 50, 0
3, 27360, Note_on_c, 1, 48, 110
3, 27406, Note_on_c, 1, 48, 0
3, 27408, Note_on_c, 1, 47, 110
3, 27454, Note_on_c, 1, 47, 0
3, 27456, Note_on_c, 1, 45, 110
3, 27502, Note_on_c, 1, 45, 0
3, 27504, Note_on_c, 1, 43, 110
3, 27550, Note_on_c, 1, 43, 0
3, 27552, Note_on_c, 1, 53, 110
3, 27584, Note_on_c, 1, 53, 0
3, 27648, Note_on_c, 1, 52, 110
3, 27680, Note_on_c, 1, 52, 0
3, 27936, Note_on_c, 1, 55, 110
3, 27982, Note_on_c, 1, 55, 0
3, 27984, Note_on_c, 1, 52, 110
3, 28030, Note_on_c, 1, 52, 0
3, 28032, Note_on_c, 1, 50, 110
3, 28078, Note_on_c, 1, 50, 0
3, 28080, Note_on_c, 1, 48, 110
3, 28126, Note_on_c, 1, 48, 0
3, 28128, Note_on_c, 1, 57, 110
3, 28174, Note_on_c, 1, 57, 0
3, 28176, Note_on_c, 1, 53, 110
3, 28222, Note_on_c, 1, 53, 0
3, 28224, Note_on_c, 1, 55, 110
3, 28270, Note_on_c, 1, 55, 0
3, 28272, Note_on_c, 1, 52, 110
3, 28318, Note_on_c, 1, 52, 0
3, 28320, Note_on_c, 1, 50, 110
3, 28366, Note_on_c, 1, 50, 0
3, 28368, Note_on_c, 1, 48, 110
3, 28414, Note_on_c, 1, 48, 0
3, 28416, Note_on_c, 1, 53, 110
3, 28462, Note_on_c, 1, 53, 0
3, 28464, Note_on_c, 1, 50, 110
3, 28510, Note_on_c, 1, 50, 0
3, 28512, Note_on_c, 1, 53, 110
3, 28558, Note_on_c, 1, 53, 0
3, 28560, Note_on_c, 1, 52, 110
3, 28606, Note_on_c, 1, 52, 0
3, 28608, Note_on_c, 1, 50, 110
3, 28654, Note_on_c, 1, 50, 0
3, 28656, Note_on_c, 1, 48, 110
3, 28702, Note_on_c, 1, 48, 0
3, 28704, Note_on_c, 1, 50, 110
3, 28750, Note_on_c, 1, 50, 0
3, 28752, Note_on_c, 1, 47, 110
3, 28798, Note_on_c, 1, 47, 0
3, 28800, Note_on_c, 1, 48, 110
3, 28832, Note_on_c, 1, 48, 0
3, 28896, Note_on_c, 1, 60, 110
3, 28928, Note_on_c, 1, 60, 0
3, 28992, Note_on_c, 1, 55, 110
3, 29024, Note_on_c, 1, 55, 0
3, 29088, Note_on_c, 1, 57, 110
3, 29134, Note_on_c, 1, 57, 0
3, 29136, Note_on_c, 1, 59, 110
3, 29182, Note_on_c, 1, 59, 0
3, 29184, Note_on_c, 1, 60, 110
3, 29230, Note_on_c, 1, 60, 0
3, 29232, Note_on_c, 1, 57, 110
3, 29278, Note_on_c, 1, 57, 0
3, 29280, Note_on_c, 1, 55, 110
3, 29326, Note_on_c, 1, 55, 0
3, 29328, Note_on_c, 1, 54, 110
3, 29374, Note_on_c, 1, 54, 0
3, 29376, Note_on_c, 1, 59, 110
3, 29408, Note_on_c, 1, 59, 0
3, 29472, Note_on_c, 1, 47, 110
3, 29504, Note_on_c, 1, 47, 0
3, 29568, Note_on_c, 1, 54, 110
3, 29600, Note_on_c, 1, 54, 0
3, 29664, Note_on_c, 1, 56, 110
3, 29710, Note_on_c, 1, 56, 0
3, 29712, Note_on_c, 1, 57, 110
3, 29758, Note_on_c, 1, 57, 0
3, 29760, Note_on_c, 1, 59, 110
3, 29806, Note_on_c, 1, 59, 0
3, 29808, Note_on_c, 1, 56, 110
3, 29854, Note_on_c, 1, 56, 0
3, 29856, Note_on_c, 1, 54, 110
3, 29902, Note_on_c, 1, 54, 0
3, 29904, Note_on_c, 1, 52, 110
3, 29950, Note_on_c, 1, 52, 0
3, 29952, Note_on_c, 1, 45, 110
3, 29984, Note_on_c, 1, 45, 0
3, 30048, Note_on_c, 1, 57, 110
3, 30144, Note_on_c, 1, 57, 0
3, 30144, Note_on_c, 1, 59, 110
3, 30240, Note_on_c, 1, 59, 0
3, 30240, Note_on_c, 1, 60, 110
3, 30272, Note_on_c, 1, 60, 0
3, 30336, Note_on_c, 1, 57, 110
3, 30432, Note_on_c, 1, 57, 0
3, 30432, Note_on_c, 1, 60, 110
3, 30528, Note_on_c, 1, 60, 0
3, 30528, Note_on_c, 1, 62, 110
3, 30560, Note_on_c, 1, 62, 0
3, 30624, Note_on_c, 1, 59, 110
3, 30720, Note_on_c, 1, 59, 0
3, 30720, Note_on_c, 1, 62, 110
3, 30816, Note_on_c, 1, 62, 0
3, 30816, Note_on_c, 1, 64, 110
3, 30848, Note_on_c, 1, 64, 0
3, 30912, Note_on_c, 1, 60, 110
3, 30944, Note_on_c, 1, 60, 0
3, 31008, Note_on_c, 1, 57, 110
3, 31040, Note_on_c, 1, 57, 0
3, 31104, Note_on_c, 1, 54, 110
3, 31136, Note_on_c, 1, 54, 0
3, 31200, Note_on_c, 1, 50, 110
3, 31232, Note_on_c, 1, 50, 0
3, 31392, Note_on_c, 1, 55, 110
3, 31438, Note_on_c, 1, 55, 0
3, 31440, Note_on_c, 1, 54, 110
3, 31486, Note_on_c, 1, 54, 0
3, 31488, Note_on_c, 1, 52, 110
3, 31534, Note_on_c, 1, 52, 0
3, 31536, Note_on_c, 1, 50, 110
3, 31582, Note_on_c, 1, 50, 0
3, 31584, Note_on_c, 1, 59, 110
3, 31616, Note_on_c, 1, 59, 0
3, 31680, Note_on_c, 1, 57, 110
3, 31712, Note_on_c, 1, 57, 0
3, 31968, Note_on_c, 1, 59, 110
3, 32014, Note_on_c, 1, 59, 0
3, 32016, Note_on_c, 1, 62, 110
3, 32062, Note_on_c, 1, 62, 0
3, 32064, Note_on_c, 1, 60, 110
3, 32110, Note_on_c, 1, 60, 0
3, 32112, Note_on_c, 1, 59, 110
3, 32158, Note_on_c, 1, 59, 0
3, 32160, Note_on_c, 1, 57, 110
3, 32206, Note_on_c, 1, 57, 0
3, 32208, Note_on_c, 1, 55, 110
3, 32254, Note_on_c, 1, 55, 0
3, 32256, Note_on_c, 1, 54, 110
3, 32302, Note_on_c, 1, 54, 0
3, 32304, Note_on_c, 1, 64, 110
3, 32350, Note_on_c, 1, 64, 0
3, 32352, Note_on_c, 1, 62, 110
3, 32398, Note_on_c, 1, 62, 0
3, 32400, Note_on_c, 1, 60, 110
3, 32446, Note_on_c, 1, 60, 0
3, 32448, Note_on_c, 1, 59, 110
3, 32494, Note_on_c, 1, 59, 0
3, 32496, Note_on_c, 1, 57, 110
3, 32542, Note_on_c, 1, 57, 0
3, 32544, Note_on_c, 1, 55, 110
3, 32590, Note_on_c, 1, 55, 0
3, 32592, Note_on_c, 1, 54, 110
3, 32638, Note_on_c, 1, 54, 0
3, 32640, Note_on_c, 1, 52, 110
3, 32686, Note_on_c, 1, 52, 0
3, 32688, Note_on_c, 1, 50, 110
3, 32734, Note_on_c, 1, 50, 0
3, 32736, Note_on_c, 1, 60, 110
3, 32768, Note_on_c, 1, 60, 0
3, 32832, Note_on_c, 1, 59, 110
3, 32864, Note_on_c, 1, 59, 0
3, 33168, Note_on_c, 1, 47, 110
3, 33214, Note_on_c, 1, 47, 0
3, 33216, Note_on_c, 1, 48, 110
3, 33262, Note_on_c, 1, 48, 0
3, 33264, Note_on_c, 1, 50, 110
3, 33310, Note_on_c, 1, 50, 0
3, 33312, Note_on_c, 1, 52, 110
3, 33358, Note_on_c, 1, 52, 0
3, 33360, Note_on_c, 1, 54, 110
3, 33406, Note_on_c, 1, 54, 0
3, 33408, Note_on_c, 1, 55, 110
3, 33454, Note_on_c, 1, 55, 0
3, 33456, Note_on_c, 1, 57, 110
3, 33502, Note_on_c, 1, 57, 0
3, 33504, Note_on_c, 1, 59, 110
3, 33550, Note_on_c, 1, 59, 0
3, 33552, Note_on_c, 1, 60, 110
3, 33598, Note_on_c, 1, 60, 0
3, 33600, Note_on_c, 1, 62, 110
3, 33646, Note_on_c, 1, 62, 0
3, 33648, Note_on_c, 1, 64, 110
3, 33694, Note_on_c, 1, 64, 0
3, 33696, Note_on_c, 1, 62, 110
3, 33742, Note_on_c, 1, 62, 0
3, 33744, Note_on_c, 1, 59, 110
3, 33790, Note_on_c, 1, 59, 0
3, 33792, Note_on_c, 1, 57, 110
3, 33838, Note_on_c, 1, 57, 0
3, 33840, Note_on_c, 1, 55, 110
3, 33886, Note_on_c, 1, 55, 0
3, 33888, Note_on_c, 1, 64, 110
3, 33934, Note_on_c, 1, 64, 0
3, 33936, Note_on_c, 1, 60, 110
3, 33982, Note_on_c, 1, 60, 0
3, 33984, Note_on_c, 1, 62, 110
3, 34030, Note_on_c, 1, 62, 0
3, 34032, Note_on_c, 1, 59, 110
3, 34078, Note_on_c, 1, 59, 0
3, 34080, Note_on_c, 1, 57, 110
3, 34126, Note_on_c, 1, 57, 0
3, 34128, Note_on_c, 1, 55, 110
3, 34174, Note_on_c, 1, 55, 0
3, 34176, Note_on_c, 1, 60, 110
3, 34222, Note_on_c, 1, 60, 0
3, 34224, Note_on_c, 1, 57, 110
3, 34270, Note_on_c, 1, 57, 0
3, 34272, Note_on_c, 1, 59, 110
3, 34318, Note_on_c, 1, 59, 0
3, 34320, Note_on_c, 1, 62, 110
3, 34366, Note_on_c, 1, 62, 0
3, 34368, Note_on_c, 1, 60, 110
3, 34414, Note_on_c, 1, 60, 0
3, 34416, Note_on_c, 1, 59, 110
3, 34462, Note_on_c, 1, 59, 0
3, 34464, Note_on_c, 1, 60, 110
3, 34510, Note_on_c, 1, 60, 0
3, 34512, Note_on_c, 1, 57, 110
3, 34558, Note_on_c, 1, 57, 0
3, 34560, Note_on_c, 1, 59, 110
3, 34606, Note_on_c, 1, 59, 0
3, 34608, Note_on_c, 1, 55, 110
3, 34654, Note_on_c, 1, 55, 0
3, 34656, Note_on_c, 1, 54, 110
3, 34702, Note_on_c, 1, 54, 0
3, 34704, Note_on_c, 1, 52, 110
3, 34750, Note_on_c, 1, 52, 0
3, 34752, Note_on_c, 1, 57, 110
3, 34798, Note_on_c, 1, 57, 0
3, 34800, Note_on_c, 1, 54, 110
3, 34846, Note_on_c, 1, 54, 0
3, 34848, Note_on_c, 1, 55, 110
3, 34894, Note_on_c, 1, 55, 0
3, 34896, Note_on_c, 1, 59, 110
3, 34942, Note_on_c, 1, 59, 0
3, 34944, Note_on_c, 1, 57, 110
3, 34990, Note_on_c, 1, 57, 0
3, 34992, Note_on_c, 1, 55, 110
3, 35038, Note_on_c, 1, 55, 0
3, 35040, Note_on_c, 1, 57, 110
3, 35086, Note_on_c, 1, 57, 0
3, 35088, Note_on_c, 1, 54, 110
3, 35134, Note_on_c, 1, 54, 0
3, 35136, Note_on_c, 1, 55, 110
3, 35182, Note_on_c, 1, 55, 0
3, 35184, Note_on_c, 1, 59, 110
3, 35230, Note_on_c, 1, 59, 0
3, 35232, Note_on_c, 1, 57, 110
3, 35278, Note_on_c, 1, 57, 0
3, 35280, Note_on_c, 1, 55, 110
3, 35326, Note_on_c, 1, 55, 0
3, 35328, Note_on_c, 1, 60, 110
3, 35374, Note_on_c, 1, 60, 0
3, 35376, Note_on_c, 1, 57, 110
3, 35422, Note_on_c, 1, 57, 0
3, 35424, Note_on_c, 1, 59, 110
3, 35470, Note_on_c, 1, 59, 0
3, 35472, Note_on_c, 1, 55, 110
3, 35518, Note_on_c, 1, 55, 0
3, 35520, Note_on_c, 1, 54, 110
3, 35566, Note_on_c, 1, 54, 0
3, 35568, Note_on_c, 1, 52, 110
3, 35614, Note_on_c, 1, 52, 0
3, 35616, Note_on_c, 1, 54, 110
3, 35662, Note_on_c, 1, 54, 0
3, 35664, Note_on_c, 1, 51, 110
3, 35710, Note_on_c, 1, 51, 0
3, 35712, Note_on_c, 1, 52, 110
3, 35758, Note_on_c, 1, 52, 0
3, 35760, Note_on_c, 1, 55, 110
3, 35806, Note_on_c, 1, 55, 0
3, 35808, Note_on_c, 1, 53, 110
3, 35854, Note_on_c, 1, 53, 0
3, 35856, Note_on_c, 1, 52, 110
3, 35902, Note_on_c, 1, 52, 0
3, 35904, Note_on_c, 1, 57, 110
3, 35950, Note_on_c, 1, 57, 0
3, 35952, Note_on_c, 1, 53, 110
3, 35998, Note_on_c, 1, 53, 0
3, 36000, Note_on_c, 1, 55, 110
3, 36046, Note_on_c, 1, 55, 0
3, 36048, Note_on_c, 1, 52, 110
3, 36094, Note_on_c, 1, 52, 0
3, 36096, Note_on_c, 1, 50, 110
3, 36142, Note_on_c, 1, 50, 0
3, 36144, Note_on_c, 1, 48, 110
3, 36190, Note_on_c, 1, 48, 0
3, 36192, Note_on_c, 1, 50, 110
3, 36238, Note_on_c, 1, 50, 0
3, 36240, Note_on_c, 1, 47, 110
3, 36286, Note_on_c, 1, 47, 0
3, 36288, Note_on_c, 1, 48, 110
3, 36320, Note_on_c, 1, 48, 0
3, 36384, Note_on_c, 1, 60, 110
3, 36480, Note_on_c, 1, 60, 0
3, 36480, Note_on_c, 1, 59, 110
3, 36576, Note_on_c, 1, 59, 0
3, 36576, Note_on_c, 1, 60, 110
3, 36608, Note_on_c, 1, 60, 0
3, 36672, Note_on_c, 1, 57, 110
3, 36704, Note_on_c, 1, 57, 0
3, 36768, Note_on_c, 1, 60, 110
3, 36800, Note_on_c, 1, 60, 0
3, 36864, Note_on_c, 1, 50, 110
3, 36896, Note_on_c, 1, 50, 0
3, 36960, Note_on_c, 1, 62, 110
3, 37056, Note_on_c, 1, 62, 0
3, 37056, Note_on_c, 1, 61, 110
3, 37152, Note_on_c, 1, 61, 0
3, 37152, Note_on_c, 1, 62, 110
3, 37184, Note_on_c, 1, 62, 0
3, 37248, Note_on_c, 1, 59, 110
3, 37280, Note_on_c, 1, 59, 0
3, 37344, Note_on_c, 1, 62, 110
3, 37376, Note_on_c, 1, 62, 0
3, 37440, Note_on_c, 1, 52, 110
3, 37472, Note_on_c, 1, 52, 0
3, 37536, Note_on_c, 1, 64, 110
3, 37632, Note_on_c, 1, 64, 0
3, 37632, Note_on_c, 1, 63, 110
3, 37728, Note_on_c, 1, 63, 0
3, 37728, Note_on_c, 1, 64, 110
3, 37760, Note_on_c, 1, 64, 0
3, 37824, Note_on_c, 1, 60, 110
3, 37856, Note_on_c, 1, 60, 0
3, 37920, Note_on_c, 1, 64, 110
3, 37952, Note_on_c, 1, 64, 0
3, 38016, Note_on_c, 1, 54, 110
3, 38048, Note_on_c, 1, 54, 0
3, 38112, Note_on_c, 1, 52, 110
3, 38144, Note_on_c, 1, 52, 0
3, 38208, Note_on_c, 1, 50, 110
3, 38240, Note_on_c, 1, 50, 0
3, 38304, Note_on_c, 1, 55, 110
3, 38336, Note_on_c, 1, 55, 0
3, 38400, Note_on_c, 1, 48, 110
3, 38446, Note_on_c, 1, 48, 0
3, 38448, Note_on_c, 1, 47, 110
3, 38494, Note_on_c, 1, 47, 0
3, 38496, Note_on_c, 1, 45, 110
3, 38542, Note_on_c, 1, 45, 0
3, 38544, Note_on_c, 1, 43, 110
3, 38590, Note_on_c, 1, 43, 0
3, 38592, Note_on_c, 1, 48, 110
3, 38638, Note_on_c, 1, 48, 0
3, 38640, Note_on_c, 1, 55, 110
3, 38686, Note_on_c, 1, 55, 0
3, 38688, Note_on_c, 1, 57, 110
3, 38734, Note_on_c, 1, 57, 0
3, 38736, Note_on_c, 1, 59, 110
3, 38782, Note_on_c, 1, 59, 0
3, 38784, Note_on_c, 1, 60, 110
3, 38830, Note_on_c, 1, 60, 0
3, 38832, Note_on_c, 1, 62, 110
3, 38878, Note_on_c, 1, 62, 0
3, 38880, Note_on_c, 1, 64, 110
3, 38912, Note_on_c, 1, 64, 0
3, 38976, Note_on_c, 1, 50, 110
3, 39022, Note_on_c, 1, 50, 0
3, 39024, Note_on_c, 1, 49, 110
3, 39070, Note_on_c, 1, 49, 0
3, 39072, Note_on_c, 1, 47, 110
3, 39118, Note_on_c, 1, 47, 0
3, 39120, Note_on_c, 1, 45, 110
3, 39166, Note_on_c, 1, 45, 0
3, 39168, Note_on_c, 1, 50, 110
3, 39214, Note_on_c, 1, 50, 0
3, 39216, Note_on_c, 1, 57, 110
3, 39262, Note_on_c, 1, 57, 0
3, 39264, Note_on_c, 1, 59, 110
3, 39310, Note_on_c, 1, 59, 0
3, 39312, Note_on_c, 1, 61, 110
3, 39358, Note_on_c, 1, 61, 0
3, 39360, Note_on_c, 1, 62, 110
3, 39406, Note_on_c, 1, 62, 0
3, 39408, Note_on_c, 1, 64, 110
3, 39454, Note_on_c, 1, 64, 0
3, 39456, Note_on_c, 1, 66, 110
3, 39488, Note_on_c, 1, 66, 0
3, 39552, Note_on_c, 1, 55, 110
3, 39598, Note_on_c, 1, 55, 0
3, 39600, Note_on_c, 1, 54, 110
3, 39646, Note_on_c, 1, 54, 0
3, 39648, Note_on_c, 1, 52, 110
3, 39694, Note_on_c, 1, 52, 0
3, 39696, Note_on_c, 1, 50, 110
3, 39742, Note_on_c, 1, 50, 0
3, 39744, Note_on_c, 1, 55, 110
3, 39776, Note_on_c, 1, 55, 0
3, 39840, Note_on_c, 1, 52, 110
3, 39872, Note_on_c, 1, 52, 0
3, 39936, Note_on_c, 1, 48, 110
3, 39968, Note_on_c, 1, 48, 0
3, 40032, Note_on_c, 1, 45, 110
3, 40064, Note_on_c, 1, 45, 0
3, 40128, Note_on_c, 1, 50, 110
3, 40160, Note_on_c, 1, 50, 0
3, 40224, Note_on_c, 1, 38, 110
3, 40256, Note_on_c, 1, 38, 0
3, 40320, Note_on_c, 1, 43, 110
3, 40414, Note_on_c, 1, 43, 0
3, 40656, Note_on_c, 1, 62, 110
3, 40702, Note_on_c, 1, 62, 0
3, 40704, Note_on_c, 1, 64, 110
3, 40750, Note_on_c, 1, 64, 0
3, 40752, Note_on_c, 1, 65, 110
3, 40798, Note_on_c, 1, 65, 0
3, 40800, Note_on_c, 1, 59, 110
3, 40846, Note_on_c, 1, 59, 0
3, 40848, Note_on_c, 1, 62, 110
3, 40894, Note_on_c, 1, 62, 0
3, 40896, Note_on_c, 1, 55, 110
3, 40942, Note_on_c, 1, 55, 0
3, 40944, Note_on_c, 1, 59, 110
3, 40990, Note_on_c, 1, 59, 0
3, 40992, Note_on_c, 1, 60, 110
3, 41038, Note_on_c, 1, 60, 0
3, 41040, Note_on_c, 1, 62, 110
3, 41086, Note_on_c, 1, 62, 0
3, 41088, Note_on_c, 1, 55, 110
3, 41134, Note_on_c, 1, 55, 0
3, 41136, Note_on_c, 1, 59, 110
3, 41182, Note_on_c, 1, 59, 0
3, 41184, Note_on_c, 1, 50, 110
3, 41230, Note_on_c, 1, 50, 0
3, 41232, Note_on_c, 1, 53, 110
3, 41278, Note_on_c, 1, 53, 0
3, 41280, Note_on_c, 1, 55, 110
3, 41326, Note_on_c, 1, 55, 0
3, 41328, Note_on_c, 1, 57, 110
3, 41374, Note_on_c, 1, 57, 0
3, 41376, Note_on_c, 1, 50, 110
3, 41422, Note_on_c, 1, 50, 0
3, 41424, Note_on_c, 1, 53, 110
3, 41470, Note_on_c, 1, 53, 0
3, 41472, Note_on_c, 1, 47, 110
3, 41518, Note_on_c, 1, 47, 0
3, 41520, Note_on_c, 1, 50, 110
3, 41566, Note_on_c, 1, 50, 0
3, 41568, Note_on_c, 1, 52, 110
3, 41614, Note_on_c, 1, 52, 0
3, 41616, Note_on_c, 1, 53, 110
3, 41662, Note_on_c, 1, 53, 0
3, 41664, Note_on_c, 1, 47, 110
3, 41710, Note_on_c, 1, 47, 0
3, 41712, Note_on_c, 1, 50, 110
3, 41758, Note_on_c, 1, 50, 0
3, 41760, Note_on_c, 1, 43, 110
3, 41792, Note_on_c, 1, 43, 0
3, 41856, Note_on_c, 1, 45, 110
3, 41888, Note_on_c, 1, 45, 0
3, 41952, Note_on_c, 1, 47, 110
3, 41984, Note_on_c, 1, 47, 0
3, 42048, Note_on_c, 1, 48, 110
3, 42094, Note_on_c, 1, 48, 0
3, 42096, Note_on_c, 1, 50, 110
3, 42142, Note_on_c, 1, 50, 0
3, 42144, Note_on_c, 1, 52, 110
3, 42190, Note_on_c, 1, 52, 0
3, 42192, Note_on_c, 1, 54, 110
3, 42238, Note_on_c, 1, 54, 0
3, 42240, Note_on_c, 1, 55, 110
3, 42286, Note_on_c, 1, 55, 0
3, 42288, Note_on_c, 1, 57, 110
3, 42334, Note_on_c, 1, 57, 0
3, 42336, Note_on_c, 1, 59, 110
3, 42382, Note_on_c, 1, 59, 0
3, 42384, Note_on_c, 1, 62, 110
3, 42430, Note_on_c, 1, 62, 0
3, 42432, Note_on_c, 1, 60, 110
3, 42478, Note_on_c, 1, 60, 0
3, 42480, Note_on_c, 1, 59, 110
3, 42526, Note_on_c, 1, 59, 0
3, 42528, Note_on_c, 1, 57, 110
3, 42574, Note_on_c, 1, 57, 0
3, 42576, Note_on_c, 1, 55, 110
3, 42622, Note_on_c, 1, 55, 0
3, 42624, Note_on_c, 1, 54, 110
3, 42670, Note_on_c, 1, 54, 0
3, 42672, Note_on_c, 1, 57, 110
3, 42718, Note_on_c, 1, 57, 0
3, 42720, Note_on_c, 1, 55, 110
3, 42766, Note_on_c, 1, 55, 0
3, 42768, Note_on_c, 1, 54, 110
3, 42814, Note_on_c, 1, 54, 0
3, 42816, Note_on_c, 1, 52, 110
3, 42862, Note_on_c, 1, 52, 0
3, 42864, Note_on_c, 1, 50, 110
3, 42910, Note_on_c, 1, 50, 0
3, 42912, Note_on_c, 1, 55, 110
3, 42944, Note_on_c, 1, 55, 0
3, 43008, Note_on_c, 1, 52, 110
3, 43040, Note_on_c, 1, 52, 0
3, 43104, Note_on_c, 1, 48, 110
3, 43136, Note_on_c, 1, 48, 0
3, 43200, Note_on_c, 1, 55, 110
3, 43232, Note_on_c, 1, 55, 0
3, 43296, Note_on_c, 1, 47, 110
3, 43328, Note_on_c, 1, 47, 0
3, 43392, Note_on_c, 1, 52, 110
3, 43424, Note_on_c, 1, 52, 0
3, 43488, Note_on_c, 1, 48, 110
3, 43520, Note_on_c, 1, 48, 0
3, 43584, Note_on_c, 1, 50, 110
3, 43616, Note_on_c, 1, 50, 0
3, 43680, Note_on_c, 1, 38, 110
3, 43712, Note_on_c, 1, 38, 0
3, 43776, Note_on_c, 1, 43, 110
3, 44880, Note_on_c, 1, 43, 0
3, 44880, End_track
4, 0, Start_track
4, 0, MIDI_port, 0
4, 0, Title_t, "Johann Sebastian Bach  (1685-1750)"
4, 0, End_track
5, 0, Start_track
5, 0, MIDI_port, 0
5, 0, Title_t, "Clavierubung Part III - Four Duets"
5, 0, End_track
6, 0, Start_track
6, 0, MIDI_port, 0
6, 0, Title_t, "Duet No. 3 in G major - BWV 804"
6, 0, End_track
7, 0, Start_track
7, 0, MIDI_port, 0
7, 0, End_track
8, 0, Start_track
8, 0, MIDI_port, 0
8, 0, Title_t, "Sequenced by David Jao "
8, 0, End_track
9, 0, Start_track
9, 0, MIDI_port, 0
9, 0, Title_t, "with NoteWorthy Composer"
9, 0, End_track
0, 0, End_of_file
