0, 0, Header, 1, 3, 384
1, 0, Start_track
1, 0, Time_signature, 4, 2, 24, 8
1, 0, Tempo, 500000
1, 218112, End_track
2, 0, Start_track
2, 0, Text_t, "harpsichord: John Sankey"
2, 0, Program_c, 0, 6
2, 0, Pitch_bend_c, 0, 8192
2, 0, Program_c, 1, 6
2, 0, Pitch_bend_c, 1, 7792
2, 0, Program_c, 2, 6
2, 0, Pitch_bend_c, 2, 7876
2, 0, Program_c, 3, 6
2, 0, Pitch_bend_c, 3, 7952
2, 0, Program_c, 4, 6
2, 0, Pitch_bend_c, 4, 7792
2, 0, Program_c, 5, 6
2, 0, Pitch_bend_c, 5, 8112
2, 0, Program_c, 6, 6
2, 0, Pitch_bend_c, 6, 7712
2, 0, Program_c, 7, 6
2, 0, Pitch_bend_c, 7, 8037
2, 0, Program_c, 8, 6
2, 0, Pitch_bend_c, 8, 7872
2, 0, Program_c, 10, 6
2, 0, Pitch_bend_c, 10, 7712
2, 0, Program_c, 11, 6
2, 0, Pitch_bend_c, 11, 8032
2, 0, Program_c, 12, 6
2, 0, Pitch_bend_c, 12, 7872
2, 0, Title_t, "Track 1"
2, 64, Note_on_c, 10, 57, 127
2, 64, Note_on_c, 6, 54, 127
2, 457, Note_on_c, 1, 73, 127
2, 846, Note_off_c, 1, 73, 127
2, 847, Note_off_c, 10, 57, 127
2, 851, Note_on_c, 2, 74, 127
2, 851, Note_on_c, 12, 59, 127
2, 1048, Note_on_c, 1, 73, 127
2, 1116, Note_off_c, 2, 74, 127
2, 1240, Note_off_c, 1, 73, 127
2, 1245, Note_on_c, 12, 71, 127
2, 1437, Note_off_c, 12, 71, 127
2, 1442, Note_on_c, 2, 74, 127
2, 1634, Note_off_c, 2, 74, 127
2, 1634, Note_off_c, 12, 59, 127
2, 1639, Note_on_c, 1, 73, 127
2, 1639, Note_on_c, 10, 57, 127
2, 1836, Note_on_c, 12, 71, 127
2, 1904, Note_off_c, 1, 73, 127
2, 2028, Note_off_c, 12, 71, 127
2, 2032, Note_on_c, 10, 69, 127
2, 2224, Note_off_c, 10, 69, 127
2, 2229, Note_on_c, 1, 73, 127
2, 2421, Note_off_c, 1, 73, 127
2, 2422, Note_off_c, 10, 57, 127
2, 2426, Note_on_c, 12, 71, 127
2, 2426, Note_on_c, 8, 56, 127
2, 2622, Note_on_c, 10, 69, 127
2, 2691, Note_off_c, 12, 71, 127
2, 2814, Note_off_c, 10, 69, 127
2, 2819, Note_on_c, 8, 68, 127
2, 3011, Note_off_c, 8, 68, 127
2, 3016, Note_on_c, 12, 71, 127
2, 3200, Note_off_c, 6, 54, 127
2, 3208, Note_off_c, 12, 71, 127
2, 3209, Note_off_c, 8, 56, 127
2, 3213, Note_on_c, 10, 69, 127
2, 3213, Note_on_c, 6, 54, 127
2, 3213, Note_on_c, 6, 42, 127
2, 3410, Note_on_c, 8, 68, 127
2, 3478, Note_off_c, 10, 69, 127
2, 3602, Note_off_c, 8, 68, 127
2, 3602, Note_off_c, 6, 54, 127
2, 3607, Note_on_c, 6, 66, 127
2, 3607, Note_on_c, 6, 54, 127
2, 3785, Note_off_c, 6, 42, 127
2, 3799, Note_off_c, 6, 66, 127
2, 3804, Note_on_c, 10, 69, 127
2, 3996, Note_off_c, 10, 69, 127
2, 3996, Note_off_c, 6, 54, 127
2, 4001, Note_on_c, 1, 73, 127
2, 4001, Note_on_c, 10, 57, 127
2, 4193, Note_off_c, 10, 57, 127
2, 4198, Note_on_c, 8, 56, 127
2, 4390, Note_off_c, 8, 56, 127
2, 4395, Note_on_c, 10, 81, 127
2, 4395, Note_on_c, 6, 54, 127
2, 4587, Note_off_c, 6, 54, 127
2, 4592, Note_on_c, 10, 57, 127
2, 4778, Note_off_c, 1, 73, 127
2, 4784, Note_off_c, 10, 57, 127
2, 4788, Note_on_c, 0, 72, 127
2, 4788, Note_on_c, 8, 56, 127
2, 4905, Note_off_c, 10, 81, 127
2, 4980, Note_off_c, 8, 56, 127
2, 4985, Note_on_c, 6, 54, 127
2, 5177, Note_off_c, 6, 54, 127
2, 5181, Note_on_c, 8, 80, 127
2, 5181, Note_on_c, 4, 52, 127
2, 5373, Note_off_c, 4, 52, 127
2, 5378, Note_on_c, 8, 56, 127
2, 5565, Note_off_c, 0, 72, 127
2, 5570, Note_off_c, 8, 56, 127
2, 5575, Note_on_c, 8, 68, 127
2, 5575, Note_on_c, 6, 54, 127
2, 5691, Note_off_c, 8, 80, 127
2, 5767, Note_off_c, 6, 54, 127
2, 5772, Note_on_c, 4, 52, 127
2, 5964, Note_off_c, 4, 52, 127
2, 5969, Note_on_c, 6, 78, 127
2, 5969, Note_on_c, 3, 51, 127
2, 6161, Note_off_c, 3, 51, 127
2, 6166, Note_on_c, 6, 54, 127
2, 6352, Note_off_c, 8, 68, 127
2, 6358, Note_off_c, 6, 54, 127
2, 6358, Note_off_c, 6, 78, 127
2, 6363, Note_on_c, 1, 73, 127
2, 6363, Note_on_c, 4, 52, 127
2, 6555, Note_off_c, 4, 52, 127
2, 6559, Note_on_c, 3, 51, 127
2, 6751, Note_off_c, 3, 51, 127
2, 6756, Note_on_c, 4, 76, 127
2, 6756, Note_on_c, 1, 49, 127
2, 6935, Note_off_c, 1, 73, 127
2, 6948, Note_off_c, 1, 49, 127
2, 6953, Note_on_c, 4, 52, 127
2, 7135, Note_off_c, 4, 76, 127
2, 7145, Note_off_c, 4, 52, 127
2, 7150, Note_on_c, 10, 69, 127
2, 7150, Note_on_c, 6, 54, 127
2, 7342, Note_off_c, 10, 69, 127
2, 7347, Note_on_c, 8, 68, 127
2, 7539, Note_off_c, 8, 68, 127
2, 7539, Note_off_c, 6, 54, 127
2, 7543, Note_on_c, 6, 66, 127
2, 7543, Note_on_c, 10, 57, 127
2, 7735, Note_off_c, 6, 66, 127
2, 7740, Note_on_c, 10, 69, 127
2, 7932, Note_off_c, 10, 69, 127
2, 7932, Note_off_c, 10, 57, 127
2, 7937, Note_on_c, 12, 71, 127
2, 7937, Note_on_c, 2, 50, 127
2, 8129, Note_off_c, 2, 50, 127
2, 8134, Note_on_c, 1, 49, 127
2, 8326, Note_off_c, 1, 49, 127
2, 8331, Note_on_c, 2, 74, 127
2, 8331, Note_on_c, 12, 47, 127
2, 8523, Note_off_c, 12, 47, 127
2, 8528, Note_on_c, 2, 50, 127
2, 8674, Note_off_c, 12, 71, 127
2, 8720, Note_off_c, 2, 50, 127
2, 8720, Note_off_c, 2, 74, 127
2, 8725, Note_on_c, 8, 68, 127
2, 8725, Note_on_c, 4, 52, 127
2, 8917, Note_off_c, 8, 68, 127
2, 8922, Note_on_c, 6, 66, 127
2, 9114, Note_off_c, 6, 66, 127
2, 9114, Note_off_c, 4, 52, 127
2, 9119, Note_on_c, 4, 64, 127
2, 9119, Note_on_c, 8, 56, 127
2, 9311, Note_off_c, 4, 64, 127
2, 9316, Note_on_c, 8, 68, 127
2, 9508, Note_off_c, 8, 68, 127
2, 9508, Note_off_c, 8, 56, 127
2, 9513, Note_on_c, 10, 69, 127
2, 9513, Note_on_c, 1, 49, 127
2, 9705, Note_off_c, 1, 49, 127
2, 9710, Note_on_c, 12, 47, 127
2, 9902, Note_off_c, 12, 47, 127
2, 9907, Note_on_c, 1, 73, 127
2, 9907, Note_on_c, 10, 45, 127
2, 10099, Note_off_c, 10, 45, 127
2, 10103, Note_on_c, 1, 49, 127
2, 10168, Note_off_c, 10, 69, 127
2, 10295, Note_off_c, 1, 49, 127
2, 10296, Note_off_c, 1, 73, 127
2, 10298, Note_on_c, 12, 71, 127
2, 10298, Note_on_c, 2, 50, 127
2, 10490, Note_off_c, 2, 50, 127
2, 10495, Note_on_c, 1, 73, 127
2, 10495, Note_on_c, 1, 49, 127
2, 10677, Note_off_c, 1, 73, 127
2, 10687, Note_off_c, 1, 49, 127
2, 10692, Note_on_c, 2, 74, 127
2, 10692, Note_on_c, 12, 47, 127
2, 10706, Note_off_c, 12, 71, 127
2, 10884, Note_off_c, 12, 47, 127
2, 10889, Note_on_c, 6, 78, 127
2, 10889, Note_on_c, 2, 50, 127
2, 10936, Note_off_c, 2, 74, 127
2, 11081, Note_off_c, 2, 50, 127
2, 11081, Note_off_c, 6, 78, 127
2, 11086, Note_on_c, 10, 69, 127
2, 11086, Note_on_c, 1, 49, 127
2, 11278, Note_off_c, 1, 49, 127
2, 11283, Note_on_c, 12, 71, 127
2, 11283, Note_on_c, 12, 47, 127
2, 11393, Note_off_c, 10, 69, 127
2, 11475, Note_off_c, 12, 47, 127
2, 11475, Note_off_c, 12, 71, 127
2, 11480, Note_on_c, 1, 73, 127
2, 11480, Note_on_c, 10, 45, 127
2, 11672, Note_off_c, 10, 45, 127
2, 11677, Note_on_c, 6, 78, 127
2, 11677, Note_on_c, 1, 49, 127
2, 11704, Note_off_c, 1, 73, 127
2, 11869, Note_off_c, 1, 49, 127
2, 11869, Note_off_c, 6, 78, 127
2, 11874, Note_on_c, 8, 68, 127
2, 11874, Note_on_c, 12, 47, 127
2, 12066, Note_off_c, 12, 47, 127
2, 12071, Note_on_c, 10, 69, 127
2, 12071, Note_on_c, 10, 45, 127
2, 12181, Note_off_c, 8, 68, 127
2, 12263, Note_off_c, 10, 45, 127
2, 12263, Note_off_c, 10, 69, 127
2, 12268, Note_on_c, 12, 71, 127
2, 12268, Note_on_c, 8, 44, 127
2, 12460, Note_off_c, 8, 44, 127
2, 12465, Note_on_c, 5, 77, 127
2, 12465, Note_on_c, 12, 47, 127
2, 12512, Note_off_c, 12, 71, 127
2, 12657, Note_off_c, 12, 47, 127
2, 12657, Note_off_c, 5, 77, 127
2, 12662, Note_on_c, 6, 66, 127
2, 12662, Note_on_c, 10, 45, 127
2, 12854, Note_off_c, 10, 45, 127
2, 12859, Note_on_c, 8, 44, 127
2, 13051, Note_off_c, 8, 44, 127
2, 13055, Note_on_c, 10, 69, 127
2, 13055, Note_on_c, 6, 42, 127
2, 13247, Note_off_c, 6, 42, 127
2, 13252, Note_on_c, 10, 45, 127
2, 13399, Note_off_c, 6, 66, 127
2, 13444, Note_off_c, 10, 45, 127
2, 13444, Note_off_c, 10, 69, 127
2, 13449, Note_on_c, 12, 71, 127
2, 13449, Note_on_c, 2, 50, 127
2, 13641, Note_off_c, 12, 71, 127
2, 13646, Note_on_c, 1, 73, 127
2, 13838, Note_off_c, 1, 73, 127
2, 13838, Note_off_c, 2, 50, 127
2, 13843, Note_on_c, 2, 74, 127
2, 13843, Note_on_c, 6, 54, 127
2, 14035, Note_off_c, 2, 74, 127
2, 14040, Note_on_c, 12, 71, 127
2, 14232, Note_off_c, 12, 71, 127
2, 14232, Note_off_c, 6, 54, 127
2, 14236, Note_on_c, 8, 68, 127
2, 14236, Note_on_c, 12, 47, 127
2, 14428, Note_off_c, 12, 47, 127
2, 14433, Note_on_c, 10, 45, 127
2, 14625, Note_off_c, 10, 45, 127
2, 14630, Note_on_c, 12, 71, 127
2, 14630, Note_on_c, 8, 44, 127
2, 14822, Note_off_c, 8, 44, 127
2, 14827, Note_on_c, 12, 47, 127
2, 14973, Note_off_c, 8, 68, 127
2, 15019, Note_off_c, 12, 47, 127
2, 15019, Note_off_c, 12, 71, 127
2, 15023, Note_on_c, 1, 73, 127
2, 15023, Note_on_c, 4, 52, 127
2, 15215, Note_off_c, 1, 73, 127
2, 15220, Note_on_c, 2, 74, 127
2, 15412, Note_off_c, 2, 74, 127
2, 15412, Note_off_c, 4, 52, 127
2, 15417, Note_on_c, 4, 76, 127
2, 15417, Note_on_c, 8, 56, 127
2, 15609, Note_off_c, 4, 76, 127
2, 15614, Note_on_c, 1, 73, 127
2, 15806, Note_off_c, 1, 73, 127
2, 15806, Note_off_c, 8, 56, 127
2, 15811, Note_on_c, 10, 69, 127
2, 15811, Note_on_c, 1, 49, 127
2, 16003, Note_off_c, 1, 49, 127
2, 16007, Note_on_c, 12, 47, 127
2, 16199, Note_off_c, 12, 47, 127
2, 16204, Note_on_c, 1, 73, 127
2, 16204, Note_on_c, 10, 45, 127
2, 16396, Note_off_c, 10, 45, 127
2, 16401, Note_on_c, 1, 49, 127
2, 16588, Note_off_c, 10, 69, 127
2, 16593, Note_off_c, 1, 49, 127
2, 16593, Note_off_c, 1, 73, 127
2, 16598, Note_on_c, 6, 78, 127
2, 16598, Note_on_c, 2, 50, 127
2, 16790, Note_off_c, 2, 50, 127
2, 16795, Note_on_c, 4, 76, 127
2, 16795, Note_on_c, 4, 52, 127
2, 16863, Note_off_c, 6, 78, 127
2, 16977, Note_off_c, 4, 76, 127
2, 16987, Note_off_c, 4, 52, 127
2, 16992, Note_on_c, 2, 74, 127
2, 16992, Note_on_c, 6, 54, 127
2, 17184, Note_off_c, 6, 54, 127
2, 17189, Note_on_c, 6, 78, 127
2, 17189, Note_on_c, 10, 57, 127
2, 17359, Note_off_c, 2, 74, 127
2, 17381, Note_off_c, 10, 57, 127
2, 17381, Note_off_c, 6, 78, 127
2, 17386, Note_on_c, 4, 76, 127
2, 17386, Note_on_c, 1, 49, 127
2, 17578, Note_off_c, 1, 49, 127
2, 17583, Note_on_c, 2, 74, 127
2, 17583, Note_on_c, 2, 50, 127
2, 17651, Note_off_c, 4, 76, 127
2, 17765, Note_off_c, 2, 74, 127
2, 17775, Note_off_c, 2, 50, 127
2, 17780, Note_on_c, 1, 73, 127
2, 17780, Note_on_c, 4, 52, 127
2, 17972, Note_off_c, 4, 52, 127
2, 17976, Note_on_c, 4, 76, 127
2, 17976, Note_on_c, 10, 57, 127
2, 18147, Note_off_c, 1, 73, 127
2, 18168, Note_off_c, 10, 57, 127
2, 18168, Note_off_c, 4, 76, 127
2, 18173, Note_on_c, 2, 74, 127
2, 18173, Note_on_c, 12, 47, 127
2, 18365, Note_off_c, 12, 47, 127
2, 18370, Note_on_c, 1, 73, 127
2, 18370, Note_on_c, 1, 49, 127
2, 18438, Note_off_c, 2, 74, 127
2, 18552, Note_off_c, 1, 73, 127
2, 18562, Note_off_c, 1, 49, 127
2, 18567, Note_on_c, 12, 71, 127
2, 18567, Note_on_c, 2, 50, 127
2, 18759, Note_off_c, 2, 50, 127
2, 18763, Note_on_c, 2, 74, 127
2, 18763, Note_on_c, 8, 56, 127
2, 18851, Note_off_c, 12, 71, 127
2, 18955, Note_off_c, 8, 56, 127
2, 18955, Note_off_c, 2, 74, 127
2, 18960, Note_on_c, 1, 73, 127
2, 18960, Note_on_c, 10, 45, 127
2, 19157, Note_on_c, 12, 71, 127
2, 19185, Note_off_c, 1, 73, 127
2, 19349, Note_off_c, 12, 71, 127
2, 19349, Note_off_c, 10, 45, 127
2, 19354, Note_on_c, 10, 69, 127
2, 19354, Note_on_c, 10, 57, 127
2, 19546, Note_off_c, 10, 57, 127
2, 19546, Note_off_c, 10, 69, 127
2, 19551, Note_on_c, 8, 68, 127
2, 19551, Note_on_c, 12, 59, 127
2, 19743, Note_off_c, 12, 59, 127
2, 19743, Note_off_c, 8, 68, 127
2, 19748, Note_on_c, 10, 69, 127
2, 19748, Note_on_c, 1, 61, 127
2, 19940, Note_off_c, 1, 61, 127
2, 19944, Note_on_c, 12, 71, 127
2, 19944, Note_on_c, 12, 59, 127
2, 20136, Note_off_c, 12, 59, 127
2, 20136, Note_off_c, 12, 71, 127
2, 20141, Note_on_c, 1, 73, 127
2, 20141, Note_on_c, 10, 57, 127
2, 20333, Note_off_c, 10, 57, 127
2, 20333, Note_off_c, 1, 73, 127
2, 20338, Note_on_c, 4, 76, 127
2, 20338, Note_on_c, 1, 61, 127
2, 20485, Note_off_c, 10, 69, 127
2, 20530, Note_off_c, 1, 61, 127
2, 20530, Note_off_c, 4, 76, 127
2, 20535, Note_on_c, 8, 68, 127
2, 20535, Note_on_c, 12, 59, 127
2, 20727, Note_off_c, 12, 59, 127
2, 20732, Note_on_c, 10, 69, 127
2, 20732, Note_on_c, 10, 57, 127
2, 20924, Note_off_c, 10, 57, 127
2, 20924, Note_off_c, 10, 69, 127
2, 20929, Note_on_c, 12, 71, 127
2, 20929, Note_on_c, 8, 56, 127
2, 21121, Note_off_c, 8, 56, 127
2, 21121, Note_off_c, 12, 71, 127
2, 21126, Note_on_c, 4, 76, 127
2, 21126, Note_on_c, 12, 59, 127
2, 21272, Note_off_c, 8, 68, 127
2, 21318, Note_off_c, 12, 59, 127
2, 21318, Note_off_c, 4, 76, 127
2, 21323, Note_on_c, 6, 66, 127
2, 21323, Note_on_c, 10, 57, 127
2, 21515, Note_off_c, 10, 57, 127
2, 21519, Note_on_c, 8, 68, 127
2, 21519, Note_on_c, 8, 56, 127
2, 21711, Note_off_c, 8, 56, 127
2, 21711, Note_off_c, 8, 68, 127
2, 21716, Note_on_c, 10, 69, 127
2, 21716, Note_on_c, 6, 54, 127
2, 21908, Note_off_c, 6, 54, 127
2, 21908, Note_off_c, 10, 69, 127
2, 21912, Note_on_c, 3, 75, 127
2, 21912, Note_on_c, 10, 57, 127
2, 22018, Note_off_c, 6, 66, 127
2, 22104, Note_off_c, 10, 57, 127
2, 22104, Note_off_c, 3, 75, 127
2, 22109, Note_on_c, 4, 64, 127
2, 22109, Note_on_c, 8, 56, 127
2, 22301, Note_off_c, 8, 56, 127
2, 22306, Note_on_c, 6, 54, 127
2, 22488, Note_off_c, 4, 64, 127
2, 22498, Note_off_c, 6, 54, 127
2, 22503, Note_on_c, 8, 80, 127
2, 22503, Note_on_c, 4, 52, 127
2, 22695, Note_off_c, 4, 52, 127
2, 22700, Note_on_c, 8, 56, 127
2, 22892, Note_off_c, 8, 56, 127
2, 22897, Note_on_c, 1, 61, 127
2, 23089, Note_off_c, 8, 80, 127
2, 23094, Note_on_c, 4, 76, 127
2, 23286, Note_off_c, 4, 76, 127
2, 23286, Note_off_c, 1, 61, 127
2, 23291, Note_on_c, 1, 73, 127
2, 23291, Note_on_c, 4, 64, 127
2, 23483, Note_off_c, 1, 73, 127
2, 23488, Note_on_c, 0, 72, 127
2, 23680, Note_off_c, 0, 72, 127
2, 23680, Note_off_c, 4, 64, 127
2, 23685, Note_on_c, 1, 73, 127
2, 23685, Note_on_c, 10, 57, 127
2, 23877, Note_off_c, 10, 57, 127
2, 23882, Note_on_c, 8, 56, 127
2, 24061, Note_off_c, 1, 73, 127
2, 24074, Note_off_c, 8, 56, 127
2, 24079, Note_on_c, 10, 81, 127
2, 24079, Note_on_c, 6, 54, 127
2, 24271, Note_off_c, 6, 54, 127
2, 24275, Note_on_c, 10, 57, 127
2, 24467, Note_off_c, 10, 57, 127
2, 24472, Note_on_c, 3, 63, 127
2, 24665, Note_off_c, 10, 81, 127
2, 24669, Note_on_c, 6, 78, 127
2, 24861, Note_off_c, 6, 78, 127
2, 24861, Note_off_c, 3, 63, 127
2, 24865, Note_on_c, 3, 75, 127
2, 24865, Note_on_c, 6, 66, 127
2, 25057, Note_off_c, 3, 75, 127
2, 25062, Note_on_c, 1, 73, 127
2, 25241, Note_off_c, 6, 66, 127
2, 25254, Note_off_c, 1, 73, 127
2, 25259, Note_on_c, 0, 72, 127
2, 25259, Note_on_c, 8, 56, 127
2, 25456, Note_on_c, 3, 75, 127
2, 25645, Note_off_c, 0, 72, 127
2, 25648, Note_off_c, 3, 75, 127
2, 25652, Note_on_c, 8, 80, 127
2, 25652, Note_on_c, 4, 64, 127
2, 25849, Note_on_c, 1, 73, 127
2, 26016, Note_off_c, 8, 56, 127
2, 26038, Note_off_c, 8, 80, 127
2, 26041, Note_off_c, 1, 73, 127
2, 26046, Note_on_c, 10, 81, 127
2, 26046, Note_on_c, 6, 54, 127
2, 26238, Note_off_c, 10, 81, 127
2, 26243, Note_on_c, 8, 80, 127
2, 26429, Note_off_c, 4, 64, 127
2, 26435, Note_off_c, 8, 80, 127
2, 26440, Note_on_c, 6, 78, 127
2, 26440, Note_on_c, 3, 63, 127
2, 26632, Note_off_c, 6, 78, 127
2, 26637, Note_on_c, 10, 81, 127
2, 26803, Note_off_c, 6, 54, 127
2, 26829, Note_off_c, 10, 81, 127
2, 26834, Note_on_c, 8, 80, 127
2, 26834, Note_on_c, 4, 52, 127
2, 27026, Note_off_c, 8, 80, 127
2, 27030, Note_on_c, 6, 78, 127
2, 27217, Note_off_c, 3, 63, 127
2, 27222, Note_off_c, 6, 78, 127
2, 27227, Note_on_c, 4, 76, 127
2, 27227, Note_on_c, 1, 61, 127
2, 27419, Note_off_c, 4, 76, 127
2, 27424, Note_on_c, 8, 80, 127
2, 27591, Note_off_c, 4, 52, 127
2, 27616, Note_off_c, 8, 80, 127
2, 27621, Note_on_c, 6, 78, 127
2, 27621, Note_on_c, 3, 51, 127
2, 27813, Note_off_c, 6, 78, 127
2, 27818, Note_on_c, 4, 76, 127
2, 28004, Note_off_c, 1, 61, 127
2, 28010, Note_off_c, 4, 76, 127
2, 28015, Note_on_c, 3, 75, 127
2, 28015, Note_on_c, 0, 60, 127
2, 28207, Note_off_c, 3, 75, 127
2, 28212, Note_on_c, 6, 78, 127
2, 28358, Note_off_c, 3, 51, 127
2, 28382, Note_off_c, 0, 60, 127
2, 28404, Note_off_c, 6, 78, 127
2, 28409, Note_on_c, 4, 76, 127
2, 28409, Note_on_c, 1, 49, 127
2, 28601, Note_off_c, 4, 76, 127
2, 28606, Note_on_c, 3, 75, 127
2, 28798, Note_off_c, 3, 75, 127
2, 28803, Note_on_c, 1, 73, 127
2, 28803, Note_on_c, 1, 61, 127
2, 28995, Note_off_c, 1, 73, 127
2, 29000, Note_on_c, 5, 77, 127
2, 29186, Note_off_c, 1, 49, 127
2, 29192, Note_off_c, 5, 77, 127
2, 29192, Note_off_c, 1, 61, 127
2, 29197, Note_on_c, 8, 80, 127
2, 29197, Note_on_c, 5, 53, 127
2, 29389, Note_off_c, 5, 53, 127
2, 29394, Note_on_c, 6, 54, 127
2, 29586, Note_off_c, 6, 54, 127
2, 29590, Note_on_c, 12, 71, 127
2, 29590, Note_on_c, 8, 56, 127
2, 29782, Note_off_c, 8, 56, 127
2, 29786, Note_on_c, 5, 53, 127
2, 29966, Note_off_c, 12, 71, 127
2, 29974, Note_off_c, 8, 80, 127
2, 29978, Note_off_c, 5, 53, 127
2, 29982, Note_on_c, 10, 69, 127
2, 29982, Note_on_c, 6, 54, 127
2, 30174, Note_off_c, 6, 54, 127
2, 30174, Note_off_c, 10, 69, 127
2, 30179, Note_on_c, 8, 68, 127
2, 30179, Note_on_c, 8, 56, 127
2, 30371, Note_off_c, 8, 56, 127
2, 30371, Note_off_c, 8, 68, 127
2, 30376, Note_on_c, 6, 66, 127
2, 30376, Note_on_c, 10, 57, 127
2, 30568, Note_off_c, 10, 57, 127
2, 30568, Note_off_c, 6, 66, 127
2, 30573, Note_on_c, 1, 73, 127
2, 30573, Note_on_c, 6, 54, 127
2, 30765, Note_off_c, 6, 54, 127
2, 30765, Note_off_c, 1, 73, 127
2, 30770, Note_on_c, 6, 78, 127
2, 30770, Note_on_c, 3, 51, 127
2, 30962, Note_off_c, 3, 51, 127
2, 30967, Note_on_c, 4, 52, 127
2, 31159, Note_off_c, 4, 52, 127
2, 31164, Note_on_c, 3, 75, 127
2, 31164, Note_on_c, 6, 54, 127
2, 31356, Note_off_c, 6, 54, 127
2, 31361, Note_on_c, 3, 51, 127
2, 31540, Note_off_c, 3, 75, 127
2, 31553, Note_off_c, 3, 51, 127
2, 31558, Note_on_c, 0, 72, 127
2, 31558, Note_on_c, 8, 56, 127
2, 31688, Note_off_c, 6, 78, 127
2, 31750, Note_off_c, 0, 72, 127
2, 31755, Note_on_c, 11, 70, 127
2, 31947, Note_off_c, 11, 70, 127
2, 31947, Note_off_c, 8, 56, 127
2, 31952, Note_on_c, 8, 68, 127
2, 31952, Note_on_c, 1, 49, 127
2, 32149, Note_on_c, 4, 76, 127
2, 32339, Note_off_c, 8, 68, 127
2, 32341, Note_off_c, 1, 49, 127
2, 32346, Note_on_c, 10, 69, 127
2, 32346, Note_on_c, 6, 54, 127
2, 32538, Note_off_c, 10, 69, 127
2, 32543, Note_on_c, 8, 68, 127
2, 32557, Note_off_c, 4, 76, 127
2, 32735, Note_off_c, 8, 68, 127
2, 32735, Note_off_c, 6, 54, 127
2, 32739, Note_on_c, 6, 66, 127
2, 32739, Note_on_c, 0, 48, 127
2, 32936, Note_on_c, 3, 75, 127
2, 33126, Note_off_c, 6, 66, 127
2, 33128, Note_off_c, 0, 48, 127
2, 33133, Note_on_c, 8, 68, 127
2, 33133, Note_on_c, 4, 52, 127
2, 33325, Note_off_c, 8, 68, 127
2, 33330, Note_on_c, 6, 66, 127
2, 33344, Note_off_c, 3, 75, 127
2, 33522, Note_off_c, 6, 66, 127
2, 33522, Note_off_c, 4, 52, 127
2, 33526, Note_on_c, 4, 64, 127
2, 33526, Note_on_c, 1, 49, 127
2, 33723, Note_on_c, 1, 73, 127
2, 33913, Note_off_c, 4, 64, 127
2, 33915, Note_off_c, 1, 49, 127
2, 33920, Note_on_c, 6, 66, 127
2, 33920, Note_on_c, 3, 51, 127
2, 34049, Note_off_c, 1, 73, 127
2, 34112, Note_off_c, 6, 66, 127
2, 34117, Note_on_c, 4, 64, 127
2, 34309, Note_off_c, 4, 64, 127
2, 34309, Note_off_c, 3, 51, 127
2, 34314, Note_on_c, 3, 63, 127
2, 34314, Note_on_c, 8, 44, 127
2, 34511, Note_on_c, 0, 72, 127
2, 34559, Note_off_c, 3, 63, 127
2, 34703, Note_off_c, 0, 72, 127
2, 34703, Note_off_c, 8, 44, 127
2, 34707, Note_on_c, 1, 73, 127
2, 34707, Note_on_c, 10, 45, 127
2, 34899, Note_off_c, 1, 73, 127
2, 34904, Note_on_c, 0, 72, 127
2, 35096, Note_off_c, 0, 72, 127
2, 35096, Note_off_c, 10, 45, 127
2, 35101, Note_on_c, 1, 73, 127
2, 35101, Note_on_c, 6, 42, 127
2, 35293, Note_off_c, 1, 73, 127
2, 35298, Note_on_c, 6, 78, 127
2, 35490, Note_off_c, 6, 78, 127
2, 35490, Note_off_c, 6, 42, 127
2, 35494, Note_on_c, 4, 76, 127
2, 35494, Note_on_c, 8, 44, 127
2, 35686, Note_off_c, 8, 44, 127
2, 35691, Note_on_c, 6, 42, 127
2, 35729, Note_off_c, 4, 76, 127
2, 35732, Note_on_c, 3, 75, 127
2, 35811, Note_on_c, 4, 76, 127
2, 35830, Note_off_c, 3, 75, 127
2, 35883, Note_off_c, 6, 42, 127
2, 35888, Note_on_c, 3, 75, 127
2, 35888, Note_on_c, 8, 44, 127
2, 35889, Note_off_c, 4, 76, 127
2, 36080, Note_off_c, 3, 75, 127
2, 36085, Note_on_c, 1, 73, 127
2, 36277, Note_off_c, 1, 73, 127
2, 36277, Note_off_c, 8, 44, 127
2, 36282, Note_on_c, 1, 73, 127
2, 36282, Note_on_c, 1, 37, 127
2, 36686, Note_on_c, 8, 68, 127
2, 37065, Note_off_c, 8, 68, 127
2, 37065, Note_off_c, 1, 37, 127
2, 37070, Note_on_c, 10, 69, 127
2, 37070, Note_on_c, 6, 54, 127
2, 37262, Note_off_c, 10, 69, 127
2, 37266, Note_on_c, 8, 68, 127
2, 37458, Note_off_c, 8, 68, 127
2, 37463, Note_on_c, 6, 66, 127
2, 37655, Note_off_c, 6, 66, 127
2, 37660, Note_on_c, 10, 69, 127
2, 37852, Note_off_c, 10, 69, 127
2, 37853, Note_off_c, 6, 54, 127
2, 37857, Note_on_c, 8, 68, 127
2, 37857, Note_on_c, 4, 52, 127
2, 38049, Note_off_c, 8, 68, 127
2, 38054, Note_on_c, 6, 66, 127
2, 38246, Note_off_c, 6, 66, 127
2, 38250, Note_on_c, 4, 64, 127
2, 38442, Note_off_c, 4, 64, 127
2, 38447, Note_on_c, 8, 68, 127
2, 38639, Note_off_c, 8, 68, 127
2, 38640, Note_off_c, 4, 52, 127
2, 38644, Note_on_c, 6, 66, 127
2, 38644, Note_on_c, 3, 51, 127
2, 38836, Note_off_c, 6, 66, 127
2, 38841, Note_on_c, 4, 64, 127
2, 39033, Note_off_c, 4, 64, 127
2, 39038, Note_on_c, 3, 63, 127
2, 39230, Note_off_c, 3, 63, 127
2, 39235, Note_on_c, 6, 66, 127
2, 39418, Note_off_c, 1, 73, 127
2, 39427, Note_off_c, 6, 66, 127
2, 39427, Note_off_c, 3, 51, 127
2, 39432, Note_on_c, 4, 64, 127
2, 39432, Note_on_c, 1, 49, 127
2, 39624, Note_off_c, 1, 49, 127
2, 39628, Note_on_c, 4, 52, 127
2, 39820, Note_off_c, 4, 52, 127
2, 39825, Note_on_c, 6, 54, 127
2, 40017, Note_off_c, 6, 54, 127
2, 40022, Note_on_c, 8, 56, 127
2, 40214, Note_off_c, 8, 56, 127
2, 40215, Note_off_c, 4, 64, 127
2, 40219, Note_on_c, 6, 66, 127
2, 40219, Note_on_c, 10, 57, 127
2, 40411, Note_off_c, 10, 57, 127
2, 40416, Note_on_c, 8, 68, 127
2, 40416, Note_on_c, 8, 56, 127
2, 40504, Note_off_c, 6, 66, 127
2, 40608, Note_off_c, 8, 56, 127
2, 40608, Note_off_c, 8, 68, 127
2, 40613, Note_on_c, 10, 69, 127
2, 40613, Note_on_c, 6, 54, 127
2, 40805, Note_off_c, 6, 54, 127
2, 40805, Note_off_c, 10, 69, 127
2, 40810, Note_on_c, 1, 73, 127
2, 40810, Note_on_c, 10, 57, 127
2, 41002, Note_off_c, 10, 57, 127
2, 41006, Note_on_c, 4, 64, 127
2, 41006, Note_on_c, 8, 56, 127
2, 41095, Note_off_c, 1, 73, 127
2, 41198, Note_off_c, 8, 56, 127
2, 41202, Note_on_c, 6, 66, 127
2, 41202, Note_on_c, 6, 54, 127
2, 41291, Note_off_c, 4, 64, 127
2, 41394, Note_off_c, 6, 54, 127
2, 41394, Note_off_c, 6, 66, 127
2, 41399, Note_on_c, 8, 68, 127
2, 41399, Note_on_c, 4, 52, 127
2, 41591, Note_off_c, 4, 52, 127
2, 41591, Note_off_c, 8, 68, 127
2, 41596, Note_on_c, 1, 73, 127
2, 41596, Note_on_c, 8, 56, 127
2, 41788, Note_off_c, 8, 56, 127
2, 41793, Note_on_c, 3, 63, 127
2, 41793, Note_on_c, 6, 54, 127
2, 41881, Note_off_c, 1, 73, 127
2, 41985, Note_off_c, 6, 54, 127
2, 41990, Note_on_c, 4, 64, 127
2, 41990, Note_on_c, 4, 52, 127
2, 42078, Note_off_c, 3, 63, 127
2, 42182, Note_off_c, 4, 52, 127
2, 42182, Note_off_c, 4, 64, 127
2, 42187, Note_on_c, 6, 66, 127
2, 42187, Note_on_c, 3, 51, 127
2, 42379, Note_off_c, 3, 51, 127
2, 42379, Note_off_c, 6, 66, 127
2, 42384, Note_on_c, 0, 72, 127
2, 42384, Note_on_c, 6, 54, 127
2, 42576, Note_off_c, 6, 54, 127
2, 42576, Note_off_c, 0, 72, 127
2, 42581, Note_on_c, 1, 73, 127
2, 42581, Note_on_c, 4, 52, 127
2, 42773, Note_off_c, 4, 52, 127
2, 42778, Note_on_c, 3, 51, 127
2, 42970, Note_off_c, 3, 51, 127
2, 42975, Note_on_c, 1, 61, 127
2, 42975, Note_on_c, 1, 49, 127
2, 43167, Note_off_c, 1, 49, 127
2, 43172, Note_on_c, 12, 47, 127
2, 43358, Note_off_c, 1, 73, 127
2, 43364, Note_off_c, 12, 47, 127
2, 43364, Note_off_c, 1, 61, 127
2, 43369, Note_on_c, 4, 64, 127
2, 43369, Note_on_c, 11, 46, 127
2, 43430, Note_on_c, 6, 66, 127
2, 43491, Note_on_c, 1, 73, 127
2, 43561, Note_off_c, 11, 46, 127
2, 43566, Note_on_c, 12, 47, 127
2, 43758, Note_off_c, 12, 47, 127
2, 43763, Note_on_c, 1, 49, 127
2, 43955, Note_off_c, 1, 49, 127
2, 43959, Note_on_c, 11, 46, 127
2, 44073, Note_off_c, 1, 73, 127
2, 44095, Note_off_c, 6, 66, 127
2, 44116, Note_off_c, 4, 64, 127
2, 44151, Note_off_c, 11, 46, 127
2, 44156, Note_on_c, 2, 62, 127
2, 44156, Note_on_c, 12, 47, 127
2, 44238, Note_on_c, 6, 66, 127
2, 44319, Note_on_c, 2, 74, 127
2, 44348, Note_off_c, 12, 47, 127
2, 44353, Note_on_c, 1, 49, 127
2, 44545, Note_off_c, 1, 49, 127
2, 44549, Note_on_c, 2, 50, 127
2, 44741, Note_off_c, 2, 50, 127
2, 44746, Note_on_c, 12, 47, 127
2, 44881, Note_off_c, 2, 74, 127
2, 44893, Note_off_c, 6, 66, 127
2, 44903, Note_off_c, 2, 62, 127
2, 44938, Note_off_c, 12, 47, 127
2, 44942, Note_on_c, 1, 61, 127
2, 44942, Note_on_c, 1, 49, 127
2, 45046, Note_on_c, 4, 64, 127
2, 45134, Note_off_c, 1, 49, 127
2, 45139, Note_on_c, 2, 50, 127
2, 45148, Note_on_c, 11, 70, 127
2, 45331, Note_off_c, 2, 50, 127
2, 45336, Note_on_c, 4, 52, 127
2, 45528, Note_off_c, 4, 52, 127
2, 45533, Note_on_c, 1, 49, 127
2, 45689, Note_off_c, 1, 61, 127
2, 45690, Note_off_c, 11, 70, 127
2, 45691, Note_off_c, 4, 64, 127
2, 45725, Note_off_c, 1, 49, 127
2, 45730, Note_on_c, 12, 59, 127
2, 45730, Note_on_c, 2, 50, 127
2, 45732, Note_on_c, 6, 66, 127
2, 45734, Note_on_c, 12, 71, 127
2, 45922, Note_off_c, 12, 59, 127
2, 45926, Note_off_c, 12, 71, 127
2, 45927, Note_on_c, 10, 69, 127
2, 46119, Note_off_c, 10, 69, 127
2, 46119, Note_off_c, 6, 66, 127
2, 46124, Note_on_c, 8, 68, 127
2, 46316, Note_off_c, 8, 68, 127
2, 46321, Note_on_c, 6, 66, 127
2, 46513, Note_off_c, 6, 66, 127
2, 46513, Note_off_c, 2, 50, 127
2, 46518, Note_on_c, 4, 64, 127
2, 46518, Note_on_c, 8, 68, 127
2, 46518, Note_on_c, 2, 62, 127
2, 46710, Note_off_c, 8, 68, 127
2, 46714, Note_on_c, 10, 69, 127
2, 46906, Note_off_c, 10, 69, 127
2, 46911, Note_on_c, 12, 71, 127
2, 47103, Note_off_c, 12, 71, 127
2, 47108, Note_on_c, 8, 68, 127
2, 47213, Note_off_c, 2, 62, 127
2, 47213, Note_off_c, 4, 64, 127
2, 47300, Note_off_c, 8, 68, 127
2, 47305, Note_on_c, 6, 66, 127
2, 47305, Note_on_c, 10, 69, 127
2, 47305, Note_on_c, 1, 61, 127
2, 47497, Note_off_c, 10, 69, 127
2, 47502, Note_on_c, 12, 71, 127
2, 47694, Note_off_c, 12, 71, 127
2, 47699, Note_on_c, 1, 73, 127
2, 47891, Note_off_c, 1, 73, 127
2, 47896, Note_on_c, 10, 69, 127
2, 48000, Note_off_c, 1, 61, 127
2, 48000, Note_off_c, 6, 66, 127
2, 48088, Note_off_c, 10, 69, 127
2, 48093, Note_on_c, 8, 68, 127
2, 48093, Note_on_c, 12, 71, 127
2, 48093, Note_on_c, 12, 59, 127
2, 48285, Note_off_c, 12, 71, 127
2, 48290, Note_on_c, 1, 73, 127
2, 48482, Note_off_c, 1, 73, 127
2, 48487, Note_on_c, 2, 74, 127
2, 48679, Note_off_c, 2, 74, 127
2, 48684, Note_on_c, 12, 71, 127
2, 48788, Note_off_c, 12, 59, 127
2, 48788, Note_off_c, 8, 68, 127
2, 48876, Note_off_c, 12, 71, 127
2, 48880, Note_on_c, 10, 69, 127
2, 48880, Note_on_c, 1, 73, 127
2, 48880, Note_on_c, 10, 57, 127
2, 49072, Note_off_c, 10, 57, 127
2, 49072, Note_off_c, 1, 73, 127
2, 49077, Note_on_c, 12, 71, 127
2, 49077, Note_on_c, 12, 59, 127
2, 49267, Note_off_c, 10, 69, 127
2, 49269, Note_off_c, 12, 59, 127
2, 49269, Note_off_c, 12, 71, 127
2, 49274, Note_on_c, 10, 69, 127
2, 49274, Note_on_c, 1, 61, 127
2, 49466, Note_off_c, 1, 61, 127
2, 49466, Note_off_c, 10, 69, 127
2, 49469, Note_on_c, 8, 68, 127
2, 49469, Note_on_c, 10, 57, 127
2, 49661, Note_off_c, 10, 57, 127
2, 49661, Note_off_c, 8, 68, 127
2, 49666, Note_on_c, 6, 66, 127
2, 49666, Note_on_c, 2, 62, 127
2, 49863, Note_on_c, 4, 76, 127
2, 50053, Note_off_c, 6, 66, 127
2, 50055, Note_off_c, 4, 76, 127
2, 50055, Note_off_c, 2, 62, 127
2, 50060, Note_on_c, 2, 74, 127
2, 50060, Note_on_c, 6, 54, 127
2, 50252, Note_off_c, 2, 74, 127
2, 50257, Note_on_c, 1, 73, 127
2, 50427, Note_off_c, 6, 54, 127
2, 50449, Note_off_c, 1, 73, 127
2, 50454, Note_on_c, 12, 71, 127
2, 50454, Note_on_c, 8, 56, 127
2, 50646, Note_off_c, 8, 56, 127
2, 50646, Note_off_c, 12, 71, 127
2, 50651, Note_on_c, 10, 69, 127
2, 50651, Note_on_c, 10, 57, 127
2, 50843, Note_off_c, 10, 57, 127
2, 50843, Note_off_c, 10, 69, 127
2, 50848, Note_on_c, 8, 68, 127
2, 50848, Note_on_c, 12, 59, 127
2, 51040, Note_off_c, 12, 59, 127
2, 51040, Note_off_c, 8, 68, 127
2, 51045, Note_on_c, 6, 66, 127
2, 51045, Note_on_c, 8, 56, 127
2, 51237, Note_off_c, 8, 56, 127
2, 51237, Note_off_c, 6, 66, 127
2, 51242, Note_on_c, 5, 65, 127
2, 51242, Note_on_c, 1, 61, 127
2, 51439, Note_on_c, 2, 74, 127
2, 51629, Note_off_c, 5, 65, 127
2, 51631, Note_off_c, 2, 74, 127
2, 51631, Note_off_c, 1, 61, 127
2, 51636, Note_on_c, 1, 73, 127
2, 51636, Note_on_c, 5, 53, 127
2, 51828, Note_off_c, 1, 73, 127
2, 51833, Note_on_c, 12, 71, 127
2, 51999, Note_off_c, 5, 53, 127
2, 52025, Note_off_c, 12, 71, 127
2, 52030, Note_on_c, 10, 69, 127
2, 52030, Note_on_c, 6, 54, 127
2, 52222, Note_off_c, 6, 54, 127
2, 52222, Note_off_c, 10, 69, 127
2, 52226, Note_on_c, 8, 68, 127
2, 52226, Note_on_c, 6, 42, 127
2, 52418, Note_off_c, 6, 42, 127
2, 52418, Note_off_c, 8, 68, 127
2, 52423, Note_on_c, 6, 66, 127
2, 52423, Note_on_c, 8, 44, 127
2, 52615, Note_off_c, 8, 44, 127
2, 52615, Note_off_c, 6, 66, 127
2, 52619, Note_on_c, 4, 64, 127
2, 52619, Note_on_c, 10, 45, 127
2, 52811, Note_off_c, 10, 45, 127
2, 52811, Note_off_c, 4, 64, 127
2, 52816, Note_on_c, 2, 62, 127
2, 52816, Note_on_c, 12, 47, 127
2, 53008, Note_off_c, 12, 47, 127
2, 53013, Note_on_c, 10, 69, 127
2, 53013, Note_on_c, 1, 49, 127
2, 53205, Note_off_c, 1, 49, 127
2, 53205, Note_off_c, 10, 69, 127
2, 53210, Note_on_c, 8, 68, 127
2, 53210, Note_on_c, 2, 50, 127
2, 53402, Note_off_c, 2, 50, 127
2, 53402, Note_off_c, 8, 68, 127
2, 53407, Note_on_c, 6, 66, 127
2, 53407, Note_on_c, 12, 47, 127
2, 53593, Note_off_c, 2, 62, 127
2, 53599, Note_off_c, 12, 47, 127
2, 53599, Note_off_c, 6, 66, 127
2, 53604, Note_on_c, 5, 65, 127
2, 53604, Note_on_c, 1, 49, 127
2, 53801, Note_on_c, 3, 63, 127
2, 53993, Note_off_c, 3, 63, 127
2, 53998, Note_on_c, 1, 61, 127
2, 54176, Note_off_c, 5, 65, 127
2, 54190, Note_off_c, 1, 49, 127
2, 54195, Note_on_c, 12, 59, 127
2, 54387, Note_off_c, 12, 59, 127
2, 54391, Note_on_c, 10, 57, 127
2, 54583, Note_off_c, 10, 57, 127
2, 54584, Note_off_c, 1, 61, 127
2, 54588, Note_on_c, 12, 71, 127
2, 54588, Note_on_c, 8, 56, 127
2, 54780, Note_off_c, 8, 56, 127
2, 54780, Note_off_c, 12, 71, 127
2, 54785, Note_on_c, 10, 69, 127
2, 54785, Note_on_c, 6, 54, 127
2, 54977, Note_off_c, 6, 54, 127
2, 54977, Note_off_c, 10, 69, 127
2, 54981, Note_on_c, 8, 68, 127
2, 54981, Note_on_c, 5, 53, 127
2, 55173, Note_off_c, 5, 53, 127
2, 55173, Note_off_c, 8, 68, 127
2, 55178, Note_on_c, 10, 69, 127
2, 55178, Note_on_c, 6, 54, 127
2, 55370, Note_off_c, 6, 54, 127
2, 55370, Note_off_c, 10, 69, 127
2, 55375, Note_on_c, 12, 71, 127
2, 55375, Note_on_c, 8, 56, 127
2, 55567, Note_off_c, 8, 56, 127
2, 55567, Note_off_c, 12, 71, 127
2, 55572, Note_on_c, 1, 73, 127
2, 55572, Note_on_c, 10, 57, 127
2, 55764, Note_off_c, 10, 57, 127
2, 55764, Note_off_c, 1, 73, 127
2, 55769, Note_on_c, 2, 74, 127
2, 55769, Note_on_c, 6, 54, 127
2, 55961, Note_off_c, 6, 54, 127
2, 55961, Note_off_c, 2, 74, 127
2, 55966, Note_on_c, 6, 66, 127
2, 55966, Note_on_c, 1, 73, 127
2, 55966, Note_on_c, 2, 62, 127
2, 56183, Note_on_c, 12, 71, 127
2, 56189, Note_off_c, 1, 73, 127
2, 56258, Note_on_c, 1, 73, 127
2, 56277, Note_off_c, 12, 71, 127
2, 56331, Note_on_c, 12, 71, 127
2, 56352, Note_off_c, 1, 73, 127
2, 56355, Note_off_c, 2, 62, 127
2, 56360, Note_on_c, 2, 50, 127
2, 56404, Note_on_c, 1, 73, 127
2, 56425, Note_off_c, 12, 71, 127
2, 56479, Note_on_c, 12, 71, 127
2, 56498, Note_off_c, 1, 73, 127
2, 56573, Note_off_c, 12, 71, 127
2, 56577, Note_on_c, 1, 73, 127
2, 56743, Note_off_c, 1, 73, 127
2, 56743, Note_off_c, 6, 66, 127
2, 56749, Note_off_c, 2, 50, 127
2, 56753, Note_on_c, 1, 73, 127
2, 56753, Note_on_c, 5, 65, 127
2, 56753, Note_on_c, 1, 49, 127
2, 57142, Note_off_c, 1, 49, 127
2, 57147, Note_on_c, 1, 61, 127
2, 57536, Note_off_c, 1, 61, 127
2, 57536, Note_off_c, 5, 65, 127
2, 57536, Note_off_c, 1, 73, 127
2, 57541, Note_on_c, 8, 68, 127
2, 57541, Note_on_c, 2, 62, 127
2, 57622, Note_on_c, 12, 71, 127
2, 57705, Note_on_c, 5, 77, 127
2, 57733, Note_off_c, 2, 62, 127
2, 57738, Note_on_c, 1, 61, 127
2, 57930, Note_off_c, 1, 61, 127
2, 57934, Note_on_c, 12, 59, 127
2, 58126, Note_off_c, 12, 59, 127
2, 58131, Note_on_c, 2, 62, 127
2, 58255, Note_off_c, 5, 77, 127
2, 58271, Note_off_c, 12, 71, 127
2, 58288, Note_off_c, 8, 68, 127
2, 58323, Note_off_c, 2, 62, 127
2, 58328, Note_on_c, 10, 69, 127
2, 58328, Note_on_c, 1, 61, 127
2, 58426, Note_on_c, 1, 73, 127
2, 58520, Note_off_c, 1, 61, 127
2, 58525, Note_on_c, 6, 78, 127
2, 58525, Note_on_c, 12, 59, 127
2, 58717, Note_off_c, 12, 59, 127
2, 58722, Note_on_c, 10, 57, 127
2, 58914, Note_off_c, 10, 57, 127
2, 58919, Note_on_c, 1, 61, 127
2, 59065, Note_off_c, 1, 73, 127
2, 59073, Note_off_c, 6, 78, 127
2, 59075, Note_off_c, 10, 69, 127
2, 59111, Note_off_c, 1, 61, 127
2, 59116, Note_on_c, 5, 65, 127
2, 59116, Note_on_c, 12, 59, 127
2, 59246, Note_on_c, 1, 73, 127
2, 59308, Note_off_c, 12, 59, 127
2, 59312, Note_on_c, 10, 57, 127
2, 59378, Note_on_c, 8, 80, 127
2, 59503, Note_off_c, 5, 65, 127
2, 59504, Note_off_c, 10, 57, 127
2, 59509, Note_on_c, 8, 56, 127
2, 59701, Note_off_c, 8, 56, 127
2, 59706, Note_on_c, 12, 59, 127
2, 59828, Note_off_c, 8, 80, 127
2, 59898, Note_off_c, 12, 59, 127
2, 59903, Note_on_c, 10, 57, 127
2, 60074, Note_off_c, 1, 73, 127
2, 60095, Note_off_c, 10, 57, 127
2, 60100, Note_on_c, 1, 73, 127
2, 60100, Note_on_c, 8, 56, 127
2, 60292, Note_off_c, 8, 56, 127
2, 60292, Note_off_c, 1, 73, 127
2, 60297, Note_on_c, 6, 78, 127
2, 60297, Note_on_c, 6, 54, 127
2, 60489, Note_off_c, 6, 54, 127
2, 60489, Note_off_c, 6, 78, 127
2, 60493, Note_on_c, 4, 76, 127
2, 60493, Note_on_c, 10, 57, 127
2, 60685, Note_off_c, 10, 57, 127
2, 60685, Note_off_c, 4, 76, 127
2, 60689, Note_on_c, 2, 74, 127
2, 60689, Note_on_c, 12, 59, 127
2, 60881, Note_off_c, 12, 59, 127
2, 60881, Note_off_c, 2, 74, 127
2, 60886, Note_on_c, 1, 73, 127
2, 60886, Note_on_c, 10, 57, 127
2, 61078, Note_off_c, 10, 57, 127
2, 61078, Note_off_c, 1, 73, 127
2, 61083, Note_on_c, 12, 71, 127
2, 61083, Note_on_c, 8, 56, 127
2, 61275, Note_off_c, 8, 56, 127
2, 61275, Note_off_c, 12, 71, 127
2, 61280, Note_on_c, 2, 74, 127
2, 61280, Note_on_c, 12, 59, 127
2, 61472, Note_off_c, 12, 59, 127
2, 61472, Note_off_c, 2, 74, 127
2, 61477, Note_on_c, 1, 73, 127
2, 61477, Note_on_c, 10, 57, 127
2, 61669, Note_off_c, 10, 57, 127
2, 61669, Note_off_c, 1, 73, 127
2, 61674, Note_on_c, 12, 71, 127
2, 61674, Note_on_c, 8, 56, 127
2, 61866, Note_off_c, 8, 56, 127
2, 61866, Note_off_c, 12, 71, 127
2, 61871, Note_on_c, 10, 69, 127
2, 61871, Note_on_c, 6, 54, 127
2, 62063, Note_off_c, 6, 54, 127
2, 62063, Note_off_c, 10, 69, 127
2, 62068, Note_on_c, 1, 73, 127
2, 62068, Note_on_c, 10, 57, 127
2, 62260, Note_off_c, 10, 57, 127
2, 62260, Note_off_c, 1, 73, 127
2, 62265, Note_on_c, 12, 71, 127
2, 62265, Note_on_c, 8, 56, 127
2, 62457, Note_off_c, 8, 56, 127
2, 62457, Note_off_c, 12, 71, 127
2, 62462, Note_on_c, 10, 69, 127
2, 62462, Note_on_c, 6, 54, 127
2, 62654, Note_off_c, 6, 54, 127
2, 62654, Note_off_c, 10, 69, 127
2, 62659, Note_on_c, 8, 68, 127
2, 62659, Note_on_c, 5, 53, 127
2, 62851, Note_off_c, 5, 53, 127
2, 62851, Note_off_c, 8, 68, 127
2, 62856, Note_on_c, 12, 71, 127
2, 62856, Note_on_c, 8, 56, 127
2, 63048, Note_off_c, 8, 56, 127
2, 63048, Note_off_c, 12, 71, 127
2, 63053, Note_on_c, 10, 69, 127
2, 63053, Note_on_c, 6, 54, 127
2, 63245, Note_off_c, 10, 69, 127
2, 63250, Note_on_c, 12, 71, 127
2, 63442, Note_off_c, 12, 71, 127
2, 63442, Note_off_c, 6, 54, 127
2, 63446, Note_on_c, 1, 73, 127
2, 63446, Note_on_c, 10, 45, 127
2, 63638, Note_off_c, 10, 45, 127
2, 63638, Note_off_c, 1, 73, 127
2, 63643, Note_on_c, 2, 74, 127
2, 63643, Note_on_c, 12, 47, 127
2, 63835, Note_off_c, 12, 47, 127
2, 63840, Note_on_c, 5, 65, 127
2, 63840, Note_on_c, 1, 49, 127
2, 64030, Note_off_c, 2, 74, 127
2, 64032, Note_off_c, 1, 49, 127
2, 64032, Note_off_c, 5, 65, 127
2, 64037, Note_on_c, 2, 74, 127
2, 64037, Note_on_c, 12, 47, 127
2, 64229, Note_off_c, 12, 47, 127
2, 64229, Note_off_c, 2, 74, 127
2, 64232, Note_on_c, 1, 73, 127
2, 64232, Note_on_c, 10, 45, 127
2, 64424, Note_off_c, 10, 45, 127
2, 64424, Note_off_c, 1, 73, 127
2, 64429, Note_on_c, 12, 71, 127
2, 64429, Note_on_c, 8, 44, 127
2, 64621, Note_off_c, 8, 44, 127
2, 64621, Note_off_c, 12, 71, 127
2, 64626, Note_on_c, 10, 69, 127
2, 64626, Note_on_c, 6, 42, 127
2, 64818, Note_off_c, 10, 69, 127
2, 64823, Note_on_c, 8, 68, 127
2, 65015, Note_off_c, 8, 68, 127
2, 65015, Note_off_c, 6, 42, 127
2, 65020, Note_on_c, 10, 69, 127
2, 65020, Note_on_c, 12, 47, 127
2, 65212, Note_off_c, 10, 69, 127
2, 65217, Note_on_c, 6, 66, 127
2, 65409, Note_off_c, 6, 66, 127
2, 65409, Note_off_c, 12, 47, 127
2, 65414, Note_on_c, 6, 66, 127
2, 65414, Note_on_c, 1, 49, 127
2, 65595, Note_on_c, 5, 65, 127
2, 65598, Note_off_c, 6, 66, 127
2, 65672, Note_on_c, 6, 66, 127
2, 65689, Note_off_c, 5, 65, 127
2, 65751, Note_on_c, 5, 65, 127
2, 65766, Note_off_c, 6, 66, 127
2, 65808, Note_on_c, 1, 37, 127
2, 65828, Note_on_c, 6, 66, 127
2, 65845, Note_off_c, 5, 65, 127
2, 65902, Note_off_c, 6, 66, 127
2, 65907, Note_on_c, 5, 65, 127
2, 65986, Note_off_c, 1, 49, 127
2, 66043, Note_off_c, 5, 65, 127
2, 66045, Note_on_c, 6, 66, 127
2, 66181, Note_off_c, 6, 66, 127
2, 66197, Note_off_c, 1, 37, 127
2, 66201, Note_on_c, 6, 66, 127
2, 66201, Note_on_c, 6, 42, 127
2, 66402, Note_on_c, 10, 57, 127
2, 66598, Note_off_c, 10, 57, 127
2, 66603, Note_on_c, 12, 59, 127
2, 66799, Note_off_c, 12, 59, 127
2, 66804, Note_on_c, 1, 61, 127
2, 67000, Note_off_c, 1, 61, 127
2, 67000, Note_off_c, 6, 42, 127
2, 67005, Note_on_c, 2, 62, 127
2, 67005, Note_on_c, 12, 47, 127
2, 67201, Note_off_c, 2, 62, 127
2, 67206, Note_on_c, 1, 61, 127
2, 67402, Note_off_c, 1, 61, 127
2, 67407, Note_on_c, 12, 59, 127
2, 67603, Note_off_c, 12, 59, 127
2, 67608, Note_on_c, 2, 62, 127
2, 67804, Note_off_c, 2, 62, 127
2, 67804, Note_off_c, 12, 47, 127
2, 67809, Note_on_c, 1, 61, 127
2, 67809, Note_on_c, 10, 45, 127
2, 68005, Note_off_c, 1, 61, 127
2, 68010, Note_on_c, 12, 59, 127
2, 68206, Note_off_c, 12, 59, 127
2, 68211, Note_on_c, 10, 57, 127
2, 68407, Note_off_c, 10, 57, 127
2, 68412, Note_on_c, 1, 61, 127
2, 68608, Note_off_c, 1, 61, 127
2, 68608, Note_off_c, 10, 45, 127
2, 68613, Note_on_c, 12, 59, 127
2, 68613, Note_on_c, 8, 44, 127
2, 68809, Note_off_c, 12, 59, 127
2, 68814, Note_on_c, 10, 57, 127
2, 69010, Note_off_c, 10, 57, 127
2, 69015, Note_on_c, 8, 56, 127
2, 69211, Note_off_c, 8, 56, 127
2, 69216, Note_on_c, 12, 59, 127
2, 69402, Note_off_c, 6, 66, 127
2, 69412, Note_off_c, 12, 59, 127
2, 69412, Note_off_c, 8, 44, 127
2, 69417, Note_on_c, 10, 57, 127
2, 69417, Note_on_c, 6, 42, 127
2, 69615, Note_off_c, 6, 42, 127
2, 69620, Note_on_c, 10, 45, 127
2, 69818, Note_off_c, 10, 45, 127
2, 69823, Note_on_c, 12, 47, 127
2, 70021, Note_off_c, 12, 47, 127
2, 70026, Note_on_c, 1, 49, 127
2, 70224, Note_off_c, 1, 49, 127
2, 70225, Note_off_c, 10, 57, 127
2, 70229, Note_on_c, 12, 59, 127
2, 70229, Note_on_c, 2, 50, 127
2, 70427, Note_off_c, 2, 50, 127
2, 70432, Note_on_c, 1, 61, 127
2, 70432, Note_on_c, 1, 49, 127
2, 70630, Note_off_c, 1, 49, 127
2, 70630, Note_off_c, 1, 61, 127
2, 70635, Note_on_c, 2, 62, 127
2, 70635, Note_on_c, 12, 47, 127
2, 70833, Note_off_c, 12, 47, 127
2, 70833, Note_off_c, 2, 62, 127
2, 70838, Note_on_c, 6, 66, 127
2, 70838, Note_on_c, 2, 50, 127
2, 71030, Note_off_c, 12, 59, 127
2, 71036, Note_off_c, 2, 50, 127
2, 71041, Note_on_c, 10, 57, 127
2, 71041, Note_on_c, 1, 49, 127
2, 71237, Note_off_c, 6, 66, 127
2, 71239, Note_off_c, 1, 49, 127
2, 71244, Note_on_c, 12, 59, 127
2, 71244, Note_on_c, 12, 47, 127
2, 71442, Note_off_c, 12, 47, 127
2, 71442, Note_off_c, 12, 59, 127
2, 71447, Note_on_c, 1, 61, 127
2, 71447, Note_on_c, 10, 45, 127
2, 71645, Note_off_c, 10, 45, 127
2, 71645, Note_off_c, 1, 61, 127
2, 71650, Note_on_c, 6, 66, 127
2, 71650, Note_on_c, 1, 49, 127
2, 71842, Note_off_c, 10, 57, 127
2, 71848, Note_off_c, 1, 49, 127
2, 71853, Note_on_c, 8, 56, 127
2, 71853, Note_on_c, 12, 47, 127
2, 72060, Note_off_c, 6, 66, 127
2, 72062, Note_off_c, 12, 47, 127
2, 72064, Note_on_c, 10, 57, 127
2, 72064, Note_on_c, 10, 45, 127
2, 72273, Note_off_c, 10, 45, 127
2, 72273, Note_off_c, 10, 57, 127
2, 72275, Note_on_c, 12, 59, 127
2, 72275, Note_on_c, 8, 44, 127
2, 72468, Note_off_c, 8, 56, 127
2, 72482, Note_off_c, 8, 44, 127
2, 72482, Note_off_c, 12, 59, 127
2, 72484, Note_on_c, 5, 65, 127
2, 72484, Note_on_c, 12, 47, 127
2, 72693, Note_off_c, 12, 47, 127
2, 72693, Note_off_c, 5, 65, 127
2, 72695, Note_on_c, 6, 66, 127
2, 72695, Note_on_c, 10, 45, 127
2, 72923, Note_on_c, 2, 62, 127
2, 73147, Note_off_c, 10, 45, 127
2, 73148, Note_off_c, 2, 62, 127
2, 73151, Note_on_c, 1, 61, 127
2, 73151, Note_on_c, 12, 47, 127
2, 73376, Note_off_c, 1, 61, 127
2, 73378, Note_on_c, 12, 59, 127
2, 73603, Note_off_c, 12, 59, 127
2, 73603, Note_off_c, 12, 47, 127
2, 73605, Note_on_c, 10, 57, 127
2, 73605, Note_on_c, 1, 49, 127
2, 73850, Note_off_c, 6, 66, 127
2, 73868, Note_on_c, 6, 66, 127
2, 74123, Note_off_c, 10, 57, 127
2, 74130, Note_on_c, 8, 56, 127
2, 74130, Note_on_c, 1, 37, 127
2, 74386, Note_off_c, 6, 66, 127
2, 74393, Note_on_c, 5, 65, 127
2, 74644, Note_off_c, 1, 49, 127
2, 74650, Note_off_c, 8, 56, 127
2, 74652, Note_off_c, 5, 65, 127
2, 74652, Note_off_c, 1, 37, 127
2, 74655, Note_on_c, 10, 57, 127
2, 74655, Note_on_c, 6, 42, 127
2, 74829, Note_on_c, 1, 61, 127
2, 75004, Note_on_c, 6, 66, 127
2, 77791, Note_off_c, 6, 66, 127
2, 77793, Note_off_c, 1, 61, 127
2, 77795, Note_off_c, 6, 42, 127
2, 77795, Note_off_c, 10, 57, 127
2, 79913, Note_on_c, 6, 54, 127
2, 80429, Note_off_c, 6, 54, 127
2, 80432, Note_on_c, 8, 56, 127
2, 80948, Note_off_c, 8, 56, 127
2, 80951, Note_on_c, 10, 57, 127
2, 83026, Note_off_c, 10, 57, 127
2, 83031, Note_on_c, 8, 56, 127
2, 83288, Note_off_c, 8, 56, 127
2, 83291, Note_on_c, 11, 58, 127
2, 83548, Note_off_c, 11, 58, 127
2, 83552, Note_on_c, 12, 59, 127
2, 84587, Note_off_c, 12, 59, 127
2, 84591, Note_on_c, 11, 58, 127
2, 84848, Note_off_c, 11, 58, 127
2, 84851, Note_on_c, 8, 56, 127
2, 85108, Note_off_c, 8, 56, 127
2, 85112, Note_on_c, 11, 58, 127
2, 85369, Note_off_c, 11, 58, 127
2, 85372, Note_on_c, 0, 60, 127
2, 85629, Note_off_c, 0, 60, 127
2, 85632, Note_on_c, 1, 61, 127
2, 86408, Note_off_c, 1, 61, 127
2, 86413, Note_on_c, 12, 59, 127
2, 86670, Note_off_c, 12, 59, 127
2, 86674, Note_on_c, 10, 57, 127
2, 86931, Note_off_c, 10, 57, 127
2, 86934, Note_on_c, 1, 61, 127
2, 87191, Note_off_c, 1, 61, 127
2, 87194, Note_on_c, 12, 59, 127
2, 87451, Note_off_c, 12, 59, 127
2, 87455, Note_on_c, 10, 57, 127
2, 87712, Note_off_c, 10, 57, 127
2, 87715, Note_on_c, 10, 57, 127
2, 87846, Note_on_c, 8, 56, 127
2, 87847, Note_off_c, 10, 57, 127
2, 87977, Note_on_c, 10, 57, 127
2, 87978, Note_off_c, 8, 56, 127
2, 88106, Note_on_c, 8, 56, 127
2, 88109, Note_off_c, 10, 57, 127
2, 88238, Note_off_c, 8, 56, 127
2, 88238, Note_on_c, 10, 57, 127
2, 88368, Note_on_c, 8, 56, 127
2, 88370, Note_off_c, 10, 57, 127
2, 88491, Note_off_c, 8, 56, 127
2, 88498, Note_on_c, 6, 54, 127
2, 88621, Note_off_c, 6, 54, 127
2, 88628, Note_on_c, 8, 56, 127
2, 88751, Note_off_c, 8, 56, 127
2, 88759, Note_on_c, 6, 54, 127
2, 89277, Note_on_c, 1, 61, 127
2, 89793, Note_off_c, 1, 61, 127
2, 89797, Note_on_c, 3, 63, 127
2, 90301, Note_off_c, 6, 54, 127
2, 90315, Note_off_c, 3, 63, 127
2, 90319, Note_on_c, 4, 64, 127
2, 90586, Note_on_c, 1, 61, 127
2, 90852, Note_off_c, 1, 61, 127
2, 90857, Note_on_c, 1, 61, 127
2, 91123, Note_off_c, 1, 61, 127
2, 91127, Note_on_c, 12, 59, 127
2, 91393, Note_off_c, 12, 59, 127
2, 91396, Note_on_c, 12, 59, 127
2, 91662, Note_off_c, 12, 59, 127
2, 91667, Note_on_c, 11, 58, 127
2, 91933, Note_off_c, 11, 58, 127
2, 91938, Note_on_c, 11, 58, 127
2, 92204, Note_off_c, 11, 58, 127
2, 92207, Note_on_c, 12, 59, 127
2, 92473, Note_off_c, 12, 59, 127
2, 92475, Note_off_c, 4, 64, 127
2, 92478, Note_on_c, 12, 59, 127
2, 92478, Note_on_c, 3, 63, 127
2, 92744, Note_off_c, 3, 63, 127
2, 92744, Note_off_c, 12, 59, 127
2, 92748, Note_on_c, 10, 57, 127
2, 92748, Note_on_c, 5, 65, 127
2, 93014, Note_off_c, 5, 65, 127
2, 93014, Note_off_c, 10, 57, 127
2, 93017, Note_on_c, 10, 57, 127
2, 93017, Note_on_c, 6, 66, 127
2, 93283, Note_off_c, 10, 57, 127
2, 93288, Note_on_c, 8, 56, 127
2, 93554, Note_off_c, 8, 56, 127
2, 93559, Note_on_c, 8, 56, 127
2, 94092, Note_off_c, 6, 66, 127
2, 94096, Note_on_c, 5, 65, 127
2, 94362, Note_off_c, 5, 65, 127
2, 94368, Note_on_c, 3, 63, 127
2, 94634, Note_off_c, 3, 63, 127
2, 94637, Note_on_c, 5, 65, 127
2, 94903, Note_off_c, 5, 65, 127
2, 94905, Note_off_c, 8, 56, 127
2, 94908, Note_on_c, 11, 58, 127
2, 94908, Note_on_c, 7, 67, 127
2, 95174, Note_off_c, 7, 67, 127
2, 95174, Note_off_c, 11, 58, 127
2, 95178, Note_on_c, 0, 60, 127
2, 95178, Note_on_c, 8, 68, 127
2, 95444, Note_off_c, 0, 60, 127
2, 95449, Note_on_c, 1, 61, 127
2, 95715, Note_off_c, 1, 61, 127
2, 95718, Note_on_c, 3, 63, 127
2, 95984, Note_off_c, 8, 68, 127
2, 95988, Note_on_c, 6, 66, 127
2, 96254, Note_off_c, 6, 66, 127
2, 96255, Note_off_c, 3, 63, 127
2, 96259, Note_on_c, 8, 56, 127
2, 96259, Note_on_c, 4, 64, 127
2, 96525, Note_off_c, 4, 64, 127
2, 96529, Note_on_c, 8, 68, 127
2, 96795, Note_off_c, 8, 68, 127
2, 96796, Note_off_c, 8, 56, 127
2, 96799, Note_on_c, 1, 61, 127
2, 96799, Note_on_c, 6, 66, 127
2, 97065, Note_off_c, 6, 66, 127
2, 97069, Note_on_c, 4, 64, 127
2, 97335, Note_off_c, 4, 64, 127
2, 97339, Note_on_c, 4, 64, 127
2, 97471, Note_off_c, 4, 64, 127
2, 97474, Note_on_c, 3, 63, 127
2, 97606, Note_off_c, 3, 63, 127
2, 97607, Note_on_c, 4, 64, 127
2, 97739, Note_off_c, 4, 64, 127
2, 97742, Note_on_c, 3, 63, 127
2, 97874, Note_off_c, 3, 63, 127
2, 97876, Note_on_c, 0, 60, 127
2, 97876, Note_on_c, 4, 64, 127
2, 97879, Note_off_c, 1, 61, 127
2, 98008, Note_off_c, 4, 64, 127
2, 98010, Note_on_c, 3, 63, 127
2, 98142, Note_off_c, 3, 63, 127
2, 98145, Note_on_c, 1, 61, 127
2, 98277, Note_off_c, 1, 61, 127
2, 98278, Note_on_c, 3, 63, 127
2, 98404, Note_on_c, 1, 61, 127
2, 98408, Note_off_c, 3, 63, 127
2, 98411, Note_off_c, 0, 60, 127
2, 98694, Note_on_c, 4, 64, 127
2, 98960, Note_off_c, 4, 64, 127
2, 98964, Note_on_c, 6, 66, 127
2, 99208, Note_off_c, 1, 61, 127
2, 99230, Note_off_c, 6, 66, 127
2, 99234, Note_on_c, 12, 59, 127
2, 99234, Note_on_c, 8, 68, 127
2, 99500, Note_off_c, 8, 68, 127
2, 99500, Note_off_c, 12, 59, 127
2, 99505, Note_on_c, 1, 61, 127
2, 99505, Note_on_c, 10, 69, 127
2, 99771, Note_off_c, 1, 61, 127
2, 99775, Note_on_c, 3, 63, 127
2, 100041, Note_off_c, 3, 63, 127
2, 100045, Note_on_c, 4, 64, 127
2, 100311, Note_off_c, 10, 69, 127
2, 100316, Note_on_c, 6, 66, 127
2, 100582, Note_off_c, 6, 66, 127
2, 100585, Note_on_c, 8, 68, 127
2, 100851, Note_off_c, 8, 68, 127
2, 100851, Note_off_c, 4, 64, 127
2, 100856, Note_on_c, 1, 61, 127
2, 100856, Note_on_c, 11, 70, 127
2, 101122, Note_off_c, 11, 70, 127
2, 101122, Note_off_c, 1, 61, 127
2, 101126, Note_on_c, 3, 63, 127
2, 101126, Note_on_c, 12, 71, 127
2, 101392, Note_off_c, 3, 63, 127
2, 101397, Note_on_c, 5, 65, 127
2, 101663, Note_off_c, 5, 65, 127
2, 101666, Note_on_c, 6, 66, 127
2, 101932, Note_off_c, 12, 71, 127
2, 101936, Note_on_c, 12, 71, 127
2, 102202, Note_off_c, 12, 71, 127
2, 102203, Note_off_c, 6, 66, 127
2, 102206, Note_on_c, 6, 42, 127
2, 102206, Note_on_c, 1, 61, 127
2, 102206, Note_on_c, 12, 71, 127
2, 102478, Note_off_c, 12, 71, 127
2, 102482, Note_on_c, 10, 69, 127
2, 102754, Note_off_c, 10, 69, 127
2, 102754, Note_off_c, 1, 61, 127
2, 102754, Note_off_c, 6, 42, 127
2, 102759, Note_on_c, 8, 44, 127
2, 102759, Note_on_c, 12, 59, 127
2, 102759, Note_on_c, 10, 69, 127
2, 103031, Note_off_c, 10, 69, 127
2, 103035, Note_on_c, 8, 68, 127
2, 103307, Note_off_c, 8, 68, 127
2, 103307, Note_off_c, 12, 59, 127
2, 103307, Note_off_c, 8, 44, 127
2, 103310, Note_on_c, 10, 45, 127
2, 103310, Note_on_c, 1, 61, 127
2, 103310, Note_on_c, 8, 68, 127
2, 103582, Note_off_c, 8, 68, 127
2, 103586, Note_on_c, 6, 66, 127
2, 103858, Note_off_c, 6, 66, 127
2, 103858, Note_off_c, 1, 61, 127
2, 103862, Note_on_c, 10, 57, 127
2, 103862, Note_on_c, 6, 66, 127
2, 104134, Note_off_c, 6, 66, 127
2, 104138, Note_on_c, 4, 64, 127
2, 104410, Note_off_c, 4, 64, 127
2, 104410, Note_off_c, 10, 57, 127
2, 104413, Note_on_c, 6, 54, 127
2, 104413, Note_on_c, 4, 64, 127
2, 104685, Note_off_c, 4, 64, 127
2, 104690, Note_on_c, 3, 63, 127
2, 104961, Note_off_c, 6, 54, 127
2, 104962, Note_off_c, 3, 63, 127
2, 104966, Note_on_c, 12, 59, 127
2, 104966, Note_on_c, 3, 63, 127
2, 105238, Note_off_c, 3, 63, 127
2, 105243, Note_on_c, 4, 64, 127
2, 105513, Note_off_c, 10, 45, 127
2, 105515, Note_off_c, 4, 64, 127
2, 105518, Note_on_c, 8, 44, 127
2, 105518, Note_on_c, 4, 64, 127
2, 105790, Note_off_c, 4, 64, 127
2, 105790, Note_off_c, 8, 44, 127
2, 105795, Note_on_c, 11, 46, 127
2, 105795, Note_on_c, 2, 62, 127
2, 106067, Note_off_c, 2, 62, 127
2, 106067, Note_off_c, 11, 46, 127
2, 106070, Note_on_c, 12, 47, 127
2, 106070, Note_on_c, 2, 62, 127
2, 106342, Note_off_c, 2, 62, 127
2, 106345, Note_on_c, 1, 61, 127
2, 106615, Note_off_c, 1, 61, 127
2, 106616, Note_off_c, 12, 59, 127
2, 106622, Note_on_c, 5, 53, 127
2, 106622, Note_on_c, 1, 61, 127
2, 106894, Note_off_c, 5, 53, 127
2, 106897, Note_on_c, 1, 49, 127
2, 107169, Note_off_c, 1, 49, 127
2, 107169, Note_off_c, 12, 47, 127
2, 107174, Note_on_c, 11, 46, 127
2, 107174, Note_on_c, 6, 54, 127
2, 107446, Note_off_c, 11, 46, 127
2, 107449, Note_on_c, 8, 44, 127
2, 107718, Note_off_c, 6, 54, 127
2, 107721, Note_off_c, 8, 44, 127
2, 107726, Note_on_c, 11, 46, 127
2, 107998, Note_off_c, 11, 46, 127
2, 108001, Note_on_c, 0, 48, 127
2, 108001, Note_on_c, 3, 63, 127
2, 108273, Note_off_c, 3, 63, 127
2, 108273, Note_off_c, 0, 48, 127
2, 108277, Note_on_c, 1, 49, 127
2, 108277, Note_on_c, 5, 65, 127
2, 108546, Note_off_c, 1, 61, 127
2, 108549, Note_off_c, 5, 65, 127
2, 108553, Note_on_c, 3, 63, 127
2, 108553, Note_on_c, 6, 66, 127
2, 108825, Note_off_c, 6, 66, 127
2, 108825, Note_off_c, 3, 63, 127
2, 108828, Note_on_c, 5, 65, 127
2, 108828, Note_on_c, 8, 68, 127
2, 109102, Note_off_c, 1, 49, 127
2, 109106, Note_on_c, 12, 47, 127
2, 109376, Note_off_c, 8, 68, 127
2, 109376, Note_off_c, 5, 65, 127
2, 109378, Note_off_c, 12, 47, 127
2, 109381, Note_on_c, 10, 45, 127
2, 109381, Note_on_c, 1, 61, 127
2, 109381, Note_on_c, 6, 66, 127
2, 109653, Note_off_c, 1, 61, 127
2, 109653, Note_off_c, 10, 45, 127
2, 109657, Note_on_c, 1, 49, 127
2, 109657, Note_on_c, 4, 64, 127
2, 109929, Note_off_c, 4, 64, 127
2, 109929, Note_off_c, 1, 49, 127
2, 109929, Note_off_c, 6, 66, 127
2, 109933, Note_on_c, 12, 47, 127
2, 109933, Note_on_c, 2, 62, 127
2, 109933, Note_on_c, 6, 66, 127
2, 110205, Note_off_c, 2, 62, 127
2, 110205, Note_off_c, 12, 47, 127
2, 110210, Note_on_c, 10, 45, 127
2, 110210, Note_on_c, 1, 61, 127
2, 110482, Note_off_c, 1, 61, 127
2, 110482, Note_off_c, 10, 45, 127
2, 110485, Note_on_c, 10, 45, 127
2, 110485, Note_on_c, 12, 59, 127
2, 110619, Note_off_c, 10, 45, 127
2, 110623, Note_on_c, 8, 44, 127
2, 110757, Note_off_c, 8, 44, 127
2, 110760, Note_on_c, 10, 45, 127
2, 110894, Note_off_c, 10, 45, 127
2, 110899, Note_on_c, 8, 44, 127
2, 111032, Note_off_c, 6, 66, 127
2, 111033, Note_off_c, 8, 44, 127
2, 111037, Note_on_c, 10, 45, 127
2, 111037, Note_on_c, 5, 65, 127
2, 111171, Note_off_c, 10, 45, 127
2, 111174, Note_on_c, 8, 44, 127
2, 111308, Note_off_c, 8, 44, 127
2, 111313, Note_on_c, 6, 42, 127
2, 111447, Note_off_c, 6, 42, 127
2, 111451, Note_on_c, 8, 44, 127
2, 111585, Note_off_c, 8, 44, 127
2, 111585, Note_off_c, 5, 65, 127
2, 111588, Note_on_c, 6, 42, 127
2, 111588, Note_on_c, 6, 66, 127
2, 111861, Note_off_c, 12, 59, 127
2, 111864, Note_on_c, 10, 57, 127
2, 112136, Note_off_c, 10, 57, 127
2, 112141, Note_on_c, 12, 59, 127
2, 112413, Note_off_c, 12, 59, 127
2, 112413, Note_off_c, 6, 42, 127
2, 112417, Note_on_c, 4, 40, 127
2, 112417, Note_on_c, 1, 61, 127
2, 112689, Note_off_c, 1, 61, 127
2, 112689, Note_off_c, 4, 40, 127
2, 112692, Note_on_c, 6, 42, 127
2, 112692, Note_on_c, 2, 62, 127
2, 112964, Note_off_c, 6, 42, 127
2, 112968, Note_on_c, 8, 44, 127
2, 113240, Note_off_c, 8, 44, 127
2, 113240, Note_off_c, 6, 66, 127
2, 113245, Note_on_c, 10, 45, 127
2, 113245, Note_on_c, 4, 64, 127
2, 113517, Note_off_c, 2, 62, 127
2, 113520, Note_on_c, 1, 61, 127
2, 113792, Note_off_c, 1, 61, 127
2, 113793, Note_off_c, 4, 64, 127
2, 113796, Note_on_c, 3, 63, 127
2, 113796, Note_on_c, 6, 66, 127
2, 114068, Note_off_c, 6, 66, 127
2, 114068, Note_off_c, 3, 63, 127
2, 114073, Note_on_c, 5, 65, 127
2, 114073, Note_on_c, 8, 68, 127
2, 114345, Note_off_c, 8, 68, 127
2, 114345, Note_off_c, 5, 65, 127
2, 114348, Note_on_c, 6, 66, 127
2, 114348, Note_on_c, 10, 69, 127
2, 114621, Note_off_c, 10, 45, 127
2, 114624, Note_on_c, 12, 47, 127
2, 114896, Note_off_c, 12, 47, 127
2, 114896, Note_off_c, 10, 69, 127
2, 114900, Note_on_c, 1, 49, 127
2, 114900, Note_on_c, 8, 68, 127
2, 115172, Note_off_c, 1, 49, 127
2, 115173, Note_off_c, 6, 66, 127
2, 115176, Note_on_c, 0, 48, 127
2, 115176, Note_on_c, 6, 66, 127
2, 115448, Note_off_c, 6, 66, 127
2, 115448, Note_off_c, 0, 48, 127
2, 115452, Note_on_c, 1, 49, 127
2, 115452, Note_on_c, 4, 64, 127
2, 115724, Note_off_c, 4, 64, 127
2, 115724, Note_off_c, 1, 49, 127
2, 115727, Note_on_c, 3, 51, 127
2, 115727, Note_on_c, 3, 63, 127
2, 115999, Note_off_c, 3, 63, 127
2, 115999, Note_off_c, 3, 51, 127
2, 116004, Note_on_c, 4, 52, 127
2, 116004, Note_on_c, 1, 61, 127
2, 116276, Note_off_c, 1, 61, 127
2, 116279, Note_on_c, 12, 59, 127
2, 116551, Note_off_c, 12, 59, 127
2, 116552, Note_off_c, 8, 68, 127
2, 116556, Note_on_c, 11, 58, 127
2, 116556, Note_on_c, 6, 66, 127
2, 116829, Note_off_c, 4, 52, 127
2, 116831, Note_on_c, 6, 54, 127
2, 117103, Note_off_c, 6, 54, 127
2, 117104, Note_off_c, 11, 58, 127
2, 117108, Note_on_c, 4, 52, 127
2, 117108, Note_on_c, 0, 60, 127
2, 117380, Note_off_c, 0, 60, 127
2, 117380, Note_off_c, 4, 52, 127
2, 117383, Note_on_c, 3, 51, 127
2, 117383, Note_on_c, 1, 61, 127
2, 117655, Note_off_c, 1, 61, 127
2, 117655, Note_off_c, 3, 51, 127
2, 117659, Note_on_c, 1, 49, 127
2, 117659, Note_on_c, 3, 63, 127
2, 117931, Note_off_c, 1, 49, 127
2, 117936, Note_on_c, 0, 48, 127
2, 118208, Note_off_c, 0, 48, 127
2, 118208, Note_off_c, 6, 66, 127
2, 118211, Note_on_c, 1, 49, 127
2, 118211, Note_on_c, 4, 64, 127
2, 118484, Note_off_c, 3, 63, 127
2, 118488, Note_on_c, 3, 63, 127
2, 118760, Note_off_c, 3, 63, 127
2, 118763, Note_on_c, 1, 61, 127
2, 119036, Note_off_c, 4, 64, 127
2, 119036, Note_off_c, 1, 49, 127
2, 119039, Note_on_c, 1, 49, 127
2, 119039, Note_on_c, 6, 66, 127
2, 119311, Note_off_c, 6, 66, 127
2, 119311, Note_off_c, 1, 49, 127
2, 119311, Note_off_c, 1, 61, 127
2, 119315, Note_on_c, 2, 50, 127
2, 119315, Note_on_c, 12, 59, 127
2, 119315, Note_on_c, 7, 67, 127
2, 119587, Note_off_c, 2, 50, 127
2, 119592, Note_on_c, 4, 52, 127
2, 119863, Note_off_c, 12, 59, 127
2, 119864, Note_off_c, 4, 52, 127
2, 119867, Note_on_c, 6, 54, 127
2, 119867, Note_on_c, 11, 58, 127
2, 120139, Note_off_c, 11, 58, 127
2, 120142, Note_on_c, 12, 59, 127
2, 120414, Note_off_c, 12, 59, 127
2, 120414, Note_off_c, 7, 67, 127
2, 120419, Note_on_c, 1, 61, 127
2, 120419, Note_on_c, 6, 66, 127
2, 120691, Note_off_c, 6, 66, 127
2, 120692, Note_off_c, 6, 54, 127
2, 120695, Note_on_c, 6, 42, 127
2, 120695, Note_on_c, 4, 64, 127
2, 120967, Note_off_c, 4, 64, 127
2, 120967, Note_off_c, 6, 42, 127
2, 120970, Note_on_c, 8, 44, 127
2, 120970, Note_on_c, 2, 62, 127
2, 121242, Note_off_c, 2, 62, 127
2, 121242, Note_off_c, 8, 44, 127
2, 121244, Note_off_c, 1, 61, 127
2, 121246, Note_on_c, 11, 46, 127
2, 121246, Note_on_c, 1, 61, 127
2, 121518, Note_off_c, 11, 46, 127
2, 121523, Note_on_c, 12, 47, 127
2, 121523, Note_on_c, 2, 62, 127
2, 121790, Note_off_c, 1, 61, 127
2, 121799, Note_on_c, 1, 61, 127
2, 122071, Note_off_c, 1, 61, 127
2, 122074, Note_on_c, 12, 59, 127
2, 122348, Note_off_c, 2, 62, 127
2, 122348, Note_off_c, 12, 47, 127
2, 122351, Note_on_c, 12, 47, 127
2, 122351, Note_on_c, 4, 64, 127
2, 122622, Note_off_c, 12, 59, 127
2, 122623, Note_off_c, 4, 64, 127
2, 122623, Note_off_c, 12, 47, 127
2, 122627, Note_on_c, 1, 49, 127
2, 122627, Note_on_c, 10, 57, 127
2, 122627, Note_on_c, 6, 66, 127
2, 122899, Note_off_c, 1, 49, 127
2, 122902, Note_on_c, 2, 50, 127
2, 123174, Note_off_c, 2, 50, 127
2, 123175, Note_off_c, 10, 57, 127
2, 123178, Note_on_c, 4, 52, 127
2, 123178, Note_on_c, 8, 56, 127
2, 123450, Note_off_c, 8, 56, 127
2, 123455, Note_on_c, 10, 57, 127
2, 123726, Note_off_c, 6, 66, 127
2, 123727, Note_off_c, 10, 57, 127
2, 123730, Note_on_c, 12, 59, 127
2, 123730, Note_on_c, 4, 64, 127
2, 124002, Note_off_c, 4, 64, 127
2, 124003, Note_off_c, 4, 52, 127
2, 124006, Note_on_c, 4, 40, 127
2, 124006, Note_on_c, 2, 62, 127
2, 124278, Note_off_c, 2, 62, 127
2, 124278, Note_off_c, 4, 40, 127
2, 124282, Note_on_c, 6, 42, 127
2, 124282, Note_on_c, 1, 61, 127
2, 124554, Note_off_c, 1, 61, 127
2, 124554, Note_off_c, 6, 42, 127
2, 124555, Note_off_c, 12, 59, 127
2, 124558, Note_on_c, 8, 44, 127
2, 124558, Note_on_c, 12, 59, 127
2, 124830, Note_off_c, 8, 44, 127
2, 124833, Note_on_c, 10, 45, 127
2, 124833, Note_on_c, 1, 61, 127
2, 125102, Note_off_c, 12, 59, 127
2, 125105, Note_off_c, 10, 45, 127
2, 125109, Note_on_c, 12, 47, 127
2, 125109, Note_on_c, 2, 62, 127
2, 125381, Note_off_c, 2, 62, 127
2, 125381, Note_off_c, 12, 47, 127
2, 125381, Note_off_c, 1, 61, 127
2, 125386, Note_on_c, 10, 45, 127
2, 125386, Note_on_c, 1, 61, 127
2, 125386, Note_on_c, 3, 63, 127
2, 125386, Note_on_c, 6, 66, 127
2, 125661, Note_off_c, 1, 61, 127
2, 125661, Note_off_c, 10, 45, 127
2, 125665, Note_on_c, 8, 44, 127
2, 125665, Note_on_c, 12, 59, 127
2, 125940, Note_off_c, 12, 59, 127
2, 125940, Note_off_c, 8, 44, 127
2, 125941, Note_off_c, 6, 66, 127
2, 125941, Note_off_c, 3, 63, 127
2, 125945, Note_on_c, 8, 44, 127
2, 125945, Note_on_c, 12, 59, 127
2, 125945, Note_on_c, 5, 65, 127
2, 125945, Note_on_c, 8, 68, 127
2, 126220, Note_off_c, 12, 59, 127
2, 126220, Note_off_c, 8, 44, 127
2, 126225, Note_on_c, 6, 42, 127
2, 126225, Note_on_c, 10, 57, 127
2, 126500, Note_off_c, 10, 57, 127
2, 126500, Note_off_c, 6, 42, 127
2, 126500, Note_off_c, 8, 68, 127
2, 126500, Note_off_c, 5, 65, 127
2, 126506, Note_on_c, 6, 42, 127
2, 126506, Note_on_c, 10, 57, 127
2, 126506, Note_on_c, 6, 66, 127
2, 126506, Note_on_c, 10, 69, 127
2, 126781, Note_off_c, 10, 57, 127
2, 126781, Note_off_c, 6, 42, 127
2, 126784, Note_on_c, 6, 54, 127
2, 126784, Note_on_c, 12, 59, 127
2, 127059, Note_off_c, 12, 59, 127
2, 127059, Note_off_c, 6, 54, 127
2, 127065, Note_on_c, 6, 54, 127
2, 127065, Note_on_c, 1, 61, 127
2, 127340, Note_off_c, 6, 54, 127
2, 127344, Note_on_c, 4, 52, 127
2, 127619, Note_off_c, 4, 52, 127
2, 127624, Note_on_c, 4, 52, 127
2, 127899, Note_off_c, 4, 52, 127
2, 127904, Note_on_c, 3, 51, 127
2, 128179, Note_off_c, 3, 51, 127
2, 128180, Note_off_c, 1, 61, 127
2, 128183, Note_on_c, 3, 51, 127
2, 128183, Note_on_c, 12, 59, 127
2, 128458, Note_off_c, 3, 51, 127
2, 128463, Note_on_c, 4, 52, 127
2, 128738, Note_off_c, 4, 52, 127
2, 128740, Note_off_c, 10, 69, 127
2, 128743, Note_on_c, 4, 52, 127
2, 128743, Note_on_c, 8, 68, 127
2, 129018, Note_off_c, 8, 68, 127
2, 129018, Note_off_c, 4, 52, 127
2, 129023, Note_on_c, 2, 50, 127
2, 129023, Note_on_c, 11, 70, 127
2, 129298, Note_off_c, 11, 70, 127
2, 129298, Note_off_c, 2, 50, 127
2, 129300, Note_off_c, 6, 66, 127
2, 129303, Note_on_c, 2, 50, 127
2, 129303, Note_on_c, 6, 66, 127
2, 129303, Note_on_c, 12, 71, 127
2, 129578, Note_off_c, 2, 50, 127
2, 129583, Note_on_c, 1, 49, 127
2, 129857, Note_off_c, 12, 59, 127
2, 129858, Note_off_c, 1, 49, 127
2, 129858, Note_off_c, 6, 66, 127
2, 129862, Note_on_c, 1, 49, 127
2, 129862, Note_on_c, 1, 61, 127
2, 129862, Note_on_c, 5, 65, 127
2, 130417, Note_off_c, 5, 65, 127
2, 130418, Note_off_c, 12, 71, 127
2, 130422, Note_on_c, 6, 66, 127
2, 130422, Note_on_c, 11, 70, 127
2, 130697, Note_off_c, 11, 70, 127
2, 130697, Note_off_c, 6, 66, 127
2, 130703, Note_on_c, 5, 65, 127
2, 130703, Note_on_c, 8, 68, 127
2, 130978, Note_off_c, 8, 68, 127
2, 130978, Note_off_c, 5, 65, 127
2, 130981, Note_on_c, 6, 66, 127
2, 130981, Note_on_c, 11, 70, 127
2, 131256, Note_off_c, 11, 70, 127
2, 131257, Note_off_c, 1, 49, 127
2, 131260, Note_on_c, 3, 51, 127
2, 131260, Note_on_c, 0, 72, 127
2, 131535, Note_off_c, 0, 72, 127
2, 131535, Note_off_c, 3, 51, 127
2, 131536, Note_off_c, 6, 66, 127
2, 131541, Note_on_c, 5, 53, 127
2, 131541, Note_on_c, 8, 68, 127
2, 131541, Note_on_c, 1, 73, 127
2, 131816, Note_off_c, 5, 53, 127
2, 131817, Note_off_c, 1, 61, 127
2, 131821, Note_on_c, 6, 54, 127
2, 131821, Note_on_c, 3, 63, 127
2, 132096, Note_off_c, 3, 63, 127
2, 132096, Note_off_c, 6, 54, 127
2, 132100, Note_on_c, 8, 56, 127
2, 132100, Note_on_c, 5, 65, 127
2, 132377, Note_off_c, 1, 73, 127
2, 132379, Note_on_c, 12, 71, 127
2, 132654, Note_off_c, 12, 71, 127
2, 132655, Note_off_c, 5, 65, 127
2, 132655, Note_off_c, 8, 56, 127
2, 132656, Note_off_c, 8, 68, 127
2, 132660, Note_on_c, 1, 49, 127
2, 132660, Note_on_c, 6, 66, 127
2, 132660, Note_on_c, 10, 69, 127
2, 132935, Note_off_c, 10, 69, 127
2, 132940, Note_on_c, 4, 64, 127
2, 132940, Note_on_c, 1, 73, 127
2, 133215, Note_off_c, 1, 73, 127
2, 133215, Note_off_c, 4, 64, 127
2, 133215, Note_off_c, 1, 49, 127
2, 133220, Note_on_c, 6, 54, 127
2, 133220, Note_on_c, 2, 62, 127
2, 133220, Note_on_c, 12, 71, 127
2, 133495, Note_off_c, 2, 62, 127
2, 133499, Note_on_c, 1, 61, 127
2, 133621, Note_on_c, 10, 69, 127
2, 133629, Note_off_c, 12, 71, 127
2, 133772, Note_off_c, 10, 69, 127
2, 133774, Note_off_c, 1, 61, 127
2, 133775, Note_off_c, 6, 66, 127
2, 133779, Note_on_c, 12, 59, 127
2, 133779, Note_on_c, 2, 62, 127
2, 133779, Note_on_c, 10, 69, 127
2, 134054, Note_off_c, 12, 59, 127
2, 134059, Note_on_c, 10, 57, 127
2, 134241, Note_on_c, 8, 68, 127
2, 134254, Note_off_c, 10, 69, 127
2, 134334, Note_off_c, 10, 57, 127
2, 134334, Note_off_c, 2, 62, 127
2, 134335, Note_off_c, 6, 54, 127
2, 134338, Note_on_c, 10, 69, 127
2, 134338, Note_on_c, 5, 53, 127
2, 134338, Note_on_c, 8, 56, 127
2, 134338, Note_on_c, 1, 61, 127
2, 134355, Note_off_c, 8, 68, 127
2, 134433, Note_on_c, 8, 68, 127
2, 134452, Note_off_c, 10, 69, 127
2, 134524, Note_on_c, 10, 69, 127
2, 134547, Note_off_c, 8, 68, 127
2, 134613, Note_off_c, 8, 56, 127
2, 134618, Note_on_c, 12, 59, 127
2, 134618, Note_on_c, 8, 68, 127
2, 134638, Note_off_c, 10, 69, 127
2, 134711, Note_on_c, 6, 66, 127
2, 134722, Note_off_c, 8, 68, 127
2, 134805, Note_on_c, 8, 68, 127
2, 134815, Note_off_c, 6, 66, 127
2, 134893, Note_off_c, 12, 59, 127
2, 134893, Note_off_c, 5, 53, 127
2, 134898, Note_on_c, 6, 54, 127
2, 134898, Note_on_c, 10, 57, 127
2, 134898, Note_on_c, 6, 66, 127
2, 134909, Note_off_c, 8, 68, 127
2, 135133, Note_off_c, 6, 66, 127
2, 135193, Note_on_c, 10, 69, 127
2, 135431, Note_off_c, 10, 57, 127
2, 135468, Note_off_c, 10, 69, 127
2, 135473, Note_on_c, 12, 71, 127
2, 135733, Note_off_c, 1, 61, 127
2, 135749, Note_off_c, 6, 54, 127
2, 135753, Note_on_c, 1, 73, 127
2, 135753, Note_on_c, 8, 68, 127
2, 135753, Note_on_c, 5, 53, 127
2, 135758, Note_off_c, 12, 71, 127
2, 136028, Note_off_c, 5, 53, 127
2, 136028, Note_off_c, 8, 68, 127
2, 136028, Note_off_c, 1, 73, 127
2, 136032, Note_on_c, 2, 74, 127
2, 136032, Note_on_c, 10, 69, 127
2, 136032, Note_on_c, 6, 54, 127
2, 136307, Note_off_c, 6, 54, 127
2, 136307, Note_off_c, 10, 69, 127
2, 136313, Note_on_c, 12, 71, 127
2, 136313, Note_on_c, 8, 56, 127
2, 136588, Note_off_c, 8, 56, 127
2, 136588, Note_off_c, 12, 71, 127
2, 136592, Note_on_c, 4, 64, 127
2, 136592, Note_on_c, 10, 57, 127
2, 136841, Note_off_c, 2, 74, 127
2, 136872, Note_on_c, 12, 71, 127
2, 137147, Note_off_c, 12, 71, 127
2, 137151, Note_on_c, 1, 73, 127
2, 137426, Note_off_c, 1, 73, 127
2, 137428, Note_off_c, 10, 57, 127
2, 137428, Note_off_c, 4, 64, 127
2, 137432, Note_on_c, 3, 75, 127
2, 137432, Note_on_c, 10, 69, 127
2, 137432, Note_on_c, 6, 54, 127
2, 137707, Note_off_c, 6, 54, 127
2, 137707, Note_off_c, 10, 69, 127
2, 137707, Note_off_c, 3, 75, 127
2, 137711, Note_on_c, 4, 76, 127
2, 137711, Note_on_c, 12, 71, 127
2, 137711, Note_on_c, 8, 56, 127
2, 137986, Note_off_c, 8, 56, 127
2, 137986, Note_off_c, 12, 71, 127
2, 137990, Note_on_c, 1, 73, 127
2, 137990, Note_on_c, 11, 58, 127
2, 138265, Note_off_c, 11, 58, 127
2, 138265, Note_off_c, 1, 73, 127
2, 138271, Note_on_c, 6, 66, 127
2, 138271, Note_on_c, 12, 59, 127
2, 138546, Note_off_c, 12, 59, 127
2, 138547, Note_off_c, 4, 76, 127
2, 138550, Note_on_c, 2, 74, 127
2, 138550, Note_on_c, 12, 47, 127
2, 138825, Note_off_c, 12, 47, 127
2, 138825, Note_off_c, 2, 74, 127
2, 138830, Note_on_c, 2, 74, 127
2, 138830, Note_on_c, 12, 47, 127
2, 139105, Note_off_c, 12, 47, 127
2, 139105, Note_off_c, 2, 74, 127
2, 139110, Note_on_c, 1, 73, 127
2, 139110, Note_on_c, 10, 45, 127
2, 139385, Note_off_c, 10, 45, 127
2, 139385, Note_off_c, 1, 73, 127
2, 139390, Note_on_c, 1, 73, 127
2, 139390, Note_on_c, 10, 45, 127
2, 139665, Note_off_c, 10, 45, 127
2, 139665, Note_off_c, 1, 73, 127
2, 139669, Note_on_c, 0, 72, 127
2, 139669, Note_on_c, 8, 44, 127
2, 139944, Note_off_c, 8, 44, 127
2, 139944, Note_off_c, 0, 72, 127
2, 139949, Note_on_c, 0, 72, 127
2, 139949, Note_on_c, 8, 44, 127
2, 140224, Note_off_c, 8, 44, 127
2, 140226, Note_off_c, 6, 66, 127
2, 140229, Note_on_c, 6, 66, 127
2, 140229, Note_on_c, 10, 57, 127
2, 140504, Note_off_c, 10, 57, 127
2, 140504, Note_off_c, 6, 66, 127
2, 140504, Note_off_c, 0, 72, 127
2, 140510, Note_on_c, 1, 73, 127
2, 140510, Note_on_c, 6, 66, 127
2, 140510, Note_on_c, 10, 57, 127
2, 140785, Note_off_c, 10, 57, 127
2, 140785, Note_off_c, 6, 66, 127
2, 140788, Note_on_c, 4, 64, 127
2, 140788, Note_on_c, 8, 56, 127
2, 141063, Note_off_c, 8, 56, 127
2, 141063, Note_off_c, 4, 64, 127
2, 141068, Note_on_c, 4, 64, 127
2, 141068, Note_on_c, 8, 56, 127
2, 141343, Note_off_c, 8, 56, 127
2, 141343, Note_off_c, 4, 64, 127
2, 141348, Note_on_c, 3, 63, 127
2, 141348, Note_on_c, 6, 54, 127
2, 141623, Note_off_c, 6, 54, 127
2, 141623, Note_off_c, 3, 63, 127
2, 141628, Note_on_c, 3, 63, 127
2, 141628, Note_on_c, 6, 54, 127
2, 141903, Note_off_c, 3, 63, 127
2, 141909, Note_on_c, 8, 68, 127
2, 142183, Note_off_c, 6, 54, 127
2, 142184, Note_off_c, 8, 68, 127
2, 142184, Note_off_c, 1, 73, 127
2, 142186, Note_on_c, 0, 72, 127
2, 142186, Note_on_c, 8, 68, 127
2, 142186, Note_on_c, 8, 56, 127
2, 142461, Note_off_c, 8, 68, 127
2, 142467, Note_on_c, 6, 66, 127
2, 142741, Note_off_c, 8, 56, 127
2, 142742, Note_off_c, 6, 66, 127
2, 142747, Note_on_c, 6, 66, 127
2, 142747, Note_on_c, 8, 44, 127
2, 143022, Note_off_c, 6, 66, 127
2, 143028, Note_on_c, 4, 64, 127
2, 143301, Note_off_c, 0, 72, 127
2, 143302, Note_off_c, 8, 44, 127
2, 143303, Note_off_c, 4, 64, 127
2, 143306, Note_on_c, 1, 73, 127
2, 143306, Note_on_c, 4, 64, 127
2, 143306, Note_on_c, 1, 49, 127
2, 143581, Note_off_c, 1, 73, 127
2, 143586, Note_on_c, 3, 75, 127
2, 143861, Note_off_c, 3, 75, 127
2, 143861, Note_off_c, 4, 64, 127
2, 143866, Note_on_c, 4, 76, 127
2, 143866, Note_on_c, 1, 73, 127
2, 144141, Note_off_c, 4, 76, 127
2, 144142, Note_off_c, 1, 49, 127
2, 144147, Note_on_c, 6, 78, 127
2, 144147, Note_on_c, 1, 49, 127
2, 144421, Note_off_c, 1, 73, 127
2, 144422, Note_off_c, 1, 49, 127
2, 144422, Note_off_c, 6, 78, 127
2, 144425, Note_on_c, 7, 79, 127
2, 144425, Note_on_c, 12, 71, 127
2, 144425, Note_on_c, 2, 50, 127
2, 144700, Note_off_c, 2, 50, 127
2, 144706, Note_on_c, 4, 52, 127
2, 144980, Note_off_c, 12, 71, 127
2, 144981, Note_off_c, 4, 52, 127
2, 144985, Note_on_c, 11, 70, 127
2, 144985, Note_on_c, 6, 54, 127
2, 145260, Note_off_c, 6, 54, 127
2, 145265, Note_on_c, 7, 55, 127
2, 145540, Note_off_c, 7, 55, 127
2, 145540, Note_off_c, 7, 79, 127
2, 145545, Note_on_c, 1, 73, 127
2, 145545, Note_on_c, 6, 54, 127
2, 145820, Note_off_c, 6, 54, 127
2, 145824, Note_on_c, 4, 52, 127
2, 146099, Note_off_c, 4, 52, 127
2, 146100, Note_off_c, 1, 73, 127
2, 146105, Note_on_c, 6, 78, 127
2, 146105, Note_on_c, 2, 50, 127
2, 146380, Note_off_c, 2, 50, 127
2, 146380, Note_off_c, 6, 78, 127
2, 146384, Note_on_c, 4, 76, 127
2, 146384, Note_on_c, 1, 49, 127
2, 146659, Note_off_c, 1, 49, 127
2, 146659, Note_off_c, 4, 76, 127
2, 146664, Note_on_c, 2, 74, 127
2, 146664, Note_on_c, 12, 47, 127
2, 146939, Note_off_c, 12, 47, 127
2, 146939, Note_off_c, 2, 74, 127
2, 146943, Note_on_c, 1, 73, 127
2, 146943, Note_on_c, 2, 50, 127
2, 147218, Note_off_c, 2, 50, 127
2, 147218, Note_off_c, 1, 73, 127
2, 147219, Note_off_c, 11, 70, 127
2, 147224, Note_on_c, 2, 74, 127
2, 147224, Note_on_c, 12, 71, 127
2, 147224, Note_on_c, 8, 44, 127
2, 147499, Note_off_c, 8, 44, 127
2, 147499, Note_off_c, 12, 71, 127
2, 147503, Note_on_c, 10, 69, 127
2, 147503, Note_on_c, 6, 42, 127
2, 147778, Note_off_c, 6, 42, 127
2, 147778, Note_off_c, 10, 69, 127
2, 147783, Note_on_c, 8, 68, 127
2, 147783, Note_on_c, 6, 42, 127
2, 148058, Note_off_c, 6, 42, 127
2, 148062, Note_on_c, 5, 41, 127
2, 148337, Note_off_c, 5, 41, 127
2, 148339, Note_off_c, 2, 74, 127
2, 148342, Note_on_c, 1, 73, 127
2, 148342, Note_on_c, 5, 41, 127
2, 148617, Note_off_c, 5, 41, 127
2, 148622, Note_on_c, 5, 53, 127
2, 148897, Note_off_c, 5, 53, 127
2, 148897, Note_off_c, 1, 73, 127
2, 148898, Note_off_c, 8, 68, 127
2, 148902, Note_on_c, 3, 75, 127
2, 148902, Note_on_c, 10, 69, 127
2, 148902, Note_on_c, 6, 54, 127
2, 149177, Note_off_c, 6, 54, 127
2, 149177, Note_off_c, 10, 69, 127
2, 149182, Note_on_c, 12, 71, 127
2, 149182, Note_on_c, 8, 56, 127
2, 149457, Note_off_c, 8, 56, 127
2, 149457, Note_off_c, 12, 71, 127
2, 149457, Note_off_c, 3, 75, 127
2, 149461, Note_on_c, 5, 77, 127
2, 149461, Note_on_c, 10, 69, 127
2, 149461, Note_on_c, 8, 56, 127
2, 149736, Note_off_c, 8, 56, 127
2, 149736, Note_off_c, 10, 69, 127
2, 149741, Note_on_c, 8, 68, 127
2, 149741, Note_on_c, 10, 57, 127
2, 150016, Note_off_c, 10, 57, 127
2, 150016, Note_off_c, 8, 68, 127
2, 150016, Note_off_c, 5, 77, 127
2, 150021, Note_on_c, 6, 78, 127
2, 150021, Note_on_c, 6, 66, 127
2, 150021, Note_on_c, 10, 57, 127
2, 150296, Note_off_c, 10, 57, 127
2, 150302, Note_on_c, 2, 62, 127
2, 150577, Note_off_c, 2, 62, 127
2, 150580, Note_on_c, 2, 62, 127
2, 150855, Note_off_c, 2, 62, 127
2, 150857, Note_off_c, 6, 66, 127
2, 150860, Note_on_c, 8, 68, 127
2, 150860, Note_on_c, 1, 61, 127
2, 151135, Note_off_c, 1, 61, 127
2, 151135, Note_off_c, 8, 68, 127
2, 151140, Note_on_c, 10, 69, 127
2, 151140, Note_on_c, 1, 61, 127
2, 151415, Note_off_c, 1, 61, 127
2, 151415, Note_off_c, 10, 69, 127
2, 151421, Note_on_c, 6, 66, 127
2, 151421, Note_on_c, 12, 59, 127
2, 151696, Note_off_c, 12, 59, 127
2, 151696, Note_off_c, 6, 66, 127
2, 151700, Note_on_c, 8, 68, 127
2, 151700, Note_on_c, 12, 59, 127
2, 151975, Note_off_c, 12, 59, 127
2, 151975, Note_off_c, 8, 68, 127
2, 151978, Note_on_c, 10, 69, 127
2, 151978, Note_on_c, 10, 57, 127
2, 152253, Note_off_c, 10, 57, 127
2, 152253, Note_off_c, 10, 69, 127
2, 152259, Note_on_c, 12, 71, 127
2, 152259, Note_on_c, 8, 56, 127
2, 152395, Note_off_c, 12, 71, 127
2, 152399, Note_on_c, 10, 69, 127
2, 152534, Note_off_c, 8, 56, 127
2, 152535, Note_off_c, 10, 69, 127
2, 152539, Note_on_c, 12, 71, 127
2, 152539, Note_on_c, 2, 62, 127
2, 152814, Note_off_c, 2, 62, 127
2, 152815, Note_off_c, 6, 78, 127
2, 152820, Note_on_c, 4, 76, 127
2, 152820, Note_on_c, 1, 61, 127
2, 153095, Note_off_c, 1, 61, 127
2, 153098, Note_on_c, 12, 59, 127
2, 153373, Note_off_c, 12, 59, 127
2, 153375, Note_off_c, 12, 71, 127
2, 153378, Note_on_c, 1, 73, 127
2, 153378, Note_on_c, 11, 58, 127
2, 153653, Note_off_c, 11, 58, 127
2, 153658, Note_on_c, 12, 59, 127
2, 153933, Note_off_c, 12, 59, 127
2, 153935, Note_off_c, 4, 76, 127
2, 153939, Note_on_c, 2, 74, 127
2, 153939, Note_on_c, 12, 59, 127
2, 154214, Note_off_c, 12, 59, 127
2, 154217, Note_on_c, 10, 57, 127
2, 154492, Note_off_c, 10, 57, 127
2, 154493, Note_off_c, 1, 73, 127
2, 154498, Note_on_c, 6, 66, 127
2, 154498, Note_on_c, 10, 57, 127
2, 154773, Note_off_c, 10, 57, 127
2, 154777, Note_on_c, 8, 56, 127
2, 155052, Note_off_c, 8, 56, 127
2, 155053, Note_off_c, 6, 66, 127
2, 155058, Note_on_c, 12, 71, 127
2, 155058, Note_on_c, 8, 56, 127
2, 155333, Note_off_c, 8, 56, 127
2, 155336, Note_on_c, 6, 54, 127
2, 155611, Note_off_c, 6, 54, 127
2, 155613, Note_off_c, 2, 74, 127
2, 155616, Note_on_c, 1, 73, 127
2, 155616, Note_on_c, 4, 52, 127
2, 155891, Note_off_c, 4, 52, 127
2, 155894, Note_off_c, 12, 71, 127
2, 155897, Note_on_c, 4, 64, 127
2, 155897, Note_on_c, 12, 59, 127
2, 156172, Note_off_c, 12, 59, 127
2, 156172, Note_off_c, 4, 64, 127
2, 156177, Note_on_c, 6, 66, 127
2, 156177, Note_on_c, 10, 57, 127
2, 156452, Note_off_c, 10, 57, 127
2, 156452, Note_off_c, 6, 66, 127
2, 156456, Note_on_c, 8, 68, 127
2, 156456, Note_on_c, 8, 56, 127
2, 156731, Note_off_c, 8, 56, 127
2, 156731, Note_off_c, 8, 68, 127
2, 156735, Note_on_c, 10, 69, 127
2, 156735, Note_on_c, 6, 54, 127
2, 157010, Note_off_c, 6, 54, 127
2, 157016, Note_on_c, 8, 56, 127
2, 157290, Note_off_c, 1, 73, 127
2, 157291, Note_off_c, 8, 56, 127
2, 157295, Note_on_c, 12, 71, 127
2, 157295, Note_on_c, 8, 56, 127
2, 157570, Note_off_c, 8, 56, 127
2, 157575, Note_on_c, 6, 54, 127
2, 157850, Note_off_c, 6, 54, 127
2, 157850, Note_off_c, 10, 69, 127
2, 157854, Note_on_c, 2, 62, 127
2, 157854, Note_on_c, 6, 54, 127
2, 158129, Note_off_c, 6, 54, 127
2, 158135, Note_on_c, 5, 53, 127
2, 158409, Note_off_c, 2, 62, 127
2, 158410, Note_off_c, 5, 53, 127
2, 158414, Note_on_c, 1, 61, 127
2, 158414, Note_on_c, 5, 53, 127
2, 158690, Note_off_c, 12, 71, 127
2, 158695, Note_on_c, 8, 68, 127
2, 158969, Note_off_c, 5, 53, 127
2, 158970, Note_off_c, 8, 68, 127
2, 158974, Note_on_c, 10, 69, 127
2, 158974, Note_on_c, 6, 54, 127
2, 159249, Note_off_c, 10, 69, 127
2, 159253, Note_on_c, 1, 73, 127
2, 159528, Note_off_c, 1, 73, 127
2, 159529, Note_off_c, 6, 54, 127
2, 159529, Note_off_c, 1, 61, 127
2, 159533, Note_on_c, 6, 78, 127
2, 159533, Note_on_c, 10, 69, 127
2, 159533, Note_on_c, 6, 42, 127
2, 159808, Note_off_c, 6, 78, 127
2, 159813, Note_on_c, 3, 75, 127
2, 160088, Note_off_c, 3, 75, 127
2, 160088, Note_off_c, 6, 42, 127
2, 160088, Note_off_c, 10, 69, 127
2, 160094, Note_on_c, 4, 76, 127
2, 160094, Note_on_c, 8, 68, 127
2, 160094, Note_on_c, 1, 49, 127
2, 160369, Note_off_c, 1, 49, 127
2, 160369, Note_off_c, 8, 68, 127
2, 160373, Note_on_c, 1, 73, 127
2, 160373, Note_on_c, 3, 51, 127
2, 160648, Note_off_c, 3, 51, 127
2, 160648, Note_off_c, 1, 73, 127
2, 160652, Note_on_c, 1, 73, 127
2, 160652, Note_on_c, 4, 52, 127
2, 160927, Note_off_c, 4, 52, 127
2, 160927, Note_off_c, 1, 73, 127
2, 160932, Note_on_c, 12, 71, 127
2, 160932, Note_on_c, 6, 54, 127
2, 161207, Note_off_c, 6, 54, 127
2, 161207, Note_off_c, 12, 71, 127
2, 161213, Note_on_c, 12, 71, 127
2, 161213, Note_on_c, 7, 55, 127
2, 161488, Note_off_c, 7, 55, 127
2, 161488, Note_off_c, 12, 71, 127
2, 161492, Note_on_c, 11, 70, 127
2, 161492, Note_on_c, 4, 52, 127
2, 161767, Note_off_c, 4, 52, 127
2, 161767, Note_off_c, 11, 70, 127
2, 161771, Note_on_c, 11, 70, 127
2, 161771, Note_on_c, 6, 54, 127
2, 162046, Note_off_c, 6, 54, 127
2, 162046, Note_off_c, 11, 70, 127
2, 162051, Note_on_c, 12, 71, 127
2, 162051, Note_on_c, 6, 42, 127
2, 162326, Note_off_c, 6, 42, 127
2, 162326, Note_off_c, 12, 71, 127
2, 162328, Note_off_c, 4, 76, 127
2, 162331, Note_on_c, 3, 75, 127
2, 162331, Note_on_c, 12, 71, 127
2, 162331, Note_on_c, 12, 47, 127
2, 162606, Note_off_c, 12, 47, 127
2, 162606, Note_off_c, 12, 71, 127
2, 162606, Note_off_c, 3, 75, 127
2, 162612, Note_on_c, 5, 77, 127
2, 162612, Note_on_c, 10, 69, 127
2, 162612, Note_on_c, 1, 49, 127
2, 162887, Note_off_c, 1, 49, 127
2, 162887, Note_off_c, 10, 69, 127
2, 162887, Note_off_c, 5, 77, 127
2, 162890, Note_on_c, 6, 78, 127
2, 162890, Note_on_c, 10, 69, 127
2, 162890, Note_on_c, 2, 50, 127
2, 163165, Note_off_c, 2, 50, 127
2, 163165, Note_off_c, 10, 69, 127
2, 163171, Note_on_c, 8, 68, 127
2, 163171, Note_on_c, 12, 47, 127
2, 163446, Note_off_c, 12, 47, 127
2, 163446, Note_off_c, 8, 68, 127
2, 163450, Note_on_c, 8, 68, 127
2, 163450, Note_on_c, 1, 49, 127
2, 163725, Note_off_c, 1, 49, 127
2, 163731, Note_on_c, 1, 37, 127
2, 164005, Note_off_c, 6, 78, 127
2, 164006, Note_off_c, 1, 37, 127
2, 164009, Note_on_c, 5, 77, 127
2, 164009, Note_on_c, 1, 49, 127
2, 164284, Note_off_c, 1, 49, 127
2, 164284, Note_off_c, 5, 77, 127
2, 164290, Note_on_c, 3, 75, 127
2, 164290, Note_on_c, 0, 48, 127
2, 164565, Note_off_c, 0, 48, 127
2, 164565, Note_off_c, 3, 75, 127
2, 164570, Note_on_c, 5, 77, 127
2, 164570, Note_on_c, 1, 49, 127
2, 164845, Note_off_c, 1, 49, 127
2, 164845, Note_off_c, 5, 77, 127
2, 164845, Note_off_c, 8, 68, 127
2, 164850, Note_on_c, 7, 79, 127
2, 164850, Note_on_c, 11, 70, 127
2, 164850, Note_on_c, 4, 52, 127
2, 165125, Note_off_c, 4, 52, 127
2, 165125, Note_off_c, 11, 70, 127
2, 165125, Note_off_c, 7, 79, 127
2, 165128, Note_on_c, 8, 80, 127
2, 165128, Note_on_c, 0, 72, 127
2, 165128, Note_on_c, 3, 51, 127
2, 165403, Note_off_c, 3, 51, 127
2, 165403, Note_off_c, 0, 72, 127
2, 165409, Note_on_c, 1, 73, 127
2, 165409, Note_on_c, 1, 49, 127
2, 165684, Note_off_c, 1, 49, 127
2, 165684, Note_off_c, 1, 73, 127
2, 165689, Note_on_c, 3, 75, 127
2, 165689, Note_on_c, 0, 48, 127
2, 165964, Note_off_c, 0, 48, 127
2, 165964, Note_off_c, 8, 80, 127
2, 165968, Note_on_c, 6, 78, 127
2, 165968, Note_on_c, 8, 44, 127
2, 166243, Note_off_c, 8, 44, 127
2, 166243, Note_off_c, 6, 78, 127
2, 166244, Note_off_c, 3, 75, 127
2, 166248, Note_on_c, 4, 76, 127
2, 166248, Note_on_c, 8, 68, 127
2, 166248, Note_on_c, 1, 49, 127
2, 166523, Note_off_c, 1, 49, 127
2, 166523, Note_off_c, 4, 76, 127
2, 166527, Note_on_c, 8, 80, 127
2, 166527, Note_on_c, 4, 52, 127
2, 166802, Note_off_c, 4, 52, 127
2, 166802, Note_off_c, 8, 80, 127
2, 166803, Note_off_c, 8, 68, 127
2, 166808, Note_on_c, 6, 78, 127
2, 166808, Note_on_c, 1, 73, 127
2, 166808, Note_on_c, 10, 57, 127
2, 167083, Note_off_c, 10, 57, 127
2, 167087, Note_on_c, 6, 54, 127
2, 167214, Note_on_c, 4, 76, 127
2, 167236, Note_off_c, 6, 78, 127
2, 167359, Note_off_c, 4, 76, 127
2, 167362, Note_off_c, 6, 54, 127
2, 167366, Note_on_c, 4, 76, 127
2, 167368, Note_on_c, 8, 56, 127
2, 167570, Note_on_c, 3, 75, 127
2, 167596, Note_off_c, 4, 76, 127
2, 167643, Note_off_c, 8, 56, 127
2, 167646, Note_on_c, 6, 54, 127
2, 167672, Note_on_c, 4, 76, 127
2, 167674, Note_off_c, 3, 75, 127
2, 167774, Note_on_c, 3, 75, 127
2, 167776, Note_off_c, 4, 76, 127
2, 167876, Note_on_c, 4, 76, 127
2, 167878, Note_off_c, 3, 75, 127
2, 167921, Note_off_c, 6, 54, 127
2, 167923, Note_off_c, 1, 73, 127
2, 167927, Note_on_c, 0, 72, 127
2, 167927, Note_on_c, 8, 56, 127
2, 167978, Note_on_c, 3, 75, 127
2, 167980, Note_off_c, 4, 76, 127
2, 168080, Note_on_c, 4, 76, 127
2, 168082, Note_off_c, 3, 75, 127
2, 168181, Note_on_c, 3, 75, 127
2, 168184, Note_off_c, 4, 76, 127
2, 168202, Note_off_c, 8, 56, 127
2, 168206, Note_on_c, 8, 44, 127
2, 168281, Note_on_c, 1, 73, 127
2, 168285, Note_off_c, 3, 75, 127
2, 168385, Note_off_c, 1, 73, 127
2, 168385, Note_on_c, 3, 75, 127
2, 168419, Note_off_c, 0, 72, 127
2, 168481, Note_off_c, 8, 44, 127
2, 168487, Note_on_c, 1, 73, 127
2, 168487, Note_on_c, 1, 49, 127
2, 168489, Note_off_c, 3, 75, 127
2, 168782, Note_on_c, 4, 76, 127
2, 168951, Note_off_c, 1, 49, 127
2, 169057, Note_off_c, 4, 76, 127
2, 169061, Note_on_c, 6, 78, 127
2, 169323, Note_off_c, 1, 73, 127
2, 169336, Note_off_c, 6, 78, 127
2, 169341, Note_on_c, 12, 71, 127
2, 169341, Note_on_c, 8, 80, 127
2, 169616, Note_off_c, 8, 80, 127
2, 169616, Note_off_c, 12, 71, 127
2, 169620, Note_on_c, 1, 73, 127
2, 169620, Note_on_c, 10, 81, 127
2, 169895, Note_off_c, 1, 73, 127
2, 169901, Note_on_c, 3, 75, 127
2, 170176, Note_off_c, 3, 75, 127
2, 170180, Note_on_c, 4, 76, 127
2, 170456, Note_off_c, 10, 81, 127
2, 170460, Note_on_c, 6, 78, 127
2, 170735, Note_off_c, 6, 78, 127
2, 170739, Note_on_c, 8, 80, 127
2, 171014, Note_off_c, 8, 80, 127
2, 171016, Note_off_c, 4, 76, 127
2, 171020, Note_on_c, 1, 73, 127
2, 171020, Note_on_c, 11, 82, 127
2, 171295, Note_off_c, 11, 82, 127
2, 171295, Note_off_c, 1, 73, 127
2, 171300, Note_on_c, 3, 75, 127
2, 171300, Note_on_c, 12, 83, 127
2, 171575, Note_off_c, 3, 75, 127
2, 171580, Note_on_c, 5, 77, 127
2, 171855, Note_off_c, 5, 77, 127
2, 171858, Note_on_c, 6, 78, 127
2, 172136, Note_off_c, 12, 83, 127
2, 172139, Note_on_c, 10, 81, 127
2, 172413, Note_off_c, 6, 78, 127
2, 172414, Note_off_c, 10, 81, 127
2, 172419, Note_on_c, 6, 54, 127
2, 172419, Note_on_c, 6, 66, 127
2, 172419, Note_on_c, 10, 81, 127
2, 172694, Note_off_c, 10, 81, 127
2, 172698, Note_on_c, 8, 80, 127
2, 172973, Note_off_c, 8, 80, 127
2, 172974, Note_off_c, 6, 66, 127
2, 172974, Note_off_c, 6, 54, 127
2, 172978, Note_on_c, 8, 56, 127
2, 172978, Note_on_c, 5, 65, 127
2, 172978, Note_on_c, 8, 80, 127
2, 173253, Note_off_c, 8, 80, 127
2, 173257, Note_on_c, 6, 78, 127
2, 173532, Note_off_c, 6, 78, 127
2, 173533, Note_off_c, 5, 65, 127
2, 173533, Note_off_c, 8, 56, 127
2, 173538, Note_on_c, 10, 57, 127
2, 173538, Note_on_c, 6, 66, 127
2, 173538, Note_on_c, 6, 78, 127
2, 173813, Note_off_c, 6, 78, 127
2, 173813, Note_off_c, 6, 66, 127
2, 173816, Note_on_c, 1, 61, 127
2, 173816, Note_on_c, 10, 81, 127
2, 173952, Note_off_c, 10, 81, 127
2, 173957, Note_on_c, 8, 80, 127
2, 174091, Note_off_c, 1, 61, 127
2, 174093, Note_off_c, 8, 80, 127
2, 174097, Note_on_c, 6, 66, 127
2, 174097, Note_on_c, 6, 78, 127
2, 174372, Note_off_c, 6, 78, 127
2, 174372, Note_off_c, 6, 66, 127
2, 174377, Note_on_c, 8, 68, 127
2, 174377, Note_on_c, 4, 76, 127
2, 174652, Note_off_c, 4, 76, 127
2, 174652, Note_off_c, 8, 68, 127
2, 174657, Note_on_c, 10, 69, 127
2, 174657, Note_on_c, 4, 76, 127
2, 174932, Note_off_c, 4, 76, 127
2, 174932, Note_off_c, 10, 69, 127
2, 174936, Note_on_c, 6, 66, 127
2, 174936, Note_on_c, 3, 75, 127
2, 175211, Note_off_c, 3, 75, 127
2, 175211, Note_off_c, 6, 66, 127
2, 175216, Note_on_c, 12, 71, 127
2, 175216, Note_on_c, 3, 75, 127
2, 175491, Note_off_c, 3, 75, 127
2, 175496, Note_on_c, 4, 76, 127
2, 175771, Note_off_c, 4, 76, 127
2, 175772, Note_off_c, 10, 57, 127
2, 175777, Note_on_c, 8, 56, 127
2, 175777, Note_on_c, 4, 76, 127
2, 176052, Note_off_c, 4, 76, 127
2, 176052, Note_off_c, 8, 56, 127
2, 176052, Note_off_c, 12, 71, 127
2, 176055, Note_on_c, 11, 58, 127
2, 176055, Note_on_c, 6, 66, 127
2, 176055, Note_on_c, 2, 74, 127
2, 176330, Note_off_c, 2, 74, 127
2, 176330, Note_off_c, 6, 66, 127
2, 176330, Note_off_c, 11, 58, 127
2, 176334, Note_on_c, 12, 59, 127
2, 176334, Note_on_c, 8, 68, 127
2, 176334, Note_on_c, 2, 74, 127
2, 176609, Note_off_c, 2, 74, 127
2, 176609, Note_off_c, 8, 68, 127
2, 176615, Note_on_c, 10, 69, 127
2, 176615, Note_on_c, 1, 73, 127
2, 176890, Note_off_c, 1, 73, 127
2, 176890, Note_off_c, 10, 69, 127
2, 176895, Note_on_c, 5, 65, 127
2, 176895, Note_on_c, 1, 73, 127
2, 177170, Note_off_c, 5, 65, 127
2, 177175, Note_on_c, 1, 61, 127
2, 177449, Note_off_c, 12, 59, 127
2, 177450, Note_off_c, 1, 61, 127
2, 177453, Note_on_c, 11, 58, 127
2, 177453, Note_on_c, 6, 66, 127
2, 177728, Note_off_c, 11, 58, 127
2, 177734, Note_on_c, 8, 56, 127
2, 178008, Note_off_c, 6, 66, 127
2, 178009, Note_off_c, 8, 56, 127
2, 178014, Note_on_c, 11, 58, 127
2, 178014, Note_on_c, 1, 61, 127
2, 178288, Note_off_c, 1, 61, 127
2, 178289, Note_off_c, 11, 58, 127
2, 178290, Note_off_c, 1, 73, 127
2, 178294, Note_on_c, 0, 60, 127
2, 178294, Note_on_c, 3, 75, 127
2, 178569, Note_off_c, 3, 75, 127
2, 178569, Note_off_c, 0, 60, 127
2, 178574, Note_on_c, 1, 61, 127
2, 178574, Note_on_c, 5, 77, 127
2, 178849, Note_off_c, 5, 77, 127
2, 178853, Note_on_c, 3, 63, 127
2, 178853, Note_on_c, 6, 78, 127
2, 179128, Note_off_c, 6, 78, 127
2, 179128, Note_off_c, 3, 63, 127
2, 179133, Note_on_c, 5, 65, 127
2, 179133, Note_on_c, 8, 80, 127
2, 179410, Note_off_c, 1, 61, 127
2, 179413, Note_on_c, 12, 59, 127
2, 179688, Note_off_c, 12, 59, 127
2, 179688, Note_off_c, 8, 80, 127
2, 179688, Note_off_c, 5, 65, 127
2, 179693, Note_on_c, 10, 57, 127
2, 179693, Note_on_c, 6, 66, 127
2, 179693, Note_on_c, 1, 73, 127
2, 179968, Note_off_c, 6, 66, 127
2, 179968, Note_off_c, 10, 57, 127
2, 179972, Note_on_c, 1, 61, 127
2, 179972, Note_on_c, 4, 64, 127
2, 180247, Note_off_c, 4, 64, 127
2, 180247, Note_off_c, 1, 61, 127
2, 180248, Note_off_c, 1, 73, 127
2, 180252, Note_on_c, 12, 59, 127
2, 180252, Note_on_c, 2, 62, 127
2, 180252, Note_on_c, 6, 78, 127
2, 180527, Note_off_c, 2, 62, 127
2, 180527, Note_off_c, 12, 59, 127
2, 180531, Note_on_c, 10, 57, 127
2, 180531, Note_on_c, 1, 61, 127
2, 180806, Note_off_c, 1, 61, 127
2, 180806, Note_off_c, 10, 57, 127
2, 180812, Note_on_c, 10, 57, 127
2, 180812, Note_on_c, 12, 59, 127
2, 180948, Note_off_c, 10, 57, 127
2, 180951, Note_on_c, 8, 56, 127
2, 181087, Note_off_c, 8, 56, 127
2, 181091, Note_on_c, 10, 57, 127
2, 181227, Note_off_c, 10, 57, 127
2, 181231, Note_on_c, 8, 56, 127
2, 181367, Note_off_c, 8, 56, 127
2, 181367, Note_off_c, 6, 78, 127
2, 181371, Note_on_c, 10, 57, 127
2, 181371, Note_on_c, 5, 77, 127
2, 181507, Note_off_c, 10, 57, 127
2, 181512, Note_on_c, 8, 56, 127
2, 181648, Note_off_c, 8, 56, 127
2, 181650, Note_on_c, 6, 54, 127
2, 181786, Note_off_c, 6, 54, 127
2, 181791, Note_on_c, 8, 56, 127
2, 181926, Note_off_c, 5, 77, 127
2, 181927, Note_off_c, 8, 56, 127
2, 181927, Note_off_c, 12, 59, 127
2, 181931, Note_on_c, 6, 54, 127
2, 181931, Note_on_c, 10, 57, 127
2, 181931, Note_on_c, 6, 78, 127
2, 182223, Note_off_c, 10, 57, 127
2, 182225, Note_off_c, 6, 78, 127
2, 182226, Note_on_c, 4, 76, 127
2, 182226, Note_on_c, 1, 61, 127
2, 182486, Note_off_c, 6, 54, 127
2, 182501, Note_off_c, 1, 61, 127
2, 182501, Note_off_c, 4, 76, 127
2, 182507, Note_on_c, 2, 74, 127
2, 182507, Note_on_c, 6, 66, 127
2, 182507, Note_on_c, 10, 57, 127
2, 182507, Note_on_c, 6, 54, 127
2, 182786, Note_off_c, 2, 74, 127
2, 182788, Note_on_c, 1, 73, 127
2, 183067, Note_off_c, 1, 73, 127
2, 183070, Note_off_c, 6, 54, 127
2, 183073, Note_on_c, 1, 73, 127
2, 183073, Note_on_c, 4, 52, 127
2, 183352, Note_off_c, 1, 73, 127
2, 183356, Note_on_c, 12, 71, 127
2, 183635, Note_off_c, 12, 71, 127
2, 183636, Note_off_c, 4, 52, 127
2, 183641, Note_on_c, 12, 71, 127
2, 183641, Note_on_c, 3, 51, 127
2, 183920, Note_off_c, 12, 71, 127
2, 183924, Note_on_c, 6, 78, 127
2, 184203, Note_off_c, 6, 78, 127
2, 184204, Note_off_c, 10, 57, 127
2, 184206, Note_on_c, 12, 71, 127
2, 184206, Note_on_c, 6, 54, 127
2, 184485, Note_off_c, 12, 71, 127
2, 184491, Note_on_c, 10, 69, 127
2, 184769, Note_off_c, 6, 54, 127
2, 184770, Note_off_c, 10, 69, 127
2, 184774, Note_on_c, 10, 69, 127
2, 184774, Note_on_c, 12, 59, 127
2, 185053, Note_off_c, 10, 69, 127
2, 185059, Note_on_c, 8, 68, 127
2, 185338, Note_off_c, 8, 68, 127
2, 185341, Note_on_c, 8, 68, 127
2, 185623, Note_off_c, 6, 66, 127
2, 185625, Note_on_c, 6, 66, 127
2, 185904, Note_off_c, 6, 66, 127
2, 185906, Note_off_c, 3, 51, 127
2, 185908, Note_on_c, 4, 64, 127
2, 185908, Note_on_c, 4, 52, 127
2, 186187, Note_off_c, 4, 52, 127
2, 186188, Note_off_c, 8, 68, 127
2, 186193, Note_on_c, 12, 71, 127
2, 186193, Note_on_c, 2, 50, 127
2, 186471, Note_off_c, 12, 59, 127
2, 186472, Note_off_c, 2, 50, 127
2, 186472, Note_off_c, 12, 71, 127
2, 186476, Note_on_c, 10, 69, 127
2, 186476, Note_on_c, 1, 61, 127
2, 186476, Note_on_c, 1, 49, 127
2, 186755, Note_off_c, 1, 61, 127
2, 186755, Note_off_c, 10, 69, 127
2, 186760, Note_on_c, 8, 68, 127
2, 186760, Note_on_c, 12, 59, 127
2, 187039, Note_off_c, 12, 59, 127
2, 187039, Note_off_c, 8, 68, 127
2, 187039, Note_off_c, 4, 64, 127
2, 187042, Note_on_c, 6, 66, 127
2, 187042, Note_on_c, 2, 62, 127
2, 187042, Note_on_c, 10, 57, 127
2, 187321, Note_off_c, 6, 66, 127
2, 187327, Note_on_c, 5, 65, 127
2, 187606, Note_off_c, 5, 65, 127
2, 187607, Note_off_c, 1, 49, 127
2, 187610, Note_on_c, 6, 66, 127
2, 187610, Note_on_c, 2, 50, 127
2, 187889, Note_off_c, 2, 50, 127
2, 187889, Note_off_c, 6, 66, 127
2, 187889, Note_off_c, 10, 57, 127
2, 187889, Note_off_c, 2, 62, 127
2, 187894, Note_on_c, 10, 69, 127
2, 187894, Note_on_c, 6, 66, 127
2, 187894, Note_on_c, 4, 52, 127
2, 188173, Note_off_c, 4, 52, 127
2, 188173, Note_off_c, 6, 66, 127
2, 188173, Note_off_c, 10, 69, 127
2, 188178, Note_on_c, 12, 71, 127
2, 188178, Note_on_c, 8, 68, 127
2, 188178, Note_on_c, 2, 50, 127
2, 188457, Note_off_c, 2, 50, 127
2, 188457, Note_off_c, 8, 68, 127
2, 188457, Note_off_c, 12, 71, 127
2, 188461, Note_on_c, 1, 73, 127
2, 188461, Note_on_c, 11, 70, 127
2, 188461, Note_on_c, 1, 49, 127
2, 188740, Note_off_c, 1, 49, 127
2, 188740, Note_off_c, 11, 70, 127
2, 188740, Note_off_c, 1, 73, 127
2, 188745, Note_on_c, 2, 74, 127
2, 188745, Note_on_c, 12, 71, 127
2, 188745, Note_on_c, 12, 47, 127
2, 189024, Note_off_c, 12, 71, 127
2, 189029, Note_on_c, 10, 69, 127
2, 189029, Note_on_c, 6, 54, 127
2, 189308, Note_off_c, 6, 54, 127
2, 189308, Note_off_c, 10, 69, 127
2, 189312, Note_on_c, 8, 68, 127
2, 189312, Note_on_c, 12, 59, 127
2, 189591, Note_off_c, 8, 68, 127
2, 189592, Note_off_c, 12, 47, 127
2, 189596, Note_on_c, 6, 66, 127
2, 189596, Note_on_c, 1, 49, 127
2, 189875, Note_off_c, 1, 49, 127
2, 189875, Note_off_c, 6, 66, 127
2, 189880, Note_on_c, 5, 65, 127
2, 189880, Note_on_c, 2, 50, 127
2, 190159, Note_off_c, 2, 50, 127
2, 190159, Note_off_c, 5, 65, 127
2, 190159, Note_off_c, 12, 59, 127
2, 190163, Note_on_c, 6, 66, 127
2, 190163, Note_on_c, 10, 57, 127
2, 190163, Note_on_c, 12, 47, 127
2, 190442, Note_off_c, 12, 47, 127
2, 190442, Note_off_c, 10, 57, 127
2, 190442, Note_off_c, 6, 66, 127
2, 190446, Note_on_c, 5, 65, 127
2, 190446, Note_on_c, 8, 56, 127
2, 190446, Note_on_c, 1, 49, 127
2, 190725, Note_off_c, 1, 49, 127
2, 190725, Note_off_c, 5, 65, 127
2, 190726, Note_off_c, 2, 74, 127
2, 190730, Note_on_c, 8, 68, 127
2, 190730, Note_on_c, 6, 66, 127
2, 190730, Note_on_c, 3, 51, 127
2, 191009, Note_off_c, 3, 51, 127
2, 191009, Note_off_c, 6, 66, 127
2, 191009, Note_off_c, 8, 68, 127
2, 191014, Note_on_c, 1, 73, 127
2, 191014, Note_on_c, 8, 68, 127
2, 191014, Note_on_c, 6, 54, 127
2, 191152, Note_off_c, 6, 54, 127
2, 191155, Note_on_c, 5, 53, 127
2, 191293, Note_off_c, 5, 53, 127
2, 191293, Note_off_c, 1, 73, 127
2, 191293, Note_off_c, 8, 56, 127
2, 191297, Note_on_c, 12, 71, 127
2, 191297, Note_on_c, 8, 56, 127
2, 191297, Note_on_c, 6, 54, 127
2, 191435, Note_off_c, 6, 54, 127
2, 191439, Note_on_c, 5, 53, 127
2, 191576, Note_off_c, 8, 56, 127
2, 191576, Note_off_c, 12, 71, 127
2, 191577, Note_off_c, 5, 53, 127
2, 191581, Note_on_c, 12, 71, 127
2, 191581, Note_on_c, 1, 61, 127
2, 191581, Note_on_c, 6, 54, 127
2, 191719, Note_off_c, 6, 54, 127
2, 191723, Note_on_c, 5, 53, 127
2, 191860, Note_off_c, 12, 71, 127
2, 191861, Note_off_c, 5, 53, 127
2, 191864, Note_on_c, 10, 69, 127
2, 191864, Note_on_c, 3, 51, 127
2, 192002, Note_off_c, 3, 51, 127
2, 192007, Note_on_c, 5, 53, 127
2, 192143, Note_off_c, 10, 69, 127
2, 192145, Note_off_c, 5, 53, 127
2, 192148, Note_on_c, 10, 69, 127
2, 192148, Note_on_c, 6, 54, 127
2, 192428, Note_off_c, 1, 61, 127
2, 192428, Note_off_c, 8, 68, 127
2, 192447, Note_on_c, 4, 64, 127
2, 192447, Note_on_c, 8, 68, 127
2, 192726, Note_off_c, 8, 68, 127
2, 192726, Note_off_c, 4, 64, 127
2, 192731, Note_on_c, 3, 63, 127
2, 192731, Note_on_c, 6, 66, 127
2, 193010, Note_off_c, 6, 66, 127
2, 193010, Note_off_c, 3, 63, 127
2, 193015, Note_on_c, 1, 61, 127
2, 193015, Note_on_c, 4, 64, 127
2, 193294, Note_off_c, 4, 64, 127
2, 193294, Note_off_c, 1, 61, 127
2, 193297, Note_on_c, 1, 61, 127
2, 193297, Note_on_c, 4, 64, 127
2, 193576, Note_off_c, 4, 64, 127
2, 193576, Note_off_c, 1, 61, 127
2, 193581, Note_on_c, 12, 59, 127
2, 193581, Note_on_c, 3, 63, 127
2, 193860, Note_off_c, 3, 63, 127
2, 193860, Note_off_c, 12, 59, 127
2, 193865, Note_on_c, 12, 59, 127
2, 193865, Note_on_c, 3, 63, 127
2, 194129, Note_off_c, 6, 54, 127
2, 194129, Note_off_c, 10, 69, 127
2, 194149, Note_on_c, 10, 57, 127
2, 194149, Note_on_c, 1, 73, 127
2, 194428, Note_off_c, 1, 73, 127
2, 194428, Note_off_c, 10, 57, 127
2, 194433, Note_on_c, 8, 56, 127
2, 194433, Note_on_c, 12, 71, 127
2, 194712, Note_off_c, 12, 71, 127
2, 194712, Note_off_c, 8, 56, 127
2, 194715, Note_on_c, 6, 54, 127
2, 194715, Note_on_c, 10, 69, 127
2, 194994, Note_off_c, 10, 69, 127
2, 194994, Note_off_c, 6, 54, 127
2, 194999, Note_on_c, 6, 54, 127
2, 194999, Note_on_c, 10, 69, 127
2, 195278, Note_off_c, 10, 69, 127
2, 195278, Note_off_c, 6, 54, 127
2, 195283, Note_on_c, 4, 52, 127
2, 195283, Note_on_c, 8, 68, 127
2, 195562, Note_off_c, 8, 68, 127
2, 195562, Note_off_c, 4, 52, 127
2, 195567, Note_on_c, 4, 52, 127
2, 195567, Note_on_c, 8, 68, 127
2, 195846, Note_off_c, 3, 63, 127
2, 195846, Note_off_c, 12, 59, 127
2, 195866, Note_on_c, 6, 66, 127
2, 195866, Note_on_c, 2, 62, 127
2, 196145, Note_off_c, 2, 62, 127
2, 196145, Note_off_c, 6, 66, 127
2, 196149, Note_on_c, 4, 64, 127
2, 196149, Note_on_c, 1, 61, 127
2, 196428, Note_off_c, 1, 61, 127
2, 196428, Note_off_c, 4, 64, 127
2, 196432, Note_on_c, 2, 62, 127
2, 196432, Note_on_c, 12, 59, 127
2, 196711, Note_off_c, 12, 59, 127
2, 196711, Note_off_c, 2, 62, 127
2, 196717, Note_on_c, 2, 62, 127
2, 196717, Note_on_c, 12, 59, 127
2, 196996, Note_off_c, 12, 59, 127
2, 196996, Note_off_c, 2, 62, 127
2, 197000, Note_on_c, 1, 61, 127
2, 197000, Note_on_c, 10, 57, 127
2, 197279, Note_off_c, 10, 57, 127
2, 197279, Note_off_c, 1, 61, 127
2, 197284, Note_on_c, 1, 61, 127
2, 197284, Note_on_c, 10, 57, 127
2, 197548, Note_off_c, 8, 68, 127
2, 197548, Note_off_c, 4, 52, 127
2, 197567, Note_on_c, 12, 71, 127
2, 197567, Note_on_c, 8, 56, 127
2, 197846, Note_off_c, 8, 56, 127
2, 197846, Note_off_c, 12, 71, 127
2, 197851, Note_on_c, 10, 69, 127
2, 197851, Note_on_c, 6, 54, 127
2, 198130, Note_off_c, 6, 54, 127
2, 198130, Note_off_c, 10, 69, 127
2, 198134, Note_on_c, 7, 67, 127
2, 198134, Note_on_c, 4, 52, 127
2, 198413, Note_off_c, 4, 52, 127
2, 198413, Note_off_c, 7, 67, 127
2, 198418, Note_on_c, 7, 67, 127
2, 198418, Note_on_c, 4, 52, 127
2, 198697, Note_off_c, 4, 52, 127
2, 198697, Note_off_c, 7, 67, 127
2, 198701, Note_on_c, 6, 66, 127
2, 198701, Note_on_c, 2, 50, 127
2, 198980, Note_off_c, 2, 50, 127
2, 198980, Note_off_c, 6, 66, 127
2, 198985, Note_on_c, 6, 66, 127
2, 198985, Note_on_c, 2, 50, 127
2, 199264, Note_off_c, 6, 66, 127
2, 199268, Note_on_c, 5, 65, 127
2, 199547, Note_off_c, 5, 65, 127
2, 199549, Note_off_c, 1, 61, 127
2, 199552, Note_on_c, 6, 66, 127
2, 199552, Note_on_c, 12, 59, 127
2, 199834, Note_off_c, 10, 57, 127
2, 199837, Note_on_c, 10, 57, 127
2, 200115, Note_off_c, 6, 66, 127
2, 200116, Note_off_c, 10, 57, 127
2, 200119, Note_on_c, 8, 68, 127
2, 200119, Note_on_c, 8, 56, 127
2, 200398, Note_off_c, 8, 56, 127
2, 200404, Note_on_c, 6, 54, 127
2, 200682, Note_off_c, 8, 68, 127
2, 200682, Note_off_c, 2, 50, 127
2, 200683, Note_off_c, 6, 54, 127
2, 200683, Note_off_c, 12, 59, 127
2, 200687, Note_on_c, 10, 69, 127
2, 200687, Note_on_c, 5, 53, 127
2, 200687, Note_on_c, 1, 49, 127
2, 200966, Note_off_c, 5, 53, 127
2, 200971, Note_on_c, 8, 68, 127
2, 200971, Note_on_c, 12, 59, 127
2, 201250, Note_off_c, 12, 59, 127
2, 201250, Note_off_c, 8, 68, 127
2, 201253, Note_on_c, 6, 66, 127
2, 201253, Note_on_c, 10, 57, 127
2, 201532, Note_off_c, 10, 57, 127
2, 201532, Note_off_c, 6, 66, 127
2, 201538, Note_on_c, 4, 64, 127
2, 201538, Note_on_c, 8, 56, 127
2, 201817, Note_off_c, 8, 56, 127
2, 201817, Note_off_c, 4, 64, 127
2, 201821, Note_on_c, 4, 64, 127
2, 201821, Note_on_c, 8, 56, 127
2, 202100, Note_off_c, 8, 56, 127
2, 202100, Note_off_c, 4, 64, 127
2, 202106, Note_on_c, 3, 63, 127
2, 202106, Note_on_c, 6, 54, 127
2, 202385, Note_off_c, 6, 54, 127
2, 202385, Note_off_c, 3, 63, 127
2, 202388, Note_on_c, 3, 63, 127
2, 202388, Note_on_c, 6, 54, 127
2, 202667, Note_off_c, 6, 54, 127
2, 202667, Note_off_c, 3, 63, 127
2, 202672, Note_on_c, 4, 64, 127
2, 202672, Note_on_c, 8, 56, 127
2, 202951, Note_off_c, 8, 56, 127
2, 202951, Note_off_c, 4, 64, 127
2, 202952, Note_off_c, 10, 69, 127
2, 202955, Note_on_c, 8, 68, 127
2, 202955, Note_on_c, 4, 64, 127
2, 202955, Note_on_c, 8, 56, 127
2, 203234, Note_off_c, 8, 56, 127
2, 203234, Note_off_c, 4, 64, 127
2, 203234, Note_off_c, 8, 68, 127
2, 203240, Note_on_c, 11, 70, 127
2, 203240, Note_on_c, 2, 62, 127
2, 203240, Note_on_c, 6, 54, 127
2, 203519, Note_off_c, 6, 54, 127
2, 203519, Note_off_c, 2, 62, 127
2, 203519, Note_off_c, 11, 70, 127
2, 203524, Note_on_c, 12, 71, 127
2, 203524, Note_on_c, 2, 62, 127
2, 203524, Note_on_c, 6, 54, 127
2, 203803, Note_off_c, 6, 54, 127
2, 203803, Note_off_c, 2, 62, 127
2, 203806, Note_on_c, 1, 61, 127
2, 203806, Note_on_c, 5, 53, 127
2, 204085, Note_off_c, 5, 53, 127
2, 204085, Note_off_c, 1, 61, 127
2, 204090, Note_on_c, 1, 61, 127
2, 204090, Note_on_c, 5, 53, 127
2, 204653, Note_off_c, 5, 53, 127
2, 204655, Note_off_c, 12, 71, 127
2, 204658, Note_on_c, 11, 70, 127
2, 204658, Note_on_c, 6, 54, 127
2, 204937, Note_off_c, 6, 54, 127
2, 204937, Note_off_c, 11, 70, 127
2, 204942, Note_on_c, 8, 68, 127
2, 204942, Note_on_c, 5, 53, 127
2, 205221, Note_off_c, 5, 53, 127
2, 205221, Note_off_c, 8, 68, 127
2, 205224, Note_on_c, 11, 70, 127
2, 205224, Note_on_c, 6, 54, 127
2, 205503, Note_off_c, 11, 70, 127
2, 205504, Note_off_c, 1, 61, 127
2, 205507, Note_on_c, 0, 72, 127
2, 205507, Note_on_c, 3, 63, 127
2, 205786, Note_off_c, 3, 63, 127
2, 205786, Note_off_c, 0, 72, 127
2, 205787, Note_off_c, 6, 54, 127
2, 205792, Note_on_c, 1, 73, 127
2, 205792, Note_on_c, 5, 65, 127
2, 205792, Note_on_c, 8, 56, 127
2, 206076, Note_off_c, 1, 49, 127
2, 206079, Note_on_c, 12, 47, 127
2, 206362, Note_off_c, 12, 47, 127
2, 206362, Note_off_c, 8, 56, 127
2, 206362, Note_off_c, 5, 65, 127
2, 206367, Note_on_c, 6, 66, 127
2, 206367, Note_on_c, 1, 61, 127
2, 206367, Note_on_c, 10, 45, 127
2, 206657, Note_off_c, 10, 45, 127
2, 206657, Note_off_c, 6, 66, 127
2, 206658, Note_off_c, 1, 73, 127
2, 206678, Note_on_c, 8, 44, 127
2, 206678, Note_on_c, 5, 65, 127
2, 206678, Note_on_c, 12, 71, 127
2, 206968, Note_off_c, 12, 71, 127
2, 206968, Note_off_c, 5, 65, 127
2, 206968, Note_off_c, 8, 44, 127
2, 206972, Note_on_c, 6, 42, 127
2, 206972, Note_on_c, 6, 66, 127
2, 206972, Note_on_c, 10, 69, 127
2, 207270, Note_off_c, 10, 69, 127
2, 207270, Note_off_c, 6, 42, 127
2, 207275, Note_on_c, 10, 45, 127
2, 207275, Note_on_c, 1, 73, 127
2, 207573, Note_off_c, 1, 73, 127
2, 207573, Note_off_c, 10, 45, 127
2, 207577, Note_on_c, 2, 50, 127
2, 207577, Note_on_c, 12, 71, 127
2, 207874, Note_off_c, 1, 61, 127
2, 207890, Note_off_c, 12, 71, 127
2, 207890, Note_off_c, 2, 50, 127
2, 207894, Note_on_c, 12, 47, 127
2, 207894, Note_on_c, 6, 54, 127
2, 207894, Note_on_c, 10, 69, 127
2, 208207, Note_off_c, 10, 69, 127
2, 208207, Note_off_c, 6, 54, 127
2, 208207, Note_off_c, 12, 47, 127
2, 208207, Note_off_c, 6, 66, 127
2, 208211, Note_on_c, 1, 49, 127
2, 208211, Note_on_c, 1, 61, 127
2, 208211, Note_on_c, 10, 69, 127
2, 208379, Note_off_c, 10, 69, 127
2, 208382, Note_on_c, 8, 68, 127
2, 208550, Note_off_c, 8, 68, 127
2, 208552, Note_off_c, 1, 61, 127
2, 208554, Note_on_c, 12, 59, 127
2, 208554, Note_on_c, 10, 69, 127
2, 208722, Note_off_c, 10, 69, 127
2, 208727, Note_on_c, 8, 68, 127
2, 208893, Note_off_c, 12, 59, 127
2, 208896, Note_off_c, 1, 49, 127
2, 208900, Note_on_c, 1, 37, 127
2, 208900, Note_on_c, 12, 59, 127
2, 208900, Note_on_c, 5, 65, 127
2, 209294, Note_off_c, 12, 59, 127
2, 209300, Note_on_c, 11, 58, 127
2, 209696, Note_off_c, 11, 58, 127
2, 209697, Note_off_c, 5, 65, 127
2, 209697, Note_off_c, 1, 37, 127
2, 209697, Note_off_c, 8, 68, 127
2, 209701, Note_on_c, 6, 42, 127
2, 209701, Note_on_c, 11, 58, 127
2, 209701, Note_on_c, 6, 66, 127
2, 213131, Note_off_c, 6, 66, 127
2, 213131, Note_off_c, 11, 58, 127
2, 213131, Note_off_c, 6, 42, 127
2, 218112, End_track
3, 0, Start_track
3, 0, Title_t, "MIDI"
3, 1536, End_track
0, 0, End_of_file
