0, 0, Header, 1, 4, 240
1, 0, Start_track
1, 0, Time_signature, 1, 1, 48, 8
1, 0, Tempo, 375000
1, 480, Time_signature, 4, 2, 48, 8
1, 7200, Time_signature, 1, 1, 48, 8
1, 7680, Time_signature, 1, 1, 48, 8
1, 8160, Time_signature, 4, 2, 48, 8
1, 14880, Time_signature, 1, 1, 48, 8
1, 15840, Time_signature, 4, 2, 48, 8
1, 37920, Time_signature, 1, 1, 48, 8
1, 38880, Time_signature, 4, 2, 48, 8
1, 60960, Time_signature, 1, 1, 48, 8
1, 60960, End_track
2, 0, Start_track
2, 0, Title_t, "English Suite 6, 6a Gavotte 1"
2, 0, Program_c, 0, 0
2, 0, Note_on_c, 0, 81, 127
2, 0, Note_on_c, 0, 77, 110
2, 180, Note_off_c, 0, 81, 64
2, 192, Note_off_c, 0, 77, 64
2, 240, Note_on_c, 0, 81, 110
2, 240, Note_on_c, 0, 76, 110
2, 420, Note_off_c, 0, 81, 64
2, 432, Note_off_c, 0, 76, 64
2, 480, Note_on_c, 0, 82, 110
2, 480, Note_on_c, 0, 77, 110
2, 504, Note_off_c, 0, 82, 64
2, 510, Note_on_c, 0, 81, 110
2, 534, Note_off_c, 0, 81, 64
2, 540, Note_on_c, 0, 82, 110
2, 564, Note_off_c, 0, 82, 64
2, 570, Note_on_c, 0, 81, 110
2, 825, Note_off_c, 0, 81, 64
2, 840, Note_on_c, 0, 79, 110
2, 864, Note_off_c, 0, 77, 64
2, 888, Note_off_c, 0, 79, 64
2, 900, Note_on_c, 0, 81, 110
2, 948, Note_off_c, 0, 81, 64
2, 960, Note_on_c, 0, 82, 110
2, 960, Note_on_c, 0, 79, 110
2, 1140, Note_off_c, 0, 82, 64
2, 1152, Note_off_c, 0, 79, 64
2, 1200, Note_on_c, 0, 81, 110
2, 1200, Note_on_c, 0, 77, 110
2, 1380, Note_off_c, 0, 81, 64
2, 1392, Note_off_c, 0, 77, 64
2, 1440, Note_on_c, 0, 76, 110
2, 1440, Note_on_c, 0, 79, 110
2, 1824, Note_off_c, 0, 79, 64
2, 1824, Note_off_c, 0, 76, 64
2, 1920, Note_on_c, 0, 79, 110
2, 1920, Note_on_c, 0, 76, 110
2, 2100, Note_off_c, 0, 79, 64
2, 2112, Note_off_c, 0, 76, 64
2, 2160, Note_on_c, 0, 79, 110
2, 2160, Note_on_c, 0, 76, 110
2, 2340, Note_off_c, 0, 79, 64
2, 2352, Note_off_c, 0, 76, 64
2, 2400, Note_on_c, 0, 79, 110
2, 2400, Note_on_c, 0, 76, 110
2, 2496, Note_off_c, 0, 79, 64
2, 2520, Note_on_c, 0, 77, 110
2, 2616, Note_off_c, 0, 77, 64
2, 2640, Note_on_c, 0, 79, 110
2, 2736, Note_off_c, 0, 79, 64
2, 2760, Note_on_c, 0, 81, 110
2, 2784, Note_off_c, 0, 76, 64
2, 2856, Note_off_c, 0, 81, 64
2, 2880, Note_on_c, 0, 77, 110
2, 2880, Note_on_c, 0, 74, 110
2, 2976, Note_off_c, 0, 77, 64
2, 3000, Note_on_c, 0, 76, 110
2, 3096, Note_off_c, 0, 76, 64
2, 3120, Note_on_c, 0, 77, 110
2, 3216, Note_off_c, 0, 77, 64
2, 3240, Note_on_c, 0, 79, 110
2, 3264, Note_off_c, 0, 74, 64
2, 3336, Note_off_c, 0, 79, 64
2, 3360, Note_on_c, 0, 77, 110
2, 3360, Note_on_c, 0, 73, 110
2, 3384, Note_off_c, 0, 77, 64
2, 3390, Note_on_c, 0, 76, 110
2, 3414, Note_off_c, 0, 76, 64
2, 3420, Note_on_c, 0, 77, 110
2, 3444, Note_off_c, 0, 77, 64
2, 3450, Note_on_c, 0, 76, 110
2, 3552, Note_off_c, 0, 73, 64
2, 3576, Note_off_c, 0, 76, 64
2, 3600, Note_on_c, 0, 74, 110
2, 3600, Note_on_c, 0, 74, 110
2, 3696, Note_off_c, 0, 74, 64
2, 3720, Note_on_c, 0, 73, 110
2, 3792, Note_off_c, 0, 74, 64
2, 3816, Note_off_c, 0, 73, 64
2, 3840, Note_on_c, 0, 74, 110
2, 3840, Note_on_c, 0, 81, 110
2, 3936, Note_off_c, 0, 74, 64
2, 3960, Note_on_c, 0, 77, 110
2, 4032, Note_off_c, 0, 81, 64
2, 4056, Note_off_c, 0, 77, 64
2, 4080, Note_on_c, 0, 81, 110
2, 4080, Note_on_c, 0, 76, 110
2, 4176, Note_off_c, 0, 76, 64
2, 4200, Note_on_c, 0, 79, 110
2, 4272, Note_off_c, 0, 81, 64
2, 4296, Note_off_c, 0, 79, 64
2, 4320, Note_on_c, 0, 82, 110
2, 4320, Note_on_c, 0, 77, 110
2, 4344, Note_off_c, 0, 82, 64
2, 4350, Note_on_c, 0, 81, 110
2, 4374, Note_off_c, 0, 81, 64
2, 4380, Note_on_c, 0, 82, 110
2, 4404, Note_off_c, 0, 82, 64
2, 4410, Note_on_c, 0, 81, 110
2, 4434, Note_off_c, 0, 81, 64
2, 4440, Note_on_c, 0, 82, 110
2, 4464, Note_off_c, 0, 82, 64
2, 4470, Note_on_c, 0, 81, 110
2, 4494, Note_off_c, 0, 81, 64
2, 4500, Note_on_c, 0, 82, 110
2, 4524, Note_off_c, 0, 82, 64
2, 4530, Note_on_c, 0, 81, 110
2, 4554, Note_off_c, 0, 81, 64
2, 4560, Note_on_c, 0, 82, 110
2, 4584, Note_off_c, 0, 82, 64
2, 4590, Note_on_c, 0, 81, 110
2, 4614, Note_off_c, 0, 81, 64
2, 4620, Note_on_c, 0, 82, 110
2, 4644, Note_off_c, 0, 82, 64
2, 4650, Note_on_c, 0, 81, 110
2, 4674, Note_off_c, 0, 81, 64
2, 4680, Note_on_c, 0, 79, 110
2, 4704, Note_off_c, 0, 77, 64
2, 4728, Note_off_c, 0, 79, 64
2, 4740, Note_on_c, 0, 81, 110
2, 4788, Note_off_c, 0, 81, 64
2, 4800, Note_on_c, 0, 82, 110
2, 4800, Note_on_c, 0, 79, 110
2, 4980, Note_off_c, 0, 82, 64
2, 4992, Note_off_c, 0, 79, 64
2, 5040, Note_on_c, 0, 81, 110
2, 5040, Note_on_c, 0, 77, 110
2, 5220, Note_off_c, 0, 81, 64
2, 5232, Note_off_c, 0, 77, 64
2, 5280, Note_on_c, 0, 79, 110
2, 5280, Note_on_c, 0, 76, 110
2, 5568, Note_off_c, 0, 79, 64
2, 5640, Note_on_c, 0, 81, 110
2, 5664, Note_off_c, 0, 76, 64
2, 5688, Note_off_c, 0, 81, 64
2, 5700, Note_on_c, 0, 82, 110
2, 5748, Note_off_c, 0, 82, 64
2, 5760, Note_on_c, 0, 76, 110
2, 5760, Note_on_c, 0, 84, 110
2, 5856, Note_off_c, 0, 84, 64
2, 5880, Note_on_c, 0, 82, 110
2, 5976, Note_off_c, 0, 82, 64
2, 6000, Note_on_c, 0, 81, 110
2, 6096, Note_off_c, 0, 81, 64
2, 6120, Note_on_c, 0, 79, 110
2, 6144, Note_off_c, 0, 76, 64
2, 6216, Note_off_c, 0, 79, 64
2, 6240, Note_on_c, 0, 77, 110
2, 6240, Note_on_c, 0, 74, 110
2, 6336, Note_off_c, 0, 77, 64
2, 6360, Note_on_c, 0, 76, 110
2, 6432, Note_off_c, 0, 74, 64
2, 6456, Note_off_c, 0, 76, 64
2, 6480, Note_on_c, 0, 74, 110
2, 6480, Note_on_c, 0, 74, 110
2, 6576, Note_off_c, 0, 74, 64
2, 6600, Note_on_c, 0, 82, 110
2, 6672, Note_off_c, 0, 74, 64
2, 6696, Note_off_c, 0, 82, 64
2, 6720, Note_on_c, 0, 81, 110
2, 6720, Note_on_c, 0, 74, 110
2, 6744, Note_off_c, 0, 81, 64
2, 6750, Note_on_c, 0, 79, 110
2, 6774, Note_off_c, 0, 79, 64
2, 6780, Note_on_c, 0, 81, 110
2, 6804, Note_off_c, 0, 81, 64
2, 6810, Note_on_c, 0, 79, 110
2, 6834, Note_off_c, 0, 79, 64
2, 6840, Note_on_c, 0, 81, 110
2, 6864, Note_off_c, 0, 81, 64
2, 6870, Note_on_c, 0, 79, 110
2, 6894, Note_off_c, 0, 79, 64
2, 6900, Note_on_c, 0, 81, 110
2, 6924, Note_off_c, 0, 81, 64
2, 6930, Note_on_c, 0, 79, 110
2, 6954, Note_off_c, 0, 79, 64
2, 6960, Note_on_c, 0, 81, 110
2, 6984, Note_off_c, 0, 81, 64
2, 6990, Note_on_c, 0, 79, 110
2, 7014, Note_off_c, 0, 79, 64
2, 7020, Note_on_c, 0, 81, 110
2, 7044, Note_off_c, 0, 81, 64
2, 7050, Note_on_c, 0, 79, 110
2, 7074, Note_off_c, 0, 79, 64
2, 7080, Note_on_c, 0, 77, 110
2, 7104, Note_off_c, 0, 74, 64
2, 7128, Note_off_c, 0, 77, 64
2, 7140, Note_on_c, 0, 79, 110
2, 7188, Note_off_c, 0, 79, 64
2, 7200, Note_on_c, 0, 81, 110
2, 7200, Note_on_c, 0, 73, 110
2, 7584, Note_off_c, 0, 73, 64
2, 7584, Note_off_c, 0, 81, 64
2, 7680, Note_on_c, 0, 81, 110
2, 7680, Note_on_c, 0, 77, 110
2, 7860, Note_off_c, 0, 81, 64
2, 7872, Note_off_c, 0, 77, 64
2, 7920, Note_on_c, 0, 81, 110
2, 7920, Note_on_c, 0, 76, 110
2, 8100, Note_off_c, 0, 81, 64
2, 8112, Note_off_c, 0, 76, 64
2, 8160, Note_on_c, 0, 82, 110
2, 8160, Note_on_c, 0, 77, 110
2, 8184, Note_off_c, 0, 82, 64
2, 8190, Note_on_c, 0, 81, 110
2, 8214, Note_off_c, 0, 81, 64
2, 8220, Note_on_c, 0, 82, 110
2, 8244, Note_off_c, 0, 82, 64
2, 8250, Note_on_c, 0, 81, 110
2, 8505, Note_off_c, 0, 81, 64
2, 8520, Note_on_c, 0, 79, 110
2, 8544, Note_off_c, 0, 77, 64
2, 8568, Note_off_c, 0, 79, 64
2, 8580, Note_on_c, 0, 81, 110
2, 8628, Note_off_c, 0, 81, 64
2, 8640, Note_on_c, 0, 82, 110
2, 8640, Note_on_c, 0, 79, 110
2, 8820, Note_off_c, 0, 82, 64
2, 8832, Note_off_c, 0, 79, 64
2, 8880, Note_on_c, 0, 81, 110
2, 8880, Note_on_c, 0, 77, 110
2, 9060, Note_off_c, 0, 81, 64
2, 9072, Note_off_c, 0, 77, 64
2, 9120, Note_on_c, 0, 76, 110
2, 9120, Note_on_c, 0, 79, 110
2, 9504, Note_off_c, 0, 79, 64
2, 9504, Note_off_c, 0, 76, 64
2, 9600, Note_on_c, 0, 79, 110
2, 9600, Note_on_c, 0, 76, 110
2, 9780, Note_off_c, 0, 79, 64
2, 9792, Note_off_c, 0, 76, 64
2, 9840, Note_on_c, 0, 79, 110
2, 9840, Note_on_c, 0, 76, 110
2, 10020, Note_off_c, 0, 79, 64
2, 10032, Note_off_c, 0, 76, 64
2, 10080, Note_on_c, 0, 79, 110
2, 10080, Note_on_c, 0, 76, 110
2, 10176, Note_off_c, 0, 79, 64
2, 10200, Note_on_c, 0, 77, 110
2, 10296, Note_off_c, 0, 77, 64
2, 10320, Note_on_c, 0, 79, 110
2, 10416, Note_off_c, 0, 79, 64
2, 10440, Note_on_c, 0, 81, 110
2, 10464, Note_off_c, 0, 76, 64
2, 10536, Note_off_c, 0, 81, 64
2, 10560, Note_on_c, 0, 77, 110
2, 10560, Note_on_c, 0, 74, 110
2, 10656, Note_off_c, 0, 77, 64
2, 10680, Note_on_c, 0, 76, 110
2, 10776, Note_off_c, 0, 76, 64
2, 10800, Note_on_c, 0, 77, 110
2, 10896, Note_off_c, 0, 77, 64
2, 10920, Note_on_c, 0, 79, 110
2, 10944, Note_off_c, 0, 74, 64
2, 11016, Note_off_c, 0, 79, 64
2, 11040, Note_on_c, 0, 77, 110
2, 11040, Note_on_c, 0, 73, 110
2, 11064, Note_off_c, 0, 77, 64
2, 11070, Note_on_c, 0, 76, 110
2, 11094, Note_off_c, 0, 76, 64
2, 11100, Note_on_c, 0, 77, 110
2, 11124, Note_off_c, 0, 77, 64
2, 11130, Note_on_c, 0, 76, 110
2, 11232, Note_off_c, 0, 73, 64
2, 11256, Note_off_c, 0, 76, 64
2, 11280, Note_on_c, 0, 74, 110
2, 11280, Note_on_c, 0, 74, 110
2, 11376, Note_off_c, 0, 74, 64
2, 11400, Note_on_c, 0, 73, 110
2, 11472, Note_off_c, 0, 74, 64
2, 11496, Note_off_c, 0, 73, 64
2, 11520, Note_on_c, 0, 74, 110
2, 11520, Note_on_c, 0, 81, 110
2, 11616, Note_off_c, 0, 74, 64
2, 11640, Note_on_c, 0, 77, 110
2, 11712, Note_off_c, 0, 81, 64
2, 11736, Note_off_c, 0, 77, 64
2, 11760, Note_on_c, 0, 81, 110
2, 11760, Note_on_c, 0, 76, 110
2, 11856, Note_off_c, 0, 76, 64
2, 11880, Note_on_c, 0, 79, 110
2, 11952, Note_off_c, 0, 81, 64
2, 11976, Note_off_c, 0, 79, 64
2, 12000, Note_on_c, 0, 82, 110
2, 12000, Note_on_c, 0, 77, 110
2, 12024, Note_off_c, 0, 82, 64
2, 12030, Note_on_c, 0, 81, 110
2, 12054, Note_off_c, 0, 81, 64
2, 12060, Note_on_c, 0, 82, 110
2, 12084, Note_off_c, 0, 82, 64
2, 12090, Note_on_c, 0, 81, 110
2, 12114, Note_off_c, 0, 81, 64
2, 12120, Note_on_c, 0, 82, 110
2, 12144, Note_off_c, 0, 82, 64
2, 12150, Note_on_c, 0, 81, 110
2, 12174, Note_off_c, 0, 81, 64
2, 12180, Note_on_c, 0, 82, 110
2, 12204, Note_off_c, 0, 82, 64
2, 12210, Note_on_c, 0, 81, 110
2, 12234, Note_off_c, 0, 81, 64
2, 12240, Note_on_c, 0, 82, 110
2, 12264, Note_off_c, 0, 82, 64
2, 12270, Note_on_c, 0, 81, 110
2, 12294, Note_off_c, 0, 81, 64
2, 12300, Note_on_c, 0, 82, 110
2, 12324, Note_off_c, 0, 82, 64
2, 12330, Note_on_c, 0, 81, 110
2, 12354, Note_off_c, 0, 81, 64
2, 12360, Note_on_c, 0, 79, 110
2, 12384, Note_off_c, 0, 77, 64
2, 12408, Note_off_c, 0, 79, 64
2, 12420, Note_on_c, 0, 81, 110
2, 12468, Note_off_c, 0, 81, 64
2, 12480, Note_on_c, 0, 82, 110
2, 12480, Note_on_c, 0, 79, 110
2, 12660, Note_off_c, 0, 82, 64
2, 12672, Note_off_c, 0, 79, 64
2, 12720, Note_on_c, 0, 81, 110
2, 12720, Note_on_c, 0, 77, 110
2, 12900, Note_off_c, 0, 81, 64
2, 12912, Note_off_c, 0, 77, 64
2, 12960, Note_on_c, 0, 79, 110
2, 12960, Note_on_c, 0, 76, 110
2, 13248, Note_off_c, 0, 79, 64
2, 13320, Note_on_c, 0, 81, 110
2, 13344, Note_off_c, 0, 76, 64
2, 13368, Note_off_c, 0, 81, 64
2, 13380, Note_on_c, 0, 82, 110
2, 13428, Note_off_c, 0, 82, 64
2, 13440, Note_on_c, 0, 76, 110
2, 13440, Note_on_c, 0, 84, 110
2, 13536, Note_off_c, 0, 84, 64
2, 13560, Note_on_c, 0, 82, 110
2, 13656, Note_off_c, 0, 82, 64
2, 13680, Note_on_c, 0, 81, 110
2, 13776, Note_off_c, 0, 81, 64
2, 13800, Note_on_c, 0, 79, 110
2, 13824, Note_off_c, 0, 76, 64
2, 13896, Note_off_c, 0, 79, 64
2, 13920, Note_on_c, 0, 77, 110
2, 13920, Note_on_c, 0, 74, 110
2, 14016, Note_off_c, 0, 77, 64
2, 14040, Note_on_c, 0, 76, 110
2, 14112, Note_off_c, 0, 74, 64
2, 14136, Note_off_c, 0, 76, 64
2, 14160, Note_on_c, 0, 74, 110
2, 14160, Note_on_c, 0, 74, 110
2, 14256, Note_off_c, 0, 74, 64
2, 14280, Note_on_c, 0, 82, 110
2, 14352, Note_off_c, 0, 74, 64
2, 14376, Note_off_c, 0, 82, 64
2, 14400, Note_on_c, 0, 81, 110
2, 14400, Note_on_c, 0, 74, 110
2, 14424, Note_off_c, 0, 81, 64
2, 14430, Note_on_c, 0, 79, 110
2, 14454, Note_off_c, 0, 79, 64
2, 14460, Note_on_c, 0, 81, 110
2, 14484, Note_off_c, 0, 81, 64
2, 14490, Note_on_c, 0, 79, 110
2, 14514, Note_off_c, 0, 79, 64
2, 14520, Note_on_c, 0, 81, 110
2, 14544, Note_off_c, 0, 81, 64
2, 14550, Note_on_c, 0, 79, 110
2, 14574, Note_off_c, 0, 79, 64
2, 14580, Note_on_c, 0, 81, 110
2, 14604, Note_off_c, 0, 81, 64
2, 14610, Note_on_c, 0, 79, 110
2, 14634, Note_off_c, 0, 79, 64
2, 14640, Note_on_c, 0, 81, 110
2, 14664, Note_off_c, 0, 81, 64
2, 14670, Note_on_c, 0, 79, 110
2, 14694, Note_off_c, 0, 79, 64
2, 14700, Note_on_c, 0, 81, 110
2, 14724, Note_off_c, 0, 81, 64
2, 14730, Note_on_c, 0, 79, 110
2, 14754, Note_off_c, 0, 79, 64
2, 14760, Note_on_c, 0, 77, 110
2, 14784, Note_off_c, 0, 74, 64
2, 14808, Note_off_c, 0, 77, 64
2, 14820, Note_on_c, 0, 79, 110
2, 14868, Note_off_c, 0, 79, 64
2, 14880, Note_on_c, 0, 81, 110
2, 14880, Note_on_c, 0, 73, 110
2, 15264, Note_off_c, 0, 73, 64
2, 15264, Note_off_c, 0, 81, 64
2, 15360, Note_on_c, 0, 76, 110
2, 15360, Note_on_c, 0, 72, 110
2, 15540, Note_off_c, 0, 76, 64
2, 15552, Note_off_c, 0, 72, 64
2, 15600, Note_on_c, 0, 76, 110
2, 15600, Note_on_c, 0, 71, 110
2, 15780, Note_off_c, 0, 76, 64
2, 15792, Note_off_c, 0, 71, 64
2, 15840, Note_on_c, 0, 77, 110
2, 15840, Note_on_c, 0, 69, 110
2, 15864, Note_off_c, 0, 77, 64
2, 15870, Note_on_c, 0, 76, 110
2, 15894, Note_off_c, 0, 76, 64
2, 15900, Note_on_c, 0, 77, 110
2, 15924, Note_off_c, 0, 77, 64
2, 15930, Note_on_c, 0, 76, 110
2, 15954, Note_off_c, 0, 76, 64
2, 15960, Note_on_c, 0, 77, 110
2, 15984, Note_off_c, 0, 77, 64
2, 15990, Note_on_c, 0, 76, 110
2, 16014, Note_off_c, 0, 76, 64
2, 16020, Note_on_c, 0, 77, 110
2, 16044, Note_off_c, 0, 77, 64
2, 16050, Note_on_c, 0, 76, 110
2, 16074, Note_off_c, 0, 76, 64
2, 16080, Note_on_c, 0, 77, 110
2, 16104, Note_off_c, 0, 77, 64
2, 16110, Note_on_c, 0, 76, 110
2, 16134, Note_off_c, 0, 76, 64
2, 16140, Note_on_c, 0, 77, 110
2, 16164, Note_off_c, 0, 77, 64
2, 16170, Note_on_c, 0, 76, 110
2, 16194, Note_off_c, 0, 76, 64
2, 16200, Note_on_c, 0, 74, 110
2, 16224, Note_off_c, 0, 69, 64
2, 16248, Note_off_c, 0, 74, 64
2, 16260, Note_on_c, 0, 76, 110
2, 16308, Note_off_c, 0, 76, 64
2, 16320, Note_on_c, 0, 77, 110
2, 16320, Note_on_c, 0, 74, 110
2, 16500, Note_off_c, 0, 77, 64
2, 16512, Note_off_c, 0, 74, 64
2, 16560, Note_on_c, 0, 76, 110
2, 16560, Note_on_c, 0, 72, 110
2, 16740, Note_off_c, 0, 76, 64
2, 16752, Note_off_c, 0, 72, 64
2, 16800, Note_on_c, 0, 74, 110
2, 16800, Note_on_c, 0, 71, 110
2, 17184, Note_off_c, 0, 71, 64
2, 17184, Note_off_c, 0, 74, 64
2, 17280, Note_on_c, 0, 74, 110
2, 17280, Note_on_c, 0, 71, 110
2, 17460, Note_off_c, 0, 74, 64
2, 17472, Note_off_c, 0, 71, 64
2, 17520, Note_on_c, 0, 79, 110
2, 17520, Note_on_c, 0, 71, 110
2, 17700, Note_off_c, 0, 79, 64
2, 17712, Note_off_c, 0, 71, 64
2, 17760, Note_on_c, 0, 77, 110
2, 17760, Note_on_c, 0, 72, 110
2, 17784, Note_off_c, 0, 77, 64
2, 17790, Note_on_c, 0, 76, 110
2, 17814, Note_off_c, 0, 76, 64
2, 17820, Note_on_c, 0, 77, 110
2, 17844, Note_off_c, 0, 77, 64
2, 17850, Note_on_c, 0, 76, 110
2, 17874, Note_off_c, 0, 76, 64
2, 17880, Note_on_c, 0, 77, 110
2, 17904, Note_off_c, 0, 77, 64
2, 17910, Note_on_c, 0, 76, 110
2, 17934, Note_off_c, 0, 76, 64
2, 17940, Note_on_c, 0, 77, 110
2, 17964, Note_off_c, 0, 77, 64
2, 17970, Note_on_c, 0, 76, 110
2, 17994, Note_off_c, 0, 76, 64
2, 18000, Note_on_c, 0, 77, 110
2, 18024, Note_off_c, 0, 77, 64
2, 18030, Note_on_c, 0, 76, 110
2, 18054, Note_off_c, 0, 76, 64
2, 18060, Note_on_c, 0, 77, 110
2, 18084, Note_off_c, 0, 77, 64
2, 18090, Note_on_c, 0, 76, 110
2, 18114, Note_off_c, 0, 76, 64
2, 18120, Note_on_c, 0, 74, 110
2, 18144, Note_off_c, 0, 72, 64
2, 18168, Note_off_c, 0, 74, 64
2, 18180, Note_on_c, 0, 76, 110
2, 18228, Note_off_c, 0, 76, 64
2, 18240, Note_on_c, 0, 77, 110
2, 18240, Note_on_c, 0, 74, 110
2, 18336, Note_off_c, 0, 77, 64
2, 18360, Note_on_c, 0, 79, 110
2, 18432, Note_off_c, 0, 74, 64
2, 18456, Note_off_c, 0, 79, 64
2, 18480, Note_on_c, 0, 72, 110
2, 18480, Note_on_c, 0, 76, 110
2, 18576, Note_off_c, 0, 76, 64
2, 18600, Note_on_c, 0, 77, 110
2, 18672, Note_off_c, 0, 72, 64
2, 18696, Note_off_c, 0, 77, 64
2, 18720, Note_on_c, 0, 71, 110
2, 18720, Note_on_c, 0, 74, 110
2, 18912, Note_off_c, 0, 74, 64
2, 18912, Note_off_c, 0, 71, 64
2, 18960, Note_on_c, 0, 72, 110
2, 18960, Note_on_c, 0, 72, 110
2, 19152, Note_off_c, 0, 72, 64
2, 19152, Note_off_c, 0, 72, 64
2, 19200, Note_on_c, 0, 72, 110
2, 19200, Note_on_c, 0, 76, 110
2, 19392, Note_off_c, 0, 76, 64
2, 19392, Note_off_c, 0, 72, 64
2, 19440, Note_on_c, 0, 72, 110
2, 19440, Note_on_c, 0, 78, 110
2, 19488, Note_off_c, 0, 78, 64
2, 19500, Note_on_c, 0, 79, 110
2, 19548, Note_off_c, 0, 79, 64
2, 19560, Note_on_c, 0, 81, 110
2, 19632, Note_off_c, 0, 72, 64
2, 19656, Note_off_c, 0, 81, 64
2, 19680, Note_on_c, 0, 69, 110
2, 19680, Note_on_c, 0, 78, 110
2, 19968, Note_off_c, 0, 78, 64
2, 20040, Note_on_c, 0, 76, 110
2, 20064, Note_off_c, 0, 69, 64
2, 20088, Note_off_c, 0, 76, 64
2, 20100, Note_on_c, 0, 78, 110
2, 20148, Note_off_c, 0, 78, 64
2, 20160, Note_on_c, 0, 79, 110
2, 20160, Note_on_c, 0, 74, 110
2, 20340, Note_off_c, 0, 79, 64
2, 20352, Note_off_c, 0, 74, 64
2, 20400, Note_on_c, 0, 81, 110
2, 20400, Note_on_c, 0, 74, 110
2, 20580, Note_off_c, 0, 81, 64
2, 20592, Note_off_c, 0, 74, 64
2, 20640, Note_on_c, 0, 74, 110
2, 20640, Note_on_c, 0, 82, 110
2, 20928, Note_off_c, 0, 82, 64
2, 21000, Note_on_c, 0, 81, 110
2, 21048, Note_off_c, 0, 81, 64
2, 21060, Note_on_c, 0, 82, 110
2, 21108, Note_off_c, 0, 82, 64
2, 21120, Note_on_c, 0, 84, 110
2, 21216, Note_off_c, 0, 84, 64
2, 21240, Note_on_c, 0, 82, 110
2, 21336, Note_off_c, 0, 82, 64
2, 21360, Note_on_c, 0, 81, 110
2, 21456, Note_off_c, 0, 81, 64
2, 21480, Note_on_c, 0, 82, 110
2, 21576, Note_off_c, 0, 82, 64
2, 21600, Note_on_c, 0, 84, 110
2, 21696, Note_off_c, 0, 84, 64
2, 21720, Note_on_c, 0, 82, 110
2, 21816, Note_off_c, 0, 82, 64
2, 21840, Note_on_c, 0, 81, 110
2, 21936, Note_off_c, 0, 81, 64
2, 21960, Note_on_c, 0, 79, 110
2, 22056, Note_off_c, 0, 79, 64
2, 22080, Note_on_c, 0, 82, 110
2, 22176, Note_off_c, 0, 82, 64
2, 22200, Note_on_c, 0, 81, 110
2, 22296, Note_off_c, 0, 81, 64
2, 22320, Note_on_c, 0, 79, 110
2, 22416, Note_off_c, 0, 79, 64
2, 22440, Note_on_c, 0, 78, 110
2, 22536, Note_off_c, 0, 78, 64
2, 22560, Note_on_c, 0, 79, 110
2, 22656, Note_off_c, 0, 74, 64
2, 22680, Note_on_c, 0, 75, 110
2, 22776, Note_off_c, 0, 75, 64
2, 22800, Note_on_c, 0, 77, 110
2, 22896, Note_off_c, 0, 77, 64
2, 22920, Note_on_c, 0, 74, 110
2, 23016, Note_off_c, 0, 74, 64
2, 23040, Note_on_c, 0, 77, 110
2, 23136, Note_off_c, 0, 77, 64
2, 23160, Note_on_c, 0, 75, 110
2, 23256, Note_off_c, 0, 75, 64
2, 23280, Note_on_c, 0, 74, 110
2, 23376, Note_off_c, 0, 74, 64
2, 23400, Note_on_c, 0, 72, 110
2, 23496, Note_off_c, 0, 72, 64
2, 23520, Note_on_c, 0, 75, 110
2, 23616, Note_off_c, 0, 75, 64
2, 23640, Note_on_c, 0, 74, 110
2, 23736, Note_off_c, 0, 74, 64
2, 23760, Note_on_c, 0, 72, 110
2, 23856, Note_off_c, 0, 72, 64
2, 23880, Note_on_c, 0, 71, 110
2, 23976, Note_off_c, 0, 71, 64
2, 24000, Note_on_c, 0, 72, 110
2, 24096, Note_off_c, 0, 72, 64
2, 24120, Note_on_c, 0, 74, 110
2, 24216, Note_off_c, 0, 74, 64
2, 24240, Note_on_c, 0, 75, 110
2, 24336, Note_off_c, 0, 75, 64
2, 24360, Note_on_c, 0, 72, 110
2, 24456, Note_off_c, 0, 72, 64
2, 24480, Note_on_c, 0, 75, 110
2, 24576, Note_off_c, 0, 75, 64
2, 24600, Note_on_c, 0, 74, 110
2, 24696, Note_off_c, 0, 74, 64
2, 24720, Note_on_c, 0, 72, 110
2, 24816, Note_off_c, 0, 72, 64
2, 24840, Note_on_c, 0, 70, 110
2, 24936, Note_off_c, 0, 70, 64
2, 24960, Note_on_c, 0, 74, 110
2, 25056, Note_off_c, 0, 74, 64
2, 25080, Note_on_c, 0, 72, 110
2, 25176, Note_off_c, 0, 72, 64
2, 25200, Note_on_c, 0, 70, 110
2, 25248, Note_off_c, 0, 79, 64
2, 25296, Note_off_c, 0, 70, 64
2, 25320, Note_on_c, 0, 69, 110
2, 25416, Note_off_c, 0, 69, 64
2, 25440, Note_on_c, 0, 70, 110
2, 25440, Note_on_c, 0, 79, 110
2, 25536, Note_off_c, 0, 79, 64
2, 25536, Note_off_c, 0, 70, 64
2, 25560, Note_on_c, 0, 81, 110
2, 25560, Note_on_c, 0, 72, 110
2, 25656, Note_off_c, 0, 72, 64
2, 25656, Note_off_c, 0, 81, 64
2, 25680, Note_on_c, 0, 74, 110
2, 25680, Note_on_c, 0, 82, 110
2, 25776, Note_off_c, 0, 82, 64
2, 25776, Note_off_c, 0, 74, 64
2, 25800, Note_on_c, 0, 79, 110
2, 25800, Note_on_c, 0, 70, 110
2, 25896, Note_off_c, 0, 70, 64
2, 25896, Note_off_c, 0, 79, 64
2, 25920, Note_on_c, 0, 82, 110
2, 25920, Note_on_c, 0, 74, 110
2, 26016, Note_off_c, 0, 74, 64
2, 26016, Note_off_c, 0, 82, 64
2, 26040, Note_on_c, 0, 72, 110
2, 26040, Note_on_c, 0, 81, 110
2, 26136, Note_off_c, 0, 81, 64
2, 26136, Note_off_c, 0, 72, 64
2, 26160, Note_on_c, 0, 70, 110
2, 26160, Note_on_c, 0, 79, 110
2, 26256, Note_off_c, 0, 79, 64
2, 26256, Note_off_c, 0, 70, 64
2, 26280, Note_on_c, 0, 69, 110
2, 26280, Note_on_c, 0, 78, 110
2, 26376, Note_off_c, 0, 78, 64
2, 26376, Note_off_c, 0, 69, 64
2, 26400, Note_on_c, 0, 79, 110
2, 26400, Note_on_c, 0, 70, 110
2, 26784, Note_off_c, 0, 70, 64
2, 26784, Note_off_c, 0, 79, 64
2, 26880, Note_on_c, 0, 74, 110
2, 26880, Note_on_c, 0, 70, 110
2, 27060, Note_off_c, 0, 74, 64
2, 27072, Note_off_c, 0, 70, 64
2, 27120, Note_on_c, 0, 74, 110
2, 27120, Note_on_c, 0, 69, 110
2, 27300, Note_off_c, 0, 74, 64
2, 27312, Note_off_c, 0, 69, 64
2, 27360, Note_on_c, 0, 74, 110
2, 27360, Note_on_c, 0, 67, 110
2, 27552, Note_off_c, 0, 67, 64
2, 27600, Note_on_c, 0, 70, 110
2, 27648, Note_off_c, 0, 74, 64
2, 27720, Note_on_c, 0, 76, 110
2, 27768, Note_off_c, 0, 76, 64
2, 27780, Note_on_c, 0, 74, 110
2, 27792, Note_off_c, 0, 70, 64
2, 27828, Note_off_c, 0, 74, 64
2, 27840, Note_on_c, 0, 73, 110
2, 27840, Note_on_c, 0, 69, 110
2, 27936, Note_off_c, 0, 73, 64
2, 27960, Note_on_c, 0, 74, 110
2, 28056, Note_off_c, 0, 74, 64
2, 28080, Note_on_c, 0, 76, 110
2, 28176, Note_off_c, 0, 76, 64
2, 28200, Note_on_c, 0, 73, 110
2, 28224, Note_off_c, 0, 69, 64
2, 28296, Note_off_c, 0, 73, 64
2, 28320, Note_on_c, 0, 74, 110
2, 28320, Note_on_c, 0, 69, 110
2, 28416, Note_off_c, 0, 74, 64
2, 28440, Note_on_c, 0, 76, 110
2, 28536, Note_off_c, 0, 76, 64
2, 28560, Note_on_c, 0, 77, 110
2, 28656, Note_off_c, 0, 77, 64
2, 28680, Note_on_c, 0, 74, 110
2, 28776, Note_off_c, 0, 74, 64
2, 28800, Note_on_c, 0, 76, 110
2, 28896, Note_off_c, 0, 76, 64
2, 28920, Note_on_c, 0, 77, 110
2, 29016, Note_off_c, 0, 77, 64
2, 29040, Note_on_c, 0, 79, 110
2, 29088, Note_off_c, 0, 69, 64
2, 29136, Note_off_c, 0, 79, 64
2, 29160, Note_on_c, 0, 76, 110
2, 29256, Note_off_c, 0, 76, 64
2, 29280, Note_on_c, 0, 77, 110
2, 29280, Note_on_c, 0, 69, 110
2, 29376, Note_off_c, 0, 77, 64
2, 29400, Note_on_c, 0, 76, 110
2, 29496, Note_off_c, 0, 76, 64
2, 29520, Note_on_c, 0, 77, 110
2, 29616, Note_off_c, 0, 77, 64
2, 29640, Note_on_c, 0, 81, 110
2, 29664, Note_off_c, 0, 69, 64
2, 29736, Note_off_c, 0, 81, 64
2, 29760, Note_on_c, 0, 79, 110
2, 29856, Note_off_c, 0, 79, 64
2, 29880, Note_on_c, 0, 77, 110
2, 29976, Note_off_c, 0, 77, 64
2, 30000, Note_on_c, 0, 76, 110
2, 30096, Note_off_c, 0, 76, 64
2, 30120, Note_on_c, 0, 74, 110
2, 30216, Note_off_c, 0, 74, 64
2, 30240, Note_on_c, 0, 73, 110
2, 30336, Note_off_c, 0, 73, 64
2, 30360, Note_on_c, 0, 69, 110
2, 30456, Note_off_c, 0, 69, 64
2, 30480, Note_on_c, 0, 71, 110
2, 30576, Note_off_c, 0, 71, 64
2, 30600, Note_on_c, 0, 73, 110
2, 30696, Note_off_c, 0, 73, 64
2, 30720, Note_on_c, 0, 74, 110
2, 30720, Note_on_c, 0, 69, 110
2, 30816, Note_off_c, 0, 74, 64
2, 30840, Note_on_c, 0, 76, 110
2, 30912, Note_off_c, 0, 69, 64
2, 30936, Note_off_c, 0, 76, 64
2, 30960, Note_on_c, 0, 77, 110
2, 30960, Note_on_c, 0, 69, 110
2, 31152, Note_off_c, 0, 69, 64
2, 31152, Note_off_c, 0, 77, 64
2, 31200, Note_on_c, 0, 69, 110
2, 31200, Note_on_c, 0, 77, 110
2, 31488, Note_off_c, 0, 69, 64
2, 31560, Note_on_c, 0, 67, 110
2, 31608, Note_off_c, 0, 67, 64
2, 31620, Note_on_c, 0, 69, 110
2, 31668, Note_off_c, 0, 69, 64
2, 31680, Note_on_c, 0, 70, 110
2, 31860, Note_off_c, 0, 70, 64
2, 31920, Note_on_c, 0, 69, 110
2, 31968, Note_off_c, 0, 77, 64
2, 32100, Note_off_c, 0, 69, 64
2, 32160, Note_on_c, 0, 77, 110
2, 32160, Note_on_c, 0, 67, 110
2, 32544, Note_off_c, 0, 67, 64
2, 32544, Note_off_c, 0, 77, 64
2, 32640, Note_on_c, 0, 67, 110
2, 32640, Note_on_c, 0, 76, 110
2, 32820, Note_off_c, 0, 67, 64
2, 32880, Note_on_c, 0, 67, 110
2, 33024, Note_off_c, 0, 76, 64
2, 33060, Note_off_c, 0, 67, 64
2, 33120, Note_on_c, 0, 67, 110
2, 33120, Note_on_c, 0, 76, 110
2, 33216, Note_off_c, 0, 67, 64
2, 33240, Note_on_c, 0, 70, 110
2, 33336, Note_off_c, 0, 70, 64
2, 33360, Note_on_c, 0, 69, 110
2, 33456, Note_off_c, 0, 69, 64
2, 33480, Note_on_c, 0, 67, 110
2, 33504, Note_off_c, 0, 76, 64
2, 33576, Note_off_c, 0, 67, 64
2, 33600, Note_on_c, 0, 65, 110
2, 33600, Note_on_c, 0, 74, 110
2, 33696, Note_off_c, 0, 65, 64
2, 33720, Note_on_c, 0, 69, 110
2, 33816, Note_off_c, 0, 69, 64
2, 33840, Note_on_c, 0, 67, 110
2, 33936, Note_off_c, 0, 67, 64
2, 33960, Note_on_c, 0, 65, 110
2, 33984, Note_off_c, 0, 74, 64
2, 34056, Note_off_c, 0, 65, 64
2, 34080, Note_on_c, 0, 65, 110
2, 34080, Note_on_c, 0, 73, 110
2, 34104, Note_off_c, 0, 65, 64
2, 34110, Note_on_c, 0, 64, 110
2, 34134, Note_off_c, 0, 64, 64
2, 34140, Note_on_c, 0, 65, 110
2, 34164, Note_off_c, 0, 65, 64
2, 34170, Note_on_c, 0, 64, 110
2, 34194, Note_off_c, 0, 64, 64
2, 34200, Note_on_c, 0, 65, 110
2, 34224, Note_off_c, 0, 65, 64
2, 34230, Note_on_c, 0, 64, 110
2, 34254, Note_off_c, 0, 64, 64
2, 34260, Note_on_c, 0, 65, 110
2, 34272, Note_off_c, 0, 73, 64
2, 34284, Note_off_c, 0, 65, 64
2, 34290, Note_on_c, 0, 64, 110
2, 34314, Note_off_c, 0, 64, 64
2, 34320, Note_on_c, 0, 62, 110
2, 34320, Note_on_c, 0, 74, 110
2, 34416, Note_off_c, 0, 74, 64
2, 34440, Note_on_c, 0, 76, 110
2, 34512, Note_off_c, 0, 62, 64
2, 34536, Note_off_c, 0, 76, 64
2, 34560, Note_on_c, 0, 77, 110
2, 34656, Note_off_c, 0, 77, 64
2, 34680, Note_on_c, 0, 79, 110
2, 34776, Note_off_c, 0, 79, 64
2, 34800, Note_on_c, 0, 81, 110
2, 34800, Note_on_c, 0, 74, 110
2, 34896, Note_off_c, 0, 74, 64
2, 34920, Note_on_c, 0, 76, 110
2, 34992, Note_off_c, 0, 81, 64
2, 35016, Note_off_c, 0, 76, 64
2, 35040, Note_on_c, 0, 82, 110
2, 35040, Note_on_c, 0, 77, 110
2, 35064, Note_off_c, 0, 82, 64
2, 35070, Note_on_c, 0, 81, 110
2, 35094, Note_off_c, 0, 81, 64
2, 35100, Note_on_c, 0, 82, 110
2, 35124, Note_off_c, 0, 82, 64
2, 35130, Note_on_c, 0, 81, 110
2, 35154, Note_off_c, 0, 81, 64
2, 35160, Note_on_c, 0, 82, 110
2, 35184, Note_off_c, 0, 82, 64
2, 35190, Note_on_c, 0, 81, 110
2, 35214, Note_off_c, 0, 81, 64
2, 35220, Note_on_c, 0, 82, 110
2, 35244, Note_off_c, 0, 82, 64
2, 35250, Note_on_c, 0, 81, 110
2, 35274, Note_off_c, 0, 81, 64
2, 35280, Note_on_c, 0, 82, 110
2, 35304, Note_off_c, 0, 82, 64
2, 35310, Note_on_c, 0, 81, 110
2, 35334, Note_off_c, 0, 81, 64
2, 35340, Note_on_c, 0, 82, 110
2, 35364, Note_off_c, 0, 82, 64
2, 35370, Note_on_c, 0, 81, 110
2, 35394, Note_off_c, 0, 81, 64
2, 35400, Note_on_c, 0, 79, 110
2, 35424, Note_off_c, 0, 77, 64
2, 35448, Note_off_c, 0, 79, 64
2, 35460, Note_on_c, 0, 81, 110
2, 35508, Note_off_c, 0, 81, 64
2, 35520, Note_on_c, 0, 82, 110
2, 35520, Note_on_c, 0, 79, 110
2, 35700, Note_off_c, 0, 82, 64
2, 35712, Note_off_c, 0, 79, 64
2, 35760, Note_on_c, 0, 81, 110
2, 35760, Note_on_c, 0, 77, 110
2, 35940, Note_off_c, 0, 81, 64
2, 35952, Note_off_c, 0, 77, 64
2, 36000, Note_on_c, 0, 76, 110
2, 36000, Note_on_c, 0, 79, 110
2, 36096, Note_off_c, 0, 79, 64
2, 36120, Note_on_c, 0, 82, 110
2, 36216, Note_off_c, 0, 82, 64
2, 36240, Note_on_c, 0, 81, 110
2, 36336, Note_off_c, 0, 81, 64
2, 36360, Note_on_c, 0, 79, 110
2, 36384, Note_off_c, 0, 76, 64
2, 36456, Note_off_c, 0, 79, 64
2, 36480, Note_on_c, 0, 77, 110
2, 36576, Note_off_c, 0, 77, 64
2, 36600, Note_on_c, 0, 76, 110
2, 36696, Note_off_c, 0, 76, 64
2, 36720, Note_on_c, 0, 74, 110
2, 36816, Note_off_c, 0, 74, 64
2, 36840, Note_on_c, 0, 73, 110
2, 36936, Note_off_c, 0, 73, 64
2, 36960, Note_on_c, 0, 81, 110
2, 36960, Note_on_c, 0, 74, 110
2, 37320, Note_off_c, 0, 81, 64
2, 37344, Note_off_c, 0, 74, 64
2, 37440, Note_on_c, 0, 76, 110
2, 37440, Note_on_c, 0, 73, 110
2, 37800, Note_off_c, 0, 76, 64
2, 37824, Note_off_c, 0, 73, 64
2, 37920, Note_on_c, 0, 74, 110
2, 37920, Note_on_c, 0, 74, 110
2, 38304, Note_off_c, 0, 74, 64
2, 38304, Note_off_c, 0, 74, 64
2, 38400, Note_on_c, 0, 76, 110
2, 38400, Note_on_c, 0, 72, 110
2, 38580, Note_off_c, 0, 76, 64
2, 38592, Note_off_c, 0, 72, 64
2, 38640, Note_on_c, 0, 76, 110
2, 38640, Note_on_c, 0, 71, 110
2, 38820, Note_off_c, 0, 76, 64
2, 38832, Note_off_c, 0, 71, 64
2, 38880, Note_on_c, 0, 77, 110
2, 38880, Note_on_c, 0, 69, 110
2, 38904, Note_off_c, 0, 77, 64
2, 38910, Note_on_c, 0, 76, 110
2, 38934, Note_off_c, 0, 76, 64
2, 38940, Note_on_c, 0, 77, 110
2, 38964, Note_off_c, 0, 77, 64
2, 38970, Note_on_c, 0, 76, 110
2, 38994, Note_off_c, 0, 76, 64
2, 39000, Note_on_c, 0, 77, 110
2, 39024, Note_off_c, 0, 77, 64
2, 39030, Note_on_c, 0, 76, 110
2, 39054, Note_off_c, 0, 76, 64
2, 39060, Note_on_c, 0, 77, 110
2, 39084, Note_off_c, 0, 77, 64
2, 39090, Note_on_c, 0, 76, 110
2, 39114, Note_off_c, 0, 76, 64
2, 39120, Note_on_c, 0, 77, 110
2, 39144, Note_off_c, 0, 77, 64
2, 39150, Note_on_c, 0, 76, 110
2, 39174, Note_off_c, 0, 76, 64
2, 39180, Note_on_c, 0, 77, 110
2, 39204, Note_off_c, 0, 77, 64
2, 39210, Note_on_c, 0, 76, 110
2, 39234, Note_off_c, 0, 76, 64
2, 39240, Note_on_c, 0, 74, 110
2, 39264, Note_off_c, 0, 69, 64
2, 39288, Note_off_c, 0, 74, 64
2, 39300, Note_on_c, 0, 76, 110
2, 39348, Note_off_c, 0, 76, 64
2, 39360, Note_on_c, 0, 77, 110
2, 39360, Note_on_c, 0, 74, 110
2, 39540, Note_off_c, 0, 77, 64
2, 39552, Note_off_c, 0, 74, 64
2, 39600, Note_on_c, 0, 76, 110
2, 39600, Note_on_c, 0, 72, 110
2, 39780, Note_off_c, 0, 76, 64
2, 39792, Note_off_c, 0, 72, 64
2, 39840, Note_on_c, 0, 74, 110
2, 39840, Note_on_c, 0, 71, 110
2, 40224, Note_off_c, 0, 71, 64
2, 40224, Note_off_c, 0, 74, 64
2, 40320, Note_on_c, 0, 74, 110
2, 40320, Note_on_c, 0, 71, 110
2, 40500, Note_off_c, 0, 74, 64
2, 40512, Note_off_c, 0, 71, 64
2, 40560, Note_on_c, 0, 79, 110
2, 40560, Note_on_c, 0, 71, 110
2, 40740, Note_off_c, 0, 79, 64
2, 40752, Note_off_c, 0, 71, 64
2, 40800, Note_on_c, 0, 77, 110
2, 40800, Note_on_c, 0, 72, 110
2, 40824, Note_off_c, 0, 77, 64
2, 40830, Note_on_c, 0, 76, 110
2, 40854, Note_off_c, 0, 76, 64
2, 40860, Note_on_c, 0, 77, 110
2, 40884, Note_off_c, 0, 77, 64
2, 40890, Note_on_c, 0, 76, 110
2, 40914, Note_off_c, 0, 76, 64
2, 40920, Note_on_c, 0, 77, 110
2, 40944, Note_off_c, 0, 77, 64
2, 40950, Note_on_c, 0, 76, 110
2, 40974, Note_off_c, 0, 76, 64
2, 40980, Note_on_c, 0, 77, 110
2, 41004, Note_off_c, 0, 77, 64
2, 41010, Note_on_c, 0, 76, 110
2, 41034, Note_off_c, 0, 76, 64
2, 41040, Note_on_c, 0, 77, 110
2, 41064, Note_off_c, 0, 77, 64
2, 41070, Note_on_c, 0, 76, 110
2, 41094, Note_off_c, 0, 76, 64
2, 41100, Note_on_c, 0, 77, 110
2, 41124, Note_off_c, 0, 77, 64
2, 41130, Note_on_c, 0, 76, 110
2, 41154, Note_off_c, 0, 76, 64
2, 41160, Note_on_c, 0, 74, 110
2, 41184, Note_off_c, 0, 72, 64
2, 41208, Note_off_c, 0, 74, 64
2, 41220, Note_on_c, 0, 76, 110
2, 41268, Note_off_c, 0, 76, 64
2, 41280, Note_on_c, 0, 77, 110
2, 41280, Note_on_c, 0, 74, 110
2, 41376, Note_off_c, 0, 77, 64
2, 41400, Note_on_c, 0, 79, 110
2, 41472, Note_off_c, 0, 74, 64
2, 41496, Note_off_c, 0, 79, 64
2, 41520, Note_on_c, 0, 72, 110
2, 41520, Note_on_c, 0, 76, 110
2, 41616, Note_off_c, 0, 76, 64
2, 41640, Note_on_c, 0, 77, 110
2, 41712, Note_off_c, 0, 72, 64
2, 41736, Note_off_c, 0, 77, 64
2, 41760, Note_on_c, 0, 71, 110
2, 41760, Note_on_c, 0, 74, 110
2, 41952, Note_off_c, 0, 74, 64
2, 41952, Note_off_c, 0, 71, 64
2, 42000, Note_on_c, 0, 72, 110
2, 42000, Note_on_c, 0, 72, 110
2, 42192, Note_off_c, 0, 72, 64
2, 42192, Note_off_c, 0, 72, 64
2, 42240, Note_on_c, 0, 72, 110
2, 42240, Note_on_c, 0, 76, 110
2, 42432, Note_off_c, 0, 76, 64
2, 42432, Note_off_c, 0, 72, 64
2, 42480, Note_on_c, 0, 72, 110
2, 42480, Note_on_c, 0, 78, 110
2, 42528, Note_off_c, 0, 78, 64
2, 42540, Note_on_c, 0, 79, 110
2, 42588, Note_off_c, 0, 79, 64
2, 42600, Note_on_c, 0, 81, 110
2, 42672, Note_off_c, 0, 72, 64
2, 42696, Note_off_c, 0, 81, 64
2, 42720, Note_on_c, 0, 69, 110
2, 42720, Note_on_c, 0, 78, 110
2, 43008, Note_off_c, 0, 78, 64
2, 43080, Note_on_c, 0, 76, 110
2, 43104, Note_off_c, 0, 69, 64
2, 43128, Note_off_c, 0, 76, 64
2, 43140, Note_on_c, 0, 78, 110
2, 43188, Note_off_c, 0, 78, 64
2, 43200, Note_on_c, 0, 79, 110
2, 43200, Note_on_c, 0, 74, 110
2, 43380, Note_off_c, 0, 79, 64
2, 43392, Note_off_c, 0, 74, 64
2, 43440, Note_on_c, 0, 81, 110
2, 43440, Note_on_c, 0, 74, 110
2, 43620, Note_off_c, 0, 81, 64
2, 43632, Note_off_c, 0, 74, 64
2, 43680, Note_on_c, 0, 74, 110
2, 43680, Note_on_c, 0, 82, 110
2, 43968, Note_off_c, 0, 82, 64
2, 44040, Note_on_c, 0, 81, 110
2, 44088, Note_off_c, 0, 81, 64
2, 44100, Note_on_c, 0, 82, 110
2, 44148, Note_off_c, 0, 82, 64
2, 44160, Note_on_c, 0, 84, 110
2, 44256, Note_off_c, 0, 84, 64
2, 44280, Note_on_c, 0, 82, 110
2, 44376, Note_off_c, 0, 82, 64
2, 44400, Note_on_c, 0, 81, 110
2, 44496, Note_off_c, 0, 81, 64
2, 44520, Note_on_c, 0, 82, 110
2, 44616, Note_off_c, 0, 82, 64
2, 44640, Note_on_c, 0, 84, 110
2, 44736, Note_off_c, 0, 84, 64
2, 44760, Note_on_c, 0, 82, 110
2, 44856, Note_off_c, 0, 82, 64
2, 44880, Note_on_c, 0, 81, 110
2, 44976, Note_off_c, 0, 81, 64
2, 45000, Note_on_c, 0, 79, 110
2, 45096, Note_off_c, 0, 79, 64
2, 45120, Note_on_c, 0, 82, 110
2, 45216, Note_off_c, 0, 82, 64
2, 45240, Note_on_c, 0, 81, 110
2, 45336, Note_off_c, 0, 81, 64
2, 45360, Note_on_c, 0, 79, 110
2, 45456, Note_off_c, 0, 79, 64
2, 45480, Note_on_c, 0, 78, 110
2, 45576, Note_off_c, 0, 78, 64
2, 45600, Note_on_c, 0, 79, 110
2, 45696, Note_off_c, 0, 74, 64
2, 45720, Note_on_c, 0, 75, 110
2, 45816, Note_off_c, 0, 75, 64
2, 45840, Note_on_c, 0, 77, 110
2, 45936, Note_off_c, 0, 77, 64
2, 45960, Note_on_c, 0, 74, 110
2, 46056, Note_off_c, 0, 74, 64
2, 46080, Note_on_c, 0, 77, 110
2, 46176, Note_off_c, 0, 77, 64
2, 46200, Note_on_c, 0, 75, 110
2, 46296, Note_off_c, 0, 75, 64
2, 46320, Note_on_c, 0, 74, 110
2, 46416, Note_off_c, 0, 74, 64
2, 46440, Note_on_c, 0, 72, 110
2, 46536, Note_off_c, 0, 72, 64
2, 46560, Note_on_c, 0, 75, 110
2, 46656, Note_off_c, 0, 75, 64
2, 46680, Note_on_c, 0, 74, 110
2, 46776, Note_off_c, 0, 74, 64
2, 46800, Note_on_c, 0, 72, 110
2, 46896, Note_off_c, 0, 72, 64
2, 46920, Note_on_c, 0, 71, 110
2, 47016, Note_off_c, 0, 71, 64
2, 47040, Note_on_c, 0, 72, 110
2, 47136, Note_off_c, 0, 72, 64
2, 47160, Note_on_c, 0, 74, 110
2, 47256, Note_off_c, 0, 74, 64
2, 47280, Note_on_c, 0, 75, 110
2, 47376, Note_off_c, 0, 75, 64
2, 47400, Note_on_c, 0, 72, 110
2, 47496, Note_off_c, 0, 72, 64
2, 47520, Note_on_c, 0, 75, 110
2, 47616, Note_off_c, 0, 75, 64
2, 47640, Note_on_c, 0, 74, 110
2, 47736, Note_off_c, 0, 74, 64
2, 47760, Note_on_c, 0, 72, 110
2, 47856, Note_off_c, 0, 72, 64
2, 47880, Note_on_c, 0, 70, 110
2, 47976, Note_off_c, 0, 70, 64
2, 48000, Note_on_c, 0, 74, 110
2, 48096, Note_off_c, 0, 74, 64
2, 48120, Note_on_c, 0, 72, 110
2, 48216, Note_off_c, 0, 72, 64
2, 48240, Note_on_c, 0, 70, 110
2, 48288, Note_off_c, 0, 79, 64
2, 48336, Note_off_c, 0, 70, 64
2, 48360, Note_on_c, 0, 69, 110
2, 48456, Note_off_c, 0, 69, 64
2, 48480, Note_on_c, 0, 70, 110
2, 48480, Note_on_c, 0, 79, 110
2, 48576, Note_off_c, 0, 79, 64
2, 48576, Note_off_c, 0, 70, 64
2, 48600, Note_on_c, 0, 81, 110
2, 48600, Note_on_c, 0, 72, 110
2, 48696, Note_off_c, 0, 72, 64
2, 48696, Note_off_c, 0, 81, 64
2, 48720, Note_on_c, 0, 74, 110
2, 48720, Note_on_c, 0, 82, 110
2, 48816, Note_off_c, 0, 82, 64
2, 48816, Note_off_c, 0, 74, 64
2, 48840, Note_on_c, 0, 79, 110
2, 48840, Note_on_c, 0, 70, 110
2, 48936, Note_off_c, 0, 70, 64
2, 48936, Note_off_c, 0, 79, 64
2, 48960, Note_on_c, 0, 82, 110
2, 48960, Note_on_c, 0, 74, 110
2, 49056, Note_off_c, 0, 74, 64
2, 49056, Note_off_c, 0, 82, 64
2, 49080, Note_on_c, 0, 72, 110
2, 49080, Note_on_c, 0, 81, 110
2, 49176, Note_off_c, 0, 81, 64
2, 49176, Note_off_c, 0, 72, 64
2, 49200, Note_on_c, 0, 70, 110
2, 49200, Note_on_c, 0, 79, 110
2, 49296, Note_off_c, 0, 79, 64
2, 49296, Note_off_c, 0, 70, 64
2, 49320, Note_on_c, 0, 69, 110
2, 49320, Note_on_c, 0, 78, 110
2, 49416, Note_off_c, 0, 78, 64
2, 49416, Note_off_c, 0, 69, 64
2, 49440, Note_on_c, 0, 79, 110
2, 49440, Note_on_c, 0, 70, 110
2, 49824, Note_off_c, 0, 70, 64
2, 49824, Note_off_c, 0, 79, 64
2, 49920, Note_on_c, 0, 74, 110
2, 49920, Note_on_c, 0, 70, 110
2, 50100, Note_off_c, 0, 74, 64
2, 50112, Note_off_c, 0, 70, 64
2, 50160, Note_on_c, 0, 74, 110
2, 50160, Note_on_c, 0, 69, 110
2, 50340, Note_off_c, 0, 74, 64
2, 50352, Note_off_c, 0, 69, 64
2, 50400, Note_on_c, 0, 74, 110
2, 50400, Note_on_c, 0, 67, 110
2, 50592, Note_off_c, 0, 67, 64
2, 50640, Note_on_c, 0, 70, 110
2, 50688, Note_off_c, 0, 74, 64
2, 50760, Note_on_c, 0, 76, 110
2, 50808, Note_off_c, 0, 76, 64
2, 50820, Note_on_c, 0, 74, 110
2, 50832, Note_off_c, 0, 70, 64
2, 50868, Note_off_c, 0, 74, 64
2, 50880, Note_on_c, 0, 73, 110
2, 50880, Note_on_c, 0, 69, 110
2, 50976, Note_off_c, 0, 73, 64
2, 51000, Note_on_c, 0, 74, 110
2, 51096, Note_off_c, 0, 74, 64
2, 51120, Note_on_c, 0, 76, 110
2, 51216, Note_off_c, 0, 76, 64
2, 51240, Note_on_c, 0, 73, 110
2, 51264, Note_off_c, 0, 69, 64
2, 51336, Note_off_c, 0, 73, 64
2, 51360, Note_on_c, 0, 74, 110
2, 51360, Note_on_c, 0, 69, 110
2, 51456, Note_off_c, 0, 74, 64
2, 51480, Note_on_c, 0, 76, 110
2, 51576, Note_off_c, 0, 76, 64
2, 51600, Note_on_c, 0, 77, 110
2, 51696, Note_off_c, 0, 77, 64
2, 51720, Note_on_c, 0, 74, 110
2, 51816, Note_off_c, 0, 74, 64
2, 51840, Note_on_c, 0, 76, 110
2, 51936, Note_off_c, 0, 76, 64
2, 51960, Note_on_c, 0, 77, 110
2, 52056, Note_off_c, 0, 77, 64
2, 52080, Note_on_c, 0, 79, 110
2, 52128, Note_off_c, 0, 69, 64
2, 52176, Note_off_c, 0, 79, 64
2, 52200, Note_on_c, 0, 76, 110
2, 52296, Note_off_c, 0, 76, 64
2, 52320, Note_on_c, 0, 77, 110
2, 52320, Note_on_c, 0, 69, 110
2, 52416, Note_off_c, 0, 77, 64
2, 52440, Note_on_c, 0, 76, 110
2, 52536, Note_off_c, 0, 76, 64
2, 52560, Note_on_c, 0, 77, 110
2, 52656, Note_off_c, 0, 77, 64
2, 52680, Note_on_c, 0, 81, 110
2, 52704, Note_off_c, 0, 69, 64
2, 52776, Note_off_c, 0, 81, 64
2, 52800, Note_on_c, 0, 79, 110
2, 52896, Note_off_c, 0, 79, 64
2, 52920, Note_on_c, 0, 77, 110
2, 53016, Note_off_c, 0, 77, 64
2, 53040, Note_on_c, 0, 76, 110
2, 53136, Note_off_c, 0, 76, 64
2, 53160, Note_on_c, 0, 74, 110
2, 53256, Note_off_c, 0, 74, 64
2, 53280, Note_on_c, 0, 73, 110
2, 53376, Note_off_c, 0, 73, 64
2, 53400, Note_on_c, 0, 69, 110
2, 53496, Note_off_c, 0, 69, 64
2, 53520, Note_on_c, 0, 71, 110
2, 53616, Note_off_c, 0, 71, 64
2, 53640, Note_on_c, 0, 73, 110
2, 53736, Note_off_c, 0, 73, 64
2, 53760, Note_on_c, 0, 74, 110
2, 53760, Note_on_c, 0, 69, 110
2, 53856, Note_off_c, 0, 74, 64
2, 53880, Note_on_c, 0, 76, 110
2, 53952, Note_off_c, 0, 69, 64
2, 53976, Note_off_c, 0, 76, 64
2, 54000, Note_on_c, 0, 77, 110
2, 54000, Note_on_c, 0, 69, 110
2, 54192, Note_off_c, 0, 69, 64
2, 54192, Note_off_c, 0, 77, 64
2, 54240, Note_on_c, 0, 69, 110
2, 54240, Note_on_c, 0, 77, 110
2, 54528, Note_off_c, 0, 69, 64
2, 54600, Note_on_c, 0, 67, 110
2, 54648, Note_off_c, 0, 67, 64
2, 54660, Note_on_c, 0, 69, 110
2, 54708, Note_off_c, 0, 69, 64
2, 54720, Note_on_c, 0, 70, 110
2, 54900, Note_off_c, 0, 70, 64
2, 54960, Note_on_c, 0, 69, 110
2, 55008, Note_off_c, 0, 77, 64
2, 55140, Note_off_c, 0, 69, 64
2, 55200, Note_on_c, 0, 77, 110
2, 55200, Note_on_c, 0, 67, 110
2, 55584, Note_off_c, 0, 67, 64
2, 55584, Note_off_c, 0, 77, 64
2, 55680, Note_on_c, 0, 67, 110
2, 55680, Note_on_c, 0, 76, 110
2, 55860, Note_off_c, 0, 67, 64
2, 55920, Note_on_c, 0, 67, 110
2, 56064, Note_off_c, 0, 76, 64
2, 56100, Note_off_c, 0, 67, 64
2, 56160, Note_on_c, 0, 67, 110
2, 56160, Note_on_c, 0, 76, 110
2, 56256, Note_off_c, 0, 67, 64
2, 56280, Note_on_c, 0, 70, 110
2, 56376, Note_off_c, 0, 70, 64
2, 56400, Note_on_c, 0, 69, 110
2, 56496, Note_off_c, 0, 69, 64
2, 56520, Note_on_c, 0, 67, 110
2, 56544, Note_off_c, 0, 76, 64
2, 56616, Note_off_c, 0, 67, 64
2, 56640, Note_on_c, 0, 65, 110
2, 56640, Note_on_c, 0, 74, 110
2, 56736, Note_off_c, 0, 65, 64
2, 56760, Note_on_c, 0, 69, 110
2, 56856, Note_off_c, 0, 69, 64
2, 56880, Note_on_c, 0, 67, 110
2, 56976, Note_off_c, 0, 67, 64
2, 57000, Note_on_c, 0, 65, 110
2, 57024, Note_off_c, 0, 74, 64
2, 57096, Note_off_c, 0, 65, 64
2, 57120, Note_on_c, 0, 65, 110
2, 57120, Note_on_c, 0, 73, 110
2, 57144, Note_off_c, 0, 65, 64
2, 57150, Note_on_c, 0, 64, 110
2, 57174, Note_off_c, 0, 64, 64
2, 57180, Note_on_c, 0, 65, 110
2, 57204, Note_off_c, 0, 65, 64
2, 57210, Note_on_c, 0, 64, 110
2, 57234, Note_off_c, 0, 64, 64
2, 57240, Note_on_c, 0, 65, 110
2, 57264, Note_off_c, 0, 65, 64
2, 57270, Note_on_c, 0, 64, 110
2, 57294, Note_off_c, 0, 64, 64
2, 57300, Note_on_c, 0, 65, 110
2, 57312, Note_off_c, 0, 73, 64
2, 57324, Note_off_c, 0, 65, 64
2, 57330, Note_on_c, 0, 64, 110
2, 57354, Note_off_c, 0, 64, 64
2, 57360, Note_on_c, 0, 62, 110
2, 57360, Note_on_c, 0, 74, 110
2, 57456, Note_off_c, 0, 74, 64
2, 57480, Note_on_c, 0, 76, 110
2, 57552, Note_off_c, 0, 62, 64
2, 57576, Note_off_c, 0, 76, 64
2, 57600, Note_on_c, 0, 77, 110
2, 57696, Note_off_c, 0, 77, 64
2, 57720, Note_on_c, 0, 79, 110
2, 57816, Note_off_c, 0, 79, 64
2, 57840, Note_on_c, 0, 81, 110
2, 57840, Note_on_c, 0, 74, 110
2, 57936, Note_off_c, 0, 74, 64
2, 57960, Note_on_c, 0, 76, 110
2, 58032, Note_off_c, 0, 81, 64
2, 58056, Note_off_c, 0, 76, 64
2, 58080, Note_on_c, 0, 82, 110
2, 58080, Note_on_c, 0, 77, 110
2, 58104, Note_off_c, 0, 82, 64
2, 58110, Note_on_c, 0, 81, 110
2, 58134, Note_off_c, 0, 81, 64
2, 58140, Note_on_c, 0, 82, 110
2, 58164, Note_off_c, 0, 82, 64
2, 58170, Note_on_c, 0, 81, 110
2, 58194, Note_off_c, 0, 81, 64
2, 58200, Note_on_c, 0, 82, 110
2, 58224, Note_off_c, 0, 82, 64
2, 58230, Note_on_c, 0, 81, 110
2, 58254, Note_off_c, 0, 81, 64
2, 58260, Note_on_c, 0, 82, 110
2, 58284, Note_off_c, 0, 82, 64
2, 58290, Note_on_c, 0, 81, 110
2, 58314, Note_off_c, 0, 81, 64
2, 58320, Note_on_c, 0, 82, 110
2, 58344, Note_off_c, 0, 82, 64
2, 58350, Note_on_c, 0, 81, 110
2, 58374, Note_off_c, 0, 81, 64
2, 58380, Note_on_c, 0, 82, 110
2, 58404, Note_off_c, 0, 82, 64
2, 58410, Note_on_c, 0, 81, 110
2, 58434, Note_off_c, 0, 81, 64
2, 58440, Note_on_c, 0, 79, 110
2, 58464, Note_off_c, 0, 77, 64
2, 58488, Note_off_c, 0, 79, 64
2, 58500, Note_on_c, 0, 81, 110
2, 58548, Note_off_c, 0, 81, 64
2, 58560, Note_on_c, 0, 82, 110
2, 58560, Note_on_c, 0, 79, 110
2, 58740, Note_off_c, 0, 82, 64
2, 58752, Note_off_c, 0, 79, 64
2, 58800, Note_on_c, 0, 81, 110
2, 58800, Note_on_c, 0, 77, 110
2, 58980, Note_off_c, 0, 81, 64
2, 58992, Note_off_c, 0, 77, 64
2, 59040, Note_on_c, 0, 76, 110
2, 59040, Note_on_c, 0, 79, 110
2, 59136, Note_off_c, 0, 79, 64
2, 59160, Note_on_c, 0, 82, 110
2, 59256, Note_off_c, 0, 82, 64
2, 59280, Note_on_c, 0, 81, 110
2, 59376, Note_off_c, 0, 81, 64
2, 59400, Note_on_c, 0, 79, 110
2, 59424, Note_off_c, 0, 76, 64
2, 59496, Note_off_c, 0, 79, 64
2, 59520, Note_on_c, 0, 77, 110
2, 59616, Note_off_c, 0, 77, 64
2, 59640, Note_on_c, 0, 76, 110
2, 59736, Note_off_c, 0, 76, 64
2, 59760, Note_on_c, 0, 74, 110
2, 59856, Note_off_c, 0, 74, 64
2, 59880, Note_on_c, 0, 73, 110
2, 59976, Note_off_c, 0, 73, 64
2, 60000, Note_on_c, 0, 81, 110
2, 60000, Note_on_c, 0, 74, 110
2, 60360, Note_off_c, 0, 81, 64
2, 60384, Note_off_c, 0, 74, 64
2, 60480, Note_on_c, 0, 76, 110
2, 60480, Note_on_c, 0, 73, 110
2, 60840, Note_off_c, 0, 76, 64
2, 60864, Note_off_c, 0, 73, 64
2, 60960, Note_on_c, 0, 74, 110
2, 60960, Note_on_c, 0, 74, 110
2, 61344, Note_off_c, 0, 74, 64
2, 61344, Note_off_c, 0, 74, 64
2, 61344, End_track
3, 0, Start_track
3, 0, Title_t, "J.S. Bach, Edition Kalmus"
3, 0, Program_c, 1, 0
3, 0, Note_on_c, 1, 50, 110
3, 96, Note_off_c, 1, 50, 64
3, 120, Note_on_c, 1, 62, 110
3, 216, Note_off_c, 1, 62, 64
3, 240, Note_on_c, 1, 61, 110
3, 336, Note_off_c, 1, 61, 64
3, 360, Note_on_c, 1, 57, 110
3, 456, Note_off_c, 1, 57, 64
3, 480, Note_on_c, 1, 62, 110
3, 576, Note_off_c, 1, 62, 64
3, 600, Note_on_c, 1, 57, 110
3, 696, Note_off_c, 1, 57, 64
3, 720, Note_on_c, 1, 50, 110
3, 816, Note_off_c, 1, 50, 64
3, 840, Note_on_c, 1, 60, 110
3, 936, Note_off_c, 1, 60, 64
3, 960, Note_on_c, 1, 58, 110
3, 1056, Note_off_c, 1, 58, 64
3, 1080, Note_on_c, 1, 57, 110
3, 1176, Note_off_c, 1, 57, 64
3, 1200, Note_on_c, 1, 58, 110
3, 1296, Note_off_c, 1, 58, 64
3, 1320, Note_on_c, 1, 55, 110
3, 1416, Note_off_c, 1, 55, 64
3, 1440, Note_on_c, 1, 60, 110
3, 1536, Note_off_c, 1, 60, 64
3, 1560, Note_on_c, 1, 55, 110
3, 1656, Note_off_c, 1, 55, 64
3, 1680, Note_on_c, 1, 48, 110
3, 1776, Note_off_c, 1, 48, 64
3, 1800, Note_on_c, 1, 55, 110
3, 1896, Note_off_c, 1, 55, 64
3, 1920, Note_on_c, 1, 60, 110
3, 2016, Note_off_c, 1, 60, 64
3, 2040, Note_on_c, 1, 62, 110
3, 2136, Note_off_c, 1, 62, 64
3, 2160, Note_on_c, 1, 64, 110
3, 2256, Note_off_c, 1, 64, 64
3, 2280, Note_on_c, 1, 62, 110
3, 2376, Note_off_c, 1, 62, 64
3, 2400, Note_on_c, 1, 61, 110
3, 2496, Note_off_c, 1, 61, 64
3, 2520, Note_on_c, 1, 57, 110
3, 2616, Note_off_c, 1, 57, 64
3, 2640, Note_on_c, 1, 59, 110
3, 2736, Note_off_c, 1, 59, 64
3, 2760, Note_on_c, 1, 61, 110
3, 2856, Note_off_c, 1, 61, 64
3, 2880, Note_on_c, 1, 62, 110
3, 2976, Note_off_c, 1, 62, 64
3, 3000, Note_on_c, 1, 61, 110
3, 3096, Note_off_c, 1, 61, 64
3, 3120, Note_on_c, 1, 62, 110
3, 3216, Note_off_c, 1, 62, 64
3, 3240, Note_on_c, 1, 55, 110
3, 3336, Note_off_c, 1, 55, 64
3, 3360, Note_on_c, 1, 57, 110
3, 3456, Note_off_c, 1, 57, 64
3, 3480, Note_on_c, 1, 45, 110
3, 3576, Note_off_c, 1, 45, 64
3, 3600, Note_on_c, 1, 50, 110
3, 3696, Note_off_c, 1, 50, 64
3, 3720, Note_on_c, 1, 52, 110
3, 3816, Note_off_c, 1, 52, 64
3, 3840, Note_on_c, 1, 53, 110
3, 3936, Note_off_c, 1, 53, 64
3, 3960, Note_on_c, 1, 50, 110
3, 4056, Note_off_c, 1, 50, 64
3, 4080, Note_on_c, 1, 49, 110
3, 4176, Note_off_c, 1, 49, 64
3, 4200, Note_on_c, 1, 45, 110
3, 4296, Note_off_c, 1, 45, 64
3, 4320, Note_on_c, 1, 50, 110
3, 4416, Note_off_c, 1, 50, 64
3, 4440, Note_on_c, 1, 45, 110
3, 4536, Note_off_c, 1, 45, 64
3, 4560, Note_on_c, 1, 38, 110
3, 4656, Note_off_c, 1, 38, 64
3, 4680, Note_on_c, 1, 48, 110
3, 4776, Note_off_c, 1, 48, 64
3, 4800, Note_on_c, 1, 46, 110
3, 4896, Note_off_c, 1, 46, 64
3, 4920, Note_on_c, 1, 45, 110
3, 5016, Note_off_c, 1, 45, 64
3, 5040, Note_on_c, 1, 46, 110
3, 5136, Note_off_c, 1, 46, 64
3, 5160, Note_on_c, 1, 43, 110
3, 5256, Note_off_c, 1, 43, 64
3, 5280, Note_on_c, 1, 48, 110
3, 5376, Note_off_c, 1, 48, 64
3, 5400, Note_on_c, 1, 43, 110
3, 5496, Note_off_c, 1, 43, 64
3, 5520, Note_on_c, 1, 36, 110
3, 5616, Note_off_c, 1, 36, 64
3, 5640, Note_on_c, 1, 46, 110
3, 5736, Note_off_c, 1, 46, 64
3, 5760, Note_on_c, 1, 45, 110
3, 5856, Note_off_c, 1, 45, 64
3, 5880, Note_on_c, 1, 46, 110
3, 5976, Note_off_c, 1, 46, 64
3, 6000, Note_on_c, 1, 48, 110
3, 6096, Note_off_c, 1, 48, 64
3, 6120, Note_on_c, 1, 45, 110
3, 6216, Note_off_c, 1, 45, 64
3, 6240, Note_on_c, 1, 50, 110
3, 6336, Note_off_c, 1, 50, 64
3, 6360, Note_on_c, 1, 52, 110
3, 6456, Note_off_c, 1, 52, 64
3, 6480, Note_on_c, 1, 53, 110
3, 6576, Note_off_c, 1, 53, 64
3, 6600, Note_on_c, 1, 50, 110
3, 6696, Note_off_c, 1, 50, 64
3, 6720, Note_on_c, 1, 58, 110
3, 6816, Note_off_c, 1, 58, 64
3, 6840, Note_on_c, 1, 57, 110
3, 6936, Note_off_c, 1, 57, 64
3, 6960, Note_on_c, 1, 58, 110
3, 7056, Note_off_c, 1, 58, 64
3, 7080, Note_on_c, 1, 46, 110
3, 7176, Note_off_c, 1, 46, 64
3, 7200, Note_on_c, 1, 45, 110
3, 7296, Note_off_c, 1, 45, 64
3, 7320, Note_on_c, 1, 55, 110
3, 7416, Note_off_c, 1, 55, 64
3, 7440, Note_on_c, 1, 53, 110
3, 7536, Note_off_c, 1, 53, 64
3, 7560, Note_on_c, 1, 52, 110
3, 7656, Note_off_c, 1, 52, 64
3, 7680, Note_on_c, 1, 50, 110
3, 7776, Note_off_c, 1, 50, 64
3, 7800, Note_on_c, 1, 62, 110
3, 7896, Note_off_c, 1, 62, 64
3, 7920, Note_on_c, 1, 61, 110
3, 8016, Note_off_c, 1, 61, 64
3, 8040, Note_on_c, 1, 57, 110
3, 8136, Note_off_c, 1, 57, 64
3, 8160, Note_on_c, 1, 62, 110
3, 8256, Note_off_c, 1, 62, 64
3, 8280, Note_on_c, 1, 57, 110
3, 8376, Note_off_c, 1, 57, 64
3, 8400, Note_on_c, 1, 50, 110
3, 8496, Note_off_c, 1, 50, 64
3, 8520, Note_on_c, 1, 60, 110
3, 8616, Note_off_c, 1, 60, 64
3, 8640, Note_on_c, 1, 58, 110
3, 8736, Note_off_c, 1, 58, 64
3, 8760, Note_on_c, 1, 57, 110
3, 8856, Note_off_c, 1, 57, 64
3, 8880, Note_on_c, 1, 58, 110
3, 8976, Note_off_c, 1, 58, 64
3, 9000, Note_on_c, 1, 55, 110
3, 9096, Note_off_c, 1, 55, 64
3, 9120, Note_on_c, 1, 60, 110
3, 9216, Note_off_c, 1, 60, 64
3, 9240, Note_on_c, 1, 55, 110
3, 9336, Note_off_c, 1, 55, 64
3, 9360, Note_on_c, 1, 48, 110
3, 9456, Note_off_c, 1, 48, 64
3, 9480, Note_on_c, 1, 55, 110
3, 9576, Note_off_c, 1, 55, 64
3, 9600, Note_on_c, 1, 60, 110
3, 9696, Note_off_c, 1, 60, 64
3, 9720, Note_on_c, 1, 62, 110
3, 9816, Note_off_c, 1, 62, 64
3, 9840, Note_on_c, 1, 64, 110
3, 9936, Note_off_c, 1, 64, 64
3, 9960, Note_on_c, 1, 62, 110
3, 10056, Note_off_c, 1, 62, 64
3, 10080, Note_on_c, 1, 61, 110
3, 10176, Note_off_c, 1, 61, 64
3, 10200, Note_on_c, 1, 57, 110
3, 10296, Note_off_c, 1, 57, 64
3, 10320, Note_on_c, 1, 59, 110
3, 10416, Note_off_c, 1, 59, 64
3, 10440, Note_on_c, 1, 61, 110
3, 10536, Note_off_c, 1, 61, 64
3, 10560, Note_on_c, 1, 62, 110
3, 10656, Note_off_c, 1, 62, 64
3, 10680, Note_on_c, 1, 61, 110
3, 10776, Note_off_c, 1, 61, 64
3, 10800, Note_on_c, 1, 62, 110
3, 10896, Note_off_c, 1, 62, 64
3, 10920, Note_on_c, 1, 55, 110
3, 11016, Note_off_c, 1, 55, 64
3, 11040, Note_on_c, 1, 57, 110
3, 11136, Note_off_c, 1, 57, 64
3, 11160, Note_on_c, 1, 45, 110
3, 11256, Note_off_c, 1, 45, 64
3, 11280, Note_on_c, 1, 50, 110
3, 11376, Note_off_c, 1, 50, 64
3, 11400, Note_on_c, 1, 52, 110
3, 11496, Note_off_c, 1, 52, 64
3, 11520, Note_on_c, 1, 53, 110
3, 11616, Note_off_c, 1, 53, 64
3, 11640, Note_on_c, 1, 50, 110
3, 11736, Note_off_c, 1, 50, 64
3, 11760, Note_on_c, 1, 49, 110
3, 11856, Note_off_c, 1, 49, 64
3, 11880, Note_on_c, 1, 45, 110
3, 11976, Note_off_c, 1, 45, 64
3, 12000, Note_on_c, 1, 50, 110
3, 12096, Note_off_c, 1, 50, 64
3, 12120, Note_on_c, 1, 45, 110
3, 12216, Note_off_c, 1, 45, 64
3, 12240, Note_on_c, 1, 38, 110
3, 12336, Note_off_c, 1, 38, 64
3, 12360, Note_on_c, 1, 48, 110
3, 12456, Note_off_c, 1, 48, 64
3, 12480, Note_on_c, 1, 46, 110
3, 12576, Note_off_c, 1, 46, 64
3, 12600, Note_on_c, 1, 45, 110
3, 12696, Note_off_c, 1, 45, 64
3, 12720, Note_on_c, 1, 46, 110
3, 12816, Note_off_c, 1, 46, 64
3, 12840, Note_on_c, 1, 43, 110
3, 12936, Note_off_c, 1, 43, 64
3, 12960, Note_on_c, 1, 48, 110
3, 13056, Note_off_c, 1, 48, 64
3, 13080, Note_on_c, 1, 43, 110
3, 13176, Note_off_c, 1, 43, 64
3, 13200, Note_on_c, 1, 36, 110
3, 13296, Note_off_c, 1, 36, 64
3, 13320, Note_on_c, 1, 46, 110
3, 13416, Note_off_c, 1, 46, 64
3, 13440, Note_on_c, 1, 45, 110
3, 13536, Note_off_c, 1, 45, 64
3, 13560, Note_on_c, 1, 46, 110
3, 13656, Note_off_c, 1, 46, 64
3, 13680, Note_on_c, 1, 48, 110
3, 13776, Note_off_c, 1, 48, 64
3, 13800, Note_on_c, 1, 45, 110
3, 13896, Note_off_c, 1, 45, 64
3, 13920, Note_on_c, 1, 50, 110
3, 14016, Note_off_c, 1, 50, 64
3, 14040, Note_on_c, 1, 52, 110
3, 14136, Note_off_c, 1, 52, 64
3, 14160, Note_on_c, 1, 53, 110
3, 14256, Note_off_c, 1, 53, 64
3, 14280, Note_on_c, 1, 50, 110
3, 14376, Note_off_c, 1, 50, 64
3, 14400, Note_on_c, 1, 58, 110
3, 14496, Note_off_c, 1, 58, 64
3, 14520, Note_on_c, 1, 57, 110
3, 14616, Note_off_c, 1, 57, 64
3, 14640, Note_on_c, 1, 58, 110
3, 14736, Note_off_c, 1, 58, 64
3, 14760, Note_on_c, 1, 46, 110
3, 14856, Note_off_c, 1, 46, 64
3, 14880, Note_on_c, 1, 45, 110
3, 15264, Note_off_c, 1, 45, 64
3, 15360, Note_on_c, 1, 45, 110
3, 15456, Note_off_c, 1, 45, 64
3, 15480, Note_on_c, 1, 57, 110
3, 15576, Note_off_c, 1, 57, 64
3, 15600, Note_on_c, 1, 56, 110
3, 15696, Note_off_c, 1, 56, 64
3, 15720, Note_on_c, 1, 52, 110
3, 15816, Note_off_c, 1, 52, 64
3, 15840, Note_on_c, 1, 57, 110
3, 15936, Note_off_c, 1, 57, 64
3, 15960, Note_on_c, 1, 52, 110
3, 16056, Note_off_c, 1, 52, 64
3, 16080, Note_on_c, 1, 45, 110
3, 16176, Note_off_c, 1, 45, 64
3, 16200, Note_on_c, 1, 55, 110
3, 16296, Note_off_c, 1, 55, 64
3, 16320, Note_on_c, 1, 53, 110
3, 16416, Note_off_c, 1, 53, 64
3, 16440, Note_on_c, 1, 52, 110
3, 16536, Note_off_c, 1, 52, 64
3, 16560, Note_on_c, 1, 53, 110
3, 16656, Note_off_c, 1, 53, 64
3, 16680, Note_on_c, 1, 50, 110
3, 16776, Note_off_c, 1, 50, 64
3, 16800, Note_on_c, 1, 55, 110
3, 16896, Note_off_c, 1, 55, 64
3, 16920, Note_on_c, 1, 50, 110
3, 17016, Note_off_c, 1, 50, 64
3, 17040, Note_on_c, 1, 43, 110
3, 17136, Note_off_c, 1, 43, 64
3, 17160, Note_on_c, 1, 50, 110
3, 17256, Note_off_c, 1, 50, 64
3, 17280, Note_on_c, 1, 55, 110
3, 17376, Note_off_c, 1, 55, 64
3, 17400, Note_on_c, 1, 53, 110
3, 17496, Note_off_c, 1, 53, 64
3, 17520, Note_on_c, 1, 55, 110
3, 17616, Note_off_c, 1, 55, 64
3, 17640, Note_on_c, 1, 52, 110
3, 17736, Note_off_c, 1, 52, 64
3, 17760, Note_on_c, 1, 57, 110
3, 17856, Note_off_c, 1, 57, 64
3, 17880, Note_on_c, 1, 55, 110
3, 17976, Note_off_c, 1, 55, 64
3, 18000, Note_on_c, 1, 53, 110
3, 18096, Note_off_c, 1, 53, 64
3, 18120, Note_on_c, 1, 52, 110
3, 18216, Note_off_c, 1, 52, 64
3, 18240, Note_on_c, 1, 50, 110
3, 18336, Note_off_c, 1, 50, 64
3, 18360, Note_on_c, 1, 59, 110
3, 18456, Note_off_c, 1, 59, 64
3, 18480, Note_on_c, 1, 60, 110
3, 18576, Note_off_c, 1, 60, 64
3, 18600, Note_on_c, 1, 53, 110
3, 18696, Note_off_c, 1, 53, 64
3, 18720, Note_on_c, 1, 55, 110
3, 18816, Note_off_c, 1, 55, 64
3, 18840, Note_on_c, 1, 43, 110
3, 18936, Note_off_c, 1, 43, 64
3, 18960, Note_on_c, 1, 48, 110
3, 19056, Note_off_c, 1, 48, 64
3, 19080, Note_on_c, 1, 46, 110
3, 19176, Note_off_c, 1, 46, 64
3, 19200, Note_on_c, 1, 45, 110
3, 19296, Note_off_c, 1, 45, 64
3, 19320, Note_on_c, 1, 46, 110
3, 19416, Note_off_c, 1, 46, 64
3, 19440, Note_on_c, 1, 48, 110
3, 19536, Note_off_c, 1, 48, 64
3, 19560, Note_on_c, 1, 45, 110
3, 19656, Note_off_c, 1, 45, 64
3, 19680, Note_on_c, 1, 50, 110
3, 19776, Note_off_c, 1, 50, 64
3, 19800, Note_on_c, 1, 45, 110
3, 19896, Note_off_c, 1, 45, 64
3, 19920, Note_on_c, 1, 38, 110
3, 20016, Note_off_c, 1, 38, 64
3, 20040, Note_on_c, 1, 48, 110
3, 20136, Note_off_c, 1, 48, 64
3, 20160, Note_on_c, 1, 46, 110
3, 20256, Note_off_c, 1, 46, 64
3, 20280, Note_on_c, 1, 45, 110
3, 20376, Note_off_c, 1, 45, 64
3, 20400, Note_on_c, 1, 43, 110
3, 20496, Note_off_c, 1, 43, 64
3, 20520, Note_on_c, 1, 42, 110
3, 20616, Note_off_c, 1, 42, 64
3, 20640, Note_on_c, 1, 43, 110
3, 20736, Note_off_c, 1, 43, 64
3, 20760, Note_on_c, 1, 46, 110
3, 20856, Note_off_c, 1, 46, 64
3, 20880, Note_on_c, 1, 50, 110
3, 20976, Note_off_c, 1, 50, 64
3, 21000, Note_on_c, 1, 55, 110
3, 21096, Note_off_c, 1, 55, 64
3, 21120, Note_on_c, 1, 54, 110
3, 21300, Note_off_c, 1, 54, 64
3, 21360, Note_on_c, 1, 50, 110
3, 21540, Note_off_c, 1, 50, 64
3, 21600, Note_on_c, 1, 55, 110
3, 21792, Note_off_c, 1, 55, 64
3, 21840, Note_on_c, 1, 46, 110
3, 22032, Note_off_c, 1, 46, 64
3, 22080, Note_on_c, 1, 48, 110
3, 22260, Note_off_c, 1, 48, 64
3, 22320, Note_on_c, 1, 50, 110
3, 22500, Note_off_c, 1, 50, 64
3, 22560, Note_on_c, 1, 47, 110
3, 22740, Note_off_c, 1, 47, 64
3, 22800, Note_on_c, 1, 55, 110
3, 22980, Note_off_c, 1, 55, 64
3, 23040, Note_on_c, 1, 57, 110
3, 23220, Note_off_c, 1, 57, 64
3, 23280, Note_on_c, 1, 59, 110
3, 23460, Note_off_c, 1, 59, 64
3, 23520, Note_on_c, 1, 60, 110
3, 23700, Note_off_c, 1, 60, 64
3, 23760, Note_on_c, 1, 62, 110
3, 23940, Note_off_c, 1, 62, 64
3, 24000, Note_on_c, 1, 63, 110
3, 24180, Note_off_c, 1, 63, 64
3, 24240, Note_on_c, 1, 60, 110
3, 24420, Note_off_c, 1, 60, 64
3, 24480, Note_on_c, 1, 67, 110
3, 24672, Note_off_c, 1, 67, 64
3, 24720, Note_on_c, 1, 69, 110
3, 24900, Note_off_c, 1, 69, 64
3, 24960, Note_on_c, 1, 70, 110
3, 25140, Note_off_c, 1, 70, 64
3, 25200, Note_on_c, 1, 67, 110
3, 25380, Note_off_c, 1, 67, 64
3, 25440, Note_on_c, 1, 62, 110
3, 26208, Note_off_c, 1, 62, 64
3, 26400, Note_on_c, 1, 55, 110
3, 26496, Note_off_c, 1, 55, 64
3, 26520, Note_on_c, 1, 50, 110
3, 26616, Note_off_c, 1, 50, 64
3, 26640, Note_on_c, 1, 46, 110
3, 26736, Note_off_c, 1, 46, 64
3, 26760, Note_on_c, 1, 50, 110
3, 26856, Note_off_c, 1, 50, 64
3, 26880, Note_on_c, 1, 43, 110
3, 26976, Note_off_c, 1, 43, 64
3, 27000, Note_on_c, 1, 50, 110
3, 27096, Note_off_c, 1, 50, 64
3, 27120, Note_on_c, 1, 55, 110
3, 27216, Note_off_c, 1, 55, 64
3, 27240, Note_on_c, 1, 53, 110
3, 27336, Note_off_c, 1, 53, 64
3, 27360, Note_on_c, 1, 52, 110
3, 27456, Note_off_c, 1, 52, 64
3, 27480, Note_on_c, 1, 53, 110
3, 27576, Note_off_c, 1, 53, 64
3, 27600, Note_on_c, 1, 55, 110
3, 27696, Note_off_c, 1, 55, 64
3, 27720, Note_on_c, 1, 52, 110
3, 27816, Note_off_c, 1, 52, 64
3, 27840, Note_on_c, 1, 57, 110
3, 27936, Note_off_c, 1, 57, 64
3, 27960, Note_on_c, 1, 58, 110
3, 28056, Note_off_c, 1, 58, 64
3, 28080, Note_on_c, 1, 57, 110
3, 28176, Note_off_c, 1, 57, 64
3, 28200, Note_on_c, 1, 55, 110
3, 28296, Note_off_c, 1, 55, 64
3, 28320, Note_on_c, 1, 53, 110
3, 28500, Note_off_c, 1, 53, 64
3, 28560, Note_on_c, 1, 50, 110
3, 28740, Note_off_c, 1, 50, 64
3, 28800, Note_on_c, 1, 49, 110
3, 28980, Note_off_c, 1, 49, 64
3, 29040, Note_on_c, 1, 45, 110
3, 29220, Note_off_c, 1, 45, 64
3, 29280, Note_on_c, 1, 50, 110
3, 29472, Note_off_c, 1, 50, 64
3, 29520, Note_on_c, 1, 48, 110
3, 29712, Note_off_c, 1, 48, 64
3, 29760, Note_on_c, 1, 46, 110
3, 29940, Note_off_c, 1, 46, 64
3, 30000, Note_on_c, 1, 43, 110
3, 30180, Note_off_c, 1, 43, 64
3, 30240, Note_on_c, 1, 45, 110
3, 30420, Note_off_c, 1, 45, 64
3, 30480, Note_on_c, 1, 57, 110
3, 30576, Note_off_c, 1, 57, 64
3, 30600, Note_on_c, 1, 55, 110
3, 30696, Note_off_c, 1, 55, 64
3, 30720, Note_on_c, 1, 53, 110
3, 30816, Note_off_c, 1, 53, 64
3, 30840, Note_on_c, 1, 52, 110
3, 30936, Note_off_c, 1, 52, 64
3, 30960, Note_on_c, 1, 50, 110
3, 31056, Note_off_c, 1, 50, 64
3, 31080, Note_on_c, 1, 48, 110
3, 31176, Note_off_c, 1, 48, 64
3, 31200, Note_on_c, 1, 46, 110
3, 31296, Note_off_c, 1, 46, 64
3, 31320, Note_on_c, 1, 48, 110
3, 31416, Note_off_c, 1, 48, 64
3, 31440, Note_on_c, 1, 46, 110
3, 31536, Note_off_c, 1, 46, 64
3, 31560, Note_on_c, 1, 45, 110
3, 31656, Note_off_c, 1, 45, 64
3, 31680, Note_on_c, 1, 43, 110
3, 31776, Note_off_c, 1, 43, 64
3, 31800, Note_on_c, 1, 45, 110
3, 31896, Note_off_c, 1, 45, 64
3, 31920, Note_on_c, 1, 46, 110
3, 32016, Note_off_c, 1, 46, 64
3, 32040, Note_on_c, 1, 43, 110
3, 32136, Note_off_c, 1, 43, 64
3, 32160, Note_on_c, 1, 48, 110
3, 32256, Note_off_c, 1, 48, 64
3, 32280, Note_on_c, 1, 43, 110
3, 32376, Note_off_c, 1, 43, 64
3, 32400, Note_on_c, 1, 36, 110
3, 32496, Note_off_c, 1, 36, 64
3, 32520, Note_on_c, 1, 43, 110
3, 32616, Note_off_c, 1, 43, 64
3, 32640, Note_on_c, 1, 48, 110
3, 32736, Note_off_c, 1, 48, 64
3, 32760, Note_on_c, 1, 50, 110
3, 32856, Note_off_c, 1, 50, 64
3, 32880, Note_on_c, 1, 52, 110
3, 32976, Note_off_c, 1, 52, 64
3, 33000, Note_on_c, 1, 50, 110
3, 33096, Note_off_c, 1, 50, 64
3, 33120, Note_on_c, 1, 50, 110
3, 33144, Note_off_c, 1, 50, 64
3, 33150, Note_on_c, 1, 49, 110
3, 33174, Note_off_c, 1, 49, 64
3, 33180, Note_on_c, 1, 50, 110
3, 33204, Note_off_c, 1, 50, 64
3, 33210, Note_on_c, 1, 49, 110
3, 33432, Note_off_c, 1, 49, 64
3, 33480, Note_on_c, 1, 49, 110
3, 33576, Note_off_c, 1, 49, 64
3, 33600, Note_on_c, 1, 50, 110
3, 33696, Note_off_c, 1, 50, 64
3, 33720, Note_on_c, 1, 48, 110
3, 33816, Note_off_c, 1, 48, 64
3, 33840, Note_on_c, 1, 46, 110
3, 33936, Note_off_c, 1, 46, 64
3, 33960, Note_on_c, 1, 43, 110
3, 34056, Note_off_c, 1, 43, 64
3, 34080, Note_on_c, 1, 46, 110
3, 34104, Note_off_c, 1, 46, 64
3, 34110, Note_on_c, 1, 45, 110
3, 34134, Note_off_c, 1, 45, 64
3, 34140, Note_on_c, 1, 46, 110
3, 34164, Note_off_c, 1, 46, 64
3, 34170, Note_on_c, 1, 45, 110
3, 34296, Note_off_c, 1, 45, 64
3, 34320, Note_on_c, 1, 38, 110
3, 34416, Note_off_c, 1, 38, 64
3, 34440, Note_on_c, 1, 45, 110
3, 34536, Note_off_c, 1, 45, 64
3, 34560, Note_on_c, 1, 50, 110
3, 34656, Note_off_c, 1, 50, 64
3, 34680, Note_on_c, 1, 52, 110
3, 34776, Note_off_c, 1, 52, 64
3, 34800, Note_on_c, 1, 53, 110
3, 34896, Note_off_c, 1, 53, 64
3, 34920, Note_on_c, 1, 49, 110
3, 35016, Note_off_c, 1, 49, 64
3, 35040, Note_on_c, 1, 50, 110
3, 35136, Note_off_c, 1, 50, 64
3, 35160, Note_on_c, 1, 45, 110
3, 35256, Note_off_c, 1, 45, 64
3, 35280, Note_on_c, 1, 38, 110
3, 35376, Note_off_c, 1, 38, 64
3, 35400, Note_on_c, 1, 48, 110
3, 35496, Note_off_c, 1, 48, 64
3, 35520, Note_on_c, 1, 46, 110
3, 35616, Note_off_c, 1, 46, 64
3, 35640, Note_on_c, 1, 45, 110
3, 35736, Note_off_c, 1, 45, 64
3, 35760, Note_on_c, 1, 46, 110
3, 35856, Note_off_c, 1, 46, 64
3, 35880, Note_on_c, 1, 43, 110
3, 35976, Note_off_c, 1, 43, 64
3, 36000, Note_on_c, 1, 48, 110
3, 36288, Note_off_c, 1, 48, 64
3, 36360, Note_on_c, 1, 49, 110
3, 36456, Note_off_c, 1, 49, 64
3, 36480, Note_on_c, 1, 50, 110
3, 36576, Note_off_c, 1, 50, 64
3, 36600, Note_on_c, 1, 52, 110
3, 36696, Note_off_c, 1, 52, 64
3, 36720, Note_on_c, 1, 53, 110
3, 36816, Note_off_c, 1, 53, 64
3, 36840, Note_on_c, 1, 55, 110
3, 36936, Note_off_c, 1, 55, 64
3, 36960, Note_on_c, 1, 41, 110
3, 37320, Note_off_c, 1, 41, 64
3, 37440, Note_on_c, 1, 45, 110
3, 37800, Note_off_c, 1, 45, 64
3, 37920, Note_on_c, 1, 38, 110
3, 38304, Note_off_c, 1, 38, 64
3, 38400, Note_on_c, 1, 45, 110
3, 38496, Note_off_c, 1, 45, 64
3, 38520, Note_on_c, 1, 57, 110
3, 38616, Note_off_c, 1, 57, 64
3, 38640, Note_on_c, 1, 56, 110
3, 38736, Note_off_c, 1, 56, 64
3, 38760, Note_on_c, 1, 52, 110
3, 38856, Note_off_c, 1, 52, 64
3, 38880, Note_on_c, 1, 57, 110
3, 38976, Note_off_c, 1, 57, 64
3, 39000, Note_on_c, 1, 52, 110
3, 39096, Note_off_c, 1, 52, 64
3, 39120, Note_on_c, 1, 45, 110
3, 39216, Note_off_c, 1, 45, 64
3, 39240, Note_on_c, 1, 55, 110
3, 39336, Note_off_c, 1, 55, 64
3, 39360, Note_on_c, 1, 53, 110
3, 39456, Note_off_c, 1, 53, 64
3, 39480, Note_on_c, 1, 52, 110
3, 39576, Note_off_c, 1, 52, 64
3, 39600, Note_on_c, 1, 53, 110
3, 39696, Note_off_c, 1, 53, 64
3, 39720, Note_on_c, 1, 50, 110
3, 39816, Note_off_c, 1, 50, 64
3, 39840, Note_on_c, 1, 55, 110
3, 39936, Note_off_c, 1, 55, 64
3, 39960, Note_on_c, 1, 50, 110
3, 40056, Note_off_c, 1, 50, 64
3, 40080, Note_on_c, 1, 43, 110
3, 40176, Note_off_c, 1, 43, 64
3, 40200, Note_on_c, 1, 50, 110
3, 40296, Note_off_c, 1, 50, 64
3, 40320, Note_on_c, 1, 55, 110
3, 40416, Note_off_c, 1, 55, 64
3, 40440, Note_on_c, 1, 53, 110
3, 40536, Note_off_c, 1, 53, 64
3, 40560, Note_on_c, 1, 55, 110
3, 40656, Note_off_c, 1, 55, 64
3, 40680, Note_on_c, 1, 52, 110
3, 40776, Note_off_c, 1, 52, 64
3, 40800, Note_on_c, 1, 57, 110
3, 40896, Note_off_c, 1, 57, 64
3, 40920, Note_on_c, 1, 55, 110
3, 41016, Note_off_c, 1, 55, 64
3, 41040, Note_on_c, 1, 53, 110
3, 41136, Note_off_c, 1, 53, 64
3, 41160, Note_on_c, 1, 52, 110
3, 41256, Note_off_c, 1, 52, 64
3, 41280, Note_on_c, 1, 50, 110
3, 41376, Note_off_c, 1, 50, 64
3, 41400, Note_on_c, 1, 59, 110
3, 41496, Note_off_c, 1, 59, 64
3, 41520, Note_on_c, 1, 60, 110
3, 41616, Note_off_c, 1, 60, 64
3, 41640, Note_on_c, 1, 53, 110
3, 41736, Note_off_c, 1, 53, 64
3, 41760, Note_on_c, 1, 55, 110
3, 41856, Note_off_c, 1, 55, 64
3, 41880, Note_on_c, 1, 43, 110
3, 41976, Note_off_c, 1, 43, 64
3, 42000, Note_on_c, 1, 48, 110
3, 42096, Note_off_c, 1, 48, 64
3, 42120, Note_on_c, 1, 46, 110
3, 42216, Note_off_c, 1, 46, 64
3, 42240, Note_on_c, 1, 45, 110
3, 42336, Note_off_c, 1, 45, 64
3, 42360, Note_on_c, 1, 46, 110
3, 42456, Note_off_c, 1, 46, 64
3, 42480, Note_on_c, 1, 48, 110
3, 42576, Note_off_c, 1, 48, 64
3, 42600, Note_on_c, 1, 45, 110
3, 42696, Note_off_c, 1, 45, 64
3, 42720, Note_on_c, 1, 50, 110
3, 42816, Note_off_c, 1, 50, 64
3, 42840, Note_on_c, 1, 45, 110
3, 42936, Note_off_c, 1, 45, 64
3, 42960, Note_on_c, 1, 38, 110
3, 43056, Note_off_c, 1, 38, 64
3, 43080, Note_on_c, 1, 48, 110
3, 43176, Note_off_c, 1, 48, 64
3, 43200, Note_on_c, 1, 46, 110
3, 43296, Note_off_c, 1, 46, 64
3, 43320, Note_on_c, 1, 45, 110
3, 43416, Note_off_c, 1, 45, 64
3, 43440, Note_on_c, 1, 43, 110
3, 43536, Note_off_c, 1, 43, 64
3, 43560, Note_on_c, 1, 42, 110
3, 43656, Note_off_c, 1, 42, 64
3, 43680, Note_on_c, 1, 43, 110
3, 43776, Note_off_c, 1, 43, 64
3, 43800, Note_on_c, 1, 46, 110
3, 43896, Note_off_c, 1, 46, 64
3, 43920, Note_on_c, 1, 50, 110
3, 44016, Note_off_c, 1, 50, 64
3, 44040, Note_on_c, 1, 55, 110
3, 44136, Note_off_c, 1, 55, 64
3, 44160, Note_on_c, 1, 54, 110
3, 44340, Note_off_c, 1, 54, 64
3, 44400, Note_on_c, 1, 50, 110
3, 44580, Note_off_c, 1, 50, 64
3, 44640, Note_on_c, 1, 55, 110
3, 44832, Note_off_c, 1, 55, 64
3, 44880, Note_on_c, 1, 46, 110
3, 45072, Note_off_c, 1, 46, 64
3, 45120, Note_on_c, 1, 48, 110
3, 45300, Note_off_c, 1, 48, 64
3, 45360, Note_on_c, 1, 50, 110
3, 45540, Note_off_c, 1, 50, 64
3, 45600, Note_on_c, 1, 47, 110
3, 45780, Note_off_c, 1, 47, 64
3, 45840, Note_on_c, 1, 55, 110
3, 46020, Note_off_c, 1, 55, 64
3, 46080, Note_on_c, 1, 57, 110
3, 46260, Note_off_c, 1, 57, 64
3, 46320, Note_on_c, 1, 59, 110
3, 46500, Note_off_c, 1, 59, 64
3, 46560, Note_on_c, 1, 60, 110
3, 46740, Note_off_c, 1, 60, 64
3, 46800, Note_on_c, 1, 62, 110
3, 46980, Note_off_c, 1, 62, 64
3, 47040, Note_on_c, 1, 63, 110
3, 47220, Note_off_c, 1, 63, 64
3, 47280, Note_on_c, 1, 60, 110
3, 47460, Note_off_c, 1, 60, 64
3, 47520, Note_on_c, 1, 67, 110
3, 47712, Note_off_c, 1, 67, 64
3, 47760, Note_on_c, 1, 69, 110
3, 47940, Note_off_c, 1, 69, 64
3, 48000, Note_on_c, 1, 70, 110
3, 48180, Note_off_c, 1, 70, 64
3, 48240, Note_on_c, 1, 67, 110
3, 48420, Note_off_c, 1, 67, 64
3, 48480, Note_on_c, 1, 62, 110
3, 49248, Note_off_c, 1, 62, 64
3, 49440, Note_on_c, 1, 55, 110
3, 49536, Note_off_c, 1, 55, 64
3, 49560, Note_on_c, 1, 50, 110
3, 49656, Note_off_c, 1, 50, 64
3, 49680, Note_on_c, 1, 46, 110
3, 49776, Note_off_c, 1, 46, 64
3, 49800, Note_on_c, 1, 50, 110
3, 49896, Note_off_c, 1, 50, 64
3, 49920, Note_on_c, 1, 43, 110
3, 50016, Note_off_c, 1, 43, 64
3, 50040, Note_on_c, 1, 50, 110
3, 50136, Note_off_c, 1, 50, 64
3, 50160, Note_on_c, 1, 55, 110
3, 50256, Note_off_c, 1, 55, 64
3, 50280, Note_on_c, 1, 53, 110
3, 50376, Note_off_c, 1, 53, 64
3, 50400, Note_on_c, 1, 52, 110
3, 50496, Note_off_c, 1, 52, 64
3, 50520, Note_on_c, 1, 53, 110
3, 50616, Note_off_c, 1, 53, 64
3, 50640, Note_on_c, 1, 55, 110
3, 50736, Note_off_c, 1, 55, 64
3, 50760, Note_on_c, 1, 52, 110
3, 50856, Note_off_c, 1, 52, 64
3, 50880, Note_on_c, 1, 57, 110
3, 50976, Note_off_c, 1, 57, 64
3, 51000, Note_on_c, 1, 58, 110
3, 51096, Note_off_c, 1, 58, 64
3, 51120, Note_on_c, 1, 57, 110
3, 51216, Note_off_c, 1, 57, 64
3, 51240, Note_on_c, 1, 55, 110
3, 51336, Note_off_c, 1, 55, 64
3, 51360, Note_on_c, 1, 53, 110
3, 51540, Note_off_c, 1, 53, 64
3, 51600, Note_on_c, 1, 50, 110
3, 51780, Note_off_c, 1, 50, 64
3, 51840, Note_on_c, 1, 49, 110
3, 52020, Note_off_c, 1, 49, 64
3, 52080, Note_on_c, 1, 45, 110
3, 52260, Note_off_c, 1, 45, 64
3, 52320, Note_on_c, 1, 50, 110
3, 52512, Note_off_c, 1, 50, 64
3, 52560, Note_on_c, 1, 48, 110
3, 52752, Note_off_c, 1, 48, 64
3, 52800, Note_on_c, 1, 46, 110
3, 52980, Note_off_c, 1, 46, 64
3, 53040, Note_on_c, 1, 43, 110
3, 53220, Note_off_c, 1, 43, 64
3, 53280, Note_on_c, 1, 45, 110
3, 53460, Note_off_c, 1, 45, 64
3, 53520, Note_on_c, 1, 57, 110
3, 53616, Note_off_c, 1, 57, 64
3, 53640, Note_on_c, 1, 55, 110
3, 53736, Note_off_c, 1, 55, 64
3, 53760, Note_on_c, 1, 53, 110
3, 53856, Note_off_c, 1, 53, 64
3, 53880, Note_on_c, 1, 52, 110
3, 53976, Note_off_c, 1, 52, 64
3, 54000, Note_on_c, 1, 50, 110
3, 54096, Note_off_c, 1, 50, 64
3, 54120, Note_on_c, 1, 48, 110
3, 54216, Note_off_c, 1, 48, 64
3, 54240, Note_on_c, 1, 46, 110
3, 54336, Note_off_c, 1, 46, 64
3, 54360, Note_on_c, 1, 48, 110
3, 54456, Note_off_c, 1, 48, 64
3, 54480, Note_on_c, 1, 46, 110
3, 54576, Note_off_c, 1, 46, 64
3, 54600, Note_on_c, 1, 45, 110
3, 54696, Note_off_c, 1, 45, 64
3, 54720, Note_on_c, 1, 43, 110
3, 54816, Note_off_c, 1, 43, 64
3, 54840, Note_on_c, 1, 45, 110
3, 54936, Note_off_c, 1, 45, 64
3, 54960, Note_on_c, 1, 46, 110
3, 55056, Note_off_c, 1, 46, 64
3, 55080, Note_on_c, 1, 43, 110
3, 55176, Note_off_c, 1, 43, 64
3, 55200, Note_on_c, 1, 48, 110
3, 55296, Note_off_c, 1, 48, 64
3, 55320, Note_on_c, 1, 43, 110
3, 55416, Note_off_c, 1, 43, 64
3, 55440, Note_on_c, 1, 36, 110
3, 55536, Note_off_c, 1, 36, 64
3, 55560, Note_on_c, 1, 43, 110
3, 55656, Note_off_c, 1, 43, 64
3, 55680, Note_on_c, 1, 48, 110
3, 55776, Note_off_c, 1, 48, 64
3, 55800, Note_on_c, 1, 50, 110
3, 55896, Note_off_c, 1, 50, 64
3, 55920, Note_on_c, 1, 52, 110
3, 56016, Note_off_c, 1, 52, 64
3, 56040, Note_on_c, 1, 50, 110
3, 56136, Note_off_c, 1, 50, 64
3, 56160, Note_on_c, 1, 50, 110
3, 56184, Note_off_c, 1, 50, 64
3, 56190, Note_on_c, 1, 49, 110
3, 56214, Note_off_c, 1, 49, 64
3, 56220, Note_on_c, 1, 50, 110
3, 56244, Note_off_c, 1, 50, 64
3, 56250, Note_on_c, 1, 49, 110
3, 56472, Note_off_c, 1, 49, 64
3, 56520, Note_on_c, 1, 49, 110
3, 56616, Note_off_c, 1, 49, 64
3, 56640, Note_on_c, 1, 50, 110
3, 56736, Note_off_c, 1, 50, 64
3, 56760, Note_on_c, 1, 48, 110
3, 56856, Note_off_c, 1, 48, 64
3, 56880, Note_on_c, 1, 46, 110
3, 56976, Note_off_c, 1, 46, 64
3, 57000, Note_on_c, 1, 43, 110
3, 57096, Note_off_c, 1, 43, 64
3, 57120, Note_on_c, 1, 46, 110
3, 57144, Note_off_c, 1, 46, 64
3, 57150, Note_on_c, 1, 45, 110
3, 57174, Note_off_c, 1, 45, 64
3, 57180, Note_on_c, 1, 46, 110
3, 57204, Note_off_c, 1, 46, 64
3, 57210, Note_on_c, 1, 45, 110
3, 57336, Note_off_c, 1, 45, 64
3, 57360, Note_on_c, 1, 38, 110
3, 57456, Note_off_c, 1, 38, 64
3, 57480, Note_on_c, 1, 45, 110
3, 57576, Note_off_c, 1, 45, 64
3, 57600, Note_on_c, 1, 50, 110
3, 57696, Note_off_c, 1, 50, 64
3, 57720, Note_on_c, 1, 52, 110
3, 57816, Note_off_c, 1, 52, 64
3, 57840, Note_on_c, 1, 53, 110
3, 57936, Note_off_c, 1, 53, 64
3, 57960, Note_on_c, 1, 49, 110
3, 58056, Note_off_c, 1, 49, 64
3, 58080, Note_on_c, 1, 50, 110
3, 58176, Note_off_c, 1, 50, 64
3, 58200, Note_on_c, 1, 45, 110
3, 58296, Note_off_c, 1, 45, 64
3, 58320, Note_on_c, 1, 38, 110
3, 58416, Note_off_c, 1, 38, 64
3, 58440, Note_on_c, 1, 48, 110
3, 58536, Note_off_c, 1, 48, 64
3, 58560, Note_on_c, 1, 46, 110
3, 58656, Note_off_c, 1, 46, 64
3, 58680, Note_on_c, 1, 45, 110
3, 58776, Note_off_c, 1, 45, 64
3, 58800, Note_on_c, 1, 46, 110
3, 58896, Note_off_c, 1, 46, 64
3, 58920, Note_on_c, 1, 43, 110
3, 59016, Note_off_c, 1, 43, 64
3, 59040, Note_on_c, 1, 48, 110
3, 59328, Note_off_c, 1, 48, 64
3, 59400, Note_on_c, 1, 49, 110
3, 59496, Note_off_c, 1, 49, 64
3, 59520, Note_on_c, 1, 50, 110
3, 59616, Note_off_c, 1, 50, 64
3, 59640, Note_on_c, 1, 52, 110
3, 59736, Note_off_c, 1, 52, 64
3, 59760, Note_on_c, 1, 53, 110
3, 59856, Note_off_c, 1, 53, 64
3, 59880, Note_on_c, 1, 55, 110
3, 59976, Note_off_c, 1, 55, 64
3, 60000, Note_on_c, 1, 41, 110
3, 60360, Note_off_c, 1, 41, 64
3, 60480, Note_on_c, 1, 45, 110
3, 60840, Note_off_c, 1, 45, 64
3, 60960, Note_on_c, 1, 38, 110
3, 61344, Note_off_c, 1, 38, 64
3, 61344, End_track
4, 0, Start_track
4, 0, Title_t, "Arr. Gary Bricault, (c) 1997"
4, 0, End_track
0, 0, End_of_file
