0, 0, Header, 1, 3, 384
1, 0, Start_track
1, 0, Time_signature, 4, 2, 24, 8
1, 0, Tempo, 500000
1, 251904, End_track
2, 0, Start_track
2, 0, Text_t, "harpsichord: John Sankey"
2, 0, Program_c, 0, 6
2, 0, Pitch_bend_c, 0, 8192
2, 0, Program_c, 1, 6
2, 0, Pitch_bend_c, 1, 7792
2, 0, Program_c, 2, 6
2, 0, Pitch_bend_c, 2, 7876
2, 0, Program_c, 3, 6
2, 0, Pitch_bend_c, 3, 7952
2, 0, Program_c, 4, 6
2, 0, Pitch_bend_c, 4, 7792
2, 0, Program_c, 5, 6
2, 0, Pitch_bend_c, 5, 8112
2, 0, Program_c, 6, 6
2, 0, Pitch_bend_c, 6, 7712
2, 0, Program_c, 7, 6
2, 0, Pitch_bend_c, 7, 8037
2, 0, Program_c, 8, 6
2, 0, Pitch_bend_c, 8, 7872
2, 0, Program_c, 10, 6
2, 0, Pitch_bend_c, 10, 7712
2, 0, Program_c, 11, 6
2, 0, Pitch_bend_c, 11, 8032
2, 0, Program_c, 12, 6
2, 0, Pitch_bend_c, 12, 7872
2, 0, Title_t, "Track 1"
2, 64, Note_on_c, 3, 51, 127
2, 64, Note_on_c, 3, 63, 127
2, 154, Note_off_c, 3, 51, 127
2, 156, Note_on_c, 2, 50, 127
2, 246, Note_off_c, 2, 50, 127
2, 246, Note_off_c, 3, 63, 127
2, 248, Note_on_c, 3, 51, 127
2, 248, Note_on_c, 6, 66, 127
2, 430, Note_off_c, 6, 66, 127
2, 432, Note_on_c, 3, 39, 127
2, 432, Note_on_c, 5, 65, 127
2, 614, Note_off_c, 5, 65, 127
2, 616, Note_on_c, 8, 68, 127
2, 798, Note_off_c, 8, 68, 127
2, 800, Note_on_c, 6, 66, 127
2, 977, Note_off_c, 3, 51, 127
2, 982, Note_off_c, 6, 66, 127
2, 985, Note_on_c, 11, 70, 127
2, 1161, Note_off_c, 3, 39, 127
2, 1167, Note_off_c, 11, 70, 127
2, 1169, Note_on_c, 8, 68, 127
2, 1351, Note_off_c, 8, 68, 127
2, 1354, Note_on_c, 12, 71, 127
2, 1536, Note_off_c, 12, 71, 127
2, 1538, Note_on_c, 11, 70, 127
2, 1720, Note_off_c, 11, 70, 127
2, 1723, Note_on_c, 3, 75, 127
2, 1905, Note_off_c, 3, 75, 127
2, 1907, Note_on_c, 2, 74, 127
2, 2089, Note_off_c, 2, 74, 127
2, 2091, Note_on_c, 0, 72, 127
2, 2273, Note_off_c, 0, 72, 127
2, 2275, Note_on_c, 11, 70, 127
2, 2457, Note_off_c, 11, 70, 127
2, 2461, Note_on_c, 8, 68, 127
2, 2643, Note_off_c, 8, 68, 127
2, 2645, Note_on_c, 6, 66, 127
2, 2827, Note_off_c, 6, 66, 127
2, 2829, Note_on_c, 5, 65, 127
2, 3011, Note_off_c, 5, 65, 127
2, 3013, Note_on_c, 3, 51, 127
2, 3013, Note_on_c, 6, 66, 127
2, 3195, Note_off_c, 3, 51, 127
2, 3198, Note_on_c, 6, 54, 127
2, 3367, Note_off_c, 6, 66, 127
2, 3380, Note_off_c, 6, 54, 127
2, 3382, Note_on_c, 5, 53, 127
2, 3382, Note_on_c, 2, 62, 127
2, 3564, Note_off_c, 5, 53, 127
2, 3566, Note_on_c, 8, 56, 127
2, 3736, Note_off_c, 2, 62, 127
2, 3748, Note_off_c, 8, 56, 127
2, 3751, Note_on_c, 6, 54, 127
2, 3751, Note_on_c, 3, 63, 127
2, 3933, Note_off_c, 6, 54, 127
2, 3936, Note_on_c, 11, 58, 127
2, 4118, Note_off_c, 11, 58, 127
2, 4120, Note_on_c, 8, 56, 127
2, 4120, Note_on_c, 3, 75, 127
2, 4140, Note_off_c, 3, 63, 127
2, 4302, Note_off_c, 8, 56, 127
2, 4304, Note_on_c, 12, 59, 127
2, 4474, Note_off_c, 3, 75, 127
2, 4486, Note_off_c, 12, 59, 127
2, 4488, Note_on_c, 11, 58, 127
2, 4488, Note_on_c, 3, 75, 127
2, 4578, Note_off_c, 3, 75, 127
2, 4580, Note_on_c, 2, 74, 127
2, 4670, Note_off_c, 2, 74, 127
2, 4670, Note_off_c, 11, 58, 127
2, 4673, Note_on_c, 3, 63, 127
2, 4673, Note_on_c, 0, 72, 127
2, 4855, Note_off_c, 0, 72, 127
2, 4855, Note_off_c, 3, 63, 127
2, 4858, Note_on_c, 2, 62, 127
2, 4858, Note_on_c, 11, 70, 127
2, 5040, Note_off_c, 2, 62, 127
2, 5042, Note_on_c, 0, 60, 127
2, 5224, Note_off_c, 0, 60, 127
2, 5226, Note_on_c, 11, 58, 127
2, 5395, Note_off_c, 11, 70, 127
2, 5408, Note_off_c, 11, 58, 127
2, 5410, Note_on_c, 8, 56, 127
2, 5592, Note_off_c, 8, 56, 127
2, 5595, Note_on_c, 6, 54, 127
2, 5595, Note_on_c, 3, 75, 127
2, 5685, Note_off_c, 3, 75, 127
2, 5687, Note_on_c, 2, 74, 127
2, 5777, Note_off_c, 2, 74, 127
2, 5777, Note_off_c, 6, 54, 127
2, 5779, Note_on_c, 5, 53, 127
2, 5779, Note_on_c, 0, 72, 127
2, 5869, Note_off_c, 0, 72, 127
2, 5871, Note_on_c, 2, 74, 127
2, 5961, Note_off_c, 2, 74, 127
2, 5961, Note_off_c, 5, 53, 127
2, 5964, Note_on_c, 6, 54, 127
2, 5964, Note_on_c, 3, 75, 127
2, 6146, Note_off_c, 3, 75, 127
2, 6148, Note_on_c, 6, 78, 127
2, 6330, Note_off_c, 6, 78, 127
2, 6330, Note_off_c, 6, 54, 127
2, 6333, Note_on_c, 2, 50, 127
2, 6333, Note_on_c, 5, 77, 127
2, 6515, Note_off_c, 5, 77, 127
2, 6517, Note_on_c, 8, 80, 127
2, 6699, Note_off_c, 8, 80, 127
2, 6699, Note_off_c, 2, 50, 127
2, 6701, Note_on_c, 3, 51, 127
2, 6701, Note_on_c, 6, 78, 127
2, 6883, Note_off_c, 6, 78, 127
2, 6885, Note_on_c, 5, 77, 127
2, 7067, Note_off_c, 5, 77, 127
2, 7067, Note_off_c, 3, 51, 127
2, 7070, Note_on_c, 6, 54, 127
2, 7070, Note_on_c, 3, 75, 127
2, 7252, Note_off_c, 3, 75, 127
2, 7255, Note_on_c, 1, 73, 127
2, 7436, Note_off_c, 6, 54, 127
2, 7437, Note_off_c, 1, 73, 127
2, 7439, Note_on_c, 8, 56, 127
2, 7439, Note_on_c, 12, 71, 127
2, 7621, Note_off_c, 8, 56, 127
2, 7623, Note_on_c, 12, 59, 127
2, 7688, Note_off_c, 12, 71, 127
2, 7805, Note_off_c, 12, 59, 127
2, 7808, Note_on_c, 11, 58, 127
2, 7808, Note_on_c, 3, 75, 127
2, 7990, Note_off_c, 11, 58, 127
2, 7992, Note_on_c, 1, 61, 127
2, 8076, Note_off_c, 3, 75, 127
2, 8174, Note_off_c, 1, 61, 127
2, 8176, Note_on_c, 12, 59, 127
2, 8176, Note_on_c, 8, 80, 127
2, 8266, Note_off_c, 8, 80, 127
2, 8268, Note_on_c, 6, 78, 127
2, 8358, Note_off_c, 6, 78, 127
2, 8358, Note_off_c, 12, 59, 127
2, 8361, Note_on_c, 11, 58, 127
2, 8361, Note_on_c, 8, 80, 127
2, 8543, Note_off_c, 11, 58, 127
2, 8546, Note_on_c, 8, 56, 127
2, 8728, Note_off_c, 8, 56, 127
2, 8730, Note_on_c, 6, 54, 127
2, 8912, Note_off_c, 6, 54, 127
2, 8914, Note_on_c, 5, 53, 127
2, 9096, Note_off_c, 8, 80, 127
2, 9098, Note_on_c, 5, 77, 127
2, 9247, Note_off_c, 5, 53, 127
2, 9280, Note_off_c, 5, 77, 127
2, 9283, Note_on_c, 8, 56, 127
2, 9283, Note_on_c, 6, 78, 127
2, 9465, Note_off_c, 6, 78, 127
2, 9467, Note_on_c, 3, 75, 127
2, 9616, Note_off_c, 8, 56, 127
2, 9649, Note_off_c, 3, 75, 127
2, 9652, Note_on_c, 1, 61, 127
2, 9652, Note_on_c, 5, 77, 127
2, 9742, Note_off_c, 1, 61, 127
2, 9744, Note_on_c, 12, 59, 127
2, 9834, Note_off_c, 12, 59, 127
2, 9834, Note_off_c, 5, 77, 127
2, 9836, Note_on_c, 1, 61, 127
2, 9836, Note_on_c, 8, 80, 127
2, 10018, Note_off_c, 8, 80, 127
2, 10020, Note_on_c, 1, 73, 127
2, 10202, Note_off_c, 1, 73, 127
2, 10205, Note_on_c, 12, 71, 127
2, 10387, Note_off_c, 12, 71, 127
2, 10389, Note_on_c, 11, 70, 127
2, 10571, Note_off_c, 1, 61, 127
2, 10573, Note_on_c, 11, 58, 127
2, 10638, Note_off_c, 11, 70, 127
2, 10755, Note_off_c, 11, 58, 127
2, 10758, Note_on_c, 12, 59, 127
2, 10758, Note_on_c, 1, 73, 127
2, 10940, Note_off_c, 12, 59, 127
2, 10943, Note_on_c, 8, 56, 127
2, 11026, Note_off_c, 1, 73, 127
2, 11125, Note_off_c, 8, 56, 127
2, 11127, Note_on_c, 11, 58, 127
2, 11127, Note_on_c, 6, 78, 127
2, 11217, Note_off_c, 6, 78, 127
2, 11219, Note_on_c, 5, 77, 127
2, 11309, Note_off_c, 5, 77, 127
2, 11309, Note_off_c, 11, 58, 127
2, 11311, Note_on_c, 1, 61, 127
2, 11311, Note_on_c, 6, 78, 127
2, 11493, Note_off_c, 1, 61, 127
2, 11495, Note_on_c, 6, 54, 127
2, 11677, Note_off_c, 6, 54, 127
2, 11680, Note_on_c, 5, 53, 127
2, 11862, Note_off_c, 5, 53, 127
2, 11864, Note_on_c, 3, 51, 127
2, 12046, Note_off_c, 6, 78, 127
2, 12049, Note_on_c, 5, 77, 127
2, 12209, Note_off_c, 3, 51, 127
2, 12231, Note_off_c, 5, 77, 127
2, 12233, Note_on_c, 6, 54, 127
2, 12233, Note_on_c, 3, 75, 127
2, 12415, Note_off_c, 3, 75, 127
2, 12418, Note_on_c, 2, 74, 127
2, 12578, Note_off_c, 6, 54, 127
2, 12600, Note_off_c, 2, 74, 127
2, 12602, Note_on_c, 12, 59, 127
2, 12602, Note_on_c, 3, 75, 127
2, 12692, Note_off_c, 12, 59, 127
2, 12694, Note_on_c, 11, 58, 127
2, 12784, Note_off_c, 11, 58, 127
2, 12784, Note_off_c, 3, 75, 127
2, 12786, Note_on_c, 6, 78, 127
2, 12786, Note_on_c, 12, 59, 127
2, 12968, Note_off_c, 6, 78, 127
2, 12970, Note_on_c, 8, 68, 127
2, 13152, Note_off_c, 8, 68, 127
2, 13156, Note_on_c, 6, 78, 127
2, 13323, Note_off_c, 12, 59, 127
2, 13338, Note_off_c, 6, 78, 127
2, 13340, Note_on_c, 1, 49, 127
2, 13340, Note_on_c, 5, 77, 127
2, 13522, Note_off_c, 5, 77, 127
2, 13524, Note_on_c, 3, 75, 127
2, 13689, Note_off_c, 1, 49, 127
2, 13706, Note_off_c, 3, 75, 127
2, 13708, Note_on_c, 5, 53, 127
2, 13708, Note_on_c, 1, 73, 127
2, 13890, Note_off_c, 1, 73, 127
2, 13893, Note_on_c, 0, 72, 127
2, 14057, Note_off_c, 5, 53, 127
2, 14075, Note_off_c, 0, 72, 127
2, 14077, Note_on_c, 11, 58, 127
2, 14077, Note_on_c, 1, 73, 127
2, 14167, Note_off_c, 11, 58, 127
2, 14169, Note_on_c, 8, 56, 127
2, 14259, Note_off_c, 8, 56, 127
2, 14259, Note_off_c, 1, 73, 127
2, 14262, Note_on_c, 4, 76, 127
2, 14262, Note_on_c, 11, 58, 127
2, 14444, Note_off_c, 4, 76, 127
2, 14446, Note_on_c, 6, 66, 127
2, 14628, Note_off_c, 6, 66, 127
2, 14630, Note_on_c, 4, 76, 127
2, 14799, Note_off_c, 11, 58, 127
2, 14812, Note_off_c, 4, 76, 127
2, 14815, Note_on_c, 12, 47, 127
2, 14815, Note_on_c, 3, 75, 127
2, 14997, Note_off_c, 3, 75, 127
2, 14999, Note_on_c, 1, 73, 127
2, 15181, Note_off_c, 1, 73, 127
2, 15181, Note_off_c, 12, 47, 127
2, 15183, Note_on_c, 3, 51, 127
2, 15183, Note_on_c, 12, 71, 127
2, 15365, Note_off_c, 12, 71, 127
2, 15367, Note_on_c, 11, 70, 127
2, 15549, Note_off_c, 11, 70, 127
2, 15549, Note_off_c, 3, 51, 127
2, 15553, Note_on_c, 8, 56, 127
2, 15553, Note_on_c, 12, 71, 127
2, 15735, Note_off_c, 12, 71, 127
2, 15737, Note_on_c, 3, 75, 127
2, 15919, Note_off_c, 3, 75, 127
2, 15919, Note_off_c, 8, 56, 127
2, 15921, Note_on_c, 1, 49, 127
2, 15921, Note_on_c, 5, 65, 127
2, 16103, Note_off_c, 5, 65, 127
2, 16105, Note_on_c, 3, 75, 127
2, 16287, Note_off_c, 3, 75, 127
2, 16287, Note_off_c, 1, 49, 127
2, 16290, Note_on_c, 3, 51, 127
2, 16290, Note_on_c, 12, 71, 127
2, 16472, Note_off_c, 12, 71, 127
2, 16474, Note_on_c, 3, 75, 127
2, 16656, Note_off_c, 3, 75, 127
2, 16656, Note_off_c, 3, 51, 127
2, 16659, Note_on_c, 12, 59, 127
2, 16659, Note_on_c, 6, 66, 127
2, 16841, Note_off_c, 6, 66, 127
2, 16843, Note_on_c, 3, 75, 127
2, 17025, Note_off_c, 3, 75, 127
2, 17025, Note_off_c, 12, 59, 127
2, 17028, Note_on_c, 8, 56, 127
2, 17028, Note_on_c, 12, 71, 127
2, 17210, Note_off_c, 12, 71, 127
2, 17212, Note_on_c, 3, 75, 127
2, 17394, Note_off_c, 3, 75, 127
2, 17394, Note_off_c, 8, 56, 127
2, 17396, Note_on_c, 5, 53, 127
2, 17396, Note_on_c, 8, 68, 127
2, 17578, Note_off_c, 8, 68, 127
2, 17580, Note_on_c, 3, 75, 127
2, 17762, Note_off_c, 3, 75, 127
2, 17762, Note_off_c, 5, 53, 127
2, 17765, Note_on_c, 11, 46, 127
2, 17765, Note_on_c, 1, 73, 127
2, 17947, Note_off_c, 1, 73, 127
2, 17950, Note_on_c, 12, 71, 127
2, 18131, Note_off_c, 11, 46, 127
2, 18132, Note_off_c, 12, 71, 127
2, 18134, Note_on_c, 1, 49, 127
2, 18134, Note_on_c, 11, 70, 127
2, 18316, Note_off_c, 11, 70, 127
2, 18318, Note_on_c, 8, 68, 127
2, 18500, Note_off_c, 8, 68, 127
2, 18500, Note_off_c, 1, 49, 127
2, 18503, Note_on_c, 6, 54, 127
2, 18503, Note_on_c, 11, 70, 127
2, 18685, Note_off_c, 11, 70, 127
2, 18687, Note_on_c, 1, 73, 127
2, 18869, Note_off_c, 1, 73, 127
2, 18869, Note_off_c, 6, 54, 127
2, 18871, Note_on_c, 12, 47, 127
2, 18871, Note_on_c, 3, 63, 127
2, 19053, Note_off_c, 3, 63, 127
2, 19056, Note_on_c, 1, 73, 127
2, 19237, Note_off_c, 12, 47, 127
2, 19238, Note_off_c, 1, 73, 127
2, 19240, Note_on_c, 1, 49, 127
2, 19240, Note_on_c, 11, 70, 127
2, 19422, Note_off_c, 11, 70, 127
2, 19425, Note_on_c, 1, 73, 127
2, 19606, Note_off_c, 1, 49, 127
2, 19607, Note_off_c, 1, 73, 127
2, 19609, Note_on_c, 11, 58, 127
2, 19609, Note_on_c, 5, 65, 127
2, 19791, Note_off_c, 5, 65, 127
2, 19793, Note_on_c, 1, 73, 127
2, 19975, Note_off_c, 1, 73, 127
2, 19975, Note_off_c, 11, 58, 127
2, 19977, Note_on_c, 6, 54, 127
2, 19977, Note_on_c, 11, 70, 127
2, 20159, Note_off_c, 11, 70, 127
2, 20163, Note_on_c, 1, 73, 127
2, 20343, Note_off_c, 6, 54, 127
2, 20345, Note_off_c, 1, 73, 127
2, 20347, Note_on_c, 3, 51, 127
2, 20347, Note_on_c, 6, 66, 127
2, 20529, Note_off_c, 6, 66, 127
2, 20531, Note_on_c, 1, 73, 127
2, 20713, Note_off_c, 1, 73, 127
2, 20713, Note_off_c, 3, 51, 127
2, 20715, Note_on_c, 8, 44, 127
2, 20715, Note_on_c, 12, 71, 127
2, 20897, Note_off_c, 12, 71, 127
2, 20900, Note_on_c, 11, 70, 127
2, 21081, Note_off_c, 8, 44, 127
2, 21082, Note_off_c, 11, 70, 127
2, 21084, Note_on_c, 12, 47, 127
2, 21084, Note_on_c, 8, 68, 127
2, 21266, Note_off_c, 8, 68, 127
2, 21268, Note_on_c, 6, 66, 127
2, 21450, Note_off_c, 6, 66, 127
2, 21450, Note_off_c, 12, 47, 127
2, 21453, Note_on_c, 5, 53, 127
2, 21453, Note_on_c, 8, 68, 127
2, 21635, Note_off_c, 8, 68, 127
2, 21638, Note_on_c, 12, 71, 127
2, 21819, Note_off_c, 5, 53, 127
2, 21820, Note_off_c, 12, 71, 127
2, 21822, Note_on_c, 11, 46, 127
2, 21822, Note_on_c, 1, 61, 127
2, 22004, Note_off_c, 1, 61, 127
2, 22006, Note_on_c, 12, 71, 127
2, 22188, Note_off_c, 12, 71, 127
2, 22188, Note_off_c, 11, 46, 127
2, 22190, Note_on_c, 12, 47, 127
2, 22190, Note_on_c, 8, 68, 127
2, 22372, Note_off_c, 8, 68, 127
2, 22375, Note_on_c, 12, 71, 127
2, 22556, Note_off_c, 12, 47, 127
2, 22557, Note_off_c, 12, 71, 127
2, 22560, Note_on_c, 8, 56, 127
2, 22560, Note_on_c, 3, 63, 127
2, 22742, Note_off_c, 3, 63, 127
2, 22744, Note_on_c, 12, 71, 127
2, 22926, Note_off_c, 12, 71, 127
2, 22926, Note_off_c, 8, 56, 127
2, 22928, Note_on_c, 5, 53, 127
2, 22928, Note_on_c, 8, 68, 127
2, 23110, Note_off_c, 8, 68, 127
2, 23113, Note_on_c, 12, 71, 127
2, 23294, Note_off_c, 5, 53, 127
2, 23295, Note_off_c, 12, 71, 127
2, 23297, Note_on_c, 1, 49, 127
2, 23297, Note_on_c, 5, 65, 127
2, 23479, Note_off_c, 5, 65, 127
2, 23481, Note_on_c, 12, 71, 127
2, 23663, Note_off_c, 12, 71, 127
2, 23663, Note_off_c, 1, 49, 127
2, 23665, Note_on_c, 6, 42, 127
2, 23665, Note_on_c, 11, 70, 127
2, 23847, Note_off_c, 11, 70, 127
2, 23847, Note_off_c, 6, 42, 127
2, 23850, Note_on_c, 11, 46, 127
2, 23850, Note_on_c, 6, 66, 127
2, 24032, Note_off_c, 6, 66, 127
2, 24032, Note_off_c, 11, 46, 127
2, 24035, Note_on_c, 8, 44, 127
2, 24035, Note_on_c, 5, 65, 127
2, 24217, Note_off_c, 5, 65, 127
2, 24217, Note_off_c, 8, 44, 127
2, 24219, Note_on_c, 12, 47, 127
2, 24219, Note_on_c, 3, 75, 127
2, 24401, Note_off_c, 3, 75, 127
2, 24401, Note_off_c, 12, 47, 127
2, 24403, Note_on_c, 11, 46, 127
2, 24403, Note_on_c, 1, 73, 127
2, 24585, Note_off_c, 1, 73, 127
2, 24585, Note_off_c, 11, 46, 127
2, 24587, Note_on_c, 1, 49, 127
2, 24587, Note_on_c, 11, 70, 127
2, 24769, Note_off_c, 11, 70, 127
2, 24769, Note_off_c, 1, 49, 127
2, 24772, Note_on_c, 12, 47, 127
2, 24772, Note_on_c, 8, 68, 127
2, 24954, Note_off_c, 8, 68, 127
2, 24954, Note_off_c, 12, 47, 127
2, 24957, Note_on_c, 3, 51, 127
2, 24957, Note_on_c, 6, 78, 127
2, 25139, Note_off_c, 6, 78, 127
2, 25139, Note_off_c, 3, 51, 127
2, 25141, Note_on_c, 1, 49, 127
2, 25141, Note_on_c, 6, 78, 127
2, 25231, Note_off_c, 6, 78, 127
2, 25233, Note_on_c, 5, 77, 127
2, 25323, Note_off_c, 5, 77, 127
2, 25323, Note_off_c, 1, 49, 127
2, 25325, Note_on_c, 6, 54, 127
2, 25325, Note_on_c, 3, 75, 127
2, 25507, Note_off_c, 3, 75, 127
2, 25507, Note_off_c, 6, 54, 127
2, 25510, Note_on_c, 5, 53, 127
2, 25510, Note_on_c, 1, 73, 127
2, 25692, Note_off_c, 5, 53, 127
2, 25694, Note_on_c, 3, 51, 127
2, 25876, Note_off_c, 3, 51, 127
2, 25878, Note_on_c, 1, 49, 127
2, 26047, Note_off_c, 1, 73, 127
2, 26060, Note_off_c, 1, 49, 127
2, 26063, Note_on_c, 12, 47, 127
2, 26245, Note_off_c, 12, 47, 127
2, 26248, Note_on_c, 11, 46, 127
2, 26430, Note_off_c, 11, 46, 127
2, 26432, Note_on_c, 8, 44, 127
2, 26614, Note_off_c, 8, 44, 127
2, 26616, Note_on_c, 11, 46, 127
2, 26616, Note_on_c, 6, 66, 127
2, 26798, Note_off_c, 6, 66, 127
2, 26800, Note_on_c, 11, 70, 127
2, 26982, Note_off_c, 11, 70, 127
2, 26982, Note_off_c, 11, 46, 127
2, 26985, Note_on_c, 1, 49, 127
2, 26985, Note_on_c, 8, 68, 127
2, 27167, Note_off_c, 8, 68, 127
2, 27169, Note_on_c, 12, 71, 127
2, 27351, Note_off_c, 12, 71, 127
2, 27351, Note_off_c, 1, 49, 127
2, 27354, Note_on_c, 6, 54, 127
2, 27354, Note_on_c, 11, 70, 127
2, 27536, Note_off_c, 11, 70, 127
2, 27538, Note_on_c, 1, 73, 127
2, 27720, Note_off_c, 1, 73, 127
2, 27720, Note_off_c, 6, 54, 127
2, 27723, Note_on_c, 8, 56, 127
2, 27723, Note_on_c, 12, 71, 127
2, 27905, Note_off_c, 12, 71, 127
2, 27907, Note_on_c, 3, 75, 127
2, 28089, Note_off_c, 3, 75, 127
2, 28089, Note_off_c, 8, 56, 127
2, 28091, Note_on_c, 11, 58, 127
2, 28091, Note_on_c, 1, 73, 127
2, 28273, Note_off_c, 1, 73, 127
2, 28275, Note_on_c, 6, 78, 127
2, 28457, Note_off_c, 6, 78, 127
2, 28457, Note_off_c, 11, 58, 127
2, 28460, Note_on_c, 12, 59, 127
2, 28460, Note_on_c, 5, 77, 127
2, 28642, Note_off_c, 5, 77, 127
2, 28645, Note_on_c, 3, 75, 127
2, 28826, Note_off_c, 12, 59, 127
2, 28827, Note_off_c, 3, 75, 127
2, 28829, Note_on_c, 1, 61, 127
2, 28829, Note_on_c, 1, 73, 127
2, 29011, Note_off_c, 1, 73, 127
2, 29013, Note_on_c, 12, 71, 127
2, 29195, Note_off_c, 12, 71, 127
2, 29197, Note_on_c, 1, 49, 127
2, 29197, Note_on_c, 11, 70, 127
2, 29289, Note_off_c, 1, 61, 127
2, 29379, Note_off_c, 11, 70, 127
2, 29382, Note_on_c, 8, 68, 127
2, 29563, Note_off_c, 1, 49, 127
2, 29564, Note_off_c, 8, 68, 127
2, 29566, Note_on_c, 6, 54, 127
2, 29566, Note_on_c, 11, 70, 127
2, 29748, Note_off_c, 11, 70, 127
2, 29751, Note_on_c, 1, 73, 127
2, 29932, Note_off_c, 6, 54, 127
2, 29933, Note_off_c, 1, 73, 127
2, 29935, Note_on_c, 3, 51, 127
2, 29935, Note_on_c, 0, 72, 127
2, 30117, Note_off_c, 0, 72, 127
2, 30120, Note_on_c, 3, 75, 127
2, 30301, Note_off_c, 3, 51, 127
2, 30302, Note_off_c, 3, 75, 127
2, 30304, Note_on_c, 5, 53, 127
2, 30304, Note_on_c, 1, 73, 127
2, 30486, Note_off_c, 1, 73, 127
2, 30488, Note_on_c, 5, 77, 127
2, 30670, Note_off_c, 5, 77, 127
2, 30670, Note_off_c, 5, 53, 127
2, 30672, Note_on_c, 0, 48, 127
2, 30672, Note_on_c, 3, 75, 127
2, 30854, Note_off_c, 3, 75, 127
2, 30858, Note_on_c, 6, 78, 127
2, 31038, Note_off_c, 0, 48, 127
2, 31040, Note_off_c, 6, 78, 127
2, 31042, Note_on_c, 1, 49, 127
2, 31042, Note_on_c, 5, 77, 127
2, 31224, Note_off_c, 5, 77, 127
2, 31226, Note_on_c, 11, 82, 127
2, 31408, Note_off_c, 11, 82, 127
2, 31408, Note_off_c, 1, 49, 127
2, 31410, Note_on_c, 3, 51, 127
2, 31410, Note_on_c, 10, 81, 127
2, 31592, Note_off_c, 10, 81, 127
2, 31595, Note_on_c, 7, 79, 127
2, 31776, Note_off_c, 3, 51, 127
2, 31777, Note_off_c, 7, 79, 127
2, 31779, Note_on_c, 5, 53, 127
2, 31779, Note_on_c, 5, 77, 127
2, 31961, Note_off_c, 5, 77, 127
2, 31964, Note_on_c, 3, 75, 127
2, 32146, Note_off_c, 3, 75, 127
2, 32148, Note_on_c, 5, 41, 127
2, 32148, Note_on_c, 1, 73, 127
2, 32239, Note_off_c, 5, 53, 127
2, 32330, Note_off_c, 1, 73, 127
2, 32333, Note_on_c, 0, 72, 127
2, 32514, Note_off_c, 5, 41, 127
2, 32515, Note_off_c, 0, 72, 127
2, 32517, Note_on_c, 11, 46, 127
2, 32517, Note_on_c, 1, 73, 127
2, 32699, Note_off_c, 11, 46, 127
2, 32701, Note_on_c, 1, 49, 127
2, 32883, Note_off_c, 1, 49, 127
2, 32883, Note_off_c, 1, 73, 127
2, 32885, Note_on_c, 0, 48, 127
2, 32885, Note_on_c, 10, 69, 127
2, 33067, Note_off_c, 0, 48, 127
2, 33069, Note_on_c, 3, 51, 127
2, 33251, Note_off_c, 3, 51, 127
2, 33251, Note_off_c, 10, 69, 127
2, 33255, Note_on_c, 1, 49, 127
2, 33255, Note_on_c, 11, 70, 127
2, 33437, Note_off_c, 1, 49, 127
2, 33439, Note_on_c, 5, 53, 127
2, 33621, Note_off_c, 5, 53, 127
2, 33621, Note_off_c, 11, 70, 127
2, 33623, Note_on_c, 3, 51, 127
2, 33623, Note_on_c, 6, 78, 127
2, 33805, Note_off_c, 3, 51, 127
2, 33807, Note_on_c, 6, 54, 127
2, 33989, Note_off_c, 6, 54, 127
2, 33989, Note_off_c, 6, 78, 127
2, 33992, Note_on_c, 5, 53, 127
2, 33992, Note_on_c, 10, 69, 127
2, 34082, Note_off_c, 10, 69, 127
2, 34084, Note_on_c, 7, 67, 127
2, 34174, Note_off_c, 7, 67, 127
2, 34174, Note_off_c, 5, 53, 127
2, 34176, Note_on_c, 11, 58, 127
2, 34176, Note_on_c, 5, 65, 127
2, 34358, Note_off_c, 5, 65, 127
2, 34358, Note_off_c, 11, 58, 127
2, 34361, Note_on_c, 10, 57, 127
2, 34361, Note_on_c, 3, 75, 127
2, 34543, Note_off_c, 10, 57, 127
2, 34545, Note_on_c, 7, 55, 127
2, 34725, Note_off_c, 3, 75, 127
2, 34727, Note_off_c, 7, 55, 127
2, 34730, Note_on_c, 5, 53, 127
2, 34912, Note_off_c, 5, 53, 127
2, 34914, Note_on_c, 3, 51, 127
2, 34914, Note_on_c, 10, 69, 127
2, 35096, Note_off_c, 10, 69, 127
2, 35096, Note_off_c, 3, 51, 127
2, 35098, Note_on_c, 1, 49, 127
2, 35098, Note_on_c, 11, 70, 127
2, 35280, Note_off_c, 11, 70, 127
2, 35280, Note_off_c, 1, 49, 127
2, 35282, Note_on_c, 0, 48, 127
2, 35282, Note_on_c, 0, 72, 127
2, 35464, Note_off_c, 0, 72, 127
2, 35464, Note_off_c, 0, 48, 127
2, 35467, Note_on_c, 1, 49, 127
2, 35467, Note_on_c, 5, 65, 127
2, 35649, Note_off_c, 5, 65, 127
2, 35649, Note_off_c, 1, 49, 127
2, 35652, Note_on_c, 5, 53, 127
2, 35652, Note_on_c, 1, 73, 127
2, 35834, Note_off_c, 1, 73, 127
2, 35834, Note_off_c, 5, 53, 127
2, 35836, Note_on_c, 3, 51, 127
2, 35836, Note_on_c, 0, 72, 127
2, 36018, Note_off_c, 0, 72, 127
2, 36018, Note_off_c, 3, 51, 127
2, 36020, Note_on_c, 6, 54, 127
2, 36020, Note_on_c, 3, 75, 127
2, 36202, Note_off_c, 3, 75, 127
2, 36202, Note_off_c, 6, 54, 127
2, 36205, Note_on_c, 5, 53, 127
2, 36205, Note_on_c, 1, 73, 127
2, 36387, Note_off_c, 1, 73, 127
2, 36387, Note_off_c, 5, 53, 127
2, 36389, Note_on_c, 3, 51, 127
2, 36389, Note_on_c, 0, 72, 127
2, 36571, Note_off_c, 0, 72, 127
2, 36571, Note_off_c, 3, 51, 127
2, 36573, Note_on_c, 1, 49, 127
2, 36573, Note_on_c, 11, 70, 127
2, 36755, Note_off_c, 11, 70, 127
2, 36755, Note_off_c, 1, 49, 127
2, 36758, Note_on_c, 0, 48, 127
2, 36758, Note_on_c, 10, 69, 127
2, 36901, Note_off_c, 10, 69, 127
2, 36940, Note_off_c, 0, 48, 127
2, 36943, Note_on_c, 11, 46, 127
2, 36943, Note_on_c, 1, 73, 127
2, 37125, Note_off_c, 1, 73, 127
2, 37125, Note_off_c, 11, 46, 127
2, 37127, Note_on_c, 1, 49, 127
2, 37127, Note_on_c, 11, 70, 127
2, 37309, Note_off_c, 11, 70, 127
2, 37309, Note_off_c, 1, 49, 127
2, 37311, Note_on_c, 0, 48, 127
2, 37311, Note_on_c, 10, 69, 127
2, 37493, Note_off_c, 10, 69, 127
2, 37493, Note_off_c, 0, 48, 127
2, 37495, Note_on_c, 3, 51, 127
2, 37495, Note_on_c, 0, 72, 127
2, 37677, Note_off_c, 0, 72, 127
2, 37677, Note_off_c, 3, 51, 127
2, 37679, Note_on_c, 1, 49, 127
2, 37679, Note_on_c, 11, 70, 127
2, 37861, Note_off_c, 11, 70, 127
2, 37861, Note_off_c, 1, 49, 127
2, 37864, Note_on_c, 0, 48, 127
2, 37864, Note_on_c, 8, 68, 127
2, 38046, Note_off_c, 8, 68, 127
2, 38046, Note_off_c, 0, 48, 127
2, 38049, Note_on_c, 11, 46, 127
2, 38049, Note_on_c, 6, 66, 127
2, 38231, Note_off_c, 6, 66, 127
2, 38231, Note_off_c, 11, 46, 127
2, 38233, Note_on_c, 8, 44, 127
2, 38233, Note_on_c, 5, 65, 127
2, 38415, Note_off_c, 5, 65, 127
2, 38415, Note_off_c, 8, 44, 127
2, 38417, Note_on_c, 7, 43, 127
2, 38417, Note_on_c, 3, 63, 127
2, 38599, Note_off_c, 3, 63, 127
2, 38599, Note_off_c, 7, 43, 127
2, 38602, Note_on_c, 11, 46, 127
2, 38602, Note_on_c, 1, 73, 127
2, 38784, Note_off_c, 1, 73, 127
2, 38784, Note_off_c, 11, 46, 127
2, 38786, Note_on_c, 10, 45, 127
2, 38786, Note_on_c, 0, 72, 127
2, 38968, Note_off_c, 0, 72, 127
2, 38968, Note_off_c, 10, 45, 127
2, 38970, Note_on_c, 0, 48, 127
2, 38970, Note_on_c, 3, 75, 127
2, 39152, Note_off_c, 3, 75, 127
2, 39152, Note_off_c, 0, 48, 127
2, 39155, Note_on_c, 11, 46, 127
2, 39155, Note_on_c, 1, 73, 127
2, 39337, Note_off_c, 1, 73, 127
2, 39337, Note_off_c, 11, 46, 127
2, 39340, Note_on_c, 8, 44, 127
2, 39340, Note_on_c, 0, 72, 127
2, 39522, Note_off_c, 0, 72, 127
2, 39522, Note_off_c, 8, 44, 127
2, 39524, Note_on_c, 6, 42, 127
2, 39524, Note_on_c, 11, 70, 127
2, 39706, Note_off_c, 11, 70, 127
2, 39706, Note_off_c, 6, 42, 127
2, 39708, Note_on_c, 5, 41, 127
2, 39708, Note_on_c, 10, 69, 127
2, 39851, Note_off_c, 10, 69, 127
2, 39890, Note_off_c, 5, 41, 127
2, 39892, Note_on_c, 4, 40, 127
2, 39892, Note_on_c, 7, 79, 127
2, 40074, Note_off_c, 7, 79, 127
2, 40077, Note_on_c, 1, 73, 127
2, 40258, Note_off_c, 4, 40, 127
2, 40259, Note_off_c, 1, 73, 127
2, 40262, Note_on_c, 4, 52, 127
2, 40262, Note_on_c, 0, 72, 127
2, 40444, Note_off_c, 0, 72, 127
2, 40446, Note_on_c, 11, 70, 127
2, 40626, Note_off_c, 4, 52, 127
2, 40628, Note_off_c, 11, 70, 127
2, 40630, Note_on_c, 11, 82, 127
2, 40720, Note_off_c, 11, 82, 127
2, 40722, Note_on_c, 10, 81, 127
2, 40812, Note_off_c, 10, 81, 127
2, 40815, Note_on_c, 6, 54, 127
2, 40815, Note_on_c, 11, 82, 127
2, 40905, Note_off_c, 11, 82, 127
2, 40907, Note_on_c, 10, 81, 127
2, 40997, Note_off_c, 10, 81, 127
2, 40997, Note_off_c, 6, 54, 127
2, 40999, Note_on_c, 5, 53, 127
2, 40999, Note_on_c, 11, 82, 127
2, 41089, Note_off_c, 11, 82, 127
2, 41091, Note_on_c, 10, 81, 127
2, 41181, Note_off_c, 10, 81, 127
2, 41181, Note_off_c, 5, 53, 127
2, 41183, Note_on_c, 3, 51, 127
2, 41183, Note_on_c, 7, 79, 127
2, 41273, Note_off_c, 7, 79, 127
2, 41275, Note_on_c, 10, 81, 127
2, 41365, Note_off_c, 10, 81, 127
2, 41365, Note_off_c, 3, 51, 127
2, 41367, Note_on_c, 1, 49, 127
2, 41367, Note_on_c, 11, 82, 127
2, 41549, Note_off_c, 11, 82, 127
2, 41549, Note_off_c, 1, 49, 127
2, 41553, Note_on_c, 0, 48, 127
2, 41553, Note_on_c, 8, 80, 127
2, 41643, Note_off_c, 8, 80, 127
2, 41645, Note_on_c, 6, 78, 127
2, 41735, Note_off_c, 6, 78, 127
2, 41735, Note_off_c, 0, 48, 127
2, 41737, Note_on_c, 1, 49, 127
2, 41737, Note_on_c, 5, 77, 127
2, 41919, Note_off_c, 5, 77, 127
2, 41919, Note_off_c, 1, 49, 127
2, 41921, Note_on_c, 3, 51, 127
2, 41921, Note_on_c, 3, 75, 127
2, 42103, Note_off_c, 3, 75, 127
2, 42103, Note_off_c, 3, 51, 127
2, 42105, Note_on_c, 5, 53, 127
2, 42105, Note_on_c, 1, 73, 127
2, 42287, Note_off_c, 5, 53, 127
2, 42289, Note_on_c, 6, 54, 127
2, 42289, Note_on_c, 11, 82, 127
2, 42315, Note_off_c, 1, 73, 127
2, 42471, Note_off_c, 11, 82, 127
2, 42471, Note_off_c, 6, 54, 127
2, 42474, Note_on_c, 3, 51, 127
2, 42474, Note_on_c, 0, 72, 127
2, 42656, Note_off_c, 3, 51, 127
2, 42659, Note_on_c, 5, 53, 127
2, 42659, Note_on_c, 10, 81, 127
2, 42684, Note_off_c, 0, 72, 127
2, 42841, Note_off_c, 10, 81, 127
2, 42841, Note_off_c, 5, 53, 127
2, 42843, Note_on_c, 6, 54, 127
2, 42843, Note_on_c, 11, 82, 127
2, 43025, Note_off_c, 11, 82, 127
2, 43027, Note_on_c, 11, 70, 127
2, 43209, Note_off_c, 11, 70, 127
2, 43209, Note_off_c, 6, 54, 127
2, 43212, Note_on_c, 6, 42, 127
2, 43212, Note_on_c, 3, 75, 127
2, 43302, Note_off_c, 3, 75, 127
2, 43304, Note_on_c, 1, 73, 127
2, 43394, Note_off_c, 1, 73, 127
2, 43396, Note_on_c, 0, 72, 127
2, 43578, Note_off_c, 0, 72, 127
2, 43578, Note_off_c, 6, 42, 127
2, 43580, Note_on_c, 5, 41, 127
2, 43580, Note_on_c, 1, 73, 127
2, 43762, Note_off_c, 1, 73, 127
2, 43764, Note_on_c, 0, 72, 127
2, 43854, Note_off_c, 0, 72, 127
2, 43858, Note_on_c, 11, 70, 127
2, 43946, Note_off_c, 5, 41, 127
2, 43948, Note_off_c, 11, 70, 127
2, 43950, Note_on_c, 3, 39, 127
2, 43950, Note_on_c, 10, 69, 127
2, 44040, Note_off_c, 10, 69, 127
2, 44042, Note_on_c, 11, 70, 127
2, 44132, Note_off_c, 11, 70, 127
2, 44134, Note_on_c, 0, 72, 127
2, 44316, Note_off_c, 0, 72, 127
2, 44316, Note_off_c, 3, 39, 127
2, 44318, Note_on_c, 1, 37, 127
2, 44318, Note_on_c, 5, 65, 127
2, 44410, Note_off_c, 5, 65, 127
2, 44412, Note_on_c, 11, 70, 127
2, 44504, Note_off_c, 11, 70, 127
2, 44506, Note_on_c, 8, 68, 127
2, 44598, Note_off_c, 8, 68, 127
2, 44600, Note_on_c, 6, 66, 127
2, 44692, Note_off_c, 6, 66, 127
2, 44692, Note_off_c, 1, 37, 127
2, 44694, Note_on_c, 1, 49, 127
2, 44694, Note_on_c, 5, 65, 127
2, 44880, Note_off_c, 5, 65, 127
2, 44880, Note_off_c, 1, 49, 127
2, 44882, Note_on_c, 3, 51, 127
2, 44882, Note_on_c, 3, 63, 127
2, 45068, Note_off_c, 3, 63, 127
2, 45068, Note_off_c, 3, 51, 127
2, 45071, Note_on_c, 5, 53, 127
2, 45071, Note_on_c, 1, 61, 127
2, 45257, Note_off_c, 1, 61, 127
2, 45260, Note_on_c, 0, 60, 127
2, 45352, Note_off_c, 0, 60, 127
2, 45354, Note_on_c, 1, 61, 127
2, 45445, Note_off_c, 5, 53, 127
2, 45446, Note_off_c, 1, 61, 127
2, 45448, Note_on_c, 5, 41, 127
2, 45448, Note_on_c, 3, 63, 127
2, 45540, Note_off_c, 3, 63, 127
2, 45542, Note_on_c, 1, 61, 127
2, 45634, Note_off_c, 1, 61, 127
2, 45636, Note_on_c, 0, 60, 127
2, 45822, Note_off_c, 0, 60, 127
2, 45822, Note_off_c, 5, 41, 127
2, 45824, Note_on_c, 11, 46, 127
2, 45824, Note_on_c, 11, 58, 127
2, 46014, Note_off_c, 11, 58, 127
2, 46016, Note_on_c, 1, 61, 127
2, 46206, Note_off_c, 1, 61, 127
2, 46208, Note_on_c, 5, 65, 127
2, 46398, Note_off_c, 5, 65, 127
2, 46400, Note_on_c, 10, 69, 127
2, 46590, Note_off_c, 10, 69, 127
2, 46592, Note_on_c, 10, 69, 127
2, 46974, Note_off_c, 10, 69, 127
2, 46976, Note_on_c, 11, 70, 127
2, 47358, Note_off_c, 11, 70, 127
2, 47358, Note_off_c, 11, 46, 127
2, 47361, Note_on_c, 11, 46, 127
2, 47361, Note_on_c, 8, 80, 127
2, 47543, Note_off_c, 8, 80, 127
2, 47543, Note_off_c, 11, 46, 127
2, 47545, Note_on_c, 2, 50, 127
2, 47545, Note_on_c, 5, 77, 127
2, 47635, Note_off_c, 5, 77, 127
2, 47637, Note_on_c, 2, 74, 127
2, 47727, Note_off_c, 2, 74, 127
2, 47727, Note_off_c, 2, 50, 127
2, 47730, Note_on_c, 0, 48, 127
2, 47730, Note_on_c, 11, 70, 127
2, 47912, Note_off_c, 0, 48, 127
2, 47914, Note_on_c, 3, 51, 127
2, 48096, Note_off_c, 3, 51, 127
2, 48098, Note_on_c, 2, 50, 127
2, 48171, Note_off_c, 11, 70, 127
2, 48280, Note_off_c, 2, 50, 127
2, 48282, Note_on_c, 5, 53, 127
2, 48282, Note_on_c, 2, 74, 127
2, 48372, Note_off_c, 2, 74, 127
2, 48374, Note_on_c, 5, 77, 127
2, 48464, Note_off_c, 5, 77, 127
2, 48464, Note_off_c, 5, 53, 127
2, 48467, Note_on_c, 3, 51, 127
2, 48467, Note_on_c, 6, 78, 127
2, 48557, Note_off_c, 6, 78, 127
2, 48560, Note_on_c, 5, 77, 127
2, 48649, Note_off_c, 3, 51, 127
2, 48650, Note_off_c, 5, 77, 127
2, 48652, Note_on_c, 6, 54, 127
2, 48652, Note_on_c, 3, 75, 127
2, 48834, Note_off_c, 3, 75, 127
2, 48834, Note_off_c, 6, 54, 127
2, 48836, Note_on_c, 5, 53, 127
2, 48836, Note_on_c, 2, 74, 127
2, 49018, Note_off_c, 2, 74, 127
2, 49018, Note_off_c, 5, 53, 127
2, 49020, Note_on_c, 8, 56, 127
2, 49020, Note_on_c, 5, 77, 127
2, 49110, Note_off_c, 5, 77, 127
2, 49112, Note_on_c, 8, 80, 127
2, 49202, Note_off_c, 8, 80, 127
2, 49202, Note_off_c, 8, 56, 127
2, 49204, Note_on_c, 6, 54, 127
2, 49204, Note_on_c, 12, 83, 127
2, 49386, Note_off_c, 6, 54, 127
2, 49389, Note_on_c, 5, 53, 127
2, 49571, Note_off_c, 5, 53, 127
2, 49573, Note_on_c, 3, 51, 127
2, 49645, Note_off_c, 12, 83, 127
2, 49755, Note_off_c, 3, 51, 127
2, 49758, Note_on_c, 2, 50, 127
2, 49758, Note_on_c, 5, 77, 127
2, 49848, Note_off_c, 5, 77, 127
2, 49850, Note_on_c, 3, 75, 127
2, 49940, Note_off_c, 3, 75, 127
2, 49940, Note_off_c, 2, 50, 127
2, 49942, Note_on_c, 0, 48, 127
2, 49942, Note_on_c, 5, 77, 127
2, 50032, Note_off_c, 5, 77, 127
2, 50035, Note_on_c, 6, 78, 127
2, 50124, Note_off_c, 0, 48, 127
2, 50125, Note_off_c, 6, 78, 127
2, 50127, Note_on_c, 11, 46, 127
2, 50127, Note_on_c, 8, 80, 127
2, 50280, Note_off_c, 8, 80, 127
2, 50309, Note_off_c, 11, 46, 127
2, 50311, Note_on_c, 3, 51, 127
2, 50311, Note_on_c, 6, 78, 127
2, 50493, Note_off_c, 6, 78, 127
2, 50495, Note_on_c, 5, 77, 127
2, 50677, Note_off_c, 5, 77, 127
2, 50677, Note_off_c, 3, 51, 127
2, 50679, Note_on_c, 6, 54, 127
2, 50679, Note_on_c, 3, 75, 127
2, 50861, Note_off_c, 3, 75, 127
2, 50864, Note_on_c, 2, 74, 127
2, 51045, Note_off_c, 6, 54, 127
2, 51046, Note_off_c, 2, 74, 127
2, 51049, Note_on_c, 0, 60, 127
2, 51049, Note_on_c, 3, 75, 127
2, 51231, Note_off_c, 3, 75, 127
2, 51233, Note_on_c, 6, 78, 127
2, 51415, Note_off_c, 6, 78, 127
2, 51415, Note_off_c, 0, 60, 127
2, 51417, Note_on_c, 5, 53, 127
2, 51417, Note_on_c, 8, 68, 127
2, 51599, Note_off_c, 8, 68, 127
2, 51602, Note_on_c, 6, 78, 127
2, 51783, Note_off_c, 5, 53, 127
2, 51784, Note_off_c, 6, 78, 127
2, 51786, Note_on_c, 6, 54, 127
2, 51786, Note_on_c, 3, 75, 127
2, 51968, Note_off_c, 3, 75, 127
2, 51970, Note_on_c, 6, 78, 127
2, 52152, Note_off_c, 6, 78, 127
2, 52152, Note_off_c, 6, 54, 127
2, 52155, Note_on_c, 3, 63, 127
2, 52155, Note_on_c, 11, 70, 127
2, 52337, Note_off_c, 11, 70, 127
2, 52340, Note_on_c, 6, 78, 127
2, 52521, Note_off_c, 3, 63, 127
2, 52522, Note_off_c, 6, 78, 127
2, 52524, Note_on_c, 0, 60, 127
2, 52524, Note_on_c, 3, 75, 127
2, 52706, Note_off_c, 3, 75, 127
2, 52708, Note_on_c, 6, 78, 127
2, 52890, Note_off_c, 6, 78, 127
2, 52890, Note_off_c, 0, 60, 127
2, 52892, Note_on_c, 8, 56, 127
2, 52892, Note_on_c, 0, 72, 127
2, 53074, Note_off_c, 0, 72, 127
2, 53077, Note_on_c, 6, 78, 127
2, 53230, Note_off_c, 6, 78, 127
2, 53246, Note_off_c, 8, 56, 127
2, 53262, Note_on_c, 12, 59, 127
2, 53262, Note_on_c, 1, 73, 127
2, 53444, Note_off_c, 1, 73, 127
2, 53444, Note_off_c, 12, 59, 127
2, 53446, Note_on_c, 8, 56, 127
2, 53446, Note_on_c, 5, 77, 127
2, 53536, Note_off_c, 8, 56, 127
2, 53538, Note_on_c, 5, 53, 127
2, 53628, Note_off_c, 5, 53, 127
2, 53628, Note_off_c, 5, 77, 127
2, 53630, Note_on_c, 1, 49, 127
2, 53630, Note_on_c, 3, 75, 127
2, 53812, Note_off_c, 3, 75, 127
2, 53814, Note_on_c, 6, 78, 127
2, 53996, Note_off_c, 6, 78, 127
2, 53999, Note_on_c, 5, 77, 127
2, 54180, Note_off_c, 1, 49, 127
2, 54181, Note_off_c, 5, 77, 127
2, 54183, Note_on_c, 5, 53, 127
2, 54183, Note_on_c, 8, 80, 127
2, 54273, Note_off_c, 5, 53, 127
2, 54275, Note_on_c, 8, 56, 127
2, 54365, Note_off_c, 8, 56, 127
2, 54365, Note_off_c, 8, 80, 127
2, 54367, Note_on_c, 11, 58, 127
2, 54367, Note_on_c, 6, 78, 127
2, 54457, Note_off_c, 11, 58, 127
2, 54460, Note_on_c, 8, 56, 127
2, 54549, Note_off_c, 6, 78, 127
2, 54550, Note_off_c, 8, 56, 127
2, 54552, Note_on_c, 6, 54, 127
2, 54552, Note_on_c, 11, 82, 127
2, 54734, Note_off_c, 11, 82, 127
2, 54734, Note_off_c, 6, 54, 127
2, 54737, Note_on_c, 5, 53, 127
2, 54737, Note_on_c, 8, 80, 127
2, 54919, Note_off_c, 8, 80, 127
2, 54919, Note_off_c, 5, 53, 127
2, 54921, Note_on_c, 8, 56, 127
2, 54921, Note_on_c, 12, 83, 127
2, 55011, Note_off_c, 8, 56, 127
2, 55013, Note_on_c, 12, 59, 127
2, 55103, Note_off_c, 12, 59, 127
2, 55103, Note_off_c, 12, 83, 127
2, 55105, Note_on_c, 3, 63, 127
2, 55105, Note_on_c, 11, 82, 127
2, 55287, Note_off_c, 11, 82, 127
2, 55289, Note_on_c, 8, 80, 127
2, 55471, Note_off_c, 8, 80, 127
2, 55474, Note_on_c, 6, 78, 127
2, 55655, Note_off_c, 3, 63, 127
2, 55656, Note_off_c, 6, 78, 127
2, 55659, Note_on_c, 8, 56, 127
2, 55659, Note_on_c, 5, 77, 127
2, 55749, Note_off_c, 8, 56, 127
2, 55751, Note_on_c, 6, 54, 127
2, 55841, Note_off_c, 6, 54, 127
2, 55841, Note_off_c, 5, 77, 127
2, 55843, Note_on_c, 8, 56, 127
2, 55843, Note_on_c, 3, 75, 127
2, 55933, Note_off_c, 8, 56, 127
2, 55935, Note_on_c, 11, 58, 127
2, 56025, Note_off_c, 11, 58, 127
2, 56025, Note_off_c, 3, 75, 127
2, 56027, Note_on_c, 12, 59, 127
2, 56027, Note_on_c, 1, 73, 127
2, 56209, Note_off_c, 1, 73, 127
2, 56209, Note_off_c, 12, 59, 127
2, 56212, Note_on_c, 11, 58, 127
2, 56212, Note_on_c, 6, 78, 127
2, 56394, Note_off_c, 6, 78, 127
2, 56394, Note_off_c, 11, 58, 127
2, 56396, Note_on_c, 8, 56, 127
2, 56396, Note_on_c, 12, 71, 127
2, 56578, Note_off_c, 12, 71, 127
2, 56578, Note_off_c, 8, 56, 127
2, 56580, Note_on_c, 6, 54, 127
2, 56580, Note_on_c, 11, 70, 127
2, 56762, Note_off_c, 11, 70, 127
2, 56762, Note_off_c, 6, 54, 127
2, 56764, Note_on_c, 5, 53, 127
2, 56764, Note_on_c, 8, 68, 127
2, 56946, Note_off_c, 8, 68, 127
2, 56946, Note_off_c, 5, 53, 127
2, 56950, Note_on_c, 6, 54, 127
2, 56950, Note_on_c, 11, 70, 127
2, 57132, Note_off_c, 11, 70, 127
2, 57132, Note_off_c, 6, 54, 127
2, 57134, Note_on_c, 11, 58, 127
2, 57134, Note_on_c, 4, 76, 127
2, 57316, Note_off_c, 11, 58, 127
2, 57318, Note_on_c, 12, 47, 127
2, 57500, Note_off_c, 12, 47, 127
2, 57500, Note_off_c, 4, 76, 127
2, 57502, Note_on_c, 11, 58, 127
2, 57502, Note_on_c, 3, 75, 127
2, 57684, Note_off_c, 3, 75, 127
2, 57684, Note_off_c, 11, 58, 127
2, 57687, Note_on_c, 6, 54, 127
2, 57687, Note_on_c, 1, 73, 127
2, 57869, Note_off_c, 1, 73, 127
2, 57869, Note_off_c, 6, 54, 127
2, 57871, Note_on_c, 11, 58, 127
2, 57871, Note_on_c, 6, 78, 127
2, 58053, Note_off_c, 11, 58, 127
2, 58056, Note_on_c, 1, 49, 127
2, 58237, Note_off_c, 6, 78, 127
2, 58238, Note_off_c, 1, 49, 127
2, 58240, Note_on_c, 11, 58, 127
2, 58240, Note_on_c, 4, 76, 127
2, 58422, Note_off_c, 4, 76, 127
2, 58422, Note_off_c, 11, 58, 127
2, 58424, Note_on_c, 6, 54, 127
2, 58424, Note_on_c, 3, 75, 127
2, 58606, Note_off_c, 3, 75, 127
2, 58606, Note_off_c, 6, 54, 127
2, 58609, Note_on_c, 11, 58, 127
2, 58609, Note_on_c, 6, 78, 127
2, 58791, Note_off_c, 6, 78, 127
2, 58791, Note_off_c, 11, 58, 127
2, 58793, Note_on_c, 3, 51, 127
2, 58793, Note_on_c, 12, 83, 127
2, 58975, Note_off_c, 12, 83, 127
2, 58975, Note_off_c, 3, 51, 127
2, 58977, Note_on_c, 11, 58, 127
2, 58977, Note_on_c, 7, 79, 127
2, 59159, Note_off_c, 7, 79, 127
2, 59159, Note_off_c, 11, 58, 127
2, 59162, Note_on_c, 4, 52, 127
2, 59162, Note_on_c, 8, 80, 127
2, 59344, Note_off_c, 8, 80, 127
2, 59344, Note_off_c, 4, 52, 127
2, 59347, Note_on_c, 8, 56, 127
2, 59347, Note_on_c, 4, 76, 127
2, 59529, Note_off_c, 4, 76, 127
2, 59529, Note_off_c, 8, 56, 127
2, 59531, Note_on_c, 6, 54, 127
2, 59531, Note_on_c, 3, 75, 127
2, 59713, Note_off_c, 3, 75, 127
2, 59713, Note_off_c, 6, 54, 127
2, 59715, Note_on_c, 10, 57, 127
2, 59715, Note_on_c, 6, 78, 127
2, 59897, Note_off_c, 6, 78, 127
2, 59897, Note_off_c, 10, 57, 127
2, 59899, Note_on_c, 8, 56, 127
2, 59899, Note_on_c, 4, 76, 127
2, 60081, Note_off_c, 4, 76, 127
2, 60081, Note_off_c, 8, 56, 127
2, 60084, Note_on_c, 6, 54, 127
2, 60084, Note_on_c, 3, 75, 127
2, 60266, Note_off_c, 3, 75, 127
2, 60266, Note_off_c, 6, 54, 127
2, 60268, Note_on_c, 4, 52, 127
2, 60268, Note_on_c, 1, 73, 127
2, 60450, Note_off_c, 1, 73, 127
2, 60450, Note_off_c, 4, 52, 127
2, 60453, Note_on_c, 3, 51, 127
2, 60453, Note_on_c, 0, 72, 127
2, 60615, Note_off_c, 0, 72, 127
2, 60635, Note_off_c, 3, 51, 127
2, 60637, Note_on_c, 1, 49, 127
2, 60637, Note_on_c, 4, 76, 127
2, 60819, Note_off_c, 4, 76, 127
2, 60822, Note_on_c, 1, 73, 127
2, 60989, Note_off_c, 1, 49, 127
2, 61004, Note_off_c, 1, 73, 127
2, 61006, Note_on_c, 4, 52, 127
2, 61006, Note_on_c, 12, 71, 127
2, 61188, Note_off_c, 12, 71, 127
2, 61190, Note_on_c, 3, 75, 127
2, 61358, Note_off_c, 4, 52, 127
2, 61372, Note_off_c, 3, 75, 127
2, 61374, Note_on_c, 11, 58, 127
2, 61374, Note_on_c, 1, 73, 127
2, 61464, Note_off_c, 11, 58, 127
2, 61466, Note_on_c, 8, 56, 127
2, 61556, Note_off_c, 8, 56, 127
2, 61556, Note_off_c, 1, 73, 127
2, 61560, Note_on_c, 11, 58, 127
2, 61560, Note_on_c, 12, 71, 127
2, 61742, Note_off_c, 12, 71, 127
2, 61744, Note_on_c, 11, 70, 127
2, 61926, Note_off_c, 11, 70, 127
2, 61928, Note_on_c, 8, 68, 127
2, 62110, Note_off_c, 8, 68, 127
2, 62112, Note_on_c, 7, 67, 127
2, 62295, Note_off_c, 11, 58, 127
2, 62297, Note_on_c, 7, 55, 127
2, 62418, Note_off_c, 7, 67, 127
2, 62479, Note_off_c, 7, 55, 127
2, 62481, Note_on_c, 8, 56, 127
2, 62481, Note_on_c, 11, 70, 127
2, 62663, Note_off_c, 8, 56, 127
2, 62665, Note_on_c, 5, 53, 127
2, 62787, Note_off_c, 11, 70, 127
2, 62847, Note_off_c, 5, 53, 127
2, 62850, Note_on_c, 7, 55, 127
2, 62850, Note_on_c, 3, 75, 127
2, 62940, Note_off_c, 3, 75, 127
2, 62942, Note_on_c, 1, 73, 127
2, 63032, Note_off_c, 1, 73, 127
2, 63032, Note_off_c, 7, 55, 127
2, 63034, Note_on_c, 11, 58, 127
2, 63034, Note_on_c, 3, 75, 127
2, 63216, Note_off_c, 11, 58, 127
2, 63219, Note_on_c, 3, 51, 127
2, 63401, Note_off_c, 3, 51, 127
2, 63403, Note_on_c, 1, 49, 127
2, 63585, Note_off_c, 1, 49, 127
2, 63587, Note_on_c, 12, 47, 127
2, 63769, Note_off_c, 3, 75, 127
2, 63771, Note_on_c, 12, 71, 127
2, 63939, Note_off_c, 12, 47, 127
2, 63953, Note_off_c, 12, 71, 127
2, 63957, Note_on_c, 3, 51, 127
2, 63957, Note_on_c, 1, 73, 127
2, 64139, Note_off_c, 1, 73, 127
2, 64141, Note_on_c, 11, 70, 127
2, 64309, Note_off_c, 3, 51, 127
2, 64323, Note_off_c, 11, 70, 127
2, 64325, Note_on_c, 8, 56, 127
2, 64325, Note_on_c, 12, 71, 127
2, 64415, Note_off_c, 8, 56, 127
2, 64417, Note_on_c, 7, 55, 127
2, 64507, Note_off_c, 7, 55, 127
2, 64507, Note_off_c, 12, 71, 127
2, 64509, Note_on_c, 8, 56, 127
2, 64509, Note_on_c, 3, 75, 127
2, 64691, Note_off_c, 3, 75, 127
2, 64694, Note_on_c, 8, 68, 127
2, 64876, Note_off_c, 8, 68, 127
2, 64878, Note_on_c, 6, 66, 127
2, 65060, Note_off_c, 6, 66, 127
2, 65063, Note_on_c, 4, 64, 127
2, 65244, Note_off_c, 8, 56, 127
2, 65247, Note_on_c, 6, 54, 127
2, 65369, Note_off_c, 4, 64, 127
2, 65429, Note_off_c, 6, 54, 127
2, 65432, Note_on_c, 4, 52, 127
2, 65432, Note_on_c, 8, 68, 127
2, 65614, Note_off_c, 4, 52, 127
2, 65616, Note_on_c, 3, 51, 127
2, 65738, Note_off_c, 8, 68, 127
2, 65798, Note_off_c, 3, 51, 127
2, 65800, Note_on_c, 4, 52, 127
2, 65800, Note_on_c, 1, 73, 127
2, 65890, Note_off_c, 1, 73, 127
2, 65892, Note_on_c, 12, 71, 127
2, 65982, Note_off_c, 12, 71, 127
2, 65982, Note_off_c, 4, 52, 127
2, 65984, Note_on_c, 8, 56, 127
2, 65984, Note_on_c, 1, 73, 127
2, 66166, Note_off_c, 8, 56, 127
2, 66169, Note_on_c, 1, 49, 127
2, 66351, Note_off_c, 1, 49, 127
2, 66354, Note_on_c, 12, 47, 127
2, 66536, Note_off_c, 12, 47, 127
2, 66538, Note_on_c, 11, 46, 127
2, 66719, Note_off_c, 1, 73, 127
2, 66720, Note_off_c, 11, 46, 127
2, 66722, Note_on_c, 8, 56, 127
2, 66722, Note_on_c, 4, 64, 127
2, 66904, Note_off_c, 4, 64, 127
2, 66904, Note_off_c, 8, 56, 127
2, 66907, Note_on_c, 7, 55, 127
2, 66907, Note_on_c, 3, 63, 127
2, 67089, Note_off_c, 3, 63, 127
2, 67089, Note_off_c, 7, 55, 127
2, 67091, Note_on_c, 5, 53, 127
2, 67091, Note_on_c, 2, 62, 127
2, 67273, Note_off_c, 2, 62, 127
2, 67273, Note_off_c, 5, 53, 127
2, 67275, Note_on_c, 7, 55, 127
2, 67275, Note_on_c, 3, 63, 127
2, 67457, Note_off_c, 7, 55, 127
2, 67460, Note_on_c, 11, 58, 127
2, 67642, Note_off_c, 11, 58, 127
2, 67644, Note_on_c, 3, 51, 127
2, 67825, Note_off_c, 3, 63, 127
2, 67826, Note_off_c, 3, 51, 127
2, 67829, Note_on_c, 1, 49, 127
2, 67829, Note_on_c, 11, 70, 127
2, 68011, Note_off_c, 11, 70, 127
2, 68011, Note_off_c, 1, 49, 127
2, 68013, Note_on_c, 12, 47, 127
2, 68013, Note_on_c, 3, 75, 127
2, 68195, Note_off_c, 3, 75, 127
2, 68197, Note_on_c, 1, 73, 127
2, 68287, Note_off_c, 1, 73, 127
2, 68289, Note_on_c, 12, 71, 127
2, 68379, Note_off_c, 12, 71, 127
2, 68379, Note_off_c, 12, 47, 127
2, 68381, Note_on_c, 4, 52, 127
2, 68381, Note_on_c, 11, 70, 127
2, 68471, Note_off_c, 11, 70, 127
2, 68474, Note_on_c, 12, 71, 127
2, 68564, Note_off_c, 12, 71, 127
2, 68566, Note_on_c, 1, 73, 127
2, 68747, Note_off_c, 4, 52, 127
2, 68748, Note_off_c, 1, 73, 127
2, 68751, Note_on_c, 1, 49, 127
2, 68751, Note_on_c, 12, 71, 127
2, 68935, Note_on_c, 8, 80, 127
2, 68961, Note_off_c, 12, 71, 127
2, 69117, Note_off_c, 8, 80, 127
2, 69117, Note_off_c, 1, 49, 127
2, 69119, Note_on_c, 3, 51, 127
2, 69119, Note_on_c, 11, 70, 127
2, 69304, Note_on_c, 7, 79, 127
2, 69329, Note_off_c, 11, 70, 127
2, 69485, Note_off_c, 3, 51, 127
2, 69486, Note_off_c, 7, 79, 127
2, 69488, Note_on_c, 8, 44, 127
2, 69488, Note_on_c, 8, 80, 127
2, 69670, Note_off_c, 8, 80, 127
2, 69672, Note_on_c, 4, 76, 127
2, 69854, Note_off_c, 4, 76, 127
2, 69854, Note_off_c, 8, 44, 127
2, 69857, Note_on_c, 11, 46, 127
2, 69857, Note_on_c, 3, 75, 127
2, 70039, Note_off_c, 3, 75, 127
2, 70042, Note_on_c, 1, 73, 127
2, 70223, Note_off_c, 11, 46, 127
2, 70224, Note_off_c, 1, 73, 127
2, 70226, Note_on_c, 12, 47, 127
2, 70226, Note_on_c, 3, 75, 127
2, 70410, Note_on_c, 8, 68, 127
2, 70436, Note_off_c, 3, 75, 127
2, 70592, Note_off_c, 8, 68, 127
2, 70592, Note_off_c, 12, 47, 127
2, 70594, Note_on_c, 11, 46, 127
2, 70594, Note_on_c, 7, 67, 127
2, 70776, Note_off_c, 7, 67, 127
2, 70779, Note_on_c, 1, 73, 127
2, 70943, Note_off_c, 1, 73, 127
2, 70960, Note_off_c, 11, 46, 127
2, 70964, Note_on_c, 8, 44, 127
2, 70964, Note_on_c, 12, 71, 127
2, 71146, Note_off_c, 12, 71, 127
2, 71148, Note_on_c, 11, 70, 127
2, 71330, Note_off_c, 11, 70, 127
2, 71330, Note_off_c, 8, 44, 127
2, 71332, Note_on_c, 12, 47, 127
2, 71332, Note_on_c, 8, 68, 127
2, 71514, Note_off_c, 8, 68, 127
2, 71517, Note_on_c, 7, 67, 127
2, 71698, Note_off_c, 12, 47, 127
2, 71699, Note_off_c, 7, 67, 127
2, 71701, Note_on_c, 5, 53, 127
2, 71701, Note_on_c, 8, 68, 127
2, 71883, Note_off_c, 8, 68, 127
2, 71885, Note_on_c, 12, 71, 127
2, 72067, Note_off_c, 12, 71, 127
2, 72067, Note_off_c, 5, 53, 127
2, 72069, Note_on_c, 11, 46, 127
2, 72069, Note_on_c, 1, 61, 127
2, 72251, Note_off_c, 1, 61, 127
2, 72254, Note_on_c, 12, 71, 127
2, 72435, Note_off_c, 11, 46, 127
2, 72436, Note_off_c, 12, 71, 127
2, 72439, Note_on_c, 12, 47, 127
2, 72439, Note_on_c, 8, 68, 127
2, 72621, Note_off_c, 8, 68, 127
2, 72623, Note_on_c, 12, 71, 127
2, 72805, Note_off_c, 12, 71, 127
2, 72805, Note_off_c, 12, 47, 127
2, 72807, Note_on_c, 8, 56, 127
2, 72807, Note_on_c, 3, 63, 127
2, 72989, Note_off_c, 3, 63, 127
2, 72991, Note_on_c, 12, 71, 127
2, 73173, Note_off_c, 12, 71, 127
2, 73173, Note_off_c, 8, 56, 127
2, 73176, Note_on_c, 5, 53, 127
2, 73176, Note_on_c, 8, 68, 127
2, 73358, Note_off_c, 8, 68, 127
2, 73361, Note_on_c, 12, 71, 127
2, 73542, Note_off_c, 5, 53, 127
2, 73543, Note_off_c, 12, 71, 127
2, 73545, Note_on_c, 1, 49, 127
2, 73545, Note_on_c, 5, 65, 127
2, 73727, Note_off_c, 5, 65, 127
2, 73729, Note_on_c, 12, 71, 127
2, 73899, Note_off_c, 12, 71, 127
2, 73911, Note_off_c, 1, 49, 127
2, 73914, Note_on_c, 6, 42, 127
2, 73914, Note_on_c, 11, 70, 127
2, 74096, Note_off_c, 11, 70, 127
2, 74098, Note_on_c, 8, 68, 127
2, 74280, Note_off_c, 8, 68, 127
2, 74280, Note_off_c, 6, 42, 127
2, 74282, Note_on_c, 11, 46, 127
2, 74282, Note_on_c, 6, 66, 127
2, 74464, Note_off_c, 6, 66, 127
2, 74466, Note_on_c, 5, 65, 127
2, 74648, Note_off_c, 5, 65, 127
2, 74648, Note_off_c, 11, 46, 127
2, 74652, Note_on_c, 3, 51, 127
2, 74652, Note_on_c, 6, 66, 127
2, 74834, Note_off_c, 6, 66, 127
2, 74836, Note_on_c, 11, 70, 127
2, 75018, Note_off_c, 11, 70, 127
2, 75018, Note_off_c, 3, 51, 127
2, 75020, Note_on_c, 8, 44, 127
2, 75020, Note_on_c, 0, 60, 127
2, 75202, Note_off_c, 0, 60, 127
2, 75204, Note_on_c, 11, 70, 127
2, 75386, Note_off_c, 11, 70, 127
2, 75386, Note_off_c, 8, 44, 127
2, 75389, Note_on_c, 11, 46, 127
2, 75389, Note_on_c, 6, 66, 127
2, 75571, Note_off_c, 6, 66, 127
2, 75573, Note_on_c, 11, 70, 127
2, 75755, Note_off_c, 11, 70, 127
2, 75755, Note_off_c, 11, 46, 127
2, 75758, Note_on_c, 6, 54, 127
2, 75758, Note_on_c, 2, 62, 127
2, 75940, Note_off_c, 2, 62, 127
2, 75942, Note_on_c, 11, 70, 127
2, 76124, Note_off_c, 11, 70, 127
2, 76124, Note_off_c, 6, 54, 127
2, 76127, Note_on_c, 3, 51, 127
2, 76127, Note_on_c, 6, 66, 127
2, 76309, Note_off_c, 6, 66, 127
2, 76311, Note_on_c, 11, 70, 127
2, 76493, Note_off_c, 11, 70, 127
2, 76493, Note_off_c, 3, 51, 127
2, 76495, Note_on_c, 0, 48, 127
2, 76495, Note_on_c, 3, 63, 127
2, 76677, Note_off_c, 3, 63, 127
2, 76679, Note_on_c, 11, 70, 127
2, 76849, Note_off_c, 11, 70, 127
2, 76861, Note_off_c, 0, 48, 127
2, 76864, Note_on_c, 5, 41, 127
2, 76864, Note_on_c, 8, 68, 127
2, 77046, Note_off_c, 8, 68, 127
2, 77049, Note_on_c, 6, 66, 127
2, 77230, Note_off_c, 5, 41, 127
2, 77231, Note_off_c, 6, 66, 127
2, 77233, Note_on_c, 8, 44, 127
2, 77233, Note_on_c, 5, 65, 127
2, 77415, Note_off_c, 5, 65, 127
2, 77417, Note_on_c, 3, 63, 127
2, 77599, Note_off_c, 3, 63, 127
2, 77599, Note_off_c, 8, 44, 127
2, 77601, Note_on_c, 2, 50, 127
2, 77601, Note_on_c, 5, 65, 127
2, 77783, Note_off_c, 5, 65, 127
2, 77786, Note_on_c, 8, 68, 127
2, 77967, Note_off_c, 2, 50, 127
2, 77968, Note_off_c, 8, 68, 127
2, 77970, Note_on_c, 6, 42, 127
2, 77970, Note_on_c, 11, 58, 127
2, 78152, Note_off_c, 11, 58, 127
2, 78155, Note_on_c, 8, 68, 127
2, 78336, Note_off_c, 6, 42, 127
2, 78337, Note_off_c, 8, 68, 127
2, 78339, Note_on_c, 8, 44, 127
2, 78339, Note_on_c, 5, 65, 127
2, 78521, Note_off_c, 5, 65, 127
2, 78524, Note_on_c, 8, 68, 127
2, 78705, Note_off_c, 8, 44, 127
2, 78706, Note_off_c, 8, 68, 127
2, 78708, Note_on_c, 5, 53, 127
2, 78708, Note_on_c, 0, 60, 127
2, 78890, Note_off_c, 0, 60, 127
2, 78892, Note_on_c, 8, 68, 127
2, 79074, Note_off_c, 8, 68, 127
2, 79074, Note_off_c, 5, 53, 127
2, 79076, Note_on_c, 2, 50, 127
2, 79076, Note_on_c, 5, 65, 127
2, 79258, Note_off_c, 5, 65, 127
2, 79262, Note_on_c, 8, 68, 127
2, 79442, Note_off_c, 2, 50, 127
2, 79444, Note_off_c, 8, 68, 127
2, 79446, Note_on_c, 11, 46, 127
2, 79446, Note_on_c, 2, 62, 127
2, 79628, Note_off_c, 2, 62, 127
2, 79630, Note_on_c, 8, 68, 127
2, 79792, Note_off_c, 8, 68, 127
2, 79812, Note_off_c, 11, 46, 127
2, 79814, Note_on_c, 3, 39, 127
2, 79814, Note_on_c, 6, 66, 127
2, 79996, Note_off_c, 6, 66, 127
2, 79996, Note_off_c, 3, 39, 127
2, 79999, Note_on_c, 6, 42, 127
2, 79999, Note_on_c, 11, 70, 127
2, 80181, Note_off_c, 11, 70, 127
2, 80181, Note_off_c, 6, 42, 127
2, 80183, Note_on_c, 5, 41, 127
2, 80183, Note_on_c, 2, 74, 127
2, 80365, Note_off_c, 2, 74, 127
2, 80365, Note_off_c, 5, 41, 127
2, 80367, Note_on_c, 8, 44, 127
2, 80367, Note_on_c, 5, 77, 127
2, 80537, Note_off_c, 5, 77, 127
2, 80549, Note_off_c, 8, 44, 127
2, 80552, Note_on_c, 6, 42, 127
2, 80552, Note_on_c, 11, 70, 127
2, 80734, Note_off_c, 11, 70, 127
2, 80734, Note_off_c, 6, 42, 127
2, 80737, Note_on_c, 11, 46, 127
2, 80737, Note_on_c, 2, 74, 127
2, 80919, Note_off_c, 2, 74, 127
2, 80919, Note_off_c, 11, 46, 127
2, 80921, Note_on_c, 8, 44, 127
2, 80921, Note_on_c, 5, 77, 127
2, 81103, Note_off_c, 5, 77, 127
2, 81103, Note_off_c, 8, 44, 127
2, 81105, Note_on_c, 12, 47, 127
2, 81105, Note_on_c, 8, 80, 127
2, 81287, Note_off_c, 8, 80, 127
2, 81287, Note_off_c, 12, 47, 127
2, 81289, Note_on_c, 11, 46, 127
2, 81289, Note_on_c, 6, 78, 127
2, 81379, Note_off_c, 6, 78, 127
2, 81381, Note_on_c, 5, 77, 127
2, 81471, Note_off_c, 5, 77, 127
2, 81471, Note_off_c, 11, 46, 127
2, 81473, Note_on_c, 3, 51, 127
2, 81473, Note_on_c, 3, 75, 127
2, 81655, Note_off_c, 3, 75, 127
2, 81655, Note_off_c, 3, 51, 127
2, 81659, Note_on_c, 2, 50, 127
2, 81659, Note_on_c, 5, 77, 127
2, 81841, Note_off_c, 2, 50, 127
2, 81843, Note_on_c, 0, 48, 127
2, 82025, Note_off_c, 0, 48, 127
2, 82027, Note_on_c, 11, 46, 127
2, 82196, Note_off_c, 5, 77, 127
2, 82209, Note_off_c, 11, 46, 127
2, 82211, Note_on_c, 8, 44, 127
2, 82393, Note_off_c, 8, 44, 127
2, 82396, Note_on_c, 6, 42, 127
2, 82578, Note_off_c, 6, 42, 127
2, 82580, Note_on_c, 5, 41, 127
2, 82762, Note_off_c, 5, 41, 127
2, 82764, Note_on_c, 6, 42, 127
2, 82764, Note_on_c, 3, 63, 127
2, 82946, Note_off_c, 3, 63, 127
2, 82946, Note_off_c, 6, 42, 127
2, 82949, Note_on_c, 11, 46, 127
2, 82949, Note_on_c, 6, 66, 127
2, 83131, Note_off_c, 6, 66, 127
2, 83131, Note_off_c, 11, 46, 127
2, 83134, Note_on_c, 2, 50, 127
2, 83134, Note_on_c, 5, 65, 127
2, 83316, Note_off_c, 5, 65, 127
2, 83316, Note_off_c, 2, 50, 127
2, 83318, Note_on_c, 5, 53, 127
2, 83318, Note_on_c, 8, 68, 127
2, 83490, Note_off_c, 5, 53, 127
2, 83500, Note_off_c, 8, 68, 127
2, 83502, Note_on_c, 11, 46, 127
2, 83502, Note_on_c, 6, 66, 127
2, 83684, Note_off_c, 6, 66, 127
2, 83684, Note_off_c, 11, 46, 127
2, 83686, Note_on_c, 2, 50, 127
2, 83686, Note_on_c, 11, 70, 127
2, 83868, Note_off_c, 11, 70, 127
2, 83868, Note_off_c, 2, 50, 127
2, 83871, Note_on_c, 5, 53, 127
2, 83871, Note_on_c, 8, 68, 127
2, 84053, Note_off_c, 8, 68, 127
2, 84053, Note_off_c, 5, 53, 127
2, 84056, Note_on_c, 8, 56, 127
2, 84056, Note_on_c, 12, 71, 127
2, 84228, Note_off_c, 8, 56, 127
2, 84238, Note_off_c, 12, 71, 127
2, 84240, Note_on_c, 6, 54, 127
2, 84240, Note_on_c, 11, 70, 127
2, 84330, Note_off_c, 6, 54, 127
2, 84332, Note_on_c, 5, 53, 127
2, 84422, Note_off_c, 5, 53, 127
2, 84422, Note_off_c, 11, 70, 127
2, 84424, Note_on_c, 3, 51, 127
2, 84424, Note_on_c, 3, 75, 127
2, 84606, Note_off_c, 3, 75, 127
2, 84606, Note_off_c, 3, 51, 127
2, 84609, Note_on_c, 5, 53, 127
2, 84609, Note_on_c, 2, 74, 127
2, 84791, Note_off_c, 2, 74, 127
2, 84793, Note_on_c, 0, 72, 127
2, 84975, Note_off_c, 0, 72, 127
2, 84977, Note_on_c, 11, 70, 127
2, 85146, Note_off_c, 5, 53, 127
2, 85159, Note_off_c, 11, 70, 127
2, 85162, Note_on_c, 8, 68, 127
2, 85344, Note_off_c, 8, 68, 127
2, 85347, Note_on_c, 11, 58, 127
2, 85347, Note_on_c, 6, 66, 127
2, 85529, Note_off_c, 6, 66, 127
2, 85531, Note_on_c, 5, 65, 127
2, 85713, Note_off_c, 5, 65, 127
2, 85713, Note_off_c, 11, 58, 127
2, 85715, Note_on_c, 3, 51, 127
2, 85715, Note_on_c, 6, 66, 127
2, 85897, Note_off_c, 6, 66, 127
2, 85899, Note_on_c, 11, 70, 127
2, 86081, Note_off_c, 11, 70, 127
2, 86081, Note_off_c, 3, 51, 127
2, 86083, Note_on_c, 12, 59, 127
2, 86083, Note_on_c, 8, 68, 127
2, 86265, Note_off_c, 8, 68, 127
2, 86268, Note_on_c, 12, 71, 127
2, 86449, Note_off_c, 12, 59, 127
2, 86450, Note_off_c, 12, 71, 127
2, 86453, Note_on_c, 1, 49, 127
2, 86453, Note_on_c, 11, 70, 127
2, 86635, Note_off_c, 11, 70, 127
2, 86637, Note_on_c, 8, 68, 127
2, 86819, Note_off_c, 8, 68, 127
2, 86819, Note_off_c, 1, 49, 127
2, 86821, Note_on_c, 11, 58, 127
2, 86821, Note_on_c, 6, 66, 127
2, 87003, Note_off_c, 6, 66, 127
2, 87006, Note_on_c, 5, 65, 127
2, 87187, Note_off_c, 11, 58, 127
2, 87188, Note_off_c, 5, 65, 127
2, 87190, Note_on_c, 12, 47, 127
2, 87190, Note_on_c, 3, 63, 127
2, 87372, Note_off_c, 3, 63, 127
2, 87374, Note_on_c, 6, 66, 127
2, 87556, Note_off_c, 6, 66, 127
2, 87556, Note_off_c, 12, 47, 127
2, 87559, Note_on_c, 8, 56, 127
2, 87559, Note_on_c, 5, 65, 127
2, 87741, Note_off_c, 5, 65, 127
2, 87744, Note_on_c, 8, 68, 127
2, 87925, Note_off_c, 8, 56, 127
2, 87926, Note_off_c, 8, 68, 127
2, 87928, Note_on_c, 11, 46, 127
2, 87928, Note_on_c, 6, 66, 127
2, 88110, Note_off_c, 6, 66, 127
2, 88112, Note_on_c, 5, 65, 127
2, 88294, Note_off_c, 5, 65, 127
2, 88294, Note_off_c, 11, 46, 127
2, 88296, Note_on_c, 11, 58, 127
2, 88296, Note_on_c, 3, 63, 127
2, 88478, Note_off_c, 3, 63, 127
2, 88481, Note_on_c, 2, 62, 127
2, 88643, Note_off_c, 2, 62, 127
2, 88662, Note_off_c, 11, 58, 127
2, 88665, Note_on_c, 12, 59, 127
2, 88665, Note_on_c, 3, 63, 127
2, 88847, Note_off_c, 3, 63, 127
2, 88847, Note_off_c, 12, 59, 127
2, 88850, Note_on_c, 8, 56, 127
2, 88850, Note_on_c, 8, 68, 127
2, 89032, Note_off_c, 8, 68, 127
2, 89032, Note_off_c, 8, 56, 127
2, 89034, Note_on_c, 11, 58, 127
2, 89034, Note_on_c, 7, 67, 127
2, 89216, Note_off_c, 7, 67, 127
2, 89216, Note_off_c, 11, 58, 127
2, 89219, Note_on_c, 1, 61, 127
2, 89219, Note_on_c, 11, 70, 127
2, 89401, Note_off_c, 11, 70, 127
2, 89401, Note_off_c, 1, 61, 127
2, 89403, Note_on_c, 12, 59, 127
2, 89403, Note_on_c, 8, 68, 127
2, 89585, Note_off_c, 8, 68, 127
2, 89585, Note_off_c, 12, 59, 127
2, 89587, Note_on_c, 11, 58, 127
2, 89587, Note_on_c, 6, 66, 127
2, 89769, Note_off_c, 6, 66, 127
2, 89769, Note_off_c, 11, 58, 127
2, 89771, Note_on_c, 8, 56, 127
2, 89771, Note_on_c, 5, 65, 127
2, 89953, Note_off_c, 5, 65, 127
2, 89953, Note_off_c, 8, 56, 127
2, 89957, Note_on_c, 12, 59, 127
2, 89957, Note_on_c, 3, 63, 127
2, 90139, Note_off_c, 3, 63, 127
2, 90139, Note_off_c, 12, 59, 127
2, 90141, Note_on_c, 11, 58, 127
2, 90141, Note_on_c, 2, 62, 127
2, 90323, Note_off_c, 2, 62, 127
2, 90323, Note_off_c, 11, 58, 127
2, 90325, Note_on_c, 5, 53, 127
2, 90325, Note_on_c, 5, 65, 127
2, 90507, Note_off_c, 5, 65, 127
2, 90507, Note_off_c, 5, 53, 127
2, 90509, Note_on_c, 6, 54, 127
2, 90509, Note_on_c, 3, 63, 127
2, 90691, Note_off_c, 3, 63, 127
2, 90691, Note_off_c, 6, 54, 127
2, 90693, Note_on_c, 11, 58, 127
2, 90693, Note_on_c, 6, 66, 127
2, 90875, Note_off_c, 6, 66, 127
2, 90875, Note_off_c, 11, 58, 127
2, 90878, Note_on_c, 8, 56, 127
2, 90878, Note_on_c, 5, 65, 127
2, 91060, Note_off_c, 5, 65, 127
2, 91060, Note_off_c, 8, 56, 127
2, 91063, Note_on_c, 6, 54, 127
2, 91063, Note_on_c, 3, 63, 127
2, 91245, Note_off_c, 3, 63, 127
2, 91245, Note_off_c, 6, 54, 127
2, 91247, Note_on_c, 5, 53, 127
2, 91247, Note_on_c, 2, 62, 127
2, 91429, Note_off_c, 2, 62, 127
2, 91429, Note_off_c, 5, 53, 127
2, 91431, Note_on_c, 8, 56, 127
2, 91431, Note_on_c, 0, 60, 127
2, 91613, Note_off_c, 0, 60, 127
2, 91613, Note_off_c, 8, 56, 127
2, 91616, Note_on_c, 6, 54, 127
2, 91616, Note_on_c, 11, 58, 127
2, 91798, Note_off_c, 6, 54, 127
2, 91800, Note_on_c, 2, 50, 127
2, 91982, Note_off_c, 2, 50, 127
2, 91982, Note_off_c, 11, 58, 127
2, 91984, Note_on_c, 3, 51, 127
2, 91984, Note_on_c, 11, 70, 127
2, 92166, Note_off_c, 3, 51, 127
2, 92168, Note_on_c, 6, 54, 127
2, 92350, Note_off_c, 6, 54, 127
2, 92350, Note_off_c, 11, 70, 127
2, 92354, Note_on_c, 11, 58, 127
2, 92354, Note_on_c, 8, 68, 127
2, 92536, Note_off_c, 8, 68, 127
2, 92538, Note_on_c, 6, 66, 127
2, 92720, Note_off_c, 6, 66, 127
2, 92720, Note_off_c, 11, 58, 127
2, 92722, Note_on_c, 11, 46, 127
2, 92722, Note_on_c, 5, 65, 127
2, 92904, Note_off_c, 5, 65, 127
2, 92906, Note_on_c, 6, 66, 127
2, 93072, Note_off_c, 6, 66, 127
2, 93104, Note_off_c, 11, 46, 127
2, 93106, Note_on_c, 1, 61, 127
2, 93106, Note_on_c, 3, 63, 127
2, 93288, Note_off_c, 3, 63, 127
2, 93288, Note_off_c, 1, 61, 127
2, 93290, Note_on_c, 11, 58, 127
2, 93290, Note_on_c, 7, 67, 127
2, 93380, Note_off_c, 11, 58, 127
2, 93382, Note_on_c, 7, 55, 127
2, 93472, Note_off_c, 7, 55, 127
2, 93472, Note_off_c, 7, 67, 127
2, 93475, Note_on_c, 3, 51, 127
2, 93475, Note_on_c, 5, 65, 127
2, 93657, Note_off_c, 5, 65, 127
2, 93660, Note_on_c, 8, 68, 127
2, 93842, Note_off_c, 8, 68, 127
2, 93844, Note_on_c, 7, 67, 127
2, 94025, Note_off_c, 3, 51, 127
2, 94026, Note_off_c, 7, 67, 127
2, 94028, Note_on_c, 7, 55, 127
2, 94028, Note_on_c, 11, 70, 127
2, 94118, Note_off_c, 7, 55, 127
2, 94120, Note_on_c, 11, 58, 127
2, 94210, Note_off_c, 11, 58, 127
2, 94210, Note_off_c, 11, 70, 127
2, 94213, Note_on_c, 12, 59, 127
2, 94213, Note_on_c, 8, 68, 127
2, 94303, Note_off_c, 12, 59, 127
2, 94305, Note_on_c, 11, 58, 127
2, 94395, Note_off_c, 11, 58, 127
2, 94395, Note_off_c, 8, 68, 127
2, 94397, Note_on_c, 8, 56, 127
2, 94397, Note_on_c, 12, 71, 127
2, 94579, Note_off_c, 12, 71, 127
2, 94579, Note_off_c, 8, 56, 127
2, 94581, Note_on_c, 7, 55, 127
2, 94581, Note_on_c, 11, 70, 127
2, 94763, Note_off_c, 11, 70, 127
2, 94763, Note_off_c, 7, 55, 127
2, 94765, Note_on_c, 11, 58, 127
2, 94765, Note_on_c, 1, 73, 127
2, 94855, Note_off_c, 11, 58, 127
2, 94858, Note_on_c, 1, 61, 127
2, 94947, Note_off_c, 1, 73, 127
2, 94948, Note_off_c, 1, 61, 127
2, 94951, Note_on_c, 4, 64, 127
2, 94951, Note_on_c, 12, 71, 127
2, 95133, Note_off_c, 12, 71, 127
2, 95135, Note_on_c, 11, 70, 127
2, 95317, Note_off_c, 11, 70, 127
2, 95319, Note_on_c, 8, 68, 127
2, 95501, Note_off_c, 8, 68, 127
2, 95501, Note_off_c, 4, 64, 127
2, 95503, Note_on_c, 11, 58, 127
2, 95503, Note_on_c, 7, 67, 127
2, 95593, Note_off_c, 11, 58, 127
2, 95595, Note_on_c, 8, 56, 127
2, 95685, Note_off_c, 8, 56, 127
2, 95685, Note_off_c, 7, 67, 127
2, 95687, Note_on_c, 11, 58, 127
2, 95687, Note_on_c, 5, 65, 127
2, 95777, Note_off_c, 11, 58, 127
2, 95780, Note_on_c, 12, 59, 127
2, 95869, Note_off_c, 5, 65, 127
2, 95870, Note_off_c, 12, 59, 127
2, 95872, Note_on_c, 1, 61, 127
2, 95872, Note_on_c, 3, 63, 127
2, 96054, Note_off_c, 3, 63, 127
2, 96054, Note_off_c, 1, 61, 127
2, 96071, Note_on_c, 5, 53, 127
2, 96071, Note_on_c, 3, 75, 127
2, 96253, Note_off_c, 3, 75, 127
2, 96253, Note_off_c, 5, 53, 127
2, 96257, Note_on_c, 10, 57, 127
2, 96257, Note_on_c, 0, 72, 127
2, 96347, Note_off_c, 0, 72, 127
2, 96349, Note_on_c, 10, 69, 127
2, 96439, Note_off_c, 10, 69, 127
2, 96439, Note_off_c, 10, 57, 127
2, 96441, Note_on_c, 7, 55, 127
2, 96441, Note_on_c, 5, 65, 127
2, 96623, Note_off_c, 7, 55, 127
2, 96625, Note_on_c, 11, 58, 127
2, 96807, Note_off_c, 11, 58, 127
2, 96809, Note_on_c, 10, 57, 127
2, 96991, Note_off_c, 10, 57, 127
2, 96991, Note_off_c, 5, 65, 127
2, 96994, Note_on_c, 0, 60, 127
2, 96994, Note_on_c, 10, 69, 127
2, 97084, Note_off_c, 10, 69, 127
2, 97086, Note_on_c, 0, 72, 127
2, 97176, Note_off_c, 0, 72, 127
2, 97176, Note_off_c, 0, 60, 127
2, 97178, Note_on_c, 11, 58, 127
2, 97178, Note_on_c, 1, 73, 127
2, 97268, Note_off_c, 1, 73, 127
2, 97270, Note_on_c, 0, 72, 127
2, 97360, Note_off_c, 0, 72, 127
2, 97360, Note_off_c, 11, 58, 127
2, 97363, Note_on_c, 1, 61, 127
2, 97363, Note_on_c, 11, 70, 127
2, 97545, Note_off_c, 11, 70, 127
2, 97545, Note_off_c, 1, 61, 127
2, 97547, Note_on_c, 0, 60, 127
2, 97547, Note_on_c, 10, 69, 127
2, 97729, Note_off_c, 10, 69, 127
2, 97729, Note_off_c, 0, 60, 127
2, 97732, Note_on_c, 3, 63, 127
2, 97732, Note_on_c, 0, 72, 127
2, 97822, Note_off_c, 0, 72, 127
2, 97824, Note_on_c, 3, 75, 127
2, 97914, Note_off_c, 3, 75, 127
2, 97914, Note_off_c, 3, 63, 127
2, 97916, Note_on_c, 1, 61, 127
2, 97916, Note_on_c, 6, 78, 127
2, 98098, Note_off_c, 1, 61, 127
2, 98100, Note_on_c, 0, 60, 127
2, 98282, Note_off_c, 0, 60, 127
2, 98284, Note_on_c, 11, 58, 127
2, 98466, Note_off_c, 11, 58, 127
2, 98466, Note_off_c, 6, 78, 127
2, 98469, Note_on_c, 10, 57, 127
2, 98469, Note_on_c, 0, 72, 127
2, 98559, Note_off_c, 0, 72, 127
2, 98562, Note_on_c, 11, 70, 127
2, 98651, Note_off_c, 10, 57, 127
2, 98652, Note_off_c, 11, 70, 127
2, 98654, Note_on_c, 7, 55, 127
2, 98654, Note_on_c, 0, 72, 127
2, 98744, Note_off_c, 0, 72, 127
2, 98746, Note_on_c, 1, 73, 127
2, 98836, Note_off_c, 1, 73, 127
2, 98836, Note_off_c, 7, 55, 127
2, 98838, Note_on_c, 5, 53, 127
2, 98838, Note_on_c, 3, 75, 127
2, 99004, Note_off_c, 3, 75, 127
2, 99020, Note_off_c, 5, 53, 127
2, 99038, Note_on_c, 8, 56, 127
2, 99038, Note_on_c, 2, 74, 127
2, 99220, Note_off_c, 2, 74, 127
2, 99220, Note_off_c, 8, 56, 127
2, 99222, Note_on_c, 5, 53, 127
2, 99222, Note_on_c, 5, 77, 127
2, 99312, Note_off_c, 5, 53, 127
2, 99314, Note_on_c, 2, 50, 127
2, 99404, Note_off_c, 2, 50, 127
2, 99404, Note_off_c, 5, 77, 127
2, 99406, Note_on_c, 11, 46, 127
2, 99406, Note_on_c, 3, 75, 127
2, 99588, Note_off_c, 3, 75, 127
2, 99591, Note_on_c, 6, 78, 127
2, 99773, Note_off_c, 6, 78, 127
2, 99775, Note_on_c, 5, 77, 127
2, 99956, Note_off_c, 11, 46, 127
2, 99957, Note_off_c, 5, 77, 127
2, 99960, Note_on_c, 2, 50, 127
2, 99960, Note_on_c, 8, 80, 127
2, 100050, Note_off_c, 2, 50, 127
2, 100052, Note_on_c, 5, 53, 127
2, 100142, Note_off_c, 5, 53, 127
2, 100142, Note_off_c, 8, 80, 127
2, 100144, Note_on_c, 11, 58, 127
2, 100144, Note_on_c, 6, 78, 127
2, 100326, Note_off_c, 6, 78, 127
2, 100329, Note_on_c, 11, 82, 127
2, 100511, Note_off_c, 11, 82, 127
2, 100513, Note_on_c, 8, 80, 127
2, 100694, Note_off_c, 11, 58, 127
2, 100695, Note_off_c, 8, 80, 127
2, 100697, Note_on_c, 8, 56, 127
2, 100697, Note_on_c, 12, 83, 127
2, 100787, Note_off_c, 8, 56, 127
2, 100789, Note_on_c, 5, 53, 127
2, 100879, Note_off_c, 5, 53, 127
2, 100879, Note_off_c, 12, 83, 127
2, 100881, Note_on_c, 2, 50, 127
2, 100881, Note_on_c, 11, 82, 127
2, 101063, Note_off_c, 11, 82, 127
2, 101063, Note_off_c, 2, 50, 127
2, 101065, Note_on_c, 12, 59, 127
2, 101065, Note_on_c, 8, 80, 127
2, 101247, Note_off_c, 8, 80, 127
2, 101247, Note_off_c, 12, 59, 127
2, 101251, Note_on_c, 11, 58, 127
2, 101251, Note_on_c, 6, 78, 127
2, 101433, Note_off_c, 6, 78, 127
2, 101433, Note_off_c, 11, 58, 127
2, 101435, Note_on_c, 8, 56, 127
2, 101435, Note_on_c, 5, 77, 127
2, 101525, Note_off_c, 8, 56, 127
2, 101527, Note_on_c, 6, 54, 127
2, 101617, Note_off_c, 6, 54, 127
2, 101617, Note_off_c, 5, 77, 127
2, 101619, Note_on_c, 5, 53, 127
2, 101619, Note_on_c, 3, 75, 127
2, 101709, Note_off_c, 5, 53, 127
2, 101711, Note_on_c, 6, 54, 127
2, 101801, Note_off_c, 6, 54, 127
2, 101801, Note_off_c, 3, 75, 127
2, 101803, Note_on_c, 8, 56, 127
2, 101803, Note_on_c, 2, 74, 127
2, 101989, Note_off_c, 2, 74, 127
2, 101989, Note_off_c, 8, 56, 127
2, 102003, Note_on_c, 6, 54, 127
2, 102003, Note_on_c, 3, 75, 127
2, 102189, Note_off_c, 3, 75, 127
2, 102211, Note_on_c, 5, 77, 127
2, 102303, Note_off_c, 5, 77, 127
2, 102305, Note_on_c, 6, 78, 127
2, 102377, Note_off_c, 6, 54, 127
2, 102397, Note_off_c, 6, 78, 127
2, 102399, Note_on_c, 8, 80, 127
2, 102399, Note_on_c, 12, 47, 127
2, 102491, Note_off_c, 8, 80, 127
2, 102493, Note_on_c, 6, 78, 127
2, 102585, Note_off_c, 6, 78, 127
2, 102587, Note_on_c, 5, 77, 127
2, 102773, Note_off_c, 5, 77, 127
2, 102773, Note_off_c, 12, 47, 127
2, 102775, Note_on_c, 6, 78, 127
2, 102775, Note_on_c, 11, 46, 127
2, 102961, Note_off_c, 6, 78, 127
2, 102964, Note_on_c, 5, 77, 127
2, 103056, Note_off_c, 5, 77, 127
2, 103058, Note_on_c, 3, 75, 127
2, 103149, Note_off_c, 11, 46, 127
2, 103150, Note_off_c, 3, 75, 127
2, 103152, Note_on_c, 2, 74, 127
2, 103152, Note_on_c, 8, 44, 127
2, 103244, Note_off_c, 2, 74, 127
2, 103246, Note_on_c, 3, 75, 127
2, 103338, Note_off_c, 3, 75, 127
2, 103340, Note_on_c, 5, 77, 127
2, 103528, Note_off_c, 5, 77, 127
2, 103528, Note_off_c, 8, 44, 127
2, 103530, Note_on_c, 11, 70, 127
2, 103530, Note_on_c, 6, 42, 127
2, 103626, Note_on_c, 3, 75, 127
2, 103627, Note_off_c, 11, 70, 127
2, 103720, Note_off_c, 3, 75, 127
2, 103722, Note_on_c, 1, 73, 127
2, 103816, Note_off_c, 1, 73, 127
2, 103818, Note_on_c, 12, 71, 127
2, 103912, Note_off_c, 12, 71, 127
2, 103912, Note_off_c, 6, 42, 127
2, 103914, Note_on_c, 11, 70, 127
2, 103914, Note_on_c, 6, 54, 127
2, 104102, Note_off_c, 6, 54, 127
2, 104102, Note_off_c, 11, 70, 127
2, 104105, Note_on_c, 8, 68, 127
2, 104105, Note_on_c, 8, 56, 127
2, 104300, Note_off_c, 8, 56, 127
2, 104300, Note_off_c, 8, 68, 127
2, 104302, Note_on_c, 6, 66, 127
2, 104302, Note_on_c, 11, 58, 127
2, 104497, Note_off_c, 6, 66, 127
2, 104500, Note_on_c, 5, 65, 127
2, 104596, Note_off_c, 5, 65, 127
2, 104598, Note_on_c, 6, 66, 127
2, 104693, Note_off_c, 11, 58, 127
2, 104694, Note_off_c, 6, 66, 127
2, 104696, Note_on_c, 8, 68, 127
2, 104696, Note_on_c, 11, 46, 127
2, 104792, Note_off_c, 8, 68, 127
2, 104794, Note_on_c, 6, 66, 127
2, 104890, Note_off_c, 6, 66, 127
2, 104892, Note_on_c, 5, 65, 127
2, 105108, Note_off_c, 5, 65, 127
2, 105108, Note_off_c, 11, 46, 127
2, 105111, Note_on_c, 3, 63, 127
2, 105111, Note_on_c, 3, 39, 127
2, 105327, Note_off_c, 3, 63, 127
2, 105330, Note_on_c, 6, 66, 127
2, 105546, Note_off_c, 6, 66, 127
2, 105549, Note_on_c, 11, 70, 127
2, 105765, Note_off_c, 11, 70, 127
2, 105768, Note_on_c, 2, 74, 127
2, 105984, Note_off_c, 2, 74, 127
2, 105991, Note_on_c, 2, 74, 127
2, 106710, Note_on_c, 3, 75, 127
2, 106711, Note_off_c, 2, 74, 127
2, 108711, Note_off_c, 3, 39, 127
2, 108810, Note_off_c, 3, 75, 127
2, 109873, Note_on_c, 3, 63, 127
2, 110239, Note_off_c, 3, 63, 127
2, 110243, Note_on_c, 3, 63, 127
2, 110609, Note_off_c, 3, 63, 127
2, 110611, Note_on_c, 3, 63, 127
2, 110977, Note_off_c, 3, 63, 127
2, 110980, Note_on_c, 2, 62, 127
2, 111346, Note_off_c, 2, 62, 127
2, 111348, Note_on_c, 3, 63, 127
2, 111714, Note_off_c, 3, 63, 127
2, 111718, Note_on_c, 5, 65, 127
2, 112735, Note_off_c, 5, 65, 127
2, 112824, Note_on_c, 3, 63, 127
2, 113190, Note_off_c, 3, 63, 127
2, 113192, Note_on_c, 8, 68, 127
2, 114257, Note_off_c, 8, 68, 127
2, 114299, Note_on_c, 6, 66, 127
2, 114481, Note_off_c, 6, 66, 127
2, 114483, Note_on_c, 5, 65, 127
2, 114665, Note_off_c, 5, 65, 127
2, 114667, Note_on_c, 11, 70, 127
2, 115033, Note_off_c, 11, 70, 127
2, 115037, Note_on_c, 8, 68, 127
2, 115403, Note_off_c, 8, 68, 127
2, 115405, Note_on_c, 6, 66, 127
2, 115771, Note_off_c, 6, 66, 127
2, 115774, Note_on_c, 11, 58, 127
2, 115774, Note_on_c, 5, 65, 127
2, 116140, Note_off_c, 5, 65, 127
2, 116140, Note_off_c, 11, 58, 127
2, 116143, Note_on_c, 11, 58, 127
2, 116143, Note_on_c, 3, 63, 127
2, 116509, Note_off_c, 3, 63, 127
2, 116509, Note_off_c, 11, 58, 127
2, 116512, Note_on_c, 11, 58, 127
2, 116512, Note_on_c, 1, 61, 127
2, 116694, Note_off_c, 1, 61, 127
2, 116696, Note_on_c, 3, 63, 127
2, 116878, Note_off_c, 3, 63, 127
2, 116878, Note_off_c, 11, 58, 127
2, 116880, Note_on_c, 10, 57, 127
2, 116880, Note_on_c, 5, 65, 127
2, 117246, Note_off_c, 10, 57, 127
2, 117249, Note_on_c, 11, 58, 127
2, 117615, Note_off_c, 11, 58, 127
2, 117618, Note_on_c, 0, 60, 127
2, 117916, Note_off_c, 5, 65, 127
2, 117987, Note_on_c, 3, 63, 127
2, 118169, Note_off_c, 3, 63, 127
2, 118171, Note_on_c, 5, 65, 127
2, 118353, Note_off_c, 5, 65, 127
2, 118355, Note_on_c, 6, 66, 127
2, 118539, Note_off_c, 0, 60, 127
2, 118725, Note_on_c, 11, 58, 127
2, 119091, Note_off_c, 11, 58, 127
2, 119093, Note_on_c, 3, 63, 127
2, 119411, Note_off_c, 6, 66, 127
2, 119462, Note_on_c, 5, 65, 127
2, 119644, Note_off_c, 5, 65, 127
2, 119647, Note_on_c, 7, 67, 127
2, 119829, Note_off_c, 7, 67, 127
2, 119831, Note_on_c, 8, 68, 127
2, 120014, Note_off_c, 3, 63, 127
2, 120200, Note_on_c, 1, 61, 127
2, 120382, Note_off_c, 1, 61, 127
2, 120384, Note_on_c, 0, 60, 127
2, 120566, Note_off_c, 0, 60, 127
2, 120568, Note_on_c, 5, 65, 127
2, 120916, Note_off_c, 8, 68, 127
2, 120934, Note_off_c, 5, 65, 127
2, 120938, Note_on_c, 3, 63, 127
2, 120938, Note_on_c, 7, 67, 127
2, 121120, Note_off_c, 7, 67, 127
2, 121122, Note_on_c, 10, 69, 127
2, 121304, Note_off_c, 10, 69, 127
2, 121304, Note_off_c, 3, 63, 127
2, 121306, Note_on_c, 1, 61, 127
2, 121306, Note_on_c, 11, 70, 127
2, 121672, Note_off_c, 11, 70, 127
2, 121672, Note_off_c, 1, 61, 127
2, 121674, Note_on_c, 0, 60, 127
2, 121674, Note_on_c, 0, 72, 127
2, 122040, Note_off_c, 0, 72, 127
2, 122040, Note_off_c, 0, 60, 127
2, 122044, Note_on_c, 11, 58, 127
2, 122044, Note_on_c, 1, 73, 127
2, 122410, Note_off_c, 11, 58, 127
2, 122412, Note_on_c, 11, 70, 127
2, 122778, Note_off_c, 11, 70, 127
2, 122781, Note_on_c, 3, 63, 127
2, 123147, Note_off_c, 1, 73, 127
2, 123149, Note_on_c, 7, 67, 127
2, 123515, Note_off_c, 7, 67, 127
2, 123519, Note_on_c, 8, 68, 127
2, 123884, Note_off_c, 3, 63, 127
2, 123885, Note_off_c, 8, 68, 127
2, 123887, Note_on_c, 1, 61, 127
2, 123887, Note_on_c, 11, 70, 127
2, 124253, Note_off_c, 11, 70, 127
2, 124253, Note_off_c, 1, 61, 127
2, 124256, Note_on_c, 12, 59, 127
2, 124256, Note_on_c, 3, 63, 127
2, 124622, Note_off_c, 3, 63, 127
2, 124625, Note_on_c, 8, 68, 127
2, 124991, Note_off_c, 12, 59, 127
2, 124994, Note_on_c, 11, 58, 127
2, 125360, Note_off_c, 8, 68, 127
2, 125362, Note_on_c, 7, 67, 127
2, 125728, Note_off_c, 7, 67, 127
2, 125729, Note_off_c, 11, 58, 127
2, 125732, Note_on_c, 8, 56, 127
2, 125732, Note_on_c, 12, 71, 127
2, 126098, Note_off_c, 8, 56, 127
2, 126100, Note_on_c, 8, 68, 127
2, 126466, Note_off_c, 8, 68, 127
2, 126469, Note_on_c, 2, 62, 127
2, 126835, Note_off_c, 12, 71, 127
2, 126838, Note_on_c, 11, 70, 127
2, 127020, Note_off_c, 11, 70, 127
2, 127022, Note_on_c, 8, 68, 127
2, 127204, Note_off_c, 8, 68, 127
2, 127204, Note_off_c, 2, 62, 127
2, 127207, Note_on_c, 3, 63, 127
2, 127207, Note_on_c, 6, 66, 127
2, 127571, Note_off_c, 3, 63, 127
2, 127573, Note_off_c, 6, 66, 127
2, 127575, Note_on_c, 3, 51, 127
2, 127575, Note_on_c, 5, 53, 127
2, 127575, Note_on_c, 8, 68, 127
2, 127941, Note_off_c, 8, 68, 127
2, 127941, Note_off_c, 5, 53, 127
2, 127941, Note_off_c, 3, 51, 127
2, 127945, Note_on_c, 3, 51, 127
2, 127945, Note_on_c, 6, 54, 127
2, 127945, Note_on_c, 11, 70, 127
2, 128311, Note_off_c, 11, 70, 127
2, 128311, Note_off_c, 6, 54, 127
2, 128311, Note_off_c, 3, 51, 127
2, 128313, Note_on_c, 3, 51, 127
2, 128313, Note_on_c, 8, 56, 127
2, 128313, Note_on_c, 12, 71, 127
2, 128679, Note_off_c, 12, 71, 127
2, 128679, Note_off_c, 8, 56, 127
2, 128679, Note_off_c, 3, 51, 127
2, 128682, Note_on_c, 2, 50, 127
2, 128682, Note_on_c, 11, 58, 127
2, 128682, Note_on_c, 5, 65, 127
2, 128864, Note_off_c, 5, 65, 127
2, 128866, Note_on_c, 6, 66, 127
2, 129048, Note_off_c, 6, 66, 127
2, 129048, Note_off_c, 2, 50, 127
2, 129050, Note_on_c, 3, 51, 127
2, 129050, Note_on_c, 5, 65, 127
2, 129232, Note_off_c, 5, 65, 127
2, 129235, Note_on_c, 3, 63, 127
2, 129416, Note_off_c, 3, 51, 127
2, 129417, Note_off_c, 3, 63, 127
2, 129420, Note_on_c, 5, 53, 127
2, 129420, Note_on_c, 2, 62, 127
2, 129602, Note_off_c, 2, 62, 127
2, 129604, Note_on_c, 3, 63, 127
2, 129785, Note_off_c, 11, 58, 127
2, 129786, Note_off_c, 3, 63, 127
2, 129788, Note_on_c, 8, 56, 127
2, 129788, Note_on_c, 5, 65, 127
2, 129970, Note_off_c, 5, 65, 127
2, 129970, Note_off_c, 8, 56, 127
2, 129972, Note_on_c, 11, 58, 127
2, 129972, Note_on_c, 6, 66, 127
2, 130154, Note_off_c, 6, 66, 127
2, 130154, Note_off_c, 11, 58, 127
2, 130157, Note_on_c, 12, 59, 127
2, 130157, Note_on_c, 8, 68, 127
2, 130339, Note_off_c, 8, 68, 127
2, 130341, Note_off_c, 5, 53, 127
2, 130342, Note_on_c, 11, 70, 127
2, 130524, Note_off_c, 11, 70, 127
2, 130526, Note_on_c, 3, 51, 127
2, 130526, Note_on_c, 8, 68, 127
2, 130708, Note_off_c, 8, 68, 127
2, 130710, Note_on_c, 6, 66, 127
2, 130892, Note_off_c, 6, 66, 127
2, 130892, Note_off_c, 3, 51, 127
2, 130894, Note_on_c, 8, 56, 127
2, 130894, Note_on_c, 5, 65, 127
2, 131260, Note_off_c, 12, 59, 127
2, 131263, Note_on_c, 11, 58, 127
2, 131445, Note_off_c, 11, 58, 127
2, 131448, Note_on_c, 0, 60, 127
2, 131630, Note_off_c, 0, 60, 127
2, 131632, Note_on_c, 1, 61, 127
2, 131815, Note_off_c, 8, 56, 127
2, 131997, Note_off_c, 5, 65, 127
2, 132001, Note_on_c, 6, 54, 127
2, 132001, Note_on_c, 6, 66, 127
2, 132183, Note_off_c, 6, 66, 127
2, 132183, Note_off_c, 6, 54, 127
2, 132185, Note_on_c, 5, 53, 127
2, 132185, Note_on_c, 8, 68, 127
2, 132367, Note_off_c, 8, 68, 127
2, 132367, Note_off_c, 5, 53, 127
2, 132369, Note_on_c, 11, 58, 127
2, 132369, Note_on_c, 6, 66, 127
2, 132735, Note_off_c, 6, 66, 127
2, 132735, Note_off_c, 11, 58, 127
2, 132735, Note_off_c, 1, 61, 127
2, 132739, Note_on_c, 8, 56, 127
2, 132739, Note_on_c, 0, 60, 127
2, 132739, Note_on_c, 5, 65, 127
2, 132921, Note_off_c, 0, 60, 127
2, 132923, Note_on_c, 2, 62, 127
2, 133105, Note_off_c, 2, 62, 127
2, 133105, Note_off_c, 5, 65, 127
2, 133105, Note_off_c, 8, 56, 127
2, 133107, Note_on_c, 6, 54, 127
2, 133107, Note_on_c, 3, 63, 127
2, 133473, Note_off_c, 3, 63, 127
2, 133473, Note_off_c, 6, 54, 127
2, 133476, Note_on_c, 5, 53, 127
2, 133476, Note_on_c, 8, 56, 127
2, 133476, Note_on_c, 2, 62, 127
2, 133476, Note_on_c, 11, 70, 127
2, 133842, Note_off_c, 11, 70, 127
2, 133842, Note_off_c, 2, 62, 127
2, 133842, Note_off_c, 8, 56, 127
2, 133842, Note_off_c, 5, 53, 127
2, 133845, Note_on_c, 3, 51, 127
2, 133845, Note_on_c, 6, 54, 127
2, 133845, Note_on_c, 3, 63, 127
2, 133845, Note_on_c, 11, 70, 127
2, 134027, Note_off_c, 3, 63, 127
2, 134027, Note_off_c, 6, 54, 127
2, 134030, Note_on_c, 8, 56, 127
2, 134030, Note_on_c, 5, 65, 127
2, 134211, Note_off_c, 11, 70, 127
2, 134211, Note_off_c, 3, 51, 127
2, 134212, Note_off_c, 5, 65, 127
2, 134212, Note_off_c, 8, 56, 127
2, 134214, Note_on_c, 1, 49, 127
2, 134214, Note_on_c, 11, 58, 127
2, 134214, Note_on_c, 6, 66, 127
2, 134214, Note_on_c, 11, 70, 127
2, 134396, Note_off_c, 11, 58, 127
2, 134396, Note_off_c, 1, 49, 127
2, 134398, Note_on_c, 3, 51, 127
2, 134398, Note_on_c, 0, 60, 127
2, 134580, Note_off_c, 0, 60, 127
2, 134580, Note_off_c, 3, 51, 127
2, 134580, Note_off_c, 11, 70, 127
2, 134580, Note_off_c, 6, 66, 127
2, 134582, Note_on_c, 5, 53, 127
2, 134582, Note_on_c, 1, 61, 127
2, 134582, Note_on_c, 5, 65, 127
2, 134582, Note_on_c, 10, 69, 127
2, 134948, Note_off_c, 10, 69, 127
2, 134948, Note_off_c, 1, 61, 127
2, 134951, Note_on_c, 0, 60, 127
2, 134951, Note_on_c, 11, 70, 127
2, 135133, Note_off_c, 0, 60, 127
2, 135136, Note_on_c, 11, 58, 127
2, 135317, Note_off_c, 11, 70, 127
2, 135318, Note_off_c, 11, 58, 127
2, 135320, Note_on_c, 10, 57, 127
2, 135320, Note_on_c, 0, 72, 127
2, 135685, Note_off_c, 5, 65, 127
2, 135685, Note_off_c, 5, 53, 127
2, 135689, Note_on_c, 3, 51, 127
2, 135689, Note_on_c, 6, 66, 127
2, 135871, Note_off_c, 6, 66, 127
2, 135871, Note_off_c, 3, 51, 127
2, 135873, Note_on_c, 5, 53, 127
2, 135873, Note_on_c, 5, 65, 127
2, 136055, Note_off_c, 5, 65, 127
2, 136055, Note_off_c, 5, 53, 127
2, 136057, Note_on_c, 6, 54, 127
2, 136057, Note_on_c, 3, 63, 127
2, 136241, Note_off_c, 0, 72, 127
2, 136423, Note_off_c, 3, 63, 127
2, 136423, Note_off_c, 10, 57, 127
2, 136427, Note_on_c, 11, 58, 127
2, 136427, Note_on_c, 1, 61, 127
2, 136427, Note_on_c, 11, 70, 127
2, 136609, Note_off_c, 11, 58, 127
2, 136611, Note_on_c, 10, 57, 127
2, 136791, Note_off_c, 1, 61, 127
2, 136793, Note_off_c, 10, 57, 127
2, 136793, Note_off_c, 11, 70, 127
2, 136795, Note_on_c, 11, 58, 127
2, 136795, Note_on_c, 3, 75, 127
2, 137159, Note_off_c, 11, 58, 127
2, 137160, Note_off_c, 6, 54, 127
2, 137164, Note_on_c, 5, 53, 127
2, 137164, Note_on_c, 1, 73, 127
2, 137346, Note_off_c, 5, 53, 127
2, 137348, Note_on_c, 7, 55, 127
2, 137530, Note_off_c, 7, 55, 127
2, 137530, Note_off_c, 1, 73, 127
2, 137533, Note_on_c, 8, 56, 127
2, 137533, Note_on_c, 0, 72, 127
2, 137716, Note_off_c, 3, 75, 127
2, 137899, Note_off_c, 0, 72, 127
2, 137902, Note_on_c, 3, 63, 127
2, 137902, Note_on_c, 11, 70, 127
2, 137902, Note_on_c, 1, 73, 127
2, 138084, Note_off_c, 1, 73, 127
2, 138086, Note_on_c, 0, 72, 127
2, 138268, Note_off_c, 0, 72, 127
2, 138268, Note_off_c, 11, 70, 127
2, 138268, Note_off_c, 3, 63, 127
2, 138270, Note_on_c, 0, 60, 127
2, 138270, Note_on_c, 8, 68, 127
2, 138270, Note_on_c, 5, 77, 127
2, 138452, Note_off_c, 8, 68, 127
2, 138454, Note_on_c, 11, 70, 127
2, 138636, Note_off_c, 11, 70, 127
2, 138636, Note_off_c, 5, 77, 127
2, 138636, Note_off_c, 0, 60, 127
2, 138636, Note_off_c, 8, 56, 127
2, 138640, Note_on_c, 7, 55, 127
2, 138640, Note_on_c, 5, 65, 127
2, 138640, Note_on_c, 0, 72, 127
2, 138640, Note_on_c, 3, 75, 127
2, 138822, Note_off_c, 7, 55, 127
2, 138824, Note_on_c, 10, 57, 127
2, 139006, Note_off_c, 10, 57, 127
2, 139006, Note_off_c, 3, 75, 127
2, 139006, Note_off_c, 5, 65, 127
2, 139008, Note_on_c, 11, 58, 127
2, 139008, Note_on_c, 5, 65, 127
2, 139008, Note_on_c, 1, 73, 127
2, 139374, Note_off_c, 11, 58, 127
2, 139375, Note_off_c, 0, 72, 127
2, 139377, Note_on_c, 0, 60, 127
2, 139377, Note_on_c, 11, 70, 127
2, 139559, Note_off_c, 11, 70, 127
2, 139561, Note_on_c, 10, 69, 127
2, 139737, Note_off_c, 5, 65, 127
2, 139743, Note_off_c, 10, 69, 127
2, 139743, Note_off_c, 0, 60, 127
2, 139746, Note_on_c, 1, 61, 127
2, 139746, Note_on_c, 11, 70, 127
2, 140111, Note_off_c, 1, 73, 127
2, 140112, Note_off_c, 11, 70, 127
2, 140114, Note_on_c, 8, 68, 127
2, 140114, Note_on_c, 3, 75, 127
2, 140296, Note_off_c, 3, 75, 127
2, 140299, Note_on_c, 4, 76, 127
2, 140480, Note_off_c, 8, 68, 127
2, 140481, Note_off_c, 4, 76, 127
2, 140483, Note_on_c, 7, 67, 127
2, 140483, Note_on_c, 11, 70, 127
2, 140849, Note_off_c, 11, 70, 127
2, 140849, Note_off_c, 7, 67, 127
2, 140849, Note_off_c, 1, 61, 127
2, 140851, Note_on_c, 7, 55, 127
2, 140851, Note_on_c, 1, 61, 127
2, 140851, Note_on_c, 11, 70, 127
2, 140851, Note_on_c, 3, 75, 127
2, 141217, Note_off_c, 11, 70, 127
2, 141217, Note_off_c, 1, 61, 127
2, 141217, Note_off_c, 7, 55, 127
2, 141221, Note_on_c, 8, 56, 127
2, 141221, Note_on_c, 12, 59, 127
2, 141221, Note_on_c, 3, 63, 127
2, 141403, Note_off_c, 3, 63, 127
2, 141405, Note_on_c, 5, 65, 127
2, 141586, Note_off_c, 3, 75, 127
2, 141587, Note_off_c, 5, 65, 127
2, 141587, Note_off_c, 12, 59, 127
2, 141587, Note_off_c, 8, 56, 127
2, 141589, Note_on_c, 11, 58, 127
2, 141589, Note_on_c, 1, 61, 127
2, 141589, Note_on_c, 7, 67, 127
2, 141589, Note_on_c, 1, 73, 127
2, 141771, Note_off_c, 7, 67, 127
2, 141774, Note_on_c, 8, 68, 127
2, 141955, Note_off_c, 1, 61, 127
2, 141955, Note_off_c, 11, 58, 127
2, 141956, Note_off_c, 8, 68, 127
2, 141958, Note_on_c, 3, 51, 127
2, 141958, Note_on_c, 7, 55, 127
2, 141958, Note_on_c, 11, 70, 127
2, 142324, Note_off_c, 11, 70, 127
2, 142324, Note_off_c, 7, 55, 127
2, 142324, Note_off_c, 3, 51, 127
2, 142324, Note_off_c, 1, 73, 127
2, 142327, Note_on_c, 8, 56, 127
2, 142327, Note_on_c, 4, 64, 127
2, 142327, Note_on_c, 8, 68, 127
2, 142327, Note_on_c, 12, 71, 127
2, 142693, Note_off_c, 12, 71, 127
2, 142693, Note_off_c, 8, 68, 127
2, 142696, Note_on_c, 11, 70, 127
2, 143062, Note_off_c, 4, 64, 127
2, 143062, Note_off_c, 8, 56, 127
2, 143064, Note_on_c, 7, 55, 127
2, 143064, Note_on_c, 3, 63, 127
2, 143246, Note_off_c, 3, 63, 127
2, 143249, Note_on_c, 2, 62, 127
2, 143430, Note_off_c, 7, 55, 127
2, 143431, Note_off_c, 2, 62, 127
2, 143434, Note_on_c, 12, 59, 127
2, 143434, Note_on_c, 3, 63, 127
2, 143799, Note_off_c, 11, 70, 127
2, 143802, Note_on_c, 8, 68, 127
2, 144168, Note_off_c, 8, 68, 127
2, 144171, Note_on_c, 8, 80, 127
2, 144537, Note_off_c, 3, 63, 127
2, 144537, Note_off_c, 12, 59, 127
2, 144540, Note_on_c, 11, 58, 127
2, 144540, Note_on_c, 12, 71, 127
2, 144722, Note_off_c, 11, 58, 127
2, 144724, Note_on_c, 8, 56, 127
2, 144906, Note_off_c, 8, 56, 127
2, 144906, Note_off_c, 12, 71, 127
2, 144909, Note_on_c, 3, 63, 127
2, 144909, Note_on_c, 11, 70, 127
2, 145274, Note_off_c, 8, 80, 127
2, 145275, Note_off_c, 3, 63, 127
2, 145277, Note_on_c, 1, 61, 127
2, 145277, Note_on_c, 6, 78, 127
2, 145643, Note_off_c, 1, 61, 127
2, 145644, Note_off_c, 11, 70, 127
2, 145647, Note_on_c, 12, 59, 127
2, 145647, Note_on_c, 8, 68, 127
2, 146012, Note_off_c, 6, 78, 127
2, 146015, Note_on_c, 5, 77, 127
2, 146197, Note_off_c, 5, 77, 127
2, 146199, Note_on_c, 3, 75, 127
2, 146381, Note_off_c, 3, 75, 127
2, 146382, Note_off_c, 12, 59, 127
2, 146384, Note_on_c, 11, 58, 127
2, 146384, Note_on_c, 2, 74, 127
2, 146750, Note_off_c, 2, 74, 127
2, 146750, Note_off_c, 8, 68, 127
2, 146752, Note_on_c, 2, 62, 127
2, 146752, Note_on_c, 5, 77, 127
2, 147118, Note_off_c, 5, 77, 127
2, 147118, Note_off_c, 2, 62, 127
2, 147122, Note_on_c, 3, 63, 127
2, 147122, Note_on_c, 6, 78, 127
2, 147487, Note_off_c, 11, 58, 127
2, 147488, Note_off_c, 6, 78, 127
2, 147488, Note_off_c, 3, 63, 127
2, 147490, Note_on_c, 8, 56, 127
2, 147490, Note_on_c, 5, 65, 127
2, 147490, Note_on_c, 2, 74, 127
2, 147856, Note_off_c, 2, 74, 127
2, 147856, Note_off_c, 5, 65, 127
2, 147856, Note_off_c, 8, 56, 127
2, 147859, Note_on_c, 6, 54, 127
2, 147859, Note_on_c, 11, 58, 127
2, 147859, Note_on_c, 3, 75, 127
2, 148041, Note_off_c, 3, 75, 127
2, 148044, Note_on_c, 1, 73, 127
2, 148225, Note_off_c, 11, 58, 127
2, 148226, Note_off_c, 1, 73, 127
2, 148228, Note_on_c, 3, 63, 127
2, 148228, Note_on_c, 12, 71, 127
2, 148410, Note_off_c, 12, 71, 127
2, 148412, Note_on_c, 11, 70, 127
2, 148594, Note_off_c, 11, 70, 127
2, 148594, Note_off_c, 6, 54, 127
2, 148597, Note_on_c, 5, 53, 127
2, 148597, Note_on_c, 8, 68, 127
2, 148957, Note_off_c, 3, 63, 127
2, 148963, Note_off_c, 8, 68, 127
2, 148965, Note_on_c, 2, 62, 127
2, 148965, Note_on_c, 11, 70, 127
2, 149331, Note_off_c, 11, 70, 127
2, 149331, Note_off_c, 2, 62, 127
2, 149332, Note_off_c, 5, 53, 127
2, 149334, Note_on_c, 3, 51, 127
2, 149334, Note_on_c, 6, 66, 127
2, 149334, Note_on_c, 12, 71, 127
2, 149700, Note_off_c, 12, 71, 127
2, 149700, Note_off_c, 3, 51, 127
2, 149703, Note_on_c, 1, 49, 127
2, 149703, Note_on_c, 11, 70, 127
2, 150069, Note_off_c, 11, 70, 127
2, 150069, Note_off_c, 1, 49, 127
2, 150071, Note_on_c, 12, 47, 127
2, 150071, Note_on_c, 8, 68, 127
2, 150437, Note_off_c, 12, 47, 127
2, 150437, Note_off_c, 6, 66, 127
2, 150441, Note_on_c, 12, 59, 127
2, 150441, Note_on_c, 5, 65, 127
2, 150623, Note_off_c, 5, 65, 127
2, 150625, Note_on_c, 3, 63, 127
2, 150807, Note_off_c, 3, 63, 127
2, 150807, Note_off_c, 12, 59, 127
2, 150809, Note_on_c, 11, 58, 127
2, 150809, Note_on_c, 2, 62, 127
2, 151174, Note_off_c, 8, 68, 127
2, 151175, Note_off_c, 2, 62, 127
2, 151175, Note_off_c, 11, 58, 127
2, 151178, Note_on_c, 11, 46, 127
2, 151178, Note_on_c, 3, 63, 127
2, 151178, Note_on_c, 6, 66, 127
2, 151544, Note_off_c, 6, 66, 127
2, 151544, Note_off_c, 11, 46, 127
2, 151547, Note_on_c, 11, 46, 127
2, 151547, Note_on_c, 5, 65, 127
2, 151913, Note_off_c, 5, 65, 127
2, 151913, Note_off_c, 11, 46, 127
2, 151913, Note_off_c, 3, 63, 127
2, 151916, Note_on_c, 11, 46, 127
2, 151916, Note_on_c, 1, 61, 127
2, 151916, Note_on_c, 4, 64, 127
2, 152282, Note_off_c, 4, 64, 127
2, 152282, Note_off_c, 11, 46, 127
2, 152284, Note_on_c, 7, 43, 127
2, 152284, Note_on_c, 3, 63, 127
2, 152466, Note_off_c, 1, 61, 127
2, 152469, Note_on_c, 12, 59, 127
2, 152650, Note_off_c, 7, 43, 127
2, 152651, Note_off_c, 12, 59, 127
2, 152653, Note_on_c, 8, 44, 127
2, 152653, Note_on_c, 11, 58, 127
2, 152835, Note_off_c, 11, 58, 127
2, 152838, Note_on_c, 8, 56, 127
2, 153019, Note_off_c, 8, 44, 127
2, 153020, Note_off_c, 8, 56, 127
2, 153022, Note_on_c, 11, 46, 127
2, 153022, Note_on_c, 7, 55, 127
2, 153204, Note_off_c, 7, 55, 127
2, 153207, Note_on_c, 8, 56, 127
2, 153387, Note_off_c, 3, 63, 127
2, 153389, Note_off_c, 8, 56, 127
2, 153391, Note_on_c, 11, 58, 127
2, 153391, Note_on_c, 1, 61, 127
2, 153573, Note_off_c, 1, 61, 127
2, 153573, Note_off_c, 11, 58, 127
2, 153575, Note_on_c, 12, 59, 127
2, 153575, Note_on_c, 3, 63, 127
2, 153757, Note_off_c, 3, 63, 127
2, 153757, Note_off_c, 12, 59, 127
2, 153759, Note_on_c, 1, 61, 127
2, 153759, Note_on_c, 4, 64, 127
2, 153941, Note_off_c, 1, 61, 127
2, 153944, Note_on_c, 3, 63, 127
2, 154125, Note_off_c, 11, 46, 127
2, 154126, Note_off_c, 3, 63, 127
2, 154129, Note_on_c, 8, 44, 127
2, 154129, Note_on_c, 1, 61, 127
2, 154311, Note_off_c, 1, 61, 127
2, 154313, Note_on_c, 12, 59, 127
2, 154495, Note_off_c, 12, 59, 127
2, 154495, Note_off_c, 8, 44, 127
2, 154497, Note_on_c, 1, 49, 127
2, 154497, Note_on_c, 11, 58, 127
2, 154679, Note_off_c, 11, 58, 127
2, 154681, Note_on_c, 8, 56, 127
2, 154862, Note_off_c, 4, 64, 127
2, 154863, Note_off_c, 8, 56, 127
2, 154866, Note_on_c, 6, 54, 127
2, 154866, Note_on_c, 3, 63, 127
2, 155048, Note_off_c, 3, 63, 127
2, 155048, Note_off_c, 6, 54, 127
2, 155050, Note_on_c, 5, 53, 127
2, 155050, Note_on_c, 5, 65, 127
2, 155232, Note_off_c, 5, 65, 127
2, 155232, Note_off_c, 5, 53, 127
2, 155235, Note_on_c, 3, 51, 127
2, 155235, Note_on_c, 6, 66, 127
2, 155600, Note_off_c, 1, 49, 127
2, 155604, Note_on_c, 12, 47, 127
2, 155786, Note_off_c, 12, 47, 127
2, 155788, Note_on_c, 11, 46, 127
2, 155964, Note_off_c, 3, 51, 127
2, 155970, Note_off_c, 11, 46, 127
2, 155972, Note_on_c, 3, 51, 127
2, 156338, Note_off_c, 3, 51, 127
2, 156338, Note_off_c, 6, 66, 127
2, 156342, Note_on_c, 1, 49, 127
2, 156342, Note_on_c, 11, 58, 127
2, 156342, Note_on_c, 5, 65, 127
2, 156524, Note_off_c, 5, 65, 127
2, 156526, Note_on_c, 7, 67, 127
2, 156708, Note_off_c, 7, 67, 127
2, 156708, Note_off_c, 11, 58, 127
2, 156708, Note_off_c, 1, 49, 127
2, 156710, Note_on_c, 12, 47, 127
2, 156710, Note_on_c, 3, 63, 127
2, 156710, Note_on_c, 8, 68, 127
2, 156892, Note_off_c, 3, 63, 127
2, 156894, Note_on_c, 4, 64, 127
2, 157076, Note_off_c, 4, 64, 127
2, 157076, Note_off_c, 8, 68, 127
2, 157079, Note_on_c, 3, 63, 127
2, 157079, Note_on_c, 8, 68, 127
2, 157260, Note_off_c, 12, 47, 127
2, 157261, Note_off_c, 3, 63, 127
2, 157263, Note_on_c, 11, 46, 127
2, 157263, Note_on_c, 1, 61, 127
2, 157445, Note_off_c, 1, 61, 127
2, 157445, Note_off_c, 11, 46, 127
2, 157445, Note_off_c, 8, 68, 127
2, 157448, Note_on_c, 8, 44, 127
2, 157448, Note_on_c, 12, 59, 127
2, 157448, Note_on_c, 8, 68, 127
2, 157630, Note_off_c, 12, 59, 127
2, 157630, Note_off_c, 8, 44, 127
2, 157632, Note_on_c, 11, 46, 127
2, 157632, Note_on_c, 1, 61, 127
2, 157814, Note_off_c, 1, 61, 127
2, 157814, Note_off_c, 11, 46, 127
2, 157814, Note_off_c, 8, 68, 127
2, 157817, Note_on_c, 12, 47, 127
2, 157817, Note_on_c, 3, 63, 127
2, 157817, Note_on_c, 8, 68, 127
2, 157999, Note_off_c, 12, 47, 127
2, 158001, Note_on_c, 8, 44, 127
2, 158183, Note_off_c, 8, 44, 127
2, 158183, Note_off_c, 8, 68, 127
2, 158185, Note_on_c, 1, 49, 127
2, 158185, Note_on_c, 5, 65, 127
2, 158367, Note_off_c, 3, 63, 127
2, 158369, Note_on_c, 1, 61, 127
2, 158551, Note_off_c, 1, 61, 127
2, 158551, Note_off_c, 5, 65, 127
2, 158551, Note_off_c, 1, 49, 127
2, 158553, Note_on_c, 3, 51, 127
2, 158553, Note_on_c, 12, 59, 127
2, 158553, Note_on_c, 6, 66, 127
2, 158735, Note_off_c, 12, 59, 127
2, 158739, Note_on_c, 11, 58, 127
2, 158919, Note_off_c, 6, 66, 127
2, 158919, Note_off_c, 3, 51, 127
2, 158921, Note_off_c, 11, 58, 127
2, 158923, Note_on_c, 5, 53, 127
2, 158923, Note_on_c, 8, 56, 127
2, 158923, Note_on_c, 8, 68, 127
2, 159105, Note_off_c, 8, 56, 127
2, 159107, Note_on_c, 11, 58, 127
2, 159289, Note_off_c, 11, 58, 127
2, 159289, Note_off_c, 5, 53, 127
2, 159291, Note_on_c, 1, 49, 127
2, 159291, Note_on_c, 12, 59, 127
2, 159473, Note_off_c, 12, 59, 127
2, 159476, Note_on_c, 8, 56, 127
2, 159657, Note_off_c, 1, 49, 127
2, 159658, Note_off_c, 8, 56, 127
2, 159660, Note_on_c, 6, 54, 127
2, 159660, Note_on_c, 11, 58, 127
2, 160026, Note_off_c, 11, 58, 127
2, 160026, Note_off_c, 8, 68, 127
2, 160029, Note_on_c, 3, 63, 127
2, 160029, Note_on_c, 6, 66, 127
2, 160395, Note_off_c, 6, 66, 127
2, 160395, Note_off_c, 3, 63, 127
2, 160398, Note_on_c, 8, 56, 127
2, 160398, Note_on_c, 12, 71, 127
2, 160763, Note_off_c, 6, 54, 127
2, 160764, Note_off_c, 8, 56, 127
2, 160766, Note_on_c, 5, 53, 127
2, 160766, Note_on_c, 8, 68, 127
2, 160948, Note_off_c, 5, 53, 127
2, 160951, Note_on_c, 3, 51, 127
2, 161132, Note_off_c, 8, 68, 127
2, 161133, Note_off_c, 3, 51, 127
2, 161136, Note_on_c, 5, 53, 127
2, 161136, Note_on_c, 1, 61, 127
2, 161318, Note_off_c, 5, 53, 127
2, 161320, Note_on_c, 8, 56, 127
2, 161501, Note_off_c, 12, 71, 127
2, 161502, Note_off_c, 8, 56, 127
2, 161504, Note_on_c, 1, 49, 127
2, 161504, Note_on_c, 11, 70, 127
2, 161686, Note_off_c, 11, 70, 127
2, 161686, Note_off_c, 1, 49, 127
2, 161689, Note_on_c, 3, 51, 127
2, 161689, Note_on_c, 8, 68, 127
2, 161871, Note_off_c, 8, 68, 127
2, 161871, Note_off_c, 3, 51, 127
2, 161873, Note_on_c, 5, 53, 127
2, 161873, Note_on_c, 1, 73, 127
2, 162055, Note_off_c, 5, 53, 127
2, 162057, Note_on_c, 6, 54, 127
2, 162239, Note_off_c, 6, 54, 127
2, 162239, Note_off_c, 1, 73, 127
2, 162242, Note_on_c, 8, 56, 127
2, 162242, Note_on_c, 12, 71, 127
2, 162424, Note_off_c, 8, 56, 127
2, 162427, Note_on_c, 5, 53, 127
2, 162608, Note_off_c, 12, 71, 127
2, 162609, Note_off_c, 5, 53, 127
2, 162611, Note_on_c, 6, 54, 127
2, 162611, Note_on_c, 11, 70, 127
2, 162977, Note_off_c, 11, 70, 127
2, 162977, Note_off_c, 6, 54, 127
2, 162977, Note_off_c, 1, 61, 127
2, 162979, Note_on_c, 5, 53, 127
2, 162979, Note_on_c, 1, 61, 127
2, 162979, Note_on_c, 8, 68, 127
2, 163161, Note_off_c, 8, 68, 127
2, 163161, Note_off_c, 5, 53, 127
2, 163163, Note_on_c, 3, 51, 127
2, 163163, Note_on_c, 6, 66, 127
2, 163345, Note_off_c, 6, 66, 127
2, 163345, Note_off_c, 3, 51, 127
2, 163345, Note_off_c, 1, 61, 127
2, 163348, Note_on_c, 1, 49, 127
2, 163348, Note_on_c, 1, 61, 127
2, 163348, Note_on_c, 5, 65, 127
2, 163530, Note_off_c, 5, 65, 127
2, 163530, Note_off_c, 1, 49, 127
2, 163533, Note_on_c, 3, 51, 127
2, 163533, Note_on_c, 7, 67, 127
2, 163714, Note_off_c, 1, 61, 127
2, 163715, Note_off_c, 7, 67, 127
2, 163715, Note_off_c, 3, 51, 127
2, 163717, Note_on_c, 4, 52, 127
2, 163717, Note_on_c, 1, 61, 127
2, 163717, Note_on_c, 8, 68, 127
2, 163899, Note_off_c, 4, 52, 127
2, 163901, Note_on_c, 1, 49, 127
2, 164083, Note_off_c, 1, 49, 127
2, 164083, Note_off_c, 1, 61, 127
2, 164086, Note_on_c, 3, 51, 127
2, 164086, Note_on_c, 11, 58, 127
2, 164452, Note_off_c, 11, 58, 127
2, 164452, Note_off_c, 8, 68, 127
2, 164454, Note_on_c, 12, 59, 127
2, 164454, Note_on_c, 7, 67, 127
2, 164636, Note_off_c, 7, 67, 127
2, 164639, Note_on_c, 8, 68, 127
2, 164820, Note_off_c, 12, 59, 127
2, 164821, Note_off_c, 8, 68, 127
2, 164824, Note_on_c, 1, 61, 127
2, 164824, Note_on_c, 11, 70, 127
2, 165005, Note_off_c, 3, 51, 127
2, 165008, Note_on_c, 3, 39, 127
2, 165190, Note_off_c, 3, 39, 127
2, 165192, Note_on_c, 5, 41, 127
2, 165374, Note_off_c, 5, 41, 127
2, 165376, Note_on_c, 7, 43, 127
2, 165558, Note_off_c, 7, 43, 127
2, 165561, Note_on_c, 8, 44, 127
2, 165927, Note_off_c, 11, 70, 127
2, 165927, Note_off_c, 1, 61, 127
2, 165930, Note_on_c, 12, 59, 127
2, 165930, Note_on_c, 8, 68, 127
2, 166112, Note_off_c, 8, 68, 127
2, 166114, Note_on_c, 7, 67, 127
2, 166296, Note_off_c, 7, 67, 127
2, 166296, Note_off_c, 12, 59, 127
2, 166299, Note_on_c, 4, 64, 127
2, 166299, Note_on_c, 8, 68, 127
2, 166664, Note_off_c, 8, 44, 127
2, 166665, Note_off_c, 8, 68, 127
2, 166667, Note_on_c, 7, 43, 127
2, 166667, Note_on_c, 11, 70, 127
2, 166849, Note_off_c, 11, 70, 127
2, 166849, Note_off_c, 7, 43, 127
2, 166851, Note_on_c, 8, 44, 127
2, 166851, Note_on_c, 12, 71, 127
2, 167033, Note_off_c, 12, 71, 127
2, 167033, Note_off_c, 8, 44, 127
2, 167037, Note_on_c, 11, 46, 127
2, 167037, Note_on_c, 1, 73, 127
2, 167402, Note_off_c, 4, 64, 127
2, 167405, Note_on_c, 3, 63, 127
2, 167587, Note_off_c, 3, 63, 127
2, 167589, Note_on_c, 1, 61, 127
2, 167771, Note_off_c, 1, 61, 127
2, 167773, Note_on_c, 6, 66, 127
2, 168139, Note_off_c, 6, 66, 127
2, 168140, Note_off_c, 11, 46, 127
2, 168143, Note_on_c, 8, 44, 127
2, 168143, Note_on_c, 4, 64, 127
2, 168325, Note_off_c, 8, 44, 127
2, 168327, Note_on_c, 11, 46, 127
2, 168509, Note_off_c, 11, 46, 127
2, 168509, Note_off_c, 4, 64, 127
2, 168511, Note_on_c, 12, 47, 127
2, 168511, Note_on_c, 3, 63, 127
2, 168877, Note_off_c, 3, 63, 127
2, 168878, Note_off_c, 1, 73, 127
2, 168880, Note_on_c, 7, 55, 127
2, 168880, Note_on_c, 12, 71, 127
2, 168880, Note_on_c, 3, 75, 127
2, 169062, Note_off_c, 12, 71, 127
2, 169064, Note_on_c, 11, 70, 127
2, 169246, Note_off_c, 11, 70, 127
2, 169246, Note_off_c, 3, 75, 127
2, 169246, Note_off_c, 7, 55, 127
2, 169248, Note_on_c, 8, 56, 127
2, 169248, Note_on_c, 12, 71, 127
2, 169248, Note_on_c, 3, 75, 127
2, 169430, Note_off_c, 12, 71, 127
2, 169434, Note_on_c, 8, 68, 127
2, 169614, Note_off_c, 3, 75, 127
2, 169614, Note_off_c, 8, 56, 127
2, 169616, Note_off_c, 8, 68, 127
2, 169618, Note_on_c, 10, 57, 127
2, 169618, Note_on_c, 6, 66, 127
2, 169618, Note_on_c, 3, 75, 127
2, 169800, Note_off_c, 6, 66, 127
2, 169802, Note_on_c, 5, 65, 127
2, 169983, Note_off_c, 12, 47, 127
2, 169984, Note_off_c, 5, 65, 127
2, 169984, Note_off_c, 3, 75, 127
2, 169984, Note_off_c, 10, 57, 127
2, 169986, Note_on_c, 11, 46, 127
2, 169986, Note_on_c, 11, 58, 127
2, 169986, Note_on_c, 6, 66, 127
2, 169986, Note_on_c, 2, 74, 127
2, 170352, Note_off_c, 2, 74, 127
2, 170352, Note_off_c, 11, 46, 127
2, 170355, Note_on_c, 0, 48, 127
2, 170355, Note_on_c, 3, 75, 127
2, 170536, Note_off_c, 6, 66, 127
2, 170540, Note_on_c, 6, 66, 127
2, 170721, Note_off_c, 3, 75, 127
2, 170721, Note_off_c, 0, 48, 127
2, 170722, Note_off_c, 6, 66, 127
2, 170724, Note_on_c, 2, 50, 127
2, 170724, Note_on_c, 5, 65, 127
2, 170724, Note_on_c, 5, 77, 127
2, 170906, Note_off_c, 5, 65, 127
2, 170909, Note_on_c, 6, 66, 127
2, 171089, Note_off_c, 11, 58, 127
2, 171090, Note_off_c, 2, 50, 127
2, 171091, Note_off_c, 6, 66, 127
2, 171093, Note_on_c, 0, 48, 127
2, 171093, Note_on_c, 8, 56, 127
2, 171093, Note_on_c, 8, 68, 127
2, 171275, Note_off_c, 8, 56, 127
2, 171275, Note_off_c, 0, 48, 127
2, 171277, Note_on_c, 2, 50, 127
2, 171277, Note_on_c, 11, 58, 127
2, 171459, Note_off_c, 11, 58, 127
2, 171459, Note_off_c, 2, 50, 127
2, 171461, Note_on_c, 3, 51, 127
2, 171461, Note_on_c, 12, 59, 127
2, 171827, Note_off_c, 3, 51, 127
2, 171827, Note_off_c, 5, 77, 127
2, 171828, Note_off_c, 8, 68, 127
2, 171831, Note_on_c, 2, 50, 127
2, 171831, Note_on_c, 6, 66, 127
2, 171831, Note_on_c, 3, 75, 127
2, 172013, Note_off_c, 2, 50, 127
2, 172015, Note_on_c, 3, 51, 127
2, 172195, Note_off_c, 6, 66, 127
2, 172197, Note_off_c, 3, 51, 127
2, 172197, Note_off_c, 3, 75, 127
2, 172199, Note_on_c, 5, 53, 127
2, 172199, Note_on_c, 8, 80, 127
2, 172564, Note_off_c, 12, 59, 127
2, 172568, Note_on_c, 11, 58, 127
2, 172568, Note_on_c, 6, 78, 127
2, 172750, Note_off_c, 11, 58, 127
2, 172752, Note_on_c, 0, 60, 127
2, 172934, Note_off_c, 0, 60, 127
2, 172934, Note_off_c, 6, 78, 127
2, 172937, Note_on_c, 1, 61, 127
2, 172937, Note_on_c, 5, 77, 127
2, 173301, Note_off_c, 5, 77, 127
2, 173302, Note_off_c, 8, 80, 127
2, 173302, Note_off_c, 5, 53, 127
2, 173306, Note_on_c, 3, 51, 127
2, 173306, Note_on_c, 6, 78, 127
2, 173488, Note_off_c, 6, 78, 127
2, 173488, Note_off_c, 3, 51, 127
2, 173490, Note_on_c, 5, 53, 127
2, 173490, Note_on_c, 5, 77, 127
2, 173672, Note_off_c, 5, 77, 127
2, 173672, Note_off_c, 5, 53, 127
2, 173674, Note_on_c, 6, 54, 127
2, 173674, Note_on_c, 11, 82, 127
2, 174040, Note_off_c, 11, 82, 127
2, 174040, Note_off_c, 1, 61, 127
2, 174044, Note_on_c, 0, 60, 127
2, 174044, Note_on_c, 5, 77, 127
2, 174044, Note_on_c, 8, 80, 127
2, 174226, Note_off_c, 0, 60, 127
2, 174228, Note_on_c, 2, 62, 127
2, 174410, Note_off_c, 2, 62, 127
2, 174410, Note_off_c, 8, 80, 127
2, 174410, Note_off_c, 5, 77, 127
2, 174412, Note_on_c, 3, 63, 127
2, 174412, Note_on_c, 3, 75, 127
2, 174412, Note_on_c, 6, 78, 127
2, 174777, Note_off_c, 6, 54, 127
2, 174778, Note_off_c, 6, 78, 127
2, 174778, Note_off_c, 3, 75, 127
2, 174781, Note_on_c, 5, 53, 127
2, 174781, Note_on_c, 1, 73, 127
2, 174781, Note_on_c, 11, 82, 127
2, 174963, Note_off_c, 5, 53, 127
2, 174965, Note_on_c, 7, 55, 127
2, 175147, Note_off_c, 7, 55, 127
2, 175147, Note_off_c, 11, 82, 127
2, 175149, Note_on_c, 8, 56, 127
2, 175149, Note_on_c, 3, 75, 127
2, 175331, Note_off_c, 3, 63, 127
2, 175334, Note_on_c, 4, 64, 127
2, 175516, Note_off_c, 4, 64, 127
2, 175516, Note_off_c, 1, 73, 127
2, 175519, Note_on_c, 3, 63, 127
2, 175519, Note_on_c, 12, 71, 127
2, 175701, Note_off_c, 12, 71, 127
2, 175701, Note_off_c, 3, 63, 127
2, 175703, Note_on_c, 1, 61, 127
2, 175703, Note_on_c, 11, 70, 127
2, 175885, Note_off_c, 11, 70, 127
2, 175885, Note_off_c, 1, 61, 127
2, 175887, Note_on_c, 12, 59, 127
2, 175887, Note_on_c, 8, 68, 127
2, 176069, Note_off_c, 8, 68, 127
2, 176071, Note_on_c, 3, 63, 127
2, 176252, Note_off_c, 8, 56, 127
2, 176253, Note_off_c, 3, 63, 127
2, 176256, Note_on_c, 6, 54, 127
2, 176256, Note_on_c, 8, 68, 127
2, 176622, Note_off_c, 6, 54, 127
2, 176625, Note_on_c, 4, 52, 127
2, 176990, Note_off_c, 12, 59, 127
2, 176990, Note_off_c, 3, 75, 127
2, 176991, Note_off_c, 8, 68, 127
2, 176993, Note_on_c, 11, 58, 127
2, 176993, Note_on_c, 8, 68, 127
2, 176993, Note_on_c, 2, 74, 127
2, 177175, Note_off_c, 11, 58, 127
2, 177178, Note_on_c, 8, 56, 127
2, 177359, Note_off_c, 2, 74, 127
2, 177359, Note_off_c, 8, 68, 127
2, 177360, Note_off_c, 8, 56, 127
2, 177360, Note_off_c, 4, 52, 127
2, 177362, Note_on_c, 3, 51, 127
2, 177362, Note_on_c, 11, 58, 127
2, 177362, Note_on_c, 7, 67, 127
2, 177362, Note_on_c, 3, 75, 127
2, 177726, Note_off_c, 11, 58, 127
2, 177728, Note_off_c, 3, 75, 127
2, 177728, Note_off_c, 7, 67, 127
2, 177731, Note_on_c, 4, 64, 127
2, 177731, Note_on_c, 8, 68, 127
2, 178097, Note_off_c, 8, 68, 127
2, 178097, Note_off_c, 4, 64, 127
2, 178097, Note_off_c, 3, 51, 127
2, 178100, Note_on_c, 1, 49, 127
2, 178100, Note_on_c, 4, 64, 127
2, 178100, Note_on_c, 11, 70, 127
2, 178466, Note_off_c, 4, 64, 127
2, 178468, Note_on_c, 4, 64, 127
2, 178834, Note_off_c, 4, 64, 127
2, 178835, Note_off_c, 1, 49, 127
2, 178838, Note_on_c, 12, 47, 127
2, 178838, Note_on_c, 3, 63, 127
2, 179203, Note_off_c, 11, 70, 127
2, 179204, Note_off_c, 3, 63, 127
2, 179206, Note_on_c, 5, 65, 127
2, 179206, Note_on_c, 8, 68, 127
2, 179572, Note_off_c, 8, 68, 127
2, 179572, Note_off_c, 5, 65, 127
2, 179575, Note_on_c, 7, 67, 127
2, 179575, Note_on_c, 1, 73, 127
2, 179836, Note_off_c, 12, 47, 127
2, 179941, Note_off_c, 7, 67, 127
2, 179944, Note_on_c, 11, 46, 127
2, 179944, Note_on_c, 8, 68, 127
2, 180126, Note_off_c, 11, 46, 127
2, 180129, Note_on_c, 8, 44, 127
2, 180310, Note_off_c, 8, 68, 127
2, 180311, Note_off_c, 8, 44, 127
2, 180313, Note_on_c, 7, 43, 127
2, 180313, Note_on_c, 11, 70, 127
2, 180678, Note_off_c, 1, 73, 127
2, 180679, Note_off_c, 11, 70, 127
2, 180679, Note_off_c, 7, 43, 127
2, 180681, Note_on_c, 3, 51, 127
2, 180681, Note_on_c, 8, 68, 127
2, 180681, Note_on_c, 12, 71, 127
2, 180863, Note_off_c, 12, 71, 127
2, 180866, Note_on_c, 11, 70, 127
2, 181047, Note_off_c, 8, 68, 127
2, 181047, Note_off_c, 3, 51, 127
2, 181048, Note_off_c, 11, 70, 127
2, 181050, Note_on_c, 3, 51, 127
2, 181050, Note_on_c, 7, 67, 127
2, 181050, Note_on_c, 3, 75, 127
2, 181416, Note_off_c, 3, 75, 127
2, 181416, Note_off_c, 3, 51, 127
2, 181419, Note_on_c, 3, 51, 127
2, 181419, Note_on_c, 1, 73, 127
2, 181785, Note_off_c, 1, 73, 127
2, 181785, Note_off_c, 3, 51, 127
2, 181785, Note_off_c, 7, 67, 127
2, 181788, Note_on_c, 2, 50, 127
2, 181788, Note_on_c, 8, 68, 127
2, 181788, Note_on_c, 12, 71, 127
2, 182154, Note_off_c, 12, 71, 127
2, 182154, Note_off_c, 8, 68, 127
2, 182154, Note_off_c, 2, 50, 127
2, 182156, Note_on_c, 3, 51, 127
2, 182156, Note_on_c, 6, 66, 127
2, 182156, Note_on_c, 11, 70, 127
2, 182522, Note_off_c, 11, 70, 127
2, 182522, Note_off_c, 3, 51, 127
2, 182526, Note_on_c, 5, 53, 127
2, 182526, Note_on_c, 8, 68, 127
2, 182891, Note_off_c, 6, 66, 127
2, 182894, Note_on_c, 5, 65, 127
2, 183076, Note_off_c, 5, 65, 127
2, 183078, Note_on_c, 3, 63, 127
2, 183260, Note_off_c, 3, 63, 127
2, 183263, Note_on_c, 2, 62, 127
2, 183524, Note_off_c, 5, 53, 127
2, 183629, Note_off_c, 2, 62, 127
2, 183629, Note_off_c, 8, 68, 127
2, 183632, Note_on_c, 3, 51, 127
2, 183632, Note_on_c, 3, 63, 127
2, 183632, Note_on_c, 6, 66, 127
2, 183998, Note_off_c, 6, 66, 127
2, 183998, Note_off_c, 3, 51, 127
2, 184001, Note_on_c, 8, 56, 127
2, 184001, Note_on_c, 5, 65, 127
2, 184367, Note_off_c, 3, 63, 127
2, 184369, Note_on_c, 2, 62, 127
2, 184551, Note_off_c, 2, 62, 127
2, 184553, Note_on_c, 0, 60, 127
2, 184735, Note_off_c, 0, 60, 127
2, 184739, Note_on_c, 2, 62, 127
2, 185018, Note_off_c, 8, 56, 127
2, 185104, Note_off_c, 5, 65, 127
2, 185107, Note_on_c, 6, 54, 127
2, 185107, Note_on_c, 11, 70, 127
2, 185289, Note_off_c, 11, 70, 127
2, 185289, Note_off_c, 6, 54, 127
2, 185291, Note_on_c, 5, 53, 127
2, 185291, Note_on_c, 8, 68, 127
2, 185468, Note_off_c, 2, 62, 127
2, 185473, Note_off_c, 8, 68, 127
2, 185473, Note_off_c, 5, 53, 127
2, 185476, Note_on_c, 11, 58, 127
2, 185476, Note_on_c, 1, 61, 127
2, 185476, Note_on_c, 6, 66, 127
2, 185842, Note_off_c, 6, 66, 127
2, 185842, Note_off_c, 11, 58, 127
2, 185845, Note_on_c, 8, 56, 127
2, 185845, Note_on_c, 4, 64, 127
2, 186211, Note_off_c, 4, 64, 127
2, 186211, Note_off_c, 8, 56, 127
2, 186213, Note_on_c, 7, 55, 127
2, 186213, Note_on_c, 3, 63, 127
2, 186579, Note_off_c, 3, 63, 127
2, 186579, Note_off_c, 7, 55, 127
2, 186579, Note_off_c, 1, 61, 127
2, 186582, Note_on_c, 3, 51, 127
2, 186582, Note_on_c, 12, 59, 127
2, 186582, Note_on_c, 3, 75, 127
2, 186764, Note_off_c, 12, 59, 127
2, 186766, Note_on_c, 11, 58, 127
2, 186948, Note_off_c, 11, 58, 127
2, 186948, Note_off_c, 3, 51, 127
2, 186950, Note_on_c, 8, 56, 127
2, 186950, Note_on_c, 12, 59, 127
2, 187132, Note_off_c, 3, 75, 127
2, 187136, Note_on_c, 12, 71, 127
2, 187316, Note_off_c, 12, 59, 127
2, 187318, Note_off_c, 12, 71, 127
2, 187320, Note_on_c, 4, 64, 127
2, 187320, Note_on_c, 11, 70, 127
2, 187502, Note_off_c, 11, 70, 127
2, 187504, Note_on_c, 8, 68, 127
2, 187686, Note_off_c, 8, 68, 127
2, 187686, Note_off_c, 4, 64, 127
2, 187688, Note_on_c, 1, 61, 127
2, 187688, Note_on_c, 11, 70, 127
2, 188053, Note_off_c, 8, 56, 127
2, 188054, Note_off_c, 11, 70, 127
2, 188054, Note_off_c, 1, 61, 127
2, 188057, Note_on_c, 7, 55, 127
2, 188057, Note_on_c, 11, 58, 127
2, 188057, Note_on_c, 1, 73, 127
2, 188239, Note_off_c, 7, 55, 127
2, 188242, Note_on_c, 5, 53, 127
2, 188423, Note_off_c, 1, 73, 127
2, 188423, Note_off_c, 11, 58, 127
2, 188424, Note_off_c, 5, 53, 127
2, 188426, Note_on_c, 7, 55, 127
2, 188426, Note_on_c, 3, 63, 127
2, 188426, Note_on_c, 1, 73, 127
2, 188792, Note_off_c, 1, 73, 127
2, 188792, Note_off_c, 3, 63, 127
2, 188792, Note_off_c, 7, 55, 127
2, 188795, Note_on_c, 6, 54, 127
2, 188795, Note_on_c, 4, 64, 127
2, 188795, Note_on_c, 10, 69, 127
2, 188795, Note_on_c, 1, 73, 127
2, 189161, Note_off_c, 1, 73, 127
2, 189161, Note_off_c, 10, 69, 127
2, 189161, Note_off_c, 4, 64, 127
2, 189163, Note_on_c, 3, 63, 127
2, 189163, Note_on_c, 8, 68, 127
2, 189163, Note_on_c, 0, 72, 127
2, 189529, Note_off_c, 0, 72, 127
2, 189529, Note_off_c, 3, 63, 127
2, 189530, Note_off_c, 6, 54, 127
2, 189533, Note_on_c, 4, 52, 127
2, 189533, Note_on_c, 1, 61, 127
2, 189533, Note_on_c, 1, 73, 127
2, 189898, Note_off_c, 8, 68, 127
2, 189899, Note_off_c, 1, 73, 127
2, 189899, Note_off_c, 4, 52, 127
2, 189901, Note_on_c, 6, 54, 127
2, 189901, Note_on_c, 10, 69, 127
2, 189901, Note_on_c, 3, 75, 127
2, 190267, Note_off_c, 10, 69, 127
2, 190267, Note_off_c, 6, 54, 127
2, 190268, Note_off_c, 1, 61, 127
2, 190270, Note_on_c, 8, 56, 127
2, 190270, Note_on_c, 0, 60, 127
2, 190270, Note_on_c, 8, 68, 127
2, 190452, Note_off_c, 8, 68, 127
2, 190454, Note_on_c, 6, 66, 127
2, 190636, Note_off_c, 6, 66, 127
2, 190636, Note_off_c, 0, 60, 127
2, 190636, Note_off_c, 8, 56, 127
2, 190639, Note_on_c, 10, 57, 127
2, 190639, Note_on_c, 1, 61, 127
2, 190639, Note_on_c, 4, 64, 127
2, 191004, Note_off_c, 3, 75, 127
2, 191005, Note_off_c, 4, 64, 127
2, 191008, Note_on_c, 6, 66, 127
2, 191008, Note_on_c, 1, 73, 127
2, 191190, Note_off_c, 6, 66, 127
2, 191192, Note_on_c, 8, 68, 127
2, 191374, Note_off_c, 8, 68, 127
2, 191374, Note_off_c, 1, 73, 127
2, 191376, Note_on_c, 10, 69, 127
2, 191376, Note_on_c, 6, 78, 127
2, 191742, Note_off_c, 1, 61, 127
2, 191742, Note_off_c, 10, 57, 127
2, 191746, Note_on_c, 8, 56, 127
2, 191746, Note_on_c, 3, 63, 127
2, 191928, Note_off_c, 8, 56, 127
2, 191930, Note_on_c, 6, 54, 127
2, 192111, Note_off_c, 10, 69, 127
2, 192112, Note_off_c, 6, 54, 127
2, 192112, Note_off_c, 3, 63, 127
2, 192114, Note_on_c, 8, 56, 127
2, 192114, Note_on_c, 0, 60, 127
2, 192114, Note_on_c, 8, 68, 127
2, 192479, Note_off_c, 6, 78, 127
2, 192480, Note_off_c, 0, 60, 127
2, 192480, Note_off_c, 8, 56, 127
2, 192483, Note_on_c, 11, 58, 127
2, 192483, Note_on_c, 1, 61, 127
2, 192483, Note_on_c, 4, 76, 127
2, 192665, Note_off_c, 4, 76, 127
2, 192667, Note_on_c, 3, 75, 127
2, 192849, Note_off_c, 3, 75, 127
2, 192849, Note_off_c, 1, 61, 127
2, 192849, Note_off_c, 11, 58, 127
2, 192851, Note_on_c, 12, 59, 127
2, 192851, Note_on_c, 2, 62, 127
2, 192851, Note_on_c, 8, 80, 127
2, 193217, Note_off_c, 8, 80, 127
2, 193217, Note_off_c, 8, 68, 127
2, 193221, Note_on_c, 10, 69, 127
2, 193221, Note_on_c, 6, 78, 127
2, 193403, Note_off_c, 10, 69, 127
2, 193405, Note_on_c, 12, 71, 127
2, 193586, Note_off_c, 2, 62, 127
2, 193587, Note_off_c, 12, 71, 127
2, 193587, Note_off_c, 6, 78, 127
2, 193589, Note_on_c, 1, 61, 127
2, 193589, Note_on_c, 1, 73, 127
2, 193589, Note_on_c, 5, 77, 127
2, 193953, Note_off_c, 1, 73, 127
2, 193954, Note_off_c, 12, 59, 127
2, 193955, Note_off_c, 5, 77, 127
2, 193955, Note_off_c, 1, 61, 127
2, 193958, Note_on_c, 11, 58, 127
2, 193958, Note_on_c, 6, 66, 127
2, 193958, Note_on_c, 1, 73, 127
2, 194134, Note_off_c, 6, 66, 127
2, 194140, Note_off_c, 11, 58, 127
2, 194143, Note_on_c, 8, 56, 127
2, 194143, Note_on_c, 5, 65, 127
2, 194325, Note_off_c, 5, 65, 127
2, 194325, Note_off_c, 8, 56, 127
2, 194327, Note_on_c, 11, 58, 127
2, 194327, Note_on_c, 6, 66, 127
2, 194327, Note_on_c, 6, 78, 127
2, 194509, Note_off_c, 6, 66, 127
2, 194511, Note_on_c, 8, 68, 127
2, 194687, Note_off_c, 1, 73, 127
2, 194693, Note_off_c, 8, 68, 127
2, 194693, Note_off_c, 11, 58, 127
2, 194696, Note_on_c, 0, 60, 127
2, 194696, Note_on_c, 10, 69, 127
2, 194696, Note_on_c, 3, 75, 127
2, 195062, Note_off_c, 0, 60, 127
2, 195064, Note_on_c, 1, 61, 127
2, 195431, Note_off_c, 10, 69, 127
2, 195433, Note_on_c, 8, 68, 127
2, 195433, Note_on_c, 12, 71, 127
2, 195615, Note_off_c, 8, 68, 127
2, 195618, Note_on_c, 6, 66, 127
2, 195797, Note_off_c, 12, 71, 127
2, 195799, Note_off_c, 1, 61, 127
2, 195799, Note_off_c, 3, 75, 127
2, 195799, Note_off_c, 6, 78, 127
2, 195800, Note_off_c, 6, 66, 127
2, 195802, Note_on_c, 1, 49, 127
2, 195802, Note_on_c, 8, 68, 127
2, 195802, Note_on_c, 12, 71, 127
2, 195802, Note_on_c, 5, 77, 127
2, 196168, Note_off_c, 12, 71, 127
2, 196170, Note_on_c, 12, 71, 127
2, 196531, Note_off_c, 8, 68, 127
2, 196536, Note_off_c, 12, 71, 127
2, 196537, Note_off_c, 5, 77, 127
2, 196537, Note_off_c, 1, 49, 127
2, 196540, Note_on_c, 6, 54, 127
2, 196540, Note_on_c, 11, 70, 127
2, 196540, Note_on_c, 6, 66, 127
2, 196540, Note_on_c, 6, 78, 127
2, 196722, Note_off_c, 6, 54, 127
2, 196724, Note_on_c, 5, 53, 127
2, 196906, Note_off_c, 5, 53, 127
2, 196906, Note_off_c, 6, 66, 127
2, 196906, Note_off_c, 11, 70, 127
2, 196908, Note_on_c, 6, 54, 127
2, 196908, Note_on_c, 12, 71, 127
2, 197090, Note_off_c, 6, 54, 127
2, 197093, Note_on_c, 8, 56, 127
2, 197274, Note_off_c, 12, 71, 127
2, 197275, Note_off_c, 8, 56, 127
2, 197277, Note_on_c, 11, 58, 127
2, 197277, Note_on_c, 1, 73, 127
2, 197459, Note_off_c, 11, 58, 127
2, 197461, Note_on_c, 6, 54, 127
2, 197643, Note_off_c, 6, 54, 127
2, 197643, Note_off_c, 6, 78, 127
2, 197646, Note_on_c, 8, 56, 127
2, 197646, Note_on_c, 4, 76, 127
2, 197828, Note_off_c, 8, 56, 127
2, 197831, Note_on_c, 11, 58, 127
2, 198012, Note_off_c, 4, 76, 127
2, 198013, Note_off_c, 11, 58, 127
2, 198015, Note_on_c, 12, 59, 127
2, 198015, Note_on_c, 3, 75, 127
2, 198197, Note_off_c, 12, 59, 127
2, 198199, Note_on_c, 1, 61, 127
2, 198380, Note_off_c, 1, 73, 127
2, 198381, Note_off_c, 1, 61, 127
2, 198383, Note_on_c, 3, 63, 127
2, 198383, Note_on_c, 12, 71, 127
2, 198565, Note_off_c, 3, 63, 127
2, 198568, Note_on_c, 12, 59, 127
2, 198750, Note_off_c, 12, 59, 127
2, 198750, Note_off_c, 3, 75, 127
2, 198752, Note_on_c, 1, 61, 127
2, 198752, Note_on_c, 4, 76, 127
2, 198934, Note_off_c, 1, 61, 127
2, 198937, Note_on_c, 12, 59, 127
2, 199118, Note_off_c, 12, 71, 127
2, 199119, Note_off_c, 12, 59, 127
2, 199121, Note_on_c, 11, 58, 127
2, 199121, Note_on_c, 1, 73, 127
2, 199303, Note_off_c, 1, 73, 127
2, 199303, Note_off_c, 11, 58, 127
2, 199306, Note_on_c, 8, 56, 127
2, 199306, Note_on_c, 12, 71, 127
2, 199488, Note_off_c, 12, 71, 127
2, 199488, Note_off_c, 8, 56, 127
2, 199490, Note_on_c, 6, 54, 127
2, 199490, Note_on_c, 11, 70, 127
2, 199672, Note_off_c, 6, 54, 127
2, 199674, Note_on_c, 8, 56, 127
2, 199856, Note_off_c, 8, 56, 127
2, 199856, Note_off_c, 11, 70, 127
2, 199858, Note_on_c, 6, 54, 127
2, 199858, Note_on_c, 3, 75, 127
2, 200040, Note_off_c, 3, 75, 127
2, 200040, Note_off_c, 6, 54, 127
2, 200043, Note_on_c, 4, 52, 127
2, 200043, Note_on_c, 1, 73, 127
2, 200224, Note_off_c, 4, 76, 127
2, 200225, Note_off_c, 1, 73, 127
2, 200225, Note_off_c, 4, 52, 127
2, 200228, Note_on_c, 3, 51, 127
2, 200228, Note_on_c, 6, 78, 127
2, 200228, Note_on_c, 11, 82, 127
2, 200410, Note_off_c, 3, 51, 127
2, 200412, Note_on_c, 1, 49, 127
2, 200594, Note_off_c, 1, 49, 127
2, 200594, Note_off_c, 6, 78, 127
2, 200596, Note_on_c, 12, 47, 127
2, 200596, Note_on_c, 4, 76, 127
2, 200778, Note_off_c, 12, 47, 127
2, 200780, Note_on_c, 11, 46, 127
2, 200962, Note_off_c, 11, 46, 127
2, 200962, Note_off_c, 4, 76, 127
2, 200965, Note_on_c, 12, 47, 127
2, 200965, Note_on_c, 3, 75, 127
2, 201331, Note_off_c, 12, 47, 127
2, 201331, Note_off_c, 11, 82, 127
2, 201334, Note_on_c, 12, 59, 127
2, 201334, Note_on_c, 3, 63, 127
2, 201334, Note_on_c, 8, 80, 127
2, 201516, Note_off_c, 8, 80, 127
2, 201516, Note_off_c, 12, 59, 127
2, 201518, Note_on_c, 11, 58, 127
2, 201518, Note_on_c, 7, 79, 127
2, 201700, Note_off_c, 7, 79, 127
2, 201700, Note_off_c, 11, 58, 127
2, 201700, Note_off_c, 3, 63, 127
2, 201703, Note_on_c, 12, 59, 127
2, 201703, Note_on_c, 3, 63, 127
2, 201703, Note_on_c, 8, 80, 127
2, 202068, Note_off_c, 3, 75, 127
2, 202069, Note_off_c, 3, 63, 127
2, 202069, Note_off_c, 12, 59, 127
2, 202071, Note_on_c, 1, 61, 127
2, 202071, Note_on_c, 3, 63, 127
2, 202071, Note_on_c, 8, 68, 127
2, 202253, Note_off_c, 1, 61, 127
2, 202255, Note_on_c, 12, 59, 127
2, 202437, Note_off_c, 12, 59, 127
2, 202437, Note_off_c, 8, 68, 127
2, 202437, Note_off_c, 3, 63, 127
2, 202441, Note_on_c, 11, 58, 127
2, 202441, Note_on_c, 1, 61, 127
2, 202441, Note_on_c, 11, 70, 127
2, 202807, Note_off_c, 11, 70, 127
2, 202807, Note_off_c, 1, 61, 127
2, 202809, Note_on_c, 3, 63, 127
2, 202809, Note_on_c, 12, 71, 127
2, 203175, Note_off_c, 12, 71, 127
2, 203175, Note_off_c, 3, 63, 127
2, 203176, Note_off_c, 11, 58, 127
2, 203178, Note_on_c, 10, 57, 127
2, 203178, Note_on_c, 4, 64, 127
2, 203178, Note_on_c, 1, 73, 127
2, 203544, Note_off_c, 8, 80, 127
2, 203547, Note_on_c, 7, 79, 127
2, 203913, Note_off_c, 7, 79, 127
2, 203913, Note_off_c, 10, 57, 127
2, 203916, Note_on_c, 8, 56, 127
2, 203916, Note_on_c, 8, 80, 127
2, 204281, Note_off_c, 1, 73, 127
2, 204281, Note_off_c, 4, 64, 127
2, 204284, Note_on_c, 3, 63, 127
2, 204284, Note_on_c, 12, 71, 127
2, 204466, Note_off_c, 12, 71, 127
2, 204468, Note_on_c, 11, 70, 127
2, 204648, Note_off_c, 3, 63, 127
2, 204650, Note_off_c, 11, 70, 127
2, 204652, Note_on_c, 8, 68, 127
2, 204652, Note_on_c, 12, 71, 127
2, 204835, Note_off_c, 8, 56, 127
2, 204838, Note_on_c, 6, 54, 127
2, 205019, Note_off_c, 8, 80, 127
2, 205020, Note_off_c, 6, 54, 127
2, 205022, Note_on_c, 5, 53, 127
2, 205022, Note_on_c, 6, 78, 127
2, 205204, Note_off_c, 5, 53, 127
2, 205206, Note_on_c, 3, 51, 127
2, 205388, Note_off_c, 3, 51, 127
2, 205388, Note_off_c, 6, 78, 127
2, 205390, Note_on_c, 2, 50, 127
2, 205390, Note_on_c, 5, 77, 127
2, 205755, Note_off_c, 12, 71, 127
2, 205755, Note_off_c, 8, 68, 127
2, 205759, Note_on_c, 6, 66, 127
2, 205759, Note_on_c, 11, 70, 127
2, 205941, Note_off_c, 11, 70, 127
2, 205941, Note_off_c, 6, 66, 127
2, 205944, Note_on_c, 5, 65, 127
2, 205944, Note_on_c, 8, 68, 127
2, 206126, Note_off_c, 8, 68, 127
2, 206126, Note_off_c, 5, 65, 127
2, 206128, Note_on_c, 11, 70, 127
2, 206493, Note_off_c, 2, 50, 127
2, 206497, Note_on_c, 0, 48, 127
2, 206497, Note_on_c, 8, 68, 127
2, 206679, Note_off_c, 0, 48, 127
2, 206681, Note_on_c, 11, 46, 127
2, 206861, Note_off_c, 8, 68, 127
2, 206863, Note_off_c, 11, 46, 127
2, 206865, Note_on_c, 3, 51, 127
2, 206865, Note_on_c, 6, 66, 127
2, 207231, Note_off_c, 3, 51, 127
2, 207231, Note_off_c, 5, 77, 127
2, 207235, Note_on_c, 3, 39, 127
2, 207235, Note_on_c, 3, 75, 127
2, 207414, Note_off_c, 11, 70, 127
2, 207415, Note_off_c, 6, 66, 127
2, 207417, Note_off_c, 3, 75, 127
2, 207419, Note_on_c, 5, 65, 127
2, 207419, Note_on_c, 8, 68, 127
2, 207419, Note_on_c, 1, 73, 127
2, 207601, Note_off_c, 1, 73, 127
2, 207601, Note_off_c, 8, 68, 127
2, 207601, Note_off_c, 5, 65, 127
2, 207601, Note_off_c, 3, 39, 127
2, 207603, Note_on_c, 3, 51, 127
2, 207603, Note_on_c, 3, 63, 127
2, 207603, Note_on_c, 6, 66, 127
2, 207603, Note_on_c, 12, 71, 127
2, 207969, Note_off_c, 12, 71, 127
2, 207969, Note_off_c, 6, 66, 127
2, 207969, Note_off_c, 3, 63, 127
2, 207969, Note_off_c, 3, 51, 127
2, 207972, Note_on_c, 5, 53, 127
2, 207972, Note_on_c, 1, 61, 127
2, 207972, Note_on_c, 5, 65, 127
2, 207972, Note_on_c, 11, 70, 127
2, 208338, Note_off_c, 11, 70, 127
2, 208338, Note_off_c, 5, 65, 127
2, 208338, Note_off_c, 1, 61, 127
2, 208338, Note_off_c, 5, 53, 127
2, 208341, Note_on_c, 6, 54, 127
2, 208341, Note_on_c, 0, 60, 127
2, 208341, Note_on_c, 3, 63, 127
2, 208341, Note_on_c, 10, 69, 127
2, 208707, Note_off_c, 3, 63, 127
2, 208707, Note_off_c, 6, 54, 127
2, 208710, Note_on_c, 5, 53, 127
2, 208710, Note_on_c, 5, 65, 127
2, 208892, Note_off_c, 5, 65, 127
2, 208892, Note_off_c, 5, 53, 127
2, 208894, Note_on_c, 3, 51, 127
2, 208894, Note_on_c, 6, 66, 127
2, 209076, Note_off_c, 6, 66, 127
2, 209076, Note_off_c, 3, 51, 127
2, 209076, Note_off_c, 10, 69, 127
2, 209076, Note_off_c, 0, 60, 127
2, 209078, Note_on_c, 1, 49, 127
2, 209078, Note_on_c, 1, 61, 127
2, 209078, Note_on_c, 5, 65, 127
2, 209078, Note_on_c, 11, 70, 127
2, 209260, Note_off_c, 1, 49, 127
2, 209262, Note_on_c, 0, 48, 127
2, 209444, Note_off_c, 0, 48, 127
2, 209444, Note_off_c, 5, 65, 127
2, 209448, Note_on_c, 11, 46, 127
2, 209448, Note_on_c, 6, 66, 127
2, 209630, Note_off_c, 6, 66, 127
2, 209630, Note_off_c, 11, 46, 127
2, 209632, Note_on_c, 1, 49, 127
2, 209632, Note_on_c, 4, 64, 127
2, 209813, Note_off_c, 1, 61, 127
2, 209814, Note_off_c, 4, 64, 127
2, 209814, Note_off_c, 1, 49, 127
2, 209816, Note_on_c, 5, 41, 127
2, 209816, Note_on_c, 0, 60, 127
2, 209816, Note_on_c, 5, 65, 127
2, 210182, Note_off_c, 0, 60, 127
2, 210185, Note_on_c, 1, 61, 127
2, 210367, Note_off_c, 1, 61, 127
2, 210369, Note_on_c, 11, 58, 127
2, 210550, Note_off_c, 11, 70, 127
2, 210551, Note_off_c, 11, 58, 127
2, 210551, Note_off_c, 5, 65, 127
2, 210553, Note_on_c, 0, 60, 127
2, 210553, Note_on_c, 5, 65, 127
2, 210553, Note_on_c, 10, 69, 127
2, 210919, Note_off_c, 5, 65, 127
2, 210923, Note_on_c, 3, 63, 127
2, 211288, Note_off_c, 10, 69, 127
2, 211288, Note_off_c, 0, 60, 127
2, 211288, Note_off_c, 5, 41, 127
2, 211289, Note_off_c, 3, 63, 127
2, 211291, Note_on_c, 11, 46, 127
2, 211291, Note_on_c, 11, 58, 127
2, 211291, Note_on_c, 2, 62, 127
2, 211291, Note_on_c, 11, 70, 127
2, 211657, Note_off_c, 2, 62, 127
2, 211657, Note_off_c, 11, 58, 127
2, 211660, Note_on_c, 0, 60, 127
2, 211660, Note_on_c, 3, 63, 127
2, 212020, Note_off_c, 11, 46, 127
2, 212026, Note_off_c, 3, 63, 127
2, 212026, Note_off_c, 0, 60, 127
2, 212029, Note_on_c, 1, 61, 127
2, 212029, Note_on_c, 5, 65, 127
2, 212394, Note_off_c, 11, 70, 127
2, 212395, Note_off_c, 5, 65, 127
2, 212398, Note_on_c, 4, 64, 127
2, 212398, Note_on_c, 8, 68, 127
2, 212764, Note_off_c, 8, 68, 127
2, 212764, Note_off_c, 4, 64, 127
2, 212766, Note_on_c, 3, 63, 127
2, 212766, Note_on_c, 7, 67, 127
2, 213132, Note_off_c, 7, 67, 127
2, 213132, Note_off_c, 1, 61, 127
2, 213136, Note_on_c, 7, 55, 127
2, 213136, Note_on_c, 1, 73, 127
2, 213502, Note_off_c, 1, 73, 127
2, 213502, Note_off_c, 7, 55, 127
2, 213504, Note_on_c, 8, 56, 127
2, 213504, Note_on_c, 12, 71, 127
2, 213869, Note_off_c, 3, 63, 127
2, 213870, Note_off_c, 12, 71, 127
2, 213870, Note_off_c, 8, 56, 127
2, 213872, Note_on_c, 11, 58, 127
2, 213872, Note_on_c, 1, 61, 127
2, 213872, Note_on_c, 11, 70, 127
2, 214236, Note_off_c, 1, 61, 127
2, 214238, Note_off_c, 11, 58, 127
2, 214242, Note_on_c, 3, 51, 127
2, 214242, Note_on_c, 12, 59, 127
2, 214607, Note_off_c, 11, 70, 127
2, 214608, Note_off_c, 3, 51, 127
2, 214610, Note_on_c, 8, 56, 127
2, 214610, Note_on_c, 8, 68, 127
2, 214976, Note_off_c, 8, 68, 127
2, 214977, Note_off_c, 12, 59, 127
2, 214979, Note_on_c, 11, 58, 127
2, 214979, Note_on_c, 1, 73, 127
2, 215343, Note_off_c, 11, 58, 127
2, 215345, Note_off_c, 8, 56, 127
2, 215348, Note_on_c, 7, 55, 127
2, 215348, Note_on_c, 11, 70, 127
2, 215714, Note_off_c, 11, 70, 127
2, 215714, Note_off_c, 7, 55, 127
2, 215717, Note_on_c, 12, 59, 127
2, 215717, Note_on_c, 3, 63, 127
2, 216082, Note_off_c, 1, 73, 127
2, 216083, Note_off_c, 3, 63, 127
2, 216085, Note_on_c, 8, 68, 127
2, 216085, Note_on_c, 12, 71, 127
2, 216267, Note_off_c, 12, 71, 127
2, 216267, Note_off_c, 8, 68, 127
2, 216270, Note_on_c, 7, 67, 127
2, 216270, Note_on_c, 11, 70, 127
2, 216452, Note_off_c, 11, 70, 127
2, 216452, Note_off_c, 7, 67, 127
2, 216454, Note_on_c, 8, 68, 127
2, 216454, Note_on_c, 12, 71, 127
2, 216820, Note_off_c, 12, 71, 127
2, 216820, Note_off_c, 12, 59, 127
2, 216823, Note_on_c, 11, 58, 127
2, 216823, Note_on_c, 4, 76, 127
2, 217005, Note_off_c, 11, 58, 127
2, 217008, Note_on_c, 8, 56, 127
2, 217189, Note_off_c, 4, 76, 127
2, 217190, Note_off_c, 8, 56, 127
2, 217192, Note_on_c, 11, 58, 127
2, 217192, Note_on_c, 2, 74, 127
2, 217557, Note_off_c, 8, 68, 127
2, 217558, Note_off_c, 2, 74, 127
2, 217558, Note_off_c, 11, 58, 127
2, 217560, Note_on_c, 3, 63, 127
2, 217560, Note_on_c, 6, 66, 127
2, 217560, Note_on_c, 11, 70, 127
2, 217926, Note_off_c, 11, 70, 127
2, 217926, Note_off_c, 6, 66, 127
2, 217930, Note_on_c, 5, 65, 127
2, 217930, Note_on_c, 8, 80, 127
2, 218295, Note_off_c, 3, 63, 127
2, 218296, Note_off_c, 5, 65, 127
2, 218298, Note_on_c, 2, 62, 127
2, 218298, Note_on_c, 5, 77, 127
2, 218664, Note_off_c, 5, 77, 127
2, 218664, Note_off_c, 2, 62, 127
2, 218667, Note_on_c, 6, 66, 127
2, 218667, Note_on_c, 11, 70, 127
2, 219033, Note_off_c, 11, 70, 127
2, 219033, Note_off_c, 8, 80, 127
2, 219036, Note_on_c, 3, 75, 127
2, 219036, Note_on_c, 6, 78, 127
2, 219218, Note_off_c, 6, 78, 127
2, 219218, Note_off_c, 3, 75, 127
2, 219220, Note_on_c, 2, 74, 127
2, 219220, Note_on_c, 5, 77, 127
2, 219402, Note_off_c, 5, 77, 127
2, 219402, Note_off_c, 2, 74, 127
2, 219405, Note_on_c, 3, 75, 127
2, 219405, Note_on_c, 6, 78, 127
2, 219770, Note_off_c, 6, 66, 127
2, 219771, Note_off_c, 6, 78, 127
2, 219773, Note_on_c, 5, 65, 127
2, 219773, Note_on_c, 12, 83, 127
2, 219955, Note_off_c, 5, 65, 127
2, 219957, Note_on_c, 3, 63, 127
2, 220139, Note_off_c, 3, 63, 127
2, 220139, Note_off_c, 12, 83, 127
2, 220143, Note_on_c, 5, 65, 127
2, 220143, Note_on_c, 10, 81, 127
2, 220508, Note_off_c, 3, 75, 127
2, 220509, Note_off_c, 10, 81, 127
2, 220509, Note_off_c, 5, 65, 127
2, 220511, Note_on_c, 11, 70, 127
2, 220511, Note_on_c, 1, 73, 127
2, 220511, Note_on_c, 5, 77, 127
2, 220693, Note_off_c, 1, 73, 127
2, 220695, Note_on_c, 0, 72, 127
2, 220877, Note_off_c, 0, 72, 127
2, 220877, Note_off_c, 5, 77, 127
2, 220880, Note_on_c, 1, 73, 127
2, 220880, Note_on_c, 11, 82, 127
2, 221062, Note_off_c, 11, 82, 127
2, 221064, Note_on_c, 8, 80, 127
2, 221246, Note_off_c, 8, 80, 127
2, 221246, Note_off_c, 11, 70, 127
2, 221248, Note_on_c, 8, 68, 127
2, 221248, Note_on_c, 7, 79, 127
2, 221430, Note_off_c, 7, 79, 127
2, 221433, Note_on_c, 5, 77, 127
2, 221614, Note_off_c, 8, 68, 127
2, 221615, Note_off_c, 5, 77, 127
2, 221618, Note_on_c, 7, 67, 127
2, 221618, Note_on_c, 3, 75, 127
2, 221799, Note_off_c, 1, 73, 127
2, 221802, Note_on_c, 1, 73, 127
2, 221984, Note_off_c, 1, 73, 127
2, 221984, Note_off_c, 7, 67, 127
2, 221986, Note_on_c, 3, 63, 127
2, 221986, Note_on_c, 12, 71, 127
2, 222168, Note_off_c, 12, 71, 127
2, 222170, Note_on_c, 11, 70, 127
2, 222352, Note_off_c, 11, 70, 127
2, 222352, Note_off_c, 3, 63, 127
2, 222355, Note_on_c, 8, 68, 127
2, 222355, Note_on_c, 12, 71, 127
2, 222537, Note_off_c, 3, 75, 127
2, 222540, Note_on_c, 6, 78, 127
2, 222722, Note_off_c, 6, 78, 127
2, 222724, Note_on_c, 5, 77, 127
2, 222906, Note_off_c, 5, 77, 127
2, 222908, Note_on_c, 3, 75, 127
2, 223090, Note_off_c, 3, 75, 127
2, 223090, Note_off_c, 12, 71, 127
2, 223092, Note_on_c, 11, 70, 127
2, 223092, Note_on_c, 2, 74, 127
2, 223274, Note_off_c, 2, 74, 127
2, 223277, Note_on_c, 5, 77, 127
2, 223458, Note_off_c, 8, 68, 127
2, 223459, Note_off_c, 5, 77, 127
2, 223461, Note_on_c, 6, 66, 127
2, 223461, Note_on_c, 3, 75, 127
2, 223643, Note_off_c, 3, 75, 127
2, 223646, Note_on_c, 1, 73, 127
2, 223827, Note_off_c, 11, 70, 127
2, 223828, Note_off_c, 1, 73, 127
2, 223830, Note_on_c, 8, 68, 127
2, 223830, Note_on_c, 0, 72, 127
2, 224011, Note_off_c, 6, 66, 127
2, 224012, Note_off_c, 0, 72, 127
2, 224015, Note_on_c, 6, 66, 127
2, 224015, Note_on_c, 3, 75, 127
2, 224197, Note_off_c, 3, 75, 127
2, 224197, Note_off_c, 6, 66, 127
2, 224199, Note_on_c, 5, 65, 127
2, 224199, Note_on_c, 1, 73, 127
2, 224381, Note_off_c, 1, 73, 127
2, 224381, Note_off_c, 5, 65, 127
2, 224383, Note_on_c, 3, 63, 127
2, 224383, Note_on_c, 12, 71, 127
2, 224565, Note_off_c, 12, 71, 127
2, 224565, Note_off_c, 3, 63, 127
2, 224567, Note_on_c, 2, 62, 127
2, 224567, Note_on_c, 11, 70, 127
2, 224749, Note_off_c, 2, 62, 127
2, 224749, Note_off_c, 8, 68, 127
2, 224752, Note_on_c, 5, 65, 127
2, 224752, Note_on_c, 8, 68, 127
2, 224934, Note_off_c, 8, 68, 127
2, 224934, Note_off_c, 5, 65, 127
2, 224937, Note_on_c, 3, 63, 127
2, 224937, Note_on_c, 6, 66, 127
2, 225119, Note_off_c, 6, 66, 127
2, 225119, Note_off_c, 3, 63, 127
2, 225121, Note_on_c, 1, 61, 127
2, 225121, Note_on_c, 5, 65, 127
2, 225303, Note_off_c, 5, 65, 127
2, 225303, Note_off_c, 1, 61, 127
2, 225305, Note_on_c, 0, 60, 127
2, 225305, Note_on_c, 3, 63, 127
2, 225487, Note_off_c, 3, 63, 127
2, 225490, Note_on_c, 6, 66, 127
2, 225670, Note_off_c, 11, 70, 127
2, 225671, Note_off_c, 0, 60, 127
2, 225672, Note_off_c, 6, 66, 127
2, 225674, Note_on_c, 12, 59, 127
2, 225674, Note_on_c, 5, 65, 127
2, 225674, Note_on_c, 8, 68, 127
2, 225856, Note_off_c, 5, 65, 127
2, 225858, Note_on_c, 3, 63, 127
2, 226040, Note_off_c, 3, 63, 127
2, 226040, Note_off_c, 12, 59, 127
2, 226043, Note_on_c, 11, 58, 127
2, 226043, Note_on_c, 2, 62, 127
2, 226224, Note_off_c, 8, 68, 127
2, 226228, Note_on_c, 5, 65, 127
2, 226407, Note_off_c, 2, 62, 127
2, 226409, Note_off_c, 11, 58, 127
2, 226410, Note_off_c, 5, 65, 127
2, 226412, Note_on_c, 3, 51, 127
2, 226412, Note_on_c, 3, 63, 127
2, 226412, Note_on_c, 6, 66, 127
2, 226594, Note_off_c, 6, 66, 127
2, 226596, Note_on_c, 11, 70, 127
2, 226776, Note_off_c, 3, 63, 127
2, 226778, Note_off_c, 11, 70, 127
2, 226778, Note_off_c, 3, 51, 127
2, 226780, Note_on_c, 3, 51, 127
2, 226780, Note_on_c, 3, 75, 127
2, 226962, Note_off_c, 3, 75, 127
2, 226965, Note_on_c, 11, 70, 127
2, 227146, Note_off_c, 3, 51, 127
2, 227147, Note_off_c, 11, 70, 127
2, 227149, Note_on_c, 3, 51, 127
2, 227149, Note_on_c, 10, 69, 127
2, 227149, Note_on_c, 6, 78, 127
2, 227149, Note_on_c, 0, 60, 127
2, 227515, Note_off_c, 0, 60, 127
2, 227515, Note_off_c, 6, 78, 127
2, 227515, Note_off_c, 10, 69, 127
2, 227515, Note_off_c, 3, 51, 127
2, 227518, Note_on_c, 2, 50, 127
2, 227518, Note_on_c, 5, 65, 127
2, 227518, Note_on_c, 11, 70, 127
2, 227518, Note_on_c, 5, 77, 127
2, 227884, Note_off_c, 2, 50, 127
2, 227887, Note_on_c, 3, 51, 127
2, 228247, Note_off_c, 5, 77, 127
2, 228247, Note_off_c, 11, 70, 127
2, 228247, Note_off_c, 5, 65, 127
2, 228253, Note_off_c, 3, 51, 127
2, 228255, Note_on_c, 5, 53, 127
2, 228625, Note_on_c, 5, 65, 127
2, 228625, Note_on_c, 2, 74, 127
2, 228625, Note_on_c, 12, 83, 127
2, 228991, Note_off_c, 12, 83, 127
2, 228991, Note_off_c, 2, 74, 127
2, 228991, Note_off_c, 5, 65, 127
2, 228993, Note_on_c, 11, 58, 127
2, 228993, Note_on_c, 6, 78, 127
2, 228993, Note_on_c, 11, 82, 127
2, 229358, Note_off_c, 5, 53, 127
2, 229362, Note_on_c, 3, 51, 127
2, 229722, Note_off_c, 11, 82, 127
2, 229722, Note_off_c, 6, 78, 127
2, 229722, Note_off_c, 11, 58, 127
2, 229728, Note_off_c, 3, 51, 127
2, 229731, Note_on_c, 8, 56, 127
2, 230100, Note_on_c, 3, 63, 127
2, 230100, Note_on_c, 12, 71, 127
2, 230100, Note_on_c, 8, 80, 127
2, 230466, Note_off_c, 8, 80, 127
2, 230466, Note_off_c, 12, 71, 127
2, 230466, Note_off_c, 3, 63, 127
2, 230468, Note_on_c, 5, 65, 127
2, 230468, Note_on_c, 11, 70, 127
2, 230468, Note_on_c, 2, 74, 127
2, 230834, Note_off_c, 8, 56, 127
2, 230838, Note_on_c, 6, 54, 127
2, 231020, Note_off_c, 6, 54, 127
2, 231022, Note_on_c, 5, 53, 127
2, 231197, Note_off_c, 2, 74, 127
2, 231197, Note_off_c, 11, 70, 127
2, 231197, Note_off_c, 5, 65, 127
2, 231204, Note_off_c, 5, 53, 127
2, 231206, Note_on_c, 11, 58, 127
2, 231572, Note_off_c, 11, 58, 127
2, 231575, Note_on_c, 8, 56, 127
2, 231575, Note_on_c, 2, 62, 127
2, 231575, Note_on_c, 5, 65, 127
2, 231575, Note_on_c, 5, 77, 127
2, 231941, Note_off_c, 5, 77, 127
2, 231941, Note_off_c, 5, 65, 127
2, 231941, Note_off_c, 2, 62, 127
2, 231941, Note_off_c, 8, 56, 127
2, 231944, Note_on_c, 6, 54, 127
2, 231944, Note_on_c, 3, 63, 127
2, 231944, Note_on_c, 6, 66, 127
2, 231944, Note_on_c, 11, 70, 127
2, 232310, Note_off_c, 11, 70, 127
2, 232310, Note_off_c, 6, 66, 127
2, 232310, Note_off_c, 3, 63, 127
2, 232310, Note_off_c, 6, 54, 127
2, 232312, Note_on_c, 3, 51, 127
2, 232312, Note_on_c, 11, 58, 127
2, 232312, Note_on_c, 6, 66, 127
2, 232312, Note_on_c, 3, 75, 127
2, 232494, Note_off_c, 3, 75, 127
2, 232494, Note_off_c, 6, 66, 127
2, 232494, Note_off_c, 11, 58, 127
2, 232494, Note_off_c, 3, 51, 127
2, 232497, Note_on_c, 5, 53, 127
2, 232497, Note_on_c, 8, 56, 127
2, 232497, Note_on_c, 5, 65, 127
2, 232497, Note_on_c, 2, 74, 127
2, 232679, Note_off_c, 2, 74, 127
2, 232679, Note_off_c, 5, 65, 127
2, 232679, Note_off_c, 8, 56, 127
2, 232679, Note_off_c, 5, 53, 127
2, 232681, Note_on_c, 6, 54, 127
2, 232681, Note_on_c, 11, 58, 127
2, 232681, Note_on_c, 3, 63, 127
2, 232681, Note_on_c, 3, 75, 127
2, 233047, Note_off_c, 3, 75, 127
2, 233047, Note_off_c, 3, 63, 127
2, 233047, Note_off_c, 11, 58, 127
2, 233047, Note_off_c, 6, 54, 127
2, 233049, Note_on_c, 8, 56, 127
2, 233049, Note_on_c, 12, 59, 127
2, 233049, Note_on_c, 5, 65, 127
2, 233049, Note_on_c, 8, 68, 127
2, 233415, Note_off_c, 8, 68, 127
2, 233415, Note_off_c, 12, 59, 127
2, 233415, Note_off_c, 8, 56, 127
2, 233419, Note_on_c, 11, 58, 127
2, 233419, Note_on_c, 6, 66, 127
2, 233784, Note_off_c, 5, 65, 127
2, 233787, Note_on_c, 3, 63, 127
2, 234154, Note_off_c, 6, 66, 127
2, 234156, Note_on_c, 11, 46, 127
2, 234156, Note_on_c, 5, 65, 127
2, 234522, Note_off_c, 3, 63, 127
2, 234522, Note_off_c, 11, 58, 127
2, 234525, Note_on_c, 8, 56, 127
2, 234525, Note_on_c, 2, 62, 127
2, 234891, Note_off_c, 2, 62, 127
2, 234891, Note_off_c, 8, 56, 127
2, 234891, Note_off_c, 5, 65, 127
2, 234891, Note_off_c, 11, 46, 127
2, 234894, Note_on_c, 3, 51, 127
2, 234894, Note_on_c, 6, 54, 127
2, 234894, Note_on_c, 3, 63, 127
2, 235272, Note_off_c, 3, 63, 127
2, 235272, Note_off_c, 6, 54, 127
2, 235274, Note_on_c, 11, 58, 127
2, 235274, Note_on_c, 6, 66, 127
2, 235274, Note_on_c, 3, 75, 127
2, 235462, Note_off_c, 6, 66, 127
2, 235464, Note_on_c, 5, 65, 127
2, 235652, Note_off_c, 5, 65, 127
2, 235652, Note_off_c, 3, 75, 127
2, 235652, Note_off_c, 11, 58, 127
2, 235654, Note_on_c, 11, 58, 127
2, 235654, Note_on_c, 6, 66, 127
2, 235654, Note_on_c, 3, 75, 127
2, 235842, Note_off_c, 6, 66, 127
2, 235845, Note_on_c, 11, 70, 127
2, 236032, Note_off_c, 3, 75, 127
2, 236032, Note_off_c, 11, 58, 127
2, 236033, Note_off_c, 11, 70, 127
2, 236035, Note_on_c, 11, 58, 127
2, 236035, Note_on_c, 8, 68, 127
2, 236035, Note_on_c, 3, 75, 127
2, 236223, Note_off_c, 8, 68, 127
2, 236225, Note_on_c, 6, 66, 127
2, 236413, Note_off_c, 6, 66, 127
2, 236413, Note_off_c, 3, 75, 127
2, 236413, Note_off_c, 11, 58, 127
2, 236415, Note_on_c, 12, 59, 127
2, 236415, Note_on_c, 5, 65, 127
2, 236415, Note_on_c, 2, 74, 127
2, 236603, Note_off_c, 5, 65, 127
2, 236605, Note_on_c, 8, 68, 127
2, 236793, Note_off_c, 8, 68, 127
2, 236793, Note_off_c, 2, 74, 127
2, 236793, Note_off_c, 12, 59, 127
2, 236793, Note_off_c, 3, 51, 127
2, 236795, Note_on_c, 3, 51, 127
2, 236795, Note_on_c, 11, 58, 127
2, 236795, Note_on_c, 6, 66, 127
2, 236795, Note_on_c, 3, 75, 127
2, 236983, Note_off_c, 6, 66, 127
2, 236983, Note_off_c, 3, 51, 127
2, 236985, Note_on_c, 2, 50, 127
2, 236985, Note_on_c, 11, 70, 127
2, 237173, Note_off_c, 11, 70, 127
2, 237173, Note_off_c, 2, 50, 127
2, 237173, Note_off_c, 3, 75, 127
2, 237173, Note_off_c, 11, 58, 127
2, 237176, Note_on_c, 3, 51, 127
2, 237176, Note_on_c, 8, 56, 127
2, 237176, Note_on_c, 12, 71, 127
2, 237176, Note_on_c, 5, 77, 127
2, 237364, Note_off_c, 12, 71, 127
2, 237364, Note_off_c, 3, 51, 127
2, 237366, Note_on_c, 6, 54, 127
2, 237366, Note_on_c, 11, 70, 127
2, 237554, Note_off_c, 11, 70, 127
2, 237554, Note_off_c, 6, 54, 127
2, 237556, Note_on_c, 5, 53, 127
2, 237556, Note_on_c, 12, 71, 127
2, 237744, Note_off_c, 5, 53, 127
2, 237747, Note_on_c, 3, 51, 127
2, 237935, Note_off_c, 3, 51, 127
2, 237937, Note_on_c, 2, 50, 127
2, 238322, Note_off_c, 2, 50, 127
2, 238322, Note_off_c, 12, 71, 127
2, 238322, Note_off_c, 5, 77, 127
2, 238322, Note_off_c, 8, 56, 127
2, 238325, Note_on_c, 6, 54, 127
2, 238325, Note_on_c, 11, 58, 127
2, 238325, Note_on_c, 11, 70, 127
2, 238325, Note_on_c, 3, 75, 127
2, 238710, Note_off_c, 3, 75, 127
2, 238710, Note_off_c, 11, 58, 127
2, 238710, Note_off_c, 6, 54, 127
2, 238713, Note_on_c, 5, 53, 127
2, 238713, Note_on_c, 8, 80, 127
2, 238904, Note_off_c, 11, 70, 127
2, 238906, Note_on_c, 12, 47, 127
2, 238906, Note_on_c, 3, 75, 127
2, 239098, Note_off_c, 3, 75, 127
2, 239098, Note_off_c, 12, 47, 127
2, 239100, Note_on_c, 11, 46, 127
2, 239100, Note_on_c, 2, 74, 127
2, 239292, Note_off_c, 2, 74, 127
2, 239292, Note_off_c, 11, 46, 127
2, 239294, Note_on_c, 8, 44, 127
2, 239294, Note_on_c, 0, 72, 127
2, 239486, Note_off_c, 0, 72, 127
2, 239486, Note_off_c, 8, 44, 127
2, 239488, Note_on_c, 11, 46, 127
2, 239488, Note_on_c, 2, 74, 127
2, 239873, Note_off_c, 2, 74, 127
2, 239874, Note_off_c, 8, 80, 127
2, 239874, Note_off_c, 5, 53, 127
2, 239876, Note_on_c, 6, 54, 127
2, 239876, Note_on_c, 3, 75, 127
2, 239876, Note_on_c, 6, 78, 127
2, 240067, Note_off_c, 11, 46, 127
2, 240068, Note_off_c, 6, 78, 127
2, 240068, Note_off_c, 3, 75, 127
2, 240068, Note_off_c, 6, 54, 127
2, 240070, Note_on_c, 8, 44, 127
2, 240070, Note_on_c, 8, 56, 127
2, 240070, Note_on_c, 5, 77, 127
2, 240262, Note_off_c, 5, 77, 127
2, 240262, Note_off_c, 8, 56, 127
2, 240262, Note_off_c, 8, 44, 127
2, 240264, Note_on_c, 6, 42, 127
2, 240264, Note_on_c, 3, 51, 127
2, 240264, Note_on_c, 11, 82, 127
2, 240264, Note_on_c, 6, 78, 127
2, 240668, Note_off_c, 6, 78, 127
2, 240668, Note_off_c, 11, 82, 127
2, 240668, Note_off_c, 3, 51, 127
2, 240668, Note_off_c, 6, 42, 127
2, 240671, Note_on_c, 11, 46, 127
2, 240671, Note_on_c, 5, 53, 127
2, 240671, Note_on_c, 2, 74, 127
2, 240671, Note_on_c, 8, 80, 127
2, 241075, Note_off_c, 8, 80, 127
2, 241075, Note_off_c, 2, 74, 127
2, 241075, Note_off_c, 5, 53, 127
2, 241075, Note_off_c, 11, 46, 127
2, 241079, Note_on_c, 3, 51, 127
2, 241079, Note_on_c, 6, 54, 127
2, 241079, Note_on_c, 3, 75, 127
2, 241079, Note_on_c, 6, 78, 127
2, 241483, Note_off_c, 6, 78, 127
2, 241483, Note_off_c, 3, 75, 127
2, 241483, Note_off_c, 6, 54, 127
2, 241483, Note_off_c, 3, 51, 127
2, 241486, Note_on_c, 5, 53, 127
2, 241486, Note_on_c, 12, 59, 127
2, 241486, Note_on_c, 8, 68, 127
2, 241486, Note_on_c, 2, 74, 127
2, 241890, Note_off_c, 2, 74, 127
2, 241890, Note_off_c, 8, 68, 127
2, 241890, Note_off_c, 12, 59, 127
2, 241890, Note_off_c, 5, 53, 127
2, 241893, Note_on_c, 6, 54, 127
2, 241893, Note_on_c, 11, 58, 127
2, 241893, Note_on_c, 6, 66, 127
2, 241893, Note_on_c, 3, 75, 127
2, 242093, Note_off_c, 6, 66, 127
2, 242097, Note_on_c, 5, 65, 127
2, 242297, Note_off_c, 5, 65, 127
2, 242297, Note_off_c, 11, 58, 127
2, 242297, Note_off_c, 6, 54, 127
2, 242300, Note_on_c, 10, 45, 127
2, 242300, Note_on_c, 3, 51, 127
2, 242300, Note_on_c, 6, 66, 127
2, 242300, Note_on_c, 12, 71, 127
2, 242500, Note_off_c, 3, 51, 127
2, 242504, Note_on_c, 5, 53, 127
2, 242702, Note_off_c, 12, 71, 127
2, 242704, Note_off_c, 5, 53, 127
2, 242704, Note_off_c, 6, 66, 127
2, 242704, Note_off_c, 10, 45, 127
2, 242708, Note_on_c, 11, 46, 127
2, 242708, Note_on_c, 6, 54, 127
2, 242708, Note_on_c, 11, 70, 127
2, 243162, Note_off_c, 6, 54, 127
2, 243164, Note_on_c, 5, 53, 127
2, 243164, Note_on_c, 8, 68, 127
2, 243389, Note_off_c, 8, 68, 127
2, 243389, Note_off_c, 5, 53, 127
2, 243393, Note_on_c, 3, 51, 127
2, 243393, Note_on_c, 6, 66, 127
2, 243618, Note_off_c, 6, 66, 127
2, 243618, Note_off_c, 3, 51, 127
2, 243619, Note_off_c, 3, 75, 127
2, 243622, Note_on_c, 11, 58, 127
2, 243622, Note_on_c, 5, 65, 127
2, 243622, Note_on_c, 2, 74, 127
2, 243847, Note_off_c, 5, 65, 127
2, 243850, Note_on_c, 6, 66, 127
2, 244074, Note_off_c, 11, 58, 127
2, 244075, Note_off_c, 6, 66, 127
2, 244079, Note_on_c, 8, 68, 127
2, 244079, Note_on_c, 5, 65, 127
2, 244533, Note_off_c, 5, 65, 127
2, 244533, Note_off_c, 8, 68, 127
2, 244533, Note_off_c, 2, 74, 127
2, 244533, Note_off_c, 11, 70, 127
2, 244533, Note_off_c, 11, 46, 127
2, 244537, Note_on_c, 3, 39, 127
2, 244537, Note_on_c, 7, 67, 127
2, 244537, Note_on_c, 3, 63, 127
2, 244537, Note_on_c, 11, 70, 127
2, 244537, Note_on_c, 3, 75, 127
2, 247968, Note_off_c, 3, 75, 127
2, 247968, Note_off_c, 11, 70, 127
2, 247968, Note_off_c, 3, 63, 127
2, 247968, Note_off_c, 7, 67, 127
2, 247968, Note_off_c, 3, 39, 127
2, 251904, End_track
3, 0, Start_track
3, 0, Title_t, "MIDI"
3, 1536, End_track
0, 0, End_of_file
