0, 0, Header, 1, 3, 384
1, 0, Start_track
1, 0, Time_signature, 4, 2, 24, 8
1, 0, Tempo, 500000
1, 145920, End_track
2, 0, Start_track
2, 0, Text_t, "harpsichord: John Sankey"
2, 0, Program_c, 0, 6
2, 0, Pitch_bend_c, 0, 8192
2, 0, Program_c, 1, 6
2, 0, Pitch_bend_c, 1, 7792
2, 0, Program_c, 2, 6
2, 0, Pitch_bend_c, 2, 7876
2, 0, Program_c, 3, 6
2, 0, Pitch_bend_c, 3, 7952
2, 0, Program_c, 4, 6
2, 0, Pitch_bend_c, 4, 7792
2, 0, Program_c, 5, 6
2, 0, Pitch_bend_c, 5, 8112
2, 0, Program_c, 6, 6
2, 0, Pitch_bend_c, 6, 7712
2, 0, Program_c, 7, 6
2, 0, Pitch_bend_c, 7, 8037
2, 0, Program_c, 8, 6
2, 0, Pitch_bend_c, 8, 7872
2, 0, Program_c, 10, 6
2, 0, Pitch_bend_c, 10, 7712
2, 0, Program_c, 11, 6
2, 0, Pitch_bend_c, 11, 8032
2, 0, Program_c, 12, 6
2, 0, Pitch_bend_c, 12, 7872
2, 0, Title_t, "Track 1"
2, 64, Note_on_c, 2, 50, 127
2, 159, Note_on_c, 2, 74, 127
2, 254, Note_on_c, 4, 76, 127
2, 255, Note_off_c, 2, 74, 127
2, 349, Note_on_c, 6, 78, 127
2, 350, Note_off_c, 4, 76, 127
2, 444, Note_on_c, 10, 69, 127
2, 444, Note_on_c, 2, 62, 127
2, 445, Note_off_c, 6, 78, 127
2, 539, Note_on_c, 6, 78, 127
2, 634, Note_on_c, 4, 76, 127
2, 635, Note_off_c, 6, 78, 127
2, 729, Note_on_c, 2, 74, 127
2, 730, Note_off_c, 4, 76, 127
2, 822, Note_off_c, 2, 50, 127
2, 824, Note_on_c, 10, 81, 127
2, 824, Note_on_c, 6, 54, 127
2, 825, Note_off_c, 2, 74, 127
2, 919, Note_on_c, 2, 74, 127
2, 920, Note_off_c, 10, 81, 127
2, 1014, Note_on_c, 4, 76, 127
2, 1015, Note_off_c, 2, 74, 127
2, 1109, Note_on_c, 6, 78, 127
2, 1110, Note_off_c, 4, 76, 127
2, 1202, Note_off_c, 2, 62, 127
2, 1203, Note_off_c, 10, 69, 127
2, 1204, Note_on_c, 10, 69, 127
2, 1204, Note_on_c, 2, 62, 127
2, 1205, Note_off_c, 6, 78, 127
2, 1299, Note_on_c, 6, 78, 127
2, 1394, Note_on_c, 4, 76, 127
2, 1395, Note_off_c, 6, 78, 127
2, 1489, Note_on_c, 2, 74, 127
2, 1490, Note_off_c, 4, 76, 127
2, 1582, Note_off_c, 2, 62, 127
2, 1582, Note_off_c, 10, 69, 127
2, 1582, Note_off_c, 6, 54, 127
2, 1584, Note_on_c, 7, 79, 127
2, 1584, Note_on_c, 4, 52, 127
2, 1585, Note_off_c, 2, 74, 127
2, 1679, Note_on_c, 4, 76, 127
2, 1680, Note_off_c, 7, 79, 127
2, 1774, Note_on_c, 6, 78, 127
2, 1775, Note_off_c, 4, 76, 127
2, 1869, Note_on_c, 7, 79, 127
2, 1870, Note_off_c, 6, 78, 127
2, 1964, Note_on_c, 12, 71, 127
2, 1964, Note_on_c, 2, 62, 127
2, 1965, Note_off_c, 7, 79, 127
2, 2060, Note_on_c, 2, 74, 127
2, 2155, Note_on_c, 1, 73, 127
2, 2156, Note_off_c, 2, 74, 127
2, 2248, Note_off_c, 12, 71, 127
2, 2250, Note_on_c, 12, 71, 127
2, 2251, Note_off_c, 1, 73, 127
2, 2342, Note_off_c, 4, 52, 127
2, 2345, Note_on_c, 1, 73, 127
2, 2345, Note_on_c, 10, 57, 127
2, 2346, Note_off_c, 12, 71, 127
2, 2440, Note_on_c, 4, 76, 127
2, 2535, Note_on_c, 6, 78, 127
2, 2536, Note_off_c, 4, 76, 127
2, 2630, Note_on_c, 7, 79, 127
2, 2631, Note_off_c, 6, 78, 127
2, 2722, Note_off_c, 2, 62, 127
2, 2723, Note_off_c, 1, 73, 127
2, 2725, Note_on_c, 10, 69, 127
2, 2725, Note_on_c, 1, 61, 127
2, 2726, Note_off_c, 7, 79, 127
2, 2820, Note_on_c, 7, 79, 127
2, 2915, Note_on_c, 6, 78, 127
2, 2916, Note_off_c, 7, 79, 127
2, 3010, Note_on_c, 4, 76, 127
2, 3011, Note_off_c, 6, 78, 127
2, 3103, Note_off_c, 1, 61, 127
2, 3103, Note_off_c, 10, 69, 127
2, 3103, Note_off_c, 10, 57, 127
2, 3105, Note_on_c, 6, 78, 127
2, 3105, Note_on_c, 2, 50, 127
2, 3106, Note_off_c, 4, 76, 127
2, 3200, Note_on_c, 2, 74, 127
2, 3201, Note_off_c, 6, 78, 127
2, 3295, Note_on_c, 4, 76, 127
2, 3296, Note_off_c, 2, 74, 127
2, 3390, Note_on_c, 6, 78, 127
2, 3391, Note_off_c, 4, 76, 127
2, 3485, Note_on_c, 10, 69, 127
2, 3485, Note_on_c, 2, 62, 127
2, 3486, Note_off_c, 6, 78, 127
2, 3580, Note_on_c, 1, 73, 127
2, 3675, Note_on_c, 12, 71, 127
2, 3676, Note_off_c, 1, 73, 127
2, 3769, Note_off_c, 10, 69, 127
2, 3770, Note_on_c, 10, 69, 127
2, 3771, Note_off_c, 12, 71, 127
2, 3863, Note_off_c, 2, 50, 127
2, 3865, Note_on_c, 12, 71, 127
2, 3865, Note_on_c, 2, 50, 127
2, 3866, Note_off_c, 10, 69, 127
2, 3961, Note_on_c, 2, 74, 127
2, 4056, Note_on_c, 4, 76, 127
2, 4057, Note_off_c, 2, 74, 127
2, 4151, Note_on_c, 6, 78, 127
2, 4152, Note_off_c, 4, 76, 127
2, 4243, Note_off_c, 12, 71, 127
2, 4243, Note_off_c, 2, 62, 127
2, 4246, Note_on_c, 12, 71, 127
2, 4246, Note_on_c, 2, 62, 127
2, 4247, Note_off_c, 6, 78, 127
2, 4341, Note_on_c, 10, 81, 127
2, 4436, Note_on_c, 8, 80, 127
2, 4437, Note_off_c, 10, 81, 127
2, 4531, Note_on_c, 6, 78, 127
2, 4532, Note_off_c, 8, 80, 127
2, 4623, Note_off_c, 2, 50, 127
2, 4624, Note_off_c, 2, 62, 127
2, 4624, Note_off_c, 12, 71, 127
2, 4626, Note_on_c, 8, 80, 127
2, 4626, Note_on_c, 2, 50, 127
2, 4627, Note_off_c, 6, 78, 127
2, 4721, Note_on_c, 4, 76, 127
2, 4722, Note_off_c, 8, 80, 127
2, 4816, Note_on_c, 6, 78, 127
2, 4817, Note_off_c, 4, 76, 127
2, 4911, Note_on_c, 8, 80, 127
2, 4912, Note_off_c, 6, 78, 127
2, 5006, Note_on_c, 12, 71, 127
2, 5006, Note_on_c, 8, 56, 127
2, 5007, Note_off_c, 8, 80, 127
2, 5101, Note_on_c, 2, 74, 127
2, 5196, Note_on_c, 1, 73, 127
2, 5197, Note_off_c, 2, 74, 127
2, 5290, Note_off_c, 12, 71, 127
2, 5291, Note_on_c, 12, 71, 127
2, 5292, Note_off_c, 1, 73, 127
2, 5384, Note_off_c, 2, 50, 127
2, 5386, Note_on_c, 10, 69, 127
2, 5386, Note_on_c, 1, 49, 127
2, 5387, Note_off_c, 12, 71, 127
2, 5481, Note_on_c, 1, 73, 127
2, 5576, Note_on_c, 2, 74, 127
2, 5577, Note_off_c, 1, 73, 127
2, 5671, Note_on_c, 4, 76, 127
2, 5672, Note_off_c, 2, 74, 127
2, 5764, Note_off_c, 10, 69, 127
2, 5764, Note_off_c, 8, 56, 127
2, 5766, Note_on_c, 6, 66, 127
2, 5766, Note_on_c, 10, 57, 127
2, 5767, Note_off_c, 4, 76, 127
2, 5862, Note_on_c, 4, 76, 127
2, 5957, Note_on_c, 2, 74, 127
2, 5958, Note_off_c, 4, 76, 127
2, 6052, Note_on_c, 1, 73, 127
2, 6053, Note_off_c, 2, 74, 127
2, 6144, Note_off_c, 10, 57, 127
2, 6144, Note_off_c, 6, 66, 127
2, 6144, Note_off_c, 1, 49, 127
2, 6147, Note_on_c, 2, 74, 127
2, 6147, Note_on_c, 12, 47, 127
2, 6148, Note_off_c, 1, 73, 127
2, 6242, Note_on_c, 12, 71, 127
2, 6243, Note_off_c, 2, 74, 127
2, 6337, Note_on_c, 1, 73, 127
2, 6338, Note_off_c, 12, 71, 127
2, 6432, Note_on_c, 2, 74, 127
2, 6433, Note_off_c, 1, 73, 127
2, 6527, Note_on_c, 6, 66, 127
2, 6527, Note_on_c, 10, 57, 127
2, 6528, Note_off_c, 2, 74, 127
2, 6622, Note_on_c, 10, 69, 127
2, 6717, Note_on_c, 8, 68, 127
2, 6718, Note_off_c, 10, 69, 127
2, 6811, Note_off_c, 6, 66, 127
2, 6812, Note_on_c, 6, 66, 127
2, 6813, Note_off_c, 8, 68, 127
2, 6905, Note_off_c, 12, 47, 127
2, 6907, Note_on_c, 8, 68, 127
2, 6907, Note_on_c, 4, 52, 127
2, 6908, Note_off_c, 6, 66, 127
2, 6923, Note_off_c, 10, 57, 127
2, 7002, Note_on_c, 12, 71, 127
2, 7097, Note_on_c, 1, 73, 127
2, 7098, Note_off_c, 12, 71, 127
2, 7192, Note_on_c, 2, 74, 127
2, 7193, Note_off_c, 1, 73, 127
2, 7285, Note_off_c, 8, 68, 127
2, 7287, Note_on_c, 4, 64, 127
2, 7287, Note_on_c, 8, 56, 127
2, 7288, Note_off_c, 2, 74, 127
2, 7382, Note_on_c, 2, 74, 127
2, 7477, Note_on_c, 1, 73, 127
2, 7478, Note_off_c, 2, 74, 127
2, 7572, Note_on_c, 12, 71, 127
2, 7573, Note_off_c, 1, 73, 127
2, 7665, Note_off_c, 8, 56, 127
2, 7665, Note_off_c, 4, 64, 127
2, 7665, Note_off_c, 4, 52, 127
2, 7667, Note_on_c, 1, 73, 127
2, 7667, Note_on_c, 10, 45, 127
2, 7668, Note_off_c, 12, 71, 127
2, 7763, Note_off_c, 1, 73, 127
2, 7763, Note_on_c, 10, 69, 127
2, 7858, Note_on_c, 12, 71, 127
2, 7859, Note_off_c, 10, 69, 127
2, 7953, Note_on_c, 1, 73, 127
2, 7954, Note_off_c, 12, 71, 127
2, 8048, Note_on_c, 4, 64, 127
2, 8048, Note_on_c, 10, 57, 127
2, 8049, Note_off_c, 1, 73, 127
2, 8143, Note_on_c, 7, 67, 127
2, 8238, Note_on_c, 6, 66, 127
2, 8239, Note_off_c, 7, 67, 127
2, 8332, Note_off_c, 4, 64, 127
2, 8333, Note_on_c, 4, 64, 127
2, 8334, Note_off_c, 6, 66, 127
2, 8425, Note_off_c, 10, 45, 127
2, 8428, Note_on_c, 6, 66, 127
2, 8428, Note_on_c, 10, 45, 127
2, 8429, Note_off_c, 4, 64, 127
2, 8523, Note_on_c, 10, 69, 127
2, 8618, Note_on_c, 12, 71, 127
2, 8619, Note_off_c, 10, 69, 127
2, 8713, Note_on_c, 1, 73, 127
2, 8714, Note_off_c, 12, 71, 127
2, 8806, Note_off_c, 6, 66, 127
2, 8806, Note_off_c, 10, 57, 127
2, 8808, Note_on_c, 6, 66, 127
2, 8808, Note_on_c, 10, 57, 127
2, 8809, Note_off_c, 1, 73, 127
2, 8903, Note_on_c, 4, 76, 127
2, 8998, Note_on_c, 3, 75, 127
2, 8999, Note_off_c, 4, 76, 127
2, 9093, Note_on_c, 1, 73, 127
2, 9094, Note_off_c, 3, 75, 127
2, 9186, Note_off_c, 10, 57, 127
2, 9186, Note_off_c, 6, 66, 127
2, 9186, Note_off_c, 10, 45, 127
2, 9188, Note_on_c, 3, 75, 127
2, 9188, Note_on_c, 10, 45, 127
2, 9189, Note_off_c, 1, 73, 127
2, 9283, Note_on_c, 12, 71, 127
2, 9284, Note_off_c, 3, 75, 127
2, 9378, Note_on_c, 1, 73, 127
2, 9379, Note_off_c, 12, 71, 127
2, 9473, Note_on_c, 3, 75, 127
2, 9474, Note_off_c, 1, 73, 127
2, 9568, Note_on_c, 6, 66, 127
2, 9568, Note_on_c, 3, 51, 127
2, 9569, Note_off_c, 3, 75, 127
2, 9664, Note_on_c, 10, 69, 127
2, 9759, Note_on_c, 7, 67, 127
2, 9760, Note_off_c, 10, 69, 127
2, 9852, Note_off_c, 6, 66, 127
2, 9854, Note_on_c, 6, 66, 127
2, 9855, Note_off_c, 7, 67, 127
2, 9946, Note_off_c, 3, 51, 127
2, 9946, Note_off_c, 10, 45, 127
2, 9949, Note_on_c, 4, 64, 127
2, 9949, Note_on_c, 7, 43, 127
2, 9950, Note_off_c, 6, 66, 127
2, 10044, Note_on_c, 7, 67, 127
2, 10139, Note_on_c, 10, 69, 127
2, 10140, Note_off_c, 7, 67, 127
2, 10234, Note_on_c, 12, 71, 127
2, 10235, Note_off_c, 10, 69, 127
2, 10327, Note_off_c, 4, 64, 127
2, 10329, Note_on_c, 1, 61, 127
2, 10329, Note_on_c, 4, 52, 127
2, 10330, Note_off_c, 12, 71, 127
2, 10424, Note_on_c, 2, 74, 127
2, 10519, Note_on_c, 1, 73, 127
2, 10520, Note_off_c, 2, 74, 127
2, 10614, Note_on_c, 12, 71, 127
2, 10615, Note_off_c, 1, 73, 127
2, 10707, Note_off_c, 4, 52, 127
2, 10707, Note_off_c, 1, 61, 127
2, 10707, Note_off_c, 7, 43, 127
2, 10709, Note_on_c, 11, 70, 127
2, 10709, Note_on_c, 6, 42, 127
2, 10710, Note_off_c, 12, 71, 127
2, 10804, Note_on_c, 4, 64, 127
2, 10805, Note_off_c, 11, 70, 127
2, 10899, Note_on_c, 6, 66, 127
2, 10900, Note_off_c, 4, 64, 127
2, 10994, Note_on_c, 7, 67, 127
2, 10995, Note_off_c, 6, 66, 127
2, 11089, Note_on_c, 1, 61, 127
2, 11089, Note_on_c, 6, 54, 127
2, 11090, Note_off_c, 7, 67, 127
2, 11184, Note_on_c, 7, 67, 127
2, 11279, Note_on_c, 6, 66, 127
2, 11280, Note_off_c, 7, 67, 127
2, 11374, Note_on_c, 4, 64, 127
2, 11375, Note_off_c, 6, 66, 127
2, 11467, Note_off_c, 1, 61, 127
2, 11467, Note_off_c, 6, 42, 127
2, 11469, Note_on_c, 2, 62, 127
2, 11469, Note_on_c, 6, 42, 127
2, 11470, Note_off_c, 4, 64, 127
2, 11564, Note_on_c, 12, 71, 127
2, 11660, Note_off_c, 12, 71, 127
2, 11660, Note_on_c, 1, 73, 127
2, 11755, Note_on_c, 2, 74, 127
2, 11756, Note_off_c, 1, 73, 127
2, 11847, Note_off_c, 2, 62, 127
2, 11847, Note_off_c, 6, 54, 127
2, 11850, Note_on_c, 6, 66, 127
2, 11850, Note_on_c, 6, 54, 127
2, 11851, Note_off_c, 2, 74, 127
2, 11945, Note_on_c, 10, 69, 127
2, 12040, Note_on_c, 8, 68, 127
2, 12041, Note_off_c, 10, 69, 127
2, 12134, Note_off_c, 6, 66, 127
2, 12135, Note_on_c, 6, 66, 127
2, 12136, Note_off_c, 8, 68, 127
2, 12227, Note_off_c, 6, 42, 127
2, 12230, Note_on_c, 5, 65, 127
2, 12230, Note_on_c, 6, 42, 127
2, 12231, Note_off_c, 6, 66, 127
2, 12325, Note_on_c, 8, 68, 127
2, 12326, Note_off_c, 5, 65, 127
2, 12420, Note_on_c, 10, 69, 127
2, 12421, Note_off_c, 8, 68, 127
2, 12515, Note_on_c, 12, 71, 127
2, 12516, Note_off_c, 10, 69, 127
2, 12608, Note_off_c, 6, 54, 127
2, 12610, Note_on_c, 5, 65, 127
2, 12610, Note_on_c, 6, 54, 127
2, 12611, Note_off_c, 12, 71, 127
2, 12705, Note_on_c, 2, 74, 127
2, 12800, Note_on_c, 1, 73, 127
2, 12801, Note_off_c, 2, 74, 127
2, 12895, Note_on_c, 12, 71, 127
2, 12896, Note_off_c, 1, 73, 127
2, 12988, Note_off_c, 5, 65, 127
2, 12988, Note_off_c, 6, 42, 127
2, 12990, Note_on_c, 8, 80, 127
2, 12990, Note_on_c, 6, 42, 127
2, 12991, Note_off_c, 12, 71, 127
2, 13085, Note_on_c, 5, 77, 127
2, 13180, Note_on_c, 6, 78, 127
2, 13181, Note_off_c, 5, 77, 127
2, 13274, Note_off_c, 8, 80, 127
2, 13275, Note_on_c, 8, 80, 127
2, 13276, Note_off_c, 6, 78, 127
2, 13368, Note_off_c, 6, 54, 127
2, 13370, Note_on_c, 1, 73, 127
2, 13370, Note_on_c, 6, 54, 127
2, 13371, Note_off_c, 8, 80, 127
2, 13465, Note_on_c, 12, 83, 127
2, 13561, Note_off_c, 12, 83, 127
2, 13561, Note_on_c, 10, 81, 127
2, 13656, Note_on_c, 8, 80, 127
2, 13657, Note_off_c, 10, 81, 127
2, 13748, Note_off_c, 6, 54, 127
2, 13748, Note_off_c, 1, 73, 127
2, 13748, Note_off_c, 6, 42, 127
2, 13751, Note_on_c, 10, 81, 127
2, 13751, Note_on_c, 6, 42, 127
2, 13752, Note_off_c, 8, 80, 127
2, 13846, Note_on_c, 6, 78, 127
2, 13847, Note_off_c, 10, 81, 127
2, 13941, Note_on_c, 8, 80, 127
2, 13942, Note_off_c, 6, 78, 127
2, 14036, Note_on_c, 10, 81, 127
2, 14037, Note_off_c, 8, 80, 127
2, 14131, Note_on_c, 1, 73, 127
2, 14131, Note_on_c, 6, 54, 127
2, 14132, Note_off_c, 10, 81, 127
2, 14226, Note_on_c, 4, 76, 127
2, 14321, Note_on_c, 3, 75, 127
2, 14322, Note_off_c, 4, 76, 127
2, 14415, Note_off_c, 1, 73, 127
2, 14416, Note_on_c, 1, 73, 127
2, 14417, Note_off_c, 3, 75, 127
2, 14509, Note_off_c, 6, 42, 127
2, 14511, Note_on_c, 3, 75, 127
2, 14511, Note_on_c, 12, 47, 127
2, 14512, Note_off_c, 1, 73, 127
2, 14606, Note_on_c, 6, 78, 127
2, 14701, Note_on_c, 7, 79, 127
2, 14702, Note_off_c, 6, 78, 127
2, 14796, Note_on_c, 10, 81, 127
2, 14797, Note_off_c, 7, 79, 127
2, 14889, Note_off_c, 3, 75, 127
2, 14889, Note_off_c, 6, 54, 127
2, 14891, Note_on_c, 12, 71, 127
2, 14891, Note_on_c, 3, 51, 127
2, 14892, Note_off_c, 10, 81, 127
2, 14986, Note_on_c, 10, 81, 127
2, 15081, Note_on_c, 7, 79, 127
2, 15082, Note_off_c, 10, 81, 127
2, 15176, Note_on_c, 6, 78, 127
2, 15177, Note_off_c, 7, 79, 127
2, 15269, Note_off_c, 3, 51, 127
2, 15269, Note_off_c, 12, 71, 127
2, 15269, Note_off_c, 12, 47, 127
2, 15271, Note_on_c, 7, 79, 127
2, 15271, Note_on_c, 4, 40, 127
2, 15272, Note_off_c, 6, 78, 127
2, 15366, Note_on_c, 4, 76, 127
2, 15367, Note_off_c, 7, 79, 127
2, 15462, Note_off_c, 4, 76, 127
2, 15462, Note_on_c, 6, 78, 127
2, 15557, Note_on_c, 7, 79, 127
2, 15558, Note_off_c, 6, 78, 127
2, 15652, Note_on_c, 12, 71, 127
2, 15652, Note_on_c, 4, 52, 127
2, 15653, Note_off_c, 7, 79, 127
2, 15747, Note_on_c, 2, 74, 127
2, 15842, Note_on_c, 0, 72, 127
2, 15843, Note_off_c, 2, 74, 127
2, 15936, Note_off_c, 12, 71, 127
2, 15937, Note_on_c, 12, 71, 127
2, 15938, Note_off_c, 0, 72, 127
2, 16029, Note_off_c, 4, 40, 127
2, 16032, Note_on_c, 0, 72, 127
2, 16032, Note_on_c, 4, 40, 127
2, 16033, Note_off_c, 12, 71, 127
2, 16127, Note_on_c, 3, 75, 127
2, 16222, Note_on_c, 4, 76, 127
2, 16223, Note_off_c, 3, 75, 127
2, 16317, Note_on_c, 6, 78, 127
2, 16318, Note_off_c, 4, 76, 127
2, 16410, Note_off_c, 0, 72, 127
2, 16410, Note_off_c, 4, 52, 127
2, 16412, Note_on_c, 10, 69, 127
2, 16412, Note_on_c, 3, 51, 127
2, 16413, Note_off_c, 6, 78, 127
2, 16507, Note_on_c, 0, 72, 127
2, 16602, Note_on_c, 12, 71, 127
2, 16603, Note_off_c, 0, 72, 127
2, 16696, Note_off_c, 10, 69, 127
2, 16697, Note_on_c, 10, 69, 127
2, 16698, Note_off_c, 12, 71, 127
2, 16790, Note_off_c, 3, 51, 127
2, 16790, Note_off_c, 4, 40, 127
2, 16792, Note_on_c, 7, 67, 127
2, 16792, Note_on_c, 4, 40, 127
2, 16793, Note_off_c, 10, 69, 127
2, 16887, Note_on_c, 4, 76, 127
2, 16982, Note_on_c, 6, 78, 127
2, 16983, Note_off_c, 4, 76, 127
2, 17077, Note_on_c, 7, 79, 127
2, 17078, Note_off_c, 6, 78, 127
2, 17172, Note_on_c, 12, 71, 127
2, 17172, Note_on_c, 4, 52, 127
2, 17173, Note_off_c, 7, 79, 127
2, 17174, Note_off_c, 7, 67, 127
2, 17267, Note_on_c, 2, 74, 127
2, 17363, Note_off_c, 2, 74, 127
2, 17363, Note_on_c, 1, 73, 127
2, 17456, Note_off_c, 12, 71, 127
2, 17458, Note_on_c, 12, 71, 127
2, 17459, Note_off_c, 1, 73, 127
2, 17550, Note_off_c, 4, 40, 127
2, 17553, Note_on_c, 1, 73, 127
2, 17553, Note_on_c, 10, 45, 127
2, 17554, Note_off_c, 12, 71, 127
2, 17648, Note_on_c, 4, 76, 127
2, 17743, Note_on_c, 6, 78, 127
2, 17744, Note_off_c, 4, 76, 127
2, 17838, Note_on_c, 7, 79, 127
2, 17839, Note_off_c, 6, 78, 127
2, 17930, Note_off_c, 4, 52, 127
2, 17931, Note_off_c, 1, 73, 127
2, 17933, Note_on_c, 10, 69, 127
2, 17933, Note_on_c, 1, 49, 127
2, 17934, Note_off_c, 7, 79, 127
2, 18028, Note_on_c, 7, 79, 127
2, 18123, Note_on_c, 6, 78, 127
2, 18124, Note_off_c, 7, 79, 127
2, 18218, Note_on_c, 4, 76, 127
2, 18219, Note_off_c, 6, 78, 127
2, 18311, Note_off_c, 1, 49, 127
2, 18311, Note_off_c, 10, 69, 127
2, 18311, Note_off_c, 10, 45, 127
2, 18313, Note_on_c, 6, 78, 127
2, 18313, Note_on_c, 2, 38, 127
2, 18314, Note_off_c, 4, 76, 127
2, 18408, Note_on_c, 2, 74, 127
2, 18409, Note_off_c, 6, 78, 127
2, 18503, Note_on_c, 4, 76, 127
2, 18504, Note_off_c, 2, 74, 127
2, 18598, Note_on_c, 6, 78, 127
2, 18599, Note_off_c, 4, 76, 127
2, 18693, Note_on_c, 10, 69, 127
2, 18693, Note_on_c, 2, 50, 127
2, 18694, Note_off_c, 6, 78, 127
2, 18788, Note_on_c, 0, 72, 127
2, 18883, Note_on_c, 12, 71, 127
2, 18884, Note_off_c, 0, 72, 127
2, 18977, Note_off_c, 10, 69, 127
2, 18978, Note_on_c, 10, 69, 127
2, 18979, Note_off_c, 12, 71, 127
2, 19071, Note_off_c, 2, 38, 127
2, 19073, Note_on_c, 12, 71, 127
2, 19073, Note_on_c, 2, 38, 127
2, 19074, Note_off_c, 10, 69, 127
2, 19168, Note_on_c, 7, 67, 127
2, 19264, Note_off_c, 7, 67, 127
2, 19264, Note_on_c, 10, 69, 127
2, 19357, Note_off_c, 12, 71, 127
2, 19359, Note_on_c, 12, 71, 127
2, 19360, Note_off_c, 10, 69, 127
2, 19451, Note_off_c, 2, 50, 127
2, 19454, Note_on_c, 1, 61, 127
2, 19454, Note_on_c, 2, 50, 127
2, 19455, Note_off_c, 12, 71, 127
2, 19549, Note_on_c, 12, 71, 127
2, 19644, Note_on_c, 10, 69, 127
2, 19645, Note_off_c, 12, 71, 127
2, 19739, Note_on_c, 7, 67, 127
2, 19740, Note_off_c, 10, 69, 127
2, 19831, Note_off_c, 2, 38, 127
2, 19832, Note_off_c, 2, 50, 127
2, 19832, Note_off_c, 1, 61, 127
2, 19834, Note_on_c, 6, 66, 127
2, 19834, Note_on_c, 2, 38, 127
2, 19835, Note_off_c, 7, 67, 127
2, 19929, Note_on_c, 2, 62, 127
2, 19930, Note_off_c, 6, 66, 127
2, 20024, Note_on_c, 4, 64, 127
2, 20025, Note_off_c, 2, 62, 127
2, 20119, Note_on_c, 6, 66, 127
2, 20120, Note_off_c, 4, 64, 127
2, 20214, Note_on_c, 10, 57, 127
2, 20214, Note_on_c, 2, 50, 127
2, 20215, Note_off_c, 6, 66, 127
2, 20309, Note_on_c, 0, 60, 127
2, 20404, Note_on_c, 12, 59, 127
2, 20405, Note_off_c, 0, 60, 127
2, 20498, Note_off_c, 10, 57, 127
2, 20499, Note_on_c, 10, 57, 127
2, 20500, Note_off_c, 12, 59, 127
2, 20592, Note_off_c, 2, 38, 127
2, 20594, Note_on_c, 12, 59, 127
2, 20594, Note_on_c, 2, 38, 127
2, 20595, Note_off_c, 10, 57, 127
2, 20689, Note_on_c, 2, 62, 127
2, 20784, Note_on_c, 4, 64, 127
2, 20785, Note_off_c, 2, 62, 127
2, 20879, Note_on_c, 6, 66, 127
2, 20880, Note_off_c, 4, 64, 127
2, 20972, Note_off_c, 12, 59, 127
2, 20972, Note_off_c, 2, 50, 127
2, 20974, Note_on_c, 12, 59, 127
2, 20974, Note_on_c, 2, 50, 127
2, 20975, Note_off_c, 6, 66, 127
2, 21069, Note_on_c, 10, 69, 127
2, 21164, Note_on_c, 8, 68, 127
2, 21165, Note_off_c, 10, 69, 127
2, 21260, Note_off_c, 8, 68, 127
2, 21260, Note_on_c, 6, 66, 127
2, 21352, Note_off_c, 2, 50, 127
2, 21352, Note_off_c, 12, 59, 127
2, 21352, Note_off_c, 2, 38, 127
2, 21355, Note_on_c, 8, 68, 127
2, 21355, Note_on_c, 2, 38, 127
2, 21356, Note_off_c, 6, 66, 127
2, 21450, Note_on_c, 4, 64, 127
2, 21451, Note_off_c, 8, 68, 127
2, 21545, Note_on_c, 6, 66, 127
2, 21546, Note_off_c, 4, 64, 127
2, 21640, Note_on_c, 8, 68, 127
2, 21641, Note_off_c, 6, 66, 127
2, 21733, Note_off_c, 2, 38, 127
2, 21735, Note_on_c, 12, 59, 127
2, 21735, Note_on_c, 8, 56, 127
2, 21736, Note_off_c, 8, 68, 127
2, 21830, Note_on_c, 2, 62, 127
2, 21925, Note_on_c, 0, 60, 127
2, 21926, Note_off_c, 2, 62, 127
2, 22019, Note_off_c, 12, 59, 127
2, 22020, Note_on_c, 12, 59, 127
2, 22021, Note_off_c, 0, 60, 127
2, 22113, Note_off_c, 8, 56, 127
2, 22115, Note_on_c, 10, 57, 127
2, 22115, Note_on_c, 0, 48, 127
2, 22116, Note_off_c, 12, 59, 127
2, 22210, Note_on_c, 0, 60, 127
2, 22305, Note_on_c, 2, 62, 127
2, 22306, Note_off_c, 0, 60, 127
2, 22400, Note_on_c, 4, 64, 127
2, 22401, Note_off_c, 2, 62, 127
2, 22493, Note_off_c, 10, 57, 127
2, 22495, Note_on_c, 10, 57, 127
2, 22495, Note_on_c, 6, 54, 127
2, 22496, Note_off_c, 4, 64, 127
2, 22590, Note_on_c, 7, 67, 127
2, 22685, Note_on_c, 6, 66, 127
2, 22686, Note_off_c, 7, 67, 127
2, 22780, Note_on_c, 4, 64, 127
2, 22781, Note_off_c, 6, 66, 127
2, 22873, Note_off_c, 6, 54, 127
2, 22873, Note_off_c, 10, 57, 127
2, 22873, Note_off_c, 0, 48, 127
2, 22875, Note_on_c, 3, 63, 127
2, 22875, Note_on_c, 12, 47, 127
2, 22876, Note_off_c, 4, 64, 127
2, 22970, Note_on_c, 10, 57, 127
2, 22971, Note_off_c, 3, 63, 127
2, 23065, Note_on_c, 12, 59, 127
2, 23066, Note_off_c, 10, 57, 127
2, 23161, Note_off_c, 12, 59, 127
2, 23161, Note_on_c, 0, 60, 127
2, 23256, Note_on_c, 6, 54, 127
2, 23256, Note_on_c, 3, 51, 127
2, 23257, Note_off_c, 0, 60, 127
2, 23351, Note_on_c, 0, 60, 127
2, 23446, Note_on_c, 12, 59, 127
2, 23447, Note_off_c, 0, 60, 127
2, 23541, Note_on_c, 10, 57, 127
2, 23542, Note_off_c, 12, 59, 127
2, 23634, Note_off_c, 3, 51, 127
2, 23634, Note_off_c, 6, 54, 127
2, 23636, Note_on_c, 7, 55, 127
2, 23636, Note_on_c, 4, 52, 127
2, 23637, Note_off_c, 10, 57, 127
2, 23731, Note_on_c, 4, 64, 127
2, 23826, Note_on_c, 6, 66, 127
2, 23827, Note_off_c, 4, 64, 127
2, 23921, Note_on_c, 7, 67, 127
2, 23922, Note_off_c, 6, 66, 127
2, 24014, Note_off_c, 4, 52, 127
2, 24014, Note_off_c, 7, 55, 127
2, 24016, Note_on_c, 12, 59, 127
2, 24016, Note_on_c, 7, 55, 127
2, 24017, Note_off_c, 7, 67, 127
2, 24111, Note_on_c, 2, 62, 127
2, 24206, Note_on_c, 1, 61, 127
2, 24207, Note_off_c, 2, 62, 127
2, 24300, Note_off_c, 12, 59, 127
2, 24301, Note_on_c, 12, 59, 127
2, 24302, Note_off_c, 1, 61, 127
2, 24389, Note_off_c, 12, 47, 127
2, 24394, Note_off_c, 7, 55, 127
2, 24396, Note_on_c, 11, 58, 127
2, 24396, Note_on_c, 12, 47, 127
2, 24397, Note_off_c, 12, 59, 127
2, 24491, Note_on_c, 1, 61, 127
2, 24492, Note_off_c, 11, 58, 127
2, 24586, Note_on_c, 2, 62, 127
2, 24587, Note_off_c, 1, 61, 127
2, 24681, Note_on_c, 4, 64, 127
2, 24682, Note_off_c, 2, 62, 127
2, 24776, Note_on_c, 11, 58, 127
2, 24776, Note_on_c, 4, 52, 127
2, 24777, Note_off_c, 4, 64, 127
2, 24871, Note_on_c, 7, 67, 127
2, 24966, Note_on_c, 6, 66, 127
2, 24967, Note_off_c, 7, 67, 127
2, 25062, Note_off_c, 6, 66, 127
2, 25062, Note_on_c, 4, 64, 127
2, 25154, Note_off_c, 4, 52, 127
2, 25154, Note_off_c, 11, 58, 127
2, 25157, Note_on_c, 1, 73, 127
2, 25157, Note_on_c, 7, 55, 127
2, 25158, Note_off_c, 4, 64, 127
2, 25252, Note_on_c, 11, 70, 127
2, 25347, Note_on_c, 12, 71, 127
2, 25348, Note_off_c, 11, 70, 127
2, 25441, Note_off_c, 1, 73, 127
2, 25442, Note_on_c, 1, 73, 127
2, 25443, Note_off_c, 12, 71, 127
2, 25535, Note_off_c, 7, 55, 127
2, 25537, Note_on_c, 6, 66, 127
2, 25537, Note_on_c, 11, 58, 127
2, 25538, Note_off_c, 1, 73, 127
2, 25632, Note_on_c, 4, 76, 127
2, 25727, Note_on_c, 2, 74, 127
2, 25728, Note_off_c, 4, 76, 127
2, 25822, Note_on_c, 1, 73, 127
2, 25823, Note_off_c, 2, 74, 127
2, 25910, Note_off_c, 12, 47, 127
2, 25915, Note_off_c, 11, 58, 127
2, 25915, Note_off_c, 6, 66, 127
2, 25917, Note_on_c, 2, 74, 127
2, 25917, Note_on_c, 12, 47, 127
2, 25918, Note_off_c, 1, 73, 127
2, 26012, Note_on_c, 12, 71, 127
2, 26013, Note_off_c, 2, 74, 127
2, 26107, Note_on_c, 1, 73, 127
2, 26108, Note_off_c, 12, 71, 127
2, 26202, Note_on_c, 2, 74, 127
2, 26203, Note_off_c, 1, 73, 127
2, 26297, Note_on_c, 6, 66, 127
2, 26297, Note_on_c, 12, 59, 127
2, 26298, Note_off_c, 2, 74, 127
2, 26392, Note_on_c, 10, 69, 127
2, 26487, Note_on_c, 8, 68, 127
2, 26488, Note_off_c, 10, 69, 127
2, 26581, Note_off_c, 6, 66, 127
2, 26582, Note_on_c, 6, 66, 127
2, 26583, Note_off_c, 8, 68, 127
2, 26675, Note_off_c, 12, 47, 127
2, 26677, Note_on_c, 8, 68, 127
2, 26677, Note_on_c, 4, 52, 127
2, 26678, Note_off_c, 6, 66, 127
2, 26772, Note_on_c, 12, 71, 127
2, 26867, Note_on_c, 0, 72, 127
2, 26868, Note_off_c, 12, 71, 127
2, 26963, Note_off_c, 0, 72, 127
2, 26963, Note_on_c, 2, 74, 127
2, 27055, Note_off_c, 8, 68, 127
2, 27055, Note_off_c, 12, 59, 127
2, 27058, Note_on_c, 4, 64, 127
2, 27058, Note_on_c, 8, 56, 127
2, 27059, Note_off_c, 2, 74, 127
2, 27153, Note_on_c, 2, 74, 127
2, 27248, Note_on_c, 0, 72, 127
2, 27249, Note_off_c, 2, 74, 127
2, 27343, Note_on_c, 12, 71, 127
2, 27344, Note_off_c, 0, 72, 127
2, 27435, Note_off_c, 4, 52, 127
2, 27436, Note_off_c, 8, 56, 127
2, 27436, Note_off_c, 4, 64, 127
2, 27438, Note_on_c, 0, 72, 127
2, 27438, Note_on_c, 10, 45, 127
2, 27439, Note_off_c, 12, 71, 127
2, 27533, Note_on_c, 10, 69, 127
2, 27534, Note_off_c, 0, 72, 127
2, 27628, Note_on_c, 12, 71, 127
2, 27629, Note_off_c, 10, 69, 127
2, 27723, Note_on_c, 0, 72, 127
2, 27724, Note_off_c, 12, 71, 127
2, 27818, Note_on_c, 4, 64, 127
2, 27818, Note_on_c, 10, 57, 127
2, 27819, Note_off_c, 0, 72, 127
2, 27913, Note_on_c, 7, 67, 127
2, 28008, Note_on_c, 6, 66, 127
2, 28009, Note_off_c, 7, 67, 127
2, 28102, Note_off_c, 4, 64, 127
2, 28103, Note_on_c, 4, 64, 127
2, 28104, Note_off_c, 6, 66, 127
2, 28196, Note_off_c, 10, 45, 127
2, 28198, Note_on_c, 6, 66, 127
2, 28198, Note_on_c, 2, 50, 127
2, 28199, Note_off_c, 4, 64, 127
2, 28293, Note_on_c, 10, 69, 127
2, 28388, Note_on_c, 12, 71, 127
2, 28389, Note_off_c, 10, 69, 127
2, 28483, Note_on_c, 0, 72, 127
2, 28484, Note_off_c, 12, 71, 127
2, 28576, Note_off_c, 6, 66, 127
2, 28576, Note_off_c, 10, 57, 127
2, 28578, Note_on_c, 2, 62, 127
2, 28578, Note_on_c, 6, 54, 127
2, 28579, Note_off_c, 0, 72, 127
2, 28673, Note_on_c, 0, 72, 127
2, 28768, Note_on_c, 12, 71, 127
2, 28769, Note_off_c, 0, 72, 127
2, 28864, Note_off_c, 12, 71, 127
2, 28864, Note_on_c, 10, 69, 127
2, 28956, Note_off_c, 6, 54, 127
2, 28956, Note_off_c, 2, 62, 127
2, 28956, Note_off_c, 2, 50, 127
2, 28959, Note_on_c, 12, 71, 127
2, 28959, Note_on_c, 7, 43, 127
2, 28960, Note_off_c, 10, 69, 127
2, 29054, Note_on_c, 7, 67, 127
2, 29055, Note_off_c, 12, 71, 127
2, 29149, Note_on_c, 10, 69, 127
2, 29150, Note_off_c, 7, 67, 127
2, 29244, Note_on_c, 12, 71, 127
2, 29245, Note_off_c, 10, 69, 127
2, 29339, Note_on_c, 2, 62, 127
2, 29339, Note_on_c, 7, 55, 127
2, 29340, Note_off_c, 12, 71, 127
2, 29434, Note_on_c, 12, 71, 127
2, 29529, Note_on_c, 10, 69, 127
2, 29530, Note_off_c, 12, 71, 127
2, 29624, Note_on_c, 7, 67, 127
2, 29625, Note_off_c, 10, 69, 127
2, 29717, Note_off_c, 7, 43, 127
2, 29719, Note_on_c, 2, 74, 127
2, 29719, Note_on_c, 12, 47, 127
2, 29720, Note_off_c, 7, 67, 127
2, 29814, Note_on_c, 7, 67, 127
2, 29815, Note_off_c, 2, 74, 127
2, 29909, Note_on_c, 10, 69, 127
2, 29910, Note_off_c, 7, 67, 127
2, 30004, Note_on_c, 12, 71, 127
2, 30005, Note_off_c, 10, 69, 127
2, 30097, Note_off_c, 7, 55, 127
2, 30098, Note_off_c, 2, 62, 127
2, 30099, Note_on_c, 2, 62, 127
2, 30099, Note_on_c, 7, 55, 127
2, 30100, Note_off_c, 12, 71, 127
2, 30194, Note_on_c, 12, 71, 127
2, 30289, Note_on_c, 10, 69, 127
2, 30290, Note_off_c, 12, 71, 127
2, 30384, Note_on_c, 7, 67, 127
2, 30385, Note_off_c, 10, 69, 127
2, 30477, Note_off_c, 7, 55, 127
2, 30477, Note_off_c, 2, 62, 127
2, 30477, Note_off_c, 12, 47, 127
2, 30479, Note_on_c, 0, 72, 127
2, 30479, Note_on_c, 10, 45, 127
2, 30480, Note_off_c, 7, 67, 127
2, 30574, Note_on_c, 10, 69, 127
2, 30575, Note_off_c, 0, 72, 127
2, 30669, Note_on_c, 12, 71, 127
2, 30670, Note_off_c, 10, 69, 127
2, 30764, Note_on_c, 0, 72, 127
2, 30765, Note_off_c, 12, 71, 127
2, 30860, Note_off_c, 0, 72, 127
2, 30860, Note_on_c, 4, 64, 127
2, 30860, Note_on_c, 7, 55, 127
2, 30955, Note_on_c, 7, 67, 127
2, 31050, Note_on_c, 6, 66, 127
2, 31051, Note_off_c, 7, 67, 127
2, 31144, Note_off_c, 4, 64, 127
2, 31145, Note_on_c, 4, 64, 127
2, 31146, Note_off_c, 6, 66, 127
2, 31237, Note_off_c, 10, 45, 127
2, 31240, Note_on_c, 6, 66, 127
2, 31240, Note_on_c, 2, 50, 127
2, 31241, Note_off_c, 4, 64, 127
2, 31335, Note_on_c, 10, 69, 127
2, 31430, Note_on_c, 12, 71, 127
2, 31431, Note_off_c, 10, 69, 127
2, 31525, Note_on_c, 0, 72, 127
2, 31526, Note_off_c, 12, 71, 127
2, 31618, Note_off_c, 6, 66, 127
2, 31618, Note_off_c, 7, 55, 127
2, 31620, Note_on_c, 2, 62, 127
2, 31620, Note_on_c, 6, 54, 127
2, 31621, Note_off_c, 0, 72, 127
2, 31715, Note_on_c, 0, 72, 127
2, 31810, Note_on_c, 12, 71, 127
2, 31811, Note_off_c, 0, 72, 127
2, 31905, Note_on_c, 10, 69, 127
2, 31906, Note_off_c, 12, 71, 127
2, 31998, Note_off_c, 6, 54, 127
2, 31998, Note_off_c, 2, 62, 127
2, 31998, Note_off_c, 2, 50, 127
2, 32000, Note_on_c, 12, 71, 127
2, 32000, Note_on_c, 7, 43, 127
2, 32001, Note_off_c, 10, 69, 127
2, 32095, Note_on_c, 7, 67, 127
2, 32096, Note_off_c, 12, 71, 127
2, 32190, Note_on_c, 10, 69, 127
2, 32191, Note_off_c, 7, 67, 127
2, 32285, Note_on_c, 12, 71, 127
2, 32286, Note_off_c, 10, 69, 127
2, 32380, Note_on_c, 2, 62, 127
2, 32380, Note_on_c, 7, 55, 127
2, 32381, Note_off_c, 12, 71, 127
2, 32475, Note_on_c, 6, 66, 127
2, 32570, Note_on_c, 4, 64, 127
2, 32571, Note_off_c, 6, 66, 127
2, 32664, Note_off_c, 2, 62, 127
2, 32665, Note_on_c, 2, 62, 127
2, 32666, Note_off_c, 4, 64, 127
2, 32758, Note_off_c, 7, 43, 127
2, 32761, Note_off_c, 2, 62, 127
2, 32761, Note_on_c, 4, 64, 127
2, 32761, Note_on_c, 7, 43, 127
2, 32856, Note_on_c, 7, 67, 127
2, 32951, Note_on_c, 10, 69, 127
2, 32952, Note_off_c, 7, 67, 127
2, 33046, Note_on_c, 12, 71, 127
2, 33047, Note_off_c, 10, 69, 127
2, 33138, Note_off_c, 7, 55, 127
2, 33139, Note_off_c, 4, 64, 127
2, 33141, Note_on_c, 4, 64, 127
2, 33141, Note_on_c, 7, 55, 127
2, 33142, Note_off_c, 12, 71, 127
2, 33236, Note_on_c, 2, 74, 127
2, 33331, Note_on_c, 1, 73, 127
2, 33332, Note_off_c, 2, 74, 127
2, 33426, Note_on_c, 12, 71, 127
2, 33427, Note_off_c, 1, 73, 127
2, 33519, Note_off_c, 7, 55, 127
2, 33519, Note_off_c, 4, 64, 127
2, 33519, Note_off_c, 7, 43, 127
2, 33521, Note_on_c, 1, 73, 127
2, 33521, Note_on_c, 7, 43, 127
2, 33522, Note_off_c, 12, 71, 127
2, 33616, Note_on_c, 10, 69, 127
2, 33617, Note_off_c, 1, 73, 127
2, 33711, Note_on_c, 12, 71, 127
2, 33712, Note_off_c, 10, 69, 127
2, 33806, Note_on_c, 1, 73, 127
2, 33807, Note_off_c, 12, 71, 127
2, 33901, Note_on_c, 4, 64, 127
2, 33901, Note_on_c, 1, 49, 127
2, 33902, Note_off_c, 1, 73, 127
2, 33996, Note_on_c, 7, 67, 127
2, 34091, Note_on_c, 6, 66, 127
2, 34092, Note_off_c, 7, 67, 127
2, 34185, Note_off_c, 4, 64, 127
2, 34186, Note_on_c, 4, 64, 127
2, 34187, Note_off_c, 6, 66, 127
2, 34279, Note_off_c, 7, 43, 127
2, 34281, Note_on_c, 2, 62, 127
2, 34281, Note_on_c, 6, 42, 127
2, 34282, Note_off_c, 4, 64, 127
2, 34376, Note_on_c, 6, 66, 127
2, 34471, Note_on_c, 7, 67, 127
2, 34472, Note_off_c, 6, 66, 127
2, 34566, Note_on_c, 10, 69, 127
2, 34567, Note_off_c, 7, 67, 127
2, 34659, Note_off_c, 2, 62, 127
2, 34659, Note_off_c, 1, 49, 127
2, 34662, Note_off_c, 10, 69, 127
2, 34662, Note_on_c, 12, 59, 127
2, 34662, Note_on_c, 2, 50, 127
2, 34757, Note_on_c, 10, 69, 127
2, 34852, Note_on_c, 7, 67, 127
2, 34853, Note_off_c, 10, 69, 127
2, 34947, Note_on_c, 6, 66, 127
2, 34948, Note_off_c, 7, 67, 127
2, 35039, Note_off_c, 6, 42, 127
2, 35040, Note_off_c, 2, 50, 127
2, 35040, Note_off_c, 12, 59, 127
2, 35042, Note_on_c, 7, 67, 127
2, 35042, Note_on_c, 4, 40, 127
2, 35043, Note_off_c, 6, 66, 127
2, 35137, Note_on_c, 4, 64, 127
2, 35138, Note_off_c, 7, 67, 127
2, 35232, Note_on_c, 6, 66, 127
2, 35233, Note_off_c, 4, 64, 127
2, 35327, Note_on_c, 7, 67, 127
2, 35328, Note_off_c, 6, 66, 127
2, 35422, Note_on_c, 12, 59, 127
2, 35422, Note_on_c, 2, 50, 127
2, 35423, Note_off_c, 7, 67, 127
2, 35517, Note_on_c, 2, 62, 127
2, 35612, Note_on_c, 1, 61, 127
2, 35613, Note_off_c, 2, 62, 127
2, 35706, Note_off_c, 12, 59, 127
2, 35707, Note_on_c, 12, 59, 127
2, 35708, Note_off_c, 1, 61, 127
2, 35800, Note_off_c, 4, 40, 127
2, 35802, Note_on_c, 1, 61, 127
2, 35802, Note_on_c, 10, 45, 127
2, 35803, Note_off_c, 12, 59, 127
2, 35897, Note_on_c, 4, 64, 127
2, 35922, Note_off_c, 2, 50, 127
2, 35992, Note_on_c, 6, 66, 127
2, 35993, Note_off_c, 4, 64, 127
2, 36087, Note_on_c, 7, 67, 127
2, 36088, Note_off_c, 6, 66, 127
2, 36180, Note_off_c, 1, 61, 127
2, 36182, Note_on_c, 10, 57, 127
2, 36182, Note_on_c, 1, 49, 127
2, 36183, Note_off_c, 7, 67, 127
2, 36277, Note_on_c, 7, 67, 127
2, 36372, Note_on_c, 6, 66, 127
2, 36373, Note_off_c, 7, 67, 127
2, 36467, Note_on_c, 4, 64, 127
2, 36468, Note_off_c, 6, 66, 127
2, 36560, Note_off_c, 1, 49, 127
2, 36560, Note_off_c, 10, 57, 127
2, 36560, Note_off_c, 10, 45, 127
2, 36563, Note_off_c, 4, 64, 127
2, 36563, Note_on_c, 6, 66, 127
2, 36563, Note_on_c, 2, 38, 127
2, 36673, Note_on_c, 2, 62, 127
2, 36675, Note_off_c, 6, 66, 127
2, 36768, Note_on_c, 4, 64, 127
2, 36769, Note_off_c, 2, 62, 127
2, 36864, Note_off_c, 4, 64, 127
2, 36864, Note_on_c, 6, 66, 127
2, 36959, Note_on_c, 2, 50, 127
2, 36959, Note_on_c, 10, 57, 127
2, 36960, Note_off_c, 6, 66, 127
2, 37054, Note_on_c, 6, 66, 127
2, 37149, Note_on_c, 4, 64, 127
2, 37150, Note_off_c, 6, 66, 127
2, 37244, Note_on_c, 2, 62, 127
2, 37245, Note_off_c, 4, 64, 127
2, 37321, Note_off_c, 2, 38, 127
2, 37337, Note_off_c, 10, 57, 127
2, 37339, Note_on_c, 6, 42, 127
2, 37339, Note_on_c, 10, 69, 127
2, 37340, Note_off_c, 2, 62, 127
2, 37434, Note_on_c, 6, 66, 127
2, 37435, Note_off_c, 10, 69, 127
2, 37529, Note_on_c, 7, 67, 127
2, 37530, Note_off_c, 6, 66, 127
2, 37624, Note_on_c, 10, 69, 127
2, 37625, Note_off_c, 7, 67, 127
2, 37717, Note_off_c, 6, 42, 127
2, 37717, Note_off_c, 2, 50, 127
2, 37719, Note_on_c, 10, 57, 127
2, 37719, Note_on_c, 2, 62, 127
2, 37720, Note_off_c, 10, 69, 127
2, 37814, Note_on_c, 0, 72, 127
2, 37909, Note_on_c, 12, 71, 127
2, 37910, Note_off_c, 0, 72, 127
2, 38004, Note_on_c, 10, 69, 127
2, 38005, Note_off_c, 12, 71, 127
2, 38097, Note_off_c, 2, 62, 127
2, 38097, Note_off_c, 10, 57, 127
2, 38099, Note_on_c, 7, 43, 127
2, 38099, Note_on_c, 12, 71, 127
2, 38100, Note_off_c, 10, 69, 127
2, 38210, Note_on_c, 7, 67, 127
2, 38212, Note_off_c, 12, 71, 127
2, 38305, Note_on_c, 10, 69, 127
2, 38306, Note_off_c, 7, 67, 127
2, 38400, Note_on_c, 12, 71, 127
2, 38401, Note_off_c, 10, 69, 127
2, 38495, Note_on_c, 2, 62, 127
2, 38495, Note_on_c, 7, 55, 127
2, 38496, Note_off_c, 12, 71, 127
2, 38590, Note_on_c, 12, 71, 127
2, 38685, Note_on_c, 10, 69, 127
2, 38686, Note_off_c, 12, 71, 127
2, 38780, Note_on_c, 7, 67, 127
2, 38781, Note_off_c, 10, 69, 127
2, 38857, Note_off_c, 7, 43, 127
2, 38873, Note_off_c, 2, 62, 127
2, 38875, Note_on_c, 2, 74, 127
2, 38875, Note_on_c, 12, 47, 127
2, 38876, Note_off_c, 7, 67, 127
2, 38970, Note_on_c, 12, 71, 127
2, 38971, Note_off_c, 2, 74, 127
2, 39065, Note_on_c, 0, 72, 127
2, 39066, Note_off_c, 12, 71, 127
2, 39161, Note_off_c, 0, 72, 127
2, 39161, Note_on_c, 2, 74, 127
2, 39253, Note_off_c, 12, 47, 127
2, 39253, Note_off_c, 7, 55, 127
2, 39256, Note_on_c, 8, 68, 127
2, 39256, Note_on_c, 2, 62, 127
2, 39257, Note_off_c, 2, 74, 127
2, 39351, Note_on_c, 5, 77, 127
2, 39352, Note_off_c, 8, 68, 127
2, 39446, Note_on_c, 4, 76, 127
2, 39447, Note_off_c, 5, 77, 127
2, 39541, Note_on_c, 2, 74, 127
2, 39542, Note_off_c, 4, 76, 127
2, 39636, Note_off_c, 2, 62, 127
2, 39638, Note_on_c, 1, 73, 127
2, 39638, Note_on_c, 10, 45, 127
2, 39639, Note_off_c, 2, 74, 127
2, 39751, Note_on_c, 10, 69, 127
2, 39759, Note_off_c, 1, 73, 127
2, 39847, Note_on_c, 12, 71, 127
2, 39848, Note_off_c, 10, 69, 127
2, 39944, Note_on_c, 1, 73, 127
2, 39945, Note_off_c, 12, 71, 127
2, 40041, Note_on_c, 7, 55, 127
2, 40041, Note_on_c, 4, 64, 127
2, 40042, Note_off_c, 1, 73, 127
2, 40138, Note_on_c, 7, 67, 127
2, 40139, Note_off_c, 4, 64, 127
2, 40235, Note_on_c, 6, 66, 127
2, 40236, Note_off_c, 7, 67, 127
2, 40332, Note_on_c, 4, 64, 127
2, 40333, Note_off_c, 6, 66, 127
2, 40427, Note_off_c, 7, 55, 127
2, 40429, Note_on_c, 6, 54, 127
2, 40429, Note_on_c, 10, 69, 127
2, 40430, Note_off_c, 4, 64, 127
2, 40526, Note_on_c, 2, 74, 127
2, 40527, Note_off_c, 10, 69, 127
2, 40623, Note_on_c, 4, 76, 127
2, 40624, Note_off_c, 2, 74, 127
2, 40720, Note_on_c, 6, 78, 127
2, 40721, Note_off_c, 4, 76, 127
2, 40798, Note_off_c, 10, 45, 127
2, 40814, Note_off_c, 6, 54, 127
2, 40816, Note_on_c, 2, 50, 127
2, 40816, Note_on_c, 10, 45, 127
2, 40816, Note_on_c, 12, 71, 127
2, 40817, Note_off_c, 6, 78, 127
2, 40913, Note_on_c, 10, 81, 127
2, 41010, Note_on_c, 7, 79, 127
2, 41011, Note_off_c, 10, 81, 127
2, 41107, Note_on_c, 6, 78, 127
2, 41108, Note_off_c, 7, 79, 127
2, 41202, Note_off_c, 2, 50, 127
2, 41204, Note_on_c, 4, 52, 127
2, 41204, Note_on_c, 7, 79, 127
2, 41205, Note_off_c, 6, 78, 127
2, 41301, Note_off_c, 12, 71, 127
2, 41301, Note_on_c, 1, 73, 127
2, 41302, Note_off_c, 7, 79, 127
2, 41398, Note_on_c, 2, 74, 127
2, 41399, Note_off_c, 1, 73, 127
2, 41495, Note_on_c, 4, 76, 127
2, 41496, Note_off_c, 2, 74, 127
2, 41590, Note_off_c, 4, 52, 127
2, 41590, Note_off_c, 10, 45, 127
2, 41592, Note_on_c, 1, 49, 127
2, 41592, Note_on_c, 10, 45, 127
2, 41592, Note_on_c, 10, 69, 127
2, 41593, Note_off_c, 4, 76, 127
2, 41689, Note_on_c, 7, 79, 127
2, 41786, Note_on_c, 6, 78, 127
2, 41787, Note_off_c, 7, 79, 127
2, 41883, Note_on_c, 4, 76, 127
2, 41884, Note_off_c, 6, 78, 127
2, 41978, Note_off_c, 1, 49, 127
2, 41980, Note_on_c, 2, 50, 127
2, 41980, Note_on_c, 6, 78, 127
2, 41981, Note_off_c, 4, 76, 127
2, 42077, Note_off_c, 10, 69, 127
2, 42077, Note_on_c, 12, 71, 127
2, 42078, Note_off_c, 6, 78, 127
2, 42174, Note_on_c, 1, 73, 127
2, 42175, Note_off_c, 12, 71, 127
2, 42271, Note_on_c, 2, 74, 127
2, 42272, Note_off_c, 1, 73, 127
2, 42366, Note_off_c, 10, 45, 127
2, 42368, Note_on_c, 12, 47, 127
2, 42368, Note_on_c, 8, 68, 127
2, 42369, Note_off_c, 2, 74, 127
2, 42465, Note_on_c, 5, 77, 127
2, 42560, Note_off_c, 8, 68, 127
2, 42563, Note_off_c, 5, 77, 127
2, 42563, Note_on_c, 4, 76, 127
2, 42660, Note_on_c, 2, 74, 127
2, 42661, Note_off_c, 4, 76, 127
2, 42755, Note_off_c, 12, 47, 127
2, 42755, Note_off_c, 2, 50, 127
2, 42758, Note_on_c, 10, 45, 127
2, 42758, Note_on_c, 1, 73, 127
2, 42759, Note_off_c, 2, 74, 127
2, 42872, Note_on_c, 7, 67, 127
2, 42872, Note_on_c, 4, 52, 127
2, 42953, Note_off_c, 1, 73, 127
2, 42970, Note_off_c, 4, 52, 127
2, 42971, Note_on_c, 10, 69, 127
2, 42971, Note_on_c, 5, 53, 127
2, 42972, Note_off_c, 7, 67, 127
2, 43068, Note_off_c, 5, 53, 127
2, 43069, Note_on_c, 11, 70, 127
2, 43069, Note_on_c, 7, 55, 127
2, 43070, Note_off_c, 10, 69, 127
2, 43166, Note_off_c, 7, 55, 127
2, 43167, Note_on_c, 4, 64, 127
2, 43167, Note_on_c, 1, 49, 127
2, 43168, Note_off_c, 11, 70, 127
2, 43264, Note_off_c, 1, 49, 127
2, 43265, Note_on_c, 7, 67, 127
2, 43265, Note_on_c, 4, 52, 127
2, 43266, Note_off_c, 4, 64, 127
2, 43362, Note_off_c, 4, 52, 127
2, 43364, Note_off_c, 7, 67, 127
2, 43364, Note_on_c, 5, 65, 127
2, 43364, Note_on_c, 2, 50, 127
2, 43461, Note_off_c, 2, 50, 127
2, 43462, Note_on_c, 4, 64, 127
2, 43462, Note_on_c, 1, 49, 127
2, 43463, Note_off_c, 5, 65, 127
2, 43559, Note_off_c, 1, 49, 127
2, 43560, Note_on_c, 5, 65, 127
2, 43560, Note_on_c, 2, 50, 127
2, 43561, Note_off_c, 4, 64, 127
2, 43657, Note_off_c, 2, 50, 127
2, 43658, Note_on_c, 2, 74, 127
2, 43658, Note_on_c, 5, 53, 127
2, 43659, Note_off_c, 5, 65, 127
2, 43755, Note_off_c, 5, 53, 127
2, 43756, Note_on_c, 4, 76, 127
2, 43756, Note_on_c, 7, 55, 127
2, 43757, Note_off_c, 2, 74, 127
2, 43853, Note_off_c, 7, 55, 127
2, 43854, Note_on_c, 5, 77, 127
2, 43854, Note_on_c, 10, 57, 127
2, 43855, Note_off_c, 4, 76, 127
2, 43951, Note_off_c, 10, 57, 127
2, 43952, Note_on_c, 1, 73, 127
2, 43952, Note_on_c, 4, 52, 127
2, 43953, Note_off_c, 5, 77, 127
2, 44049, Note_off_c, 4, 52, 127
2, 44050, Note_on_c, 4, 76, 127
2, 44050, Note_on_c, 7, 55, 127
2, 44051, Note_off_c, 1, 73, 127
2, 44147, Note_off_c, 7, 55, 127
2, 44148, Note_on_c, 2, 74, 127
2, 44148, Note_on_c, 5, 53, 127
2, 44149, Note_off_c, 4, 76, 127
2, 44245, Note_off_c, 5, 53, 127
2, 44246, Note_on_c, 1, 73, 127
2, 44246, Note_on_c, 4, 52, 127
2, 44247, Note_off_c, 2, 74, 127
2, 44343, Note_off_c, 4, 52, 127
2, 44344, Note_on_c, 2, 74, 127
2, 44344, Note_on_c, 5, 53, 127
2, 44345, Note_off_c, 1, 73, 127
2, 44441, Note_off_c, 5, 53, 127
2, 44442, Note_on_c, 11, 82, 127
2, 44442, Note_on_c, 2, 50, 127
2, 44538, Note_off_c, 2, 74, 127
2, 44539, Note_off_c, 2, 50, 127
2, 44540, Note_on_c, 10, 81, 127
2, 44540, Note_on_c, 4, 52, 127
2, 44541, Note_off_c, 11, 82, 127
2, 44637, Note_off_c, 4, 52, 127
2, 44638, Note_on_c, 7, 79, 127
2, 44638, Note_on_c, 5, 53, 127
2, 44639, Note_off_c, 10, 81, 127
2, 44720, Note_off_c, 10, 45, 127
2, 44737, Note_on_c, 5, 77, 127
2, 44737, Note_on_c, 10, 45, 127
2, 44738, Note_off_c, 7, 79, 127
2, 44833, Note_off_c, 5, 53, 127
2, 44834, Note_off_c, 10, 45, 127
2, 44835, Note_on_c, 4, 76, 127
2, 44835, Note_on_c, 0, 48, 127
2, 44836, Note_off_c, 5, 77, 127
2, 44932, Note_off_c, 0, 48, 127
2, 44933, Note_on_c, 2, 74, 127
2, 44933, Note_on_c, 11, 46, 127
2, 44934, Note_off_c, 4, 76, 127
2, 45030, Note_off_c, 11, 46, 127
2, 45031, Note_on_c, 1, 73, 127
2, 45031, Note_on_c, 10, 45, 127
2, 45032, Note_off_c, 2, 74, 127
2, 45128, Note_off_c, 10, 45, 127
2, 45129, Note_on_c, 2, 74, 127
2, 45129, Note_on_c, 8, 44, 127
2, 45130, Note_off_c, 1, 73, 127
2, 45244, Note_on_c, 5, 77, 127
2, 45342, Note_on_c, 4, 76, 127
2, 45343, Note_off_c, 5, 77, 127
2, 45423, Note_off_c, 2, 74, 127
2, 45441, Note_on_c, 2, 74, 127
2, 45442, Note_off_c, 4, 76, 127
2, 45539, Note_on_c, 12, 83, 127
2, 45540, Note_off_c, 2, 74, 127
2, 45637, Note_on_c, 8, 80, 127
2, 45733, Note_off_c, 12, 83, 127
2, 45735, Note_on_c, 10, 81, 127
2, 45736, Note_off_c, 8, 80, 127
2, 45833, Note_on_c, 12, 83, 127
2, 45834, Note_off_c, 10, 81, 127
2, 45931, Note_on_c, 5, 77, 127
2, 45932, Note_off_c, 12, 83, 127
2, 46029, Note_on_c, 2, 74, 127
2, 46125, Note_off_c, 5, 77, 127
2, 46127, Note_on_c, 4, 76, 127
2, 46128, Note_off_c, 2, 74, 127
2, 46225, Note_on_c, 5, 77, 127
2, 46226, Note_off_c, 4, 76, 127
2, 46323, Note_on_c, 12, 71, 127
2, 46324, Note_off_c, 5, 77, 127
2, 46421, Note_on_c, 8, 68, 127
2, 46517, Note_off_c, 12, 71, 127
2, 46519, Note_on_c, 10, 69, 127
2, 46520, Note_off_c, 8, 68, 127
2, 46617, Note_on_c, 12, 71, 127
2, 46618, Note_off_c, 10, 69, 127
2, 46692, Note_off_c, 8, 44, 127
2, 46715, Note_on_c, 4, 64, 127
2, 46716, Note_off_c, 12, 71, 127
2, 46894, Note_on_c, 6, 66, 127
2, 46959, Note_off_c, 6, 66, 127
2, 46960, Note_on_c, 8, 68, 127
2, 47025, Note_off_c, 8, 68, 127
2, 47025, Note_on_c, 10, 69, 127
2, 47090, Note_off_c, 10, 69, 127
2, 47090, Note_on_c, 12, 71, 127
2, 47155, Note_off_c, 12, 71, 127
2, 47156, Note_on_c, 0, 72, 127
2, 47221, Note_off_c, 0, 72, 127
2, 47221, Note_on_c, 2, 74, 127
2, 47236, Note_off_c, 4, 64, 127
2, 47286, Note_off_c, 2, 74, 127
2, 47286, Note_on_c, 4, 76, 127
2, 47351, Note_off_c, 4, 76, 127
2, 47352, Note_on_c, 5, 77, 127
2, 47352, Note_on_c, 10, 45, 127
2, 47456, Note_on_c, 1, 73, 127
2, 47560, Note_off_c, 1, 73, 127
2, 47560, Note_on_c, 2, 74, 127
2, 47560, Note_on_c, 10, 57, 127
2, 47663, Note_off_c, 2, 74, 127
2, 47663, Note_on_c, 10, 69, 127
2, 47764, Note_off_c, 10, 57, 127
2, 47766, Note_off_c, 10, 69, 127
2, 47766, Note_on_c, 11, 70, 127
2, 47766, Note_on_c, 7, 55, 127
2, 47869, Note_on_c, 7, 67, 127
2, 47970, Note_off_c, 7, 55, 127
2, 47970, Note_off_c, 5, 77, 127
2, 47972, Note_off_c, 7, 67, 127
2, 47972, Note_on_c, 4, 76, 127
2, 47972, Note_on_c, 1, 49, 127
2, 48075, Note_on_c, 7, 67, 127
2, 48175, Note_off_c, 11, 70, 127
2, 48176, Note_off_c, 1, 49, 127
2, 48178, Note_off_c, 7, 67, 127
2, 48178, Note_on_c, 10, 69, 127
2, 48178, Note_on_c, 5, 53, 127
2, 48280, Note_on_c, 5, 65, 127
2, 48379, Note_off_c, 4, 76, 127
2, 48382, Note_off_c, 5, 53, 127
2, 48383, Note_off_c, 5, 65, 127
2, 48383, Note_on_c, 2, 74, 127
2, 48383, Note_on_c, 2, 50, 127
2, 48486, Note_on_c, 5, 65, 127
2, 48587, Note_off_c, 2, 50, 127
2, 48587, Note_off_c, 10, 69, 127
2, 48589, Note_off_c, 5, 65, 127
2, 48589, Note_on_c, 7, 67, 127
2, 48589, Note_on_c, 4, 52, 127
2, 48692, Note_on_c, 4, 64, 127
2, 48790, Note_off_c, 2, 74, 127
2, 48793, Note_off_c, 4, 52, 127
2, 48795, Note_off_c, 4, 64, 127
2, 48795, Note_on_c, 1, 73, 127
2, 48795, Note_on_c, 7, 55, 127
2, 48898, Note_on_c, 4, 64, 127
2, 48995, Note_off_c, 10, 45, 127
2, 48998, Note_off_c, 1, 73, 127
2, 48998, Note_off_c, 7, 67, 127
2, 48999, Note_off_c, 7, 55, 127
2, 49001, Note_off_c, 4, 64, 127
2, 49001, Note_on_c, 10, 45, 127
2, 49157, Note_on_c, 2, 50, 127
2, 49208, Note_on_c, 5, 53, 127
2, 49260, Note_on_c, 8, 56, 127
2, 49311, Note_on_c, 12, 59, 127
2, 49363, Note_on_c, 2, 62, 127
2, 49414, Note_on_c, 5, 65, 127
2, 49466, Note_on_c, 8, 68, 127
2, 49517, Note_on_c, 12, 71, 127
2, 49569, Note_on_c, 2, 74, 127
2, 50724, Note_off_c, 12, 71, 127
2, 50724, Note_off_c, 5, 65, 127
2, 50724, Note_off_c, 12, 59, 127
2, 50724, Note_off_c, 5, 53, 127
2, 50724, Note_off_c, 10, 45, 127
2, 50725, Note_off_c, 2, 74, 127
2, 50725, Note_off_c, 8, 68, 127
2, 50725, Note_off_c, 2, 62, 127
2, 50725, Note_off_c, 8, 56, 127
2, 50725, Note_off_c, 2, 50, 127
2, 50760, Note_on_c, 1, 73, 127
2, 50839, Note_on_c, 12, 71, 127
2, 50840, Note_off_c, 1, 73, 127
2, 50919, Note_off_c, 12, 71, 127
2, 50919, Note_on_c, 10, 69, 127
2, 50999, Note_off_c, 10, 69, 127
2, 50999, Note_on_c, 8, 68, 127
2, 51079, Note_off_c, 8, 68, 127
2, 51080, Note_on_c, 6, 66, 127
2, 51160, Note_off_c, 6, 66, 127
2, 51160, Note_on_c, 4, 64, 127
2, 51240, Note_off_c, 4, 64, 127
2, 51240, Note_on_c, 6, 66, 127
2, 51319, Note_on_c, 8, 68, 127
2, 51320, Note_off_c, 6, 66, 127
2, 51399, Note_off_c, 8, 68, 127
2, 51399, Note_on_c, 10, 69, 127
2, 51479, Note_off_c, 10, 69, 127
2, 51480, Note_on_c, 12, 71, 127
2, 51560, Note_off_c, 12, 71, 127
2, 51560, Note_on_c, 1, 73, 127
2, 51640, Note_off_c, 1, 73, 127
2, 51640, Note_on_c, 2, 74, 127
2, 51720, Note_off_c, 2, 74, 127
2, 51720, Note_on_c, 4, 76, 127
2, 51800, Note_off_c, 4, 76, 127
2, 51800, Note_on_c, 5, 77, 127
2, 51880, Note_off_c, 5, 77, 127
2, 51880, Note_on_c, 4, 76, 127
2, 51960, Note_off_c, 4, 76, 127
2, 51960, Note_on_c, 2, 74, 127
2, 52040, Note_off_c, 2, 74, 127
2, 52040, Note_on_c, 1, 73, 127
2, 52120, Note_off_c, 1, 73, 127
2, 52120, Note_on_c, 12, 71, 127
2, 52200, Note_off_c, 12, 71, 127
2, 52200, Note_on_c, 10, 69, 127
2, 52280, Note_off_c, 10, 69, 127
2, 52280, Note_on_c, 8, 68, 127
2, 52360, Note_off_c, 8, 68, 127
2, 52360, Note_on_c, 6, 66, 127
2, 52440, Note_off_c, 6, 66, 127
2, 52440, Note_on_c, 4, 64, 127
2, 52520, Note_off_c, 4, 64, 127
2, 52520, Note_on_c, 2, 62, 127
2, 52600, Note_off_c, 2, 62, 127
2, 52615, Note_on_c, 1, 61, 127
2, 52719, Note_on_c, 4, 64, 127
2, 52771, Note_on_c, 7, 67, 127
2, 52822, Note_on_c, 11, 70, 127
2, 52874, Note_on_c, 1, 73, 127
2, 52925, Note_on_c, 4, 76, 127
2, 52977, Note_on_c, 7, 79, 127
2, 53028, Note_on_c, 11, 82, 127
2, 53527, Note_off_c, 4, 76, 127
2, 53527, Note_off_c, 11, 70, 127
2, 53527, Note_off_c, 4, 64, 127
2, 53527, Note_off_c, 1, 61, 127
2, 53528, Note_off_c, 11, 82, 127
2, 53528, Note_off_c, 7, 79, 127
2, 53528, Note_off_c, 1, 73, 127
2, 53528, Note_off_c, 7, 67, 127
2, 53555, Note_on_c, 2, 62, 127
2, 53676, Note_on_c, 5, 65, 127
2, 53733, Note_on_c, 8, 68, 127
2, 53789, Note_on_c, 12, 71, 127
2, 53846, Note_on_c, 2, 74, 127
2, 53902, Note_on_c, 5, 77, 127
2, 53958, Note_on_c, 8, 80, 127
2, 54015, Note_on_c, 12, 83, 127
2, 54695, Note_off_c, 8, 80, 127
2, 54695, Note_off_c, 12, 71, 127
2, 54695, Note_off_c, 5, 65, 127
2, 54695, Note_off_c, 2, 62, 127
2, 54696, Note_off_c, 12, 83, 127
2, 54696, Note_off_c, 5, 77, 127
2, 54696, Note_off_c, 2, 74, 127
2, 54696, Note_off_c, 8, 68, 127
2, 54818, Note_on_c, 10, 45, 127
2, 54947, Note_on_c, 4, 52, 127
2, 55043, Note_on_c, 10, 57, 127
2, 55139, Note_on_c, 4, 64, 127
2, 55236, Note_on_c, 10, 69, 127
2, 55332, Note_on_c, 2, 74, 127
2, 55425, Note_off_c, 10, 69, 127
2, 55428, Note_on_c, 10, 69, 127
2, 55517, Note_off_c, 4, 64, 127
2, 55523, Note_on_c, 4, 64, 127
2, 55616, Note_off_c, 10, 57, 127
2, 55619, Note_on_c, 2, 62, 127
2, 55703, Note_off_c, 4, 64, 127
2, 55712, Note_off_c, 4, 52, 127
2, 55715, Note_on_c, 4, 64, 127
2, 55796, Note_off_c, 10, 69, 127
2, 55810, Note_on_c, 10, 69, 127
2, 55866, Note_off_c, 10, 45, 127
2, 55888, Note_off_c, 4, 64, 127
2, 55888, Note_off_c, 2, 62, 127
2, 55888, Note_off_c, 2, 74, 127
2, 55904, Note_off_c, 10, 69, 127
2, 55916, Note_on_c, 10, 45, 127
2, 56036, Note_on_c, 4, 52, 127
2, 56133, Note_on_c, 10, 57, 127
2, 56229, Note_on_c, 4, 64, 127
2, 56325, Note_on_c, 7, 67, 127
2, 56421, Note_on_c, 1, 73, 127
2, 56431, Note_off_c, 7, 67, 127
2, 56517, Note_on_c, 10, 69, 127
2, 56610, Note_off_c, 4, 64, 127
2, 56613, Note_on_c, 4, 64, 127
2, 56708, Note_on_c, 1, 61, 127
2, 56802, Note_off_c, 10, 57, 127
2, 56804, Note_on_c, 10, 57, 127
2, 56885, Note_off_c, 4, 52, 127
2, 56900, Note_on_c, 4, 52, 127
2, 56923, Note_off_c, 10, 57, 127
2, 56923, Note_off_c, 1, 61, 127
2, 56923, Note_off_c, 4, 64, 127
2, 56923, Note_off_c, 10, 69, 127
2, 56923, Note_off_c, 1, 73, 127
2, 56964, Note_off_c, 10, 45, 127
2, 56993, Note_off_c, 4, 52, 127
2, 57004, Note_on_c, 2, 50, 127
2, 57126, Note_on_c, 6, 54, 127
2, 57222, Note_on_c, 10, 57, 127
2, 57318, Note_on_c, 2, 62, 127
2, 57414, Note_on_c, 6, 66, 127
2, 57510, Note_on_c, 10, 69, 127
2, 57605, Note_on_c, 2, 74, 127
2, 57699, Note_off_c, 10, 69, 127
2, 57701, Note_on_c, 10, 69, 127
2, 57795, Note_off_c, 6, 66, 127
2, 57797, Note_on_c, 6, 66, 127
2, 57892, Note_off_c, 2, 62, 127
2, 57893, Note_on_c, 2, 62, 127
2, 57987, Note_off_c, 10, 57, 127
2, 57989, Note_on_c, 10, 57, 127
2, 58083, Note_off_c, 6, 54, 127
2, 58085, Note_on_c, 6, 54, 127
2, 58152, Note_off_c, 2, 50, 127
2, 58179, Note_off_c, 6, 54, 127
2, 58179, Note_off_c, 2, 74, 127
2, 58180, Note_off_c, 10, 69, 127
2, 58181, Note_off_c, 6, 66, 127
2, 58181, Note_on_c, 2, 50, 127
2, 58182, Note_off_c, 2, 62, 127
2, 58183, Note_off_c, 10, 57, 127
2, 58476, Note_on_c, 2, 38, 127
2, 58559, Note_off_c, 2, 50, 127
2, 58770, Note_on_c, 2, 50, 127
2, 59065, Note_on_c, 2, 62, 127
2, 59360, Note_on_c, 6, 42, 127
2, 59360, Note_on_c, 10, 45, 127
2, 59360, Note_on_c, 2, 74, 127
2, 59360, Note_on_c, 10, 69, 127
2, 59360, Note_on_c, 6, 66, 127
2, 62098, Note_off_c, 6, 66, 127
2, 62098, Note_off_c, 10, 69, 127
2, 62098, Note_off_c, 2, 74, 127
2, 62098, Note_off_c, 10, 45, 127
2, 62098, Note_off_c, 6, 42, 127
2, 62098, Note_off_c, 2, 62, 127
2, 62098, Note_off_c, 2, 50, 127
2, 62098, Note_off_c, 2, 38, 127
2, 62283, Note_on_c, 2, 50, 127
2, 62536, Note_on_c, 4, 52, 127
2, 62542, Note_off_c, 2, 50, 127
2, 62604, Note_off_c, 4, 52, 127
2, 62607, Note_on_c, 6, 54, 127
2, 62675, Note_off_c, 6, 54, 127
2, 62677, Note_on_c, 7, 55, 127
2, 62745, Note_off_c, 7, 55, 127
2, 62747, Note_on_c, 6, 54, 127
2, 62815, Note_off_c, 6, 54, 127
2, 62818, Note_on_c, 4, 52, 127
2, 62886, Note_off_c, 4, 52, 127
2, 62888, Note_on_c, 6, 54, 127
2, 62956, Note_off_c, 6, 54, 127
2, 62958, Note_on_c, 2, 50, 127
2, 63026, Note_off_c, 2, 50, 127
2, 63029, Note_on_c, 12, 59, 127
2, 63661, Note_off_c, 12, 59, 127
2, 63663, Note_on_c, 12, 59, 127
2, 63752, Note_off_c, 12, 59, 127
2, 63754, Note_on_c, 10, 57, 127
2, 64386, Note_off_c, 10, 57, 127
2, 64389, Note_on_c, 7, 55, 127
2, 64478, Note_off_c, 7, 55, 127
2, 64480, Note_on_c, 6, 54, 127
2, 65112, Note_off_c, 6, 54, 127
2, 65115, Note_on_c, 7, 55, 127
2, 65204, Note_off_c, 7, 55, 127
2, 65206, Note_on_c, 6, 54, 127
2, 65206, Note_on_c, 10, 57, 127
2, 65439, Note_off_c, 10, 57, 127
2, 65441, Note_on_c, 12, 59, 127
2, 65509, Note_off_c, 12, 59, 127
2, 65512, Note_on_c, 1, 61, 127
2, 65580, Note_off_c, 1, 61, 127
2, 65582, Note_on_c, 2, 62, 127
2, 65650, Note_off_c, 2, 62, 127
2, 65652, Note_on_c, 1, 61, 127
2, 65720, Note_off_c, 1, 61, 127
2, 65723, Note_on_c, 12, 59, 127
2, 65791, Note_off_c, 12, 59, 127
2, 65793, Note_on_c, 1, 61, 127
2, 65840, Note_off_c, 6, 54, 127
2, 65842, Note_on_c, 4, 52, 127
2, 65861, Note_off_c, 1, 61, 127
2, 65863, Note_on_c, 10, 57, 127
2, 65931, Note_off_c, 10, 57, 127
2, 65931, Note_off_c, 4, 52, 127
2, 65933, Note_on_c, 2, 50, 127
2, 65933, Note_on_c, 6, 66, 127
2, 66565, Note_off_c, 6, 66, 127
2, 66568, Note_on_c, 6, 66, 127
2, 66656, Note_off_c, 2, 50, 127
2, 66657, Note_off_c, 6, 66, 127
2, 66659, Note_on_c, 4, 52, 127
2, 66659, Note_on_c, 4, 64, 127
2, 67291, Note_off_c, 4, 64, 127
2, 67294, Note_on_c, 2, 62, 127
2, 67382, Note_off_c, 4, 52, 127
2, 67383, Note_off_c, 2, 62, 127
2, 67385, Note_on_c, 10, 45, 127
2, 67385, Note_on_c, 1, 61, 127
2, 67926, Note_off_c, 10, 45, 127
2, 67929, Note_on_c, 4, 52, 127
2, 67987, Note_off_c, 4, 52, 127
2, 67989, Note_on_c, 6, 54, 127
2, 68047, Note_off_c, 6, 54, 127
2, 68049, Note_on_c, 7, 55, 127
2, 68107, Note_off_c, 7, 55, 127
2, 68107, Note_off_c, 1, 61, 127
2, 68110, Note_on_c, 10, 57, 127
2, 68110, Note_on_c, 6, 66, 127
2, 68742, Note_off_c, 6, 66, 127
2, 68744, Note_on_c, 6, 66, 127
2, 68833, Note_off_c, 6, 66, 127
2, 68835, Note_on_c, 12, 59, 127
2, 69376, Note_off_c, 12, 59, 127
2, 69379, Note_on_c, 12, 59, 127
2, 69437, Note_off_c, 12, 59, 127
2, 69439, Note_on_c, 1, 61, 127
2, 69497, Note_off_c, 1, 61, 127
2, 69500, Note_on_c, 2, 62, 127
2, 69558, Note_off_c, 2, 62, 127
2, 69558, Note_off_c, 10, 57, 127
2, 69560, Note_on_c, 7, 55, 127
2, 69560, Note_on_c, 4, 64, 127
2, 69739, Note_off_c, 4, 64, 127
2, 69741, Note_on_c, 2, 62, 127
2, 69920, Note_off_c, 2, 62, 127
2, 69923, Note_on_c, 4, 64, 127
2, 70102, Note_off_c, 4, 64, 127
2, 70104, Note_on_c, 1, 61, 127
2, 70283, Note_off_c, 1, 61, 127
2, 70285, Note_on_c, 12, 59, 127
2, 70343, Note_off_c, 12, 59, 127
2, 70345, Note_on_c, 10, 57, 127
2, 70403, Note_off_c, 10, 57, 127
2, 70406, Note_on_c, 12, 59, 127
2, 70464, Note_off_c, 12, 59, 127
2, 70466, Note_on_c, 10, 57, 127
2, 70886, Note_off_c, 7, 55, 127
2, 70889, Note_on_c, 6, 54, 127
2, 70947, Note_off_c, 6, 54, 127
2, 70949, Note_on_c, 4, 52, 127
2, 71007, Note_off_c, 4, 52, 127
2, 71007, Note_off_c, 10, 57, 127
2, 71010, Note_on_c, 6, 54, 127
2, 71010, Note_on_c, 2, 62, 127
2, 71245, Note_on_c, 4, 64, 127
2, 71313, Note_off_c, 4, 64, 127
2, 71316, Note_on_c, 6, 66, 127
2, 71384, Note_off_c, 6, 66, 127
2, 71386, Note_on_c, 7, 67, 127
2, 71454, Note_off_c, 7, 67, 127
2, 71456, Note_on_c, 6, 66, 127
2, 71524, Note_off_c, 6, 66, 127
2, 71527, Note_on_c, 4, 64, 127
2, 71595, Note_off_c, 4, 64, 127
2, 71597, Note_on_c, 6, 66, 127
2, 71644, Note_off_c, 6, 54, 127
2, 71646, Note_on_c, 2, 50, 127
2, 71661, Note_off_c, 2, 62, 127
2, 71665, Note_off_c, 6, 66, 127
2, 71667, Note_on_c, 2, 62, 127
2, 71735, Note_off_c, 2, 50, 127
2, 71737, Note_on_c, 7, 55, 127
2, 71737, Note_on_c, 12, 71, 127
2, 72369, Note_off_c, 12, 71, 127
2, 72369, Note_off_c, 7, 55, 127
2, 72372, Note_on_c, 4, 52, 127
2, 72372, Note_on_c, 12, 71, 127
2, 72438, Note_off_c, 2, 62, 127
2, 72461, Note_off_c, 12, 71, 127
2, 72461, Note_off_c, 4, 52, 127
2, 72463, Note_on_c, 10, 57, 127
2, 72463, Note_on_c, 10, 69, 127
2, 72463, Note_on_c, 1, 61, 127
2, 73095, Note_off_c, 10, 69, 127
2, 73095, Note_off_c, 10, 57, 127
2, 73098, Note_on_c, 10, 45, 127
2, 73098, Note_on_c, 7, 67, 127
2, 73180, Note_off_c, 1, 61, 127
2, 73187, Note_off_c, 7, 67, 127
2, 73187, Note_off_c, 10, 45, 127
2, 73189, Note_on_c, 2, 50, 127
2, 73189, Note_on_c, 6, 66, 127
2, 73189, Note_on_c, 2, 62, 127
2, 73640, Note_off_c, 6, 66, 127
2, 73642, Note_on_c, 10, 69, 127
2, 73652, Note_off_c, 2, 62, 127
2, 73708, Note_off_c, 10, 69, 127
2, 73711, Note_on_c, 8, 68, 127
2, 73777, Note_off_c, 8, 68, 127
2, 73779, Note_on_c, 6, 66, 127
2, 73822, Note_off_c, 2, 50, 127
2, 73825, Note_on_c, 4, 52, 127
2, 73845, Note_off_c, 6, 66, 127
2, 73847, Note_on_c, 8, 68, 127
2, 73913, Note_off_c, 8, 68, 127
2, 73914, Note_off_c, 4, 52, 127
2, 73916, Note_on_c, 6, 54, 127
2, 73916, Note_on_c, 1, 61, 127
2, 73916, Note_on_c, 10, 69, 127
2, 74151, Note_on_c, 12, 71, 127
2, 74219, Note_off_c, 12, 71, 127
2, 74222, Note_on_c, 1, 73, 127
2, 74290, Note_off_c, 1, 73, 127
2, 74292, Note_on_c, 2, 74, 127
2, 74360, Note_off_c, 2, 74, 127
2, 74362, Note_on_c, 1, 73, 127
2, 74430, Note_off_c, 1, 73, 127
2, 74432, Note_on_c, 12, 71, 127
2, 74500, Note_off_c, 12, 71, 127
2, 74503, Note_on_c, 1, 73, 127
2, 74550, Note_off_c, 1, 61, 127
2, 74550, Note_off_c, 6, 54, 127
2, 74552, Note_on_c, 4, 52, 127
2, 74567, Note_off_c, 10, 69, 127
2, 74571, Note_off_c, 1, 73, 127
2, 74573, Note_on_c, 10, 69, 127
2, 74641, Note_off_c, 4, 52, 127
2, 74643, Note_on_c, 2, 50, 127
2, 74643, Note_on_c, 12, 59, 127
2, 74643, Note_on_c, 6, 78, 127
2, 75275, Note_off_c, 6, 78, 127
2, 75275, Note_off_c, 12, 59, 127
2, 75275, Note_off_c, 2, 50, 127
2, 75278, Note_on_c, 12, 47, 127
2, 75278, Note_on_c, 6, 78, 127
2, 75344, Note_off_c, 10, 69, 127
2, 75367, Note_off_c, 6, 78, 127
2, 75367, Note_off_c, 12, 47, 127
2, 75369, Note_on_c, 4, 52, 127
2, 75369, Note_on_c, 8, 68, 127
2, 75369, Note_on_c, 4, 76, 127
2, 76001, Note_off_c, 4, 76, 127
2, 76004, Note_on_c, 2, 74, 127
2, 76086, Note_off_c, 8, 68, 127
2, 76092, Note_off_c, 4, 52, 127
2, 76093, Note_off_c, 2, 74, 127
2, 76095, Note_on_c, 10, 45, 127
2, 76095, Note_on_c, 10, 57, 127
2, 76095, Note_on_c, 10, 69, 127
2, 76095, Note_on_c, 1, 73, 127
2, 76636, Note_off_c, 1, 73, 127
2, 76636, Note_off_c, 10, 69, 127
2, 76638, Note_on_c, 4, 76, 127
2, 76696, Note_off_c, 4, 76, 127
2, 76698, Note_off_c, 10, 45, 127
2, 76699, Note_on_c, 6, 78, 127
2, 76755, Note_off_c, 10, 57, 127
2, 76757, Note_off_c, 6, 78, 127
2, 76759, Note_on_c, 7, 79, 127
2, 76817, Note_off_c, 7, 79, 127
2, 76820, Note_on_c, 6, 66, 127
2, 76820, Note_on_c, 10, 81, 127
2, 76820, Note_on_c, 1, 73, 127
2, 77053, Note_off_c, 6, 66, 127
2, 77055, Note_on_c, 7, 67, 127
2, 77123, Note_off_c, 7, 67, 127
2, 77126, Note_on_c, 10, 69, 127
2, 77194, Note_off_c, 10, 69, 127
2, 77196, Note_on_c, 12, 71, 127
2, 77264, Note_off_c, 12, 71, 127
2, 77266, Note_on_c, 10, 69, 127
2, 77334, Note_off_c, 10, 69, 127
2, 77336, Note_on_c, 7, 67, 127
2, 77404, Note_off_c, 7, 67, 127
2, 77407, Note_on_c, 10, 69, 127
2, 77454, Note_off_c, 10, 81, 127
2, 77456, Note_on_c, 10, 81, 127
2, 77475, Note_off_c, 10, 69, 127
2, 77477, Note_on_c, 6, 66, 127
2, 77539, Note_off_c, 1, 73, 127
2, 77545, Note_off_c, 6, 66, 127
2, 77545, Note_off_c, 10, 81, 127
2, 77547, Note_on_c, 12, 71, 127
2, 77547, Note_on_c, 10, 81, 127
2, 77547, Note_on_c, 2, 74, 127
2, 78088, Note_off_c, 2, 74, 127
2, 78088, Note_off_c, 10, 81, 127
2, 78091, Note_on_c, 2, 74, 127
2, 78149, Note_off_c, 2, 74, 127
2, 78151, Note_on_c, 4, 76, 127
2, 78209, Note_off_c, 4, 76, 127
2, 78212, Note_on_c, 6, 78, 127
2, 78269, Note_off_c, 12, 71, 127
2, 78270, Note_off_c, 6, 78, 127
2, 78272, Note_on_c, 4, 64, 127
2, 78272, Note_on_c, 7, 79, 127
2, 78272, Note_on_c, 2, 74, 127
2, 78505, Note_off_c, 4, 64, 127
2, 78508, Note_on_c, 6, 66, 127
2, 78576, Note_off_c, 6, 66, 127
2, 78578, Note_on_c, 7, 67, 127
2, 78646, Note_off_c, 7, 67, 127
2, 78648, Note_on_c, 10, 69, 127
2, 78716, Note_off_c, 10, 69, 127
2, 78719, Note_on_c, 7, 67, 127
2, 78787, Note_off_c, 7, 67, 127
2, 78789, Note_on_c, 6, 66, 127
2, 78857, Note_off_c, 6, 66, 127
2, 78859, Note_on_c, 7, 67, 127
2, 78906, Note_off_c, 7, 79, 127
2, 78909, Note_on_c, 7, 79, 127
2, 78927, Note_off_c, 7, 67, 127
2, 78930, Note_on_c, 4, 64, 127
2, 78991, Note_off_c, 2, 74, 127
2, 78998, Note_off_c, 4, 64, 127
2, 78998, Note_off_c, 7, 79, 127
2, 79000, Note_on_c, 10, 69, 127
2, 79000, Note_on_c, 1, 73, 127
2, 79000, Note_on_c, 7, 79, 127
2, 79541, Note_off_c, 7, 79, 127
2, 79541, Note_off_c, 1, 73, 127
2, 79543, Note_on_c, 4, 76, 127
2, 79601, Note_off_c, 4, 76, 127
2, 79604, Note_on_c, 2, 74, 127
2, 79660, Note_off_c, 10, 69, 127
2, 79662, Note_off_c, 2, 74, 127
2, 79664, Note_on_c, 1, 73, 127
2, 79722, Note_off_c, 1, 73, 127
2, 79725, Note_on_c, 2, 38, 127
2, 79725, Note_on_c, 10, 69, 127
2, 79785, Note_on_c, 2, 74, 127
2, 79845, Note_on_c, 4, 76, 127
2, 79903, Note_off_c, 4, 76, 127
2, 79906, Note_on_c, 6, 78, 127
2, 79958, Note_off_c, 2, 38, 127
2, 79960, Note_on_c, 4, 40, 127
2, 80028, Note_off_c, 4, 40, 127
2, 80031, Note_on_c, 6, 42, 127
2, 80099, Note_off_c, 6, 42, 127
2, 80101, Note_on_c, 7, 43, 127
2, 80169, Note_off_c, 7, 43, 127
2, 80171, Note_on_c, 6, 42, 127
2, 80239, Note_off_c, 6, 42, 127
2, 80241, Note_on_c, 4, 40, 127
2, 80309, Note_off_c, 4, 40, 127
2, 80312, Note_on_c, 6, 42, 127
2, 80345, Note_off_c, 2, 74, 127
2, 80345, Note_off_c, 10, 69, 127
2, 80358, Note_off_c, 6, 78, 127
2, 80360, Note_on_c, 7, 67, 127
2, 80360, Note_on_c, 1, 73, 127
2, 80360, Note_on_c, 4, 76, 127
2, 80379, Note_off_c, 6, 42, 127
2, 80381, Note_on_c, 2, 38, 127
2, 80449, Note_off_c, 2, 38, 127
2, 80449, Note_off_c, 4, 76, 127
2, 80449, Note_off_c, 1, 73, 127
2, 80449, Note_off_c, 7, 67, 127
2, 80451, Note_on_c, 12, 47, 127
2, 80451, Note_on_c, 6, 66, 127
2, 80451, Note_on_c, 12, 71, 127
2, 80451, Note_on_c, 2, 74, 127
2, 81083, Note_off_c, 2, 74, 127
2, 81083, Note_off_c, 12, 71, 127
2, 81083, Note_off_c, 6, 66, 127
2, 81083, Note_off_c, 12, 47, 127
2, 81086, Note_on_c, 12, 47, 127
2, 81086, Note_on_c, 7, 67, 127
2, 81086, Note_on_c, 4, 76, 127
2, 81175, Note_off_c, 4, 76, 127
2, 81175, Note_off_c, 7, 67, 127
2, 81175, Note_off_c, 12, 47, 127
2, 81177, Note_on_c, 10, 45, 127
2, 81177, Note_on_c, 1, 73, 127
2, 81177, Note_on_c, 10, 69, 127
2, 81177, Note_on_c, 4, 64, 127
2, 81809, Note_off_c, 4, 64, 127
2, 81809, Note_off_c, 10, 69, 127
2, 81809, Note_off_c, 1, 73, 127
2, 81809, Note_off_c, 10, 45, 127
2, 81812, Note_on_c, 7, 43, 127
2, 81812, Note_on_c, 4, 64, 127
2, 81812, Note_on_c, 1, 73, 127
2, 81812, Note_on_c, 10, 69, 127
2, 81901, Note_off_c, 10, 69, 127
2, 81901, Note_off_c, 1, 73, 127
2, 81901, Note_off_c, 4, 64, 127
2, 81901, Note_off_c, 7, 43, 127
2, 81903, Note_on_c, 6, 42, 127
2, 81903, Note_on_c, 2, 62, 127
2, 81903, Note_on_c, 10, 69, 127
2, 81903, Note_on_c, 1, 73, 127
2, 82444, Note_off_c, 6, 42, 127
2, 82446, Note_on_c, 2, 50, 127
2, 82504, Note_off_c, 2, 50, 127
2, 82507, Note_on_c, 4, 52, 127
2, 82565, Note_off_c, 4, 52, 127
2, 82567, Note_on_c, 6, 54, 127
2, 82625, Note_off_c, 6, 54, 127
2, 82625, Note_off_c, 1, 73, 127
2, 82625, Note_off_c, 10, 69, 127
2, 82625, Note_off_c, 2, 62, 127
2, 82628, Note_on_c, 7, 55, 127
2, 82628, Note_on_c, 2, 62, 127
2, 82628, Note_on_c, 12, 71, 127
2, 82863, Note_on_c, 1, 73, 127
2, 82931, Note_off_c, 1, 73, 127
2, 82933, Note_on_c, 2, 74, 127
2, 83001, Note_off_c, 2, 74, 127
2, 83004, Note_on_c, 4, 76, 127
2, 83072, Note_off_c, 4, 76, 127
2, 83074, Note_on_c, 2, 74, 127
2, 83142, Note_off_c, 2, 74, 127
2, 83144, Note_on_c, 1, 73, 127
2, 83212, Note_off_c, 1, 73, 127
2, 83215, Note_on_c, 2, 74, 127
2, 83262, Note_off_c, 7, 55, 127
2, 83264, Note_on_c, 6, 54, 127
2, 83279, Note_off_c, 12, 71, 127
2, 83283, Note_off_c, 2, 74, 127
2, 83285, Note_on_c, 12, 71, 127
2, 83347, Note_off_c, 2, 62, 127
2, 83353, Note_off_c, 6, 54, 127
2, 83355, Note_on_c, 4, 52, 127
2, 83355, Note_on_c, 1, 61, 127
2, 83355, Note_on_c, 7, 79, 127
2, 83987, Note_off_c, 7, 79, 127
2, 83987, Note_off_c, 4, 52, 127
2, 83990, Note_on_c, 1, 49, 127
2, 83990, Note_on_c, 7, 79, 127
2, 84056, Note_off_c, 12, 71, 127
2, 84079, Note_off_c, 7, 79, 127
2, 84079, Note_off_c, 1, 49, 127
2, 84081, Note_on_c, 6, 54, 127
2, 84081, Note_on_c, 6, 78, 127
2, 84081, Note_on_c, 11, 70, 127
2, 84713, Note_off_c, 6, 78, 127
2, 84716, Note_on_c, 4, 76, 127
2, 84798, Note_off_c, 11, 70, 127
2, 84804, Note_off_c, 6, 54, 127
2, 84804, Note_off_c, 1, 61, 127
2, 84805, Note_off_c, 4, 76, 127
2, 84807, Note_on_c, 12, 47, 127
2, 84807, Note_on_c, 12, 59, 127
2, 84807, Note_on_c, 12, 71, 127
2, 84807, Note_on_c, 4, 76, 127
2, 84896, Note_off_c, 12, 47, 127
2, 84898, Note_on_c, 1, 49, 127
2, 84987, Note_off_c, 1, 49, 127
2, 84989, Note_on_c, 2, 50, 127
2, 85078, Note_off_c, 2, 50, 127
2, 85080, Note_on_c, 4, 52, 127
2, 85169, Note_off_c, 4, 52, 127
2, 85169, Note_off_c, 4, 76, 127
2, 85171, Note_on_c, 2, 50, 127
2, 85171, Note_on_c, 2, 74, 127
2, 85260, Note_off_c, 2, 50, 127
2, 85262, Note_on_c, 1, 49, 127
2, 85351, Note_off_c, 1, 49, 127
2, 85353, Note_on_c, 2, 50, 127
2, 85442, Note_off_c, 2, 50, 127
2, 85444, Note_on_c, 12, 47, 127
2, 85527, Note_off_c, 12, 59, 127
2, 85533, Note_off_c, 12, 47, 127
2, 85533, Note_off_c, 2, 74, 127
2, 85535, Note_on_c, 8, 56, 127
2, 85535, Note_on_c, 12, 83, 127
2, 85714, Note_off_c, 12, 83, 127
2, 85717, Note_on_c, 10, 81, 127
2, 85896, Note_off_c, 10, 81, 127
2, 85898, Note_on_c, 12, 83, 127
2, 86075, Note_off_c, 12, 71, 127
2, 86077, Note_off_c, 12, 83, 127
2, 86078, Note_off_c, 8, 56, 127
2, 86079, Note_on_c, 8, 80, 127
2, 86258, Note_off_c, 8, 80, 127
2, 86260, Note_on_c, 2, 74, 127
2, 86260, Note_on_c, 12, 71, 127
2, 86260, Note_on_c, 8, 80, 127
2, 86439, Note_off_c, 8, 80, 127
2, 86441, Note_on_c, 6, 78, 127
2, 86620, Note_off_c, 6, 78, 127
2, 86623, Note_on_c, 8, 80, 127
2, 86802, Note_off_c, 8, 80, 127
2, 86804, Note_on_c, 4, 76, 127
2, 86892, Note_off_c, 12, 71, 127
2, 86892, Note_off_c, 2, 74, 127
2, 86895, Note_on_c, 8, 68, 127
2, 86895, Note_on_c, 12, 71, 127
2, 86984, Note_off_c, 12, 71, 127
2, 86984, Note_off_c, 8, 68, 127
2, 86984, Note_off_c, 4, 76, 127
2, 86986, Note_on_c, 8, 68, 127
2, 86986, Note_on_c, 12, 71, 127
2, 86986, Note_on_c, 4, 76, 127
2, 87165, Note_off_c, 4, 76, 127
2, 87167, Note_on_c, 2, 74, 127
2, 87346, Note_off_c, 2, 74, 127
2, 87348, Note_on_c, 4, 76, 127
2, 87527, Note_off_c, 4, 76, 127
2, 87530, Note_on_c, 1, 73, 127
2, 87618, Note_off_c, 12, 71, 127
2, 87618, Note_off_c, 8, 68, 127
2, 87621, Note_on_c, 10, 69, 127
2, 87621, Note_on_c, 4, 64, 127
2, 87710, Note_off_c, 4, 64, 127
2, 87710, Note_off_c, 10, 69, 127
2, 87710, Note_off_c, 1, 73, 127
2, 87712, Note_on_c, 10, 45, 127
2, 87712, Note_on_c, 2, 74, 127
2, 87712, Note_on_c, 10, 69, 127
2, 87712, Note_on_c, 4, 64, 127
2, 87801, Note_off_c, 10, 45, 127
2, 87803, Note_on_c, 12, 47, 127
2, 87892, Note_off_c, 12, 47, 127
2, 87894, Note_on_c, 1, 49, 127
2, 87983, Note_off_c, 1, 49, 127
2, 87985, Note_on_c, 2, 50, 127
2, 88074, Note_off_c, 2, 50, 127
2, 88074, Note_off_c, 2, 74, 127
2, 88076, Note_on_c, 1, 49, 127
2, 88076, Note_on_c, 1, 73, 127
2, 88165, Note_off_c, 1, 49, 127
2, 88167, Note_on_c, 12, 47, 127
2, 88256, Note_off_c, 12, 47, 127
2, 88258, Note_on_c, 1, 49, 127
2, 88347, Note_off_c, 1, 49, 127
2, 88349, Note_on_c, 10, 45, 127
2, 88432, Note_off_c, 4, 64, 127
2, 88438, Note_off_c, 10, 45, 127
2, 88438, Note_off_c, 1, 73, 127
2, 88440, Note_on_c, 6, 54, 127
2, 88440, Note_on_c, 10, 81, 127
2, 88619, Note_off_c, 10, 81, 127
2, 88622, Note_on_c, 7, 79, 127
2, 88801, Note_off_c, 7, 79, 127
2, 88803, Note_on_c, 10, 81, 127
2, 88980, Note_off_c, 10, 69, 127
2, 88982, Note_off_c, 10, 81, 127
2, 88984, Note_on_c, 6, 78, 127
2, 89074, Note_off_c, 6, 54, 127
2, 89164, Note_off_c, 6, 78, 127
2, 89166, Note_on_c, 10, 69, 127
2, 89166, Note_on_c, 0, 72, 127
2, 89166, Note_on_c, 6, 78, 127
2, 89345, Note_off_c, 6, 78, 127
2, 89347, Note_on_c, 4, 76, 127
2, 89526, Note_off_c, 4, 76, 127
2, 89529, Note_on_c, 6, 78, 127
2, 89708, Note_off_c, 6, 78, 127
2, 89710, Note_on_c, 2, 74, 127
2, 89798, Note_off_c, 0, 72, 127
2, 89798, Note_off_c, 10, 69, 127
2, 89801, Note_on_c, 10, 69, 127
2, 89801, Note_on_c, 6, 66, 127
2, 89890, Note_off_c, 6, 66, 127
2, 89890, Note_off_c, 10, 69, 127
2, 89890, Note_off_c, 2, 74, 127
2, 89892, Note_on_c, 6, 66, 127
2, 89892, Note_on_c, 10, 69, 127
2, 89892, Note_on_c, 2, 74, 127
2, 90071, Note_off_c, 2, 74, 127
2, 90073, Note_on_c, 0, 72, 127
2, 90252, Note_off_c, 0, 72, 127
2, 90254, Note_on_c, 2, 74, 127
2, 90433, Note_off_c, 2, 74, 127
2, 90435, Note_on_c, 12, 71, 127
2, 90524, Note_off_c, 10, 69, 127
2, 90524, Note_off_c, 6, 66, 127
2, 90527, Note_on_c, 2, 62, 127
2, 90527, Note_on_c, 7, 67, 127
2, 90615, Note_off_c, 12, 71, 127
2, 90616, Note_off_c, 7, 67, 127
2, 90616, Note_off_c, 2, 62, 127
2, 90618, Note_on_c, 7, 43, 127
2, 90618, Note_on_c, 0, 72, 127
2, 90618, Note_on_c, 2, 62, 127
2, 90618, Note_on_c, 7, 67, 127
2, 90707, Note_off_c, 7, 43, 127
2, 90709, Note_on_c, 10, 45, 127
2, 90798, Note_off_c, 10, 45, 127
2, 90800, Note_on_c, 12, 47, 127
2, 90889, Note_off_c, 12, 47, 127
2, 90891, Note_on_c, 0, 48, 127
2, 90980, Note_off_c, 0, 48, 127
2, 90980, Note_off_c, 0, 72, 127
2, 90982, Note_on_c, 12, 47, 127
2, 90982, Note_on_c, 12, 71, 127
2, 91071, Note_off_c, 12, 47, 127
2, 91073, Note_on_c, 10, 45, 127
2, 91162, Note_off_c, 10, 45, 127
2, 91164, Note_on_c, 12, 47, 127
2, 91253, Note_off_c, 12, 47, 127
2, 91255, Note_on_c, 7, 43, 127
2, 91338, Note_off_c, 7, 67, 127
2, 91338, Note_off_c, 2, 62, 127
2, 91344, Note_off_c, 7, 43, 127
2, 91344, Note_off_c, 12, 71, 127
2, 91346, Note_on_c, 4, 52, 127
2, 91346, Note_on_c, 7, 67, 127
2, 91579, Note_off_c, 7, 67, 127
2, 91582, Note_on_c, 10, 69, 127
2, 91650, Note_off_c, 10, 69, 127
2, 91652, Note_on_c, 12, 71, 127
2, 91720, Note_off_c, 12, 71, 127
2, 91723, Note_on_c, 0, 72, 127
2, 91791, Note_off_c, 0, 72, 127
2, 91793, Note_on_c, 12, 71, 127
2, 91861, Note_off_c, 12, 71, 127
2, 91863, Note_on_c, 10, 69, 127
2, 91931, Note_off_c, 10, 69, 127
2, 91933, Note_on_c, 12, 71, 127
2, 91980, Note_off_c, 4, 52, 127
2, 91983, Note_on_c, 2, 50, 127
2, 92001, Note_off_c, 12, 71, 127
2, 92004, Note_on_c, 7, 67, 127
2, 92072, Note_off_c, 7, 67, 127
2, 92072, Note_off_c, 2, 50, 127
2, 92074, Note_on_c, 0, 48, 127
2, 92074, Note_on_c, 4, 76, 127
2, 92706, Note_off_c, 4, 76, 127
2, 92709, Note_on_c, 4, 76, 127
2, 92797, Note_off_c, 0, 48, 127
2, 92798, Note_off_c, 4, 76, 127
2, 92800, Note_on_c, 2, 50, 127
2, 92800, Note_on_c, 2, 74, 127
2, 93432, Note_off_c, 2, 74, 127
2, 93434, Note_on_c, 0, 72, 127
2, 93523, Note_off_c, 0, 72, 127
2, 93523, Note_off_c, 2, 50, 127
2, 93526, Note_on_c, 7, 55, 127
2, 93526, Note_on_c, 12, 71, 127
2, 93977, Note_off_c, 12, 71, 127
2, 93979, Note_on_c, 2, 74, 127
2, 94045, Note_off_c, 2, 74, 127
2, 94047, Note_on_c, 1, 73, 127
2, 94113, Note_off_c, 1, 73, 127
2, 94116, Note_on_c, 12, 71, 127
2, 94159, Note_off_c, 7, 55, 127
2, 94161, Note_on_c, 10, 57, 127
2, 94182, Note_off_c, 12, 71, 127
2, 94184, Note_on_c, 1, 73, 127
2, 94250, Note_off_c, 1, 73, 127
2, 94250, Note_off_c, 10, 57, 127
2, 94252, Note_on_c, 12, 59, 127
2, 94252, Note_on_c, 2, 62, 127
2, 94252, Note_on_c, 2, 74, 127
2, 94485, Note_off_c, 2, 62, 127
2, 94488, Note_on_c, 4, 64, 127
2, 94556, Note_off_c, 4, 64, 127
2, 94558, Note_on_c, 6, 66, 127
2, 94626, Note_off_c, 6, 66, 127
2, 94629, Note_on_c, 7, 67, 127
2, 94697, Note_off_c, 7, 67, 127
2, 94699, Note_on_c, 6, 66, 127
2, 94767, Note_off_c, 6, 66, 127
2, 94769, Note_on_c, 4, 64, 127
2, 94837, Note_off_c, 4, 64, 127
2, 94839, Note_on_c, 6, 66, 127
2, 94876, Note_off_c, 12, 59, 127
2, 94888, Note_on_c, 10, 57, 127
2, 94906, Note_off_c, 6, 66, 127
2, 94909, Note_on_c, 2, 62, 127
2, 94946, Note_off_c, 10, 57, 127
2, 94976, Note_off_c, 2, 74, 127
2, 94977, Note_off_c, 2, 62, 127
2, 94979, Note_on_c, 7, 55, 127
2, 94979, Note_on_c, 12, 71, 127
2, 95611, Note_off_c, 12, 71, 127
2, 95611, Note_off_c, 7, 55, 127
2, 95614, Note_on_c, 4, 52, 127
2, 95614, Note_on_c, 12, 71, 127
2, 95703, Note_off_c, 12, 71, 127
2, 95703, Note_off_c, 4, 52, 127
2, 95705, Note_on_c, 10, 57, 127
2, 95705, Note_on_c, 10, 69, 127
2, 95705, Note_on_c, 1, 73, 127
2, 96337, Note_off_c, 1, 73, 127
2, 96337, Note_off_c, 10, 69, 127
2, 96337, Note_off_c, 10, 57, 127
2, 96339, Note_on_c, 10, 45, 127
2, 96339, Note_on_c, 7, 67, 127
2, 96428, Note_off_c, 7, 67, 127
2, 96428, Note_off_c, 10, 45, 127
2, 96431, Note_on_c, 12, 47, 127
2, 96431, Note_on_c, 2, 74, 127
2, 96431, Note_on_c, 6, 66, 127
2, 96664, Note_off_c, 12, 47, 127
2, 96666, Note_on_c, 1, 49, 127
2, 96734, Note_off_c, 1, 49, 127
2, 96736, Note_on_c, 2, 50, 127
2, 96804, Note_off_c, 2, 50, 127
2, 96807, Note_on_c, 4, 52, 127
2, 96875, Note_off_c, 4, 52, 127
2, 96877, Note_on_c, 2, 50, 127
2, 96945, Note_off_c, 2, 50, 127
2, 96947, Note_on_c, 1, 49, 127
2, 97015, Note_off_c, 1, 49, 127
2, 97016, Note_off_c, 6, 66, 127
2, 97016, Note_off_c, 2, 74, 127
2, 97018, Note_on_c, 2, 50, 127
2, 97018, Note_on_c, 12, 71, 127
2, 97086, Note_off_c, 2, 50, 127
2, 97088, Note_on_c, 12, 47, 127
2, 97156, Note_off_c, 12, 47, 127
2, 97156, Note_off_c, 12, 71, 127
2, 97158, Note_on_c, 12, 59, 127
2, 97158, Note_on_c, 2, 74, 127
2, 97391, Note_off_c, 2, 74, 127
2, 97394, Note_on_c, 4, 76, 127
2, 97462, Note_off_c, 4, 76, 127
2, 97464, Note_on_c, 6, 78, 127
2, 97532, Note_off_c, 6, 78, 127
2, 97534, Note_on_c, 7, 79, 127
2, 97602, Note_off_c, 7, 79, 127
2, 97605, Note_on_c, 6, 78, 127
2, 97673, Note_off_c, 6, 78, 127
2, 97675, Note_on_c, 4, 76, 127
2, 97743, Note_off_c, 4, 76, 127
2, 97745, Note_on_c, 6, 78, 127
2, 97792, Note_off_c, 12, 59, 127
2, 97795, Note_on_c, 10, 57, 127
2, 97813, Note_off_c, 6, 78, 127
2, 97816, Note_on_c, 2, 74, 127
2, 97884, Note_off_c, 2, 74, 127
2, 97884, Note_off_c, 10, 57, 127
2, 97886, Note_on_c, 7, 55, 127
2, 97886, Note_on_c, 12, 83, 127
2, 98518, Note_off_c, 12, 83, 127
2, 98518, Note_off_c, 7, 55, 127
2, 98521, Note_on_c, 4, 52, 127
2, 98521, Note_on_c, 12, 83, 127
2, 98610, Note_off_c, 12, 83, 127
2, 98610, Note_off_c, 4, 52, 127
2, 98612, Note_on_c, 10, 57, 127
2, 98612, Note_on_c, 0, 72, 127
2, 98612, Note_on_c, 10, 81, 127
2, 99244, Note_off_c, 10, 81, 127
2, 99244, Note_off_c, 0, 72, 127
2, 99244, Note_off_c, 10, 57, 127
2, 99246, Note_on_c, 10, 45, 127
2, 99246, Note_on_c, 7, 79, 127
2, 99335, Note_off_c, 7, 79, 127
2, 99335, Note_off_c, 10, 45, 127
2, 99337, Note_on_c, 2, 50, 127
2, 99337, Note_on_c, 6, 78, 127
2, 99878, Note_off_c, 6, 78, 127
2, 99881, Note_on_c, 2, 74, 127
2, 99939, Note_off_c, 2, 74, 127
2, 99941, Note_on_c, 4, 76, 127
2, 99999, Note_off_c, 4, 76, 127
2, 100002, Note_on_c, 6, 78, 127
2, 100059, Note_off_c, 2, 50, 127
2, 100060, Note_off_c, 6, 78, 127
2, 100062, Note_on_c, 4, 52, 127
2, 100062, Note_on_c, 7, 55, 127
2, 100062, Note_on_c, 12, 71, 127
2, 100062, Note_on_c, 7, 79, 127
2, 100295, Note_off_c, 7, 55, 127
2, 100298, Note_on_c, 10, 57, 127
2, 100366, Note_off_c, 10, 57, 127
2, 100368, Note_on_c, 12, 59, 127
2, 100436, Note_off_c, 12, 59, 127
2, 100438, Note_on_c, 0, 60, 127
2, 100506, Note_off_c, 0, 60, 127
2, 100509, Note_on_c, 12, 59, 127
2, 100577, Note_off_c, 12, 59, 127
2, 100579, Note_on_c, 10, 57, 127
2, 100647, Note_off_c, 10, 57, 127
2, 100649, Note_on_c, 12, 59, 127
2, 100696, Note_off_c, 7, 79, 127
2, 100696, Note_off_c, 12, 71, 127
2, 100699, Note_on_c, 7, 79, 127
2, 100713, Note_off_c, 4, 52, 127
2, 100717, Note_off_c, 12, 59, 127
2, 100720, Note_on_c, 7, 55, 127
2, 100788, Note_off_c, 7, 55, 127
2, 100788, Note_off_c, 7, 79, 127
2, 100790, Note_on_c, 0, 60, 127
2, 100790, Note_on_c, 4, 64, 127
2, 100790, Note_on_c, 10, 69, 127
2, 100790, Note_on_c, 7, 79, 127
2, 101422, Note_off_c, 7, 79, 127
2, 101422, Note_off_c, 4, 64, 127
2, 101422, Note_off_c, 0, 60, 127
2, 101425, Note_on_c, 10, 57, 127
2, 101425, Note_on_c, 4, 64, 127
2, 101425, Note_on_c, 10, 81, 127
2, 101514, Note_off_c, 10, 81, 127
2, 101514, Note_off_c, 4, 64, 127
2, 101514, Note_off_c, 10, 57, 127
2, 101516, Note_on_c, 2, 62, 127
2, 101516, Note_on_c, 6, 78, 127
2, 102148, Note_off_c, 6, 78, 127
2, 102148, Note_off_c, 2, 62, 127
2, 102150, Note_on_c, 2, 50, 127
2, 102150, Note_on_c, 0, 60, 127
2, 102150, Note_on_c, 6, 78, 127
2, 102239, Note_off_c, 6, 78, 127
2, 102239, Note_off_c, 0, 60, 127
2, 102239, Note_off_c, 2, 50, 127
2, 102239, Note_off_c, 10, 69, 127
2, 102241, Note_on_c, 7, 55, 127
2, 102241, Note_on_c, 12, 59, 127
2, 102241, Note_on_c, 6, 78, 127
2, 102241, Note_on_c, 7, 67, 127
2, 102842, Note_off_c, 6, 78, 127
2, 102845, Note_on_c, 4, 76, 127
2, 102903, Note_off_c, 4, 76, 127
2, 102906, Note_on_c, 3, 75, 127
2, 102957, Note_off_c, 7, 67, 127
2, 102963, Note_off_c, 12, 59, 127
2, 102963, Note_off_c, 7, 55, 127
2, 102964, Note_off_c, 3, 75, 127
2, 102966, Note_on_c, 4, 40, 127
2, 102966, Note_on_c, 7, 67, 127
2, 102966, Note_on_c, 4, 76, 127
2, 102966, Note_on_c, 12, 71, 127
2, 103199, Note_off_c, 4, 40, 127
2, 103202, Note_on_c, 6, 42, 127
2, 103270, Note_off_c, 6, 42, 127
2, 103272, Note_on_c, 7, 43, 127
2, 103340, Note_off_c, 7, 43, 127
2, 103342, Note_on_c, 10, 45, 127
2, 103410, Note_off_c, 10, 45, 127
2, 103413, Note_on_c, 7, 43, 127
2, 103481, Note_off_c, 7, 43, 127
2, 103483, Note_on_c, 6, 42, 127
2, 103551, Note_off_c, 6, 42, 127
2, 103553, Note_on_c, 7, 43, 127
2, 103621, Note_off_c, 7, 43, 127
2, 103624, Note_on_c, 4, 40, 127
2, 103691, Note_off_c, 12, 71, 127
2, 103691, Note_off_c, 4, 76, 127
2, 103691, Note_off_c, 7, 67, 127
2, 103692, Note_off_c, 4, 40, 127
2, 103694, Note_on_c, 0, 48, 127
2, 103694, Note_on_c, 6, 66, 127
2, 103758, Note_on_c, 10, 69, 127
2, 103823, Note_on_c, 4, 76, 127
2, 104326, Note_off_c, 0, 48, 127
2, 104334, Note_off_c, 4, 76, 127
2, 104345, Note_on_c, 3, 75, 127
2, 104345, Note_on_c, 0, 48, 127
2, 104434, Note_off_c, 0, 48, 127
2, 104434, Note_off_c, 3, 75, 127
2, 104436, Note_on_c, 4, 76, 127
2, 104436, Note_on_c, 12, 47, 127
2, 105068, Note_off_c, 12, 47, 127
2, 105068, Note_off_c, 4, 76, 127
2, 105070, Note_on_c, 6, 78, 127
2, 105070, Note_on_c, 10, 45, 127
2, 105159, Note_off_c, 10, 45, 127
2, 105159, Note_off_c, 6, 78, 127
2, 105159, Note_off_c, 10, 69, 127
2, 105161, Note_on_c, 12, 71, 127
2, 105161, Note_on_c, 7, 43, 127
2, 105762, Note_off_c, 12, 71, 127
2, 105765, Note_on_c, 0, 72, 127
2, 105793, Note_off_c, 7, 43, 127
2, 105796, Note_on_c, 6, 42, 127
2, 105824, Note_off_c, 0, 72, 127
2, 105827, Note_on_c, 10, 69, 127
2, 105867, Note_off_c, 6, 66, 127
2, 105885, Note_off_c, 6, 42, 127
2, 105887, Note_on_c, 4, 64, 127
2, 105887, Note_on_c, 7, 43, 127
2, 105939, Note_off_c, 10, 69, 127
2, 106008, Note_on_c, 7, 67, 127
2, 106129, Note_on_c, 12, 71, 127
2, 106507, Note_off_c, 4, 64, 127
2, 106508, Note_off_c, 7, 67, 127
2, 106518, Note_off_c, 7, 43, 127
2, 106519, Note_off_c, 12, 71, 127
2, 106521, Note_on_c, 4, 64, 127
2, 106521, Note_on_c, 0, 72, 127
2, 106521, Note_on_c, 10, 45, 127
2, 106610, Note_off_c, 10, 45, 127
2, 106610, Note_off_c, 0, 72, 127
2, 106610, Note_off_c, 4, 64, 127
2, 106612, Note_on_c, 4, 64, 127
2, 106612, Note_on_c, 7, 67, 127
2, 106612, Note_on_c, 12, 47, 127
2, 107247, Note_on_c, 10, 57, 127
2, 107335, Note_off_c, 7, 67, 127
2, 107335, Note_off_c, 4, 64, 127
2, 107336, Note_off_c, 10, 57, 127
2, 107338, Note_on_c, 7, 67, 127
2, 107338, Note_on_c, 3, 63, 127
2, 107338, Note_on_c, 12, 59, 127
2, 107396, Note_off_c, 7, 67, 127
2, 107398, Note_on_c, 6, 66, 127
2, 107456, Note_off_c, 6, 66, 127
2, 107458, Note_on_c, 7, 67, 127
2, 107516, Note_off_c, 7, 67, 127
2, 107519, Note_on_c, 6, 66, 127
2, 107939, Note_off_c, 12, 59, 127
2, 107942, Note_on_c, 10, 57, 127
2, 108054, Note_off_c, 3, 63, 127
2, 108060, Note_off_c, 10, 57, 127
2, 108060, Note_off_c, 6, 66, 127
2, 108060, Note_off_c, 12, 47, 127
2, 108062, Note_on_c, 4, 64, 127
2, 108062, Note_on_c, 4, 52, 127
2, 108062, Note_on_c, 7, 55, 127
2, 108151, Note_off_c, 4, 64, 127
2, 108153, Note_on_c, 6, 66, 127
2, 108242, Note_off_c, 6, 66, 127
2, 108245, Note_on_c, 7, 67, 127
2, 108334, Note_off_c, 7, 67, 127
2, 108336, Note_on_c, 10, 69, 127
2, 108425, Note_off_c, 10, 69, 127
2, 108427, Note_on_c, 7, 67, 127
2, 108516, Note_off_c, 7, 67, 127
2, 108518, Note_on_c, 6, 66, 127
2, 108607, Note_off_c, 6, 66, 127
2, 108609, Note_on_c, 7, 67, 127
2, 108698, Note_off_c, 7, 67, 127
2, 108700, Note_on_c, 4, 64, 127
2, 108788, Note_off_c, 7, 55, 127
2, 108788, Note_off_c, 4, 52, 127
2, 108789, Note_off_c, 4, 64, 127
2, 108791, Note_on_c, 7, 79, 127
2, 108791, Note_on_c, 12, 59, 127
2, 108970, Note_off_c, 12, 59, 127
2, 108972, Note_on_c, 10, 57, 127
2, 109151, Note_off_c, 10, 57, 127
2, 109153, Note_on_c, 12, 59, 127
2, 109244, Note_off_c, 7, 79, 127
2, 109333, Note_off_c, 12, 59, 127
2, 109336, Note_on_c, 7, 55, 127
2, 109515, Note_off_c, 7, 55, 127
2, 109517, Note_on_c, 12, 59, 127
2, 109517, Note_on_c, 4, 64, 127
2, 109517, Note_on_c, 7, 55, 127
2, 109696, Note_off_c, 7, 55, 127
2, 109698, Note_on_c, 6, 54, 127
2, 109877, Note_off_c, 6, 54, 127
2, 109879, Note_on_c, 7, 55, 127
2, 110058, Note_off_c, 7, 55, 127
2, 110060, Note_on_c, 4, 52, 127
2, 110149, Note_off_c, 4, 64, 127
2, 110149, Note_off_c, 12, 59, 127
2, 110151, Note_on_c, 1, 61, 127
2, 110151, Note_on_c, 7, 55, 127
2, 110240, Note_off_c, 7, 55, 127
2, 110240, Note_off_c, 1, 61, 127
2, 110240, Note_off_c, 4, 52, 127
2, 110243, Note_on_c, 1, 61, 127
2, 110243, Note_on_c, 7, 55, 127
2, 110243, Note_on_c, 4, 52, 127
2, 110422, Note_off_c, 4, 52, 127
2, 110424, Note_on_c, 2, 50, 127
2, 110603, Note_off_c, 2, 50, 127
2, 110605, Note_on_c, 4, 52, 127
2, 110784, Note_off_c, 4, 52, 127
2, 110786, Note_on_c, 1, 49, 127
2, 110875, Note_off_c, 7, 55, 127
2, 110875, Note_off_c, 1, 61, 127
2, 110877, Note_on_c, 10, 57, 127
2, 110877, Note_on_c, 4, 52, 127
2, 110966, Note_off_c, 4, 52, 127
2, 110966, Note_off_c, 10, 57, 127
2, 110966, Note_off_c, 1, 49, 127
2, 110968, Note_on_c, 10, 69, 127
2, 110968, Note_on_c, 4, 52, 127
2, 110968, Note_on_c, 10, 57, 127
2, 110968, Note_on_c, 1, 49, 127
2, 111057, Note_off_c, 10, 69, 127
2, 111059, Note_on_c, 12, 71, 127
2, 111148, Note_off_c, 12, 71, 127
2, 111150, Note_on_c, 1, 73, 127
2, 111239, Note_off_c, 1, 73, 127
2, 111242, Note_on_c, 2, 74, 127
2, 111331, Note_off_c, 2, 74, 127
2, 111333, Note_on_c, 1, 73, 127
2, 111422, Note_off_c, 1, 73, 127
2, 111424, Note_on_c, 12, 71, 127
2, 111513, Note_off_c, 12, 71, 127
2, 111515, Note_on_c, 1, 73, 127
2, 111604, Note_off_c, 1, 73, 127
2, 111606, Note_on_c, 10, 69, 127
2, 111694, Note_off_c, 1, 49, 127
2, 111694, Note_off_c, 10, 57, 127
2, 111694, Note_off_c, 4, 52, 127
2, 111695, Note_off_c, 10, 69, 127
2, 111697, Note_on_c, 6, 78, 127
2, 111697, Note_on_c, 10, 57, 127
2, 111876, Note_off_c, 10, 57, 127
2, 111878, Note_on_c, 7, 55, 127
2, 112057, Note_off_c, 7, 55, 127
2, 112059, Note_on_c, 10, 57, 127
2, 112238, Note_off_c, 10, 57, 127
2, 112240, Note_off_c, 6, 78, 127
2, 112241, Note_on_c, 6, 54, 127
2, 112420, Note_off_c, 6, 54, 127
2, 112422, Note_on_c, 2, 62, 127
2, 112422, Note_on_c, 10, 57, 127
2, 112422, Note_on_c, 6, 54, 127
2, 112601, Note_off_c, 6, 54, 127
2, 112603, Note_on_c, 4, 52, 127
2, 112782, Note_off_c, 4, 52, 127
2, 112784, Note_on_c, 6, 54, 127
2, 112963, Note_off_c, 6, 54, 127
2, 112965, Note_on_c, 2, 50, 127
2, 113054, Note_off_c, 10, 57, 127
2, 113054, Note_off_c, 2, 62, 127
2, 113056, Note_on_c, 12, 59, 127
2, 113056, Note_on_c, 6, 54, 127
2, 113145, Note_off_c, 6, 54, 127
2, 113145, Note_off_c, 12, 59, 127
2, 113145, Note_off_c, 2, 50, 127
2, 113148, Note_on_c, 12, 59, 127
2, 113148, Note_on_c, 6, 54, 127
2, 113148, Note_on_c, 2, 50, 127
2, 113327, Note_off_c, 2, 50, 127
2, 113329, Note_on_c, 1, 49, 127
2, 113508, Note_off_c, 1, 49, 127
2, 113510, Note_on_c, 2, 50, 127
2, 113689, Note_off_c, 2, 50, 127
2, 113691, Note_on_c, 12, 47, 127
2, 113780, Note_off_c, 6, 54, 127
2, 113780, Note_off_c, 12, 59, 127
2, 113782, Note_on_c, 7, 55, 127
2, 113782, Note_on_c, 2, 50, 127
2, 113871, Note_off_c, 2, 50, 127
2, 113871, Note_off_c, 7, 55, 127
2, 113871, Note_off_c, 12, 47, 127
2, 113873, Note_on_c, 7, 55, 127
2, 113873, Note_on_c, 7, 67, 127
2, 113873, Note_on_c, 2, 50, 127
2, 113873, Note_on_c, 12, 47, 127
2, 113962, Note_off_c, 7, 67, 127
2, 113964, Note_on_c, 10, 69, 127
2, 114053, Note_off_c, 10, 69, 127
2, 114055, Note_on_c, 12, 71, 127
2, 114144, Note_off_c, 12, 71, 127
2, 114147, Note_on_c, 0, 72, 127
2, 114236, Note_off_c, 0, 72, 127
2, 114238, Note_on_c, 12, 71, 127
2, 114327, Note_off_c, 12, 71, 127
2, 114329, Note_on_c, 10, 69, 127
2, 114418, Note_off_c, 10, 69, 127
2, 114420, Note_on_c, 12, 71, 127
2, 114509, Note_off_c, 12, 71, 127
2, 114511, Note_on_c, 7, 67, 127
2, 114593, Note_off_c, 2, 50, 127
2, 114593, Note_off_c, 7, 55, 127
2, 114599, Note_off_c, 12, 47, 127
2, 114600, Note_off_c, 7, 67, 127
2, 114602, Note_on_c, 4, 76, 127
2, 114602, Note_on_c, 7, 55, 127
2, 114781, Note_off_c, 7, 55, 127
2, 114783, Note_on_c, 6, 54, 127
2, 114962, Note_off_c, 6, 54, 127
2, 114964, Note_on_c, 7, 55, 127
2, 115143, Note_off_c, 7, 55, 127
2, 115145, Note_off_c, 4, 76, 127
2, 115146, Note_on_c, 4, 52, 127
2, 115325, Note_off_c, 4, 52, 127
2, 115327, Note_on_c, 7, 55, 127
2, 115327, Note_on_c, 1, 61, 127
2, 115327, Note_on_c, 4, 52, 127
2, 115506, Note_off_c, 4, 52, 127
2, 115508, Note_on_c, 2, 50, 127
2, 115687, Note_off_c, 2, 50, 127
2, 115689, Note_on_c, 4, 52, 127
2, 115868, Note_off_c, 4, 52, 127
2, 115870, Note_on_c, 1, 49, 127
2, 115959, Note_off_c, 1, 61, 127
2, 115959, Note_off_c, 7, 55, 127
2, 115961, Note_on_c, 10, 57, 127
2, 115961, Note_on_c, 4, 52, 127
2, 116050, Note_off_c, 4, 52, 127
2, 116050, Note_off_c, 10, 57, 127
2, 116050, Note_off_c, 1, 49, 127
2, 116052, Note_on_c, 10, 57, 127
2, 116052, Note_on_c, 4, 52, 127
2, 116052, Note_on_c, 1, 49, 127
2, 116231, Note_off_c, 1, 49, 127
2, 116234, Note_on_c, 12, 47, 127
2, 116413, Note_off_c, 12, 47, 127
2, 116415, Note_on_c, 1, 49, 127
2, 116594, Note_off_c, 1, 49, 127
2, 116596, Note_on_c, 10, 45, 127
2, 116684, Note_off_c, 4, 52, 127
2, 116684, Note_off_c, 10, 57, 127
2, 116687, Note_on_c, 6, 54, 127
2, 116687, Note_on_c, 1, 49, 127
2, 116776, Note_off_c, 1, 49, 127
2, 116776, Note_off_c, 6, 54, 127
2, 116776, Note_off_c, 10, 45, 127
2, 116778, Note_on_c, 6, 66, 127
2, 116778, Note_on_c, 1, 49, 127
2, 116778, Note_on_c, 6, 54, 127
2, 116778, Note_on_c, 10, 45, 127
2, 116998, Note_off_c, 6, 66, 127
2, 117001, Note_on_c, 7, 67, 127
2, 117071, Note_off_c, 7, 67, 127
2, 117073, Note_on_c, 10, 69, 127
2, 117143, Note_off_c, 10, 69, 127
2, 117146, Note_on_c, 12, 71, 127
2, 117216, Note_off_c, 12, 71, 127
2, 117218, Note_on_c, 10, 69, 127
2, 117288, Note_off_c, 10, 69, 127
2, 117290, Note_on_c, 7, 67, 127
2, 117323, Note_off_c, 10, 45, 127
2, 117323, Note_off_c, 6, 54, 127
2, 117323, Note_off_c, 1, 49, 127
2, 117359, Note_off_c, 7, 67, 127
2, 117361, Note_on_c, 10, 69, 127
2, 117431, Note_off_c, 10, 69, 127
2, 117434, Note_on_c, 6, 66, 127
2, 117505, Note_on_c, 2, 74, 127
2, 117505, Note_on_c, 12, 59, 127
2, 117712, Note_off_c, 12, 59, 127
2, 117715, Note_on_c, 1, 61, 127
2, 117786, Note_off_c, 1, 61, 127
2, 117788, Note_on_c, 2, 62, 127
2, 117859, Note_off_c, 2, 62, 127
2, 117861, Note_on_c, 4, 64, 127
2, 117932, Note_off_c, 4, 64, 127
2, 117935, Note_on_c, 2, 62, 127
2, 118006, Note_off_c, 2, 62, 127
2, 118008, Note_on_c, 1, 61, 127
2, 118079, Note_off_c, 1, 61, 127
2, 118081, Note_on_c, 2, 62, 127
2, 118135, Note_off_c, 2, 74, 127
2, 118138, Note_on_c, 2, 74, 127
2, 118152, Note_off_c, 2, 62, 127
2, 118154, Note_on_c, 12, 59, 127
2, 118205, Note_off_c, 6, 66, 127
2, 118225, Note_off_c, 12, 59, 127
2, 118226, Note_off_c, 2, 74, 127
2, 118228, Note_on_c, 7, 67, 127
2, 118228, Note_on_c, 2, 74, 127
2, 118228, Note_on_c, 4, 52, 127
2, 118435, Note_off_c, 4, 52, 127
2, 118438, Note_on_c, 6, 54, 127
2, 118509, Note_off_c, 6, 54, 127
2, 118511, Note_on_c, 7, 55, 127
2, 118582, Note_off_c, 7, 55, 127
2, 118584, Note_on_c, 10, 57, 127
2, 118655, Note_off_c, 10, 57, 127
2, 118657, Note_on_c, 7, 55, 127
2, 118728, Note_off_c, 7, 55, 127
2, 118731, Note_on_c, 6, 54, 127
2, 118802, Note_off_c, 6, 54, 127
2, 118804, Note_on_c, 7, 55, 127
2, 118858, Note_off_c, 2, 74, 127
2, 118860, Note_on_c, 4, 76, 127
2, 118875, Note_off_c, 7, 55, 127
2, 118877, Note_on_c, 4, 52, 127
2, 118948, Note_off_c, 4, 52, 127
2, 118948, Note_off_c, 4, 76, 127
2, 118950, Note_on_c, 2, 74, 127
2, 118950, Note_on_c, 10, 57, 127
2, 119068, Note_off_c, 2, 74, 127
2, 119071, Note_on_c, 1, 73, 127
2, 119129, Note_off_c, 1, 73, 127
2, 119132, Note_on_c, 2, 74, 127
2, 119157, Note_off_c, 10, 57, 127
2, 119160, Note_on_c, 12, 59, 127
2, 119191, Note_off_c, 2, 74, 127
2, 119193, Note_on_c, 1, 73, 127
2, 119232, Note_off_c, 12, 59, 127
2, 119235, Note_on_c, 1, 61, 127
2, 119251, Note_off_c, 1, 73, 127
2, 119253, Note_on_c, 2, 74, 127
2, 119306, Note_off_c, 1, 61, 127
2, 119308, Note_on_c, 2, 62, 127
2, 119311, Note_off_c, 2, 74, 127
2, 119314, Note_on_c, 1, 73, 127
2, 119380, Note_off_c, 2, 62, 127
2, 119382, Note_on_c, 1, 61, 127
2, 119453, Note_off_c, 1, 61, 127
2, 119455, Note_on_c, 12, 59, 127
2, 119526, Note_off_c, 12, 59, 127
2, 119529, Note_on_c, 1, 61, 127
2, 119534, Note_off_c, 1, 73, 127
2, 119537, Note_on_c, 2, 74, 127
2, 119601, Note_off_c, 1, 61, 127
2, 119603, Note_on_c, 10, 57, 127
2, 119605, Note_off_c, 2, 74, 127
2, 119607, Note_on_c, 4, 76, 127
2, 119675, Note_off_c, 4, 76, 127
2, 119675, Note_off_c, 10, 57, 127
2, 119675, Note_off_c, 7, 67, 127
2, 119677, Note_on_c, 6, 78, 127
2, 119677, Note_on_c, 6, 66, 127
2, 119677, Note_on_c, 2, 50, 127
2, 119884, Note_off_c, 2, 50, 127
2, 119887, Note_on_c, 4, 52, 127
2, 119958, Note_off_c, 4, 52, 127
2, 119960, Note_on_c, 6, 54, 127
2, 120031, Note_off_c, 6, 54, 127
2, 120034, Note_on_c, 7, 55, 127
2, 120105, Note_off_c, 7, 55, 127
2, 120107, Note_on_c, 6, 54, 127
2, 120178, Note_off_c, 6, 54, 127
2, 120180, Note_on_c, 4, 52, 127
2, 120251, Note_off_c, 4, 52, 127
2, 120253, Note_on_c, 6, 54, 127
2, 120324, Note_off_c, 6, 54, 127
2, 120327, Note_on_c, 2, 50, 127
2, 120397, Note_off_c, 6, 66, 127
2, 120397, Note_off_c, 6, 78, 127
2, 120398, Note_off_c, 2, 50, 127
2, 120400, Note_on_c, 12, 83, 127
2, 120400, Note_on_c, 7, 55, 127
2, 120579, Note_off_c, 12, 83, 127
2, 120581, Note_on_c, 10, 81, 127
2, 120760, Note_off_c, 10, 81, 127
2, 120762, Note_on_c, 12, 83, 127
2, 120941, Note_off_c, 12, 83, 127
2, 120944, Note_on_c, 7, 79, 127
2, 121060, Note_off_c, 7, 55, 127
2, 121123, Note_off_c, 7, 79, 127
2, 121125, Note_on_c, 7, 79, 127
2, 121125, Note_on_c, 2, 74, 127
2, 121125, Note_on_c, 12, 71, 127
2, 121304, Note_off_c, 7, 79, 127
2, 121306, Note_on_c, 6, 78, 127
2, 121485, Note_off_c, 6, 78, 127
2, 121487, Note_on_c, 7, 79, 127
2, 121666, Note_off_c, 7, 79, 127
2, 121668, Note_on_c, 4, 76, 127
2, 121757, Note_off_c, 12, 71, 127
2, 121757, Note_off_c, 2, 74, 127
2, 121759, Note_on_c, 12, 71, 127
2, 121759, Note_on_c, 7, 67, 127
2, 121848, Note_off_c, 7, 67, 127
2, 121848, Note_off_c, 12, 71, 127
2, 121848, Note_off_c, 4, 76, 127
2, 121850, Note_on_c, 4, 76, 127
2, 121850, Note_on_c, 12, 71, 127
2, 121850, Note_on_c, 7, 67, 127
2, 122029, Note_off_c, 4, 76, 127
2, 122032, Note_on_c, 2, 74, 127
2, 122211, Note_off_c, 2, 74, 127
2, 122213, Note_on_c, 4, 76, 127
2, 122392, Note_off_c, 4, 76, 127
2, 122394, Note_on_c, 1, 73, 127
2, 122482, Note_off_c, 7, 67, 127
2, 122482, Note_off_c, 12, 71, 127
2, 122485, Note_on_c, 10, 69, 127
2, 122485, Note_on_c, 4, 64, 127
2, 122574, Note_off_c, 4, 64, 127
2, 122574, Note_off_c, 10, 69, 127
2, 122574, Note_off_c, 1, 73, 127
2, 122592, Note_on_c, 7, 43, 127
2, 122592, Note_on_c, 7, 55, 127
2, 122592, Note_on_c, 2, 74, 127
2, 122592, Note_on_c, 4, 64, 127
2, 122592, Note_on_c, 10, 69, 127
2, 123026, Note_off_c, 2, 74, 127
2, 123029, Note_on_c, 1, 73, 127
2, 123244, Note_off_c, 7, 55, 127
2, 123244, Note_off_c, 7, 43, 127
2, 123271, Note_on_c, 7, 55, 127
2, 123306, Note_off_c, 10, 69, 127
2, 123306, Note_off_c, 4, 64, 127
2, 123395, Note_off_c, 1, 73, 127
2, 123411, Note_on_c, 6, 54, 127
2, 123411, Note_on_c, 10, 69, 127
2, 123411, Note_on_c, 6, 66, 127
2, 123411, Note_on_c, 2, 74, 127
2, 123417, Note_off_c, 7, 55, 127
2, 123652, Note_off_c, 6, 54, 127
2, 123655, Note_on_c, 7, 55, 127
2, 123725, Note_off_c, 7, 55, 127
2, 123727, Note_on_c, 10, 57, 127
2, 123797, Note_off_c, 10, 57, 127
2, 123799, Note_on_c, 7, 55, 127
2, 123869, Note_off_c, 7, 55, 127
2, 123872, Note_on_c, 6, 54, 127
2, 123942, Note_off_c, 6, 54, 127
2, 123944, Note_on_c, 4, 52, 127
2, 124014, Note_off_c, 4, 52, 127
2, 124016, Note_on_c, 2, 50, 127
2, 124064, Note_off_c, 2, 74, 127
2, 124064, Note_off_c, 6, 66, 127
2, 124064, Note_off_c, 10, 69, 127
2, 124067, Note_on_c, 6, 66, 127
2, 124067, Note_on_c, 10, 69, 127
2, 124067, Note_on_c, 2, 74, 127
2, 124086, Note_off_c, 2, 50, 127
2, 124088, Note_on_c, 1, 49, 127
2, 124158, Note_off_c, 1, 49, 127
2, 124159, Note_off_c, 2, 74, 127
2, 124159, Note_off_c, 10, 69, 127
2, 124159, Note_off_c, 6, 66, 127
2, 124161, Note_on_c, 12, 47, 127
2, 124161, Note_on_c, 6, 66, 127
2, 124161, Note_on_c, 12, 71, 127
2, 124161, Note_on_c, 2, 74, 127
2, 124402, Note_off_c, 12, 47, 127
2, 124404, Note_on_c, 1, 49, 127
2, 124474, Note_off_c, 1, 49, 127
2, 124477, Note_on_c, 2, 50, 127
2, 124547, Note_off_c, 2, 50, 127
2, 124549, Note_on_c, 1, 49, 127
2, 124619, Note_off_c, 1, 49, 127
2, 124621, Note_on_c, 12, 47, 127
2, 124691, Note_off_c, 12, 47, 127
2, 124693, Note_on_c, 10, 45, 127
2, 124763, Note_off_c, 10, 45, 127
2, 124766, Note_on_c, 12, 47, 127
2, 124814, Note_off_c, 2, 74, 127
2, 124814, Note_off_c, 12, 71, 127
2, 124814, Note_off_c, 6, 66, 127
2, 124816, Note_on_c, 7, 67, 127
2, 124816, Note_on_c, 12, 71, 127
2, 124816, Note_on_c, 4, 76, 127
2, 124836, Note_off_c, 12, 47, 127
2, 124838, Note_on_c, 7, 43, 127
2, 124908, Note_off_c, 7, 43, 127
2, 124908, Note_off_c, 4, 76, 127
2, 124908, Note_off_c, 12, 71, 127
2, 124908, Note_off_c, 7, 67, 127
2, 124910, Note_on_c, 10, 45, 127
2, 124910, Note_on_c, 2, 74, 127
2, 124910, Note_on_c, 4, 64, 127
2, 124910, Note_on_c, 10, 69, 127
2, 125032, Note_off_c, 2, 74, 127
2, 125035, Note_on_c, 1, 73, 127
2, 125095, Note_off_c, 1, 73, 127
2, 125097, Note_on_c, 12, 71, 127
2, 125157, Note_off_c, 12, 71, 127
2, 125160, Note_on_c, 1, 73, 127
2, 125220, Note_off_c, 1, 73, 127
2, 125222, Note_on_c, 2, 74, 127
2, 125282, Note_off_c, 2, 74, 127
2, 125285, Note_on_c, 1, 73, 127
2, 125562, Note_off_c, 10, 45, 127
2, 125563, Note_off_c, 1, 73, 127
2, 125565, Note_on_c, 10, 45, 127
2, 125565, Note_on_c, 2, 74, 127
2, 125652, Note_off_c, 10, 69, 127
2, 125652, Note_off_c, 4, 64, 127
2, 125659, Note_off_c, 2, 74, 127
2, 125659, Note_off_c, 10, 45, 127
2, 125661, Note_on_c, 2, 38, 127
2, 125661, Note_on_c, 6, 66, 127
2, 125661, Note_on_c, 10, 69, 127
2, 125661, Note_on_c, 2, 74, 127
2, 126238, Note_off_c, 2, 38, 127
2, 126252, Note_on_c, 2, 50, 127
2, 126336, Note_off_c, 2, 50, 127
2, 126336, Note_on_c, 4, 52, 127
2, 126420, Note_off_c, 4, 52, 127
2, 126420, Note_on_c, 6, 54, 127
2, 126431, Note_off_c, 2, 74, 127
2, 126431, Note_off_c, 10, 69, 127
2, 126431, Note_off_c, 6, 66, 127
2, 126505, Note_off_c, 6, 54, 127
2, 126506, Note_on_c, 7, 55, 127
2, 126506, Note_on_c, 12, 71, 127
2, 126601, Note_off_c, 12, 71, 127
2, 126603, Note_on_c, 1, 73, 127
2, 126698, Note_off_c, 1, 73, 127
2, 126700, Note_on_c, 2, 74, 127
2, 126795, Note_off_c, 2, 74, 127
2, 126797, Note_on_c, 4, 76, 127
2, 126892, Note_off_c, 4, 76, 127
2, 126894, Note_on_c, 2, 74, 127
2, 126989, Note_off_c, 2, 74, 127
2, 126991, Note_on_c, 1, 73, 127
2, 127086, Note_off_c, 1, 73, 127
2, 127088, Note_on_c, 2, 74, 127
2, 127183, Note_off_c, 2, 74, 127
2, 127185, Note_on_c, 12, 71, 127
2, 127280, Note_off_c, 12, 71, 127
2, 127280, Note_off_c, 7, 55, 127
2, 127282, Note_on_c, 1, 49, 127
2, 127282, Note_on_c, 4, 64, 127
2, 127377, Note_off_c, 1, 49, 127
2, 127379, Note_on_c, 2, 50, 127
2, 127379, Note_on_c, 12, 71, 127
2, 127474, Note_off_c, 2, 50, 127
2, 127476, Note_on_c, 4, 52, 127
2, 127476, Note_on_c, 4, 76, 127
2, 127571, Note_off_c, 4, 52, 127
2, 127573, Note_on_c, 6, 54, 127
2, 127668, Note_off_c, 6, 54, 127
2, 127670, Note_on_c, 4, 52, 127
2, 127765, Note_off_c, 4, 52, 127
2, 127767, Note_on_c, 2, 50, 127
2, 127862, Note_off_c, 2, 50, 127
2, 127864, Note_on_c, 4, 52, 127
2, 127959, Note_off_c, 4, 52, 127
2, 127961, Note_on_c, 1, 49, 127
2, 128045, Note_off_c, 12, 71, 127
2, 128049, Note_off_c, 4, 64, 127
2, 128055, Note_off_c, 1, 49, 127
2, 128055, Note_off_c, 4, 76, 127
2, 128057, Note_on_c, 6, 54, 127
2, 128057, Note_on_c, 10, 69, 127
2, 128152, Note_off_c, 10, 69, 127
2, 128154, Note_on_c, 12, 71, 127
2, 128249, Note_off_c, 12, 71, 127
2, 128251, Note_on_c, 1, 73, 127
2, 128346, Note_off_c, 1, 73, 127
2, 128348, Note_on_c, 2, 74, 127
2, 128443, Note_off_c, 2, 74, 127
2, 128445, Note_on_c, 1, 73, 127
2, 128540, Note_off_c, 1, 73, 127
2, 128542, Note_on_c, 12, 71, 127
2, 128637, Note_off_c, 12, 71, 127
2, 128639, Note_on_c, 1, 73, 127
2, 128734, Note_off_c, 1, 73, 127
2, 128736, Note_on_c, 10, 69, 127
2, 128831, Note_off_c, 10, 69, 127
2, 128831, Note_off_c, 6, 54, 127
2, 128833, Note_on_c, 12, 47, 127
2, 128833, Note_on_c, 2, 62, 127
2, 128898, Note_on_c, 10, 69, 127
2, 128928, Note_off_c, 12, 47, 127
2, 128930, Note_on_c, 1, 49, 127
2, 128963, Note_on_c, 2, 74, 127
2, 129025, Note_off_c, 1, 49, 127
2, 129027, Note_on_c, 2, 50, 127
2, 129122, Note_off_c, 2, 50, 127
2, 129124, Note_on_c, 4, 52, 127
2, 129219, Note_off_c, 4, 52, 127
2, 129221, Note_on_c, 2, 50, 127
2, 129316, Note_off_c, 2, 50, 127
2, 129318, Note_on_c, 1, 49, 127
2, 129413, Note_off_c, 1, 49, 127
2, 129415, Note_on_c, 2, 50, 127
2, 129510, Note_off_c, 2, 50, 127
2, 129512, Note_on_c, 12, 47, 127
2, 129600, Note_off_c, 10, 69, 127
2, 129600, Note_off_c, 2, 62, 127
2, 129606, Note_off_c, 12, 47, 127
2, 129609, Note_on_c, 4, 52, 127
2, 129609, Note_on_c, 7, 67, 127
2, 129614, Note_off_c, 2, 74, 127
2, 129717, Note_off_c, 7, 67, 127
2, 129717, Note_off_c, 4, 52, 127
2, 129719, Note_on_c, 6, 54, 127
2, 129719, Note_on_c, 10, 69, 127
2, 129812, Note_off_c, 10, 69, 127
2, 129812, Note_off_c, 6, 54, 127
2, 129814, Note_on_c, 7, 55, 127
2, 129814, Note_on_c, 12, 71, 127
2, 129907, Note_off_c, 12, 71, 127
2, 129907, Note_off_c, 7, 55, 127
2, 129910, Note_on_c, 10, 57, 127
2, 129910, Note_on_c, 0, 72, 127
2, 130003, Note_off_c, 0, 72, 127
2, 130003, Note_off_c, 10, 57, 127
2, 130005, Note_on_c, 7, 55, 127
2, 130005, Note_on_c, 12, 71, 127
2, 130098, Note_off_c, 12, 71, 127
2, 130098, Note_off_c, 7, 55, 127
2, 130100, Note_on_c, 6, 54, 127
2, 130100, Note_on_c, 10, 69, 127
2, 130193, Note_off_c, 10, 69, 127
2, 130193, Note_off_c, 6, 54, 127
2, 130195, Note_on_c, 7, 55, 127
2, 130195, Note_on_c, 12, 71, 127
2, 130288, Note_off_c, 12, 71, 127
2, 130288, Note_off_c, 7, 55, 127
2, 130290, Note_on_c, 4, 52, 127
2, 130290, Note_on_c, 7, 67, 127
2, 130383, Note_off_c, 7, 67, 127
2, 130383, Note_off_c, 4, 52, 127
2, 130385, Note_on_c, 10, 57, 127
2, 130385, Note_on_c, 1, 73, 127
2, 130507, Note_off_c, 1, 73, 127
2, 130507, Note_off_c, 10, 57, 127
2, 130510, Note_on_c, 12, 59, 127
2, 130510, Note_on_c, 2, 74, 127
2, 130601, Note_off_c, 2, 74, 127
2, 130601, Note_off_c, 12, 59, 127
2, 130603, Note_on_c, 1, 61, 127
2, 130603, Note_on_c, 4, 76, 127
2, 130694, Note_off_c, 4, 76, 127
2, 130694, Note_off_c, 1, 61, 127
2, 130696, Note_on_c, 2, 62, 127
2, 130696, Note_on_c, 6, 78, 127
2, 130787, Note_off_c, 6, 78, 127
2, 130787, Note_off_c, 2, 62, 127
2, 130789, Note_on_c, 1, 61, 127
2, 130789, Note_on_c, 4, 76, 127
2, 130880, Note_off_c, 4, 76, 127
2, 130880, Note_off_c, 1, 61, 127
2, 130882, Note_on_c, 12, 59, 127
2, 130882, Note_on_c, 2, 74, 127
2, 130973, Note_off_c, 2, 74, 127
2, 130973, Note_off_c, 12, 59, 127
2, 130975, Note_on_c, 1, 61, 127
2, 130975, Note_on_c, 4, 76, 127
2, 131066, Note_off_c, 4, 76, 127
2, 131066, Note_off_c, 1, 61, 127
2, 131068, Note_on_c, 10, 57, 127
2, 131068, Note_on_c, 1, 73, 127
2, 131159, Note_off_c, 1, 73, 127
2, 131159, Note_off_c, 10, 57, 127
2, 131161, Note_on_c, 2, 62, 127
2, 131161, Note_on_c, 6, 78, 127
2, 131312, Note_off_c, 6, 78, 127
2, 131312, Note_off_c, 2, 62, 127
2, 131314, Note_on_c, 4, 64, 127
2, 131314, Note_on_c, 7, 79, 127
2, 131400, Note_off_c, 7, 79, 127
2, 131400, Note_off_c, 4, 64, 127
2, 131403, Note_on_c, 6, 66, 127
2, 131403, Note_on_c, 10, 81, 127
2, 131489, Note_off_c, 10, 81, 127
2, 131489, Note_off_c, 6, 66, 127
2, 131491, Note_on_c, 7, 67, 127
2, 131491, Note_on_c, 12, 83, 127
2, 131577, Note_off_c, 12, 83, 127
2, 131577, Note_off_c, 7, 67, 127
2, 131579, Note_on_c, 6, 66, 127
2, 131579, Note_on_c, 10, 81, 127
2, 131665, Note_off_c, 10, 81, 127
2, 131665, Note_off_c, 6, 66, 127
2, 131667, Note_on_c, 4, 64, 127
2, 131667, Note_on_c, 7, 79, 127
2, 131753, Note_off_c, 7, 79, 127
2, 131753, Note_off_c, 4, 64, 127
2, 131755, Note_on_c, 6, 66, 127
2, 131755, Note_on_c, 10, 81, 127
2, 131841, Note_off_c, 10, 81, 127
2, 131841, Note_off_c, 6, 66, 127
2, 131843, Note_on_c, 2, 62, 127
2, 131843, Note_on_c, 6, 78, 127
2, 131929, Note_off_c, 6, 78, 127
2, 131929, Note_off_c, 2, 62, 127
2, 131931, Note_on_c, 7, 67, 127
2, 131931, Note_on_c, 12, 83, 127
2, 132575, Note_off_c, 12, 83, 127
2, 132606, Note_off_c, 7, 67, 127
2, 132609, Note_on_c, 7, 55, 127
2, 132609, Note_on_c, 4, 64, 127
2, 132609, Note_on_c, 1, 73, 127
2, 132609, Note_on_c, 10, 69, 127
2, 132704, Note_off_c, 10, 69, 127
2, 132704, Note_off_c, 1, 73, 127
2, 132704, Note_off_c, 4, 64, 127
2, 132704, Note_off_c, 7, 55, 127
2, 132706, Note_on_c, 6, 54, 127
2, 132706, Note_on_c, 10, 69, 127
2, 132706, Note_on_c, 2, 74, 127
2, 132706, Note_on_c, 6, 66, 127
2, 133380, Note_off_c, 6, 66, 127
2, 133380, Note_off_c, 2, 74, 127
2, 133380, Note_off_c, 10, 69, 127
2, 133380, Note_off_c, 6, 54, 127
2, 133382, Note_on_c, 4, 52, 127
2, 133382, Note_on_c, 1, 73, 127
2, 133382, Note_on_c, 4, 76, 127
2, 133382, Note_on_c, 7, 67, 127
2, 133477, Note_off_c, 7, 67, 127
2, 133477, Note_off_c, 4, 76, 127
2, 133477, Note_off_c, 1, 73, 127
2, 133477, Note_off_c, 4, 52, 127
2, 133479, Note_on_c, 2, 50, 127
2, 133479, Note_on_c, 6, 78, 127
2, 133479, Note_on_c, 10, 69, 127
2, 133479, Note_on_c, 2, 74, 127
2, 134123, Note_off_c, 2, 74, 127
2, 134123, Note_off_c, 10, 69, 127
2, 134123, Note_off_c, 6, 78, 127
2, 134154, Note_off_c, 2, 50, 127
2, 134156, Note_on_c, 0, 48, 127
2, 134156, Note_on_c, 10, 57, 127
2, 134156, Note_on_c, 2, 62, 127
2, 134156, Note_on_c, 6, 66, 127
2, 134251, Note_off_c, 6, 66, 127
2, 134251, Note_off_c, 2, 62, 127
2, 134251, Note_off_c, 10, 57, 127
2, 134251, Note_off_c, 0, 48, 127
2, 134253, Note_on_c, 12, 47, 127
2, 134253, Note_on_c, 7, 67, 127
2, 134253, Note_on_c, 2, 62, 127
2, 134253, Note_on_c, 12, 59, 127
2, 134927, Note_off_c, 12, 59, 127
2, 134927, Note_off_c, 2, 62, 127
2, 134927, Note_off_c, 7, 67, 127
2, 134927, Note_off_c, 12, 47, 127
2, 134929, Note_on_c, 10, 45, 127
2, 134929, Note_on_c, 0, 60, 127
2, 134929, Note_on_c, 6, 66, 127
2, 134929, Note_on_c, 10, 69, 127
2, 135027, Note_off_c, 10, 69, 127
2, 135027, Note_off_c, 6, 66, 127
2, 135027, Note_off_c, 0, 60, 127
2, 135027, Note_off_c, 10, 45, 127
2, 135029, Note_on_c, 7, 43, 127
2, 135029, Note_on_c, 2, 62, 127
2, 135029, Note_on_c, 7, 67, 127
2, 135029, Note_on_c, 12, 71, 127
2, 135695, Note_off_c, 12, 71, 127
2, 135695, Note_off_c, 7, 67, 127
2, 135695, Note_off_c, 2, 62, 127
2, 135727, Note_off_c, 7, 43, 127
2, 135729, Note_on_c, 6, 42, 127
2, 135729, Note_on_c, 2, 62, 127
2, 135729, Note_on_c, 7, 67, 127
2, 135729, Note_on_c, 12, 71, 127
2, 135827, Note_off_c, 12, 71, 127
2, 135827, Note_off_c, 7, 67, 127
2, 135827, Note_off_c, 2, 62, 127
2, 135827, Note_off_c, 6, 42, 127
2, 135829, Note_on_c, 4, 40, 127
2, 135829, Note_on_c, 7, 67, 127
2, 135829, Note_on_c, 1, 73, 127
2, 135829, Note_on_c, 4, 64, 127
2, 136527, Note_off_c, 4, 64, 127
2, 136527, Note_off_c, 1, 73, 127
2, 136527, Note_off_c, 7, 67, 127
2, 136527, Note_off_c, 4, 40, 127
2, 136529, Note_on_c, 2, 38, 127
2, 136529, Note_on_c, 2, 62, 127
2, 136529, Note_on_c, 6, 66, 127
2, 136529, Note_on_c, 10, 69, 127
2, 136627, Note_off_c, 10, 69, 127
2, 136627, Note_off_c, 6, 66, 127
2, 136627, Note_off_c, 2, 62, 127
2, 136627, Note_off_c, 2, 38, 127
2, 136629, Note_on_c, 10, 45, 127
2, 136629, Note_on_c, 6, 66, 127
2, 136629, Note_on_c, 10, 57, 127
2, 136629, Note_on_c, 2, 62, 127
2, 137427, Note_off_c, 2, 62, 127
2, 137427, Note_off_c, 10, 57, 127
2, 137427, Note_off_c, 6, 66, 127
2, 137427, Note_off_c, 10, 45, 127
2, 137429, Note_on_c, 10, 45, 127
2, 137429, Note_on_c, 7, 55, 127
2, 137429, Note_on_c, 4, 64, 127
2, 137429, Note_on_c, 1, 61, 127
2, 138127, Note_off_c, 1, 61, 127
2, 138127, Note_off_c, 4, 64, 127
2, 138129, Note_on_c, 2, 62, 127
2, 138262, Note_off_c, 7, 55, 127
2, 138288, Note_off_c, 2, 62, 127
2, 138296, Note_on_c, 2, 62, 127
2, 138296, Note_on_c, 10, 57, 127
2, 138296, Note_on_c, 6, 54, 127
2, 138296, Note_on_c, 2, 50, 127
2, 138296, Note_on_c, 2, 38, 127
2, 141487, Note_off_c, 10, 45, 127
2, 141491, Note_off_c, 2, 38, 127
2, 141491, Note_off_c, 2, 50, 127
2, 141491, Note_off_c, 6, 54, 127
2, 141491, Note_off_c, 10, 57, 127
2, 141491, Note_off_c, 2, 62, 127
2, 145920, End_track
3, 0, Start_track
3, 0, Title_t, "MIDI"
3, 1536, End_track
0, 0, End_of_file
