0, 0, Header, 1, 4, 240
1, 0, Start_track
1, 0, Time_signature, 1, 4, 6, 8
1, 0, Tempo, 800000
1, 60, Time_signature, 4, 2, 24, 8
1, 60, Tempo, 789474
1, 10620, Time_signature, 15, 4, 18, 8
1, 11520, Time_signature, 1, 4, 6, 8
1, 11520, Tempo, 800000
1, 11580, Time_signature, 4, 2, 24, 8
1, 11580, Tempo, 789474
1, 22140, Time_signature, 15, 4, 18, 8
1, 23040, Time_signature, 1, 4, 6, 8
1, 23040, Tempo, 800000
1, 23100, Time_signature, 4, 2, 24, 8
1, 23100, Tempo, 789474
1, 33660, Time_signature, 15, 4, 18, 8
1, 34560, Time_signature, 1, 4, 6, 8
1, 34560, Tempo, 800000
1, 34620, Time_signature, 4, 2, 24, 8
1, 34620, Tempo, 789474
1, 45180, Time_signature, 15, 4, 18, 8
1, 45180, End_track
2, 0, Start_track
2, 0, Title_t, "English Suite 4 2. Allemande"
2, 0, Program_c, 0, 0
2, 0, Note_on_c, 0, 77, 107
2, 48, Note_off_c, 0, 77, 64
2, 60, Note_on_c, 0, 72, 107
2, 60, Note_on_c, 0, 69, 107
2, 60, Note_on_c, 0, 77, 107
2, 156, Note_off_c, 0, 69, 64
2, 156, Note_off_c, 0, 72, 64
2, 204, Note_off_c, 0, 77, 64
2, 210, Note_on_c, 0, 77, 107
2, 234, Note_off_c, 0, 77, 64
2, 240, Note_on_c, 0, 76, 107
2, 264, Note_off_c, 0, 76, 64
2, 270, Note_on_c, 0, 74, 107
2, 294, Note_off_c, 0, 74, 64
2, 300, Note_on_c, 0, 72, 107
2, 348, Note_off_c, 0, 72, 64
2, 360, Note_on_c, 0, 74, 107
2, 408, Note_off_c, 0, 74, 64
2, 420, Note_on_c, 0, 72, 107
2, 468, Note_off_c, 0, 72, 64
2, 480, Note_on_c, 0, 70, 107
2, 528, Note_off_c, 0, 70, 64
2, 540, Note_on_c, 0, 69, 107
2, 572, Note_off_c, 0, 69, 64
2, 580, Note_on_c, 0, 70, 107
2, 612, Note_off_c, 0, 70, 64
2, 620, Note_on_c, 0, 72, 107
2, 652, Note_off_c, 0, 72, 64
2, 660, Note_on_c, 0, 69, 107
2, 692, Note_off_c, 0, 69, 64
2, 700, Note_on_c, 0, 70, 107
2, 732, Note_off_c, 0, 70, 64
2, 740, Note_on_c, 0, 72, 107
2, 772, Note_off_c, 0, 72, 64
2, 780, Note_on_c, 0, 65, 107
2, 812, Note_off_c, 0, 65, 64
2, 820, Note_on_c, 0, 67, 107
2, 852, Note_off_c, 0, 67, 64
2, 860, Note_on_c, 0, 69, 107
2, 892, Note_off_c, 0, 69, 64
2, 900, Note_on_c, 0, 65, 107
2, 932, Note_off_c, 0, 65, 64
2, 940, Note_on_c, 0, 67, 107
2, 972, Note_off_c, 0, 67, 64
2, 980, Note_on_c, 0, 69, 107
2, 1012, Note_off_c, 0, 69, 64
2, 1020, Note_on_c, 0, 60, 107
2, 1116, Note_off_c, 0, 60, 64
2, 1140, Note_on_c, 0, 65, 107
2, 1236, Note_off_c, 0, 65, 64
2, 1260, Note_on_c, 0, 67, 107
2, 1272, Note_off_c, 0, 67, 64
2, 1275, Note_on_c, 0, 65, 107
2, 1287, Note_off_c, 0, 65, 64
2, 1290, Note_on_c, 0, 67, 107
2, 1302, Note_off_c, 0, 67, 64
2, 1305, Note_on_c, 0, 65, 107
2, 1317, Note_off_c, 0, 65, 64
2, 1320, Note_on_c, 0, 67, 107
2, 1332, Note_off_c, 0, 67, 64
2, 1335, Note_on_c, 0, 65, 107
2, 1347, Note_off_c, 0, 65, 64
2, 1350, Note_on_c, 0, 67, 107
2, 1365, Note_off_c, 0, 67, 64
2, 1365, Note_on_c, 0, 65, 107
2, 1380, Note_off_c, 0, 65, 64
2, 1380, Note_on_c, 0, 67, 107
2, 1395, Note_off_c, 0, 67, 64
2, 1395, Note_on_c, 0, 65, 107
2, 1410, Note_off_c, 0, 65, 64
2, 1410, Note_on_c, 0, 67, 107
2, 1425, Note_off_c, 0, 67, 64
2, 1425, Note_on_c, 0, 65, 107
2, 1440, Note_off_c, 0, 65, 64
2, 1440, Note_on_c, 0, 64, 107
2, 1464, Note_off_c, 0, 64, 64
2, 1470, Note_on_c, 0, 65, 107
2, 1494, Note_off_c, 0, 65, 64
2, 1500, Note_on_c, 0, 67, 107
2, 1596, Note_off_c, 0, 67, 64
2, 1620, Note_on_c, 0, 65, 107
2, 1620, Note_on_c, 0, 67, 107
2, 1716, Note_off_c, 0, 67, 64
2, 1716, Note_off_c, 0, 65, 64
2, 1740, Note_on_c, 0, 69, 107
2, 1740, Note_on_c, 0, 64, 107
2, 1752, Note_off_c, 0, 69, 64
2, 1755, Note_on_c, 0, 67, 107
2, 1767, Note_off_c, 0, 67, 64
2, 1770, Note_on_c, 0, 69, 107
2, 1782, Note_off_c, 0, 69, 64
2, 1785, Note_on_c, 0, 67, 107
2, 1797, Note_off_c, 0, 67, 64
2, 1800, Note_on_c, 0, 69, 107
2, 1812, Note_off_c, 0, 69, 64
2, 1815, Note_on_c, 0, 67, 107
2, 1827, Note_off_c, 0, 67, 64
2, 1830, Note_on_c, 0, 69, 107
2, 1845, Note_off_c, 0, 69, 64
2, 1845, Note_on_c, 0, 67, 107
2, 1860, Note_off_c, 0, 67, 64
2, 1860, Note_on_c, 0, 69, 107
2, 1875, Note_off_c, 0, 69, 64
2, 1875, Note_on_c, 0, 67, 107
2, 1890, Note_off_c, 0, 67, 64
2, 1890, Note_on_c, 0, 69, 107
2, 1905, Note_off_c, 0, 69, 64
2, 1905, Note_on_c, 0, 67, 107
2, 1920, Note_off_c, 0, 67, 64
2, 1920, Note_on_c, 0, 65, 107
2, 1932, Note_off_c, 0, 64, 64
2, 1944, Note_off_c, 0, 65, 64
2, 1950, Note_on_c, 0, 67, 107
2, 1974, Note_off_c, 0, 67, 64
2, 1980, Note_on_c, 0, 65, 107
2, 1980, Note_on_c, 0, 69, 107
2, 2028, Note_off_c, 0, 69, 64
2, 2040, Note_on_c, 0, 72, 107
2, 2088, Note_off_c, 0, 72, 64
2, 2100, Note_on_c, 0, 74, 107
2, 2148, Note_off_c, 0, 74, 64
2, 2160, Note_on_c, 0, 76, 107
2, 2172, Note_off_c, 0, 65, 64
2, 2208, Note_off_c, 0, 76, 64
2, 2220, Note_on_c, 0, 77, 107
2, 2280, Note_on_c, 0, 72, 107
2, 2328, Note_off_c, 0, 72, 64
2, 2340, Note_on_c, 0, 70, 107
2, 2388, Note_off_c, 0, 70, 64
2, 2400, Note_on_c, 0, 69, 107
2, 2448, Note_off_c, 0, 69, 64
2, 2460, Note_on_c, 0, 70, 107
2, 2508, Note_off_c, 0, 77, 64
2, 2520, Note_on_c, 0, 77, 107
2, 2568, Note_off_c, 0, 77, 64
2, 2580, Note_on_c, 0, 76, 107
2, 2628, Note_off_c, 0, 76, 64
2, 2640, Note_on_c, 0, 77, 107
2, 2688, Note_off_c, 0, 77, 64
2, 2700, Note_on_c, 0, 79, 107
2, 2748, Note_off_c, 0, 79, 64
2, 2760, Note_on_c, 0, 76, 107
2, 2808, Note_off_c, 0, 76, 64
2, 2820, Note_on_c, 0, 77, 107
2, 2868, Note_off_c, 0, 77, 64
2, 2880, Note_on_c, 0, 79, 107
2, 2928, Note_off_c, 0, 79, 64
2, 2940, Note_on_c, 0, 72, 107
2, 2988, Note_off_c, 0, 70, 64
2, 3000, Note_on_c, 0, 70, 107
2, 3048, Note_off_c, 0, 70, 64
2, 3060, Note_on_c, 0, 69, 107
2, 3108, Note_off_c, 0, 69, 64
2, 3120, Note_on_c, 0, 67, 107
2, 3168, Note_off_c, 0, 67, 64
2, 3180, Note_on_c, 0, 69, 107
2, 3228, Note_off_c, 0, 69, 64
2, 3240, Note_on_c, 0, 65, 107
2, 3288, Note_off_c, 0, 65, 64
2, 3300, Note_on_c, 0, 67, 107
2, 3348, Note_off_c, 0, 67, 64
2, 3360, Note_on_c, 0, 69, 107
2, 3408, Note_off_c, 0, 69, 64
2, 3468, Note_off_c, 0, 72, 64
2, 3480, Note_on_c, 0, 72, 107
2, 3528, Note_off_c, 0, 72, 64
2, 3540, Note_on_c, 0, 70, 107
2, 3588, Note_off_c, 0, 70, 64
2, 3600, Note_on_c, 0, 69, 107
2, 3648, Note_off_c, 0, 69, 64
2, 3660, Note_on_c, 0, 70, 107
2, 3708, Note_off_c, 0, 70, 64
2, 3720, Note_on_c, 0, 67, 107
2, 3768, Note_off_c, 0, 67, 64
2, 3780, Note_on_c, 0, 69, 107
2, 3828, Note_off_c, 0, 69, 64
2, 3840, Note_on_c, 0, 70, 107
2, 3888, Note_off_c, 0, 70, 64
2, 3900, Note_on_c, 0, 64, 107
2, 3948, Note_off_c, 0, 64, 64
2, 3960, Note_on_c, 0, 67, 107
2, 4008, Note_off_c, 0, 67, 64
2, 4020, Note_on_c, 0, 69, 107
2, 4068, Note_off_c, 0, 69, 64
2, 4080, Note_on_c, 0, 70, 107
2, 4128, Note_off_c, 0, 70, 64
2, 4140, Note_on_c, 0, 72, 107
2, 4428, Note_off_c, 0, 72, 64
2, 4440, Note_on_c, 0, 70, 107
2, 4488, Note_off_c, 0, 70, 64
2, 4500, Note_on_c, 0, 69, 107
2, 4548, Note_off_c, 0, 69, 64
2, 4560, Note_on_c, 0, 74, 107
2, 4608, Note_off_c, 0, 74, 64
2, 4620, Note_on_c, 0, 72, 105
2, 4632, Note_off_c, 0, 72, 64
2, 4635, Note_on_c, 0, 70, 105
2, 4647, Note_off_c, 0, 70, 64
2, 4650, Note_on_c, 0, 72, 105
2, 4662, Note_off_c, 0, 72, 64
2, 4665, Note_on_c, 0, 70, 105
2, 4677, Note_off_c, 0, 70, 64
2, 4680, Note_on_c, 0, 72, 105
2, 4692, Note_off_c, 0, 72, 64
2, 4695, Note_on_c, 0, 70, 105
2, 4707, Note_off_c, 0, 70, 64
2, 4710, Note_on_c, 0, 72, 107
2, 4725, Note_off_c, 0, 72, 64
2, 4725, Note_on_c, 0, 70, 107
2, 4740, Note_off_c, 0, 70, 64
2, 4740, Note_on_c, 0, 72, 107
2, 4755, Note_off_c, 0, 72, 64
2, 4755, Note_on_c, 0, 70, 107
2, 4770, Note_off_c, 0, 70, 64
2, 4770, Note_on_c, 0, 72, 107
2, 4785, Note_off_c, 0, 72, 64
2, 4785, Note_on_c, 0, 70, 107
2, 4800, Note_off_c, 0, 70, 64
2, 4800, Note_on_c, 0, 69, 107
2, 4824, Note_off_c, 0, 69, 64
2, 4830, Note_on_c, 0, 70, 107
2, 4854, Note_off_c, 0, 70, 64
2, 4860, Note_on_c, 0, 69, 107
2, 4860, Note_on_c, 0, 65, 107
2, 4908, Note_off_c, 0, 69, 64
2, 4920, Note_on_c, 0, 72, 107
2, 4968, Note_off_c, 0, 72, 64
2, 4980, Note_on_c, 0, 74, 107
2, 5028, Note_off_c, 0, 74, 64
2, 5040, Note_on_c, 0, 76, 107
2, 5052, Note_off_c, 0, 65, 64
2, 5088, Note_off_c, 0, 76, 64
2, 5100, Note_on_c, 0, 77, 107
2, 5160, Note_on_c, 0, 69, 107
2, 5208, Note_off_c, 0, 69, 64
2, 5220, Note_on_c, 0, 71, 107
2, 5268, Note_off_c, 0, 71, 64
2, 5280, Note_on_c, 0, 72, 107
2, 5328, Note_off_c, 0, 72, 64
2, 5340, Note_on_c, 0, 74, 107
2, 5388, Note_off_c, 0, 77, 64
2, 5436, Note_off_c, 0, 74, 64
2, 5460, Note_on_c, 0, 72, 107
2, 5460, Note_on_c, 0, 76, 107
2, 5556, Note_off_c, 0, 76, 64
2, 5556, Note_off_c, 0, 72, 64
2, 5580, Note_on_c, 0, 74, 107
2, 5580, Note_on_c, 0, 71, 107
2, 5628, Note_off_c, 0, 74, 64
2, 5640, Note_on_c, 0, 79, 107
2, 5688, Note_off_c, 0, 79, 64
2, 5700, Note_on_c, 0, 77, 107
2, 5748, Note_off_c, 0, 77, 64
2, 5760, Note_on_c, 0, 79, 107
2, 5772, Note_off_c, 0, 71, 64
2, 5808, Note_off_c, 0, 79, 64
2, 5820, Note_on_c, 0, 72, 107
2, 5820, Note_on_c, 0, 76, 107
2, 5868, Note_off_c, 0, 72, 64
2, 5880, Note_on_c, 0, 67, 107
2, 5928, Note_off_c, 0, 67, 64
2, 5940, Note_on_c, 0, 69, 107
2, 5988, Note_off_c, 0, 69, 64
2, 6000, Note_on_c, 0, 71, 107
2, 6048, Note_off_c, 0, 71, 64
2, 6060, Note_on_c, 0, 72, 107
2, 6108, Note_off_c, 0, 76, 64
2, 6120, Note_on_c, 0, 76, 107
2, 6168, Note_off_c, 0, 76, 64
2, 6180, Note_on_c, 0, 77, 107
2, 6228, Note_off_c, 0, 77, 64
2, 6240, Note_on_c, 0, 79, 107
2, 6288, Note_off_c, 0, 79, 64
2, 6300, Note_on_c, 0, 81, 107
2, 6332, Note_off_c, 0, 81, 64
2, 6340, Note_on_c, 0, 83, 107
2, 6372, Note_off_c, 0, 83, 64
2, 6380, Note_on_c, 0, 84, 107
2, 6412, Note_off_c, 0, 84, 64
2, 6420, Note_on_c, 0, 81, 107
2, 6452, Note_off_c, 0, 81, 64
2, 6460, Note_on_c, 0, 83, 107
2, 6492, Note_off_c, 0, 83, 64
2, 6500, Note_on_c, 0, 84, 107
2, 6532, Note_off_c, 0, 84, 64
2, 6540, Note_on_c, 0, 77, 107
2, 6572, Note_off_c, 0, 77, 64
2, 6580, Note_on_c, 0, 79, 107
2, 6612, Note_off_c, 0, 79, 64
2, 6620, Note_on_c, 0, 81, 107
2, 6652, Note_off_c, 0, 81, 64
2, 6660, Note_on_c, 0, 77, 107
2, 6692, Note_off_c, 0, 77, 64
2, 6700, Note_on_c, 0, 79, 107
2, 6732, Note_off_c, 0, 79, 64
2, 6740, Note_on_c, 0, 81, 107
2, 6772, Note_off_c, 0, 81, 64
2, 6780, Note_on_c, 0, 74, 107
2, 6828, Note_off_c, 0, 72, 64
2, 6840, Note_on_c, 0, 72, 107
2, 6888, Note_off_c, 0, 72, 64
2, 6900, Note_on_c, 0, 71, 107
2, 6948, Note_off_c, 0, 71, 64
2, 6960, Note_on_c, 0, 69, 107
2, 7008, Note_off_c, 0, 69, 64
2, 7020, Note_on_c, 0, 71, 107
2, 7068, Note_off_c, 0, 74, 64
2, 7080, Note_on_c, 0, 74, 107
2, 7128, Note_off_c, 0, 74, 64
2, 7140, Note_on_c, 0, 76, 107
2, 7188, Note_off_c, 0, 76, 64
2, 7200, Note_on_c, 0, 77, 107
2, 7248, Note_off_c, 0, 77, 64
2, 7260, Note_on_c, 0, 79, 107
2, 7292, Note_off_c, 0, 79, 64
2, 7300, Note_on_c, 0, 81, 107
2, 7332, Note_off_c, 0, 81, 64
2, 7340, Note_on_c, 0, 83, 107
2, 7372, Note_off_c, 0, 83, 64
2, 7380, Note_on_c, 0, 79, 107
2, 7412, Note_off_c, 0, 79, 64
2, 7420, Note_on_c, 0, 81, 107
2, 7452, Note_off_c, 0, 81, 64
2, 7460, Note_on_c, 0, 83, 107
2, 7492, Note_off_c, 0, 83, 64
2, 7500, Note_on_c, 0, 76, 107
2, 7532, Note_off_c, 0, 76, 64
2, 7540, Note_on_c, 0, 77, 107
2, 7572, Note_off_c, 0, 77, 64
2, 7580, Note_on_c, 0, 79, 107
2, 7612, Note_off_c, 0, 79, 64
2, 7620, Note_on_c, 0, 76, 107
2, 7652, Note_off_c, 0, 76, 64
2, 7660, Note_on_c, 0, 77, 107
2, 7692, Note_off_c, 0, 77, 64
2, 7700, Note_on_c, 0, 79, 107
2, 7732, Note_off_c, 0, 79, 64
2, 7740, Note_on_c, 0, 72, 107
2, 7797, Note_off_c, 0, 71, 64
2, 7800, Note_on_c, 0, 71, 107
2, 7857, Note_off_c, 0, 71, 64
2, 7860, Note_on_c, 0, 69, 107
2, 7917, Note_off_c, 0, 69, 64
2, 7920, Note_on_c, 0, 67, 107
2, 7977, Note_off_c, 0, 67, 64
2, 7980, Note_on_c, 0, 69, 107
2, 8028, Note_off_c, 0, 72, 64
2, 8040, Note_on_c, 0, 75, 107
2, 8088, Note_off_c, 0, 75, 64
2, 8100, Note_on_c, 0, 74, 107
2, 8148, Note_off_c, 0, 74, 64
2, 8160, Note_on_c, 0, 72, 107
2, 8208, Note_off_c, 0, 72, 64
2, 8220, Note_on_c, 0, 78, 107
2, 8252, Note_off_c, 0, 78, 64
2, 8260, Note_on_c, 0, 79, 107
2, 8292, Note_off_c, 0, 79, 64
2, 8300, Note_on_c, 0, 81, 107
2, 8332, Note_off_c, 0, 81, 64
2, 8340, Note_on_c, 0, 78, 107
2, 8372, Note_off_c, 0, 78, 64
2, 8380, Note_on_c, 0, 79, 107
2, 8412, Note_off_c, 0, 79, 64
2, 8420, Note_on_c, 0, 81, 107
2, 8452, Note_off_c, 0, 81, 64
2, 8460, Note_on_c, 0, 72, 107
2, 8492, Note_off_c, 0, 72, 64
2, 8500, Note_on_c, 0, 74, 107
2, 8532, Note_off_c, 0, 74, 64
2, 8540, Note_on_c, 0, 75, 107
2, 8572, Note_off_c, 0, 75, 64
2, 8580, Note_on_c, 0, 72, 107
2, 8604, Note_off_c, 0, 69, 64
2, 8612, Note_off_c, 0, 72, 64
2, 8620, Note_on_c, 0, 74, 107
2, 8652, Note_off_c, 0, 74, 64
2, 8660, Note_on_c, 0, 75, 107
2, 8692, Note_off_c, 0, 75, 64
2, 8700, Note_on_c, 0, 71, 107
2, 8700, Note_on_c, 0, 67, 107
2, 8732, Note_off_c, 0, 71, 64
2, 8740, Note_on_c, 0, 72, 107
2, 8772, Note_off_c, 0, 72, 64
2, 8780, Note_on_c, 0, 74, 107
2, 8812, Note_off_c, 0, 74, 64
2, 8820, Note_on_c, 0, 71, 107
2, 8852, Note_off_c, 0, 71, 64
2, 8860, Note_on_c, 0, 72, 107
2, 8892, Note_off_c, 0, 72, 64
2, 8892, Note_off_c, 0, 67, 64
2, 8900, Note_on_c, 0, 74, 107
2, 8932, Note_off_c, 0, 74, 64
2, 8940, Note_on_c, 0, 67, 107
2, 8972, Note_off_c, 0, 67, 64
2, 8980, Note_on_c, 0, 69, 107
2, 9012, Note_off_c, 0, 69, 64
2, 9020, Note_on_c, 0, 71, 107
2, 9060, Note_on_c, 0, 65, 107
2, 9100, Note_off_c, 0, 65, 64
2, 9100, Note_on_c, 0, 67, 107
2, 9140, Note_off_c, 0, 67, 64
2, 9140, Note_on_c, 0, 68, 107
2, 9156, Note_off_c, 0, 71, 64
2, 9180, Note_off_c, 0, 68, 64
2, 9180, Note_on_c, 0, 63, 107
2, 9180, Note_on_c, 0, 72, 107
2, 9276, Note_off_c, 0, 72, 64
2, 9276, Note_off_c, 0, 63, 64
2, 9300, Note_on_c, 0, 75, 107
2, 9396, Note_off_c, 0, 75, 64
2, 9420, Note_on_c, 0, 68, 107
2, 9516, Note_off_c, 0, 68, 64
2, 9540, Note_on_c, 0, 72, 107
2, 9636, Note_off_c, 0, 72, 64
2, 9660, Note_on_c, 0, 66, 107
2, 9756, Note_off_c, 0, 66, 64
2, 9780, Note_on_c, 0, 69, 107
2, 9876, Note_off_c, 0, 69, 64
2, 9900, Note_on_c, 0, 62, 107
2, 9996, Note_off_c, 0, 62, 64
2, 10020, Note_on_c, 0, 66, 107
2, 10116, Note_off_c, 0, 66, 64
2, 10140, Note_on_c, 0, 59, 107
2, 10188, Note_off_c, 0, 59, 64
2, 10200, Note_on_c, 0, 62, 107
2, 10248, Note_off_c, 0, 62, 64
2, 10260, Note_on_c, 0, 67, 107
2, 10308, Note_off_c, 0, 67, 64
2, 10320, Note_on_c, 0, 59, 107
2, 10368, Note_off_c, 0, 59, 64
2, 10380, Note_on_c, 0, 60, 107
2, 10428, Note_off_c, 0, 60, 64
2, 10440, Note_on_c, 0, 69, 107
2, 10488, Note_off_c, 0, 69, 64
2, 10500, Note_on_c, 0, 62, 107
2, 10548, Note_off_c, 0, 62, 64
2, 10560, Note_on_c, 0, 71, 107
2, 10608, Note_off_c, 0, 71, 64
2, 10620, Note_on_c, 0, 64, 107
2, 10668, Note_off_c, 0, 64, 64
2, 10680, Note_on_c, 0, 67, 107
2, 10728, Note_off_c, 0, 67, 64
2, 10740, Note_on_c, 0, 72, 107
2, 10788, Note_off_c, 0, 72, 64
2, 10800, Note_on_c, 0, 64, 107
2, 10848, Note_off_c, 0, 64, 64
2, 10860, Note_on_c, 0, 62, 107
2, 10860, Note_on_c, 0, 62, 107
2, 10908, Note_off_c, 0, 62, 64
2, 10920, Note_on_c, 0, 72, 107
2, 10956, Note_off_c, 0, 62, 64
2, 10968, Note_off_c, 0, 72, 64
2, 10980, Note_on_c, 0, 65, 107
2, 10980, Note_on_c, 0, 65, 107
2, 11028, Note_off_c, 0, 65, 64
2, 11040, Note_on_c, 0, 71, 107
2, 11076, Note_off_c, 0, 65, 64
2, 11088, Note_off_c, 0, 71, 64
2, 11100, Note_on_c, 0, 67, 107
2, 11100, Note_on_c, 0, 72, 107
2, 11100, Note_on_c, 0, 64, 107
2, 11388, Note_off_c, 0, 64, 64
2, 11388, Note_off_c, 0, 72, 64
2, 11388, Note_off_c, 0, 67, 64
2, 11520, Note_on_c, 0, 77, 107
2, 11568, Note_off_c, 0, 77, 64
2, 11580, Note_on_c, 0, 72, 107
2, 11580, Note_on_c, 0, 69, 107
2, 11580, Note_on_c, 0, 77, 107
2, 11676, Note_off_c, 0, 69, 64
2, 11676, Note_off_c, 0, 72, 64
2, 11724, Note_off_c, 0, 77, 64
2, 11730, Note_on_c, 0, 77, 107
2, 11754, Note_off_c, 0, 77, 64
2, 11760, Note_on_c, 0, 76, 107
2, 11784, Note_off_c, 0, 76, 64
2, 11790, Note_on_c, 0, 74, 107
2, 11814, Note_off_c, 0, 74, 64
2, 11820, Note_on_c, 0, 72, 107
2, 11868, Note_off_c, 0, 72, 64
2, 11880, Note_on_c, 0, 74, 107
2, 11928, Note_off_c, 0, 74, 64
2, 11940, Note_on_c, 0, 72, 107
2, 11988, Note_off_c, 0, 72, 64
2, 12000, Note_on_c, 0, 70, 107
2, 12048, Note_off_c, 0, 70, 64
2, 12060, Note_on_c, 0, 69, 107
2, 12092, Note_off_c, 0, 69, 64
2, 12100, Note_on_c, 0, 70, 107
2, 12132, Note_off_c, 0, 70, 64
2, 12140, Note_on_c, 0, 72, 107
2, 12172, Note_off_c, 0, 72, 64
2, 12180, Note_on_c, 0, 69, 107
2, 12212, Note_off_c, 0, 69, 64
2, 12220, Note_on_c, 0, 70, 107
2, 12252, Note_off_c, 0, 70, 64
2, 12260, Note_on_c, 0, 72, 107
2, 12292, Note_off_c, 0, 72, 64
2, 12300, Note_on_c, 0, 65, 107
2, 12332, Note_off_c, 0, 65, 64
2, 12340, Note_on_c, 0, 67, 107
2, 12372, Note_off_c, 0, 67, 64
2, 12380, Note_on_c, 0, 69, 107
2, 12412, Note_off_c, 0, 69, 64
2, 12420, Note_on_c, 0, 65, 107
2, 12452, Note_off_c, 0, 65, 64
2, 12460, Note_on_c, 0, 67, 107
2, 12492, Note_off_c, 0, 67, 64
2, 12500, Note_on_c, 0, 69, 107
2, 12532, Note_off_c, 0, 69, 64
2, 12540, Note_on_c, 0, 60, 107
2, 12636, Note_off_c, 0, 60, 64
2, 12660, Note_on_c, 0, 65, 107
2, 12756, Note_off_c, 0, 65, 64
2, 12780, Note_on_c, 0, 67, 107
2, 12792, Note_off_c, 0, 67, 64
2, 12795, Note_on_c, 0, 65, 107
2, 12807, Note_off_c, 0, 65, 64
2, 12810, Note_on_c, 0, 67, 107
2, 12822, Note_off_c, 0, 67, 64
2, 12825, Note_on_c, 0, 65, 107
2, 12837, Note_off_c, 0, 65, 64
2, 12840, Note_on_c, 0, 67, 107
2, 12852, Note_off_c, 0, 67, 64
2, 12855, Note_on_c, 0, 65, 107
2, 12867, Note_off_c, 0, 65, 64
2, 12870, Note_on_c, 0, 67, 107
2, 12885, Note_off_c, 0, 67, 64
2, 12885, Note_on_c, 0, 65, 107
2, 12900, Note_off_c, 0, 65, 64
2, 12900, Note_on_c, 0, 67, 107
2, 12915, Note_off_c, 0, 67, 64
2, 12915, Note_on_c, 0, 65, 107
2, 12930, Note_off_c, 0, 65, 64
2, 12930, Note_on_c, 0, 67, 107
2, 12945, Note_off_c, 0, 67, 64
2, 12945, Note_on_c, 0, 65, 107
2, 12960, Note_off_c, 0, 65, 64
2, 12960, Note_on_c, 0, 64, 107
2, 12984, Note_off_c, 0, 64, 64
2, 12990, Note_on_c, 0, 65, 107
2, 13014, Note_off_c, 0, 65, 64
2, 13020, Note_on_c, 0, 67, 107
2, 13116, Note_off_c, 0, 67, 64
2, 13140, Note_on_c, 0, 65, 107
2, 13140, Note_on_c, 0, 67, 107
2, 13236, Note_off_c, 0, 67, 64
2, 13236, Note_off_c, 0, 65, 64
2, 13260, Note_on_c, 0, 69, 107
2, 13260, Note_on_c, 0, 64, 107
2, 13272, Note_off_c, 0, 69, 64
2, 13275, Note_on_c, 0, 67, 107
2, 13287, Note_off_c, 0, 67, 64
2, 13290, Note_on_c, 0, 69, 107
2, 13302, Note_off_c, 0, 69, 64
2, 13305, Note_on_c, 0, 67, 107
2, 13317, Note_off_c, 0, 67, 64
2, 13320, Note_on_c, 0, 69, 107
2, 13332, Note_off_c, 0, 69, 64
2, 13335, Note_on_c, 0, 67, 107
2, 13347, Note_off_c, 0, 67, 64
2, 13350, Note_on_c, 0, 69, 107
2, 13365, Note_off_c, 0, 69, 64
2, 13365, Note_on_c, 0, 67, 107
2, 13380, Note_off_c, 0, 67, 64
2, 13380, Note_on_c, 0, 69, 107
2, 13395, Note_off_c, 0, 69, 64
2, 13395, Note_on_c, 0, 67, 107
2, 13410, Note_off_c, 0, 67, 64
2, 13410, Note_on_c, 0, 69, 107
2, 13425, Note_off_c, 0, 69, 64
2, 13425, Note_on_c, 0, 67, 107
2, 13440, Note_off_c, 0, 67, 64
2, 13440, Note_on_c, 0, 65, 107
2, 13452, Note_off_c, 0, 64, 64
2, 13464, Note_off_c, 0, 65, 64
2, 13470, Note_on_c, 0, 67, 107
2, 13494, Note_off_c, 0, 67, 64
2, 13500, Note_on_c, 0, 65, 107
2, 13500, Note_on_c, 0, 69, 107
2, 13548, Note_off_c, 0, 69, 64
2, 13560, Note_on_c, 0, 72, 107
2, 13608, Note_off_c, 0, 72, 64
2, 13620, Note_on_c, 0, 74, 107
2, 13668, Note_off_c, 0, 74, 64
2, 13680, Note_on_c, 0, 76, 107
2, 13692, Note_off_c, 0, 65, 64
2, 13728, Note_off_c, 0, 76, 64
2, 13740, Note_on_c, 0, 77, 107
2, 13800, Note_on_c, 0, 72, 107
2, 13848, Note_off_c, 0, 72, 64
2, 13860, Note_on_c, 0, 70, 107
2, 13908, Note_off_c, 0, 70, 64
2, 13920, Note_on_c, 0, 69, 107
2, 13968, Note_off_c, 0, 69, 64
2, 13980, Note_on_c, 0, 70, 107
2, 14028, Note_off_c, 0, 77, 64
2, 14040, Note_on_c, 0, 77, 107
2, 14088, Note_off_c, 0, 77, 64
2, 14100, Note_on_c, 0, 76, 107
2, 14148, Note_off_c, 0, 76, 64
2, 14160, Note_on_c, 0, 77, 107
2, 14208, Note_off_c, 0, 77, 64
2, 14220, Note_on_c, 0, 79, 107
2, 14268, Note_off_c, 0, 79, 64
2, 14280, Note_on_c, 0, 76, 107
2, 14328, Note_off_c, 0, 76, 64
2, 14340, Note_on_c, 0, 77, 107
2, 14388, Note_off_c, 0, 77, 64
2, 14400, Note_on_c, 0, 79, 107
2, 14448, Note_off_c, 0, 79, 64
2, 14460, Note_on_c, 0, 72, 107
2, 14508, Note_off_c, 0, 70, 64
2, 14520, Note_on_c, 0, 70, 107
2, 14568, Note_off_c, 0, 70, 64
2, 14580, Note_on_c, 0, 69, 107
2, 14628, Note_off_c, 0, 69, 64
2, 14640, Note_on_c, 0, 67, 107
2, 14688, Note_off_c, 0, 67, 64
2, 14700, Note_on_c, 0, 69, 107
2, 14748, Note_off_c, 0, 69, 64
2, 14760, Note_on_c, 0, 65, 107
2, 14808, Note_off_c, 0, 65, 64
2, 14820, Note_on_c, 0, 67, 107
2, 14868, Note_off_c, 0, 67, 64
2, 14880, Note_on_c, 0, 69, 107
2, 14928, Note_off_c, 0, 69, 64
2, 14988, Note_off_c, 0, 72, 64
2, 15000, Note_on_c, 0, 72, 107
2, 15048, Note_off_c, 0, 72, 64
2, 15060, Note_on_c, 0, 70, 107
2, 15108, Note_off_c, 0, 70, 64
2, 15120, Note_on_c, 0, 69, 107
2, 15168, Note_off_c, 0, 69, 64
2, 15180, Note_on_c, 0, 70, 107
2, 15228, Note_off_c, 0, 70, 64
2, 15240, Note_on_c, 0, 67, 107
2, 15288, Note_off_c, 0, 67, 64
2, 15300, Note_on_c, 0, 69, 107
2, 15348, Note_off_c, 0, 69, 64
2, 15360, Note_on_c, 0, 70, 107
2, 15408, Note_off_c, 0, 70, 64
2, 15420, Note_on_c, 0, 64, 107
2, 15468, Note_off_c, 0, 64, 64
2, 15480, Note_on_c, 0, 67, 107
2, 15528, Note_off_c, 0, 67, 64
2, 15540, Note_on_c, 0, 69, 107
2, 15588, Note_off_c, 0, 69, 64
2, 15600, Note_on_c, 0, 70, 107
2, 15648, Note_off_c, 0, 70, 64
2, 15660, Note_on_c, 0, 72, 107
2, 15948, Note_off_c, 0, 72, 64
2, 15960, Note_on_c, 0, 70, 107
2, 16008, Note_off_c, 0, 70, 64
2, 16020, Note_on_c, 0, 69, 107
2, 16068, Note_off_c, 0, 69, 64
2, 16080, Note_on_c, 0, 74, 107
2, 16128, Note_off_c, 0, 74, 64
2, 16140, Note_on_c, 0, 72, 105
2, 16152, Note_off_c, 0, 72, 64
2, 16155, Note_on_c, 0, 70, 105
2, 16167, Note_off_c, 0, 70, 64
2, 16170, Note_on_c, 0, 72, 105
2, 16182, Note_off_c, 0, 72, 64
2, 16185, Note_on_c, 0, 70, 105
2, 16197, Note_off_c, 0, 70, 64
2, 16200, Note_on_c, 0, 72, 105
2, 16212, Note_off_c, 0, 72, 64
2, 16215, Note_on_c, 0, 70, 105
2, 16227, Note_off_c, 0, 70, 64
2, 16230, Note_on_c, 0, 72, 107
2, 16245, Note_off_c, 0, 72, 64
2, 16245, Note_on_c, 0, 70, 107
2, 16260, Note_off_c, 0, 70, 64
2, 16260, Note_on_c, 0, 72, 107
2, 16275, Note_off_c, 0, 72, 64
2, 16275, Note_on_c, 0, 70, 107
2, 16290, Note_off_c, 0, 70, 64
2, 16290, Note_on_c, 0, 72, 107
2, 16305, Note_off_c, 0, 72, 64
2, 16305, Note_on_c, 0, 70, 107
2, 16320, Note_off_c, 0, 70, 64
2, 16320, Note_on_c, 0, 69, 107
2, 16344, Note_off_c, 0, 69, 64
2, 16350, Note_on_c, 0, 70, 107
2, 16374, Note_off_c, 0, 70, 64
2, 16380, Note_on_c, 0, 69, 107
2, 16380, Note_on_c, 0, 65, 107
2, 16428, Note_off_c, 0, 69, 64
2, 16440, Note_on_c, 0, 72, 107
2, 16488, Note_off_c, 0, 72, 64
2, 16500, Note_on_c, 0, 74, 107
2, 16548, Note_off_c, 0, 74, 64
2, 16560, Note_on_c, 0, 76, 107
2, 16572, Note_off_c, 0, 65, 64
2, 16608, Note_off_c, 0, 76, 64
2, 16620, Note_on_c, 0, 77, 107
2, 16680, Note_on_c, 0, 69, 107
2, 16728, Note_off_c, 0, 69, 64
2, 16740, Note_on_c, 0, 71, 107
2, 16788, Note_off_c, 0, 71, 64
2, 16800, Note_on_c, 0, 72, 107
2, 16848, Note_off_c, 0, 72, 64
2, 16860, Note_on_c, 0, 74, 107
2, 16908, Note_off_c, 0, 77, 64
2, 16956, Note_off_c, 0, 74, 64
2, 16980, Note_on_c, 0, 72, 107
2, 16980, Note_on_c, 0, 76, 107
2, 17076, Note_off_c, 0, 76, 64
2, 17076, Note_off_c, 0, 72, 64
2, 17100, Note_on_c, 0, 74, 107
2, 17100, Note_on_c, 0, 71, 107
2, 17148, Note_off_c, 0, 74, 64
2, 17160, Note_on_c, 0, 79, 107
2, 17208, Note_off_c, 0, 79, 64
2, 17220, Note_on_c, 0, 77, 107
2, 17268, Note_off_c, 0, 77, 64
2, 17280, Note_on_c, 0, 79, 107
2, 17292, Note_off_c, 0, 71, 64
2, 17328, Note_off_c, 0, 79, 64
2, 17340, Note_on_c, 0, 72, 107
2, 17340, Note_on_c, 0, 76, 107
2, 17388, Note_off_c, 0, 72, 64
2, 17400, Note_on_c, 0, 67, 107
2, 17448, Note_off_c, 0, 67, 64
2, 17460, Note_on_c, 0, 69, 107
2, 17508, Note_off_c, 0, 69, 64
2, 17520, Note_on_c, 0, 71, 107
2, 17568, Note_off_c, 0, 71, 64
2, 17580, Note_on_c, 0, 72, 107
2, 17628, Note_off_c, 0, 76, 64
2, 17640, Note_on_c, 0, 76, 107
2, 17688, Note_off_c, 0, 76, 64
2, 17700, Note_on_c, 0, 77, 107
2, 17748, Note_off_c, 0, 77, 64
2, 17760, Note_on_c, 0, 79, 107
2, 17808, Note_off_c, 0, 79, 64
2, 17820, Note_on_c, 0, 81, 107
2, 17852, Note_off_c, 0, 81, 64
2, 17860, Note_on_c, 0, 83, 107
2, 17892, Note_off_c, 0, 83, 64
2, 17900, Note_on_c, 0, 84, 107
2, 17932, Note_off_c, 0, 84, 64
2, 17940, Note_on_c, 0, 81, 107
2, 17972, Note_off_c, 0, 81, 64
2, 17980, Note_on_c, 0, 83, 107
2, 18012, Note_off_c, 0, 83, 64
2, 18020, Note_on_c, 0, 84, 107
2, 18052, Note_off_c, 0, 84, 64
2, 18060, Note_on_c, 0, 77, 107
2, 18092, Note_off_c, 0, 77, 64
2, 18100, Note_on_c, 0, 79, 107
2, 18132, Note_off_c, 0, 79, 64
2, 18140, Note_on_c, 0, 81, 107
2, 18172, Note_off_c, 0, 81, 64
2, 18180, Note_on_c, 0, 77, 107
2, 18212, Note_off_c, 0, 77, 64
2, 18220, Note_on_c, 0, 79, 107
2, 18252, Note_off_c, 0, 79, 64
2, 18260, Note_on_c, 0, 81, 107
2, 18292, Note_off_c, 0, 81, 64
2, 18300, Note_on_c, 0, 74, 107
2, 18348, Note_off_c, 0, 72, 64
2, 18360, Note_on_c, 0, 72, 107
2, 18408, Note_off_c, 0, 72, 64
2, 18420, Note_on_c, 0, 71, 107
2, 18468, Note_off_c, 0, 71, 64
2, 18480, Note_on_c, 0, 69, 107
2, 18528, Note_off_c, 0, 69, 64
2, 18540, Note_on_c, 0, 71, 107
2, 18588, Note_off_c, 0, 74, 64
2, 18600, Note_on_c, 0, 74, 107
2, 18648, Note_off_c, 0, 74, 64
2, 18660, Note_on_c, 0, 76, 107
2, 18708, Note_off_c, 0, 76, 64
2, 18720, Note_on_c, 0, 77, 107
2, 18768, Note_off_c, 0, 77, 64
2, 18780, Note_on_c, 0, 79, 107
2, 18812, Note_off_c, 0, 79, 64
2, 18820, Note_on_c, 0, 81, 107
2, 18852, Note_off_c, 0, 81, 64
2, 18860, Note_on_c, 0, 83, 107
2, 18892, Note_off_c, 0, 83, 64
2, 18900, Note_on_c, 0, 79, 107
2, 18932, Note_off_c, 0, 79, 64
2, 18940, Note_on_c, 0, 81, 107
2, 18972, Note_off_c, 0, 81, 64
2, 18980, Note_on_c, 0, 83, 107
2, 19012, Note_off_c, 0, 83, 64
2, 19020, Note_on_c, 0, 76, 107
2, 19052, Note_off_c, 0, 76, 64
2, 19060, Note_on_c, 0, 77, 107
2, 19092, Note_off_c, 0, 77, 64
2, 19100, Note_on_c, 0, 79, 107
2, 19132, Note_off_c, 0, 79, 64
2, 19140, Note_on_c, 0, 76, 107
2, 19172, Note_off_c, 0, 76, 64
2, 19180, Note_on_c, 0, 77, 107
2, 19212, Note_off_c, 0, 77, 64
2, 19220, Note_on_c, 0, 79, 107
2, 19252, Note_off_c, 0, 79, 64
2, 19260, Note_on_c, 0, 72, 107
2, 19317, Note_off_c, 0, 71, 64
2, 19320, Note_on_c, 0, 71, 107
2, 19377, Note_off_c, 0, 71, 64
2, 19380, Note_on_c, 0, 69, 107
2, 19437, Note_off_c, 0, 69, 64
2, 19440, Note_on_c, 0, 67, 107
2, 19497, Note_off_c, 0, 67, 64
2, 19500, Note_on_c, 0, 69, 107
2, 19548, Note_off_c, 0, 72, 64
2, 19560, Note_on_c, 0, 75, 107
2, 19608, Note_off_c, 0, 75, 64
2, 19620, Note_on_c, 0, 74, 107
2, 19668, Note_off_c, 0, 74, 64
2, 19680, Note_on_c, 0, 72, 107
2, 19728, Note_off_c, 0, 72, 64
2, 19740, Note_on_c, 0, 78, 107
2, 19772, Note_off_c, 0, 78, 64
2, 19780, Note_on_c, 0, 79, 107
2, 19812, Note_off_c, 0, 79, 64
2, 19820, Note_on_c, 0, 81, 107
2, 19852, Note_off_c, 0, 81, 64
2, 19860, Note_on_c, 0, 78, 107
2, 19892, Note_off_c, 0, 78, 64
2, 19900, Note_on_c, 0, 79, 107
2, 19932, Note_off_c, 0, 79, 64
2, 19940, Note_on_c, 0, 81, 107
2, 19972, Note_off_c, 0, 81, 64
2, 19980, Note_on_c, 0, 72, 107
2, 20012, Note_off_c, 0, 72, 64
2, 20020, Note_on_c, 0, 74, 107
2, 20052, Note_off_c, 0, 74, 64
2, 20060, Note_on_c, 0, 75, 107
2, 20092, Note_off_c, 0, 75, 64
2, 20100, Note_on_c, 0, 72, 107
2, 20124, Note_off_c, 0, 69, 64
2, 20132, Note_off_c, 0, 72, 64
2, 20140, Note_on_c, 0, 74, 107
2, 20172, Note_off_c, 0, 74, 64
2, 20180, Note_on_c, 0, 75, 107
2, 20212, Note_off_c, 0, 75, 64
2, 20220, Note_on_c, 0, 71, 107
2, 20220, Note_on_c, 0, 67, 107
2, 20252, Note_off_c, 0, 71, 64
2, 20260, Note_on_c, 0, 72, 107
2, 20292, Note_off_c, 0, 72, 64
2, 20300, Note_on_c, 0, 74, 107
2, 20332, Note_off_c, 0, 74, 64
2, 20340, Note_on_c, 0, 71, 107
2, 20372, Note_off_c, 0, 71, 64
2, 20380, Note_on_c, 0, 72, 107
2, 20412, Note_off_c, 0, 72, 64
2, 20412, Note_off_c, 0, 67, 64
2, 20420, Note_on_c, 0, 74, 107
2, 20452, Note_off_c, 0, 74, 64
2, 20460, Note_on_c, 0, 67, 107
2, 20492, Note_off_c, 0, 67, 64
2, 20500, Note_on_c, 0, 69, 107
2, 20532, Note_off_c, 0, 69, 64
2, 20540, Note_on_c, 0, 71, 107
2, 20580, Note_on_c, 0, 65, 107
2, 20620, Note_off_c, 0, 65, 64
2, 20620, Note_on_c, 0, 67, 107
2, 20660, Note_off_c, 0, 67, 64
2, 20660, Note_on_c, 0, 68, 107
2, 20676, Note_off_c, 0, 71, 64
2, 20700, Note_off_c, 0, 68, 64
2, 20700, Note_on_c, 0, 63, 107
2, 20700, Note_on_c, 0, 72, 107
2, 20796, Note_off_c, 0, 72, 64
2, 20796, Note_off_c, 0, 63, 64
2, 20820, Note_on_c, 0, 75, 107
2, 20916, Note_off_c, 0, 75, 64
2, 20940, Note_on_c, 0, 68, 107
2, 21036, Note_off_c, 0, 68, 64
2, 21060, Note_on_c, 0, 72, 107
2, 21156, Note_off_c, 0, 72, 64
2, 21180, Note_on_c, 0, 66, 107
2, 21276, Note_off_c, 0, 66, 64
2, 21300, Note_on_c, 0, 69, 107
2, 21396, Note_off_c, 0, 69, 64
2, 21420, Note_on_c, 0, 62, 107
2, 21516, Note_off_c, 0, 62, 64
2, 21540, Note_on_c, 0, 66, 107
2, 21636, Note_off_c, 0, 66, 64
2, 21660, Note_on_c, 0, 59, 107
2, 21708, Note_off_c, 0, 59, 64
2, 21720, Note_on_c, 0, 62, 107
2, 21768, Note_off_c, 0, 62, 64
2, 21780, Note_on_c, 0, 67, 107
2, 21828, Note_off_c, 0, 67, 64
2, 21840, Note_on_c, 0, 59, 107
2, 21888, Note_off_c, 0, 59, 64
2, 21900, Note_on_c, 0, 60, 107
2, 21948, Note_off_c, 0, 60, 64
2, 21960, Note_on_c, 0, 69, 107
2, 22008, Note_off_c, 0, 69, 64
2, 22020, Note_on_c, 0, 62, 107
2, 22068, Note_off_c, 0, 62, 64
2, 22080, Note_on_c, 0, 71, 107
2, 22128, Note_off_c, 0, 71, 64
2, 22140, Note_on_c, 0, 64, 107
2, 22188, Note_off_c, 0, 64, 64
2, 22200, Note_on_c, 0, 67, 107
2, 22248, Note_off_c, 0, 67, 64
2, 22260, Note_on_c, 0, 72, 107
2, 22308, Note_off_c, 0, 72, 64
2, 22320, Note_on_c, 0, 64, 107
2, 22368, Note_off_c, 0, 64, 64
2, 22380, Note_on_c, 0, 62, 107
2, 22380, Note_on_c, 0, 62, 107
2, 22428, Note_off_c, 0, 62, 64
2, 22440, Note_on_c, 0, 72, 107
2, 22476, Note_off_c, 0, 62, 64
2, 22488, Note_off_c, 0, 72, 64
2, 22500, Note_on_c, 0, 65, 107
2, 22500, Note_on_c, 0, 65, 107
2, 22548, Note_off_c, 0, 65, 64
2, 22560, Note_on_c, 0, 71, 107
2, 22596, Note_off_c, 0, 65, 64
2, 22608, Note_off_c, 0, 71, 64
2, 22620, Note_on_c, 0, 67, 107
2, 22620, Note_on_c, 0, 72, 107
2, 22620, Note_on_c, 0, 64, 107
2, 22908, Note_off_c, 0, 64, 64
2, 22908, Note_off_c, 0, 72, 64
2, 22908, Note_off_c, 0, 67, 64
2, 23040, Note_on_c, 0, 79, 107
2, 23088, Note_off_c, 0, 79, 64
2, 23100, Note_on_c, 0, 72, 107
2, 23100, Note_on_c, 0, 79, 107
2, 23100, Note_on_c, 0, 76, 107
2, 23292, Note_off_c, 0, 76, 64
2, 23292, Note_off_c, 0, 79, 64
2, 23292, Note_off_c, 0, 72, 64
2, 23400, Note_on_c, 0, 67, 107
2, 23448, Note_off_c, 0, 67, 64
2, 23460, Note_on_c, 0, 69, 107
2, 23508, Note_off_c, 0, 69, 64
2, 23520, Note_on_c, 0, 71, 107
2, 23568, Note_off_c, 0, 71, 64
2, 23580, Note_on_c, 0, 72, 107
2, 23676, Note_off_c, 0, 72, 64
2, 23700, Note_on_c, 0, 67, 107
2, 23796, Note_off_c, 0, 67, 64
2, 23820, Note_on_c, 0, 76, 107
2, 23916, Note_off_c, 0, 76, 64
2, 23940, Note_on_c, 0, 72, 107
2, 24036, Note_off_c, 0, 72, 64
2, 24060, Note_on_c, 0, 79, 107
2, 24092, Note_off_c, 0, 79, 64
2, 24100, Note_on_c, 0, 77, 107
2, 24132, Note_off_c, 0, 77, 64
2, 24140, Note_on_c, 0, 76, 107
2, 24172, Note_off_c, 0, 76, 64
2, 24180, Note_on_c, 0, 79, 107
2, 24212, Note_off_c, 0, 79, 64
2, 24220, Note_on_c, 0, 77, 107
2, 24252, Note_off_c, 0, 77, 64
2, 24260, Note_on_c, 0, 76, 107
2, 24292, Note_off_c, 0, 76, 64
2, 24300, Note_on_c, 0, 84, 107
2, 24348, Note_off_c, 0, 84, 64
2, 24360, Note_on_c, 0, 79, 107
2, 24408, Note_off_c, 0, 79, 64
2, 24420, Note_on_c, 0, 79, 107
2, 24435, Note_off_c, 0, 79, 64
2, 24435, Note_on_c, 0, 77, 107
2, 24450, Note_off_c, 0, 77, 64
2, 24450, Note_on_c, 0, 79, 107
2, 24465, Note_off_c, 0, 79, 64
2, 24465, Note_on_c, 0, 77, 107
2, 24480, Note_off_c, 0, 77, 64
2, 24480, Note_on_c, 0, 76, 107
2, 24528, Note_off_c, 0, 76, 64
2, 24540, Note_on_c, 0, 81, 107
2, 24572, Note_off_c, 0, 81, 64
2, 24580, Note_on_c, 0, 79, 107
2, 24612, Note_off_c, 0, 79, 64
2, 24620, Note_on_c, 0, 77, 107
2, 24652, Note_off_c, 0, 77, 64
2, 24660, Note_on_c, 0, 77, 107
2, 24692, Note_off_c, 0, 77, 64
2, 24700, Note_on_c, 0, 76, 107
2, 24732, Note_off_c, 0, 76, 64
2, 24740, Note_on_c, 0, 74, 107
2, 24772, Note_off_c, 0, 74, 64
2, 24780, Note_on_c, 0, 83, 107
2, 24828, Note_off_c, 0, 83, 64
2, 24840, Note_on_c, 0, 77, 107
2, 24888, Note_off_c, 0, 77, 64
2, 24900, Note_on_c, 0, 77, 107
2, 24912, Note_off_c, 0, 77, 64
2, 24915, Note_on_c, 0, 76, 107
2, 24927, Note_off_c, 0, 76, 64
2, 24930, Note_on_c, 0, 77, 107
2, 24942, Note_off_c, 0, 77, 64
2, 24945, Note_on_c, 0, 76, 107
2, 24957, Note_off_c, 0, 76, 64
2, 24960, Note_on_c, 0, 74, 107
2, 25008, Note_off_c, 0, 74, 64
2, 25020, Note_on_c, 0, 72, 107
2, 25116, Note_off_c, 0, 72, 64
2, 25140, Note_on_c, 0, 79, 107
2, 25236, Note_off_c, 0, 79, 64
2, 25260, Note_on_c, 0, 79, 107
2, 25404, Note_off_c, 0, 79, 64
2, 25410, Note_on_c, 0, 82, 107
2, 25434, Note_off_c, 0, 82, 64
2, 25440, Note_on_c, 0, 81, 107
2, 25464, Note_off_c, 0, 81, 64
2, 25470, Note_on_c, 0, 79, 107
2, 25494, Note_off_c, 0, 79, 64
2, 25500, Note_on_c, 0, 77, 107
2, 25596, Note_off_c, 0, 77, 64
2, 25620, Note_on_c, 0, 77, 107
2, 25716, Note_off_c, 0, 77, 64
2, 25740, Note_on_c, 0, 77, 107
2, 25884, Note_off_c, 0, 77, 64
2, 25890, Note_on_c, 0, 81, 107
2, 25914, Note_off_c, 0, 81, 64
2, 25920, Note_on_c, 0, 79, 107
2, 25944, Note_off_c, 0, 79, 64
2, 25950, Note_on_c, 0, 77, 107
2, 25974, Note_off_c, 0, 77, 64
2, 25980, Note_on_c, 0, 76, 107
2, 26028, Note_off_c, 0, 76, 64
2, 26040, Note_on_c, 0, 74, 107
2, 26088, Note_off_c, 0, 74, 64
2, 26100, Note_on_c, 0, 76, 107
2, 26148, Note_off_c, 0, 76, 64
2, 26160, Note_on_c, 0, 77, 107
2, 26208, Note_off_c, 0, 77, 64
2, 26220, Note_on_c, 0, 76, 107
2, 26268, Note_off_c, 0, 76, 64
2, 26280, Note_on_c, 0, 79, 107
2, 26328, Note_off_c, 0, 79, 64
2, 26340, Note_on_c, 0, 78, 107
2, 26388, Note_off_c, 0, 78, 64
2, 26400, Note_on_c, 0, 76, 107
2, 26448, Note_off_c, 0, 76, 64
2, 26460, Note_on_c, 0, 78, 107
2, 26556, Note_off_c, 0, 78, 64
2, 26580, Note_on_c, 0, 74, 107
2, 26676, Note_off_c, 0, 74, 64
2, 26700, Note_on_c, 0, 79, 107
2, 26988, Note_off_c, 0, 79, 64
2, 27000, Note_on_c, 0, 76, 107
2, 27000, Note_on_c, 0, 67, 107
2, 27048, Note_off_c, 0, 67, 64
2, 27048, Note_off_c, 0, 76, 64
2, 27060, Note_on_c, 0, 77, 107
2, 27060, Note_on_c, 0, 69, 107
2, 27108, Note_off_c, 0, 69, 64
2, 27108, Note_off_c, 0, 77, 64
2, 27120, Note_on_c, 0, 70, 107
2, 27120, Note_on_c, 0, 79, 107
2, 27168, Note_off_c, 0, 79, 64
2, 27168, Note_off_c, 0, 70, 64
2, 27180, Note_on_c, 0, 77, 107
2, 27180, Note_on_c, 0, 69, 107
2, 27228, Note_off_c, 0, 69, 64
2, 27228, Note_off_c, 0, 77, 64
2, 27240, Note_on_c, 0, 81, 107
2, 27240, Note_on_c, 0, 72, 107
2, 27288, Note_off_c, 0, 72, 64
2, 27288, Note_off_c, 0, 81, 64
2, 27300, Note_on_c, 0, 70, 107
2, 27300, Note_on_c, 0, 79, 107
2, 27348, Note_off_c, 0, 79, 64
2, 27348, Note_off_c, 0, 70, 64
2, 27360, Note_on_c, 0, 69, 107
2, 27360, Note_on_c, 0, 77, 107
2, 27408, Note_off_c, 0, 77, 64
2, 27408, Note_off_c, 0, 69, 64
2, 27420, Note_on_c, 0, 67, 107
2, 27420, Note_on_c, 0, 76, 107
2, 27468, Note_off_c, 0, 76, 64
2, 27468, Note_off_c, 0, 67, 64
2, 27480, Note_on_c, 0, 65, 107
2, 27480, Note_on_c, 0, 74, 107
2, 27528, Note_off_c, 0, 74, 64
2, 27528, Note_off_c, 0, 65, 64
2, 27540, Note_on_c, 0, 76, 107
2, 27540, Note_on_c, 0, 67, 107
2, 27588, Note_off_c, 0, 67, 64
2, 27588, Note_off_c, 0, 76, 64
2, 27600, Note_on_c, 0, 77, 107
2, 27600, Note_on_c, 0, 69, 107
2, 27648, Note_off_c, 0, 69, 64
2, 27648, Note_off_c, 0, 77, 64
2, 27660, Note_on_c, 0, 76, 107
2, 27660, Note_on_c, 0, 67, 107
2, 27708, Note_off_c, 0, 67, 64
2, 27708, Note_off_c, 0, 76, 64
2, 27720, Note_on_c, 0, 70, 107
2, 27720, Note_on_c, 0, 79, 107
2, 27768, Note_off_c, 0, 79, 64
2, 27768, Note_off_c, 0, 70, 64
2, 27780, Note_on_c, 0, 69, 107
2, 27780, Note_on_c, 0, 77, 107
2, 27828, Note_off_c, 0, 77, 64
2, 27828, Note_off_c, 0, 69, 64
2, 27840, Note_on_c, 0, 76, 107
2, 27840, Note_on_c, 0, 67, 107
2, 27888, Note_off_c, 0, 67, 64
2, 27888, Note_off_c, 0, 76, 64
2, 27900, Note_on_c, 0, 74, 107
2, 27900, Note_on_c, 0, 65, 107
2, 28044, Note_off_c, 0, 65, 64
2, 28044, Note_off_c, 0, 74, 64
2, 28080, Note_on_c, 0, 76, 107
2, 28080, Note_on_c, 0, 67, 107
2, 28128, Note_off_c, 0, 67, 64
2, 28128, Note_off_c, 0, 76, 64
2, 28140, Note_on_c, 0, 64, 107
2, 28140, Note_on_c, 0, 73, 107
2, 28284, Note_off_c, 0, 73, 64
2, 28320, Note_on_c, 0, 74, 107
2, 28332, Note_off_c, 0, 64, 64
2, 28368, Note_off_c, 0, 74, 64
2, 28380, Note_on_c, 0, 65, 107
2, 28380, Note_on_c, 0, 74, 107
2, 28476, Note_off_c, 0, 74, 64
2, 28500, Note_on_c, 0, 69, 107
2, 28524, Note_off_c, 0, 69, 64
2, 28530, Note_on_c, 0, 70, 107
2, 28554, Note_off_c, 0, 70, 64
2, 28560, Note_on_c, 0, 69, 107
2, 28584, Note_off_c, 0, 69, 64
2, 28590, Note_on_c, 0, 70, 107
2, 28614, Note_off_c, 0, 70, 64
2, 28620, Note_on_c, 0, 72, 105
2, 28632, Note_off_c, 0, 72, 64
2, 28635, Note_on_c, 0, 70, 105
2, 28647, Note_off_c, 0, 70, 64
2, 28650, Note_on_c, 0, 72, 105
2, 28662, Note_off_c, 0, 72, 64
2, 28665, Note_on_c, 0, 70, 105
2, 28677, Note_off_c, 0, 70, 64
2, 28680, Note_on_c, 0, 72, 105
2, 28692, Note_off_c, 0, 72, 64
2, 28695, Note_on_c, 0, 70, 105
2, 28707, Note_off_c, 0, 70, 64
2, 28710, Note_on_c, 0, 72, 107
2, 28725, Note_off_c, 0, 72, 64
2, 28725, Note_on_c, 0, 70, 107
2, 28740, Note_off_c, 0, 70, 64
2, 28740, Note_on_c, 0, 72, 107
2, 28755, Note_off_c, 0, 72, 64
2, 28755, Note_on_c, 0, 70, 107
2, 28770, Note_off_c, 0, 70, 64
2, 28770, Note_on_c, 0, 72, 107
2, 28785, Note_off_c, 0, 72, 64
2, 28785, Note_on_c, 0, 70, 107
2, 28800, Note_off_c, 0, 70, 64
2, 28800, Note_on_c, 0, 69, 107
2, 28824, Note_off_c, 0, 69, 64
2, 28830, Note_on_c, 0, 70, 107
2, 28854, Note_off_c, 0, 70, 64
2, 28860, Note_on_c, 0, 72, 107
2, 28908, Note_off_c, 0, 72, 64
2, 28920, Note_on_c, 0, 75, 107
2, 28968, Note_off_c, 0, 75, 64
2, 28980, Note_on_c, 0, 74, 107
2, 29028, Note_off_c, 0, 74, 64
2, 29040, Note_on_c, 0, 72, 107
2, 29088, Note_off_c, 0, 72, 64
2, 29100, Note_on_c, 0, 74, 107
2, 29148, Note_off_c, 0, 74, 64
2, 29160, Note_on_c, 0, 70, 107
2, 29208, Note_off_c, 0, 70, 64
2, 29220, Note_on_c, 0, 72, 107
2, 29244, Note_off_c, 0, 65, 64
2, 29268, Note_off_c, 0, 72, 64
2, 29280, Note_on_c, 0, 74, 107
2, 29328, Note_off_c, 0, 74, 64
2, 29340, Note_on_c, 0, 64, 107
2, 29340, Note_on_c, 0, 67, 107
2, 29484, Note_off_c, 0, 67, 64
2, 29490, Note_on_c, 0, 69, 107
2, 29514, Note_off_c, 0, 69, 64
2, 29520, Note_on_c, 0, 67, 107
2, 29544, Note_off_c, 0, 67, 64
2, 29550, Note_on_c, 0, 69, 107
2, 29574, Note_off_c, 0, 69, 64
2, 29580, Note_on_c, 0, 70, 105
2, 29592, Note_off_c, 0, 70, 64
2, 29595, Note_on_c, 0, 69, 105
2, 29607, Note_off_c, 0, 69, 64
2, 29610, Note_on_c, 0, 70, 105
2, 29622, Note_off_c, 0, 70, 64
2, 29625, Note_on_c, 0, 69, 105
2, 29637, Note_off_c, 0, 69, 64
2, 29640, Note_on_c, 0, 70, 105
2, 29652, Note_off_c, 0, 70, 64
2, 29655, Note_on_c, 0, 69, 105
2, 29667, Note_off_c, 0, 69, 64
2, 29670, Note_on_c, 0, 70, 107
2, 29685, Note_off_c, 0, 70, 64
2, 29685, Note_on_c, 0, 69, 107
2, 29700, Note_off_c, 0, 69, 64
2, 29700, Note_on_c, 0, 70, 107
2, 29715, Note_off_c, 0, 70, 64
2, 29715, Note_on_c, 0, 69, 107
2, 29724, Note_off_c, 0, 64, 64
2, 29730, Note_off_c, 0, 69, 64
2, 29730, Note_on_c, 0, 70, 107
2, 29745, Note_off_c, 0, 70, 64
2, 29745, Note_on_c, 0, 69, 107
2, 29760, Note_off_c, 0, 69, 64
2, 29760, Note_on_c, 0, 67, 107
2, 29784, Note_off_c, 0, 67, 64
2, 29790, Note_on_c, 0, 69, 107
2, 29814, Note_off_c, 0, 69, 64
2, 29820, Note_on_c, 0, 70, 107
2, 29820, Note_on_c, 0, 63, 107
2, 29868, Note_off_c, 0, 70, 64
2, 29880, Note_on_c, 0, 74, 107
2, 29928, Note_off_c, 0, 74, 64
2, 29940, Note_on_c, 0, 72, 107
2, 29988, Note_off_c, 0, 72, 64
2, 30000, Note_on_c, 0, 70, 107
2, 30048, Note_off_c, 0, 70, 64
2, 30060, Note_on_c, 0, 72, 107
2, 30108, Note_off_c, 0, 72, 64
2, 30120, Note_on_c, 0, 69, 107
2, 30168, Note_off_c, 0, 69, 64
2, 30180, Note_on_c, 0, 70, 107
2, 30204, Note_off_c, 0, 63, 64
2, 30228, Note_off_c, 0, 70, 64
2, 30240, Note_on_c, 0, 72, 107
2, 30288, Note_off_c, 0, 72, 64
2, 30300, Note_on_c, 0, 62, 107
2, 30300, Note_on_c, 0, 65, 107
2, 30348, Note_off_c, 0, 65, 64
2, 30360, Note_on_c, 0, 65, 107
2, 30384, Note_off_c, 0, 65, 64
2, 30390, Note_on_c, 0, 67, 107
2, 30396, Note_off_c, 0, 62, 64
2, 30414, Note_off_c, 0, 67, 64
2, 30420, Note_on_c, 0, 69, 107
2, 30444, Note_off_c, 0, 69, 64
2, 30450, Note_on_c, 0, 67, 107
2, 30474, Note_off_c, 0, 67, 64
2, 30480, Note_on_c, 0, 65, 107
2, 30504, Note_off_c, 0, 65, 64
2, 30510, Note_on_c, 0, 67, 107
2, 30534, Note_off_c, 0, 67, 64
2, 30540, Note_on_c, 0, 69, 107
2, 30612, Note_off_c, 0, 69, 64
2, 30630, Note_on_c, 0, 70, 107
2, 30654, Note_off_c, 0, 70, 64
2, 30660, Note_on_c, 0, 72, 107
2, 30672, Note_off_c, 0, 72, 64
2, 30675, Note_on_c, 0, 70, 107
2, 30687, Note_off_c, 0, 70, 64
2, 30690, Note_on_c, 0, 72, 107
2, 30702, Note_off_c, 0, 72, 64
2, 30705, Note_on_c, 0, 70, 107
2, 30717, Note_off_c, 0, 70, 64
2, 30720, Note_on_c, 0, 69, 107
2, 30744, Note_off_c, 0, 69, 64
2, 30750, Note_on_c, 0, 70, 107
2, 30774, Note_off_c, 0, 70, 64
2, 30780, Note_on_c, 0, 72, 107
2, 30812, Note_off_c, 0, 72, 64
2, 30820, Note_on_c, 0, 70, 107
2, 30852, Note_off_c, 0, 70, 64
2, 30860, Note_on_c, 0, 72, 107
2, 30892, Note_off_c, 0, 72, 64
2, 30900, Note_on_c, 0, 74, 107
2, 30932, Note_off_c, 0, 74, 64
2, 30940, Note_on_c, 0, 72, 107
2, 30972, Note_off_c, 0, 72, 64
2, 30980, Note_on_c, 0, 74, 107
2, 31012, Note_off_c, 0, 74, 64
2, 31020, Note_on_c, 0, 76, 107
2, 31052, Note_off_c, 0, 76, 64
2, 31060, Note_on_c, 0, 74, 107
2, 31092, Note_off_c, 0, 74, 64
2, 31100, Note_on_c, 0, 76, 107
2, 31132, Note_off_c, 0, 76, 64
2, 31140, Note_on_c, 0, 77, 107
2, 31172, Note_off_c, 0, 77, 64
2, 31180, Note_on_c, 0, 76, 107
2, 31212, Note_off_c, 0, 76, 64
2, 31220, Note_on_c, 0, 77, 107
2, 31252, Note_off_c, 0, 77, 64
2, 31260, Note_on_c, 0, 79, 107
2, 31292, Note_off_c, 0, 79, 64
2, 31300, Note_on_c, 0, 77, 107
2, 31332, Note_off_c, 0, 77, 64
2, 31340, Note_on_c, 0, 79, 107
2, 31372, Note_off_c, 0, 79, 64
2, 31380, Note_on_c, 0, 81, 107
2, 31380, Note_on_c, 0, 77, 107
2, 31428, Note_off_c, 0, 77, 64
2, 31440, Note_on_c, 0, 72, 107
2, 31488, Note_off_c, 0, 72, 64
2, 31500, Note_on_c, 0, 74, 107
2, 31548, Note_off_c, 0, 81, 64
2, 31560, Note_on_c, 0, 81, 107
2, 31608, Note_off_c, 0, 81, 64
2, 31620, Note_on_c, 0, 79, 107
2, 31668, Note_off_c, 0, 79, 64
2, 31680, Note_on_c, 0, 77, 107
2, 31692, Note_off_c, 0, 74, 64
2, 31728, Note_off_c, 0, 77, 64
2, 31740, Note_on_c, 0, 72, 107
2, 31740, Note_on_c, 0, 76, 107
2, 31788, Note_off_c, 0, 76, 64
2, 31800, Note_on_c, 0, 77, 107
2, 31836, Note_off_c, 0, 72, 64
2, 31848, Note_off_c, 0, 77, 64
2, 31860, Note_on_c, 0, 76, 107
2, 31908, Note_off_c, 0, 76, 64
2, 31920, Note_on_c, 0, 74, 107
2, 31968, Note_off_c, 0, 74, 64
2, 31980, Note_on_c, 0, 72, 107
2, 32124, Note_off_c, 0, 72, 64
2, 32160, Note_on_c, 0, 72, 107
2, 32208, Note_off_c, 0, 72, 64
2, 32220, Note_on_c, 0, 73, 107
2, 32268, Note_off_c, 0, 73, 64
2, 32280, Note_on_c, 0, 72, 107
2, 32328, Note_off_c, 0, 72, 64
2, 32340, Note_on_c, 0, 71, 107
2, 32388, Note_off_c, 0, 71, 64
2, 32400, Note_on_c, 0, 72, 107
2, 32448, Note_off_c, 0, 72, 64
2, 32460, Note_on_c, 0, 65, 107
2, 32508, Note_off_c, 0, 65, 64
2, 32520, Note_on_c, 0, 72, 107
2, 32568, Note_off_c, 0, 72, 64
2, 32580, Note_on_c, 0, 71, 107
2, 32628, Note_off_c, 0, 71, 64
2, 32640, Note_on_c, 0, 72, 107
2, 32688, Note_off_c, 0, 72, 64
2, 32700, Note_on_c, 0, 74, 107
2, 32748, Note_off_c, 0, 74, 64
2, 32760, Note_on_c, 0, 72, 107
2, 32808, Note_off_c, 0, 72, 64
2, 32820, Note_on_c, 0, 71, 107
2, 32868, Note_off_c, 0, 71, 64
2, 32880, Note_on_c, 0, 72, 107
2, 32928, Note_off_c, 0, 72, 64
2, 32940, Note_on_c, 0, 65, 107
2, 32988, Note_off_c, 0, 65, 64
2, 33000, Note_on_c, 0, 68, 107
2, 33048, Note_off_c, 0, 68, 64
2, 33060, Note_on_c, 0, 67, 107
2, 33108, Note_off_c, 0, 67, 64
2, 33120, Note_on_c, 0, 65, 107
2, 33168, Note_off_c, 0, 65, 64
2, 33180, Note_on_c, 0, 70, 107
2, 33228, Note_off_c, 0, 70, 64
2, 33240, Note_on_c, 0, 73, 107
2, 33288, Note_off_c, 0, 73, 64
2, 33300, Note_on_c, 0, 70, 107
2, 33348, Note_off_c, 0, 70, 64
2, 33360, Note_on_c, 0, 67, 107
2, 33408, Note_off_c, 0, 67, 64
2, 33420, Note_on_c, 0, 64, 107
2, 33468, Note_off_c, 0, 64, 64
2, 33480, Note_on_c, 0, 67, 107
2, 33528, Note_off_c, 0, 67, 64
2, 33540, Note_on_c, 0, 72, 107
2, 33588, Note_off_c, 0, 72, 64
2, 33600, Note_on_c, 0, 70, 107
2, 33648, Note_off_c, 0, 70, 64
2, 33660, Note_on_c, 0, 69, 107
2, 33708, Note_off_c, 0, 69, 64
2, 33720, Note_on_c, 0, 72, 107
2, 33768, Note_off_c, 0, 72, 64
2, 33780, Note_on_c, 0, 77, 107
2, 33828, Note_off_c, 0, 77, 64
2, 33840, Note_on_c, 0, 69, 107
2, 33888, Note_off_c, 0, 69, 64
2, 33900, Note_on_c, 0, 67, 107
2, 33900, Note_on_c, 0, 67, 107
2, 33948, Note_off_c, 0, 67, 64
2, 33960, Note_on_c, 0, 77, 107
2, 34008, Note_off_c, 0, 77, 64
2, 34020, Note_off_c, 0, 67, 64
2, 34020, Note_on_c, 0, 70, 107
2, 34020, Note_on_c, 0, 70, 107
2, 34068, Note_off_c, 0, 70, 64
2, 34080, Note_on_c, 0, 76, 107
2, 34128, Note_off_c, 0, 76, 64
2, 34140, Note_off_c, 0, 70, 64
2, 34140, Note_on_c, 0, 77, 107
2, 34140, Note_on_c, 0, 72, 107
2, 34140, Note_on_c, 0, 69, 107
2, 34428, Note_off_c, 0, 69, 64
2, 34428, Note_off_c, 0, 72, 64
2, 34428, Note_off_c, 0, 77, 64
2, 34560, Note_on_c, 0, 79, 107
2, 34608, Note_off_c, 0, 79, 64
2, 34620, Note_on_c, 0, 72, 107
2, 34620, Note_on_c, 0, 79, 107
2, 34620, Note_on_c, 0, 76, 107
2, 34812, Note_off_c, 0, 76, 64
2, 34812, Note_off_c, 0, 79, 64
2, 34812, Note_off_c, 0, 72, 64
2, 34920, Note_on_c, 0, 67, 107
2, 34968, Note_off_c, 0, 67, 64
2, 34980, Note_on_c, 0, 69, 107
2, 35028, Note_off_c, 0, 69, 64
2, 35040, Note_on_c, 0, 71, 107
2, 35088, Note_off_c, 0, 71, 64
2, 35100, Note_on_c, 0, 72, 107
2, 35196, Note_off_c, 0, 72, 64
2, 35220, Note_on_c, 0, 67, 107
2, 35316, Note_off_c, 0, 67, 64
2, 35340, Note_on_c, 0, 76, 107
2, 35436, Note_off_c, 0, 76, 64
2, 35460, Note_on_c, 0, 72, 107
2, 35556, Note_off_c, 0, 72, 64
2, 35580, Note_on_c, 0, 79, 107
2, 35612, Note_off_c, 0, 79, 64
2, 35620, Note_on_c, 0, 77, 107
2, 35652, Note_off_c, 0, 77, 64
2, 35660, Note_on_c, 0, 76, 107
2, 35692, Note_off_c, 0, 76, 64
2, 35700, Note_on_c, 0, 79, 107
2, 35732, Note_off_c, 0, 79, 64
2, 35740, Note_on_c, 0, 77, 107
2, 35772, Note_off_c, 0, 77, 64
2, 35780, Note_on_c, 0, 76, 107
2, 35812, Note_off_c, 0, 76, 64
2, 35820, Note_on_c, 0, 84, 107
2, 35868, Note_off_c, 0, 84, 64
2, 35880, Note_on_c, 0, 79, 107
2, 35928, Note_off_c, 0, 79, 64
2, 35940, Note_on_c, 0, 79, 107
2, 35955, Note_off_c, 0, 79, 64
2, 35955, Note_on_c, 0, 77, 107
2, 35970, Note_off_c, 0, 77, 64
2, 35970, Note_on_c, 0, 79, 107
2, 35985, Note_off_c, 0, 79, 64
2, 35985, Note_on_c, 0, 77, 107
2, 36000, Note_off_c, 0, 77, 64
2, 36000, Note_on_c, 0, 76, 107
2, 36048, Note_off_c, 0, 76, 64
2, 36060, Note_on_c, 0, 81, 107
2, 36092, Note_off_c, 0, 81, 64
2, 36100, Note_on_c, 0, 79, 107
2, 36132, Note_off_c, 0, 79, 64
2, 36140, Note_on_c, 0, 77, 107
2, 36172, Note_off_c, 0, 77, 64
2, 36180, Note_on_c, 0, 77, 107
2, 36212, Note_off_c, 0, 77, 64
2, 36220, Note_on_c, 0, 76, 107
2, 36252, Note_off_c, 0, 76, 64
2, 36260, Note_on_c, 0, 74, 107
2, 36292, Note_off_c, 0, 74, 64
2, 36300, Note_on_c, 0, 83, 107
2, 36348, Note_off_c, 0, 83, 64
2, 36360, Note_on_c, 0, 77, 107
2, 36408, Note_off_c, 0, 77, 64
2, 36420, Note_on_c, 0, 77, 107
2, 36432, Note_off_c, 0, 77, 64
2, 36435, Note_on_c, 0, 76, 107
2, 36447, Note_off_c, 0, 76, 64
2, 36450, Note_on_c, 0, 77, 107
2, 36462, Note_off_c, 0, 77, 64
2, 36465, Note_on_c, 0, 76, 107
2, 36477, Note_off_c, 0, 76, 64
2, 36480, Note_on_c, 0, 74, 107
2, 36528, Note_off_c, 0, 74, 64
2, 36540, Note_on_c, 0, 72, 107
2, 36636, Note_off_c, 0, 72, 64
2, 36660, Note_on_c, 0, 79, 107
2, 36756, Note_off_c, 0, 79, 64
2, 36780, Note_on_c, 0, 79, 107
2, 36924, Note_off_c, 0, 79, 64
2, 36930, Note_on_c, 0, 82, 107
2, 36954, Note_off_c, 0, 82, 64
2, 36960, Note_on_c, 0, 81, 107
2, 36984, Note_off_c, 0, 81, 64
2, 36990, Note_on_c, 0, 79, 107
2, 37014, Note_off_c, 0, 79, 64
2, 37020, Note_on_c, 0, 77, 107
2, 37116, Note_off_c, 0, 77, 64
2, 37140, Note_on_c, 0, 77, 107
2, 37236, Note_off_c, 0, 77, 64
2, 37260, Note_on_c, 0, 77, 107
2, 37404, Note_off_c, 0, 77, 64
2, 37410, Note_on_c, 0, 81, 107
2, 37434, Note_off_c, 0, 81, 64
2, 37440, Note_on_c, 0, 79, 107
2, 37464, Note_off_c, 0, 79, 64
2, 37470, Note_on_c, 0, 77, 107
2, 37494, Note_off_c, 0, 77, 64
2, 37500, Note_on_c, 0, 76, 107
2, 37548, Note_off_c, 0, 76, 64
2, 37560, Note_on_c, 0, 74, 107
2, 37608, Note_off_c, 0, 74, 64
2, 37620, Note_on_c, 0, 76, 107
2, 37668, Note_off_c, 0, 76, 64
2, 37680, Note_on_c, 0, 77, 107
2, 37728, Note_off_c, 0, 77, 64
2, 37740, Note_on_c, 0, 76, 107
2, 37788, Note_off_c, 0, 76, 64
2, 37800, Note_on_c, 0, 79, 107
2, 37848, Note_off_c, 0, 79, 64
2, 37860, Note_on_c, 0, 78, 107
2, 37908, Note_off_c, 0, 78, 64
2, 37920, Note_on_c, 0, 76, 107
2, 37968, Note_off_c, 0, 76, 64
2, 37980, Note_on_c, 0, 78, 107
2, 38076, Note_off_c, 0, 78, 64
2, 38100, Note_on_c, 0, 74, 107
2, 38196, Note_off_c, 0, 74, 64
2, 38220, Note_on_c, 0, 79, 107
2, 38508, Note_off_c, 0, 79, 64
2, 38520, Note_on_c, 0, 76, 107
2, 38520, Note_on_c, 0, 67, 107
2, 38568, Note_off_c, 0, 67, 64
2, 38568, Note_off_c, 0, 76, 64
2, 38580, Note_on_c, 0, 77, 107
2, 38580, Note_on_c, 0, 69, 107
2, 38628, Note_off_c, 0, 69, 64
2, 38628, Note_off_c, 0, 77, 64
2, 38640, Note_on_c, 0, 70, 107
2, 38640, Note_on_c, 0, 79, 107
2, 38688, Note_off_c, 0, 79, 64
2, 38688, Note_off_c, 0, 70, 64
2, 38700, Note_on_c, 0, 77, 107
2, 38700, Note_on_c, 0, 69, 107
2, 38748, Note_off_c, 0, 69, 64
2, 38748, Note_off_c, 0, 77, 64
2, 38760, Note_on_c, 0, 81, 107
2, 38760, Note_on_c, 0, 72, 107
2, 38808, Note_off_c, 0, 72, 64
2, 38808, Note_off_c, 0, 81, 64
2, 38820, Note_on_c, 0, 70, 107
2, 38820, Note_on_c, 0, 79, 107
2, 38868, Note_off_c, 0, 79, 64
2, 38868, Note_off_c, 0, 70, 64
2, 38880, Note_on_c, 0, 69, 107
2, 38880, Note_on_c, 0, 77, 107
2, 38928, Note_off_c, 0, 77, 64
2, 38928, Note_off_c, 0, 69, 64
2, 38940, Note_on_c, 0, 67, 107
2, 38940, Note_on_c, 0, 76, 107
2, 38988, Note_off_c, 0, 76, 64
2, 38988, Note_off_c, 0, 67, 64
2, 39000, Note_on_c, 0, 65, 107
2, 39000, Note_on_c, 0, 74, 107
2, 39048, Note_off_c, 0, 74, 64
2, 39048, Note_off_c, 0, 65, 64
2, 39060, Note_on_c, 0, 76, 107
2, 39060, Note_on_c, 0, 67, 107
2, 39108, Note_off_c, 0, 67, 64
2, 39108, Note_off_c, 0, 76, 64
2, 39120, Note_on_c, 0, 77, 107
2, 39120, Note_on_c, 0, 69, 107
2, 39168, Note_off_c, 0, 69, 64
2, 39168, Note_off_c, 0, 77, 64
2, 39180, Note_on_c, 0, 76, 107
2, 39180, Note_on_c, 0, 67, 107
2, 39228, Note_off_c, 0, 67, 64
2, 39228, Note_off_c, 0, 76, 64
2, 39240, Note_on_c, 0, 70, 107
2, 39240, Note_on_c, 0, 79, 107
2, 39288, Note_off_c, 0, 79, 64
2, 39288, Note_off_c, 0, 70, 64
2, 39300, Note_on_c, 0, 69, 107
2, 39300, Note_on_c, 0, 77, 107
2, 39348, Note_off_c, 0, 77, 64
2, 39348, Note_off_c, 0, 69, 64
2, 39360, Note_on_c, 0, 76, 107
2, 39360, Note_on_c, 0, 67, 107
2, 39408, Note_off_c, 0, 67, 64
2, 39408, Note_off_c, 0, 76, 64
2, 39420, Note_on_c, 0, 74, 107
2, 39420, Note_on_c, 0, 65, 107
2, 39564, Note_off_c, 0, 65, 64
2, 39564, Note_off_c, 0, 74, 64
2, 39600, Note_on_c, 0, 76, 107
2, 39600, Note_on_c, 0, 67, 107
2, 39648, Note_off_c, 0, 67, 64
2, 39648, Note_off_c, 0, 76, 64
2, 39660, Note_on_c, 0, 64, 107
2, 39660, Note_on_c, 0, 73, 107
2, 39804, Note_off_c, 0, 73, 64
2, 39840, Note_on_c, 0, 74, 107
2, 39852, Note_off_c, 0, 64, 64
2, 39888, Note_off_c, 0, 74, 64
2, 39900, Note_on_c, 0, 65, 107
2, 39900, Note_on_c, 0, 74, 107
2, 39996, Note_off_c, 0, 74, 64
2, 40020, Note_on_c, 0, 69, 107
2, 40044, Note_off_c, 0, 69, 64
2, 40050, Note_on_c, 0, 70, 107
2, 40074, Note_off_c, 0, 70, 64
2, 40080, Note_on_c, 0, 69, 107
2, 40104, Note_off_c, 0, 69, 64
2, 40110, Note_on_c, 0, 70, 107
2, 40134, Note_off_c, 0, 70, 64
2, 40140, Note_on_c, 0, 72, 105
2, 40152, Note_off_c, 0, 72, 64
2, 40155, Note_on_c, 0, 70, 105
2, 40167, Note_off_c, 0, 70, 64
2, 40170, Note_on_c, 0, 72, 105
2, 40182, Note_off_c, 0, 72, 64
2, 40185, Note_on_c, 0, 70, 105
2, 40197, Note_off_c, 0, 70, 64
2, 40200, Note_on_c, 0, 72, 105
2, 40212, Note_off_c, 0, 72, 64
2, 40215, Note_on_c, 0, 70, 105
2, 40227, Note_off_c, 0, 70, 64
2, 40230, Note_on_c, 0, 72, 107
2, 40245, Note_off_c, 0, 72, 64
2, 40245, Note_on_c, 0, 70, 107
2, 40260, Note_off_c, 0, 70, 64
2, 40260, Note_on_c, 0, 72, 107
2, 40275, Note_off_c, 0, 72, 64
2, 40275, Note_on_c, 0, 70, 107
2, 40290, Note_off_c, 0, 70, 64
2, 40290, Note_on_c, 0, 72, 107
2, 40305, Note_off_c, 0, 72, 64
2, 40305, Note_on_c, 0, 70, 107
2, 40320, Note_off_c, 0, 70, 64
2, 40320, Note_on_c, 0, 69, 107
2, 40344, Note_off_c, 0, 69, 64
2, 40350, Note_on_c, 0, 70, 107
2, 40374, Note_off_c, 0, 70, 64
2, 40380, Note_on_c, 0, 72, 107
2, 40428, Note_off_c, 0, 72, 64
2, 40440, Note_on_c, 0, 75, 107
2, 40488, Note_off_c, 0, 75, 64
2, 40500, Note_on_c, 0, 74, 107
2, 40548, Note_off_c, 0, 74, 64
2, 40560, Note_on_c, 0, 72, 107
2, 40608, Note_off_c, 0, 72, 64
2, 40620, Note_on_c, 0, 74, 107
2, 40668, Note_off_c, 0, 74, 64
2, 40680, Note_on_c, 0, 70, 107
2, 40728, Note_off_c, 0, 70, 64
2, 40740, Note_on_c, 0, 72, 107
2, 40764, Note_off_c, 0, 65, 64
2, 40788, Note_off_c, 0, 72, 64
2, 40800, Note_on_c, 0, 74, 107
2, 40848, Note_off_c, 0, 74, 64
2, 40860, Note_on_c, 0, 64, 107
2, 40860, Note_on_c, 0, 67, 107
2, 41004, Note_off_c, 0, 67, 64
2, 41010, Note_on_c, 0, 69, 107
2, 41034, Note_off_c, 0, 69, 64
2, 41040, Note_on_c, 0, 67, 107
2, 41064, Note_off_c, 0, 67, 64
2, 41070, Note_on_c, 0, 69, 107
2, 41094, Note_off_c, 0, 69, 64
2, 41100, Note_on_c, 0, 70, 105
2, 41112, Note_off_c, 0, 70, 64
2, 41115, Note_on_c, 0, 69, 105
2, 41127, Note_off_c, 0, 69, 64
2, 41130, Note_on_c, 0, 70, 105
2, 41142, Note_off_c, 0, 70, 64
2, 41145, Note_on_c, 0, 69, 105
2, 41157, Note_off_c, 0, 69, 64
2, 41160, Note_on_c, 0, 70, 105
2, 41172, Note_off_c, 0, 70, 64
2, 41175, Note_on_c, 0, 69, 105
2, 41187, Note_off_c, 0, 69, 64
2, 41190, Note_on_c, 0, 70, 107
2, 41205, Note_off_c, 0, 70, 64
2, 41205, Note_on_c, 0, 69, 107
2, 41220, Note_off_c, 0, 69, 64
2, 41220, Note_on_c, 0, 70, 107
2, 41235, Note_off_c, 0, 70, 64
2, 41235, Note_on_c, 0, 69, 107
2, 41244, Note_off_c, 0, 64, 64
2, 41250, Note_off_c, 0, 69, 64
2, 41250, Note_on_c, 0, 70, 107
2, 41265, Note_off_c, 0, 70, 64
2, 41265, Note_on_c, 0, 69, 107
2, 41280, Note_off_c, 0, 69, 64
2, 41280, Note_on_c, 0, 67, 107
2, 41304, Note_off_c, 0, 67, 64
2, 41310, Note_on_c, 0, 69, 107
2, 41334, Note_off_c, 0, 69, 64
2, 41340, Note_on_c, 0, 70, 107
2, 41340, Note_on_c, 0, 63, 107
2, 41388, Note_off_c, 0, 70, 64
2, 41400, Note_on_c, 0, 74, 107
2, 41448, Note_off_c, 0, 74, 64
2, 41460, Note_on_c, 0, 72, 107
2, 41508, Note_off_c, 0, 72, 64
2, 41520, Note_on_c, 0, 70, 107
2, 41568, Note_off_c, 0, 70, 64
2, 41580, Note_on_c, 0, 72, 107
2, 41628, Note_off_c, 0, 72, 64
2, 41640, Note_on_c, 0, 69, 107
2, 41688, Note_off_c, 0, 69, 64
2, 41700, Note_on_c, 0, 70, 107
2, 41724, Note_off_c, 0, 63, 64
2, 41748, Note_off_c, 0, 70, 64
2, 41760, Note_on_c, 0, 72, 107
2, 41808, Note_off_c, 0, 72, 64
2, 41820, Note_on_c, 0, 62, 107
2, 41820, Note_on_c, 0, 65, 107
2, 41868, Note_off_c, 0, 65, 64
2, 41880, Note_on_c, 0, 65, 107
2, 41904, Note_off_c, 0, 65, 64
2, 41910, Note_on_c, 0, 67, 107
2, 41916, Note_off_c, 0, 62, 64
2, 41934, Note_off_c, 0, 67, 64
2, 41940, Note_on_c, 0, 69, 107
2, 41964, Note_off_c, 0, 69, 64
2, 41970, Note_on_c, 0, 67, 107
2, 41994, Note_off_c, 0, 67, 64
2, 42000, Note_on_c, 0, 65, 107
2, 42024, Note_off_c, 0, 65, 64
2, 42030, Note_on_c, 0, 67, 107
2, 42054, Note_off_c, 0, 67, 64
2, 42060, Note_on_c, 0, 69, 107
2, 42132, Note_off_c, 0, 69, 64
2, 42150, Note_on_c, 0, 70, 107
2, 42174, Note_off_c, 0, 70, 64
2, 42180, Note_on_c, 0, 72, 107
2, 42192, Note_off_c, 0, 72, 64
2, 42195, Note_on_c, 0, 70, 107
2, 42207, Note_off_c, 0, 70, 64
2, 42210, Note_on_c, 0, 72, 107
2, 42222, Note_off_c, 0, 72, 64
2, 42225, Note_on_c, 0, 70, 107
2, 42237, Note_off_c, 0, 70, 64
2, 42240, Note_on_c, 0, 69, 107
2, 42264, Note_off_c, 0, 69, 64
2, 42270, Note_on_c, 0, 70, 107
2, 42294, Note_off_c, 0, 70, 64
2, 42300, Note_on_c, 0, 72, 107
2, 42332, Note_off_c, 0, 72, 64
2, 42340, Note_on_c, 0, 70, 107
2, 42372, Note_off_c, 0, 70, 64
2, 42380, Note_on_c, 0, 72, 107
2, 42412, Note_off_c, 0, 72, 64
2, 42420, Note_on_c, 0, 74, 107
2, 42452, Note_off_c, 0, 74, 64
2, 42460, Note_on_c, 0, 72, 107
2, 42492, Note_off_c, 0, 72, 64
2, 42500, Note_on_c, 0, 74, 107
2, 42532, Note_off_c, 0, 74, 64
2, 42540, Note_on_c, 0, 76, 107
2, 42572, Note_off_c, 0, 76, 64
2, 42580, Note_on_c, 0, 74, 107
2, 42612, Note_off_c, 0, 74, 64
2, 42620, Note_on_c, 0, 76, 107
2, 42652, Note_off_c, 0, 76, 64
2, 42660, Note_on_c, 0, 77, 107
2, 42692, Note_off_c, 0, 77, 64
2, 42700, Note_on_c, 0, 76, 107
2, 42732, Note_off_c, 0, 76, 64
2, 42740, Note_on_c, 0, 77, 107
2, 42772, Note_off_c, 0, 77, 64
2, 42780, Note_on_c, 0, 79, 107
2, 42812, Note_off_c, 0, 79, 64
2, 42820, Note_on_c, 0, 77, 107
2, 42852, Note_off_c, 0, 77, 64
2, 42860, Note_on_c, 0, 79, 107
2, 42892, Note_off_c, 0, 79, 64
2, 42900, Note_on_c, 0, 81, 107
2, 42900, Note_on_c, 0, 77, 107
2, 42948, Note_off_c, 0, 77, 64
2, 42960, Note_on_c, 0, 72, 107
2, 43008, Note_off_c, 0, 72, 64
2, 43020, Note_on_c, 0, 74, 107
2, 43068, Note_off_c, 0, 81, 64
2, 43080, Note_on_c, 0, 81, 107
2, 43128, Note_off_c, 0, 81, 64
2, 43140, Note_on_c, 0, 79, 107
2, 43188, Note_off_c, 0, 79, 64
2, 43200, Note_on_c, 0, 77, 107
2, 43212, Note_off_c, 0, 74, 64
2, 43248, Note_off_c, 0, 77, 64
2, 43260, Note_on_c, 0, 72, 107
2, 43260, Note_on_c, 0, 76, 107
2, 43308, Note_off_c, 0, 76, 64
2, 43320, Note_on_c, 0, 77, 107
2, 43356, Note_off_c, 0, 72, 64
2, 43368, Note_off_c, 0, 77, 64
2, 43380, Note_on_c, 0, 76, 107
2, 43428, Note_off_c, 0, 76, 64
2, 43440, Note_on_c, 0, 74, 107
2, 43488, Note_off_c, 0, 74, 64
2, 43500, Note_on_c, 0, 72, 107
2, 43644, Note_off_c, 0, 72, 64
2, 43680, Note_on_c, 0, 72, 107
2, 43728, Note_off_c, 0, 72, 64
2, 43740, Note_on_c, 0, 73, 107
2, 43788, Note_off_c, 0, 73, 64
2, 43800, Note_on_c, 0, 72, 107
2, 43848, Note_off_c, 0, 72, 64
2, 43860, Note_on_c, 0, 71, 107
2, 43908, Note_off_c, 0, 71, 64
2, 43920, Note_on_c, 0, 72, 107
2, 43968, Note_off_c, 0, 72, 64
2, 43980, Note_on_c, 0, 65, 107
2, 44028, Note_off_c, 0, 65, 64
2, 44040, Note_on_c, 0, 72, 107
2, 44088, Note_off_c, 0, 72, 64
2, 44100, Note_on_c, 0, 71, 107
2, 44148, Note_off_c, 0, 71, 64
2, 44160, Note_on_c, 0, 72, 107
2, 44208, Note_off_c, 0, 72, 64
2, 44220, Note_on_c, 0, 74, 107
2, 44268, Note_off_c, 0, 74, 64
2, 44280, Note_on_c, 0, 72, 107
2, 44328, Note_off_c, 0, 72, 64
2, 44340, Note_on_c, 0, 71, 107
2, 44388, Note_off_c, 0, 71, 64
2, 44400, Note_on_c, 0, 72, 107
2, 44448, Note_off_c, 0, 72, 64
2, 44460, Note_on_c, 0, 65, 107
2, 44508, Note_off_c, 0, 65, 64
2, 44520, Note_on_c, 0, 68, 107
2, 44568, Note_off_c, 0, 68, 64
2, 44580, Note_on_c, 0, 67, 107
2, 44628, Note_off_c, 0, 67, 64
2, 44640, Note_on_c, 0, 65, 107
2, 44688, Note_off_c, 0, 65, 64
2, 44700, Note_on_c, 0, 70, 107
2, 44748, Note_off_c, 0, 70, 64
2, 44760, Note_on_c, 0, 73, 107
2, 44808, Note_off_c, 0, 73, 64
2, 44820, Note_on_c, 0, 70, 107
2, 44868, Note_off_c, 0, 70, 64
2, 44880, Note_on_c, 0, 67, 107
2, 44928, Note_off_c, 0, 67, 64
2, 44940, Note_on_c, 0, 64, 107
2, 44988, Note_off_c, 0, 64, 64
2, 45000, Note_on_c, 0, 67, 107
2, 45048, Note_off_c, 0, 67, 64
2, 45060, Note_on_c, 0, 72, 107
2, 45108, Note_off_c, 0, 72, 64
2, 45120, Note_on_c, 0, 70, 107
2, 45168, Note_off_c, 0, 70, 64
2, 45180, Note_on_c, 0, 69, 107
2, 45228, Note_off_c, 0, 69, 64
2, 45240, Note_on_c, 0, 72, 107
2, 45288, Note_off_c, 0, 72, 64
2, 45300, Note_on_c, 0, 77, 107
2, 45348, Note_off_c, 0, 77, 64
2, 45360, Note_on_c, 0, 69, 107
2, 45408, Note_off_c, 0, 69, 64
2, 45420, Note_on_c, 0, 67, 107
2, 45420, Note_on_c, 0, 67, 107
2, 45468, Note_off_c, 0, 67, 64
2, 45480, Note_on_c, 0, 77, 107
2, 45528, Note_off_c, 0, 77, 64
2, 45540, Note_off_c, 0, 67, 64
2, 45540, Note_on_c, 0, 70, 107
2, 45540, Note_on_c, 0, 70, 107
2, 45588, Note_off_c, 0, 70, 64
2, 45600, Note_on_c, 0, 76, 107
2, 45648, Note_off_c, 0, 76, 64
2, 45660, Note_off_c, 0, 70, 64
2, 45660, Note_on_c, 0, 77, 107
2, 45660, Note_on_c, 0, 72, 107
2, 45660, Note_on_c, 0, 69, 107
2, 45948, Note_off_c, 0, 69, 64
2, 45948, Note_off_c, 0, 72, 64
2, 45948, Note_off_c, 0, 77, 64
2, 45948, End_track
3, 0, Start_track
3, 0, Title_t, "J.S. Bach, Edition Kalmus"
3, 0, Program_c, 1, 0
3, 60, Note_on_c, 1, 53, 107
3, 156, Note_off_c, 1, 53, 64
3, 180, Note_on_c, 1, 41, 107
3, 276, Note_off_c, 1, 41, 64
3, 360, Note_on_c, 1, 65, 107
3, 408, Note_off_c, 1, 65, 64
3, 420, Note_on_c, 1, 64, 107
3, 468, Note_off_c, 1, 64, 64
3, 480, Note_on_c, 1, 62, 107
3, 528, Note_off_c, 1, 62, 64
3, 540, Note_on_c, 1, 60, 107
3, 636, Note_off_c, 1, 60, 64
3, 660, Note_on_c, 1, 65, 107
3, 756, Note_off_c, 1, 65, 64
3, 780, Note_on_c, 1, 57, 107
3, 876, Note_off_c, 1, 57, 64
3, 900, Note_on_c, 1, 60, 107
3, 996, Note_off_c, 1, 60, 64
3, 1020, Note_on_c, 1, 53, 107
3, 1052, Note_off_c, 1, 53, 64
3, 1060, Note_on_c, 1, 55, 107
3, 1092, Note_off_c, 1, 55, 64
3, 1100, Note_on_c, 1, 57, 107
3, 1132, Note_off_c, 1, 57, 64
3, 1140, Note_on_c, 1, 53, 107
3, 1172, Note_off_c, 1, 53, 64
3, 1180, Note_on_c, 1, 55, 107
3, 1212, Note_off_c, 1, 55, 64
3, 1220, Note_on_c, 1, 57, 107
3, 1252, Note_off_c, 1, 57, 64
3, 1260, Note_on_c, 1, 50, 107
3, 1292, Note_off_c, 1, 50, 64
3, 1300, Note_on_c, 1, 52, 107
3, 1332, Note_off_c, 1, 52, 64
3, 1340, Note_on_c, 1, 53, 107
3, 1372, Note_off_c, 1, 53, 64
3, 1380, Note_on_c, 1, 50, 107
3, 1412, Note_off_c, 1, 50, 64
3, 1420, Note_on_c, 1, 52, 107
3, 1452, Note_off_c, 1, 52, 64
3, 1460, Note_on_c, 1, 53, 107
3, 1492, Note_off_c, 1, 53, 64
3, 1500, Note_on_c, 1, 46, 107
3, 1532, Note_off_c, 1, 46, 64
3, 1540, Note_on_c, 1, 48, 107
3, 1572, Note_off_c, 1, 48, 64
3, 1580, Note_on_c, 1, 50, 107
3, 1612, Note_off_c, 1, 50, 64
3, 1620, Note_on_c, 1, 46, 107
3, 1652, Note_off_c, 1, 46, 64
3, 1660, Note_on_c, 1, 48, 107
3, 1692, Note_off_c, 1, 48, 64
3, 1700, Note_on_c, 1, 50, 107
3, 1732, Note_off_c, 1, 50, 64
3, 1740, Note_on_c, 1, 43, 107
3, 1788, Note_off_c, 1, 43, 64
3, 1800, Note_on_c, 1, 48, 107
3, 1848, Note_off_c, 1, 48, 64
3, 1860, Note_on_c, 1, 46, 107
3, 1908, Note_off_c, 1, 46, 64
3, 1920, Note_on_c, 1, 48, 107
3, 1968, Note_off_c, 1, 48, 64
3, 1980, Note_on_c, 1, 41, 107
3, 2076, Note_off_c, 1, 41, 64
3, 2100, Note_on_c, 1, 53, 107
3, 2196, Note_off_c, 1, 53, 64
3, 2220, Note_on_c, 1, 55, 105
3, 2232, Note_off_c, 1, 55, 64
3, 2235, Note_on_c, 1, 53, 105
3, 2247, Note_off_c, 1, 53, 64
3, 2250, Note_on_c, 1, 55, 105
3, 2262, Note_off_c, 1, 55, 64
3, 2265, Note_on_c, 1, 53, 105
3, 2277, Note_off_c, 1, 53, 64
3, 2280, Note_on_c, 1, 55, 105
3, 2292, Note_off_c, 1, 55, 64
3, 2295, Note_on_c, 1, 53, 105
3, 2307, Note_off_c, 1, 53, 64
3, 2310, Note_on_c, 1, 55, 107
3, 2325, Note_off_c, 1, 55, 64
3, 2325, Note_on_c, 1, 53, 107
3, 2340, Note_off_c, 1, 53, 64
3, 2340, Note_on_c, 1, 55, 107
3, 2355, Note_off_c, 1, 55, 64
3, 2355, Note_on_c, 1, 53, 107
3, 2370, Note_off_c, 1, 53, 64
3, 2370, Note_on_c, 1, 55, 107
3, 2385, Note_off_c, 1, 55, 64
3, 2385, Note_on_c, 1, 53, 107
3, 2400, Note_off_c, 1, 53, 64
3, 2400, Note_on_c, 1, 52, 107
3, 2424, Note_off_c, 1, 52, 64
3, 2430, Note_on_c, 1, 53, 107
3, 2454, Note_off_c, 1, 53, 64
3, 2460, Note_on_c, 1, 55, 107
3, 2556, Note_off_c, 1, 55, 64
3, 2580, Note_on_c, 1, 55, 107
3, 2676, Note_off_c, 1, 55, 64
3, 2700, Note_on_c, 1, 57, 105
3, 2715, Note_off_c, 1, 57, 64
3, 2715, Note_on_c, 1, 55, 105
3, 2730, Note_off_c, 1, 55, 64
3, 2730, Note_on_c, 1, 57, 105
3, 2745, Note_off_c, 1, 57, 64
3, 2745, Note_on_c, 1, 55, 105
3, 2760, Note_off_c, 1, 55, 64
3, 2760, Note_on_c, 1, 57, 105
3, 2775, Note_off_c, 1, 57, 64
3, 2775, Note_on_c, 1, 55, 105
3, 2790, Note_off_c, 1, 55, 64
3, 2790, Note_on_c, 1, 57, 107
3, 2805, Note_off_c, 1, 57, 64
3, 2805, Note_on_c, 1, 55, 107
3, 2820, Note_off_c, 1, 55, 64
3, 2820, Note_on_c, 1, 57, 107
3, 2835, Note_off_c, 1, 57, 64
3, 2835, Note_on_c, 1, 55, 107
3, 2850, Note_off_c, 1, 55, 64
3, 2850, Note_on_c, 1, 57, 107
3, 2865, Note_off_c, 1, 57, 64
3, 2865, Note_on_c, 1, 55, 107
3, 2880, Note_off_c, 1, 55, 64
3, 2880, Note_on_c, 1, 53, 107
3, 2895, Note_off_c, 1, 53, 64
3, 2895, Note_on_c, 1, 55, 107
3, 2919, Note_off_c, 1, 55, 64
3, 2940, Note_on_c, 1, 57, 107
3, 3132, Note_off_c, 1, 57, 64
3, 3300, Note_on_c, 1, 57, 107
3, 3396, Note_off_c, 1, 57, 64
3, 3420, Note_on_c, 1, 62, 107
3, 3420, Note_on_c, 1, 58, 107
3, 3612, Note_off_c, 1, 58, 64
3, 3612, Note_off_c, 1, 62, 64
3, 3780, Note_on_c, 1, 62, 107
3, 3780, Note_on_c, 1, 58, 107
3, 3876, Note_off_c, 1, 58, 64
3, 3876, Note_off_c, 1, 62, 64
3, 3900, Note_on_c, 1, 58, 107
3, 3900, Note_on_c, 1, 60, 107
3, 4092, Note_off_c, 1, 60, 64
3, 4200, Note_on_c, 1, 60, 107
3, 4248, Note_off_c, 1, 60, 64
3, 4260, Note_on_c, 1, 62, 107
3, 4284, Note_off_c, 1, 58, 64
3, 4308, Note_off_c, 1, 62, 64
3, 4320, Note_on_c, 1, 64, 107
3, 4368, Note_off_c, 1, 64, 64
3, 4380, Note_on_c, 1, 57, 107
3, 4380, Note_on_c, 1, 65, 107
3, 4476, Note_off_c, 1, 57, 64
3, 4500, Note_on_c, 1, 62, 107
3, 4596, Note_off_c, 1, 62, 64
3, 4620, Note_on_c, 1, 55, 107
3, 4668, Note_off_c, 1, 65, 64
3, 4716, Note_off_c, 1, 55, 64
3, 4740, Note_on_c, 1, 64, 107
3, 4740, Note_on_c, 1, 60, 107
3, 4836, Note_off_c, 1, 60, 64
3, 4836, Note_off_c, 1, 64, 64
3, 4860, Note_on_c, 1, 53, 107
3, 4956, Note_off_c, 1, 53, 64
3, 4980, Note_on_c, 1, 52, 107
3, 5076, Note_off_c, 1, 52, 64
3, 5100, Note_on_c, 1, 50, 107
3, 5196, Note_off_c, 1, 50, 64
3, 5220, Note_on_c, 1, 48, 107
3, 5316, Note_off_c, 1, 48, 64
3, 5340, Note_on_c, 1, 47, 107
3, 5388, Note_off_c, 1, 47, 64
3, 5400, Note_on_c, 1, 50, 107
3, 5448, Note_off_c, 1, 50, 64
3, 5460, Note_on_c, 1, 52, 107
3, 5508, Note_off_c, 1, 52, 64
3, 5520, Note_on_c, 1, 53, 107
3, 5568, Note_off_c, 1, 53, 64
3, 5580, Note_on_c, 1, 55, 107
3, 5676, Note_off_c, 1, 55, 64
3, 5700, Note_on_c, 1, 43, 107
3, 5796, Note_off_c, 1, 43, 64
3, 5820, Note_on_c, 1, 48, 107
3, 5852, Note_off_c, 1, 48, 64
3, 5860, Note_on_c, 1, 50, 107
3, 5892, Note_off_c, 1, 50, 64
3, 5900, Note_on_c, 1, 52, 107
3, 5932, Note_off_c, 1, 52, 64
3, 5940, Note_on_c, 1, 48, 107
3, 5972, Note_off_c, 1, 48, 64
3, 5980, Note_on_c, 1, 50, 107
3, 6012, Note_off_c, 1, 50, 64
3, 6020, Note_on_c, 1, 52, 107
3, 6052, Note_off_c, 1, 52, 64
3, 6060, Note_on_c, 1, 45, 107
3, 6092, Note_off_c, 1, 45, 64
3, 6100, Note_on_c, 1, 47, 107
3, 6132, Note_off_c, 1, 47, 64
3, 6140, Note_on_c, 1, 48, 107
3, 6172, Note_off_c, 1, 48, 64
3, 6180, Note_on_c, 1, 45, 107
3, 6212, Note_off_c, 1, 45, 64
3, 6220, Note_on_c, 1, 47, 107
3, 6252, Note_off_c, 1, 47, 64
3, 6260, Note_on_c, 1, 48, 107
3, 6292, Note_off_c, 1, 48, 64
3, 6300, Note_on_c, 1, 41, 107
3, 6396, Note_off_c, 1, 41, 64
3, 6420, Note_on_c, 1, 57, 107
3, 6516, Note_off_c, 1, 57, 64
3, 6540, Note_on_c, 1, 50, 107
3, 6636, Note_off_c, 1, 50, 64
3, 6660, Note_on_c, 1, 53, 107
3, 6756, Note_off_c, 1, 53, 64
3, 6780, Note_on_c, 1, 47, 107
3, 6812, Note_off_c, 1, 47, 64
3, 6820, Note_on_c, 1, 48, 107
3, 6852, Note_off_c, 1, 48, 64
3, 6860, Note_on_c, 1, 50, 107
3, 6892, Note_off_c, 1, 50, 64
3, 6900, Note_on_c, 1, 47, 107
3, 6932, Note_off_c, 1, 47, 64
3, 6940, Note_on_c, 1, 48, 107
3, 6972, Note_off_c, 1, 48, 64
3, 6980, Note_on_c, 1, 50, 107
3, 7012, Note_off_c, 1, 50, 64
3, 7020, Note_on_c, 1, 43, 107
3, 7052, Note_off_c, 1, 43, 64
3, 7060, Note_on_c, 1, 45, 107
3, 7092, Note_off_c, 1, 45, 64
3, 7100, Note_on_c, 1, 47, 107
3, 7132, Note_off_c, 1, 47, 64
3, 7140, Note_on_c, 1, 43, 107
3, 7172, Note_off_c, 1, 43, 64
3, 7180, Note_on_c, 1, 45, 107
3, 7212, Note_off_c, 1, 45, 64
3, 7220, Note_on_c, 1, 47, 107
3, 7252, Note_off_c, 1, 47, 64
3, 7260, Note_on_c, 1, 40, 107
3, 7356, Note_off_c, 1, 40, 64
3, 7380, Note_on_c, 1, 55, 107
3, 7476, Note_off_c, 1, 55, 64
3, 7500, Note_on_c, 1, 48, 107
3, 7596, Note_off_c, 1, 48, 64
3, 7620, Note_on_c, 1, 52, 107
3, 7716, Note_off_c, 1, 52, 64
3, 7740, Note_on_c, 1, 45, 107
3, 7772, Note_off_c, 1, 45, 64
3, 7780, Note_on_c, 1, 47, 107
3, 7812, Note_off_c, 1, 47, 64
3, 7820, Note_on_c, 1, 48, 107
3, 7852, Note_off_c, 1, 48, 64
3, 7860, Note_on_c, 1, 45, 107
3, 7892, Note_off_c, 1, 45, 64
3, 7900, Note_on_c, 1, 47, 107
3, 7932, Note_off_c, 1, 47, 64
3, 7940, Note_on_c, 1, 48, 107
3, 7972, Note_off_c, 1, 48, 64
3, 7980, Note_on_c, 1, 42, 107
3, 8012, Note_off_c, 1, 42, 64
3, 8020, Note_on_c, 1, 43, 107
3, 8052, Note_off_c, 1, 43, 64
3, 8060, Note_on_c, 1, 45, 107
3, 8092, Note_off_c, 1, 45, 64
3, 8100, Note_on_c, 1, 42, 107
3, 8132, Note_off_c, 1, 42, 64
3, 8140, Note_on_c, 1, 43, 107
3, 8172, Note_off_c, 1, 43, 64
3, 8180, Note_on_c, 1, 45, 107
3, 8212, Note_off_c, 1, 45, 64
3, 8220, Note_on_c, 1, 38, 107
3, 8316, Note_off_c, 1, 38, 64
3, 8340, Note_on_c, 1, 45, 107
3, 8436, Note_off_c, 1, 45, 64
3, 8460, Note_on_c, 1, 42, 107
3, 8556, Note_off_c, 1, 42, 64
3, 8580, Note_on_c, 1, 38, 107
3, 8676, Note_off_c, 1, 38, 64
3, 8700, Note_on_c, 1, 43, 107
3, 8892, Note_off_c, 1, 43, 64
3, 9060, Note_on_c, 1, 55, 107
3, 9156, Note_off_c, 1, 55, 64
3, 9180, Note_on_c, 1, 56, 107
3, 9228, Note_off_c, 1, 56, 64
3, 9240, Note_on_c, 1, 55, 107
3, 9288, Note_off_c, 1, 55, 64
3, 9300, Note_on_c, 1, 54, 107
3, 9348, Note_off_c, 1, 54, 64
3, 9360, Note_on_c, 1, 55, 107
3, 9408, Note_off_c, 1, 55, 64
3, 9420, Note_on_c, 1, 48, 107
3, 9468, Note_off_c, 1, 48, 64
3, 9480, Note_on_c, 1, 55, 107
3, 9528, Note_off_c, 1, 55, 64
3, 9540, Note_on_c, 1, 54, 107
3, 9588, Note_off_c, 1, 54, 64
3, 9600, Note_on_c, 1, 55, 107
3, 9648, Note_off_c, 1, 55, 64
3, 9660, Note_on_c, 1, 57, 107
3, 9708, Note_off_c, 1, 57, 64
3, 9720, Note_on_c, 1, 55, 107
3, 9768, Note_off_c, 1, 55, 64
3, 9780, Note_on_c, 1, 54, 107
3, 9828, Note_off_c, 1, 54, 64
3, 9840, Note_on_c, 1, 55, 107
3, 9888, Note_off_c, 1, 55, 64
3, 9900, Note_on_c, 1, 48, 107
3, 9948, Note_off_c, 1, 48, 64
3, 9960, Note_on_c, 1, 51, 107
3, 10008, Note_off_c, 1, 51, 64
3, 10020, Note_on_c, 1, 50, 107
3, 10068, Note_off_c, 1, 50, 64
3, 10080, Note_on_c, 1, 48, 107
3, 10128, Note_off_c, 1, 48, 64
3, 10140, Note_on_c, 1, 53, 107
3, 10428, Note_off_c, 1, 53, 64
3, 10440, Note_on_c, 1, 53, 107
3, 10488, Note_off_c, 1, 53, 64
3, 10500, Note_on_c, 1, 52, 107
3, 10548, Note_off_c, 1, 52, 64
3, 10560, Note_on_c, 1, 50, 107
3, 10608, Note_off_c, 1, 50, 64
3, 10620, Note_on_c, 1, 48, 107
3, 10668, Note_off_c, 1, 48, 64
3, 10680, Note_on_c, 1, 52, 107
3, 10728, Note_off_c, 1, 52, 64
3, 10740, Note_on_c, 1, 57, 107
3, 10788, Note_off_c, 1, 57, 64
3, 10800, Note_on_c, 1, 53, 107
3, 10848, Note_off_c, 1, 53, 64
3, 10860, Note_on_c, 1, 55, 107
3, 10956, Note_off_c, 1, 55, 64
3, 10980, Note_on_c, 1, 43, 107
3, 11076, Note_off_c, 1, 43, 64
3, 11100, Note_on_c, 1, 48, 107
3, 11160, Note_on_c, 1, 36, 107
3, 11160, Note_on_c, 1, 36, 107
3, 11208, Note_off_c, 1, 36, 64
3, 11220, Note_on_c, 1, 40, 107
3, 11268, Note_off_c, 1, 40, 64
3, 11280, Note_on_c, 1, 43, 107
3, 11292, Note_off_c, 1, 48, 64
3, 11328, Note_off_c, 1, 43, 64
3, 11340, Note_on_c, 1, 48, 107
3, 11436, Note_off_c, 1, 48, 64
3, 11436, Note_off_c, 1, 36, 64
3, 11580, Note_on_c, 1, 53, 107
3, 11676, Note_off_c, 1, 53, 64
3, 11700, Note_on_c, 1, 41, 107
3, 11796, Note_off_c, 1, 41, 64
3, 11880, Note_on_c, 1, 65, 107
3, 11928, Note_off_c, 1, 65, 64
3, 11940, Note_on_c, 1, 64, 107
3, 11988, Note_off_c, 1, 64, 64
3, 12000, Note_on_c, 1, 62, 107
3, 12048, Note_off_c, 1, 62, 64
3, 12060, Note_on_c, 1, 60, 107
3, 12156, Note_off_c, 1, 60, 64
3, 12180, Note_on_c, 1, 65, 107
3, 12276, Note_off_c, 1, 65, 64
3, 12300, Note_on_c, 1, 57, 107
3, 12396, Note_off_c, 1, 57, 64
3, 12420, Note_on_c, 1, 60, 107
3, 12516, Note_off_c, 1, 60, 64
3, 12540, Note_on_c, 1, 53, 107
3, 12572, Note_off_c, 1, 53, 64
3, 12580, Note_on_c, 1, 55, 107
3, 12612, Note_off_c, 1, 55, 64
3, 12620, Note_on_c, 1, 57, 107
3, 12652, Note_off_c, 1, 57, 64
3, 12660, Note_on_c, 1, 53, 107
3, 12692, Note_off_c, 1, 53, 64
3, 12700, Note_on_c, 1, 55, 107
3, 12732, Note_off_c, 1, 55, 64
3, 12740, Note_on_c, 1, 57, 107
3, 12772, Note_off_c, 1, 57, 64
3, 12780, Note_on_c, 1, 50, 107
3, 12812, Note_off_c, 1, 50, 64
3, 12820, Note_on_c, 1, 52, 107
3, 12852, Note_off_c, 1, 52, 64
3, 12860, Note_on_c, 1, 53, 107
3, 12892, Note_off_c, 1, 53, 64
3, 12900, Note_on_c, 1, 50, 107
3, 12932, Note_off_c, 1, 50, 64
3, 12940, Note_on_c, 1, 52, 107
3, 12972, Note_off_c, 1, 52, 64
3, 12980, Note_on_c, 1, 53, 107
3, 13012, Note_off_c, 1, 53, 64
3, 13020, Note_on_c, 1, 46, 107
3, 13052, Note_off_c, 1, 46, 64
3, 13060, Note_on_c, 1, 48, 107
3, 13092, Note_off_c, 1, 48, 64
3, 13100, Note_on_c, 1, 50, 107
3, 13132, Note_off_c, 1, 50, 64
3, 13140, Note_on_c, 1, 46, 107
3, 13172, Note_off_c, 1, 46, 64
3, 13180, Note_on_c, 1, 48, 107
3, 13212, Note_off_c, 1, 48, 64
3, 13220, Note_on_c, 1, 50, 107
3, 13252, Note_off_c, 1, 50, 64
3, 13260, Note_on_c, 1, 43, 107
3, 13308, Note_off_c, 1, 43, 64
3, 13320, Note_on_c, 1, 48, 107
3, 13368, Note_off_c, 1, 48, 64
3, 13380, Note_on_c, 1, 46, 107
3, 13428, Note_off_c, 1, 46, 64
3, 13440, Note_on_c, 1, 48, 107
3, 13488, Note_off_c, 1, 48, 64
3, 13500, Note_on_c, 1, 41, 107
3, 13596, Note_off_c, 1, 41, 64
3, 13620, Note_on_c, 1, 53, 107
3, 13716, Note_off_c, 1, 53, 64
3, 13740, Note_on_c, 1, 55, 105
3, 13752, Note_off_c, 1, 55, 64
3, 13755, Note_on_c, 1, 53, 105
3, 13767, Note_off_c, 1, 53, 64
3, 13770, Note_on_c, 1, 55, 105
3, 13782, Note_off_c, 1, 55, 64
3, 13785, Note_on_c, 1, 53, 105
3, 13797, Note_off_c, 1, 53, 64
3, 13800, Note_on_c, 1, 55, 105
3, 13812, Note_off_c, 1, 55, 64
3, 13815, Note_on_c, 1, 53, 105
3, 13827, Note_off_c, 1, 53, 64
3, 13830, Note_on_c, 1, 55, 107
3, 13845, Note_off_c, 1, 55, 64
3, 13845, Note_on_c, 1, 53, 107
3, 13860, Note_off_c, 1, 53, 64
3, 13860, Note_on_c, 1, 55, 107
3, 13875, Note_off_c, 1, 55, 64
3, 13875, Note_on_c, 1, 53, 107
3, 13890, Note_off_c, 1, 53, 64
3, 13890, Note_on_c, 1, 55, 107
3, 13905, Note_off_c, 1, 55, 64
3, 13905, Note_on_c, 1, 53, 107
3, 13920, Note_off_c, 1, 53, 64
3, 13920, Note_on_c, 1, 52, 107
3, 13944, Note_off_c, 1, 52, 64
3, 13950, Note_on_c, 1, 53, 107
3, 13974, Note_off_c, 1, 53, 64
3, 13980, Note_on_c, 1, 55, 107
3, 14076, Note_off_c, 1, 55, 64
3, 14100, Note_on_c, 1, 55, 107
3, 14196, Note_off_c, 1, 55, 64
3, 14220, Note_on_c, 1, 57, 105
3, 14235, Note_off_c, 1, 57, 64
3, 14235, Note_on_c, 1, 55, 105
3, 14250, Note_off_c, 1, 55, 64
3, 14250, Note_on_c, 1, 57, 105
3, 14265, Note_off_c, 1, 57, 64
3, 14265, Note_on_c, 1, 55, 105
3, 14280, Note_off_c, 1, 55, 64
3, 14280, Note_on_c, 1, 57, 105
3, 14295, Note_off_c, 1, 57, 64
3, 14295, Note_on_c, 1, 55, 105
3, 14310, Note_off_c, 1, 55, 64
3, 14310, Note_on_c, 1, 57, 107
3, 14325, Note_off_c, 1, 57, 64
3, 14325, Note_on_c, 1, 55, 107
3, 14340, Note_off_c, 1, 55, 64
3, 14340, Note_on_c, 1, 57, 107
3, 14355, Note_off_c, 1, 57, 64
3, 14355, Note_on_c, 1, 55, 107
3, 14370, Note_off_c, 1, 55, 64
3, 14370, Note_on_c, 1, 57, 107
3, 14385, Note_off_c, 1, 57, 64
3, 14385, Note_on_c, 1, 55, 107
3, 14400, Note_off_c, 1, 55, 64
3, 14400, Note_on_c, 1, 53, 107
3, 14415, Note_off_c, 1, 53, 64
3, 14415, Note_on_c, 1, 55, 107
3, 14439, Note_off_c, 1, 55, 64
3, 14460, Note_on_c, 1, 57, 107
3, 14652, Note_off_c, 1, 57, 64
3, 14820, Note_on_c, 1, 57, 107
3, 14916, Note_off_c, 1, 57, 64
3, 14940, Note_on_c, 1, 62, 107
3, 14940, Note_on_c, 1, 58, 107
3, 15132, Note_off_c, 1, 58, 64
3, 15132, Note_off_c, 1, 62, 64
3, 15300, Note_on_c, 1, 62, 107
3, 15300, Note_on_c, 1, 58, 107
3, 15396, Note_off_c, 1, 58, 64
3, 15396, Note_off_c, 1, 62, 64
3, 15420, Note_on_c, 1, 58, 107
3, 15420, Note_on_c, 1, 60, 107
3, 15612, Note_off_c, 1, 60, 64
3, 15720, Note_on_c, 1, 60, 107
3, 15768, Note_off_c, 1, 60, 64
3, 15780, Note_on_c, 1, 62, 107
3, 15804, Note_off_c, 1, 58, 64
3, 15828, Note_off_c, 1, 62, 64
3, 15840, Note_on_c, 1, 64, 107
3, 15888, Note_off_c, 1, 64, 64
3, 15900, Note_on_c, 1, 57, 107
3, 15900, Note_on_c, 1, 65, 107
3, 15996, Note_off_c, 1, 57, 64
3, 16020, Note_on_c, 1, 62, 107
3, 16116, Note_off_c, 1, 62, 64
3, 16140, Note_on_c, 1, 55, 107
3, 16188, Note_off_c, 1, 65, 64
3, 16236, Note_off_c, 1, 55, 64
3, 16260, Note_on_c, 1, 64, 107
3, 16260, Note_on_c, 1, 60, 107
3, 16356, Note_off_c, 1, 60, 64
3, 16356, Note_off_c, 1, 64, 64
3, 16380, Note_on_c, 1, 53, 107
3, 16476, Note_off_c, 1, 53, 64
3, 16500, Note_on_c, 1, 52, 107
3, 16596, Note_off_c, 1, 52, 64
3, 16620, Note_on_c, 1, 50, 107
3, 16716, Note_off_c, 1, 50, 64
3, 16740, Note_on_c, 1, 48, 107
3, 16836, Note_off_c, 1, 48, 64
3, 16860, Note_on_c, 1, 47, 107
3, 16908, Note_off_c, 1, 47, 64
3, 16920, Note_on_c, 1, 50, 107
3, 16968, Note_off_c, 1, 50, 64
3, 16980, Note_on_c, 1, 52, 107
3, 17028, Note_off_c, 1, 52, 64
3, 17040, Note_on_c, 1, 53, 107
3, 17088, Note_off_c, 1, 53, 64
3, 17100, Note_on_c, 1, 55, 107
3, 17196, Note_off_c, 1, 55, 64
3, 17220, Note_on_c, 1, 43, 107
3, 17316, Note_off_c, 1, 43, 64
3, 17340, Note_on_c, 1, 48, 107
3, 17372, Note_off_c, 1, 48, 64
3, 17380, Note_on_c, 1, 50, 107
3, 17412, Note_off_c, 1, 50, 64
3, 17420, Note_on_c, 1, 52, 107
3, 17452, Note_off_c, 1, 52, 64
3, 17460, Note_on_c, 1, 48, 107
3, 17492, Note_off_c, 1, 48, 64
3, 17500, Note_on_c, 1, 50, 107
3, 17532, Note_off_c, 1, 50, 64
3, 17540, Note_on_c, 1, 52, 107
3, 17572, Note_off_c, 1, 52, 64
3, 17580, Note_on_c, 1, 45, 107
3, 17612, Note_off_c, 1, 45, 64
3, 17620, Note_on_c, 1, 47, 107
3, 17652, Note_off_c, 1, 47, 64
3, 17660, Note_on_c, 1, 48, 107
3, 17692, Note_off_c, 1, 48, 64
3, 17700, Note_on_c, 1, 45, 107
3, 17732, Note_off_c, 1, 45, 64
3, 17740, Note_on_c, 1, 47, 107
3, 17772, Note_off_c, 1, 47, 64
3, 17780, Note_on_c, 1, 48, 107
3, 17812, Note_off_c, 1, 48, 64
3, 17820, Note_on_c, 1, 41, 107
3, 17916, Note_off_c, 1, 41, 64
3, 17940, Note_on_c, 1, 57, 107
3, 18036, Note_off_c, 1, 57, 64
3, 18060, Note_on_c, 1, 50, 107
3, 18156, Note_off_c, 1, 50, 64
3, 18180, Note_on_c, 1, 53, 107
3, 18276, Note_off_c, 1, 53, 64
3, 18300, Note_on_c, 1, 47, 107
3, 18332, Note_off_c, 1, 47, 64
3, 18340, Note_on_c, 1, 48, 107
3, 18372, Note_off_c, 1, 48, 64
3, 18380, Note_on_c, 1, 50, 107
3, 18412, Note_off_c, 1, 50, 64
3, 18420, Note_on_c, 1, 47, 107
3, 18452, Note_off_c, 1, 47, 64
3, 18460, Note_on_c, 1, 48, 107
3, 18492, Note_off_c, 1, 48, 64
3, 18500, Note_on_c, 1, 50, 107
3, 18532, Note_off_c, 1, 50, 64
3, 18540, Note_on_c, 1, 43, 107
3, 18572, Note_off_c, 1, 43, 64
3, 18580, Note_on_c, 1, 45, 107
3, 18612, Note_off_c, 1, 45, 64
3, 18620, Note_on_c, 1, 47, 107
3, 18652, Note_off_c, 1, 47, 64
3, 18660, Note_on_c, 1, 43, 107
3, 18692, Note_off_c, 1, 43, 64
3, 18700, Note_on_c, 1, 45, 107
3, 18732, Note_off_c, 1, 45, 64
3, 18740, Note_on_c, 1, 47, 107
3, 18772, Note_off_c, 1, 47, 64
3, 18780, Note_on_c, 1, 40, 107
3, 18876, Note_off_c, 1, 40, 64
3, 18900, Note_on_c, 1, 55, 107
3, 18996, Note_off_c, 1, 55, 64
3, 19020, Note_on_c, 1, 48, 107
3, 19116, Note_off_c, 1, 48, 64
3, 19140, Note_on_c, 1, 52, 107
3, 19236, Note_off_c, 1, 52, 64
3, 19260, Note_on_c, 1, 45, 107
3, 19292, Note_off_c, 1, 45, 64
3, 19300, Note_on_c, 1, 47, 107
3, 19332, Note_off_c, 1, 47, 64
3, 19340, Note_on_c, 1, 48, 107
3, 19372, Note_off_c, 1, 48, 64
3, 19380, Note_on_c, 1, 45, 107
3, 19412, Note_off_c, 1, 45, 64
3, 19420, Note_on_c, 1, 47, 107
3, 19452, Note_off_c, 1, 47, 64
3, 19460, Note_on_c, 1, 48, 107
3, 19492, Note_off_c, 1, 48, 64
3, 19500, Note_on_c, 1, 42, 107
3, 19532, Note_off_c, 1, 42, 64
3, 19540, Note_on_c, 1, 43, 107
3, 19572, Note_off_c, 1, 43, 64
3, 19580, Note_on_c, 1, 45, 107
3, 19612, Note_off_c, 1, 45, 64
3, 19620, Note_on_c, 1, 42, 107
3, 19652, Note_off_c, 1, 42, 64
3, 19660, Note_on_c, 1, 43, 107
3, 19692, Note_off_c, 1, 43, 64
3, 19700, Note_on_c, 1, 45, 107
3, 19732, Note_off_c, 1, 45, 64
3, 19740, Note_on_c, 1, 38, 107
3, 19836, Note_off_c, 1, 38, 64
3, 19860, Note_on_c, 1, 45, 107
3, 19956, Note_off_c, 1, 45, 64
3, 19980, Note_on_c, 1, 42, 107
3, 20076, Note_off_c, 1, 42, 64
3, 20100, Note_on_c, 1, 38, 107
3, 20196, Note_off_c, 1, 38, 64
3, 20220, Note_on_c, 1, 43, 107
3, 20412, Note_off_c, 1, 43, 64
3, 20580, Note_on_c, 1, 55, 107
3, 20676, Note_off_c, 1, 55, 64
3, 20700, Note_on_c, 1, 56, 107
3, 20748, Note_off_c, 1, 56, 64
3, 20760, Note_on_c, 1, 55, 107
3, 20808, Note_off_c, 1, 55, 64
3, 20820, Note_on_c, 1, 54, 107
3, 20868, Note_off_c, 1, 54, 64
3, 20880, Note_on_c, 1, 55, 107
3, 20928, Note_off_c, 1, 55, 64
3, 20940, Note_on_c, 1, 48, 107
3, 20988, Note_off_c, 1, 48, 64
3, 21000, Note_on_c, 1, 55, 107
3, 21048, Note_off_c, 1, 55, 64
3, 21060, Note_on_c, 1, 54, 107
3, 21108, Note_off_c, 1, 54, 64
3, 21120, Note_on_c, 1, 55, 107
3, 21168, Note_off_c, 1, 55, 64
3, 21180, Note_on_c, 1, 57, 107
3, 21228, Note_off_c, 1, 57, 64
3, 21240, Note_on_c, 1, 55, 107
3, 21288, Note_off_c, 1, 55, 64
3, 21300, Note_on_c, 1, 54, 107
3, 21348, Note_off_c, 1, 54, 64
3, 21360, Note_on_c, 1, 55, 107
3, 21408, Note_off_c, 1, 55, 64
3, 21420, Note_on_c, 1, 48, 107
3, 21468, Note_off_c, 1, 48, 64
3, 21480, Note_on_c, 1, 51, 107
3, 21528, Note_off_c, 1, 51, 64
3, 21540, Note_on_c, 1, 50, 107
3, 21588, Note_off_c, 1, 50, 64
3, 21600, Note_on_c, 1, 48, 107
3, 21648, Note_off_c, 1, 48, 64
3, 21660, Note_on_c, 1, 53, 107
3, 21948, Note_off_c, 1, 53, 64
3, 21960, Note_on_c, 1, 53, 107
3, 22008, Note_off_c, 1, 53, 64
3, 22020, Note_on_c, 1, 52, 107
3, 22068, Note_off_c, 1, 52, 64
3, 22080, Note_on_c, 1, 50, 107
3, 22128, Note_off_c, 1, 50, 64
3, 22140, Note_on_c, 1, 48, 107
3, 22188, Note_off_c, 1, 48, 64
3, 22200, Note_on_c, 1, 52, 107
3, 22248, Note_off_c, 1, 52, 64
3, 22260, Note_on_c, 1, 57, 107
3, 22308, Note_off_c, 1, 57, 64
3, 22320, Note_on_c, 1, 53, 107
3, 22368, Note_off_c, 1, 53, 64
3, 22380, Note_on_c, 1, 55, 107
3, 22476, Note_off_c, 1, 55, 64
3, 22500, Note_on_c, 1, 43, 107
3, 22596, Note_off_c, 1, 43, 64
3, 22620, Note_on_c, 1, 48, 107
3, 22680, Note_on_c, 1, 36, 107
3, 22680, Note_on_c, 1, 36, 107
3, 22728, Note_off_c, 1, 36, 64
3, 22740, Note_on_c, 1, 40, 107
3, 22788, Note_off_c, 1, 40, 64
3, 22800, Note_on_c, 1, 43, 107
3, 22812, Note_off_c, 1, 48, 64
3, 22848, Note_off_c, 1, 43, 64
3, 22860, Note_on_c, 1, 48, 107
3, 22956, Note_off_c, 1, 48, 64
3, 22956, Note_off_c, 1, 36, 64
3, 23100, Note_on_c, 1, 48, 107
3, 23196, Note_off_c, 1, 48, 64
3, 23220, Note_on_c, 1, 48, 107
3, 23244, Note_off_c, 1, 48, 64
3, 23250, Note_on_c, 1, 43, 107
3, 23274, Note_off_c, 1, 43, 64
3, 23280, Note_on_c, 1, 45, 107
3, 23304, Note_off_c, 1, 45, 64
3, 23310, Note_on_c, 1, 47, 107
3, 23334, Note_off_c, 1, 47, 64
3, 23340, Note_on_c, 1, 48, 107
3, 23388, Note_off_c, 1, 48, 64
3, 23400, Note_on_c, 1, 47, 107
3, 23448, Note_off_c, 1, 47, 64
3, 23460, Note_on_c, 1, 48, 107
3, 23508, Note_off_c, 1, 48, 64
3, 23520, Note_on_c, 1, 50, 107
3, 23568, Note_off_c, 1, 50, 64
3, 23580, Note_on_c, 1, 52, 107
3, 23612, Note_off_c, 1, 52, 64
3, 23620, Note_on_c, 1, 50, 107
3, 23652, Note_off_c, 1, 50, 64
3, 23660, Note_on_c, 1, 48, 107
3, 23692, Note_off_c, 1, 48, 64
3, 23700, Note_on_c, 1, 52, 107
3, 23732, Note_off_c, 1, 52, 64
3, 23740, Note_on_c, 1, 50, 107
3, 23772, Note_off_c, 1, 50, 64
3, 23780, Note_on_c, 1, 48, 107
3, 23812, Note_off_c, 1, 48, 64
3, 23820, Note_on_c, 1, 55, 107
3, 23852, Note_off_c, 1, 55, 64
3, 23860, Note_on_c, 1, 53, 107
3, 23892, Note_off_c, 1, 53, 64
3, 23900, Note_on_c, 1, 52, 107
3, 23932, Note_off_c, 1, 52, 64
3, 23940, Note_on_c, 1, 55, 107
3, 23972, Note_off_c, 1, 55, 64
3, 23980, Note_on_c, 1, 53, 107
3, 24012, Note_off_c, 1, 53, 64
3, 24020, Note_on_c, 1, 52, 107
3, 24052, Note_off_c, 1, 52, 64
3, 24060, Note_on_c, 1, 60, 107
3, 24156, Note_off_c, 1, 60, 64
3, 24180, Note_on_c, 1, 55, 107
3, 24276, Note_off_c, 1, 55, 64
3, 24300, Note_on_c, 1, 55, 107
3, 24444, Note_off_c, 1, 55, 64
3, 24450, Note_on_c, 1, 59, 107
3, 24474, Note_off_c, 1, 59, 64
3, 24480, Note_on_c, 1, 57, 107
3, 24504, Note_off_c, 1, 57, 64
3, 24510, Note_on_c, 1, 55, 107
3, 24534, Note_off_c, 1, 55, 64
3, 24540, Note_on_c, 1, 53, 107
3, 24636, Note_off_c, 1, 53, 64
3, 24660, Note_on_c, 1, 53, 107
3, 24756, Note_off_c, 1, 53, 64
3, 24780, Note_on_c, 1, 53, 107
3, 24924, Note_off_c, 1, 53, 64
3, 24930, Note_on_c, 1, 57, 107
3, 24954, Note_off_c, 1, 57, 64
3, 24960, Note_on_c, 1, 55, 107
3, 24984, Note_off_c, 1, 55, 64
3, 24990, Note_on_c, 1, 53, 107
3, 25014, Note_off_c, 1, 53, 64
3, 25020, Note_on_c, 1, 52, 107
3, 25080, Note_on_c, 1, 55, 107
3, 25128, Note_off_c, 1, 55, 64
3, 25140, Note_on_c, 1, 57, 107
3, 25188, Note_off_c, 1, 57, 64
3, 25200, Note_on_c, 1, 59, 107
3, 25212, Note_off_c, 1, 52, 64
3, 25248, Note_off_c, 1, 59, 64
3, 25260, Note_on_c, 1, 60, 107
3, 25320, Note_on_c, 1, 55, 107
3, 25368, Note_off_c, 1, 55, 64
3, 25380, Note_on_c, 1, 53, 107
3, 25428, Note_off_c, 1, 53, 64
3, 25440, Note_on_c, 1, 52, 107
3, 25488, Note_off_c, 1, 52, 64
3, 25500, Note_on_c, 1, 50, 107
3, 25548, Note_off_c, 1, 60, 64
3, 25560, Note_on_c, 1, 60, 107
3, 25608, Note_off_c, 1, 60, 64
3, 25620, Note_on_c, 1, 59, 107
3, 25668, Note_off_c, 1, 59, 64
3, 25680, Note_on_c, 1, 57, 107
3, 25692, Note_off_c, 1, 50, 64
3, 25728, Note_off_c, 1, 57, 64
3, 25740, Note_on_c, 1, 59, 107
3, 25800, Note_on_c, 1, 55, 107
3, 25848, Note_off_c, 1, 55, 64
3, 25860, Note_on_c, 1, 53, 107
3, 25908, Note_off_c, 1, 53, 64
3, 25920, Note_on_c, 1, 55, 107
3, 25932, Note_off_c, 1, 59, 64
3, 25968, Note_off_c, 1, 55, 64
3, 25980, Note_on_c, 1, 48, 107
3, 26100, Note_on_c, 1, 55, 107
3, 26172, Note_off_c, 1, 48, 64
3, 26196, Note_off_c, 1, 55, 64
3, 26220, Note_on_c, 1, 60, 107
3, 26508, Note_off_c, 1, 60, 64
3, 26520, Note_on_c, 1, 57, 107
3, 26568, Note_off_c, 1, 57, 64
3, 26580, Note_on_c, 1, 59, 107
3, 26628, Note_off_c, 1, 59, 64
3, 26640, Note_on_c, 1, 60, 107
3, 26688, Note_off_c, 1, 60, 64
3, 26700, Note_on_c, 1, 59, 107
3, 26748, Note_off_c, 1, 59, 64
3, 26760, Note_on_c, 1, 62, 107
3, 26808, Note_off_c, 1, 62, 64
3, 26820, Note_on_c, 1, 61, 107
3, 26868, Note_off_c, 1, 61, 64
3, 26880, Note_on_c, 1, 59, 107
3, 26928, Note_off_c, 1, 59, 64
3, 26940, Note_on_c, 1, 61, 107
3, 27132, Note_off_c, 1, 61, 64
3, 27180, Note_on_c, 1, 62, 107
3, 27564, Note_off_c, 1, 62, 64
3, 27660, Note_on_c, 1, 61, 107
3, 27852, Note_off_c, 1, 61, 64
3, 27900, Note_on_c, 1, 62, 107
3, 27996, Note_off_c, 1, 62, 64
3, 28020, Note_on_c, 1, 55, 107
3, 28116, Note_off_c, 1, 55, 64
3, 28140, Note_on_c, 1, 57, 107
3, 28236, Note_off_c, 1, 57, 64
3, 28260, Note_on_c, 1, 45, 107
3, 28356, Note_off_c, 1, 45, 64
3, 28380, Note_on_c, 1, 38, 107
3, 28476, Note_off_c, 1, 38, 64
3, 28500, Note_on_c, 1, 50, 107
3, 28596, Note_off_c, 1, 50, 64
3, 28680, Note_on_c, 1, 50, 107
3, 28728, Note_off_c, 1, 50, 64
3, 28740, Note_on_c, 1, 48, 107
3, 28788, Note_off_c, 1, 48, 64
3, 28800, Note_on_c, 1, 47, 107
3, 28848, Note_off_c, 1, 47, 64
3, 28860, Note_on_c, 1, 45, 107
3, 28956, Note_off_c, 1, 45, 64
3, 28980, Note_on_c, 1, 57, 107
3, 29004, Note_off_c, 1, 57, 64
3, 29010, Note_on_c, 1, 58, 107
3, 29034, Note_off_c, 1, 58, 64
3, 29040, Note_on_c, 1, 57, 107
3, 29064, Note_off_c, 1, 57, 64
3, 29070, Note_on_c, 1, 58, 107
3, 29094, Note_off_c, 1, 58, 64
3, 29100, Note_on_c, 1, 60, 105
3, 29112, Note_off_c, 1, 60, 64
3, 29115, Note_on_c, 1, 58, 105
3, 29127, Note_off_c, 1, 58, 64
3, 29130, Note_on_c, 1, 60, 105
3, 29142, Note_off_c, 1, 60, 64
3, 29145, Note_on_c, 1, 58, 105
3, 29157, Note_off_c, 1, 58, 64
3, 29160, Note_on_c, 1, 60, 105
3, 29172, Note_off_c, 1, 60, 64
3, 29175, Note_on_c, 1, 58, 105
3, 29187, Note_off_c, 1, 58, 64
3, 29190, Note_on_c, 1, 60, 107
3, 29205, Note_off_c, 1, 60, 64
3, 29205, Note_on_c, 1, 58, 107
3, 29220, Note_off_c, 1, 58, 64
3, 29220, Note_on_c, 1, 60, 107
3, 29235, Note_off_c, 1, 60, 64
3, 29235, Note_on_c, 1, 58, 107
3, 29250, Note_off_c, 1, 58, 64
3, 29250, Note_on_c, 1, 60, 107
3, 29265, Note_off_c, 1, 60, 64
3, 29265, Note_on_c, 1, 58, 107
3, 29280, Note_off_c, 1, 58, 64
3, 29280, Note_on_c, 1, 57, 107
3, 29295, Note_off_c, 1, 57, 64
3, 29295, Note_on_c, 1, 58, 107
3, 29319, Note_off_c, 1, 58, 64
3, 29325, Note_on_c, 1, 60, 107
3, 29421, Note_off_c, 1, 60, 64
3, 29445, Note_on_c, 1, 48, 107
3, 29541, Note_off_c, 1, 48, 64
3, 29625, Note_on_c, 1, 48, 107
3, 29673, Note_off_c, 1, 48, 64
3, 29685, Note_on_c, 1, 46, 107
3, 29733, Note_off_c, 1, 46, 64
3, 29745, Note_on_c, 1, 45, 107
3, 29793, Note_off_c, 1, 45, 64
3, 29820, Note_on_c, 1, 43, 107
3, 29916, Note_off_c, 1, 43, 64
3, 29940, Note_on_c, 1, 55, 107
3, 29964, Note_off_c, 1, 55, 64
3, 29970, Note_on_c, 1, 57, 107
3, 29994, Note_off_c, 1, 57, 64
3, 30000, Note_on_c, 1, 55, 107
3, 30024, Note_off_c, 1, 55, 64
3, 30030, Note_on_c, 1, 57, 107
3, 30054, Note_off_c, 1, 57, 64
3, 30060, Note_on_c, 1, 58, 105
3, 30072, Note_off_c, 1, 58, 64
3, 30075, Note_on_c, 1, 57, 105
3, 30087, Note_off_c, 1, 57, 64
3, 30090, Note_on_c, 1, 58, 107
3, 30105, Note_off_c, 1, 58, 64
3, 30105, Note_on_c, 1, 57, 107
3, 30120, Note_off_c, 1, 57, 64
3, 30120, Note_on_c, 1, 58, 107
3, 30135, Note_off_c, 1, 58, 64
3, 30135, Note_on_c, 1, 57, 107
3, 30150, Note_off_c, 1, 57, 64
3, 30150, Note_on_c, 1, 58, 107
3, 30165, Note_off_c, 1, 58, 64
3, 30165, Note_on_c, 1, 57, 107
3, 30180, Note_off_c, 1, 57, 64
3, 30180, Note_on_c, 1, 58, 105
3, 30195, Note_off_c, 1, 58, 64
3, 30195, Note_on_c, 1, 57, 105
3, 30210, Note_off_c, 1, 57, 64
3, 30210, Note_on_c, 1, 58, 105
3, 30225, Note_off_c, 1, 58, 64
3, 30225, Note_on_c, 1, 57, 105
3, 30240, Note_off_c, 1, 57, 64
3, 30240, Note_on_c, 1, 55, 107
3, 30264, Note_off_c, 1, 55, 64
3, 30270, Note_on_c, 1, 57, 107
3, 30294, Note_off_c, 1, 57, 64
3, 30300, Note_on_c, 1, 58, 107
3, 30396, Note_off_c, 1, 58, 64
3, 30420, Note_on_c, 1, 46, 107
3, 30516, Note_off_c, 1, 46, 64
3, 30600, Note_on_c, 1, 53, 107
3, 30624, Note_off_c, 1, 53, 64
3, 30630, Note_on_c, 1, 55, 107
3, 30654, Note_off_c, 1, 55, 64
3, 30660, Note_on_c, 1, 57, 107
3, 30684, Note_off_c, 1, 57, 64
3, 30690, Note_on_c, 1, 55, 107
3, 30714, Note_off_c, 1, 55, 64
3, 30720, Note_on_c, 1, 53, 107
3, 30744, Note_off_c, 1, 53, 64
3, 30750, Note_on_c, 1, 55, 107
3, 30774, Note_off_c, 1, 55, 64
3, 30780, Note_on_c, 1, 57, 107
3, 30812, Note_off_c, 1, 57, 64
3, 30820, Note_on_c, 1, 55, 107
3, 30852, Note_off_c, 1, 55, 64
3, 30860, Note_on_c, 1, 57, 107
3, 30892, Note_off_c, 1, 57, 64
3, 30900, Note_on_c, 1, 58, 107
3, 30932, Note_off_c, 1, 58, 64
3, 30940, Note_on_c, 1, 57, 107
3, 30972, Note_off_c, 1, 57, 64
3, 30980, Note_on_c, 1, 58, 107
3, 31012, Note_off_c, 1, 58, 64
3, 31020, Note_on_c, 1, 60, 107
3, 31052, Note_off_c, 1, 60, 64
3, 31060, Note_on_c, 1, 58, 107
3, 31092, Note_off_c, 1, 58, 64
3, 31100, Note_on_c, 1, 60, 107
3, 31132, Note_off_c, 1, 60, 64
3, 31140, Note_on_c, 1, 62, 107
3, 31172, Note_off_c, 1, 62, 64
3, 31180, Note_on_c, 1, 60, 107
3, 31212, Note_off_c, 1, 60, 64
3, 31220, Note_on_c, 1, 62, 107
3, 31252, Note_off_c, 1, 62, 64
3, 31260, Note_on_c, 1, 64, 107
3, 31292, Note_off_c, 1, 64, 64
3, 31300, Note_on_c, 1, 62, 107
3, 31332, Note_off_c, 1, 62, 64
3, 31340, Note_on_c, 1, 64, 107
3, 31372, Note_off_c, 1, 64, 64
3, 31380, Note_on_c, 1, 65, 107
3, 31428, Note_off_c, 1, 65, 64
3, 31440, Note_on_c, 1, 57, 107
3, 31488, Note_off_c, 1, 57, 64
3, 31500, Note_on_c, 1, 58, 107
3, 31692, Note_off_c, 1, 58, 64
3, 31740, Note_on_c, 1, 60, 107
3, 32028, Note_off_c, 1, 60, 64
3, 32040, Note_on_c, 1, 58, 107
3, 32088, Note_off_c, 1, 58, 64
3, 32100, Note_on_c, 1, 57, 107
3, 32148, Note_off_c, 1, 57, 64
3, 32160, Note_on_c, 1, 55, 107
3, 32208, Note_off_c, 1, 55, 64
3, 32220, Note_on_c, 1, 53, 107
3, 32316, Note_off_c, 1, 53, 64
3, 32340, Note_on_c, 1, 56, 107
3, 32436, Note_off_c, 1, 56, 64
3, 32460, Note_on_c, 1, 50, 107
3, 32556, Note_off_c, 1, 50, 64
3, 32580, Note_on_c, 1, 53, 107
3, 32676, Note_off_c, 1, 53, 64
3, 32700, Note_on_c, 1, 47, 107
3, 32796, Note_off_c, 1, 47, 64
3, 32820, Note_on_c, 1, 50, 107
3, 32916, Note_off_c, 1, 50, 64
3, 32940, Note_on_c, 1, 43, 107
3, 33036, Note_off_c, 1, 43, 64
3, 33060, Note_on_c, 1, 46, 107
3, 33156, Note_off_c, 1, 46, 64
3, 33180, Note_on_c, 1, 40, 107
3, 33372, Note_off_c, 1, 40, 64
3, 33480, Note_on_c, 1, 58, 107
3, 33528, Note_off_c, 1, 58, 64
3, 33540, Note_on_c, 1, 57, 107
3, 33588, Note_off_c, 1, 57, 64
3, 33600, Note_on_c, 1, 55, 107
3, 33648, Note_off_c, 1, 55, 64
3, 33660, Note_on_c, 1, 53, 107
3, 33708, Note_off_c, 1, 53, 64
3, 33720, Note_on_c, 1, 57, 107
3, 33768, Note_off_c, 1, 57, 64
3, 33780, Note_on_c, 1, 62, 107
3, 33828, Note_off_c, 1, 62, 64
3, 33840, Note_on_c, 1, 58, 107
3, 33888, Note_off_c, 1, 58, 64
3, 33900, Note_on_c, 1, 60, 107
3, 33996, Note_off_c, 1, 60, 64
3, 34020, Note_on_c, 1, 48, 107
3, 34116, Note_off_c, 1, 48, 64
3, 34140, Note_on_c, 1, 53, 107
3, 34200, Note_on_c, 1, 41, 107
3, 34200, Note_on_c, 1, 41, 107
3, 34248, Note_off_c, 1, 41, 64
3, 34260, Note_on_c, 1, 45, 107
3, 34308, Note_off_c, 1, 45, 64
3, 34320, Note_on_c, 1, 48, 107
3, 34332, Note_off_c, 1, 53, 64
3, 34368, Note_off_c, 1, 48, 64
3, 34380, Note_on_c, 1, 53, 107
3, 34476, Note_off_c, 1, 41, 64
3, 34476, Note_off_c, 1, 53, 64
3, 34620, Note_on_c, 1, 48, 107
3, 34716, Note_off_c, 1, 48, 64
3, 34740, Note_on_c, 1, 48, 107
3, 34764, Note_off_c, 1, 48, 64
3, 34770, Note_on_c, 1, 43, 107
3, 34794, Note_off_c, 1, 43, 64
3, 34800, Note_on_c, 1, 45, 107
3, 34824, Note_off_c, 1, 45, 64
3, 34830, Note_on_c, 1, 47, 107
3, 34854, Note_off_c, 1, 47, 64
3, 34860, Note_on_c, 1, 48, 107
3, 34908, Note_off_c, 1, 48, 64
3, 34920, Note_on_c, 1, 47, 107
3, 34968, Note_off_c, 1, 47, 64
3, 34980, Note_on_c, 1, 48, 107
3, 35028, Note_off_c, 1, 48, 64
3, 35040, Note_on_c, 1, 50, 107
3, 35088, Note_off_c, 1, 50, 64
3, 35100, Note_on_c, 1, 52, 107
3, 35132, Note_off_c, 1, 52, 64
3, 35140, Note_on_c, 1, 50, 107
3, 35172, Note_off_c, 1, 50, 64
3, 35180, Note_on_c, 1, 48, 107
3, 35212, Note_off_c, 1, 48, 64
3, 35220, Note_on_c, 1, 52, 107
3, 35252, Note_off_c, 1, 52, 64
3, 35260, Note_on_c, 1, 50, 107
3, 35292, Note_off_c, 1, 50, 64
3, 35300, Note_on_c, 1, 48, 107
3, 35332, Note_off_c, 1, 48, 64
3, 35340, Note_on_c, 1, 55, 107
3, 35372, Note_off_c, 1, 55, 64
3, 35380, Note_on_c, 1, 53, 107
3, 35412, Note_off_c, 1, 53, 64
3, 35420, Note_on_c, 1, 52, 107
3, 35452, Note_off_c, 1, 52, 64
3, 35460, Note_on_c, 1, 55, 107
3, 35492, Note_off_c, 1, 55, 64
3, 35500, Note_on_c, 1, 53, 107
3, 35532, Note_off_c, 1, 53, 64
3, 35540, Note_on_c, 1, 52, 107
3, 35572, Note_off_c, 1, 52, 64
3, 35580, Note_on_c, 1, 60, 107
3, 35676, Note_off_c, 1, 60, 64
3, 35700, Note_on_c, 1, 55, 107
3, 35796, Note_off_c, 1, 55, 64
3, 35820, Note_on_c, 1, 55, 107
3, 35964, Note_off_c, 1, 55, 64
3, 35970, Note_on_c, 1, 59, 107
3, 35994, Note_off_c, 1, 59, 64
3, 36000, Note_on_c, 1, 57, 107
3, 36024, Note_off_c, 1, 57, 64
3, 36030, Note_on_c, 1, 55, 107
3, 36054, Note_off_c, 1, 55, 64
3, 36060, Note_on_c, 1, 53, 107
3, 36156, Note_off_c, 1, 53, 64
3, 36180, Note_on_c, 1, 53, 107
3, 36276, Note_off_c, 1, 53, 64
3, 36300, Note_on_c, 1, 53, 107
3, 36444, Note_off_c, 1, 53, 64
3, 36450, Note_on_c, 1, 57, 107
3, 36474, Note_off_c, 1, 57, 64
3, 36480, Note_on_c, 1, 55, 107
3, 36504, Note_off_c, 1, 55, 64
3, 36510, Note_on_c, 1, 53, 107
3, 36534, Note_off_c, 1, 53, 64
3, 36540, Note_on_c, 1, 52, 107
3, 36600, Note_on_c, 1, 55, 107
3, 36648, Note_off_c, 1, 55, 64
3, 36660, Note_on_c, 1, 57, 107
3, 36708, Note_off_c, 1, 57, 64
3, 36720, Note_on_c, 1, 59, 107
3, 36732, Note_off_c, 1, 52, 64
3, 36768, Note_off_c, 1, 59, 64
3, 36780, Note_on_c, 1, 60, 107
3, 36840, Note_on_c, 1, 55, 107
3, 36888, Note_off_c, 1, 55, 64
3, 36900, Note_on_c, 1, 53, 107
3, 36948, Note_off_c, 1, 53, 64
3, 36960, Note_on_c, 1, 52, 107
3, 37008, Note_off_c, 1, 52, 64
3, 37020, Note_on_c, 1, 50, 107
3, 37068, Note_off_c, 1, 60, 64
3, 37080, Note_on_c, 1, 60, 107
3, 37128, Note_off_c, 1, 60, 64
3, 37140, Note_on_c, 1, 59, 107
3, 37188, Note_off_c, 1, 59, 64
3, 37200, Note_on_c, 1, 57, 107
3, 37212, Note_off_c, 1, 50, 64
3, 37248, Note_off_c, 1, 57, 64
3, 37260, Note_on_c, 1, 59, 107
3, 37320, Note_on_c, 1, 55, 107
3, 37368, Note_off_c, 1, 55, 64
3, 37380, Note_on_c, 1, 53, 107
3, 37428, Note_off_c, 1, 53, 64
3, 37440, Note_on_c, 1, 55, 107
3, 37452, Note_off_c, 1, 59, 64
3, 37488, Note_off_c, 1, 55, 64
3, 37500, Note_on_c, 1, 48, 107
3, 37620, Note_on_c, 1, 55, 107
3, 37692, Note_off_c, 1, 48, 64
3, 37716, Note_off_c, 1, 55, 64
3, 37740, Note_on_c, 1, 60, 107
3, 38028, Note_off_c, 1, 60, 64
3, 38040, Note_on_c, 1, 57, 107
3, 38088, Note_off_c, 1, 57, 64
3, 38100, Note_on_c, 1, 59, 107
3, 38148, Note_off_c, 1, 59, 64
3, 38160, Note_on_c, 1, 60, 107
3, 38208, Note_off_c, 1, 60, 64
3, 38220, Note_on_c, 1, 59, 107
3, 38268, Note_off_c, 1, 59, 64
3, 38280, Note_on_c, 1, 62, 107
3, 38328, Note_off_c, 1, 62, 64
3, 38340, Note_on_c, 1, 61, 107
3, 38388, Note_off_c, 1, 61, 64
3, 38400, Note_on_c, 1, 59, 107
3, 38448, Note_off_c, 1, 59, 64
3, 38460, Note_on_c, 1, 61, 107
3, 38652, Note_off_c, 1, 61, 64
3, 38700, Note_on_c, 1, 62, 107
3, 39084, Note_off_c, 1, 62, 64
3, 39180, Note_on_c, 1, 61, 107
3, 39372, Note_off_c, 1, 61, 64
3, 39420, Note_on_c, 1, 62, 107
3, 39516, Note_off_c, 1, 62, 64
3, 39540, Note_on_c, 1, 55, 107
3, 39636, Note_off_c, 1, 55, 64
3, 39660, Note_on_c, 1, 57, 107
3, 39756, Note_off_c, 1, 57, 64
3, 39780, Note_on_c, 1, 45, 107
3, 39876, Note_off_c, 1, 45, 64
3, 39900, Note_on_c, 1, 38, 107
3, 39996, Note_off_c, 1, 38, 64
3, 40020, Note_on_c, 1, 50, 107
3, 40116, Note_off_c, 1, 50, 64
3, 40200, Note_on_c, 1, 50, 107
3, 40248, Note_off_c, 1, 50, 64
3, 40260, Note_on_c, 1, 48, 107
3, 40308, Note_off_c, 1, 48, 64
3, 40320, Note_on_c, 1, 47, 107
3, 40368, Note_off_c, 1, 47, 64
3, 40380, Note_on_c, 1, 45, 107
3, 40476, Note_off_c, 1, 45, 64
3, 40500, Note_on_c, 1, 57, 107
3, 40524, Note_off_c, 1, 57, 64
3, 40530, Note_on_c, 1, 58, 107
3, 40554, Note_off_c, 1, 58, 64
3, 40560, Note_on_c, 1, 57, 107
3, 40584, Note_off_c, 1, 57, 64
3, 40590, Note_on_c, 1, 58, 107
3, 40614, Note_off_c, 1, 58, 64
3, 40620, Note_on_c, 1, 60, 105
3, 40632, Note_off_c, 1, 60, 64
3, 40635, Note_on_c, 1, 58, 105
3, 40647, Note_off_c, 1, 58, 64
3, 40650, Note_on_c, 1, 60, 105
3, 40662, Note_off_c, 1, 60, 64
3, 40665, Note_on_c, 1, 58, 105
3, 40677, Note_off_c, 1, 58, 64
3, 40680, Note_on_c, 1, 60, 105
3, 40692, Note_off_c, 1, 60, 64
3, 40695, Note_on_c, 1, 58, 105
3, 40707, Note_off_c, 1, 58, 64
3, 40710, Note_on_c, 1, 60, 107
3, 40725, Note_off_c, 1, 60, 64
3, 40725, Note_on_c, 1, 58, 107
3, 40740, Note_off_c, 1, 58, 64
3, 40740, Note_on_c, 1, 60, 107
3, 40755, Note_off_c, 1, 60, 64
3, 40755, Note_on_c, 1, 58, 107
3, 40770, Note_off_c, 1, 58, 64
3, 40770, Note_on_c, 1, 60, 107
3, 40785, Note_off_c, 1, 60, 64
3, 40785, Note_on_c, 1, 58, 107
3, 40800, Note_off_c, 1, 58, 64
3, 40800, Note_on_c, 1, 57, 107
3, 40815, Note_off_c, 1, 57, 64
3, 40815, Note_on_c, 1, 58, 107
3, 40839, Note_off_c, 1, 58, 64
3, 40845, Note_on_c, 1, 60, 107
3, 40941, Note_off_c, 1, 60, 64
3, 40965, Note_on_c, 1, 48, 107
3, 41061, Note_off_c, 1, 48, 64
3, 41145, Note_on_c, 1, 48, 107
3, 41193, Note_off_c, 1, 48, 64
3, 41205, Note_on_c, 1, 46, 107
3, 41253, Note_off_c, 1, 46, 64
3, 41265, Note_on_c, 1, 45, 107
3, 41313, Note_off_c, 1, 45, 64
3, 41340, Note_on_c, 1, 43, 107
3, 41436, Note_off_c, 1, 43, 64
3, 41460, Note_on_c, 1, 55, 107
3, 41484, Note_off_c, 1, 55, 64
3, 41490, Note_on_c, 1, 57, 107
3, 41514, Note_off_c, 1, 57, 64
3, 41520, Note_on_c, 1, 55, 107
3, 41544, Note_off_c, 1, 55, 64
3, 41550, Note_on_c, 1, 57, 107
3, 41574, Note_off_c, 1, 57, 64
3, 41580, Note_on_c, 1, 58, 105
3, 41592, Note_off_c, 1, 58, 64
3, 41595, Note_on_c, 1, 57, 105
3, 41607, Note_off_c, 1, 57, 64
3, 41610, Note_on_c, 1, 58, 107
3, 41625, Note_off_c, 1, 58, 64
3, 41625, Note_on_c, 1, 57, 107
3, 41640, Note_off_c, 1, 57, 64
3, 41640, Note_on_c, 1, 58, 107
3, 41655, Note_off_c, 1, 58, 64
3, 41655, Note_on_c, 1, 57, 107
3, 41670, Note_off_c, 1, 57, 64
3, 41670, Note_on_c, 1, 58, 107
3, 41685, Note_off_c, 1, 58, 64
3, 41685, Note_on_c, 1, 57, 107
3, 41700, Note_off_c, 1, 57, 64
3, 41700, Note_on_c, 1, 58, 105
3, 41715, Note_off_c, 1, 58, 64
3, 41715, Note_on_c, 1, 57, 105
3, 41730, Note_off_c, 1, 57, 64
3, 41730, Note_on_c, 1, 58, 105
3, 41745, Note_off_c, 1, 58, 64
3, 41745, Note_on_c, 1, 57, 105
3, 41760, Note_off_c, 1, 57, 64
3, 41760, Note_on_c, 1, 55, 107
3, 41784, Note_off_c, 1, 55, 64
3, 41790, Note_on_c, 1, 57, 107
3, 41814, Note_off_c, 1, 57, 64
3, 41820, Note_on_c, 1, 58, 107
3, 41916, Note_off_c, 1, 58, 64
3, 41940, Note_on_c, 1, 46, 107
3, 42036, Note_off_c, 1, 46, 64
3, 42120, Note_on_c, 1, 53, 107
3, 42144, Note_off_c, 1, 53, 64
3, 42150, Note_on_c, 1, 55, 107
3, 42174, Note_off_c, 1, 55, 64
3, 42180, Note_on_c, 1, 57, 107
3, 42204, Note_off_c, 1, 57, 64
3, 42210, Note_on_c, 1, 55, 107
3, 42234, Note_off_c, 1, 55, 64
3, 42240, Note_on_c, 1, 53, 107
3, 42264, Note_off_c, 1, 53, 64
3, 42270, Note_on_c, 1, 55, 107
3, 42294, Note_off_c, 1, 55, 64
3, 42300, Note_on_c, 1, 57, 107
3, 42332, Note_off_c, 1, 57, 64
3, 42340, Note_on_c, 1, 55, 107
3, 42372, Note_off_c, 1, 55, 64
3, 42380, Note_on_c, 1, 57, 107
3, 42412, Note_off_c, 1, 57, 64
3, 42420, Note_on_c, 1, 58, 107
3, 42452, Note_off_c, 1, 58, 64
3, 42460, Note_on_c, 1, 57, 107
3, 42492, Note_off_c, 1, 57, 64
3, 42500, Note_on_c, 1, 58, 107
3, 42532, Note_off_c, 1, 58, 64
3, 42540, Note_on_c, 1, 60, 107
3, 42572, Note_off_c, 1, 60, 64
3, 42580, Note_on_c, 1, 58, 107
3, 42612, Note_off_c, 1, 58, 64
3, 42620, Note_on_c, 1, 60, 107
3, 42652, Note_off_c, 1, 60, 64
3, 42660, Note_on_c, 1, 62, 107
3, 42692, Note_off_c, 1, 62, 64
3, 42700, Note_on_c, 1, 60, 107
3, 42732, Note_off_c, 1, 60, 64
3, 42740, Note_on_c, 1, 62, 107
3, 42772, Note_off_c, 1, 62, 64
3, 42780, Note_on_c, 1, 64, 107
3, 42812, Note_off_c, 1, 64, 64
3, 42820, Note_on_c, 1, 62, 107
3, 42852, Note_off_c, 1, 62, 64
3, 42860, Note_on_c, 1, 64, 107
3, 42892, Note_off_c, 1, 64, 64
3, 42900, Note_on_c, 1, 65, 107
3, 42948, Note_off_c, 1, 65, 64
3, 42960, Note_on_c, 1, 57, 107
3, 43008, Note_off_c, 1, 57, 64
3, 43020, Note_on_c, 1, 58, 107
3, 43212, Note_off_c, 1, 58, 64
3, 43260, Note_on_c, 1, 60, 107
3, 43548, Note_off_c, 1, 60, 64
3, 43560, Note_on_c, 1, 58, 107
3, 43608, Note_off_c, 1, 58, 64
3, 43620, Note_on_c, 1, 57, 107
3, 43668, Note_off_c, 1, 57, 64
3, 43680, Note_on_c, 1, 55, 107
3, 43728, Note_off_c, 1, 55, 64
3, 43740, Note_on_c, 1, 53, 107
3, 43836, Note_off_c, 1, 53, 64
3, 43860, Note_on_c, 1, 56, 107
3, 43956, Note_off_c, 1, 56, 64
3, 43980, Note_on_c, 1, 50, 107
3, 44076, Note_off_c, 1, 50, 64
3, 44100, Note_on_c, 1, 53, 107
3, 44196, Note_off_c, 1, 53, 64
3, 44220, Note_on_c, 1, 47, 107
3, 44316, Note_off_c, 1, 47, 64
3, 44340, Note_on_c, 1, 50, 107
3, 44436, Note_off_c, 1, 50, 64
3, 44460, Note_on_c, 1, 43, 107
3, 44556, Note_off_c, 1, 43, 64
3, 44580, Note_on_c, 1, 46, 107
3, 44676, Note_off_c, 1, 46, 64
3, 44700, Note_on_c, 1, 40, 107
3, 44892, Note_off_c, 1, 40, 64
3, 45000, Note_on_c, 1, 58, 107
3, 45048, Note_off_c, 1, 58, 64
3, 45060, Note_on_c, 1, 57, 107
3, 45108, Note_off_c, 1, 57, 64
3, 45120, Note_on_c, 1, 55, 107
3, 45168, Note_off_c, 1, 55, 64
3, 45180, Note_on_c, 1, 53, 107
3, 45228, Note_off_c, 1, 53, 64
3, 45240, Note_on_c, 1, 57, 107
3, 45288, Note_off_c, 1, 57, 64
3, 45300, Note_on_c, 1, 62, 107
3, 45348, Note_off_c, 1, 62, 64
3, 45360, Note_on_c, 1, 58, 107
3, 45408, Note_off_c, 1, 58, 64
3, 45420, Note_on_c, 1, 60, 107
3, 45516, Note_off_c, 1, 60, 64
3, 45540, Note_on_c, 1, 48, 107
3, 45636, Note_off_c, 1, 48, 64
3, 45660, Note_on_c, 1, 53, 107
3, 45720, Note_on_c, 1, 41, 107
3, 45720, Note_on_c, 1, 41, 107
3, 45768, Note_off_c, 1, 41, 64
3, 45780, Note_on_c, 1, 45, 107
3, 45828, Note_off_c, 1, 45, 64
3, 45840, Note_on_c, 1, 48, 107
3, 45852, Note_off_c, 1, 53, 64
3, 45888, Note_off_c, 1, 48, 64
3, 45900, Note_on_c, 1, 53, 107
3, 45996, Note_off_c, 1, 41, 64
3, 45996, Note_off_c, 1, 53, 64
3, 45996, End_track
4, 0, Start_track
4, 0, Title_t, "Arr. Gary Bricault, (c) 1997"
4, 0, End_track
0, 0, End_of_file
