0, 0, Header, 1, 3, 384
1, 0, Start_track
1, 0, Time_signature, 4, 2, 24, 8
1, 0, Tempo, 500000
1, 165888, End_track
2, 0, Start_track
2, 0, Text_t, "harpsichord: John Sankey"
2, 0, Program_c, 0, 6
2, 0, Pitch_bend_c, 0, 8192
2, 0, Program_c, 1, 6
2, 0, Pitch_bend_c, 1, 7792
2, 0, Program_c, 2, 6
2, 0, Pitch_bend_c, 2, 7876
2, 0, Program_c, 3, 6
2, 0, Pitch_bend_c, 3, 7952
2, 0, Program_c, 4, 6
2, 0, Pitch_bend_c, 4, 7792
2, 0, Program_c, 5, 6
2, 0, Pitch_bend_c, 5, 8112
2, 0, Program_c, 6, 6
2, 0, Pitch_bend_c, 6, 7712
2, 0, Program_c, 7, 6
2, 0, Pitch_bend_c, 7, 8037
2, 0, Program_c, 8, 6
2, 0, Pitch_bend_c, 8, 7872
2, 0, Program_c, 10, 6
2, 0, Pitch_bend_c, 10, 7712
2, 0, Program_c, 11, 6
2, 0, Pitch_bend_c, 11, 8032
2, 0, Program_c, 12, 6
2, 0, Pitch_bend_c, 12, 7872
2, 0, Title_t, "Track 1"
2, 64, Note_on_c, 6, 66, 127
2, 232, Note_on_c, 11, 70, 127
2, 244, Note_off_c, 6, 66, 127
2, 358, Note_off_c, 11, 70, 127
2, 401, Note_on_c, 1, 73, 127
2, 527, Note_off_c, 1, 73, 127
2, 570, Note_on_c, 11, 70, 127
2, 739, Note_on_c, 6, 66, 127
2, 750, Note_off_c, 11, 70, 127
2, 865, Note_off_c, 6, 66, 127
2, 908, Note_on_c, 1, 73, 127
2, 1034, Note_off_c, 1, 73, 127
2, 1077, Note_on_c, 3, 75, 127
2, 1077, Note_on_c, 6, 54, 127
2, 1162, Note_on_c, 1, 73, 127
2, 1173, Note_off_c, 3, 75, 127
2, 1246, Note_on_c, 3, 75, 127
2, 1246, Note_on_c, 11, 58, 127
2, 1257, Note_off_c, 6, 54, 127
2, 1258, Note_off_c, 1, 73, 127
2, 1331, Note_on_c, 1, 73, 127
2, 1342, Note_off_c, 3, 75, 127
2, 1372, Note_off_c, 11, 58, 127
2, 1415, Note_on_c, 3, 75, 127
2, 1415, Note_on_c, 1, 61, 127
2, 1427, Note_off_c, 1, 73, 127
2, 1500, Note_on_c, 1, 73, 127
2, 1511, Note_off_c, 3, 75, 127
2, 1541, Note_off_c, 1, 61, 127
2, 1584, Note_on_c, 3, 75, 127
2, 1584, Note_on_c, 11, 58, 127
2, 1596, Note_off_c, 1, 73, 127
2, 1669, Note_on_c, 1, 73, 127
2, 1680, Note_off_c, 3, 75, 127
2, 1753, Note_on_c, 3, 75, 127
2, 1753, Note_on_c, 6, 54, 127
2, 1764, Note_off_c, 11, 58, 127
2, 1765, Note_off_c, 1, 73, 127
2, 1833, Note_off_c, 3, 75, 127
2, 1838, Note_on_c, 1, 73, 127
2, 1893, Note_off_c, 6, 54, 127
2, 1918, Note_off_c, 1, 73, 127
2, 1922, Note_on_c, 12, 71, 127
2, 1922, Note_on_c, 3, 63, 127
2, 2002, Note_off_c, 12, 71, 127
2, 2007, Note_on_c, 1, 73, 127
2, 2080, Note_off_c, 3, 63, 127
2, 2091, Note_on_c, 3, 63, 127
2, 2260, Note_on_c, 11, 70, 127
2, 2283, Note_off_c, 1, 73, 127
2, 2386, Note_off_c, 11, 70, 127
2, 2429, Note_on_c, 12, 71, 127
2, 2594, Note_off_c, 3, 63, 127
2, 2598, Note_on_c, 1, 61, 127
2, 2759, Note_off_c, 12, 71, 127
2, 2767, Note_on_c, 1, 73, 127
2, 2837, Note_off_c, 1, 73, 127
2, 2936, Note_on_c, 11, 70, 127
2, 3101, Note_off_c, 1, 61, 127
2, 3105, Note_on_c, 12, 59, 127
2, 3270, Note_off_c, 11, 70, 127
2, 3274, Note_on_c, 3, 75, 127
2, 3379, Note_off_c, 3, 75, 127
2, 3443, Note_on_c, 8, 68, 127
2, 3608, Note_off_c, 12, 59, 127
2, 3612, Note_on_c, 11, 58, 127
2, 3777, Note_off_c, 8, 68, 127
2, 3781, Note_on_c, 11, 70, 127
2, 3904, Note_off_c, 11, 70, 127
2, 3950, Note_on_c, 6, 66, 127
2, 4115, Note_off_c, 11, 58, 127
2, 4119, Note_on_c, 8, 56, 127
2, 4284, Note_off_c, 6, 66, 127
2, 4288, Note_on_c, 12, 71, 127
2, 4421, Note_off_c, 12, 71, 127
2, 4456, Note_on_c, 5, 65, 127
2, 4622, Note_off_c, 8, 56, 127
2, 4625, Note_on_c, 6, 54, 127
2, 4790, Note_off_c, 5, 65, 127
2, 4794, Note_on_c, 12, 71, 127
2, 4927, Note_off_c, 12, 71, 127
2, 4963, Note_on_c, 3, 63, 127
2, 5128, Note_off_c, 6, 54, 127
2, 5132, Note_on_c, 5, 53, 127
2, 5297, Note_off_c, 3, 63, 127
2, 5301, Note_on_c, 12, 71, 127
2, 5418, Note_off_c, 12, 71, 127
2, 5470, Note_on_c, 1, 61, 127
2, 5628, Note_off_c, 1, 61, 127
2, 5635, Note_off_c, 5, 53, 127
2, 5639, Note_on_c, 5, 65, 127
2, 5639, Note_on_c, 1, 49, 127
2, 5806, Note_off_c, 5, 65, 127
2, 5808, Note_on_c, 8, 68, 127
2, 5948, Note_off_c, 8, 68, 127
2, 5977, Note_on_c, 12, 71, 127
2, 6117, Note_off_c, 12, 71, 127
2, 6142, Note_off_c, 1, 49, 127
2, 6146, Note_on_c, 11, 70, 127
2, 6146, Note_on_c, 6, 54, 127
2, 6313, Note_off_c, 11, 70, 127
2, 6315, Note_on_c, 6, 66, 127
2, 6403, Note_off_c, 6, 66, 127
2, 6484, Note_on_c, 0, 72, 127
2, 6649, Note_off_c, 6, 54, 127
2, 6653, Note_on_c, 8, 56, 127
2, 6818, Note_off_c, 0, 72, 127
2, 6822, Note_on_c, 6, 66, 127
2, 6955, Note_off_c, 6, 66, 127
2, 6991, Note_on_c, 1, 73, 127
2, 7156, Note_off_c, 8, 56, 127
2, 7160, Note_on_c, 11, 58, 127
2, 7325, Note_off_c, 1, 73, 127
2, 7329, Note_on_c, 6, 66, 127
2, 7462, Note_off_c, 6, 66, 127
2, 7498, Note_on_c, 3, 75, 127
2, 7663, Note_off_c, 11, 58, 127
2, 7667, Note_on_c, 0, 60, 127
2, 7832, Note_off_c, 3, 75, 127
2, 7836, Note_on_c, 8, 68, 127
2, 7969, Note_off_c, 8, 68, 127
2, 8005, Note_on_c, 5, 77, 127
2, 8170, Note_off_c, 0, 60, 127
2, 8174, Note_on_c, 1, 61, 127
2, 8339, Note_off_c, 5, 77, 127
2, 8343, Note_on_c, 8, 80, 127
2, 8476, Note_off_c, 8, 80, 127
2, 8512, Note_on_c, 1, 73, 127
2, 8677, Note_off_c, 1, 61, 127
2, 8680, Note_on_c, 8, 56, 127
2, 8846, Note_off_c, 1, 73, 127
2, 8849, Note_on_c, 3, 75, 127
2, 8966, Note_off_c, 3, 75, 127
2, 9018, Note_on_c, 0, 72, 127
2, 9135, Note_off_c, 0, 72, 127
2, 9183, Note_off_c, 8, 56, 127
2, 9187, Note_on_c, 1, 73, 127
2, 9187, Note_on_c, 11, 58, 127
2, 9354, Note_off_c, 1, 73, 127
2, 9356, Note_on_c, 5, 77, 127
2, 9489, Note_off_c, 5, 77, 127
2, 9525, Note_on_c, 1, 73, 127
2, 9690, Note_off_c, 11, 58, 127
2, 9694, Note_on_c, 5, 53, 127
2, 9859, Note_off_c, 1, 73, 127
2, 9863, Note_on_c, 5, 77, 127
2, 9943, Note_off_c, 5, 77, 127
2, 9948, Note_on_c, 3, 75, 127
2, 10028, Note_off_c, 3, 75, 127
2, 10032, Note_on_c, 1, 73, 127
2, 10197, Note_off_c, 5, 53, 127
2, 10201, Note_on_c, 6, 54, 127
2, 10366, Note_off_c, 1, 73, 127
2, 10370, Note_on_c, 11, 82, 127
2, 10503, Note_off_c, 11, 82, 127
2, 10539, Note_on_c, 1, 73, 127
2, 10704, Note_off_c, 6, 54, 127
2, 10708, Note_on_c, 8, 56, 127
2, 10873, Note_off_c, 1, 73, 127
2, 10877, Note_on_c, 3, 75, 127
2, 10994, Note_off_c, 3, 75, 127
2, 11046, Note_on_c, 0, 72, 127
2, 11163, Note_off_c, 0, 72, 127
2, 11211, Note_off_c, 8, 56, 127
2, 11215, Note_on_c, 1, 73, 127
2, 11215, Note_on_c, 1, 49, 127
2, 11382, Note_off_c, 1, 73, 127
2, 11384, Note_on_c, 5, 77, 127
2, 11524, Note_off_c, 5, 77, 127
2, 11553, Note_on_c, 8, 80, 127
2, 11693, Note_off_c, 8, 80, 127
2, 11722, Note_on_c, 5, 77, 127
2, 11889, Note_off_c, 5, 77, 127
2, 11891, Note_on_c, 1, 73, 127
2, 12031, Note_off_c, 1, 73, 127
2, 12060, Note_on_c, 8, 80, 127
2, 12200, Note_off_c, 8, 80, 127
2, 12225, Note_off_c, 1, 49, 127
2, 12229, Note_on_c, 11, 82, 127
2, 12229, Note_on_c, 1, 49, 127
2, 12313, Note_on_c, 8, 80, 127
2, 12325, Note_off_c, 11, 82, 127
2, 12396, Note_off_c, 1, 49, 127
2, 12398, Note_on_c, 11, 82, 127
2, 12398, Note_on_c, 5, 53, 127
2, 12409, Note_off_c, 8, 80, 127
2, 12482, Note_on_c, 8, 80, 127
2, 12494, Note_off_c, 11, 82, 127
2, 12538, Note_off_c, 5, 53, 127
2, 12567, Note_on_c, 11, 82, 127
2, 12567, Note_on_c, 8, 56, 127
2, 12578, Note_off_c, 8, 80, 127
2, 12651, Note_on_c, 8, 80, 127
2, 12663, Note_off_c, 11, 82, 127
2, 12707, Note_off_c, 8, 56, 127
2, 12736, Note_on_c, 11, 82, 127
2, 12736, Note_on_c, 5, 53, 127
2, 12747, Note_off_c, 8, 80, 127
2, 12820, Note_on_c, 8, 80, 127
2, 12832, Note_off_c, 11, 82, 127
2, 12903, Note_off_c, 5, 53, 127
2, 12904, Note_on_c, 11, 82, 127
2, 12904, Note_on_c, 1, 49, 127
2, 12916, Note_off_c, 8, 80, 127
2, 12984, Note_off_c, 11, 82, 127
2, 12989, Note_on_c, 8, 80, 127
2, 13044, Note_off_c, 1, 49, 127
2, 13069, Note_off_c, 8, 80, 127
2, 13073, Note_on_c, 6, 78, 127
2, 13073, Note_on_c, 11, 58, 127
2, 13153, Note_off_c, 6, 78, 127
2, 13158, Note_on_c, 8, 80, 127
2, 13213, Note_off_c, 11, 58, 127
2, 13242, Note_on_c, 11, 58, 127
2, 13407, Note_off_c, 8, 80, 127
2, 13411, Note_on_c, 5, 77, 127
2, 13544, Note_off_c, 5, 77, 127
2, 13580, Note_on_c, 6, 78, 127
2, 13745, Note_off_c, 11, 58, 127
2, 13749, Note_on_c, 8, 56, 127
2, 13914, Note_off_c, 6, 78, 127
2, 13918, Note_on_c, 8, 80, 127
2, 14051, Note_off_c, 8, 80, 127
2, 14087, Note_on_c, 5, 77, 127
2, 14252, Note_off_c, 8, 56, 127
2, 14256, Note_on_c, 6, 54, 127
2, 14421, Note_off_c, 5, 77, 127
2, 14425, Note_on_c, 11, 82, 127
2, 14558, Note_off_c, 11, 82, 127
2, 14594, Note_on_c, 3, 75, 127
2, 14759, Note_off_c, 6, 54, 127
2, 14763, Note_on_c, 5, 53, 127
2, 14928, Note_off_c, 3, 75, 127
2, 14932, Note_on_c, 5, 77, 127
2, 15049, Note_off_c, 5, 77, 127
2, 15101, Note_on_c, 2, 74, 127
2, 15218, Note_off_c, 2, 74, 127
2, 15266, Note_off_c, 5, 53, 127
2, 15270, Note_on_c, 6, 78, 127
2, 15270, Note_on_c, 3, 51, 127
2, 15437, Note_off_c, 6, 78, 127
2, 15439, Note_on_c, 11, 70, 127
2, 15607, Note_off_c, 11, 70, 127
2, 15608, Note_on_c, 12, 71, 127
2, 15773, Note_off_c, 3, 51, 127
2, 15777, Note_on_c, 1, 49, 127
2, 15942, Note_off_c, 12, 71, 127
2, 15946, Note_on_c, 1, 73, 127
2, 16079, Note_off_c, 1, 73, 127
2, 16115, Note_on_c, 11, 70, 127
2, 16280, Note_off_c, 1, 49, 127
2, 16284, Note_on_c, 12, 47, 127
2, 16449, Note_off_c, 11, 70, 127
2, 16453, Note_on_c, 3, 75, 127
2, 16586, Note_off_c, 3, 75, 127
2, 16622, Note_on_c, 8, 68, 127
2, 16787, Note_off_c, 12, 47, 127
2, 16791, Note_on_c, 11, 46, 127
2, 16956, Note_off_c, 8, 68, 127
2, 16960, Note_on_c, 11, 70, 127
2, 17093, Note_off_c, 11, 70, 127
2, 17128, Note_on_c, 6, 66, 127
2, 17294, Note_off_c, 11, 46, 127
2, 17297, Note_on_c, 8, 44, 127
2, 17462, Note_off_c, 6, 66, 127
2, 17466, Note_on_c, 12, 71, 127
2, 17599, Note_off_c, 12, 71, 127
2, 17635, Note_on_c, 4, 64, 127
2, 17800, Note_off_c, 8, 44, 127
2, 17804, Note_on_c, 6, 42, 127
2, 17969, Note_off_c, 4, 64, 127
2, 17973, Note_on_c, 6, 66, 127
2, 18113, Note_off_c, 6, 66, 127
2, 18142, Note_on_c, 3, 63, 127
2, 18282, Note_off_c, 3, 63, 127
2, 18307, Note_off_c, 6, 42, 127
2, 18311, Note_on_c, 8, 68, 127
2, 18311, Note_on_c, 5, 41, 127
2, 18478, Note_off_c, 8, 68, 127
2, 18480, Note_on_c, 2, 62, 127
2, 18649, Note_on_c, 3, 63, 127
2, 18654, Note_off_c, 2, 62, 127
2, 18814, Note_off_c, 5, 41, 127
2, 18818, Note_on_c, 3, 51, 127
2, 18983, Note_off_c, 3, 63, 127
2, 18987, Note_on_c, 2, 62, 127
2, 19120, Note_off_c, 2, 62, 127
2, 19156, Note_on_c, 8, 68, 127
2, 19321, Note_off_c, 3, 51, 127
2, 19325, Note_on_c, 2, 50, 127
2, 19490, Note_off_c, 8, 68, 127
2, 19494, Note_on_c, 5, 65, 127
2, 19627, Note_off_c, 5, 65, 127
2, 19663, Note_on_c, 12, 71, 127
2, 19828, Note_off_c, 2, 50, 127
2, 19832, Note_on_c, 11, 46, 127
2, 19997, Note_off_c, 12, 71, 127
2, 20001, Note_on_c, 8, 68, 127
2, 20134, Note_off_c, 8, 68, 127
2, 20170, Note_on_c, 5, 77, 127
2, 20335, Note_off_c, 11, 46, 127
2, 20339, Note_on_c, 3, 51, 127
2, 20504, Note_off_c, 5, 77, 127
2, 20508, Note_on_c, 5, 65, 127
2, 20641, Note_off_c, 5, 65, 127
2, 20677, Note_on_c, 6, 66, 127
2, 20842, Note_off_c, 3, 51, 127
2, 20846, Note_on_c, 6, 54, 127
2, 21011, Note_off_c, 6, 66, 127
2, 21015, Note_on_c, 11, 70, 127
2, 21148, Note_off_c, 11, 70, 127
2, 21184, Note_on_c, 3, 75, 127
2, 21349, Note_off_c, 6, 54, 127
2, 21352, Note_on_c, 8, 56, 127
2, 21518, Note_off_c, 3, 75, 127
2, 21521, Note_on_c, 5, 65, 127
2, 21654, Note_off_c, 5, 65, 127
2, 21690, Note_on_c, 8, 68, 127
2, 21855, Note_off_c, 8, 56, 127
2, 21859, Note_on_c, 11, 58, 127
2, 22024, Note_off_c, 8, 68, 127
2, 22028, Note_on_c, 11, 70, 127
2, 22145, Note_off_c, 11, 70, 127
2, 22197, Note_on_c, 2, 74, 127
2, 22314, Note_off_c, 2, 74, 127
2, 22362, Note_off_c, 11, 58, 127
2, 22366, Note_on_c, 5, 77, 127
2, 22366, Note_on_c, 3, 51, 127
2, 22451, Note_on_c, 3, 75, 127
2, 22462, Note_off_c, 5, 77, 127
2, 22533, Note_off_c, 3, 51, 127
2, 22535, Note_on_c, 5, 77, 127
2, 22535, Note_on_c, 6, 54, 127
2, 22547, Note_off_c, 3, 75, 127
2, 22620, Note_on_c, 3, 75, 127
2, 22631, Note_off_c, 5, 77, 127
2, 22693, Note_off_c, 6, 54, 127
2, 22704, Note_on_c, 5, 77, 127
2, 22704, Note_on_c, 11, 58, 127
2, 22716, Note_off_c, 3, 75, 127
2, 22789, Note_on_c, 3, 75, 127
2, 22800, Note_off_c, 5, 77, 127
2, 22862, Note_off_c, 11, 58, 127
2, 22873, Note_on_c, 5, 77, 127
2, 22873, Note_on_c, 6, 54, 127
2, 22885, Note_off_c, 3, 75, 127
2, 22958, Note_on_c, 3, 75, 127
2, 22969, Note_off_c, 5, 77, 127
2, 23031, Note_off_c, 6, 54, 127
2, 23042, Note_on_c, 5, 77, 127
2, 23042, Note_on_c, 3, 51, 127
2, 23054, Note_off_c, 3, 75, 127
2, 23122, Note_off_c, 5, 77, 127
2, 23127, Note_on_c, 3, 75, 127
2, 23200, Note_off_c, 3, 51, 127
2, 23207, Note_off_c, 3, 75, 127
2, 23211, Note_on_c, 2, 74, 127
2, 23211, Note_on_c, 0, 60, 127
2, 23291, Note_off_c, 2, 74, 127
2, 23296, Note_on_c, 3, 75, 127
2, 23369, Note_off_c, 0, 60, 127
2, 23380, Note_on_c, 1, 61, 127
2, 23460, Note_off_c, 1, 61, 127
2, 23464, Note_on_c, 0, 60, 127
2, 23544, Note_off_c, 0, 60, 127
2, 23545, Note_off_c, 3, 75, 127
2, 23549, Note_on_c, 6, 78, 127
2, 23549, Note_on_c, 1, 61, 127
2, 23629, Note_off_c, 1, 61, 127
2, 23633, Note_on_c, 0, 60, 127
2, 23689, Note_off_c, 6, 78, 127
2, 23713, Note_off_c, 0, 60, 127
2, 23718, Note_on_c, 11, 82, 127
2, 23718, Note_on_c, 1, 61, 127
2, 23798, Note_off_c, 1, 61, 127
2, 23802, Note_on_c, 0, 60, 127
2, 23858, Note_off_c, 11, 82, 127
2, 23882, Note_off_c, 0, 60, 127
2, 23887, Note_on_c, 6, 78, 127
2, 23887, Note_on_c, 1, 61, 127
2, 23967, Note_off_c, 1, 61, 127
2, 23971, Note_on_c, 0, 60, 127
2, 24027, Note_off_c, 6, 78, 127
2, 24051, Note_off_c, 0, 60, 127
2, 24056, Note_on_c, 3, 75, 127
2, 24056, Note_on_c, 1, 61, 127
2, 24136, Note_off_c, 1, 61, 127
2, 24140, Note_on_c, 0, 60, 127
2, 24196, Note_off_c, 3, 75, 127
2, 24220, Note_off_c, 0, 60, 127
2, 24225, Note_on_c, 10, 81, 127
2, 24225, Note_on_c, 11, 58, 127
2, 24305, Note_off_c, 11, 58, 127
2, 24309, Note_on_c, 0, 60, 127
2, 24365, Note_off_c, 10, 81, 127
2, 24394, Note_on_c, 11, 82, 127
2, 24478, Note_on_c, 10, 81, 127
2, 24490, Note_off_c, 11, 82, 127
2, 24558, Note_off_c, 0, 60, 127
2, 24563, Note_on_c, 11, 82, 127
2, 24563, Note_on_c, 3, 63, 127
2, 24574, Note_off_c, 10, 81, 127
2, 24647, Note_on_c, 10, 81, 127
2, 24659, Note_off_c, 11, 82, 127
2, 24703, Note_off_c, 3, 63, 127
2, 24732, Note_on_c, 11, 82, 127
2, 24732, Note_on_c, 6, 66, 127
2, 24743, Note_off_c, 10, 81, 127
2, 24816, Note_on_c, 10, 81, 127
2, 24828, Note_off_c, 11, 82, 127
2, 24872, Note_off_c, 6, 66, 127
2, 24901, Note_on_c, 11, 82, 127
2, 24901, Note_on_c, 3, 63, 127
2, 24912, Note_off_c, 10, 81, 127
2, 24985, Note_on_c, 10, 81, 127
2, 24997, Note_off_c, 11, 82, 127
2, 25041, Note_off_c, 3, 63, 127
2, 25070, Note_on_c, 11, 82, 127
2, 25070, Note_on_c, 0, 60, 127
2, 25081, Note_off_c, 10, 81, 127
2, 25150, Note_off_c, 11, 82, 127
2, 25154, Note_on_c, 10, 81, 127
2, 25210, Note_off_c, 0, 60, 127
2, 25234, Note_off_c, 10, 81, 127
2, 25239, Note_on_c, 7, 79, 127
2, 25239, Note_on_c, 6, 66, 127
2, 25319, Note_off_c, 7, 79, 127
2, 25323, Note_on_c, 10, 81, 127
2, 25379, Note_off_c, 6, 66, 127
2, 25408, Note_on_c, 6, 66, 127
2, 25572, Note_off_c, 10, 81, 127
2, 25575, Note_off_c, 6, 66, 127
2, 25576, Note_on_c, 11, 82, 127
2, 25576, Note_on_c, 5, 65, 127
2, 25708, Note_off_c, 5, 65, 127
2, 25708, Note_off_c, 11, 82, 127
2, 25745, Note_on_c, 0, 84, 127
2, 25745, Note_on_c, 3, 63, 127
2, 25877, Note_off_c, 3, 63, 127
2, 25877, Note_off_c, 0, 84, 127
2, 25914, Note_on_c, 5, 77, 127
2, 25914, Note_on_c, 1, 61, 127
2, 26081, Note_off_c, 1, 61, 127
2, 26081, Note_off_c, 5, 77, 127
2, 26083, Note_on_c, 6, 78, 127
2, 26083, Note_on_c, 3, 63, 127
2, 26215, Note_off_c, 3, 63, 127
2, 26215, Note_off_c, 6, 78, 127
2, 26252, Note_on_c, 3, 75, 127
2, 26252, Note_on_c, 5, 65, 127
2, 26384, Note_off_c, 5, 65, 127
2, 26384, Note_off_c, 3, 75, 127
2, 26421, Note_on_c, 1, 73, 127
2, 26421, Note_on_c, 11, 58, 127
2, 26588, Note_off_c, 1, 73, 127
2, 26590, Note_on_c, 5, 77, 127
2, 26723, Note_off_c, 5, 77, 127
2, 26759, Note_on_c, 11, 70, 127
2, 26924, Note_off_c, 11, 58, 127
2, 26928, Note_on_c, 5, 53, 127
2, 27093, Note_off_c, 11, 70, 127
2, 27097, Note_on_c, 0, 72, 127
2, 27214, Note_off_c, 0, 72, 127
2, 27266, Note_on_c, 10, 69, 127
2, 27383, Note_off_c, 10, 69, 127
2, 27431, Note_off_c, 5, 53, 127
2, 27435, Note_on_c, 11, 70, 127
2, 27435, Note_on_c, 6, 54, 127
2, 27604, Note_on_c, 1, 73, 127
2, 27621, Note_off_c, 11, 70, 127
2, 27737, Note_off_c, 1, 73, 127
2, 27773, Note_on_c, 11, 70, 127
2, 27938, Note_off_c, 6, 54, 127
2, 27942, Note_on_c, 1, 49, 127
2, 28107, Note_off_c, 11, 70, 127
2, 28111, Note_on_c, 1, 73, 127
2, 28191, Note_off_c, 1, 73, 127
2, 28195, Note_on_c, 0, 72, 127
2, 28275, Note_off_c, 0, 72, 127
2, 28280, Note_on_c, 11, 70, 127
2, 28445, Note_off_c, 1, 49, 127
2, 28449, Note_on_c, 3, 51, 127
2, 28614, Note_off_c, 11, 70, 127
2, 28618, Note_on_c, 6, 78, 127
2, 28751, Note_off_c, 6, 78, 127
2, 28787, Note_on_c, 11, 70, 127
2, 28952, Note_off_c, 3, 51, 127
2, 28956, Note_on_c, 5, 53, 127
2, 29121, Note_off_c, 11, 70, 127
2, 29125, Note_on_c, 0, 72, 127
2, 29242, Note_off_c, 0, 72, 127
2, 29294, Note_on_c, 10, 69, 127
2, 29411, Note_off_c, 10, 69, 127
2, 29459, Note_off_c, 5, 53, 127
2, 29463, Note_on_c, 11, 70, 127
2, 29463, Note_on_c, 11, 46, 127
2, 29632, Note_on_c, 1, 73, 127
2, 29763, Note_off_c, 11, 70, 127
2, 29772, Note_off_c, 1, 73, 127
2, 29800, Note_on_c, 5, 77, 127
2, 29940, Note_off_c, 5, 77, 127
2, 29969, Note_on_c, 1, 73, 127
2, 30129, Note_off_c, 1, 73, 127
2, 30138, Note_on_c, 11, 70, 127
2, 30287, Note_off_c, 11, 70, 127
2, 30307, Note_off_c, 11, 46, 127
2, 30307, Note_on_c, 7, 79, 127
2, 30456, Note_off_c, 7, 79, 127
2, 30476, Note_on_c, 8, 80, 127
2, 30476, Note_on_c, 3, 51, 127
2, 30561, Note_on_c, 7, 79, 127
2, 30572, Note_off_c, 8, 80, 127
2, 30634, Note_off_c, 3, 51, 127
2, 30645, Note_on_c, 8, 80, 127
2, 30645, Note_on_c, 7, 55, 127
2, 30657, Note_off_c, 7, 79, 127
2, 30730, Note_on_c, 7, 79, 127
2, 30741, Note_off_c, 8, 80, 127
2, 30803, Note_off_c, 7, 55, 127
2, 30814, Note_on_c, 8, 80, 127
2, 30814, Note_on_c, 11, 58, 127
2, 30826, Note_off_c, 7, 79, 127
2, 30899, Note_on_c, 7, 79, 127
2, 30910, Note_off_c, 8, 80, 127
2, 30972, Note_off_c, 11, 58, 127
2, 30983, Note_on_c, 8, 80, 127
2, 30983, Note_on_c, 7, 55, 127
2, 30995, Note_off_c, 7, 79, 127
2, 31068, Note_on_c, 7, 79, 127
2, 31079, Note_off_c, 8, 80, 127
2, 31141, Note_off_c, 7, 55, 127
2, 31152, Note_on_c, 8, 80, 127
2, 31152, Note_on_c, 3, 51, 127
2, 31164, Note_off_c, 7, 79, 127
2, 31232, Note_off_c, 8, 80, 127
2, 31237, Note_on_c, 7, 79, 127
2, 31310, Note_off_c, 3, 51, 127
2, 31317, Note_off_c, 7, 79, 127
2, 31321, Note_on_c, 5, 77, 127
2, 31321, Note_on_c, 1, 61, 127
2, 31401, Note_off_c, 5, 77, 127
2, 31406, Note_on_c, 7, 79, 127
2, 31479, Note_off_c, 1, 61, 127
2, 31490, Note_on_c, 1, 61, 127
2, 31655, Note_off_c, 7, 79, 127
2, 31659, Note_on_c, 11, 82, 127
2, 31776, Note_off_c, 11, 82, 127
2, 31828, Note_on_c, 3, 75, 127
2, 31945, Note_off_c, 3, 75, 127
2, 31993, Note_off_c, 1, 61, 127
2, 31997, Note_on_c, 1, 73, 127
2, 31997, Note_on_c, 7, 55, 127
2, 32164, Note_off_c, 1, 73, 127
2, 32166, Note_on_c, 12, 71, 127
2, 32315, Note_off_c, 12, 71, 127
2, 32335, Note_on_c, 11, 70, 127
2, 32484, Note_off_c, 11, 70, 127
2, 32500, Note_off_c, 7, 55, 127
2, 32504, Note_on_c, 12, 71, 127
2, 32504, Note_on_c, 8, 56, 127
2, 32671, Note_off_c, 12, 71, 127
2, 32673, Note_on_c, 3, 75, 127
2, 32806, Note_off_c, 3, 75, 127
2, 32842, Note_on_c, 8, 68, 127
2, 33007, Note_off_c, 8, 56, 127
2, 33011, Note_on_c, 3, 51, 127
2, 33176, Note_off_c, 8, 68, 127
2, 33180, Note_on_c, 11, 70, 127
2, 33320, Note_off_c, 11, 70, 127
2, 33349, Note_on_c, 7, 67, 127
2, 33489, Note_off_c, 7, 67, 127
2, 33514, Note_off_c, 3, 51, 127
2, 33518, Note_on_c, 8, 68, 127
2, 33518, Note_on_c, 4, 52, 127
2, 33685, Note_off_c, 8, 68, 127
2, 33687, Note_on_c, 12, 71, 127
2, 33792, Note_off_c, 12, 71, 127
2, 33856, Note_on_c, 8, 68, 127
2, 34021, Note_off_c, 4, 52, 127
2, 34024, Note_on_c, 12, 47, 127
2, 34190, Note_off_c, 8, 68, 127
2, 34193, Note_on_c, 12, 71, 127
2, 34273, Note_off_c, 12, 71, 127
2, 34278, Note_on_c, 11, 70, 127
2, 34358, Note_off_c, 11, 70, 127
2, 34362, Note_on_c, 8, 68, 127
2, 34527, Note_off_c, 12, 47, 127
2, 34531, Note_on_c, 1, 49, 127
2, 34696, Note_off_c, 8, 68, 127
2, 34700, Note_on_c, 4, 76, 127
2, 34833, Note_off_c, 4, 76, 127
2, 34869, Note_on_c, 8, 68, 127
2, 35034, Note_off_c, 1, 49, 127
2, 35038, Note_on_c, 3, 51, 127
2, 35203, Note_off_c, 8, 68, 127
2, 35207, Note_on_c, 11, 70, 127
2, 35339, Note_off_c, 11, 70, 127
2, 35376, Note_on_c, 7, 67, 127
2, 35508, Note_off_c, 7, 67, 127
2, 35541, Note_off_c, 3, 51, 127
2, 35545, Note_on_c, 8, 68, 127
2, 35545, Note_on_c, 8, 44, 127
2, 35712, Note_off_c, 8, 68, 127
2, 35714, Note_on_c, 12, 71, 127
2, 35833, Note_off_c, 12, 71, 127
2, 35883, Note_on_c, 3, 75, 127
2, 36002, Note_off_c, 3, 75, 127
2, 36052, Note_on_c, 12, 71, 127
2, 36219, Note_off_c, 12, 71, 127
2, 36221, Note_on_c, 8, 68, 127
2, 36361, Note_off_c, 8, 68, 127
2, 36389, Note_off_c, 8, 44, 127
2, 36390, Note_on_c, 5, 77, 127
2, 36530, Note_off_c, 5, 77, 127
2, 36559, Note_on_c, 6, 78, 127
2, 36559, Note_on_c, 1, 49, 127
2, 36643, Note_on_c, 5, 77, 127
2, 36655, Note_off_c, 6, 78, 127
2, 36726, Note_off_c, 1, 49, 127
2, 36728, Note_on_c, 6, 78, 127
2, 36728, Note_on_c, 5, 53, 127
2, 36739, Note_off_c, 5, 77, 127
2, 36812, Note_on_c, 5, 77, 127
2, 36824, Note_off_c, 6, 78, 127
2, 36868, Note_off_c, 5, 53, 127
2, 36897, Note_on_c, 6, 78, 127
2, 36897, Note_on_c, 8, 56, 127
2, 36908, Note_off_c, 5, 77, 127
2, 36981, Note_on_c, 5, 77, 127
2, 36993, Note_off_c, 6, 78, 127
2, 37037, Note_off_c, 8, 56, 127
2, 37066, Note_on_c, 6, 78, 127
2, 37066, Note_on_c, 5, 53, 127
2, 37077, Note_off_c, 5, 77, 127
2, 37150, Note_on_c, 5, 77, 127
2, 37162, Note_off_c, 6, 78, 127
2, 37206, Note_off_c, 5, 53, 127
2, 37235, Note_on_c, 6, 78, 127
2, 37235, Note_on_c, 1, 49, 127
2, 37246, Note_off_c, 5, 77, 127
2, 37315, Note_off_c, 6, 78, 127
2, 37319, Note_on_c, 5, 77, 127
2, 37375, Note_off_c, 1, 49, 127
2, 37399, Note_off_c, 5, 77, 127
2, 37404, Note_on_c, 3, 75, 127
2, 37404, Note_on_c, 12, 59, 127
2, 37484, Note_off_c, 3, 75, 127
2, 37488, Note_on_c, 5, 77, 127
2, 37544, Note_off_c, 12, 59, 127
2, 37573, Note_on_c, 12, 59, 127
2, 37737, Note_off_c, 5, 77, 127
2, 37742, Note_on_c, 1, 73, 127
2, 37882, Note_off_c, 1, 73, 127
2, 37911, Note_on_c, 5, 77, 127
2, 38051, Note_off_c, 5, 77, 127
2, 38080, Note_on_c, 8, 80, 127
2, 38220, Note_off_c, 8, 80, 127
2, 38245, Note_off_c, 12, 59, 127
2, 38248, Note_on_c, 5, 77, 127
2, 38248, Note_on_c, 8, 56, 127
2, 38388, Note_off_c, 8, 56, 127
2, 38388, Note_off_c, 5, 77, 127
2, 38417, Note_on_c, 8, 80, 127
2, 38417, Note_on_c, 12, 59, 127
2, 38557, Note_off_c, 12, 59, 127
2, 38557, Note_off_c, 8, 80, 127
2, 38586, Note_on_c, 12, 83, 127
2, 38586, Note_on_c, 5, 65, 127
2, 38671, Note_on_c, 11, 82, 127
2, 38682, Note_off_c, 12, 83, 127
2, 38744, Note_off_c, 5, 65, 127
2, 38755, Note_on_c, 12, 83, 127
2, 38755, Note_on_c, 8, 68, 127
2, 38767, Note_off_c, 11, 82, 127
2, 38840, Note_on_c, 11, 82, 127
2, 38851, Note_off_c, 12, 83, 127
2, 38913, Note_off_c, 8, 68, 127
2, 38924, Note_on_c, 12, 83, 127
2, 38924, Note_on_c, 5, 65, 127
2, 38936, Note_off_c, 11, 82, 127
2, 39082, Note_off_c, 5, 65, 127
2, 39093, Note_on_c, 1, 61, 127
2, 39251, Note_off_c, 1, 61, 127
2, 39262, Note_on_c, 5, 65, 127
2, 39420, Note_off_c, 5, 65, 127
2, 39431, Note_on_c, 1, 61, 127
2, 39589, Note_off_c, 1, 61, 127
2, 39600, Note_on_c, 6, 54, 127
2, 39765, Note_off_c, 12, 83, 127
2, 39769, Note_on_c, 8, 80, 127
2, 39874, Note_off_c, 8, 80, 127
2, 39938, Note_on_c, 11, 82, 127
2, 40103, Note_off_c, 6, 54, 127
2, 40107, Note_on_c, 12, 59, 127
2, 40272, Note_off_c, 11, 82, 127
2, 40276, Note_on_c, 12, 83, 127
2, 40409, Note_off_c, 12, 83, 127
2, 40445, Note_on_c, 8, 80, 127
2, 40610, Note_off_c, 12, 59, 127
2, 40614, Note_on_c, 0, 60, 127
2, 40779, Note_off_c, 8, 80, 127
2, 40783, Note_on_c, 5, 77, 127
2, 40916, Note_off_c, 5, 77, 127
2, 40952, Note_on_c, 6, 78, 127
2, 41117, Note_off_c, 0, 60, 127
2, 41121, Note_on_c, 1, 61, 127
2, 41286, Note_off_c, 6, 78, 127
2, 41290, Note_on_c, 8, 80, 127
2, 41430, Note_off_c, 8, 80, 127
2, 41459, Note_on_c, 5, 77, 127
2, 41599, Note_off_c, 5, 77, 127
2, 41624, Note_off_c, 1, 61, 127
2, 41628, Note_on_c, 6, 78, 127
2, 41628, Note_on_c, 3, 51, 127
2, 41795, Note_off_c, 6, 78, 127
2, 41797, Note_on_c, 11, 70, 127
2, 41911, Note_off_c, 11, 70, 127
2, 41966, Note_on_c, 12, 71, 127
2, 42131, Note_off_c, 3, 51, 127
2, 42135, Note_on_c, 1, 49, 127
2, 42300, Note_off_c, 12, 71, 127
2, 42304, Note_on_c, 1, 73, 127
2, 42437, Note_off_c, 1, 73, 127
2, 42472, Note_on_c, 11, 70, 127
2, 42638, Note_off_c, 1, 49, 127
2, 42641, Note_on_c, 12, 47, 127
2, 42806, Note_off_c, 11, 70, 127
2, 42810, Note_on_c, 3, 75, 127
2, 42943, Note_off_c, 3, 75, 127
2, 42979, Note_on_c, 8, 68, 127
2, 43144, Note_off_c, 12, 47, 127
2, 43148, Note_on_c, 11, 46, 127
2, 43313, Note_off_c, 8, 68, 127
2, 43317, Note_on_c, 11, 70, 127
2, 43450, Note_off_c, 11, 70, 127
2, 43486, Note_on_c, 6, 66, 127
2, 43651, Note_off_c, 11, 46, 127
2, 43655, Note_on_c, 8, 44, 127
2, 43820, Note_off_c, 6, 66, 127
2, 43824, Note_on_c, 5, 65, 127
2, 43957, Note_off_c, 5, 65, 127
2, 43993, Note_on_c, 12, 71, 127
2, 44158, Note_off_c, 8, 44, 127
2, 44162, Note_on_c, 6, 54, 127
2, 44327, Note_off_c, 12, 71, 127
2, 44331, Note_on_c, 8, 68, 127
2, 44464, Note_off_c, 8, 68, 127
2, 44500, Note_on_c, 3, 75, 127
2, 44665, Note_off_c, 6, 54, 127
2, 44669, Note_on_c, 5, 53, 127
2, 44834, Note_off_c, 3, 75, 127
2, 44838, Note_on_c, 12, 71, 127
2, 44971, Note_off_c, 12, 71, 127
2, 45007, Note_on_c, 8, 80, 127
2, 45172, Note_off_c, 5, 53, 127
2, 45176, Note_on_c, 1, 49, 127
2, 45341, Note_off_c, 8, 80, 127
2, 45345, Note_on_c, 5, 77, 127
2, 45503, Note_off_c, 5, 77, 127
2, 45514, Note_on_c, 12, 71, 127
2, 45679, Note_off_c, 1, 49, 127
2, 45683, Note_on_c, 6, 54, 127
2, 45742, Note_off_c, 12, 71, 127
2, 45852, Note_on_c, 8, 68, 127
2, 45971, Note_off_c, 8, 68, 127
2, 46021, Note_on_c, 1, 73, 127
2, 46186, Note_off_c, 6, 54, 127
2, 46190, Note_on_c, 11, 46, 127
2, 46355, Note_off_c, 1, 73, 127
2, 46359, Note_on_c, 11, 70, 127
2, 46517, Note_off_c, 11, 70, 127
2, 46528, Note_on_c, 6, 66, 127
2, 46693, Note_off_c, 11, 46, 127
2, 46696, Note_on_c, 12, 47, 127
2, 46844, Note_off_c, 6, 66, 127
2, 46865, Note_on_c, 3, 63, 127
2, 46998, Note_off_c, 3, 63, 127
2, 47034, Note_on_c, 12, 71, 127
2, 47199, Note_off_c, 12, 47, 127
2, 47203, Note_on_c, 1, 49, 127
2, 47368, Note_off_c, 12, 71, 127
2, 47372, Note_on_c, 8, 68, 127
2, 47512, Note_off_c, 8, 68, 127
2, 47541, Note_on_c, 5, 65, 127
2, 47681, Note_off_c, 5, 65, 127
2, 47706, Note_off_c, 1, 49, 127
2, 47710, Note_on_c, 6, 66, 127
2, 47710, Note_on_c, 6, 42, 127
2, 47790, Note_off_c, 6, 66, 127
2, 47794, Note_on_c, 5, 65, 127
2, 47874, Note_off_c, 5, 65, 127
2, 47877, Note_off_c, 6, 42, 127
2, 47877, Note_on_c, 6, 66, 127
2, 47879, Note_on_c, 11, 46, 127
2, 48037, Note_off_c, 11, 46, 127
2, 48048, Note_on_c, 1, 49, 127
2, 48206, Note_off_c, 1, 49, 127
2, 48217, Note_on_c, 11, 46, 127
2, 48375, Note_off_c, 11, 46, 127
2, 48386, Note_on_c, 6, 42, 127
2, 48544, Note_off_c, 6, 42, 127
2, 48555, Note_on_c, 3, 51, 127
2, 48713, Note_off_c, 3, 51, 127
2, 48724, Note_on_c, 3, 51, 127
2, 48887, Note_off_c, 6, 66, 127
2, 48893, Note_on_c, 11, 58, 127
2, 49026, Note_off_c, 11, 58, 127
2, 49062, Note_on_c, 12, 59, 127
2, 49227, Note_off_c, 3, 51, 127
2, 49231, Note_on_c, 1, 49, 127
2, 49396, Note_off_c, 12, 59, 127
2, 49400, Note_on_c, 1, 61, 127
2, 49533, Note_off_c, 1, 61, 127
2, 49569, Note_on_c, 11, 58, 127
2, 49734, Note_off_c, 1, 49, 127
2, 49738, Note_on_c, 12, 47, 127
2, 49903, Note_off_c, 11, 58, 127
2, 49907, Note_on_c, 3, 63, 127
2, 50040, Note_off_c, 3, 63, 127
2, 50076, Note_on_c, 8, 56, 127
2, 50241, Note_off_c, 12, 47, 127
2, 50245, Note_on_c, 11, 46, 127
2, 50410, Note_off_c, 8, 56, 127
2, 50414, Note_on_c, 11, 58, 127
2, 50554, Note_off_c, 11, 58, 127
2, 50583, Note_on_c, 6, 54, 127
2, 50723, Note_off_c, 6, 54, 127
2, 50748, Note_off_c, 11, 46, 127
2, 50752, Note_on_c, 12, 59, 127
2, 50752, Note_on_c, 8, 44, 127
2, 50832, Note_off_c, 12, 59, 127
2, 50835, Note_on_c, 11, 58, 127
2, 50915, Note_off_c, 11, 58, 127
2, 50917, Note_off_c, 8, 44, 127
2, 50918, Note_on_c, 12, 59, 127
2, 50920, Note_on_c, 12, 47, 127
2, 51078, Note_off_c, 12, 47, 127
2, 51089, Note_on_c, 3, 51, 127
2, 51247, Note_off_c, 3, 51, 127
2, 51258, Note_on_c, 12, 47, 127
2, 51416, Note_off_c, 12, 47, 127
2, 51427, Note_on_c, 8, 44, 127
2, 51585, Note_off_c, 8, 44, 127
2, 51596, Note_on_c, 5, 53, 127
2, 51754, Note_off_c, 5, 53, 127
2, 51765, Note_on_c, 1, 37, 127
2, 51936, Note_on_c, 5, 65, 127
2, 52103, Note_off_c, 5, 65, 127
2, 52107, Note_on_c, 8, 68, 127
2, 52274, Note_off_c, 8, 68, 127
2, 52277, Note_on_c, 5, 65, 127
2, 52431, Note_off_c, 12, 59, 127
2, 52444, Note_off_c, 5, 65, 127
2, 52448, Note_on_c, 12, 59, 127
2, 52619, Note_on_c, 8, 68, 127
2, 52785, Note_off_c, 12, 59, 127
2, 52786, Note_off_c, 8, 68, 127
2, 52790, Note_on_c, 10, 57, 127
2, 52960, Note_on_c, 1, 61, 127
2, 53127, Note_off_c, 1, 61, 127
2, 53131, Note_on_c, 6, 66, 127
2, 53288, Note_off_c, 10, 57, 127
2, 53298, Note_off_c, 6, 66, 127
2, 53302, Note_on_c, 12, 59, 127
2, 53302, Note_on_c, 1, 49, 127
2, 53472, Note_on_c, 5, 65, 127
2, 53639, Note_off_c, 5, 65, 127
2, 53643, Note_on_c, 8, 68, 127
2, 53800, Note_off_c, 12, 59, 127
2, 53810, Note_off_c, 8, 68, 127
2, 53810, Note_off_c, 1, 37, 127
2, 53814, Note_on_c, 1, 61, 127
2, 53814, Note_on_c, 1, 37, 127
2, 53985, Note_on_c, 6, 66, 127
2, 54152, Note_off_c, 6, 66, 127
2, 54155, Note_on_c, 10, 69, 127
2, 54312, Note_off_c, 1, 61, 127
2, 54322, Note_off_c, 10, 69, 127
2, 54324, Note_off_c, 1, 49, 127
2, 54326, Note_on_c, 2, 62, 127
2, 54326, Note_on_c, 1, 49, 127
2, 54497, Note_on_c, 8, 68, 127
2, 54664, Note_off_c, 8, 68, 127
2, 54668, Note_on_c, 12, 71, 127
2, 54824, Note_off_c, 2, 62, 127
2, 54835, Note_off_c, 12, 71, 127
2, 54836, Note_off_c, 1, 37, 127
2, 54838, Note_on_c, 5, 65, 127
2, 54838, Note_on_c, 1, 37, 127
2, 55009, Note_on_c, 12, 71, 127
2, 55128, Note_off_c, 12, 71, 127
2, 55175, Note_off_c, 5, 65, 127
2, 55180, Note_on_c, 2, 74, 127
2, 55346, Note_off_c, 1, 37, 127
2, 55348, Note_off_c, 1, 49, 127
2, 55350, Note_on_c, 1, 49, 127
2, 55517, Note_off_c, 2, 74, 127
2, 55521, Note_on_c, 12, 71, 127
2, 55640, Note_off_c, 12, 71, 127
2, 55692, Note_on_c, 5, 77, 127
2, 55858, Note_off_c, 1, 49, 127
2, 55863, Note_on_c, 8, 56, 127
2, 56029, Note_off_c, 5, 77, 127
2, 56033, Note_on_c, 2, 74, 127
2, 56152, Note_off_c, 2, 74, 127
2, 56204, Note_on_c, 8, 80, 127
2, 56371, Note_off_c, 8, 56, 127
2, 56375, Note_on_c, 1, 61, 127
2, 56541, Note_off_c, 8, 80, 127
2, 56545, Note_on_c, 5, 77, 127
2, 56664, Note_off_c, 5, 77, 127
2, 56720, Note_on_c, 12, 83, 127
2, 56897, Note_off_c, 12, 83, 127
2, 56903, Note_on_c, 6, 54, 127
2, 56903, Note_on_c, 11, 82, 127
2, 56907, Note_off_c, 1, 61, 127
2, 57073, Note_off_c, 11, 82, 127
2, 57077, Note_on_c, 1, 73, 127
2, 57214, Note_off_c, 1, 73, 127
2, 57251, Note_on_c, 6, 78, 127
2, 57422, Note_off_c, 6, 54, 127
2, 57426, Note_on_c, 1, 49, 127
2, 57595, Note_off_c, 6, 78, 127
2, 57600, Note_on_c, 8, 80, 127
2, 57744, Note_off_c, 8, 80, 127
2, 57772, Note_on_c, 5, 77, 127
2, 57916, Note_off_c, 5, 77, 127
2, 57941, Note_off_c, 1, 49, 127
2, 57945, Note_on_c, 3, 51, 127
2, 57945, Note_on_c, 6, 78, 127
2, 58117, Note_off_c, 6, 78, 127
2, 58121, Note_on_c, 11, 70, 127
2, 58261, Note_off_c, 11, 70, 127
2, 58299, Note_on_c, 6, 78, 127
2, 58471, Note_off_c, 3, 51, 127
2, 58475, Note_on_c, 11, 46, 127
2, 58647, Note_off_c, 6, 78, 127
2, 58651, Note_on_c, 11, 82, 127
2, 58735, Note_off_c, 11, 82, 127
2, 58739, Note_on_c, 8, 80, 127
2, 58823, Note_off_c, 8, 80, 127
2, 58827, Note_on_c, 6, 78, 127
2, 58999, Note_off_c, 11, 46, 127
2, 59003, Note_on_c, 12, 47, 127
2, 59180, Note_off_c, 6, 78, 127
2, 59184, Note_on_c, 8, 68, 127
2, 59328, Note_off_c, 8, 68, 127
2, 59367, Note_on_c, 6, 78, 127
2, 59545, Note_off_c, 12, 47, 127
2, 59548, Note_on_c, 1, 49, 127
2, 59726, Note_off_c, 6, 78, 127
2, 59729, Note_on_c, 8, 80, 127
2, 59899, Note_off_c, 8, 80, 127
2, 59911, Note_on_c, 5, 77, 127
2, 60081, Note_off_c, 5, 77, 127
2, 60088, Note_off_c, 1, 49, 127
2, 60092, Note_on_c, 6, 42, 127
2, 60092, Note_on_c, 6, 78, 127
2, 60291, Note_on_c, 1, 73, 127
2, 60490, Note_on_c, 11, 70, 127
2, 60689, Note_on_c, 6, 66, 127
2, 62140, Note_off_c, 11, 70, 127
2, 62149, Note_off_c, 1, 73, 127
2, 62158, Note_off_c, 6, 78, 127
2, 63340, Note_off_c, 6, 42, 127
2, 63341, Note_off_c, 6, 66, 127
2, 63952, Note_on_c, 1, 73, 127
2, 64222, Note_off_c, 1, 73, 127
2, 64290, Note_on_c, 6, 78, 127
2, 64626, Note_off_c, 6, 78, 127
2, 64628, Note_on_c, 5, 77, 127
2, 64918, Note_off_c, 5, 77, 127
2, 64965, Note_on_c, 6, 78, 127
2, 65301, Note_off_c, 6, 78, 127
2, 65303, Note_on_c, 5, 77, 127
2, 65470, Note_off_c, 5, 77, 127
2, 65472, Note_on_c, 3, 75, 127
2, 65639, Note_off_c, 3, 75, 127
2, 65641, Note_on_c, 3, 75, 127
2, 65723, Note_off_c, 3, 75, 127
2, 65726, Note_on_c, 1, 73, 127
2, 65808, Note_off_c, 1, 73, 127
2, 65810, Note_on_c, 3, 75, 127
2, 65892, Note_off_c, 3, 75, 127
2, 65895, Note_on_c, 1, 73, 127
2, 65977, Note_off_c, 1, 73, 127
2, 65979, Note_on_c, 3, 75, 127
2, 66061, Note_off_c, 3, 75, 127
2, 66064, Note_on_c, 1, 73, 127
2, 66146, Note_off_c, 1, 73, 127
2, 66148, Note_on_c, 12, 71, 127
2, 66230, Note_off_c, 12, 71, 127
2, 66233, Note_on_c, 1, 73, 127
2, 66315, Note_off_c, 1, 73, 127
2, 66317, Note_on_c, 3, 75, 127
2, 67161, Note_off_c, 3, 75, 127
2, 67331, Note_on_c, 1, 73, 127
2, 67651, Note_off_c, 1, 73, 127
2, 67669, Note_on_c, 12, 71, 127
2, 68005, Note_off_c, 12, 71, 127
2, 68007, Note_on_c, 11, 70, 127
2, 68327, Note_off_c, 11, 70, 127
2, 68345, Note_on_c, 8, 68, 127
2, 68681, Note_off_c, 8, 68, 127
2, 68683, Note_on_c, 1, 73, 127
2, 69003, Note_off_c, 1, 73, 127
2, 69020, Note_on_c, 11, 70, 127
2, 69358, Note_on_c, 6, 66, 127
2, 69370, Note_off_c, 11, 70, 127
2, 69527, Note_on_c, 6, 78, 127
2, 69674, Note_off_c, 6, 66, 127
2, 69694, Note_off_c, 6, 78, 127
2, 69696, Note_on_c, 1, 73, 127
2, 69696, Note_on_c, 5, 77, 127
2, 69863, Note_off_c, 5, 77, 127
2, 69865, Note_on_c, 6, 78, 127
2, 70032, Note_off_c, 6, 78, 127
2, 70032, Note_off_c, 1, 73, 127
2, 70034, Note_on_c, 0, 72, 127
2, 70034, Note_on_c, 8, 80, 127
2, 70201, Note_off_c, 8, 80, 127
2, 70203, Note_on_c, 3, 75, 127
2, 70350, Note_off_c, 0, 72, 127
2, 70370, Note_off_c, 3, 75, 127
2, 70372, Note_on_c, 1, 73, 127
2, 70372, Note_on_c, 5, 77, 127
2, 70539, Note_off_c, 5, 77, 127
2, 70541, Note_on_c, 6, 78, 127
2, 70708, Note_off_c, 6, 78, 127
2, 70708, Note_off_c, 1, 73, 127
2, 70710, Note_on_c, 0, 72, 127
2, 70710, Note_on_c, 8, 80, 127
2, 70877, Note_off_c, 0, 72, 127
2, 70879, Note_on_c, 11, 70, 127
2, 71046, Note_off_c, 11, 70, 127
2, 71048, Note_on_c, 11, 70, 127
2, 71130, Note_off_c, 11, 70, 127
2, 71132, Note_on_c, 8, 68, 127
2, 71214, Note_off_c, 8, 68, 127
2, 71215, Note_off_c, 8, 80, 127
2, 71217, Note_on_c, 11, 70, 127
2, 71217, Note_on_c, 6, 78, 127
2, 71299, Note_off_c, 11, 70, 127
2, 71301, Note_on_c, 8, 68, 127
2, 71383, Note_off_c, 8, 68, 127
2, 71384, Note_off_c, 6, 78, 127
2, 71386, Note_on_c, 11, 70, 127
2, 71386, Note_on_c, 5, 77, 127
2, 71468, Note_off_c, 11, 70, 127
2, 71470, Note_on_c, 8, 68, 127
2, 71552, Note_off_c, 8, 68, 127
2, 71553, Note_off_c, 5, 77, 127
2, 71555, Note_on_c, 6, 66, 127
2, 71555, Note_on_c, 3, 75, 127
2, 71637, Note_off_c, 6, 66, 127
2, 71639, Note_on_c, 8, 68, 127
2, 71721, Note_off_c, 8, 68, 127
2, 71722, Note_off_c, 3, 75, 127
2, 71724, Note_on_c, 11, 70, 127
2, 71724, Note_on_c, 1, 73, 127
2, 71891, Note_off_c, 1, 73, 127
2, 71893, Note_on_c, 3, 75, 127
2, 72060, Note_off_c, 3, 75, 127
2, 72062, Note_on_c, 5, 77, 127
2, 72229, Note_off_c, 5, 77, 127
2, 72231, Note_on_c, 0, 72, 127
2, 72398, Note_off_c, 0, 72, 127
2, 72400, Note_on_c, 1, 73, 127
2, 72567, Note_off_c, 1, 73, 127
2, 72568, Note_off_c, 11, 70, 127
2, 72569, Note_on_c, 3, 75, 127
2, 72736, Note_off_c, 3, 75, 127
2, 72738, Note_on_c, 8, 68, 127
2, 72738, Note_on_c, 5, 77, 127
2, 72905, Note_off_c, 5, 77, 127
2, 72907, Note_on_c, 1, 73, 127
2, 73074, Note_off_c, 1, 73, 127
2, 73074, Note_off_c, 8, 68, 127
2, 73076, Note_on_c, 6, 66, 127
2, 73076, Note_on_c, 11, 70, 127
2, 73243, Note_off_c, 11, 70, 127
2, 73244, Note_on_c, 0, 72, 127
2, 73411, Note_off_c, 0, 72, 127
2, 73412, Note_off_c, 6, 66, 127
2, 73413, Note_on_c, 5, 65, 127
2, 73413, Note_on_c, 1, 73, 127
2, 73749, Note_off_c, 5, 65, 127
2, 73751, Note_on_c, 3, 63, 127
2, 74087, Note_off_c, 3, 63, 127
2, 74087, Note_off_c, 1, 73, 127
2, 74089, Note_on_c, 8, 68, 127
2, 74089, Note_on_c, 0, 72, 127
2, 74425, Note_off_c, 0, 72, 127
2, 74425, Note_off_c, 8, 68, 127
2, 74427, Note_on_c, 5, 65, 127
2, 74427, Note_on_c, 1, 73, 127
2, 74763, Note_off_c, 5, 65, 127
2, 74765, Note_on_c, 1, 49, 127
2, 74765, Note_on_c, 1, 61, 127
2, 74932, Note_off_c, 1, 61, 127
2, 74934, Note_on_c, 12, 71, 127
2, 75085, Note_off_c, 1, 49, 127
2, 75101, Note_off_c, 12, 71, 127
2, 75103, Note_on_c, 6, 54, 127
2, 75103, Note_on_c, 11, 70, 127
2, 75270, Note_off_c, 11, 70, 127
2, 75272, Note_on_c, 12, 71, 127
2, 75412, Note_off_c, 1, 73, 127
2, 75439, Note_off_c, 12, 71, 127
2, 75439, Note_off_c, 6, 54, 127
2, 75441, Note_on_c, 5, 53, 127
2, 75441, Note_on_c, 1, 73, 127
2, 75610, Note_on_c, 8, 68, 127
2, 75761, Note_off_c, 5, 53, 127
2, 75777, Note_off_c, 8, 68, 127
2, 75779, Note_on_c, 6, 54, 127
2, 75779, Note_on_c, 11, 70, 127
2, 75946, Note_off_c, 11, 70, 127
2, 75948, Note_on_c, 12, 71, 127
2, 76115, Note_off_c, 6, 54, 127
2, 76115, Note_off_c, 1, 73, 127
2, 76117, Note_on_c, 5, 53, 127
2, 76117, Note_on_c, 1, 73, 127
2, 76284, Note_off_c, 1, 73, 127
2, 76284, Note_off_c, 5, 53, 127
2, 76286, Note_on_c, 3, 51, 127
2, 76286, Note_on_c, 3, 75, 127
2, 76453, Note_off_c, 3, 75, 127
2, 76453, Note_off_c, 3, 51, 127
2, 76455, Note_on_c, 3, 51, 127
2, 76455, Note_on_c, 5, 77, 127
2, 76537, Note_off_c, 3, 51, 127
2, 76539, Note_on_c, 1, 49, 127
2, 76621, Note_off_c, 1, 49, 127
2, 76622, Note_off_c, 12, 71, 127
2, 76624, Note_on_c, 3, 51, 127
2, 76624, Note_on_c, 12, 71, 127
2, 76706, Note_off_c, 3, 51, 127
2, 76708, Note_on_c, 1, 49, 127
2, 76790, Note_off_c, 1, 49, 127
2, 76791, Note_off_c, 12, 71, 127
2, 76793, Note_on_c, 3, 51, 127
2, 76793, Note_on_c, 11, 70, 127
2, 76875, Note_off_c, 3, 51, 127
2, 76877, Note_on_c, 1, 49, 127
2, 76959, Note_off_c, 1, 49, 127
2, 76960, Note_off_c, 11, 70, 127
2, 76962, Note_on_c, 12, 47, 127
2, 76962, Note_on_c, 8, 68, 127
2, 77044, Note_off_c, 12, 47, 127
2, 77046, Note_on_c, 1, 49, 127
2, 77128, Note_off_c, 1, 49, 127
2, 77129, Note_off_c, 8, 68, 127
2, 77129, Note_off_c, 5, 77, 127
2, 77131, Note_on_c, 3, 51, 127
2, 77131, Note_on_c, 6, 66, 127
2, 77131, Note_on_c, 6, 78, 127
2, 77298, Note_off_c, 6, 66, 127
2, 77300, Note_on_c, 8, 68, 127
2, 77467, Note_off_c, 8, 68, 127
2, 77468, Note_on_c, 11, 70, 127
2, 77635, Note_off_c, 11, 70, 127
2, 77637, Note_on_c, 5, 65, 127
2, 77804, Note_off_c, 5, 65, 127
2, 77806, Note_on_c, 6, 66, 127
2, 77973, Note_off_c, 6, 66, 127
2, 77975, Note_off_c, 6, 78, 127
2, 77975, Note_off_c, 3, 51, 127
2, 77975, Note_on_c, 8, 68, 127
2, 78142, Note_off_c, 8, 68, 127
2, 78144, Note_on_c, 1, 49, 127
2, 78144, Note_on_c, 11, 70, 127
2, 78313, Note_on_c, 6, 66, 127
2, 78478, Note_off_c, 11, 70, 127
2, 78480, Note_off_c, 6, 66, 127
2, 78480, Note_off_c, 1, 49, 127
2, 78482, Note_on_c, 12, 47, 127
2, 78482, Note_on_c, 3, 63, 127
2, 78482, Note_on_c, 8, 68, 127
2, 78649, Note_off_c, 3, 63, 127
2, 78651, Note_on_c, 5, 65, 127
2, 78818, Note_off_c, 5, 65, 127
2, 78818, Note_off_c, 8, 68, 127
2, 78818, Note_off_c, 12, 47, 127
2, 78820, Note_on_c, 11, 46, 127
2, 78820, Note_on_c, 6, 66, 127
2, 78820, Note_on_c, 11, 70, 127
2, 79156, Note_off_c, 11, 70, 127
2, 79156, Note_off_c, 11, 46, 127
2, 79158, Note_on_c, 8, 44, 127
2, 79158, Note_on_c, 12, 71, 127
2, 79494, Note_off_c, 12, 71, 127
2, 79494, Note_off_c, 8, 44, 127
2, 79494, Note_off_c, 6, 66, 127
2, 79496, Note_on_c, 1, 49, 127
2, 79496, Note_on_c, 5, 65, 127
2, 79496, Note_on_c, 11, 70, 127
2, 79663, Note_off_c, 11, 70, 127
2, 79665, Note_on_c, 8, 68, 127
2, 79816, Note_off_c, 5, 65, 127
2, 79832, Note_off_c, 8, 68, 127
2, 79832, Note_off_c, 1, 49, 127
2, 79834, Note_on_c, 6, 42, 127
2, 79834, Note_on_c, 6, 66, 127
2, 79834, Note_on_c, 11, 70, 127
2, 80001, Note_off_c, 11, 70, 127
2, 80003, Note_on_c, 1, 73, 127
2, 80170, Note_off_c, 1, 73, 127
2, 80170, Note_off_c, 6, 42, 127
2, 80172, Note_on_c, 6, 54, 127
2, 80172, Note_on_c, 1, 73, 127
2, 80339, Note_off_c, 1, 73, 127
2, 80341, Note_on_c, 11, 70, 127
2, 80502, Note_off_c, 6, 66, 127
2, 80508, Note_off_c, 11, 70, 127
2, 80508, Note_off_c, 6, 54, 127
2, 80510, Note_on_c, 5, 53, 127
2, 80510, Note_on_c, 8, 68, 127
2, 80677, Note_off_c, 8, 68, 127
2, 80679, Note_on_c, 1, 73, 127
2, 80846, Note_off_c, 1, 73, 127
2, 80846, Note_off_c, 5, 53, 127
2, 80848, Note_on_c, 1, 49, 127
2, 80848, Note_on_c, 5, 65, 127
2, 80848, Note_on_c, 1, 73, 127
2, 81015, Note_off_c, 1, 73, 127
2, 81017, Note_on_c, 8, 68, 127
2, 81184, Note_off_c, 8, 68, 127
2, 81184, Note_off_c, 5, 65, 127
2, 81184, Note_off_c, 1, 49, 127
2, 81186, Note_on_c, 6, 54, 127
2, 81186, Note_on_c, 6, 66, 127
2, 81186, Note_on_c, 11, 70, 127
2, 81353, Note_off_c, 6, 54, 127
2, 81355, Note_on_c, 11, 58, 127
2, 81522, Note_off_c, 11, 58, 127
2, 81522, Note_off_c, 11, 70, 127
2, 81524, Note_on_c, 11, 58, 127
2, 81524, Note_on_c, 1, 73, 127
2, 81691, Note_off_c, 11, 58, 127
2, 81692, Note_on_c, 6, 54, 127
2, 81859, Note_off_c, 6, 54, 127
2, 81860, Note_off_c, 1, 73, 127
2, 81861, Note_on_c, 3, 51, 127
2, 81861, Note_on_c, 6, 78, 127
2, 82028, Note_off_c, 3, 51, 127
2, 82030, Note_off_c, 6, 66, 127
2, 82030, Note_on_c, 6, 54, 127
2, 82197, Note_off_c, 6, 54, 127
2, 82199, Note_on_c, 6, 54, 127
2, 82199, Note_on_c, 11, 70, 127
2, 82366, Note_off_c, 6, 54, 127
2, 82368, Note_on_c, 3, 51, 127
2, 82535, Note_off_c, 3, 51, 127
2, 82535, Note_off_c, 11, 70, 127
2, 82537, Note_on_c, 0, 48, 127
2, 82537, Note_on_c, 3, 75, 127
2, 82704, Note_off_c, 3, 75, 127
2, 82706, Note_on_c, 8, 68, 127
2, 82873, Note_off_c, 8, 68, 127
2, 82873, Note_off_c, 0, 48, 127
2, 82873, Note_off_c, 6, 78, 127
2, 82875, Note_on_c, 1, 49, 127
2, 82875, Note_on_c, 8, 68, 127
2, 82875, Note_on_c, 5, 77, 127
2, 83042, Note_off_c, 8, 68, 127
2, 83044, Note_on_c, 1, 73, 127
2, 83211, Note_off_c, 1, 73, 127
2, 83211, Note_off_c, 1, 49, 127
2, 83213, Note_on_c, 6, 54, 127
2, 83213, Note_on_c, 11, 70, 127
2, 83380, Note_off_c, 11, 70, 127
2, 83382, Note_on_c, 6, 66, 127
2, 83549, Note_off_c, 6, 66, 127
2, 83549, Note_off_c, 5, 77, 127
2, 83551, Note_on_c, 6, 66, 127
2, 83551, Note_on_c, 3, 75, 127
2, 83718, Note_off_c, 3, 75, 127
2, 83718, Note_off_c, 6, 66, 127
2, 83720, Note_on_c, 11, 70, 127
2, 83720, Note_on_c, 1, 73, 127
2, 83887, Note_off_c, 1, 73, 127
2, 83887, Note_off_c, 11, 70, 127
2, 83889, Note_on_c, 8, 68, 127
2, 83889, Note_on_c, 0, 72, 127
2, 84056, Note_off_c, 6, 54, 127
2, 84058, Note_on_c, 8, 56, 127
2, 84225, Note_off_c, 8, 56, 127
2, 84225, Note_off_c, 0, 72, 127
2, 84227, Note_on_c, 0, 60, 127
2, 84227, Note_on_c, 3, 75, 127
2, 84394, Note_off_c, 0, 60, 127
2, 84396, Note_on_c, 8, 56, 127
2, 84563, Note_off_c, 8, 56, 127
2, 84563, Note_off_c, 3, 75, 127
2, 84565, Note_on_c, 5, 53, 127
2, 84565, Note_on_c, 8, 80, 127
2, 84732, Note_off_c, 5, 53, 127
2, 84733, Note_off_c, 8, 68, 127
2, 84734, Note_on_c, 8, 56, 127
2, 84901, Note_off_c, 8, 56, 127
2, 84903, Note_on_c, 8, 56, 127
2, 84903, Note_on_c, 0, 72, 127
2, 85070, Note_off_c, 8, 56, 127
2, 85072, Note_on_c, 5, 53, 127
2, 85239, Note_off_c, 5, 53, 127
2, 85239, Note_off_c, 0, 72, 127
2, 85241, Note_on_c, 2, 50, 127
2, 85241, Note_on_c, 11, 70, 127
2, 85408, Note_off_c, 2, 50, 127
2, 85410, Note_on_c, 11, 58, 127
2, 85577, Note_off_c, 11, 58, 127
2, 85577, Note_off_c, 8, 80, 127
2, 85579, Note_on_c, 11, 58, 127
2, 85579, Note_on_c, 6, 78, 127
2, 85746, Note_off_c, 6, 78, 127
2, 85746, Note_off_c, 11, 58, 127
2, 85748, Note_on_c, 6, 54, 127
2, 85748, Note_on_c, 5, 77, 127
2, 85915, Note_off_c, 5, 77, 127
2, 85915, Note_off_c, 6, 54, 127
2, 85916, Note_on_c, 3, 51, 127
2, 85916, Note_on_c, 6, 78, 127
2, 86083, Note_off_c, 3, 51, 127
2, 86085, Note_on_c, 6, 54, 127
2, 86252, Note_off_c, 6, 54, 127
2, 86253, Note_off_c, 11, 70, 127
2, 86254, Note_on_c, 6, 54, 127
2, 86254, Note_on_c, 11, 70, 127
2, 86421, Note_off_c, 6, 54, 127
2, 86423, Note_on_c, 3, 51, 127
2, 86590, Note_off_c, 3, 51, 127
2, 86590, Note_off_c, 11, 70, 127
2, 86592, Note_on_c, 0, 48, 127
2, 86592, Note_on_c, 8, 68, 127
2, 86759, Note_off_c, 0, 48, 127
2, 86761, Note_on_c, 8, 56, 127
2, 86928, Note_off_c, 8, 56, 127
2, 86928, Note_off_c, 6, 78, 127
2, 86930, Note_on_c, 8, 56, 127
2, 86930, Note_on_c, 5, 77, 127
2, 87097, Note_off_c, 5, 77, 127
2, 87097, Note_off_c, 8, 56, 127
2, 87099, Note_on_c, 5, 53, 127
2, 87099, Note_on_c, 3, 75, 127
2, 87266, Note_off_c, 3, 75, 127
2, 87266, Note_off_c, 5, 53, 127
2, 87268, Note_on_c, 1, 49, 127
2, 87268, Note_on_c, 5, 77, 127
2, 87435, Note_off_c, 1, 49, 127
2, 87437, Note_on_c, 5, 53, 127
2, 87604, Note_off_c, 5, 53, 127
2, 87604, Note_off_c, 8, 68, 127
2, 87606, Note_on_c, 5, 53, 127
2, 87606, Note_on_c, 8, 68, 127
2, 87773, Note_off_c, 5, 53, 127
2, 87775, Note_on_c, 1, 49, 127
2, 87942, Note_off_c, 1, 49, 127
2, 87942, Note_off_c, 8, 68, 127
2, 87944, Note_on_c, 11, 46, 127
2, 87944, Note_on_c, 6, 66, 127
2, 88111, Note_off_c, 11, 46, 127
2, 88113, Note_on_c, 1, 49, 127
2, 88280, Note_off_c, 1, 49, 127
2, 88280, Note_off_c, 5, 77, 127
2, 88282, Note_on_c, 1, 49, 127
2, 88282, Note_on_c, 5, 77, 127
2, 88449, Note_off_c, 1, 49, 127
2, 88451, Note_on_c, 11, 46, 127
2, 88618, Note_off_c, 11, 46, 127
2, 88618, Note_off_c, 5, 77, 127
2, 88620, Note_on_c, 6, 42, 127
2, 88620, Note_on_c, 3, 75, 127
2, 88787, Note_off_c, 6, 66, 127
2, 88789, Note_on_c, 8, 68, 127
2, 88956, Note_off_c, 8, 68, 127
2, 88956, Note_off_c, 3, 75, 127
2, 88956, Note_off_c, 6, 42, 127
2, 88958, Note_on_c, 6, 54, 127
2, 88958, Note_on_c, 11, 70, 127
2, 88958, Note_on_c, 1, 73, 127
2, 89125, Note_off_c, 11, 70, 127
2, 89127, Note_on_c, 6, 66, 127
2, 89294, Note_off_c, 6, 66, 127
2, 89294, Note_off_c, 1, 73, 127
2, 89296, Note_on_c, 3, 63, 127
2, 89296, Note_on_c, 0, 72, 127
2, 89463, Note_off_c, 6, 54, 127
2, 89465, Note_on_c, 6, 54, 127
2, 89616, Note_off_c, 0, 72, 127
2, 89616, Note_off_c, 3, 63, 127
2, 89632, Note_off_c, 6, 54, 127
2, 89634, Note_on_c, 5, 53, 127
2, 89634, Note_on_c, 8, 68, 127
2, 89801, Note_off_c, 5, 53, 127
2, 89803, Note_on_c, 3, 51, 127
2, 89970, Note_off_c, 3, 51, 127
2, 89972, Note_on_c, 1, 49, 127
2, 89972, Note_on_c, 1, 73, 127
2, 90134, Note_off_c, 8, 68, 127
2, 90139, Note_off_c, 1, 49, 127
2, 90140, Note_on_c, 3, 51, 127
2, 90307, Note_off_c, 3, 51, 127
2, 90309, Note_on_c, 5, 53, 127
2, 90309, Note_on_c, 8, 68, 127
2, 90476, Note_off_c, 5, 53, 127
2, 90478, Note_on_c, 1, 49, 127
2, 90645, Note_off_c, 1, 49, 127
2, 90645, Note_off_c, 8, 68, 127
2, 90647, Note_on_c, 11, 46, 127
2, 90647, Note_on_c, 6, 66, 127
2, 90814, Note_off_c, 11, 46, 127
2, 90816, Note_on_c, 0, 48, 127
2, 90983, Note_off_c, 0, 48, 127
2, 90983, Note_off_c, 6, 66, 127
2, 90985, Note_on_c, 1, 49, 127
2, 90985, Note_on_c, 5, 65, 127
2, 91152, Note_off_c, 1, 49, 127
2, 91154, Note_on_c, 11, 46, 127
2, 91305, Note_off_c, 5, 65, 127
2, 91321, Note_off_c, 11, 46, 127
2, 91323, Note_on_c, 6, 42, 127
2, 91323, Note_on_c, 3, 63, 127
2, 91490, Note_off_c, 1, 73, 127
2, 91492, Note_on_c, 1, 73, 127
2, 91659, Note_off_c, 3, 63, 127
2, 91659, Note_off_c, 6, 42, 127
2, 91661, Note_on_c, 8, 44, 127
2, 91661, Note_on_c, 3, 63, 127
2, 91828, Note_off_c, 1, 73, 127
2, 91830, Note_on_c, 0, 72, 127
2, 91997, Note_off_c, 0, 72, 127
2, 91997, Note_off_c, 3, 63, 127
2, 91997, Note_off_c, 8, 44, 127
2, 91999, Note_on_c, 1, 37, 127
2, 91999, Note_on_c, 5, 65, 127
2, 91999, Note_on_c, 1, 73, 127
2, 92167, Note_off_c, 5, 65, 127
2, 92170, Note_on_c, 8, 68, 127
2, 92338, Note_off_c, 8, 68, 127
2, 92338, Note_off_c, 1, 73, 127
2, 92340, Note_on_c, 1, 73, 127
2, 92497, Note_off_c, 1, 37, 127
2, 92511, Note_on_c, 12, 71, 127
2, 92679, Note_off_c, 12, 71, 127
2, 92679, Note_off_c, 1, 73, 127
2, 92682, Note_on_c, 11, 70, 127
2, 92682, Note_on_c, 6, 78, 127
2, 92850, Note_off_c, 11, 70, 127
2, 92853, Note_on_c, 12, 71, 127
2, 93021, Note_off_c, 12, 71, 127
2, 93021, Note_off_c, 6, 78, 127
2, 93023, Note_on_c, 1, 73, 127
2, 93023, Note_on_c, 5, 77, 127
2, 93191, Note_off_c, 1, 73, 127
2, 93194, Note_on_c, 8, 68, 127
2, 93362, Note_off_c, 8, 68, 127
2, 93362, Note_off_c, 5, 77, 127
2, 93365, Note_on_c, 11, 70, 127
2, 93365, Note_on_c, 6, 78, 127
2, 93533, Note_off_c, 11, 70, 127
2, 93536, Note_on_c, 12, 71, 127
2, 93704, Note_off_c, 12, 71, 127
2, 93704, Note_off_c, 6, 78, 127
2, 93706, Note_on_c, 6, 54, 127
2, 93706, Note_on_c, 1, 73, 127
2, 93706, Note_on_c, 5, 77, 127
2, 93874, Note_off_c, 5, 77, 127
2, 93874, Note_off_c, 6, 54, 127
2, 93877, Note_on_c, 8, 56, 127
2, 93877, Note_on_c, 3, 75, 127
2, 94043, Note_off_c, 1, 73, 127
2, 94045, Note_off_c, 3, 75, 127
2, 94045, Note_off_c, 8, 56, 127
2, 94048, Note_on_c, 11, 58, 127
2, 94048, Note_on_c, 3, 75, 127
2, 94132, Note_off_c, 3, 75, 127
2, 94134, Note_on_c, 1, 73, 127
2, 94218, Note_off_c, 1, 73, 127
2, 94218, Note_off_c, 11, 58, 127
2, 94220, Note_on_c, 6, 54, 127
2, 94220, Note_on_c, 12, 71, 127
2, 94220, Note_on_c, 3, 75, 127
2, 94304, Note_off_c, 3, 75, 127
2, 94306, Note_on_c, 1, 73, 127
2, 94390, Note_off_c, 1, 73, 127
2, 94390, Note_off_c, 12, 71, 127
2, 94390, Note_off_c, 6, 54, 127
2, 94393, Note_on_c, 6, 54, 127
2, 94393, Note_on_c, 11, 70, 127
2, 94393, Note_on_c, 3, 75, 127
2, 94477, Note_off_c, 3, 75, 127
2, 94479, Note_on_c, 1, 73, 127
2, 94563, Note_off_c, 1, 73, 127
2, 94563, Note_off_c, 11, 70, 127
2, 94563, Note_off_c, 6, 54, 127
2, 94565, Note_on_c, 11, 58, 127
2, 94565, Note_on_c, 8, 68, 127
2, 94565, Note_on_c, 12, 71, 127
2, 94649, Note_off_c, 12, 71, 127
2, 94651, Note_on_c, 1, 73, 127
2, 94735, Note_off_c, 1, 73, 127
2, 94735, Note_off_c, 8, 68, 127
2, 94735, Note_off_c, 11, 58, 127
2, 94738, Note_on_c, 12, 59, 127
2, 94738, Note_on_c, 6, 66, 127
2, 94738, Note_on_c, 3, 75, 127
2, 94906, Note_off_c, 6, 66, 127
2, 94906, Note_off_c, 12, 59, 127
2, 94908, Note_on_c, 6, 54, 127
2, 94908, Note_on_c, 8, 68, 127
2, 95076, Note_off_c, 8, 68, 127
2, 95076, Note_off_c, 6, 54, 127
2, 95079, Note_on_c, 6, 54, 127
2, 95079, Note_on_c, 11, 70, 127
2, 95247, Note_off_c, 11, 70, 127
2, 95247, Note_off_c, 6, 54, 127
2, 95250, Note_on_c, 12, 59, 127
2, 95250, Note_on_c, 5, 65, 127
2, 95418, Note_off_c, 5, 65, 127
2, 95418, Note_off_c, 12, 59, 127
2, 95420, Note_on_c, 1, 61, 127
2, 95420, Note_on_c, 6, 66, 127
2, 95588, Note_off_c, 6, 66, 127
2, 95588, Note_off_c, 1, 61, 127
2, 95591, Note_off_c, 3, 75, 127
2, 95591, Note_on_c, 6, 54, 127
2, 95591, Note_on_c, 8, 68, 127
2, 95759, Note_off_c, 8, 68, 127
2, 95759, Note_off_c, 6, 54, 127
2, 95762, Note_on_c, 6, 54, 127
2, 95762, Note_on_c, 11, 70, 127
2, 95762, Note_on_c, 1, 73, 127
2, 95930, Note_off_c, 11, 70, 127
2, 95930, Note_off_c, 6, 54, 127
2, 95933, Note_on_c, 1, 61, 127
2, 95933, Note_on_c, 5, 65, 127
2, 96101, Note_off_c, 5, 65, 127
2, 96101, Note_off_c, 1, 61, 127
2, 96101, Note_off_c, 1, 73, 127
2, 96103, Note_on_c, 3, 63, 127
2, 96103, Note_on_c, 6, 66, 127
2, 96103, Note_on_c, 12, 71, 127
2, 96271, Note_off_c, 3, 63, 127
2, 96274, Note_on_c, 6, 54, 127
2, 96442, Note_off_c, 6, 54, 127
2, 96442, Note_off_c, 12, 71, 127
2, 96445, Note_on_c, 6, 54, 127
2, 96445, Note_on_c, 11, 70, 127
2, 96613, Note_off_c, 6, 54, 127
2, 96616, Note_on_c, 3, 63, 127
2, 96778, Note_off_c, 6, 66, 127
2, 96784, Note_off_c, 3, 63, 127
2, 96784, Note_off_c, 11, 70, 127
2, 96786, Note_on_c, 5, 65, 127
2, 96786, Note_on_c, 8, 68, 127
2, 96954, Note_off_c, 5, 65, 127
2, 96957, Note_on_c, 6, 54, 127
2, 97125, Note_off_c, 6, 54, 127
2, 97128, Note_on_c, 6, 54, 127
2, 97128, Note_on_c, 1, 73, 127
2, 97296, Note_off_c, 6, 54, 127
2, 97298, Note_on_c, 5, 65, 127
2, 97466, Note_off_c, 5, 65, 127
2, 97467, Note_off_c, 1, 73, 127
2, 97469, Note_on_c, 6, 66, 127
2, 97469, Note_on_c, 11, 70, 127
2, 97637, Note_off_c, 6, 66, 127
2, 97640, Note_on_c, 5, 65, 127
2, 97808, Note_off_c, 5, 65, 127
2, 97808, Note_off_c, 11, 70, 127
2, 97808, Note_off_c, 8, 68, 127
2, 97811, Note_on_c, 3, 63, 127
2, 97811, Note_on_c, 6, 66, 127
2, 97811, Note_on_c, 11, 70, 127
2, 97979, Note_off_c, 3, 63, 127
2, 97981, Note_on_c, 1, 61, 127
2, 98148, Note_off_c, 6, 66, 127
2, 98149, Note_off_c, 1, 61, 127
2, 98150, Note_off_c, 11, 70, 127
2, 98152, Note_on_c, 12, 59, 127
2, 98152, Note_on_c, 3, 75, 127
2, 98320, Note_off_c, 12, 59, 127
2, 98323, Note_on_c, 8, 68, 127
2, 98491, Note_off_c, 8, 68, 127
2, 98491, Note_off_c, 3, 75, 127
2, 98493, Note_on_c, 8, 68, 127
2, 98493, Note_on_c, 2, 74, 127
2, 98661, Note_off_c, 8, 68, 127
2, 98664, Note_on_c, 12, 59, 127
2, 98832, Note_off_c, 12, 59, 127
2, 98832, Note_off_c, 2, 74, 127
2, 98835, Note_on_c, 11, 58, 127
2, 98835, Note_on_c, 3, 75, 127
2, 99003, Note_off_c, 11, 58, 127
2, 99006, Note_on_c, 6, 66, 127
2, 99174, Note_off_c, 6, 66, 127
2, 99176, Note_on_c, 6, 66, 127
2, 99176, Note_on_c, 11, 70, 127
2, 99344, Note_off_c, 6, 66, 127
2, 99347, Note_on_c, 11, 58, 127
2, 99510, Note_off_c, 3, 75, 127
2, 99515, Note_off_c, 11, 58, 127
2, 99515, Note_off_c, 11, 70, 127
2, 99518, Note_on_c, 8, 56, 127
2, 99518, Note_on_c, 3, 75, 127
2, 99686, Note_off_c, 8, 56, 127
2, 99688, Note_on_c, 5, 65, 127
2, 99856, Note_off_c, 5, 65, 127
2, 99857, Note_off_c, 3, 75, 127
2, 99859, Note_on_c, 5, 65, 127
2, 99859, Note_on_c, 2, 74, 127
2, 99859, Note_on_c, 5, 77, 127
2, 100027, Note_off_c, 5, 65, 127
2, 100030, Note_on_c, 8, 56, 127
2, 100198, Note_off_c, 8, 56, 127
2, 100198, Note_off_c, 5, 77, 127
2, 100198, Note_off_c, 2, 74, 127
2, 100201, Note_on_c, 6, 54, 127
2, 100201, Note_on_c, 3, 75, 127
2, 100201, Note_on_c, 6, 78, 127
2, 100369, Note_off_c, 6, 54, 127
2, 100371, Note_on_c, 8, 56, 127
2, 100539, Note_off_c, 8, 56, 127
2, 100540, Note_off_c, 6, 78, 127
2, 100540, Note_off_c, 3, 75, 127
2, 100542, Note_on_c, 6, 54, 127
2, 100542, Note_on_c, 5, 77, 127
2, 100542, Note_on_c, 8, 80, 127
2, 100710, Note_off_c, 6, 54, 127
2, 100713, Note_on_c, 5, 53, 127
2, 100881, Note_off_c, 5, 53, 127
2, 100881, Note_off_c, 8, 80, 127
2, 100881, Note_off_c, 5, 77, 127
2, 100884, Note_on_c, 3, 51, 127
2, 100884, Note_on_c, 6, 78, 127
2, 100884, Note_on_c, 11, 82, 127
2, 101052, Note_off_c, 3, 51, 127
2, 101054, Note_on_c, 5, 53, 127
2, 101222, Note_off_c, 5, 53, 127
2, 101223, Note_off_c, 11, 82, 127
2, 101223, Note_off_c, 6, 78, 127
2, 101225, Note_on_c, 6, 54, 127
2, 101225, Note_on_c, 3, 75, 127
2, 101225, Note_on_c, 6, 78, 127
2, 101393, Note_off_c, 6, 54, 127
2, 101396, Note_on_c, 3, 51, 127
2, 101564, Note_off_c, 3, 51, 127
2, 101564, Note_off_c, 6, 78, 127
2, 101564, Note_off_c, 3, 75, 127
2, 101566, Note_on_c, 8, 56, 127
2, 101566, Note_on_c, 0, 72, 127
2, 101566, Note_on_c, 3, 75, 127
2, 101734, Note_off_c, 8, 56, 127
2, 101737, Note_on_c, 11, 58, 127
2, 101905, Note_off_c, 11, 58, 127
2, 101905, Note_off_c, 0, 72, 127
2, 101908, Note_on_c, 8, 56, 127
2, 101908, Note_on_c, 8, 68, 127
2, 102076, Note_off_c, 8, 56, 127
2, 102079, Note_on_c, 6, 54, 127
2, 102241, Note_off_c, 3, 75, 127
2, 102247, Note_off_c, 6, 54, 127
2, 102247, Note_off_c, 8, 68, 127
2, 102249, Note_on_c, 5, 53, 127
2, 102249, Note_on_c, 1, 73, 127
2, 102417, Note_off_c, 5, 53, 127
2, 102420, Note_on_c, 6, 54, 127
2, 102588, Note_off_c, 6, 54, 127
2, 102588, Note_off_c, 1, 73, 127
2, 102591, Note_on_c, 8, 56, 127
2, 102591, Note_on_c, 0, 72, 127
2, 102591, Note_on_c, 8, 80, 127
2, 102759, Note_off_c, 8, 56, 127
2, 102761, Note_on_c, 5, 53, 127
2, 102929, Note_off_c, 5, 53, 127
2, 102930, Note_off_c, 8, 80, 127
2, 102930, Note_off_c, 0, 72, 127
2, 102932, Note_on_c, 11, 58, 127
2, 102932, Note_on_c, 1, 73, 127
2, 102932, Note_on_c, 5, 77, 127
2, 103100, Note_off_c, 11, 58, 127
2, 103103, Note_on_c, 0, 60, 127
2, 103271, Note_off_c, 0, 60, 127
2, 103271, Note_off_c, 1, 73, 127
2, 103274, Note_on_c, 1, 61, 127
2, 103274, Note_on_c, 0, 72, 127
2, 103442, Note_off_c, 0, 72, 127
2, 103444, Note_on_c, 11, 70, 127
2, 103612, Note_off_c, 11, 70, 127
2, 103615, Note_on_c, 11, 70, 127
2, 103699, Note_off_c, 11, 70, 127
2, 103701, Note_on_c, 8, 68, 127
2, 103785, Note_off_c, 8, 68, 127
2, 103786, Note_off_c, 1, 61, 127
2, 103787, Note_off_c, 5, 77, 127
2, 103788, Note_on_c, 0, 60, 127
2, 103788, Note_on_c, 11, 70, 127
2, 103872, Note_off_c, 11, 70, 127
2, 103874, Note_on_c, 8, 68, 127
2, 103958, Note_off_c, 8, 68, 127
2, 103958, Note_off_c, 0, 60, 127
2, 103960, Note_on_c, 11, 58, 127
2, 103960, Note_on_c, 11, 70, 127
2, 103960, Note_on_c, 5, 77, 127
2, 104044, Note_off_c, 11, 70, 127
2, 104046, Note_on_c, 8, 68, 127
2, 104130, Note_off_c, 8, 68, 127
2, 104130, Note_off_c, 11, 58, 127
2, 104132, Note_on_c, 8, 56, 127
2, 104132, Note_on_c, 6, 66, 127
2, 104216, Note_off_c, 6, 66, 127
2, 104219, Note_on_c, 8, 68, 127
2, 104302, Note_off_c, 8, 56, 127
2, 104303, Note_off_c, 8, 68, 127
2, 104303, Note_off_c, 5, 77, 127
2, 104305, Note_on_c, 6, 54, 127
2, 104305, Note_on_c, 11, 70, 127
2, 104305, Note_on_c, 3, 75, 127
2, 104473, Note_off_c, 3, 75, 127
2, 104473, Note_off_c, 6, 54, 127
2, 104476, Note_on_c, 8, 56, 127
2, 104476, Note_on_c, 0, 72, 127
2, 104644, Note_off_c, 0, 72, 127
2, 104644, Note_off_c, 8, 56, 127
2, 104646, Note_on_c, 11, 58, 127
2, 104646, Note_on_c, 1, 73, 127
2, 104814, Note_off_c, 1, 73, 127
2, 104814, Note_off_c, 11, 58, 127
2, 104817, Note_on_c, 5, 53, 127
2, 104817, Note_on_c, 5, 77, 127
2, 104980, Note_off_c, 11, 70, 127
2, 104985, Note_off_c, 5, 77, 127
2, 104985, Note_off_c, 5, 53, 127
2, 104988, Note_on_c, 6, 54, 127
2, 104988, Note_on_c, 3, 75, 127
2, 105156, Note_off_c, 3, 75, 127
2, 105156, Note_off_c, 6, 54, 127
2, 105159, Note_on_c, 8, 56, 127
2, 105159, Note_on_c, 0, 72, 127
2, 105327, Note_off_c, 0, 72, 127
2, 105327, Note_off_c, 8, 56, 127
2, 105329, Note_on_c, 11, 58, 127
2, 105329, Note_on_c, 8, 68, 127
2, 105329, Note_on_c, 1, 73, 127
2, 105497, Note_off_c, 11, 58, 127
2, 105500, Note_on_c, 6, 54, 127
2, 105668, Note_off_c, 6, 54, 127
2, 105668, Note_off_c, 8, 68, 127
2, 105671, Note_on_c, 3, 51, 127
2, 105671, Note_on_c, 6, 66, 127
2, 105839, Note_off_c, 1, 73, 127
2, 105841, Note_on_c, 0, 72, 127
2, 106009, Note_off_c, 0, 72, 127
2, 106010, Note_off_c, 6, 66, 127
2, 106010, Note_off_c, 3, 51, 127
2, 106012, Note_on_c, 5, 53, 127
2, 106012, Note_on_c, 5, 65, 127
2, 106012, Note_on_c, 1, 73, 127
2, 106180, Note_off_c, 5, 53, 127
2, 106183, Note_on_c, 6, 54, 127
2, 106351, Note_off_c, 6, 54, 127
2, 106351, Note_off_c, 5, 65, 127
2, 106354, Note_on_c, 8, 56, 127
2, 106354, Note_on_c, 3, 63, 127
2, 106694, Note_off_c, 1, 73, 127
2, 106695, Note_off_c, 3, 63, 127
2, 106695, Note_off_c, 8, 56, 127
2, 106697, Note_on_c, 8, 44, 127
2, 106697, Note_on_c, 8, 68, 127
2, 106697, Note_on_c, 0, 72, 127
2, 107027, Note_off_c, 0, 72, 127
2, 107038, Note_off_c, 8, 68, 127
2, 107038, Note_off_c, 8, 44, 127
2, 107040, Note_on_c, 1, 49, 127
2, 107040, Note_on_c, 5, 65, 127
2, 107040, Note_on_c, 1, 73, 127
2, 107208, Note_off_c, 5, 65, 127
2, 107211, Note_on_c, 8, 68, 127
2, 107379, Note_off_c, 8, 68, 127
2, 107379, Note_off_c, 1, 49, 127
2, 107381, Note_on_c, 1, 61, 127
2, 107381, Note_on_c, 8, 68, 127
2, 107549, Note_off_c, 8, 68, 127
2, 107552, Note_on_c, 5, 65, 127
2, 107698, Note_off_c, 1, 73, 127
2, 107720, Note_off_c, 5, 65, 127
2, 107720, Note_off_c, 1, 61, 127
2, 107723, Note_on_c, 0, 60, 127
2, 107723, Note_on_c, 3, 63, 127
2, 107891, Note_off_c, 3, 63, 127
2, 107894, Note_on_c, 8, 68, 127
2, 108062, Note_off_c, 8, 68, 127
2, 108062, Note_off_c, 0, 60, 127
2, 108064, Note_on_c, 8, 56, 127
2, 108064, Note_on_c, 8, 68, 127
2, 108064, Note_on_c, 0, 72, 127
2, 108232, Note_off_c, 8, 68, 127
2, 108235, Note_on_c, 3, 63, 127
2, 108403, Note_off_c, 3, 63, 127
2, 108403, Note_off_c, 0, 72, 127
2, 108403, Note_off_c, 8, 56, 127
2, 108406, Note_on_c, 1, 61, 127
2, 108406, Note_on_c, 5, 65, 127
2, 108406, Note_on_c, 1, 73, 127
2, 108574, Note_off_c, 1, 73, 127
2, 108576, Note_on_c, 5, 77, 127
2, 108744, Note_off_c, 5, 77, 127
2, 108745, Note_off_c, 1, 61, 127
2, 108747, Note_on_c, 11, 58, 127
2, 108747, Note_on_c, 5, 77, 127
2, 108915, Note_off_c, 5, 77, 127
2, 108918, Note_on_c, 1, 73, 127
2, 109086, Note_off_c, 1, 73, 127
2, 109086, Note_off_c, 11, 58, 127
2, 109089, Note_on_c, 10, 57, 127
2, 109089, Note_on_c, 0, 72, 127
2, 109257, Note_off_c, 0, 72, 127
2, 109259, Note_on_c, 5, 77, 127
2, 109427, Note_off_c, 5, 77, 127
2, 109428, Note_off_c, 10, 57, 127
2, 109428, Note_off_c, 5, 65, 127
2, 109430, Note_on_c, 5, 53, 127
2, 109430, Note_on_c, 10, 69, 127
2, 109430, Note_on_c, 5, 77, 127
2, 109598, Note_off_c, 5, 77, 127
2, 109601, Note_on_c, 0, 72, 127
2, 109769, Note_off_c, 0, 72, 127
2, 109769, Note_off_c, 10, 69, 127
2, 109769, Note_off_c, 5, 53, 127
2, 109772, Note_on_c, 11, 58, 127
2, 109772, Note_on_c, 11, 70, 127
2, 109772, Note_on_c, 1, 73, 127
2, 109940, Note_off_c, 11, 58, 127
2, 109942, Note_on_c, 1, 61, 127
2, 110110, Note_off_c, 1, 61, 127
2, 110111, Note_off_c, 1, 73, 127
2, 110113, Note_on_c, 1, 61, 127
2, 110113, Note_on_c, 5, 77, 127
2, 110281, Note_off_c, 1, 61, 127
2, 110284, Note_on_c, 11, 58, 127
2, 110452, Note_off_c, 11, 58, 127
2, 110452, Note_off_c, 5, 77, 127
2, 110454, Note_on_c, 6, 54, 127
2, 110454, Note_on_c, 11, 82, 127
2, 110622, Note_off_c, 6, 54, 127
2, 110625, Note_on_c, 11, 58, 127
2, 110793, Note_off_c, 11, 58, 127
2, 110794, Note_off_c, 11, 70, 127
2, 110796, Note_on_c, 11, 58, 127
2, 110796, Note_on_c, 1, 73, 127
2, 110964, Note_off_c, 11, 58, 127
2, 110967, Note_on_c, 6, 54, 127
2, 111135, Note_off_c, 6, 54, 127
2, 111135, Note_off_c, 1, 73, 127
2, 111137, Note_on_c, 3, 51, 127
2, 111137, Note_on_c, 12, 71, 127
2, 111305, Note_off_c, 3, 51, 127
2, 111308, Note_on_c, 12, 59, 127
2, 111476, Note_off_c, 12, 59, 127
2, 111476, Note_off_c, 11, 82, 127
2, 111479, Note_on_c, 12, 59, 127
2, 111479, Note_on_c, 8, 80, 127
2, 111647, Note_off_c, 8, 80, 127
2, 111647, Note_off_c, 12, 59, 127
2, 111649, Note_on_c, 8, 56, 127
2, 111649, Note_on_c, 6, 78, 127
2, 111817, Note_off_c, 6, 78, 127
2, 111817, Note_off_c, 8, 56, 127
2, 111820, Note_on_c, 5, 53, 127
2, 111820, Note_on_c, 8, 80, 127
2, 111988, Note_off_c, 5, 53, 127
2, 111991, Note_on_c, 8, 56, 127
2, 112159, Note_off_c, 8, 56, 127
2, 112159, Note_off_c, 12, 71, 127
2, 112162, Note_on_c, 8, 56, 127
2, 112162, Note_on_c, 12, 71, 127
2, 112330, Note_off_c, 8, 56, 127
2, 112332, Note_on_c, 5, 53, 127
2, 112500, Note_off_c, 5, 53, 127
2, 112501, Note_off_c, 12, 71, 127
2, 112503, Note_on_c, 2, 50, 127
2, 112503, Note_on_c, 11, 70, 127
2, 112671, Note_off_c, 2, 50, 127
2, 112674, Note_on_c, 11, 58, 127
2, 112842, Note_off_c, 11, 58, 127
2, 112842, Note_off_c, 8, 80, 127
2, 112844, Note_on_c, 11, 58, 127
2, 112844, Note_on_c, 6, 78, 127
2, 113012, Note_off_c, 6, 78, 127
2, 113012, Note_off_c, 11, 58, 127
2, 113015, Note_on_c, 6, 54, 127
2, 113015, Note_on_c, 5, 77, 127
2, 113183, Note_off_c, 5, 77, 127
2, 113183, Note_off_c, 6, 54, 127
2, 113186, Note_on_c, 3, 51, 127
2, 113186, Note_on_c, 6, 78, 127
2, 113354, Note_off_c, 3, 51, 127
2, 113357, Note_on_c, 6, 54, 127
2, 113525, Note_off_c, 6, 54, 127
2, 113525, Note_off_c, 11, 70, 127
2, 113527, Note_on_c, 6, 54, 127
2, 113527, Note_on_c, 11, 70, 127
2, 113695, Note_off_c, 6, 54, 127
2, 113698, Note_on_c, 3, 51, 127
2, 113866, Note_off_c, 3, 51, 127
2, 113866, Note_off_c, 11, 70, 127
2, 113869, Note_on_c, 12, 47, 127
2, 113869, Note_on_c, 8, 68, 127
2, 114037, Note_off_c, 12, 47, 127
2, 114040, Note_on_c, 3, 51, 127
2, 114208, Note_off_c, 3, 51, 127
2, 114208, Note_off_c, 6, 78, 127
2, 114210, Note_on_c, 3, 51, 127
2, 114210, Note_on_c, 6, 78, 127
2, 114378, Note_off_c, 3, 51, 127
2, 114381, Note_on_c, 12, 47, 127
2, 114549, Note_off_c, 12, 47, 127
2, 114549, Note_off_c, 6, 78, 127
2, 114552, Note_on_c, 8, 44, 127
2, 114552, Note_on_c, 5, 77, 127
2, 114720, Note_off_c, 8, 44, 127
2, 114722, Note_on_c, 12, 47, 127
2, 114890, Note_off_c, 12, 47, 127
2, 114891, Note_off_c, 5, 77, 127
2, 114893, Note_on_c, 12, 47, 127
2, 114893, Note_on_c, 3, 75, 127
2, 115061, Note_off_c, 12, 47, 127
2, 115064, Note_on_c, 8, 44, 127
2, 115232, Note_off_c, 8, 44, 127
2, 115232, Note_off_c, 3, 75, 127
2, 115235, Note_on_c, 11, 46, 127
2, 115235, Note_on_c, 2, 74, 127
2, 115403, Note_off_c, 8, 68, 127
2, 115405, Note_on_c, 12, 71, 127
2, 115572, Note_off_c, 2, 74, 127
2, 115573, Note_off_c, 12, 71, 127
2, 115574, Note_off_c, 11, 46, 127
2, 115576, Note_on_c, 11, 46, 127
2, 115576, Note_on_c, 11, 70, 127
2, 115744, Note_off_c, 11, 70, 127
2, 115747, Note_on_c, 8, 68, 127
2, 115915, Note_off_c, 8, 68, 127
2, 115915, Note_off_c, 11, 46, 127
2, 115917, Note_on_c, 3, 51, 127
2, 115917, Note_on_c, 6, 66, 127
2, 116088, Note_on_c, 8, 68, 127
2, 116166, Note_off_c, 6, 66, 127
2, 116258, Note_off_c, 8, 68, 127
2, 116258, Note_off_c, 3, 51, 127
2, 116261, Note_on_c, 2, 50, 127
2, 116261, Note_on_c, 11, 70, 127
2, 116431, Note_on_c, 5, 65, 127
2, 116510, Note_off_c, 11, 70, 127
2, 116601, Note_off_c, 5, 65, 127
2, 116602, Note_off_c, 2, 50, 127
2, 116604, Note_on_c, 3, 51, 127
2, 116604, Note_on_c, 6, 66, 127
2, 116775, Note_on_c, 8, 68, 127
2, 116853, Note_off_c, 6, 66, 127
2, 116945, Note_off_c, 8, 68, 127
2, 116945, Note_off_c, 3, 51, 127
2, 116947, Note_on_c, 1, 49, 127
2, 116947, Note_on_c, 3, 63, 127
2, 116947, Note_on_c, 11, 70, 127
2, 117115, Note_off_c, 3, 63, 127
2, 117115, Note_off_c, 1, 49, 127
2, 117118, Note_on_c, 12, 47, 127
2, 117118, Note_on_c, 5, 65, 127
2, 117284, Note_off_c, 11, 70, 127
2, 117286, Note_off_c, 5, 65, 127
2, 117286, Note_off_c, 12, 47, 127
2, 117288, Note_on_c, 12, 47, 127
2, 117288, Note_on_c, 6, 66, 127
2, 117372, Note_off_c, 12, 47, 127
2, 117375, Note_on_c, 11, 46, 127
2, 117458, Note_off_c, 6, 66, 127
2, 117459, Note_off_c, 11, 46, 127
2, 117461, Note_on_c, 12, 47, 127
2, 117461, Note_on_c, 3, 63, 127
2, 117545, Note_off_c, 12, 47, 127
2, 117547, Note_on_c, 11, 46, 127
2, 117631, Note_off_c, 11, 46, 127
2, 117631, Note_off_c, 3, 63, 127
2, 117633, Note_on_c, 12, 47, 127
2, 117633, Note_on_c, 3, 63, 127
2, 117633, Note_on_c, 3, 75, 127
2, 117717, Note_off_c, 12, 47, 127
2, 117720, Note_on_c, 11, 46, 127
2, 117803, Note_off_c, 3, 63, 127
2, 117804, Note_off_c, 11, 46, 127
2, 117806, Note_on_c, 8, 44, 127
2, 117806, Note_on_c, 6, 66, 127
2, 117890, Note_off_c, 8, 44, 127
2, 117892, Note_on_c, 11, 46, 127
2, 117976, Note_off_c, 11, 46, 127
2, 117976, Note_off_c, 6, 66, 127
2, 117976, Note_off_c, 3, 75, 127
2, 117978, Note_on_c, 12, 47, 127
2, 117978, Note_on_c, 8, 68, 127
2, 117978, Note_on_c, 3, 75, 127
2, 118146, Note_off_c, 8, 68, 127
2, 118149, Note_on_c, 3, 63, 127
2, 118317, Note_off_c, 3, 63, 127
2, 118320, Note_on_c, 3, 63, 127
2, 118488, Note_off_c, 3, 63, 127
2, 118491, Note_on_c, 8, 68, 127
2, 118653, Note_off_c, 12, 47, 127
2, 118659, Note_off_c, 8, 68, 127
2, 118661, Note_on_c, 11, 70, 127
2, 118829, Note_off_c, 11, 70, 127
2, 118832, Note_on_c, 3, 63, 127
2, 119000, Note_off_c, 3, 63, 127
2, 119003, Note_on_c, 11, 46, 127
2, 119003, Note_on_c, 3, 63, 127
2, 119171, Note_off_c, 3, 63, 127
2, 119173, Note_on_c, 11, 70, 127
2, 119341, Note_off_c, 11, 70, 127
2, 119342, Note_off_c, 11, 46, 127
2, 119344, Note_on_c, 8, 44, 127
2, 119344, Note_on_c, 12, 71, 127
2, 119512, Note_off_c, 12, 71, 127
2, 119515, Note_on_c, 3, 63, 127
2, 119683, Note_off_c, 3, 63, 127
2, 119683, Note_off_c, 8, 44, 127
2, 119686, Note_on_c, 6, 42, 127
2, 119686, Note_on_c, 3, 63, 127
2, 119854, Note_off_c, 3, 63, 127
2, 119856, Note_on_c, 12, 71, 127
2, 120024, Note_off_c, 12, 71, 127
2, 120024, Note_off_c, 3, 75, 127
2, 120025, Note_off_c, 6, 42, 127
2, 120027, Note_on_c, 5, 41, 127
2, 120027, Note_on_c, 2, 74, 127
2, 120027, Note_on_c, 8, 68, 127
2, 120195, Note_off_c, 2, 74, 127
2, 120198, Note_on_c, 3, 63, 127
2, 120366, Note_off_c, 3, 63, 127
2, 120366, Note_off_c, 5, 41, 127
2, 120368, Note_on_c, 11, 46, 127
2, 120368, Note_on_c, 3, 63, 127
2, 120536, Note_off_c, 3, 63, 127
2, 120539, Note_on_c, 2, 74, 127
2, 120707, Note_off_c, 2, 74, 127
2, 120707, Note_off_c, 11, 46, 127
2, 120710, Note_on_c, 3, 39, 127
2, 120710, Note_on_c, 3, 75, 127
2, 120880, Note_off_c, 8, 68, 127
2, 120881, Note_on_c, 6, 66, 127
2, 121049, Note_off_c, 6, 66, 127
2, 121049, Note_off_c, 3, 39, 127
2, 121051, Note_on_c, 6, 42, 127
2, 121051, Note_on_c, 8, 68, 127
2, 121219, Note_off_c, 8, 68, 127
2, 121222, Note_on_c, 11, 70, 127
2, 121390, Note_off_c, 11, 70, 127
2, 121390, Note_off_c, 6, 42, 127
2, 121393, Note_on_c, 8, 44, 127
2, 121393, Note_on_c, 12, 71, 127
2, 121561, Note_off_c, 3, 75, 127
2, 121564, Note_on_c, 5, 77, 127
2, 121732, Note_off_c, 5, 77, 127
2, 121734, Note_on_c, 6, 78, 127
2, 121902, Note_off_c, 6, 78, 127
2, 121905, Note_on_c, 8, 80, 127
2, 122073, Note_off_c, 8, 80, 127
2, 122074, Note_off_c, 12, 71, 127
2, 122076, Note_on_c, 11, 70, 127
2, 122076, Note_on_c, 2, 74, 127
2, 122176, Note_off_c, 8, 44, 127
2, 122246, Note_off_c, 2, 74, 127
2, 122248, Note_on_c, 5, 53, 127
2, 122248, Note_on_c, 12, 83, 127
2, 122416, Note_off_c, 12, 83, 127
2, 122416, Note_off_c, 5, 53, 127
2, 122419, Note_on_c, 6, 54, 127
2, 122419, Note_on_c, 11, 82, 127
2, 122587, Note_off_c, 11, 82, 127
2, 122587, Note_off_c, 6, 54, 127
2, 122588, Note_off_c, 11, 70, 127
2, 122590, Note_on_c, 8, 56, 127
2, 122590, Note_on_c, 3, 75, 127
2, 122758, Note_off_c, 8, 56, 127
2, 122760, Note_on_c, 11, 58, 127
2, 122760, Note_on_c, 8, 80, 127
2, 122844, Note_off_c, 8, 80, 127
2, 122847, Note_on_c, 6, 78, 127
2, 122931, Note_off_c, 6, 78, 127
2, 122933, Note_on_c, 8, 80, 127
2, 123017, Note_off_c, 8, 80, 127
2, 123019, Note_on_c, 6, 78, 127
2, 123103, Note_off_c, 6, 78, 127
2, 123103, Note_off_c, 11, 58, 127
2, 123103, Note_off_c, 3, 75, 127
2, 123105, Note_on_c, 11, 46, 127
2, 123105, Note_on_c, 2, 74, 127
2, 123105, Note_on_c, 5, 77, 127
2, 123273, Note_off_c, 5, 77, 127
2, 123276, Note_on_c, 3, 75, 127
2, 123444, Note_off_c, 3, 75, 127
2, 123444, Note_off_c, 2, 74, 127
2, 123444, Note_off_c, 11, 46, 127
2, 123447, Note_on_c, 3, 51, 127
2, 123447, Note_on_c, 3, 75, 127
2, 123617, Note_off_c, 3, 51, 127
2, 123619, Note_on_c, 11, 58, 127
2, 123789, Note_off_c, 11, 58, 127
2, 123792, Note_on_c, 11, 58, 127
2, 123792, Note_on_c, 6, 78, 127
2, 123962, Note_off_c, 11, 58, 127
2, 123964, Note_on_c, 6, 54, 127
2, 124129, Note_off_c, 3, 75, 127
2, 124134, Note_off_c, 6, 54, 127
2, 124135, Note_off_c, 6, 78, 127
2, 124137, Note_on_c, 3, 51, 127
2, 124137, Note_on_c, 12, 83, 127
2, 124307, Note_off_c, 3, 51, 127
2, 124309, Note_on_c, 6, 54, 127
2, 124479, Note_off_c, 6, 54, 127
2, 124480, Note_off_c, 12, 83, 127
2, 124482, Note_on_c, 6, 54, 127
2, 124482, Note_on_c, 11, 82, 127
2, 124652, Note_off_c, 6, 54, 127
2, 124654, Note_on_c, 3, 51, 127
2, 124824, Note_off_c, 3, 51, 127
2, 124825, Note_off_c, 11, 82, 127
2, 124827, Note_on_c, 8, 44, 127
2, 124827, Note_on_c, 12, 83, 127
2, 124997, Note_off_c, 8, 44, 127
2, 124999, Note_on_c, 3, 63, 127
2, 125169, Note_off_c, 3, 63, 127
2, 125172, Note_on_c, 3, 63, 127
2, 125172, Note_on_c, 3, 75, 127
2, 125342, Note_off_c, 3, 63, 127
2, 125344, Note_on_c, 12, 59, 127
2, 125514, Note_off_c, 12, 59, 127
2, 125515, Note_off_c, 3, 75, 127
2, 125516, Note_on_c, 8, 56, 127
2, 125516, Note_on_c, 8, 80, 127
2, 125686, Note_off_c, 8, 56, 127
2, 125689, Note_on_c, 12, 59, 127
2, 125859, Note_off_c, 12, 59, 127
2, 125859, Note_off_c, 8, 80, 127
2, 125861, Note_on_c, 12, 59, 127
2, 125861, Note_on_c, 6, 78, 127
2, 126031, Note_off_c, 12, 59, 127
2, 126034, Note_on_c, 8, 56, 127
2, 126204, Note_off_c, 8, 56, 127
2, 126204, Note_off_c, 6, 78, 127
2, 126206, Note_on_c, 5, 53, 127
2, 126206, Note_on_c, 8, 80, 127
2, 126376, Note_off_c, 5, 53, 127
2, 126379, Note_on_c, 8, 56, 127
2, 126549, Note_off_c, 8, 56, 127
2, 126550, Note_off_c, 12, 83, 127
2, 126551, Note_on_c, 8, 56, 127
2, 126551, Note_on_c, 5, 77, 127
2, 126721, Note_off_c, 8, 56, 127
2, 126724, Note_on_c, 5, 53, 127
2, 126894, Note_off_c, 5, 53, 127
2, 126894, Note_off_c, 5, 77, 127
2, 126896, Note_on_c, 1, 49, 127
2, 126896, Note_on_c, 11, 82, 127
2, 127066, Note_off_c, 1, 49, 127
2, 127069, Note_on_c, 5, 53, 127
2, 127200, Note_off_c, 8, 80, 127
2, 127239, Note_off_c, 5, 53, 127
2, 127239, Note_off_c, 11, 82, 127
2, 127241, Note_on_c, 5, 53, 127
2, 127241, Note_on_c, 8, 80, 127
2, 127411, Note_off_c, 5, 53, 127
2, 127414, Note_on_c, 1, 49, 127
2, 127584, Note_off_c, 1, 49, 127
2, 127586, Note_on_c, 6, 42, 127
2, 127586, Note_on_c, 11, 82, 127
2, 127756, Note_off_c, 6, 42, 127
2, 127759, Note_on_c, 1, 61, 127
2, 127929, Note_off_c, 1, 61, 127
2, 127929, Note_off_c, 8, 80, 127
2, 127931, Note_on_c, 1, 61, 127
2, 127931, Note_on_c, 1, 73, 127
2, 128101, Note_off_c, 1, 61, 127
2, 128104, Note_on_c, 11, 58, 127
2, 128274, Note_off_c, 11, 58, 127
2, 128274, Note_off_c, 1, 73, 127
2, 128276, Note_on_c, 6, 54, 127
2, 128276, Note_on_c, 6, 78, 127
2, 128446, Note_off_c, 6, 54, 127
2, 128449, Note_on_c, 11, 58, 127
2, 128619, Note_off_c, 11, 58, 127
2, 128619, Note_off_c, 6, 78, 127
2, 128621, Note_on_c, 11, 58, 127
2, 128621, Note_on_c, 5, 77, 127
2, 128791, Note_off_c, 11, 58, 127
2, 128794, Note_on_c, 6, 54, 127
2, 128964, Note_off_c, 6, 54, 127
2, 128964, Note_off_c, 5, 77, 127
2, 128966, Note_on_c, 3, 51, 127
2, 128966, Note_on_c, 6, 78, 127
2, 129136, Note_off_c, 3, 51, 127
2, 129139, Note_on_c, 6, 54, 127
2, 129309, Note_off_c, 6, 54, 127
2, 129309, Note_off_c, 6, 78, 127
2, 129309, Note_off_c, 11, 82, 127
2, 129311, Note_on_c, 6, 54, 127
2, 129311, Note_on_c, 1, 73, 127
2, 129311, Note_on_c, 11, 82, 127
2, 129481, Note_off_c, 6, 54, 127
2, 129484, Note_on_c, 3, 51, 127
2, 129654, Note_off_c, 3, 51, 127
2, 129654, Note_off_c, 11, 82, 127
2, 129654, Note_off_c, 1, 73, 127
2, 129656, Note_on_c, 12, 47, 127
2, 129656, Note_on_c, 3, 75, 127
2, 129656, Note_on_c, 8, 80, 127
2, 129826, Note_off_c, 12, 47, 127
2, 129828, Note_on_c, 3, 51, 127
2, 129998, Note_off_c, 3, 51, 127
2, 129999, Note_off_c, 8, 80, 127
2, 130001, Note_on_c, 3, 51, 127
2, 130001, Note_on_c, 6, 78, 127
2, 130171, Note_off_c, 3, 51, 127
2, 130173, Note_on_c, 12, 47, 127
2, 130343, Note_off_c, 12, 47, 127
2, 130344, Note_off_c, 6, 78, 127
2, 130346, Note_on_c, 1, 49, 127
2, 130346, Note_on_c, 5, 77, 127
2, 130516, Note_off_c, 3, 75, 127
2, 130518, Note_on_c, 8, 68, 127
2, 130688, Note_off_c, 8, 68, 127
2, 130691, Note_on_c, 1, 37, 127
2, 130691, Note_on_c, 8, 68, 127
2, 130849, Note_off_c, 1, 49, 127
2, 130861, Note_off_c, 8, 68, 127
2, 130863, Note_on_c, 1, 73, 127
2, 131033, Note_off_c, 1, 73, 127
2, 131034, Note_off_c, 5, 77, 127
2, 131036, Note_on_c, 1, 73, 127
2, 131036, Note_on_c, 4, 76, 127
2, 131122, Note_off_c, 1, 37, 127
2, 131206, Note_off_c, 1, 73, 127
2, 131208, Note_on_c, 8, 68, 127
2, 131378, Note_off_c, 8, 68, 127
2, 131381, Note_on_c, 1, 61, 127
2, 131381, Note_on_c, 8, 68, 127
2, 131551, Note_off_c, 8, 68, 127
2, 131551, Note_off_c, 1, 61, 127
2, 131553, Note_on_c, 12, 59, 127
2, 131553, Note_on_c, 12, 71, 127
2, 131723, Note_off_c, 12, 71, 127
2, 131723, Note_off_c, 12, 59, 127
2, 131726, Note_on_c, 1, 61, 127
2, 131726, Note_on_c, 11, 70, 127
2, 131896, Note_off_c, 4, 76, 127
2, 131898, Note_on_c, 1, 73, 127
2, 132068, Note_off_c, 1, 73, 127
2, 132069, Note_off_c, 1, 61, 127
2, 132071, Note_on_c, 6, 54, 127
2, 132071, Note_on_c, 1, 73, 127
2, 132241, Note_off_c, 1, 73, 127
2, 132243, Note_on_c, 4, 76, 127
2, 132413, Note_off_c, 4, 76, 127
2, 132414, Note_off_c, 6, 54, 127
2, 132416, Note_on_c, 12, 59, 127
2, 132416, Note_on_c, 3, 75, 127
2, 132586, Note_off_c, 3, 75, 127
2, 132588, Note_on_c, 12, 71, 127
2, 132758, Note_off_c, 12, 71, 127
2, 132759, Note_off_c, 12, 59, 127
2, 132761, Note_on_c, 11, 58, 127
2, 132761, Note_on_c, 12, 71, 127
2, 132931, Note_off_c, 12, 71, 127
2, 132933, Note_on_c, 3, 75, 127
2, 133104, Note_off_c, 11, 58, 127
2, 133104, Note_off_c, 11, 70, 127
2, 133106, Note_on_c, 12, 59, 127
2, 133106, Note_on_c, 8, 68, 127
2, 133274, Note_off_c, 3, 75, 127
2, 133278, Note_on_c, 12, 71, 127
2, 133448, Note_off_c, 12, 71, 127
2, 133449, Note_off_c, 12, 59, 127
2, 133451, Note_on_c, 5, 53, 127
2, 133451, Note_on_c, 12, 71, 127
2, 133621, Note_off_c, 12, 71, 127
2, 133623, Note_on_c, 3, 75, 127
2, 133793, Note_off_c, 3, 75, 127
2, 133794, Note_off_c, 5, 53, 127
2, 133796, Note_on_c, 11, 58, 127
2, 133796, Note_on_c, 1, 73, 127
2, 133966, Note_off_c, 1, 73, 127
2, 133968, Note_on_c, 11, 70, 127
2, 134138, Note_off_c, 11, 70, 127
2, 134139, Note_off_c, 11, 58, 127
2, 134140, Note_on_c, 8, 56, 127
2, 134140, Note_on_c, 11, 70, 127
2, 134310, Note_off_c, 11, 70, 127
2, 134313, Note_on_c, 1, 73, 127
2, 134483, Note_off_c, 8, 56, 127
2, 134484, Note_off_c, 8, 68, 127
2, 134485, Note_on_c, 11, 58, 127
2, 134485, Note_on_c, 6, 66, 127
2, 134654, Note_off_c, 1, 73, 127
2, 134658, Note_on_c, 11, 70, 127
2, 134828, Note_off_c, 11, 70, 127
2, 134828, Note_off_c, 11, 58, 127
2, 134830, Note_on_c, 3, 51, 127
2, 134830, Note_on_c, 11, 70, 127
2, 135000, Note_off_c, 11, 70, 127
2, 135003, Note_on_c, 1, 73, 127
2, 135173, Note_off_c, 1, 73, 127
2, 135173, Note_off_c, 3, 51, 127
2, 135175, Note_on_c, 8, 56, 127
2, 135175, Note_on_c, 12, 71, 127
2, 135345, Note_off_c, 12, 71, 127
2, 135348, Note_on_c, 8, 68, 127
2, 135518, Note_off_c, 8, 68, 127
2, 135518, Note_off_c, 8, 56, 127
2, 135520, Note_on_c, 6, 54, 127
2, 135520, Note_on_c, 8, 68, 127
2, 135690, Note_off_c, 8, 68, 127
2, 135693, Note_on_c, 12, 71, 127
2, 135863, Note_off_c, 6, 54, 127
2, 135863, Note_off_c, 6, 66, 127
2, 135865, Note_on_c, 8, 56, 127
2, 135865, Note_on_c, 5, 65, 127
2, 136034, Note_off_c, 12, 71, 127
2, 136038, Note_on_c, 8, 68, 127
2, 136208, Note_off_c, 8, 68, 127
2, 136208, Note_off_c, 8, 56, 127
2, 136210, Note_on_c, 1, 49, 127
2, 136210, Note_on_c, 8, 68, 127
2, 136380, Note_off_c, 8, 68, 127
2, 136383, Note_on_c, 12, 71, 127
2, 136533, Note_off_c, 5, 65, 127
2, 136553, Note_off_c, 12, 71, 127
2, 136553, Note_off_c, 1, 49, 127
2, 136555, Note_on_c, 6, 54, 127
2, 136555, Note_on_c, 11, 70, 127
2, 136728, Note_on_c, 12, 71, 127
2, 136898, Note_off_c, 12, 71, 127
2, 136898, Note_off_c, 6, 54, 127
2, 136900, Note_on_c, 5, 53, 127
2, 136900, Note_on_c, 1, 73, 127
2, 137058, Note_off_c, 11, 70, 127
2, 137073, Note_on_c, 8, 68, 127
2, 137243, Note_off_c, 8, 68, 127
2, 137243, Note_off_c, 5, 53, 127
2, 137245, Note_on_c, 6, 54, 127
2, 137245, Note_on_c, 11, 70, 127
2, 137415, Note_off_c, 6, 54, 127
2, 137418, Note_on_c, 11, 58, 127
2, 137582, Note_off_c, 1, 73, 127
2, 137588, Note_off_c, 11, 58, 127
2, 137588, Note_off_c, 11, 70, 127
2, 137590, Note_on_c, 11, 58, 127
2, 137590, Note_on_c, 6, 66, 127
2, 137590, Note_on_c, 1, 73, 127
2, 137760, Note_off_c, 11, 58, 127
2, 137763, Note_on_c, 6, 54, 127
2, 137933, Note_off_c, 6, 54, 127
2, 137933, Note_off_c, 1, 73, 127
2, 137933, Note_off_c, 6, 66, 127
2, 137935, Note_on_c, 3, 51, 127
2, 137935, Note_on_c, 12, 71, 127
2, 137935, Note_on_c, 3, 75, 127
2, 138105, Note_off_c, 3, 51, 127
2, 138108, Note_on_c, 6, 54, 127
2, 138278, Note_off_c, 6, 54, 127
2, 138278, Note_off_c, 3, 75, 127
2, 138278, Note_off_c, 12, 71, 127
2, 138280, Note_on_c, 6, 54, 127
2, 138280, Note_on_c, 11, 70, 127
2, 138280, Note_on_c, 4, 76, 127
2, 138450, Note_off_c, 6, 54, 127
2, 138452, Note_on_c, 3, 51, 127
2, 138622, Note_off_c, 3, 51, 127
2, 138623, Note_off_c, 11, 70, 127
2, 138625, Note_on_c, 12, 47, 127
2, 138625, Note_on_c, 12, 71, 127
2, 138795, Note_off_c, 4, 76, 127
2, 138797, Note_on_c, 3, 75, 127
2, 138967, Note_off_c, 3, 75, 127
2, 138968, Note_off_c, 12, 71, 127
2, 138970, Note_on_c, 11, 70, 127
2, 138970, Note_on_c, 1, 73, 127
2, 139140, Note_off_c, 1, 73, 127
2, 139140, Note_off_c, 11, 70, 127
2, 139142, Note_on_c, 8, 68, 127
2, 139142, Note_on_c, 4, 76, 127
2, 139312, Note_off_c, 4, 76, 127
2, 139312, Note_off_c, 8, 68, 127
2, 139315, Note_on_c, 8, 68, 127
2, 139315, Note_on_c, 3, 75, 127
2, 139399, Note_off_c, 8, 68, 127
2, 139401, Note_on_c, 6, 66, 127
2, 139485, Note_off_c, 6, 66, 127
2, 139485, Note_off_c, 3, 75, 127
2, 139487, Note_on_c, 8, 68, 127
2, 139487, Note_on_c, 12, 71, 127
2, 139571, Note_off_c, 8, 68, 127
2, 139574, Note_on_c, 6, 66, 127
2, 139657, Note_off_c, 12, 71, 127
2, 139658, Note_off_c, 6, 66, 127
2, 139658, Note_off_c, 12, 47, 127
2, 139660, Note_on_c, 12, 59, 127
2, 139660, Note_on_c, 8, 68, 127
2, 139660, Note_on_c, 12, 71, 127
2, 139744, Note_off_c, 8, 68, 127
2, 139746, Note_on_c, 6, 66, 127
2, 139830, Note_off_c, 6, 66, 127
2, 139830, Note_off_c, 12, 71, 127
2, 139832, Note_on_c, 4, 64, 127
2, 139832, Note_on_c, 3, 75, 127
2, 139916, Note_off_c, 4, 64, 127
2, 139919, Note_on_c, 6, 66, 127
2, 140002, Note_off_c, 3, 75, 127
2, 140003, Note_off_c, 6, 66, 127
2, 140003, Note_off_c, 12, 59, 127
2, 140005, Note_on_c, 12, 59, 127
2, 140005, Note_on_c, 8, 68, 127
2, 140005, Note_on_c, 4, 76, 127
2, 140175, Note_off_c, 4, 76, 127
2, 140177, Note_on_c, 12, 71, 127
2, 140347, Note_off_c, 12, 71, 127
2, 140350, Note_on_c, 12, 71, 127
2, 140520, Note_off_c, 12, 71, 127
2, 140522, Note_on_c, 4, 76, 127
2, 140692, Note_off_c, 4, 76, 127
2, 140695, Note_on_c, 6, 78, 127
2, 140865, Note_off_c, 6, 78, 127
2, 140867, Note_off_c, 8, 68, 127
2, 140867, Note_on_c, 12, 71, 127
2, 141037, Note_off_c, 12, 71, 127
2, 141040, Note_on_c, 6, 66, 127
2, 141040, Note_on_c, 12, 71, 127
2, 141210, Note_off_c, 12, 71, 127
2, 141212, Note_on_c, 6, 78, 127
2, 141382, Note_off_c, 6, 78, 127
2, 141383, Note_off_c, 6, 66, 127
2, 141385, Note_on_c, 4, 64, 127
2, 141385, Note_on_c, 8, 80, 127
2, 141555, Note_off_c, 8, 80, 127
2, 141557, Note_on_c, 12, 71, 127
2, 141727, Note_off_c, 12, 71, 127
2, 141728, Note_off_c, 4, 64, 127
2, 141730, Note_on_c, 3, 63, 127
2, 141730, Note_on_c, 12, 71, 127
2, 141900, Note_off_c, 12, 71, 127
2, 141902, Note_on_c, 8, 80, 127
2, 142072, Note_off_c, 8, 80, 127
2, 142073, Note_off_c, 3, 63, 127
2, 142075, Note_on_c, 1, 61, 127
2, 142075, Note_on_c, 11, 82, 127
2, 142245, Note_off_c, 11, 82, 127
2, 142247, Note_on_c, 12, 71, 127
2, 142417, Note_off_c, 12, 71, 127
2, 142418, Note_off_c, 1, 61, 127
2, 142420, Note_on_c, 6, 66, 127
2, 142420, Note_on_c, 12, 71, 127
2, 142590, Note_off_c, 12, 71, 127
2, 142592, Note_on_c, 11, 82, 127
2, 142762, Note_off_c, 11, 82, 127
2, 142763, Note_off_c, 6, 66, 127
2, 142764, Note_on_c, 3, 63, 127
2, 142764, Note_on_c, 12, 83, 127
2, 142935, Note_off_c, 12, 59, 127
2, 142937, Note_on_c, 11, 58, 127
2, 143105, Note_off_c, 12, 83, 127
2, 143107, Note_off_c, 11, 58, 127
2, 143107, Note_off_c, 3, 63, 127
2, 143109, Note_on_c, 8, 56, 127
2, 143109, Note_on_c, 3, 63, 127
2, 143279, Note_off_c, 8, 56, 127
2, 143282, Note_on_c, 6, 54, 127
2, 143452, Note_off_c, 6, 54, 127
2, 143452, Note_off_c, 3, 63, 127
2, 143454, Note_on_c, 4, 52, 127
2, 143454, Note_on_c, 8, 68, 127
2, 143624, Note_off_c, 4, 52, 127
2, 143627, Note_on_c, 1, 61, 127
2, 143797, Note_off_c, 1, 61, 127
2, 143797, Note_off_c, 8, 68, 127
2, 143799, Note_on_c, 1, 61, 127
2, 143799, Note_on_c, 7, 67, 127
2, 143969, Note_off_c, 1, 61, 127
2, 143972, Note_on_c, 4, 52, 127
2, 144142, Note_off_c, 4, 52, 127
2, 144142, Note_off_c, 7, 67, 127
2, 144144, Note_on_c, 3, 51, 127
2, 144144, Note_on_c, 8, 68, 127
2, 144314, Note_off_c, 3, 51, 127
2, 144317, Note_on_c, 12, 59, 127
2, 144487, Note_off_c, 12, 59, 127
2, 144489, Note_on_c, 12, 59, 127
2, 144489, Note_on_c, 3, 75, 127
2, 144659, Note_off_c, 12, 59, 127
2, 144662, Note_on_c, 3, 51, 127
2, 144832, Note_off_c, 3, 51, 127
2, 144832, Note_off_c, 3, 75, 127
2, 144834, Note_on_c, 1, 49, 127
2, 144834, Note_on_c, 8, 80, 127
2, 145004, Note_off_c, 1, 49, 127
2, 145006, Note_off_c, 8, 68, 127
2, 145007, Note_on_c, 11, 58, 127
2, 145177, Note_off_c, 11, 58, 127
2, 145177, Note_off_c, 8, 80, 127
2, 145179, Note_on_c, 11, 58, 127
2, 145179, Note_on_c, 11, 70, 127
2, 145179, Note_on_c, 7, 79, 127
2, 145349, Note_off_c, 11, 58, 127
2, 145352, Note_on_c, 1, 49, 127
2, 145522, Note_off_c, 1, 49, 127
2, 145522, Note_off_c, 7, 79, 127
2, 145522, Note_off_c, 11, 70, 127
2, 145524, Note_on_c, 12, 47, 127
2, 145524, Note_on_c, 12, 71, 127
2, 145524, Note_on_c, 8, 80, 127
2, 145694, Note_off_c, 12, 47, 127
2, 145697, Note_on_c, 1, 49, 127
2, 145867, Note_off_c, 1, 49, 127
2, 145867, Note_off_c, 8, 80, 127
2, 145867, Note_off_c, 12, 71, 127
2, 145869, Note_on_c, 12, 47, 127
2, 145869, Note_on_c, 1, 73, 127
2, 145869, Note_on_c, 11, 82, 127
2, 146039, Note_off_c, 12, 47, 127
2, 146042, Note_on_c, 11, 46, 127
2, 146212, Note_off_c, 11, 46, 127
2, 146212, Note_off_c, 11, 82, 127
2, 146212, Note_off_c, 1, 73, 127
2, 146214, Note_on_c, 8, 44, 127
2, 146214, Note_on_c, 3, 75, 127
2, 146214, Note_on_c, 12, 83, 127
2, 146384, Note_off_c, 8, 44, 127
2, 146387, Note_on_c, 11, 46, 127
2, 146557, Note_off_c, 11, 46, 127
2, 146557, Note_off_c, 12, 83, 127
2, 146557, Note_off_c, 3, 75, 127
2, 146559, Note_on_c, 12, 47, 127
2, 146559, Note_on_c, 12, 71, 127
2, 146559, Note_on_c, 8, 80, 127
2, 146729, Note_off_c, 12, 47, 127
2, 146732, Note_on_c, 8, 44, 127
2, 146902, Note_off_c, 8, 44, 127
2, 146902, Note_off_c, 8, 80, 127
2, 146902, Note_off_c, 12, 71, 127
2, 146904, Note_on_c, 1, 49, 127
2, 146904, Note_on_c, 8, 68, 127
2, 146904, Note_on_c, 5, 77, 127
2, 147074, Note_off_c, 1, 49, 127
2, 147076, Note_on_c, 3, 51, 127
2, 147224, Note_off_c, 5, 77, 127
2, 147245, Note_off_c, 8, 68, 127
2, 147246, Note_off_c, 3, 51, 127
2, 147249, Note_on_c, 1, 49, 127
2, 147249, Note_on_c, 1, 73, 127
2, 147419, Note_off_c, 1, 49, 127
2, 147421, Note_on_c, 12, 47, 127
2, 147591, Note_off_c, 12, 47, 127
2, 147594, Note_on_c, 11, 46, 127
2, 147594, Note_on_c, 6, 78, 127
2, 147749, Note_off_c, 1, 73, 127
2, 147766, Note_off_c, 11, 46, 127
2, 147768, Note_on_c, 12, 47, 127
2, 147938, Note_off_c, 12, 47, 127
2, 147938, Note_off_c, 6, 78, 127
2, 147941, Note_on_c, 1, 49, 127
2, 147941, Note_on_c, 1, 73, 127
2, 147941, Note_on_c, 5, 77, 127
2, 148111, Note_off_c, 1, 49, 127
2, 148113, Note_on_c, 11, 46, 127
2, 148283, Note_off_c, 11, 46, 127
2, 148284, Note_off_c, 5, 77, 127
2, 148284, Note_off_c, 1, 73, 127
2, 148286, Note_on_c, 3, 51, 127
2, 148286, Note_on_c, 11, 70, 127
2, 148286, Note_on_c, 6, 78, 127
2, 148456, Note_off_c, 3, 51, 127
2, 148458, Note_on_c, 5, 53, 127
2, 148628, Note_off_c, 5, 53, 127
2, 148629, Note_off_c, 6, 78, 127
2, 148631, Note_on_c, 6, 54, 127
2, 148631, Note_on_c, 5, 77, 127
2, 148801, Note_off_c, 5, 77, 127
2, 148803, Note_on_c, 3, 75, 127
2, 148973, Note_off_c, 3, 75, 127
2, 148976, Note_on_c, 3, 75, 127
2, 149060, Note_off_c, 3, 75, 127
2, 149062, Note_on_c, 1, 73, 127
2, 149146, Note_off_c, 1, 73, 127
2, 149146, Note_off_c, 6, 54, 127
2, 149148, Note_off_c, 11, 70, 127
2, 149148, Note_on_c, 5, 53, 127
2, 149148, Note_on_c, 3, 75, 127
2, 149232, Note_off_c, 3, 75, 127
2, 149234, Note_on_c, 1, 73, 127
2, 149318, Note_off_c, 1, 73, 127
2, 149318, Note_off_c, 5, 53, 127
2, 149320, Note_on_c, 3, 51, 127
2, 149320, Note_on_c, 11, 70, 127
2, 149320, Note_on_c, 3, 75, 127
2, 149404, Note_off_c, 3, 75, 127
2, 149407, Note_on_c, 1, 73, 127
2, 149490, Note_off_c, 3, 51, 127
2, 149491, Note_off_c, 1, 73, 127
2, 149493, Note_on_c, 1, 49, 127
2, 149493, Note_on_c, 12, 71, 127
2, 149577, Note_off_c, 12, 71, 127
2, 149579, Note_on_c, 1, 73, 127
2, 149663, Note_off_c, 1, 73, 127
2, 149663, Note_off_c, 1, 49, 127
2, 149663, Note_off_c, 11, 70, 127
2, 149665, Note_on_c, 12, 47, 127
2, 149665, Note_on_c, 8, 68, 127
2, 149665, Note_on_c, 3, 75, 127
2, 149835, Note_off_c, 8, 68, 127
2, 149835, Note_off_c, 12, 47, 127
2, 149838, Note_on_c, 1, 49, 127
2, 149838, Note_on_c, 5, 65, 127
2, 150008, Note_off_c, 5, 65, 127
2, 150008, Note_off_c, 1, 49, 127
2, 150010, Note_on_c, 3, 51, 127
2, 150010, Note_on_c, 6, 66, 127
2, 150180, Note_off_c, 6, 66, 127
2, 150180, Note_off_c, 3, 51, 127
2, 150183, Note_on_c, 11, 46, 127
2, 150183, Note_on_c, 11, 70, 127
2, 150353, Note_off_c, 11, 70, 127
2, 150353, Note_off_c, 11, 46, 127
2, 150355, Note_on_c, 12, 47, 127
2, 150355, Note_on_c, 8, 68, 127
2, 150525, Note_off_c, 8, 68, 127
2, 150525, Note_off_c, 12, 47, 127
2, 150527, Note_off_c, 3, 75, 127
2, 150528, Note_on_c, 1, 49, 127
2, 150528, Note_on_c, 5, 65, 127
2, 150698, Note_off_c, 5, 65, 127
2, 150698, Note_off_c, 1, 49, 127
2, 150700, Note_on_c, 3, 51, 127
2, 150700, Note_on_c, 6, 66, 127
2, 150700, Note_on_c, 1, 73, 127
2, 150870, Note_off_c, 3, 51, 127
2, 150873, Note_on_c, 12, 47, 127
2, 151043, Note_off_c, 12, 47, 127
2, 151043, Note_off_c, 1, 73, 127
2, 151045, Note_on_c, 8, 44, 127
2, 151045, Note_on_c, 12, 71, 127
2, 151215, Note_off_c, 6, 66, 127
2, 151218, Note_on_c, 5, 65, 127
2, 151388, Note_off_c, 5, 65, 127
2, 151388, Note_off_c, 12, 71, 127
2, 151388, Note_off_c, 8, 44, 127
2, 151390, Note_on_c, 11, 46, 127
2, 151390, Note_on_c, 6, 66, 127
2, 151390, Note_on_c, 11, 70, 127
2, 151560, Note_off_c, 11, 46, 127
2, 151563, Note_on_c, 12, 47, 127
2, 151733, Note_off_c, 12, 47, 127
2, 151733, Note_off_c, 11, 70, 127
2, 151735, Note_on_c, 1, 49, 127
2, 151735, Note_on_c, 8, 68, 127
2, 152079, Note_off_c, 8, 68, 127
2, 152079, Note_off_c, 6, 66, 127
2, 152086, Note_on_c, 1, 73, 127
2, 152086, Note_on_c, 1, 37, 127
2, 152086, Note_on_c, 5, 65, 127
2, 152384, Note_off_c, 1, 49, 127
2, 152440, Note_off_c, 5, 65, 127
2, 152440, Note_off_c, 1, 37, 127
2, 152445, Note_on_c, 11, 70, 127
2, 152445, Note_on_c, 6, 66, 127
2, 152445, Note_on_c, 6, 42, 127
2, 152455, Note_off_c, 1, 73, 127
2, 152619, Note_off_c, 11, 70, 127
2, 152621, Note_on_c, 1, 73, 127
2, 152795, Note_off_c, 1, 73, 127
2, 152795, Note_off_c, 6, 42, 127
2, 152797, Note_on_c, 1, 73, 127
2, 152797, Note_on_c, 6, 54, 127
2, 152971, Note_off_c, 1, 73, 127
2, 152973, Note_on_c, 11, 70, 127
2, 153141, Note_off_c, 6, 66, 127
2, 153147, Note_off_c, 11, 70, 127
2, 153147, Note_off_c, 6, 54, 127
2, 153149, Note_on_c, 8, 68, 127
2, 153149, Note_on_c, 5, 53, 127
2, 153323, Note_off_c, 8, 68, 127
2, 153325, Note_on_c, 1, 73, 127
2, 153499, Note_off_c, 1, 73, 127
2, 153499, Note_off_c, 5, 53, 127
2, 153501, Note_on_c, 1, 73, 127
2, 153501, Note_on_c, 5, 65, 127
2, 153501, Note_on_c, 1, 49, 127
2, 153675, Note_off_c, 1, 73, 127
2, 153677, Note_on_c, 8, 68, 127
2, 153851, Note_off_c, 8, 68, 127
2, 153851, Note_off_c, 1, 49, 127
2, 153851, Note_off_c, 5, 65, 127
2, 153853, Note_on_c, 11, 70, 127
2, 153853, Note_on_c, 6, 66, 127
2, 153853, Note_on_c, 6, 54, 127
2, 154034, Note_off_c, 6, 54, 127
2, 154036, Note_on_c, 11, 58, 127
2, 154217, Note_off_c, 11, 58, 127
2, 154217, Note_off_c, 11, 70, 127
2, 154219, Note_on_c, 1, 73, 127
2, 154219, Note_on_c, 11, 58, 127
2, 154400, Note_off_c, 11, 58, 127
2, 154402, Note_on_c, 6, 54, 127
2, 154583, Note_off_c, 6, 54, 127
2, 154583, Note_off_c, 1, 73, 127
2, 154585, Note_on_c, 6, 78, 127
2, 154585, Note_on_c, 3, 51, 127
2, 154766, Note_off_c, 3, 51, 127
2, 154768, Note_on_c, 6, 54, 127
2, 154949, Note_off_c, 6, 54, 127
2, 154949, Note_off_c, 6, 66, 127
2, 154951, Note_on_c, 11, 70, 127
2, 154951, Note_on_c, 6, 54, 127
2, 155132, Note_off_c, 6, 54, 127
2, 155134, Note_on_c, 3, 51, 127
2, 155315, Note_off_c, 3, 51, 127
2, 155315, Note_off_c, 11, 70, 127
2, 155317, Note_on_c, 8, 68, 127
2, 155317, Note_on_c, 12, 47, 127
2, 155512, Note_off_c, 8, 68, 127
2, 155514, Note_on_c, 3, 75, 127
2, 155709, Note_off_c, 3, 75, 127
2, 155709, Note_off_c, 12, 47, 127
2, 155711, Note_on_c, 3, 75, 127
2, 155711, Note_on_c, 8, 44, 127
2, 155906, Note_off_c, 3, 75, 127
2, 155908, Note_on_c, 12, 71, 127
2, 156103, Note_off_c, 12, 71, 127
2, 156103, Note_off_c, 8, 44, 127
2, 156103, Note_off_c, 6, 78, 127
2, 156105, Note_on_c, 5, 77, 127
2, 156105, Note_on_c, 8, 68, 127
2, 156105, Note_on_c, 1, 49, 127
2, 156323, Note_off_c, 8, 68, 127
2, 156325, Note_on_c, 1, 73, 127
2, 156543, Note_off_c, 1, 73, 127
2, 156545, Note_on_c, 1, 73, 127
2, 156545, Note_on_c, 1, 37, 127
2, 156763, Note_off_c, 1, 73, 127
2, 156765, Note_on_c, 12, 71, 127
2, 156983, Note_off_c, 1, 37, 127
2, 156996, Note_off_c, 5, 77, 127
2, 156999, Note_off_c, 12, 71, 127
2, 157001, Note_on_c, 6, 42, 127
2, 157001, Note_on_c, 11, 70, 127
2, 157001, Note_on_c, 6, 78, 127
2, 157005, Note_off_c, 1, 49, 127
2, 160201, Note_off_c, 6, 78, 127
2, 160201, Note_off_c, 11, 70, 127
2, 160201, Note_off_c, 6, 42, 127
2, 165888, End_track
3, 0, Start_track
3, 0, Title_t, "MIDI"
3, 1536, End_track
0, 0, End_of_file
