0, 0, Header, 1, 3, 384
1, 0, Start_track
1, 0, Time_signature, 4, 2, 24, 8
1, 0, Tempo, 500000
1, 375936, End_track
2, 0, Start_track
2, 0, Text_t, "harpsichord: John Sankey"
2, 0, Program_c, 0, 6
2, 0, Pitch_bend_c, 0, 8192
2, 0, Program_c, 1, 6
2, 0, Pitch_bend_c, 1, 7792
2, 0, Program_c, 2, 6
2, 0, Pitch_bend_c, 2, 7876
2, 0, Program_c, 3, 6
2, 0, Pitch_bend_c, 3, 7952
2, 0, Program_c, 4, 6
2, 0, Pitch_bend_c, 4, 7792
2, 0, Program_c, 5, 6
2, 0, Pitch_bend_c, 5, 8112
2, 0, Program_c, 6, 6
2, 0, Pitch_bend_c, 6, 7712
2, 0, Program_c, 7, 6
2, 0, Pitch_bend_c, 7, 8037
2, 0, Program_c, 8, 6
2, 0, Pitch_bend_c, 8, 7872
2, 0, Program_c, 10, 6
2, 0, Pitch_bend_c, 10, 7712
2, 0, Program_c, 11, 6
2, 0, Pitch_bend_c, 11, 8032
2, 0, Program_c, 12, 6
2, 0, Pitch_bend_c, 12, 7872
2, 0, Title_t, "Track 1"
2, 32, Note_on_c, 3, 75, 127
2, 32, Note_on_c, 7, 67, 127
2, 32, Note_on_c, 3, 63, 127
2, 179, Note_off_c, 3, 75, 127
2, 180, Note_on_c, 5, 77, 127
2, 327, Note_off_c, 5, 77, 127
2, 329, Note_on_c, 7, 79, 127
2, 476, Note_off_c, 7, 79, 127
2, 478, Note_on_c, 3, 75, 127
2, 625, Note_off_c, 3, 75, 127
2, 627, Note_on_c, 2, 74, 127
2, 774, Note_off_c, 2, 74, 127
2, 776, Note_on_c, 0, 72, 127
2, 791, Note_off_c, 7, 67, 127
2, 923, Note_off_c, 0, 72, 127
2, 923, Note_off_c, 3, 63, 127
2, 924, Note_on_c, 11, 70, 127
2, 924, Note_on_c, 2, 62, 127
2, 924, Note_on_c, 5, 65, 127
2, 1071, Note_off_c, 11, 70, 127
2, 1073, Note_on_c, 8, 68, 127
2, 1220, Note_off_c, 8, 68, 127
2, 1220, Note_off_c, 5, 65, 127
2, 1220, Note_off_c, 2, 62, 127
2, 1222, Note_on_c, 7, 67, 127
2, 1222, Note_on_c, 3, 63, 127
2, 1369, Note_off_c, 3, 63, 127
2, 1369, Note_off_c, 7, 67, 127
2, 1371, Note_on_c, 8, 68, 127
2, 1371, Note_on_c, 5, 65, 127
2, 1518, Note_off_c, 5, 65, 127
2, 1518, Note_off_c, 8, 68, 127
2, 1520, Note_on_c, 11, 70, 127
2, 1520, Note_on_c, 7, 67, 127
2, 1667, Note_off_c, 7, 67, 127
2, 1667, Note_off_c, 11, 70, 127
2, 1668, Note_on_c, 0, 72, 127
2, 1668, Note_on_c, 3, 63, 127
2, 1815, Note_off_c, 3, 63, 127
2, 1815, Note_off_c, 0, 72, 127
2, 1817, Note_on_c, 11, 70, 127
2, 1817, Note_on_c, 2, 62, 127
2, 1964, Note_off_c, 2, 62, 127
2, 1964, Note_off_c, 11, 70, 127
2, 1966, Note_on_c, 3, 75, 127
2, 1966, Note_on_c, 0, 60, 127
2, 2113, Note_off_c, 0, 60, 127
2, 2113, Note_off_c, 3, 75, 127
2, 2115, Note_on_c, 2, 74, 127
2, 2115, Note_on_c, 11, 58, 127
2, 2262, Note_off_c, 11, 58, 127
2, 2262, Note_off_c, 2, 74, 127
2, 2264, Note_on_c, 0, 72, 127
2, 2264, Note_on_c, 8, 56, 127
2, 2411, Note_off_c, 8, 56, 127
2, 2411, Note_off_c, 0, 72, 127
2, 2412, Note_on_c, 11, 70, 127
2, 2412, Note_on_c, 7, 55, 127
2, 2559, Note_off_c, 7, 55, 127
2, 2559, Note_off_c, 11, 70, 127
2, 2561, Note_on_c, 8, 68, 127
2, 2561, Note_on_c, 5, 53, 127
2, 2708, Note_off_c, 5, 53, 127
2, 2708, Note_off_c, 8, 68, 127
2, 2710, Note_on_c, 7, 67, 127
2, 2710, Note_on_c, 3, 51, 127
2, 2857, Note_off_c, 3, 51, 127
2, 2857, Note_off_c, 7, 67, 127
2, 2859, Note_on_c, 0, 72, 127
2, 2859, Note_on_c, 5, 53, 127
2, 3006, Note_off_c, 5, 53, 127
2, 3006, Note_off_c, 0, 72, 127
2, 3008, Note_on_c, 11, 70, 127
2, 3008, Note_on_c, 7, 55, 127
2, 3155, Note_off_c, 11, 70, 127
2, 3156, Note_on_c, 8, 68, 127
2, 3271, Note_off_c, 7, 55, 127
2, 3303, Note_off_c, 8, 68, 127
2, 3305, Note_on_c, 7, 67, 127
2, 3305, Note_on_c, 8, 56, 127
2, 3452, Note_off_c, 7, 67, 127
2, 3454, Note_on_c, 5, 65, 127
2, 3568, Note_off_c, 8, 56, 127
2, 3601, Note_off_c, 5, 65, 127
2, 3603, Note_on_c, 3, 63, 127
2, 3603, Note_on_c, 11, 58, 127
2, 3675, Note_off_c, 11, 58, 127
2, 3677, Note_on_c, 8, 56, 127
2, 3749, Note_off_c, 8, 56, 127
2, 3750, Note_off_c, 3, 63, 127
2, 3752, Note_on_c, 2, 62, 127
2, 3752, Note_on_c, 11, 58, 127
2, 3899, Note_off_c, 11, 58, 127
2, 3899, Note_off_c, 2, 62, 127
2, 3900, Note_on_c, 0, 60, 127
2, 3900, Note_on_c, 5, 53, 127
2, 4047, Note_off_c, 0, 60, 127
2, 4049, Note_on_c, 2, 62, 127
2, 4196, Note_off_c, 2, 62, 127
2, 4196, Note_off_c, 5, 53, 127
2, 4198, Note_on_c, 11, 58, 127
2, 4198, Note_on_c, 2, 50, 127
2, 4345, Note_off_c, 11, 58, 127
2, 4347, Note_on_c, 2, 62, 127
2, 4461, Note_off_c, 2, 50, 127
2, 4494, Note_off_c, 2, 62, 127
2, 4496, Note_on_c, 5, 65, 127
2, 4496, Note_on_c, 11, 46, 127
2, 4643, Note_off_c, 5, 65, 127
2, 4644, Note_on_c, 8, 68, 127
2, 4759, Note_off_c, 11, 46, 127
2, 4791, Note_off_c, 8, 68, 127
2, 4793, Note_on_c, 7, 67, 127
2, 4793, Note_on_c, 3, 51, 127
2, 4940, Note_off_c, 7, 67, 127
2, 4942, Note_on_c, 8, 68, 127
2, 5089, Note_off_c, 8, 68, 127
2, 5091, Note_on_c, 11, 70, 127
2, 5091, Note_on_c, 7, 55, 127
2, 5104, Note_off_c, 3, 51, 127
2, 5240, Note_on_c, 3, 75, 127
2, 5308, Note_off_c, 11, 70, 127
2, 5370, Note_off_c, 7, 55, 127
2, 5387, Note_off_c, 3, 75, 127
2, 5388, Note_on_c, 8, 68, 127
2, 5388, Note_on_c, 7, 55, 127
2, 5460, Note_off_c, 7, 55, 127
2, 5463, Note_on_c, 5, 53, 127
2, 5535, Note_off_c, 5, 53, 127
2, 5537, Note_on_c, 3, 75, 127
2, 5537, Note_on_c, 7, 55, 127
2, 5605, Note_off_c, 8, 68, 127
2, 5609, Note_off_c, 7, 55, 127
2, 5612, Note_on_c, 5, 53, 127
2, 5684, Note_off_c, 5, 53, 127
2, 5684, Note_off_c, 3, 75, 127
2, 5686, Note_on_c, 7, 67, 127
2, 5686, Note_on_c, 3, 51, 127
2, 5835, Note_on_c, 3, 75, 127
2, 5903, Note_off_c, 7, 67, 127
2, 5965, Note_off_c, 3, 51, 127
2, 5982, Note_off_c, 3, 75, 127
2, 5984, Note_on_c, 5, 65, 127
2, 5984, Note_on_c, 2, 50, 127
2, 6131, Note_off_c, 2, 50, 127
2, 6131, Note_off_c, 5, 65, 127
2, 6132, Note_on_c, 7, 67, 127
2, 6132, Note_on_c, 3, 51, 127
2, 6279, Note_off_c, 3, 51, 127
2, 6279, Note_off_c, 7, 67, 127
2, 6281, Note_on_c, 8, 68, 127
2, 6281, Note_on_c, 5, 53, 127
2, 6428, Note_off_c, 5, 53, 127
2, 6428, Note_off_c, 8, 68, 127
2, 6430, Note_on_c, 5, 65, 127
2, 6430, Note_on_c, 2, 50, 127
2, 6577, Note_off_c, 2, 50, 127
2, 6577, Note_off_c, 5, 65, 127
2, 6579, Note_on_c, 3, 63, 127
2, 6579, Note_on_c, 0, 48, 127
2, 6726, Note_off_c, 0, 48, 127
2, 6728, Note_on_c, 8, 68, 127
2, 6728, Note_on_c, 5, 53, 127
2, 6796, Note_off_c, 3, 63, 127
2, 6875, Note_off_c, 5, 53, 127
2, 6875, Note_off_c, 8, 68, 127
2, 6876, Note_on_c, 2, 62, 127
2, 6876, Note_on_c, 11, 46, 127
2, 7023, Note_off_c, 11, 46, 127
2, 7025, Note_on_c, 8, 68, 127
2, 7025, Note_on_c, 5, 53, 127
2, 7093, Note_off_c, 2, 62, 127
2, 7172, Note_off_c, 5, 53, 127
2, 7172, Note_off_c, 8, 68, 127
2, 7174, Note_on_c, 7, 67, 127
2, 7174, Note_on_c, 3, 51, 127
2, 7321, Note_off_c, 7, 67, 127
2, 7323, Note_on_c, 8, 68, 127
2, 7460, Note_off_c, 3, 51, 127
2, 7470, Note_off_c, 8, 68, 127
2, 7472, Note_on_c, 11, 70, 127
2, 7472, Note_on_c, 7, 55, 127
2, 7619, Note_off_c, 11, 70, 127
2, 7620, Note_on_c, 3, 75, 127
2, 7758, Note_off_c, 7, 55, 127
2, 7769, Note_on_c, 8, 68, 127
2, 7769, Note_on_c, 5, 53, 127
2, 7841, Note_off_c, 5, 53, 127
2, 7844, Note_on_c, 7, 55, 127
2, 7914, Note_off_c, 3, 75, 127
2, 7916, Note_off_c, 7, 55, 127
2, 7916, Note_off_c, 8, 68, 127
2, 7918, Note_on_c, 3, 75, 127
2, 7918, Note_on_c, 5, 53, 127
2, 8059, Note_off_c, 5, 53, 127
2, 8067, Note_on_c, 7, 67, 127
2, 8067, Note_on_c, 3, 51, 127
2, 8212, Note_off_c, 3, 75, 127
2, 8214, Note_off_c, 7, 67, 127
2, 8216, Note_on_c, 3, 75, 127
2, 8353, Note_off_c, 3, 51, 127
2, 8363, Note_off_c, 3, 75, 127
2, 8364, Note_on_c, 5, 65, 127
2, 8364, Note_on_c, 2, 50, 127
2, 8511, Note_off_c, 2, 50, 127
2, 8511, Note_off_c, 5, 65, 127
2, 8513, Note_on_c, 7, 67, 127
2, 8513, Note_on_c, 3, 51, 127
2, 8660, Note_off_c, 3, 51, 127
2, 8660, Note_off_c, 7, 67, 127
2, 8662, Note_on_c, 8, 68, 127
2, 8662, Note_on_c, 5, 53, 127
2, 8809, Note_off_c, 5, 53, 127
2, 8811, Note_on_c, 5, 65, 127
2, 8811, Note_on_c, 2, 50, 127
2, 8958, Note_off_c, 2, 50, 127
2, 8958, Note_off_c, 5, 65, 127
2, 8960, Note_on_c, 3, 63, 127
2, 8960, Note_on_c, 0, 48, 127
2, 9096, Note_off_c, 8, 68, 127
2, 9107, Note_off_c, 0, 48, 127
2, 9107, Note_off_c, 3, 63, 127
2, 9108, Note_on_c, 8, 68, 127
2, 9108, Note_on_c, 5, 53, 127
2, 9255, Note_off_c, 5, 53, 127
2, 9257, Note_on_c, 2, 62, 127
2, 9257, Note_on_c, 11, 46, 127
2, 9402, Note_off_c, 8, 68, 127
2, 9404, Note_off_c, 11, 46, 127
2, 9404, Note_off_c, 2, 62, 127
2, 9406, Note_on_c, 8, 68, 127
2, 9406, Note_on_c, 5, 53, 127
2, 9553, Note_off_c, 5, 53, 127
2, 9553, Note_off_c, 8, 68, 127
2, 9555, Note_on_c, 7, 67, 127
2, 9555, Note_on_c, 3, 51, 127
2, 9702, Note_off_c, 7, 67, 127
2, 9704, Note_on_c, 8, 68, 127
2, 9851, Note_off_c, 8, 68, 127
2, 9851, Note_off_c, 3, 51, 127
2, 9852, Note_on_c, 11, 70, 127
2, 9852, Note_on_c, 3, 39, 127
2, 10001, Note_on_c, 5, 65, 127
2, 10148, Note_off_c, 5, 65, 127
2, 10148, Note_off_c, 3, 39, 127
2, 10150, Note_on_c, 3, 63, 127
2, 10150, Note_on_c, 5, 41, 127
2, 10286, Note_off_c, 11, 70, 127
2, 10297, Note_off_c, 3, 63, 127
2, 10299, Note_on_c, 11, 70, 127
2, 10436, Note_off_c, 5, 41, 127
2, 10448, Note_on_c, 1, 61, 127
2, 10448, Note_on_c, 7, 43, 127
2, 10593, Note_off_c, 11, 70, 127
2, 10595, Note_off_c, 1, 61, 127
2, 10596, Note_on_c, 11, 70, 127
2, 10734, Note_off_c, 7, 43, 127
2, 10743, Note_off_c, 11, 70, 127
2, 10745, Note_on_c, 0, 60, 127
2, 10745, Note_on_c, 8, 44, 127
2, 10892, Note_off_c, 0, 60, 127
2, 10894, Note_on_c, 1, 61, 127
2, 11041, Note_off_c, 1, 61, 127
2, 11041, Note_off_c, 8, 44, 127
2, 11043, Note_on_c, 3, 63, 127
2, 11043, Note_on_c, 7, 55, 127
2, 11190, Note_off_c, 3, 63, 127
2, 11192, Note_on_c, 8, 68, 127
2, 11339, Note_off_c, 7, 55, 127
2, 11340, Note_on_c, 2, 62, 127
2, 11340, Note_on_c, 5, 53, 127
2, 11412, Note_off_c, 5, 53, 127
2, 11415, Note_on_c, 7, 55, 127
2, 11486, Note_off_c, 8, 68, 127
2, 11487, Note_off_c, 7, 55, 127
2, 11487, Note_off_c, 2, 62, 127
2, 11489, Note_on_c, 8, 68, 127
2, 11489, Note_on_c, 5, 53, 127
2, 11636, Note_off_c, 5, 53, 127
2, 11638, Note_on_c, 0, 60, 127
2, 11638, Note_on_c, 3, 51, 127
2, 11783, Note_off_c, 8, 68, 127
2, 11785, Note_off_c, 0, 60, 127
2, 11787, Note_on_c, 8, 68, 127
2, 11927, Note_off_c, 3, 51, 127
2, 11934, Note_off_c, 8, 68, 127
2, 11936, Note_on_c, 11, 58, 127
2, 11936, Note_on_c, 2, 50, 127
2, 12083, Note_off_c, 11, 58, 127
2, 12084, Note_on_c, 8, 68, 127
2, 12231, Note_off_c, 8, 68, 127
2, 12232, Note_off_c, 2, 50, 127
2, 12233, Note_on_c, 7, 67, 127
2, 12233, Note_on_c, 3, 51, 127
2, 12380, Note_off_c, 7, 67, 127
2, 12382, Note_on_c, 5, 65, 127
2, 12529, Note_off_c, 5, 65, 127
2, 12529, Note_off_c, 3, 51, 127
2, 12531, Note_on_c, 7, 67, 127
2, 12531, Note_on_c, 11, 58, 127
2, 12678, Note_off_c, 7, 67, 127
2, 12680, Note_on_c, 3, 63, 127
2, 12827, Note_off_c, 3, 63, 127
2, 12827, Note_off_c, 11, 58, 127
2, 12828, Note_on_c, 11, 58, 127
2, 12828, Note_on_c, 11, 46, 127
2, 12975, Note_off_c, 11, 58, 127
2, 12977, Note_on_c, 2, 62, 127
2, 13124, Note_off_c, 2, 62, 127
2, 13124, Note_off_c, 11, 46, 127
2, 13126, Note_on_c, 2, 62, 127
2, 13126, Note_on_c, 3, 51, 127
2, 13273, Note_off_c, 3, 51, 127
2, 13273, Note_off_c, 2, 62, 127
2, 13275, Note_on_c, 3, 63, 127
2, 13275, Note_on_c, 5, 53, 127
2, 13347, Note_off_c, 3, 63, 127
2, 13349, Note_on_c, 2, 62, 127
2, 13421, Note_off_c, 2, 62, 127
2, 13422, Note_off_c, 5, 53, 127
2, 13424, Note_on_c, 3, 63, 127
2, 13424, Note_on_c, 7, 55, 127
2, 13571, Note_off_c, 7, 55, 127
2, 13572, Note_on_c, 5, 53, 127
2, 13719, Note_off_c, 5, 53, 127
2, 13721, Note_on_c, 3, 51, 127
2, 13858, Note_off_c, 3, 63, 127
2, 13868, Note_off_c, 3, 51, 127
2, 13870, Note_on_c, 7, 55, 127
2, 14017, Note_off_c, 7, 55, 127
2, 14019, Note_on_c, 7, 67, 127
2, 14019, Note_on_c, 2, 50, 127
2, 14166, Note_off_c, 2, 50, 127
2, 14168, Note_on_c, 7, 55, 127
2, 14315, Note_off_c, 7, 55, 127
2, 14315, Note_off_c, 7, 67, 127
2, 14316, Note_on_c, 0, 72, 127
2, 14316, Note_on_c, 3, 51, 127
2, 14463, Note_off_c, 0, 72, 127
2, 14465, Note_on_c, 2, 74, 127
2, 14612, Note_off_c, 2, 74, 127
2, 14612, Note_off_c, 3, 51, 127
2, 14614, Note_on_c, 3, 75, 127
2, 14614, Note_on_c, 0, 60, 127
2, 14763, Note_on_c, 7, 79, 127
2, 14831, Note_off_c, 3, 75, 127
2, 14910, Note_off_c, 7, 79, 127
2, 14910, Note_off_c, 0, 60, 127
2, 14912, Note_on_c, 2, 74, 127
2, 14912, Note_on_c, 0, 60, 127
2, 14984, Note_off_c, 0, 60, 127
2, 14986, Note_on_c, 12, 59, 127
2, 15058, Note_off_c, 12, 59, 127
2, 15060, Note_on_c, 7, 79, 127
2, 15060, Note_on_c, 0, 60, 127
2, 15129, Note_off_c, 2, 74, 127
2, 15132, Note_off_c, 0, 60, 127
2, 15135, Note_on_c, 12, 59, 127
2, 15207, Note_off_c, 12, 59, 127
2, 15207, Note_off_c, 7, 79, 127
2, 15209, Note_on_c, 0, 72, 127
2, 15209, Note_on_c, 10, 57, 127
2, 15358, Note_on_c, 7, 79, 127
2, 15426, Note_off_c, 0, 72, 127
2, 15505, Note_off_c, 7, 79, 127
2, 15505, Note_off_c, 10, 57, 127
2, 15507, Note_on_c, 12, 71, 127
2, 15507, Note_on_c, 7, 55, 127
2, 15654, Note_off_c, 12, 71, 127
2, 15656, Note_on_c, 0, 72, 127
2, 15803, Note_off_c, 0, 72, 127
2, 15803, Note_off_c, 7, 55, 127
2, 15804, Note_on_c, 2, 74, 127
2, 15804, Note_on_c, 12, 59, 127
2, 15953, Note_on_c, 5, 77, 127
2, 16021, Note_off_c, 2, 74, 127
2, 16100, Note_off_c, 5, 77, 127
2, 16100, Note_off_c, 12, 59, 127
2, 16102, Note_on_c, 12, 71, 127
2, 16102, Note_on_c, 2, 62, 127
2, 16251, Note_on_c, 5, 77, 127
2, 16319, Note_off_c, 12, 71, 127
2, 16398, Note_off_c, 5, 77, 127
2, 16398, Note_off_c, 2, 62, 127
2, 16400, Note_on_c, 7, 67, 127
2, 16400, Note_on_c, 12, 59, 127
2, 16548, Note_on_c, 5, 77, 127
2, 16617, Note_off_c, 7, 67, 127
2, 16695, Note_off_c, 5, 77, 127
2, 16696, Note_off_c, 12, 59, 127
2, 16697, Note_on_c, 0, 72, 127
2, 16697, Note_on_c, 3, 63, 127
2, 16844, Note_off_c, 0, 72, 127
2, 16846, Note_on_c, 2, 74, 127
2, 16993, Note_off_c, 2, 74, 127
2, 16993, Note_off_c, 3, 63, 127
2, 16995, Note_on_c, 3, 75, 127
2, 16995, Note_on_c, 0, 60, 127
2, 17142, Note_off_c, 3, 75, 127
2, 17144, Note_on_c, 7, 79, 127
2, 17291, Note_off_c, 0, 60, 127
2, 17292, Note_on_c, 0, 72, 127
2, 17292, Note_on_c, 10, 57, 127
2, 17438, Note_off_c, 7, 79, 127
2, 17439, Note_off_c, 0, 72, 127
2, 17441, Note_on_c, 7, 79, 127
2, 17588, Note_off_c, 10, 57, 127
2, 17590, Note_on_c, 11, 70, 127
2, 17590, Note_on_c, 0, 60, 127
2, 17735, Note_off_c, 7, 79, 127
2, 17737, Note_off_c, 11, 70, 127
2, 17739, Note_on_c, 7, 79, 127
2, 17886, Note_off_c, 7, 79, 127
2, 17886, Note_off_c, 0, 60, 127
2, 17888, Note_on_c, 10, 69, 127
2, 17888, Note_on_c, 5, 53, 127
2, 18035, Note_off_c, 10, 69, 127
2, 18036, Note_on_c, 11, 70, 127
2, 18183, Note_off_c, 11, 70, 127
2, 18184, Note_off_c, 5, 53, 127
2, 18185, Note_on_c, 0, 72, 127
2, 18185, Note_on_c, 10, 57, 127
2, 18332, Note_off_c, 0, 72, 127
2, 18334, Note_on_c, 3, 75, 127
2, 18481, Note_off_c, 10, 57, 127
2, 18483, Note_on_c, 10, 69, 127
2, 18483, Note_on_c, 0, 60, 127
2, 18628, Note_off_c, 3, 75, 127
2, 18630, Note_off_c, 10, 69, 127
2, 18632, Note_on_c, 3, 75, 127
2, 18779, Note_off_c, 0, 60, 127
2, 18780, Note_on_c, 5, 65, 127
2, 18780, Note_on_c, 10, 57, 127
2, 18926, Note_off_c, 3, 75, 127
2, 18927, Note_off_c, 5, 65, 127
2, 18929, Note_on_c, 3, 75, 127
2, 19076, Note_off_c, 3, 75, 127
2, 19076, Note_off_c, 10, 57, 127
2, 19078, Note_on_c, 2, 74, 127
2, 19078, Note_on_c, 11, 58, 127
2, 19225, Note_off_c, 11, 58, 127
2, 19227, Note_on_c, 0, 60, 127
2, 19374, Note_off_c, 0, 60, 127
2, 19374, Note_off_c, 2, 74, 127
2, 19376, Note_on_c, 5, 77, 127
2, 19376, Note_on_c, 2, 62, 127
2, 19523, Note_off_c, 2, 62, 127
2, 19524, Note_on_c, 5, 65, 127
2, 19671, Note_off_c, 5, 65, 127
2, 19672, Note_off_c, 5, 77, 127
2, 19673, Note_on_c, 10, 69, 127
2, 19673, Note_on_c, 0, 60, 127
2, 19820, Note_off_c, 0, 60, 127
2, 19822, Note_on_c, 5, 65, 127
2, 19969, Note_off_c, 5, 65, 127
2, 19969, Note_off_c, 10, 69, 127
2, 19971, Note_on_c, 0, 72, 127
2, 19971, Note_on_c, 11, 58, 127
2, 20043, Note_off_c, 0, 72, 127
2, 20045, Note_on_c, 11, 70, 127
2, 20117, Note_off_c, 11, 70, 127
2, 20118, Note_off_c, 11, 58, 127
2, 20120, Note_on_c, 10, 69, 127
2, 20120, Note_on_c, 5, 65, 127
2, 20192, Note_off_c, 10, 69, 127
2, 20194, Note_on_c, 11, 70, 127
2, 20266, Note_off_c, 11, 70, 127
2, 20267, Note_off_c, 5, 65, 127
2, 20268, Note_on_c, 0, 72, 127
2, 20268, Note_on_c, 10, 57, 127
2, 20415, Note_off_c, 10, 57, 127
2, 20417, Note_on_c, 11, 58, 127
2, 20564, Note_off_c, 11, 58, 127
2, 20564, Note_off_c, 0, 72, 127
2, 20566, Note_on_c, 3, 75, 127
2, 20566, Note_on_c, 0, 60, 127
2, 20713, Note_off_c, 0, 60, 127
2, 20715, Note_on_c, 5, 65, 127
2, 20862, Note_off_c, 5, 65, 127
2, 20862, Note_off_c, 3, 75, 127
2, 20864, Note_on_c, 3, 75, 127
2, 20864, Note_on_c, 5, 53, 127
2, 20936, Note_off_c, 3, 75, 127
2, 20938, Note_on_c, 2, 74, 127
2, 21010, Note_off_c, 2, 74, 127
2, 21011, Note_off_c, 5, 53, 127
2, 21012, Note_on_c, 3, 75, 127
2, 21012, Note_on_c, 5, 65, 127
2, 21084, Note_off_c, 3, 75, 127
2, 21087, Note_on_c, 2, 74, 127
2, 21159, Note_off_c, 2, 74, 127
2, 21159, Note_off_c, 5, 65, 127
2, 21161, Note_on_c, 0, 72, 127
2, 21161, Note_on_c, 10, 57, 127
2, 21308, Note_off_c, 10, 57, 127
2, 21310, Note_on_c, 5, 65, 127
2, 21457, Note_off_c, 5, 65, 127
2, 21457, Note_off_c, 0, 72, 127
2, 21459, Note_on_c, 2, 74, 127
2, 21459, Note_on_c, 11, 58, 127
2, 21606, Note_off_c, 11, 58, 127
2, 21608, Note_on_c, 0, 60, 127
2, 21755, Note_off_c, 0, 60, 127
2, 21755, Note_off_c, 2, 74, 127
2, 21756, Note_on_c, 5, 77, 127
2, 21756, Note_on_c, 2, 62, 127
2, 21903, Note_off_c, 2, 62, 127
2, 21905, Note_on_c, 5, 65, 127
2, 22052, Note_off_c, 5, 65, 127
2, 22052, Note_off_c, 5, 77, 127
2, 22054, Note_on_c, 3, 75, 127
2, 22054, Note_on_c, 11, 58, 127
2, 22201, Note_off_c, 11, 58, 127
2, 22201, Note_off_c, 3, 75, 127
2, 22203, Note_on_c, 2, 74, 127
2, 22203, Note_on_c, 5, 65, 127
2, 22350, Note_off_c, 5, 65, 127
2, 22350, Note_off_c, 2, 74, 127
2, 22352, Note_on_c, 0, 72, 127
2, 22352, Note_on_c, 8, 56, 127
2, 22499, Note_off_c, 8, 56, 127
2, 22499, Note_off_c, 0, 72, 127
2, 22500, Note_on_c, 11, 70, 127
2, 22500, Note_on_c, 5, 65, 127
2, 22647, Note_off_c, 5, 65, 127
2, 22647, Note_off_c, 11, 70, 127
2, 22649, Note_on_c, 3, 75, 127
2, 22649, Note_on_c, 7, 55, 127
2, 22796, Note_off_c, 7, 55, 127
2, 22798, Note_on_c, 8, 56, 127
2, 22945, Note_off_c, 8, 56, 127
2, 22945, Note_off_c, 3, 75, 127
2, 22947, Note_on_c, 7, 79, 127
2, 22947, Note_on_c, 11, 58, 127
2, 23094, Note_off_c, 11, 58, 127
2, 23096, Note_on_c, 1, 61, 127
2, 23243, Note_off_c, 1, 61, 127
2, 23243, Note_off_c, 7, 79, 127
2, 23244, Note_on_c, 11, 82, 127
2, 23244, Note_on_c, 7, 55, 127
2, 23391, Note_off_c, 7, 55, 127
2, 23393, Note_on_c, 1, 61, 127
2, 23540, Note_off_c, 1, 61, 127
2, 23542, Note_on_c, 1, 73, 127
2, 23542, Note_on_c, 5, 53, 127
2, 23689, Note_off_c, 5, 53, 127
2, 23691, Note_on_c, 1, 61, 127
2, 23838, Note_off_c, 1, 61, 127
2, 23838, Note_off_c, 1, 73, 127
2, 23840, Note_on_c, 0, 72, 127
2, 23840, Note_on_c, 4, 52, 127
2, 23844, Note_off_c, 11, 82, 127
2, 23988, Note_on_c, 11, 82, 127
2, 24057, Note_off_c, 0, 72, 127
2, 24135, Note_off_c, 11, 82, 127
2, 24136, Note_off_c, 4, 52, 127
2, 24137, Note_on_c, 10, 81, 127
2, 24137, Note_on_c, 0, 60, 127
2, 24284, Note_off_c, 10, 81, 127
2, 24286, Note_on_c, 7, 79, 127
2, 24433, Note_off_c, 7, 79, 127
2, 24433, Note_off_c, 0, 60, 127
2, 24435, Note_on_c, 10, 81, 127
2, 24435, Note_on_c, 5, 53, 127
2, 24584, Note_on_c, 5, 77, 127
2, 24729, Note_off_c, 10, 81, 127
2, 24731, Note_off_c, 5, 77, 127
2, 24731, Note_off_c, 5, 53, 127
2, 24732, Note_on_c, 10, 81, 127
2, 24732, Note_on_c, 0, 60, 127
2, 24879, Note_off_c, 10, 81, 127
2, 24881, Note_on_c, 3, 75, 127
2, 25028, Note_off_c, 3, 75, 127
2, 25028, Note_off_c, 0, 60, 127
2, 25030, Note_on_c, 2, 74, 127
2, 25030, Note_on_c, 11, 46, 127
2, 25179, Note_on_c, 8, 80, 127
2, 25247, Note_off_c, 2, 74, 127
2, 25326, Note_off_c, 8, 80, 127
2, 25326, Note_off_c, 11, 46, 127
2, 25328, Note_on_c, 7, 79, 127
2, 25328, Note_on_c, 11, 58, 127
2, 25475, Note_off_c, 7, 79, 127
2, 25476, Note_on_c, 5, 77, 127
2, 25623, Note_off_c, 5, 77, 127
2, 25624, Note_off_c, 11, 58, 127
2, 25625, Note_on_c, 7, 79, 127
2, 25625, Note_on_c, 3, 51, 127
2, 25774, Note_on_c, 3, 75, 127
2, 25919, Note_off_c, 7, 79, 127
2, 25921, Note_off_c, 3, 75, 127
2, 25921, Note_off_c, 3, 51, 127
2, 25923, Note_on_c, 7, 79, 127
2, 25923, Note_on_c, 11, 58, 127
2, 26072, Note_on_c, 2, 74, 127
2, 26217, Note_off_c, 7, 79, 127
2, 26219, Note_off_c, 2, 74, 127
2, 26219, Note_off_c, 11, 58, 127
2, 26220, Note_on_c, 0, 72, 127
2, 26220, Note_on_c, 10, 57, 127
2, 26367, Note_off_c, 10, 57, 127
2, 26367, Note_off_c, 0, 72, 127
2, 26369, Note_on_c, 2, 74, 127
2, 26369, Note_on_c, 11, 58, 127
2, 26516, Note_off_c, 11, 58, 127
2, 26516, Note_off_c, 2, 74, 127
2, 26518, Note_on_c, 3, 75, 127
2, 26518, Note_on_c, 0, 60, 127
2, 26665, Note_off_c, 0, 60, 127
2, 26667, Note_on_c, 11, 70, 127
2, 26667, Note_on_c, 7, 55, 127
2, 26814, Note_off_c, 7, 55, 127
2, 26814, Note_off_c, 11, 70, 127
2, 26816, Note_on_c, 10, 69, 127
2, 26816, Note_on_c, 5, 53, 127
2, 26952, Note_off_c, 3, 75, 127
2, 26963, Note_off_c, 5, 53, 127
2, 26963, Note_off_c, 10, 69, 127
2, 26964, Note_on_c, 3, 75, 127
2, 26964, Note_on_c, 0, 60, 127
2, 27111, Note_off_c, 0, 60, 127
2, 27113, Note_on_c, 7, 67, 127
2, 27113, Note_on_c, 3, 51, 127
2, 27258, Note_off_c, 3, 75, 127
2, 27260, Note_off_c, 3, 51, 127
2, 27260, Note_off_c, 7, 67, 127
2, 27262, Note_on_c, 3, 75, 127
2, 27262, Note_on_c, 0, 60, 127
2, 27409, Note_off_c, 0, 60, 127
2, 27409, Note_off_c, 3, 75, 127
2, 27411, Note_on_c, 10, 69, 127
2, 27411, Note_on_c, 5, 53, 127
2, 27558, Note_off_c, 10, 69, 127
2, 27560, Note_on_c, 11, 70, 127
2, 27707, Note_off_c, 11, 70, 127
2, 27707, Note_off_c, 5, 53, 127
2, 27708, Note_on_c, 0, 72, 127
2, 27708, Note_on_c, 3, 51, 127
2, 27857, Note_on_c, 7, 67, 127
2, 28004, Note_off_c, 7, 67, 127
2, 28004, Note_off_c, 3, 51, 127
2, 28006, Note_on_c, 5, 65, 127
2, 28006, Note_on_c, 3, 51, 127
2, 28078, Note_off_c, 3, 51, 127
2, 28080, Note_on_c, 2, 50, 127
2, 28142, Note_off_c, 0, 72, 127
2, 28152, Note_off_c, 2, 50, 127
2, 28153, Note_off_c, 5, 65, 127
2, 28155, Note_on_c, 0, 72, 127
2, 28155, Note_on_c, 3, 51, 127
2, 28227, Note_off_c, 3, 51, 127
2, 28229, Note_on_c, 2, 50, 127
2, 28301, Note_off_c, 2, 50, 127
2, 28304, Note_on_c, 3, 63, 127
2, 28304, Note_on_c, 0, 48, 127
2, 28449, Note_off_c, 0, 72, 127
2, 28451, Note_off_c, 3, 63, 127
2, 28452, Note_on_c, 0, 72, 127
2, 28599, Note_off_c, 0, 72, 127
2, 28600, Note_off_c, 0, 48, 127
2, 28601, Note_on_c, 2, 62, 127
2, 28601, Note_on_c, 11, 46, 127
2, 28750, Note_on_c, 11, 70, 127
2, 28818, Note_off_c, 2, 62, 127
2, 28897, Note_off_c, 11, 70, 127
2, 28897, Note_off_c, 11, 46, 127
2, 28899, Note_on_c, 7, 67, 127
2, 28899, Note_on_c, 5, 53, 127
2, 28971, Note_off_c, 5, 53, 127
2, 28973, Note_on_c, 3, 51, 127
2, 29045, Note_off_c, 3, 51, 127
2, 29046, Note_off_c, 7, 67, 127
2, 29048, Note_on_c, 3, 63, 127
2, 29048, Note_on_c, 2, 50, 127
2, 29120, Note_off_c, 2, 50, 127
2, 29122, Note_on_c, 3, 51, 127
2, 29194, Note_off_c, 3, 51, 127
2, 29195, Note_off_c, 3, 63, 127
2, 29196, Note_on_c, 2, 62, 127
2, 29196, Note_on_c, 5, 53, 127
2, 29345, Note_on_c, 11, 70, 127
2, 29413, Note_off_c, 2, 62, 127
2, 29444, Note_off_c, 5, 53, 127
2, 29492, Note_off_c, 11, 70, 127
2, 29494, Note_on_c, 0, 60, 127
2, 29494, Note_on_c, 5, 41, 127
2, 29643, Note_on_c, 10, 69, 127
2, 29711, Note_off_c, 0, 60, 127
2, 29742, Note_off_c, 5, 41, 127
2, 29790, Note_off_c, 10, 69, 127
2, 29792, Note_on_c, 10, 69, 127
2, 29939, Note_off_c, 10, 69, 127
2, 29940, Note_on_c, 11, 70, 127
2, 29940, Note_on_c, 11, 46, 127
2, 30012, Note_off_c, 11, 70, 127
2, 30031, Note_on_c, 10, 69, 127
2, 30087, Note_off_c, 11, 46, 127
2, 30103, Note_off_c, 10, 69, 127
2, 30105, Note_on_c, 2, 50, 127
2, 30105, Note_on_c, 11, 70, 127
2, 30252, Note_off_c, 2, 50, 127
2, 30270, Note_on_c, 5, 53, 127
2, 30417, Note_off_c, 5, 53, 127
2, 30435, Note_on_c, 11, 58, 127
2, 30847, Note_off_c, 11, 70, 127
2, 30897, Note_on_c, 5, 65, 127
2, 31028, Note_off_c, 11, 58, 127
2, 31044, Note_off_c, 5, 65, 127
2, 31046, Note_on_c, 5, 65, 127
2, 31046, Note_on_c, 11, 58, 127
2, 31046, Note_on_c, 2, 62, 127
2, 31193, Note_off_c, 5, 65, 127
2, 31195, Note_on_c, 7, 67, 127
2, 31342, Note_off_c, 7, 67, 127
2, 31344, Note_on_c, 8, 68, 127
2, 31491, Note_off_c, 8, 68, 127
2, 31492, Note_on_c, 5, 65, 127
2, 31639, Note_off_c, 5, 65, 127
2, 31639, Note_off_c, 2, 62, 127
2, 31639, Note_off_c, 11, 58, 127
2, 31641, Note_on_c, 7, 67, 127
2, 31641, Note_on_c, 3, 63, 127
2, 31788, Note_off_c, 7, 67, 127
2, 31790, Note_on_c, 11, 70, 127
2, 31937, Note_off_c, 11, 70, 127
2, 31937, Note_off_c, 3, 63, 127
2, 31939, Note_on_c, 5, 65, 127
2, 31939, Note_on_c, 2, 62, 127
2, 31939, Note_on_c, 11, 58, 127
2, 32086, Note_off_c, 5, 65, 127
2, 32088, Note_on_c, 11, 70, 127
2, 32235, Note_off_c, 11, 70, 127
2, 32235, Note_off_c, 11, 58, 127
2, 32235, Note_off_c, 2, 62, 127
2, 32236, Note_on_c, 7, 67, 127
2, 32236, Note_on_c, 3, 63, 127
2, 32383, Note_off_c, 7, 67, 127
2, 32385, Note_on_c, 5, 65, 127
2, 32532, Note_off_c, 5, 65, 127
2, 32532, Note_off_c, 3, 63, 127
2, 32534, Note_on_c, 3, 63, 127
2, 32534, Note_on_c, 11, 58, 127
2, 32681, Note_off_c, 3, 63, 127
2, 32683, Note_on_c, 5, 65, 127
2, 32830, Note_off_c, 5, 65, 127
2, 32830, Note_off_c, 11, 58, 127
2, 32832, Note_on_c, 7, 67, 127
2, 32832, Note_on_c, 3, 51, 127
2, 32979, Note_off_c, 7, 67, 127
2, 32980, Note_on_c, 8, 68, 127
2, 33127, Note_off_c, 8, 68, 127
2, 33128, Note_off_c, 3, 51, 127
2, 33129, Note_on_c, 11, 70, 127
2, 33129, Note_on_c, 5, 53, 127
2, 33276, Note_off_c, 11, 70, 127
2, 33278, Note_on_c, 0, 72, 127
2, 33425, Note_off_c, 0, 72, 127
2, 33425, Note_off_c, 5, 53, 127
2, 33427, Note_on_c, 1, 73, 127
2, 33427, Note_on_c, 7, 55, 127
2, 33574, Note_off_c, 1, 73, 127
2, 33576, Note_on_c, 3, 75, 127
2, 33723, Note_off_c, 3, 75, 127
2, 33724, Note_on_c, 5, 77, 127
2, 33724, Note_on_c, 11, 58, 127
2, 33871, Note_off_c, 5, 77, 127
2, 33873, Note_on_c, 1, 73, 127
2, 34020, Note_off_c, 1, 73, 127
2, 34020, Note_off_c, 11, 58, 127
2, 34022, Note_on_c, 11, 70, 127
2, 34022, Note_on_c, 3, 63, 127
2, 34169, Note_off_c, 11, 70, 127
2, 34171, Note_on_c, 1, 73, 127
2, 34318, Note_off_c, 1, 73, 127
2, 34318, Note_off_c, 7, 55, 127
2, 34320, Note_on_c, 7, 67, 127
2, 34320, Note_on_c, 3, 51, 127
2, 34467, Note_off_c, 7, 67, 127
2, 34468, Note_on_c, 1, 73, 127
2, 34611, Note_off_c, 3, 63, 127
2, 34615, Note_off_c, 1, 73, 127
2, 34616, Note_off_c, 3, 51, 127
2, 34617, Note_on_c, 0, 72, 127
2, 34617, Note_on_c, 8, 56, 127
2, 34764, Note_off_c, 0, 72, 127
2, 34766, Note_on_c, 11, 70, 127
2, 34913, Note_off_c, 11, 70, 127
2, 34913, Note_off_c, 8, 56, 127
2, 34915, Note_on_c, 8, 68, 127
2, 34915, Note_on_c, 0, 60, 127
2, 35062, Note_off_c, 8, 68, 127
2, 35064, Note_on_c, 11, 70, 127
2, 35211, Note_off_c, 11, 70, 127
2, 35211, Note_off_c, 0, 60, 127
2, 35212, Note_on_c, 0, 72, 127
2, 35212, Note_on_c, 8, 56, 127
2, 35359, Note_off_c, 0, 72, 127
2, 35361, Note_on_c, 2, 74, 127
2, 35508, Note_off_c, 2, 74, 127
2, 35508, Note_off_c, 8, 56, 127
2, 35510, Note_on_c, 4, 76, 127
2, 35510, Note_on_c, 5, 53, 127
2, 35657, Note_off_c, 4, 76, 127
2, 35659, Note_on_c, 5, 77, 127
2, 35806, Note_off_c, 5, 77, 127
2, 35806, Note_off_c, 5, 53, 127
2, 35808, Note_on_c, 7, 79, 127
2, 35808, Note_on_c, 4, 52, 127
2, 35955, Note_off_c, 7, 79, 127
2, 35956, Note_on_c, 8, 80, 127
2, 36103, Note_off_c, 8, 80, 127
2, 36104, Note_off_c, 4, 52, 127
2, 36105, Note_on_c, 11, 82, 127
2, 36105, Note_on_c, 0, 60, 127
2, 36252, Note_off_c, 11, 82, 127
2, 36254, Note_on_c, 7, 79, 127
2, 36401, Note_off_c, 7, 79, 127
2, 36401, Note_off_c, 0, 60, 127
2, 36403, Note_on_c, 8, 80, 127
2, 36403, Note_on_c, 0, 48, 127
2, 36552, Note_on_c, 0, 84, 127
2, 36620, Note_off_c, 8, 80, 127
2, 36699, Note_off_c, 0, 84, 127
2, 36699, Note_off_c, 0, 48, 127
2, 36700, Note_on_c, 7, 79, 127
2, 36700, Note_on_c, 0, 60, 127
2, 36849, Note_on_c, 0, 84, 127
2, 36917, Note_off_c, 7, 79, 127
2, 36996, Note_off_c, 0, 84, 127
2, 36996, Note_off_c, 0, 60, 127
2, 36998, Note_on_c, 8, 80, 127
2, 36998, Note_on_c, 5, 53, 127
2, 37145, Note_off_c, 8, 80, 127
2, 37147, Note_on_c, 11, 82, 127
2, 37294, Note_off_c, 11, 82, 127
2, 37294, Note_off_c, 5, 53, 127
2, 37296, Note_on_c, 0, 84, 127
2, 37296, Note_on_c, 8, 56, 127
2, 37443, Note_off_c, 0, 84, 127
2, 37444, Note_on_c, 8, 80, 127
2, 37591, Note_off_c, 8, 80, 127
2, 37592, Note_off_c, 8, 56, 127
2, 37593, Note_on_c, 7, 79, 127
2, 37593, Note_on_c, 1, 61, 127
2, 37742, Note_on_c, 11, 82, 127
2, 37810, Note_off_c, 7, 79, 127
2, 37889, Note_off_c, 11, 82, 127
2, 37889, Note_off_c, 1, 61, 127
2, 37891, Note_on_c, 5, 77, 127
2, 37891, Note_on_c, 11, 58, 127
2, 38040, Note_on_c, 11, 82, 127
2, 38108, Note_off_c, 5, 77, 127
2, 38187, Note_off_c, 11, 82, 127
2, 38187, Note_off_c, 11, 58, 127
2, 38188, Note_on_c, 4, 76, 127
2, 38188, Note_on_c, 0, 60, 127
2, 38335, Note_off_c, 4, 76, 127
2, 38337, Note_on_c, 5, 77, 127
2, 38484, Note_off_c, 5, 77, 127
2, 38484, Note_off_c, 0, 60, 127
2, 38486, Note_on_c, 7, 79, 127
2, 38486, Note_on_c, 4, 64, 127
2, 38633, Note_off_c, 7, 79, 127
2, 38635, Note_on_c, 4, 76, 127
2, 38782, Note_off_c, 4, 76, 127
2, 38782, Note_off_c, 4, 64, 127
2, 38784, Note_on_c, 0, 72, 127
2, 38784, Note_on_c, 7, 67, 127
2, 38932, Note_on_c, 4, 76, 127
2, 39001, Note_off_c, 0, 72, 127
2, 39079, Note_off_c, 4, 76, 127
2, 39080, Note_off_c, 7, 67, 127
2, 39081, Note_on_c, 11, 70, 127
2, 39081, Note_on_c, 0, 60, 127
2, 39230, Note_on_c, 4, 76, 127
2, 39298, Note_off_c, 11, 70, 127
2, 39377, Note_off_c, 4, 76, 127
2, 39377, Note_off_c, 0, 60, 127
2, 39379, Note_on_c, 8, 68, 127
2, 39379, Note_on_c, 5, 65, 127
2, 39526, Note_off_c, 8, 68, 127
2, 39528, Note_on_c, 0, 72, 127
2, 39675, Note_off_c, 0, 72, 127
2, 39675, Note_off_c, 5, 65, 127
2, 39676, Note_on_c, 5, 77, 127
2, 39676, Note_on_c, 5, 53, 127
2, 39823, Note_off_c, 5, 77, 127
2, 39825, Note_on_c, 3, 75, 127
2, 39972, Note_off_c, 3, 75, 127
2, 39972, Note_off_c, 5, 53, 127
2, 39974, Note_on_c, 1, 73, 127
2, 39974, Note_on_c, 7, 55, 127
2, 40123, Note_on_c, 5, 77, 127
2, 40191, Note_off_c, 1, 73, 127
2, 40270, Note_off_c, 5, 77, 127
2, 40270, Note_off_c, 7, 55, 127
2, 40272, Note_on_c, 0, 72, 127
2, 40272, Note_on_c, 10, 57, 127
2, 40420, Note_on_c, 5, 77, 127
2, 40489, Note_off_c, 0, 72, 127
2, 40567, Note_off_c, 5, 77, 127
2, 40568, Note_off_c, 10, 57, 127
2, 40569, Note_on_c, 1, 73, 127
2, 40569, Note_on_c, 11, 58, 127
2, 40716, Note_off_c, 11, 58, 127
2, 40718, Note_on_c, 5, 65, 127
2, 40865, Note_off_c, 5, 65, 127
2, 40865, Note_off_c, 1, 73, 127
2, 40867, Note_on_c, 0, 72, 127
2, 40867, Note_on_c, 8, 56, 127
2, 41014, Note_off_c, 8, 56, 127
2, 41016, Note_on_c, 5, 65, 127
2, 41163, Note_off_c, 5, 65, 127
2, 41163, Note_off_c, 0, 72, 127
2, 41164, Note_on_c, 11, 70, 127
2, 41164, Note_on_c, 7, 55, 127
2, 41311, Note_off_c, 7, 55, 127
2, 41313, Note_on_c, 5, 65, 127
2, 41460, Note_off_c, 5, 65, 127
2, 41460, Note_off_c, 11, 70, 127
2, 41462, Note_on_c, 5, 77, 127
2, 41462, Note_on_c, 11, 58, 127
2, 41609, Note_off_c, 11, 58, 127
2, 41611, Note_on_c, 5, 65, 127
2, 41758, Note_off_c, 5, 65, 127
2, 41758, Note_off_c, 5, 77, 127
2, 41760, Note_on_c, 0, 72, 127
2, 41760, Note_on_c, 8, 56, 127
2, 41907, Note_off_c, 8, 56, 127
2, 41908, Note_on_c, 5, 65, 127
2, 42055, Note_off_c, 5, 65, 127
2, 42056, Note_off_c, 0, 72, 127
2, 42057, Note_on_c, 11, 70, 127
2, 42057, Note_on_c, 7, 55, 127
2, 42204, Note_off_c, 7, 55, 127
2, 42206, Note_on_c, 5, 65, 127
2, 42353, Note_off_c, 5, 65, 127
2, 42353, Note_off_c, 11, 70, 127
2, 42355, Note_on_c, 8, 68, 127
2, 42355, Note_on_c, 5, 53, 127
2, 42502, Note_off_c, 8, 68, 127
2, 42504, Note_on_c, 0, 72, 127
2, 42651, Note_off_c, 0, 72, 127
2, 42651, Note_off_c, 5, 53, 127
2, 42652, Note_on_c, 5, 77, 127
2, 42652, Note_on_c, 8, 56, 127
2, 42799, Note_off_c, 5, 77, 127
2, 42801, Note_on_c, 4, 76, 127
2, 42948, Note_off_c, 4, 76, 127
2, 42948, Note_off_c, 8, 56, 127
2, 42950, Note_on_c, 5, 77, 127
2, 42950, Note_on_c, 1, 49, 127
2, 43097, Note_off_c, 5, 77, 127
2, 43099, Note_on_c, 11, 82, 127
2, 43246, Note_off_c, 11, 82, 127
2, 43246, Note_off_c, 1, 49, 127
2, 43248, Note_on_c, 8, 80, 127
2, 43248, Note_on_c, 11, 58, 127
2, 43395, Note_off_c, 8, 80, 127
2, 43396, Note_on_c, 7, 79, 127
2, 43543, Note_off_c, 7, 79, 127
2, 43544, Note_off_c, 11, 58, 127
2, 43545, Note_on_c, 8, 80, 127
2, 43545, Note_on_c, 0, 60, 127
2, 43692, Note_off_c, 8, 80, 127
2, 43694, Note_on_c, 5, 77, 127
2, 43841, Note_off_c, 5, 77, 127
2, 43841, Note_off_c, 0, 60, 127
2, 43843, Note_on_c, 0, 72, 127
2, 43843, Note_on_c, 0, 48, 127
2, 43990, Note_off_c, 0, 72, 127
2, 43992, Note_on_c, 4, 76, 127
2, 44139, Note_off_c, 4, 76, 127
2, 44139, Note_off_c, 0, 48, 127
2, 44140, Note_on_c, 4, 76, 127
2, 44140, Note_on_c, 5, 53, 127
2, 44287, Note_off_c, 5, 53, 127
2, 44287, Note_off_c, 4, 76, 127
2, 44289, Note_on_c, 5, 77, 127
2, 44289, Note_on_c, 7, 55, 127
2, 44361, Note_off_c, 5, 77, 127
2, 44364, Note_on_c, 4, 76, 127
2, 44436, Note_off_c, 4, 76, 127
2, 44436, Note_off_c, 7, 55, 127
2, 44438, Note_on_c, 5, 77, 127
2, 44438, Note_on_c, 8, 56, 127
2, 44585, Note_off_c, 8, 56, 127
2, 44587, Note_on_c, 7, 55, 127
2, 44734, Note_off_c, 7, 55, 127
2, 44736, Note_on_c, 5, 53, 127
2, 44883, Note_off_c, 5, 53, 127
2, 44884, Note_on_c, 8, 56, 127
2, 45031, Note_off_c, 8, 56, 127
2, 45031, Note_off_c, 5, 77, 127
2, 45033, Note_on_c, 5, 77, 127
2, 45033, Note_on_c, 3, 51, 127
2, 45180, Note_off_c, 3, 51, 127
2, 45182, Note_on_c, 8, 56, 127
2, 45329, Note_off_c, 8, 56, 127
2, 45329, Note_off_c, 5, 77, 127
2, 45331, Note_on_c, 11, 70, 127
2, 45331, Note_on_c, 2, 50, 127
2, 45478, Note_off_c, 2, 50, 127
2, 45480, Note_on_c, 3, 51, 127
2, 45627, Note_off_c, 3, 51, 127
2, 45627, Note_off_c, 11, 70, 127
2, 45628, Note_on_c, 11, 82, 127
2, 45628, Note_on_c, 5, 53, 127
2, 45700, Note_off_c, 11, 82, 127
2, 45718, Note_on_c, 8, 80, 127
2, 45775, Note_off_c, 5, 53, 127
2, 45777, Note_on_c, 2, 50, 127
2, 45790, Note_off_c, 8, 80, 127
2, 45808, Note_on_c, 7, 79, 127
2, 45880, Note_off_c, 7, 79, 127
2, 45898, Note_on_c, 8, 80, 127
2, 45924, Note_off_c, 2, 50, 127
2, 45926, Note_on_c, 11, 46, 127
2, 46073, Note_off_c, 11, 46, 127
2, 46075, Note_on_c, 5, 53, 127
2, 46208, Note_off_c, 8, 80, 127
2, 46222, Note_off_c, 5, 53, 127
2, 46224, Note_on_c, 7, 79, 127
2, 46224, Note_on_c, 2, 50, 127
2, 46371, Note_off_c, 2, 50, 127
2, 46371, Note_off_c, 7, 79, 127
2, 46372, Note_on_c, 5, 77, 127
2, 46372, Note_on_c, 5, 53, 127
2, 46519, Note_off_c, 5, 53, 127
2, 46519, Note_off_c, 5, 77, 127
2, 46521, Note_on_c, 7, 79, 127
2, 46521, Note_on_c, 3, 51, 127
2, 46668, Note_off_c, 3, 51, 127
2, 46668, Note_off_c, 7, 79, 127
2, 46670, Note_on_c, 8, 80, 127
2, 46670, Note_on_c, 5, 53, 127
2, 46817, Note_off_c, 5, 53, 127
2, 46817, Note_off_c, 8, 80, 127
2, 46819, Note_on_c, 11, 82, 127
2, 46819, Note_on_c, 7, 55, 127
2, 46966, Note_off_c, 7, 55, 127
2, 46966, Note_off_c, 11, 82, 127
2, 46968, Note_on_c, 8, 80, 127
2, 46968, Note_on_c, 5, 53, 127
2, 47115, Note_off_c, 5, 53, 127
2, 47115, Note_off_c, 8, 80, 127
2, 47116, Note_on_c, 7, 79, 127
2, 47116, Note_on_c, 3, 51, 127
2, 47263, Note_off_c, 3, 51, 127
2, 47265, Note_on_c, 11, 82, 127
2, 47265, Note_on_c, 7, 55, 127
2, 47333, Note_off_c, 7, 79, 127
2, 47412, Note_off_c, 7, 55, 127
2, 47412, Note_off_c, 11, 82, 127
2, 47414, Note_on_c, 5, 77, 127
2, 47414, Note_on_c, 1, 49, 127
2, 47561, Note_off_c, 1, 49, 127
2, 47563, Note_on_c, 11, 82, 127
2, 47563, Note_on_c, 7, 55, 127
2, 47631, Note_off_c, 5, 77, 127
2, 47710, Note_off_c, 7, 55, 127
2, 47710, Note_off_c, 11, 82, 127
2, 47712, Note_on_c, 4, 76, 127
2, 47712, Note_on_c, 0, 48, 127
2, 47859, Note_off_c, 4, 76, 127
2, 47860, Note_on_c, 5, 77, 127
2, 48007, Note_off_c, 5, 77, 127
2, 48008, Note_off_c, 0, 48, 127
2, 48009, Note_on_c, 7, 79, 127
2, 48009, Note_on_c, 11, 58, 127
2, 48156, Note_off_c, 7, 79, 127
2, 48158, Note_on_c, 4, 76, 127
2, 48305, Note_off_c, 4, 76, 127
2, 48307, Note_on_c, 0, 72, 127
2, 48456, Note_on_c, 7, 79, 127
2, 48524, Note_off_c, 0, 72, 127
2, 48602, Note_off_c, 11, 58, 127
2, 48603, Note_off_c, 7, 79, 127
2, 48604, Note_on_c, 4, 76, 127
2, 48604, Note_on_c, 8, 56, 127
2, 48751, Note_off_c, 8, 56, 127
2, 48753, Note_on_c, 7, 79, 127
2, 48753, Note_on_c, 7, 55, 127
2, 48821, Note_off_c, 4, 76, 127
2, 48900, Note_off_c, 7, 55, 127
2, 48900, Note_off_c, 7, 79, 127
2, 48902, Note_on_c, 5, 77, 127
2, 48902, Note_on_c, 8, 56, 127
2, 49049, Note_off_c, 8, 56, 127
2, 49049, Note_off_c, 5, 77, 127
2, 49051, Note_on_c, 7, 79, 127
2, 49051, Note_on_c, 11, 58, 127
2, 49198, Note_off_c, 11, 58, 127
2, 49198, Note_off_c, 7, 79, 127
2, 49200, Note_on_c, 8, 80, 127
2, 49200, Note_on_c, 0, 60, 127
2, 49347, Note_off_c, 0, 60, 127
2, 49347, Note_off_c, 8, 80, 127
2, 49348, Note_on_c, 7, 79, 127
2, 49348, Note_on_c, 11, 58, 127
2, 49495, Note_off_c, 11, 58, 127
2, 49495, Note_off_c, 7, 79, 127
2, 49497, Note_on_c, 5, 77, 127
2, 49497, Note_on_c, 8, 56, 127
2, 49644, Note_off_c, 8, 56, 127
2, 49644, Note_off_c, 5, 77, 127
2, 49646, Note_on_c, 8, 80, 127
2, 49646, Note_on_c, 0, 60, 127
2, 49793, Note_off_c, 0, 60, 127
2, 49793, Note_off_c, 8, 80, 127
2, 49795, Note_on_c, 3, 75, 127
2, 49795, Note_on_c, 7, 55, 127
2, 49942, Note_off_c, 7, 55, 127
2, 49942, Note_off_c, 3, 75, 127
2, 49944, Note_on_c, 8, 80, 127
2, 49944, Note_on_c, 0, 60, 127
2, 50091, Note_off_c, 0, 60, 127
2, 50091, Note_off_c, 8, 80, 127
2, 50092, Note_on_c, 2, 74, 127
2, 50092, Note_on_c, 5, 53, 127
2, 50239, Note_off_c, 5, 53, 127
2, 50241, Note_on_c, 7, 55, 127
2, 50388, Note_off_c, 7, 55, 127
2, 50388, Note_off_c, 2, 74, 127
2, 50390, Note_on_c, 2, 86, 127
2, 50390, Note_on_c, 8, 56, 127
2, 50462, Note_off_c, 2, 86, 127
2, 50471, Note_on_c, 0, 84, 127
2, 50537, Note_off_c, 8, 56, 127
2, 50539, Note_on_c, 7, 55, 127
2, 50543, Note_off_c, 0, 84, 127
2, 50551, Note_on_c, 12, 83, 127
2, 50623, Note_off_c, 12, 83, 127
2, 50632, Note_on_c, 0, 84, 127
2, 50686, Note_off_c, 7, 55, 127
2, 50688, Note_on_c, 5, 53, 127
2, 50835, Note_off_c, 5, 53, 127
2, 50836, Note_on_c, 8, 56, 127
2, 50942, Note_off_c, 0, 84, 127
2, 50983, Note_off_c, 8, 56, 127
2, 50985, Note_on_c, 11, 82, 127
2, 50985, Note_on_c, 2, 50, 127
2, 51132, Note_off_c, 2, 50, 127
2, 51132, Note_off_c, 11, 82, 127
2, 51134, Note_on_c, 8, 80, 127
2, 51134, Note_on_c, 5, 53, 127
2, 51281, Note_off_c, 5, 53, 127
2, 51281, Note_off_c, 8, 80, 127
2, 51283, Note_on_c, 11, 82, 127
2, 51283, Note_on_c, 7, 55, 127
2, 51430, Note_off_c, 7, 55, 127
2, 51432, Note_on_c, 8, 56, 127
2, 51579, Note_off_c, 8, 56, 127
2, 51579, Note_off_c, 11, 82, 127
2, 51580, Note_on_c, 1, 73, 127
2, 51580, Note_on_c, 11, 58, 127
2, 51652, Note_off_c, 1, 73, 127
2, 51655, Note_on_c, 0, 72, 127
2, 51727, Note_off_c, 0, 72, 127
2, 51727, Note_off_c, 11, 58, 127
2, 51729, Note_on_c, 1, 73, 127
2, 51729, Note_on_c, 8, 56, 127
2, 51876, Note_off_c, 8, 56, 127
2, 51878, Note_on_c, 7, 55, 127
2, 52025, Note_off_c, 7, 55, 127
2, 52027, Note_on_c, 11, 58, 127
2, 52174, Note_off_c, 11, 58, 127
2, 52175, Note_off_c, 1, 73, 127
2, 52176, Note_on_c, 0, 72, 127
2, 52176, Note_on_c, 3, 51, 127
2, 52323, Note_off_c, 3, 51, 127
2, 52323, Note_off_c, 0, 72, 127
2, 52324, Note_on_c, 11, 70, 127
2, 52324, Note_on_c, 7, 55, 127
2, 52471, Note_off_c, 7, 55, 127
2, 52471, Note_off_c, 11, 70, 127
2, 52473, Note_on_c, 0, 72, 127
2, 52473, Note_on_c, 8, 56, 127
2, 52620, Note_off_c, 8, 56, 127
2, 52620, Note_off_c, 0, 72, 127
2, 52622, Note_on_c, 11, 82, 127
2, 52622, Note_on_c, 7, 55, 127
2, 52769, Note_off_c, 7, 55, 127
2, 52769, Note_off_c, 11, 82, 127
2, 52771, Note_on_c, 8, 80, 127
2, 52771, Note_on_c, 5, 53, 127
2, 52918, Note_off_c, 5, 53, 127
2, 52918, Note_off_c, 8, 80, 127
2, 52920, Note_on_c, 7, 79, 127
2, 52920, Note_on_c, 7, 55, 127
2, 53067, Note_off_c, 7, 55, 127
2, 53067, Note_off_c, 7, 79, 127
2, 53068, Note_on_c, 5, 77, 127
2, 53068, Note_on_c, 8, 56, 127
2, 53215, Note_off_c, 5, 77, 127
2, 53217, Note_on_c, 7, 79, 127
2, 53364, Note_off_c, 7, 79, 127
2, 53364, Note_off_c, 8, 56, 127
2, 53366, Note_on_c, 8, 80, 127
2, 53366, Note_on_c, 5, 53, 127
2, 53513, Note_off_c, 8, 80, 127
2, 53515, Note_on_c, 5, 77, 127
2, 53662, Note_off_c, 5, 77, 127
2, 53662, Note_off_c, 5, 53, 127
2, 53664, Note_on_c, 3, 75, 127
2, 53664, Note_on_c, 11, 58, 127
2, 53736, Note_off_c, 11, 58, 127
2, 53738, Note_on_c, 8, 56, 127
2, 53810, Note_off_c, 8, 56, 127
2, 53811, Note_off_c, 3, 75, 127
2, 53812, Note_on_c, 2, 74, 127
2, 53812, Note_on_c, 11, 58, 127
2, 53959, Note_off_c, 2, 74, 127
2, 53961, Note_on_c, 3, 75, 127
2, 53961, Note_on_c, 11, 46, 127
2, 54108, Note_off_c, 3, 75, 127
2, 54110, Note_on_c, 5, 77, 127
2, 54257, Note_off_c, 5, 77, 127
2, 54257, Note_off_c, 11, 46, 127
2, 54259, Note_on_c, 11, 70, 127
2, 54259, Note_on_c, 2, 50, 127
2, 54406, Note_off_c, 11, 70, 127
2, 54408, Note_on_c, 5, 77, 127
2, 54555, Note_off_c, 5, 77, 127
2, 54555, Note_off_c, 2, 50, 127
2, 54556, Note_on_c, 8, 68, 127
2, 54556, Note_on_c, 11, 46, 127
2, 54703, Note_off_c, 8, 68, 127
2, 54703, Note_off_c, 11, 58, 127
2, 54705, Note_on_c, 5, 77, 127
2, 54852, Note_off_c, 5, 77, 127
2, 54852, Note_off_c, 11, 46, 127
2, 54854, Note_on_c, 7, 67, 127
2, 54854, Note_on_c, 3, 51, 127
2, 55001, Note_off_c, 7, 67, 127
2, 55003, Note_on_c, 8, 68, 127
2, 55125, Note_off_c, 3, 51, 127
2, 55150, Note_off_c, 8, 68, 127
2, 55152, Note_on_c, 7, 55, 127
2, 55152, Note_on_c, 11, 70, 127
2, 55300, Note_on_c, 3, 75, 127
2, 55369, Note_off_c, 11, 70, 127
2, 55423, Note_off_c, 7, 55, 127
2, 55447, Note_off_c, 3, 75, 127
2, 55449, Note_on_c, 8, 68, 127
2, 55449, Note_on_c, 7, 55, 127
2, 55521, Note_off_c, 7, 55, 127
2, 55524, Note_on_c, 5, 53, 127
2, 55596, Note_off_c, 5, 53, 127
2, 55598, Note_on_c, 3, 75, 127
2, 55598, Note_on_c, 7, 55, 127
2, 55666, Note_off_c, 8, 68, 127
2, 55670, Note_off_c, 7, 55, 127
2, 55672, Note_on_c, 5, 53, 127
2, 55744, Note_off_c, 5, 53, 127
2, 55745, Note_off_c, 3, 75, 127
2, 55747, Note_on_c, 7, 67, 127
2, 55747, Note_on_c, 3, 51, 127
2, 55896, Note_on_c, 3, 75, 127
2, 55964, Note_off_c, 7, 67, 127
2, 56043, Note_off_c, 3, 75, 127
2, 56043, Note_off_c, 3, 51, 127
2, 56044, Note_on_c, 5, 65, 127
2, 56044, Note_on_c, 11, 58, 127
2, 56191, Note_off_c, 5, 65, 127
2, 56193, Note_on_c, 7, 67, 127
2, 56340, Note_off_c, 7, 67, 127
2, 56340, Note_off_c, 11, 58, 127
2, 56342, Note_on_c, 8, 68, 127
2, 56342, Note_on_c, 0, 60, 127
2, 56491, Note_on_c, 2, 74, 127
2, 56559, Note_off_c, 8, 68, 127
2, 56638, Note_off_c, 2, 74, 127
2, 56638, Note_off_c, 0, 60, 127
2, 56640, Note_on_c, 7, 67, 127
2, 56640, Note_on_c, 11, 58, 127
2, 56711, Note_off_c, 11, 58, 127
2, 56714, Note_on_c, 0, 60, 127
2, 56786, Note_off_c, 0, 60, 127
2, 56788, Note_on_c, 2, 74, 127
2, 56788, Note_on_c, 11, 58, 127
2, 56857, Note_off_c, 7, 67, 127
2, 56935, Note_off_c, 11, 58, 127
2, 56935, Note_off_c, 2, 74, 127
2, 56937, Note_on_c, 5, 65, 127
2, 56937, Note_on_c, 8, 56, 127
2, 57086, Note_on_c, 2, 74, 127
2, 57154, Note_off_c, 5, 65, 127
2, 57233, Note_off_c, 2, 74, 127
2, 57233, Note_off_c, 8, 56, 127
2, 57235, Note_on_c, 3, 63, 127
2, 57235, Note_on_c, 7, 55, 127
2, 57382, Note_off_c, 3, 63, 127
2, 57384, Note_on_c, 5, 65, 127
2, 57531, Note_off_c, 5, 65, 127
2, 57531, Note_off_c, 7, 55, 127
2, 57532, Note_on_c, 7, 67, 127
2, 57532, Note_on_c, 3, 51, 127
2, 57681, Note_on_c, 1, 73, 127
2, 57764, Note_off_c, 7, 67, 127
2, 57828, Note_off_c, 1, 73, 127
2, 57828, Note_off_c, 3, 51, 127
2, 57830, Note_on_c, 8, 68, 127
2, 57830, Note_on_c, 5, 53, 127
2, 57979, Note_on_c, 1, 73, 127
2, 58062, Note_off_c, 8, 68, 127
2, 58126, Note_off_c, 1, 73, 127
2, 58126, Note_off_c, 5, 53, 127
2, 58128, Note_on_c, 11, 70, 127
2, 58128, Note_on_c, 7, 55, 127
2, 58275, Note_off_c, 11, 70, 127
2, 58276, Note_on_c, 1, 73, 127
2, 58423, Note_off_c, 1, 73, 127
2, 58424, Note_off_c, 7, 55, 127
2, 58425, Note_on_c, 0, 72, 127
2, 58425, Note_on_c, 8, 56, 127
2, 58572, Note_off_c, 0, 72, 127
2, 58574, Note_on_c, 1, 73, 127
2, 58721, Note_off_c, 1, 73, 127
2, 58721, Note_off_c, 8, 56, 127
2, 58723, Note_on_c, 3, 75, 127
2, 58723, Note_on_c, 7, 55, 127
2, 58872, Note_on_c, 8, 80, 127
2, 58971, Note_off_c, 3, 75, 127
2, 59019, Note_off_c, 8, 80, 127
2, 59019, Note_off_c, 7, 55, 127
2, 59020, Note_on_c, 2, 74, 127
2, 59020, Note_on_c, 5, 53, 127
2, 59092, Note_off_c, 5, 53, 127
2, 59095, Note_on_c, 7, 55, 127
2, 59167, Note_off_c, 7, 55, 127
2, 59169, Note_on_c, 8, 80, 127
2, 59169, Note_on_c, 5, 53, 127
2, 59268, Note_off_c, 2, 74, 127
2, 59316, Note_off_c, 5, 53, 127
2, 59316, Note_off_c, 8, 80, 127
2, 59318, Note_on_c, 0, 72, 127
2, 59318, Note_on_c, 3, 51, 127
2, 59467, Note_on_c, 8, 80, 127
2, 59566, Note_off_c, 0, 72, 127
2, 59614, Note_off_c, 8, 80, 127
2, 59614, Note_off_c, 3, 51, 127
2, 59616, Note_on_c, 11, 70, 127
2, 59616, Note_on_c, 2, 50, 127
2, 59771, Note_on_c, 8, 80, 127
2, 59924, Note_off_c, 8, 80, 127
2, 59924, Note_off_c, 2, 50, 127
2, 59926, Note_on_c, 7, 79, 127
2, 59926, Note_on_c, 3, 51, 127
2, 60079, Note_off_c, 7, 79, 127
2, 60081, Note_on_c, 5, 77, 127
2, 60229, Note_off_c, 11, 70, 127
2, 60234, Note_off_c, 5, 77, 127
2, 60234, Note_off_c, 3, 51, 127
2, 60236, Note_on_c, 7, 79, 127
2, 60236, Note_on_c, 11, 58, 127
2, 60316, Note_off_c, 11, 58, 127
2, 60318, Note_on_c, 8, 56, 127
2, 60398, Note_off_c, 8, 56, 127
2, 60398, Note_off_c, 7, 79, 127
2, 60400, Note_on_c, 3, 75, 127
2, 60400, Note_on_c, 11, 58, 127
2, 60564, Note_off_c, 3, 75, 127
2, 60566, Note_on_c, 11, 70, 127
2, 60566, Note_on_c, 11, 46, 127
2, 60728, Note_off_c, 11, 58, 127
2, 60730, Note_off_c, 11, 70, 127
2, 60732, Note_on_c, 2, 74, 127
2, 60896, Note_off_c, 2, 74, 127
2, 60896, Note_off_c, 11, 46, 127
2, 60897, Note_on_c, 3, 75, 127
2, 60897, Note_on_c, 3, 39, 127
2, 61091, Note_on_c, 11, 70, 127
2, 61285, Note_on_c, 7, 67, 127
2, 61332, Note_off_c, 11, 70, 127
2, 61479, Note_on_c, 11, 70, 127
2, 61672, Note_on_c, 3, 63, 127
2, 61965, Note_off_c, 11, 70, 127
2, 61971, Note_off_c, 7, 67, 127
2, 61975, Note_off_c, 3, 75, 127
2, 62281, Note_off_c, 3, 39, 127
2, 62331, Note_off_c, 3, 63, 127
2, 62713, Note_on_c, 11, 70, 127
2, 62872, Note_off_c, 11, 70, 127
2, 62875, Note_on_c, 3, 75, 127
2, 62875, Note_on_c, 11, 58, 127
2, 62875, Note_on_c, 7, 55, 127
2, 62875, Note_on_c, 3, 51, 127
2, 63034, Note_off_c, 3, 75, 127
2, 63036, Note_on_c, 2, 74, 127
2, 63195, Note_off_c, 2, 74, 127
2, 63197, Note_on_c, 3, 75, 127
2, 63344, Note_off_c, 11, 58, 127
2, 63356, Note_off_c, 3, 75, 127
2, 63358, Note_on_c, 7, 79, 127
2, 63512, Note_off_c, 7, 55, 127
2, 63517, Note_off_c, 7, 79, 127
2, 63519, Note_on_c, 8, 68, 127
2, 63678, Note_off_c, 8, 68, 127
2, 63680, Note_on_c, 0, 72, 127
2, 63839, Note_off_c, 0, 72, 127
2, 63840, Note_on_c, 11, 70, 127
2, 63999, Note_off_c, 11, 70, 127
2, 63999, Note_off_c, 3, 51, 127
2, 64001, Note_on_c, 8, 68, 127
2, 64001, Note_on_c, 11, 58, 127
2, 64160, Note_off_c, 11, 58, 127
2, 64160, Note_off_c, 8, 68, 127
2, 64162, Note_on_c, 7, 67, 127
2, 64162, Note_on_c, 3, 63, 127
2, 64321, Note_off_c, 3, 63, 127
2, 64324, Note_on_c, 2, 62, 127
2, 64483, Note_off_c, 2, 62, 127
2, 64485, Note_on_c, 3, 63, 127
2, 64643, Note_off_c, 7, 67, 127
2, 64644, Note_off_c, 3, 63, 127
2, 64646, Note_on_c, 11, 70, 127
2, 64646, Note_on_c, 7, 67, 127
2, 64805, Note_off_c, 7, 67, 127
2, 64805, Note_off_c, 11, 70, 127
2, 64807, Note_on_c, 3, 63, 127
2, 64807, Note_on_c, 8, 56, 127
2, 64966, Note_off_c, 8, 56, 127
2, 64968, Note_on_c, 0, 60, 127
2, 65046, Note_off_c, 3, 63, 127
2, 65049, Note_on_c, 2, 62, 127
2, 65127, Note_off_c, 0, 60, 127
2, 65129, Note_on_c, 11, 58, 127
2, 65288, Note_off_c, 11, 58, 127
2, 65288, Note_off_c, 2, 62, 127
2, 65290, Note_on_c, 5, 65, 127
2, 65290, Note_on_c, 8, 56, 127
2, 65449, Note_off_c, 8, 56, 127
2, 65449, Note_off_c, 5, 65, 127
2, 65450, Note_on_c, 11, 70, 127
2, 65450, Note_on_c, 7, 55, 127
2, 65609, Note_off_c, 11, 70, 127
2, 65611, Note_on_c, 8, 68, 127
2, 65770, Note_off_c, 8, 68, 127
2, 65773, Note_on_c, 11, 70, 127
2, 65931, Note_off_c, 7, 55, 127
2, 65932, Note_off_c, 11, 70, 127
2, 65934, Note_on_c, 3, 75, 127
2, 65934, Note_on_c, 0, 60, 127
2, 66093, Note_off_c, 0, 60, 127
2, 66093, Note_off_c, 3, 75, 127
2, 66095, Note_on_c, 5, 65, 127
2, 66095, Note_on_c, 11, 58, 127
2, 66254, Note_off_c, 5, 65, 127
2, 66256, Note_on_c, 8, 68, 127
2, 66415, Note_off_c, 8, 68, 127
2, 66415, Note_off_c, 11, 58, 127
2, 66417, Note_on_c, 7, 67, 127
2, 66417, Note_on_c, 8, 56, 127
2, 66576, Note_off_c, 7, 67, 127
2, 66578, Note_on_c, 5, 65, 127
2, 66737, Note_off_c, 5, 65, 127
2, 66739, Note_on_c, 3, 63, 127
2, 66898, Note_off_c, 3, 63, 127
2, 66900, Note_on_c, 2, 62, 127
2, 67059, Note_off_c, 2, 62, 127
2, 67060, Note_on_c, 0, 60, 127
2, 67219, Note_off_c, 0, 60, 127
2, 67219, Note_off_c, 8, 56, 127
2, 67222, Note_on_c, 2, 62, 127
2, 67222, Note_on_c, 5, 53, 127
2, 67381, Note_off_c, 5, 53, 127
2, 67381, Note_off_c, 2, 62, 127
2, 67383, Note_on_c, 11, 58, 127
2, 67383, Note_on_c, 3, 51, 127
2, 67542, Note_off_c, 3, 51, 127
2, 67542, Note_off_c, 11, 58, 127
2, 67544, Note_on_c, 2, 62, 127
2, 67544, Note_on_c, 2, 50, 127
2, 67703, Note_off_c, 2, 50, 127
2, 67703, Note_off_c, 2, 62, 127
2, 67705, Note_on_c, 5, 65, 127
2, 67705, Note_on_c, 0, 48, 127
2, 67864, Note_off_c, 0, 48, 127
2, 67864, Note_off_c, 5, 65, 127
2, 67866, Note_on_c, 8, 68, 127
2, 67866, Note_on_c, 11, 46, 127
2, 68025, Note_off_c, 11, 46, 127
2, 68025, Note_off_c, 8, 68, 127
2, 68027, Note_on_c, 7, 67, 127
2, 68027, Note_on_c, 3, 51, 127
2, 68186, Note_off_c, 3, 51, 127
2, 68186, Note_off_c, 7, 67, 127
2, 68188, Note_on_c, 2, 62, 127
2, 68188, Note_on_c, 5, 53, 127
2, 68347, Note_off_c, 5, 53, 127
2, 68347, Note_off_c, 2, 62, 127
2, 68349, Note_on_c, 3, 63, 127
2, 68349, Note_on_c, 7, 55, 127
2, 68512, Note_on_c, 0, 72, 127
2, 68636, Note_off_c, 3, 63, 127
2, 68672, Note_off_c, 0, 72, 127
2, 68675, Note_on_c, 11, 70, 127
2, 68833, Note_off_c, 7, 55, 127
2, 68834, Note_off_c, 11, 70, 127
2, 68835, Note_on_c, 5, 65, 127
2, 68835, Note_on_c, 2, 50, 127
2, 68994, Note_off_c, 2, 50, 127
2, 68994, Note_off_c, 5, 65, 127
2, 68996, Note_on_c, 7, 67, 127
2, 68996, Note_on_c, 3, 51, 127
2, 69155, Note_off_c, 3, 51, 127
2, 69157, Note_on_c, 3, 75, 127
2, 69157, Note_on_c, 7, 55, 127
2, 69265, Note_off_c, 7, 67, 127
2, 69317, Note_off_c, 7, 55, 127
2, 69317, Note_off_c, 3, 75, 127
2, 69320, Note_on_c, 2, 74, 127
2, 69320, Note_on_c, 11, 58, 127
2, 69479, Note_off_c, 11, 58, 127
2, 69479, Note_off_c, 2, 74, 127
2, 69482, Note_on_c, 10, 69, 127
2, 69482, Note_on_c, 0, 60, 127
2, 69641, Note_off_c, 0, 60, 127
2, 69641, Note_off_c, 10, 69, 127
2, 69643, Note_on_c, 11, 70, 127
2, 69643, Note_on_c, 2, 62, 127
2, 69805, Note_on_c, 7, 79, 127
2, 69895, Note_off_c, 11, 70, 127
2, 69964, Note_off_c, 7, 79, 127
2, 69966, Note_on_c, 5, 77, 127
2, 70125, Note_off_c, 5, 77, 127
2, 70125, Note_off_c, 2, 62, 127
2, 70127, Note_on_c, 0, 72, 127
2, 70127, Note_on_c, 10, 57, 127
2, 70286, Note_off_c, 10, 57, 127
2, 70286, Note_off_c, 0, 72, 127
2, 70288, Note_on_c, 2, 74, 127
2, 70288, Note_on_c, 11, 58, 127
2, 70447, Note_off_c, 11, 58, 127
2, 70449, Note_on_c, 8, 80, 127
2, 70449, Note_on_c, 2, 62, 127
2, 70522, Note_off_c, 2, 74, 127
2, 70608, Note_off_c, 2, 62, 127
2, 70608, Note_off_c, 8, 80, 127
2, 70609, Note_on_c, 7, 79, 127
2, 70609, Note_on_c, 3, 63, 127
2, 70768, Note_off_c, 3, 63, 127
2, 70768, Note_off_c, 7, 79, 127
2, 70770, Note_on_c, 5, 77, 127
2, 70770, Note_on_c, 2, 62, 127
2, 70929, Note_off_c, 2, 62, 127
2, 70929, Note_off_c, 5, 77, 127
2, 70932, Note_on_c, 7, 79, 127
2, 70932, Note_on_c, 3, 63, 127
2, 71091, Note_off_c, 3, 63, 127
2, 71091, Note_off_c, 7, 79, 127
2, 71093, Note_on_c, 11, 82, 127
2, 71093, Note_on_c, 7, 67, 127
2, 71252, Note_off_c, 7, 67, 127
2, 71252, Note_off_c, 11, 82, 127
2, 71254, Note_on_c, 0, 72, 127
2, 71254, Note_on_c, 8, 56, 127
2, 71413, Note_off_c, 8, 56, 127
2, 71413, Note_off_c, 0, 72, 127
2, 71415, Note_on_c, 3, 75, 127
2, 71415, Note_on_c, 0, 60, 127
2, 71574, Note_off_c, 0, 60, 127
2, 71574, Note_off_c, 3, 75, 127
2, 71576, Note_on_c, 5, 77, 127
2, 71576, Note_on_c, 2, 62, 127
2, 71735, Note_off_c, 2, 62, 127
2, 71735, Note_off_c, 5, 77, 127
2, 71737, Note_on_c, 7, 79, 127
2, 71737, Note_on_c, 3, 63, 127
2, 71896, Note_off_c, 3, 63, 127
2, 71896, Note_off_c, 7, 79, 127
2, 71898, Note_on_c, 8, 80, 127
2, 71898, Note_on_c, 5, 65, 127
2, 72057, Note_off_c, 5, 65, 127
2, 72057, Note_off_c, 8, 80, 127
2, 72059, Note_on_c, 7, 79, 127
2, 72059, Note_on_c, 3, 63, 127
2, 72218, Note_off_c, 3, 63, 127
2, 72218, Note_off_c, 7, 79, 127
2, 72219, Note_on_c, 8, 80, 127
2, 72219, Note_on_c, 5, 65, 127
2, 72378, Note_off_c, 5, 65, 127
2, 72381, Note_on_c, 0, 84, 127
2, 72381, Note_on_c, 8, 68, 127
2, 72396, Note_off_c, 8, 80, 127
2, 72540, Note_off_c, 8, 68, 127
2, 72540, Note_off_c, 0, 84, 127
2, 72542, Note_on_c, 2, 74, 127
2, 72542, Note_on_c, 11, 58, 127
2, 72701, Note_off_c, 11, 58, 127
2, 72701, Note_off_c, 2, 74, 127
2, 72703, Note_on_c, 5, 77, 127
2, 72703, Note_on_c, 2, 62, 127
2, 72862, Note_off_c, 2, 62, 127
2, 72862, Note_off_c, 5, 77, 127
2, 72864, Note_on_c, 7, 79, 127
2, 72864, Note_on_c, 3, 63, 127
2, 73023, Note_off_c, 3, 63, 127
2, 73023, Note_off_c, 7, 79, 127
2, 73025, Note_on_c, 8, 80, 127
2, 73025, Note_on_c, 5, 65, 127
2, 73184, Note_off_c, 5, 65, 127
2, 73184, Note_off_c, 8, 80, 127
2, 73186, Note_on_c, 11, 82, 127
2, 73186, Note_on_c, 7, 67, 127
2, 73345, Note_off_c, 7, 67, 127
2, 73345, Note_off_c, 11, 82, 127
2, 73347, Note_on_c, 8, 80, 127
2, 73347, Note_on_c, 0, 72, 127
2, 73506, Note_off_c, 0, 72, 127
2, 73506, Note_off_c, 8, 80, 127
2, 73508, Note_on_c, 7, 79, 127
2, 73508, Note_on_c, 11, 70, 127
2, 73667, Note_off_c, 11, 70, 127
2, 73670, Note_on_c, 2, 62, 127
2, 73829, Note_off_c, 2, 62, 127
2, 73830, Note_on_c, 3, 63, 127
2, 73909, Note_off_c, 7, 79, 127
2, 73989, Note_off_c, 3, 63, 127
2, 73991, Note_on_c, 0, 84, 127
2, 73991, Note_on_c, 8, 68, 127
2, 74150, Note_off_c, 8, 68, 127
2, 74150, Note_off_c, 0, 84, 127
2, 74152, Note_on_c, 11, 82, 127
2, 74152, Note_on_c, 7, 67, 127
2, 74311, Note_off_c, 7, 67, 127
2, 74311, Note_off_c, 11, 82, 127
2, 74313, Note_on_c, 7, 79, 127
2, 74313, Note_on_c, 11, 58, 127
2, 74472, Note_off_c, 11, 58, 127
2, 74472, Note_off_c, 7, 79, 127
2, 74474, Note_on_c, 3, 75, 127
2, 74474, Note_on_c, 0, 60, 127
2, 74633, Note_off_c, 0, 60, 127
2, 74633, Note_off_c, 3, 75, 127
2, 74635, Note_on_c, 2, 74, 127
2, 74635, Note_on_c, 5, 65, 127
2, 74794, Note_off_c, 5, 65, 127
2, 74794, Note_off_c, 2, 74, 127
2, 74796, Note_on_c, 0, 72, 127
2, 74796, Note_on_c, 3, 63, 127
2, 74955, Note_off_c, 3, 63, 127
2, 74957, Note_on_c, 7, 55, 127
2, 75116, Note_off_c, 7, 55, 127
2, 75119, Note_on_c, 8, 56, 127
2, 75197, Note_off_c, 0, 72, 127
2, 75278, Note_off_c, 8, 56, 127
2, 75280, Note_on_c, 5, 77, 127
2, 75280, Note_on_c, 1, 61, 127
2, 75439, Note_off_c, 1, 61, 127
2, 75439, Note_off_c, 5, 77, 127
2, 75440, Note_on_c, 3, 75, 127
2, 75440, Note_on_c, 0, 60, 127
2, 75599, Note_off_c, 0, 60, 127
2, 75599, Note_off_c, 3, 75, 127
2, 75601, Note_on_c, 0, 72, 127
2, 75601, Note_on_c, 3, 51, 127
2, 75760, Note_off_c, 3, 51, 127
2, 75760, Note_off_c, 0, 72, 127
2, 75762, Note_on_c, 8, 68, 127
2, 75762, Note_on_c, 5, 53, 127
2, 75925, Note_on_c, 2, 74, 127
2, 75998, Note_off_c, 8, 68, 127
2, 76083, Note_off_c, 5, 53, 127
2, 76084, Note_off_c, 2, 74, 127
2, 76086, Note_on_c, 3, 75, 127
2, 76086, Note_on_c, 7, 55, 127
2, 76249, Note_on_c, 7, 67, 127
2, 76322, Note_off_c, 3, 75, 127
2, 76407, Note_off_c, 7, 55, 127
2, 76408, Note_off_c, 7, 67, 127
2, 76410, Note_on_c, 5, 65, 127
2, 76410, Note_on_c, 8, 56, 127
2, 76572, Note_on_c, 8, 68, 127
2, 76613, Note_off_c, 5, 65, 127
2, 76732, Note_off_c, 8, 68, 127
2, 76733, Note_off_c, 8, 56, 127
2, 76735, Note_on_c, 7, 67, 127
2, 76735, Note_on_c, 11, 58, 127
2, 76894, Note_off_c, 7, 67, 127
2, 76896, Note_on_c, 2, 62, 127
2, 77055, Note_off_c, 2, 62, 127
2, 77055, Note_off_c, 11, 58, 127
2, 77057, Note_on_c, 3, 63, 127
2, 77057, Note_on_c, 3, 51, 127
2, 77220, Note_on_c, 8, 56, 127
2, 77379, Note_off_c, 8, 56, 127
2, 77381, Note_on_c, 11, 58, 127
2, 77540, Note_off_c, 11, 58, 127
2, 77542, Note_on_c, 5, 53, 127
2, 77701, Note_off_c, 5, 53, 127
2, 77703, Note_on_c, 7, 55, 127
2, 77862, Note_off_c, 7, 55, 127
2, 77863, Note_off_c, 3, 51, 127
2, 77863, Note_off_c, 3, 63, 127
2, 77864, Note_on_c, 12, 47, 127
2, 78023, Note_off_c, 12, 47, 127
2, 78025, Note_on_c, 0, 48, 127
2, 78184, Note_off_c, 0, 48, 127
2, 78186, Note_on_c, 7, 67, 127
2, 78186, Note_on_c, 7, 43, 127
2, 78345, Note_off_c, 7, 43, 127
2, 78345, Note_off_c, 7, 67, 127
2, 78346, Note_on_c, 0, 72, 127
2, 78346, Note_on_c, 8, 44, 127
2, 78505, Note_off_c, 0, 72, 127
2, 78507, Note_on_c, 12, 71, 127
2, 78648, Note_off_c, 8, 44, 127
2, 78666, Note_off_c, 12, 71, 127
2, 78669, Note_on_c, 0, 72, 127
2, 78669, Note_on_c, 8, 56, 127
2, 78828, Note_off_c, 0, 72, 127
2, 78830, Note_on_c, 3, 75, 127
2, 78971, Note_off_c, 8, 56, 127
2, 78989, Note_off_c, 3, 75, 127
2, 78991, Note_on_c, 8, 80, 127
2, 78991, Note_on_c, 2, 50, 127
2, 79150, Note_off_c, 2, 50, 127
2, 79150, Note_off_c, 8, 80, 127
2, 79152, Note_on_c, 7, 79, 127
2, 79152, Note_on_c, 3, 51, 127
2, 79311, Note_off_c, 3, 51, 127
2, 79311, Note_off_c, 7, 79, 127
2, 79313, Note_on_c, 2, 74, 127
2, 79313, Note_on_c, 5, 53, 127
2, 79472, Note_off_c, 2, 74, 127
2, 79474, Note_on_c, 3, 75, 127
2, 79633, Note_off_c, 3, 75, 127
2, 79635, Note_on_c, 12, 71, 127
2, 79765, Note_off_c, 5, 53, 127
2, 79794, Note_off_c, 12, 71, 127
2, 79796, Note_on_c, 10, 69, 127
2, 79796, Note_on_c, 0, 48, 127
2, 79955, Note_off_c, 0, 48, 127
2, 79955, Note_off_c, 10, 69, 127
2, 79956, Note_on_c, 12, 71, 127
2, 79956, Note_on_c, 2, 50, 127
2, 80115, Note_off_c, 2, 50, 127
2, 80115, Note_off_c, 12, 71, 127
2, 80118, Note_on_c, 2, 74, 127
2, 80118, Note_on_c, 5, 53, 127
2, 80277, Note_off_c, 5, 53, 127
2, 80277, Note_off_c, 2, 74, 127
2, 80279, Note_on_c, 8, 68, 127
2, 80279, Note_on_c, 0, 48, 127
2, 80438, Note_off_c, 0, 48, 127
2, 80438, Note_off_c, 8, 68, 127
2, 80440, Note_on_c, 7, 67, 127
2, 80440, Note_on_c, 12, 47, 127
2, 80599, Note_off_c, 7, 67, 127
2, 80601, Note_on_c, 7, 79, 127
2, 80691, Note_off_c, 12, 47, 127
2, 80760, Note_off_c, 7, 79, 127
2, 80762, Note_on_c, 10, 69, 127
2, 80762, Note_on_c, 5, 53, 127
2, 80921, Note_off_c, 5, 53, 127
2, 80921, Note_off_c, 10, 69, 127
2, 80923, Note_on_c, 11, 70, 127
2, 80923, Note_on_c, 4, 52, 127
2, 81082, Note_off_c, 11, 70, 127
2, 81084, Note_on_c, 10, 69, 127
2, 81243, Note_off_c, 10, 69, 127
2, 81243, Note_off_c, 4, 52, 127
2, 81245, Note_on_c, 11, 70, 127
2, 81245, Note_on_c, 7, 55, 127
2, 81404, Note_off_c, 11, 70, 127
2, 81407, Note_on_c, 1, 73, 127
2, 81565, Note_off_c, 7, 55, 127
2, 81566, Note_off_c, 1, 73, 127
2, 81567, Note_on_c, 6, 78, 127
2, 81567, Note_on_c, 0, 48, 127
2, 81726, Note_off_c, 0, 48, 127
2, 81726, Note_off_c, 6, 78, 127
2, 81728, Note_on_c, 5, 77, 127
2, 81728, Note_on_c, 1, 49, 127
2, 81887, Note_off_c, 1, 49, 127
2, 81887, Note_off_c, 5, 77, 127
2, 81889, Note_on_c, 0, 72, 127
2, 81889, Note_on_c, 3, 51, 127
2, 82048, Note_off_c, 0, 72, 127
2, 82050, Note_on_c, 1, 73, 127
2, 82209, Note_off_c, 1, 73, 127
2, 82211, Note_on_c, 10, 69, 127
2, 82341, Note_off_c, 3, 51, 127
2, 82370, Note_off_c, 10, 69, 127
2, 82372, Note_on_c, 7, 67, 127
2, 82372, Note_on_c, 11, 46, 127
2, 82531, Note_off_c, 11, 46, 127
2, 82531, Note_off_c, 7, 67, 127
2, 82533, Note_on_c, 10, 69, 127
2, 82533, Note_on_c, 0, 48, 127
2, 82692, Note_off_c, 0, 48, 127
2, 82692, Note_off_c, 10, 69, 127
2, 82694, Note_on_c, 0, 72, 127
2, 82694, Note_on_c, 3, 51, 127
2, 82853, Note_off_c, 3, 51, 127
2, 82853, Note_off_c, 0, 72, 127
2, 82856, Note_on_c, 6, 66, 127
2, 82856, Note_on_c, 11, 46, 127
2, 83015, Note_off_c, 11, 46, 127
2, 83015, Note_off_c, 6, 66, 127
2, 83017, Note_on_c, 5, 65, 127
2, 83017, Note_on_c, 10, 45, 127
2, 83176, Note_off_c, 5, 65, 127
2, 83177, Note_on_c, 3, 75, 127
2, 83277, Note_off_c, 10, 45, 127
2, 83337, Note_off_c, 3, 75, 127
2, 83340, Note_on_c, 0, 72, 127
2, 83340, Note_on_c, 5, 53, 127
2, 83499, Note_off_c, 5, 53, 127
2, 83499, Note_off_c, 0, 72, 127
2, 83501, Note_on_c, 2, 74, 127
2, 83501, Note_on_c, 11, 58, 127
2, 83660, Note_off_c, 11, 58, 127
2, 83662, Note_on_c, 10, 57, 127
2, 83821, Note_off_c, 10, 57, 127
2, 83821, Note_off_c, 2, 74, 127
2, 83823, Note_on_c, 7, 79, 127
2, 83823, Note_on_c, 11, 58, 127
2, 83982, Note_off_c, 11, 58, 127
2, 83982, Note_off_c, 7, 79, 127
2, 83983, Note_on_c, 5, 77, 127
2, 83983, Note_on_c, 2, 62, 127
2, 84142, Note_off_c, 2, 62, 127
2, 84142, Note_off_c, 5, 77, 127
2, 84144, Note_on_c, 3, 75, 127
2, 84144, Note_on_c, 7, 67, 127
2, 84303, Note_off_c, 7, 67, 127
2, 84303, Note_off_c, 3, 75, 127
2, 84306, Note_on_c, 2, 74, 127
2, 84306, Note_on_c, 5, 65, 127
2, 84465, Note_off_c, 5, 65, 127
2, 84465, Note_off_c, 2, 74, 127
2, 84467, Note_on_c, 3, 75, 127
2, 84467, Note_on_c, 10, 57, 127
2, 84626, Note_off_c, 10, 57, 127
2, 84628, Note_on_c, 11, 58, 127
2, 84787, Note_off_c, 11, 58, 127
2, 84789, Note_on_c, 10, 57, 127
2, 84919, Note_off_c, 3, 75, 127
2, 84948, Note_off_c, 10, 57, 127
2, 84950, Note_on_c, 11, 70, 127
2, 84950, Note_on_c, 7, 55, 127
2, 85109, Note_off_c, 7, 55, 127
2, 85109, Note_off_c, 11, 70, 127
2, 85111, Note_on_c, 0, 72, 127
2, 85111, Note_on_c, 10, 57, 127
2, 85270, Note_off_c, 10, 57, 127
2, 85270, Note_off_c, 0, 72, 127
2, 85272, Note_on_c, 3, 75, 127
2, 85272, Note_on_c, 0, 60, 127
2, 85431, Note_off_c, 0, 60, 127
2, 85431, Note_off_c, 3, 75, 127
2, 85433, Note_on_c, 11, 70, 127
2, 85433, Note_on_c, 6, 54, 127
2, 85592, Note_off_c, 6, 54, 127
2, 85592, Note_off_c, 11, 70, 127
2, 85594, Note_on_c, 10, 69, 127
2, 85594, Note_on_c, 5, 53, 127
2, 85753, Note_off_c, 5, 53, 127
2, 85753, Note_off_c, 10, 69, 127
2, 85755, Note_on_c, 5, 65, 127
2, 85914, Note_off_c, 5, 65, 127
2, 85916, Note_on_c, 3, 75, 127
2, 85916, Note_on_c, 7, 55, 127
2, 86075, Note_off_c, 7, 55, 127
2, 86075, Note_off_c, 3, 75, 127
2, 86077, Note_on_c, 2, 74, 127
2, 86077, Note_on_c, 8, 56, 127
2, 86236, Note_off_c, 8, 56, 127
2, 86238, Note_on_c, 7, 55, 127
2, 86397, Note_off_c, 7, 55, 127
2, 86397, Note_off_c, 2, 74, 127
2, 86399, Note_on_c, 5, 77, 127
2, 86399, Note_on_c, 8, 56, 127
2, 86558, Note_off_c, 8, 56, 127
2, 86558, Note_off_c, 5, 77, 127
2, 86560, Note_on_c, 3, 75, 127
2, 86560, Note_on_c, 12, 59, 127
2, 86719, Note_off_c, 12, 59, 127
2, 86719, Note_off_c, 3, 75, 127
2, 86721, Note_on_c, 1, 73, 127
2, 86721, Note_on_c, 4, 64, 127
2, 86880, Note_off_c, 4, 64, 127
2, 86880, Note_off_c, 1, 73, 127
2, 86882, Note_on_c, 0, 72, 127
2, 86882, Note_on_c, 3, 63, 127
2, 87041, Note_off_c, 3, 63, 127
2, 87041, Note_off_c, 0, 72, 127
2, 87044, Note_on_c, 1, 73, 127
2, 87044, Note_on_c, 11, 58, 127
2, 87203, Note_off_c, 11, 58, 127
2, 87204, Note_on_c, 12, 59, 127
2, 87363, Note_off_c, 12, 59, 127
2, 87365, Note_on_c, 7, 55, 127
2, 87496, Note_off_c, 1, 73, 127
2, 87524, Note_off_c, 7, 55, 127
2, 87526, Note_on_c, 8, 68, 127
2, 87526, Note_on_c, 5, 53, 127
2, 87685, Note_off_c, 5, 53, 127
2, 87685, Note_off_c, 8, 68, 127
2, 87687, Note_on_c, 11, 70, 127
2, 87687, Note_on_c, 7, 55, 127
2, 87846, Note_off_c, 7, 55, 127
2, 87846, Note_off_c, 11, 70, 127
2, 87848, Note_on_c, 1, 73, 127
2, 87848, Note_on_c, 11, 58, 127
2, 88007, Note_off_c, 11, 58, 127
2, 88007, Note_off_c, 1, 73, 127
2, 88009, Note_on_c, 8, 68, 127
2, 88009, Note_on_c, 4, 52, 127
2, 88168, Note_off_c, 4, 52, 127
2, 88168, Note_off_c, 8, 68, 127
2, 88170, Note_on_c, 7, 67, 127
2, 88170, Note_on_c, 3, 51, 127
2, 88329, Note_off_c, 3, 51, 127
2, 88329, Note_off_c, 7, 67, 127
2, 88331, Note_on_c, 1, 61, 127
2, 88490, Note_off_c, 1, 61, 127
2, 88493, Note_on_c, 3, 75, 127
2, 88493, Note_on_c, 11, 58, 127
2, 88652, Note_off_c, 11, 58, 127
2, 88652, Note_off_c, 3, 75, 127
2, 88654, Note_on_c, 11, 70, 127
2, 88654, Note_on_c, 0, 60, 127
2, 88813, Note_off_c, 11, 70, 127
2, 88814, Note_on_c, 10, 69, 127
2, 88973, Note_off_c, 10, 69, 127
2, 88974, Note_off_c, 0, 60, 127
2, 88975, Note_on_c, 6, 78, 127
2, 88975, Note_on_c, 5, 53, 127
2, 89134, Note_off_c, 6, 78, 127
2, 89136, Note_on_c, 5, 77, 127
2, 89295, Note_off_c, 5, 77, 127
2, 89295, Note_off_c, 5, 53, 127
2, 89297, Note_on_c, 0, 72, 127
2, 89297, Note_on_c, 1, 61, 127
2, 89456, Note_off_c, 0, 72, 127
2, 89458, Note_on_c, 11, 70, 127
2, 89617, Note_off_c, 11, 70, 127
2, 89617, Note_off_c, 1, 61, 127
2, 89619, Note_on_c, 8, 80, 127
2, 89619, Note_on_c, 5, 53, 127
2, 89778, Note_off_c, 8, 80, 127
2, 89781, Note_on_c, 7, 79, 127
2, 89939, Note_off_c, 5, 53, 127
2, 89940, Note_off_c, 7, 79, 127
2, 89942, Note_on_c, 1, 73, 127
2, 89942, Note_on_c, 3, 63, 127
2, 90101, Note_off_c, 1, 73, 127
2, 90103, Note_on_c, 0, 72, 127
2, 90262, Note_off_c, 0, 72, 127
2, 90262, Note_off_c, 3, 63, 127
2, 90264, Note_on_c, 12, 83, 127
2, 90264, Note_on_c, 5, 53, 127
2, 90423, Note_off_c, 12, 83, 127
2, 90424, Note_on_c, 10, 81, 127
2, 90583, Note_off_c, 10, 81, 127
2, 90584, Note_off_c, 5, 53, 127
2, 90585, Note_on_c, 11, 82, 127
2, 90585, Note_on_c, 4, 64, 127
2, 90744, Note_off_c, 11, 82, 127
2, 90746, Note_on_c, 0, 72, 127
2, 90905, Note_off_c, 0, 72, 127
2, 90905, Note_off_c, 4, 64, 127
2, 90907, Note_on_c, 1, 73, 127
2, 90907, Note_on_c, 5, 53, 127
2, 91066, Note_off_c, 1, 73, 127
2, 91068, Note_on_c, 11, 70, 127
2, 91227, Note_off_c, 11, 70, 127
2, 91227, Note_off_c, 5, 53, 127
2, 91230, Note_on_c, 10, 69, 127
2, 91230, Note_on_c, 5, 65, 127
2, 91389, Note_off_c, 5, 65, 127
2, 91389, Note_off_c, 10, 69, 127
2, 91391, Note_on_c, 6, 78, 127
2, 91391, Note_on_c, 3, 63, 127
2, 91550, Note_off_c, 3, 63, 127
2, 91550, Note_off_c, 6, 78, 127
2, 91552, Note_on_c, 5, 77, 127
2, 91552, Note_on_c, 2, 62, 127
2, 91711, Note_off_c, 5, 77, 127
2, 91713, Note_on_c, 10, 69, 127
2, 91872, Note_off_c, 10, 69, 127
2, 91874, Note_on_c, 11, 70, 127
2, 91953, Note_off_c, 2, 62, 127
2, 92033, Note_off_c, 11, 70, 127
2, 92034, Note_on_c, 3, 75, 127
2, 92034, Note_on_c, 7, 67, 127
2, 92193, Note_off_c, 7, 67, 127
2, 92193, Note_off_c, 3, 75, 127
2, 92195, Note_on_c, 2, 74, 127
2, 92195, Note_on_c, 5, 65, 127
2, 92354, Note_off_c, 5, 65, 127
2, 92354, Note_off_c, 2, 74, 127
2, 92356, Note_on_c, 5, 65, 127
2, 92356, Note_on_c, 2, 62, 127
2, 92515, Note_off_c, 2, 62, 127
2, 92515, Note_off_c, 5, 65, 127
2, 92517, Note_on_c, 7, 67, 127
2, 92517, Note_on_c, 11, 58, 127
2, 92676, Note_off_c, 11, 58, 127
2, 92676, Note_off_c, 7, 67, 127
2, 92679, Note_on_c, 0, 72, 127
2, 92679, Note_on_c, 10, 57, 127
2, 92838, Note_off_c, 10, 57, 127
2, 92838, Note_off_c, 0, 72, 127
2, 92840, Note_on_c, 11, 70, 127
2, 92840, Note_on_c, 7, 55, 127
2, 92999, Note_off_c, 11, 70, 127
2, 93001, Note_on_c, 2, 62, 127
2, 93160, Note_off_c, 2, 62, 127
2, 93162, Note_on_c, 3, 63, 127
2, 93241, Note_off_c, 7, 55, 127
2, 93321, Note_off_c, 3, 63, 127
2, 93323, Note_on_c, 8, 68, 127
2, 93323, Note_on_c, 0, 60, 127
2, 93482, Note_off_c, 0, 60, 127
2, 93482, Note_off_c, 8, 68, 127
2, 93484, Note_on_c, 7, 67, 127
2, 93484, Note_on_c, 11, 58, 127
2, 93643, Note_off_c, 11, 58, 127
2, 93643, Note_off_c, 7, 67, 127
2, 93644, Note_on_c, 11, 58, 127
2, 93644, Note_on_c, 7, 55, 127
2, 93803, Note_off_c, 7, 55, 127
2, 93803, Note_off_c, 11, 58, 127
2, 93805, Note_on_c, 0, 60, 127
2, 93805, Note_on_c, 3, 51, 127
2, 93964, Note_off_c, 3, 51, 127
2, 93964, Note_off_c, 0, 60, 127
2, 93966, Note_on_c, 2, 62, 127
2, 93966, Note_on_c, 10, 57, 127
2, 94044, Note_off_c, 2, 62, 127
2, 94047, Note_on_c, 3, 63, 127
2, 94125, Note_off_c, 3, 63, 127
2, 94125, Note_off_c, 10, 57, 127
2, 94128, Note_on_c, 2, 62, 127
2, 94128, Note_on_c, 11, 58, 127
2, 94287, Note_off_c, 11, 58, 127
2, 94287, Note_off_c, 2, 62, 127
2, 94289, Note_on_c, 11, 70, 127
2, 94289, Note_on_c, 2, 50, 127
2, 94448, Note_off_c, 2, 50, 127
2, 94448, Note_off_c, 11, 70, 127
2, 94450, Note_on_c, 3, 63, 127
2, 94450, Note_on_c, 0, 48, 127
2, 94609, Note_off_c, 0, 48, 127
2, 94609, Note_off_c, 3, 63, 127
2, 94611, Note_on_c, 2, 62, 127
2, 94611, Note_on_c, 11, 58, 127
2, 94770, Note_off_c, 11, 58, 127
2, 94770, Note_off_c, 2, 62, 127
2, 94772, Note_on_c, 3, 63, 127
2, 94772, Note_on_c, 5, 53, 127
2, 94931, Note_off_c, 5, 53, 127
2, 94931, Note_off_c, 3, 63, 127
2, 94933, Note_on_c, 0, 60, 127
2, 94933, Note_on_c, 10, 57, 127
2, 95092, Note_off_c, 10, 57, 127
2, 95092, Note_off_c, 0, 60, 127
2, 95094, Note_on_c, 11, 58, 127
2, 95094, Note_on_c, 11, 46, 127
2, 95256, Note_on_c, 3, 51, 127
2, 95415, Note_off_c, 3, 51, 127
2, 95418, Note_on_c, 5, 53, 127
2, 95577, Note_off_c, 5, 53, 127
2, 95579, Note_on_c, 0, 48, 127
2, 95738, Note_off_c, 0, 48, 127
2, 95740, Note_on_c, 2, 50, 127
2, 95899, Note_off_c, 2, 50, 127
2, 95900, Note_off_c, 11, 46, 127
2, 95918, Note_on_c, 5, 41, 127
2, 96077, Note_off_c, 5, 41, 127
2, 96096, Note_on_c, 11, 34, 127
2, 96220, Note_off_c, 11, 58, 127
2, 96273, Note_on_c, 5, 65, 127
2, 96416, Note_off_c, 11, 34, 127
2, 96432, Note_off_c, 5, 65, 127
2, 96434, Note_on_c, 11, 58, 127
2, 96434, Note_on_c, 2, 62, 127
2, 96434, Note_on_c, 5, 65, 127
2, 96593, Note_off_c, 5, 65, 127
2, 96593, Note_off_c, 2, 62, 127
2, 96595, Note_on_c, 0, 60, 127
2, 96595, Note_on_c, 3, 63, 127
2, 96754, Note_off_c, 3, 63, 127
2, 96754, Note_off_c, 0, 60, 127
2, 96756, Note_on_c, 2, 62, 127
2, 96756, Note_on_c, 5, 65, 127
2, 96915, Note_off_c, 5, 65, 127
2, 96915, Note_off_c, 2, 62, 127
2, 96917, Note_on_c, 3, 63, 127
2, 96917, Note_on_c, 8, 68, 127
2, 97071, Note_off_c, 11, 58, 127
2, 97076, Note_off_c, 8, 68, 127
2, 97076, Note_off_c, 3, 63, 127
2, 97079, Note_on_c, 5, 65, 127
2, 97079, Note_on_c, 2, 74, 127
2, 97238, Note_off_c, 2, 74, 127
2, 97240, Note_on_c, 8, 68, 127
2, 97399, Note_off_c, 8, 68, 127
2, 97399, Note_off_c, 5, 65, 127
2, 97401, Note_on_c, 2, 62, 127
2, 97401, Note_on_c, 11, 58, 127
2, 97401, Note_on_c, 5, 77, 127
2, 97560, Note_off_c, 5, 77, 127
2, 97562, Note_on_c, 8, 68, 127
2, 97721, Note_off_c, 8, 68, 127
2, 97721, Note_off_c, 11, 58, 127
2, 97721, Note_off_c, 2, 62, 127
2, 97723, Note_on_c, 3, 51, 127
2, 97723, Note_on_c, 7, 67, 127
2, 97882, Note_off_c, 7, 67, 127
2, 97882, Note_off_c, 3, 51, 127
2, 97883, Note_on_c, 7, 55, 127
2, 97883, Note_on_c, 11, 70, 127
2, 98042, Note_off_c, 11, 70, 127
2, 98042, Note_off_c, 7, 55, 127
2, 98044, Note_on_c, 11, 58, 127
2, 98044, Note_on_c, 3, 63, 127
2, 98203, Note_off_c, 3, 63, 127
2, 98203, Note_off_c, 11, 58, 127
2, 98205, Note_on_c, 2, 62, 127
2, 98205, Note_on_c, 5, 65, 127
2, 98364, Note_off_c, 5, 65, 127
2, 98364, Note_off_c, 2, 62, 127
2, 98367, Note_on_c, 3, 63, 127
2, 98367, Note_on_c, 7, 67, 127
2, 98526, Note_off_c, 7, 67, 127
2, 98526, Note_off_c, 3, 63, 127
2, 98528, Note_on_c, 5, 65, 127
2, 98528, Note_on_c, 8, 68, 127
2, 98687, Note_off_c, 8, 68, 127
2, 98687, Note_off_c, 5, 65, 127
2, 98689, Note_on_c, 7, 67, 127
2, 98689, Note_on_c, 11, 70, 127
2, 98848, Note_off_c, 11, 70, 127
2, 98848, Note_off_c, 7, 67, 127
2, 98850, Note_on_c, 8, 68, 127
2, 98850, Note_on_c, 0, 72, 127
2, 99009, Note_off_c, 0, 72, 127
2, 99009, Note_off_c, 8, 68, 127
2, 99011, Note_on_c, 3, 63, 127
2, 99011, Note_on_c, 7, 67, 127
2, 99011, Note_on_c, 11, 70, 127
2, 99170, Note_off_c, 11, 70, 127
2, 99170, Note_off_c, 7, 67, 127
2, 99172, Note_on_c, 5, 65, 127
2, 99172, Note_on_c, 8, 68, 127
2, 99331, Note_off_c, 8, 68, 127
2, 99331, Note_off_c, 5, 65, 127
2, 99333, Note_on_c, 7, 67, 127
2, 99333, Note_on_c, 11, 70, 127
2, 99492, Note_off_c, 11, 70, 127
2, 99492, Note_off_c, 7, 67, 127
2, 99493, Note_on_c, 8, 68, 127
2, 99493, Note_on_c, 1, 73, 127
2, 99648, Note_off_c, 3, 63, 127
2, 99652, Note_off_c, 1, 73, 127
2, 99652, Note_off_c, 8, 68, 127
2, 99654, Note_on_c, 11, 70, 127
2, 99654, Note_on_c, 7, 79, 127
2, 99813, Note_off_c, 7, 79, 127
2, 99816, Note_on_c, 1, 73, 127
2, 99974, Note_off_c, 11, 70, 127
2, 99975, Note_off_c, 1, 73, 127
2, 99977, Note_on_c, 7, 67, 127
2, 99977, Note_on_c, 3, 63, 127
2, 99977, Note_on_c, 11, 82, 127
2, 100136, Note_off_c, 11, 82, 127
2, 100138, Note_on_c, 1, 73, 127
2, 100297, Note_off_c, 1, 73, 127
2, 100297, Note_off_c, 3, 63, 127
2, 100297, Note_off_c, 7, 67, 127
2, 100299, Note_on_c, 8, 56, 127
2, 100299, Note_on_c, 0, 72, 127
2, 100458, Note_off_c, 0, 72, 127
2, 100458, Note_off_c, 8, 56, 127
2, 100460, Note_on_c, 0, 60, 127
2, 100460, Note_on_c, 3, 75, 127
2, 100619, Note_off_c, 3, 75, 127
2, 100619, Note_off_c, 0, 60, 127
2, 100621, Note_on_c, 3, 63, 127
2, 100621, Note_on_c, 8, 68, 127
2, 100780, Note_off_c, 8, 68, 127
2, 100780, Note_off_c, 3, 63, 127
2, 100782, Note_on_c, 7, 67, 127
2, 100782, Note_on_c, 11, 70, 127
2, 100941, Note_off_c, 11, 70, 127
2, 100941, Note_off_c, 7, 67, 127
2, 100943, Note_on_c, 8, 68, 127
2, 100943, Note_on_c, 0, 72, 127
2, 101102, Note_off_c, 0, 72, 127
2, 101102, Note_off_c, 8, 68, 127
2, 101103, Note_on_c, 11, 70, 127
2, 101103, Note_on_c, 2, 74, 127
2, 101262, Note_off_c, 2, 74, 127
2, 101262, Note_off_c, 11, 70, 127
2, 101265, Note_on_c, 0, 72, 127
2, 101265, Note_on_c, 4, 76, 127
2, 101424, Note_off_c, 4, 76, 127
2, 101424, Note_off_c, 0, 72, 127
2, 101426, Note_on_c, 1, 73, 127
2, 101426, Note_on_c, 5, 77, 127
2, 101585, Note_off_c, 5, 77, 127
2, 101585, Note_off_c, 1, 73, 127
2, 101587, Note_on_c, 7, 67, 127
2, 101587, Note_on_c, 4, 76, 127
2, 101746, Note_off_c, 4, 76, 127
2, 101748, Note_on_c, 2, 74, 127
2, 101907, Note_off_c, 2, 74, 127
2, 101907, Note_off_c, 7, 67, 127
2, 101909, Note_on_c, 11, 58, 127
2, 101909, Note_on_c, 4, 76, 127
2, 102068, Note_off_c, 4, 76, 127
2, 102070, Note_on_c, 7, 79, 127
2, 102229, Note_off_c, 7, 79, 127
2, 102229, Note_off_c, 11, 58, 127
2, 102231, Note_on_c, 1, 61, 127
2, 102231, Note_on_c, 11, 70, 127
2, 102390, Note_off_c, 11, 70, 127
2, 102392, Note_on_c, 1, 73, 127
2, 102551, Note_off_c, 1, 73, 127
2, 102551, Note_off_c, 1, 61, 127
2, 102554, Note_on_c, 4, 52, 127
2, 102554, Note_on_c, 0, 72, 127
2, 102713, Note_off_c, 0, 72, 127
2, 102714, Note_on_c, 11, 70, 127
2, 102873, Note_off_c, 11, 70, 127
2, 102874, Note_off_c, 4, 52, 127
2, 102875, Note_on_c, 5, 53, 127
2, 102875, Note_on_c, 8, 68, 127
2, 103034, Note_off_c, 8, 68, 127
2, 103036, Note_on_c, 7, 67, 127
2, 103195, Note_off_c, 7, 67, 127
2, 103197, Note_on_c, 8, 68, 127
2, 103327, Note_off_c, 5, 53, 127
2, 103356, Note_off_c, 8, 68, 127
2, 103358, Note_on_c, 7, 55, 127
2, 103358, Note_on_c, 0, 72, 127
2, 103517, Note_off_c, 0, 72, 127
2, 103517, Note_off_c, 7, 55, 127
2, 103519, Note_on_c, 8, 56, 127
2, 103519, Note_on_c, 5, 77, 127
2, 103678, Note_off_c, 5, 77, 127
2, 103678, Note_off_c, 8, 56, 127
2, 103680, Note_on_c, 11, 58, 127
2, 103680, Note_on_c, 7, 79, 127
2, 103839, Note_off_c, 7, 79, 127
2, 103839, Note_off_c, 11, 58, 127
2, 103841, Note_on_c, 0, 60, 127
2, 103841, Note_on_c, 4, 76, 127
2, 104000, Note_off_c, 4, 76, 127
2, 104000, Note_off_c, 0, 60, 127
2, 104003, Note_on_c, 2, 62, 127
2, 104003, Note_on_c, 5, 77, 127
2, 104162, Note_off_c, 5, 77, 127
2, 104162, Note_off_c, 2, 62, 127
2, 104164, Note_on_c, 4, 64, 127
2, 104164, Note_on_c, 7, 79, 127
2, 104323, Note_off_c, 4, 64, 127
2, 104324, Note_on_c, 2, 62, 127
2, 104483, Note_off_c, 2, 62, 127
2, 104484, Note_off_c, 7, 79, 127
2, 104485, Note_on_c, 4, 64, 127
2, 104485, Note_on_c, 11, 70, 127
2, 104644, Note_off_c, 4, 64, 127
2, 104646, Note_on_c, 7, 67, 127
2, 104805, Note_off_c, 7, 67, 127
2, 104805, Note_off_c, 11, 70, 127
2, 104807, Note_on_c, 11, 58, 127
2, 104807, Note_on_c, 1, 73, 127
2, 104966, Note_off_c, 11, 58, 127
2, 104968, Note_on_c, 1, 61, 127
2, 105127, Note_off_c, 1, 61, 127
2, 105127, Note_off_c, 1, 73, 127
2, 105129, Note_on_c, 0, 60, 127
2, 105129, Note_on_c, 4, 64, 127
2, 105288, Note_off_c, 0, 60, 127
2, 105290, Note_on_c, 11, 58, 127
2, 105449, Note_off_c, 11, 58, 127
2, 105449, Note_off_c, 4, 64, 127
2, 105452, Note_on_c, 8, 56, 127
2, 105452, Note_on_c, 5, 65, 127
2, 105611, Note_off_c, 8, 56, 127
2, 105613, Note_on_c, 7, 55, 127
2, 105772, Note_off_c, 7, 55, 127
2, 105774, Note_on_c, 8, 56, 127
2, 105933, Note_off_c, 8, 56, 127
2, 105933, Note_off_c, 5, 65, 127
2, 105934, Note_on_c, 0, 60, 127
2, 105934, Note_on_c, 7, 67, 127
2, 106093, Note_off_c, 7, 67, 127
2, 106093, Note_off_c, 0, 60, 127
2, 106095, Note_on_c, 5, 65, 127
2, 106095, Note_on_c, 8, 68, 127
2, 106254, Note_off_c, 8, 68, 127
2, 106254, Note_off_c, 5, 65, 127
2, 106256, Note_on_c, 7, 67, 127
2, 106256, Note_on_c, 11, 70, 127
2, 106415, Note_off_c, 11, 70, 127
2, 106415, Note_off_c, 7, 67, 127
2, 106417, Note_on_c, 3, 63, 127
2, 106417, Note_on_c, 0, 72, 127
2, 106576, Note_off_c, 3, 63, 127
2, 106578, Note_on_c, 5, 65, 127
2, 106737, Note_off_c, 5, 65, 127
2, 106739, Note_on_c, 1, 61, 127
2, 106818, Note_off_c, 0, 72, 127
2, 106901, Note_on_c, 10, 69, 127
2, 107060, Note_off_c, 10, 69, 127
2, 107062, Note_on_c, 11, 70, 127
2, 107221, Note_off_c, 11, 70, 127
2, 107223, Note_on_c, 6, 78, 127
2, 107382, Note_off_c, 6, 78, 127
2, 107384, Note_on_c, 4, 76, 127
2, 107541, Note_off_c, 1, 61, 127
2, 107543, Note_off_c, 4, 76, 127
2, 107544, Note_on_c, 0, 60, 127
2, 107544, Note_on_c, 5, 77, 127
2, 107703, Note_off_c, 5, 77, 127
2, 107703, Note_off_c, 0, 60, 127
2, 107705, Note_on_c, 1, 61, 127
2, 107705, Note_on_c, 11, 70, 127
2, 107864, Note_off_c, 1, 61, 127
2, 107866, Note_on_c, 11, 58, 127
2, 108025, Note_off_c, 11, 58, 127
2, 108027, Note_on_c, 0, 60, 127
2, 108129, Note_off_c, 11, 70, 127
2, 108188, Note_on_c, 7, 67, 127
2, 108347, Note_off_c, 7, 67, 127
2, 108350, Note_on_c, 8, 68, 127
2, 108509, Note_off_c, 8, 68, 127
2, 108511, Note_on_c, 6, 78, 127
2, 108670, Note_off_c, 6, 78, 127
2, 108672, Note_on_c, 4, 76, 127
2, 108829, Note_off_c, 0, 60, 127
2, 108831, Note_off_c, 4, 76, 127
2, 108833, Note_on_c, 11, 58, 127
2, 108833, Note_on_c, 5, 77, 127
2, 108992, Note_off_c, 5, 77, 127
2, 108992, Note_off_c, 11, 58, 127
2, 108994, Note_on_c, 0, 60, 127
2, 108994, Note_on_c, 8, 68, 127
2, 109153, Note_off_c, 0, 60, 127
2, 109154, Note_on_c, 8, 56, 127
2, 109313, Note_off_c, 8, 56, 127
2, 109315, Note_on_c, 11, 58, 127
2, 109418, Note_off_c, 8, 68, 127
2, 109474, Note_off_c, 11, 58, 127
2, 109476, Note_on_c, 8, 56, 127
2, 109476, Note_on_c, 5, 65, 127
2, 109635, Note_off_c, 5, 65, 127
2, 109635, Note_off_c, 8, 56, 127
2, 109637, Note_on_c, 11, 58, 127
2, 109637, Note_on_c, 7, 67, 127
2, 109796, Note_off_c, 7, 67, 127
2, 109796, Note_off_c, 11, 58, 127
2, 109799, Note_on_c, 7, 55, 127
2, 109799, Note_on_c, 5, 77, 127
2, 109958, Note_off_c, 5, 77, 127
2, 109958, Note_off_c, 7, 55, 127
2, 109960, Note_on_c, 0, 60, 127
2, 109960, Note_on_c, 4, 76, 127
2, 110119, Note_off_c, 4, 76, 127
2, 110121, Note_on_c, 11, 82, 127
2, 110280, Note_off_c, 11, 82, 127
2, 110280, Note_off_c, 0, 60, 127
2, 110282, Note_on_c, 0, 48, 127
2, 110282, Note_on_c, 8, 80, 127
2, 110441, Note_off_c, 8, 80, 127
2, 110443, Note_on_c, 4, 76, 127
2, 110602, Note_off_c, 4, 76, 127
2, 110602, Note_off_c, 0, 48, 127
2, 110604, Note_on_c, 5, 53, 127
2, 110604, Note_on_c, 5, 77, 127
2, 110766, Note_on_c, 11, 70, 127
2, 110925, Note_off_c, 11, 70, 127
2, 110928, Note_on_c, 0, 72, 127
2, 111087, Note_off_c, 0, 72, 127
2, 111089, Note_on_c, 7, 67, 127
2, 111248, Note_off_c, 7, 67, 127
2, 111250, Note_on_c, 8, 68, 127
2, 111408, Note_off_c, 5, 53, 127
2, 111410, Note_off_c, 5, 77, 127
2, 111411, Note_on_c, 3, 63, 127
2, 111570, Note_off_c, 3, 63, 127
2, 111571, Note_on_c, 5, 65, 127
2, 111730, Note_off_c, 5, 65, 127
2, 111731, Note_off_c, 8, 68, 127
2, 111732, Note_on_c, 0, 60, 127
2, 111732, Note_on_c, 5, 77, 127
2, 111891, Note_off_c, 5, 77, 127
2, 111891, Note_off_c, 0, 60, 127
2, 111893, Note_on_c, 2, 62, 127
2, 111893, Note_on_c, 11, 70, 127
2, 112052, Note_off_c, 11, 70, 127
2, 112052, Note_off_c, 2, 62, 127
2, 112054, Note_on_c, 0, 60, 127
2, 112054, Note_on_c, 8, 68, 127
2, 112213, Note_off_c, 8, 68, 127
2, 112213, Note_off_c, 0, 60, 127
2, 112215, Note_on_c, 2, 62, 127
2, 112215, Note_on_c, 11, 70, 127
2, 112374, Note_off_c, 11, 70, 127
2, 112374, Note_off_c, 2, 62, 127
2, 112377, Note_on_c, 5, 65, 127
2, 112377, Note_on_c, 2, 74, 127
2, 112536, Note_off_c, 2, 74, 127
2, 112536, Note_off_c, 5, 65, 127
2, 112538, Note_on_c, 8, 56, 127
2, 112538, Note_on_c, 5, 77, 127
2, 112697, Note_off_c, 8, 56, 127
2, 112699, Note_on_c, 0, 60, 127
2, 112858, Note_off_c, 0, 60, 127
2, 112860, Note_on_c, 11, 58, 127
2, 113019, Note_off_c, 11, 58, 127
2, 113021, Note_on_c, 8, 56, 127
2, 113180, Note_off_c, 8, 56, 127
2, 113181, Note_on_c, 7, 55, 127
2, 113312, Note_off_c, 5, 77, 127
2, 113340, Note_off_c, 7, 55, 127
2, 113342, Note_on_c, 5, 53, 127
2, 113342, Note_on_c, 2, 74, 127
2, 113501, Note_off_c, 2, 74, 127
2, 113501, Note_off_c, 5, 53, 127
2, 113503, Note_on_c, 7, 55, 127
2, 113503, Note_on_c, 3, 75, 127
2, 113662, Note_off_c, 3, 75, 127
2, 113662, Note_off_c, 7, 55, 127
2, 113664, Note_on_c, 11, 58, 127
2, 113664, Note_on_c, 7, 79, 127
2, 113823, Note_off_c, 7, 79, 127
2, 113823, Note_off_c, 11, 58, 127
2, 113826, Note_on_c, 1, 49, 127
2, 113826, Note_on_c, 11, 82, 127
2, 113985, Note_off_c, 1, 49, 127
2, 113987, Note_on_c, 5, 53, 127
2, 114146, Note_off_c, 5, 53, 127
2, 114148, Note_on_c, 3, 51, 127
2, 114265, Note_off_c, 11, 82, 127
2, 114308, Note_off_c, 3, 51, 127
2, 114310, Note_on_c, 1, 49, 127
2, 114310, Note_on_c, 5, 77, 127
2, 114469, Note_off_c, 5, 77, 127
2, 114469, Note_off_c, 1, 49, 127
2, 114471, Note_on_c, 0, 48, 127
2, 114471, Note_on_c, 4, 76, 127
2, 114630, Note_off_c, 4, 76, 127
2, 114630, Note_off_c, 0, 48, 127
2, 114632, Note_on_c, 11, 46, 127
2, 114632, Note_on_c, 2, 74, 127
2, 114791, Note_off_c, 2, 74, 127
2, 114791, Note_off_c, 11, 46, 127
2, 114793, Note_on_c, 0, 48, 127
2, 114793, Note_on_c, 4, 76, 127
2, 114952, Note_off_c, 4, 76, 127
2, 114952, Note_off_c, 0, 48, 127
2, 114954, Note_on_c, 4, 52, 127
2, 114954, Note_on_c, 7, 79, 127
2, 115113, Note_off_c, 7, 79, 127
2, 115113, Note_off_c, 4, 52, 127
2, 115116, Note_on_c, 7, 55, 127
2, 115116, Note_on_c, 11, 70, 127
2, 115275, Note_off_c, 11, 70, 127
2, 115277, Note_on_c, 1, 73, 127
2, 115436, Note_off_c, 1, 73, 127
2, 115438, Note_on_c, 0, 72, 127
2, 115597, Note_off_c, 0, 72, 127
2, 115599, Note_on_c, 11, 70, 127
2, 115758, Note_off_c, 11, 70, 127
2, 115759, Note_on_c, 8, 68, 127
2, 115819, Note_off_c, 7, 55, 127
2, 115919, Note_off_c, 8, 68, 127
2, 115922, Note_on_c, 4, 52, 127
2, 115922, Note_on_c, 7, 67, 127
2, 116081, Note_off_c, 7, 67, 127
2, 116081, Note_off_c, 4, 52, 127
2, 116083, Note_on_c, 5, 53, 127
2, 116083, Note_on_c, 8, 68, 127
2, 116242, Note_off_c, 8, 68, 127
2, 116242, Note_off_c, 5, 53, 127
2, 116244, Note_on_c, 8, 56, 127
2, 116244, Note_on_c, 0, 72, 127
2, 116403, Note_off_c, 0, 72, 127
2, 116403, Note_off_c, 8, 56, 127
2, 116406, Note_on_c, 0, 60, 127
2, 116406, Note_on_c, 3, 63, 127
2, 116565, Note_off_c, 3, 63, 127
2, 116566, Note_on_c, 7, 67, 127
2, 116725, Note_off_c, 7, 67, 127
2, 116727, Note_on_c, 5, 65, 127
2, 116842, Note_off_c, 0, 60, 127
2, 116887, Note_off_c, 5, 65, 127
2, 116890, Note_on_c, 7, 55, 127
2, 116890, Note_on_c, 3, 63, 127
2, 117049, Note_off_c, 3, 63, 127
2, 117049, Note_off_c, 7, 55, 127
2, 117051, Note_on_c, 5, 53, 127
2, 117051, Note_on_c, 2, 62, 127
2, 117210, Note_off_c, 2, 62, 127
2, 117210, Note_off_c, 5, 53, 127
2, 117212, Note_on_c, 8, 56, 127
2, 117212, Note_on_c, 5, 65, 127
2, 117371, Note_off_c, 5, 65, 127
2, 117371, Note_off_c, 8, 56, 127
2, 117373, Note_on_c, 5, 53, 127
2, 117373, Note_on_c, 8, 68, 127
2, 117532, Note_off_c, 8, 68, 127
2, 117532, Note_off_c, 5, 53, 127
2, 117533, Note_on_c, 2, 50, 127
2, 117533, Note_on_c, 0, 72, 127
2, 117692, Note_off_c, 2, 50, 127
2, 117695, Note_on_c, 7, 43, 127
2, 117784, Note_off_c, 0, 72, 127
2, 117856, Note_on_c, 2, 62, 127
2, 118015, Note_off_c, 2, 62, 127
2, 118017, Note_on_c, 11, 70, 127
2, 118146, Note_off_c, 7, 43, 127
2, 118176, Note_off_c, 11, 70, 127
2, 118178, Note_on_c, 5, 53, 127
2, 118178, Note_on_c, 8, 68, 127
2, 118337, Note_off_c, 8, 68, 127
2, 118337, Note_off_c, 5, 53, 127
2, 118339, Note_on_c, 7, 55, 127
2, 118339, Note_on_c, 11, 70, 127
2, 118498, Note_off_c, 11, 70, 127
2, 118498, Note_off_c, 7, 55, 127
2, 118500, Note_on_c, 11, 58, 127
2, 118500, Note_on_c, 7, 67, 127
2, 118659, Note_off_c, 7, 67, 127
2, 118659, Note_off_c, 11, 58, 127
2, 118661, Note_on_c, 7, 55, 127
2, 118661, Note_on_c, 3, 63, 127
2, 118820, Note_off_c, 3, 63, 127
2, 118820, Note_off_c, 7, 55, 127
2, 118822, Note_on_c, 3, 51, 127
2, 118822, Note_on_c, 1, 61, 127
2, 118981, Note_off_c, 3, 51, 127
2, 118984, Note_on_c, 8, 44, 127
2, 119073, Note_off_c, 1, 61, 127
2, 119144, Note_on_c, 11, 70, 127
2, 119303, Note_off_c, 11, 70, 127
2, 119305, Note_on_c, 0, 60, 127
2, 119435, Note_off_c, 8, 44, 127
2, 119464, Note_off_c, 0, 60, 127
2, 119466, Note_on_c, 7, 55, 127
2, 119466, Note_on_c, 1, 61, 127
2, 119625, Note_off_c, 1, 61, 127
2, 119625, Note_off_c, 7, 55, 127
2, 119627, Note_on_c, 8, 56, 127
2, 119627, Note_on_c, 0, 60, 127
2, 119786, Note_off_c, 0, 60, 127
2, 119786, Note_off_c, 8, 56, 127
2, 119788, Note_on_c, 7, 55, 127
2, 119788, Note_on_c, 11, 58, 127
2, 119947, Note_off_c, 11, 58, 127
2, 119947, Note_off_c, 7, 55, 127
2, 119949, Note_on_c, 8, 56, 127
2, 119949, Note_on_c, 0, 60, 127
2, 120108, Note_off_c, 0, 60, 127
2, 120108, Note_off_c, 8, 56, 127
2, 120110, Note_on_c, 0, 60, 127
2, 120110, Note_on_c, 3, 63, 127
2, 120269, Note_off_c, 3, 63, 127
2, 120269, Note_off_c, 0, 60, 127
2, 120271, Note_on_c, 5, 53, 127
2, 120271, Note_on_c, 8, 68, 127
2, 120430, Note_off_c, 5, 53, 127
2, 120433, Note_on_c, 8, 56, 127
2, 120592, Note_off_c, 8, 56, 127
2, 120594, Note_on_c, 0, 48, 127
2, 120753, Note_off_c, 0, 48, 127
2, 120754, Note_on_c, 3, 51, 127
2, 120913, Note_off_c, 3, 51, 127
2, 120915, Note_on_c, 2, 50, 127
2, 121073, Note_off_c, 8, 68, 127
2, 121074, Note_off_c, 2, 50, 127
2, 121076, Note_on_c, 3, 51, 127
2, 121076, Note_on_c, 7, 67, 127
2, 121235, Note_off_c, 7, 67, 127
2, 121235, Note_off_c, 3, 51, 127
2, 121237, Note_on_c, 5, 53, 127
2, 121237, Note_on_c, 8, 68, 127
2, 121396, Note_off_c, 8, 68, 127
2, 121396, Note_off_c, 5, 53, 127
2, 121398, Note_on_c, 2, 50, 127
2, 121398, Note_on_c, 5, 77, 127
2, 121557, Note_off_c, 5, 77, 127
2, 121557, Note_off_c, 2, 50, 127
2, 121559, Note_on_c, 11, 46, 127
2, 121559, Note_on_c, 3, 75, 127
2, 121718, Note_off_c, 3, 75, 127
2, 121720, Note_on_c, 2, 74, 127
2, 121879, Note_off_c, 2, 74, 127
2, 121882, Note_on_c, 0, 72, 127
2, 121927, Note_off_c, 11, 46, 127
2, 122042, Note_off_c, 0, 72, 127
2, 122044, Note_on_c, 2, 50, 127
2, 122044, Note_on_c, 11, 70, 127
2, 122203, Note_off_c, 11, 70, 127
2, 122203, Note_off_c, 2, 50, 127
2, 122205, Note_on_c, 3, 51, 127
2, 122205, Note_on_c, 8, 68, 127
2, 122364, Note_off_c, 8, 68, 127
2, 122364, Note_off_c, 3, 51, 127
2, 122366, Note_on_c, 2, 50, 127
2, 122366, Note_on_c, 5, 65, 127
2, 122525, Note_off_c, 5, 65, 127
2, 122525, Note_off_c, 2, 50, 127
2, 122527, Note_on_c, 3, 51, 127
2, 122527, Note_on_c, 7, 67, 127
2, 122686, Note_off_c, 7, 67, 127
2, 122686, Note_off_c, 3, 51, 127
2, 122688, Note_on_c, 7, 55, 127
2, 122688, Note_on_c, 11, 70, 127
2, 122847, Note_off_c, 11, 70, 127
2, 122847, Note_off_c, 7, 55, 127
2, 122849, Note_on_c, 11, 58, 127
2, 122849, Note_on_c, 3, 75, 127
2, 123008, Note_off_c, 3, 75, 127
2, 123010, Note_on_c, 11, 70, 127
2, 123169, Note_off_c, 11, 70, 127
2, 123171, Note_on_c, 7, 79, 127
2, 123250, Note_off_c, 11, 58, 127
2, 123330, Note_off_c, 7, 79, 127
2, 123332, Note_on_c, 3, 51, 127
2, 123332, Note_on_c, 10, 69, 127
2, 123491, Note_off_c, 10, 69, 127
2, 123491, Note_off_c, 3, 51, 127
2, 123493, Note_on_c, 2, 50, 127
2, 123493, Note_on_c, 11, 70, 127
2, 123652, Note_off_c, 11, 70, 127
2, 123652, Note_off_c, 2, 50, 127
2, 123654, Note_on_c, 0, 48, 127
2, 123654, Note_on_c, 10, 69, 127
2, 123813, Note_off_c, 10, 69, 127
2, 123813, Note_off_c, 0, 48, 127
2, 123815, Note_on_c, 2, 50, 127
2, 123815, Note_on_c, 11, 70, 127
2, 123974, Note_off_c, 11, 70, 127
2, 123974, Note_off_c, 2, 50, 127
2, 123976, Note_on_c, 5, 53, 127
2, 123976, Note_on_c, 2, 74, 127
2, 124135, Note_off_c, 2, 74, 127
2, 124135, Note_off_c, 5, 53, 127
2, 124137, Note_on_c, 8, 44, 127
2, 124137, Note_on_c, 5, 77, 127
2, 124296, Note_off_c, 5, 77, 127
2, 124296, Note_off_c, 8, 44, 127
2, 124298, Note_on_c, 0, 48, 127
2, 124298, Note_on_c, 7, 79, 127
2, 124457, Note_off_c, 7, 79, 127
2, 124457, Note_off_c, 0, 48, 127
2, 124459, Note_on_c, 11, 46, 127
2, 124459, Note_on_c, 8, 80, 127
2, 124618, Note_off_c, 8, 80, 127
2, 124618, Note_off_c, 11, 46, 127
2, 124621, Note_on_c, 8, 44, 127
2, 124621, Note_on_c, 0, 84, 127
2, 124780, Note_off_c, 0, 84, 127
2, 124780, Note_off_c, 8, 44, 127
2, 124781, Note_on_c, 7, 43, 127
2, 124781, Note_on_c, 11, 82, 127
2, 124940, Note_off_c, 11, 82, 127
2, 124940, Note_off_c, 7, 43, 127
2, 124942, Note_on_c, 2, 38, 127
2, 124942, Note_on_c, 5, 77, 127
2, 125101, Note_off_c, 5, 77, 127
2, 125101, Note_off_c, 2, 38, 127
2, 125103, Note_on_c, 3, 39, 127
2, 125103, Note_on_c, 7, 79, 127
2, 125262, Note_off_c, 3, 39, 127
2, 125264, Note_on_c, 0, 48, 127
2, 125423, Note_off_c, 0, 48, 127
2, 125425, Note_on_c, 11, 46, 127
2, 125504, Note_off_c, 7, 79, 127
2, 125584, Note_off_c, 11, 46, 127
2, 125586, Note_on_c, 5, 41, 127
2, 125586, Note_on_c, 2, 74, 127
2, 125745, Note_off_c, 2, 74, 127
2, 125745, Note_off_c, 5, 41, 127
2, 125747, Note_on_c, 7, 43, 127
2, 125747, Note_on_c, 3, 75, 127
2, 125906, Note_off_c, 3, 75, 127
2, 125906, Note_off_c, 7, 43, 127
2, 125908, Note_on_c, 3, 51, 127
2, 125908, Note_on_c, 7, 79, 127
2, 126067, Note_off_c, 7, 79, 127
2, 126067, Note_off_c, 3, 51, 127
2, 126070, Note_on_c, 2, 50, 127
2, 126070, Note_on_c, 5, 77, 127
2, 126229, Note_off_c, 5, 77, 127
2, 126229, Note_off_c, 2, 50, 127
2, 126231, Note_on_c, 10, 45, 127
2, 126231, Note_on_c, 0, 72, 127
2, 126390, Note_off_c, 0, 72, 127
2, 126390, Note_off_c, 10, 45, 127
2, 126391, Note_on_c, 11, 46, 127
2, 126391, Note_on_c, 2, 74, 127
2, 126550, Note_off_c, 11, 46, 127
2, 126552, Note_on_c, 7, 55, 127
2, 126711, Note_off_c, 7, 55, 127
2, 126713, Note_on_c, 5, 53, 127
2, 126792, Note_off_c, 2, 74, 127
2, 126872, Note_off_c, 5, 53, 127
2, 126874, Note_on_c, 0, 48, 127
2, 126874, Note_on_c, 10, 69, 127
2, 127033, Note_off_c, 10, 69, 127
2, 127033, Note_off_c, 0, 48, 127
2, 127035, Note_on_c, 2, 50, 127
2, 127035, Note_on_c, 11, 70, 127
2, 127194, Note_off_c, 11, 70, 127
2, 127194, Note_off_c, 2, 50, 127
2, 127196, Note_on_c, 8, 56, 127
2, 127196, Note_on_c, 5, 77, 127
2, 127355, Note_off_c, 5, 77, 127
2, 127355, Note_off_c, 8, 56, 127
2, 127358, Note_on_c, 7, 55, 127
2, 127358, Note_on_c, 3, 75, 127
2, 127466, Note_off_c, 3, 75, 127
2, 127466, Note_off_c, 7, 55, 127
2, 127468, Note_on_c, 5, 77, 127
2, 127468, Note_on_c, 5, 53, 127
2, 127576, Note_off_c, 5, 53, 127
2, 127576, Note_off_c, 5, 77, 127
2, 127578, Note_on_c, 7, 79, 127
2, 127578, Note_on_c, 3, 51, 127
2, 127686, Note_off_c, 3, 51, 127
2, 127686, Note_off_c, 7, 79, 127
2, 127687, Note_on_c, 0, 60, 127
2, 127687, Note_on_c, 8, 68, 127
2, 127851, Note_off_c, 8, 68, 127
2, 127851, Note_off_c, 0, 60, 127
2, 127854, Note_on_c, 8, 56, 127
2, 127854, Note_on_c, 5, 77, 127
2, 128018, Note_off_c, 5, 77, 127
2, 128018, Note_off_c, 8, 56, 127
2, 128020, Note_on_c, 11, 58, 127
2, 128020, Note_on_c, 7, 67, 127
2, 128190, Note_off_c, 7, 67, 127
2, 128192, Note_on_c, 3, 75, 127
2, 128362, Note_off_c, 3, 75, 127
2, 128362, Note_off_c, 11, 58, 127
2, 128365, Note_on_c, 11, 46, 127
2, 128365, Note_on_c, 5, 65, 127
2, 128535, Note_off_c, 5, 65, 127
2, 128537, Note_on_c, 2, 74, 127
2, 128707, Note_off_c, 2, 74, 127
2, 128707, Note_off_c, 11, 46, 127
2, 128710, Note_on_c, 3, 51, 127
2, 128710, Note_on_c, 3, 75, 127
2, 128882, Note_on_c, 8, 68, 127
2, 129052, Note_off_c, 8, 68, 127
2, 129055, Note_on_c, 11, 70, 127
2, 129244, Note_on_c, 5, 65, 127
2, 129267, Note_off_c, 11, 70, 127
2, 129414, Note_off_c, 5, 65, 127
2, 129417, Note_on_c, 7, 67, 127
2, 129622, Note_on_c, 11, 58, 127
2, 129624, Note_off_c, 3, 51, 127
2, 129874, Note_off_c, 11, 58, 127
2, 129969, Note_on_c, 3, 63, 127
2, 130781, Note_off_c, 3, 75, 127
2, 130809, Note_off_c, 7, 67, 127
2, 132043, Note_off_c, 3, 63, 127
2, 132483, Note_on_c, 7, 67, 127
2, 132644, Note_off_c, 7, 67, 127
2, 132646, Note_on_c, 11, 58, 127
2, 132646, Note_on_c, 3, 51, 127
2, 132809, Note_on_c, 3, 63, 127
2, 132971, Note_on_c, 7, 67, 127
2, 132971, Note_on_c, 11, 46, 127
2, 133296, Note_off_c, 11, 46, 127
2, 133298, Note_on_c, 7, 43, 127
2, 133623, Note_off_c, 7, 43, 127
2, 133626, Note_on_c, 3, 39, 127
2, 133665, Note_off_c, 11, 58, 127
2, 133670, Note_off_c, 3, 63, 127
2, 133786, Note_off_c, 7, 67, 127
2, 133788, Note_on_c, 5, 65, 127
2, 133949, Note_off_c, 5, 65, 127
2, 133949, Note_off_c, 3, 39, 127
2, 133949, Note_off_c, 3, 51, 127
2, 133951, Note_on_c, 7, 67, 127
2, 133951, Note_on_c, 3, 51, 127
2, 134112, Note_off_c, 7, 67, 127
2, 134114, Note_on_c, 8, 68, 127
2, 134274, Note_off_c, 3, 51, 127
2, 134275, Note_off_c, 8, 68, 127
2, 134277, Note_on_c, 11, 70, 127
2, 134277, Note_on_c, 5, 53, 127
2, 134357, Note_off_c, 11, 70, 127
2, 134359, Note_on_c, 8, 68, 127
2, 134439, Note_off_c, 8, 68, 127
2, 134441, Note_on_c, 7, 67, 127
2, 134521, Note_off_c, 7, 67, 127
2, 134523, Note_on_c, 8, 68, 127
2, 134603, Note_off_c, 8, 68, 127
2, 134604, Note_off_c, 5, 53, 127
2, 134605, Note_on_c, 11, 58, 127
2, 134605, Note_on_c, 7, 55, 127
2, 134768, Note_on_c, 3, 63, 127
2, 134931, Note_on_c, 7, 67, 127
2, 134931, Note_on_c, 3, 51, 127
2, 135093, Note_on_c, 11, 70, 127
2, 135254, Note_off_c, 3, 51, 127
2, 135256, Note_on_c, 11, 46, 127
2, 135581, Note_off_c, 11, 46, 127
2, 135583, Note_on_c, 7, 43, 127
2, 135623, Note_off_c, 11, 58, 127
2, 135625, Note_off_c, 3, 63, 127
2, 135626, Note_off_c, 7, 67, 127
2, 135744, Note_off_c, 11, 70, 127
2, 135746, Note_on_c, 8, 68, 127
2, 135905, Note_off_c, 7, 43, 127
2, 135907, Note_off_c, 8, 68, 127
2, 135907, Note_off_c, 7, 55, 127
2, 135909, Note_on_c, 11, 70, 127
2, 135909, Note_on_c, 7, 55, 127
2, 136070, Note_off_c, 11, 70, 127
2, 136071, Note_on_c, 0, 72, 127
2, 136232, Note_off_c, 0, 72, 127
2, 136232, Note_off_c, 7, 55, 127
2, 136234, Note_on_c, 11, 70, 127
2, 136234, Note_on_c, 8, 56, 127
2, 136395, Note_off_c, 11, 70, 127
2, 136397, Note_on_c, 0, 72, 127
2, 136557, Note_off_c, 8, 56, 127
2, 136558, Note_off_c, 0, 72, 127
2, 136560, Note_on_c, 2, 62, 127
2, 136560, Note_on_c, 11, 58, 127
2, 136721, Note_off_c, 2, 62, 127
2, 136722, Note_on_c, 3, 63, 127
2, 136883, Note_off_c, 3, 63, 127
2, 136885, Note_on_c, 5, 65, 127
2, 136885, Note_on_c, 5, 53, 127
2, 137046, Note_off_c, 5, 65, 127
2, 137048, Note_on_c, 7, 67, 127
2, 137208, Note_off_c, 5, 53, 127
2, 137209, Note_off_c, 7, 67, 127
2, 137211, Note_on_c, 5, 65, 127
2, 137211, Note_on_c, 2, 50, 127
2, 137372, Note_off_c, 5, 65, 127
2, 137373, Note_on_c, 7, 67, 127
2, 137534, Note_off_c, 7, 67, 127
2, 137534, Note_off_c, 2, 50, 127
2, 137536, Note_on_c, 8, 68, 127
2, 137536, Note_on_c, 11, 46, 127
2, 137697, Note_off_c, 8, 68, 127
2, 137699, Note_on_c, 7, 67, 127
2, 137860, Note_off_c, 7, 67, 127
2, 137860, Note_off_c, 11, 58, 127
2, 137862, Note_on_c, 8, 68, 127
2, 137862, Note_on_c, 5, 53, 127
2, 138023, Note_off_c, 8, 68, 127
2, 138024, Note_on_c, 0, 72, 127
2, 138185, Note_off_c, 0, 72, 127
2, 138185, Note_off_c, 5, 53, 127
2, 138187, Note_on_c, 11, 70, 127
2, 138187, Note_on_c, 2, 50, 127
2, 138348, Note_off_c, 11, 70, 127
2, 138350, Note_on_c, 8, 68, 127
2, 138510, Note_off_c, 2, 50, 127
2, 138510, Note_off_c, 11, 46, 127
2, 138511, Note_off_c, 8, 68, 127
2, 138513, Note_on_c, 11, 58, 127
2, 138513, Note_on_c, 3, 51, 127
2, 138675, Note_on_c, 3, 63, 127
2, 138838, Note_on_c, 7, 67, 127
2, 138838, Note_on_c, 11, 46, 127
2, 139163, Note_off_c, 11, 46, 127
2, 139165, Note_on_c, 7, 43, 127
2, 139490, Note_off_c, 7, 43, 127
2, 139492, Note_on_c, 3, 39, 127
2, 139532, Note_off_c, 11, 58, 127
2, 139533, Note_off_c, 3, 63, 127
2, 139653, Note_off_c, 7, 67, 127
2, 139655, Note_on_c, 7, 67, 127
2, 139815, Note_off_c, 3, 39, 127
2, 139816, Note_off_c, 7, 67, 127
2, 139816, Note_off_c, 3, 51, 127
2, 139818, Note_on_c, 8, 68, 127
2, 139818, Note_on_c, 3, 51, 127
2, 139979, Note_off_c, 8, 68, 127
2, 139981, Note_on_c, 11, 70, 127
2, 140141, Note_off_c, 3, 51, 127
2, 140142, Note_off_c, 11, 70, 127
2, 140143, Note_on_c, 0, 72, 127
2, 140143, Note_on_c, 2, 50, 127
2, 140304, Note_off_c, 0, 72, 127
2, 140306, Note_on_c, 2, 74, 127
2, 140466, Note_off_c, 2, 50, 127
2, 140467, Note_off_c, 2, 74, 127
2, 140469, Note_on_c, 7, 67, 127
2, 140469, Note_on_c, 0, 48, 127
2, 140632, Note_on_c, 0, 72, 127
2, 140794, Note_on_c, 3, 75, 127
2, 140794, Note_on_c, 3, 51, 127
2, 141119, Note_off_c, 3, 51, 127
2, 141121, Note_on_c, 7, 55, 127
2, 141446, Note_off_c, 7, 55, 127
2, 141448, Note_on_c, 0, 60, 127
2, 141488, Note_off_c, 7, 67, 127
2, 141490, Note_off_c, 0, 72, 127
2, 141609, Note_off_c, 3, 75, 127
2, 141611, Note_on_c, 5, 77, 127
2, 141772, Note_off_c, 5, 77, 127
2, 141772, Note_off_c, 0, 48, 127
2, 141774, Note_on_c, 7, 79, 127
2, 141774, Note_on_c, 0, 48, 127
2, 141935, Note_off_c, 7, 79, 127
2, 141937, Note_on_c, 3, 75, 127
2, 142097, Note_off_c, 0, 48, 127
2, 142098, Note_off_c, 3, 75, 127
2, 142099, Note_on_c, 2, 74, 127
2, 142099, Note_on_c, 3, 51, 127
2, 142260, Note_off_c, 2, 74, 127
2, 142262, Note_on_c, 0, 72, 127
2, 142422, Note_off_c, 3, 51, 127
2, 142422, Note_off_c, 0, 60, 127
2, 142423, Note_off_c, 0, 72, 127
2, 142425, Note_on_c, 0, 60, 127
2, 142425, Note_on_c, 5, 53, 127
2, 142588, Note_on_c, 5, 65, 127
2, 142750, Note_on_c, 10, 69, 127
2, 142750, Note_on_c, 0, 48, 127
2, 143075, Note_off_c, 0, 48, 127
2, 143077, Note_on_c, 10, 45, 127
2, 143402, Note_off_c, 10, 45, 127
2, 143404, Note_on_c, 5, 41, 127
2, 143444, Note_off_c, 0, 60, 127
2, 143446, Note_off_c, 5, 65, 127
2, 143565, Note_off_c, 10, 69, 127
2, 143567, Note_on_c, 0, 72, 127
2, 143727, Note_off_c, 5, 41, 127
2, 143728, Note_off_c, 0, 72, 127
2, 143728, Note_off_c, 5, 53, 127
2, 143730, Note_on_c, 2, 74, 127
2, 143730, Note_on_c, 5, 53, 127
2, 143891, Note_off_c, 2, 74, 127
2, 143893, Note_on_c, 3, 75, 127
2, 144053, Note_off_c, 5, 53, 127
2, 144054, Note_off_c, 3, 75, 127
2, 144055, Note_on_c, 2, 74, 127
2, 144055, Note_on_c, 3, 51, 127
2, 144216, Note_off_c, 2, 74, 127
2, 144218, Note_on_c, 3, 75, 127
2, 144378, Note_off_c, 3, 51, 127
2, 144379, Note_off_c, 3, 75, 127
2, 144381, Note_on_c, 5, 65, 127
2, 144381, Note_on_c, 2, 50, 127
2, 144544, Note_on_c, 11, 70, 127
2, 144706, Note_on_c, 2, 74, 127
2, 144706, Note_on_c, 5, 53, 127
2, 144869, Note_on_c, 5, 77, 127
2, 145029, Note_off_c, 5, 53, 127
2, 145032, Note_on_c, 11, 58, 127
2, 145357, Note_off_c, 11, 58, 127
2, 145359, Note_on_c, 2, 62, 127
2, 145399, Note_off_c, 5, 65, 127
2, 145401, Note_off_c, 2, 74, 127
2, 145401, Note_off_c, 11, 70, 127
2, 145520, Note_off_c, 5, 77, 127
2, 145522, Note_on_c, 3, 75, 127
2, 145682, Note_off_c, 2, 62, 127
2, 145683, Note_off_c, 3, 75, 127
2, 145683, Note_off_c, 2, 50, 127
2, 145685, Note_on_c, 2, 74, 127
2, 145685, Note_on_c, 5, 53, 127
2, 145846, Note_off_c, 2, 74, 127
2, 145847, Note_on_c, 5, 77, 127
2, 146008, Note_off_c, 5, 77, 127
2, 146008, Note_off_c, 5, 53, 127
2, 146010, Note_on_c, 11, 70, 127
2, 146010, Note_on_c, 2, 50, 127
2, 146171, Note_off_c, 11, 70, 127
2, 146173, Note_on_c, 8, 68, 127
2, 146333, Note_off_c, 2, 50, 127
2, 146334, Note_off_c, 8, 68, 127
2, 146336, Note_on_c, 11, 58, 127
2, 146336, Note_on_c, 3, 51, 127
2, 146498, Note_on_c, 3, 63, 127
2, 146661, Note_on_c, 7, 67, 127
2, 146661, Note_on_c, 11, 46, 127
2, 146986, Note_off_c, 11, 46, 127
2, 146988, Note_on_c, 7, 43, 127
2, 147313, Note_off_c, 7, 43, 127
2, 147315, Note_on_c, 3, 39, 127
2, 147355, Note_off_c, 11, 58, 127
2, 147356, Note_off_c, 3, 63, 127
2, 147476, Note_off_c, 7, 67, 127
2, 147478, Note_on_c, 7, 67, 127
2, 147638, Note_off_c, 3, 39, 127
2, 147639, Note_off_c, 7, 67, 127
2, 147639, Note_off_c, 3, 51, 127
2, 147641, Note_on_c, 10, 69, 127
2, 147641, Note_on_c, 3, 51, 127
2, 147802, Note_off_c, 10, 69, 127
2, 147803, Note_on_c, 11, 70, 127
2, 147964, Note_off_c, 11, 70, 127
2, 147964, Note_off_c, 3, 51, 127
2, 147966, Note_on_c, 0, 72, 127
2, 147966, Note_on_c, 2, 50, 127
2, 148127, Note_off_c, 0, 72, 127
2, 148129, Note_on_c, 2, 74, 127
2, 148289, Note_off_c, 2, 50, 127
2, 148290, Note_off_c, 2, 74, 127
2, 148292, Note_on_c, 3, 75, 127
2, 148292, Note_on_c, 0, 48, 127
2, 148453, Note_off_c, 3, 75, 127
2, 148454, Note_on_c, 2, 74, 127
2, 148615, Note_off_c, 2, 74, 127
2, 148617, Note_on_c, 3, 75, 127
2, 148617, Note_on_c, 3, 51, 127
2, 148778, Note_off_c, 3, 75, 127
2, 148780, Note_on_c, 7, 79, 127
2, 148940, Note_off_c, 3, 51, 127
2, 148941, Note_off_c, 7, 79, 127
2, 148943, Note_on_c, 2, 74, 127
2, 148943, Note_on_c, 7, 55, 127
2, 149104, Note_off_c, 2, 74, 127
2, 149105, Note_on_c, 7, 79, 127
2, 149266, Note_off_c, 7, 79, 127
2, 149266, Note_off_c, 7, 55, 127
2, 149268, Note_on_c, 0, 72, 127
2, 149268, Note_on_c, 0, 60, 127
2, 149429, Note_off_c, 0, 72, 127
2, 149431, Note_on_c, 7, 79, 127
2, 149592, Note_off_c, 7, 79, 127
2, 149592, Note_off_c, 0, 48, 127
2, 149594, Note_on_c, 11, 70, 127
2, 149594, Note_on_c, 2, 50, 127
2, 149755, Note_off_c, 11, 70, 127
2, 149756, Note_on_c, 10, 69, 127
2, 149917, Note_off_c, 10, 69, 127
2, 149917, Note_off_c, 2, 50, 127
2, 149919, Note_on_c, 11, 70, 127
2, 149919, Note_on_c, 4, 52, 127
2, 150080, Note_off_c, 11, 70, 127
2, 150082, Note_on_c, 7, 79, 127
2, 150242, Note_off_c, 4, 52, 127
2, 150243, Note_off_c, 7, 79, 127
2, 150245, Note_on_c, 10, 69, 127
2, 150245, Note_on_c, 5, 53, 127
2, 150406, Note_off_c, 10, 69, 127
2, 150407, Note_on_c, 7, 67, 127
2, 150568, Note_off_c, 7, 67, 127
2, 150568, Note_off_c, 0, 60, 127
2, 150570, Note_on_c, 10, 69, 127
2, 150570, Note_on_c, 0, 60, 127
2, 150731, Note_off_c, 10, 69, 127
2, 150733, Note_on_c, 0, 72, 127
2, 150893, Note_off_c, 0, 60, 127
2, 150894, Note_off_c, 0, 72, 127
2, 150896, Note_on_c, 7, 67, 127
2, 150896, Note_on_c, 3, 63, 127
2, 151057, Note_off_c, 7, 67, 127
2, 151058, Note_on_c, 0, 72, 127
2, 151219, Note_off_c, 0, 72, 127
2, 151219, Note_off_c, 3, 63, 127
2, 151221, Note_on_c, 5, 65, 127
2, 151221, Note_on_c, 0, 60, 127
2, 151382, Note_off_c, 5, 65, 127
2, 151384, Note_on_c, 0, 72, 127
2, 151544, Note_off_c, 0, 60, 127
2, 151545, Note_off_c, 0, 72, 127
2, 151547, Note_on_c, 3, 63, 127
2, 151547, Note_on_c, 10, 57, 127
2, 151708, Note_off_c, 3, 63, 127
2, 151709, Note_on_c, 2, 62, 127
2, 151870, Note_off_c, 2, 62, 127
2, 151872, Note_off_c, 5, 53, 127
2, 151872, Note_on_c, 3, 63, 127
2, 151872, Note_on_c, 5, 53, 127
2, 152033, Note_off_c, 3, 63, 127
2, 152035, Note_on_c, 0, 72, 127
2, 152191, Note_off_c, 10, 57, 127
2, 152195, Note_off_c, 5, 53, 127
2, 152196, Note_off_c, 0, 72, 127
2, 152198, Note_on_c, 2, 62, 127
2, 152198, Note_on_c, 11, 58, 127
2, 152359, Note_off_c, 2, 62, 127
2, 152360, Note_on_c, 0, 60, 127
2, 152521, Note_off_c, 0, 60, 127
2, 152521, Note_off_c, 11, 58, 127
2, 152523, Note_on_c, 2, 62, 127
2, 152523, Note_on_c, 7, 55, 127
2, 152684, Note_off_c, 2, 62, 127
2, 152686, Note_on_c, 5, 65, 127
2, 152846, Note_off_c, 7, 55, 127
2, 152847, Note_off_c, 5, 65, 127
2, 152849, Note_on_c, 7, 67, 127
2, 152849, Note_on_c, 3, 51, 127
2, 153010, Note_off_c, 7, 67, 127
2, 153011, Note_on_c, 10, 69, 127
2, 153172, Note_off_c, 10, 69, 127
2, 153172, Note_off_c, 3, 51, 127
2, 153174, Note_on_c, 11, 70, 127
2, 153174, Note_on_c, 0, 48, 127
2, 153335, Note_off_c, 11, 70, 127
2, 153337, Note_on_c, 0, 72, 127
2, 153497, Note_off_c, 0, 48, 127
2, 153498, Note_off_c, 0, 72, 127
2, 153500, Note_on_c, 2, 74, 127
2, 153500, Note_on_c, 5, 53, 127
2, 153661, Note_off_c, 2, 74, 127
2, 153662, Note_on_c, 11, 70, 127
2, 153823, Note_off_c, 11, 70, 127
2, 153825, Note_on_c, 10, 69, 127
2, 153825, Note_on_c, 5, 41, 127
2, 153986, Note_off_c, 10, 69, 127
2, 153988, Note_on_c, 0, 72, 127
2, 154144, Note_off_c, 5, 53, 127
2, 154148, Note_off_c, 5, 41, 127
2, 154149, Note_off_c, 0, 72, 127
2, 154151, Note_on_c, 11, 70, 127
2, 154151, Note_on_c, 11, 46, 127
2, 154313, Note_on_c, 5, 65, 127
2, 154474, Note_off_c, 5, 65, 127
2, 154476, Note_on_c, 7, 67, 127
2, 154476, Note_on_c, 3, 51, 127
2, 154637, Note_off_c, 7, 67, 127
2, 154639, Note_on_c, 3, 63, 127
2, 154800, Note_off_c, 3, 63, 127
2, 154802, Note_on_c, 0, 60, 127
2, 154802, Note_on_c, 6, 54, 127
2, 154964, Note_off_c, 11, 70, 127
2, 154964, Note_on_c, 10, 69, 127
2, 155120, Note_off_c, 3, 51, 127
2, 155124, Note_off_c, 0, 60, 127
2, 155125, Note_off_c, 10, 69, 127
2, 155125, Note_off_c, 6, 54, 127
2, 155127, Note_on_c, 2, 62, 127
2, 155127, Note_on_c, 5, 53, 127
2, 155290, Note_on_c, 5, 65, 127
2, 155453, Note_on_c, 11, 70, 127
2, 155780, Note_off_c, 11, 46, 127
2, 155941, Note_off_c, 11, 70, 127
2, 155942, Note_off_c, 2, 62, 127
2, 155942, Note_on_c, 5, 77, 127
2, 155944, Note_off_c, 5, 65, 127
2, 156103, Note_off_c, 5, 77, 127
2, 156103, Note_off_c, 5, 53, 127
2, 156105, Note_on_c, 11, 70, 127
2, 156105, Note_on_c, 11, 46, 127
2, 156268, Note_on_c, 2, 74, 127
2, 156431, Note_on_c, 5, 77, 127
2, 156431, Note_on_c, 2, 50, 127
2, 156756, Note_off_c, 2, 50, 127
2, 156758, Note_on_c, 5, 53, 127
2, 157083, Note_off_c, 5, 53, 127
2, 157085, Note_on_c, 11, 58, 127
2, 157124, Note_off_c, 11, 70, 127
2, 157126, Note_off_c, 2, 74, 127
2, 157246, Note_off_c, 5, 77, 127
2, 157248, Note_on_c, 2, 74, 127
2, 157408, Note_off_c, 11, 58, 127
2, 157408, Note_off_c, 11, 46, 127
2, 157409, Note_off_c, 2, 74, 127
2, 157410, Note_on_c, 0, 72, 127
2, 157410, Note_on_c, 11, 46, 127
2, 157571, Note_off_c, 0, 72, 127
2, 157573, Note_on_c, 11, 70, 127
2, 157733, Note_off_c, 11, 46, 127
2, 157734, Note_off_c, 11, 70, 127
2, 157736, Note_on_c, 0, 72, 127
2, 157736, Note_on_c, 8, 44, 127
2, 157897, Note_off_c, 0, 72, 127
2, 157899, Note_on_c, 2, 74, 127
2, 158059, Note_off_c, 8, 44, 127
2, 158060, Note_off_c, 2, 74, 127
2, 158061, Note_on_c, 3, 63, 127
2, 158061, Note_on_c, 7, 43, 127
2, 158224, Note_on_c, 7, 67, 127
2, 158387, Note_on_c, 11, 70, 127
2, 158387, Note_on_c, 11, 46, 127
2, 158550, Note_on_c, 3, 75, 127
2, 158710, Note_off_c, 11, 46, 127
2, 158712, Note_on_c, 3, 51, 127
2, 159037, Note_off_c, 3, 51, 127
2, 159039, Note_on_c, 7, 55, 127
2, 159079, Note_off_c, 3, 63, 127
2, 159081, Note_off_c, 7, 67, 127
2, 159082, Note_off_c, 11, 70, 127
2, 159201, Note_off_c, 3, 75, 127
2, 159202, Note_on_c, 2, 74, 127
2, 159362, Note_off_c, 7, 55, 127
2, 159363, Note_off_c, 2, 74, 127
2, 159363, Note_off_c, 7, 43, 127
2, 159365, Note_on_c, 3, 75, 127
2, 159365, Note_on_c, 5, 53, 127
2, 159526, Note_off_c, 3, 75, 127
2, 159528, Note_on_c, 5, 77, 127
2, 159688, Note_off_c, 5, 53, 127
2, 159689, Note_off_c, 5, 77, 127
2, 159690, Note_on_c, 7, 79, 127
2, 159690, Note_on_c, 3, 51, 127
2, 159851, Note_off_c, 7, 79, 127
2, 159853, Note_on_c, 3, 75, 127
2, 160013, Note_off_c, 3, 51, 127
2, 160014, Note_off_c, 3, 75, 127
2, 160016, Note_on_c, 0, 72, 127
2, 160016, Note_on_c, 8, 44, 127
2, 160177, Note_off_c, 0, 72, 127
2, 160179, Note_on_c, 12, 71, 127
2, 160339, Note_off_c, 8, 44, 127
2, 160340, Note_off_c, 12, 71, 127
2, 160341, Note_on_c, 0, 72, 127
2, 160341, Note_on_c, 8, 56, 127
2, 160502, Note_off_c, 0, 72, 127
2, 160504, Note_on_c, 3, 75, 127
2, 160664, Note_off_c, 8, 56, 127
2, 160665, Note_off_c, 3, 75, 127
2, 160667, Note_on_c, 5, 77, 127
2, 160667, Note_on_c, 7, 55, 127
2, 160828, Note_off_c, 5, 77, 127
2, 160830, Note_on_c, 7, 79, 127
2, 160990, Note_off_c, 7, 55, 127
2, 160991, Note_off_c, 7, 79, 127
2, 160992, Note_on_c, 8, 80, 127
2, 160992, Note_on_c, 5, 53, 127
2, 161153, Note_off_c, 8, 80, 127
2, 161155, Note_on_c, 5, 77, 127
2, 161315, Note_off_c, 5, 53, 127
2, 161316, Note_off_c, 5, 77, 127
2, 161318, Note_on_c, 2, 74, 127
2, 161318, Note_on_c, 3, 51, 127
2, 161479, Note_off_c, 2, 74, 127
2, 161481, Note_on_c, 3, 75, 127
2, 161641, Note_off_c, 3, 51, 127
2, 161642, Note_off_c, 3, 75, 127
2, 161643, Note_on_c, 5, 77, 127
2, 161643, Note_on_c, 2, 50, 127
2, 161804, Note_off_c, 5, 77, 127
2, 161806, Note_on_c, 2, 74, 127
2, 161966, Note_off_c, 2, 50, 127
2, 161967, Note_off_c, 2, 74, 127
2, 161969, Note_on_c, 0, 72, 127
2, 161969, Note_on_c, 7, 43, 127
2, 162130, Note_off_c, 0, 72, 127
2, 162132, Note_on_c, 12, 71, 127
2, 162292, Note_off_c, 7, 43, 127
2, 162293, Note_off_c, 12, 71, 127
2, 162294, Note_on_c, 0, 72, 127
2, 162294, Note_on_c, 7, 55, 127
2, 162455, Note_off_c, 0, 72, 127
2, 162457, Note_on_c, 2, 74, 127
2, 162617, Note_off_c, 7, 55, 127
2, 162618, Note_off_c, 2, 74, 127
2, 162620, Note_on_c, 0, 72, 127
2, 162620, Note_on_c, 10, 57, 127
2, 162781, Note_off_c, 0, 72, 127
2, 162783, Note_on_c, 12, 71, 127
2, 162943, Note_off_c, 10, 57, 127
2, 162944, Note_off_c, 12, 71, 127
2, 162945, Note_on_c, 10, 69, 127
2, 162945, Note_on_c, 12, 59, 127
2, 163106, Note_off_c, 10, 69, 127
2, 163108, Note_on_c, 7, 67, 127
2, 163268, Note_off_c, 12, 59, 127
2, 163269, Note_off_c, 7, 67, 127
2, 163271, Note_on_c, 7, 79, 127
2, 163271, Note_on_c, 0, 60, 127
2, 163351, Note_off_c, 7, 79, 127
2, 163353, Note_on_c, 5, 77, 127
2, 163433, Note_off_c, 5, 77, 127
2, 163433, Note_off_c, 0, 60, 127
2, 163435, Note_on_c, 7, 79, 127
2, 163435, Note_on_c, 12, 59, 127
2, 163596, Note_off_c, 12, 59, 127
2, 163598, Note_on_c, 10, 57, 127
2, 163758, Note_off_c, 7, 79, 127
2, 163759, Note_off_c, 10, 57, 127
2, 163761, Note_on_c, 5, 77, 127
2, 163761, Note_on_c, 7, 55, 127
2, 163922, Note_off_c, 7, 55, 127
2, 163922, Note_off_c, 5, 77, 127
2, 163923, Note_on_c, 4, 76, 127
2, 163923, Note_on_c, 0, 60, 127
2, 164084, Note_off_c, 4, 76, 127
2, 164086, Note_on_c, 2, 74, 127
2, 164246, Note_off_c, 0, 60, 127
2, 164247, Note_off_c, 2, 74, 127
2, 164249, Note_on_c, 4, 76, 127
2, 164249, Note_on_c, 0, 48, 127
2, 164410, Note_off_c, 4, 76, 127
2, 164412, Note_on_c, 5, 77, 127
2, 164572, Note_off_c, 0, 48, 127
2, 164573, Note_off_c, 5, 77, 127
2, 164574, Note_on_c, 7, 79, 127
2, 164574, Note_on_c, 2, 50, 127
2, 164735, Note_off_c, 7, 79, 127
2, 164737, Note_on_c, 4, 76, 127
2, 164897, Note_off_c, 2, 50, 127
2, 164898, Note_off_c, 4, 76, 127
2, 164900, Note_on_c, 0, 72, 127
2, 164900, Note_on_c, 4, 52, 127
2, 165061, Note_off_c, 0, 72, 127
2, 165063, Note_on_c, 4, 76, 127
2, 165223, Note_off_c, 4, 52, 127
2, 165224, Note_off_c, 4, 76, 127
2, 165225, Note_on_c, 7, 79, 127
2, 165225, Note_on_c, 2, 50, 127
2, 165386, Note_off_c, 7, 79, 127
2, 165388, Note_on_c, 11, 82, 127
2, 165548, Note_off_c, 2, 50, 127
2, 165549, Note_off_c, 11, 82, 127
2, 165551, Note_on_c, 8, 80, 127
2, 165551, Note_on_c, 0, 48, 127
2, 165712, Note_off_c, 8, 80, 127
2, 165714, Note_on_c, 7, 79, 127
2, 165874, Note_off_c, 0, 48, 127
2, 165875, Note_off_c, 7, 79, 127
2, 165876, Note_on_c, 7, 79, 127
2, 165876, Note_on_c, 5, 53, 127
2, 166037, Note_off_c, 5, 53, 127
2, 166037, Note_off_c, 7, 79, 127
2, 166039, Note_on_c, 8, 80, 127
2, 166039, Note_on_c, 4, 52, 127
2, 166119, Note_off_c, 8, 80, 127
2, 166121, Note_on_c, 7, 79, 127
2, 166201, Note_off_c, 7, 79, 127
2, 166201, Note_off_c, 4, 52, 127
2, 166203, Note_on_c, 8, 80, 127
2, 166203, Note_on_c, 5, 53, 127
2, 166364, Note_off_c, 5, 53, 127
2, 166364, Note_off_c, 8, 80, 127
2, 166366, Note_on_c, 7, 79, 127
2, 166366, Note_on_c, 7, 55, 127
2, 166527, Note_off_c, 7, 55, 127
2, 166527, Note_off_c, 7, 79, 127
2, 166529, Note_on_c, 5, 77, 127
2, 166529, Note_on_c, 8, 56, 127
2, 166690, Note_off_c, 8, 56, 127
2, 166690, Note_off_c, 5, 77, 127
2, 166692, Note_on_c, 3, 75, 127
2, 166692, Note_on_c, 5, 53, 127
2, 166853, Note_off_c, 5, 53, 127
2, 166853, Note_off_c, 3, 75, 127
2, 166854, Note_on_c, 1, 73, 127
2, 166854, Note_on_c, 11, 58, 127
2, 167015, Note_off_c, 1, 73, 127
2, 167017, Note_on_c, 0, 72, 127
2, 167177, Note_off_c, 11, 58, 127
2, 167178, Note_off_c, 0, 72, 127
2, 167180, Note_on_c, 1, 73, 127
2, 167180, Note_on_c, 8, 56, 127
2, 167341, Note_off_c, 1, 73, 127
2, 167343, Note_on_c, 5, 77, 127
2, 167503, Note_off_c, 8, 56, 127
2, 167504, Note_off_c, 5, 77, 127
2, 167505, Note_on_c, 11, 82, 127
2, 167505, Note_on_c, 7, 55, 127
2, 167666, Note_off_c, 11, 82, 127
2, 167668, Note_on_c, 7, 79, 127
2, 167828, Note_off_c, 7, 55, 127
2, 167829, Note_off_c, 7, 79, 127
2, 167831, Note_on_c, 5, 77, 127
2, 167831, Note_on_c, 0, 60, 127
2, 167992, Note_off_c, 5, 77, 127
2, 167994, Note_on_c, 4, 76, 127
2, 168155, Note_off_c, 4, 76, 127
2, 168156, Note_on_c, 2, 74, 127
2, 168317, Note_off_c, 2, 74, 127
2, 168317, Note_off_c, 0, 60, 127
2, 168319, Note_on_c, 0, 72, 127
2, 168319, Note_on_c, 11, 58, 127
2, 168480, Note_off_c, 11, 58, 127
2, 168480, Note_off_c, 0, 72, 127
2, 168482, Note_on_c, 2, 74, 127
2, 168482, Note_on_c, 8, 56, 127
2, 168643, Note_off_c, 8, 56, 127
2, 168643, Note_off_c, 2, 74, 127
2, 168645, Note_on_c, 4, 76, 127
2, 168645, Note_on_c, 7, 55, 127
2, 168806, Note_off_c, 7, 55, 127
2, 168806, Note_off_c, 4, 76, 127
2, 168807, Note_on_c, 5, 77, 127
2, 168807, Note_on_c, 8, 56, 127
2, 168968, Note_off_c, 8, 56, 127
2, 168968, Note_off_c, 5, 77, 127
2, 168970, Note_on_c, 8, 80, 127
2, 168970, Note_on_c, 5, 53, 127
2, 169131, Note_off_c, 5, 53, 127
2, 169131, Note_off_c, 8, 80, 127
2, 169133, Note_on_c, 7, 79, 127
2, 169133, Note_on_c, 0, 60, 127
2, 169294, Note_off_c, 7, 79, 127
2, 169296, Note_on_c, 5, 77, 127
2, 169456, Note_off_c, 0, 60, 127
2, 169457, Note_off_c, 5, 77, 127
2, 169458, Note_on_c, 7, 79, 127
2, 169458, Note_on_c, 0, 48, 127
2, 169619, Note_off_c, 7, 79, 127
2, 169621, Note_on_c, 4, 76, 127
2, 169781, Note_off_c, 0, 48, 127
2, 169782, Note_off_c, 4, 76, 127
2, 169784, Note_on_c, 4, 76, 127
2, 169784, Note_on_c, 5, 53, 127
2, 169945, Note_off_c, 5, 53, 127
2, 169945, Note_off_c, 4, 76, 127
2, 169947, Note_on_c, 5, 77, 127
2, 169947, Note_on_c, 0, 48, 127
2, 170027, Note_off_c, 5, 77, 127
2, 170029, Note_on_c, 4, 76, 127
2, 170109, Note_off_c, 4, 76, 127
2, 170109, Note_off_c, 0, 48, 127
2, 170111, Note_on_c, 5, 77, 127
2, 170111, Note_on_c, 11, 46, 127
2, 170272, Note_off_c, 11, 46, 127
2, 170274, Note_on_c, 8, 44, 127
2, 170435, Note_off_c, 8, 44, 127
2, 170436, Note_on_c, 11, 46, 127
2, 170597, Note_off_c, 11, 46, 127
2, 170599, Note_on_c, 0, 48, 127
2, 170760, Note_off_c, 0, 48, 127
2, 170762, Note_on_c, 5, 41, 127
2, 170923, Note_off_c, 5, 77, 127
2, 170925, Note_on_c, 7, 79, 127
2, 171085, Note_off_c, 5, 41, 127
2, 171086, Note_off_c, 7, 79, 127
2, 171087, Note_on_c, 8, 80, 127
2, 171087, Note_on_c, 5, 53, 127
2, 171248, Note_off_c, 8, 80, 127
2, 171250, Note_on_c, 5, 77, 127
2, 171410, Note_off_c, 5, 53, 127
2, 171411, Note_off_c, 5, 77, 127
2, 171413, Note_on_c, 7, 79, 127
2, 171413, Note_on_c, 8, 56, 127
2, 171574, Note_off_c, 7, 79, 127
2, 171576, Note_on_c, 3, 75, 127
2, 171736, Note_off_c, 8, 56, 127
2, 171737, Note_off_c, 3, 75, 127
2, 171738, Note_on_c, 2, 74, 127
2, 171738, Note_on_c, 11, 58, 127
2, 171899, Note_off_c, 2, 74, 127
2, 171901, Note_on_c, 3, 75, 127
2, 172061, Note_off_c, 11, 58, 127
2, 172062, Note_off_c, 3, 75, 127
2, 172064, Note_on_c, 5, 77, 127
2, 172064, Note_on_c, 11, 46, 127
2, 172225, Note_off_c, 5, 77, 127
2, 172227, Note_on_c, 2, 74, 127
2, 172387, Note_off_c, 11, 46, 127
2, 172388, Note_off_c, 2, 74, 127
2, 172389, Note_on_c, 3, 75, 127
2, 172389, Note_on_c, 0, 48, 127
2, 172550, Note_off_c, 3, 75, 127
2, 172552, Note_on_c, 0, 72, 127
2, 172712, Note_off_c, 0, 48, 127
2, 172713, Note_off_c, 0, 72, 127
2, 172715, Note_on_c, 11, 70, 127
2, 172715, Note_on_c, 2, 50, 127
2, 172878, Note_on_c, 5, 77, 127
2, 173037, Note_off_c, 11, 70, 127
2, 173038, Note_off_c, 2, 50, 127
2, 173039, Note_off_c, 5, 77, 127
2, 173040, Note_on_c, 8, 68, 127
2, 173040, Note_on_c, 0, 48, 127
2, 173201, Note_off_c, 8, 68, 127
2, 173203, Note_on_c, 7, 67, 127
2, 173363, Note_off_c, 0, 48, 127
2, 173364, Note_off_c, 7, 67, 127
2, 173366, Note_on_c, 8, 68, 127
2, 173366, Note_on_c, 11, 46, 127
2, 173527, Note_off_c, 8, 68, 127
2, 173529, Note_on_c, 11, 70, 127
2, 173689, Note_off_c, 11, 46, 127
2, 173690, Note_off_c, 11, 70, 127
2, 173691, Note_on_c, 7, 67, 127
2, 173691, Note_on_c, 3, 51, 127
2, 173852, Note_off_c, 7, 67, 127
2, 173854, Note_on_c, 8, 68, 127
2, 174014, Note_off_c, 3, 51, 127
2, 174015, Note_off_c, 8, 68, 127
2, 174017, Note_on_c, 11, 70, 127
2, 174017, Note_on_c, 3, 39, 127
2, 174178, Note_off_c, 11, 70, 127
2, 174180, Note_on_c, 0, 72, 127
2, 174340, Note_off_c, 3, 39, 127
2, 174341, Note_off_c, 0, 72, 127
2, 174342, Note_on_c, 1, 73, 127
2, 174342, Note_on_c, 5, 41, 127
2, 174422, Note_off_c, 1, 73, 127
2, 174425, Note_on_c, 0, 72, 127
2, 174505, Note_off_c, 0, 72, 127
2, 174507, Note_on_c, 1, 73, 127
2, 174667, Note_off_c, 5, 41, 127
2, 174670, Note_on_c, 7, 43, 127
2, 174829, Note_off_c, 1, 73, 127
2, 174832, Note_on_c, 11, 82, 127
2, 174993, Note_off_c, 11, 82, 127
2, 174995, Note_on_c, 3, 75, 127
2, 174995, Note_on_c, 11, 46, 127
2, 175156, Note_off_c, 3, 75, 127
2, 175158, Note_on_c, 0, 72, 127
2, 175318, Note_off_c, 11, 46, 127
2, 175319, Note_off_c, 0, 72, 127
2, 175321, Note_on_c, 1, 73, 127
2, 175321, Note_on_c, 3, 51, 127
2, 175482, Note_off_c, 1, 73, 127
2, 175483, Note_on_c, 11, 70, 127
2, 175644, Note_off_c, 11, 70, 127
2, 175644, Note_off_c, 7, 43, 127
2, 175646, Note_on_c, 0, 72, 127
2, 175646, Note_on_c, 8, 44, 127
2, 175807, Note_off_c, 0, 72, 127
2, 175809, Note_on_c, 11, 70, 127
2, 175965, Note_off_c, 3, 51, 127
2, 175969, Note_off_c, 8, 44, 127
2, 175970, Note_off_c, 11, 70, 127
2, 175972, Note_on_c, 0, 72, 127
2, 175972, Note_on_c, 8, 56, 127
2, 176133, Note_off_c, 8, 56, 127
2, 176133, Note_off_c, 0, 72, 127
2, 176134, Note_on_c, 3, 75, 127
2, 176134, Note_on_c, 7, 55, 127
2, 176295, Note_off_c, 7, 55, 127
2, 176295, Note_off_c, 3, 75, 127
2, 176297, Note_on_c, 8, 80, 127
2, 176297, Note_on_c, 5, 53, 127
2, 176377, Note_off_c, 8, 80, 127
2, 176379, Note_on_c, 7, 79, 127
2, 176459, Note_off_c, 7, 79, 127
2, 176459, Note_off_c, 5, 53, 127
2, 176461, Note_on_c, 8, 80, 127
2, 176461, Note_on_c, 3, 51, 127
2, 176622, Note_off_c, 3, 51, 127
2, 176624, Note_on_c, 2, 50, 127
2, 176783, Note_off_c, 8, 80, 127
2, 176787, Note_on_c, 5, 77, 127
2, 176947, Note_off_c, 2, 50, 127
2, 176948, Note_off_c, 5, 77, 127
2, 176950, Note_on_c, 7, 79, 127
2, 176950, Note_on_c, 3, 51, 127
2, 177111, Note_off_c, 7, 79, 127
2, 177112, Note_on_c, 0, 84, 127
2, 177273, Note_off_c, 0, 84, 127
2, 177273, Note_off_c, 3, 51, 127
2, 177275, Note_on_c, 5, 77, 127
2, 177275, Note_on_c, 8, 56, 127
2, 177436, Note_off_c, 5, 77, 127
2, 177438, Note_on_c, 2, 74, 127
2, 177598, Note_off_c, 8, 56, 127
2, 177599, Note_off_c, 2, 74, 127
2, 177601, Note_on_c, 3, 75, 127
2, 177601, Note_on_c, 11, 58, 127
2, 177762, Note_off_c, 3, 75, 127
2, 177763, Note_on_c, 0, 72, 127
2, 177924, Note_off_c, 0, 72, 127
2, 177924, Note_off_c, 11, 58, 127
2, 177926, Note_on_c, 2, 74, 127
2, 177926, Note_on_c, 11, 46, 127
2, 178087, Note_off_c, 2, 74, 127
2, 178089, Note_on_c, 5, 77, 127
2, 178249, Note_off_c, 11, 46, 127
2, 178250, Note_off_c, 5, 77, 127
2, 178252, Note_on_c, 0, 72, 127
2, 178252, Note_on_c, 0, 48, 127
2, 178413, Note_off_c, 0, 72, 127
2, 178414, Note_on_c, 10, 69, 127
2, 178575, Note_off_c, 10, 69, 127
2, 178575, Note_off_c, 0, 48, 127
2, 178577, Note_on_c, 10, 69, 127
2, 178577, Note_on_c, 2, 50, 127
2, 178738, Note_off_c, 2, 50, 127
2, 178738, Note_off_c, 10, 69, 127
2, 178740, Note_on_c, 11, 70, 127
2, 178740, Note_on_c, 11, 46, 127
2, 178820, Note_off_c, 11, 70, 127
2, 178822, Note_on_c, 10, 69, 127
2, 178902, Note_off_c, 10, 69, 127
2, 178902, Note_off_c, 11, 46, 127
2, 178904, Note_on_c, 11, 70, 127
2, 178904, Note_on_c, 0, 48, 127
2, 179065, Note_off_c, 0, 48, 127
2, 179067, Note_on_c, 2, 50, 127
2, 179228, Note_off_c, 2, 50, 127
2, 179230, Note_on_c, 3, 51, 127
2, 179391, Note_off_c, 3, 51, 127
2, 179392, Note_on_c, 5, 53, 127
2, 179553, Note_off_c, 5, 53, 127
2, 179555, Note_on_c, 7, 55, 127
2, 179716, Note_off_c, 11, 70, 127
2, 179718, Note_on_c, 8, 68, 127
2, 179879, Note_off_c, 8, 68, 127
2, 179881, Note_on_c, 11, 70, 127
2, 180042, Note_off_c, 11, 70, 127
2, 180043, Note_on_c, 1, 73, 127
2, 180204, Note_off_c, 1, 73, 127
2, 180206, Note_on_c, 0, 72, 127
2, 180367, Note_off_c, 0, 72, 127
2, 180369, Note_on_c, 3, 75, 127
2, 180530, Note_off_c, 3, 75, 127
2, 180532, Note_on_c, 1, 73, 127
2, 180692, Note_off_c, 7, 55, 127
2, 180693, Note_off_c, 1, 73, 127
2, 180694, Note_on_c, 11, 70, 127
2, 180694, Note_on_c, 5, 53, 127
2, 180855, Note_off_c, 5, 53, 127
2, 180855, Note_off_c, 11, 70, 127
2, 180857, Note_on_c, 7, 67, 127
2, 180857, Note_on_c, 3, 51, 127
2, 181018, Note_off_c, 3, 51, 127
2, 181018, Note_off_c, 7, 67, 127
2, 181020, Note_on_c, 3, 63, 127
2, 181020, Note_on_c, 5, 53, 127
2, 181181, Note_off_c, 5, 53, 127
2, 181181, Note_off_c, 3, 63, 127
2, 181183, Note_on_c, 1, 73, 127
2, 181183, Note_on_c, 7, 55, 127
2, 181263, Note_off_c, 1, 73, 127
2, 181265, Note_on_c, 0, 72, 127
2, 181345, Note_off_c, 0, 72, 127
2, 181345, Note_off_c, 7, 55, 127
2, 181347, Note_on_c, 1, 73, 127
2, 181347, Note_on_c, 3, 51, 127
2, 181508, Note_off_c, 3, 51, 127
2, 181510, Note_on_c, 8, 56, 127
2, 181670, Note_off_c, 1, 73, 127
2, 181672, Note_on_c, 11, 70, 127
2, 181833, Note_off_c, 11, 70, 127
2, 181835, Note_on_c, 0, 72, 127
2, 181996, Note_off_c, 0, 72, 127
2, 181998, Note_on_c, 3, 75, 127
2, 182159, Note_off_c, 3, 75, 127
2, 182161, Note_on_c, 2, 74, 127
2, 182322, Note_off_c, 2, 74, 127
2, 182323, Note_on_c, 5, 77, 127
2, 182484, Note_off_c, 5, 77, 127
2, 182484, Note_off_c, 8, 56, 127
2, 182486, Note_on_c, 3, 75, 127
2, 182486, Note_on_c, 10, 57, 127
2, 182647, Note_off_c, 10, 57, 127
2, 182647, Note_off_c, 3, 75, 127
2, 182649, Note_on_c, 0, 72, 127
2, 182649, Note_on_c, 7, 55, 127
2, 182810, Note_off_c, 7, 55, 127
2, 182810, Note_off_c, 0, 72, 127
2, 182812, Note_on_c, 10, 69, 127
2, 182812, Note_on_c, 5, 53, 127
2, 182973, Note_off_c, 5, 53, 127
2, 182973, Note_off_c, 10, 69, 127
2, 182974, Note_on_c, 5, 65, 127
2, 182974, Note_on_c, 7, 55, 127
2, 183135, Note_off_c, 7, 55, 127
2, 183135, Note_off_c, 5, 65, 127
2, 183137, Note_on_c, 3, 75, 127
2, 183137, Note_on_c, 10, 57, 127
2, 183217, Note_off_c, 3, 75, 127
2, 183219, Note_on_c, 2, 74, 127
2, 183299, Note_off_c, 2, 74, 127
2, 183299, Note_off_c, 10, 57, 127
2, 183301, Note_on_c, 3, 75, 127
2, 183301, Note_on_c, 5, 53, 127
2, 183462, Note_off_c, 5, 53, 127
2, 183464, Note_on_c, 11, 58, 127
2, 183624, Note_off_c, 3, 75, 127
2, 183627, Note_on_c, 0, 72, 127
2, 183787, Note_off_c, 11, 58, 127
2, 183788, Note_off_c, 0, 72, 127
2, 183790, Note_on_c, 2, 74, 127
2, 183790, Note_on_c, 11, 46, 127
2, 183951, Note_off_c, 2, 74, 127
2, 183952, Note_on_c, 5, 77, 127
2, 184113, Note_off_c, 5, 77, 127
2, 184113, Note_off_c, 11, 46, 127
2, 184115, Note_on_c, 11, 70, 127
2, 184115, Note_on_c, 2, 50, 127
2, 184276, Note_off_c, 11, 70, 127
2, 184278, Note_on_c, 8, 68, 127
2, 184438, Note_off_c, 2, 50, 127
2, 184439, Note_off_c, 8, 68, 127
2, 184441, Note_on_c, 7, 67, 127
2, 184441, Note_on_c, 3, 51, 127
2, 184602, Note_off_c, 7, 67, 127
2, 184603, Note_on_c, 0, 72, 127
2, 184764, Note_off_c, 0, 72, 127
2, 184764, Note_off_c, 3, 51, 127
2, 184766, Note_on_c, 11, 70, 127
2, 184766, Note_on_c, 7, 43, 127
2, 184927, Note_off_c, 11, 70, 127
2, 184929, Note_on_c, 7, 67, 127
2, 185089, Note_off_c, 7, 43, 127
2, 185090, Note_off_c, 7, 67, 127
2, 185092, Note_on_c, 8, 68, 127
2, 185092, Note_on_c, 11, 46, 127
2, 185253, Note_off_c, 8, 68, 127
2, 185254, Note_on_c, 5, 65, 127
2, 185415, Note_off_c, 5, 65, 127
2, 185415, Note_off_c, 11, 46, 127
2, 185417, Note_on_c, 5, 65, 127
2, 185417, Note_on_c, 3, 39, 127
2, 185596, Note_off_c, 5, 65, 127
2, 185599, Note_on_c, 3, 63, 127
2, 185687, Note_off_c, 3, 63, 127
2, 185688, Note_on_c, 5, 65, 127
2, 185776, Note_off_c, 5, 65, 127
2, 185778, Note_on_c, 3, 63, 127
2, 185778, Note_on_c, 7, 43, 127
2, 185866, Note_off_c, 3, 63, 127
2, 185868, Note_on_c, 5, 65, 127
2, 185956, Note_off_c, 5, 65, 127
2, 185958, Note_on_c, 3, 63, 127
2, 186046, Note_off_c, 3, 63, 127
2, 186048, Note_on_c, 5, 65, 127
2, 186136, Note_off_c, 5, 65, 127
2, 186136, Note_off_c, 7, 43, 127
2, 186138, Note_on_c, 3, 63, 127
2, 186138, Note_on_c, 11, 46, 127
2, 186499, Note_off_c, 11, 46, 127
2, 186501, Note_on_c, 3, 51, 127
2, 186577, Note_on_c, 7, 55, 127
2, 186653, Note_on_c, 11, 58, 127
2, 188717, Note_off_c, 3, 39, 127
2, 188801, Note_off_c, 3, 51, 127
2, 188877, Note_off_c, 7, 55, 127
2, 188938, Note_off_c, 3, 63, 127
2, 188953, Note_off_c, 11, 58, 127
2, 190919, Note_on_c, 3, 51, 127
2, 190919, Note_on_c, 3, 63, 127
2, 190919, Note_on_c, 7, 67, 127
2, 191010, Note_on_c, 5, 65, 127
2, 191038, Note_off_c, 7, 67, 127
2, 191100, Note_on_c, 7, 67, 127
2, 191127, Note_off_c, 5, 65, 127
2, 191280, Note_off_c, 3, 51, 127
2, 191281, Note_on_c, 3, 51, 127
2, 191447, Note_off_c, 3, 63, 127
2, 191461, Note_off_c, 7, 67, 127
2, 191463, Note_on_c, 8, 68, 127
2, 191463, Note_on_c, 5, 65, 127
2, 191642, Note_off_c, 5, 65, 127
2, 191642, Note_off_c, 8, 68, 127
2, 191642, Note_off_c, 3, 51, 127
2, 191644, Note_on_c, 3, 51, 127
2, 191644, Note_on_c, 8, 68, 127
2, 191644, Note_on_c, 5, 65, 127
2, 191825, Note_on_c, 7, 67, 127
2, 191825, Note_on_c, 11, 70, 127
2, 191833, Note_off_c, 5, 65, 127
2, 191833, Note_off_c, 8, 68, 127
2, 191913, Note_off_c, 11, 70, 127
2, 191915, Note_on_c, 8, 68, 127
2, 192003, Note_off_c, 8, 68, 127
2, 192003, Note_off_c, 3, 51, 127
2, 192005, Note_on_c, 3, 51, 127
2, 192005, Note_on_c, 11, 70, 127
2, 192352, Note_off_c, 7, 67, 127
2, 192366, Note_off_c, 11, 70, 127
2, 192366, Note_off_c, 3, 51, 127
2, 192368, Note_on_c, 3, 51, 127
2, 192368, Note_on_c, 8, 68, 127
2, 192368, Note_on_c, 0, 72, 127
2, 192729, Note_off_c, 3, 51, 127
2, 192730, Note_on_c, 3, 51, 127
2, 193091, Note_off_c, 3, 51, 127
2, 193091, Note_off_c, 8, 68, 127
2, 193093, Note_on_c, 3, 51, 127
2, 193093, Note_on_c, 8, 68, 127
2, 193093, Note_on_c, 1, 73, 127
2, 193127, Note_off_c, 0, 72, 127
2, 193181, Note_off_c, 1, 73, 127
2, 193183, Note_on_c, 0, 72, 127
2, 193271, Note_off_c, 0, 72, 127
2, 193273, Note_on_c, 11, 70, 127
2, 193452, Note_off_c, 11, 70, 127
2, 193454, Note_on_c, 0, 72, 127
2, 193633, Note_off_c, 0, 72, 127
2, 193636, Note_on_c, 1, 73, 127
2, 193809, Note_off_c, 8, 68, 127
2, 193815, Note_off_c, 1, 73, 127
2, 193817, Note_on_c, 7, 67, 127
2, 193817, Note_on_c, 0, 72, 127
2, 193996, Note_off_c, 0, 72, 127
2, 193996, Note_off_c, 3, 51, 127
2, 193998, Note_on_c, 5, 53, 127
2, 193998, Note_on_c, 11, 70, 127
2, 194089, Note_off_c, 11, 70, 127
2, 194090, Note_on_c, 0, 72, 127
2, 194177, Note_off_c, 5, 53, 127
2, 194179, Note_off_c, 0, 72, 127
2, 194180, Note_on_c, 7, 55, 127
2, 194180, Note_on_c, 11, 70, 127
2, 194359, Note_off_c, 7, 55, 127
2, 194361, Note_on_c, 8, 56, 127
2, 194540, Note_off_c, 8, 56, 127
2, 194542, Note_on_c, 7, 55, 127
2, 194721, Note_off_c, 7, 55, 127
2, 194724, Note_on_c, 8, 56, 127
2, 194903, Note_off_c, 8, 56, 127
2, 194905, Note_on_c, 11, 58, 127
2, 195084, Note_off_c, 11, 58, 127
2, 195086, Note_on_c, 0, 60, 127
2, 195215, Note_off_c, 7, 67, 127
2, 195265, Note_off_c, 0, 60, 127
2, 195266, Note_off_c, 11, 70, 127
2, 195268, Note_on_c, 11, 58, 127
2, 195268, Note_on_c, 11, 70, 127
2, 195268, Note_on_c, 2, 62, 127
2, 195629, Note_off_c, 11, 58, 127
2, 195631, Note_on_c, 11, 58, 127
2, 195810, Note_off_c, 2, 62, 127
2, 195810, Note_off_c, 11, 70, 127
2, 195812, Note_on_c, 0, 72, 127
2, 195812, Note_on_c, 3, 63, 127
2, 195991, Note_off_c, 3, 63, 127
2, 195991, Note_off_c, 0, 72, 127
2, 195992, Note_off_c, 11, 58, 127
2, 195993, Note_on_c, 11, 58, 127
2, 195993, Note_on_c, 0, 72, 127
2, 195993, Note_on_c, 3, 63, 127
2, 196172, Note_off_c, 3, 63, 127
2, 196172, Note_off_c, 0, 72, 127
2, 196175, Note_on_c, 5, 65, 127
2, 196175, Note_on_c, 2, 74, 127
2, 196354, Note_off_c, 11, 58, 127
2, 196356, Note_on_c, 11, 58, 127
2, 196717, Note_off_c, 11, 58, 127
2, 196717, Note_off_c, 2, 74, 127
2, 196717, Note_off_c, 5, 65, 127
2, 196719, Note_on_c, 11, 58, 127
2, 196719, Note_on_c, 3, 75, 127
2, 196719, Note_on_c, 7, 67, 127
2, 197080, Note_off_c, 11, 58, 127
2, 197081, Note_on_c, 11, 58, 127
2, 197442, Note_off_c, 11, 58, 127
2, 197442, Note_off_c, 7, 67, 127
2, 197442, Note_off_c, 3, 75, 127
2, 197444, Note_on_c, 11, 58, 127
2, 197444, Note_on_c, 8, 68, 127
2, 197444, Note_on_c, 3, 75, 127
2, 197532, Note_off_c, 8, 68, 127
2, 197534, Note_on_c, 7, 67, 127
2, 197622, Note_off_c, 7, 67, 127
2, 197624, Note_on_c, 5, 65, 127
2, 197803, Note_off_c, 5, 65, 127
2, 197805, Note_on_c, 7, 67, 127
2, 197984, Note_off_c, 7, 67, 127
2, 197987, Note_on_c, 8, 68, 127
2, 198160, Note_off_c, 3, 75, 127
2, 198166, Note_off_c, 8, 68, 127
2, 198168, Note_on_c, 2, 74, 127
2, 198168, Note_on_c, 7, 67, 127
2, 198347, Note_off_c, 11, 58, 127
2, 198349, Note_on_c, 0, 60, 127
2, 198528, Note_off_c, 0, 60, 127
2, 198529, Note_off_c, 7, 67, 127
2, 198531, Note_on_c, 11, 58, 127
2, 198531, Note_on_c, 5, 65, 127
2, 198619, Note_off_c, 5, 65, 127
2, 198620, Note_on_c, 7, 67, 127
2, 198708, Note_off_c, 7, 67, 127
2, 198709, Note_off_c, 11, 58, 127
2, 198710, Note_on_c, 8, 56, 127
2, 198710, Note_on_c, 5, 65, 127
2, 198889, Note_off_c, 8, 56, 127
2, 198892, Note_on_c, 11, 58, 127
2, 199071, Note_off_c, 11, 58, 127
2, 199073, Note_on_c, 8, 56, 127
2, 199252, Note_off_c, 8, 56, 127
2, 199254, Note_on_c, 7, 55, 127
2, 199433, Note_off_c, 7, 55, 127
2, 199436, Note_on_c, 8, 56, 127
2, 199564, Note_off_c, 2, 74, 127
2, 199615, Note_off_c, 8, 56, 127
2, 199616, Note_off_c, 5, 65, 127
2, 199617, Note_on_c, 7, 55, 127
2, 199617, Note_on_c, 3, 75, 127
2, 199617, Note_on_c, 7, 67, 127
2, 199978, Note_off_c, 7, 55, 127
2, 199980, Note_on_c, 7, 55, 127
2, 200159, Note_off_c, 7, 67, 127
2, 200159, Note_off_c, 3, 75, 127
2, 200161, Note_on_c, 5, 77, 127
2, 200161, Note_on_c, 8, 68, 127
2, 200340, Note_off_c, 8, 68, 127
2, 200340, Note_off_c, 5, 77, 127
2, 200341, Note_off_c, 7, 55, 127
2, 200343, Note_on_c, 7, 55, 127
2, 200343, Note_on_c, 8, 68, 127
2, 200343, Note_on_c, 5, 77, 127
2, 200522, Note_off_c, 5, 77, 127
2, 200522, Note_off_c, 8, 68, 127
2, 200524, Note_on_c, 7, 79, 127
2, 200524, Note_on_c, 11, 70, 127
2, 200704, Note_off_c, 7, 55, 127
2, 200705, Note_on_c, 7, 55, 127
2, 200885, Note_off_c, 11, 70, 127
2, 200885, Note_off_c, 7, 79, 127
2, 200887, Note_on_c, 0, 72, 127
2, 200887, Note_on_c, 8, 80, 127
2, 201066, Note_off_c, 8, 80, 127
2, 201066, Note_off_c, 0, 72, 127
2, 201066, Note_off_c, 7, 55, 127
2, 201068, Note_on_c, 7, 55, 127
2, 201068, Note_on_c, 0, 72, 127
2, 201068, Note_on_c, 8, 80, 127
2, 201427, Note_off_c, 8, 80, 127
2, 201427, Note_off_c, 0, 72, 127
2, 201429, Note_off_c, 7, 55, 127
2, 201431, Note_on_c, 7, 55, 127
2, 201431, Note_on_c, 1, 73, 127
2, 201431, Note_on_c, 11, 82, 127
2, 201792, Note_off_c, 7, 55, 127
2, 201793, Note_on_c, 8, 56, 127
2, 202154, Note_off_c, 8, 56, 127
2, 202156, Note_on_c, 8, 56, 127
2, 202337, Note_off_c, 1, 73, 127
2, 202517, Note_off_c, 8, 56, 127
2, 202517, Note_off_c, 11, 82, 127
2, 202519, Note_on_c, 8, 56, 127
2, 202519, Note_on_c, 8, 80, 127
2, 202519, Note_on_c, 0, 72, 127
2, 202880, Note_off_c, 8, 56, 127
2, 202881, Note_on_c, 8, 56, 127
2, 203061, Note_off_c, 0, 72, 127
2, 203061, Note_off_c, 8, 80, 127
2, 203063, Note_on_c, 11, 70, 127
2, 203063, Note_on_c, 7, 79, 127
2, 203242, Note_off_c, 7, 79, 127
2, 203242, Note_off_c, 11, 70, 127
2, 203242, Note_off_c, 8, 56, 127
2, 203244, Note_on_c, 8, 56, 127
2, 203244, Note_on_c, 11, 70, 127
2, 203244, Note_on_c, 7, 79, 127
2, 203423, Note_off_c, 7, 79, 127
2, 203423, Note_off_c, 11, 70, 127
2, 203425, Note_on_c, 8, 68, 127
2, 203425, Note_on_c, 5, 77, 127
2, 203605, Note_off_c, 8, 56, 127
2, 203607, Note_on_c, 8, 56, 127
2, 203786, Note_off_c, 5, 77, 127
2, 203786, Note_off_c, 8, 68, 127
2, 203788, Note_on_c, 3, 75, 127
2, 203788, Note_on_c, 7, 67, 127
2, 203967, Note_off_c, 7, 67, 127
2, 203967, Note_off_c, 3, 75, 127
2, 203968, Note_off_c, 8, 56, 127
2, 203970, Note_on_c, 8, 56, 127
2, 203970, Note_on_c, 3, 75, 127
2, 203970, Note_on_c, 7, 67, 127
2, 204149, Note_off_c, 8, 56, 127
2, 204151, Note_on_c, 0, 60, 127
2, 204329, Note_off_c, 7, 67, 127
2, 204329, Note_off_c, 3, 75, 127
2, 204330, Note_off_c, 0, 60, 127
2, 204332, Note_on_c, 11, 58, 127
2, 204332, Note_on_c, 5, 65, 127
2, 204332, Note_on_c, 2, 74, 127
2, 204511, Note_off_c, 11, 58, 127
2, 204514, Note_on_c, 8, 56, 127
2, 204652, Note_off_c, 2, 74, 127
2, 204690, Note_off_c, 5, 65, 127
2, 204692, Note_off_c, 8, 56, 127
2, 204693, Note_on_c, 11, 58, 127
2, 204693, Note_on_c, 3, 75, 127
2, 204693, Note_on_c, 7, 67, 127
2, 204872, Note_off_c, 11, 58, 127
2, 204875, Note_on_c, 8, 56, 127
2, 205054, Note_off_c, 8, 56, 127
2, 205054, Note_off_c, 7, 67, 127
2, 205054, Note_off_c, 3, 75, 127
2, 205056, Note_on_c, 7, 55, 127
2, 205056, Note_on_c, 8, 68, 127
2, 205056, Note_on_c, 5, 77, 127
2, 205235, Note_off_c, 5, 77, 127
2, 205235, Note_off_c, 8, 68, 127
2, 205235, Note_off_c, 7, 55, 127
2, 205237, Note_on_c, 5, 53, 127
2, 205237, Note_on_c, 7, 79, 127
2, 205237, Note_on_c, 11, 70, 127
2, 205416, Note_off_c, 11, 70, 127
2, 205416, Note_off_c, 7, 79, 127
2, 205416, Note_off_c, 5, 53, 127
2, 205419, Note_on_c, 8, 56, 127
2, 205419, Note_on_c, 8, 68, 127
2, 205419, Note_on_c, 5, 77, 127
2, 205598, Note_off_c, 8, 56, 127
2, 205600, Note_on_c, 7, 55, 127
2, 205779, Note_off_c, 7, 55, 127
2, 205780, Note_off_c, 5, 77, 127
2, 205780, Note_off_c, 8, 68, 127
2, 205781, Note_on_c, 5, 53, 127
2, 205781, Note_on_c, 7, 67, 127
2, 205781, Note_on_c, 3, 75, 127
2, 205960, Note_off_c, 5, 53, 127
2, 205963, Note_on_c, 3, 51, 127
2, 206142, Note_off_c, 3, 51, 127
2, 206142, Note_off_c, 3, 75, 127
2, 206142, Note_off_c, 7, 67, 127
2, 206144, Note_on_c, 11, 58, 127
2, 206144, Note_on_c, 5, 65, 127
2, 206144, Note_on_c, 3, 75, 127
2, 206505, Note_off_c, 3, 75, 127
2, 206507, Note_on_c, 2, 74, 127
2, 206672, Note_off_c, 5, 65, 127
2, 206688, Note_on_c, 7, 67, 127
2, 206867, Note_off_c, 7, 67, 127
2, 206870, Note_on_c, 7, 67, 127
2, 207049, Note_off_c, 7, 67, 127
2, 207049, Note_off_c, 11, 58, 127
2, 207051, Note_on_c, 8, 56, 127
2, 207051, Note_on_c, 8, 68, 127
2, 207139, Note_off_c, 8, 68, 127
2, 207141, Note_on_c, 7, 67, 127
2, 207229, Note_off_c, 7, 67, 127
2, 207229, Note_off_c, 8, 56, 127
2, 207231, Note_on_c, 7, 55, 127
2, 207231, Note_on_c, 8, 68, 127
2, 207410, Note_off_c, 7, 55, 127
2, 207412, Note_on_c, 5, 53, 127
2, 207591, Note_off_c, 5, 53, 127
2, 207592, Note_off_c, 8, 68, 127
2, 207593, Note_on_c, 3, 51, 127
2, 207593, Note_on_c, 11, 70, 127
2, 207772, Note_off_c, 3, 51, 127
2, 207775, Note_on_c, 2, 50, 127
2, 207954, Note_off_c, 2, 50, 127
2, 207956, Note_on_c, 0, 48, 127
2, 208135, Note_off_c, 0, 48, 127
2, 208137, Note_on_c, 11, 46, 127
2, 208316, Note_off_c, 11, 46, 127
2, 208316, Note_off_c, 11, 70, 127
2, 208318, Note_off_c, 2, 74, 127
2, 208319, Note_on_c, 3, 51, 127
2, 208319, Note_on_c, 8, 68, 127
2, 208678, Note_off_c, 8, 68, 127
2, 208682, Note_on_c, 7, 67, 127
2, 208682, Note_on_c, 3, 75, 127
2, 209041, Note_off_c, 3, 75, 127
2, 209044, Note_on_c, 5, 77, 127
2, 209132, Note_off_c, 5, 77, 127
2, 209134, Note_on_c, 3, 75, 127
2, 209222, Note_off_c, 3, 75, 127
2, 209222, Note_off_c, 3, 51, 127
2, 209224, Note_on_c, 5, 53, 127
2, 209224, Note_on_c, 5, 77, 127
2, 209403, Note_off_c, 5, 53, 127
2, 209405, Note_on_c, 3, 51, 127
2, 209584, Note_off_c, 3, 51, 127
2, 209587, Note_on_c, 2, 50, 127
2, 209766, Note_off_c, 2, 50, 127
2, 209766, Note_off_c, 5, 77, 127
2, 209768, Note_on_c, 3, 51, 127
2, 209768, Note_on_c, 7, 79, 127
2, 209947, Note_off_c, 3, 51, 127
2, 209949, Note_on_c, 2, 50, 127
2, 210128, Note_off_c, 2, 50, 127
2, 210131, Note_on_c, 0, 48, 127
2, 210310, Note_off_c, 0, 48, 127
2, 210312, Note_on_c, 2, 50, 127
2, 210491, Note_off_c, 2, 50, 127
2, 210491, Note_off_c, 7, 79, 127
2, 210493, Note_off_c, 7, 67, 127
2, 210493, Note_on_c, 0, 48, 127
2, 210493, Note_on_c, 5, 77, 127
2, 210854, Note_off_c, 5, 77, 127
2, 210856, Note_on_c, 3, 75, 127
2, 211038, Note_on_c, 10, 69, 127
2, 211217, Note_off_c, 10, 69, 127
2, 211219, Note_on_c, 10, 69, 127
2, 211398, Note_off_c, 0, 48, 127
2, 211400, Note_on_c, 2, 50, 127
2, 211579, Note_off_c, 2, 50, 127
2, 211580, Note_off_c, 10, 69, 127
2, 211582, Note_on_c, 3, 51, 127
2, 211582, Note_on_c, 11, 70, 127
2, 211670, Note_off_c, 11, 70, 127
2, 211671, Note_on_c, 10, 69, 127
2, 211759, Note_off_c, 10, 69, 127
2, 211760, Note_off_c, 3, 51, 127
2, 211761, Note_on_c, 5, 53, 127
2, 211761, Note_on_c, 11, 70, 127
2, 211940, Note_off_c, 11, 70, 127
2, 211940, Note_off_c, 5, 53, 127
2, 211943, Note_on_c, 7, 55, 127
2, 211943, Note_on_c, 0, 72, 127
2, 212122, Note_off_c, 7, 55, 127
2, 212124, Note_on_c, 10, 57, 127
2, 212303, Note_off_c, 10, 57, 127
2, 212305, Note_on_c, 11, 58, 127
2, 212484, Note_off_c, 11, 58, 127
2, 212487, Note_on_c, 0, 60, 127
2, 212666, Note_off_c, 0, 60, 127
2, 212666, Note_off_c, 0, 72, 127
2, 212668, Note_on_c, 5, 53, 127
2, 212668, Note_on_c, 11, 70, 127
2, 213027, Note_off_c, 11, 70, 127
2, 213031, Note_on_c, 10, 69, 127
2, 213212, Note_on_c, 2, 74, 127
2, 213215, Note_off_c, 3, 75, 127
2, 213390, Note_off_c, 2, 74, 127
2, 213392, Note_on_c, 2, 74, 127
2, 213571, Note_off_c, 2, 74, 127
2, 213571, Note_off_c, 5, 53, 127
2, 213573, Note_on_c, 7, 55, 127
2, 213573, Note_on_c, 3, 75, 127
2, 213661, Note_off_c, 3, 75, 127
2, 213663, Note_on_c, 2, 74, 127
2, 213751, Note_off_c, 2, 74, 127
2, 213751, Note_off_c, 7, 55, 127
2, 213753, Note_on_c, 5, 53, 127
2, 213753, Note_on_c, 3, 75, 127
2, 213932, Note_off_c, 5, 53, 127
2, 213934, Note_on_c, 3, 51, 127
2, 214112, Note_off_c, 3, 75, 127
2, 214113, Note_off_c, 3, 51, 127
2, 214116, Note_on_c, 2, 50, 127
2, 214116, Note_on_c, 7, 79, 127
2, 214295, Note_off_c, 7, 79, 127
2, 214295, Note_off_c, 2, 50, 127
2, 214297, Note_on_c, 0, 48, 127
2, 214297, Note_on_c, 5, 77, 127
2, 214385, Note_off_c, 5, 77, 127
2, 214387, Note_on_c, 7, 79, 127
2, 214475, Note_off_c, 7, 79, 127
2, 214475, Note_off_c, 0, 48, 127
2, 214477, Note_on_c, 11, 46, 127
2, 214477, Note_on_c, 5, 77, 127
2, 214656, Note_off_c, 5, 77, 127
2, 214656, Note_off_c, 11, 46, 127
2, 214658, Note_on_c, 10, 45, 127
2, 214658, Note_on_c, 3, 75, 127
2, 214837, Note_off_c, 3, 75, 127
2, 214837, Note_off_c, 10, 45, 127
2, 214839, Note_off_c, 10, 69, 127
2, 214840, Note_on_c, 11, 46, 127
2, 214840, Note_on_c, 3, 75, 127
2, 215201, Note_off_c, 3, 75, 127
2, 215202, Note_on_c, 5, 65, 127
2, 215202, Note_on_c, 2, 74, 127
2, 215563, Note_off_c, 5, 65, 127
2, 215565, Note_on_c, 11, 70, 127
2, 215745, Note_off_c, 11, 46, 127
2, 215746, Note_on_c, 10, 45, 127
2, 215925, Note_off_c, 10, 45, 127
2, 215928, Note_on_c, 11, 46, 127
2, 216107, Note_off_c, 11, 46, 127
2, 216107, Note_off_c, 11, 70, 127
2, 216109, Note_on_c, 0, 48, 127
2, 216109, Note_on_c, 8, 68, 127
2, 216288, Note_off_c, 8, 68, 127
2, 216288, Note_off_c, 0, 48, 127
2, 216290, Note_on_c, 2, 50, 127
2, 216290, Note_on_c, 8, 68, 127
2, 216469, Note_off_c, 8, 68, 127
2, 216469, Note_off_c, 2, 50, 127
2, 216472, Note_on_c, 3, 51, 127
2, 216472, Note_on_c, 7, 67, 127
2, 216651, Note_off_c, 3, 51, 127
2, 216653, Note_on_c, 5, 53, 127
2, 216832, Note_off_c, 5, 53, 127
2, 216833, Note_off_c, 7, 67, 127
2, 216835, Note_on_c, 2, 50, 127
2, 216835, Note_on_c, 5, 65, 127
2, 217014, Note_off_c, 5, 65, 127
2, 217014, Note_off_c, 2, 50, 127
2, 217015, Note_off_c, 2, 74, 127
2, 217016, Note_on_c, 7, 55, 127
2, 217016, Note_on_c, 5, 65, 127
2, 217375, Note_off_c, 5, 65, 127
2, 217379, Note_on_c, 3, 63, 127
2, 217560, Note_on_c, 7, 67, 127
2, 217739, Note_off_c, 7, 67, 127
2, 217741, Note_on_c, 7, 67, 127
2, 217920, Note_off_c, 7, 67, 127
2, 217921, Note_off_c, 7, 55, 127
2, 217923, Note_on_c, 5, 53, 127
2, 217923, Note_on_c, 0, 72, 127
2, 218011, Note_off_c, 0, 72, 127
2, 218013, Note_on_c, 11, 70, 127
2, 218101, Note_off_c, 11, 70, 127
2, 218101, Note_off_c, 5, 53, 127
2, 218102, Note_on_c, 3, 51, 127
2, 218102, Note_on_c, 0, 72, 127
2, 218281, Note_off_c, 0, 72, 127
2, 218281, Note_off_c, 3, 51, 127
2, 218284, Note_on_c, 2, 50, 127
2, 218284, Note_on_c, 11, 70, 127
2, 218463, Note_off_c, 11, 70, 127
2, 218463, Note_off_c, 2, 50, 127
2, 218465, Note_on_c, 0, 48, 127
2, 218465, Note_on_c, 10, 69, 127
2, 218553, Note_off_c, 10, 69, 127
2, 218555, Note_on_c, 11, 70, 127
2, 218643, Note_off_c, 11, 70, 127
2, 218643, Note_off_c, 0, 48, 127
2, 218645, Note_on_c, 2, 50, 127
2, 218645, Note_on_c, 10, 69, 127
2, 218824, Note_off_c, 10, 69, 127
2, 218824, Note_off_c, 2, 50, 127
2, 218826, Note_on_c, 3, 51, 127
2, 218826, Note_on_c, 11, 70, 127
2, 218914, Note_off_c, 11, 70, 127
2, 218916, Note_on_c, 10, 69, 127
2, 219004, Note_off_c, 10, 69, 127
2, 219004, Note_off_c, 3, 51, 127
2, 219006, Note_on_c, 0, 48, 127
2, 219006, Note_on_c, 7, 67, 127
2, 219185, Note_off_c, 7, 67, 127
2, 219185, Note_off_c, 0, 48, 127
2, 219187, Note_off_c, 3, 63, 127
2, 219187, Note_on_c, 10, 57, 127
2, 219187, Note_on_c, 7, 67, 127
2, 219366, Note_off_c, 10, 57, 127
2, 219369, Note_on_c, 5, 53, 127
2, 219546, Note_off_c, 7, 67, 127
2, 219548, Note_off_c, 5, 53, 127
2, 219550, Note_on_c, 7, 55, 127
2, 219550, Note_on_c, 5, 65, 127
2, 219729, Note_off_c, 7, 55, 127
2, 219731, Note_on_c, 10, 57, 127
2, 219731, Note_on_c, 0, 60, 127
2, 219910, Note_off_c, 0, 60, 127
2, 219910, Note_off_c, 10, 57, 127
2, 219913, Note_on_c, 11, 58, 127
2, 219913, Note_on_c, 2, 62, 127
2, 220267, Note_off_c, 5, 65, 127
2, 220276, Note_on_c, 7, 67, 127
2, 220441, Note_off_c, 2, 62, 127
2, 220457, Note_on_c, 3, 63, 127
2, 220635, Note_off_c, 7, 67, 127
2, 220636, Note_off_c, 3, 63, 127
2, 220638, Note_on_c, 8, 68, 127
2, 220638, Note_on_c, 0, 60, 127
2, 220818, Note_off_c, 11, 58, 127
2, 220820, Note_on_c, 8, 56, 127
2, 220999, Note_off_c, 8, 56, 127
2, 221001, Note_on_c, 7, 55, 127
2, 221180, Note_off_c, 7, 55, 127
2, 221180, Note_off_c, 0, 60, 127
2, 221180, Note_off_c, 8, 68, 127
2, 221182, Note_on_c, 5, 53, 127
2, 221182, Note_on_c, 11, 70, 127
2, 221182, Note_on_c, 2, 62, 127
2, 221361, Note_off_c, 2, 62, 127
2, 221361, Note_off_c, 11, 70, 127
2, 221361, Note_off_c, 5, 53, 127
2, 221364, Note_on_c, 3, 51, 127
2, 221364, Note_on_c, 8, 68, 127
2, 221364, Note_on_c, 3, 63, 127
2, 221543, Note_off_c, 3, 51, 127
2, 221545, Note_on_c, 2, 50, 127
2, 221723, Note_off_c, 8, 68, 127
2, 221724, Note_off_c, 2, 50, 127
2, 221726, Note_on_c, 0, 48, 127
2, 221726, Note_on_c, 7, 67, 127
2, 221905, Note_off_c, 0, 48, 127
2, 221908, Note_on_c, 11, 46, 127
2, 221908, Note_on_c, 0, 72, 127
2, 222087, Note_off_c, 0, 72, 127
2, 222087, Note_off_c, 11, 46, 127
2, 222087, Note_off_c, 7, 67, 127
2, 222089, Note_on_c, 5, 53, 127
2, 222089, Note_on_c, 11, 70, 127
2, 222177, Note_off_c, 11, 70, 127
2, 222179, Note_on_c, 10, 69, 127
2, 222267, Note_off_c, 10, 69, 127
2, 222269, Note_on_c, 11, 70, 127
2, 222357, Note_off_c, 11, 70, 127
2, 222359, Note_on_c, 10, 69, 127
2, 222447, Note_off_c, 5, 53, 127
2, 222447, Note_off_c, 3, 63, 127
2, 222449, Note_on_c, 5, 53, 127
2, 222449, Note_on_c, 7, 67, 127
2, 222810, Note_off_c, 7, 67, 127
2, 222810, Note_off_c, 5, 53, 127
2, 222811, Note_on_c, 5, 41, 127
2, 222811, Note_on_c, 7, 67, 127
2, 223170, Note_off_c, 7, 67, 127
2, 223172, Note_off_c, 5, 41, 127
2, 223174, Note_on_c, 5, 41, 127
2, 223174, Note_on_c, 5, 65, 127
2, 223353, Note_off_c, 5, 65, 127
2, 223355, Note_on_c, 3, 63, 127
2, 223534, Note_off_c, 3, 63, 127
2, 223535, Note_off_c, 5, 41, 127
2, 223535, Note_off_c, 10, 69, 127
2, 223537, Note_on_c, 11, 46, 127
2, 223537, Note_on_c, 11, 70, 127
2, 223537, Note_on_c, 3, 63, 127
2, 223898, Note_off_c, 11, 46, 127
2, 223899, Note_on_c, 2, 50, 127
2, 224078, Note_off_c, 2, 50, 127
2, 224079, Note_off_c, 3, 63, 127
2, 224081, Note_on_c, 5, 53, 127
2, 224081, Note_on_c, 0, 60, 127
2, 224260, Note_off_c, 0, 60, 127
2, 224260, Note_off_c, 5, 53, 127
2, 224262, Note_on_c, 11, 58, 127
2, 224262, Note_on_c, 0, 60, 127
2, 224623, Note_off_c, 0, 60, 127
2, 224625, Note_on_c, 2, 62, 127
2, 224713, Note_off_c, 2, 62, 127
2, 224715, Note_on_c, 0, 60, 127
2, 224803, Note_off_c, 0, 60, 127
2, 224805, Note_on_c, 2, 62, 127
2, 225708, Note_off_c, 11, 70, 127
2, 225709, Note_off_c, 11, 58, 127
2, 225710, Note_off_c, 2, 62, 127
2, 225711, Note_on_c, 11, 58, 127
2, 225711, Note_on_c, 5, 65, 127
2, 225711, Note_on_c, 2, 62, 127
2, 225799, Note_off_c, 5, 65, 127
2, 225801, Note_on_c, 3, 63, 127
2, 225889, Note_off_c, 3, 63, 127
2, 225891, Note_on_c, 5, 65, 127
2, 226070, Note_off_c, 11, 58, 127
2, 226073, Note_on_c, 11, 58, 127
2, 226238, Note_off_c, 2, 62, 127
2, 226252, Note_off_c, 5, 65, 127
2, 226254, Note_on_c, 3, 63, 127
2, 226254, Note_on_c, 0, 60, 127
2, 226433, Note_off_c, 0, 60, 127
2, 226433, Note_off_c, 3, 63, 127
2, 226434, Note_off_c, 11, 58, 127
2, 226435, Note_on_c, 11, 58, 127
2, 226435, Note_on_c, 3, 63, 127
2, 226435, Note_on_c, 0, 60, 127
2, 226796, Note_off_c, 0, 60, 127
2, 226796, Note_off_c, 3, 63, 127
2, 226796, Note_off_c, 11, 58, 127
2, 226798, Note_on_c, 11, 58, 127
2, 226798, Note_on_c, 2, 62, 127
2, 226798, Note_on_c, 5, 65, 127
2, 226886, Note_off_c, 5, 65, 127
2, 226888, Note_on_c, 3, 63, 127
2, 226976, Note_off_c, 3, 63, 127
2, 226978, Note_on_c, 5, 65, 127
2, 227149, Note_off_c, 2, 62, 127
2, 227157, Note_off_c, 5, 65, 127
2, 227157, Note_off_c, 11, 58, 127
2, 227159, Note_on_c, 11, 58, 127
2, 227159, Note_on_c, 3, 63, 127
2, 227251, Note_on_c, 5, 65, 127
2, 227339, Note_off_c, 5, 65, 127
2, 227340, Note_on_c, 7, 67, 127
2, 227520, Note_off_c, 11, 58, 127
2, 227522, Note_on_c, 11, 58, 127
2, 227876, Note_off_c, 3, 63, 127
2, 227882, Note_off_c, 7, 67, 127
2, 227883, Note_off_c, 11, 58, 127
2, 227884, Note_on_c, 12, 59, 127
2, 227884, Note_on_c, 5, 65, 127
2, 227884, Note_on_c, 11, 70, 127
2, 228003, Note_off_c, 11, 70, 127
2, 228005, Note_on_c, 8, 68, 127
2, 228142, Note_off_c, 8, 68, 127
2, 228157, Note_on_c, 7, 67, 127
2, 228245, Note_off_c, 7, 67, 127
2, 228247, Note_on_c, 8, 68, 127
2, 228426, Note_off_c, 8, 68, 127
2, 228429, Note_on_c, 11, 70, 127
2, 228601, Note_off_c, 5, 65, 127
2, 228608, Note_off_c, 11, 70, 127
2, 228610, Note_on_c, 8, 68, 127
2, 228610, Note_on_c, 5, 65, 127
2, 228789, Note_off_c, 12, 59, 127
2, 228791, Note_on_c, 0, 60, 127
2, 228969, Note_off_c, 8, 68, 127
2, 228970, Note_off_c, 0, 60, 127
2, 228973, Note_on_c, 2, 62, 127
2, 228973, Note_on_c, 7, 67, 127
2, 229152, Note_off_c, 2, 62, 127
2, 229154, Note_on_c, 0, 60, 127
2, 229333, Note_off_c, 0, 60, 127
2, 229335, Note_on_c, 12, 59, 127
2, 229514, Note_off_c, 12, 59, 127
2, 229517, Note_on_c, 0, 60, 127
2, 229696, Note_off_c, 0, 60, 127
2, 229698, Note_on_c, 10, 57, 127
2, 229877, Note_off_c, 10, 57, 127
2, 229879, Note_on_c, 12, 59, 127
2, 230058, Note_off_c, 12, 59, 127
2, 230059, Note_off_c, 7, 67, 127
2, 230059, Note_off_c, 5, 65, 127
2, 230061, Note_on_c, 0, 60, 127
2, 230061, Note_on_c, 7, 67, 127
2, 230061, Note_on_c, 3, 63, 127
2, 230422, Note_off_c, 0, 60, 127
2, 230423, Note_on_c, 0, 60, 127
2, 230603, Note_off_c, 3, 63, 127
2, 230603, Note_off_c, 7, 67, 127
2, 230605, Note_on_c, 5, 65, 127
2, 230605, Note_on_c, 10, 69, 127
2, 230784, Note_off_c, 10, 69, 127
2, 230784, Note_off_c, 5, 65, 127
2, 230784, Note_off_c, 0, 60, 127
2, 230786, Note_on_c, 8, 56, 127
2, 230786, Note_on_c, 3, 63, 127
2, 230786, Note_on_c, 12, 71, 127
2, 231145, Note_off_c, 3, 63, 127
2, 231147, Note_off_c, 8, 56, 127
2, 231149, Note_on_c, 8, 56, 127
2, 231149, Note_on_c, 2, 62, 127
2, 231503, Note_off_c, 12, 71, 127
2, 231507, Note_off_c, 2, 62, 127
2, 231508, Note_off_c, 8, 56, 127
2, 231510, Note_on_c, 6, 54, 127
2, 231510, Note_on_c, 0, 72, 127
2, 231510, Note_on_c, 3, 63, 127
2, 231871, Note_off_c, 6, 54, 127
2, 231873, Note_on_c, 6, 54, 127
2, 232233, Note_off_c, 3, 63, 127
2, 232233, Note_off_c, 0, 72, 127
2, 232234, Note_off_c, 6, 54, 127
2, 232235, Note_on_c, 7, 55, 127
2, 232235, Note_on_c, 5, 65, 127
2, 232235, Note_on_c, 0, 72, 127
2, 232323, Note_off_c, 5, 65, 127
2, 232325, Note_on_c, 3, 63, 127
2, 232413, Note_off_c, 3, 63, 127
2, 232415, Note_on_c, 2, 62, 127
2, 232594, Note_off_c, 2, 62, 127
2, 232596, Note_on_c, 3, 63, 127
2, 232775, Note_off_c, 3, 63, 127
2, 232778, Note_on_c, 5, 65, 127
2, 232951, Note_off_c, 0, 72, 127
2, 232957, Note_off_c, 5, 65, 127
2, 232959, Note_on_c, 3, 63, 127
2, 232959, Note_on_c, 12, 71, 127
2, 233138, Note_off_c, 7, 55, 127
2, 233141, Note_on_c, 5, 53, 127
2, 233320, Note_off_c, 5, 53, 127
2, 233320, Note_off_c, 3, 63, 127
2, 233322, Note_on_c, 7, 55, 127
2, 233322, Note_on_c, 2, 62, 127
2, 233501, Note_off_c, 7, 55, 127
2, 233503, Note_on_c, 8, 56, 127
2, 233682, Note_off_c, 8, 56, 127
2, 233685, Note_on_c, 7, 55, 127
2, 233864, Note_off_c, 7, 55, 127
2, 233866, Note_on_c, 8, 56, 127
2, 234045, Note_off_c, 8, 56, 127
2, 234047, Note_on_c, 7, 55, 127
2, 234226, Note_off_c, 7, 55, 127
2, 234229, Note_on_c, 5, 53, 127
2, 234408, Note_off_c, 5, 53, 127
2, 234408, Note_off_c, 2, 62, 127
2, 234408, Note_off_c, 12, 71, 127
2, 234410, Note_on_c, 3, 51, 127
2, 234410, Note_on_c, 0, 72, 127
2, 234410, Note_on_c, 3, 63, 127
2, 234771, Note_off_c, 3, 51, 127
2, 234773, Note_on_c, 3, 51, 127
2, 234952, Note_off_c, 3, 63, 127
2, 234952, Note_off_c, 0, 72, 127
2, 234954, Note_on_c, 2, 62, 127
2, 234954, Note_on_c, 12, 71, 127
2, 235133, Note_off_c, 12, 71, 127
2, 235133, Note_off_c, 2, 62, 127
2, 235134, Note_off_c, 3, 51, 127
2, 235135, Note_on_c, 7, 55, 127
2, 235135, Note_on_c, 2, 62, 127
2, 235135, Note_on_c, 12, 71, 127
2, 235314, Note_off_c, 12, 71, 127
2, 235314, Note_off_c, 2, 62, 127
2, 235317, Note_on_c, 0, 72, 127
2, 235317, Note_on_c, 3, 63, 127
2, 235496, Note_off_c, 7, 55, 127
2, 235498, Note_on_c, 7, 55, 127
2, 235678, Note_off_c, 3, 63, 127
2, 235678, Note_off_c, 0, 72, 127
2, 235679, Note_on_c, 5, 65, 127
2, 235679, Note_on_c, 2, 74, 127
2, 235858, Note_off_c, 2, 74, 127
2, 235858, Note_off_c, 5, 65, 127
2, 235859, Note_off_c, 7, 55, 127
2, 235861, Note_on_c, 0, 48, 127
2, 235861, Note_on_c, 5, 65, 127
2, 235861, Note_on_c, 2, 74, 127
2, 236222, Note_off_c, 2, 74, 127
2, 236222, Note_off_c, 5, 65, 127
2, 236222, Note_off_c, 0, 48, 127
2, 236223, Note_on_c, 0, 48, 127
2, 236223, Note_on_c, 7, 67, 127
2, 236223, Note_on_c, 3, 75, 127
2, 236584, Note_off_c, 0, 48, 127
2, 236586, Note_on_c, 5, 53, 127
2, 236940, Note_off_c, 3, 75, 127
2, 236940, Note_off_c, 7, 67, 127
2, 236947, Note_off_c, 5, 53, 127
2, 236949, Note_on_c, 5, 53, 127
2, 237130, Note_on_c, 3, 63, 127
2, 237130, Note_on_c, 0, 72, 127
2, 237309, Note_off_c, 0, 72, 127
2, 237309, Note_off_c, 3, 63, 127
2, 237310, Note_off_c, 5, 53, 127
2, 237312, Note_on_c, 8, 56, 127
2, 237312, Note_on_c, 3, 63, 127
2, 237312, Note_on_c, 0, 72, 127
2, 237491, Note_off_c, 0, 72, 127
2, 237491, Note_off_c, 3, 63, 127
2, 237493, Note_on_c, 5, 65, 127
2, 237493, Note_on_c, 2, 74, 127
2, 237673, Note_off_c, 8, 56, 127
2, 237674, Note_on_c, 8, 56, 127
2, 237854, Note_off_c, 2, 74, 127
2, 237854, Note_off_c, 5, 65, 127
2, 237856, Note_on_c, 7, 67, 127
2, 237856, Note_on_c, 3, 75, 127
2, 238035, Note_off_c, 3, 75, 127
2, 238035, Note_off_c, 7, 67, 127
2, 238035, Note_off_c, 8, 56, 127
2, 238037, Note_on_c, 12, 47, 127
2, 238037, Note_on_c, 7, 67, 127
2, 238037, Note_on_c, 3, 75, 127
2, 238396, Note_off_c, 3, 75, 127
2, 238396, Note_off_c, 7, 67, 127
2, 238398, Note_off_c, 12, 47, 127
2, 238400, Note_on_c, 12, 47, 127
2, 238400, Note_on_c, 8, 68, 127
2, 238400, Note_on_c, 5, 77, 127
2, 238761, Note_off_c, 12, 47, 127
2, 238762, Note_on_c, 0, 48, 127
2, 239117, Note_off_c, 5, 77, 127
2, 239117, Note_off_c, 8, 68, 127
2, 239123, Note_off_c, 0, 48, 127
2, 239125, Note_on_c, 0, 48, 127
2, 239306, Note_on_c, 3, 75, 127
2, 239306, Note_on_c, 7, 67, 127
2, 239485, Note_off_c, 7, 67, 127
2, 239485, Note_off_c, 3, 75, 127
2, 239486, Note_off_c, 0, 48, 127
2, 239488, Note_on_c, 7, 55, 127
2, 239488, Note_on_c, 3, 75, 127
2, 239488, Note_on_c, 7, 67, 127
2, 239669, Note_on_c, 5, 65, 127
2, 239669, Note_on_c, 2, 74, 127
2, 239677, Note_off_c, 7, 67, 127
2, 239677, Note_off_c, 3, 75, 127
2, 239849, Note_off_c, 7, 55, 127
2, 239850, Note_on_c, 7, 55, 127
2, 240030, Note_off_c, 2, 74, 127
2, 240030, Note_off_c, 5, 65, 127
2, 240032, Note_on_c, 3, 63, 127
2, 240032, Note_on_c, 0, 72, 127
2, 240211, Note_off_c, 0, 72, 127
2, 240211, Note_off_c, 3, 63, 127
2, 240211, Note_off_c, 7, 55, 127
2, 240213, Note_on_c, 7, 43, 127
2, 240213, Note_on_c, 0, 72, 127
2, 240213, Note_on_c, 3, 63, 127
2, 240395, Note_off_c, 3, 63, 127
2, 240395, Note_off_c, 0, 72, 127
2, 240395, Note_on_c, 2, 74, 127
2, 240395, Note_on_c, 5, 65, 127
2, 240574, Note_off_c, 7, 43, 127
2, 240576, Note_on_c, 7, 43, 127
2, 240756, Note_off_c, 5, 65, 127
2, 240756, Note_off_c, 2, 74, 127
2, 240757, Note_on_c, 12, 71, 127
2, 240757, Note_on_c, 2, 62, 127
2, 240936, Note_off_c, 2, 62, 127
2, 240936, Note_off_c, 12, 71, 127
2, 240937, Note_off_c, 7, 43, 127
2, 240939, Note_on_c, 0, 48, 127
2, 240939, Note_on_c, 0, 72, 127
2, 240939, Note_on_c, 2, 62, 127
2, 241300, Note_off_c, 2, 62, 127
2, 241300, Note_off_c, 0, 48, 127
2, 241301, Note_on_c, 0, 48, 127
2, 241301, Note_on_c, 3, 63, 127
2, 241662, Note_off_c, 0, 48, 127
2, 241664, Note_on_c, 11, 46, 127
2, 242025, Note_off_c, 11, 46, 127
2, 242025, Note_off_c, 0, 72, 127
2, 242027, Note_on_c, 11, 46, 127
2, 242027, Note_on_c, 7, 67, 127
2, 242206, Note_off_c, 7, 67, 127
2, 242208, Note_on_c, 5, 65, 127
2, 242387, Note_off_c, 5, 65, 127
2, 242388, Note_off_c, 11, 46, 127
2, 242389, Note_on_c, 8, 44, 127
2, 242389, Note_on_c, 7, 67, 127
2, 242568, Note_off_c, 7, 67, 127
2, 242571, Note_on_c, 8, 68, 127
2, 242750, Note_off_c, 8, 68, 127
2, 242750, Note_off_c, 8, 44, 127
2, 242752, Note_on_c, 8, 44, 127
2, 242752, Note_on_c, 7, 67, 127
2, 242931, Note_off_c, 7, 67, 127
2, 242933, Note_on_c, 8, 68, 127
2, 243112, Note_off_c, 8, 68, 127
2, 243113, Note_off_c, 8, 44, 127
2, 243115, Note_on_c, 7, 43, 127
2, 243115, Note_on_c, 8, 68, 127
2, 243474, Note_off_c, 8, 68, 127
2, 243477, Note_on_c, 11, 70, 127
2, 243652, Note_off_c, 3, 63, 127
2, 243659, Note_on_c, 5, 65, 127
2, 243838, Note_off_c, 5, 65, 127
2, 243840, Note_on_c, 5, 65, 127
2, 244019, Note_off_c, 5, 65, 127
2, 244020, Note_off_c, 7, 43, 127
2, 244022, Note_on_c, 8, 44, 127
2, 244022, Note_on_c, 3, 63, 127
2, 244201, Note_off_c, 3, 63, 127
2, 244201, Note_off_c, 8, 44, 127
2, 244203, Note_on_c, 7, 43, 127
2, 244203, Note_on_c, 1, 61, 127
2, 244382, Note_off_c, 7, 43, 127
2, 244384, Note_on_c, 5, 41, 127
2, 244563, Note_off_c, 5, 41, 127
2, 244564, Note_off_c, 1, 61, 127
2, 244566, Note_on_c, 7, 43, 127
2, 244566, Note_on_c, 0, 60, 127
2, 244745, Note_off_c, 7, 43, 127
2, 244747, Note_on_c, 3, 39, 127
2, 244926, Note_off_c, 3, 39, 127
2, 244927, Note_off_c, 0, 60, 127
2, 244928, Note_on_c, 5, 41, 127
2, 244928, Note_on_c, 1, 61, 127
2, 245107, Note_off_c, 5, 41, 127
2, 245110, Note_on_c, 7, 43, 127
2, 245289, Note_off_c, 7, 43, 127
2, 245289, Note_off_c, 1, 61, 127
2, 245290, Note_off_c, 11, 70, 127
2, 245291, Note_on_c, 8, 44, 127
2, 245291, Note_on_c, 1, 61, 127
2, 245652, Note_off_c, 1, 61, 127
2, 245654, Note_on_c, 0, 60, 127
2, 245835, Note_on_c, 3, 63, 127
2, 246014, Note_off_c, 3, 63, 127
2, 246016, Note_on_c, 3, 63, 127
2, 246195, Note_off_c, 3, 63, 127
2, 246196, Note_off_c, 8, 44, 127
2, 246198, Note_on_c, 1, 49, 127
2, 246198, Note_on_c, 5, 65, 127
2, 246377, Note_off_c, 5, 65, 127
2, 246377, Note_off_c, 1, 49, 127
2, 246379, Note_on_c, 0, 48, 127
2, 246379, Note_on_c, 7, 67, 127
2, 246558, Note_off_c, 0, 48, 127
2, 246560, Note_on_c, 11, 46, 127
2, 246739, Note_off_c, 11, 46, 127
2, 246740, Note_off_c, 7, 67, 127
2, 246742, Note_on_c, 0, 48, 127
2, 246742, Note_on_c, 8, 68, 127
2, 246921, Note_off_c, 0, 48, 127
2, 246923, Note_on_c, 11, 46, 127
2, 247102, Note_off_c, 11, 46, 127
2, 247103, Note_off_c, 8, 68, 127
2, 247104, Note_on_c, 8, 44, 127
2, 247104, Note_on_c, 11, 70, 127
2, 247283, Note_off_c, 8, 44, 127
2, 247286, Note_on_c, 7, 43, 127
2, 247465, Note_off_c, 7, 43, 127
2, 247465, Note_off_c, 11, 70, 127
2, 247467, Note_on_c, 5, 41, 127
2, 247467, Note_on_c, 11, 70, 127
2, 247826, Note_off_c, 11, 70, 127
2, 247828, Note_off_c, 5, 41, 127
2, 247830, Note_on_c, 5, 41, 127
2, 247830, Note_on_c, 8, 68, 127
2, 248005, Note_off_c, 0, 60, 127
2, 248011, Note_on_c, 11, 58, 127
2, 248190, Note_off_c, 11, 58, 127
2, 248191, Note_off_c, 5, 41, 127
2, 248193, Note_on_c, 5, 53, 127
2, 248193, Note_on_c, 0, 60, 127
2, 248554, Note_off_c, 5, 53, 127
2, 248555, Note_on_c, 5, 53, 127
2, 248735, Note_off_c, 0, 60, 127
2, 248736, Note_off_c, 8, 68, 127
2, 248737, Note_on_c, 5, 65, 127
2, 248737, Note_on_c, 2, 62, 127
2, 248916, Note_off_c, 2, 62, 127
2, 248916, Note_off_c, 5, 65, 127
2, 248916, Note_off_c, 5, 53, 127
2, 248918, Note_on_c, 0, 48, 127
2, 248918, Note_on_c, 7, 67, 127
2, 248918, Note_on_c, 3, 63, 127
2, 249279, Note_off_c, 0, 48, 127
2, 249281, Note_on_c, 11, 46, 127
2, 249460, Note_off_c, 3, 63, 127
2, 249460, Note_off_c, 7, 67, 127
2, 249462, Note_on_c, 8, 68, 127
2, 249462, Note_on_c, 5, 65, 127
2, 249641, Note_off_c, 5, 65, 127
2, 249641, Note_off_c, 8, 68, 127
2, 249642, Note_off_c, 11, 46, 127
2, 249643, Note_on_c, 8, 44, 127
2, 249643, Note_on_c, 7, 67, 127
2, 249643, Note_on_c, 11, 70, 127
2, 249822, Note_off_c, 11, 70, 127
2, 249822, Note_off_c, 8, 44, 127
2, 249825, Note_on_c, 5, 41, 127
2, 249825, Note_on_c, 8, 68, 127
2, 250004, Note_off_c, 8, 68, 127
2, 250004, Note_off_c, 5, 41, 127
2, 250006, Note_on_c, 7, 43, 127
2, 250006, Note_on_c, 11, 70, 127
2, 250185, Note_off_c, 11, 70, 127
2, 250185, Note_off_c, 7, 43, 127
2, 250187, Note_on_c, 8, 44, 127
2, 250187, Note_on_c, 0, 72, 127
2, 250360, Note_off_c, 7, 67, 127
2, 250366, Note_off_c, 0, 72, 127
2, 250366, Note_off_c, 8, 44, 127
2, 250369, Note_on_c, 11, 46, 127
2, 250369, Note_on_c, 7, 67, 127
2, 250369, Note_on_c, 2, 62, 127
2, 250548, Note_off_c, 11, 46, 127
2, 250550, Note_on_c, 0, 48, 127
2, 250729, Note_off_c, 0, 48, 127
2, 250730, Note_off_c, 7, 67, 127
2, 250731, Note_on_c, 2, 50, 127
2, 250731, Note_on_c, 5, 65, 127
2, 250819, Note_off_c, 5, 65, 127
2, 250821, Note_on_c, 7, 67, 127
2, 250909, Note_off_c, 7, 67, 127
2, 250909, Note_off_c, 2, 50, 127
2, 250911, Note_on_c, 3, 51, 127
2, 250911, Note_on_c, 5, 65, 127
2, 250999, Note_off_c, 5, 65, 127
2, 251001, Note_on_c, 7, 67, 127
2, 251089, Note_off_c, 7, 67, 127
2, 251089, Note_off_c, 3, 51, 127
2, 251091, Note_on_c, 5, 53, 127
2, 251091, Note_on_c, 5, 65, 127
2, 251270, Note_off_c, 5, 53, 127
2, 251272, Note_on_c, 7, 55, 127
2, 251451, Note_off_c, 7, 55, 127
2, 251454, Note_on_c, 8, 56, 127
2, 251633, Note_off_c, 8, 56, 127
2, 251635, Note_on_c, 11, 58, 127
2, 251814, Note_off_c, 11, 58, 127
2, 251814, Note_off_c, 5, 65, 127
2, 251815, Note_off_c, 2, 62, 127
2, 251816, Note_on_c, 3, 51, 127
2, 251816, Note_on_c, 7, 67, 127
2, 251816, Note_on_c, 11, 70, 127
2, 252358, Note_off_c, 11, 70, 127
2, 252358, Note_off_c, 7, 67, 127
2, 252361, Note_on_c, 8, 68, 127
2, 252361, Note_on_c, 5, 65, 127
2, 252540, Note_off_c, 5, 65, 127
2, 252540, Note_off_c, 8, 68, 127
2, 252542, Note_on_c, 8, 68, 127
2, 252542, Note_on_c, 5, 65, 127
2, 252721, Note_off_c, 3, 51, 127
2, 252723, Note_on_c, 7, 55, 127
2, 252902, Note_off_c, 7, 55, 127
2, 252903, Note_off_c, 5, 65, 127
2, 252903, Note_off_c, 8, 68, 127
2, 252905, Note_on_c, 5, 53, 127
2, 252905, Note_on_c, 7, 67, 127
2, 252905, Note_on_c, 11, 70, 127
2, 252993, Note_off_c, 11, 70, 127
2, 252994, Note_on_c, 8, 68, 127
2, 253082, Note_off_c, 8, 68, 127
2, 253083, Note_off_c, 5, 53, 127
2, 253084, Note_on_c, 3, 51, 127
2, 253084, Note_on_c, 11, 70, 127
2, 253258, Note_off_c, 7, 67, 127
2, 253263, Note_off_c, 11, 70, 127
2, 253263, Note_off_c, 3, 51, 127
2, 253266, Note_on_c, 1, 49, 127
2, 253266, Note_on_c, 8, 68, 127
2, 253357, Note_on_c, 11, 70, 127
2, 253445, Note_off_c, 11, 70, 127
2, 253445, Note_off_c, 1, 49, 127
2, 253447, Note_on_c, 0, 48, 127
2, 253447, Note_on_c, 0, 72, 127
2, 253626, Note_off_c, 0, 48, 127
2, 253628, Note_on_c, 11, 46, 127
2, 253807, Note_off_c, 11, 46, 127
2, 253810, Note_on_c, 8, 44, 127
2, 253983, Note_off_c, 8, 68, 127
2, 253989, Note_off_c, 8, 44, 127
2, 253989, Note_off_c, 0, 72, 127
2, 253991, Note_on_c, 7, 43, 127
2, 253991, Note_on_c, 11, 70, 127
2, 253991, Note_on_c, 3, 75, 127
2, 254079, Note_off_c, 3, 75, 127
2, 254081, Note_on_c, 1, 73, 127
2, 254169, Note_off_c, 1, 73, 127
2, 254169, Note_off_c, 7, 43, 127
2, 254171, Note_on_c, 3, 39, 127
2, 254171, Note_on_c, 0, 72, 127
2, 254350, Note_off_c, 0, 72, 127
2, 254350, Note_off_c, 3, 39, 127
2, 254352, Note_on_c, 5, 41, 127
2, 254352, Note_on_c, 1, 73, 127
2, 254531, Note_off_c, 1, 73, 127
2, 254531, Note_off_c, 5, 41, 127
2, 254534, Note_on_c, 7, 43, 127
2, 254534, Note_on_c, 3, 75, 127
2, 254713, Note_off_c, 3, 75, 127
2, 254713, Note_off_c, 7, 43, 127
2, 254715, Note_on_c, 8, 44, 127
2, 254715, Note_on_c, 1, 73, 127
2, 254894, Note_off_c, 8, 44, 127
2, 254896, Note_on_c, 11, 46, 127
2, 255075, Note_off_c, 11, 46, 127
2, 255076, Note_off_c, 1, 73, 127
2, 255078, Note_on_c, 0, 48, 127
2, 255078, Note_on_c, 0, 72, 127
2, 255255, Note_off_c, 11, 70, 127
2, 255257, Note_off_c, 0, 48, 127
2, 255259, Note_on_c, 8, 44, 127
2, 255259, Note_on_c, 7, 67, 127
2, 255438, Note_off_c, 7, 67, 127
2, 255438, Note_off_c, 8, 44, 127
2, 255440, Note_on_c, 5, 41, 127
2, 255440, Note_on_c, 8, 68, 127
2, 255606, Note_off_c, 0, 72, 127
2, 255619, Note_off_c, 5, 41, 127
2, 255622, Note_on_c, 7, 43, 127
2, 255622, Note_on_c, 11, 70, 127
2, 255801, Note_off_c, 11, 70, 127
2, 255801, Note_off_c, 7, 43, 127
2, 255803, Note_on_c, 8, 44, 127
2, 255803, Note_on_c, 0, 72, 127
2, 255982, Note_off_c, 0, 72, 127
2, 255982, Note_off_c, 8, 44, 127
2, 255984, Note_on_c, 11, 46, 127
2, 255984, Note_on_c, 2, 74, 127
2, 256157, Note_off_c, 8, 68, 127
2, 256163, Note_off_c, 2, 74, 127
2, 256163, Note_off_c, 11, 46, 127
2, 256166, Note_on_c, 0, 48, 127
2, 256166, Note_on_c, 3, 75, 127
2, 256166, Note_on_c, 7, 67, 127
2, 256345, Note_off_c, 3, 75, 127
2, 256345, Note_off_c, 0, 48, 127
2, 256347, Note_on_c, 11, 46, 127
2, 256347, Note_on_c, 2, 74, 127
2, 256526, Note_off_c, 2, 74, 127
2, 256526, Note_off_c, 11, 46, 127
2, 256528, Note_on_c, 0, 48, 127
2, 256528, Note_on_c, 3, 75, 127
2, 256694, Note_off_c, 7, 67, 127
2, 256707, Note_off_c, 3, 75, 127
2, 256707, Note_off_c, 0, 48, 127
2, 256710, Note_on_c, 8, 44, 127
2, 256710, Note_on_c, 5, 77, 127
2, 256710, Note_on_c, 8, 68, 127
2, 256889, Note_off_c, 8, 68, 127
2, 256889, Note_off_c, 5, 77, 127
2, 256889, Note_off_c, 8, 44, 127
2, 256891, Note_on_c, 11, 46, 127
2, 256891, Note_on_c, 3, 75, 127
2, 256891, Note_on_c, 5, 65, 127
2, 257078, Note_off_c, 3, 75, 127
2, 257080, Note_on_c, 2, 74, 127
2, 257267, Note_off_c, 11, 46, 127
2, 257269, Note_on_c, 11, 46, 127
2, 257444, Note_off_c, 5, 65, 127
2, 257460, Note_on_c, 0, 72, 127
2, 257647, Note_off_c, 0, 72, 127
2, 257647, Note_off_c, 11, 46, 127
2, 257649, Note_on_c, 11, 58, 127
2, 257649, Note_on_c, 0, 72, 127
2, 257836, Note_off_c, 0, 72, 127
2, 257838, Note_on_c, 11, 70, 127
2, 258025, Note_off_c, 11, 58, 127
2, 258027, Note_on_c, 11, 58, 127
2, 258214, Note_off_c, 11, 70, 127
2, 258216, Note_on_c, 8, 68, 127
2, 258402, Note_off_c, 2, 74, 127
2, 258403, Note_off_c, 8, 68, 127
2, 258403, Note_off_c, 11, 58, 127
2, 258406, Note_on_c, 3, 51, 127
2, 258406, Note_on_c, 3, 75, 127
2, 258406, Note_on_c, 8, 68, 127
2, 258849, Note_off_c, 3, 51, 127
2, 258850, Note_on_c, 7, 55, 127
2, 259070, Note_off_c, 7, 55, 127
2, 259070, Note_off_c, 8, 68, 127
2, 259072, Note_on_c, 11, 58, 127
2, 259072, Note_on_c, 5, 65, 127
2, 259292, Note_off_c, 5, 65, 127
2, 259292, Note_off_c, 11, 58, 127
2, 259294, Note_on_c, 3, 63, 127
2, 259294, Note_on_c, 5, 65, 127
2, 259514, Note_off_c, 5, 65, 127
2, 259515, Note_on_c, 7, 67, 127
2, 259623, Note_off_c, 7, 67, 127
2, 259625, Note_on_c, 5, 65, 127
2, 259733, Note_off_c, 5, 65, 127
2, 259735, Note_on_c, 7, 67, 127
2, 261953, Note_off_c, 3, 75, 127
2, 261963, Note_off_c, 3, 63, 127
2, 261967, Note_off_c, 7, 67, 127
2, 263753, Note_on_c, 3, 75, 127
2, 263931, Note_off_c, 3, 75, 127
2, 263933, Note_on_c, 11, 70, 127
2, 264111, Note_off_c, 11, 70, 127
2, 264113, Note_on_c, 7, 67, 127
2, 264469, Note_off_c, 7, 67, 127
2, 264471, Note_on_c, 3, 51, 127
2, 264471, Note_on_c, 7, 55, 127
2, 264471, Note_on_c, 3, 63, 127
2, 264649, Note_off_c, 3, 63, 127
2, 264649, Note_off_c, 7, 55, 127
2, 264650, Note_on_c, 5, 53, 127
2, 264650, Note_on_c, 2, 62, 127
2, 264828, Note_off_c, 2, 62, 127
2, 264828, Note_off_c, 5, 53, 127
2, 264830, Note_on_c, 7, 55, 127
2, 264830, Note_on_c, 3, 63, 127
2, 264918, Note_off_c, 3, 63, 127
2, 264920, Note_on_c, 2, 62, 127
2, 265008, Note_off_c, 2, 62, 127
2, 265010, Note_on_c, 3, 63, 127
2, 265188, Note_off_c, 3, 63, 127
2, 265188, Note_off_c, 7, 55, 127
2, 265190, Note_on_c, 8, 56, 127
2, 265190, Note_on_c, 7, 67, 127
2, 265278, Note_off_c, 7, 67, 127
2, 265280, Note_on_c, 5, 65, 127
2, 265368, Note_off_c, 5, 65, 127
2, 265370, Note_on_c, 3, 63, 127
2, 265458, Note_off_c, 3, 63, 127
2, 265460, Note_on_c, 5, 65, 127
2, 265548, Note_off_c, 5, 65, 127
2, 265548, Note_off_c, 8, 56, 127
2, 265549, Note_on_c, 11, 58, 127
2, 265549, Note_on_c, 7, 67, 127
2, 265901, Note_off_c, 3, 51, 127
2, 265905, Note_off_c, 7, 67, 127
2, 265905, Note_off_c, 11, 58, 127
2, 265908, Note_on_c, 3, 51, 127
2, 265908, Note_on_c, 0, 72, 127
2, 266086, Note_off_c, 0, 72, 127
2, 266086, Note_off_c, 3, 51, 127
2, 266087, Note_on_c, 2, 50, 127
2, 266087, Note_on_c, 11, 70, 127
2, 266265, Note_off_c, 11, 70, 127
2, 266265, Note_off_c, 2, 50, 127
2, 266267, Note_on_c, 3, 51, 127
2, 266267, Note_on_c, 0, 72, 127
2, 266355, Note_off_c, 0, 72, 127
2, 266357, Note_on_c, 11, 70, 127
2, 266445, Note_off_c, 11, 70, 127
2, 266447, Note_on_c, 0, 72, 127
2, 266625, Note_off_c, 0, 72, 127
2, 266625, Note_off_c, 3, 51, 127
2, 266627, Note_on_c, 5, 53, 127
2, 266627, Note_on_c, 8, 68, 127
2, 266983, Note_off_c, 8, 68, 127
2, 266983, Note_off_c, 5, 53, 127
2, 266985, Note_on_c, 7, 55, 127
2, 266985, Note_on_c, 11, 70, 127
2, 267341, Note_off_c, 11, 70, 127
2, 267341, Note_off_c, 7, 55, 127
2, 267343, Note_on_c, 0, 60, 127
2, 267343, Note_on_c, 3, 75, 127
2, 267521, Note_off_c, 3, 75, 127
2, 267521, Note_off_c, 0, 60, 127
2, 267523, Note_on_c, 11, 58, 127
2, 267523, Note_on_c, 2, 74, 127
2, 267701, Note_off_c, 2, 74, 127
2, 267701, Note_off_c, 11, 58, 127
2, 267702, Note_on_c, 0, 60, 127
2, 267702, Note_on_c, 3, 75, 127
2, 268058, Note_off_c, 3, 75, 127
2, 268058, Note_off_c, 0, 60, 127
2, 268060, Note_on_c, 8, 56, 127
2, 268060, Note_on_c, 7, 79, 127
2, 268148, Note_off_c, 7, 79, 127
2, 268150, Note_on_c, 5, 77, 127
2, 268238, Note_off_c, 5, 77, 127
2, 268240, Note_on_c, 3, 75, 127
2, 268328, Note_off_c, 3, 75, 127
2, 268330, Note_on_c, 5, 77, 127
2, 268418, Note_off_c, 5, 77, 127
2, 268418, Note_off_c, 8, 56, 127
2, 268420, Note_on_c, 11, 58, 127
2, 268420, Note_on_c, 3, 75, 127
2, 268598, Note_off_c, 3, 75, 127
2, 268600, Note_on_c, 2, 74, 127
2, 268778, Note_off_c, 2, 74, 127
2, 268778, Note_off_c, 11, 58, 127
2, 268780, Note_on_c, 0, 60, 127
2, 268780, Note_on_c, 0, 72, 127
2, 268958, Note_off_c, 0, 72, 127
2, 268959, Note_on_c, 2, 74, 127
2, 269137, Note_off_c, 2, 74, 127
2, 269138, Note_off_c, 0, 60, 127
2, 269139, Note_on_c, 2, 62, 127
2, 269139, Note_on_c, 11, 70, 127
2, 269495, Note_off_c, 11, 70, 127
2, 269495, Note_off_c, 2, 62, 127
2, 269497, Note_on_c, 11, 58, 127
2, 269497, Note_on_c, 5, 77, 127
2, 269675, Note_off_c, 5, 77, 127
2, 269677, Note_on_c, 2, 74, 127
2, 269855, Note_off_c, 2, 74, 127
2, 269855, Note_off_c, 11, 58, 127
2, 269857, Note_on_c, 0, 60, 127
2, 269857, Note_on_c, 11, 70, 127
2, 270213, Note_off_c, 11, 70, 127
2, 270213, Note_off_c, 0, 60, 127
2, 270215, Note_on_c, 5, 65, 127
2, 270215, Note_on_c, 11, 70, 127
2, 270303, Note_off_c, 11, 70, 127
2, 270305, Note_on_c, 8, 68, 127
2, 270393, Note_off_c, 8, 68, 127
2, 270395, Note_on_c, 7, 67, 127
2, 270573, Note_off_c, 7, 67, 127
2, 270573, Note_off_c, 5, 65, 127
2, 270575, Note_on_c, 2, 62, 127
2, 270575, Note_on_c, 8, 68, 127
2, 270931, Note_off_c, 8, 68, 127
2, 270931, Note_off_c, 2, 62, 127
2, 270933, Note_on_c, 11, 58, 127
2, 270933, Note_on_c, 5, 77, 127
2, 271111, Note_off_c, 5, 77, 127
2, 271112, Note_on_c, 2, 74, 127
2, 271290, Note_off_c, 2, 74, 127
2, 271291, Note_off_c, 11, 58, 127
2, 271292, Note_on_c, 3, 63, 127
2, 271292, Note_on_c, 11, 70, 127
2, 271470, Note_off_c, 11, 70, 127
2, 271472, Note_on_c, 7, 67, 127
2, 271650, Note_off_c, 7, 67, 127
2, 271650, Note_off_c, 3, 63, 127
2, 271652, Note_on_c, 11, 58, 127
2, 271652, Note_on_c, 8, 68, 127
2, 271830, Note_off_c, 8, 68, 127
2, 271832, Note_on_c, 5, 65, 127
2, 272010, Note_off_c, 5, 65, 127
2, 272010, Note_off_c, 11, 58, 127
2, 272011, Note_on_c, 3, 51, 127
2, 272011, Note_on_c, 7, 67, 127
2, 272099, Note_off_c, 7, 67, 127
2, 272101, Note_on_c, 5, 65, 127
2, 272189, Note_off_c, 5, 65, 127
2, 272191, Note_on_c, 7, 67, 127
2, 272369, Note_off_c, 7, 67, 127
2, 272369, Note_off_c, 3, 51, 127
2, 272371, Note_on_c, 0, 60, 127
2, 272371, Note_on_c, 7, 79, 127
2, 272549, Note_off_c, 7, 79, 127
2, 272551, Note_on_c, 3, 75, 127
2, 272729, Note_off_c, 3, 75, 127
2, 272729, Note_off_c, 0, 60, 127
2, 272731, Note_on_c, 2, 62, 127
2, 272731, Note_on_c, 0, 72, 127
2, 273087, Note_off_c, 0, 72, 127
2, 273087, Note_off_c, 2, 62, 127
2, 273089, Note_on_c, 7, 67, 127
2, 273089, Note_on_c, 0, 72, 127
2, 273177, Note_off_c, 0, 72, 127
2, 273179, Note_on_c, 11, 70, 127
2, 273267, Note_off_c, 11, 70, 127
2, 273268, Note_on_c, 10, 69, 127
2, 273446, Note_off_c, 10, 69, 127
2, 273447, Note_off_c, 7, 67, 127
2, 273448, Note_on_c, 4, 64, 127
2, 273448, Note_on_c, 11, 70, 127
2, 273804, Note_off_c, 11, 70, 127
2, 273804, Note_off_c, 4, 64, 127
2, 273806, Note_on_c, 0, 60, 127
2, 273806, Note_on_c, 7, 79, 127
2, 273984, Note_off_c, 7, 79, 127
2, 273986, Note_on_c, 4, 76, 127
2, 274164, Note_off_c, 4, 76, 127
2, 274164, Note_off_c, 0, 60, 127
2, 274166, Note_on_c, 5, 65, 127
2, 274166, Note_on_c, 0, 72, 127
2, 274344, Note_off_c, 0, 72, 127
2, 274346, Note_on_c, 10, 69, 127
2, 274524, Note_off_c, 10, 69, 127
2, 274524, Note_off_c, 5, 65, 127
2, 274526, Note_on_c, 0, 60, 127
2, 274526, Note_on_c, 11, 70, 127
2, 274704, Note_off_c, 11, 70, 127
2, 274705, Note_on_c, 7, 67, 127
2, 274883, Note_off_c, 7, 67, 127
2, 274884, Note_off_c, 0, 60, 127
2, 274885, Note_on_c, 5, 53, 127
2, 274885, Note_on_c, 10, 69, 127
2, 274973, Note_off_c, 10, 69, 127
2, 274975, Note_on_c, 7, 67, 127
2, 275063, Note_off_c, 7, 67, 127
2, 275065, Note_on_c, 10, 69, 127
2, 275239, Note_off_c, 5, 53, 127
2, 275243, Note_off_c, 10, 69, 127
2, 275245, Note_on_c, 5, 65, 127
2, 275423, Note_off_c, 5, 65, 127
2, 275425, Note_on_c, 10, 69, 127
2, 275603, Note_off_c, 10, 69, 127
2, 275604, Note_on_c, 0, 72, 127
2, 275782, Note_off_c, 0, 72, 127
2, 275784, Note_on_c, 10, 69, 127
2, 275962, Note_off_c, 10, 69, 127
2, 275964, Note_on_c, 10, 57, 127
2, 275964, Note_on_c, 5, 65, 127
2, 276142, Note_off_c, 5, 65, 127
2, 276142, Note_off_c, 10, 57, 127
2, 276144, Note_on_c, 5, 53, 127
2, 276144, Note_on_c, 10, 69, 127
2, 276322, Note_off_c, 10, 69, 127
2, 276322, Note_off_c, 5, 53, 127
2, 276324, Note_on_c, 0, 48, 127
2, 276324, Note_on_c, 0, 72, 127
2, 276502, Note_off_c, 0, 72, 127
2, 276503, Note_on_c, 10, 69, 127
2, 276681, Note_off_c, 10, 69, 127
2, 276682, Note_off_c, 0, 48, 127
2, 276683, Note_on_c, 5, 53, 127
2, 276683, Note_on_c, 0, 72, 127
2, 276861, Note_off_c, 0, 72, 127
2, 276861, Note_off_c, 5, 53, 127
2, 276863, Note_on_c, 0, 48, 127
2, 276863, Note_on_c, 3, 75, 127
2, 277041, Note_off_c, 3, 75, 127
2, 277041, Note_off_c, 0, 48, 127
2, 277043, Note_on_c, 5, 41, 127
2, 277043, Note_on_c, 10, 81, 127
2, 277221, Note_off_c, 10, 81, 127
2, 277223, Note_on_c, 3, 75, 127
2, 277401, Note_off_c, 3, 75, 127
2, 277402, Note_on_c, 0, 72, 127
2, 277580, Note_off_c, 0, 72, 127
2, 277582, Note_on_c, 3, 75, 127
2, 277760, Note_off_c, 3, 75, 127
2, 277762, Note_on_c, 10, 81, 127
2, 277940, Note_off_c, 10, 81, 127
2, 277942, Note_on_c, 3, 75, 127
2, 278118, Note_off_c, 5, 41, 127
2, 278120, Note_off_c, 3, 75, 127
2, 278122, Note_on_c, 10, 81, 127
2, 278300, Note_off_c, 10, 81, 127
2, 278301, Note_on_c, 0, 84, 127
2, 278479, Note_off_c, 0, 84, 127
2, 278481, Note_on_c, 2, 74, 127
2, 278659, Note_off_c, 2, 74, 127
2, 278661, Note_on_c, 5, 77, 127
2, 278839, Note_off_c, 5, 77, 127
2, 278841, Note_on_c, 5, 53, 127
2, 278841, Note_on_c, 11, 82, 127
2, 279019, Note_off_c, 11, 82, 127
2, 279019, Note_off_c, 5, 53, 127
2, 279021, Note_on_c, 2, 50, 127
2, 279021, Note_on_c, 5, 77, 127
2, 279199, Note_off_c, 5, 77, 127
2, 279199, Note_off_c, 2, 50, 127
2, 279200, Note_on_c, 11, 46, 127
2, 279200, Note_on_c, 7, 79, 127
2, 279378, Note_off_c, 7, 79, 127
2, 279380, Note_on_c, 3, 75, 127
2, 279558, Note_off_c, 3, 75, 127
2, 279558, Note_off_c, 11, 46, 127
2, 279560, Note_on_c, 2, 50, 127
2, 279560, Note_on_c, 5, 77, 127
2, 279738, Note_off_c, 5, 77, 127
2, 279738, Note_off_c, 2, 50, 127
2, 279740, Note_on_c, 11, 46, 127
2, 279740, Note_on_c, 2, 74, 127
2, 279918, Note_off_c, 2, 74, 127
2, 279918, Note_off_c, 11, 46, 127
2, 279920, Note_on_c, 5, 41, 127
2, 279920, Note_on_c, 3, 75, 127
2, 280098, Note_off_c, 3, 75, 127
2, 280099, Note_on_c, 0, 72, 127
2, 280277, Note_off_c, 0, 72, 127
2, 280279, Note_on_c, 2, 74, 127
2, 280457, Note_off_c, 2, 74, 127
2, 280459, Note_on_c, 11, 70, 127
2, 280637, Note_off_c, 11, 70, 127
2, 280637, Note_off_c, 5, 41, 127
2, 280639, Note_on_c, 0, 72, 127
2, 280817, Note_off_c, 0, 72, 127
2, 280819, Note_on_c, 10, 69, 127
2, 280997, Note_off_c, 10, 69, 127
2, 280998, Note_on_c, 0, 48, 127
2, 280998, Note_on_c, 11, 70, 127
2, 281176, Note_off_c, 11, 70, 127
2, 281178, Note_on_c, 7, 67, 127
2, 281356, Note_off_c, 7, 67, 127
2, 281356, Note_off_c, 0, 48, 127
2, 281358, Note_on_c, 2, 50, 127
2, 281358, Note_on_c, 5, 65, 127
2, 281536, Note_off_c, 5, 65, 127
2, 281538, Note_on_c, 11, 70, 127
2, 281716, Note_off_c, 11, 70, 127
2, 281716, Note_off_c, 2, 50, 127
2, 281718, Note_on_c, 3, 51, 127
2, 281718, Note_on_c, 7, 67, 127
2, 281896, Note_off_c, 7, 67, 127
2, 281897, Note_on_c, 3, 63, 127
2, 282075, Note_off_c, 3, 63, 127
2, 282076, Note_off_c, 3, 51, 127
2, 282077, Note_on_c, 5, 53, 127
2, 282077, Note_on_c, 2, 62, 127
2, 282255, Note_off_c, 2, 62, 127
2, 282257, Note_on_c, 11, 70, 127
2, 282435, Note_off_c, 11, 70, 127
2, 282435, Note_off_c, 5, 53, 127
2, 282437, Note_on_c, 5, 41, 127
2, 282437, Note_on_c, 0, 60, 127
2, 282615, Note_off_c, 0, 60, 127
2, 282617, Note_on_c, 10, 69, 127
2, 282795, Note_off_c, 10, 69, 127
2, 282795, Note_off_c, 5, 41, 127
2, 282796, Note_on_c, 11, 46, 127
2, 282796, Note_on_c, 10, 69, 127
2, 282974, Note_off_c, 10, 69, 127
2, 282976, Note_on_c, 11, 70, 127
2, 283064, Note_off_c, 11, 70, 127
2, 283066, Note_on_c, 10, 69, 127
2, 283154, Note_off_c, 10, 69, 127
2, 283154, Note_off_c, 11, 46, 127
2, 283156, Note_on_c, 2, 50, 127
2, 283156, Note_on_c, 11, 70, 127
2, 283334, Note_off_c, 2, 50, 127
2, 283336, Note_on_c, 5, 53, 127
2, 283514, Note_off_c, 5, 53, 127
2, 283516, Note_on_c, 11, 58, 127
2, 283872, Note_off_c, 11, 70, 127
2, 283874, Note_on_c, 11, 82, 127
2, 284052, Note_off_c, 11, 82, 127
2, 284053, Note_on_c, 5, 77, 127
2, 284231, Note_off_c, 5, 77, 127
2, 284232, Note_off_c, 11, 58, 127
2, 284233, Note_on_c, 2, 74, 127
2, 284589, Note_off_c, 2, 74, 127
2, 284591, Note_on_c, 11, 58, 127
2, 284591, Note_on_c, 2, 62, 127
2, 284591, Note_on_c, 11, 70, 127
2, 284769, Note_off_c, 11, 70, 127
2, 284769, Note_off_c, 2, 62, 127
2, 284771, Note_on_c, 0, 60, 127
2, 284771, Note_on_c, 10, 69, 127
2, 284949, Note_off_c, 10, 69, 127
2, 284949, Note_off_c, 0, 60, 127
2, 284951, Note_on_c, 2, 62, 127
2, 284951, Note_on_c, 11, 70, 127
2, 285039, Note_off_c, 11, 70, 127
2, 285041, Note_on_c, 10, 69, 127
2, 285129, Note_off_c, 10, 69, 127
2, 285131, Note_on_c, 11, 70, 127
2, 285308, Note_off_c, 11, 58, 127
2, 285309, Note_off_c, 11, 70, 127
2, 285309, Note_off_c, 2, 62, 127
2, 285310, Note_on_c, 8, 56, 127
2, 285310, Note_on_c, 5, 65, 127
2, 285310, Note_on_c, 3, 75, 127
2, 285398, Note_off_c, 3, 75, 127
2, 285400, Note_on_c, 2, 74, 127
2, 285488, Note_off_c, 2, 74, 127
2, 285490, Note_on_c, 0, 72, 127
2, 285578, Note_off_c, 0, 72, 127
2, 285580, Note_on_c, 2, 74, 127
2, 285668, Note_off_c, 2, 74, 127
2, 285668, Note_off_c, 5, 65, 127
2, 285668, Note_off_c, 8, 56, 127
2, 285670, Note_on_c, 11, 58, 127
2, 285670, Note_on_c, 7, 55, 127
2, 285670, Note_on_c, 3, 75, 127
2, 285848, Note_off_c, 3, 75, 127
2, 285850, Note_on_c, 11, 70, 127
2, 286028, Note_off_c, 11, 70, 127
2, 286028, Note_off_c, 7, 55, 127
2, 286030, Note_on_c, 5, 53, 127
2, 286030, Note_on_c, 5, 77, 127
2, 286208, Note_off_c, 5, 77, 127
2, 286209, Note_on_c, 11, 70, 127
2, 286387, Note_off_c, 11, 70, 127
2, 286388, Note_off_c, 5, 53, 127
2, 286389, Note_on_c, 3, 51, 127
2, 286389, Note_on_c, 7, 79, 127
2, 286567, Note_off_c, 7, 79, 127
2, 286569, Note_on_c, 3, 75, 127
2, 286745, Note_off_c, 11, 58, 127
2, 286747, Note_off_c, 3, 75, 127
2, 286747, Note_off_c, 3, 51, 127
2, 286749, Note_on_c, 7, 55, 127
2, 286749, Note_on_c, 1, 73, 127
2, 286927, Note_off_c, 1, 73, 127
2, 286929, Note_on_c, 11, 70, 127
2, 287107, Note_off_c, 11, 70, 127
2, 287107, Note_off_c, 7, 55, 127
2, 287108, Note_on_c, 8, 56, 127
2, 287108, Note_on_c, 0, 72, 127
2, 287286, Note_off_c, 0, 72, 127
2, 287288, Note_on_c, 5, 77, 127
2, 287466, Note_off_c, 5, 77, 127
2, 287466, Note_off_c, 8, 56, 127
2, 287468, Note_on_c, 5, 53, 127
2, 287468, Note_on_c, 7, 79, 127
2, 287646, Note_off_c, 7, 79, 127
2, 287648, Note_on_c, 8, 80, 127
2, 287826, Note_off_c, 8, 80, 127
2, 287826, Note_off_c, 5, 53, 127
2, 287828, Note_on_c, 2, 50, 127
2, 287828, Note_on_c, 7, 79, 127
2, 288006, Note_off_c, 7, 79, 127
2, 288007, Note_on_c, 5, 77, 127
2, 288185, Note_off_c, 5, 77, 127
2, 288186, Note_off_c, 2, 50, 127
2, 288187, Note_on_c, 5, 53, 127
2, 288187, Note_on_c, 3, 75, 127
2, 288365, Note_off_c, 3, 75, 127
2, 288367, Note_on_c, 2, 74, 127
2, 288545, Note_off_c, 2, 74, 127
2, 288545, Note_off_c, 5, 53, 127
2, 288547, Note_on_c, 7, 55, 127
2, 288547, Note_on_c, 0, 72, 127
2, 288725, Note_off_c, 0, 72, 127
2, 288727, Note_on_c, 12, 71, 127
2, 288905, Note_off_c, 12, 71, 127
2, 288905, Note_off_c, 7, 55, 127
2, 288906, Note_on_c, 10, 57, 127
2, 288906, Note_on_c, 10, 69, 127
2, 289084, Note_off_c, 10, 69, 127
2, 289086, Note_on_c, 12, 71, 127
2, 289264, Note_off_c, 12, 71, 127
2, 289264, Note_off_c, 10, 57, 127
2, 289266, Note_on_c, 12, 59, 127
2, 289266, Note_on_c, 7, 67, 127
2, 289622, Note_off_c, 7, 67, 127
2, 289622, Note_off_c, 12, 59, 127
2, 289624, Note_on_c, 7, 55, 127
2, 289624, Note_on_c, 7, 79, 127
2, 289802, Note_off_c, 7, 79, 127
2, 289804, Note_on_c, 2, 74, 127
2, 289982, Note_off_c, 2, 74, 127
2, 289982, Note_off_c, 7, 55, 127
2, 289984, Note_on_c, 0, 60, 127
2, 289984, Note_on_c, 3, 75, 127
2, 290162, Note_off_c, 3, 75, 127
2, 290163, Note_on_c, 0, 72, 127
2, 290341, Note_off_c, 0, 72, 127
2, 290342, Note_off_c, 0, 60, 127
2, 290343, Note_on_c, 2, 62, 127
2, 290343, Note_on_c, 12, 71, 127
2, 290521, Note_off_c, 12, 71, 127
2, 290523, Note_on_c, 0, 72, 127
2, 290701, Note_off_c, 0, 72, 127
2, 290701, Note_off_c, 2, 62, 127
2, 290703, Note_on_c, 3, 63, 127
2, 290703, Note_on_c, 7, 79, 127
2, 290881, Note_off_c, 7, 79, 127
2, 290883, Note_on_c, 0, 72, 127
2, 291061, Note_off_c, 0, 72, 127
2, 291061, Note_off_c, 3, 63, 127
2, 291062, Note_on_c, 5, 65, 127
2, 291062, Note_on_c, 8, 80, 127
2, 291240, Note_off_c, 8, 80, 127
2, 291242, Note_on_c, 0, 72, 127
2, 291420, Note_off_c, 0, 72, 127
2, 291420, Note_off_c, 5, 65, 127
2, 291422, Note_on_c, 7, 67, 127
2, 291422, Note_on_c, 12, 71, 127
2, 291600, Note_off_c, 12, 71, 127
2, 291602, Note_on_c, 5, 77, 127
2, 291780, Note_off_c, 5, 77, 127
2, 291780, Note_off_c, 7, 67, 127
2, 291782, Note_on_c, 2, 62, 127
2, 291782, Note_on_c, 7, 79, 127
2, 291960, Note_off_c, 7, 79, 127
2, 291961, Note_on_c, 5, 77, 127
2, 292139, Note_off_c, 5, 77, 127
2, 292140, Note_off_c, 2, 62, 127
2, 292141, Note_on_c, 12, 59, 127
2, 292141, Note_on_c, 2, 74, 127
2, 292319, Note_off_c, 2, 74, 127
2, 292321, Note_on_c, 5, 77, 127
2, 292499, Note_off_c, 5, 77, 127
2, 292499, Note_off_c, 12, 59, 127
2, 292501, Note_on_c, 7, 55, 127
2, 292501, Note_on_c, 12, 71, 127
2, 292679, Note_off_c, 12, 71, 127
2, 292681, Note_on_c, 5, 77, 127
2, 292859, Note_off_c, 5, 77, 127
2, 292859, Note_off_c, 7, 55, 127
2, 292860, Note_on_c, 0, 60, 127
2, 292860, Note_on_c, 3, 75, 127
2, 293038, Note_off_c, 3, 75, 127
2, 293040, Note_on_c, 0, 72, 127
2, 293218, Note_off_c, 0, 72, 127
2, 293218, Note_off_c, 0, 60, 127
2, 293220, Note_on_c, 8, 56, 127
2, 293220, Note_on_c, 12, 71, 127
2, 293398, Note_off_c, 12, 71, 127
2, 293400, Note_on_c, 0, 72, 127
2, 293578, Note_off_c, 0, 72, 127
2, 293578, Note_off_c, 8, 56, 127
2, 293580, Note_on_c, 5, 53, 127
2, 293580, Note_on_c, 8, 68, 127
2, 293758, Note_off_c, 8, 68, 127
2, 293759, Note_on_c, 0, 72, 127
2, 293937, Note_off_c, 0, 72, 127
2, 293938, Note_off_c, 5, 53, 127
2, 293939, Note_on_c, 3, 51, 127
2, 293939, Note_on_c, 7, 67, 127
2, 294117, Note_off_c, 7, 67, 127
2, 294119, Note_on_c, 0, 72, 127
2, 294297, Note_off_c, 0, 72, 127
2, 294297, Note_off_c, 3, 51, 127
2, 294299, Note_on_c, 2, 50, 127
2, 294299, Note_on_c, 5, 65, 127
2, 294477, Note_off_c, 5, 65, 127
2, 294479, Note_on_c, 12, 71, 127
2, 294657, Note_off_c, 12, 71, 127
2, 294657, Note_off_c, 2, 50, 127
2, 294658, Note_on_c, 0, 48, 127
2, 294658, Note_on_c, 10, 69, 127
2, 294836, Note_off_c, 10, 69, 127
2, 294838, Note_on_c, 12, 71, 127
2, 295016, Note_off_c, 12, 71, 127
2, 295016, Note_off_c, 0, 48, 127
2, 295018, Note_on_c, 12, 47, 127
2, 295018, Note_on_c, 2, 74, 127
2, 295196, Note_off_c, 2, 74, 127
2, 295198, Note_on_c, 7, 67, 127
2, 295376, Note_off_c, 7, 67, 127
2, 295376, Note_off_c, 12, 47, 127
2, 295378, Note_on_c, 7, 43, 127
2, 295378, Note_on_c, 5, 77, 127
2, 295556, Note_off_c, 5, 77, 127
2, 295557, Note_on_c, 7, 67, 127
2, 295735, Note_off_c, 7, 67, 127
2, 295736, Note_off_c, 7, 43, 127
2, 295737, Note_on_c, 0, 48, 127
2, 295737, Note_on_c, 5, 77, 127
2, 295915, Note_off_c, 5, 77, 127
2, 295917, Note_on_c, 3, 75, 127
2, 296095, Note_off_c, 3, 75, 127
2, 296095, Note_off_c, 0, 48, 127
2, 296097, Note_on_c, 8, 44, 127
2, 296097, Note_on_c, 2, 74, 127
2, 296275, Note_off_c, 2, 74, 127
2, 296277, Note_on_c, 0, 72, 127
2, 296455, Note_off_c, 0, 72, 127
2, 296455, Note_off_c, 8, 44, 127
2, 296456, Note_on_c, 5, 41, 127
2, 296456, Note_on_c, 3, 75, 127
2, 296634, Note_off_c, 3, 75, 127
2, 296636, Note_on_c, 2, 74, 127
2, 296814, Note_off_c, 2, 74, 127
2, 296814, Note_off_c, 5, 41, 127
2, 296816, Note_on_c, 7, 43, 127
2, 296816, Note_on_c, 0, 72, 127
2, 296994, Note_off_c, 0, 72, 127
2, 296996, Note_on_c, 12, 71, 127
2, 297174, Note_off_c, 12, 71, 127
2, 297174, Note_off_c, 7, 43, 127
2, 297176, Note_on_c, 0, 36, 127
2, 297176, Note_on_c, 12, 71, 127
2, 297532, Note_off_c, 12, 71, 127
2, 297532, Note_off_c, 0, 36, 127
2, 297534, Note_on_c, 3, 39, 127
2, 297534, Note_on_c, 0, 72, 127
2, 297622, Note_off_c, 0, 72, 127
2, 297624, Note_on_c, 12, 71, 127
2, 297712, Note_off_c, 12, 71, 127
2, 297712, Note_off_c, 3, 39, 127
2, 297714, Note_on_c, 7, 43, 127
2, 297714, Note_on_c, 0, 72, 127
2, 297892, Note_off_c, 7, 43, 127
2, 297893, Note_on_c, 0, 48, 127
2, 298249, Note_off_c, 0, 48, 127
2, 298250, Note_off_c, 0, 72, 127
2, 298251, Note_on_c, 3, 51, 127
2, 298251, Note_on_c, 0, 72, 127
2, 298429, Note_off_c, 0, 72, 127
2, 298429, Note_off_c, 3, 51, 127
2, 298431, Note_on_c, 0, 48, 127
2, 298431, Note_on_c, 2, 74, 127
2, 298609, Note_off_c, 2, 74, 127
2, 298609, Note_off_c, 0, 48, 127
2, 298611, Note_on_c, 5, 53, 127
2, 298611, Note_on_c, 3, 75, 127
2, 298789, Note_off_c, 3, 75, 127
2, 298791, Note_on_c, 0, 72, 127
2, 298969, Note_off_c, 0, 72, 127
2, 298969, Note_off_c, 5, 53, 127
2, 298971, Note_on_c, 0, 48, 127
2, 298971, Note_on_c, 10, 69, 127
2, 299149, Note_off_c, 10, 69, 127
2, 299149, Note_off_c, 0, 48, 127
2, 299150, Note_on_c, 10, 45, 127
2, 299150, Note_on_c, 5, 65, 127
2, 299328, Note_off_c, 5, 65, 127
2, 299328, Note_off_c, 10, 45, 127
2, 299330, Note_on_c, 5, 41, 127
2, 299330, Note_on_c, 10, 69, 127
2, 299508, Note_off_c, 10, 69, 127
2, 299510, Note_on_c, 0, 72, 127
2, 299688, Note_off_c, 0, 72, 127
2, 299688, Note_off_c, 5, 41, 127
2, 299690, Note_on_c, 10, 45, 127
2, 299690, Note_on_c, 5, 77, 127
2, 299868, Note_off_c, 10, 45, 127
2, 299870, Note_on_c, 5, 41, 127
2, 300048, Note_off_c, 5, 41, 127
2, 300048, Note_off_c, 5, 77, 127
2, 300049, Note_on_c, 11, 46, 127
2, 300049, Note_on_c, 3, 75, 127
2, 300227, Note_off_c, 3, 75, 127
2, 300229, Note_on_c, 2, 74, 127
2, 300407, Note_off_c, 2, 74, 127
2, 300407, Note_off_c, 11, 46, 127
2, 300409, Note_on_c, 2, 50, 127
2, 300409, Note_on_c, 0, 72, 127
2, 300587, Note_off_c, 0, 72, 127
2, 300587, Note_off_c, 2, 50, 127
2, 300589, Note_on_c, 5, 53, 127
2, 300589, Note_on_c, 3, 75, 127
2, 300767, Note_off_c, 3, 75, 127
2, 300767, Note_off_c, 5, 53, 127
2, 300769, Note_on_c, 11, 58, 127
2, 300769, Note_on_c, 2, 74, 127
2, 300947, Note_off_c, 2, 74, 127
2, 300948, Note_on_c, 0, 72, 127
2, 301126, Note_off_c, 0, 72, 127
2, 301127, Note_off_c, 11, 58, 127
2, 301128, Note_on_c, 2, 62, 127
2, 301128, Note_on_c, 11, 70, 127
2, 301306, Note_off_c, 11, 70, 127
2, 301306, Note_off_c, 2, 62, 127
2, 301308, Note_on_c, 11, 58, 127
2, 301308, Note_on_c, 0, 72, 127
2, 301486, Note_off_c, 0, 72, 127
2, 301486, Note_off_c, 11, 58, 127
2, 301488, Note_on_c, 3, 63, 127
2, 301488, Note_on_c, 1, 73, 127
2, 301666, Note_off_c, 1, 73, 127
2, 301668, Note_on_c, 11, 70, 127
2, 301846, Note_off_c, 11, 70, 127
2, 301846, Note_off_c, 3, 63, 127
2, 301847, Note_on_c, 11, 58, 127
2, 301847, Note_on_c, 7, 67, 127
2, 302025, Note_off_c, 7, 67, 127
2, 302025, Note_off_c, 11, 58, 127
2, 302027, Note_on_c, 7, 55, 127
2, 302027, Note_on_c, 3, 63, 127
2, 302205, Note_off_c, 3, 63, 127
2, 302205, Note_off_c, 7, 55, 127
2, 302207, Note_on_c, 3, 51, 127
2, 302207, Note_on_c, 7, 67, 127
2, 302385, Note_off_c, 7, 67, 127
2, 302387, Note_on_c, 11, 70, 127
2, 302565, Note_off_c, 11, 70, 127
2, 302565, Note_off_c, 3, 51, 127
2, 302567, Note_on_c, 7, 55, 127
2, 302567, Note_on_c, 3, 75, 127
2, 302745, Note_off_c, 7, 55, 127
2, 302746, Note_on_c, 3, 51, 127
2, 302924, Note_off_c, 3, 51, 127
2, 302925, Note_off_c, 3, 75, 127
2, 302926, Note_on_c, 8, 56, 127
2, 302926, Note_on_c, 1, 73, 127
2, 303104, Note_off_c, 1, 73, 127
2, 303106, Note_on_c, 0, 72, 127
2, 303284, Note_off_c, 0, 72, 127
2, 303284, Note_off_c, 8, 56, 127
2, 303286, Note_on_c, 0, 60, 127
2, 303286, Note_on_c, 11, 70, 127
2, 303464, Note_off_c, 11, 70, 127
2, 303464, Note_off_c, 0, 60, 127
2, 303466, Note_on_c, 3, 63, 127
2, 303466, Note_on_c, 1, 73, 127
2, 303644, Note_off_c, 1, 73, 127
2, 303644, Note_off_c, 3, 63, 127
2, 303645, Note_on_c, 8, 68, 127
2, 303645, Note_on_c, 0, 72, 127
2, 303823, Note_off_c, 0, 72, 127
2, 303825, Note_on_c, 3, 75, 127
2, 304003, Note_off_c, 3, 75, 127
2, 304003, Note_off_c, 8, 68, 127
2, 304005, Note_on_c, 7, 67, 127
2, 304005, Note_on_c, 5, 77, 127
2, 304183, Note_off_c, 5, 77, 127
2, 304185, Note_on_c, 7, 79, 127
2, 304363, Note_off_c, 7, 79, 127
2, 304363, Note_off_c, 7, 67, 127
2, 304365, Note_on_c, 5, 65, 127
2, 304365, Note_on_c, 8, 80, 127
2, 304543, Note_off_c, 8, 80, 127
2, 304544, Note_on_c, 0, 72, 127
2, 304722, Note_off_c, 0, 72, 127
2, 304723, Note_off_c, 5, 65, 127
2, 304724, Note_on_c, 3, 63, 127
2, 304724, Note_on_c, 5, 77, 127
2, 304902, Note_off_c, 5, 77, 127
2, 304904, Note_on_c, 7, 79, 127
2, 305082, Note_off_c, 7, 79, 127
2, 305082, Note_off_c, 3, 63, 127
2, 305084, Note_on_c, 2, 62, 127
2, 305084, Note_on_c, 8, 80, 127
2, 305262, Note_off_c, 8, 80, 127
2, 305264, Note_on_c, 11, 70, 127
2, 305442, Note_off_c, 11, 70, 127
2, 305442, Note_off_c, 2, 62, 127
2, 305443, Note_on_c, 0, 60, 127
2, 305443, Note_on_c, 5, 77, 127
2, 305621, Note_off_c, 5, 77, 127
2, 305623, Note_on_c, 7, 79, 127
2, 305801, Note_off_c, 7, 79, 127
2, 305801, Note_off_c, 0, 60, 127
2, 305803, Note_on_c, 11, 58, 127
2, 305803, Note_on_c, 8, 80, 127
2, 305981, Note_off_c, 8, 80, 127
2, 305983, Note_on_c, 2, 74, 127
2, 306161, Note_off_c, 2, 74, 127
2, 306161, Note_off_c, 11, 58, 127
2, 306163, Note_on_c, 8, 56, 127
2, 306163, Note_on_c, 5, 77, 127
2, 306341, Note_off_c, 5, 77, 127
2, 306342, Note_on_c, 7, 79, 127
2, 306520, Note_off_c, 7, 79, 127
2, 306521, Note_off_c, 8, 56, 127
2, 306522, Note_on_c, 7, 55, 127
2, 306522, Note_on_c, 8, 80, 127
2, 306700, Note_off_c, 8, 80, 127
2, 306702, Note_on_c, 5, 77, 127
2, 306880, Note_off_c, 5, 77, 127
2, 306880, Note_off_c, 7, 55, 127
2, 306882, Note_on_c, 5, 53, 127
2, 306882, Note_on_c, 7, 79, 127
2, 307060, Note_off_c, 7, 79, 127
2, 307062, Note_on_c, 8, 80, 127
2, 307240, Note_off_c, 8, 80, 127
2, 307240, Note_off_c, 5, 53, 127
2, 307241, Note_on_c, 3, 51, 127
2, 307241, Note_on_c, 7, 79, 127
2, 307419, Note_off_c, 7, 79, 127
2, 307421, Note_on_c, 3, 75, 127
2, 307599, Note_off_c, 3, 75, 127
2, 307599, Note_off_c, 3, 51, 127
2, 307601, Note_on_c, 5, 53, 127
2, 307601, Note_on_c, 2, 74, 127
2, 307779, Note_off_c, 2, 74, 127
2, 307781, Note_on_c, 3, 75, 127
2, 307959, Note_off_c, 3, 75, 127
2, 307959, Note_off_c, 5, 53, 127
2, 307961, Note_on_c, 7, 55, 127
2, 307961, Note_on_c, 11, 82, 127
2, 308139, Note_off_c, 11, 82, 127
2, 308140, Note_on_c, 3, 75, 127
2, 308318, Note_off_c, 3, 75, 127
2, 308319, Note_off_c, 7, 55, 127
2, 308320, Note_on_c, 8, 56, 127
2, 308320, Note_on_c, 0, 84, 127
2, 308498, Note_off_c, 0, 84, 127
2, 308500, Note_on_c, 3, 75, 127
2, 308678, Note_off_c, 3, 75, 127
2, 308678, Note_off_c, 8, 56, 127
2, 308680, Note_on_c, 11, 58, 127
2, 308680, Note_on_c, 2, 74, 127
2, 308858, Note_off_c, 2, 74, 127
2, 308860, Note_on_c, 5, 77, 127
2, 309038, Note_off_c, 5, 77, 127
2, 309038, Note_off_c, 11, 58, 127
2, 309039, Note_on_c, 5, 53, 127
2, 309039, Note_on_c, 8, 68, 127
2, 309217, Note_off_c, 5, 53, 127
2, 309219, Note_on_c, 2, 50, 127
2, 309397, Note_off_c, 2, 50, 127
2, 309399, Note_on_c, 11, 46, 127
2, 309755, Note_off_c, 8, 68, 127
2, 309757, Note_on_c, 7, 67, 127
2, 309935, Note_off_c, 7, 67, 127
2, 309937, Note_on_c, 5, 65, 127
2, 310115, Note_off_c, 5, 65, 127
2, 310115, Note_off_c, 11, 46, 127
2, 310117, Note_on_c, 7, 67, 127
2, 310295, Note_off_c, 7, 67, 127
2, 310296, Note_on_c, 3, 63, 127
2, 310474, Note_off_c, 3, 63, 127
2, 310476, Note_on_c, 7, 55, 127
2, 310476, Note_on_c, 11, 58, 127
2, 310654, Note_off_c, 11, 58, 127
2, 310654, Note_off_c, 7, 55, 127
2, 310656, Note_on_c, 3, 51, 127
2, 310656, Note_on_c, 3, 63, 127
2, 310834, Note_off_c, 3, 63, 127
2, 310834, Note_off_c, 3, 51, 127
2, 310836, Note_on_c, 11, 46, 127
2, 310836, Note_on_c, 7, 67, 127
2, 311014, Note_off_c, 7, 67, 127
2, 311016, Note_on_c, 3, 63, 127
2, 311194, Note_off_c, 3, 63, 127
2, 311195, Note_on_c, 7, 67, 127
2, 311373, Note_off_c, 7, 67, 127
2, 311375, Note_on_c, 11, 70, 127
2, 311553, Note_off_c, 11, 70, 127
2, 311553, Note_off_c, 11, 46, 127
2, 311555, Note_on_c, 8, 68, 127
2, 311733, Note_off_c, 8, 68, 127
2, 311735, Note_on_c, 5, 65, 127
2, 311913, Note_off_c, 5, 65, 127
2, 311915, Note_on_c, 5, 53, 127
2, 311915, Note_on_c, 2, 62, 127
2, 312093, Note_off_c, 2, 62, 127
2, 312093, Note_off_c, 5, 53, 127
2, 312094, Note_on_c, 2, 50, 127
2, 312094, Note_on_c, 5, 65, 127
2, 312272, Note_off_c, 5, 65, 127
2, 312272, Note_off_c, 2, 50, 127
2, 312274, Note_on_c, 11, 46, 127
2, 312274, Note_on_c, 8, 68, 127
2, 312452, Note_off_c, 8, 68, 127
2, 312454, Note_on_c, 5, 65, 127
2, 312632, Note_off_c, 5, 65, 127
2, 312634, Note_on_c, 8, 68, 127
2, 312812, Note_off_c, 8, 68, 127
2, 312814, Note_on_c, 0, 72, 127
2, 312991, Note_off_c, 11, 46, 127
2, 312992, Note_off_c, 0, 72, 127
2, 312993, Note_on_c, 11, 70, 127
2, 313171, Note_off_c, 11, 70, 127
2, 313173, Note_on_c, 7, 67, 127
2, 313351, Note_off_c, 7, 67, 127
2, 313353, Note_on_c, 11, 46, 127
2, 313353, Note_on_c, 3, 63, 127
2, 313531, Note_off_c, 3, 63, 127
2, 313531, Note_off_c, 11, 46, 127
2, 313533, Note_on_c, 3, 51, 127
2, 313533, Note_on_c, 7, 67, 127
2, 313711, Note_off_c, 7, 67, 127
2, 313711, Note_off_c, 3, 51, 127
2, 313713, Note_on_c, 7, 55, 127
2, 313713, Note_on_c, 11, 70, 127
2, 313891, Note_off_c, 11, 70, 127
2, 313892, Note_on_c, 7, 67, 127
2, 314070, Note_off_c, 7, 67, 127
2, 314071, Note_off_c, 7, 55, 127
2, 314072, Note_on_c, 3, 51, 127
2, 314072, Note_on_c, 11, 70, 127
2, 314250, Note_off_c, 11, 70, 127
2, 314250, Note_off_c, 3, 51, 127
2, 314252, Note_on_c, 7, 55, 127
2, 314252, Note_on_c, 3, 75, 127
2, 314430, Note_off_c, 3, 75, 127
2, 314430, Note_off_c, 7, 55, 127
2, 314432, Note_on_c, 11, 58, 127
2, 314432, Note_on_c, 2, 74, 127
2, 314610, Note_off_c, 2, 74, 127
2, 314612, Note_on_c, 8, 68, 127
2, 314790, Note_off_c, 8, 68, 127
2, 314790, Note_off_c, 11, 58, 127
2, 314791, Note_on_c, 8, 56, 127
2, 314791, Note_on_c, 5, 65, 127
2, 314969, Note_off_c, 5, 65, 127
2, 314971, Note_on_c, 8, 68, 127
2, 315149, Note_off_c, 8, 68, 127
2, 315149, Note_off_c, 8, 56, 127
2, 315151, Note_on_c, 7, 55, 127
2, 315151, Note_on_c, 2, 74, 127
2, 315329, Note_off_c, 2, 74, 127
2, 315331, Note_on_c, 8, 68, 127
2, 315509, Note_off_c, 8, 68, 127
2, 315509, Note_off_c, 7, 55, 127
2, 315511, Note_on_c, 5, 53, 127
2, 315511, Note_on_c, 2, 74, 127
2, 315689, Note_off_c, 2, 74, 127
2, 315690, Note_on_c, 5, 77, 127
2, 315868, Note_off_c, 5, 77, 127
2, 315869, Note_off_c, 5, 53, 127
2, 315870, Note_on_c, 8, 56, 127
2, 315870, Note_on_c, 3, 75, 127
2, 316056, Note_off_c, 8, 56, 127
2, 316058, Note_on_c, 7, 55, 127
2, 316243, Note_off_c, 3, 75, 127
2, 316244, Note_off_c, 7, 55, 127
2, 316245, Note_on_c, 5, 53, 127
2, 316245, Note_on_c, 11, 70, 127
2, 316431, Note_off_c, 5, 53, 127
2, 316433, Note_on_c, 3, 51, 127
2, 316618, Note_off_c, 11, 70, 127
2, 316619, Note_off_c, 3, 51, 127
2, 316620, Note_on_c, 11, 58, 127
2, 316620, Note_on_c, 8, 68, 127
2, 316806, Note_off_c, 8, 68, 127
2, 316808, Note_on_c, 7, 67, 127
2, 316993, Note_off_c, 11, 58, 127
2, 316994, Note_off_c, 7, 67, 127
2, 316996, Note_on_c, 11, 46, 127
2, 316996, Note_on_c, 5, 65, 127
2, 317182, Note_off_c, 5, 65, 127
2, 317183, Note_on_c, 7, 67, 127
2, 317369, Note_off_c, 7, 67, 127
2, 317369, Note_off_c, 11, 46, 127
2, 317371, Note_on_c, 3, 51, 127
2, 317371, Note_on_c, 5, 65, 127
2, 317812, Note_off_c, 5, 65, 127
2, 317812, Note_off_c, 3, 51, 127
2, 317814, Note_on_c, 11, 46, 127
2, 317814, Note_on_c, 3, 63, 127
2, 318034, Note_off_c, 11, 46, 127
2, 318036, Note_on_c, 7, 43, 127
2, 318256, Note_off_c, 7, 43, 127
2, 318257, Note_on_c, 3, 39, 127
2, 320909, Note_off_c, 3, 39, 127
2, 320909, Note_off_c, 3, 63, 127
2, 320911, Note_on_c, 7, 55, 127
2, 320911, Note_on_c, 3, 51, 127
2, 320911, Note_on_c, 3, 63, 127
2, 321272, Note_off_c, 3, 63, 127
2, 321272, Note_off_c, 7, 55, 127
2, 321274, Note_on_c, 11, 58, 127
2, 321274, Note_on_c, 7, 67, 127
2, 321363, Note_off_c, 7, 67, 127
2, 321365, Note_on_c, 5, 65, 127
2, 321454, Note_off_c, 5, 65, 127
2, 321456, Note_on_c, 7, 67, 127
2, 321635, Note_off_c, 7, 67, 127
2, 321636, Note_off_c, 11, 58, 127
2, 321638, Note_on_c, 8, 56, 127
2, 321638, Note_on_c, 7, 67, 127
2, 321727, Note_off_c, 7, 67, 127
2, 321729, Note_on_c, 5, 65, 127
2, 321818, Note_off_c, 5, 65, 127
2, 321821, Note_on_c, 7, 67, 127
2, 321910, Note_off_c, 7, 67, 127
2, 321912, Note_on_c, 5, 65, 127
2, 322001, Note_off_c, 5, 65, 127
2, 322004, Note_on_c, 3, 63, 127
2, 322364, Note_off_c, 8, 56, 127
2, 322365, Note_off_c, 3, 63, 127
2, 322366, Note_on_c, 7, 55, 127
2, 322366, Note_on_c, 11, 70, 127
2, 322727, Note_off_c, 11, 70, 127
2, 322727, Note_off_c, 7, 55, 127
2, 322729, Note_on_c, 5, 53, 127
2, 322729, Note_on_c, 11, 70, 127
2, 322818, Note_off_c, 11, 70, 127
2, 322820, Note_on_c, 8, 68, 127
2, 322909, Note_off_c, 8, 68, 127
2, 322912, Note_on_c, 11, 70, 127
2, 323001, Note_off_c, 11, 70, 127
2, 323003, Note_on_c, 8, 68, 127
2, 323092, Note_off_c, 8, 68, 127
2, 323095, Note_on_c, 11, 58, 127
2, 323276, Note_on_c, 8, 68, 127
2, 323454, Note_off_c, 11, 58, 127
2, 323457, Note_off_c, 8, 68, 127
2, 323457, Note_off_c, 5, 53, 127
2, 323459, Note_on_c, 11, 58, 127
2, 323459, Note_on_c, 7, 67, 127
2, 323638, Note_off_c, 7, 67, 127
2, 323640, Note_on_c, 3, 63, 127
2, 323819, Note_off_c, 3, 63, 127
2, 323820, Note_off_c, 11, 58, 127
2, 323822, Note_on_c, 8, 56, 127
2, 323822, Note_on_c, 5, 65, 127
2, 324001, Note_off_c, 5, 65, 127
2, 324003, Note_on_c, 2, 62, 127
2, 324182, Note_off_c, 2, 62, 127
2, 324184, Note_on_c, 3, 63, 127
2, 324363, Note_off_c, 3, 63, 127
2, 324366, Note_on_c, 7, 67, 127
2, 324545, Note_off_c, 7, 67, 127
2, 324545, Note_off_c, 8, 56, 127
2, 324547, Note_on_c, 7, 55, 127
2, 324547, Note_on_c, 11, 70, 127
2, 324726, Note_off_c, 11, 70, 127
2, 324728, Note_on_c, 7, 67, 127
2, 324907, Note_off_c, 7, 67, 127
2, 324908, Note_off_c, 7, 55, 127
2, 324910, Note_on_c, 5, 53, 127
2, 324910, Note_on_c, 8, 68, 127
2, 325089, Note_off_c, 8, 68, 127
2, 325091, Note_on_c, 5, 77, 127
2, 325264, Note_off_c, 3, 51, 127
2, 325270, Note_off_c, 5, 77, 127
2, 325271, Note_off_c, 5, 53, 127
2, 325273, Note_on_c, 3, 51, 127
2, 325273, Note_on_c, 7, 67, 127
2, 325452, Note_off_c, 3, 51, 127
2, 325454, Note_on_c, 11, 58, 127
2, 325633, Note_off_c, 11, 58, 127
2, 325635, Note_on_c, 3, 63, 127
2, 325635, Note_on_c, 0, 72, 127
2, 325814, Note_off_c, 3, 63, 127
2, 325817, Note_on_c, 0, 60, 127
2, 325996, Note_off_c, 0, 60, 127
2, 325996, Note_off_c, 0, 72, 127
2, 325998, Note_on_c, 2, 62, 127
2, 325998, Note_on_c, 0, 72, 127
2, 326087, Note_off_c, 0, 72, 127
2, 326089, Note_on_c, 11, 70, 127
2, 326178, Note_off_c, 11, 70, 127
2, 326179, Note_off_c, 2, 62, 127
2, 326181, Note_on_c, 11, 58, 127
2, 326181, Note_on_c, 0, 72, 127
2, 326270, Note_off_c, 0, 72, 127
2, 326272, Note_on_c, 11, 70, 127
2, 326361, Note_off_c, 11, 70, 127
2, 326361, Note_off_c, 7, 67, 127
2, 326362, Note_off_c, 11, 58, 127
2, 326364, Note_on_c, 0, 60, 127
2, 326364, Note_on_c, 10, 69, 127
2, 326543, Note_off_c, 0, 60, 127
2, 326545, Note_on_c, 10, 57, 127
2, 326724, Note_off_c, 10, 57, 127
2, 326726, Note_on_c, 11, 58, 127
2, 326726, Note_on_c, 7, 79, 127
2, 326905, Note_off_c, 11, 58, 127
2, 326908, Note_on_c, 7, 55, 127
2, 327087, Note_off_c, 7, 55, 127
2, 327087, Note_off_c, 7, 79, 127
2, 327089, Note_on_c, 10, 57, 127
2, 327089, Note_on_c, 7, 79, 127
2, 327178, Note_off_c, 7, 79, 127
2, 327181, Note_on_c, 5, 77, 127
2, 327270, Note_off_c, 5, 77, 127
2, 327270, Note_off_c, 10, 57, 127
2, 327272, Note_on_c, 5, 53, 127
2, 327272, Note_on_c, 7, 79, 127
2, 327361, Note_off_c, 7, 79, 127
2, 327363, Note_on_c, 5, 77, 127
2, 327452, Note_off_c, 5, 77, 127
2, 327452, Note_off_c, 10, 69, 127
2, 327453, Note_off_c, 5, 53, 127
2, 327455, Note_on_c, 2, 50, 127
2, 327455, Note_on_c, 5, 65, 127
2, 327634, Note_off_c, 2, 50, 127
2, 327636, Note_on_c, 7, 55, 127
2, 327636, Note_on_c, 3, 75, 127
2, 327815, Note_off_c, 3, 75, 127
2, 327815, Note_off_c, 7, 55, 127
2, 327818, Note_on_c, 5, 53, 127
2, 327818, Note_on_c, 2, 74, 127
2, 327997, Note_off_c, 2, 74, 127
2, 327999, Note_on_c, 11, 70, 127
2, 328178, Note_off_c, 11, 70, 127
2, 328179, Note_off_c, 5, 53, 127
2, 328180, Note_on_c, 5, 41, 127
2, 328180, Note_on_c, 0, 72, 127
2, 328359, Note_off_c, 0, 72, 127
2, 328362, Note_on_c, 10, 69, 127
2, 328541, Note_off_c, 5, 65, 127
2, 328542, Note_off_c, 5, 41, 127
2, 328543, Note_off_c, 10, 69, 127
2, 328545, Note_on_c, 11, 46, 127
2, 328545, Note_on_c, 10, 69, 127
2, 328724, Note_off_c, 10, 69, 127
2, 328726, Note_on_c, 5, 65, 127
2, 328726, Note_on_c, 11, 70, 127
2, 328815, Note_off_c, 11, 70, 127
2, 328817, Note_on_c, 10, 69, 127
2, 328906, Note_off_c, 10, 69, 127
2, 328907, Note_off_c, 5, 65, 127
2, 328909, Note_on_c, 2, 62, 127
2, 328909, Note_on_c, 11, 70, 127
2, 329089, Note_off_c, 11, 46, 127
2, 329090, Note_on_c, 11, 58, 127
2, 329269, Note_off_c, 11, 58, 127
2, 329272, Note_on_c, 5, 53, 127
2, 329451, Note_off_c, 5, 53, 127
2, 329453, Note_on_c, 2, 50, 127
2, 329632, Note_off_c, 2, 50, 127
2, 329632, Note_off_c, 11, 70, 127
2, 329632, Note_off_c, 2, 62, 127
2, 329634, Note_on_c, 11, 46, 127
2, 329634, Note_on_c, 5, 65, 127
2, 329813, Note_off_c, 11, 46, 127
2, 329816, Note_on_c, 5, 53, 127
2, 329995, Note_off_c, 5, 53, 127
2, 329997, Note_on_c, 11, 58, 127
2, 329997, Note_on_c, 2, 74, 127
2, 330086, Note_off_c, 2, 74, 127
2, 330088, Note_on_c, 0, 72, 127
2, 330177, Note_off_c, 0, 72, 127
2, 330178, Note_off_c, 11, 58, 127
2, 330180, Note_on_c, 7, 55, 127
2, 330180, Note_on_c, 2, 74, 127
2, 330359, Note_off_c, 2, 74, 127
2, 330359, Note_off_c, 7, 55, 127
2, 330361, Note_on_c, 8, 56, 127
2, 330361, Note_on_c, 2, 74, 127
2, 330450, Note_off_c, 2, 74, 127
2, 330453, Note_on_c, 0, 72, 127
2, 330542, Note_off_c, 0, 72, 127
2, 330542, Note_off_c, 8, 56, 127
2, 330544, Note_on_c, 5, 53, 127
2, 330544, Note_on_c, 2, 74, 127
2, 330633, Note_off_c, 2, 74, 127
2, 330636, Note_on_c, 0, 72, 127
2, 330723, Note_off_c, 5, 65, 127
2, 330725, Note_off_c, 0, 72, 127
2, 330725, Note_off_c, 5, 53, 127
2, 330727, Note_on_c, 7, 55, 127
2, 330727, Note_on_c, 12, 71, 127
2, 330906, Note_off_c, 7, 55, 127
2, 330908, Note_on_c, 3, 51, 127
2, 331087, Note_off_c, 3, 51, 127
2, 331090, Note_on_c, 5, 53, 127
2, 331090, Note_on_c, 8, 80, 127
2, 331269, Note_off_c, 5, 53, 127
2, 331271, Note_on_c, 2, 50, 127
2, 331450, Note_off_c, 2, 50, 127
2, 331451, Note_off_c, 8, 80, 127
2, 331452, Note_on_c, 3, 51, 127
2, 331452, Note_on_c, 8, 80, 127
2, 331541, Note_off_c, 8, 80, 127
2, 331544, Note_on_c, 7, 79, 127
2, 331633, Note_off_c, 7, 79, 127
2, 331633, Note_off_c, 3, 51, 127
2, 331635, Note_on_c, 0, 48, 127
2, 331635, Note_on_c, 8, 80, 127
2, 331724, Note_off_c, 8, 80, 127
2, 331727, Note_on_c, 7, 79, 127
2, 331815, Note_off_c, 12, 71, 127
2, 331816, Note_off_c, 7, 79, 127
2, 331816, Note_off_c, 0, 48, 127
2, 331818, Note_on_c, 12, 47, 127
2, 331818, Note_on_c, 7, 67, 127
2, 332000, Note_on_c, 5, 77, 127
2, 332179, Note_off_c, 5, 77, 127
2, 332179, Note_off_c, 12, 47, 127
2, 332181, Note_on_c, 0, 48, 127
2, 332181, Note_on_c, 3, 75, 127
2, 332360, Note_off_c, 3, 75, 127
2, 332362, Note_on_c, 0, 72, 127
2, 332541, Note_off_c, 0, 72, 127
2, 332542, Note_off_c, 0, 48, 127
2, 332544, Note_on_c, 5, 53, 127
2, 332544, Note_on_c, 2, 74, 127
2, 332723, Note_off_c, 2, 74, 127
2, 332725, Note_on_c, 5, 77, 127
2, 332904, Note_off_c, 7, 67, 127
2, 332906, Note_off_c, 5, 77, 127
2, 332906, Note_off_c, 5, 53, 127
2, 332908, Note_on_c, 7, 55, 127
2, 332908, Note_on_c, 0, 72, 127
2, 333087, Note_off_c, 0, 72, 127
2, 333089, Note_on_c, 10, 69, 127
2, 333268, Note_off_c, 10, 69, 127
2, 333271, Note_on_c, 12, 71, 127
2, 333360, Note_off_c, 12, 71, 127
2, 333362, Note_on_c, 10, 69, 127
2, 333451, Note_off_c, 10, 69, 127
2, 333452, Note_off_c, 7, 55, 127
2, 333453, Note_on_c, 5, 53, 127
2, 333453, Note_on_c, 12, 71, 127
2, 333542, Note_off_c, 12, 71, 127
2, 333545, Note_on_c, 2, 74, 127
2, 333634, Note_off_c, 2, 74, 127
2, 333634, Note_off_c, 5, 53, 127
2, 333636, Note_on_c, 3, 51, 127
2, 333636, Note_on_c, 7, 67, 127
2, 333815, Note_off_c, 7, 67, 127
2, 333815, Note_off_c, 3, 51, 127
2, 333818, Note_on_c, 2, 50, 127
2, 333818, Note_on_c, 5, 65, 127
2, 333997, Note_off_c, 5, 65, 127
2, 333997, Note_off_c, 2, 50, 127
2, 333999, Note_on_c, 0, 48, 127
2, 333999, Note_on_c, 4, 64, 127
2, 334178, Note_off_c, 0, 48, 127
2, 334180, Note_on_c, 4, 52, 127
2, 334359, Note_off_c, 4, 52, 127
2, 334362, Note_on_c, 7, 55, 127
2, 334362, Note_on_c, 1, 73, 127
2, 334451, Note_off_c, 1, 73, 127
2, 334453, Note_on_c, 0, 72, 127
2, 334542, Note_off_c, 0, 72, 127
2, 334543, Note_off_c, 7, 55, 127
2, 334545, Note_on_c, 11, 58, 127
2, 334545, Note_on_c, 1, 73, 127
2, 334724, Note_off_c, 1, 73, 127
2, 334724, Note_off_c, 11, 58, 127
2, 334726, Note_on_c, 8, 56, 127
2, 334726, Note_on_c, 1, 73, 127
2, 334815, Note_off_c, 1, 73, 127
2, 334817, Note_on_c, 0, 72, 127
2, 334906, Note_off_c, 0, 72, 127
2, 334907, Note_off_c, 8, 56, 127
2, 334909, Note_on_c, 5, 53, 127
2, 334909, Note_on_c, 1, 73, 127
2, 334998, Note_off_c, 1, 73, 127
2, 335000, Note_on_c, 0, 72, 127
2, 335089, Note_off_c, 0, 72, 127
2, 335090, Note_off_c, 5, 53, 127
2, 335092, Note_on_c, 7, 55, 127
2, 335092, Note_on_c, 11, 70, 127
2, 335271, Note_off_c, 11, 70, 127
2, 335271, Note_off_c, 7, 55, 127
2, 335273, Note_on_c, 4, 52, 127
2, 335273, Note_on_c, 7, 67, 127
2, 335452, Note_off_c, 7, 67, 127
2, 335452, Note_off_c, 4, 52, 127
2, 335454, Note_on_c, 5, 53, 127
2, 335454, Note_on_c, 8, 68, 127
2, 335633, Note_off_c, 8, 68, 127
2, 335636, Note_on_c, 5, 65, 127
2, 335810, Note_off_c, 4, 64, 127
2, 335815, Note_off_c, 5, 65, 127
2, 335815, Note_off_c, 5, 53, 127
2, 335817, Note_on_c, 8, 56, 127
2, 335817, Note_on_c, 0, 60, 127
2, 335996, Note_off_c, 0, 60, 127
2, 335999, Note_on_c, 3, 63, 127
2, 336178, Note_off_c, 3, 63, 127
2, 336178, Note_off_c, 8, 56, 127
2, 336180, Note_on_c, 11, 46, 127
2, 336180, Note_on_c, 2, 62, 127
2, 336359, Note_off_c, 11, 46, 127
2, 336361, Note_on_c, 2, 50, 127
2, 336540, Note_off_c, 2, 50, 127
2, 336543, Note_on_c, 5, 53, 127
2, 336543, Note_on_c, 0, 72, 127
2, 336722, Note_off_c, 5, 53, 127
2, 336724, Note_on_c, 8, 56, 127
2, 336903, Note_off_c, 8, 56, 127
2, 336904, Note_off_c, 0, 72, 127
2, 336905, Note_on_c, 7, 55, 127
2, 336905, Note_on_c, 0, 72, 127
2, 336994, Note_off_c, 0, 72, 127
2, 336997, Note_on_c, 11, 70, 127
2, 337086, Note_off_c, 11, 70, 127
2, 337086, Note_off_c, 7, 55, 127
2, 337088, Note_on_c, 3, 51, 127
2, 337088, Note_on_c, 0, 72, 127
2, 337177, Note_off_c, 0, 72, 127
2, 337180, Note_on_c, 11, 70, 127
2, 337269, Note_off_c, 11, 70, 127
2, 337269, Note_off_c, 3, 51, 127
2, 337271, Note_on_c, 5, 53, 127
2, 337271, Note_on_c, 8, 68, 127
2, 337450, Note_off_c, 8, 68, 127
2, 337450, Note_off_c, 5, 53, 127
2, 337452, Note_on_c, 2, 50, 127
2, 337452, Note_on_c, 5, 65, 127
2, 337631, Note_off_c, 5, 65, 127
2, 337631, Note_off_c, 2, 50, 127
2, 337634, Note_on_c, 3, 51, 127
2, 337634, Note_on_c, 7, 67, 127
2, 337813, Note_off_c, 7, 67, 127
2, 337815, Note_on_c, 3, 63, 127
2, 337990, Note_off_c, 2, 62, 127
2, 337994, Note_off_c, 3, 63, 127
2, 337995, Note_off_c, 3, 51, 127
2, 337996, Note_on_c, 7, 55, 127
2, 337996, Note_on_c, 11, 58, 127
2, 338175, Note_off_c, 11, 58, 127
2, 338178, Note_on_c, 1, 61, 127
2, 338357, Note_off_c, 1, 61, 127
2, 338357, Note_off_c, 7, 55, 127
2, 338359, Note_on_c, 8, 44, 127
2, 338359, Note_on_c, 0, 60, 127
2, 338538, Note_off_c, 8, 44, 127
2, 338541, Note_on_c, 3, 51, 127
2, 338720, Note_off_c, 3, 51, 127
2, 338722, Note_on_c, 8, 56, 127
2, 338722, Note_on_c, 5, 65, 127
2, 338811, Note_off_c, 5, 65, 127
2, 338813, Note_on_c, 3, 63, 127
2, 338902, Note_off_c, 3, 63, 127
2, 338903, Note_off_c, 8, 56, 127
2, 338905, Note_on_c, 5, 53, 127
2, 338905, Note_on_c, 5, 65, 127
2, 339084, Note_off_c, 5, 65, 127
2, 339084, Note_off_c, 5, 53, 127
2, 339086, Note_on_c, 7, 55, 127
2, 339086, Note_on_c, 5, 65, 127
2, 339175, Note_off_c, 5, 65, 127
2, 339178, Note_on_c, 3, 63, 127
2, 339267, Note_off_c, 3, 63, 127
2, 339267, Note_off_c, 7, 55, 127
2, 339269, Note_on_c, 3, 51, 127
2, 339269, Note_on_c, 5, 65, 127
2, 339358, Note_off_c, 5, 65, 127
2, 339360, Note_on_c, 3, 63, 127
2, 339448, Note_off_c, 0, 60, 127
2, 339449, Note_off_c, 3, 63, 127
2, 339450, Note_off_c, 3, 51, 127
2, 339452, Note_on_c, 5, 53, 127
2, 339452, Note_on_c, 2, 62, 127
2, 339631, Note_off_c, 5, 53, 127
2, 339633, Note_on_c, 2, 50, 127
2, 339812, Note_off_c, 2, 50, 127
2, 339815, Note_on_c, 3, 51, 127
2, 339815, Note_on_c, 0, 72, 127
2, 339994, Note_off_c, 3, 51, 127
2, 339996, Note_on_c, 0, 48, 127
2, 340175, Note_off_c, 0, 48, 127
2, 340176, Note_off_c, 0, 72, 127
2, 340177, Note_on_c, 2, 50, 127
2, 340177, Note_on_c, 0, 72, 127
2, 340266, Note_off_c, 0, 72, 127
2, 340269, Note_on_c, 11, 70, 127
2, 340358, Note_off_c, 11, 70, 127
2, 340358, Note_off_c, 2, 50, 127
2, 340360, Note_on_c, 11, 46, 127
2, 340360, Note_on_c, 0, 72, 127
2, 340449, Note_off_c, 0, 72, 127
2, 340452, Note_on_c, 11, 70, 127
2, 340540, Note_off_c, 2, 62, 127
2, 340541, Note_off_c, 11, 70, 127
2, 340541, Note_off_c, 11, 46, 127
2, 340543, Note_on_c, 7, 43, 127
2, 340543, Note_on_c, 11, 58, 127
2, 340722, Note_off_c, 7, 43, 127
2, 340724, Note_on_c, 0, 48, 127
2, 340724, Note_on_c, 8, 68, 127
2, 340903, Note_off_c, 8, 68, 127
2, 340903, Note_off_c, 0, 48, 127
2, 340906, Note_on_c, 11, 46, 127
2, 340906, Note_on_c, 7, 67, 127
2, 341085, Note_off_c, 7, 67, 127
2, 341087, Note_on_c, 3, 63, 127
2, 341266, Note_off_c, 3, 63, 127
2, 341266, Note_off_c, 11, 58, 127
2, 341267, Note_off_c, 11, 46, 127
2, 341269, Note_on_c, 11, 58, 127
2, 341269, Note_on_c, 5, 65, 127
2, 341448, Note_off_c, 5, 65, 127
2, 341450, Note_on_c, 2, 62, 127
2, 341629, Note_off_c, 2, 62, 127
2, 341630, Note_off_c, 11, 58, 127
2, 341631, Note_on_c, 3, 51, 127
2, 341631, Note_on_c, 2, 62, 127
2, 341810, Note_off_c, 2, 62, 127
2, 341813, Note_on_c, 3, 63, 127
2, 341902, Note_off_c, 3, 63, 127
2, 341904, Note_on_c, 2, 62, 127
2, 341993, Note_off_c, 2, 62, 127
2, 341993, Note_off_c, 3, 51, 127
2, 341995, Note_on_c, 11, 46, 127
2, 341995, Note_on_c, 3, 63, 127
2, 342356, Note_off_c, 3, 63, 127
2, 342356, Note_off_c, 11, 46, 127
2, 342358, Note_on_c, 3, 39, 127
2, 342358, Note_on_c, 6, 66, 127
2, 342358, Note_on_c, 11, 70, 127
2, 342719, Note_off_c, 11, 70, 127
2, 342719, Note_off_c, 6, 66, 127
2, 342719, Note_off_c, 3, 39, 127
2, 342721, Note_on_c, 3, 51, 127
2, 342721, Note_on_c, 11, 70, 127
2, 342721, Note_on_c, 6, 78, 127
2, 342900, Note_off_c, 3, 51, 127
2, 342902, Note_on_c, 2, 50, 127
2, 343081, Note_off_c, 2, 50, 127
2, 343084, Note_on_c, 3, 51, 127
2, 343263, Note_off_c, 3, 51, 127
2, 343265, Note_on_c, 5, 53, 127
2, 343444, Note_off_c, 5, 53, 127
2, 343444, Note_off_c, 6, 78, 127
2, 343444, Note_off_c, 11, 70, 127
2, 343446, Note_on_c, 3, 51, 127
2, 343446, Note_on_c, 11, 70, 127
2, 343446, Note_on_c, 6, 66, 127
2, 343625, Note_off_c, 3, 51, 127
2, 343628, Note_on_c, 5, 53, 127
2, 343807, Note_off_c, 5, 53, 127
2, 343807, Note_off_c, 6, 66, 127
2, 343807, Note_off_c, 11, 70, 127
2, 343809, Note_on_c, 3, 51, 127
2, 343809, Note_on_c, 12, 71, 127
2, 343809, Note_on_c, 8, 68, 127
2, 343988, Note_off_c, 12, 71, 127
2, 343988, Note_off_c, 3, 51, 127
2, 343990, Note_on_c, 2, 50, 127
2, 343990, Note_on_c, 11, 70, 127
2, 344169, Note_off_c, 11, 70, 127
2, 344169, Note_off_c, 2, 50, 127
2, 344172, Note_on_c, 3, 51, 127
2, 344172, Note_on_c, 12, 71, 127
2, 344351, Note_off_c, 3, 51, 127
2, 344353, Note_on_c, 5, 53, 127
2, 344532, Note_off_c, 5, 53, 127
2, 344532, Note_off_c, 8, 68, 127
2, 344533, Note_off_c, 12, 71, 127
2, 344534, Note_on_c, 3, 51, 127
2, 344534, Note_on_c, 5, 65, 127
2, 344534, Note_on_c, 8, 68, 127
2, 344713, Note_off_c, 3, 51, 127
2, 344716, Note_on_c, 5, 53, 127
2, 344895, Note_off_c, 5, 53, 127
2, 344895, Note_off_c, 8, 68, 127
2, 344895, Note_off_c, 5, 65, 127
2, 344897, Note_on_c, 2, 50, 127
2, 344897, Note_on_c, 8, 68, 127
2, 344897, Note_on_c, 5, 77, 127
2, 345076, Note_off_c, 2, 50, 127
2, 345078, Note_on_c, 0, 48, 127
2, 345257, Note_off_c, 0, 48, 127
2, 345260, Note_on_c, 2, 50, 127
2, 345439, Note_off_c, 2, 50, 127
2, 345441, Note_on_c, 3, 51, 127
2, 345620, Note_off_c, 3, 51, 127
2, 345620, Note_off_c, 5, 77, 127
2, 345620, Note_off_c, 8, 68, 127
2, 345622, Note_on_c, 0, 48, 127
2, 345622, Note_on_c, 5, 65, 127
2, 345622, Note_on_c, 8, 68, 127
2, 345801, Note_off_c, 0, 48, 127
2, 345804, Note_on_c, 2, 50, 127
2, 345983, Note_off_c, 2, 50, 127
2, 345983, Note_off_c, 8, 68, 127
2, 345983, Note_off_c, 5, 65, 127
2, 345985, Note_on_c, 3, 51, 127
2, 345985, Note_on_c, 6, 66, 127
2, 345985, Note_on_c, 3, 63, 127
2, 346164, Note_off_c, 6, 66, 127
2, 346164, Note_off_c, 3, 51, 127
2, 346167, Note_on_c, 2, 50, 127
2, 346167, Note_on_c, 5, 65, 127
2, 346346, Note_off_c, 5, 65, 127
2, 346346, Note_off_c, 2, 50, 127
2, 346348, Note_on_c, 3, 51, 127
2, 346348, Note_on_c, 6, 66, 127
2, 346527, Note_off_c, 3, 51, 127
2, 346529, Note_on_c, 5, 53, 127
2, 346708, Note_off_c, 5, 53, 127
2, 346708, Note_off_c, 3, 63, 127
2, 346709, Note_off_c, 6, 66, 127
2, 346711, Note_on_c, 3, 51, 127
2, 346711, Note_on_c, 6, 66, 127
2, 346711, Note_on_c, 11, 70, 127
2, 346890, Note_off_c, 3, 51, 127
2, 346892, Note_on_c, 5, 53, 127
2, 347071, Note_off_c, 5, 53, 127
2, 347072, Note_off_c, 11, 70, 127
2, 347072, Note_off_c, 6, 66, 127
2, 347073, Note_on_c, 7, 55, 127
2, 347073, Note_on_c, 11, 70, 127
2, 347073, Note_on_c, 4, 76, 127
2, 347252, Note_off_c, 7, 55, 127
2, 347255, Note_on_c, 5, 53, 127
2, 347434, Note_off_c, 5, 53, 127
2, 347434, Note_off_c, 4, 76, 127
2, 347436, Note_on_c, 7, 55, 127
2, 347436, Note_on_c, 3, 75, 127
2, 347615, Note_off_c, 7, 55, 127
2, 347617, Note_on_c, 8, 56, 127
2, 347796, Note_off_c, 8, 56, 127
2, 347797, Note_off_c, 3, 75, 127
2, 347799, Note_on_c, 5, 53, 127
2, 347799, Note_on_c, 1, 73, 127
2, 347978, Note_off_c, 5, 53, 127
2, 347980, Note_on_c, 7, 55, 127
2, 348159, Note_off_c, 11, 70, 127
2, 348161, Note_off_c, 7, 55, 127
2, 348161, Note_off_c, 1, 73, 127
2, 348163, Note_on_c, 8, 56, 127
2, 348163, Note_on_c, 8, 68, 127
2, 348163, Note_on_c, 12, 71, 127
2, 348342, Note_off_c, 8, 56, 127
2, 348344, Note_on_c, 7, 55, 127
2, 348523, Note_off_c, 7, 55, 127
2, 348524, Note_off_c, 12, 71, 127
2, 348524, Note_off_c, 8, 68, 127
2, 348526, Note_on_c, 8, 56, 127
2, 348526, Note_on_c, 11, 70, 127
2, 348526, Note_on_c, 6, 66, 127
2, 348705, Note_off_c, 8, 56, 127
2, 348707, Note_on_c, 11, 58, 127
2, 348886, Note_off_c, 11, 58, 127
2, 348887, Note_off_c, 6, 66, 127
2, 348887, Note_off_c, 11, 70, 127
2, 348888, Note_on_c, 0, 60, 127
2, 348888, Note_on_c, 8, 68, 127
2, 348888, Note_on_c, 5, 65, 127
2, 349067, Note_off_c, 0, 60, 127
2, 349070, Note_on_c, 2, 62, 127
2, 349249, Note_off_c, 2, 62, 127
2, 349249, Note_off_c, 5, 65, 127
2, 349249, Note_off_c, 8, 68, 127
2, 349251, Note_on_c, 3, 63, 127
2, 349251, Note_on_c, 6, 66, 127
2, 349612, Note_off_c, 6, 66, 127
2, 349614, Note_on_c, 1, 61, 127
2, 349614, Note_on_c, 8, 68, 127
2, 349793, Note_off_c, 8, 68, 127
2, 349795, Note_on_c, 6, 66, 127
2, 349974, Note_off_c, 6, 66, 127
2, 349975, Note_off_c, 1, 61, 127
2, 349976, Note_on_c, 12, 59, 127
2, 349976, Note_on_c, 5, 65, 127
2, 350151, Note_off_c, 3, 63, 127
2, 350155, Note_off_c, 5, 65, 127
2, 350158, Note_on_c, 3, 63, 127
2, 350337, Note_off_c, 3, 63, 127
2, 350337, Note_off_c, 12, 59, 127
2, 350339, Note_on_c, 11, 58, 127
2, 350339, Note_on_c, 11, 70, 127
2, 350339, Note_on_c, 2, 62, 127
2, 350700, Note_off_c, 11, 58, 127
2, 350702, Note_on_c, 11, 46, 127
2, 351062, Note_off_c, 2, 62, 127
2, 351062, Note_off_c, 11, 70, 127
2, 351063, Note_off_c, 11, 46, 127
2, 351065, Note_on_c, 11, 58, 127
2, 351065, Note_on_c, 2, 74, 127
2, 351065, Note_on_c, 5, 77, 127
2, 351426, Note_off_c, 5, 77, 127
2, 351426, Note_off_c, 2, 74, 127
2, 351426, Note_off_c, 11, 58, 127
2, 351427, Note_on_c, 2, 50, 127
2, 351427, Note_on_c, 5, 77, 127
2, 351427, Note_on_c, 8, 80, 127
2, 351606, Note_off_c, 2, 50, 127
2, 351609, Note_on_c, 0, 48, 127
2, 351788, Note_off_c, 0, 48, 127
2, 351790, Note_on_c, 2, 50, 127
2, 351969, Note_off_c, 2, 50, 127
2, 351971, Note_on_c, 3, 51, 127
2, 352150, Note_off_c, 3, 51, 127
2, 352150, Note_off_c, 8, 80, 127
2, 352150, Note_off_c, 5, 77, 127
2, 352153, Note_on_c, 0, 48, 127
2, 352153, Note_on_c, 11, 70, 127
2, 352153, Note_on_c, 5, 77, 127
2, 352332, Note_off_c, 0, 48, 127
2, 352334, Note_on_c, 2, 50, 127
2, 352513, Note_off_c, 2, 50, 127
2, 352514, Note_off_c, 5, 77, 127
2, 352514, Note_off_c, 11, 70, 127
2, 352515, Note_on_c, 3, 51, 127
2, 352515, Note_on_c, 6, 78, 127
2, 352515, Note_on_c, 3, 75, 127
2, 352694, Note_off_c, 6, 78, 127
2, 352694, Note_off_c, 3, 51, 127
2, 352697, Note_on_c, 2, 50, 127
2, 352697, Note_on_c, 5, 77, 127
2, 352876, Note_off_c, 5, 77, 127
2, 352876, Note_off_c, 2, 50, 127
2, 352878, Note_on_c, 3, 51, 127
2, 352878, Note_on_c, 6, 78, 127
2, 353057, Note_off_c, 3, 51, 127
2, 353059, Note_on_c, 5, 53, 127
2, 353238, Note_off_c, 5, 53, 127
2, 353238, Note_off_c, 3, 75, 127
2, 353239, Note_off_c, 6, 78, 127
2, 353241, Note_on_c, 3, 51, 127
2, 353241, Note_on_c, 1, 73, 127
2, 353241, Note_on_c, 11, 82, 127
2, 353420, Note_off_c, 3, 51, 127
2, 353422, Note_on_c, 5, 53, 127
2, 353601, Note_off_c, 5, 53, 127
2, 353602, Note_off_c, 11, 82, 127
2, 353602, Note_off_c, 1, 73, 127
2, 353603, Note_on_c, 7, 55, 127
2, 353603, Note_on_c, 11, 70, 127
2, 353603, Note_on_c, 1, 73, 127
2, 353782, Note_off_c, 7, 55, 127
2, 353785, Note_on_c, 5, 53, 127
2, 353964, Note_off_c, 5, 53, 127
2, 353964, Note_off_c, 1, 73, 127
2, 353966, Note_on_c, 7, 55, 127
2, 353966, Note_on_c, 3, 75, 127
2, 354145, Note_off_c, 3, 75, 127
2, 354145, Note_off_c, 7, 55, 127
2, 354147, Note_on_c, 8, 56, 127
2, 354147, Note_on_c, 1, 73, 127
2, 354326, Note_off_c, 1, 73, 127
2, 354326, Note_off_c, 8, 56, 127
2, 354329, Note_on_c, 5, 53, 127
2, 354329, Note_on_c, 12, 71, 127
2, 354505, Note_off_c, 11, 70, 127
2, 354508, Note_off_c, 12, 71, 127
2, 354508, Note_off_c, 5, 53, 127
2, 354510, Note_on_c, 7, 55, 127
2, 354510, Note_on_c, 11, 70, 127
2, 354689, Note_off_c, 11, 70, 127
2, 354689, Note_off_c, 7, 55, 127
2, 354692, Note_on_c, 8, 56, 127
2, 354692, Note_on_c, 8, 68, 127
2, 354692, Note_on_c, 1, 73, 127
2, 354871, Note_off_c, 1, 73, 127
2, 354873, Note_on_c, 12, 71, 127
2, 355052, Note_off_c, 12, 71, 127
2, 355053, Note_off_c, 8, 56, 127
2, 355054, Note_on_c, 8, 44, 127
2, 355054, Note_on_c, 11, 70, 127
2, 355233, Note_off_c, 11, 70, 127
2, 355233, Note_off_c, 8, 44, 127
2, 355234, Note_off_c, 8, 68, 127
2, 355236, Note_on_c, 6, 54, 127
2, 355236, Note_on_c, 8, 68, 127
2, 355415, Note_off_c, 8, 68, 127
2, 355415, Note_off_c, 6, 54, 127
2, 355417, Note_on_c, 5, 53, 127
2, 355417, Note_on_c, 12, 71, 127
2, 355417, Note_on_c, 8, 68, 127
2, 355596, Note_off_c, 5, 53, 127
2, 355598, Note_on_c, 3, 51, 127
2, 355777, Note_off_c, 3, 51, 127
2, 355778, Note_off_c, 8, 68, 127
2, 355778, Note_off_c, 12, 71, 127
2, 355780, Note_on_c, 2, 50, 127
2, 355780, Note_on_c, 8, 68, 127
2, 355780, Note_on_c, 12, 71, 127
2, 355959, Note_off_c, 2, 50, 127
2, 355961, Note_on_c, 0, 48, 127
2, 356140, Note_off_c, 0, 48, 127
2, 356142, Note_on_c, 2, 50, 127
2, 356321, Note_off_c, 2, 50, 127
2, 356324, Note_on_c, 3, 51, 127
2, 356503, Note_off_c, 3, 51, 127
2, 356503, Note_off_c, 12, 71, 127
2, 356503, Note_off_c, 8, 68, 127
2, 356505, Note_on_c, 5, 53, 127
2, 356505, Note_on_c, 6, 66, 127
2, 356505, Note_on_c, 11, 70, 127
2, 356684, Note_off_c, 5, 53, 127
2, 356686, Note_on_c, 6, 54, 127
2, 356865, Note_off_c, 6, 54, 127
2, 356866, Note_off_c, 11, 70, 127
2, 356866, Note_off_c, 6, 66, 127
2, 356868, Note_on_c, 8, 56, 127
2, 356868, Note_on_c, 2, 74, 127
2, 356868, Note_on_c, 5, 65, 127
2, 357047, Note_off_c, 8, 56, 127
2, 357049, Note_on_c, 12, 59, 127
2, 357228, Note_off_c, 12, 59, 127
2, 357230, Note_on_c, 11, 58, 127
2, 357409, Note_off_c, 11, 58, 127
2, 357412, Note_on_c, 8, 56, 127
2, 357591, Note_off_c, 8, 56, 127
2, 357591, Note_off_c, 5, 65, 127
2, 357591, Note_off_c, 2, 74, 127
2, 357593, Note_on_c, 6, 54, 127
2, 357593, Note_on_c, 6, 66, 127
2, 357593, Note_on_c, 3, 75, 127
2, 357772, Note_off_c, 6, 54, 127
2, 357774, Note_on_c, 5, 53, 127
2, 357953, Note_off_c, 5, 53, 127
2, 357954, Note_off_c, 3, 75, 127
2, 357954, Note_off_c, 6, 66, 127
2, 357956, Note_on_c, 3, 51, 127
2, 357956, Note_on_c, 11, 70, 127
2, 357956, Note_on_c, 5, 77, 127
2, 358135, Note_off_c, 3, 51, 127
2, 358137, Note_on_c, 2, 50, 127
2, 358316, Note_off_c, 2, 50, 127
2, 358317, Note_off_c, 5, 77, 127
2, 358317, Note_off_c, 11, 70, 127
2, 358319, Note_on_c, 3, 51, 127
2, 358319, Note_on_c, 6, 78, 127
2, 358319, Note_on_c, 3, 75, 127
2, 358498, Note_off_c, 6, 78, 127
2, 358500, Note_on_c, 5, 77, 127
2, 358679, Note_off_c, 5, 77, 127
2, 358680, Note_off_c, 3, 51, 127
2, 358681, Note_on_c, 3, 39, 127
2, 358681, Note_on_c, 6, 78, 127
2, 358860, Note_off_c, 6, 78, 127
2, 358863, Note_on_c, 8, 80, 127
2, 359042, Note_off_c, 8, 80, 127
2, 359042, Note_off_c, 3, 39, 127
2, 359042, Note_off_c, 3, 75, 127
2, 359044, Note_on_c, 11, 46, 127
2, 359044, Note_on_c, 5, 77, 127
2, 359044, Note_on_c, 2, 74, 127
2, 359223, Note_off_c, 11, 46, 127
2, 359225, Note_on_c, 10, 45, 127
2, 359404, Note_off_c, 10, 45, 127
2, 359407, Note_on_c, 11, 46, 127
2, 359586, Note_off_c, 11, 46, 127
2, 359588, Note_on_c, 0, 48, 127
2, 359767, Note_off_c, 0, 48, 127
2, 359767, Note_off_c, 2, 74, 127
2, 359767, Note_off_c, 5, 77, 127
2, 359769, Note_on_c, 2, 50, 127
2, 359769, Note_on_c, 11, 70, 127
2, 359948, Note_off_c, 2, 50, 127
2, 359951, Note_on_c, 11, 46, 127
2, 360130, Note_off_c, 11, 46, 127
2, 360130, Note_off_c, 11, 70, 127
2, 360132, Note_on_c, 3, 51, 127
2, 360132, Note_on_c, 11, 70, 127
2, 360132, Note_on_c, 6, 78, 127
2, 360311, Note_off_c, 3, 51, 127
2, 360313, Note_on_c, 2, 50, 127
2, 360492, Note_off_c, 2, 50, 127
2, 360495, Note_on_c, 3, 51, 127
2, 360674, Note_off_c, 3, 51, 127
2, 360676, Note_on_c, 5, 53, 127
2, 360855, Note_off_c, 5, 53, 127
2, 360855, Note_off_c, 6, 78, 127
2, 360855, Note_off_c, 11, 70, 127
2, 360857, Note_on_c, 3, 51, 127
2, 360857, Note_on_c, 6, 66, 127
2, 360857, Note_on_c, 11, 70, 127
2, 361036, Note_off_c, 3, 51, 127
2, 361039, Note_on_c, 5, 53, 127
2, 361218, Note_off_c, 5, 53, 127
2, 361218, Note_off_c, 11, 70, 127
2, 361218, Note_off_c, 6, 66, 127
2, 361220, Note_on_c, 3, 51, 127
2, 361220, Note_on_c, 12, 71, 127
2, 361220, Note_on_c, 8, 68, 127
2, 361399, Note_off_c, 12, 71, 127
2, 361399, Note_off_c, 3, 51, 127
2, 361401, Note_on_c, 2, 50, 127
2, 361401, Note_on_c, 11, 70, 127
2, 361580, Note_off_c, 11, 70, 127
2, 361580, Note_off_c, 2, 50, 127
2, 361583, Note_on_c, 3, 51, 127
2, 361583, Note_on_c, 12, 71, 127
2, 361762, Note_off_c, 3, 51, 127
2, 361764, Note_on_c, 5, 53, 127
2, 361943, Note_off_c, 5, 53, 127
2, 361943, Note_off_c, 8, 68, 127
2, 361944, Note_off_c, 12, 71, 127
2, 361946, Note_on_c, 3, 51, 127
2, 361946, Note_on_c, 5, 65, 127
2, 361946, Note_on_c, 8, 68, 127
2, 362125, Note_off_c, 3, 51, 127
2, 362127, Note_on_c, 5, 53, 127
2, 362306, Note_off_c, 5, 53, 127
2, 362307, Note_off_c, 8, 68, 127
2, 362307, Note_off_c, 5, 65, 127
2, 362308, Note_on_c, 2, 50, 127
2, 362308, Note_on_c, 8, 68, 127
2, 362308, Note_on_c, 5, 77, 127
2, 362487, Note_off_c, 2, 50, 127
2, 362490, Note_on_c, 0, 48, 127
2, 362669, Note_off_c, 0, 48, 127
2, 362671, Note_on_c, 2, 50, 127
2, 362850, Note_off_c, 2, 50, 127
2, 362852, Note_on_c, 3, 51, 127
2, 363031, Note_off_c, 3, 51, 127
2, 363031, Note_off_c, 5, 77, 127
2, 363031, Note_off_c, 8, 68, 127
2, 363034, Note_on_c, 0, 48, 127
2, 363034, Note_on_c, 5, 65, 127
2, 363034, Note_on_c, 8, 68, 127
2, 363213, Note_off_c, 0, 48, 127
2, 363215, Note_on_c, 2, 50, 127
2, 363394, Note_off_c, 2, 50, 127
2, 363395, Note_off_c, 8, 68, 127
2, 363395, Note_off_c, 5, 65, 127
2, 363396, Note_on_c, 3, 51, 127
2, 363396, Note_on_c, 6, 66, 127
2, 363396, Note_on_c, 3, 63, 127
2, 363575, Note_off_c, 6, 66, 127
2, 363575, Note_off_c, 3, 51, 127
2, 363578, Note_on_c, 2, 50, 127
2, 363578, Note_on_c, 5, 65, 127
2, 363757, Note_off_c, 5, 65, 127
2, 363757, Note_off_c, 2, 50, 127
2, 363759, Note_on_c, 3, 51, 127
2, 363759, Note_on_c, 6, 66, 127
2, 363938, Note_off_c, 3, 51, 127
2, 363940, Note_on_c, 5, 53, 127
2, 364119, Note_off_c, 5, 53, 127
2, 364119, Note_off_c, 3, 63, 127
2, 364120, Note_off_c, 6, 66, 127
2, 364122, Note_on_c, 3, 51, 127
2, 364122, Note_on_c, 6, 66, 127
2, 364122, Note_on_c, 11, 70, 127
2, 364301, Note_off_c, 3, 51, 127
2, 364303, Note_on_c, 5, 53, 127
2, 364482, Note_off_c, 5, 53, 127
2, 364483, Note_off_c, 11, 70, 127
2, 364483, Note_off_c, 6, 66, 127
2, 364484, Note_on_c, 7, 55, 127
2, 364484, Note_on_c, 4, 76, 127
2, 364484, Note_on_c, 11, 70, 127
2, 364668, Note_off_c, 7, 55, 127
2, 364670, Note_on_c, 5, 53, 127
2, 364854, Note_off_c, 5, 53, 127
2, 364854, Note_off_c, 4, 76, 127
2, 364856, Note_on_c, 7, 55, 127
2, 364856, Note_on_c, 3, 75, 127
2, 365040, Note_off_c, 7, 55, 127
2, 365042, Note_on_c, 8, 56, 127
2, 365226, Note_off_c, 8, 56, 127
2, 365226, Note_off_c, 3, 75, 127
2, 365228, Note_on_c, 5, 53, 127
2, 365228, Note_on_c, 1, 73, 127
2, 365412, Note_off_c, 5, 53, 127
2, 365414, Note_on_c, 7, 55, 127
2, 365598, Note_off_c, 11, 70, 127
2, 365600, Note_off_c, 7, 55, 127
2, 365600, Note_off_c, 1, 73, 127
2, 365602, Note_on_c, 8, 56, 127
2, 365602, Note_on_c, 12, 71, 127
2, 365602, Note_on_c, 8, 68, 127
2, 365792, Note_off_c, 8, 56, 127
2, 365794, Note_on_c, 7, 55, 127
2, 365984, Note_off_c, 7, 55, 127
2, 365984, Note_off_c, 8, 68, 127
2, 365984, Note_off_c, 12, 71, 127
2, 365986, Note_on_c, 8, 56, 127
2, 365986, Note_on_c, 11, 70, 127
2, 365986, Note_on_c, 6, 66, 127
2, 366176, Note_off_c, 8, 56, 127
2, 366179, Note_on_c, 11, 58, 127
2, 366368, Note_off_c, 6, 66, 127
2, 366368, Note_off_c, 11, 70, 127
2, 366369, Note_off_c, 11, 58, 127
2, 366371, Note_on_c, 12, 59, 127
2, 366371, Note_on_c, 8, 68, 127
2, 366371, Note_on_c, 5, 65, 127
2, 366561, Note_off_c, 12, 59, 127
2, 366563, Note_on_c, 5, 53, 127
2, 366753, Note_off_c, 5, 53, 127
2, 366753, Note_off_c, 5, 65, 127
2, 366753, Note_off_c, 8, 68, 127
2, 366755, Note_on_c, 6, 54, 127
2, 366755, Note_on_c, 11, 70, 127
2, 366755, Note_on_c, 3, 63, 127
2, 366956, Note_off_c, 6, 54, 127
2, 366958, Note_on_c, 8, 56, 127
2, 367159, Note_off_c, 8, 56, 127
2, 367159, Note_off_c, 11, 70, 127
2, 367161, Note_on_c, 11, 58, 127
2, 367161, Note_on_c, 8, 68, 127
2, 367362, Note_off_c, 8, 68, 127
2, 367364, Note_on_c, 6, 66, 127
2, 367565, Note_off_c, 6, 66, 127
2, 367565, Note_off_c, 11, 58, 127
2, 367565, Note_off_c, 3, 63, 127
2, 367567, Note_on_c, 11, 46, 127
2, 367567, Note_on_c, 5, 65, 127
2, 367567, Note_on_c, 2, 62, 127
2, 367768, Note_off_c, 5, 65, 127
2, 367770, Note_on_c, 6, 66, 127
2, 367968, Note_off_c, 2, 62, 127
2, 367971, Note_off_c, 6, 66, 127
2, 367971, Note_off_c, 11, 46, 127
2, 367973, Note_on_c, 3, 51, 127
2, 367973, Note_on_c, 3, 63, 127
2, 368800, Note_on_c, 3, 39, 127
2, 369182, Note_off_c, 3, 51, 127
2, 371200, Note_off_c, 3, 39, 127
2, 371200, Note_off_c, 3, 63, 127
2, 375936, End_track
3, 0, Start_track
3, 0, Title_t, "MIDI"
3, 1536, End_track
0, 0, End_of_file
