0, 0, Header, 0, 1, 384
1, 0, Start_track
1, 0, Copyright_t, "(C) John Sankey 1998"
1, 0, Program_c, 0, 6
1, 0, Pitch_bend_c, 0, 8192
1, 0, Program_c, 1, 6
1, 0, Pitch_bend_c, 1, 7792
1, 0, Program_c, 2, 6
1, 0, Pitch_bend_c, 2, 7876
1, 0, Program_c, 3, 6
1, 0, Pitch_bend_c, 3, 7952
1, 0, Program_c, 4, 6
1, 0, Pitch_bend_c, 4, 7792
1, 0, Program_c, 5, 6
1, 0, Pitch_bend_c, 5, 8112
1, 0, Program_c, 6, 6
1, 0, Pitch_bend_c, 6, 7712
1, 0, Program_c, 7, 6
1, 0, Pitch_bend_c, 7, 8037
1, 0, Program_c, 8, 6
1, 0, Pitch_bend_c, 8, 7872
1, 0, Program_c, 10, 6
1, 0, Pitch_bend_c, 10, 7712
1, 0, Program_c, 11, 6
1, 0, Pitch_bend_c, 11, 8032
1, 0, Program_c, 12, 6
1, 0, Pitch_bend_c, 12, 7872
1, 0, Tempo, 500000
1, 51, Note_on_c, 0, 48, 127
1, 52, Note_on_c, 3, 51, 127
1, 53, Note_on_c, 7, 55, 127
1, 54, Note_on_c, 0, 60, 127
1, 55, Note_on_c, 7, 67, 127
1, 55, Note_on_c, 3, 75, 127
1, 55, Note_on_c, 0, 72, 127
1, 1801, Note_off_c, 0, 48, 127
1, 1802, Note_off_c, 3, 51, 127
1, 1803, Note_off_c, 7, 55, 127
1, 1804, Note_off_c, 0, 60, 127
1, 1805, Note_off_c, 0, 72, 127
1, 1805, Note_off_c, 3, 75, 127
1, 1805, Note_off_c, 7, 67, 127
1, 2004, Note_on_c, 0, 72, 127
1, 2005, Note_on_c, 3, 75, 127
1, 2393, Note_off_c, 0, 72, 127
1, 2394, Note_off_c, 3, 75, 127
1, 2394, Note_on_c, 12, 71, 127
1, 2395, Note_on_c, 2, 74, 127
1, 2979, Note_off_c, 12, 71, 127
1, 2980, Note_off_c, 2, 74, 127
1, 3004, Note_on_c, 0, 72, 127
1, 3005, Note_on_c, 3, 75, 127
1, 3171, Note_off_c, 0, 72, 127
1, 3172, Note_off_c, 3, 75, 127
1, 3175, Note_on_c, 0, 48, 127
1, 3176, Note_on_c, 2, 50, 127
1, 3177, Note_on_c, 5, 53, 127
1, 3178, Note_on_c, 8, 56, 127
1, 3179, Note_on_c, 12, 59, 127
1, 3179, Note_on_c, 2, 74, 127
1, 3179, Note_on_c, 5, 77, 127
1, 4737, Note_off_c, 5, 77, 127
1, 4737, Note_off_c, 2, 74, 127
1, 4802, Note_off_c, 0, 48, 127
1, 4803, Note_off_c, 2, 50, 127
1, 4804, Note_off_c, 5, 53, 127
1, 4805, Note_off_c, 8, 56, 127
1, 4806, Note_off_c, 12, 59, 127
1, 5088, Note_on_c, 5, 77, 127
1, 5088, Note_on_c, 2, 74, 127
1, 5452, Note_off_c, 2, 74, 127
1, 5452, Note_off_c, 5, 77, 127
1, 5454, Note_on_c, 2, 74, 127
1, 5454, Note_on_c, 5, 77, 127
1, 6039, Note_off_c, 5, 77, 127
1, 6039, Note_off_c, 2, 74, 127
1, 6064, Note_on_c, 7, 79, 127
1, 6064, Note_on_c, 3, 75, 127
1, 6232, Note_off_c, 3, 75, 127
1, 6232, Note_off_c, 7, 79, 127
1, 6235, Note_on_c, 5, 77, 127
1, 6235, Note_on_c, 8, 80, 127
1, 7354, Note_off_c, 8, 80, 127
1, 7354, Note_off_c, 5, 77, 127
1, 7415, Note_on_c, 5, 77, 127
1, 7415, Note_on_c, 8, 80, 127
1, 7779, Note_off_c, 8, 80, 127
1, 7779, Note_off_c, 5, 77, 127
1, 7781, Note_on_c, 0, 48, 127
1, 7782, Note_on_c, 2, 50, 127
1, 7783, Note_on_c, 5, 53, 127
1, 7784, Note_on_c, 12, 59, 127
1, 7785, Note_on_c, 8, 80, 127
1, 7785, Note_on_c, 5, 77, 127
1, 8171, Note_on_c, 7, 79, 127
1, 8174, Note_off_c, 8, 80, 127
1, 8365, Note_off_c, 7, 79, 127
1, 8365, Note_off_c, 5, 77, 127
1, 8366, Note_on_c, 5, 77, 127
1, 8560, Note_off_c, 5, 77, 127
1, 8561, Note_on_c, 7, 79, 127
1, 9200, Note_on_c, 2, 74, 127
1, 9322, Note_off_c, 7, 79, 127
1, 9341, Note_off_c, 0, 48, 127
1, 9342, Note_off_c, 2, 50, 127
1, 9342, Note_on_c, 0, 48, 127
1, 9343, Note_off_c, 5, 53, 127
1, 9343, Note_on_c, 3, 51, 127
1, 9344, Note_off_c, 12, 59, 127
1, 9344, Note_on_c, 7, 55, 127
1, 9345, Note_on_c, 0, 60, 127
1, 9346, Note_on_c, 0, 72, 127
1, 9346, Note_on_c, 3, 75, 127
1, 9346, Note_on_c, 7, 67, 127
1, 9367, Note_off_c, 2, 74, 127
1, 11024, Note_off_c, 3, 75, 127
1, 11024, Note_off_c, 0, 72, 127
1, 11071, Note_off_c, 0, 48, 127
1, 11072, Note_off_c, 3, 51, 127
1, 11073, Note_off_c, 7, 55, 127
1, 11074, Note_off_c, 0, 60, 127
1, 11075, Note_off_c, 7, 67, 127
1, 11237, Note_on_c, 7, 79, 127
1, 11237, Note_on_c, 3, 75, 127
1, 11601, Note_off_c, 3, 75, 127
1, 11601, Note_off_c, 7, 79, 127
1, 11603, Note_on_c, 7, 79, 127
1, 11603, Note_on_c, 3, 75, 127
1, 12188, Note_off_c, 3, 75, 127
1, 12188, Note_off_c, 7, 79, 127
1, 12213, Note_on_c, 8, 80, 127
1, 12213, Note_on_c, 5, 77, 127
1, 12380, Note_off_c, 5, 77, 127
1, 12380, Note_off_c, 8, 80, 127
1, 12384, Note_on_c, 0, 48, 127
1, 12385, Note_on_c, 4, 52, 127
1, 12386, Note_on_c, 7, 55, 127
1, 12387, Note_on_c, 0, 60, 127
1, 12388, Note_on_c, 0, 72, 127
1, 12388, Note_on_c, 7, 79, 127
1, 12388, Note_on_c, 11, 82, 127
1, 13946, Note_off_c, 11, 82, 127
1, 13946, Note_off_c, 7, 79, 127
1, 13946, Note_off_c, 0, 72, 127
1, 14289, Note_off_c, 0, 60, 127
1, 14312, Note_on_c, 7, 67, 127
1, 14312, Note_on_c, 11, 70, 127
1, 14335, Note_off_c, 0, 48, 127
1, 14336, Note_off_c, 4, 52, 127
1, 14337, Note_off_c, 7, 55, 127
1, 14676, Note_off_c, 11, 70, 127
1, 14676, Note_off_c, 7, 67, 127
1, 14678, Note_on_c, 7, 67, 127
1, 14678, Note_on_c, 11, 70, 127
1, 15263, Note_off_c, 11, 70, 127
1, 15263, Note_off_c, 7, 67, 127
1, 15288, Note_on_c, 8, 68, 127
1, 15288, Note_on_c, 0, 72, 127
1, 15456, Note_off_c, 0, 72, 127
1, 15456, Note_off_c, 8, 68, 127
1, 15459, Note_on_c, 11, 70, 127
1, 15459, Note_on_c, 1, 73, 127
1, 16578, Note_off_c, 1, 73, 127
1, 16637, Note_off_c, 11, 70, 127
1, 16639, Note_on_c, 11, 70, 127
1, 16639, Note_on_c, 1, 73, 127
1, 16985, Note_off_c, 1, 73, 127
1, 16995, Note_off_c, 11, 70, 127
1, 17005, Note_on_c, 0, 48, 127
1, 17006, Note_on_c, 7, 55, 127
1, 17007, Note_on_c, 0, 60, 127
1, 17008, Note_on_c, 11, 70, 127
1, 17009, Note_on_c, 1, 73, 127
1, 17009, Note_on_c, 4, 76, 127
1, 17395, Note_on_c, 0, 72, 127
1, 17398, Note_off_c, 1, 73, 127
1, 17587, Note_off_c, 0, 72, 127
1, 17588, Note_off_c, 11, 70, 127
1, 17590, Note_on_c, 11, 70, 127
1, 17784, Note_off_c, 11, 70, 127
1, 17785, Note_on_c, 0, 72, 127
1, 18330, Note_off_c, 4, 76, 127
1, 18395, Note_on_c, 7, 67, 127
1, 18562, Note_off_c, 7, 67, 127
1, 18565, Note_off_c, 0, 72, 127
1, 18565, Note_off_c, 0, 48, 127
1, 18566, Note_off_c, 7, 55, 127
1, 18566, Note_on_c, 0, 48, 127
1, 18567, Note_off_c, 0, 60, 127
1, 18567, Note_on_c, 5, 53, 127
1, 18568, Note_on_c, 8, 56, 127
1, 18569, Note_on_c, 0, 60, 127
1, 18570, Note_on_c, 8, 68, 127
1, 18570, Note_on_c, 5, 77, 127
1, 18570, Note_on_c, 0, 72, 127
1, 20128, Note_off_c, 5, 77, 127
1, 20193, Note_off_c, 0, 48, 127
1, 20194, Note_off_c, 5, 53, 127
1, 20195, Note_off_c, 8, 56, 127
1, 20196, Note_off_c, 0, 60, 127
1, 20197, Note_off_c, 0, 72, 127
1, 20197, Note_off_c, 8, 68, 127
1, 20518, Note_on_c, 5, 77, 127
1, 20907, Note_off_c, 5, 77, 127
1, 20908, Note_on_c, 7, 79, 127
1, 21493, Note_off_c, 7, 79, 127
1, 21518, Note_on_c, 8, 80, 127
1, 21680, Note_off_c, 8, 80, 127
1, 21690, Note_on_c, 2, 74, 127
1, 22084, Note_on_c, 0, 48, 127
1, 22085, Note_on_c, 2, 50, 127
1, 22086, Note_on_c, 8, 56, 127
1, 22087, Note_on_c, 5, 65, 127
1, 22477, Note_off_c, 0, 48, 127
1, 22478, Note_off_c, 2, 50, 127
1, 22478, Note_on_c, 0, 48, 127
1, 22479, Note_off_c, 8, 56, 127
1, 22479, Note_on_c, 2, 50, 127
1, 22480, Note_off_c, 5, 65, 127
1, 22480, Note_on_c, 8, 56, 127
1, 22481, Note_on_c, 5, 65, 127
1, 23068, Note_off_c, 0, 48, 127
1, 23069, Note_off_c, 2, 50, 127
1, 23070, Note_off_c, 8, 56, 127
1, 23071, Note_off_c, 5, 65, 127
1, 23094, Note_on_c, 7, 55, 127
1, 23094, Note_on_c, 2, 50, 127
1, 23094, Note_on_c, 11, 46, 127
1, 23094, Note_on_c, 7, 67, 127
1, 23256, Note_off_c, 7, 67, 127
1, 23256, Note_off_c, 11, 46, 127
1, 23256, Note_off_c, 2, 50, 127
1, 23256, Note_off_c, 7, 55, 127
1, 23262, Note_off_c, 2, 74, 127
1, 23266, Note_on_c, 11, 46, 127
1, 23267, Note_on_c, 2, 50, 127
1, 23268, Note_on_c, 7, 55, 127
1, 23269, Note_on_c, 7, 67, 127
1, 23660, Note_on_c, 2, 74, 127
1, 24053, Note_off_c, 2, 74, 127
1, 24054, Note_on_c, 7, 79, 127
1, 24644, Note_off_c, 7, 79, 127
1, 24645, Note_on_c, 3, 75, 127
1, 24841, Note_off_c, 3, 75, 127
1, 24842, Note_on_c, 0, 72, 127
1, 25010, Note_off_c, 11, 46, 127
1, 25011, Note_off_c, 2, 50, 127
1, 25012, Note_off_c, 7, 55, 127
1, 25013, Note_off_c, 7, 67, 127
1, 25236, Note_on_c, 11, 46, 127
1, 25237, Note_on_c, 0, 48, 127
1, 25238, Note_on_c, 7, 55, 127
1, 25239, Note_on_c, 3, 63, 127
1, 25629, Note_off_c, 11, 46, 127
1, 25630, Note_off_c, 0, 48, 127
1, 25630, Note_on_c, 11, 46, 127
1, 25631, Note_off_c, 7, 55, 127
1, 25631, Note_on_c, 0, 48, 127
1, 25632, Note_off_c, 3, 63, 127
1, 25632, Note_on_c, 7, 55, 127
1, 25633, Note_on_c, 3, 63, 127
1, 26220, Note_off_c, 11, 46, 127
1, 26221, Note_off_c, 0, 48, 127
1, 26222, Note_off_c, 7, 55, 127
1, 26223, Note_off_c, 3, 63, 127
1, 26246, Note_on_c, 5, 53, 127
1, 26246, Note_on_c, 0, 48, 127
1, 26246, Note_on_c, 8, 44, 127
1, 26246, Note_on_c, 5, 65, 127
1, 26407, Note_on_c, 11, 46, 127
1, 26408, Note_off_c, 5, 65, 127
1, 26408, Note_off_c, 8, 44, 127
1, 26408, Note_off_c, 0, 48, 127
1, 26408, Note_off_c, 5, 53, 127
1, 26418, Note_on_c, 5, 65, 127
1, 26418, Note_on_c, 5, 53, 127
1, 26418, Note_on_c, 0, 48, 127
1, 26495, Note_on_c, 8, 44, 127
1, 26540, Note_off_c, 11, 46, 127
1, 26583, Note_on_c, 11, 46, 127
1, 26614, Note_off_c, 0, 72, 127
1, 26615, Note_on_c, 3, 75, 127
1, 26628, Note_off_c, 8, 44, 127
1, 26670, Note_on_c, 8, 44, 127
1, 26716, Note_off_c, 11, 46, 127
1, 26758, Note_on_c, 11, 46, 127
1, 26803, Note_off_c, 8, 44, 127
1, 26810, Note_off_c, 3, 75, 127
1, 26811, Note_on_c, 1, 73, 127
1, 26846, Note_on_c, 8, 44, 127
1, 26891, Note_off_c, 11, 46, 127
1, 26934, Note_on_c, 11, 46, 127
1, 26979, Note_off_c, 8, 44, 127
1, 27007, Note_off_c, 1, 73, 127
1, 27008, Note_on_c, 0, 72, 127
1, 27021, Note_on_c, 8, 44, 127
1, 27067, Note_off_c, 11, 46, 127
1, 27109, Note_on_c, 11, 46, 127
1, 27154, Note_off_c, 8, 44, 127
1, 27196, Note_on_c, 8, 44, 127
1, 27203, Note_off_c, 0, 72, 127
1, 27204, Note_on_c, 1, 73, 127
1, 27242, Note_off_c, 11, 46, 127
1, 27284, Note_on_c, 11, 46, 127
1, 27329, Note_off_c, 8, 44, 127
1, 27371, Note_on_c, 8, 44, 127
1, 27417, Note_off_c, 11, 46, 127
1, 27458, Note_on_c, 11, 46, 127
1, 27504, Note_off_c, 8, 44, 127
1, 27537, Note_on_c, 8, 44, 127
1, 27591, Note_off_c, 11, 46, 127
1, 27624, Note_on_c, 11, 46, 127
1, 27665, Note_off_c, 8, 44, 127
1, 27711, Note_on_c, 8, 44, 127
1, 27747, Note_off_c, 11, 46, 127
1, 27793, Note_off_c, 1, 73, 127
1, 27794, Note_on_c, 5, 77, 127
1, 27798, Note_on_c, 11, 46, 127
1, 27800, Note_off_c, 5, 65, 127
1, 27829, Note_off_c, 8, 44, 127
1, 27885, Note_on_c, 8, 44, 127
1, 27911, Note_off_c, 11, 46, 127
1, 27985, Note_off_c, 0, 48, 127
1, 27985, Note_off_c, 5, 53, 127
1, 27990, Note_off_c, 5, 77, 127
1, 27991, Note_on_c, 7, 43, 127
1, 27992, Note_on_c, 2, 50, 127
1, 27993, Note_off_c, 8, 44, 127
1, 27993, Note_on_c, 7, 67, 127
1, 27994, Note_on_c, 12, 71, 127
1, 28560, Note_off_c, 7, 67, 127
1, 28561, Note_off_c, 12, 71, 127
1, 28617, Note_on_c, 10, 69, 127
1, 28617, Note_on_c, 0, 72, 127
1, 28769, Note_off_c, 0, 72, 127
1, 28769, Note_off_c, 10, 69, 127
1, 28779, Note_on_c, 12, 71, 127
1, 28779, Note_on_c, 7, 67, 127
1, 29355, Note_off_c, 7, 67, 127
1, 29355, Note_off_c, 12, 71, 127
1, 29376, Note_off_c, 7, 43, 127
1, 29377, Note_off_c, 2, 50, 127
1, 29394, Note_on_c, 0, 72, 127
1, 29394, Note_on_c, 10, 69, 127
1, 29544, Note_off_c, 10, 69, 127
1, 29544, Note_off_c, 0, 72, 127
1, 29566, Note_on_c, 2, 74, 127
1, 29566, Note_on_c, 12, 71, 127
1, 29959, Note_off_c, 12, 71, 127
1, 29960, Note_on_c, 5, 53, 127
1, 29960, Note_on_c, 2, 50, 127
1, 30353, Note_off_c, 2, 50, 127
1, 30353, Note_off_c, 5, 53, 127
1, 30354, Note_on_c, 5, 53, 127
1, 30354, Note_on_c, 2, 50, 127
1, 30944, Note_off_c, 2, 50, 127
1, 30944, Note_off_c, 5, 53, 127
1, 30970, Note_on_c, 7, 55, 127
1, 30970, Note_on_c, 3, 51, 127
1, 31132, Note_off_c, 3, 51, 127
1, 31132, Note_off_c, 7, 55, 127
1, 31142, Note_on_c, 8, 56, 127
1, 31142, Note_on_c, 5, 53, 127
1, 32342, Note_off_c, 5, 53, 127
1, 32342, Note_off_c, 8, 56, 127
1, 32348, Note_on_c, 2, 62, 127
1, 32348, Note_on_c, 8, 56, 127
1, 32348, Note_on_c, 5, 53, 127
1, 32697, Note_off_c, 5, 53, 127
1, 32697, Note_off_c, 8, 56, 127
1, 32697, Note_off_c, 2, 62, 127
1, 32718, Note_on_c, 12, 47, 127
1, 32718, Note_on_c, 7, 43, 127
1, 32719, Note_on_c, 5, 65, 127
1, 33112, Note_on_c, 7, 55, 127
1, 33308, Note_off_c, 7, 55, 127
1, 33309, Note_on_c, 5, 53, 127
1, 33505, Note_off_c, 5, 53, 127
1, 33506, Note_on_c, 7, 55, 127
1, 33614, Note_off_c, 2, 74, 127
1, 33978, Note_off_c, 7, 43, 127
1, 33978, Note_off_c, 12, 47, 127
1, 34014, Note_off_c, 7, 55, 127
1, 34029, Note_off_c, 5, 65, 127
1, 34047, Note_on_c, 2, 50, 127
1, 34047, Note_on_c, 8, 68, 127
1, 34047, Note_on_c, 12, 47, 127
1, 34293, Note_on_c, 7, 43, 127
1, 34294, Note_on_c, 0, 48, 127
1, 34295, Note_on_c, 3, 51, 127
1, 34296, Note_on_c, 7, 67, 127
1, 34297, Note_off_c, 12, 47, 127
1, 34297, Note_off_c, 2, 50, 127
1, 34362, Note_off_c, 8, 68, 127
1, 34884, Note_off_c, 7, 67, 127
1, 34884, Note_on_c, 7, 67, 127
1, 34884, Note_on_c, 5, 65, 127
1, 35080, Note_off_c, 5, 65, 127
1, 35080, Note_off_c, 7, 67, 127
1, 35081, Note_on_c, 10, 69, 127
1, 35081, Note_on_c, 3, 63, 127
1, 35671, Note_off_c, 3, 63, 127
1, 35671, Note_off_c, 10, 69, 127
1, 35697, Note_on_c, 12, 71, 127
1, 35697, Note_on_c, 2, 62, 127
1, 35865, Note_off_c, 2, 62, 127
1, 35865, Note_off_c, 12, 71, 127
1, 35869, Note_on_c, 0, 72, 127
1, 35869, Note_on_c, 3, 63, 127
1, 36140, Note_off_c, 7, 43, 127
1, 36141, Note_off_c, 0, 48, 127
1, 36142, Note_off_c, 3, 51, 127
1, 36459, Note_off_c, 3, 63, 127
1, 36459, Note_off_c, 0, 72, 127
1, 36485, Note_on_c, 12, 71, 127
1, 36485, Note_on_c, 7, 67, 127
1, 36485, Note_on_c, 2, 62, 127
1, 36653, Note_off_c, 2, 62, 127
1, 36653, Note_off_c, 7, 67, 127
1, 36653, Note_off_c, 12, 71, 127
1, 36657, Note_on_c, 10, 69, 127
1, 36657, Note_on_c, 0, 72, 127
1, 36657, Note_on_c, 3, 63, 127
1, 37247, Note_off_c, 3, 63, 127
1, 37247, Note_off_c, 0, 72, 127
1, 37247, Note_off_c, 10, 69, 127
1, 37273, Note_on_c, 2, 74, 127
1, 37273, Note_on_c, 12, 71, 127
1, 37273, Note_on_c, 5, 65, 127
1, 37441, Note_off_c, 5, 65, 127
1, 37441, Note_off_c, 12, 71, 127
1, 37441, Note_off_c, 2, 74, 127
1, 37445, Note_on_c, 7, 67, 127
1, 37446, Note_on_c, 0, 72, 127
1, 37447, Note_on_c, 3, 75, 127
1, 38615, Note_off_c, 0, 72, 127
1, 38616, Note_off_c, 3, 75, 127
1, 38626, Note_on_c, 3, 75, 127
1, 38626, Note_on_c, 0, 72, 127
1, 39027, Note_off_c, 7, 67, 127
1, 39032, Note_off_c, 0, 72, 127
1, 39032, Note_off_c, 3, 75, 127
1, 39033, Note_on_c, 7, 43, 127
1, 39034, Note_on_c, 0, 48, 127
1, 39035, Note_on_c, 3, 51, 127
1, 39036, Note_on_c, 10, 57, 127
1, 39037, Note_on_c, 10, 69, 127
1, 39037, Note_on_c, 6, 78, 127
1, 39037, Note_on_c, 3, 75, 127
1, 39037, Note_on_c, 0, 72, 127
1, 39324, Note_off_c, 0, 72, 127
1, 39441, Note_on_c, 2, 74, 127
1, 39444, Note_off_c, 3, 75, 127
1, 39644, Note_off_c, 2, 74, 127
1, 39645, Note_on_c, 0, 72, 127
1, 39848, Note_off_c, 0, 72, 127
1, 39849, Note_on_c, 2, 74, 127
1, 40365, Note_off_c, 10, 69, 127
1, 40460, Note_off_c, 2, 74, 127
1, 40461, Note_on_c, 10, 69, 127
1, 40663, Note_off_c, 6, 78, 127
1, 40664, Note_off_c, 10, 69, 127
1, 40664, Note_off_c, 7, 43, 127
1, 40665, Note_off_c, 0, 48, 127
1, 40666, Note_off_c, 3, 51, 127
1, 40667, Note_off_c, 10, 57, 127
1, 40681, Note_on_c, 7, 43, 127
1, 40682, Note_on_c, 2, 50, 127
1, 40683, Note_on_c, 7, 55, 127
1, 40684, Note_on_c, 12, 71, 127
1, 40685, Note_on_c, 7, 79, 127
1, 40685, Note_on_c, 2, 74, 127
1, 43442, Note_off_c, 7, 43, 127
1, 43443, Note_off_c, 2, 50, 127
1, 43444, Note_off_c, 7, 55, 127
1, 43445, Note_off_c, 12, 71, 127
1, 43446, Note_off_c, 2, 74, 127
1, 43765, Note_off_c, 7, 79, 127
1, 43865, Note_on_c, 0, 48, 127
1, 43865, Note_on_c, 7, 67, 127
1, 44073, Note_off_c, 7, 67, 127
1, 44074, Note_on_c, 0, 72, 127
1, 44178, Note_off_c, 0, 72, 127
1, 44179, Note_on_c, 2, 74, 127
1, 44283, Note_off_c, 2, 74, 127
1, 44283, Note_off_c, 0, 48, 127
1, 44284, Note_on_c, 0, 60, 127
1, 44284, Note_on_c, 3, 75, 127
1, 44702, Note_off_c, 0, 60, 127
1, 44703, Note_on_c, 5, 53, 127
1, 44862, Note_off_c, 3, 75, 127
1, 44912, Note_on_c, 2, 74, 127
1, 45016, Note_off_c, 2, 74, 127
1, 45017, Note_on_c, 0, 72, 127
1, 45121, Note_off_c, 0, 72, 127
1, 45121, Note_off_c, 5, 53, 127
1, 45122, Note_on_c, 7, 55, 127
1, 45122, Note_on_c, 3, 75, 127
1, 45226, Note_off_c, 3, 75, 127
1, 45227, Note_on_c, 2, 74, 127
1, 45331, Note_off_c, 2, 74, 127
1, 45332, Note_on_c, 0, 72, 127
1, 45436, Note_off_c, 0, 72, 127
1, 45437, Note_on_c, 12, 71, 127
1, 45541, Note_off_c, 12, 71, 127
1, 45541, Note_off_c, 7, 55, 127
1, 45542, Note_on_c, 3, 51, 127
1, 45542, Note_on_c, 0, 72, 127
1, 45750, Note_off_c, 0, 72, 127
1, 45751, Note_on_c, 7, 67, 127
1, 45959, Note_off_c, 7, 67, 127
1, 45959, Note_off_c, 3, 51, 127
1, 45960, Note_on_c, 0, 48, 127
1, 45960, Note_on_c, 8, 68, 127
1, 46168, Note_off_c, 8, 68, 127
1, 46169, Note_on_c, 5, 65, 127
1, 46377, Note_off_c, 5, 65, 127
1, 46377, Note_off_c, 0, 48, 127
1, 46378, Note_on_c, 3, 51, 127
1, 46378, Note_on_c, 7, 67, 127
1, 46586, Note_off_c, 7, 67, 127
1, 46587, Note_on_c, 0, 72, 127
1, 46795, Note_off_c, 0, 72, 127
1, 46795, Note_off_c, 3, 51, 127
1, 46796, Note_on_c, 7, 55, 127
1, 46796, Note_on_c, 7, 67, 127
1, 47004, Note_off_c, 7, 67, 127
1, 47005, Note_on_c, 5, 65, 127
1, 47213, Note_off_c, 5, 65, 127
1, 47213, Note_off_c, 7, 55, 127
1, 47214, Note_on_c, 0, 60, 127
1, 47214, Note_on_c, 3, 63, 127
1, 47422, Note_off_c, 3, 63, 127
1, 47423, Note_on_c, 0, 72, 127
1, 47527, Note_off_c, 0, 72, 127
1, 47528, Note_on_c, 2, 74, 127
1, 47632, Note_off_c, 2, 74, 127
1, 47632, Note_off_c, 0, 60, 127
1, 47633, Note_on_c, 8, 56, 127
1, 47633, Note_on_c, 3, 75, 127
1, 47737, Note_off_c, 3, 75, 127
1, 47738, Note_on_c, 2, 74, 127
1, 47842, Note_off_c, 2, 74, 127
1, 47843, Note_on_c, 0, 72, 127
1, 48051, Note_off_c, 0, 72, 127
1, 48051, Note_off_c, 8, 56, 127
1, 48052, Note_on_c, 3, 51, 127
1, 48052, Note_on_c, 7, 79, 127
1, 48260, Note_off_c, 7, 79, 127
1, 48261, Note_on_c, 0, 72, 127
1, 48469, Note_off_c, 0, 72, 127
1, 48469, Note_off_c, 3, 51, 127
1, 48470, Note_on_c, 5, 53, 127
1, 48470, Note_on_c, 8, 80, 127
1, 48678, Note_off_c, 8, 80, 127
1, 48679, Note_on_c, 0, 72, 127
1, 48887, Note_off_c, 0, 72, 127
1, 48887, Note_off_c, 5, 53, 127
1, 48888, Note_on_c, 7, 55, 127
1, 48888, Note_on_c, 12, 71, 127
1, 49096, Note_off_c, 12, 71, 127
1, 49097, Note_on_c, 0, 72, 127
1, 49305, Note_off_c, 0, 72, 127
1, 49306, Note_on_c, 7, 43, 127
1, 49306, Note_on_c, 2, 74, 127
1, 49514, Note_off_c, 2, 74, 127
1, 49515, Note_on_c, 12, 71, 127
1, 49723, Note_off_c, 12, 71, 127
1, 49723, Note_off_c, 7, 55, 127
1, 49724, Note_on_c, 7, 67, 127
1, 49932, Note_off_c, 7, 43, 127
1, 49933, Note_on_c, 5, 65, 127
1, 50141, Note_off_c, 5, 65, 127
1, 50142, Note_on_c, 3, 63, 127
1, 50350, Note_off_c, 3, 63, 127
1, 50350, Note_off_c, 7, 67, 127
1, 50351, Note_on_c, 2, 62, 127
1, 50559, Note_off_c, 2, 62, 127
1, 50560, Note_on_c, 3, 63, 127
1, 50560, Note_on_c, 7, 79, 127
1, 50664, Note_off_c, 7, 79, 127
1, 50665, Note_on_c, 5, 77, 127
1, 50769, Note_off_c, 5, 77, 127
1, 50770, Note_on_c, 3, 75, 127
1, 50874, Note_off_c, 3, 75, 127
1, 50875, Note_on_c, 2, 74, 127
1, 50979, Note_off_c, 2, 74, 127
1, 50979, Note_off_c, 3, 63, 127
1, 50980, Note_on_c, 7, 67, 127
1, 50980, Note_on_c, 0, 72, 127
1, 51188, Note_off_c, 0, 72, 127
1, 51189, Note_on_c, 11, 70, 127
1, 51397, Note_off_c, 7, 67, 127
1, 51398, Note_on_c, 4, 64, 127
1, 51538, Note_off_c, 11, 70, 127
1, 51608, Note_on_c, 1, 73, 127
1, 51816, Note_off_c, 4, 64, 127
1, 51817, Note_on_c, 0, 60, 127
1, 52011, Note_off_c, 1, 73, 127
1, 52026, Note_on_c, 0, 72, 127
1, 52234, Note_off_c, 0, 72, 127
1, 52234, Note_off_c, 0, 60, 127
1, 52235, Note_on_c, 5, 65, 127
1, 52235, Note_on_c, 8, 80, 127
1, 52339, Note_off_c, 8, 80, 127
1, 52340, Note_on_c, 7, 79, 127
1, 52444, Note_off_c, 7, 79, 127
1, 52445, Note_on_c, 5, 77, 127
1, 52549, Note_off_c, 5, 77, 127
1, 52550, Note_on_c, 4, 76, 127
1, 52654, Note_off_c, 4, 76, 127
1, 52654, Note_off_c, 5, 65, 127
1, 52655, Note_on_c, 8, 68, 127
1, 52655, Note_on_c, 5, 77, 127
1, 53073, Note_off_c, 8, 68, 127
1, 53074, Note_on_c, 5, 65, 127
1, 53157, Note_off_c, 5, 77, 127
1, 53179, Note_on_c, 7, 79, 127
1, 53283, Note_off_c, 7, 79, 127
1, 53284, Note_on_c, 8, 80, 127
1, 53388, Note_off_c, 8, 80, 127
1, 53389, Note_on_c, 7, 79, 127
1, 53493, Note_off_c, 7, 79, 127
1, 53493, Note_off_c, 5, 65, 127
1, 53494, Note_on_c, 0, 60, 127
1, 53494, Note_on_c, 5, 77, 127
1, 53598, Note_off_c, 5, 77, 127
1, 53599, Note_on_c, 3, 75, 127
1, 53703, Note_off_c, 3, 75, 127
1, 53704, Note_on_c, 2, 74, 127
1, 53808, Note_off_c, 2, 74, 127
1, 53809, Note_on_c, 3, 75, 127
1, 53913, Note_off_c, 3, 75, 127
1, 53913, Note_off_c, 0, 60, 127
1, 53914, Note_on_c, 2, 62, 127
1, 53914, Note_on_c, 5, 77, 127
1, 54018, Note_off_c, 5, 77, 127
1, 54019, Note_on_c, 3, 75, 127
1, 54123, Note_off_c, 3, 75, 127
1, 54124, Note_on_c, 2, 74, 127
1, 54228, Note_off_c, 2, 74, 127
1, 54229, Note_on_c, 0, 72, 127
1, 54333, Note_off_c, 0, 72, 127
1, 54333, Note_off_c, 2, 62, 127
1, 54334, Note_on_c, 5, 65, 127
1, 54334, Note_on_c, 11, 70, 127
1, 54542, Note_off_c, 11, 70, 127
1, 54543, Note_on_c, 8, 68, 127
1, 54751, Note_off_c, 5, 65, 127
1, 54752, Note_on_c, 2, 62, 127
1, 54892, Note_off_c, 8, 68, 127
1, 54962, Note_on_c, 0, 72, 127
1, 55170, Note_off_c, 2, 62, 127
1, 55171, Note_on_c, 11, 58, 127
1, 55365, Note_off_c, 0, 72, 127
1, 55380, Note_on_c, 11, 70, 127
1, 55588, Note_off_c, 11, 70, 127
1, 55588, Note_off_c, 11, 58, 127
1, 55589, Note_on_c, 3, 63, 127
1, 55589, Note_on_c, 7, 79, 127
1, 55693, Note_off_c, 7, 79, 127
1, 55694, Note_on_c, 5, 77, 127
1, 55798, Note_off_c, 5, 77, 127
1, 55799, Note_on_c, 3, 75, 127
1, 55903, Note_off_c, 3, 75, 127
1, 55904, Note_on_c, 2, 74, 127
1, 56008, Note_off_c, 2, 74, 127
1, 56008, Note_off_c, 3, 63, 127
1, 56009, Note_on_c, 7, 67, 127
1, 56009, Note_on_c, 3, 75, 127
1, 56427, Note_off_c, 7, 67, 127
1, 56428, Note_on_c, 3, 63, 127
1, 56511, Note_off_c, 3, 75, 127
1, 56533, Note_on_c, 5, 77, 127
1, 56637, Note_off_c, 5, 77, 127
1, 56638, Note_on_c, 7, 79, 127
1, 56742, Note_off_c, 7, 79, 127
1, 56743, Note_on_c, 5, 77, 127
1, 56847, Note_off_c, 5, 77, 127
1, 56847, Note_off_c, 3, 63, 127
1, 56848, Note_on_c, 0, 60, 127
1, 56848, Note_on_c, 3, 75, 127
1, 56952, Note_off_c, 3, 75, 127
1, 56953, Note_on_c, 2, 74, 127
1, 57057, Note_off_c, 2, 74, 127
1, 57058, Note_on_c, 0, 72, 127
1, 57162, Note_off_c, 0, 72, 127
1, 57163, Note_on_c, 12, 71, 127
1, 57267, Note_off_c, 12, 71, 127
1, 57267, Note_off_c, 0, 60, 127
1, 57268, Note_on_c, 8, 56, 127
1, 57268, Note_on_c, 0, 72, 127
1, 57372, Note_off_c, 0, 72, 127
1, 57373, Note_on_c, 11, 70, 127
1, 57477, Note_off_c, 11, 70, 127
1, 57478, Note_on_c, 8, 68, 127
1, 57582, Note_off_c, 8, 68, 127
1, 57583, Note_on_c, 7, 67, 127
1, 57687, Note_off_c, 7, 67, 127
1, 57687, Note_off_c, 8, 56, 127
1, 57688, Note_on_c, 0, 60, 127
1, 57688, Note_on_c, 5, 65, 127
1, 57884, Note_off_c, 5, 65, 127
1, 57897, Note_on_c, 3, 75, 127
1, 58105, Note_off_c, 0, 60, 127
1, 58106, Note_on_c, 5, 65, 127
1, 58289, Note_off_c, 3, 75, 127
1, 58315, Note_on_c, 2, 74, 127
1, 58419, Note_off_c, 2, 74, 127
1, 58420, Note_on_c, 0, 72, 127
1, 58524, Note_off_c, 0, 72, 127
1, 58524, Note_off_c, 5, 65, 127
1, 58525, Note_on_c, 8, 56, 127
1, 58525, Note_on_c, 3, 75, 127
1, 58629, Note_off_c, 3, 75, 127
1, 58630, Note_on_c, 2, 74, 127
1, 58734, Note_off_c, 2, 74, 127
1, 58735, Note_on_c, 0, 72, 127
1, 58839, Note_off_c, 0, 72, 127
1, 58840, Note_on_c, 12, 71, 127
1, 58944, Note_off_c, 12, 71, 127
1, 58944, Note_off_c, 8, 56, 127
1, 58945, Note_on_c, 7, 55, 127
1, 58945, Note_on_c, 0, 72, 127
1, 59049, Note_off_c, 0, 72, 127
1, 59050, Note_on_c, 2, 74, 127
1, 59154, Note_off_c, 2, 74, 127
1, 59155, Note_on_c, 3, 75, 127
1, 59259, Note_off_c, 3, 75, 127
1, 59260, Note_on_c, 5, 77, 127
1, 59364, Note_off_c, 5, 77, 127
1, 59364, Note_off_c, 7, 55, 127
1, 59365, Note_on_c, 0, 60, 127
1, 59365, Note_on_c, 7, 79, 127
1, 59561, Note_off_c, 7, 79, 127
1, 59574, Note_on_c, 0, 72, 127
1, 59782, Note_off_c, 0, 60, 127
1, 59783, Note_on_c, 3, 63, 127
1, 59966, Note_off_c, 0, 72, 127
1, 59992, Note_on_c, 12, 71, 127
1, 60096, Note_off_c, 12, 71, 127
1, 60097, Note_on_c, 0, 72, 127
1, 60201, Note_off_c, 0, 72, 127
1, 60201, Note_off_c, 3, 63, 127
1, 60202, Note_on_c, 7, 55, 127
1, 60202, Note_on_c, 2, 74, 127
1, 60306, Note_off_c, 2, 74, 127
1, 60307, Note_on_c, 0, 72, 127
1, 60411, Note_off_c, 0, 72, 127
1, 60412, Note_on_c, 12, 71, 127
1, 60516, Note_off_c, 12, 71, 127
1, 60517, Note_on_c, 0, 72, 127
1, 60608, Note_off_c, 0, 72, 127
1, 60621, Note_off_c, 7, 55, 127
1, 60622, Note_on_c, 5, 53, 127
1, 60622, Note_on_c, 8, 80, 127
1, 60726, Note_off_c, 8, 80, 127
1, 60727, Note_on_c, 7, 79, 127
1, 60831, Note_off_c, 7, 79, 127
1, 60832, Note_on_c, 5, 77, 127
1, 60936, Note_off_c, 5, 77, 127
1, 60937, Note_on_c, 4, 76, 127
1, 61041, Note_off_c, 4, 76, 127
1, 61041, Note_off_c, 5, 53, 127
1, 61042, Note_on_c, 8, 56, 127
1, 61042, Note_on_c, 5, 77, 127
1, 61238, Note_off_c, 5, 77, 127
1, 61251, Note_on_c, 1, 73, 127
1, 61459, Note_off_c, 8, 56, 127
1, 61460, Note_on_c, 7, 55, 127
1, 61643, Note_off_c, 1, 73, 127
1, 61669, Note_on_c, 0, 72, 127
1, 61773, Note_off_c, 0, 72, 127
1, 61774, Note_on_c, 1, 73, 127
1, 61878, Note_off_c, 1, 73, 127
1, 61878, Note_off_c, 7, 55, 127
1, 61879, Note_on_c, 5, 53, 127
1, 61879, Note_on_c, 3, 75, 127
1, 61983, Note_off_c, 3, 75, 127
1, 61984, Note_on_c, 1, 73, 127
1, 62088, Note_off_c, 1, 73, 127
1, 62089, Note_on_c, 0, 72, 127
1, 62193, Note_off_c, 0, 72, 127
1, 62194, Note_on_c, 1, 73, 127
1, 62298, Note_off_c, 1, 73, 127
1, 62298, Note_off_c, 5, 53, 127
1, 62299, Note_on_c, 3, 51, 127
1, 62299, Note_on_c, 7, 79, 127
1, 62403, Note_off_c, 7, 79, 127
1, 62404, Note_on_c, 5, 77, 127
1, 62508, Note_off_c, 5, 77, 127
1, 62509, Note_on_c, 3, 75, 127
1, 62613, Note_off_c, 3, 75, 127
1, 62614, Note_on_c, 2, 74, 127
1, 62718, Note_off_c, 2, 74, 127
1, 62718, Note_off_c, 3, 51, 127
1, 62719, Note_on_c, 7, 55, 127
1, 62719, Note_on_c, 3, 75, 127
1, 62915, Note_off_c, 3, 75, 127
1, 62928, Note_on_c, 0, 72, 127
1, 63136, Note_off_c, 7, 55, 127
1, 63137, Note_on_c, 5, 53, 127
1, 63320, Note_off_c, 0, 72, 127
1, 63346, Note_on_c, 12, 71, 127
1, 63450, Note_off_c, 12, 71, 127
1, 63451, Note_on_c, 0, 72, 127
1, 63555, Note_off_c, 0, 72, 127
1, 63555, Note_off_c, 5, 53, 127
1, 63556, Note_on_c, 3, 51, 127
1, 63556, Note_on_c, 2, 74, 127
1, 63660, Note_off_c, 2, 74, 127
1, 63661, Note_on_c, 0, 72, 127
1, 63765, Note_off_c, 0, 72, 127
1, 63766, Note_on_c, 12, 71, 127
1, 63870, Note_off_c, 12, 71, 127
1, 63871, Note_on_c, 0, 72, 127
1, 63975, Note_off_c, 0, 72, 127
1, 63975, Note_off_c, 3, 51, 127
1, 63976, Note_on_c, 2, 50, 127
1, 63976, Note_on_c, 5, 77, 127
1, 64080, Note_off_c, 5, 77, 127
1, 64081, Note_on_c, 0, 72, 127
1, 64185, Note_off_c, 0, 72, 127
1, 64186, Note_on_c, 12, 71, 127
1, 64290, Note_off_c, 12, 71, 127
1, 64291, Note_on_c, 10, 69, 127
1, 64395, Note_off_c, 10, 69, 127
1, 64395, Note_off_c, 2, 50, 127
1, 64396, Note_on_c, 5, 53, 127
1, 64396, Note_on_c, 12, 71, 127
1, 64604, Note_off_c, 12, 71, 127
1, 64605, Note_on_c, 2, 74, 127
1, 64813, Note_off_c, 2, 74, 127
1, 64813, Note_off_c, 5, 53, 127
1, 64814, Note_on_c, 8, 56, 127
1, 64814, Note_on_c, 5, 77, 127
1, 64918, Note_off_c, 5, 77, 127
1, 64919, Note_on_c, 11, 70, 127
1, 65023, Note_off_c, 11, 70, 127
1, 65024, Note_on_c, 8, 68, 127
1, 65128, Note_off_c, 8, 68, 127
1, 65129, Note_on_c, 7, 67, 127
1, 65233, Note_off_c, 7, 67, 127
1, 65233, Note_off_c, 8, 56, 127
1, 65234, Note_on_c, 0, 48, 127
1, 65234, Note_on_c, 8, 68, 127
1, 65442, Note_off_c, 8, 68, 127
1, 65443, Note_on_c, 0, 72, 127
1, 65651, Note_off_c, 0, 72, 127
1, 65651, Note_off_c, 0, 48, 127
1, 65652, Note_on_c, 12, 47, 127
1, 65652, Note_on_c, 5, 77, 127
1, 65756, Note_off_c, 5, 77, 127
1, 65757, Note_on_c, 8, 68, 127
1, 65861, Note_off_c, 8, 68, 127
1, 65862, Note_on_c, 7, 67, 127
1, 65966, Note_off_c, 7, 67, 127
1, 65967, Note_on_c, 5, 65, 127
1, 66071, Note_off_c, 5, 65, 127
1, 66071, Note_off_c, 12, 47, 127
1, 66072, Note_on_c, 2, 50, 127
1, 66072, Note_on_c, 7, 67, 127
1, 66490, Note_off_c, 2, 50, 127
1, 66491, Note_on_c, 7, 55, 127
1, 66508, Note_off_c, 7, 67, 127
1, 66595, Note_on_c, 5, 77, 127
1, 66699, Note_off_c, 5, 77, 127
1, 66700, Note_on_c, 7, 79, 127
1, 66804, Note_off_c, 7, 79, 127
1, 66805, Note_on_c, 8, 80, 127
1, 66909, Note_off_c, 8, 80, 127
1, 66909, Note_off_c, 7, 55, 127
1, 66910, Note_on_c, 2, 50, 127
1, 66910, Note_on_c, 7, 79, 127
1, 67118, Note_off_c, 7, 79, 127
1, 67119, Note_on_c, 5, 77, 127
1, 67327, Note_off_c, 5, 77, 127
1, 67327, Note_off_c, 2, 50, 127
1, 67328, Note_on_c, 3, 51, 127
1, 67328, Note_on_c, 7, 79, 127
1, 67524, Note_off_c, 7, 79, 127
1, 67537, Note_on_c, 12, 71, 127
1, 67745, Note_off_c, 3, 51, 127
1, 67746, Note_on_c, 8, 44, 127
1, 67907, Note_off_c, 12, 71, 127
1, 67955, Note_on_c, 0, 72, 127
1, 68163, Note_off_c, 8, 44, 127
1, 68164, Note_on_c, 5, 41, 127
1, 68358, Note_off_c, 0, 72, 127
1, 68373, Note_on_c, 11, 70, 127
1, 68477, Note_off_c, 11, 70, 127
1, 68478, Note_on_c, 8, 68, 127
1, 68582, Note_off_c, 8, 68, 127
1, 68582, Note_off_c, 5, 41, 127
1, 68583, Note_on_c, 7, 43, 127
1, 68583, Note_on_c, 7, 67, 127
1, 68687, Note_off_c, 7, 67, 127
1, 68688, Note_on_c, 5, 65, 127
1, 68792, Note_off_c, 5, 65, 127
1, 68793, Note_on_c, 3, 63, 127
1, 68897, Note_off_c, 3, 63, 127
1, 68898, Note_on_c, 2, 62, 127
1, 69002, Note_off_c, 2, 62, 127
1, 69002, Note_off_c, 7, 43, 127
1, 69003, Note_on_c, 0, 36, 127
1, 69003, Note_on_c, 3, 63, 127
1, 69107, Note_off_c, 3, 63, 127
1, 69108, Note_on_c, 7, 67, 127
1, 69212, Note_off_c, 7, 67, 127
1, 69213, Note_on_c, 5, 65, 127
1, 69317, Note_off_c, 5, 65, 127
1, 69318, Note_on_c, 3, 63, 127
1, 69422, Note_off_c, 3, 63, 127
1, 69423, Note_on_c, 5, 65, 127
1, 69527, Note_off_c, 5, 65, 127
1, 69528, Note_on_c, 3, 63, 127
1, 69632, Note_off_c, 3, 63, 127
1, 69633, Note_on_c, 2, 62, 127
1, 69737, Note_off_c, 2, 62, 127
1, 69738, Note_on_c, 3, 63, 127
1, 69842, Note_off_c, 3, 63, 127
1, 69843, Note_on_c, 2, 62, 127
1, 69987, Note_off_c, 0, 36, 127
1, 70052, Note_on_c, 2, 38, 127
1, 70156, Note_off_c, 2, 38, 127
1, 70157, Note_on_c, 3, 39, 127
1, 70261, Note_off_c, 3, 39, 127
1, 70261, Note_off_c, 2, 62, 127
1, 70262, Note_on_c, 5, 41, 127
1, 70262, Note_on_c, 0, 60, 127
1, 70366, Note_off_c, 5, 41, 127
1, 70367, Note_on_c, 7, 43, 127
1, 70471, Note_off_c, 7, 43, 127
1, 70472, Note_on_c, 10, 45, 127
1, 70576, Note_off_c, 10, 45, 127
1, 70577, Note_on_c, 12, 47, 127
1, 70677, Note_off_c, 0, 60, 127
1, 70680, Note_off_c, 12, 47, 127
1, 70681, Note_on_c, 0, 48, 127
1, 71099, Note_off_c, 0, 48, 127
1, 71100, Note_on_c, 0, 60, 127
1, 71100, Note_on_c, 7, 67, 127
1, 71518, Note_off_c, 0, 60, 127
1, 71519, Note_on_c, 11, 58, 127
1, 71623, Note_off_c, 7, 67, 127
1, 71624, Note_on_c, 8, 68, 127
1, 71728, Note_off_c, 8, 68, 127
1, 71729, Note_on_c, 7, 67, 127
1, 71833, Note_off_c, 7, 67, 127
1, 71834, Note_on_c, 5, 65, 127
1, 71938, Note_off_c, 5, 65, 127
1, 71938, Note_off_c, 11, 58, 127
1, 71939, Note_on_c, 8, 56, 127
1, 71939, Note_on_c, 7, 67, 127
1, 72147, Note_off_c, 7, 67, 127
1, 72148, Note_on_c, 8, 68, 127
1, 72356, Note_off_c, 8, 68, 127
1, 72356, Note_off_c, 8, 56, 127
1, 72357, Note_on_c, 7, 55, 127
1, 72357, Note_on_c, 11, 70, 127
1, 72565, Note_off_c, 11, 70, 127
1, 72566, Note_on_c, 2, 74, 127
1, 72774, Note_off_c, 2, 74, 127
1, 72774, Note_off_c, 7, 55, 127
1, 72775, Note_on_c, 11, 58, 127
1, 72775, Note_on_c, 3, 75, 127
1, 73193, Note_off_c, 11, 58, 127
1, 73194, Note_on_c, 7, 55, 127
1, 73255, Note_off_c, 3, 75, 127
1, 73299, Note_on_c, 11, 70, 127
1, 73403, Note_off_c, 11, 70, 127
1, 73404, Note_on_c, 3, 75, 127
1, 73508, Note_off_c, 3, 75, 127
1, 73509, Note_on_c, 5, 77, 127
1, 73613, Note_off_c, 5, 77, 127
1, 73613, Note_off_c, 7, 55, 127
1, 73614, Note_on_c, 3, 51, 127
1, 73614, Note_on_c, 7, 79, 127
1, 73822, Note_off_c, 7, 79, 127
1, 73823, Note_on_c, 3, 75, 127
1, 74031, Note_off_c, 3, 75, 127
1, 74031, Note_off_c, 3, 51, 127
1, 74032, Note_on_c, 8, 56, 127
1, 74032, Note_on_c, 1, 73, 127
1, 74240, Note_off_c, 1, 73, 127
1, 74241, Note_on_c, 0, 72, 127
1, 74442, Note_off_c, 0, 72, 127
1, 74450, Note_off_c, 8, 56, 127
1, 74451, Note_on_c, 0, 60, 127
1, 74451, Note_on_c, 5, 77, 127
1, 74869, Note_off_c, 0, 60, 127
1, 74870, Note_on_c, 8, 56, 127
1, 74931, Note_off_c, 5, 77, 127
1, 74975, Note_on_c, 0, 72, 127
1, 75079, Note_off_c, 0, 72, 127
1, 75080, Note_on_c, 5, 77, 127
1, 75184, Note_off_c, 5, 77, 127
1, 75185, Note_on_c, 7, 79, 127
1, 75289, Note_off_c, 7, 79, 127
1, 75289, Note_off_c, 8, 56, 127
1, 75290, Note_on_c, 5, 53, 127
1, 75290, Note_on_c, 8, 80, 127
1, 75498, Note_off_c, 8, 80, 127
1, 75499, Note_on_c, 5, 77, 127
1, 75707, Note_off_c, 5, 77, 127
1, 75707, Note_off_c, 5, 53, 127
1, 75708, Note_on_c, 11, 58, 127
1, 75708, Note_on_c, 3, 75, 127
1, 75916, Note_off_c, 3, 75, 127
1, 75917, Note_on_c, 0, 72, 127
1, 76125, Note_off_c, 0, 72, 127
1, 76125, Note_off_c, 11, 58, 127
1, 76126, Note_on_c, 8, 56, 127
1, 76128, Note_on_c, 2, 74, 127
1, 76519, Note_off_c, 2, 74, 127
1, 76544, Note_off_c, 8, 56, 127
1, 76545, Note_on_c, 7, 55, 127
1, 76650, Note_on_c, 5, 77, 127
1, 76754, Note_off_c, 5, 77, 127
1, 76755, Note_on_c, 7, 79, 127
1, 76859, Note_off_c, 7, 79, 127
1, 76860, Note_on_c, 8, 80, 127
1, 76964, Note_off_c, 8, 80, 127
1, 76964, Note_off_c, 7, 55, 127
1, 76965, Note_on_c, 5, 53, 127
1, 76965, Note_on_c, 11, 82, 127
1, 77069, Note_off_c, 11, 82, 127
1, 77070, Note_on_c, 8, 80, 127
1, 77174, Note_off_c, 8, 80, 127
1, 77175, Note_on_c, 7, 79, 127
1, 77279, Note_off_c, 7, 79, 127
1, 77280, Note_on_c, 8, 80, 127
1, 77384, Note_off_c, 8, 80, 127
1, 77384, Note_off_c, 5, 53, 127
1, 77385, Note_on_c, 4, 52, 127
1, 77385, Note_on_c, 11, 82, 127
1, 77489, Note_off_c, 11, 82, 127
1, 77490, Note_on_c, 8, 80, 127
1, 77594, Note_off_c, 8, 80, 127
1, 77595, Note_on_c, 7, 79, 127
1, 77803, Note_off_c, 4, 52, 127
1, 77804, Note_on_c, 7, 55, 127
1, 77878, Note_off_c, 7, 79, 127
1, 77909, Note_on_c, 5, 77, 127
1, 78013, Note_off_c, 5, 77, 127
1, 78014, Note_on_c, 4, 76, 127
1, 78222, Note_off_c, 7, 55, 127
1, 78223, Note_on_c, 0, 60, 127
1, 78297, Note_off_c, 4, 76, 127
1, 78328, Note_on_c, 2, 74, 127
1, 78432, Note_off_c, 2, 74, 127
1, 78433, Note_on_c, 0, 72, 127
1, 78641, Note_off_c, 0, 60, 127
1, 78642, Note_on_c, 4, 52, 127
1, 78746, Note_off_c, 0, 72, 127
1, 78747, Note_on_c, 7, 79, 127
1, 78851, Note_off_c, 7, 79, 127
1, 78852, Note_on_c, 8, 80, 127
1, 78956, Note_off_c, 8, 80, 127
1, 78957, Note_on_c, 11, 82, 127
1, 79061, Note_off_c, 11, 82, 127
1, 79061, Note_off_c, 4, 52, 127
1, 79062, Note_on_c, 5, 53, 127
1, 79062, Note_on_c, 8, 80, 127
1, 79166, Note_off_c, 8, 80, 127
1, 79167, Note_on_c, 7, 79, 127
1, 79271, Note_off_c, 7, 79, 127
1, 79272, Note_on_c, 5, 77, 127
1, 79480, Note_off_c, 5, 53, 127
1, 79481, Note_on_c, 8, 56, 127
1, 79555, Note_off_c, 5, 77, 127
1, 79586, Note_on_c, 3, 75, 127
1, 79690, Note_off_c, 3, 75, 127
1, 79691, Note_on_c, 1, 73, 127
1, 79899, Note_off_c, 8, 56, 127
1, 79900, Note_on_c, 5, 53, 127
1, 79974, Note_off_c, 1, 73, 127
1, 80005, Note_on_c, 0, 72, 127
1, 80109, Note_off_c, 0, 72, 127
1, 80110, Note_on_c, 11, 70, 127
1, 80318, Note_off_c, 5, 53, 127
1, 80319, Note_on_c, 1, 49, 127
1, 80415, Note_off_c, 11, 70, 127
1, 80424, Note_on_c, 5, 77, 127
1, 80528, Note_off_c, 5, 77, 127
1, 80529, Note_on_c, 7, 79, 127
1, 80633, Note_off_c, 7, 79, 127
1, 80634, Note_on_c, 8, 80, 127
1, 80738, Note_off_c, 8, 80, 127
1, 80738, Note_off_c, 1, 49, 127
1, 80739, Note_on_c, 11, 46, 127
1, 80739, Note_on_c, 7, 79, 127
1, 80844, Note_on_c, 5, 77, 127
1, 80914, Note_off_c, 7, 79, 127
1, 80948, Note_off_c, 5, 77, 127
1, 80949, Note_on_c, 4, 76, 127
1, 81053, Note_off_c, 4, 76, 127
1, 81054, Note_on_c, 5, 77, 127
1, 81158, Note_off_c, 5, 77, 127
1, 81158, Note_off_c, 11, 46, 127
1, 81159, Note_on_c, 7, 43, 127
1, 81159, Note_on_c, 11, 82, 127
1, 81264, Note_on_c, 5, 77, 127
1, 81367, Note_off_c, 11, 82, 127
1, 81368, Note_off_c, 5, 77, 127
1, 81369, Note_on_c, 4, 76, 127
1, 81473, Note_off_c, 4, 76, 127
1, 81474, Note_on_c, 5, 77, 127
1, 81578, Note_off_c, 5, 77, 127
1, 81578, Note_off_c, 7, 43, 127
1, 81579, Note_on_c, 0, 48, 127
1, 81579, Note_on_c, 8, 80, 127
1, 81684, Note_on_c, 5, 77, 127
1, 81776, Note_off_c, 8, 80, 127
1, 81788, Note_off_c, 5, 77, 127
1, 81789, Note_on_c, 4, 76, 127
1, 81893, Note_off_c, 4, 76, 127
1, 81894, Note_on_c, 5, 77, 127
1, 81998, Note_off_c, 5, 77, 127
1, 81998, Note_off_c, 0, 48, 127
1, 81999, Note_on_c, 0, 36, 127
1, 81999, Note_on_c, 7, 79, 127
1, 82104, Note_on_c, 5, 77, 127
1, 82119, Note_off_c, 7, 79, 127
1, 82207, Note_off_c, 5, 77, 127
1, 82208, Note_on_c, 4, 76, 127
1, 82312, Note_off_c, 4, 76, 127
1, 82313, Note_on_c, 5, 77, 127
1, 82417, Note_off_c, 5, 77, 127
1, 82417, Note_off_c, 0, 36, 127
1, 82418, Note_on_c, 5, 41, 127
1, 82418, Note_on_c, 5, 77, 127
1, 82626, Note_off_c, 5, 41, 127
1, 82627, Note_on_c, 7, 43, 127
1, 82731, Note_off_c, 7, 43, 127
1, 82732, Note_on_c, 8, 44, 127
1, 82836, Note_off_c, 8, 44, 127
1, 82837, Note_on_c, 11, 46, 127
1, 82941, Note_off_c, 11, 46, 127
1, 82942, Note_on_c, 0, 48, 127
1, 83046, Note_off_c, 0, 48, 127
1, 83047, Note_on_c, 2, 50, 127
1, 83151, Note_off_c, 2, 50, 127
1, 83152, Note_on_c, 4, 52, 127
1, 83256, Note_off_c, 4, 52, 127
1, 83256, Note_off_c, 5, 77, 127
1, 83257, Note_on_c, 5, 53, 127
1, 83362, Note_on_c, 3, 75, 127
1, 83466, Note_off_c, 3, 75, 127
1, 83467, Note_on_c, 2, 74, 127
1, 83571, Note_off_c, 2, 74, 127
1, 83572, Note_on_c, 3, 75, 127
1, 83651, Note_off_c, 5, 53, 127
1, 83676, Note_off_c, 3, 75, 127
1, 83677, Note_on_c, 3, 51, 127
1, 83677, Note_on_c, 5, 77, 127
1, 83781, Note_off_c, 5, 77, 127
1, 83782, Note_on_c, 2, 74, 127
1, 83886, Note_off_c, 2, 74, 127
1, 83887, Note_on_c, 3, 75, 127
1, 83991, Note_off_c, 3, 75, 127
1, 83992, Note_on_c, 5, 77, 127
1, 84096, Note_off_c, 5, 77, 127
1, 84096, Note_off_c, 3, 51, 127
1, 84097, Note_on_c, 2, 50, 127
1, 84097, Note_on_c, 11, 70, 127
1, 84201, Note_off_c, 11, 70, 127
1, 84202, Note_on_c, 2, 74, 127
1, 84306, Note_off_c, 2, 74, 127
1, 84307, Note_on_c, 5, 77, 127
1, 84411, Note_off_c, 5, 77, 127
1, 84412, Note_on_c, 7, 79, 127
1, 84516, Note_off_c, 7, 79, 127
1, 84516, Note_off_c, 2, 50, 127
1, 84517, Note_on_c, 5, 53, 127
1, 84517, Note_on_c, 8, 80, 127
1, 84935, Note_off_c, 5, 53, 127
1, 84936, Note_on_c, 2, 50, 127
1, 84997, Note_off_c, 8, 80, 127
1, 85041, Note_on_c, 7, 79, 127
1, 85145, Note_off_c, 7, 79, 127
1, 85146, Note_on_c, 5, 77, 127
1, 85250, Note_off_c, 5, 77, 127
1, 85251, Note_on_c, 8, 80, 127
1, 85355, Note_off_c, 8, 80, 127
1, 85355, Note_off_c, 2, 50, 127
1, 85356, Note_on_c, 11, 46, 127
1, 85356, Note_on_c, 7, 79, 127
1, 85460, Note_off_c, 7, 79, 127
1, 85461, Note_on_c, 5, 77, 127
1, 85565, Note_off_c, 5, 77, 127
1, 85566, Note_on_c, 3, 75, 127
1, 85670, Note_off_c, 3, 75, 127
1, 85671, Note_on_c, 2, 74, 127
1, 85775, Note_off_c, 2, 74, 127
1, 85775, Note_off_c, 11, 46, 127
1, 85776, Note_on_c, 7, 55, 127
1, 85776, Note_on_c, 3, 75, 127
1, 85880, Note_off_c, 3, 75, 127
1, 85881, Note_on_c, 11, 70, 127
1, 85985, Note_off_c, 11, 70, 127
1, 85986, Note_on_c, 3, 75, 127
1, 86090, Note_off_c, 3, 75, 127
1, 86091, Note_on_c, 5, 77, 127
1, 86195, Note_off_c, 5, 77, 127
1, 86195, Note_off_c, 7, 55, 127
1, 86196, Note_on_c, 11, 58, 127
1, 86196, Note_on_c, 7, 79, 127
1, 86614, Note_off_c, 11, 58, 127
1, 86615, Note_on_c, 3, 51, 127
1, 86676, Note_off_c, 7, 79, 127
1, 86720, Note_on_c, 5, 77, 127
1, 86824, Note_off_c, 5, 77, 127
1, 86825, Note_on_c, 3, 75, 127
1, 86929, Note_off_c, 3, 75, 127
1, 86930, Note_on_c, 7, 79, 127
1, 87034, Note_off_c, 7, 79, 127
1, 87034, Note_off_c, 3, 51, 127
1, 87035, Note_on_c, 7, 55, 127
1, 87035, Note_on_c, 5, 77, 127
1, 87139, Note_off_c, 5, 77, 127
1, 87139, Note_on_c, 3, 75, 127
1, 87243, Note_off_c, 3, 75, 127
1, 87243, Note_on_c, 2, 74, 127
1, 87347, Note_off_c, 2, 74, 127
1, 87347, Note_on_c, 0, 72, 127
1, 87422, Note_off_c, 0, 72, 127
1, 87454, Note_off_c, 7, 55, 127
1, 87455, Note_on_c, 10, 45, 127
1, 87455, Note_on_c, 11, 82, 127
1, 87559, Note_off_c, 11, 82, 127
1, 87560, Note_on_c, 10, 81, 127
1, 87664, Note_off_c, 10, 81, 127
1, 87665, Note_on_c, 7, 79, 127
1, 87769, Note_off_c, 7, 79, 127
1, 87770, Note_on_c, 6, 78, 127
1, 87874, Note_off_c, 6, 78, 127
1, 87874, Note_off_c, 10, 45, 127
1, 87875, Note_on_c, 6, 54, 127
1, 87875, Note_on_c, 3, 75, 127
1, 88083, Note_off_c, 3, 75, 127
1, 88084, Note_on_c, 2, 74, 127
1, 88292, Note_off_c, 6, 54, 127
1, 88293, Note_on_c, 7, 55, 127
1, 88367, Note_off_c, 2, 74, 127
1, 88398, Note_on_c, 7, 79, 127
1, 88502, Note_off_c, 7, 79, 127
1, 88503, Note_on_c, 10, 81, 127
1, 88607, Note_off_c, 10, 81, 127
1, 88608, Note_on_c, 11, 82, 127
1, 88712, Note_off_c, 11, 82, 127
1, 88712, Note_off_c, 7, 55, 127
1, 88713, Note_on_c, 7, 43, 127
1, 88713, Note_on_c, 1, 73, 127
1, 88921, Note_off_c, 1, 73, 127
1, 88922, Note_on_c, 2, 74, 127
1, 89130, Note_off_c, 7, 43, 127
1, 89131, Note_on_c, 2, 50, 127
1, 89205, Note_off_c, 2, 74, 127
1, 89236, Note_on_c, 6, 78, 127
1, 89340, Note_off_c, 6, 78, 127
1, 89341, Note_on_c, 7, 79, 127
1, 89445, Note_off_c, 7, 79, 127
1, 89446, Note_on_c, 10, 81, 127
1, 89550, Note_off_c, 10, 81, 127
1, 89550, Note_off_c, 2, 50, 127
1, 89551, Note_on_c, 10, 57, 127
1, 89551, Note_on_c, 0, 72, 127
1, 89655, Note_off_c, 0, 72, 127
1, 89656, Note_on_c, 3, 75, 127
1, 89760, Note_off_c, 3, 75, 127
1, 89761, Note_on_c, 2, 74, 127
1, 89865, Note_off_c, 2, 74, 127
1, 89866, Note_on_c, 0, 72, 127
1, 89970, Note_off_c, 0, 72, 127
1, 89970, Note_off_c, 10, 57, 127
1, 89971, Note_on_c, 0, 60, 127
1, 89971, Note_on_c, 6, 78, 127
1, 90075, Note_off_c, 6, 78, 127
1, 90076, Note_on_c, 2, 74, 127
1, 90180, Note_off_c, 2, 74, 127
1, 90181, Note_on_c, 4, 76, 127
1, 90285, Note_off_c, 4, 76, 127
1, 90286, Note_on_c, 6, 78, 127
1, 90390, Note_off_c, 6, 78, 127
1, 90390, Note_off_c, 0, 60, 127
1, 90391, Note_on_c, 2, 50, 127
1, 90391, Note_on_c, 7, 79, 127
1, 90495, Note_off_c, 7, 79, 127
1, 90496, Note_on_c, 10, 81, 127
1, 90600, Note_off_c, 10, 81, 127
1, 90601, Note_on_c, 11, 82, 127
1, 90705, Note_off_c, 11, 82, 127
1, 90706, Note_on_c, 0, 84, 127
1, 90804, Note_off_c, 0, 84, 127
1, 90809, Note_off_c, 2, 50, 127
1, 90810, Note_on_c, 7, 55, 127
1, 90810, Note_on_c, 11, 82, 127
1, 90915, Note_on_c, 10, 81, 127
1, 90930, Note_off_c, 11, 82, 127
1, 91018, Note_off_c, 10, 81, 127
1, 91019, Note_on_c, 7, 79, 127
1, 91123, Note_off_c, 7, 79, 127
1, 91124, Note_on_c, 6, 78, 127
1, 91228, Note_off_c, 7, 55, 127
1, 91229, Note_on_c, 10, 57, 127
1, 91353, Note_off_c, 6, 78, 127
1, 91438, Note_on_c, 7, 79, 127
1, 91646, Note_off_c, 10, 57, 127
1, 91647, Note_on_c, 11, 58, 127
1, 91808, Note_off_c, 7, 79, 127
1, 91856, Note_on_c, 2, 74, 127
1, 92064, Note_off_c, 11, 58, 127
1, 92065, Note_on_c, 12, 59, 127
1, 92226, Note_off_c, 2, 74, 127
1, 92274, Note_on_c, 3, 75, 127
1, 92482, Note_off_c, 12, 59, 127
1, 92483, Note_on_c, 0, 60, 127
1, 92644, Note_off_c, 3, 75, 127
1, 92692, Note_on_c, 12, 71, 127
1, 92900, Note_off_c, 0, 60, 127
1, 92901, Note_on_c, 2, 62, 127
1, 93062, Note_off_c, 12, 71, 127
1, 93110, Note_on_c, 0, 72, 127
1, 93318, Note_off_c, 2, 62, 127
1, 93319, Note_on_c, 3, 63, 127
1, 93412, Note_off_c, 0, 72, 127
1, 93424, Note_on_c, 11, 70, 127
1, 93528, Note_off_c, 11, 70, 127
1, 93529, Note_on_c, 8, 68, 127
1, 93633, Note_off_c, 8, 68, 127
1, 93634, Note_on_c, 7, 67, 127
1, 93738, Note_off_c, 7, 67, 127
1, 93738, Note_off_c, 3, 63, 127
1, 93739, Note_on_c, 0, 60, 127
1, 93739, Note_on_c, 8, 68, 127
1, 93947, Note_off_c, 8, 68, 127
1, 93948, Note_on_c, 0, 72, 127
1, 94144, Note_off_c, 0, 72, 127
1, 94156, Note_off_c, 0, 60, 127
1, 94157, Note_on_c, 10, 57, 127
1, 94157, Note_on_c, 6, 66, 127
1, 94255, Note_off_c, 6, 66, 127
1, 94262, Note_on_c, 3, 75, 127
1, 94366, Note_off_c, 3, 75, 127
1, 94367, Note_on_c, 2, 74, 127
1, 94471, Note_off_c, 2, 74, 127
1, 94472, Note_on_c, 0, 72, 127
1, 94558, Note_off_c, 0, 72, 127
1, 94575, Note_off_c, 10, 57, 127
1, 94576, Note_on_c, 7, 55, 127
1, 94576, Note_on_c, 11, 82, 127
1, 94871, Note_off_c, 11, 82, 127
1, 94891, Note_on_c, 10, 81, 127
1, 94995, Note_off_c, 10, 81, 127
1, 94995, Note_off_c, 7, 55, 127
1, 94996, Note_on_c, 2, 62, 127
1, 94996, Note_on_c, 7, 79, 127
1, 95415, Note_on_c, 2, 50, 127
1, 95467, Note_on_c, 6, 78, 127
1, 95487, Note_off_c, 7, 79, 127
1, 95525, Note_on_c, 7, 79, 127
1, 95547, Note_off_c, 6, 78, 127
1, 95582, Note_on_c, 6, 78, 127
1, 95605, Note_off_c, 7, 79, 127
1, 95774, Note_on_c, 7, 79, 127
1, 95779, Note_off_c, 6, 78, 127
1, 95824, Note_off_c, 7, 79, 127
1, 95832, Note_off_c, 2, 50, 127
1, 95832, Note_off_c, 2, 62, 127
1, 95833, Note_on_c, 7, 55, 127
1, 95833, Note_on_c, 7, 79, 127
1, 96251, Note_off_c, 7, 55, 127
1, 96252, Note_on_c, 10, 57, 127
1, 96670, Note_off_c, 10, 57, 127
1, 96670, Note_off_c, 7, 79, 127
1, 96671, Note_on_c, 12, 59, 127
1, 96776, Note_on_c, 5, 77, 127
1, 96880, Note_off_c, 5, 77, 127
1, 96881, Note_on_c, 7, 79, 127
1, 96985, Note_off_c, 7, 79, 127
1, 96986, Note_on_c, 8, 80, 127
1, 97090, Note_off_c, 8, 80, 127
1, 97090, Note_off_c, 12, 59, 127
1, 97091, Note_on_c, 7, 55, 127
1, 97091, Note_on_c, 7, 79, 127
1, 97195, Note_off_c, 7, 79, 127
1, 97196, Note_on_c, 5, 77, 127
1, 97300, Note_off_c, 5, 77, 127
1, 97301, Note_on_c, 3, 75, 127
1, 97405, Note_off_c, 3, 75, 127
1, 97406, Note_on_c, 2, 74, 127
1, 97510, Note_off_c, 2, 74, 127
1, 97510, Note_off_c, 7, 55, 127
1, 97511, Note_on_c, 0, 60, 127
1, 97511, Note_on_c, 5, 77, 127
1, 97615, Note_off_c, 5, 77, 127
1, 97616, Note_on_c, 3, 75, 127
1, 97720, Note_off_c, 3, 75, 127
1, 97721, Note_on_c, 2, 74, 127
1, 97825, Note_off_c, 2, 74, 127
1, 97826, Note_on_c, 0, 72, 127
1, 97930, Note_off_c, 0, 72, 127
1, 97930, Note_off_c, 0, 60, 127
1, 97931, Note_on_c, 3, 63, 127
1, 97931, Note_on_c, 7, 79, 127
1, 98346, Note_off_c, 7, 79, 127
1, 98349, Note_off_c, 3, 63, 127
1, 98350, Note_on_c, 0, 60, 127
1, 98455, Note_on_c, 3, 75, 127
1, 98559, Note_off_c, 3, 75, 127
1, 98560, Note_on_c, 5, 77, 127
1, 98664, Note_off_c, 5, 77, 127
1, 98665, Note_on_c, 7, 79, 127
1, 98769, Note_off_c, 7, 79, 127
1, 98769, Note_off_c, 0, 60, 127
1, 98770, Note_on_c, 10, 57, 127
1, 98770, Note_on_c, 5, 77, 127
1, 98874, Note_off_c, 5, 77, 127
1, 98875, Note_on_c, 3, 75, 127
1, 98979, Note_off_c, 3, 75, 127
1, 98980, Note_on_c, 2, 74, 127
1, 99084, Note_off_c, 2, 74, 127
1, 99085, Note_on_c, 0, 72, 127
1, 99189, Note_off_c, 0, 72, 127
1, 99189, Note_off_c, 10, 57, 127
1, 99190, Note_on_c, 11, 58, 127
1, 99190, Note_on_c, 3, 75, 127
1, 99294, Note_off_c, 3, 75, 127
1, 99295, Note_on_c, 2, 74, 127
1, 99399, Note_off_c, 2, 74, 127
1, 99400, Note_on_c, 0, 72, 127
1, 99504, Note_off_c, 0, 72, 127
1, 99505, Note_on_c, 11, 70, 127
1, 99609, Note_off_c, 11, 70, 127
1, 99609, Note_off_c, 11, 58, 127
1, 99610, Note_on_c, 2, 62, 127
1, 99610, Note_on_c, 7, 79, 127
1, 100025, Note_off_c, 7, 79, 127
1, 100028, Note_off_c, 2, 62, 127
1, 100029, Note_on_c, 11, 58, 127
1, 100134, Note_on_c, 2, 74, 127
1, 100238, Note_off_c, 2, 74, 127
1, 100239, Note_on_c, 3, 75, 127
1, 100343, Note_off_c, 3, 75, 127
1, 100344, Note_on_c, 5, 77, 127
1, 100448, Note_off_c, 5, 77, 127
1, 100448, Note_off_c, 11, 58, 127
1, 100449, Note_on_c, 7, 55, 127
1, 100449, Note_on_c, 3, 75, 127
1, 100553, Note_off_c, 3, 75, 127
1, 100554, Note_on_c, 2, 74, 127
1, 100658, Note_off_c, 2, 74, 127
1, 100659, Note_on_c, 0, 72, 127
1, 100763, Note_off_c, 0, 72, 127
1, 100764, Note_on_c, 11, 70, 127
1, 100868, Note_off_c, 11, 70, 127
1, 100868, Note_off_c, 7, 55, 127
1, 100869, Note_on_c, 10, 57, 127
1, 100869, Note_on_c, 2, 74, 127
1, 100973, Note_off_c, 2, 74, 127
1, 100974, Note_on_c, 0, 72, 127
1, 101078, Note_off_c, 0, 72, 127
1, 101079, Note_on_c, 11, 70, 127
1, 101183, Note_off_c, 11, 70, 127
1, 101184, Note_on_c, 10, 69, 127
1, 101288, Note_off_c, 10, 69, 127
1, 101288, Note_off_c, 10, 57, 127
1, 101289, Note_on_c, 0, 60, 127
1, 101289, Note_on_c, 7, 79, 127
1, 101704, Note_off_c, 7, 79, 127
1, 101707, Note_off_c, 0, 60, 127
1, 101708, Note_on_c, 10, 57, 127
1, 101813, Note_on_c, 0, 72, 127
1, 101917, Note_off_c, 0, 72, 127
1, 101918, Note_on_c, 2, 74, 127
1, 102022, Note_off_c, 2, 74, 127
1, 102023, Note_on_c, 3, 75, 127
1, 102127, Note_off_c, 3, 75, 127
1, 102127, Note_off_c, 10, 57, 127
1, 102128, Note_on_c, 6, 54, 127
1, 102128, Note_on_c, 2, 74, 127
1, 102232, Note_off_c, 2, 74, 127
1, 102233, Note_on_c, 0, 72, 127
1, 102337, Note_off_c, 0, 72, 127
1, 102338, Note_on_c, 11, 70, 127
1, 102442, Note_off_c, 11, 70, 127
1, 102443, Note_on_c, 10, 69, 127
1, 102547, Note_off_c, 10, 69, 127
1, 102547, Note_off_c, 6, 54, 127
1, 102548, Note_on_c, 7, 55, 127
1, 102548, Note_on_c, 0, 72, 127
1, 102652, Note_off_c, 0, 72, 127
1, 102653, Note_on_c, 11, 70, 127
1, 102757, Note_off_c, 11, 70, 127
1, 102758, Note_on_c, 10, 69, 127
1, 102862, Note_off_c, 10, 69, 127
1, 102863, Note_on_c, 7, 67, 127
1, 102967, Note_off_c, 7, 55, 127
1, 102968, Note_on_c, 11, 58, 127
1, 102968, Note_on_c, 7, 79, 127
1, 103071, Note_off_c, 7, 67, 127
1, 103383, Note_off_c, 7, 79, 127
1, 103386, Note_off_c, 11, 58, 127
1, 103387, Note_on_c, 7, 55, 127
1, 103492, Note_on_c, 11, 70, 127
1, 103596, Note_off_c, 11, 70, 127
1, 103597, Note_on_c, 0, 72, 127
1, 103701, Note_off_c, 0, 72, 127
1, 103702, Note_on_c, 2, 74, 127
1, 103806, Note_off_c, 2, 74, 127
1, 103806, Note_off_c, 7, 55, 127
1, 103807, Note_on_c, 3, 51, 127
1, 103807, Note_on_c, 0, 72, 127
1, 103911, Note_off_c, 0, 72, 127
1, 103912, Note_on_c, 11, 70, 127
1, 104016, Note_off_c, 11, 70, 127
1, 104017, Note_on_c, 8, 68, 127
1, 104121, Note_off_c, 8, 68, 127
1, 104122, Note_on_c, 7, 67, 127
1, 104214, Note_off_c, 7, 67, 127
1, 104226, Note_off_c, 3, 51, 127
1, 104227, Note_on_c, 0, 48, 127
1, 104227, Note_on_c, 8, 68, 127
1, 104435, Note_off_c, 0, 48, 127
1, 104436, Note_on_c, 2, 50, 127
1, 104540, Note_off_c, 2, 50, 127
1, 104541, Note_on_c, 3, 51, 127
1, 104645, Note_off_c, 3, 51, 127
1, 104646, Note_on_c, 5, 53, 127
1, 104750, Note_off_c, 5, 53, 127
1, 104751, Note_on_c, 7, 55, 127
1, 104855, Note_off_c, 7, 55, 127
1, 104856, Note_on_c, 8, 56, 127
1, 104960, Note_off_c, 8, 56, 127
1, 104961, Note_on_c, 11, 58, 127
1, 105065, Note_off_c, 11, 58, 127
1, 105065, Note_off_c, 8, 68, 127
1, 105066, Note_on_c, 0, 60, 127
1, 105171, Note_on_c, 8, 68, 127
1, 105275, Note_off_c, 8, 68, 127
1, 105276, Note_on_c, 0, 48, 127
1, 105276, Note_on_c, 7, 67, 127
1, 105380, Note_off_c, 7, 67, 127
1, 105381, Note_on_c, 8, 68, 127
1, 105481, Note_off_c, 0, 60, 127
1, 105484, Note_off_c, 8, 68, 127
1, 105485, Note_on_c, 0, 60, 127
1, 105485, Note_on_c, 11, 70, 127
1, 105589, Note_off_c, 11, 70, 127
1, 105590, Note_off_c, 0, 48, 127
1, 105590, Note_on_c, 8, 68, 127
1, 105694, Note_off_c, 8, 68, 127
1, 105695, Note_on_c, 7, 67, 127
1, 105799, Note_off_c, 7, 67, 127
1, 105800, Note_on_c, 8, 68, 127
1, 105904, Note_off_c, 8, 68, 127
1, 105905, Note_on_c, 3, 75, 127
1, 106010, Note_on_c, 0, 48, 127
1, 106054, Note_off_c, 0, 60, 127
1, 106114, Note_off_c, 0, 48, 127
1, 106115, Note_on_c, 2, 50, 127
1, 106219, Note_off_c, 2, 50, 127
1, 106220, Note_on_c, 3, 51, 127
1, 106324, Note_off_c, 3, 51, 127
1, 106325, Note_on_c, 5, 53, 127
1, 106429, Note_off_c, 5, 53, 127
1, 106430, Note_on_c, 7, 55, 127
1, 106534, Note_off_c, 7, 55, 127
1, 106535, Note_on_c, 8, 56, 127
1, 106639, Note_off_c, 8, 56, 127
1, 106640, Note_on_c, 11, 58, 127
1, 106744, Note_off_c, 11, 58, 127
1, 106744, Note_off_c, 3, 75, 127
1, 106745, Note_on_c, 0, 60, 127
1, 106850, Note_on_c, 0, 72, 127
1, 106954, Note_off_c, 0, 72, 127
1, 106955, Note_on_c, 0, 48, 127
1, 106955, Note_on_c, 12, 71, 127
1, 107059, Note_off_c, 12, 71, 127
1, 107060, Note_on_c, 0, 72, 127
1, 107160, Note_off_c, 0, 60, 127
1, 107163, Note_off_c, 0, 72, 127
1, 107164, Note_on_c, 0, 60, 127
1, 107164, Note_on_c, 2, 74, 127
1, 107216, Note_off_c, 0, 48, 127
1, 107267, Note_off_c, 2, 74, 127
1, 107268, Note_on_c, 0, 72, 127
1, 107372, Note_off_c, 0, 72, 127
1, 107373, Note_on_c, 12, 71, 127
1, 107477, Note_off_c, 12, 71, 127
1, 107478, Note_on_c, 0, 72, 127
1, 107582, Note_off_c, 0, 72, 127
1, 107583, Note_on_c, 6, 78, 127
1, 107758, Note_off_c, 6, 78, 127
1, 107793, Note_on_c, 3, 75, 127
1, 108002, Note_on_c, 0, 48, 127
1, 108210, Note_off_c, 3, 75, 127
1, 108211, Note_on_c, 2, 74, 127
1, 108309, Note_off_c, 0, 60, 127
1, 108419, Note_off_c, 2, 74, 127
1, 108419, Note_off_c, 0, 48, 127
1, 108420, Note_on_c, 11, 46, 127
1, 108420, Note_on_c, 7, 79, 127
1, 108595, Note_off_c, 7, 79, 127
1, 108630, Note_on_c, 2, 74, 127
1, 108838, Note_off_c, 11, 46, 127
1, 108839, Note_on_c, 11, 58, 127
1, 109047, Note_off_c, 2, 74, 127
1, 109048, Note_on_c, 0, 72, 127
1, 109256, Note_off_c, 0, 72, 127
1, 109256, Note_off_c, 11, 58, 127
1, 109257, Note_on_c, 6, 54, 127
1, 109257, Note_on_c, 10, 81, 127
1, 109432, Note_off_c, 10, 81, 127
1, 109467, Note_on_c, 0, 72, 127
1, 109675, Note_off_c, 6, 54, 127
1, 109676, Note_on_c, 2, 50, 127
1, 109884, Note_off_c, 0, 72, 127
1, 109885, Note_on_c, 11, 70, 127
1, 110093, Note_off_c, 2, 50, 127
1, 110094, Note_on_c, 7, 55, 127
1, 110125, Note_off_c, 11, 70, 127
1, 110199, Note_on_c, 2, 74, 127
1, 110303, Note_off_c, 2, 74, 127
1, 110304, Note_on_c, 0, 72, 127
1, 110408, Note_off_c, 0, 72, 127
1, 110409, Note_on_c, 11, 70, 127
1, 110513, Note_off_c, 11, 70, 127
1, 110513, Note_off_c, 7, 55, 127
1, 110514, Note_on_c, 3, 51, 127
1, 110514, Note_on_c, 7, 79, 127
1, 110623, Note_off_c, 7, 79, 127
1, 110624, Note_on_c, 11, 70, 127
1, 110733, Note_off_c, 11, 70, 127
1, 110734, Note_on_c, 10, 69, 127
1, 110843, Note_off_c, 10, 69, 127
1, 110844, Note_on_c, 7, 67, 127
1, 110953, Note_off_c, 3, 51, 127
1, 111004, Note_off_c, 7, 67, 127
1, 111022, Note_on_c, 11, 82, 127
1, 111022, Note_on_c, 1, 49, 127
1, 111027, Note_on_c, 4, 52, 127
1, 111032, Note_on_c, 7, 55, 127
1, 112112, Note_off_c, 11, 82, 127
1, 112113, Note_on_c, 10, 81, 127
1, 112233, Note_off_c, 10, 81, 127
1, 112234, Note_on_c, 7, 79, 127
1, 112354, Note_off_c, 7, 79, 127
1, 112355, Note_on_c, 6, 78, 127
1, 112475, Note_off_c, 6, 78, 127
1, 112476, Note_on_c, 7, 79, 127
1, 112596, Note_off_c, 7, 79, 127
1, 112597, Note_on_c, 11, 82, 127
1, 112717, Note_off_c, 11, 82, 127
1, 112718, Note_on_c, 10, 81, 127
1, 112838, Note_off_c, 10, 81, 127
1, 112839, Note_on_c, 7, 79, 127
1, 112959, Note_off_c, 7, 79, 127
1, 112960, Note_on_c, 6, 78, 127
1, 113080, Note_off_c, 6, 78, 127
1, 113081, Note_on_c, 4, 76, 127
1, 113201, Note_off_c, 4, 76, 127
1, 113202, Note_on_c, 2, 74, 127
1, 113293, Note_off_c, 1, 49, 127
1, 113298, Note_off_c, 4, 52, 127
1, 113303, Note_off_c, 7, 55, 127
1, 113322, Note_off_c, 2, 74, 127
1, 113323, Note_on_c, 0, 72, 127
1, 113443, Note_off_c, 0, 72, 127
1, 113444, Note_on_c, 11, 70, 127
1, 113444, Note_on_c, 2, 50, 127
1, 113448, Note_on_c, 7, 55, 127
1, 113452, Note_on_c, 11, 58, 127
1, 113455, Note_on_c, 2, 62, 127
1, 113565, Note_off_c, 11, 70, 127
1, 113566, Note_on_c, 2, 74, 127
1, 113686, Note_off_c, 2, 74, 127
1, 113687, Note_on_c, 0, 72, 127
1, 113807, Note_off_c, 0, 72, 127
1, 113808, Note_on_c, 3, 75, 127
1, 113928, Note_off_c, 3, 75, 127
1, 113929, Note_on_c, 2, 74, 127
1, 114049, Note_off_c, 2, 74, 127
1, 114050, Note_on_c, 7, 79, 127
1, 114170, Note_off_c, 7, 79, 127
1, 114171, Note_on_c, 6, 78, 127
1, 114291, Note_off_c, 6, 78, 127
1, 114292, Note_on_c, 4, 76, 127
1, 114412, Note_off_c, 4, 76, 127
1, 114413, Note_on_c, 2, 74, 127
1, 114533, Note_off_c, 2, 74, 127
1, 114534, Note_on_c, 0, 72, 127
1, 114654, Note_off_c, 0, 72, 127
1, 114655, Note_on_c, 11, 70, 127
1, 114775, Note_off_c, 11, 70, 127
1, 114776, Note_on_c, 10, 69, 127
1, 114896, Note_off_c, 10, 69, 127
1, 114897, Note_on_c, 11, 70, 127
1, 115017, Note_off_c, 11, 70, 127
1, 115018, Note_on_c, 2, 74, 127
1, 115138, Note_off_c, 2, 74, 127
1, 115139, Note_on_c, 11, 70, 127
1, 115259, Note_off_c, 11, 70, 127
1, 115260, Note_on_c, 7, 67, 127
1, 115381, Note_on_c, 1, 61, 127
1, 115384, Note_off_c, 7, 55, 127
1, 115388, Note_off_c, 11, 58, 127
1, 115391, Note_off_c, 2, 62, 127
1, 115745, Note_off_c, 7, 67, 127
1, 115746, Note_on_c, 4, 76, 127
1, 115866, Note_off_c, 4, 76, 127
1, 115867, Note_on_c, 6, 78, 127
1, 115987, Note_off_c, 6, 78, 127
1, 115988, Note_on_c, 7, 79, 127
1, 116047, Note_off_c, 7, 79, 127
1, 116048, Note_on_c, 6, 78, 127
1, 116107, Note_off_c, 6, 78, 127
1, 116108, Note_on_c, 7, 79, 127
1, 116167, Note_off_c, 7, 79, 127
1, 116168, Note_on_c, 6, 78, 127
1, 116227, Note_off_c, 6, 78, 127
1, 116228, Note_on_c, 4, 76, 127
1, 116287, Note_off_c, 4, 76, 127
1, 116288, Note_on_c, 6, 78, 127
1, 116347, Note_off_c, 6, 78, 127
1, 116348, Note_on_c, 7, 79, 127
1, 116468, Note_off_c, 7, 79, 127
1, 116469, Note_on_c, 11, 70, 127
1, 116589, Note_off_c, 11, 70, 127
1, 116590, Note_on_c, 10, 69, 127
1, 116710, Note_off_c, 10, 69, 127
1, 116711, Note_on_c, 7, 67, 127
1, 116831, Note_off_c, 7, 67, 127
1, 116832, Note_on_c, 6, 66, 127
1, 116952, Note_off_c, 6, 66, 127
1, 116953, Note_on_c, 7, 67, 127
1, 117194, Note_off_c, 7, 67, 127
1, 117194, Note_off_c, 1, 61, 127
1, 117195, Note_on_c, 11, 70, 127
1, 117195, Note_on_c, 1, 61, 127
1, 117436, Note_off_c, 1, 61, 127
1, 117437, Note_on_c, 2, 62, 127
1, 117678, Note_off_c, 11, 70, 127
1, 117679, Note_on_c, 0, 72, 127
1, 117799, Note_off_c, 0, 72, 127
1, 117800, Note_on_c, 11, 70, 127
1, 117920, Note_off_c, 11, 70, 127
1, 117920, Note_off_c, 2, 62, 127
1, 117921, Note_on_c, 10, 69, 127
1, 117921, Note_on_c, 0, 60, 127
1, 118041, Note_off_c, 10, 69, 127
1, 118042, Note_on_c, 11, 70, 127
1, 118162, Note_off_c, 11, 70, 127
1, 118162, Note_off_c, 0, 60, 127
1, 118163, Note_on_c, 0, 72, 127
1, 118163, Note_on_c, 11, 58, 127
1, 118283, Note_off_c, 0, 72, 127
1, 118284, Note_on_c, 10, 69, 127
1, 118404, Note_off_c, 10, 69, 127
1, 118404, Note_off_c, 11, 58, 127
1, 118405, Note_on_c, 7, 67, 127
1, 118405, Note_on_c, 10, 57, 127
1, 118525, Note_off_c, 7, 67, 127
1, 118526, Note_on_c, 6, 66, 127
1, 118585, Note_off_c, 6, 66, 127
1, 118586, Note_on_c, 7, 67, 127
1, 118645, Note_off_c, 7, 67, 127
1, 118645, Note_off_c, 10, 57, 127
1, 118646, Note_on_c, 6, 66, 127
1, 118646, Note_on_c, 11, 58, 127
1, 118705, Note_off_c, 6, 66, 127
1, 118706, Note_on_c, 7, 67, 127
1, 118765, Note_off_c, 7, 67, 127
1, 118766, Note_on_c, 6, 66, 127
1, 118825, Note_off_c, 6, 66, 127
1, 118826, Note_on_c, 7, 67, 127
1, 118885, Note_off_c, 7, 67, 127
1, 118885, Note_off_c, 11, 58, 127
1, 118886, Note_on_c, 6, 66, 127
1, 118886, Note_on_c, 0, 60, 127
1, 118945, Note_off_c, 6, 66, 127
1, 118946, Note_on_c, 7, 67, 127
1, 119005, Note_off_c, 7, 67, 127
1, 119006, Note_on_c, 6, 66, 127
1, 119065, Note_off_c, 6, 66, 127
1, 119066, Note_on_c, 7, 67, 127
1, 119125, Note_off_c, 7, 67, 127
1, 119126, Note_on_c, 6, 66, 127
1, 119454, Note_off_c, 6, 66, 127
1, 119563, Note_on_c, 7, 67, 127
1, 119616, Note_off_c, 2, 50, 127
1, 119687, Note_off_c, 7, 67, 127
1, 119688, Note_off_c, 0, 60, 127
1, 119692, Note_on_c, 7, 43, 127
1, 119692, Note_on_c, 7, 67, 127
1, 119692, Note_on_c, 2, 62, 127
1, 119692, Note_on_c, 12, 59, 127
1, 119692, Note_on_c, 7, 55, 127
1, 119889, Note_off_c, 7, 67, 127
1, 119903, Note_on_c, 7, 67, 127
1, 119912, Note_off_c, 7, 55, 127
1, 119912, Note_off_c, 12, 59, 127
1, 119912, Note_off_c, 2, 62, 127
1, 119912, Note_off_c, 7, 43, 127
1, 120006, Note_off_c, 7, 67, 127
1, 120009, Note_on_c, 10, 69, 127
1, 120111, Note_off_c, 10, 69, 127
1, 120114, Note_on_c, 12, 71, 127
1, 120324, Note_off_c, 12, 71, 127
1, 120325, Note_on_c, 0, 72, 127
1, 120535, Note_off_c, 0, 72, 127
1, 120536, Note_on_c, 2, 74, 127
1, 120746, Note_off_c, 2, 74, 127
1, 120747, Note_on_c, 3, 75, 127
1, 120957, Note_off_c, 3, 75, 127
1, 120958, Note_on_c, 5, 77, 127
1, 121060, Note_off_c, 5, 77, 127
1, 121063, Note_on_c, 3, 75, 127
1, 121165, Note_off_c, 3, 75, 127
1, 121168, Note_on_c, 2, 74, 127
1, 121270, Note_off_c, 2, 74, 127
1, 121273, Note_on_c, 3, 75, 127
1, 121375, Note_off_c, 3, 75, 127
1, 121378, Note_on_c, 5, 77, 127
1, 121588, Note_off_c, 5, 77, 127
1, 121589, Note_on_c, 7, 79, 127
1, 121799, Note_off_c, 7, 79, 127
1, 121800, Note_on_c, 8, 80, 127
1, 121998, Note_off_c, 8, 80, 127
1, 122011, Note_on_c, 2, 74, 127
1, 122209, Note_off_c, 2, 74, 127
1, 122222, Note_on_c, 5, 77, 127
1, 122420, Note_off_c, 5, 77, 127
1, 122433, Note_on_c, 12, 71, 127
1, 122631, Note_off_c, 12, 71, 127
1, 122644, Note_on_c, 2, 74, 127
1, 122842, Note_off_c, 2, 74, 127
1, 122855, Note_on_c, 7, 67, 127
1, 123053, Note_off_c, 7, 67, 127
1, 123066, Note_on_c, 7, 79, 127
1, 123168, Note_off_c, 7, 79, 127
1, 123171, Note_on_c, 5, 77, 127
1, 123273, Note_off_c, 5, 77, 127
1, 123276, Note_on_c, 3, 75, 127
1, 123378, Note_off_c, 3, 75, 127
1, 123381, Note_on_c, 2, 74, 127
1, 123483, Note_off_c, 2, 74, 127
1, 123486, Note_on_c, 3, 75, 127
1, 123662, Note_off_c, 3, 75, 127
1, 123697, Note_on_c, 0, 60, 127
1, 123697, Note_on_c, 0, 84, 127
1, 123799, Note_off_c, 0, 60, 127
1, 123802, Note_on_c, 2, 62, 127
1, 123904, Note_off_c, 2, 62, 127
1, 123907, Note_on_c, 3, 63, 127
1, 124117, Note_off_c, 3, 63, 127
1, 124117, Note_off_c, 0, 84, 127
1, 124118, Note_on_c, 5, 65, 127
1, 124118, Note_on_c, 11, 82, 127
1, 124220, Note_off_c, 11, 82, 127
1, 124223, Note_on_c, 8, 80, 127
1, 124325, Note_off_c, 8, 80, 127
1, 124327, Note_off_c, 5, 65, 127
1, 124328, Note_on_c, 7, 67, 127
1, 124328, Note_on_c, 7, 79, 127
1, 124430, Note_off_c, 7, 79, 127
1, 124433, Note_on_c, 5, 77, 127
1, 124535, Note_off_c, 5, 77, 127
1, 124537, Note_off_c, 7, 67, 127
1, 124538, Note_on_c, 8, 68, 127
1, 124538, Note_on_c, 3, 75, 127
1, 124640, Note_off_c, 3, 75, 127
1, 124643, Note_on_c, 2, 74, 127
1, 124745, Note_off_c, 2, 74, 127
1, 124747, Note_off_c, 8, 68, 127
1, 124748, Note_on_c, 11, 70, 127
1, 124748, Note_on_c, 0, 72, 127
1, 124850, Note_off_c, 11, 70, 127
1, 124853, Note_on_c, 8, 68, 127
1, 124955, Note_off_c, 8, 68, 127
1, 124958, Note_on_c, 7, 67, 127
1, 125060, Note_off_c, 7, 67, 127
1, 125063, Note_on_c, 8, 68, 127
1, 125165, Note_off_c, 8, 68, 127
1, 125168, Note_on_c, 11, 70, 127
1, 125252, Note_off_c, 0, 72, 127
1, 125274, Note_on_c, 2, 74, 127
1, 125376, Note_off_c, 2, 74, 127
1, 125378, Note_off_c, 11, 70, 127
1, 125379, Note_on_c, 0, 72, 127
1, 125379, Note_on_c, 4, 76, 127
1, 125481, Note_off_c, 4, 76, 127
1, 125484, Note_on_c, 5, 77, 127
1, 125586, Note_off_c, 5, 77, 127
1, 125588, Note_off_c, 0, 72, 127
1, 125589, Note_on_c, 1, 73, 127
1, 125589, Note_on_c, 7, 79, 127
1, 125691, Note_off_c, 7, 79, 127
1, 125694, Note_on_c, 8, 80, 127
1, 125786, Note_off_c, 1, 73, 127
1, 125796, Note_off_c, 8, 80, 127
1, 125799, Note_on_c, 7, 67, 127
1, 125799, Note_on_c, 11, 82, 127
1, 125901, Note_off_c, 11, 82, 127
1, 125904, Note_on_c, 7, 79, 127
1, 125996, Note_off_c, 7, 67, 127
1, 126006, Note_off_c, 7, 79, 127
1, 126009, Note_on_c, 11, 70, 127
1, 126009, Note_on_c, 4, 76, 127
1, 126168, Note_off_c, 4, 76, 127
1, 126218, Note_off_c, 11, 70, 127
1, 126220, Note_on_c, 4, 64, 127
1, 126220, Note_on_c, 1, 85, 127
1, 126418, Note_off_c, 4, 64, 127
1, 126431, Note_on_c, 7, 67, 127
1, 126517, Note_off_c, 1, 85, 127
1, 126537, Note_on_c, 7, 79, 127
1, 126629, Note_off_c, 7, 67, 127
1, 126639, Note_off_c, 7, 79, 127
1, 126642, Note_on_c, 0, 60, 127
1, 126642, Note_on_c, 8, 80, 127
1, 126744, Note_off_c, 8, 80, 127
1, 126747, Note_on_c, 11, 82, 127
1, 126839, Note_off_c, 0, 60, 127
1, 126849, Note_off_c, 11, 82, 127
1, 126852, Note_on_c, 0, 72, 127
1, 126852, Note_on_c, 8, 80, 127
1, 126954, Note_off_c, 8, 80, 127
1, 126954, Note_off_c, 0, 72, 127
1, 126957, Note_on_c, 11, 70, 127
1, 126957, Note_on_c, 7, 79, 127
1, 127059, Note_off_c, 7, 79, 127
1, 127059, Note_off_c, 11, 70, 127
1, 127062, Note_on_c, 8, 68, 127
1, 127062, Note_on_c, 5, 77, 127
1, 127164, Note_off_c, 5, 77, 127
1, 127164, Note_off_c, 8, 68, 127
1, 127167, Note_on_c, 7, 67, 127
1, 127167, Note_on_c, 4, 76, 127
1, 127269, Note_off_c, 4, 76, 127
1, 127269, Note_off_c, 7, 67, 127
1, 127272, Note_on_c, 8, 68, 127
1, 127272, Note_on_c, 5, 77, 127
1, 127374, Note_off_c, 5, 77, 127
1, 127377, Note_on_c, 7, 79, 127
1, 127479, Note_off_c, 7, 79, 127
1, 127481, Note_off_c, 8, 68, 127
1, 127482, Note_on_c, 5, 65, 127
1, 127482, Note_on_c, 8, 80, 127
1, 127692, Note_off_c, 5, 65, 127
1, 127693, Note_on_c, 7, 67, 127
1, 127746, Note_off_c, 8, 80, 127
1, 127799, Note_on_c, 7, 79, 127
1, 127901, Note_off_c, 7, 79, 127
1, 127903, Note_off_c, 7, 67, 127
1, 127904, Note_on_c, 8, 68, 127
1, 127904, Note_on_c, 5, 77, 127
1, 128006, Note_off_c, 5, 77, 127
1, 128009, Note_on_c, 3, 75, 127
1, 128111, Note_off_c, 3, 75, 127
1, 128113, Note_off_c, 8, 68, 127
1, 128114, Note_on_c, 11, 70, 127
1, 128114, Note_on_c, 2, 74, 127
1, 128216, Note_off_c, 2, 74, 127
1, 128219, Note_on_c, 0, 72, 127
1, 128321, Note_off_c, 0, 72, 127
1, 128323, Note_off_c, 11, 70, 127
1, 128324, Note_on_c, 8, 68, 127
1, 128324, Note_on_c, 2, 74, 127
1, 128426, Note_off_c, 2, 74, 127
1, 128429, Note_on_c, 5, 77, 127
1, 128531, Note_off_c, 5, 77, 127
1, 128533, Note_off_c, 8, 68, 127
1, 128534, Note_on_c, 7, 67, 127
1, 128534, Note_on_c, 3, 75, 127
1, 128636, Note_off_c, 3, 75, 127
1, 128639, Note_on_c, 5, 77, 127
1, 128741, Note_off_c, 5, 77, 127
1, 128743, Note_off_c, 7, 67, 127
1, 128744, Note_on_c, 3, 63, 127
1, 128744, Note_on_c, 7, 79, 127
1, 128954, Note_off_c, 3, 63, 127
1, 128955, Note_on_c, 5, 65, 127
1, 129030, Note_off_c, 7, 79, 127
1, 129061, Note_on_c, 5, 77, 127
1, 129163, Note_off_c, 5, 77, 127
1, 129165, Note_off_c, 5, 65, 127
1, 129166, Note_on_c, 7, 67, 127
1, 129166, Note_on_c, 3, 75, 127
1, 129268, Note_off_c, 3, 75, 127
1, 129271, Note_on_c, 2, 74, 127
1, 129373, Note_off_c, 2, 74, 127
1, 129375, Note_off_c, 7, 67, 127
1, 129376, Note_on_c, 8, 68, 127
1, 129376, Note_on_c, 0, 72, 127
1, 129478, Note_off_c, 0, 72, 127
1, 129481, Note_on_c, 12, 71, 127
1, 129583, Note_off_c, 12, 71, 127
1, 129585, Note_off_c, 8, 68, 127
1, 129586, Note_on_c, 7, 67, 127
1, 129586, Note_on_c, 0, 72, 127
1, 129688, Note_off_c, 0, 72, 127
1, 129691, Note_on_c, 3, 75, 127
1, 129793, Note_off_c, 3, 75, 127
1, 129795, Note_off_c, 7, 67, 127
1, 129796, Note_on_c, 5, 65, 127
1, 129796, Note_on_c, 2, 74, 127
1, 129902, Note_on_c, 8, 80, 127
1, 129928, Note_off_c, 2, 74, 127
1, 130004, Note_off_c, 8, 80, 127
1, 130006, Note_off_c, 5, 65, 127
1, 130007, Note_on_c, 3, 63, 127
1, 130007, Note_on_c, 2, 74, 127
1, 130109, Note_off_c, 2, 74, 127
1, 130112, Note_on_c, 0, 72, 127
1, 130214, Note_off_c, 0, 72, 127
1, 130216, Note_off_c, 3, 63, 127
1, 130217, Note_on_c, 5, 65, 127
1, 130217, Note_on_c, 2, 74, 127
1, 130319, Note_off_c, 2, 74, 127
1, 130322, Note_on_c, 3, 75, 127
1, 130424, Note_off_c, 3, 75, 127
1, 130426, Note_off_c, 5, 65, 127
1, 130427, Note_on_c, 2, 62, 127
1, 130427, Note_on_c, 5, 77, 127
1, 130529, Note_off_c, 5, 77, 127
1, 130532, Note_on_c, 7, 79, 127
1, 130634, Note_off_c, 7, 79, 127
1, 130636, Note_off_c, 2, 62, 127
1, 130637, Note_on_c, 3, 63, 127
1, 130637, Note_on_c, 5, 77, 127
1, 130739, Note_off_c, 5, 77, 127
1, 130742, Note_on_c, 3, 75, 127
1, 130844, Note_off_c, 3, 75, 127
1, 130846, Note_off_c, 3, 63, 127
1, 130847, Note_on_c, 5, 65, 127
1, 130847, Note_on_c, 2, 74, 127
1, 130949, Note_off_c, 2, 74, 127
1, 130952, Note_on_c, 0, 72, 127
1, 131054, Note_off_c, 0, 72, 127
1, 131056, Note_off_c, 5, 65, 127
1, 131057, Note_on_c, 7, 67, 127
1, 131057, Note_on_c, 12, 71, 127
1, 131163, Note_on_c, 7, 79, 127
1, 131189, Note_off_c, 12, 71, 127
1, 131265, Note_off_c, 7, 79, 127
1, 131267, Note_off_c, 7, 67, 127
1, 131268, Note_on_c, 7, 55, 127
1, 131268, Note_on_c, 5, 77, 127
1, 131370, Note_off_c, 5, 77, 127
1, 131370, Note_off_c, 7, 55, 127
1, 131373, Note_on_c, 10, 57, 127
1, 131373, Note_on_c, 3, 75, 127
1, 131475, Note_off_c, 3, 75, 127
1, 131475, Note_off_c, 10, 57, 127
1, 131478, Note_on_c, 12, 59, 127
1, 131478, Note_on_c, 2, 74, 127
1, 131580, Note_off_c, 2, 74, 127
1, 131583, Note_on_c, 5, 77, 127
1, 131685, Note_off_c, 5, 77, 127
1, 131687, Note_off_c, 12, 59, 127
1, 131688, Note_on_c, 0, 60, 127
1, 131688, Note_on_c, 2, 74, 127
1, 131790, Note_off_c, 2, 74, 127
1, 131793, Note_on_c, 0, 72, 127
1, 131895, Note_off_c, 0, 72, 127
1, 131897, Note_off_c, 0, 60, 127
1, 131898, Note_on_c, 2, 62, 127
1, 131898, Note_on_c, 12, 71, 127
1, 132000, Note_off_c, 12, 71, 127
1, 132003, Note_on_c, 2, 74, 127
1, 132105, Note_off_c, 2, 74, 127
1, 132107, Note_off_c, 2, 62, 127
1, 132108, Note_on_c, 3, 63, 127
1, 132108, Note_on_c, 12, 71, 127
1, 132210, Note_off_c, 12, 71, 127
1, 132213, Note_on_c, 10, 69, 127
1, 132315, Note_off_c, 10, 69, 127
1, 132317, Note_off_c, 3, 63, 127
1, 132318, Note_on_c, 5, 65, 127
1, 132318, Note_on_c, 7, 67, 127
1, 132420, Note_off_c, 7, 67, 127
1, 132420, Note_off_c, 5, 65, 127
1, 132423, Note_on_c, 3, 63, 127
1, 132423, Note_on_c, 10, 69, 127
1, 132525, Note_off_c, 10, 69, 127
1, 132525, Note_off_c, 3, 63, 127
1, 132528, Note_on_c, 2, 62, 127
1, 132528, Note_on_c, 12, 71, 127
1, 132630, Note_off_c, 12, 71, 127
1, 132630, Note_off_c, 2, 62, 127
1, 132633, Note_on_c, 3, 63, 127
1, 132633, Note_on_c, 0, 72, 127
1, 132735, Note_off_c, 0, 72, 127
1, 132735, Note_off_c, 3, 63, 127
1, 132738, Note_on_c, 5, 65, 127
1, 132738, Note_on_c, 2, 74, 127
1, 132840, Note_off_c, 2, 74, 127
1, 132843, Note_on_c, 0, 72, 127
1, 132945, Note_off_c, 0, 72, 127
1, 132947, Note_off_c, 5, 65, 127
1, 132948, Note_on_c, 7, 67, 127
1, 132948, Note_on_c, 12, 71, 127
1, 133050, Note_off_c, 12, 71, 127
1, 133053, Note_on_c, 0, 72, 127
1, 133155, Note_off_c, 0, 72, 127
1, 133157, Note_off_c, 7, 67, 127
1, 133158, Note_on_c, 8, 68, 127
1, 133158, Note_on_c, 2, 74, 127
1, 133260, Note_off_c, 2, 74, 127
1, 133263, Note_on_c, 3, 75, 127
1, 133365, Note_off_c, 3, 75, 127
1, 133367, Note_off_c, 8, 68, 127
1, 133368, Note_on_c, 2, 62, 127
1, 133368, Note_on_c, 5, 77, 127
1, 133470, Note_off_c, 5, 77, 127
1, 133473, Note_on_c, 2, 74, 127
1, 133575, Note_off_c, 2, 74, 127
1, 133577, Note_off_c, 2, 62, 127
1, 133578, Note_on_c, 5, 65, 127
1, 133578, Note_on_c, 12, 71, 127
1, 133680, Note_off_c, 12, 71, 127
1, 133683, Note_on_c, 0, 72, 127
1, 133785, Note_off_c, 0, 72, 127
1, 133787, Note_off_c, 5, 65, 127
1, 133788, Note_on_c, 12, 59, 127
1, 133788, Note_on_c, 2, 74, 127
1, 133890, Note_off_c, 2, 74, 127
1, 133893, Note_on_c, 3, 75, 127
1, 133995, Note_off_c, 3, 75, 127
1, 133997, Note_off_c, 12, 59, 127
1, 133998, Note_on_c, 2, 62, 127
1, 133998, Note_on_c, 5, 77, 127
1, 134100, Note_off_c, 5, 77, 127
1, 134103, Note_on_c, 8, 80, 127
1, 134205, Note_off_c, 8, 80, 127
1, 134207, Note_off_c, 2, 62, 127
1, 134208, Note_on_c, 7, 55, 127
1, 134208, Note_on_c, 7, 79, 127
1, 134310, Note_off_c, 7, 79, 127
1, 134313, Note_on_c, 5, 77, 127
1, 134415, Note_off_c, 5, 77, 127
1, 134417, Note_off_c, 7, 55, 127
1, 134418, Note_on_c, 7, 67, 127
1, 134418, Note_on_c, 3, 75, 127
1, 134520, Note_off_c, 3, 75, 127
1, 134520, Note_off_c, 7, 67, 127
1, 134523, Note_on_c, 5, 65, 127
1, 134523, Note_on_c, 2, 74, 127
1, 134625, Note_off_c, 2, 74, 127
1, 134625, Note_off_c, 5, 65, 127
1, 134628, Note_on_c, 3, 63, 127
1, 134628, Note_on_c, 0, 72, 127
1, 134730, Note_off_c, 0, 72, 127
1, 134730, Note_off_c, 3, 63, 127
1, 134733, Note_on_c, 2, 62, 127
1, 134733, Note_on_c, 12, 71, 127
1, 134835, Note_off_c, 12, 71, 127
1, 134835, Note_off_c, 2, 62, 127
1, 134838, Note_on_c, 3, 63, 127
1, 134838, Note_on_c, 0, 72, 127
1, 134940, Note_off_c, 0, 72, 127
1, 134940, Note_off_c, 3, 63, 127
1, 134943, Note_on_c, 2, 62, 127
1, 134943, Note_on_c, 2, 74, 127
1, 135045, Note_off_c, 2, 74, 127
1, 135045, Note_off_c, 2, 62, 127
1, 135048, Note_on_c, 0, 60, 127
1, 135048, Note_on_c, 3, 75, 127
1, 135150, Note_off_c, 3, 75, 127
1, 135153, Note_on_c, 0, 72, 127
1, 135255, Note_off_c, 0, 72, 127
1, 135258, Note_on_c, 10, 69, 127
1, 135322, Note_off_c, 0, 60, 127
1, 135364, Note_on_c, 3, 63, 127
1, 135466, Note_off_c, 3, 63, 127
1, 135468, Note_off_c, 10, 69, 127
1, 135469, Note_on_c, 2, 62, 127
1, 135469, Note_on_c, 0, 72, 127
1, 135571, Note_off_c, 2, 62, 127
1, 135574, Note_on_c, 0, 60, 127
1, 135676, Note_off_c, 0, 60, 127
1, 135678, Note_off_c, 0, 72, 127
1, 135679, Note_on_c, 11, 58, 127
1, 135679, Note_on_c, 5, 65, 127
1, 135781, Note_off_c, 11, 58, 127
1, 135784, Note_on_c, 10, 57, 127
1, 135886, Note_off_c, 10, 57, 127
1, 135888, Note_off_c, 5, 65, 127
1, 135889, Note_on_c, 7, 55, 127
1, 135889, Note_on_c, 3, 75, 127
1, 135991, Note_off_c, 7, 55, 127
1, 135994, Note_on_c, 5, 53, 127
1, 136096, Note_off_c, 5, 53, 127
1, 136098, Note_off_c, 3, 75, 127
1, 136099, Note_on_c, 2, 62, 127
1, 136099, Note_on_c, 11, 70, 127
1, 136201, Note_off_c, 11, 70, 127
1, 136201, Note_off_c, 2, 62, 127
1, 136204, Note_on_c, 0, 60, 127
1, 136204, Note_on_c, 0, 72, 127
1, 136306, Note_off_c, 0, 72, 127
1, 136306, Note_off_c, 0, 60, 127
1, 136309, Note_on_c, 11, 58, 127
1, 136309, Note_on_c, 2, 74, 127
1, 136411, Note_off_c, 2, 74, 127
1, 136414, Note_on_c, 11, 70, 127
1, 136516, Note_off_c, 11, 70, 127
1, 136519, Note_on_c, 7, 67, 127
1, 136594, Note_off_c, 11, 58, 127
1, 136625, Note_on_c, 2, 62, 127
1, 136727, Note_off_c, 2, 62, 127
1, 136729, Note_off_c, 7, 67, 127
1, 136730, Note_on_c, 0, 60, 127
1, 136730, Note_on_c, 11, 70, 127
1, 136832, Note_off_c, 0, 60, 127
1, 136835, Note_on_c, 11, 58, 127
1, 136937, Note_off_c, 11, 58, 127
1, 136939, Note_off_c, 11, 70, 127
1, 136940, Note_on_c, 10, 57, 127
1, 136940, Note_on_c, 3, 63, 127
1, 137042, Note_off_c, 10, 57, 127
1, 137045, Note_on_c, 7, 55, 127
1, 137147, Note_off_c, 7, 55, 127
1, 137149, Note_off_c, 3, 63, 127
1, 137150, Note_on_c, 6, 54, 127
1, 137150, Note_on_c, 2, 74, 127
1, 137252, Note_off_c, 6, 54, 127
1, 137255, Note_on_c, 7, 55, 127
1, 137357, Note_off_c, 7, 55, 127
1, 137359, Note_off_c, 2, 74, 127
1, 137360, Note_on_c, 0, 60, 127
1, 137360, Note_on_c, 10, 69, 127
1, 137462, Note_off_c, 10, 69, 127
1, 137462, Note_off_c, 0, 60, 127
1, 137465, Note_on_c, 11, 58, 127
1, 137465, Note_on_c, 11, 70, 127
1, 137567, Note_off_c, 11, 70, 127
1, 137567, Note_off_c, 11, 58, 127
1, 137570, Note_on_c, 10, 57, 127
1, 137570, Note_on_c, 0, 72, 127
1, 137672, Note_off_c, 0, 72, 127
1, 137675, Note_on_c, 10, 69, 127
1, 137777, Note_off_c, 10, 69, 127
1, 137780, Note_on_c, 6, 66, 127
1, 137866, Note_off_c, 10, 57, 127
1, 137886, Note_on_c, 0, 60, 127
1, 137988, Note_off_c, 0, 60, 127
1, 137990, Note_off_c, 6, 66, 127
1, 137991, Note_on_c, 11, 58, 127
1, 137991, Note_on_c, 10, 69, 127
1, 138093, Note_off_c, 11, 58, 127
1, 138096, Note_on_c, 10, 57, 127
1, 138198, Note_off_c, 10, 57, 127
1, 138200, Note_off_c, 10, 69, 127
1, 138201, Note_on_c, 7, 55, 127
1, 138201, Note_on_c, 2, 62, 127
1, 138303, Note_off_c, 7, 55, 127
1, 138306, Note_on_c, 6, 54, 127
1, 138408, Note_off_c, 6, 54, 127
1, 138410, Note_off_c, 2, 62, 127
1, 138411, Note_on_c, 4, 52, 127
1, 138411, Note_on_c, 0, 72, 127
1, 138513, Note_off_c, 4, 52, 127
1, 138516, Note_on_c, 2, 50, 127
1, 138618, Note_off_c, 2, 50, 127
1, 138620, Note_off_c, 0, 72, 127
1, 138621, Note_on_c, 11, 58, 127
1, 138621, Note_on_c, 7, 67, 127
1, 138723, Note_off_c, 7, 67, 127
1, 138726, Note_on_c, 10, 69, 127
1, 138828, Note_off_c, 10, 69, 127
1, 138830, Note_off_c, 11, 58, 127
1, 138831, Note_on_c, 2, 62, 127
1, 138831, Note_on_c, 11, 70, 127
1, 138933, Note_off_c, 11, 70, 127
1, 138936, Note_on_c, 7, 67, 127
1, 139038, Note_off_c, 7, 67, 127
1, 139040, Note_off_c, 2, 62, 127
1, 139041, Note_on_c, 7, 55, 127
1, 139041, Note_on_c, 3, 63, 127
1, 139143, Note_off_c, 3, 63, 127
1, 139146, Note_on_c, 7, 67, 127
1, 139248, Note_off_c, 7, 67, 127
1, 139250, Note_off_c, 7, 55, 127
1, 139251, Note_on_c, 11, 58, 127
1, 139251, Note_on_c, 2, 62, 127
1, 139353, Note_off_c, 2, 62, 127
1, 139356, Note_on_c, 7, 67, 127
1, 139458, Note_off_c, 7, 67, 127
1, 139460, Note_off_c, 11, 58, 127
1, 139461, Note_on_c, 4, 52, 127
1, 139461, Note_on_c, 1, 61, 127
1, 139563, Note_off_c, 1, 61, 127
1, 139566, Note_on_c, 11, 70, 127
1, 139668, Note_off_c, 11, 70, 127
1, 139670, Note_off_c, 4, 52, 127
1, 139671, Note_on_c, 1, 61, 127
1, 139671, Note_on_c, 10, 69, 127
1, 139773, Note_off_c, 10, 69, 127
1, 139776, Note_on_c, 7, 67, 127
1, 139878, Note_off_c, 7, 67, 127
1, 139880, Note_off_c, 1, 61, 127
1, 139881, Note_on_c, 2, 62, 127
1, 139881, Note_on_c, 6, 66, 127
1, 139983, Note_off_c, 6, 66, 127
1, 139986, Note_on_c, 4, 64, 127
1, 140088, Note_off_c, 4, 64, 127
1, 140090, Note_off_c, 2, 62, 127
1, 140091, Note_on_c, 2, 50, 127
1, 140091, Note_on_c, 2, 62, 127
1, 140193, Note_off_c, 2, 62, 127
1, 140196, Note_on_c, 4, 64, 127
1, 140298, Note_off_c, 4, 64, 127
1, 140301, Note_on_c, 6, 66, 127
1, 140497, Note_off_c, 2, 50, 127
1, 140511, Note_off_c, 6, 66, 127
1, 140512, Note_on_c, 0, 48, 127
1, 140512, Note_on_c, 7, 67, 127
1, 140614, Note_off_c, 0, 48, 127
1, 140617, Note_on_c, 11, 46, 127
1, 140719, Note_off_c, 11, 46, 127
1, 140721, Note_off_c, 7, 67, 127
1, 140722, Note_on_c, 10, 45, 127
1, 140722, Note_on_c, 10, 69, 127
1, 140824, Note_off_c, 10, 45, 127
1, 140827, Note_on_c, 7, 43, 127
1, 140929, Note_off_c, 7, 43, 127
1, 140931, Note_off_c, 10, 69, 127
1, 140932, Note_on_c, 6, 42, 127
1, 140932, Note_on_c, 11, 70, 127
1, 141034, Note_off_c, 6, 42, 127
1, 141037, Note_on_c, 4, 40, 127
1, 141139, Note_off_c, 4, 40, 127
1, 141141, Note_off_c, 11, 70, 127
1, 141142, Note_on_c, 2, 38, 127
1, 141142, Note_on_c, 0, 72, 127
1, 141244, Note_off_c, 0, 72, 127
1, 141247, Note_on_c, 11, 70, 127
1, 141349, Note_off_c, 11, 70, 127
1, 141352, Note_on_c, 10, 69, 127
1, 141454, Note_off_c, 10, 69, 127
1, 141457, Note_on_c, 11, 70, 127
1, 141559, Note_off_c, 11, 70, 127
1, 141562, Note_on_c, 0, 72, 127
1, 141624, Note_off_c, 2, 38, 127
1, 141668, Note_on_c, 4, 40, 127
1, 141770, Note_off_c, 4, 40, 127
1, 141772, Note_off_c, 0, 72, 127
1, 141773, Note_on_c, 6, 42, 127
1, 141773, Note_on_c, 2, 74, 127
1, 141875, Note_off_c, 6, 42, 127
1, 141878, Note_on_c, 7, 43, 127
1, 141980, Note_off_c, 7, 43, 127
1, 141982, Note_off_c, 2, 74, 127
1, 141983, Note_on_c, 10, 45, 127
1, 141983, Note_on_c, 3, 75, 127
1, 142085, Note_off_c, 10, 45, 127
1, 142088, Note_on_c, 11, 46, 127
1, 142180, Note_off_c, 3, 75, 127
1, 142190, Note_off_c, 11, 46, 127
1, 142193, Note_on_c, 0, 48, 127
1, 142193, Note_on_c, 10, 69, 127
1, 142295, Note_off_c, 0, 48, 127
1, 142298, Note_on_c, 10, 45, 127
1, 142390, Note_off_c, 10, 69, 127
1, 142400, Note_off_c, 10, 45, 127
1, 142403, Note_on_c, 6, 42, 127
1, 142403, Note_on_c, 0, 72, 127
1, 142601, Note_off_c, 0, 72, 127
1, 142601, Note_off_c, 6, 42, 127
1, 142614, Note_on_c, 3, 51, 127
1, 142614, Note_on_c, 6, 66, 127
1, 142812, Note_off_c, 6, 66, 127
1, 142825, Note_on_c, 10, 69, 127
1, 142911, Note_off_c, 3, 51, 127
1, 142931, Note_on_c, 10, 45, 127
1, 143023, Note_off_c, 10, 69, 127
1, 143033, Note_off_c, 10, 45, 127
1, 143036, Note_on_c, 11, 46, 127
1, 143036, Note_on_c, 2, 62, 127
1, 143138, Note_off_c, 11, 46, 127
1, 143141, Note_on_c, 0, 48, 127
1, 143233, Note_off_c, 2, 62, 127
1, 143243, Note_off_c, 0, 48, 127
1, 143246, Note_on_c, 11, 46, 127
1, 143246, Note_on_c, 2, 74, 127
1, 143348, Note_off_c, 2, 74, 127
1, 143348, Note_off_c, 11, 46, 127
1, 143351, Note_on_c, 10, 45, 127
1, 143351, Note_on_c, 0, 72, 127
1, 143453, Note_off_c, 0, 72, 127
1, 143453, Note_off_c, 10, 45, 127
1, 143456, Note_on_c, 7, 43, 127
1, 143456, Note_on_c, 11, 70, 127
1, 143558, Note_off_c, 11, 70, 127
1, 143558, Note_off_c, 7, 43, 127
1, 143561, Note_on_c, 6, 42, 127
1, 143561, Note_on_c, 10, 69, 127
1, 143663, Note_off_c, 10, 69, 127
1, 143663, Note_off_c, 6, 42, 127
1, 143666, Note_on_c, 7, 43, 127
1, 143666, Note_on_c, 11, 70, 127
1, 143768, Note_off_c, 11, 70, 127
1, 143771, Note_on_c, 10, 69, 127
1, 143873, Note_off_c, 10, 69, 127
1, 143876, Note_on_c, 7, 67, 127
1, 143978, Note_off_c, 7, 67, 127
1, 143981, Note_on_c, 10, 69, 127
1, 144083, Note_off_c, 10, 69, 127
1, 144086, Note_on_c, 11, 70, 127
1, 144126, Note_off_c, 7, 43, 127
1, 144192, Note_on_c, 7, 55, 127
1, 144294, Note_off_c, 7, 55, 127
1, 144296, Note_off_c, 11, 70, 127
1, 144297, Note_on_c, 8, 56, 127
1, 144297, Note_on_c, 0, 72, 127
1, 144399, Note_off_c, 8, 56, 127
1, 144402, Note_on_c, 11, 58, 127
1, 144504, Note_off_c, 11, 58, 127
1, 144506, Note_off_c, 0, 72, 127
1, 144507, Note_on_c, 8, 56, 127
1, 144507, Note_on_c, 2, 74, 127
1, 144609, Note_off_c, 8, 56, 127
1, 144612, Note_on_c, 7, 55, 127
1, 144714, Note_off_c, 7, 55, 127
1, 144716, Note_off_c, 2, 74, 127
1, 144717, Note_on_c, 5, 53, 127
1, 144717, Note_on_c, 3, 75, 127
1, 144819, Note_off_c, 5, 53, 127
1, 144822, Note_on_c, 3, 51, 127
1, 144924, Note_off_c, 3, 51, 127
1, 144926, Note_off_c, 3, 75, 127
1, 144927, Note_on_c, 2, 50, 127
1, 144927, Note_on_c, 5, 77, 127
1, 145029, Note_off_c, 5, 77, 127
1, 145032, Note_on_c, 3, 75, 127
1, 145134, Note_off_c, 3, 75, 127
1, 145136, Note_off_c, 2, 50, 127
1, 145137, Note_on_c, 5, 53, 127
1, 145137, Note_on_c, 2, 74, 127
1, 145239, Note_off_c, 2, 74, 127
1, 145242, Note_on_c, 0, 72, 127
1, 145344, Note_off_c, 0, 72, 127
1, 145346, Note_off_c, 5, 53, 127
1, 145347, Note_on_c, 2, 50, 127
1, 145347, Note_on_c, 11, 70, 127
1, 145453, Note_on_c, 5, 77, 127
1, 145501, Note_off_c, 11, 70, 127
1, 145555, Note_off_c, 5, 77, 127
1, 145557, Note_off_c, 2, 50, 127
1, 145558, Note_on_c, 11, 46, 127
1, 145558, Note_on_c, 0, 72, 127
1, 145660, Note_off_c, 0, 72, 127
1, 145663, Note_on_c, 11, 70, 127
1, 145765, Note_off_c, 11, 70, 127
1, 145767, Note_off_c, 11, 46, 127
1, 145768, Note_on_c, 0, 48, 127
1, 145768, Note_on_c, 8, 68, 127
1, 145874, Note_on_c, 5, 77, 127
1, 145922, Note_off_c, 8, 68, 127
1, 145976, Note_off_c, 5, 77, 127
1, 145978, Note_off_c, 0, 48, 127
1, 145979, Note_on_c, 2, 50, 127
1, 145979, Note_on_c, 11, 70, 127
1, 146081, Note_off_c, 11, 70, 127
1, 146084, Note_on_c, 8, 68, 127
1, 146186, Note_off_c, 8, 68, 127
1, 146188, Note_off_c, 2, 50, 127
1, 146189, Note_on_c, 3, 51, 127
1, 146189, Note_on_c, 7, 67, 127
1, 146291, Note_off_c, 7, 67, 127
1, 146294, Note_on_c, 5, 65, 127
1, 146396, Note_off_c, 5, 65, 127
1, 146399, Note_on_c, 3, 39, 127
1, 146399, Note_on_c, 3, 63, 127
1, 146496, Note_off_c, 3, 51, 127
1, 146502, Note_off_c, 3, 63, 127
1, 146505, Note_on_c, 5, 65, 127
1, 146607, Note_off_c, 5, 65, 127
1, 146610, Note_on_c, 7, 67, 127
1, 146663, Note_off_c, 3, 39, 127
1, 146716, Note_on_c, 3, 51, 127
1, 146818, Note_off_c, 3, 51, 127
1, 146820, Note_off_c, 7, 67, 127
1, 146821, Note_on_c, 5, 53, 127
1, 146821, Note_on_c, 10, 69, 127
1, 146923, Note_off_c, 5, 53, 127
1, 146926, Note_on_c, 7, 55, 127
1, 147028, Note_off_c, 7, 55, 127
1, 147030, Note_off_c, 10, 69, 127
1, 147031, Note_on_c, 5, 53, 127
1, 147031, Note_on_c, 12, 71, 127
1, 147133, Note_off_c, 5, 53, 127
1, 147136, Note_on_c, 3, 51, 127
1, 147238, Note_off_c, 3, 51, 127
1, 147240, Note_off_c, 12, 71, 127
1, 147241, Note_on_c, 2, 50, 127
1, 147241, Note_on_c, 0, 72, 127
1, 147343, Note_off_c, 2, 50, 127
1, 147346, Note_on_c, 0, 48, 127
1, 147448, Note_off_c, 0, 48, 127
1, 147450, Note_off_c, 0, 72, 127
1, 147451, Note_on_c, 12, 47, 127
1, 147451, Note_on_c, 2, 74, 127
1, 147553, Note_off_c, 2, 74, 127
1, 147556, Note_on_c, 0, 72, 127
1, 147658, Note_off_c, 0, 72, 127
1, 147660, Note_off_c, 12, 47, 127
1, 147661, Note_on_c, 2, 50, 127
1, 147661, Note_on_c, 12, 71, 127
1, 147763, Note_off_c, 12, 71, 127
1, 147766, Note_on_c, 10, 69, 127
1, 147868, Note_off_c, 10, 69, 127
1, 147870, Note_off_c, 2, 50, 127
1, 147871, Note_on_c, 12, 47, 127
1, 147871, Note_on_c, 7, 67, 127
1, 147977, Note_on_c, 2, 74, 127
1, 148047, Note_off_c, 7, 67, 127
1, 148079, Note_off_c, 2, 74, 127
1, 148081, Note_off_c, 12, 47, 127
1, 148082, Note_on_c, 7, 43, 127
1, 148082, Note_on_c, 10, 69, 127
1, 148184, Note_off_c, 10, 69, 127
1, 148187, Note_on_c, 7, 67, 127
1, 148289, Note_off_c, 7, 67, 127
1, 148291, Note_off_c, 7, 43, 127
1, 148292, Note_on_c, 10, 45, 127
1, 148292, Note_on_c, 5, 65, 127
1, 148398, Note_on_c, 2, 74, 127
1, 148479, Note_off_c, 5, 65, 127
1, 148500, Note_off_c, 2, 74, 127
1, 148502, Note_off_c, 10, 45, 127
1, 148503, Note_on_c, 12, 47, 127
1, 148503, Note_on_c, 7, 67, 127
1, 148605, Note_off_c, 7, 67, 127
1, 148608, Note_on_c, 5, 65, 127
1, 148710, Note_off_c, 5, 65, 127
1, 148712, Note_off_c, 12, 47, 127
1, 148713, Note_on_c, 0, 48, 127
1, 148713, Note_on_c, 3, 63, 127
1, 148819, Note_on_c, 0, 72, 127
1, 148921, Note_off_c, 0, 72, 127
1, 148922, Note_off_c, 3, 63, 127
1, 148924, Note_on_c, 0, 36, 127
1, 148924, Note_on_c, 7, 67, 127
1, 149026, Note_off_c, 7, 67, 127
1, 149029, Note_on_c, 5, 65, 127
1, 149130, Note_off_c, 0, 48, 127
1, 149131, Note_off_c, 5, 65, 127
1, 149134, Note_on_c, 3, 63, 127
1, 149187, Note_off_c, 0, 36, 127
1, 149237, Note_off_c, 3, 63, 127
1, 149240, Note_on_c, 2, 62, 127
1, 149240, Note_on_c, 5, 65, 127
1, 149342, Note_off_c, 5, 65, 127
1, 149342, Note_off_c, 2, 62, 127
1, 149345, Note_on_c, 3, 63, 127
1, 149345, Note_on_c, 7, 67, 127
1, 149447, Note_off_c, 7, 67, 127
1, 149447, Note_off_c, 3, 63, 127
1, 149450, Note_on_c, 5, 65, 127
1, 149450, Note_on_c, 8, 68, 127
1, 149552, Note_off_c, 8, 68, 127
1, 149552, Note_off_c, 5, 65, 127
1, 149555, Note_on_c, 3, 63, 127
1, 149555, Note_on_c, 7, 67, 127
1, 149657, Note_off_c, 7, 67, 127
1, 149660, Note_on_c, 0, 72, 127
1, 149762, Note_off_c, 0, 72, 127
1, 149764, Note_off_c, 3, 63, 127
1, 149765, Note_on_c, 2, 62, 127
1, 149765, Note_on_c, 7, 67, 127
1, 149867, Note_off_c, 7, 67, 127
1, 149870, Note_on_c, 5, 65, 127
1, 149972, Note_off_c, 5, 65, 127
1, 149974, Note_off_c, 2, 62, 127
1, 149975, Note_on_c, 0, 60, 127
1, 149975, Note_on_c, 3, 63, 127
1, 150081, Note_on_c, 0, 72, 127
1, 150173, Note_off_c, 3, 63, 127
1, 150183, Note_off_c, 0, 72, 127
1, 150186, Note_on_c, 0, 48, 127
1, 150186, Note_on_c, 7, 67, 127
1, 150288, Note_off_c, 7, 67, 127
1, 150291, Note_on_c, 5, 65, 127
1, 150392, Note_off_c, 0, 60, 127
1, 150393, Note_off_c, 5, 65, 127
1, 150396, Note_on_c, 3, 63, 127
1, 150449, Note_off_c, 0, 48, 127
1, 150499, Note_off_c, 3, 63, 127
1, 150502, Note_on_c, 8, 56, 127
1, 150502, Note_on_c, 5, 65, 127
1, 150604, Note_off_c, 5, 65, 127
1, 150604, Note_off_c, 8, 56, 127
1, 150607, Note_on_c, 11, 58, 127
1, 150607, Note_on_c, 7, 67, 127
1, 150709, Note_off_c, 7, 67, 127
1, 150709, Note_off_c, 11, 58, 127
1, 150712, Note_on_c, 0, 60, 127
1, 150712, Note_on_c, 8, 68, 127
1, 150814, Note_off_c, 8, 68, 127
1, 150814, Note_off_c, 0, 60, 127
1, 150817, Note_on_c, 11, 58, 127
1, 150817, Note_on_c, 7, 67, 127
1, 150923, Note_on_c, 0, 72, 127
1, 150993, Note_off_c, 7, 67, 127
1, 151025, Note_off_c, 0, 72, 127
1, 151027, Note_off_c, 11, 58, 127
1, 151028, Note_on_c, 8, 56, 127
1, 151028, Note_on_c, 7, 67, 127
1, 151130, Note_off_c, 7, 67, 127
1, 151133, Note_on_c, 5, 65, 127
1, 151235, Note_off_c, 5, 65, 127
1, 151237, Note_off_c, 8, 56, 127
1, 151238, Note_on_c, 7, 55, 127
1, 151238, Note_on_c, 4, 64, 127
1, 151344, Note_on_c, 11, 70, 127
1, 151446, Note_off_c, 11, 70, 127
1, 151447, Note_off_c, 4, 64, 127
1, 151449, Note_on_c, 0, 48, 127
1, 151449, Note_on_c, 7, 67, 127
1, 151546, Note_off_c, 7, 55, 127
1, 151552, Note_off_c, 7, 67, 127
1, 151555, Note_on_c, 5, 65, 127
1, 151657, Note_off_c, 5, 65, 127
1, 151660, Note_on_c, 4, 64, 127
1, 151713, Note_off_c, 0, 48, 127
1, 151763, Note_off_c, 4, 64, 127
1, 151766, Note_on_c, 2, 62, 127
1, 151766, Note_on_c, 5, 65, 127
1, 151868, Note_off_c, 5, 65, 127
1, 151868, Note_off_c, 2, 62, 127
1, 151871, Note_on_c, 4, 64, 127
1, 151871, Note_on_c, 7, 67, 127
1, 151973, Note_off_c, 7, 67, 127
1, 151973, Note_off_c, 4, 64, 127
1, 151976, Note_on_c, 5, 65, 127
1, 151976, Note_on_c, 8, 68, 127
1, 152078, Note_off_c, 8, 68, 127
1, 152078, Note_off_c, 5, 65, 127
1, 152081, Note_on_c, 4, 64, 127
1, 152081, Note_on_c, 7, 67, 127
1, 152187, Note_on_c, 11, 70, 127
1, 152235, Note_off_c, 7, 67, 127
1, 152289, Note_off_c, 11, 70, 127
1, 152291, Note_off_c, 4, 64, 127
1, 152292, Note_on_c, 2, 62, 127
1, 152292, Note_on_c, 7, 67, 127
1, 152394, Note_off_c, 7, 67, 127
1, 152397, Note_on_c, 5, 65, 127
1, 152499, Note_off_c, 5, 65, 127
1, 152501, Note_off_c, 2, 62, 127
1, 152502, Note_on_c, 0, 60, 127
1, 152502, Note_on_c, 4, 64, 127
1, 152608, Note_on_c, 11, 70, 127
1, 152710, Note_off_c, 11, 70, 127
1, 152711, Note_off_c, 4, 64, 127
1, 152713, Note_on_c, 0, 48, 127
1, 152713, Note_on_c, 7, 67, 127
1, 152815, Note_off_c, 7, 67, 127
1, 152818, Note_on_c, 5, 65, 127
1, 152919, Note_off_c, 0, 60, 127
1, 152920, Note_off_c, 5, 65, 127
1, 152923, Note_on_c, 4, 64, 127
1, 152976, Note_off_c, 0, 48, 127
1, 153026, Note_off_c, 4, 64, 127
1, 153029, Note_on_c, 2, 50, 127
1, 153029, Note_on_c, 7, 67, 127
1, 153131, Note_off_c, 7, 67, 127
1, 153131, Note_off_c, 2, 50, 127
1, 153134, Note_on_c, 4, 52, 127
1, 153134, Note_on_c, 11, 70, 127
1, 153236, Note_off_c, 11, 70, 127
1, 153236, Note_off_c, 4, 52, 127
1, 153239, Note_on_c, 5, 53, 127
1, 153239, Note_on_c, 1, 73, 127
1, 153341, Note_off_c, 1, 73, 127
1, 153341, Note_off_c, 5, 53, 127
1, 153344, Note_on_c, 4, 52, 127
1, 153344, Note_on_c, 0, 72, 127
1, 153446, Note_off_c, 0, 72, 127
1, 153449, Note_on_c, 11, 70, 127
1, 153551, Note_off_c, 11, 70, 127
1, 153553, Note_off_c, 4, 52, 127
1, 153554, Note_on_c, 0, 48, 127
1, 153554, Note_on_c, 8, 68, 127
1, 153656, Note_off_c, 8, 68, 127
1, 153659, Note_on_c, 7, 67, 127
1, 153761, Note_off_c, 7, 67, 127
1, 153763, Note_off_c, 0, 48, 127
1, 153764, Note_on_c, 5, 53, 127
1, 153764, Note_on_c, 8, 68, 127
1, 153870, Note_on_c, 5, 77, 127
1, 153972, Note_off_c, 5, 77, 127
1, 153975, Note_on_c, 5, 41, 127
1, 153975, Note_on_c, 0, 72, 127
1, 154028, Note_off_c, 8, 68, 127
1, 154078, Note_off_c, 0, 72, 127
1, 154081, Note_on_c, 11, 70, 127
1, 154182, Note_off_c, 5, 53, 127
1, 154183, Note_off_c, 11, 70, 127
1, 154186, Note_on_c, 8, 68, 127
1, 154239, Note_off_c, 5, 41, 127
1, 154289, Note_off_c, 8, 68, 127
1, 154292, Note_on_c, 7, 67, 127
1, 154292, Note_on_c, 11, 70, 127
1, 154394, Note_off_c, 11, 70, 127
1, 154394, Note_off_c, 7, 67, 127
1, 154397, Note_on_c, 8, 68, 127
1, 154397, Note_on_c, 0, 72, 127
1, 154499, Note_off_c, 0, 72, 127
1, 154499, Note_off_c, 8, 68, 127
1, 154502, Note_on_c, 11, 70, 127
1, 154502, Note_on_c, 1, 73, 127
1, 154604, Note_off_c, 1, 73, 127
1, 154604, Note_off_c, 11, 70, 127
1, 154607, Note_on_c, 8, 68, 127
1, 154607, Note_on_c, 0, 72, 127
1, 154713, Note_on_c, 5, 77, 127
1, 154761, Note_off_c, 0, 72, 127
1, 154815, Note_off_c, 5, 77, 127
1, 154817, Note_off_c, 8, 68, 127
1, 154818, Note_on_c, 7, 67, 127
1, 154818, Note_on_c, 0, 72, 127
1, 154920, Note_off_c, 0, 72, 127
1, 154923, Note_on_c, 11, 70, 127
1, 155025, Note_off_c, 11, 70, 127
1, 155027, Note_off_c, 7, 67, 127
1, 155028, Note_on_c, 5, 65, 127
1, 155028, Note_on_c, 8, 68, 127
1, 155134, Note_on_c, 5, 77, 127
1, 155236, Note_off_c, 5, 77, 127
1, 155239, Note_on_c, 5, 53, 127
1, 155239, Note_on_c, 0, 72, 127
1, 155292, Note_off_c, 8, 68, 127
1, 155342, Note_off_c, 0, 72, 127
1, 155345, Note_on_c, 11, 70, 127
1, 155446, Note_off_c, 5, 65, 127
1, 155447, Note_off_c, 11, 70, 127
1, 155450, Note_on_c, 8, 68, 127
1, 155503, Note_off_c, 5, 53, 127
1, 155553, Note_off_c, 8, 68, 127
1, 155556, Note_on_c, 1, 61, 127
1, 155556, Note_on_c, 11, 70, 127
1, 155658, Note_off_c, 11, 70, 127
1, 155658, Note_off_c, 1, 61, 127
1, 155661, Note_on_c, 3, 63, 127
1, 155661, Note_on_c, 0, 72, 127
1, 155763, Note_off_c, 0, 72, 127
1, 155763, Note_off_c, 3, 63, 127
1, 155766, Note_on_c, 5, 65, 127
1, 155766, Note_on_c, 1, 73, 127
1, 155868, Note_off_c, 1, 73, 127
1, 155868, Note_off_c, 5, 65, 127
1, 155871, Note_on_c, 3, 63, 127
1, 155871, Note_on_c, 0, 72, 127
1, 155977, Note_on_c, 5, 77, 127
1, 156025, Note_off_c, 0, 72, 127
1, 156079, Note_off_c, 5, 77, 127
1, 156081, Note_off_c, 3, 63, 127
1, 156082, Note_on_c, 1, 61, 127
1, 156082, Note_on_c, 0, 72, 127
1, 156184, Note_off_c, 0, 72, 127
1, 156187, Note_on_c, 11, 70, 127
1, 156289, Note_off_c, 11, 70, 127
1, 156291, Note_off_c, 1, 61, 127
1, 156292, Note_on_c, 0, 60, 127
1, 156292, Note_on_c, 10, 69, 127
1, 156398, Note_on_c, 3, 75, 127
1, 156500, Note_off_c, 3, 75, 127
1, 156503, Note_on_c, 5, 53, 127
1, 156503, Note_on_c, 0, 72, 127
1, 156556, Note_off_c, 10, 69, 127
1, 156600, Note_off_c, 0, 60, 127
1, 156606, Note_off_c, 0, 72, 127
1, 156609, Note_on_c, 11, 70, 127
1, 156711, Note_off_c, 11, 70, 127
1, 156714, Note_on_c, 10, 69, 127
1, 156767, Note_off_c, 5, 53, 127
1, 156817, Note_off_c, 10, 69, 127
1, 156820, Note_on_c, 7, 67, 127
1, 156820, Note_on_c, 11, 70, 127
1, 156922, Note_off_c, 11, 70, 127
1, 156922, Note_off_c, 7, 67, 127
1, 156925, Note_on_c, 10, 69, 127
1, 156925, Note_on_c, 0, 72, 127
1, 157027, Note_off_c, 0, 72, 127
1, 157027, Note_off_c, 10, 69, 127
1, 157030, Note_on_c, 11, 70, 127
1, 157030, Note_on_c, 1, 73, 127
1, 157132, Note_off_c, 1, 73, 127
1, 157132, Note_off_c, 11, 70, 127
1, 157135, Note_on_c, 10, 69, 127
1, 157135, Note_on_c, 0, 72, 127
1, 157241, Note_on_c, 3, 75, 127
1, 157289, Note_off_c, 0, 72, 127
1, 157343, Note_off_c, 3, 75, 127
1, 157345, Note_off_c, 10, 69, 127
1, 157346, Note_on_c, 7, 67, 127
1, 157346, Note_on_c, 0, 72, 127
1, 157448, Note_off_c, 0, 72, 127
1, 157451, Note_on_c, 11, 70, 127
1, 157553, Note_off_c, 11, 70, 127
1, 157555, Note_off_c, 7, 67, 127
1, 157556, Note_on_c, 5, 65, 127
1, 157556, Note_on_c, 10, 69, 127
1, 157662, Note_on_c, 3, 75, 127
1, 157764, Note_off_c, 3, 75, 127
1, 157765, Note_off_c, 10, 69, 127
1, 157767, Note_on_c, 5, 53, 127
1, 157767, Note_on_c, 0, 72, 127
1, 157869, Note_off_c, 0, 72, 127
1, 157872, Note_on_c, 11, 70, 127
1, 157973, Note_off_c, 5, 65, 127
1, 157974, Note_off_c, 11, 70, 127
1, 157977, Note_on_c, 10, 69, 127
1, 158030, Note_off_c, 5, 53, 127
1, 158080, Note_off_c, 10, 69, 127
1, 158083, Note_on_c, 7, 55, 127
1, 158083, Note_on_c, 0, 72, 127
1, 158185, Note_off_c, 0, 72, 127
1, 158185, Note_off_c, 7, 55, 127
1, 158188, Note_on_c, 10, 57, 127
1, 158188, Note_on_c, 3, 75, 127
1, 158290, Note_off_c, 3, 75, 127
1, 158290, Note_off_c, 10, 57, 127
1, 158293, Note_on_c, 11, 58, 127
1, 158293, Note_on_c, 6, 78, 127
1, 158395, Note_off_c, 6, 78, 127
1, 158395, Note_off_c, 11, 58, 127
1, 158398, Note_on_c, 10, 57, 127
1, 158398, Note_on_c, 5, 77, 127
1, 158500, Note_off_c, 5, 77, 127
1, 158503, Note_on_c, 3, 75, 127
1, 158605, Note_off_c, 3, 75, 127
1, 158607, Note_off_c, 10, 57, 127
1, 158608, Note_on_c, 5, 53, 127
1, 158608, Note_on_c, 1, 73, 127
1, 158710, Note_off_c, 1, 73, 127
1, 158713, Note_on_c, 0, 72, 127
1, 158815, Note_off_c, 0, 72, 127
1, 158817, Note_off_c, 5, 53, 127
1, 158818, Note_on_c, 11, 58, 127
1, 158818, Note_on_c, 1, 73, 127
1, 158920, Note_off_c, 11, 58, 127
1, 158923, Note_on_c, 0, 60, 127
1, 158982, Note_off_c, 1, 73, 127
1, 159025, Note_off_c, 0, 60, 127
1, 159028, Note_on_c, 1, 61, 127
1, 159028, Note_on_c, 11, 70, 127
1, 159238, Note_off_c, 11, 70, 127
1, 159239, Note_on_c, 0, 72, 127
1, 159325, Note_off_c, 1, 61, 127
1, 159345, Note_on_c, 0, 60, 127
1, 159447, Note_off_c, 0, 60, 127
1, 159449, Note_off_c, 0, 72, 127
1, 159450, Note_on_c, 11, 58, 127
1, 159450, Note_on_c, 1, 73, 127
1, 159552, Note_off_c, 11, 58, 127
1, 159555, Note_on_c, 8, 56, 127
1, 159657, Note_off_c, 8, 56, 127
1, 159659, Note_off_c, 1, 73, 127
1, 159660, Note_on_c, 7, 55, 127
1, 159660, Note_on_c, 3, 75, 127
1, 159762, Note_off_c, 7, 55, 127
1, 159765, Note_on_c, 5, 53, 127
1, 159867, Note_off_c, 5, 53, 127
1, 159869, Note_off_c, 3, 75, 127
1, 159870, Note_on_c, 7, 55, 127
1, 159870, Note_on_c, 1, 73, 127
1, 159972, Note_off_c, 7, 55, 127
1, 159975, Note_on_c, 11, 58, 127
1, 160077, Note_off_c, 11, 58, 127
1, 160079, Note_off_c, 1, 73, 127
1, 160080, Note_on_c, 8, 56, 127
1, 160080, Note_on_c, 0, 72, 127
1, 160182, Note_off_c, 8, 56, 127
1, 160185, Note_on_c, 11, 58, 127
1, 160244, Note_off_c, 0, 72, 127
1, 160287, Note_off_c, 11, 58, 127
1, 160290, Note_on_c, 0, 60, 127
1, 160290, Note_on_c, 8, 68, 127
1, 160500, Note_off_c, 8, 68, 127
1, 160501, Note_on_c, 11, 70, 127
1, 160587, Note_off_c, 0, 60, 127
1, 160607, Note_on_c, 11, 58, 127
1, 160709, Note_off_c, 11, 58, 127
1, 160711, Note_off_c, 11, 70, 127
1, 160712, Note_on_c, 8, 56, 127
1, 160712, Note_on_c, 0, 72, 127
1, 160814, Note_off_c, 8, 56, 127
1, 160817, Note_on_c, 7, 55, 127
1, 160919, Note_off_c, 7, 55, 127
1, 160921, Note_off_c, 0, 72, 127
1, 160922, Note_on_c, 5, 53, 127
1, 160922, Note_on_c, 1, 73, 127
1, 161024, Note_off_c, 5, 53, 127
1, 161027, Note_on_c, 4, 52, 127
1, 161129, Note_off_c, 4, 52, 127
1, 161131, Note_off_c, 1, 73, 127
1, 161132, Note_on_c, 5, 53, 127
1, 161132, Note_on_c, 0, 72, 127
1, 161234, Note_off_c, 5, 53, 127
1, 161237, Note_on_c, 8, 56, 127
1, 161339, Note_off_c, 8, 56, 127
1, 161341, Note_off_c, 0, 72, 127
1, 161342, Note_on_c, 7, 55, 127
1, 161342, Note_on_c, 11, 70, 127
1, 161444, Note_off_c, 7, 55, 127
1, 161447, Note_on_c, 1, 61, 127
1, 161549, Note_off_c, 1, 61, 127
1, 161551, Note_off_c, 11, 70, 127
1, 161552, Note_on_c, 7, 55, 127
1, 161552, Note_on_c, 8, 68, 127
1, 161654, Note_off_c, 7, 55, 127
1, 161657, Note_on_c, 5, 53, 127
1, 161759, Note_off_c, 5, 53, 127
1, 161761, Note_off_c, 8, 68, 127
1, 161762, Note_on_c, 7, 55, 127
1, 161762, Note_on_c, 11, 70, 127
1, 161864, Note_off_c, 7, 55, 127
1, 161867, Note_on_c, 8, 56, 127
1, 161969, Note_off_c, 8, 56, 127
1, 161971, Note_off_c, 11, 70, 127
1, 161972, Note_on_c, 11, 58, 127
1, 161972, Note_on_c, 7, 67, 127
1, 162074, Note_off_c, 11, 58, 127
1, 162077, Note_on_c, 0, 60, 127
1, 162179, Note_off_c, 0, 60, 127
1, 162181, Note_off_c, 7, 67, 127
1, 162182, Note_on_c, 11, 58, 127
1, 162182, Note_on_c, 8, 68, 127
1, 162284, Note_off_c, 11, 58, 127
1, 162287, Note_on_c, 8, 56, 127
1, 162389, Note_off_c, 8, 56, 127
1, 162391, Note_off_c, 8, 68, 127
1, 162392, Note_on_c, 7, 55, 127
1, 162392, Note_on_c, 11, 70, 127
1, 162494, Note_off_c, 7, 55, 127
1, 162497, Note_on_c, 5, 53, 127
1, 162578, Note_off_c, 11, 70, 127
1, 162599, Note_off_c, 5, 53, 127
1, 162602, Note_on_c, 0, 60, 127
1, 162602, Note_on_c, 4, 64, 127
1, 162704, Note_off_c, 4, 64, 127
1, 162707, Note_on_c, 2, 62, 127
1, 162809, Note_off_c, 2, 62, 127
1, 162811, Note_off_c, 0, 60, 127
1, 162812, Note_on_c, 11, 58, 127
1, 162812, Note_on_c, 0, 60, 127
1, 162914, Note_off_c, 0, 60, 127
1, 162914, Note_off_c, 11, 58, 127
1, 162917, Note_on_c, 8, 56, 127
1, 162917, Note_on_c, 2, 62, 127
1, 163019, Note_off_c, 2, 62, 127
1, 163019, Note_off_c, 8, 56, 127
1, 163022, Note_on_c, 7, 55, 127
1, 163022, Note_on_c, 4, 64, 127
1, 163124, Note_off_c, 7, 55, 127
1, 163127, Note_on_c, 0, 60, 127
1, 163229, Note_off_c, 0, 60, 127
1, 163231, Note_off_c, 4, 64, 127
1, 163232, Note_on_c, 11, 58, 127
1, 163232, Note_on_c, 5, 65, 127
1, 163334, Note_off_c, 11, 58, 127
1, 163337, Note_on_c, 8, 56, 127
1, 163439, Note_off_c, 8, 56, 127
1, 163441, Note_off_c, 5, 65, 127
1, 163442, Note_on_c, 7, 55, 127
1, 163442, Note_on_c, 7, 67, 127
1, 163544, Note_off_c, 7, 55, 127
1, 163547, Note_on_c, 5, 53, 127
1, 163649, Note_off_c, 5, 53, 127
1, 163651, Note_off_c, 7, 67, 127
1, 163652, Note_on_c, 4, 52, 127
1, 163652, Note_on_c, 8, 68, 127
1, 163754, Note_off_c, 4, 52, 127
1, 163757, Note_on_c, 2, 50, 127
1, 163859, Note_off_c, 2, 50, 127
1, 163861, Note_off_c, 8, 68, 127
1, 163862, Note_on_c, 0, 48, 127
1, 163862, Note_on_c, 11, 70, 127
1, 163964, Note_off_c, 11, 70, 127
1, 163967, Note_on_c, 8, 68, 127
1, 164069, Note_off_c, 8, 68, 127
1, 164072, Note_on_c, 7, 67, 127
1, 164174, Note_off_c, 7, 67, 127
1, 164177, Note_on_c, 8, 68, 127
1, 164279, Note_off_c, 8, 68, 127
1, 164282, Note_on_c, 11, 70, 127
1, 164344, Note_off_c, 0, 48, 127
1, 164388, Note_on_c, 2, 50, 127
1, 164490, Note_off_c, 2, 50, 127
1, 164492, Note_off_c, 11, 70, 127
1, 164493, Note_on_c, 4, 52, 127
1, 164493, Note_on_c, 0, 72, 127
1, 164595, Note_off_c, 4, 52, 127
1, 164598, Note_on_c, 5, 53, 127
1, 164700, Note_off_c, 5, 53, 127
1, 164702, Note_off_c, 0, 72, 127
1, 164703, Note_on_c, 7, 55, 127
1, 164703, Note_on_c, 1, 73, 127
1, 164805, Note_off_c, 7, 55, 127
1, 164808, Note_on_c, 8, 56, 127
1, 164900, Note_off_c, 1, 73, 127
1, 164910, Note_off_c, 8, 56, 127
1, 164913, Note_on_c, 11, 58, 127
1, 164913, Note_on_c, 7, 67, 127
1, 165015, Note_off_c, 11, 58, 127
1, 165018, Note_on_c, 7, 55, 127
1, 165110, Note_off_c, 7, 67, 127
1, 165120, Note_off_c, 7, 55, 127
1, 165123, Note_on_c, 4, 52, 127
1, 165123, Note_on_c, 11, 70, 127
1, 165321, Note_off_c, 11, 70, 127
1, 165321, Note_off_c, 4, 52, 127
1, 165334, Note_on_c, 1, 61, 127
1, 165334, Note_on_c, 4, 64, 127
1, 165532, Note_off_c, 4, 64, 127
1, 165545, Note_on_c, 7, 67, 127
1, 165587, Note_off_c, 1, 61, 127
1, 165651, Note_on_c, 7, 55, 127
1, 165743, Note_off_c, 7, 67, 127
1, 165753, Note_off_c, 7, 55, 127
1, 165756, Note_on_c, 8, 56, 127
1, 165756, Note_on_c, 0, 60, 127
1, 165858, Note_off_c, 8, 56, 127
1, 165861, Note_on_c, 11, 58, 127
1, 165953, Note_off_c, 0, 60, 127
1, 165963, Note_off_c, 11, 58, 127
1, 165966, Note_on_c, 8, 56, 127
1, 165966, Note_on_c, 0, 72, 127
1, 166068, Note_off_c, 0, 72, 127
1, 166068, Note_off_c, 8, 56, 127
1, 166071, Note_on_c, 7, 55, 127
1, 166071, Note_on_c, 11, 70, 127
1, 166173, Note_off_c, 11, 70, 127
1, 166173, Note_off_c, 7, 55, 127
1, 166176, Note_on_c, 5, 53, 127
1, 166176, Note_on_c, 8, 68, 127
1, 166278, Note_off_c, 8, 68, 127
1, 166278, Note_off_c, 5, 53, 127
1, 166281, Note_on_c, 4, 52, 127
1, 166281, Note_on_c, 7, 67, 127
1, 166383, Note_off_c, 7, 67, 127
1, 166383, Note_off_c, 4, 52, 127
1, 166386, Note_on_c, 5, 53, 127
1, 166386, Note_on_c, 8, 68, 127
1, 166488, Note_off_c, 8, 68, 127
1, 166488, Note_off_c, 5, 53, 127
1, 166491, Note_on_c, 7, 55, 127
1, 166491, Note_on_c, 7, 67, 127
1, 166593, Note_off_c, 7, 67, 127
1, 166593, Note_off_c, 7, 55, 127
1, 166596, Note_on_c, 8, 56, 127
1, 166596, Note_on_c, 5, 65, 127
1, 166698, Note_off_c, 8, 56, 127
1, 166701, Note_on_c, 5, 53, 127
1, 166803, Note_off_c, 5, 53, 127
1, 166806, Note_on_c, 2, 50, 127
1, 166859, Note_off_c, 5, 65, 127
1, 166912, Note_on_c, 8, 68, 127
1, 167014, Note_off_c, 8, 68, 127
1, 167016, Note_off_c, 2, 50, 127
1, 167017, Note_on_c, 5, 53, 127
1, 167017, Note_on_c, 7, 67, 127
1, 167119, Note_off_c, 7, 67, 127
1, 167122, Note_on_c, 5, 65, 127
1, 167224, Note_off_c, 5, 65, 127
1, 167226, Note_off_c, 5, 53, 127
1, 167227, Note_on_c, 11, 46, 127
1, 167227, Note_on_c, 3, 63, 127
1, 167329, Note_off_c, 3, 63, 127
1, 167332, Note_on_c, 2, 62, 127
1, 167434, Note_off_c, 2, 62, 127
1, 167436, Note_off_c, 11, 46, 127
1, 167437, Note_on_c, 8, 56, 127
1, 167437, Note_on_c, 0, 60, 127
1, 167539, Note_off_c, 0, 60, 127
1, 167542, Note_on_c, 11, 58, 127
1, 167644, Note_off_c, 11, 58, 127
1, 167646, Note_off_c, 8, 56, 127
1, 167647, Note_on_c, 3, 51, 127
1, 167647, Note_on_c, 7, 67, 127
1, 167749, Note_off_c, 7, 67, 127
1, 167749, Note_off_c, 3, 51, 127
1, 167752, Note_on_c, 5, 53, 127
1, 167752, Note_on_c, 5, 65, 127
1, 167854, Note_off_c, 5, 65, 127
1, 167854, Note_off_c, 5, 53, 127
1, 167857, Note_on_c, 7, 55, 127
1, 167857, Note_on_c, 3, 63, 127
1, 167959, Note_off_c, 7, 55, 127
1, 167962, Note_on_c, 3, 51, 127
1, 168064, Note_off_c, 3, 51, 127
1, 168067, Note_on_c, 0, 48, 127
1, 168120, Note_off_c, 3, 63, 127
1, 168173, Note_on_c, 7, 67, 127
1, 168275, Note_off_c, 7, 67, 127
1, 168277, Note_off_c, 0, 48, 127
1, 168278, Note_on_c, 3, 51, 127
1, 168278, Note_on_c, 5, 65, 127
1, 168380, Note_off_c, 5, 65, 127
1, 168383, Note_on_c, 3, 63, 127
1, 168485, Note_off_c, 3, 63, 127
1, 168487, Note_off_c, 3, 51, 127
1, 168488, Note_on_c, 8, 44, 127
1, 168488, Note_on_c, 2, 62, 127
1, 168590, Note_off_c, 2, 62, 127
1, 168593, Note_on_c, 0, 60, 127
1, 168695, Note_off_c, 0, 60, 127
1, 168697, Note_off_c, 8, 44, 127
1, 168698, Note_on_c, 7, 55, 127
1, 168698, Note_on_c, 12, 59, 127
1, 168800, Note_off_c, 12, 59, 127
1, 168803, Note_on_c, 0, 60, 127
1, 168905, Note_off_c, 0, 60, 127
1, 168907, Note_off_c, 7, 55, 127
1, 168908, Note_on_c, 2, 50, 127
1, 168908, Note_on_c, 5, 65, 127
1, 169010, Note_off_c, 5, 65, 127
1, 169010, Note_off_c, 2, 50, 127
1, 169013, Note_on_c, 3, 51, 127
1, 169013, Note_on_c, 3, 63, 127
1, 169115, Note_off_c, 3, 63, 127
1, 169115, Note_off_c, 3, 51, 127
1, 169118, Note_on_c, 5, 53, 127
1, 169118, Note_on_c, 2, 62, 127
1, 169220, Note_off_c, 5, 53, 127
1, 169223, Note_on_c, 2, 50, 127
1, 169325, Note_off_c, 2, 50, 127
1, 169328, Note_on_c, 12, 47, 127
1, 169381, Note_off_c, 2, 62, 127
1, 169434, Note_on_c, 5, 65, 127
1, 169536, Note_off_c, 5, 65, 127
1, 169538, Note_off_c, 12, 47, 127
1, 169539, Note_on_c, 2, 50, 127
1, 169539, Note_on_c, 3, 63, 127
1, 169641, Note_off_c, 3, 63, 127
1, 169644, Note_on_c, 2, 62, 127
1, 169746, Note_off_c, 2, 62, 127
1, 169748, Note_off_c, 2, 50, 127
1, 169749, Note_on_c, 7, 43, 127
1, 169749, Note_on_c, 0, 60, 127
1, 169851, Note_off_c, 0, 60, 127
1, 169854, Note_on_c, 12, 59, 127
1, 169956, Note_off_c, 12, 59, 127
1, 169958, Note_off_c, 7, 43, 127
1, 169959, Note_on_c, 5, 53, 127
1, 169959, Note_on_c, 10, 57, 127
1, 170061, Note_off_c, 10, 57, 127
1, 170064, Note_on_c, 7, 55, 127
1, 170166, Note_off_c, 7, 55, 127
1, 170168, Note_off_c, 5, 53, 127
1, 170169, Note_on_c, 0, 48, 127
1, 170169, Note_on_c, 3, 63, 127
1, 170271, Note_off_c, 3, 63, 127
1, 170271, Note_off_c, 0, 48, 127
1, 170274, Note_on_c, 2, 50, 127
1, 170274, Note_on_c, 5, 65, 127
1, 170376, Note_off_c, 5, 65, 127
1, 170376, Note_off_c, 2, 50, 127
1, 170379, Note_on_c, 3, 51, 127
1, 170379, Note_on_c, 7, 67, 127
1, 170481, Note_off_c, 3, 51, 127
1, 170484, Note_on_c, 0, 48, 127
1, 170586, Note_off_c, 0, 48, 127
1, 170589, Note_on_c, 8, 44, 127
1, 170691, Note_off_c, 8, 44, 127
1, 170694, Note_on_c, 0, 48, 127
1, 170773, Note_off_c, 7, 67, 127
1, 170796, Note_off_c, 0, 48, 127
1, 170799, Note_on_c, 7, 43, 127
1, 170799, Note_on_c, 5, 65, 127
1, 170901, Note_off_c, 5, 65, 127
1, 170901, Note_off_c, 7, 43, 127
1, 170904, Note_on_c, 0, 48, 127
1, 170904, Note_on_c, 3, 63, 127
1, 171006, Note_off_c, 3, 63, 127
1, 171006, Note_off_c, 0, 48, 127
1, 171009, Note_on_c, 6, 42, 127
1, 171009, Note_on_c, 2, 62, 127
1, 171111, Note_off_c, 2, 62, 127
1, 171111, Note_off_c, 6, 42, 127
1, 171114, Note_on_c, 3, 51, 127
1, 171114, Note_on_c, 10, 69, 127
1, 171216, Note_off_c, 10, 69, 127
1, 171216, Note_off_c, 3, 51, 127
1, 171219, Note_on_c, 2, 50, 127
1, 171219, Note_on_c, 12, 71, 127
1, 171321, Note_off_c, 12, 71, 127
1, 171321, Note_off_c, 2, 50, 127
1, 171324, Note_on_c, 0, 48, 127
1, 171324, Note_on_c, 0, 72, 127
1, 171426, Note_off_c, 0, 72, 127
1, 171426, Note_off_c, 0, 48, 127
1, 171429, Note_on_c, 12, 47, 127
1, 171429, Note_on_c, 2, 74, 127
1, 171531, Note_off_c, 2, 74, 127
1, 171531, Note_off_c, 12, 47, 127
1, 171534, Note_on_c, 10, 45, 127
1, 171534, Note_on_c, 0, 72, 127
1, 171636, Note_off_c, 0, 72, 127
1, 171636, Note_off_c, 10, 45, 127
1, 171639, Note_on_c, 7, 43, 127
1, 171639, Note_on_c, 12, 71, 127
1, 171741, Note_off_c, 12, 71, 127
1, 171741, Note_off_c, 7, 43, 127
1, 171744, Note_on_c, 10, 45, 127
1, 171744, Note_on_c, 0, 72, 127
1, 171846, Note_off_c, 0, 72, 127
1, 171846, Note_off_c, 10, 45, 127
1, 171849, Note_on_c, 12, 47, 127
1, 171849, Note_on_c, 2, 74, 127
1, 171951, Note_off_c, 2, 74, 127
1, 171954, Note_on_c, 7, 79, 127
1, 172056, Note_off_c, 7, 79, 127
1, 172058, Note_off_c, 12, 47, 127
1, 172059, Note_on_c, 0, 48, 127
1, 172059, Note_on_c, 5, 77, 127
1, 172161, Note_off_c, 5, 77, 127
1, 172164, Note_on_c, 3, 75, 127
1, 172266, Note_off_c, 3, 75, 127
1, 172268, Note_off_c, 0, 48, 127
1, 172269, Note_on_c, 2, 50, 127
1, 172269, Note_on_c, 2, 74, 127
1, 172371, Note_off_c, 2, 74, 127
1, 172374, Note_on_c, 0, 72, 127
1, 172476, Note_off_c, 0, 72, 127
1, 172478, Note_off_c, 2, 50, 127
1, 172479, Note_on_c, 3, 51, 127
1, 172479, Note_on_c, 12, 71, 127
1, 172581, Note_off_c, 12, 71, 127
1, 172584, Note_on_c, 10, 69, 127
1, 172686, Note_off_c, 10, 69, 127
1, 172688, Note_off_c, 3, 51, 127
1, 172689, Note_on_c, 5, 53, 127
1, 172689, Note_on_c, 7, 67, 127
1, 172791, Note_off_c, 5, 53, 127
1, 172794, Note_on_c, 3, 51, 127
1, 172896, Note_off_c, 3, 51, 127
1, 172899, Note_on_c, 2, 50, 127
1, 173001, Note_off_c, 2, 50, 127
1, 173004, Note_on_c, 3, 51, 127
1, 173106, Note_off_c, 3, 51, 127
1, 173109, Note_on_c, 5, 53, 127
1, 173193, Note_off_c, 7, 67, 127
1, 173215, Note_on_c, 10, 69, 127
1, 173317, Note_off_c, 10, 69, 127
1, 173319, Note_off_c, 5, 53, 127
1, 173320, Note_on_c, 7, 55, 127
1, 173320, Note_on_c, 12, 71, 127
1, 173422, Note_off_c, 12, 71, 127
1, 173425, Note_on_c, 0, 72, 127
1, 173527, Note_off_c, 0, 72, 127
1, 173529, Note_off_c, 7, 55, 127
1, 173530, Note_on_c, 8, 56, 127
1, 173530, Note_on_c, 2, 74, 127
1, 173632, Note_off_c, 2, 74, 127
1, 173635, Note_on_c, 3, 75, 127
1, 173727, Note_off_c, 8, 56, 127
1, 173737, Note_off_c, 3, 75, 127
1, 173740, Note_on_c, 2, 50, 127
1, 173740, Note_on_c, 5, 77, 127
1, 173842, Note_off_c, 5, 77, 127
1, 173845, Note_on_c, 2, 74, 127
1, 173937, Note_off_c, 2, 50, 127
1, 173947, Note_off_c, 2, 74, 127
1, 173950, Note_on_c, 5, 53, 127
1, 173950, Note_on_c, 12, 71, 127
1, 174137, Note_off_c, 12, 71, 127
1, 174148, Note_off_c, 5, 53, 127
1, 174161, Note_on_c, 12, 47, 127
1, 174161, Note_on_c, 8, 80, 127
1, 174359, Note_off_c, 12, 47, 127
1, 174372, Note_on_c, 2, 50, 127
1, 174425, Note_off_c, 8, 80, 127
1, 174478, Note_on_c, 2, 74, 127
1, 174570, Note_off_c, 2, 50, 127
1, 174580, Note_off_c, 2, 74, 127
1, 174583, Note_on_c, 7, 43, 127
1, 174583, Note_on_c, 3, 75, 127
1, 174685, Note_off_c, 3, 75, 127
1, 174688, Note_on_c, 5, 77, 127
1, 174780, Note_off_c, 7, 43, 127
1, 174790, Note_off_c, 5, 77, 127
1, 174793, Note_on_c, 7, 55, 127
1, 174793, Note_on_c, 3, 75, 127
1, 174895, Note_off_c, 3, 75, 127
1, 174895, Note_off_c, 7, 55, 127
1, 174898, Note_on_c, 5, 53, 127
1, 174898, Note_on_c, 2, 74, 127
1, 175000, Note_off_c, 2, 74, 127
1, 175000, Note_off_c, 5, 53, 127
1, 175003, Note_on_c, 3, 51, 127
1, 175003, Note_on_c, 0, 72, 127
1, 175105, Note_off_c, 0, 72, 127
1, 175105, Note_off_c, 3, 51, 127
1, 175108, Note_on_c, 2, 50, 127
1, 175108, Note_on_c, 12, 71, 127
1, 175210, Note_off_c, 12, 71, 127
1, 175210, Note_off_c, 2, 50, 127
1, 175213, Note_on_c, 3, 51, 127
1, 175213, Note_on_c, 0, 72, 127
1, 175315, Note_off_c, 3, 51, 127
1, 175318, Note_on_c, 2, 50, 127
1, 175420, Note_off_c, 2, 50, 127
1, 175423, Note_on_c, 0, 48, 127
1, 175525, Note_off_c, 0, 48, 127
1, 175528, Note_on_c, 2, 50, 127
1, 175629, Note_off_c, 0, 72, 127
1, 175630, Note_off_c, 2, 50, 127
1, 175633, Note_on_c, 3, 51, 127
1, 175739, Note_on_c, 7, 79, 127
1, 175841, Note_off_c, 7, 79, 127
1, 175843, Note_off_c, 3, 51, 127
1, 175844, Note_on_c, 5, 53, 127
1, 175844, Note_on_c, 1, 73, 127
1, 175946, Note_off_c, 1, 73, 127
1, 175949, Note_on_c, 0, 72, 127
1, 176051, Note_off_c, 0, 72, 127
1, 176053, Note_off_c, 5, 53, 127
1, 176054, Note_on_c, 7, 55, 127
1, 176054, Note_on_c, 11, 70, 127
1, 176156, Note_off_c, 11, 70, 127
1, 176159, Note_on_c, 3, 75, 127
1, 176261, Note_off_c, 3, 75, 127
1, 176263, Note_off_c, 7, 55, 127
1, 176264, Note_on_c, 8, 56, 127
1, 176264, Note_on_c, 11, 70, 127
1, 176366, Note_off_c, 11, 70, 127
1, 176369, Note_on_c, 8, 68, 127
1, 176471, Note_off_c, 8, 68, 127
1, 176473, Note_off_c, 8, 56, 127
1, 176474, Note_on_c, 11, 58, 127
1, 176474, Note_on_c, 7, 67, 127
1, 176576, Note_off_c, 7, 67, 127
1, 176576, Note_off_c, 11, 58, 127
1, 176579, Note_on_c, 8, 56, 127
1, 176579, Note_on_c, 8, 68, 127
1, 176681, Note_off_c, 8, 68, 127
1, 176681, Note_off_c, 8, 56, 127
1, 176684, Note_on_c, 7, 55, 127
1, 176684, Note_on_c, 11, 70, 127
1, 176786, Note_off_c, 11, 70, 127
1, 176786, Note_off_c, 7, 55, 127
1, 176789, Note_on_c, 5, 53, 127
1, 176789, Note_on_c, 0, 72, 127
1, 176891, Note_off_c, 0, 72, 127
1, 176891, Note_off_c, 5, 53, 127
1, 176894, Note_on_c, 3, 51, 127
1, 176894, Note_on_c, 1, 73, 127
1, 176996, Note_off_c, 3, 51, 127
1, 176999, Note_on_c, 11, 58, 127
1, 177097, Note_off_c, 1, 73, 127
1, 177101, Note_off_c, 11, 58, 127
1, 177104, Note_on_c, 5, 53, 127
1, 177104, Note_on_c, 11, 70, 127
1, 177206, Note_off_c, 5, 53, 127
1, 177209, Note_on_c, 3, 51, 127
1, 177290, Note_off_c, 11, 70, 127
1, 177311, Note_off_c, 3, 51, 127
1, 177314, Note_on_c, 1, 49, 127
1, 177314, Note_on_c, 7, 79, 127
1, 177416, Note_off_c, 1, 49, 127
1, 177419, Note_on_c, 11, 58, 127
1, 177521, Note_off_c, 11, 58, 127
1, 177524, Note_on_c, 3, 51, 127
1, 177626, Note_off_c, 3, 51, 127
1, 177629, Note_on_c, 1, 49, 127
1, 177731, Note_off_c, 1, 49, 127
1, 177734, Note_on_c, 0, 48, 127
1, 177836, Note_off_c, 0, 48, 127
1, 177839, Note_off_c, 7, 79, 127
1, 177839, Note_on_c, 11, 46, 127
1, 177941, Note_off_c, 11, 46, 127
1, 177944, Note_on_c, 8, 44, 127
1, 177944, Note_on_c, 0, 72, 127
1, 178046, Note_off_c, 0, 72, 127
1, 178046, Note_off_c, 8, 44, 127
1, 178049, Note_on_c, 11, 46, 127
1, 178049, Note_on_c, 11, 70, 127
1, 178151, Note_off_c, 11, 70, 127
1, 178151, Note_off_c, 11, 46, 127
1, 178154, Note_on_c, 0, 48, 127
1, 178154, Note_on_c, 8, 68, 127
1, 178256, Note_off_c, 8, 68, 127
1, 178259, Note_on_c, 5, 77, 127
1, 178361, Note_off_c, 5, 77, 127
1, 178363, Note_off_c, 0, 48, 127
1, 178364, Note_on_c, 2, 50, 127
1, 178364, Note_on_c, 11, 70, 127
1, 178466, Note_off_c, 11, 70, 127
1, 178469, Note_on_c, 8, 68, 127
1, 178571, Note_off_c, 8, 68, 127
1, 178573, Note_off_c, 2, 50, 127
1, 178574, Note_on_c, 4, 52, 127
1, 178574, Note_on_c, 7, 67, 127
1, 178676, Note_off_c, 7, 67, 127
1, 178679, Note_on_c, 1, 73, 127
1, 178781, Note_off_c, 1, 73, 127
1, 178783, Note_off_c, 4, 52, 127
1, 178784, Note_on_c, 5, 53, 127
1, 178784, Note_on_c, 7, 67, 127
1, 178886, Note_off_c, 7, 67, 127
1, 178889, Note_on_c, 5, 65, 127
1, 178991, Note_off_c, 5, 65, 127
1, 178993, Note_off_c, 5, 53, 127
1, 178994, Note_on_c, 7, 55, 127
1, 178994, Note_on_c, 4, 64, 127
1, 179096, Note_off_c, 4, 64, 127
1, 179096, Note_off_c, 7, 55, 127
1, 179099, Note_on_c, 5, 53, 127
1, 179099, Note_on_c, 5, 65, 127
1, 179201, Note_off_c, 5, 65, 127
1, 179201, Note_off_c, 5, 53, 127
1, 179204, Note_on_c, 4, 52, 127
1, 179204, Note_on_c, 7, 67, 127
1, 179306, Note_off_c, 7, 67, 127
1, 179306, Note_off_c, 4, 52, 127
1, 179309, Note_on_c, 2, 50, 127
1, 179309, Note_on_c, 8, 68, 127
1, 179411, Note_off_c, 8, 68, 127
1, 179411, Note_off_c, 2, 50, 127
1, 179414, Note_on_c, 0, 48, 127
1, 179414, Note_on_c, 11, 70, 127
1, 179516, Note_off_c, 0, 48, 127
1, 179519, Note_on_c, 7, 55, 127
1, 179617, Note_off_c, 11, 70, 127
1, 179621, Note_off_c, 7, 55, 127
1, 179624, Note_on_c, 1, 49, 127
1, 179624, Note_on_c, 7, 67, 127
1, 179726, Note_off_c, 1, 49, 127
1, 179729, Note_on_c, 0, 48, 127
1, 179827, Note_off_c, 7, 67, 127
1, 179831, Note_off_c, 0, 48, 127
1, 179834, Note_on_c, 11, 46, 127
1, 179834, Note_on_c, 5, 77, 127
1, 179903, Note_off_c, 5, 77, 127
1, 179904, Note_on_c, 4, 76, 127
1, 179936, Note_off_c, 11, 46, 127
1, 179939, Note_on_c, 7, 55, 127
1, 179973, Note_off_c, 4, 76, 127
1, 179974, Note_on_c, 5, 77, 127
1, 180041, Note_off_c, 7, 55, 127
1, 180043, Note_off_c, 5, 77, 127
1, 180044, Note_on_c, 0, 48, 127
1, 180044, Note_on_c, 4, 76, 127
1, 180113, Note_off_c, 4, 76, 127
1, 180114, Note_on_c, 2, 74, 127
1, 180146, Note_off_c, 0, 48, 127
1, 180149, Note_on_c, 11, 46, 127
1, 180183, Note_off_c, 2, 74, 127
1, 180184, Note_on_c, 4, 76, 127
1, 180251, Note_off_c, 11, 46, 127
1, 180253, Note_off_c, 4, 76, 127
1, 180254, Note_on_c, 8, 44, 127
1, 180254, Note_on_c, 5, 77, 127
1, 180356, Note_off_c, 8, 44, 127
1, 180359, Note_on_c, 5, 53, 127
1, 180461, Note_off_c, 5, 53, 127
1, 180463, Note_off_c, 5, 77, 127
1, 180464, Note_on_c, 8, 44, 127
1, 180464, Note_on_c, 5, 65, 127
1, 180566, Note_off_c, 5, 65, 127
1, 180566, Note_off_c, 8, 44, 127
1, 180569, Note_on_c, 7, 43, 127
1, 180569, Note_on_c, 7, 67, 127
1, 180671, Note_off_c, 7, 67, 127
1, 180671, Note_off_c, 7, 43, 127
1, 180674, Note_on_c, 5, 41, 127
1, 180674, Note_on_c, 8, 68, 127
1, 180776, Note_off_c, 5, 41, 127
1, 180779, Note_on_c, 0, 48, 127
1, 180881, Note_off_c, 0, 48, 127
1, 180883, Note_off_c, 8, 68, 127
1, 180884, Note_on_c, 1, 49, 127
1, 180884, Note_on_c, 11, 70, 127
1, 180986, Note_off_c, 1, 49, 127
1, 180989, Note_on_c, 7, 43, 127
1, 181091, Note_off_c, 7, 43, 127
1, 181093, Note_off_c, 11, 70, 127
1, 181094, Note_on_c, 10, 45, 127
1, 181094, Note_on_c, 0, 72, 127
1, 181196, Note_off_c, 10, 45, 127
1, 181199, Note_on_c, 3, 51, 127
1, 181301, Note_off_c, 3, 51, 127
1, 181303, Note_off_c, 0, 72, 127
1, 181304, Note_on_c, 5, 53, 127
1, 181304, Note_on_c, 2, 74, 127
1, 181406, Note_off_c, 5, 53, 127
1, 181409, Note_on_c, 12, 47, 127
1, 181511, Note_off_c, 12, 47, 127
1, 181513, Note_off_c, 2, 74, 127
1, 181514, Note_on_c, 0, 48, 127
1, 181514, Note_on_c, 3, 75, 127
1, 181616, Note_off_c, 3, 75, 127
1, 181616, Note_off_c, 0, 48, 127
1, 181619, Note_on_c, 5, 53, 127
1, 181619, Note_on_c, 2, 74, 127
1, 181721, Note_off_c, 2, 74, 127
1, 181721, Note_off_c, 5, 53, 127
1, 181724, Note_on_c, 3, 51, 127
1, 181724, Note_on_c, 0, 72, 127
1, 181826, Note_off_c, 0, 72, 127
1, 181826, Note_off_c, 3, 51, 127
1, 181829, Note_on_c, 2, 50, 127
1, 181829, Note_on_c, 2, 74, 127
1, 181931, Note_off_c, 2, 74, 127
1, 181931, Note_off_c, 2, 50, 127
1, 181934, Note_on_c, 0, 48, 127
1, 181934, Note_on_c, 3, 75, 127
1, 182036, Note_off_c, 0, 48, 127
1, 182039, Note_on_c, 7, 55, 127
1, 182141, Note_off_c, 7, 55, 127
1, 182143, Note_off_c, 3, 75, 127
1, 182144, Note_on_c, 8, 56, 127
1, 182144, Note_on_c, 5, 77, 127
1, 182246, Note_off_c, 8, 56, 127
1, 182249, Note_on_c, 2, 50, 127
1, 182351, Note_off_c, 2, 50, 127
1, 182353, Note_off_c, 5, 77, 127
1, 182354, Note_on_c, 3, 51, 127
1, 182354, Note_on_c, 7, 79, 127
1, 182456, Note_off_c, 3, 51, 127
1, 182459, Note_on_c, 12, 59, 127
1, 182561, Note_off_c, 12, 59, 127
1, 182563, Note_off_c, 7, 79, 127
1, 182564, Note_on_c, 0, 60, 127
1, 182564, Note_on_c, 8, 80, 127
1, 182666, Note_off_c, 0, 60, 127
1, 182669, Note_on_c, 5, 53, 127
1, 182771, Note_off_c, 5, 53, 127
1, 182773, Note_off_c, 8, 80, 127
1, 182774, Note_on_c, 7, 55, 127
1, 182774, Note_on_c, 12, 71, 127
1, 182880, Note_on_c, 7, 79, 127
1, 182982, Note_off_c, 7, 79, 127
1, 182985, Note_on_c, 7, 43, 127
1, 182985, Note_on_c, 2, 74, 127
1, 183082, Note_off_c, 7, 55, 127
1, 183088, Note_off_c, 2, 74, 127
1, 183091, Note_off_c, 12, 71, 127
1, 183091, Note_on_c, 0, 72, 127
1, 183193, Note_off_c, 0, 72, 127
1, 183194, Note_off_c, 7, 43, 127
1, 183196, Note_on_c, 12, 71, 127
1, 183298, Note_off_c, 12, 71, 127
1, 183301, Note_on_c, 10, 69, 127
1, 183301, Note_on_c, 0, 72, 127
1, 183403, Note_off_c, 0, 72, 127
1, 183403, Note_off_c, 10, 69, 127
1, 183406, Note_on_c, 12, 71, 127
1, 183406, Note_on_c, 2, 74, 127
1, 183508, Note_off_c, 2, 74, 127
1, 183508, Note_off_c, 12, 71, 127
1, 183511, Note_on_c, 0, 72, 127
1, 183511, Note_on_c, 3, 75, 127
1, 183613, Note_off_c, 3, 75, 127
1, 183613, Note_off_c, 0, 72, 127
1, 183616, Note_on_c, 12, 71, 127
1, 183616, Note_on_c, 2, 74, 127
1, 183722, Note_on_c, 7, 79, 127
1, 183770, Note_off_c, 2, 74, 127
1, 183824, Note_off_c, 7, 79, 127
1, 183826, Note_off_c, 12, 71, 127
1, 183827, Note_on_c, 10, 69, 127
1, 183827, Note_on_c, 2, 74, 127
1, 183929, Note_off_c, 2, 74, 127
1, 183932, Note_on_c, 0, 72, 127
1, 184034, Note_off_c, 0, 72, 127
1, 184036, Note_off_c, 10, 69, 127
1, 184037, Note_on_c, 7, 67, 127
1, 184037, Note_on_c, 12, 71, 127
1, 184143, Note_on_c, 7, 79, 127
1, 184245, Note_off_c, 7, 79, 127
1, 184248, Note_on_c, 7, 55, 127
1, 184248, Note_on_c, 2, 74, 127
1, 184345, Note_off_c, 12, 71, 127
1, 184351, Note_off_c, 2, 74, 127
1, 184354, Note_on_c, 0, 72, 127
1, 184455, Note_off_c, 7, 67, 127
1, 184456, Note_off_c, 0, 72, 127
1, 184459, Note_on_c, 12, 71, 127
1, 184534, Note_off_c, 7, 55, 127
1, 184562, Note_off_c, 12, 71, 127
1, 184565, Note_on_c, 3, 63, 127
1, 184565, Note_on_c, 0, 72, 127
1, 184667, Note_off_c, 0, 72, 127
1, 184667, Note_off_c, 3, 63, 127
1, 184670, Note_on_c, 5, 65, 127
1, 184670, Note_on_c, 2, 74, 127
1, 184772, Note_off_c, 2, 74, 127
1, 184772, Note_off_c, 5, 65, 127
1, 184775, Note_on_c, 7, 67, 127
1, 184775, Note_on_c, 3, 75, 127
1, 184877, Note_off_c, 3, 75, 127
1, 184877, Note_off_c, 7, 67, 127
1, 184880, Note_on_c, 5, 65, 127
1, 184880, Note_on_c, 2, 74, 127
1, 184986, Note_on_c, 7, 79, 127
1, 185034, Note_off_c, 2, 74, 127
1, 185088, Note_off_c, 7, 79, 127
1, 185090, Note_off_c, 5, 65, 127
1, 185091, Note_on_c, 3, 63, 127
1, 185091, Note_on_c, 2, 74, 127
1, 185193, Note_off_c, 2, 74, 127
1, 185196, Note_on_c, 0, 72, 127
1, 185298, Note_off_c, 0, 72, 127
1, 185300, Note_off_c, 3, 63, 127
1, 185301, Note_on_c, 2, 62, 127
1, 185301, Note_on_c, 12, 71, 127
1, 185407, Note_on_c, 5, 77, 127
1, 185477, Note_off_c, 12, 71, 127
1, 185509, Note_off_c, 5, 77, 127
1, 185512, Note_on_c, 7, 55, 127
1, 185512, Note_on_c, 2, 74, 127
1, 185609, Note_off_c, 2, 62, 127
1, 185615, Note_off_c, 2, 74, 127
1, 185618, Note_on_c, 0, 72, 127
1, 185720, Note_off_c, 0, 72, 127
1, 185723, Note_on_c, 12, 71, 127
1, 185798, Note_off_c, 7, 55, 127
1, 185826, Note_off_c, 12, 71, 127
1, 185829, Note_on_c, 10, 57, 127
1, 185829, Note_on_c, 0, 72, 127
1, 185931, Note_off_c, 0, 72, 127
1, 185931, Note_off_c, 10, 57, 127
1, 185934, Note_on_c, 12, 59, 127
1, 185934, Note_on_c, 2, 74, 127
1, 186036, Note_off_c, 2, 74, 127
1, 186036, Note_off_c, 12, 59, 127
1, 186039, Note_on_c, 0, 60, 127
1, 186039, Note_on_c, 3, 75, 127
1, 186141, Note_off_c, 3, 75, 127
1, 186141, Note_off_c, 0, 60, 127
1, 186144, Note_on_c, 12, 59, 127
1, 186144, Note_on_c, 2, 74, 127
1, 186250, Note_on_c, 5, 77, 127
1, 186287, Note_off_c, 2, 74, 127
1, 186352, Note_off_c, 5, 77, 127
1, 186354, Note_off_c, 12, 59, 127
1, 186355, Note_on_c, 10, 57, 127
1, 186355, Note_on_c, 2, 74, 127
1, 186457, Note_off_c, 2, 74, 127
1, 186460, Note_on_c, 0, 72, 127
1, 186562, Note_off_c, 0, 72, 127
1, 186564, Note_off_c, 10, 57, 127
1, 186565, Note_on_c, 7, 55, 127
1, 186565, Note_on_c, 12, 71, 127
1, 186671, Note_on_c, 5, 77, 127
1, 186773, Note_off_c, 5, 77, 127
1, 186774, Note_off_c, 12, 71, 127
1, 186776, Note_on_c, 7, 43, 127
1, 186776, Note_on_c, 2, 74, 127
1, 186878, Note_off_c, 2, 74, 127
1, 186881, Note_on_c, 0, 72, 127
1, 186982, Note_off_c, 7, 55, 127
1, 186983, Note_off_c, 0, 72, 127
1, 186986, Note_on_c, 12, 71, 127
1, 187083, Note_off_c, 7, 43, 127
1, 187089, Note_off_c, 12, 71, 127
1, 187092, Note_on_c, 2, 74, 127
1, 187194, Note_off_c, 2, 74, 127
1, 187197, Note_on_c, 7, 67, 127
1, 187197, Note_on_c, 5, 77, 127
1, 187299, Note_off_c, 5, 77, 127
1, 187299, Note_off_c, 7, 67, 127
1, 187302, Note_on_c, 5, 65, 127
1, 187302, Note_on_c, 8, 80, 127
1, 187404, Note_off_c, 8, 80, 127
1, 187404, Note_off_c, 5, 65, 127
1, 187407, Note_on_c, 3, 63, 127
1, 187407, Note_on_c, 7, 79, 127
1, 187509, Note_off_c, 7, 79, 127
1, 187509, Note_off_c, 3, 63, 127
1, 187512, Note_on_c, 2, 62, 127
1, 187512, Note_on_c, 5, 77, 127
1, 187614, Note_off_c, 5, 77, 127
1, 187614, Note_off_c, 2, 62, 127
1, 187617, Note_on_c, 0, 60, 127
1, 187617, Note_on_c, 3, 75, 127
1, 187719, Note_off_c, 3, 75, 127
1, 187719, Note_off_c, 0, 60, 127
1, 187722, Note_on_c, 12, 59, 127
1, 187722, Note_on_c, 2, 74, 127
1, 187824, Note_off_c, 2, 74, 127
1, 187824, Note_off_c, 12, 59, 127
1, 187827, Note_on_c, 0, 60, 127
1, 187827, Note_on_c, 3, 75, 127
1, 187929, Note_off_c, 3, 75, 127
1, 187932, Note_on_c, 5, 77, 127
1, 188034, Note_off_c, 5, 77, 127
1, 188036, Note_off_c, 0, 60, 127
1, 188037, Note_on_c, 0, 48, 127
1, 188037, Note_on_c, 7, 79, 127
1, 188139, Note_off_c, 7, 79, 127
1, 188139, Note_off_c, 0, 48, 127
1, 188142, Note_on_c, 2, 50, 127
1, 188142, Note_on_c, 3, 75, 127
1, 188244, Note_off_c, 3, 75, 127
1, 188244, Note_off_c, 2, 50, 127
1, 188247, Note_on_c, 3, 51, 127
1, 188247, Note_on_c, 0, 72, 127
1, 188349, Note_off_c, 0, 72, 127
1, 188352, Note_on_c, 7, 79, 127
1, 188454, Note_off_c, 7, 79, 127
1, 188456, Note_off_c, 3, 51, 127
1, 188457, Note_on_c, 5, 53, 127
1, 188457, Note_on_c, 5, 77, 127
1, 188559, Note_off_c, 5, 77, 127
1, 188562, Note_on_c, 3, 75, 127
1, 188664, Note_off_c, 3, 75, 127
1, 188666, Note_off_c, 5, 53, 127
1, 188667, Note_on_c, 7, 55, 127
1, 188667, Note_on_c, 2, 74, 127
1, 188769, Note_off_c, 2, 74, 127
1, 188772, Note_on_c, 0, 72, 127
1, 188874, Note_off_c, 0, 72, 127
1, 188876, Note_off_c, 7, 55, 127
1, 188877, Note_on_c, 8, 56, 127
1, 188877, Note_on_c, 11, 70, 127
1, 188979, Note_off_c, 11, 70, 127
1, 188982, Note_on_c, 8, 68, 127
1, 189084, Note_off_c, 8, 68, 127
1, 189086, Note_off_c, 8, 56, 127
1, 189087, Note_on_c, 11, 58, 127
1, 189087, Note_on_c, 7, 67, 127
1, 189189, Note_off_c, 7, 67, 127
1, 189189, Note_off_c, 11, 58, 127
1, 189192, Note_on_c, 8, 56, 127
1, 189192, Note_on_c, 8, 68, 127
1, 189294, Note_off_c, 8, 68, 127
1, 189294, Note_off_c, 8, 56, 127
1, 189297, Note_on_c, 7, 55, 127
1, 189297, Note_on_c, 11, 70, 127
1, 189399, Note_off_c, 7, 55, 127
1, 189402, Note_on_c, 8, 56, 127
1, 189504, Note_off_c, 8, 56, 127
1, 189507, Note_on_c, 11, 58, 127
1, 189582, Note_off_c, 11, 70, 127
1, 189613, Note_on_c, 0, 72, 127
1, 189715, Note_off_c, 0, 72, 127
1, 189717, Note_off_c, 11, 58, 127
1, 189718, Note_on_c, 0, 60, 127
1, 189718, Note_on_c, 11, 70, 127
1, 189820, Note_off_c, 11, 70, 127
1, 189823, Note_on_c, 8, 68, 127
1, 189925, Note_off_c, 8, 68, 127
1, 189927, Note_off_c, 0, 60, 127
1, 189928, Note_on_c, 1, 61, 127
1, 189928, Note_on_c, 7, 67, 127
1, 190030, Note_off_c, 7, 67, 127
1, 190033, Note_on_c, 5, 65, 127
1, 190125, Note_off_c, 1, 61, 127
1, 190135, Note_off_c, 5, 65, 127
1, 190138, Note_on_c, 7, 55, 127
1, 190138, Note_on_c, 4, 64, 127
1, 190240, Note_off_c, 4, 64, 127
1, 190243, Note_on_c, 2, 62, 127
1, 190335, Note_off_c, 7, 55, 127
1, 190345, Note_off_c, 2, 62, 127
1, 190348, Note_on_c, 11, 58, 127
1, 190348, Note_on_c, 0, 60, 127
1, 190450, Note_off_c, 0, 60, 127
1, 190453, Note_on_c, 7, 67, 127
1, 190545, Note_off_c, 11, 58, 127
1, 190555, Note_off_c, 7, 67, 127
1, 190558, Note_on_c, 4, 52, 127
1, 190558, Note_on_c, 0, 60, 127
1, 190660, Note_off_c, 0, 60, 127
1, 190663, Note_on_c, 11, 58, 127
1, 190755, Note_off_c, 4, 52, 127
1, 190765, Note_off_c, 11, 58, 127
1, 190768, Note_on_c, 7, 55, 127
1, 190768, Note_on_c, 0, 60, 127
1, 190870, Note_off_c, 0, 60, 127
1, 190873, Note_on_c, 2, 62, 127
1, 190965, Note_off_c, 7, 55, 127
1, 190975, Note_off_c, 2, 62, 127
1, 190978, Note_on_c, 0, 48, 127
1, 190978, Note_on_c, 4, 64, 127
1, 191080, Note_off_c, 4, 64, 127
1, 191083, Note_on_c, 5, 65, 127
1, 191175, Note_off_c, 0, 48, 127
1, 191185, Note_off_c, 5, 65, 127
1, 191188, Note_on_c, 0, 60, 127
1, 191188, Note_on_c, 4, 64, 127
1, 191290, Note_off_c, 4, 64, 127
1, 191290, Note_off_c, 0, 60, 127
1, 191293, Note_on_c, 11, 58, 127
1, 191293, Note_on_c, 7, 67, 127
1, 191395, Note_off_c, 7, 67, 127
1, 191395, Note_off_c, 11, 58, 127
1, 191398, Note_on_c, 8, 56, 127
1, 191398, Note_on_c, 0, 60, 127
1, 191500, Note_off_c, 0, 60, 127
1, 191500, Note_off_c, 8, 56, 127
1, 191503, Note_on_c, 7, 55, 127
1, 191503, Note_on_c, 11, 58, 127
1, 191605, Note_off_c, 11, 58, 127
1, 191605, Note_off_c, 7, 55, 127
1, 191608, Note_on_c, 8, 56, 127
1, 191608, Note_on_c, 0, 60, 127
1, 191710, Note_off_c, 0, 60, 127
1, 191713, Note_on_c, 7, 67, 127
1, 191815, Note_off_c, 7, 67, 127
1, 191818, Note_on_c, 5, 65, 127
1, 191920, Note_off_c, 5, 65, 127
1, 191923, Note_on_c, 4, 64, 127
1, 192025, Note_off_c, 4, 64, 127
1, 192028, Note_on_c, 5, 65, 127
1, 192068, Note_off_c, 8, 56, 127
1, 192131, Note_off_c, 5, 65, 127
1, 192134, Note_on_c, 11, 58, 127
1, 192134, Note_on_c, 0, 60, 127
1, 192236, Note_off_c, 0, 60, 127
1, 192236, Note_off_c, 11, 58, 127
1, 192239, Note_on_c, 8, 56, 127
1, 192239, Note_on_c, 5, 65, 127
1, 192341, Note_off_c, 5, 65, 127
1, 192341, Note_off_c, 8, 56, 127
1, 192344, Note_on_c, 7, 55, 127
1, 192344, Note_on_c, 7, 67, 127
1, 192446, Note_off_c, 7, 67, 127
1, 192446, Note_off_c, 7, 55, 127
1, 192449, Note_on_c, 5, 53, 127
1, 192449, Note_on_c, 8, 68, 127
1, 192551, Note_off_c, 8, 68, 127
1, 192551, Note_off_c, 5, 53, 127
1, 192554, Note_on_c, 7, 55, 127
1, 192554, Note_on_c, 11, 70, 127
1, 192656, Note_off_c, 11, 70, 127
1, 192656, Note_off_c, 7, 55, 127
1, 192659, Note_on_c, 8, 56, 127
1, 192659, Note_on_c, 0, 72, 127
1, 192761, Note_off_c, 0, 72, 127
1, 192761, Note_off_c, 8, 56, 127
1, 192764, Note_on_c, 5, 53, 127
1, 192764, Note_on_c, 2, 74, 127
1, 192866, Note_off_c, 2, 74, 127
1, 192866, Note_off_c, 5, 53, 127
1, 192869, Note_on_c, 7, 55, 127
1, 192869, Note_on_c, 3, 75, 127
1, 192971, Note_off_c, 3, 75, 127
1, 192971, Note_off_c, 7, 55, 127
1, 192974, Note_on_c, 5, 53, 127
1, 192974, Note_on_c, 2, 74, 127
1, 193076, Note_off_c, 2, 74, 127
1, 193076, Note_off_c, 5, 53, 127
1, 193079, Note_on_c, 3, 51, 127
1, 193079, Note_on_c, 0, 72, 127
1, 193181, Note_off_c, 0, 72, 127
1, 193181, Note_off_c, 3, 51, 127
1, 193184, Note_on_c, 2, 50, 127
1, 193184, Note_on_c, 2, 74, 127
1, 193286, Note_off_c, 2, 74, 127
1, 193286, Note_off_c, 2, 50, 127
1, 193289, Note_on_c, 0, 48, 127
1, 193289, Note_on_c, 3, 75, 127
1, 193391, Note_off_c, 0, 48, 127
1, 193394, Note_on_c, 11, 46, 127
1, 193496, Note_off_c, 11, 46, 127
1, 193498, Note_off_c, 3, 75, 127
1, 193499, Note_on_c, 8, 44, 127
1, 193499, Note_on_c, 5, 77, 127
1, 193601, Note_off_c, 5, 77, 127
1, 193601, Note_off_c, 8, 44, 127
1, 193604, Note_on_c, 7, 43, 127
1, 193604, Note_on_c, 7, 79, 127
1, 193706, Note_off_c, 7, 79, 127
1, 193706, Note_off_c, 7, 43, 127
1, 193709, Note_on_c, 5, 41, 127
1, 193709, Note_on_c, 8, 80, 127
1, 193817, Note_on_c, 5, 53, 127
1, 193911, Note_off_c, 8, 80, 127
1, 193921, Note_off_c, 5, 53, 127
1, 193922, Note_off_c, 5, 41, 127
1, 193924, Note_on_c, 4, 52, 127
1, 193924, Note_on_c, 1, 73, 127
1, 194028, Note_off_c, 4, 52, 127
1, 194031, Note_on_c, 5, 53, 127
1, 194125, Note_off_c, 1, 73, 127
1, 194135, Note_off_c, 5, 53, 127
1, 194138, Note_on_c, 8, 56, 127
1, 194138, Note_on_c, 5, 77, 127
1, 194246, Note_on_c, 5, 53, 127
1, 194318, Note_off_c, 8, 56, 127
1, 194340, Note_off_c, 5, 77, 127
1, 194350, Note_off_c, 5, 53, 127
1, 194353, Note_on_c, 4, 52, 127
1, 194353, Note_on_c, 12, 71, 127
1, 194457, Note_off_c, 4, 52, 127
1, 194460, Note_on_c, 5, 53, 127
1, 194554, Note_off_c, 12, 71, 127
1, 194564, Note_off_c, 5, 53, 127
1, 194567, Note_on_c, 12, 47, 127
1, 194567, Note_on_c, 2, 74, 127
1, 194675, Note_on_c, 5, 53, 127
1, 194747, Note_off_c, 12, 47, 127
1, 194769, Note_off_c, 2, 74, 127
1, 194779, Note_off_c, 5, 53, 127
1, 194782, Note_on_c, 3, 51, 127
1, 194782, Note_on_c, 7, 67, 127
1, 194886, Note_off_c, 3, 51, 127
1, 194889, Note_on_c, 2, 50, 127
1, 194983, Note_off_c, 7, 67, 127
1, 194993, Note_off_c, 2, 50, 127
1, 194996, Note_on_c, 3, 51, 127
1, 194996, Note_on_c, 7, 79, 127
1, 195100, Note_off_c, 7, 79, 127
1, 195103, Note_on_c, 7, 55, 127
1, 195103, Note_on_c, 5, 77, 127
1, 195130, Note_off_c, 3, 51, 127
1, 195207, Note_off_c, 5, 77, 127
1, 195207, Note_off_c, 7, 55, 127
1, 195210, Note_on_c, 0, 48, 127
1, 195210, Note_on_c, 3, 75, 127
1, 195314, Note_off_c, 3, 75, 127
1, 195317, Note_on_c, 3, 51, 127
1, 195317, Note_on_c, 2, 74, 127
1, 195344, Note_off_c, 0, 48, 127
1, 195421, Note_off_c, 2, 74, 127
1, 195421, Note_off_c, 3, 51, 127
1, 195456, Note_on_c, 6, 42, 127
1, 195456, Note_on_c, 3, 75, 127
1, 196146, Note_off_c, 3, 75, 127
1, 196146, Note_off_c, 6, 42, 127
1, 196608, Note_on_c, 10, 69, 127
1, 196608, Note_on_c, 0, 72, 127
1, 196608, Note_on_c, 6, 54, 127
1, 196608, Note_on_c, 3, 63, 127
1, 196720, Note_off_c, 3, 63, 127
1, 196720, Note_off_c, 6, 54, 127
1, 196720, Note_off_c, 0, 72, 127
1, 196720, Note_off_c, 10, 69, 127
1, 196724, Note_on_c, 7, 67, 127
1, 196724, Note_on_c, 0, 72, 127
1, 196724, Note_on_c, 7, 55, 127
1, 196724, Note_on_c, 2, 62, 127
1, 197414, Note_off_c, 2, 62, 127
1, 197434, Note_on_c, 7, 43, 127
1, 197471, Note_off_c, 0, 72, 127
1, 197491, Note_on_c, 12, 71, 127
1, 197547, Note_off_c, 12, 71, 127
1, 197548, Note_on_c, 0, 72, 127
1, 197604, Note_off_c, 0, 72, 127
1, 197605, Note_on_c, 12, 71, 127
1, 197661, Note_off_c, 12, 71, 127
1, 197662, Note_on_c, 0, 72, 127
1, 197718, Note_off_c, 0, 72, 127
1, 197719, Note_on_c, 12, 71, 127
1, 197775, Note_off_c, 12, 71, 127
1, 197776, Note_on_c, 0, 72, 127
1, 197832, Note_off_c, 0, 72, 127
1, 197833, Note_on_c, 12, 71, 127
1, 198132, Note_off_c, 12, 71, 127
1, 198164, Note_on_c, 0, 72, 127
1, 198219, Note_off_c, 7, 67, 127
1, 198339, Note_off_c, 7, 55, 127
1, 198350, Note_off_c, 7, 43, 127
1, 198366, Note_off_c, 0, 72, 127
1, 198390, Note_on_c, 0, 36, 127
1, 198390, Note_on_c, 3, 63, 127
1, 198390, Note_on_c, 7, 67, 127
1, 198390, Note_on_c, 0, 72, 127
1, 200590, Note_off_c, 0, 72, 127
1, 200590, Note_off_c, 7, 67, 127
1, 200590, Note_off_c, 3, 63, 127
1, 200590, Note_off_c, 0, 36, 127
1, 200971, Note_on_c, 8, 80, 127
1, 201109, Note_off_c, 8, 80, 127
1, 201127, Note_on_c, 7, 79, 127
1, 201265, Note_off_c, 7, 79, 127
1, 201266, Note_on_c, 5, 77, 127
1, 201404, Note_off_c, 5, 77, 127
1, 201405, Note_on_c, 0, 48, 127
1, 201405, Note_on_c, 7, 79, 127
1, 201543, Note_off_c, 7, 79, 127
1, 201544, Note_on_c, 2, 74, 127
1, 201682, Note_off_c, 2, 74, 127
1, 201683, Note_on_c, 0, 36, 127
1, 201683, Note_on_c, 3, 75, 127
1, 201821, Note_off_c, 3, 75, 127
1, 201822, Note_on_c, 12, 71, 127
1, 201926, Note_off_c, 0, 48, 127
1, 201960, Note_off_c, 12, 71, 127
1, 201961, Note_on_c, 0, 72, 127
1, 202059, Note_off_c, 0, 36, 127
1, 202099, Note_off_c, 0, 72, 127
1, 202100, Note_on_c, 8, 68, 127
1, 202100, Note_on_c, 5, 77, 127
1, 202238, Note_off_c, 5, 77, 127
1, 202238, Note_off_c, 8, 68, 127
1, 202239, Note_on_c, 7, 67, 127
1, 202239, Note_on_c, 3, 75, 127
1, 202377, Note_off_c, 3, 75, 127
1, 202377, Note_off_c, 7, 67, 127
1, 202378, Note_on_c, 5, 65, 127
1, 202378, Note_on_c, 2, 74, 127
1, 202516, Note_off_c, 2, 74, 127
1, 202516, Note_off_c, 5, 65, 127
1, 202517, Note_on_c, 7, 67, 127
1, 202517, Note_on_c, 3, 75, 127
1, 202655, Note_off_c, 3, 75, 127
1, 202655, Note_off_c, 7, 67, 127
1, 202656, Note_on_c, 2, 62, 127
1, 202656, Note_on_c, 12, 71, 127
1, 202794, Note_off_c, 12, 71, 127
1, 202794, Note_off_c, 2, 62, 127
1, 202795, Note_on_c, 3, 63, 127
1, 202795, Note_on_c, 0, 72, 127
1, 202933, Note_off_c, 0, 72, 127
1, 202933, Note_off_c, 3, 63, 127
1, 202934, Note_on_c, 12, 59, 127
1, 202934, Note_on_c, 7, 67, 127
1, 203072, Note_off_c, 7, 67, 127
1, 203072, Note_off_c, 12, 59, 127
1, 203073, Note_on_c, 0, 60, 127
1, 203073, Note_on_c, 8, 68, 127
1, 203211, Note_off_c, 8, 68, 127
1, 203211, Note_off_c, 0, 60, 127
1, 203212, Note_on_c, 5, 65, 127
1, 203212, Note_on_c, 2, 74, 127
1, 203350, Note_off_c, 2, 74, 127
1, 203350, Note_off_c, 5, 65, 127
1, 203351, Note_on_c, 3, 63, 127
1, 203351, Note_on_c, 0, 72, 127
1, 203489, Note_off_c, 0, 72, 127
1, 203489, Note_off_c, 3, 63, 127
1, 203490, Note_on_c, 2, 62, 127
1, 203490, Note_on_c, 12, 71, 127
1, 203628, Note_off_c, 12, 71, 127
1, 203628, Note_off_c, 2, 62, 127
1, 203629, Note_on_c, 3, 63, 127
1, 203629, Note_on_c, 0, 72, 127
1, 203767, Note_off_c, 0, 72, 127
1, 203767, Note_off_c, 3, 63, 127
1, 203768, Note_on_c, 12, 59, 127
1, 203768, Note_on_c, 7, 67, 127
1, 203906, Note_off_c, 7, 67, 127
1, 203906, Note_off_c, 12, 59, 127
1, 203907, Note_on_c, 0, 60, 127
1, 203907, Note_on_c, 8, 68, 127
1, 204045, Note_off_c, 8, 68, 127
1, 204045, Note_off_c, 0, 60, 127
1, 204046, Note_on_c, 7, 55, 127
1, 204046, Note_on_c, 3, 63, 127
1, 204184, Note_off_c, 3, 63, 127
1, 204184, Note_off_c, 7, 55, 127
1, 204185, Note_on_c, 8, 56, 127
1, 204185, Note_on_c, 5, 65, 127
1, 204323, Note_off_c, 5, 65, 127
1, 204324, Note_on_c, 3, 75, 127
1, 204462, Note_off_c, 3, 75, 127
1, 204462, Note_off_c, 8, 56, 127
1, 204463, Note_on_c, 5, 53, 127
1, 204463, Note_on_c, 2, 74, 127
1, 204601, Note_off_c, 2, 74, 127
1, 204602, Note_on_c, 0, 72, 127
1, 204740, Note_off_c, 0, 72, 127
1, 204740, Note_off_c, 5, 53, 127
1, 204741, Note_on_c, 7, 55, 127
1, 204741, Note_on_c, 12, 71, 127
1, 204810, Note_off_c, 12, 71, 127
1, 204811, Note_on_c, 0, 72, 127
1, 204880, Note_off_c, 0, 72, 127
1, 204881, Note_on_c, 12, 71, 127
1, 205020, Note_on_c, 7, 43, 127
1, 205158, Note_off_c, 12, 71, 127
1, 205159, Note_on_c, 10, 69, 127
1, 205263, Note_off_c, 7, 55, 127
1, 205297, Note_off_c, 10, 69, 127
1, 205298, Note_on_c, 7, 67, 127
1, 205396, Note_off_c, 7, 43, 127
1, 205436, Note_on_c, 5, 53, 127
1, 205574, Note_off_c, 5, 53, 127
1, 205574, Note_off_c, 7, 67, 127
1, 205575, Note_on_c, 3, 51, 127
1, 205575, Note_on_c, 12, 71, 127
1, 205713, Note_off_c, 3, 51, 127
1, 205714, Note_on_c, 2, 50, 127
1, 205852, Note_off_c, 2, 50, 127
1, 205852, Note_off_c, 12, 71, 127
1, 205853, Note_on_c, 3, 51, 127
1, 205853, Note_on_c, 0, 72, 127
1, 205991, Note_off_c, 0, 72, 127
1, 205991, Note_off_c, 3, 51, 127
1, 205992, Note_on_c, 12, 47, 127
1, 205992, Note_on_c, 2, 74, 127
1, 206130, Note_off_c, 2, 74, 127
1, 206130, Note_off_c, 12, 47, 127
1, 206131, Note_on_c, 0, 48, 127
1, 206131, Note_on_c, 3, 75, 127
1, 206269, Note_off_c, 0, 48, 127
1, 206270, Note_on_c, 7, 43, 127
1, 206408, Note_off_c, 7, 43, 127
1, 206409, Note_on_c, 8, 44, 127
1, 206409, Note_on_c, 5, 65, 127
1, 206478, Note_off_c, 3, 75, 127
1, 206547, Note_off_c, 5, 65, 127
1, 206547, Note_off_c, 8, 44, 127
1, 206548, Note_on_c, 7, 55, 127
1, 206548, Note_on_c, 3, 75, 127
1, 206686, Note_off_c, 3, 75, 127
1, 206686, Note_off_c, 7, 55, 127
1, 206687, Note_on_c, 5, 53, 127
1, 206687, Note_on_c, 2, 74, 127
1, 206825, Note_off_c, 2, 74, 127
1, 206825, Note_off_c, 5, 53, 127
1, 206826, Note_on_c, 3, 51, 127
1, 206826, Note_on_c, 0, 72, 127
1, 206964, Note_off_c, 0, 72, 127
1, 206964, Note_off_c, 3, 51, 127
1, 206965, Note_on_c, 5, 53, 127
1, 206965, Note_on_c, 2, 74, 127
1, 207103, Note_off_c, 2, 74, 127
1, 207103, Note_off_c, 5, 53, 127
1, 207104, Note_on_c, 0, 48, 127
1, 207104, Note_on_c, 3, 75, 127
1, 207242, Note_off_c, 3, 75, 127
1, 207242, Note_off_c, 0, 48, 127
1, 207243, Note_on_c, 2, 50, 127
1, 207243, Note_on_c, 5, 77, 127
1, 207381, Note_off_c, 2, 50, 127
1, 207382, Note_on_c, 10, 45, 127
1, 207520, Note_off_c, 10, 45, 127
1, 207521, Note_on_c, 12, 47, 127
1, 207521, Note_on_c, 7, 67, 127
1, 207590, Note_off_c, 5, 77, 127
1, 207659, Note_off_c, 7, 67, 127
1, 207659, Note_off_c, 12, 47, 127
1, 207660, Note_on_c, 8, 56, 127
1, 207660, Note_on_c, 5, 77, 127
1, 207798, Note_off_c, 5, 77, 127
1, 207798, Note_off_c, 8, 56, 127
1, 207799, Note_on_c, 7, 55, 127
1, 207799, Note_on_c, 3, 75, 127
1, 207937, Note_off_c, 3, 75, 127
1, 207937, Note_off_c, 7, 55, 127
1, 207938, Note_on_c, 5, 53, 127
1, 207938, Note_on_c, 2, 74, 127
1, 208076, Note_off_c, 2, 74, 127
1, 208076, Note_off_c, 5, 53, 127
1, 208077, Note_on_c, 7, 55, 127
1, 208077, Note_on_c, 3, 75, 127
1, 208215, Note_off_c, 3, 75, 127
1, 208215, Note_off_c, 7, 55, 127
1, 208216, Note_on_c, 2, 50, 127
1, 208216, Note_on_c, 5, 77, 127
1, 208354, Note_off_c, 5, 77, 127
1, 208354, Note_off_c, 2, 50, 127
1, 208355, Note_on_c, 3, 51, 127
1, 208355, Note_on_c, 7, 79, 127
1, 208493, Note_off_c, 3, 51, 127
1, 208494, Note_on_c, 12, 47, 127
1, 208632, Note_off_c, 12, 47, 127
1, 208633, Note_on_c, 0, 48, 127
1, 208633, Note_on_c, 8, 68, 127
1, 208702, Note_off_c, 7, 79, 127
1, 208771, Note_off_c, 8, 68, 127
1, 208771, Note_off_c, 0, 48, 127
1, 208772, Note_on_c, 11, 58, 127
1, 208772, Note_on_c, 7, 79, 127
1, 208910, Note_off_c, 7, 79, 127
1, 208910, Note_off_c, 11, 58, 127
1, 208911, Note_on_c, 8, 56, 127
1, 208911, Note_on_c, 5, 77, 127
1, 209049, Note_off_c, 5, 77, 127
1, 209049, Note_off_c, 8, 56, 127
1, 209050, Note_on_c, 7, 55, 127
1, 209050, Note_on_c, 3, 75, 127
1, 209188, Note_off_c, 3, 75, 127
1, 209188, Note_off_c, 7, 55, 127
1, 209189, Note_on_c, 8, 56, 127
1, 209189, Note_on_c, 5, 77, 127
1, 209327, Note_off_c, 5, 77, 127
1, 209327, Note_off_c, 8, 56, 127
1, 209328, Note_on_c, 3, 51, 127
1, 209328, Note_on_c, 7, 79, 127
1, 209466, Note_off_c, 7, 79, 127
1, 209466, Note_off_c, 3, 51, 127
1, 209467, Note_on_c, 5, 53, 127
1, 209467, Note_on_c, 8, 80, 127
1, 209605, Note_off_c, 5, 53, 127
1, 209606, Note_on_c, 0, 48, 127
1, 209744, Note_off_c, 0, 48, 127
1, 209745, Note_on_c, 2, 50, 127
1, 209745, Note_on_c, 12, 71, 127
1, 209814, Note_off_c, 8, 80, 127
1, 209883, Note_off_c, 12, 71, 127
1, 209884, Note_on_c, 8, 80, 127
1, 210022, Note_off_c, 8, 80, 127
1, 210022, Note_off_c, 2, 50, 127
1, 210023, Note_on_c, 12, 59, 127
1, 210023, Note_on_c, 7, 79, 127
1, 210161, Note_off_c, 7, 79, 127
1, 210162, Note_on_c, 5, 77, 127
1, 210300, Note_off_c, 5, 77, 127
1, 210300, Note_off_c, 12, 59, 127
1, 210301, Note_on_c, 0, 60, 127
1, 210301, Note_on_c, 3, 75, 127
1, 210440, Note_on_c, 12, 71, 127
1, 210576, Note_off_c, 0, 60, 127
1, 210578, Note_off_c, 12, 71, 127
1, 210579, Note_on_c, 3, 63, 127
1, 210579, Note_on_c, 0, 72, 127
1, 210716, Note_off_c, 0, 72, 127
1, 210717, Note_on_c, 7, 67, 127
1, 210853, Note_off_c, 3, 63, 127
1, 210855, Note_off_c, 7, 67, 127
1, 210856, Note_on_c, 5, 53, 127
1, 210856, Note_on_c, 8, 68, 127
1, 210993, Note_off_c, 8, 68, 127
1, 210994, Note_on_c, 3, 63, 127
1, 211130, Note_off_c, 5, 53, 127
1, 211132, Note_off_c, 3, 63, 127
1, 211133, Note_on_c, 8, 56, 127
1, 211133, Note_on_c, 5, 65, 127
1, 211271, Note_off_c, 3, 75, 127
1, 211272, Note_on_c, 0, 72, 127
1, 211410, Note_off_c, 0, 72, 127
1, 211410, Note_off_c, 5, 65, 127
1, 211410, Note_off_c, 8, 56, 127
1, 211411, Note_on_c, 12, 47, 127
1, 211411, Note_on_c, 2, 74, 127
1, 211550, Note_on_c, 7, 67, 127
1, 211653, Note_off_c, 12, 47, 127
1, 211688, Note_off_c, 7, 67, 127
1, 211689, Note_on_c, 2, 50, 127
1, 211689, Note_on_c, 8, 68, 127
1, 211826, Note_off_c, 8, 68, 127
1, 211827, Note_on_c, 5, 65, 127
1, 211963, Note_off_c, 2, 50, 127
1, 211965, Note_off_c, 5, 65, 127
1, 211966, Note_on_c, 3, 39, 127
1, 211966, Note_on_c, 7, 67, 127
1, 212103, Note_off_c, 7, 67, 127
1, 212104, Note_on_c, 2, 62, 127
1, 212240, Note_off_c, 3, 39, 127
1, 212242, Note_off_c, 2, 62, 127
1, 212243, Note_on_c, 7, 43, 127
1, 212243, Note_on_c, 3, 63, 127
1, 212381, Note_off_c, 2, 74, 127
1, 212382, Note_on_c, 12, 71, 127
1, 212518, Note_off_c, 7, 43, 127
1, 212520, Note_off_c, 12, 71, 127
1, 212521, Note_on_c, 8, 44, 127
1, 212521, Note_on_c, 0, 72, 127
1, 212648, Note_off_c, 3, 63, 127
1, 212660, Note_on_c, 5, 65, 127
1, 212725, Note_off_c, 5, 65, 127
1, 212729, Note_on_c, 7, 67, 127
1, 212796, Note_off_c, 8, 44, 127
1, 212798, Note_off_c, 7, 67, 127
1, 212799, Note_on_c, 5, 41, 127
1, 212799, Note_on_c, 8, 68, 127
1, 212936, Note_off_c, 8, 68, 127
1, 212937, Note_on_c, 5, 65, 127
1, 213073, Note_off_c, 5, 41, 127
1, 213075, Note_off_c, 5, 65, 127
1, 213076, Note_on_c, 7, 43, 127
1, 213076, Note_on_c, 2, 62, 127
1, 213213, Note_off_c, 2, 62, 127
1, 213214, Note_on_c, 5, 65, 127
1, 213350, Note_off_c, 7, 43, 127
1, 213353, Note_on_c, 7, 55, 127
1, 213491, Note_off_c, 0, 72, 127
1, 213492, Note_on_c, 12, 71, 127
1, 213628, Note_off_c, 7, 55, 127
1, 213630, Note_off_c, 12, 71, 127
1, 213631, Note_on_c, 0, 48, 127
1, 213631, Note_on_c, 0, 72, 127
1, 213764, Note_off_c, 5, 65, 127
1, 213770, Note_on_c, 5, 65, 127
1, 213906, Note_off_c, 0, 48, 127
1, 213908, Note_off_c, 5, 65, 127
1, 213909, Note_on_c, 7, 55, 127
1, 213909, Note_on_c, 3, 63, 127
1, 214046, Note_off_c, 3, 63, 127
1, 214047, Note_on_c, 2, 62, 127
1, 214183, Note_off_c, 7, 55, 127
1, 214185, Note_off_c, 2, 62, 127
1, 214186, Note_on_c, 0, 60, 127
1, 214186, Note_on_c, 3, 63, 127
1, 214324, Note_off_c, 0, 72, 127
1, 214325, Note_on_c, 0, 72, 127
1, 214461, Note_off_c, 3, 63, 127
1, 214461, Note_off_c, 0, 60, 127
1, 214463, Note_off_c, 0, 72, 127
1, 214464, Note_on_c, 2, 62, 127
1, 214464, Note_on_c, 5, 65, 127
1, 214464, Note_on_c, 11, 70, 127
1, 214602, Note_off_c, 11, 70, 127
1, 214603, Note_on_c, 8, 68, 127
1, 214741, Note_off_c, 8, 68, 127
1, 214741, Note_off_c, 5, 65, 127
1, 214741, Note_off_c, 2, 62, 127
1, 214742, Note_on_c, 0, 60, 127
1, 214742, Note_on_c, 3, 63, 127
1, 214742, Note_on_c, 7, 67, 127
1, 214880, Note_off_c, 7, 67, 127
1, 214881, Note_on_c, 0, 72, 127
1, 214950, Note_off_c, 0, 72, 127
1, 214951, Note_on_c, 2, 74, 127
1, 215020, Note_off_c, 2, 74, 127
1, 215021, Note_on_c, 3, 75, 127
1, 215159, Note_off_c, 3, 75, 127
1, 215159, Note_off_c, 0, 60, 127
1, 215160, Note_on_c, 7, 55, 127
1, 215160, Note_on_c, 0, 72, 127
1, 215225, Note_off_c, 7, 55, 127
1, 215229, Note_on_c, 5, 53, 127
1, 215298, Note_off_c, 5, 53, 127
1, 215298, Note_off_c, 0, 72, 127
1, 215298, Note_off_c, 3, 63, 127
1, 215299, Note_on_c, 3, 51, 127
1, 215299, Note_on_c, 7, 67, 127
1, 215368, Note_off_c, 3, 51, 127
1, 215369, Note_on_c, 5, 53, 127
1, 215438, Note_off_c, 5, 53, 127
1, 215439, Note_on_c, 7, 55, 127
1, 215577, Note_off_c, 7, 55, 127
1, 215577, Note_off_c, 7, 67, 127
1, 215578, Note_on_c, 0, 48, 127
1, 215578, Note_on_c, 8, 68, 127
1, 215647, Note_off_c, 0, 48, 127
1, 215648, Note_on_c, 2, 50, 127
1, 215717, Note_off_c, 2, 50, 127
1, 215718, Note_on_c, 3, 51, 127
1, 215856, Note_off_c, 3, 51, 127
1, 215856, Note_off_c, 8, 68, 127
1, 215857, Note_on_c, 7, 43, 127
1, 215857, Note_on_c, 11, 70, 127
1, 215996, Note_on_c, 5, 65, 127
1, 216133, Note_off_c, 5, 65, 127
1, 216134, Note_on_c, 7, 67, 127
1, 216272, Note_off_c, 7, 67, 127
1, 216272, Note_off_c, 7, 43, 127
1, 216273, Note_on_c, 11, 46, 127
1, 216273, Note_on_c, 2, 62, 127
1, 216338, Note_off_c, 11, 46, 127
1, 216342, Note_on_c, 8, 44, 127
1, 216410, Note_off_c, 8, 44, 127
1, 216410, Note_off_c, 2, 62, 127
1, 216411, Note_on_c, 7, 43, 127
1, 216411, Note_on_c, 3, 63, 127
1, 216477, Note_off_c, 7, 43, 127
1, 216481, Note_on_c, 8, 44, 127
1, 216548, Note_off_c, 8, 44, 127
1, 216551, Note_on_c, 11, 46, 127
1, 216687, Note_off_c, 3, 63, 127
1, 216689, Note_off_c, 11, 46, 127
1, 216689, Note_off_c, 11, 70, 127
1, 216690, Note_on_c, 3, 39, 127
1, 216690, Note_on_c, 7, 79, 127
1, 216759, Note_off_c, 3, 39, 127
1, 216760, Note_on_c, 5, 41, 127
1, 216829, Note_off_c, 5, 41, 127
1, 216830, Note_on_c, 7, 43, 127
1, 216968, Note_off_c, 7, 43, 127
1, 216969, Note_on_c, 10, 33, 127
1, 217107, Note_off_c, 7, 79, 127
1, 217108, Note_on_c, 0, 72, 127
1, 217177, Note_off_c, 0, 72, 127
1, 217178, Note_on_c, 2, 74, 127
1, 217247, Note_off_c, 2, 74, 127
1, 217247, Note_off_c, 10, 33, 127
1, 217248, Note_on_c, 0, 36, 127
1, 217248, Note_on_c, 3, 75, 127
1, 217386, Note_off_c, 3, 75, 127
1, 217387, Note_on_c, 0, 72, 127
1, 217525, Note_off_c, 0, 72, 127
1, 217525, Note_off_c, 0, 36, 127
1, 217526, Note_on_c, 5, 41, 127
1, 217526, Note_on_c, 10, 69, 127
1, 217664, Note_off_c, 10, 69, 127
1, 217665, Note_on_c, 5, 77, 127
1, 217803, Note_off_c, 5, 77, 127
1, 217803, Note_off_c, 5, 41, 127
1, 217804, Note_on_c, 10, 45, 127
1, 217804, Note_on_c, 0, 72, 127
1, 217873, Note_off_c, 0, 72, 127
1, 217874, Note_on_c, 2, 74, 127
1, 217943, Note_off_c, 2, 74, 127
1, 217944, Note_on_c, 3, 75, 127
1, 218082, Note_off_c, 3, 75, 127
1, 218082, Note_off_c, 10, 45, 127
1, 218083, Note_on_c, 11, 46, 127
1, 218083, Note_on_c, 2, 74, 127
1, 218222, Note_on_c, 10, 69, 127
1, 218359, Note_off_c, 10, 69, 127
1, 218360, Note_on_c, 11, 70, 127
1, 218487, Note_off_c, 11, 46, 127
1, 218499, Note_on_c, 5, 65, 127
1, 218564, Note_off_c, 5, 65, 127
1, 218568, Note_on_c, 3, 63, 127
1, 218633, Note_off_c, 3, 63, 127
1, 218637, Note_on_c, 2, 62, 127
1, 218702, Note_off_c, 2, 62, 127
1, 218706, Note_on_c, 3, 63, 127
1, 218771, Note_off_c, 3, 63, 127
1, 218775, Note_on_c, 5, 65, 127
1, 218878, Note_off_c, 11, 70, 127
1, 218913, Note_off_c, 5, 65, 127
1, 218913, Note_off_c, 2, 74, 127
1, 218914, Note_on_c, 11, 58, 127
1, 218914, Note_on_c, 6, 66, 127
1, 218914, Note_on_c, 2, 74, 127
1, 218980, Note_off_c, 11, 58, 127
1, 218984, Note_on_c, 0, 60, 127
1, 219049, Note_off_c, 0, 60, 127
1, 219053, Note_on_c, 2, 62, 127
1, 219189, Note_off_c, 6, 66, 127
1, 219191, Note_off_c, 2, 62, 127
1, 219191, Note_off_c, 2, 74, 127
1, 219192, Note_on_c, 3, 51, 127
1, 219192, Note_on_c, 7, 67, 127
1, 219192, Note_on_c, 2, 74, 127
1, 219329, Note_off_c, 3, 51, 127
1, 219330, Note_on_c, 7, 55, 127
1, 219467, Note_off_c, 7, 55, 127
1, 219468, Note_off_c, 2, 74, 127
1, 219469, Note_on_c, 10, 57, 127
1, 219469, Note_on_c, 0, 72, 127
1, 219606, Note_off_c, 10, 57, 127
1, 219607, Note_on_c, 11, 58, 127
1, 219710, Note_off_c, 7, 67, 127
1, 219745, Note_off_c, 11, 58, 127
1, 219746, Note_on_c, 0, 60, 127
1, 219884, Note_off_c, 0, 60, 127
1, 219884, Note_off_c, 0, 72, 127
1, 219885, Note_on_c, 2, 62, 127
1, 219885, Note_on_c, 6, 78, 127
1, 220023, Note_off_c, 6, 78, 127
1, 220023, Note_off_c, 2, 62, 127
1, 220024, Note_on_c, 3, 63, 127
1, 220024, Note_on_c, 7, 79, 127
1, 220162, Note_off_c, 7, 79, 127
1, 220162, Note_off_c, 3, 63, 127
1, 220163, Note_on_c, 0, 60, 127
1, 220163, Note_on_c, 10, 81, 127
1, 220301, Note_off_c, 10, 81, 127
1, 220301, Note_off_c, 0, 60, 127
1, 220302, Note_on_c, 6, 54, 127
1, 220302, Note_on_c, 10, 69, 127
1, 220302, Note_on_c, 3, 75, 127
1, 220439, Note_off_c, 6, 54, 127
1, 220440, Note_on_c, 10, 57, 127
1, 220577, Note_off_c, 10, 57, 127
1, 220578, Note_off_c, 3, 75, 127
1, 220579, Note_on_c, 11, 58, 127
1, 220579, Note_on_c, 2, 74, 127
1, 220716, Note_off_c, 11, 58, 127
1, 220717, Note_on_c, 0, 60, 127
1, 220820, Note_off_c, 10, 69, 127
1, 220855, Note_off_c, 0, 60, 127
1, 220856, Note_on_c, 2, 62, 127
1, 220994, Note_off_c, 2, 62, 127
1, 220994, Note_off_c, 2, 74, 127
1, 220995, Note_on_c, 4, 64, 127
1, 220995, Note_on_c, 7, 79, 127
1, 221133, Note_off_c, 7, 79, 127
1, 221133, Note_off_c, 4, 64, 127
1, 221134, Note_on_c, 6, 66, 127
1, 221134, Note_on_c, 10, 81, 127
1, 221272, Note_off_c, 10, 81, 127
1, 221272, Note_off_c, 6, 66, 127
1, 221273, Note_on_c, 2, 62, 127
1, 221273, Note_on_c, 11, 82, 127
1, 221411, Note_off_c, 11, 82, 127
1, 221411, Note_off_c, 2, 62, 127
1, 221412, Note_on_c, 7, 55, 127
1, 221412, Note_on_c, 11, 70, 127
1, 221412, Note_on_c, 5, 77, 127
1, 221549, Note_off_c, 7, 55, 127
1, 221550, Note_on_c, 11, 58, 127
1, 221687, Note_off_c, 11, 58, 127
1, 221688, Note_off_c, 5, 77, 127
1, 221689, Note_on_c, 0, 60, 127
1, 221689, Note_on_c, 4, 76, 127
1, 221826, Note_off_c, 0, 60, 127
1, 221827, Note_on_c, 2, 62, 127
1, 221930, Note_off_c, 11, 70, 127
1, 221965, Note_off_c, 2, 62, 127
1, 221966, Note_on_c, 4, 64, 127
1, 222104, Note_off_c, 4, 64, 127
1, 222104, Note_off_c, 4, 76, 127
1, 222105, Note_on_c, 6, 66, 127
1, 222105, Note_on_c, 10, 81, 127
1, 222243, Note_off_c, 10, 81, 127
1, 222243, Note_off_c, 6, 66, 127
1, 222244, Note_on_c, 7, 67, 127
1, 222244, Note_on_c, 11, 82, 127
1, 222382, Note_off_c, 11, 82, 127
1, 222382, Note_off_c, 7, 67, 127
1, 222383, Note_on_c, 3, 63, 127
1, 222383, Note_on_c, 0, 84, 127
1, 222521, Note_off_c, 0, 84, 127
1, 222521, Note_off_c, 3, 63, 127
1, 222522, Note_on_c, 10, 57, 127
1, 222522, Note_on_c, 0, 72, 127
1, 222522, Note_on_c, 7, 79, 127
1, 222659, Note_off_c, 10, 57, 127
1, 222660, Note_on_c, 0, 60, 127
1, 222797, Note_off_c, 0, 60, 127
1, 222798, Note_off_c, 7, 79, 127
1, 222799, Note_on_c, 2, 62, 127
1, 222799, Note_on_c, 6, 78, 127
1, 222936, Note_off_c, 2, 62, 127
1, 222937, Note_on_c, 3, 63, 127
1, 223040, Note_off_c, 0, 72, 127
1, 223075, Note_off_c, 3, 63, 127
1, 223076, Note_on_c, 2, 62, 127
1, 223214, Note_off_c, 2, 62, 127
1, 223214, Note_off_c, 6, 78, 127
1, 223215, Note_on_c, 0, 60, 127
1, 223215, Note_on_c, 3, 75, 127
1, 223353, Note_off_c, 3, 75, 127
1, 223353, Note_off_c, 0, 60, 127
1, 223354, Note_on_c, 11, 58, 127
1, 223354, Note_on_c, 2, 74, 127
1, 223492, Note_off_c, 2, 74, 127
1, 223492, Note_off_c, 11, 58, 127
1, 223493, Note_on_c, 10, 57, 127
1, 223493, Note_on_c, 0, 72, 127
1, 223631, Note_off_c, 0, 72, 127
1, 223631, Note_off_c, 10, 57, 127
1, 223632, Note_on_c, 11, 58, 127
1, 223632, Note_on_c, 2, 74, 127
1, 223770, Note_off_c, 2, 74, 127
1, 223770, Note_off_c, 11, 58, 127
1, 223771, Note_on_c, 0, 60, 127
1, 223771, Note_on_c, 10, 69, 127
1, 223909, Note_off_c, 10, 69, 127
1, 223909, Note_off_c, 0, 60, 127
1, 223910, Note_on_c, 2, 62, 127
1, 223910, Note_on_c, 11, 70, 127
1, 224048, Note_off_c, 11, 70, 127
1, 224048, Note_off_c, 2, 62, 127
1, 224049, Note_on_c, 10, 57, 127
1, 224049, Note_on_c, 6, 66, 127
1, 224187, Note_off_c, 6, 66, 127
1, 224187, Note_off_c, 10, 57, 127
1, 224188, Note_on_c, 11, 58, 127
1, 224188, Note_on_c, 7, 67, 127
1, 224326, Note_off_c, 7, 67, 127
1, 224326, Note_off_c, 11, 58, 127
1, 224327, Note_on_c, 3, 63, 127
1, 224327, Note_on_c, 0, 72, 127
1, 224465, Note_off_c, 0, 72, 127
1, 224465, Note_off_c, 3, 63, 127
1, 224466, Note_on_c, 2, 62, 127
1, 224466, Note_on_c, 11, 70, 127
1, 224604, Note_off_c, 11, 70, 127
1, 224604, Note_off_c, 2, 62, 127
1, 224605, Note_on_c, 0, 60, 127
1, 224605, Note_on_c, 10, 69, 127
1, 224743, Note_off_c, 10, 69, 127
1, 224743, Note_off_c, 0, 60, 127
1, 224744, Note_on_c, 2, 62, 127
1, 224744, Note_on_c, 11, 70, 127
1, 224882, Note_off_c, 11, 70, 127
1, 224882, Note_off_c, 2, 62, 127
1, 224883, Note_on_c, 10, 57, 127
1, 224883, Note_on_c, 6, 66, 127
1, 225021, Note_off_c, 6, 66, 127
1, 225021, Note_off_c, 10, 57, 127
1, 225022, Note_on_c, 11, 58, 127
1, 225022, Note_on_c, 7, 67, 127
1, 225160, Note_off_c, 7, 67, 127
1, 225160, Note_off_c, 11, 58, 127
1, 225161, Note_on_c, 6, 54, 127
1, 225161, Note_on_c, 2, 62, 127
1, 225299, Note_off_c, 2, 62, 127
1, 225299, Note_off_c, 6, 54, 127
1, 225300, Note_on_c, 7, 55, 127
1, 225300, Note_on_c, 3, 63, 127
1, 225438, Note_off_c, 3, 63, 127
1, 225438, Note_off_c, 7, 55, 127
1, 225439, Note_on_c, 0, 60, 127
1, 225439, Note_on_c, 10, 69, 127
1, 225577, Note_off_c, 10, 69, 127
1, 225577, Note_off_c, 0, 60, 127
1, 225578, Note_on_c, 11, 58, 127
1, 225578, Note_on_c, 7, 67, 127
1, 225716, Note_off_c, 7, 67, 127
1, 225716, Note_off_c, 11, 58, 127
1, 225717, Note_on_c, 10, 57, 127
1, 225717, Note_on_c, 6, 66, 127
1, 225855, Note_off_c, 6, 66, 127
1, 225855, Note_off_c, 10, 57, 127
1, 225856, Note_on_c, 11, 58, 127
1, 225856, Note_on_c, 7, 67, 127
1, 225994, Note_off_c, 7, 67, 127
1, 225994, Note_off_c, 11, 58, 127
1, 225995, Note_on_c, 6, 54, 127
1, 225995, Note_on_c, 2, 62, 127
1, 226133, Note_off_c, 2, 62, 127
1, 226133, Note_off_c, 6, 54, 127
1, 226134, Note_on_c, 7, 55, 127
1, 226134, Note_on_c, 3, 63, 127
1, 226272, Note_off_c, 3, 63, 127
1, 226272, Note_off_c, 7, 55, 127
1, 226273, Note_on_c, 2, 50, 127
1, 226273, Note_on_c, 12, 59, 127
1, 226411, Note_off_c, 12, 59, 127
1, 226411, Note_off_c, 2, 50, 127
1, 226412, Note_on_c, 3, 51, 127
1, 226412, Note_on_c, 0, 60, 127
1, 226481, Note_off_c, 3, 51, 127
1, 226482, Note_on_c, 5, 53, 127
1, 226551, Note_off_c, 5, 53, 127
1, 226551, Note_off_c, 0, 60, 127
1, 226552, Note_on_c, 7, 55, 127
1, 226552, Note_on_c, 5, 65, 127
1, 226690, Note_off_c, 5, 65, 127
1, 226690, Note_off_c, 7, 55, 127
1, 226691, Note_on_c, 0, 48, 127
1, 226691, Note_on_c, 3, 63, 127
1, 226760, Note_off_c, 0, 48, 127
1, 226761, Note_on_c, 2, 50, 127
1, 226830, Note_off_c, 2, 50, 127
1, 226830, Note_off_c, 3, 63, 127
1, 226831, Note_on_c, 3, 51, 127
1, 226831, Note_on_c, 2, 62, 127
1, 226969, Note_off_c, 2, 62, 127
1, 226969, Note_off_c, 3, 51, 127
1, 226970, Note_on_c, 6, 42, 127
1, 226970, Note_on_c, 3, 63, 127
1, 227108, Note_off_c, 3, 63, 127
1, 227109, Note_on_c, 0, 60, 127
1, 227247, Note_off_c, 0, 60, 127
1, 227248, Note_on_c, 2, 62, 127
1, 227386, Note_off_c, 2, 62, 127
1, 227387, Note_on_c, 6, 66, 127
1, 227525, Note_off_c, 6, 66, 127
1, 227526, Note_on_c, 10, 69, 127
1, 227593, Note_off_c, 6, 42, 127
1, 227665, Note_off_c, 10, 69, 127
1, 227666, Note_on_c, 3, 63, 127
1, 227804, Note_off_c, 3, 63, 127
1, 227805, Note_on_c, 2, 38, 127
1, 227805, Note_on_c, 2, 62, 127
1, 227943, Note_off_c, 2, 62, 127
1, 227944, Note_on_c, 0, 60, 127
1, 228082, Note_off_c, 0, 60, 127
1, 228082, Note_off_c, 2, 38, 127
1, 228083, Note_on_c, 7, 43, 127
1, 228083, Note_on_c, 11, 58, 127
1, 228221, Note_off_c, 11, 58, 127
1, 228222, Note_on_c, 2, 62, 127
1, 228360, Note_off_c, 2, 62, 127
1, 228360, Note_off_c, 7, 43, 127
1, 228361, Note_on_c, 11, 58, 127
1, 228361, Note_on_c, 7, 67, 127
1, 228499, Note_off_c, 7, 67, 127
1, 228500, Note_on_c, 11, 70, 127
1, 228638, Note_off_c, 11, 58, 127
1, 228639, Note_on_c, 3, 51, 127
1, 228777, Note_off_c, 11, 70, 127
1, 228778, Note_on_c, 6, 66, 127
1, 228916, Note_off_c, 6, 66, 127
1, 228916, Note_off_c, 3, 51, 127
1, 228917, Note_on_c, 2, 50, 127
1, 228917, Note_on_c, 7, 67, 127
1, 229055, Note_off_c, 7, 67, 127
1, 229056, Note_on_c, 11, 58, 127
1, 229194, Note_off_c, 11, 58, 127
1, 229194, Note_off_c, 2, 50, 127
1, 229195, Note_on_c, 10, 45, 127
1, 229195, Note_on_c, 0, 60, 127
1, 229333, Note_off_c, 0, 60, 127
1, 229334, Note_on_c, 3, 63, 127
1, 229472, Note_off_c, 3, 63, 127
1, 229472, Note_off_c, 10, 45, 127
1, 229473, Note_on_c, 0, 60, 127
1, 229473, Note_on_c, 7, 67, 127
1, 229611, Note_off_c, 7, 67, 127
1, 229612, Note_on_c, 11, 70, 127
1, 229750, Note_off_c, 0, 60, 127
1, 229751, Note_on_c, 3, 51, 127
1, 229889, Note_off_c, 11, 70, 127
1, 229890, Note_on_c, 6, 66, 127
1, 230028, Note_off_c, 6, 66, 127
1, 230028, Note_off_c, 3, 51, 127
1, 230029, Note_on_c, 2, 50, 127
1, 230029, Note_on_c, 7, 67, 127
1, 230167, Note_off_c, 7, 67, 127
1, 230168, Note_on_c, 0, 60, 127
1, 230306, Note_off_c, 0, 60, 127
1, 230306, Note_off_c, 2, 50, 127
1, 230307, Note_on_c, 11, 46, 127
1, 230307, Note_on_c, 2, 62, 127
1, 230445, Note_off_c, 2, 62, 127
1, 230446, Note_on_c, 6, 66, 127
1, 230584, Note_off_c, 6, 66, 127
1, 230584, Note_off_c, 11, 46, 127
1, 230585, Note_on_c, 2, 62, 127
1, 230585, Note_on_c, 7, 67, 127
1, 230723, Note_off_c, 7, 67, 127
1, 230724, Note_on_c, 11, 70, 127
1, 230862, Note_off_c, 2, 62, 127
1, 230863, Note_on_c, 3, 51, 127
1, 231001, Note_off_c, 11, 70, 127
1, 231002, Note_on_c, 6, 66, 127
1, 231140, Note_off_c, 6, 66, 127
1, 231140, Note_off_c, 3, 51, 127
1, 231141, Note_on_c, 2, 50, 127
1, 231141, Note_on_c, 7, 67, 127
1, 231279, Note_off_c, 7, 67, 127
1, 231280, Note_on_c, 2, 62, 127
1, 231418, Note_off_c, 2, 62, 127
1, 231418, Note_off_c, 2, 50, 127
1, 231419, Note_on_c, 0, 48, 127
1, 231419, Note_on_c, 3, 63, 127
1, 231557, Note_off_c, 3, 63, 127
1, 231558, Note_on_c, 6, 66, 127
1, 231696, Note_off_c, 6, 66, 127
1, 231696, Note_off_c, 0, 48, 127
1, 231697, Note_on_c, 3, 63, 127
1, 231697, Note_on_c, 7, 67, 127
1, 231835, Note_off_c, 7, 67, 127
1, 231836, Note_on_c, 11, 70, 127
1, 231974, Note_off_c, 3, 63, 127
1, 231975, Note_on_c, 3, 51, 127
1, 232113, Note_off_c, 11, 70, 127
1, 232114, Note_on_c, 6, 66, 127
1, 232252, Note_off_c, 6, 66, 127
1, 232252, Note_off_c, 3, 51, 127
1, 232253, Note_on_c, 2, 50, 127
1, 232253, Note_on_c, 7, 67, 127
1, 232391, Note_off_c, 7, 67, 127
1, 232392, Note_on_c, 11, 70, 127
1, 232530, Note_off_c, 11, 70, 127
1, 232530, Note_off_c, 2, 50, 127
1, 232531, Note_on_c, 1, 49, 127
1, 232531, Note_on_c, 1, 37, 127
1, 232531, Note_on_c, 4, 76, 127
1, 232669, Note_off_c, 4, 76, 127
1, 232670, Note_on_c, 10, 69, 127
1, 232808, Note_off_c, 10, 69, 127
1, 232809, Note_on_c, 11, 70, 127
1, 232947, Note_off_c, 11, 70, 127
1, 232948, Note_on_c, 6, 66, 127
1, 233086, Note_off_c, 6, 66, 127
1, 233087, Note_on_c, 7, 67, 127
1, 233225, Note_off_c, 7, 67, 127
1, 233226, Note_on_c, 11, 70, 127
1, 233364, Note_off_c, 11, 70, 127
1, 233364, Note_off_c, 1, 37, 127
1, 233364, Note_off_c, 1, 49, 127
1, 233365, Note_on_c, 1, 49, 127
1, 233365, Note_on_c, 10, 69, 127
1, 233503, Note_off_c, 10, 69, 127
1, 233504, Note_on_c, 7, 67, 127
1, 233642, Note_off_c, 7, 67, 127
1, 233642, Note_off_c, 1, 49, 127
1, 233643, Note_on_c, 2, 50, 127
1, 233643, Note_on_c, 6, 66, 127
1, 233781, Note_off_c, 6, 66, 127
1, 233782, Note_on_c, 2, 62, 127
1, 233920, Note_off_c, 2, 62, 127
1, 233920, Note_off_c, 2, 50, 127
1, 233921, Note_on_c, 10, 45, 127
1, 233921, Note_on_c, 3, 63, 127
1, 234059, Note_off_c, 3, 63, 127
1, 234060, Note_on_c, 11, 58, 127
1, 234198, Note_off_c, 11, 58, 127
1, 234198, Note_off_c, 10, 45, 127
1, 234199, Note_on_c, 6, 42, 127
1, 234199, Note_on_c, 0, 60, 127
1, 234337, Note_off_c, 0, 60, 127
1, 234338, Note_on_c, 3, 63, 127
1, 234476, Note_off_c, 3, 63, 127
1, 234476, Note_off_c, 6, 42, 127
1, 234477, Note_on_c, 2, 38, 127
1, 234477, Note_on_c, 2, 62, 127
1, 234615, Note_off_c, 2, 62, 127
1, 234616, Note_on_c, 0, 60, 127
1, 234754, Note_off_c, 0, 60, 127
1, 234754, Note_off_c, 2, 38, 127
1, 234755, Note_on_c, 7, 43, 127
1, 234755, Note_on_c, 11, 58, 127
1, 234893, Note_off_c, 7, 43, 127
1, 234894, Note_on_c, 10, 45, 127
1, 235032, Note_off_c, 10, 45, 127
1, 235032, Note_off_c, 11, 58, 127
1, 235033, Note_on_c, 11, 46, 127
1, 235033, Note_on_c, 7, 67, 127
1, 235033, Note_on_c, 2, 62, 127
1, 235033, Note_on_c, 2, 74, 127
1, 235152, Note_off_c, 11, 46, 127
1, 235172, Note_on_c, 0, 48, 127
1, 235275, Note_off_c, 2, 62, 127
1, 235275, Note_off_c, 7, 67, 127
1, 235310, Note_off_c, 0, 48, 127
1, 235310, Note_off_c, 2, 74, 127
1, 235311, Note_on_c, 2, 50, 127
1, 235311, Note_on_c, 7, 67, 127
1, 235311, Note_on_c, 2, 62, 127
1, 235311, Note_on_c, 11, 70, 127
1, 235588, Note_off_c, 11, 70, 127
1, 235588, Note_off_c, 2, 62, 127
1, 235588, Note_off_c, 7, 67, 127
1, 235588, Note_off_c, 2, 50, 127
1, 235589, Note_on_c, 2, 38, 127
1, 235589, Note_on_c, 6, 66, 127
1, 235589, Note_on_c, 0, 60, 127
1, 235589, Note_on_c, 10, 69, 127
1, 235727, Note_off_c, 10, 69, 127
1, 235728, Note_on_c, 7, 67, 127
1, 235866, Note_off_c, 7, 67, 127
1, 235866, Note_off_c, 0, 60, 127
1, 235866, Note_off_c, 6, 66, 127
1, 235866, Note_off_c, 2, 38, 127
1, 235867, Note_on_c, 7, 43, 127
1, 235867, Note_on_c, 7, 67, 127
1, 236006, Note_on_c, 2, 62, 127
1, 236145, Note_on_c, 12, 59, 127
1, 236284, Note_on_c, 2, 50, 127
1, 236403, Note_off_c, 2, 50, 127
1, 236423, Note_on_c, 7, 55, 127
1, 236552, Note_off_c, 2, 62, 127
1, 236554, Note_off_c, 7, 67, 127
1, 236562, Note_on_c, 3, 75, 127
1, 236700, Note_off_c, 3, 75, 127
1, 236701, Note_on_c, 2, 74, 127
1, 236839, Note_off_c, 2, 74, 127
1, 236840, Note_on_c, 0, 72, 127
1, 236943, Note_off_c, 12, 59, 127
1, 236943, Note_off_c, 7, 43, 127
1, 236978, Note_off_c, 0, 72, 127
1, 236978, Note_off_c, 7, 55, 127
1, 236979, Note_on_c, 7, 43, 127
1, 236979, Note_on_c, 2, 74, 127
1, 237117, Note_off_c, 2, 74, 127
1, 237118, Note_on_c, 10, 69, 127
1, 237256, Note_off_c, 10, 69, 127
1, 237256, Note_off_c, 7, 43, 127
1, 237257, Note_on_c, 7, 55, 127
1, 237257, Note_on_c, 12, 71, 127
1, 237395, Note_off_c, 12, 71, 127
1, 237396, Note_on_c, 7, 67, 127
1, 237534, Note_off_c, 7, 67, 127
1, 237535, Note_on_c, 8, 68, 127
1, 237673, Note_off_c, 8, 68, 127
1, 237673, Note_off_c, 7, 55, 127
1, 237674, Note_on_c, 8, 56, 127
1, 237674, Note_on_c, 5, 65, 127
1, 237812, Note_off_c, 5, 65, 127
1, 237812, Note_off_c, 8, 56, 127
1, 237813, Note_on_c, 7, 55, 127
1, 237813, Note_on_c, 3, 63, 127
1, 237951, Note_off_c, 3, 63, 127
1, 237951, Note_off_c, 7, 55, 127
1, 237952, Note_on_c, 5, 53, 127
1, 237952, Note_on_c, 2, 62, 127
1, 238090, Note_off_c, 2, 62, 127
1, 238090, Note_off_c, 5, 53, 127
1, 238091, Note_on_c, 7, 55, 127
1, 238091, Note_on_c, 3, 63, 127
1, 238229, Note_off_c, 3, 63, 127
1, 238229, Note_off_c, 7, 55, 127
1, 238230, Note_on_c, 2, 50, 127
1, 238230, Note_on_c, 5, 65, 127
1, 238299, Note_off_c, 5, 65, 127
1, 238300, Note_on_c, 7, 67, 127
1, 238369, Note_off_c, 7, 67, 127
1, 238369, Note_off_c, 2, 50, 127
1, 238370, Note_on_c, 3, 51, 127
1, 238370, Note_on_c, 0, 60, 127
1, 238508, Note_off_c, 3, 51, 127
1, 238509, Note_on_c, 12, 47, 127
1, 238647, Note_off_c, 12, 47, 127
1, 238648, Note_on_c, 0, 48, 127
1, 238786, Note_off_c, 0, 48, 127
1, 238786, Note_off_c, 0, 60, 127
1, 238787, Note_on_c, 5, 41, 127
1, 238787, Note_on_c, 8, 80, 127
1, 238925, Note_off_c, 8, 80, 127
1, 238925, Note_off_c, 5, 41, 127
1, 238926, Note_on_c, 3, 39, 127
1, 238926, Note_on_c, 7, 79, 127
1, 239064, Note_off_c, 7, 79, 127
1, 239064, Note_off_c, 3, 39, 127
1, 239065, Note_on_c, 2, 38, 127
1, 239065, Note_on_c, 5, 77, 127
1, 239203, Note_off_c, 5, 77, 127
1, 239203, Note_off_c, 2, 38, 127
1, 239204, Note_on_c, 0, 36, 127
1, 239204, Note_on_c, 7, 79, 127
1, 239342, Note_off_c, 7, 79, 127
1, 239343, Note_on_c, 2, 74, 127
1, 239481, Note_off_c, 2, 74, 127
1, 239481, Note_off_c, 0, 36, 127
1, 239482, Note_on_c, 0, 48, 127
1, 239482, Note_on_c, 4, 76, 127
1, 239620, Note_off_c, 4, 76, 127
1, 239621, Note_on_c, 0, 72, 127
1, 239759, Note_off_c, 0, 72, 127
1, 239760, Note_on_c, 1, 73, 127
1, 239898, Note_off_c, 1, 73, 127
1, 239898, Note_off_c, 0, 48, 127
1, 239899, Note_on_c, 1, 61, 127
1, 239899, Note_on_c, 11, 70, 127
1, 240037, Note_off_c, 11, 70, 127
1, 240037, Note_off_c, 1, 61, 127
1, 240038, Note_on_c, 0, 60, 127
1, 240038, Note_on_c, 8, 68, 127
1, 240176, Note_off_c, 8, 68, 127
1, 240176, Note_off_c, 0, 60, 127
1, 240177, Note_on_c, 11, 58, 127
1, 240177, Note_on_c, 7, 67, 127
1, 240315, Note_off_c, 7, 67, 127
1, 240315, Note_off_c, 11, 58, 127
1, 240316, Note_on_c, 0, 60, 127
1, 240316, Note_on_c, 8, 68, 127
1, 240454, Note_off_c, 8, 68, 127
1, 240454, Note_off_c, 0, 60, 127
1, 240455, Note_on_c, 7, 55, 127
1, 240455, Note_on_c, 11, 70, 127
1, 240524, Note_off_c, 11, 70, 127
1, 240525, Note_on_c, 0, 72, 127
1, 240594, Note_off_c, 0, 72, 127
1, 240594, Note_off_c, 7, 55, 127
1, 240595, Note_on_c, 8, 56, 127
1, 240595, Note_on_c, 5, 65, 127
1, 240733, Note_off_c, 8, 56, 127
1, 240734, Note_on_c, 4, 52, 127
1, 240872, Note_off_c, 4, 52, 127
1, 240873, Note_on_c, 5, 53, 127
1, 241011, Note_off_c, 5, 53, 127
1, 241011, Note_off_c, 5, 65, 127
1, 241012, Note_on_c, 11, 46, 127
1, 241012, Note_on_c, 0, 60, 127
1, 241150, Note_off_c, 0, 60, 127
1, 241150, Note_off_c, 11, 46, 127
1, 241151, Note_on_c, 8, 44, 127
1, 241151, Note_on_c, 5, 65, 127
1, 241289, Note_off_c, 5, 65, 127
1, 241289, Note_off_c, 8, 44, 127
1, 241290, Note_on_c, 7, 43, 127
1, 241290, Note_on_c, 7, 67, 127
1, 241428, Note_off_c, 7, 67, 127
1, 241428, Note_off_c, 7, 43, 127
1, 241429, Note_on_c, 5, 41, 127
1, 241429, Note_on_c, 8, 68, 127
1, 241567, Note_off_c, 8, 68, 127
1, 241567, Note_off_c, 5, 41, 127
1, 241568, Note_on_c, 7, 43, 127
1, 241568, Note_on_c, 4, 64, 127
1, 241706, Note_off_c, 4, 64, 127
1, 241706, Note_off_c, 7, 43, 127
1, 241707, Note_on_c, 8, 44, 127
1, 241707, Note_on_c, 5, 65, 127
1, 241845, Note_off_c, 5, 65, 127
1, 241846, Note_on_c, 0, 60, 127
1, 241984, Note_off_c, 0, 60, 127
1, 241984, Note_off_c, 8, 44, 127
1, 241985, Note_on_c, 11, 34, 127
1, 241985, Note_on_c, 1, 61, 127
1, 242123, Note_off_c, 1, 61, 127
1, 242123, Note_off_c, 11, 34, 127
1, 242124, Note_on_c, 8, 44, 127
1, 242124, Note_on_c, 0, 72, 127
1, 242262, Note_off_c, 0, 72, 127
1, 242262, Note_off_c, 8, 44, 127
1, 242263, Note_on_c, 7, 43, 127
1, 242263, Note_on_c, 11, 70, 127
1, 242401, Note_off_c, 11, 70, 127
1, 242401, Note_off_c, 7, 43, 127
1, 242402, Note_on_c, 5, 41, 127
1, 242402, Note_on_c, 8, 68, 127
1, 242540, Note_off_c, 8, 68, 127
1, 242540, Note_off_c, 5, 41, 127
1, 242541, Note_on_c, 7, 43, 127
1, 242541, Note_on_c, 11, 70, 127
1, 242679, Note_off_c, 11, 70, 127
1, 242679, Note_off_c, 7, 43, 127
1, 242680, Note_on_c, 8, 44, 127
1, 242680, Note_on_c, 5, 65, 127
1, 242818, Note_off_c, 5, 65, 127
1, 242818, Note_off_c, 8, 44, 127
1, 242819, Note_on_c, 11, 46, 127
1, 242819, Note_on_c, 7, 67, 127
1, 242957, Note_off_c, 7, 67, 127
1, 242958, Note_on_c, 2, 62, 127
1, 243096, Note_off_c, 2, 62, 127
1, 243096, Note_off_c, 11, 46, 127
1, 243097, Note_on_c, 0, 36, 127
1, 243097, Note_on_c, 4, 64, 127
1, 243235, Note_off_c, 4, 64, 127
1, 243235, Note_off_c, 0, 36, 127
1, 243236, Note_on_c, 11, 46, 127
1, 243236, Note_on_c, 1, 73, 127
1, 243374, Note_off_c, 1, 73, 127
1, 243374, Note_off_c, 11, 46, 127
1, 243375, Note_on_c, 8, 44, 127
1, 243375, Note_on_c, 0, 72, 127
1, 243513, Note_off_c, 0, 72, 127
1, 243513, Note_off_c, 8, 44, 127
1, 243514, Note_on_c, 7, 43, 127
1, 243514, Note_on_c, 11, 70, 127
1, 243652, Note_off_c, 11, 70, 127
1, 243652, Note_off_c, 7, 43, 127
1, 243653, Note_on_c, 8, 44, 127
1, 243653, Note_on_c, 0, 72, 127
1, 243791, Note_off_c, 0, 72, 127
1, 243791, Note_off_c, 8, 44, 127
1, 243792, Note_on_c, 11, 46, 127
1, 243792, Note_on_c, 7, 67, 127
1, 243930, Note_off_c, 7, 67, 127
1, 243930, Note_off_c, 11, 46, 127
1, 243931, Note_on_c, 0, 48, 127
1, 243931, Note_on_c, 8, 68, 127
1, 244069, Note_off_c, 8, 68, 127
1, 244070, Note_on_c, 4, 64, 127
1, 244208, Note_off_c, 4, 64, 127
1, 244208, Note_off_c, 0, 48, 127
1, 244209, Note_on_c, 1, 37, 127
1, 244209, Note_on_c, 5, 65, 127
1, 244347, Note_off_c, 5, 65, 127
1, 244347, Note_off_c, 1, 37, 127
1, 244348, Note_on_c, 0, 48, 127
1, 244348, Note_on_c, 3, 75, 127
1, 244486, Note_off_c, 3, 75, 127
1, 244486, Note_off_c, 0, 48, 127
1, 244487, Note_on_c, 11, 46, 127
1, 244487, Note_on_c, 1, 73, 127
1, 244625, Note_off_c, 1, 73, 127
1, 244625, Note_off_c, 11, 46, 127
1, 244626, Note_on_c, 8, 44, 127
1, 244626, Note_on_c, 0, 72, 127
1, 244764, Note_off_c, 0, 72, 127
1, 244764, Note_off_c, 8, 44, 127
1, 244765, Note_on_c, 11, 46, 127
1, 244765, Note_on_c, 1, 73, 127
1, 244903, Note_off_c, 1, 73, 127
1, 244903, Note_off_c, 11, 46, 127
1, 244904, Note_on_c, 0, 48, 127
1, 244904, Note_on_c, 10, 69, 127
1, 245042, Note_off_c, 10, 69, 127
1, 245042, Note_off_c, 0, 48, 127
1, 245043, Note_on_c, 1, 49, 127
1, 245043, Note_on_c, 11, 70, 127
1, 245181, Note_off_c, 11, 70, 127
1, 245182, Note_on_c, 7, 67, 127
1, 245320, Note_off_c, 7, 67, 127
1, 245320, Note_off_c, 1, 49, 127
1, 245321, Note_on_c, 4, 40, 127
1, 245321, Note_on_c, 7, 79, 127
1, 245459, Note_off_c, 4, 40, 127
1, 245460, Note_on_c, 1, 49, 127
1, 245598, Note_off_c, 1, 49, 127
1, 245599, Note_on_c, 0, 48, 127
1, 245737, Note_off_c, 0, 48, 127
1, 245738, Note_on_c, 11, 46, 127
1, 245876, Note_off_c, 11, 46, 127
1, 245877, Note_on_c, 8, 44, 127
1, 246015, Note_off_c, 7, 79, 127
1, 246016, Note_on_c, 0, 72, 127
1, 246154, Note_off_c, 0, 72, 127
1, 246154, Note_off_c, 8, 44, 127
1, 246155, Note_on_c, 0, 48, 127
1, 246155, Note_on_c, 5, 77, 127
1, 246293, Note_off_c, 5, 77, 127
1, 246294, Note_on_c, 4, 76, 127
1, 246432, Note_off_c, 4, 76, 127
1, 246432, Note_off_c, 0, 48, 127
1, 246433, Note_on_c, 5, 41, 127
1, 246433, Note_on_c, 8, 80, 127
1, 246571, Note_off_c, 8, 80, 127
1, 246572, Note_on_c, 7, 79, 127
1, 246710, Note_off_c, 7, 79, 127
1, 246710, Note_off_c, 5, 41, 127
1, 246711, Note_on_c, 8, 44, 127
1, 246711, Note_on_c, 5, 77, 127
1, 246849, Note_off_c, 5, 77, 127
1, 246850, Note_on_c, 4, 76, 127
1, 246988, Note_off_c, 4, 76, 127
1, 246988, Note_off_c, 8, 44, 127
1, 246989, Note_on_c, 1, 49, 127
1, 246989, Note_on_c, 5, 77, 127
1, 247127, Note_off_c, 5, 77, 127
1, 247128, Note_on_c, 0, 72, 127
1, 247266, Note_off_c, 0, 72, 127
1, 247266, Note_off_c, 1, 49, 127
1, 247267, Note_on_c, 5, 53, 127
1, 247267, Note_on_c, 3, 75, 127
1, 247405, Note_off_c, 3, 75, 127
1, 247406, Note_on_c, 1, 73, 127
1, 247544, Note_off_c, 1, 73, 127
1, 247544, Note_off_c, 5, 53, 127
1, 247545, Note_on_c, 7, 43, 127
1, 247545, Note_on_c, 11, 82, 127
1, 247683, Note_off_c, 11, 82, 127
1, 247684, Note_on_c, 8, 80, 127
1, 247822, Note_off_c, 8, 80, 127
1, 247822, Note_off_c, 7, 43, 127
1, 247823, Note_on_c, 11, 46, 127
1, 247823, Note_on_c, 7, 79, 127
1, 247961, Note_off_c, 7, 79, 127
1, 247962, Note_on_c, 5, 77, 127
1, 248100, Note_off_c, 5, 77, 127
1, 248101, Note_on_c, 4, 76, 127
1, 248239, Note_off_c, 4, 76, 127
1, 248239, Note_off_c, 11, 46, 127
1, 248240, Note_on_c, 5, 77, 127
1, 248309, Note_off_c, 5, 77, 127
1, 248310, Note_on_c, 7, 79, 127
1, 248379, Note_off_c, 7, 79, 127
1, 248380, Note_on_c, 8, 44, 127
1, 248380, Note_on_c, 0, 72, 127
1, 248518, Note_off_c, 0, 72, 127
1, 248518, Note_off_c, 8, 44, 127
1, 248519, Note_on_c, 11, 46, 127
1, 248519, Note_on_c, 11, 70, 127
1, 248657, Note_off_c, 11, 70, 127
1, 248657, Note_off_c, 11, 46, 127
1, 248658, Note_on_c, 0, 48, 127
1, 248658, Note_on_c, 8, 68, 127
1, 248796, Note_off_c, 8, 68, 127
1, 248797, Note_on_c, 5, 77, 127
1, 248935, Note_off_c, 5, 77, 127
1, 248935, Note_off_c, 0, 48, 127
1, 248936, Note_on_c, 0, 36, 127
1, 248936, Note_on_c, 7, 67, 127
1, 249074, Note_off_c, 7, 67, 127
1, 249075, Note_on_c, 4, 76, 127
1, 249213, Note_off_c, 4, 76, 127
1, 249213, Note_off_c, 0, 36, 127
1, 249214, Note_on_c, 5, 41, 127
1, 249214, Note_on_c, 5, 77, 127
1, 249352, Note_off_c, 5, 41, 127
1, 249353, Note_on_c, 0, 48, 127
1, 249491, Note_off_c, 0, 48, 127
1, 249492, Note_on_c, 5, 53, 127
1, 249630, Note_off_c, 5, 53, 127
1, 249631, Note_on_c, 7, 55, 127
1, 249769, Note_off_c, 7, 55, 127
1, 249770, Note_on_c, 8, 56, 127
1, 249839, Note_off_c, 5, 77, 127
1, 249840, Note_on_c, 7, 79, 127
1, 249909, Note_off_c, 7, 79, 127
1, 249909, Note_off_c, 8, 56, 127
1, 249910, Note_on_c, 5, 53, 127
1, 249910, Note_on_c, 5, 77, 127
1, 249979, Note_off_c, 5, 77, 127
1, 249980, Note_on_c, 4, 76, 127
1, 250049, Note_off_c, 4, 76, 127
1, 250049, Note_off_c, 5, 53, 127
1, 250050, Note_on_c, 8, 56, 127
1, 250050, Note_on_c, 5, 77, 127
1, 250188, Note_off_c, 5, 77, 127
1, 250188, Note_off_c, 8, 56, 127
1, 250189, Note_on_c, 0, 60, 127
1, 250189, Note_on_c, 7, 79, 127
1, 250327, Note_off_c, 7, 79, 127
1, 250327, Note_off_c, 0, 60, 127
1, 250328, Note_on_c, 5, 65, 127
1, 250328, Note_on_c, 8, 80, 127
1, 250466, Note_off_c, 8, 80, 127
1, 250467, Note_on_c, 4, 76, 127
1, 250605, Note_off_c, 4, 76, 127
1, 250605, Note_off_c, 5, 65, 127
1, 250606, Note_on_c, 8, 56, 127
1, 250606, Note_on_c, 5, 77, 127
1, 250744, Note_off_c, 5, 77, 127
1, 250745, Note_on_c, 0, 72, 127
1, 250883, Note_off_c, 0, 72, 127
1, 250883, Note_off_c, 8, 56, 127
1, 250884, Note_on_c, 0, 60, 127
1, 250884, Note_on_c, 8, 68, 127
1, 251022, Note_off_c, 8, 68, 127
1, 251023, Note_on_c, 5, 65, 127
1, 251161, Note_off_c, 5, 65, 127
1, 251161, Note_off_c, 0, 60, 127
1, 251162, Note_on_c, 5, 53, 127
1, 251162, Note_on_c, 3, 75, 127
1, 251300, Note_off_c, 3, 75, 127
1, 251301, Note_on_c, 0, 72, 127
1, 251439, Note_off_c, 0, 72, 127
1, 251439, Note_off_c, 5, 53, 127
1, 251440, Note_on_c, 11, 58, 127
1, 251440, Note_on_c, 2, 74, 127
1, 251578, Note_off_c, 2, 74, 127
1, 251579, Note_on_c, 10, 69, 127
1, 251717, Note_off_c, 10, 69, 127
1, 251717, Note_off_c, 11, 58, 127
1, 251718, Note_on_c, 5, 65, 127
1, 251718, Note_on_c, 11, 70, 127
1, 251856, Note_off_c, 11, 70, 127
1, 251857, Note_on_c, 2, 74, 127
1, 251995, Note_off_c, 2, 74, 127
1, 251995, Note_off_c, 5, 65, 127
1, 251996, Note_on_c, 2, 62, 127
1, 251996, Note_on_c, 5, 77, 127
1, 252134, Note_off_c, 5, 77, 127
1, 252135, Note_on_c, 8, 80, 127
1, 252273, Note_off_c, 8, 80, 127
1, 252273, Note_off_c, 2, 62, 127
1, 252274, Note_on_c, 11, 58, 127
1, 252274, Note_on_c, 7, 79, 127
1, 252412, Note_off_c, 7, 79, 127
1, 252413, Note_on_c, 5, 77, 127
1, 252551, Note_off_c, 5, 77, 127
1, 252551, Note_off_c, 11, 58, 127
1, 252552, Note_on_c, 3, 63, 127
1, 252552, Note_on_c, 7, 79, 127
1, 252690, Note_off_c, 7, 79, 127
1, 252691, Note_on_c, 2, 74, 127
1, 252829, Note_off_c, 2, 74, 127
1, 252829, Note_off_c, 3, 63, 127
1, 252830, Note_on_c, 7, 55, 127
1, 252830, Note_on_c, 3, 75, 127
1, 252968, Note_off_c, 3, 75, 127
1, 252969, Note_on_c, 11, 70, 127
1, 253107, Note_off_c, 11, 70, 127
1, 253107, Note_off_c, 7, 55, 127
1, 253108, Note_on_c, 11, 58, 127
1, 253108, Note_on_c, 7, 67, 127
1, 253246, Note_off_c, 7, 67, 127
1, 253247, Note_on_c, 3, 63, 127
1, 253385, Note_off_c, 3, 63, 127
1, 253385, Note_off_c, 11, 58, 127
1, 253386, Note_on_c, 3, 51, 127
1, 253386, Note_on_c, 2, 74, 127
1, 253524, Note_off_c, 2, 74, 127
1, 253525, Note_on_c, 12, 71, 127
1, 253663, Note_off_c, 12, 71, 127
1, 253663, Note_off_c, 3, 51, 127
1, 253664, Note_on_c, 8, 56, 127
1, 253664, Note_on_c, 0, 72, 127
1, 253802, Note_off_c, 0, 72, 127
1, 253803, Note_on_c, 7, 67, 127
1, 253941, Note_off_c, 7, 67, 127
1, 253941, Note_off_c, 8, 56, 127
1, 253942, Note_on_c, 3, 63, 127
1, 253942, Note_on_c, 8, 68, 127
1, 254080, Note_off_c, 8, 68, 127
1, 254081, Note_on_c, 0, 72, 127
1, 254219, Note_off_c, 0, 72, 127
1, 254219, Note_off_c, 3, 63, 127
1, 254220, Note_on_c, 0, 60, 127
1, 254220, Note_on_c, 3, 75, 127
1, 254358, Note_off_c, 3, 75, 127
1, 254359, Note_on_c, 7, 79, 127
1, 254497, Note_off_c, 7, 79, 127
1, 254497, Note_off_c, 0, 60, 127
1, 254498, Note_on_c, 8, 56, 127
1, 254498, Note_on_c, 5, 77, 127
1, 254636, Note_off_c, 5, 77, 127
1, 254637, Note_on_c, 3, 75, 127
1, 254775, Note_off_c, 3, 75, 127
1, 254775, Note_off_c, 8, 56, 127
1, 254776, Note_on_c, 2, 62, 127
1, 254776, Note_on_c, 5, 77, 127
1, 254914, Note_off_c, 5, 77, 127
1, 254915, Note_on_c, 0, 72, 127
1, 255053, Note_off_c, 0, 72, 127
1, 255053, Note_off_c, 2, 62, 127
1, 255054, Note_on_c, 5, 53, 127
1, 255054, Note_on_c, 2, 74, 127
1, 255192, Note_off_c, 2, 74, 127
1, 255193, Note_on_c, 8, 68, 127
1, 255331, Note_off_c, 8, 68, 127
1, 255331, Note_off_c, 5, 53, 127
1, 255332, Note_on_c, 8, 56, 127
1, 255332, Note_on_c, 5, 65, 127
1, 255470, Note_off_c, 5, 65, 127
1, 255471, Note_on_c, 2, 62, 127
1, 255609, Note_off_c, 2, 62, 127
1, 255609, Note_off_c, 8, 56, 127
1, 255610, Note_on_c, 2, 50, 127
1, 255610, Note_on_c, 0, 72, 127
1, 255748, Note_off_c, 0, 72, 127
1, 255749, Note_on_c, 10, 69, 127
1, 255887, Note_off_c, 10, 69, 127
1, 255887, Note_off_c, 2, 50, 127
1, 255888, Note_on_c, 7, 55, 127
1, 255888, Note_on_c, 12, 71, 127
1, 256026, Note_off_c, 12, 71, 127
1, 256027, Note_on_c, 6, 66, 127
1, 256165, Note_off_c, 6, 66, 127
1, 256165, Note_off_c, 7, 55, 127
1, 256166, Note_on_c, 2, 62, 127
1, 256166, Note_on_c, 7, 67, 127
1, 256304, Note_off_c, 7, 67, 127
1, 256305, Note_on_c, 12, 71, 127
1, 256443, Note_off_c, 12, 71, 127
1, 256443, Note_off_c, 2, 62, 127
1, 256444, Note_on_c, 12, 59, 127
1, 256444, Note_on_c, 2, 74, 127
1, 256582, Note_off_c, 2, 74, 127
1, 256583, Note_on_c, 5, 77, 127
1, 256721, Note_off_c, 5, 77, 127
1, 256721, Note_off_c, 12, 59, 127
1, 256722, Note_on_c, 7, 55, 127
1, 256722, Note_on_c, 3, 75, 127
1, 256860, Note_off_c, 3, 75, 127
1, 256861, Note_on_c, 2, 74, 127
1, 256999, Note_off_c, 2, 74, 127
1, 256999, Note_off_c, 7, 55, 127
1, 257000, Note_on_c, 0, 60, 127
1, 257000, Note_on_c, 3, 75, 127
1, 257138, Note_off_c, 3, 75, 127
1, 257139, Note_on_c, 12, 71, 127
1, 257277, Note_off_c, 12, 71, 127
1, 257277, Note_off_c, 0, 60, 127
1, 257278, Note_on_c, 3, 51, 127
1, 257278, Note_on_c, 0, 72, 127
1, 257416, Note_off_c, 0, 72, 127
1, 257417, Note_on_c, 8, 68, 127
1, 257555, Note_off_c, 8, 68, 127
1, 257555, Note_off_c, 3, 51, 127
1, 257556, Note_on_c, 8, 56, 127
1, 257556, Note_on_c, 7, 67, 127
1, 257694, Note_off_c, 7, 67, 127
1, 257695, Note_on_c, 5, 65, 127
1, 257833, Note_off_c, 5, 65, 127
1, 257833, Note_off_c, 8, 56, 127
1, 257834, Note_on_c, 5, 53, 127
1, 257834, Note_on_c, 3, 75, 127
1, 257972, Note_off_c, 3, 75, 127
1, 257973, Note_on_c, 2, 74, 127
1, 258111, Note_off_c, 2, 74, 127
1, 258111, Note_off_c, 5, 53, 127
1, 258112, Note_on_c, 7, 55, 127
1, 258112, Note_on_c, 0, 72, 127
1, 258250, Note_off_c, 0, 72, 127
1, 258251, Note_on_c, 12, 71, 127
1, 258389, Note_off_c, 12, 71, 127
1, 258389, Note_off_c, 7, 55, 127
1, 258390, Note_on_c, 7, 43, 127
1, 258390, Note_on_c, 0, 72, 127
1, 258528, Note_off_c, 0, 72, 127
1, 258529, Note_on_c, 2, 74, 127
1, 258667, Note_off_c, 2, 74, 127
1, 258668, Note_on_c, 7, 67, 127
1, 258806, Note_off_c, 7, 43, 127
1, 258807, Note_on_c, 8, 56, 127
1, 258945, Note_off_c, 8, 56, 127
1, 258945, Note_off_c, 7, 67, 127
1, 258946, Note_on_c, 7, 55, 127
1, 258946, Note_on_c, 2, 74, 127
1, 259084, Note_off_c, 7, 55, 127
1, 259085, Note_on_c, 5, 53, 127
1, 259223, Note_off_c, 5, 53, 127
1, 259223, Note_off_c, 2, 74, 127
1, 259224, Note_on_c, 7, 55, 127
1, 259224, Note_on_c, 3, 75, 127
1, 259362, Note_off_c, 3, 75, 127
1, 259362, Note_off_c, 7, 55, 127
1, 259363, Note_on_c, 2, 50, 127
1, 259363, Note_on_c, 7, 79, 127
1, 259501, Note_off_c, 7, 79, 127
1, 259501, Note_off_c, 2, 50, 127
1, 259502, Note_on_c, 3, 51, 127
1, 259502, Note_on_c, 0, 84, 127
1, 259640, Note_off_c, 0, 84, 127
1, 259640, Note_off_c, 3, 51, 127
1, 259641, Note_on_c, 12, 47, 127
1, 259641, Note_on_c, 7, 79, 127
1, 259779, Note_off_c, 7, 79, 127
1, 259779, Note_off_c, 12, 47, 127
1, 259780, Note_on_c, 0, 48, 127
1, 259780, Note_on_c, 3, 75, 127
1, 259918, Note_off_c, 3, 75, 127
1, 259918, Note_off_c, 0, 48, 127
1, 259919, Note_on_c, 5, 53, 127
1, 259919, Note_on_c, 2, 74, 127
1, 260057, Note_off_c, 2, 74, 127
1, 260057, Note_off_c, 5, 53, 127
1, 260058, Note_on_c, 3, 51, 127
1, 260058, Note_on_c, 0, 72, 127
1, 260196, Note_off_c, 0, 72, 127
1, 260196, Note_off_c, 3, 51, 127
1, 260197, Note_on_c, 2, 50, 127
1, 260197, Note_on_c, 12, 71, 127
1, 260335, Note_off_c, 12, 71, 127
1, 260335, Note_off_c, 2, 50, 127
1, 260336, Note_on_c, 3, 51, 127
1, 260336, Note_on_c, 0, 72, 127
1, 260474, Note_off_c, 0, 72, 127
1, 260474, Note_off_c, 3, 51, 127
1, 260475, Note_on_c, 12, 47, 127
1, 260475, Note_on_c, 3, 75, 127
1, 260613, Note_off_c, 3, 75, 127
1, 260613, Note_off_c, 12, 47, 127
1, 260614, Note_on_c, 0, 48, 127
1, 260614, Note_on_c, 7, 79, 127
1, 260752, Note_off_c, 0, 48, 127
1, 260753, Note_on_c, 7, 43, 127
1, 260891, Note_off_c, 7, 43, 127
1, 260892, Note_on_c, 8, 44, 127
1, 260961, Note_off_c, 7, 79, 127
1, 261030, Note_off_c, 8, 44, 127
1, 261031, Note_on_c, 1, 49, 127
1, 261031, Note_on_c, 11, 70, 127
1, 261169, Note_off_c, 11, 70, 127
1, 261169, Note_off_c, 1, 49, 127
1, 261170, Note_on_c, 0, 48, 127
1, 261170, Note_on_c, 8, 68, 127
1, 261308, Note_off_c, 8, 68, 127
1, 261308, Note_off_c, 0, 48, 127
1, 261309, Note_on_c, 11, 46, 127
1, 261309, Note_on_c, 7, 67, 127
1, 261447, Note_off_c, 7, 67, 127
1, 261447, Note_off_c, 11, 46, 127
1, 261448, Note_on_c, 0, 48, 127
1, 261448, Note_on_c, 8, 68, 127
1, 261586, Note_off_c, 8, 68, 127
1, 261586, Note_off_c, 0, 48, 127
1, 261587, Note_on_c, 7, 43, 127
1, 261587, Note_on_c, 0, 72, 127
1, 261725, Note_off_c, 0, 72, 127
1, 261725, Note_off_c, 7, 43, 127
1, 261726, Note_on_c, 8, 44, 127
1, 261726, Note_on_c, 5, 77, 127
1, 261864, Note_off_c, 5, 77, 127
1, 261864, Note_off_c, 8, 44, 127
1, 261865, Note_on_c, 4, 40, 127
1, 261865, Note_on_c, 0, 72, 127
1, 262003, Note_off_c, 0, 72, 127
1, 262003, Note_off_c, 4, 40, 127
1, 262004, Note_on_c, 5, 41, 127
1, 262004, Note_on_c, 8, 68, 127
1, 262142, Note_off_c, 8, 68, 127
1, 262142, Note_off_c, 5, 41, 127
1, 262143, Note_on_c, 11, 46, 127
1, 262143, Note_on_c, 7, 67, 127
1, 262281, Note_off_c, 7, 67, 127
1, 262281, Note_off_c, 11, 46, 127
1, 262282, Note_on_c, 8, 44, 127
1, 262282, Note_on_c, 5, 65, 127
1, 262420, Note_off_c, 5, 65, 127
1, 262420, Note_off_c, 8, 44, 127
1, 262421, Note_on_c, 7, 43, 127
1, 262421, Note_on_c, 4, 64, 127
1, 262559, Note_off_c, 4, 64, 127
1, 262559, Note_off_c, 7, 43, 127
1, 262560, Note_on_c, 8, 44, 127
1, 262560, Note_on_c, 5, 65, 127
1, 262698, Note_off_c, 5, 65, 127
1, 262698, Note_off_c, 8, 44, 127
1, 262699, Note_on_c, 5, 41, 127
1, 262699, Note_on_c, 12, 71, 127
1, 262837, Note_off_c, 12, 71, 127
1, 262837, Note_off_c, 5, 41, 127
1, 262838, Note_on_c, 7, 43, 127
1, 262838, Note_on_c, 2, 74, 127
1, 262976, Note_off_c, 7, 43, 127
1, 262977, Note_on_c, 12, 47, 127
1, 263115, Note_off_c, 12, 47, 127
1, 263116, Note_on_c, 2, 50, 127
1, 263185, Note_off_c, 2, 74, 127
1, 263254, Note_off_c, 2, 50, 127
1, 263255, Note_on_c, 8, 44, 127
1, 263255, Note_on_c, 5, 65, 127
1, 263393, Note_off_c, 5, 65, 127
1, 263393, Note_off_c, 8, 44, 127
1, 263394, Note_on_c, 7, 43, 127
1, 263394, Note_on_c, 3, 63, 127
1, 263532, Note_off_c, 3, 63, 127
1, 263532, Note_off_c, 7, 43, 127
1, 263533, Note_on_c, 5, 41, 127
1, 263533, Note_on_c, 2, 62, 127
1, 263671, Note_off_c, 2, 62, 127
1, 263671, Note_off_c, 5, 41, 127
1, 263672, Note_on_c, 3, 39, 127
1, 263672, Note_on_c, 0, 60, 127
1, 263811, Note_off_c, 3, 39, 127
1, 263812, Note_on_c, 7, 43, 127
1, 263951, Note_off_c, 7, 43, 127
1, 263951, Note_off_c, 0, 60, 127
1, 263952, Note_on_c, 0, 48, 127
1, 263952, Note_on_c, 3, 75, 127
1, 264091, Note_off_c, 0, 48, 127
1, 264092, Note_on_c, 3, 51, 127
1, 264231, Note_off_c, 3, 75, 127
1, 264232, Note_on_c, 8, 68, 127
1, 264371, Note_off_c, 3, 51, 127
1, 264372, Note_on_c, 12, 47, 127
1, 264511, Note_off_c, 12, 47, 127
1, 264511, Note_off_c, 8, 68, 127
1, 264512, Note_on_c, 0, 48, 127
1, 264512, Note_on_c, 7, 67, 127
1, 264651, Note_off_c, 0, 48, 127
1, 264652, Note_on_c, 3, 39, 127
1, 264791, Note_off_c, 3, 39, 127
1, 264791, Note_off_c, 7, 67, 127
1, 264792, Note_on_c, 5, 41, 127
1, 264792, Note_on_c, 2, 62, 127
1, 264932, Note_off_c, 5, 41, 127
1, 264933, Note_on_c, 8, 44, 127
1, 265073, Note_off_c, 8, 44, 127
1, 265073, Note_off_c, 2, 62, 127
1, 265074, Note_on_c, 0, 48, 127
1, 265074, Note_on_c, 5, 77, 127
1, 265214, Note_off_c, 0, 48, 127
1, 265215, Note_on_c, 3, 51, 127
1, 265355, Note_off_c, 5, 77, 127
1, 265356, Note_on_c, 8, 68, 127
1, 265496, Note_off_c, 3, 51, 127
1, 265497, Note_on_c, 12, 47, 127
1, 265637, Note_off_c, 12, 47, 127
1, 265637, Note_off_c, 8, 68, 127
1, 265638, Note_on_c, 0, 48, 127
1, 265638, Note_on_c, 7, 67, 127
1, 265778, Note_off_c, 0, 48, 127
1, 265779, Note_on_c, 5, 41, 127
1, 265919, Note_off_c, 5, 41, 127
1, 265919, Note_off_c, 7, 67, 127
1, 265920, Note_on_c, 7, 43, 127
1, 265920, Note_on_c, 3, 63, 127
1, 266061, Note_off_c, 7, 43, 127
1, 266062, Note_on_c, 12, 47, 127
1, 266203, Note_off_c, 12, 47, 127
1, 266203, Note_off_c, 3, 63, 127
1, 266204, Note_on_c, 0, 48, 127
1, 266204, Note_on_c, 7, 79, 127
1, 266345, Note_off_c, 0, 48, 127
1, 266346, Note_on_c, 3, 51, 127
1, 266487, Note_off_c, 7, 79, 127
1, 266488, Note_on_c, 8, 68, 127
1, 266629, Note_off_c, 3, 51, 127
1, 266630, Note_on_c, 12, 47, 127
1, 266771, Note_off_c, 12, 47, 127
1, 266771, Note_off_c, 8, 68, 127
1, 266772, Note_on_c, 0, 48, 127
1, 266772, Note_on_c, 7, 67, 127
1, 266913, Note_off_c, 0, 48, 127
1, 266914, Note_on_c, 7, 43, 127
1, 267055, Note_off_c, 7, 43, 127
1, 267055, Note_off_c, 7, 67, 127
1, 267056, Note_on_c, 8, 44, 127
1, 267056, Note_on_c, 5, 65, 127
1, 267198, Note_off_c, 8, 44, 127
1, 267199, Note_on_c, 12, 47, 127
1, 267341, Note_off_c, 12, 47, 127
1, 267341, Note_off_c, 5, 65, 127
1, 267342, Note_on_c, 0, 48, 127
1, 267342, Note_on_c, 8, 80, 127
1, 267484, Note_off_c, 8, 80, 127
1, 267484, Note_off_c, 0, 48, 127
1, 267485, Note_on_c, 3, 51, 127
1, 267485, Note_on_c, 7, 79, 127
1, 267627, Note_off_c, 7, 79, 127
1, 267628, Note_on_c, 8, 80, 127
1, 267770, Note_off_c, 8, 80, 127
1, 267770, Note_off_c, 3, 51, 127
1, 267771, Note_on_c, 12, 47, 127
1, 267771, Note_on_c, 7, 79, 127
1, 267913, Note_off_c, 7, 79, 127
1, 267913, Note_off_c, 12, 47, 127
1, 267914, Note_on_c, 0, 48, 127
1, 267914, Note_on_c, 6, 78, 127
1, 268056, Note_off_c, 6, 78, 127
1, 268056, Note_off_c, 0, 48, 127
1, 268057, Note_on_c, 3, 51, 127
1, 268057, Note_on_c, 7, 79, 127
1, 268199, Note_off_c, 3, 51, 127
1, 268200, Note_on_c, 10, 57, 127
1, 268272, Note_on_c, 6, 78, 127
1, 268279, Note_off_c, 7, 79, 127
1, 268344, Note_off_c, 10, 57, 127
1, 268345, Note_on_c, 2, 50, 127
1, 268345, Note_on_c, 7, 79, 127
1, 268368, Note_off_c, 6, 78, 127
1, 268417, Note_on_c, 6, 78, 127
1, 268440, Note_off_c, 7, 79, 127
1, 268488, Note_off_c, 2, 50, 127
1, 268489, Note_on_c, 3, 51, 127
1, 268489, Note_on_c, 7, 79, 127
1, 268512, Note_off_c, 6, 78, 127
1, 268561, Note_on_c, 6, 78, 127
1, 268584, Note_off_c, 7, 79, 127
1, 268632, Note_off_c, 3, 51, 127
1, 268633, Note_on_c, 12, 47, 127
1, 268633, Note_on_c, 7, 79, 127
1, 268656, Note_off_c, 6, 78, 127
1, 268705, Note_on_c, 6, 78, 127
1, 268728, Note_off_c, 7, 79, 127
1, 268776, Note_off_c, 12, 47, 127
1, 268777, Note_on_c, 0, 48, 127
1, 268777, Note_on_c, 7, 79, 127
1, 268800, Note_off_c, 6, 78, 127
1, 268849, Note_on_c, 6, 78, 127
1, 268872, Note_off_c, 7, 79, 127
1, 268920, Note_off_c, 0, 48, 127
1, 268921, Note_on_c, 3, 51, 127
1, 268921, Note_on_c, 7, 79, 127
1, 268944, Note_off_c, 6, 78, 127
1, 268993, Note_on_c, 6, 78, 127
1, 269016, Note_off_c, 7, 79, 127
1, 269064, Note_off_c, 3, 51, 127
1, 269065, Note_on_c, 2, 50, 127
1, 269065, Note_on_c, 7, 79, 127
1, 269107, Note_off_c, 6, 78, 127
1, 269137, Note_on_c, 6, 78, 127
1, 269160, Note_off_c, 7, 79, 127
1, 269208, Note_off_c, 2, 50, 127
1, 269209, Note_on_c, 0, 48, 127
1, 269209, Note_on_c, 4, 76, 127
1, 269251, Note_off_c, 6, 78, 127
1, 269281, Note_on_c, 6, 78, 127
1, 269299, Note_off_c, 4, 76, 127
1, 269353, Note_off_c, 6, 78, 127
1, 269353, Note_off_c, 0, 48, 127
1, 269354, Note_on_c, 12, 47, 127
1, 269354, Note_on_c, 7, 79, 127
1, 269505, Note_off_c, 7, 79, 127
1, 269505, Note_off_c, 12, 47, 127
1, 269506, Note_on_c, 7, 43, 127
1, 269506, Note_on_c, 2, 74, 127
1, 269657, Note_off_c, 2, 74, 127
1, 269657, Note_off_c, 7, 43, 127
1, 269658, Note_on_c, 8, 44, 127
1, 269658, Note_on_c, 5, 77, 127
1, 269809, Note_off_c, 5, 77, 127
1, 269809, Note_off_c, 8, 44, 127
1, 269810, Note_on_c, 3, 39, 127
1, 269810, Note_on_c, 3, 75, 127
1, 269961, Note_off_c, 3, 75, 127
1, 269961, Note_off_c, 3, 39, 127
1, 269962, Note_on_c, 5, 41, 127
1, 269962, Note_on_c, 2, 74, 127
1, 270113, Note_off_c, 2, 74, 127
1, 270113, Note_off_c, 5, 41, 127
1, 270114, Note_on_c, 8, 44, 127
1, 270114, Note_on_c, 0, 72, 127
1, 270265, Note_off_c, 0, 72, 127
1, 270265, Note_off_c, 8, 44, 127
1, 270266, Note_on_c, 7, 43, 127
1, 270266, Note_on_c, 12, 71, 127
1, 270417, Note_off_c, 12, 71, 127
1, 270417, Note_off_c, 7, 43, 127
1, 270418, Note_on_c, 5, 41, 127
1, 270418, Note_on_c, 10, 69, 127
1, 270569, Note_off_c, 10, 69, 127
1, 270569, Note_off_c, 5, 41, 127
1, 270570, Note_on_c, 3, 39, 127
1, 270570, Note_on_c, 7, 67, 127
1, 270734, Note_off_c, 3, 39, 127
1, 270735, Note_on_c, 7, 43, 127
1, 270899, Note_off_c, 7, 43, 127
1, 270899, Note_off_c, 7, 67, 127
1, 270914, Note_on_c, 7, 67, 127
1, 270914, Note_on_c, 0, 72, 127
1, 270914, Note_on_c, 3, 75, 127
1, 270914, Note_on_c, 0, 48, 127
1, 270914, Note_on_c, 7, 79, 127
1, 271055, Note_off_c, 0, 48, 127
1, 271079, Note_on_c, 3, 51, 127
1, 271201, Note_off_c, 3, 75, 127
1, 271201, Note_off_c, 0, 72, 127
1, 271201, Note_off_c, 7, 67, 127
1, 271243, Note_off_c, 3, 51, 127
1, 271243, Note_off_c, 7, 79, 127
1, 271258, Note_on_c, 7, 55, 127
1, 271258, Note_on_c, 0, 72, 127
1, 271258, Note_on_c, 7, 67, 127
1, 271258, Note_on_c, 3, 75, 127
1, 271586, Note_off_c, 3, 75, 127
1, 271586, Note_off_c, 7, 67, 127
1, 271586, Note_off_c, 0, 72, 127
1, 271586, Note_off_c, 7, 55, 127
1, 271601, Note_on_c, 5, 65, 127
1, 271601, Note_on_c, 12, 71, 127
1, 271601, Note_on_c, 7, 43, 127
1, 271601, Note_on_c, 2, 74, 127
1, 271798, Note_off_c, 2, 74, 127
1, 271843, Note_on_c, 0, 72, 127
1, 271931, Note_off_c, 12, 71, 127
1, 271952, Note_off_c, 7, 43, 127
1, 271952, Note_off_c, 5, 65, 127
1, 272005, Note_off_c, 0, 72, 127
1, 272056, Note_on_c, 0, 48, 127
1, 272056, Note_on_c, 0, 36, 127
1, 272057, Note_on_c, 3, 63, 127
1, 272058, Note_on_c, 7, 67, 127
1, 272059, Note_on_c, 0, 72, 127
1, 274459, Note_off_c, 0, 72, 127
1, 274595, Note_on_c, 0, 72, 127
1, 274656, Note_off_c, 0, 36, 127
1, 274656, Note_off_c, 0, 48, 127
1, 274657, Note_off_c, 3, 63, 127
1, 274658, Note_off_c, 7, 67, 127
1, 274910, Note_off_c, 0, 72, 127
1, 274929, Note_on_c, 0, 72, 127
1, 274929, Note_on_c, 3, 63, 127
1, 274929, Note_on_c, 7, 67, 127
1, 274929, Note_on_c, 0, 60, 127
1, 275289, Note_on_c, 0, 48, 127
1, 275378, Note_off_c, 7, 67, 127
1, 275378, Note_off_c, 3, 63, 127
1, 275378, Note_off_c, 0, 72, 127
1, 275379, Note_on_c, 7, 67, 127
1, 275468, Note_off_c, 7, 67, 127
1, 275469, Note_on_c, 10, 69, 127
1, 275558, Note_off_c, 10, 69, 127
1, 275559, Note_on_c, 12, 71, 127
1, 275648, Note_off_c, 12, 71, 127
1, 275649, Note_on_c, 0, 72, 127
1, 275649, Note_on_c, 3, 51, 127
1, 275828, Note_off_c, 0, 72, 127
1, 275829, Note_on_c, 2, 74, 127
1, 276007, Note_off_c, 0, 60, 127
1, 276008, Note_off_c, 2, 74, 127
1, 276008, Note_off_c, 3, 51, 127
1, 276009, Note_on_c, 3, 75, 127
1, 276009, Note_on_c, 7, 55, 127
1, 276188, Note_off_c, 3, 75, 127
1, 276189, Note_on_c, 0, 72, 127
1, 276368, Note_off_c, 0, 72, 127
1, 276368, Note_off_c, 7, 55, 127
1, 276369, Note_on_c, 8, 80, 127
1, 276369, Note_on_c, 0, 60, 127
1, 276549, Note_on_c, 5, 77, 127
1, 276728, Note_off_c, 0, 60, 127
1, 276729, Note_on_c, 2, 74, 127
1, 276729, Note_on_c, 12, 59, 127
1, 276908, Note_off_c, 8, 80, 127
1, 276909, Note_on_c, 8, 80, 127
1, 277088, Note_off_c, 8, 80, 127
1, 277088, Note_off_c, 12, 59, 127
1, 277088, Note_off_c, 0, 48, 127
1, 277089, Note_on_c, 7, 79, 127
1, 277089, Note_on_c, 0, 60, 127
1, 277089, Note_on_c, 0, 48, 127
1, 277187, Note_off_c, 5, 77, 127
1, 277269, Note_off_c, 2, 74, 127
1, 277270, Note_on_c, 5, 77, 127
1, 277449, Note_off_c, 5, 77, 127
1, 277450, Note_on_c, 3, 75, 127
1, 277539, Note_off_c, 0, 48, 127
1, 277539, Note_off_c, 0, 60, 127
1, 277540, Note_on_c, 7, 55, 127
1, 277629, Note_off_c, 7, 55, 127
1, 277629, Note_off_c, 3, 75, 127
1, 277630, Note_on_c, 2, 74, 127
1, 277630, Note_on_c, 10, 57, 127
1, 277719, Note_off_c, 10, 57, 127
1, 277720, Note_on_c, 12, 59, 127
1, 277809, Note_off_c, 12, 59, 127
1, 277809, Note_off_c, 2, 74, 127
1, 277810, Note_on_c, 3, 75, 127
1, 277810, Note_on_c, 0, 60, 127
1, 277989, Note_off_c, 0, 60, 127
1, 277990, Note_on_c, 2, 62, 127
1, 278169, Note_off_c, 2, 62, 127
1, 278169, Note_off_c, 3, 75, 127
1, 278170, Note_on_c, 0, 72, 127
1, 278170, Note_on_c, 3, 63, 127
1, 278349, Note_off_c, 3, 63, 127
1, 278350, Note_on_c, 0, 60, 127
1, 278529, Note_off_c, 0, 60, 127
1, 278530, Note_on_c, 8, 68, 127
1, 278709, Note_off_c, 0, 72, 127
1, 278710, Note_on_c, 0, 72, 127
1, 278889, Note_off_c, 7, 79, 127
1, 278890, Note_on_c, 5, 77, 127
1, 279069, Note_off_c, 0, 72, 127
1, 279069, Note_off_c, 8, 68, 127
1, 279070, Note_on_c, 2, 74, 127
1, 279070, Note_on_c, 8, 68, 127
1, 279249, Note_off_c, 8, 68, 127
1, 279249, Note_off_c, 2, 74, 127
1, 279250, Note_on_c, 12, 71, 127
1, 279250, Note_on_c, 7, 67, 127
1, 279339, Note_off_c, 5, 77, 127
1, 279340, Note_on_c, 8, 80, 127
1, 279429, Note_off_c, 8, 80, 127
1, 279430, Note_on_c, 7, 79, 127
1, 279519, Note_off_c, 7, 79, 127
1, 279520, Note_on_c, 5, 77, 127
1, 279609, Note_off_c, 5, 77, 127
1, 279610, Note_on_c, 7, 79, 127
1, 279789, Note_off_c, 7, 79, 127
1, 279790, Note_on_c, 2, 74, 127
1, 279969, Note_off_c, 2, 74, 127
1, 279970, Note_on_c, 3, 75, 127
1, 280149, Note_off_c, 12, 71, 127
1, 280150, Note_on_c, 12, 71, 127
1, 280329, Note_off_c, 12, 71, 127
1, 280330, Note_on_c, 0, 72, 127
1, 280509, Note_off_c, 7, 67, 127
1, 280510, Note_on_c, 8, 68, 127
1, 280689, Note_off_c, 8, 68, 127
1, 280690, Note_on_c, 6, 66, 127
1, 280869, Note_off_c, 3, 75, 127
1, 280870, Note_on_c, 3, 75, 127
1, 281049, Note_off_c, 3, 75, 127
1, 281049, Note_off_c, 0, 72, 127
1, 281050, Note_on_c, 2, 74, 127
1, 281050, Note_on_c, 10, 69, 127
1, 281229, Note_off_c, 2, 74, 127
1, 281230, Note_on_c, 0, 72, 127
1, 281406, Note_off_c, 10, 69, 127
1, 281409, Note_off_c, 0, 72, 127
1, 281409, Note_off_c, 6, 66, 127
1, 281410, Note_on_c, 0, 72, 127
1, 281500, Note_on_c, 7, 67, 127
1, 281530, Note_on_c, 12, 71, 127
1, 281545, Note_off_c, 0, 72, 127
1, 281589, Note_off_c, 12, 71, 127
1, 281589, Note_off_c, 7, 67, 127
1, 281590, Note_on_c, 0, 72, 127
1, 281590, Note_on_c, 5, 65, 127
1, 281649, Note_off_c, 0, 72, 127
1, 281650, Note_on_c, 12, 71, 127
1, 281679, Note_off_c, 5, 65, 127
1, 281680, Note_on_c, 3, 63, 127
1, 281709, Note_off_c, 12, 71, 127
1, 281710, Note_on_c, 0, 72, 127
1, 281769, Note_off_c, 0, 72, 127
1, 281769, Note_off_c, 3, 63, 127
1, 281770, Note_on_c, 12, 71, 127
1, 281770, Note_on_c, 5, 65, 127
1, 281947, Note_off_c, 12, 71, 127
1, 281949, Note_off_c, 5, 65, 127
1, 281950, Note_on_c, 0, 72, 127
1, 281950, Note_on_c, 2, 62, 127
1, 282128, Note_off_c, 2, 62, 127
1, 282129, Note_off_c, 0, 72, 127
1, 282130, Note_on_c, 2, 74, 127
1, 282130, Note_on_c, 12, 59, 127
1, 282310, Note_on_c, 7, 67, 127
1, 282489, Note_off_c, 7, 67, 127
1, 282490, Note_on_c, 2, 62, 127
1, 282669, Note_off_c, 2, 62, 127
1, 282670, Note_on_c, 5, 65, 127
1, 282768, Note_off_c, 12, 59, 127
1, 282850, Note_off_c, 5, 65, 127
1, 282851, Note_on_c, 3, 63, 127
1, 282851, Note_on_c, 0, 60, 127
1, 283030, Note_off_c, 2, 74, 127
1, 283031, Note_on_c, 0, 72, 127
1, 283210, Note_off_c, 0, 72, 127
1, 283210, Note_off_c, 0, 60, 127
1, 283210, Note_off_c, 3, 63, 127
1, 283211, Note_on_c, 3, 75, 127
1, 283211, Note_on_c, 7, 67, 127
1, 283211, Note_on_c, 11, 58, 127
1, 283390, Note_off_c, 3, 75, 127
1, 283391, Note_on_c, 7, 79, 127
1, 283570, Note_off_c, 7, 79, 127
1, 283570, Note_off_c, 11, 58, 127
1, 283571, Note_on_c, 0, 84, 127
1, 283571, Note_on_c, 8, 56, 127
1, 283660, Note_off_c, 0, 84, 127
1, 283661, Note_on_c, 11, 82, 127
1, 283750, Note_off_c, 11, 82, 127
1, 283751, Note_on_c, 8, 80, 127
1, 283751, Note_on_c, 0, 60, 127
1, 283840, Note_off_c, 8, 80, 127
1, 283841, Note_on_c, 7, 79, 127
1, 283930, Note_off_c, 7, 79, 127
1, 283930, Note_off_c, 8, 56, 127
1, 283930, Note_off_c, 7, 67, 127
1, 283931, Note_on_c, 8, 80, 127
1, 283931, Note_on_c, 2, 50, 127
1, 284110, Note_off_c, 8, 80, 127
1, 284110, Note_off_c, 0, 60, 127
1, 284111, Note_on_c, 5, 77, 127
1, 284111, Note_on_c, 12, 59, 127
1, 284289, Note_off_c, 12, 59, 127
1, 284290, Note_off_c, 5, 77, 127
1, 284290, Note_off_c, 2, 50, 127
1, 284291, Note_on_c, 7, 79, 127
1, 284291, Note_on_c, 3, 51, 127
1, 284471, Note_on_c, 2, 74, 127
1, 284471, Note_on_c, 7, 55, 127
1, 284650, Note_off_c, 7, 55, 127
1, 284650, Note_off_c, 2, 74, 127
1, 284651, Note_on_c, 3, 75, 127
1, 284651, Note_on_c, 0, 60, 127
1, 284830, Note_off_c, 3, 75, 127
1, 284830, Note_off_c, 3, 51, 127
1, 284831, Note_on_c, 0, 72, 127
1, 284831, Note_on_c, 5, 53, 127
1, 285010, Note_off_c, 5, 53, 127
1, 285010, Note_off_c, 0, 72, 127
1, 285010, Note_off_c, 0, 60, 127
1, 285011, Note_on_c, 12, 71, 127
1, 285011, Note_on_c, 7, 55, 127
1, 285190, Note_off_c, 7, 79, 127
1, 285191, Note_on_c, 8, 80, 127
1, 285370, Note_off_c, 8, 80, 127
1, 285371, Note_on_c, 7, 79, 127
1, 285371, Note_on_c, 7, 43, 127
1, 285550, Note_off_c, 7, 79, 127
1, 285551, Note_on_c, 5, 77, 127
1, 285730, Note_off_c, 5, 77, 127
1, 285730, Note_off_c, 7, 43, 127
1, 285730, Note_off_c, 12, 71, 127
1, 285731, Note_on_c, 5, 77, 127
1, 285731, Note_on_c, 0, 72, 127
1, 285731, Note_on_c, 0, 48, 127
1, 285790, Note_off_c, 5, 77, 127
1, 285791, Note_on_c, 3, 75, 127
1, 285850, Note_off_c, 3, 75, 127
1, 285851, Note_on_c, 5, 77, 127
1, 285910, Note_off_c, 5, 77, 127
1, 285911, Note_on_c, 3, 75, 127
1, 285970, Note_off_c, 3, 75, 127
1, 285971, Note_on_c, 5, 77, 127
1, 286030, Note_off_c, 5, 77, 127
1, 286031, Note_on_c, 3, 75, 127
1, 286090, Note_off_c, 7, 55, 127
1, 286091, Note_on_c, 3, 51, 127
1, 286181, Note_off_c, 3, 75, 127
1, 286181, Note_off_c, 0, 72, 127
1, 286181, Note_on_c, 2, 74, 127
1, 286240, Note_off_c, 2, 74, 127
1, 286271, Note_on_c, 0, 72, 127
1, 286360, Note_off_c, 0, 72, 127
1, 286361, Note_on_c, 12, 71, 127
1, 286450, Note_off_c, 12, 71, 127
1, 286450, Note_off_c, 3, 51, 127
1, 286451, Note_on_c, 0, 72, 127
1, 286451, Note_on_c, 7, 55, 127
1, 286630, Note_off_c, 0, 72, 127
1, 286631, Note_on_c, 2, 74, 127
1, 286807, Note_off_c, 7, 55, 127
1, 286810, Note_off_c, 2, 74, 127
1, 286810, Note_off_c, 0, 48, 127
1, 286811, Note_on_c, 3, 75, 127
1, 286811, Note_on_c, 0, 60, 127
1, 286990, Note_off_c, 3, 75, 127
1, 286991, Note_on_c, 5, 77, 127
1, 287170, Note_off_c, 5, 77, 127
1, 287170, Note_off_c, 0, 60, 127
1, 287171, Note_on_c, 7, 79, 127
1, 287171, Note_on_c, 11, 58, 127
1, 287260, Note_off_c, 11, 58, 127
1, 287261, Note_on_c, 0, 60, 127
1, 287350, Note_off_c, 0, 60, 127
1, 287350, Note_off_c, 7, 79, 127
1, 287351, Note_on_c, 5, 77, 127
1, 287351, Note_on_c, 11, 58, 127
1, 287440, Note_off_c, 5, 77, 127
1, 287441, Note_on_c, 3, 75, 127
1, 287530, Note_off_c, 3, 75, 127
1, 287530, Note_off_c, 11, 58, 127
1, 287531, Note_on_c, 11, 82, 127
1, 287531, Note_on_c, 8, 56, 127
1, 287800, Note_off_c, 11, 82, 127
1, 287801, Note_on_c, 11, 82, 127
1, 287890, Note_off_c, 11, 82, 127
1, 287890, Note_off_c, 8, 56, 127
1, 287891, Note_on_c, 11, 82, 127
1, 287891, Note_on_c, 7, 55, 127
1, 287936, Note_on_c, 7, 79, 127
1, 287981, Note_on_c, 3, 75, 127
1, 288026, Note_on_c, 11, 70, 127
1, 288251, Note_on_c, 11, 58, 127
1, 288274, Note_off_c, 11, 70, 127
1, 288281, Note_off_c, 3, 75, 127
1, 288292, Note_off_c, 7, 79, 127
1, 288340, Note_off_c, 11, 82, 127
1, 288341, Note_on_c, 8, 80, 127
1, 288430, Note_off_c, 8, 80, 127
1, 288431, Note_on_c, 7, 79, 127
1, 288520, Note_off_c, 7, 79, 127
1, 288521, Note_on_c, 5, 77, 127
1, 288610, Note_off_c, 5, 77, 127
1, 288610, Note_off_c, 11, 58, 127
1, 288611, Note_on_c, 7, 79, 127
1, 288611, Note_on_c, 3, 63, 127
1, 288701, Note_on_c, 5, 77, 127
1, 288790, Note_off_c, 5, 77, 127
1, 288791, Note_on_c, 3, 75, 127
1, 288880, Note_off_c, 3, 75, 127
1, 288881, Note_on_c, 2, 74, 127
1, 288970, Note_off_c, 2, 74, 127
1, 288970, Note_off_c, 7, 55, 127
1, 288971, Note_on_c, 3, 75, 127
1, 288971, Note_on_c, 7, 55, 127
1, 289150, Note_off_c, 3, 75, 127
1, 289151, Note_on_c, 11, 70, 127
1, 289330, Note_off_c, 11, 70, 127
1, 289330, Note_off_c, 7, 55, 127
1, 289331, Note_on_c, 0, 72, 127
1, 289331, Note_on_c, 10, 57, 127
1, 289510, Note_off_c, 7, 79, 127
1, 289511, Note_on_c, 7, 79, 127
1, 289690, Note_off_c, 7, 79, 127
1, 289690, Note_off_c, 10, 57, 127
1, 289690, Note_off_c, 3, 63, 127
1, 289691, Note_on_c, 5, 77, 127
1, 289691, Note_on_c, 10, 57, 127
1, 289691, Note_on_c, 5, 53, 127
1, 289870, Note_off_c, 5, 77, 127
1, 289871, Note_on_c, 3, 75, 127
1, 290050, Note_off_c, 3, 75, 127
1, 290050, Note_off_c, 5, 53, 127
1, 290050, Note_off_c, 10, 57, 127
1, 290051, Note_on_c, 2, 74, 127
1, 290051, Note_on_c, 11, 58, 127
1, 290140, Note_off_c, 0, 72, 127
1, 290141, Note_on_c, 0, 72, 127
1, 290230, Note_off_c, 0, 72, 127
1, 290231, Note_on_c, 11, 70, 127
1, 290320, Note_off_c, 11, 70, 127
1, 290321, Note_on_c, 10, 69, 127
1, 290410, Note_off_c, 10, 69, 127
1, 290411, Note_on_c, 11, 70, 127
1, 290500, Note_off_c, 11, 58, 127
1, 290501, Note_on_c, 5, 41, 127
1, 290590, Note_off_c, 5, 41, 127
1, 290590, Note_off_c, 11, 70, 127
1, 290591, Note_on_c, 5, 65, 127
1, 290591, Note_on_c, 7, 43, 127
1, 290680, Note_off_c, 7, 43, 127
1, 290681, Note_on_c, 10, 45, 127
1, 290770, Note_off_c, 10, 45, 127
1, 290770, Note_off_c, 5, 65, 127
1, 290771, Note_on_c, 2, 62, 127
1, 290771, Note_on_c, 11, 46, 127
1, 290950, Note_off_c, 11, 46, 127
1, 290950, Note_off_c, 2, 62, 127
1, 290951, Note_on_c, 5, 65, 127
1, 290951, Note_on_c, 0, 48, 127
1, 291130, Note_off_c, 0, 48, 127
1, 291130, Note_off_c, 5, 65, 127
1, 291131, Note_on_c, 11, 70, 127
1, 291131, Note_on_c, 2, 50, 127
1, 291310, Note_off_c, 2, 50, 127
1, 291310, Note_off_c, 2, 74, 127
1, 291311, Note_on_c, 2, 74, 127
1, 291311, Note_on_c, 11, 46, 127
1, 291490, Note_off_c, 11, 46, 127
1, 291490, Note_off_c, 11, 70, 127
1, 291491, Note_on_c, 7, 67, 127
1, 291491, Note_on_c, 3, 51, 127
1, 291670, Note_off_c, 2, 74, 127
1, 291671, Note_on_c, 11, 70, 127
1, 291850, Note_off_c, 11, 70, 127
1, 291851, Note_on_c, 0, 72, 127
1, 292030, Note_off_c, 3, 51, 127
1, 292030, Note_off_c, 7, 67, 127
1, 292031, Note_on_c, 10, 69, 127
1, 292031, Note_on_c, 3, 51, 127
1, 292210, Note_off_c, 3, 51, 127
1, 292210, Note_off_c, 10, 69, 127
1, 292211, Note_on_c, 6, 66, 127
1, 292211, Note_on_c, 2, 50, 127
1, 292300, Note_off_c, 0, 72, 127
1, 292301, Note_on_c, 3, 75, 127
1, 292390, Note_off_c, 3, 75, 127
1, 292391, Note_on_c, 2, 74, 127
1, 292480, Note_off_c, 2, 74, 127
1, 292481, Note_on_c, 0, 72, 127
1, 292570, Note_off_c, 0, 72, 127
1, 292571, Note_on_c, 2, 74, 127
1, 292571, Note_on_c, 10, 57, 127
1, 292750, Note_off_c, 2, 74, 127
1, 292751, Note_on_c, 10, 69, 127
1, 292930, Note_off_c, 10, 69, 127
1, 292930, Note_off_c, 10, 57, 127
1, 292930, Note_off_c, 6, 66, 127
1, 292931, Note_on_c, 11, 70, 127
1, 292931, Note_on_c, 7, 67, 127
1, 292931, Note_on_c, 2, 62, 127
1, 293110, Note_off_c, 11, 70, 127
1, 293111, Note_on_c, 2, 74, 127
1, 293287, Note_off_c, 7, 67, 127
1, 293290, Note_off_c, 2, 74, 127
1, 293290, Note_off_c, 2, 62, 127
1, 293291, Note_on_c, 7, 79, 127
1, 293291, Note_on_c, 11, 58, 127
1, 293470, Note_off_c, 7, 79, 127
1, 293471, Note_on_c, 11, 82, 127
1, 293650, Note_off_c, 11, 58, 127
1, 293651, Note_on_c, 1, 73, 127
1, 293651, Note_on_c, 7, 55, 127
1, 293830, Note_off_c, 11, 82, 127
1, 293831, Note_on_c, 11, 82, 127
1, 294010, Note_off_c, 11, 82, 127
1, 294010, Note_off_c, 7, 55, 127
1, 294011, Note_on_c, 10, 81, 127
1, 294011, Note_on_c, 4, 52, 127
1, 294190, Note_off_c, 10, 81, 127
1, 294191, Note_on_c, 7, 79, 127
1, 294367, Note_off_c, 2, 50, 127
1, 294370, Note_off_c, 7, 79, 127
1, 294370, Note_off_c, 4, 52, 127
1, 294370, Note_off_c, 1, 73, 127
1, 294371, Note_on_c, 7, 79, 127
1, 294371, Note_on_c, 2, 74, 127
1, 294371, Note_on_c, 2, 50, 127
1, 294460, Note_off_c, 2, 50, 127
1, 294461, Note_on_c, 2, 62, 127
1, 294483, Note_off_c, 7, 79, 127
1, 294491, Note_on_c, 6, 78, 127
1, 294550, Note_off_c, 6, 78, 127
1, 294550, Note_off_c, 2, 62, 127
1, 294551, Note_on_c, 7, 79, 127
1, 294551, Note_on_c, 0, 60, 127
1, 294610, Note_off_c, 7, 79, 127
1, 294611, Note_on_c, 6, 78, 127
1, 294640, Note_off_c, 0, 60, 127
1, 294641, Note_on_c, 11, 58, 127
1, 294670, Note_off_c, 6, 78, 127
1, 294671, Note_on_c, 7, 79, 127
1, 294730, Note_off_c, 7, 79, 127
1, 294730, Note_off_c, 11, 58, 127
1, 294731, Note_on_c, 6, 78, 127
1, 294731, Note_on_c, 0, 60, 127
1, 294909, Note_off_c, 6, 78, 127
1, 294910, Note_off_c, 0, 60, 127
1, 294911, Note_on_c, 7, 79, 127
1, 294911, Note_on_c, 10, 57, 127
1, 295089, Note_off_c, 10, 57, 127
1, 295089, Note_off_c, 7, 79, 127
1, 295091, Note_on_c, 10, 81, 127
1, 295091, Note_on_c, 6, 54, 127
1, 295271, Note_on_c, 2, 62, 127
1, 295450, Note_off_c, 2, 62, 127
1, 295451, Note_on_c, 10, 57, 127
1, 295630, Note_off_c, 10, 57, 127
1, 295631, Note_on_c, 0, 60, 127
1, 295805, Note_off_c, 2, 74, 127
1, 295810, Note_off_c, 0, 60, 127
1, 295810, Note_off_c, 6, 54, 127
1, 295810, Note_off_c, 10, 81, 127
1, 295811, Note_on_c, 11, 58, 127
1, 295901, Note_on_c, 7, 79, 127
1, 295990, Note_off_c, 7, 79, 127
1, 295991, Note_on_c, 5, 77, 127
1, 296080, Note_off_c, 5, 77, 127
1, 296081, Note_on_c, 3, 75, 127
1, 296170, Note_off_c, 3, 75, 127
1, 296171, Note_on_c, 5, 77, 127
1, 296171, Note_on_c, 7, 55, 127
1, 296350, Note_off_c, 5, 77, 127
1, 296351, Note_on_c, 2, 74, 127
1, 296530, Note_off_c, 2, 74, 127
1, 296530, Note_off_c, 7, 55, 127
1, 296531, Note_on_c, 3, 75, 127
1, 296531, Note_on_c, 0, 48, 127
1, 296620, Note_off_c, 3, 75, 127
1, 296621, Note_on_c, 2, 74, 127
1, 296710, Note_off_c, 2, 74, 127
1, 296710, Note_off_c, 11, 58, 127
1, 296711, Note_on_c, 0, 72, 127
1, 296711, Note_on_c, 10, 57, 127
1, 296800, Note_off_c, 0, 72, 127
1, 296801, Note_on_c, 12, 71, 127
1, 296890, Note_off_c, 12, 71, 127
1, 296890, Note_off_c, 0, 48, 127
1, 296891, Note_on_c, 0, 72, 127
1, 296891, Note_on_c, 3, 51, 127
1, 297070, Note_off_c, 3, 51, 127
1, 297070, Note_off_c, 0, 72, 127
1, 297071, Note_on_c, 6, 78, 127
1, 297071, Note_on_c, 2, 50, 127
1, 297250, Note_off_c, 2, 50, 127
1, 297250, Note_off_c, 6, 78, 127
1, 297250, Note_off_c, 10, 57, 127
1, 297251, Note_on_c, 7, 79, 127
1, 297251, Note_on_c, 0, 48, 127
1, 297430, Note_off_c, 0, 48, 127
1, 297430, Note_off_c, 7, 79, 127
1, 297431, Note_on_c, 7, 67, 127
1, 297431, Note_on_c, 11, 46, 127
1, 297610, Note_off_c, 11, 46, 127
1, 297610, Note_off_c, 7, 67, 127
1, 297611, Note_on_c, 0, 72, 127
1, 297611, Note_on_c, 3, 51, 127
1, 297700, Note_off_c, 0, 72, 127
1, 297701, Note_on_c, 11, 70, 127
1, 297790, Note_off_c, 11, 70, 127
1, 297790, Note_off_c, 3, 51, 127
1, 297791, Note_on_c, 10, 69, 127
1, 297791, Note_on_c, 0, 48, 127
1, 297970, Note_off_c, 0, 48, 127
1, 297970, Note_off_c, 10, 69, 127
1, 297971, Note_on_c, 11, 70, 127
1, 297971, Note_on_c, 2, 50, 127
1, 297971, Note_on_c, 6, 66, 127
1, 298030, Note_off_c, 11, 70, 127
1, 298031, Note_on_c, 10, 69, 127
1, 298090, Note_off_c, 10, 69, 127
1, 298091, Note_on_c, 11, 70, 127
1, 298150, Note_off_c, 11, 70, 127
1, 298151, Note_on_c, 10, 69, 127
1, 298210, Note_off_c, 10, 69, 127
1, 298211, Note_on_c, 11, 70, 127
1, 298270, Note_off_c, 11, 70, 127
1, 298271, Note_on_c, 10, 69, 127
1, 298331, Note_on_c, 2, 38, 127
1, 298509, Note_off_c, 6, 66, 127
1, 298510, Note_off_c, 10, 69, 127
1, 298511, Note_on_c, 7, 67, 127
1, 298690, Note_off_c, 7, 67, 127
1, 298690, Note_off_c, 2, 38, 127
1, 298690, Note_off_c, 2, 50, 127
1, 298691, Note_on_c, 7, 67, 127
1, 298691, Note_on_c, 7, 43, 127
1, 299051, Note_on_c, 2, 50, 127
1, 299141, Note_on_c, 5, 65, 127
1, 299230, Note_off_c, 5, 65, 127
1, 299231, Note_on_c, 3, 63, 127
1, 299320, Note_off_c, 3, 63, 127
1, 299321, Note_on_c, 2, 62, 127
1, 299410, Note_off_c, 2, 62, 127
1, 299410, Note_off_c, 2, 50, 127
1, 299411, Note_on_c, 3, 63, 127
1, 299411, Note_on_c, 6, 54, 127
1, 299590, Note_off_c, 3, 63, 127
1, 299591, Note_on_c, 0, 60, 127
1, 299770, Note_off_c, 0, 60, 127
1, 299770, Note_off_c, 6, 54, 127
1, 299770, Note_off_c, 7, 67, 127
1, 299771, Note_on_c, 7, 67, 127
1, 299771, Note_on_c, 12, 59, 127
1, 299771, Note_on_c, 2, 62, 127
1, 299771, Note_on_c, 7, 55, 127
1, 300658, Note_on_c, 2, 74, 127
1, 300670, Note_off_c, 7, 67, 127
1, 300753, Note_off_c, 7, 43, 127
1, 300755, Note_off_c, 7, 55, 127
1, 300755, Note_off_c, 2, 62, 127
1, 300755, Note_off_c, 12, 59, 127
1, 300850, Note_off_c, 2, 74, 127
1, 300875, Note_on_c, 7, 67, 127
1, 300875, Note_on_c, 12, 71, 127
1, 300875, Note_on_c, 2, 74, 127
1, 301235, Note_on_c, 7, 55, 127
1, 301324, Note_off_c, 2, 74, 127
1, 301325, Note_on_c, 7, 79, 127
1, 301414, Note_off_c, 7, 79, 127
1, 301414, Note_off_c, 7, 67, 127
1, 301415, Note_on_c, 10, 57, 127
1, 301415, Note_on_c, 5, 77, 127
1, 301504, Note_off_c, 5, 77, 127
1, 301505, Note_on_c, 3, 75, 127
1, 301594, Note_off_c, 3, 75, 127
1, 301594, Note_off_c, 10, 57, 127
1, 301594, Note_off_c, 12, 71, 127
1, 301595, Note_on_c, 12, 59, 127
1, 301595, Note_on_c, 2, 74, 127
1, 301774, Note_off_c, 2, 74, 127
1, 301774, Note_off_c, 12, 59, 127
1, 301775, Note_on_c, 0, 60, 127
1, 301775, Note_on_c, 0, 72, 127
1, 301954, Note_off_c, 0, 72, 127
1, 301954, Note_off_c, 0, 60, 127
1, 301955, Note_on_c, 2, 62, 127
1, 301955, Note_on_c, 12, 71, 127
1, 302134, Note_off_c, 12, 71, 127
1, 302134, Note_off_c, 2, 62, 127
1, 302135, Note_on_c, 3, 63, 127
1, 302135, Note_on_c, 0, 72, 127
1, 302224, Note_off_c, 0, 72, 127
1, 302225, Note_on_c, 2, 74, 127
1, 302314, Note_off_c, 2, 74, 127
1, 302314, Note_off_c, 3, 63, 127
1, 302315, Note_on_c, 5, 65, 127
1, 302315, Note_on_c, 8, 68, 127
1, 302367, Note_on_c, 7, 67, 127
1, 302372, Note_off_c, 8, 68, 127
1, 302419, Note_on_c, 8, 68, 127
1, 302424, Note_off_c, 7, 67, 127
1, 302471, Note_on_c, 7, 67, 127
1, 302476, Note_off_c, 8, 68, 127
1, 302495, Note_off_c, 5, 65, 127
1, 302497, Note_on_c, 2, 62, 127
1, 302676, Note_off_c, 2, 62, 127
1, 302677, Note_on_c, 3, 63, 127
1, 302847, Note_off_c, 7, 67, 127
1, 302856, Note_off_c, 3, 63, 127
1, 302857, Note_on_c, 5, 65, 127
1, 302857, Note_on_c, 7, 67, 127
1, 303036, Note_off_c, 7, 67, 127
1, 303036, Note_off_c, 5, 65, 127
1, 303036, Note_off_c, 7, 55, 127
1, 303037, Note_on_c, 7, 55, 127
1, 303037, Note_on_c, 0, 60, 127
1, 303037, Note_on_c, 2, 74, 127
1, 303037, Note_on_c, 5, 77, 127
1, 303037, Note_on_c, 7, 67, 127
1, 303117, Note_on_c, 12, 59, 127
1, 303126, Note_off_c, 0, 60, 127
1, 303196, Note_on_c, 0, 60, 127
1, 303205, Note_off_c, 12, 59, 127
1, 303275, Note_on_c, 12, 59, 127
1, 303284, Note_off_c, 0, 60, 127
1, 303457, Note_off_c, 7, 67, 127
1, 303484, Note_off_c, 7, 55, 127
1, 303485, Note_on_c, 7, 67, 127
1, 303537, Note_off_c, 12, 59, 127
1, 303575, Note_off_c, 7, 67, 127
1, 303576, Note_on_c, 5, 65, 127
1, 303665, Note_off_c, 5, 65, 127
1, 303666, Note_on_c, 3, 63, 127
1, 303755, Note_off_c, 3, 63, 127
1, 303755, Note_off_c, 2, 74, 127
1, 303756, Note_on_c, 2, 62, 127
1, 303935, Note_off_c, 2, 62, 127
1, 303935, Note_off_c, 5, 77, 127
1, 303936, Note_on_c, 0, 60, 127
1, 303936, Note_on_c, 8, 80, 127
1, 304115, Note_off_c, 8, 80, 127
1, 304115, Note_off_c, 0, 60, 127
1, 304116, Note_on_c, 12, 59, 127
1, 304116, Note_on_c, 7, 79, 127
1, 304295, Note_off_c, 7, 79, 127
1, 304295, Note_off_c, 12, 59, 127
1, 304296, Note_on_c, 0, 60, 127
1, 304296, Note_on_c, 5, 77, 127
1, 304385, Note_off_c, 0, 60, 127
1, 304386, Note_on_c, 2, 62, 127
1, 304475, Note_off_c, 2, 62, 127
1, 304475, Note_off_c, 5, 77, 127
1, 304476, Note_on_c, 8, 56, 127
1, 304476, Note_on_c, 3, 75, 127
1, 304565, Note_off_c, 8, 56, 127
1, 304566, Note_on_c, 7, 55, 127
1, 304610, Note_off_c, 7, 55, 127
1, 304611, Note_on_c, 8, 56, 127
1, 304655, Note_off_c, 8, 56, 127
1, 304655, Note_off_c, 3, 75, 127
1, 304656, Note_on_c, 7, 55, 127
1, 304656, Note_on_c, 2, 74, 127
1, 304835, Note_off_c, 2, 74, 127
1, 304836, Note_on_c, 0, 72, 127
1, 305015, Note_off_c, 0, 72, 127
1, 305015, Note_off_c, 7, 55, 127
1, 305016, Note_on_c, 7, 55, 127
1, 305016, Note_on_c, 12, 71, 127
1, 305194, Note_off_c, 12, 71, 127
1, 305195, Note_off_c, 7, 55, 127
1, 305196, Note_on_c, 8, 56, 127
1, 305196, Note_on_c, 0, 72, 127
1, 305286, Note_on_c, 3, 75, 127
1, 305375, Note_off_c, 3, 75, 127
1, 305376, Note_on_c, 5, 77, 127
1, 305465, Note_off_c, 5, 77, 127
1, 305466, Note_on_c, 7, 79, 127
1, 305555, Note_off_c, 7, 79, 127
1, 305555, Note_off_c, 8, 56, 127
1, 305556, Note_on_c, 2, 50, 127
1, 305556, Note_on_c, 8, 80, 127
1, 305735, Note_off_c, 0, 72, 127
1, 305736, Note_on_c, 5, 77, 127
1, 305915, Note_off_c, 8, 80, 127
1, 305915, Note_off_c, 2, 50, 127
1, 305916, Note_on_c, 3, 51, 127
1, 305916, Note_on_c, 7, 79, 127
1, 306095, Note_off_c, 5, 77, 127
1, 306096, Note_on_c, 5, 77, 127
1, 306185, Note_off_c, 5, 77, 127
1, 306186, Note_on_c, 3, 75, 127
1, 306275, Note_off_c, 3, 75, 127
1, 306275, Note_off_c, 3, 51, 127
1, 306276, Note_on_c, 5, 53, 127
1, 306276, Note_on_c, 2, 74, 127
1, 306365, Note_off_c, 2, 74, 127
1, 306366, Note_on_c, 3, 75, 127
1, 306455, Note_off_c, 3, 75, 127
1, 306456, Note_on_c, 5, 77, 127
1, 306635, Note_off_c, 5, 77, 127
1, 306635, Note_off_c, 5, 53, 127
1, 306635, Note_off_c, 7, 79, 127
1, 306636, Note_on_c, 7, 55, 127
1, 306636, Note_on_c, 12, 71, 127
1, 306816, Note_on_c, 2, 74, 127
1, 306995, Note_off_c, 2, 74, 127
1, 306996, Note_on_c, 7, 43, 127
1, 306996, Note_on_c, 5, 77, 127
1, 307175, Note_off_c, 5, 77, 127
1, 307176, Note_on_c, 7, 79, 127
1, 307355, Note_off_c, 7, 79, 127
1, 307355, Note_off_c, 7, 43, 127
1, 307355, Note_off_c, 12, 71, 127
1, 307355, Note_off_c, 7, 55, 127
1, 307356, Note_on_c, 0, 48, 127
1, 307356, Note_on_c, 7, 55, 127
1, 307356, Note_on_c, 0, 72, 127
1, 307356, Note_on_c, 5, 77, 127
1, 307535, Note_off_c, 5, 77, 127
1, 307536, Note_on_c, 3, 75, 127
1, 307712, Note_off_c, 7, 55, 127
1, 307715, Note_off_c, 3, 75, 127
1, 307716, Note_on_c, 2, 74, 127
1, 307805, Note_off_c, 0, 48, 127
1, 307806, Note_on_c, 7, 43, 127
1, 307890, Note_off_c, 0, 72, 127
1, 307895, Note_off_c, 7, 43, 127
1, 307895, Note_off_c, 2, 74, 127
1, 307896, Note_on_c, 10, 45, 127
1, 307896, Note_on_c, 0, 72, 127
1, 307985, Note_off_c, 10, 45, 127
1, 307986, Note_on_c, 12, 47, 127
1, 308075, Note_off_c, 12, 47, 127
1, 308075, Note_off_c, 0, 72, 127
1, 308076, Note_on_c, 0, 48, 127
1, 308076, Note_on_c, 3, 75, 127
1, 308135, Note_off_c, 3, 75, 127
1, 308136, Note_on_c, 2, 74, 127
1, 308195, Note_off_c, 2, 74, 127
1, 308196, Note_on_c, 3, 75, 127
1, 308255, Note_off_c, 0, 48, 127
1, 308256, Note_on_c, 2, 50, 127
1, 308435, Note_off_c, 2, 50, 127
1, 308436, Note_on_c, 3, 51, 127
1, 308608, Note_off_c, 3, 75, 127
1, 308615, Note_off_c, 3, 51, 127
1, 308616, Note_on_c, 0, 48, 127
1, 308616, Note_on_c, 3, 75, 127
1, 308795, Note_off_c, 3, 75, 127
1, 308795, Note_off_c, 0, 48, 127
1, 308796, Note_on_c, 11, 58, 127
1, 308796, Note_on_c, 7, 67, 127
1, 308976, Note_on_c, 0, 60, 127
1, 309155, Note_off_c, 0, 60, 127
1, 309156, Note_on_c, 1, 61, 127
1, 309335, Note_off_c, 7, 67, 127
1, 309335, Note_off_c, 11, 58, 127
1, 309336, Note_on_c, 8, 56, 127
1, 309336, Note_on_c, 8, 68, 127
1, 309515, Note_off_c, 8, 68, 127
1, 309515, Note_off_c, 8, 56, 127
1, 309516, Note_on_c, 7, 55, 127
1, 309516, Note_on_c, 11, 70, 127
1, 309605, Note_off_c, 1, 61, 127
1, 309606, Note_on_c, 1, 61, 127
1, 309695, Note_off_c, 1, 61, 127
1, 309696, Note_on_c, 0, 60, 127
1, 309785, Note_off_c, 0, 60, 127
1, 309786, Note_on_c, 11, 58, 127
1, 309875, Note_off_c, 11, 58, 127
1, 309876, Note_on_c, 4, 64, 127
1, 310055, Note_off_c, 4, 64, 127
1, 310055, Note_off_c, 7, 55, 127
1, 310056, Note_on_c, 5, 53, 127
1, 310056, Note_on_c, 5, 65, 127
1, 310235, Note_off_c, 5, 65, 127
1, 310235, Note_off_c, 5, 53, 127
1, 310236, Note_on_c, 4, 52, 127
1, 310236, Note_on_c, 7, 67, 127
1, 310325, Note_off_c, 11, 70, 127
1, 310326, Note_on_c, 1, 73, 127
1, 310415, Note_off_c, 1, 73, 127
1, 310415, Note_off_c, 4, 52, 127
1, 310416, Note_on_c, 5, 53, 127
1, 310416, Note_on_c, 0, 72, 127
1, 310505, Note_off_c, 0, 72, 127
1, 310506, Note_on_c, 11, 70, 127
1, 310595, Note_off_c, 11, 70, 127
1, 310595, Note_off_c, 5, 53, 127
1, 310596, Note_on_c, 7, 55, 127
1, 310596, Note_on_c, 4, 76, 127
1, 310775, Note_off_c, 4, 76, 127
1, 310775, Note_off_c, 7, 55, 127
1, 310776, Note_on_c, 8, 56, 127
1, 310776, Note_on_c, 5, 77, 127
1, 310955, Note_off_c, 5, 77, 127
1, 310955, Note_off_c, 8, 56, 127
1, 310955, Note_off_c, 7, 67, 127
1, 310956, Note_on_c, 11, 58, 127
1, 310956, Note_on_c, 7, 79, 127
1, 311135, Note_off_c, 11, 58, 127
1, 311136, Note_on_c, 1, 61, 127
1, 311136, Note_on_c, 11, 70, 127
1, 311315, Note_off_c, 11, 70, 127
1, 311315, Note_off_c, 1, 61, 127
1, 311316, Note_on_c, 0, 60, 127
1, 311316, Note_on_c, 4, 76, 127
1, 311495, Note_off_c, 0, 60, 127
1, 311495, Note_off_c, 7, 79, 127
1, 311496, Note_on_c, 11, 58, 127
1, 311496, Note_on_c, 7, 79, 127
1, 311675, Note_off_c, 11, 58, 127
1, 311675, Note_off_c, 4, 76, 127
1, 311676, Note_on_c, 8, 56, 127
1, 311676, Note_on_c, 0, 72, 127
1, 311765, Note_off_c, 7, 79, 127
1, 311766, Note_on_c, 7, 79, 127
1, 311855, Note_off_c, 7, 79, 127
1, 311855, Note_off_c, 8, 56, 127
1, 311856, Note_on_c, 0, 60, 127
1, 311856, Note_on_c, 5, 77, 127
1, 311945, Note_off_c, 5, 77, 127
1, 311946, Note_on_c, 4, 76, 127
1, 312035, Note_off_c, 4, 76, 127
1, 312035, Note_off_c, 0, 60, 127
1, 312036, Note_on_c, 8, 56, 127
1, 312036, Note_on_c, 5, 77, 127
1, 312125, Note_off_c, 5, 77, 127
1, 312126, Note_on_c, 7, 79, 127
1, 312215, Note_off_c, 7, 79, 127
1, 312215, Note_off_c, 8, 56, 127
1, 312216, Note_on_c, 5, 53, 127
1, 312216, Note_on_c, 8, 80, 127
1, 312305, Note_off_c, 8, 80, 127
1, 312306, Note_on_c, 5, 77, 127
1, 312395, Note_off_c, 5, 77, 127
1, 312395, Note_off_c, 5, 53, 127
1, 312395, Note_off_c, 0, 72, 127
1, 312396, Note_on_c, 1, 49, 127
1, 312396, Note_on_c, 11, 82, 127
1, 312576, Note_on_c, 4, 76, 127
1, 312755, Note_off_c, 4, 76, 127
1, 312755, Note_off_c, 1, 49, 127
1, 312756, Note_on_c, 11, 46, 127
1, 312756, Note_on_c, 5, 77, 127
1, 312935, Note_off_c, 11, 82, 127
1, 312936, Note_on_c, 8, 80, 127
1, 313096, Note_off_c, 8, 80, 127
1, 313115, Note_off_c, 11, 46, 127
1, 313116, Note_on_c, 0, 48, 127
1, 313116, Note_on_c, 7, 79, 127
1, 313295, Note_off_c, 5, 77, 127
1, 313296, Note_on_c, 5, 77, 127
1, 313475, Note_off_c, 5, 77, 127
1, 313475, Note_off_c, 0, 48, 127
1, 313476, Note_on_c, 0, 36, 127
1, 313476, Note_on_c, 4, 76, 127
1, 313655, Note_off_c, 7, 79, 127
1, 313656, Note_on_c, 0, 84, 127
1, 313816, Note_off_c, 0, 84, 127
1, 313835, Note_off_c, 4, 76, 127
1, 313835, Note_off_c, 0, 36, 127
1, 313836, Note_on_c, 5, 41, 127
1, 313836, Note_on_c, 5, 77, 127
1, 313836, Note_on_c, 11, 82, 127
1, 314012, Note_on_c, 8, 80, 127
1, 314015, Note_off_c, 11, 82, 127
1, 314188, Note_on_c, 7, 79, 127
1, 314191, Note_off_c, 8, 80, 127
1, 314192, Note_off_c, 5, 77, 127
1, 314364, Note_on_c, 5, 77, 127
1, 314367, Note_off_c, 7, 79, 127
1, 314514, Note_off_c, 5, 77, 127
1, 314555, Note_on_c, 3, 75, 127
1, 314644, Note_off_c, 5, 41, 127
1, 314645, Note_on_c, 11, 58, 127
1, 314734, Note_off_c, 11, 58, 127
1, 314735, Note_on_c, 8, 56, 127
1, 314824, Note_off_c, 8, 56, 127
1, 314825, Note_on_c, 7, 55, 127
1, 314914, Note_off_c, 7, 55, 127
1, 314914, Note_off_c, 3, 75, 127
1, 314915, Note_on_c, 5, 53, 127
1, 314915, Note_on_c, 3, 75, 127
1, 314974, Note_off_c, 3, 75, 127
1, 314975, Note_on_c, 2, 74, 127
1, 315034, Note_off_c, 2, 74, 127
1, 315035, Note_on_c, 3, 75, 127
1, 315094, Note_off_c, 3, 75, 127
1, 315094, Note_off_c, 5, 53, 127
1, 315095, Note_on_c, 3, 51, 127
1, 315095, Note_on_c, 2, 74, 127
1, 315184, Note_off_c, 2, 74, 127
1, 315185, Note_on_c, 3, 75, 127
1, 315274, Note_off_c, 3, 75, 127
1, 315274, Note_off_c, 3, 51, 127
1, 315275, Note_on_c, 2, 50, 127
1, 315275, Note_on_c, 5, 77, 127
1, 315365, Note_on_c, 11, 70, 127
1, 315454, Note_off_c, 11, 70, 127
1, 315455, Note_on_c, 8, 68, 127
1, 315544, Note_off_c, 8, 68, 127
1, 315545, Note_on_c, 7, 67, 127
1, 315634, Note_off_c, 7, 67, 127
1, 315634, Note_off_c, 2, 50, 127
1, 315635, Note_on_c, 11, 46, 127
1, 315635, Note_on_c, 8, 68, 127
1, 315814, Note_off_c, 8, 68, 127
1, 315815, Note_on_c, 5, 65, 127
1, 315994, Note_off_c, 5, 65, 127
1, 315994, Note_off_c, 11, 46, 127
1, 315995, Note_on_c, 3, 51, 127
1, 315995, Note_on_c, 7, 67, 127
1, 316084, Note_off_c, 5, 77, 127
1, 316085, Note_on_c, 11, 70, 127
1, 316174, Note_off_c, 11, 70, 127
1, 316175, Note_on_c, 0, 72, 127
1, 316264, Note_off_c, 0, 72, 127
1, 316265, Note_on_c, 2, 74, 127
1, 316354, Note_off_c, 2, 74, 127
1, 316355, Note_on_c, 3, 75, 127
1, 316445, Note_off_c, 3, 51, 127
1, 316445, Note_on_c, 7, 43, 127
1, 316534, Note_off_c, 7, 43, 127
1, 316535, Note_on_c, 10, 45, 127
1, 316624, Note_off_c, 10, 45, 127
1, 316625, Note_on_c, 12, 47, 127
1, 316714, Note_off_c, 12, 47, 127
1, 316715, Note_on_c, 0, 48, 127
1, 316804, Note_off_c, 3, 75, 127
1, 316805, Note_on_c, 2, 74, 127
1, 316894, Note_off_c, 2, 74, 127
1, 316894, Note_off_c, 0, 48, 127
1, 316895, Note_on_c, 2, 50, 127
1, 316895, Note_on_c, 3, 75, 127
1, 316984, Note_off_c, 3, 75, 127
1, 316985, Note_on_c, 5, 77, 127
1, 317074, Note_off_c, 5, 77, 127
1, 317074, Note_off_c, 2, 50, 127
1, 317075, Note_on_c, 3, 51, 127
1, 317075, Note_on_c, 7, 79, 127
1, 317164, Note_off_c, 7, 67, 127
1, 317165, Note_on_c, 5, 77, 127
1, 317254, Note_off_c, 5, 77, 127
1, 317254, Note_off_c, 3, 51, 127
1, 317255, Note_on_c, 0, 48, 127
1, 317255, Note_on_c, 3, 75, 127
1, 317344, Note_off_c, 3, 75, 127
1, 317345, Note_on_c, 2, 74, 127
1, 317434, Note_off_c, 2, 74, 127
1, 317434, Note_off_c, 0, 48, 127
1, 317435, Note_on_c, 8, 56, 127
1, 317435, Note_on_c, 3, 75, 127
1, 317614, Note_off_c, 3, 75, 127
1, 317615, Note_on_c, 0, 72, 127
1, 317794, Note_off_c, 7, 79, 127
1, 317795, Note_on_c, 5, 77, 127
1, 317974, Note_off_c, 0, 72, 127
1, 317974, Note_off_c, 8, 56, 127
1, 317975, Note_on_c, 8, 56, 127
1, 317975, Note_on_c, 2, 74, 127
1, 318154, Note_off_c, 2, 74, 127
1, 318154, Note_off_c, 8, 56, 127
1, 318155, Note_on_c, 7, 55, 127
1, 318155, Note_on_c, 12, 71, 127
1, 318244, Note_off_c, 5, 77, 127
1, 318245, Note_on_c, 8, 80, 127
1, 318334, Note_off_c, 8, 80, 127
1, 318335, Note_on_c, 7, 79, 127
1, 318424, Note_off_c, 7, 79, 127
1, 318425, Note_on_c, 5, 77, 127
1, 318514, Note_off_c, 5, 77, 127
1, 318515, Note_on_c, 2, 62, 127
1, 318515, Note_on_c, 7, 79, 127
1, 318694, Note_off_c, 7, 79, 127
1, 318695, Note_on_c, 2, 74, 127
1, 318874, Note_off_c, 2, 74, 127
1, 318874, Note_off_c, 2, 62, 127
1, 318874, Note_off_c, 12, 71, 127
1, 318875, Note_on_c, 7, 67, 127
1, 318875, Note_on_c, 0, 72, 127
1, 318875, Note_on_c, 3, 75, 127
1, 319054, Note_off_c, 3, 75, 127
1, 319055, Note_on_c, 5, 77, 127
1, 319144, Note_off_c, 5, 77, 127
1, 319145, Note_on_c, 7, 79, 127
1, 319234, Note_off_c, 7, 79, 127
1, 319234, Note_off_c, 0, 72, 127
1, 319234, Note_off_c, 7, 67, 127
1, 319235, Note_on_c, 3, 63, 127
1, 319235, Note_on_c, 10, 69, 127
1, 319235, Note_on_c, 0, 72, 127
1, 319414, Note_off_c, 0, 72, 127
1, 319415, Note_on_c, 3, 75, 127
1, 319594, Note_off_c, 10, 69, 127
1, 319594, Note_off_c, 3, 63, 127
1, 319595, Note_on_c, 0, 60, 127
1, 319595, Note_on_c, 6, 66, 127
1, 319774, Note_off_c, 3, 75, 127
1, 319775, Note_on_c, 3, 75, 127
1, 319954, Note_off_c, 3, 75, 127
1, 319954, Note_off_c, 0, 60, 127
1, 319955, Note_on_c, 10, 57, 127
1, 319955, Note_on_c, 2, 74, 127
1, 320134, Note_off_c, 2, 74, 127
1, 320135, Note_on_c, 0, 72, 127
1, 320314, Note_off_c, 0, 72, 127
1, 320314, Note_off_c, 10, 57, 127
1, 320314, Note_off_c, 6, 66, 127
1, 320315, Note_on_c, 2, 62, 127
1, 320315, Note_on_c, 7, 67, 127
1, 320315, Note_on_c, 0, 72, 127
1, 320404, Note_off_c, 0, 72, 127
1, 320404, Note_off_c, 7, 55, 127
1, 320405, Note_on_c, 7, 55, 127
1, 320405, Note_on_c, 12, 71, 127
1, 320449, Note_off_c, 12, 71, 127
1, 320450, Note_on_c, 0, 72, 127
1, 320494, Note_off_c, 0, 72, 127
1, 320494, Note_off_c, 7, 55, 127
1, 320495, Note_on_c, 5, 53, 127
1, 320495, Note_on_c, 12, 71, 127
1, 320539, Note_off_c, 12, 71, 127
1, 320540, Note_on_c, 0, 72, 127
1, 320584, Note_off_c, 0, 72, 127
1, 320584, Note_off_c, 5, 53, 127
1, 320585, Note_on_c, 3, 51, 127
1, 320585, Note_on_c, 12, 71, 127
1, 320674, Note_off_c, 3, 51, 127
1, 320675, Note_on_c, 5, 53, 127
1, 320854, Note_off_c, 5, 53, 127
1, 320854, Note_off_c, 12, 71, 127
1, 320855, Note_on_c, 2, 50, 127
1, 320855, Note_on_c, 0, 72, 127
1, 321034, Note_off_c, 0, 72, 127
1, 321034, Note_off_c, 2, 50, 127
1, 321034, Note_off_c, 7, 67, 127
1, 321034, Note_off_c, 2, 62, 127
1, 321035, Note_on_c, 12, 47, 127
1, 321035, Note_on_c, 2, 74, 127
1, 321215, Note_on_c, 7, 67, 127
1, 321394, Note_off_c, 7, 67, 127
1, 321395, Note_on_c, 7, 55, 127
1, 321395, Note_on_c, 2, 62, 127
1, 321574, Note_off_c, 2, 62, 127
1, 321575, Note_on_c, 5, 65, 127
1, 321754, Note_off_c, 5, 65, 127
1, 321754, Note_off_c, 12, 47, 127
1, 321755, Note_on_c, 0, 48, 127
1, 321755, Note_on_c, 3, 63, 127
1, 321844, Note_off_c, 2, 74, 127
1, 321845, Note_on_c, 0, 72, 127
1, 321934, Note_off_c, 0, 72, 127
1, 321935, Note_on_c, 11, 70, 127
1, 322024, Note_off_c, 11, 70, 127
1, 322025, Note_on_c, 8, 68, 127
1, 322114, Note_off_c, 8, 68, 127
1, 322114, Note_off_c, 7, 55, 127
1, 322115, Note_on_c, 0, 60, 127
1, 322115, Note_on_c, 11, 70, 127
1, 322294, Note_off_c, 11, 70, 127
1, 322295, Note_on_c, 7, 67, 127
1, 322474, Note_off_c, 7, 67, 127
1, 322474, Note_off_c, 0, 48, 127
1, 322475, Note_on_c, 5, 53, 127
1, 322475, Note_on_c, 8, 68, 127
1, 322565, Note_off_c, 8, 68, 127
1, 322566, Note_on_c, 7, 67, 127
1, 322656, Note_off_c, 7, 67, 127
1, 322656, Note_off_c, 3, 63, 127
1, 322657, Note_on_c, 8, 56, 127
1, 322657, Note_on_c, 5, 65, 127
1, 322747, Note_off_c, 5, 65, 127
1, 322748, Note_on_c, 4, 64, 127
1, 322838, Note_off_c, 4, 64, 127
1, 322838, Note_off_c, 8, 56, 127
1, 322838, Note_off_c, 0, 60, 127
1, 322839, Note_on_c, 8, 56, 127
1, 322839, Note_on_c, 2, 62, 127
1, 322839, Note_on_c, 5, 65, 127
1, 323021, Note_off_c, 5, 65, 127
1, 323021, Note_off_c, 5, 53, 127
1, 323022, Note_on_c, 2, 50, 127
1, 323022, Note_on_c, 12, 71, 127
1, 323201, Note_off_c, 2, 62, 127
1, 323204, Note_off_c, 12, 71, 127
1, 323204, Note_off_c, 2, 50, 127
1, 323204, Note_off_c, 8, 56, 127
1, 323205, Note_on_c, 3, 51, 127
1, 323205, Note_on_c, 7, 55, 127
1, 323205, Note_on_c, 0, 72, 127
1, 323391, Note_off_c, 0, 72, 127
1, 323392, Note_on_c, 0, 60, 127
1, 323392, Note_on_c, 7, 67, 127
1, 323578, Note_off_c, 7, 67, 127
1, 323578, Note_off_c, 7, 55, 127
1, 323578, Note_off_c, 3, 51, 127
1, 323579, Note_on_c, 8, 56, 127
1, 323579, Note_on_c, 5, 77, 127
1, 323672, Note_off_c, 5, 77, 127
1, 323673, Note_on_c, 3, 75, 127
1, 323766, Note_off_c, 3, 75, 127
1, 323767, Note_on_c, 5, 53, 127
1, 323767, Note_on_c, 2, 74, 127
1, 323953, Note_off_c, 2, 74, 127
1, 323953, Note_off_c, 5, 53, 127
1, 323953, Note_off_c, 8, 56, 127
1, 323953, Note_off_c, 0, 60, 127
1, 323954, Note_on_c, 7, 55, 127
1, 323954, Note_on_c, 12, 71, 127
1, 323954, Note_on_c, 3, 75, 127
1, 324018, Note_on_c, 2, 74, 127
1, 324019, Note_off_c, 3, 75, 127
1, 324082, Note_on_c, 3, 75, 127
1, 324083, Note_off_c, 2, 74, 127
1, 324146, Note_on_c, 2, 74, 127
1, 324147, Note_off_c, 3, 75, 127
1, 324338, Note_on_c, 7, 43, 127
1, 324526, Note_off_c, 2, 74, 127
1, 324530, Note_on_c, 0, 72, 127
1, 324721, Note_off_c, 0, 72, 127
1, 324721, Note_off_c, 7, 43, 127
1, 324721, Note_off_c, 12, 71, 127
1, 324721, Note_off_c, 7, 55, 127
1, 324722, Note_on_c, 0, 36, 127
1, 324722, Note_on_c, 0, 72, 127
1, 325133, Note_on_c, 7, 43, 127
1, 325236, Note_on_c, 11, 70, 127
1, 325338, Note_off_c, 11, 70, 127
1, 325339, Note_on_c, 8, 68, 127
1, 325441, Note_off_c, 8, 68, 127
1, 325442, Note_on_c, 7, 67, 127
1, 325544, Note_off_c, 7, 67, 127
1, 325545, Note_on_c, 12, 47, 127
1, 325545, Note_on_c, 8, 68, 127
1, 325750, Note_off_c, 8, 68, 127
1, 325751, Note_on_c, 5, 65, 127
1, 325956, Note_off_c, 5, 65, 127
1, 325956, Note_off_c, 12, 47, 127
1, 325956, Note_off_c, 0, 72, 127
1, 325997, Note_on_c, 0, 48, 127
1, 325997, Note_on_c, 3, 63, 127
1, 325997, Note_on_c, 7, 67, 127
1, 325997, Note_on_c, 0, 72, 127
1, 328308, Note_off_c, 0, 36, 127
1, 328314, Note_off_c, 7, 43, 127
1, 328338, Note_off_c, 0, 48, 127
1, 328350, Note_off_c, 0, 72, 127
1, 328350, Note_off_c, 7, 67, 127
1, 328350, Note_off_c, 3, 63, 127
1, 330170, Note_on_c, 0, 48, 127
1, 330170, Note_on_c, 7, 67, 127
1, 330349, Note_on_c, 0, 72, 127
1, 330524, Note_off_c, 7, 67, 127
1, 330527, Note_off_c, 0, 72, 127
1, 330527, Note_off_c, 0, 48, 127
1, 330528, Note_on_c, 0, 60, 127
1, 330528, Note_on_c, 2, 74, 127
1, 330706, Note_off_c, 2, 74, 127
1, 330707, Note_on_c, 3, 75, 127
1, 330885, Note_off_c, 3, 75, 127
1, 330886, Note_on_c, 5, 65, 127
1, 331064, Note_off_c, 0, 60, 127
1, 331065, Note_on_c, 11, 58, 127
1, 331065, Note_on_c, 3, 75, 127
1, 331240, Note_off_c, 5, 65, 127
1, 331243, Note_off_c, 3, 75, 127
1, 331243, Note_off_c, 11, 58, 127
1, 331244, Note_on_c, 8, 56, 127
1, 331244, Note_on_c, 2, 74, 127
1, 331422, Note_off_c, 8, 56, 127
1, 331423, Note_on_c, 7, 55, 127
1, 331601, Note_off_c, 7, 55, 127
1, 331602, Note_on_c, 8, 56, 127
1, 331738, Note_off_c, 2, 74, 127
1, 331781, Note_on_c, 5, 65, 127
1, 331959, Note_off_c, 5, 65, 127
1, 331959, Note_off_c, 8, 56, 127
1, 331960, Note_on_c, 0, 48, 127
1, 331960, Note_on_c, 7, 67, 127
1, 332138, Note_off_c, 7, 67, 127
1, 332139, Note_on_c, 8, 68, 127
1, 332317, Note_off_c, 8, 68, 127
1, 332317, Note_off_c, 0, 48, 127
1, 332318, Note_on_c, 12, 47, 127
1, 332318, Note_on_c, 7, 67, 127
1, 332497, Note_on_c, 2, 74, 127
1, 332672, Note_off_c, 7, 67, 127
1, 332675, Note_off_c, 2, 74, 127
1, 332675, Note_off_c, 12, 47, 127
1, 332676, Note_on_c, 7, 55, 127
1, 332676, Note_on_c, 3, 75, 127
1, 332854, Note_off_c, 3, 75, 127
1, 332855, Note_on_c, 5, 77, 127
1, 333033, Note_off_c, 5, 77, 127
1, 333034, Note_on_c, 3, 75, 127
1, 333212, Note_off_c, 7, 55, 127
1, 333213, Note_on_c, 5, 53, 127
1, 333213, Note_on_c, 12, 71, 127
1, 333388, Note_off_c, 3, 75, 127
1, 333391, Note_off_c, 12, 71, 127
1, 333391, Note_off_c, 5, 53, 127
1, 333392, Note_on_c, 3, 51, 127
1, 333392, Note_on_c, 0, 72, 127
1, 333570, Note_off_c, 3, 51, 127
1, 333571, Note_on_c, 2, 50, 127
1, 333749, Note_off_c, 2, 50, 127
1, 333750, Note_on_c, 3, 51, 127
1, 333886, Note_off_c, 0, 72, 127
1, 333929, Note_on_c, 7, 67, 127
1, 334107, Note_off_c, 7, 67, 127
1, 334107, Note_off_c, 3, 51, 127
1, 334108, Note_on_c, 7, 43, 127
1, 334108, Note_on_c, 8, 68, 127
1, 334286, Note_off_c, 8, 68, 127
1, 334287, Note_on_c, 11, 70, 127
1, 334465, Note_off_c, 11, 70, 127
1, 334465, Note_off_c, 7, 43, 127
1, 334466, Note_on_c, 0, 36, 127
1, 334466, Note_on_c, 10, 69, 127
1, 334645, Note_on_c, 3, 75, 127
1, 334820, Note_off_c, 10, 69, 127
1, 334823, Note_off_c, 3, 75, 127
1, 334824, Note_on_c, 0, 48, 127
1, 334824, Note_on_c, 5, 77, 127
1, 334876, Note_off_c, 0, 36, 127
1, 335002, Note_off_c, 5, 77, 127
1, 335003, Note_on_c, 7, 79, 127
1, 335181, Note_off_c, 7, 79, 127
1, 335181, Note_off_c, 0, 48, 127
1, 335182, Note_on_c, 2, 50, 127
1, 335182, Note_on_c, 12, 71, 127
1, 335361, Note_on_c, 5, 77, 127
1, 335536, Note_off_c, 12, 71, 127
1, 335539, Note_off_c, 5, 77, 127
1, 335540, Note_on_c, 2, 38, 127
1, 335540, Note_on_c, 7, 79, 127
1, 335718, Note_off_c, 7, 79, 127
1, 335718, Note_off_c, 2, 50, 127
1, 335719, Note_on_c, 8, 80, 127
1, 335897, Note_off_c, 8, 80, 127
1, 335897, Note_off_c, 2, 38, 127
1, 335898, Note_on_c, 3, 39, 127
1, 335898, Note_on_c, 0, 72, 127
1, 336077, Note_on_c, 7, 79, 127
1, 336252, Note_off_c, 0, 72, 127
1, 336255, Note_off_c, 7, 79, 127
1, 336256, Note_on_c, 3, 51, 127
1, 336256, Note_on_c, 5, 77, 127
1, 336308, Note_off_c, 3, 39, 127
1, 336434, Note_off_c, 5, 77, 127
1, 336435, Note_on_c, 3, 75, 127
1, 336613, Note_off_c, 3, 75, 127
1, 336613, Note_off_c, 3, 51, 127
1, 336614, Note_on_c, 5, 53, 127
1, 336614, Note_on_c, 2, 74, 127
1, 336792, Note_off_c, 2, 74, 127
1, 336792, Note_off_c, 5, 53, 127
1, 336793, Note_on_c, 7, 55, 127
1, 336793, Note_on_c, 3, 75, 127
1, 336971, Note_off_c, 3, 75, 127
1, 336971, Note_off_c, 7, 55, 127
1, 336972, Note_on_c, 8, 56, 127
1, 336972, Note_on_c, 5, 77, 127
1, 337150, Note_off_c, 5, 77, 127
1, 337150, Note_off_c, 8, 56, 127
1, 337151, Note_on_c, 5, 53, 127
1, 337151, Note_on_c, 2, 74, 127
1, 337329, Note_off_c, 2, 74, 127
1, 337329, Note_off_c, 5, 53, 127
1, 337330, Note_on_c, 7, 55, 127
1, 337330, Note_on_c, 0, 72, 127
1, 337449, Note_off_c, 0, 72, 127
1, 337449, Note_on_c, 12, 71, 127
1, 337508, Note_off_c, 7, 55, 127
1, 337509, Note_off_c, 12, 71, 127
1, 337509, Note_on_c, 10, 57, 127
1, 337509, Note_on_c, 0, 72, 127
1, 337569, Note_off_c, 0, 72, 127
1, 337569, Note_on_c, 12, 71, 127
1, 337629, Note_off_c, 12, 71, 127
1, 337629, Note_on_c, 0, 72, 127
1, 337688, Note_off_c, 10, 57, 127
1, 337689, Note_off_c, 0, 72, 127
1, 337689, Note_on_c, 12, 59, 127
1, 337689, Note_on_c, 12, 71, 127
1, 337749, Note_off_c, 12, 71, 127
1, 337749, Note_on_c, 0, 72, 127
1, 337809, Note_off_c, 0, 72, 127
1, 337809, Note_on_c, 12, 71, 127
1, 337868, Note_off_c, 12, 59, 127
1, 337869, Note_off_c, 12, 71, 127
1, 337869, Note_on_c, 0, 60, 127
1, 337869, Note_on_c, 10, 69, 127
1, 338047, Note_off_c, 10, 69, 127
1, 338047, Note_off_c, 0, 60, 127
1, 338048, Note_on_c, 2, 62, 127
1, 338048, Note_on_c, 7, 67, 127
1, 338226, Note_off_c, 2, 62, 127
1, 338227, Note_on_c, 5, 65, 127
1, 338405, Note_off_c, 5, 65, 127
1, 338406, Note_on_c, 3, 63, 127
1, 338584, Note_off_c, 3, 63, 127
1, 338584, Note_off_c, 7, 67, 127
1, 338585, Note_on_c, 2, 62, 127
1, 338763, Note_off_c, 2, 62, 127
1, 338764, Note_on_c, 0, 60, 127
1, 338764, Note_on_c, 3, 75, 127
1, 338943, Note_on_c, 7, 67, 127
1, 339118, Note_off_c, 3, 75, 127
1, 339121, Note_off_c, 7, 67, 127
1, 339122, Note_on_c, 0, 48, 127
1, 339122, Note_on_c, 8, 68, 127
1, 339300, Note_off_c, 8, 68, 127
1, 339300, Note_off_c, 0, 60, 127
1, 339301, Note_on_c, 11, 70, 127
1, 339479, Note_off_c, 11, 70, 127
1, 339479, Note_off_c, 0, 48, 127
1, 339480, Note_on_c, 5, 53, 127
1, 339480, Note_on_c, 8, 68, 127
1, 339658, Note_off_c, 8, 68, 127
1, 339658, Note_off_c, 5, 53, 127
1, 339659, Note_on_c, 7, 55, 127
1, 339659, Note_on_c, 7, 67, 127
1, 339837, Note_off_c, 7, 67, 127
1, 339837, Note_off_c, 7, 55, 127
1, 339838, Note_on_c, 8, 56, 127
1, 339838, Note_on_c, 5, 65, 127
1, 340016, Note_off_c, 8, 56, 127
1, 340017, Note_on_c, 11, 58, 127
1, 340195, Note_off_c, 11, 58, 127
1, 340196, Note_on_c, 0, 60, 127
1, 340341, Note_off_c, 5, 65, 127
1, 340374, Note_on_c, 0, 72, 127
1, 340552, Note_off_c, 0, 72, 127
1, 340552, Note_off_c, 0, 60, 127
1, 340553, Note_on_c, 5, 53, 127
1, 340553, Note_on_c, 2, 74, 127
1, 340731, Note_off_c, 2, 74, 127
1, 340732, Note_on_c, 3, 75, 127
1, 340910, Note_off_c, 3, 75, 127
1, 340910, Note_off_c, 5, 53, 127
1, 340911, Note_on_c, 11, 58, 127
1, 340911, Note_on_c, 2, 74, 127
1, 341090, Note_on_c, 5, 65, 127
1, 341265, Note_off_c, 2, 74, 127
1, 341268, Note_off_c, 5, 65, 127
1, 341269, Note_on_c, 11, 46, 127
1, 341269, Note_on_c, 7, 67, 127
1, 341447, Note_off_c, 7, 67, 127
1, 341447, Note_off_c, 11, 58, 127
1, 341448, Note_on_c, 8, 68, 127
1, 341626, Note_off_c, 8, 68, 127
1, 341626, Note_off_c, 11, 46, 127
1, 341627, Note_on_c, 3, 51, 127
1, 341627, Note_on_c, 7, 67, 127
1, 341805, Note_off_c, 7, 67, 127
1, 341805, Note_off_c, 3, 51, 127
1, 341806, Note_on_c, 5, 53, 127
1, 341806, Note_on_c, 5, 65, 127
1, 341984, Note_off_c, 5, 65, 127
1, 341984, Note_off_c, 5, 53, 127
1, 341985, Note_on_c, 7, 55, 127
1, 341985, Note_on_c, 3, 63, 127
1, 342163, Note_off_c, 7, 55, 127
1, 342164, Note_on_c, 8, 56, 127
1, 342342, Note_off_c, 8, 56, 127
1, 342343, Note_on_c, 11, 58, 127
1, 342488, Note_off_c, 3, 63, 127
1, 342521, Note_on_c, 11, 70, 127
1, 342699, Note_off_c, 11, 70, 127
1, 342699, Note_off_c, 11, 58, 127
1, 342700, Note_on_c, 3, 51, 127
1, 342700, Note_on_c, 0, 72, 127
1, 342878, Note_off_c, 0, 72, 127
1, 342879, Note_on_c, 1, 73, 127
1, 343057, Note_off_c, 1, 73, 127
1, 343057, Note_off_c, 3, 51, 127
1, 343058, Note_on_c, 8, 56, 127
1, 343058, Note_on_c, 0, 72, 127
1, 343237, Note_on_c, 7, 67, 127
1, 343412, Note_off_c, 0, 72, 127
1, 343415, Note_off_c, 7, 67, 127
1, 343416, Note_on_c, 8, 44, 127
1, 343416, Note_on_c, 5, 65, 127
1, 343594, Note_off_c, 5, 65, 127
1, 343594, Note_off_c, 8, 56, 127
1, 343595, Note_on_c, 3, 63, 127
1, 343773, Note_off_c, 3, 63, 127
1, 343773, Note_off_c, 8, 44, 127
1, 343774, Note_on_c, 11, 46, 127
1, 343774, Note_on_c, 2, 62, 127
1, 343952, Note_off_c, 11, 46, 127
1, 343953, Note_on_c, 8, 56, 127
1, 343953, Note_on_c, 0, 72, 127
1, 344128, Note_off_c, 2, 62, 127
1, 344131, Note_off_c, 0, 72, 127
1, 344131, Note_off_c, 8, 56, 127
1, 344132, Note_on_c, 7, 55, 127
1, 344132, Note_on_c, 11, 70, 127
1, 344310, Note_off_c, 11, 70, 127
1, 344310, Note_off_c, 7, 55, 127
1, 344311, Note_on_c, 5, 53, 127
1, 344311, Note_on_c, 8, 68, 127
1, 344489, Note_off_c, 8, 68, 127
1, 344489, Note_off_c, 5, 53, 127
1, 344490, Note_on_c, 3, 51, 127
1, 344490, Note_on_c, 5, 77, 127
1, 344668, Note_off_c, 3, 51, 127
1, 344669, Note_on_c, 2, 50, 127
1, 344847, Note_off_c, 2, 50, 127
1, 344848, Note_on_c, 0, 48, 127
1, 344937, Note_off_c, 5, 77, 127
1, 345025, Note_off_c, 0, 48, 127
1, 345026, Note_on_c, 11, 46, 127
1, 345027, Note_on_c, 11, 58, 127
1, 345027, Note_on_c, 2, 62, 127
1, 345027, Note_on_c, 5, 65, 127
1, 345027, Note_on_c, 8, 68, 127
1, 345204, Note_off_c, 11, 46, 127
1, 345205, Note_off_c, 8, 68, 127
1, 345205, Note_off_c, 5, 65, 127
1, 345205, Note_off_c, 2, 62, 127
1, 345205, Note_off_c, 11, 58, 127
1, 345205, Note_on_c, 3, 51, 127
1, 345205, Note_on_c, 5, 65, 127
1, 345205, Note_on_c, 8, 68, 127
1, 345205, Note_on_c, 11, 58, 127
1, 345205, Note_on_c, 2, 62, 127
1, 345383, Note_off_c, 3, 51, 127
1, 345384, Note_on_c, 7, 43, 127
1, 345562, Note_off_c, 7, 43, 127
1, 345563, Note_on_c, 8, 44, 127
1, 345741, Note_off_c, 8, 44, 127
1, 345742, Note_on_c, 11, 46, 127
1, 345920, Note_off_c, 11, 46, 127
1, 345920, Note_off_c, 2, 62, 127
1, 345920, Note_off_c, 11, 58, 127
1, 345920, Note_off_c, 8, 68, 127
1, 345920, Note_off_c, 5, 65, 127
1, 345921, Note_on_c, 3, 39, 127
1, 345921, Note_on_c, 3, 63, 127
1, 345921, Note_on_c, 7, 67, 127
1, 345921, Note_on_c, 11, 58, 127
1, 346277, Note_off_c, 3, 39, 127
1, 346278, Note_on_c, 7, 43, 127
1, 346456, Note_off_c, 7, 43, 127
1, 346457, Note_on_c, 11, 46, 127
1, 346635, Note_off_c, 11, 46, 127
1, 346636, Note_on_c, 3, 51, 127
1, 347131, Note_off_c, 11, 58, 127
1, 347131, Note_off_c, 7, 67, 127
1, 347131, Note_off_c, 3, 63, 127
1, 347350, Note_off_c, 3, 51, 127
1, 347351, Note_on_c, 3, 51, 127
1, 347351, Note_on_c, 11, 70, 127
1, 347529, Note_off_c, 11, 70, 127
1, 347529, Note_off_c, 3, 51, 127
1, 347530, Note_on_c, 7, 55, 127
1, 347530, Note_on_c, 3, 75, 127
1, 347708, Note_off_c, 3, 75, 127
1, 347708, Note_off_c, 7, 55, 127
1, 347709, Note_on_c, 11, 58, 127
1, 347709, Note_on_c, 7, 79, 127
1, 347887, Note_off_c, 11, 58, 127
1, 347888, Note_on_c, 2, 62, 127
1, 348066, Note_off_c, 2, 62, 127
1, 348067, Note_on_c, 3, 63, 127
1, 348212, Note_off_c, 7, 79, 127
1, 348245, Note_off_c, 3, 63, 127
1, 348246, Note_on_c, 7, 67, 127
1, 348246, Note_on_c, 0, 72, 127
1, 348424, Note_off_c, 0, 72, 127
1, 348424, Note_off_c, 7, 67, 127
1, 348425, Note_on_c, 3, 51, 127
1, 348425, Note_on_c, 11, 70, 127
1, 348603, Note_off_c, 11, 70, 127
1, 348604, Note_on_c, 8, 68, 127
1, 348782, Note_off_c, 8, 68, 127
1, 348783, Note_on_c, 11, 70, 127
1, 348947, Note_off_c, 3, 51, 127
1, 348961, Note_off_c, 11, 70, 127
1, 348962, Note_on_c, 7, 55, 127
1, 348962, Note_on_c, 3, 75, 127
1, 349140, Note_off_c, 3, 75, 127
1, 349140, Note_off_c, 7, 55, 127
1, 349141, Note_on_c, 5, 53, 127
1, 349141, Note_on_c, 5, 77, 127
1, 349319, Note_off_c, 5, 77, 127
1, 349319, Note_off_c, 5, 53, 127
1, 349320, Note_on_c, 3, 51, 127
1, 349320, Note_on_c, 7, 79, 127
1, 349498, Note_off_c, 7, 79, 127
1, 349498, Note_off_c, 3, 51, 127
1, 349499, Note_on_c, 2, 50, 127
1, 349499, Note_on_c, 5, 77, 127
1, 349677, Note_off_c, 5, 77, 127
1, 349677, Note_off_c, 2, 50, 127
1, 349678, Note_on_c, 5, 53, 127
1, 349678, Note_on_c, 10, 81, 127
1, 349856, Note_off_c, 10, 81, 127
1, 349856, Note_off_c, 5, 53, 127
1, 349857, Note_on_c, 7, 55, 127
1, 349857, Note_on_c, 11, 82, 127
1, 350035, Note_off_c, 7, 55, 127
1, 350036, Note_on_c, 10, 57, 127
1, 350214, Note_off_c, 10, 57, 127
1, 350215, Note_on_c, 11, 58, 127
1, 350360, Note_off_c, 11, 82, 127
1, 350393, Note_off_c, 11, 58, 127
1, 350394, Note_on_c, 2, 62, 127
1, 350394, Note_on_c, 7, 79, 127
1, 350572, Note_off_c, 7, 79, 127
1, 350572, Note_off_c, 2, 62, 127
1, 350573, Note_on_c, 2, 50, 127
1, 350573, Note_on_c, 5, 77, 127
1, 350751, Note_off_c, 5, 77, 127
1, 350752, Note_on_c, 3, 75, 127
1, 350930, Note_off_c, 3, 75, 127
1, 350931, Note_on_c, 5, 77, 127
1, 351095, Note_off_c, 2, 50, 127
1, 351109, Note_off_c, 5, 77, 127
1, 351110, Note_on_c, 5, 53, 127
1, 351110, Note_on_c, 11, 70, 127
1, 351288, Note_off_c, 11, 70, 127
1, 351288, Note_off_c, 5, 53, 127
1, 351289, Note_on_c, 3, 51, 127
1, 351289, Note_on_c, 10, 69, 127
1, 351467, Note_off_c, 10, 69, 127
1, 351467, Note_off_c, 3, 51, 127
1, 351468, Note_on_c, 2, 50, 127
1, 351468, Note_on_c, 11, 70, 127
1, 351646, Note_off_c, 11, 70, 127
1, 351646, Note_off_c, 2, 50, 127
1, 351647, Note_on_c, 0, 48, 127
1, 351647, Note_on_c, 3, 75, 127
1, 351825, Note_off_c, 3, 75, 127
1, 351825, Note_off_c, 0, 48, 127
1, 351826, Note_on_c, 7, 55, 127
1, 351826, Note_on_c, 2, 74, 127
1, 352004, Note_off_c, 2, 74, 127
1, 352004, Note_off_c, 7, 55, 127
1, 352005, Note_on_c, 10, 57, 127
1, 352005, Note_on_c, 0, 72, 127
1, 352183, Note_off_c, 10, 57, 127
1, 352184, Note_on_c, 11, 58, 127
1, 352359, Note_off_c, 0, 72, 127
1, 352362, Note_off_c, 11, 58, 127
1, 352363, Note_on_c, 10, 57, 127
1, 352541, Note_off_c, 10, 57, 127
1, 352542, Note_on_c, 11, 58, 127
1, 352542, Note_on_c, 7, 79, 127
1, 352720, Note_off_c, 7, 79, 127
1, 352720, Note_off_c, 11, 58, 127
1, 352721, Note_on_c, 0, 60, 127
1, 352721, Note_on_c, 5, 77, 127
1, 352899, Note_off_c, 5, 77, 127
1, 352900, Note_on_c, 3, 75, 127
1, 353078, Note_off_c, 3, 75, 127
1, 353079, Note_on_c, 10, 81, 127
1, 353224, Note_off_c, 0, 60, 127
1, 353257, Note_off_c, 10, 81, 127
1, 353258, Note_on_c, 3, 51, 127
1, 353258, Note_on_c, 11, 82, 127
1, 353436, Note_off_c, 11, 82, 127
1, 353436, Note_off_c, 3, 51, 127
1, 353437, Note_on_c, 2, 50, 127
1, 353437, Note_on_c, 0, 84, 127
1, 353615, Note_off_c, 2, 50, 127
1, 353616, Note_on_c, 0, 48, 127
1, 353794, Note_off_c, 0, 48, 127
1, 353795, Note_on_c, 11, 46, 127
1, 353940, Note_off_c, 0, 84, 127
1, 353973, Note_off_c, 11, 46, 127
1, 353974, Note_on_c, 5, 53, 127
1, 353974, Note_on_c, 3, 75, 127
1, 354152, Note_off_c, 3, 75, 127
1, 354152, Note_off_c, 5, 53, 127
1, 354153, Note_on_c, 7, 55, 127
1, 354153, Note_on_c, 2, 74, 127
1, 354331, Note_off_c, 2, 74, 127
1, 354331, Note_off_c, 7, 55, 127
1, 354332, Note_on_c, 10, 57, 127
1, 354332, Note_on_c, 0, 72, 127
1, 354510, Note_off_c, 0, 72, 127
1, 354510, Note_off_c, 10, 57, 127
1, 354511, Note_on_c, 11, 58, 127
1, 354511, Note_on_c, 2, 74, 127
1, 354689, Note_off_c, 2, 74, 127
1, 354689, Note_off_c, 11, 58, 127
1, 354690, Note_on_c, 2, 62, 127
1, 354690, Note_on_c, 5, 77, 127
1, 354868, Note_off_c, 5, 77, 127
1, 354868, Note_off_c, 2, 62, 127
1, 354869, Note_on_c, 11, 46, 127
1, 354869, Note_on_c, 2, 74, 127
1, 355047, Note_off_c, 2, 74, 127
1, 355048, Note_on_c, 10, 69, 127
1, 355226, Note_off_c, 10, 69, 127
1, 355227, Note_on_c, 11, 70, 127
1, 355391, Note_off_c, 11, 46, 127
1, 355406, Note_on_c, 8, 56, 127
1, 355584, Note_off_c, 8, 56, 127
1, 355585, Note_on_c, 7, 55, 127
1, 355763, Note_off_c, 7, 55, 127
1, 355764, Note_on_c, 5, 53, 127
1, 355942, Note_off_c, 5, 53, 127
1, 355942, Note_off_c, 11, 70, 127
1, 355943, Note_on_c, 4, 52, 127
1, 356122, Note_on_c, 1, 73, 127
1, 356300, Note_off_c, 1, 73, 127
1, 356300, Note_off_c, 4, 52, 127
1, 356301, Note_on_c, 7, 55, 127
1, 356301, Note_on_c, 0, 72, 127
1, 356479, Note_off_c, 0, 72, 127
1, 356480, Note_on_c, 11, 70, 127
1, 356658, Note_off_c, 11, 70, 127
1, 356658, Note_off_c, 7, 55, 127
1, 356659, Note_on_c, 0, 60, 127
1, 356659, Note_on_c, 7, 79, 127
1, 356838, Note_on_c, 11, 70, 127
1, 357013, Note_off_c, 7, 79, 127
1, 357016, Note_off_c, 11, 70, 127
1, 357016, Note_off_c, 0, 60, 127
1, 357017, Note_on_c, 4, 52, 127
1, 357017, Note_on_c, 8, 68, 127
1, 357195, Note_off_c, 8, 68, 127
1, 357196, Note_on_c, 7, 67, 127
1, 357374, Note_off_c, 7, 67, 127
1, 357374, Note_off_c, 4, 52, 127
1, 357375, Note_on_c, 5, 53, 127
1, 357375, Note_on_c, 8, 68, 127
1, 357554, Note_on_c, 0, 72, 127
1, 357729, Note_off_c, 8, 68, 127
1, 357732, Note_off_c, 0, 72, 127
1, 357732, Note_off_c, 5, 53, 127
1, 357733, Note_on_c, 0, 60, 127
1, 357733, Note_on_c, 5, 77, 127
1, 357911, Note_off_c, 5, 77, 127
1, 357912, Note_on_c, 7, 79, 127
1, 358090, Note_off_c, 7, 79, 127
1, 358090, Note_off_c, 0, 60, 127
1, 358091, Note_on_c, 3, 63, 127
1, 358091, Note_on_c, 10, 81, 127
1, 358269, Note_off_c, 10, 81, 127
1, 358270, Note_on_c, 6, 78, 127
1, 358448, Note_off_c, 6, 78, 127
1, 358448, Note_off_c, 3, 63, 127
1, 358449, Note_on_c, 6, 66, 127
1, 358449, Note_on_c, 5, 77, 127
1, 358627, Note_off_c, 5, 77, 127
1, 358628, Note_on_c, 3, 75, 127
1, 358806, Note_off_c, 3, 75, 127
1, 358806, Note_off_c, 6, 66, 127
1, 358807, Note_on_c, 10, 57, 127
1, 358807, Note_on_c, 0, 84, 127
1, 358986, Note_on_c, 3, 75, 127
1, 359161, Note_off_c, 0, 84, 127
1, 359164, Note_off_c, 3, 75, 127
1, 359164, Note_off_c, 10, 57, 127
1, 359165, Note_on_c, 5, 65, 127
1, 359165, Note_on_c, 1, 73, 127
1, 359343, Note_off_c, 1, 73, 127
1, 359344, Note_on_c, 0, 72, 127
1, 359522, Note_off_c, 0, 72, 127
1, 359522, Note_off_c, 5, 65, 127
1, 359523, Note_on_c, 11, 58, 127
1, 359523, Note_on_c, 1, 73, 127
1, 359702, Note_on_c, 5, 77, 127
1, 359877, Note_off_c, 1, 73, 127
1, 359880, Note_off_c, 5, 77, 127
1, 359880, Note_off_c, 11, 58, 127
1, 359881, Note_on_c, 1, 61, 127
1, 359881, Note_on_c, 11, 82, 127
1, 360059, Note_off_c, 11, 82, 127
1, 360060, Note_on_c, 8, 80, 127
1, 360238, Note_off_c, 8, 80, 127
1, 360238, Note_off_c, 1, 61, 127
1, 360239, Note_on_c, 11, 58, 127
1, 360239, Note_on_c, 6, 78, 127
1, 360417, Note_off_c, 6, 78, 127
1, 360418, Note_on_c, 5, 77, 127
1, 360596, Note_off_c, 5, 77, 127
1, 360596, Note_off_c, 11, 58, 127
1, 360597, Note_on_c, 7, 55, 127
1, 360597, Note_on_c, 4, 76, 127
1, 360775, Note_off_c, 4, 76, 127
1, 360776, Note_on_c, 5, 77, 127
1, 360954, Note_off_c, 5, 77, 127
1, 360954, Note_off_c, 7, 55, 127
1, 360955, Note_on_c, 8, 56, 127
1, 360955, Note_on_c, 1, 73, 127
1, 361133, Note_off_c, 1, 73, 127
1, 361134, Note_on_c, 0, 72, 127
1, 361312, Note_off_c, 0, 72, 127
1, 361312, Note_off_c, 8, 56, 127
1, 361313, Note_on_c, 5, 53, 127
1, 361313, Note_on_c, 12, 71, 127
1, 361491, Note_off_c, 12, 71, 127
1, 361492, Note_on_c, 0, 72, 127
1, 361670, Note_off_c, 0, 72, 127
1, 361670, Note_off_c, 5, 53, 127
1, 361671, Note_on_c, 0, 60, 127
1, 361671, Note_on_c, 8, 80, 127
1, 361849, Note_off_c, 8, 80, 127
1, 361850, Note_on_c, 7, 79, 127
1, 362028, Note_off_c, 7, 79, 127
1, 362029, Note_on_c, 0, 48, 127
1, 362029, Note_on_c, 5, 77, 127
1, 362118, Note_off_c, 0, 60, 127
1, 362206, Note_off_c, 5, 77, 127
1, 362207, Note_on_c, 4, 76, 127
1, 362385, Note_off_c, 4, 76, 127
1, 362385, Note_off_c, 0, 48, 127
1, 362386, Note_on_c, 5, 53, 127
1, 362386, Note_on_c, 5, 77, 127
1, 362565, Note_on_c, 0, 72, 127
1, 362743, Note_off_c, 0, 72, 127
1, 362744, Note_on_c, 5, 41, 127
1, 362744, Note_on_c, 1, 73, 127
1, 362922, Note_off_c, 1, 73, 127
1, 362922, Note_off_c, 5, 77, 127
1, 362923, Note_on_c, 4, 76, 127
1, 363101, Note_off_c, 4, 76, 127
1, 363101, Note_off_c, 5, 41, 127
1, 363101, Note_off_c, 5, 53, 127
1, 363102, Note_on_c, 8, 44, 127
1, 363102, Note_on_c, 5, 77, 127
1, 363281, Note_on_c, 11, 70, 127
1, 363459, Note_off_c, 11, 70, 127
1, 363459, Note_off_c, 8, 44, 127
1, 363460, Note_on_c, 0, 48, 127
1, 363460, Note_on_c, 8, 68, 127
1, 363638, Note_off_c, 8, 68, 127
1, 363639, Note_on_c, 7, 67, 127
1, 363817, Note_off_c, 7, 67, 127
1, 363817, Note_off_c, 0, 48, 127
1, 363817, Note_off_c, 5, 77, 127
1, 363818, Note_on_c, 5, 53, 127
1, 363818, Note_on_c, 5, 65, 127
1, 364174, Note_off_c, 5, 53, 127
1, 364175, Note_on_c, 3, 51, 127
1, 364531, Note_off_c, 3, 51, 127
1, 364531, Note_off_c, 5, 65, 127
1, 364532, Note_on_c, 2, 50, 127
1, 364711, Note_on_c, 3, 75, 127
1, 364889, Note_off_c, 3, 75, 127
1, 364889, Note_off_c, 2, 50, 127
1, 364890, Note_on_c, 5, 53, 127
1, 364890, Note_on_c, 2, 74, 127
1, 365068, Note_off_c, 2, 74, 127
1, 365069, Note_on_c, 0, 72, 127
1, 365247, Note_off_c, 0, 72, 127
1, 365247, Note_off_c, 5, 53, 127
1, 365248, Note_on_c, 11, 46, 127
1, 365248, Note_on_c, 2, 74, 127
1, 365427, Note_on_c, 8, 80, 127
1, 365509, Note_off_c, 2, 74, 127
1, 365605, Note_off_c, 11, 46, 127
1, 365606, Note_on_c, 2, 50, 127
1, 365606, Note_on_c, 11, 70, 127
1, 365688, Note_off_c, 8, 80, 127
1, 365785, Note_on_c, 5, 77, 127
1, 365867, Note_off_c, 11, 70, 127
1, 365963, Note_off_c, 5, 77, 127
1, 365963, Note_off_c, 2, 50, 127
1, 365964, Note_on_c, 3, 39, 127
1, 365964, Note_on_c, 7, 79, 127
1, 366143, Note_on_c, 8, 68, 127
1, 366318, Note_off_c, 7, 79, 127
1, 366321, Note_off_c, 8, 68, 127
1, 366321, Note_off_c, 3, 39, 127
1, 366322, Note_on_c, 2, 50, 127
1, 366322, Note_on_c, 7, 67, 127
1, 366500, Note_off_c, 7, 67, 127
1, 366501, Note_on_c, 5, 65, 127
1, 366679, Note_off_c, 5, 65, 127
1, 366679, Note_off_c, 2, 50, 127
1, 366680, Note_on_c, 0, 48, 127
1, 366680, Note_on_c, 3, 63, 127
1, 366859, Note_on_c, 2, 74, 127
1, 367034, Note_off_c, 3, 63, 127
1, 367037, Note_off_c, 2, 74, 127
1, 367037, Note_off_c, 0, 48, 127
1, 367038, Note_on_c, 3, 51, 127
1, 367038, Note_on_c, 0, 72, 127
1, 367216, Note_off_c, 0, 72, 127
1, 367217, Note_on_c, 12, 71, 127
1, 367395, Note_off_c, 12, 71, 127
1, 367395, Note_off_c, 3, 51, 127
1, 367396, Note_on_c, 8, 44, 127
1, 367396, Note_on_c, 0, 72, 127
1, 367575, Note_on_c, 7, 79, 127
1, 367657, Note_off_c, 0, 72, 127
1, 367753, Note_off_c, 8, 44, 127
1, 367754, Note_on_c, 0, 48, 127
1, 367754, Note_on_c, 8, 68, 127
1, 367836, Note_off_c, 7, 79, 127
1, 367933, Note_on_c, 3, 75, 127
1, 368015, Note_off_c, 8, 68, 127
1, 368111, Note_off_c, 3, 75, 127
1, 368111, Note_off_c, 0, 48, 127
1, 368112, Note_on_c, 2, 38, 127
1, 368112, Note_on_c, 5, 77, 127
1, 368291, Note_on_c, 7, 67, 127
1, 368466, Note_off_c, 5, 77, 127
1, 368469, Note_off_c, 7, 67, 127
1, 368469, Note_off_c, 2, 38, 127
1, 368470, Note_on_c, 0, 48, 127
1, 368470, Note_on_c, 5, 65, 127
1, 368648, Note_off_c, 5, 65, 127
1, 368649, Note_on_c, 3, 63, 127
1, 368827, Note_off_c, 3, 63, 127
1, 368827, Note_off_c, 0, 48, 127
1, 368828, Note_on_c, 12, 47, 127
1, 368828, Note_on_c, 2, 62, 127
1, 369007, Note_on_c, 0, 72, 127
1, 369182, Note_off_c, 2, 62, 127
1, 369185, Note_off_c, 0, 72, 127
1, 369185, Note_off_c, 12, 47, 127
1, 369186, Note_on_c, 2, 50, 127
1, 369186, Note_on_c, 12, 71, 127
1, 369364, Note_off_c, 12, 71, 127
1, 369365, Note_on_c, 10, 69, 127
1, 369543, Note_off_c, 10, 69, 127
1, 369543, Note_off_c, 2, 50, 127
1, 369544, Note_on_c, 7, 43, 127
1, 369544, Note_on_c, 12, 71, 127
1, 369723, Note_on_c, 5, 77, 127
1, 369805, Note_off_c, 12, 71, 127
1, 369901, Note_off_c, 7, 43, 127
1, 369902, Note_on_c, 12, 47, 127
1, 369902, Note_on_c, 7, 67, 127
1, 369984, Note_off_c, 5, 77, 127
1, 370081, Note_on_c, 2, 74, 127
1, 370163, Note_off_c, 7, 67, 127
1, 370259, Note_off_c, 2, 74, 127
1, 370259, Note_off_c, 12, 47, 127
1, 370260, Note_on_c, 0, 36, 127
1, 370260, Note_on_c, 3, 75, 127
1, 370439, Note_on_c, 5, 65, 127
1, 370614, Note_off_c, 3, 75, 127
1, 370617, Note_off_c, 5, 65, 127
1, 370617, Note_off_c, 0, 36, 127
1, 370618, Note_on_c, 12, 47, 127
1, 370618, Note_on_c, 3, 63, 127
1, 370796, Note_off_c, 3, 63, 127
1, 370797, Note_on_c, 2, 62, 127
1, 370975, Note_off_c, 2, 62, 127
1, 370975, Note_off_c, 12, 47, 127
1, 370976, Note_on_c, 10, 45, 127
1, 370976, Note_on_c, 0, 60, 127
1, 371155, Note_on_c, 7, 67, 127
1, 371237, Note_off_c, 0, 60, 127
1, 371333, Note_off_c, 7, 67, 127
1, 371333, Note_off_c, 10, 45, 127
1, 371334, Note_on_c, 2, 38, 127
1, 371334, Note_on_c, 6, 66, 127
1, 371512, Note_off_c, 6, 66, 127
1, 371513, Note_on_c, 10, 69, 127
1, 371691, Note_off_c, 10, 69, 127
1, 371691, Note_off_c, 2, 38, 127
1, 371692, Note_on_c, 2, 50, 127
1, 371692, Note_on_c, 0, 72, 127
1, 371871, Note_on_c, 10, 69, 127
1, 371953, Note_off_c, 0, 72, 127
1, 372049, Note_off_c, 10, 69, 127
1, 372049, Note_off_c, 2, 50, 127
1, 372050, Note_on_c, 7, 43, 127
1, 372050, Note_on_c, 12, 71, 127
1, 372228, Note_off_c, 12, 71, 127
1, 372229, Note_on_c, 2, 74, 127
1, 372407, Note_off_c, 2, 74, 127
1, 372407, Note_off_c, 7, 43, 127
1, 372408, Note_on_c, 7, 55, 127
1, 372408, Note_on_c, 7, 67, 127
1, 372588, Note_on_c, 5, 77, 127
1, 372764, Note_off_c, 7, 67, 127
1, 372767, Note_off_c, 5, 77, 127
1, 372767, Note_off_c, 7, 55, 127
1, 372768, Note_on_c, 12, 59, 127
1, 372768, Note_on_c, 3, 75, 127
1, 372947, Note_off_c, 3, 75, 127
1, 372948, Note_on_c, 2, 74, 127
1, 373127, Note_off_c, 2, 74, 127
1, 373127, Note_off_c, 12, 59, 127
1, 373128, Note_on_c, 0, 60, 127
1, 373128, Note_on_c, 3, 75, 127
1, 373307, Note_off_c, 3, 75, 127
1, 373308, Note_on_c, 7, 79, 127
1, 373487, Note_off_c, 7, 79, 127
1, 373487, Note_off_c, 0, 60, 127
1, 373488, Note_on_c, 2, 62, 127
1, 373488, Note_on_c, 0, 72, 127
1, 373667, Note_off_c, 0, 72, 127
1, 373668, Note_on_c, 12, 71, 127
1, 373847, Note_off_c, 12, 71, 127
1, 373847, Note_off_c, 2, 62, 127
1, 373848, Note_on_c, 3, 63, 127
1, 373848, Note_on_c, 0, 72, 127
1, 374027, Note_off_c, 3, 63, 127
1, 374028, Note_on_c, 7, 67, 127
1, 374207, Note_off_c, 7, 67, 127
1, 374208, Note_on_c, 0, 60, 127
1, 374387, Note_off_c, 0, 60, 127
1, 374388, Note_on_c, 11, 58, 127
1, 374567, Note_off_c, 11, 58, 127
1, 374567, Note_off_c, 0, 72, 127
1, 374568, Note_on_c, 8, 56, 127
1, 374749, Note_on_c, 3, 75, 127
1, 374929, Note_off_c, 3, 75, 127
1, 374929, Note_off_c, 8, 56, 127
1, 374930, Note_on_c, 11, 58, 127
1, 374930, Note_on_c, 8, 68, 127
1, 375110, Note_off_c, 8, 68, 127
1, 375111, Note_on_c, 7, 67, 127
1, 375291, Note_off_c, 7, 67, 127
1, 375291, Note_off_c, 11, 58, 127
1, 375292, Note_on_c, 0, 60, 127
1, 375292, Note_on_c, 8, 68, 127
1, 375472, Note_off_c, 0, 60, 127
1, 375473, Note_on_c, 3, 63, 127
1, 375653, Note_off_c, 3, 63, 127
1, 375654, Note_on_c, 8, 56, 127
1, 375834, Note_off_c, 8, 56, 127
1, 375835, Note_on_c, 7, 55, 127
1, 376015, Note_off_c, 7, 55, 127
1, 376015, Note_off_c, 8, 68, 127
1, 376016, Note_on_c, 5, 53, 127
1, 376197, Note_on_c, 0, 72, 127
1, 376377, Note_off_c, 0, 72, 127
1, 376377, Note_off_c, 5, 53, 127
1, 376378, Note_on_c, 7, 55, 127
1, 376378, Note_on_c, 5, 65, 127
1, 376558, Note_off_c, 5, 65, 127
1, 376559, Note_on_c, 4, 64, 127
1, 376739, Note_off_c, 4, 64, 127
1, 376739, Note_off_c, 7, 55, 127
1, 376740, Note_on_c, 8, 56, 127
1, 376740, Note_on_c, 5, 65, 127
1, 376923, Note_off_c, 8, 56, 127
1, 376924, Note_on_c, 0, 60, 127
1, 377107, Note_off_c, 0, 60, 127
1, 377108, Note_on_c, 5, 53, 127
1, 377291, Note_off_c, 5, 53, 127
1, 377292, Note_on_c, 3, 51, 127
1, 377475, Note_off_c, 3, 51, 127
1, 377475, Note_off_c, 5, 65, 127
1, 377476, Note_on_c, 1, 49, 127
1, 377660, Note_on_c, 8, 68, 127
1, 377843, Note_off_c, 8, 68, 127
1, 377843, Note_off_c, 1, 49, 127
1, 377844, Note_on_c, 5, 53, 127
1, 377844, Note_on_c, 1, 73, 127
1, 378027, Note_off_c, 1, 73, 127
1, 378028, Note_on_c, 0, 72, 127
1, 378211, Note_off_c, 0, 72, 127
1, 378211, Note_off_c, 5, 53, 127
1, 378212, Note_on_c, 8, 44, 127
1, 378212, Note_on_c, 4, 76, 127
1, 378395, Note_off_c, 4, 76, 127
1, 378396, Note_on_c, 5, 77, 127
1, 378579, Note_off_c, 5, 77, 127
1, 378579, Note_off_c, 8, 44, 127
1, 378580, Note_on_c, 6, 54, 127
1, 378580, Note_on_c, 12, 71, 127
1, 378763, Note_off_c, 12, 71, 127
1, 378764, Note_on_c, 0, 72, 127
1, 378947, Note_off_c, 0, 72, 127
1, 378947, Note_off_c, 6, 54, 127
1, 378948, Note_on_c, 7, 55, 127
1, 378948, Note_on_c, 6, 66, 127
1, 379131, Note_off_c, 6, 66, 127
1, 379132, Note_on_c, 7, 67, 127
1, 379315, Note_off_c, 7, 67, 127
1, 379315, Note_off_c, 7, 55, 127
1, 379316, Note_on_c, 7, 43, 127
1, 379316, Note_on_c, 3, 75, 127
1, 379499, Note_off_c, 3, 75, 127
1, 379500, Note_on_c, 12, 71, 127
1, 379683, Note_off_c, 12, 71, 127
1, 379683, Note_off_c, 7, 43, 127
1, 379684, Note_on_c, 0, 48, 127
1, 379684, Note_on_c, 0, 72, 127
1, 379876, Note_on_c, 5, 65, 127
1, 380067, Note_off_c, 5, 65, 127
1, 380068, Note_on_c, 3, 63, 127
1, 380259, Note_off_c, 3, 63, 127
1, 380260, Note_on_c, 2, 62, 127
1, 380451, Note_off_c, 2, 62, 127
1, 380451, Note_off_c, 0, 72, 127
1, 380452, Note_on_c, 3, 63, 127
1, 380452, Note_on_c, 7, 67, 127
1, 380452, Note_on_c, 0, 72, 127
1, 380668, Note_on_c, 3, 39, 127
1, 380834, Note_off_c, 0, 48, 127
1, 380868, Note_off_c, 3, 39, 127
1, 380892, Note_on_c, 5, 41, 127
1, 381092, Note_off_c, 5, 41, 127
1, 381116, Note_on_c, 7, 43, 127
1, 381336, Note_off_c, 7, 43, 127
1, 381380, Note_on_c, 0, 36, 127
1, 383452, Note_off_c, 0, 72, 127
1, 383452, Note_off_c, 7, 67, 127
1, 383452, Note_off_c, 3, 63, 127
1, 383572, Note_on_c, 0, 84, 127
1, 383792, Note_off_c, 0, 84, 127
1, 383793, Note_on_c, 0, 72, 127
1, 384013, Note_off_c, 0, 72, 127
1, 384014, Note_on_c, 3, 75, 127
1, 384068, Note_off_c, 3, 75, 127
1, 384069, Note_on_c, 2, 74, 127
1, 384080, Note_off_c, 0, 36, 127
1, 384123, Note_off_c, 2, 74, 127
1, 384124, Note_on_c, 0, 72, 127
1, 384178, Note_off_c, 0, 72, 127
1, 384179, Note_on_c, 2, 74, 127
1, 384233, Note_off_c, 2, 74, 127
1, 384234, Note_on_c, 3, 75, 127
1, 384234, Note_on_c, 0, 72, 127
1, 384454, Note_off_c, 0, 72, 127
1, 384455, Note_on_c, 0, 60, 127
1, 384675, Note_off_c, 0, 60, 127
1, 384675, Note_off_c, 3, 75, 127
1, 384676, Note_on_c, 5, 77, 127
1, 384676, Note_on_c, 2, 62, 127
1, 384896, Note_off_c, 2, 62, 127
1, 384896, Note_off_c, 5, 77, 127
1, 384897, Note_on_c, 7, 79, 127
1, 384897, Note_on_c, 3, 63, 127
1, 385116, Note_off_c, 7, 79, 127
1, 385117, Note_off_c, 3, 63, 127
1, 385118, Note_on_c, 8, 68, 127
1, 385340, Note_on_c, 5, 65, 127
1, 385557, Note_off_c, 8, 68, 127
1, 385560, Note_off_c, 5, 65, 127
1, 385561, Note_on_c, 5, 77, 127
1, 385561, Note_on_c, 2, 62, 127
1, 385780, Note_off_c, 5, 77, 127
1, 385781, Note_off_c, 2, 62, 127
1, 385782, Note_on_c, 7, 67, 127
1, 386004, Note_on_c, 3, 63, 127
1, 386221, Note_off_c, 7, 67, 127
1, 386224, Note_off_c, 3, 63, 127
1, 386225, Note_on_c, 3, 75, 127
1, 386225, Note_on_c, 0, 60, 127
1, 386444, Note_off_c, 3, 75, 127
1, 386445, Note_off_c, 0, 60, 127
1, 386446, Note_on_c, 5, 65, 127
1, 386668, Note_on_c, 2, 62, 127
1, 386885, Note_off_c, 5, 65, 127
1, 386888, Note_off_c, 2, 62, 127
1, 386889, Note_on_c, 2, 74, 127
1, 386889, Note_on_c, 12, 59, 127
1, 387108, Note_off_c, 2, 74, 127
1, 387109, Note_off_c, 12, 59, 127
1, 387110, Note_on_c, 3, 63, 127
1, 387332, Note_on_c, 0, 60, 127
1, 387549, Note_off_c, 3, 63, 127
1, 387552, Note_off_c, 0, 60, 127
1, 387553, Note_on_c, 8, 56, 127
1, 387773, Note_off_c, 8, 56, 127
1, 387774, Note_on_c, 0, 72, 127
1, 387774, Note_on_c, 5, 53, 127
1, 387884, Note_off_c, 0, 72, 127
1, 387885, Note_on_c, 12, 71, 127
1, 387995, Note_off_c, 12, 71, 127
1, 387995, Note_off_c, 5, 53, 127
1, 387996, Note_on_c, 0, 72, 127
1, 387996, Note_on_c, 2, 50, 127
1, 388106, Note_off_c, 0, 72, 127
1, 388107, Note_on_c, 2, 74, 127
1, 388217, Note_off_c, 2, 74, 127
1, 388217, Note_off_c, 2, 50, 127
1, 388218, Note_on_c, 12, 71, 127
1, 388218, Note_on_c, 7, 55, 127
1, 388328, Note_off_c, 12, 71, 127
1, 388329, Note_on_c, 10, 69, 127
1, 388439, Note_off_c, 10, 69, 127
1, 388440, Note_on_c, 7, 67, 127
1, 388550, Note_off_c, 7, 67, 127
1, 388550, Note_off_c, 7, 55, 127
1, 388551, Note_on_c, 5, 65, 127
1, 388661, Note_off_c, 5, 65, 127
1, 388662, Note_on_c, 3, 63, 127
1, 388772, Note_off_c, 3, 63, 127
1, 388773, Note_on_c, 2, 62, 127
1, 388883, Note_off_c, 2, 62, 127
1, 388884, Note_on_c, 0, 84, 127
1, 388884, Note_on_c, 0, 60, 127
1, 389104, Note_off_c, 0, 84, 127
1, 389105, Note_on_c, 0, 72, 127
1, 389325, Note_off_c, 0, 72, 127
1, 389326, Note_on_c, 2, 74, 127
1, 389546, Note_off_c, 2, 74, 127
1, 389546, Note_off_c, 0, 60, 127
1, 389547, Note_on_c, 3, 75, 127
1, 389547, Note_on_c, 0, 72, 127
1, 389767, Note_off_c, 0, 72, 127
1, 389768, Note_on_c, 0, 60, 127
1, 389988, Note_off_c, 0, 60, 127
1, 389988, Note_off_c, 3, 75, 127
1, 389989, Note_on_c, 5, 77, 127
1, 389989, Note_on_c, 2, 62, 127
1, 390209, Note_off_c, 2, 62, 127
1, 390209, Note_off_c, 5, 77, 127
1, 390210, Note_on_c, 7, 79, 127
1, 390210, Note_on_c, 3, 63, 127
1, 390429, Note_off_c, 7, 79, 127
1, 390430, Note_off_c, 3, 63, 127
1, 390431, Note_on_c, 8, 68, 127
1, 390651, Note_off_c, 8, 68, 127
1, 390652, Note_on_c, 5, 65, 127
1, 390872, Note_off_c, 5, 65, 127
1, 390873, Note_on_c, 5, 77, 127
1, 390873, Note_on_c, 2, 62, 127
1, 391092, Note_off_c, 5, 77, 127
1, 391093, Note_off_c, 2, 62, 127
1, 391094, Note_on_c, 7, 67, 127
1, 391314, Note_off_c, 7, 67, 127
1, 391315, Note_on_c, 3, 63, 127
1, 391535, Note_off_c, 3, 63, 127
1, 391536, Note_on_c, 3, 75, 127
1, 391536, Note_on_c, 0, 60, 127
1, 391755, Note_off_c, 3, 75, 127
1, 391756, Note_off_c, 0, 60, 127
1, 391757, Note_on_c, 5, 65, 127
1, 391977, Note_off_c, 5, 65, 127
1, 391978, Note_on_c, 2, 62, 127
1, 392198, Note_off_c, 2, 62, 127
1, 392199, Note_on_c, 2, 74, 127
1, 392199, Note_on_c, 12, 59, 127
1, 392418, Note_off_c, 2, 74, 127
1, 392419, Note_off_c, 12, 59, 127
1, 392420, Note_on_c, 3, 63, 127
1, 392640, Note_off_c, 3, 63, 127
1, 392641, Note_on_c, 0, 60, 127
1, 392861, Note_off_c, 0, 60, 127
1, 392862, Note_on_c, 8, 56, 127
1, 392973, Note_on_c, 0, 72, 127
1, 393083, Note_off_c, 0, 72, 127
1, 393083, Note_off_c, 8, 56, 127
1, 393084, Note_on_c, 2, 62, 127
1, 393084, Note_on_c, 5, 53, 127
1, 393194, Note_off_c, 2, 62, 127
1, 393195, Note_on_c, 5, 65, 127
1, 393305, Note_off_c, 5, 65, 127
1, 393305, Note_off_c, 5, 53, 127
1, 393306, Note_on_c, 0, 72, 127
1, 393306, Note_on_c, 7, 55, 127
1, 393416, Note_off_c, 0, 72, 127
1, 393417, Note_on_c, 12, 71, 127
1, 393527, Note_off_c, 12, 71, 127
1, 393527, Note_off_c, 7, 55, 127
1, 393528, Note_on_c, 0, 72, 127
1, 393528, Note_on_c, 0, 48, 127
1, 393748, Note_off_c, 0, 48, 127
1, 393749, Note_on_c, 7, 43, 127
1, 393969, Note_off_c, 7, 43, 127
1, 393970, Note_on_c, 3, 39, 127
1, 394081, Note_off_c, 0, 72, 127
1, 394191, Note_off_c, 3, 39, 127
1, 394192, Note_on_c, 3, 63, 127
1, 394192, Note_on_c, 0, 36, 127
1, 394302, Note_off_c, 3, 63, 127
1, 394303, Note_on_c, 2, 62, 127
1, 394413, Note_off_c, 2, 62, 127
1, 394414, Note_on_c, 3, 63, 127
1, 394516, Note_off_c, 0, 36, 127
1, 394524, Note_off_c, 3, 63, 127
1, 394525, Note_on_c, 5, 65, 127
1, 394635, Note_off_c, 5, 65, 127
1, 394636, Note_on_c, 7, 67, 127
1, 394746, Note_off_c, 7, 67, 127
1, 394747, Note_on_c, 8, 68, 127
1, 394857, Note_off_c, 8, 68, 127
1, 394858, Note_on_c, 11, 70, 127
1, 394858, Note_on_c, 7, 55, 127
1, 394968, Note_off_c, 11, 70, 127
1, 394969, Note_on_c, 3, 75, 127
1, 395079, Note_off_c, 3, 75, 127
1, 395079, Note_off_c, 7, 55, 127
1, 395080, Note_on_c, 11, 70, 127
1, 395080, Note_on_c, 5, 53, 127
1, 395190, Note_off_c, 11, 70, 127
1, 395191, Note_on_c, 8, 68, 127
1, 395301, Note_off_c, 8, 68, 127
1, 395301, Note_off_c, 5, 53, 127
1, 395302, Note_on_c, 11, 70, 127
1, 395302, Note_on_c, 3, 51, 127
1, 395522, Note_off_c, 3, 51, 127
1, 395523, Note_on_c, 2, 50, 127
1, 395555, Note_off_c, 11, 70, 127
1, 395633, Note_on_c, 5, 77, 127
1, 395743, Note_off_c, 5, 77, 127
1, 395743, Note_off_c, 2, 50, 127
1, 395744, Note_on_c, 11, 70, 127
1, 395744, Note_on_c, 0, 48, 127
1, 395854, Note_off_c, 11, 70, 127
1, 395855, Note_on_c, 8, 68, 127
1, 395965, Note_off_c, 8, 68, 127
1, 395965, Note_off_c, 0, 48, 127
1, 395966, Note_on_c, 11, 70, 127
1, 395966, Note_on_c, 11, 46, 127
1, 396186, Note_off_c, 11, 46, 127
1, 396187, Note_on_c, 3, 51, 127
1, 396219, Note_off_c, 11, 70, 127
1, 396297, Note_on_c, 7, 79, 127
1, 396407, Note_off_c, 7, 79, 127
1, 396407, Note_off_c, 3, 51, 127
1, 396408, Note_on_c, 11, 70, 127
1, 396408, Note_on_c, 7, 55, 127
1, 396518, Note_off_c, 11, 70, 127
1, 396519, Note_on_c, 8, 68, 127
1, 396629, Note_off_c, 8, 68, 127
1, 396629, Note_off_c, 7, 55, 127
1, 396630, Note_on_c, 11, 70, 127
1, 396630, Note_on_c, 5, 53, 127
1, 396850, Note_off_c, 5, 53, 127
1, 396851, Note_on_c, 4, 52, 127
1, 396883, Note_off_c, 11, 70, 127
1, 396961, Note_on_c, 1, 73, 127
1, 397071, Note_off_c, 1, 73, 127
1, 397071, Note_off_c, 4, 52, 127
1, 397072, Note_on_c, 0, 72, 127
1, 397072, Note_on_c, 7, 55, 127
1, 397182, Note_off_c, 0, 72, 127
1, 397183, Note_on_c, 11, 70, 127
1, 397293, Note_off_c, 11, 70, 127
1, 397293, Note_off_c, 7, 55, 127
1, 397294, Note_on_c, 8, 68, 127
1, 397294, Note_on_c, 0, 48, 127
1, 397404, Note_off_c, 8, 68, 127
1, 397405, Note_on_c, 7, 67, 127
1, 397515, Note_off_c, 7, 67, 127
1, 397515, Note_off_c, 0, 48, 127
1, 397516, Note_on_c, 8, 68, 127
1, 397516, Note_on_c, 5, 53, 127
1, 397626, Note_off_c, 8, 68, 127
1, 397627, Note_on_c, 0, 72, 127
1, 397737, Note_off_c, 0, 72, 127
1, 397737, Note_off_c, 5, 53, 127
1, 397738, Note_on_c, 5, 77, 127
1, 397738, Note_on_c, 8, 56, 127
1, 397848, Note_off_c, 5, 77, 127
1, 397849, Note_on_c, 0, 72, 127
1, 397941, Note_off_c, 0, 72, 127
1, 397958, Note_off_c, 8, 56, 127
1, 397959, Note_on_c, 8, 80, 127
1, 397959, Note_on_c, 1, 49, 127
1, 398179, Note_off_c, 1, 49, 127
1, 398180, Note_on_c, 11, 58, 127
1, 398290, Note_off_c, 8, 80, 127
1, 398291, Note_on_c, 5, 77, 127
1, 398388, Note_off_c, 5, 77, 127
1, 398401, Note_off_c, 11, 58, 127
1, 398402, Note_on_c, 8, 80, 127
1, 398402, Note_on_c, 0, 48, 127
1, 398512, Note_off_c, 8, 80, 127
1, 398513, Note_on_c, 7, 79, 127
1, 398623, Note_off_c, 7, 79, 127
1, 398623, Note_off_c, 0, 48, 127
1, 398624, Note_on_c, 5, 77, 127
1, 398624, Note_on_c, 0, 60, 127
1, 398734, Note_off_c, 5, 77, 127
1, 398735, Note_on_c, 4, 76, 127
1, 398845, Note_off_c, 4, 76, 127
1, 398845, Note_off_c, 0, 60, 127
1, 398846, Note_on_c, 5, 77, 127
1, 398846, Note_on_c, 11, 58, 127
1, 398956, Note_off_c, 11, 58, 127
1, 398957, Note_on_c, 8, 56, 127
1, 399067, Note_off_c, 8, 56, 127
1, 399068, Note_on_c, 11, 58, 127
1, 399178, Note_off_c, 11, 58, 127
1, 399179, Note_on_c, 8, 56, 127
1, 399289, Note_off_c, 8, 56, 127
1, 399290, Note_on_c, 7, 55, 127
1, 399400, Note_off_c, 7, 55, 127
1, 399401, Note_off_c, 5, 77, 127
1, 399401, Note_on_c, 5, 53, 127
1, 399511, Note_off_c, 5, 53, 127
1, 399512, Note_on_c, 11, 58, 127
1, 399623, Note_on_c, 8, 80, 127
1, 399733, Note_off_c, 8, 80, 127
1, 399733, Note_off_c, 11, 58, 127
1, 399734, Note_on_c, 2, 74, 127
1, 399734, Note_on_c, 5, 53, 127
1, 399844, Note_off_c, 2, 74, 127
1, 399845, Note_on_c, 3, 75, 127
1, 399955, Note_off_c, 3, 75, 127
1, 399955, Note_off_c, 5, 53, 127
1, 399956, Note_on_c, 5, 77, 127
1, 399956, Note_on_c, 8, 56, 127
1, 400066, Note_off_c, 5, 77, 127
1, 400067, Note_on_c, 2, 74, 127
1, 400177, Note_off_c, 2, 74, 127
1, 400177, Note_off_c, 8, 56, 127
1, 400178, Note_on_c, 0, 72, 127
1, 400178, Note_on_c, 2, 50, 127
1, 400288, Note_off_c, 0, 72, 127
1, 400289, Note_on_c, 11, 70, 127
1, 400399, Note_off_c, 11, 70, 127
1, 400399, Note_off_c, 2, 50, 127
1, 400400, Note_on_c, 0, 72, 127
1, 400400, Note_on_c, 5, 53, 127
1, 400510, Note_off_c, 0, 72, 127
1, 400511, Note_on_c, 2, 74, 127
1, 400621, Note_off_c, 2, 74, 127
1, 400621, Note_off_c, 5, 53, 127
1, 400622, Note_on_c, 3, 75, 127
1, 400622, Note_on_c, 11, 46, 127
1, 400732, Note_off_c, 3, 75, 127
1, 400733, Note_on_c, 5, 77, 127
1, 400843, Note_off_c, 5, 77, 127
1, 400843, Note_off_c, 11, 46, 127
1, 400844, Note_on_c, 7, 79, 127
1, 400844, Note_on_c, 3, 39, 127
1, 400954, Note_off_c, 7, 79, 127
1, 400955, Note_on_c, 11, 82, 127
1, 401065, Note_off_c, 11, 82, 127
1, 401065, Note_off_c, 3, 39, 127
1, 401066, Note_on_c, 3, 75, 127
1, 401066, Note_on_c, 7, 55, 127
1, 401176, Note_off_c, 3, 75, 127
1, 401177, Note_on_c, 5, 77, 127
1, 401287, Note_off_c, 5, 77, 127
1, 401287, Note_off_c, 7, 55, 127
1, 401288, Note_on_c, 7, 79, 127
1, 401288, Note_on_c, 11, 58, 127
1, 401398, Note_off_c, 7, 79, 127
1, 401399, Note_on_c, 3, 75, 127
1, 401509, Note_off_c, 3, 75, 127
1, 401509, Note_off_c, 11, 58, 127
1, 401510, Note_on_c, 1, 73, 127
1, 401510, Note_on_c, 4, 52, 127
1, 401620, Note_off_c, 1, 73, 127
1, 401621, Note_on_c, 0, 72, 127
1, 401731, Note_off_c, 0, 72, 127
1, 401731, Note_off_c, 4, 52, 127
1, 401732, Note_on_c, 2, 74, 127
1, 401732, Note_on_c, 7, 55, 127
1, 401842, Note_off_c, 2, 74, 127
1, 401843, Note_on_c, 4, 76, 127
1, 401953, Note_off_c, 4, 76, 127
1, 401953, Note_off_c, 7, 55, 127
1, 401954, Note_on_c, 5, 77, 127
1, 401954, Note_on_c, 0, 48, 127
1, 402064, Note_off_c, 5, 77, 127
1, 402065, Note_on_c, 7, 79, 127
1, 402175, Note_off_c, 7, 79, 127
1, 402175, Note_off_c, 0, 48, 127
1, 402176, Note_on_c, 8, 80, 127
1, 402176, Note_on_c, 5, 41, 127
1, 402286, Note_off_c, 8, 80, 127
1, 402287, Note_on_c, 0, 84, 127
1, 402397, Note_off_c, 0, 84, 127
1, 402397, Note_off_c, 5, 41, 127
1, 402398, Note_on_c, 5, 77, 127
1, 402398, Note_on_c, 8, 56, 127
1, 402508, Note_off_c, 5, 77, 127
1, 402509, Note_on_c, 7, 79, 127
1, 402619, Note_off_c, 7, 79, 127
1, 402619, Note_off_c, 8, 56, 127
1, 402620, Note_on_c, 8, 80, 127
1, 402620, Note_on_c, 0, 60, 127
1, 402730, Note_off_c, 8, 80, 127
1, 402731, Note_on_c, 5, 77, 127
1, 402841, Note_off_c, 5, 77, 127
1, 402841, Note_off_c, 0, 60, 127
1, 402842, Note_on_c, 3, 75, 127
1, 402842, Note_on_c, 5, 53, 127
1, 402952, Note_off_c, 3, 75, 127
1, 402953, Note_on_c, 1, 73, 127
1, 403063, Note_off_c, 1, 73, 127
1, 403063, Note_off_c, 5, 53, 127
1, 403064, Note_on_c, 0, 72, 127
1, 403064, Note_on_c, 8, 56, 127
1, 403174, Note_off_c, 0, 72, 127
1, 403175, Note_on_c, 12, 71, 127
1, 403285, Note_off_c, 12, 71, 127
1, 403285, Note_off_c, 8, 56, 127
1, 403286, Note_on_c, 7, 79, 127
1, 403286, Note_on_c, 2, 50, 127
1, 403506, Note_off_c, 2, 50, 127
1, 403507, Note_on_c, 3, 51, 127
1, 403585, Note_off_c, 7, 79, 127
1, 403617, Note_on_c, 0, 72, 127
1, 403727, Note_off_c, 0, 72, 127
1, 403727, Note_off_c, 3, 51, 127
1, 403728, Note_on_c, 5, 77, 127
1, 403728, Note_on_c, 8, 44, 127
1, 403838, Note_off_c, 5, 77, 127
1, 403839, Note_on_c, 3, 75, 127
1, 403949, Note_off_c, 3, 75, 127
1, 403949, Note_off_c, 8, 44, 127
1, 403950, Note_on_c, 2, 74, 127
1, 403950, Note_on_c, 5, 53, 127
1, 404060, Note_off_c, 2, 74, 127
1, 404061, Note_on_c, 0, 72, 127
1, 404171, Note_off_c, 0, 72, 127
1, 404171, Note_off_c, 5, 53, 127
1, 404172, Note_on_c, 12, 71, 127
1, 404172, Note_on_c, 7, 43, 127
1, 404282, Note_off_c, 12, 71, 127
1, 404283, Note_on_c, 0, 72, 127
1, 404393, Note_off_c, 0, 72, 127
1, 404393, Note_off_c, 7, 43, 127
1, 404394, Note_on_c, 2, 74, 127
1, 404394, Note_on_c, 7, 55, 127
1, 404504, Note_off_c, 2, 74, 127
1, 404505, Note_on_c, 12, 71, 127
1, 404615, Note_off_c, 12, 71, 127
1, 404616, Note_on_c, 7, 67, 127
1, 404726, Note_off_c, 7, 67, 127
1, 404726, Note_off_c, 7, 55, 127
1, 404727, Note_on_c, 5, 65, 127
1, 404837, Note_off_c, 5, 65, 127
1, 404838, Note_on_c, 0, 84, 127
1, 404838, Note_on_c, 3, 63, 127
1, 404948, Note_off_c, 3, 63, 127
1, 404949, Note_on_c, 5, 65, 127
1, 405059, Note_off_c, 5, 65, 127
1, 405059, Note_off_c, 0, 84, 127
1, 405060, Note_on_c, 0, 72, 127
1, 405060, Note_on_c, 7, 67, 127
1, 405170, Note_off_c, 7, 67, 127
1, 405171, Note_on_c, 10, 69, 127
1, 405281, Note_off_c, 10, 69, 127
1, 405281, Note_off_c, 0, 72, 127
1, 405282, Note_on_c, 2, 74, 127
1, 405282, Note_on_c, 12, 71, 127
1, 405392, Note_off_c, 12, 71, 127
1, 405393, Note_on_c, 7, 67, 127
1, 405503, Note_off_c, 7, 67, 127
1, 405503, Note_off_c, 2, 74, 127
1, 405504, Note_on_c, 3, 75, 127
1, 405504, Note_on_c, 0, 72, 127
1, 405724, Note_off_c, 0, 72, 127
1, 405725, Note_on_c, 0, 60, 127
1, 405945, Note_off_c, 0, 60, 127
1, 405945, Note_off_c, 3, 75, 127
1, 405946, Note_on_c, 5, 77, 127
1, 405946, Note_on_c, 2, 62, 127
1, 406166, Note_off_c, 2, 62, 127
1, 406166, Note_off_c, 5, 77, 127
1, 406167, Note_on_c, 7, 79, 127
1, 406167, Note_on_c, 3, 63, 127
1, 406387, Note_off_c, 3, 63, 127
1, 406388, Note_on_c, 8, 68, 127
1, 406605, Note_off_c, 7, 79, 127
1, 406608, Note_off_c, 8, 68, 127
1, 406609, Note_on_c, 5, 65, 127
1, 406829, Note_off_c, 5, 65, 127
1, 406830, Note_on_c, 5, 77, 127
1, 406830, Note_on_c, 2, 62, 127
1, 407050, Note_off_c, 2, 62, 127
1, 407051, Note_on_c, 7, 67, 127
1, 407268, Note_off_c, 5, 77, 127
1, 407271, Note_off_c, 7, 67, 127
1, 407272, Note_on_c, 3, 63, 127
1, 407492, Note_off_c, 3, 63, 127
1, 407493, Note_on_c, 3, 75, 127
1, 407493, Note_on_c, 0, 60, 127
1, 407713, Note_off_c, 0, 60, 127
1, 407714, Note_on_c, 5, 65, 127
1, 407931, Note_off_c, 3, 75, 127
1, 407934, Note_off_c, 5, 65, 127
1, 407935, Note_on_c, 2, 62, 127
1, 408155, Note_off_c, 2, 62, 127
1, 408156, Note_on_c, 2, 74, 127
1, 408156, Note_on_c, 12, 59, 127
1, 408376, Note_off_c, 12, 59, 127
1, 408377, Note_on_c, 3, 63, 127
1, 408594, Note_off_c, 2, 74, 127
1, 408597, Note_off_c, 3, 63, 127
1, 408598, Note_on_c, 0, 60, 127
1, 408818, Note_off_c, 0, 60, 127
1, 408819, Note_on_c, 8, 56, 127
1, 409039, Note_off_c, 8, 56, 127
1, 409040, Note_on_c, 0, 72, 127
1, 409040, Note_on_c, 5, 53, 127
1, 409150, Note_off_c, 0, 72, 127
1, 409151, Note_on_c, 12, 71, 127
1, 409261, Note_off_c, 12, 71, 127
1, 409261, Note_off_c, 5, 53, 127
1, 409262, Note_on_c, 0, 72, 127
1, 409262, Note_on_c, 2, 50, 127
1, 409372, Note_off_c, 0, 72, 127
1, 409373, Note_on_c, 2, 74, 127
1, 409483, Note_off_c, 2, 74, 127
1, 409483, Note_off_c, 2, 50, 127
1, 409484, Note_on_c, 12, 71, 127
1, 409484, Note_on_c, 7, 55, 127
1, 409594, Note_off_c, 12, 71, 127
1, 409595, Note_on_c, 10, 69, 127
1, 409703, Note_off_c, 7, 55, 127
1, 409704, Note_off_c, 10, 69, 127
1, 409705, Note_on_c, 7, 67, 127
1, 409816, Note_on_c, 5, 65, 127
1, 409926, Note_off_c, 5, 65, 127
1, 409927, Note_on_c, 3, 63, 127
1, 410037, Note_off_c, 3, 63, 127
1, 410038, Note_on_c, 2, 62, 127
1, 410144, Note_off_c, 7, 67, 127
1, 410147, Note_off_c, 2, 62, 127
1, 410148, Note_on_c, 0, 84, 127
1, 410148, Note_on_c, 0, 60, 127
1, 410367, Note_off_c, 0, 60, 127
1, 410368, Note_off_c, 0, 84, 127
1, 410369, Note_on_c, 0, 72, 127
1, 410591, Note_on_c, 2, 74, 127
1, 410811, Note_off_c, 2, 74, 127
1, 410812, Note_on_c, 3, 75, 127
1, 411034, Note_on_c, 0, 60, 127
1, 411254, Note_off_c, 0, 60, 127
1, 411254, Note_off_c, 3, 75, 127
1, 411254, Note_off_c, 0, 72, 127
1, 411255, Note_on_c, 5, 77, 127
1, 411255, Note_on_c, 2, 62, 127
1, 411475, Note_off_c, 2, 62, 127
1, 411475, Note_off_c, 5, 77, 127
1, 411476, Note_on_c, 7, 79, 127
1, 411476, Note_on_c, 3, 63, 127
1, 411695, Note_off_c, 7, 79, 127
1, 411697, Note_on_c, 8, 68, 127
1, 411917, Note_off_c, 8, 68, 127
1, 411918, Note_on_c, 5, 65, 127
1, 412138, Note_off_c, 5, 65, 127
1, 412138, Note_off_c, 3, 63, 127
1, 412139, Note_on_c, 5, 77, 127
1, 412139, Note_on_c, 2, 62, 127
1, 412358, Note_off_c, 5, 77, 127
1, 412360, Note_on_c, 7, 67, 127
1, 412580, Note_off_c, 7, 67, 127
1, 412581, Note_on_c, 3, 63, 127
1, 412801, Note_off_c, 3, 63, 127
1, 412801, Note_off_c, 2, 62, 127
1, 412802, Note_on_c, 3, 75, 127
1, 412802, Note_on_c, 0, 60, 127
1, 413021, Note_off_c, 3, 75, 127
1, 413023, Note_on_c, 5, 65, 127
1, 413243, Note_off_c, 5, 65, 127
1, 413244, Note_on_c, 2, 62, 127
1, 413464, Note_off_c, 2, 62, 127
1, 413464, Note_off_c, 0, 60, 127
1, 413465, Note_on_c, 2, 74, 127
1, 413465, Note_on_c, 12, 59, 127
1, 413684, Note_off_c, 2, 74, 127
1, 413686, Note_on_c, 3, 63, 127
1, 413903, Note_off_c, 12, 59, 127
1, 413906, Note_off_c, 3, 63, 127
1, 413907, Note_on_c, 0, 60, 127
1, 414127, Note_off_c, 0, 60, 127
1, 414128, Note_on_c, 8, 56, 127
1, 414239, Note_on_c, 0, 72, 127
1, 414349, Note_off_c, 0, 72, 127
1, 414349, Note_off_c, 8, 56, 127
1, 414350, Note_on_c, 2, 62, 127
1, 414350, Note_on_c, 5, 53, 127
1, 414460, Note_off_c, 2, 62, 127
1, 414461, Note_on_c, 5, 65, 127
1, 414571, Note_off_c, 5, 65, 127
1, 414571, Note_off_c, 5, 53, 127
1, 414572, Note_on_c, 0, 72, 127
1, 414572, Note_on_c, 7, 55, 127
1, 414682, Note_off_c, 0, 72, 127
1, 414683, Note_on_c, 12, 71, 127
1, 414793, Note_off_c, 12, 71, 127
1, 414793, Note_off_c, 7, 55, 127
1, 414794, Note_on_c, 0, 72, 127
1, 414794, Note_on_c, 0, 48, 127
1, 414904, Note_off_c, 0, 48, 127
1, 414905, Note_on_c, 3, 51, 127
1, 415015, Note_off_c, 3, 51, 127
1, 415016, Note_on_c, 7, 55, 127
1, 415126, Note_off_c, 7, 55, 127
1, 415127, Note_on_c, 0, 48, 127
1, 415233, Note_off_c, 0, 72, 127
1, 415236, Note_off_c, 0, 48, 127
1, 415237, Note_on_c, 3, 51, 127
1, 415347, Note_off_c, 3, 51, 127
1, 415348, Note_on_c, 7, 55, 127
1, 415458, Note_off_c, 7, 55, 127
1, 415459, Note_on_c, 0, 60, 127
1, 415570, Note_on_c, 3, 75, 127
1, 415680, Note_off_c, 3, 75, 127
1, 415681, Note_on_c, 0, 72, 127
1, 415681, Note_on_c, 0, 48, 127
1, 415791, Note_off_c, 0, 72, 127
1, 415792, Note_on_c, 7, 67, 127
1, 415898, Note_off_c, 0, 60, 127
1, 415901, Note_off_c, 7, 67, 127
1, 415901, Note_off_c, 0, 48, 127
1, 415902, Note_on_c, 8, 68, 127
1, 415902, Note_on_c, 0, 60, 127
1, 416012, Note_off_c, 8, 68, 127
1, 416013, Note_on_c, 3, 63, 127
1, 416123, Note_off_c, 3, 63, 127
1, 416124, Note_on_c, 5, 65, 127
1, 416234, Note_off_c, 5, 65, 127
1, 416235, Note_on_c, 8, 68, 127
1, 416345, Note_off_c, 8, 68, 127
1, 416346, Note_on_c, 2, 74, 127
1, 416346, Note_on_c, 0, 48, 127
1, 416434, Note_off_c, 0, 60, 127
1, 416456, Note_off_c, 0, 48, 127
1, 416457, Note_on_c, 0, 60, 127
1, 416567, Note_off_c, 0, 60, 127
1, 416568, Note_on_c, 11, 58, 127
1, 416678, Note_off_c, 11, 58, 127
1, 416679, Note_on_c, 8, 56, 127
1, 416789, Note_off_c, 8, 56, 127
1, 416790, Note_on_c, 11, 58, 127
1, 416900, Note_off_c, 2, 74, 127
1, 416901, Note_on_c, 2, 74, 127
1, 417011, Note_off_c, 2, 74, 127
1, 417012, Note_on_c, 11, 70, 127
1, 417012, Note_on_c, 11, 46, 127
1, 417122, Note_off_c, 11, 70, 127
1, 417123, Note_on_c, 6, 66, 127
1, 417229, Note_off_c, 11, 58, 127
1, 417232, Note_off_c, 6, 66, 127
1, 417232, Note_off_c, 11, 46, 127
1, 417233, Note_on_c, 7, 67, 127
1, 417233, Note_on_c, 11, 58, 127
1, 417343, Note_off_c, 7, 67, 127
1, 417344, Note_on_c, 2, 62, 127
1, 417454, Note_off_c, 2, 62, 127
1, 417455, Note_on_c, 4, 64, 127
1, 417565, Note_off_c, 4, 64, 127
1, 417566, Note_on_c, 7, 67, 127
1, 417676, Note_off_c, 7, 67, 127
1, 417677, Note_on_c, 0, 72, 127
1, 417677, Note_on_c, 11, 46, 127
1, 417730, Note_off_c, 11, 58, 127
1, 417787, Note_off_c, 11, 46, 127
1, 417788, Note_on_c, 11, 58, 127
1, 417898, Note_off_c, 11, 58, 127
1, 417899, Note_on_c, 8, 56, 127
1, 418009, Note_off_c, 8, 56, 127
1, 418010, Note_on_c, 7, 55, 127
1, 418120, Note_off_c, 7, 55, 127
1, 418121, Note_on_c, 8, 56, 127
1, 418231, Note_off_c, 0, 72, 127
1, 418232, Note_on_c, 0, 72, 127
1, 418342, Note_off_c, 0, 72, 127
1, 418343, Note_on_c, 8, 68, 127
1, 418343, Note_on_c, 8, 44, 127
1, 418453, Note_off_c, 8, 68, 127
1, 418454, Note_on_c, 4, 64, 127
1, 418560, Note_off_c, 8, 56, 127
1, 418563, Note_off_c, 4, 64, 127
1, 418563, Note_off_c, 8, 44, 127
1, 418564, Note_on_c, 5, 65, 127
1, 418564, Note_on_c, 8, 56, 127
1, 418674, Note_off_c, 5, 65, 127
1, 418675, Note_on_c, 0, 60, 127
1, 418785, Note_off_c, 0, 60, 127
1, 418786, Note_on_c, 2, 62, 127
1, 418896, Note_off_c, 2, 62, 127
1, 418897, Note_on_c, 5, 65, 127
1, 419007, Note_off_c, 5, 65, 127
1, 419008, Note_on_c, 11, 70, 127
1, 419008, Note_on_c, 8, 44, 127
1, 419061, Note_off_c, 8, 56, 127
1, 419118, Note_off_c, 8, 44, 127
1, 419119, Note_on_c, 8, 56, 127
1, 419229, Note_off_c, 8, 56, 127
1, 419230, Note_on_c, 7, 55, 127
1, 419340, Note_off_c, 7, 55, 127
1, 419341, Note_on_c, 5, 53, 127
1, 419451, Note_off_c, 5, 53, 127
1, 419452, Note_on_c, 7, 55, 127
1, 419562, Note_off_c, 11, 70, 127
1, 419563, Note_on_c, 11, 70, 127
1, 419673, Note_off_c, 11, 70, 127
1, 419673, Note_off_c, 7, 55, 127
1, 419674, Note_on_c, 0, 72, 127
1, 419674, Note_on_c, 5, 53, 127
1, 419784, Note_off_c, 0, 72, 127
1, 419785, Note_on_c, 2, 74, 127
1, 419895, Note_off_c, 2, 74, 127
1, 419895, Note_off_c, 5, 53, 127
1, 419896, Note_on_c, 3, 75, 127
1, 419896, Note_on_c, 3, 51, 127
1, 420006, Note_off_c, 3, 75, 127
1, 420007, Note_on_c, 5, 77, 127
1, 420117, Note_off_c, 5, 77, 127
1, 420117, Note_off_c, 3, 51, 127
1, 420118, Note_on_c, 7, 79, 127
1, 420118, Note_on_c, 11, 58, 127
1, 420228, Note_off_c, 7, 79, 127
1, 420229, Note_on_c, 3, 75, 127
1, 420339, Note_off_c, 3, 75, 127
1, 420340, Note_on_c, 5, 77, 127
1, 420340, Note_on_c, 11, 46, 127
1, 420450, Note_off_c, 5, 77, 127
1, 420451, Note_on_c, 2, 74, 127
1, 420557, Note_off_c, 11, 58, 127
1, 420560, Note_off_c, 2, 74, 127
1, 420560, Note_off_c, 11, 46, 127
1, 420561, Note_on_c, 11, 70, 127
1, 420561, Note_on_c, 11, 58, 127
1, 420671, Note_off_c, 11, 70, 127
1, 420672, Note_on_c, 2, 74, 127
1, 420782, Note_off_c, 2, 74, 127
1, 420783, Note_on_c, 5, 77, 127
1, 420893, Note_off_c, 5, 77, 127
1, 420894, Note_on_c, 8, 80, 127
1, 421004, Note_off_c, 8, 80, 127
1, 421004, Note_off_c, 11, 58, 127
1, 421005, Note_on_c, 7, 79, 127
1, 421005, Note_on_c, 3, 51, 127
1, 421115, Note_off_c, 7, 79, 127
1, 421116, Note_on_c, 3, 75, 127
1, 421226, Note_off_c, 3, 75, 127
1, 421226, Note_off_c, 3, 51, 127
1, 421227, Note_on_c, 11, 70, 127
1, 421227, Note_on_c, 5, 53, 127
1, 421337, Note_off_c, 11, 70, 127
1, 421338, Note_on_c, 2, 74, 127
1, 421448, Note_off_c, 2, 74, 127
1, 421448, Note_off_c, 5, 53, 127
1, 421449, Note_on_c, 3, 75, 127
1, 421449, Note_on_c, 7, 55, 127
1, 421559, Note_off_c, 3, 75, 127
1, 421560, Note_on_c, 7, 79, 127
1, 421670, Note_off_c, 7, 79, 127
1, 421670, Note_off_c, 7, 55, 127
1, 421671, Note_on_c, 5, 77, 127
1, 421671, Note_on_c, 11, 58, 127
1, 421781, Note_off_c, 5, 77, 127
1, 421782, Note_on_c, 2, 74, 127
1, 421892, Note_off_c, 2, 74, 127
1, 421893, Note_on_c, 8, 68, 127
1, 422003, Note_off_c, 8, 68, 127
1, 422004, Note_on_c, 0, 72, 127
1, 422114, Note_off_c, 0, 72, 127
1, 422114, Note_off_c, 11, 58, 127
1, 422115, Note_on_c, 2, 74, 127
1, 422115, Note_on_c, 8, 56, 127
1, 422225, Note_off_c, 2, 74, 127
1, 422226, Note_on_c, 5, 77, 127
1, 422336, Note_off_c, 5, 77, 127
1, 422336, Note_off_c, 8, 56, 127
1, 422337, Note_on_c, 3, 75, 127
1, 422337, Note_on_c, 7, 55, 127
1, 422447, Note_off_c, 3, 75, 127
1, 422448, Note_on_c, 0, 72, 127
1, 422558, Note_off_c, 0, 72, 127
1, 422558, Note_off_c, 7, 55, 127
1, 422559, Note_on_c, 6, 66, 127
1, 422559, Note_on_c, 3, 51, 127
1, 422669, Note_off_c, 6, 66, 127
1, 422670, Note_on_c, 10, 69, 127
1, 422780, Note_off_c, 10, 69, 127
1, 422780, Note_off_c, 3, 51, 127
1, 422781, Note_on_c, 0, 72, 127
1, 422781, Note_on_c, 11, 46, 127
1, 422891, Note_off_c, 0, 72, 127
1, 422892, Note_on_c, 3, 75, 127
1, 423002, Note_off_c, 3, 75, 127
1, 423002, Note_off_c, 11, 46, 127
1, 423003, Note_on_c, 2, 74, 127
1, 423003, Note_on_c, 11, 58, 127
1, 423113, Note_off_c, 2, 74, 127
1, 423114, Note_on_c, 11, 70, 127
1, 423224, Note_off_c, 11, 70, 127
1, 423224, Note_off_c, 11, 58, 127
1, 423225, Note_on_c, 5, 65, 127
1, 423225, Note_on_c, 8, 56, 127
1, 423335, Note_off_c, 5, 65, 127
1, 423336, Note_on_c, 8, 68, 127
1, 423446, Note_off_c, 8, 68, 127
1, 423446, Note_off_c, 8, 56, 127
1, 423447, Note_on_c, 11, 70, 127
1, 423447, Note_on_c, 7, 55, 127
1, 423557, Note_off_c, 11, 70, 127
1, 423558, Note_on_c, 3, 75, 127
1, 423668, Note_off_c, 3, 75, 127
1, 423669, Note_on_c, 11, 70, 127
1, 423669, Note_on_c, 7, 43, 127
1, 423779, Note_off_c, 11, 70, 127
1, 423780, Note_on_c, 7, 67, 127
1, 423886, Note_off_c, 7, 55, 127
1, 423889, Note_off_c, 7, 67, 127
1, 423889, Note_off_c, 7, 43, 127
1, 423890, Note_on_c, 3, 63, 127
1, 423890, Note_on_c, 7, 55, 127
1, 424000, Note_off_c, 3, 63, 127
1, 424001, Note_on_c, 2, 62, 127
1, 424111, Note_off_c, 2, 62, 127
1, 424112, Note_on_c, 3, 63, 127
1, 424222, Note_off_c, 3, 63, 127
1, 424223, Note_on_c, 11, 70, 127
1, 424333, Note_off_c, 11, 70, 127
1, 424334, Note_on_c, 7, 67, 127
1, 424334, Note_on_c, 8, 44, 127
1, 424444, Note_off_c, 7, 67, 127
1, 424445, Note_on_c, 3, 63, 127
1, 424555, Note_off_c, 3, 63, 127
1, 424555, Note_off_c, 8, 44, 127
1, 424555, Note_off_c, 7, 55, 127
1, 424556, Note_on_c, 11, 58, 127
1, 424556, Note_on_c, 7, 55, 127
1, 424666, Note_off_c, 11, 58, 127
1, 424667, Note_on_c, 8, 56, 127
1, 424777, Note_off_c, 8, 56, 127
1, 424778, Note_on_c, 11, 58, 127
1, 424888, Note_off_c, 11, 58, 127
1, 424889, Note_on_c, 7, 67, 127
1, 424999, Note_off_c, 7, 67, 127
1, 425000, Note_on_c, 3, 63, 127
1, 425000, Note_on_c, 11, 46, 127
1, 425110, Note_off_c, 3, 63, 127
1, 425111, Note_on_c, 11, 58, 127
1, 425221, Note_off_c, 11, 58, 127
1, 425221, Note_off_c, 11, 46, 127
1, 425221, Note_off_c, 7, 55, 127
1, 425222, Note_on_c, 8, 56, 127
1, 425222, Note_on_c, 5, 53, 127
1, 425332, Note_off_c, 8, 56, 127
1, 425333, Note_on_c, 2, 62, 127
1, 425443, Note_off_c, 2, 62, 127
1, 425443, Note_off_c, 5, 53, 127
1, 425444, Note_on_c, 7, 55, 127
1, 425444, Note_on_c, 3, 51, 127
1, 425554, Note_off_c, 7, 55, 127
1, 425555, Note_on_c, 3, 63, 127
1, 425665, Note_off_c, 3, 63, 127
1, 425666, Note_on_c, 11, 58, 127
1, 425776, Note_off_c, 11, 58, 127
1, 425777, Note_on_c, 7, 55, 127
1, 425883, Note_off_c, 3, 51, 127
1, 425886, Note_off_c, 7, 55, 127
1, 425887, Note_on_c, 3, 51, 127
1, 425997, Note_off_c, 3, 51, 127
1, 425998, Note_on_c, 2, 50, 127
1, 426108, Note_off_c, 2, 50, 127
1, 426109, Note_on_c, 3, 51, 127
1, 426219, Note_off_c, 3, 51, 127
1, 426220, Note_on_c, 7, 67, 127
1, 426220, Note_on_c, 5, 53, 127
1, 426330, Note_off_c, 5, 53, 127
1, 426330, Note_off_c, 7, 67, 127
1, 426331, Note_on_c, 10, 69, 127
1, 426331, Note_on_c, 3, 51, 127
1, 426441, Note_off_c, 3, 51, 127
1, 426441, Note_off_c, 10, 69, 127
1, 426442, Note_on_c, 12, 71, 127
1, 426442, Note_on_c, 2, 50, 127
1, 426552, Note_off_c, 2, 50, 127
1, 426552, Note_off_c, 12, 71, 127
1, 426553, Note_on_c, 0, 72, 127
1, 426553, Note_on_c, 0, 48, 127
1, 426663, Note_off_c, 0, 48, 127
1, 426663, Note_off_c, 0, 72, 127
1, 426664, Note_on_c, 2, 74, 127
1, 426664, Note_on_c, 12, 47, 127
1, 426774, Note_off_c, 12, 47, 127
1, 426774, Note_off_c, 2, 74, 127
1, 426775, Note_on_c, 3, 75, 127
1, 426775, Note_on_c, 0, 48, 127
1, 426885, Note_off_c, 0, 48, 127
1, 426885, Note_off_c, 3, 75, 127
1, 426886, Note_on_c, 2, 74, 127
1, 426886, Note_on_c, 7, 55, 127
1, 426996, Note_off_c, 7, 55, 127
1, 426996, Note_off_c, 2, 74, 127
1, 426997, Note_on_c, 0, 72, 127
1, 426997, Note_on_c, 10, 57, 127
1, 427107, Note_off_c, 10, 57, 127
1, 427107, Note_off_c, 0, 72, 127
1, 427108, Note_on_c, 2, 74, 127
1, 427108, Note_on_c, 12, 59, 127
1, 427218, Note_off_c, 12, 59, 127
1, 427218, Note_off_c, 2, 74, 127
1, 427219, Note_on_c, 3, 75, 127
1, 427219, Note_on_c, 0, 60, 127
1, 427329, Note_off_c, 0, 60, 127
1, 427329, Note_off_c, 3, 75, 127
1, 427330, Note_on_c, 5, 77, 127
1, 427330, Note_on_c, 2, 62, 127
1, 427440, Note_off_c, 2, 62, 127
1, 427440, Note_off_c, 5, 77, 127
1, 427441, Note_on_c, 7, 79, 127
1, 427441, Note_on_c, 3, 63, 127
1, 427551, Note_off_c, 7, 79, 127
1, 427552, Note_on_c, 7, 67, 127
1, 427662, Note_off_c, 7, 67, 127
1, 427662, Note_off_c, 3, 63, 127
1, 427663, Note_on_c, 8, 68, 127
1, 427663, Note_on_c, 5, 53, 127
1, 427773, Note_off_c, 8, 68, 127
1, 427774, Note_on_c, 0, 72, 127
1, 427884, Note_off_c, 0, 72, 127
1, 427885, Note_on_c, 5, 77, 127
1, 427995, Note_off_c, 5, 53, 127
1, 427996, Note_on_c, 3, 63, 127
1, 428106, Note_off_c, 3, 63, 127
1, 428107, Note_on_c, 2, 62, 127
1, 428197, Note_off_c, 5, 77, 127
1, 428218, Note_on_c, 5, 65, 127
1, 428328, Note_off_c, 5, 65, 127
1, 428328, Note_off_c, 2, 62, 127
1, 428329, Note_on_c, 7, 67, 127
1, 428329, Note_on_c, 3, 51, 127
1, 428439, Note_off_c, 7, 67, 127
1, 428440, Note_on_c, 11, 70, 127
1, 428550, Note_off_c, 11, 70, 127
1, 428551, Note_on_c, 3, 75, 127
1, 428661, Note_off_c, 3, 51, 127
1, 428662, Note_on_c, 2, 62, 127
1, 428772, Note_off_c, 2, 62, 127
1, 428773, Note_on_c, 0, 60, 127
1, 428863, Note_off_c, 3, 75, 127
1, 428884, Note_on_c, 3, 63, 127
1, 428994, Note_off_c, 3, 63, 127
1, 428994, Note_off_c, 0, 60, 127
1, 428995, Note_on_c, 5, 65, 127
1, 428995, Note_on_c, 2, 50, 127
1, 429105, Note_off_c, 5, 65, 127
1, 429106, Note_on_c, 12, 71, 127
1, 429216, Note_off_c, 12, 71, 127
1, 429217, Note_on_c, 2, 74, 127
1, 429327, Note_off_c, 2, 50, 127
1, 429328, Note_on_c, 0, 60, 127
1, 429438, Note_off_c, 0, 60, 127
1, 429439, Note_on_c, 12, 59, 127
1, 429529, Note_off_c, 2, 74, 127
1, 429550, Note_on_c, 2, 62, 127
1, 429660, Note_off_c, 2, 62, 127
1, 429660, Note_off_c, 12, 59, 127
1, 429661, Note_on_c, 3, 63, 127
1, 429661, Note_on_c, 0, 48, 127
1, 429771, Note_off_c, 3, 63, 127
1, 429772, Note_on_c, 7, 67, 127
1, 429882, Note_off_c, 7, 67, 127
1, 429883, Note_on_c, 0, 72, 127
1, 429993, Note_off_c, 0, 48, 127
1, 429994, Note_on_c, 3, 51, 127
1, 430104, Note_off_c, 3, 51, 127
1, 430105, Note_on_c, 8, 56, 127
1, 430195, Note_off_c, 0, 72, 127
1, 430216, Note_on_c, 12, 71, 127
1, 430326, Note_off_c, 12, 71, 127
1, 430326, Note_off_c, 8, 56, 127
1, 430327, Note_on_c, 0, 72, 127
1, 430327, Note_on_c, 7, 55, 127
1, 430437, Note_off_c, 0, 72, 127
1, 430438, Note_on_c, 3, 75, 127
1, 430548, Note_off_c, 3, 75, 127
1, 430548, Note_off_c, 7, 55, 127
1, 430549, Note_on_c, 8, 80, 127
1, 430549, Note_on_c, 5, 53, 127
1, 430659, Note_off_c, 8, 80, 127
1, 430660, Note_on_c, 0, 72, 127
1, 430770, Note_off_c, 0, 72, 127
1, 430770, Note_off_c, 5, 53, 127
1, 430771, Note_on_c, 12, 71, 127
1, 430771, Note_on_c, 7, 55, 127
1, 430881, Note_off_c, 7, 55, 127
1, 430881, Note_off_c, 12, 71, 127
1, 430882, Note_on_c, 10, 69, 127
1, 430882, Note_on_c, 5, 53, 127
1, 430992, Note_off_c, 5, 53, 127
1, 430992, Note_off_c, 10, 69, 127
1, 430993, Note_on_c, 7, 67, 127
1, 430993, Note_on_c, 7, 55, 127
1, 431103, Note_off_c, 7, 55, 127
1, 431104, Note_on_c, 8, 56, 127
1, 431214, Note_off_c, 8, 56, 127
1, 431215, Note_on_c, 5, 53, 127
1, 431317, Note_off_c, 7, 67, 127
1, 431325, Note_off_c, 5, 53, 127
1, 431326, Note_on_c, 7, 55, 127
1, 431436, Note_off_c, 7, 55, 127
1, 431437, Note_on_c, 0, 84, 127
1, 431437, Note_on_c, 3, 51, 127
1, 431547, Note_off_c, 3, 51, 127
1, 431548, Note_on_c, 2, 50, 127
1, 431658, Note_off_c, 2, 50, 127
1, 431659, Note_on_c, 0, 72, 127
1, 431659, Note_on_c, 3, 51, 127
1, 431769, Note_off_c, 3, 51, 127
1, 431770, Note_on_c, 5, 53, 127
1, 431876, Note_off_c, 0, 84, 127
1, 431879, Note_off_c, 5, 53, 127
1, 431879, Note_off_c, 0, 72, 127
1, 431880, Note_on_c, 2, 74, 127
1, 431880, Note_on_c, 2, 50, 127
1, 431990, Note_off_c, 2, 50, 127
1, 431991, Note_on_c, 3, 51, 127
1, 432101, Note_off_c, 3, 51, 127
1, 432101, Note_off_c, 2, 74, 127
1, 432102, Note_on_c, 3, 75, 127
1, 432102, Note_on_c, 0, 48, 127
1, 432322, Note_off_c, 0, 48, 127
1, 432323, Note_on_c, 0, 60, 127
1, 432543, Note_off_c, 0, 60, 127
1, 432543, Note_off_c, 3, 75, 127
1, 432544, Note_on_c, 5, 77, 127
1, 432544, Note_on_c, 2, 62, 127
1, 432764, Note_off_c, 2, 62, 127
1, 432764, Note_off_c, 5, 77, 127
1, 432765, Note_on_c, 7, 79, 127
1, 432765, Note_on_c, 3, 63, 127
1, 432984, Note_off_c, 7, 79, 127
1, 432985, Note_off_c, 3, 63, 127
1, 432986, Note_on_c, 8, 68, 127
1, 433208, Note_on_c, 5, 65, 127
1, 433310, Note_off_c, 8, 68, 127
1, 433429, Note_off_c, 5, 65, 127
1, 433430, Note_on_c, 5, 77, 127
1, 433430, Note_on_c, 2, 62, 127
1, 433649, Note_off_c, 5, 77, 127
1, 433650, Note_off_c, 2, 62, 127
1, 433651, Note_on_c, 7, 67, 127
1, 433873, Note_on_c, 3, 63, 127
1, 433975, Note_off_c, 7, 67, 127
1, 434094, Note_off_c, 3, 63, 127
1, 434095, Note_on_c, 3, 75, 127
1, 434095, Note_on_c, 0, 60, 127
1, 434314, Note_off_c, 3, 75, 127
1, 434315, Note_off_c, 0, 60, 127
1, 434316, Note_on_c, 5, 65, 127
1, 434538, Note_on_c, 2, 62, 127
1, 434640, Note_off_c, 5, 65, 127
1, 434759, Note_off_c, 2, 62, 127
1, 434760, Note_on_c, 2, 74, 127
1, 434760, Note_on_c, 12, 59, 127
1, 434979, Note_off_c, 2, 74, 127
1, 434980, Note_off_c, 12, 59, 127
1, 434981, Note_on_c, 3, 63, 127
1, 435203, Note_on_c, 0, 60, 127
1, 435305, Note_off_c, 3, 63, 127
1, 435424, Note_off_c, 0, 60, 127
1, 435425, Note_on_c, 8, 56, 127
1, 435536, Note_on_c, 0, 72, 127
1, 435646, Note_off_c, 0, 72, 127
1, 435646, Note_off_c, 8, 56, 127
1, 435647, Note_on_c, 2, 62, 127
1, 435647, Note_on_c, 5, 53, 127
1, 435757, Note_off_c, 2, 62, 127
1, 435758, Note_on_c, 5, 65, 127
1, 435868, Note_off_c, 5, 65, 127
1, 435868, Note_off_c, 5, 53, 127
1, 435869, Note_on_c, 0, 72, 127
1, 435869, Note_on_c, 7, 55, 127
1, 435979, Note_off_c, 0, 72, 127
1, 435980, Note_on_c, 12, 71, 127
1, 436090, Note_off_c, 12, 71, 127
1, 436090, Note_off_c, 7, 55, 127
1, 436091, Note_on_c, 0, 72, 127
1, 436091, Note_on_c, 0, 48, 127
1, 436311, Note_off_c, 0, 48, 127
1, 436312, Note_on_c, 7, 43, 127
1, 436422, Note_off_c, 7, 43, 127
1, 436423, Note_on_c, 5, 41, 127
1, 436533, Note_off_c, 5, 41, 127
1, 436534, Note_on_c, 3, 39, 127
1, 436644, Note_off_c, 3, 39, 127
1, 436645, Note_off_c, 0, 72, 127
1, 436645, Note_on_c, 2, 38, 127
1, 436755, Note_off_c, 2, 38, 127
1, 436756, Note_on_c, 3, 75, 127
1, 436756, Note_on_c, 0, 36, 127
1, 436976, Note_off_c, 0, 36, 127
1, 436977, Note_on_c, 0, 60, 127
1, 437197, Note_off_c, 0, 60, 127
1, 437198, Note_on_c, 7, 67, 127
1, 437198, Note_on_c, 11, 58, 127
1, 437387, Note_off_c, 7, 67, 127
1, 437418, Note_off_c, 11, 58, 127
1, 437419, Note_on_c, 0, 72, 127
1, 437419, Note_on_c, 10, 57, 127
1, 437639, Note_off_c, 10, 57, 127
1, 437640, Note_on_c, 7, 55, 127
1, 437804, Note_off_c, 3, 75, 127
1, 437861, Note_off_c, 7, 55, 127
1, 437862, Note_on_c, 2, 74, 127
1, 437862, Note_on_c, 5, 53, 127
1, 437955, Note_off_c, 2, 74, 127
1, 437972, Note_on_c, 3, 75, 127
1, 438017, Note_off_c, 3, 75, 127
1, 438027, Note_on_c, 5, 77, 127
1, 438072, Note_off_c, 5, 77, 127
1, 438081, Note_off_c, 5, 53, 127
1, 438082, Note_on_c, 2, 74, 127
1, 438082, Note_on_c, 11, 46, 127
1, 438302, Note_off_c, 11, 46, 127
1, 438303, Note_on_c, 11, 58, 127
1, 438467, Note_off_c, 0, 72, 127
1, 438524, Note_off_c, 11, 58, 127
1, 438525, Note_on_c, 5, 65, 127
1, 438525, Note_on_c, 10, 57, 127
1, 438744, Note_off_c, 2, 74, 127
1, 438745, Note_off_c, 10, 57, 127
1, 438745, Note_off_c, 5, 65, 127
1, 438746, Note_on_c, 3, 75, 127
1, 438746, Note_on_c, 11, 70, 127
1, 438746, Note_on_c, 7, 55, 127
1, 438965, Note_off_c, 3, 75, 127
1, 438966, Note_off_c, 7, 55, 127
1, 438967, Note_on_c, 3, 75, 127
1, 438967, Note_on_c, 5, 53, 127
1, 439077, Note_off_c, 3, 75, 127
1, 439078, Note_on_c, 5, 77, 127
1, 439188, Note_off_c, 5, 77, 127
1, 439188, Note_off_c, 5, 53, 127
1, 439189, Note_on_c, 7, 79, 127
1, 439189, Note_on_c, 3, 51, 127
1, 439299, Note_off_c, 7, 79, 127
1, 439300, Note_on_c, 3, 75, 127
1, 439410, Note_off_c, 3, 75, 127
1, 439410, Note_off_c, 3, 51, 127
1, 439411, Note_on_c, 2, 74, 127
1, 439411, Note_on_c, 10, 45, 127
1, 439600, Note_off_c, 11, 70, 127
1, 439631, Note_off_c, 10, 45, 127
1, 439631, Note_off_c, 2, 74, 127
1, 439632, Note_on_c, 0, 72, 127
1, 439632, Note_on_c, 10, 69, 127
1, 439632, Note_on_c, 10, 57, 127
1, 439742, Note_off_c, 10, 69, 127
1, 439743, Note_on_c, 7, 67, 127
1, 439853, Note_off_c, 7, 67, 127
1, 439853, Note_off_c, 10, 57, 127
1, 439854, Note_on_c, 6, 66, 127
1, 439854, Note_on_c, 7, 55, 127
1, 439964, Note_off_c, 6, 66, 127
1, 439965, Note_on_c, 7, 67, 127
1, 440075, Note_off_c, 7, 67, 127
1, 440075, Note_off_c, 7, 55, 127
1, 440076, Note_on_c, 10, 69, 127
1, 440076, Note_on_c, 6, 54, 127
1, 440265, Note_off_c, 0, 72, 127
1, 440296, Note_off_c, 6, 54, 127
1, 440297, Note_on_c, 2, 74, 127
1, 440297, Note_on_c, 4, 52, 127
1, 440370, Note_off_c, 2, 74, 127
1, 440371, Note_on_c, 0, 72, 127
1, 440444, Note_off_c, 0, 72, 127
1, 440445, Note_on_c, 11, 70, 127
1, 440461, Note_off_c, 10, 69, 127
1, 440518, Note_off_c, 11, 70, 127
1, 440518, Note_off_c, 4, 52, 127
1, 440519, Note_on_c, 0, 72, 127
1, 440519, Note_on_c, 2, 50, 127
1, 440588, Note_on_c, 11, 70, 127
1, 440590, Note_off_c, 0, 72, 127
1, 440660, Note_off_c, 11, 70, 127
1, 440661, Note_on_c, 10, 69, 127
1, 440734, Note_off_c, 10, 69, 127
1, 440739, Note_off_c, 2, 50, 127
1, 440740, Note_on_c, 11, 70, 127
1, 440740, Note_on_c, 7, 55, 127
1, 440808, Note_off_c, 11, 70, 127
1, 440809, Note_on_c, 10, 69, 127
1, 440882, Note_off_c, 10, 69, 127
1, 440883, Note_on_c, 7, 67, 127
1, 440960, Note_off_c, 7, 67, 127
1, 440960, Note_off_c, 7, 55, 127
1, 440961, Note_on_c, 0, 72, 127
1, 440961, Note_on_c, 3, 51, 127
1, 441029, Note_off_c, 0, 72, 127
1, 441030, Note_on_c, 11, 70, 127
1, 441103, Note_off_c, 11, 70, 127
1, 441104, Note_on_c, 10, 69, 127
1, 441181, Note_off_c, 10, 69, 127
1, 441181, Note_off_c, 3, 51, 127
1, 441182, Note_on_c, 11, 70, 127
1, 441182, Note_on_c, 0, 48, 127
1, 441250, Note_off_c, 11, 70, 127
1, 441251, Note_on_c, 10, 69, 127
1, 441324, Note_off_c, 10, 69, 127
1, 441325, Note_on_c, 7, 67, 127
1, 441402, Note_off_c, 7, 67, 127
1, 441402, Note_off_c, 0, 48, 127
1, 441403, Note_on_c, 6, 66, 127
1, 441403, Note_on_c, 2, 50, 127
1, 441513, Note_off_c, 2, 50, 127
1, 441514, Note_on_c, 3, 51, 127
1, 441624, Note_off_c, 3, 51, 127
1, 441625, Note_on_c, 2, 50, 127
1, 441735, Note_off_c, 2, 50, 127
1, 441735, Note_off_c, 6, 66, 127
1, 441736, Note_on_c, 10, 69, 127
1, 441736, Note_on_c, 0, 48, 127
1, 441846, Note_off_c, 0, 48, 127
1, 441846, Note_off_c, 10, 69, 127
1, 441847, Note_on_c, 2, 74, 127
1, 441847, Note_on_c, 11, 46, 127
1, 441957, Note_off_c, 11, 46, 127
1, 441957, Note_off_c, 2, 74, 127
1, 441958, Note_on_c, 0, 72, 127
1, 441958, Note_on_c, 10, 45, 127
1, 442068, Note_off_c, 10, 45, 127
1, 442068, Note_off_c, 0, 72, 127
1, 442069, Note_on_c, 11, 70, 127
1, 442069, Note_on_c, 7, 43, 127
1, 442179, Note_off_c, 11, 70, 127
1, 442180, Note_on_c, 10, 69, 127
1, 442290, Note_off_c, 10, 69, 127
1, 442290, Note_off_c, 7, 43, 127
1, 442291, Note_on_c, 11, 70, 127
1, 442291, Note_on_c, 7, 55, 127
1, 442401, Note_off_c, 11, 70, 127
1, 442402, Note_on_c, 2, 74, 127
1, 442512, Note_off_c, 2, 74, 127
1, 442512, Note_off_c, 7, 55, 127
1, 442513, Note_on_c, 0, 72, 127
1, 442513, Note_on_c, 10, 57, 127
1, 442623, Note_off_c, 0, 72, 127
1, 442624, Note_on_c, 3, 75, 127
1, 442734, Note_off_c, 3, 75, 127
1, 442734, Note_off_c, 10, 57, 127
1, 442735, Note_on_c, 2, 74, 127
1, 442735, Note_on_c, 11, 58, 127
1, 442845, Note_off_c, 2, 74, 127
1, 442846, Note_on_c, 11, 70, 127
1, 442956, Note_off_c, 11, 70, 127
1, 442957, Note_on_c, 7, 67, 127
1, 443067, Note_off_c, 7, 67, 127
1, 443068, Note_on_c, 7, 79, 127
1, 443178, Note_off_c, 7, 79, 127
1, 443178, Note_off_c, 11, 58, 127
1, 443179, Note_on_c, 10, 69, 127
1, 443179, Note_on_c, 0, 60, 127
1, 443289, Note_off_c, 10, 69, 127
1, 443290, Note_on_c, 7, 79, 127
1, 443400, Note_off_c, 7, 79, 127
1, 443400, Note_off_c, 0, 60, 127
1, 443401, Note_on_c, 11, 70, 127
1, 443401, Note_on_c, 2, 62, 127
1, 443511, Note_off_c, 11, 70, 127
1, 443512, Note_on_c, 7, 79, 127
1, 443622, Note_off_c, 7, 79, 127
1, 443622, Note_off_c, 2, 62, 127
1, 443623, Note_on_c, 0, 72, 127
1, 443623, Note_on_c, 3, 51, 127
1, 443733, Note_off_c, 0, 72, 127
1, 443734, Note_on_c, 2, 74, 127
1, 443844, Note_off_c, 2, 74, 127
1, 443845, Note_on_c, 3, 75, 127
1, 443947, Note_off_c, 3, 51, 127
1, 443955, Note_off_c, 3, 75, 127
1, 443956, Note_on_c, 0, 72, 127
1, 444066, Note_off_c, 0, 72, 127
1, 444067, Note_on_c, 10, 69, 127
1, 444067, Note_on_c, 0, 60, 127
1, 444177, Note_off_c, 10, 69, 127
1, 444178, Note_on_c, 5, 77, 127
1, 444288, Note_off_c, 5, 77, 127
1, 444288, Note_off_c, 0, 60, 127
1, 444289, Note_on_c, 11, 70, 127
1, 444289, Note_on_c, 2, 50, 127
1, 444399, Note_off_c, 11, 70, 127
1, 444400, Note_on_c, 0, 72, 127
1, 444510, Note_off_c, 0, 72, 127
1, 444511, Note_on_c, 2, 74, 127
1, 444613, Note_off_c, 2, 50, 127
1, 444621, Note_off_c, 2, 74, 127
1, 444622, Note_on_c, 11, 70, 127
1, 444732, Note_off_c, 11, 70, 127
1, 444733, Note_on_c, 7, 67, 127
1, 444733, Note_on_c, 11, 58, 127
1, 444843, Note_off_c, 7, 67, 127
1, 444844, Note_on_c, 3, 75, 127
1, 444954, Note_off_c, 3, 75, 127
1, 444954, Note_off_c, 11, 58, 127
1, 444955, Note_on_c, 10, 69, 127
1, 444955, Note_on_c, 0, 48, 127
1, 445065, Note_off_c, 10, 69, 127
1, 445066, Note_on_c, 11, 70, 127
1, 445176, Note_off_c, 11, 70, 127
1, 445177, Note_on_c, 0, 72, 127
1, 445279, Note_off_c, 0, 48, 127
1, 445287, Note_off_c, 0, 72, 127
1, 445288, Note_on_c, 10, 69, 127
1, 445398, Note_off_c, 10, 69, 127
1, 445399, Note_on_c, 6, 66, 127
1, 445399, Note_on_c, 10, 57, 127
1, 445509, Note_off_c, 6, 66, 127
1, 445510, Note_on_c, 2, 74, 127
1, 445620, Note_off_c, 2, 74, 127
1, 445620, Note_off_c, 10, 57, 127
1, 445621, Note_on_c, 7, 67, 127
1, 445621, Note_on_c, 11, 46, 127
1, 445731, Note_off_c, 7, 67, 127
1, 445732, Note_on_c, 10, 69, 127
1, 445842, Note_off_c, 10, 69, 127
1, 445843, Note_on_c, 11, 70, 127
1, 445945, Note_off_c, 11, 46, 127
1, 445953, Note_off_c, 11, 70, 127
1, 445954, Note_on_c, 7, 67, 127
1, 446064, Note_off_c, 7, 67, 127
1, 446065, Note_on_c, 2, 62, 127
1, 446175, Note_off_c, 2, 62, 127
1, 446176, Note_on_c, 0, 72, 127
1, 446286, Note_off_c, 0, 72, 127
1, 446287, Note_on_c, 11, 70, 127
1, 446287, Note_on_c, 0, 48, 127
1, 446397, Note_off_c, 11, 70, 127
1, 446398, Note_on_c, 10, 69, 127
1, 446508, Note_off_c, 10, 69, 127
1, 446508, Note_off_c, 0, 48, 127
1, 446509, Note_on_c, 7, 67, 127
1, 446509, Note_on_c, 2, 50, 127
1, 446619, Note_off_c, 7, 67, 127
1, 446620, Note_on_c, 6, 66, 127
1, 446730, Note_off_c, 6, 66, 127
1, 446730, Note_off_c, 2, 50, 127
1, 446731, Note_on_c, 7, 67, 127
1, 446731, Note_on_c, 7, 43, 127
1, 446841, Note_off_c, 7, 43, 127
1, 446842, Note_on_c, 8, 56, 127
1, 446952, Note_off_c, 8, 56, 127
1, 446953, Note_on_c, 7, 55, 127
1, 447063, Note_off_c, 7, 55, 127
1, 447064, Note_on_c, 5, 53, 127
1, 447174, Note_off_c, 5, 53, 127
1, 447175, Note_on_c, 3, 51, 127
1, 447285, Note_off_c, 3, 51, 127
1, 447286, Note_off_c, 7, 67, 127
1, 447286, Note_on_c, 2, 50, 127
1, 447396, Note_off_c, 2, 50, 127
1, 447397, Note_on_c, 3, 51, 127
1, 447508, Note_on_c, 0, 84, 127
1, 447618, Note_off_c, 0, 84, 127
1, 447618, Note_off_c, 3, 51, 127
1, 447619, Note_on_c, 12, 83, 127
1, 447619, Note_on_c, 5, 53, 127
1, 447729, Note_off_c, 12, 83, 127
1, 447730, Note_on_c, 10, 81, 127
1, 447840, Note_off_c, 10, 81, 127
1, 447840, Note_off_c, 5, 53, 127
1, 447841, Note_on_c, 7, 79, 127
1, 447841, Note_on_c, 7, 55, 127
1, 447951, Note_off_c, 7, 79, 127
1, 447952, Note_on_c, 5, 77, 127
1, 448062, Note_off_c, 5, 77, 127
1, 448062, Note_off_c, 7, 55, 127
1, 448063, Note_on_c, 3, 75, 127
1, 448063, Note_on_c, 0, 48, 127
1, 448173, Note_off_c, 0, 48, 127
1, 448174, Note_on_c, 0, 72, 127
1, 448284, Note_off_c, 0, 72, 127
1, 448285, Note_on_c, 12, 71, 127
1, 448395, Note_off_c, 12, 71, 127
1, 448396, Note_on_c, 10, 69, 127
1, 448506, Note_off_c, 10, 69, 127
1, 448506, Note_off_c, 3, 75, 127
1, 448507, Note_on_c, 5, 77, 127
1, 448507, Note_on_c, 7, 67, 127
1, 448617, Note_off_c, 7, 67, 127
1, 448618, Note_on_c, 5, 65, 127
1, 448728, Note_off_c, 5, 65, 127
1, 448728, Note_off_c, 5, 77, 127
1, 448729, Note_on_c, 7, 79, 127
1, 448729, Note_on_c, 3, 63, 127
1, 448839, Note_off_c, 7, 79, 127
1, 448840, Note_on_c, 11, 70, 127
1, 448950, Note_off_c, 11, 70, 127
1, 448951, Note_on_c, 8, 68, 127
1, 449053, Note_off_c, 3, 63, 127
1, 449062, Note_on_c, 7, 67, 127
1, 449172, Note_off_c, 7, 67, 127
1, 449173, Note_on_c, 5, 65, 127
1, 449283, Note_off_c, 5, 65, 127
1, 449284, Note_on_c, 3, 63, 127
1, 449390, Note_off_c, 8, 68, 127
1, 449393, Note_off_c, 3, 63, 127
1, 449394, Note_on_c, 5, 77, 127
1, 449394, Note_on_c, 2, 62, 127
1, 449504, Note_off_c, 5, 77, 127
1, 449505, Note_on_c, 8, 68, 127
1, 449615, Note_off_c, 8, 68, 127
1, 449616, Note_on_c, 7, 67, 127
1, 449718, Note_off_c, 2, 62, 127
1, 449727, Note_on_c, 5, 65, 127
1, 449837, Note_off_c, 5, 65, 127
1, 449838, Note_on_c, 3, 63, 127
1, 449948, Note_off_c, 3, 63, 127
1, 449949, Note_on_c, 2, 62, 127
1, 450055, Note_off_c, 7, 67, 127
1, 450058, Note_off_c, 2, 62, 127
1, 450059, Note_on_c, 3, 75, 127
1, 450059, Note_on_c, 0, 60, 127
1, 450169, Note_off_c, 3, 75, 127
1, 450170, Note_on_c, 7, 67, 127
1, 450280, Note_off_c, 7, 67, 127
1, 450281, Note_on_c, 5, 65, 127
1, 450383, Note_off_c, 0, 60, 127
1, 450392, Note_on_c, 3, 63, 127
1, 450502, Note_off_c, 3, 63, 127
1, 450503, Note_on_c, 2, 62, 127
1, 450613, Note_off_c, 2, 62, 127
1, 450614, Note_on_c, 0, 60, 127
1, 450720, Note_off_c, 5, 65, 127
1, 450723, Note_off_c, 0, 60, 127
1, 450724, Note_on_c, 2, 74, 127
1, 450724, Note_on_c, 12, 59, 127
1, 450834, Note_off_c, 2, 74, 127
1, 450835, Note_on_c, 5, 65, 127
1, 450945, Note_off_c, 5, 65, 127
1, 450946, Note_on_c, 3, 63, 127
1, 451048, Note_off_c, 12, 59, 127
1, 451057, Note_on_c, 2, 62, 127
1, 451167, Note_off_c, 2, 62, 127
1, 451168, Note_on_c, 0, 60, 127
1, 451278, Note_off_c, 0, 60, 127
1, 451279, Note_on_c, 11, 58, 127
1, 451385, Note_off_c, 3, 63, 127
1, 451388, Note_off_c, 11, 58, 127
1, 451389, Note_on_c, 8, 56, 127
1, 451500, Note_on_c, 7, 79, 127
1, 451610, Note_off_c, 7, 79, 127
1, 451610, Note_off_c, 8, 56, 127
1, 451611, Note_on_c, 5, 77, 127
1, 451611, Note_on_c, 8, 68, 127
1, 451721, Note_off_c, 5, 77, 127
1, 451722, Note_on_c, 3, 75, 127
1, 451832, Note_off_c, 3, 75, 127
1, 451832, Note_off_c, 8, 68, 127
1, 451833, Note_on_c, 2, 74, 127
1, 451833, Note_on_c, 5, 65, 127
1, 451943, Note_off_c, 2, 74, 127
1, 451944, Note_on_c, 0, 72, 127
1, 452054, Note_off_c, 0, 72, 127
1, 452054, Note_off_c, 5, 65, 127
1, 452055, Note_on_c, 12, 71, 127
1, 452055, Note_on_c, 7, 67, 127
1, 452165, Note_off_c, 7, 67, 127
1, 452165, Note_off_c, 12, 71, 127
1, 452166, Note_on_c, 0, 72, 127
1, 452166, Note_on_c, 8, 68, 127
1, 452276, Note_off_c, 8, 68, 127
1, 452276, Note_off_c, 0, 72, 127
1, 452277, Note_on_c, 2, 74, 127
1, 452277, Note_on_c, 7, 67, 127
1, 452387, Note_off_c, 7, 67, 127
1, 452387, Note_off_c, 2, 74, 127
1, 452388, Note_on_c, 12, 71, 127
1, 452388, Note_on_c, 5, 65, 127
1, 452498, Note_off_c, 5, 65, 127
1, 452498, Note_off_c, 12, 71, 127
1, 452499, Note_on_c, 7, 67, 127
1, 452499, Note_on_c, 3, 63, 127
1, 452609, Note_off_c, 3, 63, 127
1, 452610, Note_on_c, 2, 62, 127
1, 452718, Note_off_c, 7, 67, 127
1, 452719, Note_off_c, 2, 62, 127
1, 452720, Note_on_c, 0, 60, 127
1, 452830, Note_off_c, 0, 60, 127
1, 452831, Note_on_c, 0, 72, 127
1, 452831, Note_on_c, 3, 63, 127
1, 452941, Note_off_c, 3, 63, 127
1, 452941, Note_off_c, 0, 72, 127
1, 452942, Note_on_c, 11, 70, 127
1, 452942, Note_on_c, 2, 62, 127
1, 453052, Note_off_c, 2, 62, 127
1, 453052, Note_off_c, 11, 70, 127
1, 453053, Note_on_c, 8, 68, 127
1, 453053, Note_on_c, 0, 60, 127
1, 453163, Note_off_c, 0, 60, 127
1, 453163, Note_off_c, 8, 68, 127
1, 453164, Note_on_c, 7, 67, 127
1, 453164, Note_on_c, 11, 58, 127
1, 453274, Note_off_c, 11, 58, 127
1, 453274, Note_off_c, 7, 67, 127
1, 453275, Note_on_c, 5, 65, 127
1, 453275, Note_on_c, 8, 56, 127
1, 453385, Note_off_c, 8, 56, 127
1, 453385, Note_off_c, 5, 65, 127
1, 453386, Note_on_c, 3, 63, 127
1, 453386, Note_on_c, 7, 55, 127
1, 453496, Note_off_c, 7, 55, 127
1, 453497, Note_on_c, 0, 60, 127
1, 453607, Note_off_c, 0, 60, 127
1, 453608, Note_on_c, 11, 58, 127
1, 453718, Note_off_c, 11, 58, 127
1, 453719, Note_on_c, 8, 56, 127
1, 453825, Note_off_c, 3, 63, 127
1, 453828, Note_off_c, 8, 56, 127
1, 453829, Note_on_c, 5, 65, 127
1, 453829, Note_on_c, 7, 55, 127
1, 453939, Note_off_c, 7, 55, 127
1, 453940, Note_on_c, 5, 53, 127
1, 454048, Note_off_c, 5, 65, 127
1, 454049, Note_off_c, 5, 53, 127
1, 454050, Note_on_c, 7, 67, 127
1, 454050, Note_on_c, 3, 51, 127
1, 454161, Note_on_c, 11, 58, 127
1, 454271, Note_off_c, 11, 58, 127
1, 454272, Note_on_c, 8, 56, 127
1, 454374, Note_off_c, 7, 67, 127
1, 454382, Note_off_c, 8, 56, 127
1, 454383, Note_on_c, 7, 55, 127
1, 454493, Note_off_c, 7, 55, 127
1, 454494, Note_on_c, 5, 53, 127
1, 454596, Note_off_c, 3, 51, 127
1, 454604, Note_off_c, 5, 53, 127
1, 454605, Note_on_c, 3, 51, 127
1, 454715, Note_off_c, 3, 51, 127
1, 454716, Note_on_c, 5, 65, 127
1, 454716, Note_on_c, 2, 50, 127
1, 454827, Note_on_c, 8, 56, 127
1, 454937, Note_off_c, 8, 56, 127
1, 454938, Note_on_c, 7, 55, 127
1, 455040, Note_off_c, 5, 65, 127
1, 455048, Note_off_c, 7, 55, 127
1, 455049, Note_on_c, 5, 53, 127
1, 455159, Note_off_c, 5, 53, 127
1, 455160, Note_on_c, 3, 51, 127
1, 455262, Note_off_c, 2, 50, 127
1, 455270, Note_off_c, 3, 51, 127
1, 455271, Note_on_c, 2, 50, 127
1, 455381, Note_off_c, 2, 50, 127
1, 455382, Note_on_c, 3, 63, 127
1, 455382, Note_on_c, 0, 48, 127
1, 455493, Note_on_c, 7, 55, 127
1, 455603, Note_off_c, 7, 55, 127
1, 455604, Note_on_c, 5, 53, 127
1, 455706, Note_off_c, 3, 63, 127
1, 455714, Note_off_c, 5, 53, 127
1, 455715, Note_on_c, 3, 51, 127
1, 455825, Note_off_c, 3, 51, 127
1, 455826, Note_on_c, 2, 50, 127
1, 455928, Note_off_c, 0, 48, 127
1, 455936, Note_off_c, 2, 50, 127
1, 455937, Note_on_c, 0, 48, 127
1, 456047, Note_off_c, 0, 48, 127
1, 456048, Note_on_c, 2, 62, 127
1, 456048, Note_on_c, 12, 47, 127
1, 456159, Note_on_c, 5, 53, 127
1, 456269, Note_off_c, 5, 53, 127
1, 456270, Note_on_c, 3, 51, 127
1, 456372, Note_off_c, 12, 47, 127
1, 456372, Note_off_c, 2, 62, 127
1, 456380, Note_off_c, 3, 51, 127
1, 456381, Note_on_c, 2, 50, 127
1, 456491, Note_off_c, 2, 50, 127
1, 456492, Note_on_c, 0, 48, 127
1, 456602, Note_off_c, 0, 48, 127
1, 456603, Note_on_c, 11, 46, 127
1, 456713, Note_off_c, 11, 46, 127
1, 456714, Note_on_c, 8, 44, 127
1, 456833, Note_on_c, 0, 48, 127
1, 456922, Note_off_c, 8, 44, 127
1, 456964, Note_on_c, 0, 60, 127
1, 456964, Note_on_c, 8, 56, 127
1, 456964, Note_on_c, 5, 41, 127
1, 456964, Note_on_c, 3, 51, 127
1, 456965, Note_off_c, 0, 48, 127
1, 457184, Note_off_c, 3, 51, 127
1, 457184, Note_off_c, 5, 41, 127
1, 457184, Note_off_c, 8, 56, 127
1, 457184, Note_off_c, 0, 60, 127
1, 457275, Note_on_c, 7, 43, 127
1, 457275, Note_on_c, 2, 50, 127
1, 457275, Note_on_c, 7, 55, 127
1, 457275, Note_on_c, 12, 59, 127
1, 457495, Note_off_c, 12, 59, 127
1, 457495, Note_off_c, 7, 55, 127
1, 457495, Note_off_c, 2, 50, 127
1, 457495, Note_off_c, 7, 43, 127
1, 457652, Note_on_c, 0, 36, 127
1, 457652, Note_on_c, 7, 55, 127
1, 457652, Note_on_c, 3, 51, 127
1, 457652, Note_on_c, 0, 60, 127
1, 459452, Note_off_c, 0, 60, 127
1, 459452, Note_off_c, 3, 51, 127
1, 459452, Note_off_c, 7, 55, 127
1, 459452, Note_off_c, 0, 36, 127
1, 461515, Note_on_c, 3, 51, 127
1, 461515, Note_on_c, 0, 48, 127
1, 461741, Note_on_c, 7, 67, 127
1, 461962, Note_off_c, 0, 48, 127
1, 461962, Note_off_c, 3, 51, 127
1, 461964, Note_off_c, 7, 67, 127
1, 461966, Note_on_c, 0, 72, 127
1, 462192, Note_on_c, 3, 51, 127
1, 462192, Note_on_c, 0, 48, 127
1, 462416, Note_off_c, 0, 48, 127
1, 462416, Note_off_c, 3, 51, 127
1, 462418, Note_on_c, 5, 53, 127
1, 462418, Note_on_c, 2, 50, 127
1, 462642, Note_off_c, 0, 72, 127
1, 462644, Note_on_c, 2, 74, 127
1, 462755, Note_off_c, 2, 74, 127
1, 462757, Note_on_c, 0, 72, 127
1, 462865, Note_off_c, 2, 50, 127
1, 462865, Note_off_c, 5, 53, 127
1, 462867, Note_off_c, 0, 72, 127
1, 462869, Note_on_c, 12, 71, 127
1, 462980, Note_off_c, 12, 71, 127
1, 462982, Note_on_c, 10, 69, 127
1, 463093, Note_off_c, 10, 69, 127
1, 463095, Note_on_c, 12, 59, 127
1, 463095, Note_on_c, 7, 67, 127
1, 463206, Note_off_c, 7, 67, 127
1, 463208, Note_on_c, 5, 65, 127
1, 463319, Note_off_c, 5, 65, 127
1, 463319, Note_off_c, 12, 59, 127
1, 463321, Note_on_c, 0, 60, 127
1, 463321, Note_on_c, 3, 63, 127
1, 463545, Note_off_c, 3, 63, 127
1, 463547, Note_on_c, 3, 51, 127
1, 463547, Note_on_c, 7, 79, 127
1, 463771, Note_off_c, 7, 79, 127
1, 463771, Note_off_c, 3, 51, 127
1, 463773, Note_on_c, 5, 53, 127
1, 463773, Note_on_c, 2, 62, 127
1, 463997, Note_off_c, 2, 62, 127
1, 463997, Note_off_c, 5, 53, 127
1, 463997, Note_off_c, 0, 60, 127
1, 463999, Note_on_c, 12, 59, 127
1, 463999, Note_on_c, 7, 55, 127
1, 463999, Note_on_c, 5, 77, 127
1, 464223, Note_off_c, 5, 77, 127
1, 464223, Note_off_c, 7, 55, 127
1, 464223, Note_off_c, 12, 59, 127
1, 464225, Note_on_c, 0, 60, 127
1, 464225, Note_on_c, 0, 48, 127
1, 464225, Note_on_c, 3, 75, 127
1, 464336, Note_off_c, 3, 75, 127
1, 464338, Note_on_c, 2, 74, 127
1, 464449, Note_off_c, 2, 74, 127
1, 464449, Note_off_c, 0, 48, 127
1, 464449, Note_off_c, 0, 60, 127
1, 464451, Note_on_c, 0, 60, 127
1, 464451, Note_on_c, 0, 72, 127
1, 464562, Note_off_c, 0, 72, 127
1, 464564, Note_on_c, 2, 74, 127
1, 464675, Note_off_c, 2, 74, 127
1, 464675, Note_off_c, 0, 60, 127
1, 464677, Note_on_c, 11, 58, 127
1, 464677, Note_on_c, 4, 76, 127
1, 464788, Note_off_c, 4, 76, 127
1, 464790, Note_on_c, 6, 78, 127
1, 464901, Note_off_c, 6, 78, 127
1, 464901, Note_off_c, 11, 58, 127
1, 464903, Note_on_c, 10, 57, 127
1, 464903, Note_on_c, 7, 79, 127
1, 465014, Note_off_c, 7, 79, 127
1, 465016, Note_on_c, 10, 81, 127
1, 465127, Note_off_c, 10, 81, 127
1, 465127, Note_off_c, 10, 57, 127
1, 465129, Note_on_c, 7, 55, 127
1, 465129, Note_on_c, 11, 82, 127
1, 465240, Note_off_c, 11, 82, 127
1, 465242, Note_on_c, 7, 79, 127
1, 465353, Note_off_c, 7, 79, 127
1, 465355, Note_on_c, 2, 62, 127
1, 465355, Note_on_c, 6, 78, 127
1, 465466, Note_off_c, 6, 78, 127
1, 465468, Note_on_c, 7, 79, 127
1, 465576, Note_off_c, 7, 55, 127
1, 465578, Note_off_c, 7, 79, 127
1, 465578, Note_off_c, 2, 62, 127
1, 465580, Note_on_c, 7, 67, 127
1, 465580, Note_on_c, 2, 74, 127
1, 465691, Note_off_c, 2, 74, 127
1, 465693, Note_on_c, 7, 79, 127
1, 465804, Note_off_c, 7, 79, 127
1, 465806, Note_on_c, 7, 55, 127
1, 465806, Note_on_c, 6, 78, 127
1, 465917, Note_off_c, 6, 78, 127
1, 465919, Note_on_c, 7, 79, 127
1, 466030, Note_off_c, 7, 79, 127
1, 466030, Note_off_c, 7, 55, 127
1, 466032, Note_on_c, 10, 57, 127
1, 466032, Note_on_c, 0, 84, 127
1, 466143, Note_off_c, 0, 84, 127
1, 466145, Note_on_c, 7, 79, 127
1, 466256, Note_off_c, 7, 79, 127
1, 466256, Note_off_c, 7, 67, 127
1, 466258, Note_on_c, 10, 69, 127
1, 466258, Note_on_c, 6, 78, 127
1, 466369, Note_off_c, 6, 78, 127
1, 466369, Note_off_c, 10, 69, 127
1, 466371, Note_on_c, 7, 67, 127
1, 466371, Note_on_c, 7, 79, 127
1, 466479, Note_off_c, 10, 57, 127
1, 466481, Note_off_c, 7, 79, 127
1, 466481, Note_off_c, 7, 67, 127
1, 466483, Note_on_c, 6, 66, 127
1, 466483, Note_on_c, 10, 81, 127
1, 466594, Note_off_c, 10, 81, 127
1, 466594, Note_off_c, 6, 66, 127
1, 466596, Note_on_c, 4, 64, 127
1, 466596, Note_on_c, 7, 79, 127
1, 466707, Note_off_c, 7, 79, 127
1, 466707, Note_off_c, 4, 64, 127
1, 466709, Note_on_c, 2, 62, 127
1, 466709, Note_on_c, 6, 78, 127
1, 466820, Note_off_c, 6, 78, 127
1, 466820, Note_off_c, 2, 62, 127
1, 466822, Note_on_c, 0, 60, 127
1, 466822, Note_on_c, 7, 79, 127
1, 466933, Note_off_c, 7, 79, 127
1, 466933, Note_off_c, 0, 60, 127
1, 466935, Note_on_c, 11, 58, 127
1, 466935, Note_on_c, 2, 74, 127
1, 467159, Note_off_c, 2, 74, 127
1, 467159, Note_off_c, 11, 58, 127
1, 467161, Note_on_c, 2, 74, 127
1, 467161, Note_on_c, 11, 46, 127
1, 467161, Note_on_c, 7, 79, 127
1, 467385, Note_off_c, 11, 46, 127
1, 467385, Note_off_c, 2, 74, 127
1, 467387, Note_on_c, 10, 57, 127
1, 467387, Note_on_c, 0, 48, 127
1, 467611, Note_off_c, 0, 48, 127
1, 467611, Note_off_c, 10, 57, 127
1, 467611, Note_off_c, 7, 79, 127
1, 467613, Note_on_c, 0, 72, 127
1, 467613, Note_on_c, 2, 50, 127
1, 467613, Note_on_c, 6, 78, 127
1, 467837, Note_off_c, 6, 78, 127
1, 467837, Note_off_c, 2, 50, 127
1, 467839, Note_on_c, 7, 43, 127
1, 467839, Note_on_c, 7, 79, 127
1, 467950, Note_off_c, 0, 72, 127
1, 467952, Note_on_c, 11, 70, 127
1, 468063, Note_off_c, 11, 70, 127
1, 468063, Note_off_c, 7, 79, 127
1, 468063, Note_off_c, 7, 43, 127
1, 468065, Note_on_c, 10, 69, 127
1, 468065, Note_on_c, 2, 50, 127
1, 468176, Note_off_c, 10, 69, 127
1, 468178, Note_on_c, 0, 72, 127
1, 468289, Note_off_c, 0, 72, 127
1, 468289, Note_off_c, 2, 50, 127
1, 468291, Note_on_c, 11, 70, 127
1, 468291, Note_on_c, 7, 55, 127
1, 468402, Note_off_c, 11, 70, 127
1, 468404, Note_on_c, 10, 69, 127
1, 468515, Note_off_c, 10, 69, 127
1, 468517, Note_on_c, 7, 67, 127
1, 468628, Note_off_c, 7, 67, 127
1, 468630, Note_on_c, 5, 65, 127
1, 468741, Note_off_c, 5, 65, 127
1, 468743, Note_on_c, 3, 63, 127
1, 468856, Note_on_c, 0, 72, 127
1, 468967, Note_off_c, 0, 72, 127
1, 468967, Note_off_c, 3, 63, 127
1, 468967, Note_off_c, 7, 55, 127
1, 468969, Note_on_c, 0, 60, 127
1, 468969, Note_on_c, 10, 57, 127
1, 468969, Note_on_c, 6, 66, 127
1, 469080, Note_off_c, 6, 66, 127
1, 469080, Note_off_c, 10, 57, 127
1, 469082, Note_on_c, 7, 55, 127
1, 469082, Note_on_c, 7, 67, 127
1, 469193, Note_off_c, 7, 67, 127
1, 469193, Note_off_c, 7, 55, 127
1, 469193, Note_off_c, 0, 60, 127
1, 469195, Note_on_c, 6, 54, 127
1, 469195, Note_on_c, 10, 69, 127
1, 469306, Note_off_c, 10, 69, 127
1, 469306, Note_off_c, 6, 54, 127
1, 469308, Note_on_c, 4, 52, 127
1, 469308, Note_on_c, 11, 70, 127
1, 469419, Note_off_c, 11, 70, 127
1, 469419, Note_off_c, 4, 52, 127
1, 469421, Note_on_c, 6, 66, 127
1, 469421, Note_on_c, 2, 50, 127
1, 469421, Note_on_c, 0, 72, 127
1, 469532, Note_off_c, 2, 50, 127
1, 469534, Note_on_c, 0, 48, 127
1, 469645, Note_off_c, 0, 48, 127
1, 469645, Note_off_c, 6, 66, 127
1, 469647, Note_on_c, 7, 67, 127
1, 469647, Note_on_c, 11, 46, 127
1, 469758, Note_off_c, 0, 72, 127
1, 469760, Note_on_c, 11, 70, 127
1, 469871, Note_off_c, 11, 70, 127
1, 469871, Note_off_c, 11, 46, 127
1, 469871, Note_off_c, 7, 67, 127
1, 469873, Note_on_c, 2, 62, 127
1, 469873, Note_on_c, 10, 69, 127
1, 469984, Note_off_c, 10, 69, 127
1, 469986, Note_on_c, 11, 70, 127
1, 470097, Note_off_c, 11, 70, 127
1, 470097, Note_off_c, 2, 62, 127
1, 470099, Note_on_c, 10, 45, 127
1, 470099, Note_on_c, 0, 72, 127
1, 470210, Note_off_c, 0, 72, 127
1, 470212, Note_on_c, 2, 74, 127
1, 470323, Note_off_c, 2, 74, 127
1, 470323, Note_off_c, 10, 45, 127
1, 470325, Note_on_c, 10, 69, 127
1, 470325, Note_on_c, 0, 60, 127
1, 470325, Note_on_c, 4, 76, 127
1, 470436, Note_off_c, 4, 76, 127
1, 470438, Note_on_c, 6, 78, 127
1, 470549, Note_off_c, 6, 78, 127
1, 470549, Note_off_c, 0, 60, 127
1, 470549, Note_off_c, 10, 69, 127
1, 470551, Note_on_c, 11, 70, 127
1, 470551, Note_on_c, 7, 43, 127
1, 470551, Note_on_c, 7, 79, 127
1, 470662, Note_off_c, 11, 70, 127
1, 470664, Note_on_c, 2, 74, 127
1, 470775, Note_off_c, 7, 79, 127
1, 470775, Note_off_c, 7, 43, 127
1, 470777, Note_on_c, 11, 58, 127
1, 470777, Note_on_c, 6, 78, 127
1, 470888, Note_off_c, 6, 78, 127
1, 470890, Note_on_c, 7, 79, 127
1, 471001, Note_off_c, 11, 58, 127
1, 471001, Note_off_c, 2, 74, 127
1, 471003, Note_on_c, 11, 70, 127
1, 471003, Note_on_c, 5, 41, 127
1, 471114, Note_off_c, 11, 70, 127
1, 471116, Note_on_c, 1, 73, 127
1, 471227, Note_off_c, 1, 73, 127
1, 471227, Note_off_c, 5, 41, 127
1, 471229, Note_on_c, 0, 72, 127
1, 471229, Note_on_c, 8, 56, 127
1, 471340, Note_off_c, 0, 72, 127
1, 471342, Note_on_c, 1, 73, 127
1, 471453, Note_off_c, 1, 73, 127
1, 471453, Note_off_c, 8, 56, 127
1, 471455, Note_on_c, 11, 70, 127
1, 471455, Note_on_c, 4, 40, 127
1, 471566, Note_off_c, 11, 70, 127
1, 471568, Note_on_c, 1, 73, 127
1, 471679, Note_off_c, 4, 40, 127
1, 471679, Note_off_c, 7, 79, 127
1, 471681, Note_on_c, 7, 55, 127
1, 471681, Note_on_c, 4, 76, 127
1, 471792, Note_off_c, 4, 76, 127
1, 471794, Note_on_c, 7, 79, 127
1, 471905, Note_off_c, 7, 55, 127
1, 471905, Note_off_c, 1, 73, 127
1, 471907, Note_on_c, 11, 70, 127
1, 471907, Note_on_c, 0, 36, 127
1, 472018, Note_off_c, 11, 70, 127
1, 472020, Note_on_c, 0, 72, 127
1, 472131, Note_off_c, 0, 72, 127
1, 472131, Note_off_c, 0, 36, 127
1, 472133, Note_on_c, 11, 70, 127
1, 472133, Note_on_c, 4, 52, 127
1, 472244, Note_off_c, 11, 70, 127
1, 472246, Note_on_c, 0, 72, 127
1, 472357, Note_off_c, 0, 72, 127
1, 472357, Note_off_c, 4, 52, 127
1, 472359, Note_on_c, 8, 68, 127
1, 472359, Note_on_c, 5, 41, 127
1, 472470, Note_off_c, 8, 68, 127
1, 472472, Note_on_c, 0, 72, 127
1, 472583, Note_off_c, 5, 41, 127
1, 472583, Note_off_c, 7, 79, 127
1, 472585, Note_on_c, 8, 56, 127
1, 472585, Note_on_c, 4, 76, 127
1, 472696, Note_off_c, 4, 76, 127
1, 472698, Note_on_c, 5, 77, 127
1, 472809, Note_off_c, 8, 56, 127
1, 472809, Note_off_c, 0, 72, 127
1, 472811, Note_on_c, 8, 68, 127
1, 472811, Note_on_c, 3, 39, 127
1, 472922, Note_off_c, 8, 68, 127
1, 472924, Note_on_c, 0, 72, 127
1, 473035, Note_off_c, 0, 72, 127
1, 473035, Note_off_c, 3, 39, 127
1, 473037, Note_on_c, 11, 70, 127
1, 473037, Note_on_c, 7, 55, 127
1, 473148, Note_off_c, 11, 70, 127
1, 473150, Note_on_c, 0, 72, 127
1, 473261, Note_off_c, 0, 72, 127
1, 473261, Note_off_c, 7, 55, 127
1, 473263, Note_on_c, 8, 68, 127
1, 473263, Note_on_c, 2, 38, 127
1, 473374, Note_off_c, 8, 68, 127
1, 473376, Note_on_c, 11, 70, 127
1, 473487, Note_off_c, 2, 38, 127
1, 473487, Note_off_c, 5, 77, 127
1, 473489, Note_on_c, 5, 53, 127
1, 473489, Note_on_c, 2, 74, 127
1, 473600, Note_off_c, 2, 74, 127
1, 473602, Note_on_c, 5, 77, 127
1, 473713, Note_off_c, 5, 53, 127
1, 473713, Note_off_c, 11, 70, 127
1, 473715, Note_on_c, 8, 68, 127
1, 473715, Note_on_c, 11, 34, 127
1, 473826, Note_off_c, 8, 68, 127
1, 473828, Note_on_c, 11, 70, 127
1, 473939, Note_off_c, 11, 70, 127
1, 473939, Note_off_c, 11, 34, 127
1, 473941, Note_on_c, 8, 68, 127
1, 473941, Note_on_c, 2, 50, 127
1, 474052, Note_off_c, 8, 68, 127
1, 474054, Note_on_c, 11, 70, 127
1, 474165, Note_off_c, 11, 70, 127
1, 474165, Note_off_c, 2, 50, 127
1, 474167, Note_on_c, 7, 67, 127
1, 474167, Note_on_c, 3, 39, 127
1, 474278, Note_off_c, 5, 77, 127
1, 474280, Note_on_c, 3, 75, 127
1, 474391, Note_off_c, 3, 75, 127
1, 474391, Note_off_c, 3, 39, 127
1, 474391, Note_off_c, 7, 67, 127
1, 474393, Note_on_c, 3, 51, 127
1, 474393, Note_on_c, 2, 74, 127
1, 474504, Note_off_c, 2, 74, 127
1, 474506, Note_on_c, 5, 77, 127
1, 474617, Note_off_c, 5, 77, 127
1, 474617, Note_off_c, 3, 51, 127
1, 474619, Note_on_c, 5, 53, 127
1, 474619, Note_on_c, 3, 75, 127
1, 474730, Note_off_c, 3, 75, 127
1, 474732, Note_on_c, 2, 74, 127
1, 474843, Note_off_c, 2, 74, 127
1, 474843, Note_off_c, 5, 53, 127
1, 474845, Note_on_c, 7, 55, 127
1, 474845, Note_on_c, 0, 72, 127
1, 474956, Note_off_c, 0, 72, 127
1, 474958, Note_on_c, 12, 71, 127
1, 475069, Note_off_c, 12, 71, 127
1, 475069, Note_off_c, 7, 55, 127
1, 475071, Note_on_c, 8, 56, 127
1, 475071, Note_on_c, 0, 72, 127
1, 475182, Note_off_c, 0, 72, 127
1, 475184, Note_on_c, 12, 71, 127
1, 475295, Note_off_c, 12, 71, 127
1, 475295, Note_off_c, 8, 56, 127
1, 475297, Note_on_c, 3, 63, 127
1, 475297, Note_on_c, 0, 72, 127
1, 475408, Note_off_c, 0, 72, 127
1, 475408, Note_off_c, 3, 63, 127
1, 475410, Note_on_c, 5, 65, 127
1, 475410, Note_on_c, 2, 74, 127
1, 475521, Note_off_c, 2, 74, 127
1, 475521, Note_off_c, 5, 65, 127
1, 475523, Note_on_c, 7, 67, 127
1, 475523, Note_on_c, 3, 75, 127
1, 475634, Note_off_c, 3, 75, 127
1, 475634, Note_off_c, 7, 67, 127
1, 475636, Note_on_c, 10, 69, 127
1, 475636, Note_on_c, 5, 77, 127
1, 475747, Note_off_c, 5, 77, 127
1, 475747, Note_off_c, 10, 69, 127
1, 475749, Note_on_c, 12, 71, 127
1, 475749, Note_on_c, 7, 79, 127
1, 475860, Note_off_c, 12, 71, 127
1, 475862, Note_on_c, 0, 72, 127
1, 475973, Note_off_c, 0, 72, 127
1, 475975, Note_on_c, 2, 74, 127
1, 476086, Note_off_c, 7, 79, 127
1, 476088, Note_on_c, 5, 77, 127
1, 476199, Note_off_c, 5, 77, 127
1, 476199, Note_off_c, 2, 74, 127
1, 476201, Note_on_c, 2, 50, 127
1, 476201, Note_on_c, 3, 75, 127
1, 476312, Note_off_c, 3, 75, 127
1, 476314, Note_on_c, 7, 79, 127
1, 476425, Note_off_c, 7, 79, 127
1, 476425, Note_off_c, 2, 50, 127
1, 476427, Note_on_c, 3, 51, 127
1, 476427, Note_on_c, 5, 77, 127
1, 476538, Note_off_c, 5, 77, 127
1, 476540, Note_on_c, 3, 75, 127
1, 476651, Note_off_c, 3, 75, 127
1, 476651, Note_off_c, 3, 51, 127
1, 476653, Note_on_c, 5, 53, 127
1, 476653, Note_on_c, 2, 74, 127
1, 476764, Note_off_c, 2, 74, 127
1, 476766, Note_on_c, 0, 72, 127
1, 476877, Note_off_c, 0, 72, 127
1, 476877, Note_off_c, 5, 53, 127
1, 476879, Note_on_c, 7, 55, 127
1, 476879, Note_on_c, 12, 71, 127
1, 476990, Note_off_c, 12, 71, 127
1, 476992, Note_on_c, 10, 69, 127
1, 477103, Note_off_c, 10, 69, 127
1, 477103, Note_off_c, 7, 55, 127
1, 477105, Note_on_c, 2, 62, 127
1, 477105, Note_on_c, 12, 71, 127
1, 477216, Note_off_c, 12, 71, 127
1, 477216, Note_off_c, 2, 62, 127
1, 477218, Note_on_c, 3, 63, 127
1, 477218, Note_on_c, 0, 72, 127
1, 477329, Note_off_c, 0, 72, 127
1, 477329, Note_off_c, 3, 63, 127
1, 477331, Note_on_c, 5, 65, 127
1, 477331, Note_on_c, 2, 74, 127
1, 477442, Note_off_c, 2, 74, 127
1, 477442, Note_off_c, 5, 65, 127
1, 477444, Note_on_c, 7, 67, 127
1, 477444, Note_on_c, 3, 75, 127
1, 477555, Note_off_c, 3, 75, 127
1, 477555, Note_off_c, 7, 67, 127
1, 477557, Note_on_c, 10, 69, 127
1, 477557, Note_on_c, 5, 77, 127
1, 477668, Note_off_c, 10, 69, 127
1, 477670, Note_on_c, 12, 71, 127
1, 477781, Note_off_c, 12, 71, 127
1, 477783, Note_on_c, 0, 72, 127
1, 477894, Note_off_c, 5, 77, 127
1, 477896, Note_on_c, 8, 80, 127
1, 478007, Note_off_c, 8, 80, 127
1, 478007, Note_off_c, 0, 72, 127
1, 478009, Note_on_c, 7, 55, 127
1, 478009, Note_on_c, 7, 79, 127
1, 478120, Note_off_c, 7, 79, 127
1, 478122, Note_on_c, 5, 77, 127
1, 478233, Note_off_c, 5, 77, 127
1, 478233, Note_off_c, 7, 55, 127
1, 478235, Note_on_c, 0, 60, 127
1, 478235, Note_on_c, 3, 75, 127
1, 478346, Note_off_c, 3, 75, 127
1, 478348, Note_on_c, 2, 74, 127
1, 478459, Note_off_c, 2, 74, 127
1, 478461, Note_on_c, 0, 72, 127
1, 478572, Note_off_c, 0, 72, 127
1, 478574, Note_on_c, 11, 70, 127
1, 478685, Note_off_c, 11, 70, 127
1, 478687, Note_on_c, 8, 68, 127
1, 478798, Note_off_c, 8, 68, 127
1, 478800, Note_on_c, 0, 72, 127
1, 478911, Note_off_c, 0, 72, 127
1, 478911, Note_off_c, 0, 60, 127
1, 478913, Note_on_c, 2, 62, 127
1, 478913, Note_on_c, 5, 77, 127
1, 479024, Note_off_c, 5, 77, 127
1, 479024, Note_off_c, 2, 62, 127
1, 479026, Note_on_c, 0, 60, 127
1, 479026, Note_on_c, 3, 75, 127
1, 479137, Note_off_c, 3, 75, 127
1, 479137, Note_off_c, 0, 60, 127
1, 479139, Note_on_c, 12, 59, 127
1, 479139, Note_on_c, 2, 74, 127
1, 479250, Note_off_c, 2, 74, 127
1, 479250, Note_off_c, 12, 59, 127
1, 479252, Note_on_c, 10, 57, 127
1, 479252, Note_on_c, 0, 72, 127
1, 479363, Note_off_c, 0, 72, 127
1, 479363, Note_off_c, 10, 57, 127
1, 479365, Note_on_c, 7, 55, 127
1, 479365, Note_on_c, 12, 71, 127
1, 479476, Note_off_c, 12, 71, 127
1, 479476, Note_off_c, 7, 55, 127
1, 479478, Note_on_c, 5, 53, 127
1, 479478, Note_on_c, 2, 74, 127
1, 479589, Note_off_c, 2, 74, 127
1, 479589, Note_off_c, 5, 53, 127
1, 479591, Note_on_c, 3, 51, 127
1, 479591, Note_on_c, 7, 79, 127
1, 479702, Note_off_c, 7, 79, 127
1, 479704, Note_on_c, 5, 77, 127
1, 479815, Note_off_c, 5, 77, 127
1, 479815, Note_off_c, 3, 51, 127
1, 479817, Note_on_c, 0, 72, 127
1, 479817, Note_on_c, 7, 67, 127
1, 479817, Note_on_c, 3, 75, 127
1, 479928, Note_off_c, 3, 75, 127
1, 479930, Note_on_c, 7, 79, 127
1, 480041, Note_off_c, 7, 79, 127
1, 480041, Note_off_c, 7, 67, 127
1, 480043, Note_on_c, 2, 50, 127
1, 480043, Note_on_c, 5, 77, 127
1, 480154, Note_off_c, 5, 77, 127
1, 480156, Note_on_c, 3, 75, 127
1, 480267, Note_off_c, 3, 75, 127
1, 480267, Note_off_c, 2, 50, 127
1, 480267, Note_off_c, 0, 72, 127
1, 480269, Note_on_c, 12, 71, 127
1, 480269, Note_on_c, 5, 65, 127
1, 480269, Note_on_c, 2, 74, 127
1, 480380, Note_off_c, 2, 74, 127
1, 480382, Note_on_c, 5, 77, 127
1, 480493, Note_off_c, 5, 77, 127
1, 480493, Note_off_c, 5, 65, 127
1, 480493, Note_off_c, 12, 71, 127
1, 480495, Note_on_c, 0, 48, 127
1, 480495, Note_on_c, 3, 75, 127
1, 480608, Note_on_c, 0, 72, 127
1, 480719, Note_off_c, 0, 72, 127
1, 480719, Note_off_c, 0, 48, 127
1, 480721, Note_on_c, 12, 71, 127
1, 480721, Note_on_c, 3, 63, 127
1, 480832, Note_off_c, 3, 63, 127
1, 480832, Note_off_c, 12, 71, 127
1, 480834, Note_on_c, 0, 72, 127
1, 480834, Note_on_c, 2, 62, 127
1, 480942, Note_off_c, 3, 75, 127
1, 480944, Note_off_c, 2, 62, 127
1, 480944, Note_off_c, 0, 72, 127
1, 480946, Note_on_c, 7, 67, 127
1, 480946, Note_on_c, 0, 60, 127
1, 481057, Note_off_c, 7, 67, 127
1, 481059, Note_on_c, 0, 72, 127
1, 481170, Note_off_c, 0, 72, 127
1, 481170, Note_off_c, 0, 60, 127
1, 481172, Note_on_c, 12, 71, 127
1, 481172, Note_on_c, 3, 63, 127
1, 481283, Note_off_c, 12, 71, 127
1, 481285, Note_on_c, 0, 72, 127
1, 481396, Note_off_c, 0, 72, 127
1, 481396, Note_off_c, 3, 63, 127
1, 481398, Note_on_c, 3, 75, 127
1, 481398, Note_on_c, 10, 57, 127
1, 481509, Note_off_c, 3, 75, 127
1, 481511, Note_on_c, 0, 72, 127
1, 481622, Note_off_c, 0, 72, 127
1, 481622, Note_off_c, 10, 57, 127
1, 481624, Note_on_c, 10, 81, 127
1, 481624, Note_on_c, 0, 60, 127
1, 481735, Note_off_c, 10, 81, 127
1, 481737, Note_on_c, 3, 75, 127
1, 481848, Note_off_c, 3, 75, 127
1, 481848, Note_off_c, 0, 60, 127
1, 481850, Note_on_c, 0, 84, 127
1, 481850, Note_on_c, 5, 53, 127
1, 481961, Note_off_c, 0, 84, 127
1, 481963, Note_on_c, 3, 75, 127
1, 482074, Note_off_c, 3, 75, 127
1, 482074, Note_off_c, 5, 53, 127
1, 482076, Note_on_c, 2, 74, 127
1, 482076, Note_on_c, 10, 57, 127
1, 482187, Note_off_c, 2, 74, 127
1, 482189, Note_on_c, 0, 72, 127
1, 482300, Note_off_c, 0, 72, 127
1, 482300, Note_off_c, 10, 57, 127
1, 482302, Note_on_c, 2, 74, 127
1, 482302, Note_on_c, 11, 46, 127
1, 482413, Note_off_c, 2, 74, 127
1, 482415, Note_on_c, 11, 70, 127
1, 482526, Note_off_c, 11, 70, 127
1, 482526, Note_off_c, 11, 46, 127
1, 482528, Note_on_c, 10, 69, 127
1, 482528, Note_on_c, 2, 62, 127
1, 482639, Note_off_c, 2, 62, 127
1, 482639, Note_off_c, 10, 69, 127
1, 482641, Note_on_c, 11, 70, 127
1, 482641, Note_on_c, 0, 60, 127
1, 482752, Note_off_c, 0, 60, 127
1, 482752, Note_off_c, 11, 70, 127
1, 482754, Note_on_c, 5, 65, 127
1, 482754, Note_on_c, 11, 58, 127
1, 482865, Note_off_c, 5, 65, 127
1, 482867, Note_on_c, 11, 70, 127
1, 482978, Note_off_c, 11, 70, 127
1, 482978, Note_off_c, 11, 58, 127
1, 482980, Note_on_c, 10, 69, 127
1, 482980, Note_on_c, 2, 62, 127
1, 483091, Note_off_c, 10, 69, 127
1, 483093, Note_on_c, 11, 70, 127
1, 483204, Note_off_c, 11, 70, 127
1, 483204, Note_off_c, 2, 62, 127
1, 483206, Note_on_c, 2, 74, 127
1, 483206, Note_on_c, 7, 55, 127
1, 483317, Note_off_c, 2, 74, 127
1, 483319, Note_on_c, 11, 70, 127
1, 483430, Note_off_c, 11, 70, 127
1, 483430, Note_off_c, 7, 55, 127
1, 483432, Note_on_c, 7, 79, 127
1, 483432, Note_on_c, 11, 58, 127
1, 483543, Note_off_c, 7, 79, 127
1, 483545, Note_on_c, 2, 74, 127
1, 483656, Note_off_c, 2, 74, 127
1, 483656, Note_off_c, 11, 58, 127
1, 483658, Note_on_c, 11, 82, 127
1, 483658, Note_on_c, 3, 51, 127
1, 483769, Note_off_c, 11, 82, 127
1, 483771, Note_on_c, 2, 74, 127
1, 483882, Note_off_c, 2, 74, 127
1, 483882, Note_off_c, 3, 51, 127
1, 483884, Note_on_c, 0, 72, 127
1, 483884, Note_on_c, 7, 55, 127
1, 483995, Note_off_c, 0, 72, 127
1, 483997, Note_on_c, 11, 70, 127
1, 484108, Note_off_c, 11, 70, 127
1, 484108, Note_off_c, 7, 55, 127
1, 484110, Note_on_c, 0, 72, 127
1, 484110, Note_on_c, 10, 45, 127
1, 484221, Note_off_c, 0, 72, 127
1, 484223, Note_on_c, 10, 69, 127
1, 484334, Note_off_c, 10, 69, 127
1, 484334, Note_off_c, 10, 45, 127
1, 484336, Note_on_c, 7, 67, 127
1, 484336, Note_on_c, 0, 60, 127
1, 484447, Note_off_c, 0, 60, 127
1, 484447, Note_off_c, 7, 67, 127
1, 484449, Note_on_c, 10, 69, 127
1, 484449, Note_on_c, 11, 58, 127
1, 484560, Note_off_c, 11, 58, 127
1, 484560, Note_off_c, 10, 69, 127
1, 484562, Note_on_c, 6, 66, 127
1, 484562, Note_on_c, 10, 57, 127
1, 484673, Note_off_c, 6, 66, 127
1, 484675, Note_on_c, 10, 69, 127
1, 484786, Note_off_c, 10, 69, 127
1, 484786, Note_off_c, 10, 57, 127
1, 484788, Note_on_c, 7, 67, 127
1, 484788, Note_on_c, 0, 60, 127
1, 484899, Note_off_c, 7, 67, 127
1, 484901, Note_on_c, 10, 69, 127
1, 485012, Note_off_c, 10, 69, 127
1, 485012, Note_off_c, 0, 60, 127
1, 485014, Note_on_c, 0, 72, 127
1, 485014, Note_on_c, 6, 54, 127
1, 485125, Note_off_c, 0, 72, 127
1, 485127, Note_on_c, 10, 69, 127
1, 485238, Note_off_c, 10, 69, 127
1, 485238, Note_off_c, 6, 54, 127
1, 485240, Note_on_c, 6, 78, 127
1, 485240, Note_on_c, 10, 57, 127
1, 485351, Note_off_c, 6, 78, 127
1, 485353, Note_on_c, 0, 72, 127
1, 485464, Note_off_c, 0, 72, 127
1, 485464, Note_off_c, 10, 57, 127
1, 485466, Note_on_c, 10, 81, 127
1, 485466, Note_on_c, 2, 50, 127
1, 485577, Note_off_c, 10, 81, 127
1, 485579, Note_on_c, 0, 72, 127
1, 485690, Note_off_c, 0, 72, 127
1, 485690, Note_off_c, 2, 50, 127
1, 485692, Note_on_c, 11, 70, 127
1, 485692, Note_on_c, 6, 54, 127
1, 485803, Note_off_c, 11, 70, 127
1, 485805, Note_on_c, 10, 69, 127
1, 485916, Note_off_c, 10, 69, 127
1, 485916, Note_off_c, 6, 54, 127
1, 485918, Note_on_c, 11, 70, 127
1, 485918, Note_on_c, 7, 43, 127
1, 486031, Note_on_c, 7, 55, 127
1, 486142, Note_off_c, 7, 55, 127
1, 486142, Note_off_c, 7, 43, 127
1, 486142, Note_off_c, 11, 70, 127
1, 486144, Note_on_c, 2, 74, 127
1, 486144, Note_on_c, 6, 54, 127
1, 486255, Note_off_c, 6, 54, 127
1, 486257, Note_on_c, 7, 55, 127
1, 486368, Note_off_c, 7, 55, 127
1, 486368, Note_off_c, 2, 74, 127
1, 486370, Note_on_c, 7, 79, 127
1, 486370, Note_on_c, 11, 46, 127
1, 486370, Note_on_c, 2, 50, 127
1, 486481, Note_off_c, 2, 50, 127
1, 486483, Note_on_c, 7, 55, 127
1, 486594, Note_off_c, 7, 55, 127
1, 486594, Note_off_c, 11, 46, 127
1, 486596, Note_on_c, 6, 54, 127
1, 486707, Note_off_c, 6, 54, 127
1, 486709, Note_on_c, 7, 55, 127
1, 486820, Note_off_c, 7, 55, 127
1, 486822, Note_on_c, 10, 45, 127
1, 486822, Note_on_c, 0, 48, 127
1, 486933, Note_off_c, 0, 48, 127
1, 486935, Note_on_c, 7, 55, 127
1, 487046, Note_off_c, 7, 55, 127
1, 487046, Note_off_c, 10, 45, 127
1, 487046, Note_off_c, 7, 79, 127
1, 487048, Note_on_c, 10, 81, 127
1, 487048, Note_on_c, 6, 54, 127
1, 487159, Note_off_c, 6, 54, 127
1, 487159, Note_off_c, 10, 81, 127
1, 487161, Note_on_c, 7, 79, 127
1, 487161, Note_on_c, 7, 55, 127
1, 487272, Note_off_c, 7, 55, 127
1, 487272, Note_off_c, 7, 79, 127
1, 487274, Note_on_c, 6, 78, 127
1, 487274, Note_on_c, 0, 48, 127
1, 487274, Note_on_c, 10, 57, 127
1, 487385, Note_off_c, 10, 57, 127
1, 487385, Note_off_c, 6, 78, 127
1, 487387, Note_on_c, 4, 76, 127
1, 487387, Note_on_c, 7, 55, 127
1, 487498, Note_off_c, 7, 55, 127
1, 487498, Note_off_c, 4, 76, 127
1, 487498, Note_off_c, 0, 48, 127
1, 487500, Note_on_c, 2, 74, 127
1, 487500, Note_on_c, 6, 54, 127
1, 487611, Note_off_c, 6, 54, 127
1, 487611, Note_off_c, 2, 74, 127
1, 487613, Note_on_c, 0, 72, 127
1, 487613, Note_on_c, 4, 52, 127
1, 487724, Note_off_c, 4, 52, 127
1, 487724, Note_off_c, 0, 72, 127
1, 487726, Note_on_c, 11, 70, 127
1, 487726, Note_on_c, 2, 50, 127
1, 487950, Note_off_c, 2, 50, 127
1, 487950, Note_off_c, 11, 70, 127
1, 487952, Note_on_c, 2, 86, 127
1, 487952, Note_on_c, 11, 46, 127
1, 487952, Note_on_c, 7, 55, 127
1, 488176, Note_off_c, 11, 46, 127
1, 488176, Note_off_c, 2, 86, 127
1, 488178, Note_on_c, 10, 69, 127
1, 488178, Note_on_c, 0, 48, 127
1, 488402, Note_off_c, 0, 48, 127
1, 488402, Note_off_c, 10, 69, 127
1, 488402, Note_off_c, 7, 55, 127
1, 488404, Note_on_c, 0, 84, 127
1, 488404, Note_on_c, 2, 50, 127
1, 488404, Note_on_c, 6, 54, 127
1, 488628, Note_off_c, 6, 54, 127
1, 488628, Note_off_c, 2, 50, 127
1, 488628, Note_off_c, 0, 84, 127
1, 488630, Note_on_c, 7, 67, 127
1, 488630, Note_on_c, 7, 43, 127
1, 488743, Note_on_c, 7, 55, 127
1, 488854, Note_off_c, 7, 55, 127
1, 488854, Note_off_c, 7, 43, 127
1, 488854, Note_off_c, 7, 67, 127
1, 488856, Note_on_c, 11, 82, 127
1, 488856, Note_on_c, 6, 54, 127
1, 488967, Note_off_c, 6, 54, 127
1, 488967, Note_off_c, 11, 82, 127
1, 488969, Note_on_c, 10, 81, 127
1, 488969, Note_on_c, 7, 55, 127
1, 489080, Note_off_c, 7, 55, 127
1, 489080, Note_off_c, 10, 81, 127
1, 489082, Note_on_c, 7, 79, 127
1, 489082, Note_on_c, 11, 46, 127
1, 489082, Note_on_c, 2, 50, 127
1, 489193, Note_off_c, 2, 50, 127
1, 489195, Note_on_c, 7, 55, 127
1, 489306, Note_off_c, 7, 55, 127
1, 489306, Note_off_c, 11, 46, 127
1, 489306, Note_off_c, 7, 79, 127
1, 489308, Note_on_c, 11, 82, 127
1, 489308, Note_on_c, 6, 54, 127
1, 489419, Note_off_c, 6, 54, 127
1, 489421, Note_on_c, 7, 55, 127
1, 489532, Note_off_c, 7, 55, 127
1, 489532, Note_off_c, 11, 82, 127
1, 489534, Note_on_c, 4, 76, 127
1, 489534, Note_on_c, 11, 58, 127
1, 489645, Note_off_c, 11, 58, 127
1, 489647, Note_on_c, 7, 55, 127
1, 489758, Note_off_c, 7, 55, 127
1, 489758, Note_off_c, 4, 76, 127
1, 489760, Note_on_c, 7, 79, 127
1, 489760, Note_on_c, 4, 64, 127
1, 489871, Note_off_c, 4, 64, 127
1, 489873, Note_on_c, 11, 58, 127
1, 489984, Note_off_c, 11, 58, 127
1, 489984, Note_off_c, 7, 79, 127
1, 489986, Note_on_c, 11, 70, 127
1, 489986, Note_on_c, 0, 48, 127
1, 489986, Note_on_c, 7, 67, 127
1, 490097, Note_off_c, 7, 67, 127
1, 490099, Note_on_c, 11, 58, 127
1, 490210, Note_off_c, 11, 58, 127
1, 490210, Note_off_c, 0, 48, 127
1, 490210, Note_off_c, 11, 70, 127
1, 490212, Note_on_c, 4, 76, 127
1, 490212, Note_on_c, 8, 56, 127
1, 490323, Note_off_c, 8, 56, 127
1, 490325, Note_on_c, 7, 55, 127
1, 490436, Note_off_c, 7, 55, 127
1, 490436, Note_off_c, 4, 76, 127
1, 490438, Note_on_c, 5, 65, 127
1, 490438, Note_on_c, 5, 53, 127
1, 490438, Note_on_c, 8, 56, 127
1, 490549, Note_off_c, 8, 56, 127
1, 490549, Note_off_c, 5, 53, 127
1, 490551, Note_on_c, 5, 53, 127
1, 490662, Note_off_c, 5, 53, 127
1, 490662, Note_off_c, 5, 65, 127
1, 490664, Note_on_c, 8, 80, 127
1, 490664, Note_on_c, 4, 52, 127
1, 490775, Note_off_c, 4, 52, 127
1, 490775, Note_off_c, 8, 80, 127
1, 490777, Note_on_c, 7, 79, 127
1, 490777, Note_on_c, 5, 53, 127
1, 490888, Note_off_c, 5, 53, 127
1, 490888, Note_off_c, 7, 79, 127
1, 490890, Note_on_c, 5, 77, 127
1, 490890, Note_on_c, 8, 44, 127
1, 490890, Note_on_c, 0, 48, 127
1, 491001, Note_off_c, 0, 48, 127
1, 491003, Note_on_c, 5, 53, 127
1, 491114, Note_off_c, 5, 53, 127
1, 491114, Note_off_c, 8, 44, 127
1, 491114, Note_off_c, 5, 77, 127
1, 491116, Note_on_c, 8, 80, 127
1, 491116, Note_on_c, 4, 52, 127
1, 491227, Note_off_c, 4, 52, 127
1, 491229, Note_on_c, 5, 53, 127
1, 491340, Note_off_c, 5, 53, 127
1, 491340, Note_off_c, 8, 80, 127
1, 491342, Note_on_c, 2, 74, 127
1, 491342, Note_on_c, 8, 56, 127
1, 491453, Note_off_c, 8, 56, 127
1, 491455, Note_on_c, 5, 53, 127
1, 491566, Note_off_c, 5, 53, 127
1, 491566, Note_off_c, 2, 74, 127
1, 491568, Note_on_c, 5, 77, 127
1, 491568, Note_on_c, 2, 62, 127
1, 491679, Note_off_c, 2, 62, 127
1, 491681, Note_on_c, 8, 56, 127
1, 491792, Note_off_c, 8, 56, 127
1, 491792, Note_off_c, 5, 77, 127
1, 491794, Note_on_c, 8, 68, 127
1, 491794, Note_on_c, 11, 46, 127
1, 491794, Note_on_c, 5, 65, 127
1, 491905, Note_off_c, 5, 65, 127
1, 491907, Note_on_c, 8, 56, 127
1, 492018, Note_off_c, 8, 56, 127
1, 492018, Note_off_c, 11, 46, 127
1, 492018, Note_off_c, 8, 68, 127
1, 492020, Note_on_c, 2, 74, 127
1, 492020, Note_on_c, 7, 55, 127
1, 492131, Note_off_c, 7, 55, 127
1, 492133, Note_on_c, 5, 53, 127
1, 492244, Note_off_c, 5, 53, 127
1, 492244, Note_off_c, 2, 74, 127
1, 492246, Note_on_c, 3, 63, 127
1, 492246, Note_on_c, 7, 55, 127
1, 492359, Note_on_c, 5, 53, 127
1, 492470, Note_off_c, 5, 53, 127
1, 492470, Note_off_c, 7, 55, 127
1, 492472, Note_on_c, 3, 51, 127
1, 492472, Note_on_c, 11, 58, 127
1, 492583, Note_off_c, 3, 51, 127
1, 492585, Note_on_c, 2, 50, 127
1, 492693, Note_off_c, 3, 63, 127
1, 492695, Note_off_c, 2, 50, 127
1, 492695, Note_off_c, 11, 58, 127
1, 492697, Note_on_c, 0, 48, 127
1, 492697, Note_on_c, 3, 63, 127
1, 492808, Note_off_c, 0, 48, 127
1, 492810, Note_on_c, 11, 46, 127
1, 492921, Note_off_c, 11, 46, 127
1, 492923, Note_on_c, 0, 72, 127
1, 492923, Note_on_c, 8, 44, 127
1, 493034, Note_off_c, 8, 44, 127
1, 493036, Note_on_c, 7, 43, 127
1, 493147, Note_off_c, 7, 43, 127
1, 493147, Note_off_c, 0, 72, 127
1, 493149, Note_on_c, 8, 68, 127
1, 493149, Note_on_c, 5, 41, 127
1, 493260, Note_off_c, 5, 41, 127
1, 493262, Note_on_c, 3, 51, 127
1, 493373, Note_off_c, 3, 51, 127
1, 493373, Note_off_c, 3, 63, 127
1, 493375, Note_on_c, 2, 50, 127
1, 493375, Note_on_c, 5, 65, 127
1, 493486, Note_off_c, 5, 65, 127
1, 493486, Note_off_c, 2, 50, 127
1, 493488, Note_on_c, 0, 48, 127
1, 493488, Note_on_c, 3, 63, 127
1, 493596, Note_off_c, 8, 68, 127
1, 493598, Note_off_c, 3, 63, 127
1, 493598, Note_off_c, 0, 48, 127
1, 493600, Note_on_c, 11, 46, 127
1, 493600, Note_on_c, 2, 62, 127
1, 493711, Note_off_c, 2, 62, 127
1, 493711, Note_off_c, 11, 46, 127
1, 493713, Note_on_c, 8, 44, 127
1, 493713, Note_on_c, 0, 60, 127
1, 493824, Note_off_c, 0, 60, 127
1, 493824, Note_off_c, 8, 44, 127
1, 493826, Note_on_c, 7, 43, 127
1, 493826, Note_on_c, 11, 58, 127
1, 493937, Note_off_c, 11, 58, 127
1, 493937, Note_off_c, 7, 43, 127
1, 493939, Note_on_c, 5, 41, 127
1, 493939, Note_on_c, 8, 56, 127
1, 494050, Note_off_c, 8, 56, 127
1, 494050, Note_off_c, 5, 41, 127
1, 494052, Note_on_c, 3, 39, 127
1, 494052, Note_on_c, 7, 55, 127
1, 494163, Note_off_c, 3, 39, 127
1, 494165, Note_on_c, 2, 50, 127
1, 494276, Note_off_c, 2, 50, 127
1, 494278, Note_on_c, 7, 67, 127
1, 494278, Note_on_c, 0, 48, 127
1, 494389, Note_off_c, 0, 48, 127
1, 494391, Note_on_c, 11, 46, 127
1, 494499, Note_off_c, 7, 55, 127
1, 494501, Note_off_c, 11, 46, 127
1, 494501, Note_off_c, 7, 67, 127
1, 494503, Note_on_c, 0, 72, 127
1, 494503, Note_on_c, 8, 44, 127
1, 494614, Note_off_c, 8, 44, 127
1, 494616, Note_on_c, 7, 43, 127
1, 494727, Note_off_c, 7, 43, 127
1, 494729, Note_on_c, 5, 41, 127
1, 494729, Note_on_c, 0, 60, 127
1, 494840, Note_off_c, 5, 41, 127
1, 494842, Note_on_c, 3, 39, 127
1, 494953, Note_off_c, 3, 39, 127
1, 494953, Note_off_c, 0, 60, 127
1, 494955, Note_on_c, 2, 38, 127
1, 494955, Note_on_c, 5, 65, 127
1, 495066, Note_off_c, 2, 38, 127
1, 495068, Note_on_c, 0, 48, 127
1, 495179, Note_off_c, 0, 48, 127
1, 495179, Note_off_c, 0, 72, 127
1, 495181, Note_on_c, 2, 74, 127
1, 495181, Note_on_c, 11, 46, 127
1, 495292, Note_off_c, 11, 46, 127
1, 495292, Note_off_c, 2, 74, 127
1, 495294, Note_on_c, 0, 72, 127
1, 495294, Note_on_c, 8, 44, 127
1, 495402, Note_off_c, 5, 65, 127
1, 495404, Note_off_c, 8, 44, 127
1, 495404, Note_off_c, 0, 72, 127
1, 495406, Note_on_c, 12, 71, 127
1, 495406, Note_on_c, 7, 43, 127
1, 495517, Note_off_c, 7, 43, 127
1, 495517, Note_off_c, 12, 71, 127
1, 495519, Note_on_c, 10, 69, 127
1, 495519, Note_on_c, 5, 41, 127
1, 495630, Note_off_c, 5, 41, 127
1, 495630, Note_off_c, 10, 69, 127
1, 495632, Note_on_c, 7, 67, 127
1, 495632, Note_on_c, 3, 39, 127
1, 495743, Note_off_c, 3, 39, 127
1, 495743, Note_off_c, 7, 67, 127
1, 495745, Note_on_c, 5, 65, 127
1, 495745, Note_on_c, 2, 38, 127
1, 495856, Note_off_c, 2, 38, 127
1, 495856, Note_off_c, 5, 65, 127
1, 495858, Note_on_c, 3, 63, 127
1, 495858, Note_on_c, 0, 36, 127
1, 496082, Note_off_c, 0, 36, 127
1, 496082, Note_off_c, 3, 63, 127
1, 496084, Note_on_c, 7, 79, 127
1, 496084, Note_on_c, 0, 48, 127
1, 496084, Note_on_c, 3, 51, 127
1, 496308, Note_off_c, 3, 51, 127
1, 496308, Note_off_c, 7, 79, 127
1, 496310, Note_on_c, 2, 62, 127
1, 496310, Note_on_c, 5, 53, 127
1, 496534, Note_off_c, 5, 53, 127
1, 496534, Note_off_c, 2, 62, 127
1, 496534, Note_off_c, 0, 48, 127
1, 496536, Note_on_c, 5, 77, 127
1, 496536, Note_on_c, 12, 47, 127
1, 496536, Note_on_c, 7, 55, 127
1, 496760, Note_off_c, 12, 47, 127
1, 496762, Note_on_c, 0, 48, 127
1, 496873, Note_off_c, 5, 77, 127
1, 496875, Note_on_c, 3, 75, 127
1, 496986, Note_off_c, 3, 75, 127
1, 496986, Note_off_c, 7, 55, 127
1, 496988, Note_on_c, 2, 74, 127
1, 496988, Note_on_c, 7, 55, 127
1, 497099, Note_off_c, 2, 74, 127
1, 497101, Note_on_c, 5, 77, 127
1, 497209, Note_off_c, 0, 48, 127
1, 497211, Note_off_c, 5, 77, 127
1, 497211, Note_off_c, 7, 55, 127
1, 497213, Note_on_c, 3, 75, 127
1, 497213, Note_on_c, 0, 60, 127
1, 497324, Note_off_c, 3, 75, 127
1, 497326, Note_on_c, 2, 74, 127
1, 497326, Note_on_c, 0, 48, 127
1, 497437, Note_off_c, 0, 48, 127
1, 497437, Note_off_c, 2, 74, 127
1, 497439, Note_on_c, 0, 72, 127
1, 497439, Note_on_c, 2, 50, 127
1, 497550, Note_off_c, 2, 50, 127
1, 497550, Note_off_c, 0, 72, 127
1, 497552, Note_on_c, 11, 70, 127
1, 497552, Note_on_c, 3, 51, 127
1, 497663, Note_off_c, 3, 51, 127
1, 497663, Note_off_c, 11, 70, 127
1, 497665, Note_on_c, 8, 68, 127
1, 497665, Note_on_c, 5, 53, 127
1, 497776, Note_off_c, 8, 68, 127
1, 497778, Note_on_c, 7, 67, 127
1, 497889, Note_off_c, 7, 67, 127
1, 497889, Note_off_c, 5, 53, 127
1, 497889, Note_off_c, 0, 60, 127
1, 497891, Note_on_c, 8, 68, 127
1, 497891, Note_on_c, 0, 60, 127
1, 498002, Note_off_c, 0, 60, 127
1, 498002, Note_off_c, 8, 68, 127
1, 498004, Note_on_c, 11, 70, 127
1, 498004, Note_on_c, 2, 62, 127
1, 498115, Note_off_c, 2, 62, 127
1, 498115, Note_off_c, 11, 70, 127
1, 498117, Note_on_c, 0, 72, 127
1, 498117, Note_on_c, 3, 63, 127
1, 498228, Note_off_c, 3, 63, 127
1, 498228, Note_off_c, 0, 72, 127
1, 498230, Note_on_c, 2, 74, 127
1, 498230, Note_on_c, 5, 65, 127
1, 498341, Note_off_c, 5, 65, 127
1, 498341, Note_off_c, 2, 74, 127
1, 498343, Note_on_c, 3, 75, 127
1, 498343, Note_on_c, 7, 67, 127
1, 498454, Note_off_c, 7, 67, 127
1, 498456, Note_on_c, 8, 68, 127
1, 498567, Note_off_c, 8, 68, 127
1, 498569, Note_on_c, 11, 46, 127
1, 498569, Note_on_c, 11, 70, 127
1, 498680, Note_off_c, 3, 75, 127
1, 498682, Note_on_c, 2, 74, 127
1, 498793, Note_off_c, 2, 74, 127
1, 498793, Note_off_c, 11, 70, 127
1, 498795, Note_on_c, 0, 72, 127
1, 498795, Note_on_c, 5, 53, 127
1, 498906, Note_off_c, 0, 72, 127
1, 498908, Note_on_c, 3, 75, 127
1, 499016, Note_off_c, 11, 46, 127
1, 499018, Note_off_c, 3, 75, 127
1, 499018, Note_off_c, 5, 53, 127
1, 499020, Note_on_c, 2, 74, 127
1, 499020, Note_on_c, 11, 58, 127
1, 499131, Note_off_c, 2, 74, 127
1, 499133, Note_on_c, 0, 72, 127
1, 499133, Note_on_c, 11, 46, 127
1, 499244, Note_off_c, 11, 46, 127
1, 499244, Note_off_c, 0, 72, 127
1, 499246, Note_on_c, 11, 70, 127
1, 499246, Note_on_c, 0, 48, 127
1, 499357, Note_off_c, 0, 48, 127
1, 499357, Note_off_c, 11, 70, 127
1, 499359, Note_on_c, 8, 68, 127
1, 499359, Note_on_c, 2, 50, 127
1, 499470, Note_off_c, 2, 50, 127
1, 499470, Note_off_c, 8, 68, 127
1, 499472, Note_on_c, 7, 67, 127
1, 499472, Note_on_c, 3, 51, 127
1, 499583, Note_off_c, 7, 67, 127
1, 499585, Note_on_c, 5, 65, 127
1, 499696, Note_off_c, 5, 65, 127
1, 499696, Note_off_c, 3, 51, 127
1, 499696, Note_off_c, 11, 58, 127
1, 499698, Note_on_c, 7, 67, 127
1, 499698, Note_on_c, 11, 58, 127
1, 499809, Note_off_c, 11, 58, 127
1, 499809, Note_off_c, 7, 67, 127
1, 499811, Note_on_c, 8, 68, 127
1, 499811, Note_on_c, 0, 60, 127
1, 499922, Note_off_c, 0, 60, 127
1, 499922, Note_off_c, 8, 68, 127
1, 499924, Note_on_c, 11, 70, 127
1, 499924, Note_on_c, 1, 61, 127
1, 500035, Note_off_c, 1, 61, 127
1, 500035, Note_off_c, 11, 70, 127
1, 500037, Note_on_c, 0, 72, 127
1, 500037, Note_on_c, 3, 63, 127
1, 500148, Note_off_c, 3, 63, 127
1, 500148, Note_off_c, 0, 72, 127
1, 500150, Note_on_c, 1, 73, 127
1, 500150, Note_on_c, 5, 65, 127
1, 500261, Note_off_c, 5, 65, 127
1, 500263, Note_on_c, 7, 67, 127
1, 500374, Note_off_c, 7, 67, 127
1, 500376, Note_on_c, 8, 68, 127
1, 500487, Note_off_c, 1, 73, 127
1, 500489, Note_on_c, 0, 72, 127
1, 500600, Note_off_c, 0, 72, 127
1, 500600, Note_off_c, 8, 68, 127
1, 500602, Note_on_c, 11, 70, 127
1, 500602, Note_on_c, 8, 44, 127
1, 500602, Note_on_c, 7, 55, 127
1, 500713, Note_off_c, 11, 70, 127
1, 500715, Note_on_c, 1, 73, 127
1, 500826, Note_off_c, 1, 73, 127
1, 500826, Note_off_c, 7, 55, 127
1, 500826, Note_off_c, 8, 44, 127
1, 500828, Note_on_c, 0, 72, 127
1, 500828, Note_on_c, 11, 46, 127
1, 500828, Note_on_c, 5, 53, 127
1, 500939, Note_off_c, 0, 72, 127
1, 500941, Note_on_c, 11, 70, 127
1, 501052, Note_off_c, 11, 70, 127
1, 501052, Note_off_c, 5, 53, 127
1, 501052, Note_off_c, 11, 46, 127
1, 501054, Note_on_c, 8, 68, 127
1, 501054, Note_on_c, 0, 48, 127
1, 501054, Note_on_c, 4, 52, 127
1, 501165, Note_off_c, 8, 68, 127
1, 501167, Note_on_c, 7, 67, 127
1, 501278, Note_off_c, 7, 67, 127
1, 501278, Note_off_c, 4, 52, 127
1, 501278, Note_off_c, 0, 48, 127
1, 501280, Note_on_c, 8, 68, 127
1, 501280, Note_on_c, 5, 41, 127
1, 501280, Note_on_c, 5, 53, 127
1, 501391, Note_off_c, 5, 53, 127
1, 501393, Note_on_c, 5, 65, 127
1, 501504, Note_off_c, 5, 65, 127
1, 501504, Note_off_c, 5, 41, 127
1, 501506, Note_on_c, 0, 48, 127
1, 501506, Note_on_c, 4, 64, 127
1, 501617, Note_off_c, 4, 64, 127
1, 501619, Note_on_c, 7, 67, 127
1, 501730, Note_off_c, 7, 67, 127
1, 501730, Note_off_c, 0, 48, 127
1, 501732, Note_on_c, 5, 53, 127
1, 501732, Note_on_c, 5, 65, 127
1, 501843, Note_off_c, 5, 65, 127
1, 501845, Note_on_c, 3, 63, 127
1, 501956, Note_off_c, 3, 63, 127
1, 501958, Note_on_c, 2, 62, 127
1, 502069, Note_off_c, 2, 62, 127
1, 502071, Note_on_c, 0, 60, 127
1, 502182, Note_off_c, 0, 60, 127
1, 502184, Note_on_c, 12, 59, 127
1, 502295, Note_off_c, 5, 53, 127
1, 502297, Note_on_c, 3, 51, 127
1, 502408, Note_off_c, 3, 51, 127
1, 502408, Note_off_c, 8, 68, 127
1, 502410, Note_on_c, 7, 67, 127
1, 502410, Note_on_c, 2, 50, 127
1, 502521, Note_off_c, 2, 50, 127
1, 502523, Note_on_c, 5, 53, 127
1, 502631, Note_off_c, 12, 59, 127
1, 502633, Note_off_c, 5, 53, 127
1, 502633, Note_off_c, 7, 67, 127
1, 502635, Note_on_c, 7, 67, 127
1, 502635, Note_on_c, 3, 51, 127
1, 502746, Note_off_c, 3, 51, 127
1, 502748, Note_on_c, 2, 50, 127
1, 502859, Note_off_c, 2, 50, 127
1, 502861, Note_on_c, 0, 48, 127
1, 502861, Note_on_c, 3, 63, 127
1, 502972, Note_off_c, 0, 48, 127
1, 502974, Note_on_c, 11, 46, 127
1, 503085, Note_off_c, 11, 46, 127
1, 503085, Note_off_c, 3, 63, 127
1, 503087, Note_on_c, 8, 44, 127
1, 503087, Note_on_c, 0, 60, 127
1, 503311, Note_off_c, 8, 44, 127
1, 503311, Note_off_c, 7, 67, 127
1, 503313, Note_on_c, 8, 68, 127
1, 503313, Note_on_c, 7, 43, 127
1, 503424, Note_off_c, 8, 68, 127
1, 503426, Note_on_c, 7, 67, 127
1, 503537, Note_off_c, 7, 67, 127
1, 503537, Note_off_c, 7, 43, 127
1, 503539, Note_on_c, 5, 65, 127
1, 503539, Note_on_c, 11, 46, 127
1, 503593, Note_off_c, 11, 46, 127
1, 503595, Note_on_c, 8, 44, 127
1, 503649, Note_off_c, 8, 44, 127
1, 503649, Note_off_c, 5, 65, 127
1, 503651, Note_on_c, 3, 63, 127
1, 503651, Note_on_c, 11, 46, 127
1, 503705, Note_off_c, 11, 46, 127
1, 503707, Note_on_c, 8, 44, 127
1, 503761, Note_off_c, 8, 44, 127
1, 503761, Note_off_c, 3, 63, 127
1, 503763, Note_on_c, 2, 62, 127
1, 503763, Note_on_c, 11, 46, 127
1, 503817, Note_off_c, 11, 46, 127
1, 503819, Note_on_c, 8, 44, 127
1, 503861, Note_off_c, 0, 60, 127
1, 503873, Note_off_c, 8, 44, 127
1, 503873, Note_off_c, 2, 62, 127
1, 503875, Note_on_c, 0, 60, 127
1, 503875, Note_on_c, 7, 43, 127
1, 503929, Note_off_c, 7, 43, 127
1, 503931, Note_on_c, 8, 44, 127
1, 503985, Note_off_c, 8, 44, 127
1, 503985, Note_off_c, 0, 60, 127
1, 503987, Note_on_c, 12, 59, 127
1, 503987, Note_on_c, 7, 43, 127
1, 503987, Note_on_c, 7, 67, 127
1, 504888, Note_off_c, 7, 43, 127
1, 504888, Note_off_c, 12, 59, 127
1, 504889, Note_off_c, 7, 67, 127
1, 504890, Note_on_c, 12, 59, 127
1, 504890, Note_on_c, 7, 55, 127
1, 505116, Note_on_c, 2, 74, 127
1, 505337, Note_off_c, 7, 55, 127
1, 505337, Note_off_c, 12, 59, 127
1, 505339, Note_off_c, 2, 74, 127
1, 505341, Note_on_c, 7, 67, 127
1, 505567, Note_on_c, 2, 62, 127
1, 505567, Note_on_c, 5, 53, 127
1, 505791, Note_off_c, 5, 53, 127
1, 505791, Note_off_c, 2, 62, 127
1, 505793, Note_on_c, 7, 55, 127
1, 505793, Note_on_c, 3, 51, 127
1, 506017, Note_off_c, 7, 55, 127
1, 506017, Note_off_c, 7, 67, 127
1, 506019, Note_on_c, 0, 60, 127
1, 506019, Note_on_c, 5, 65, 127
1, 506130, Note_off_c, 5, 65, 127
1, 506132, Note_on_c, 7, 67, 127
1, 506243, Note_off_c, 7, 67, 127
1, 506243, Note_off_c, 3, 51, 127
1, 506245, Note_on_c, 2, 50, 127
1, 506245, Note_on_c, 10, 69, 127
1, 506356, Note_off_c, 10, 69, 127
1, 506358, Note_on_c, 12, 71, 127
1, 506469, Note_off_c, 12, 71, 127
1, 506469, Note_off_c, 0, 60, 127
1, 506471, Note_on_c, 12, 59, 127
1, 506471, Note_on_c, 0, 72, 127
1, 506582, Note_off_c, 0, 72, 127
1, 506584, Note_on_c, 2, 74, 127
1, 506695, Note_off_c, 2, 74, 127
1, 506695, Note_off_c, 12, 59, 127
1, 506695, Note_off_c, 2, 50, 127
1, 506697, Note_on_c, 0, 48, 127
1, 506697, Note_on_c, 3, 75, 127
1, 506810, Note_on_c, 7, 55, 127
1, 506921, Note_off_c, 7, 55, 127
1, 506921, Note_off_c, 3, 75, 127
1, 506921, Note_off_c, 0, 48, 127
1, 506923, Note_on_c, 8, 56, 127
1, 506923, Note_on_c, 0, 60, 127
1, 507034, Note_off_c, 8, 56, 127
1, 507036, Note_on_c, 7, 55, 127
1, 507147, Note_off_c, 0, 60, 127
1, 507148, Note_off_c, 7, 55, 127
1, 507149, Note_on_c, 2, 50, 127
1, 507149, Note_on_c, 5, 77, 127
1, 507262, Note_on_c, 5, 53, 127
1, 507373, Note_off_c, 5, 53, 127
1, 507373, Note_off_c, 5, 77, 127
1, 507373, Note_off_c, 2, 50, 127
1, 507375, Note_on_c, 7, 55, 127
1, 507375, Note_on_c, 2, 62, 127
1, 507486, Note_off_c, 7, 55, 127
1, 507488, Note_on_c, 5, 53, 127
1, 507599, Note_off_c, 5, 53, 127
1, 507599, Note_off_c, 2, 62, 127
1, 507601, Note_on_c, 3, 51, 127
1, 507601, Note_on_c, 7, 79, 127
1, 507712, Note_off_c, 7, 79, 127
1, 507714, Note_on_c, 8, 80, 127
1, 507825, Note_off_c, 8, 80, 127
1, 507827, Note_on_c, 7, 67, 127
1, 507827, Note_on_c, 7, 79, 127
1, 507938, Note_off_c, 7, 79, 127
1, 507940, Note_on_c, 5, 77, 127
1, 508048, Note_off_c, 3, 51, 127
1, 508050, Note_off_c, 5, 77, 127
1, 508050, Note_off_c, 7, 67, 127
1, 508052, Note_on_c, 0, 60, 127
1, 508052, Note_on_c, 3, 75, 127
1, 508163, Note_off_c, 3, 75, 127
1, 508165, Note_on_c, 2, 74, 127
1, 508276, Note_off_c, 2, 74, 127
1, 508278, Note_on_c, 4, 52, 127
1, 508278, Note_on_c, 0, 72, 127
1, 508389, Note_off_c, 0, 72, 127
1, 508391, Note_on_c, 11, 70, 127
1, 508502, Note_off_c, 11, 70, 127
1, 508502, Note_off_c, 4, 52, 127
1, 508504, Note_on_c, 5, 53, 127
1, 508504, Note_on_c, 8, 68, 127
1, 508728, Note_off_c, 8, 68, 127
1, 508728, Note_off_c, 0, 60, 127
1, 508730, Note_on_c, 11, 58, 127
1, 508730, Note_on_c, 5, 77, 127
1, 508841, Note_off_c, 11, 58, 127
1, 508843, Note_on_c, 0, 60, 127
1, 508954, Note_off_c, 0, 60, 127
1, 508954, Note_off_c, 5, 77, 127
1, 508954, Note_off_c, 5, 53, 127
1, 508956, Note_on_c, 2, 62, 127
1, 508956, Note_on_c, 11, 58, 127
1, 508956, Note_on_c, 7, 67, 127
1, 509067, Note_off_c, 2, 62, 127
1, 509069, Note_on_c, 4, 64, 127
1, 509180, Note_off_c, 4, 64, 127
1, 509180, Note_off_c, 7, 67, 127
1, 509180, Note_off_c, 11, 58, 127
1, 509182, Note_on_c, 5, 65, 127
1, 509182, Note_on_c, 0, 60, 127
1, 509182, Note_on_c, 4, 76, 127
1, 509293, Note_off_c, 5, 65, 127
1, 509295, Note_on_c, 7, 67, 127
1, 509406, Note_off_c, 7, 67, 127
1, 509406, Note_off_c, 4, 76, 127
1, 509406, Note_off_c, 0, 60, 127
1, 509408, Note_on_c, 8, 68, 127
1, 509408, Note_on_c, 5, 65, 127
1, 509408, Note_on_c, 5, 77, 127
1, 509519, Note_off_c, 5, 77, 127
1, 509521, Note_on_c, 0, 84, 127
1, 509632, Note_off_c, 0, 84, 127
1, 509632, Note_off_c, 5, 65, 127
1, 509632, Note_off_c, 8, 68, 127
1, 509634, Note_on_c, 5, 53, 127
1, 509634, Note_on_c, 4, 76, 127
1, 509745, Note_off_c, 4, 76, 127
1, 509747, Note_on_c, 5, 77, 127
1, 509858, Note_off_c, 5, 53, 127
1, 509859, Note_off_c, 5, 77, 127
1, 509860, Note_on_c, 11, 70, 127
1, 509860, Note_on_c, 7, 67, 127
1, 509973, Note_on_c, 0, 84, 127
1, 510084, Note_off_c, 0, 84, 127
1, 510084, Note_off_c, 7, 67, 127
1, 510084, Note_off_c, 11, 70, 127
1, 510086, Note_on_c, 7, 55, 127
1, 510086, Note_on_c, 4, 76, 127
1, 510197, Note_off_c, 4, 76, 127
1, 510199, Note_on_c, 5, 77, 127
1, 510310, Note_off_c, 7, 55, 127
1, 510312, Note_on_c, 0, 72, 127
1, 510312, Note_on_c, 8, 68, 127
1, 510423, Note_off_c, 0, 72, 127
1, 510423, Note_off_c, 5, 77, 127
1, 510425, Note_on_c, 1, 73, 127
1, 510536, Note_off_c, 1, 73, 127
1, 510536, Note_off_c, 8, 68, 127
1, 510538, Note_on_c, 0, 72, 127
1, 510538, Note_on_c, 5, 53, 127
1, 510649, Note_off_c, 0, 72, 127
1, 510651, Note_on_c, 11, 70, 127
1, 510762, Note_off_c, 11, 70, 127
1, 510762, Note_off_c, 5, 53, 127
1, 510764, Note_on_c, 8, 68, 127
1, 510764, Note_on_c, 7, 55, 127
1, 510875, Note_off_c, 8, 68, 127
1, 510877, Note_on_c, 7, 67, 127
1, 510988, Note_off_c, 7, 67, 127
1, 510988, Note_off_c, 7, 55, 127
1, 510990, Note_on_c, 5, 65, 127
1, 510990, Note_on_c, 8, 56, 127
1, 511101, Note_off_c, 5, 65, 127
1, 511103, Note_on_c, 3, 63, 127
1, 511214, Note_off_c, 3, 63, 127
1, 511214, Note_off_c, 8, 56, 127
1, 511216, Note_on_c, 2, 62, 127
1, 511216, Note_on_c, 11, 58, 127
1, 511327, Note_off_c, 2, 62, 127
1, 511329, Note_on_c, 0, 60, 127
1, 511440, Note_off_c, 0, 60, 127
1, 511440, Note_off_c, 11, 58, 127
1, 511442, Note_on_c, 2, 62, 127
1, 511442, Note_on_c, 5, 77, 127
1, 511553, Note_off_c, 5, 77, 127
1, 511553, Note_off_c, 2, 62, 127
1, 511555, Note_on_c, 3, 63, 127
1, 511555, Note_on_c, 7, 79, 127
1, 511666, Note_off_c, 7, 79, 127
1, 511666, Note_off_c, 3, 63, 127
1, 511668, Note_on_c, 5, 65, 127
1, 511668, Note_on_c, 8, 80, 127
1, 511779, Note_off_c, 8, 80, 127
1, 511779, Note_off_c, 5, 65, 127
1, 511781, Note_on_c, 7, 67, 127
1, 511781, Note_on_c, 11, 82, 127
1, 511892, Note_off_c, 11, 82, 127
1, 511892, Note_off_c, 7, 67, 127
1, 511894, Note_on_c, 8, 68, 127
1, 511894, Note_on_c, 0, 84, 127
1, 512005, Note_off_c, 0, 84, 127
1, 512007, Note_on_c, 2, 74, 127
1, 512118, Note_off_c, 2, 74, 127
1, 512120, Note_on_c, 3, 75, 127
1, 512231, Note_off_c, 8, 68, 127
1, 512233, Note_on_c, 0, 72, 127
1, 512344, Note_off_c, 0, 72, 127
1, 512344, Note_off_c, 3, 75, 127
1, 512346, Note_on_c, 11, 70, 127
1, 512346, Note_on_c, 3, 51, 127
1, 512457, Note_off_c, 11, 70, 127
1, 512459, Note_on_c, 8, 68, 127
1, 512570, Note_off_c, 8, 68, 127
1, 512570, Note_off_c, 3, 51, 127
1, 512572, Note_on_c, 7, 67, 127
1, 512572, Note_on_c, 5, 53, 127
1, 512683, Note_off_c, 7, 67, 127
1, 512685, Note_on_c, 5, 65, 127
1, 512796, Note_off_c, 5, 65, 127
1, 512796, Note_off_c, 5, 53, 127
1, 512798, Note_on_c, 3, 63, 127
1, 512798, Note_on_c, 7, 55, 127
1, 512909, Note_off_c, 3, 63, 127
1, 512911, Note_on_c, 2, 62, 127
1, 513022, Note_off_c, 2, 62, 127
1, 513022, Note_off_c, 7, 55, 127
1, 513024, Note_on_c, 0, 60, 127
1, 513024, Note_on_c, 8, 56, 127
1, 513135, Note_off_c, 0, 60, 127
1, 513137, Note_on_c, 12, 59, 127
1, 513248, Note_off_c, 12, 59, 127
1, 513248, Note_off_c, 8, 56, 127
1, 513250, Note_on_c, 0, 60, 127
1, 513250, Note_on_c, 3, 75, 127
1, 513361, Note_off_c, 3, 75, 127
1, 513361, Note_off_c, 0, 60, 127
1, 513363, Note_on_c, 2, 62, 127
1, 513363, Note_on_c, 5, 77, 127
1, 513474, Note_off_c, 5, 77, 127
1, 513474, Note_off_c, 2, 62, 127
1, 513476, Note_on_c, 3, 63, 127
1, 513476, Note_on_c, 7, 79, 127
1, 513587, Note_off_c, 7, 79, 127
1, 513587, Note_off_c, 3, 63, 127
1, 513589, Note_on_c, 5, 65, 127
1, 513589, Note_on_c, 8, 80, 127
1, 513700, Note_off_c, 8, 80, 127
1, 513700, Note_off_c, 5, 65, 127
1, 513702, Note_on_c, 7, 67, 127
1, 513702, Note_on_c, 11, 82, 127
1, 513813, Note_off_c, 11, 82, 127
1, 513815, Note_on_c, 7, 79, 127
1, 513926, Note_off_c, 7, 79, 127
1, 513928, Note_on_c, 8, 80, 127
1, 514039, Note_off_c, 7, 67, 127
1, 514041, Note_on_c, 11, 70, 127
1, 514152, Note_off_c, 11, 70, 127
1, 514152, Note_off_c, 8, 80, 127
1, 514154, Note_on_c, 8, 68, 127
1, 514154, Note_on_c, 2, 50, 127
1, 514265, Note_off_c, 8, 68, 127
1, 514267, Note_on_c, 7, 67, 127
1, 514378, Note_off_c, 7, 67, 127
1, 514378, Note_off_c, 2, 50, 127
1, 514380, Note_on_c, 5, 65, 127
1, 514380, Note_on_c, 3, 51, 127
1, 514491, Note_off_c, 5, 65, 127
1, 514493, Note_on_c, 3, 63, 127
1, 514604, Note_off_c, 3, 63, 127
1, 514604, Note_off_c, 3, 51, 127
1, 514606, Note_on_c, 2, 62, 127
1, 514606, Note_on_c, 5, 53, 127
1, 514717, Note_off_c, 2, 62, 127
1, 514719, Note_on_c, 0, 60, 127
1, 514830, Note_off_c, 0, 60, 127
1, 514830, Note_off_c, 5, 53, 127
1, 514832, Note_on_c, 12, 59, 127
1, 514832, Note_on_c, 7, 55, 127
1, 514945, Note_on_c, 7, 79, 127
1, 515056, Note_off_c, 7, 79, 127
1, 515056, Note_off_c, 7, 55, 127
1, 515056, Note_off_c, 12, 59, 127
1, 515058, Note_on_c, 2, 50, 127
1, 515058, Note_on_c, 5, 77, 127
1, 515169, Note_off_c, 5, 77, 127
1, 515171, Note_on_c, 3, 75, 127
1, 515282, Note_off_c, 3, 75, 127
1, 515282, Note_off_c, 2, 50, 127
1, 515284, Note_on_c, 7, 43, 127
1, 515284, Note_on_c, 2, 74, 127
1, 515395, Note_off_c, 2, 74, 127
1, 515397, Note_on_c, 0, 72, 127
1, 515508, Note_off_c, 0, 72, 127
1, 515510, Note_on_c, 12, 71, 127
1, 515621, Note_off_c, 12, 71, 127
1, 515623, Note_on_c, 10, 69, 127
1, 515734, Note_off_c, 10, 69, 127
1, 515736, Note_on_c, 12, 71, 127
1, 515847, Note_off_c, 12, 71, 127
1, 515849, Note_on_c, 0, 72, 127
1, 515960, Note_off_c, 0, 72, 127
1, 515960, Note_off_c, 7, 43, 127
1, 515962, Note_on_c, 5, 41, 127
1, 515962, Note_on_c, 2, 74, 127
1, 516073, Note_off_c, 2, 74, 127
1, 516073, Note_off_c, 5, 41, 127
1, 516075, Note_on_c, 7, 43, 127
1, 516075, Note_on_c, 3, 75, 127
1, 516186, Note_off_c, 3, 75, 127
1, 516186, Note_off_c, 7, 43, 127
1, 516188, Note_on_c, 10, 45, 127
1, 516188, Note_on_c, 5, 77, 127
1, 516299, Note_off_c, 10, 45, 127
1, 516301, Note_on_c, 12, 47, 127
1, 516412, Note_off_c, 12, 47, 127
1, 516414, Note_on_c, 2, 74, 127
1, 516414, Note_on_c, 0, 48, 127
1, 516525, Note_off_c, 0, 48, 127
1, 516527, Note_on_c, 2, 50, 127
1, 516638, Note_off_c, 2, 50, 127
1, 516638, Note_off_c, 2, 74, 127
1, 516640, Note_on_c, 7, 67, 127
1, 516640, Note_on_c, 3, 51, 127
1, 516751, Note_off_c, 5, 77, 127
1, 516753, Note_on_c, 3, 75, 127
1, 516864, Note_off_c, 3, 75, 127
1, 516864, Note_off_c, 3, 51, 127
1, 516866, Note_on_c, 0, 36, 127
1, 516866, Note_on_c, 12, 71, 127
1, 516977, Note_off_c, 12, 71, 127
1, 516979, Note_on_c, 0, 72, 127
1, 517090, Note_off_c, 0, 36, 127
1, 517090, Note_off_c, 7, 67, 127
1, 517091, Note_off_c, 0, 72, 127
1, 517092, Note_on_c, 5, 65, 127
1, 517092, Note_on_c, 5, 53, 127
1, 517205, Note_on_c, 3, 75, 127
1, 517316, Note_off_c, 3, 75, 127
1, 517316, Note_off_c, 5, 53, 127
1, 517318, Note_on_c, 2, 38, 127
1, 517318, Note_on_c, 12, 71, 127
1, 517429, Note_off_c, 12, 71, 127
1, 517431, Note_on_c, 0, 72, 127
1, 517542, Note_off_c, 2, 38, 127
1, 517542, Note_off_c, 5, 65, 127
1, 517543, Note_off_c, 0, 72, 127
1, 517544, Note_on_c, 3, 63, 127
1, 517544, Note_on_c, 7, 55, 127
1, 517657, Note_on_c, 2, 74, 127
1, 517768, Note_off_c, 2, 74, 127
1, 517768, Note_off_c, 7, 55, 127
1, 517770, Note_on_c, 3, 39, 127
1, 517770, Note_on_c, 12, 71, 127
1, 517881, Note_off_c, 12, 71, 127
1, 517883, Note_on_c, 0, 72, 127
1, 517994, Note_off_c, 0, 72, 127
1, 517994, Note_off_c, 3, 39, 127
1, 517994, Note_off_c, 3, 63, 127
1, 517996, Note_on_c, 2, 62, 127
1, 517996, Note_on_c, 8, 56, 127
1, 518109, Note_on_c, 0, 72, 127
1, 518220, Note_off_c, 0, 72, 127
1, 518220, Note_off_c, 8, 56, 127
1, 518222, Note_on_c, 5, 41, 127
1, 518222, Note_on_c, 12, 71, 127
1, 518333, Note_off_c, 12, 71, 127
1, 518335, Note_on_c, 0, 72, 127
1, 518446, Note_off_c, 5, 41, 127
1, 518446, Note_off_c, 2, 62, 127
1, 518448, Note_on_c, 3, 63, 127
1, 518448, Note_on_c, 7, 55, 127
1, 518559, Note_off_c, 7, 55, 127
1, 518561, Note_on_c, 7, 43, 127
1, 518665, Note_off_c, 0, 72, 127
1, 518672, Note_off_c, 7, 43, 127
1, 518672, Note_off_c, 3, 63, 127
1, 518674, Note_on_c, 3, 75, 127
1, 518674, Note_on_c, 7, 55, 127
1, 518674, Note_on_c, 7, 79, 127
1, 518785, Note_off_c, 7, 55, 127
1, 518787, Note_on_c, 8, 56, 127
1, 518898, Note_off_c, 8, 56, 127
1, 518898, Note_off_c, 7, 79, 127
1, 518898, Note_off_c, 3, 75, 127
1, 518900, Note_on_c, 12, 71, 127
1, 518900, Note_on_c, 7, 55, 127
1, 518900, Note_on_c, 2, 74, 127
1, 519011, Note_off_c, 7, 55, 127
1, 519013, Note_on_c, 5, 53, 127
1, 519124, Note_off_c, 5, 53, 127
1, 519124, Note_off_c, 2, 74, 127
1, 519124, Note_off_c, 12, 71, 127
1, 519126, Note_on_c, 2, 74, 127
1, 519126, Note_on_c, 3, 51, 127
1, 519126, Note_on_c, 5, 77, 127
1, 519237, Note_off_c, 3, 51, 127
1, 519239, Note_on_c, 2, 50, 127
1, 519350, Note_off_c, 2, 50, 127
1, 519352, Note_on_c, 0, 48, 127
1, 519456, Note_off_c, 5, 77, 127
1, 519463, Note_off_c, 0, 48, 127
1, 519465, Note_on_c, 7, 55, 127
1, 519576, Note_off_c, 7, 55, 127
1, 519578, Note_on_c, 0, 60, 127
1, 519578, Note_on_c, 3, 75, 127
1, 519689, Note_off_c, 3, 75, 127
1, 519689, Note_off_c, 0, 60, 127
1, 519691, Note_on_c, 2, 62, 127
1, 519691, Note_on_c, 5, 77, 127
1, 519802, Note_off_c, 5, 77, 127
1, 519802, Note_off_c, 2, 62, 127
1, 519804, Note_on_c, 0, 60, 127
1, 519804, Note_on_c, 7, 79, 127
1, 519915, Note_off_c, 0, 60, 127
1, 519917, Note_on_c, 11, 58, 127
1, 520028, Note_off_c, 11, 58, 127
1, 520028, Note_off_c, 2, 74, 127
1, 520030, Note_on_c, 0, 72, 127
1, 520030, Note_on_c, 10, 57, 127
1, 520141, Note_off_c, 10, 57, 127
1, 520141, Note_off_c, 0, 72, 127
1, 520143, Note_on_c, 11, 70, 127
1, 520143, Note_on_c, 7, 55, 127
1, 520254, Note_off_c, 7, 55, 127
1, 520254, Note_off_c, 11, 70, 127
1, 520256, Note_on_c, 10, 69, 127
1, 520256, Note_on_c, 5, 53, 127
1, 520367, Note_off_c, 5, 53, 127
1, 520369, Note_off_c, 7, 79, 127
1, 520369, Note_on_c, 5, 41, 127
1, 520480, Note_off_c, 5, 41, 127
1, 520482, Note_on_c, 5, 53, 127
1, 520482, Note_on_c, 5, 77, 127
1, 520593, Note_off_c, 5, 53, 127
1, 520595, Note_on_c, 7, 55, 127
1, 520706, Note_off_c, 7, 55, 127
1, 520706, Note_off_c, 5, 77, 127
1, 520708, Note_on_c, 5, 53, 127
1, 520708, Note_on_c, 0, 72, 127
1, 520819, Note_off_c, 5, 53, 127
1, 520821, Note_on_c, 3, 51, 127
1, 520932, Note_off_c, 3, 51, 127
1, 520932, Note_off_c, 0, 72, 127
1, 520932, Note_off_c, 10, 69, 127
1, 520934, Note_on_c, 0, 72, 127
1, 520934, Note_on_c, 2, 50, 127
1, 520934, Note_on_c, 3, 75, 127
1, 521045, Note_off_c, 2, 50, 127
1, 521047, Note_on_c, 0, 48, 127
1, 521158, Note_off_c, 0, 48, 127
1, 521160, Note_on_c, 11, 46, 127
1, 521271, Note_off_c, 11, 46, 127
1, 521273, Note_on_c, 5, 53, 127
1, 521334, Note_off_c, 3, 75, 127
1, 521383, Note_off_c, 5, 53, 127
1, 521385, Note_on_c, 11, 58, 127
1, 521385, Note_on_c, 2, 74, 127
1, 521496, Note_off_c, 2, 74, 127
1, 521496, Note_off_c, 11, 58, 127
1, 521498, Note_on_c, 0, 60, 127
1, 521498, Note_on_c, 3, 75, 127
1, 521609, Note_off_c, 3, 75, 127
1, 521609, Note_off_c, 0, 60, 127
1, 521611, Note_on_c, 11, 58, 127
1, 521611, Note_on_c, 5, 77, 127
1, 521722, Note_off_c, 11, 58, 127
1, 521724, Note_on_c, 8, 56, 127
1, 521835, Note_off_c, 8, 56, 127
1, 521835, Note_off_c, 0, 72, 127
1, 521837, Note_on_c, 11, 70, 127
1, 521837, Note_on_c, 7, 55, 127
1, 521948, Note_off_c, 7, 55, 127
1, 521948, Note_off_c, 11, 70, 127
1, 521950, Note_on_c, 8, 68, 127
1, 521950, Note_on_c, 5, 53, 127
1, 522061, Note_off_c, 5, 53, 127
1, 522061, Note_off_c, 8, 68, 127
1, 522063, Note_on_c, 7, 67, 127
1, 522063, Note_on_c, 3, 51, 127
1, 522174, Note_off_c, 3, 51, 127
1, 522176, Note_on_c, 3, 39, 127
1, 522247, Note_off_c, 5, 77, 127
1, 522287, Note_off_c, 3, 39, 127
1, 522289, Note_on_c, 3, 51, 127
1, 522289, Note_on_c, 3, 75, 127
1, 522400, Note_off_c, 3, 75, 127
1, 522400, Note_off_c, 3, 51, 127
1, 522402, Note_on_c, 5, 53, 127
1, 522402, Note_on_c, 2, 74, 127
1, 522510, Note_off_c, 7, 67, 127
1, 522512, Note_off_c, 2, 74, 127
1, 522512, Note_off_c, 5, 53, 127
1, 522514, Note_on_c, 3, 51, 127
1, 522514, Note_on_c, 0, 72, 127
1, 522625, Note_off_c, 0, 72, 127
1, 522625, Note_off_c, 3, 51, 127
1, 522627, Note_on_c, 2, 50, 127
1, 522627, Note_on_c, 11, 70, 127
1, 522738, Note_off_c, 11, 70, 127
1, 522738, Note_off_c, 2, 50, 127
1, 522740, Note_on_c, 0, 48, 127
1, 522740, Note_on_c, 10, 69, 127
1, 522851, Note_off_c, 10, 69, 127
1, 522851, Note_off_c, 0, 48, 127
1, 522853, Note_on_c, 11, 46, 127
1, 522853, Note_on_c, 7, 67, 127
1, 522964, Note_off_c, 7, 67, 127
1, 522964, Note_off_c, 11, 46, 127
1, 522966, Note_on_c, 10, 45, 127
1, 522966, Note_on_c, 0, 72, 127
1, 523077, Note_off_c, 10, 45, 127
1, 523079, Note_on_c, 7, 43, 127
1, 523190, Note_off_c, 7, 43, 127
1, 523192, Note_on_c, 11, 70, 127
1, 523192, Note_on_c, 10, 45, 127
1, 523303, Note_off_c, 10, 45, 127
1, 523305, Note_on_c, 11, 46, 127
1, 523416, Note_off_c, 11, 46, 127
1, 523416, Note_off_c, 11, 70, 127
1, 523418, Note_on_c, 10, 69, 127
1, 523418, Note_on_c, 0, 48, 127
1, 523529, Note_off_c, 0, 48, 127
1, 523531, Note_on_c, 2, 50, 127
1, 523642, Note_off_c, 2, 50, 127
1, 523642, Note_off_c, 10, 69, 127
1, 523644, Note_on_c, 7, 67, 127
1, 523644, Note_on_c, 3, 51, 127
1, 523755, Note_off_c, 3, 51, 127
1, 523757, Note_on_c, 0, 48, 127
1, 523868, Note_off_c, 0, 48, 127
1, 523868, Note_off_c, 7, 67, 127
1, 523870, Note_on_c, 6, 66, 127
1, 523870, Note_on_c, 2, 50, 127
1, 523981, Note_off_c, 2, 50, 127
1, 523983, Note_on_c, 0, 48, 127
1, 524094, Note_off_c, 0, 48, 127
1, 524094, Note_off_c, 6, 66, 127
1, 524096, Note_on_c, 10, 69, 127
1, 524096, Note_on_c, 2, 50, 127
1, 524207, Note_off_c, 2, 50, 127
1, 524209, Note_on_c, 4, 52, 127
1, 524320, Note_off_c, 4, 52, 127
1, 524320, Note_off_c, 10, 69, 127
1, 524322, Note_on_c, 2, 62, 127
1, 524322, Note_on_c, 6, 54, 127
1, 524433, Note_off_c, 6, 54, 127
1, 524435, Note_on_c, 7, 55, 127
1, 524546, Note_off_c, 7, 55, 127
1, 524546, Note_off_c, 0, 72, 127
1, 524548, Note_on_c, 10, 57, 127
1, 524548, Note_on_c, 0, 72, 127
1, 524659, Note_off_c, 10, 57, 127
1, 524661, Note_on_c, 6, 54, 127
1, 524772, Note_off_c, 6, 54, 127
1, 524772, Note_off_c, 0, 72, 127
1, 524774, Note_on_c, 7, 55, 127
1, 524774, Note_on_c, 11, 70, 127
1, 524998, Note_off_c, 7, 55, 127
1, 524998, Note_off_c, 2, 62, 127
1, 525000, Note_on_c, 0, 60, 127
1, 525000, Note_on_c, 3, 51, 127
1, 525111, Note_off_c, 0, 60, 127
1, 525113, Note_on_c, 2, 62, 127
1, 525224, Note_off_c, 2, 62, 127
1, 525224, Note_off_c, 3, 51, 127
1, 525224, Note_off_c, 11, 70, 127
1, 525226, Note_on_c, 4, 64, 127
1, 525226, Note_on_c, 0, 48, 127
1, 525226, Note_on_c, 10, 69, 127
1, 525337, Note_off_c, 4, 64, 127
1, 525339, Note_on_c, 6, 66, 127
1, 525450, Note_off_c, 6, 66, 127
1, 525450, Note_off_c, 0, 48, 127
1, 525452, Note_on_c, 7, 67, 127
1, 525452, Note_on_c, 2, 50, 127
1, 525556, Note_off_c, 10, 69, 127
1, 525563, Note_off_c, 7, 67, 127
1, 525565, Note_on_c, 10, 69, 127
1, 525676, Note_off_c, 10, 69, 127
1, 525676, Note_off_c, 2, 50, 127
1, 525678, Note_on_c, 11, 70, 127
1, 525678, Note_on_c, 7, 43, 127
1, 525791, Note_on_c, 10, 81, 127
1, 525902, Note_off_c, 10, 81, 127
1, 525902, Note_off_c, 7, 43, 127
1, 525902, Note_off_c, 11, 70, 127
1, 525904, Note_on_c, 7, 55, 127
1, 525904, Note_on_c, 6, 78, 127
1, 526015, Note_off_c, 6, 78, 127
1, 526017, Note_on_c, 7, 79, 127
1, 526128, Note_off_c, 7, 55, 127
1, 526129, Note_off_c, 7, 79, 127
1, 526130, Note_on_c, 0, 72, 127
1, 526130, Note_on_c, 3, 51, 127
1, 526243, Note_on_c, 10, 81, 127
1, 526354, Note_off_c, 10, 81, 127
1, 526354, Note_off_c, 3, 51, 127
1, 526354, Note_off_c, 0, 72, 127
1, 526356, Note_on_c, 10, 57, 127
1, 526356, Note_on_c, 6, 78, 127
1, 526467, Note_off_c, 6, 78, 127
1, 526469, Note_on_c, 7, 79, 127
1, 526580, Note_off_c, 10, 57, 127
1, 526581, Note_off_c, 7, 79, 127
1, 526582, Note_on_c, 2, 74, 127
1, 526582, Note_on_c, 11, 46, 127
1, 526693, Note_off_c, 11, 46, 127
1, 526695, Note_on_c, 7, 55, 127
1, 526806, Note_off_c, 7, 55, 127
1, 526808, Note_on_c, 6, 54, 127
1, 526808, Note_on_c, 7, 79, 127
1, 526919, Note_off_c, 6, 54, 127
1, 526921, Note_on_c, 7, 55, 127
1, 527032, Note_off_c, 7, 55, 127
1, 527032, Note_off_c, 7, 79, 127
1, 527034, Note_on_c, 0, 48, 127
1, 527034, Note_on_c, 3, 75, 127
1, 527145, Note_off_c, 0, 48, 127
1, 527147, Note_on_c, 10, 57, 127
1, 527258, Note_off_c, 10, 57, 127
1, 527258, Note_off_c, 2, 74, 127
1, 527260, Note_on_c, 0, 72, 127
1, 527260, Note_on_c, 6, 54, 127
1, 527371, Note_off_c, 6, 54, 127
1, 527373, Note_on_c, 7, 55, 127
1, 527484, Note_off_c, 7, 55, 127
1, 527484, Note_off_c, 0, 72, 127
1, 527486, Note_on_c, 6, 66, 127
1, 527486, Note_on_c, 2, 50, 127
1, 527597, Note_off_c, 2, 50, 127
1, 527599, Note_on_c, 11, 58, 127
1, 527710, Note_off_c, 11, 58, 127
1, 527710, Note_off_c, 6, 66, 127
1, 527710, Note_off_c, 3, 75, 127
1, 527712, Note_on_c, 11, 70, 127
1, 527712, Note_on_c, 6, 54, 127
1, 527712, Note_on_c, 2, 74, 127
1, 527823, Note_off_c, 6, 54, 127
1, 527825, Note_on_c, 7, 55, 127
1, 527936, Note_off_c, 7, 55, 127
1, 527938, Note_on_c, 3, 51, 127
1, 528049, Note_off_c, 3, 51, 127
1, 528051, Note_on_c, 0, 60, 127
1, 528162, Note_off_c, 0, 60, 127
1, 528162, Note_off_c, 2, 74, 127
1, 528162, Note_off_c, 11, 70, 127
1, 528164, Note_on_c, 10, 69, 127
1, 528164, Note_on_c, 6, 54, 127
1, 528164, Note_on_c, 0, 72, 127
1, 528275, Note_off_c, 6, 54, 127
1, 528277, Note_on_c, 7, 55, 127
1, 528388, Note_off_c, 7, 55, 127
1, 528390, Note_on_c, 6, 42, 127
1, 528501, Note_off_c, 6, 42, 127
1, 528503, Note_on_c, 3, 51, 127
1, 528614, Note_off_c, 3, 51, 127
1, 528614, Note_off_c, 0, 72, 127
1, 528614, Note_off_c, 10, 69, 127
1, 528616, Note_on_c, 6, 66, 127
1, 528616, Note_on_c, 2, 50, 127
1, 528616, Note_on_c, 3, 75, 127
1, 528727, Note_off_c, 2, 50, 127
1, 528729, Note_on_c, 0, 48, 127
1, 528840, Note_off_c, 0, 48, 127
1, 528840, Note_off_c, 3, 75, 127
1, 528840, Note_off_c, 6, 66, 127
1, 528842, Note_on_c, 7, 67, 127
1, 528842, Note_on_c, 11, 46, 127
1, 528842, Note_on_c, 2, 74, 127
1, 528953, Note_off_c, 11, 46, 127
1, 528955, Note_on_c, 10, 45, 127
1, 529066, Note_off_c, 10, 45, 127
1, 529066, Note_off_c, 2, 74, 127
1, 529066, Note_off_c, 7, 67, 127
1, 529068, Note_on_c, 10, 69, 127
1, 529068, Note_on_c, 7, 43, 127
1, 529068, Note_on_c, 0, 72, 127
1, 529179, Note_off_c, 7, 43, 127
1, 529181, Note_on_c, 6, 42, 127
1, 529292, Note_off_c, 6, 42, 127
1, 529292, Note_off_c, 0, 72, 127
1, 529292, Note_off_c, 10, 69, 127
1, 529294, Note_on_c, 2, 62, 127
1, 529294, Note_on_c, 7, 43, 127
1, 529294, Note_on_c, 11, 70, 127
1, 529405, Note_off_c, 7, 43, 127
1, 529407, Note_on_c, 5, 41, 127
1, 529518, Note_off_c, 5, 41, 127
1, 529518, Note_off_c, 11, 70, 127
1, 529518, Note_off_c, 2, 62, 127
1, 529520, Note_on_c, 3, 39, 127
1, 529520, Note_on_c, 7, 79, 127
1, 529631, Note_off_c, 3, 39, 127
1, 529633, Note_on_c, 2, 38, 127
1, 529744, Note_off_c, 2, 38, 127
1, 529744, Note_off_c, 7, 79, 127
1, 529746, Note_on_c, 0, 36, 127
1, 529746, Note_on_c, 10, 69, 127
1, 529859, Note_on_c, 3, 75, 127
1, 529970, Note_off_c, 3, 75, 127
1, 529970, Note_off_c, 10, 69, 127
1, 529970, Note_off_c, 0, 36, 127
1, 529972, Note_on_c, 2, 74, 127
1, 529972, Note_on_c, 2, 38, 127
1, 529972, Note_on_c, 6, 78, 127
1, 530083, Note_off_c, 2, 74, 127
1, 530085, Note_on_c, 0, 72, 127
1, 530196, Note_off_c, 0, 72, 127
1, 530196, Note_off_c, 6, 78, 127
1, 530196, Note_off_c, 2, 38, 127
1, 530198, Note_on_c, 12, 71, 127
1, 530198, Note_on_c, 7, 43, 127
1, 530198, Note_on_c, 7, 79, 127
1, 530309, Note_off_c, 7, 43, 127
1, 530311, Note_on_c, 6, 42, 127
1, 530422, Note_off_c, 6, 42, 127
1, 530422, Note_off_c, 12, 71, 127
1, 530424, Note_on_c, 2, 74, 127
1, 530424, Note_on_c, 7, 43, 127
1, 530535, Note_off_c, 7, 43, 127
1, 530537, Note_on_c, 10, 45, 127
1, 530645, Note_off_c, 7, 79, 127
1, 530647, Note_off_c, 10, 45, 127
1, 530647, Note_off_c, 2, 74, 127
1, 530649, Note_on_c, 7, 67, 127
1, 530649, Note_on_c, 12, 47, 127
1, 530760, Note_off_c, 12, 47, 127
1, 530762, Note_on_c, 0, 48, 127
1, 530873, Note_off_c, 0, 48, 127
1, 530875, Note_on_c, 2, 50, 127
1, 530875, Note_on_c, 5, 77, 127
1, 530986, Note_off_c, 2, 50, 127
1, 530988, Note_on_c, 3, 51, 127
1, 531099, Note_off_c, 3, 51, 127
1, 531099, Note_off_c, 5, 77, 127
1, 531101, Note_on_c, 5, 53, 127
1, 531101, Note_on_c, 12, 71, 127
1, 531212, Note_off_c, 5, 53, 127
1, 531214, Note_on_c, 3, 51, 127
1, 531325, Note_off_c, 3, 51, 127
1, 531325, Note_off_c, 7, 67, 127
1, 531327, Note_on_c, 5, 65, 127
1, 531327, Note_on_c, 2, 50, 127
1, 531438, Note_off_c, 2, 50, 127
1, 531438, Note_off_c, 5, 65, 127
1, 531440, Note_on_c, 7, 67, 127
1, 531440, Note_on_c, 3, 51, 127
1, 531548, Note_off_c, 12, 71, 127
1, 531550, Note_off_c, 3, 51, 127
1, 531550, Note_off_c, 7, 67, 127
1, 531552, Note_on_c, 10, 69, 127
1, 531552, Note_on_c, 5, 53, 127
1, 531663, Note_off_c, 5, 53, 127
1, 531663, Note_off_c, 10, 69, 127
1, 531665, Note_on_c, 12, 71, 127
1, 531665, Note_on_c, 7, 55, 127
1, 531776, Note_off_c, 7, 55, 127
1, 531776, Note_off_c, 12, 71, 127
1, 531778, Note_on_c, 0, 72, 127
1, 531778, Note_on_c, 10, 57, 127
1, 531889, Note_off_c, 10, 57, 127
1, 531889, Note_off_c, 0, 72, 127
1, 531891, Note_on_c, 2, 74, 127
1, 531891, Note_on_c, 12, 59, 127
1, 532002, Note_off_c, 12, 59, 127
1, 532002, Note_off_c, 2, 74, 127
1, 532004, Note_on_c, 3, 75, 127
1, 532004, Note_on_c, 0, 60, 127
1, 532115, Note_off_c, 0, 60, 127
1, 532115, Note_off_c, 3, 75, 127
1, 532117, Note_on_c, 12, 59, 127
1, 532228, Note_off_c, 12, 59, 127
1, 532230, Note_on_c, 0, 60, 127
1, 532230, Note_on_c, 7, 79, 127
1, 532341, Note_off_c, 0, 60, 127
1, 532343, Note_on_c, 2, 62, 127
1, 532454, Note_off_c, 2, 62, 127
1, 532454, Note_off_c, 7, 79, 127
1, 532456, Note_on_c, 3, 63, 127
1, 532456, Note_on_c, 0, 72, 127
1, 532567, Note_off_c, 3, 63, 127
1, 532569, Note_on_c, 5, 65, 127
1, 532680, Note_off_c, 5, 65, 127
1, 532682, Note_on_c, 7, 67, 127
1, 532682, Note_on_c, 0, 60, 127
1, 532793, Note_off_c, 7, 67, 127
1, 532795, Note_on_c, 8, 68, 127
1, 532906, Note_off_c, 8, 68, 127
1, 532906, Note_off_c, 0, 60, 127
1, 532908, Note_on_c, 11, 70, 127
1, 532908, Note_on_c, 4, 52, 127
1, 533019, Note_off_c, 11, 70, 127
1, 533021, Note_on_c, 8, 68, 127
1, 533132, Note_off_c, 8, 68, 127
1, 533132, Note_off_c, 4, 52, 127
1, 533132, Note_off_c, 0, 72, 127
1, 533134, Note_on_c, 7, 67, 127
1, 533134, Note_on_c, 11, 70, 127
1, 533245, Note_off_c, 11, 70, 127
1, 533245, Note_off_c, 7, 67, 127
1, 533247, Note_on_c, 8, 68, 127
1, 533247, Note_on_c, 0, 72, 127
1, 533358, Note_off_c, 0, 72, 127
1, 533358, Note_off_c, 8, 68, 127
1, 533360, Note_on_c, 11, 70, 127
1, 533360, Note_on_c, 2, 74, 127
1, 533471, Note_off_c, 2, 74, 127
1, 533471, Note_off_c, 11, 70, 127
1, 533473, Note_on_c, 0, 72, 127
1, 533473, Note_on_c, 4, 76, 127
1, 533584, Note_off_c, 4, 76, 127
1, 533584, Note_off_c, 0, 72, 127
1, 533586, Note_on_c, 2, 74, 127
1, 533586, Note_on_c, 0, 60, 127
1, 533586, Note_on_c, 5, 77, 127
1, 533697, Note_off_c, 5, 77, 127
1, 533697, Note_off_c, 2, 74, 127
1, 533699, Note_on_c, 4, 76, 127
1, 533699, Note_on_c, 7, 79, 127
1, 533810, Note_off_c, 7, 79, 127
1, 533810, Note_off_c, 4, 76, 127
1, 533810, Note_off_c, 0, 60, 127
1, 533812, Note_on_c, 5, 77, 127
1, 533812, Note_on_c, 5, 53, 127
1, 533812, Note_on_c, 8, 80, 127
1, 533923, Note_off_c, 8, 80, 127
1, 533925, Note_on_c, 0, 84, 127
1, 534036, Note_off_c, 5, 53, 127
1, 534036, Note_off_c, 5, 77, 127
1, 534038, Note_on_c, 4, 76, 127
1, 534038, Note_on_c, 8, 68, 127
1, 534149, Note_off_c, 4, 76, 127
1, 534151, Note_on_c, 5, 77, 127
1, 534262, Note_off_c, 8, 68, 127
1, 534262, Note_off_c, 0, 84, 127
1, 534264, Note_on_c, 3, 51, 127
1, 534264, Note_on_c, 8, 80, 127
1, 534375, Note_off_c, 8, 80, 127
1, 534377, Note_on_c, 0, 84, 127
1, 534488, Note_off_c, 0, 84, 127
1, 534488, Note_off_c, 3, 51, 127
1, 534490, Note_on_c, 7, 67, 127
1, 534490, Note_on_c, 11, 82, 127
1, 534601, Note_off_c, 11, 82, 127
1, 534603, Note_on_c, 0, 84, 127
1, 534714, Note_off_c, 0, 84, 127
1, 534714, Note_off_c, 7, 67, 127
1, 534716, Note_on_c, 2, 50, 127
1, 534716, Note_on_c, 8, 80, 127
1, 534827, Note_off_c, 8, 80, 127
1, 534829, Note_on_c, 0, 84, 127
1, 534940, Note_off_c, 2, 50, 127
1, 534940, Note_off_c, 5, 77, 127
1, 534942, Note_on_c, 4, 76, 127
1, 534942, Note_on_c, 5, 65, 127
1, 535053, Note_off_c, 4, 76, 127
1, 535055, Note_on_c, 5, 77, 127
1, 535166, Note_off_c, 5, 65, 127
1, 535166, Note_off_c, 0, 84, 127
1, 535168, Note_on_c, 11, 46, 127
1, 535168, Note_on_c, 8, 80, 127
1, 535279, Note_off_c, 8, 80, 127
1, 535281, Note_on_c, 11, 82, 127
1, 535392, Note_off_c, 11, 82, 127
1, 535392, Note_off_c, 11, 46, 127
1, 535394, Note_on_c, 2, 62, 127
1, 535394, Note_on_c, 8, 80, 127
1, 535505, Note_off_c, 8, 80, 127
1, 535507, Note_on_c, 11, 82, 127
1, 535618, Note_off_c, 11, 82, 127
1, 535618, Note_off_c, 2, 62, 127
1, 535620, Note_on_c, 3, 51, 127
1, 535620, Note_on_c, 7, 79, 127
1, 535731, Note_off_c, 7, 79, 127
1, 535733, Note_on_c, 11, 82, 127
1, 535844, Note_off_c, 3, 51, 127
1, 535844, Note_off_c, 5, 77, 127
1, 535846, Note_on_c, 2, 74, 127
1, 535846, Note_on_c, 7, 67, 127
1, 535957, Note_off_c, 2, 74, 127
1, 535959, Note_on_c, 3, 75, 127
1, 536070, Note_off_c, 7, 67, 127
1, 536070, Note_off_c, 11, 82, 127
1, 536072, Note_on_c, 2, 50, 127
1, 536072, Note_on_c, 7, 79, 127
1, 536183, Note_off_c, 7, 79, 127
1, 536185, Note_on_c, 11, 82, 127
1, 536296, Note_off_c, 11, 82, 127
1, 536296, Note_off_c, 2, 50, 127
1, 536298, Note_on_c, 5, 65, 127
1, 536298, Note_on_c, 8, 80, 127
1, 536409, Note_off_c, 8, 80, 127
1, 536411, Note_on_c, 11, 82, 127
1, 536522, Note_off_c, 11, 82, 127
1, 536522, Note_off_c, 5, 65, 127
1, 536524, Note_on_c, 0, 48, 127
1, 536524, Note_on_c, 7, 79, 127
1, 536635, Note_off_c, 7, 79, 127
1, 536637, Note_on_c, 11, 82, 127
1, 536748, Note_off_c, 0, 48, 127
1, 536748, Note_off_c, 3, 75, 127
1, 536750, Note_on_c, 2, 74, 127
1, 536750, Note_on_c, 3, 63, 127
1, 536861, Note_off_c, 2, 74, 127
1, 536863, Note_on_c, 3, 75, 127
1, 536974, Note_off_c, 3, 63, 127
1, 536974, Note_off_c, 11, 82, 127
1, 536976, Note_on_c, 8, 44, 127
1, 536976, Note_on_c, 7, 79, 127
1, 537087, Note_off_c, 7, 79, 127
1, 537089, Note_on_c, 8, 80, 127
1, 537200, Note_off_c, 8, 80, 127
1, 537200, Note_off_c, 8, 44, 127
1, 537202, Note_on_c, 0, 60, 127
1, 537202, Note_on_c, 7, 79, 127
1, 537313, Note_off_c, 7, 79, 127
1, 537315, Note_on_c, 8, 80, 127
1, 537426, Note_off_c, 8, 80, 127
1, 537426, Note_off_c, 0, 60, 127
1, 537428, Note_on_c, 2, 50, 127
1, 537428, Note_on_c, 5, 77, 127
1, 537539, Note_off_c, 5, 77, 127
1, 537541, Note_on_c, 8, 80, 127
1, 537652, Note_off_c, 2, 50, 127
1, 537652, Note_off_c, 3, 75, 127
1, 537654, Note_on_c, 0, 72, 127
1, 537654, Note_on_c, 5, 65, 127
1, 537765, Note_off_c, 0, 72, 127
1, 537767, Note_on_c, 2, 74, 127
1, 537878, Note_off_c, 5, 65, 127
1, 537878, Note_off_c, 8, 80, 127
1, 537880, Note_on_c, 0, 48, 127
1, 537880, Note_on_c, 5, 77, 127
1, 537991, Note_off_c, 5, 77, 127
1, 537993, Note_on_c, 8, 80, 127
1, 538104, Note_off_c, 8, 80, 127
1, 538104, Note_off_c, 0, 48, 127
1, 538106, Note_on_c, 3, 63, 127
1, 538106, Note_on_c, 7, 79, 127
1, 538217, Note_off_c, 7, 79, 127
1, 538219, Note_on_c, 8, 80, 127
1, 538330, Note_off_c, 8, 80, 127
1, 538330, Note_off_c, 3, 63, 127
1, 538332, Note_on_c, 12, 47, 127
1, 538332, Note_on_c, 5, 77, 127
1, 538443, Note_off_c, 5, 77, 127
1, 538445, Note_on_c, 8, 80, 127
1, 538556, Note_off_c, 12, 47, 127
1, 538556, Note_off_c, 2, 74, 127
1, 538558, Note_on_c, 0, 72, 127
1, 538558, Note_on_c, 2, 62, 127
1, 538669, Note_off_c, 0, 72, 127
1, 538671, Note_on_c, 2, 74, 127
1, 538782, Note_off_c, 2, 62, 127
1, 538782, Note_off_c, 8, 80, 127
1, 538784, Note_on_c, 7, 43, 127
1, 538784, Note_on_c, 5, 77, 127
1, 538895, Note_off_c, 5, 77, 127
1, 538897, Note_on_c, 7, 79, 127
1, 539008, Note_off_c, 7, 79, 127
1, 539008, Note_off_c, 7, 43, 127
1, 539010, Note_on_c, 12, 59, 127
1, 539010, Note_on_c, 5, 77, 127
1, 539121, Note_off_c, 5, 77, 127
1, 539123, Note_on_c, 7, 79, 127
1, 539234, Note_off_c, 7, 79, 127
1, 539234, Note_off_c, 12, 59, 127
1, 539234, Note_off_c, 2, 74, 127
1, 539236, Note_on_c, 0, 72, 127
1, 539236, Note_on_c, 0, 48, 127
1, 539236, Note_on_c, 3, 75, 127
1, 539347, Note_off_c, 3, 75, 127
1, 539349, Note_on_c, 7, 79, 127
1, 539460, Note_off_c, 7, 79, 127
1, 539460, Note_off_c, 0, 48, 127
1, 539460, Note_off_c, 0, 72, 127
1, 539462, Note_on_c, 11, 70, 127
1, 539462, Note_on_c, 7, 55, 127
1, 539462, Note_on_c, 2, 74, 127
1, 539573, Note_off_c, 2, 74, 127
1, 539575, Note_on_c, 7, 79, 127
1, 539686, Note_off_c, 7, 79, 127
1, 539686, Note_off_c, 7, 55, 127
1, 539686, Note_off_c, 11, 70, 127
1, 539688, Note_on_c, 8, 68, 127
1, 539688, Note_on_c, 0, 60, 127
1, 539688, Note_on_c, 0, 72, 127
1, 539799, Note_off_c, 0, 72, 127
1, 539801, Note_on_c, 5, 77, 127
1, 539912, Note_off_c, 5, 77, 127
1, 539912, Note_off_c, 8, 68, 127
1, 539914, Note_on_c, 7, 67, 127
1, 539914, Note_on_c, 11, 70, 127
1, 540025, Note_off_c, 11, 70, 127
1, 540027, Note_on_c, 3, 75, 127
1, 540138, Note_off_c, 3, 75, 127
1, 540138, Note_off_c, 7, 67, 127
1, 540140, Note_on_c, 5, 65, 127
1, 540140, Note_on_c, 8, 68, 127
1, 540251, Note_off_c, 8, 68, 127
1, 540253, Note_on_c, 0, 72, 127
1, 540364, Note_off_c, 0, 72, 127
1, 540364, Note_off_c, 0, 60, 127
1, 540366, Note_on_c, 2, 62, 127
1, 540366, Note_on_c, 5, 77, 127
1, 540477, Note_off_c, 5, 77, 127
1, 540477, Note_off_c, 2, 62, 127
1, 540479, Note_on_c, 0, 60, 127
1, 540479, Note_on_c, 3, 75, 127
1, 540587, Note_off_c, 5, 65, 127
1, 540589, Note_off_c, 3, 75, 127
1, 540589, Note_off_c, 0, 60, 127
1, 540591, Note_on_c, 12, 59, 127
1, 540591, Note_on_c, 5, 77, 127
1, 540702, Note_off_c, 12, 59, 127
1, 540704, Note_on_c, 0, 72, 127
1, 540704, Note_on_c, 10, 57, 127
1, 540815, Note_off_c, 10, 57, 127
1, 540815, Note_off_c, 0, 72, 127
1, 540817, Note_on_c, 12, 71, 127
1, 540817, Note_on_c, 7, 55, 127
1, 540928, Note_off_c, 7, 55, 127
1, 540928, Note_off_c, 12, 71, 127
1, 540930, Note_on_c, 2, 74, 127
1, 540930, Note_on_c, 5, 53, 127
1, 541038, Note_off_c, 5, 77, 127
1, 541040, Note_off_c, 5, 53, 127
1, 541040, Note_off_c, 2, 74, 127
1, 541042, Note_on_c, 7, 67, 127
1, 541042, Note_on_c, 3, 51, 127
1, 541153, Note_off_c, 3, 51, 127
1, 541155, Note_on_c, 2, 50, 127
1, 541266, Note_off_c, 2, 50, 127
1, 541268, Note_on_c, 0, 48, 127
1, 541268, Note_on_c, 0, 72, 127
1, 541379, Note_off_c, 0, 48, 127
1, 541381, Note_on_c, 2, 50, 127
1, 541489, Note_off_c, 7, 67, 127
1, 541491, Note_off_c, 2, 50, 127
1, 541491, Note_off_c, 0, 72, 127
1, 541493, Note_on_c, 3, 51, 127
1, 541493, Note_on_c, 7, 79, 127
1, 541604, Note_off_c, 3, 51, 127
1, 541606, Note_on_c, 5, 53, 127
1, 541717, Note_off_c, 5, 53, 127
1, 541719, Note_on_c, 3, 75, 127
1, 541719, Note_on_c, 7, 55, 127
1, 541830, Note_off_c, 7, 55, 127
1, 541832, Note_on_c, 3, 51, 127
1, 541943, Note_off_c, 3, 51, 127
1, 541943, Note_off_c, 3, 75, 127
1, 541945, Note_on_c, 0, 72, 127
1, 541945, Note_on_c, 8, 56, 127
1, 542056, Note_off_c, 8, 56, 127
1, 542058, Note_on_c, 7, 55, 127
1, 542169, Note_off_c, 7, 55, 127
1, 542169, Note_off_c, 7, 79, 127
1, 542171, Note_on_c, 5, 53, 127
1, 542171, Note_on_c, 8, 80, 127
1, 542282, Note_off_c, 8, 80, 127
1, 542282, Note_off_c, 5, 53, 127
1, 542284, Note_on_c, 7, 55, 127
1, 542284, Note_on_c, 7, 79, 127
1, 542392, Note_off_c, 0, 72, 127
1, 542394, Note_off_c, 7, 79, 127
1, 542394, Note_off_c, 7, 55, 127
1, 542396, Note_on_c, 8, 56, 127
1, 542396, Note_on_c, 5, 77, 127
1, 542507, Note_off_c, 5, 77, 127
1, 542509, Note_on_c, 3, 75, 127
1, 542620, Note_off_c, 3, 75, 127
1, 542622, Note_on_c, 2, 74, 127
1, 542733, Note_off_c, 2, 74, 127
1, 542735, Note_on_c, 0, 72, 127
1, 542846, Note_off_c, 0, 72, 127
1, 542848, Note_on_c, 12, 71, 127
1, 542959, Note_off_c, 8, 56, 127
1, 542961, Note_on_c, 8, 56, 127
1, 543072, Note_off_c, 8, 56, 127
1, 543074, Note_on_c, 2, 62, 127
1, 543074, Note_on_c, 7, 55, 127
1, 543185, Note_off_c, 7, 55, 127
1, 543187, Note_on_c, 5, 53, 127
1, 543295, Note_off_c, 12, 71, 127
1, 543297, Note_off_c, 5, 53, 127
1, 543297, Note_off_c, 2, 62, 127
1, 543299, Note_on_c, 7, 67, 127
1, 543299, Note_on_c, 3, 51, 127
1, 543410, Note_off_c, 3, 51, 127
1, 543412, Note_on_c, 2, 50, 127
1, 543523, Note_off_c, 2, 50, 127
1, 543525, Note_on_c, 0, 48, 127
1, 543525, Note_on_c, 3, 75, 127
1, 543636, Note_off_c, 0, 48, 127
1, 543638, Note_on_c, 11, 46, 127
1, 543749, Note_off_c, 11, 46, 127
1, 543749, Note_off_c, 3, 75, 127
1, 543751, Note_on_c, 8, 44, 127
1, 543751, Note_on_c, 0, 72, 127
1, 543862, Note_off_c, 8, 44, 127
1, 543864, Note_on_c, 7, 55, 127
1, 543975, Note_off_c, 7, 55, 127
1, 543975, Note_off_c, 7, 67, 127
1, 543977, Note_on_c, 8, 68, 127
1, 543977, Note_on_c, 5, 53, 127
1, 544088, Note_off_c, 5, 53, 127
1, 544088, Note_off_c, 8, 68, 127
1, 544090, Note_on_c, 7, 67, 127
1, 544090, Note_on_c, 3, 51, 127
1, 544198, Note_off_c, 0, 72, 127
1, 544200, Note_off_c, 3, 51, 127
1, 544200, Note_off_c, 7, 67, 127
1, 544202, Note_on_c, 5, 65, 127
1, 544202, Note_on_c, 2, 50, 127
1, 544313, Note_off_c, 2, 50, 127
1, 544313, Note_off_c, 5, 65, 127
1, 544315, Note_on_c, 3, 63, 127
1, 544315, Note_on_c, 0, 48, 127
1, 544426, Note_off_c, 0, 48, 127
1, 544426, Note_off_c, 3, 63, 127
1, 544428, Note_on_c, 2, 62, 127
1, 544428, Note_on_c, 12, 47, 127
1, 544539, Note_off_c, 12, 47, 127
1, 544539, Note_off_c, 2, 62, 127
1, 544541, Note_on_c, 0, 60, 127
1, 544541, Note_on_c, 10, 45, 127
1, 544652, Note_off_c, 10, 45, 127
1, 544652, Note_off_c, 0, 60, 127
1, 544654, Note_on_c, 12, 59, 127
1, 544654, Note_on_c, 7, 43, 127
1, 544767, Note_off_c, 7, 43, 127
1, 544769, Note_on_c, 3, 51, 127
1, 544882, Note_off_c, 3, 51, 127
1, 544884, Note_on_c, 2, 50, 127
1, 544884, Note_on_c, 7, 67, 127
1, 544997, Note_off_c, 2, 50, 127
1, 544999, Note_on_c, 0, 48, 127
1, 545109, Note_off_c, 12, 59, 127
1, 545111, Note_off_c, 0, 48, 127
1, 545111, Note_off_c, 7, 67, 127
1, 545113, Note_on_c, 12, 47, 127
1, 545113, Note_on_c, 5, 77, 127
1, 545226, Note_off_c, 12, 47, 127
1, 545228, Note_on_c, 10, 45, 127
1, 545341, Note_off_c, 10, 45, 127
1, 545343, Note_on_c, 2, 74, 127
1, 545343, Note_on_c, 7, 43, 127
1, 545456, Note_off_c, 7, 43, 127
1, 545458, Note_on_c, 5, 41, 127
1, 545571, Note_off_c, 5, 41, 127
1, 545571, Note_off_c, 2, 74, 127
1, 545573, Note_on_c, 7, 67, 127
1, 545573, Note_on_c, 3, 39, 127
1, 545692, Note_off_c, 3, 39, 127
1, 545695, Note_on_c, 8, 44, 127
1, 545814, Note_off_c, 8, 44, 127
1, 545814, Note_off_c, 7, 67, 127
1, 545814, Note_off_c, 5, 77, 127
1, 545817, Note_on_c, 12, 71, 127
1, 545817, Note_on_c, 7, 43, 127
1, 545817, Note_on_c, 2, 74, 127
1, 545936, Note_off_c, 7, 43, 127
1, 545939, Note_on_c, 5, 41, 127
1, 546058, Note_off_c, 5, 41, 127
1, 546058, Note_off_c, 2, 74, 127
1, 546058, Note_off_c, 12, 71, 127
1, 546061, Note_on_c, 0, 72, 127
1, 546061, Note_on_c, 3, 39, 127
1, 546061, Note_on_c, 7, 79, 127
1, 546180, Note_off_c, 3, 39, 127
1, 546183, Note_on_c, 2, 38, 127
1, 546302, Note_off_c, 2, 38, 127
1, 546302, Note_off_c, 7, 79, 127
1, 546302, Note_off_c, 0, 72, 127
1, 546305, Note_on_c, 8, 68, 127
1, 546305, Note_on_c, 2, 74, 127
1, 546305, Note_on_c, 3, 39, 127
1, 546305, Note_on_c, 5, 77, 127
1, 546424, Note_off_c, 3, 39, 127
1, 546427, Note_on_c, 5, 41, 127
1, 546546, Note_off_c, 5, 41, 127
1, 546546, Note_off_c, 5, 77, 127
1, 546546, Note_off_c, 8, 68, 127
1, 546549, Note_on_c, 7, 67, 127
1, 546549, Note_on_c, 7, 43, 127
1, 546549, Note_on_c, 3, 75, 127
1, 546682, Note_off_c, 7, 43, 127
1, 546693, Note_on_c, 0, 48, 127
1, 546814, Note_off_c, 2, 74, 127
1, 546832, Note_off_c, 0, 48, 127
1, 546836, Note_on_c, 3, 51, 127
1, 546836, Note_on_c, 0, 72, 127
1, 546976, Note_off_c, 3, 51, 127
1, 546980, Note_on_c, 6, 54, 127
1, 547084, Note_off_c, 7, 67, 127
1, 547087, Note_off_c, 3, 75, 127
1, 547126, Note_off_c, 6, 54, 127
1, 547129, Note_on_c, 2, 74, 127
1, 547131, Note_on_c, 7, 55, 127
1, 547131, Note_on_c, 5, 65, 127
1, 547433, Note_off_c, 0, 72, 127
1, 547474, Note_on_c, 12, 71, 127
1, 547474, Note_on_c, 7, 43, 127
1, 547714, Note_off_c, 7, 55, 127
1, 547783, Note_off_c, 5, 65, 127
1, 547785, Note_off_c, 2, 74, 127
1, 547800, Note_off_c, 12, 71, 127
1, 547817, Note_off_c, 7, 43, 127
1, 547874, Note_on_c, 0, 72, 127
1, 547874, Note_on_c, 0, 48, 127
1, 547874, Note_on_c, 0, 36, 127
1, 547874, Note_on_c, 7, 67, 127
1, 547874, Note_on_c, 3, 63, 127
1, 550474, Note_off_c, 3, 63, 127
1, 550474, Note_off_c, 7, 67, 127
1, 550474, Note_off_c, 0, 36, 127
1, 550474, Note_off_c, 0, 48, 127
1, 550474, Note_off_c, 0, 72, 127
1, 552960, End_track
0, 0, End_of_file
