0, 0, Header, 1, 3, 384
1, 0, Start_track
1, 0, Time_signature, 4, 2, 24, 8
1, 0, Tempo, 500000
1, 297984, End_track
2, 0, Start_track
2, 0, Text_t, "harpsichord: John Sankey"
2, 0, Program_c, 0, 6
2, 0, Pitch_bend_c, 0, 8192
2, 0, Program_c, 1, 6
2, 0, Pitch_bend_c, 1, 7792
2, 0, Program_c, 2, 6
2, 0, Pitch_bend_c, 2, 7876
2, 0, Program_c, 3, 6
2, 0, Pitch_bend_c, 3, 7952
2, 0, Program_c, 4, 6
2, 0, Pitch_bend_c, 4, 7792
2, 0, Program_c, 5, 6
2, 0, Pitch_bend_c, 5, 8112
2, 0, Program_c, 6, 6
2, 0, Pitch_bend_c, 6, 7712
2, 0, Program_c, 7, 6
2, 0, Pitch_bend_c, 7, 8037
2, 0, Program_c, 8, 6
2, 0, Pitch_bend_c, 8, 7872
2, 0, Program_c, 10, 6
2, 0, Pitch_bend_c, 10, 7712
2, 0, Program_c, 11, 6
2, 0, Pitch_bend_c, 11, 8032
2, 0, Program_c, 12, 6
2, 0, Pitch_bend_c, 12, 7872
2, 0, Title_t, "Track 1"
2, 64, Note_on_c, 11, 70, 127
2, 64, Note_on_c, 3, 63, 127
2, 192, Note_on_c, 8, 68, 127
2, 193, Note_off_c, 11, 70, 127
2, 320, Note_on_c, 11, 70, 127
2, 320, Note_on_c, 6, 66, 127
2, 321, Note_off_c, 8, 68, 127
2, 448, Note_on_c, 8, 68, 127
2, 449, Note_off_c, 11, 70, 127
2, 576, Note_on_c, 11, 70, 127
2, 577, Note_off_c, 8, 68, 127
2, 906, Note_off_c, 3, 63, 127
2, 916, Note_on_c, 3, 63, 127
2, 1020, Note_off_c, 6, 66, 127
2, 1100, Note_on_c, 6, 66, 127
2, 1531, Note_off_c, 11, 70, 127
2, 1555, Note_on_c, 11, 70, 127
2, 1758, Note_off_c, 3, 63, 127
2, 1764, Note_off_c, 11, 70, 127
2, 1768, Note_on_c, 3, 75, 127
2, 1768, Note_on_c, 3, 63, 127
2, 1904, Note_off_c, 6, 66, 127
2, 1924, Note_on_c, 6, 66, 127
2, 2404, Note_off_c, 3, 75, 127
2, 2408, Note_on_c, 6, 78, 127
2, 2610, Note_off_c, 3, 63, 127
2, 2617, Note_off_c, 6, 78, 127
2, 2621, Note_on_c, 12, 71, 127
2, 2621, Note_on_c, 3, 63, 127
2, 2744, Note_off_c, 6, 66, 127
2, 2750, Note_off_c, 12, 71, 127
2, 2754, Note_on_c, 11, 70, 127
2, 2754, Note_on_c, 8, 68, 127
2, 2883, Note_off_c, 11, 70, 127
2, 2887, Note_on_c, 12, 71, 127
2, 3016, Note_off_c, 12, 71, 127
2, 3021, Note_on_c, 11, 70, 127
2, 3150, Note_off_c, 11, 70, 127
2, 3154, Note_on_c, 12, 71, 127
2, 3463, Note_off_c, 3, 63, 127
2, 3473, Note_on_c, 3, 63, 127
2, 3596, Note_off_c, 8, 68, 127
2, 3624, Note_on_c, 8, 68, 127
2, 3730, Note_off_c, 12, 71, 127
2, 3770, Note_on_c, 12, 71, 127
2, 4113, Note_on_c, 3, 75, 127
2, 4315, Note_off_c, 3, 63, 127
2, 4322, Note_off_c, 3, 75, 127
2, 4326, Note_on_c, 8, 80, 127
2, 4326, Note_on_c, 3, 63, 127
2, 4448, Note_off_c, 8, 68, 127
2, 4459, Note_on_c, 8, 68, 127
2, 4573, Note_off_c, 12, 71, 127
2, 4592, Note_on_c, 12, 71, 127
2, 4962, Note_off_c, 8, 80, 127
2, 4965, Note_on_c, 12, 83, 127
2, 5168, Note_off_c, 3, 63, 127
2, 5174, Note_off_c, 12, 83, 127
2, 5178, Note_on_c, 2, 74, 127
2, 5178, Note_on_c, 3, 63, 127
2, 5301, Note_off_c, 8, 68, 127
2, 5312, Note_on_c, 5, 65, 127
2, 5318, Note_off_c, 2, 74, 127
2, 5328, Note_on_c, 3, 75, 127
2, 5434, Note_off_c, 12, 71, 127
2, 5445, Note_on_c, 8, 68, 127
2, 5468, Note_off_c, 3, 75, 127
2, 5478, Note_on_c, 2, 74, 127
2, 5618, Note_off_c, 2, 74, 127
2, 5628, Note_on_c, 0, 72, 127
2, 5768, Note_off_c, 0, 72, 127
2, 5778, Note_on_c, 2, 74, 127
2, 6020, Note_off_c, 3, 63, 127
2, 6031, Note_on_c, 2, 62, 127
2, 6154, Note_off_c, 5, 65, 127
2, 6164, Note_on_c, 5, 65, 127
2, 6287, Note_off_c, 8, 68, 127
2, 6297, Note_on_c, 8, 68, 127
2, 6584, Note_off_c, 2, 74, 127
2, 6599, Note_on_c, 5, 77, 127
2, 6873, Note_off_c, 2, 62, 127
2, 6879, Note_off_c, 5, 77, 127
2, 6883, Note_on_c, 11, 70, 127
2, 6883, Note_on_c, 2, 62, 127
2, 7006, Note_off_c, 5, 65, 127
2, 7015, Note_off_c, 8, 68, 127
2, 7017, Note_on_c, 5, 65, 127
2, 7021, Note_off_c, 11, 70, 127
2, 7025, Note_on_c, 8, 68, 127
2, 7163, Note_off_c, 8, 68, 127
2, 7168, Note_on_c, 11, 70, 127
2, 7306, Note_off_c, 11, 70, 127
2, 7310, Note_on_c, 8, 68, 127
2, 7448, Note_off_c, 8, 68, 127
2, 7452, Note_on_c, 6, 66, 127
2, 7590, Note_off_c, 6, 66, 127
2, 7594, Note_on_c, 8, 68, 127
2, 7725, Note_off_c, 2, 62, 127
2, 7726, Note_off_c, 5, 65, 127
2, 7732, Note_off_c, 8, 68, 127
2, 7736, Note_on_c, 8, 68, 127
2, 7736, Note_on_c, 3, 63, 127
2, 7874, Note_off_c, 8, 68, 127
2, 7878, Note_on_c, 6, 66, 127
2, 8016, Note_off_c, 6, 66, 127
2, 8020, Note_on_c, 8, 68, 127
2, 8158, Note_off_c, 8, 68, 127
2, 8162, Note_on_c, 6, 66, 127
2, 8300, Note_off_c, 6, 66, 127
2, 8304, Note_on_c, 5, 65, 127
2, 8436, Note_off_c, 3, 63, 127
2, 8442, Note_off_c, 5, 65, 127
2, 8446, Note_on_c, 3, 63, 127
2, 8588, Note_on_c, 3, 75, 127
2, 8722, Note_on_c, 5, 77, 127
2, 8854, Note_off_c, 5, 77, 127
2, 8855, Note_on_c, 6, 78, 127
2, 9136, Note_off_c, 3, 63, 127
2, 9174, Note_on_c, 11, 58, 127
2, 9383, Note_off_c, 11, 58, 127
2, 9388, Note_on_c, 6, 66, 127
2, 9388, Note_on_c, 6, 54, 127
2, 9431, Note_off_c, 6, 78, 127
2, 9438, Note_off_c, 3, 75, 127
2, 9521, Note_on_c, 11, 70, 127
2, 9654, Note_on_c, 3, 75, 127
2, 9787, Note_on_c, 6, 78, 127
2, 9998, Note_off_c, 6, 54, 127
2, 10027, Note_on_c, 3, 51, 127
2, 10230, Note_off_c, 6, 66, 127
2, 10236, Note_off_c, 3, 51, 127
2, 10240, Note_on_c, 6, 66, 127
2, 10240, Note_on_c, 11, 46, 127
2, 10363, Note_off_c, 11, 70, 127
2, 10373, Note_on_c, 11, 70, 127
2, 10496, Note_off_c, 3, 75, 127
2, 10506, Note_on_c, 1, 73, 127
2, 10629, Note_off_c, 6, 78, 127
2, 10640, Note_on_c, 6, 78, 127
2, 11082, Note_off_c, 6, 66, 127
2, 11086, Note_off_c, 11, 46, 127
2, 11092, Note_on_c, 11, 46, 127
2, 11215, Note_off_c, 11, 70, 127
2, 11226, Note_on_c, 1, 49, 127
2, 11348, Note_off_c, 1, 73, 127
2, 11359, Note_on_c, 6, 54, 127
2, 11482, Note_off_c, 6, 78, 127
2, 11492, Note_on_c, 11, 58, 127
2, 11629, Note_on_c, 6, 78, 127
2, 11744, Note_off_c, 6, 78, 127
2, 11752, Note_on_c, 4, 76, 127
2, 11867, Note_off_c, 4, 76, 127
2, 11875, Note_on_c, 3, 75, 127
2, 11934, Note_off_c, 11, 46, 127
2, 11990, Note_off_c, 3, 75, 127
2, 11998, Note_on_c, 4, 76, 127
2, 11998, Note_on_c, 11, 46, 127
2, 12068, Note_off_c, 1, 49, 127
2, 12131, Note_on_c, 1, 49, 127
2, 12201, Note_off_c, 6, 54, 127
2, 12265, Note_on_c, 6, 54, 127
2, 12334, Note_off_c, 11, 58, 127
2, 12398, Note_on_c, 11, 58, 127
2, 12634, Note_off_c, 4, 76, 127
2, 12638, Note_on_c, 1, 73, 127
2, 12840, Note_off_c, 11, 46, 127
2, 12847, Note_off_c, 1, 73, 127
2, 12851, Note_on_c, 12, 47, 127
2, 12862, Note_off_c, 1, 49, 127
2, 12885, Note_off_c, 6, 54, 127
2, 12907, Note_off_c, 11, 58, 127
2, 12957, Note_on_c, 3, 51, 127
2, 13064, Note_on_c, 6, 54, 127
2, 13170, Note_on_c, 12, 59, 127
2, 13277, Note_on_c, 3, 63, 127
2, 13384, Note_on_c, 6, 66, 127
2, 13490, Note_on_c, 12, 71, 127
2, 13597, Note_on_c, 3, 75, 127
2, 13693, Note_off_c, 12, 47, 127
2, 13798, Note_off_c, 6, 66, 127
2, 13799, Note_off_c, 3, 51, 127
2, 13863, Note_on_c, 6, 66, 127
2, 13906, Note_off_c, 6, 54, 127
2, 13940, Note_off_c, 12, 71, 127
2, 13996, Note_on_c, 12, 71, 127
2, 14012, Note_off_c, 12, 59, 127
2, 14063, Note_off_c, 3, 75, 127
2, 14119, Note_off_c, 3, 63, 127
2, 14129, Note_on_c, 3, 75, 127
2, 14502, Note_on_c, 6, 54, 127
2, 14705, Note_off_c, 6, 66, 127
2, 14711, Note_off_c, 6, 54, 127
2, 14716, Note_on_c, 3, 51, 127
2, 14716, Note_on_c, 6, 66, 127
2, 14838, Note_off_c, 12, 71, 127
2, 14849, Note_on_c, 12, 71, 127
2, 14971, Note_off_c, 3, 75, 127
2, 14982, Note_on_c, 3, 75, 127
2, 15352, Note_off_c, 3, 51, 127
2, 15355, Note_on_c, 12, 47, 127
2, 15558, Note_off_c, 6, 66, 127
2, 15564, Note_off_c, 12, 47, 127
2, 15568, Note_on_c, 7, 43, 127
2, 15568, Note_on_c, 11, 70, 127
2, 15691, Note_off_c, 12, 71, 127
2, 15697, Note_off_c, 3, 75, 127
2, 15721, Note_on_c, 3, 75, 127
2, 15874, Note_on_c, 11, 82, 127
2, 16410, Note_off_c, 11, 70, 127
2, 16410, Note_off_c, 7, 43, 127
2, 16420, Note_on_c, 7, 43, 127
2, 16554, Note_on_c, 11, 46, 127
2, 16563, Note_off_c, 3, 75, 127
2, 16687, Note_on_c, 3, 51, 127
2, 16716, Note_off_c, 11, 82, 127
2, 16820, Note_on_c, 7, 55, 127
2, 16938, Note_on_c, 3, 75, 127
2, 17050, Note_on_c, 1, 73, 127
2, 17055, Note_off_c, 3, 75, 127
2, 17161, Note_on_c, 12, 71, 127
2, 17167, Note_off_c, 1, 73, 127
2, 17262, Note_off_c, 7, 43, 127
2, 17273, Note_on_c, 1, 73, 127
2, 17273, Note_on_c, 7, 43, 127
2, 17278, Note_off_c, 12, 71, 127
2, 17396, Note_off_c, 11, 46, 127
2, 17406, Note_on_c, 11, 46, 127
2, 17529, Note_off_c, 3, 51, 127
2, 17539, Note_on_c, 3, 51, 127
2, 17662, Note_off_c, 7, 55, 127
2, 17673, Note_on_c, 7, 55, 127
2, 17909, Note_off_c, 1, 73, 127
2, 17912, Note_on_c, 11, 70, 127
2, 18114, Note_off_c, 7, 43, 127
2, 18121, Note_off_c, 11, 70, 127
2, 18125, Note_on_c, 1, 73, 127
2, 18125, Note_on_c, 8, 44, 127
2, 18137, Note_off_c, 11, 46, 127
2, 18159, Note_off_c, 3, 51, 127
2, 18182, Note_off_c, 7, 55, 127
2, 18259, Note_on_c, 12, 47, 127
2, 18263, Note_off_c, 1, 73, 127
2, 18268, Note_on_c, 12, 71, 127
2, 18392, Note_on_c, 3, 51, 127
2, 18406, Note_off_c, 12, 71, 127
2, 18410, Note_on_c, 1, 73, 127
2, 18525, Note_on_c, 8, 56, 127
2, 18548, Note_off_c, 1, 73, 127
2, 18552, Note_on_c, 12, 71, 127
2, 18690, Note_off_c, 12, 71, 127
2, 18694, Note_on_c, 11, 70, 127
2, 18832, Note_off_c, 11, 70, 127
2, 18836, Note_on_c, 8, 68, 127
2, 18967, Note_off_c, 8, 44, 127
2, 18974, Note_off_c, 8, 68, 127
2, 18978, Note_on_c, 3, 75, 127
2, 19101, Note_off_c, 12, 47, 127
2, 19111, Note_on_c, 8, 80, 127
2, 19234, Note_off_c, 3, 51, 127
2, 19244, Note_on_c, 12, 83, 127
2, 19367, Note_off_c, 8, 56, 127
2, 19617, Note_on_c, 12, 71, 127
2, 19820, Note_off_c, 3, 75, 127
2, 19826, Note_off_c, 12, 71, 127
2, 19830, Note_on_c, 8, 68, 127
2, 19830, Note_on_c, 3, 75, 127
2, 19953, Note_off_c, 8, 80, 127
2, 19964, Note_on_c, 8, 80, 127
2, 20086, Note_off_c, 12, 83, 127
2, 20097, Note_on_c, 12, 83, 127
2, 20466, Note_off_c, 8, 68, 127
2, 20470, Note_on_c, 5, 65, 127
2, 20672, Note_off_c, 3, 75, 127
2, 20679, Note_off_c, 5, 65, 127
2, 20683, Note_on_c, 2, 62, 127
2, 20683, Note_on_c, 5, 77, 127
2, 20806, Note_off_c, 8, 80, 127
2, 20816, Note_on_c, 8, 80, 127
2, 20939, Note_off_c, 12, 83, 127
2, 20949, Note_on_c, 12, 83, 127
2, 21525, Note_off_c, 5, 77, 127
2, 21529, Note_off_c, 2, 62, 127
2, 21535, Note_on_c, 2, 62, 127
2, 21658, Note_off_c, 8, 80, 127
2, 21679, Note_on_c, 5, 65, 127
2, 21791, Note_off_c, 12, 83, 127
2, 21823, Note_on_c, 11, 70, 127
2, 22008, Note_on_c, 11, 82, 127
2, 22123, Note_off_c, 11, 82, 127
2, 22135, Note_on_c, 8, 80, 127
2, 22250, Note_off_c, 8, 80, 127
2, 22261, Note_on_c, 6, 78, 127
2, 22376, Note_off_c, 6, 78, 127
2, 22378, Note_off_c, 2, 62, 127
2, 22388, Note_on_c, 5, 77, 127
2, 22388, Note_on_c, 2, 62, 127
2, 22515, Note_off_c, 5, 65, 127
2, 22521, Note_on_c, 5, 65, 127
2, 22526, Note_off_c, 5, 77, 127
2, 22530, Note_on_c, 6, 78, 127
2, 22644, Note_off_c, 11, 70, 127
2, 22654, Note_on_c, 11, 70, 127
2, 22668, Note_off_c, 6, 78, 127
2, 22672, Note_on_c, 5, 77, 127
2, 22810, Note_off_c, 5, 77, 127
2, 22814, Note_on_c, 6, 78, 127
2, 22952, Note_off_c, 6, 78, 127
2, 22956, Note_on_c, 8, 80, 127
2, 23094, Note_off_c, 8, 80, 127
2, 23098, Note_on_c, 5, 77, 127
2, 23230, Note_off_c, 2, 62, 127
2, 23236, Note_off_c, 5, 77, 127
2, 23240, Note_on_c, 8, 80, 127
2, 23240, Note_on_c, 3, 63, 127
2, 23252, Note_off_c, 5, 65, 127
2, 23273, Note_off_c, 11, 70, 127
2, 23374, Note_on_c, 6, 66, 127
2, 23378, Note_off_c, 8, 80, 127
2, 23382, Note_on_c, 6, 78, 127
2, 23507, Note_on_c, 11, 70, 127
2, 23520, Note_off_c, 6, 78, 127
2, 23524, Note_on_c, 8, 80, 127
2, 23662, Note_off_c, 8, 80, 127
2, 23667, Note_on_c, 6, 78, 127
2, 23805, Note_off_c, 6, 78, 127
2, 23809, Note_on_c, 5, 77, 127
2, 23947, Note_off_c, 5, 77, 127
2, 23951, Note_on_c, 3, 75, 127
2, 24078, Note_off_c, 11, 70, 127
2, 24082, Note_off_c, 3, 63, 127
2, 24089, Note_off_c, 3, 75, 127
2, 24093, Note_on_c, 11, 70, 127
2, 24216, Note_off_c, 6, 66, 127
2, 24221, Note_on_c, 3, 75, 127
2, 24349, Note_on_c, 6, 78, 127
2, 24477, Note_on_c, 11, 82, 127
2, 24743, Note_on_c, 6, 66, 127
2, 24935, Note_off_c, 11, 70, 127
2, 24940, Note_off_c, 6, 66, 127
2, 24945, Note_on_c, 3, 63, 127
2, 24945, Note_on_c, 1, 73, 127
2, 25063, Note_off_c, 3, 75, 127
2, 25078, Note_on_c, 3, 75, 127
2, 25191, Note_off_c, 6, 78, 127
2, 25212, Note_on_c, 6, 78, 127
2, 25319, Note_off_c, 11, 82, 127
2, 25345, Note_on_c, 11, 82, 127
2, 25581, Note_off_c, 3, 63, 127
2, 25585, Note_on_c, 0, 60, 127
2, 25787, Note_off_c, 1, 73, 127
2, 25794, Note_off_c, 0, 60, 127
2, 25798, Note_on_c, 10, 57, 127
2, 25798, Note_on_c, 0, 72, 127
2, 25809, Note_off_c, 3, 75, 127
2, 25832, Note_off_c, 6, 78, 127
2, 25854, Note_off_c, 11, 82, 127
2, 25931, Note_on_c, 3, 75, 127
2, 26064, Note_on_c, 6, 78, 127
2, 26197, Note_on_c, 0, 84, 127
2, 26640, Note_off_c, 0, 72, 127
2, 26644, Note_off_c, 10, 57, 127
2, 26650, Note_on_c, 10, 57, 127
2, 26773, Note_off_c, 3, 75, 127
2, 26795, Note_on_c, 0, 60, 127
2, 26906, Note_off_c, 6, 78, 127
2, 26939, Note_on_c, 5, 65, 127
2, 27039, Note_off_c, 0, 84, 127
2, 27123, Note_on_c, 5, 77, 127
2, 27238, Note_off_c, 5, 77, 127
2, 27250, Note_on_c, 3, 75, 127
2, 27365, Note_off_c, 3, 75, 127
2, 27376, Note_on_c, 1, 73, 127
2, 27491, Note_off_c, 1, 73, 127
2, 27492, Note_off_c, 10, 57, 127
2, 27503, Note_on_c, 0, 72, 127
2, 27503, Note_on_c, 10, 57, 127
2, 27626, Note_off_c, 0, 60, 127
2, 27636, Note_on_c, 0, 60, 127
2, 27641, Note_off_c, 0, 72, 127
2, 27645, Note_on_c, 1, 73, 127
2, 27750, Note_off_c, 5, 65, 127
2, 27769, Note_on_c, 5, 65, 127
2, 27783, Note_off_c, 1, 73, 127
2, 27787, Note_on_c, 0, 72, 127
2, 27925, Note_off_c, 0, 72, 127
2, 27929, Note_on_c, 1, 73, 127
2, 28067, Note_off_c, 1, 73, 127
2, 28071, Note_on_c, 3, 75, 127
2, 28209, Note_off_c, 3, 75, 127
2, 28213, Note_on_c, 0, 72, 127
2, 28345, Note_off_c, 10, 57, 127
2, 28351, Note_off_c, 0, 72, 127
2, 28355, Note_on_c, 3, 75, 127
2, 28355, Note_on_c, 11, 58, 127
2, 28478, Note_off_c, 0, 60, 127
2, 28488, Note_on_c, 1, 61, 127
2, 28493, Note_off_c, 3, 75, 127
2, 28497, Note_on_c, 1, 73, 127
2, 28611, Note_off_c, 5, 65, 127
2, 28622, Note_on_c, 5, 65, 127
2, 28635, Note_off_c, 1, 73, 127
2, 28639, Note_on_c, 3, 75, 127
2, 28777, Note_off_c, 3, 75, 127
2, 28781, Note_on_c, 1, 73, 127
2, 28919, Note_off_c, 1, 73, 127
2, 28924, Note_on_c, 0, 72, 127
2, 29062, Note_off_c, 0, 72, 127
2, 29066, Note_on_c, 11, 70, 127
2, 29197, Note_off_c, 11, 58, 127
2, 29204, Note_off_c, 11, 70, 127
2, 29208, Note_on_c, 1, 73, 127
2, 29208, Note_on_c, 11, 58, 127
2, 29314, Note_on_c, 3, 75, 127
2, 29330, Note_off_c, 1, 61, 127
2, 29341, Note_on_c, 1, 61, 127
2, 29417, Note_off_c, 3, 75, 127
2, 29421, Note_on_c, 5, 77, 127
2, 29464, Note_off_c, 5, 65, 127
2, 29474, Note_on_c, 5, 65, 127
2, 29607, Note_on_c, 11, 70, 127
2, 29734, Note_off_c, 1, 73, 127
2, 29737, Note_off_c, 5, 77, 127
2, 29777, Note_on_c, 6, 78, 127
2, 29880, Note_off_c, 6, 78, 127
2, 29889, Note_on_c, 5, 77, 127
2, 29992, Note_off_c, 5, 77, 127
2, 30001, Note_on_c, 3, 75, 127
2, 30050, Note_off_c, 11, 58, 127
2, 30104, Note_off_c, 3, 75, 127
2, 30113, Note_on_c, 1, 73, 127
2, 30113, Note_on_c, 11, 58, 127
2, 30183, Note_off_c, 1, 61, 127
2, 30216, Note_off_c, 1, 73, 127
2, 30220, Note_on_c, 0, 72, 127
2, 30247, Note_on_c, 1, 61, 127
2, 30306, Note_off_c, 11, 70, 127
2, 30316, Note_off_c, 5, 65, 127
2, 30323, Note_off_c, 0, 72, 127
2, 30327, Note_on_c, 11, 70, 127
2, 30380, Note_on_c, 5, 65, 127
2, 30430, Note_off_c, 11, 70, 127
2, 30433, Note_on_c, 8, 68, 127
2, 30536, Note_off_c, 8, 68, 127
2, 30540, Note_on_c, 6, 66, 127
2, 30749, Note_off_c, 6, 66, 127
2, 30753, Note_on_c, 8, 68, 127
2, 30843, Note_off_c, 5, 65, 127
2, 30856, Note_off_c, 8, 68, 127
2, 30859, Note_on_c, 5, 65, 127
2, 30955, Note_off_c, 11, 58, 127
2, 30966, Note_on_c, 6, 66, 127
2, 30966, Note_on_c, 3, 51, 127
2, 30968, Note_off_c, 5, 65, 127
2, 31089, Note_off_c, 1, 61, 127
2, 31109, Note_on_c, 11, 58, 127
2, 31252, Note_on_c, 1, 61, 127
2, 31602, Note_off_c, 6, 66, 127
2, 31605, Note_on_c, 11, 70, 127
2, 31719, Note_off_c, 11, 70, 127
2, 31730, Note_on_c, 1, 73, 127
2, 31808, Note_off_c, 3, 51, 127
2, 31844, Note_off_c, 1, 73, 127
2, 31854, Note_on_c, 6, 78, 127
2, 31854, Note_on_c, 3, 51, 127
2, 31941, Note_off_c, 11, 58, 127
2, 31987, Note_on_c, 11, 58, 127
2, 32074, Note_off_c, 1, 61, 127
2, 32120, Note_on_c, 0, 60, 127
2, 32353, Note_on_c, 5, 77, 127
2, 32356, Note_off_c, 6, 78, 127
2, 32467, Note_off_c, 5, 77, 127
2, 32471, Note_on_c, 3, 75, 127
2, 32585, Note_off_c, 3, 75, 127
2, 32589, Note_on_c, 1, 73, 127
2, 32696, Note_off_c, 3, 51, 127
2, 32703, Note_off_c, 1, 73, 127
2, 32706, Note_on_c, 0, 72, 127
2, 32706, Note_on_c, 3, 51, 127
2, 32829, Note_off_c, 11, 58, 127
2, 32840, Note_on_c, 11, 58, 127
2, 32915, Note_off_c, 0, 72, 127
2, 32920, Note_on_c, 3, 75, 127
2, 32962, Note_off_c, 0, 60, 127
2, 32973, Note_on_c, 0, 60, 127
2, 33034, Note_off_c, 3, 75, 127
2, 33036, Note_on_c, 1, 73, 127
2, 33150, Note_off_c, 1, 73, 127
2, 33153, Note_on_c, 0, 72, 127
2, 33267, Note_off_c, 0, 72, 127
2, 33269, Note_on_c, 1, 73, 127
2, 33383, Note_off_c, 1, 73, 127
2, 33397, Note_on_c, 3, 75, 127
2, 33548, Note_off_c, 3, 51, 127
2, 33551, Note_off_c, 3, 75, 127
2, 33559, Note_on_c, 5, 65, 127
2, 33559, Note_on_c, 3, 51, 127
2, 33682, Note_off_c, 11, 58, 127
2, 33692, Note_on_c, 10, 57, 127
2, 33768, Note_off_c, 5, 65, 127
2, 33772, Note_on_c, 7, 67, 127
2, 33815, Note_off_c, 0, 60, 127
2, 33825, Note_on_c, 0, 60, 127
2, 33875, Note_off_c, 7, 67, 127
2, 33879, Note_on_c, 10, 69, 127
2, 33995, Note_on_c, 11, 70, 127
2, 33996, Note_off_c, 10, 69, 127
2, 34112, Note_off_c, 11, 70, 127
2, 34112, Note_on_c, 10, 69, 127
2, 34228, Note_on_c, 7, 67, 127
2, 34229, Note_off_c, 10, 69, 127
2, 34345, Note_off_c, 7, 67, 127
2, 34345, Note_on_c, 10, 69, 127
2, 34401, Note_off_c, 3, 51, 127
2, 34411, Note_on_c, 1, 49, 127
2, 34467, Note_off_c, 10, 69, 127
2, 34518, Note_on_c, 5, 53, 127
2, 34534, Note_off_c, 10, 57, 127
2, 34624, Note_on_c, 11, 58, 127
2, 34667, Note_off_c, 0, 60, 127
2, 34710, Note_on_c, 11, 70, 127
2, 35157, Note_on_c, 5, 65, 127
2, 35253, Note_off_c, 1, 49, 127
2, 35360, Note_off_c, 5, 53, 127
2, 35366, Note_off_c, 5, 65, 127
2, 35370, Note_on_c, 6, 66, 127
2, 35370, Note_on_c, 3, 51, 127
2, 35466, Note_off_c, 11, 58, 127
2, 35530, Note_on_c, 11, 58, 127
2, 36006, Note_off_c, 6, 66, 127
2, 36010, Note_on_c, 3, 63, 127
2, 36212, Note_off_c, 3, 51, 127
2, 36219, Note_off_c, 3, 63, 127
2, 36223, Note_on_c, 1, 61, 127
2, 36223, Note_on_c, 5, 53, 127
2, 36305, Note_off_c, 11, 58, 127
2, 36432, Note_off_c, 1, 61, 127
2, 36436, Note_on_c, 0, 60, 127
2, 36929, Note_off_c, 0, 60, 127
2, 36933, Note_on_c, 1, 61, 127
2, 37065, Note_off_c, 5, 53, 127
2, 37071, Note_off_c, 1, 61, 127
2, 37075, Note_on_c, 0, 60, 127
2, 37075, Note_on_c, 5, 41, 127
2, 37209, Note_on_c, 5, 53, 127
2, 37213, Note_off_c, 0, 60, 127
2, 37217, Note_on_c, 1, 61, 127
2, 37355, Note_off_c, 1, 61, 127
2, 37360, Note_on_c, 3, 63, 127
2, 37498, Note_off_c, 3, 63, 127
2, 37502, Note_on_c, 1, 61, 127
2, 37640, Note_off_c, 1, 61, 127
2, 37644, Note_on_c, 3, 63, 127
2, 37705, Note_off_c, 11, 70, 127
2, 37782, Note_off_c, 3, 63, 127
2, 37786, Note_on_c, 5, 65, 127
2, 37917, Note_off_c, 5, 41, 127
2, 37924, Note_off_c, 5, 65, 127
2, 37928, Note_on_c, 0, 60, 127
2, 37928, Note_on_c, 10, 69, 127
2, 37928, Note_on_c, 6, 66, 127
2, 37928, Note_on_c, 5, 41, 127
2, 38051, Note_off_c, 5, 53, 127
2, 38061, Note_on_c, 5, 53, 127
2, 38066, Note_off_c, 6, 66, 127
2, 38070, Note_on_c, 5, 65, 127
2, 38208, Note_off_c, 5, 65, 127
2, 38212, Note_on_c, 6, 66, 127
2, 38350, Note_off_c, 6, 66, 127
2, 38354, Note_on_c, 5, 65, 127
2, 38563, Note_off_c, 5, 65, 127
2, 38620, Note_on_c, 3, 63, 127
2, 38770, Note_off_c, 5, 41, 127
2, 38778, Note_off_c, 10, 69, 127
2, 38778, Note_off_c, 0, 60, 127
2, 38829, Note_off_c, 3, 63, 127
2, 38834, Note_on_c, 11, 70, 127
2, 38834, Note_on_c, 1, 61, 127
2, 38834, Note_on_c, 11, 46, 127
2, 38903, Note_off_c, 5, 53, 127
2, 38967, Note_on_c, 5, 53, 127
2, 39100, Note_on_c, 11, 58, 127
2, 39470, Note_off_c, 1, 61, 127
2, 39470, Note_off_c, 11, 70, 127
2, 39676, Note_off_c, 11, 46, 127
2, 39686, Note_on_c, 0, 72, 127
2, 39686, Note_on_c, 3, 63, 127
2, 39698, Note_off_c, 5, 53, 127
2, 39720, Note_off_c, 11, 58, 127
2, 39895, Note_off_c, 3, 63, 127
2, 39895, Note_off_c, 0, 72, 127
2, 39899, Note_on_c, 5, 65, 127
2, 40032, Note_on_c, 11, 70, 127
2, 40166, Note_on_c, 1, 73, 127
2, 40539, Note_on_c, 11, 46, 127
2, 40741, Note_off_c, 5, 65, 127
2, 40748, Note_off_c, 11, 46, 127
2, 40752, Note_on_c, 1, 49, 127
2, 40752, Note_on_c, 5, 65, 127
2, 40874, Note_off_c, 11, 70, 127
2, 40885, Note_on_c, 11, 70, 127
2, 41008, Note_off_c, 1, 73, 127
2, 41018, Note_on_c, 1, 73, 127
2, 41388, Note_off_c, 1, 49, 127
2, 41391, Note_on_c, 5, 53, 127
2, 41594, Note_off_c, 5, 65, 127
2, 41600, Note_off_c, 5, 53, 127
2, 41604, Note_on_c, 7, 43, 127
2, 41604, Note_on_c, 4, 64, 127
2, 41727, Note_off_c, 11, 70, 127
2, 41737, Note_on_c, 11, 70, 127
2, 41860, Note_off_c, 1, 73, 127
2, 41871, Note_on_c, 1, 73, 127
2, 42244, Note_on_c, 0, 72, 127
2, 42330, Note_off_c, 11, 70, 127
2, 42347, Note_off_c, 0, 72, 127
2, 42350, Note_on_c, 11, 70, 127
2, 42446, Note_off_c, 4, 64, 127
2, 42453, Note_off_c, 11, 70, 127
2, 42457, Note_on_c, 11, 70, 127
2, 42490, Note_off_c, 7, 43, 127
2, 42588, Note_off_c, 1, 73, 127
2, 42590, Note_on_c, 1, 73, 127
2, 42723, Note_on_c, 4, 76, 127
2, 43043, Note_on_c, 11, 46, 127
2, 43146, Note_off_c, 11, 46, 127
2, 43149, Note_on_c, 8, 44, 127
2, 43252, Note_off_c, 8, 44, 127
2, 43256, Note_on_c, 7, 43, 127
2, 43359, Note_off_c, 7, 43, 127
2, 43362, Note_on_c, 1, 49, 127
2, 43942, Note_off_c, 4, 76, 127
2, 44002, Note_on_c, 3, 75, 127
2, 44037, Note_off_c, 1, 73, 127
2, 44105, Note_off_c, 3, 75, 127
2, 44108, Note_on_c, 1, 73, 127
2, 44136, Note_off_c, 11, 70, 127
2, 44211, Note_off_c, 1, 73, 127
2, 44215, Note_on_c, 11, 70, 127
2, 44348, Note_on_c, 1, 73, 127
2, 44359, Note_off_c, 1, 49, 127
2, 44481, Note_on_c, 7, 79, 127
2, 44854, Note_on_c, 12, 47, 127
2, 44957, Note_off_c, 12, 47, 127
2, 44961, Note_on_c, 11, 46, 127
2, 45064, Note_off_c, 11, 46, 127
2, 45067, Note_on_c, 4, 52, 127
2, 45276, Note_off_c, 4, 52, 127
2, 45280, Note_on_c, 3, 51, 127
2, 45489, Note_off_c, 3, 51, 127
2, 45494, Note_on_c, 4, 52, 127
2, 45700, Note_off_c, 7, 79, 127
2, 45703, Note_off_c, 4, 52, 127
2, 45707, Note_on_c, 1, 49, 127
2, 45707, Note_on_c, 5, 77, 127
2, 45810, Note_off_c, 5, 77, 127
2, 45813, Note_on_c, 3, 75, 127
2, 45894, Note_off_c, 11, 70, 127
2, 45896, Note_off_c, 1, 73, 127
2, 45916, Note_off_c, 3, 75, 127
2, 45916, Note_off_c, 1, 49, 127
2, 45920, Note_on_c, 12, 47, 127
2, 45920, Note_on_c, 12, 71, 127
2, 46023, Note_off_c, 12, 47, 127
2, 46026, Note_on_c, 11, 46, 127
2, 46053, Note_on_c, 3, 75, 127
2, 46129, Note_off_c, 11, 46, 127
2, 46133, Note_on_c, 8, 44, 127
2, 46186, Note_on_c, 8, 80, 127
2, 46236, Note_off_c, 8, 44, 127
2, 46240, Note_on_c, 11, 46, 127
2, 46343, Note_off_c, 11, 46, 127
2, 46346, Note_on_c, 12, 47, 127
2, 46449, Note_off_c, 12, 47, 127
2, 46453, Note_on_c, 8, 44, 127
2, 46556, Note_off_c, 8, 44, 127
2, 46559, Note_on_c, 11, 46, 127
2, 46662, Note_off_c, 11, 46, 127
2, 46666, Note_on_c, 12, 47, 127
2, 46769, Note_off_c, 12, 47, 127
2, 46772, Note_on_c, 4, 40, 127
2, 46985, Note_on_c, 7, 79, 127
2, 47026, Note_off_c, 8, 80, 127
2, 47120, Note_off_c, 12, 71, 127
2, 47153, Note_off_c, 3, 75, 127
2, 47194, Note_off_c, 7, 79, 127
2, 47199, Note_on_c, 8, 80, 127
2, 47302, Note_off_c, 8, 80, 127
2, 47305, Note_on_c, 4, 52, 127
2, 47408, Note_off_c, 4, 52, 127
2, 47409, Note_off_c, 4, 40, 127
2, 47412, Note_on_c, 11, 82, 127
2, 47412, Note_on_c, 3, 51, 127
2, 47515, Note_off_c, 3, 51, 127
2, 47515, Note_off_c, 11, 82, 127
2, 47518, Note_on_c, 1, 49, 127
2, 47621, Note_off_c, 1, 49, 127
2, 47625, Note_on_c, 3, 51, 127
2, 47625, Note_on_c, 3, 75, 127
2, 47758, Note_on_c, 7, 79, 127
2, 47891, Note_on_c, 12, 83, 127
2, 47994, Note_off_c, 12, 83, 127
2, 48051, Note_on_c, 11, 82, 127
2, 48154, Note_off_c, 11, 82, 127
2, 48158, Note_on_c, 12, 83, 127
2, 48261, Note_off_c, 12, 83, 127
2, 48262, Note_off_c, 3, 51, 127
2, 48264, Note_on_c, 11, 82, 127
2, 48264, Note_on_c, 1, 49, 127
2, 48367, Note_off_c, 11, 82, 127
2, 48371, Note_on_c, 12, 83, 127
2, 48467, Note_off_c, 3, 75, 127
2, 48473, Note_off_c, 1, 49, 127
2, 48474, Note_off_c, 12, 83, 127
2, 48477, Note_on_c, 11, 82, 127
2, 48477, Note_on_c, 3, 51, 127
2, 48477, Note_on_c, 1, 73, 127
2, 48580, Note_off_c, 11, 82, 127
2, 48584, Note_on_c, 12, 83, 127
2, 48600, Note_off_c, 7, 79, 127
2, 48687, Note_off_c, 12, 83, 127
2, 48690, Note_on_c, 11, 82, 127
2, 49112, Note_off_c, 11, 82, 127
2, 49114, Note_off_c, 3, 51, 127
2, 49117, Note_on_c, 8, 80, 127
2, 49117, Note_on_c, 3, 39, 127
2, 49319, Note_off_c, 1, 73, 127
2, 49326, Note_off_c, 3, 39, 127
2, 49330, Note_on_c, 8, 44, 127
2, 49330, Note_on_c, 12, 71, 127
2, 49463, Note_on_c, 3, 75, 127
2, 49515, Note_off_c, 8, 80, 127
2, 49596, Note_on_c, 8, 80, 127
2, 49966, Note_off_c, 8, 44, 127
2, 50172, Note_off_c, 12, 71, 127
2, 50289, Note_on_c, 12, 83, 127
2, 50305, Note_off_c, 3, 75, 127
2, 50438, Note_off_c, 8, 80, 127
2, 50498, Note_off_c, 12, 83, 127
2, 50502, Note_on_c, 5, 77, 127
2, 51138, Note_off_c, 5, 77, 127
2, 51141, Note_on_c, 6, 78, 127
2, 51141, Note_on_c, 12, 59, 127
2, 51244, Note_off_c, 6, 78, 127
2, 51248, Note_on_c, 8, 80, 127
2, 51299, Note_off_c, 12, 59, 127
2, 51351, Note_off_c, 8, 80, 127
2, 51354, Note_on_c, 2, 74, 127
2, 51354, Note_on_c, 5, 53, 127
2, 51990, Note_off_c, 5, 53, 127
2, 51990, Note_off_c, 2, 74, 127
2, 51994, Note_on_c, 3, 75, 127
2, 51994, Note_on_c, 6, 54, 127
2, 52097, Note_off_c, 6, 54, 127
2, 52097, Note_off_c, 3, 75, 127
2, 52100, Note_on_c, 5, 77, 127
2, 52100, Note_on_c, 8, 56, 127
2, 52203, Note_off_c, 8, 56, 127
2, 52203, Note_off_c, 5, 77, 127
2, 52207, Note_on_c, 11, 70, 127
2, 52207, Note_on_c, 2, 50, 127
2, 52843, Note_off_c, 2, 50, 127
2, 52843, Note_off_c, 11, 70, 127
2, 52846, Note_on_c, 3, 51, 127
2, 52846, Note_on_c, 8, 80, 127
2, 52949, Note_off_c, 3, 51, 127
2, 52953, Note_on_c, 5, 53, 127
2, 53004, Note_off_c, 8, 80, 127
2, 53056, Note_off_c, 5, 53, 127
2, 53059, Note_on_c, 2, 74, 127
2, 53059, Note_on_c, 11, 46, 127
2, 53695, Note_off_c, 11, 46, 127
2, 53695, Note_off_c, 2, 74, 127
2, 53699, Note_on_c, 3, 75, 127
2, 53699, Note_on_c, 8, 56, 127
2, 53802, Note_off_c, 3, 75, 127
2, 53805, Note_on_c, 5, 77, 127
2, 53857, Note_off_c, 8, 56, 127
2, 53908, Note_off_c, 5, 77, 127
2, 53912, Note_on_c, 2, 50, 127
2, 53912, Note_on_c, 11, 70, 127
2, 54548, Note_off_c, 11, 70, 127
2, 54548, Note_off_c, 2, 50, 127
2, 54551, Note_on_c, 0, 72, 127
2, 54551, Note_on_c, 3, 51, 127
2, 54654, Note_off_c, 3, 51, 127
2, 54654, Note_off_c, 0, 72, 127
2, 54658, Note_on_c, 2, 74, 127
2, 54658, Note_on_c, 5, 53, 127
2, 54761, Note_off_c, 5, 53, 127
2, 54761, Note_off_c, 2, 74, 127
2, 54764, Note_on_c, 6, 42, 127
2, 54764, Note_on_c, 3, 75, 127
2, 55400, Note_off_c, 3, 75, 127
2, 55404, Note_on_c, 1, 73, 127
2, 55507, Note_off_c, 1, 73, 127
2, 55510, Note_on_c, 12, 71, 127
2, 55613, Note_off_c, 12, 71, 127
2, 55614, Note_off_c, 6, 42, 127
2, 55617, Note_on_c, 7, 43, 127
2, 55617, Note_on_c, 1, 73, 127
2, 56253, Note_off_c, 7, 43, 127
2, 56256, Note_on_c, 11, 58, 127
2, 56465, Note_off_c, 11, 58, 127
2, 56469, Note_on_c, 3, 63, 127
2, 56469, Note_on_c, 7, 55, 127
2, 56602, Note_on_c, 11, 70, 127
2, 56616, Note_off_c, 1, 73, 127
2, 56736, Note_on_c, 1, 73, 127
2, 57105, Note_off_c, 7, 55, 127
2, 57109, Note_on_c, 3, 51, 127
2, 57311, Note_off_c, 3, 63, 127
2, 57318, Note_off_c, 3, 51, 127
2, 57322, Note_on_c, 3, 63, 127
2, 57322, Note_on_c, 8, 44, 127
2, 57444, Note_off_c, 11, 70, 127
2, 57455, Note_on_c, 11, 70, 127
2, 57578, Note_off_c, 1, 73, 127
2, 57588, Note_on_c, 1, 73, 127
2, 57924, Note_off_c, 1, 73, 127
2, 57961, Note_on_c, 12, 71, 127
2, 58063, Note_off_c, 11, 70, 127
2, 58064, Note_off_c, 12, 71, 127
2, 58068, Note_on_c, 11, 70, 127
2, 58171, Note_off_c, 11, 70, 127
2, 58174, Note_on_c, 8, 68, 127
2, 58281, Note_on_c, 11, 70, 127
2, 58319, Note_off_c, 8, 44, 127
2, 58387, Note_on_c, 12, 71, 127
2, 58413, Note_off_c, 11, 70, 127
2, 58811, Note_off_c, 8, 68, 127
2, 58867, Note_on_c, 12, 59, 127
2, 59011, Note_off_c, 3, 63, 127
2, 59076, Note_off_c, 12, 59, 127
2, 59080, Note_on_c, 3, 63, 127
2, 59080, Note_on_c, 8, 56, 127
2, 59213, Note_on_c, 8, 68, 127
2, 59324, Note_off_c, 12, 71, 127
2, 59346, Note_on_c, 12, 71, 127
2, 59716, Note_off_c, 8, 56, 127
2, 59719, Note_on_c, 5, 53, 127
2, 59922, Note_off_c, 3, 63, 127
2, 59928, Note_off_c, 5, 53, 127
2, 59932, Note_on_c, 2, 50, 127
2, 60039, Note_on_c, 5, 53, 127
2, 60055, Note_off_c, 8, 68, 127
2, 60146, Note_on_c, 8, 56, 127
2, 60252, Note_on_c, 5, 65, 127
2, 60327, Note_off_c, 12, 71, 127
2, 60359, Note_on_c, 8, 68, 127
2, 60465, Note_on_c, 12, 71, 127
2, 60569, Note_off_c, 12, 71, 127
2, 60572, Note_on_c, 11, 70, 127
2, 60668, Note_off_c, 8, 68, 127
2, 60675, Note_off_c, 11, 70, 127
2, 60678, Note_on_c, 8, 68, 127
2, 60774, Note_off_c, 2, 50, 127
2, 60781, Note_off_c, 8, 68, 127
2, 60785, Note_on_c, 2, 50, 127
2, 60785, Note_on_c, 8, 68, 127
2, 60881, Note_off_c, 5, 53, 127
2, 60918, Note_on_c, 5, 53, 127
2, 60988, Note_off_c, 8, 56, 127
2, 61051, Note_on_c, 11, 58, 127
2, 61094, Note_off_c, 5, 65, 127
2, 61101, Note_off_c, 8, 68, 127
2, 61105, Note_on_c, 5, 77, 127
2, 61421, Note_off_c, 5, 77, 127
2, 61424, Note_on_c, 12, 71, 127
2, 61627, Note_off_c, 2, 50, 127
2, 61633, Note_off_c, 12, 71, 127
2, 61637, Note_on_c, 2, 50, 127
2, 61637, Note_on_c, 12, 71, 127
2, 61760, Note_off_c, 5, 53, 127
2, 61771, Note_on_c, 5, 53, 127
2, 61775, Note_off_c, 12, 71, 127
2, 61780, Note_on_c, 11, 70, 127
2, 61893, Note_off_c, 11, 58, 127
2, 61904, Note_on_c, 11, 58, 127
2, 61918, Note_off_c, 11, 70, 127
2, 61922, Note_on_c, 12, 71, 127
2, 62060, Note_off_c, 12, 71, 127
2, 62064, Note_on_c, 11, 70, 127
2, 62202, Note_off_c, 11, 70, 127
2, 62206, Note_on_c, 12, 71, 127
2, 62344, Note_off_c, 12, 71, 127
2, 62348, Note_on_c, 8, 68, 127
2, 62478, Note_off_c, 2, 50, 127
2, 62486, Note_off_c, 8, 68, 127
2, 62490, Note_on_c, 3, 51, 127
2, 62524, Note_off_c, 5, 53, 127
2, 62596, Note_on_c, 6, 54, 127
2, 62675, Note_off_c, 11, 58, 127
2, 62703, Note_on_c, 11, 58, 127
2, 62810, Note_on_c, 3, 63, 127
2, 62916, Note_on_c, 6, 66, 127
2, 63020, Note_off_c, 6, 66, 127
2, 63023, Note_on_c, 5, 65, 127
2, 63127, Note_off_c, 5, 65, 127
2, 63129, Note_on_c, 6, 66, 127
2, 63233, Note_off_c, 6, 66, 127
2, 63236, Note_on_c, 5, 65, 127
2, 63332, Note_off_c, 3, 51, 127
2, 63340, Note_off_c, 5, 65, 127
2, 63342, Note_on_c, 6, 66, 127
2, 63396, Note_on_c, 3, 51, 127
2, 63438, Note_off_c, 6, 54, 127
2, 63502, Note_on_c, 6, 54, 127
2, 63545, Note_off_c, 11, 58, 127
2, 63652, Note_off_c, 3, 63, 127
2, 63662, Note_on_c, 11, 58, 127
2, 63718, Note_off_c, 6, 66, 127
2, 63795, Note_on_c, 3, 63, 127
2, 63898, Note_off_c, 3, 63, 127
2, 63902, Note_on_c, 5, 65, 127
2, 64005, Note_off_c, 5, 65, 127
2, 64008, Note_on_c, 6, 66, 127
2, 64111, Note_off_c, 6, 66, 127
2, 64115, Note_on_c, 8, 68, 127
2, 64218, Note_off_c, 8, 68, 127
2, 64222, Note_on_c, 11, 70, 127
2, 64325, Note_off_c, 11, 70, 127
2, 64328, Note_on_c, 0, 72, 127
2, 64431, Note_off_c, 0, 72, 127
2, 64435, Note_on_c, 2, 74, 127
2, 64460, Note_off_c, 3, 51, 127
2, 64538, Note_off_c, 2, 74, 127
2, 64541, Note_on_c, 3, 51, 127
2, 64541, Note_on_c, 3, 75, 127
2, 64566, Note_off_c, 6, 54, 127
2, 64644, Note_off_c, 3, 75, 127
2, 64648, Note_on_c, 5, 77, 127
2, 64674, Note_on_c, 6, 54, 127
2, 64726, Note_off_c, 11, 58, 127
2, 64751, Note_off_c, 5, 77, 127
2, 64754, Note_on_c, 6, 78, 127
2, 64808, Note_on_c, 11, 58, 127
2, 64857, Note_off_c, 6, 78, 127
2, 64861, Note_on_c, 8, 80, 127
2, 64964, Note_off_c, 8, 80, 127
2, 64967, Note_on_c, 6, 78, 127
2, 65070, Note_off_c, 6, 78, 127
2, 65074, Note_on_c, 5, 77, 127
2, 65177, Note_off_c, 5, 77, 127
2, 65181, Note_on_c, 6, 78, 127
2, 65284, Note_off_c, 6, 78, 127
2, 65287, Note_on_c, 3, 75, 127
2, 65383, Note_off_c, 6, 54, 127
2, 65383, Note_off_c, 3, 51, 127
2, 65384, Note_off_c, 11, 58, 127
2, 65390, Note_off_c, 3, 75, 127
2, 65394, Note_on_c, 8, 44, 127
2, 65500, Note_on_c, 12, 47, 127
2, 65607, Note_on_c, 4, 52, 127
2, 65713, Note_on_c, 8, 56, 127
2, 65820, Note_on_c, 4, 64, 127
2, 65926, Note_on_c, 8, 68, 127
2, 66033, Note_on_c, 12, 71, 127
2, 66140, Note_on_c, 4, 76, 127
2, 66453, Note_off_c, 12, 71, 127
2, 66459, Note_on_c, 12, 71, 127
2, 66562, Note_off_c, 12, 71, 127
2, 66566, Note_on_c, 10, 69, 127
2, 66667, Note_off_c, 8, 68, 127
2, 66669, Note_off_c, 10, 69, 127
2, 66672, Note_on_c, 8, 68, 127
2, 66776, Note_off_c, 4, 76, 127
2, 67302, Note_off_c, 12, 47, 127
2, 67302, Note_off_c, 8, 44, 127
2, 67304, Note_off_c, 8, 56, 127
2, 67304, Note_off_c, 4, 52, 127
2, 67306, Note_off_c, 4, 64, 127
2, 67308, Note_off_c, 8, 68, 127
2, 67312, Note_on_c, 10, 69, 127
2, 67415, Note_off_c, 10, 69, 127
2, 67418, Note_on_c, 12, 71, 127
2, 67521, Note_off_c, 12, 71, 127
2, 67525, Note_on_c, 4, 64, 127
2, 68161, Note_off_c, 4, 64, 127
2, 68164, Note_on_c, 6, 66, 127
2, 68267, Note_off_c, 6, 66, 127
2, 68271, Note_on_c, 8, 68, 127
2, 68374, Note_off_c, 8, 68, 127
2, 68377, Note_on_c, 8, 44, 127
2, 68377, Note_on_c, 2, 62, 127
2, 68511, Note_on_c, 5, 53, 127
2, 68644, Note_on_c, 11, 58, 127
2, 69013, Note_off_c, 2, 62, 127
2, 69017, Note_on_c, 5, 65, 127
2, 69120, Note_off_c, 5, 65, 127
2, 69123, Note_on_c, 8, 68, 127
2, 69226, Note_off_c, 8, 68, 127
2, 69230, Note_on_c, 12, 71, 127
2, 69652, Note_off_c, 8, 44, 127
2, 69786, Note_off_c, 5, 53, 127
2, 69866, Note_off_c, 12, 71, 127
2, 69869, Note_on_c, 11, 70, 127
2, 69919, Note_off_c, 11, 58, 127
2, 69972, Note_off_c, 11, 70, 127
2, 69976, Note_on_c, 8, 68, 127
2, 70079, Note_off_c, 8, 68, 127
2, 70082, Note_on_c, 5, 77, 127
2, 70718, Note_off_c, 5, 77, 127
2, 70722, Note_on_c, 3, 75, 127
2, 70825, Note_off_c, 3, 75, 127
2, 70828, Note_on_c, 2, 74, 127
2, 70931, Note_off_c, 2, 74, 127
2, 70935, Note_on_c, 12, 83, 127
2, 71144, Note_off_c, 12, 83, 127
2, 71201, Note_on_c, 10, 81, 127
2, 71838, Note_off_c, 10, 81, 127
2, 71841, Note_on_c, 11, 82, 127
2, 72160, Note_on_c, 11, 46, 127
2, 72267, Note_on_c, 3, 51, 127
2, 72372, Note_off_c, 11, 82, 127
2, 72373, Note_on_c, 6, 54, 127
2, 72480, Note_on_c, 11, 58, 127
2, 72586, Note_on_c, 6, 66, 127
2, 72693, Note_on_c, 11, 70, 127
2, 72800, Note_on_c, 3, 75, 127
2, 73103, Note_off_c, 11, 46, 127
2, 73109, Note_off_c, 3, 51, 127
2, 73215, Note_off_c, 6, 54, 127
2, 73226, Note_on_c, 11, 46, 127
2, 73332, Note_on_c, 5, 53, 127
2, 73423, Note_off_c, 11, 58, 127
2, 73435, Note_off_c, 6, 66, 127
2, 73439, Note_on_c, 8, 56, 127
2, 73542, Note_off_c, 11, 70, 127
2, 73546, Note_on_c, 11, 58, 127
2, 73652, Note_on_c, 5, 65, 127
2, 73759, Note_on_c, 11, 70, 127
2, 73862, Note_off_c, 3, 75, 127
2, 73865, Note_on_c, 2, 74, 127
2, 73969, Note_off_c, 2, 74, 127
2, 73972, Note_on_c, 3, 75, 127
2, 74076, Note_off_c, 3, 75, 127
2, 74078, Note_on_c, 2, 74, 127
2, 74182, Note_off_c, 2, 74, 127
2, 74185, Note_on_c, 3, 75, 127
2, 74282, Note_off_c, 8, 56, 127
2, 74289, Note_off_c, 3, 75, 127
2, 74291, Note_on_c, 2, 74, 127
2, 74395, Note_off_c, 2, 74, 127
2, 74398, Note_on_c, 3, 75, 127
2, 74438, Note_off_c, 5, 53, 127
2, 74447, Note_off_c, 11, 46, 127
2, 74487, Note_on_c, 12, 47, 127
2, 74494, Note_off_c, 5, 65, 127
2, 74570, Note_off_c, 11, 58, 127
2, 74593, Note_on_c, 12, 59, 127
2, 74700, Note_on_c, 3, 63, 127
2, 74766, Note_off_c, 11, 70, 127
2, 74806, Note_on_c, 11, 70, 127
2, 74900, Note_off_c, 3, 75, 127
2, 74913, Note_on_c, 3, 75, 127
2, 75329, Note_off_c, 12, 47, 127
2, 75339, Note_on_c, 8, 68, 127
2, 75435, Note_off_c, 12, 59, 127
2, 75477, Note_off_c, 8, 68, 127
2, 75481, Note_on_c, 7, 67, 127
2, 75542, Note_off_c, 3, 63, 127
2, 75619, Note_off_c, 7, 67, 127
2, 75623, Note_on_c, 8, 68, 127
2, 75648, Note_off_c, 11, 70, 127
2, 75761, Note_off_c, 8, 68, 127
2, 75766, Note_on_c, 12, 59, 127
2, 75766, Note_on_c, 11, 70, 127
2, 75899, Note_on_c, 3, 63, 127
2, 75904, Note_off_c, 11, 70, 127
2, 75908, Note_on_c, 8, 68, 127
2, 76046, Note_off_c, 8, 68, 127
2, 76050, Note_on_c, 11, 70, 127
2, 76188, Note_off_c, 11, 70, 127
2, 76192, Note_on_c, 8, 68, 127
2, 76330, Note_off_c, 8, 68, 127
2, 76334, Note_on_c, 11, 70, 127
2, 76472, Note_off_c, 11, 70, 127
2, 76476, Note_on_c, 8, 68, 127
2, 76608, Note_off_c, 12, 59, 127
2, 76614, Note_off_c, 8, 68, 127
2, 76618, Note_on_c, 12, 59, 127
2, 76618, Note_on_c, 11, 70, 127
2, 76741, Note_off_c, 3, 63, 127
2, 76751, Note_on_c, 3, 63, 127
2, 76756, Note_off_c, 11, 70, 127
2, 76760, Note_on_c, 8, 68, 127
2, 76898, Note_off_c, 8, 68, 127
2, 76902, Note_on_c, 11, 70, 127
2, 77040, Note_off_c, 11, 70, 127
2, 77044, Note_on_c, 8, 68, 127
2, 77182, Note_off_c, 8, 68, 127
2, 77186, Note_on_c, 7, 67, 127
2, 77324, Note_off_c, 7, 67, 127
2, 77328, Note_on_c, 8, 68, 127
2, 77460, Note_off_c, 12, 59, 127
2, 77464, Note_off_c, 3, 75, 127
2, 77466, Note_off_c, 8, 68, 127
2, 77470, Note_on_c, 7, 55, 127
2, 77470, Note_on_c, 11, 70, 127
2, 77593, Note_off_c, 3, 63, 127
2, 77604, Note_on_c, 11, 58, 127
2, 77737, Note_on_c, 3, 63, 127
2, 77892, Note_off_c, 11, 70, 127
2, 77897, Note_on_c, 3, 75, 127
2, 78312, Note_off_c, 7, 55, 127
2, 78323, Note_on_c, 7, 55, 127
2, 78446, Note_off_c, 11, 58, 127
2, 78456, Note_on_c, 11, 58, 127
2, 78579, Note_off_c, 3, 63, 127
2, 78589, Note_on_c, 3, 63, 127
2, 78852, Note_off_c, 3, 75, 127
2, 78856, Note_on_c, 3, 75, 127
2, 78978, Note_off_c, 3, 75, 127
2, 78993, Note_on_c, 1, 73, 127
2, 79118, Note_off_c, 1, 73, 127
2, 79135, Note_on_c, 12, 71, 127
2, 79157, Note_off_c, 7, 55, 127
2, 79175, Note_on_c, 7, 55, 127
2, 79259, Note_off_c, 11, 58, 127
2, 79282, Note_on_c, 11, 58, 127
2, 79286, Note_off_c, 12, 71, 127
2, 79359, Note_off_c, 3, 63, 127
2, 79367, Note_on_c, 3, 63, 127
2, 79424, Note_on_c, 1, 73, 127
2, 79901, Note_off_c, 1, 73, 127
2, 79921, Note_on_c, 11, 70, 127
2, 79983, Note_off_c, 11, 58, 127
2, 80017, Note_off_c, 7, 55, 127
2, 80028, Note_on_c, 8, 56, 127
2, 80130, Note_off_c, 11, 70, 127
2, 80134, Note_on_c, 12, 59, 127
2, 80156, Note_off_c, 3, 63, 127
2, 80241, Note_on_c, 3, 63, 127
2, 80348, Note_on_c, 8, 68, 127
2, 80454, Note_on_c, 12, 71, 127
2, 80870, Note_off_c, 8, 56, 127
2, 80976, Note_off_c, 12, 59, 127
2, 81040, Note_on_c, 4, 52, 127
2, 81401, Note_off_c, 12, 71, 127
2, 81516, Note_off_c, 3, 63, 127
2, 81520, Note_on_c, 3, 63, 127
2, 81520, Note_on_c, 12, 71, 127
2, 81623, Note_off_c, 12, 71, 127
2, 81623, Note_off_c, 3, 63, 127
2, 81623, Note_off_c, 8, 68, 127
2, 81626, Note_on_c, 1, 61, 127
2, 81626, Note_on_c, 11, 70, 127
2, 81729, Note_off_c, 11, 70, 127
2, 81729, Note_off_c, 1, 61, 127
2, 81733, Note_on_c, 12, 59, 127
2, 81733, Note_on_c, 8, 68, 127
2, 81815, Note_off_c, 4, 52, 127
2, 81836, Note_off_c, 8, 68, 127
2, 81836, Note_off_c, 12, 59, 127
2, 81839, Note_on_c, 1, 61, 127
2, 81839, Note_on_c, 11, 70, 127
2, 81839, Note_on_c, 4, 52, 127
2, 82475, Note_off_c, 11, 70, 127
2, 82475, Note_off_c, 1, 61, 127
2, 82479, Note_on_c, 7, 67, 127
2, 82479, Note_on_c, 11, 58, 127
2, 82681, Note_off_c, 4, 52, 127
2, 82688, Note_off_c, 11, 58, 127
2, 82688, Note_off_c, 7, 67, 127
2, 82692, Note_on_c, 5, 53, 127
2, 82692, Note_on_c, 12, 59, 127
2, 82825, Note_on_c, 2, 62, 127
2, 82958, Note_on_c, 8, 68, 127
2, 83534, Note_off_c, 12, 59, 127
2, 83544, Note_on_c, 12, 59, 127
2, 83667, Note_off_c, 2, 62, 127
2, 83678, Note_on_c, 2, 62, 127
2, 83800, Note_off_c, 8, 68, 127
2, 83811, Note_on_c, 8, 68, 127
2, 84073, Note_off_c, 5, 53, 127
2, 84077, Note_on_c, 6, 54, 127
2, 84180, Note_off_c, 6, 54, 127
2, 84184, Note_on_c, 5, 53, 127
2, 84287, Note_off_c, 5, 53, 127
2, 84290, Note_on_c, 3, 51, 127
2, 84386, Note_off_c, 12, 59, 127
2, 84393, Note_off_c, 3, 51, 127
2, 84397, Note_on_c, 5, 53, 127
2, 84397, Note_on_c, 12, 59, 127
2, 84520, Note_off_c, 2, 62, 127
2, 84530, Note_on_c, 2, 62, 127
2, 84653, Note_off_c, 8, 68, 127
2, 84663, Note_on_c, 8, 68, 127
2, 84713, Note_off_c, 5, 53, 127
2, 84717, Note_on_c, 6, 54, 127
2, 84820, Note_off_c, 6, 54, 127
2, 84823, Note_on_c, 8, 56, 127
2, 84926, Note_off_c, 8, 56, 127
2, 84930, Note_on_c, 5, 53, 127
2, 85033, Note_off_c, 5, 53, 127
2, 85036, Note_on_c, 6, 54, 127
2, 85139, Note_off_c, 6, 54, 127
2, 85143, Note_on_c, 8, 56, 127
2, 85239, Note_off_c, 12, 59, 127
2, 85246, Note_off_c, 8, 56, 127
2, 85249, Note_on_c, 2, 50, 127
2, 85249, Note_on_c, 12, 59, 127
2, 85372, Note_off_c, 2, 62, 127
2, 85383, Note_on_c, 5, 65, 127
2, 85505, Note_off_c, 8, 68, 127
2, 85516, Note_on_c, 8, 68, 127
2, 86091, Note_off_c, 12, 59, 127
2, 86102, Note_on_c, 12, 59, 127
2, 86225, Note_off_c, 5, 65, 127
2, 86235, Note_on_c, 5, 65, 127
2, 86358, Note_off_c, 8, 68, 127
2, 86368, Note_on_c, 8, 68, 127
2, 86630, Note_off_c, 2, 50, 127
2, 86635, Note_on_c, 3, 51, 127
2, 86738, Note_off_c, 3, 51, 127
2, 86741, Note_on_c, 2, 50, 127
2, 86844, Note_off_c, 2, 50, 127
2, 86848, Note_on_c, 0, 48, 127
2, 86944, Note_off_c, 12, 59, 127
2, 86951, Note_off_c, 0, 48, 127
2, 86954, Note_on_c, 2, 50, 127
2, 86954, Note_on_c, 12, 59, 127
2, 87077, Note_off_c, 5, 65, 127
2, 87088, Note_on_c, 5, 65, 127
2, 87210, Note_off_c, 8, 68, 127
2, 87221, Note_on_c, 8, 68, 127
2, 87270, Note_off_c, 2, 50, 127
2, 87327, Note_on_c, 3, 51, 127
2, 87430, Note_off_c, 3, 51, 127
2, 87434, Note_on_c, 5, 53, 127
2, 87537, Note_off_c, 5, 53, 127
2, 87540, Note_on_c, 2, 50, 127
2, 87643, Note_off_c, 2, 50, 127
2, 87647, Note_on_c, 3, 51, 127
2, 87750, Note_off_c, 3, 51, 127
2, 87754, Note_on_c, 5, 53, 127
2, 87796, Note_off_c, 12, 59, 127
2, 87857, Note_off_c, 5, 53, 127
2, 87860, Note_on_c, 2, 62, 127
2, 87860, Note_on_c, 12, 47, 127
2, 87930, Note_off_c, 5, 65, 127
2, 87993, Note_on_c, 5, 65, 127
2, 88063, Note_off_c, 8, 68, 127
2, 88126, Note_on_c, 8, 68, 127
2, 88702, Note_off_c, 2, 62, 127
2, 88713, Note_on_c, 2, 62, 127
2, 88835, Note_off_c, 5, 65, 127
2, 88846, Note_on_c, 5, 65, 127
2, 88968, Note_off_c, 8, 68, 127
2, 88979, Note_on_c, 8, 68, 127
2, 89241, Note_off_c, 12, 47, 127
2, 89299, Note_on_c, 1, 49, 127
2, 89402, Note_off_c, 1, 49, 127
2, 89405, Note_on_c, 12, 47, 127
2, 89508, Note_off_c, 12, 47, 127
2, 89512, Note_on_c, 11, 46, 127
2, 89555, Note_off_c, 2, 62, 127
2, 89615, Note_off_c, 11, 46, 127
2, 89618, Note_on_c, 12, 47, 127
2, 89618, Note_on_c, 2, 62, 127
2, 89688, Note_off_c, 5, 65, 127
2, 89721, Note_off_c, 12, 47, 127
2, 89725, Note_on_c, 11, 46, 127
2, 89752, Note_on_c, 5, 65, 127
2, 89821, Note_off_c, 8, 68, 127
2, 89828, Note_off_c, 11, 46, 127
2, 89831, Note_on_c, 8, 44, 127
2, 89885, Note_on_c, 8, 68, 127
2, 89934, Note_off_c, 8, 44, 127
2, 89938, Note_on_c, 11, 46, 127
2, 90041, Note_off_c, 11, 46, 127
2, 90045, Note_on_c, 12, 47, 127
2, 90148, Note_off_c, 12, 47, 127
2, 90151, Note_on_c, 8, 44, 127
2, 90254, Note_off_c, 8, 44, 127
2, 90258, Note_on_c, 11, 46, 127
2, 90361, Note_off_c, 11, 46, 127
2, 90364, Note_on_c, 12, 47, 127
2, 90460, Note_off_c, 2, 62, 127
2, 90467, Note_off_c, 12, 47, 127
2, 90471, Note_on_c, 2, 38, 127
2, 90594, Note_off_c, 5, 65, 127
2, 90604, Note_on_c, 2, 62, 127
2, 90727, Note_off_c, 8, 68, 127
2, 90737, Note_on_c, 5, 65, 127
2, 90870, Note_on_c, 8, 68, 127
2, 91030, Note_on_c, 12, 71, 127
2, 91426, Note_off_c, 2, 38, 127
2, 91823, Note_off_c, 2, 62, 127
2, 91829, Note_off_c, 8, 68, 127
2, 91829, Note_off_c, 5, 65, 127
2, 92094, Note_off_c, 12, 71, 127
2, 92094, Note_on_c, 11, 70, 127
2, 92207, Note_off_c, 11, 70, 127
2, 92210, Note_on_c, 8, 68, 127
2, 92323, Note_off_c, 8, 68, 127
2, 92327, Note_on_c, 6, 66, 127
2, 92440, Note_off_c, 6, 66, 127
2, 92443, Note_on_c, 5, 65, 127
2, 92556, Note_off_c, 5, 65, 127
2, 92560, Note_on_c, 3, 63, 127
2, 92673, Note_off_c, 3, 63, 127
2, 92676, Note_on_c, 2, 62, 127
2, 92789, Note_off_c, 2, 62, 127
2, 92793, Note_on_c, 5, 65, 127
2, 92906, Note_off_c, 5, 65, 127
2, 92909, Note_on_c, 8, 68, 127
2, 93022, Note_off_c, 8, 68, 127
2, 93026, Note_on_c, 12, 71, 127
2, 93139, Note_off_c, 12, 71, 127
2, 93143, Note_on_c, 2, 74, 127
2, 93256, Note_off_c, 2, 74, 127
2, 93259, Note_on_c, 5, 77, 127
2, 93372, Note_off_c, 5, 77, 127
2, 93376, Note_on_c, 8, 80, 127
2, 93489, Note_off_c, 8, 80, 127
2, 93492, Note_on_c, 12, 83, 127
2, 93605, Note_off_c, 12, 83, 127
2, 93609, Note_on_c, 11, 82, 127
2, 93722, Note_off_c, 11, 82, 127
2, 93725, Note_on_c, 2, 74, 127
2, 93838, Note_off_c, 2, 74, 127
2, 93842, Note_on_c, 3, 75, 127
2, 94012, Note_off_c, 3, 75, 127
2, 94014, Note_on_c, 2, 74, 127
2, 94184, Note_off_c, 2, 74, 127
2, 94186, Note_on_c, 3, 75, 127
2, 94717, Note_off_c, 3, 75, 127
2, 94832, Note_on_c, 3, 39, 127
2, 94832, Note_on_c, 3, 51, 127
2, 94832, Note_on_c, 11, 70, 127
2, 94832, Note_on_c, 6, 66, 127
2, 95041, Note_off_c, 6, 66, 127
2, 95041, Note_off_c, 11, 70, 127
2, 95041, Note_off_c, 3, 51, 127
2, 95041, Note_off_c, 3, 39, 127
2, 95063, Note_on_c, 11, 46, 127
2, 95063, Note_on_c, 3, 63, 127
2, 95063, Note_on_c, 8, 68, 127
2, 95196, Note_on_c, 3, 51, 127
2, 95329, Note_on_c, 6, 54, 127
2, 95485, Note_off_c, 8, 68, 127
2, 95485, Note_off_c, 3, 63, 127
2, 95489, Note_on_c, 6, 66, 127
2, 95905, Note_off_c, 11, 46, 127
2, 95911, Note_off_c, 6, 66, 127
2, 95995, Note_on_c, 11, 46, 127
2, 95995, Note_on_c, 6, 66, 127
2, 95995, Note_on_c, 2, 62, 127
2, 96038, Note_off_c, 3, 51, 127
2, 96128, Note_on_c, 5, 53, 127
2, 96133, Note_off_c, 6, 66, 127
2, 96137, Note_on_c, 5, 65, 127
2, 96171, Note_off_c, 6, 54, 127
2, 96262, Note_on_c, 8, 56, 127
2, 96275, Note_off_c, 5, 65, 127
2, 96279, Note_on_c, 6, 66, 127
2, 96417, Note_off_c, 6, 66, 127
2, 96417, Note_off_c, 2, 62, 127
2, 96421, Note_on_c, 5, 65, 127
2, 96559, Note_off_c, 5, 65, 127
2, 96564, Note_on_c, 3, 63, 127
2, 96702, Note_off_c, 3, 63, 127
2, 96706, Note_on_c, 5, 65, 127
2, 96836, Note_off_c, 11, 46, 127
2, 96837, Note_off_c, 5, 53, 127
2, 96838, Note_off_c, 8, 56, 127
2, 96844, Note_off_c, 5, 65, 127
2, 96848, Note_on_c, 3, 51, 127
2, 96954, Note_on_c, 7, 55, 127
2, 97061, Note_on_c, 11, 58, 127
2, 97167, Note_on_c, 1, 61, 127
2, 97274, Note_on_c, 3, 63, 127
2, 97690, Note_off_c, 3, 51, 127
2, 97796, Note_off_c, 7, 55, 127
2, 97887, Note_on_c, 3, 51, 127
2, 97903, Note_off_c, 11, 58, 127
2, 98009, Note_off_c, 1, 61, 127
2, 98020, Note_on_c, 7, 55, 127
2, 98153, Note_on_c, 11, 58, 127
2, 98320, Note_on_c, 1, 61, 127
2, 98338, Note_off_c, 3, 63, 127
2, 98481, Note_on_c, 5, 65, 127
2, 98591, Note_off_c, 5, 65, 127
2, 98603, Note_on_c, 7, 67, 127
2, 98713, Note_off_c, 7, 67, 127
2, 98724, Note_on_c, 8, 68, 127
2, 98729, Note_off_c, 3, 51, 127
2, 98834, Note_off_c, 8, 68, 127
2, 98846, Note_on_c, 3, 51, 127
2, 98846, Note_on_c, 11, 70, 127
2, 98862, Note_off_c, 7, 55, 127
2, 98979, Note_on_c, 7, 55, 127
2, 98995, Note_off_c, 11, 58, 127
2, 99112, Note_on_c, 11, 58, 127
2, 99162, Note_off_c, 1, 61, 127
2, 99278, Note_on_c, 1, 61, 127
2, 99375, Note_off_c, 11, 70, 127
2, 99414, Note_on_c, 4, 64, 127
2, 99524, Note_off_c, 4, 64, 127
2, 99526, Note_on_c, 3, 63, 127
2, 99608, Note_off_c, 1, 61, 127
2, 99636, Note_off_c, 3, 63, 127
2, 99639, Note_on_c, 1, 61, 127
2, 99688, Note_off_c, 3, 51, 127
2, 99749, Note_off_c, 1, 61, 127
2, 99751, Note_on_c, 1, 61, 127
2, 99751, Note_on_c, 3, 51, 127
2, 99821, Note_off_c, 7, 55, 127
2, 99915, Note_on_c, 8, 56, 127
2, 99954, Note_off_c, 11, 58, 127
2, 100173, Note_off_c, 1, 61, 127
2, 100178, Note_on_c, 12, 59, 127
2, 100593, Note_off_c, 3, 51, 127
2, 100604, Note_on_c, 3, 51, 127
2, 100728, Note_off_c, 8, 56, 127
2, 100765, Note_on_c, 8, 56, 127
2, 100920, Note_off_c, 12, 59, 127
2, 101080, Note_on_c, 3, 63, 127
2, 101183, Note_off_c, 3, 63, 127
2, 101188, Note_on_c, 5, 65, 127
2, 101291, Note_off_c, 5, 65, 127
2, 101296, Note_on_c, 7, 67, 127
2, 101399, Note_off_c, 7, 67, 127
2, 101403, Note_on_c, 8, 68, 127
2, 101502, Note_off_c, 3, 51, 127
2, 101506, Note_off_c, 8, 68, 127
2, 101510, Note_on_c, 11, 70, 127
2, 101613, Note_off_c, 11, 70, 127
2, 101616, Note_on_c, 3, 51, 127
2, 101616, Note_on_c, 12, 71, 127
2, 101662, Note_off_c, 8, 56, 127
2, 101719, Note_off_c, 12, 71, 127
2, 101723, Note_on_c, 11, 70, 127
2, 101749, Note_on_c, 8, 56, 127
2, 101826, Note_off_c, 11, 70, 127
2, 101829, Note_on_c, 8, 68, 127
2, 101932, Note_off_c, 8, 68, 127
2, 101936, Note_on_c, 6, 66, 127
2, 102039, Note_off_c, 6, 66, 127
2, 102043, Note_on_c, 5, 65, 127
2, 102146, Note_off_c, 5, 65, 127
2, 102149, Note_on_c, 6, 66, 127
2, 102252, Note_off_c, 6, 66, 127
2, 102256, Note_on_c, 8, 68, 127
2, 102359, Note_off_c, 8, 68, 127
2, 102362, Note_on_c, 5, 65, 127
2, 102458, Note_off_c, 3, 51, 127
2, 102465, Note_off_c, 5, 65, 127
2, 102469, Note_on_c, 3, 51, 127
2, 102469, Note_on_c, 2, 62, 127
2, 102591, Note_off_c, 8, 56, 127
2, 102602, Note_on_c, 5, 53, 127
2, 103105, Note_off_c, 2, 62, 127
2, 103161, Note_on_c, 12, 59, 127
2, 103264, Note_off_c, 12, 59, 127
2, 103268, Note_on_c, 11, 58, 127
2, 103355, Note_off_c, 3, 51, 127
2, 103371, Note_off_c, 11, 58, 127
2, 103375, Note_on_c, 12, 59, 127
2, 103375, Note_on_c, 3, 51, 127
2, 103488, Note_off_c, 5, 53, 127
2, 103519, Note_on_c, 5, 53, 127
2, 104011, Note_off_c, 12, 59, 127
2, 104067, Note_on_c, 8, 56, 127
2, 104261, Note_off_c, 3, 51, 127
2, 104276, Note_off_c, 8, 56, 127
2, 104280, Note_on_c, 3, 51, 127
2, 104405, Note_off_c, 5, 53, 127
2, 104460, Note_on_c, 5, 53, 127
2, 104973, Note_on_c, 2, 62, 127
2, 105166, Note_off_c, 3, 51, 127
2, 105177, Note_off_c, 5, 53, 127
2, 105182, Note_off_c, 2, 62, 127
2, 105186, Note_on_c, 3, 51, 127
2, 105308, Note_on_c, 7, 55, 127
2, 105430, Note_on_c, 11, 58, 127
2, 105552, Note_on_c, 3, 63, 127
2, 107670, Note_off_c, 3, 63, 127
2, 107681, Note_on_c, 3, 63, 127
2, 107713, Note_off_c, 3, 51, 127
2, 107721, Note_off_c, 11, 58, 127
2, 107734, Note_off_c, 7, 55, 127
2, 108055, Note_off_c, 3, 63, 127
2, 108182, Note_on_c, 11, 70, 127
2, 108926, Note_off_c, 11, 70, 127
2, 108932, Note_on_c, 12, 71, 127
2, 109177, Note_off_c, 12, 71, 127
2, 109183, Note_on_c, 11, 70, 127
2, 109428, Note_off_c, 11, 70, 127
2, 109434, Note_on_c, 8, 68, 127
2, 109679, Note_off_c, 8, 68, 127
2, 109685, Note_on_c, 6, 66, 127
2, 109930, Note_off_c, 6, 66, 127
2, 109936, Note_on_c, 8, 68, 127
2, 110181, Note_off_c, 8, 68, 127
2, 110187, Note_on_c, 11, 70, 127
2, 110615, Note_off_c, 11, 70, 127
2, 110687, Note_on_c, 3, 63, 127
2, 111115, Note_off_c, 3, 63, 127
2, 111188, Note_on_c, 8, 68, 127
2, 111932, Note_off_c, 8, 68, 127
2, 111938, Note_on_c, 6, 66, 127
2, 112146, Note_off_c, 6, 66, 127
2, 112189, Note_on_c, 5, 65, 127
2, 112670, Note_off_c, 5, 65, 127
2, 112689, Note_on_c, 11, 70, 127
2, 112689, Note_on_c, 3, 63, 127
2, 113063, Note_off_c, 11, 70, 127
2, 113189, Note_on_c, 3, 75, 127
2, 113434, Note_off_c, 3, 63, 127
2, 113440, Note_on_c, 5, 65, 127
2, 113685, Note_off_c, 5, 65, 127
2, 113691, Note_on_c, 6, 66, 127
2, 113936, Note_off_c, 3, 75, 127
2, 113942, Note_on_c, 6, 78, 127
2, 114187, Note_off_c, 6, 78, 127
2, 114187, Note_off_c, 6, 66, 127
2, 114193, Note_on_c, 5, 77, 127
2, 114193, Note_on_c, 8, 68, 127
2, 114438, Note_off_c, 5, 77, 127
2, 114443, Note_on_c, 3, 75, 127
2, 114688, Note_off_c, 3, 75, 127
2, 114689, Note_off_c, 8, 68, 127
2, 114694, Note_on_c, 1, 73, 127
2, 114694, Note_on_c, 11, 70, 127
2, 114939, Note_off_c, 1, 73, 127
2, 114945, Note_on_c, 3, 75, 127
2, 115190, Note_off_c, 3, 75, 127
2, 115196, Note_on_c, 5, 77, 127
2, 115441, Note_off_c, 11, 70, 127
2, 115447, Note_on_c, 8, 68, 127
2, 115638, Note_off_c, 5, 77, 127
2, 115692, Note_off_c, 8, 68, 127
2, 115698, Note_on_c, 11, 70, 127
2, 115698, Note_on_c, 6, 66, 127
2, 115943, Note_off_c, 6, 66, 127
2, 115949, Note_on_c, 5, 65, 127
2, 116140, Note_off_c, 11, 70, 127
2, 116194, Note_off_c, 5, 65, 127
2, 116199, Note_on_c, 3, 75, 127
2, 116199, Note_on_c, 6, 66, 127
2, 116444, Note_off_c, 6, 66, 127
2, 116450, Note_on_c, 5, 65, 127
2, 116569, Note_off_c, 5, 65, 127
2, 116576, Note_on_c, 3, 63, 127
2, 116695, Note_off_c, 3, 63, 127
2, 116701, Note_on_c, 5, 65, 127
2, 116946, Note_off_c, 5, 65, 127
2, 116946, Note_off_c, 3, 75, 127
2, 116952, Note_on_c, 1, 73, 127
2, 116952, Note_on_c, 11, 70, 127
2, 117171, Note_off_c, 1, 73, 127
2, 117202, Note_on_c, 0, 72, 127
2, 117447, Note_off_c, 11, 70, 127
2, 117453, Note_on_c, 10, 69, 127
2, 117697, Note_off_c, 0, 72, 127
2, 117699, Note_off_c, 10, 69, 127
2, 117704, Note_on_c, 11, 70, 127
2, 117953, Note_on_c, 0, 72, 127
2, 118198, Note_off_c, 0, 72, 127
2, 118204, Note_on_c, 1, 73, 127
2, 118451, Note_off_c, 11, 70, 127
2, 118455, Note_on_c, 8, 68, 127
2, 118700, Note_off_c, 8, 68, 127
2, 118706, Note_on_c, 7, 67, 127
2, 118951, Note_off_c, 7, 67, 127
2, 118957, Note_on_c, 3, 63, 127
2, 119202, Note_off_c, 3, 63, 127
2, 119208, Note_on_c, 8, 68, 127
2, 119452, Note_off_c, 1, 73, 127
2, 119458, Note_on_c, 12, 71, 127
2, 119703, Note_off_c, 12, 71, 127
2, 119709, Note_on_c, 11, 70, 127
2, 119955, Note_off_c, 8, 68, 127
2, 119960, Note_on_c, 6, 66, 127
2, 120205, Note_off_c, 6, 66, 127
2, 120205, Note_off_c, 11, 70, 127
2, 120211, Note_on_c, 3, 75, 127
2, 120211, Note_on_c, 5, 65, 127
2, 120456, Note_off_c, 5, 65, 127
2, 120462, Note_on_c, 3, 63, 127
2, 120707, Note_off_c, 3, 63, 127
2, 120713, Note_on_c, 5, 65, 127
2, 120958, Note_off_c, 3, 75, 127
2, 120964, Note_on_c, 2, 74, 127
2, 121209, Note_off_c, 2, 74, 127
2, 121209, Note_off_c, 5, 65, 127
2, 121214, Note_on_c, 3, 75, 127
2, 121214, Note_on_c, 6, 66, 127
2, 121459, Note_off_c, 6, 66, 127
2, 121459, Note_off_c, 3, 75, 127
2, 121465, Note_on_c, 5, 77, 127
2, 121465, Note_on_c, 8, 68, 127
2, 121710, Note_off_c, 8, 68, 127
2, 121710, Note_off_c, 5, 77, 127
2, 121716, Note_on_c, 6, 78, 127
2, 121716, Note_on_c, 11, 70, 127
2, 121716, Note_on_c, 3, 51, 127
2, 121961, Note_off_c, 11, 70, 127
2, 121967, Note_on_c, 0, 72, 127
2, 122091, Note_off_c, 3, 51, 127
2, 122212, Note_off_c, 0, 72, 127
2, 122212, Note_off_c, 6, 78, 127
2, 122218, Note_on_c, 5, 77, 127
2, 122218, Note_on_c, 2, 74, 127
2, 122218, Note_on_c, 11, 58, 127
2, 122463, Note_off_c, 2, 74, 127
2, 122463, Note_off_c, 5, 77, 127
2, 122469, Note_on_c, 6, 78, 127
2, 122469, Note_on_c, 3, 75, 127
2, 122714, Note_off_c, 3, 75, 127
2, 122714, Note_off_c, 6, 78, 127
2, 122720, Note_on_c, 8, 80, 127
2, 122720, Note_on_c, 5, 77, 127
2, 122965, Note_off_c, 5, 77, 127
2, 122965, Note_off_c, 8, 80, 127
2, 122965, Note_off_c, 11, 58, 127
2, 122970, Note_on_c, 5, 77, 127
2, 122970, Note_on_c, 2, 74, 127
2, 122970, Note_on_c, 12, 59, 127
2, 123215, Note_off_c, 12, 59, 127
2, 123215, Note_off_c, 2, 74, 127
2, 123215, Note_off_c, 5, 77, 127
2, 123221, Note_on_c, 6, 78, 127
2, 123221, Note_on_c, 3, 75, 127
2, 123221, Note_on_c, 11, 58, 127
2, 123466, Note_off_c, 11, 58, 127
2, 123466, Note_off_c, 3, 75, 127
2, 123466, Note_off_c, 6, 78, 127
2, 123472, Note_on_c, 8, 80, 127
2, 123472, Note_on_c, 5, 77, 127
2, 123472, Note_on_c, 8, 56, 127
2, 123717, Note_off_c, 8, 56, 127
2, 123717, Note_off_c, 5, 77, 127
2, 123717, Note_off_c, 8, 80, 127
2, 123723, Note_on_c, 11, 82, 127
2, 123723, Note_on_c, 6, 78, 127
2, 123723, Note_on_c, 6, 54, 127
2, 123968, Note_off_c, 6, 54, 127
2, 123968, Note_off_c, 6, 78, 127
2, 123968, Note_off_c, 11, 82, 127
2, 123974, Note_on_c, 8, 80, 127
2, 123974, Note_on_c, 5, 77, 127
2, 123974, Note_on_c, 8, 56, 127
2, 124219, Note_off_c, 8, 56, 127
2, 124219, Note_off_c, 5, 77, 127
2, 124219, Note_off_c, 8, 80, 127
2, 124225, Note_on_c, 6, 78, 127
2, 124225, Note_on_c, 3, 75, 127
2, 124225, Note_on_c, 11, 58, 127
2, 124470, Note_off_c, 3, 75, 127
2, 124470, Note_off_c, 6, 78, 127
2, 124476, Note_on_c, 5, 77, 127
2, 124476, Note_on_c, 2, 74, 127
2, 124667, Note_off_c, 11, 58, 127
2, 124721, Note_off_c, 2, 74, 127
2, 124721, Note_off_c, 5, 77, 127
2, 124726, Note_on_c, 6, 78, 127
2, 124726, Note_on_c, 3, 75, 127
2, 124726, Note_on_c, 3, 51, 127
2, 124971, Note_off_c, 3, 75, 127
2, 124977, Note_on_c, 1, 73, 127
2, 125168, Note_off_c, 3, 51, 127
2, 125222, Note_off_c, 1, 73, 127
2, 125222, Note_off_c, 6, 78, 127
2, 125228, Note_on_c, 5, 77, 127
2, 125228, Note_on_c, 12, 71, 127
2, 125228, Note_on_c, 8, 56, 127
2, 125473, Note_off_c, 5, 77, 127
2, 125479, Note_on_c, 3, 75, 127
2, 125724, Note_off_c, 3, 75, 127
2, 125724, Note_off_c, 12, 71, 127
2, 125730, Note_on_c, 2, 74, 127
2, 125730, Note_on_c, 11, 70, 127
2, 125975, Note_off_c, 2, 74, 127
2, 125975, Note_off_c, 8, 56, 127
2, 125981, Note_on_c, 3, 75, 127
2, 125981, Note_on_c, 6, 54, 127
2, 126195, Note_off_c, 6, 54, 127
2, 126226, Note_off_c, 11, 70, 127
2, 126232, Note_on_c, 8, 68, 127
2, 126232, Note_on_c, 5, 53, 127
2, 126477, Note_off_c, 3, 75, 127
2, 126483, Note_on_c, 2, 74, 127
2, 126720, Note_off_c, 5, 53, 127
2, 126728, Note_off_c, 2, 74, 127
2, 126728, Note_off_c, 8, 68, 127
2, 126733, Note_on_c, 3, 75, 127
2, 126733, Note_on_c, 6, 66, 127
2, 126733, Note_on_c, 3, 51, 127
2, 126980, Note_off_c, 3, 75, 127
2, 126986, Note_on_c, 1, 73, 127
2, 127233, Note_off_c, 1, 73, 127
2, 127233, Note_off_c, 3, 51, 127
2, 127233, Note_off_c, 6, 66, 127
2, 127240, Note_on_c, 12, 71, 127
2, 127240, Note_on_c, 8, 68, 127
2, 127240, Note_on_c, 3, 63, 127
2, 127487, Note_off_c, 8, 68, 127
2, 127493, Note_on_c, 6, 66, 127
2, 127740, Note_off_c, 6, 66, 127
2, 127740, Note_off_c, 3, 63, 127
2, 127746, Note_on_c, 5, 65, 127
2, 127746, Note_on_c, 2, 62, 127
2, 127993, Note_off_c, 12, 71, 127
2, 127999, Note_on_c, 11, 70, 127
2, 128119, Note_off_c, 11, 70, 127
2, 128125, Note_on_c, 8, 68, 127
2, 128245, Note_off_c, 8, 68, 127
2, 128246, Note_off_c, 2, 62, 127
2, 128252, Note_on_c, 11, 70, 127
2, 128252, Note_on_c, 1, 61, 127
2, 128499, Note_off_c, 11, 70, 127
2, 128499, Note_off_c, 5, 65, 127
2, 128505, Note_on_c, 12, 71, 127
2, 128505, Note_on_c, 3, 63, 127
2, 128625, Note_off_c, 3, 63, 127
2, 128625, Note_off_c, 12, 71, 127
2, 128631, Note_on_c, 1, 73, 127
2, 128631, Note_on_c, 5, 65, 127
2, 128751, Note_off_c, 5, 65, 127
2, 128751, Note_off_c, 1, 73, 127
2, 128752, Note_off_c, 1, 61, 127
2, 128758, Note_on_c, 3, 75, 127
2, 128758, Note_on_c, 6, 66, 127
2, 128758, Note_on_c, 0, 60, 127
2, 129005, Note_off_c, 6, 66, 127
2, 129005, Note_off_c, 3, 75, 127
2, 129011, Note_on_c, 5, 77, 127
2, 129011, Note_on_c, 8, 68, 127
2, 129131, Note_off_c, 8, 68, 127
2, 129131, Note_off_c, 5, 77, 127
2, 129138, Note_on_c, 6, 78, 127
2, 129138, Note_on_c, 11, 70, 127
2, 129258, Note_off_c, 11, 70, 127
2, 129258, Note_off_c, 6, 78, 127
2, 129258, Note_off_c, 0, 60, 127
2, 129264, Note_on_c, 5, 77, 127
2, 129264, Note_on_c, 8, 68, 127
2, 129264, Note_on_c, 12, 59, 127
2, 129511, Note_off_c, 8, 68, 127
2, 129512, Note_off_c, 5, 77, 127
2, 129517, Note_on_c, 3, 75, 127
2, 129517, Note_on_c, 6, 66, 127
2, 129637, Note_off_c, 6, 66, 127
2, 129644, Note_on_c, 8, 68, 127
2, 129764, Note_off_c, 8, 68, 127
2, 129764, Note_off_c, 12, 59, 127
2, 129765, Note_off_c, 3, 75, 127
2, 129770, Note_on_c, 2, 74, 127
2, 129770, Note_on_c, 11, 70, 127
2, 129770, Note_on_c, 11, 58, 127
2, 130017, Note_off_c, 11, 70, 127
2, 130023, Note_on_c, 8, 68, 127
2, 130023, Note_on_c, 11, 46, 127
2, 130148, Note_off_c, 11, 58, 127
2, 130232, Note_off_c, 11, 46, 127
2, 130270, Note_off_c, 8, 68, 127
2, 130270, Note_off_c, 2, 74, 127
2, 130276, Note_on_c, 3, 75, 127
2, 130276, Note_on_c, 6, 66, 127
2, 130276, Note_on_c, 3, 51, 127
2, 130523, Note_off_c, 6, 66, 127
2, 130523, Note_off_c, 3, 75, 127
2, 130530, Note_on_c, 1, 73, 127
2, 130530, Note_on_c, 5, 65, 127
2, 130777, Note_off_c, 5, 65, 127
2, 130777, Note_off_c, 1, 73, 127
2, 130783, Note_on_c, 12, 71, 127
2, 130783, Note_on_c, 3, 63, 127
2, 131029, Note_off_c, 3, 51, 127
2, 131030, Note_off_c, 12, 71, 127
2, 131036, Note_on_c, 11, 70, 127
2, 131036, Note_on_c, 6, 54, 127
2, 131283, Note_off_c, 6, 54, 127
2, 131283, Note_off_c, 11, 70, 127
2, 131283, Note_off_c, 3, 63, 127
2, 131289, Note_on_c, 8, 68, 127
2, 131289, Note_on_c, 2, 62, 127
2, 131289, Note_on_c, 5, 53, 127
2, 131536, Note_off_c, 5, 53, 127
2, 131536, Note_off_c, 2, 62, 127
2, 131536, Note_off_c, 8, 68, 127
2, 131542, Note_on_c, 6, 66, 127
2, 131542, Note_on_c, 3, 63, 127
2, 131542, Note_on_c, 3, 51, 127
2, 131789, Note_off_c, 3, 51, 127
2, 131789, Note_off_c, 6, 66, 127
2, 131795, Note_on_c, 5, 65, 127
2, 131795, Note_on_c, 2, 50, 127
2, 132042, Note_off_c, 2, 50, 127
2, 132042, Note_off_c, 5, 65, 127
2, 132042, Note_off_c, 3, 63, 127
2, 132048, Note_on_c, 6, 66, 127
2, 132048, Note_on_c, 3, 63, 127
2, 132048, Note_on_c, 3, 51, 127
2, 132295, Note_off_c, 3, 51, 127
2, 132295, Note_off_c, 3, 63, 127
2, 132295, Note_off_c, 6, 66, 127
2, 132301, Note_on_c, 8, 68, 127
2, 132301, Note_on_c, 2, 62, 127
2, 132301, Note_on_c, 5, 53, 127
2, 132548, Note_off_c, 2, 62, 127
2, 132554, Note_on_c, 0, 60, 127
2, 132747, Note_off_c, 5, 53, 127
2, 132801, Note_off_c, 0, 60, 127
2, 132807, Note_on_c, 2, 62, 127
2, 132807, Note_on_c, 11, 46, 127
2, 133054, Note_off_c, 8, 68, 127
2, 133060, Note_on_c, 6, 66, 127
2, 133180, Note_off_c, 6, 66, 127
2, 133187, Note_on_c, 5, 65, 127
2, 133254, Note_off_c, 11, 46, 127
2, 133308, Note_off_c, 2, 62, 127
2, 133309, Note_off_c, 5, 65, 127
2, 133315, Note_on_c, 6, 66, 127
2, 133315, Note_on_c, 3, 63, 127
2, 133315, Note_on_c, 3, 51, 127
2, 133562, Note_off_c, 3, 63, 127
2, 133562, Note_off_c, 6, 66, 127
2, 133568, Note_on_c, 8, 68, 127
2, 133568, Note_on_c, 5, 65, 127
2, 133815, Note_off_c, 5, 65, 127
2, 133815, Note_off_c, 8, 68, 127
2, 133821, Note_on_c, 11, 70, 127
2, 133821, Note_on_c, 6, 66, 127
2, 134068, Note_off_c, 3, 51, 127
2, 134074, Note_on_c, 1, 49, 127
2, 134301, Note_off_c, 1, 49, 127
2, 134321, Note_off_c, 6, 66, 127
2, 134321, Note_off_c, 11, 70, 127
2, 134327, Note_on_c, 12, 71, 127
2, 134327, Note_on_c, 8, 68, 127
2, 134327, Note_on_c, 12, 47, 127
2, 134574, Note_off_c, 8, 68, 127
2, 134574, Note_off_c, 12, 71, 127
2, 134580, Note_on_c, 1, 73, 127
2, 134580, Note_on_c, 6, 66, 127
2, 134700, Note_off_c, 1, 73, 127
2, 134707, Note_on_c, 3, 75, 127
2, 134827, Note_off_c, 3, 75, 127
2, 134827, Note_off_c, 6, 66, 127
2, 134833, Note_on_c, 8, 68, 127
2, 134833, Note_on_c, 5, 65, 127
2, 135080, Note_off_c, 5, 65, 127
2, 135086, Note_on_c, 1, 61, 127
2, 135332, Note_off_c, 8, 68, 127
2, 135333, Note_off_c, 1, 61, 127
2, 135333, Note_off_c, 12, 47, 127
2, 135339, Note_on_c, 6, 66, 127
2, 135339, Note_on_c, 11, 46, 127
2, 135592, Note_on_c, 11, 70, 127
2, 135839, Note_off_c, 11, 70, 127
2, 135839, Note_off_c, 11, 46, 127
2, 135845, Note_on_c, 12, 71, 127
2, 135845, Note_on_c, 8, 44, 127
2, 136092, Note_off_c, 8, 44, 127
2, 136092, Note_off_c, 12, 71, 127
2, 136098, Note_on_c, 1, 73, 127
2, 136098, Note_on_c, 11, 46, 127
2, 136345, Note_off_c, 11, 46, 127
2, 136345, Note_off_c, 1, 73, 127
2, 136345, Note_off_c, 6, 66, 127
2, 136352, Note_on_c, 3, 75, 127
2, 136352, Note_on_c, 5, 65, 127
2, 136352, Note_on_c, 12, 47, 127
2, 136599, Note_off_c, 12, 47, 127
2, 136599, Note_off_c, 3, 75, 127
2, 136605, Note_on_c, 5, 77, 127
2, 136605, Note_on_c, 1, 49, 127
2, 136852, Note_off_c, 1, 49, 127
2, 136852, Note_off_c, 5, 77, 127
2, 136858, Note_on_c, 6, 78, 127
2, 136858, Note_on_c, 3, 51, 127
2, 137105, Note_off_c, 3, 51, 127
2, 137105, Note_off_c, 6, 78, 127
2, 137107, Note_off_c, 5, 65, 127
2, 137110, Note_on_c, 8, 80, 127
2, 137110, Note_on_c, 5, 53, 127
2, 137357, Note_off_c, 5, 53, 127
2, 137357, Note_off_c, 8, 80, 127
2, 137363, Note_on_c, 11, 82, 127
2, 137363, Note_on_c, 3, 63, 127
2, 137363, Note_on_c, 6, 54, 127
2, 137610, Note_off_c, 6, 54, 127
2, 137610, Note_off_c, 11, 82, 127
2, 137616, Note_on_c, 12, 83, 127
2, 137616, Note_on_c, 8, 56, 127
2, 137863, Note_off_c, 8, 56, 127
2, 137863, Note_off_c, 3, 63, 127
2, 137869, Note_on_c, 1, 61, 127
2, 137869, Note_on_c, 11, 58, 127
2, 138116, Note_off_c, 11, 58, 127
2, 138116, Note_off_c, 1, 61, 127
2, 138116, Note_off_c, 12, 83, 127
2, 138122, Note_on_c, 1, 73, 127
2, 138122, Note_on_c, 5, 65, 127
2, 138122, Note_on_c, 8, 56, 127
2, 138369, Note_off_c, 8, 56, 127
2, 138369, Note_off_c, 5, 65, 127
2, 138369, Note_off_c, 1, 73, 127
2, 138375, Note_on_c, 6, 78, 127
2, 138375, Note_on_c, 6, 66, 127
2, 138375, Note_on_c, 11, 58, 127
2, 138622, Note_off_c, 11, 58, 127
2, 138622, Note_off_c, 6, 66, 127
2, 138628, Note_on_c, 8, 68, 127
2, 138628, Note_on_c, 12, 59, 127
2, 138875, Note_off_c, 12, 59, 127
2, 138875, Note_off_c, 8, 68, 127
2, 138881, Note_on_c, 11, 70, 127
2, 138881, Note_on_c, 1, 61, 127
2, 139128, Note_off_c, 11, 70, 127
2, 139134, Note_on_c, 12, 71, 127
2, 139381, Note_off_c, 12, 71, 127
2, 139381, Note_off_c, 1, 61, 127
2, 139381, Note_off_c, 6, 78, 127
2, 139387, Note_on_c, 5, 77, 127
2, 139387, Note_on_c, 1, 73, 127
2, 139387, Note_on_c, 1, 49, 127
2, 139634, Note_off_c, 1, 73, 127
2, 139640, Note_on_c, 12, 71, 127
2, 139887, Note_off_c, 12, 71, 127
2, 139887, Note_off_c, 1, 49, 127
2, 139894, Note_on_c, 11, 70, 127
2, 139894, Note_on_c, 6, 42, 127
2, 140141, Note_off_c, 11, 70, 127
2, 140147, Note_on_c, 8, 68, 127
2, 140393, Note_off_c, 5, 77, 127
2, 140394, Note_off_c, 8, 68, 127
2, 140394, Note_off_c, 6, 42, 127
2, 140400, Note_on_c, 3, 75, 127
2, 140400, Note_on_c, 6, 66, 127
2, 140400, Note_on_c, 6, 54, 127
2, 140647, Note_off_c, 6, 66, 127
2, 140647, Note_off_c, 3, 75, 127
2, 140653, Note_on_c, 1, 73, 127
2, 140653, Note_on_c, 5, 65, 127
2, 140900, Note_off_c, 5, 65, 127
2, 140900, Note_off_c, 1, 73, 127
2, 140906, Note_on_c, 0, 72, 127
2, 140906, Note_on_c, 3, 63, 127
2, 141153, Note_off_c, 3, 63, 127
2, 141153, Note_off_c, 0, 72, 127
2, 141153, Note_off_c, 6, 54, 127
2, 141159, Note_on_c, 2, 74, 127
2, 141159, Note_on_c, 5, 65, 127
2, 141159, Note_on_c, 5, 53, 127
2, 141406, Note_off_c, 5, 53, 127
2, 141406, Note_off_c, 5, 65, 127
2, 141406, Note_off_c, 2, 74, 127
2, 141412, Note_on_c, 3, 75, 127
2, 141412, Note_on_c, 6, 66, 127
2, 141412, Note_on_c, 3, 51, 127
2, 141659, Note_off_c, 3, 51, 127
2, 141659, Note_off_c, 6, 66, 127
2, 141659, Note_off_c, 3, 75, 127
2, 141665, Note_on_c, 5, 77, 127
2, 141665, Note_on_c, 11, 70, 127
2, 141665, Note_on_c, 1, 49, 127
2, 141912, Note_off_c, 1, 49, 127
2, 141912, Note_off_c, 11, 70, 127
2, 141912, Note_off_c, 5, 77, 127
2, 141918, Note_on_c, 6, 78, 127
2, 141918, Note_on_c, 3, 75, 127
2, 141918, Note_on_c, 0, 48, 127
2, 142165, Note_off_c, 0, 48, 127
2, 142165, Note_off_c, 3, 75, 127
2, 142171, Note_on_c, 1, 73, 127
2, 142171, Note_on_c, 11, 46, 127
2, 142418, Note_off_c, 11, 46, 127
2, 142418, Note_off_c, 1, 73, 127
2, 142418, Note_off_c, 6, 78, 127
2, 142424, Note_on_c, 5, 77, 127
2, 142424, Note_on_c, 0, 72, 127
2, 142424, Note_on_c, 10, 45, 127
2, 142671, Note_off_c, 10, 45, 127
2, 142671, Note_off_c, 5, 77, 127
2, 142677, Note_on_c, 3, 75, 127
2, 142677, Note_on_c, 5, 41, 127
2, 142924, Note_off_c, 5, 41, 127
2, 142924, Note_off_c, 3, 75, 127
2, 142930, Note_on_c, 1, 73, 127
2, 142930, Note_on_c, 11, 46, 127
2, 143177, Note_off_c, 11, 46, 127
2, 143177, Note_off_c, 1, 73, 127
2, 143184, Note_on_c, 3, 75, 127
2, 143184, Note_on_c, 0, 48, 127
2, 143430, Note_off_c, 0, 72, 127
2, 143431, Note_off_c, 0, 48, 127
2, 143431, Note_off_c, 3, 75, 127
2, 143437, Note_on_c, 5, 77, 127
2, 143437, Note_on_c, 11, 70, 127
2, 143437, Note_on_c, 1, 49, 127
2, 143684, Note_off_c, 1, 49, 127
2, 143684, Note_off_c, 5, 77, 127
2, 143690, Note_on_c, 6, 78, 127
2, 143690, Note_on_c, 3, 51, 127
2, 143937, Note_off_c, 3, 51, 127
2, 143937, Note_off_c, 6, 78, 127
2, 143943, Note_on_c, 1, 73, 127
2, 143943, Note_on_c, 5, 53, 127
2, 144190, Note_off_c, 5, 53, 127
2, 144196, Note_on_c, 3, 51, 127
2, 144443, Note_off_c, 3, 51, 127
2, 144443, Note_off_c, 1, 73, 127
2, 144443, Note_off_c, 11, 70, 127
2, 144449, Note_on_c, 1, 73, 127
2, 144449, Note_on_c, 10, 69, 127
2, 144449, Note_on_c, 5, 53, 127
2, 144533, Note_on_c, 0, 72, 127
2, 144540, Note_off_c, 1, 73, 127
2, 144618, Note_on_c, 1, 73, 127
2, 144624, Note_off_c, 0, 72, 127
2, 144702, Note_on_c, 0, 72, 127
2, 144702, Note_on_c, 5, 41, 127
2, 144709, Note_off_c, 1, 73, 127
2, 144934, Note_off_c, 10, 69, 127
2, 144948, Note_off_c, 5, 53, 127
2, 144949, Note_off_c, 5, 41, 127
2, 144950, Note_off_c, 0, 72, 127
2, 144955, Note_on_c, 11, 70, 127
2, 144955, Note_on_c, 11, 58, 127
2, 144955, Note_on_c, 11, 46, 127
2, 145205, Note_off_c, 11, 46, 127
2, 145212, Note_on_c, 10, 45, 127
2, 145337, Note_off_c, 11, 58, 127
2, 145462, Note_off_c, 10, 45, 127
2, 145468, Note_on_c, 5, 65, 127
2, 145468, Note_on_c, 11, 46, 127
2, 145718, Note_off_c, 11, 46, 127
2, 145724, Note_on_c, 0, 48, 127
2, 145974, Note_off_c, 0, 48, 127
2, 145975, Note_off_c, 11, 70, 127
2, 145981, Note_on_c, 11, 70, 127
2, 145981, Note_on_c, 1, 49, 127
2, 146231, Note_off_c, 1, 49, 127
2, 146232, Note_off_c, 5, 65, 127
2, 146237, Note_on_c, 6, 66, 127
2, 146237, Note_on_c, 0, 48, 127
2, 146363, Note_off_c, 11, 70, 127
2, 146487, Note_off_c, 0, 48, 127
2, 146487, Note_off_c, 6, 66, 127
2, 146494, Note_on_c, 5, 77, 127
2, 146494, Note_on_c, 5, 65, 127
2, 146494, Note_on_c, 1, 49, 127
2, 146744, Note_off_c, 1, 49, 127
2, 146744, Note_off_c, 5, 65, 127
2, 146750, Note_on_c, 3, 63, 127
2, 146750, Note_on_c, 3, 51, 127
2, 147000, Note_off_c, 3, 51, 127
2, 147000, Note_off_c, 3, 63, 127
2, 147006, Note_on_c, 1, 61, 127
2, 147006, Note_on_c, 5, 53, 127
2, 147256, Note_off_c, 5, 53, 127
2, 147256, Note_off_c, 1, 61, 127
2, 147257, Note_off_c, 5, 77, 127
2, 147263, Note_on_c, 6, 78, 127
2, 147263, Note_on_c, 3, 63, 127
2, 147263, Note_on_c, 3, 51, 127
2, 147513, Note_off_c, 3, 51, 127
2, 147513, Note_off_c, 3, 63, 127
2, 147513, Note_off_c, 6, 78, 127
2, 147519, Note_on_c, 5, 77, 127
2, 147519, Note_on_c, 5, 65, 127
2, 147519, Note_on_c, 1, 49, 127
2, 147769, Note_off_c, 1, 49, 127
2, 147769, Note_off_c, 5, 77, 127
2, 147776, Note_on_c, 3, 75, 127
2, 147776, Note_on_c, 3, 51, 127
2, 147898, Note_off_c, 3, 51, 127
2, 147903, Note_on_c, 5, 53, 127
2, 147970, Note_off_c, 5, 65, 127
2, 148025, Note_off_c, 5, 53, 127
2, 148025, Note_off_c, 3, 75, 127
2, 148031, Note_on_c, 1, 73, 127
2, 148031, Note_on_c, 11, 58, 127
2, 148031, Note_on_c, 6, 54, 127
2, 148153, Note_off_c, 6, 54, 127
2, 148159, Note_on_c, 5, 53, 127
2, 148280, Note_off_c, 1, 73, 127
2, 148281, Note_off_c, 5, 53, 127
2, 148286, Note_on_c, 3, 75, 127
2, 148286, Note_on_c, 6, 54, 127
2, 148481, Note_off_c, 11, 58, 127
2, 148535, Note_off_c, 6, 54, 127
2, 148535, Note_off_c, 3, 75, 127
2, 148542, Note_on_c, 5, 77, 127
2, 148542, Note_on_c, 10, 45, 127
2, 148797, Note_on_c, 3, 63, 127
2, 148992, Note_off_c, 5, 77, 127
2, 149047, Note_off_c, 10, 45, 127
2, 149052, Note_on_c, 11, 70, 127
2, 149052, Note_on_c, 11, 46, 127
2, 149303, Note_off_c, 3, 63, 127
2, 149309, Note_on_c, 1, 61, 127
2, 149526, Note_off_c, 1, 61, 127
2, 149559, Note_off_c, 11, 46, 127
2, 149565, Note_on_c, 0, 60, 127
2, 149565, Note_on_c, 0, 48, 127
2, 149811, Note_off_c, 11, 70, 127
2, 149820, Note_on_c, 3, 75, 127
2, 150062, Note_off_c, 0, 60, 127
2, 150070, Note_off_c, 0, 48, 127
2, 150076, Note_on_c, 11, 58, 127
2, 150076, Note_on_c, 1, 49, 127
2, 150326, Note_off_c, 1, 49, 127
2, 150326, Note_off_c, 3, 75, 127
2, 150332, Note_on_c, 1, 73, 127
2, 150332, Note_on_c, 11, 46, 127
2, 150562, Note_off_c, 1, 73, 127
2, 150582, Note_off_c, 11, 46, 127
2, 150588, Note_on_c, 0, 72, 127
2, 150588, Note_on_c, 5, 53, 127
2, 150838, Note_off_c, 5, 53, 127
2, 150839, Note_off_c, 11, 58, 127
2, 150845, Note_on_c, 8, 68, 127
2, 150845, Note_on_c, 3, 51, 127
2, 151095, Note_off_c, 3, 51, 127
2, 151095, Note_off_c, 0, 72, 127
2, 151101, Note_on_c, 11, 70, 127
2, 151101, Note_on_c, 2, 50, 127
2, 151351, Note_off_c, 2, 50, 127
2, 151352, Note_off_c, 8, 68, 127
2, 151358, Note_on_c, 6, 66, 127
2, 151358, Note_on_c, 3, 51, 127
2, 151608, Note_off_c, 6, 66, 127
2, 151614, Note_on_c, 5, 65, 127
2, 151864, Note_off_c, 11, 70, 127
2, 151865, Note_off_c, 3, 51, 127
2, 151870, Note_on_c, 8, 80, 127
2, 151870, Note_on_c, 2, 50, 127
2, 152120, Note_off_c, 2, 50, 127
2, 152121, Note_off_c, 5, 65, 127
2, 152127, Note_on_c, 3, 63, 127
2, 152127, Note_on_c, 3, 51, 127
2, 152377, Note_off_c, 3, 51, 127
2, 152377, Note_off_c, 8, 80, 127
2, 152383, Note_on_c, 6, 78, 127
2, 152383, Note_on_c, 0, 60, 127
2, 152633, Note_off_c, 0, 60, 127
2, 152633, Note_off_c, 6, 78, 127
2, 152640, Note_on_c, 5, 77, 127
2, 152640, Note_on_c, 10, 57, 127
2, 152890, Note_off_c, 10, 57, 127
2, 152890, Note_off_c, 3, 63, 127
2, 152896, Note_on_c, 1, 61, 127
2, 152896, Note_on_c, 11, 58, 127
2, 153146, Note_off_c, 11, 58, 127
2, 153146, Note_off_c, 1, 61, 127
2, 153152, Note_on_c, 11, 70, 127
2, 153152, Note_on_c, 6, 54, 127
2, 153274, Note_off_c, 5, 77, 127
2, 153280, Note_on_c, 3, 75, 127
2, 153401, Note_off_c, 6, 54, 127
2, 153401, Note_off_c, 11, 70, 127
2, 153402, Note_off_c, 3, 75, 127
2, 153408, Note_on_c, 5, 77, 127
2, 153408, Note_on_c, 10, 69, 127
2, 153408, Note_on_c, 5, 53, 127
2, 153530, Note_off_c, 5, 77, 127
2, 153535, Note_on_c, 6, 78, 127
2, 153657, Note_off_c, 6, 78, 127
2, 153657, Note_off_c, 5, 53, 127
2, 153657, Note_off_c, 10, 69, 127
2, 153663, Note_on_c, 5, 77, 127
2, 153663, Note_on_c, 11, 70, 127
2, 153663, Note_on_c, 6, 54, 127
2, 153727, Note_on_c, 3, 75, 127
2, 153741, Note_off_c, 5, 77, 127
2, 153791, Note_on_c, 5, 77, 127
2, 153804, Note_off_c, 3, 75, 127
2, 153854, Note_on_c, 3, 75, 127
2, 153868, Note_off_c, 5, 77, 127
2, 154043, Note_off_c, 3, 75, 127
2, 154045, Note_on_c, 5, 77, 127
2, 154166, Note_off_c, 6, 54, 127
2, 154166, Note_off_c, 11, 70, 127
2, 154167, Note_off_c, 5, 77, 127
2, 154173, Note_on_c, 5, 77, 127
2, 154173, Note_on_c, 10, 69, 127
2, 154173, Note_on_c, 5, 53, 127
2, 154554, Note_off_c, 5, 77, 127
2, 154650, Note_off_c, 5, 53, 127
2, 154678, Note_off_c, 10, 69, 127
2, 154683, Note_on_c, 11, 82, 127
2, 154683, Note_on_c, 11, 70, 127
2, 155194, Note_off_c, 11, 70, 127
2, 155200, Note_on_c, 3, 75, 127
2, 155200, Note_on_c, 6, 54, 127
2, 155453, Note_off_c, 11, 82, 127
2, 155459, Note_on_c, 12, 83, 127
2, 155629, Note_off_c, 6, 54, 127
2, 155712, Note_off_c, 12, 83, 127
2, 155718, Note_on_c, 11, 82, 127
2, 155718, Note_on_c, 12, 59, 127
2, 155970, Note_off_c, 3, 75, 127
2, 155971, Note_off_c, 11, 82, 127
2, 155976, Note_on_c, 8, 80, 127
2, 155976, Note_on_c, 5, 77, 127
2, 156229, Note_off_c, 5, 77, 127
2, 156229, Note_off_c, 8, 80, 127
2, 156235, Note_on_c, 7, 79, 127
2, 156235, Note_on_c, 3, 75, 127
2, 156488, Note_off_c, 7, 79, 127
2, 156488, Note_off_c, 12, 59, 127
2, 156494, Note_on_c, 8, 80, 127
2, 156494, Note_on_c, 1, 61, 127
2, 156747, Note_off_c, 1, 61, 127
2, 156747, Note_off_c, 8, 80, 127
2, 156752, Note_on_c, 11, 82, 127
2, 156752, Note_on_c, 12, 59, 127
2, 157005, Note_off_c, 12, 59, 127
2, 157005, Note_off_c, 3, 75, 127
2, 157011, Note_on_c, 1, 73, 127
2, 157011, Note_on_c, 11, 58, 127
2, 157208, Note_off_c, 11, 82, 127
2, 157264, Note_off_c, 11, 58, 127
2, 157264, Note_off_c, 1, 73, 127
2, 157269, Note_on_c, 3, 75, 127
2, 157269, Note_on_c, 0, 72, 127
2, 157269, Note_on_c, 8, 56, 127
2, 157522, Note_off_c, 8, 56, 127
2, 157528, Note_on_c, 7, 55, 127
2, 157725, Note_off_c, 3, 75, 127
2, 157781, Note_off_c, 7, 55, 127
2, 157787, Note_on_c, 8, 80, 127
2, 157787, Note_on_c, 8, 56, 127
2, 158039, Note_off_c, 0, 72, 127
2, 158040, Note_off_c, 8, 56, 127
2, 158045, Note_on_c, 1, 73, 127
2, 158045, Note_on_c, 11, 58, 127
2, 158298, Note_off_c, 11, 58, 127
2, 158298, Note_off_c, 1, 73, 127
2, 158304, Note_on_c, 3, 75, 127
2, 158304, Note_on_c, 0, 60, 127
2, 158557, Note_off_c, 8, 80, 127
2, 158563, Note_on_c, 6, 78, 127
2, 158815, Note_off_c, 0, 60, 127
2, 158815, Note_off_c, 3, 75, 127
2, 158816, Note_off_c, 6, 78, 127
2, 158821, Note_on_c, 5, 77, 127
2, 158821, Note_on_c, 8, 68, 127
2, 158821, Note_on_c, 1, 61, 127
2, 159074, Note_off_c, 1, 61, 127
2, 159080, Note_on_c, 12, 59, 127
2, 159332, Note_off_c, 8, 68, 127
2, 159333, Note_off_c, 12, 59, 127
2, 159339, Note_on_c, 1, 73, 127
2, 159339, Note_on_c, 11, 58, 127
2, 159592, Note_off_c, 11, 58, 127
2, 159597, Note_on_c, 8, 56, 127
2, 159849, Note_off_c, 5, 77, 127
2, 159850, Note_off_c, 8, 56, 127
2, 159856, Note_on_c, 3, 75, 127
2, 159856, Note_on_c, 7, 55, 127
2, 160109, Note_off_c, 7, 55, 127
2, 160114, Note_on_c, 3, 51, 127
2, 160367, Note_off_c, 3, 51, 127
2, 160367, Note_off_c, 1, 73, 127
2, 160373, Note_on_c, 0, 72, 127
2, 160373, Note_on_c, 8, 56, 127
2, 160626, Note_off_c, 8, 56, 127
2, 160632, Note_on_c, 11, 58, 127
2, 160770, Note_off_c, 3, 75, 127
2, 160885, Note_off_c, 11, 58, 127
2, 160890, Note_on_c, 8, 80, 127
2, 160890, Note_on_c, 8, 56, 127
2, 161143, Note_off_c, 8, 56, 127
2, 161149, Note_on_c, 6, 54, 127
2, 161401, Note_off_c, 0, 72, 127
2, 161402, Note_off_c, 6, 54, 127
2, 161408, Note_on_c, 8, 68, 127
2, 161408, Note_on_c, 5, 53, 127
2, 161660, Note_off_c, 8, 80, 127
2, 161661, Note_off_c, 5, 53, 127
2, 161666, Note_on_c, 11, 82, 127
2, 161666, Note_on_c, 6, 54, 127
2, 161864, Note_off_c, 8, 68, 127
2, 161919, Note_off_c, 6, 54, 127
2, 161919, Note_off_c, 11, 82, 127
2, 161925, Note_on_c, 8, 80, 127
2, 161925, Note_on_c, 1, 73, 127
2, 161925, Note_on_c, 5, 53, 127
2, 162178, Note_off_c, 5, 53, 127
2, 162178, Note_off_c, 8, 80, 127
2, 162183, Note_on_c, 6, 78, 127
2, 162183, Note_on_c, 3, 51, 127
2, 162436, Note_off_c, 3, 51, 127
2, 162436, Note_off_c, 6, 78, 127
2, 162442, Note_on_c, 5, 77, 127
2, 162442, Note_on_c, 1, 49, 127
2, 162695, Note_off_c, 1, 49, 127
2, 162695, Note_off_c, 5, 77, 127
2, 162695, Note_off_c, 1, 73, 127
2, 162701, Note_on_c, 6, 78, 127
2, 162701, Note_on_c, 3, 75, 127
2, 162701, Note_on_c, 12, 59, 127
2, 162954, Note_off_c, 12, 59, 127
2, 162954, Note_off_c, 3, 75, 127
2, 162954, Note_off_c, 6, 78, 127
2, 162959, Note_on_c, 8, 80, 127
2, 162959, Note_on_c, 1, 73, 127
2, 162959, Note_on_c, 11, 58, 127
2, 163212, Note_off_c, 11, 58, 127
2, 163212, Note_off_c, 1, 73, 127
2, 163218, Note_on_c, 12, 71, 127
2, 163218, Note_on_c, 8, 56, 127
2, 163470, Note_off_c, 8, 80, 127
2, 163471, Note_off_c, 8, 56, 127
2, 163471, Note_off_c, 12, 71, 127
2, 163477, Note_on_c, 1, 73, 127
2, 163477, Note_on_c, 11, 70, 127
2, 163477, Note_on_c, 6, 54, 127
2, 163730, Note_off_c, 6, 54, 127
2, 163730, Note_off_c, 11, 70, 127
2, 163735, Note_on_c, 12, 71, 127
2, 163735, Note_on_c, 8, 56, 127
2, 163863, Note_off_c, 1, 73, 127
2, 163988, Note_off_c, 8, 56, 127
2, 163988, Note_off_c, 12, 71, 127
2, 163994, Note_on_c, 6, 78, 127
2, 163994, Note_on_c, 1, 73, 127
2, 163994, Note_on_c, 6, 54, 127
2, 164247, Note_off_c, 6, 54, 127
2, 164252, Note_on_c, 4, 52, 127
2, 164450, Note_off_c, 1, 73, 127
2, 164505, Note_off_c, 4, 52, 127
2, 164511, Note_on_c, 6, 66, 127
2, 164511, Note_on_c, 3, 51, 127
2, 164764, Note_off_c, 3, 51, 127
2, 164764, Note_off_c, 6, 78, 127
2, 164770, Note_on_c, 4, 76, 127
2, 164770, Note_on_c, 1, 49, 127
2, 164967, Note_off_c, 6, 66, 127
2, 165023, Note_off_c, 1, 49, 127
2, 165023, Note_off_c, 4, 76, 127
2, 165028, Note_on_c, 3, 75, 127
2, 165028, Note_on_c, 12, 71, 127
2, 165028, Note_on_c, 12, 47, 127
2, 165281, Note_off_c, 12, 47, 127
2, 165287, Note_on_c, 8, 80, 127
2, 165287, Note_on_c, 8, 44, 127
2, 165538, Note_off_c, 3, 75, 127
2, 165540, Note_off_c, 8, 44, 127
2, 165546, Note_on_c, 1, 73, 127
2, 165546, Note_on_c, 11, 46, 127
2, 165797, Note_off_c, 8, 80, 127
2, 165798, Note_off_c, 12, 71, 127
2, 165799, Note_off_c, 11, 46, 127
2, 165804, Note_on_c, 6, 78, 127
2, 165804, Note_on_c, 11, 70, 127
2, 165804, Note_on_c, 6, 42, 127
2, 166034, Note_off_c, 11, 70, 127
2, 166056, Note_off_c, 1, 73, 127
2, 166057, Note_off_c, 6, 42, 127
2, 166063, Note_on_c, 8, 68, 127
2, 166063, Note_on_c, 1, 49, 127
2, 166315, Note_off_c, 6, 78, 127
2, 166316, Note_off_c, 1, 49, 127
2, 166322, Note_on_c, 5, 77, 127
2, 166322, Note_on_c, 1, 37, 127
2, 166574, Note_off_c, 8, 68, 127
2, 166575, Note_off_c, 1, 37, 127
2, 166575, Note_off_c, 5, 77, 127
2, 166580, Note_on_c, 6, 78, 127
2, 166580, Note_on_c, 6, 66, 127
2, 166580, Note_on_c, 6, 42, 127
2, 166833, Note_off_c, 6, 42, 127
2, 166833, Note_off_c, 6, 66, 127
2, 166839, Note_on_c, 5, 65, 127
2, 166839, Note_on_c, 8, 44, 127
2, 166952, Note_off_c, 6, 78, 127
2, 167092, Note_off_c, 8, 44, 127
2, 167092, Note_off_c, 5, 65, 127
2, 167097, Note_on_c, 1, 73, 127
2, 167097, Note_on_c, 6, 66, 127
2, 167097, Note_on_c, 11, 46, 127
2, 167350, Note_off_c, 11, 46, 127
2, 167350, Note_off_c, 6, 66, 127
2, 167356, Note_on_c, 8, 68, 127
2, 167356, Note_on_c, 8, 44, 127
2, 167609, Note_off_c, 8, 44, 127
2, 167609, Note_off_c, 8, 68, 127
2, 167615, Note_on_c, 11, 70, 127
2, 167615, Note_on_c, 6, 42, 127
2, 167867, Note_off_c, 1, 73, 127
2, 167868, Note_off_c, 6, 42, 127
2, 167868, Note_off_c, 11, 70, 127
2, 167873, Note_on_c, 0, 72, 127
2, 167873, Note_on_c, 8, 68, 127
2, 167873, Note_on_c, 6, 54, 127
2, 168126, Note_off_c, 6, 54, 127
2, 168126, Note_off_c, 8, 68, 127
2, 168126, Note_off_c, 0, 72, 127
2, 168132, Note_on_c, 1, 73, 127
2, 168132, Note_on_c, 11, 70, 127
2, 168132, Note_on_c, 5, 53, 127
2, 168385, Note_off_c, 5, 53, 127
2, 168385, Note_off_c, 11, 70, 127
2, 168385, Note_off_c, 1, 73, 127
2, 168391, Note_on_c, 3, 75, 127
2, 168391, Note_on_c, 0, 72, 127
2, 168391, Note_on_c, 3, 51, 127
2, 168644, Note_off_c, 3, 51, 127
2, 168644, Note_off_c, 0, 72, 127
2, 168644, Note_off_c, 3, 75, 127
2, 168649, Note_on_c, 5, 77, 127
2, 168649, Note_on_c, 1, 73, 127
2, 168649, Note_on_c, 1, 49, 127
2, 168902, Note_off_c, 1, 73, 127
2, 168902, Note_off_c, 5, 77, 127
2, 168908, Note_on_c, 3, 75, 127
2, 168908, Note_on_c, 12, 71, 127
2, 169119, Note_off_c, 1, 49, 127
2, 169162, Note_off_c, 3, 75, 127
2, 169168, Note_on_c, 1, 73, 127
2, 169168, Note_on_c, 6, 54, 127
2, 169420, Note_off_c, 12, 71, 127
2, 169426, Note_on_c, 11, 70, 127
2, 169679, Note_off_c, 11, 70, 127
2, 169679, Note_off_c, 1, 73, 127
2, 169685, Note_on_c, 8, 80, 127
2, 169685, Note_on_c, 12, 71, 127
2, 169938, Note_off_c, 12, 71, 127
2, 169943, Note_on_c, 11, 70, 127
2, 170141, Note_off_c, 8, 80, 127
2, 170196, Note_off_c, 11, 70, 127
2, 170196, Note_off_c, 6, 54, 127
2, 170202, Note_on_c, 1, 73, 127
2, 170202, Note_on_c, 8, 68, 127
2, 170202, Note_on_c, 5, 53, 127
2, 170455, Note_off_c, 8, 68, 127
2, 170461, Note_on_c, 12, 71, 127
2, 170713, Note_off_c, 5, 53, 127
2, 170714, Note_off_c, 12, 71, 127
2, 170719, Note_on_c, 11, 70, 127
2, 170719, Note_on_c, 6, 54, 127
2, 170972, Note_off_c, 6, 54, 127
2, 170972, Note_off_c, 1, 73, 127
2, 170978, Note_on_c, 3, 75, 127
2, 170978, Note_on_c, 5, 53, 127
2, 171231, Note_off_c, 5, 53, 127
2, 171231, Note_off_c, 3, 75, 127
2, 171237, Note_on_c, 5, 77, 127
2, 171237, Note_on_c, 3, 51, 127
2, 171490, Note_off_c, 3, 51, 127
2, 171495, Note_on_c, 2, 50, 127
2, 171748, Note_off_c, 2, 50, 127
2, 171748, Note_off_c, 5, 77, 127
2, 171754, Note_on_c, 6, 78, 127
2, 171754, Note_on_c, 3, 51, 127
2, 172006, Note_off_c, 11, 70, 127
2, 172012, Note_on_c, 0, 72, 127
2, 172265, Note_off_c, 0, 72, 127
2, 172265, Note_off_c, 3, 51, 127
2, 172271, Note_on_c, 1, 73, 127
2, 172271, Note_on_c, 11, 46, 127
2, 172524, Note_off_c, 11, 46, 127
2, 172524, Note_off_c, 1, 73, 127
2, 172530, Note_on_c, 3, 75, 127
2, 172530, Note_on_c, 0, 48, 127
2, 172783, Note_off_c, 0, 48, 127
2, 172783, Note_off_c, 3, 75, 127
2, 172788, Note_on_c, 8, 68, 127
2, 172788, Note_on_c, 1, 49, 127
2, 173041, Note_off_c, 6, 78, 127
2, 173047, Note_on_c, 5, 77, 127
2, 173299, Note_off_c, 1, 49, 127
2, 173299, Note_off_c, 8, 68, 127
2, 173300, Note_off_c, 5, 77, 127
2, 173306, Note_on_c, 3, 75, 127
2, 173306, Note_on_c, 11, 70, 127
2, 173306, Note_on_c, 6, 42, 127
2, 173559, Note_off_c, 3, 75, 127
2, 173564, Note_on_c, 1, 73, 127
2, 173817, Note_off_c, 1, 73, 127
2, 173817, Note_off_c, 6, 42, 127
2, 173823, Note_on_c, 0, 72, 127
2, 173823, Note_on_c, 8, 44, 127
2, 174076, Note_off_c, 11, 70, 127
2, 174082, Note_on_c, 8, 68, 127
2, 174334, Note_off_c, 8, 44, 127
2, 174334, Note_off_c, 0, 72, 127
2, 174335, Note_off_c, 8, 68, 127
2, 174340, Note_on_c, 2, 74, 127
2, 174340, Note_on_c, 6, 66, 127
2, 174340, Note_on_c, 11, 46, 127
2, 174593, Note_off_c, 6, 66, 127
2, 174599, Note_on_c, 5, 65, 127
2, 174851, Note_off_c, 11, 46, 127
2, 174851, Note_off_c, 2, 74, 127
2, 174852, Note_off_c, 5, 65, 127
2, 174857, Note_on_c, 3, 75, 127
2, 174857, Note_on_c, 3, 63, 127
2, 174857, Note_on_c, 12, 47, 127
2, 175110, Note_off_c, 12, 47, 127
2, 175110, Note_off_c, 3, 63, 127
2, 175116, Note_on_c, 6, 66, 127
2, 175116, Note_on_c, 11, 46, 127
2, 175369, Note_off_c, 11, 46, 127
2, 175369, Note_off_c, 6, 66, 127
2, 175375, Note_on_c, 12, 71, 127
2, 175375, Note_on_c, 8, 44, 127
2, 175628, Note_off_c, 8, 44, 127
2, 175633, Note_on_c, 6, 42, 127
2, 175885, Note_off_c, 3, 75, 127
2, 175886, Note_off_c, 6, 42, 127
2, 175892, Note_on_c, 1, 73, 127
2, 175892, Note_on_c, 4, 40, 127
2, 176145, Note_off_c, 12, 71, 127
2, 176151, Note_on_c, 11, 70, 127
2, 176403, Note_off_c, 4, 40, 127
2, 176404, Note_off_c, 11, 70, 127
2, 176409, Note_on_c, 8, 68, 127
2, 176409, Note_on_c, 3, 39, 127
2, 176662, Note_off_c, 8, 68, 127
2, 176668, Note_on_c, 7, 67, 127
2, 176920, Note_off_c, 3, 39, 127
2, 176920, Note_off_c, 1, 73, 127
2, 176921, Note_off_c, 7, 67, 127
2, 176926, Note_on_c, 12, 71, 127
2, 176926, Note_on_c, 8, 68, 127
2, 176926, Note_on_c, 8, 44, 127
2, 177179, Note_off_c, 8, 44, 127
2, 177179, Note_off_c, 12, 71, 127
2, 177185, Note_on_c, 1, 73, 127
2, 177185, Note_on_c, 11, 46, 127
2, 177438, Note_off_c, 11, 46, 127
2, 177438, Note_off_c, 1, 73, 127
2, 177444, Note_on_c, 3, 75, 127
2, 177444, Note_on_c, 12, 47, 127
2, 177697, Note_off_c, 12, 47, 127
2, 177697, Note_off_c, 3, 75, 127
2, 177702, Note_on_c, 4, 76, 127
2, 177702, Note_on_c, 1, 49, 127
2, 177955, Note_off_c, 1, 49, 127
2, 177955, Note_off_c, 4, 76, 127
2, 177961, Note_on_c, 11, 70, 127
2, 177961, Note_on_c, 3, 51, 127
2, 178214, Note_off_c, 11, 70, 127
2, 178220, Note_on_c, 12, 71, 127
2, 178472, Note_off_c, 8, 68, 127
2, 178473, Note_off_c, 12, 71, 127
2, 178478, Note_on_c, 1, 73, 127
2, 178478, Note_on_c, 7, 67, 127
2, 178731, Note_off_c, 1, 73, 127
2, 178731, Note_off_c, 3, 51, 127
2, 178737, Note_on_c, 3, 75, 127
2, 178737, Note_on_c, 3, 51, 127
2, 178989, Note_off_c, 7, 67, 127
2, 178990, Note_off_c, 3, 51, 127
2, 178990, Note_off_c, 3, 75, 127
2, 178996, Note_on_c, 12, 71, 127
2, 178996, Note_on_c, 8, 68, 127
2, 178996, Note_on_c, 8, 56, 127
2, 179249, Note_off_c, 8, 56, 127
2, 179249, Note_off_c, 12, 71, 127
2, 179254, Note_on_c, 11, 70, 127
2, 179254, Note_on_c, 11, 58, 127
2, 179507, Note_off_c, 11, 58, 127
2, 179507, Note_off_c, 11, 70, 127
2, 179507, Note_off_c, 8, 68, 127
2, 179513, Note_on_c, 8, 68, 127
2, 179513, Note_on_c, 3, 63, 127
2, 179513, Note_on_c, 12, 59, 127
2, 179766, Note_off_c, 12, 59, 127
2, 179766, Note_off_c, 8, 68, 127
2, 179771, Note_on_c, 6, 66, 127
2, 179771, Note_on_c, 8, 56, 127
2, 180024, Note_off_c, 8, 56, 127
2, 180024, Note_off_c, 6, 66, 127
2, 180030, Note_on_c, 5, 65, 127
2, 180030, Note_on_c, 11, 58, 127
2, 180283, Note_off_c, 11, 58, 127
2, 180283, Note_off_c, 3, 63, 127
2, 180289, Note_on_c, 2, 62, 127
2, 180289, Note_on_c, 8, 56, 127
2, 180541, Note_off_c, 5, 65, 127
2, 180542, Note_off_c, 8, 56, 127
2, 180542, Note_off_c, 2, 62, 127
2, 180547, Note_on_c, 6, 66, 127
2, 180547, Note_on_c, 3, 63, 127
2, 180547, Note_on_c, 6, 54, 127
2, 180800, Note_off_c, 6, 54, 127
2, 180800, Note_off_c, 3, 63, 127
2, 180800, Note_off_c, 6, 66, 127
2, 180806, Note_on_c, 8, 68, 127
2, 180806, Note_on_c, 5, 65, 127
2, 180806, Note_on_c, 5, 53, 127
2, 181059, Note_off_c, 5, 53, 127
2, 181059, Note_off_c, 5, 65, 127
2, 181059, Note_off_c, 8, 68, 127
2, 181065, Note_on_c, 11, 70, 127
2, 181065, Note_on_c, 6, 66, 127
2, 181065, Note_on_c, 3, 51, 127
2, 181318, Note_off_c, 6, 66, 127
2, 181323, Note_on_c, 5, 65, 127
2, 181576, Note_off_c, 5, 65, 127
2, 181576, Note_off_c, 3, 51, 127
2, 181576, Note_off_c, 11, 70, 127
2, 181582, Note_on_c, 0, 72, 127
2, 181582, Note_on_c, 3, 63, 127
2, 181582, Note_on_c, 8, 56, 127
2, 181835, Note_off_c, 0, 72, 127
2, 181840, Note_on_c, 2, 74, 127
2, 182093, Note_off_c, 2, 74, 127
2, 182093, Note_off_c, 3, 63, 127
2, 182099, Note_on_c, 3, 75, 127
2, 182099, Note_on_c, 11, 70, 127
2, 182352, Note_off_c, 8, 56, 127
2, 182358, Note_on_c, 7, 55, 127
2, 182482, Note_off_c, 7, 55, 127
2, 182488, Note_on_c, 5, 53, 127
2, 182611, Note_off_c, 11, 70, 127
2, 182612, Note_off_c, 5, 53, 127
2, 182617, Note_on_c, 3, 63, 127
2, 182617, Note_on_c, 7, 55, 127
2, 182870, Note_off_c, 3, 75, 127
2, 182876, Note_on_c, 1, 73, 127
2, 183128, Note_off_c, 7, 55, 127
2, 183129, Note_off_c, 1, 73, 127
2, 183135, Note_on_c, 0, 72, 127
2, 183135, Note_on_c, 8, 56, 127
2, 183387, Note_off_c, 3, 63, 127
2, 183388, Note_off_c, 8, 56, 127
2, 183388, Note_off_c, 0, 72, 127
2, 183393, Note_on_c, 2, 74, 127
2, 183393, Note_on_c, 5, 65, 127
2, 183393, Note_on_c, 6, 54, 127
2, 183646, Note_off_c, 6, 54, 127
2, 183646, Note_off_c, 5, 65, 127
2, 183646, Note_off_c, 2, 74, 127
2, 183652, Note_on_c, 3, 75, 127
2, 183652, Note_on_c, 6, 66, 127
2, 183652, Note_on_c, 5, 53, 127
2, 183905, Note_off_c, 5, 53, 127
2, 183911, Note_on_c, 3, 51, 127
2, 184163, Note_off_c, 6, 66, 127
2, 184164, Note_off_c, 3, 51, 127
2, 184169, Note_on_c, 8, 68, 127
2, 184169, Note_on_c, 5, 53, 127
2, 184422, Note_off_c, 5, 53, 127
2, 184428, Note_on_c, 6, 54, 127
2, 184680, Note_off_c, 3, 75, 127
2, 184681, Note_off_c, 6, 54, 127
2, 184686, Note_on_c, 2, 74, 127
2, 184686, Note_on_c, 8, 56, 127
2, 184939, Note_off_c, 8, 56, 127
2, 184945, Note_on_c, 11, 58, 127
2, 185197, Note_off_c, 2, 74, 127
2, 185197, Note_off_c, 8, 68, 127
2, 185198, Note_off_c, 11, 58, 127
2, 185204, Note_on_c, 3, 75, 127
2, 185204, Note_on_c, 6, 66, 127
2, 185204, Note_on_c, 3, 51, 127
2, 185329, Note_off_c, 3, 51, 127
2, 185335, Note_on_c, 3, 63, 127
2, 185460, Note_off_c, 3, 63, 127
2, 185460, Note_off_c, 6, 66, 127
2, 185466, Note_on_c, 8, 68, 127
2, 185466, Note_on_c, 1, 61, 127
2, 185591, Note_off_c, 1, 61, 127
2, 185597, Note_on_c, 12, 59, 127
2, 185722, Note_off_c, 12, 59, 127
2, 185722, Note_off_c, 8, 68, 127
2, 185722, Note_off_c, 3, 75, 127
2, 185728, Note_on_c, 2, 74, 127
2, 185728, Note_on_c, 11, 70, 127
2, 185728, Note_on_c, 11, 58, 127
2, 185984, Note_off_c, 11, 70, 127
2, 185984, Note_off_c, 2, 74, 127
2, 185990, Note_on_c, 3, 75, 127
2, 185990, Note_on_c, 0, 72, 127
2, 186246, Note_off_c, 0, 72, 127
2, 186246, Note_off_c, 3, 75, 127
2, 186252, Note_on_c, 5, 77, 127
2, 186252, Note_on_c, 2, 74, 127
2, 186508, Note_off_c, 2, 74, 127
2, 186508, Note_off_c, 5, 77, 127
2, 186508, Note_off_c, 11, 58, 127
2, 186514, Note_on_c, 8, 80, 127
2, 186514, Note_on_c, 11, 58, 127
2, 186514, Note_on_c, 6, 54, 127
2, 186770, Note_off_c, 6, 54, 127
2, 186770, Note_off_c, 11, 58, 127
2, 186770, Note_off_c, 8, 80, 127
2, 186775, Note_on_c, 6, 78, 127
2, 186775, Note_on_c, 0, 60, 127
2, 186775, Note_on_c, 8, 56, 127
2, 187031, Note_off_c, 8, 56, 127
2, 187031, Note_off_c, 0, 60, 127
2, 187031, Note_off_c, 6, 78, 127
2, 187037, Note_on_c, 5, 77, 127
2, 187037, Note_on_c, 2, 62, 127
2, 187037, Note_on_c, 11, 58, 127
2, 187293, Note_off_c, 11, 58, 127
2, 187293, Note_off_c, 2, 62, 127
2, 187293, Note_off_c, 5, 77, 127
2, 187299, Note_on_c, 3, 75, 127
2, 187299, Note_on_c, 3, 63, 127
2, 187299, Note_on_c, 12, 59, 127
2, 187555, Note_off_c, 12, 59, 127
2, 187555, Note_off_c, 3, 75, 127
2, 187561, Note_on_c, 1, 73, 127
2, 187561, Note_on_c, 11, 58, 127
2, 187817, Note_off_c, 11, 58, 127
2, 187817, Note_off_c, 1, 73, 127
2, 187823, Note_on_c, 12, 71, 127
2, 187823, Note_on_c, 8, 56, 127
2, 188079, Note_off_c, 12, 71, 127
2, 188079, Note_off_c, 3, 63, 127
2, 188085, Note_on_c, 11, 70, 127
2, 188085, Note_on_c, 5, 65, 127
2, 188210, Note_off_c, 11, 70, 127
2, 188216, Note_on_c, 12, 71, 127
2, 188341, Note_off_c, 12, 71, 127
2, 188341, Note_off_c, 5, 65, 127
2, 188341, Note_off_c, 8, 56, 127
2, 188347, Note_on_c, 11, 70, 127
2, 188347, Note_on_c, 6, 66, 127
2, 188347, Note_on_c, 3, 63, 127
2, 188603, Note_off_c, 11, 70, 127
2, 188609, Note_on_c, 0, 72, 127
2, 188865, Note_off_c, 0, 72, 127
2, 188865, Note_off_c, 3, 63, 127
2, 188865, Note_off_c, 6, 66, 127
2, 188871, Note_on_c, 2, 74, 127
2, 188871, Note_on_c, 5, 65, 127
2, 188871, Note_on_c, 11, 58, 127
2, 189127, Note_off_c, 5, 65, 127
2, 189127, Note_off_c, 2, 74, 127
2, 189133, Note_on_c, 3, 75, 127
2, 189133, Note_on_c, 3, 63, 127
2, 189389, Note_off_c, 3, 63, 127
2, 189389, Note_off_c, 3, 75, 127
2, 189395, Note_on_c, 5, 77, 127
2, 189395, Note_on_c, 2, 62, 127
2, 189651, Note_off_c, 2, 62, 127
2, 189651, Note_off_c, 5, 77, 127
2, 189651, Note_off_c, 11, 58, 127
2, 189657, Note_on_c, 11, 70, 127
2, 189657, Note_on_c, 3, 63, 127
2, 189657, Note_on_c, 0, 60, 127
2, 189913, Note_off_c, 0, 60, 127
2, 189913, Note_off_c, 3, 63, 127
2, 189913, Note_off_c, 11, 70, 127
2, 189919, Note_on_c, 11, 82, 127
2, 189919, Note_on_c, 5, 65, 127
2, 189919, Note_on_c, 2, 62, 127
2, 190175, Note_off_c, 11, 82, 127
2, 190181, Note_on_c, 8, 80, 127
2, 190437, Note_off_c, 8, 80, 127
2, 190437, Note_off_c, 2, 62, 127
2, 190443, Note_on_c, 6, 78, 127
2, 190443, Note_on_c, 3, 63, 127
2, 190699, Note_off_c, 3, 63, 127
2, 190699, Note_off_c, 6, 78, 127
2, 190699, Note_off_c, 5, 65, 127
2, 190705, Note_on_c, 8, 80, 127
2, 190705, Note_on_c, 3, 63, 127
2, 190705, Note_on_c, 12, 59, 127
2, 190830, Note_off_c, 3, 63, 127
2, 190836, Note_on_c, 2, 62, 127
2, 190961, Note_off_c, 2, 62, 127
2, 190961, Note_off_c, 12, 59, 127
2, 190961, Note_off_c, 8, 80, 127
2, 190967, Note_on_c, 11, 82, 127
2, 190967, Note_on_c, 3, 63, 127
2, 190967, Note_on_c, 6, 54, 127
2, 191223, Note_off_c, 6, 54, 127
2, 191223, Note_off_c, 11, 82, 127
2, 191229, Note_on_c, 12, 83, 127
2, 191229, Note_on_c, 8, 56, 127
2, 191485, Note_off_c, 8, 56, 127
2, 191485, Note_off_c, 12, 83, 127
2, 191491, Note_on_c, 5, 77, 127
2, 191491, Note_on_c, 11, 58, 127
2, 191747, Note_off_c, 3, 63, 127
2, 191753, Note_on_c, 1, 61, 127
2, 192009, Note_off_c, 1, 61, 127
2, 192009, Note_off_c, 11, 58, 127
2, 192009, Note_off_c, 5, 77, 127
2, 192015, Note_on_c, 7, 79, 127
2, 192015, Note_on_c, 12, 59, 127
2, 192015, Note_on_c, 3, 51, 127
2, 192271, Note_off_c, 12, 59, 127
2, 192277, Note_on_c, 11, 58, 127
2, 192533, Note_off_c, 11, 58, 127
2, 192533, Note_off_c, 3, 51, 127
2, 192533, Note_off_c, 7, 79, 127
2, 192539, Note_on_c, 8, 80, 127
2, 192539, Note_on_c, 12, 59, 127
2, 192539, Note_on_c, 8, 56, 127
2, 192795, Note_off_c, 8, 56, 127
2, 192795, Note_off_c, 12, 59, 127
2, 192795, Note_off_c, 8, 80, 127
2, 192801, Note_on_c, 6, 78, 127
2, 192801, Note_on_c, 3, 63, 127
2, 192801, Note_on_c, 11, 58, 127
2, 193057, Note_off_c, 11, 58, 127
2, 193057, Note_off_c, 3, 63, 127
2, 193057, Note_off_c, 6, 78, 127
2, 193063, Note_on_c, 5, 77, 127
2, 193063, Note_on_c, 8, 68, 127
2, 193063, Note_on_c, 12, 59, 127
2, 193319, Note_off_c, 5, 77, 127
2, 193324, Note_on_c, 3, 75, 127
2, 193580, Note_off_c, 3, 75, 127
2, 193581, Note_off_c, 12, 59, 127
2, 193586, Note_on_c, 2, 74, 127
2, 193586, Note_on_c, 11, 58, 127
2, 193843, Note_off_c, 8, 68, 127
2, 193848, Note_on_c, 6, 66, 127
2, 194046, Note_off_c, 2, 74, 127
2, 194104, Note_off_c, 6, 66, 127
2, 194110, Note_on_c, 3, 75, 127
2, 194110, Note_on_c, 5, 65, 127
2, 194238, Note_off_c, 3, 75, 127
2, 194240, Note_on_c, 2, 74, 127
2, 194366, Note_off_c, 5, 65, 127
2, 194368, Note_off_c, 2, 74, 127
2, 194372, Note_on_c, 3, 75, 127
2, 194372, Note_on_c, 3, 63, 127
2, 194628, Note_off_c, 3, 63, 127
2, 194634, Note_on_c, 5, 65, 127
2, 194882, Note_off_c, 3, 75, 127
2, 194896, Note_on_c, 1, 73, 127
2, 195152, Note_off_c, 1, 73, 127
2, 195152, Note_off_c, 5, 65, 127
2, 195158, Note_on_c, 12, 71, 127
2, 195158, Note_on_c, 7, 67, 127
2, 195414, Note_off_c, 12, 71, 127
2, 195420, Note_on_c, 11, 70, 127
2, 195676, Note_off_c, 11, 70, 127
2, 195676, Note_off_c, 7, 67, 127
2, 195682, Note_on_c, 12, 71, 127
2, 195682, Note_on_c, 8, 68, 127
2, 195938, Note_off_c, 8, 68, 127
2, 195938, Note_off_c, 12, 71, 127
2, 195944, Note_on_c, 11, 70, 127
2, 195944, Note_on_c, 6, 66, 127
2, 196200, Note_off_c, 6, 66, 127
2, 196200, Note_off_c, 11, 70, 127
2, 196206, Note_on_c, 8, 68, 127
2, 196206, Note_on_c, 5, 65, 127
2, 196462, Note_off_c, 5, 65, 127
2, 196468, Note_on_c, 3, 63, 127
2, 196724, Note_off_c, 3, 63, 127
2, 196730, Note_on_c, 2, 62, 127
2, 196730, Note_on_c, 11, 46, 127
2, 196986, Note_off_c, 8, 68, 127
2, 196992, Note_on_c, 6, 66, 127
2, 197117, Note_off_c, 6, 66, 127
2, 197123, Note_on_c, 5, 65, 127
2, 197132, Note_off_c, 11, 58, 127
2, 197248, Note_off_c, 5, 65, 127
2, 197248, Note_off_c, 11, 46, 127
2, 197248, Note_off_c, 2, 62, 127
2, 197254, Note_on_c, 6, 66, 127
2, 197254, Note_on_c, 3, 63, 127
2, 197254, Note_on_c, 3, 39, 127
2, 197510, Note_off_c, 3, 63, 127
2, 197510, Note_off_c, 6, 66, 127
2, 197516, Note_on_c, 8, 68, 127
2, 197516, Note_on_c, 5, 65, 127
2, 197772, Note_off_c, 5, 65, 127
2, 197772, Note_off_c, 8, 68, 127
2, 197778, Note_on_c, 11, 70, 127
2, 197778, Note_on_c, 6, 66, 127
2, 198034, Note_off_c, 6, 66, 127
2, 198034, Note_off_c, 3, 39, 127
2, 198040, Note_on_c, 5, 65, 127
2, 198040, Note_on_c, 2, 38, 127
2, 198296, Note_off_c, 2, 38, 127
2, 198296, Note_off_c, 5, 65, 127
2, 198296, Note_off_c, 11, 70, 127
2, 198302, Note_on_c, 6, 66, 127
2, 198302, Note_on_c, 3, 63, 127
2, 198302, Note_on_c, 3, 39, 127
2, 198558, Note_off_c, 3, 39, 127
2, 198558, Note_off_c, 6, 66, 127
2, 198564, Note_on_c, 8, 68, 127
2, 198564, Note_on_c, 5, 41, 127
2, 198820, Note_off_c, 5, 41, 127
2, 198820, Note_off_c, 8, 68, 127
2, 198826, Note_on_c, 11, 70, 127
2, 198826, Note_on_c, 6, 42, 127
2, 199055, Note_off_c, 11, 70, 127
2, 199081, Note_off_c, 6, 42, 127
2, 199081, Note_off_c, 3, 63, 127
2, 199087, Note_on_c, 8, 68, 127
2, 199087, Note_on_c, 2, 62, 127
2, 199087, Note_on_c, 5, 41, 127
2, 199316, Note_off_c, 8, 68, 127
2, 199342, Note_off_c, 5, 41, 127
2, 199342, Note_off_c, 2, 62, 127
2, 199347, Note_on_c, 6, 66, 127
2, 199347, Note_on_c, 3, 63, 127
2, 199347, Note_on_c, 3, 39, 127
2, 199603, Note_off_c, 6, 66, 127
2, 199609, Note_on_c, 5, 65, 127
2, 199727, Note_off_c, 3, 63, 127
2, 199734, Note_off_c, 5, 65, 127
2, 199740, Note_on_c, 3, 63, 127
2, 199865, Note_off_c, 3, 63, 127
2, 199865, Note_off_c, 3, 39, 127
2, 199871, Note_on_c, 6, 66, 127
2, 199871, Note_on_c, 2, 62, 127
2, 199871, Note_on_c, 11, 46, 127
2, 200127, Note_off_c, 2, 62, 127
2, 200127, Note_off_c, 6, 66, 127
2, 200133, Note_on_c, 8, 68, 127
2, 200133, Note_on_c, 5, 65, 127
2, 200389, Note_off_c, 8, 68, 127
2, 200389, Note_off_c, 11, 46, 127
2, 200395, Note_on_c, 3, 63, 127
2, 200395, Note_on_c, 3, 39, 127
2, 200651, Note_off_c, 5, 65, 127
2, 200657, Note_on_c, 6, 66, 127
2, 200782, Note_off_c, 6, 66, 127
2, 200788, Note_on_c, 5, 65, 127
2, 200913, Note_off_c, 5, 65, 127
2, 200913, Note_off_c, 3, 63, 127
2, 200919, Note_on_c, 11, 70, 127
2, 200919, Note_on_c, 7, 67, 127
2, 201175, Note_off_c, 7, 67, 127
2, 201175, Note_off_c, 3, 39, 127
2, 201181, Note_on_c, 8, 68, 127
2, 201181, Note_on_c, 5, 41, 127
2, 201435, Note_off_c, 11, 70, 127
2, 201436, Note_off_c, 5, 41, 127
2, 201436, Note_off_c, 8, 68, 127
2, 201442, Note_on_c, 11, 70, 127
2, 201442, Note_on_c, 3, 63, 127
2, 201442, Note_on_c, 7, 43, 127
2, 201698, Note_off_c, 3, 63, 127
2, 201704, Note_on_c, 1, 61, 127
2, 201958, Note_off_c, 11, 70, 127
2, 201959, Note_off_c, 1, 61, 127
2, 201959, Note_off_c, 7, 43, 127
2, 201965, Note_on_c, 3, 63, 127
2, 201965, Note_on_c, 12, 59, 127
2, 201965, Note_on_c, 8, 44, 127
2, 202221, Note_off_c, 12, 59, 127
2, 202221, Note_off_c, 3, 63, 127
2, 202227, Note_on_c, 5, 65, 127
2, 202227, Note_on_c, 1, 61, 127
2, 202483, Note_off_c, 1, 61, 127
2, 202483, Note_off_c, 5, 65, 127
2, 202483, Note_off_c, 8, 44, 127
2, 202489, Note_on_c, 7, 67, 127
2, 202489, Note_on_c, 3, 63, 127
2, 202489, Note_on_c, 11, 46, 127
2, 202745, Note_off_c, 3, 63, 127
2, 202751, Note_on_c, 4, 64, 127
2, 203007, Note_off_c, 4, 64, 127
2, 203007, Note_off_c, 11, 46, 127
2, 203007, Note_off_c, 7, 67, 127
2, 203013, Note_on_c, 8, 68, 127
2, 203013, Note_on_c, 3, 63, 127
2, 203013, Note_on_c, 12, 47, 127
2, 203269, Note_off_c, 12, 47, 127
2, 203275, Note_on_c, 1, 49, 127
2, 203531, Note_off_c, 1, 49, 127
2, 203531, Note_off_c, 3, 63, 127
2, 203531, Note_off_c, 8, 68, 127
2, 203536, Note_on_c, 8, 80, 127
2, 203536, Note_on_c, 8, 56, 127
2, 203536, Note_on_c, 12, 47, 127
2, 203792, Note_off_c, 12, 47, 127
2, 203798, Note_on_c, 11, 46, 127
2, 204054, Note_off_c, 11, 46, 127
2, 204054, Note_off_c, 8, 80, 127
2, 204060, Note_on_c, 3, 75, 127
2, 204060, Note_on_c, 8, 44, 127
2, 204316, Note_off_c, 8, 44, 127
2, 204316, Note_off_c, 8, 56, 127
2, 204322, Note_on_c, 7, 55, 127
2, 204322, Note_on_c, 11, 46, 127
2, 204578, Note_off_c, 11, 46, 127
2, 204578, Note_off_c, 7, 55, 127
2, 204584, Note_on_c, 8, 56, 127
2, 204584, Note_on_c, 12, 47, 127
2, 204840, Note_off_c, 12, 47, 127
2, 204840, Note_off_c, 8, 56, 127
2, 204840, Note_off_c, 3, 75, 127
2, 204846, Note_on_c, 1, 73, 127
2, 204846, Note_on_c, 11, 58, 127
2, 204846, Note_on_c, 4, 52, 127
2, 204971, Note_off_c, 4, 52, 127
2, 204977, Note_on_c, 1, 49, 127
2, 205102, Note_off_c, 1, 49, 127
2, 205102, Note_off_c, 11, 58, 127
2, 205102, Note_off_c, 1, 73, 127
2, 205108, Note_on_c, 3, 75, 127
2, 205108, Note_on_c, 12, 59, 127
2, 205108, Note_on_c, 8, 56, 127
2, 205364, Note_off_c, 12, 59, 127
2, 205370, Note_on_c, 11, 58, 127
2, 205626, Note_off_c, 11, 58, 127
2, 205626, Note_off_c, 8, 56, 127
2, 205632, Note_on_c, 8, 56, 127
2, 205632, Note_on_c, 12, 47, 127
2, 205888, Note_off_c, 12, 47, 127
2, 205888, Note_off_c, 3, 75, 127
2, 205894, Note_on_c, 5, 77, 127
2, 205894, Note_on_c, 1, 49, 127
2, 206150, Note_off_c, 1, 49, 127
2, 206150, Note_off_c, 5, 77, 127
2, 206150, Note_off_c, 8, 56, 127
2, 206156, Note_on_c, 6, 78, 127
2, 206156, Note_on_c, 3, 63, 127
2, 206156, Note_on_c, 3, 51, 127
2, 206412, Note_off_c, 3, 51, 127
2, 206418, Note_on_c, 2, 50, 127
2, 206632, Note_off_c, 3, 63, 127
2, 206674, Note_off_c, 2, 50, 127
2, 206680, Note_on_c, 11, 58, 127
2, 206680, Note_on_c, 3, 51, 127
2, 206936, Note_off_c, 3, 51, 127
2, 206936, Note_off_c, 6, 78, 127
2, 206942, Note_on_c, 5, 77, 127
2, 206942, Note_on_c, 5, 53, 127
2, 207198, Note_off_c, 5, 53, 127
2, 207198, Note_off_c, 5, 77, 127
2, 207204, Note_on_c, 3, 75, 127
2, 207204, Note_on_c, 6, 54, 127
2, 207460, Note_off_c, 6, 54, 127
2, 207460, Note_off_c, 11, 58, 127
2, 207466, Note_on_c, 12, 59, 127
2, 207466, Note_on_c, 8, 56, 127
2, 207722, Note_off_c, 8, 56, 127
2, 207722, Note_off_c, 12, 59, 127
2, 207722, Note_off_c, 3, 75, 127
2, 207728, Note_on_c, 11, 82, 127
2, 207728, Note_on_c, 1, 61, 127
2, 207728, Note_on_c, 5, 53, 127
2, 207984, Note_off_c, 5, 53, 127
2, 207990, Note_on_c, 7, 55, 127
2, 208246, Note_off_c, 7, 55, 127
2, 208246, Note_off_c, 11, 82, 127
2, 208252, Note_on_c, 3, 75, 127
2, 208252, Note_on_c, 8, 56, 127
2, 208508, Note_off_c, 8, 56, 127
2, 208508, Note_off_c, 1, 61, 127
2, 208514, Note_on_c, 1, 73, 127
2, 208514, Note_on_c, 11, 58, 127
2, 208770, Note_off_c, 11, 58, 127
2, 208770, Note_off_c, 1, 73, 127
2, 208776, Note_on_c, 12, 71, 127
2, 208776, Note_on_c, 8, 56, 127
2, 209032, Note_off_c, 8, 56, 127
2, 209032, Note_off_c, 12, 71, 127
2, 209032, Note_off_c, 3, 75, 127
2, 209038, Note_on_c, 3, 75, 127
2, 209038, Note_on_c, 11, 70, 127
2, 209038, Note_on_c, 6, 54, 127
2, 209294, Note_off_c, 6, 54, 127
2, 209294, Note_off_c, 11, 70, 127
2, 209294, Note_off_c, 3, 75, 127
2, 209300, Note_on_c, 2, 74, 127
2, 209300, Note_on_c, 8, 68, 127
2, 209300, Note_on_c, 5, 53, 127
2, 209556, Note_off_c, 5, 53, 127
2, 209556, Note_off_c, 8, 68, 127
2, 209556, Note_off_c, 2, 74, 127
2, 209562, Note_on_c, 3, 75, 127
2, 209562, Note_on_c, 6, 66, 127
2, 209562, Note_on_c, 3, 51, 127
2, 209818, Note_off_c, 3, 51, 127
2, 209818, Note_off_c, 6, 66, 127
2, 209818, Note_off_c, 3, 75, 127
2, 209824, Note_on_c, 5, 77, 127
2, 209824, Note_on_c, 8, 68, 127
2, 209824, Note_on_c, 2, 50, 127
2, 210080, Note_off_c, 2, 50, 127
2, 210080, Note_off_c, 8, 68, 127
2, 210080, Note_off_c, 5, 77, 127
2, 210085, Note_on_c, 2, 74, 127
2, 210085, Note_on_c, 5, 65, 127
2, 210085, Note_on_c, 12, 59, 127
2, 210341, Note_off_c, 12, 59, 127
2, 210341, Note_off_c, 5, 65, 127
2, 210341, Note_off_c, 2, 74, 127
2, 210347, Note_on_c, 3, 75, 127
2, 210347, Note_on_c, 6, 66, 127
2, 210347, Note_on_c, 11, 58, 127
2, 210603, Note_off_c, 11, 58, 127
2, 210603, Note_off_c, 6, 66, 127
2, 210603, Note_off_c, 3, 75, 127
2, 210609, Note_on_c, 5, 77, 127
2, 210609, Note_on_c, 8, 68, 127
2, 210609, Note_on_c, 8, 56, 127
2, 210865, Note_off_c, 8, 56, 127
2, 210865, Note_off_c, 8, 68, 127
2, 210865, Note_off_c, 5, 77, 127
2, 210871, Note_on_c, 6, 78, 127
2, 210871, Note_on_c, 11, 70, 127
2, 210871, Note_on_c, 6, 54, 127
2, 211127, Note_off_c, 6, 54, 127
2, 211127, Note_off_c, 11, 70, 127
2, 211127, Note_off_c, 6, 78, 127
2, 211133, Note_on_c, 8, 80, 127
2, 211133, Note_on_c, 8, 68, 127
2, 211133, Note_on_c, 5, 53, 127
2, 211389, Note_off_c, 5, 53, 127
2, 211389, Note_off_c, 8, 80, 127
2, 211395, Note_on_c, 11, 82, 127
2, 211395, Note_on_c, 3, 51, 127
2, 211651, Note_off_c, 3, 51, 127
2, 211651, Note_off_c, 11, 82, 127
2, 211651, Note_off_c, 8, 68, 127
2, 211657, Note_on_c, 11, 70, 127
2, 211657, Note_on_c, 6, 66, 127
2, 211657, Note_on_c, 1, 49, 127
2, 211782, Note_off_c, 6, 66, 127
2, 211788, Note_on_c, 5, 65, 127
2, 211913, Note_off_c, 5, 65, 127
2, 211913, Note_off_c, 1, 49, 127
2, 211913, Note_off_c, 11, 70, 127
2, 211919, Note_on_c, 3, 75, 127
2, 211919, Note_on_c, 6, 66, 127
2, 211919, Note_on_c, 12, 47, 127
2, 212175, Note_off_c, 6, 66, 127
2, 212175, Note_off_c, 3, 75, 127
2, 212181, Note_on_c, 5, 77, 127
2, 212181, Note_on_c, 8, 68, 127
2, 212437, Note_off_c, 8, 68, 127
2, 212437, Note_off_c, 5, 77, 127
2, 212437, Note_off_c, 12, 47, 127
2, 212443, Note_on_c, 2, 74, 127
2, 212443, Note_on_c, 11, 70, 127
2, 212443, Note_on_c, 11, 46, 127
2, 212932, Note_off_c, 2, 74, 127
2, 212961, Note_off_c, 11, 46, 127
2, 212961, Note_off_c, 11, 70, 127
2, 212983, Note_on_c, 3, 51, 127
2, 212983, Note_on_c, 11, 58, 127
2, 213450, Note_off_c, 11, 58, 127
2, 213513, Note_on_c, 3, 63, 127
2, 213513, Note_on_c, 11, 70, 127
2, 213771, Note_off_c, 3, 51, 127
2, 213777, Note_on_c, 4, 52, 127
2, 213979, Note_off_c, 11, 70, 127
2, 214035, Note_off_c, 4, 52, 127
2, 214041, Note_on_c, 3, 51, 127
2, 214041, Note_on_c, 3, 75, 127
2, 214299, Note_off_c, 3, 51, 127
2, 214299, Note_off_c, 3, 63, 127
2, 214305, Note_on_c, 1, 49, 127
2, 214305, Note_on_c, 4, 64, 127
2, 214563, Note_off_c, 4, 64, 127
2, 214563, Note_off_c, 1, 49, 127
2, 214569, Note_on_c, 12, 47, 127
2, 214569, Note_on_c, 3, 63, 127
2, 214827, Note_off_c, 3, 63, 127
2, 214827, Note_off_c, 12, 47, 127
2, 214827, Note_off_c, 3, 75, 127
2, 214833, Note_on_c, 1, 49, 127
2, 214833, Note_on_c, 1, 61, 127
2, 214833, Note_on_c, 4, 76, 127
2, 215091, Note_off_c, 4, 76, 127
2, 215091, Note_off_c, 1, 61, 127
2, 215091, Note_off_c, 1, 49, 127
2, 215098, Note_on_c, 3, 51, 127
2, 215098, Note_on_c, 12, 59, 127
2, 215098, Note_on_c, 3, 75, 127
2, 215356, Note_off_c, 3, 75, 127
2, 215356, Note_off_c, 12, 59, 127
2, 215362, Note_on_c, 1, 61, 127
2, 215362, Note_on_c, 1, 73, 127
2, 215620, Note_off_c, 1, 73, 127
2, 215620, Note_off_c, 1, 61, 127
2, 215620, Note_off_c, 3, 51, 127
2, 215626, Note_on_c, 8, 44, 127
2, 215626, Note_on_c, 3, 63, 127
2, 215626, Note_on_c, 12, 71, 127
2, 215884, Note_off_c, 12, 71, 127
2, 215884, Note_off_c, 8, 44, 127
2, 215890, Note_on_c, 11, 46, 127
2, 215890, Note_on_c, 1, 73, 127
2, 216092, Note_off_c, 3, 63, 127
2, 216148, Note_off_c, 1, 73, 127
2, 216148, Note_off_c, 11, 46, 127
2, 216154, Note_on_c, 12, 47, 127
2, 216154, Note_on_c, 8, 56, 127
2, 216154, Note_on_c, 3, 75, 127
2, 216412, Note_off_c, 8, 56, 127
2, 216419, Note_on_c, 6, 54, 127
2, 216620, Note_off_c, 3, 75, 127
2, 216676, Note_off_c, 12, 47, 127
2, 216677, Note_off_c, 6, 54, 127
2, 216683, Note_on_c, 1, 49, 127
2, 216683, Note_on_c, 5, 53, 127
2, 216683, Note_on_c, 8, 68, 127
2, 216941, Note_off_c, 8, 68, 127
2, 216947, Note_on_c, 11, 70, 127
2, 217073, Note_off_c, 11, 70, 127
2, 217079, Note_on_c, 12, 71, 127
2, 217205, Note_off_c, 12, 71, 127
2, 217205, Note_off_c, 5, 53, 127
2, 217205, Note_off_c, 1, 49, 127
2, 217211, Note_on_c, 6, 42, 127
2, 217211, Note_on_c, 1, 61, 127
2, 217211, Note_on_c, 11, 70, 127
2, 217469, Note_off_c, 11, 70, 127
2, 217475, Note_on_c, 12, 71, 127
2, 217733, Note_off_c, 12, 71, 127
2, 217733, Note_off_c, 1, 61, 127
2, 217739, Note_on_c, 6, 54, 127
2, 217739, Note_on_c, 1, 73, 127
2, 217997, Note_off_c, 6, 42, 127
2, 218004, Note_on_c, 5, 41, 127
2, 218261, Note_off_c, 1, 73, 127
2, 218262, Note_off_c, 5, 41, 127
2, 218268, Note_on_c, 6, 42, 127
2, 218268, Note_on_c, 6, 66, 127
2, 218525, Note_off_c, 6, 54, 127
2, 218526, Note_off_c, 6, 42, 127
2, 218532, Note_on_c, 8, 44, 127
2, 218532, Note_on_c, 5, 53, 127
2, 218790, Note_off_c, 5, 53, 127
2, 218790, Note_off_c, 8, 44, 127
2, 218796, Note_on_c, 11, 46, 127
2, 218796, Note_on_c, 6, 54, 127
2, 219054, Note_off_c, 6, 54, 127
2, 219054, Note_off_c, 11, 46, 127
2, 219054, Note_off_c, 6, 66, 127
2, 219060, Note_on_c, 8, 44, 127
2, 219060, Note_on_c, 8, 56, 127
2, 219060, Note_on_c, 5, 65, 127
2, 219318, Note_off_c, 5, 65, 127
2, 219318, Note_off_c, 8, 56, 127
2, 219318, Note_off_c, 8, 44, 127
2, 219324, Note_on_c, 6, 42, 127
2, 219324, Note_on_c, 11, 58, 127
2, 219324, Note_on_c, 6, 66, 127
2, 219582, Note_off_c, 6, 66, 127
2, 219582, Note_off_c, 11, 58, 127
2, 219582, Note_off_c, 6, 42, 127
2, 219589, Note_on_c, 4, 52, 127
2, 219589, Note_on_c, 8, 56, 127
2, 219589, Note_on_c, 8, 68, 127
2, 219847, Note_off_c, 8, 68, 127
2, 219847, Note_off_c, 8, 56, 127
2, 219847, Note_off_c, 4, 52, 127
2, 219853, Note_on_c, 3, 51, 127
2, 219853, Note_on_c, 6, 54, 127
2, 219853, Note_on_c, 11, 70, 127
2, 220111, Note_off_c, 11, 70, 127
2, 220117, Note_on_c, 8, 68, 127
2, 220375, Note_off_c, 8, 68, 127
2, 220375, Note_off_c, 6, 54, 127
2, 220381, Note_on_c, 12, 59, 127
2, 220381, Note_on_c, 6, 66, 127
2, 220639, Note_off_c, 12, 59, 127
2, 220645, Note_on_c, 11, 58, 127
2, 220903, Note_off_c, 11, 58, 127
2, 220903, Note_off_c, 6, 66, 127
2, 220910, Note_on_c, 8, 56, 127
2, 220910, Note_on_c, 4, 76, 127
2, 221168, Note_off_c, 3, 51, 127
2, 221174, Note_on_c, 1, 49, 127
2, 221432, Note_off_c, 1, 49, 127
2, 221432, Note_off_c, 8, 56, 127
2, 221438, Note_on_c, 12, 47, 127
2, 221438, Note_on_c, 1, 73, 127
2, 221696, Note_off_c, 12, 47, 127
2, 221702, Note_on_c, 11, 46, 127
2, 221960, Note_off_c, 11, 46, 127
2, 221960, Note_off_c, 1, 73, 127
2, 221966, Note_on_c, 12, 47, 127
2, 221966, Note_on_c, 6, 66, 127
2, 222225, Note_off_c, 4, 76, 127
2, 222230, Note_on_c, 2, 74, 127
2, 222488, Note_off_c, 2, 74, 127
2, 222488, Note_off_c, 12, 47, 127
2, 222495, Note_on_c, 12, 59, 127
2, 222495, Note_on_c, 3, 75, 127
2, 222753, Note_off_c, 12, 59, 127
2, 222759, Note_on_c, 11, 58, 127
2, 223017, Note_off_c, 11, 58, 127
2, 223017, Note_off_c, 6, 66, 127
2, 223023, Note_on_c, 8, 56, 127
2, 223023, Note_on_c, 12, 71, 127
2, 223281, Note_off_c, 12, 71, 127
2, 223281, Note_off_c, 8, 56, 127
2, 223281, Note_off_c, 3, 75, 127
2, 223287, Note_on_c, 11, 58, 127
2, 223287, Note_on_c, 11, 70, 127
2, 223287, Note_on_c, 6, 78, 127
2, 223545, Note_off_c, 6, 78, 127
2, 223545, Note_off_c, 11, 70, 127
2, 223545, Note_off_c, 11, 58, 127
2, 223551, Note_on_c, 12, 59, 127
2, 223551, Note_on_c, 8, 68, 127
2, 223551, Note_on_c, 5, 77, 127
2, 223809, Note_off_c, 5, 77, 127
2, 223809, Note_off_c, 8, 68, 127
2, 223809, Note_off_c, 12, 59, 127
2, 223816, Note_on_c, 8, 56, 127
2, 223816, Note_on_c, 6, 66, 127
2, 223816, Note_on_c, 3, 75, 127
2, 224074, Note_off_c, 3, 75, 127
2, 224074, Note_off_c, 6, 66, 127
2, 224074, Note_off_c, 8, 56, 127
2, 224080, Note_on_c, 11, 58, 127
2, 224080, Note_on_c, 5, 65, 127
2, 224080, Note_on_c, 2, 74, 127
2, 224338, Note_off_c, 5, 65, 127
2, 224344, Note_on_c, 3, 63, 127
2, 224344, Note_on_c, 5, 77, 127
2, 224601, Note_off_c, 2, 74, 127
2, 224602, Note_off_c, 5, 77, 127
2, 224602, Note_off_c, 3, 63, 127
2, 224608, Note_on_c, 2, 62, 127
2, 224608, Note_on_c, 11, 82, 127
2, 224866, Note_off_c, 2, 62, 127
2, 224866, Note_off_c, 11, 58, 127
2, 224872, Note_on_c, 8, 56, 127
2, 224872, Note_on_c, 5, 65, 127
2, 225130, Note_off_c, 5, 65, 127
2, 225130, Note_off_c, 8, 56, 127
2, 225136, Note_on_c, 6, 54, 127
2, 225136, Note_on_c, 11, 58, 127
2, 225394, Note_off_c, 11, 58, 127
2, 225394, Note_off_c, 6, 54, 127
2, 225394, Note_off_c, 11, 82, 127
2, 225401, Note_on_c, 8, 56, 127
2, 225401, Note_on_c, 8, 68, 127
2, 225401, Note_on_c, 12, 83, 127
2, 225659, Note_off_c, 12, 83, 127
2, 225659, Note_off_c, 8, 68, 127
2, 225659, Note_off_c, 8, 56, 127
2, 225665, Note_on_c, 11, 58, 127
2, 225665, Note_on_c, 6, 66, 127
2, 225665, Note_on_c, 11, 82, 127
2, 225923, Note_off_c, 11, 82, 127
2, 225923, Note_off_c, 6, 66, 127
2, 225929, Note_on_c, 5, 65, 127
2, 225929, Note_on_c, 8, 80, 127
2, 226187, Note_off_c, 8, 80, 127
2, 226187, Note_off_c, 5, 65, 127
2, 226187, Note_off_c, 11, 58, 127
2, 226193, Note_on_c, 3, 51, 127
2, 226193, Note_on_c, 3, 63, 127
2, 226193, Note_on_c, 6, 78, 127
2, 226451, Note_off_c, 6, 78, 127
2, 226451, Note_off_c, 3, 51, 127
2, 226457, Note_on_c, 5, 53, 127
2, 226457, Note_on_c, 8, 80, 127
2, 226715, Note_off_c, 8, 80, 127
2, 226715, Note_off_c, 5, 53, 127
2, 226715, Note_off_c, 3, 63, 127
2, 226722, Note_on_c, 7, 55, 127
2, 226722, Note_on_c, 3, 75, 127
2, 226722, Note_on_c, 11, 82, 127
2, 226980, Note_off_c, 3, 75, 127
2, 226986, Note_on_c, 1, 73, 127
2, 227244, Note_off_c, 1, 73, 127
2, 227244, Note_off_c, 11, 82, 127
2, 227244, Note_off_c, 7, 55, 127
2, 227250, Note_on_c, 8, 56, 127
2, 227250, Note_on_c, 12, 71, 127
2, 227250, Note_on_c, 3, 75, 127
2, 227508, Note_off_c, 12, 71, 127
2, 227508, Note_off_c, 8, 56, 127
2, 227514, Note_on_c, 6, 54, 127
2, 227514, Note_on_c, 11, 70, 127
2, 227772, Note_off_c, 11, 70, 127
2, 227772, Note_off_c, 6, 54, 127
2, 227772, Note_off_c, 3, 75, 127
2, 227778, Note_on_c, 5, 53, 127
2, 227778, Note_on_c, 8, 68, 127
2, 227778, Note_on_c, 8, 80, 127
2, 228036, Note_off_c, 8, 68, 127
2, 228036, Note_off_c, 5, 53, 127
2, 228042, Note_on_c, 3, 51, 127
2, 228042, Note_on_c, 12, 71, 127
2, 228300, Note_off_c, 12, 71, 127
2, 228300, Note_off_c, 3, 51, 127
2, 228307, Note_on_c, 2, 50, 127
2, 228307, Note_on_c, 11, 70, 127
2, 228564, Note_off_c, 8, 80, 127
2, 228565, Note_off_c, 11, 70, 127
2, 228565, Note_off_c, 2, 50, 127
2, 228571, Note_on_c, 3, 51, 127
2, 228571, Note_on_c, 3, 75, 127
2, 228571, Note_on_c, 6, 78, 127
2, 228829, Note_off_c, 6, 78, 127
2, 228829, Note_off_c, 3, 51, 127
2, 228835, Note_on_c, 11, 46, 127
2, 228835, Note_on_c, 5, 77, 127
2, 229093, Note_off_c, 11, 46, 127
2, 229093, Note_off_c, 3, 75, 127
2, 229099, Note_on_c, 11, 58, 127
2, 229099, Note_on_c, 1, 73, 127
2, 229357, Note_off_c, 11, 58, 127
2, 229357, Note_off_c, 5, 77, 127
2, 229363, Note_on_c, 12, 59, 127
2, 229363, Note_on_c, 3, 75, 127
2, 229621, Note_off_c, 12, 59, 127
2, 229621, Note_off_c, 1, 73, 127
2, 229628, Note_on_c, 3, 51, 127
2, 229628, Note_on_c, 12, 71, 127
2, 229885, Note_off_c, 3, 75, 127
2, 229886, Note_off_c, 3, 51, 127
2, 229892, Note_on_c, 5, 53, 127
2, 229892, Note_on_c, 1, 73, 127
2, 230150, Note_off_c, 5, 53, 127
2, 230150, Note_off_c, 12, 71, 127
2, 230156, Note_on_c, 7, 55, 127
2, 230156, Note_on_c, 11, 70, 127
2, 230414, Note_off_c, 7, 55, 127
2, 230414, Note_off_c, 1, 73, 127
2, 230420, Note_on_c, 8, 56, 127
2, 230420, Note_on_c, 12, 71, 127
2, 230678, Note_off_c, 8, 56, 127
2, 230678, Note_off_c, 11, 70, 127
2, 230684, Note_on_c, 5, 53, 127
2, 230684, Note_on_c, 8, 68, 127
2, 230942, Note_off_c, 5, 53, 127
2, 230942, Note_off_c, 12, 71, 127
2, 230948, Note_on_c, 2, 50, 127
2, 230948, Note_on_c, 11, 70, 127
2, 231206, Note_off_c, 2, 50, 127
2, 231206, Note_off_c, 8, 68, 127
2, 231213, Note_on_c, 3, 51, 127
2, 231213, Note_on_c, 6, 66, 127
2, 231470, Note_off_c, 11, 70, 127
2, 231471, Note_off_c, 3, 51, 127
2, 231477, Note_on_c, 0, 48, 127
2, 231477, Note_on_c, 8, 68, 127
2, 231735, Note_off_c, 0, 48, 127
2, 231735, Note_off_c, 6, 66, 127
2, 231741, Note_on_c, 2, 50, 127
2, 231741, Note_on_c, 5, 65, 127
2, 231999, Note_off_c, 2, 50, 127
2, 231999, Note_off_c, 8, 68, 127
2, 232005, Note_on_c, 3, 51, 127
2, 232005, Note_on_c, 6, 66, 127
2, 232263, Note_off_c, 5, 65, 127
2, 232269, Note_on_c, 3, 39, 127
2, 232269, Note_on_c, 3, 63, 127
2, 232526, Note_off_c, 3, 51, 127
2, 232527, Note_off_c, 3, 63, 127
2, 232527, Note_off_c, 3, 39, 127
2, 232527, Note_off_c, 6, 66, 127
2, 232533, Note_on_c, 11, 46, 127
2, 232533, Note_on_c, 2, 62, 127
2, 232533, Note_on_c, 5, 65, 127
2, 232794, Note_off_c, 2, 62, 127
2, 232796, Note_off_c, 5, 65, 127
2, 232801, Note_on_c, 5, 65, 127
2, 233069, Note_on_c, 11, 70, 127
2, 233329, Note_off_c, 5, 65, 127
2, 233336, Note_on_c, 0, 72, 127
2, 233597, Note_off_c, 0, 72, 127
2, 233597, Note_off_c, 11, 46, 127
2, 233604, Note_on_c, 11, 58, 127
2, 233604, Note_on_c, 2, 74, 127
2, 233865, Note_off_c, 2, 74, 127
2, 233865, Note_off_c, 11, 70, 127
2, 233871, Note_on_c, 12, 71, 127
2, 233871, Note_on_c, 3, 75, 127
2, 234132, Note_off_c, 3, 75, 127
2, 234132, Note_off_c, 12, 71, 127
2, 234139, Note_on_c, 11, 70, 127
2, 234139, Note_on_c, 5, 77, 127
2, 234400, Note_off_c, 11, 70, 127
2, 234406, Note_on_c, 8, 68, 127
2, 234667, Note_off_c, 8, 68, 127
2, 234668, Note_off_c, 11, 58, 127
2, 234674, Note_on_c, 3, 63, 127
2, 234674, Note_on_c, 6, 66, 127
2, 234935, Note_off_c, 6, 66, 127
2, 234935, Note_off_c, 5, 77, 127
2, 234941, Note_on_c, 8, 68, 127
2, 234941, Note_on_c, 3, 75, 127
2, 235202, Note_off_c, 3, 75, 127
2, 235202, Note_off_c, 8, 68, 127
2, 235209, Note_on_c, 11, 70, 127
2, 235209, Note_on_c, 1, 73, 127
2, 235337, Note_off_c, 1, 73, 127
2, 235343, Note_on_c, 12, 71, 127
2, 235471, Note_off_c, 12, 71, 127
2, 235477, Note_on_c, 1, 73, 127
2, 235605, Note_off_c, 1, 73, 127
2, 235612, Note_on_c, 7, 79, 127
2, 235740, Note_off_c, 7, 79, 127
2, 235746, Note_on_c, 8, 80, 127
2, 235874, Note_off_c, 8, 80, 127
2, 235880, Note_on_c, 11, 82, 127
2, 236008, Note_off_c, 11, 82, 127
2, 236014, Note_on_c, 12, 83, 127
2, 236264, Note_off_c, 3, 63, 127
2, 236276, Note_off_c, 11, 70, 127
2, 236282, Note_on_c, 4, 64, 127
2, 236282, Note_on_c, 8, 68, 127
2, 236543, Note_off_c, 12, 83, 127
2, 236549, Note_on_c, 11, 82, 127
2, 236677, Note_off_c, 11, 82, 127
2, 236684, Note_on_c, 8, 80, 127
2, 236812, Note_off_c, 8, 80, 127
2, 236812, Note_off_c, 4, 64, 127
2, 236818, Note_on_c, 3, 63, 127
2, 236818, Note_on_c, 11, 82, 127
2, 237079, Note_off_c, 11, 82, 127
2, 237080, Note_off_c, 8, 68, 127
2, 237086, Note_on_c, 7, 67, 127
2, 237086, Note_on_c, 3, 75, 127
2, 237347, Note_off_c, 3, 75, 127
2, 237347, Note_off_c, 7, 67, 127
2, 237347, Note_off_c, 3, 63, 127
2, 237353, Note_on_c, 1, 61, 127
2, 237353, Note_on_c, 5, 65, 127
2, 237353, Note_on_c, 5, 77, 127
2, 237614, Note_off_c, 5, 77, 127
2, 237614, Note_off_c, 5, 65, 127
2, 237621, Note_on_c, 4, 64, 127
2, 237621, Note_on_c, 7, 79, 127
2, 237882, Note_off_c, 7, 79, 127
2, 237882, Note_off_c, 4, 64, 127
2, 237882, Note_off_c, 1, 61, 127
2, 237888, Note_on_c, 12, 59, 127
2, 237888, Note_on_c, 3, 63, 127
2, 237888, Note_on_c, 8, 80, 127
2, 238149, Note_off_c, 3, 63, 127
2, 238156, Note_on_c, 12, 71, 127
2, 238417, Note_off_c, 12, 71, 127
2, 238417, Note_off_c, 12, 59, 127
2, 238423, Note_on_c, 1, 61, 127
2, 238423, Note_on_c, 11, 70, 127
2, 238684, Note_off_c, 11, 70, 127
2, 238691, Note_on_c, 8, 68, 127
2, 238952, Note_off_c, 8, 68, 127
2, 238952, Note_off_c, 1, 61, 127
2, 238952, Note_off_c, 8, 80, 127
2, 238958, Note_on_c, 3, 63, 127
2, 238958, Note_on_c, 7, 67, 127
2, 238958, Note_on_c, 11, 82, 127
2, 239219, Note_off_c, 7, 67, 127
2, 239221, Note_off_c, 3, 63, 127
2, 239226, Note_on_c, 3, 63, 127
2, 239360, Note_on_c, 5, 65, 127
2, 239488, Note_off_c, 5, 65, 127
2, 239488, Note_off_c, 11, 82, 127
2, 239494, Note_on_c, 7, 67, 127
2, 239494, Note_on_c, 3, 75, 127
2, 239755, Note_off_c, 7, 67, 127
2, 239762, Note_on_c, 8, 68, 127
2, 239890, Note_off_c, 8, 68, 127
2, 239896, Note_on_c, 11, 70, 127
2, 240024, Note_off_c, 11, 70, 127
2, 240028, Note_off_c, 3, 63, 127
2, 240032, Note_on_c, 8, 56, 127
2, 240032, Note_on_c, 12, 71, 127
2, 240293, Note_off_c, 3, 75, 127
2, 240295, Note_off_c, 12, 71, 127
2, 240299, Note_on_c, 12, 71, 127
2, 240567, Note_on_c, 1, 73, 127
2, 240827, Note_off_c, 12, 71, 127
2, 240828, Note_off_c, 1, 73, 127
2, 240834, Note_on_c, 11, 70, 127
2, 240834, Note_on_c, 3, 75, 127
2, 241095, Note_off_c, 3, 75, 127
2, 241095, Note_off_c, 11, 70, 127
2, 241096, Note_off_c, 8, 56, 127
2, 241102, Note_on_c, 1, 61, 127
2, 241102, Note_on_c, 8, 68, 127
2, 241102, Note_on_c, 4, 76, 127
2, 241363, Note_off_c, 4, 76, 127
2, 241363, Note_off_c, 8, 68, 127
2, 241369, Note_on_c, 7, 67, 127
2, 241369, Note_on_c, 3, 75, 127
2, 241630, Note_off_c, 3, 75, 127
2, 241630, Note_off_c, 7, 67, 127
2, 241637, Note_on_c, 8, 68, 127
2, 241637, Note_on_c, 1, 73, 127
2, 241898, Note_off_c, 8, 68, 127
2, 241904, Note_on_c, 11, 70, 127
2, 242165, Note_off_c, 11, 70, 127
2, 242166, Note_off_c, 1, 73, 127
2, 242172, Note_on_c, 3, 63, 127
2, 242172, Note_on_c, 8, 80, 127
2, 242433, Note_off_c, 3, 63, 127
2, 242439, Note_on_c, 5, 65, 127
2, 242644, Note_off_c, 8, 80, 127
2, 242700, Note_off_c, 5, 65, 127
2, 242701, Note_off_c, 1, 61, 127
2, 242707, Note_on_c, 12, 59, 127
2, 242707, Note_on_c, 7, 67, 127
2, 242707, Note_on_c, 3, 75, 127
2, 242968, Note_off_c, 7, 67, 127
2, 242974, Note_on_c, 8, 68, 127
2, 243235, Note_off_c, 8, 68, 127
2, 243236, Note_off_c, 12, 59, 127
2, 243242, Note_on_c, 11, 58, 127
2, 243242, Note_on_c, 11, 70, 127
2, 243370, Note_off_c, 11, 70, 127
2, 243376, Note_on_c, 12, 71, 127
2, 243504, Note_off_c, 12, 71, 127
2, 243505, Note_off_c, 3, 75, 127
2, 243510, Note_on_c, 1, 73, 127
2, 243510, Note_on_c, 5, 77, 127
2, 243771, Note_off_c, 5, 77, 127
2, 243778, Note_on_c, 7, 79, 127
2, 244039, Note_off_c, 1, 73, 127
2, 244045, Note_on_c, 12, 71, 127
2, 244173, Note_off_c, 12, 71, 127
2, 244180, Note_on_c, 11, 70, 127
2, 244308, Note_off_c, 11, 70, 127
2, 244308, Note_off_c, 7, 79, 127
2, 244308, Note_off_c, 11, 58, 127
2, 244314, Note_on_c, 8, 56, 127
2, 244314, Note_on_c, 12, 71, 127
2, 244314, Note_on_c, 8, 80, 127
2, 244575, Note_off_c, 8, 80, 127
2, 244581, Note_on_c, 11, 82, 127
2, 244800, Note_off_c, 8, 56, 127
2, 244842, Note_off_c, 11, 82, 127
2, 244842, Note_off_c, 12, 71, 127
2, 244849, Note_on_c, 1, 61, 127
2, 244849, Note_on_c, 8, 80, 127
2, 245110, Note_off_c, 8, 80, 127
2, 245116, Note_on_c, 6, 78, 127
2, 245377, Note_off_c, 6, 78, 127
2, 245384, Note_on_c, 8, 68, 127
2, 245384, Note_on_c, 5, 77, 127
2, 245645, Note_off_c, 5, 77, 127
2, 245645, Note_off_c, 1, 61, 127
2, 245651, Note_on_c, 3, 63, 127
2, 245651, Note_on_c, 6, 78, 127
2, 245912, Note_off_c, 6, 78, 127
2, 245912, Note_off_c, 3, 63, 127
2, 245919, Note_on_c, 1, 61, 127
2, 245919, Note_on_c, 8, 80, 127
2, 246180, Note_off_c, 1, 61, 127
2, 246186, Note_on_c, 12, 59, 127
2, 246447, Note_off_c, 12, 59, 127
2, 246448, Note_off_c, 8, 68, 127
2, 246454, Note_on_c, 11, 58, 127
2, 246454, Note_on_c, 1, 73, 127
2, 246715, Note_off_c, 11, 58, 127
2, 246715, Note_off_c, 8, 80, 127
2, 246722, Note_on_c, 12, 59, 127
2, 246722, Note_on_c, 6, 78, 127
2, 246983, Note_off_c, 6, 78, 127
2, 246983, Note_off_c, 12, 59, 127
2, 246989, Note_on_c, 1, 61, 127
2, 246989, Note_on_c, 5, 77, 127
2, 247250, Note_off_c, 5, 77, 127
2, 247257, Note_on_c, 6, 78, 127
2, 247385, Note_off_c, 6, 78, 127
2, 247391, Note_on_c, 8, 80, 127
2, 247519, Note_off_c, 8, 80, 127
2, 247519, Note_off_c, 1, 61, 127
2, 247525, Note_on_c, 6, 54, 127
2, 247525, Note_on_c, 11, 82, 127
2, 247653, Note_off_c, 11, 82, 127
2, 247659, Note_on_c, 8, 80, 127
2, 247787, Note_off_c, 8, 80, 127
2, 247794, Note_on_c, 11, 82, 127
2, 248055, Note_off_c, 6, 54, 127
2, 248055, Note_off_c, 1, 73, 127
2, 248061, Note_on_c, 12, 59, 127
2, 248061, Note_on_c, 3, 75, 127
2, 248323, Note_off_c, 11, 82, 127
2, 248329, Note_on_c, 8, 80, 127
2, 248457, Note_off_c, 8, 80, 127
2, 248463, Note_on_c, 6, 78, 127
2, 248591, Note_off_c, 6, 78, 127
2, 248591, Note_off_c, 3, 75, 127
2, 248597, Note_on_c, 1, 73, 127
2, 248597, Note_on_c, 5, 77, 127
2, 248858, Note_off_c, 5, 77, 127
2, 248859, Note_off_c, 12, 59, 127
2, 248865, Note_on_c, 11, 58, 127
2, 248865, Note_on_c, 6, 78, 127
2, 249126, Note_off_c, 11, 58, 127
2, 249126, Note_off_c, 1, 73, 127
2, 249132, Note_on_c, 8, 56, 127
2, 249132, Note_on_c, 12, 71, 127
2, 249394, Note_off_c, 6, 78, 127
2, 249400, Note_on_c, 5, 77, 127
2, 249661, Note_off_c, 5, 77, 127
2, 249661, Note_off_c, 12, 71, 127
2, 249661, Note_off_c, 8, 56, 127
2, 249667, Note_on_c, 6, 54, 127
2, 249667, Note_on_c, 11, 70, 127
2, 249667, Note_on_c, 6, 78, 127
2, 249928, Note_off_c, 6, 78, 127
2, 249928, Note_off_c, 6, 54, 127
2, 249935, Note_on_c, 4, 52, 127
2, 249935, Note_on_c, 1, 73, 127
2, 250196, Note_off_c, 1, 73, 127
2, 250196, Note_off_c, 4, 52, 127
2, 250196, Note_off_c, 11, 70, 127
2, 250202, Note_on_c, 3, 51, 127
2, 250202, Note_on_c, 12, 71, 127
2, 250202, Note_on_c, 6, 78, 127
2, 250330, Note_off_c, 3, 51, 127
2, 250337, Note_on_c, 1, 49, 127
2, 250465, Note_off_c, 1, 49, 127
2, 250471, Note_on_c, 3, 51, 127
2, 250599, Note_off_c, 3, 51, 127
2, 250605, Note_on_c, 4, 52, 127
2, 250733, Note_off_c, 4, 52, 127
2, 250733, Note_off_c, 12, 71, 127
2, 250740, Note_on_c, 11, 46, 127
2, 250740, Note_on_c, 1, 73, 127
2, 251001, Note_off_c, 11, 46, 127
2, 251001, Note_off_c, 6, 78, 127
2, 251007, Note_on_c, 6, 42, 127
2, 251007, Note_on_c, 8, 80, 127
2, 251268, Note_off_c, 8, 80, 127
2, 251268, Note_off_c, 6, 42, 127
2, 251275, Note_on_c, 8, 44, 127
2, 251275, Note_on_c, 6, 78, 127
2, 251536, Note_off_c, 6, 78, 127
2, 251536, Note_off_c, 8, 44, 127
2, 251542, Note_on_c, 11, 46, 127
2, 251542, Note_on_c, 4, 76, 127
2, 251803, Note_off_c, 4, 76, 127
2, 251803, Note_off_c, 11, 46, 127
2, 251804, Note_off_c, 1, 73, 127
2, 251810, Note_on_c, 12, 47, 127
2, 251810, Note_on_c, 6, 66, 127
2, 251810, Note_on_c, 3, 75, 127
2, 252071, Note_off_c, 3, 75, 127
2, 252071, Note_off_c, 12, 47, 127
2, 252077, Note_on_c, 1, 49, 127
2, 252077, Note_on_c, 4, 76, 127
2, 252338, Note_off_c, 4, 76, 127
2, 252338, Note_off_c, 1, 49, 127
2, 252345, Note_on_c, 3, 51, 127
2, 252345, Note_on_c, 6, 78, 127
2, 252606, Note_off_c, 3, 51, 127
2, 252612, Note_on_c, 4, 52, 127
2, 252740, Note_off_c, 4, 52, 127
2, 252747, Note_on_c, 6, 54, 127
2, 252875, Note_off_c, 6, 54, 127
2, 252875, Note_off_c, 6, 66, 127
2, 252881, Note_on_c, 8, 56, 127
2, 252881, Note_on_c, 12, 71, 127
2, 253142, Note_off_c, 8, 56, 127
2, 253148, Note_on_c, 11, 58, 127
2, 253276, Note_off_c, 11, 58, 127
2, 253283, Note_on_c, 12, 59, 127
2, 253411, Note_off_c, 12, 59, 127
2, 253411, Note_off_c, 6, 78, 127
2, 253417, Note_on_c, 1, 49, 127
2, 253417, Note_on_c, 4, 76, 127
2, 253678, Note_off_c, 1, 49, 127
2, 253685, Note_on_c, 3, 51, 127
2, 253813, Note_off_c, 3, 51, 127
2, 253819, Note_on_c, 4, 52, 127
2, 253947, Note_off_c, 4, 52, 127
2, 253953, Note_on_c, 6, 42, 127
2, 254214, Note_off_c, 6, 42, 127
2, 254215, Note_off_c, 4, 76, 127
2, 254221, Note_on_c, 6, 54, 127
2, 254221, Note_on_c, 3, 75, 127
2, 254482, Note_off_c, 3, 75, 127
2, 254482, Note_off_c, 12, 71, 127
2, 254488, Note_on_c, 11, 70, 127
2, 254488, Note_on_c, 1, 73, 127
2, 254750, Note_off_c, 6, 54, 127
2, 254756, Note_on_c, 7, 55, 127
2, 255017, Note_off_c, 7, 55, 127
2, 255017, Note_off_c, 1, 73, 127
2, 255017, Note_off_c, 11, 70, 127
2, 255023, Note_on_c, 8, 56, 127
2, 255023, Note_on_c, 8, 68, 127
2, 255023, Note_on_c, 12, 71, 127
2, 255284, Note_off_c, 8, 56, 127
2, 255291, Note_on_c, 7, 55, 127
2, 255552, Note_off_c, 7, 55, 127
2, 255552, Note_off_c, 12, 71, 127
2, 255558, Note_on_c, 8, 56, 127
2, 255558, Note_on_c, 4, 76, 127
2, 255819, Note_off_c, 8, 56, 127
2, 255826, Note_on_c, 11, 58, 127
2, 256087, Note_off_c, 11, 58, 127
2, 256087, Note_off_c, 8, 68, 127
2, 256093, Note_on_c, 12, 59, 127
2, 256093, Note_on_c, 6, 66, 127
2, 256354, Note_off_c, 12, 59, 127
2, 256354, Note_off_c, 4, 76, 127
2, 256361, Note_on_c, 11, 58, 127
2, 256361, Note_on_c, 2, 74, 127
2, 256622, Note_off_c, 2, 74, 127
2, 256622, Note_off_c, 11, 58, 127
2, 256622, Note_off_c, 6, 66, 127
2, 256628, Note_on_c, 8, 56, 127
2, 256628, Note_on_c, 12, 71, 127
2, 256628, Note_on_c, 3, 75, 127
2, 256889, Note_off_c, 8, 56, 127
2, 256896, Note_on_c, 6, 54, 127
2, 257157, Note_off_c, 6, 54, 127
2, 257163, Note_on_c, 5, 53, 127
2, 257424, Note_off_c, 5, 53, 127
2, 257424, Note_off_c, 12, 71, 127
2, 257426, Note_off_c, 3, 75, 127
2, 257431, Note_on_c, 6, 54, 127
2, 257431, Note_on_c, 3, 75, 127
2, 257692, Note_off_c, 3, 75, 127
2, 257692, Note_off_c, 6, 54, 127
2, 257698, Note_on_c, 5, 53, 127
2, 257698, Note_on_c, 1, 73, 127
2, 257698, Note_on_c, 8, 80, 127
2, 257959, Note_off_c, 1, 73, 127
2, 257959, Note_off_c, 5, 53, 127
2, 257966, Note_on_c, 3, 51, 127
2, 257966, Note_on_c, 12, 71, 127
2, 258227, Note_off_c, 12, 71, 127
2, 258227, Note_off_c, 3, 51, 127
2, 258233, Note_on_c, 2, 50, 127
2, 258233, Note_on_c, 11, 70, 127
2, 258494, Note_off_c, 11, 70, 127
2, 258494, Note_off_c, 2, 50, 127
2, 258494, Note_off_c, 8, 80, 127
2, 258501, Note_on_c, 2, 62, 127
2, 258501, Note_on_c, 12, 71, 127
2, 258501, Note_on_c, 8, 80, 127
2, 258629, Note_off_c, 2, 62, 127
2, 258635, Note_on_c, 3, 63, 127
2, 258763, Note_off_c, 3, 63, 127
2, 258764, Note_off_c, 8, 80, 127
2, 258764, Note_off_c, 12, 71, 127
2, 258769, Note_on_c, 4, 64, 127
2, 258769, Note_on_c, 1, 73, 127
2, 258769, Note_on_c, 7, 79, 127
2, 259030, Note_off_c, 7, 79, 127
2, 259030, Note_off_c, 4, 64, 127
2, 259037, Note_on_c, 11, 58, 127
2, 259037, Note_on_c, 6, 78, 127
2, 259298, Note_off_c, 11, 58, 127
2, 259298, Note_off_c, 1, 73, 127
2, 259304, Note_on_c, 12, 59, 127
2, 259304, Note_on_c, 8, 68, 127
2, 259565, Note_off_c, 12, 59, 127
2, 259566, Note_off_c, 6, 78, 127
2, 259572, Note_on_c, 0, 60, 127
2, 259572, Note_on_c, 6, 78, 127
2, 259833, Note_off_c, 6, 78, 127
2, 259833, Note_off_c, 0, 60, 127
2, 259833, Note_off_c, 8, 68, 127
2, 259839, Note_on_c, 1, 61, 127
2, 259839, Note_on_c, 1, 73, 127
2, 259839, Note_on_c, 5, 77, 127
2, 260100, Note_off_c, 5, 77, 127
2, 260100, Note_off_c, 1, 61, 127
2, 260107, Note_on_c, 11, 58, 127
2, 260107, Note_on_c, 4, 76, 127
2, 260368, Note_off_c, 4, 76, 127
2, 260368, Note_off_c, 11, 58, 127
2, 260375, Note_on_c, 7, 55, 127
2, 260375, Note_on_c, 3, 75, 127
2, 260635, Note_off_c, 1, 73, 127
2, 260636, Note_off_c, 7, 55, 127
2, 260642, Note_on_c, 8, 56, 127
2, 260642, Note_on_c, 12, 71, 127
2, 260903, Note_off_c, 12, 71, 127
2, 260904, Note_off_c, 3, 75, 127
2, 260910, Note_on_c, 11, 70, 127
2, 260910, Note_on_c, 1, 73, 127
2, 261171, Note_off_c, 8, 56, 127
2, 261177, Note_on_c, 7, 55, 127
2, 261438, Note_off_c, 7, 55, 127
2, 261439, Note_off_c, 1, 73, 127
2, 261445, Note_on_c, 8, 56, 127
2, 261445, Note_on_c, 12, 71, 127
2, 261706, Note_off_c, 8, 56, 127
2, 261706, Note_off_c, 11, 70, 127
2, 261712, Note_on_c, 6, 54, 127
2, 261712, Note_on_c, 3, 63, 127
2, 261973, Note_off_c, 3, 63, 127
2, 261973, Note_off_c, 6, 54, 127
2, 261980, Note_on_c, 4, 52, 127
2, 261980, Note_on_c, 8, 68, 127
2, 262241, Note_off_c, 4, 52, 127
2, 262241, Note_off_c, 12, 71, 127
2, 262247, Note_on_c, 3, 51, 127
2, 262247, Note_on_c, 12, 71, 127
2, 262508, Note_off_c, 12, 71, 127
2, 262508, Note_off_c, 3, 51, 127
2, 262515, Note_on_c, 1, 49, 127
2, 262515, Note_on_c, 11, 70, 127
2, 262776, Note_off_c, 1, 49, 127
2, 262776, Note_off_c, 8, 68, 127
2, 262782, Note_on_c, 2, 50, 127
2, 262782, Note_on_c, 8, 68, 127
2, 263043, Note_off_c, 8, 68, 127
2, 263043, Note_off_c, 2, 50, 127
2, 263050, Note_on_c, 3, 51, 127
2, 263050, Note_on_c, 6, 66, 127
2, 263311, Note_off_c, 3, 51, 127
2, 263311, Note_off_c, 11, 70, 127
2, 263317, Note_on_c, 11, 46, 127
2, 263317, Note_on_c, 6, 78, 127
2, 263578, Note_off_c, 6, 78, 127
2, 263578, Note_off_c, 11, 46, 127
2, 263585, Note_on_c, 12, 47, 127
2, 263585, Note_on_c, 8, 68, 127
2, 263846, Note_off_c, 12, 47, 127
2, 263846, Note_off_c, 6, 66, 127
2, 263852, Note_on_c, 0, 48, 127
2, 263852, Note_on_c, 6, 66, 127
2, 264113, Note_off_c, 6, 66, 127
2, 264113, Note_off_c, 0, 48, 127
2, 264120, Note_on_c, 1, 49, 127
2, 264120, Note_on_c, 4, 64, 127
2, 264381, Note_off_c, 4, 64, 127
2, 264381, Note_off_c, 1, 49, 127
2, 264387, Note_on_c, 8, 44, 127
2, 264387, Note_on_c, 3, 63, 127
2, 264648, Note_off_c, 3, 63, 127
2, 264648, Note_off_c, 8, 44, 127
2, 264655, Note_on_c, 11, 46, 127
2, 264655, Note_on_c, 2, 62, 127
2, 264917, Note_off_c, 8, 68, 127
2, 264922, Note_on_c, 6, 66, 127
2, 265050, Note_off_c, 6, 66, 127
2, 265056, Note_on_c, 5, 65, 127
2, 265184, Note_off_c, 5, 65, 127
2, 265185, Note_off_c, 2, 62, 127
2, 265191, Note_on_c, 3, 63, 127
2, 265191, Note_on_c, 6, 66, 127
2, 265452, Note_off_c, 6, 66, 127
2, 265458, Note_on_c, 8, 68, 127
2, 265719, Note_off_c, 8, 68, 127
2, 265723, Note_off_c, 11, 46, 127
2, 265727, Note_on_c, 11, 70, 127
2, 265727, Note_on_c, 11, 46, 127
2, 265989, Note_off_c, 3, 63, 127
2, 265994, Note_on_c, 5, 53, 127
2, 265994, Note_on_c, 2, 62, 127
2, 266122, Note_off_c, 2, 62, 127
2, 266129, Note_on_c, 0, 60, 127
2, 266255, Note_off_c, 5, 53, 127
2, 266255, Note_off_c, 11, 46, 127
2, 266256, Note_off_c, 0, 60, 127
2, 266262, Note_on_c, 11, 58, 127
2, 266262, Note_on_c, 2, 62, 127
2, 266523, Note_off_c, 2, 62, 127
2, 266529, Note_on_c, 5, 65, 127
2, 266790, Note_off_c, 5, 65, 127
2, 266791, Note_off_c, 11, 70, 127
2, 266797, Note_on_c, 11, 70, 127
2, 266797, Note_on_c, 5, 77, 127
2, 267062, Note_off_c, 11, 58, 127
2, 267068, Note_on_c, 12, 59, 127
2, 267333, Note_off_c, 12, 59, 127
2, 267339, Note_on_c, 11, 58, 127
2, 267603, Note_off_c, 11, 70, 127
2, 267604, Note_off_c, 11, 58, 127
2, 267609, Note_on_c, 8, 56, 127
2, 267609, Note_on_c, 12, 71, 127
2, 267874, Note_off_c, 12, 71, 127
2, 267874, Note_off_c, 8, 56, 127
2, 267874, Note_off_c, 5, 77, 127
2, 267880, Note_on_c, 6, 54, 127
2, 267880, Note_on_c, 11, 70, 127
2, 267880, Note_on_c, 11, 82, 127
2, 268145, Note_off_c, 6, 54, 127
2, 268151, Note_on_c, 8, 56, 127
2, 268416, Note_off_c, 8, 56, 127
2, 268422, Note_on_c, 11, 58, 127
2, 268686, Note_off_c, 11, 70, 127
2, 268693, Note_on_c, 8, 68, 127
2, 268958, Note_off_c, 8, 68, 127
2, 268958, Note_off_c, 11, 58, 127
2, 268964, Note_on_c, 3, 51, 127
2, 268964, Note_on_c, 6, 66, 127
2, 269229, Note_off_c, 3, 51, 127
2, 269235, Note_on_c, 5, 53, 127
2, 269364, Note_off_c, 5, 53, 127
2, 269370, Note_on_c, 6, 54, 127
2, 269499, Note_off_c, 6, 54, 127
2, 269499, Note_off_c, 11, 82, 127
2, 269505, Note_on_c, 8, 56, 127
2, 269505, Note_on_c, 12, 83, 127
2, 269770, Note_off_c, 6, 66, 127
2, 269776, Note_on_c, 8, 68, 127
2, 270041, Note_off_c, 8, 68, 127
2, 270041, Note_off_c, 12, 83, 127
2, 270047, Note_on_c, 11, 70, 127
2, 270047, Note_on_c, 11, 82, 127
2, 270311, Note_off_c, 8, 56, 127
2, 270318, Note_on_c, 6, 54, 127
2, 270583, Note_off_c, 6, 54, 127
2, 270583, Note_off_c, 11, 82, 127
2, 270589, Note_on_c, 5, 53, 127
2, 270589, Note_on_c, 8, 80, 127
2, 270854, Note_off_c, 5, 53, 127
2, 270860, Note_on_c, 2, 62, 127
2, 271125, Note_off_c, 2, 62, 127
2, 271125, Note_off_c, 8, 80, 127
2, 271130, Note_on_c, 3, 63, 127
2, 271130, Note_on_c, 6, 78, 127
2, 271395, Note_off_c, 11, 70, 127
2, 271401, Note_on_c, 5, 65, 127
2, 271530, Note_off_c, 5, 65, 127
2, 271537, Note_on_c, 6, 66, 127
2, 271666, Note_off_c, 6, 66, 127
2, 271666, Note_off_c, 6, 78, 127
2, 271666, Note_off_c, 3, 63, 127
2, 271672, Note_on_c, 5, 65, 127
2, 271672, Note_on_c, 8, 68, 127
2, 271672, Note_on_c, 8, 80, 127
2, 271937, Note_off_c, 5, 65, 127
2, 271943, Note_on_c, 3, 63, 127
2, 272208, Note_off_c, 3, 63, 127
2, 272208, Note_off_c, 8, 80, 127
2, 272214, Note_on_c, 2, 62, 127
2, 272214, Note_on_c, 11, 82, 127
2, 272478, Note_off_c, 8, 68, 127
2, 272479, Note_off_c, 2, 62, 127
2, 272485, Note_on_c, 3, 63, 127
2, 272485, Note_on_c, 6, 66, 127
2, 272750, Note_off_c, 6, 66, 127
2, 272755, Note_on_c, 5, 65, 127
2, 273021, Note_off_c, 3, 63, 127
2, 273026, Note_on_c, 1, 61, 127
2, 273291, Note_off_c, 5, 65, 127
2, 273291, Note_off_c, 11, 82, 127
2, 273297, Note_on_c, 7, 67, 127
2, 273297, Note_on_c, 3, 75, 127
2, 273562, Note_off_c, 7, 67, 127
2, 273562, Note_off_c, 1, 61, 127
2, 273568, Note_on_c, 11, 58, 127
2, 273568, Note_on_c, 3, 63, 127
2, 273697, Note_off_c, 3, 63, 127
2, 273703, Note_on_c, 4, 64, 127
2, 273832, Note_off_c, 4, 64, 127
2, 273833, Note_off_c, 11, 58, 127
2, 273839, Note_on_c, 3, 63, 127
2, 274110, Note_on_c, 1, 61, 127
2, 274374, Note_off_c, 3, 75, 127
2, 274375, Note_off_c, 1, 61, 127
2, 274380, Note_on_c, 12, 59, 127
2, 274380, Note_on_c, 8, 80, 127
2, 274645, Note_off_c, 12, 59, 127
2, 274647, Note_off_c, 3, 63, 127
2, 274651, Note_on_c, 1, 61, 127
2, 274651, Note_on_c, 4, 64, 127
2, 274916, Note_off_c, 4, 64, 127
2, 274916, Note_off_c, 1, 61, 127
2, 274922, Note_on_c, 12, 59, 127
2, 274922, Note_on_c, 3, 63, 127
2, 275187, Note_off_c, 3, 63, 127
2, 275187, Note_off_c, 12, 59, 127
2, 275193, Note_on_c, 11, 58, 127
2, 275193, Note_on_c, 1, 61, 127
2, 275458, Note_off_c, 1, 61, 127
2, 275458, Note_off_c, 11, 58, 127
2, 275464, Note_on_c, 8, 56, 127
2, 275464, Note_on_c, 12, 59, 127
2, 275729, Note_off_c, 12, 59, 127
2, 275729, Note_off_c, 8, 56, 127
2, 275735, Note_on_c, 6, 54, 127
2, 275735, Note_on_c, 1, 61, 127
2, 275999, Note_off_c, 8, 80, 127
2, 276000, Note_off_c, 1, 61, 127
2, 276000, Note_off_c, 6, 54, 127
2, 276006, Note_on_c, 4, 52, 127
2, 276006, Note_on_c, 3, 63, 127
2, 276006, Note_on_c, 6, 78, 127
2, 276271, Note_off_c, 4, 52, 127
2, 276276, Note_on_c, 3, 51, 127
2, 276541, Note_off_c, 3, 51, 127
2, 276542, Note_off_c, 6, 78, 127
2, 276542, Note_off_c, 3, 63, 127
2, 276547, Note_on_c, 1, 49, 127
2, 276547, Note_on_c, 8, 56, 127
2, 276547, Note_on_c, 4, 76, 127
2, 276812, Note_off_c, 8, 56, 127
2, 276818, Note_on_c, 1, 61, 127
2, 276947, Note_off_c, 1, 61, 127
2, 276953, Note_on_c, 12, 59, 127
2, 277082, Note_off_c, 12, 59, 127
2, 277083, Note_off_c, 1, 49, 127
2, 277089, Note_on_c, 11, 58, 127
2, 277089, Note_on_c, 1, 61, 127
2, 277354, Note_off_c, 11, 58, 127
2, 277360, Note_on_c, 8, 56, 127
2, 277624, Note_off_c, 4, 76, 127
2, 277625, Note_off_c, 8, 56, 127
2, 277631, Note_on_c, 7, 55, 127
2, 277631, Note_on_c, 3, 75, 127
2, 277895, Note_off_c, 1, 61, 127
2, 277896, Note_off_c, 7, 55, 127
2, 277901, Note_on_c, 8, 56, 127
2, 277901, Note_on_c, 12, 59, 127
2, 278166, Note_off_c, 12, 59, 127
2, 278172, Note_on_c, 11, 58, 127
2, 278437, Note_off_c, 8, 56, 127
2, 278443, Note_on_c, 6, 54, 127
2, 278718, Note_off_c, 6, 54, 127
2, 278718, Note_off_c, 11, 58, 127
2, 278722, Note_off_c, 3, 75, 127
2, 278726, Note_on_c, 5, 53, 127
2, 278726, Note_on_c, 8, 56, 127
2, 279005, Note_on_c, 12, 71, 127
2, 279273, Note_off_c, 12, 71, 127
2, 279279, Note_on_c, 8, 68, 127
2, 279542, Note_off_c, 8, 56, 127
2, 279554, Note_on_c, 11, 58, 127
2, 279822, Note_off_c, 11, 58, 127
2, 279828, Note_on_c, 12, 59, 127
2, 280091, Note_off_c, 5, 53, 127
2, 280095, Note_off_c, 8, 68, 127
2, 280096, Note_off_c, 12, 59, 127
2, 280102, Note_on_c, 11, 70, 127
2, 280102, Note_on_c, 11, 58, 127
2, 280102, Note_on_c, 6, 54, 127
2, 280370, Note_off_c, 6, 54, 127
2, 280370, Note_off_c, 11, 58, 127
2, 280370, Note_off_c, 11, 70, 127
2, 280376, Note_on_c, 12, 71, 127
2, 280376, Note_on_c, 8, 56, 127
2, 280376, Note_on_c, 5, 53, 127
2, 280644, Note_off_c, 5, 53, 127
2, 280644, Note_off_c, 8, 56, 127
2, 280650, Note_on_c, 6, 54, 127
2, 280650, Note_on_c, 3, 51, 127
2, 280918, Note_off_c, 3, 51, 127
2, 280918, Note_off_c, 6, 54, 127
2, 280924, Note_on_c, 5, 53, 127
2, 280924, Note_on_c, 2, 50, 127
2, 281192, Note_off_c, 12, 71, 127
2, 281199, Note_on_c, 8, 68, 127
2, 281467, Note_off_c, 8, 68, 127
2, 281473, Note_on_c, 5, 65, 127
2, 281740, Note_off_c, 5, 53, 127
2, 281747, Note_on_c, 6, 54, 127
2, 282015, Note_off_c, 6, 54, 127
2, 282021, Note_on_c, 8, 56, 127
2, 282289, Note_off_c, 8, 56, 127
2, 282289, Note_off_c, 5, 65, 127
2, 282289, Note_off_c, 2, 50, 127
2, 282295, Note_on_c, 6, 66, 127
2, 282295, Note_on_c, 6, 54, 127
2, 282295, Note_on_c, 3, 51, 127
2, 282563, Note_off_c, 3, 51, 127
2, 282563, Note_off_c, 6, 54, 127
2, 282563, Note_off_c, 6, 66, 127
2, 282569, Note_on_c, 8, 68, 127
2, 282569, Note_on_c, 5, 53, 127
2, 282569, Note_on_c, 2, 50, 127
2, 282837, Note_off_c, 2, 50, 127
2, 282837, Note_off_c, 5, 53, 127
2, 282844, Note_on_c, 3, 51, 127
2, 282844, Note_on_c, 0, 48, 127
2, 283112, Note_off_c, 0, 48, 127
2, 283112, Note_off_c, 3, 51, 127
2, 283118, Note_on_c, 2, 50, 127
2, 283118, Note_on_c, 11, 46, 127
2, 283385, Note_off_c, 8, 68, 127
2, 283392, Note_on_c, 5, 65, 127
2, 283660, Note_off_c, 5, 65, 127
2, 283666, Note_on_c, 2, 62, 127
2, 283934, Note_off_c, 2, 50, 127
2, 283940, Note_on_c, 3, 51, 127
2, 284208, Note_off_c, 3, 51, 127
2, 284214, Note_on_c, 5, 53, 127
2, 284486, Note_off_c, 2, 62, 127
2, 284486, Note_off_c, 11, 46, 127
2, 284492, Note_on_c, 2, 62, 127
2, 284492, Note_on_c, 8, 44, 127
2, 284763, Note_off_c, 8, 44, 127
2, 284763, Note_off_c, 2, 62, 127
2, 284763, Note_off_c, 5, 53, 127
2, 284769, Note_on_c, 3, 63, 127
2, 284769, Note_on_c, 6, 54, 127
2, 284769, Note_on_c, 6, 42, 127
2, 285040, Note_off_c, 6, 42, 127
2, 285040, Note_off_c, 6, 54, 127
2, 285040, Note_off_c, 3, 63, 127
2, 285047, Note_on_c, 5, 65, 127
2, 285047, Note_on_c, 8, 56, 127
2, 285047, Note_on_c, 5, 41, 127
2, 285318, Note_off_c, 5, 41, 127
2, 285318, Note_off_c, 8, 56, 127
2, 285318, Note_off_c, 5, 65, 127
2, 285324, Note_on_c, 6, 66, 127
2, 285324, Note_on_c, 11, 58, 127
2, 285324, Note_on_c, 3, 39, 127
2, 285605, Note_off_c, 3, 39, 127
2, 285605, Note_off_c, 11, 58, 127
2, 285605, Note_off_c, 6, 66, 127
2, 285612, Note_on_c, 7, 67, 127
2, 285612, Note_on_c, 11, 58, 127
2, 285612, Note_on_c, 1, 49, 127
2, 285893, Note_off_c, 1, 49, 127
2, 285893, Note_off_c, 11, 58, 127
2, 285893, Note_off_c, 7, 67, 127
2, 285899, Note_on_c, 8, 68, 127
2, 285899, Note_on_c, 12, 59, 127
2, 285899, Note_on_c, 12, 47, 127
2, 286180, Note_off_c, 12, 47, 127
2, 286180, Note_off_c, 12, 59, 127
2, 286180, Note_off_c, 8, 68, 127
2, 286187, Note_on_c, 11, 70, 127
2, 286187, Note_on_c, 1, 61, 127
2, 286187, Note_on_c, 11, 46, 127
2, 286468, Note_off_c, 11, 46, 127
2, 286468, Note_off_c, 1, 61, 127
2, 286468, Note_off_c, 11, 70, 127
2, 286474, Note_on_c, 12, 71, 127
2, 286474, Note_on_c, 3, 63, 127
2, 286474, Note_on_c, 8, 44, 127
2, 286767, Note_off_c, 8, 44, 127
2, 286767, Note_off_c, 3, 63, 127
2, 286767, Note_off_c, 12, 71, 127
2, 286774, Note_on_c, 0, 72, 127
2, 286774, Note_on_c, 3, 63, 127
2, 286774, Note_on_c, 6, 54, 127
2, 287067, Note_off_c, 6, 54, 127
2, 287067, Note_off_c, 3, 63, 127
2, 287067, Note_off_c, 0, 72, 127
2, 287074, Note_on_c, 2, 74, 127
2, 287074, Note_on_c, 5, 65, 127
2, 287074, Note_on_c, 5, 53, 127
2, 287367, Note_off_c, 5, 53, 127
2, 287367, Note_off_c, 5, 65, 127
2, 287367, Note_off_c, 2, 74, 127
2, 287373, Note_on_c, 3, 75, 127
2, 287373, Note_on_c, 6, 66, 127
2, 287373, Note_on_c, 3, 51, 127
2, 287666, Note_off_c, 3, 51, 127
2, 287666, Note_off_c, 6, 66, 127
2, 287666, Note_off_c, 3, 75, 127
2, 287673, Note_on_c, 3, 75, 127
2, 287673, Note_on_c, 5, 65, 127
2, 287673, Note_on_c, 11, 58, 127
2, 288027, Note_on_c, 12, 71, 127
2, 288372, Note_off_c, 5, 65, 127
2, 288374, Note_off_c, 12, 71, 127
2, 288374, Note_off_c, 3, 75, 127
2, 288382, Note_on_c, 2, 74, 127
2, 288382, Note_on_c, 11, 70, 127
2, 288382, Note_on_c, 11, 46, 127
2, 288728, Note_off_c, 11, 70, 127
2, 288737, Note_on_c, 8, 68, 127
2, 289018, Note_off_c, 11, 58, 127
2, 289082, Note_off_c, 11, 46, 127
2, 289082, Note_off_c, 2, 74, 127
2, 289083, Note_off_c, 8, 68, 127
2, 289108, Note_on_c, 3, 75, 127
2, 289108, Note_on_c, 7, 67, 127
2, 289108, Note_on_c, 3, 39, 127
2, 292453, Note_off_c, 3, 39, 127
2, 292453, Note_off_c, 7, 67, 127
2, 292453, Note_off_c, 3, 75, 127
2, 297984, End_track
3, 0, Start_track
3, 0, Title_t, "MIDI"
3, 1536, End_track
0, 0, End_of_file
