0, 0, Header, 1, 4, 240
1, 0, Start_track
1, 0, Time_signature, 1, 4, 6, 8
1, 0, Tempo, 857143
1, 60, Time_signature, 4, 2, 24, 8
1, 60, Tempo, 833333
1, 11580, Time_signature, 1, 4, 6, 8
1, 11580, Tempo, 857143
1, 11640, Time_signature, 4, 2, 24, 8
1, 11640, Tempo, 833333
1, 23160, Time_signature, 1, 4, 6, 8
1, 23160, Tempo, 857143
1, 23220, Time_signature, 4, 2, 24, 8
1, 23220, Tempo, 833333
1, 33780, Time_signature, 15, 4, 6, 8
1, 33780, Tempo, 857143
1, 34680, Time_signature, 1, 4, 6, 8
1, 34740, Time_signature, 4, 2, 24, 8
1, 34740, Tempo, 833333
1, 45300, Time_signature, 15, 4, 6, 8
1, 45300, Tempo, 857143
1, 45300, End_track
2, 0, Start_track
2, 0, Title_t, "English Suite 6 2. Allemande"
2, 0, Program_c, 0, 0
2, 0, Note_on_c, 0, 74, 100
2, 48, Note_off_c, 0, 74, 64
2, 60, Note_on_c, 0, 74, 100
2, 60, Note_on_c, 0, 62, 100
2, 60, Note_on_c, 0, 69, 100
2, 60, Note_on_c, 0, 65, 100
2, 252, Note_off_c, 0, 65, 64
2, 252, Note_off_c, 0, 69, 64
2, 252, Note_off_c, 0, 62, 64
2, 348, Note_off_c, 0, 74, 64
2, 360, Note_on_c, 0, 77, 100
2, 408, Note_off_c, 0, 77, 64
2, 420, Note_on_c, 0, 76, 100
2, 468, Note_off_c, 0, 76, 64
2, 480, Note_on_c, 0, 74, 100
2, 528, Note_off_c, 0, 74, 64
2, 540, Note_on_c, 0, 74, 100
2, 555, Note_off_c, 0, 74, 64
2, 555, Note_on_c, 0, 73, 100
2, 570, Note_off_c, 0, 73, 64
2, 570, Note_on_c, 0, 74, 100
2, 585, Note_off_c, 0, 74, 64
2, 585, Note_on_c, 0, 73, 100
2, 600, Note_off_c, 0, 73, 64
2, 600, Note_on_c, 0, 74, 100
2, 648, Note_off_c, 0, 74, 64
2, 660, Note_on_c, 0, 76, 100
2, 708, Note_off_c, 0, 76, 64
2, 720, Note_on_c, 0, 69, 100
2, 720, Note_on_c, 0, 69, 100
2, 768, Note_off_c, 0, 69, 64
2, 780, Note_on_c, 0, 72, 100
2, 792, Note_off_c, 0, 72, 64
2, 795, Note_on_c, 0, 70, 100
2, 807, Note_off_c, 0, 70, 64
2, 810, Note_on_c, 0, 72, 100
2, 924, Note_off_c, 0, 69, 64
2, 936, Note_off_c, 0, 72, 64
2, 960, Note_on_c, 0, 72, 100
2, 960, Note_on_c, 0, 72, 100
2, 1008, Note_off_c, 0, 72, 64
2, 1020, Note_on_c, 0, 81, 100
2, 1116, Note_off_c, 0, 72, 64
2, 1164, Note_off_c, 0, 81, 64
2, 1200, Note_on_c, 0, 75, 100
2, 1248, Note_off_c, 0, 75, 64
2, 1260, Note_on_c, 0, 74, 100
2, 1308, Note_off_c, 0, 74, 64
2, 1320, Note_on_c, 0, 72, 100
2, 1368, Note_off_c, 0, 72, 64
2, 1380, Note_on_c, 0, 70, 100
2, 1428, Note_off_c, 0, 70, 64
2, 1440, Note_on_c, 0, 69, 100
2, 1488, Note_off_c, 0, 69, 64
2, 1500, Note_on_c, 0, 72, 100
2, 1512, Note_off_c, 0, 72, 64
2, 1515, Note_on_c, 0, 70, 100
2, 1527, Note_off_c, 0, 70, 64
2, 1530, Note_on_c, 0, 72, 100
2, 1542, Note_off_c, 0, 72, 64
2, 1545, Note_on_c, 0, 70, 100
2, 1608, Note_off_c, 0, 70, 64
2, 1620, Note_on_c, 0, 69, 100
2, 1668, Note_off_c, 0, 69, 64
2, 1680, Note_on_c, 0, 67, 100
2, 1680, Note_on_c, 0, 67, 100
2, 1728, Note_off_c, 0, 67, 64
2, 1755, Note_on_c, 0, 70, 100
2, 1770, Note_on_c, 0, 74, 100
2, 1785, Note_on_c, 0, 79, 100
2, 1896, Note_off_c, 0, 74, 64
2, 1896, Note_off_c, 0, 70, 64
2, 1913, Note_off_c, 0, 79, 64
2, 1920, Note_on_c, 0, 79, 100
2, 1968, Note_off_c, 0, 79, 64
2, 1980, Note_on_c, 0, 74, 100
2, 1992, Note_off_c, 0, 74, 64
2, 1995, Note_on_c, 0, 73, 100
2, 2007, Note_off_c, 0, 73, 64
2, 2010, Note_on_c, 0, 74, 100
2, 2022, Note_off_c, 0, 74, 64
2, 2025, Note_on_c, 0, 73, 100
2, 2160, Note_on_c, 0, 74, 100
2, 2172, Note_off_c, 0, 67, 64
2, 2184, Note_off_c, 0, 74, 64
2, 2184, Note_off_c, 0, 73, 64
2, 2190, Note_on_c, 0, 76, 100
2, 2214, Note_off_c, 0, 76, 64
2, 2220, Note_on_c, 0, 67, 100
2, 2268, Note_off_c, 0, 67, 64
2, 2280, Note_on_c, 0, 70, 100
2, 2328, Note_off_c, 0, 70, 64
2, 2340, Note_on_c, 0, 69, 100
2, 2388, Note_off_c, 0, 69, 64
2, 2400, Note_on_c, 0, 67, 100
2, 2448, Note_off_c, 0, 67, 64
2, 2460, Note_on_c, 0, 65, 100
2, 2508, Note_off_c, 0, 65, 64
2, 2520, Note_on_c, 0, 69, 100
2, 2544, Note_off_c, 0, 69, 64
2, 2550, Note_on_c, 0, 67, 100
2, 2574, Note_off_c, 0, 67, 64
2, 2580, Note_on_c, 0, 65, 100
2, 2604, Note_off_c, 0, 65, 64
2, 2610, Note_on_c, 0, 67, 100
2, 2634, Note_off_c, 0, 67, 64
2, 2640, Note_on_c, 0, 69, 100
2, 2688, Note_off_c, 0, 69, 64
2, 2700, Note_on_c, 0, 62, 100
2, 2844, Note_off_c, 0, 62, 64
2, 2880, Note_on_c, 0, 70, 100
2, 2928, Note_off_c, 0, 70, 64
2, 2940, Note_on_c, 0, 60, 100
2, 2940, Note_on_c, 0, 60, 100
2, 2988, Note_off_c, 0, 60, 64
2, 3000, Note_on_c, 0, 64, 100
2, 3048, Note_off_c, 0, 64, 64
2, 3060, Note_on_c, 0, 67, 100
2, 3108, Note_off_c, 0, 67, 64
2, 3120, Note_on_c, 0, 70, 100
2, 3132, Note_off_c, 0, 60, 64
2, 3168, Note_off_c, 0, 70, 64
2, 3180, Note_on_c, 0, 64, 100
2, 3180, Note_on_c, 0, 64, 100
2, 3228, Note_off_c, 0, 64, 64
2, 3240, Note_on_c, 0, 70, 100
2, 3288, Note_off_c, 0, 70, 64
2, 3300, Note_on_c, 0, 69, 100
2, 3348, Note_off_c, 0, 69, 64
2, 3360, Note_on_c, 0, 67, 100
2, 3372, Note_off_c, 0, 64, 64
2, 3408, Note_off_c, 0, 67, 64
2, 3420, Note_on_c, 0, 65, 100
2, 3420, Note_on_c, 0, 69, 100
2, 3468, Note_off_c, 0, 69, 64
2, 3480, Note_on_c, 0, 72, 100
2, 3504, Note_off_c, 0, 72, 64
2, 3510, Note_on_c, 0, 70, 100
2, 3534, Note_off_c, 0, 70, 64
2, 3540, Note_on_c, 0, 69, 100
2, 3564, Note_off_c, 0, 69, 64
2, 3570, Note_on_c, 0, 70, 100
2, 3594, Note_off_c, 0, 70, 64
2, 3600, Note_on_c, 0, 72, 100
2, 3612, Note_off_c, 0, 65, 64
2, 3648, Note_off_c, 0, 72, 64
2, 3660, Note_on_c, 0, 65, 100
2, 3804, Note_off_c, 0, 65, 64
2, 3840, Note_on_c, 0, 77, 100
2, 3888, Note_off_c, 0, 77, 64
2, 3900, Note_on_c, 0, 67, 100
2, 3900, Note_on_c, 0, 67, 100
2, 3948, Note_off_c, 0, 67, 64
2, 3960, Note_on_c, 0, 70, 100
2, 4008, Note_off_c, 0, 70, 64
2, 4020, Note_on_c, 0, 74, 100
2, 4068, Note_off_c, 0, 74, 64
2, 4080, Note_on_c, 0, 77, 100
2, 4092, Note_off_c, 0, 67, 64
2, 4128, Note_off_c, 0, 77, 64
2, 4140, Note_on_c, 0, 70, 100
2, 4140, Note_on_c, 0, 70, 100
2, 4188, Note_off_c, 0, 70, 64
2, 4200, Note_on_c, 0, 77, 100
2, 4248, Note_off_c, 0, 77, 64
2, 4260, Note_on_c, 0, 76, 100
2, 4308, Note_off_c, 0, 76, 64
2, 4320, Note_on_c, 0, 74, 100
2, 4332, Note_off_c, 0, 70, 64
2, 4368, Note_off_c, 0, 74, 64
2, 4380, Note_on_c, 0, 73, 100
2, 4428, Note_off_c, 0, 73, 64
2, 4440, Note_on_c, 0, 71, 100
2, 4488, Note_off_c, 0, 71, 64
2, 4500, Note_on_c, 0, 69, 100
2, 4548, Note_off_c, 0, 69, 64
2, 4560, Note_on_c, 0, 71, 100
2, 4608, Note_off_c, 0, 71, 64
2, 4620, Note_on_c, 0, 72, 100
2, 4635, Note_off_c, 0, 72, 64
2, 4635, Note_on_c, 0, 71, 100
2, 4650, Note_off_c, 0, 71, 64
2, 4650, Note_on_c, 0, 72, 100
2, 4800, Note_on_c, 0, 72, 100
2, 4824, Note_off_c, 0, 72, 64
2, 4848, Note_off_c, 0, 72, 64
2, 4860, Note_on_c, 0, 71, 100
2, 4908, Note_off_c, 0, 71, 64
2, 4920, Note_on_c, 0, 72, 100
2, 4968, Note_off_c, 0, 72, 64
2, 4980, Note_on_c, 0, 74, 100
2, 5100, Note_on_c, 0, 70, 100
2, 5148, Note_off_c, 0, 74, 64
2, 5160, Note_on_c, 0, 77, 100
2, 5208, Note_off_c, 0, 77, 64
2, 5220, Note_on_c, 0, 76, 100
2, 5244, Note_off_c, 0, 70, 64
2, 5268, Note_off_c, 0, 76, 64
2, 5280, Note_on_c, 0, 74, 100
2, 5328, Note_off_c, 0, 74, 64
2, 5340, Note_on_c, 0, 67, 100
2, 5340, Note_on_c, 0, 69, 100
2, 5340, Note_on_c, 0, 73, 100
2, 5388, Note_off_c, 0, 73, 64
2, 5400, Note_on_c, 0, 74, 100
2, 5448, Note_off_c, 0, 74, 64
2, 5460, Note_on_c, 0, 76, 100
2, 5484, Note_off_c, 0, 69, 64
2, 5484, Note_off_c, 0, 67, 64
2, 5628, Note_off_c, 0, 76, 64
2, 5640, Note_on_c, 0, 76, 100
2, 5688, Note_off_c, 0, 76, 64
2, 5700, Note_on_c, 0, 74, 100
2, 5748, Note_off_c, 0, 74, 64
2, 5760, Note_on_c, 0, 73, 100
2, 5808, Note_off_c, 0, 73, 64
2, 5820, Note_on_c, 0, 74, 100
2, 5820, Note_on_c, 0, 69, 100
2, 5868, Note_off_c, 0, 74, 64
2, 5880, Note_on_c, 0, 76, 100
2, 5928, Note_off_c, 0, 76, 64
2, 5940, Note_on_c, 0, 77, 100
2, 6108, Note_off_c, 0, 77, 64
2, 6120, Note_on_c, 0, 77, 100
2, 6156, Note_off_c, 0, 69, 64
2, 6168, Note_off_c, 0, 77, 64
2, 6180, Note_on_c, 0, 76, 100
2, 6228, Note_off_c, 0, 76, 64
2, 6240, Note_on_c, 0, 74, 100
2, 6288, Note_off_c, 0, 74, 64
2, 6300, Note_on_c, 0, 83, 100
2, 6348, Note_off_c, 0, 83, 64
2, 6360, Note_on_c, 0, 76, 100
2, 6408, Note_off_c, 0, 76, 64
2, 6420, Note_on_c, 0, 77, 100
2, 6468, Note_off_c, 0, 77, 64
2, 6480, Note_on_c, 0, 74, 100
2, 6528, Note_off_c, 0, 74, 64
2, 6540, Note_on_c, 0, 74, 100
2, 6540, Note_on_c, 0, 69, 100
2, 6552, Note_off_c, 0, 74, 64
2, 6555, Note_on_c, 0, 72, 100
2, 6567, Note_off_c, 0, 72, 64
2, 6570, Note_on_c, 0, 74, 100
2, 6582, Note_off_c, 0, 74, 64
2, 6585, Note_on_c, 0, 72, 100
2, 6684, Note_off_c, 0, 69, 64
2, 6696, Note_off_c, 0, 72, 64
2, 6720, Note_on_c, 0, 71, 100
2, 6720, Note_on_c, 0, 68, 100
2, 6768, Note_off_c, 0, 68, 64
2, 6768, Note_off_c, 0, 71, 64
2, 6780, Note_on_c, 0, 76, 100
2, 6780, Note_on_c, 0, 69, 100
2, 6924, Note_off_c, 0, 69, 64
2, 6924, Note_off_c, 0, 76, 64
2, 6960, Note_on_c, 0, 70, 100
2, 7008, Note_off_c, 0, 70, 64
2, 7020, Note_on_c, 0, 69, 100
2, 7068, Note_off_c, 0, 69, 64
2, 7080, Note_on_c, 0, 67, 100
2, 7128, Note_off_c, 0, 67, 64
2, 7140, Note_on_c, 0, 65, 100
2, 7188, Note_off_c, 0, 65, 64
2, 7200, Note_on_c, 0, 64, 100
2, 7248, Note_off_c, 0, 64, 64
2, 7260, Note_on_c, 0, 65, 100
2, 7356, Note_off_c, 0, 65, 64
2, 7380, Note_on_c, 0, 64, 100
2, 7428, Note_off_c, 0, 64, 64
2, 7440, Note_on_c, 0, 62, 100
2, 7440, Note_on_c, 0, 62, 100
2, 7488, Note_off_c, 0, 62, 64
2, 7500, Note_on_c, 0, 69, 100
2, 7500, Note_on_c, 0, 65, 100
2, 7500, Note_on_c, 0, 74, 100
2, 7644, Note_off_c, 0, 74, 64
2, 7680, Note_on_c, 0, 74, 100
2, 7692, Note_off_c, 0, 65, 64
2, 7692, Note_off_c, 0, 62, 64
2, 7692, Note_off_c, 0, 69, 64
2, 7728, Note_off_c, 0, 74, 64
2, 7740, Note_on_c, 0, 68, 100
2, 7740, Note_on_c, 0, 62, 100
2, 7884, Note_off_c, 0, 68, 64
2, 7920, Note_on_c, 0, 69, 100
2, 7932, Note_off_c, 0, 62, 64
2, 7944, Note_off_c, 0, 69, 64
2, 7950, Note_on_c, 0, 71, 100
2, 7974, Note_off_c, 0, 71, 64
2, 7980, Note_on_c, 0, 62, 100
2, 8028, Note_off_c, 0, 62, 64
2, 8040, Note_on_c, 0, 65, 100
2, 8088, Note_off_c, 0, 65, 64
2, 8100, Note_on_c, 0, 64, 100
2, 8148, Note_off_c, 0, 64, 64
2, 8160, Note_on_c, 0, 62, 100
2, 8208, Note_off_c, 0, 62, 64
2, 8220, Note_on_c, 0, 62, 100
2, 8268, Note_off_c, 0, 62, 64
2, 8280, Note_on_c, 0, 59, 100
2, 8328, Note_off_c, 0, 59, 64
2, 8340, Note_on_c, 0, 60, 100
2, 8388, Note_off_c, 0, 60, 64
2, 8400, Note_on_c, 0, 64, 100
2, 8448, Note_off_c, 0, 64, 64
2, 8460, Note_on_c, 0, 67, 100
2, 8460, Note_on_c, 0, 64, 100
2, 8460, Note_on_c, 0, 61, 100
2, 8460, Note_on_c, 0, 64, 100
2, 8604, Note_off_c, 0, 64, 64
2, 8604, Note_off_c, 0, 67, 64
2, 8640, Note_on_c, 0, 67, 100
2, 8652, Note_off_c, 0, 64, 64
2, 8652, Note_off_c, 0, 61, 64
2, 8688, Note_off_c, 0, 67, 64
2, 8700, Note_on_c, 0, 67, 100
2, 8700, Note_on_c, 0, 62, 100
2, 8748, Note_off_c, 0, 62, 64
2, 8748, Note_off_c, 0, 67, 64
2, 8760, Note_on_c, 0, 64, 100
2, 8808, Note_off_c, 0, 64, 64
2, 8820, Note_on_c, 0, 65, 100
2, 8868, Note_off_c, 0, 65, 64
2, 8880, Note_on_c, 0, 69, 100
2, 8928, Note_off_c, 0, 69, 64
2, 8940, Note_on_c, 0, 71, 100
2, 8988, Note_off_c, 0, 71, 64
2, 9000, Note_on_c, 0, 72, 100
2, 9048, Note_off_c, 0, 72, 64
2, 9060, Note_on_c, 0, 74, 100
2, 9108, Note_off_c, 0, 74, 64
2, 9120, Note_on_c, 0, 74, 100
2, 9168, Note_off_c, 0, 74, 64
2, 9180, Note_on_c, 0, 74, 100
2, 9228, Note_off_c, 0, 74, 64
2, 9240, Note_on_c, 0, 71, 100
2, 9288, Note_off_c, 0, 71, 64
2, 9300, Note_on_c, 0, 68, 100
2, 9348, Note_off_c, 0, 68, 64
2, 9360, Note_on_c, 0, 71, 100
2, 9408, Note_off_c, 0, 71, 64
2, 9420, Note_on_c, 0, 74, 100
2, 9468, Note_off_c, 0, 74, 64
2, 9480, Note_on_c, 0, 76, 100
2, 9504, Note_off_c, 0, 76, 64
2, 9510, Note_on_c, 0, 77, 100
2, 9534, Note_off_c, 0, 77, 64
2, 9540, Note_on_c, 0, 76, 100
2, 9588, Note_off_c, 0, 76, 64
2, 9600, Note_on_c, 0, 74, 100
2, 9648, Note_off_c, 0, 74, 64
2, 9660, Note_on_c, 0, 81, 100
2, 9660, Note_on_c, 0, 76, 100
2, 9672, Note_off_c, 0, 81, 64
2, 9675, Note_on_c, 0, 80, 100
2, 9687, Note_off_c, 0, 80, 64
2, 9690, Note_on_c, 0, 81, 100
2, 9702, Note_off_c, 0, 81, 64
2, 9705, Note_on_c, 0, 80, 100
2, 9816, Note_off_c, 0, 80, 64
2, 9840, Note_on_c, 0, 78, 100
2, 9852, Note_off_c, 0, 76, 64
2, 9864, Note_off_c, 0, 78, 64
2, 9870, Note_on_c, 0, 80, 100
2, 9894, Note_off_c, 0, 80, 64
2, 9900, Note_on_c, 0, 81, 100
2, 9948, Note_off_c, 0, 81, 64
2, 9960, Note_on_c, 0, 83, 100
2, 9984, Note_off_c, 0, 83, 64
2, 9990, Note_on_c, 0, 84, 100
2, 10014, Note_off_c, 0, 84, 64
2, 10020, Note_on_c, 0, 83, 100
2, 10068, Note_off_c, 0, 83, 64
2, 10080, Note_on_c, 0, 71, 100
2, 10080, Note_on_c, 0, 74, 100
2, 10128, Note_off_c, 0, 74, 64
2, 10128, Note_off_c, 0, 71, 64
2, 10140, Note_on_c, 0, 71, 100
2, 10140, Note_on_c, 0, 74, 100
2, 10152, Note_off_c, 0, 74, 64
2, 10155, Note_on_c, 0, 72, 100
2, 10167, Note_off_c, 0, 72, 64
2, 10170, Note_on_c, 0, 74, 100
2, 10182, Note_off_c, 0, 74, 64
2, 10185, Note_on_c, 0, 72, 100
2, 10236, Note_off_c, 0, 71, 64
2, 10260, Note_on_c, 0, 69, 100
2, 10296, Note_off_c, 0, 72, 64
2, 10320, Note_on_c, 0, 71, 100
2, 10368, Note_off_c, 0, 71, 64
2, 10380, Note_on_c, 0, 72, 100
2, 10392, Note_off_c, 0, 72, 64
2, 10395, Note_on_c, 0, 71, 100
2, 10407, Note_off_c, 0, 71, 64
2, 10410, Note_on_c, 0, 72, 100
2, 10422, Note_off_c, 0, 72, 64
2, 10425, Note_on_c, 0, 71, 100
2, 10476, Note_off_c, 0, 69, 64
2, 10500, Note_on_c, 0, 68, 100
2, 10536, Note_off_c, 0, 71, 64
2, 10560, Note_on_c, 0, 69, 100
2, 10596, Note_off_c, 0, 68, 64
2, 10608, Note_off_c, 0, 69, 64
2, 10620, Note_on_c, 0, 69, 100
2, 10620, Note_on_c, 0, 69, 100
2, 10812, Note_off_c, 0, 69, 64
2, 10812, Note_off_c, 0, 69, 64
2, 10920, Note_on_c, 0, 59, 100
2, 10968, Note_off_c, 0, 59, 64
2, 10980, Note_on_c, 0, 62, 100
2, 11028, Note_off_c, 0, 62, 64
2, 11040, Note_on_c, 0, 68, 100
2, 11088, Note_off_c, 0, 68, 64
2, 11100, Note_on_c, 0, 64, 100
2, 11100, Note_on_c, 0, 69, 100
2, 11100, Note_on_c, 0, 61, 100
2, 11388, Note_off_c, 0, 61, 64
2, 11388, Note_off_c, 0, 69, 64
2, 11388, Note_off_c, 0, 64, 64
2, 11580, Note_on_c, 0, 74, 100
2, 11628, Note_off_c, 0, 74, 64
2, 11640, Note_on_c, 0, 74, 100
2, 11640, Note_on_c, 0, 62, 100
2, 11640, Note_on_c, 0, 69, 100
2, 11640, Note_on_c, 0, 65, 100
2, 11832, Note_off_c, 0, 65, 64
2, 11832, Note_off_c, 0, 69, 64
2, 11832, Note_off_c, 0, 62, 64
2, 11928, Note_off_c, 0, 74, 64
2, 11940, Note_on_c, 0, 77, 100
2, 11988, Note_off_c, 0, 77, 64
2, 12000, Note_on_c, 0, 76, 100
2, 12048, Note_off_c, 0, 76, 64
2, 12060, Note_on_c, 0, 74, 100
2, 12108, Note_off_c, 0, 74, 64
2, 12120, Note_on_c, 0, 74, 100
2, 12135, Note_off_c, 0, 74, 64
2, 12135, Note_on_c, 0, 73, 100
2, 12150, Note_off_c, 0, 73, 64
2, 12150, Note_on_c, 0, 74, 100
2, 12165, Note_off_c, 0, 74, 64
2, 12165, Note_on_c, 0, 73, 100
2, 12180, Note_off_c, 0, 73, 64
2, 12180, Note_on_c, 0, 74, 100
2, 12228, Note_off_c, 0, 74, 64
2, 12240, Note_on_c, 0, 76, 100
2, 12288, Note_off_c, 0, 76, 64
2, 12300, Note_on_c, 0, 69, 100
2, 12300, Note_on_c, 0, 69, 100
2, 12348, Note_off_c, 0, 69, 64
2, 12360, Note_on_c, 0, 72, 100
2, 12372, Note_off_c, 0, 72, 64
2, 12375, Note_on_c, 0, 70, 100
2, 12387, Note_off_c, 0, 70, 64
2, 12390, Note_on_c, 0, 72, 100
2, 12504, Note_off_c, 0, 69, 64
2, 12516, Note_off_c, 0, 72, 64
2, 12540, Note_on_c, 0, 72, 100
2, 12540, Note_on_c, 0, 72, 100
2, 12588, Note_off_c, 0, 72, 64
2, 12600, Note_on_c, 0, 81, 100
2, 12696, Note_off_c, 0, 72, 64
2, 12744, Note_off_c, 0, 81, 64
2, 12780, Note_on_c, 0, 75, 100
2, 12828, Note_off_c, 0, 75, 64
2, 12840, Note_on_c, 0, 74, 100
2, 12888, Note_off_c, 0, 74, 64
2, 12900, Note_on_c, 0, 72, 100
2, 12948, Note_off_c, 0, 72, 64
2, 12960, Note_on_c, 0, 70, 100
2, 13008, Note_off_c, 0, 70, 64
2, 13020, Note_on_c, 0, 69, 100
2, 13068, Note_off_c, 0, 69, 64
2, 13080, Note_on_c, 0, 72, 100
2, 13092, Note_off_c, 0, 72, 64
2, 13095, Note_on_c, 0, 70, 100
2, 13107, Note_off_c, 0, 70, 64
2, 13110, Note_on_c, 0, 72, 100
2, 13122, Note_off_c, 0, 72, 64
2, 13125, Note_on_c, 0, 70, 100
2, 13188, Note_off_c, 0, 70, 64
2, 13200, Note_on_c, 0, 69, 100
2, 13248, Note_off_c, 0, 69, 64
2, 13260, Note_on_c, 0, 67, 100
2, 13260, Note_on_c, 0, 67, 100
2, 13308, Note_off_c, 0, 67, 64
2, 13335, Note_on_c, 0, 70, 100
2, 13350, Note_on_c, 0, 74, 100
2, 13365, Note_on_c, 0, 79, 100
2, 13476, Note_off_c, 0, 74, 64
2, 13476, Note_off_c, 0, 70, 64
2, 13493, Note_off_c, 0, 79, 64
2, 13500, Note_on_c, 0, 79, 100
2, 13548, Note_off_c, 0, 79, 64
2, 13560, Note_on_c, 0, 74, 100
2, 13572, Note_off_c, 0, 74, 64
2, 13575, Note_on_c, 0, 73, 100
2, 13587, Note_off_c, 0, 73, 64
2, 13590, Note_on_c, 0, 74, 100
2, 13602, Note_off_c, 0, 74, 64
2, 13605, Note_on_c, 0, 73, 100
2, 13740, Note_on_c, 0, 74, 100
2, 13752, Note_off_c, 0, 67, 64
2, 13764, Note_off_c, 0, 74, 64
2, 13764, Note_off_c, 0, 73, 64
2, 13770, Note_on_c, 0, 76, 100
2, 13794, Note_off_c, 0, 76, 64
2, 13800, Note_on_c, 0, 67, 100
2, 13848, Note_off_c, 0, 67, 64
2, 13860, Note_on_c, 0, 70, 100
2, 13908, Note_off_c, 0, 70, 64
2, 13920, Note_on_c, 0, 69, 100
2, 13968, Note_off_c, 0, 69, 64
2, 13980, Note_on_c, 0, 67, 100
2, 14028, Note_off_c, 0, 67, 64
2, 14040, Note_on_c, 0, 65, 100
2, 14088, Note_off_c, 0, 65, 64
2, 14100, Note_on_c, 0, 69, 100
2, 14124, Note_off_c, 0, 69, 64
2, 14130, Note_on_c, 0, 67, 100
2, 14154, Note_off_c, 0, 67, 64
2, 14160, Note_on_c, 0, 65, 100
2, 14184, Note_off_c, 0, 65, 64
2, 14190, Note_on_c, 0, 67, 100
2, 14214, Note_off_c, 0, 67, 64
2, 14220, Note_on_c, 0, 69, 100
2, 14268, Note_off_c, 0, 69, 64
2, 14280, Note_on_c, 0, 62, 100
2, 14424, Note_off_c, 0, 62, 64
2, 14460, Note_on_c, 0, 70, 100
2, 14508, Note_off_c, 0, 70, 64
2, 14520, Note_on_c, 0, 60, 100
2, 14520, Note_on_c, 0, 60, 100
2, 14568, Note_off_c, 0, 60, 64
2, 14580, Note_on_c, 0, 64, 100
2, 14628, Note_off_c, 0, 64, 64
2, 14640, Note_on_c, 0, 67, 100
2, 14688, Note_off_c, 0, 67, 64
2, 14700, Note_on_c, 0, 70, 100
2, 14712, Note_off_c, 0, 60, 64
2, 14748, Note_off_c, 0, 70, 64
2, 14760, Note_on_c, 0, 64, 100
2, 14760, Note_on_c, 0, 64, 100
2, 14808, Note_off_c, 0, 64, 64
2, 14820, Note_on_c, 0, 70, 100
2, 14868, Note_off_c, 0, 70, 64
2, 14880, Note_on_c, 0, 69, 100
2, 14928, Note_off_c, 0, 69, 64
2, 14940, Note_on_c, 0, 67, 100
2, 14952, Note_off_c, 0, 64, 64
2, 14988, Note_off_c, 0, 67, 64
2, 15000, Note_on_c, 0, 65, 100
2, 15000, Note_on_c, 0, 69, 100
2, 15048, Note_off_c, 0, 69, 64
2, 15060, Note_on_c, 0, 72, 100
2, 15084, Note_off_c, 0, 72, 64
2, 15090, Note_on_c, 0, 70, 100
2, 15114, Note_off_c, 0, 70, 64
2, 15120, Note_on_c, 0, 69, 100
2, 15144, Note_off_c, 0, 69, 64
2, 15150, Note_on_c, 0, 70, 100
2, 15174, Note_off_c, 0, 70, 64
2, 15180, Note_on_c, 0, 72, 100
2, 15192, Note_off_c, 0, 65, 64
2, 15228, Note_off_c, 0, 72, 64
2, 15240, Note_on_c, 0, 65, 100
2, 15384, Note_off_c, 0, 65, 64
2, 15420, Note_on_c, 0, 77, 100
2, 15468, Note_off_c, 0, 77, 64
2, 15480, Note_on_c, 0, 67, 100
2, 15480, Note_on_c, 0, 67, 100
2, 15528, Note_off_c, 0, 67, 64
2, 15540, Note_on_c, 0, 70, 100
2, 15588, Note_off_c, 0, 70, 64
2, 15600, Note_on_c, 0, 74, 100
2, 15648, Note_off_c, 0, 74, 64
2, 15660, Note_on_c, 0, 77, 100
2, 15672, Note_off_c, 0, 67, 64
2, 15708, Note_off_c, 0, 77, 64
2, 15720, Note_on_c, 0, 70, 100
2, 15720, Note_on_c, 0, 70, 100
2, 15768, Note_off_c, 0, 70, 64
2, 15780, Note_on_c, 0, 77, 100
2, 15828, Note_off_c, 0, 77, 64
2, 15840, Note_on_c, 0, 76, 100
2, 15888, Note_off_c, 0, 76, 64
2, 15900, Note_on_c, 0, 74, 100
2, 15912, Note_off_c, 0, 70, 64
2, 15948, Note_off_c, 0, 74, 64
2, 15960, Note_on_c, 0, 73, 100
2, 16008, Note_off_c, 0, 73, 64
2, 16020, Note_on_c, 0, 71, 100
2, 16068, Note_off_c, 0, 71, 64
2, 16080, Note_on_c, 0, 69, 100
2, 16128, Note_off_c, 0, 69, 64
2, 16140, Note_on_c, 0, 71, 100
2, 16188, Note_off_c, 0, 71, 64
2, 16200, Note_on_c, 0, 72, 100
2, 16215, Note_off_c, 0, 72, 64
2, 16215, Note_on_c, 0, 71, 100
2, 16230, Note_off_c, 0, 71, 64
2, 16230, Note_on_c, 0, 72, 100
2, 16380, Note_on_c, 0, 72, 100
2, 16404, Note_off_c, 0, 72, 64
2, 16428, Note_off_c, 0, 72, 64
2, 16440, Note_on_c, 0, 71, 100
2, 16488, Note_off_c, 0, 71, 64
2, 16500, Note_on_c, 0, 72, 100
2, 16548, Note_off_c, 0, 72, 64
2, 16560, Note_on_c, 0, 74, 100
2, 16680, Note_on_c, 0, 70, 100
2, 16728, Note_off_c, 0, 74, 64
2, 16740, Note_on_c, 0, 77, 100
2, 16788, Note_off_c, 0, 77, 64
2, 16800, Note_on_c, 0, 76, 100
2, 16824, Note_off_c, 0, 70, 64
2, 16848, Note_off_c, 0, 76, 64
2, 16860, Note_on_c, 0, 74, 100
2, 16908, Note_off_c, 0, 74, 64
2, 16920, Note_on_c, 0, 67, 100
2, 16920, Note_on_c, 0, 69, 100
2, 16920, Note_on_c, 0, 73, 100
2, 16968, Note_off_c, 0, 73, 64
2, 16980, Note_on_c, 0, 74, 100
2, 17028, Note_off_c, 0, 74, 64
2, 17040, Note_on_c, 0, 76, 100
2, 17064, Note_off_c, 0, 69, 64
2, 17064, Note_off_c, 0, 67, 64
2, 17208, Note_off_c, 0, 76, 64
2, 17220, Note_on_c, 0, 76, 100
2, 17268, Note_off_c, 0, 76, 64
2, 17280, Note_on_c, 0, 74, 100
2, 17328, Note_off_c, 0, 74, 64
2, 17340, Note_on_c, 0, 73, 100
2, 17388, Note_off_c, 0, 73, 64
2, 17400, Note_on_c, 0, 74, 100
2, 17400, Note_on_c, 0, 69, 100
2, 17448, Note_off_c, 0, 74, 64
2, 17460, Note_on_c, 0, 76, 100
2, 17508, Note_off_c, 0, 76, 64
2, 17520, Note_on_c, 0, 77, 100
2, 17688, Note_off_c, 0, 77, 64
2, 17700, Note_on_c, 0, 77, 100
2, 17736, Note_off_c, 0, 69, 64
2, 17748, Note_off_c, 0, 77, 64
2, 17760, Note_on_c, 0, 76, 100
2, 17808, Note_off_c, 0, 76, 64
2, 17820, Note_on_c, 0, 74, 100
2, 17868, Note_off_c, 0, 74, 64
2, 17880, Note_on_c, 0, 83, 100
2, 17928, Note_off_c, 0, 83, 64
2, 17940, Note_on_c, 0, 76, 100
2, 17988, Note_off_c, 0, 76, 64
2, 18000, Note_on_c, 0, 77, 100
2, 18048, Note_off_c, 0, 77, 64
2, 18060, Note_on_c, 0, 74, 100
2, 18108, Note_off_c, 0, 74, 64
2, 18120, Note_on_c, 0, 74, 100
2, 18120, Note_on_c, 0, 69, 100
2, 18132, Note_off_c, 0, 74, 64
2, 18135, Note_on_c, 0, 72, 100
2, 18147, Note_off_c, 0, 72, 64
2, 18150, Note_on_c, 0, 74, 100
2, 18162, Note_off_c, 0, 74, 64
2, 18165, Note_on_c, 0, 72, 100
2, 18264, Note_off_c, 0, 69, 64
2, 18276, Note_off_c, 0, 72, 64
2, 18300, Note_on_c, 0, 71, 100
2, 18300, Note_on_c, 0, 68, 100
2, 18348, Note_off_c, 0, 68, 64
2, 18348, Note_off_c, 0, 71, 64
2, 18360, Note_on_c, 0, 76, 100
2, 18360, Note_on_c, 0, 69, 100
2, 18504, Note_off_c, 0, 69, 64
2, 18504, Note_off_c, 0, 76, 64
2, 18540, Note_on_c, 0, 70, 100
2, 18588, Note_off_c, 0, 70, 64
2, 18600, Note_on_c, 0, 69, 100
2, 18648, Note_off_c, 0, 69, 64
2, 18660, Note_on_c, 0, 67, 100
2, 18708, Note_off_c, 0, 67, 64
2, 18720, Note_on_c, 0, 65, 100
2, 18768, Note_off_c, 0, 65, 64
2, 18780, Note_on_c, 0, 64, 100
2, 18828, Note_off_c, 0, 64, 64
2, 18840, Note_on_c, 0, 65, 100
2, 18936, Note_off_c, 0, 65, 64
2, 18960, Note_on_c, 0, 64, 100
2, 19008, Note_off_c, 0, 64, 64
2, 19020, Note_on_c, 0, 62, 100
2, 19020, Note_on_c, 0, 62, 100
2, 19068, Note_off_c, 0, 62, 64
2, 19080, Note_on_c, 0, 69, 100
2, 19080, Note_on_c, 0, 65, 100
2, 19080, Note_on_c, 0, 74, 100
2, 19224, Note_off_c, 0, 74, 64
2, 19260, Note_on_c, 0, 74, 100
2, 19272, Note_off_c, 0, 65, 64
2, 19272, Note_off_c, 0, 62, 64
2, 19272, Note_off_c, 0, 69, 64
2, 19308, Note_off_c, 0, 74, 64
2, 19320, Note_on_c, 0, 68, 100
2, 19320, Note_on_c, 0, 62, 100
2, 19464, Note_off_c, 0, 68, 64
2, 19500, Note_on_c, 0, 69, 100
2, 19512, Note_off_c, 0, 62, 64
2, 19524, Note_off_c, 0, 69, 64
2, 19530, Note_on_c, 0, 71, 100
2, 19554, Note_off_c, 0, 71, 64
2, 19560, Note_on_c, 0, 62, 100
2, 19608, Note_off_c, 0, 62, 64
2, 19620, Note_on_c, 0, 65, 100
2, 19668, Note_off_c, 0, 65, 64
2, 19680, Note_on_c, 0, 64, 100
2, 19728, Note_off_c, 0, 64, 64
2, 19740, Note_on_c, 0, 62, 100
2, 19788, Note_off_c, 0, 62, 64
2, 19800, Note_on_c, 0, 62, 100
2, 19848, Note_off_c, 0, 62, 64
2, 19860, Note_on_c, 0, 59, 100
2, 19908, Note_off_c, 0, 59, 64
2, 19920, Note_on_c, 0, 60, 100
2, 19968, Note_off_c, 0, 60, 64
2, 19980, Note_on_c, 0, 64, 100
2, 20028, Note_off_c, 0, 64, 64
2, 20040, Note_on_c, 0, 67, 100
2, 20040, Note_on_c, 0, 64, 100
2, 20040, Note_on_c, 0, 61, 100
2, 20040, Note_on_c, 0, 64, 100
2, 20184, Note_off_c, 0, 64, 64
2, 20184, Note_off_c, 0, 67, 64
2, 20220, Note_on_c, 0, 67, 100
2, 20232, Note_off_c, 0, 64, 64
2, 20232, Note_off_c, 0, 61, 64
2, 20268, Note_off_c, 0, 67, 64
2, 20280, Note_on_c, 0, 67, 100
2, 20280, Note_on_c, 0, 62, 100
2, 20328, Note_off_c, 0, 62, 64
2, 20328, Note_off_c, 0, 67, 64
2, 20340, Note_on_c, 0, 64, 100
2, 20388, Note_off_c, 0, 64, 64
2, 20400, Note_on_c, 0, 65, 100
2, 20448, Note_off_c, 0, 65, 64
2, 20460, Note_on_c, 0, 69, 100
2, 20508, Note_off_c, 0, 69, 64
2, 20520, Note_on_c, 0, 71, 100
2, 20568, Note_off_c, 0, 71, 64
2, 20580, Note_on_c, 0, 72, 100
2, 20628, Note_off_c, 0, 72, 64
2, 20640, Note_on_c, 0, 74, 100
2, 20688, Note_off_c, 0, 74, 64
2, 20700, Note_on_c, 0, 74, 100
2, 20748, Note_off_c, 0, 74, 64
2, 20760, Note_on_c, 0, 74, 100
2, 20808, Note_off_c, 0, 74, 64
2, 20820, Note_on_c, 0, 71, 100
2, 20868, Note_off_c, 0, 71, 64
2, 20880, Note_on_c, 0, 68, 100
2, 20928, Note_off_c, 0, 68, 64
2, 20940, Note_on_c, 0, 71, 100
2, 20988, Note_off_c, 0, 71, 64
2, 21000, Note_on_c, 0, 74, 100
2, 21048, Note_off_c, 0, 74, 64
2, 21060, Note_on_c, 0, 76, 100
2, 21084, Note_off_c, 0, 76, 64
2, 21090, Note_on_c, 0, 77, 100
2, 21114, Note_off_c, 0, 77, 64
2, 21120, Note_on_c, 0, 76, 100
2, 21168, Note_off_c, 0, 76, 64
2, 21180, Note_on_c, 0, 74, 100
2, 21228, Note_off_c, 0, 74, 64
2, 21240, Note_on_c, 0, 81, 100
2, 21240, Note_on_c, 0, 76, 100
2, 21252, Note_off_c, 0, 81, 64
2, 21255, Note_on_c, 0, 80, 100
2, 21267, Note_off_c, 0, 80, 64
2, 21270, Note_on_c, 0, 81, 100
2, 21282, Note_off_c, 0, 81, 64
2, 21285, Note_on_c, 0, 80, 100
2, 21396, Note_off_c, 0, 80, 64
2, 21420, Note_on_c, 0, 78, 100
2, 21432, Note_off_c, 0, 76, 64
2, 21444, Note_off_c, 0, 78, 64
2, 21450, Note_on_c, 0, 80, 100
2, 21474, Note_off_c, 0, 80, 64
2, 21480, Note_on_c, 0, 81, 100
2, 21528, Note_off_c, 0, 81, 64
2, 21540, Note_on_c, 0, 83, 100
2, 21564, Note_off_c, 0, 83, 64
2, 21570, Note_on_c, 0, 84, 100
2, 21594, Note_off_c, 0, 84, 64
2, 21600, Note_on_c, 0, 83, 100
2, 21648, Note_off_c, 0, 83, 64
2, 21660, Note_on_c, 0, 71, 100
2, 21660, Note_on_c, 0, 74, 100
2, 21708, Note_off_c, 0, 74, 64
2, 21708, Note_off_c, 0, 71, 64
2, 21720, Note_on_c, 0, 71, 100
2, 21720, Note_on_c, 0, 74, 100
2, 21732, Note_off_c, 0, 74, 64
2, 21735, Note_on_c, 0, 72, 100
2, 21747, Note_off_c, 0, 72, 64
2, 21750, Note_on_c, 0, 74, 100
2, 21762, Note_off_c, 0, 74, 64
2, 21765, Note_on_c, 0, 72, 100
2, 21816, Note_off_c, 0, 71, 64
2, 21840, Note_on_c, 0, 69, 100
2, 21876, Note_off_c, 0, 72, 64
2, 21900, Note_on_c, 0, 71, 100
2, 21948, Note_off_c, 0, 71, 64
2, 21960, Note_on_c, 0, 72, 100
2, 21972, Note_off_c, 0, 72, 64
2, 21975, Note_on_c, 0, 71, 100
2, 21987, Note_off_c, 0, 71, 64
2, 21990, Note_on_c, 0, 72, 100
2, 22002, Note_off_c, 0, 72, 64
2, 22005, Note_on_c, 0, 71, 100
2, 22056, Note_off_c, 0, 69, 64
2, 22080, Note_on_c, 0, 68, 100
2, 22116, Note_off_c, 0, 71, 64
2, 22140, Note_on_c, 0, 69, 100
2, 22176, Note_off_c, 0, 68, 64
2, 22188, Note_off_c, 0, 69, 64
2, 22200, Note_on_c, 0, 69, 100
2, 22200, Note_on_c, 0, 69, 100
2, 22392, Note_off_c, 0, 69, 64
2, 22392, Note_off_c, 0, 69, 64
2, 22500, Note_on_c, 0, 59, 100
2, 22548, Note_off_c, 0, 59, 64
2, 22560, Note_on_c, 0, 62, 100
2, 22608, Note_off_c, 0, 62, 64
2, 22620, Note_on_c, 0, 68, 100
2, 22668, Note_off_c, 0, 68, 64
2, 22680, Note_on_c, 0, 64, 100
2, 22680, Note_on_c, 0, 69, 100
2, 22680, Note_on_c, 0, 61, 100
2, 22968, Note_off_c, 0, 61, 64
2, 22968, Note_off_c, 0, 69, 64
2, 22968, Note_off_c, 0, 64, 64
2, 23160, Note_on_c, 0, 76, 100
2, 23208, Note_off_c, 0, 76, 64
2, 23220, Note_on_c, 0, 76, 100
2, 23220, Note_on_c, 0, 69, 100
2, 23220, Note_on_c, 0, 73, 100
2, 23268, Note_off_c, 0, 73, 64
2, 23268, Note_off_c, 0, 69, 64
2, 23268, Note_off_c, 0, 76, 64
2, 23280, Note_on_c, 0, 79, 100
2, 23304, Note_off_c, 0, 79, 64
2, 23310, Note_on_c, 0, 77, 100
2, 23334, Note_off_c, 0, 77, 64
2, 23340, Note_on_c, 0, 76, 100
2, 23364, Note_off_c, 0, 76, 64
2, 23370, Note_on_c, 0, 77, 100
2, 23394, Note_off_c, 0, 77, 64
2, 23400, Note_on_c, 0, 79, 100
2, 23448, Note_off_c, 0, 79, 64
2, 23460, Note_on_c, 0, 73, 100
2, 23508, Note_off_c, 0, 73, 64
2, 23520, Note_on_c, 0, 76, 100
2, 23544, Note_off_c, 0, 76, 64
2, 23550, Note_on_c, 0, 74, 100
2, 23574, Note_off_c, 0, 74, 64
2, 23580, Note_on_c, 0, 73, 100
2, 23604, Note_off_c, 0, 73, 64
2, 23610, Note_on_c, 0, 74, 100
2, 23634, Note_off_c, 0, 74, 64
2, 23640, Note_on_c, 0, 76, 100
2, 23688, Note_off_c, 0, 76, 64
2, 23700, Note_on_c, 0, 69, 100
2, 23844, Note_off_c, 0, 69, 64
2, 23880, Note_on_c, 0, 71, 100
2, 23928, Note_off_c, 0, 71, 64
2, 23940, Note_on_c, 0, 73, 100
2, 23988, Note_off_c, 0, 73, 64
2, 24000, Note_on_c, 0, 74, 100
2, 24048, Note_off_c, 0, 74, 64
2, 24060, Note_on_c, 0, 76, 100
2, 24108, Note_off_c, 0, 76, 64
2, 24120, Note_on_c, 0, 77, 100
2, 24168, Note_off_c, 0, 77, 64
2, 24180, Note_on_c, 0, 79, 100
2, 24228, Note_off_c, 0, 79, 64
2, 24240, Note_on_c, 0, 81, 100
2, 24288, Note_off_c, 0, 81, 64
2, 24300, Note_on_c, 0, 82, 100
2, 24348, Note_off_c, 0, 82, 64
2, 24360, Note_on_c, 0, 79, 100
2, 24408, Note_off_c, 0, 79, 64
2, 24420, Note_on_c, 0, 79, 100
2, 24432, Note_off_c, 0, 79, 64
2, 24435, Note_on_c, 0, 77, 100
2, 24447, Note_off_c, 0, 77, 64
2, 24450, Note_on_c, 0, 79, 100
2, 24462, Note_off_c, 0, 79, 64
2, 24465, Note_on_c, 0, 77, 100
2, 24576, Note_off_c, 0, 77, 64
2, 24600, Note_on_c, 0, 76, 100
2, 24648, Note_off_c, 0, 76, 64
2, 24660, Note_on_c, 0, 65, 100
2, 24660, Note_on_c, 0, 81, 100
2, 24708, Note_off_c, 0, 81, 64
2, 24708, Note_off_c, 0, 65, 64
2, 24720, Note_on_c, 0, 70, 100
2, 24720, Note_on_c, 0, 79, 100
2, 24768, Note_off_c, 0, 79, 64
2, 24768, Note_off_c, 0, 70, 64
2, 24780, Note_on_c, 0, 77, 100
2, 24780, Note_on_c, 0, 69, 100
2, 24828, Note_off_c, 0, 69, 64
2, 24828, Note_off_c, 0, 77, 64
2, 24840, Note_on_c, 0, 79, 100
2, 24840, Note_on_c, 0, 67, 100
2, 24864, Note_off_c, 0, 79, 64
2, 24870, Note_on_c, 0, 81, 100
2, 24888, Note_off_c, 0, 67, 64
2, 24894, Note_off_c, 0, 81, 64
2, 24900, Note_on_c, 0, 74, 100
2, 24900, Note_on_c, 0, 65, 100
2, 24948, Note_off_c, 0, 65, 64
2, 24948, Note_off_c, 0, 74, 64
2, 24960, Note_on_c, 0, 64, 100
2, 24960, Note_on_c, 0, 76, 100
2, 24984, Note_off_c, 0, 76, 64
2, 24990, Note_on_c, 0, 77, 100
2, 25008, Note_off_c, 0, 64, 64
2, 25014, Note_off_c, 0, 77, 64
2, 25020, Note_on_c, 0, 76, 100
2, 25020, Note_on_c, 0, 62, 100
2, 25068, Note_off_c, 0, 62, 64
2, 25068, Note_off_c, 0, 76, 64
2, 25080, Note_on_c, 0, 61, 100
2, 25080, Note_on_c, 0, 77, 100
2, 25104, Note_off_c, 0, 77, 64
2, 25110, Note_on_c, 0, 79, 100
2, 25128, Note_off_c, 0, 61, 64
2, 25140, Note_on_c, 0, 77, 100
2, 25158, Note_off_c, 0, 79, 64
2, 25188, Note_off_c, 0, 77, 64
2, 25200, Note_on_c, 0, 76, 100
2, 25248, Note_off_c, 0, 76, 64
2, 25260, Note_on_c, 0, 74, 100
2, 25308, Note_off_c, 0, 74, 64
2, 25320, Note_on_c, 0, 81, 100
2, 25368, Note_off_c, 0, 81, 64
2, 25380, Note_on_c, 0, 75, 100
2, 25380, Note_on_c, 0, 72, 127
2, 25392, Note_off_c, 0, 75, 64
2, 25395, Note_on_c, 0, 74, 100
2, 25407, Note_off_c, 0, 74, 64
2, 25410, Note_on_c, 0, 75, 100
2, 25536, Note_off_c, 0, 75, 64
2, 25560, Note_on_c, 0, 75, 100
2, 25572, Note_off_c, 0, 72, 64
2, 25608, Note_off_c, 0, 75, 64
2, 25620, Note_on_c, 0, 67, 100
2, 25632, Note_off_c, 0, 67, 64
2, 25635, Note_on_c, 0, 66, 100
2, 25647, Note_off_c, 0, 66, 64
2, 25650, Note_on_c, 0, 67, 100
2, 25662, Note_off_c, 0, 67, 64
2, 25665, Note_on_c, 0, 66, 100
2, 25677, Note_off_c, 0, 66, 64
2, 25680, Note_on_c, 0, 66, 100
2, 25776, Note_off_c, 0, 66, 64
2, 25800, Note_on_c, 0, 62, 100
2, 25848, Note_off_c, 0, 62, 64
2, 25860, Note_on_c, 0, 64, 100
2, 25908, Note_off_c, 0, 64, 64
2, 25920, Note_on_c, 0, 66, 100
2, 25968, Note_off_c, 0, 66, 64
2, 25980, Note_on_c, 0, 67, 100
2, 26028, Note_off_c, 0, 67, 64
2, 26040, Note_on_c, 0, 69, 100
2, 26088, Note_off_c, 0, 69, 64
2, 26100, Note_on_c, 0, 70, 100
2, 26148, Note_off_c, 0, 70, 64
2, 26160, Note_on_c, 0, 67, 100
2, 26184, Note_off_c, 0, 67, 64
2, 26190, Note_on_c, 0, 69, 100
2, 26214, Note_off_c, 0, 69, 64
2, 26220, Note_on_c, 0, 70, 100
2, 26244, Note_off_c, 0, 70, 64
2, 26250, Note_on_c, 0, 69, 100
2, 26274, Note_off_c, 0, 69, 64
2, 26280, Note_on_c, 0, 67, 100
2, 26328, Note_off_c, 0, 67, 64
2, 26340, Note_on_c, 0, 75, 100
2, 26400, Note_on_c, 0, 67, 100
2, 26448, Note_off_c, 0, 67, 64
2, 26460, Note_on_c, 0, 72, 100
2, 26484, Note_off_c, 0, 75, 64
2, 26508, Note_off_c, 0, 72, 64
2, 26520, Note_on_c, 0, 70, 100
2, 26520, Note_on_c, 0, 75, 100
2, 26568, Note_off_c, 0, 75, 64
2, 26568, Note_off_c, 0, 70, 64
2, 26580, Note_on_c, 0, 75, 100
2, 26580, Note_on_c, 0, 69, 100
2, 26628, Note_off_c, 0, 69, 64
2, 26628, Note_off_c, 0, 75, 64
2, 26640, Note_on_c, 0, 65, 100
2, 26664, Note_off_c, 0, 65, 64
2, 26670, Note_on_c, 0, 67, 100
2, 26694, Note_off_c, 0, 67, 64
2, 26700, Note_on_c, 0, 69, 100
2, 26724, Note_off_c, 0, 69, 64
2, 26730, Note_on_c, 0, 67, 100
2, 26754, Note_off_c, 0, 67, 64
2, 26760, Note_on_c, 0, 65, 100
2, 26808, Note_off_c, 0, 65, 64
2, 26820, Note_on_c, 0, 74, 100
2, 26880, Note_on_c, 0, 65, 100
2, 26928, Note_off_c, 0, 65, 64
2, 26940, Note_on_c, 0, 70, 100
2, 26964, Note_off_c, 0, 74, 64
2, 26988, Note_off_c, 0, 70, 64
2, 27000, Note_on_c, 0, 74, 100
2, 27000, Note_on_c, 0, 69, 100
2, 27048, Note_off_c, 0, 69, 64
2, 27048, Note_off_c, 0, 74, 64
2, 27060, Note_on_c, 0, 74, 100
2, 27060, Note_on_c, 0, 67, 100
2, 27108, Note_off_c, 0, 74, 64
2, 27120, Note_on_c, 0, 79, 100
2, 27144, Note_off_c, 0, 79, 64
2, 27150, Note_on_c, 0, 77, 100
2, 27156, Note_off_c, 0, 67, 64
2, 27174, Note_off_c, 0, 77, 64
2, 27180, Note_on_c, 0, 75, 100
2, 27204, Note_off_c, 0, 75, 64
2, 27210, Note_on_c, 0, 77, 100
2, 27234, Note_off_c, 0, 77, 64
2, 27240, Note_on_c, 0, 79, 100
2, 27288, Note_off_c, 0, 79, 64
2, 27300, Note_on_c, 0, 72, 100
2, 27360, Note_on_c, 0, 78, 100
2, 27408, Note_off_c, 0, 78, 64
2, 27420, Note_on_c, 0, 79, 100
2, 27444, Note_off_c, 0, 72, 64
2, 27468, Note_off_c, 0, 79, 64
2, 27480, Note_on_c, 0, 81, 100
2, 27480, Note_on_c, 0, 72, 100
2, 27528, Note_off_c, 0, 72, 64
2, 27528, Note_off_c, 0, 81, 64
2, 27540, Note_on_c, 0, 74, 100
2, 27540, Note_on_c, 0, 72, 100
2, 27588, Note_off_c, 0, 72, 64
2, 27600, Note_on_c, 0, 70, 100
2, 27624, Note_off_c, 0, 70, 64
2, 27630, Note_on_c, 0, 69, 100
2, 27654, Note_off_c, 0, 69, 64
2, 27660, Note_on_c, 0, 70, 100
2, 27684, Note_off_c, 0, 74, 64
2, 27708, Note_off_c, 0, 70, 64
2, 27720, Note_on_c, 0, 67, 100
2, 27720, Note_on_c, 0, 75, 100
2, 27768, Note_off_c, 0, 75, 64
2, 27768, Note_off_c, 0, 67, 64
2, 27780, Note_on_c, 0, 70, 100
2, 27780, Note_on_c, 0, 66, 100
2, 27792, Note_off_c, 0, 70, 64
2, 27795, Note_on_c, 0, 69, 100
2, 27807, Note_off_c, 0, 69, 64
2, 27810, Note_on_c, 0, 70, 100
2, 27822, Note_off_c, 0, 70, 64
2, 27825, Note_on_c, 0, 69, 100
2, 27936, Note_off_c, 0, 69, 64
2, 27960, Note_on_c, 0, 67, 100
2, 27972, Note_off_c, 0, 66, 64
2, 28008, Note_off_c, 0, 67, 64
2, 28020, Note_on_c, 0, 67, 100
2, 28308, Note_off_c, 0, 67, 64
2, 28320, Note_on_c, 0, 66, 100
2, 28368, Note_off_c, 0, 66, 64
2, 28380, Note_on_c, 0, 67, 100
2, 28428, Note_off_c, 0, 67, 64
2, 28440, Note_on_c, 0, 69, 100
2, 28488, Note_off_c, 0, 69, 64
2, 28500, Note_on_c, 0, 71, 100
2, 28548, Note_off_c, 0, 71, 64
2, 28560, Note_on_c, 0, 69, 100
2, 28608, Note_off_c, 0, 69, 64
2, 28620, Note_on_c, 0, 67, 100
2, 28668, Note_off_c, 0, 67, 64
2, 28680, Note_on_c, 0, 74, 100
2, 28728, Note_off_c, 0, 74, 64
2, 28740, Note_on_c, 0, 65, 100
2, 28884, Note_off_c, 0, 65, 64
2, 28920, Note_on_c, 0, 65, 100
2, 28968, Note_off_c, 0, 65, 64
2, 28980, Note_on_c, 0, 59, 100
2, 29124, Note_off_c, 0, 59, 64
2, 29160, Note_on_c, 0, 67, 100
2, 29208, Note_off_c, 0, 67, 64
2, 29220, Note_on_c, 0, 69, 100
2, 29268, Note_off_c, 0, 69, 64
2, 29280, Note_on_c, 0, 71, 100
2, 29328, Note_off_c, 0, 71, 64
2, 29340, Note_on_c, 0, 72, 100
2, 29388, Note_off_c, 0, 72, 64
2, 29400, Note_on_c, 0, 74, 100
2, 29448, Note_off_c, 0, 74, 64
2, 29460, Note_on_c, 0, 76, 100
2, 29508, Note_off_c, 0, 76, 64
2, 29520, Note_on_c, 0, 72, 100
2, 29544, Note_off_c, 0, 72, 64
2, 29550, Note_on_c, 0, 74, 100
2, 29574, Note_off_c, 0, 74, 64
2, 29580, Note_on_c, 0, 76, 100
2, 29604, Note_off_c, 0, 76, 64
2, 29610, Note_on_c, 0, 74, 100
2, 29639, Note_off_c, 0, 74, 64
2, 29640, Note_on_c, 0, 72, 100
2, 29688, Note_off_c, 0, 72, 64
2, 29700, Note_on_c, 0, 79, 100
2, 29844, Note_off_c, 0, 79, 64
2, 29880, Note_on_c, 0, 79, 100
2, 29928, Note_off_c, 0, 79, 64
2, 29940, Note_on_c, 0, 79, 100
2, 29988, Note_off_c, 0, 79, 64
2, 30000, Note_on_c, 0, 76, 100
2, 30024, Note_off_c, 0, 76, 64
2, 30030, Note_on_c, 0, 74, 100
2, 30054, Note_off_c, 0, 74, 64
2, 30060, Note_on_c, 0, 73, 100
2, 30084, Note_off_c, 0, 73, 64
2, 30090, Note_on_c, 0, 74, 100
2, 30114, Note_off_c, 0, 74, 64
2, 30120, Note_on_c, 0, 76, 100
2, 30168, Note_off_c, 0, 76, 64
2, 30180, Note_on_c, 0, 67, 100
2, 30228, Note_off_c, 0, 67, 64
2, 30240, Note_on_c, 0, 70, 100
2, 30288, Note_off_c, 0, 70, 64
2, 30300, Note_on_c, 0, 70, 100
2, 30312, Note_off_c, 0, 70, 64
2, 30315, Note_on_c, 0, 69, 100
2, 30327, Note_off_c, 0, 69, 64
2, 30330, Note_on_c, 0, 70, 100
2, 30342, Note_off_c, 0, 70, 64
2, 30345, Note_on_c, 0, 69, 100
2, 30357, Note_off_c, 0, 69, 64
2, 30360, Note_on_c, 0, 67, 100
2, 30408, Note_off_c, 0, 67, 64
2, 30420, Note_on_c, 0, 76, 100
2, 30480, Note_on_c, 0, 70, 100
2, 30528, Note_off_c, 0, 70, 64
2, 30540, Note_on_c, 0, 69, 100
2, 30588, Note_off_c, 0, 69, 64
2, 30600, Note_on_c, 0, 67, 100
2, 30648, Note_off_c, 0, 67, 64
2, 30660, Note_on_c, 0, 67, 100
2, 30672, Note_off_c, 0, 67, 64
2, 30675, Note_on_c, 0, 65, 100
2, 30687, Note_off_c, 0, 65, 64
2, 30690, Note_on_c, 0, 67, 100
2, 30702, Note_off_c, 0, 67, 64
2, 30705, Note_on_c, 0, 65, 100
2, 30816, Note_off_c, 0, 65, 64
2, 30840, Note_on_c, 0, 64, 100
2, 30888, Note_off_c, 0, 64, 64
2, 30900, Note_on_c, 0, 69, 100
2, 31044, Note_off_c, 0, 76, 64
2, 31080, Note_on_c, 0, 79, 100
2, 31128, Note_off_c, 0, 79, 64
2, 31140, Note_on_c, 0, 77, 100
2, 31188, Note_off_c, 0, 77, 64
2, 31200, Note_on_c, 0, 76, 100
2, 31248, Note_off_c, 0, 76, 64
2, 31260, Note_on_c, 0, 74, 100
2, 31308, Note_off_c, 0, 74, 64
2, 31320, Note_on_c, 0, 72, 100
2, 31368, Note_off_c, 0, 72, 64
2, 31380, Note_on_c, 0, 70, 100
2, 31428, Note_off_c, 0, 69, 64
2, 31440, Note_on_c, 0, 69, 100
2, 31488, Note_off_c, 0, 69, 64
2, 31500, Note_on_c, 0, 67, 100
2, 31524, Note_off_c, 0, 70, 64
2, 31560, Note_on_c, 0, 81, 100
2, 31596, Note_off_c, 0, 67, 64
2, 31608, Note_off_c, 0, 81, 64
2, 31620, Note_on_c, 0, 79, 100
2, 31620, Note_on_c, 0, 70, 100
2, 31668, Note_off_c, 0, 79, 64
2, 31680, Note_on_c, 0, 77, 100
2, 31728, Note_off_c, 0, 77, 64
2, 31740, Note_on_c, 0, 76, 100
2, 31788, Note_off_c, 0, 76, 64
2, 31800, Note_on_c, 0, 74, 100
2, 31848, Note_off_c, 0, 74, 64
2, 31860, Note_on_c, 0, 73, 100
2, 32148, Note_off_c, 0, 70, 64
2, 32160, Note_on_c, 0, 70, 100
2, 32208, Note_off_c, 0, 70, 64
2, 32220, Note_on_c, 0, 69, 100
2, 32244, Note_off_c, 0, 73, 64
2, 32280, Note_on_c, 0, 73, 100
2, 32316, Note_off_c, 0, 69, 64
2, 32328, Note_off_c, 0, 73, 64
2, 32340, Note_on_c, 0, 74, 100
2, 32388, Note_off_c, 0, 74, 64
2, 32400, Note_on_c, 0, 72, 100
2, 32448, Note_off_c, 0, 72, 64
2, 32460, Note_on_c, 0, 70, 100
2, 32508, Note_off_c, 0, 70, 64
2, 32520, Note_on_c, 0, 69, 100
2, 32568, Note_off_c, 0, 69, 64
2, 32580, Note_on_c, 0, 67, 100
2, 32724, Note_off_c, 0, 67, 64
2, 32760, Note_on_c, 0, 67, 100
2, 32760, Note_on_c, 0, 67, 127
2, 32808, Note_off_c, 0, 67, 64
2, 32820, Note_on_c, 0, 76, 100
2, 32916, Note_off_c, 0, 67, 64
2, 32964, Note_off_c, 0, 76, 64
2, 33000, Note_on_c, 0, 70, 100
2, 33048, Note_off_c, 0, 70, 64
2, 33060, Note_on_c, 0, 69, 100
2, 33108, Note_off_c, 0, 69, 64
2, 33120, Note_on_c, 0, 67, 100
2, 33168, Note_off_c, 0, 67, 64
2, 33180, Note_on_c, 0, 65, 100
2, 33228, Note_off_c, 0, 65, 64
2, 33240, Note_on_c, 0, 64, 100
2, 33288, Note_off_c, 0, 64, 64
2, 33300, Note_on_c, 0, 65, 100
2, 33300, Note_on_c, 0, 65, 100
2, 33348, Note_off_c, 0, 65, 64
2, 33360, Note_on_c, 0, 69, 100
2, 33408, Note_off_c, 0, 69, 64
2, 33420, Note_on_c, 0, 73, 100
2, 33468, Note_off_c, 0, 73, 64
2, 33480, Note_on_c, 0, 74, 100
2, 33492, Note_off_c, 0, 65, 64
2, 33528, Note_off_c, 0, 74, 64
2, 33540, Note_on_c, 0, 61, 100
2, 33540, Note_on_c, 0, 64, 100
2, 33684, Note_off_c, 0, 64, 64
2, 33720, Note_on_c, 0, 62, 100
2, 33732, Note_off_c, 0, 61, 64
2, 33768, Note_off_c, 0, 62, 64
2, 33780, Note_on_c, 0, 62, 100
2, 33828, Note_off_c, 0, 62, 64
2, 33840, Note_on_c, 0, 66, 100
2, 33864, Note_off_c, 0, 66, 64
2, 33870, Note_on_c, 0, 67, 100
2, 33894, Note_off_c, 0, 67, 64
2, 33900, Note_on_c, 0, 69, 100
2, 33924, Note_off_c, 0, 69, 64
2, 33930, Note_on_c, 0, 67, 100
2, 33954, Note_off_c, 0, 67, 64
2, 33960, Note_on_c, 0, 66, 100
2, 34008, Note_off_c, 0, 66, 64
2, 34020, Note_on_c, 0, 67, 100
2, 34068, Note_off_c, 0, 67, 64
2, 34080, Note_on_c, 0, 64, 100
2, 34080, Note_on_c, 0, 64, 100
2, 34128, Note_off_c, 0, 64, 64
2, 34140, Note_on_c, 0, 67, 100
2, 34188, Note_off_c, 0, 67, 64
2, 34200, Note_on_c, 0, 73, 100
2, 34224, Note_off_c, 0, 64, 64
2, 34248, Note_off_c, 0, 73, 64
2, 34260, Note_on_c, 0, 74, 100
2, 34260, Note_on_c, 0, 66, 100
2, 34260, Note_on_c, 0, 69, 100
2, 34548, Note_off_c, 0, 69, 64
2, 34548, Note_off_c, 0, 66, 64
2, 34548, Note_off_c, 0, 74, 64
2, 34680, Note_on_c, 0, 76, 100
2, 34728, Note_off_c, 0, 76, 64
2, 34740, Note_on_c, 0, 76, 100
2, 34740, Note_on_c, 0, 69, 100
2, 34740, Note_on_c, 0, 73, 100
2, 34788, Note_off_c, 0, 73, 64
2, 34788, Note_off_c, 0, 69, 64
2, 34788, Note_off_c, 0, 76, 64
2, 34800, Note_on_c, 0, 79, 100
2, 34824, Note_off_c, 0, 79, 64
2, 34830, Note_on_c, 0, 77, 100
2, 34854, Note_off_c, 0, 77, 64
2, 34860, Note_on_c, 0, 76, 100
2, 34884, Note_off_c, 0, 76, 64
2, 34890, Note_on_c, 0, 77, 100
2, 34914, Note_off_c, 0, 77, 64
2, 34920, Note_on_c, 0, 79, 100
2, 34968, Note_off_c, 0, 79, 64
2, 34980, Note_on_c, 0, 73, 100
2, 35028, Note_off_c, 0, 73, 64
2, 35040, Note_on_c, 0, 76, 100
2, 35064, Note_off_c, 0, 76, 64
2, 35070, Note_on_c, 0, 74, 100
2, 35094, Note_off_c, 0, 74, 64
2, 35100, Note_on_c, 0, 73, 100
2, 35124, Note_off_c, 0, 73, 64
2, 35130, Note_on_c, 0, 74, 100
2, 35154, Note_off_c, 0, 74, 64
2, 35160, Note_on_c, 0, 76, 100
2, 35208, Note_off_c, 0, 76, 64
2, 35220, Note_on_c, 0, 69, 100
2, 35364, Note_off_c, 0, 69, 64
2, 35400, Note_on_c, 0, 71, 100
2, 35448, Note_off_c, 0, 71, 64
2, 35460, Note_on_c, 0, 73, 100
2, 35508, Note_off_c, 0, 73, 64
2, 35520, Note_on_c, 0, 74, 100
2, 35568, Note_off_c, 0, 74, 64
2, 35580, Note_on_c, 0, 76, 100
2, 35628, Note_off_c, 0, 76, 64
2, 35640, Note_on_c, 0, 77, 100
2, 35688, Note_off_c, 0, 77, 64
2, 35700, Note_on_c, 0, 79, 100
2, 35748, Note_off_c, 0, 79, 64
2, 35760, Note_on_c, 0, 81, 100
2, 35808, Note_off_c, 0, 81, 64
2, 35820, Note_on_c, 0, 82, 100
2, 35868, Note_off_c, 0, 82, 64
2, 35880, Note_on_c, 0, 79, 100
2, 35928, Note_off_c, 0, 79, 64
2, 35940, Note_on_c, 0, 79, 100
2, 35952, Note_off_c, 0, 79, 64
2, 35955, Note_on_c, 0, 77, 100
2, 35967, Note_off_c, 0, 77, 64
2, 35970, Note_on_c, 0, 79, 100
2, 35982, Note_off_c, 0, 79, 64
2, 35985, Note_on_c, 0, 77, 100
2, 36096, Note_off_c, 0, 77, 64
2, 36120, Note_on_c, 0, 76, 100
2, 36168, Note_off_c, 0, 76, 64
2, 36180, Note_on_c, 0, 65, 100
2, 36180, Note_on_c, 0, 81, 100
2, 36228, Note_off_c, 0, 81, 64
2, 36228, Note_off_c, 0, 65, 64
2, 36240, Note_on_c, 0, 70, 100
2, 36240, Note_on_c, 0, 79, 100
2, 36288, Note_off_c, 0, 79, 64
2, 36288, Note_off_c, 0, 70, 64
2, 36300, Note_on_c, 0, 77, 100
2, 36300, Note_on_c, 0, 69, 100
2, 36348, Note_off_c, 0, 69, 64
2, 36348, Note_off_c, 0, 77, 64
2, 36360, Note_on_c, 0, 79, 100
2, 36360, Note_on_c, 0, 67, 100
2, 36384, Note_off_c, 0, 79, 64
2, 36390, Note_on_c, 0, 81, 100
2, 36408, Note_off_c, 0, 67, 64
2, 36414, Note_off_c, 0, 81, 64
2, 36420, Note_on_c, 0, 74, 100
2, 36420, Note_on_c, 0, 65, 100
2, 36468, Note_off_c, 0, 65, 64
2, 36468, Note_off_c, 0, 74, 64
2, 36480, Note_on_c, 0, 64, 100
2, 36480, Note_on_c, 0, 76, 100
2, 36504, Note_off_c, 0, 76, 64
2, 36510, Note_on_c, 0, 77, 100
2, 36528, Note_off_c, 0, 64, 64
2, 36534, Note_off_c, 0, 77, 64
2, 36540, Note_on_c, 0, 76, 100
2, 36540, Note_on_c, 0, 62, 100
2, 36588, Note_off_c, 0, 62, 64
2, 36588, Note_off_c, 0, 76, 64
2, 36600, Note_on_c, 0, 61, 100
2, 36600, Note_on_c, 0, 77, 100
2, 36624, Note_off_c, 0, 77, 64
2, 36630, Note_on_c, 0, 79, 100
2, 36648, Note_off_c, 0, 61, 64
2, 36660, Note_on_c, 0, 77, 100
2, 36678, Note_off_c, 0, 79, 64
2, 36708, Note_off_c, 0, 77, 64
2, 36720, Note_on_c, 0, 76, 100
2, 36768, Note_off_c, 0, 76, 64
2, 36780, Note_on_c, 0, 74, 100
2, 36828, Note_off_c, 0, 74, 64
2, 36840, Note_on_c, 0, 81, 100
2, 36888, Note_off_c, 0, 81, 64
2, 36900, Note_on_c, 0, 75, 100
2, 36900, Note_on_c, 0, 72, 127
2, 36912, Note_off_c, 0, 75, 64
2, 36915, Note_on_c, 0, 74, 100
2, 36927, Note_off_c, 0, 74, 64
2, 36930, Note_on_c, 0, 75, 100
2, 37056, Note_off_c, 0, 75, 64
2, 37080, Note_on_c, 0, 75, 100
2, 37092, Note_off_c, 0, 72, 64
2, 37128, Note_off_c, 0, 75, 64
2, 37140, Note_on_c, 0, 67, 100
2, 37152, Note_off_c, 0, 67, 64
2, 37155, Note_on_c, 0, 66, 100
2, 37167, Note_off_c, 0, 66, 64
2, 37170, Note_on_c, 0, 67, 100
2, 37182, Note_off_c, 0, 67, 64
2, 37185, Note_on_c, 0, 66, 100
2, 37197, Note_off_c, 0, 66, 64
2, 37200, Note_on_c, 0, 66, 100
2, 37296, Note_off_c, 0, 66, 64
2, 37320, Note_on_c, 0, 62, 100
2, 37368, Note_off_c, 0, 62, 64
2, 37380, Note_on_c, 0, 64, 100
2, 37428, Note_off_c, 0, 64, 64
2, 37440, Note_on_c, 0, 66, 100
2, 37488, Note_off_c, 0, 66, 64
2, 37500, Note_on_c, 0, 67, 100
2, 37548, Note_off_c, 0, 67, 64
2, 37560, Note_on_c, 0, 69, 100
2, 37608, Note_off_c, 0, 69, 64
2, 37620, Note_on_c, 0, 70, 100
2, 37668, Note_off_c, 0, 70, 64
2, 37680, Note_on_c, 0, 67, 100
2, 37704, Note_off_c, 0, 67, 64
2, 37710, Note_on_c, 0, 69, 100
2, 37734, Note_off_c, 0, 69, 64
2, 37740, Note_on_c, 0, 70, 100
2, 37764, Note_off_c, 0, 70, 64
2, 37770, Note_on_c, 0, 69, 100
2, 37794, Note_off_c, 0, 69, 64
2, 37800, Note_on_c, 0, 67, 100
2, 37848, Note_off_c, 0, 67, 64
2, 37860, Note_on_c, 0, 75, 100
2, 37920, Note_on_c, 0, 67, 100
2, 37968, Note_off_c, 0, 67, 64
2, 37980, Note_on_c, 0, 72, 100
2, 38004, Note_off_c, 0, 75, 64
2, 38028, Note_off_c, 0, 72, 64
2, 38040, Note_on_c, 0, 70, 100
2, 38040, Note_on_c, 0, 75, 100
2, 38088, Note_off_c, 0, 75, 64
2, 38088, Note_off_c, 0, 70, 64
2, 38100, Note_on_c, 0, 75, 100
2, 38100, Note_on_c, 0, 69, 100
2, 38148, Note_off_c, 0, 69, 64
2, 38148, Note_off_c, 0, 75, 64
2, 38160, Note_on_c, 0, 65, 100
2, 38184, Note_off_c, 0, 65, 64
2, 38190, Note_on_c, 0, 67, 100
2, 38214, Note_off_c, 0, 67, 64
2, 38220, Note_on_c, 0, 69, 100
2, 38244, Note_off_c, 0, 69, 64
2, 38250, Note_on_c, 0, 67, 100
2, 38274, Note_off_c, 0, 67, 64
2, 38280, Note_on_c, 0, 65, 100
2, 38328, Note_off_c, 0, 65, 64
2, 38340, Note_on_c, 0, 74, 100
2, 38400, Note_on_c, 0, 65, 100
2, 38448, Note_off_c, 0, 65, 64
2, 38460, Note_on_c, 0, 70, 100
2, 38484, Note_off_c, 0, 74, 64
2, 38508, Note_off_c, 0, 70, 64
2, 38520, Note_on_c, 0, 74, 100
2, 38520, Note_on_c, 0, 69, 100
2, 38568, Note_off_c, 0, 69, 64
2, 38568, Note_off_c, 0, 74, 64
2, 38580, Note_on_c, 0, 74, 100
2, 38580, Note_on_c, 0, 67, 100
2, 38628, Note_off_c, 0, 74, 64
2, 38640, Note_on_c, 0, 79, 100
2, 38664, Note_off_c, 0, 79, 64
2, 38670, Note_on_c, 0, 77, 100
2, 38676, Note_off_c, 0, 67, 64
2, 38694, Note_off_c, 0, 77, 64
2, 38700, Note_on_c, 0, 75, 100
2, 38724, Note_off_c, 0, 75, 64
2, 38730, Note_on_c, 0, 77, 100
2, 38754, Note_off_c, 0, 77, 64
2, 38760, Note_on_c, 0, 79, 100
2, 38808, Note_off_c, 0, 79, 64
2, 38820, Note_on_c, 0, 72, 100
2, 38880, Note_on_c, 0, 78, 100
2, 38928, Note_off_c, 0, 78, 64
2, 38940, Note_on_c, 0, 79, 100
2, 38964, Note_off_c, 0, 72, 64
2, 38988, Note_off_c, 0, 79, 64
2, 39000, Note_on_c, 0, 81, 100
2, 39000, Note_on_c, 0, 72, 100
2, 39048, Note_off_c, 0, 72, 64
2, 39048, Note_off_c, 0, 81, 64
2, 39060, Note_on_c, 0, 74, 100
2, 39060, Note_on_c, 0, 72, 100
2, 39108, Note_off_c, 0, 72, 64
2, 39120, Note_on_c, 0, 70, 100
2, 39144, Note_off_c, 0, 70, 64
2, 39150, Note_on_c, 0, 69, 100
2, 39174, Note_off_c, 0, 69, 64
2, 39180, Note_on_c, 0, 70, 100
2, 39204, Note_off_c, 0, 74, 64
2, 39228, Note_off_c, 0, 70, 64
2, 39240, Note_on_c, 0, 67, 100
2, 39240, Note_on_c, 0, 75, 100
2, 39288, Note_off_c, 0, 75, 64
2, 39288, Note_off_c, 0, 67, 64
2, 39300, Note_on_c, 0, 70, 100
2, 39300, Note_on_c, 0, 66, 100
2, 39312, Note_off_c, 0, 70, 64
2, 39315, Note_on_c, 0, 69, 100
2, 39327, Note_off_c, 0, 69, 64
2, 39330, Note_on_c, 0, 70, 100
2, 39342, Note_off_c, 0, 70, 64
2, 39345, Note_on_c, 0, 69, 100
2, 39456, Note_off_c, 0, 69, 64
2, 39480, Note_on_c, 0, 67, 100
2, 39492, Note_off_c, 0, 66, 64
2, 39528, Note_off_c, 0, 67, 64
2, 39540, Note_on_c, 0, 67, 100
2, 39828, Note_off_c, 0, 67, 64
2, 39840, Note_on_c, 0, 66, 100
2, 39888, Note_off_c, 0, 66, 64
2, 39900, Note_on_c, 0, 67, 100
2, 39948, Note_off_c, 0, 67, 64
2, 39960, Note_on_c, 0, 69, 100
2, 40008, Note_off_c, 0, 69, 64
2, 40020, Note_on_c, 0, 71, 100
2, 40068, Note_off_c, 0, 71, 64
2, 40080, Note_on_c, 0, 69, 100
2, 40128, Note_off_c, 0, 69, 64
2, 40140, Note_on_c, 0, 67, 100
2, 40188, Note_off_c, 0, 67, 64
2, 40200, Note_on_c, 0, 74, 100
2, 40248, Note_off_c, 0, 74, 64
2, 40260, Note_on_c, 0, 65, 100
2, 40404, Note_off_c, 0, 65, 64
2, 40440, Note_on_c, 0, 65, 100
2, 40488, Note_off_c, 0, 65, 64
2, 40500, Note_on_c, 0, 59, 100
2, 40644, Note_off_c, 0, 59, 64
2, 40680, Note_on_c, 0, 67, 100
2, 40728, Note_off_c, 0, 67, 64
2, 40740, Note_on_c, 0, 69, 100
2, 40788, Note_off_c, 0, 69, 64
2, 40800, Note_on_c, 0, 71, 100
2, 40848, Note_off_c, 0, 71, 64
2, 40860, Note_on_c, 0, 72, 100
2, 40908, Note_off_c, 0, 72, 64
2, 40920, Note_on_c, 0, 74, 100
2, 40968, Note_off_c, 0, 74, 64
2, 40980, Note_on_c, 0, 76, 100
2, 41028, Note_off_c, 0, 76, 64
2, 41040, Note_on_c, 0, 72, 100
2, 41064, Note_off_c, 0, 72, 64
2, 41070, Note_on_c, 0, 74, 100
2, 41094, Note_off_c, 0, 74, 64
2, 41100, Note_on_c, 0, 76, 100
2, 41124, Note_off_c, 0, 76, 64
2, 41130, Note_on_c, 0, 74, 100
2, 41159, Note_off_c, 0, 74, 64
2, 41160, Note_on_c, 0, 72, 100
2, 41208, Note_off_c, 0, 72, 64
2, 41220, Note_on_c, 0, 79, 100
2, 41364, Note_off_c, 0, 79, 64
2, 41400, Note_on_c, 0, 79, 100
2, 41448, Note_off_c, 0, 79, 64
2, 41460, Note_on_c, 0, 79, 100
2, 41508, Note_off_c, 0, 79, 64
2, 41520, Note_on_c, 0, 76, 100
2, 41544, Note_off_c, 0, 76, 64
2, 41550, Note_on_c, 0, 74, 100
2, 41574, Note_off_c, 0, 74, 64
2, 41580, Note_on_c, 0, 73, 100
2, 41604, Note_off_c, 0, 73, 64
2, 41610, Note_on_c, 0, 74, 100
2, 41634, Note_off_c, 0, 74, 64
2, 41640, Note_on_c, 0, 76, 100
2, 41688, Note_off_c, 0, 76, 64
2, 41700, Note_on_c, 0, 67, 100
2, 41748, Note_off_c, 0, 67, 64
2, 41760, Note_on_c, 0, 70, 100
2, 41808, Note_off_c, 0, 70, 64
2, 41820, Note_on_c, 0, 70, 100
2, 41832, Note_off_c, 0, 70, 64
2, 41835, Note_on_c, 0, 69, 100
2, 41847, Note_off_c, 0, 69, 64
2, 41850, Note_on_c, 0, 70, 100
2, 41862, Note_off_c, 0, 70, 64
2, 41865, Note_on_c, 0, 69, 100
2, 41877, Note_off_c, 0, 69, 64
2, 41880, Note_on_c, 0, 67, 100
2, 41928, Note_off_c, 0, 67, 64
2, 41940, Note_on_c, 0, 76, 100
2, 42000, Note_on_c, 0, 70, 100
2, 42048, Note_off_c, 0, 70, 64
2, 42060, Note_on_c, 0, 69, 100
2, 42108, Note_off_c, 0, 69, 64
2, 42120, Note_on_c, 0, 67, 100
2, 42168, Note_off_c, 0, 67, 64
2, 42180, Note_on_c, 0, 67, 100
2, 42192, Note_off_c, 0, 67, 64
2, 42195, Note_on_c, 0, 65, 100
2, 42207, Note_off_c, 0, 65, 64
2, 42210, Note_on_c, 0, 67, 100
2, 42222, Note_off_c, 0, 67, 64
2, 42225, Note_on_c, 0, 65, 100
2, 42336, Note_off_c, 0, 65, 64
2, 42360, Note_on_c, 0, 64, 100
2, 42408, Note_off_c, 0, 64, 64
2, 42420, Note_on_c, 0, 69, 100
2, 42564, Note_off_c, 0, 76, 64
2, 42600, Note_on_c, 0, 79, 100
2, 42648, Note_off_c, 0, 79, 64
2, 42660, Note_on_c, 0, 77, 100
2, 42708, Note_off_c, 0, 77, 64
2, 42720, Note_on_c, 0, 76, 100
2, 42768, Note_off_c, 0, 76, 64
2, 42780, Note_on_c, 0, 74, 100
2, 42828, Note_off_c, 0, 74, 64
2, 42840, Note_on_c, 0, 72, 100
2, 42888, Note_off_c, 0, 72, 64
2, 42900, Note_on_c, 0, 70, 100
2, 42948, Note_off_c, 0, 69, 64
2, 42960, Note_on_c, 0, 69, 100
2, 43008, Note_off_c, 0, 69, 64
2, 43020, Note_on_c, 0, 67, 100
2, 43044, Note_off_c, 0, 70, 64
2, 43080, Note_on_c, 0, 81, 100
2, 43116, Note_off_c, 0, 67, 64
2, 43128, Note_off_c, 0, 81, 64
2, 43140, Note_on_c, 0, 79, 100
2, 43140, Note_on_c, 0, 70, 100
2, 43188, Note_off_c, 0, 79, 64
2, 43200, Note_on_c, 0, 77, 100
2, 43248, Note_off_c, 0, 77, 64
2, 43260, Note_on_c, 0, 76, 100
2, 43308, Note_off_c, 0, 76, 64
2, 43320, Note_on_c, 0, 74, 100
2, 43368, Note_off_c, 0, 74, 64
2, 43380, Note_on_c, 0, 73, 100
2, 43668, Note_off_c, 0, 70, 64
2, 43680, Note_on_c, 0, 70, 100
2, 43728, Note_off_c, 0, 70, 64
2, 43740, Note_on_c, 0, 69, 100
2, 43764, Note_off_c, 0, 73, 64
2, 43800, Note_on_c, 0, 73, 100
2, 43836, Note_off_c, 0, 69, 64
2, 43848, Note_off_c, 0, 73, 64
2, 43860, Note_on_c, 0, 74, 100
2, 43908, Note_off_c, 0, 74, 64
2, 43920, Note_on_c, 0, 72, 100
2, 43968, Note_off_c, 0, 72, 64
2, 43980, Note_on_c, 0, 70, 100
2, 44028, Note_off_c, 0, 70, 64
2, 44040, Note_on_c, 0, 69, 100
2, 44088, Note_off_c, 0, 69, 64
2, 44100, Note_on_c, 0, 67, 100
2, 44244, Note_off_c, 0, 67, 64
2, 44280, Note_on_c, 0, 67, 100
2, 44280, Note_on_c, 0, 67, 127
2, 44328, Note_off_c, 0, 67, 64
2, 44340, Note_on_c, 0, 76, 100
2, 44436, Note_off_c, 0, 67, 64
2, 44484, Note_off_c, 0, 76, 64
2, 44520, Note_on_c, 0, 70, 100
2, 44568, Note_off_c, 0, 70, 64
2, 44580, Note_on_c, 0, 69, 100
2, 44628, Note_off_c, 0, 69, 64
2, 44640, Note_on_c, 0, 67, 100
2, 44688, Note_off_c, 0, 67, 64
2, 44700, Note_on_c, 0, 65, 100
2, 44748, Note_off_c, 0, 65, 64
2, 44760, Note_on_c, 0, 64, 100
2, 44808, Note_off_c, 0, 64, 64
2, 44820, Note_on_c, 0, 65, 100
2, 44820, Note_on_c, 0, 65, 100
2, 44868, Note_off_c, 0, 65, 64
2, 44880, Note_on_c, 0, 69, 100
2, 44928, Note_off_c, 0, 69, 64
2, 44940, Note_on_c, 0, 73, 100
2, 44988, Note_off_c, 0, 73, 64
2, 45000, Note_on_c, 0, 74, 100
2, 45012, Note_off_c, 0, 65, 64
2, 45048, Note_off_c, 0, 74, 64
2, 45060, Note_on_c, 0, 61, 100
2, 45060, Note_on_c, 0, 64, 100
2, 45204, Note_off_c, 0, 64, 64
2, 45240, Note_on_c, 0, 62, 100
2, 45252, Note_off_c, 0, 61, 64
2, 45288, Note_off_c, 0, 62, 64
2, 45300, Note_on_c, 0, 62, 100
2, 45348, Note_off_c, 0, 62, 64
2, 45360, Note_on_c, 0, 66, 100
2, 45384, Note_off_c, 0, 66, 64
2, 45390, Note_on_c, 0, 67, 100
2, 45414, Note_off_c, 0, 67, 64
2, 45420, Note_on_c, 0, 69, 100
2, 45444, Note_off_c, 0, 69, 64
2, 45450, Note_on_c, 0, 67, 100
2, 45474, Note_off_c, 0, 67, 64
2, 45480, Note_on_c, 0, 66, 100
2, 45528, Note_off_c, 0, 66, 64
2, 45540, Note_on_c, 0, 67, 100
2, 45588, Note_off_c, 0, 67, 64
2, 45600, Note_on_c, 0, 64, 100
2, 45600, Note_on_c, 0, 64, 100
2, 45648, Note_off_c, 0, 64, 64
2, 45660, Note_on_c, 0, 67, 100
2, 45708, Note_off_c, 0, 67, 64
2, 45720, Note_on_c, 0, 73, 100
2, 45744, Note_off_c, 0, 64, 64
2, 45768, Note_off_c, 0, 73, 64
2, 45780, Note_on_c, 0, 74, 100
2, 45780, Note_on_c, 0, 66, 100
2, 45780, Note_on_c, 0, 69, 100
2, 46068, Note_off_c, 0, 69, 64
2, 46068, Note_off_c, 0, 66, 64
2, 46068, Note_off_c, 0, 74, 64
2, 46068, End_track
3, 0, Start_track
3, 0, Title_t, "J.S. Bach, Edition Kalmus"
3, 0, Program_c, 1, 0
3, 120, Note_on_c, 1, 57, 100
3, 144, Note_off_c, 1, 57, 64
3, 150, Note_on_c, 1, 55, 100
3, 174, Note_off_c, 1, 55, 64
3, 180, Note_on_c, 1, 53, 100
3, 204, Note_off_c, 1, 53, 64
3, 210, Note_on_c, 1, 55, 100
3, 234, Note_off_c, 1, 55, 64
3, 240, Note_on_c, 1, 57, 100
3, 288, Note_off_c, 1, 57, 64
3, 300, Note_on_c, 1, 50, 100
3, 300, Note_on_c, 1, 50, 100
3, 444, Note_off_c, 1, 50, 64
3, 480, Note_on_c, 1, 53, 100
3, 528, Note_off_c, 1, 53, 64
3, 540, Note_on_c, 1, 52, 100
3, 588, Note_off_c, 1, 52, 64
3, 600, Note_on_c, 1, 53, 100
3, 648, Note_off_c, 1, 53, 64
3, 660, Note_on_c, 1, 55, 100
3, 828, Note_off_c, 1, 55, 64
3, 840, Note_on_c, 1, 58, 100
3, 888, Note_off_c, 1, 58, 64
3, 900, Note_on_c, 1, 57, 100
3, 948, Note_off_c, 1, 57, 64
3, 960, Note_on_c, 1, 55, 100
3, 1008, Note_off_c, 1, 55, 64
3, 1020, Note_on_c, 1, 54, 100
3, 1068, Note_off_c, 1, 54, 64
3, 1080, Note_on_c, 1, 55, 100
3, 1128, Note_off_c, 1, 55, 64
3, 1140, Note_on_c, 1, 57, 100
3, 1308, Note_off_c, 1, 57, 64
3, 1320, Note_on_c, 1, 57, 100
3, 1368, Note_off_c, 1, 57, 64
3, 1380, Note_on_c, 1, 55, 100
3, 1428, Note_off_c, 1, 55, 64
3, 1440, Note_on_c, 1, 54, 100
3, 1488, Note_off_c, 1, 54, 64
3, 1500, Note_on_c, 1, 55, 100
3, 1548, Note_off_c, 1, 55, 64
3, 1560, Note_on_c, 1, 57, 100
3, 1608, Note_off_c, 1, 57, 64
3, 1620, Note_on_c, 1, 58, 100
3, 1788, Note_off_c, 1, 58, 64
3, 1800, Note_on_c, 1, 57, 100
3, 1848, Note_off_c, 1, 57, 64
3, 1860, Note_on_c, 1, 55, 100
3, 1908, Note_off_c, 1, 55, 64
3, 1920, Note_on_c, 1, 53, 100
3, 1968, Note_off_c, 1, 53, 64
3, 1980, Note_on_c, 1, 52, 100
3, 2028, Note_off_c, 1, 52, 64
3, 2040, Note_on_c, 1, 53, 100
3, 2088, Note_off_c, 1, 53, 64
3, 2100, Note_on_c, 1, 55, 100
3, 2148, Note_off_c, 1, 55, 64
3, 2160, Note_on_c, 1, 58, 100
3, 2208, Note_off_c, 1, 58, 64
3, 2220, Note_on_c, 1, 62, 100
3, 2232, Note_off_c, 1, 62, 64
3, 2235, Note_on_c, 1, 61, 100
3, 2247, Note_off_c, 1, 61, 64
3, 2250, Note_on_c, 1, 62, 100
3, 2262, Note_off_c, 1, 62, 64
3, 2265, Note_on_c, 1, 61, 100
3, 2364, Note_off_c, 1, 50, 64
3, 2376, Note_off_c, 1, 61, 64
3, 2400, Note_on_c, 1, 61, 100
3, 2448, Note_off_c, 1, 61, 64
3, 2460, Note_on_c, 1, 62, 100
3, 2604, Note_off_c, 1, 62, 64
3, 2640, Note_on_c, 1, 60, 100
3, 2688, Note_off_c, 1, 60, 64
3, 2700, Note_on_c, 1, 58, 100
3, 2748, Note_off_c, 1, 58, 64
3, 2760, Note_on_c, 1, 57, 100
3, 2808, Note_off_c, 1, 57, 64
3, 2820, Note_on_c, 1, 55, 100
3, 2868, Note_off_c, 1, 55, 64
3, 2880, Note_on_c, 1, 53, 100
3, 2928, Note_off_c, 1, 53, 64
3, 2940, Note_on_c, 1, 52, 100
3, 2988, Note_off_c, 1, 52, 64
3, 3000, Note_on_c, 1, 55, 100
3, 3024, Note_off_c, 1, 55, 64
3, 3030, Note_on_c, 1, 53, 100
3, 3054, Note_off_c, 1, 53, 64
3, 3060, Note_on_c, 1, 52, 100
3, 3084, Note_off_c, 1, 52, 64
3, 3090, Note_on_c, 1, 53, 100
3, 3114, Note_off_c, 1, 53, 64
3, 3120, Note_on_c, 1, 55, 100
3, 3168, Note_off_c, 1, 55, 64
3, 3180, Note_on_c, 1, 48, 100
3, 3276, Note_off_c, 1, 48, 64
3, 3300, Note_on_c, 1, 60, 100
3, 3420, Note_on_c, 1, 53, 100
3, 3516, Note_off_c, 1, 60, 64
3, 3564, Note_off_c, 1, 53, 64
3, 3600, Note_on_c, 1, 52, 100
3, 3648, Note_off_c, 1, 52, 64
3, 3660, Note_on_c, 1, 50, 100
3, 3708, Note_off_c, 1, 50, 64
3, 3720, Note_on_c, 1, 48, 100
3, 3768, Note_off_c, 1, 48, 64
3, 3780, Note_on_c, 1, 46, 100
3, 3828, Note_off_c, 1, 46, 64
3, 3840, Note_on_c, 1, 45, 100
3, 3888, Note_off_c, 1, 45, 64
3, 3900, Note_on_c, 1, 46, 100
3, 3948, Note_off_c, 1, 46, 64
3, 3960, Note_on_c, 1, 50, 100
3, 3984, Note_off_c, 1, 50, 64
3, 3990, Note_on_c, 1, 48, 100
3, 4014, Note_off_c, 1, 48, 64
3, 4020, Note_on_c, 1, 46, 100
3, 4044, Note_off_c, 1, 46, 64
3, 4050, Note_on_c, 1, 48, 100
3, 4074, Note_off_c, 1, 48, 64
3, 4080, Note_on_c, 1, 50, 100
3, 4128, Note_off_c, 1, 50, 64
3, 4140, Note_on_c, 1, 43, 100
3, 4236, Note_off_c, 1, 43, 64
3, 4260, Note_on_c, 1, 55, 100
3, 4356, Note_off_c, 1, 55, 64
3, 4380, Note_on_c, 1, 57, 100
3, 4500, Note_on_c, 1, 61, 100
3, 4596, Note_off_c, 1, 61, 64
3, 4620, Note_on_c, 1, 65, 100
3, 4668, Note_off_c, 1, 57, 64
3, 4680, Note_on_c, 1, 60, 100
3, 4728, Note_off_c, 1, 60, 64
3, 4740, Note_on_c, 1, 59, 100
3, 4788, Note_off_c, 1, 59, 64
3, 4800, Note_on_c, 1, 57, 100
3, 4848, Note_off_c, 1, 57, 64
3, 4860, Note_on_c, 1, 56, 100
3, 4908, Note_off_c, 1, 56, 64
3, 4920, Note_on_c, 1, 57, 100
3, 4956, Note_off_c, 1, 65, 64
3, 4968, Note_off_c, 1, 57, 64
3, 4980, Note_on_c, 1, 59, 100
3, 5028, Note_off_c, 1, 59, 64
3, 5040, Note_on_c, 1, 52, 100
3, 5088, Note_off_c, 1, 52, 64
3, 5100, Note_on_c, 1, 55, 100
3, 5100, Note_on_c, 1, 64, 100
3, 5244, Note_off_c, 1, 64, 64
3, 5244, Note_off_c, 1, 55, 64
3, 5280, Note_on_c, 1, 55, 100
3, 5328, Note_off_c, 1, 55, 64
3, 5340, Note_on_c, 1, 64, 100
3, 5484, Note_off_c, 1, 64, 64
3, 5520, Note_on_c, 1, 58, 100
3, 5568, Note_off_c, 1, 58, 64
3, 5580, Note_on_c, 1, 57, 100
3, 5628, Note_off_c, 1, 57, 64
3, 5640, Note_on_c, 1, 55, 100
3, 5688, Note_off_c, 1, 55, 64
3, 5700, Note_on_c, 1, 53, 100
3, 5748, Note_off_c, 1, 53, 64
3, 5760, Note_on_c, 1, 52, 100
3, 5808, Note_off_c, 1, 52, 64
3, 5820, Note_on_c, 1, 53, 100
3, 5916, Note_off_c, 1, 53, 64
3, 5940, Note_on_c, 1, 52, 100
3, 5988, Note_off_c, 1, 52, 64
3, 6000, Note_on_c, 1, 50, 100
3, 6048, Note_off_c, 1, 50, 64
3, 6060, Note_on_c, 1, 62, 100
3, 6204, Note_off_c, 1, 62, 64
3, 6240, Note_on_c, 1, 62, 100
3, 6288, Note_off_c, 1, 62, 64
3, 6300, Note_on_c, 1, 59, 100
3, 6300, Note_on_c, 1, 56, 100
3, 6300, Note_on_c, 1, 64, 100
3, 6444, Note_off_c, 1, 64, 64
3, 6444, Note_off_c, 1, 56, 64
3, 6444, Note_off_c, 1, 59, 64
3, 6480, Note_on_c, 1, 57, 100
3, 6504, Note_off_c, 1, 57, 64
3, 6510, Note_on_c, 1, 59, 100
3, 6534, Note_off_c, 1, 59, 64
3, 6540, Note_on_c, 1, 50, 100
3, 6588, Note_off_c, 1, 50, 64
3, 6600, Note_on_c, 1, 53, 100
3, 6648, Note_off_c, 1, 53, 64
3, 6660, Note_on_c, 1, 52, 100
3, 6708, Note_off_c, 1, 52, 64
3, 6720, Note_on_c, 1, 50, 100
3, 6768, Note_off_c, 1, 50, 64
3, 6780, Note_on_c, 1, 49, 100
3, 6840, Note_on_c, 1, 50, 100
3, 6888, Note_off_c, 1, 50, 64
3, 6900, Note_on_c, 1, 52, 100
3, 7068, Note_off_c, 1, 52, 64
3, 7068, Note_off_c, 1, 49, 64
3, 7080, Note_on_c, 1, 52, 100
3, 7128, Note_off_c, 1, 52, 64
3, 7140, Note_on_c, 1, 50, 100
3, 7188, Note_off_c, 1, 50, 64
3, 7200, Note_on_c, 1, 49, 100
3, 7248, Note_off_c, 1, 49, 64
3, 7260, Note_on_c, 1, 50, 100
3, 7308, Note_off_c, 1, 50, 64
3, 7320, Note_on_c, 1, 52, 100
3, 7368, Note_off_c, 1, 52, 64
3, 7380, Note_on_c, 1, 53, 100
3, 7548, Note_off_c, 1, 53, 64
3, 7560, Note_on_c, 1, 53, 100
3, 7608, Note_off_c, 1, 53, 64
3, 7620, Note_on_c, 1, 52, 100
3, 7668, Note_off_c, 1, 52, 64
3, 7680, Note_on_c, 1, 50, 100
3, 7728, Note_off_c, 1, 50, 64
3, 7740, Note_on_c, 1, 59, 100
3, 7788, Note_off_c, 1, 59, 64
3, 7800, Note_on_c, 1, 52, 100
3, 7848, Note_off_c, 1, 52, 64
3, 7860, Note_on_c, 1, 53, 100
3, 7908, Note_off_c, 1, 53, 64
3, 7920, Note_on_c, 1, 50, 100
3, 7968, Note_off_c, 1, 50, 64
3, 7980, Note_on_c, 1, 57, 100
3, 7992, Note_off_c, 1, 57, 64
3, 7995, Note_on_c, 1, 56, 100
3, 8007, Note_off_c, 1, 56, 64
3, 8010, Note_on_c, 1, 57, 100
3, 8022, Note_off_c, 1, 57, 64
3, 8025, Note_on_c, 1, 56, 100
3, 8136, Note_off_c, 1, 56, 64
3, 8160, Note_on_c, 1, 56, 100
3, 8208, Note_off_c, 1, 56, 64
3, 8220, Note_on_c, 1, 57, 100
3, 8364, Note_off_c, 1, 57, 64
3, 8400, Note_on_c, 1, 55, 100
3, 8448, Note_off_c, 1, 55, 64
3, 8460, Note_on_c, 1, 53, 100
3, 8508, Note_off_c, 1, 53, 64
3, 8520, Note_on_c, 1, 52, 100
3, 8568, Note_off_c, 1, 52, 64
3, 8580, Note_on_c, 1, 50, 100
3, 8628, Note_off_c, 1, 50, 64
3, 8640, Note_on_c, 1, 49, 100
3, 8688, Note_off_c, 1, 49, 64
3, 8700, Note_on_c, 1, 50, 100
3, 8700, Note_on_c, 1, 57, 100
3, 8748, Note_off_c, 1, 57, 64
3, 8844, Note_off_c, 1, 50, 64
3, 8880, Note_on_c, 1, 52, 100
3, 8928, Note_off_c, 1, 52, 64
3, 8940, Note_on_c, 1, 50, 100
3, 8988, Note_off_c, 1, 50, 64
3, 9000, Note_on_c, 1, 48, 100
3, 9048, Note_off_c, 1, 48, 64
3, 9060, Note_on_c, 1, 47, 100
3, 9108, Note_off_c, 1, 47, 64
3, 9120, Note_on_c, 1, 45, 100
3, 9168, Note_off_c, 1, 45, 64
3, 9180, Note_on_c, 1, 47, 100
3, 9180, Note_on_c, 1, 44, 100
3, 9180, Note_on_c, 1, 52, 100
3, 9372, Note_off_c, 1, 52, 64
3, 9372, Note_off_c, 1, 47, 64
3, 9468, Note_off_c, 1, 44, 64
3, 9480, Note_on_c, 1, 45, 100
3, 9528, Note_off_c, 1, 45, 64
3, 9540, Note_on_c, 1, 47, 100
3, 9588, Note_off_c, 1, 47, 64
3, 9600, Note_on_c, 1, 48, 100
3, 9648, Note_off_c, 1, 48, 64
3, 9660, Note_on_c, 1, 50, 100
3, 9708, Note_off_c, 1, 50, 64
3, 9720, Note_on_c, 1, 52, 100
3, 9744, Note_off_c, 1, 52, 64
3, 9750, Note_on_c, 1, 53, 100
3, 9774, Note_off_c, 1, 53, 64
3, 9780, Note_on_c, 1, 52, 100
3, 9828, Note_off_c, 1, 52, 64
3, 9840, Note_on_c, 1, 50, 100
3, 9888, Note_off_c, 1, 50, 64
3, 9900, Note_on_c, 1, 48, 100
3, 9948, Note_off_c, 1, 48, 64
3, 9960, Note_on_c, 1, 47, 100
3, 10008, Note_off_c, 1, 47, 64
3, 10020, Note_on_c, 1, 45, 100
3, 10068, Note_off_c, 1, 45, 64
3, 10080, Note_on_c, 1, 44, 100
3, 10128, Note_off_c, 1, 44, 64
3, 10140, Note_on_c, 1, 45, 100
3, 10236, Note_off_c, 1, 45, 64
3, 10260, Note_on_c, 1, 50, 100
3, 10356, Note_off_c, 1, 50, 64
3, 10380, Note_on_c, 1, 52, 100
3, 10380, Note_on_c, 1, 52, 100
3, 10476, Note_off_c, 1, 52, 64
3, 10500, Note_on_c, 1, 40, 100
3, 10572, Note_off_c, 1, 52, 64
3, 10596, Note_off_c, 1, 40, 64
3, 10620, Note_on_c, 1, 45, 100
3, 10680, Note_on_c, 1, 52, 100
3, 10704, Note_off_c, 1, 52, 64
3, 10710, Note_on_c, 1, 50, 100
3, 10734, Note_off_c, 1, 50, 64
3, 10740, Note_on_c, 1, 49, 100
3, 10764, Note_off_c, 1, 49, 64
3, 10770, Note_on_c, 1, 50, 100
3, 10794, Note_off_c, 1, 50, 64
3, 10800, Note_on_c, 1, 52, 100
3, 10848, Note_off_c, 1, 52, 64
3, 10860, Note_on_c, 1, 53, 100
3, 11052, Note_off_c, 1, 53, 64
3, 11100, Note_on_c, 1, 52, 100
3, 11388, Note_off_c, 1, 45, 64
3, 11388, Note_off_c, 1, 52, 64
3, 11700, Note_on_c, 1, 57, 100
3, 11724, Note_off_c, 1, 57, 64
3, 11730, Note_on_c, 1, 55, 100
3, 11754, Note_off_c, 1, 55, 64
3, 11760, Note_on_c, 1, 53, 100
3, 11784, Note_off_c, 1, 53, 64
3, 11790, Note_on_c, 1, 55, 100
3, 11814, Note_off_c, 1, 55, 64
3, 11820, Note_on_c, 1, 57, 100
3, 11868, Note_off_c, 1, 57, 64
3, 11880, Note_on_c, 1, 50, 100
3, 11880, Note_on_c, 1, 50, 100
3, 12024, Note_off_c, 1, 50, 64
3, 12060, Note_on_c, 1, 53, 100
3, 12108, Note_off_c, 1, 53, 64
3, 12120, Note_on_c, 1, 52, 100
3, 12168, Note_off_c, 1, 52, 64
3, 12180, Note_on_c, 1, 53, 100
3, 12228, Note_off_c, 1, 53, 64
3, 12240, Note_on_c, 1, 55, 100
3, 12408, Note_off_c, 1, 55, 64
3, 12420, Note_on_c, 1, 58, 100
3, 12468, Note_off_c, 1, 58, 64
3, 12480, Note_on_c, 1, 57, 100
3, 12528, Note_off_c, 1, 57, 64
3, 12540, Note_on_c, 1, 55, 100
3, 12588, Note_off_c, 1, 55, 64
3, 12600, Note_on_c, 1, 54, 100
3, 12648, Note_off_c, 1, 54, 64
3, 12660, Note_on_c, 1, 55, 100
3, 12708, Note_off_c, 1, 55, 64
3, 12720, Note_on_c, 1, 57, 100
3, 12888, Note_off_c, 1, 57, 64
3, 12900, Note_on_c, 1, 57, 100
3, 12948, Note_off_c, 1, 57, 64
3, 12960, Note_on_c, 1, 55, 100
3, 13008, Note_off_c, 1, 55, 64
3, 13020, Note_on_c, 1, 54, 100
3, 13068, Note_off_c, 1, 54, 64
3, 13080, Note_on_c, 1, 55, 100
3, 13128, Note_off_c, 1, 55, 64
3, 13140, Note_on_c, 1, 57, 100
3, 13188, Note_off_c, 1, 57, 64
3, 13200, Note_on_c, 1, 58, 100
3, 13368, Note_off_c, 1, 58, 64
3, 13380, Note_on_c, 1, 57, 100
3, 13428, Note_off_c, 1, 57, 64
3, 13440, Note_on_c, 1, 55, 100
3, 13488, Note_off_c, 1, 55, 64
3, 13500, Note_on_c, 1, 53, 100
3, 13548, Note_off_c, 1, 53, 64
3, 13560, Note_on_c, 1, 52, 100
3, 13608, Note_off_c, 1, 52, 64
3, 13620, Note_on_c, 1, 53, 100
3, 13668, Note_off_c, 1, 53, 64
3, 13680, Note_on_c, 1, 55, 100
3, 13728, Note_off_c, 1, 55, 64
3, 13740, Note_on_c, 1, 58, 100
3, 13788, Note_off_c, 1, 58, 64
3, 13800, Note_on_c, 1, 62, 100
3, 13812, Note_off_c, 1, 62, 64
3, 13815, Note_on_c, 1, 61, 100
3, 13827, Note_off_c, 1, 61, 64
3, 13830, Note_on_c, 1, 62, 100
3, 13842, Note_off_c, 1, 62, 64
3, 13845, Note_on_c, 1, 61, 100
3, 13944, Note_off_c, 1, 50, 64
3, 13956, Note_off_c, 1, 61, 64
3, 13980, Note_on_c, 1, 61, 100
3, 14028, Note_off_c, 1, 61, 64
3, 14040, Note_on_c, 1, 62, 100
3, 14184, Note_off_c, 1, 62, 64
3, 14220, Note_on_c, 1, 60, 100
3, 14268, Note_off_c, 1, 60, 64
3, 14280, Note_on_c, 1, 58, 100
3, 14328, Note_off_c, 1, 58, 64
3, 14340, Note_on_c, 1, 57, 100
3, 14388, Note_off_c, 1, 57, 64
3, 14400, Note_on_c, 1, 55, 100
3, 14448, Note_off_c, 1, 55, 64
3, 14460, Note_on_c, 1, 53, 100
3, 14508, Note_off_c, 1, 53, 64
3, 14520, Note_on_c, 1, 52, 100
3, 14568, Note_off_c, 1, 52, 64
3, 14580, Note_on_c, 1, 55, 100
3, 14604, Note_off_c, 1, 55, 64
3, 14610, Note_on_c, 1, 53, 100
3, 14634, Note_off_c, 1, 53, 64
3, 14640, Note_on_c, 1, 52, 100
3, 14664, Note_off_c, 1, 52, 64
3, 14670, Note_on_c, 1, 53, 100
3, 14694, Note_off_c, 1, 53, 64
3, 14700, Note_on_c, 1, 55, 100
3, 14748, Note_off_c, 1, 55, 64
3, 14760, Note_on_c, 1, 48, 100
3, 14856, Note_off_c, 1, 48, 64
3, 14880, Note_on_c, 1, 60, 100
3, 15000, Note_on_c, 1, 53, 100
3, 15096, Note_off_c, 1, 60, 64
3, 15144, Note_off_c, 1, 53, 64
3, 15180, Note_on_c, 1, 52, 100
3, 15228, Note_off_c, 1, 52, 64
3, 15240, Note_on_c, 1, 50, 100
3, 15288, Note_off_c, 1, 50, 64
3, 15300, Note_on_c, 1, 48, 100
3, 15348, Note_off_c, 1, 48, 64
3, 15360, Note_on_c, 1, 46, 100
3, 15408, Note_off_c, 1, 46, 64
3, 15420, Note_on_c, 1, 45, 100
3, 15468, Note_off_c, 1, 45, 64
3, 15480, Note_on_c, 1, 46, 100
3, 15528, Note_off_c, 1, 46, 64
3, 15540, Note_on_c, 1, 50, 100
3, 15564, Note_off_c, 1, 50, 64
3, 15570, Note_on_c, 1, 48, 100
3, 15594, Note_off_c, 1, 48, 64
3, 15600, Note_on_c, 1, 46, 100
3, 15624, Note_off_c, 1, 46, 64
3, 15630, Note_on_c, 1, 48, 100
3, 15654, Note_off_c, 1, 48, 64
3, 15660, Note_on_c, 1, 50, 100
3, 15708, Note_off_c, 1, 50, 64
3, 15720, Note_on_c, 1, 43, 100
3, 15816, Note_off_c, 1, 43, 64
3, 15840, Note_on_c, 1, 55, 100
3, 15936, Note_off_c, 1, 55, 64
3, 15960, Note_on_c, 1, 57, 100
3, 16080, Note_on_c, 1, 61, 100
3, 16176, Note_off_c, 1, 61, 64
3, 16200, Note_on_c, 1, 65, 100
3, 16248, Note_off_c, 1, 57, 64
3, 16260, Note_on_c, 1, 60, 100
3, 16308, Note_off_c, 1, 60, 64
3, 16320, Note_on_c, 1, 59, 100
3, 16368, Note_off_c, 1, 59, 64
3, 16380, Note_on_c, 1, 57, 100
3, 16428, Note_off_c, 1, 57, 64
3, 16440, Note_on_c, 1, 56, 100
3, 16488, Note_off_c, 1, 56, 64
3, 16500, Note_on_c, 1, 57, 100
3, 16536, Note_off_c, 1, 65, 64
3, 16548, Note_off_c, 1, 57, 64
3, 16560, Note_on_c, 1, 59, 100
3, 16608, Note_off_c, 1, 59, 64
3, 16620, Note_on_c, 1, 52, 100
3, 16668, Note_off_c, 1, 52, 64
3, 16680, Note_on_c, 1, 55, 100
3, 16680, Note_on_c, 1, 64, 100
3, 16824, Note_off_c, 1, 64, 64
3, 16824, Note_off_c, 1, 55, 64
3, 16860, Note_on_c, 1, 55, 100
3, 16908, Note_off_c, 1, 55, 64
3, 16920, Note_on_c, 1, 64, 100
3, 17064, Note_off_c, 1, 64, 64
3, 17100, Note_on_c, 1, 58, 100
3, 17148, Note_off_c, 1, 58, 64
3, 17160, Note_on_c, 1, 57, 100
3, 17208, Note_off_c, 1, 57, 64
3, 17220, Note_on_c, 1, 55, 100
3, 17268, Note_off_c, 1, 55, 64
3, 17280, Note_on_c, 1, 53, 100
3, 17328, Note_off_c, 1, 53, 64
3, 17340, Note_on_c, 1, 52, 100
3, 17388, Note_off_c, 1, 52, 64
3, 17400, Note_on_c, 1, 53, 100
3, 17496, Note_off_c, 1, 53, 64
3, 17520, Note_on_c, 1, 52, 100
3, 17568, Note_off_c, 1, 52, 64
3, 17580, Note_on_c, 1, 50, 100
3, 17628, Note_off_c, 1, 50, 64
3, 17640, Note_on_c, 1, 62, 100
3, 17784, Note_off_c, 1, 62, 64
3, 17820, Note_on_c, 1, 62, 100
3, 17868, Note_off_c, 1, 62, 64
3, 17880, Note_on_c, 1, 59, 100
3, 17880, Note_on_c, 1, 56, 100
3, 17880, Note_on_c, 1, 64, 100
3, 18024, Note_off_c, 1, 64, 64
3, 18024, Note_off_c, 1, 56, 64
3, 18024, Note_off_c, 1, 59, 64
3, 18060, Note_on_c, 1, 57, 100
3, 18084, Note_off_c, 1, 57, 64
3, 18090, Note_on_c, 1, 59, 100
3, 18114, Note_off_c, 1, 59, 64
3, 18120, Note_on_c, 1, 50, 100
3, 18168, Note_off_c, 1, 50, 64
3, 18180, Note_on_c, 1, 53, 100
3, 18228, Note_off_c, 1, 53, 64
3, 18240, Note_on_c, 1, 52, 100
3, 18288, Note_off_c, 1, 52, 64
3, 18300, Note_on_c, 1, 50, 100
3, 18348, Note_off_c, 1, 50, 64
3, 18360, Note_on_c, 1, 49, 100
3, 18420, Note_on_c, 1, 50, 100
3, 18468, Note_off_c, 1, 50, 64
3, 18480, Note_on_c, 1, 52, 100
3, 18648, Note_off_c, 1, 52, 64
3, 18648, Note_off_c, 1, 49, 64
3, 18660, Note_on_c, 1, 52, 100
3, 18708, Note_off_c, 1, 52, 64
3, 18720, Note_on_c, 1, 50, 100
3, 18768, Note_off_c, 1, 50, 64
3, 18780, Note_on_c, 1, 49, 100
3, 18828, Note_off_c, 1, 49, 64
3, 18840, Note_on_c, 1, 50, 100
3, 18888, Note_off_c, 1, 50, 64
3, 18900, Note_on_c, 1, 52, 100
3, 18948, Note_off_c, 1, 52, 64
3, 18960, Note_on_c, 1, 53, 100
3, 19128, Note_off_c, 1, 53, 64
3, 19140, Note_on_c, 1, 53, 100
3, 19188, Note_off_c, 1, 53, 64
3, 19200, Note_on_c, 1, 52, 100
3, 19248, Note_off_c, 1, 52, 64
3, 19260, Note_on_c, 1, 50, 100
3, 19308, Note_off_c, 1, 50, 64
3, 19320, Note_on_c, 1, 59, 100
3, 19368, Note_off_c, 1, 59, 64
3, 19380, Note_on_c, 1, 52, 100
3, 19428, Note_off_c, 1, 52, 64
3, 19440, Note_on_c, 1, 53, 100
3, 19488, Note_off_c, 1, 53, 64
3, 19500, Note_on_c, 1, 50, 100
3, 19548, Note_off_c, 1, 50, 64
3, 19560, Note_on_c, 1, 57, 100
3, 19572, Note_off_c, 1, 57, 64
3, 19575, Note_on_c, 1, 56, 100
3, 19587, Note_off_c, 1, 56, 64
3, 19590, Note_on_c, 1, 57, 100
3, 19602, Note_off_c, 1, 57, 64
3, 19605, Note_on_c, 1, 56, 100
3, 19716, Note_off_c, 1, 56, 64
3, 19740, Note_on_c, 1, 56, 100
3, 19788, Note_off_c, 1, 56, 64
3, 19800, Note_on_c, 1, 57, 100
3, 19944, Note_off_c, 1, 57, 64
3, 19980, Note_on_c, 1, 55, 100
3, 20028, Note_off_c, 1, 55, 64
3, 20040, Note_on_c, 1, 53, 100
3, 20088, Note_off_c, 1, 53, 64
3, 20100, Note_on_c, 1, 52, 100
3, 20148, Note_off_c, 1, 52, 64
3, 20160, Note_on_c, 1, 50, 100
3, 20208, Note_off_c, 1, 50, 64
3, 20220, Note_on_c, 1, 49, 100
3, 20268, Note_off_c, 1, 49, 64
3, 20280, Note_on_c, 1, 50, 100
3, 20280, Note_on_c, 1, 57, 100
3, 20328, Note_off_c, 1, 57, 64
3, 20424, Note_off_c, 1, 50, 64
3, 20460, Note_on_c, 1, 52, 100
3, 20508, Note_off_c, 1, 52, 64
3, 20520, Note_on_c, 1, 50, 100
3, 20568, Note_off_c, 1, 50, 64
3, 20580, Note_on_c, 1, 48, 100
3, 20628, Note_off_c, 1, 48, 64
3, 20640, Note_on_c, 1, 47, 100
3, 20688, Note_off_c, 1, 47, 64
3, 20700, Note_on_c, 1, 45, 100
3, 20748, Note_off_c, 1, 45, 64
3, 20760, Note_on_c, 1, 47, 100
3, 20760, Note_on_c, 1, 44, 100
3, 20760, Note_on_c, 1, 52, 100
3, 20952, Note_off_c, 1, 52, 64
3, 20952, Note_off_c, 1, 47, 64
3, 21048, Note_off_c, 1, 44, 64
3, 21060, Note_on_c, 1, 45, 100
3, 21108, Note_off_c, 1, 45, 64
3, 21120, Note_on_c, 1, 47, 100
3, 21168, Note_off_c, 1, 47, 64
3, 21180, Note_on_c, 1, 48, 100
3, 21228, Note_off_c, 1, 48, 64
3, 21240, Note_on_c, 1, 50, 100
3, 21288, Note_off_c, 1, 50, 64
3, 21300, Note_on_c, 1, 52, 100
3, 21324, Note_off_c, 1, 52, 64
3, 21330, Note_on_c, 1, 53, 100
3, 21354, Note_off_c, 1, 53, 64
3, 21360, Note_on_c, 1, 52, 100
3, 21408, Note_off_c, 1, 52, 64
3, 21420, Note_on_c, 1, 50, 100
3, 21468, Note_off_c, 1, 50, 64
3, 21480, Note_on_c, 1, 48, 100
3, 21528, Note_off_c, 1, 48, 64
3, 21540, Note_on_c, 1, 47, 100
3, 21588, Note_off_c, 1, 47, 64
3, 21600, Note_on_c, 1, 45, 100
3, 21648, Note_off_c, 1, 45, 64
3, 21660, Note_on_c, 1, 44, 100
3, 21708, Note_off_c, 1, 44, 64
3, 21720, Note_on_c, 1, 45, 100
3, 21816, Note_off_c, 1, 45, 64
3, 21840, Note_on_c, 1, 50, 100
3, 21936, Note_off_c, 1, 50, 64
3, 21960, Note_on_c, 1, 52, 100
3, 21960, Note_on_c, 1, 52, 100
3, 22056, Note_off_c, 1, 52, 64
3, 22080, Note_on_c, 1, 40, 100
3, 22152, Note_off_c, 1, 52, 64
3, 22176, Note_off_c, 1, 40, 64
3, 22200, Note_on_c, 1, 45, 100
3, 22260, Note_on_c, 1, 52, 100
3, 22284, Note_off_c, 1, 52, 64
3, 22290, Note_on_c, 1, 50, 100
3, 22314, Note_off_c, 1, 50, 64
3, 22320, Note_on_c, 1, 49, 100
3, 22344, Note_off_c, 1, 49, 64
3, 22350, Note_on_c, 1, 50, 100
3, 22374, Note_off_c, 1, 50, 64
3, 22380, Note_on_c, 1, 52, 100
3, 22428, Note_off_c, 1, 52, 64
3, 22440, Note_on_c, 1, 53, 100
3, 22632, Note_off_c, 1, 53, 64
3, 22680, Note_on_c, 1, 52, 100
3, 22968, Note_off_c, 1, 45, 64
3, 22968, Note_off_c, 1, 52, 64
3, 23160, Note_on_c, 1, 57, 100
3, 23208, Note_off_c, 1, 57, 64
3, 23220, Note_on_c, 1, 57, 100
3, 23508, Note_off_c, 1, 57, 64
3, 23520, Note_on_c, 1, 56, 100
3, 23568, Note_off_c, 1, 56, 64
3, 23580, Note_on_c, 1, 57, 100
3, 23628, Note_off_c, 1, 57, 64
3, 23640, Note_on_c, 1, 59, 100
3, 23688, Note_off_c, 1, 59, 64
3, 23700, Note_on_c, 1, 61, 100
3, 23748, Note_off_c, 1, 61, 64
3, 23760, Note_on_c, 1, 59, 100
3, 23808, Note_off_c, 1, 59, 64
3, 23820, Note_on_c, 1, 57, 100
3, 23868, Note_off_c, 1, 57, 64
3, 23880, Note_on_c, 1, 64, 100
3, 23928, Note_off_c, 1, 64, 64
3, 23940, Note_on_c, 1, 58, 100
3, 24084, Note_off_c, 1, 58, 64
3, 24120, Note_on_c, 1, 58, 100
3, 24168, Note_off_c, 1, 58, 64
3, 24180, Note_on_c, 1, 49, 100
3, 24324, Note_off_c, 1, 49, 64
3, 24360, Note_on_c, 1, 57, 100
3, 24408, Note_off_c, 1, 57, 64
3, 24420, Note_on_c, 1, 59, 100
3, 24468, Note_off_c, 1, 59, 64
3, 24480, Note_on_c, 1, 61, 100
3, 24528, Note_off_c, 1, 61, 64
3, 24540, Note_on_c, 1, 62, 100
3, 24588, Note_off_c, 1, 62, 64
3, 24600, Note_on_c, 1, 64, 100
3, 24648, Note_off_c, 1, 64, 64
3, 25140, Note_on_c, 1, 58, 100
3, 25236, Note_off_c, 1, 58, 64
3, 25260, Note_on_c, 1, 50, 100
3, 25308, Note_off_c, 1, 50, 64
3, 25320, Note_on_c, 1, 52, 100
3, 25368, Note_off_c, 1, 52, 64
3, 25380, Note_on_c, 1, 54, 100
3, 25428, Note_off_c, 1, 54, 64
3, 25440, Note_on_c, 1, 55, 100
3, 25488, Note_off_c, 1, 55, 64
3, 25500, Note_on_c, 1, 57, 100
3, 25548, Note_off_c, 1, 57, 64
3, 25560, Note_on_c, 1, 58, 100
3, 25608, Note_off_c, 1, 58, 64
3, 25620, Note_on_c, 1, 60, 100
3, 25620, Note_on_c, 1, 60, 100
3, 25668, Note_off_c, 1, 60, 64
3, 25680, Note_on_c, 1, 57, 100
3, 25704, Note_off_c, 1, 57, 64
3, 25710, Note_on_c, 1, 55, 100
3, 25734, Note_off_c, 1, 55, 64
3, 25740, Note_on_c, 1, 54, 100
3, 25764, Note_off_c, 1, 54, 64
3, 25770, Note_on_c, 1, 55, 100
3, 25794, Note_off_c, 1, 55, 64
3, 25800, Note_on_c, 1, 57, 100
3, 25848, Note_off_c, 1, 57, 64
3, 25860, Note_on_c, 1, 50, 100
3, 25908, Note_off_c, 1, 60, 64
3, 25920, Note_on_c, 1, 60, 100
3, 25968, Note_off_c, 1, 60, 64
3, 25980, Note_on_c, 1, 58, 100
3, 26028, Note_off_c, 1, 58, 64
3, 26040, Note_on_c, 1, 57, 100
3, 26052, Note_off_c, 1, 50, 64
3, 26088, Note_off_c, 1, 57, 64
3, 26100, Note_on_c, 1, 55, 100
3, 26148, Note_off_c, 1, 55, 64
3, 26160, Note_on_c, 1, 53, 100
3, 26208, Note_off_c, 1, 53, 64
3, 26220, Note_on_c, 1, 51, 100
3, 26268, Note_off_c, 1, 51, 64
3, 26280, Note_on_c, 1, 50, 100
3, 26328, Note_off_c, 1, 50, 64
3, 26340, Note_on_c, 1, 48, 100
3, 26388, Note_off_c, 1, 48, 64
3, 26400, Note_on_c, 1, 46, 100
3, 26448, Note_off_c, 1, 46, 64
3, 26460, Note_on_c, 1, 45, 100
3, 26508, Note_off_c, 1, 45, 64
3, 26520, Note_on_c, 1, 43, 100
3, 26568, Note_off_c, 1, 43, 64
3, 26580, Note_on_c, 1, 41, 100
3, 26628, Note_off_c, 1, 41, 64
3, 26640, Note_on_c, 1, 51, 100
3, 26688, Note_off_c, 1, 51, 64
3, 26700, Note_on_c, 1, 50, 100
3, 26748, Note_off_c, 1, 50, 64
3, 26760, Note_on_c, 1, 48, 100
3, 26808, Note_off_c, 1, 48, 64
3, 26820, Note_on_c, 1, 46, 100
3, 26868, Note_off_c, 1, 46, 64
3, 26880, Note_on_c, 1, 45, 100
3, 26928, Note_off_c, 1, 45, 64
3, 26940, Note_on_c, 1, 43, 100
3, 26988, Note_off_c, 1, 43, 64
3, 27000, Note_on_c, 1, 41, 100
3, 27048, Note_off_c, 1, 41, 64
3, 27060, Note_on_c, 1, 39, 100
3, 27348, Note_off_c, 1, 39, 64
3, 27360, Note_on_c, 1, 51, 100
3, 27384, Note_off_c, 1, 51, 64
3, 27390, Note_on_c, 1, 50, 100
3, 27414, Note_off_c, 1, 50, 64
3, 27420, Note_on_c, 1, 48, 100
3, 27444, Note_off_c, 1, 48, 64
3, 27450, Note_on_c, 1, 50, 100
3, 27474, Note_off_c, 1, 50, 64
3, 27480, Note_on_c, 1, 51, 100
3, 27528, Note_off_c, 1, 51, 64
3, 27540, Note_on_c, 1, 42, 100
3, 27636, Note_off_c, 1, 42, 64
3, 27660, Note_on_c, 1, 43, 100
3, 27708, Note_off_c, 1, 43, 64
3, 27720, Note_on_c, 1, 48, 100
3, 27768, Note_off_c, 1, 48, 64
3, 27780, Note_on_c, 1, 50, 100
3, 27876, Note_off_c, 1, 50, 64
3, 27900, Note_on_c, 1, 48, 100
3, 27996, Note_off_c, 1, 48, 64
3, 28020, Note_on_c, 1, 47, 100
3, 28080, Note_on_c, 1, 50, 100
3, 28128, Note_off_c, 1, 50, 64
3, 28140, Note_on_c, 1, 52, 100
3, 28188, Note_off_c, 1, 52, 64
3, 28200, Note_on_c, 1, 54, 100
3, 28248, Note_off_c, 1, 54, 64
3, 28260, Note_on_c, 1, 55, 100
3, 28308, Note_off_c, 1, 47, 64
3, 28320, Note_on_c, 1, 48, 100
3, 28356, Note_off_c, 1, 55, 64
3, 28368, Note_off_c, 1, 48, 64
3, 28380, Note_on_c, 1, 47, 100
3, 28428, Note_off_c, 1, 47, 64
3, 28440, Note_on_c, 1, 45, 100
3, 28488, Note_off_c, 1, 45, 64
3, 28500, Note_on_c, 1, 43, 100
3, 28548, Note_off_c, 1, 43, 64
3, 28560, Note_on_c, 1, 45, 100
3, 28608, Note_off_c, 1, 45, 64
3, 28620, Note_on_c, 1, 47, 100
3, 28668, Note_off_c, 1, 47, 64
3, 28680, Note_on_c, 1, 48, 100
3, 28728, Note_off_c, 1, 48, 64
3, 28740, Note_on_c, 1, 50, 100
3, 28788, Note_off_c, 1, 50, 64
3, 28800, Note_on_c, 1, 52, 100
3, 28824, Note_off_c, 1, 52, 64
3, 28830, Note_on_c, 1, 53, 100
3, 28854, Note_off_c, 1, 53, 64
3, 28860, Note_on_c, 1, 52, 100
3, 28908, Note_off_c, 1, 52, 64
3, 28920, Note_on_c, 1, 50, 100
3, 28968, Note_off_c, 1, 50, 64
3, 28980, Note_on_c, 1, 55, 100
3, 29028, Note_off_c, 1, 55, 64
3, 29040, Note_on_c, 1, 57, 100
3, 29088, Note_off_c, 1, 57, 64
3, 29100, Note_on_c, 1, 55, 100
3, 29148, Note_off_c, 1, 55, 64
3, 29160, Note_on_c, 1, 53, 100
3, 29208, Note_off_c, 1, 53, 64
3, 29220, Note_on_c, 1, 52, 100
3, 29280, Note_on_c, 1, 55, 100
3, 29316, Note_off_c, 1, 52, 64
3, 29328, Note_off_c, 1, 55, 64
3, 29340, Note_on_c, 1, 57, 100
3, 29340, Note_on_c, 1, 50, 100
3, 29388, Note_off_c, 1, 57, 64
3, 29400, Note_on_c, 1, 59, 100
3, 29436, Note_off_c, 1, 50, 64
3, 29448, Note_off_c, 1, 59, 64
3, 29460, Note_on_c, 1, 60, 100
3, 29460, Note_on_c, 1, 48, 100
3, 29556, Note_off_c, 1, 60, 64
3, 29580, Note_on_c, 1, 55, 100
3, 29628, Note_off_c, 1, 55, 64
3, 29640, Note_on_c, 1, 57, 100
3, 29688, Note_off_c, 1, 57, 64
3, 29700, Note_on_c, 1, 58, 100
3, 29748, Note_off_c, 1, 48, 64
3, 29760, Note_on_c, 1, 53, 100
3, 29808, Note_off_c, 1, 53, 64
3, 29820, Note_on_c, 1, 52, 100
3, 29868, Note_off_c, 1, 52, 64
3, 29880, Note_on_c, 1, 50, 100
3, 29892, Note_off_c, 1, 58, 64
3, 29928, Note_off_c, 1, 50, 64
3, 29940, Note_on_c, 1, 57, 100
3, 29940, Note_on_c, 1, 49, 100
3, 29988, Note_off_c, 1, 49, 64
3, 30000, Note_on_c, 1, 47, 100
3, 30048, Note_off_c, 1, 47, 64
3, 30060, Note_on_c, 1, 45, 100
3, 30108, Note_off_c, 1, 45, 64
3, 30120, Note_on_c, 1, 52, 100
3, 30132, Note_off_c, 1, 57, 64
3, 30168, Note_off_c, 1, 52, 64
3, 30180, Note_on_c, 1, 49, 100
3, 30192, Note_off_c, 1, 49, 64
3, 30195, Note_on_c, 1, 46, 100
3, 30207, Note_off_c, 1, 46, 64
3, 30210, Note_on_c, 1, 49, 100
3, 30222, Note_off_c, 1, 49, 64
3, 30225, Note_on_c, 1, 46, 100
3, 30336, Note_off_c, 1, 46, 64
3, 30360, Note_on_c, 1, 46, 100
3, 30408, Note_off_c, 1, 46, 64
3, 30420, Note_on_c, 1, 37, 100
3, 30564, Note_off_c, 1, 37, 64
3, 30600, Note_on_c, 1, 45, 100
3, 30648, Note_off_c, 1, 45, 64
3, 30660, Note_on_c, 1, 47, 100
3, 30708, Note_off_c, 1, 47, 64
3, 30720, Note_on_c, 1, 49, 100
3, 30768, Note_off_c, 1, 49, 64
3, 30780, Note_on_c, 1, 50, 100
3, 30828, Note_off_c, 1, 50, 64
3, 30840, Note_on_c, 1, 52, 100
3, 30888, Note_off_c, 1, 52, 64
3, 30900, Note_on_c, 1, 53, 100
3, 30960, Note_on_c, 1, 57, 100
3, 31008, Note_off_c, 1, 57, 64
3, 31020, Note_on_c, 1, 59, 100
3, 31068, Note_off_c, 1, 59, 64
3, 31080, Note_on_c, 1, 61, 100
3, 31128, Note_off_c, 1, 61, 64
3, 31140, Note_on_c, 1, 62, 100
3, 31188, Note_off_c, 1, 62, 64
3, 31200, Note_on_c, 1, 64, 100
3, 31248, Note_off_c, 1, 64, 64
3, 31260, Note_on_c, 1, 65, 100
3, 31284, Note_off_c, 1, 53, 64
3, 31380, Note_on_c, 1, 55, 100
3, 31488, Note_off_c, 1, 65, 64
3, 31500, Note_on_c, 1, 64, 100
3, 31548, Note_off_c, 1, 64, 64
3, 31560, Note_on_c, 1, 62, 100
3, 31608, Note_off_c, 1, 62, 64
3, 31620, Note_on_c, 1, 64, 100
3, 31668, Note_off_c, 1, 64, 64
3, 31680, Note_on_c, 1, 65, 100
3, 31764, Note_off_c, 1, 55, 64
3, 31776, Note_off_c, 1, 65, 64
3, 31800, Note_on_c, 1, 67, 100
3, 31860, Note_on_c, 1, 57, 100
3, 31908, Note_off_c, 1, 67, 64
3, 31920, Note_on_c, 1, 64, 100
3, 31968, Note_off_c, 1, 64, 64
3, 31980, Note_on_c, 1, 61, 100
3, 32028, Note_off_c, 1, 61, 64
3, 32040, Note_on_c, 1, 64, 100
3, 32088, Note_off_c, 1, 64, 64
3, 32100, Note_on_c, 1, 67, 100
3, 32244, Note_off_c, 1, 67, 64
3, 32244, Note_off_c, 1, 57, 64
3, 32280, Note_on_c, 1, 67, 100
3, 32328, Note_off_c, 1, 67, 64
3, 32340, Note_on_c, 1, 58, 100
3, 32340, Note_on_c, 1, 65, 100
3, 32628, Note_off_c, 1, 65, 64
3, 32640, Note_on_c, 1, 65, 100
3, 32688, Note_off_c, 1, 65, 64
3, 32700, Note_on_c, 1, 64, 100
3, 32748, Note_off_c, 1, 64, 64
3, 32760, Note_on_c, 1, 62, 100
3, 32808, Note_off_c, 1, 62, 64
3, 32820, Note_on_c, 1, 61, 100
3, 32868, Note_off_c, 1, 58, 64
3, 32880, Note_on_c, 1, 58, 100
3, 32916, Note_off_c, 1, 61, 64
3, 32928, Note_off_c, 1, 58, 64
3, 32940, Note_on_c, 1, 57, 100
3, 32988, Note_off_c, 1, 57, 64
3, 33000, Note_on_c, 1, 55, 100
3, 33048, Note_off_c, 1, 55, 64
3, 33060, Note_on_c, 1, 53, 100
3, 33108, Note_off_c, 1, 53, 64
3, 33120, Note_on_c, 1, 52, 100
3, 33168, Note_off_c, 1, 52, 64
3, 33180, Note_on_c, 1, 50, 100
3, 33228, Note_off_c, 1, 50, 64
3, 33240, Note_on_c, 1, 49, 100
3, 33288, Note_off_c, 1, 49, 64
3, 33300, Note_on_c, 1, 50, 100
3, 33396, Note_off_c, 1, 50, 64
3, 33420, Note_on_c, 1, 55, 100
3, 33516, Note_off_c, 1, 55, 64
3, 33540, Note_on_c, 1, 57, 100
3, 33636, Note_off_c, 1, 57, 64
3, 33660, Note_on_c, 1, 45, 100
3, 33756, Note_off_c, 1, 45, 64
3, 33780, Note_on_c, 1, 50, 100
3, 33840, Note_on_c, 1, 57, 100
3, 33864, Note_off_c, 1, 57, 64
3, 33870, Note_on_c, 1, 58, 100
3, 33894, Note_off_c, 1, 58, 64
3, 33900, Note_on_c, 1, 60, 100
3, 33924, Note_off_c, 1, 60, 64
3, 33930, Note_on_c, 1, 58, 100
3, 33954, Note_off_c, 1, 58, 64
3, 33960, Note_on_c, 1, 57, 100
3, 34008, Note_off_c, 1, 57, 64
3, 34020, Note_on_c, 1, 58, 100
3, 34068, Note_off_c, 1, 58, 64
3, 34080, Note_on_c, 1, 55, 100
3, 34104, Note_off_c, 1, 55, 64
3, 34110, Note_on_c, 1, 57, 100
3, 34134, Note_off_c, 1, 57, 64
3, 34140, Note_on_c, 1, 58, 100
3, 34164, Note_off_c, 1, 58, 64
3, 34170, Note_on_c, 1, 57, 100
3, 34194, Note_off_c, 1, 57, 64
3, 34200, Note_on_c, 1, 55, 100
3, 34248, Note_off_c, 1, 55, 64
3, 34260, Note_on_c, 1, 57, 100
3, 34452, Note_off_c, 1, 50, 64
3, 34500, Note_on_c, 1, 38, 100
3, 34548, Note_off_c, 1, 57, 64
3, 34596, Note_off_c, 1, 38, 64
3, 34680, Note_on_c, 1, 57, 100
3, 34728, Note_off_c, 1, 57, 64
3, 34740, Note_on_c, 1, 57, 100
3, 35028, Note_off_c, 1, 57, 64
3, 35040, Note_on_c, 1, 56, 100
3, 35088, Note_off_c, 1, 56, 64
3, 35100, Note_on_c, 1, 57, 100
3, 35148, Note_off_c, 1, 57, 64
3, 35160, Note_on_c, 1, 59, 100
3, 35208, Note_off_c, 1, 59, 64
3, 35220, Note_on_c, 1, 61, 100
3, 35268, Note_off_c, 1, 61, 64
3, 35280, Note_on_c, 1, 59, 100
3, 35328, Note_off_c, 1, 59, 64
3, 35340, Note_on_c, 1, 57, 100
3, 35388, Note_off_c, 1, 57, 64
3, 35400, Note_on_c, 1, 64, 100
3, 35448, Note_off_c, 1, 64, 64
3, 35460, Note_on_c, 1, 58, 100
3, 35604, Note_off_c, 1, 58, 64
3, 35640, Note_on_c, 1, 58, 100
3, 35688, Note_off_c, 1, 58, 64
3, 35700, Note_on_c, 1, 49, 100
3, 35844, Note_off_c, 1, 49, 64
3, 35880, Note_on_c, 1, 57, 100
3, 35928, Note_off_c, 1, 57, 64
3, 35940, Note_on_c, 1, 59, 100
3, 35988, Note_off_c, 1, 59, 64
3, 36000, Note_on_c, 1, 61, 100
3, 36048, Note_off_c, 1, 61, 64
3, 36060, Note_on_c, 1, 62, 100
3, 36108, Note_off_c, 1, 62, 64
3, 36120, Note_on_c, 1, 64, 100
3, 36168, Note_off_c, 1, 64, 64
3, 36660, Note_on_c, 1, 58, 100
3, 36756, Note_off_c, 1, 58, 64
3, 36780, Note_on_c, 1, 50, 100
3, 36828, Note_off_c, 1, 50, 64
3, 36840, Note_on_c, 1, 52, 100
3, 36888, Note_off_c, 1, 52, 64
3, 36900, Note_on_c, 1, 54, 100
3, 36948, Note_off_c, 1, 54, 64
3, 36960, Note_on_c, 1, 55, 100
3, 37008, Note_off_c, 1, 55, 64
3, 37020, Note_on_c, 1, 57, 100
3, 37068, Note_off_c, 1, 57, 64
3, 37080, Note_on_c, 1, 58, 100
3, 37128, Note_off_c, 1, 58, 64
3, 37140, Note_on_c, 1, 60, 100
3, 37140, Note_on_c, 1, 60, 100
3, 37188, Note_off_c, 1, 60, 64
3, 37200, Note_on_c, 1, 57, 100
3, 37224, Note_off_c, 1, 57, 64
3, 37230, Note_on_c, 1, 55, 100
3, 37254, Note_off_c, 1, 55, 64
3, 37260, Note_on_c, 1, 54, 100
3, 37284, Note_off_c, 1, 54, 64
3, 37290, Note_on_c, 1, 55, 100
3, 37314, Note_off_c, 1, 55, 64
3, 37320, Note_on_c, 1, 57, 100
3, 37368, Note_off_c, 1, 57, 64
3, 37380, Note_on_c, 1, 50, 100
3, 37428, Note_off_c, 1, 60, 64
3, 37440, Note_on_c, 1, 60, 100
3, 37488, Note_off_c, 1, 60, 64
3, 37500, Note_on_c, 1, 58, 100
3, 37548, Note_off_c, 1, 58, 64
3, 37560, Note_on_c, 1, 57, 100
3, 37572, Note_off_c, 1, 50, 64
3, 37608, Note_off_c, 1, 57, 64
3, 37620, Note_on_c, 1, 55, 100
3, 37668, Note_off_c, 1, 55, 64
3, 37680, Note_on_c, 1, 53, 100
3, 37728, Note_off_c, 1, 53, 64
3, 37740, Note_on_c, 1, 51, 100
3, 37788, Note_off_c, 1, 51, 64
3, 37800, Note_on_c, 1, 50, 100
3, 37848, Note_off_c, 1, 50, 64
3, 37860, Note_on_c, 1, 48, 100
3, 37908, Note_off_c, 1, 48, 64
3, 37920, Note_on_c, 1, 46, 100
3, 37968, Note_off_c, 1, 46, 64
3, 37980, Note_on_c, 1, 45, 100
3, 38028, Note_off_c, 1, 45, 64
3, 38040, Note_on_c, 1, 43, 100
3, 38088, Note_off_c, 1, 43, 64
3, 38100, Note_on_c, 1, 41, 100
3, 38148, Note_off_c, 1, 41, 64
3, 38160, Note_on_c, 1, 51, 100
3, 38208, Note_off_c, 1, 51, 64
3, 38220, Note_on_c, 1, 50, 100
3, 38268, Note_off_c, 1, 50, 64
3, 38280, Note_on_c, 1, 48, 100
3, 38328, Note_off_c, 1, 48, 64
3, 38340, Note_on_c, 1, 46, 100
3, 38388, Note_off_c, 1, 46, 64
3, 38400, Note_on_c, 1, 45, 100
3, 38448, Note_off_c, 1, 45, 64
3, 38460, Note_on_c, 1, 43, 100
3, 38508, Note_off_c, 1, 43, 64
3, 38520, Note_on_c, 1, 41, 100
3, 38568, Note_off_c, 1, 41, 64
3, 38580, Note_on_c, 1, 39, 100
3, 38868, Note_off_c, 1, 39, 64
3, 38880, Note_on_c, 1, 51, 100
3, 38904, Note_off_c, 1, 51, 64
3, 38910, Note_on_c, 1, 50, 100
3, 38934, Note_off_c, 1, 50, 64
3, 38940, Note_on_c, 1, 48, 100
3, 38964, Note_off_c, 1, 48, 64
3, 38970, Note_on_c, 1, 50, 100
3, 38994, Note_off_c, 1, 50, 64
3, 39000, Note_on_c, 1, 51, 100
3, 39048, Note_off_c, 1, 51, 64
3, 39060, Note_on_c, 1, 42, 100
3, 39156, Note_off_c, 1, 42, 64
3, 39180, Note_on_c, 1, 43, 100
3, 39228, Note_off_c, 1, 43, 64
3, 39240, Note_on_c, 1, 48, 100
3, 39288, Note_off_c, 1, 48, 64
3, 39300, Note_on_c, 1, 50, 100
3, 39396, Note_off_c, 1, 50, 64
3, 39420, Note_on_c, 1, 48, 100
3, 39516, Note_off_c, 1, 48, 64
3, 39540, Note_on_c, 1, 47, 100
3, 39600, Note_on_c, 1, 50, 100
3, 39648, Note_off_c, 1, 50, 64
3, 39660, Note_on_c, 1, 52, 100
3, 39708, Note_off_c, 1, 52, 64
3, 39720, Note_on_c, 1, 54, 100
3, 39768, Note_off_c, 1, 54, 64
3, 39780, Note_on_c, 1, 55, 100
3, 39828, Note_off_c, 1, 47, 64
3, 39840, Note_on_c, 1, 48, 100
3, 39876, Note_off_c, 1, 55, 64
3, 39888, Note_off_c, 1, 48, 64
3, 39900, Note_on_c, 1, 47, 100
3, 39948, Note_off_c, 1, 47, 64
3, 39960, Note_on_c, 1, 45, 100
3, 40008, Note_off_c, 1, 45, 64
3, 40020, Note_on_c, 1, 43, 100
3, 40068, Note_off_c, 1, 43, 64
3, 40080, Note_on_c, 1, 45, 100
3, 40128, Note_off_c, 1, 45, 64
3, 40140, Note_on_c, 1, 47, 100
3, 40188, Note_off_c, 1, 47, 64
3, 40200, Note_on_c, 1, 48, 100
3, 40248, Note_off_c, 1, 48, 64
3, 40260, Note_on_c, 1, 50, 100
3, 40308, Note_off_c, 1, 50, 64
3, 40320, Note_on_c, 1, 52, 100
3, 40344, Note_off_c, 1, 52, 64
3, 40350, Note_on_c, 1, 53, 100
3, 40374, Note_off_c, 1, 53, 64
3, 40380, Note_on_c, 1, 52, 100
3, 40428, Note_off_c, 1, 52, 64
3, 40440, Note_on_c, 1, 50, 100
3, 40488, Note_off_c, 1, 50, 64
3, 40500, Note_on_c, 1, 55, 100
3, 40548, Note_off_c, 1, 55, 64
3, 40560, Note_on_c, 1, 57, 100
3, 40608, Note_off_c, 1, 57, 64
3, 40620, Note_on_c, 1, 55, 100
3, 40668, Note_off_c, 1, 55, 64
3, 40680, Note_on_c, 1, 53, 100
3, 40728, Note_off_c, 1, 53, 64
3, 40740, Note_on_c, 1, 52, 100
3, 40800, Note_on_c, 1, 55, 100
3, 40836, Note_off_c, 1, 52, 64
3, 40848, Note_off_c, 1, 55, 64
3, 40860, Note_on_c, 1, 57, 100
3, 40860, Note_on_c, 1, 50, 100
3, 40908, Note_off_c, 1, 57, 64
3, 40920, Note_on_c, 1, 59, 100
3, 40956, Note_off_c, 1, 50, 64
3, 40968, Note_off_c, 1, 59, 64
3, 40980, Note_on_c, 1, 60, 100
3, 40980, Note_on_c, 1, 48, 100
3, 41076, Note_off_c, 1, 60, 64
3, 41100, Note_on_c, 1, 55, 100
3, 41148, Note_off_c, 1, 55, 64
3, 41160, Note_on_c, 1, 57, 100
3, 41208, Note_off_c, 1, 57, 64
3, 41220, Note_on_c, 1, 58, 100
3, 41268, Note_off_c, 1, 48, 64
3, 41280, Note_on_c, 1, 53, 100
3, 41328, Note_off_c, 1, 53, 64
3, 41340, Note_on_c, 1, 52, 100
3, 41388, Note_off_c, 1, 52, 64
3, 41400, Note_on_c, 1, 50, 100
3, 41412, Note_off_c, 1, 58, 64
3, 41448, Note_off_c, 1, 50, 64
3, 41460, Note_on_c, 1, 57, 100
3, 41460, Note_on_c, 1, 49, 100
3, 41508, Note_off_c, 1, 49, 64
3, 41520, Note_on_c, 1, 47, 100
3, 41568, Note_off_c, 1, 47, 64
3, 41580, Note_on_c, 1, 45, 100
3, 41628, Note_off_c, 1, 45, 64
3, 41640, Note_on_c, 1, 52, 100
3, 41652, Note_off_c, 1, 57, 64
3, 41688, Note_off_c, 1, 52, 64
3, 41700, Note_on_c, 1, 49, 100
3, 41712, Note_off_c, 1, 49, 64
3, 41715, Note_on_c, 1, 46, 100
3, 41727, Note_off_c, 1, 46, 64
3, 41730, Note_on_c, 1, 49, 100
3, 41742, Note_off_c, 1, 49, 64
3, 41745, Note_on_c, 1, 46, 100
3, 41856, Note_off_c, 1, 46, 64
3, 41880, Note_on_c, 1, 46, 100
3, 41928, Note_off_c, 1, 46, 64
3, 41940, Note_on_c, 1, 37, 100
3, 42084, Note_off_c, 1, 37, 64
3, 42120, Note_on_c, 1, 45, 100
3, 42168, Note_off_c, 1, 45, 64
3, 42180, Note_on_c, 1, 47, 100
3, 42228, Note_off_c, 1, 47, 64
3, 42240, Note_on_c, 1, 49, 100
3, 42288, Note_off_c, 1, 49, 64
3, 42300, Note_on_c, 1, 50, 100
3, 42348, Note_off_c, 1, 50, 64
3, 42360, Note_on_c, 1, 52, 100
3, 42408, Note_off_c, 1, 52, 64
3, 42420, Note_on_c, 1, 53, 100
3, 42480, Note_on_c, 1, 57, 100
3, 42528, Note_off_c, 1, 57, 64
3, 42540, Note_on_c, 1, 59, 100
3, 42588, Note_off_c, 1, 59, 64
3, 42600, Note_on_c, 1, 61, 100
3, 42648, Note_off_c, 1, 61, 64
3, 42660, Note_on_c, 1, 62, 100
3, 42708, Note_off_c, 1, 62, 64
3, 42720, Note_on_c, 1, 64, 100
3, 42768, Note_off_c, 1, 64, 64
3, 42780, Note_on_c, 1, 65, 100
3, 42804, Note_off_c, 1, 53, 64
3, 42900, Note_on_c, 1, 55, 100
3, 43008, Note_off_c, 1, 65, 64
3, 43020, Note_on_c, 1, 64, 100
3, 43068, Note_off_c, 1, 64, 64
3, 43080, Note_on_c, 1, 62, 100
3, 43128, Note_off_c, 1, 62, 64
3, 43140, Note_on_c, 1, 64, 100
3, 43188, Note_off_c, 1, 64, 64
3, 43200, Note_on_c, 1, 65, 100
3, 43284, Note_off_c, 1, 55, 64
3, 43296, Note_off_c, 1, 65, 64
3, 43320, Note_on_c, 1, 67, 100
3, 43380, Note_on_c, 1, 57, 100
3, 43428, Note_off_c, 1, 67, 64
3, 43440, Note_on_c, 1, 64, 100
3, 43488, Note_off_c, 1, 64, 64
3, 43500, Note_on_c, 1, 61, 100
3, 43548, Note_off_c, 1, 61, 64
3, 43560, Note_on_c, 1, 64, 100
3, 43608, Note_off_c, 1, 64, 64
3, 43620, Note_on_c, 1, 67, 100
3, 43764, Note_off_c, 1, 67, 64
3, 43764, Note_off_c, 1, 57, 64
3, 43800, Note_on_c, 1, 67, 100
3, 43848, Note_off_c, 1, 67, 64
3, 43860, Note_on_c, 1, 58, 100
3, 43860, Note_on_c, 1, 65, 100
3, 44148, Note_off_c, 1, 65, 64
3, 44160, Note_on_c, 1, 65, 100
3, 44208, Note_off_c, 1, 65, 64
3, 44220, Note_on_c, 1, 64, 100
3, 44268, Note_off_c, 1, 64, 64
3, 44280, Note_on_c, 1, 62, 100
3, 44328, Note_off_c, 1, 62, 64
3, 44340, Note_on_c, 1, 61, 100
3, 44388, Note_off_c, 1, 58, 64
3, 44400, Note_on_c, 1, 58, 100
3, 44436, Note_off_c, 1, 61, 64
3, 44448, Note_off_c, 1, 58, 64
3, 44460, Note_on_c, 1, 57, 100
3, 44508, Note_off_c, 1, 57, 64
3, 44520, Note_on_c, 1, 55, 100
3, 44568, Note_off_c, 1, 55, 64
3, 44580, Note_on_c, 1, 53, 100
3, 44628, Note_off_c, 1, 53, 64
3, 44640, Note_on_c, 1, 52, 100
3, 44688, Note_off_c, 1, 52, 64
3, 44700, Note_on_c, 1, 50, 100
3, 44748, Note_off_c, 1, 50, 64
3, 44760, Note_on_c, 1, 49, 100
3, 44808, Note_off_c, 1, 49, 64
3, 44820, Note_on_c, 1, 50, 100
3, 44916, Note_off_c, 1, 50, 64
3, 44940, Note_on_c, 1, 55, 100
3, 45036, Note_off_c, 1, 55, 64
3, 45060, Note_on_c, 1, 57, 100
3, 45156, Note_off_c, 1, 57, 64
3, 45180, Note_on_c, 1, 45, 100
3, 45276, Note_off_c, 1, 45, 64
3, 45300, Note_on_c, 1, 50, 100
3, 45360, Note_on_c, 1, 57, 100
3, 45384, Note_off_c, 1, 57, 64
3, 45390, Note_on_c, 1, 58, 100
3, 45414, Note_off_c, 1, 58, 64
3, 45420, Note_on_c, 1, 60, 100
3, 45444, Note_off_c, 1, 60, 64
3, 45450, Note_on_c, 1, 58, 100
3, 45474, Note_off_c, 1, 58, 64
3, 45480, Note_on_c, 1, 57, 100
3, 45528, Note_off_c, 1, 57, 64
3, 45540, Note_on_c, 1, 58, 100
3, 45588, Note_off_c, 1, 58, 64
3, 45600, Note_on_c, 1, 55, 100
3, 45624, Note_off_c, 1, 55, 64
3, 45630, Note_on_c, 1, 57, 100
3, 45654, Note_off_c, 1, 57, 64
3, 45660, Note_on_c, 1, 58, 100
3, 45684, Note_off_c, 1, 58, 64
3, 45690, Note_on_c, 1, 57, 100
3, 45714, Note_off_c, 1, 57, 64
3, 45720, Note_on_c, 1, 55, 100
3, 45768, Note_off_c, 1, 55, 64
3, 45780, Note_on_c, 1, 57, 100
3, 45972, Note_off_c, 1, 50, 64
3, 46020, Note_on_c, 1, 38, 100
3, 46068, Note_off_c, 1, 57, 64
3, 46116, Note_off_c, 1, 38, 64
3, 46116, End_track
4, 0, Start_track
4, 0, Title_t, "Arr. Gary Bricault, (c) 1997"
4, 0, End_track
0, 0, End_of_file
