0, 0, Header, 0, 1, 384
1, 0, Start_track
1, 0, Copyright_t, "(C) John Sankey 1998"
1, 0, Program_c, 0, 6
1, 0, Pitch_bend_c, 0, 8192
1, 0, Program_c, 1, 6
1, 0, Pitch_bend_c, 1, 7792
1, 0, Program_c, 2, 6
1, 0, Pitch_bend_c, 2, 7876
1, 0, Program_c, 3, 6
1, 0, Pitch_bend_c, 3, 7952
1, 0, Program_c, 4, 6
1, 0, Pitch_bend_c, 4, 7792
1, 0, Program_c, 5, 6
1, 0, Pitch_bend_c, 5, 8112
1, 0, Program_c, 6, 6
1, 0, Pitch_bend_c, 6, 7712
1, 0, Program_c, 7, 6
1, 0, Pitch_bend_c, 7, 8037
1, 0, Program_c, 8, 6
1, 0, Pitch_bend_c, 8, 7872
1, 0, Program_c, 10, 6
1, 0, Pitch_bend_c, 10, 7712
1, 0, Program_c, 11, 6
1, 0, Pitch_bend_c, 11, 8032
1, 0, Program_c, 12, 6
1, 0, Pitch_bend_c, 12, 7872
1, 0, Tempo, 500000
1, 48, Note_on_c, 4, 64, 127
1, 206, Note_off_c, 4, 64, 127
1, 208, Note_on_c, 6, 66, 127
1, 366, Note_off_c, 6, 66, 127
1, 368, Note_on_c, 7, 67, 127
1, 526, Note_off_c, 7, 67, 127
1, 528, Note_on_c, 10, 69, 127
1, 686, Note_off_c, 10, 69, 127
1, 688, Note_on_c, 12, 71, 127
1, 846, Note_off_c, 12, 71, 127
1, 848, Note_on_c, 1, 73, 127
1, 1006, Note_off_c, 1, 73, 127
1, 1008, Note_on_c, 3, 75, 127
1, 1166, Note_off_c, 3, 75, 127
1, 1168, Note_on_c, 4, 76, 127
1, 1326, Note_off_c, 4, 76, 127
1, 1328, Note_on_c, 3, 75, 127
1, 1486, Note_off_c, 3, 75, 127
1, 1488, Note_on_c, 1, 73, 127
1, 1646, Note_off_c, 1, 73, 127
1, 1648, Note_on_c, 12, 71, 127
1, 1806, Note_off_c, 12, 71, 127
1, 1808, Note_on_c, 10, 69, 127
1, 1966, Note_off_c, 10, 69, 127
1, 1968, Note_on_c, 7, 67, 127
1, 2126, Note_off_c, 7, 67, 127
1, 2128, Note_on_c, 6, 66, 127
1, 2286, Note_off_c, 6, 66, 127
1, 2288, Note_on_c, 4, 64, 127
1, 2608, Note_on_c, 4, 40, 127
1, 2821, Note_off_c, 4, 64, 127
1, 2928, Note_on_c, 0, 72, 127
1, 3246, Note_off_c, 0, 72, 127
1, 3246, Note_off_c, 4, 40, 127
1, 3248, Note_on_c, 4, 52, 127
1, 3248, Note_on_c, 12, 71, 127
1, 3566, Note_off_c, 12, 71, 127
1, 3568, Note_on_c, 11, 70, 127
1, 3886, Note_off_c, 11, 70, 127
1, 3886, Note_off_c, 4, 52, 127
1, 3888, Note_on_c, 3, 51, 127
1, 3888, Note_on_c, 11, 70, 127
1, 4046, Note_off_c, 11, 70, 127
1, 4048, Note_on_c, 12, 71, 127
1, 4208, Note_on_c, 12, 59, 127
1, 4248, Note_off_c, 12, 71, 127
1, 4525, Note_off_c, 12, 59, 127
1, 4527, Note_off_c, 3, 51, 127
1, 4529, Note_on_c, 2, 38, 127
1, 4849, Note_on_c, 11, 70, 127
1, 5167, Note_off_c, 11, 70, 127
1, 5167, Note_off_c, 2, 38, 127
1, 5169, Note_on_c, 2, 50, 127
1, 5169, Note_on_c, 10, 69, 127
1, 5487, Note_off_c, 10, 69, 127
1, 5489, Note_on_c, 8, 68, 127
1, 5807, Note_off_c, 8, 68, 127
1, 5807, Note_off_c, 2, 50, 127
1, 5809, Note_on_c, 1, 49, 127
1, 5809, Note_on_c, 8, 68, 127
1, 5967, Note_off_c, 8, 68, 127
1, 5969, Note_on_c, 10, 69, 127
1, 6129, Note_on_c, 10, 57, 127
1, 6169, Note_off_c, 10, 69, 127
1, 6447, Note_off_c, 1, 49, 127
1, 6449, Note_on_c, 0, 36, 127
1, 6562, Note_off_c, 10, 57, 127
1, 6609, Note_on_c, 10, 69, 127
1, 6767, Note_off_c, 10, 69, 127
1, 6769, Note_on_c, 0, 72, 127
1, 6927, Note_off_c, 0, 72, 127
1, 6929, Note_on_c, 4, 76, 127
1, 7087, Note_off_c, 4, 76, 127
1, 7087, Note_off_c, 0, 36, 127
1, 7089, Note_on_c, 0, 48, 127
1, 7089, Note_on_c, 10, 81, 127
1, 7247, Note_off_c, 10, 81, 127
1, 7249, Note_on_c, 7, 79, 127
1, 7407, Note_off_c, 7, 79, 127
1, 7409, Note_on_c, 6, 78, 127
1, 7567, Note_off_c, 6, 78, 127
1, 7569, Note_on_c, 4, 76, 127
1, 7727, Note_off_c, 4, 76, 127
1, 7727, Note_off_c, 0, 48, 127
1, 7729, Note_on_c, 12, 47, 127
1, 7729, Note_on_c, 3, 75, 127
1, 7887, Note_off_c, 3, 75, 127
1, 7889, Note_on_c, 6, 78, 127
1, 8047, Note_off_c, 6, 78, 127
1, 8049, Note_on_c, 7, 79, 127
1, 8367, Note_off_c, 12, 47, 127
1, 8369, Note_on_c, 1, 49, 127
1, 8499, Note_off_c, 7, 79, 127
1, 8529, Note_on_c, 4, 76, 127
1, 8687, Note_off_c, 4, 76, 127
1, 8689, Note_on_c, 11, 70, 127
1, 9007, Note_off_c, 1, 49, 127
1, 9009, Note_on_c, 3, 51, 127
1, 9167, Note_off_c, 11, 70, 127
1, 9169, Note_on_c, 10, 69, 127
1, 9327, Note_off_c, 10, 69, 127
1, 9329, Note_on_c, 6, 78, 127
1, 9487, Note_off_c, 6, 78, 127
1, 9489, Note_on_c, 10, 69, 127
1, 9647, Note_off_c, 10, 69, 127
1, 9647, Note_off_c, 3, 51, 127
1, 9649, Note_on_c, 4, 52, 127
1, 9649, Note_on_c, 10, 69, 127
1, 9807, Note_off_c, 10, 69, 127
1, 9809, Note_on_c, 6, 66, 127
1, 9967, Note_off_c, 6, 66, 127
1, 9969, Note_on_c, 7, 67, 127
1, 10127, Note_off_c, 7, 67, 127
1, 10129, Note_on_c, 0, 72, 127
1, 10287, Note_off_c, 0, 72, 127
1, 10287, Note_off_c, 4, 52, 127
1, 10289, Note_on_c, 2, 50, 127
1, 10289, Note_on_c, 0, 72, 127
1, 10447, Note_off_c, 0, 72, 127
1, 10449, Note_on_c, 11, 70, 127
1, 10607, Note_off_c, 11, 70, 127
1, 10609, Note_on_c, 12, 71, 127
1, 10767, Note_off_c, 12, 71, 127
1, 10769, Note_on_c, 6, 78, 127
1, 10927, Note_off_c, 6, 78, 127
1, 10927, Note_off_c, 2, 50, 127
1, 10929, Note_on_c, 1, 49, 127
1, 10929, Note_on_c, 4, 76, 127
1, 11087, Note_off_c, 4, 76, 127
1, 11089, Note_on_c, 2, 74, 127
1, 11247, Note_off_c, 2, 74, 127
1, 11249, Note_on_c, 4, 76, 127
1, 11407, Note_off_c, 4, 76, 127
1, 11409, Note_on_c, 11, 70, 127
1, 11567, Note_off_c, 11, 70, 127
1, 11567, Note_off_c, 1, 49, 127
1, 11569, Note_on_c, 12, 47, 127
1, 11569, Note_on_c, 2, 74, 127
1, 11727, Note_off_c, 2, 74, 127
1, 11727, Note_off_c, 12, 47, 127
1, 11729, Note_on_c, 1, 49, 127
1, 11729, Note_on_c, 1, 73, 127
1, 11887, Note_off_c, 1, 73, 127
1, 11887, Note_off_c, 1, 49, 127
1, 11889, Note_on_c, 2, 50, 127
1, 11889, Note_on_c, 12, 71, 127
1, 12047, Note_off_c, 2, 50, 127
1, 12049, Note_on_c, 4, 52, 127
1, 12207, Note_off_c, 4, 52, 127
1, 12209, Note_on_c, 6, 54, 127
1, 12356, Note_off_c, 12, 71, 127
1, 12368, Note_off_c, 6, 54, 127
1, 12370, Note_on_c, 8, 56, 127
1, 12528, Note_off_c, 8, 56, 127
1, 12530, Note_on_c, 11, 58, 127
1, 12688, Note_off_c, 11, 58, 127
1, 12690, Note_on_c, 12, 59, 127
1, 12848, Note_off_c, 12, 59, 127
1, 12850, Note_on_c, 11, 58, 127
1, 13008, Note_off_c, 11, 58, 127
1, 13010, Note_on_c, 8, 56, 127
1, 13168, Note_off_c, 8, 56, 127
1, 13170, Note_on_c, 6, 54, 127
1, 13328, Note_off_c, 6, 54, 127
1, 13330, Note_on_c, 4, 52, 127
1, 13488, Note_off_c, 4, 52, 127
1, 13490, Note_on_c, 2, 50, 127
1, 13648, Note_off_c, 2, 50, 127
1, 13650, Note_on_c, 1, 49, 127
1, 13808, Note_off_c, 1, 49, 127
1, 13810, Note_on_c, 12, 47, 127
1, 14127, Note_off_c, 12, 47, 127
1, 14130, Note_on_c, 12, 71, 127
1, 14450, Note_on_c, 7, 55, 127
1, 14763, Note_off_c, 12, 71, 127
1, 14768, Note_off_c, 7, 55, 127
1, 14770, Note_on_c, 6, 54, 127
1, 14770, Note_on_c, 12, 83, 127
1, 15088, Note_off_c, 6, 54, 127
1, 15090, Note_on_c, 5, 53, 127
1, 15408, Note_off_c, 5, 53, 127
1, 15408, Note_off_c, 12, 83, 127
1, 15410, Note_on_c, 5, 53, 127
1, 15410, Note_on_c, 11, 82, 127
1, 15568, Note_off_c, 5, 53, 127
1, 15570, Note_on_c, 6, 54, 127
1, 15728, Note_off_c, 6, 54, 127
1, 15730, Note_on_c, 6, 42, 127
1, 16027, Note_off_c, 11, 82, 127
1, 16047, Note_off_c, 6, 42, 127
1, 16050, Note_on_c, 10, 69, 127
1, 16370, Note_on_c, 5, 53, 127
1, 16688, Note_off_c, 5, 53, 127
1, 16688, Note_off_c, 10, 69, 127
1, 16690, Note_on_c, 4, 52, 127
1, 16690, Note_on_c, 10, 81, 127
1, 17008, Note_off_c, 4, 52, 127
1, 17010, Note_on_c, 3, 51, 127
1, 17328, Note_off_c, 3, 51, 127
1, 17328, Note_off_c, 10, 81, 127
1, 17330, Note_on_c, 3, 51, 127
1, 17330, Note_on_c, 8, 80, 127
1, 17488, Note_off_c, 3, 51, 127
1, 17490, Note_on_c, 4, 52, 127
1, 17648, Note_off_c, 4, 52, 127
1, 17650, Note_on_c, 4, 40, 127
1, 17947, Note_off_c, 8, 80, 127
1, 17967, Note_off_c, 4, 40, 127
1, 17970, Note_on_c, 7, 67, 127
1, 18130, Note_on_c, 4, 52, 127
1, 18288, Note_off_c, 4, 52, 127
1, 18290, Note_on_c, 7, 55, 127
1, 18448, Note_off_c, 7, 55, 127
1, 18450, Note_on_c, 12, 59, 127
1, 18608, Note_off_c, 12, 59, 127
1, 18608, Note_off_c, 7, 67, 127
1, 18610, Note_on_c, 4, 64, 127
1, 18610, Note_on_c, 7, 79, 127
1, 18768, Note_off_c, 4, 64, 127
1, 18770, Note_on_c, 2, 62, 127
1, 18928, Note_off_c, 2, 62, 127
1, 18930, Note_on_c, 1, 61, 127
1, 19088, Note_off_c, 1, 61, 127
1, 19090, Note_on_c, 12, 59, 127
1, 19248, Note_off_c, 12, 59, 127
1, 19248, Note_off_c, 7, 79, 127
1, 19250, Note_on_c, 11, 58, 127
1, 19250, Note_on_c, 6, 78, 127
1, 19408, Note_off_c, 11, 58, 127
1, 19410, Note_on_c, 1, 61, 127
1, 19568, Note_off_c, 1, 61, 127
1, 19570, Note_on_c, 2, 62, 127
1, 19867, Note_off_c, 6, 78, 127
1, 19890, Note_on_c, 8, 80, 127
1, 20037, Note_off_c, 2, 62, 127
1, 20050, Note_on_c, 12, 59, 127
1, 20208, Note_off_c, 12, 59, 127
1, 20210, Note_on_c, 5, 53, 127
1, 20507, Note_off_c, 8, 80, 127
1, 20530, Note_on_c, 11, 82, 127
1, 20677, Note_off_c, 5, 53, 127
1, 20690, Note_on_c, 4, 52, 127
1, 20848, Note_off_c, 4, 52, 127
1, 20850, Note_on_c, 1, 61, 127
1, 21008, Note_off_c, 1, 61, 127
1, 21010, Note_on_c, 4, 52, 127
1, 21147, Note_off_c, 11, 82, 127
1, 21169, Note_off_c, 4, 52, 127
1, 21171, Note_on_c, 4, 52, 127
1, 21171, Note_on_c, 12, 83, 127
1, 21329, Note_off_c, 4, 52, 127
1, 21331, Note_on_c, 1, 49, 127
1, 21489, Note_off_c, 1, 49, 127
1, 21491, Note_on_c, 2, 50, 127
1, 21649, Note_off_c, 2, 50, 127
1, 21651, Note_on_c, 7, 55, 127
1, 21809, Note_off_c, 7, 55, 127
1, 21811, Note_on_c, 7, 55, 127
1, 21969, Note_off_c, 7, 55, 127
1, 21971, Note_off_c, 12, 83, 127
1, 21971, Note_on_c, 4, 52, 127
1, 22129, Note_off_c, 4, 52, 127
1, 22131, Note_on_c, 6, 54, 127
1, 22289, Note_off_c, 6, 54, 127
1, 22291, Note_on_c, 4, 64, 127
1, 22449, Note_off_c, 4, 64, 127
1, 22451, Note_on_c, 2, 62, 127
1, 22451, Note_on_c, 12, 71, 127
1, 22609, Note_off_c, 2, 62, 127
1, 22611, Note_on_c, 1, 61, 127
1, 22769, Note_off_c, 1, 61, 127
1, 22771, Note_on_c, 2, 62, 127
1, 22929, Note_off_c, 2, 62, 127
1, 22931, Note_on_c, 8, 56, 127
1, 23089, Note_off_c, 8, 56, 127
1, 23091, Note_on_c, 0, 60, 127
1, 23249, Note_off_c, 12, 71, 127
1, 23251, Note_on_c, 8, 68, 127
1, 23409, Note_off_c, 8, 68, 127
1, 23411, Note_on_c, 10, 69, 127
1, 23569, Note_off_c, 10, 69, 127
1, 23571, Note_on_c, 2, 74, 127
1, 23724, Note_off_c, 0, 60, 127
1, 23729, Note_off_c, 2, 74, 127
1, 23731, Note_on_c, 2, 74, 127
1, 23889, Note_off_c, 2, 74, 127
1, 23891, Note_on_c, 12, 71, 127
1, 24049, Note_off_c, 12, 71, 127
1, 24051, Note_on_c, 0, 72, 127
1, 24209, Note_off_c, 0, 72, 127
1, 24211, Note_on_c, 12, 83, 127
1, 24369, Note_off_c, 12, 83, 127
1, 24371, Note_on_c, 0, 48, 127
1, 24371, Note_on_c, 10, 81, 127
1, 24529, Note_off_c, 10, 81, 127
1, 24531, Note_on_c, 7, 79, 127
1, 24689, Note_off_c, 7, 79, 127
1, 24691, Note_on_c, 10, 81, 127
1, 24849, Note_off_c, 10, 81, 127
1, 24851, Note_on_c, 3, 75, 127
1, 25009, Note_off_c, 3, 75, 127
1, 25011, Note_on_c, 7, 79, 127
1, 25153, Note_off_c, 0, 48, 127
1, 25171, Note_on_c, 10, 45, 127
1, 25329, Note_off_c, 10, 45, 127
1, 25331, Note_on_c, 12, 47, 127
1, 25489, Note_off_c, 12, 47, 127
1, 25491, Note_on_c, 6, 54, 127
1, 25644, Note_off_c, 7, 79, 127
1, 25649, Note_off_c, 6, 54, 127
1, 25651, Note_on_c, 6, 54, 127
1, 25809, Note_off_c, 6, 54, 127
1, 25811, Note_on_c, 3, 51, 127
1, 25969, Note_off_c, 3, 51, 127
1, 25971, Note_on_c, 4, 52, 127
1, 26129, Note_off_c, 4, 52, 127
1, 26131, Note_on_c, 0, 60, 127
1, 26289, Note_off_c, 0, 60, 127
1, 26291, Note_on_c, 12, 59, 127
1, 26291, Note_on_c, 7, 67, 127
1, 26449, Note_off_c, 12, 59, 127
1, 26451, Note_on_c, 10, 57, 127
1, 26609, Note_off_c, 10, 57, 127
1, 26611, Note_on_c, 12, 59, 127
1, 26769, Note_off_c, 12, 59, 127
1, 26771, Note_on_c, 4, 52, 127
1, 26929, Note_off_c, 4, 52, 127
1, 26931, Note_on_c, 10, 57, 127
1, 27056, Note_off_c, 7, 67, 127
1, 27091, Note_on_c, 4, 64, 127
1, 27249, Note_off_c, 4, 64, 127
1, 27251, Note_on_c, 6, 66, 127
1, 27409, Note_off_c, 6, 66, 127
1, 27411, Note_on_c, 12, 71, 127
1, 27564, Note_off_c, 10, 57, 127
1, 27569, Note_off_c, 12, 71, 127
1, 27571, Note_on_c, 12, 71, 127
1, 27729, Note_off_c, 12, 71, 127
1, 27731, Note_on_c, 7, 67, 127
1, 27889, Note_off_c, 7, 67, 127
1, 27891, Note_on_c, 10, 69, 127
1, 28049, Note_off_c, 10, 69, 127
1, 28051, Note_on_c, 7, 79, 127
1, 28209, Note_off_c, 7, 79, 127
1, 28211, Note_on_c, 10, 45, 127
1, 28211, Note_on_c, 6, 78, 127
1, 28369, Note_off_c, 6, 78, 127
1, 28371, Note_on_c, 4, 76, 127
1, 28529, Note_off_c, 4, 76, 127
1, 28531, Note_on_c, 6, 78, 127
1, 28689, Note_off_c, 6, 78, 127
1, 28691, Note_on_c, 12, 71, 127
1, 28849, Note_off_c, 12, 71, 127
1, 28851, Note_on_c, 4, 76, 127
1, 28993, Note_off_c, 10, 45, 127
1, 29011, Note_on_c, 6, 42, 127
1, 29169, Note_off_c, 6, 42, 127
1, 29171, Note_on_c, 7, 43, 127
1, 29329, Note_off_c, 7, 43, 127
1, 29331, Note_on_c, 0, 48, 127
1, 29484, Note_off_c, 4, 76, 127
1, 29489, Note_off_c, 0, 48, 127
1, 29491, Note_on_c, 0, 48, 127
1, 29649, Note_off_c, 0, 48, 127
1, 29651, Note_on_c, 10, 45, 127
1, 29809, Note_off_c, 10, 45, 127
1, 29811, Note_on_c, 12, 47, 127
1, 29969, Note_off_c, 12, 47, 127
1, 29971, Note_on_c, 10, 57, 127
1, 30129, Note_off_c, 10, 57, 127
1, 30131, Note_on_c, 7, 55, 127
1, 30131, Note_on_c, 4, 64, 127
1, 30289, Note_off_c, 7, 55, 127
1, 30291, Note_on_c, 6, 54, 127
1, 30449, Note_off_c, 6, 54, 127
1, 30451, Note_on_c, 7, 55, 127
1, 30609, Note_off_c, 7, 55, 127
1, 30611, Note_on_c, 1, 49, 127
1, 30769, Note_off_c, 1, 49, 127
1, 30771, Note_on_c, 6, 54, 127
1, 30929, Note_off_c, 4, 64, 127
1, 30931, Note_on_c, 1, 61, 127
1, 31089, Note_off_c, 1, 61, 127
1, 31091, Note_on_c, 3, 63, 127
1, 31249, Note_off_c, 3, 63, 127
1, 31251, Note_on_c, 7, 67, 127
1, 31404, Note_off_c, 6, 54, 127
1, 31409, Note_off_c, 7, 67, 127
1, 31411, Note_on_c, 7, 67, 127
1, 31569, Note_off_c, 7, 67, 127
1, 31571, Note_on_c, 4, 64, 127
1, 31729, Note_off_c, 4, 64, 127
1, 31731, Note_on_c, 6, 66, 127
1, 31889, Note_off_c, 6, 66, 127
1, 31891, Note_on_c, 4, 76, 127
1, 32049, Note_off_c, 4, 76, 127
1, 32051, Note_on_c, 12, 47, 127
1, 32051, Note_on_c, 3, 75, 127
1, 32209, Note_off_c, 3, 75, 127
1, 32211, Note_on_c, 1, 73, 127
1, 32369, Note_off_c, 1, 73, 127
1, 32371, Note_on_c, 3, 75, 127
1, 32529, Note_off_c, 3, 75, 127
1, 32531, Note_on_c, 10, 69, 127
1, 32682, Note_off_c, 12, 47, 127
1, 32689, Note_off_c, 10, 69, 127
1, 32691, Note_on_c, 4, 52, 127
1, 32691, Note_on_c, 7, 67, 127
1, 32849, Note_off_c, 7, 67, 127
1, 32849, Note_off_c, 4, 52, 127
1, 32851, Note_on_c, 6, 54, 127
1, 32851, Note_on_c, 6, 66, 127
1, 33009, Note_off_c, 6, 66, 127
1, 33009, Note_off_c, 6, 54, 127
1, 33011, Note_on_c, 7, 55, 127
1, 33011, Note_on_c, 4, 64, 127
1, 33169, Note_off_c, 7, 55, 127
1, 33171, Note_on_c, 10, 57, 127
1, 33329, Note_off_c, 10, 57, 127
1, 33331, Note_on_c, 12, 59, 127
1, 33378, Note_off_c, 4, 64, 127
1, 33492, Note_on_c, 1, 61, 127
1, 33501, Note_off_c, 12, 59, 127
1, 33650, Note_off_c, 1, 61, 127
1, 33652, Note_on_c, 3, 63, 127
1, 33810, Note_off_c, 3, 63, 127
1, 33812, Note_on_c, 4, 64, 127
1, 33970, Note_off_c, 4, 64, 127
1, 33972, Note_on_c, 3, 63, 127
1, 34130, Note_off_c, 3, 63, 127
1, 34132, Note_on_c, 1, 61, 127
1, 34290, Note_off_c, 1, 61, 127
1, 34292, Note_on_c, 12, 59, 127
1, 34450, Note_off_c, 12, 59, 127
1, 34452, Note_on_c, 10, 57, 127
1, 34610, Note_off_c, 10, 57, 127
1, 34612, Note_on_c, 7, 55, 127
1, 34612, Note_on_c, 4, 64, 127
1, 34770, Note_off_c, 4, 64, 127
1, 34770, Note_off_c, 7, 55, 127
1, 34772, Note_on_c, 6, 54, 127
1, 34772, Note_on_c, 6, 66, 127
1, 34930, Note_off_c, 6, 66, 127
1, 34930, Note_off_c, 6, 54, 127
1, 34932, Note_on_c, 4, 52, 127
1, 34932, Note_on_c, 7, 67, 127
1, 35090, Note_off_c, 7, 67, 127
1, 35090, Note_off_c, 4, 52, 127
1, 35092, Note_on_c, 6, 54, 127
1, 35092, Note_on_c, 10, 69, 127
1, 35250, Note_off_c, 10, 69, 127
1, 35250, Note_off_c, 6, 54, 127
1, 35252, Note_on_c, 7, 55, 127
1, 35252, Note_on_c, 12, 71, 127
1, 35410, Note_off_c, 12, 71, 127
1, 35410, Note_off_c, 7, 55, 127
1, 35412, Note_on_c, 10, 57, 127
1, 35412, Note_on_c, 1, 73, 127
1, 35570, Note_off_c, 1, 73, 127
1, 35570, Note_off_c, 10, 57, 127
1, 35572, Note_on_c, 12, 59, 127
1, 35572, Note_on_c, 3, 75, 127
1, 35729, Note_off_c, 3, 75, 127
1, 35729, Note_off_c, 12, 59, 127
1, 35732, Note_on_c, 0, 60, 127
1, 35732, Note_on_c, 4, 76, 127
1, 35889, Note_off_c, 4, 76, 127
1, 35889, Note_off_c, 0, 60, 127
1, 35892, Note_on_c, 12, 59, 127
1, 35892, Note_on_c, 3, 75, 127
1, 36049, Note_off_c, 3, 75, 127
1, 36049, Note_off_c, 12, 59, 127
1, 36052, Note_on_c, 10, 57, 127
1, 36052, Note_on_c, 1, 73, 127
1, 36209, Note_off_c, 1, 73, 127
1, 36209, Note_off_c, 10, 57, 127
1, 36212, Note_on_c, 7, 55, 127
1, 36212, Note_on_c, 12, 71, 127
1, 36369, Note_off_c, 12, 71, 127
1, 36369, Note_off_c, 7, 55, 127
1, 36372, Note_on_c, 6, 54, 127
1, 36372, Note_on_c, 10, 69, 127
1, 36529, Note_off_c, 10, 69, 127
1, 36529, Note_off_c, 6, 54, 127
1, 36532, Note_on_c, 4, 52, 127
1, 36532, Note_on_c, 7, 67, 127
1, 36689, Note_off_c, 7, 67, 127
1, 36689, Note_off_c, 4, 52, 127
1, 36692, Note_on_c, 6, 54, 127
1, 36692, Note_on_c, 6, 66, 127
1, 36848, Note_off_c, 6, 54, 127
1, 36849, Note_off_c, 6, 66, 127
1, 36852, Note_on_c, 7, 55, 127
1, 36852, Note_on_c, 4, 64, 127
1, 36997, Note_off_c, 4, 64, 127
1, 37008, Note_off_c, 7, 55, 127
1, 37012, Note_on_c, 10, 57, 127
1, 37012, Note_on_c, 6, 66, 127
1, 37157, Note_off_c, 6, 66, 127
1, 37168, Note_off_c, 10, 57, 127
1, 37172, Note_on_c, 12, 59, 127
1, 37172, Note_on_c, 7, 67, 127
1, 37317, Note_off_c, 7, 67, 127
1, 37328, Note_off_c, 12, 59, 127
1, 37332, Note_on_c, 1, 61, 127
1, 37332, Note_on_c, 10, 69, 127
1, 37477, Note_off_c, 10, 69, 127
1, 37487, Note_off_c, 1, 61, 127
1, 37492, Note_on_c, 3, 63, 127
1, 37492, Note_on_c, 12, 71, 127
1, 37637, Note_off_c, 12, 71, 127
1, 37647, Note_off_c, 3, 63, 127
1, 37652, Note_on_c, 4, 64, 127
1, 37652, Note_on_c, 0, 72, 127
1, 37797, Note_off_c, 0, 72, 127
1, 37807, Note_off_c, 4, 64, 127
1, 37812, Note_on_c, 3, 63, 127
1, 37812, Note_on_c, 12, 71, 127
1, 37957, Note_off_c, 12, 71, 127
1, 37967, Note_off_c, 3, 63, 127
1, 37972, Note_on_c, 1, 61, 127
1, 37972, Note_on_c, 10, 69, 127
1, 38117, Note_off_c, 10, 69, 127
1, 38127, Note_off_c, 1, 61, 127
1, 38132, Note_on_c, 12, 59, 127
1, 38132, Note_on_c, 7, 67, 127
1, 38277, Note_off_c, 7, 67, 127
1, 38288, Note_off_c, 12, 59, 127
1, 38292, Note_on_c, 10, 57, 127
1, 38292, Note_on_c, 6, 66, 127
1, 38437, Note_off_c, 6, 66, 127
1, 38448, Note_off_c, 10, 57, 127
1, 38452, Note_on_c, 7, 55, 127
1, 38452, Note_on_c, 4, 64, 127
1, 38608, Note_off_c, 7, 55, 127
1, 38612, Note_on_c, 6, 54, 127
1, 38612, Note_on_c, 6, 66, 127
1, 38622, Note_off_c, 4, 64, 127
1, 38768, Note_off_c, 6, 54, 127
1, 38772, Note_on_c, 4, 52, 127
1, 38772, Note_on_c, 7, 67, 127
1, 38782, Note_off_c, 6, 66, 127
1, 38932, Note_on_c, 6, 54, 127
1, 38932, Note_on_c, 10, 69, 127
1, 38942, Note_off_c, 7, 67, 127
1, 38942, Note_off_c, 4, 52, 127
1, 39092, Note_on_c, 7, 55, 127
1, 39092, Note_on_c, 12, 71, 127
1, 39102, Note_off_c, 10, 69, 127
1, 39102, Note_off_c, 6, 54, 127
1, 39252, Note_on_c, 10, 57, 127
1, 39252, Note_on_c, 1, 73, 127
1, 39262, Note_off_c, 12, 71, 127
1, 39262, Note_off_c, 7, 55, 127
1, 39412, Note_on_c, 12, 59, 127
1, 39412, Note_on_c, 3, 75, 127
1, 39422, Note_off_c, 1, 73, 127
1, 39422, Note_off_c, 10, 57, 127
1, 39572, Note_on_c, 0, 60, 127
1, 39572, Note_on_c, 4, 76, 127
1, 39582, Note_off_c, 3, 75, 127
1, 39582, Note_off_c, 12, 59, 127
1, 39732, Note_on_c, 12, 59, 127
1, 39732, Note_on_c, 3, 75, 127
1, 39742, Note_off_c, 4, 76, 127
1, 39742, Note_off_c, 0, 60, 127
1, 39892, Note_on_c, 10, 57, 127
1, 39892, Note_on_c, 1, 73, 127
1, 39902, Note_off_c, 3, 75, 127
1, 39902, Note_off_c, 12, 59, 127
1, 40052, Note_on_c, 7, 55, 127
1, 40052, Note_on_c, 12, 71, 127
1, 40062, Note_off_c, 1, 73, 127
1, 40062, Note_off_c, 10, 57, 127
1, 40212, Note_on_c, 6, 54, 127
1, 40212, Note_on_c, 10, 69, 127
1, 40222, Note_off_c, 12, 71, 127
1, 40222, Note_off_c, 7, 55, 127
1, 40362, Note_off_c, 6, 54, 127
1, 40372, Note_on_c, 4, 52, 127
1, 40372, Note_on_c, 7, 67, 127
1, 40382, Note_off_c, 10, 69, 127
1, 40532, Note_on_c, 6, 66, 127
1, 40542, Note_off_c, 7, 67, 127
1, 40682, Note_off_c, 6, 66, 127
1, 40692, Note_on_c, 4, 64, 127
1, 40839, Note_off_c, 4, 52, 127
1, 41009, Note_off_c, 4, 64, 127
1, 41012, Note_on_c, 4, 64, 127
1, 41332, Note_on_c, 0, 84, 127
1, 41650, Note_off_c, 0, 84, 127
1, 41650, Note_off_c, 4, 64, 127
1, 41652, Note_on_c, 4, 52, 127
1, 41652, Note_on_c, 12, 83, 127
1, 41970, Note_off_c, 12, 83, 127
1, 41972, Note_on_c, 11, 82, 127
1, 42290, Note_off_c, 11, 82, 127
1, 42290, Note_off_c, 4, 52, 127
1, 42292, Note_on_c, 3, 51, 127
1, 42292, Note_on_c, 11, 82, 127
1, 42449, Note_off_c, 11, 82, 127
1, 42452, Note_on_c, 12, 83, 127
1, 42609, Note_off_c, 12, 83, 127
1, 42612, Note_on_c, 12, 71, 127
1, 42917, Note_off_c, 3, 51, 127
1, 42929, Note_off_c, 12, 71, 127
1, 42932, Note_on_c, 2, 62, 127
1, 43252, Note_on_c, 11, 82, 127
1, 43570, Note_off_c, 11, 82, 127
1, 43570, Note_off_c, 2, 62, 127
1, 43572, Note_on_c, 2, 50, 127
1, 43572, Note_on_c, 10, 81, 127
1, 43890, Note_off_c, 10, 81, 127
1, 43892, Note_on_c, 8, 80, 127
1, 44210, Note_off_c, 8, 80, 127
1, 44210, Note_off_c, 2, 50, 127
1, 44212, Note_on_c, 1, 49, 127
1, 44212, Note_on_c, 8, 80, 127
1, 44370, Note_off_c, 8, 80, 127
1, 44372, Note_on_c, 10, 81, 127
1, 44530, Note_off_c, 10, 81, 127
1, 44532, Note_on_c, 10, 69, 127
1, 44837, Note_off_c, 1, 49, 127
1, 44849, Note_off_c, 10, 69, 127
1, 44852, Note_on_c, 0, 60, 127
1, 45012, Note_on_c, 10, 69, 127
1, 45170, Note_off_c, 10, 69, 127
1, 45172, Note_on_c, 0, 72, 127
1, 45330, Note_off_c, 0, 72, 127
1, 45332, Note_on_c, 4, 76, 127
1, 45490, Note_off_c, 4, 76, 127
1, 45490, Note_off_c, 0, 60, 127
1, 45492, Note_on_c, 0, 48, 127
1, 45492, Note_on_c, 10, 81, 127
1, 45650, Note_off_c, 10, 81, 127
1, 45652, Note_on_c, 7, 79, 127
1, 45810, Note_off_c, 7, 79, 127
1, 45812, Note_on_c, 6, 78, 127
1, 45970, Note_off_c, 6, 78, 127
1, 45972, Note_on_c, 4, 76, 127
1, 46130, Note_off_c, 4, 76, 127
1, 46130, Note_off_c, 0, 48, 127
1, 46132, Note_on_c, 12, 47, 127
1, 46132, Note_on_c, 3, 75, 127
1, 46290, Note_off_c, 3, 75, 127
1, 46292, Note_on_c, 6, 78, 127
1, 46450, Note_off_c, 6, 78, 127
1, 46452, Note_on_c, 7, 79, 127
1, 46770, Note_off_c, 12, 47, 127
1, 46772, Note_on_c, 1, 49, 127
1, 46902, Note_off_c, 7, 79, 127
1, 46932, Note_on_c, 4, 76, 127
1, 47090, Note_off_c, 4, 76, 127
1, 47092, Note_on_c, 11, 70, 127
1, 47410, Note_off_c, 1, 49, 127
1, 47412, Note_on_c, 3, 51, 127
1, 47570, Note_off_c, 11, 70, 127
1, 47572, Note_on_c, 10, 69, 127
1, 47730, Note_off_c, 10, 69, 127
1, 47732, Note_on_c, 6, 78, 127
1, 47890, Note_off_c, 6, 78, 127
1, 47892, Note_on_c, 10, 69, 127
1, 48050, Note_off_c, 10, 69, 127
1, 48050, Note_off_c, 3, 51, 127
1, 48052, Note_on_c, 4, 52, 127
1, 48052, Note_on_c, 8, 68, 127
1, 48210, Note_off_c, 8, 68, 127
1, 48212, Note_on_c, 12, 71, 127
1, 48370, Note_off_c, 12, 71, 127
1, 48372, Note_on_c, 0, 72, 127
1, 48690, Note_off_c, 4, 52, 127
1, 48692, Note_on_c, 6, 54, 127
1, 48814, Note_off_c, 0, 72, 127
1, 48852, Note_on_c, 10, 69, 127
1, 49010, Note_off_c, 10, 69, 127
1, 49012, Note_on_c, 3, 63, 127
1, 49330, Note_off_c, 6, 54, 127
1, 49332, Note_on_c, 8, 56, 127
1, 49490, Note_off_c, 3, 63, 127
1, 49492, Note_on_c, 4, 64, 127
1, 49650, Note_off_c, 4, 64, 127
1, 49652, Note_on_c, 12, 71, 127
1, 49810, Note_off_c, 12, 71, 127
1, 49812, Note_on_c, 2, 74, 127
1, 49964, Note_off_c, 2, 74, 127
1, 49971, Note_off_c, 8, 56, 127
1, 49973, Note_on_c, 10, 45, 127
1, 49973, Note_on_c, 1, 73, 127
1, 50133, Note_on_c, 4, 76, 127
1, 50145, Note_off_c, 1, 73, 127
1, 50292, Note_off_c, 4, 76, 127
1, 50294, Note_on_c, 5, 77, 127
1, 50612, Note_off_c, 10, 45, 127
1, 50614, Note_on_c, 12, 47, 127
1, 50744, Note_off_c, 5, 77, 127
1, 50774, Note_on_c, 2, 74, 127
1, 50932, Note_off_c, 2, 74, 127
1, 50934, Note_on_c, 8, 68, 127
1, 51252, Note_off_c, 12, 47, 127
1, 51254, Note_on_c, 1, 49, 127
1, 51401, Note_off_c, 8, 68, 127
1, 51414, Note_on_c, 7, 67, 127
1, 51572, Note_off_c, 7, 67, 127
1, 51574, Note_on_c, 4, 76, 127
1, 51732, Note_off_c, 4, 76, 127
1, 51734, Note_on_c, 7, 67, 127
1, 51892, Note_off_c, 7, 67, 127
1, 51892, Note_off_c, 1, 49, 127
1, 51894, Note_on_c, 2, 50, 127
1, 51894, Note_on_c, 6, 66, 127
1, 52052, Note_off_c, 6, 66, 127
1, 52054, Note_on_c, 10, 69, 127
1, 52212, Note_off_c, 10, 69, 127
1, 52214, Note_on_c, 11, 70, 127
1, 52532, Note_off_c, 2, 50, 127
1, 52534, Note_on_c, 4, 52, 127
1, 52672, Note_off_c, 11, 70, 127
1, 52694, Note_on_c, 7, 67, 127
1, 52852, Note_off_c, 7, 67, 127
1, 52854, Note_on_c, 1, 61, 127
1, 53172, Note_off_c, 4, 52, 127
1, 53174, Note_on_c, 6, 54, 127
1, 53322, Note_off_c, 1, 61, 127
1, 53334, Note_on_c, 2, 62, 127
1, 53492, Note_off_c, 2, 62, 127
1, 53494, Note_on_c, 10, 69, 127
1, 53652, Note_off_c, 10, 69, 127
1, 53654, Note_on_c, 0, 72, 127
1, 53812, Note_off_c, 0, 72, 127
1, 53812, Note_off_c, 6, 54, 127
1, 53814, Note_on_c, 7, 43, 127
1, 53814, Note_on_c, 12, 71, 127
1, 53972, Note_off_c, 12, 71, 127
1, 53972, Note_off_c, 7, 43, 127
1, 53974, Note_on_c, 10, 45, 127
1, 53974, Note_on_c, 10, 69, 127
1, 54132, Note_off_c, 10, 69, 127
1, 54132, Note_off_c, 10, 45, 127
1, 54134, Note_on_c, 12, 47, 127
1, 54134, Note_on_c, 7, 67, 127
1, 54292, Note_off_c, 7, 67, 127
1, 54292, Note_off_c, 12, 47, 127
1, 54294, Note_on_c, 0, 48, 127
1, 54294, Note_on_c, 10, 69, 127
1, 54452, Note_off_c, 10, 69, 127
1, 54452, Note_off_c, 0, 48, 127
1, 54454, Note_on_c, 2, 50, 127
1, 54454, Note_on_c, 12, 71, 127
1, 54612, Note_off_c, 12, 71, 127
1, 54612, Note_off_c, 2, 50, 127
1, 54614, Note_on_c, 4, 52, 127
1, 54614, Note_on_c, 0, 72, 127
1, 54772, Note_off_c, 0, 72, 127
1, 54772, Note_off_c, 4, 52, 127
1, 54774, Note_on_c, 6, 54, 127
1, 54774, Note_on_c, 2, 74, 127
1, 54932, Note_off_c, 2, 74, 127
1, 54932, Note_off_c, 6, 54, 127
1, 54934, Note_on_c, 7, 55, 127
1, 54934, Note_on_c, 4, 76, 127
1, 55092, Note_off_c, 4, 76, 127
1, 55092, Note_off_c, 7, 55, 127
1, 55094, Note_on_c, 6, 54, 127
1, 55094, Note_on_c, 6, 78, 127
1, 55252, Note_off_c, 6, 78, 127
1, 55252, Note_off_c, 6, 54, 127
1, 55254, Note_on_c, 4, 52, 127
1, 55254, Note_on_c, 7, 79, 127
1, 55412, Note_off_c, 7, 79, 127
1, 55412, Note_off_c, 4, 52, 127
1, 55414, Note_on_c, 2, 50, 127
1, 55414, Note_on_c, 6, 78, 127
1, 55572, Note_off_c, 6, 78, 127
1, 55572, Note_off_c, 2, 50, 127
1, 55574, Note_on_c, 0, 48, 127
1, 55574, Note_on_c, 4, 76, 127
1, 55732, Note_off_c, 4, 76, 127
1, 55732, Note_off_c, 0, 48, 127
1, 55734, Note_on_c, 12, 47, 127
1, 55734, Note_on_c, 2, 74, 127
1, 55892, Note_off_c, 2, 74, 127
1, 55892, Note_off_c, 12, 47, 127
1, 55894, Note_on_c, 10, 45, 127
1, 55894, Note_on_c, 0, 72, 127
1, 56052, Note_off_c, 0, 72, 127
1, 56052, Note_off_c, 10, 45, 127
1, 56054, Note_on_c, 7, 43, 127
1, 56054, Note_on_c, 12, 71, 127
1, 56212, Note_off_c, 12, 71, 127
1, 56214, Note_on_c, 10, 69, 127
1, 56371, Note_off_c, 7, 43, 127
1, 56373, Note_off_c, 10, 69, 127
1, 56375, Note_on_c, 7, 67, 127
1, 56695, Note_on_c, 3, 51, 127
1, 57000, Note_off_c, 7, 67, 127
1, 57013, Note_off_c, 3, 51, 127
1, 57015, Note_on_c, 2, 50, 127
1, 57015, Note_on_c, 7, 79, 127
1, 57333, Note_off_c, 2, 50, 127
1, 57335, Note_on_c, 1, 49, 127
1, 57640, Note_off_c, 7, 79, 127
1, 57653, Note_off_c, 1, 49, 127
1, 57655, Note_on_c, 1, 49, 127
1, 57655, Note_on_c, 6, 78, 127
1, 57813, Note_off_c, 1, 49, 127
1, 57815, Note_on_c, 2, 50, 127
1, 57973, Note_off_c, 2, 50, 127
1, 57975, Note_on_c, 2, 38, 127
1, 58255, Note_off_c, 6, 78, 127
1, 58292, Note_off_c, 2, 38, 127
1, 58295, Note_on_c, 5, 65, 127
1, 58615, Note_on_c, 1, 49, 127
1, 58920, Note_off_c, 5, 65, 127
1, 58933, Note_off_c, 1, 49, 127
1, 58935, Note_on_c, 0, 48, 127
1, 58935, Note_on_c, 5, 77, 127
1, 59253, Note_off_c, 0, 48, 127
1, 59255, Note_on_c, 12, 47, 127
1, 59560, Note_off_c, 5, 77, 127
1, 59573, Note_off_c, 12, 47, 127
1, 59575, Note_on_c, 12, 47, 127
1, 59575, Note_on_c, 4, 76, 127
1, 59733, Note_off_c, 12, 47, 127
1, 59735, Note_on_c, 0, 48, 127
1, 59893, Note_off_c, 0, 48, 127
1, 59895, Note_on_c, 0, 36, 127
1, 60175, Note_off_c, 4, 76, 127
1, 60212, Note_off_c, 0, 36, 127
1, 60215, Note_on_c, 3, 63, 127
1, 60375, Note_on_c, 0, 48, 127
1, 60533, Note_off_c, 0, 48, 127
1, 60535, Note_on_c, 3, 51, 127
1, 60693, Note_off_c, 3, 51, 127
1, 60695, Note_on_c, 7, 55, 127
1, 60840, Note_off_c, 3, 63, 127
1, 60853, Note_off_c, 7, 55, 127
1, 60855, Note_on_c, 0, 60, 127
1, 60855, Note_on_c, 3, 75, 127
1, 61013, Note_off_c, 0, 60, 127
1, 61015, Note_on_c, 11, 58, 127
1, 61173, Note_off_c, 11, 58, 127
1, 61175, Note_on_c, 10, 57, 127
1, 61333, Note_off_c, 10, 57, 127
1, 61335, Note_on_c, 7, 55, 127
1, 61480, Note_off_c, 3, 75, 127
1, 61493, Note_off_c, 7, 55, 127
1, 61495, Note_on_c, 6, 54, 127
1, 61495, Note_on_c, 2, 74, 127
1, 61653, Note_off_c, 6, 54, 127
1, 61655, Note_on_c, 10, 57, 127
1, 61813, Note_off_c, 10, 57, 127
1, 61815, Note_on_c, 11, 58, 127
1, 62133, Note_off_c, 2, 74, 127
1, 62135, Note_on_c, 4, 76, 127
1, 62277, Note_off_c, 11, 58, 127
1, 62295, Note_on_c, 7, 55, 127
1, 62453, Note_off_c, 7, 55, 127
1, 62455, Note_on_c, 1, 49, 127
1, 62773, Note_off_c, 4, 76, 127
1, 62775, Note_on_c, 6, 78, 127
1, 62922, Note_off_c, 1, 49, 127
1, 62935, Note_on_c, 0, 48, 127
1, 63093, Note_off_c, 0, 48, 127
1, 63095, Note_on_c, 10, 57, 127
1, 63253, Note_off_c, 10, 57, 127
1, 63255, Note_on_c, 0, 48, 127
1, 63413, Note_off_c, 0, 48, 127
1, 63413, Note_off_c, 6, 78, 127
1, 63415, Note_on_c, 0, 48, 127
1, 63415, Note_on_c, 7, 67, 127
1, 63573, Note_off_c, 0, 48, 127
1, 63575, Note_on_c, 10, 45, 127
1, 63733, Note_off_c, 10, 45, 127
1, 63735, Note_on_c, 12, 47, 127
1, 63893, Note_off_c, 12, 47, 127
1, 63895, Note_on_c, 4, 52, 127
1, 64053, Note_off_c, 4, 52, 127
1, 64053, Note_off_c, 7, 67, 127
1, 64055, Note_on_c, 4, 52, 127
1, 64055, Note_on_c, 6, 66, 127
1, 64213, Note_off_c, 4, 52, 127
1, 64215, Note_on_c, 1, 49, 127
1, 64373, Note_off_c, 1, 49, 127
1, 64375, Note_on_c, 2, 50, 127
1, 64533, Note_off_c, 2, 50, 127
1, 64535, Note_on_c, 10, 57, 127
1, 64693, Note_off_c, 10, 57, 127
1, 64693, Note_off_c, 6, 66, 127
1, 64695, Note_on_c, 7, 55, 127
1, 64695, Note_on_c, 4, 64, 127
1, 64853, Note_off_c, 7, 55, 127
1, 64855, Note_on_c, 6, 54, 127
1, 65013, Note_off_c, 6, 54, 127
1, 65015, Note_on_c, 7, 55, 127
1, 65173, Note_off_c, 7, 55, 127
1, 65175, Note_on_c, 1, 49, 127
1, 65333, Note_off_c, 1, 49, 127
1, 65333, Note_off_c, 4, 64, 127
1, 65335, Note_on_c, 6, 54, 127
1, 65335, Note_on_c, 2, 62, 127
1, 65493, Note_off_c, 2, 62, 127
1, 65493, Note_off_c, 6, 54, 127
1, 65495, Note_on_c, 4, 52, 127
1, 65495, Note_on_c, 4, 64, 127
1, 65653, Note_off_c, 4, 64, 127
1, 65653, Note_off_c, 4, 52, 127
1, 65655, Note_on_c, 2, 50, 127
1, 65655, Note_on_c, 6, 66, 127
1, 65813, Note_off_c, 6, 66, 127
1, 65813, Note_off_c, 2, 50, 127
1, 65815, Note_on_c, 4, 52, 127
1, 65815, Note_on_c, 7, 67, 127
1, 65973, Note_off_c, 7, 67, 127
1, 65973, Note_off_c, 4, 52, 127
1, 65975, Note_on_c, 6, 54, 127
1, 65975, Note_on_c, 10, 69, 127
1, 66133, Note_off_c, 10, 69, 127
1, 66133, Note_off_c, 6, 54, 127
1, 66135, Note_on_c, 7, 55, 127
1, 66135, Note_on_c, 12, 71, 127
1, 66293, Note_off_c, 12, 71, 127
1, 66293, Note_off_c, 7, 55, 127
1, 66295, Note_on_c, 10, 57, 127
1, 66295, Note_on_c, 1, 73, 127
1, 66453, Note_off_c, 1, 73, 127
1, 66453, Note_off_c, 10, 57, 127
1, 66455, Note_on_c, 12, 59, 127
1, 66455, Note_on_c, 2, 74, 127
1, 66613, Note_off_c, 2, 74, 127
1, 66613, Note_off_c, 12, 59, 127
1, 66615, Note_on_c, 1, 61, 127
1, 66615, Note_on_c, 1, 73, 127
1, 66773, Note_off_c, 1, 73, 127
1, 66773, Note_off_c, 1, 61, 127
1, 66775, Note_on_c, 2, 62, 127
1, 66775, Note_on_c, 12, 71, 127
1, 66933, Note_off_c, 12, 71, 127
1, 66933, Note_off_c, 2, 62, 127
1, 66935, Note_on_c, 1, 61, 127
1, 66935, Note_on_c, 10, 69, 127
1, 67093, Note_off_c, 10, 69, 127
1, 67093, Note_off_c, 1, 61, 127
1, 67095, Note_on_c, 12, 59, 127
1, 67095, Note_on_c, 7, 67, 127
1, 67253, Note_off_c, 7, 67, 127
1, 67253, Note_off_c, 12, 59, 127
1, 67255, Note_on_c, 10, 57, 127
1, 67255, Note_on_c, 6, 66, 127
1, 67413, Note_off_c, 6, 66, 127
1, 67413, Note_off_c, 10, 57, 127
1, 67415, Note_on_c, 7, 55, 127
1, 67415, Note_on_c, 4, 64, 127
1, 67573, Note_off_c, 4, 64, 127
1, 67573, Note_off_c, 7, 55, 127
1, 67575, Note_on_c, 6, 54, 127
1, 67575, Note_on_c, 2, 62, 127
1, 67733, Note_off_c, 6, 54, 127
1, 67735, Note_on_c, 4, 52, 127
1, 67892, Note_off_c, 2, 62, 127
1, 67894, Note_off_c, 4, 52, 127
1, 67896, Note_on_c, 2, 50, 127
1, 68216, Note_on_c, 11, 70, 127
1, 68529, Note_off_c, 2, 50, 127
1, 68534, Note_off_c, 11, 70, 127
1, 68536, Note_on_c, 2, 62, 127
1, 68536, Note_on_c, 10, 69, 127
1, 68854, Note_off_c, 10, 69, 127
1, 68856, Note_on_c, 8, 68, 127
1, 69169, Note_off_c, 2, 62, 127
1, 69174, Note_off_c, 8, 68, 127
1, 69176, Note_on_c, 1, 61, 127
1, 69176, Note_on_c, 8, 68, 127
1, 69334, Note_off_c, 8, 68, 127
1, 69336, Note_on_c, 10, 69, 127
1, 69494, Note_off_c, 10, 69, 127
1, 69496, Note_on_c, 10, 57, 127
1, 69801, Note_off_c, 1, 61, 127
1, 69813, Note_off_c, 10, 57, 127
1, 69816, Note_on_c, 0, 48, 127
1, 70136, Note_on_c, 8, 68, 127
1, 70449, Note_off_c, 0, 48, 127
1, 70454, Note_off_c, 8, 68, 127
1, 70456, Note_on_c, 0, 60, 127
1, 70456, Note_on_c, 7, 67, 127
1, 70774, Note_off_c, 7, 67, 127
1, 70776, Note_on_c, 6, 66, 127
1, 71089, Note_off_c, 0, 60, 127
1, 71094, Note_off_c, 6, 66, 127
1, 71096, Note_on_c, 12, 59, 127
1, 71096, Note_on_c, 6, 66, 127
1, 71254, Note_off_c, 6, 66, 127
1, 71256, Note_on_c, 7, 67, 127
1, 71414, Note_off_c, 7, 67, 127
1, 71416, Note_on_c, 7, 55, 127
1, 71721, Note_off_c, 12, 59, 127
1, 71733, Note_off_c, 7, 55, 127
1, 71736, Note_on_c, 11, 46, 127
1, 71896, Note_on_c, 7, 67, 127
1, 72054, Note_off_c, 7, 67, 127
1, 72056, Note_on_c, 11, 70, 127
1, 72214, Note_off_c, 11, 70, 127
1, 72216, Note_on_c, 2, 74, 127
1, 72369, Note_off_c, 11, 46, 127
1, 72374, Note_off_c, 2, 74, 127
1, 72376, Note_on_c, 11, 58, 127
1, 72376, Note_on_c, 7, 79, 127
1, 72534, Note_off_c, 7, 79, 127
1, 72536, Note_on_c, 5, 77, 127
1, 72694, Note_off_c, 5, 77, 127
1, 72696, Note_on_c, 4, 76, 127
1, 72854, Note_off_c, 4, 76, 127
1, 72856, Note_on_c, 2, 74, 127
1, 73009, Note_off_c, 11, 58, 127
1, 73012, Note_off_c, 2, 74, 127
1, 73015, Note_on_c, 10, 57, 127
1, 73015, Note_on_c, 1, 73, 127
1, 73175, Note_on_c, 4, 76, 127
1, 73182, Note_off_c, 1, 73, 127
1, 73334, Note_off_c, 4, 76, 127
1, 73336, Note_on_c, 5, 77, 127
1, 73641, Note_off_c, 10, 57, 127
1, 73656, Note_on_c, 12, 59, 127
1, 73803, Note_off_c, 5, 77, 127
1, 73816, Note_on_c, 2, 74, 127
1, 73974, Note_off_c, 2, 74, 127
1, 73976, Note_on_c, 8, 68, 127
1, 74281, Note_off_c, 12, 59, 127
1, 74296, Note_on_c, 1, 61, 127
1, 74454, Note_off_c, 8, 68, 127
1, 74456, Note_on_c, 7, 67, 127
1, 74614, Note_off_c, 7, 67, 127
1, 74616, Note_on_c, 4, 76, 127
1, 74774, Note_off_c, 4, 76, 127
1, 74776, Note_on_c, 7, 67, 127
1, 74921, Note_off_c, 1, 61, 127
1, 74934, Note_off_c, 7, 67, 127
1, 74936, Note_on_c, 2, 62, 127
1, 74936, Note_on_c, 7, 67, 127
1, 75094, Note_off_c, 7, 67, 127
1, 75096, Note_on_c, 4, 64, 127
1, 75254, Note_off_c, 4, 64, 127
1, 75256, Note_on_c, 5, 65, 127
1, 75414, Note_off_c, 5, 65, 127
1, 75416, Note_on_c, 11, 70, 127
1, 75569, Note_off_c, 2, 62, 127
1, 75574, Note_off_c, 11, 70, 127
1, 75576, Note_on_c, 11, 70, 127
1, 75734, Note_off_c, 11, 70, 127
1, 75736, Note_on_c, 8, 68, 127
1, 75894, Note_off_c, 8, 68, 127
1, 75896, Note_on_c, 10, 69, 127
1, 76054, Note_off_c, 10, 69, 127
1, 76056, Note_on_c, 7, 79, 127
1, 76214, Note_off_c, 7, 79, 127
1, 76216, Note_on_c, 2, 50, 127
1, 76216, Note_on_c, 5, 77, 127
1, 76374, Note_off_c, 5, 77, 127
1, 76376, Note_on_c, 4, 76, 127
1, 76534, Note_off_c, 4, 76, 127
1, 76536, Note_on_c, 5, 77, 127
1, 76694, Note_off_c, 5, 77, 127
1, 76696, Note_on_c, 12, 71, 127
1, 76854, Note_off_c, 12, 71, 127
1, 76856, Note_on_c, 4, 76, 127
1, 77014, Note_off_c, 2, 50, 127
1, 77016, Note_on_c, 12, 47, 127
1, 77174, Note_off_c, 12, 47, 127
1, 77176, Note_on_c, 0, 48, 127
1, 77334, Note_off_c, 0, 48, 127
1, 77336, Note_on_c, 5, 53, 127
1, 77494, Note_off_c, 5, 53, 127
1, 77496, Note_on_c, 5, 53, 127
1, 77654, Note_off_c, 5, 53, 127
1, 77656, Note_off_c, 4, 76, 127
1, 77656, Note_on_c, 3, 51, 127
1, 77814, Note_off_c, 3, 51, 127
1, 77816, Note_on_c, 4, 52, 127
1, 77974, Note_off_c, 4, 52, 127
1, 77976, Note_on_c, 2, 62, 127
1, 78134, Note_off_c, 2, 62, 127
1, 78136, Note_on_c, 0, 60, 127
1, 78136, Note_on_c, 4, 64, 127
1, 78294, Note_off_c, 0, 60, 127
1, 78296, Note_on_c, 12, 59, 127
1, 78454, Note_off_c, 12, 59, 127
1, 78456, Note_on_c, 0, 60, 127
1, 78614, Note_off_c, 0, 60, 127
1, 78616, Note_on_c, 6, 54, 127
1, 78774, Note_off_c, 6, 54, 127
1, 78776, Note_on_c, 12, 59, 127
1, 78934, Note_off_c, 4, 64, 127
1, 78936, Note_on_c, 1, 61, 127
1, 79094, Note_off_c, 1, 61, 127
1, 79096, Note_on_c, 2, 62, 127
1, 79254, Note_off_c, 2, 62, 127
1, 79256, Note_on_c, 10, 69, 127
1, 79409, Note_off_c, 12, 59, 127
1, 79414, Note_off_c, 10, 69, 127
1, 79416, Note_on_c, 10, 69, 127
1, 79574, Note_off_c, 10, 69, 127
1, 79576, Note_on_c, 6, 66, 127
1, 79734, Note_off_c, 6, 66, 127
1, 79736, Note_on_c, 8, 68, 127
1, 79894, Note_off_c, 8, 68, 127
1, 79896, Note_on_c, 4, 76, 127
1, 80054, Note_off_c, 4, 76, 127
1, 80056, Note_on_c, 12, 47, 127
1, 80056, Note_on_c, 2, 74, 127
1, 80214, Note_off_c, 2, 74, 127
1, 80216, Note_on_c, 0, 72, 127
1, 80374, Note_off_c, 0, 72, 127
1, 80376, Note_on_c, 2, 74, 127
1, 80534, Note_off_c, 2, 74, 127
1, 80536, Note_on_c, 8, 68, 127
1, 80681, Note_off_c, 12, 47, 127
1, 80694, Note_off_c, 8, 68, 127
1, 80696, Note_on_c, 0, 72, 127
1, 80856, Note_on_c, 8, 44, 127
1, 81014, Note_off_c, 8, 44, 127
1, 81016, Note_on_c, 10, 45, 127
1, 81174, Note_off_c, 10, 45, 127
1, 81176, Note_on_c, 2, 50, 127
1, 81329, Note_off_c, 0, 72, 127
1, 81334, Note_off_c, 2, 50, 127
1, 81336, Note_on_c, 2, 50, 127
1, 81494, Note_off_c, 2, 50, 127
1, 81496, Note_on_c, 12, 47, 127
1, 81654, Note_off_c, 12, 47, 127
1, 81656, Note_on_c, 0, 48, 127
1, 81814, Note_off_c, 0, 48, 127
1, 81816, Note_on_c, 12, 59, 127
1, 81974, Note_off_c, 12, 59, 127
1, 81976, Note_on_c, 10, 57, 127
1, 81976, Note_on_c, 0, 60, 127
1, 82134, Note_off_c, 10, 57, 127
1, 82136, Note_on_c, 7, 55, 127
1, 82294, Note_off_c, 7, 55, 127
1, 82296, Note_on_c, 10, 57, 127
1, 82454, Note_off_c, 10, 57, 127
1, 82456, Note_on_c, 3, 51, 127
1, 82614, Note_off_c, 3, 51, 127
1, 82616, Note_on_c, 7, 55, 127
1, 82774, Note_off_c, 0, 60, 127
1, 82776, Note_on_c, 11, 58, 127
1, 82934, Note_off_c, 11, 58, 127
1, 82936, Note_on_c, 12, 59, 127
1, 83094, Note_off_c, 12, 59, 127
1, 83096, Note_on_c, 6, 66, 127
1, 83249, Note_off_c, 7, 55, 127
1, 83254, Note_off_c, 6, 66, 127
1, 83256, Note_on_c, 6, 66, 127
1, 83414, Note_off_c, 6, 66, 127
1, 83416, Note_on_c, 3, 63, 127
1, 83574, Note_off_c, 3, 63, 127
1, 83576, Note_on_c, 4, 64, 127
1, 83734, Note_off_c, 4, 64, 127
1, 83736, Note_on_c, 0, 72, 127
1, 83894, Note_off_c, 0, 72, 127
1, 83896, Note_on_c, 7, 43, 127
1, 83896, Note_on_c, 12, 71, 127
1, 84054, Note_off_c, 12, 71, 127
1, 84056, Note_on_c, 11, 70, 127
1, 84214, Note_off_c, 11, 70, 127
1, 84216, Note_on_c, 12, 71, 127
1, 84374, Note_off_c, 12, 71, 127
1, 84376, Note_on_c, 4, 64, 127
1, 84521, Note_off_c, 7, 43, 127
1, 84534, Note_off_c, 4, 64, 127
1, 84536, Note_on_c, 11, 70, 127
1, 84696, Note_on_c, 5, 41, 127
1, 84854, Note_off_c, 5, 41, 127
1, 84856, Note_on_c, 6, 42, 127
1, 85014, Note_off_c, 6, 42, 127
1, 85016, Note_on_c, 12, 47, 127
1, 85169, Note_off_c, 11, 70, 127
1, 85174, Note_off_c, 12, 47, 127
1, 85176, Note_on_c, 12, 47, 127
1, 85334, Note_off_c, 12, 47, 127
1, 85336, Note_on_c, 8, 44, 127
1, 85494, Note_off_c, 8, 44, 127
1, 85496, Note_on_c, 11, 46, 127
1, 85654, Note_off_c, 11, 46, 127
1, 85656, Note_on_c, 6, 54, 127
1, 85814, Note_off_c, 6, 54, 127
1, 85816, Note_on_c, 4, 52, 127
1, 85974, Note_off_c, 4, 52, 127
1, 85976, Note_on_c, 2, 50, 127
1, 86134, Note_off_c, 2, 50, 127
1, 86136, Note_on_c, 4, 52, 127
1, 86294, Note_off_c, 4, 52, 127
1, 86296, Note_on_c, 11, 46, 127
1, 86454, Note_off_c, 11, 46, 127
1, 86456, Note_on_c, 2, 50, 127
1, 86456, Note_on_c, 12, 71, 127
1, 86614, Note_off_c, 12, 71, 127
1, 86614, Note_off_c, 2, 50, 127
1, 86616, Note_on_c, 1, 49, 127
1, 86616, Note_on_c, 1, 73, 127
1, 86774, Note_off_c, 1, 73, 127
1, 86774, Note_off_c, 1, 49, 127
1, 86776, Note_on_c, 12, 47, 127
1, 86776, Note_on_c, 2, 74, 127
1, 86934, Note_off_c, 2, 74, 127
1, 86936, Note_on_c, 4, 76, 127
1, 87093, Note_off_c, 12, 47, 127
1, 87095, Note_off_c, 4, 76, 127
1, 87097, Note_on_c, 6, 78, 127
1, 87257, Note_on_c, 8, 80, 127
1, 87261, Note_off_c, 6, 78, 127
1, 87417, Note_on_c, 11, 82, 127
1, 87421, Note_off_c, 8, 80, 127
1, 87577, Note_on_c, 12, 83, 127
1, 87581, Note_off_c, 11, 82, 127
1, 87737, Note_on_c, 11, 82, 127
1, 87741, Note_off_c, 12, 83, 127
1, 87897, Note_on_c, 8, 80, 127
1, 87901, Note_off_c, 11, 82, 127
1, 88057, Note_on_c, 6, 78, 127
1, 88061, Note_off_c, 8, 80, 127
1, 88217, Note_on_c, 4, 76, 127
1, 88221, Note_off_c, 6, 78, 127
1, 88377, Note_on_c, 12, 47, 127
1, 88377, Note_on_c, 2, 74, 127
1, 88381, Note_off_c, 4, 76, 127
1, 88537, Note_on_c, 1, 49, 127
1, 88537, Note_on_c, 1, 73, 127
1, 88541, Note_off_c, 2, 74, 127
1, 88541, Note_off_c, 12, 47, 127
1, 88697, Note_on_c, 2, 50, 127
1, 88697, Note_on_c, 12, 71, 127
1, 88701, Note_off_c, 1, 73, 127
1, 88701, Note_off_c, 1, 49, 127
1, 88857, Note_on_c, 4, 52, 127
1, 88857, Note_on_c, 1, 73, 127
1, 88861, Note_off_c, 12, 71, 127
1, 88861, Note_off_c, 2, 50, 127
1, 89017, Note_on_c, 6, 54, 127
1, 89017, Note_on_c, 2, 74, 127
1, 89021, Note_off_c, 1, 73, 127
1, 89021, Note_off_c, 4, 52, 127
1, 89177, Note_on_c, 8, 56, 127
1, 89177, Note_on_c, 4, 76, 127
1, 89181, Note_off_c, 2, 74, 127
1, 89181, Note_off_c, 6, 54, 127
1, 89337, Note_on_c, 11, 58, 127
1, 89337, Note_on_c, 6, 78, 127
1, 89341, Note_off_c, 4, 76, 127
1, 89341, Note_off_c, 8, 56, 127
1, 89497, Note_on_c, 12, 59, 127
1, 89497, Note_on_c, 7, 79, 127
1, 89501, Note_off_c, 6, 78, 127
1, 89501, Note_off_c, 11, 58, 127
1, 89657, Note_on_c, 11, 58, 127
1, 89657, Note_on_c, 6, 78, 127
1, 89661, Note_off_c, 7, 79, 127
1, 89661, Note_off_c, 12, 59, 127
1, 89817, Note_on_c, 8, 56, 127
1, 89817, Note_on_c, 4, 76, 127
1, 89821, Note_off_c, 6, 78, 127
1, 89821, Note_off_c, 11, 58, 127
1, 89977, Note_on_c, 6, 54, 127
1, 89977, Note_on_c, 2, 74, 127
1, 89981, Note_off_c, 4, 76, 127
1, 89981, Note_off_c, 8, 56, 127
1, 90137, Note_on_c, 4, 52, 127
1, 90137, Note_on_c, 1, 73, 127
1, 90141, Note_off_c, 2, 74, 127
1, 90141, Note_off_c, 6, 54, 127
1, 90297, Note_on_c, 2, 50, 127
1, 90297, Note_on_c, 12, 71, 127
1, 90301, Note_off_c, 1, 73, 127
1, 90301, Note_off_c, 4, 52, 127
1, 90457, Note_on_c, 1, 49, 127
1, 90457, Note_on_c, 1, 73, 127
1, 90461, Note_off_c, 12, 71, 127
1, 90461, Note_off_c, 2, 50, 127
1, 90608, Note_off_c, 1, 73, 127
1, 90608, Note_off_c, 1, 49, 127
1, 90617, Note_on_c, 12, 47, 127
1, 90617, Note_on_c, 2, 74, 127
1, 90768, Note_off_c, 2, 74, 127
1, 90768, Note_off_c, 12, 47, 127
1, 90777, Note_on_c, 1, 49, 127
1, 90777, Note_on_c, 4, 76, 127
1, 90928, Note_off_c, 4, 76, 127
1, 90928, Note_off_c, 1, 49, 127
1, 90937, Note_on_c, 2, 50, 127
1, 90937, Note_on_c, 6, 78, 127
1, 91088, Note_off_c, 6, 78, 127
1, 91088, Note_off_c, 2, 50, 127
1, 91097, Note_on_c, 4, 52, 127
1, 91097, Note_on_c, 8, 80, 127
1, 91248, Note_off_c, 8, 80, 127
1, 91248, Note_off_c, 4, 52, 127
1, 91257, Note_on_c, 6, 54, 127
1, 91257, Note_on_c, 11, 82, 127
1, 91408, Note_off_c, 11, 82, 127
1, 91408, Note_off_c, 6, 54, 127
1, 91417, Note_on_c, 7, 55, 127
1, 91417, Note_on_c, 12, 83, 127
1, 91568, Note_off_c, 12, 83, 127
1, 91568, Note_off_c, 7, 55, 127
1, 91577, Note_on_c, 6, 54, 127
1, 91577, Note_on_c, 11, 82, 127
1, 91728, Note_off_c, 11, 82, 127
1, 91728, Note_off_c, 6, 54, 127
1, 91737, Note_on_c, 4, 52, 127
1, 91737, Note_on_c, 8, 80, 127
1, 91888, Note_off_c, 8, 80, 127
1, 91888, Note_off_c, 4, 52, 127
1, 91897, Note_on_c, 2, 50, 127
1, 91897, Note_on_c, 6, 78, 127
1, 92048, Note_off_c, 6, 78, 127
1, 92048, Note_off_c, 2, 50, 127
1, 92057, Note_on_c, 1, 49, 127
1, 92057, Note_on_c, 4, 76, 127
1, 92208, Note_off_c, 4, 76, 127
1, 92208, Note_off_c, 1, 49, 127
1, 92217, Note_on_c, 12, 47, 127
1, 92217, Note_on_c, 2, 74, 127
1, 92368, Note_off_c, 2, 74, 127
1, 92368, Note_off_c, 12, 47, 127
1, 92377, Note_on_c, 1, 49, 127
1, 92377, Note_on_c, 1, 73, 127
1, 92535, Note_off_c, 1, 73, 127
1, 92535, Note_off_c, 1, 49, 127
1, 92537, Note_on_c, 2, 50, 127
1, 92537, Note_on_c, 12, 71, 127
1, 92695, Note_off_c, 12, 71, 127
1, 92695, Note_off_c, 2, 50, 127
1, 92697, Note_on_c, 4, 52, 127
1, 92697, Note_on_c, 1, 73, 127
1, 92855, Note_off_c, 1, 73, 127
1, 92855, Note_off_c, 4, 52, 127
1, 92857, Note_on_c, 6, 54, 127
1, 92857, Note_on_c, 2, 74, 127
1, 93015, Note_off_c, 2, 74, 127
1, 93015, Note_off_c, 6, 54, 127
1, 93017, Note_on_c, 8, 56, 127
1, 93017, Note_on_c, 4, 76, 127
1, 93175, Note_off_c, 4, 76, 127
1, 93175, Note_off_c, 8, 56, 127
1, 93177, Note_on_c, 11, 58, 127
1, 93177, Note_on_c, 6, 78, 127
1, 93335, Note_off_c, 6, 78, 127
1, 93335, Note_off_c, 11, 58, 127
1, 93337, Note_on_c, 12, 59, 127
1, 93337, Note_on_c, 7, 79, 127
1, 93495, Note_off_c, 7, 79, 127
1, 93495, Note_off_c, 12, 59, 127
1, 93497, Note_on_c, 11, 58, 127
1, 93497, Note_on_c, 6, 78, 127
1, 93655, Note_off_c, 6, 78, 127
1, 93655, Note_off_c, 11, 58, 127
1, 93657, Note_on_c, 8, 56, 127
1, 93657, Note_on_c, 4, 76, 127
1, 93815, Note_off_c, 4, 76, 127
1, 93815, Note_off_c, 8, 56, 127
1, 93817, Note_on_c, 6, 54, 127
1, 93817, Note_on_c, 2, 74, 127
1, 93975, Note_off_c, 2, 74, 127
1, 93975, Note_off_c, 6, 54, 127
1, 93977, Note_on_c, 4, 52, 127
1, 93977, Note_on_c, 1, 73, 127
1, 94135, Note_off_c, 1, 73, 127
1, 94135, Note_off_c, 4, 52, 127
1, 94137, Note_on_c, 2, 50, 127
1, 94137, Note_on_c, 12, 71, 127
1, 94295, Note_off_c, 2, 50, 127
1, 94297, Note_on_c, 1, 49, 127
1, 94455, Note_off_c, 1, 49, 127
1, 94457, Note_on_c, 12, 47, 127
1, 94774, Note_off_c, 12, 47, 127
1, 94776, Note_off_c, 12, 71, 127
1, 94778, Note_on_c, 12, 83, 127
1, 95098, Note_on_c, 7, 55, 127
1, 95416, Note_off_c, 7, 55, 127
1, 95416, Note_off_c, 12, 83, 127
1, 95418, Note_on_c, 6, 54, 127
1, 95418, Note_on_c, 12, 71, 127
1, 95736, Note_off_c, 6, 54, 127
1, 95738, Note_on_c, 5, 53, 127
1, 96056, Note_off_c, 5, 53, 127
1, 96056, Note_off_c, 12, 71, 127
1, 96058, Note_on_c, 5, 53, 127
1, 96058, Note_on_c, 11, 70, 127
1, 96216, Note_off_c, 5, 53, 127
1, 96218, Note_on_c, 6, 54, 127
1, 96376, Note_off_c, 6, 54, 127
1, 96378, Note_on_c, 6, 42, 127
1, 96641, Note_off_c, 11, 70, 127
1, 96694, Note_off_c, 6, 42, 127
1, 96697, Note_on_c, 10, 81, 127
1, 97017, Note_on_c, 5, 53, 127
1, 97335, Note_off_c, 5, 53, 127
1, 97335, Note_off_c, 10, 81, 127
1, 97337, Note_on_c, 4, 52, 127
1, 97337, Note_on_c, 10, 69, 127
1, 97655, Note_off_c, 4, 52, 127
1, 97657, Note_on_c, 3, 51, 127
1, 97975, Note_off_c, 3, 51, 127
1, 97975, Note_off_c, 10, 69, 127
1, 97977, Note_on_c, 3, 51, 127
1, 97977, Note_on_c, 8, 68, 127
1, 98135, Note_off_c, 3, 51, 127
1, 98137, Note_on_c, 4, 52, 127
1, 98295, Note_off_c, 4, 52, 127
1, 98297, Note_on_c, 4, 40, 127
1, 98560, Note_off_c, 8, 68, 127
1, 98613, Note_off_c, 4, 40, 127
1, 98616, Note_on_c, 7, 79, 127
1, 98776, Note_on_c, 4, 52, 127
1, 98934, Note_off_c, 4, 52, 127
1, 98936, Note_on_c, 7, 55, 127
1, 99094, Note_off_c, 7, 55, 127
1, 99096, Note_on_c, 12, 59, 127
1, 99254, Note_off_c, 12, 59, 127
1, 99254, Note_off_c, 7, 79, 127
1, 99256, Note_on_c, 4, 64, 127
1, 99256, Note_on_c, 7, 67, 127
1, 99414, Note_off_c, 4, 64, 127
1, 99416, Note_on_c, 2, 62, 127
1, 99574, Note_off_c, 2, 62, 127
1, 99576, Note_on_c, 1, 61, 127
1, 99734, Note_off_c, 1, 61, 127
1, 99736, Note_on_c, 12, 59, 127
1, 99894, Note_off_c, 12, 59, 127
1, 99894, Note_off_c, 7, 67, 127
1, 99896, Note_on_c, 11, 58, 127
1, 99896, Note_on_c, 6, 66, 127
1, 100054, Note_off_c, 11, 58, 127
1, 100056, Note_on_c, 1, 61, 127
1, 100214, Note_off_c, 1, 61, 127
1, 100216, Note_on_c, 2, 62, 127
1, 100534, Note_off_c, 6, 66, 127
1, 100536, Note_on_c, 8, 68, 127
1, 100683, Note_off_c, 2, 62, 127
1, 100696, Note_on_c, 12, 59, 127
1, 100854, Note_off_c, 12, 59, 127
1, 100856, Note_on_c, 5, 53, 127
1, 101174, Note_off_c, 8, 68, 127
1, 101176, Note_on_c, 11, 70, 127
1, 101323, Note_off_c, 5, 53, 127
1, 101336, Note_on_c, 4, 52, 127
1, 101494, Note_off_c, 4, 52, 127
1, 101496, Note_on_c, 1, 61, 127
1, 101654, Note_off_c, 1, 61, 127
1, 101656, Note_on_c, 4, 52, 127
1, 101814, Note_off_c, 4, 52, 127
1, 101814, Note_off_c, 11, 70, 127
1, 101816, Note_on_c, 3, 51, 127
1, 101816, Note_on_c, 12, 71, 127
1, 101974, Note_off_c, 3, 51, 127
1, 101976, Note_on_c, 6, 54, 127
1, 102134, Note_off_c, 6, 54, 127
1, 102136, Note_on_c, 7, 55, 127
1, 102454, Note_off_c, 12, 71, 127
1, 102456, Note_on_c, 1, 73, 127
1, 102569, Note_off_c, 7, 55, 127
1, 102616, Note_on_c, 4, 52, 127
1, 102774, Note_off_c, 4, 52, 127
1, 102776, Note_on_c, 11, 46, 127
1, 103094, Note_off_c, 1, 73, 127
1, 103096, Note_on_c, 3, 75, 127
1, 103209, Note_off_c, 11, 46, 127
1, 103256, Note_on_c, 12, 47, 127
1, 103414, Note_off_c, 12, 47, 127
1, 103416, Note_on_c, 6, 54, 127
1, 103574, Note_off_c, 6, 54, 127
1, 103576, Note_on_c, 10, 57, 127
1, 103734, Note_off_c, 10, 57, 127
1, 103734, Note_off_c, 3, 75, 127
1, 103736, Note_on_c, 8, 56, 127
1, 103736, Note_on_c, 4, 64, 127
1, 103894, Note_off_c, 8, 56, 127
1, 103896, Note_on_c, 12, 59, 127
1, 104054, Note_off_c, 12, 59, 127
1, 104056, Note_on_c, 0, 60, 127
1, 104374, Note_off_c, 4, 64, 127
1, 104376, Note_on_c, 6, 66, 127
1, 104406, Note_off_c, 0, 60, 127
1, 104536, Note_on_c, 10, 57, 127
1, 104694, Note_off_c, 10, 57, 127
1, 104696, Note_on_c, 3, 51, 127
1, 105014, Note_off_c, 6, 66, 127
1, 105016, Note_on_c, 8, 68, 127
1, 105046, Note_off_c, 3, 51, 127
1, 105176, Note_on_c, 2, 50, 127
1, 105334, Note_off_c, 2, 50, 127
1, 105336, Note_on_c, 12, 59, 127
1, 105494, Note_off_c, 12, 59, 127
1, 105496, Note_on_c, 2, 50, 127
1, 105654, Note_off_c, 2, 50, 127
1, 105654, Note_off_c, 8, 68, 127
1, 105656, Note_on_c, 1, 49, 127
1, 105656, Note_on_c, 10, 69, 127
1, 105814, Note_off_c, 1, 49, 127
1, 105816, Note_on_c, 4, 52, 127
1, 105974, Note_off_c, 4, 52, 127
1, 105976, Note_on_c, 5, 53, 127
1, 106284, Note_off_c, 5, 53, 127
1, 106294, Note_off_c, 10, 69, 127
1, 106296, Note_on_c, 12, 71, 127
1, 106456, Note_on_c, 2, 50, 127
1, 106614, Note_off_c, 2, 50, 127
1, 106616, Note_on_c, 8, 44, 127
1, 106924, Note_off_c, 8, 44, 127
1, 106934, Note_off_c, 12, 71, 127
1, 106936, Note_on_c, 1, 73, 127
1, 107096, Note_on_c, 10, 45, 127
1, 107254, Note_off_c, 10, 45, 127
1, 107256, Note_on_c, 4, 52, 127
1, 107414, Note_off_c, 4, 52, 127
1, 107416, Note_on_c, 7, 55, 127
1, 107574, Note_off_c, 7, 55, 127
1, 107574, Note_off_c, 1, 73, 127
1, 107576, Note_on_c, 5, 53, 127
1, 107576, Note_on_c, 2, 74, 127
1, 107734, Note_off_c, 2, 74, 127
1, 107734, Note_off_c, 5, 53, 127
1, 107736, Note_on_c, 4, 52, 127
1, 107736, Note_on_c, 0, 72, 127
1, 107894, Note_off_c, 0, 72, 127
1, 107894, Note_off_c, 4, 52, 127
1, 107896, Note_on_c, 2, 50, 127
1, 107896, Note_on_c, 12, 71, 127
1, 108054, Note_off_c, 12, 71, 127
1, 108056, Note_on_c, 10, 69, 127
1, 108214, Note_off_c, 10, 69, 127
1, 108216, Note_on_c, 8, 68, 127
1, 108363, Note_off_c, 2, 50, 127
1, 108375, Note_off_c, 8, 68, 127
1, 108377, Note_on_c, 6, 66, 127
1, 108535, Note_off_c, 6, 66, 127
1, 108537, Note_on_c, 4, 64, 127
1, 108695, Note_off_c, 4, 64, 127
1, 108697, Note_on_c, 3, 63, 127
1, 108855, Note_off_c, 3, 63, 127
1, 108857, Note_on_c, 4, 64, 127
1, 109015, Note_off_c, 4, 64, 127
1, 109017, Note_on_c, 2, 50, 127
1, 109017, Note_on_c, 6, 66, 127
1, 109175, Note_off_c, 6, 66, 127
1, 109175, Note_off_c, 2, 50, 127
1, 109177, Note_on_c, 4, 52, 127
1, 109177, Note_on_c, 8, 68, 127
1, 109335, Note_off_c, 8, 68, 127
1, 109335, Note_off_c, 4, 52, 127
1, 109337, Note_on_c, 6, 54, 127
1, 109337, Note_on_c, 10, 69, 127
1, 109495, Note_off_c, 10, 69, 127
1, 109495, Note_off_c, 6, 54, 127
1, 109497, Note_on_c, 4, 52, 127
1, 109497, Note_on_c, 12, 71, 127
1, 109655, Note_off_c, 12, 71, 127
1, 109655, Note_off_c, 4, 52, 127
1, 109657, Note_on_c, 2, 50, 127
1, 109657, Note_on_c, 0, 72, 127
1, 109815, Note_off_c, 0, 72, 127
1, 109815, Note_off_c, 2, 50, 127
1, 109817, Note_on_c, 0, 48, 127
1, 109817, Note_on_c, 2, 74, 127
1, 109975, Note_off_c, 0, 48, 127
1, 109977, Note_on_c, 12, 47, 127
1, 110135, Note_off_c, 12, 47, 127
1, 110137, Note_on_c, 10, 45, 127
1, 110295, Note_off_c, 10, 45, 127
1, 110297, Note_on_c, 8, 44, 127
1, 110450, Note_off_c, 2, 74, 127
1, 110455, Note_off_c, 8, 44, 127
1, 110457, Note_on_c, 6, 42, 127
1, 110615, Note_off_c, 6, 42, 127
1, 110617, Note_on_c, 4, 40, 127
1, 110775, Note_off_c, 4, 40, 127
1, 110777, Note_on_c, 6, 42, 127
1, 110935, Note_off_c, 6, 42, 127
1, 110937, Note_on_c, 8, 44, 127
1, 110937, Note_on_c, 2, 74, 127
1, 111095, Note_off_c, 2, 74, 127
1, 111095, Note_off_c, 8, 44, 127
1, 111097, Note_on_c, 10, 45, 127
1, 111097, Note_on_c, 0, 72, 127
1, 111255, Note_off_c, 0, 72, 127
1, 111255, Note_off_c, 10, 45, 127
1, 111257, Note_on_c, 12, 47, 127
1, 111257, Note_on_c, 12, 71, 127
1, 111415, Note_off_c, 12, 71, 127
1, 111415, Note_off_c, 12, 47, 127
1, 111417, Note_on_c, 0, 48, 127
1, 111417, Note_on_c, 10, 69, 127
1, 111575, Note_off_c, 10, 69, 127
1, 111575, Note_off_c, 0, 48, 127
1, 111577, Note_on_c, 2, 50, 127
1, 111577, Note_on_c, 12, 71, 127
1, 111735, Note_off_c, 12, 71, 127
1, 111735, Note_off_c, 2, 50, 127
1, 111737, Note_on_c, 4, 52, 127
1, 111737, Note_on_c, 0, 72, 127
1, 111895, Note_off_c, 0, 72, 127
1, 111897, Note_on_c, 2, 74, 127
1, 112055, Note_off_c, 2, 74, 127
1, 112057, Note_on_c, 4, 76, 127
1, 112204, Note_off_c, 4, 52, 127
1, 112216, Note_off_c, 4, 76, 127
1, 112218, Note_on_c, 6, 78, 127
1, 112376, Note_off_c, 6, 78, 127
1, 112378, Note_on_c, 7, 79, 127
1, 112536, Note_off_c, 7, 79, 127
1, 112538, Note_on_c, 10, 81, 127
1, 112696, Note_off_c, 10, 81, 127
1, 112698, Note_on_c, 7, 79, 127
1, 112856, Note_off_c, 7, 79, 127
1, 112858, Note_on_c, 10, 57, 127
1, 112858, Note_on_c, 6, 78, 127
1, 113016, Note_off_c, 6, 78, 127
1, 113016, Note_off_c, 10, 57, 127
1, 113018, Note_on_c, 12, 59, 127
1, 113018, Note_on_c, 4, 76, 127
1, 113176, Note_off_c, 4, 76, 127
1, 113176, Note_off_c, 12, 59, 127
1, 113178, Note_on_c, 1, 61, 127
1, 113178, Note_on_c, 3, 75, 127
1, 113336, Note_off_c, 3, 75, 127
1, 113336, Note_off_c, 1, 61, 127
1, 113338, Note_on_c, 3, 51, 127
1, 113338, Note_on_c, 0, 84, 127
1, 113496, Note_off_c, 0, 84, 127
1, 113496, Note_off_c, 3, 51, 127
1, 113498, Note_on_c, 6, 54, 127
1, 113498, Note_on_c, 10, 81, 127
1, 113656, Note_off_c, 10, 81, 127
1, 113656, Note_off_c, 6, 54, 127
1, 113658, Note_on_c, 7, 55, 127
1, 113658, Note_on_c, 12, 83, 127
1, 113816, Note_off_c, 7, 55, 127
1, 113818, Note_on_c, 10, 57, 127
1, 113975, Note_off_c, 12, 83, 127
1, 113977, Note_off_c, 10, 57, 127
1, 113979, Note_on_c, 12, 59, 127
1, 114137, Note_off_c, 12, 59, 127
1, 114139, Note_on_c, 1, 61, 127
1, 114297, Note_off_c, 1, 61, 127
1, 114299, Note_on_c, 3, 63, 127
1, 114457, Note_off_c, 3, 63, 127
1, 114459, Note_on_c, 4, 64, 127
1, 114617, Note_off_c, 4, 64, 127
1, 114619, Note_on_c, 3, 63, 127
1, 114777, Note_off_c, 3, 63, 127
1, 114779, Note_on_c, 1, 61, 127
1, 114779, Note_on_c, 10, 69, 127
1, 114937, Note_off_c, 10, 69, 127
1, 114937, Note_off_c, 1, 61, 127
1, 114939, Note_on_c, 12, 59, 127
1, 114939, Note_on_c, 7, 67, 127
1, 115097, Note_off_c, 7, 67, 127
1, 115097, Note_off_c, 12, 59, 127
1, 115099, Note_on_c, 10, 57, 127
1, 115099, Note_on_c, 6, 66, 127
1, 115257, Note_off_c, 6, 66, 127
1, 115257, Note_off_c, 10, 57, 127
1, 115259, Note_on_c, 7, 55, 127
1, 115259, Note_on_c, 4, 64, 127
1, 115417, Note_off_c, 4, 64, 127
1, 115417, Note_off_c, 7, 55, 127
1, 115419, Note_on_c, 6, 54, 127
1, 115419, Note_on_c, 6, 66, 127
1, 115577, Note_off_c, 6, 66, 127
1, 115577, Note_off_c, 6, 54, 127
1, 115579, Note_on_c, 4, 52, 127
1, 115579, Note_on_c, 7, 67, 127
1, 115737, Note_off_c, 7, 67, 127
1, 115737, Note_off_c, 4, 52, 127
1, 115739, Note_on_c, 6, 54, 127
1, 115739, Note_on_c, 10, 69, 127
1, 115897, Note_off_c, 10, 69, 127
1, 115897, Note_off_c, 6, 54, 127
1, 115899, Note_on_c, 7, 55, 127
1, 115899, Note_on_c, 12, 71, 127
1, 116057, Note_off_c, 12, 71, 127
1, 116057, Note_off_c, 7, 55, 127
1, 116059, Note_on_c, 10, 57, 127
1, 116059, Note_on_c, 1, 73, 127
1, 116217, Note_off_c, 1, 73, 127
1, 116217, Note_off_c, 10, 57, 127
1, 116219, Note_on_c, 12, 59, 127
1, 116219, Note_on_c, 3, 75, 127
1, 116377, Note_off_c, 3, 75, 127
1, 116377, Note_off_c, 12, 59, 127
1, 116379, Note_on_c, 1, 61, 127
1, 116379, Note_on_c, 4, 76, 127
1, 116537, Note_off_c, 4, 76, 127
1, 116537, Note_off_c, 1, 61, 127
1, 116539, Note_on_c, 3, 63, 127
1, 116539, Note_on_c, 3, 75, 127
1, 116697, Note_off_c, 3, 75, 127
1, 116697, Note_off_c, 3, 63, 127
1, 116699, Note_on_c, 4, 64, 127
1, 116699, Note_on_c, 1, 73, 127
1, 116857, Note_off_c, 1, 73, 127
1, 116857, Note_off_c, 4, 64, 127
1, 116859, Note_on_c, 3, 63, 127
1, 116859, Note_on_c, 12, 71, 127
1, 117017, Note_off_c, 12, 71, 127
1, 117017, Note_off_c, 3, 63, 127
1, 117019, Note_on_c, 1, 61, 127
1, 117019, Note_on_c, 10, 69, 127
1, 117177, Note_off_c, 10, 69, 127
1, 117177, Note_off_c, 1, 61, 127
1, 117179, Note_on_c, 12, 59, 127
1, 117179, Note_on_c, 7, 67, 127
1, 117337, Note_off_c, 7, 67, 127
1, 117337, Note_off_c, 12, 59, 127
1, 117339, Note_on_c, 10, 57, 127
1, 117339, Note_on_c, 6, 66, 127
1, 117497, Note_off_c, 6, 66, 127
1, 117497, Note_off_c, 10, 57, 127
1, 117499, Note_on_c, 7, 55, 127
1, 117499, Note_on_c, 4, 64, 127
1, 117657, Note_off_c, 7, 55, 127
1, 117659, Note_on_c, 6, 54, 127
1, 117816, Note_off_c, 4, 64, 127
1, 117818, Note_off_c, 6, 54, 127
1, 117820, Note_on_c, 4, 52, 127
1, 118140, Note_on_c, 0, 72, 127
1, 118458, Note_off_c, 0, 72, 127
1, 118458, Note_off_c, 4, 52, 127
1, 118460, Note_on_c, 4, 64, 127
1, 118460, Note_on_c, 12, 71, 127
1, 118778, Note_off_c, 12, 71, 127
1, 118780, Note_on_c, 11, 70, 127
1, 119098, Note_off_c, 11, 70, 127
1, 119098, Note_off_c, 4, 64, 127
1, 119100, Note_on_c, 3, 63, 127
1, 119100, Note_on_c, 11, 70, 127
1, 119258, Note_off_c, 11, 70, 127
1, 119260, Note_on_c, 12, 71, 127
1, 119418, Note_off_c, 12, 71, 127
1, 119420, Note_on_c, 12, 59, 127
1, 119683, Note_off_c, 3, 63, 127
1, 119736, Note_off_c, 12, 59, 127
1, 119739, Note_on_c, 2, 50, 127
1, 120059, Note_on_c, 11, 70, 127
1, 120377, Note_off_c, 11, 70, 127
1, 120377, Note_off_c, 2, 50, 127
1, 120379, Note_on_c, 2, 62, 127
1, 120379, Note_on_c, 10, 69, 127
1, 120697, Note_off_c, 10, 69, 127
1, 120699, Note_on_c, 8, 68, 127
1, 121017, Note_off_c, 8, 68, 127
1, 121017, Note_off_c, 2, 62, 127
1, 121019, Note_on_c, 1, 61, 127
1, 121019, Note_on_c, 8, 68, 127
1, 121177, Note_off_c, 8, 68, 127
1, 121179, Note_on_c, 10, 69, 127
1, 121337, Note_off_c, 10, 69, 127
1, 121339, Note_on_c, 10, 57, 127
1, 121602, Note_off_c, 1, 61, 127
1, 121655, Note_off_c, 10, 57, 127
1, 121658, Note_on_c, 0, 48, 127
1, 121818, Note_on_c, 10, 69, 127
1, 121976, Note_off_c, 10, 69, 127
1, 121978, Note_on_c, 0, 72, 127
1, 122136, Note_off_c, 0, 72, 127
1, 122138, Note_on_c, 4, 76, 127
1, 122296, Note_off_c, 4, 76, 127
1, 122296, Note_off_c, 0, 48, 127
1, 122298, Note_on_c, 0, 60, 127
1, 122298, Note_on_c, 10, 81, 127
1, 122456, Note_off_c, 10, 81, 127
1, 122458, Note_on_c, 7, 79, 127
1, 122616, Note_off_c, 7, 79, 127
1, 122618, Note_on_c, 6, 78, 127
1, 122776, Note_off_c, 6, 78, 127
1, 122778, Note_on_c, 4, 76, 127
1, 122936, Note_off_c, 4, 76, 127
1, 122936, Note_off_c, 0, 60, 127
1, 122938, Note_on_c, 12, 59, 127
1, 122938, Note_on_c, 3, 75, 127
1, 123096, Note_off_c, 3, 75, 127
1, 123098, Note_on_c, 6, 78, 127
1, 123256, Note_off_c, 6, 78, 127
1, 123258, Note_on_c, 7, 79, 127
1, 123576, Note_off_c, 12, 59, 127
1, 123578, Note_on_c, 1, 61, 127
1, 123736, Note_off_c, 7, 79, 127
1, 123738, Note_on_c, 4, 76, 127
1, 123896, Note_off_c, 4, 76, 127
1, 123898, Note_on_c, 11, 70, 127
1, 124216, Note_off_c, 1, 61, 127
1, 124218, Note_on_c, 3, 63, 127
1, 124376, Note_off_c, 11, 70, 127
1, 124378, Note_on_c, 10, 69, 127
1, 124536, Note_off_c, 10, 69, 127
1, 124538, Note_on_c, 6, 78, 127
1, 124696, Note_off_c, 6, 78, 127
1, 124698, Note_on_c, 10, 69, 127
1, 124856, Note_off_c, 10, 69, 127
1, 124856, Note_off_c, 3, 63, 127
1, 124858, Note_on_c, 4, 52, 127
1, 124858, Note_on_c, 7, 67, 127
1, 125016, Note_off_c, 7, 67, 127
1, 125016, Note_off_c, 4, 52, 127
1, 125018, Note_on_c, 6, 54, 127
1, 125018, Note_on_c, 6, 66, 127
1, 125176, Note_off_c, 6, 66, 127
1, 125176, Note_off_c, 6, 54, 127
1, 125178, Note_on_c, 7, 55, 127
1, 125178, Note_on_c, 4, 64, 127
1, 125336, Note_off_c, 4, 64, 127
1, 125336, Note_off_c, 7, 55, 127
1, 125338, Note_on_c, 10, 57, 127
1, 125338, Note_on_c, 6, 66, 127
1, 125496, Note_off_c, 6, 66, 127
1, 125496, Note_off_c, 10, 57, 127
1, 125498, Note_on_c, 12, 59, 127
1, 125498, Note_on_c, 7, 67, 127
1, 125656, Note_off_c, 7, 67, 127
1, 125656, Note_off_c, 12, 59, 127
1, 125658, Note_on_c, 1, 61, 127
1, 125658, Note_on_c, 10, 69, 127
1, 125816, Note_off_c, 10, 69, 127
1, 125816, Note_off_c, 1, 61, 127
1, 125818, Note_on_c, 3, 63, 127
1, 125818, Note_on_c, 12, 71, 127
1, 125976, Note_off_c, 12, 71, 127
1, 125976, Note_off_c, 3, 63, 127
1, 125978, Note_on_c, 4, 64, 127
1, 125978, Note_on_c, 1, 73, 127
1, 126136, Note_off_c, 1, 73, 127
1, 126136, Note_off_c, 4, 64, 127
1, 126138, Note_on_c, 3, 63, 127
1, 126138, Note_on_c, 3, 75, 127
1, 126296, Note_off_c, 3, 75, 127
1, 126296, Note_off_c, 3, 63, 127
1, 126298, Note_on_c, 1, 61, 127
1, 126298, Note_on_c, 4, 76, 127
1, 126456, Note_off_c, 4, 76, 127
1, 126456, Note_off_c, 1, 61, 127
1, 126458, Note_on_c, 12, 59, 127
1, 126458, Note_on_c, 3, 75, 127
1, 126616, Note_off_c, 3, 75, 127
1, 126616, Note_off_c, 12, 59, 127
1, 126618, Note_on_c, 10, 57, 127
1, 126618, Note_on_c, 1, 73, 127
1, 126776, Note_off_c, 1, 73, 127
1, 126776, Note_off_c, 10, 57, 127
1, 126778, Note_on_c, 7, 55, 127
1, 126778, Note_on_c, 12, 71, 127
1, 126936, Note_off_c, 12, 71, 127
1, 126936, Note_off_c, 7, 55, 127
1, 126938, Note_on_c, 6, 54, 127
1, 126938, Note_on_c, 10, 69, 127
1, 127096, Note_off_c, 10, 69, 127
1, 127096, Note_off_c, 6, 54, 127
1, 127098, Note_on_c, 4, 52, 127
1, 127098, Note_on_c, 7, 67, 127
1, 127256, Note_off_c, 7, 67, 127
1, 127258, Note_on_c, 6, 66, 127
1, 127415, Note_off_c, 4, 52, 127
1, 127417, Note_off_c, 6, 66, 127
1, 127419, Note_on_c, 4, 64, 127
1, 127739, Note_on_c, 0, 60, 127
1, 127939, Note_off_c, 4, 64, 127
1, 128057, Note_off_c, 0, 60, 127
1, 128059, Note_on_c, 12, 59, 127
1, 128059, Note_on_c, 4, 76, 127
1, 128377, Note_off_c, 12, 59, 127
1, 128379, Note_on_c, 11, 58, 127
1, 128579, Note_off_c, 4, 76, 127
1, 128697, Note_off_c, 11, 58, 127
1, 128699, Note_on_c, 11, 58, 127
1, 128699, Note_on_c, 3, 75, 127
1, 128857, Note_off_c, 11, 58, 127
1, 128859, Note_on_c, 12, 59, 127
1, 129017, Note_off_c, 12, 59, 127
1, 129019, Note_on_c, 12, 47, 127
1, 129219, Note_off_c, 3, 75, 127
1, 129336, Note_off_c, 12, 47, 127
1, 129339, Note_on_c, 2, 62, 127
1, 129659, Note_on_c, 11, 58, 127
1, 129859, Note_off_c, 2, 62, 127
1, 129977, Note_off_c, 11, 58, 127
1, 129979, Note_on_c, 10, 57, 127
1, 129979, Note_on_c, 2, 74, 127
1, 130297, Note_off_c, 10, 57, 127
1, 130299, Note_on_c, 8, 56, 127
1, 130499, Note_off_c, 2, 74, 127
1, 130617, Note_off_c, 8, 56, 127
1, 130619, Note_on_c, 8, 56, 127
1, 130619, Note_on_c, 1, 73, 127
1, 130777, Note_off_c, 8, 56, 127
1, 130779, Note_on_c, 10, 57, 127
1, 130937, Note_off_c, 10, 57, 127
1, 130939, Note_on_c, 10, 45, 127
1, 131139, Note_off_c, 1, 73, 127
1, 131256, Note_off_c, 10, 45, 127
1, 131259, Note_on_c, 0, 60, 127
1, 131419, Note_on_c, 10, 45, 127
1, 131577, Note_off_c, 10, 45, 127
1, 131579, Note_on_c, 0, 48, 127
1, 131737, Note_off_c, 0, 48, 127
1, 131739, Note_on_c, 4, 52, 127
1, 131779, Note_off_c, 0, 60, 127
1, 131897, Note_off_c, 4, 52, 127
1, 131899, Note_on_c, 10, 57, 127
1, 131899, Note_on_c, 0, 72, 127
1, 132057, Note_off_c, 10, 57, 127
1, 132059, Note_on_c, 7, 55, 127
1, 132217, Note_off_c, 7, 55, 127
1, 132219, Note_on_c, 6, 54, 127
1, 132377, Note_off_c, 6, 54, 127
1, 132379, Note_on_c, 4, 52, 127
1, 132419, Note_off_c, 0, 72, 127
1, 132537, Note_off_c, 4, 52, 127
1, 132539, Note_on_c, 3, 51, 127
1, 132539, Note_on_c, 12, 71, 127
1, 132697, Note_off_c, 3, 51, 127
1, 132699, Note_on_c, 6, 54, 127
1, 132857, Note_off_c, 6, 54, 127
1, 132859, Note_on_c, 7, 55, 127
1, 133109, Note_off_c, 12, 71, 127
1, 133179, Note_on_c, 1, 73, 127
1, 133259, Note_off_c, 7, 55, 127
1, 133339, Note_on_c, 4, 52, 127
1, 133497, Note_off_c, 4, 52, 127
1, 133499, Note_on_c, 11, 46, 127
1, 133749, Note_off_c, 1, 73, 127
1, 133819, Note_on_c, 3, 75, 127
1, 133899, Note_off_c, 11, 46, 127
1, 133979, Note_on_c, 10, 45, 127
1, 134137, Note_off_c, 10, 45, 127
1, 134139, Note_on_c, 6, 54, 127
1, 134297, Note_off_c, 6, 54, 127
1, 134299, Note_on_c, 10, 45, 127
1, 134389, Note_off_c, 3, 75, 127
1, 134457, Note_off_c, 10, 45, 127
1, 134459, Note_on_c, 8, 44, 127
1, 134619, Note_on_c, 11, 70, 127
1, 134777, Note_off_c, 11, 70, 127
1, 134779, Note_on_c, 12, 71, 127
1, 135097, Note_off_c, 8, 44, 127
1, 135099, Note_on_c, 7, 43, 127
1, 135229, Note_off_c, 12, 71, 127
1, 135259, Note_on_c, 3, 75, 127
1, 135417, Note_off_c, 3, 75, 127
1, 135419, Note_on_c, 4, 76, 127
1, 135737, Note_off_c, 7, 43, 127
1, 135739, Note_on_c, 6, 42, 127
1, 135869, Note_off_c, 4, 76, 127
1, 135899, Note_on_c, 3, 75, 127
1, 136057, Note_off_c, 3, 75, 127
1, 136059, Note_on_c, 10, 81, 127
1, 136377, Note_off_c, 6, 42, 127
1, 136379, Note_on_c, 4, 40, 127
1, 136499, Note_off_c, 10, 81, 127
1, 136541, Note_on_c, 7, 79, 127
1, 136702, Note_off_c, 7, 79, 127
1, 136702, Note_off_c, 4, 40, 127
1, 136704, Note_on_c, 0, 48, 127
1, 136704, Note_on_c, 6, 78, 127
1, 136865, Note_off_c, 6, 78, 127
1, 136867, Note_on_c, 4, 76, 127
1, 137028, Note_off_c, 4, 76, 127
1, 137028, Note_off_c, 0, 48, 127
1, 137030, Note_on_c, 10, 45, 127
1, 137030, Note_on_c, 6, 78, 127
1, 137690, Note_off_c, 6, 78, 127
1, 137706, Note_off_c, 10, 45, 127
1, 137708, Note_on_c, 12, 47, 127
1, 137708, Note_on_c, 4, 76, 127
1, 137802, Note_off_c, 4, 76, 127
1, 137804, Note_on_c, 3, 75, 127
1, 137898, Note_off_c, 3, 75, 127
1, 137900, Note_on_c, 4, 76, 127
1, 137994, Note_off_c, 4, 76, 127
1, 137996, Note_on_c, 3, 75, 127
1, 138090, Note_off_c, 3, 75, 127
1, 138092, Note_on_c, 4, 76, 127
1, 138186, Note_off_c, 4, 76, 127
1, 138188, Note_on_c, 3, 75, 127
1, 138282, Note_off_c, 3, 75, 127
1, 138284, Note_on_c, 1, 73, 127
1, 138378, Note_off_c, 1, 73, 127
1, 138380, Note_on_c, 3, 75, 127
1, 138474, Note_off_c, 3, 75, 127
1, 138474, Note_off_c, 12, 47, 127
1, 138476, Note_on_c, 4, 40, 127
1, 138476, Note_on_c, 4, 76, 127
1, 140776, Note_off_c, 4, 76, 127
1, 140776, Note_off_c, 4, 40, 127
1, 145340, End_track
0, 0, End_of_file
