0, 0, Header, 1, 4, 240
1, 0, Start_track
1, 0, Time_signature, 3, 2, 24, 8
1, 0, Tempo, 923077
1, 5760, Time_signature, 3, 2, 24, 8
1, 5760, End_track
2, 0, Start_track
2, 0, Title_t, "English Suite 4, 4. Saraband"
2, 0, Program_c, 0, 0
2, 0, Note_on_c, 0, 72, 107
2, 0, Note_on_c, 0, 69, 107
2, 0, Note_on_c, 0, 65, 107
2, 144, Note_off_c, 0, 72, 64
2, 180, Note_on_c, 0, 75, 107
2, 192, Note_off_c, 0, 65, 64
2, 192, Note_off_c, 0, 69, 64
2, 204, Note_off_c, 0, 75, 64
2, 210, Note_on_c, 0, 74, 107
2, 234, Note_off_c, 0, 74, 64
2, 240, Note_on_c, 0, 65, 107
2, 240, Note_on_c, 0, 69, 107
2, 240, Note_on_c, 0, 75, 107
2, 624, Note_off_c, 0, 75, 64
2, 624, Note_off_c, 0, 69, 64
2, 624, Note_off_c, 0, 65, 64
2, 720, Note_on_c, 0, 65, 107
2, 720, Note_on_c, 0, 70, 107
2, 720, Note_on_c, 0, 74, 107
2, 816, Note_off_c, 0, 74, 64
2, 816, Note_off_c, 0, 70, 64
2, 816, Note_off_c, 0, 65, 64
2, 840, Note_on_c, 0, 69, 107
2, 840, Note_on_c, 0, 72, 107
2, 840, Note_on_c, 0, 63, 107
2, 936, Note_off_c, 0, 63, 64
2, 936, Note_off_c, 0, 72, 64
2, 936, Note_off_c, 0, 69, 64
2, 960, Note_on_c, 0, 70, 107
2, 960, Note_on_c, 0, 74, 107
2, 960, Note_on_c, 0, 65, 107
2, 1344, Note_off_c, 0, 65, 64
2, 1344, Note_off_c, 0, 74, 64
2, 1344, Note_off_c, 0, 70, 64
2, 1440, Note_on_c, 0, 67, 107
2, 1440, Note_on_c, 0, 64, 107
2, 1536, Note_off_c, 0, 67, 64
2, 1560, Note_on_c, 0, 69, 107
2, 1632, Note_off_c, 0, 64, 64
2, 1656, Note_off_c, 0, 69, 64
2, 1680, Note_on_c, 0, 65, 107
2, 1680, Note_on_c, 0, 69, 107
2, 1776, Note_off_c, 0, 69, 64
2, 1800, Note_on_c, 0, 70, 107
2, 1872, Note_off_c, 0, 65, 64
2, 1896, Note_off_c, 0, 70, 64
2, 1920, Note_on_c, 0, 70, 107
2, 1920, Note_on_c, 0, 64, 107
2, 2016, Note_off_c, 0, 70, 64
2, 2040, Note_on_c, 0, 72, 107
2, 2112, Note_off_c, 0, 64, 64
2, 2136, Note_off_c, 0, 72, 64
2, 2160, Note_on_c, 0, 65, 107
2, 2160, Note_on_c, 0, 70, 107
2, 2175, Note_off_c, 0, 70, 64
2, 2175, Note_on_c, 0, 69, 107
2, 2190, Note_off_c, 0, 69, 64
2, 2190, Note_on_c, 0, 70, 107
2, 2205, Note_off_c, 0, 70, 64
2, 2205, Note_on_c, 0, 69, 107
2, 2316, Note_off_c, 0, 69, 64
2, 2352, Note_off_c, 0, 65, 64
2, 2400, Note_on_c, 0, 67, 107
2, 2400, Note_on_c, 0, 64, 107
2, 2496, Note_off_c, 0, 67, 64
2, 2520, Note_on_c, 0, 69, 107
2, 2592, Note_off_c, 0, 64, 64
2, 2616, Note_off_c, 0, 69, 64
2, 2640, Note_on_c, 0, 60, 107
2, 2640, Note_on_c, 0, 65, 107
2, 2832, Note_off_c, 0, 65, 64
2, 2832, Note_off_c, 0, 60, 64
2, 2880, Note_on_c, 0, 69, 107
2, 2880, Note_on_c, 0, 65, 107
2, 3024, Note_off_c, 0, 69, 64
2, 3060, Note_on_c, 0, 72, 107
2, 3072, Note_off_c, 0, 65, 64
2, 3084, Note_off_c, 0, 72, 64
2, 3090, Note_on_c, 0, 71, 107
2, 3114, Note_off_c, 0, 71, 64
2, 3120, Note_on_c, 0, 65, 107
2, 3120, Note_on_c, 0, 72, 107
2, 3135, Note_off_c, 0, 72, 64
2, 3135, Note_on_c, 0, 71, 107
2, 3150, Note_off_c, 0, 71, 64
2, 3150, Note_on_c, 0, 72, 107
2, 3165, Note_off_c, 0, 72, 64
2, 3165, Note_on_c, 0, 71, 107
2, 3465, Note_off_c, 0, 71, 64
2, 3480, Note_on_c, 0, 72, 107
2, 3504, Note_off_c, 0, 65, 64
2, 3576, Note_off_c, 0, 72, 64
2, 3600, Note_on_c, 0, 75, 107
2, 3600, Note_on_c, 0, 65, 107
2, 3624, Note_off_c, 0, 75, 64
2, 3630, Note_on_c, 0, 74, 107
2, 3659, Note_off_c, 0, 74, 64
2, 3660, Note_on_c, 0, 72, 107
2, 3708, Note_off_c, 0, 72, 64
2, 3720, Note_on_c, 0, 74, 107
2, 3792, Note_off_c, 0, 65, 64
2, 3816, Note_off_c, 0, 74, 64
2, 3840, Note_on_c, 0, 67, 107
2, 3840, Note_on_c, 0, 77, 107
2, 3840, Note_on_c, 0, 74, 107
2, 4224, Note_off_c, 0, 74, 64
2, 4224, Note_off_c, 0, 77, 64
2, 4224, Note_off_c, 0, 67, 64
2, 4320, Note_on_c, 0, 67, 107
2, 4320, Note_on_c, 0, 76, 107
2, 4416, Note_off_c, 0, 76, 64
2, 4416, Note_off_c, 0, 67, 64
2, 4440, Note_on_c, 0, 74, 107
2, 4440, Note_on_c, 0, 65, 107
2, 4536, Note_off_c, 0, 65, 64
2, 4536, Note_off_c, 0, 74, 64
2, 4560, Note_on_c, 0, 74, 107
2, 4560, Note_on_c, 0, 65, 107
2, 4656, Note_off_c, 0, 65, 64
2, 4656, Note_off_c, 0, 74, 64
2, 4680, Note_on_c, 0, 64, 107
2, 4680, Note_on_c, 0, 72, 107
2, 4776, Note_off_c, 0, 72, 64
2, 4776, Note_off_c, 0, 64, 64
2, 4800, Note_on_c, 0, 64, 107
2, 4800, Note_on_c, 0, 72, 107
2, 4896, Note_off_c, 0, 72, 64
2, 4896, Note_off_c, 0, 64, 64
2, 4920, Note_on_c, 0, 71, 107
2, 4920, Note_on_c, 0, 62, 107
2, 5016, Note_off_c, 0, 62, 64
2, 5016, Note_off_c, 0, 71, 64
2, 5040, Note_on_c, 0, 71, 107
2, 5040, Note_on_c, 0, 62, 107
2, 5136, Note_off_c, 0, 62, 64
2, 5136, Note_off_c, 0, 71, 64
2, 5160, Note_on_c, 0, 72, 107
2, 5160, Note_on_c, 0, 64, 107
2, 5256, Note_off_c, 0, 64, 64
2, 5256, Note_off_c, 0, 72, 64
2, 5280, Note_on_c, 0, 67, 107
2, 5280, Note_on_c, 0, 64, 107
2, 5280, Note_on_c, 0, 72, 107
2, 5664, Note_off_c, 0, 72, 64
2, 5664, Note_off_c, 0, 64, 64
2, 5664, Note_off_c, 0, 67, 64
2, 5760, Note_on_c, 0, 72, 107
2, 5760, Note_on_c, 0, 69, 107
2, 5760, Note_on_c, 0, 65, 107
2, 5904, Note_off_c, 0, 72, 64
2, 5940, Note_on_c, 0, 75, 107
2, 5952, Note_off_c, 0, 65, 64
2, 5952, Note_off_c, 0, 69, 64
2, 5964, Note_off_c, 0, 75, 64
2, 5970, Note_on_c, 0, 74, 107
2, 5994, Note_off_c, 0, 74, 64
2, 6000, Note_on_c, 0, 65, 107
2, 6000, Note_on_c, 0, 69, 107
2, 6000, Note_on_c, 0, 75, 107
2, 6384, Note_off_c, 0, 75, 64
2, 6384, Note_off_c, 0, 69, 64
2, 6384, Note_off_c, 0, 65, 64
2, 6480, Note_on_c, 0, 65, 107
2, 6480, Note_on_c, 0, 70, 107
2, 6480, Note_on_c, 0, 74, 107
2, 6576, Note_off_c, 0, 74, 64
2, 6576, Note_off_c, 0, 70, 64
2, 6576, Note_off_c, 0, 65, 64
2, 6600, Note_on_c, 0, 69, 107
2, 6600, Note_on_c, 0, 72, 107
2, 6600, Note_on_c, 0, 63, 107
2, 6696, Note_off_c, 0, 63, 64
2, 6696, Note_off_c, 0, 72, 64
2, 6696, Note_off_c, 0, 69, 64
2, 6720, Note_on_c, 0, 70, 107
2, 6720, Note_on_c, 0, 74, 107
2, 6720, Note_on_c, 0, 65, 107
2, 7104, Note_off_c, 0, 65, 64
2, 7104, Note_off_c, 0, 74, 64
2, 7104, Note_off_c, 0, 70, 64
2, 7200, Note_on_c, 0, 67, 107
2, 7200, Note_on_c, 0, 64, 107
2, 7296, Note_off_c, 0, 67, 64
2, 7320, Note_on_c, 0, 69, 107
2, 7392, Note_off_c, 0, 64, 64
2, 7416, Note_off_c, 0, 69, 64
2, 7440, Note_on_c, 0, 65, 107
2, 7440, Note_on_c, 0, 69, 107
2, 7536, Note_off_c, 0, 69, 64
2, 7560, Note_on_c, 0, 70, 107
2, 7632, Note_off_c, 0, 65, 64
2, 7656, Note_off_c, 0, 70, 64
2, 7680, Note_on_c, 0, 70, 107
2, 7680, Note_on_c, 0, 64, 107
2, 7776, Note_off_c, 0, 70, 64
2, 7800, Note_on_c, 0, 72, 107
2, 7872, Note_off_c, 0, 64, 64
2, 7896, Note_off_c, 0, 72, 64
2, 7920, Note_on_c, 0, 65, 107
2, 7920, Note_on_c, 0, 70, 107
2, 7935, Note_off_c, 0, 70, 64
2, 7935, Note_on_c, 0, 69, 107
2, 7950, Note_off_c, 0, 69, 64
2, 7950, Note_on_c, 0, 70, 107
2, 7965, Note_off_c, 0, 70, 64
2, 7965, Note_on_c, 0, 69, 107
2, 8076, Note_off_c, 0, 69, 64
2, 8112, Note_off_c, 0, 65, 64
2, 8160, Note_on_c, 0, 67, 107
2, 8160, Note_on_c, 0, 64, 107
2, 8256, Note_off_c, 0, 67, 64
2, 8280, Note_on_c, 0, 69, 107
2, 8352, Note_off_c, 0, 64, 64
2, 8376, Note_off_c, 0, 69, 64
2, 8400, Note_on_c, 0, 60, 107
2, 8400, Note_on_c, 0, 65, 107
2, 8592, Note_off_c, 0, 65, 64
2, 8592, Note_off_c, 0, 60, 64
2, 8640, Note_on_c, 0, 69, 107
2, 8640, Note_on_c, 0, 65, 107
2, 8784, Note_off_c, 0, 69, 64
2, 8820, Note_on_c, 0, 72, 107
2, 8832, Note_off_c, 0, 65, 64
2, 8844, Note_off_c, 0, 72, 64
2, 8850, Note_on_c, 0, 71, 107
2, 8874, Note_off_c, 0, 71, 64
2, 8880, Note_on_c, 0, 65, 107
2, 8880, Note_on_c, 0, 72, 107
2, 8895, Note_off_c, 0, 72, 64
2, 8895, Note_on_c, 0, 71, 107
2, 8910, Note_off_c, 0, 71, 64
2, 8910, Note_on_c, 0, 72, 107
2, 8925, Note_off_c, 0, 72, 64
2, 8925, Note_on_c, 0, 71, 107
2, 9225, Note_off_c, 0, 71, 64
2, 9240, Note_on_c, 0, 72, 107
2, 9264, Note_off_c, 0, 65, 64
2, 9336, Note_off_c, 0, 72, 64
2, 9360, Note_on_c, 0, 75, 107
2, 9360, Note_on_c, 0, 65, 107
2, 9384, Note_off_c, 0, 75, 64
2, 9390, Note_on_c, 0, 74, 107
2, 9419, Note_off_c, 0, 74, 64
2, 9420, Note_on_c, 0, 72, 107
2, 9468, Note_off_c, 0, 72, 64
2, 9480, Note_on_c, 0, 74, 107
2, 9552, Note_off_c, 0, 65, 64
2, 9576, Note_off_c, 0, 74, 64
2, 9600, Note_on_c, 0, 67, 107
2, 9600, Note_on_c, 0, 77, 107
2, 9600, Note_on_c, 0, 74, 107
2, 9984, Note_off_c, 0, 74, 64
2, 9984, Note_off_c, 0, 77, 64
2, 9984, Note_off_c, 0, 67, 64
2, 10080, Note_on_c, 0, 67, 107
2, 10080, Note_on_c, 0, 76, 107
2, 10176, Note_off_c, 0, 76, 64
2, 10176, Note_off_c, 0, 67, 64
2, 10200, Note_on_c, 0, 74, 107
2, 10200, Note_on_c, 0, 65, 107
2, 10296, Note_off_c, 0, 65, 64
2, 10296, Note_off_c, 0, 74, 64
2, 10320, Note_on_c, 0, 74, 107
2, 10320, Note_on_c, 0, 65, 107
2, 10416, Note_off_c, 0, 65, 64
2, 10416, Note_off_c, 0, 74, 64
2, 10440, Note_on_c, 0, 64, 107
2, 10440, Note_on_c, 0, 72, 107
2, 10536, Note_off_c, 0, 72, 64
2, 10536, Note_off_c, 0, 64, 64
2, 10560, Note_on_c, 0, 64, 107
2, 10560, Note_on_c, 0, 72, 107
2, 10656, Note_off_c, 0, 72, 64
2, 10656, Note_off_c, 0, 64, 64
2, 10680, Note_on_c, 0, 71, 107
2, 10680, Note_on_c, 0, 62, 107
2, 10776, Note_off_c, 0, 62, 64
2, 10776, Note_off_c, 0, 71, 64
2, 10800, Note_on_c, 0, 71, 107
2, 10800, Note_on_c, 0, 62, 107
2, 10896, Note_off_c, 0, 62, 64
2, 10896, Note_off_c, 0, 71, 64
2, 10920, Note_on_c, 0, 72, 107
2, 10920, Note_on_c, 0, 64, 107
2, 11016, Note_off_c, 0, 64, 64
2, 11016, Note_off_c, 0, 72, 64
2, 11040, Note_on_c, 0, 67, 107
2, 11040, Note_on_c, 0, 64, 107
2, 11040, Note_on_c, 0, 72, 107
2, 11424, Note_off_c, 0, 72, 64
2, 11424, Note_off_c, 0, 64, 64
2, 11424, Note_off_c, 0, 67, 64
2, 11520, Note_on_c, 0, 76, 107
2, 11520, Note_on_c, 0, 72, 107
2, 11664, Note_off_c, 0, 76, 64
2, 11700, Note_on_c, 0, 77, 107
2, 11712, Note_off_c, 0, 72, 64
2, 11724, Note_off_c, 0, 77, 64
2, 11730, Note_on_c, 0, 79, 107
2, 11754, Note_off_c, 0, 79, 64
2, 11760, Note_on_c, 0, 72, 107
2, 11760, Note_on_c, 0, 77, 107
2, 11772, Note_off_c, 0, 77, 64
2, 11775, Note_on_c, 0, 76, 107
2, 11787, Note_off_c, 0, 76, 64
2, 11790, Note_on_c, 0, 77, 107
2, 11802, Note_off_c, 0, 77, 64
2, 11805, Note_on_c, 0, 76, 107
2, 12144, Note_off_c, 0, 72, 64
2, 12192, Note_off_c, 0, 76, 64
2, 12240, Note_on_c, 0, 79, 107
2, 12240, Note_on_c, 0, 69, 107
2, 12240, Note_on_c, 0, 76, 107
2, 12240, Note_on_c, 0, 76, 107
2, 12432, Note_off_c, 0, 76, 64
2, 12432, Note_off_c, 0, 76, 64
2, 12432, Note_off_c, 0, 69, 64
2, 12432, Note_off_c, 0, 79, 64
2, 12480, Note_on_c, 0, 69, 107
2, 12480, Note_on_c, 0, 74, 107
2, 12492, Note_off_c, 0, 74, 64
2, 12495, Note_on_c, 0, 73, 107
2, 12507, Note_off_c, 0, 73, 64
2, 12510, Note_on_c, 0, 74, 107
2, 12522, Note_off_c, 0, 74, 64
2, 12525, Note_on_c, 0, 73, 107
2, 12537, Note_off_c, 0, 73, 64
2, 12540, Note_on_c, 0, 73, 107
2, 12864, Note_off_c, 0, 69, 64
2, 12912, Note_off_c, 0, 73, 64
2, 12960, Note_on_c, 0, 73, 107
2, 12960, Note_on_c, 0, 82, 107
2, 13056, Note_off_c, 0, 82, 64
2, 13080, Note_on_c, 0, 81, 107
2, 13152, Note_off_c, 0, 73, 64
2, 13176, Note_off_c, 0, 81, 64
2, 13200, Note_on_c, 0, 81, 107
2, 13200, Note_on_c, 0, 74, 107
2, 13296, Note_off_c, 0, 81, 64
2, 13320, Note_on_c, 0, 79, 107
2, 13392, Note_off_c, 0, 74, 64
2, 13416, Note_off_c, 0, 79, 64
2, 13440, Note_on_c, 0, 76, 107
2, 13440, Note_on_c, 0, 79, 107
2, 13488, Note_off_c, 0, 79, 64
2, 13500, Note_on_c, 0, 77, 107
2, 13548, Note_off_c, 0, 77, 64
2, 13560, Note_on_c, 0, 79, 107
2, 13608, Note_off_c, 0, 79, 64
2, 13620, Note_on_c, 0, 76, 107
2, 13632, Note_off_c, 0, 76, 64
2, 13668, Note_off_c, 0, 76, 64
2, 13680, Note_on_c, 0, 79, 107
2, 13680, Note_on_c, 0, 69, 107
2, 13692, Note_off_c, 0, 79, 64
2, 13695, Note_on_c, 0, 77, 107
2, 13707, Note_off_c, 0, 77, 64
2, 13710, Note_on_c, 0, 79, 107
2, 13722, Note_off_c, 0, 79, 64
2, 13725, Note_on_c, 0, 77, 107
2, 13872, Note_off_c, 0, 69, 64
2, 13884, Note_off_c, 0, 77, 64
2, 13920, Note_on_c, 0, 67, 107
2, 13920, Note_on_c, 0, 76, 107
2, 14016, Note_off_c, 0, 76, 64
2, 14040, Note_on_c, 0, 77, 107
2, 14112, Note_off_c, 0, 67, 64
2, 14136, Note_off_c, 0, 77, 64
2, 14160, Note_on_c, 0, 74, 107
2, 14160, Note_on_c, 0, 65, 107
2, 14352, Note_off_c, 0, 65, 64
2, 14352, Note_off_c, 0, 74, 64
2, 14400, Note_on_c, 0, 78, 107
2, 14400, Note_on_c, 0, 74, 107
2, 14400, Note_on_c, 0, 69, 107
2, 14544, Note_off_c, 0, 78, 64
2, 14580, Note_on_c, 0, 81, 107
2, 14592, Note_off_c, 0, 69, 64
2, 14592, Note_off_c, 0, 74, 64
2, 14604, Note_off_c, 0, 81, 64
2, 14610, Note_on_c, 0, 79, 107
2, 14634, Note_off_c, 0, 79, 64
2, 14640, Note_on_c, 0, 67, 107
2, 14640, Note_on_c, 0, 74, 107
2, 14640, Note_on_c, 0, 79, 107
2, 15024, Note_off_c, 0, 79, 64
2, 15024, Note_off_c, 0, 74, 64
2, 15024, Note_off_c, 0, 67, 64
2, 15120, Note_on_c, 0, 75, 107
2, 15120, Note_on_c, 0, 69, 107
2, 15168, Note_off_c, 0, 75, 64
2, 15180, Note_on_c, 0, 72, 107
2, 15228, Note_off_c, 0, 72, 64
2, 15240, Note_on_c, 0, 74, 107
2, 15312, Note_off_c, 0, 69, 64
2, 15336, Note_off_c, 0, 74, 64
2, 15360, Note_on_c, 0, 68, 107
2, 15360, Note_on_c, 0, 75, 107
2, 15372, Note_off_c, 0, 75, 64
2, 15375, Note_on_c, 0, 74, 107
2, 15387, Note_off_c, 0, 74, 64
2, 15390, Note_on_c, 0, 75, 107
2, 15402, Note_off_c, 0, 75, 64
2, 15405, Note_on_c, 0, 74, 107
2, 15672, Note_off_c, 0, 74, 64
2, 15720, Note_on_c, 0, 74, 107
2, 15744, Note_off_c, 0, 68, 64
2, 15816, Note_off_c, 0, 74, 64
2, 15840, Note_on_c, 0, 67, 107
2, 15840, Note_on_c, 0, 79, 107
2, 15984, Note_off_c, 0, 79, 64
2, 16020, Note_on_c, 0, 81, 107
2, 16032, Note_off_c, 0, 67, 64
2, 16068, Note_off_c, 0, 81, 64
2, 16080, Note_on_c, 0, 82, 107
2, 16080, Note_on_c, 0, 75, 107
2, 16080, Note_on_c, 0, 79, 107
2, 16092, Note_off_c, 0, 82, 64
2, 16095, Note_on_c, 0, 81, 107
2, 16107, Note_off_c, 0, 81, 64
2, 16110, Note_on_c, 0, 82, 107
2, 16122, Note_off_c, 0, 82, 64
2, 16125, Note_on_c, 0, 81, 107
2, 16272, Note_off_c, 0, 79, 64
2, 16272, Note_off_c, 0, 75, 64
2, 16320, Note_on_c, 0, 74, 107
2, 16320, Note_on_c, 0, 78, 107
2, 16392, Note_off_c, 0, 81, 64
2, 16440, Note_on_c, 0, 79, 107
2, 16512, Note_off_c, 0, 78, 64
2, 16512, Note_off_c, 0, 74, 64
2, 16553, Note_off_c, 0, 79, 64
2, 16560, Note_on_c, 0, 79, 107
2, 16560, Note_on_c, 0, 74, 107
2, 16752, Note_off_c, 0, 74, 64
2, 16752, Note_off_c, 0, 79, 64
2, 16800, Note_on_c, 0, 74, 107
2, 16800, Note_on_c, 0, 67, 107
2, 16800, Note_on_c, 0, 79, 107
2, 17184, Note_off_c, 0, 79, 64
2, 17184, Note_off_c, 0, 67, 64
2, 17184, Note_off_c, 0, 74, 64
2, 17280, Note_on_c, 0, 71, 107
2, 17280, Note_on_c, 0, 67, 107
2, 17424, Note_off_c, 0, 71, 64
2, 17460, Note_on_c, 0, 74, 107
2, 17472, Note_off_c, 0, 67, 64
2, 17484, Note_off_c, 0, 74, 64
2, 17490, Note_on_c, 0, 72, 107
2, 17514, Note_off_c, 0, 72, 64
2, 17520, Note_on_c, 0, 72, 107
2, 17520, Note_on_c, 0, 67, 107
2, 17808, Note_off_c, 0, 72, 64
2, 17880, Note_on_c, 0, 72, 107
2, 17904, Note_off_c, 0, 67, 64
2, 17976, Note_off_c, 0, 72, 64
2, 18000, Note_on_c, 0, 65, 107
2, 18000, Note_on_c, 0, 69, 107
2, 18000, Note_on_c, 0, 77, 107
2, 18096, Note_off_c, 0, 77, 64
2, 18120, Note_on_c, 0, 69, 107
2, 18192, Note_off_c, 0, 69, 64
2, 18192, Note_off_c, 0, 65, 64
2, 18216, Note_off_c, 0, 69, 64
2, 18240, Note_on_c, 0, 70, 107
2, 18240, Note_on_c, 0, 65, 107
2, 18528, Note_off_c, 0, 70, 64
2, 18600, Note_on_c, 0, 72, 107
2, 18624, Note_off_c, 0, 65, 64
2, 18648, Note_off_c, 0, 72, 64
2, 18660, Note_on_c, 0, 74, 107
2, 18708, Note_off_c, 0, 74, 64
2, 18720, Note_on_c, 0, 72, 107
2, 18720, Note_on_c, 0, 67, 107
2, 18720, Note_on_c, 0, 75, 107
2, 18816, Note_off_c, 0, 75, 64
2, 18840, Note_on_c, 0, 79, 107
2, 18912, Note_off_c, 0, 67, 64
2, 18912, Note_off_c, 0, 72, 64
2, 18936, Note_off_c, 0, 79, 64
2, 18960, Note_on_c, 0, 77, 107
2, 18960, Note_on_c, 0, 72, 107
2, 19056, Note_off_c, 0, 77, 64
2, 19080, Note_on_c, 0, 75, 107
2, 19152, Note_off_c, 0, 72, 64
2, 19176, Note_off_c, 0, 75, 64
2, 19200, Note_on_c, 0, 65, 107
2, 19200, Note_on_c, 0, 74, 107
2, 19200, Note_on_c, 0, 72, 107
2, 19296, Note_off_c, 0, 74, 64
2, 19320, Note_on_c, 0, 75, 107
2, 19392, Note_off_c, 0, 72, 64
2, 19392, Note_off_c, 0, 65, 64
2, 19416, Note_off_c, 0, 75, 64
2, 19440, Note_on_c, 0, 70, 107
2, 19440, Note_on_c, 0, 74, 107
2, 19440, Note_on_c, 0, 65, 107
2, 19632, Note_off_c, 0, 65, 64
2, 19632, Note_off_c, 0, 74, 64
2, 19632, Note_off_c, 0, 70, 64
2, 19680, Note_on_c, 0, 72, 107
2, 19680, Note_on_c, 0, 63, 107
2, 19776, Note_off_c, 0, 72, 64
2, 19800, Note_on_c, 0, 74, 107
2, 19872, Note_off_c, 0, 63, 64
2, 19896, Note_off_c, 0, 74, 64
2, 19920, Note_on_c, 0, 70, 107
2, 19920, Note_on_c, 0, 62, 107
2, 20112, Note_off_c, 0, 62, 64
2, 20112, Note_off_c, 0, 70, 64
2, 20160, Note_on_c, 0, 65, 107
2, 20160, Note_on_c, 0, 62, 107
2, 20160, Note_on_c, 0, 67, 107
2, 20256, Note_off_c, 0, 67, 64
2, 20280, Note_on_c, 0, 69, 107
2, 20328, Note_off_c, 0, 69, 64
2, 20340, Note_on_c, 0, 67, 107
2, 20352, Note_off_c, 0, 62, 64
2, 20352, Note_off_c, 0, 65, 64
2, 20388, Note_off_c, 0, 67, 64
2, 20400, Note_on_c, 0, 67, 107
2, 20400, Note_on_c, 0, 65, 107
2, 20400, Note_on_c, 0, 62, 107
2, 20592, Note_off_c, 0, 62, 64
2, 20592, Note_off_c, 0, 65, 64
2, 20640, Note_on_c, 0, 65, 107
2, 20640, Note_on_c, 0, 60, 107
2, 20652, Note_off_c, 0, 65, 64
2, 20655, Note_on_c, 0, 64, 107
2, 20667, Note_off_c, 0, 64, 64
2, 20670, Note_on_c, 0, 65, 107
2, 20682, Note_off_c, 0, 65, 64
2, 20685, Note_on_c, 0, 64, 107
2, 20784, Note_off_c, 0, 67, 64
2, 20832, Note_off_c, 0, 60, 64
2, 20844, Note_off_c, 0, 64, 64
2, 20880, Note_on_c, 0, 65, 107
2, 20880, Note_on_c, 0, 67, 107
2, 20976, Note_off_c, 0, 67, 64
2, 21000, Note_on_c, 0, 68, 107
2, 21048, Note_off_c, 0, 68, 64
2, 21060, Note_on_c, 0, 67, 107
2, 21072, Note_off_c, 0, 65, 64
2, 21108, Note_off_c, 0, 67, 64
2, 21120, Note_on_c, 0, 72, 107
2, 21120, Note_on_c, 0, 65, 107
2, 21135, Note_off_c, 0, 72, 64
2, 21135, Note_on_c, 0, 71, 107
2, 21150, Note_off_c, 0, 71, 64
2, 21150, Note_on_c, 0, 72, 107
2, 21165, Note_off_c, 0, 72, 64
2, 21165, Note_on_c, 0, 71, 107
2, 21432, Note_off_c, 0, 71, 64
2, 21480, Note_on_c, 0, 69, 107
2, 21504, Note_off_c, 0, 65, 64
2, 21528, Note_off_c, 0, 69, 64
2, 21540, Note_on_c, 0, 71, 107
2, 21588, Note_off_c, 0, 71, 64
2, 21600, Note_on_c, 0, 60, 107
2, 21600, Note_on_c, 0, 67, 107
2, 21600, Note_on_c, 0, 72, 107
2, 21696, Note_off_c, 0, 72, 64
2, 21696, Note_off_c, 0, 67, 64
2, 21696, Note_off_c, 0, 60, 64
2, 21720, Note_on_c, 0, 60, 107
2, 21720, Note_on_c, 0, 60, 107
2, 21816, Note_off_c, 0, 60, 64
2, 21816, Note_off_c, 0, 60, 64
2, 21840, Note_on_c, 0, 60, 107
2, 21840, Note_on_c, 0, 65, 107
2, 21936, Note_off_c, 0, 65, 64
2, 21936, Note_off_c, 0, 60, 64
2, 21960, Note_on_c, 0, 65, 107
2, 21960, Note_on_c, 0, 62, 107
2, 21960, Note_on_c, 0, 70, 107
2, 22056, Note_off_c, 0, 70, 64
2, 22056, Note_off_c, 0, 62, 64
2, 22056, Note_off_c, 0, 65, 64
2, 22080, Note_on_c, 0, 69, 107
2, 22080, Note_on_c, 0, 60, 107
2, 22080, Note_on_c, 0, 65, 107
2, 22176, Note_off_c, 0, 65, 64
2, 22176, Note_off_c, 0, 60, 64
2, 22176, Note_off_c, 0, 69, 64
2, 22200, Note_on_c, 0, 67, 107
2, 22200, Note_on_c, 0, 58, 107
2, 22200, Note_on_c, 0, 64, 107
2, 22296, Note_off_c, 0, 64, 64
2, 22296, Note_off_c, 0, 58, 64
2, 22296, Note_off_c, 0, 67, 64
2, 22320, Note_on_c, 0, 65, 107
2, 22320, Note_on_c, 0, 58, 107
2, 22320, Note_on_c, 0, 60, 107
2, 22416, Note_off_c, 0, 65, 64
2, 22440, Note_on_c, 0, 64, 107
2, 22512, Note_off_c, 0, 60, 64
2, 22512, Note_off_c, 0, 58, 64
2, 22536, Note_off_c, 0, 64, 64
2, 22560, Note_on_c, 0, 60, 107
2, 22560, Note_on_c, 0, 57, 107
2, 22560, Note_on_c, 0, 65, 107
2, 22944, Note_off_c, 0, 65, 64
2, 22944, Note_off_c, 0, 57, 64
2, 22944, Note_off_c, 0, 60, 64
2, 23040, Note_on_c, 0, 76, 107
2, 23040, Note_on_c, 0, 72, 107
2, 23184, Note_off_c, 0, 76, 64
2, 23220, Note_on_c, 0, 77, 107
2, 23232, Note_off_c, 0, 72, 64
2, 23244, Note_off_c, 0, 77, 64
2, 23250, Note_on_c, 0, 79, 107
2, 23274, Note_off_c, 0, 79, 64
2, 23280, Note_on_c, 0, 72, 107
2, 23280, Note_on_c, 0, 77, 107
2, 23292, Note_off_c, 0, 77, 64
2, 23295, Note_on_c, 0, 76, 107
2, 23307, Note_off_c, 0, 76, 64
2, 23310, Note_on_c, 0, 77, 107
2, 23322, Note_off_c, 0, 77, 64
2, 23325, Note_on_c, 0, 76, 107
2, 23664, Note_off_c, 0, 72, 64
2, 23712, Note_off_c, 0, 76, 64
2, 23760, Note_on_c, 0, 79, 107
2, 23760, Note_on_c, 0, 69, 107
2, 23760, Note_on_c, 0, 76, 107
2, 23760, Note_on_c, 0, 76, 107
2, 23952, Note_off_c, 0, 76, 64
2, 23952, Note_off_c, 0, 76, 64
2, 23952, Note_off_c, 0, 69, 64
2, 23952, Note_off_c, 0, 79, 64
2, 24000, Note_on_c, 0, 69, 107
2, 24000, Note_on_c, 0, 74, 107
2, 24012, Note_off_c, 0, 74, 64
2, 24015, Note_on_c, 0, 73, 107
2, 24027, Note_off_c, 0, 73, 64
2, 24030, Note_on_c, 0, 74, 107
2, 24042, Note_off_c, 0, 74, 64
2, 24045, Note_on_c, 0, 73, 107
2, 24057, Note_off_c, 0, 73, 64
2, 24060, Note_on_c, 0, 73, 107
2, 24384, Note_off_c, 0, 69, 64
2, 24432, Note_off_c, 0, 73, 64
2, 24480, Note_on_c, 0, 73, 107
2, 24480, Note_on_c, 0, 82, 107
2, 24576, Note_off_c, 0, 82, 64
2, 24600, Note_on_c, 0, 81, 107
2, 24672, Note_off_c, 0, 73, 64
2, 24696, Note_off_c, 0, 81, 64
2, 24720, Note_on_c, 0, 81, 107
2, 24720, Note_on_c, 0, 74, 107
2, 24816, Note_off_c, 0, 81, 64
2, 24840, Note_on_c, 0, 79, 107
2, 24912, Note_off_c, 0, 74, 64
2, 24936, Note_off_c, 0, 79, 64
2, 24960, Note_on_c, 0, 76, 107
2, 24960, Note_on_c, 0, 79, 107
2, 25008, Note_off_c, 0, 79, 64
2, 25020, Note_on_c, 0, 77, 107
2, 25068, Note_off_c, 0, 77, 64
2, 25080, Note_on_c, 0, 79, 107
2, 25128, Note_off_c, 0, 79, 64
2, 25140, Note_on_c, 0, 76, 107
2, 25152, Note_off_c, 0, 76, 64
2, 25188, Note_off_c, 0, 76, 64
2, 25200, Note_on_c, 0, 79, 107
2, 25200, Note_on_c, 0, 69, 107
2, 25212, Note_off_c, 0, 79, 64
2, 25215, Note_on_c, 0, 77, 107
2, 25227, Note_off_c, 0, 77, 64
2, 25230, Note_on_c, 0, 79, 107
2, 25242, Note_off_c, 0, 79, 64
2, 25245, Note_on_c, 0, 77, 107
2, 25392, Note_off_c, 0, 69, 64
2, 25404, Note_off_c, 0, 77, 64
2, 25440, Note_on_c, 0, 67, 107
2, 25440, Note_on_c, 0, 76, 107
2, 25536, Note_off_c, 0, 76, 64
2, 25560, Note_on_c, 0, 77, 107
2, 25632, Note_off_c, 0, 67, 64
2, 25656, Note_off_c, 0, 77, 64
2, 25680, Note_on_c, 0, 74, 107
2, 25680, Note_on_c, 0, 65, 107
2, 25872, Note_off_c, 0, 65, 64
2, 25872, Note_off_c, 0, 74, 64
2, 25920, Note_on_c, 0, 78, 107
2, 25920, Note_on_c, 0, 74, 107
2, 25920, Note_on_c, 0, 69, 107
2, 26064, Note_off_c, 0, 78, 64
2, 26100, Note_on_c, 0, 81, 107
2, 26112, Note_off_c, 0, 69, 64
2, 26112, Note_off_c, 0, 74, 64
2, 26124, Note_off_c, 0, 81, 64
2, 26130, Note_on_c, 0, 79, 107
2, 26154, Note_off_c, 0, 79, 64
2, 26160, Note_on_c, 0, 67, 107
2, 26160, Note_on_c, 0, 74, 107
2, 26160, Note_on_c, 0, 79, 107
2, 26544, Note_off_c, 0, 79, 64
2, 26544, Note_off_c, 0, 74, 64
2, 26544, Note_off_c, 0, 67, 64
2, 26640, Note_on_c, 0, 75, 107
2, 26640, Note_on_c, 0, 69, 107
2, 26688, Note_off_c, 0, 75, 64
2, 26700, Note_on_c, 0, 72, 107
2, 26748, Note_off_c, 0, 72, 64
2, 26760, Note_on_c, 0, 74, 107
2, 26832, Note_off_c, 0, 69, 64
2, 26856, Note_off_c, 0, 74, 64
2, 26880, Note_on_c, 0, 68, 107
2, 26880, Note_on_c, 0, 75, 107
2, 26892, Note_off_c, 0, 75, 64
2, 26895, Note_on_c, 0, 74, 107
2, 26907, Note_off_c, 0, 74, 64
2, 26910, Note_on_c, 0, 75, 107
2, 26922, Note_off_c, 0, 75, 64
2, 26925, Note_on_c, 0, 74, 107
2, 27192, Note_off_c, 0, 74, 64
2, 27240, Note_on_c, 0, 74, 107
2, 27264, Note_off_c, 0, 68, 64
2, 27336, Note_off_c, 0, 74, 64
2, 27360, Note_on_c, 0, 67, 107
2, 27360, Note_on_c, 0, 79, 107
2, 27504, Note_off_c, 0, 79, 64
2, 27540, Note_on_c, 0, 81, 107
2, 27552, Note_off_c, 0, 67, 64
2, 27588, Note_off_c, 0, 81, 64
2, 27600, Note_on_c, 0, 82, 107
2, 27600, Note_on_c, 0, 75, 107
2, 27600, Note_on_c, 0, 79, 107
2, 27612, Note_off_c, 0, 82, 64
2, 27615, Note_on_c, 0, 81, 107
2, 27627, Note_off_c, 0, 81, 64
2, 27630, Note_on_c, 0, 82, 107
2, 27642, Note_off_c, 0, 82, 64
2, 27645, Note_on_c, 0, 81, 107
2, 27792, Note_off_c, 0, 79, 64
2, 27792, Note_off_c, 0, 75, 64
2, 27840, Note_on_c, 0, 74, 107
2, 27840, Note_on_c, 0, 78, 107
2, 27912, Note_off_c, 0, 81, 64
2, 27960, Note_on_c, 0, 79, 107
2, 28032, Note_off_c, 0, 78, 64
2, 28032, Note_off_c, 0, 74, 64
2, 28073, Note_off_c, 0, 79, 64
2, 28080, Note_on_c, 0, 79, 107
2, 28080, Note_on_c, 0, 74, 107
2, 28272, Note_off_c, 0, 74, 64
2, 28272, Note_off_c, 0, 79, 64
2, 28320, Note_on_c, 0, 74, 107
2, 28320, Note_on_c, 0, 67, 107
2, 28320, Note_on_c, 0, 79, 107
2, 28704, Note_off_c, 0, 79, 64
2, 28704, Note_off_c, 0, 67, 64
2, 28704, Note_off_c, 0, 74, 64
2, 28800, Note_on_c, 0, 71, 107
2, 28800, Note_on_c, 0, 67, 107
2, 28944, Note_off_c, 0, 71, 64
2, 28980, Note_on_c, 0, 74, 107
2, 28992, Note_off_c, 0, 67, 64
2, 29004, Note_off_c, 0, 74, 64
2, 29010, Note_on_c, 0, 72, 107
2, 29034, Note_off_c, 0, 72, 64
2, 29040, Note_on_c, 0, 72, 107
2, 29040, Note_on_c, 0, 67, 107
2, 29328, Note_off_c, 0, 72, 64
2, 29400, Note_on_c, 0, 72, 107
2, 29424, Note_off_c, 0, 67, 64
2, 29496, Note_off_c, 0, 72, 64
2, 29520, Note_on_c, 0, 65, 107
2, 29520, Note_on_c, 0, 69, 107
2, 29520, Note_on_c, 0, 77, 107
2, 29616, Note_off_c, 0, 77, 64
2, 29640, Note_on_c, 0, 69, 107
2, 29712, Note_off_c, 0, 69, 64
2, 29712, Note_off_c, 0, 65, 64
2, 29736, Note_off_c, 0, 69, 64
2, 29760, Note_on_c, 0, 70, 107
2, 29760, Note_on_c, 0, 65, 107
2, 30048, Note_off_c, 0, 70, 64
2, 30120, Note_on_c, 0, 72, 107
2, 30144, Note_off_c, 0, 65, 64
2, 30168, Note_off_c, 0, 72, 64
2, 30180, Note_on_c, 0, 74, 107
2, 30228, Note_off_c, 0, 74, 64
2, 30240, Note_on_c, 0, 72, 107
2, 30240, Note_on_c, 0, 67, 107
2, 30240, Note_on_c, 0, 75, 107
2, 30336, Note_off_c, 0, 75, 64
2, 30360, Note_on_c, 0, 79, 107
2, 30432, Note_off_c, 0, 67, 64
2, 30432, Note_off_c, 0, 72, 64
2, 30456, Note_off_c, 0, 79, 64
2, 30480, Note_on_c, 0, 77, 107
2, 30480, Note_on_c, 0, 72, 107
2, 30576, Note_off_c, 0, 77, 64
2, 30600, Note_on_c, 0, 75, 107
2, 30672, Note_off_c, 0, 72, 64
2, 30696, Note_off_c, 0, 75, 64
2, 30720, Note_on_c, 0, 65, 107
2, 30720, Note_on_c, 0, 74, 107
2, 30720, Note_on_c, 0, 72, 107
2, 30816, Note_off_c, 0, 74, 64
2, 30840, Note_on_c, 0, 75, 107
2, 30912, Note_off_c, 0, 72, 64
2, 30912, Note_off_c, 0, 65, 64
2, 30936, Note_off_c, 0, 75, 64
2, 30960, Note_on_c, 0, 70, 107
2, 30960, Note_on_c, 0, 74, 107
2, 30960, Note_on_c, 0, 65, 107
2, 31152, Note_off_c, 0, 65, 64
2, 31152, Note_off_c, 0, 74, 64
2, 31152, Note_off_c, 0, 70, 64
2, 31200, Note_on_c, 0, 72, 107
2, 31200, Note_on_c, 0, 63, 107
2, 31296, Note_off_c, 0, 72, 64
2, 31320, Note_on_c, 0, 74, 107
2, 31392, Note_off_c, 0, 63, 64
2, 31416, Note_off_c, 0, 74, 64
2, 31440, Note_on_c, 0, 70, 107
2, 31440, Note_on_c, 0, 62, 107
2, 31632, Note_off_c, 0, 62, 64
2, 31632, Note_off_c, 0, 70, 64
2, 31680, Note_on_c, 0, 65, 107
2, 31680, Note_on_c, 0, 62, 107
2, 31680, Note_on_c, 0, 67, 107
2, 31776, Note_off_c, 0, 67, 64
2, 31800, Note_on_c, 0, 69, 107
2, 31848, Note_off_c, 0, 69, 64
2, 31860, Note_on_c, 0, 67, 107
2, 31872, Note_off_c, 0, 62, 64
2, 31872, Note_off_c, 0, 65, 64
2, 31908, Note_off_c, 0, 67, 64
2, 31920, Note_on_c, 0, 67, 107
2, 31920, Note_on_c, 0, 65, 107
2, 31920, Note_on_c, 0, 62, 107
2, 32112, Note_off_c, 0, 62, 64
2, 32112, Note_off_c, 0, 65, 64
2, 32160, Note_on_c, 0, 65, 107
2, 32160, Note_on_c, 0, 60, 107
2, 32172, Note_off_c, 0, 65, 64
2, 32175, Note_on_c, 0, 64, 107
2, 32187, Note_off_c, 0, 64, 64
2, 32190, Note_on_c, 0, 65, 107
2, 32202, Note_off_c, 0, 65, 64
2, 32205, Note_on_c, 0, 64, 107
2, 32304, Note_off_c, 0, 67, 64
2, 32352, Note_off_c, 0, 60, 64
2, 32364, Note_off_c, 0, 64, 64
2, 32400, Note_on_c, 0, 65, 107
2, 32400, Note_on_c, 0, 67, 107
2, 32496, Note_off_c, 0, 67, 64
2, 32520, Note_on_c, 0, 68, 107
2, 32568, Note_off_c, 0, 68, 64
2, 32580, Note_on_c, 0, 67, 107
2, 32592, Note_off_c, 0, 65, 64
2, 32628, Note_off_c, 0, 67, 64
2, 32640, Note_on_c, 0, 72, 107
2, 32640, Note_on_c, 0, 65, 107
2, 32655, Note_off_c, 0, 72, 64
2, 32655, Note_on_c, 0, 71, 107
2, 32670, Note_off_c, 0, 71, 64
2, 32670, Note_on_c, 0, 72, 107
2, 32685, Note_off_c, 0, 72, 64
2, 32685, Note_on_c, 0, 71, 107
2, 32952, Note_off_c, 0, 71, 64
2, 33000, Note_on_c, 0, 69, 107
2, 33024, Note_off_c, 0, 65, 64
2, 33048, Note_off_c, 0, 69, 64
2, 33060, Note_on_c, 0, 71, 107
2, 33108, Note_off_c, 0, 71, 64
2, 33120, Note_on_c, 0, 60, 107
2, 33120, Note_on_c, 0, 67, 107
2, 33120, Note_on_c, 0, 72, 107
2, 33216, Note_off_c, 0, 72, 64
2, 33216, Note_off_c, 0, 67, 64
2, 33216, Note_off_c, 0, 60, 64
2, 33240, Note_on_c, 0, 60, 107
2, 33240, Note_on_c, 0, 60, 107
2, 33336, Note_off_c, 0, 60, 64
2, 33336, Note_off_c, 0, 60, 64
2, 33360, Note_on_c, 0, 60, 107
2, 33360, Note_on_c, 0, 65, 107
2, 33456, Note_off_c, 0, 65, 64
2, 33456, Note_off_c, 0, 60, 64
2, 33480, Note_on_c, 0, 65, 107
2, 33480, Note_on_c, 0, 62, 107
2, 33480, Note_on_c, 0, 70, 107
2, 33576, Note_off_c, 0, 70, 64
2, 33576, Note_off_c, 0, 62, 64
2, 33576, Note_off_c, 0, 65, 64
2, 33600, Note_on_c, 0, 69, 107
2, 33600, Note_on_c, 0, 60, 107
2, 33600, Note_on_c, 0, 65, 107
2, 33696, Note_off_c, 0, 65, 64
2, 33696, Note_off_c, 0, 60, 64
2, 33696, Note_off_c, 0, 69, 64
2, 33720, Note_on_c, 0, 67, 107
2, 33720, Note_on_c, 0, 58, 107
2, 33720, Note_on_c, 0, 64, 107
2, 33816, Note_off_c, 0, 64, 64
2, 33816, Note_off_c, 0, 58, 64
2, 33816, Note_off_c, 0, 67, 64
2, 33840, Note_on_c, 0, 65, 107
2, 33840, Note_on_c, 0, 58, 107
2, 33840, Note_on_c, 0, 60, 107
2, 33936, Note_off_c, 0, 65, 64
2, 33960, Note_on_c, 0, 64, 107
2, 34032, Note_off_c, 0, 60, 64
2, 34032, Note_off_c, 0, 58, 64
2, 34056, Note_off_c, 0, 64, 64
2, 34080, Note_on_c, 0, 60, 107
2, 34080, Note_on_c, 0, 57, 107
2, 34080, Note_on_c, 0, 65, 107
2, 34464, Note_off_c, 0, 65, 64
2, 34464, Note_off_c, 0, 57, 64
2, 34464, Note_off_c, 0, 60, 64
2, 34464, End_track
3, 0, Start_track
3, 0, Title_t, "J.S. Bach, Edition Kalmus"
3, 0, Program_c, 1, 0
3, 0, Note_on_c, 1, 60, 107
3, 0, Note_on_c, 1, 53, 107
3, 192, Note_off_c, 1, 53, 64
3, 192, Note_off_c, 1, 60, 64
3, 240, Note_on_c, 1, 60, 107
3, 240, Note_on_c, 1, 53, 107
3, 624, Note_off_c, 1, 53, 64
3, 624, Note_off_c, 1, 60, 64
3, 720, Note_on_c, 1, 58, 107
3, 720, Note_on_c, 1, 46, 107
3, 912, Note_off_c, 1, 46, 64
3, 912, Note_off_c, 1, 58, 64
3, 960, Note_on_c, 1, 58, 107
3, 960, Note_on_c, 1, 46, 107
3, 1344, Note_off_c, 1, 46, 64
3, 1344, Note_off_c, 1, 58, 64
3, 1440, Note_on_c, 1, 60, 107
3, 1440, Note_on_c, 1, 58, 107
3, 1632, Note_off_c, 1, 58, 64
3, 1632, Note_off_c, 1, 60, 64
3, 1680, Note_on_c, 1, 60, 107
3, 1680, Note_on_c, 1, 57, 107
3, 1872, Note_off_c, 1, 57, 64
3, 1872, Note_off_c, 1, 60, 64
3, 1920, Note_on_c, 1, 55, 107
3, 1920, Note_on_c, 1, 60, 107
3, 2112, Note_off_c, 1, 60, 64
3, 2112, Note_off_c, 1, 55, 64
3, 2160, Note_on_c, 1, 53, 107
3, 2160, Note_on_c, 1, 60, 107
3, 2352, Note_off_c, 1, 60, 64
3, 2352, Note_off_c, 1, 53, 64
3, 2400, Note_on_c, 1, 48, 107
3, 2400, Note_on_c, 1, 58, 107
3, 2592, Note_off_c, 1, 58, 64
3, 2592, Note_off_c, 1, 48, 64
3, 2640, Note_on_c, 1, 60, 107
3, 2640, Note_on_c, 1, 41, 107
3, 2832, Note_off_c, 1, 41, 64
3, 2832, Note_off_c, 1, 60, 64
3, 2880, Note_on_c, 1, 60, 107
3, 2880, Note_on_c, 1, 53, 107
3, 3024, Note_off_c, 1, 53, 64
3, 3060, Note_on_c, 1, 56, 107
3, 3072, Note_off_c, 1, 60, 64
3, 3084, Note_off_c, 1, 56, 64
3, 3090, Note_on_c, 1, 55, 107
3, 3114, Note_off_c, 1, 55, 64
3, 3120, Note_on_c, 1, 62, 107
3, 3120, Note_on_c, 1, 56, 107
3, 3504, Note_off_c, 1, 56, 64
3, 3504, Note_off_c, 1, 62, 64
3, 3600, Note_on_c, 1, 47, 107
3, 3600, Note_on_c, 1, 55, 107
3, 3696, Note_off_c, 1, 47, 64
3, 3720, Note_on_c, 1, 45, 107
3, 3792, Note_off_c, 1, 55, 64
3, 3816, Note_off_c, 1, 45, 64
3, 3840, Note_on_c, 1, 47, 107
3, 3840, Note_on_c, 1, 55, 107
3, 4128, Note_off_c, 1, 47, 64
3, 4200, Note_on_c, 1, 48, 107
3, 4224, Note_off_c, 1, 55, 64
3, 4248, Note_off_c, 1, 48, 64
3, 4260, Note_on_c, 1, 50, 107
3, 4308, Note_off_c, 1, 50, 64
3, 4320, Note_on_c, 1, 55, 107
3, 4320, Note_on_c, 1, 52, 107
3, 4416, Note_off_c, 1, 52, 64
3, 4416, Note_off_c, 1, 55, 64
3, 4440, Note_on_c, 1, 57, 107
3, 4440, Note_on_c, 1, 53, 107
3, 4536, Note_off_c, 1, 53, 64
3, 4536, Note_off_c, 1, 57, 64
3, 4560, Note_on_c, 1, 57, 107
3, 4560, Note_on_c, 1, 53, 107
3, 4656, Note_off_c, 1, 53, 64
3, 4656, Note_off_c, 1, 57, 64
3, 4680, Note_on_c, 1, 55, 107
3, 4680, Note_on_c, 1, 55, 107
3, 4776, Note_off_c, 1, 55, 64
3, 4776, Note_off_c, 1, 55, 64
3, 4800, Note_on_c, 1, 55, 107
3, 4800, Note_on_c, 1, 55, 107
3, 4896, Note_off_c, 1, 55, 64
3, 4920, Note_on_c, 1, 43, 107
3, 4992, Note_off_c, 1, 55, 64
3, 5016, Note_off_c, 1, 43, 64
3, 5040, Note_on_c, 1, 55, 107
3, 5040, Note_on_c, 1, 48, 107
3, 5232, Note_off_c, 1, 48, 64
3, 5232, Note_off_c, 1, 55, 64
3, 5280, Note_on_c, 1, 48, 107
3, 5280, Note_on_c, 1, 36, 107
3, 5664, Note_off_c, 1, 48, 64
3, 5760, Note_on_c, 1, 60, 107
3, 5760, Note_on_c, 1, 53, 107
3, 5952, Note_off_c, 1, 53, 64
3, 5952, Note_off_c, 1, 60, 64
3, 6000, Note_on_c, 1, 60, 107
3, 6000, Note_on_c, 1, 53, 107
3, 6048, Note_off_c, 1, 36, 64
3, 6384, Note_off_c, 1, 53, 64
3, 6384, Note_off_c, 1, 60, 64
3, 6480, Note_on_c, 1, 58, 107
3, 6480, Note_on_c, 1, 46, 107
3, 6672, Note_off_c, 1, 46, 64
3, 6672, Note_off_c, 1, 58, 64
3, 6720, Note_on_c, 1, 58, 107
3, 6720, Note_on_c, 1, 46, 107
3, 7104, Note_off_c, 1, 46, 64
3, 7104, Note_off_c, 1, 58, 64
3, 7200, Note_on_c, 1, 60, 107
3, 7200, Note_on_c, 1, 58, 107
3, 7392, Note_off_c, 1, 58, 64
3, 7392, Note_off_c, 1, 60, 64
3, 7440, Note_on_c, 1, 60, 107
3, 7440, Note_on_c, 1, 57, 107
3, 7632, Note_off_c, 1, 57, 64
3, 7632, Note_off_c, 1, 60, 64
3, 7680, Note_on_c, 1, 55, 107
3, 7680, Note_on_c, 1, 60, 107
3, 7872, Note_off_c, 1, 60, 64
3, 7872, Note_off_c, 1, 55, 64
3, 7920, Note_on_c, 1, 53, 107
3, 7920, Note_on_c, 1, 60, 107
3, 8112, Note_off_c, 1, 60, 64
3, 8112, Note_off_c, 1, 53, 64
3, 8160, Note_on_c, 1, 48, 107
3, 8160, Note_on_c, 1, 58, 107
3, 8352, Note_off_c, 1, 58, 64
3, 8352, Note_off_c, 1, 48, 64
3, 8400, Note_on_c, 1, 60, 107
3, 8400, Note_on_c, 1, 41, 107
3, 8592, Note_off_c, 1, 41, 64
3, 8592, Note_off_c, 1, 60, 64
3, 8640, Note_on_c, 1, 60, 107
3, 8640, Note_on_c, 1, 53, 107
3, 8784, Note_off_c, 1, 53, 64
3, 8820, Note_on_c, 1, 56, 107
3, 8832, Note_off_c, 1, 60, 64
3, 8844, Note_off_c, 1, 56, 64
3, 8850, Note_on_c, 1, 55, 107
3, 8874, Note_off_c, 1, 55, 64
3, 8880, Note_on_c, 1, 62, 107
3, 8880, Note_on_c, 1, 56, 107
3, 9264, Note_off_c, 1, 56, 64
3, 9264, Note_off_c, 1, 62, 64
3, 9360, Note_on_c, 1, 47, 107
3, 9360, Note_on_c, 1, 55, 107
3, 9456, Note_off_c, 1, 47, 64
3, 9480, Note_on_c, 1, 45, 107
3, 9552, Note_off_c, 1, 55, 64
3, 9576, Note_off_c, 1, 45, 64
3, 9600, Note_on_c, 1, 47, 107
3, 9600, Note_on_c, 1, 55, 107
3, 9888, Note_off_c, 1, 47, 64
3, 9960, Note_on_c, 1, 48, 107
3, 9984, Note_off_c, 1, 55, 64
3, 10008, Note_off_c, 1, 48, 64
3, 10020, Note_on_c, 1, 50, 107
3, 10068, Note_off_c, 1, 50, 64
3, 10080, Note_on_c, 1, 55, 107
3, 10080, Note_on_c, 1, 52, 107
3, 10176, Note_off_c, 1, 52, 64
3, 10176, Note_off_c, 1, 55, 64
3, 10200, Note_on_c, 1, 57, 107
3, 10200, Note_on_c, 1, 53, 107
3, 10296, Note_off_c, 1, 53, 64
3, 10296, Note_off_c, 1, 57, 64
3, 10320, Note_on_c, 1, 57, 107
3, 10320, Note_on_c, 1, 53, 107
3, 10416, Note_off_c, 1, 53, 64
3, 10416, Note_off_c, 1, 57, 64
3, 10440, Note_on_c, 1, 55, 107
3, 10440, Note_on_c, 1, 55, 107
3, 10536, Note_off_c, 1, 55, 64
3, 10536, Note_off_c, 1, 55, 64
3, 10560, Note_on_c, 1, 55, 107
3, 10560, Note_on_c, 1, 55, 107
3, 10656, Note_off_c, 1, 55, 64
3, 10680, Note_on_c, 1, 43, 107
3, 10752, Note_off_c, 1, 55, 64
3, 10776, Note_off_c, 1, 43, 64
3, 10800, Note_on_c, 1, 55, 107
3, 10800, Note_on_c, 1, 48, 107
3, 10992, Note_off_c, 1, 48, 64
3, 10992, Note_off_c, 1, 55, 64
3, 11040, Note_on_c, 1, 48, 107
3, 11040, Note_on_c, 1, 36, 107
3, 11424, Note_off_c, 1, 48, 64
3, 11520, Note_on_c, 1, 67, 107
3, 11520, Note_on_c, 1, 60, 107
3, 11712, Note_off_c, 1, 60, 64
3, 11712, Note_off_c, 1, 67, 64
3, 11760, Note_on_c, 1, 58, 107
3, 11760, Note_on_c, 1, 67, 107
3, 11808, Note_off_c, 1, 36, 64
3, 12144, Note_off_c, 1, 67, 64
3, 12144, Note_off_c, 1, 58, 64
3, 12240, Note_on_c, 1, 61, 107
3, 12240, Note_on_c, 1, 57, 107
3, 12240, Note_on_c, 1, 64, 107
3, 12432, Note_off_c, 1, 64, 64
3, 12432, Note_off_c, 1, 57, 64
3, 12432, Note_off_c, 1, 61, 64
3, 12480, Note_on_c, 1, 64, 107
3, 12480, Note_on_c, 1, 55, 107
3, 13185, Note_off_c, 1, 55, 64
3, 13185, Note_off_c, 1, 64, 64
3, 13200, Note_on_c, 1, 53, 107
3, 13200, Note_on_c, 1, 65, 107
3, 13425, Note_off_c, 1, 65, 64
3, 13425, Note_off_c, 1, 53, 64
3, 13440, Note_on_c, 1, 52, 107
3, 13440, Note_on_c, 1, 61, 107
3, 13632, Note_off_c, 1, 61, 64
3, 13632, Note_off_c, 1, 52, 64
3, 13680, Note_on_c, 1, 50, 107
3, 13680, Note_on_c, 1, 62, 107
3, 13872, Note_off_c, 1, 62, 64
3, 13872, Note_off_c, 1, 50, 64
3, 13920, Note_on_c, 1, 61, 107
3, 13920, Note_on_c, 1, 57, 107
3, 14112, Note_off_c, 1, 57, 64
3, 14112, Note_off_c, 1, 61, 64
3, 14160, Note_on_c, 1, 62, 107
3, 14352, Note_off_c, 1, 62, 64
3, 14400, Note_on_c, 1, 62, 107
3, 14400, Note_on_c, 1, 60, 107
3, 14592, Note_off_c, 1, 60, 64
3, 14592, Note_off_c, 1, 62, 64
3, 14640, Note_on_c, 1, 58, 107
3, 14640, Note_on_c, 1, 62, 107
3, 15024, Note_off_c, 1, 62, 64
3, 15024, Note_off_c, 1, 58, 64
3, 15120, Note_on_c, 1, 54, 107
3, 15120, Note_on_c, 1, 60, 107
3, 15312, Note_off_c, 1, 60, 64
3, 15312, Note_off_c, 1, 54, 64
3, 15360, Note_on_c, 1, 53, 107
3, 15360, Note_on_c, 1, 59, 107
3, 15744, Note_off_c, 1, 59, 64
3, 15744, Note_off_c, 1, 53, 64
3, 15840, Note_on_c, 1, 60, 107
3, 15840, Note_on_c, 1, 51, 107
3, 16032, Note_off_c, 1, 51, 64
3, 16032, Note_off_c, 1, 60, 64
3, 16080, Note_on_c, 1, 48, 107
3, 16080, Note_on_c, 1, 60, 107
3, 16272, Note_off_c, 1, 48, 64
3, 16320, Note_on_c, 1, 50, 107
3, 16512, Note_off_c, 1, 50, 64
3, 16560, Note_on_c, 1, 55, 107
3, 16656, Note_off_c, 1, 60, 64
3, 16680, Note_on_c, 1, 57, 107
3, 16752, Note_off_c, 1, 55, 64
3, 16776, Note_off_c, 1, 57, 64
3, 16800, Note_on_c, 1, 58, 107
3, 16800, Note_on_c, 1, 55, 107
3, 17184, Note_off_c, 1, 55, 64
3, 17184, Note_off_c, 1, 58, 64
3, 17280, Note_on_c, 1, 62, 107
3, 17280, Note_on_c, 1, 53, 107
3, 17280, Note_on_c, 1, 55, 107
3, 17472, Note_off_c, 1, 55, 64
3, 17472, Note_off_c, 1, 53, 64
3, 17472, Note_off_c, 1, 62, 64
3, 17520, Note_on_c, 1, 52, 107
3, 17520, Note_on_c, 1, 55, 107
3, 17520, Note_on_c, 1, 60, 107
3, 17904, Note_off_c, 1, 60, 64
3, 17904, Note_off_c, 1, 55, 64
3, 17904, Note_off_c, 1, 52, 64
3, 18000, Note_on_c, 1, 60, 107
3, 18000, Note_on_c, 1, 51, 107
3, 18192, Note_off_c, 1, 51, 64
3, 18192, Note_off_c, 1, 60, 64
3, 18240, Note_on_c, 1, 58, 107
3, 18240, Note_on_c, 1, 50, 107
3, 18624, Note_off_c, 1, 50, 64
3, 18624, Note_off_c, 1, 58, 64
3, 18720, Note_on_c, 1, 48, 107
3, 18720, Note_on_c, 1, 58, 107
3, 18912, Note_off_c, 1, 58, 64
3, 18912, Note_off_c, 1, 48, 64
3, 18960, Note_on_c, 1, 53, 107
3, 18960, Note_on_c, 1, 56, 107
3, 18960, Note_on_c, 1, 60, 107
3, 19152, Note_off_c, 1, 60, 64
3, 19152, Note_off_c, 1, 56, 64
3, 19152, Note_off_c, 1, 53, 64
3, 19200, Note_on_c, 1, 57, 107
3, 19200, Note_on_c, 1, 53, 107
3, 19392, Note_off_c, 1, 53, 64
3, 19392, Note_off_c, 1, 57, 64
3, 19440, Note_on_c, 1, 58, 107
3, 19440, Note_on_c, 1, 58, 107
3, 19632, Note_off_c, 1, 58, 64
3, 19632, Note_off_c, 1, 58, 64
3, 19680, Note_on_c, 1, 57, 107
3, 19680, Note_on_c, 1, 53, 107
3, 19872, Note_off_c, 1, 53, 64
3, 19872, Note_off_c, 1, 57, 64
3, 19920, Note_on_c, 1, 58, 107
3, 19920, Note_on_c, 1, 46, 107
3, 20112, Note_off_c, 1, 46, 64
3, 20112, Note_off_c, 1, 58, 64
3, 20160, Note_on_c, 1, 47, 107
3, 20352, Note_off_c, 1, 47, 64
3, 20400, Note_on_c, 1, 48, 107
3, 20784, Note_off_c, 1, 48, 64
3, 20880, Note_on_c, 1, 58, 107
3, 20880, Note_on_c, 1, 49, 107
3, 21072, Note_off_c, 1, 49, 64
3, 21072, Note_off_c, 1, 58, 64
3, 21120, Note_on_c, 1, 50, 107
3, 21120, Note_on_c, 1, 56, 107
3, 21372, Note_off_c, 1, 56, 64
3, 21375, Note_on_c, 1, 55, 107
3, 21387, Note_off_c, 1, 55, 64
3, 21390, Note_on_c, 1, 56, 107
3, 21402, Note_off_c, 1, 56, 64
3, 21405, Note_on_c, 1, 55, 107
3, 21468, Note_off_c, 1, 55, 64
3, 21480, Note_on_c, 1, 53, 107
3, 21504, Note_off_c, 1, 50, 64
3, 21576, Note_off_c, 1, 53, 64
3, 21600, Note_on_c, 1, 52, 107
3, 21600, Note_on_c, 1, 55, 107
3, 21696, Note_off_c, 1, 55, 64
3, 21696, Note_off_c, 1, 52, 64
3, 21720, Note_on_c, 1, 53, 107
3, 21720, Note_on_c, 1, 57, 107
3, 21816, Note_off_c, 1, 57, 64
3, 21816, Note_off_c, 1, 53, 64
3, 21840, Note_on_c, 1, 45, 107
3, 21840, Note_on_c, 1, 57, 107
3, 21936, Note_off_c, 1, 57, 64
3, 21936, Note_off_c, 1, 45, 64
3, 21960, Note_on_c, 1, 46, 107
3, 21960, Note_on_c, 1, 53, 107
3, 22056, Note_off_c, 1, 53, 64
3, 22056, Note_off_c, 1, 46, 64
3, 22080, Note_on_c, 1, 48, 107
3, 22080, Note_on_c, 1, 48, 107
3, 22176, Note_off_c, 1, 48, 64
3, 22176, Note_off_c, 1, 48, 64
3, 22200, Note_on_c, 1, 48, 107
3, 22200, Note_on_c, 1, 36, 107
3, 22296, Note_off_c, 1, 36, 64
3, 22296, Note_off_c, 1, 48, 64
3, 22320, Note_on_c, 1, 48, 107
3, 22320, Note_on_c, 1, 41, 107
3, 22512, Note_off_c, 1, 41, 64
3, 22512, Note_off_c, 1, 48, 64
3, 22560, Note_on_c, 1, 53, 107
3, 22560, Note_on_c, 1, 41, 107
3, 22944, Note_off_c, 1, 41, 64
3, 22944, Note_off_c, 1, 53, 64
3, 23040, Note_on_c, 1, 67, 107
3, 23040, Note_on_c, 1, 60, 107
3, 23232, Note_off_c, 1, 60, 64
3, 23232, Note_off_c, 1, 67, 64
3, 23280, Note_on_c, 1, 58, 107
3, 23280, Note_on_c, 1, 67, 107
3, 23664, Note_off_c, 1, 67, 64
3, 23664, Note_off_c, 1, 58, 64
3, 23760, Note_on_c, 1, 61, 107
3, 23760, Note_on_c, 1, 57, 107
3, 23760, Note_on_c, 1, 64, 107
3, 23952, Note_off_c, 1, 64, 64
3, 23952, Note_off_c, 1, 57, 64
3, 23952, Note_off_c, 1, 61, 64
3, 24000, Note_on_c, 1, 64, 107
3, 24000, Note_on_c, 1, 55, 107
3, 24705, Note_off_c, 1, 55, 64
3, 24705, Note_off_c, 1, 64, 64
3, 24720, Note_on_c, 1, 53, 107
3, 24720, Note_on_c, 1, 65, 107
3, 24945, Note_off_c, 1, 65, 64
3, 24945, Note_off_c, 1, 53, 64
3, 24960, Note_on_c, 1, 52, 107
3, 24960, Note_on_c, 1, 61, 107
3, 25152, Note_off_c, 1, 61, 64
3, 25152, Note_off_c, 1, 52, 64
3, 25200, Note_on_c, 1, 50, 107
3, 25200, Note_on_c, 1, 62, 107
3, 25392, Note_off_c, 1, 62, 64
3, 25392, Note_off_c, 1, 50, 64
3, 25440, Note_on_c, 1, 61, 107
3, 25440, Note_on_c, 1, 57, 107
3, 25632, Note_off_c, 1, 57, 64
3, 25632, Note_off_c, 1, 61, 64
3, 25680, Note_on_c, 1, 62, 107
3, 25872, Note_off_c, 1, 62, 64
3, 25920, Note_on_c, 1, 62, 107
3, 25920, Note_on_c, 1, 60, 107
3, 26112, Note_off_c, 1, 60, 64
3, 26112, Note_off_c, 1, 62, 64
3, 26160, Note_on_c, 1, 58, 107
3, 26160, Note_on_c, 1, 62, 107
3, 26544, Note_off_c, 1, 62, 64
3, 26544, Note_off_c, 1, 58, 64
3, 26640, Note_on_c, 1, 54, 107
3, 26640, Note_on_c, 1, 60, 107
3, 26832, Note_off_c, 1, 60, 64
3, 26832, Note_off_c, 1, 54, 64
3, 26880, Note_on_c, 1, 53, 107
3, 26880, Note_on_c, 1, 59, 107
3, 27264, Note_off_c, 1, 59, 64
3, 27264, Note_off_c, 1, 53, 64
3, 27360, Note_on_c, 1, 60, 107
3, 27360, Note_on_c, 1, 51, 107
3, 27552, Note_off_c, 1, 51, 64
3, 27552, Note_off_c, 1, 60, 64
3, 27600, Note_on_c, 1, 48, 107
3, 27600, Note_on_c, 1, 60, 107
3, 27792, Note_off_c, 1, 48, 64
3, 27840, Note_on_c, 1, 50, 107
3, 28032, Note_off_c, 1, 50, 64
3, 28080, Note_on_c, 1, 55, 107
3, 28176, Note_off_c, 1, 60, 64
3, 28200, Note_on_c, 1, 57, 107
3, 28272, Note_off_c, 1, 55, 64
3, 28296, Note_off_c, 1, 57, 64
3, 28320, Note_on_c, 1, 58, 107
3, 28320, Note_on_c, 1, 55, 107
3, 28704, Note_off_c, 1, 55, 64
3, 28704, Note_off_c, 1, 58, 64
3, 28800, Note_on_c, 1, 62, 107
3, 28800, Note_on_c, 1, 53, 107
3, 28800, Note_on_c, 1, 55, 107
3, 28992, Note_off_c, 1, 55, 64
3, 28992, Note_off_c, 1, 53, 64
3, 28992, Note_off_c, 1, 62, 64
3, 29040, Note_on_c, 1, 52, 107
3, 29040, Note_on_c, 1, 55, 107
3, 29040, Note_on_c, 1, 60, 107
3, 29424, Note_off_c, 1, 60, 64
3, 29424, Note_off_c, 1, 55, 64
3, 29424, Note_off_c, 1, 52, 64
3, 29520, Note_on_c, 1, 60, 107
3, 29520, Note_on_c, 1, 51, 107
3, 29712, Note_off_c, 1, 51, 64
3, 29712, Note_off_c, 1, 60, 64
3, 29760, Note_on_c, 1, 58, 107
3, 29760, Note_on_c, 1, 50, 107
3, 30144, Note_off_c, 1, 50, 64
3, 30144, Note_off_c, 1, 58, 64
3, 30240, Note_on_c, 1, 48, 107
3, 30240, Note_on_c, 1, 58, 107
3, 30432, Note_off_c, 1, 58, 64
3, 30432, Note_off_c, 1, 48, 64
3, 30480, Note_on_c, 1, 53, 107
3, 30480, Note_on_c, 1, 56, 107
3, 30480, Note_on_c, 1, 60, 107
3, 30672, Note_off_c, 1, 60, 64
3, 30672, Note_off_c, 1, 56, 64
3, 30672, Note_off_c, 1, 53, 64
3, 30720, Note_on_c, 1, 57, 107
3, 30720, Note_on_c, 1, 53, 107
3, 30912, Note_off_c, 1, 53, 64
3, 30912, Note_off_c, 1, 57, 64
3, 30960, Note_on_c, 1, 58, 107
3, 30960, Note_on_c, 1, 58, 107
3, 31152, Note_off_c, 1, 58, 64
3, 31152, Note_off_c, 1, 58, 64
3, 31200, Note_on_c, 1, 57, 107
3, 31200, Note_on_c, 1, 53, 107
3, 31392, Note_off_c, 1, 53, 64
3, 31392, Note_off_c, 1, 57, 64
3, 31440, Note_on_c, 1, 58, 107
3, 31440, Note_on_c, 1, 46, 107
3, 31632, Note_off_c, 1, 46, 64
3, 31632, Note_off_c, 1, 58, 64
3, 31680, Note_on_c, 1, 47, 107
3, 31872, Note_off_c, 1, 47, 64
3, 31920, Note_on_c, 1, 48, 107
3, 32304, Note_off_c, 1, 48, 64
3, 32400, Note_on_c, 1, 58, 107
3, 32400, Note_on_c, 1, 49, 107
3, 32592, Note_off_c, 1, 49, 64
3, 32592, Note_off_c, 1, 58, 64
3, 32640, Note_on_c, 1, 50, 107
3, 32640, Note_on_c, 1, 56, 107
3, 32892, Note_off_c, 1, 56, 64
3, 32895, Note_on_c, 1, 55, 107
3, 32907, Note_off_c, 1, 55, 64
3, 32910, Note_on_c, 1, 56, 107
3, 32922, Note_off_c, 1, 56, 64
3, 32925, Note_on_c, 1, 55, 107
3, 32988, Note_off_c, 1, 55, 64
3, 33000, Note_on_c, 1, 53, 107
3, 33024, Note_off_c, 1, 50, 64
3, 33096, Note_off_c, 1, 53, 64
3, 33120, Note_on_c, 1, 52, 107
3, 33120, Note_on_c, 1, 55, 107
3, 33216, Note_off_c, 1, 55, 64
3, 33216, Note_off_c, 1, 52, 64
3, 33240, Note_on_c, 1, 53, 107
3, 33240, Note_on_c, 1, 57, 107
3, 33336, Note_off_c, 1, 57, 64
3, 33336, Note_off_c, 1, 53, 64
3, 33360, Note_on_c, 1, 45, 107
3, 33360, Note_on_c, 1, 57, 107
3, 33456, Note_off_c, 1, 57, 64
3, 33456, Note_off_c, 1, 45, 64
3, 33480, Note_on_c, 1, 46, 107
3, 33480, Note_on_c, 1, 53, 107
3, 33576, Note_off_c, 1, 53, 64
3, 33576, Note_off_c, 1, 46, 64
3, 33600, Note_on_c, 1, 48, 107
3, 33600, Note_on_c, 1, 48, 107
3, 33696, Note_off_c, 1, 48, 64
3, 33696, Note_off_c, 1, 48, 64
3, 33720, Note_on_c, 1, 48, 107
3, 33720, Note_on_c, 1, 36, 107
3, 33816, Note_off_c, 1, 36, 64
3, 33816, Note_off_c, 1, 48, 64
3, 33840, Note_on_c, 1, 48, 107
3, 33840, Note_on_c, 1, 41, 107
3, 34032, Note_off_c, 1, 41, 64
3, 34032, Note_off_c, 1, 48, 64
3, 34080, Note_on_c, 1, 53, 107
3, 34080, Note_on_c, 1, 41, 107
3, 34464, Note_off_c, 1, 41, 64
3, 34464, Note_off_c, 1, 53, 64
3, 34464, End_track
4, 0, Start_track
4, 0, Title_t, "Arr. Gary Bricault, (c) 1997"
4, 0, End_track
0, 0, End_of_file
