0, 0, Header, 1, 3, 384
1, 0, Start_track
1, 0, Time_signature, 4, 2, 24, 8
1, 0, Tempo, 500000
1, 336384, End_track
2, 0, Start_track
2, 0, Text_t, "harpsichord: John Sankey"
2, 0, Program_c, 0, 6
2, 0, Pitch_bend_c, 0, 8192
2, 0, Program_c, 1, 6
2, 0, Pitch_bend_c, 1, 7792
2, 0, Program_c, 2, 6
2, 0, Pitch_bend_c, 2, 7876
2, 0, Program_c, 3, 6
2, 0, Pitch_bend_c, 3, 7952
2, 0, Program_c, 4, 6
2, 0, Pitch_bend_c, 4, 7792
2, 0, Program_c, 5, 6
2, 0, Pitch_bend_c, 5, 8112
2, 0, Program_c, 6, 6
2, 0, Pitch_bend_c, 6, 7712
2, 0, Program_c, 7, 6
2, 0, Pitch_bend_c, 7, 8037
2, 0, Program_c, 8, 6
2, 0, Pitch_bend_c, 8, 7872
2, 0, Program_c, 10, 6
2, 0, Pitch_bend_c, 10, 7712
2, 0, Program_c, 11, 6
2, 0, Pitch_bend_c, 11, 8032
2, 0, Program_c, 12, 6
2, 0, Pitch_bend_c, 12, 7872
2, 0, Title_t, "Ger.8l"
2, 65, Note_on_c, 2, 74, 127
2, 215, Note_off_c, 2, 74, 127
2, 247, Note_on_c, 2, 50, 127
2, 247, Note_on_c, 2, 74, 127
2, 429, Note_on_c, 10, 69, 127
2, 608, Note_off_c, 10, 69, 127
2, 612, Note_on_c, 11, 70, 127
2, 791, Note_off_c, 11, 70, 127
2, 793, Note_on_c, 7, 67, 127
2, 972, Note_off_c, 7, 67, 127
2, 976, Note_on_c, 10, 69, 127
2, 1005, Note_off_c, 2, 74, 127
2, 1157, Note_on_c, 5, 65, 127
2, 1336, Note_off_c, 5, 65, 127
2, 1340, Note_on_c, 4, 64, 127
2, 1519, Note_off_c, 4, 64, 127
2, 1522, Note_on_c, 2, 62, 127
2, 1696, Note_off_c, 10, 69, 127
2, 1701, Note_off_c, 2, 62, 127
2, 1704, Note_on_c, 1, 61, 127
2, 1887, Note_on_c, 11, 70, 127
2, 2068, Note_on_c, 4, 76, 127
2, 2247, Note_off_c, 4, 76, 127
2, 2251, Note_on_c, 7, 79, 127
2, 2417, Note_off_c, 11, 70, 127
2, 2432, Note_on_c, 10, 69, 127
2, 2611, Note_off_c, 7, 79, 127
2, 2615, Note_on_c, 7, 79, 127
2, 2794, Note_off_c, 7, 79, 127
2, 2796, Note_on_c, 5, 77, 127
2, 2975, Note_off_c, 5, 77, 127
2, 2979, Note_on_c, 4, 76, 127
2, 3158, Note_off_c, 4, 76, 127
2, 3158, Note_off_c, 1, 61, 127
2, 3162, Note_on_c, 2, 62, 127
2, 3162, Note_on_c, 7, 79, 127
2, 3341, Note_off_c, 7, 79, 127
2, 3343, Note_on_c, 5, 77, 127
2, 3377, Note_off_c, 2, 50, 127
2, 3522, Note_off_c, 5, 77, 127
2, 3524, Note_off_c, 2, 62, 127
2, 3526, Note_on_c, 10, 57, 127
2, 3526, Note_on_c, 4, 76, 127
2, 3705, Note_off_c, 4, 76, 127
2, 3707, Note_on_c, 2, 74, 127
2, 3876, Note_off_c, 10, 57, 127
2, 3886, Note_off_c, 2, 74, 127
2, 3886, Note_off_c, 10, 69, 127
2, 3890, Note_on_c, 2, 62, 127
2, 3890, Note_on_c, 5, 77, 127
2, 3978, Note_off_c, 2, 62, 127
2, 3981, Note_on_c, 0, 60, 127
2, 4069, Note_off_c, 0, 60, 127
2, 4071, Note_on_c, 2, 62, 127
2, 4071, Note_on_c, 10, 69, 127
2, 4250, Note_off_c, 10, 69, 127
2, 4254, Note_on_c, 11, 70, 127
2, 4433, Note_off_c, 11, 70, 127
2, 4437, Note_on_c, 5, 65, 127
2, 4610, Note_off_c, 5, 77, 127
2, 4616, Note_off_c, 5, 65, 127
2, 4618, Note_on_c, 7, 67, 127
2, 4709, Note_on_c, 11, 70, 127
2, 4735, Note_off_c, 2, 62, 127
2, 4801, Note_on_c, 2, 62, 127
2, 4801, Note_on_c, 4, 76, 127
2, 4980, Note_off_c, 2, 62, 127
2, 4982, Note_on_c, 0, 60, 127
2, 5161, Note_off_c, 0, 60, 127
2, 5163, Note_off_c, 4, 76, 127
2, 5165, Note_on_c, 11, 58, 127
2, 5165, Note_on_c, 4, 76, 127
2, 5258, Note_off_c, 11, 70, 127
2, 5277, Note_off_c, 7, 67, 127
2, 5335, Note_off_c, 4, 76, 127
2, 5344, Note_off_c, 11, 58, 127
2, 5346, Note_on_c, 4, 64, 127
2, 5346, Note_on_c, 0, 60, 127
2, 5346, Note_on_c, 10, 81, 127
2, 5525, Note_off_c, 10, 81, 127
2, 5529, Note_on_c, 4, 76, 127
2, 5708, Note_off_c, 4, 76, 127
2, 5708, Note_off_c, 0, 60, 127
2, 5708, Note_off_c, 4, 64, 127
2, 5710, Note_on_c, 10, 57, 127
2, 5710, Note_on_c, 5, 77, 127
2, 5710, Note_on_c, 10, 69, 127
2, 5889, Note_off_c, 5, 77, 127
2, 5893, Note_on_c, 1, 73, 127
2, 6072, Note_off_c, 1, 73, 127
2, 6072, Note_off_c, 10, 57, 127
2, 6076, Note_on_c, 11, 58, 127
2, 6076, Note_on_c, 2, 74, 127
2, 6202, Note_off_c, 10, 69, 127
2, 6257, Note_on_c, 10, 69, 127
2, 6436, Note_off_c, 10, 69, 127
2, 6438, Note_off_c, 11, 58, 127
2, 6440, Note_on_c, 10, 57, 127
2, 6440, Note_on_c, 11, 70, 127
2, 6619, Note_off_c, 11, 70, 127
2, 6621, Note_on_c, 5, 65, 127
2, 6800, Note_off_c, 5, 65, 127
2, 6802, Note_off_c, 10, 57, 127
2, 6804, Note_on_c, 11, 58, 127
2, 6804, Note_on_c, 7, 67, 127
2, 6967, Note_off_c, 2, 74, 127
2, 6985, Note_on_c, 5, 77, 127
2, 7164, Note_off_c, 5, 77, 127
2, 7166, Note_off_c, 11, 58, 127
2, 7168, Note_on_c, 7, 55, 127
2, 7168, Note_on_c, 4, 76, 127
2, 7347, Note_off_c, 4, 76, 127
2, 7350, Note_on_c, 7, 79, 127
2, 7529, Note_off_c, 7, 79, 127
2, 7530, Note_off_c, 7, 55, 127
2, 7532, Note_on_c, 10, 57, 127
2, 7532, Note_on_c, 2, 74, 127
2, 7711, Note_off_c, 2, 74, 127
2, 7715, Note_on_c, 1, 73, 127
2, 7885, Note_off_c, 1, 73, 127
2, 7894, Note_off_c, 10, 57, 127
2, 7896, Note_on_c, 7, 55, 127
2, 7896, Note_on_c, 12, 71, 127
2, 8075, Note_off_c, 12, 71, 127
2, 8079, Note_on_c, 10, 69, 127
2, 8207, Note_off_c, 7, 67, 127
2, 8220, Note_off_c, 10, 69, 127
2, 8258, Note_off_c, 7, 55, 127
2, 8260, Note_on_c, 6, 54, 127
2, 8260, Note_on_c, 0, 72, 127
2, 8443, Note_on_c, 7, 67, 127
2, 8622, Note_off_c, 7, 67, 127
2, 8622, Note_off_c, 6, 54, 127
2, 8625, Note_on_c, 2, 50, 127
2, 8625, Note_on_c, 10, 69, 127
2, 8804, Note_off_c, 10, 69, 127
2, 8807, Note_on_c, 6, 66, 127
2, 8986, Note_off_c, 6, 66, 127
2, 8987, Note_off_c, 2, 50, 127
2, 8990, Note_on_c, 7, 55, 127
2, 8990, Note_on_c, 7, 67, 127
2, 9169, Note_off_c, 0, 72, 127
2, 9171, Note_on_c, 11, 70, 127
2, 9350, Note_off_c, 7, 67, 127
2, 9352, Note_off_c, 7, 55, 127
2, 9354, Note_on_c, 7, 43, 127
2, 9354, Note_on_c, 2, 62, 127
2, 9533, Note_off_c, 2, 62, 127
2, 9535, Note_on_c, 5, 65, 127
2, 9685, Note_off_c, 7, 43, 127
2, 9714, Note_off_c, 5, 65, 127
2, 9718, Note_on_c, 7, 55, 127
2, 9718, Note_on_c, 3, 63, 127
2, 9806, Note_off_c, 7, 55, 127
2, 9809, Note_on_c, 6, 54, 127
2, 9897, Note_off_c, 6, 54, 127
2, 9897, Note_off_c, 3, 63, 127
2, 9900, Note_on_c, 7, 55, 127
2, 9900, Note_on_c, 7, 67, 127
2, 10079, Note_off_c, 7, 67, 127
2, 10082, Note_on_c, 1, 61, 127
2, 10261, Note_off_c, 1, 61, 127
2, 10262, Note_off_c, 7, 55, 127
2, 10264, Note_on_c, 7, 55, 127
2, 10264, Note_on_c, 2, 62, 127
2, 10434, Note_off_c, 7, 55, 127
2, 10443, Note_off_c, 2, 62, 127
2, 10446, Note_on_c, 7, 55, 127
2, 10446, Note_on_c, 1, 61, 127
2, 10574, Note_off_c, 11, 70, 127
2, 10629, Note_on_c, 4, 64, 127
2, 10808, Note_off_c, 4, 64, 127
2, 10810, Note_on_c, 10, 69, 127
2, 10976, Note_off_c, 7, 55, 127
2, 10993, Note_on_c, 5, 53, 127
2, 11083, Note_off_c, 5, 53, 127
2, 11084, Note_on_c, 4, 52, 127
2, 11166, Note_off_c, 1, 61, 127
2, 11174, Note_off_c, 4, 52, 127
2, 11175, Note_on_c, 5, 53, 127
2, 11357, Note_on_c, 10, 57, 127
2, 11536, Note_off_c, 10, 57, 127
2, 11539, Note_on_c, 2, 62, 127
2, 11719, Note_off_c, 10, 69, 127
2, 11721, Note_on_c, 11, 70, 127
2, 11899, Note_off_c, 2, 62, 127
2, 11900, Note_off_c, 11, 70, 127
2, 11903, Note_on_c, 7, 67, 127
2, 12085, Note_on_c, 2, 62, 127
2, 12264, Note_off_c, 2, 62, 127
2, 12268, Note_on_c, 4, 64, 127
2, 12447, Note_off_c, 4, 64, 127
2, 12447, Note_off_c, 5, 53, 127
2, 12450, Note_on_c, 7, 55, 127
2, 12450, Note_on_c, 12, 59, 127
2, 12538, Note_off_c, 7, 55, 127
2, 12540, Note_on_c, 5, 53, 127
2, 12628, Note_off_c, 5, 53, 127
2, 12629, Note_off_c, 12, 59, 127
2, 12632, Note_on_c, 4, 52, 127
2, 12632, Note_on_c, 1, 61, 127
2, 12812, Note_off_c, 7, 67, 127
2, 12814, Note_on_c, 5, 65, 127
2, 12993, Note_off_c, 5, 65, 127
2, 12994, Note_off_c, 4, 52, 127
2, 12996, Note_on_c, 10, 57, 127
2, 12996, Note_on_c, 4, 64, 127
2, 13175, Note_off_c, 4, 64, 127
2, 13178, Note_on_c, 5, 65, 127
2, 13352, Note_off_c, 1, 61, 127
2, 13357, Note_off_c, 5, 65, 127
2, 13358, Note_off_c, 10, 57, 127
2, 13360, Note_on_c, 2, 50, 127
2, 13360, Note_on_c, 7, 67, 127
2, 13539, Note_off_c, 7, 67, 127
2, 13543, Note_on_c, 5, 65, 127
2, 13713, Note_off_c, 5, 65, 127
2, 13725, Note_on_c, 4, 64, 127
2, 13904, Note_off_c, 4, 64, 127
2, 13907, Note_on_c, 2, 62, 127
2, 14057, Note_off_c, 2, 62, 127
2, 14080, Note_off_c, 2, 50, 127
2, 14089, Note_on_c, 11, 70, 127
2, 14177, Note_off_c, 11, 70, 127
2, 14180, Note_on_c, 10, 69, 127
2, 14268, Note_off_c, 10, 69, 127
2, 14271, Note_on_c, 2, 62, 127
2, 14271, Note_on_c, 11, 70, 127
2, 14450, Note_off_c, 2, 62, 127
2, 14453, Note_on_c, 0, 60, 127
2, 14632, Note_off_c, 0, 60, 127
2, 14633, Note_off_c, 11, 70, 127
2, 14635, Note_on_c, 11, 58, 127
2, 14635, Note_on_c, 11, 70, 127
2, 14814, Note_off_c, 11, 70, 127
2, 14814, Note_off_c, 11, 58, 127
2, 14817, Note_on_c, 0, 60, 127
2, 14817, Note_on_c, 11, 70, 127
2, 15000, Note_on_c, 7, 67, 127
2, 15004, Note_off_c, 11, 70, 127
2, 15179, Note_off_c, 7, 67, 127
2, 15179, Note_off_c, 0, 60, 127
2, 15182, Note_on_c, 11, 58, 127
2, 15182, Note_on_c, 10, 69, 127
2, 15361, Note_off_c, 10, 69, 127
2, 15364, Note_on_c, 0, 72, 127
2, 15543, Note_off_c, 0, 72, 127
2, 15544, Note_off_c, 11, 58, 127
2, 15546, Note_on_c, 10, 57, 127
2, 15546, Note_on_c, 3, 75, 127
2, 15728, Note_on_c, 0, 72, 127
2, 15908, Note_off_c, 10, 57, 127
2, 15910, Note_on_c, 5, 53, 127
2, 15910, Note_on_c, 10, 69, 127
2, 16092, Note_on_c, 5, 65, 127
2, 16258, Note_off_c, 0, 72, 127
2, 16270, Note_off_c, 10, 69, 127
2, 16272, Note_off_c, 5, 53, 127
2, 16275, Note_on_c, 11, 58, 127
2, 16456, Note_on_c, 10, 69, 127
2, 16635, Note_off_c, 10, 69, 127
2, 16637, Note_off_c, 11, 58, 127
2, 16639, Note_on_c, 11, 46, 127
2, 16639, Note_on_c, 11, 70, 127
2, 16808, Note_off_c, 3, 75, 127
2, 16821, Note_on_c, 2, 74, 127
2, 16970, Note_off_c, 11, 46, 127
2, 16971, Note_off_c, 2, 74, 127
2, 16979, Note_off_c, 11, 70, 127
2, 16983, Note_off_c, 5, 65, 127
2, 17003, Note_on_c, 11, 58, 127
2, 17003, Note_on_c, 7, 67, 127
2, 17091, Note_off_c, 11, 58, 127
2, 17094, Note_on_c, 10, 57, 127
2, 17182, Note_off_c, 10, 57, 127
2, 17185, Note_on_c, 11, 58, 127
2, 17185, Note_on_c, 11, 70, 127
2, 17364, Note_off_c, 11, 70, 127
2, 17367, Note_on_c, 2, 74, 127
2, 17546, Note_off_c, 2, 74, 127
2, 17547, Note_off_c, 11, 58, 127
2, 17550, Note_on_c, 11, 58, 127
2, 17550, Note_on_c, 7, 79, 127
2, 17720, Note_off_c, 11, 58, 127
2, 17723, Note_off_c, 7, 67, 127
2, 17729, Note_off_c, 7, 79, 127
2, 17731, Note_on_c, 11, 58, 127
2, 17731, Note_on_c, 0, 72, 127
2, 17914, Note_on_c, 7, 67, 127
2, 18093, Note_off_c, 7, 67, 127
2, 18096, Note_on_c, 10, 69, 127
2, 18261, Note_off_c, 11, 58, 127
2, 18275, Note_off_c, 10, 69, 127
2, 18278, Note_on_c, 0, 60, 127
2, 18278, Note_on_c, 4, 64, 127
2, 18366, Note_off_c, 0, 60, 127
2, 18369, Note_on_c, 11, 58, 127
2, 18457, Note_off_c, 11, 58, 127
2, 18457, Note_off_c, 4, 64, 127
2, 18460, Note_on_c, 10, 57, 127
2, 18460, Note_on_c, 6, 66, 127
2, 18639, Note_off_c, 10, 57, 127
2, 18640, Note_off_c, 0, 72, 127
2, 18642, Note_on_c, 2, 62, 127
2, 18642, Note_on_c, 11, 70, 127
2, 18821, Note_off_c, 11, 70, 127
2, 18821, Note_off_c, 2, 62, 127
2, 18825, Note_on_c, 0, 60, 127
2, 18825, Note_on_c, 10, 69, 127
2, 19004, Note_off_c, 10, 69, 127
2, 19004, Note_off_c, 0, 60, 127
2, 19006, Note_on_c, 2, 62, 127
2, 19006, Note_on_c, 11, 70, 127
2, 19180, Note_off_c, 6, 66, 127
2, 19185, Note_off_c, 11, 70, 127
2, 19185, Note_off_c, 2, 62, 127
2, 19189, Note_on_c, 7, 55, 127
2, 19189, Note_on_c, 0, 72, 127
2, 19368, Note_off_c, 0, 72, 127
2, 19370, Note_on_c, 10, 69, 127
2, 19540, Note_off_c, 10, 69, 127
2, 19553, Note_on_c, 11, 70, 127
2, 19732, Note_off_c, 11, 70, 127
2, 19735, Note_on_c, 7, 67, 127
2, 19896, Note_off_c, 7, 67, 127
2, 19899, Note_off_c, 7, 55, 127
2, 19917, Note_on_c, 4, 76, 127
2, 20005, Note_off_c, 4, 76, 127
2, 20008, Note_on_c, 2, 74, 127
2, 20096, Note_off_c, 2, 74, 127
2, 20100, Note_on_c, 1, 61, 127
2, 20100, Note_on_c, 4, 76, 127
2, 20279, Note_off_c, 1, 61, 127
2, 20281, Note_on_c, 2, 62, 127
2, 20460, Note_off_c, 2, 62, 127
2, 20462, Note_off_c, 4, 76, 127
2, 20464, Note_on_c, 4, 64, 127
2, 20464, Note_on_c, 4, 76, 127
2, 20641, Note_off_c, 4, 76, 127
2, 20643, Note_off_c, 4, 64, 127
2, 20645, Note_on_c, 5, 53, 127
2, 20645, Note_on_c, 4, 76, 127
2, 20822, Note_off_c, 4, 76, 127
2, 20828, Note_on_c, 10, 81, 127
2, 21007, Note_off_c, 10, 81, 127
2, 21007, Note_off_c, 5, 53, 127
2, 21009, Note_on_c, 5, 65, 127
2, 21009, Note_on_c, 5, 77, 127
2, 21188, Note_off_c, 5, 77, 127
2, 21192, Note_on_c, 1, 73, 127
2, 21371, Note_off_c, 1, 73, 127
2, 21375, Note_on_c, 2, 74, 127
2, 21463, Note_off_c, 2, 74, 127
2, 21465, Note_on_c, 1, 73, 127
2, 21552, Note_off_c, 5, 65, 127
2, 21553, Note_off_c, 1, 73, 127
2, 21556, Note_on_c, 5, 65, 127
2, 21556, Note_on_c, 2, 74, 127
2, 21735, Note_off_c, 5, 65, 127
2, 21739, Note_on_c, 4, 64, 127
2, 21918, Note_off_c, 4, 64, 127
2, 21918, Note_off_c, 2, 74, 127
2, 21920, Note_on_c, 2, 62, 127
2, 21920, Note_on_c, 2, 74, 127
2, 22099, Note_off_c, 2, 74, 127
2, 22099, Note_off_c, 2, 62, 127
2, 22103, Note_on_c, 4, 64, 127
2, 22103, Note_on_c, 7, 79, 127
2, 22284, Note_on_c, 2, 74, 127
2, 22463, Note_off_c, 2, 74, 127
2, 22465, Note_off_c, 4, 64, 127
2, 22467, Note_on_c, 7, 55, 127
2, 22467, Note_on_c, 4, 76, 127
2, 22646, Note_off_c, 4, 76, 127
2, 22650, Note_on_c, 12, 71, 127
2, 22829, Note_off_c, 12, 71, 127
2, 22829, Note_off_c, 7, 55, 127
2, 22831, Note_on_c, 10, 57, 127
2, 22831, Note_on_c, 1, 73, 127
2, 23012, Note_off_c, 7, 79, 127
2, 23014, Note_on_c, 7, 79, 127
2, 23193, Note_off_c, 7, 79, 127
2, 23193, Note_off_c, 10, 57, 127
2, 23195, Note_on_c, 10, 45, 127
2, 23195, Note_on_c, 7, 79, 127
2, 23283, Note_off_c, 7, 79, 127
2, 23286, Note_on_c, 5, 77, 127
2, 23374, Note_off_c, 5, 77, 127
2, 23378, Note_on_c, 4, 76, 127
2, 23551, Note_off_c, 1, 73, 127
2, 23557, Note_off_c, 4, 76, 127
2, 23557, Note_off_c, 10, 45, 127
2, 23559, Note_on_c, 2, 50, 127
2, 23559, Note_on_c, 5, 77, 127
2, 23738, Note_off_c, 5, 77, 127
2, 23742, Note_on_c, 1, 73, 127
2, 23921, Note_off_c, 1, 73, 127
2, 23924, Note_on_c, 2, 74, 127
2, 24103, Note_off_c, 2, 74, 127
2, 24106, Note_on_c, 5, 77, 127
2, 24285, Note_off_c, 5, 77, 127
2, 24289, Note_on_c, 11, 82, 127
2, 24377, Note_off_c, 11, 82, 127
2, 24380, Note_on_c, 10, 81, 127
2, 24412, Note_off_c, 2, 50, 127
2, 24468, Note_off_c, 10, 81, 127
2, 24470, Note_on_c, 4, 52, 127
2, 24470, Note_on_c, 11, 82, 127
2, 24649, Note_off_c, 4, 52, 127
2, 24653, Note_on_c, 5, 53, 127
2, 24810, Note_off_c, 11, 82, 127
2, 24832, Note_off_c, 5, 53, 127
2, 24834, Note_on_c, 7, 55, 127
2, 24834, Note_on_c, 11, 82, 127
2, 25013, Note_off_c, 11, 82, 127
2, 25013, Note_off_c, 7, 55, 127
2, 25017, Note_on_c, 0, 48, 127
2, 25017, Note_on_c, 11, 82, 127
2, 25196, Note_off_c, 11, 82, 127
2, 25199, Note_on_c, 10, 81, 127
2, 25287, Note_off_c, 10, 81, 127
2, 25290, Note_on_c, 7, 79, 127
2, 25378, Note_off_c, 7, 79, 127
2, 25381, Note_on_c, 5, 77, 127
2, 25469, Note_off_c, 5, 77, 127
2, 25472, Note_on_c, 7, 79, 127
2, 25560, Note_off_c, 7, 79, 127
2, 25563, Note_on_c, 4, 76, 127
2, 25742, Note_off_c, 4, 76, 127
2, 25745, Note_on_c, 10, 81, 127
2, 25898, Note_off_c, 0, 48, 127
2, 25928, Note_on_c, 2, 50, 127
2, 25928, Note_on_c, 7, 79, 127
2, 26107, Note_off_c, 7, 79, 127
2, 26107, Note_off_c, 2, 50, 127
2, 26109, Note_on_c, 4, 52, 127
2, 26109, Note_on_c, 5, 77, 127
2, 26288, Note_off_c, 5, 77, 127
2, 26288, Note_off_c, 4, 52, 127
2, 26292, Note_on_c, 5, 53, 127
2, 26292, Note_on_c, 4, 76, 127
2, 26471, Note_off_c, 4, 76, 127
2, 26471, Note_off_c, 5, 53, 127
2, 26474, Note_on_c, 11, 46, 127
2, 26474, Note_on_c, 2, 74, 127
2, 26634, Note_off_c, 10, 81, 127
2, 26656, Note_on_c, 7, 79, 127
2, 26835, Note_off_c, 7, 79, 127
2, 26838, Note_on_c, 11, 82, 127
2, 27017, Note_off_c, 11, 82, 127
2, 27020, Note_on_c, 10, 81, 127
2, 27165, Note_off_c, 11, 46, 127
2, 27199, Note_off_c, 10, 81, 127
2, 27203, Note_on_c, 11, 58, 127
2, 27203, Note_on_c, 7, 79, 127
2, 27382, Note_off_c, 7, 79, 127
2, 27384, Note_on_c, 5, 77, 127
2, 27563, Note_off_c, 5, 77, 127
2, 27564, Note_off_c, 2, 74, 127
2, 27567, Note_on_c, 4, 76, 127
2, 27746, Note_off_c, 4, 76, 127
2, 27749, Note_on_c, 2, 74, 127
2, 27928, Note_off_c, 2, 74, 127
2, 27931, Note_on_c, 2, 74, 127
2, 28008, Note_off_c, 2, 74, 127
2, 28011, Note_on_c, 1, 73, 127
2, 28088, Note_off_c, 1, 73, 127
2, 28090, Note_on_c, 2, 74, 127
2, 28110, Note_off_c, 11, 58, 127
2, 28113, Note_on_c, 10, 57, 127
2, 28167, Note_off_c, 2, 74, 127
2, 28170, Note_on_c, 1, 73, 127
2, 28292, Note_off_c, 10, 57, 127
2, 28295, Note_on_c, 11, 58, 127
2, 28472, Note_off_c, 1, 73, 127
2, 28474, Note_off_c, 11, 58, 127
2, 28477, Note_on_c, 10, 57, 127
2, 28477, Note_on_c, 2, 74, 127
2, 28656, Note_off_c, 2, 74, 127
2, 28656, Note_off_c, 10, 57, 127
2, 28659, Note_on_c, 7, 55, 127
2, 28659, Note_on_c, 4, 76, 127
2, 28838, Note_off_c, 4, 76, 127
2, 28838, Note_off_c, 7, 55, 127
2, 28842, Note_on_c, 5, 53, 127
2, 28842, Note_on_c, 5, 77, 127
2, 29021, Note_off_c, 5, 77, 127
2, 29021, Note_off_c, 5, 53, 127
2, 29024, Note_on_c, 4, 52, 127
2, 29024, Note_on_c, 7, 79, 127
2, 29203, Note_off_c, 4, 52, 127
2, 29206, Note_on_c, 2, 50, 127
2, 29206, Note_on_c, 11, 70, 127
2, 29385, Note_off_c, 11, 70, 127
2, 29385, Note_off_c, 2, 50, 127
2, 29388, Note_on_c, 1, 49, 127
2, 29388, Note_on_c, 10, 69, 127
2, 29554, Note_off_c, 7, 79, 127
2, 29570, Note_on_c, 5, 77, 127
2, 29749, Note_off_c, 5, 77, 127
2, 29752, Note_on_c, 10, 57, 127
2, 29752, Note_on_c, 4, 76, 127
2, 29931, Note_off_c, 4, 76, 127
2, 29934, Note_on_c, 5, 77, 127
2, 30108, Note_off_c, 1, 49, 127
2, 30113, Note_off_c, 5, 77, 127
2, 30116, Note_on_c, 2, 50, 127
2, 30116, Note_on_c, 7, 79, 127
2, 30204, Note_off_c, 7, 79, 127
2, 30208, Note_on_c, 5, 77, 127
2, 30296, Note_off_c, 5, 77, 127
2, 30299, Note_on_c, 7, 79, 127
2, 30387, Note_off_c, 7, 79, 127
2, 30389, Note_on_c, 5, 77, 127
2, 30472, Note_off_c, 10, 57, 127
2, 30477, Note_off_c, 5, 77, 127
2, 30478, Note_off_c, 10, 69, 127
2, 30481, Note_on_c, 8, 56, 127
2, 30481, Note_on_c, 2, 74, 127
2, 30481, Note_on_c, 7, 79, 127
2, 30569, Note_off_c, 7, 79, 127
2, 30572, Note_on_c, 5, 77, 127
2, 30660, Note_off_c, 5, 77, 127
2, 30663, Note_on_c, 4, 76, 127
2, 30817, Note_off_c, 2, 50, 127
2, 30821, Note_off_c, 8, 56, 127
2, 30841, Note_off_c, 2, 74, 127
2, 30842, Note_off_c, 4, 76, 127
2, 30845, Note_on_c, 10, 45, 127
2, 30845, Note_on_c, 10, 57, 127
2, 30845, Note_on_c, 4, 76, 127
2, 31027, Note_on_c, 12, 71, 127
2, 31206, Note_off_c, 12, 71, 127
2, 31209, Note_on_c, 1, 73, 127
2, 31388, Note_off_c, 1, 73, 127
2, 31391, Note_on_c, 10, 69, 127
2, 31570, Note_off_c, 10, 69, 127
2, 31574, Note_on_c, 11, 70, 127
2, 31756, Note_on_c, 7, 67, 127
2, 31934, Note_off_c, 11, 70, 127
2, 31935, Note_off_c, 7, 67, 127
2, 31938, Note_on_c, 5, 65, 127
2, 32117, Note_off_c, 5, 65, 127
2, 32120, Note_on_c, 4, 64, 127
2, 32299, Note_off_c, 4, 64, 127
2, 32299, Note_off_c, 4, 76, 127
2, 32302, Note_on_c, 5, 65, 127
2, 32484, Note_on_c, 10, 69, 127
2, 32663, Note_off_c, 10, 69, 127
2, 32666, Note_on_c, 2, 74, 127
2, 32845, Note_off_c, 2, 74, 127
2, 32849, Note_on_c, 5, 77, 127
2, 33022, Note_off_c, 5, 65, 127
2, 33030, Note_on_c, 8, 68, 127
2, 33209, Note_off_c, 5, 77, 127
2, 33213, Note_on_c, 5, 77, 127
2, 33392, Note_off_c, 5, 77, 127
2, 33395, Note_on_c, 4, 76, 127
2, 33574, Note_off_c, 4, 76, 127
2, 33577, Note_on_c, 2, 74, 127
2, 33750, Note_off_c, 8, 68, 127
2, 33756, Note_off_c, 2, 74, 127
2, 33759, Note_on_c, 10, 69, 127
2, 33850, Note_on_c, 1, 73, 127
2, 33941, Note_on_c, 4, 76, 127
2, 34033, Note_on_c, 10, 81, 127
2, 35019, Note_off_c, 10, 81, 127
2, 35022, Note_off_c, 4, 76, 127
2, 35026, Note_off_c, 1, 73, 127
2, 35031, Note_off_c, 10, 69, 127
2, 35034, Note_on_c, 4, 76, 127
2, 35184, Note_off_c, 4, 76, 127
2, 35213, Note_off_c, 10, 57, 127
2, 35213, Note_off_c, 10, 45, 127
2, 35216, Note_on_c, 10, 57, 127
2, 35216, Note_on_c, 4, 76, 127
2, 35395, Note_off_c, 4, 76, 127
2, 35399, Note_on_c, 10, 81, 127
2, 35578, Note_off_c, 10, 81, 127
2, 35580, Note_on_c, 1, 61, 127
2, 35580, Note_on_c, 7, 79, 127
2, 35759, Note_off_c, 7, 79, 127
2, 35763, Note_on_c, 4, 76, 127
2, 35942, Note_off_c, 4, 76, 127
2, 35942, Note_off_c, 1, 61, 127
2, 35944, Note_on_c, 2, 62, 127
2, 35944, Note_on_c, 5, 77, 127
2, 36123, Note_off_c, 5, 77, 127
2, 36127, Note_on_c, 2, 74, 127
2, 36297, Note_off_c, 2, 74, 127
2, 36306, Note_off_c, 2, 62, 127
2, 36309, Note_on_c, 5, 65, 127
2, 36309, Note_on_c, 2, 74, 127
2, 36397, Note_off_c, 2, 74, 127
2, 36400, Note_on_c, 1, 73, 127
2, 36488, Note_off_c, 1, 73, 127
2, 36491, Note_on_c, 12, 71, 127
2, 36670, Note_off_c, 12, 71, 127
2, 36671, Note_off_c, 5, 65, 127
2, 36674, Note_on_c, 4, 64, 127
2, 36674, Note_on_c, 1, 73, 127
2, 36855, Note_on_c, 10, 69, 127
2, 37034, Note_off_c, 10, 69, 127
2, 37038, Note_on_c, 11, 70, 127
2, 37219, Note_on_c, 7, 67, 127
2, 37394, Note_off_c, 4, 64, 127
2, 37402, Note_on_c, 4, 64, 127
2, 37492, Note_off_c, 10, 57, 127
2, 37583, Note_on_c, 11, 58, 127
2, 37762, Note_off_c, 11, 58, 127
2, 37766, Note_on_c, 10, 57, 127
2, 37945, Note_off_c, 10, 57, 127
2, 37949, Note_on_c, 7, 55, 127
2, 38122, Note_off_c, 4, 64, 127
2, 38128, Note_off_c, 7, 55, 127
2, 38128, Note_off_c, 7, 67, 127
2, 38128, Note_off_c, 11, 70, 127
2, 38130, Note_on_c, 5, 53, 127
2, 38304, Note_off_c, 1, 73, 127
2, 38313, Note_on_c, 4, 76, 127
2, 38492, Note_off_c, 4, 76, 127
2, 38494, Note_on_c, 10, 57, 127
2, 38494, Note_on_c, 2, 74, 127
2, 38673, Note_off_c, 2, 74, 127
2, 38677, Note_on_c, 11, 70, 127
2, 38856, Note_off_c, 11, 70, 127
2, 38856, Note_off_c, 10, 57, 127
2, 38858, Note_on_c, 12, 59, 127
2, 38858, Note_on_c, 7, 67, 127
2, 39037, Note_off_c, 7, 67, 127
2, 39041, Note_on_c, 11, 70, 127
2, 39220, Note_off_c, 11, 70, 127
2, 39220, Note_off_c, 12, 59, 127
2, 39220, Note_off_c, 5, 53, 127
2, 39223, Note_on_c, 1, 61, 127
2, 39223, Note_on_c, 4, 52, 127
2, 39223, Note_on_c, 10, 69, 127
2, 39402, Note_off_c, 10, 69, 127
2, 39405, Note_on_c, 7, 67, 127
2, 39584, Note_off_c, 7, 67, 127
2, 39585, Note_off_c, 4, 52, 127
2, 39585, Note_off_c, 1, 61, 127
2, 39588, Note_on_c, 2, 50, 127
2, 39588, Note_on_c, 5, 65, 127
2, 39767, Note_off_c, 5, 65, 127
2, 39769, Note_on_c, 1, 61, 127
2, 39948, Note_off_c, 1, 61, 127
2, 39952, Note_on_c, 5, 53, 127
2, 39952, Note_on_c, 2, 62, 127
2, 40133, Note_on_c, 5, 65, 127
2, 40303, Note_off_c, 5, 65, 127
2, 40316, Note_on_c, 11, 70, 127
2, 40495, Note_off_c, 5, 53, 127
2, 40497, Note_off_c, 2, 50, 127
2, 40498, Note_on_c, 7, 55, 127
2, 40677, Note_off_c, 7, 55, 127
2, 40680, Note_on_c, 10, 57, 127
2, 40859, Note_off_c, 10, 57, 127
2, 40859, Note_off_c, 11, 70, 127
2, 40863, Note_on_c, 11, 58, 127
2, 40863, Note_on_c, 11, 70, 127
2, 41042, Note_off_c, 11, 70, 127
2, 41042, Note_off_c, 11, 58, 127
2, 41042, Note_off_c, 2, 62, 127
2, 41044, Note_on_c, 0, 60, 127
2, 41044, Note_on_c, 3, 63, 127
2, 41044, Note_on_c, 11, 70, 127
2, 41223, Note_off_c, 11, 70, 127
2, 41227, Note_on_c, 7, 67, 127
2, 41406, Note_off_c, 7, 67, 127
2, 41406, Note_off_c, 0, 60, 127
2, 41408, Note_on_c, 11, 58, 127
2, 41408, Note_on_c, 10, 69, 127
2, 41574, Note_off_c, 3, 63, 127
2, 41587, Note_off_c, 10, 69, 127
2, 41591, Note_on_c, 0, 72, 127
2, 41770, Note_off_c, 0, 72, 127
2, 41770, Note_off_c, 11, 58, 127
2, 41773, Note_on_c, 10, 57, 127
2, 41773, Note_on_c, 3, 75, 127
2, 41955, Note_on_c, 0, 72, 127
2, 42134, Note_off_c, 0, 72, 127
2, 42135, Note_off_c, 10, 57, 127
2, 42137, Note_on_c, 5, 53, 127
2, 42137, Note_on_c, 10, 69, 127
2, 42316, Note_off_c, 10, 69, 127
2, 42319, Note_on_c, 5, 65, 127
2, 42499, Note_off_c, 5, 53, 127
2, 42502, Note_on_c, 11, 58, 127
2, 42621, Note_off_c, 5, 65, 127
2, 42682, Note_off_c, 3, 75, 127
2, 42683, Note_on_c, 0, 72, 127
2, 42862, Note_off_c, 0, 72, 127
2, 42866, Note_on_c, 2, 74, 127
2, 43045, Note_off_c, 2, 74, 127
2, 43048, Note_on_c, 0, 60, 127
2, 43048, Note_on_c, 6, 78, 127
2, 43227, Note_off_c, 6, 78, 127
2, 43227, Note_off_c, 0, 60, 127
2, 43230, Note_on_c, 2, 62, 127
2, 43230, Note_on_c, 7, 79, 127
2, 43411, Note_off_c, 11, 58, 127
2, 43412, Note_on_c, 7, 55, 127
2, 43591, Note_off_c, 7, 55, 127
2, 43594, Note_on_c, 10, 57, 127
2, 43740, Note_off_c, 7, 79, 127
2, 43773, Note_off_c, 10, 57, 127
2, 43776, Note_on_c, 11, 58, 127
2, 43776, Note_on_c, 7, 79, 127
2, 43950, Note_off_c, 2, 62, 127
2, 43955, Note_off_c, 7, 79, 127
2, 43955, Note_off_c, 11, 58, 127
2, 43958, Note_on_c, 3, 51, 127
2, 43958, Note_on_c, 7, 79, 127
2, 44137, Note_off_c, 7, 79, 127
2, 44141, Note_on_c, 2, 74, 127
2, 44320, Note_off_c, 2, 74, 127
2, 44323, Note_on_c, 7, 55, 127
2, 44323, Note_on_c, 3, 75, 127
2, 44502, Note_off_c, 3, 75, 127
2, 44505, Note_on_c, 12, 71, 127
2, 44684, Note_off_c, 12, 71, 127
2, 44685, Note_off_c, 7, 55, 127
2, 44687, Note_on_c, 10, 57, 127
2, 44687, Note_on_c, 0, 72, 127
2, 44867, Note_off_c, 3, 51, 127
2, 44869, Note_on_c, 0, 48, 127
2, 44869, Note_on_c, 10, 69, 127
2, 45048, Note_off_c, 10, 69, 127
2, 45048, Note_off_c, 0, 48, 127
2, 45051, Note_on_c, 2, 50, 127
2, 45051, Note_on_c, 11, 70, 127
2, 45230, Note_off_c, 11, 70, 127
2, 45230, Note_off_c, 2, 50, 127
2, 45233, Note_on_c, 3, 51, 127
2, 45233, Note_on_c, 7, 67, 127
2, 45407, Note_off_c, 10, 57, 127
2, 45412, Note_off_c, 7, 67, 127
2, 45412, Note_off_c, 3, 51, 127
2, 45416, Note_on_c, 2, 50, 127
2, 45416, Note_on_c, 6, 66, 127
2, 45598, Note_on_c, 0, 60, 127
2, 45777, Note_off_c, 0, 60, 127
2, 45780, Note_on_c, 2, 62, 127
2, 45959, Note_off_c, 2, 62, 127
2, 45962, Note_on_c, 10, 57, 127
2, 46136, Note_off_c, 6, 66, 127
2, 46141, Note_off_c, 10, 57, 127
2, 46141, Note_off_c, 0, 72, 127
2, 46144, Note_on_c, 11, 58, 127
2, 46326, Note_on_c, 6, 66, 127
2, 46505, Note_off_c, 6, 66, 127
2, 46508, Note_on_c, 10, 69, 127
2, 46687, Note_off_c, 10, 69, 127
2, 46690, Note_on_c, 3, 75, 127
2, 46869, Note_off_c, 3, 75, 127
2, 46873, Note_on_c, 2, 74, 127
2, 47052, Note_off_c, 2, 74, 127
2, 47055, Note_on_c, 0, 72, 127
2, 47143, Note_off_c, 0, 72, 127
2, 47146, Note_on_c, 11, 70, 127
2, 47234, Note_off_c, 11, 70, 127
2, 47234, Note_off_c, 11, 58, 127
2, 47237, Note_on_c, 0, 60, 127
2, 47237, Note_on_c, 10, 69, 127
2, 47325, Note_off_c, 10, 69, 127
2, 47328, Note_on_c, 11, 70, 127
2, 47416, Note_off_c, 11, 70, 127
2, 47419, Note_on_c, 7, 67, 127
2, 47599, Note_off_c, 0, 60, 127
2, 47601, Note_on_c, 2, 62, 127
2, 47781, Note_off_c, 7, 67, 127
2, 47783, Note_on_c, 6, 66, 127
2, 47957, Note_off_c, 2, 50, 127
2, 47962, Note_off_c, 6, 66, 127
2, 47965, Note_on_c, 2, 50, 127
2, 47965, Note_on_c, 10, 69, 127
2, 48144, Note_off_c, 10, 69, 127
2, 48148, Note_on_c, 0, 72, 127
2, 48327, Note_off_c, 0, 72, 127
2, 48327, Note_off_c, 2, 50, 127
2, 48329, Note_on_c, 7, 55, 127
2, 48329, Note_on_c, 11, 70, 127
2, 48508, Note_off_c, 11, 70, 127
2, 48510, Note_off_c, 2, 62, 127
2, 48512, Note_on_c, 0, 60, 127
2, 48512, Note_on_c, 10, 69, 127
2, 48691, Note_off_c, 10, 69, 127
2, 48691, Note_off_c, 0, 60, 127
2, 48694, Note_on_c, 11, 58, 127
2, 48694, Note_on_c, 7, 67, 127
2, 48873, Note_off_c, 7, 67, 127
2, 48873, Note_off_c, 11, 58, 127
2, 48876, Note_on_c, 10, 57, 127
2, 48876, Note_on_c, 10, 69, 127
2, 49049, Note_off_c, 7, 55, 127
2, 49055, Note_off_c, 10, 69, 127
2, 49055, Note_off_c, 10, 57, 127
2, 49058, Note_on_c, 7, 55, 127
2, 49058, Note_on_c, 11, 70, 127
2, 49146, Note_off_c, 11, 70, 127
2, 49149, Note_on_c, 10, 69, 127
2, 49237, Note_off_c, 10, 69, 127
2, 49237, Note_off_c, 7, 55, 127
2, 49240, Note_on_c, 5, 53, 127
2, 49240, Note_on_c, 11, 70, 127
2, 49419, Note_off_c, 5, 53, 127
2, 49423, Note_on_c, 4, 52, 127
2, 49562, Note_off_c, 11, 70, 127
2, 49602, Note_off_c, 4, 52, 127
2, 49604, Note_on_c, 2, 50, 127
2, 49604, Note_on_c, 11, 70, 127
2, 49783, Note_off_c, 11, 70, 127
2, 49783, Note_off_c, 2, 50, 127
2, 49787, Note_on_c, 0, 48, 127
2, 49787, Note_on_c, 11, 70, 127
2, 49966, Note_off_c, 11, 70, 127
2, 49969, Note_on_c, 7, 79, 127
2, 50148, Note_off_c, 7, 79, 127
2, 50149, Note_off_c, 0, 48, 127
2, 50151, Note_on_c, 2, 50, 127
2, 50151, Note_on_c, 4, 76, 127
2, 50330, Note_off_c, 4, 76, 127
2, 50333, Note_on_c, 0, 72, 127
2, 50512, Note_off_c, 0, 72, 127
2, 50513, Note_off_c, 2, 50, 127
2, 50515, Note_on_c, 4, 52, 127
2, 50515, Note_on_c, 0, 60, 127
2, 50515, Note_on_c, 0, 72, 127
2, 50603, Note_off_c, 0, 72, 127
2, 50606, Note_on_c, 11, 70, 127
2, 50694, Note_off_c, 11, 70, 127
2, 50698, Note_on_c, 0, 72, 127
2, 50786, Note_off_c, 0, 72, 127
2, 50788, Note_on_c, 11, 70, 127
2, 50876, Note_off_c, 11, 70, 127
2, 50877, Note_off_c, 4, 52, 127
2, 50879, Note_on_c, 0, 48, 127
2, 50879, Note_on_c, 0, 72, 127
2, 50967, Note_off_c, 0, 72, 127
2, 50971, Note_on_c, 11, 70, 127
2, 51059, Note_off_c, 11, 70, 127
2, 51062, Note_on_c, 10, 69, 127
2, 51150, Note_off_c, 10, 69, 127
2, 51153, Note_on_c, 11, 70, 127
2, 51241, Note_off_c, 11, 70, 127
2, 51241, Note_off_c, 0, 48, 127
2, 51243, Note_on_c, 5, 53, 127
2, 51243, Note_on_c, 10, 69, 127
2, 51424, Note_off_c, 0, 60, 127
2, 51426, Note_on_c, 0, 60, 127
2, 51605, Note_off_c, 0, 60, 127
2, 51608, Note_on_c, 12, 59, 127
2, 51735, Note_off_c, 10, 69, 127
2, 51773, Note_off_c, 5, 53, 127
2, 51787, Note_off_c, 12, 59, 127
2, 51790, Note_on_c, 10, 57, 127
2, 51790, Note_on_c, 12, 71, 127
2, 51969, Note_off_c, 12, 71, 127
2, 51969, Note_off_c, 10, 57, 127
2, 51973, Note_on_c, 7, 55, 127
2, 51973, Note_on_c, 1, 73, 127
2, 52152, Note_off_c, 1, 73, 127
2, 52152, Note_off_c, 7, 55, 127
2, 52154, Note_on_c, 5, 53, 127
2, 52154, Note_on_c, 2, 74, 127
2, 52333, Note_off_c, 2, 74, 127
2, 52333, Note_off_c, 5, 53, 127
2, 52337, Note_on_c, 4, 52, 127
2, 52337, Note_on_c, 4, 76, 127
2, 52516, Note_off_c, 4, 76, 127
2, 52516, Note_off_c, 4, 52, 127
2, 52518, Note_on_c, 2, 50, 127
2, 52518, Note_on_c, 5, 77, 127
2, 52697, Note_off_c, 5, 77, 127
2, 52697, Note_off_c, 2, 50, 127
2, 52701, Note_on_c, 1, 49, 127
2, 52701, Note_on_c, 7, 79, 127
2, 52880, Note_off_c, 7, 79, 127
2, 52882, Note_on_c, 10, 81, 127
2, 52970, Note_off_c, 10, 81, 127
2, 52974, Note_on_c, 11, 82, 127
2, 53062, Note_off_c, 11, 82, 127
2, 53063, Note_off_c, 1, 49, 127
2, 53065, Note_on_c, 10, 45, 127
2, 53065, Note_on_c, 10, 81, 127
2, 53153, Note_off_c, 10, 81, 127
2, 53156, Note_on_c, 11, 82, 127
2, 53244, Note_off_c, 11, 82, 127
2, 53248, Note_on_c, 7, 79, 127
2, 53427, Note_off_c, 7, 79, 127
2, 53427, Note_off_c, 10, 45, 127
2, 53429, Note_on_c, 2, 50, 127
2, 53429, Note_on_c, 5, 77, 127
2, 53608, Note_off_c, 5, 77, 127
2, 53612, Note_on_c, 7, 79, 127
2, 53700, Note_off_c, 7, 79, 127
2, 53703, Note_on_c, 5, 77, 127
2, 53791, Note_off_c, 5, 77, 127
2, 53791, Note_off_c, 2, 50, 127
2, 53793, Note_on_c, 7, 43, 127
2, 53793, Note_on_c, 4, 76, 127
2, 53881, Note_off_c, 4, 76, 127
2, 53885, Note_on_c, 5, 77, 127
2, 53973, Note_off_c, 5, 77, 127
2, 53976, Note_on_c, 2, 74, 127
2, 54155, Note_off_c, 2, 74, 127
2, 54155, Note_off_c, 7, 43, 127
2, 54157, Note_on_c, 10, 45, 127
2, 54157, Note_on_c, 2, 74, 127
2, 54336, Note_off_c, 2, 74, 127
2, 54340, Note_on_c, 1, 73, 127
2, 54497, Note_off_c, 10, 45, 127
2, 54519, Note_off_c, 1, 73, 127
2, 54523, Note_on_c, 10, 57, 127
2, 54523, Note_on_c, 12, 71, 127
2, 54702, Note_off_c, 12, 71, 127
2, 54704, Note_on_c, 10, 69, 127
2, 54874, Note_off_c, 10, 69, 127
2, 54887, Note_on_c, 4, 76, 127
2, 54975, Note_off_c, 4, 76, 127
2, 54978, Note_on_c, 2, 74, 127
2, 55066, Note_off_c, 2, 74, 127
2, 55066, Note_off_c, 10, 57, 127
2, 55068, Note_on_c, 7, 55, 127
2, 55068, Note_on_c, 4, 76, 127
2, 55247, Note_off_c, 7, 55, 127
2, 55251, Note_on_c, 5, 53, 127
2, 55390, Note_off_c, 4, 76, 127
2, 55430, Note_off_c, 5, 53, 127
2, 55432, Note_on_c, 4, 52, 127
2, 55432, Note_on_c, 4, 76, 127
2, 55611, Note_off_c, 4, 76, 127
2, 55611, Note_off_c, 4, 52, 127
2, 55615, Note_on_c, 5, 53, 127
2, 55615, Note_on_c, 4, 76, 127
2, 55794, Note_off_c, 4, 76, 127
2, 55797, Note_on_c, 1, 73, 127
2, 55976, Note_off_c, 1, 73, 127
2, 55979, Note_on_c, 10, 57, 127
2, 55979, Note_on_c, 2, 74, 127
2, 56158, Note_off_c, 2, 74, 127
2, 56162, Note_on_c, 5, 77, 127
2, 56341, Note_off_c, 5, 77, 127
2, 56341, Note_off_c, 10, 57, 127
2, 56343, Note_on_c, 12, 59, 127
2, 56343, Note_on_c, 7, 79, 127
2, 56526, Note_on_c, 10, 69, 127
2, 56705, Note_off_c, 10, 69, 127
2, 56705, Note_off_c, 12, 59, 127
2, 56705, Note_off_c, 5, 53, 127
2, 56707, Note_on_c, 1, 61, 127
2, 56707, Note_on_c, 4, 52, 127
2, 56707, Note_on_c, 11, 70, 127
2, 56886, Note_off_c, 11, 70, 127
2, 56890, Note_on_c, 7, 67, 127
2, 57069, Note_off_c, 4, 52, 127
2, 57069, Note_off_c, 1, 61, 127
2, 57072, Note_on_c, 2, 50, 127
2, 57072, Note_on_c, 2, 62, 127
2, 57155, Note_off_c, 7, 67, 127
2, 57254, Note_on_c, 10, 69, 127
2, 57433, Note_off_c, 10, 69, 127
2, 57436, Note_on_c, 1, 73, 127
2, 57613, Note_off_c, 7, 79, 127
2, 57615, Note_off_c, 1, 73, 127
2, 57618, Note_on_c, 7, 79, 127
2, 57797, Note_off_c, 7, 79, 127
2, 57801, Note_on_c, 5, 77, 127
2, 57982, Note_on_c, 2, 74, 127
2, 58161, Note_off_c, 2, 74, 127
2, 58165, Note_on_c, 11, 70, 127
2, 58344, Note_off_c, 11, 70, 127
2, 58347, Note_on_c, 10, 69, 127
2, 58350, Note_off_c, 2, 50, 127
2, 58526, Note_off_c, 10, 69, 127
2, 58529, Note_on_c, 7, 67, 127
2, 58710, Note_off_c, 5, 77, 127
2, 58711, Note_on_c, 11, 70, 127
2, 58890, Note_off_c, 11, 70, 127
2, 58890, Note_off_c, 2, 62, 127
2, 58893, Note_on_c, 0, 60, 127
2, 58893, Note_on_c, 3, 75, 127
2, 59059, Note_off_c, 7, 67, 127
2, 59072, Note_off_c, 0, 60, 127
2, 59076, Note_on_c, 11, 58, 127
2, 59076, Note_on_c, 7, 67, 127
2, 59255, Note_off_c, 7, 67, 127
2, 59255, Note_off_c, 11, 58, 127
2, 59257, Note_on_c, 0, 60, 127
2, 59257, Note_on_c, 10, 69, 127
2, 59423, Note_off_c, 3, 75, 127
2, 59440, Note_on_c, 0, 72, 127
2, 59619, Note_off_c, 0, 72, 127
2, 59619, Note_off_c, 0, 60, 127
2, 59622, Note_on_c, 5, 53, 127
2, 59622, Note_on_c, 2, 74, 127
2, 59801, Note_off_c, 2, 74, 127
2, 59804, Note_on_c, 3, 75, 127
2, 59983, Note_off_c, 3, 75, 127
2, 59984, Note_off_c, 5, 53, 127
2, 59986, Note_on_c, 11, 58, 127
2, 59986, Note_on_c, 2, 74, 127
2, 60166, Note_off_c, 10, 69, 127
2, 60168, Note_on_c, 10, 69, 127
2, 60347, Note_off_c, 10, 69, 127
2, 60350, Note_on_c, 11, 70, 127
2, 60516, Note_off_c, 2, 74, 127
2, 60532, Note_on_c, 2, 74, 127
2, 60710, Note_off_c, 11, 70, 127
2, 60715, Note_on_c, 4, 64, 127
2, 60892, Note_off_c, 2, 74, 127
2, 60897, Note_on_c, 7, 67, 127
2, 61076, Note_off_c, 7, 67, 127
2, 61079, Note_on_c, 0, 72, 127
2, 61199, Note_off_c, 11, 58, 127
2, 61261, Note_on_c, 11, 58, 127
2, 61440, Note_off_c, 11, 58, 127
2, 61443, Note_on_c, 10, 57, 127
2, 61622, Note_off_c, 10, 57, 127
2, 61624, Note_off_c, 4, 64, 127
2, 61625, Note_on_c, 7, 55, 127
2, 61625, Note_on_c, 11, 70, 127
2, 61804, Note_off_c, 11, 70, 127
2, 61804, Note_off_c, 7, 55, 127
2, 61807, Note_on_c, 6, 54, 127
2, 61807, Note_on_c, 10, 69, 127
2, 61986, Note_off_c, 10, 69, 127
2, 61986, Note_off_c, 6, 54, 127
2, 61989, Note_on_c, 4, 52, 127
2, 61989, Note_on_c, 7, 67, 127
2, 62168, Note_off_c, 7, 67, 127
2, 62168, Note_off_c, 4, 52, 127
2, 62172, Note_on_c, 2, 50, 127
2, 62172, Note_on_c, 6, 66, 127
2, 62349, Note_off_c, 0, 72, 127
2, 62351, Note_off_c, 2, 50, 127
2, 62354, Note_on_c, 0, 48, 127
2, 62354, Note_on_c, 3, 75, 127
2, 62533, Note_off_c, 3, 75, 127
2, 62533, Note_off_c, 0, 48, 127
2, 62536, Note_on_c, 11, 46, 127
2, 62536, Note_on_c, 2, 74, 127
2, 62702, Note_off_c, 6, 66, 127
2, 62715, Note_off_c, 2, 74, 127
2, 62715, Note_off_c, 11, 46, 127
2, 62718, Note_on_c, 10, 45, 127
2, 62718, Note_on_c, 0, 72, 127
2, 62897, Note_off_c, 0, 72, 127
2, 62897, Note_off_c, 10, 45, 127
2, 62900, Note_on_c, 7, 43, 127
2, 62900, Note_on_c, 11, 70, 127
2, 63082, Note_on_c, 6, 66, 127
2, 63261, Note_off_c, 6, 66, 127
2, 63264, Note_on_c, 7, 67, 127
2, 63443, Note_off_c, 7, 67, 127
2, 63447, Note_on_c, 2, 62, 127
2, 63582, Note_off_c, 7, 43, 127
2, 63620, Note_off_c, 11, 70, 127
2, 63626, Note_off_c, 2, 62, 127
2, 63629, Note_on_c, 7, 55, 127
2, 63629, Note_on_c, 3, 63, 127
2, 63811, Note_on_c, 7, 67, 127
2, 63990, Note_off_c, 7, 67, 127
2, 63993, Note_on_c, 10, 69, 127
2, 64172, Note_off_c, 10, 69, 127
2, 64175, Note_on_c, 11, 70, 127
2, 64349, Note_off_c, 3, 63, 127
2, 64354, Note_off_c, 11, 70, 127
2, 64357, Note_on_c, 1, 61, 127
2, 64536, Note_off_c, 7, 55, 127
2, 64539, Note_on_c, 5, 53, 127
2, 64539, Note_on_c, 4, 64, 127
2, 64718, Note_off_c, 4, 64, 127
2, 64718, Note_off_c, 5, 53, 127
2, 64722, Note_on_c, 4, 52, 127
2, 64722, Note_on_c, 10, 69, 127
2, 64901, Note_off_c, 4, 52, 127
2, 64903, Note_on_c, 2, 50, 127
2, 65077, Note_off_c, 1, 61, 127
2, 65082, Note_off_c, 2, 50, 127
2, 65086, Note_on_c, 1, 49, 127
2, 65234, Note_off_c, 10, 69, 127
2, 65265, Note_off_c, 1, 49, 127
2, 65268, Note_on_c, 12, 47, 127
2, 65268, Note_on_c, 12, 71, 127
2, 65447, Note_off_c, 12, 71, 127
2, 65447, Note_off_c, 12, 47, 127
2, 65450, Note_on_c, 1, 73, 127
2, 65450, Note_on_c, 10, 45, 127
2, 65633, Note_off_c, 10, 45, 127
2, 65633, Note_off_c, 1, 73, 127
2, 65635, Note_on_c, 2, 74, 127
2, 65635, Note_on_c, 7, 43, 127
2, 65818, Note_off_c, 7, 43, 127
2, 65818, Note_off_c, 2, 74, 127
2, 65824, Note_on_c, 4, 76, 127
2, 65824, Note_on_c, 5, 41, 127
2, 66007, Note_off_c, 4, 76, 127
2, 66012, Note_on_c, 5, 77, 127
2, 66012, Note_on_c, 10, 45, 127
2, 66102, Note_off_c, 5, 77, 127
2, 66107, Note_on_c, 7, 79, 127
2, 66195, Note_off_c, 10, 45, 127
2, 66197, Note_off_c, 7, 79, 127
2, 66200, Note_on_c, 2, 50, 127
2, 66200, Note_on_c, 5, 77, 127
2, 66292, Note_off_c, 5, 77, 127
2, 66294, Note_on_c, 7, 79, 127
2, 66369, Note_off_c, 5, 41, 127
2, 66386, Note_off_c, 7, 79, 127
2, 66391, Note_on_c, 7, 43, 127
2, 66391, Note_on_c, 4, 76, 127
2, 66578, Note_off_c, 4, 76, 127
2, 66578, Note_off_c, 7, 43, 127
2, 66584, Note_on_c, 10, 45, 127
2, 66584, Note_on_c, 5, 77, 127
2, 66676, Note_off_c, 5, 77, 127
2, 66681, Note_on_c, 4, 76, 127
2, 66773, Note_off_c, 4, 76, 127
2, 66778, Note_on_c, 5, 77, 127
2, 66870, Note_off_c, 5, 77, 127
2, 66873, Note_on_c, 4, 76, 127
2, 66952, Note_on_c, 5, 77, 127
2, 66961, Note_off_c, 2, 50, 127
2, 66965, Note_off_c, 4, 76, 127
2, 66972, Note_on_c, 1, 49, 127
2, 67044, Note_off_c, 5, 77, 127
2, 67058, Note_on_c, 4, 76, 127
2, 67150, Note_off_c, 4, 76, 127
2, 67161, Note_on_c, 2, 74, 127
2, 67345, Note_off_c, 10, 45, 127
2, 67351, Note_off_c, 2, 74, 127
2, 67364, Note_off_c, 1, 49, 127
2, 67368, Note_on_c, 2, 74, 127
2, 67368, Note_on_c, 2, 50, 127
2, 67368, Note_on_c, 2, 38, 127
2, 67567, Note_on_c, 11, 70, 127
2, 67757, Note_off_c, 11, 70, 127
2, 67766, Note_on_c, 0, 72, 127
2, 67962, Note_off_c, 0, 72, 127
2, 67969, Note_on_c, 10, 69, 127
2, 68165, Note_off_c, 10, 69, 127
2, 68174, Note_on_c, 11, 70, 127
2, 68370, Note_off_c, 11, 70, 127
2, 68381, Note_on_c, 6, 66, 127
2, 68577, Note_off_c, 6, 66, 127
2, 68586, Note_on_c, 7, 67, 127
2, 68754, Note_off_c, 2, 74, 127
2, 68794, Note_on_c, 1, 73, 127
2, 68996, Note_off_c, 1, 73, 127
2, 69006, Note_on_c, 2, 74, 127
2, 69195, Note_off_c, 7, 67, 127
2, 69218, Note_on_c, 4, 64, 127
2, 69420, Note_off_c, 4, 64, 127
2, 69430, Note_on_c, 6, 66, 127
2, 69678, Note_on_c, 10, 69, 127
2, 70009, Note_on_c, 2, 62, 127
2, 72066, Note_off_c, 2, 74, 127
2, 72067, Note_off_c, 10, 69, 127
2, 72070, Note_off_c, 2, 62, 127
2, 72075, Note_off_c, 6, 66, 127
2, 72264, Note_off_c, 2, 38, 127
2, 72621, Note_off_c, 2, 50, 127
2, 72698, Note_on_c, 10, 69, 127
2, 72848, Note_off_c, 10, 69, 127
2, 72880, Note_on_c, 2, 50, 127
2, 72880, Note_on_c, 10, 69, 127
2, 73244, Note_on_c, 5, 53, 127
2, 73423, Note_off_c, 10, 69, 127
2, 73427, Note_on_c, 7, 67, 127
2, 73606, Note_off_c, 7, 67, 127
2, 73606, Note_off_c, 5, 53, 127
2, 73608, Note_on_c, 10, 57, 127
2, 73608, Note_on_c, 5, 65, 127
2, 73787, Note_off_c, 5, 65, 127
2, 73791, Note_on_c, 4, 64, 127
2, 73970, Note_off_c, 4, 64, 127
2, 73972, Note_on_c, 5, 65, 127
2, 74151, Note_off_c, 5, 65, 127
2, 74155, Note_on_c, 2, 62, 127
2, 74334, Note_off_c, 2, 62, 127
2, 74337, Note_on_c, 11, 70, 127
2, 74519, Note_on_c, 7, 67, 127
2, 74698, Note_off_c, 10, 57, 127
2, 74702, Note_on_c, 7, 55, 127
2, 74702, Note_on_c, 4, 64, 127
2, 74867, Note_off_c, 11, 70, 127
2, 74881, Note_off_c, 4, 64, 127
2, 74883, Note_on_c, 11, 70, 127
2, 74883, Note_on_c, 1, 61, 127
2, 75062, Note_off_c, 1, 61, 127
2, 75062, Note_off_c, 11, 70, 127
2, 75064, Note_off_c, 7, 55, 127
2, 75066, Note_on_c, 10, 57, 127
2, 75066, Note_on_c, 10, 69, 127
2, 75066, Note_on_c, 2, 62, 127
2, 75239, Note_off_c, 7, 67, 127
2, 75247, Note_on_c, 4, 64, 127
2, 75426, Note_off_c, 4, 64, 127
2, 75430, Note_on_c, 5, 65, 127
2, 75518, Note_off_c, 5, 65, 127
2, 75521, Note_on_c, 4, 64, 127
2, 75609, Note_off_c, 4, 64, 127
2, 75609, Note_off_c, 10, 57, 127
2, 75611, Note_on_c, 7, 55, 127
2, 75611, Note_on_c, 5, 65, 127
2, 75785, Note_off_c, 2, 50, 127
2, 75790, Note_off_c, 7, 55, 127
2, 75794, Note_on_c, 5, 53, 127
2, 75973, Note_off_c, 5, 53, 127
2, 75977, Note_on_c, 4, 52, 127
2, 76112, Note_off_c, 5, 65, 127
2, 76114, Note_off_c, 2, 62, 127
2, 76114, Note_off_c, 10, 69, 127
2, 76156, Note_off_c, 4, 52, 127
2, 76158, Note_on_c, 5, 53, 127
2, 76158, Note_on_c, 10, 69, 127
2, 76158, Note_on_c, 5, 65, 127
2, 76158, Note_on_c, 2, 62, 127
2, 76337, Note_off_c, 5, 53, 127
2, 76341, Note_on_c, 2, 50, 127
2, 76520, Note_off_c, 2, 50, 127
2, 76520, Note_off_c, 2, 62, 127
2, 76520, Note_off_c, 5, 65, 127
2, 76520, Note_off_c, 10, 69, 127
2, 76522, Note_on_c, 11, 58, 127
2, 76522, Note_on_c, 7, 67, 127
2, 76522, Note_on_c, 2, 62, 127
2, 76522, Note_on_c, 2, 74, 127
2, 76610, Note_off_c, 11, 58, 127
2, 76614, Note_on_c, 10, 57, 127
2, 76701, Note_off_c, 2, 74, 127
2, 76702, Note_off_c, 10, 57, 127
2, 76705, Note_on_c, 11, 58, 127
2, 76705, Note_on_c, 1, 73, 127
2, 76884, Note_off_c, 1, 73, 127
2, 76886, Note_on_c, 2, 74, 127
2, 77065, Note_off_c, 2, 74, 127
2, 77067, Note_off_c, 11, 58, 127
2, 77069, Note_on_c, 11, 58, 127
2, 77069, Note_on_c, 4, 76, 127
2, 77242, Note_off_c, 2, 62, 127
2, 77242, Note_off_c, 7, 67, 127
2, 77248, Note_off_c, 4, 76, 127
2, 77248, Note_off_c, 11, 58, 127
2, 77252, Note_on_c, 10, 57, 127
2, 77252, Note_on_c, 2, 74, 127
2, 77252, Note_on_c, 4, 64, 127
2, 77252, Note_on_c, 10, 69, 127
2, 77431, Note_off_c, 2, 74, 127
2, 77433, Note_on_c, 1, 73, 127
2, 77612, Note_off_c, 1, 73, 127
2, 77612, Note_off_c, 4, 64, 127
2, 77616, Note_on_c, 12, 71, 127
2, 77616, Note_on_c, 2, 62, 127
2, 77782, Note_off_c, 10, 69, 127
2, 77795, Note_off_c, 12, 71, 127
2, 77797, Note_on_c, 10, 69, 127
2, 77976, Note_off_c, 10, 69, 127
2, 77980, Note_on_c, 7, 79, 127
2, 77980, Note_on_c, 4, 76, 127
2, 78159, Note_off_c, 7, 79, 127
2, 78161, Note_on_c, 5, 77, 127
2, 78336, Note_off_c, 2, 62, 127
2, 78340, Note_off_c, 5, 77, 127
2, 78342, Note_off_c, 10, 57, 127
2, 78344, Note_on_c, 10, 57, 127
2, 78344, Note_on_c, 7, 79, 127
2, 78344, Note_on_c, 1, 61, 127
2, 78523, Note_off_c, 7, 79, 127
2, 78526, Note_on_c, 10, 81, 127
2, 78700, Note_off_c, 4, 76, 127
2, 78704, Note_off_c, 1, 61, 127
2, 78705, Note_off_c, 10, 81, 127
2, 78706, Note_off_c, 10, 57, 127
2, 78708, Note_on_c, 2, 62, 127
2, 78708, Note_on_c, 7, 79, 127
2, 78708, Note_on_c, 2, 74, 127
2, 78796, Note_off_c, 7, 79, 127
2, 78799, Note_on_c, 5, 77, 127
2, 78887, Note_off_c, 5, 77, 127
2, 78891, Note_on_c, 1, 61, 127
2, 78891, Note_on_c, 7, 79, 127
2, 78979, Note_off_c, 7, 79, 127
2, 78981, Note_on_c, 5, 77, 127
2, 79068, Note_off_c, 2, 74, 127
2, 79068, Note_off_c, 2, 62, 127
2, 79069, Note_off_c, 5, 77, 127
2, 79070, Note_off_c, 1, 61, 127
2, 79072, Note_on_c, 2, 62, 127
2, 79072, Note_on_c, 7, 79, 127
2, 79072, Note_on_c, 8, 68, 127
2, 79160, Note_off_c, 7, 79, 127
2, 79163, Note_on_c, 5, 77, 127
2, 79251, Note_off_c, 5, 77, 127
2, 79251, Note_off_c, 2, 62, 127
2, 79255, Note_on_c, 4, 64, 127
2, 79255, Note_on_c, 4, 76, 127
2, 79432, Note_off_c, 8, 68, 127
2, 79434, Note_off_c, 4, 76, 127
2, 79434, Note_off_c, 4, 64, 127
2, 79436, Note_on_c, 2, 62, 127
2, 79436, Note_on_c, 4, 76, 127
2, 79436, Note_on_c, 10, 69, 127
2, 79615, Note_off_c, 2, 62, 127
2, 79619, Note_on_c, 1, 61, 127
2, 79798, Note_off_c, 1, 61, 127
2, 79801, Note_on_c, 12, 59, 127
2, 79980, Note_off_c, 12, 59, 127
2, 79983, Note_on_c, 10, 57, 127
2, 80162, Note_off_c, 10, 57, 127
2, 80165, Note_on_c, 7, 55, 127
2, 80344, Note_off_c, 7, 55, 127
2, 80347, Note_on_c, 6, 54, 127
2, 80384, Note_off_c, 10, 69, 127
2, 80384, Note_off_c, 4, 76, 127
2, 80526, Note_off_c, 6, 54, 127
2, 80530, Note_on_c, 7, 55, 127
2, 80530, Note_on_c, 4, 76, 127
2, 80530, Note_on_c, 1, 73, 127
2, 80530, Note_on_c, 10, 69, 127
2, 80709, Note_off_c, 7, 55, 127
2, 80711, Note_on_c, 10, 57, 127
2, 80890, Note_off_c, 10, 57, 127
2, 80892, Note_off_c, 10, 69, 127
2, 80892, Note_off_c, 1, 73, 127
2, 80892, Note_off_c, 4, 76, 127
2, 80894, Note_on_c, 6, 54, 127
2, 80894, Note_on_c, 2, 74, 127
2, 80894, Note_on_c, 10, 69, 127
2, 80894, Note_on_c, 10, 81, 127
2, 81073, Note_off_c, 10, 81, 127
2, 81073, Note_off_c, 2, 74, 127
2, 81076, Note_on_c, 0, 72, 127
2, 81255, Note_off_c, 0, 72, 127
2, 81258, Note_on_c, 2, 74, 127
2, 81348, Note_off_c, 10, 69, 127
2, 81437, Note_off_c, 2, 74, 127
2, 81437, Note_off_c, 6, 54, 127
2, 81440, Note_on_c, 7, 55, 127
2, 81440, Note_on_c, 10, 69, 127
2, 81619, Note_off_c, 10, 69, 127
2, 81619, Note_off_c, 7, 55, 127
2, 81622, Note_on_c, 7, 55, 127
2, 81622, Note_on_c, 0, 72, 127
2, 81801, Note_off_c, 0, 72, 127
2, 81805, Note_on_c, 11, 70, 127
2, 81984, Note_off_c, 11, 70, 127
2, 81986, Note_on_c, 10, 69, 127
2, 82165, Note_off_c, 10, 69, 127
2, 82165, Note_off_c, 7, 55, 127
2, 82169, Note_on_c, 5, 53, 127
2, 82169, Note_on_c, 7, 67, 127
2, 82348, Note_off_c, 7, 67, 127
2, 82348, Note_off_c, 5, 53, 127
2, 82351, Note_on_c, 4, 52, 127
2, 82351, Note_on_c, 11, 70, 127
2, 82351, Note_on_c, 7, 67, 127
2, 82530, Note_off_c, 4, 52, 127
2, 82533, Note_on_c, 2, 50, 127
2, 82712, Note_off_c, 2, 50, 127
2, 82715, Note_on_c, 4, 52, 127
2, 82894, Note_off_c, 4, 52, 127
2, 82894, Note_off_c, 11, 70, 127
2, 82897, Note_on_c, 0, 48, 127
2, 82897, Note_on_c, 0, 72, 127
2, 83076, Note_off_c, 0, 72, 127
2, 83076, Note_off_c, 0, 48, 127
2, 83079, Note_on_c, 5, 53, 127
2, 83079, Note_on_c, 10, 69, 127
2, 83258, Note_off_c, 5, 53, 127
2, 83260, Note_off_c, 7, 67, 127
2, 83261, Note_on_c, 2, 50, 127
2, 83440, Note_off_c, 2, 50, 127
2, 83444, Note_on_c, 0, 48, 127
2, 83444, Note_on_c, 5, 65, 127
2, 83609, Note_off_c, 10, 69, 127
2, 83623, Note_off_c, 0, 48, 127
2, 83626, Note_on_c, 11, 46, 127
2, 83626, Note_on_c, 11, 70, 127
2, 83805, Note_off_c, 11, 70, 127
2, 83805, Note_off_c, 11, 46, 127
2, 83808, Note_on_c, 10, 45, 127
2, 83808, Note_on_c, 0, 72, 127
2, 83990, Note_on_c, 0, 48, 127
2, 84169, Note_off_c, 0, 48, 127
2, 84172, Note_on_c, 2, 50, 127
2, 84351, Note_off_c, 2, 50, 127
2, 84351, Note_off_c, 0, 72, 127
2, 84354, Note_on_c, 4, 52, 127
2, 84354, Note_on_c, 11, 70, 127
2, 84533, Note_off_c, 11, 70, 127
2, 84533, Note_off_c, 4, 52, 127
2, 84534, Note_off_c, 5, 65, 127
2, 84536, Note_on_c, 5, 53, 127
2, 84536, Note_on_c, 10, 69, 127
2, 84715, Note_off_c, 10, 69, 127
2, 84718, Note_on_c, 7, 67, 127
2, 84897, Note_off_c, 7, 67, 127
2, 84898, Note_off_c, 10, 45, 127
2, 84901, Note_on_c, 7, 43, 127
2, 84901, Note_on_c, 10, 69, 127
2, 85080, Note_off_c, 10, 69, 127
2, 85083, Note_on_c, 5, 65, 127
2, 85262, Note_off_c, 5, 65, 127
2, 85263, Note_off_c, 7, 43, 127
2, 85265, Note_on_c, 10, 45, 127
2, 85265, Note_on_c, 3, 75, 127
2, 85447, Note_on_c, 0, 72, 127
2, 85626, Note_off_c, 0, 72, 127
2, 85627, Note_off_c, 10, 45, 127
2, 85629, Note_on_c, 5, 41, 127
2, 85629, Note_on_c, 10, 69, 127
2, 85795, Note_off_c, 3, 75, 127
2, 85811, Note_on_c, 5, 77, 127
2, 85989, Note_off_c, 10, 69, 127
2, 85990, Note_off_c, 5, 77, 127
2, 85991, Note_off_c, 5, 41, 127
2, 85993, Note_on_c, 11, 46, 127
2, 85993, Note_on_c, 2, 74, 127
2, 86176, Note_on_c, 10, 69, 127
2, 86355, Note_off_c, 10, 69, 127
2, 86358, Note_on_c, 11, 70, 127
2, 86446, Note_off_c, 11, 70, 127
2, 86449, Note_on_c, 10, 69, 127
2, 86528, Note_off_c, 5, 53, 127
2, 86537, Note_off_c, 10, 69, 127
2, 86540, Note_on_c, 3, 51, 127
2, 86540, Note_on_c, 11, 70, 127
2, 86713, Note_off_c, 11, 46, 127
2, 86719, Note_off_c, 3, 51, 127
2, 86722, Note_on_c, 2, 50, 127
2, 86901, Note_off_c, 2, 50, 127
2, 86904, Note_on_c, 0, 48, 127
2, 87022, Note_off_c, 2, 74, 127
2, 87023, Note_off_c, 11, 70, 127
2, 87083, Note_off_c, 0, 48, 127
2, 87086, Note_on_c, 2, 50, 127
2, 87086, Note_on_c, 5, 65, 127
2, 87086, Note_on_c, 2, 74, 127
2, 87086, Note_on_c, 11, 70, 127
2, 87265, Note_off_c, 2, 50, 127
2, 87268, Note_on_c, 11, 46, 127
2, 87447, Note_off_c, 11, 46, 127
2, 87448, Note_off_c, 11, 70, 127
2, 87448, Note_off_c, 2, 74, 127
2, 87448, Note_off_c, 5, 65, 127
2, 87451, Note_on_c, 11, 58, 127
2, 87451, Note_on_c, 4, 76, 127
2, 87451, Note_on_c, 0, 72, 127
2, 87451, Note_on_c, 7, 67, 127
2, 87630, Note_off_c, 4, 76, 127
2, 87632, Note_on_c, 2, 74, 127
2, 87811, Note_off_c, 2, 74, 127
2, 87815, Note_on_c, 4, 76, 127
2, 87981, Note_off_c, 7, 67, 127
2, 87981, Note_off_c, 0, 72, 127
2, 87994, Note_off_c, 4, 76, 127
2, 87994, Note_off_c, 11, 58, 127
2, 87997, Note_on_c, 10, 57, 127
2, 87997, Note_on_c, 10, 69, 127
2, 87997, Note_on_c, 5, 77, 127
2, 88176, Note_off_c, 5, 77, 127
2, 88176, Note_off_c, 10, 57, 127
2, 88179, Note_on_c, 7, 55, 127
2, 88179, Note_on_c, 11, 70, 127
2, 88358, Note_off_c, 7, 55, 127
2, 88361, Note_on_c, 2, 50, 127
2, 88527, Note_off_c, 10, 69, 127
2, 88540, Note_off_c, 2, 50, 127
2, 88543, Note_on_c, 4, 52, 127
2, 88543, Note_on_c, 7, 67, 127
2, 88709, Note_off_c, 11, 70, 127
2, 88722, Note_off_c, 4, 52, 127
2, 88726, Note_on_c, 0, 48, 127
2, 88726, Note_on_c, 0, 72, 127
2, 88905, Note_off_c, 0, 72, 127
2, 88905, Note_off_c, 0, 48, 127
2, 88907, Note_on_c, 5, 53, 127
2, 88907, Note_on_c, 10, 69, 127
2, 89086, Note_off_c, 5, 53, 127
2, 89090, Note_on_c, 0, 48, 127
2, 89263, Note_off_c, 7, 67, 127
2, 89269, Note_off_c, 0, 48, 127
2, 89271, Note_on_c, 2, 50, 127
2, 89271, Note_on_c, 5, 65, 127
2, 89437, Note_off_c, 10, 69, 127
2, 89450, Note_off_c, 2, 50, 127
2, 89454, Note_on_c, 12, 47, 127
2, 89454, Note_on_c, 7, 67, 127
2, 89633, Note_off_c, 7, 67, 127
2, 89633, Note_off_c, 12, 47, 127
2, 89636, Note_on_c, 2, 50, 127
2, 89636, Note_on_c, 7, 67, 127
2, 89815, Note_off_c, 2, 50, 127
2, 89818, Note_on_c, 1, 49, 127
2, 89991, Note_off_c, 5, 65, 127
2, 89997, Note_off_c, 1, 49, 127
2, 90001, Note_on_c, 12, 47, 127
2, 90001, Note_on_c, 4, 64, 127
2, 90166, Note_off_c, 7, 67, 127
2, 90180, Note_off_c, 12, 47, 127
2, 90182, Note_on_c, 10, 45, 127
2, 90182, Note_on_c, 5, 65, 127
2, 90361, Note_off_c, 5, 65, 127
2, 90361, Note_off_c, 10, 45, 127
2, 90365, Note_on_c, 2, 50, 127
2, 90365, Note_on_c, 5, 65, 127
2, 90546, Note_on_c, 4, 52, 127
2, 90683, Note_off_c, 4, 64, 127
2, 90725, Note_off_c, 4, 52, 127
2, 90729, Note_on_c, 5, 53, 127
2, 90729, Note_on_c, 2, 62, 127
2, 90895, Note_off_c, 5, 65, 127
2, 90908, Note_off_c, 2, 62, 127
2, 90908, Note_off_c, 5, 53, 127
2, 90911, Note_on_c, 7, 55, 127
2, 90911, Note_on_c, 4, 64, 127
2, 90911, Note_on_c, 1, 61, 127
2, 91090, Note_off_c, 1, 61, 127
2, 91090, Note_off_c, 4, 64, 127
2, 91090, Note_off_c, 7, 55, 127
2, 91093, Note_on_c, 10, 57, 127
2, 91093, Note_on_c, 5, 65, 127
2, 91093, Note_on_c, 2, 62, 127
2, 91272, Note_off_c, 5, 65, 127
2, 91276, Note_on_c, 7, 67, 127
2, 91455, Note_off_c, 7, 67, 127
2, 91455, Note_off_c, 2, 50, 127
2, 91457, Note_on_c, 0, 48, 127
2, 91457, Note_on_c, 5, 65, 127
2, 91636, Note_off_c, 5, 65, 127
2, 91640, Note_on_c, 7, 67, 127
2, 91813, Note_off_c, 10, 57, 127
2, 91819, Note_off_c, 7, 67, 127
2, 91819, Note_off_c, 0, 48, 127
2, 91821, Note_on_c, 11, 46, 127
2, 91821, Note_on_c, 11, 58, 127
2, 91821, Note_on_c, 10, 69, 127
2, 91909, Note_off_c, 10, 69, 127
2, 91909, Note_on_c, 7, 67, 127
2, 91993, Note_off_c, 7, 67, 127
2, 91996, Note_on_c, 10, 69, 127
2, 92080, Note_off_c, 10, 69, 127
2, 92083, Note_on_c, 7, 67, 127
2, 92167, Note_off_c, 7, 67, 127
2, 92171, Note_on_c, 10, 69, 127
2, 92255, Note_off_c, 10, 69, 127
2, 92258, Note_on_c, 7, 67, 127
2, 92355, Note_off_c, 7, 67, 127
2, 92368, Note_on_c, 10, 69, 127
2, 92527, Note_off_c, 10, 69, 127
2, 92547, Note_off_c, 11, 58, 127
2, 92547, Note_off_c, 11, 46, 127
2, 92551, Note_on_c, 4, 52, 127
2, 92551, Note_on_c, 10, 45, 127
2, 92551, Note_on_c, 10, 69, 127
2, 92723, Note_off_c, 2, 62, 127
2, 92732, Note_on_c, 2, 62, 127
2, 92911, Note_off_c, 2, 62, 127
2, 92915, Note_on_c, 4, 64, 127
2, 93094, Note_off_c, 4, 64, 127
2, 93096, Note_on_c, 12, 59, 127
2, 93275, Note_off_c, 12, 59, 127
2, 93279, Note_on_c, 1, 61, 127
2, 93460, Note_off_c, 10, 69, 127
2, 93460, Note_on_c, 4, 64, 127
2, 93643, Note_on_c, 10, 69, 127
2, 94005, Note_off_c, 4, 52, 127
2, 94007, Note_on_c, 10, 57, 127
2, 94363, Note_off_c, 10, 69, 127
2, 94369, Note_off_c, 4, 64, 127
2, 94369, Note_off_c, 1, 61, 127
2, 94523, Note_off_c, 10, 45, 127
2, 94554, Note_on_c, 10, 69, 127
2, 94704, Note_off_c, 10, 69, 127
2, 94714, Note_off_c, 10, 57, 127
2, 94735, Note_on_c, 10, 45, 127
2, 94735, Note_on_c, 10, 69, 127
2, 94735, Note_on_c, 4, 64, 127
2, 94735, Note_on_c, 1, 61, 127
2, 94918, Note_on_c, 4, 52, 127
2, 95097, Note_off_c, 4, 52, 127
2, 95100, Note_on_c, 5, 53, 127
2, 95278, Note_off_c, 1, 61, 127
2, 95278, Note_off_c, 4, 64, 127
2, 95278, Note_off_c, 10, 69, 127
2, 95279, Note_off_c, 5, 53, 127
2, 95282, Note_on_c, 7, 55, 127
2, 95282, Note_on_c, 12, 71, 127
2, 95461, Note_off_c, 12, 71, 127
2, 95461, Note_off_c, 7, 55, 127
2, 95465, Note_on_c, 10, 57, 127
2, 95465, Note_on_c, 1, 73, 127
2, 95644, Note_off_c, 1, 73, 127
2, 95646, Note_on_c, 2, 74, 127
2, 95825, Note_off_c, 2, 74, 127
2, 95825, Note_off_c, 10, 45, 127
2, 95829, Note_on_c, 12, 47, 127
2, 95829, Note_on_c, 1, 73, 127
2, 96008, Note_off_c, 1, 73, 127
2, 96010, Note_on_c, 4, 76, 127
2, 96189, Note_off_c, 4, 76, 127
2, 96191, Note_off_c, 12, 47, 127
2, 96193, Note_on_c, 1, 49, 127
2, 96193, Note_on_c, 10, 69, 127
2, 96193, Note_on_c, 4, 64, 127
2, 96281, Note_off_c, 10, 69, 127
2, 96282, Note_on_c, 7, 67, 127
2, 96370, Note_off_c, 7, 67, 127
2, 96371, Note_on_c, 10, 69, 127
2, 96375, Note_on_c, 4, 52, 127
2, 96459, Note_off_c, 10, 69, 127
2, 96460, Note_on_c, 7, 67, 127
2, 96553, Note_off_c, 1, 49, 127
2, 96557, Note_on_c, 10, 45, 127
2, 96730, Note_off_c, 7, 67, 127
2, 96739, Note_on_c, 10, 69, 127
2, 96905, Note_off_c, 4, 52, 127
2, 96913, Note_off_c, 4, 64, 127
2, 96918, Note_off_c, 10, 69, 127
2, 96919, Note_off_c, 10, 45, 127
2, 96921, Note_on_c, 2, 50, 127
2, 96921, Note_on_c, 7, 67, 127
2, 96921, Note_on_c, 2, 62, 127
2, 97100, Note_off_c, 7, 67, 127
2, 97104, Note_on_c, 5, 65, 127
2, 97283, Note_off_c, 5, 65, 127
2, 97285, Note_on_c, 4, 64, 127
2, 97451, Note_off_c, 2, 62, 127
2, 97464, Note_off_c, 4, 64, 127
2, 97464, Note_off_c, 2, 50, 127
2, 97468, Note_on_c, 4, 52, 127
2, 97468, Note_on_c, 2, 62, 127
2, 97629, Note_off_c, 2, 62, 127
2, 97646, Note_off_c, 10, 57, 127
2, 97647, Note_off_c, 4, 52, 127
2, 97650, Note_on_c, 5, 53, 127
2, 97650, Note_on_c, 10, 69, 127
2, 97738, Note_off_c, 10, 69, 127
2, 97741, Note_on_c, 7, 67, 127
2, 97829, Note_off_c, 7, 67, 127
2, 97829, Note_off_c, 5, 53, 127
2, 97832, Note_on_c, 7, 55, 127
2, 97832, Note_on_c, 10, 69, 127
2, 98011, Note_off_c, 7, 55, 127
2, 98014, Note_on_c, 5, 53, 127
2, 98193, Note_off_c, 5, 53, 127
2, 98194, Note_off_c, 10, 69, 127
2, 98196, Note_on_c, 10, 57, 127
2, 98196, Note_on_c, 11, 70, 127
2, 98284, Note_off_c, 11, 70, 127
2, 98287, Note_on_c, 0, 72, 127
2, 98375, Note_off_c, 0, 72, 127
2, 98375, Note_off_c, 10, 57, 127
2, 98378, Note_on_c, 0, 48, 127
2, 98378, Note_on_c, 7, 67, 127
2, 98378, Note_on_c, 2, 62, 127
2, 98461, Note_on_c, 6, 66, 127
2, 98466, Note_off_c, 7, 67, 127
2, 98545, Note_on_c, 7, 67, 127
2, 98549, Note_off_c, 6, 66, 127
2, 98560, Note_on_c, 10, 57, 127
2, 98629, Note_on_c, 6, 66, 127
2, 98633, Note_off_c, 7, 67, 127
2, 98739, Note_off_c, 10, 57, 127
2, 98743, Note_on_c, 2, 50, 127
2, 98908, Note_off_c, 0, 48, 127
2, 98922, Note_off_c, 6, 66, 127
2, 98925, Note_on_c, 0, 48, 127
2, 98925, Note_on_c, 6, 66, 127
2, 99103, Note_off_c, 2, 50, 127
2, 99104, Note_off_c, 6, 66, 127
2, 99104, Note_off_c, 0, 48, 127
2, 99107, Note_on_c, 11, 46, 127
2, 99107, Note_on_c, 7, 67, 127
2, 99289, Note_on_c, 2, 50, 127
2, 99468, Note_off_c, 2, 50, 127
2, 99468, Note_off_c, 2, 62, 127
2, 99471, Note_on_c, 4, 52, 127
2, 99599, Note_off_c, 7, 67, 127
2, 99650, Note_off_c, 4, 52, 127
2, 99653, Note_on_c, 6, 54, 127
2, 99653, Note_on_c, 10, 69, 127
2, 99827, Note_off_c, 11, 46, 127
2, 99832, Note_off_c, 10, 69, 127
2, 99832, Note_off_c, 6, 54, 127
2, 99835, Note_on_c, 7, 55, 127
2, 99835, Note_on_c, 11, 70, 127
2, 100014, Note_off_c, 11, 70, 127
2, 100014, Note_off_c, 7, 55, 127
2, 100018, Note_on_c, 3, 51, 127
2, 100018, Note_on_c, 0, 72, 127
2, 100197, Note_off_c, 0, 72, 127
2, 100197, Note_off_c, 3, 51, 127
2, 100200, Note_on_c, 5, 53, 127
2, 100200, Note_on_c, 2, 74, 127
2, 100379, Note_off_c, 2, 74, 127
2, 100379, Note_off_c, 5, 53, 127
2, 100382, Note_on_c, 2, 50, 127
2, 100382, Note_on_c, 3, 75, 127
2, 100561, Note_off_c, 3, 75, 127
2, 100561, Note_off_c, 2, 50, 127
2, 100564, Note_on_c, 0, 48, 127
2, 100564, Note_on_c, 2, 74, 127
2, 100654, Note_on_c, 3, 75, 127
2, 100742, Note_off_c, 3, 75, 127
2, 100743, Note_off_c, 0, 48, 127
2, 100746, Note_on_c, 5, 77, 127
2, 100746, Note_on_c, 12, 47, 127
2, 100925, Note_off_c, 12, 47, 127
2, 100928, Note_on_c, 10, 45, 127
2, 101106, Note_off_c, 5, 77, 127
2, 101107, Note_off_c, 10, 45, 127
2, 101110, Note_on_c, 7, 43, 127
2, 101110, Note_on_c, 7, 79, 127
2, 101284, Note_off_c, 2, 74, 127
2, 101289, Note_off_c, 7, 79, 127
2, 101289, Note_off_c, 7, 43, 127
2, 101292, Note_on_c, 0, 48, 127
2, 101292, Note_on_c, 5, 77, 127
2, 101292, Note_on_c, 0, 72, 127
2, 101471, Note_off_c, 5, 77, 127
2, 101475, Note_on_c, 3, 75, 127
2, 101654, Note_off_c, 3, 75, 127
2, 101657, Note_on_c, 2, 74, 127
2, 101822, Note_off_c, 0, 72, 127
2, 101836, Note_off_c, 2, 74, 127
2, 101839, Note_on_c, 0, 72, 127
2, 102000, Note_off_c, 0, 72, 127
2, 102021, Note_on_c, 6, 66, 127
2, 102112, Note_on_c, 10, 69, 127
2, 102199, Note_off_c, 0, 48, 127
2, 102203, Note_on_c, 10, 45, 127
2, 102203, Note_on_c, 2, 74, 127
2, 102382, Note_off_c, 10, 45, 127
2, 102385, Note_on_c, 11, 46, 127
2, 102551, Note_off_c, 6, 66, 127
2, 102553, Note_off_c, 10, 69, 127
2, 102564, Note_off_c, 11, 46, 127
2, 102565, Note_off_c, 2, 74, 127
2, 102567, Note_on_c, 2, 50, 127
2, 102567, Note_on_c, 7, 67, 127
2, 102746, Note_off_c, 7, 67, 127
2, 102746, Note_off_c, 2, 50, 127
2, 102750, Note_on_c, 3, 51, 127
2, 102750, Note_on_c, 7, 67, 127
2, 102838, Note_off_c, 7, 67, 127
2, 102840, Note_on_c, 6, 66, 127
2, 102928, Note_off_c, 6, 66, 127
2, 102929, Note_off_c, 3, 51, 127
2, 102931, Note_on_c, 0, 48, 127
2, 102931, Note_on_c, 7, 67, 127
2, 103019, Note_off_c, 7, 67, 127
2, 103023, Note_on_c, 6, 66, 127
2, 103110, Note_off_c, 0, 48, 127
2, 103114, Note_on_c, 10, 57, 127
2, 103293, Note_off_c, 10, 57, 127
2, 103293, Note_off_c, 6, 66, 127
2, 103296, Note_on_c, 11, 58, 127
2, 103296, Note_on_c, 7, 67, 127
2, 103475, Note_off_c, 7, 67, 127
2, 103475, Note_off_c, 11, 58, 127
2, 103478, Note_on_c, 6, 54, 127
2, 103478, Note_on_c, 2, 62, 127
2, 103660, Note_on_c, 6, 66, 127
2, 103839, Note_off_c, 6, 66, 127
2, 103840, Note_off_c, 6, 54, 127
2, 103842, Note_on_c, 2, 50, 127
2, 103842, Note_on_c, 10, 69, 127
2, 104021, Note_off_c, 10, 69, 127
2, 104025, Note_on_c, 0, 72, 127
2, 104204, Note_off_c, 0, 72, 127
2, 104204, Note_off_c, 2, 50, 127
2, 104206, Note_on_c, 7, 55, 127
2, 104206, Note_on_c, 7, 67, 127
2, 104206, Note_on_c, 11, 70, 127
2, 104568, Note_off_c, 7, 55, 127
2, 104568, Note_off_c, 2, 62, 127
2, 104571, Note_on_c, 0, 48, 127
2, 104571, Note_on_c, 3, 63, 127
2, 104736, Note_off_c, 11, 70, 127
2, 104753, Note_on_c, 10, 69, 127
2, 104926, Note_off_c, 7, 67, 127
2, 104931, Note_off_c, 3, 63, 127
2, 104932, Note_off_c, 10, 69, 127
2, 104933, Note_off_c, 0, 48, 127
2, 104935, Note_on_c, 2, 50, 127
2, 104935, Note_on_c, 11, 70, 127
2, 104935, Note_on_c, 6, 66, 127
2, 105023, Note_off_c, 11, 70, 127
2, 105026, Note_on_c, 10, 69, 127
2, 105114, Note_off_c, 10, 69, 127
2, 105117, Note_on_c, 11, 70, 127
2, 105205, Note_off_c, 11, 70, 127
2, 105208, Note_on_c, 10, 69, 127
2, 105296, Note_off_c, 10, 69, 127
2, 105297, Note_off_c, 2, 50, 127
2, 105300, Note_on_c, 2, 38, 127
2, 105300, Note_on_c, 11, 70, 127
2, 105388, Note_off_c, 11, 70, 127
2, 105390, Note_on_c, 10, 69, 127
2, 105465, Note_off_c, 6, 66, 127
2, 105478, Note_off_c, 10, 69, 127
2, 105481, Note_on_c, 7, 67, 127
2, 105660, Note_off_c, 7, 67, 127
2, 105662, Note_off_c, 2, 38, 127
2, 105664, Note_on_c, 7, 43, 127
2, 105664, Note_on_c, 7, 67, 127
2, 105845, Note_on_c, 3, 63, 127
2, 106024, Note_off_c, 3, 63, 127
2, 106028, Note_on_c, 2, 62, 127
2, 106207, Note_off_c, 2, 62, 127
2, 106210, Note_on_c, 0, 60, 127
2, 106389, Note_off_c, 0, 60, 127
2, 106390, Note_off_c, 7, 43, 127
2, 106392, Note_on_c, 11, 58, 127
2, 106571, Note_off_c, 11, 58, 127
2, 106575, Note_on_c, 10, 57, 127
2, 106688, Note_off_c, 7, 67, 127
2, 106754, Note_off_c, 10, 57, 127
2, 106756, Note_on_c, 11, 58, 127
2, 106756, Note_on_c, 7, 67, 127
2, 106935, Note_off_c, 7, 67, 127
2, 106935, Note_off_c, 11, 58, 127
2, 106939, Note_on_c, 7, 55, 127
2, 106939, Note_on_c, 10, 69, 127
2, 107027, Note_off_c, 10, 69, 127
2, 107029, Note_on_c, 11, 70, 127
2, 107117, Note_off_c, 11, 70, 127
2, 107118, Note_off_c, 7, 55, 127
2, 107120, Note_on_c, 11, 70, 127
2, 107120, Note_on_c, 5, 65, 127
2, 107299, Note_off_c, 5, 65, 127
2, 107303, Note_on_c, 7, 43, 127
2, 107303, Note_on_c, 4, 64, 127
2, 107482, Note_off_c, 4, 64, 127
2, 107482, Note_off_c, 7, 43, 127
2, 107484, Note_on_c, 10, 45, 127
2, 107484, Note_on_c, 5, 65, 127
2, 107650, Note_off_c, 11, 70, 127
2, 107663, Note_off_c, 5, 65, 127
2, 107663, Note_off_c, 10, 45, 127
2, 107667, Note_on_c, 11, 46, 127
2, 107667, Note_on_c, 11, 70, 127
2, 107667, Note_on_c, 7, 67, 127
2, 107846, Note_off_c, 7, 67, 127
2, 107846, Note_off_c, 11, 70, 127
2, 107846, Note_off_c, 11, 46, 127
2, 107850, Note_on_c, 0, 48, 127
2, 107850, Note_on_c, 11, 70, 127
2, 107850, Note_on_c, 5, 65, 127
2, 108031, Note_on_c, 7, 55, 127
2, 108210, Note_off_c, 7, 55, 127
2, 108212, Note_off_c, 5, 65, 127
2, 108214, Note_on_c, 10, 57, 127
2, 108214, Note_on_c, 4, 64, 127
2, 108393, Note_off_c, 10, 57, 127
2, 108395, Note_on_c, 11, 58, 127
2, 108570, Note_off_c, 0, 48, 127
2, 108574, Note_off_c, 11, 58, 127
2, 108578, Note_on_c, 0, 60, 127
2, 108757, Note_off_c, 0, 60, 127
2, 108759, Note_on_c, 2, 62, 127
2, 108836, Note_off_c, 11, 70, 127
2, 108896, Note_off_c, 4, 64, 127
2, 108938, Note_off_c, 2, 62, 127
2, 108942, Note_on_c, 0, 60, 127
2, 108942, Note_on_c, 10, 69, 127
2, 109121, Note_off_c, 10, 69, 127
2, 109121, Note_off_c, 0, 60, 127
2, 109125, Note_on_c, 3, 63, 127
2, 109125, Note_on_c, 12, 71, 127
2, 109213, Note_off_c, 12, 71, 127
2, 109215, Note_on_c, 0, 72, 127
2, 109303, Note_off_c, 0, 72, 127
2, 109304, Note_off_c, 3, 63, 127
2, 109306, Note_on_c, 7, 55, 127
2, 109306, Note_on_c, 10, 69, 127
2, 109306, Note_on_c, 0, 72, 127
2, 109396, Note_off_c, 0, 72, 127
2, 109397, Note_on_c, 12, 71, 127
2, 109485, Note_off_c, 7, 55, 127
2, 109487, Note_off_c, 12, 71, 127
2, 109489, Note_on_c, 6, 54, 127
2, 109489, Note_on_c, 0, 72, 127
2, 109668, Note_off_c, 6, 54, 127
2, 109670, Note_on_c, 4, 52, 127
2, 109849, Note_off_c, 4, 52, 127
2, 109849, Note_off_c, 0, 72, 127
2, 109853, Note_on_c, 2, 50, 127
2, 109853, Note_on_c, 0, 72, 127
2, 110026, Note_off_c, 10, 69, 127
2, 110032, Note_off_c, 0, 72, 127
2, 110032, Note_off_c, 2, 50, 127
2, 110034, Note_on_c, 7, 55, 127
2, 110034, Note_on_c, 0, 72, 127
2, 110034, Note_on_c, 10, 69, 127
2, 110396, Note_off_c, 10, 69, 127
2, 110396, Note_off_c, 0, 72, 127
2, 110398, Note_on_c, 12, 71, 127
2, 110398, Note_on_c, 7, 67, 127
2, 110577, Note_off_c, 7, 55, 127
2, 110581, Note_on_c, 10, 57, 127
2, 110760, Note_off_c, 10, 57, 127
2, 110764, Note_on_c, 7, 55, 127
2, 110890, Note_off_c, 7, 67, 127
2, 110890, Note_off_c, 12, 71, 127
2, 110943, Note_off_c, 7, 55, 127
2, 110945, Note_on_c, 5, 53, 127
2, 110945, Note_on_c, 12, 71, 127
2, 111124, Note_off_c, 12, 71, 127
2, 111124, Note_off_c, 5, 53, 127
2, 111128, Note_on_c, 7, 55, 127
2, 111128, Note_on_c, 1, 73, 127
2, 111307, Note_off_c, 1, 73, 127
2, 111307, Note_off_c, 7, 55, 127
2, 111309, Note_on_c, 4, 52, 127
2, 111309, Note_on_c, 2, 74, 127
2, 111488, Note_off_c, 2, 74, 127
2, 111488, Note_off_c, 4, 52, 127
2, 111492, Note_on_c, 11, 58, 127
2, 111492, Note_on_c, 4, 76, 127
2, 111671, Note_off_c, 4, 76, 127
2, 111673, Note_on_c, 5, 77, 127
2, 111852, Note_off_c, 5, 77, 127
2, 111856, Note_on_c, 4, 76, 127
2, 112035, Note_off_c, 4, 76, 127
2, 112035, Note_off_c, 11, 58, 127
2, 112038, Note_on_c, 11, 58, 127
2, 112038, Note_on_c, 7, 79, 127
2, 112217, Note_off_c, 7, 79, 127
2, 112217, Note_off_c, 11, 58, 127
2, 112220, Note_on_c, 1, 49, 127
2, 112220, Note_on_c, 11, 70, 127
2, 112399, Note_off_c, 11, 70, 127
2, 112403, Note_on_c, 7, 67, 127
2, 112582, Note_off_c, 7, 67, 127
2, 112584, Note_on_c, 4, 52, 127
2, 112584, Note_on_c, 10, 69, 127
2, 112763, Note_off_c, 10, 69, 127
2, 112767, Note_on_c, 7, 79, 127
2, 112940, Note_off_c, 1, 49, 127
2, 112946, Note_off_c, 7, 79, 127
2, 112946, Note_off_c, 4, 52, 127
2, 112948, Note_on_c, 2, 50, 127
2, 112948, Note_on_c, 5, 77, 127
2, 113127, Note_off_c, 5, 77, 127
2, 113131, Note_on_c, 1, 73, 127
2, 113310, Note_off_c, 1, 73, 127
2, 113313, Note_on_c, 5, 53, 127
2, 113313, Note_on_c, 2, 74, 127
2, 113492, Note_off_c, 2, 74, 127
2, 113495, Note_on_c, 11, 82, 127
2, 113668, Note_off_c, 2, 50, 127
2, 113674, Note_off_c, 11, 82, 127
2, 113675, Note_off_c, 5, 53, 127
2, 113678, Note_on_c, 11, 46, 127
2, 113678, Note_on_c, 10, 81, 127
2, 113857, Note_off_c, 10, 81, 127
2, 113859, Note_on_c, 7, 79, 127
2, 114038, Note_off_c, 7, 79, 127
2, 114042, Note_on_c, 7, 55, 127
2, 114042, Note_on_c, 5, 77, 127
2, 114221, Note_off_c, 5, 77, 127
2, 114223, Note_on_c, 4, 76, 127
2, 114398, Note_off_c, 11, 46, 127
2, 114402, Note_off_c, 4, 76, 127
2, 114404, Note_off_c, 7, 55, 127
2, 114406, Note_on_c, 10, 45, 127
2, 114406, Note_on_c, 10, 57, 127
2, 114406, Note_on_c, 2, 74, 127
2, 114585, Note_off_c, 2, 74, 127
2, 114588, Note_on_c, 1, 73, 127
2, 114767, Note_off_c, 1, 73, 127
2, 114770, Note_on_c, 12, 71, 127
2, 114918, Note_off_c, 10, 45, 127
2, 114949, Note_off_c, 12, 71, 127
2, 114949, Note_off_c, 10, 57, 127
2, 114952, Note_on_c, 7, 55, 127
2, 114952, Note_on_c, 10, 69, 127
2, 115102, Note_off_c, 10, 69, 127
2, 115131, Note_off_c, 7, 55, 127
2, 115134, Note_on_c, 6, 54, 127
2, 115134, Note_on_c, 10, 81, 127
2, 115313, Note_off_c, 6, 54, 127
2, 115317, Note_on_c, 4, 52, 127
2, 115496, Note_off_c, 4, 52, 127
2, 115498, Note_on_c, 6, 54, 127
2, 115677, Note_off_c, 6, 54, 127
2, 115677, Note_off_c, 10, 81, 127
2, 115681, Note_on_c, 2, 50, 127
2, 115681, Note_on_c, 0, 72, 127
2, 115860, Note_off_c, 0, 72, 127
2, 115860, Note_off_c, 2, 50, 127
2, 115863, Note_on_c, 2, 62, 127
2, 115863, Note_on_c, 0, 72, 127
2, 116042, Note_off_c, 0, 72, 127
2, 116045, Note_on_c, 11, 70, 127
2, 116224, Note_off_c, 11, 70, 127
2, 116227, Note_on_c, 6, 54, 127
2, 116227, Note_on_c, 0, 72, 127
2, 116406, Note_off_c, 0, 72, 127
2, 116409, Note_on_c, 10, 69, 127
2, 116588, Note_off_c, 10, 69, 127
2, 116589, Note_off_c, 6, 54, 127
2, 116591, Note_on_c, 7, 55, 127
2, 116591, Note_on_c, 0, 72, 127
2, 116770, Note_off_c, 0, 72, 127
2, 116773, Note_on_c, 11, 70, 127
2, 116952, Note_off_c, 11, 70, 127
2, 116956, Note_on_c, 10, 69, 127
2, 117085, Note_off_c, 2, 62, 127
2, 117134, Note_off_c, 7, 55, 127
2, 117135, Note_off_c, 10, 69, 127
2, 117138, Note_on_c, 5, 53, 127
2, 117138, Note_on_c, 7, 67, 127
2, 117270, Note_off_c, 7, 67, 127
2, 117317, Note_off_c, 5, 53, 127
2, 117320, Note_on_c, 4, 52, 127
2, 117320, Note_on_c, 7, 79, 127
2, 117499, Note_off_c, 4, 52, 127
2, 117502, Note_on_c, 2, 50, 127
2, 117681, Note_off_c, 2, 50, 127
2, 117684, Note_on_c, 1, 49, 127
2, 117863, Note_off_c, 1, 49, 127
2, 117863, Note_off_c, 7, 79, 127
2, 117866, Note_on_c, 2, 50, 127
2, 117866, Note_on_c, 5, 77, 127
2, 118045, Note_off_c, 5, 77, 127
2, 118045, Note_off_c, 2, 50, 127
2, 118048, Note_on_c, 7, 43, 127
2, 118048, Note_on_c, 4, 76, 127
2, 118227, Note_off_c, 4, 76, 127
2, 118231, Note_on_c, 2, 74, 127
2, 118410, Note_off_c, 2, 74, 127
2, 118410, Note_off_c, 7, 43, 127
2, 118413, Note_on_c, 11, 46, 127
2, 118413, Note_on_c, 1, 73, 127
2, 118592, Note_off_c, 1, 73, 127
2, 118595, Note_on_c, 2, 74, 127
2, 118774, Note_off_c, 2, 74, 127
2, 118775, Note_off_c, 11, 46, 127
2, 118777, Note_on_c, 10, 45, 127
2, 118777, Note_on_c, 2, 74, 127
2, 118956, Note_off_c, 2, 74, 127
2, 118959, Note_on_c, 1, 73, 127
2, 119138, Note_off_c, 1, 73, 127
2, 119141, Note_on_c, 12, 71, 127
2, 119320, Note_off_c, 12, 71, 127
2, 119320, Note_off_c, 10, 45, 127
2, 119323, Note_on_c, 10, 69, 127
2, 119323, Note_on_c, 11, 46, 127
2, 119487, Note_off_c, 10, 69, 127
2, 119506, Note_off_c, 11, 46, 127
2, 119509, Note_on_c, 2, 62, 127
2, 119509, Note_on_c, 10, 45, 127
2, 119604, Note_on_c, 5, 65, 127
2, 119692, Note_off_c, 10, 45, 127
2, 119697, Note_on_c, 11, 70, 127
2, 119697, Note_on_c, 7, 43, 127
2, 119880, Note_off_c, 7, 43, 127
2, 119884, Note_on_c, 10, 45, 127
2, 120067, Note_off_c, 10, 45, 127
2, 120068, Note_off_c, 11, 70, 127
2, 120073, Note_on_c, 0, 72, 127
2, 120073, Note_on_c, 5, 41, 127
2, 120147, Note_off_c, 2, 62, 127
2, 120149, Note_off_c, 5, 65, 127
2, 120256, Note_off_c, 5, 41, 127
2, 120256, Note_off_c, 0, 72, 127
2, 120261, Note_on_c, 11, 70, 127
2, 120261, Note_on_c, 3, 63, 127
2, 120261, Note_on_c, 7, 43, 127
2, 120444, Note_off_c, 11, 70, 127
2, 120449, Note_on_c, 10, 69, 127
2, 120630, Note_off_c, 3, 63, 127
2, 120632, Note_off_c, 10, 69, 127
2, 120632, Note_off_c, 7, 43, 127
2, 120636, Note_on_c, 11, 70, 127
2, 120636, Note_on_c, 7, 55, 127
2, 120819, Note_off_c, 11, 70, 127
2, 120824, Note_on_c, 7, 67, 127
2, 121007, Note_off_c, 7, 67, 127
2, 121010, Note_on_c, 10, 69, 127
2, 121194, Note_off_c, 7, 55, 127
2, 121198, Note_on_c, 1, 73, 127
2, 121198, Note_on_c, 4, 52, 127
2, 121381, Note_off_c, 4, 52, 127
2, 121381, Note_off_c, 1, 73, 127
2, 121386, Note_on_c, 4, 76, 127
2, 121386, Note_on_c, 1, 49, 127
2, 121569, Note_off_c, 1, 49, 127
2, 121569, Note_off_c, 4, 76, 127
2, 121574, Note_on_c, 10, 45, 127
2, 121574, Note_on_c, 7, 79, 127
2, 121761, Note_off_c, 7, 79, 127
2, 121761, Note_off_c, 10, 45, 127
2, 121765, Note_on_c, 2, 50, 127
2, 121765, Note_on_c, 5, 77, 127
2, 121765, Note_on_c, 2, 74, 127
2, 122133, Note_off_c, 10, 69, 127
2, 122145, Note_off_c, 2, 50, 127
2, 122152, Note_on_c, 7, 55, 127
2, 122152, Note_on_c, 11, 70, 127
2, 122326, Note_off_c, 5, 77, 127
2, 122346, Note_on_c, 4, 76, 127
2, 122526, Note_off_c, 2, 74, 127
2, 122531, Note_off_c, 11, 70, 127
2, 122532, Note_off_c, 7, 55, 127
2, 122536, Note_off_c, 4, 76, 127
2, 122543, Note_on_c, 10, 69, 127
2, 122543, Note_on_c, 5, 77, 127
2, 122543, Note_on_c, 1, 73, 127
2, 122543, Note_on_c, 10, 57, 127
2, 122637, Note_off_c, 5, 77, 127
2, 122642, Note_on_c, 4, 76, 127
2, 122736, Note_off_c, 4, 76, 127
2, 122743, Note_on_c, 5, 77, 127
2, 122837, Note_off_c, 5, 77, 127
2, 122842, Note_on_c, 4, 76, 127
2, 122933, Note_off_c, 10, 69, 127
2, 122936, Note_off_c, 4, 76, 127
2, 122941, Note_on_c, 5, 77, 127
2, 122941, Note_on_c, 7, 67, 127
2, 122941, Note_on_c, 10, 45, 127
2, 123035, Note_off_c, 5, 77, 127
2, 123041, Note_on_c, 4, 76, 127
2, 123135, Note_off_c, 4, 76, 127
2, 123140, Note_on_c, 2, 74, 127
2, 123325, Note_off_c, 10, 57, 127
2, 123328, Note_off_c, 1, 73, 127
2, 123333, Note_off_c, 10, 45, 127
2, 123336, Note_off_c, 2, 74, 127
2, 123343, Note_on_c, 2, 50, 127
2, 123343, Note_on_c, 2, 74, 127
2, 123517, Note_off_c, 7, 67, 127
2, 123548, Note_on_c, 7, 67, 127
2, 123744, Note_off_c, 7, 67, 127
2, 123755, Note_on_c, 6, 54, 127
2, 123755, Note_on_c, 10, 69, 127
2, 123951, Note_off_c, 10, 69, 127
2, 123960, Note_on_c, 4, 64, 127
2, 124158, Note_off_c, 6, 54, 127
2, 124162, Note_off_c, 4, 64, 127
2, 124168, Note_on_c, 6, 66, 127
2, 124168, Note_on_c, 10, 57, 127
2, 124433, Note_on_c, 10, 69, 127
2, 124583, Note_off_c, 10, 57, 127
2, 124795, Note_on_c, 2, 38, 127
2, 127627, Note_off_c, 2, 74, 127
2, 127636, Note_off_c, 6, 66, 127
2, 127657, Note_off_c, 2, 50, 127
2, 127708, Note_off_c, 10, 69, 127
2, 128400, Note_off_c, 2, 38, 127
2, 128511, Note_on_c, 2, 50, 127
2, 128511, Note_on_c, 2, 62, 127
2, 128511, Note_on_c, 5, 65, 127
2, 128511, Note_on_c, 10, 69, 127
2, 129284, Note_off_c, 10, 69, 127
2, 129284, Note_off_c, 5, 65, 127
2, 129284, Note_off_c, 2, 62, 127
2, 129284, Note_off_c, 2, 50, 127
2, 129287, Note_on_c, 2, 50, 127
2, 129287, Note_on_c, 2, 62, 127
2, 129287, Note_on_c, 11, 70, 127
2, 129287, Note_on_c, 7, 67, 127
2, 129673, Note_off_c, 11, 70, 127
2, 129675, Note_on_c, 10, 69, 127
2, 130055, Note_off_c, 7, 67, 127
2, 130059, Note_off_c, 10, 69, 127
2, 130060, Note_off_c, 2, 62, 127
2, 130060, Note_off_c, 2, 50, 127
2, 130063, Note_on_c, 2, 50, 127
2, 130063, Note_on_c, 2, 62, 127
2, 130063, Note_on_c, 1, 73, 127
2, 130063, Note_on_c, 5, 65, 127
2, 130449, Note_off_c, 1, 73, 127
2, 130452, Note_on_c, 2, 74, 127
2, 130831, Note_off_c, 5, 65, 127
2, 130836, Note_off_c, 2, 74, 127
2, 130836, Note_off_c, 2, 62, 127
2, 130836, Note_off_c, 2, 50, 127
2, 130838, Note_on_c, 2, 50, 127
2, 130838, Note_on_c, 11, 58, 127
2, 130838, Note_on_c, 7, 67, 127
2, 130838, Note_on_c, 4, 64, 127
2, 131224, Note_off_c, 7, 67, 127
2, 131224, Note_off_c, 11, 58, 127
2, 131228, Note_on_c, 10, 57, 127
2, 131228, Note_on_c, 10, 69, 127
2, 131606, Note_off_c, 4, 64, 127
2, 131612, Note_off_c, 10, 69, 127
2, 131612, Note_off_c, 10, 57, 127
2, 131614, Note_on_c, 7, 55, 127
2, 131614, Note_on_c, 4, 64, 127
2, 131614, Note_on_c, 11, 70, 127
2, 132000, Note_off_c, 2, 50, 127
2, 132003, Note_on_c, 5, 53, 127
2, 132389, Note_off_c, 5, 53, 127
2, 132393, Note_on_c, 4, 52, 127
2, 132779, Note_off_c, 4, 52, 127
2, 132781, Note_on_c, 2, 50, 127
2, 133167, Note_off_c, 2, 50, 127
2, 133170, Note_on_c, 1, 49, 127
2, 133334, Note_off_c, 11, 70, 127
2, 133495, Note_off_c, 4, 64, 127
2, 133556, Note_off_c, 7, 55, 127
2, 133558, Note_on_c, 4, 52, 127
2, 133558, Note_on_c, 10, 69, 127
2, 133936, Note_off_c, 1, 49, 127
2, 133942, Note_off_c, 10, 69, 127
2, 133942, Note_off_c, 4, 52, 127
2, 133944, Note_on_c, 1, 49, 127
2, 133944, Note_on_c, 10, 57, 127
2, 133944, Note_on_c, 7, 67, 127
2, 133944, Note_on_c, 4, 64, 127
2, 134330, Note_off_c, 7, 67, 127
2, 134334, Note_on_c, 4, 76, 127
2, 134712, Note_off_c, 4, 64, 127
2, 134717, Note_off_c, 10, 57, 127
2, 134717, Note_off_c, 1, 49, 127
2, 134718, Note_off_c, 4, 76, 127
2, 134720, Note_on_c, 1, 49, 127
2, 134720, Note_on_c, 10, 57, 127
2, 134720, Note_on_c, 10, 69, 127
2, 134720, Note_on_c, 4, 64, 127
2, 135106, Note_off_c, 10, 69, 127
2, 135109, Note_on_c, 7, 67, 127
2, 135488, Note_off_c, 4, 64, 127
2, 135493, Note_off_c, 7, 67, 127
2, 135493, Note_off_c, 10, 57, 127
2, 135493, Note_off_c, 1, 49, 127
2, 135497, Note_on_c, 0, 48, 127
2, 135497, Note_on_c, 10, 57, 127
2, 135497, Note_on_c, 6, 66, 127
2, 135497, Note_on_c, 2, 62, 127
2, 135883, Note_off_c, 6, 66, 127
2, 135883, Note_off_c, 10, 57, 127
2, 135885, Note_on_c, 7, 55, 127
2, 135885, Note_on_c, 7, 67, 127
2, 136265, Note_off_c, 2, 62, 127
2, 136269, Note_off_c, 7, 67, 127
2, 136269, Note_off_c, 7, 55, 127
2, 136272, Note_on_c, 6, 54, 127
2, 136272, Note_on_c, 2, 62, 127
2, 136272, Note_on_c, 10, 69, 127
2, 136659, Note_off_c, 0, 48, 127
2, 136661, Note_on_c, 3, 51, 127
2, 137047, Note_off_c, 3, 51, 127
2, 137050, Note_on_c, 2, 50, 127
2, 137436, Note_off_c, 2, 50, 127
2, 137439, Note_on_c, 0, 48, 127
2, 137825, Note_off_c, 0, 48, 127
2, 137825, Note_off_c, 10, 69, 127
2, 137828, Note_on_c, 11, 46, 127
2, 138094, Note_off_c, 2, 62, 127
2, 138217, Note_on_c, 2, 74, 127
2, 138398, Note_off_c, 6, 54, 127
2, 138603, Note_off_c, 2, 74, 127
2, 138603, Note_off_c, 11, 46, 127
2, 138606, Note_on_c, 11, 46, 127
2, 138606, Note_on_c, 7, 55, 127
2, 138606, Note_on_c, 11, 70, 127
2, 138606, Note_on_c, 2, 62, 127
2, 138992, Note_off_c, 11, 70, 127
2, 138995, Note_on_c, 10, 69, 127
2, 139374, Note_off_c, 2, 62, 127
2, 139379, Note_off_c, 10, 69, 127
2, 139379, Note_off_c, 7, 55, 127
2, 139379, Note_off_c, 11, 46, 127
2, 139382, Note_on_c, 7, 55, 127
2, 139382, Note_on_c, 11, 46, 127
2, 139382, Note_on_c, 7, 67, 127
2, 139382, Note_on_c, 2, 62, 127
2, 139768, Note_off_c, 7, 67, 127
2, 139770, Note_on_c, 6, 66, 127
2, 140150, Note_off_c, 2, 62, 127
2, 140154, Note_off_c, 6, 66, 127
2, 140155, Note_off_c, 11, 46, 127
2, 140155, Note_off_c, 7, 55, 127
2, 140158, Note_on_c, 10, 45, 127
2, 140158, Note_on_c, 10, 57, 127
2, 140158, Note_on_c, 7, 67, 127
2, 140158, Note_on_c, 1, 61, 127
2, 140544, Note_off_c, 7, 67, 127
2, 140547, Note_on_c, 11, 70, 127
2, 140926, Note_off_c, 1, 61, 127
2, 140931, Note_off_c, 11, 70, 127
2, 140931, Note_off_c, 10, 57, 127
2, 140931, Note_off_c, 10, 45, 127
2, 140934, Note_on_c, 4, 52, 127
2, 140934, Note_on_c, 10, 45, 127
2, 140934, Note_on_c, 10, 69, 127
2, 140934, Note_on_c, 1, 61, 127
2, 141320, Note_off_c, 10, 69, 127
2, 141323, Note_on_c, 7, 67, 127
2, 141702, Note_off_c, 1, 61, 127
2, 141707, Note_off_c, 7, 67, 127
2, 141707, Note_off_c, 10, 45, 127
2, 141707, Note_off_c, 4, 52, 127
2, 141709, Note_on_c, 10, 45, 127
2, 141709, Note_on_c, 10, 57, 127
2, 141709, Note_on_c, 5, 65, 127
2, 141709, Note_on_c, 1, 61, 127
2, 142095, Note_off_c, 5, 65, 127
2, 142095, Note_off_c, 10, 57, 127
2, 142099, Note_on_c, 7, 55, 127
2, 142099, Note_on_c, 4, 64, 127
2, 142477, Note_off_c, 1, 61, 127
2, 142477, Note_off_c, 10, 45, 127
2, 142483, Note_off_c, 4, 64, 127
2, 142483, Note_off_c, 7, 55, 127
2, 142486, Note_on_c, 10, 45, 127
2, 142486, Note_on_c, 5, 53, 127
2, 142486, Note_on_c, 2, 62, 127
2, 142874, Note_on_c, 5, 65, 127
2, 143254, Note_off_c, 2, 62, 127
2, 143258, Note_off_c, 5, 65, 127
2, 143259, Note_off_c, 5, 53, 127
2, 143259, Note_off_c, 10, 45, 127
2, 143262, Note_on_c, 7, 43, 127
2, 143262, Note_on_c, 7, 55, 127
2, 143262, Note_on_c, 11, 70, 127
2, 143650, Note_on_c, 7, 67, 127
2, 143829, Note_off_c, 11, 70, 127
2, 144036, Note_off_c, 7, 67, 127
2, 144037, Note_off_c, 7, 55, 127
2, 144037, Note_off_c, 7, 43, 127
2, 144039, Note_on_c, 11, 46, 127
2, 144039, Note_on_c, 7, 55, 127
2, 144039, Note_on_c, 7, 67, 127
2, 144039, Note_on_c, 3, 75, 127
2, 144425, Note_off_c, 3, 75, 127
2, 144425, Note_off_c, 7, 55, 127
2, 144429, Note_on_c, 4, 52, 127
2, 144429, Note_on_c, 1, 73, 127
2, 144807, Note_off_c, 7, 67, 127
2, 144807, Note_off_c, 11, 46, 127
2, 144813, Note_off_c, 1, 73, 127
2, 144813, Note_off_c, 4, 52, 127
2, 144815, Note_on_c, 10, 45, 127
2, 144815, Note_on_c, 5, 53, 127
2, 144815, Note_on_c, 2, 74, 127
2, 144815, Note_on_c, 8, 80, 127
2, 144815, Note_on_c, 10, 69, 127
2, 145201, Note_off_c, 8, 80, 127
2, 145201, Note_off_c, 5, 53, 127
2, 145204, Note_on_c, 2, 50, 127
2, 145204, Note_on_c, 10, 81, 127
2, 145583, Note_off_c, 10, 69, 127
2, 145583, Note_off_c, 2, 74, 127
2, 145583, Note_off_c, 10, 45, 127
2, 145588, Note_off_c, 10, 81, 127
2, 145588, Note_off_c, 2, 50, 127
2, 145592, Note_on_c, 10, 45, 127
2, 145592, Note_on_c, 4, 52, 127
2, 145592, Note_on_c, 10, 69, 127
2, 145592, Note_on_c, 1, 73, 127
2, 146754, Note_off_c, 1, 73, 127
2, 146754, Note_off_c, 10, 69, 127
2, 146754, Note_off_c, 4, 52, 127
2, 146966, Note_off_c, 10, 45, 127
2, 147145, Note_on_c, 10, 45, 127
2, 147145, Note_on_c, 10, 69, 127
2, 147145, Note_on_c, 1, 73, 127
2, 147145, Note_on_c, 4, 76, 127
2, 147918, Note_off_c, 4, 76, 127
2, 147918, Note_off_c, 1, 73, 127
2, 147918, Note_off_c, 10, 69, 127
2, 147918, Note_off_c, 10, 45, 127
2, 147921, Note_on_c, 11, 46, 127
2, 147921, Note_on_c, 1, 73, 127
2, 147921, Note_on_c, 4, 76, 127
2, 147921, Note_on_c, 7, 67, 127
2, 148307, Note_off_c, 11, 46, 127
2, 148310, Note_on_c, 10, 45, 127
2, 148696, Note_off_c, 10, 45, 127
2, 148696, Note_off_c, 7, 67, 127
2, 148696, Note_off_c, 4, 76, 127
2, 148696, Note_off_c, 1, 73, 127
2, 148698, Note_on_c, 1, 49, 127
2, 148698, Note_on_c, 5, 65, 127
2, 148698, Note_on_c, 10, 69, 127
2, 148698, Note_on_c, 5, 77, 127
2, 148698, Note_on_c, 2, 74, 127
2, 149084, Note_off_c, 1, 49, 127
2, 149088, Note_on_c, 2, 50, 127
2, 149473, Note_off_c, 2, 74, 127
2, 149473, Note_off_c, 5, 77, 127
2, 149473, Note_off_c, 10, 69, 127
2, 149473, Note_off_c, 5, 65, 127
2, 149474, Note_off_c, 2, 50, 127
2, 149477, Note_on_c, 7, 43, 127
2, 149477, Note_on_c, 4, 64, 127
2, 149477, Note_on_c, 1, 73, 127
2, 149477, Note_on_c, 10, 69, 127
2, 149863, Note_off_c, 7, 43, 127
2, 149865, Note_on_c, 10, 45, 127
2, 150251, Note_off_c, 10, 45, 127
2, 150252, Note_off_c, 10, 69, 127
2, 150252, Note_off_c, 1, 73, 127
2, 150252, Note_off_c, 4, 64, 127
2, 150255, Note_on_c, 11, 46, 127
2, 150255, Note_on_c, 4, 64, 127
2, 150255, Note_on_c, 7, 67, 127
2, 150255, Note_on_c, 1, 73, 127
2, 150641, Note_off_c, 7, 67, 127
2, 150641, Note_off_c, 4, 64, 127
2, 150644, Note_on_c, 11, 70, 127
2, 150644, Note_on_c, 7, 67, 127
2, 151030, Note_off_c, 7, 67, 127
2, 151030, Note_off_c, 11, 70, 127
2, 151032, Note_on_c, 5, 65, 127
2, 151032, Note_on_c, 10, 69, 127
2, 151418, Note_off_c, 10, 69, 127
2, 151418, Note_off_c, 5, 65, 127
2, 151422, Note_on_c, 7, 67, 127
2, 151422, Note_on_c, 4, 64, 127
2, 151570, Note_off_c, 1, 73, 127
2, 151825, Note_off_c, 4, 64, 127
2, 151825, Note_off_c, 7, 67, 127
2, 151826, Note_on_c, 3, 63, 127
2, 151826, Note_on_c, 0, 72, 127
2, 151826, Note_on_c, 6, 66, 127
2, 152193, Note_off_c, 11, 46, 127
2, 152214, Note_on_c, 10, 45, 127
2, 152600, Note_off_c, 10, 45, 127
2, 152601, Note_off_c, 6, 66, 127
2, 152601, Note_off_c, 0, 72, 127
2, 152601, Note_off_c, 3, 63, 127
2, 152603, Note_on_c, 7, 43, 127
2, 152603, Note_on_c, 0, 72, 127
2, 152603, Note_on_c, 3, 63, 127
2, 152603, Note_on_c, 7, 67, 127
2, 152989, Note_off_c, 3, 63, 127
2, 152989, Note_off_c, 0, 72, 127
2, 152989, Note_off_c, 7, 43, 127
2, 152993, Note_on_c, 3, 51, 127
2, 152993, Note_on_c, 11, 70, 127
2, 153371, Note_off_c, 7, 67, 127
2, 153377, Note_off_c, 11, 70, 127
2, 153377, Note_off_c, 3, 51, 127
2, 153379, Note_on_c, 10, 45, 127
2, 153379, Note_on_c, 3, 75, 127
2, 153379, Note_on_c, 0, 72, 127
2, 153379, Note_on_c, 6, 66, 127
2, 153765, Note_off_c, 6, 66, 127
2, 153765, Note_off_c, 10, 45, 127
2, 153768, Note_on_c, 7, 43, 127
2, 153768, Note_on_c, 7, 67, 127
2, 154147, Note_off_c, 0, 72, 127
2, 154152, Note_off_c, 7, 67, 127
2, 154152, Note_off_c, 7, 43, 127
2, 154155, Note_on_c, 6, 42, 127
2, 154155, Note_on_c, 10, 69, 127
2, 154155, Note_on_c, 0, 72, 127
2, 154541, Note_off_c, 6, 42, 127
2, 154541, Note_off_c, 3, 75, 127
2, 154544, Note_on_c, 7, 43, 127
2, 154544, Note_on_c, 2, 74, 127
2, 154923, Note_off_c, 0, 72, 127
2, 154923, Note_off_c, 10, 69, 127
2, 154928, Note_off_c, 2, 74, 127
2, 154928, Note_off_c, 7, 43, 127
2, 154932, Note_on_c, 10, 45, 127
2, 154932, Note_on_c, 3, 51, 127
2, 154932, Note_on_c, 6, 54, 127
2, 154932, Note_on_c, 0, 72, 127
2, 155254, Note_off_c, 0, 72, 127
2, 155367, Note_on_c, 6, 78, 127
2, 155700, Note_off_c, 3, 51, 127
2, 155753, Note_off_c, 6, 78, 127
2, 155757, Note_on_c, 7, 79, 127
2, 155821, Note_off_c, 6, 54, 127
2, 155821, Note_off_c, 10, 45, 127
2, 156141, Note_off_c, 7, 79, 127
2, 156143, Note_on_c, 10, 81, 127
2, 156529, Note_off_c, 10, 81, 127
2, 156532, Note_on_c, 11, 82, 127
2, 156532, Note_on_c, 2, 74, 127
2, 156532, Note_on_c, 6, 78, 127
2, 156922, Note_on_c, 2, 50, 127
2, 157307, Note_off_c, 6, 78, 127
2, 157307, Note_off_c, 2, 74, 127
2, 157307, Note_off_c, 11, 82, 127
2, 157308, Note_off_c, 2, 50, 127
2, 157310, Note_on_c, 7, 79, 127
2, 157310, Note_on_c, 11, 82, 127
2, 157310, Note_on_c, 2, 74, 127
2, 157310, Note_on_c, 11, 46, 127
2, 157696, Note_off_c, 11, 46, 127
2, 157699, Note_on_c, 10, 45, 127
2, 158085, Note_off_c, 10, 45, 127
2, 158085, Note_off_c, 2, 74, 127
2, 158085, Note_off_c, 11, 82, 127
2, 158085, Note_off_c, 7, 79, 127
2, 158089, Note_on_c, 11, 82, 127
2, 158089, Note_on_c, 2, 74, 127
2, 158089, Note_on_c, 7, 79, 127
2, 158089, Note_on_c, 7, 43, 127
2, 158475, Note_off_c, 7, 43, 127
2, 158477, Note_on_c, 5, 41, 127
2, 158837, Note_off_c, 7, 79, 127
2, 158837, Note_off_c, 2, 74, 127
2, 158837, Note_off_c, 11, 82, 127
2, 158863, Note_off_c, 5, 41, 127
2, 158866, Note_on_c, 2, 74, 127
2, 158866, Note_on_c, 7, 79, 127
2, 158866, Note_on_c, 11, 82, 127
2, 158866, Note_on_c, 3, 39, 127
2, 159252, Note_off_c, 11, 82, 127
2, 159252, Note_off_c, 7, 79, 127
2, 159252, Note_off_c, 2, 74, 127
2, 159255, Note_on_c, 10, 81, 127
2, 159255, Note_on_c, 0, 72, 127
2, 159634, Note_off_c, 3, 39, 127
2, 159639, Note_off_c, 0, 72, 127
2, 159639, Note_off_c, 10, 81, 127
2, 159642, Note_on_c, 0, 84, 127
2, 159642, Note_on_c, 3, 75, 127
2, 160028, Note_off_c, 3, 75, 127
2, 160028, Note_off_c, 0, 84, 127
2, 160031, Note_on_c, 2, 74, 127
2, 160031, Note_on_c, 11, 82, 127
2, 160031, Note_on_c, 11, 46, 127
2, 160417, Note_off_c, 11, 46, 127
2, 160417, Note_off_c, 11, 82, 127
2, 160417, Note_off_c, 2, 74, 127
2, 160420, Note_on_c, 10, 81, 127
2, 160420, Note_on_c, 0, 72, 127
2, 160420, Note_on_c, 0, 48, 127
2, 160806, Note_off_c, 0, 48, 127
2, 160806, Note_off_c, 0, 72, 127
2, 160806, Note_off_c, 10, 81, 127
2, 160809, Note_on_c, 11, 70, 127
2, 160809, Note_on_c, 7, 79, 127
2, 160809, Note_on_c, 2, 50, 127
2, 161195, Note_off_c, 2, 50, 127
2, 161195, Note_off_c, 7, 79, 127
2, 161195, Note_off_c, 11, 70, 127
2, 161198, Note_on_c, 10, 69, 127
2, 161198, Note_on_c, 6, 78, 127
2, 161198, Note_on_c, 3, 51, 127
2, 161584, Note_off_c, 6, 78, 127
2, 161584, Note_off_c, 10, 69, 127
2, 161586, Note_on_c, 7, 79, 127
2, 161586, Note_on_c, 11, 70, 127
2, 161972, Note_off_c, 11, 70, 127
2, 161972, Note_off_c, 7, 79, 127
2, 161973, Note_off_c, 3, 51, 127
2, 161976, Note_on_c, 2, 74, 127
2, 161976, Note_on_c, 11, 82, 127
2, 161976, Note_on_c, 6, 54, 127
2, 161976, Note_on_c, 2, 50, 127
2, 162362, Note_off_c, 11, 82, 127
2, 162362, Note_off_c, 2, 74, 127
2, 162364, Note_on_c, 0, 72, 127
2, 162364, Note_on_c, 10, 81, 127
2, 162750, Note_off_c, 10, 81, 127
2, 162750, Note_off_c, 0, 72, 127
2, 162751, Note_off_c, 6, 54, 127
2, 162753, Note_on_c, 7, 79, 127
2, 162753, Note_on_c, 11, 70, 127
2, 162753, Note_on_c, 2, 38, 127
2, 163049, Note_off_c, 2, 50, 127
2, 163139, Note_off_c, 11, 70, 127
2, 163139, Note_off_c, 7, 79, 127
2, 163143, Note_on_c, 10, 69, 127
2, 163143, Note_on_c, 6, 78, 127
2, 163528, Note_off_c, 2, 38, 127
2, 163529, Note_off_c, 6, 78, 127
2, 163529, Note_off_c, 10, 69, 127
2, 163531, Note_on_c, 7, 79, 127
2, 163531, Note_on_c, 11, 70, 127
2, 163531, Note_on_c, 7, 43, 127
2, 163917, Note_off_c, 7, 43, 127
2, 163920, Note_on_c, 2, 50, 127
2, 164306, Note_off_c, 2, 50, 127
2, 164306, Note_off_c, 11, 70, 127
2, 164306, Note_off_c, 7, 79, 127
2, 164310, Note_on_c, 7, 79, 127
2, 164310, Note_on_c, 2, 74, 127
2, 164310, Note_on_c, 11, 70, 127
2, 164310, Note_on_c, 3, 51, 127
2, 164696, Note_off_c, 3, 51, 127
2, 164698, Note_on_c, 2, 50, 127
2, 165084, Note_off_c, 2, 50, 127
2, 165087, Note_on_c, 6, 54, 127
2, 165473, Note_off_c, 6, 54, 127
2, 165474, Note_off_c, 11, 70, 127
2, 165474, Note_off_c, 2, 74, 127
2, 165474, Note_off_c, 7, 79, 127
2, 165475, Note_on_c, 7, 55, 127
2, 165878, Note_off_c, 7, 55, 127
2, 165912, Note_on_c, 11, 46, 127
2, 165912, Note_on_c, 7, 67, 127
2, 165912, Note_on_c, 4, 76, 127
2, 165912, Note_on_c, 0, 72, 127
2, 166685, Note_off_c, 0, 72, 127
2, 166685, Note_off_c, 4, 76, 127
2, 166685, Note_off_c, 7, 67, 127
2, 166685, Note_off_c, 11, 46, 127
2, 166688, Note_on_c, 11, 58, 127
2, 166688, Note_on_c, 7, 67, 127
2, 166688, Note_on_c, 2, 74, 127
2, 166688, Note_on_c, 5, 77, 127
2, 167074, Note_off_c, 5, 77, 127
2, 167074, Note_off_c, 2, 74, 127
2, 167077, Note_on_c, 4, 76, 127
2, 167077, Note_on_c, 0, 72, 127
2, 167463, Note_off_c, 0, 72, 127
2, 167463, Note_off_c, 4, 76, 127
2, 167463, Note_off_c, 7, 67, 127
2, 167463, Note_off_c, 11, 58, 127
2, 167466, Note_on_c, 11, 58, 127
2, 167466, Note_on_c, 7, 67, 127
2, 167466, Note_on_c, 4, 76, 127
2, 167466, Note_on_c, 7, 79, 127
2, 167852, Note_off_c, 7, 79, 127
2, 167852, Note_off_c, 4, 76, 127
2, 167855, Note_on_c, 5, 77, 127
2, 167855, Note_on_c, 10, 81, 127
2, 168241, Note_off_c, 10, 81, 127
2, 168241, Note_off_c, 5, 77, 127
2, 168241, Note_off_c, 11, 58, 127
2, 168244, Note_on_c, 10, 57, 127
2, 168244, Note_on_c, 4, 76, 127
2, 168244, Note_on_c, 11, 70, 127
2, 168630, Note_off_c, 11, 70, 127
2, 168630, Note_off_c, 4, 76, 127
2, 168630, Note_off_c, 7, 67, 127
2, 168633, Note_on_c, 5, 65, 127
2, 168633, Note_on_c, 5, 77, 127
2, 168633, Note_on_c, 0, 72, 127
2, 169019, Note_off_c, 0, 72, 127
2, 169019, Note_off_c, 5, 77, 127
2, 169019, Note_off_c, 5, 65, 127
2, 169022, Note_on_c, 10, 69, 127
2, 169022, Note_on_c, 5, 77, 127
2, 169022, Note_on_c, 0, 72, 127
2, 169408, Note_off_c, 10, 57, 127
2, 169411, Note_on_c, 0, 60, 127
2, 169797, Note_off_c, 0, 60, 127
2, 169799, Note_on_c, 11, 58, 127
2, 170185, Note_off_c, 11, 58, 127
2, 170186, Note_off_c, 0, 72, 127
2, 170186, Note_off_c, 10, 69, 127
2, 170189, Note_on_c, 10, 57, 127
2, 170575, Note_off_c, 10, 57, 127
2, 170577, Note_on_c, 8, 56, 127
2, 170577, Note_on_c, 2, 62, 127
2, 170577, Note_on_c, 12, 71, 127
2, 170844, Note_off_c, 5, 77, 127
2, 170963, Note_off_c, 2, 62, 127
2, 170966, Note_on_c, 12, 59, 127
2, 170966, Note_on_c, 4, 76, 127
2, 171345, Note_off_c, 12, 71, 127
2, 171345, Note_off_c, 8, 56, 127
2, 171350, Note_off_c, 4, 76, 127
2, 171350, Note_off_c, 12, 59, 127
2, 171354, Note_on_c, 4, 64, 127
2, 171354, Note_on_c, 8, 56, 127
2, 171354, Note_on_c, 2, 74, 127
2, 171354, Note_on_c, 12, 71, 127
2, 171740, Note_off_c, 2, 74, 127
2, 171742, Note_on_c, 12, 83, 127
2, 172122, Note_off_c, 12, 71, 127
2, 172126, Note_off_c, 12, 83, 127
2, 172127, Note_off_c, 8, 56, 127
2, 172127, Note_off_c, 4, 64, 127
2, 172129, Note_on_c, 8, 56, 127
2, 172129, Note_on_c, 4, 64, 127
2, 172129, Note_on_c, 4, 76, 127
2, 172129, Note_on_c, 12, 71, 127
2, 172515, Note_off_c, 4, 76, 127
2, 172519, Note_on_c, 2, 74, 127
2, 172897, Note_off_c, 12, 71, 127
2, 172902, Note_off_c, 8, 56, 127
2, 172903, Note_off_c, 2, 74, 127
2, 172905, Note_on_c, 7, 55, 127
2, 172905, Note_on_c, 1, 73, 127
2, 172905, Note_on_c, 10, 69, 127
2, 173291, Note_off_c, 1, 73, 127
2, 173291, Note_off_c, 4, 64, 127
2, 173295, Note_on_c, 2, 62, 127
2, 173295, Note_on_c, 2, 74, 127
2, 173673, Note_off_c, 10, 69, 127
2, 173679, Note_off_c, 2, 74, 127
2, 173679, Note_off_c, 2, 62, 127
2, 173681, Note_on_c, 1, 61, 127
2, 173681, Note_on_c, 4, 76, 127
2, 173681, Note_on_c, 10, 69, 127
2, 174067, Note_off_c, 7, 55, 127
2, 174070, Note_on_c, 11, 58, 127
2, 174456, Note_off_c, 11, 58, 127
2, 174460, Note_on_c, 10, 57, 127
2, 174845, Note_off_c, 1, 61, 127
2, 174846, Note_off_c, 10, 57, 127
2, 174848, Note_on_c, 7, 55, 127
2, 175058, Note_off_c, 10, 69, 127
2, 175234, Note_off_c, 7, 55, 127
2, 175237, Note_on_c, 5, 65, 127
2, 175237, Note_on_c, 5, 53, 127
2, 175237, Note_on_c, 10, 69, 127
2, 175625, Note_off_c, 4, 76, 127
2, 175625, Note_on_c, 10, 81, 127
2, 176005, Note_off_c, 10, 69, 127
2, 176009, Note_off_c, 10, 81, 127
2, 176010, Note_off_c, 5, 53, 127
2, 176010, Note_off_c, 5, 65, 127
2, 176013, Note_on_c, 5, 53, 127
2, 176013, Note_on_c, 2, 62, 127
2, 176013, Note_on_c, 5, 77, 127
2, 176013, Note_on_c, 10, 69, 127
2, 176399, Note_off_c, 5, 77, 127
2, 176402, Note_on_c, 4, 76, 127
2, 176781, Note_off_c, 10, 69, 127
2, 176786, Note_off_c, 4, 76, 127
2, 176786, Note_off_c, 2, 62, 127
2, 176786, Note_off_c, 5, 53, 127
2, 176789, Note_on_c, 5, 53, 127
2, 176789, Note_on_c, 2, 62, 127
2, 176789, Note_on_c, 10, 69, 127
2, 176789, Note_on_c, 2, 74, 127
2, 177175, Note_off_c, 2, 74, 127
2, 177178, Note_on_c, 0, 72, 127
2, 177557, Note_off_c, 10, 69, 127
2, 177562, Note_off_c, 0, 72, 127
2, 177562, Note_off_c, 2, 62, 127
2, 177562, Note_off_c, 5, 53, 127
2, 177564, Note_on_c, 11, 70, 127
2, 177564, Note_on_c, 7, 67, 127
2, 177564, Note_on_c, 2, 62, 127
2, 177564, Note_on_c, 5, 53, 127
2, 177959, Note_off_c, 11, 70, 127
2, 177963, Note_on_c, 7, 79, 127
2, 178354, Note_off_c, 7, 67, 127
2, 178358, Note_off_c, 7, 79, 127
2, 178360, Note_off_c, 5, 53, 127
2, 178360, Note_off_c, 2, 62, 127
2, 178363, Note_on_c, 7, 67, 127
2, 178363, Note_on_c, 1, 73, 127
2, 178363, Note_on_c, 4, 64, 127
2, 178363, Note_on_c, 4, 52, 127
2, 178758, Note_off_c, 4, 52, 127
2, 178758, Note_off_c, 1, 73, 127
2, 178764, Note_on_c, 11, 70, 127
2, 178764, Note_on_c, 2, 50, 127
2, 179153, Note_off_c, 4, 64, 127
2, 179153, Note_off_c, 7, 67, 127
2, 179159, Note_off_c, 2, 50, 127
2, 179159, Note_off_c, 11, 70, 127
2, 179164, Note_on_c, 4, 64, 127
2, 179164, Note_on_c, 10, 69, 127
2, 179164, Note_on_c, 10, 57, 127
2, 179164, Note_on_c, 1, 49, 127
2, 179559, Note_off_c, 10, 69, 127
2, 179563, Note_on_c, 7, 67, 127
2, 179936, Note_off_c, 7, 67, 127
2, 179954, Note_off_c, 4, 64, 127
2, 179960, Note_off_c, 1, 49, 127
2, 179960, Note_off_c, 10, 57, 127
2, 179962, Note_on_c, 2, 50, 127
2, 179962, Note_on_c, 10, 57, 127
2, 179962, Note_on_c, 5, 65, 127
2, 179962, Note_on_c, 2, 62, 127
2, 180367, Note_off_c, 2, 62, 127
2, 180367, Note_off_c, 5, 65, 127
2, 180367, Note_off_c, 10, 57, 127
2, 180367, Note_off_c, 2, 50, 127
2, 180373, Note_on_c, 7, 55, 127
2, 180373, Note_on_c, 4, 52, 127
2, 180373, Note_on_c, 1, 61, 127
2, 180373, Note_on_c, 11, 70, 127
2, 180778, Note_off_c, 11, 70, 127
2, 180778, Note_off_c, 1, 61, 127
2, 180778, Note_off_c, 4, 52, 127
2, 180778, Note_off_c, 7, 55, 127
2, 180785, Note_on_c, 5, 53, 127
2, 180785, Note_on_c, 8, 68, 127
2, 180785, Note_on_c, 2, 62, 127
2, 181190, Note_off_c, 8, 68, 127
2, 181190, Note_off_c, 5, 53, 127
2, 181196, Note_on_c, 10, 69, 127
2, 181196, Note_on_c, 2, 50, 127
2, 181589, Note_off_c, 10, 69, 127
2, 181596, Note_off_c, 2, 62, 127
2, 181615, Note_off_c, 2, 50, 127
2, 181619, Note_on_c, 10, 69, 127
2, 181619, Note_on_c, 5, 77, 127
2, 181619, Note_on_c, 10, 57, 127
2, 181619, Note_on_c, 1, 61, 127
2, 182038, Note_off_c, 1, 61, 127
2, 182038, Note_off_c, 5, 77, 127
2, 182038, Note_off_c, 10, 69, 127
2, 182044, Note_on_c, 7, 67, 127
2, 182044, Note_on_c, 4, 76, 127
2, 182044, Note_on_c, 4, 64, 127
2, 182437, Note_off_c, 4, 76, 127
2, 182457, Note_off_c, 10, 57, 127
2, 182463, Note_off_c, 4, 64, 127
2, 182463, Note_off_c, 7, 67, 127
2, 182469, Note_on_c, 2, 50, 127
2, 182469, Note_on_c, 11, 58, 127
2, 182469, Note_on_c, 4, 64, 127
2, 182469, Note_on_c, 1, 73, 127
2, 182469, Note_on_c, 7, 67, 127
2, 182899, Note_off_c, 1, 73, 127
2, 182899, Note_off_c, 4, 64, 127
2, 182919, Note_on_c, 2, 62, 127
2, 182919, Note_on_c, 2, 74, 127
2, 183389, Note_off_c, 2, 62, 127
2, 183393, Note_off_c, 11, 58, 127
2, 183394, Note_off_c, 2, 50, 127
2, 183396, Note_off_c, 2, 74, 127
2, 183401, Note_off_c, 7, 67, 127
2, 183417, Note_on_c, 10, 57, 127
2, 183417, Note_on_c, 2, 50, 127
2, 183417, Note_on_c, 2, 62, 127
2, 183417, Note_on_c, 2, 74, 127
2, 183417, Note_on_c, 6, 66, 127
2, 185253, Note_off_c, 2, 74, 127
2, 185304, Note_off_c, 6, 66, 127
2, 185355, Note_off_c, 2, 62, 127
2, 185406, Note_off_c, 10, 57, 127
2, 185457, Note_off_c, 2, 50, 127
2, 185845, Note_on_c, 2, 74, 127
2, 185845, Note_on_c, 5, 65, 127
2, 185845, Note_on_c, 2, 62, 127
2, 186022, Note_off_c, 2, 74, 127
2, 186026, Note_on_c, 5, 77, 127
2, 186203, Note_off_c, 5, 77, 127
2, 186203, Note_off_c, 5, 65, 127
2, 186205, Note_on_c, 11, 82, 127
2, 186205, Note_on_c, 7, 67, 127
2, 186382, Note_off_c, 11, 82, 127
2, 186386, Note_on_c, 4, 76, 127
2, 186563, Note_off_c, 4, 76, 127
2, 186563, Note_off_c, 7, 67, 127
2, 186566, Note_on_c, 5, 77, 127
2, 186566, Note_on_c, 10, 69, 127
2, 186743, Note_off_c, 5, 77, 127
2, 186747, Note_on_c, 10, 81, 127
2, 186924, Note_off_c, 10, 81, 127
2, 186924, Note_off_c, 10, 69, 127
2, 186927, Note_on_c, 11, 70, 127
2, 186927, Note_on_c, 7, 67, 127
2, 187104, Note_off_c, 11, 70, 127
2, 187107, Note_on_c, 2, 74, 127
2, 187284, Note_off_c, 2, 74, 127
2, 187285, Note_off_c, 7, 67, 127
2, 187288, Note_on_c, 7, 79, 127
2, 187288, Note_on_c, 5, 65, 127
2, 187465, Note_off_c, 5, 65, 127
2, 187465, Note_off_c, 7, 79, 127
2, 187467, Note_on_c, 1, 73, 127
2, 187467, Note_on_c, 4, 64, 127
2, 187644, Note_off_c, 4, 64, 127
2, 187644, Note_off_c, 1, 73, 127
2, 187648, Note_on_c, 2, 74, 127
2, 187648, Note_on_c, 5, 65, 127
2, 187825, Note_off_c, 2, 74, 127
2, 187828, Note_on_c, 5, 77, 127
2, 188005, Note_off_c, 5, 77, 127
2, 188005, Note_off_c, 2, 62, 127
2, 188008, Note_on_c, 7, 67, 127
2, 188008, Note_on_c, 11, 58, 127
2, 188186, Note_off_c, 5, 65, 127
2, 188188, Note_on_c, 4, 64, 127
2, 188365, Note_off_c, 4, 64, 127
2, 188366, Note_off_c, 7, 67, 127
2, 188369, Note_on_c, 10, 69, 127
2, 188369, Note_on_c, 2, 62, 127
2, 188455, Note_off_c, 10, 69, 127
2, 188458, Note_on_c, 7, 67, 127
2, 188544, Note_off_c, 7, 67, 127
2, 188544, Note_off_c, 2, 62, 127
2, 188547, Note_on_c, 10, 69, 127
2, 188547, Note_on_c, 1, 61, 127
2, 188633, Note_off_c, 10, 69, 127
2, 188636, Note_on_c, 7, 67, 127
2, 188722, Note_off_c, 7, 67, 127
2, 188722, Note_off_c, 1, 61, 127
2, 188725, Note_on_c, 10, 69, 127
2, 188725, Note_on_c, 2, 62, 127
2, 188811, Note_off_c, 10, 69, 127
2, 188815, Note_on_c, 7, 67, 127
2, 188900, Note_off_c, 2, 62, 127
2, 188901, Note_off_c, 7, 67, 127
2, 188903, Note_on_c, 5, 65, 127
2, 188903, Note_on_c, 4, 64, 127
2, 188989, Note_off_c, 5, 65, 127
2, 188993, Note_on_c, 7, 67, 127
2, 189078, Note_off_c, 4, 64, 127
2, 189079, Note_off_c, 7, 67, 127
2, 189079, Note_off_c, 11, 58, 127
2, 189082, Note_on_c, 10, 69, 127
2, 189082, Note_on_c, 2, 62, 127
2, 189082, Note_on_c, 10, 57, 127
2, 189259, Note_off_c, 2, 62, 127
2, 189262, Note_on_c, 1, 61, 127
2, 189439, Note_off_c, 1, 61, 127
2, 189443, Note_on_c, 12, 59, 127
2, 189620, Note_off_c, 12, 59, 127
2, 189622, Note_on_c, 1, 61, 127
2, 189794, Note_off_c, 10, 57, 127
2, 189799, Note_off_c, 1, 61, 127
2, 189803, Note_on_c, 10, 57, 127
2, 189983, Note_on_c, 7, 55, 127
2, 190160, Note_off_c, 7, 55, 127
2, 190161, Note_off_c, 10, 57, 127
2, 190163, Note_on_c, 2, 62, 127
2, 190163, Note_on_c, 5, 53, 127
2, 190341, Note_off_c, 10, 69, 127
2, 190344, Note_on_c, 5, 77, 127
2, 190521, Note_off_c, 5, 77, 127
2, 190521, Note_off_c, 2, 62, 127
2, 190524, Note_on_c, 4, 76, 127
2, 190524, Note_on_c, 0, 60, 127
2, 190701, Note_off_c, 0, 60, 127
2, 190701, Note_off_c, 4, 76, 127
2, 190704, Note_on_c, 2, 74, 127
2, 190704, Note_on_c, 12, 59, 127
2, 190881, Note_off_c, 12, 59, 127
2, 190881, Note_off_c, 2, 74, 127
2, 190884, Note_on_c, 4, 76, 127
2, 190884, Note_on_c, 0, 60, 127
2, 191061, Note_off_c, 0, 60, 127
2, 191061, Note_off_c, 4, 76, 127
2, 191065, Note_on_c, 10, 81, 127
2, 191065, Note_on_c, 10, 57, 127
2, 191242, Note_off_c, 10, 57, 127
2, 191242, Note_off_c, 10, 81, 127
2, 191245, Note_on_c, 2, 74, 127
2, 191245, Note_on_c, 8, 56, 127
2, 191422, Note_off_c, 2, 74, 127
2, 191425, Note_on_c, 10, 81, 127
2, 191602, Note_off_c, 10, 81, 127
2, 191602, Note_off_c, 5, 53, 127
2, 191603, Note_off_c, 8, 56, 127
2, 191605, Note_on_c, 8, 80, 127
2, 191605, Note_on_c, 12, 59, 127
2, 191605, Note_on_c, 4, 52, 127
2, 191691, Note_off_c, 12, 59, 127
2, 191694, Note_on_c, 10, 57, 127
2, 191780, Note_off_c, 10, 57, 127
2, 191780, Note_off_c, 8, 80, 127
2, 191784, Note_on_c, 6, 78, 127
2, 191784, Note_on_c, 8, 56, 127
2, 191870, Note_off_c, 8, 56, 127
2, 191872, Note_on_c, 10, 57, 127
2, 191958, Note_off_c, 10, 57, 127
2, 191958, Note_off_c, 4, 52, 127
2, 191959, Note_off_c, 6, 78, 127
2, 191962, Note_on_c, 8, 80, 127
2, 191962, Note_on_c, 12, 59, 127
2, 191962, Note_on_c, 2, 50, 127
2, 192139, Note_off_c, 8, 80, 127
2, 192142, Note_on_c, 12, 83, 127
2, 192319, Note_off_c, 12, 83, 127
2, 192320, Note_off_c, 2, 50, 127
2, 192320, Note_off_c, 12, 59, 127
2, 192322, Note_on_c, 10, 81, 127
2, 192322, Note_on_c, 4, 52, 127
2, 192322, Note_on_c, 0, 48, 127
2, 192499, Note_off_c, 10, 81, 127
2, 192503, Note_on_c, 4, 76, 127
2, 192680, Note_off_c, 4, 76, 127
2, 192680, Note_off_c, 0, 48, 127
2, 192680, Note_off_c, 4, 52, 127
2, 192682, Note_on_c, 2, 74, 127
2, 192682, Note_on_c, 10, 57, 127
2, 192682, Note_on_c, 2, 50, 127
2, 192859, Note_off_c, 2, 74, 127
2, 192863, Note_on_c, 0, 72, 127
2, 193040, Note_off_c, 0, 72, 127
2, 193040, Note_off_c, 2, 50, 127
2, 193040, Note_off_c, 10, 57, 127
2, 193043, Note_on_c, 12, 71, 127
2, 193043, Note_on_c, 8, 56, 127
2, 193043, Note_on_c, 4, 52, 127
2, 193220, Note_off_c, 12, 71, 127
2, 193224, Note_on_c, 0, 72, 127
2, 193401, Note_off_c, 0, 72, 127
2, 193401, Note_off_c, 4, 52, 127
2, 193401, Note_off_c, 8, 56, 127
2, 193404, Note_on_c, 12, 71, 127
2, 193404, Note_on_c, 10, 57, 127
2, 193404, Note_on_c, 10, 45, 127
2, 193747, Note_on_c, 10, 69, 127
2, 193759, Note_off_c, 12, 71, 127
2, 194300, Note_off_c, 10, 45, 127
2, 194300, Note_off_c, 10, 57, 127
2, 194453, Note_off_c, 10, 69, 127
2, 194482, Note_on_c, 10, 69, 127
2, 194482, Note_on_c, 5, 65, 127
2, 194482, Note_on_c, 5, 53, 127
2, 194661, Note_on_c, 10, 57, 127
2, 194837, Note_off_c, 5, 53, 127
2, 194838, Note_off_c, 10, 57, 127
2, 194840, Note_off_c, 10, 69, 127
2, 194842, Note_on_c, 0, 72, 127
2, 194842, Note_on_c, 2, 62, 127
2, 194928, Note_off_c, 0, 72, 127
2, 194931, Note_on_c, 11, 70, 127
2, 195017, Note_off_c, 11, 70, 127
2, 195017, Note_off_c, 2, 62, 127
2, 195020, Note_on_c, 10, 69, 127
2, 195020, Note_on_c, 7, 55, 127
2, 195106, Note_off_c, 10, 69, 127
2, 195109, Note_on_c, 11, 70, 127
2, 195195, Note_off_c, 11, 70, 127
2, 195195, Note_off_c, 7, 55, 127
2, 195199, Note_on_c, 0, 72, 127
2, 195199, Note_on_c, 10, 57, 127
2, 195376, Note_off_c, 10, 57, 127
2, 195379, Note_on_c, 0, 60, 127
2, 195556, Note_off_c, 0, 60, 127
2, 195557, Note_off_c, 0, 72, 127
2, 195559, Note_on_c, 11, 70, 127
2, 195559, Note_on_c, 2, 50, 127
2, 195739, Note_on_c, 5, 53, 127
2, 195914, Note_off_c, 2, 50, 127
2, 195916, Note_off_c, 5, 53, 127
2, 195917, Note_off_c, 11, 70, 127
2, 195920, Note_on_c, 10, 69, 127
2, 195920, Note_on_c, 11, 58, 127
2, 196097, Note_off_c, 11, 58, 127
2, 196097, Note_off_c, 10, 69, 127
2, 196099, Note_on_c, 7, 67, 127
2, 196099, Note_on_c, 4, 52, 127
2, 196276, Note_off_c, 4, 52, 127
2, 196276, Note_off_c, 7, 67, 127
2, 196280, Note_on_c, 10, 69, 127
2, 196280, Note_on_c, 5, 53, 127
2, 196457, Note_off_c, 5, 53, 127
2, 196460, Note_on_c, 10, 57, 127
2, 196637, Note_off_c, 10, 57, 127
2, 196638, Note_off_c, 5, 65, 127
2, 196640, Note_on_c, 2, 62, 127
2, 196640, Note_on_c, 11, 46, 127
2, 196728, Note_off_c, 10, 69, 127
2, 196818, Note_on_c, 7, 67, 127
2, 196995, Note_off_c, 7, 67, 127
2, 196995, Note_off_c, 11, 46, 127
2, 196999, Note_on_c, 5, 65, 127
2, 196999, Note_on_c, 0, 48, 127
2, 197085, Note_off_c, 0, 48, 127
2, 197088, Note_on_c, 12, 47, 127
2, 197174, Note_off_c, 12, 47, 127
2, 197174, Note_off_c, 5, 65, 127
2, 197178, Note_on_c, 4, 64, 127
2, 197178, Note_on_c, 0, 48, 127
2, 197264, Note_off_c, 0, 48, 127
2, 197266, Note_on_c, 12, 47, 127
2, 197352, Note_off_c, 12, 47, 127
2, 197353, Note_off_c, 4, 64, 127
2, 197356, Note_on_c, 5, 65, 127
2, 197356, Note_on_c, 0, 48, 127
2, 197442, Note_off_c, 0, 48, 127
2, 197445, Note_on_c, 12, 47, 127
2, 197531, Note_off_c, 12, 47, 127
2, 197531, Note_off_c, 5, 65, 127
2, 197533, Note_on_c, 7, 67, 127
2, 197533, Note_on_c, 10, 45, 127
2, 197619, Note_off_c, 10, 45, 127
2, 197623, Note_on_c, 12, 47, 127
2, 197708, Note_off_c, 7, 67, 127
2, 197709, Note_off_c, 12, 47, 127
2, 197709, Note_off_c, 2, 62, 127
2, 197712, Note_on_c, 5, 65, 127
2, 197712, Note_on_c, 0, 60, 127
2, 197712, Note_on_c, 0, 48, 127
2, 197889, Note_off_c, 5, 65, 127
2, 197893, Note_on_c, 4, 64, 127
2, 198070, Note_off_c, 4, 64, 127
2, 198070, Note_off_c, 0, 48, 127
2, 198073, Note_on_c, 2, 62, 127
2, 198073, Note_on_c, 2, 50, 127
2, 198250, Note_off_c, 2, 62, 127
2, 198253, Note_on_c, 4, 64, 127
2, 198424, Note_off_c, 0, 60, 127
2, 198430, Note_off_c, 4, 64, 127
2, 198431, Note_off_c, 2, 50, 127
2, 198433, Note_on_c, 0, 60, 127
2, 198433, Note_on_c, 4, 52, 127
2, 198614, Note_on_c, 11, 58, 127
2, 198731, Note_off_c, 0, 60, 127
2, 198791, Note_off_c, 11, 58, 127
2, 198791, Note_off_c, 4, 52, 127
2, 198794, Note_on_c, 5, 65, 127
2, 198794, Note_on_c, 10, 57, 127
2, 198794, Note_on_c, 3, 51, 127
2, 198971, Note_off_c, 10, 57, 127
2, 198974, Note_on_c, 0, 60, 127
2, 199151, Note_off_c, 0, 60, 127
2, 199152, Note_off_c, 3, 51, 127
2, 199154, Note_on_c, 2, 62, 127
2, 199154, Note_on_c, 5, 53, 127
2, 199331, Note_off_c, 5, 53, 127
2, 199331, Note_off_c, 2, 62, 127
2, 199335, Note_on_c, 7, 55, 127
2, 199335, Note_on_c, 3, 51, 127
2, 199512, Note_off_c, 3, 51, 127
2, 199512, Note_off_c, 7, 55, 127
2, 199514, Note_on_c, 10, 57, 127
2, 199514, Note_on_c, 2, 50, 127
2, 199691, Note_off_c, 2, 50, 127
2, 199691, Note_off_c, 10, 57, 127
2, 199695, Note_on_c, 0, 60, 127
2, 199695, Note_on_c, 0, 48, 127
2, 199872, Note_off_c, 0, 48, 127
2, 199872, Note_off_c, 0, 60, 127
2, 199875, Note_on_c, 5, 53, 127
2, 199875, Note_on_c, 2, 50, 127
2, 200052, Note_off_c, 5, 53, 127
2, 200055, Note_on_c, 10, 57, 127
2, 200232, Note_off_c, 10, 57, 127
2, 200233, Note_off_c, 2, 50, 127
2, 200235, Note_on_c, 11, 58, 127
2, 200235, Note_on_c, 0, 48, 127
2, 200412, Note_off_c, 0, 48, 127
2, 200412, Note_off_c, 11, 58, 127
2, 200416, Note_on_c, 4, 52, 127
2, 200416, Note_on_c, 11, 46, 127
2, 200593, Note_off_c, 11, 46, 127
2, 200593, Note_off_c, 4, 52, 127
2, 200597, Note_on_c, 5, 53, 127
2, 200597, Note_on_c, 10, 45, 127
2, 200774, Note_off_c, 10, 45, 127
2, 200774, Note_off_c, 5, 53, 127
2, 200776, Note_on_c, 10, 57, 127
2, 200776, Note_on_c, 7, 43, 127
2, 200953, Note_off_c, 7, 43, 127
2, 200953, Note_off_c, 10, 57, 127
2, 200957, Note_on_c, 0, 60, 127
2, 200957, Note_on_c, 10, 45, 127
2, 201312, Note_off_c, 10, 45, 127
2, 201312, Note_off_c, 0, 60, 127
2, 201313, Note_off_c, 5, 65, 127
2, 201315, Note_on_c, 7, 67, 127
2, 201315, Note_on_c, 11, 58, 127
2, 201315, Note_on_c, 11, 46, 127
2, 201492, Note_off_c, 11, 58, 127
2, 201495, Note_on_c, 10, 57, 127
2, 201613, Note_off_c, 7, 67, 127
2, 201672, Note_off_c, 10, 57, 127
2, 201673, Note_off_c, 11, 46, 127
2, 201676, Note_on_c, 4, 64, 127
2, 201676, Note_on_c, 7, 55, 127
2, 201676, Note_on_c, 0, 48, 127
2, 201853, Note_off_c, 7, 55, 127
2, 201856, Note_on_c, 10, 57, 127
2, 201974, Note_off_c, 4, 64, 127
2, 202033, Note_off_c, 10, 57, 127
2, 202034, Note_off_c, 0, 48, 127
2, 202036, Note_on_c, 5, 65, 127
2, 202036, Note_on_c, 5, 53, 127
2, 202213, Note_off_c, 5, 65, 127
2, 202216, Note_on_c, 4, 64, 127
2, 202393, Note_off_c, 4, 64, 127
2, 202397, Note_on_c, 5, 65, 127
2, 202397, Note_on_c, 5, 41, 127
2, 202574, Note_off_c, 5, 65, 127
2, 202576, Note_on_c, 7, 67, 127
2, 202748, Note_off_c, 5, 53, 127
2, 202753, Note_off_c, 7, 67, 127
2, 202755, Note_off_c, 5, 41, 127
2, 202757, Note_on_c, 10, 69, 127
2, 202757, Note_on_c, 7, 43, 127
2, 202934, Note_off_c, 10, 69, 127
2, 202937, Note_on_c, 11, 70, 127
2, 203114, Note_off_c, 11, 70, 127
2, 203115, Note_off_c, 7, 43, 127
2, 203117, Note_on_c, 0, 72, 127
2, 203117, Note_on_c, 10, 45, 127
2, 203294, Note_off_c, 0, 72, 127
2, 203298, Note_on_c, 3, 75, 127
2, 203475, Note_off_c, 3, 75, 127
2, 203475, Note_off_c, 10, 45, 127
2, 203478, Note_on_c, 2, 74, 127
2, 203478, Note_on_c, 5, 53, 127
2, 203478, Note_on_c, 11, 46, 127
2, 203655, Note_off_c, 5, 53, 127
2, 203655, Note_off_c, 2, 74, 127
2, 203659, Note_on_c, 0, 72, 127
2, 203659, Note_on_c, 4, 52, 127
2, 203836, Note_off_c, 4, 52, 127
2, 203836, Note_off_c, 0, 72, 127
2, 203838, Note_on_c, 2, 74, 127
2, 203838, Note_on_c, 5, 53, 127
2, 204015, Note_off_c, 2, 74, 127
2, 204016, Note_off_c, 11, 46, 127
2, 204019, Note_on_c, 11, 70, 127
2, 204019, Note_on_c, 7, 43, 127
2, 204193, Note_off_c, 5, 53, 127
2, 204196, Note_off_c, 7, 43, 127
2, 204196, Note_off_c, 11, 70, 127
2, 204199, Note_on_c, 7, 67, 127
2, 204199, Note_on_c, 0, 48, 127
2, 204376, Note_off_c, 0, 48, 127
2, 204376, Note_off_c, 7, 67, 127
2, 204379, Note_on_c, 5, 77, 127
2, 204379, Note_on_c, 12, 47, 127
2, 204556, Note_off_c, 12, 47, 127
2, 204556, Note_off_c, 5, 77, 127
2, 204559, Note_on_c, 4, 76, 127
2, 204559, Note_on_c, 7, 55, 127
2, 204559, Note_on_c, 0, 48, 127
2, 204736, Note_off_c, 7, 55, 127
2, 204736, Note_off_c, 4, 76, 127
2, 204740, Note_on_c, 2, 74, 127
2, 204740, Note_on_c, 5, 53, 127
2, 204917, Note_off_c, 5, 53, 127
2, 204917, Note_off_c, 2, 74, 127
2, 204919, Note_on_c, 4, 76, 127
2, 204919, Note_on_c, 7, 55, 127
2, 205096, Note_off_c, 4, 76, 127
2, 205097, Note_off_c, 0, 48, 127
2, 205100, Note_on_c, 0, 72, 127
2, 205100, Note_on_c, 10, 45, 127
2, 205274, Note_off_c, 7, 55, 127
2, 205277, Note_off_c, 10, 45, 127
2, 205277, Note_off_c, 0, 72, 127
2, 205280, Note_on_c, 10, 69, 127
2, 205280, Note_on_c, 2, 50, 127
2, 205457, Note_off_c, 2, 50, 127
2, 205457, Note_off_c, 10, 69, 127
2, 205461, Note_on_c, 7, 79, 127
2, 205461, Note_on_c, 1, 49, 127
2, 205638, Note_off_c, 1, 49, 127
2, 205638, Note_off_c, 7, 79, 127
2, 205640, Note_on_c, 5, 77, 127
2, 205640, Note_on_c, 10, 57, 127
2, 205640, Note_on_c, 2, 50, 127
2, 205817, Note_off_c, 5, 77, 127
2, 205821, Note_on_c, 4, 76, 127
2, 205998, Note_off_c, 4, 76, 127
2, 205998, Note_off_c, 2, 50, 127
2, 205998, Note_off_c, 10, 57, 127
2, 206002, Note_on_c, 5, 77, 127
2, 206002, Note_on_c, 2, 62, 127
2, 206002, Note_on_c, 11, 58, 127
2, 206179, Note_off_c, 5, 77, 127
2, 206181, Note_on_c, 2, 74, 127
2, 206358, Note_off_c, 2, 74, 127
2, 206360, Note_off_c, 2, 62, 127
2, 206362, Note_on_c, 4, 76, 127
2, 206362, Note_on_c, 1, 61, 127
2, 206539, Note_off_c, 1, 61, 127
2, 206539, Note_off_c, 4, 76, 127
2, 206542, Note_on_c, 2, 74, 127
2, 206542, Note_on_c, 2, 62, 127
2, 206638, Note_off_c, 11, 58, 127
2, 206717, Note_off_c, 2, 62, 127
2, 206717, Note_off_c, 2, 74, 127
2, 206721, Note_on_c, 1, 73, 127
2, 206721, Note_on_c, 4, 64, 127
2, 206721, Note_on_c, 10, 57, 127
2, 206898, Note_off_c, 10, 57, 127
2, 206898, Note_off_c, 1, 73, 127
2, 206900, Note_on_c, 12, 71, 127
2, 206900, Note_on_c, 7, 55, 127
2, 207077, Note_off_c, 7, 55, 127
2, 207077, Note_off_c, 12, 71, 127
2, 207079, Note_off_c, 4, 64, 127
2, 207081, Note_on_c, 1, 73, 127
2, 207081, Note_on_c, 10, 57, 127
2, 207081, Note_on_c, 5, 53, 127
2, 207258, Note_off_c, 5, 53, 127
2, 207258, Note_off_c, 1, 73, 127
2, 207261, Note_on_c, 10, 69, 127
2, 207261, Note_on_c, 4, 52, 127
2, 207438, Note_off_c, 4, 52, 127
2, 207438, Note_off_c, 10, 69, 127
2, 207439, Note_off_c, 10, 57, 127
2, 207441, Note_on_c, 2, 74, 127
2, 207441, Note_on_c, 10, 69, 127
2, 207441, Note_on_c, 6, 54, 127
2, 207621, Note_on_c, 10, 57, 127
2, 207796, Note_off_c, 6, 54, 127
2, 207798, Note_off_c, 10, 57, 127
2, 207799, Note_off_c, 10, 69, 127
2, 207802, Note_on_c, 0, 72, 127
2, 207802, Note_on_c, 2, 62, 127
2, 207888, Note_off_c, 0, 72, 127
2, 207891, Note_on_c, 11, 70, 127
2, 207977, Note_off_c, 11, 70, 127
2, 207977, Note_off_c, 2, 62, 127
2, 207980, Note_on_c, 10, 69, 127
2, 207980, Note_on_c, 7, 55, 127
2, 208066, Note_off_c, 10, 69, 127
2, 208069, Note_on_c, 11, 70, 127
2, 208155, Note_off_c, 11, 70, 127
2, 208155, Note_off_c, 7, 55, 127
2, 208158, Note_on_c, 0, 72, 127
2, 208158, Note_on_c, 10, 57, 127
2, 208335, Note_off_c, 10, 57, 127
2, 208338, Note_on_c, 0, 60, 127
2, 208515, Note_off_c, 0, 60, 127
2, 208516, Note_off_c, 0, 72, 127
2, 208519, Note_on_c, 0, 72, 127
2, 208519, Note_on_c, 2, 50, 127
2, 208696, Note_off_c, 0, 72, 127
2, 208699, Note_on_c, 11, 70, 127
2, 208699, Note_on_c, 7, 55, 127
2, 208874, Note_off_c, 2, 50, 127
2, 208876, Note_off_c, 7, 55, 127
2, 208876, Note_off_c, 11, 70, 127
2, 208879, Note_on_c, 10, 69, 127
2, 208879, Note_on_c, 11, 58, 127
2, 209056, Note_off_c, 11, 58, 127
2, 209056, Note_off_c, 10, 69, 127
2, 209059, Note_on_c, 7, 67, 127
2, 209059, Note_on_c, 4, 52, 127
2, 209236, Note_off_c, 4, 52, 127
2, 209236, Note_off_c, 7, 67, 127
2, 209240, Note_on_c, 10, 69, 127
2, 209240, Note_on_c, 5, 53, 127
2, 209417, Note_off_c, 5, 53, 127
2, 209420, Note_on_c, 10, 57, 127
2, 209597, Note_off_c, 10, 57, 127
2, 209598, Note_off_c, 10, 69, 127
2, 209600, Note_on_c, 5, 65, 127
2, 209600, Note_on_c, 11, 46, 127
2, 209876, Note_off_c, 2, 74, 127
2, 209937, Note_off_c, 5, 65, 127
2, 209958, Note_off_c, 11, 46, 127
2, 209960, Note_on_c, 5, 77, 127
2, 209960, Note_on_c, 7, 67, 127
2, 209960, Note_on_c, 7, 43, 127
2, 210137, Note_off_c, 5, 77, 127
2, 210141, Note_on_c, 4, 76, 127
2, 210318, Note_off_c, 4, 76, 127
2, 210318, Note_off_c, 7, 43, 127
2, 210318, Note_off_c, 7, 67, 127
2, 210321, Note_on_c, 2, 74, 127
2, 210321, Note_on_c, 4, 64, 127
2, 210321, Note_on_c, 10, 45, 127
2, 210498, Note_off_c, 2, 74, 127
2, 210502, Note_on_c, 1, 73, 127
2, 210679, Note_off_c, 1, 73, 127
2, 210679, Note_off_c, 10, 45, 127
2, 210679, Note_off_c, 4, 64, 127
2, 210681, Note_on_c, 2, 74, 127
2, 210681, Note_on_c, 2, 62, 127
2, 210681, Note_on_c, 2, 50, 127
2, 210681, Note_on_c, 2, 38, 127
2, 211577, Note_off_c, 2, 38, 127
2, 211577, Note_off_c, 2, 62, 127
2, 211689, Note_off_c, 2, 50, 127
2, 211746, Note_off_c, 2, 74, 127
2, 211759, Note_on_c, 10, 69, 127
2, 211759, Note_on_c, 5, 65, 127
2, 211759, Note_on_c, 2, 50, 127
2, 212057, Note_off_c, 10, 69, 127
2, 212117, Note_off_c, 2, 50, 127
2, 212117, Note_off_c, 5, 65, 127
2, 212119, Note_on_c, 11, 70, 127
2, 212119, Note_on_c, 5, 65, 127
2, 212119, Note_on_c, 2, 62, 127
2, 212205, Note_off_c, 11, 70, 127
2, 212209, Note_on_c, 10, 69, 127
2, 212295, Note_off_c, 10, 69, 127
2, 212298, Note_on_c, 11, 70, 127
2, 212384, Note_off_c, 11, 70, 127
2, 212387, Note_on_c, 10, 69, 127
2, 212472, Note_off_c, 2, 62, 127
2, 212473, Note_off_c, 10, 69, 127
2, 212476, Note_on_c, 11, 70, 127
2, 212476, Note_on_c, 0, 60, 127
2, 212562, Note_off_c, 11, 70, 127
2, 212565, Note_on_c, 10, 69, 127
2, 212651, Note_off_c, 10, 69, 127
2, 212655, Note_on_c, 7, 67, 127
2, 212741, Note_off_c, 7, 67, 127
2, 212744, Note_on_c, 10, 69, 127
2, 212829, Note_off_c, 0, 60, 127
2, 212829, Note_off_c, 5, 65, 127
2, 212830, Note_off_c, 10, 69, 127
2, 212833, Note_on_c, 11, 70, 127
2, 212833, Note_on_c, 7, 67, 127
2, 212833, Note_on_c, 11, 58, 127
2, 213010, Note_off_c, 11, 70, 127
2, 213013, Note_on_c, 0, 72, 127
2, 213190, Note_off_c, 0, 72, 127
2, 213191, Note_off_c, 11, 58, 127
2, 213194, Note_on_c, 2, 74, 127
2, 213194, Note_on_c, 10, 57, 127
2, 213371, Note_off_c, 10, 57, 127
2, 213371, Note_off_c, 2, 74, 127
2, 213374, Note_on_c, 11, 70, 127
2, 213374, Note_on_c, 7, 55, 127
2, 213551, Note_off_c, 7, 55, 127
2, 213551, Note_off_c, 11, 70, 127
2, 213554, Note_on_c, 0, 72, 127
2, 213554, Note_on_c, 10, 57, 127
2, 213731, Note_off_c, 10, 57, 127
2, 213731, Note_off_c, 0, 72, 127
2, 213731, Note_off_c, 7, 67, 127
2, 213734, Note_on_c, 10, 69, 127
2, 213734, Note_on_c, 5, 65, 127
2, 213734, Note_on_c, 11, 58, 127
2, 213911, Note_off_c, 11, 58, 127
2, 213911, Note_off_c, 5, 65, 127
2, 213911, Note_off_c, 10, 69, 127
2, 213915, Note_on_c, 7, 67, 127
2, 213915, Note_on_c, 4, 64, 127
2, 213915, Note_on_c, 0, 60, 127
2, 214250, Note_off_c, 4, 64, 127
2, 214250, Note_off_c, 7, 67, 127
2, 214270, Note_off_c, 0, 60, 127
2, 214273, Note_on_c, 10, 69, 127
2, 214273, Note_on_c, 4, 64, 127
2, 214273, Note_on_c, 0, 48, 127
2, 214359, Note_off_c, 10, 69, 127
2, 214362, Note_on_c, 11, 70, 127
2, 214448, Note_off_c, 11, 70, 127
2, 214448, Note_off_c, 0, 48, 127
2, 214451, Note_on_c, 0, 72, 127
2, 214451, Note_on_c, 11, 46, 127
2, 214628, Note_off_c, 11, 46, 127
2, 214632, Note_on_c, 10, 45, 127
2, 214809, Note_off_c, 10, 45, 127
2, 214809, Note_off_c, 0, 72, 127
2, 214811, Note_on_c, 11, 70, 127
2, 214811, Note_on_c, 7, 43, 127
2, 214988, Note_off_c, 7, 43, 127
2, 214988, Note_off_c, 11, 70, 127
2, 214990, Note_off_c, 4, 64, 127
2, 214992, Note_on_c, 10, 69, 127
2, 214992, Note_on_c, 5, 65, 127
2, 214992, Note_on_c, 5, 41, 127
2, 215169, Note_off_c, 10, 69, 127
2, 215172, Note_on_c, 7, 67, 127
2, 215349, Note_off_c, 7, 67, 127
2, 215350, Note_off_c, 5, 41, 127
2, 215353, Note_on_c, 11, 70, 127
2, 215353, Note_on_c, 7, 43, 127
2, 215530, Note_off_c, 11, 70, 127
2, 215532, Note_on_c, 10, 69, 127
2, 215704, Note_off_c, 5, 65, 127
2, 215709, Note_off_c, 10, 69, 127
2, 215711, Note_off_c, 7, 43, 127
2, 215713, Note_on_c, 7, 67, 127
2, 215713, Note_on_c, 10, 45, 127
2, 215890, Note_off_c, 7, 67, 127
2, 215893, Note_on_c, 5, 65, 127
2, 216070, Note_off_c, 5, 65, 127
2, 216071, Note_off_c, 10, 45, 127
2, 216073, Note_on_c, 2, 74, 127
2, 216073, Note_on_c, 5, 65, 127
2, 216073, Note_on_c, 11, 46, 127
2, 216250, Note_off_c, 11, 46, 127
2, 216254, Note_on_c, 5, 53, 127
2, 216371, Note_off_c, 5, 65, 127
2, 216431, Note_off_c, 5, 53, 127
2, 216434, Note_on_c, 7, 67, 127
2, 216434, Note_on_c, 11, 58, 127
2, 216520, Note_off_c, 7, 67, 127
2, 216523, Note_on_c, 5, 65, 127
2, 216609, Note_off_c, 5, 65, 127
2, 216609, Note_off_c, 11, 58, 127
2, 216613, Note_on_c, 7, 67, 127
2, 216613, Note_on_c, 10, 57, 127
2, 216699, Note_off_c, 7, 67, 127
2, 216701, Note_on_c, 5, 65, 127
2, 216787, Note_off_c, 5, 65, 127
2, 216788, Note_off_c, 10, 57, 127
2, 216790, Note_on_c, 7, 67, 127
2, 216790, Note_on_c, 7, 55, 127
2, 216876, Note_off_c, 7, 67, 127
2, 216880, Note_on_c, 5, 65, 127
2, 216965, Note_off_c, 7, 55, 127
2, 216966, Note_off_c, 5, 65, 127
2, 216969, Note_on_c, 4, 64, 127
2, 216969, Note_on_c, 5, 53, 127
2, 217055, Note_off_c, 4, 64, 127
2, 217058, Note_on_c, 5, 65, 127
2, 217144, Note_off_c, 5, 65, 127
2, 217144, Note_off_c, 5, 53, 127
2, 217147, Note_on_c, 7, 67, 127
2, 217147, Note_on_c, 4, 52, 127
2, 217324, Note_off_c, 4, 52, 127
2, 217324, Note_off_c, 7, 67, 127
2, 217328, Note_on_c, 10, 69, 127
2, 217328, Note_on_c, 1, 49, 127
2, 217505, Note_off_c, 1, 49, 127
2, 217505, Note_off_c, 10, 69, 127
2, 217508, Note_on_c, 11, 70, 127
2, 217508, Note_on_c, 2, 50, 127
2, 217685, Note_off_c, 2, 50, 127
2, 217685, Note_off_c, 11, 70, 127
2, 217688, Note_on_c, 7, 67, 127
2, 217688, Note_on_c, 4, 52, 127
2, 217865, Note_off_c, 4, 52, 127
2, 217865, Note_off_c, 7, 67, 127
2, 217868, Note_on_c, 10, 69, 127
2, 217868, Note_on_c, 5, 53, 127
2, 218045, Note_off_c, 5, 53, 127
2, 218045, Note_off_c, 10, 69, 127
2, 218049, Note_on_c, 5, 65, 127
2, 218049, Note_on_c, 7, 55, 127
2, 218226, Note_off_c, 7, 55, 127
2, 218226, Note_off_c, 5, 65, 127
2, 218228, Note_on_c, 4, 64, 127
2, 218228, Note_on_c, 10, 57, 127
2, 218317, Note_off_c, 2, 74, 127
2, 218407, Note_on_c, 2, 74, 127
2, 218583, Note_off_c, 10, 57, 127
2, 218584, Note_off_c, 2, 74, 127
2, 218587, Note_on_c, 1, 73, 127
2, 218587, Note_on_c, 10, 45, 127
2, 218764, Note_off_c, 1, 73, 127
2, 218768, Note_on_c, 12, 71, 127
2, 218945, Note_off_c, 12, 71, 127
2, 218945, Note_off_c, 10, 45, 127
2, 218947, Note_on_c, 10, 69, 127
2, 218947, Note_on_c, 10, 57, 127
2, 219124, Note_off_c, 10, 69, 127
2, 219128, Note_on_c, 7, 67, 127
2, 219305, Note_off_c, 7, 67, 127
2, 219305, Note_off_c, 10, 57, 127
2, 219305, Note_off_c, 4, 64, 127
2, 219308, Note_on_c, 5, 65, 127
2, 219308, Note_on_c, 2, 62, 127
2, 219308, Note_on_c, 2, 50, 127
2, 219485, Note_off_c, 5, 65, 127
2, 219488, Note_on_c, 4, 64, 127
2, 219665, Note_off_c, 4, 64, 127
2, 219666, Note_off_c, 2, 50, 127
2, 219669, Note_on_c, 7, 67, 127
2, 219669, Note_on_c, 5, 41, 127
2, 219846, Note_off_c, 7, 67, 127
2, 219849, Note_on_c, 5, 65, 127
2, 220020, Note_off_c, 2, 62, 127
2, 220026, Note_off_c, 5, 65, 127
2, 220027, Note_off_c, 5, 41, 127
2, 220029, Note_on_c, 4, 64, 127
2, 220029, Note_on_c, 10, 45, 127
2, 220206, Note_off_c, 4, 64, 127
2, 220209, Note_on_c, 2, 62, 127
2, 220368, Note_off_c, 2, 62, 127
2, 220377, Note_off_c, 10, 45, 127
2, 220390, Note_on_c, 10, 69, 127
2, 220390, Note_on_c, 5, 65, 127
2, 220390, Note_on_c, 2, 38, 127
2, 220567, Note_off_c, 2, 38, 127
2, 220570, Note_on_c, 10, 45, 127
2, 220708, Note_off_c, 5, 65, 127
2, 220708, Note_off_c, 10, 69, 127
2, 220747, Note_off_c, 10, 45, 127
2, 220750, Note_on_c, 11, 70, 127
2, 220750, Note_on_c, 5, 65, 127
2, 220750, Note_on_c, 2, 50, 127
2, 220836, Note_off_c, 11, 70, 127
2, 220839, Note_on_c, 10, 69, 127
2, 220925, Note_off_c, 10, 69, 127
2, 220925, Note_off_c, 2, 50, 127
2, 220928, Note_on_c, 11, 70, 127
2, 220928, Note_on_c, 0, 48, 127
2, 221014, Note_off_c, 11, 70, 127
2, 221018, Note_on_c, 10, 69, 127
2, 221103, Note_off_c, 0, 48, 127
2, 221104, Note_off_c, 10, 69, 127
2, 221107, Note_on_c, 11, 70, 127
2, 221107, Note_on_c, 11, 46, 127
2, 221193, Note_off_c, 11, 70, 127
2, 221195, Note_on_c, 10, 69, 127
2, 221281, Note_off_c, 10, 69, 127
2, 221282, Note_off_c, 11, 46, 127
2, 221285, Note_on_c, 7, 67, 127
2, 221285, Note_on_c, 10, 45, 127
2, 221371, Note_off_c, 7, 67, 127
2, 221374, Note_on_c, 10, 69, 127
2, 221460, Note_off_c, 10, 69, 127
2, 221460, Note_off_c, 10, 45, 127
2, 221464, Note_on_c, 11, 70, 127
2, 221464, Note_on_c, 7, 43, 127
2, 221641, Note_off_c, 7, 43, 127
2, 221641, Note_off_c, 11, 70, 127
2, 221643, Note_on_c, 0, 72, 127
2, 221643, Note_on_c, 10, 45, 127
2, 221820, Note_off_c, 10, 45, 127
2, 221820, Note_off_c, 0, 72, 127
2, 221824, Note_on_c, 2, 74, 127
2, 221824, Note_on_c, 11, 46, 127
2, 222001, Note_off_c, 11, 46, 127
2, 222001, Note_off_c, 2, 74, 127
2, 222004, Note_on_c, 11, 70, 127
2, 222004, Note_on_c, 7, 43, 127
2, 222181, Note_off_c, 7, 43, 127
2, 222181, Note_off_c, 11, 70, 127
2, 222184, Note_on_c, 0, 72, 127
2, 222184, Note_on_c, 10, 45, 127
2, 222361, Note_off_c, 10, 45, 127
2, 222361, Note_off_c, 0, 72, 127
2, 222364, Note_on_c, 10, 69, 127
2, 222364, Note_on_c, 11, 46, 127
2, 222541, Note_off_c, 11, 46, 127
2, 222541, Note_off_c, 10, 69, 127
2, 222545, Note_on_c, 7, 67, 127
2, 222545, Note_on_c, 0, 48, 127
2, 222722, Note_off_c, 0, 48, 127
2, 222725, Note_on_c, 7, 55, 127
2, 222863, Note_off_c, 7, 67, 127
2, 222863, Note_off_c, 5, 65, 127
2, 222902, Note_off_c, 7, 55, 127
2, 222905, Note_on_c, 10, 69, 127
2, 222905, Note_on_c, 4, 64, 127
2, 222905, Note_on_c, 0, 60, 127
2, 222991, Note_off_c, 10, 69, 127
2, 222995, Note_on_c, 7, 67, 127
2, 223080, Note_off_c, 0, 60, 127
2, 223081, Note_off_c, 7, 67, 127
2, 223083, Note_on_c, 10, 69, 127
2, 223083, Note_on_c, 11, 58, 127
2, 223169, Note_off_c, 10, 69, 127
2, 223173, Note_on_c, 7, 67, 127
2, 223258, Note_off_c, 11, 58, 127
2, 223259, Note_off_c, 7, 67, 127
2, 223262, Note_on_c, 10, 69, 127
2, 223262, Note_on_c, 10, 57, 127
2, 223348, Note_off_c, 10, 69, 127
2, 223351, Note_on_c, 7, 67, 127
2, 223437, Note_off_c, 7, 67, 127
2, 223437, Note_off_c, 10, 57, 127
2, 223440, Note_on_c, 5, 65, 127
2, 223440, Note_on_c, 7, 55, 127
2, 223526, Note_off_c, 5, 65, 127
2, 223529, Note_on_c, 7, 67, 127
2, 223615, Note_off_c, 7, 67, 127
2, 223615, Note_off_c, 7, 55, 127
2, 223619, Note_on_c, 10, 69, 127
2, 223619, Note_on_c, 5, 53, 127
2, 223796, Note_off_c, 5, 53, 127
2, 223796, Note_off_c, 10, 69, 127
2, 223798, Note_on_c, 11, 70, 127
2, 223798, Note_on_c, 7, 55, 127
2, 223975, Note_off_c, 7, 55, 127
2, 223975, Note_off_c, 11, 70, 127
2, 223979, Note_on_c, 0, 72, 127
2, 223979, Note_on_c, 10, 57, 127
2, 224156, Note_off_c, 10, 57, 127
2, 224156, Note_off_c, 0, 72, 127
2, 224160, Note_on_c, 10, 69, 127
2, 224160, Note_on_c, 5, 53, 127
2, 224337, Note_off_c, 5, 53, 127
2, 224337, Note_off_c, 10, 69, 127
2, 224339, Note_on_c, 11, 70, 127
2, 224339, Note_on_c, 7, 55, 127
2, 224516, Note_off_c, 7, 55, 127
2, 224516, Note_off_c, 11, 70, 127
2, 224520, Note_on_c, 7, 67, 127
2, 224520, Note_on_c, 10, 57, 127
2, 224697, Note_off_c, 10, 57, 127
2, 224697, Note_off_c, 7, 67, 127
2, 224700, Note_on_c, 5, 65, 127
2, 224700, Note_on_c, 11, 58, 127
2, 224877, Note_off_c, 11, 58, 127
2, 224881, Note_on_c, 0, 60, 127
2, 224961, Note_off_c, 4, 64, 127
2, 225018, Note_off_c, 5, 65, 127
2, 225058, Note_off_c, 0, 60, 127
2, 225060, Note_on_c, 7, 67, 127
2, 225060, Note_on_c, 2, 62, 127
2, 225060, Note_on_c, 11, 58, 127
2, 225146, Note_off_c, 7, 67, 127
2, 225150, Note_on_c, 5, 65, 127
2, 225235, Note_off_c, 11, 58, 127
2, 225236, Note_off_c, 5, 65, 127
2, 225239, Note_on_c, 7, 67, 127
2, 225239, Note_on_c, 10, 57, 127
2, 225325, Note_off_c, 7, 67, 127
2, 225327, Note_on_c, 5, 65, 127
2, 225413, Note_off_c, 5, 65, 127
2, 225414, Note_off_c, 10, 57, 127
2, 225417, Note_on_c, 7, 67, 127
2, 225417, Note_on_c, 7, 55, 127
2, 225503, Note_off_c, 7, 67, 127
2, 225506, Note_on_c, 5, 65, 127
2, 225592, Note_off_c, 5, 65, 127
2, 225592, Note_off_c, 7, 55, 127
2, 225596, Note_on_c, 4, 64, 127
2, 225596, Note_on_c, 5, 53, 127
2, 225682, Note_off_c, 4, 64, 127
2, 225684, Note_on_c, 5, 65, 127
2, 225770, Note_off_c, 5, 65, 127
2, 225771, Note_off_c, 5, 53, 127
2, 225774, Note_on_c, 7, 67, 127
2, 225774, Note_on_c, 4, 52, 127
2, 225951, Note_off_c, 4, 52, 127
2, 225951, Note_off_c, 7, 67, 127
2, 225954, Note_on_c, 10, 69, 127
2, 225954, Note_on_c, 5, 53, 127
2, 226131, Note_off_c, 5, 53, 127
2, 226131, Note_off_c, 10, 69, 127
2, 226131, Note_off_c, 2, 62, 127
2, 226134, Note_on_c, 11, 70, 127
2, 226134, Note_on_c, 1, 61, 127
2, 226134, Note_on_c, 7, 55, 127
2, 226311, Note_off_c, 7, 55, 127
2, 226311, Note_off_c, 11, 70, 127
2, 226315, Note_on_c, 10, 69, 127
2, 226315, Note_on_c, 5, 53, 127
2, 226492, Note_off_c, 5, 53, 127
2, 226492, Note_off_c, 10, 69, 127
2, 226494, Note_on_c, 11, 70, 127
2, 226494, Note_on_c, 7, 55, 127
2, 226671, Note_off_c, 7, 55, 127
2, 226671, Note_off_c, 11, 70, 127
2, 226675, Note_on_c, 7, 67, 127
2, 226675, Note_on_c, 4, 52, 127
2, 226837, Note_off_c, 7, 67, 127
2, 226852, Note_off_c, 4, 52, 127
2, 226852, Note_off_c, 1, 61, 127
2, 226855, Note_on_c, 10, 69, 127
2, 226855, Note_on_c, 2, 62, 127
2, 226855, Note_on_c, 5, 53, 127
2, 227210, Note_off_c, 5, 53, 127
2, 227210, Note_off_c, 10, 69, 127
2, 227213, Note_on_c, 7, 67, 127
2, 227213, Note_on_c, 7, 55, 127
2, 227390, Note_off_c, 7, 67, 127
2, 227394, Note_on_c, 5, 65, 127
2, 227571, Note_off_c, 5, 65, 127
2, 227571, Note_off_c, 7, 55, 127
2, 227572, Note_off_c, 2, 62, 127
2, 227575, Note_on_c, 4, 64, 127
2, 227575, Note_on_c, 1, 61, 127
2, 227575, Note_on_c, 10, 57, 127
2, 227752, Note_off_c, 4, 64, 127
2, 227754, Note_on_c, 5, 65, 127
2, 227931, Note_off_c, 5, 65, 127
2, 227933, Note_off_c, 10, 57, 127
2, 227933, Note_off_c, 1, 61, 127
2, 227935, Note_on_c, 2, 62, 127
2, 227935, Note_on_c, 2, 50, 127
2, 228290, Note_off_c, 2, 50, 127
2, 228294, Note_on_c, 10, 45, 127
2, 228649, Note_off_c, 10, 45, 127
2, 228652, Note_on_c, 2, 38, 127
2, 228831, Note_off_c, 2, 62, 127
2, 229010, Note_off_c, 2, 38, 127
2, 229058, Note_on_c, 2, 50, 127
2, 229058, Note_on_c, 10, 69, 127
2, 229235, Note_off_c, 10, 69, 127
2, 229238, Note_on_c, 7, 67, 127
2, 229415, Note_off_c, 7, 67, 127
2, 229416, Note_off_c, 2, 50, 127
2, 229419, Note_on_c, 4, 52, 127
2, 229419, Note_on_c, 5, 65, 127
2, 229505, Note_off_c, 4, 52, 127
2, 229507, Note_on_c, 2, 50, 127
2, 229593, Note_off_c, 2, 50, 127
2, 229594, Note_off_c, 5, 65, 127
2, 229596, Note_on_c, 4, 52, 127
2, 229596, Note_on_c, 7, 67, 127
2, 229682, Note_off_c, 4, 52, 127
2, 229686, Note_on_c, 2, 50, 127
2, 229771, Note_off_c, 7, 67, 127
2, 229772, Note_off_c, 2, 50, 127
2, 229775, Note_on_c, 4, 52, 127
2, 229775, Note_on_c, 10, 69, 127
2, 229861, Note_off_c, 4, 52, 127
2, 229864, Note_on_c, 2, 50, 127
2, 229950, Note_off_c, 2, 50, 127
2, 229950, Note_off_c, 10, 69, 127
2, 229953, Note_on_c, 0, 48, 127
2, 229953, Note_on_c, 11, 70, 127
2, 230039, Note_off_c, 0, 48, 127
2, 230043, Note_on_c, 2, 50, 127
2, 230128, Note_off_c, 11, 70, 127
2, 230129, Note_off_c, 2, 50, 127
2, 230132, Note_on_c, 4, 52, 127
2, 230132, Note_on_c, 7, 55, 127
2, 230132, Note_on_c, 0, 72, 127
2, 230309, Note_off_c, 0, 72, 127
2, 230312, Note_on_c, 7, 67, 127
2, 230489, Note_off_c, 7, 67, 127
2, 230490, Note_off_c, 7, 55, 127
2, 230492, Note_on_c, 10, 57, 127
2, 230492, Note_on_c, 10, 69, 127
2, 230578, Note_off_c, 10, 57, 127
2, 230581, Note_on_c, 7, 55, 127
2, 230667, Note_off_c, 7, 55, 127
2, 230667, Note_off_c, 10, 69, 127
2, 230670, Note_on_c, 10, 57, 127
2, 230670, Note_on_c, 11, 70, 127
2, 230756, Note_off_c, 10, 57, 127
2, 230760, Note_on_c, 7, 55, 127
2, 230845, Note_off_c, 11, 70, 127
2, 230846, Note_off_c, 7, 55, 127
2, 230849, Note_on_c, 10, 57, 127
2, 230849, Note_on_c, 0, 72, 127
2, 230935, Note_off_c, 10, 57, 127
2, 230937, Note_on_c, 7, 55, 127
2, 231023, Note_off_c, 7, 55, 127
2, 231024, Note_off_c, 0, 72, 127
2, 231027, Note_on_c, 6, 54, 127
2, 231027, Note_on_c, 11, 70, 127
2, 231113, Note_off_c, 6, 54, 127
2, 231116, Note_on_c, 7, 55, 127
2, 231202, Note_off_c, 7, 55, 127
2, 231202, Note_off_c, 11, 70, 127
2, 231203, Note_off_c, 4, 52, 127
2, 231206, Note_on_c, 6, 54, 127
2, 231206, Note_on_c, 10, 57, 127
2, 231206, Note_on_c, 0, 72, 127
2, 231383, Note_off_c, 0, 72, 127
2, 231385, Note_on_c, 3, 75, 127
2, 231562, Note_off_c, 3, 75, 127
2, 231564, Note_off_c, 6, 54, 127
2, 231566, Note_on_c, 7, 55, 127
2, 231566, Note_on_c, 2, 74, 127
2, 231652, Note_off_c, 7, 55, 127
2, 231656, Note_on_c, 6, 54, 127
2, 231741, Note_off_c, 2, 74, 127
2, 231742, Note_off_c, 6, 54, 127
2, 231744, Note_on_c, 7, 55, 127
2, 231744, Note_on_c, 0, 72, 127
2, 231830, Note_off_c, 7, 55, 127
2, 231833, Note_on_c, 6, 54, 127
2, 231919, Note_off_c, 6, 54, 127
2, 231919, Note_off_c, 0, 72, 127
2, 231923, Note_on_c, 7, 55, 127
2, 231923, Note_on_c, 11, 70, 127
2, 232009, Note_off_c, 7, 55, 127
2, 232012, Note_on_c, 6, 54, 127
2, 232098, Note_off_c, 6, 54, 127
2, 232098, Note_off_c, 11, 70, 127
2, 232101, Note_on_c, 4, 52, 127
2, 232101, Note_on_c, 10, 69, 127
2, 232187, Note_off_c, 4, 52, 127
2, 232190, Note_on_c, 6, 54, 127
2, 232276, Note_off_c, 6, 54, 127
2, 232276, Note_off_c, 10, 69, 127
2, 232277, Note_off_c, 10, 57, 127
2, 232280, Note_on_c, 7, 55, 127
2, 232280, Note_on_c, 11, 70, 127
2, 232457, Note_off_c, 11, 70, 127
2, 232459, Note_on_c, 10, 69, 127
2, 232636, Note_off_c, 10, 69, 127
2, 232640, Note_on_c, 2, 50, 127
2, 232640, Note_on_c, 0, 72, 127
2, 232817, Note_off_c, 0, 72, 127
2, 232820, Note_on_c, 11, 70, 127
2, 232997, Note_off_c, 11, 70, 127
2, 232998, Note_off_c, 2, 50, 127
2, 233000, Note_on_c, 7, 43, 127
2, 233000, Note_on_c, 10, 69, 127
2, 233177, Note_off_c, 10, 69, 127
2, 233180, Note_on_c, 7, 67, 127
2, 233328, Note_off_c, 7, 67, 127
2, 233337, Note_off_c, 7, 43, 127
2, 233359, Note_off_c, 7, 55, 127
2, 233361, Note_on_c, 7, 55, 127
2, 233361, Note_on_c, 4, 64, 127
2, 233361, Note_on_c, 1, 73, 127
2, 233538, Note_off_c, 7, 55, 127
2, 233541, Note_on_c, 5, 53, 127
2, 233718, Note_off_c, 5, 53, 127
2, 233719, Note_off_c, 1, 73, 127
2, 233719, Note_off_c, 4, 64, 127
2, 233721, Note_on_c, 7, 55, 127
2, 233721, Note_on_c, 4, 64, 127
2, 233721, Note_on_c, 2, 74, 127
2, 233807, Note_off_c, 2, 74, 127
2, 233811, Note_on_c, 1, 73, 127
2, 233896, Note_off_c, 7, 55, 127
2, 233897, Note_off_c, 1, 73, 127
2, 233900, Note_on_c, 11, 58, 127
2, 233900, Note_on_c, 2, 74, 127
2, 233986, Note_off_c, 2, 74, 127
2, 233988, Note_on_c, 1, 73, 127
2, 234074, Note_off_c, 1, 73, 127
2, 234075, Note_off_c, 11, 58, 127
2, 234078, Note_on_c, 10, 57, 127
2, 234078, Note_on_c, 2, 74, 127
2, 234164, Note_off_c, 2, 74, 127
2, 234167, Note_on_c, 1, 73, 127
2, 234253, Note_off_c, 1, 73, 127
2, 234253, Note_off_c, 10, 57, 127
2, 234257, Note_on_c, 7, 55, 127
2, 234257, Note_on_c, 12, 71, 127
2, 234343, Note_off_c, 12, 71, 127
2, 234345, Note_on_c, 1, 73, 127
2, 234431, Note_off_c, 1, 73, 127
2, 234431, Note_off_c, 4, 64, 127
2, 234432, Note_off_c, 7, 55, 127
2, 234434, Note_on_c, 5, 53, 127
2, 234434, Note_on_c, 10, 69, 127
2, 234434, Note_on_c, 2, 74, 127
2, 234611, Note_off_c, 5, 53, 127
2, 234615, Note_on_c, 10, 57, 127
2, 234752, Note_off_c, 2, 74, 127
2, 234792, Note_off_c, 10, 57, 127
2, 234792, Note_off_c, 10, 69, 127
2, 234795, Note_on_c, 7, 55, 127
2, 234795, Note_on_c, 10, 69, 127
2, 234795, Note_on_c, 4, 76, 127
2, 234881, Note_off_c, 4, 76, 127
2, 234884, Note_on_c, 2, 74, 127
2, 234970, Note_off_c, 2, 74, 127
2, 234970, Note_off_c, 7, 55, 127
2, 234974, Note_on_c, 5, 53, 127
2, 234974, Note_on_c, 4, 76, 127
2, 235060, Note_off_c, 4, 76, 127
2, 235062, Note_on_c, 2, 74, 127
2, 235148, Note_off_c, 2, 74, 127
2, 235149, Note_off_c, 5, 53, 127
2, 235152, Note_on_c, 4, 52, 127
2, 235152, Note_on_c, 4, 76, 127
2, 235238, Note_off_c, 4, 76, 127
2, 235241, Note_on_c, 2, 74, 127
2, 235327, Note_off_c, 2, 74, 127
2, 235327, Note_off_c, 4, 52, 127
2, 235330, Note_on_c, 2, 50, 127
2, 235330, Note_on_c, 1, 73, 127
2, 235416, Note_off_c, 1, 73, 127
2, 235419, Note_on_c, 2, 74, 127
2, 235505, Note_off_c, 2, 74, 127
2, 235505, Note_off_c, 2, 50, 127
2, 235508, Note_on_c, 1, 49, 127
2, 235508, Note_on_c, 4, 76, 127
2, 235685, Note_off_c, 4, 76, 127
2, 235689, Note_on_c, 5, 77, 127
2, 235866, Note_off_c, 5, 77, 127
2, 235866, Note_off_c, 1, 49, 127
2, 235866, Note_off_c, 10, 69, 127
2, 235869, Note_on_c, 10, 45, 127
2, 235869, Note_on_c, 1, 73, 127
2, 235869, Note_on_c, 7, 79, 127
2, 236046, Note_off_c, 7, 79, 127
2, 236049, Note_on_c, 4, 76, 127
2, 236226, Note_off_c, 4, 76, 127
2, 236227, Note_off_c, 1, 73, 127
2, 236227, Note_off_c, 10, 45, 127
2, 236229, Note_on_c, 2, 50, 127
2, 236229, Note_on_c, 2, 74, 127
2, 236229, Note_on_c, 5, 77, 127
2, 236397, Note_off_c, 2, 74, 127
2, 236406, Note_off_c, 5, 77, 127
2, 236410, Note_on_c, 2, 74, 127
2, 236587, Note_off_c, 2, 74, 127
2, 236587, Note_off_c, 2, 50, 127
2, 236589, Note_on_c, 10, 45, 127
2, 236589, Note_on_c, 1, 73, 127
2, 236589, Note_on_c, 5, 77, 127
2, 236766, Note_off_c, 5, 77, 127
2, 236770, Note_on_c, 4, 76, 127
2, 236944, Note_off_c, 1, 73, 127
2, 236947, Note_off_c, 4, 76, 127
2, 236947, Note_off_c, 10, 45, 127
2, 236950, Note_on_c, 12, 47, 127
2, 236950, Note_on_c, 2, 74, 127
2, 237127, Note_off_c, 2, 74, 127
2, 237131, Note_on_c, 1, 73, 127
2, 237308, Note_off_c, 1, 73, 127
2, 237308, Note_off_c, 12, 47, 127
2, 237310, Note_on_c, 1, 49, 127
2, 237310, Note_on_c, 12, 71, 127
2, 237487, Note_off_c, 12, 71, 127
2, 237491, Note_on_c, 10, 69, 127
2, 237668, Note_off_c, 1, 49, 127
2, 237670, Note_off_c, 10, 69, 127
2, 237687, Note_on_c, 2, 50, 127
2, 237687, Note_on_c, 5, 65, 127
2, 237687, Note_on_c, 10, 69, 127
2, 237967, Note_off_c, 10, 69, 127
2, 238042, Note_off_c, 5, 65, 127
2, 238042, Note_off_c, 2, 50, 127
2, 238045, Note_on_c, 2, 62, 127
2, 238045, Note_on_c, 5, 65, 127
2, 238045, Note_on_c, 11, 70, 127
2, 238131, Note_off_c, 11, 70, 127
2, 238134, Note_on_c, 10, 69, 127
2, 238220, Note_off_c, 10, 69, 127
2, 238223, Note_on_c, 11, 70, 127
2, 238309, Note_off_c, 11, 70, 127
2, 238312, Note_on_c, 10, 69, 127
2, 238398, Note_off_c, 10, 69, 127
2, 238398, Note_off_c, 2, 62, 127
2, 238402, Note_on_c, 0, 60, 127
2, 238402, Note_on_c, 11, 70, 127
2, 238488, Note_off_c, 11, 70, 127
2, 238491, Note_on_c, 10, 69, 127
2, 238577, Note_off_c, 10, 69, 127
2, 238580, Note_on_c, 7, 67, 127
2, 238666, Note_off_c, 7, 67, 127
2, 238669, Note_on_c, 10, 69, 127
2, 238755, Note_off_c, 10, 69, 127
2, 238755, Note_off_c, 0, 60, 127
2, 238755, Note_off_c, 5, 65, 127
2, 238758, Note_on_c, 11, 58, 127
2, 238758, Note_on_c, 7, 67, 127
2, 238758, Note_on_c, 11, 70, 127
2, 238935, Note_off_c, 11, 70, 127
2, 238938, Note_on_c, 0, 72, 127
2, 239115, Note_off_c, 0, 72, 127
2, 239116, Note_off_c, 11, 58, 127
2, 239119, Note_on_c, 10, 57, 127
2, 239119, Note_on_c, 2, 74, 127
2, 239296, Note_off_c, 2, 74, 127
2, 239296, Note_off_c, 10, 57, 127
2, 239299, Note_on_c, 7, 55, 127
2, 239299, Note_on_c, 11, 70, 127
2, 239476, Note_off_c, 11, 70, 127
2, 239476, Note_off_c, 7, 55, 127
2, 239479, Note_on_c, 10, 57, 127
2, 239479, Note_on_c, 0, 72, 127
2, 239656, Note_off_c, 0, 72, 127
2, 239656, Note_off_c, 10, 57, 127
2, 239656, Note_off_c, 7, 67, 127
2, 239659, Note_on_c, 11, 58, 127
2, 239659, Note_on_c, 5, 65, 127
2, 239659, Note_on_c, 10, 69, 127
2, 239836, Note_off_c, 10, 69, 127
2, 239836, Note_off_c, 5, 65, 127
2, 239836, Note_off_c, 11, 58, 127
2, 239840, Note_on_c, 0, 60, 127
2, 239840, Note_on_c, 4, 64, 127
2, 239840, Note_on_c, 7, 67, 127
2, 240120, Note_off_c, 7, 67, 127
2, 240195, Note_off_c, 4, 64, 127
2, 240195, Note_off_c, 0, 60, 127
2, 240198, Note_on_c, 0, 48, 127
2, 240198, Note_on_c, 4, 64, 127
2, 240198, Note_on_c, 10, 69, 127
2, 240284, Note_off_c, 10, 69, 127
2, 240288, Note_on_c, 11, 70, 127
2, 240373, Note_off_c, 0, 48, 127
2, 240374, Note_off_c, 11, 70, 127
2, 240377, Note_on_c, 11, 46, 127
2, 240377, Note_on_c, 0, 72, 127
2, 240554, Note_off_c, 11, 46, 127
2, 240557, Note_on_c, 10, 45, 127
2, 240734, Note_off_c, 10, 45, 127
2, 240735, Note_off_c, 0, 72, 127
2, 240737, Note_on_c, 7, 43, 127
2, 240737, Note_on_c, 11, 70, 127
2, 240914, Note_off_c, 11, 70, 127
2, 240914, Note_off_c, 7, 43, 127
2, 240915, Note_off_c, 4, 64, 127
2, 240917, Note_on_c, 5, 41, 127
2, 240917, Note_on_c, 5, 65, 127
2, 240917, Note_on_c, 10, 69, 127
2, 241094, Note_off_c, 10, 69, 127
2, 241098, Note_on_c, 7, 67, 127
2, 241275, Note_off_c, 7, 67, 127
2, 241275, Note_off_c, 5, 41, 127
2, 241277, Note_on_c, 7, 43, 127
2, 241277, Note_on_c, 11, 70, 127
2, 241454, Note_off_c, 11, 70, 127
2, 241458, Note_on_c, 10, 69, 127
2, 241629, Note_off_c, 5, 65, 127
2, 241635, Note_off_c, 10, 69, 127
2, 241635, Note_off_c, 7, 43, 127
2, 241638, Note_on_c, 10, 45, 127
2, 241638, Note_on_c, 7, 67, 127
2, 241815, Note_off_c, 7, 67, 127
2, 241819, Note_on_c, 5, 65, 127
2, 241996, Note_off_c, 5, 65, 127
2, 241996, Note_off_c, 10, 45, 127
2, 241998, Note_on_c, 11, 46, 127
2, 241998, Note_on_c, 5, 65, 127
2, 241998, Note_on_c, 2, 74, 127
2, 242175, Note_off_c, 11, 46, 127
2, 242179, Note_on_c, 5, 53, 127
2, 242259, Note_off_c, 5, 65, 127
2, 242354, Note_off_c, 5, 53, 127
2, 242357, Note_on_c, 11, 58, 127
2, 242357, Note_on_c, 7, 67, 127
2, 242443, Note_off_c, 7, 67, 127
2, 242446, Note_on_c, 5, 65, 127
2, 242532, Note_off_c, 5, 65, 127
2, 242532, Note_off_c, 11, 58, 127
2, 242536, Note_on_c, 10, 57, 127
2, 242536, Note_on_c, 7, 67, 127
2, 242622, Note_off_c, 7, 67, 127
2, 242625, Note_on_c, 5, 65, 127
2, 242711, Note_off_c, 5, 65, 127
2, 242711, Note_off_c, 10, 57, 127
2, 242714, Note_on_c, 7, 55, 127
2, 242714, Note_on_c, 7, 67, 127
2, 242800, Note_off_c, 7, 67, 127
2, 242803, Note_on_c, 5, 65, 127
2, 242889, Note_off_c, 5, 65, 127
2, 242889, Note_off_c, 7, 55, 127
2, 242892, Note_on_c, 5, 53, 127
2, 242892, Note_on_c, 4, 64, 127
2, 242978, Note_off_c, 4, 64, 127
2, 242982, Note_on_c, 5, 65, 127
2, 243067, Note_off_c, 5, 53, 127
2, 243068, Note_off_c, 5, 65, 127
2, 243070, Note_on_c, 4, 52, 127
2, 243070, Note_on_c, 7, 67, 127
2, 243247, Note_off_c, 7, 67, 127
2, 243247, Note_off_c, 4, 52, 127
2, 243251, Note_on_c, 1, 49, 127
2, 243251, Note_on_c, 10, 69, 127
2, 243428, Note_off_c, 10, 69, 127
2, 243428, Note_off_c, 1, 49, 127
2, 243431, Note_on_c, 2, 50, 127
2, 243431, Note_on_c, 11, 70, 127
2, 243608, Note_off_c, 11, 70, 127
2, 243608, Note_off_c, 2, 50, 127
2, 243611, Note_on_c, 4, 52, 127
2, 243611, Note_on_c, 7, 67, 127
2, 243788, Note_off_c, 7, 67, 127
2, 243788, Note_off_c, 4, 52, 127
2, 243792, Note_on_c, 5, 53, 127
2, 243792, Note_on_c, 10, 69, 127
2, 243969, Note_off_c, 10, 69, 127
2, 243969, Note_off_c, 5, 53, 127
2, 243972, Note_on_c, 7, 55, 127
2, 243972, Note_on_c, 5, 65, 127
2, 244149, Note_off_c, 5, 65, 127
2, 244149, Note_off_c, 7, 55, 127
2, 244152, Note_on_c, 10, 57, 127
2, 244152, Note_on_c, 4, 64, 127
2, 244239, Note_off_c, 2, 74, 127
2, 244330, Note_on_c, 2, 74, 127
2, 244507, Note_off_c, 2, 74, 127
2, 244507, Note_off_c, 10, 57, 127
2, 244511, Note_on_c, 10, 45, 127
2, 244511, Note_on_c, 1, 73, 127
2, 244688, Note_off_c, 1, 73, 127
2, 244691, Note_on_c, 12, 71, 127
2, 244868, Note_off_c, 12, 71, 127
2, 244869, Note_off_c, 10, 45, 127
2, 244871, Note_on_c, 10, 57, 127
2, 244871, Note_on_c, 10, 69, 127
2, 245048, Note_off_c, 10, 69, 127
2, 245051, Note_on_c, 7, 67, 127
2, 245228, Note_off_c, 7, 67, 127
2, 245229, Note_off_c, 10, 57, 127
2, 245229, Note_off_c, 4, 64, 127
2, 245232, Note_on_c, 2, 50, 127
2, 245232, Note_on_c, 2, 62, 127
2, 245232, Note_on_c, 5, 65, 127
2, 245409, Note_off_c, 5, 65, 127
2, 245411, Note_on_c, 4, 64, 127
2, 245588, Note_off_c, 4, 64, 127
2, 245590, Note_off_c, 2, 50, 127
2, 245592, Note_on_c, 5, 41, 127
2, 245592, Note_on_c, 7, 67, 127
2, 245769, Note_off_c, 7, 67, 127
2, 245772, Note_on_c, 5, 65, 127
2, 245944, Note_off_c, 2, 62, 127
2, 245949, Note_off_c, 5, 65, 127
2, 245950, Note_off_c, 5, 41, 127
2, 245953, Note_on_c, 10, 45, 127
2, 245953, Note_on_c, 4, 64, 127
2, 246130, Note_off_c, 4, 64, 127
2, 246132, Note_on_c, 2, 62, 127
2, 246291, Note_off_c, 2, 62, 127
2, 246311, Note_off_c, 10, 45, 127
2, 246343, Note_on_c, 10, 69, 127
2, 246343, Note_on_c, 5, 65, 127
2, 246343, Note_on_c, 2, 38, 127
2, 246524, Note_off_c, 2, 38, 127
2, 246526, Note_on_c, 10, 45, 127
2, 246630, Note_off_c, 10, 69, 127
2, 246705, Note_off_c, 10, 45, 127
2, 246708, Note_off_c, 5, 65, 127
2, 246710, Note_on_c, 11, 70, 127
2, 246710, Note_on_c, 5, 65, 127
2, 246710, Note_on_c, 2, 50, 127
2, 246798, Note_off_c, 11, 70, 127
2, 246804, Note_on_c, 10, 69, 127
2, 246889, Note_off_c, 2, 50, 127
2, 246892, Note_off_c, 10, 69, 127
2, 246894, Note_on_c, 11, 70, 127
2, 246894, Note_on_c, 0, 48, 127
2, 246982, Note_off_c, 11, 70, 127
2, 246987, Note_on_c, 10, 69, 127
2, 247073, Note_off_c, 0, 48, 127
2, 247075, Note_off_c, 10, 69, 127
2, 247078, Note_on_c, 11, 70, 127
2, 247078, Note_on_c, 11, 46, 127
2, 247166, Note_off_c, 11, 70, 127
2, 247170, Note_on_c, 10, 69, 127
2, 247257, Note_off_c, 11, 46, 127
2, 247258, Note_off_c, 10, 69, 127
2, 247263, Note_on_c, 7, 67, 127
2, 247263, Note_on_c, 10, 45, 127
2, 247351, Note_off_c, 7, 67, 127
2, 247353, Note_on_c, 10, 69, 127
2, 247441, Note_off_c, 10, 69, 127
2, 247442, Note_off_c, 10, 45, 127
2, 247446, Note_on_c, 11, 70, 127
2, 247446, Note_on_c, 7, 43, 127
2, 247627, Note_off_c, 7, 43, 127
2, 247627, Note_off_c, 11, 70, 127
2, 247632, Note_on_c, 0, 72, 127
2, 247632, Note_on_c, 10, 45, 127
2, 247813, Note_off_c, 10, 45, 127
2, 247813, Note_off_c, 0, 72, 127
2, 247818, Note_on_c, 2, 74, 127
2, 247818, Note_on_c, 11, 46, 127
2, 247999, Note_off_c, 11, 46, 127
2, 247999, Note_off_c, 2, 74, 127
2, 248002, Note_on_c, 11, 70, 127
2, 248002, Note_on_c, 7, 43, 127
2, 248183, Note_off_c, 7, 43, 127
2, 248183, Note_off_c, 11, 70, 127
2, 248188, Note_on_c, 0, 72, 127
2, 248188, Note_on_c, 10, 45, 127
2, 248369, Note_off_c, 10, 45, 127
2, 248369, Note_off_c, 0, 72, 127
2, 248374, Note_on_c, 10, 69, 127
2, 248374, Note_on_c, 11, 46, 127
2, 248555, Note_off_c, 11, 46, 127
2, 248555, Note_off_c, 10, 69, 127
2, 248560, Note_on_c, 0, 48, 127
2, 248560, Note_on_c, 7, 67, 127
2, 248745, Note_off_c, 0, 48, 127
2, 248750, Note_on_c, 7, 55, 127
2, 248855, Note_off_c, 7, 67, 127
2, 248925, Note_off_c, 5, 65, 127
2, 248933, Note_off_c, 7, 55, 127
2, 248939, Note_on_c, 0, 60, 127
2, 248939, Note_on_c, 4, 64, 127
2, 248939, Note_on_c, 10, 69, 127
2, 249029, Note_off_c, 10, 69, 127
2, 249034, Note_on_c, 7, 67, 127
2, 249122, Note_off_c, 0, 60, 127
2, 249124, Note_off_c, 7, 67, 127
2, 249129, Note_on_c, 11, 58, 127
2, 249129, Note_on_c, 10, 69, 127
2, 249219, Note_off_c, 10, 69, 127
2, 249224, Note_on_c, 7, 67, 127
2, 249312, Note_off_c, 11, 58, 127
2, 249314, Note_off_c, 7, 67, 127
2, 249319, Note_on_c, 10, 57, 127
2, 249319, Note_on_c, 10, 69, 127
2, 249409, Note_off_c, 10, 69, 127
2, 249412, Note_on_c, 7, 67, 127
2, 249502, Note_off_c, 7, 67, 127
2, 249502, Note_off_c, 10, 57, 127
2, 249509, Note_on_c, 7, 55, 127
2, 249509, Note_on_c, 5, 65, 127
2, 249599, Note_off_c, 5, 65, 127
2, 249601, Note_on_c, 7, 67, 127
2, 249691, Note_off_c, 7, 67, 127
2, 249692, Note_off_c, 7, 55, 127
2, 249698, Note_on_c, 5, 53, 127
2, 249698, Note_on_c, 10, 69, 127
2, 249883, Note_off_c, 10, 69, 127
2, 249883, Note_off_c, 5, 53, 127
2, 249890, Note_on_c, 7, 55, 127
2, 249890, Note_on_c, 11, 70, 127
2, 250075, Note_off_c, 11, 70, 127
2, 250075, Note_off_c, 7, 55, 127
2, 250082, Note_on_c, 10, 57, 127
2, 250082, Note_on_c, 0, 72, 127
2, 250267, Note_off_c, 0, 72, 127
2, 250267, Note_off_c, 10, 57, 127
2, 250272, Note_on_c, 5, 53, 127
2, 250272, Note_on_c, 10, 69, 127
2, 250457, Note_off_c, 10, 69, 127
2, 250457, Note_off_c, 5, 53, 127
2, 250462, Note_on_c, 7, 55, 127
2, 250462, Note_on_c, 11, 70, 127
2, 250647, Note_off_c, 11, 70, 127
2, 250647, Note_off_c, 7, 55, 127
2, 250654, Note_on_c, 10, 57, 127
2, 250654, Note_on_c, 7, 67, 127
2, 250839, Note_off_c, 7, 67, 127
2, 250839, Note_off_c, 10, 57, 127
2, 250846, Note_on_c, 5, 65, 127
2, 250846, Note_on_c, 11, 58, 127
2, 251033, Note_off_c, 11, 58, 127
2, 251040, Note_on_c, 0, 60, 127
2, 251146, Note_off_c, 5, 65, 127
2, 251218, Note_off_c, 4, 64, 127
2, 251227, Note_off_c, 0, 60, 127
2, 251235, Note_on_c, 7, 67, 127
2, 251235, Note_on_c, 2, 62, 127
2, 251235, Note_on_c, 11, 58, 127
2, 251327, Note_off_c, 7, 67, 127
2, 251331, Note_on_c, 5, 65, 127
2, 251422, Note_off_c, 11, 58, 127
2, 251423, Note_off_c, 5, 65, 127
2, 251430, Note_on_c, 7, 67, 127
2, 251430, Note_on_c, 10, 57, 127
2, 251522, Note_off_c, 7, 67, 127
2, 251527, Note_on_c, 5, 65, 127
2, 251617, Note_off_c, 10, 57, 127
2, 251619, Note_off_c, 5, 65, 127
2, 251626, Note_on_c, 7, 67, 127
2, 251626, Note_on_c, 7, 55, 127
2, 251718, Note_off_c, 7, 67, 127
2, 251721, Note_on_c, 5, 65, 127
2, 251813, Note_off_c, 5, 65, 127
2, 251813, Note_off_c, 7, 55, 127
2, 251821, Note_on_c, 4, 64, 127
2, 251821, Note_on_c, 5, 53, 127
2, 251913, Note_off_c, 4, 64, 127
2, 251916, Note_on_c, 5, 65, 127
2, 252008, Note_off_c, 5, 65, 127
2, 252008, Note_off_c, 5, 53, 127
2, 252017, Note_on_c, 7, 67, 127
2, 252017, Note_on_c, 4, 52, 127
2, 252204, Note_off_c, 4, 52, 127
2, 252204, Note_off_c, 7, 67, 127
2, 252212, Note_on_c, 10, 69, 127
2, 252212, Note_on_c, 5, 53, 127
2, 252399, Note_off_c, 5, 53, 127
2, 252399, Note_off_c, 10, 69, 127
2, 252400, Note_off_c, 2, 62, 127
2, 252407, Note_on_c, 11, 70, 127
2, 252407, Note_on_c, 1, 61, 127
2, 252407, Note_on_c, 7, 55, 127
2, 252594, Note_off_c, 7, 55, 127
2, 252594, Note_off_c, 11, 70, 127
2, 252601, Note_on_c, 10, 69, 127
2, 252601, Note_on_c, 5, 53, 127
2, 252788, Note_off_c, 5, 53, 127
2, 252788, Note_off_c, 10, 69, 127
2, 252796, Note_on_c, 11, 70, 127
2, 252796, Note_on_c, 7, 55, 127
2, 252983, Note_off_c, 7, 55, 127
2, 252983, Note_off_c, 11, 70, 127
2, 252992, Note_on_c, 7, 67, 127
2, 252992, Note_on_c, 4, 52, 127
2, 253179, Note_off_c, 4, 52, 127
2, 253179, Note_off_c, 7, 67, 127
2, 253182, Note_off_c, 1, 61, 127
2, 253187, Note_on_c, 5, 53, 127
2, 253187, Note_on_c, 2, 62, 127
2, 253187, Note_on_c, 10, 69, 127
2, 253584, Note_off_c, 10, 69, 127
2, 253584, Note_off_c, 5, 53, 127
2, 253592, Note_on_c, 7, 55, 127
2, 253592, Note_on_c, 7, 67, 127
2, 253784, Note_off_c, 7, 67, 127
2, 253793, Note_on_c, 5, 65, 127
2, 253985, Note_off_c, 5, 65, 127
2, 253986, Note_off_c, 2, 62, 127
2, 253987, Note_off_c, 7, 55, 127
2, 254003, Note_on_c, 4, 64, 127
2, 254003, Note_on_c, 1, 61, 127
2, 254003, Note_on_c, 10, 57, 127
2, 254213, Note_off_c, 4, 64, 127
2, 254223, Note_on_c, 5, 65, 127
2, 254433, Note_off_c, 5, 65, 127
2, 254433, Note_off_c, 10, 57, 127
2, 254433, Note_off_c, 1, 61, 127
2, 254441, Note_on_c, 2, 50, 127
2, 254441, Note_on_c, 2, 62, 127
2, 254929, Note_off_c, 2, 50, 127
2, 254947, Note_on_c, 10, 45, 127
2, 255490, Note_off_c, 10, 45, 127
2, 255502, Note_on_c, 2, 38, 127
2, 258113, Note_off_c, 2, 62, 127
2, 258562, Note_off_c, 2, 38, 127
2, 258829, Note_on_c, 10, 69, 127
2, 258976, Note_off_c, 10, 69, 127
2, 258986, Note_on_c, 2, 74, 127
2, 259458, Note_off_c, 2, 74, 127
2, 259461, Note_on_c, 10, 69, 127
2, 259608, Note_off_c, 10, 69, 127
2, 259619, Note_on_c, 11, 70, 127
2, 260011, Note_off_c, 11, 70, 127
2, 260014, Note_on_c, 10, 69, 127
2, 260091, Note_off_c, 10, 69, 127
2, 260093, Note_on_c, 7, 67, 127
2, 260170, Note_off_c, 7, 67, 127
2, 260173, Note_on_c, 5, 65, 127
2, 260250, Note_off_c, 5, 65, 127
2, 260252, Note_on_c, 4, 64, 127
2, 260724, Note_off_c, 4, 64, 127
2, 260727, Note_on_c, 7, 67, 127
2, 260874, Note_off_c, 7, 67, 127
2, 260884, Note_on_c, 5, 65, 127
2, 261356, Note_off_c, 5, 65, 127
2, 261358, Note_on_c, 4, 64, 127
2, 261358, Note_on_c, 2, 74, 127
2, 261435, Note_off_c, 4, 64, 127
2, 261439, Note_on_c, 2, 62, 127
2, 261515, Note_off_c, 2, 74, 127
2, 261516, Note_off_c, 2, 62, 127
2, 261518, Note_on_c, 2, 62, 127
2, 261518, Note_on_c, 10, 81, 127
2, 261595, Note_off_c, 2, 62, 127
2, 261598, Note_on_c, 1, 61, 127
2, 261675, Note_off_c, 1, 61, 127
2, 261677, Note_on_c, 2, 62, 127
2, 261754, Note_off_c, 2, 62, 127
2, 261757, Note_on_c, 1, 61, 127
2, 261834, Note_off_c, 1, 61, 127
2, 261836, Note_on_c, 2, 62, 127
2, 261913, Note_off_c, 2, 62, 127
2, 261916, Note_on_c, 1, 61, 127
2, 261993, Note_off_c, 1, 61, 127
2, 261993, Note_off_c, 10, 81, 127
2, 261995, Note_on_c, 2, 62, 127
2, 261995, Note_on_c, 4, 76, 127
2, 262072, Note_off_c, 2, 62, 127
2, 262076, Note_on_c, 1, 61, 127
2, 262152, Note_off_c, 4, 76, 127
2, 262153, Note_off_c, 1, 61, 127
2, 262156, Note_on_c, 2, 62, 127
2, 262156, Note_on_c, 5, 77, 127
2, 262548, Note_off_c, 5, 77, 127
2, 262550, Note_on_c, 4, 76, 127
2, 262627, Note_off_c, 4, 76, 127
2, 262630, Note_on_c, 2, 74, 127
2, 262707, Note_off_c, 2, 74, 127
2, 262709, Note_on_c, 0, 72, 127
2, 262786, Note_off_c, 0, 72, 127
2, 262787, Note_off_c, 2, 62, 127
2, 262789, Note_on_c, 7, 67, 127
2, 262789, Note_on_c, 12, 71, 127
2, 263261, Note_off_c, 12, 71, 127
2, 263263, Note_on_c, 2, 74, 127
2, 263418, Note_off_c, 2, 74, 127
2, 263420, Note_on_c, 1, 73, 127
2, 263892, Note_off_c, 1, 73, 127
2, 263892, Note_off_c, 7, 67, 127
2, 263895, Note_on_c, 10, 57, 127
2, 263895, Note_on_c, 1, 61, 127
2, 263895, Note_on_c, 2, 74, 127
2, 263972, Note_off_c, 2, 74, 127
2, 263974, Note_on_c, 4, 76, 127
2, 264051, Note_off_c, 4, 76, 127
2, 264052, Note_off_c, 1, 61, 127
2, 264052, Note_off_c, 10, 57, 127
2, 264055, Note_on_c, 2, 62, 127
2, 264055, Note_on_c, 5, 77, 127
2, 264527, Note_off_c, 5, 77, 127
2, 264527, Note_off_c, 2, 62, 127
2, 264529, Note_on_c, 10, 57, 127
2, 264529, Note_on_c, 1, 73, 127
2, 264529, Note_on_c, 7, 79, 127
2, 264684, Note_off_c, 7, 79, 127
2, 264684, Note_off_c, 1, 73, 127
2, 264684, Note_off_c, 10, 57, 127
2, 264686, Note_on_c, 11, 58, 127
2, 264686, Note_on_c, 2, 74, 127
2, 264686, Note_on_c, 4, 76, 127
2, 265078, Note_off_c, 11, 58, 127
2, 265081, Note_on_c, 10, 57, 127
2, 265158, Note_off_c, 10, 57, 127
2, 265161, Note_on_c, 7, 55, 127
2, 265238, Note_off_c, 7, 55, 127
2, 265240, Note_on_c, 5, 53, 127
2, 265317, Note_off_c, 5, 53, 127
2, 265317, Note_off_c, 2, 74, 127
2, 265320, Note_on_c, 4, 52, 127
2, 265320, Note_on_c, 1, 73, 127
2, 265792, Note_off_c, 1, 73, 127
2, 265792, Note_off_c, 4, 52, 127
2, 265794, Note_on_c, 7, 55, 127
2, 265794, Note_on_c, 2, 74, 127
2, 265838, Note_off_c, 4, 76, 127
2, 265869, Note_off_c, 2, 74, 127
2, 265871, Note_on_c, 4, 76, 127
2, 265948, Note_off_c, 4, 76, 127
2, 265949, Note_off_c, 7, 55, 127
2, 265952, Note_on_c, 5, 53, 127
2, 265952, Note_on_c, 10, 69, 127
2, 266412, Note_off_c, 10, 69, 127
2, 266426, Note_on_c, 10, 69, 127
2, 266583, Note_on_c, 2, 74, 127
2, 266898, Note_off_c, 5, 53, 127
2, 267051, Note_off_c, 10, 69, 127
2, 267057, Note_off_c, 2, 74, 127
2, 267060, Note_on_c, 6, 54, 127
2, 267060, Note_on_c, 2, 62, 127
2, 267060, Note_on_c, 10, 69, 127
2, 267215, Note_off_c, 10, 69, 127
2, 267215, Note_off_c, 2, 62, 127
2, 267215, Note_off_c, 6, 54, 127
2, 267217, Note_on_c, 7, 55, 127
2, 267217, Note_on_c, 2, 62, 127
2, 267217, Note_on_c, 11, 70, 127
2, 267609, Note_off_c, 11, 70, 127
2, 267612, Note_on_c, 10, 69, 127
2, 267689, Note_off_c, 10, 69, 127
2, 267689, Note_off_c, 7, 55, 127
2, 267691, Note_on_c, 4, 52, 127
2, 267691, Note_on_c, 7, 67, 127
2, 267768, Note_off_c, 7, 67, 127
2, 267771, Note_on_c, 5, 65, 127
2, 267848, Note_off_c, 5, 65, 127
2, 267848, Note_off_c, 4, 52, 127
2, 267848, Note_off_c, 2, 62, 127
2, 267850, Note_on_c, 10, 57, 127
2, 267850, Note_on_c, 1, 61, 127
2, 267850, Note_on_c, 4, 64, 127
2, 268322, Note_off_c, 4, 64, 127
2, 268322, Note_off_c, 10, 57, 127
2, 268325, Note_on_c, 10, 45, 127
2, 268325, Note_on_c, 7, 67, 127
2, 268479, Note_off_c, 1, 61, 127
2, 268480, Note_off_c, 7, 67, 127
2, 268480, Note_off_c, 10, 45, 127
2, 268483, Note_on_c, 2, 50, 127
2, 268483, Note_on_c, 2, 62, 127
2, 268483, Note_on_c, 5, 65, 127
2, 268955, Note_off_c, 5, 65, 127
2, 268955, Note_off_c, 2, 62, 127
2, 268955, Note_off_c, 2, 50, 127
2, 268957, Note_on_c, 0, 48, 127
2, 268957, Note_on_c, 4, 64, 127
2, 269034, Note_off_c, 4, 64, 127
2, 269037, Note_on_c, 2, 62, 127
2, 269114, Note_off_c, 2, 62, 127
2, 269114, Note_off_c, 0, 48, 127
2, 269116, Note_on_c, 11, 46, 127
2, 269116, Note_on_c, 11, 70, 127
2, 269116, Note_on_c, 7, 67, 127
2, 269588, Note_off_c, 7, 67, 127
2, 269588, Note_off_c, 11, 46, 127
2, 269590, Note_on_c, 10, 45, 127
2, 269590, Note_on_c, 2, 62, 127
2, 269667, Note_off_c, 10, 45, 127
2, 269670, Note_on_c, 7, 43, 127
2, 269747, Note_off_c, 7, 43, 127
2, 269747, Note_off_c, 2, 62, 127
2, 269749, Note_on_c, 0, 48, 127
2, 269749, Note_on_c, 4, 64, 127
2, 270221, Note_off_c, 11, 70, 127
2, 270224, Note_on_c, 10, 69, 127
2, 270301, Note_off_c, 10, 69, 127
2, 270303, Note_on_c, 7, 67, 127
2, 270380, Note_off_c, 7, 67, 127
2, 270380, Note_off_c, 4, 64, 127
2, 270383, Note_on_c, 5, 65, 127
2, 270383, Note_on_c, 10, 69, 127
2, 270855, Note_off_c, 10, 69, 127
2, 270857, Note_on_c, 11, 70, 127
2, 271012, Note_off_c, 11, 70, 127
2, 271015, Note_on_c, 7, 67, 127
2, 271395, Note_off_c, 0, 48, 127
2, 271486, Note_off_c, 5, 65, 127
2, 271487, Note_off_c, 7, 67, 127
2, 271490, Note_on_c, 0, 48, 127
2, 271490, Note_on_c, 4, 64, 127
2, 271490, Note_on_c, 7, 67, 127
2, 271567, Note_off_c, 0, 48, 127
2, 271569, Note_on_c, 11, 46, 127
2, 271646, Note_off_c, 11, 46, 127
2, 271647, Note_off_c, 7, 67, 127
2, 271647, Note_off_c, 4, 64, 127
2, 271649, Note_on_c, 10, 45, 127
2, 271649, Note_on_c, 10, 69, 127
2, 271649, Note_on_c, 0, 72, 127
2, 272121, Note_off_c, 10, 69, 127
2, 272121, Note_off_c, 10, 45, 127
2, 272123, Note_on_c, 11, 46, 127
2, 272123, Note_on_c, 4, 64, 127
2, 272200, Note_off_c, 11, 46, 127
2, 272203, Note_on_c, 0, 48, 127
2, 272280, Note_off_c, 0, 48, 127
2, 272280, Note_off_c, 4, 64, 127
2, 272282, Note_on_c, 2, 38, 127
2, 272282, Note_on_c, 6, 66, 127
2, 272754, Note_off_c, 0, 72, 127
2, 272756, Note_on_c, 11, 70, 127
2, 272833, Note_off_c, 11, 70, 127
2, 272836, Note_on_c, 10, 69, 127
2, 272913, Note_off_c, 10, 69, 127
2, 272913, Note_off_c, 6, 66, 127
2, 272917, Note_on_c, 7, 67, 127
2, 272917, Note_on_c, 11, 70, 127
2, 273389, Note_off_c, 11, 70, 127
2, 273391, Note_on_c, 0, 72, 127
2, 273546, Note_off_c, 0, 72, 127
2, 273548, Note_on_c, 10, 69, 127
2, 273928, Note_off_c, 2, 38, 127
2, 274020, Note_off_c, 10, 69, 127
2, 274020, Note_off_c, 7, 67, 127
2, 274022, Note_on_c, 2, 50, 127
2, 274022, Note_on_c, 6, 66, 127
2, 274022, Note_on_c, 10, 69, 127
2, 274099, Note_off_c, 2, 50, 127
2, 274102, Note_on_c, 4, 52, 127
2, 274179, Note_off_c, 4, 52, 127
2, 274179, Note_off_c, 10, 69, 127
2, 274179, Note_off_c, 6, 66, 127
2, 274181, Note_on_c, 5, 53, 127
2, 274181, Note_on_c, 12, 71, 127
2, 274181, Note_on_c, 2, 74, 127
2, 274653, Note_off_c, 12, 71, 127
2, 274653, Note_off_c, 5, 53, 127
2, 274656, Note_on_c, 4, 52, 127
2, 274656, Note_on_c, 10, 69, 127
2, 274733, Note_off_c, 4, 52, 127
2, 274735, Note_on_c, 2, 50, 127
2, 274812, Note_off_c, 2, 50, 127
2, 274813, Note_off_c, 10, 69, 127
2, 274815, Note_on_c, 4, 52, 127
2, 274815, Note_on_c, 8, 68, 127
2, 275286, Note_off_c, 2, 74, 127
2, 275289, Note_on_c, 0, 72, 127
2, 275366, Note_off_c, 0, 72, 127
2, 275370, Note_on_c, 12, 71, 127
2, 275446, Note_off_c, 8, 68, 127
2, 275447, Note_off_c, 12, 71, 127
2, 275449, Note_on_c, 10, 69, 127
2, 275449, Note_on_c, 0, 72, 127
2, 275921, Note_off_c, 0, 72, 127
2, 275924, Note_on_c, 2, 74, 127
2, 276079, Note_off_c, 2, 74, 127
2, 276081, Note_on_c, 4, 76, 127
2, 276461, Note_off_c, 4, 52, 127
2, 276552, Note_off_c, 10, 69, 127
2, 276555, Note_on_c, 12, 59, 127
2, 276555, Note_on_c, 10, 69, 127
2, 276710, Note_off_c, 10, 69, 127
2, 276710, Note_off_c, 12, 59, 127
2, 276712, Note_on_c, 4, 64, 127
2, 276712, Note_on_c, 8, 68, 127
2, 277184, Note_off_c, 8, 68, 127
2, 277184, Note_off_c, 4, 64, 127
2, 277186, Note_on_c, 12, 59, 127
2, 277186, Note_on_c, 10, 69, 127
2, 277263, Note_off_c, 10, 69, 127
2, 277267, Note_on_c, 12, 71, 127
2, 277343, Note_off_c, 12, 59, 127
2, 277344, Note_off_c, 12, 71, 127
2, 277346, Note_on_c, 0, 60, 127
2, 277346, Note_on_c, 4, 64, 127
2, 277658, Note_off_c, 4, 64, 127
2, 277738, Note_off_c, 0, 60, 127
2, 277741, Note_on_c, 12, 59, 127
2, 277818, Note_off_c, 12, 59, 127
2, 277818, Note_off_c, 4, 76, 127
2, 277821, Note_on_c, 10, 57, 127
2, 277821, Note_on_c, 10, 69, 127
2, 277898, Note_off_c, 10, 57, 127
2, 277900, Note_on_c, 7, 55, 127
2, 277977, Note_off_c, 7, 55, 127
2, 277978, Note_off_c, 10, 69, 127
2, 277980, Note_on_c, 6, 54, 127
2, 277980, Note_on_c, 2, 74, 127
2, 278452, Note_off_c, 2, 74, 127
2, 278452, Note_off_c, 6, 54, 127
2, 278454, Note_on_c, 10, 57, 127
2, 278454, Note_on_c, 2, 74, 127
2, 278609, Note_off_c, 2, 74, 127
2, 278609, Note_off_c, 10, 57, 127
2, 278611, Note_on_c, 8, 56, 127
2, 278611, Note_on_c, 2, 74, 127
2, 279003, Note_off_c, 2, 74, 127
2, 279006, Note_on_c, 0, 72, 127
2, 279083, Note_off_c, 0, 72, 127
2, 279086, Note_on_c, 4, 64, 127
2, 279086, Note_on_c, 12, 71, 127
2, 279163, Note_off_c, 12, 71, 127
2, 279165, Note_on_c, 0, 72, 127
2, 279242, Note_off_c, 0, 72, 127
2, 279242, Note_off_c, 8, 56, 127
2, 279243, Note_off_c, 4, 64, 127
2, 279246, Note_on_c, 10, 57, 127
2, 279246, Note_on_c, 10, 69, 127
2, 279246, Note_on_c, 2, 74, 127
2, 279323, Note_off_c, 2, 74, 127
2, 279325, Note_on_c, 0, 72, 127
2, 279402, Note_off_c, 0, 72, 127
2, 279405, Note_on_c, 2, 74, 127
2, 279482, Note_off_c, 2, 74, 127
2, 279484, Note_on_c, 0, 72, 127
2, 279561, Note_off_c, 0, 72, 127
2, 279564, Note_on_c, 2, 74, 127
2, 279641, Note_off_c, 2, 74, 127
2, 279643, Note_on_c, 0, 72, 127
2, 279720, Note_off_c, 0, 72, 127
2, 279721, Note_off_c, 10, 69, 127
2, 279723, Note_on_c, 4, 64, 127
2, 279723, Note_on_c, 12, 71, 127
2, 279878, Note_off_c, 12, 71, 127
2, 279878, Note_off_c, 4, 64, 127
2, 279881, Note_on_c, 5, 65, 127
2, 279881, Note_on_c, 12, 71, 127
2, 280273, Note_off_c, 5, 65, 127
2, 280276, Note_on_c, 4, 64, 127
2, 280353, Note_off_c, 4, 64, 127
2, 280355, Note_on_c, 2, 62, 127
2, 280432, Note_off_c, 2, 62, 127
2, 280435, Note_on_c, 0, 60, 127
2, 280484, Note_off_c, 10, 57, 127
2, 280512, Note_off_c, 0, 60, 127
2, 280515, Note_on_c, 8, 56, 127
2, 280515, Note_on_c, 12, 59, 127
2, 280987, Note_off_c, 12, 59, 127
2, 280987, Note_off_c, 8, 56, 127
2, 280989, Note_on_c, 10, 57, 127
2, 280989, Note_on_c, 2, 62, 127
2, 281066, Note_off_c, 10, 57, 127
2, 281068, Note_on_c, 12, 59, 127
2, 281145, Note_off_c, 12, 59, 127
2, 281146, Note_off_c, 2, 62, 127
2, 281148, Note_on_c, 4, 52, 127
2, 281148, Note_on_c, 0, 60, 127
2, 281620, Note_off_c, 0, 60, 127
2, 281620, Note_off_c, 12, 71, 127
2, 281622, Note_on_c, 12, 59, 127
2, 281622, Note_on_c, 4, 76, 127
2, 281777, Note_off_c, 4, 76, 127
2, 281777, Note_off_c, 12, 59, 127
2, 281780, Note_on_c, 0, 60, 127
2, 281780, Note_on_c, 10, 81, 127
2, 282094, Note_off_c, 4, 52, 127
2, 282252, Note_off_c, 10, 81, 127
2, 282255, Note_on_c, 0, 48, 127
2, 282255, Note_on_c, 4, 76, 127
2, 282410, Note_off_c, 4, 76, 127
2, 282410, Note_off_c, 0, 48, 127
2, 282412, Note_on_c, 2, 50, 127
2, 282412, Note_on_c, 5, 77, 127
2, 282804, Note_off_c, 5, 77, 127
2, 282807, Note_on_c, 4, 76, 127
2, 282883, Note_off_c, 0, 60, 127
2, 282884, Note_off_c, 4, 76, 127
2, 282886, Note_on_c, 10, 57, 127
2, 282886, Note_on_c, 2, 74, 127
2, 282963, Note_off_c, 2, 74, 127
2, 282966, Note_on_c, 0, 72, 127
2, 283043, Note_off_c, 0, 72, 127
2, 283043, Note_off_c, 10, 57, 127
2, 283045, Note_on_c, 2, 62, 127
2, 283045, Note_on_c, 12, 71, 127
2, 283517, Note_off_c, 12, 71, 127
2, 283517, Note_off_c, 2, 62, 127
2, 283519, Note_on_c, 5, 65, 127
2, 283519, Note_on_c, 2, 74, 127
2, 283674, Note_off_c, 2, 74, 127
2, 283674, Note_off_c, 5, 65, 127
2, 283678, Note_on_c, 4, 64, 127
2, 283678, Note_on_c, 8, 68, 127
2, 283832, Note_off_c, 2, 50, 127
2, 283835, Note_on_c, 2, 50, 127
2, 283990, Note_off_c, 2, 50, 127
2, 283992, Note_on_c, 0, 48, 127
2, 284147, Note_off_c, 0, 48, 127
2, 284148, Note_off_c, 8, 68, 127
2, 284150, Note_on_c, 12, 47, 127
2, 284150, Note_on_c, 6, 66, 127
2, 284216, Note_off_c, 4, 64, 127
2, 284227, Note_off_c, 6, 66, 127
2, 284229, Note_on_c, 4, 64, 127
2, 284306, Note_off_c, 4, 64, 127
2, 284307, Note_off_c, 12, 47, 127
2, 284309, Note_on_c, 10, 45, 127
2, 284309, Note_on_c, 10, 69, 127
2, 284309, Note_on_c, 0, 72, 127
2, 284464, Note_off_c, 10, 45, 127
2, 284466, Note_on_c, 7, 43, 127
2, 284621, Note_off_c, 7, 43, 127
2, 284624, Note_on_c, 5, 41, 127
2, 284779, Note_off_c, 5, 41, 127
2, 284779, Note_off_c, 0, 72, 127
2, 284781, Note_on_c, 4, 40, 127
2, 284781, Note_on_c, 0, 72, 127
2, 284936, Note_off_c, 0, 72, 127
2, 284936, Note_off_c, 4, 40, 127
2, 284936, Note_off_c, 10, 69, 127
2, 284938, Note_on_c, 2, 38, 127
2, 284938, Note_on_c, 10, 69, 127
2, 284938, Note_on_c, 0, 72, 127
2, 285330, Note_off_c, 0, 72, 127
2, 285333, Note_on_c, 2, 74, 127
2, 285410, Note_off_c, 2, 74, 127
2, 285410, Note_off_c, 2, 38, 127
2, 285413, Note_on_c, 2, 50, 127
2, 285413, Note_on_c, 0, 72, 127
2, 285490, Note_off_c, 0, 72, 127
2, 285493, Note_on_c, 12, 71, 127
2, 285569, Note_off_c, 10, 69, 127
2, 285570, Note_off_c, 12, 71, 127
2, 285570, Note_off_c, 2, 50, 127
2, 285573, Note_on_c, 4, 52, 127
2, 285573, Note_on_c, 8, 68, 127
2, 285573, Note_on_c, 0, 72, 127
2, 285650, Note_off_c, 0, 72, 127
2, 285652, Note_on_c, 12, 71, 127
2, 285729, Note_off_c, 12, 71, 127
2, 285732, Note_on_c, 0, 72, 127
2, 285809, Note_off_c, 0, 72, 127
2, 285811, Note_on_c, 12, 71, 127
2, 285888, Note_off_c, 12, 71, 127
2, 285891, Note_on_c, 0, 72, 127
2, 285968, Note_off_c, 0, 72, 127
2, 285971, Note_on_c, 12, 71, 127
2, 286048, Note_off_c, 12, 71, 127
2, 286048, Note_off_c, 4, 52, 127
2, 286050, Note_on_c, 4, 40, 127
2, 286050, Note_on_c, 10, 69, 127
2, 286202, Note_off_c, 8, 68, 127
2, 286207, Note_off_c, 10, 69, 127
2, 286207, Note_off_c, 4, 40, 127
2, 286210, Note_on_c, 10, 45, 127
2, 286210, Note_on_c, 10, 69, 127
2, 286604, Note_on_c, 7, 67, 127
2, 286681, Note_off_c, 7, 67, 127
2, 286685, Note_on_c, 1, 49, 127
2, 286685, Note_on_c, 5, 65, 127
2, 286762, Note_off_c, 5, 65, 127
2, 286764, Note_on_c, 4, 64, 127
2, 286841, Note_off_c, 4, 64, 127
2, 286842, Note_off_c, 1, 49, 127
2, 286844, Note_on_c, 2, 50, 127
2, 286844, Note_on_c, 5, 65, 127
2, 287316, Note_off_c, 5, 65, 127
2, 287316, Note_off_c, 2, 50, 127
2, 287318, Note_on_c, 5, 53, 127
2, 287318, Note_on_c, 2, 62, 127
2, 287473, Note_off_c, 5, 53, 127
2, 287475, Note_on_c, 4, 52, 127
2, 287867, Note_off_c, 2, 62, 127
2, 287870, Note_on_c, 2, 62, 127
2, 287947, Note_off_c, 2, 62, 127
2, 287949, Note_on_c, 1, 61, 127
2, 288026, Note_off_c, 1, 61, 127
2, 288029, Note_on_c, 12, 59, 127
2, 288106, Note_off_c, 12, 59, 127
2, 288108, Note_on_c, 1, 61, 127
2, 288420, Note_off_c, 1, 61, 127
2, 288559, Note_off_c, 4, 52, 127
2, 288566, Note_off_c, 10, 69, 127
2, 288622, Note_on_c, 4, 64, 127
2, 288658, Note_off_c, 10, 45, 127
2, 288777, Note_off_c, 4, 64, 127
2, 288779, Note_on_c, 10, 57, 127
2, 289253, Note_on_c, 2, 62, 127
2, 289350, Note_off_c, 10, 57, 127
2, 289408, Note_off_c, 2, 62, 127
2, 289410, Note_on_c, 1, 61, 127
2, 289802, Note_off_c, 1, 61, 127
2, 289805, Note_on_c, 2, 62, 127
2, 289882, Note_off_c, 2, 62, 127
2, 289884, Note_on_c, 4, 64, 127
2, 289961, Note_off_c, 4, 64, 127
2, 289965, Note_on_c, 5, 65, 127
2, 290042, Note_off_c, 5, 65, 127
2, 290044, Note_on_c, 7, 67, 127
2, 290516, Note_off_c, 7, 67, 127
2, 290519, Note_on_c, 4, 64, 127
2, 290674, Note_off_c, 4, 64, 127
2, 290676, Note_on_c, 5, 65, 127
2, 291150, Note_on_c, 10, 57, 127
2, 291305, Note_off_c, 10, 57, 127
2, 291307, Note_on_c, 2, 50, 127
2, 291700, Note_off_c, 5, 65, 127
2, 291702, Note_on_c, 4, 64, 127
2, 291779, Note_off_c, 4, 64, 127
2, 291779, Note_off_c, 2, 50, 127
2, 291781, Note_on_c, 5, 65, 127
2, 291781, Note_on_c, 7, 55, 127
2, 291858, Note_off_c, 5, 65, 127
2, 291862, Note_on_c, 7, 67, 127
2, 291938, Note_off_c, 7, 55, 127
2, 291939, Note_off_c, 7, 67, 127
2, 291942, Note_on_c, 10, 69, 127
2, 291942, Note_on_c, 6, 54, 127
2, 292334, Note_off_c, 6, 54, 127
2, 292336, Note_on_c, 7, 55, 127
2, 292413, Note_off_c, 7, 55, 127
2, 292416, Note_on_c, 10, 57, 127
2, 292493, Note_off_c, 10, 57, 127
2, 292495, Note_on_c, 11, 58, 127
2, 292572, Note_off_c, 11, 58, 127
2, 292575, Note_on_c, 0, 60, 127
2, 292968, Note_off_c, 10, 69, 127
2, 292970, Note_on_c, 6, 66, 127
2, 293047, Note_off_c, 6, 66, 127
2, 293047, Note_off_c, 0, 60, 127
2, 293049, Note_on_c, 7, 67, 127
2, 293049, Note_on_c, 10, 57, 127
2, 293126, Note_off_c, 7, 67, 127
2, 293129, Note_on_c, 10, 69, 127
2, 293206, Note_off_c, 10, 69, 127
2, 293206, Note_off_c, 10, 57, 127
2, 293208, Note_on_c, 2, 62, 127
2, 293208, Note_on_c, 11, 58, 127
2, 293683, Note_on_c, 2, 74, 127
2, 293837, Note_off_c, 2, 62, 127
2, 293838, Note_off_c, 2, 74, 127
2, 293841, Note_on_c, 7, 67, 127
2, 293841, Note_on_c, 4, 64, 127
2, 294194, Note_off_c, 11, 58, 127
2, 294235, Note_on_c, 11, 58, 127
2, 294312, Note_off_c, 11, 58, 127
2, 294313, Note_off_c, 7, 67, 127
2, 294315, Note_on_c, 2, 74, 127
2, 294315, Note_on_c, 10, 57, 127
2, 294392, Note_off_c, 10, 57, 127
2, 294395, Note_on_c, 7, 55, 127
2, 294472, Note_off_c, 7, 55, 127
2, 294472, Note_off_c, 2, 74, 127
2, 294474, Note_on_c, 1, 73, 127
2, 294474, Note_on_c, 10, 57, 127
2, 294866, Note_off_c, 1, 73, 127
2, 294867, Note_off_c, 4, 64, 127
2, 294869, Note_on_c, 2, 74, 127
2, 294869, Note_on_c, 5, 65, 127
2, 294946, Note_off_c, 5, 65, 127
2, 294946, Note_off_c, 2, 74, 127
2, 294949, Note_on_c, 4, 76, 127
2, 294949, Note_on_c, 4, 64, 127
2, 295026, Note_off_c, 4, 64, 127
2, 295026, Note_off_c, 4, 76, 127
2, 295028, Note_on_c, 5, 77, 127
2, 295028, Note_on_c, 2, 62, 127
2, 295105, Note_off_c, 2, 62, 127
2, 295105, Note_off_c, 5, 77, 127
2, 295108, Note_on_c, 7, 79, 127
2, 295108, Note_on_c, 2, 62, 127
2, 295185, Note_off_c, 2, 62, 127
2, 295187, Note_on_c, 1, 61, 127
2, 295264, Note_off_c, 1, 61, 127
2, 295267, Note_on_c, 2, 62, 127
2, 295344, Note_off_c, 2, 62, 127
2, 295346, Note_on_c, 1, 61, 127
2, 295423, Note_off_c, 1, 61, 127
2, 295426, Note_on_c, 2, 62, 127
2, 295503, Note_off_c, 2, 62, 127
2, 295507, Note_on_c, 1, 61, 127
2, 295583, Note_off_c, 7, 79, 127
2, 295584, Note_off_c, 1, 61, 127
2, 295586, Note_on_c, 4, 76, 127
2, 295586, Note_on_c, 12, 59, 127
2, 295598, Note_off_c, 10, 57, 127
2, 295663, Note_off_c, 12, 59, 127
2, 295666, Note_on_c, 1, 61, 127
2, 295743, Note_off_c, 1, 61, 127
2, 295743, Note_off_c, 4, 76, 127
2, 295745, Note_on_c, 5, 77, 127
2, 295745, Note_on_c, 2, 62, 127
2, 295745, Note_on_c, 2, 50, 127
2, 296205, Note_off_c, 2, 62, 127
2, 296217, Note_off_c, 2, 50, 127
2, 296220, Note_on_c, 10, 69, 127
2, 296220, Note_on_c, 2, 62, 127
2, 296297, Note_off_c, 2, 62, 127
2, 296299, Note_on_c, 0, 60, 127
2, 296367, Note_off_c, 10, 69, 127
2, 296374, Note_off_c, 0, 60, 127
2, 296377, Note_on_c, 2, 62, 127
2, 296377, Note_on_c, 12, 59, 127
2, 296849, Note_off_c, 12, 59, 127
2, 296849, Note_off_c, 2, 62, 127
2, 296851, Note_on_c, 10, 69, 127
2, 296851, Note_on_c, 0, 60, 127
2, 296928, Note_off_c, 0, 60, 127
2, 296930, Note_on_c, 2, 62, 127
2, 297007, Note_off_c, 2, 62, 127
2, 297007, Note_off_c, 5, 77, 127
2, 297008, Note_off_c, 10, 69, 127
2, 297011, Note_on_c, 4, 76, 127
2, 297011, Note_on_c, 8, 68, 127
2, 297011, Note_on_c, 2, 50, 127
2, 297403, Note_off_c, 2, 50, 127
2, 297403, Note_off_c, 8, 68, 127
2, 297405, Note_on_c, 10, 69, 127
2, 297405, Note_on_c, 5, 53, 127
2, 297482, Note_off_c, 5, 53, 127
2, 297482, Note_off_c, 10, 69, 127
2, 297485, Note_on_c, 12, 71, 127
2, 297485, Note_on_c, 4, 52, 127
2, 297562, Note_off_c, 4, 52, 127
2, 297562, Note_off_c, 12, 71, 127
2, 297565, Note_on_c, 0, 72, 127
2, 297565, Note_on_c, 2, 50, 127
2, 297642, Note_off_c, 2, 50, 127
2, 297642, Note_off_c, 0, 72, 127
2, 297644, Note_on_c, 2, 74, 127
2, 297644, Note_on_c, 10, 57, 127
2, 297721, Note_off_c, 10, 57, 127
2, 297724, Note_on_c, 8, 56, 127
2, 297801, Note_off_c, 8, 56, 127
2, 297804, Note_on_c, 10, 57, 127
2, 297881, Note_off_c, 10, 57, 127
2, 297883, Note_on_c, 8, 56, 127
2, 297960, Note_off_c, 8, 56, 127
2, 297963, Note_on_c, 10, 57, 127
2, 298040, Note_off_c, 10, 57, 127
2, 298042, Note_on_c, 8, 56, 127
2, 298119, Note_off_c, 8, 56, 127
2, 298119, Note_off_c, 2, 74, 127
2, 298123, Note_on_c, 12, 71, 127
2, 298123, Note_on_c, 6, 54, 127
2, 298200, Note_off_c, 6, 54, 127
2, 298202, Note_on_c, 4, 52, 127
2, 298279, Note_off_c, 4, 52, 127
2, 298280, Note_off_c, 12, 71, 127
2, 298282, Note_on_c, 0, 72, 127
2, 298282, Note_on_c, 10, 57, 127
2, 298754, Note_off_c, 10, 57, 127
2, 298754, Note_off_c, 4, 76, 127
2, 298756, Note_on_c, 4, 76, 127
2, 298756, Note_on_c, 10, 45, 127
2, 298833, Note_off_c, 10, 45, 127
2, 298836, Note_on_c, 12, 47, 127
2, 298913, Note_off_c, 12, 47, 127
2, 298913, Note_off_c, 4, 76, 127
2, 298915, Note_on_c, 10, 69, 127
2, 298915, Note_on_c, 0, 48, 127
2, 299387, Note_off_c, 0, 48, 127
2, 299387, Note_off_c, 10, 69, 127
2, 299390, Note_on_c, 4, 76, 127
2, 299390, Note_on_c, 12, 47, 127
2, 299467, Note_off_c, 12, 47, 127
2, 299469, Note_on_c, 10, 45, 127
2, 299546, Note_off_c, 10, 45, 127
2, 299547, Note_off_c, 4, 76, 127
2, 299549, Note_on_c, 5, 77, 127
2, 299549, Note_on_c, 2, 50, 127
2, 300021, Note_off_c, 0, 72, 127
2, 300023, Note_on_c, 2, 74, 127
2, 300100, Note_off_c, 2, 74, 127
2, 300103, Note_on_c, 4, 76, 127
2, 300180, Note_off_c, 4, 76, 127
2, 300183, Note_on_c, 2, 74, 127
2, 300654, Note_off_c, 5, 77, 127
2, 300655, Note_off_c, 2, 74, 127
2, 300658, Note_on_c, 4, 76, 127
2, 300658, Note_on_c, 0, 72, 127
2, 300813, Note_off_c, 0, 72, 127
2, 300813, Note_off_c, 4, 76, 127
2, 300815, Note_on_c, 2, 74, 127
2, 300815, Note_on_c, 12, 71, 127
2, 301030, Note_off_c, 2, 50, 127
2, 301285, Note_off_c, 2, 74, 127
2, 301287, Note_on_c, 2, 74, 127
2, 301287, Note_on_c, 7, 43, 127
2, 301364, Note_off_c, 7, 43, 127
2, 301366, Note_on_c, 10, 45, 127
2, 301443, Note_off_c, 10, 45, 127
2, 301444, Note_off_c, 2, 74, 127
2, 301446, Note_on_c, 7, 67, 127
2, 301446, Note_on_c, 12, 47, 127
2, 301918, Note_off_c, 12, 47, 127
2, 301918, Note_off_c, 7, 67, 127
2, 301920, Note_on_c, 2, 74, 127
2, 301920, Note_on_c, 10, 45, 127
2, 301997, Note_off_c, 10, 45, 127
2, 302000, Note_on_c, 7, 43, 127
2, 302077, Note_off_c, 7, 43, 127
2, 302077, Note_off_c, 2, 74, 127
2, 302080, Note_on_c, 4, 76, 127
2, 302080, Note_on_c, 0, 48, 127
2, 302552, Note_off_c, 12, 71, 127
2, 302555, Note_on_c, 0, 72, 127
2, 302632, Note_off_c, 0, 72, 127
2, 302634, Note_on_c, 2, 74, 127
2, 302711, Note_off_c, 2, 74, 127
2, 302714, Note_on_c, 0, 72, 127
2, 303068, Note_off_c, 0, 48, 127
2, 303109, Note_on_c, 0, 48, 127
2, 303185, Note_off_c, 4, 76, 127
2, 303186, Note_off_c, 0, 48, 127
2, 303186, Note_off_c, 0, 72, 127
2, 303188, Note_on_c, 2, 74, 127
2, 303188, Note_on_c, 12, 71, 127
2, 303188, Note_on_c, 2, 50, 127
2, 303265, Note_off_c, 2, 50, 127
2, 303268, Note_on_c, 4, 52, 127
2, 303345, Note_off_c, 4, 52, 127
2, 303345, Note_off_c, 12, 71, 127
2, 303345, Note_off_c, 2, 74, 127
2, 303347, Note_on_c, 0, 72, 127
2, 303347, Note_on_c, 10, 69, 127
2, 303347, Note_on_c, 5, 53, 127
2, 303739, Note_off_c, 0, 72, 127
2, 303742, Note_on_c, 0, 72, 127
2, 303819, Note_off_c, 0, 72, 127
2, 303819, Note_off_c, 5, 53, 127
2, 303822, Note_on_c, 2, 74, 127
2, 303822, Note_on_c, 10, 57, 127
2, 303899, Note_off_c, 2, 74, 127
2, 303901, Note_on_c, 4, 76, 127
2, 303972, Note_off_c, 10, 69, 127
2, 303978, Note_off_c, 4, 76, 127
2, 303979, Note_off_c, 10, 57, 127
2, 303981, Note_on_c, 5, 77, 127
2, 303981, Note_on_c, 2, 50, 127
2, 304373, Note_off_c, 5, 77, 127
2, 304375, Note_on_c, 4, 76, 127
2, 304452, Note_off_c, 4, 76, 127
2, 304453, Note_off_c, 2, 50, 127
2, 304455, Note_on_c, 5, 77, 127
2, 304455, Note_on_c, 10, 57, 127
2, 304532, Note_off_c, 5, 77, 127
2, 304535, Note_on_c, 2, 74, 127
2, 304612, Note_off_c, 2, 74, 127
2, 304612, Note_off_c, 10, 57, 127
2, 304614, Note_on_c, 12, 83, 127
2, 304614, Note_on_c, 8, 56, 127
2, 305006, Note_off_c, 8, 56, 127
2, 305009, Note_on_c, 10, 57, 127
2, 305086, Note_off_c, 10, 57, 127
2, 305088, Note_on_c, 10, 81, 127
2, 305088, Note_on_c, 12, 59, 127
2, 305165, Note_off_c, 12, 59, 127
2, 305169, Note_on_c, 0, 60, 127
2, 305245, Note_off_c, 10, 81, 127
2, 305246, Note_off_c, 0, 60, 127
2, 305249, Note_on_c, 8, 80, 127
2, 305249, Note_on_c, 2, 62, 127
2, 305721, Note_off_c, 2, 62, 127
2, 305721, Note_off_c, 8, 80, 127
2, 305723, Note_on_c, 10, 81, 127
2, 305723, Note_on_c, 12, 59, 127
2, 305734, Note_off_c, 12, 83, 127
2, 305800, Note_off_c, 10, 81, 127
2, 305802, Note_on_c, 12, 83, 127
2, 305880, Note_off_c, 12, 59, 127
2, 305882, Note_on_c, 4, 76, 127
2, 305882, Note_on_c, 0, 60, 127
2, 306354, Note_off_c, 0, 60, 127
2, 306356, Note_on_c, 10, 81, 127
2, 306356, Note_on_c, 12, 59, 127
2, 306363, Note_off_c, 12, 83, 127
2, 306431, Note_off_c, 10, 81, 127
2, 306434, Note_on_c, 8, 80, 127
2, 306511, Note_off_c, 8, 80, 127
2, 306511, Note_off_c, 12, 59, 127
2, 306513, Note_on_c, 10, 81, 127
2, 306513, Note_on_c, 0, 60, 127
2, 306906, Note_off_c, 4, 76, 127
2, 306908, Note_on_c, 2, 74, 127
2, 306985, Note_off_c, 2, 74, 127
2, 306985, Note_off_c, 0, 60, 127
2, 306988, Note_on_c, 4, 76, 127
2, 306988, Note_on_c, 2, 62, 127
2, 307065, Note_off_c, 4, 76, 127
2, 307067, Note_on_c, 5, 77, 127
2, 307144, Note_off_c, 5, 77, 127
2, 307145, Note_off_c, 2, 62, 127
2, 307148, Note_on_c, 12, 71, 127
2, 307148, Note_on_c, 4, 64, 127
2, 307567, Note_off_c, 10, 81, 127
2, 307620, Note_off_c, 4, 64, 127
2, 307622, Note_on_c, 7, 79, 127
2, 307622, Note_on_c, 5, 65, 127
2, 307699, Note_off_c, 7, 79, 127
2, 307702, Note_on_c, 6, 78, 127
2, 307779, Note_off_c, 6, 78, 127
2, 307779, Note_off_c, 5, 65, 127
2, 307781, Note_on_c, 7, 79, 127
2, 307781, Note_on_c, 4, 64, 127
2, 308174, Note_off_c, 12, 71, 127
2, 308176, Note_on_c, 12, 71, 127
2, 308253, Note_off_c, 12, 71, 127
2, 308253, Note_off_c, 4, 64, 127
2, 308256, Note_on_c, 1, 73, 127
2, 308256, Note_on_c, 2, 62, 127
2, 308333, Note_off_c, 1, 73, 127
2, 308335, Note_on_c, 2, 74, 127
2, 308412, Note_off_c, 2, 74, 127
2, 308413, Note_off_c, 2, 62, 127
2, 308415, Note_on_c, 4, 76, 127
2, 308415, Note_on_c, 1, 61, 127
2, 308807, Note_off_c, 1, 61, 127
2, 308809, Note_on_c, 10, 57, 127
2, 308886, Note_off_c, 10, 57, 127
2, 308886, Note_off_c, 7, 79, 127
2, 308889, Note_on_c, 10, 81, 127
2, 308889, Note_on_c, 12, 59, 127
2, 308966, Note_off_c, 12, 59, 127
2, 308968, Note_on_c, 1, 61, 127
2, 309045, Note_off_c, 1, 61, 127
2, 309046, Note_off_c, 10, 81, 127
2, 309048, Note_on_c, 5, 77, 127
2, 309048, Note_on_c, 2, 62, 127
2, 309440, Note_off_c, 2, 62, 127
2, 309441, Note_off_c, 4, 76, 127
2, 309443, Note_on_c, 2, 74, 127
2, 309443, Note_on_c, 2, 50, 127
2, 309520, Note_off_c, 2, 50, 127
2, 309520, Note_off_c, 2, 74, 127
2, 309522, Note_on_c, 1, 73, 127
2, 309522, Note_on_c, 4, 52, 127
2, 309599, Note_off_c, 4, 52, 127
2, 309599, Note_off_c, 1, 73, 127
2, 309602, Note_on_c, 2, 74, 127
2, 309602, Note_on_c, 5, 53, 127
2, 309679, Note_off_c, 5, 53, 127
2, 309679, Note_off_c, 2, 74, 127
2, 309682, Note_on_c, 7, 67, 127
2, 309682, Note_on_c, 0, 48, 127
2, 309771, Note_on_c, 11, 46, 127
2, 309772, Note_off_c, 0, 48, 127
2, 309861, Note_off_c, 11, 46, 127
2, 309862, Note_on_c, 0, 48, 127
2, 309952, Note_off_c, 0, 48, 127
2, 309954, Note_on_c, 11, 46, 127
2, 310043, Note_on_c, 0, 48, 127
2, 310044, Note_off_c, 11, 46, 127
2, 310076, Note_off_c, 5, 77, 127
2, 310078, Note_on_c, 5, 77, 127
2, 310133, Note_off_c, 0, 48, 127
2, 310133, Note_on_c, 11, 46, 127
2, 310155, Note_off_c, 5, 77, 127
2, 310158, Note_on_c, 4, 76, 127
2, 310223, Note_off_c, 11, 46, 127
2, 310224, Note_on_c, 0, 48, 127
2, 310235, Note_off_c, 4, 76, 127
2, 310238, Note_on_c, 5, 77, 127
2, 310314, Note_off_c, 0, 48, 127
2, 310315, Note_off_c, 5, 77, 127
2, 310316, Note_on_c, 11, 46, 127
2, 310318, Note_on_c, 7, 79, 127
2, 310395, Note_off_c, 7, 79, 127
2, 310398, Note_on_c, 5, 77, 127
2, 310405, Note_on_c, 0, 48, 127
2, 310406, Note_off_c, 11, 46, 127
2, 310475, Note_off_c, 5, 77, 127
2, 310477, Note_on_c, 4, 76, 127
2, 310495, Note_off_c, 0, 48, 127
2, 310495, Note_on_c, 11, 46, 127
2, 310585, Note_off_c, 11, 46, 127
2, 310587, Note_on_c, 0, 48, 127
2, 310676, Note_on_c, 11, 46, 127
2, 310677, Note_off_c, 0, 48, 127
2, 310711, Note_off_c, 4, 76, 127
2, 310714, Note_on_c, 5, 77, 127
2, 310791, Note_off_c, 5, 77, 127
2, 310793, Note_on_c, 4, 76, 127
2, 310870, Note_off_c, 4, 76, 127
2, 310874, Note_on_c, 2, 74, 127
2, 310923, Note_off_c, 11, 46, 127
2, 310951, Note_off_c, 2, 74, 127
2, 310953, Note_on_c, 1, 73, 127
2, 310953, Note_on_c, 10, 45, 127
2, 311334, Note_off_c, 7, 67, 127
2, 311413, Note_off_c, 10, 45, 127
2, 311428, Note_on_c, 4, 64, 127
2, 311583, Note_off_c, 4, 64, 127
2, 311585, Note_on_c, 10, 69, 127
2, 312057, Note_off_c, 10, 69, 127
2, 312059, Note_on_c, 4, 64, 127
2, 312213, Note_off_c, 1, 73, 127
2, 312214, Note_off_c, 4, 64, 127
2, 312216, Note_on_c, 5, 65, 127
2, 312608, Note_off_c, 5, 65, 127
2, 312611, Note_on_c, 4, 64, 127
2, 312688, Note_off_c, 4, 64, 127
2, 312690, Note_on_c, 10, 69, 127
2, 312690, Note_on_c, 2, 62, 127
2, 312767, Note_off_c, 2, 62, 127
2, 312771, Note_on_c, 0, 60, 127
2, 312847, Note_off_c, 10, 69, 127
2, 312848, Note_off_c, 0, 60, 127
2, 312851, Note_on_c, 2, 74, 127
2, 312851, Note_on_c, 12, 59, 127
2, 313323, Note_off_c, 12, 59, 127
2, 313323, Note_off_c, 2, 74, 127
2, 313325, Note_on_c, 10, 69, 127
2, 313325, Note_on_c, 2, 62, 127
2, 313480, Note_off_c, 2, 62, 127
2, 313480, Note_off_c, 10, 69, 127
2, 313482, Note_on_c, 11, 70, 127
2, 313482, Note_on_c, 1, 61, 127
2, 313874, Note_off_c, 11, 70, 127
2, 313877, Note_on_c, 10, 69, 127
2, 313954, Note_off_c, 10, 69, 127
2, 313956, Note_on_c, 7, 67, 127
2, 313956, Note_on_c, 4, 52, 127
2, 314033, Note_off_c, 7, 67, 127
2, 314036, Note_on_c, 5, 65, 127
2, 314113, Note_off_c, 5, 65, 127
2, 314113, Note_off_c, 4, 52, 127
2, 314115, Note_on_c, 4, 64, 127
2, 314115, Note_on_c, 10, 57, 127
2, 314587, Note_off_c, 10, 57, 127
2, 314587, Note_off_c, 4, 64, 127
2, 314590, Note_on_c, 7, 67, 127
2, 314590, Note_on_c, 4, 52, 127
2, 314744, Note_off_c, 1, 61, 127
2, 314745, Note_off_c, 4, 52, 127
2, 314745, Note_off_c, 7, 67, 127
2, 314748, Note_on_c, 5, 65, 127
2, 314748, Note_on_c, 2, 62, 127
2, 314748, Note_on_c, 5, 53, 127
2, 315140, Note_off_c, 5, 53, 127
2, 315143, Note_on_c, 4, 52, 127
2, 315220, Note_off_c, 4, 52, 127
2, 315220, Note_off_c, 5, 65, 127
2, 315222, Note_on_c, 2, 74, 127
2, 315222, Note_on_c, 2, 50, 127
2, 315299, Note_off_c, 2, 50, 127
2, 315302, Note_on_c, 0, 48, 127
2, 315379, Note_off_c, 0, 48, 127
2, 315379, Note_off_c, 2, 74, 127
2, 315381, Note_on_c, 7, 67, 127
2, 315381, Note_on_c, 11, 46, 127
2, 315853, Note_off_c, 11, 46, 127
2, 315853, Note_off_c, 7, 67, 127
2, 315856, Note_on_c, 2, 74, 127
2, 315856, Note_on_c, 2, 50, 127
2, 316010, Note_off_c, 2, 62, 127
2, 316011, Note_off_c, 2, 50, 127
2, 316011, Note_off_c, 2, 74, 127
2, 316013, Note_on_c, 1, 73, 127
2, 316013, Note_on_c, 4, 64, 127
2, 316013, Note_on_c, 7, 43, 127
2, 316405, Note_off_c, 7, 43, 127
2, 316405, Note_off_c, 1, 73, 127
2, 316407, Note_on_c, 2, 74, 127
2, 316407, Note_on_c, 5, 53, 127
2, 316484, Note_off_c, 5, 53, 127
2, 316484, Note_off_c, 2, 74, 127
2, 316487, Note_on_c, 4, 76, 127
2, 316487, Note_on_c, 4, 52, 127
2, 316564, Note_off_c, 4, 52, 127
2, 316564, Note_off_c, 4, 76, 127
2, 316566, Note_on_c, 5, 77, 127
2, 316566, Note_on_c, 2, 50, 127
2, 316638, Note_off_c, 4, 64, 127
2, 316643, Note_off_c, 2, 50, 127
2, 316643, Note_off_c, 5, 77, 127
2, 316647, Note_on_c, 7, 79, 127
2, 316647, Note_on_c, 2, 50, 127
2, 316724, Note_off_c, 2, 50, 127
2, 316727, Note_on_c, 1, 49, 127
2, 316804, Note_off_c, 1, 49, 127
2, 316806, Note_on_c, 2, 50, 127
2, 316883, Note_off_c, 2, 50, 127
2, 316886, Note_on_c, 1, 49, 127
2, 316963, Note_off_c, 1, 49, 127
2, 316965, Note_on_c, 2, 50, 127
2, 317042, Note_off_c, 2, 50, 127
2, 317045, Note_on_c, 1, 49, 127
2, 317122, Note_off_c, 1, 49, 127
2, 317122, Note_off_c, 7, 79, 127
2, 317124, Note_on_c, 4, 76, 127
2, 317124, Note_on_c, 12, 47, 127
2, 317201, Note_off_c, 12, 47, 127
2, 317204, Note_on_c, 1, 49, 127
2, 317281, Note_off_c, 1, 49, 127
2, 317281, Note_off_c, 4, 76, 127
2, 317285, Note_on_c, 6, 78, 127
2, 317285, Note_on_c, 2, 50, 127
2, 317677, Note_off_c, 2, 50, 127
2, 317677, Note_off_c, 6, 78, 127
2, 317678, Note_on_c, 7, 79, 127
2, 317678, Note_on_c, 11, 58, 127
2, 317755, Note_off_c, 11, 58, 127
2, 317755, Note_off_c, 7, 79, 127
2, 317759, Note_on_c, 10, 81, 127
2, 317759, Note_on_c, 10, 57, 127
2, 317836, Note_off_c, 10, 57, 127
2, 317836, Note_off_c, 10, 81, 127
2, 317838, Note_on_c, 11, 82, 127
2, 317838, Note_on_c, 7, 55, 127
2, 317915, Note_off_c, 7, 55, 127
2, 317915, Note_off_c, 11, 82, 127
2, 317918, Note_on_c, 0, 84, 127
2, 317918, Note_on_c, 7, 55, 127
2, 317995, Note_off_c, 7, 55, 127
2, 317998, Note_on_c, 6, 54, 127
2, 318075, Note_off_c, 6, 54, 127
2, 318077, Note_on_c, 7, 55, 127
2, 318154, Note_off_c, 7, 55, 127
2, 318157, Note_on_c, 6, 54, 127
2, 318234, Note_off_c, 6, 54, 127
2, 318236, Note_on_c, 7, 55, 127
2, 318313, Note_off_c, 7, 55, 127
2, 318316, Note_on_c, 6, 54, 127
2, 318393, Note_off_c, 6, 54, 127
2, 318393, Note_off_c, 0, 84, 127
2, 318396, Note_on_c, 10, 81, 127
2, 318396, Note_on_c, 4, 52, 127
2, 318473, Note_off_c, 4, 52, 127
2, 318476, Note_on_c, 6, 54, 127
2, 318553, Note_off_c, 6, 54, 127
2, 318553, Note_off_c, 10, 81, 127
2, 318555, Note_on_c, 11, 82, 127
2, 318555, Note_on_c, 7, 55, 127
2, 318947, Note_off_c, 7, 55, 127
2, 318950, Note_on_c, 10, 57, 127
2, 319027, Note_off_c, 10, 57, 127
2, 319030, Note_on_c, 2, 74, 127
2, 319030, Note_on_c, 7, 55, 127
2, 319107, Note_off_c, 7, 55, 127
2, 319109, Note_on_c, 5, 53, 127
2, 319186, Note_off_c, 5, 53, 127
2, 319187, Note_off_c, 2, 74, 127
2, 319189, Note_on_c, 7, 79, 127
2, 319189, Note_on_c, 4, 52, 127
2, 319581, Note_off_c, 4, 52, 127
2, 319584, Note_on_c, 5, 53, 127
2, 319660, Note_off_c, 11, 82, 127
2, 319661, Note_off_c, 5, 53, 127
2, 319661, Note_off_c, 7, 79, 127
2, 319663, Note_on_c, 10, 81, 127
2, 319663, Note_on_c, 2, 74, 127
2, 319663, Note_on_c, 4, 52, 127
2, 319740, Note_off_c, 4, 52, 127
2, 319743, Note_on_c, 2, 50, 127
2, 319820, Note_off_c, 2, 50, 127
2, 319820, Note_off_c, 2, 74, 127
2, 319820, Note_off_c, 10, 81, 127
2, 319822, Note_on_c, 7, 79, 127
2, 319822, Note_on_c, 4, 76, 127
2, 319822, Note_on_c, 1, 49, 127
2, 320214, Note_off_c, 4, 76, 127
2, 320217, Note_on_c, 2, 74, 127
2, 320294, Note_off_c, 2, 74, 127
2, 320294, Note_off_c, 1, 49, 127
2, 320297, Note_on_c, 1, 73, 127
2, 320297, Note_on_c, 10, 45, 127
2, 320374, Note_off_c, 1, 73, 127
2, 320376, Note_on_c, 12, 71, 127
2, 320453, Note_off_c, 12, 71, 127
2, 320453, Note_off_c, 7, 79, 127
2, 320454, Note_off_c, 10, 45, 127
2, 320456, Note_on_c, 5, 77, 127
2, 320456, Note_on_c, 10, 69, 127
2, 320456, Note_on_c, 2, 50, 127
2, 320928, Note_off_c, 2, 50, 127
2, 320928, Note_off_c, 10, 69, 127
2, 320930, Note_on_c, 0, 72, 127
2, 320930, Note_on_c, 2, 38, 127
2, 321092, Note_off_c, 2, 38, 127
2, 321092, Note_off_c, 0, 72, 127
2, 321095, Note_on_c, 11, 70, 127
2, 321095, Note_on_c, 7, 43, 127
2, 321244, Note_off_c, 5, 77, 127
2, 321265, Note_on_c, 4, 76, 127
2, 321427, Note_off_c, 4, 76, 127
2, 321433, Note_on_c, 2, 74, 127
2, 321595, Note_off_c, 2, 74, 127
2, 321595, Note_off_c, 11, 70, 127
2, 321602, Note_on_c, 1, 73, 127
2, 321602, Note_on_c, 7, 67, 127
2, 321764, Note_off_c, 7, 67, 127
2, 321764, Note_off_c, 1, 73, 127
2, 321771, Note_on_c, 2, 74, 127
2, 321771, Note_on_c, 2, 62, 127
2, 321933, Note_off_c, 2, 74, 127
2, 321940, Note_on_c, 4, 76, 127
2, 322102, Note_off_c, 4, 76, 127
2, 322109, Note_on_c, 5, 77, 127
2, 322271, Note_off_c, 5, 77, 127
2, 322271, Note_off_c, 2, 62, 127
2, 322277, Note_on_c, 7, 79, 127
2, 322277, Note_on_c, 5, 65, 127
2, 322356, Note_off_c, 7, 79, 127
2, 322361, Note_on_c, 10, 81, 127
2, 322390, Note_off_c, 7, 43, 127
2, 322438, Note_off_c, 5, 65, 127
2, 322440, Note_off_c, 10, 81, 127
2, 322443, Note_on_c, 11, 82, 127
2, 322443, Note_on_c, 4, 64, 127
2, 322443, Note_on_c, 7, 55, 127
2, 322858, Note_off_c, 4, 64, 127
2, 322858, Note_off_c, 11, 82, 127
2, 322864, Note_on_c, 10, 81, 127
2, 322864, Note_on_c, 5, 65, 127
2, 322943, Note_off_c, 5, 65, 127
2, 322943, Note_off_c, 10, 81, 127
2, 322946, Note_on_c, 7, 79, 127
2, 322946, Note_on_c, 7, 67, 127
2, 323025, Note_off_c, 7, 67, 127
2, 323025, Note_off_c, 7, 79, 127
2, 323030, Note_on_c, 5, 77, 127
2, 323030, Note_on_c, 10, 69, 127
2, 323109, Note_off_c, 10, 69, 127
2, 323109, Note_off_c, 5, 77, 127
2, 323112, Note_on_c, 4, 76, 127
2, 323112, Note_on_c, 11, 70, 127
2, 323274, Note_off_c, 4, 76, 127
2, 323281, Note_on_c, 5, 77, 127
2, 323443, Note_off_c, 5, 77, 127
2, 323450, Note_on_c, 7, 79, 127
2, 323612, Note_off_c, 7, 79, 127
2, 323612, Note_off_c, 11, 70, 127
2, 323619, Note_on_c, 7, 67, 127
2, 323619, Note_on_c, 4, 76, 127
2, 323785, Note_off_c, 4, 76, 127
2, 323785, Note_off_c, 7, 67, 127
2, 323791, Note_on_c, 10, 69, 127
2, 323791, Note_on_c, 2, 74, 127
2, 323871, Note_off_c, 2, 74, 127
2, 323879, Note_on_c, 1, 73, 127
2, 323959, Note_off_c, 1, 73, 127
2, 323962, Note_on_c, 2, 74, 127
2, 324042, Note_off_c, 2, 74, 127
2, 324049, Note_on_c, 1, 73, 127
2, 324129, Note_off_c, 1, 73, 127
2, 324133, Note_on_c, 2, 74, 127
2, 324163, Note_off_c, 7, 55, 127
2, 324215, Note_off_c, 2, 74, 127
2, 324223, Note_on_c, 7, 55, 127
2, 324223, Note_on_c, 1, 73, 127
2, 324303, Note_off_c, 1, 73, 127
2, 324303, Note_off_c, 7, 55, 127
2, 324305, Note_on_c, 5, 53, 127
2, 324305, Note_on_c, 12, 71, 127
2, 324378, Note_off_c, 10, 69, 127
2, 324385, Note_off_c, 12, 71, 127
2, 324385, Note_off_c, 5, 53, 127
2, 324393, Note_on_c, 4, 52, 127
2, 324393, Note_on_c, 10, 69, 127
2, 324473, Note_off_c, 10, 69, 127
2, 324473, Note_off_c, 4, 52, 127
2, 324479, Note_on_c, 2, 50, 127
2, 324479, Note_on_c, 2, 74, 127
2, 324479, Note_on_c, 5, 77, 127
2, 324905, Note_off_c, 2, 50, 127
2, 324911, Note_on_c, 0, 48, 127
2, 324991, Note_off_c, 0, 48, 127
2, 324991, Note_off_c, 5, 77, 127
2, 324996, Note_on_c, 5, 77, 127
2, 324996, Note_on_c, 11, 46, 127
2, 325078, Note_off_c, 11, 46, 127
2, 325086, Note_on_c, 10, 45, 127
2, 325165, Note_off_c, 2, 74, 127
2, 325168, Note_off_c, 5, 77, 127
2, 325170, Note_off_c, 10, 45, 127
2, 325172, Note_on_c, 5, 77, 127
2, 325172, Note_on_c, 2, 74, 127
2, 325172, Note_on_c, 7, 43, 127
2, 325609, Note_off_c, 5, 77, 127
2, 325619, Note_on_c, 7, 79, 127
2, 325697, Note_off_c, 7, 43, 127
2, 325701, Note_off_c, 7, 79, 127
2, 325706, Note_on_c, 5, 77, 127
2, 325706, Note_on_c, 7, 55, 127
2, 325788, Note_off_c, 5, 77, 127
2, 325795, Note_on_c, 4, 76, 127
2, 325873, Note_off_c, 2, 74, 127
2, 325874, Note_off_c, 7, 55, 127
2, 325877, Note_off_c, 4, 76, 127
2, 325884, Note_on_c, 5, 77, 127
2, 325884, Note_on_c, 1, 73, 127
2, 325884, Note_on_c, 10, 57, 127
2, 325966, Note_off_c, 5, 77, 127
2, 325973, Note_on_c, 4, 76, 127
2, 326055, Note_off_c, 4, 76, 127
2, 326063, Note_on_c, 5, 77, 127
2, 326145, Note_off_c, 5, 77, 127
2, 326151, Note_on_c, 4, 76, 127
2, 326233, Note_off_c, 4, 76, 127
2, 326241, Note_on_c, 5, 77, 127
2, 326323, Note_off_c, 5, 77, 127
2, 326330, Note_on_c, 4, 76, 127
2, 326412, Note_off_c, 4, 76, 127
2, 326412, Note_off_c, 10, 57, 127
2, 326419, Note_on_c, 10, 45, 127
2, 326419, Note_on_c, 2, 74, 127
2, 326585, Note_off_c, 1, 73, 127
2, 326594, Note_off_c, 2, 74, 127
2, 326594, Note_off_c, 10, 45, 127
2, 326599, Note_on_c, 2, 50, 127
2, 326599, Note_on_c, 2, 74, 127
2, 327060, Note_on_c, 0, 72, 127
2, 327144, Note_off_c, 0, 72, 127
2, 327148, Note_on_c, 6, 54, 127
2, 327148, Note_on_c, 11, 70, 127
2, 327232, Note_off_c, 11, 70, 127
2, 327241, Note_on_c, 10, 69, 127
2, 327322, Note_off_c, 6, 54, 127
2, 327325, Note_off_c, 10, 69, 127
2, 327332, Note_on_c, 7, 55, 127
2, 327332, Note_on_c, 11, 70, 127
2, 327873, Note_off_c, 11, 70, 127
2, 327873, Note_off_c, 7, 55, 127
2, 327880, Note_on_c, 11, 58, 127
2, 327880, Note_on_c, 7, 67, 127
2, 328065, Note_off_c, 11, 58, 127
2, 328072, Note_on_c, 10, 57, 127
2, 328551, Note_off_c, 7, 67, 127
2, 328599, Note_on_c, 7, 67, 127
2, 328707, Note_off_c, 7, 67, 127
2, 328721, Note_on_c, 6, 66, 127
2, 328829, Note_off_c, 6, 66, 127
2, 328840, Note_on_c, 4, 64, 127
2, 328962, Note_off_c, 4, 64, 127
2, 328984, Note_on_c, 6, 66, 127
2, 331495, Note_off_c, 2, 74, 127
2, 331846, Note_off_c, 10, 57, 127
2, 332044, Note_off_c, 6, 66, 127
2, 332719, Note_off_c, 2, 50, 127
2, 336384, End_track
3, 0, Start_track
3, 0, Title_t, "MIDI"
3, 1536, End_track
0, 0, End_of_file
