0, 0, Header, 1, 4, 240
1, 0, Start_track
1, 0, Time_signature, 3, 2, 24, 8
1, 0, Tempo, 909091
1, 5760, Time_signature, 3, 2, 24, 8
1, 5760, End_track
2, 0, Start_track
2, 0, Title_t, "English Suite 3, 4a. Saraband A"
2, 0, Program_c, 0, 0
2, 0, Note_on_c, 0, 70, 107
2, 0, Note_on_c, 0, 62, 107
2, 0, Note_on_c, 0, 67, 107
2, 96, Note_off_c, 0, 62, 64
2, 96, Note_off_c, 0, 70, 64
2, 120, Note_on_c, 0, 60, 107
2, 120, Note_on_c, 0, 69, 107
2, 192, Note_off_c, 0, 67, 64
2, 216, Note_off_c, 0, 69, 64
2, 216, Note_off_c, 0, 60, 64
2, 240, Note_on_c, 0, 69, 107
2, 240, Note_on_c, 0, 60, 107
2, 528, Note_off_c, 0, 69, 64
2, 600, Note_on_c, 0, 72, 107
2, 648, Note_off_c, 0, 72, 64
2, 660, Note_on_c, 0, 70, 107
2, 708, Note_off_c, 0, 70, 64
2, 720, Note_on_c, 0, 72, 107
2, 816, Note_off_c, 0, 72, 64
2, 840, Note_on_c, 0, 69, 107
2, 912, Note_off_c, 0, 60, 64
2, 936, Note_off_c, 0, 69, 64
2, 960, Note_on_c, 0, 60, 107
2, 960, Note_on_c, 0, 66, 107
2, 1248, Note_off_c, 0, 66, 64
2, 1320, Note_on_c, 0, 69, 107
2, 1368, Note_off_c, 0, 69, 64
2, 1380, Note_on_c, 0, 67, 107
2, 1428, Note_off_c, 0, 67, 64
2, 1440, Note_on_c, 0, 69, 107
2, 1536, Note_off_c, 0, 69, 64
2, 1560, Note_on_c, 0, 63, 107
2, 1632, Note_off_c, 0, 60, 64
2, 1656, Note_off_c, 0, 63, 64
2, 1680, Note_on_c, 0, 63, 107
2, 1872, Note_off_c, 0, 63, 64
2, 1920, Note_on_c, 0, 62, 107
2, 1944, Note_off_c, 0, 62, 64
2, 1950, Note_on_c, 0, 63, 107
2, 1974, Note_off_c, 0, 63, 64
2, 1980, Note_on_c, 0, 62, 107
2, 2136, Note_off_c, 0, 62, 64
2, 2160, Note_on_c, 0, 58, 107
2, 2448, Note_off_c, 0, 58, 64
2, 2520, Note_on_c, 0, 57, 107
2, 2616, Note_off_c, 0, 57, 64
2, 2640, Note_on_c, 0, 55, 107
2, 2832, Note_off_c, 0, 55, 64
2, 2880, Note_on_c, 0, 62, 107
2, 2880, Note_on_c, 0, 58, 107
2, 2976, Note_off_c, 0, 62, 64
2, 3000, Note_on_c, 0, 65, 107
2, 3048, Note_off_c, 0, 65, 64
2, 3060, Note_on_c, 0, 64, 107
2, 3072, Note_off_c, 0, 58, 64
2, 3108, Note_off_c, 0, 64, 64
2, 3120, Note_on_c, 0, 59, 107
2, 3120, Note_on_c, 0, 65, 107
2, 3408, Note_off_c, 0, 65, 64
2, 3480, Note_on_c, 0, 62, 107
2, 3504, Note_off_c, 0, 59, 64
2, 3576, Note_off_c, 0, 62, 64
2, 3600, Note_on_c, 0, 64, 107
2, 3600, Note_on_c, 0, 60, 107
2, 3696, Note_off_c, 0, 64, 64
2, 3720, Note_on_c, 0, 67, 107
2, 3768, Note_off_c, 0, 67, 64
2, 3780, Note_on_c, 0, 66, 107
2, 3792, Note_off_c, 0, 60, 64
2, 3828, Note_off_c, 0, 66, 64
2, 3840, Note_on_c, 0, 67, 107
2, 3840, Note_on_c, 0, 60, 107
2, 4128, Note_off_c, 0, 67, 64
2, 4200, Note_on_c, 0, 69, 107
2, 4296, Note_off_c, 0, 69, 64
2, 4320, Note_on_c, 0, 66, 107
2, 4368, Note_off_c, 0, 66, 64
2, 4380, Note_on_c, 0, 67, 107
2, 4428, Note_off_c, 0, 67, 64
2, 4440, Note_on_c, 0, 66, 107
2, 4488, Note_off_c, 0, 66, 64
2, 4500, Note_on_c, 0, 67, 107
2, 4512, Note_off_c, 0, 60, 64
2, 4548, Note_off_c, 0, 67, 64
2, 4560, Note_on_c, 0, 69, 107
2, 4560, Note_on_c, 0, 61, 107
2, 4584, Note_off_c, 0, 69, 64
2, 4590, Note_on_c, 0, 67, 107
2, 4614, Note_off_c, 0, 67, 64
2, 4620, Note_on_c, 0, 69, 107
2, 4644, Note_off_c, 0, 69, 64
2, 4650, Note_on_c, 0, 67, 107
2, 4674, Note_off_c, 0, 67, 64
2, 4680, Note_on_c, 0, 69, 107
2, 4704, Note_off_c, 0, 69, 64
2, 4710, Note_on_c, 0, 67, 107
2, 4734, Note_off_c, 0, 67, 64
2, 4740, Note_on_c, 0, 69, 107
2, 4764, Note_off_c, 0, 69, 64
2, 4770, Note_on_c, 0, 67, 107
2, 4794, Note_off_c, 0, 67, 64
2, 4800, Note_on_c, 0, 69, 107
2, 4824, Note_off_c, 0, 69, 64
2, 4830, Note_on_c, 0, 67, 107
2, 4854, Note_off_c, 0, 67, 64
2, 4860, Note_on_c, 0, 69, 107
2, 4884, Note_off_c, 0, 69, 64
2, 4890, Note_on_c, 0, 67, 107
2, 4919, Note_off_c, 0, 67, 64
2, 4920, Note_on_c, 0, 66, 107
2, 4944, Note_off_c, 0, 61, 64
2, 4968, Note_off_c, 0, 66, 64
2, 4980, Note_on_c, 0, 67, 107
2, 5028, Note_off_c, 0, 67, 64
2, 5040, Note_on_c, 0, 69, 107
2, 5160, Note_on_c, 0, 61, 107
2, 5232, Note_off_c, 0, 69, 64
2, 5256, Note_off_c, 0, 61, 64
2, 5280, Note_on_c, 0, 62, 107
2, 5280, Note_on_c, 0, 69, 107
2, 5664, Note_off_c, 0, 69, 64
2, 5664, Note_off_c, 0, 62, 64
2, 5760, Note_on_c, 0, 70, 107
2, 5760, Note_on_c, 0, 62, 107
2, 5760, Note_on_c, 0, 67, 107
2, 5856, Note_off_c, 0, 62, 64
2, 5856, Note_off_c, 0, 70, 64
2, 5880, Note_on_c, 0, 60, 107
2, 5880, Note_on_c, 0, 69, 107
2, 5952, Note_off_c, 0, 67, 64
2, 5976, Note_off_c, 0, 69, 64
2, 5976, Note_off_c, 0, 60, 64
2, 6000, Note_on_c, 0, 69, 107
2, 6000, Note_on_c, 0, 60, 107
2, 6288, Note_off_c, 0, 69, 64
2, 6360, Note_on_c, 0, 72, 107
2, 6408, Note_off_c, 0, 72, 64
2, 6420, Note_on_c, 0, 70, 107
2, 6468, Note_off_c, 0, 70, 64
2, 6480, Note_on_c, 0, 72, 107
2, 6576, Note_off_c, 0, 72, 64
2, 6600, Note_on_c, 0, 69, 107
2, 6672, Note_off_c, 0, 60, 64
2, 6696, Note_off_c, 0, 69, 64
2, 6720, Note_on_c, 0, 60, 107
2, 6720, Note_on_c, 0, 66, 107
2, 7008, Note_off_c, 0, 66, 64
2, 7080, Note_on_c, 0, 69, 107
2, 7128, Note_off_c, 0, 69, 64
2, 7140, Note_on_c, 0, 67, 107
2, 7188, Note_off_c, 0, 67, 64
2, 7200, Note_on_c, 0, 69, 107
2, 7296, Note_off_c, 0, 69, 64
2, 7320, Note_on_c, 0, 63, 107
2, 7392, Note_off_c, 0, 60, 64
2, 7416, Note_off_c, 0, 63, 64
2, 7440, Note_on_c, 0, 63, 107
2, 7632, Note_off_c, 0, 63, 64
2, 7680, Note_on_c, 0, 62, 107
2, 7704, Note_off_c, 0, 62, 64
2, 7710, Note_on_c, 0, 63, 107
2, 7734, Note_off_c, 0, 63, 64
2, 7740, Note_on_c, 0, 62, 107
2, 7896, Note_off_c, 0, 62, 64
2, 7920, Note_on_c, 0, 58, 107
2, 8208, Note_off_c, 0, 58, 64
2, 8280, Note_on_c, 0, 57, 107
2, 8376, Note_off_c, 0, 57, 64
2, 8400, Note_on_c, 0, 55, 107
2, 8592, Note_off_c, 0, 55, 64
2, 8640, Note_on_c, 0, 62, 107
2, 8640, Note_on_c, 0, 58, 107
2, 8736, Note_off_c, 0, 62, 64
2, 8760, Note_on_c, 0, 65, 107
2, 8808, Note_off_c, 0, 65, 64
2, 8820, Note_on_c, 0, 64, 107
2, 8832, Note_off_c, 0, 58, 64
2, 8868, Note_off_c, 0, 64, 64
2, 8880, Note_on_c, 0, 59, 107
2, 8880, Note_on_c, 0, 65, 107
2, 9168, Note_off_c, 0, 65, 64
2, 9240, Note_on_c, 0, 62, 107
2, 9264, Note_off_c, 0, 59, 64
2, 9336, Note_off_c, 0, 62, 64
2, 9360, Note_on_c, 0, 64, 107
2, 9360, Note_on_c, 0, 60, 107
2, 9456, Note_off_c, 0, 64, 64
2, 9480, Note_on_c, 0, 67, 107
2, 9528, Note_off_c, 0, 67, 64
2, 9540, Note_on_c, 0, 66, 107
2, 9552, Note_off_c, 0, 60, 64
2, 9588, Note_off_c, 0, 66, 64
2, 9600, Note_on_c, 0, 67, 107
2, 9600, Note_on_c, 0, 60, 107
2, 9888, Note_off_c, 0, 67, 64
2, 9960, Note_on_c, 0, 69, 107
2, 10056, Note_off_c, 0, 69, 64
2, 10080, Note_on_c, 0, 66, 107
2, 10128, Note_off_c, 0, 66, 64
2, 10140, Note_on_c, 0, 67, 107
2, 10188, Note_off_c, 0, 67, 64
2, 10200, Note_on_c, 0, 66, 107
2, 10248, Note_off_c, 0, 66, 64
2, 10260, Note_on_c, 0, 67, 107
2, 10272, Note_off_c, 0, 60, 64
2, 10308, Note_off_c, 0, 67, 64
2, 10320, Note_on_c, 0, 69, 107
2, 10320, Note_on_c, 0, 61, 107
2, 10344, Note_off_c, 0, 69, 64
2, 10350, Note_on_c, 0, 67, 107
2, 10374, Note_off_c, 0, 67, 64
2, 10380, Note_on_c, 0, 69, 107
2, 10404, Note_off_c, 0, 69, 64
2, 10410, Note_on_c, 0, 67, 107
2, 10434, Note_off_c, 0, 67, 64
2, 10440, Note_on_c, 0, 69, 107
2, 10464, Note_off_c, 0, 69, 64
2, 10470, Note_on_c, 0, 67, 107
2, 10494, Note_off_c, 0, 67, 64
2, 10500, Note_on_c, 0, 69, 107
2, 10524, Note_off_c, 0, 69, 64
2, 10530, Note_on_c, 0, 67, 107
2, 10554, Note_off_c, 0, 67, 64
2, 10560, Note_on_c, 0, 69, 107
2, 10584, Note_off_c, 0, 69, 64
2, 10590, Note_on_c, 0, 67, 107
2, 10614, Note_off_c, 0, 67, 64
2, 10620, Note_on_c, 0, 69, 107
2, 10644, Note_off_c, 0, 69, 64
2, 10650, Note_on_c, 0, 67, 107
2, 10679, Note_off_c, 0, 67, 64
2, 10680, Note_on_c, 0, 66, 107
2, 10704, Note_off_c, 0, 61, 64
2, 10728, Note_off_c, 0, 66, 64
2, 10740, Note_on_c, 0, 67, 107
2, 10788, Note_off_c, 0, 67, 64
2, 10800, Note_on_c, 0, 69, 107
2, 10920, Note_on_c, 0, 61, 107
2, 10992, Note_off_c, 0, 69, 64
2, 11016, Note_off_c, 0, 61, 64
2, 11040, Note_on_c, 0, 62, 107
2, 11040, Note_on_c, 0, 69, 107
2, 11424, Note_off_c, 0, 69, 64
2, 11424, Note_off_c, 0, 62, 64
2, 11520, Note_on_c, 0, 70, 107
2, 11520, Note_on_c, 0, 65, 107
2, 11616, Note_off_c, 0, 70, 64
2, 11640, Note_on_c, 0, 74, 107
2, 11712, Note_off_c, 0, 65, 64
2, 11736, Note_off_c, 0, 74, 64
2, 11760, Note_on_c, 0, 65, 107
2, 11790, Note_on_c, 0, 70, 107
2, 11820, Note_on_c, 0, 74, 107
2, 11850, Note_on_c, 0, 77, 107
2, 12072, Note_off_c, 0, 77, 64
2, 12072, Note_off_c, 0, 74, 64
2, 12120, Note_on_c, 0, 70, 107
2, 12132, Note_off_c, 0, 70, 64
2, 12144, Note_off_c, 0, 65, 64
2, 12216, Note_off_c, 0, 70, 64
2, 12240, Note_on_c, 0, 68, 107
2, 12240, Note_on_c, 0, 65, 107
2, 12288, Note_off_c, 0, 68, 64
2, 12300, Note_on_c, 0, 65, 107
2, 12336, Note_off_c, 0, 65, 64
2, 12348, Note_off_c, 0, 65, 64
2, 12360, Note_on_c, 0, 67, 107
2, 12456, Note_off_c, 0, 67, 64
2, 12480, Note_on_c, 0, 65, 107
2, 12480, Note_on_c, 0, 62, 107
2, 12480, Note_on_c, 0, 67, 107
2, 12864, Note_off_c, 0, 67, 64
2, 12864, Note_off_c, 0, 65, 64
2, 12960, Note_off_c, 0, 62, 64
2, 12960, Note_on_c, 0, 74, 107
2, 12960, Note_on_c, 0, 74, 107
2, 13056, Note_off_c, 0, 74, 64
2, 13080, Note_on_c, 0, 77, 107
2, 13176, Note_off_c, 0, 77, 64
2, 13200, Note_on_c, 0, 80, 107
2, 13392, Note_off_c, 0, 80, 64
2, 13440, Note_on_c, 0, 79, 107
2, 13536, Note_off_c, 0, 79, 64
2, 13536, Note_off_c, 0, 74, 64
2, 13560, Note_on_c, 0, 77, 107
2, 13608, Note_off_c, 0, 77, 64
2, 13620, Note_on_c, 0, 80, 107
2, 13644, Note_off_c, 0, 80, 64
2, 13650, Note_on_c, 0, 79, 107
2, 13674, Note_off_c, 0, 79, 64
2, 13680, Note_on_c, 0, 75, 107
2, 13680, Note_on_c, 0, 67, 107
2, 13872, Note_off_c, 0, 67, 64
2, 13968, Note_off_c, 0, 75, 64
2, 14040, Note_on_c, 0, 74, 107
2, 14040, Note_on_c, 0, 65, 107
2, 14136, Note_off_c, 0, 65, 64
2, 14136, Note_off_c, 0, 74, 64
2, 14160, Note_on_c, 0, 72, 107
2, 14160, Note_on_c, 0, 63, 107
2, 14352, Note_off_c, 0, 63, 64
2, 14352, Note_off_c, 0, 72, 64
2, 14400, Note_on_c, 0, 75, 107
2, 14400, Note_on_c, 0, 72, 107
2, 14400, Note_on_c, 0, 69, 107
2, 14592, Note_off_c, 0, 69, 64
2, 14592, Note_off_c, 0, 72, 64
2, 14640, Note_on_c, 0, 69, 107
2, 14640, Note_on_c, 0, 66, 107
2, 15024, Note_off_c, 0, 66, 64
2, 15024, Note_off_c, 0, 69, 64
2, 15120, Note_on_c, 0, 73, 107
2, 15120, Note_on_c, 0, 70, 107
2, 15312, Note_off_c, 0, 70, 64
2, 15312, Note_off_c, 0, 73, 64
2, 15360, Note_on_c, 0, 70, 107
2, 15360, Note_on_c, 0, 67, 107
2, 15744, Note_off_c, 0, 67, 64
2, 15744, Note_off_c, 0, 70, 64
2, 15840, Note_on_c, 0, 71, 107
2, 15840, Note_on_c, 0, 65, 107
2, 16032, Note_off_c, 0, 65, 64
2, 16032, Note_off_c, 0, 71, 64
2, 16080, Note_on_c, 0, 65, 107
2, 16080, Note_on_c, 0, 68, 107
2, 16272, Note_off_c, 0, 68, 64
2, 16320, Note_on_c, 0, 71, 107
2, 16656, Note_off_c, 0, 71, 64
2, 16680, Note_on_c, 0, 68, 107
2, 16752, Note_off_c, 0, 65, 64
2, 16752, Note_off_c, 0, 75, 64
2, 16776, Note_off_c, 0, 68, 64
2, 16800, Note_on_c, 0, 67, 107
2, 16800, Note_on_c, 0, 75, 107
2, 16800, Note_on_c, 0, 70, 107
2, 17184, Note_off_c, 0, 70, 64
2, 17184, Note_off_c, 0, 75, 64
2, 17184, Note_off_c, 0, 67, 64
2, 17280, Note_on_c, 0, 73, 107
2, 17376, Note_off_c, 0, 73, 64
2, 17400, Note_on_c, 0, 70, 107
2, 17520, Note_on_c, 0, 68, 105
2, 17520, Note_on_c, 0, 61, 107
2, 17535, Note_off_c, 0, 68, 64
2, 17580, Note_on_c, 0, 67, 107
2, 17808, Note_off_c, 0, 70, 64
2, 17880, Note_on_c, 0, 70, 107
2, 17904, Note_off_c, 0, 61, 64
2, 17928, Note_off_c, 0, 70, 64
2, 17940, Note_off_c, 0, 67, 64
2, 17940, Note_on_c, 0, 68, 107
2, 17988, Note_off_c, 0, 68, 64
2, 18000, Note_on_c, 0, 70, 107
2, 18096, Note_off_c, 0, 70, 64
2, 18120, Note_on_c, 0, 67, 107
2, 18240, Note_on_c, 0, 65, 105
2, 18240, Note_on_c, 0, 61, 107
2, 18255, Note_off_c, 0, 65, 64
2, 18300, Note_on_c, 0, 64, 107
2, 18528, Note_off_c, 0, 67, 64
2, 18600, Note_on_c, 0, 67, 107
2, 18624, Note_off_c, 0, 61, 64
2, 18648, Note_off_c, 0, 67, 64
2, 18660, Note_off_c, 0, 64, 64
2, 18660, Note_on_c, 0, 65, 107
2, 18708, Note_off_c, 0, 65, 64
2, 18720, Note_on_c, 0, 67, 107
2, 18816, Note_off_c, 0, 67, 64
2, 18840, Note_on_c, 0, 64, 107
2, 18960, Note_on_c, 0, 62, 105
2, 18960, Note_on_c, 0, 58, 107
2, 18975, Note_off_c, 0, 62, 64
2, 19020, Note_on_c, 0, 61, 107
2, 19248, Note_off_c, 0, 64, 64
2, 19320, Note_on_c, 0, 70, 107
2, 19344, Note_off_c, 0, 58, 64
2, 19368, Note_off_c, 0, 70, 64
2, 19380, Note_off_c, 0, 61, 64
2, 19380, Note_on_c, 0, 69, 107
2, 19428, Note_off_c, 0, 69, 64
2, 19440, Note_on_c, 0, 69, 107
2, 19488, Note_off_c, 0, 69, 64
2, 19500, Note_on_c, 0, 72, 107
2, 19524, Note_off_c, 0, 72, 64
2, 19530, Note_on_c, 0, 70, 107
2, 19554, Note_off_c, 0, 70, 64
2, 19560, Note_on_c, 0, 69, 107
2, 19560, Note_on_c, 0, 69, 107
2, 19584, Note_off_c, 0, 69, 64
2, 19590, Note_on_c, 0, 70, 107
2, 19614, Note_off_c, 0, 70, 64
2, 19620, Note_on_c, 0, 72, 107
2, 19680, Note_on_c, 0, 62, 107
2, 19793, Note_off_c, 0, 62, 64
2, 19860, Note_on_c, 0, 64, 107
2, 19872, Note_off_c, 0, 72, 64
2, 19872, Note_off_c, 0, 69, 64
2, 19884, Note_off_c, 0, 64, 64
2, 19890, Note_on_c, 0, 66, 107
2, 19914, Note_off_c, 0, 66, 64
2, 19920, Note_on_c, 0, 67, 107
2, 19949, Note_off_c, 0, 67, 64
2, 19950, Note_on_c, 0, 66, 107
2, 19979, Note_off_c, 0, 66, 64
2, 19980, Note_on_c, 0, 67, 107
2, 20009, Note_off_c, 0, 67, 64
2, 20010, Note_on_c, 0, 66, 107
2, 20039, Note_off_c, 0, 66, 64
2, 20040, Note_on_c, 0, 67, 107
2, 20064, Note_off_c, 0, 67, 64
2, 20070, Note_on_c, 0, 66, 107
2, 20094, Note_off_c, 0, 66, 64
2, 20100, Note_on_c, 0, 64, 107
2, 20124, Note_off_c, 0, 64, 64
2, 20130, Note_on_c, 0, 66, 107
2, 20159, Note_off_c, 0, 66, 64
2, 20160, Note_on_c, 0, 59, 107
2, 20160, Note_on_c, 0, 67, 107
2, 20160, Note_on_c, 0, 62, 107
2, 20352, Note_off_c, 0, 62, 64
2, 20352, Note_off_c, 0, 59, 64
2, 20400, Note_on_c, 0, 59, 107
2, 20784, Note_off_c, 0, 59, 64
2, 20880, Note_on_c, 0, 63, 107
2, 20880, Note_on_c, 0, 60, 107
2, 21072, Note_off_c, 0, 60, 64
2, 21072, Note_off_c, 0, 63, 64
2, 21120, Note_on_c, 0, 63, 107
2, 21120, Note_on_c, 0, 60, 107
2, 21504, Note_off_c, 0, 60, 64
2, 21504, Note_off_c, 0, 63, 64
2, 21600, Note_on_c, 0, 64, 107
2, 21600, Note_on_c, 0, 58, 107
2, 21648, Note_off_c, 0, 67, 64
2, 21660, Note_on_c, 0, 69, 107
2, 21696, Note_off_c, 0, 58, 64
2, 21696, Note_off_c, 0, 64, 64
2, 21708, Note_off_c, 0, 69, 64
2, 21720, Note_on_c, 0, 70, 107
2, 21768, Note_off_c, 0, 70, 64
2, 21780, Note_on_c, 0, 67, 107
2, 21828, Note_off_c, 0, 67, 64
2, 21840, Note_on_c, 0, 66, 107
2, 21888, Note_off_c, 0, 66, 64
2, 21900, Note_on_c, 0, 67, 107
2, 21948, Note_off_c, 0, 67, 64
2, 21960, Note_on_c, 0, 61, 107
2, 21960, Note_on_c, 0, 61, 107
2, 22008, Note_off_c, 0, 61, 64
2, 22020, Note_on_c, 0, 70, 107
2, 22056, Note_off_c, 0, 61, 64
2, 22068, Note_off_c, 0, 70, 64
2, 22080, Note_on_c, 0, 67, 107
2, 22080, Note_on_c, 0, 62, 107
2, 22104, Note_off_c, 0, 67, 64
2, 22110, Note_on_c, 0, 66, 107
2, 22134, Note_off_c, 0, 66, 64
2, 22140, Note_on_c, 0, 64, 107
2, 22164, Note_off_c, 0, 64, 64
2, 22170, Note_on_c, 0, 66, 107
2, 22194, Note_off_c, 0, 66, 64
2, 22200, Note_on_c, 0, 67, 107
2, 22248, Note_off_c, 0, 67, 64
2, 22260, Note_on_c, 0, 69, 107
2, 22272, Note_off_c, 0, 62, 64
2, 22284, Note_off_c, 0, 69, 64
2, 22290, Note_on_c, 0, 66, 107
2, 22314, Note_off_c, 0, 66, 64
2, 22320, Note_on_c, 0, 67, 107
2, 22320, Note_on_c, 0, 62, 107
2, 22512, Note_off_c, 0, 62, 64
2, 22512, Note_off_c, 0, 67, 64
2, 22560, Note_on_c, 0, 62, 107
2, 22560, Note_on_c, 0, 67, 107
2, 22944, Note_off_c, 0, 67, 64
2, 22944, Note_off_c, 0, 62, 64
2, 23040, Note_on_c, 0, 70, 107
2, 23040, Note_on_c, 0, 65, 107
2, 23136, Note_off_c, 0, 70, 64
2, 23160, Note_on_c, 0, 74, 107
2, 23232, Note_off_c, 0, 65, 64
2, 23256, Note_off_c, 0, 74, 64
2, 23280, Note_on_c, 0, 65, 107
2, 23310, Note_on_c, 0, 70, 107
2, 23340, Note_on_c, 0, 74, 107
2, 23370, Note_on_c, 0, 77, 107
2, 23592, Note_off_c, 0, 77, 64
2, 23592, Note_off_c, 0, 74, 64
2, 23640, Note_on_c, 0, 70, 107
2, 23652, Note_off_c, 0, 70, 64
2, 23664, Note_off_c, 0, 65, 64
2, 23736, Note_off_c, 0, 70, 64
2, 23760, Note_on_c, 0, 68, 107
2, 23760, Note_on_c, 0, 65, 107
2, 23808, Note_off_c, 0, 68, 64
2, 23820, Note_on_c, 0, 65, 107
2, 23856, Note_off_c, 0, 65, 64
2, 23868, Note_off_c, 0, 65, 64
2, 23880, Note_on_c, 0, 67, 107
2, 23976, Note_off_c, 0, 67, 64
2, 24000, Note_on_c, 0, 65, 107
2, 24000, Note_on_c, 0, 62, 107
2, 24000, Note_on_c, 0, 67, 107
2, 24384, Note_off_c, 0, 67, 64
2, 24384, Note_off_c, 0, 65, 64
2, 24480, Note_off_c, 0, 62, 64
2, 24480, Note_on_c, 0, 74, 107
2, 24480, Note_on_c, 0, 74, 107
2, 24576, Note_off_c, 0, 74, 64
2, 24600, Note_on_c, 0, 77, 107
2, 24696, Note_off_c, 0, 77, 64
2, 24720, Note_on_c, 0, 80, 107
2, 24912, Note_off_c, 0, 80, 64
2, 24960, Note_on_c, 0, 79, 107
2, 25056, Note_off_c, 0, 79, 64
2, 25056, Note_off_c, 0, 74, 64
2, 25080, Note_on_c, 0, 77, 107
2, 25128, Note_off_c, 0, 77, 64
2, 25140, Note_on_c, 0, 80, 107
2, 25164, Note_off_c, 0, 80, 64
2, 25170, Note_on_c, 0, 79, 107
2, 25194, Note_off_c, 0, 79, 64
2, 25200, Note_on_c, 0, 75, 107
2, 25200, Note_on_c, 0, 67, 107
2, 25392, Note_off_c, 0, 67, 64
2, 25488, Note_off_c, 0, 75, 64
2, 25560, Note_on_c, 0, 74, 107
2, 25560, Note_on_c, 0, 65, 107
2, 25656, Note_off_c, 0, 65, 64
2, 25656, Note_off_c, 0, 74, 64
2, 25680, Note_on_c, 0, 72, 107
2, 25680, Note_on_c, 0, 63, 107
2, 25872, Note_off_c, 0, 63, 64
2, 25872, Note_off_c, 0, 72, 64
2, 25920, Note_on_c, 0, 75, 107
2, 25920, Note_on_c, 0, 72, 107
2, 25920, Note_on_c, 0, 69, 107
2, 26112, Note_off_c, 0, 69, 64
2, 26112, Note_off_c, 0, 72, 64
2, 26160, Note_on_c, 0, 69, 107
2, 26160, Note_on_c, 0, 66, 107
2, 26544, Note_off_c, 0, 66, 64
2, 26544, Note_off_c, 0, 69, 64
2, 26640, Note_on_c, 0, 73, 107
2, 26640, Note_on_c, 0, 70, 107
2, 26832, Note_off_c, 0, 70, 64
2, 26832, Note_off_c, 0, 73, 64
2, 26880, Note_on_c, 0, 70, 107
2, 26880, Note_on_c, 0, 67, 107
2, 27264, Note_off_c, 0, 67, 64
2, 27264, Note_off_c, 0, 70, 64
2, 27360, Note_on_c, 0, 71, 107
2, 27360, Note_on_c, 0, 65, 107
2, 27552, Note_off_c, 0, 65, 64
2, 27552, Note_off_c, 0, 71, 64
2, 27600, Note_on_c, 0, 65, 107
2, 27600, Note_on_c, 0, 68, 107
2, 27792, Note_off_c, 0, 68, 64
2, 27840, Note_on_c, 0, 71, 107
2, 28176, Note_off_c, 0, 71, 64
2, 28200, Note_on_c, 0, 68, 107
2, 28272, Note_off_c, 0, 65, 64
2, 28272, Note_off_c, 0, 75, 64
2, 28296, Note_off_c, 0, 68, 64
2, 28320, Note_on_c, 0, 67, 107
2, 28320, Note_on_c, 0, 75, 107
2, 28320, Note_on_c, 0, 70, 107
2, 28704, Note_off_c, 0, 70, 64
2, 28704, Note_off_c, 0, 75, 64
2, 28704, Note_off_c, 0, 67, 64
2, 28800, Note_on_c, 0, 73, 107
2, 28896, Note_off_c, 0, 73, 64
2, 28920, Note_on_c, 0, 70, 107
2, 29040, Note_on_c, 0, 68, 105
2, 29040, Note_on_c, 0, 61, 107
2, 29055, Note_off_c, 0, 68, 64
2, 29100, Note_on_c, 0, 67, 107
2, 29328, Note_off_c, 0, 70, 64
2, 29400, Note_on_c, 0, 70, 107
2, 29424, Note_off_c, 0, 61, 64
2, 29448, Note_off_c, 0, 70, 64
2, 29460, Note_off_c, 0, 67, 64
2, 29460, Note_on_c, 0, 68, 107
2, 29508, Note_off_c, 0, 68, 64
2, 29520, Note_on_c, 0, 70, 107
2, 29616, Note_off_c, 0, 70, 64
2, 29640, Note_on_c, 0, 67, 107
2, 29760, Note_on_c, 0, 65, 105
2, 29760, Note_on_c, 0, 61, 107
2, 29775, Note_off_c, 0, 65, 64
2, 29820, Note_on_c, 0, 64, 107
2, 30048, Note_off_c, 0, 67, 64
2, 30120, Note_on_c, 0, 67, 107
2, 30144, Note_off_c, 0, 61, 64
2, 30168, Note_off_c, 0, 67, 64
2, 30180, Note_off_c, 0, 64, 64
2, 30180, Note_on_c, 0, 65, 107
2, 30228, Note_off_c, 0, 65, 64
2, 30240, Note_on_c, 0, 67, 107
2, 30336, Note_off_c, 0, 67, 64
2, 30360, Note_on_c, 0, 64, 107
2, 30480, Note_on_c, 0, 62, 105
2, 30480, Note_on_c, 0, 58, 107
2, 30495, Note_off_c, 0, 62, 64
2, 30540, Note_on_c, 0, 61, 107
2, 30768, Note_off_c, 0, 64, 64
2, 30840, Note_on_c, 0, 70, 107
2, 30864, Note_off_c, 0, 58, 64
2, 30888, Note_off_c, 0, 70, 64
2, 30900, Note_off_c, 0, 61, 64
2, 30900, Note_on_c, 0, 69, 107
2, 30948, Note_off_c, 0, 69, 64
2, 30960, Note_on_c, 0, 69, 107
2, 31008, Note_off_c, 0, 69, 64
2, 31020, Note_on_c, 0, 72, 107
2, 31044, Note_off_c, 0, 72, 64
2, 31050, Note_on_c, 0, 70, 107
2, 31074, Note_off_c, 0, 70, 64
2, 31080, Note_on_c, 0, 69, 107
2, 31080, Note_on_c, 0, 69, 107
2, 31104, Note_off_c, 0, 69, 64
2, 31110, Note_on_c, 0, 70, 107
2, 31134, Note_off_c, 0, 70, 64
2, 31140, Note_on_c, 0, 72, 107
2, 31200, Note_on_c, 0, 62, 107
2, 31313, Note_off_c, 0, 62, 64
2, 31380, Note_on_c, 0, 64, 107
2, 31392, Note_off_c, 0, 72, 64
2, 31392, Note_off_c, 0, 69, 64
2, 31404, Note_off_c, 0, 64, 64
2, 31410, Note_on_c, 0, 66, 107
2, 31434, Note_off_c, 0, 66, 64
2, 31440, Note_on_c, 0, 67, 107
2, 31469, Note_off_c, 0, 67, 64
2, 31470, Note_on_c, 0, 66, 107
2, 31499, Note_off_c, 0, 66, 64
2, 31500, Note_on_c, 0, 67, 107
2, 31529, Note_off_c, 0, 67, 64
2, 31530, Note_on_c, 0, 66, 107
2, 31559, Note_off_c, 0, 66, 64
2, 31560, Note_on_c, 0, 67, 107
2, 31584, Note_off_c, 0, 67, 64
2, 31590, Note_on_c, 0, 66, 107
2, 31614, Note_off_c, 0, 66, 64
2, 31620, Note_on_c, 0, 64, 107
2, 31644, Note_off_c, 0, 64, 64
2, 31650, Note_on_c, 0, 66, 107
2, 31679, Note_off_c, 0, 66, 64
2, 31680, Note_on_c, 0, 59, 107
2, 31680, Note_on_c, 0, 67, 107
2, 31680, Note_on_c, 0, 62, 107
2, 31872, Note_off_c, 0, 62, 64
2, 31872, Note_off_c, 0, 59, 64
2, 31920, Note_on_c, 0, 59, 107
2, 32304, Note_off_c, 0, 59, 64
2, 32400, Note_on_c, 0, 63, 107
2, 32400, Note_on_c, 0, 60, 107
2, 32592, Note_off_c, 0, 60, 64
2, 32592, Note_off_c, 0, 63, 64
2, 32640, Note_on_c, 0, 63, 107
2, 32640, Note_on_c, 0, 60, 107
2, 33024, Note_off_c, 0, 60, 64
2, 33024, Note_off_c, 0, 63, 64
2, 33120, Note_on_c, 0, 64, 107
2, 33120, Note_on_c, 0, 58, 107
2, 33168, Note_off_c, 0, 67, 64
2, 33180, Note_on_c, 0, 69, 107
2, 33216, Note_off_c, 0, 58, 64
2, 33216, Note_off_c, 0, 64, 64
2, 33228, Note_off_c, 0, 69, 64
2, 33240, Note_on_c, 0, 70, 107
2, 33288, Note_off_c, 0, 70, 64
2, 33300, Note_on_c, 0, 67, 107
2, 33348, Note_off_c, 0, 67, 64
2, 33360, Note_on_c, 0, 66, 107
2, 33408, Note_off_c, 0, 66, 64
2, 33420, Note_on_c, 0, 67, 107
2, 33468, Note_off_c, 0, 67, 64
2, 33480, Note_on_c, 0, 61, 107
2, 33480, Note_on_c, 0, 61, 107
2, 33528, Note_off_c, 0, 61, 64
2, 33540, Note_on_c, 0, 70, 107
2, 33576, Note_off_c, 0, 61, 64
2, 33588, Note_off_c, 0, 70, 64
2, 33600, Note_on_c, 0, 67, 107
2, 33600, Note_on_c, 0, 62, 107
2, 33624, Note_off_c, 0, 67, 64
2, 33630, Note_on_c, 0, 66, 107
2, 33654, Note_off_c, 0, 66, 64
2, 33660, Note_on_c, 0, 64, 107
2, 33684, Note_off_c, 0, 64, 64
2, 33690, Note_on_c, 0, 66, 107
2, 33714, Note_off_c, 0, 66, 64
2, 33720, Note_on_c, 0, 67, 107
2, 33768, Note_off_c, 0, 67, 64
2, 33780, Note_on_c, 0, 69, 107
2, 33792, Note_off_c, 0, 62, 64
2, 33804, Note_off_c, 0, 69, 64
2, 33810, Note_on_c, 0, 66, 107
2, 33834, Note_off_c, 0, 66, 64
2, 33840, Note_on_c, 0, 67, 107
2, 33840, Note_on_c, 0, 62, 107
2, 34032, Note_off_c, 0, 62, 64
2, 34032, Note_off_c, 0, 67, 64
2, 34080, Note_on_c, 0, 62, 107
2, 34080, Note_on_c, 0, 67, 107
2, 34464, Note_off_c, 0, 67, 64
2, 34464, Note_off_c, 0, 62, 64
2, 34464, End_track
3, 0, Start_track
3, 0, Title_t, "J.S. Bach, Edition Wood"
3, 0, Program_c, 1, 0
3, 0, Note_on_c, 1, 55, 107
3, 0, Note_on_c, 1, 50, 107
3, 0, Note_on_c, 1, 43, 107
3, 192, Note_off_c, 1, 50, 64
3, 192, Note_off_c, 1, 55, 64
3, 240, Note_on_c, 1, 51, 107
3, 960, Note_on_c, 1, 57, 107
3, 1632, Note_off_c, 1, 51, 64
3, 1632, Note_off_c, 1, 57, 64
3, 1680, Note_on_c, 1, 54, 107
3, 1680, Note_on_c, 1, 48, 107
3, 1680, Note_on_c, 1, 57, 107
3, 2064, Note_off_c, 1, 57, 64
3, 2064, Note_off_c, 1, 48, 64
3, 2064, Note_off_c, 1, 54, 64
3, 2160, Note_on_c, 1, 55, 107
3, 2160, Note_on_c, 1, 50, 107
3, 3072, Note_off_c, 1, 55, 64
3, 3072, Note_off_c, 1, 50, 64
3, 3120, Note_on_c, 1, 55, 107
3, 3120, Note_on_c, 1, 50, 107
3, 3504, Note_off_c, 1, 50, 64
3, 3600, Note_on_c, 1, 48, 107
3, 3696, Note_off_c, 1, 48, 64
3, 3720, Note_on_c, 1, 50, 107
3, 3792, Note_off_c, 1, 55, 64
3, 3816, Note_off_c, 1, 50, 64
3, 3840, Note_on_c, 1, 51, 107
3, 3840, Note_on_c, 1, 57, 107
3, 4512, Note_off_c, 1, 51, 64
3, 4512, Note_off_c, 1, 57, 64
3, 4560, Note_on_c, 1, 58, 107
3, 4560, Note_on_c, 1, 52, 107
3, 4896, Note_off_c, 1, 43, 64
3, 4944, Note_off_c, 1, 52, 64
3, 4944, Note_off_c, 1, 58, 64
3, 5040, Note_on_c, 1, 50, 107
3, 5160, Note_on_c, 1, 52, 107
3, 5232, Note_off_c, 1, 50, 64
3, 5256, Note_off_c, 1, 52, 64
3, 5280, Note_on_c, 1, 54, 107
3, 5280, Note_on_c, 1, 57, 107
3, 5280, Note_on_c, 1, 50, 107
3, 5664, Note_off_c, 1, 50, 64
3, 5664, Note_off_c, 1, 57, 64
3, 5664, Note_off_c, 1, 54, 64
3, 5760, Note_on_c, 1, 55, 107
3, 5760, Note_on_c, 1, 50, 107
3, 5760, Note_on_c, 1, 43, 107
3, 5952, Note_off_c, 1, 50, 64
3, 5952, Note_off_c, 1, 55, 64
3, 6000, Note_on_c, 1, 51, 107
3, 6720, Note_on_c, 1, 57, 107
3, 7392, Note_off_c, 1, 51, 64
3, 7392, Note_off_c, 1, 57, 64
3, 7440, Note_on_c, 1, 54, 107
3, 7440, Note_on_c, 1, 48, 107
3, 7440, Note_on_c, 1, 57, 107
3, 7824, Note_off_c, 1, 57, 64
3, 7824, Note_off_c, 1, 48, 64
3, 7824, Note_off_c, 1, 54, 64
3, 7920, Note_on_c, 1, 55, 107
3, 7920, Note_on_c, 1, 50, 107
3, 8832, Note_off_c, 1, 55, 64
3, 8832, Note_off_c, 1, 50, 64
3, 8880, Note_on_c, 1, 55, 107
3, 8880, Note_on_c, 1, 50, 107
3, 9264, Note_off_c, 1, 50, 64
3, 9360, Note_on_c, 1, 48, 107
3, 9456, Note_off_c, 1, 48, 64
3, 9480, Note_on_c, 1, 50, 107
3, 9552, Note_off_c, 1, 55, 64
3, 9576, Note_off_c, 1, 50, 64
3, 9600, Note_on_c, 1, 51, 107
3, 9600, Note_on_c, 1, 57, 107
3, 10272, Note_off_c, 1, 51, 64
3, 10272, Note_off_c, 1, 57, 64
3, 10320, Note_on_c, 1, 58, 107
3, 10320, Note_on_c, 1, 52, 107
3, 10656, Note_off_c, 1, 43, 64
3, 10704, Note_off_c, 1, 52, 64
3, 10704, Note_off_c, 1, 58, 64
3, 10800, Note_on_c, 1, 50, 107
3, 10920, Note_on_c, 1, 52, 107
3, 10992, Note_off_c, 1, 50, 64
3, 11016, Note_off_c, 1, 52, 64
3, 11040, Note_on_c, 1, 54, 107
3, 11040, Note_on_c, 1, 57, 107
3, 11040, Note_on_c, 1, 50, 107
3, 11424, Note_off_c, 1, 50, 64
3, 11424, Note_off_c, 1, 57, 64
3, 11424, Note_off_c, 1, 54, 64
3, 11520, Note_on_c, 1, 50, 107
3, 11520, Note_on_c, 1, 58, 107
3, 11520, Note_on_c, 1, 53, 107
3, 12432, Note_off_c, 1, 53, 64
3, 12432, Note_off_c, 1, 58, 64
3, 12432, Note_off_c, 1, 50, 64
3, 12480, Note_on_c, 1, 55, 107
3, 12480, Note_on_c, 1, 47, 107
3, 13152, Note_off_c, 1, 55, 64
3, 13200, Note_on_c, 1, 53, 107
3, 13392, Note_off_c, 1, 53, 64
3, 13440, Note_on_c, 1, 51, 107
3, 13455, Note_off_c, 1, 51, 64
3, 13455, Note_on_c, 1, 53, 107
3, 13470, Note_off_c, 1, 53, 64
3, 13470, Note_on_c, 1, 51, 107
3, 13518, Note_off_c, 1, 51, 64
3, 13536, Note_off_c, 1, 47, 64
3, 13560, Note_on_c, 1, 50, 107
3, 13656, Note_off_c, 1, 50, 64
3, 13680, Note_on_c, 1, 48, 107
3, 13920, Note_on_c, 1, 55, 107
3, 14112, Note_off_c, 1, 55, 64
3, 14160, Note_on_c, 1, 60, 107
3, 14256, Note_off_c, 1, 48, 64
3, 14352, Note_off_c, 1, 60, 64
3, 14400, Note_on_c, 1, 42, 107
3, 14496, Note_off_c, 1, 42, 64
3, 14520, Note_on_c, 1, 45, 107
3, 14616, Note_off_c, 1, 45, 64
3, 14640, Note_on_c, 1, 48, 107
3, 14736, Note_off_c, 1, 48, 64
3, 14760, Note_on_c, 1, 45, 107
3, 14856, Note_off_c, 1, 45, 64
3, 14880, Note_on_c, 1, 43, 107
3, 14895, Note_off_c, 1, 43, 64
3, 14895, Note_on_c, 1, 45, 107
3, 14910, Note_off_c, 1, 45, 64
3, 14910, Note_on_c, 1, 43, 107
3, 14958, Note_off_c, 1, 43, 64
3, 15000, Note_on_c, 1, 42, 107
3, 15096, Note_off_c, 1, 42, 64
3, 15120, Note_on_c, 1, 43, 107
3, 15216, Note_off_c, 1, 43, 64
3, 15240, Note_on_c, 1, 46, 107
3, 15336, Note_off_c, 1, 46, 64
3, 15360, Note_on_c, 1, 49, 107
3, 15456, Note_off_c, 1, 49, 64
3, 15480, Note_on_c, 1, 46, 107
3, 15576, Note_off_c, 1, 46, 64
3, 15600, Note_on_c, 1, 44, 107
3, 15615, Note_off_c, 1, 44, 64
3, 15615, Note_on_c, 1, 46, 107
3, 15630, Note_off_c, 1, 46, 64
3, 15630, Note_on_c, 1, 44, 107
3, 15678, Note_off_c, 1, 44, 64
3, 15720, Note_on_c, 1, 43, 107
3, 15816, Note_off_c, 1, 43, 64
3, 15840, Note_on_c, 1, 44, 107
3, 15936, Note_off_c, 1, 44, 64
3, 15960, Note_on_c, 1, 47, 107
3, 16056, Note_off_c, 1, 47, 64
3, 16080, Note_on_c, 1, 50, 107
3, 16176, Note_off_c, 1, 50, 64
3, 16200, Note_on_c, 1, 47, 107
3, 16296, Note_off_c, 1, 47, 64
3, 16320, Note_on_c, 1, 46, 107
3, 16335, Note_off_c, 1, 46, 64
3, 16335, Note_on_c, 1, 47, 107
3, 16350, Note_off_c, 1, 47, 64
3, 16350, Note_on_c, 1, 46, 107
3, 16398, Note_off_c, 1, 46, 64
3, 16440, Note_on_c, 1, 44, 107
3, 16536, Note_off_c, 1, 44, 64
3, 16560, Note_on_c, 1, 51, 107
3, 16752, Note_off_c, 1, 51, 64
3, 16800, Note_on_c, 1, 39, 107
3, 17184, Note_off_c, 1, 39, 64
3, 17280, Note_on_c, 1, 40, 107
3, 17520, Note_on_c, 1, 52, 107
3, 17904, Note_off_c, 1, 52, 64
3, 18240, Note_on_c, 1, 52, 107
3, 18624, Note_off_c, 1, 52, 64
3, 18960, Note_on_c, 1, 52, 107
3, 19296, Note_off_c, 1, 40, 64
3, 19344, Note_off_c, 1, 52, 64
3, 19440, Note_on_c, 1, 42, 107
3, 19680, Note_on_c, 1, 57, 107
3, 20016, Note_off_c, 1, 42, 64
3, 20064, Note_off_c, 1, 57, 64
3, 20160, Note_on_c, 1, 41, 107
3, 20256, Note_off_c, 1, 41, 64
3, 20280, Note_on_c, 1, 47, 107
3, 20376, Note_off_c, 1, 47, 64
3, 20400, Note_on_c, 1, 50, 107
3, 20496, Note_off_c, 1, 50, 64
3, 20520, Note_on_c, 1, 53, 107
3, 20616, Note_off_c, 1, 53, 64
3, 20640, Note_on_c, 1, 56, 107
3, 20736, Note_off_c, 1, 56, 64
3, 20760, Note_on_c, 1, 50, 107
3, 20856, Note_off_c, 1, 50, 64
3, 20880, Note_on_c, 1, 51, 107
3, 20976, Note_off_c, 1, 51, 64
3, 21000, Note_on_c, 1, 47, 107
3, 21096, Note_off_c, 1, 47, 64
3, 21120, Note_on_c, 1, 48, 107
3, 21216, Note_off_c, 1, 48, 64
3, 21240, Note_on_c, 1, 44, 107
3, 21336, Note_off_c, 1, 44, 64
3, 21360, Note_on_c, 1, 42, 107
3, 21456, Note_off_c, 1, 42, 64
3, 21480, Note_on_c, 1, 43, 107
3, 21576, Note_off_c, 1, 43, 64
3, 21600, Note_on_c, 1, 37, 107
3, 21792, Note_off_c, 1, 37, 64
3, 21840, Note_on_c, 1, 38, 107
3, 22080, Note_on_c, 1, 60, 107
3, 22224, Note_off_c, 1, 38, 64
3, 22272, Note_off_c, 1, 60, 64
3, 22320, Note_on_c, 1, 60, 107
3, 22320, Note_on_c, 1, 43, 107
3, 22416, Note_off_c, 1, 60, 64
3, 22440, Note_on_c, 1, 57, 107
3, 22536, Note_off_c, 1, 57, 64
3, 22560, Note_on_c, 1, 58, 107
3, 22560, Note_on_c, 1, 55, 107
3, 22896, Note_off_c, 1, 43, 64
3, 22944, Note_off_c, 1, 55, 64
3, 22944, Note_off_c, 1, 58, 64
3, 23040, Note_on_c, 1, 50, 107
3, 23040, Note_on_c, 1, 58, 107
3, 23040, Note_on_c, 1, 53, 107
3, 23952, Note_off_c, 1, 53, 64
3, 23952, Note_off_c, 1, 58, 64
3, 23952, Note_off_c, 1, 50, 64
3, 24000, Note_on_c, 1, 55, 107
3, 24000, Note_on_c, 1, 47, 107
3, 24672, Note_off_c, 1, 55, 64
3, 24720, Note_on_c, 1, 53, 107
3, 24912, Note_off_c, 1, 53, 64
3, 24960, Note_on_c, 1, 51, 107
3, 24975, Note_off_c, 1, 51, 64
3, 24975, Note_on_c, 1, 53, 107
3, 24990, Note_off_c, 1, 53, 64
3, 24990, Note_on_c, 1, 51, 107
3, 25038, Note_off_c, 1, 51, 64
3, 25056, Note_off_c, 1, 47, 64
3, 25080, Note_on_c, 1, 50, 107
3, 25176, Note_off_c, 1, 50, 64
3, 25200, Note_on_c, 1, 48, 107
3, 25440, Note_on_c, 1, 55, 107
3, 25632, Note_off_c, 1, 55, 64
3, 25680, Note_on_c, 1, 60, 107
3, 25776, Note_off_c, 1, 48, 64
3, 25872, Note_off_c, 1, 60, 64
3, 25920, Note_on_c, 1, 42, 107
3, 26016, Note_off_c, 1, 42, 64
3, 26040, Note_on_c, 1, 45, 107
3, 26136, Note_off_c, 1, 45, 64
3, 26160, Note_on_c, 1, 48, 107
3, 26256, Note_off_c, 1, 48, 64
3, 26280, Note_on_c, 1, 45, 107
3, 26376, Note_off_c, 1, 45, 64
3, 26400, Note_on_c, 1, 43, 107
3, 26415, Note_off_c, 1, 43, 64
3, 26415, Note_on_c, 1, 45, 107
3, 26430, Note_off_c, 1, 45, 64
3, 26430, Note_on_c, 1, 43, 107
3, 26478, Note_off_c, 1, 43, 64
3, 26520, Note_on_c, 1, 42, 107
3, 26616, Note_off_c, 1, 42, 64
3, 26640, Note_on_c, 1, 43, 107
3, 26736, Note_off_c, 1, 43, 64
3, 26760, Note_on_c, 1, 46, 107
3, 26856, Note_off_c, 1, 46, 64
3, 26880, Note_on_c, 1, 49, 107
3, 26976, Note_off_c, 1, 49, 64
3, 27000, Note_on_c, 1, 46, 107
3, 27096, Note_off_c, 1, 46, 64
3, 27120, Note_on_c, 1, 44, 107
3, 27135, Note_off_c, 1, 44, 64
3, 27135, Note_on_c, 1, 46, 107
3, 27150, Note_off_c, 1, 46, 64
3, 27150, Note_on_c, 1, 44, 107
3, 27198, Note_off_c, 1, 44, 64
3, 27240, Note_on_c, 1, 43, 107
3, 27336, Note_off_c, 1, 43, 64
3, 27360, Note_on_c, 1, 44, 107
3, 27456, Note_off_c, 1, 44, 64
3, 27480, Note_on_c, 1, 47, 107
3, 27576, Note_off_c, 1, 47, 64
3, 27600, Note_on_c, 1, 50, 107
3, 27696, Note_off_c, 1, 50, 64
3, 27720, Note_on_c, 1, 47, 107
3, 27816, Note_off_c, 1, 47, 64
3, 27840, Note_on_c, 1, 46, 107
3, 27855, Note_off_c, 1, 46, 64
3, 27855, Note_on_c, 1, 47, 107
3, 27870, Note_off_c, 1, 47, 64
3, 27870, Note_on_c, 1, 46, 107
3, 27918, Note_off_c, 1, 46, 64
3, 27960, Note_on_c, 1, 44, 107
3, 28056, Note_off_c, 1, 44, 64
3, 28080, Note_on_c, 1, 51, 107
3, 28272, Note_off_c, 1, 51, 64
3, 28320, Note_on_c, 1, 39, 107
3, 28704, Note_off_c, 1, 39, 64
3, 28800, Note_on_c, 1, 40, 107
3, 29040, Note_on_c, 1, 52, 107
3, 29424, Note_off_c, 1, 52, 64
3, 29760, Note_on_c, 1, 52, 107
3, 30144, Note_off_c, 1, 52, 64
3, 30480, Note_on_c, 1, 52, 107
3, 30816, Note_off_c, 1, 40, 64
3, 30864, Note_off_c, 1, 52, 64
3, 30960, Note_on_c, 1, 42, 107
3, 31200, Note_on_c, 1, 57, 107
3, 31536, Note_off_c, 1, 42, 64
3, 31584, Note_off_c, 1, 57, 64
3, 31680, Note_on_c, 1, 41, 107
3, 31776, Note_off_c, 1, 41, 64
3, 31800, Note_on_c, 1, 47, 107
3, 31896, Note_off_c, 1, 47, 64
3, 31920, Note_on_c, 1, 50, 107
3, 32016, Note_off_c, 1, 50, 64
3, 32040, Note_on_c, 1, 53, 107
3, 32136, Note_off_c, 1, 53, 64
3, 32160, Note_on_c, 1, 56, 107
3, 32256, Note_off_c, 1, 56, 64
3, 32280, Note_on_c, 1, 50, 107
3, 32376, Note_off_c, 1, 50, 64
3, 32400, Note_on_c, 1, 51, 107
3, 32496, Note_off_c, 1, 51, 64
3, 32520, Note_on_c, 1, 47, 107
3, 32616, Note_off_c, 1, 47, 64
3, 32640, Note_on_c, 1, 48, 107
3, 32736, Note_off_c, 1, 48, 64
3, 32760, Note_on_c, 1, 44, 107
3, 32856, Note_off_c, 1, 44, 64
3, 32880, Note_on_c, 1, 42, 107
3, 32976, Note_off_c, 1, 42, 64
3, 33000, Note_on_c, 1, 43, 107
3, 33096, Note_off_c, 1, 43, 64
3, 33120, Note_on_c, 1, 37, 107
3, 33312, Note_off_c, 1, 37, 64
3, 33360, Note_on_c, 1, 38, 107
3, 33600, Note_on_c, 1, 60, 107
3, 33744, Note_off_c, 1, 38, 64
3, 33792, Note_off_c, 1, 60, 64
3, 33840, Note_on_c, 1, 60, 107
3, 33840, Note_on_c, 1, 43, 107
3, 33936, Note_off_c, 1, 60, 64
3, 33960, Note_on_c, 1, 57, 107
3, 34056, Note_off_c, 1, 57, 64
3, 34080, Note_on_c, 1, 58, 107
3, 34080, Note_on_c, 1, 55, 107
3, 34416, Note_off_c, 1, 43, 64
3, 34464, Note_off_c, 1, 55, 64
3, 34464, Note_off_c, 1, 58, 64
3, 34464, End_track
4, 0, Start_track
4, 0, Title_t, "Arr. Gary Bricault, (c) 1997"
4, 0, End_track
0, 0, End_of_file
