0, 0, Header, 1, 3, 384
1, 0, Start_track
1, 0, Time_signature, 4, 2, 24, 8
1, 0, Tempo, 500000
1, 692736, End_track
2, 0, Start_track
2, 0, Text_t, "harpsichord: John Sankey"
2, 0, Program_c, 0, 6
2, 0, Pitch_bend_c, 0, 8192
2, 0, Program_c, 1, 6
2, 0, Pitch_bend_c, 1, 7792
2, 0, Program_c, 2, 6
2, 0, Pitch_bend_c, 2, 7876
2, 0, Program_c, 3, 6
2, 0, Pitch_bend_c, 3, 7952
2, 0, Program_c, 4, 6
2, 0, Pitch_bend_c, 4, 7792
2, 0, Program_c, 5, 6
2, 0, Pitch_bend_c, 5, 8112
2, 0, Program_c, 6, 6
2, 0, Pitch_bend_c, 6, 7712
2, 0, Program_c, 7, 6
2, 0, Pitch_bend_c, 7, 8037
2, 0, Program_c, 8, 6
2, 0, Pitch_bend_c, 8, 7872
2, 0, Program_c, 10, 6
2, 0, Pitch_bend_c, 10, 7712
2, 0, Program_c, 11, 6
2, 0, Pitch_bend_c, 11, 8032
2, 0, Program_c, 12, 6
2, 0, Pitch_bend_c, 12, 7872
2, 0, Title_t, "Track 1"
2, 311, Note_on_c, 12, 71, 127
2, 775, Note_off_c, 12, 71, 127
2, 777, Note_on_c, 12, 71, 127
2, 930, Note_off_c, 12, 71, 127
2, 933, Note_on_c, 4, 64, 127
2, 1242, Note_off_c, 4, 64, 127
2, 1244, Note_on_c, 0, 72, 127
2, 1397, Note_off_c, 0, 72, 127
2, 1399, Note_on_c, 12, 71, 127
2, 1552, Note_off_c, 12, 71, 127
2, 1555, Note_on_c, 0, 72, 127
2, 1708, Note_off_c, 0, 72, 127
2, 1710, Note_on_c, 10, 69, 127
2, 1863, Note_off_c, 10, 69, 127
2, 1866, Note_on_c, 3, 63, 127
2, 2175, Note_off_c, 3, 63, 127
2, 2177, Note_on_c, 6, 66, 127
2, 2641, Note_off_c, 6, 66, 127
2, 2643, Note_on_c, 6, 66, 127
2, 2796, Note_off_c, 6, 66, 127
2, 2799, Note_on_c, 12, 59, 127
2, 3108, Note_off_c, 12, 59, 127
2, 3110, Note_on_c, 12, 71, 127
2, 3263, Note_off_c, 12, 71, 127
2, 3265, Note_on_c, 10, 69, 127
2, 3418, Note_off_c, 10, 69, 127
2, 3421, Note_on_c, 12, 71, 127
2, 3574, Note_off_c, 12, 71, 127
2, 3576, Note_on_c, 6, 66, 127
2, 3729, Note_off_c, 6, 66, 127
2, 3732, Note_on_c, 7, 67, 127
2, 3885, Note_off_c, 7, 67, 127
2, 3888, Note_on_c, 6, 66, 127
2, 4041, Note_off_c, 6, 66, 127
2, 4043, Note_on_c, 7, 67, 127
2, 4043, Note_on_c, 4, 76, 127
2, 4196, Note_off_c, 7, 67, 127
2, 4199, Note_on_c, 10, 69, 127
2, 4352, Note_off_c, 10, 69, 127
2, 4354, Note_on_c, 7, 67, 127
2, 4507, Note_off_c, 7, 67, 127
2, 4507, Note_off_c, 4, 76, 127
2, 4510, Note_on_c, 6, 66, 127
2, 4510, Note_on_c, 4, 76, 127
2, 4663, Note_off_c, 4, 76, 127
2, 4663, Note_off_c, 6, 66, 127
2, 4665, Note_on_c, 4, 64, 127
2, 4665, Note_on_c, 12, 71, 127
2, 4818, Note_off_c, 4, 64, 127
2, 4821, Note_on_c, 2, 62, 127
2, 4974, Note_off_c, 2, 62, 127
2, 4974, Note_off_c, 12, 71, 127
2, 4976, Note_on_c, 4, 64, 127
2, 4976, Note_on_c, 7, 79, 127
2, 5129, Note_off_c, 7, 79, 127
2, 5129, Note_off_c, 4, 64, 127
2, 5132, Note_on_c, 6, 66, 127
2, 5132, Note_on_c, 6, 78, 127
2, 5285, Note_off_c, 6, 78, 127
2, 5285, Note_off_c, 6, 66, 127
2, 5287, Note_on_c, 4, 64, 127
2, 5287, Note_on_c, 7, 79, 127
2, 5440, Note_off_c, 7, 79, 127
2, 5440, Note_off_c, 4, 64, 127
2, 5443, Note_on_c, 2, 62, 127
2, 5443, Note_on_c, 4, 76, 127
2, 5596, Note_off_c, 4, 76, 127
2, 5596, Note_off_c, 2, 62, 127
2, 5598, Note_on_c, 1, 61, 127
2, 5598, Note_on_c, 11, 70, 127
2, 5751, Note_off_c, 1, 61, 127
2, 5754, Note_on_c, 12, 59, 127
2, 5907, Note_off_c, 12, 59, 127
2, 5907, Note_off_c, 11, 70, 127
2, 5909, Note_on_c, 1, 61, 127
2, 5909, Note_on_c, 1, 73, 127
2, 6062, Note_off_c, 1, 61, 127
2, 6065, Note_on_c, 2, 62, 127
2, 6218, Note_off_c, 2, 62, 127
2, 6220, Note_on_c, 1, 61, 127
2, 6373, Note_off_c, 1, 61, 127
2, 6373, Note_off_c, 1, 73, 127
2, 6376, Note_on_c, 12, 59, 127
2, 6376, Note_on_c, 1, 73, 127
2, 6529, Note_off_c, 1, 73, 127
2, 6529, Note_off_c, 12, 59, 127
2, 6531, Note_on_c, 11, 58, 127
2, 6531, Note_on_c, 6, 66, 127
2, 6684, Note_off_c, 11, 58, 127
2, 6687, Note_on_c, 8, 56, 127
2, 6840, Note_off_c, 8, 56, 127
2, 6840, Note_off_c, 6, 66, 127
2, 6842, Note_on_c, 11, 58, 127
2, 6842, Note_on_c, 6, 78, 127
2, 6995, Note_off_c, 6, 78, 127
2, 6995, Note_off_c, 11, 58, 127
2, 6998, Note_on_c, 12, 59, 127
2, 6998, Note_on_c, 4, 76, 127
2, 7151, Note_off_c, 4, 76, 127
2, 7151, Note_off_c, 12, 59, 127
2, 7153, Note_on_c, 8, 56, 127
2, 7153, Note_on_c, 6, 78, 127
2, 7306, Note_off_c, 6, 78, 127
2, 7306, Note_off_c, 8, 56, 127
2, 7309, Note_on_c, 11, 58, 127
2, 7309, Note_on_c, 1, 73, 127
2, 7462, Note_off_c, 1, 73, 127
2, 7462, Note_off_c, 11, 58, 127
2, 7464, Note_on_c, 12, 59, 127
2, 7464, Note_on_c, 2, 74, 127
2, 7617, Note_off_c, 2, 74, 127
2, 7620, Note_on_c, 1, 73, 127
2, 7773, Note_off_c, 1, 73, 127
2, 7773, Note_off_c, 12, 59, 127
2, 7776, Note_on_c, 12, 71, 127
2, 7776, Note_on_c, 2, 74, 127
2, 7929, Note_off_c, 2, 74, 127
2, 7931, Note_on_c, 4, 76, 127
2, 8084, Note_off_c, 4, 76, 127
2, 8087, Note_on_c, 2, 74, 127
2, 8240, Note_off_c, 2, 74, 127
2, 8240, Note_off_c, 12, 71, 127
2, 8242, Note_on_c, 10, 69, 127
2, 8242, Note_on_c, 0, 72, 127
2, 8395, Note_off_c, 0, 72, 127
2, 8395, Note_off_c, 10, 69, 127
2, 8398, Note_on_c, 7, 67, 127
2, 8398, Note_on_c, 12, 71, 127
2, 8551, Note_off_c, 7, 67, 127
2, 8553, Note_on_c, 6, 66, 127
2, 8706, Note_off_c, 6, 66, 127
2, 8707, Note_off_c, 12, 71, 127
2, 8709, Note_on_c, 7, 67, 127
2, 8709, Note_on_c, 4, 76, 127
2, 8862, Note_off_c, 7, 67, 127
2, 8864, Note_on_c, 10, 69, 127
2, 9017, Note_off_c, 10, 69, 127
2, 9020, Note_on_c, 7, 67, 127
2, 9173, Note_off_c, 7, 67, 127
2, 9173, Note_off_c, 4, 76, 127
2, 9175, Note_on_c, 6, 66, 127
2, 9175, Note_on_c, 2, 74, 127
2, 9328, Note_off_c, 2, 74, 127
2, 9328, Note_off_c, 6, 66, 127
2, 9331, Note_on_c, 4, 64, 127
2, 9331, Note_on_c, 0, 72, 127
2, 9484, Note_off_c, 0, 72, 127
2, 9486, Note_on_c, 12, 71, 127
2, 9639, Note_off_c, 12, 71, 127
2, 9640, Note_off_c, 4, 64, 127
2, 9642, Note_on_c, 10, 69, 127
2, 9642, Note_on_c, 0, 72, 127
2, 9795, Note_off_c, 0, 72, 127
2, 9797, Note_on_c, 2, 74, 127
2, 9950, Note_off_c, 2, 74, 127
2, 9953, Note_on_c, 0, 72, 127
2, 10106, Note_off_c, 0, 72, 127
2, 10106, Note_off_c, 10, 69, 127
2, 10108, Note_on_c, 7, 67, 127
2, 10108, Note_on_c, 12, 71, 127
2, 10261, Note_off_c, 12, 71, 127
2, 10261, Note_off_c, 7, 67, 127
2, 10264, Note_on_c, 6, 66, 127
2, 10264, Note_on_c, 10, 69, 127
2, 10417, Note_off_c, 6, 66, 127
2, 10419, Note_on_c, 4, 64, 127
2, 10572, Note_off_c, 4, 64, 127
2, 10573, Note_off_c, 10, 69, 127
2, 10575, Note_on_c, 6, 66, 127
2, 10575, Note_on_c, 10, 81, 127
2, 10728, Note_off_c, 6, 66, 127
2, 10730, Note_on_c, 7, 67, 127
2, 10883, Note_off_c, 7, 67, 127
2, 10886, Note_on_c, 6, 66, 127
2, 11039, Note_off_c, 6, 66, 127
2, 11039, Note_off_c, 10, 81, 127
2, 11041, Note_on_c, 4, 64, 127
2, 11041, Note_on_c, 10, 81, 127
2, 11194, Note_off_c, 10, 81, 127
2, 11194, Note_off_c, 4, 64, 127
2, 11197, Note_on_c, 3, 63, 127
2, 11197, Note_on_c, 10, 81, 127
2, 11350, Note_off_c, 10, 81, 127
2, 11352, Note_on_c, 7, 79, 127
2, 11505, Note_off_c, 7, 79, 127
2, 11506, Note_off_c, 3, 63, 127
2, 11508, Note_on_c, 12, 59, 127
2, 11508, Note_on_c, 3, 63, 127
2, 11508, Note_on_c, 10, 81, 127
2, 11661, Note_off_c, 10, 81, 127
2, 11664, Note_on_c, 0, 84, 127
2, 11817, Note_off_c, 0, 84, 127
2, 11819, Note_on_c, 12, 83, 127
2, 11972, Note_off_c, 12, 83, 127
2, 11972, Note_off_c, 3, 63, 127
2, 11972, Note_off_c, 12, 59, 127
2, 11975, Note_on_c, 12, 59, 127
2, 11975, Note_on_c, 3, 63, 127
2, 11975, Note_on_c, 10, 81, 127
2, 12128, Note_off_c, 10, 81, 127
2, 12128, Note_off_c, 3, 63, 127
2, 12128, Note_off_c, 12, 59, 127
2, 12130, Note_on_c, 4, 52, 127
2, 12130, Note_on_c, 4, 64, 127
2, 12130, Note_on_c, 7, 79, 127
2, 12283, Note_off_c, 7, 79, 127
2, 12286, Note_on_c, 6, 78, 127
2, 12439, Note_off_c, 6, 78, 127
2, 12439, Note_off_c, 4, 52, 127
2, 12441, Note_on_c, 0, 60, 127
2, 12441, Note_on_c, 7, 79, 127
2, 12594, Note_off_c, 7, 79, 127
2, 12594, Note_off_c, 0, 60, 127
2, 12597, Note_on_c, 12, 59, 127
2, 12597, Note_on_c, 12, 83, 127
2, 12745, Note_off_c, 4, 64, 127
2, 12750, Note_off_c, 12, 83, 127
2, 12750, Note_off_c, 12, 59, 127
2, 12752, Note_on_c, 0, 60, 127
2, 12752, Note_on_c, 10, 81, 127
2, 12905, Note_off_c, 10, 81, 127
2, 12905, Note_off_c, 0, 60, 127
2, 12908, Note_on_c, 10, 57, 127
2, 12908, Note_on_c, 7, 79, 127
2, 13061, Note_off_c, 7, 79, 127
2, 13061, Note_off_c, 10, 57, 127
2, 13063, Note_on_c, 3, 51, 127
2, 13063, Note_on_c, 6, 78, 127
2, 13216, Note_off_c, 6, 78, 127
2, 13219, Note_on_c, 4, 76, 127
2, 13372, Note_off_c, 4, 76, 127
2, 13372, Note_off_c, 3, 51, 127
2, 13374, Note_on_c, 6, 54, 127
2, 13374, Note_on_c, 10, 57, 127
2, 13374, Note_on_c, 6, 78, 127
2, 13527, Note_off_c, 6, 78, 127
2, 13530, Note_on_c, 7, 79, 127
2, 13683, Note_off_c, 7, 79, 127
2, 13685, Note_on_c, 6, 78, 127
2, 13838, Note_off_c, 6, 78, 127
2, 13838, Note_off_c, 10, 57, 127
2, 13838, Note_off_c, 6, 54, 127
2, 13841, Note_on_c, 6, 54, 127
2, 13841, Note_on_c, 10, 57, 127
2, 13841, Note_on_c, 4, 76, 127
2, 13994, Note_off_c, 4, 76, 127
2, 13994, Note_off_c, 10, 57, 127
2, 13994, Note_off_c, 6, 54, 127
2, 13996, Note_on_c, 12, 47, 127
2, 13996, Note_on_c, 10, 57, 127
2, 13996, Note_on_c, 3, 75, 127
2, 14149, Note_off_c, 3, 75, 127
2, 14152, Note_on_c, 1, 73, 127
2, 14303, Note_off_c, 10, 57, 127
2, 14305, Note_off_c, 1, 73, 127
2, 14305, Note_off_c, 12, 47, 127
2, 14307, Note_on_c, 12, 59, 127
2, 14307, Note_on_c, 3, 75, 127
2, 14460, Note_off_c, 3, 75, 127
2, 14460, Note_off_c, 12, 59, 127
2, 14463, Note_on_c, 10, 57, 127
2, 14463, Note_on_c, 4, 76, 127
2, 14616, Note_off_c, 4, 76, 127
2, 14616, Note_off_c, 10, 57, 127
2, 14618, Note_on_c, 12, 59, 127
2, 14618, Note_on_c, 1, 73, 127
2, 14771, Note_off_c, 1, 73, 127
2, 14771, Note_off_c, 12, 59, 127
2, 14774, Note_on_c, 6, 54, 127
2, 14774, Note_on_c, 3, 75, 127
2, 14927, Note_off_c, 3, 75, 127
2, 14927, Note_off_c, 6, 54, 127
2, 14929, Note_on_c, 7, 55, 127
2, 14929, Note_on_c, 4, 76, 127
2, 15082, Note_off_c, 4, 76, 127
2, 15082, Note_off_c, 7, 55, 127
2, 15085, Note_on_c, 10, 57, 127
2, 15085, Note_on_c, 3, 75, 127
2, 15238, Note_off_c, 3, 75, 127
2, 15238, Note_off_c, 10, 57, 127
2, 15240, Note_on_c, 7, 55, 127
2, 15240, Note_on_c, 4, 76, 127
2, 15393, Note_off_c, 4, 76, 127
2, 15393, Note_off_c, 7, 55, 127
2, 15396, Note_on_c, 6, 54, 127
2, 15396, Note_on_c, 6, 78, 127
2, 15549, Note_off_c, 6, 78, 127
2, 15549, Note_off_c, 6, 54, 127
2, 15552, Note_on_c, 4, 52, 127
2, 15552, Note_on_c, 7, 79, 127
2, 15705, Note_off_c, 7, 79, 127
2, 15705, Note_off_c, 4, 52, 127
2, 15707, Note_on_c, 7, 55, 127
2, 15707, Note_on_c, 4, 76, 127
2, 15860, Note_off_c, 4, 76, 127
2, 15860, Note_off_c, 7, 55, 127
2, 15863, Note_on_c, 10, 57, 127
2, 15863, Note_on_c, 1, 73, 127
2, 16016, Note_off_c, 1, 73, 127
2, 16016, Note_off_c, 10, 57, 127
2, 16018, Note_on_c, 8, 56, 127
2, 16018, Note_on_c, 2, 74, 127
2, 16171, Note_off_c, 2, 74, 127
2, 16171, Note_off_c, 8, 56, 127
2, 16174, Note_on_c, 10, 57, 127
2, 16174, Note_on_c, 1, 73, 127
2, 16327, Note_off_c, 1, 73, 127
2, 16327, Note_off_c, 10, 57, 127
2, 16329, Note_on_c, 12, 59, 127
2, 16329, Note_on_c, 12, 71, 127
2, 16482, Note_off_c, 12, 71, 127
2, 16482, Note_off_c, 12, 59, 127
2, 16485, Note_on_c, 1, 61, 127
2, 16485, Note_on_c, 10, 69, 127
2, 16638, Note_off_c, 10, 69, 127
2, 16638, Note_off_c, 1, 61, 127
2, 16640, Note_on_c, 10, 57, 127
2, 16640, Note_on_c, 1, 73, 127
2, 16793, Note_off_c, 1, 73, 127
2, 16793, Note_off_c, 10, 57, 127
2, 16796, Note_on_c, 6, 54, 127
2, 16796, Note_on_c, 2, 74, 127
2, 16949, Note_off_c, 2, 74, 127
2, 16949, Note_off_c, 6, 54, 127
2, 16951, Note_on_c, 7, 55, 127
2, 16951, Note_on_c, 1, 73, 127
2, 17104, Note_off_c, 1, 73, 127
2, 17104, Note_off_c, 7, 55, 127
2, 17107, Note_on_c, 6, 54, 127
2, 17107, Note_on_c, 2, 74, 127
2, 17260, Note_off_c, 2, 74, 127
2, 17260, Note_off_c, 6, 54, 127
2, 17262, Note_on_c, 4, 52, 127
2, 17262, Note_on_c, 4, 76, 127
2, 17415, Note_off_c, 4, 76, 127
2, 17415, Note_off_c, 4, 52, 127
2, 17418, Note_on_c, 2, 50, 127
2, 17418, Note_on_c, 6, 78, 127
2, 17571, Note_off_c, 6, 78, 127
2, 17571, Note_off_c, 2, 50, 127
2, 17573, Note_on_c, 6, 54, 127
2, 17573, Note_on_c, 2, 74, 127
2, 17726, Note_off_c, 2, 74, 127
2, 17726, Note_off_c, 6, 54, 127
2, 17729, Note_on_c, 7, 55, 127
2, 17729, Note_on_c, 12, 71, 127
2, 17882, Note_off_c, 12, 71, 127
2, 17882, Note_off_c, 7, 55, 127
2, 17884, Note_on_c, 6, 54, 127
2, 17884, Note_on_c, 0, 72, 127
2, 18037, Note_off_c, 0, 72, 127
2, 18037, Note_off_c, 6, 54, 127
2, 18040, Note_on_c, 7, 55, 127
2, 18040, Note_on_c, 12, 71, 127
2, 18193, Note_off_c, 12, 71, 127
2, 18193, Note_off_c, 7, 55, 127
2, 18195, Note_on_c, 10, 57, 127
2, 18195, Note_on_c, 10, 69, 127
2, 18348, Note_off_c, 10, 69, 127
2, 18348, Note_off_c, 10, 57, 127
2, 18351, Note_on_c, 12, 59, 127
2, 18351, Note_on_c, 7, 67, 127
2, 18504, Note_off_c, 7, 67, 127
2, 18504, Note_off_c, 12, 59, 127
2, 18506, Note_on_c, 7, 55, 127
2, 18506, Note_on_c, 12, 71, 127
2, 18659, Note_off_c, 12, 71, 127
2, 18659, Note_off_c, 7, 55, 127
2, 18662, Note_on_c, 4, 52, 127
2, 18662, Note_on_c, 1, 73, 127
2, 18815, Note_off_c, 1, 73, 127
2, 18815, Note_off_c, 4, 52, 127
2, 18817, Note_on_c, 6, 54, 127
2, 18817, Note_on_c, 12, 71, 127
2, 18970, Note_off_c, 12, 71, 127
2, 18970, Note_off_c, 6, 54, 127
2, 18973, Note_on_c, 4, 52, 127
2, 18973, Note_on_c, 1, 73, 127
2, 19126, Note_off_c, 1, 73, 127
2, 19126, Note_off_c, 4, 52, 127
2, 19128, Note_on_c, 2, 50, 127
2, 19128, Note_on_c, 2, 74, 127
2, 19281, Note_off_c, 2, 74, 127
2, 19281, Note_off_c, 2, 50, 127
2, 19284, Note_on_c, 1, 49, 127
2, 19284, Note_on_c, 4, 76, 127
2, 19437, Note_off_c, 4, 76, 127
2, 19437, Note_off_c, 1, 49, 127
2, 19440, Note_on_c, 4, 52, 127
2, 19440, Note_on_c, 1, 73, 127
2, 19593, Note_off_c, 1, 73, 127
2, 19593, Note_off_c, 4, 52, 127
2, 19595, Note_on_c, 6, 54, 127
2, 19595, Note_on_c, 11, 70, 127
2, 19748, Note_off_c, 11, 70, 127
2, 19748, Note_off_c, 6, 54, 127
2, 19751, Note_on_c, 7, 55, 127
2, 19751, Note_on_c, 12, 71, 127
2, 19904, Note_off_c, 12, 71, 127
2, 19904, Note_off_c, 7, 55, 127
2, 19906, Note_on_c, 6, 54, 127
2, 19906, Note_on_c, 11, 70, 127
2, 20059, Note_off_c, 11, 70, 127
2, 20059, Note_off_c, 6, 54, 127
2, 20062, Note_on_c, 4, 52, 127
2, 20062, Note_on_c, 8, 68, 127
2, 20215, Note_off_c, 8, 68, 127
2, 20215, Note_off_c, 4, 52, 127
2, 20217, Note_on_c, 2, 50, 127
2, 20217, Note_on_c, 6, 66, 127
2, 20370, Note_off_c, 6, 66, 127
2, 20370, Note_off_c, 2, 50, 127
2, 20373, Note_on_c, 1, 49, 127
2, 20373, Note_on_c, 11, 70, 127
2, 20526, Note_off_c, 11, 70, 127
2, 20526, Note_off_c, 1, 49, 127
2, 20528, Note_on_c, 2, 50, 127
2, 20528, Note_on_c, 12, 71, 127
2, 20681, Note_off_c, 12, 71, 127
2, 20681, Note_off_c, 2, 50, 127
2, 20684, Note_on_c, 4, 52, 127
2, 20684, Note_on_c, 11, 70, 127
2, 20837, Note_off_c, 11, 70, 127
2, 20837, Note_off_c, 4, 52, 127
2, 20839, Note_on_c, 2, 50, 127
2, 20839, Note_on_c, 6, 66, 127
2, 20839, Note_on_c, 12, 71, 127
2, 20992, Note_off_c, 12, 71, 127
2, 20992, Note_off_c, 2, 50, 127
2, 20995, Note_on_c, 1, 49, 127
2, 20995, Note_on_c, 1, 73, 127
2, 21148, Note_off_c, 1, 73, 127
2, 21148, Note_off_c, 1, 49, 127
2, 21150, Note_on_c, 12, 47, 127
2, 21150, Note_on_c, 2, 74, 127
2, 21303, Note_off_c, 2, 74, 127
2, 21303, Note_off_c, 12, 47, 127
2, 21303, Note_off_c, 6, 66, 127
2, 21306, Note_on_c, 2, 50, 127
2, 21306, Note_on_c, 6, 66, 127
2, 21306, Note_on_c, 12, 71, 127
2, 21459, Note_off_c, 12, 71, 127
2, 21459, Note_off_c, 6, 66, 127
2, 21459, Note_off_c, 2, 50, 127
2, 21461, Note_on_c, 4, 52, 127
2, 21461, Note_on_c, 12, 59, 127
2, 21461, Note_on_c, 7, 67, 127
2, 21614, Note_off_c, 4, 52, 127
2, 21617, Note_on_c, 2, 50, 127
2, 21768, Note_off_c, 7, 67, 127
2, 21770, Note_off_c, 2, 50, 127
2, 21770, Note_off_c, 12, 59, 127
2, 21772, Note_on_c, 4, 52, 127
2, 21772, Note_on_c, 7, 67, 127
2, 21925, Note_off_c, 7, 67, 127
2, 21925, Note_off_c, 4, 52, 127
2, 21928, Note_on_c, 6, 54, 127
2, 21928, Note_on_c, 6, 66, 127
2, 22081, Note_off_c, 6, 66, 127
2, 22081, Note_off_c, 6, 54, 127
2, 22083, Note_on_c, 4, 52, 127
2, 22083, Note_on_c, 7, 67, 127
2, 22236, Note_off_c, 4, 52, 127
2, 22239, Note_on_c, 2, 50, 127
2, 22239, Note_on_c, 4, 64, 127
2, 22392, Note_off_c, 4, 64, 127
2, 22392, Note_off_c, 2, 50, 127
2, 22394, Note_on_c, 1, 49, 127
2, 22394, Note_on_c, 11, 58, 127
2, 22536, Note_off_c, 7, 67, 127
2, 22547, Note_off_c, 1, 49, 127
2, 22550, Note_on_c, 12, 47, 127
2, 22703, Note_off_c, 12, 47, 127
2, 22703, Note_off_c, 11, 58, 127
2, 22705, Note_on_c, 1, 49, 127
2, 22705, Note_on_c, 1, 61, 127
2, 22705, Note_on_c, 4, 64, 127
2, 22858, Note_off_c, 1, 49, 127
2, 22861, Note_on_c, 2, 50, 127
2, 23014, Note_off_c, 2, 50, 127
2, 23016, Note_on_c, 1, 49, 127
2, 23169, Note_off_c, 1, 49, 127
2, 23169, Note_off_c, 4, 64, 127
2, 23169, Note_off_c, 1, 61, 127
2, 23172, Note_on_c, 12, 47, 127
2, 23172, Note_on_c, 1, 61, 127
2, 23172, Note_on_c, 4, 64, 127
2, 23325, Note_off_c, 4, 64, 127
2, 23325, Note_off_c, 1, 61, 127
2, 23325, Note_off_c, 12, 47, 127
2, 23328, Note_on_c, 11, 46, 127
2, 23328, Note_on_c, 6, 54, 127
2, 23328, Note_on_c, 4, 64, 127
2, 23481, Note_off_c, 11, 46, 127
2, 23483, Note_on_c, 8, 44, 127
2, 23635, Note_off_c, 4, 64, 127
2, 23636, Note_off_c, 8, 44, 127
2, 23639, Note_on_c, 11, 46, 127
2, 23639, Note_on_c, 6, 66, 127
2, 23792, Note_off_c, 6, 66, 127
2, 23792, Note_off_c, 11, 46, 127
2, 23794, Note_on_c, 12, 47, 127
2, 23794, Note_on_c, 4, 64, 127
2, 23947, Note_off_c, 4, 64, 127
2, 23947, Note_off_c, 12, 47, 127
2, 23950, Note_on_c, 8, 44, 127
2, 23950, Note_on_c, 6, 66, 127
2, 24103, Note_off_c, 6, 66, 127
2, 24103, Note_off_c, 8, 44, 127
2, 24105, Note_on_c, 11, 46, 127
2, 24105, Note_on_c, 1, 61, 127
2, 24258, Note_off_c, 1, 61, 127
2, 24258, Note_off_c, 11, 46, 127
2, 24259, Note_off_c, 6, 54, 127
2, 24261, Note_on_c, 12, 47, 127
2, 24261, Note_on_c, 2, 62, 127
2, 24416, Note_on_c, 6, 66, 127
2, 24569, Note_off_c, 6, 66, 127
2, 24570, Note_off_c, 12, 47, 127
2, 24572, Note_on_c, 12, 59, 127
2, 24572, Note_on_c, 12, 71, 127
2, 24725, Note_off_c, 2, 62, 127
2, 24727, Note_on_c, 6, 66, 127
2, 24880, Note_off_c, 6, 66, 127
2, 24881, Note_off_c, 12, 59, 127
2, 24883, Note_on_c, 12, 47, 127
2, 24883, Note_on_c, 4, 64, 127
2, 25036, Note_off_c, 4, 64, 127
2, 25038, Note_on_c, 2, 62, 127
2, 25191, Note_off_c, 2, 62, 127
2, 25192, Note_off_c, 12, 47, 127
2, 25194, Note_on_c, 12, 47, 127
2, 25194, Note_on_c, 4, 64, 127
2, 25347, Note_off_c, 12, 71, 127
2, 25349, Note_on_c, 11, 70, 127
2, 25425, Note_off_c, 11, 70, 127
2, 25427, Note_on_c, 12, 71, 127
2, 25503, Note_off_c, 12, 71, 127
2, 25503, Note_off_c, 12, 47, 127
2, 25505, Note_on_c, 12, 59, 127
2, 25505, Note_on_c, 1, 73, 127
2, 25658, Note_off_c, 4, 64, 127
2, 25660, Note_on_c, 7, 67, 127
2, 25813, Note_off_c, 7, 67, 127
2, 25814, Note_off_c, 12, 59, 127
2, 25816, Note_on_c, 12, 47, 127
2, 25816, Note_on_c, 6, 66, 127
2, 25969, Note_off_c, 6, 66, 127
2, 25971, Note_on_c, 4, 64, 127
2, 26124, Note_off_c, 4, 64, 127
2, 26125, Note_off_c, 12, 47, 127
2, 26127, Note_on_c, 12, 47, 127
2, 26127, Note_on_c, 6, 66, 127
2, 26280, Note_off_c, 1, 73, 127
2, 26282, Note_on_c, 12, 71, 127
2, 26358, Note_off_c, 12, 71, 127
2, 26360, Note_on_c, 1, 73, 127
2, 26436, Note_off_c, 1, 73, 127
2, 26436, Note_off_c, 12, 47, 127
2, 26438, Note_on_c, 12, 59, 127
2, 26438, Note_on_c, 2, 74, 127
2, 26591, Note_off_c, 6, 66, 127
2, 26593, Note_on_c, 10, 69, 127
2, 26746, Note_off_c, 10, 69, 127
2, 26747, Note_off_c, 12, 59, 127
2, 26749, Note_on_c, 12, 47, 127
2, 26749, Note_on_c, 7, 67, 127
2, 26902, Note_off_c, 7, 67, 127
2, 26904, Note_on_c, 6, 66, 127
2, 27057, Note_off_c, 6, 66, 127
2, 27058, Note_off_c, 12, 47, 127
2, 27060, Note_on_c, 12, 47, 127
2, 27060, Note_on_c, 7, 67, 127
2, 27213, Note_off_c, 2, 74, 127
2, 27216, Note_on_c, 1, 73, 127
2, 27292, Note_off_c, 1, 73, 127
2, 27293, Note_on_c, 2, 74, 127
2, 27369, Note_off_c, 2, 74, 127
2, 27369, Note_off_c, 12, 47, 127
2, 27371, Note_on_c, 12, 59, 127
2, 27371, Note_on_c, 4, 76, 127
2, 27524, Note_off_c, 7, 67, 127
2, 27527, Note_on_c, 2, 74, 127
2, 27680, Note_off_c, 2, 74, 127
2, 27680, Note_off_c, 12, 59, 127
2, 27682, Note_on_c, 12, 47, 127
2, 27682, Note_on_c, 1, 73, 127
2, 27835, Note_off_c, 1, 73, 127
2, 27838, Note_on_c, 12, 71, 127
2, 27991, Note_off_c, 12, 71, 127
2, 27991, Note_off_c, 12, 47, 127
2, 27993, Note_on_c, 12, 47, 127
2, 27993, Note_on_c, 11, 70, 127
2, 28146, Note_off_c, 4, 76, 127
2, 28149, Note_on_c, 1, 73, 127
2, 28302, Note_off_c, 1, 73, 127
2, 28302, Note_off_c, 12, 47, 127
2, 28304, Note_on_c, 12, 59, 127
2, 28304, Note_on_c, 4, 76, 127
2, 28457, Note_off_c, 4, 76, 127
2, 28460, Note_on_c, 7, 79, 127
2, 28608, Note_off_c, 11, 70, 127
2, 28613, Note_off_c, 7, 79, 127
2, 28613, Note_off_c, 12, 59, 127
2, 28615, Note_on_c, 12, 47, 127
2, 28615, Note_on_c, 6, 78, 127
2, 28768, Note_off_c, 6, 78, 127
2, 28771, Note_on_c, 4, 76, 127
2, 28924, Note_off_c, 4, 76, 127
2, 28924, Note_off_c, 12, 47, 127
2, 28926, Note_on_c, 12, 59, 127
2, 28926, Note_on_c, 2, 74, 127
2, 29079, Note_off_c, 12, 59, 127
2, 29082, Note_on_c, 11, 58, 127
2, 29082, Note_on_c, 1, 73, 127
2, 29235, Note_off_c, 1, 73, 127
2, 29235, Note_off_c, 11, 58, 127
2, 29237, Note_on_c, 12, 59, 127
2, 29237, Note_on_c, 12, 71, 127
2, 29390, Note_off_c, 12, 71, 127
2, 29390, Note_off_c, 12, 59, 127
2, 29393, Note_on_c, 1, 61, 127
2, 29393, Note_on_c, 11, 70, 127
2, 29546, Note_off_c, 11, 70, 127
2, 29546, Note_off_c, 1, 61, 127
2, 29548, Note_on_c, 2, 62, 127
2, 29548, Note_on_c, 12, 71, 127
2, 29701, Note_off_c, 12, 71, 127
2, 29701, Note_off_c, 2, 62, 127
2, 29704, Note_on_c, 12, 59, 127
2, 29704, Note_on_c, 6, 66, 127
2, 29857, Note_off_c, 6, 66, 127
2, 29857, Note_off_c, 12, 59, 127
2, 29859, Note_on_c, 4, 64, 127
2, 29859, Note_on_c, 8, 68, 127
2, 30012, Note_off_c, 4, 64, 127
2, 30013, Note_off_c, 2, 74, 127
2, 30015, Note_on_c, 5, 65, 127
2, 30015, Note_on_c, 12, 71, 127
2, 30168, Note_off_c, 12, 71, 127
2, 30168, Note_off_c, 5, 65, 127
2, 30170, Note_on_c, 4, 64, 127
2, 30170, Note_on_c, 2, 74, 127
2, 30323, Note_off_c, 2, 74, 127
2, 30323, Note_off_c, 4, 64, 127
2, 30326, Note_on_c, 2, 62, 127
2, 30326, Note_on_c, 5, 77, 127
2, 30474, Note_off_c, 8, 68, 127
2, 30479, Note_off_c, 5, 77, 127
2, 30479, Note_off_c, 2, 62, 127
2, 30481, Note_on_c, 0, 60, 127
2, 30481, Note_on_c, 4, 76, 127
2, 30634, Note_off_c, 4, 76, 127
2, 30634, Note_off_c, 0, 60, 127
2, 30637, Note_on_c, 12, 59, 127
2, 30637, Note_on_c, 2, 74, 127
2, 30790, Note_off_c, 2, 74, 127
2, 30790, Note_off_c, 12, 59, 127
2, 30792, Note_on_c, 10, 57, 127
2, 30792, Note_on_c, 0, 72, 127
2, 30945, Note_off_c, 10, 57, 127
2, 30948, Note_on_c, 8, 56, 127
2, 30948, Note_on_c, 12, 71, 127
2, 31101, Note_off_c, 12, 71, 127
2, 31101, Note_off_c, 8, 56, 127
2, 31104, Note_on_c, 10, 57, 127
2, 31104, Note_on_c, 10, 69, 127
2, 31257, Note_off_c, 10, 69, 127
2, 31257, Note_off_c, 10, 57, 127
2, 31259, Note_on_c, 12, 59, 127
2, 31259, Note_on_c, 8, 68, 127
2, 31412, Note_off_c, 8, 68, 127
2, 31412, Note_off_c, 12, 59, 127
2, 31415, Note_on_c, 0, 60, 127
2, 31415, Note_on_c, 10, 69, 127
2, 31568, Note_off_c, 10, 69, 127
2, 31568, Note_off_c, 0, 60, 127
2, 31570, Note_on_c, 10, 57, 127
2, 31570, Note_on_c, 4, 64, 127
2, 31723, Note_off_c, 4, 64, 127
2, 31723, Note_off_c, 10, 57, 127
2, 31726, Note_on_c, 2, 62, 127
2, 31726, Note_on_c, 6, 66, 127
2, 31879, Note_off_c, 2, 62, 127
2, 31879, Note_off_c, 0, 72, 127
2, 31881, Note_on_c, 4, 64, 127
2, 31881, Note_on_c, 10, 69, 127
2, 32034, Note_off_c, 10, 69, 127
2, 32034, Note_off_c, 4, 64, 127
2, 32037, Note_on_c, 2, 62, 127
2, 32037, Note_on_c, 0, 72, 127
2, 32190, Note_off_c, 0, 72, 127
2, 32190, Note_off_c, 2, 62, 127
2, 32192, Note_on_c, 0, 60, 127
2, 32192, Note_on_c, 4, 76, 127
2, 32341, Note_off_c, 6, 66, 127
2, 32345, Note_off_c, 4, 76, 127
2, 32345, Note_off_c, 0, 60, 127
2, 32348, Note_on_c, 12, 59, 127
2, 32348, Note_on_c, 2, 74, 127
2, 32501, Note_off_c, 2, 74, 127
2, 32501, Note_off_c, 12, 59, 127
2, 32503, Note_on_c, 10, 57, 127
2, 32503, Note_on_c, 0, 72, 127
2, 32656, Note_off_c, 0, 72, 127
2, 32656, Note_off_c, 10, 57, 127
2, 32659, Note_on_c, 7, 55, 127
2, 32659, Note_on_c, 12, 71, 127
2, 32812, Note_off_c, 7, 55, 127
2, 32814, Note_on_c, 6, 54, 127
2, 32814, Note_on_c, 10, 69, 127
2, 32967, Note_off_c, 10, 69, 127
2, 32967, Note_off_c, 6, 54, 127
2, 32970, Note_on_c, 7, 55, 127
2, 32970, Note_on_c, 7, 67, 127
2, 33123, Note_off_c, 7, 67, 127
2, 33123, Note_off_c, 7, 55, 127
2, 33125, Note_on_c, 10, 57, 127
2, 33125, Note_on_c, 6, 66, 127
2, 33278, Note_off_c, 6, 66, 127
2, 33278, Note_off_c, 10, 57, 127
2, 33281, Note_on_c, 12, 59, 127
2, 33281, Note_on_c, 7, 67, 127
2, 33434, Note_off_c, 7, 67, 127
2, 33434, Note_off_c, 12, 59, 127
2, 33436, Note_on_c, 7, 55, 127
2, 33436, Note_on_c, 3, 63, 127
2, 33589, Note_off_c, 3, 63, 127
2, 33589, Note_off_c, 7, 55, 127
2, 33592, Note_on_c, 0, 60, 127
2, 33592, Note_on_c, 4, 64, 127
2, 33745, Note_off_c, 0, 60, 127
2, 33746, Note_off_c, 12, 71, 127
2, 33747, Note_on_c, 2, 62, 127
2, 33747, Note_on_c, 7, 67, 127
2, 33900, Note_off_c, 7, 67, 127
2, 33900, Note_off_c, 2, 62, 127
2, 33903, Note_on_c, 0, 60, 127
2, 33903, Note_on_c, 12, 71, 127
2, 34056, Note_off_c, 12, 71, 127
2, 34056, Note_off_c, 0, 60, 127
2, 34058, Note_on_c, 12, 59, 127
2, 34058, Note_on_c, 2, 74, 127
2, 34207, Note_off_c, 4, 64, 127
2, 34211, Note_off_c, 2, 74, 127
2, 34211, Note_off_c, 12, 59, 127
2, 34214, Note_on_c, 10, 57, 127
2, 34214, Note_on_c, 0, 72, 127
2, 34367, Note_off_c, 0, 72, 127
2, 34367, Note_off_c, 10, 57, 127
2, 34369, Note_on_c, 7, 55, 127
2, 34369, Note_on_c, 12, 71, 127
2, 34522, Note_off_c, 12, 71, 127
2, 34522, Note_off_c, 7, 55, 127
2, 34525, Note_on_c, 6, 54, 127
2, 34525, Note_on_c, 10, 69, 127
2, 34678, Note_off_c, 6, 54, 127
2, 34680, Note_on_c, 4, 52, 127
2, 34680, Note_on_c, 7, 67, 127
2, 34833, Note_off_c, 7, 67, 127
2, 34833, Note_off_c, 4, 52, 127
2, 34836, Note_on_c, 6, 54, 127
2, 34836, Note_on_c, 6, 66, 127
2, 34989, Note_off_c, 6, 66, 127
2, 34989, Note_off_c, 6, 54, 127
2, 34992, Note_on_c, 7, 55, 127
2, 34992, Note_on_c, 4, 64, 127
2, 35145, Note_off_c, 4, 64, 127
2, 35145, Note_off_c, 7, 55, 127
2, 35147, Note_on_c, 10, 57, 127
2, 35147, Note_on_c, 6, 66, 127
2, 35300, Note_off_c, 6, 66, 127
2, 35300, Note_off_c, 10, 57, 127
2, 35303, Note_on_c, 6, 54, 127
2, 35303, Note_on_c, 1, 61, 127
2, 35456, Note_off_c, 1, 61, 127
2, 35456, Note_off_c, 6, 54, 127
2, 35458, Note_on_c, 12, 59, 127
2, 35458, Note_on_c, 3, 63, 127
2, 35611, Note_off_c, 12, 59, 127
2, 35614, Note_on_c, 6, 54, 127
2, 35767, Note_off_c, 6, 54, 127
2, 35767, Note_off_c, 3, 63, 127
2, 35767, Note_off_c, 10, 69, 127
2, 35769, Note_on_c, 10, 57, 127
2, 35769, Note_on_c, 3, 75, 127
2, 35769, Note_on_c, 6, 78, 127
2, 35769, Note_on_c, 12, 83, 127
2, 35922, Note_off_c, 10, 57, 127
2, 35925, Note_on_c, 0, 60, 127
2, 36078, Note_off_c, 0, 60, 127
2, 36080, Note_on_c, 12, 59, 127
2, 36233, Note_off_c, 12, 59, 127
2, 36233, Note_off_c, 12, 83, 127
2, 36233, Note_off_c, 6, 78, 127
2, 36233, Note_off_c, 3, 75, 127
2, 36236, Note_on_c, 10, 57, 127
2, 36236, Note_on_c, 3, 75, 127
2, 36236, Note_on_c, 6, 78, 127
2, 36236, Note_on_c, 12, 83, 127
2, 36389, Note_off_c, 12, 83, 127
2, 36389, Note_off_c, 6, 78, 127
2, 36389, Note_off_c, 3, 75, 127
2, 36389, Note_off_c, 10, 57, 127
2, 36391, Note_on_c, 7, 55, 127
2, 36391, Note_on_c, 12, 71, 127
2, 36391, Note_on_c, 4, 76, 127
2, 36544, Note_off_c, 7, 55, 127
2, 36547, Note_on_c, 6, 54, 127
2, 36700, Note_off_c, 6, 54, 127
2, 36700, Note_off_c, 4, 76, 127
2, 36700, Note_off_c, 12, 71, 127
2, 36702, Note_on_c, 7, 55, 127
2, 36702, Note_on_c, 4, 76, 127
2, 36702, Note_on_c, 10, 81, 127
2, 36702, Note_on_c, 0, 84, 127
2, 36855, Note_off_c, 0, 84, 127
2, 36855, Note_off_c, 7, 55, 127
2, 36858, Note_on_c, 12, 59, 127
2, 36858, Note_on_c, 12, 83, 127
2, 37011, Note_off_c, 12, 83, 127
2, 37011, Note_off_c, 12, 59, 127
2, 37013, Note_on_c, 10, 57, 127
2, 37013, Note_on_c, 0, 84, 127
2, 37155, Note_off_c, 10, 81, 127
2, 37166, Note_off_c, 0, 84, 127
2, 37166, Note_off_c, 10, 57, 127
2, 37169, Note_on_c, 7, 55, 127
2, 37169, Note_on_c, 10, 81, 127
2, 37317, Note_off_c, 4, 76, 127
2, 37322, Note_off_c, 10, 81, 127
2, 37322, Note_off_c, 7, 55, 127
2, 37324, Note_on_c, 6, 54, 127
2, 37324, Note_on_c, 3, 75, 127
2, 37477, Note_off_c, 6, 54, 127
2, 37480, Note_on_c, 4, 52, 127
2, 37633, Note_off_c, 4, 52, 127
2, 37633, Note_off_c, 3, 75, 127
2, 37635, Note_on_c, 6, 54, 127
2, 37635, Note_on_c, 0, 72, 127
2, 37635, Note_on_c, 10, 69, 127
2, 37635, Note_on_c, 6, 78, 127
2, 37788, Note_off_c, 6, 54, 127
2, 37791, Note_on_c, 7, 55, 127
2, 37944, Note_off_c, 7, 55, 127
2, 37946, Note_on_c, 6, 54, 127
2, 38099, Note_off_c, 6, 54, 127
2, 38099, Note_off_c, 6, 78, 127
2, 38102, Note_on_c, 4, 52, 127
2, 38102, Note_on_c, 6, 78, 127
2, 38250, Note_off_c, 10, 69, 127
2, 38250, Note_off_c, 0, 72, 127
2, 38255, Note_off_c, 6, 78, 127
2, 38255, Note_off_c, 4, 52, 127
2, 38257, Note_on_c, 3, 51, 127
2, 38257, Note_on_c, 12, 71, 127
2, 38410, Note_off_c, 3, 51, 127
2, 38413, Note_on_c, 1, 49, 127
2, 38566, Note_off_c, 1, 49, 127
2, 38566, Note_off_c, 12, 71, 127
2, 38568, Note_on_c, 3, 51, 127
2, 38568, Note_on_c, 6, 78, 127
2, 38568, Note_on_c, 12, 71, 127
2, 38568, Note_on_c, 12, 83, 127
2, 38721, Note_off_c, 12, 83, 127
2, 38721, Note_off_c, 3, 51, 127
2, 38724, Note_on_c, 4, 52, 127
2, 38724, Note_on_c, 10, 81, 127
2, 38877, Note_off_c, 10, 81, 127
2, 38877, Note_off_c, 4, 52, 127
2, 38880, Note_on_c, 1, 49, 127
2, 38880, Note_on_c, 12, 83, 127
2, 39021, Note_off_c, 6, 78, 127
2, 39033, Note_off_c, 12, 83, 127
2, 39033, Note_off_c, 1, 49, 127
2, 39035, Note_on_c, 3, 51, 127
2, 39035, Note_on_c, 6, 78, 127
2, 39183, Note_off_c, 12, 71, 127
2, 39188, Note_off_c, 6, 78, 127
2, 39188, Note_off_c, 3, 51, 127
2, 39191, Note_on_c, 4, 52, 127
2, 39191, Note_on_c, 7, 79, 127
2, 39344, Note_off_c, 7, 79, 127
2, 39344, Note_off_c, 4, 52, 127
2, 39346, Note_on_c, 12, 47, 127
2, 39346, Note_on_c, 10, 81, 127
2, 39499, Note_off_c, 10, 81, 127
2, 39499, Note_off_c, 12, 47, 127
2, 39502, Note_on_c, 4, 52, 127
2, 39502, Note_on_c, 7, 79, 127
2, 39655, Note_off_c, 7, 79, 127
2, 39655, Note_off_c, 4, 52, 127
2, 39657, Note_on_c, 6, 54, 127
2, 39657, Note_on_c, 6, 78, 127
2, 39810, Note_off_c, 6, 78, 127
2, 39810, Note_off_c, 6, 54, 127
2, 39813, Note_on_c, 7, 55, 127
2, 39813, Note_on_c, 4, 76, 127
2, 39966, Note_off_c, 4, 76, 127
2, 39966, Note_off_c, 7, 55, 127
2, 39968, Note_on_c, 4, 52, 127
2, 39968, Note_on_c, 7, 79, 127
2, 40121, Note_off_c, 7, 79, 127
2, 40121, Note_off_c, 4, 52, 127
2, 40124, Note_on_c, 0, 48, 127
2, 40124, Note_on_c, 10, 81, 127
2, 40277, Note_off_c, 10, 81, 127
2, 40277, Note_off_c, 0, 48, 127
2, 40279, Note_on_c, 2, 50, 127
2, 40279, Note_on_c, 7, 79, 127
2, 40432, Note_off_c, 7, 79, 127
2, 40432, Note_off_c, 2, 50, 127
2, 40435, Note_on_c, 0, 48, 127
2, 40435, Note_on_c, 10, 81, 127
2, 40588, Note_off_c, 10, 81, 127
2, 40588, Note_off_c, 0, 48, 127
2, 40590, Note_on_c, 12, 47, 127
2, 40590, Note_on_c, 12, 83, 127
2, 40743, Note_off_c, 12, 83, 127
2, 40743, Note_off_c, 12, 47, 127
2, 40746, Note_on_c, 10, 45, 127
2, 40746, Note_on_c, 0, 84, 127
2, 40899, Note_off_c, 0, 84, 127
2, 40899, Note_off_c, 10, 45, 127
2, 40901, Note_on_c, 0, 48, 127
2, 40901, Note_on_c, 10, 81, 127
2, 41054, Note_off_c, 10, 81, 127
2, 41054, Note_off_c, 0, 48, 127
2, 41057, Note_on_c, 2, 50, 127
2, 41057, Note_on_c, 6, 78, 127
2, 41210, Note_off_c, 6, 78, 127
2, 41210, Note_off_c, 2, 50, 127
2, 41212, Note_on_c, 10, 45, 127
2, 41212, Note_on_c, 7, 79, 127
2, 41365, Note_off_c, 7, 79, 127
2, 41365, Note_off_c, 10, 45, 127
2, 41368, Note_on_c, 2, 50, 127
2, 41368, Note_on_c, 6, 78, 127
2, 41521, Note_off_c, 6, 78, 127
2, 41521, Note_off_c, 2, 50, 127
2, 41523, Note_on_c, 4, 52, 127
2, 41523, Note_on_c, 4, 76, 127
2, 41676, Note_off_c, 4, 76, 127
2, 41676, Note_off_c, 4, 52, 127
2, 41679, Note_on_c, 6, 54, 127
2, 41679, Note_on_c, 2, 74, 127
2, 41832, Note_off_c, 2, 74, 127
2, 41832, Note_off_c, 6, 54, 127
2, 41834, Note_on_c, 2, 50, 127
2, 41834, Note_on_c, 6, 78, 127
2, 41987, Note_off_c, 6, 78, 127
2, 41987, Note_off_c, 2, 50, 127
2, 41990, Note_on_c, 12, 47, 127
2, 41990, Note_on_c, 7, 79, 127
2, 42143, Note_off_c, 7, 79, 127
2, 42143, Note_off_c, 12, 47, 127
2, 42145, Note_on_c, 0, 48, 127
2, 42145, Note_on_c, 6, 78, 127
2, 42298, Note_off_c, 6, 78, 127
2, 42298, Note_off_c, 0, 48, 127
2, 42301, Note_on_c, 12, 47, 127
2, 42301, Note_on_c, 7, 79, 127
2, 42454, Note_off_c, 7, 79, 127
2, 42454, Note_off_c, 12, 47, 127
2, 42456, Note_on_c, 10, 45, 127
2, 42456, Note_on_c, 10, 81, 127
2, 42609, Note_off_c, 10, 81, 127
2, 42609, Note_off_c, 10, 45, 127
2, 42612, Note_on_c, 7, 43, 127
2, 42612, Note_on_c, 12, 83, 127
2, 42765, Note_off_c, 12, 83, 127
2, 42765, Note_off_c, 7, 43, 127
2, 42768, Note_on_c, 12, 47, 127
2, 42768, Note_on_c, 7, 79, 127
2, 42921, Note_off_c, 7, 79, 127
2, 42921, Note_off_c, 12, 47, 127
2, 42923, Note_on_c, 0, 48, 127
2, 42923, Note_on_c, 4, 76, 127
2, 43076, Note_off_c, 4, 76, 127
2, 43076, Note_off_c, 0, 48, 127
2, 43079, Note_on_c, 7, 43, 127
2, 43079, Note_on_c, 6, 78, 127
2, 43232, Note_off_c, 6, 78, 127
2, 43232, Note_off_c, 7, 43, 127
2, 43234, Note_on_c, 0, 48, 127
2, 43234, Note_on_c, 4, 76, 127
2, 43387, Note_off_c, 4, 76, 127
2, 43387, Note_off_c, 0, 48, 127
2, 43390, Note_on_c, 2, 50, 127
2, 43390, Note_on_c, 2, 74, 127
2, 43543, Note_off_c, 2, 74, 127
2, 43543, Note_off_c, 2, 50, 127
2, 43545, Note_on_c, 4, 52, 127
2, 43545, Note_on_c, 0, 72, 127
2, 43698, Note_off_c, 0, 72, 127
2, 43698, Note_off_c, 4, 52, 127
2, 43701, Note_on_c, 0, 48, 127
2, 43701, Note_on_c, 4, 76, 127
2, 43854, Note_off_c, 4, 76, 127
2, 43854, Note_off_c, 0, 48, 127
2, 43856, Note_on_c, 10, 45, 127
2, 43856, Note_on_c, 6, 78, 127
2, 44009, Note_off_c, 6, 78, 127
2, 44009, Note_off_c, 10, 45, 127
2, 44012, Note_on_c, 12, 47, 127
2, 44012, Note_on_c, 4, 76, 127
2, 44165, Note_off_c, 4, 76, 127
2, 44165, Note_off_c, 12, 47, 127
2, 44167, Note_on_c, 10, 45, 127
2, 44167, Note_on_c, 6, 78, 127
2, 44320, Note_off_c, 6, 78, 127
2, 44320, Note_off_c, 10, 45, 127
2, 44323, Note_on_c, 7, 43, 127
2, 44323, Note_on_c, 7, 79, 127
2, 44476, Note_off_c, 7, 79, 127
2, 44476, Note_off_c, 7, 43, 127
2, 44478, Note_on_c, 6, 42, 127
2, 44478, Note_on_c, 10, 81, 127
2, 44631, Note_off_c, 10, 81, 127
2, 44631, Note_off_c, 6, 42, 127
2, 44634, Note_on_c, 10, 45, 127
2, 44634, Note_on_c, 6, 78, 127
2, 44787, Note_off_c, 6, 78, 127
2, 44787, Note_off_c, 10, 45, 127
2, 44789, Note_on_c, 12, 47, 127
2, 44789, Note_on_c, 3, 75, 127
2, 44942, Note_off_c, 12, 47, 127
2, 44945, Note_on_c, 6, 42, 127
2, 45098, Note_off_c, 6, 42, 127
2, 45098, Note_off_c, 3, 75, 127
2, 45100, Note_on_c, 10, 45, 127
2, 45100, Note_on_c, 12, 71, 127
2, 45100, Note_on_c, 3, 75, 127
2, 45253, Note_off_c, 10, 45, 127
2, 45256, Note_on_c, 0, 48, 127
2, 45409, Note_off_c, 0, 48, 127
2, 45411, Note_on_c, 12, 47, 127
2, 45564, Note_off_c, 12, 47, 127
2, 45564, Note_off_c, 3, 75, 127
2, 45564, Note_off_c, 12, 71, 127
2, 45567, Note_on_c, 10, 45, 127
2, 45567, Note_on_c, 12, 71, 127
2, 45567, Note_on_c, 3, 75, 127
2, 45720, Note_off_c, 3, 75, 127
2, 45720, Note_off_c, 12, 71, 127
2, 45720, Note_off_c, 10, 45, 127
2, 45722, Note_on_c, 7, 43, 127
2, 45722, Note_on_c, 4, 64, 127
2, 45722, Note_on_c, 4, 76, 127
2, 45875, Note_off_c, 7, 43, 127
2, 45878, Note_on_c, 6, 42, 127
2, 46031, Note_off_c, 6, 42, 127
2, 46031, Note_off_c, 4, 64, 127
2, 46033, Note_on_c, 7, 43, 127
2, 46033, Note_on_c, 0, 72, 127
2, 46186, Note_off_c, 0, 72, 127
2, 46186, Note_off_c, 7, 43, 127
2, 46189, Note_on_c, 12, 47, 127
2, 46189, Note_on_c, 12, 71, 127
2, 46342, Note_off_c, 12, 71, 127
2, 46342, Note_off_c, 12, 47, 127
2, 46344, Note_on_c, 10, 45, 127
2, 46344, Note_on_c, 0, 72, 127
2, 46497, Note_off_c, 0, 72, 127
2, 46497, Note_off_c, 10, 45, 127
2, 46499, Note_off_c, 4, 76, 127
2, 46500, Note_on_c, 7, 43, 127
2, 46500, Note_on_c, 10, 69, 127
2, 46653, Note_off_c, 10, 69, 127
2, 46653, Note_off_c, 7, 43, 127
2, 46656, Note_on_c, 6, 42, 127
2, 46656, Note_on_c, 3, 63, 127
2, 46809, Note_off_c, 6, 42, 127
2, 46811, Note_on_c, 4, 40, 127
2, 46964, Note_off_c, 4, 40, 127
2, 46965, Note_off_c, 3, 63, 127
2, 46967, Note_on_c, 6, 42, 127
2, 46967, Note_on_c, 6, 66, 127
2, 46967, Note_on_c, 10, 69, 127
2, 47120, Note_off_c, 6, 42, 127
2, 47122, Note_on_c, 7, 43, 127
2, 47275, Note_off_c, 7, 43, 127
2, 47278, Note_on_c, 6, 42, 127
2, 47431, Note_off_c, 6, 42, 127
2, 47431, Note_off_c, 10, 69, 127
2, 47431, Note_off_c, 6, 66, 127
2, 47433, Note_on_c, 4, 40, 127
2, 47433, Note_on_c, 6, 66, 127
2, 47433, Note_on_c, 10, 69, 127
2, 47586, Note_off_c, 10, 69, 127
2, 47586, Note_off_c, 6, 66, 127
2, 47586, Note_off_c, 4, 40, 127
2, 47589, Note_on_c, 3, 39, 127
2, 47589, Note_on_c, 6, 66, 127
2, 47589, Note_on_c, 12, 59, 127
2, 47589, Note_on_c, 10, 69, 127
2, 47742, Note_off_c, 3, 39, 127
2, 47744, Note_on_c, 1, 37, 127
2, 47896, Note_off_c, 10, 69, 127
2, 47897, Note_off_c, 1, 37, 127
2, 47898, Note_off_c, 12, 59, 127
2, 47900, Note_on_c, 3, 39, 127
2, 47900, Note_on_c, 12, 71, 127
2, 48053, Note_off_c, 12, 71, 127
2, 48053, Note_off_c, 3, 39, 127
2, 48055, Note_on_c, 4, 40, 127
2, 48055, Note_on_c, 10, 69, 127
2, 48208, Note_off_c, 10, 69, 127
2, 48208, Note_off_c, 4, 40, 127
2, 48211, Note_on_c, 1, 37, 127
2, 48211, Note_on_c, 12, 71, 127
2, 48353, Note_off_c, 6, 66, 127
2, 48364, Note_off_c, 12, 71, 127
2, 48364, Note_off_c, 1, 37, 127
2, 48366, Note_on_c, 3, 39, 127
2, 48366, Note_on_c, 6, 66, 127
2, 48519, Note_off_c, 6, 66, 127
2, 48519, Note_off_c, 3, 39, 127
2, 48522, Note_on_c, 4, 40, 127
2, 48522, Note_on_c, 7, 67, 127
2, 48677, Note_on_c, 12, 71, 127
2, 48830, Note_off_c, 12, 71, 127
2, 48831, Note_off_c, 4, 40, 127
2, 48833, Note_on_c, 4, 52, 127
2, 48833, Note_on_c, 4, 76, 127
2, 48986, Note_off_c, 7, 67, 127
2, 48988, Note_on_c, 12, 71, 127
2, 49141, Note_off_c, 12, 71, 127
2, 49142, Note_off_c, 4, 52, 127
2, 49144, Note_on_c, 4, 40, 127
2, 49144, Note_on_c, 10, 69, 127
2, 49297, Note_off_c, 10, 69, 127
2, 49299, Note_on_c, 7, 67, 127
2, 49452, Note_off_c, 7, 67, 127
2, 49453, Note_off_c, 4, 40, 127
2, 49455, Note_on_c, 4, 40, 127
2, 49455, Note_on_c, 10, 69, 127
2, 49608, Note_off_c, 4, 76, 127
2, 49610, Note_on_c, 3, 75, 127
2, 49686, Note_off_c, 3, 75, 127
2, 49688, Note_on_c, 4, 76, 127
2, 49764, Note_off_c, 4, 76, 127
2, 49764, Note_off_c, 4, 40, 127
2, 49766, Note_on_c, 4, 52, 127
2, 49766, Note_on_c, 6, 78, 127
2, 49919, Note_off_c, 10, 69, 127
2, 49921, Note_on_c, 0, 72, 127
2, 50074, Note_off_c, 0, 72, 127
2, 50075, Note_off_c, 4, 52, 127
2, 50077, Note_on_c, 4, 40, 127
2, 50077, Note_on_c, 12, 71, 127
2, 50230, Note_off_c, 12, 71, 127
2, 50232, Note_on_c, 10, 69, 127
2, 50385, Note_off_c, 10, 69, 127
2, 50386, Note_off_c, 4, 40, 127
2, 50388, Note_on_c, 4, 40, 127
2, 50388, Note_on_c, 12, 71, 127
2, 50541, Note_off_c, 6, 78, 127
2, 50544, Note_on_c, 4, 76, 127
2, 50620, Note_off_c, 4, 76, 127
2, 50621, Note_on_c, 6, 78, 127
2, 50697, Note_off_c, 6, 78, 127
2, 50697, Note_off_c, 4, 40, 127
2, 50699, Note_on_c, 4, 52, 127
2, 50699, Note_on_c, 7, 79, 127
2, 50852, Note_off_c, 12, 71, 127
2, 50855, Note_on_c, 2, 74, 127
2, 51008, Note_off_c, 2, 74, 127
2, 51008, Note_off_c, 4, 52, 127
2, 51010, Note_on_c, 4, 40, 127
2, 51010, Note_on_c, 0, 72, 127
2, 51163, Note_off_c, 0, 72, 127
2, 51166, Note_on_c, 12, 71, 127
2, 51319, Note_off_c, 12, 71, 127
2, 51319, Note_off_c, 4, 40, 127
2, 51321, Note_on_c, 4, 40, 127
2, 51321, Note_on_c, 0, 72, 127
2, 51474, Note_off_c, 7, 79, 127
2, 51477, Note_on_c, 6, 78, 127
2, 51553, Note_off_c, 6, 78, 127
2, 51554, Note_on_c, 7, 79, 127
2, 51630, Note_off_c, 7, 79, 127
2, 51630, Note_off_c, 4, 40, 127
2, 51632, Note_on_c, 4, 52, 127
2, 51632, Note_on_c, 10, 81, 127
2, 51785, Note_off_c, 0, 72, 127
2, 51788, Note_on_c, 7, 79, 127
2, 51941, Note_off_c, 7, 79, 127
2, 51941, Note_off_c, 4, 52, 127
2, 51943, Note_on_c, 4, 40, 127
2, 51943, Note_on_c, 6, 78, 127
2, 52096, Note_off_c, 6, 78, 127
2, 52099, Note_on_c, 4, 76, 127
2, 52252, Note_off_c, 4, 76, 127
2, 52252, Note_off_c, 4, 40, 127
2, 52254, Note_on_c, 4, 40, 127
2, 52254, Note_on_c, 3, 75, 127
2, 52407, Note_off_c, 10, 81, 127
2, 52410, Note_on_c, 6, 78, 127
2, 52563, Note_off_c, 6, 78, 127
2, 52563, Note_off_c, 4, 40, 127
2, 52565, Note_on_c, 4, 52, 127
2, 52565, Note_on_c, 10, 81, 127
2, 52718, Note_off_c, 10, 81, 127
2, 52721, Note_on_c, 0, 84, 127
2, 52869, Note_off_c, 3, 75, 127
2, 52874, Note_off_c, 0, 84, 127
2, 52874, Note_off_c, 4, 52, 127
2, 52876, Note_on_c, 4, 40, 127
2, 52876, Note_on_c, 12, 83, 127
2, 53029, Note_off_c, 12, 83, 127
2, 53032, Note_on_c, 10, 81, 127
2, 53185, Note_off_c, 10, 81, 127
2, 53185, Note_off_c, 4, 40, 127
2, 53187, Note_on_c, 4, 52, 127
2, 53187, Note_on_c, 7, 79, 127
2, 53340, Note_off_c, 7, 79, 127
2, 53340, Note_off_c, 4, 52, 127
2, 53343, Note_on_c, 3, 51, 127
2, 53343, Note_on_c, 6, 78, 127
2, 53496, Note_off_c, 6, 78, 127
2, 53496, Note_off_c, 3, 51, 127
2, 53498, Note_on_c, 4, 52, 127
2, 53498, Note_on_c, 4, 76, 127
2, 53651, Note_off_c, 4, 76, 127
2, 53651, Note_off_c, 4, 52, 127
2, 53654, Note_on_c, 6, 54, 127
2, 53654, Note_on_c, 3, 75, 127
2, 53807, Note_off_c, 3, 75, 127
2, 53807, Note_off_c, 6, 54, 127
2, 53809, Note_on_c, 7, 55, 127
2, 53809, Note_on_c, 4, 76, 127
2, 53962, Note_off_c, 4, 76, 127
2, 53962, Note_off_c, 7, 55, 127
2, 53965, Note_on_c, 4, 52, 127
2, 53965, Note_on_c, 12, 71, 127
2, 54118, Note_off_c, 12, 71, 127
2, 54118, Note_off_c, 4, 52, 127
2, 54120, Note_on_c, 10, 57, 127
2, 54120, Note_on_c, 0, 72, 127
2, 54273, Note_off_c, 10, 57, 127
2, 54276, Note_on_c, 12, 59, 127
2, 54276, Note_on_c, 4, 64, 127
2, 54429, Note_off_c, 4, 64, 127
2, 54429, Note_off_c, 12, 59, 127
2, 54432, Note_on_c, 10, 57, 127
2, 54432, Note_on_c, 7, 67, 127
2, 54585, Note_off_c, 7, 67, 127
2, 54585, Note_off_c, 10, 57, 127
2, 54587, Note_on_c, 7, 55, 127
2, 54587, Note_on_c, 12, 71, 127
2, 54740, Note_off_c, 12, 71, 127
2, 54740, Note_off_c, 7, 55, 127
2, 54743, Note_on_c, 6, 54, 127
2, 54743, Note_on_c, 10, 69, 127
2, 54896, Note_off_c, 10, 69, 127
2, 54896, Note_off_c, 6, 54, 127
2, 54898, Note_on_c, 4, 52, 127
2, 54898, Note_on_c, 7, 67, 127
2, 55051, Note_off_c, 7, 67, 127
2, 55051, Note_off_c, 4, 52, 127
2, 55054, Note_on_c, 2, 50, 127
2, 55054, Note_on_c, 6, 66, 127
2, 55207, Note_off_c, 2, 50, 127
2, 55207, Note_off_c, 0, 72, 127
2, 55209, Note_on_c, 0, 48, 127
2, 55209, Note_on_c, 4, 76, 127
2, 55362, Note_off_c, 4, 76, 127
2, 55362, Note_off_c, 0, 48, 127
2, 55365, Note_on_c, 2, 50, 127
2, 55365, Note_on_c, 2, 74, 127
2, 55518, Note_off_c, 2, 74, 127
2, 55518, Note_off_c, 2, 50, 127
2, 55520, Note_on_c, 4, 52, 127
2, 55520, Note_on_c, 0, 72, 127
2, 55673, Note_off_c, 0, 72, 127
2, 55673, Note_off_c, 4, 52, 127
2, 55676, Note_on_c, 6, 54, 127
2, 55676, Note_on_c, 2, 74, 127
2, 55829, Note_off_c, 2, 74, 127
2, 55829, Note_off_c, 6, 54, 127
2, 55831, Note_on_c, 2, 50, 127
2, 55831, Note_on_c, 10, 69, 127
2, 55984, Note_off_c, 10, 69, 127
2, 55984, Note_off_c, 2, 50, 127
2, 55987, Note_on_c, 7, 55, 127
2, 55987, Note_on_c, 12, 71, 127
2, 56140, Note_off_c, 7, 55, 127
2, 56141, Note_off_c, 6, 66, 127
2, 56142, Note_on_c, 10, 57, 127
2, 56142, Note_on_c, 2, 62, 127
2, 56295, Note_off_c, 2, 62, 127
2, 56295, Note_off_c, 10, 57, 127
2, 56298, Note_on_c, 7, 55, 127
2, 56298, Note_on_c, 5, 65, 127
2, 56451, Note_off_c, 5, 65, 127
2, 56451, Note_off_c, 7, 55, 127
2, 56453, Note_on_c, 5, 53, 127
2, 56453, Note_on_c, 10, 69, 127
2, 56606, Note_off_c, 10, 69, 127
2, 56606, Note_off_c, 5, 53, 127
2, 56609, Note_on_c, 4, 52, 127
2, 56609, Note_on_c, 7, 67, 127
2, 56762, Note_off_c, 7, 67, 127
2, 56762, Note_off_c, 4, 52, 127
2, 56764, Note_on_c, 2, 50, 127
2, 56764, Note_on_c, 5, 65, 127
2, 56917, Note_off_c, 5, 65, 127
2, 56917, Note_off_c, 2, 50, 127
2, 56920, Note_on_c, 0, 48, 127
2, 56920, Note_on_c, 4, 64, 127
2, 57073, Note_off_c, 0, 48, 127
2, 57074, Note_off_c, 12, 71, 127
2, 57075, Note_on_c, 12, 47, 127
2, 57075, Note_on_c, 2, 74, 127
2, 57228, Note_off_c, 2, 74, 127
2, 57228, Note_off_c, 12, 47, 127
2, 57231, Note_on_c, 0, 48, 127
2, 57231, Note_on_c, 0, 72, 127
2, 57384, Note_off_c, 0, 72, 127
2, 57384, Note_off_c, 0, 48, 127
2, 57386, Note_on_c, 2, 50, 127
2, 57386, Note_on_c, 12, 71, 127
2, 57539, Note_off_c, 12, 71, 127
2, 57539, Note_off_c, 2, 50, 127
2, 57542, Note_on_c, 4, 52, 127
2, 57542, Note_on_c, 0, 72, 127
2, 57695, Note_off_c, 0, 72, 127
2, 57695, Note_off_c, 4, 52, 127
2, 57697, Note_on_c, 0, 48, 127
2, 57697, Note_on_c, 7, 67, 127
2, 57850, Note_off_c, 7, 67, 127
2, 57850, Note_off_c, 0, 48, 127
2, 57853, Note_on_c, 6, 54, 127
2, 57853, Note_on_c, 10, 69, 127
2, 58006, Note_off_c, 6, 54, 127
2, 58007, Note_off_c, 4, 64, 127
2, 58008, Note_on_c, 7, 55, 127
2, 58008, Note_on_c, 3, 63, 127
2, 58161, Note_off_c, 3, 63, 127
2, 58161, Note_off_c, 7, 55, 127
2, 58164, Note_on_c, 6, 54, 127
2, 58164, Note_on_c, 4, 64, 127
2, 58317, Note_off_c, 4, 64, 127
2, 58317, Note_off_c, 6, 54, 127
2, 58320, Note_on_c, 4, 52, 127
2, 58320, Note_on_c, 7, 67, 127
2, 58473, Note_off_c, 7, 67, 127
2, 58473, Note_off_c, 4, 52, 127
2, 58475, Note_on_c, 3, 51, 127
2, 58475, Note_on_c, 6, 66, 127
2, 58628, Note_off_c, 6, 66, 127
2, 58628, Note_off_c, 3, 51, 127
2, 58631, Note_on_c, 1, 49, 127
2, 58631, Note_on_c, 4, 64, 127
2, 58784, Note_off_c, 4, 64, 127
2, 58784, Note_off_c, 1, 49, 127
2, 58786, Note_on_c, 12, 47, 127
2, 58786, Note_on_c, 3, 63, 127
2, 58940, Note_off_c, 10, 69, 127
2, 58942, Note_on_c, 0, 72, 127
2, 59095, Note_off_c, 0, 72, 127
2, 59097, Note_on_c, 12, 59, 127
2, 59097, Note_on_c, 12, 71, 127
2, 59250, Note_off_c, 12, 71, 127
2, 59253, Note_on_c, 10, 69, 127
2, 59401, Note_off_c, 3, 63, 127
2, 59401, Note_off_c, 12, 47, 127
2, 59406, Note_off_c, 10, 69, 127
2, 59408, Note_on_c, 12, 47, 127
2, 59408, Note_on_c, 12, 71, 127
2, 59561, Note_off_c, 12, 71, 127
2, 59564, Note_on_c, 6, 66, 127
2, 59717, Note_off_c, 6, 66, 127
2, 59717, Note_off_c, 12, 47, 127
2, 59719, Note_on_c, 12, 47, 127
2, 59719, Note_on_c, 7, 67, 127
2, 59875, Note_on_c, 6, 66, 127
2, 60028, Note_off_c, 6, 66, 127
2, 60028, Note_off_c, 12, 59, 127
2, 60030, Note_on_c, 12, 59, 127
2, 60030, Note_on_c, 4, 64, 127
2, 60183, Note_off_c, 4, 64, 127
2, 60186, Note_on_c, 3, 63, 127
2, 60334, Note_off_c, 12, 47, 127
2, 60339, Note_off_c, 3, 63, 127
2, 60341, Note_on_c, 12, 47, 127
2, 60341, Note_on_c, 4, 64, 127
2, 60494, Note_off_c, 4, 64, 127
2, 60497, Note_on_c, 1, 61, 127
2, 60645, Note_off_c, 12, 59, 127
2, 60650, Note_off_c, 1, 61, 127
2, 60650, Note_off_c, 12, 47, 127
2, 60652, Note_on_c, 12, 47, 127
2, 60652, Note_on_c, 11, 58, 127
2, 60806, Note_off_c, 7, 67, 127
2, 60808, Note_on_c, 7, 67, 127
2, 60959, Note_off_c, 11, 58, 127
2, 60961, Note_off_c, 7, 67, 127
2, 60963, Note_on_c, 11, 58, 127
2, 60963, Note_on_c, 6, 66, 127
2, 61116, Note_off_c, 6, 66, 127
2, 61119, Note_on_c, 4, 64, 127
2, 61267, Note_off_c, 12, 47, 127
2, 61272, Note_off_c, 4, 64, 127
2, 61274, Note_on_c, 12, 47, 127
2, 61274, Note_on_c, 6, 66, 127
2, 61427, Note_off_c, 6, 66, 127
2, 61430, Note_on_c, 1, 61, 127
2, 61578, Note_off_c, 11, 58, 127
2, 61583, Note_off_c, 1, 61, 127
2, 61583, Note_off_c, 12, 47, 127
2, 61585, Note_on_c, 12, 47, 127
2, 61585, Note_on_c, 3, 63, 127
2, 61741, Note_on_c, 0, 60, 127
2, 61894, Note_off_c, 0, 60, 127
2, 61896, Note_on_c, 12, 59, 127
2, 62049, Note_off_c, 12, 59, 127
2, 62052, Note_on_c, 10, 57, 127
2, 62205, Note_off_c, 10, 57, 127
2, 62208, Note_on_c, 12, 59, 127
2, 62363, Note_off_c, 12, 59, 127
2, 62365, Note_on_c, 6, 54, 127
2, 62520, Note_off_c, 6, 54, 127
2, 62522, Note_on_c, 7, 55, 127
2, 62676, Note_off_c, 3, 63, 127
2, 62679, Note_on_c, 12, 59, 127
2, 62834, Note_off_c, 12, 59, 127
2, 62836, Note_on_c, 4, 64, 127
2, 62994, Note_off_c, 4, 64, 127
2, 62996, Note_on_c, 6, 66, 127
2, 63154, Note_off_c, 6, 66, 127
2, 63157, Note_on_c, 7, 67, 127
2, 63317, Note_on_c, 1, 61, 127
2, 63475, Note_off_c, 1, 61, 127
2, 63478, Note_on_c, 4, 64, 127
2, 63640, Note_on_c, 11, 58, 127
2, 63802, Note_on_c, 1, 61, 127
2, 63962, Note_off_c, 7, 55, 127
2, 63964, Note_on_c, 4, 52, 127
2, 64124, Note_off_c, 4, 52, 127
2, 64126, Note_on_c, 7, 55, 127
2, 64288, Note_off_c, 7, 55, 127
2, 64289, Note_on_c, 1, 49, 127
2, 64451, Note_off_c, 1, 49, 127
2, 64453, Note_on_c, 4, 52, 127
2, 64615, Note_off_c, 4, 52, 127
2, 64616, Note_on_c, 7, 55, 127
2, 64778, Note_off_c, 1, 61, 127
2, 64778, Note_off_c, 4, 64, 127
2, 64780, Note_on_c, 1, 61, 127
2, 64945, Note_off_c, 1, 61, 127
2, 64947, Note_on_c, 4, 64, 127
2, 65110, Note_off_c, 7, 67, 127
2, 65112, Note_off_c, 4, 64, 127
2, 65114, Note_on_c, 7, 67, 127
2, 65279, Note_off_c, 7, 67, 127
2, 65281, Note_on_c, 11, 70, 127
2, 65438, Note_off_c, 11, 58, 127
2, 65440, Note_off_c, 12, 47, 127
2, 65445, Note_off_c, 7, 55, 127
2, 65446, Note_off_c, 11, 70, 127
2, 65448, Note_on_c, 6, 54, 127
2, 65448, Note_on_c, 12, 71, 127
2, 65448, Note_on_c, 3, 63, 127
2, 65448, Note_on_c, 6, 66, 127
2, 65608, Note_off_c, 3, 63, 127
2, 65610, Note_on_c, 12, 59, 127
2, 65768, Note_off_c, 6, 66, 127
2, 65768, Note_off_c, 12, 71, 127
2, 65770, Note_off_c, 12, 59, 127
2, 65770, Note_off_c, 6, 54, 127
2, 65772, Note_on_c, 12, 59, 127
2, 65772, Note_on_c, 1, 61, 127
2, 65932, Note_off_c, 1, 61, 127
2, 65934, Note_on_c, 3, 63, 127
2, 66094, Note_off_c, 3, 63, 127
2, 66096, Note_on_c, 4, 64, 127
2, 66251, Note_off_c, 4, 64, 127
2, 66251, Note_off_c, 12, 59, 127
2, 66253, Note_on_c, 12, 59, 127
2, 66253, Note_on_c, 6, 66, 127
2, 66408, Note_off_c, 6, 66, 127
2, 66408, Note_off_c, 12, 59, 127
2, 66410, Note_on_c, 4, 52, 127
2, 66410, Note_on_c, 7, 67, 127
2, 66565, Note_off_c, 7, 67, 127
2, 66567, Note_on_c, 4, 64, 127
2, 66722, Note_off_c, 4, 64, 127
2, 66722, Note_off_c, 4, 52, 127
2, 66724, Note_on_c, 0, 60, 127
2, 66724, Note_on_c, 6, 66, 127
2, 66879, Note_off_c, 6, 66, 127
2, 66879, Note_off_c, 0, 60, 127
2, 66881, Note_on_c, 12, 59, 127
2, 66881, Note_on_c, 7, 67, 127
2, 67036, Note_off_c, 7, 67, 127
2, 67036, Note_off_c, 12, 59, 127
2, 67038, Note_on_c, 0, 60, 127
2, 67038, Note_on_c, 10, 69, 127
2, 67193, Note_off_c, 10, 69, 127
2, 67193, Note_off_c, 0, 60, 127
2, 67195, Note_on_c, 10, 57, 127
2, 67195, Note_on_c, 12, 71, 127
2, 67350, Note_off_c, 12, 71, 127
2, 67350, Note_off_c, 10, 57, 127
2, 67353, Note_on_c, 3, 51, 127
2, 67353, Note_on_c, 0, 72, 127
2, 67510, Note_on_c, 12, 71, 127
2, 67665, Note_off_c, 12, 71, 127
2, 67665, Note_off_c, 3, 51, 127
2, 67667, Note_on_c, 6, 54, 127
2, 67667, Note_on_c, 10, 69, 127
2, 67822, Note_off_c, 10, 69, 127
2, 67824, Note_on_c, 7, 67, 127
2, 67979, Note_off_c, 7, 67, 127
2, 67981, Note_on_c, 6, 66, 127
2, 68136, Note_off_c, 6, 66, 127
2, 68136, Note_off_c, 6, 54, 127
2, 68138, Note_on_c, 6, 54, 127
2, 68138, Note_on_c, 4, 64, 127
2, 68293, Note_off_c, 4, 64, 127
2, 68293, Note_off_c, 6, 54, 127
2, 68295, Note_on_c, 12, 47, 127
2, 68295, Note_on_c, 3, 63, 127
2, 68451, Note_off_c, 0, 72, 127
2, 68453, Note_on_c, 6, 66, 127
2, 68607, Note_off_c, 12, 47, 127
2, 68608, Note_off_c, 6, 66, 127
2, 68610, Note_on_c, 12, 59, 127
2, 68610, Note_on_c, 10, 69, 127
2, 68765, Note_off_c, 10, 69, 127
2, 68765, Note_off_c, 12, 59, 127
2, 68767, Note_on_c, 10, 57, 127
2, 68767, Note_on_c, 0, 72, 127
2, 68917, Note_off_c, 3, 63, 127
2, 68922, Note_off_c, 0, 72, 127
2, 68922, Note_off_c, 10, 57, 127
2, 68924, Note_on_c, 12, 59, 127
2, 68924, Note_on_c, 3, 63, 127
2, 69079, Note_off_c, 12, 59, 127
2, 69081, Note_on_c, 6, 54, 127
2, 69081, Note_on_c, 6, 66, 127
2, 69235, Note_off_c, 3, 63, 127
2, 69236, Note_off_c, 6, 66, 127
2, 69236, Note_off_c, 6, 54, 127
2, 69238, Note_on_c, 7, 55, 127
2, 69238, Note_on_c, 4, 64, 127
2, 69395, Note_on_c, 7, 67, 127
2, 69550, Note_off_c, 7, 67, 127
2, 69550, Note_off_c, 7, 55, 127
2, 69553, Note_on_c, 10, 57, 127
2, 69553, Note_on_c, 12, 71, 127
2, 69630, Note_off_c, 10, 57, 127
2, 69632, Note_on_c, 8, 56, 127
2, 69698, Note_off_c, 4, 64, 127
2, 69709, Note_off_c, 8, 56, 127
2, 69710, Note_off_c, 12, 71, 127
2, 69711, Note_on_c, 10, 57, 127
2, 69711, Note_on_c, 4, 76, 127
2, 69788, Note_off_c, 10, 57, 127
2, 69791, Note_on_c, 8, 56, 127
2, 69870, Note_on_c, 4, 64, 127
2, 70023, Note_off_c, 4, 76, 127
2, 70025, Note_off_c, 4, 64, 127
2, 70025, Note_off_c, 8, 56, 127
2, 70027, Note_on_c, 8, 56, 127
2, 70027, Note_on_c, 2, 74, 127
2, 70182, Note_off_c, 2, 74, 127
2, 70182, Note_off_c, 8, 56, 127
2, 70184, Note_on_c, 10, 57, 127
2, 70184, Note_on_c, 0, 72, 127
2, 70342, Note_on_c, 4, 76, 127
2, 70496, Note_off_c, 10, 57, 127
2, 70497, Note_off_c, 4, 76, 127
2, 70499, Note_on_c, 0, 60, 127
2, 70499, Note_on_c, 10, 81, 127
2, 70654, Note_off_c, 10, 81, 127
2, 70656, Note_on_c, 0, 84, 127
2, 70806, Note_off_c, 0, 72, 127
2, 70811, Note_off_c, 0, 84, 127
2, 70813, Note_on_c, 6, 78, 127
2, 70968, Note_off_c, 6, 78, 127
2, 70968, Note_off_c, 0, 60, 127
2, 70970, Note_on_c, 0, 60, 127
2, 70970, Note_on_c, 10, 81, 127
2, 71125, Note_off_c, 10, 81, 127
2, 71125, Note_off_c, 0, 60, 127
2, 71127, Note_on_c, 12, 59, 127
2, 71127, Note_on_c, 3, 75, 127
2, 71282, Note_off_c, 3, 75, 127
2, 71282, Note_off_c, 12, 59, 127
2, 71284, Note_on_c, 0, 60, 127
2, 71284, Note_on_c, 6, 78, 127
2, 71439, Note_off_c, 6, 78, 127
2, 71439, Note_off_c, 0, 60, 127
2, 71442, Note_on_c, 12, 59, 127
2, 71442, Note_on_c, 12, 71, 127
2, 71597, Note_off_c, 12, 71, 127
2, 71597, Note_off_c, 12, 59, 127
2, 71599, Note_on_c, 10, 57, 127
2, 71599, Note_on_c, 3, 75, 127
2, 71754, Note_off_c, 3, 75, 127
2, 71754, Note_off_c, 10, 57, 127
2, 71756, Note_on_c, 7, 55, 127
2, 71756, Note_on_c, 4, 76, 127
2, 71911, Note_off_c, 7, 55, 127
2, 71913, Note_on_c, 6, 54, 127
2, 71913, Note_on_c, 10, 69, 127
2, 72068, Note_off_c, 10, 69, 127
2, 72068, Note_off_c, 6, 54, 127
2, 72070, Note_on_c, 4, 52, 127
2, 72070, Note_on_c, 7, 67, 127
2, 72225, Note_off_c, 7, 67, 127
2, 72225, Note_off_c, 4, 52, 127
2, 72225, Note_off_c, 4, 76, 127
2, 72227, Note_on_c, 10, 57, 127
2, 72227, Note_on_c, 4, 76, 127
2, 72227, Note_on_c, 6, 78, 127
2, 72382, Note_off_c, 6, 78, 127
2, 72382, Note_off_c, 4, 76, 127
2, 72382, Note_off_c, 10, 57, 127
2, 72384, Note_on_c, 12, 59, 127
2, 72384, Note_on_c, 3, 75, 127
2, 72384, Note_on_c, 7, 79, 127
2, 72487, Note_off_c, 7, 79, 127
2, 72490, Note_on_c, 6, 78, 127
2, 72540, Note_off_c, 6, 78, 127
2, 72541, Note_on_c, 7, 79, 127
2, 72591, Note_off_c, 7, 79, 127
2, 72593, Note_on_c, 6, 78, 127
2, 72643, Note_off_c, 6, 78, 127
2, 72645, Note_on_c, 7, 79, 127
2, 72695, Note_off_c, 7, 79, 127
2, 72695, Note_off_c, 12, 59, 127
2, 72697, Note_on_c, 12, 47, 127
2, 72697, Note_on_c, 6, 78, 127
2, 72852, Note_off_c, 6, 78, 127
2, 72854, Note_on_c, 4, 76, 127
2, 73004, Note_off_c, 3, 75, 127
2, 73009, Note_off_c, 4, 76, 127
2, 73009, Note_off_c, 12, 47, 127
2, 73011, Note_on_c, 4, 40, 127
2, 73011, Note_on_c, 4, 76, 127
2, 73164, Note_off_c, 4, 76, 127
2, 73167, Note_on_c, 3, 75, 127
2, 73320, Note_off_c, 3, 75, 127
2, 73322, Note_on_c, 4, 76, 127
2, 73475, Note_off_c, 4, 76, 127
2, 73478, Note_on_c, 7, 79, 127
2, 73631, Note_off_c, 7, 79, 127
2, 73633, Note_on_c, 12, 83, 127
2, 73786, Note_off_c, 12, 83, 127
2, 73789, Note_on_c, 7, 79, 127
2, 73942, Note_off_c, 7, 79, 127
2, 73942, Note_off_c, 4, 40, 127
2, 73944, Note_on_c, 4, 76, 127
2, 74097, Note_off_c, 4, 76, 127
2, 74100, Note_on_c, 12, 83, 127
2, 74253, Note_off_c, 12, 83, 127
2, 74255, Note_on_c, 4, 52, 127
2, 74255, Note_on_c, 7, 55, 127
2, 74255, Note_on_c, 7, 79, 127
2, 74408, Note_off_c, 7, 79, 127
2, 74411, Note_on_c, 4, 76, 127
2, 74564, Note_off_c, 4, 76, 127
2, 74564, Note_off_c, 7, 55, 127
2, 74564, Note_off_c, 4, 52, 127
2, 74566, Note_on_c, 6, 54, 127
2, 74566, Note_on_c, 10, 57, 127
2, 74566, Note_on_c, 12, 71, 127
2, 74719, Note_off_c, 12, 71, 127
2, 74722, Note_on_c, 0, 72, 127
2, 74875, Note_off_c, 0, 72, 127
2, 74875, Note_off_c, 10, 57, 127
2, 74875, Note_off_c, 6, 54, 127
2, 74878, Note_on_c, 12, 59, 127
2, 74878, Note_on_c, 8, 56, 127
2, 74878, Note_on_c, 2, 74, 127
2, 75031, Note_off_c, 2, 74, 127
2, 75033, Note_on_c, 0, 72, 127
2, 75186, Note_off_c, 0, 72, 127
2, 75189, Note_on_c, 2, 74, 127
2, 75342, Note_off_c, 2, 74, 127
2, 75344, Note_on_c, 5, 77, 127
2, 75493, Note_off_c, 8, 56, 127
2, 75493, Note_off_c, 12, 59, 127
2, 75497, Note_off_c, 5, 77, 127
2, 75500, Note_on_c, 12, 83, 127
2, 75653, Note_off_c, 12, 83, 127
2, 75655, Note_on_c, 5, 77, 127
2, 75808, Note_off_c, 5, 77, 127
2, 75811, Note_on_c, 2, 74, 127
2, 75964, Note_off_c, 2, 74, 127
2, 75966, Note_on_c, 12, 83, 127
2, 76119, Note_off_c, 12, 83, 127
2, 76122, Note_on_c, 8, 56, 127
2, 76122, Note_on_c, 12, 59, 127
2, 76122, Note_on_c, 5, 77, 127
2, 76275, Note_off_c, 5, 77, 127
2, 76277, Note_on_c, 2, 74, 127
2, 76430, Note_off_c, 2, 74, 127
2, 76431, Note_off_c, 12, 59, 127
2, 76431, Note_off_c, 8, 56, 127
2, 76433, Note_on_c, 4, 52, 127
2, 76433, Note_on_c, 8, 56, 127
2, 76433, Note_on_c, 12, 71, 127
2, 76586, Note_off_c, 12, 71, 127
2, 76588, Note_on_c, 2, 74, 127
2, 76741, Note_off_c, 2, 74, 127
2, 76742, Note_off_c, 8, 56, 127
2, 76742, Note_off_c, 4, 52, 127
2, 76744, Note_on_c, 10, 57, 127
2, 76744, Note_on_c, 0, 72, 127
2, 76744, Note_on_c, 10, 69, 127
2, 76897, Note_off_c, 10, 57, 127
2, 76899, Note_on_c, 8, 56, 127
2, 77052, Note_off_c, 8, 56, 127
2, 77055, Note_on_c, 10, 57, 127
2, 77208, Note_off_c, 10, 57, 127
2, 77210, Note_on_c, 0, 60, 127
2, 77363, Note_off_c, 0, 60, 127
2, 77366, Note_on_c, 4, 64, 127
2, 77519, Note_off_c, 4, 64, 127
2, 77521, Note_on_c, 0, 60, 127
2, 77674, Note_off_c, 0, 60, 127
2, 77675, Note_off_c, 10, 69, 127
2, 77675, Note_off_c, 0, 72, 127
2, 77677, Note_on_c, 10, 57, 127
2, 77830, Note_off_c, 10, 57, 127
2, 77832, Note_on_c, 4, 64, 127
2, 77985, Note_off_c, 4, 64, 127
2, 77988, Note_on_c, 0, 60, 127
2, 77988, Note_on_c, 10, 69, 127
2, 77988, Note_on_c, 4, 64, 127
2, 78141, Note_off_c, 0, 60, 127
2, 78143, Note_on_c, 10, 57, 127
2, 78296, Note_off_c, 10, 57, 127
2, 78297, Note_off_c, 4, 64, 127
2, 78297, Note_off_c, 10, 69, 127
2, 78299, Note_on_c, 4, 52, 127
2, 78299, Note_on_c, 8, 68, 127
2, 78299, Note_on_c, 4, 64, 127
2, 78299, Note_on_c, 12, 71, 127
2, 78452, Note_off_c, 4, 52, 127
2, 78454, Note_on_c, 6, 54, 127
2, 78607, Note_off_c, 6, 54, 127
2, 78608, Note_off_c, 12, 71, 127
2, 78608, Note_off_c, 4, 64, 127
2, 78608, Note_off_c, 8, 68, 127
2, 78610, Note_on_c, 7, 55, 127
2, 78610, Note_on_c, 4, 64, 127
2, 78610, Note_on_c, 1, 73, 127
2, 78610, Note_on_c, 10, 69, 127
2, 78763, Note_off_c, 7, 55, 127
2, 78766, Note_on_c, 6, 54, 127
2, 78919, Note_off_c, 6, 54, 127
2, 78921, Note_on_c, 7, 55, 127
2, 79074, Note_off_c, 7, 55, 127
2, 79077, Note_on_c, 11, 58, 127
2, 79225, Note_off_c, 4, 64, 127
2, 79230, Note_off_c, 11, 58, 127
2, 79232, Note_on_c, 4, 64, 127
2, 79388, Note_on_c, 11, 58, 127
2, 79539, Note_off_c, 4, 64, 127
2, 79541, Note_off_c, 11, 58, 127
2, 79541, Note_off_c, 10, 69, 127
2, 79541, Note_off_c, 1, 73, 127
2, 79543, Note_on_c, 7, 55, 127
2, 79696, Note_off_c, 7, 55, 127
2, 79699, Note_on_c, 4, 64, 127
2, 79852, Note_off_c, 4, 64, 127
2, 79854, Note_on_c, 11, 58, 127
2, 79854, Note_on_c, 4, 64, 127
2, 79854, Note_on_c, 1, 73, 127
2, 79854, Note_on_c, 7, 67, 127
2, 79854, Note_on_c, 4, 76, 127
2, 80007, Note_off_c, 11, 58, 127
2, 80010, Note_on_c, 7, 55, 127
2, 80163, Note_off_c, 7, 55, 127
2, 80163, Note_off_c, 4, 76, 127
2, 80163, Note_off_c, 7, 67, 127
2, 80163, Note_off_c, 1, 73, 127
2, 80163, Note_off_c, 4, 64, 127
2, 80165, Note_on_c, 4, 52, 127
2, 80165, Note_on_c, 4, 64, 127
2, 80165, Note_on_c, 10, 69, 127
2, 80165, Note_on_c, 7, 67, 127
2, 80165, Note_on_c, 1, 73, 127
2, 80318, Note_off_c, 4, 52, 127
2, 80321, Note_on_c, 7, 55, 127
2, 80474, Note_off_c, 7, 55, 127
2, 80474, Note_off_c, 1, 73, 127
2, 80474, Note_off_c, 7, 67, 127
2, 80474, Note_off_c, 10, 69, 127
2, 80474, Note_off_c, 4, 64, 127
2, 80476, Note_on_c, 6, 54, 127
2, 80476, Note_on_c, 2, 62, 127
2, 80476, Note_on_c, 10, 57, 127
2, 80476, Note_on_c, 2, 74, 127
2, 80629, Note_off_c, 2, 74, 127
2, 80632, Note_on_c, 1, 73, 127
2, 80785, Note_off_c, 1, 73, 127
2, 80787, Note_on_c, 2, 74, 127
2, 80940, Note_off_c, 2, 74, 127
2, 80943, Note_on_c, 6, 78, 127
2, 81091, Note_off_c, 10, 57, 127
2, 81091, Note_off_c, 2, 62, 127
2, 81091, Note_off_c, 6, 54, 127
2, 81096, Note_off_c, 6, 78, 127
2, 81098, Note_on_c, 10, 81, 127
2, 81251, Note_off_c, 10, 81, 127
2, 81254, Note_on_c, 6, 78, 127
2, 81407, Note_off_c, 6, 78, 127
2, 81409, Note_on_c, 2, 74, 127
2, 81562, Note_off_c, 2, 74, 127
2, 81565, Note_on_c, 10, 81, 127
2, 81718, Note_off_c, 10, 81, 127
2, 81720, Note_on_c, 2, 50, 127
2, 81720, Note_on_c, 6, 54, 127
2, 81720, Note_on_c, 6, 78, 127
2, 81873, Note_off_c, 6, 78, 127
2, 81876, Note_on_c, 2, 74, 127
2, 82029, Note_off_c, 2, 74, 127
2, 82029, Note_off_c, 6, 54, 127
2, 82029, Note_off_c, 2, 50, 127
2, 82031, Note_on_c, 4, 52, 127
2, 82031, Note_on_c, 7, 55, 127
2, 82031, Note_on_c, 10, 69, 127
2, 82184, Note_off_c, 10, 69, 127
2, 82187, Note_on_c, 12, 71, 127
2, 82340, Note_off_c, 12, 71, 127
2, 82340, Note_off_c, 7, 55, 127
2, 82340, Note_off_c, 4, 52, 127
2, 82342, Note_on_c, 10, 57, 127
2, 82342, Note_on_c, 6, 54, 127
2, 82342, Note_on_c, 0, 72, 127
2, 82495, Note_off_c, 0, 72, 127
2, 82498, Note_on_c, 12, 71, 127
2, 82651, Note_off_c, 12, 71, 127
2, 82654, Note_on_c, 0, 72, 127
2, 82807, Note_off_c, 0, 72, 127
2, 82809, Note_on_c, 3, 75, 127
2, 82957, Note_off_c, 6, 54, 127
2, 82957, Note_off_c, 10, 57, 127
2, 82962, Note_off_c, 3, 75, 127
2, 82965, Note_on_c, 10, 81, 127
2, 83118, Note_off_c, 10, 81, 127
2, 83120, Note_on_c, 3, 75, 127
2, 83273, Note_off_c, 3, 75, 127
2, 83276, Note_on_c, 0, 72, 127
2, 83429, Note_off_c, 0, 72, 127
2, 83431, Note_on_c, 10, 81, 127
2, 83584, Note_off_c, 10, 81, 127
2, 83587, Note_on_c, 6, 54, 127
2, 83587, Note_on_c, 10, 57, 127
2, 83587, Note_on_c, 3, 75, 127
2, 83740, Note_off_c, 3, 75, 127
2, 83742, Note_on_c, 0, 72, 127
2, 83895, Note_off_c, 0, 72, 127
2, 83896, Note_off_c, 10, 57, 127
2, 83896, Note_off_c, 6, 54, 127
2, 83898, Note_on_c, 6, 54, 127
2, 83898, Note_on_c, 2, 50, 127
2, 83898, Note_on_c, 10, 69, 127
2, 84051, Note_off_c, 10, 69, 127
2, 84053, Note_on_c, 0, 72, 127
2, 84206, Note_off_c, 0, 72, 127
2, 84207, Note_off_c, 2, 50, 127
2, 84207, Note_off_c, 6, 54, 127
2, 84209, Note_on_c, 7, 55, 127
2, 84209, Note_on_c, 12, 71, 127
2, 84209, Note_on_c, 7, 67, 127
2, 84362, Note_off_c, 7, 55, 127
2, 84364, Note_on_c, 6, 54, 127
2, 84517, Note_off_c, 6, 54, 127
2, 84520, Note_on_c, 7, 55, 127
2, 84673, Note_off_c, 7, 55, 127
2, 84675, Note_on_c, 12, 59, 127
2, 84828, Note_off_c, 12, 59, 127
2, 84831, Note_on_c, 2, 62, 127
2, 84984, Note_off_c, 2, 62, 127
2, 84986, Note_on_c, 12, 59, 127
2, 85139, Note_off_c, 12, 59, 127
2, 85140, Note_off_c, 12, 71, 127
2, 85142, Note_on_c, 7, 55, 127
2, 85295, Note_off_c, 7, 55, 127
2, 85297, Note_on_c, 2, 62, 127
2, 85450, Note_off_c, 2, 62, 127
2, 85451, Note_off_c, 7, 67, 127
2, 85453, Note_on_c, 12, 59, 127
2, 85453, Note_on_c, 7, 67, 127
2, 85453, Note_on_c, 2, 62, 127
2, 85606, Note_off_c, 12, 59, 127
2, 85608, Note_on_c, 7, 55, 127
2, 85761, Note_off_c, 7, 55, 127
2, 85762, Note_off_c, 2, 62, 127
2, 85762, Note_off_c, 7, 67, 127
2, 85764, Note_on_c, 2, 50, 127
2, 85764, Note_on_c, 6, 66, 127
2, 85764, Note_on_c, 10, 69, 127
2, 85764, Note_on_c, 2, 62, 127
2, 85917, Note_off_c, 2, 50, 127
2, 85919, Note_on_c, 4, 52, 127
2, 86072, Note_off_c, 4, 52, 127
2, 86073, Note_off_c, 2, 62, 127
2, 86073, Note_off_c, 10, 69, 127
2, 86073, Note_off_c, 6, 66, 127
2, 86075, Note_on_c, 5, 53, 127
2, 86075, Note_on_c, 7, 67, 127
2, 86075, Note_on_c, 2, 62, 127
2, 86075, Note_on_c, 12, 71, 127
2, 86228, Note_off_c, 5, 53, 127
2, 86230, Note_on_c, 4, 52, 127
2, 86383, Note_off_c, 4, 52, 127
2, 86386, Note_on_c, 5, 53, 127
2, 86539, Note_off_c, 5, 53, 127
2, 86542, Note_on_c, 8, 56, 127
2, 86690, Note_off_c, 2, 62, 127
2, 86695, Note_off_c, 8, 56, 127
2, 86697, Note_on_c, 2, 62, 127
2, 86850, Note_off_c, 2, 62, 127
2, 86853, Note_on_c, 8, 56, 127
2, 87006, Note_off_c, 8, 56, 127
2, 87006, Note_off_c, 7, 67, 127
2, 87008, Note_on_c, 5, 53, 127
2, 87161, Note_off_c, 5, 53, 127
2, 87164, Note_on_c, 2, 62, 127
2, 87317, Note_off_c, 2, 62, 127
2, 87317, Note_off_c, 12, 71, 127
2, 87319, Note_on_c, 8, 56, 127
2, 87319, Note_on_c, 5, 65, 127
2, 87319, Note_on_c, 2, 62, 127
2, 87319, Note_on_c, 2, 74, 127
2, 87319, Note_on_c, 12, 71, 127
2, 87472, Note_off_c, 8, 56, 127
2, 87475, Note_on_c, 5, 53, 127
2, 87628, Note_off_c, 5, 53, 127
2, 87628, Note_off_c, 12, 71, 127
2, 87628, Note_off_c, 2, 74, 127
2, 87628, Note_off_c, 2, 62, 127
2, 87628, Note_off_c, 5, 65, 127
2, 87630, Note_on_c, 2, 50, 127
2, 87630, Note_on_c, 5, 65, 127
2, 87630, Note_on_c, 2, 62, 127
2, 87630, Note_on_c, 12, 71, 127
2, 87630, Note_on_c, 7, 67, 127
2, 87783, Note_off_c, 2, 50, 127
2, 87786, Note_on_c, 5, 53, 127
2, 87939, Note_off_c, 5, 53, 127
2, 87939, Note_off_c, 7, 67, 127
2, 87939, Note_off_c, 12, 71, 127
2, 87939, Note_off_c, 2, 62, 127
2, 87939, Note_off_c, 5, 65, 127
2, 87941, Note_on_c, 4, 52, 127
2, 87941, Note_on_c, 7, 55, 127
2, 87941, Note_on_c, 0, 60, 127
2, 87941, Note_on_c, 0, 72, 127
2, 87941, Note_on_c, 7, 67, 127
2, 88094, Note_off_c, 0, 72, 127
2, 88097, Note_on_c, 4, 76, 127
2, 88248, Note_off_c, 7, 67, 127
2, 88250, Note_off_c, 4, 76, 127
2, 88252, Note_on_c, 7, 67, 127
2, 88405, Note_off_c, 7, 67, 127
2, 88408, Note_on_c, 12, 71, 127
2, 88556, Note_off_c, 0, 60, 127
2, 88561, Note_off_c, 12, 71, 127
2, 88563, Note_on_c, 0, 72, 127
2, 88716, Note_off_c, 0, 72, 127
2, 88718, Note_off_c, 7, 55, 127
2, 88718, Note_off_c, 4, 52, 127
2, 88719, Note_on_c, 4, 76, 127
2, 88872, Note_off_c, 4, 76, 127
2, 88874, Note_on_c, 0, 72, 127
2, 89027, Note_off_c, 0, 72, 127
2, 89030, Note_on_c, 4, 76, 127
2, 89183, Note_off_c, 4, 76, 127
2, 89185, Note_on_c, 7, 55, 127
2, 89185, Note_on_c, 4, 52, 127
2, 89185, Note_on_c, 0, 60, 127
2, 89185, Note_on_c, 7, 67, 127
2, 89338, Note_off_c, 7, 67, 127
2, 89341, Note_on_c, 12, 71, 127
2, 89494, Note_off_c, 12, 71, 127
2, 89494, Note_off_c, 0, 60, 127
2, 89494, Note_off_c, 4, 52, 127
2, 89494, Note_off_c, 7, 55, 127
2, 89496, Note_on_c, 7, 55, 127
2, 89496, Note_on_c, 4, 52, 127
2, 89496, Note_on_c, 0, 60, 127
2, 89496, Note_on_c, 0, 72, 127
2, 89649, Note_off_c, 0, 72, 127
2, 89652, Note_on_c, 4, 76, 127
2, 89805, Note_off_c, 4, 76, 127
2, 89805, Note_off_c, 0, 60, 127
2, 89805, Note_off_c, 4, 52, 127
2, 89805, Note_off_c, 7, 55, 127
2, 89807, Note_on_c, 3, 51, 127
2, 89807, Note_on_c, 10, 57, 127
2, 89807, Note_on_c, 0, 60, 127
2, 89807, Note_on_c, 0, 72, 127
2, 89960, Note_off_c, 0, 72, 127
2, 89963, Note_on_c, 6, 78, 127
2, 90116, Note_off_c, 6, 78, 127
2, 90118, Note_on_c, 10, 69, 127
2, 90271, Note_off_c, 10, 69, 127
2, 90274, Note_on_c, 12, 71, 127
2, 90427, Note_off_c, 12, 71, 127
2, 90430, Note_on_c, 0, 72, 127
2, 90487, Note_off_c, 0, 60, 127
2, 90583, Note_off_c, 0, 72, 127
2, 90585, Note_on_c, 6, 78, 127
2, 90738, Note_off_c, 6, 78, 127
2, 90738, Note_off_c, 10, 57, 127
2, 90738, Note_off_c, 3, 51, 127
2, 90741, Note_on_c, 0, 72, 127
2, 90894, Note_off_c, 0, 72, 127
2, 90896, Note_on_c, 6, 78, 127
2, 91049, Note_off_c, 6, 78, 127
2, 91052, Note_on_c, 3, 51, 127
2, 91052, Note_on_c, 10, 57, 127
2, 91052, Note_on_c, 0, 60, 127
2, 91052, Note_on_c, 10, 69, 127
2, 91205, Note_off_c, 10, 69, 127
2, 91207, Note_on_c, 12, 71, 127
2, 91360, Note_off_c, 12, 71, 127
2, 91361, Note_off_c, 0, 60, 127
2, 91361, Note_off_c, 10, 57, 127
2, 91361, Note_off_c, 3, 51, 127
2, 91363, Note_on_c, 3, 51, 127
2, 91363, Note_on_c, 10, 57, 127
2, 91363, Note_on_c, 0, 60, 127
2, 91363, Note_on_c, 0, 72, 127
2, 91516, Note_off_c, 0, 72, 127
2, 91518, Note_on_c, 6, 78, 127
2, 91671, Note_off_c, 6, 78, 127
2, 91672, Note_off_c, 0, 60, 127
2, 91672, Note_off_c, 10, 57, 127
2, 91672, Note_off_c, 3, 51, 127
2, 91674, Note_on_c, 2, 50, 127
2, 91674, Note_on_c, 12, 59, 127
2, 91674, Note_on_c, 7, 55, 127
2, 91674, Note_on_c, 2, 74, 127
2, 91827, Note_off_c, 2, 74, 127
2, 91829, Note_on_c, 7, 79, 127
2, 91982, Note_off_c, 7, 79, 127
2, 91985, Note_on_c, 12, 71, 127
2, 92138, Note_off_c, 12, 71, 127
2, 92140, Note_on_c, 0, 72, 127
2, 92293, Note_off_c, 0, 72, 127
2, 92296, Note_on_c, 2, 74, 127
2, 92449, Note_off_c, 2, 74, 127
2, 92451, Note_on_c, 7, 79, 127
2, 92604, Note_off_c, 7, 79, 127
2, 92607, Note_on_c, 2, 74, 127
2, 92759, Note_off_c, 7, 55, 127
2, 92759, Note_off_c, 12, 59, 127
2, 92759, Note_off_c, 2, 50, 127
2, 92760, Note_off_c, 2, 74, 127
2, 92762, Note_on_c, 7, 79, 127
2, 92915, Note_off_c, 7, 79, 127
2, 92918, Note_on_c, 7, 55, 127
2, 92918, Note_on_c, 2, 50, 127
2, 92918, Note_on_c, 12, 59, 127
2, 92918, Note_on_c, 12, 71, 127
2, 93071, Note_off_c, 12, 71, 127
2, 93073, Note_on_c, 0, 72, 127
2, 93226, Note_off_c, 0, 72, 127
2, 93227, Note_off_c, 12, 59, 127
2, 93227, Note_off_c, 2, 50, 127
2, 93227, Note_off_c, 7, 55, 127
2, 93229, Note_on_c, 7, 55, 127
2, 93229, Note_on_c, 2, 50, 127
2, 93229, Note_on_c, 12, 59, 127
2, 93229, Note_on_c, 2, 74, 127
2, 93382, Note_off_c, 2, 74, 127
2, 93384, Note_on_c, 7, 79, 127
2, 93537, Note_off_c, 7, 79, 127
2, 93538, Note_off_c, 12, 59, 127
2, 93538, Note_off_c, 2, 50, 127
2, 93538, Note_off_c, 7, 55, 127
2, 93540, Note_on_c, 11, 58, 127
2, 93540, Note_on_c, 7, 55, 127
2, 93540, Note_on_c, 1, 49, 127
2, 93540, Note_on_c, 4, 76, 127
2, 93693, Note_off_c, 4, 76, 127
2, 93695, Note_on_c, 7, 79, 127
2, 93848, Note_off_c, 7, 79, 127
2, 93851, Note_on_c, 1, 73, 127
2, 94004, Note_off_c, 1, 73, 127
2, 94006, Note_on_c, 2, 74, 127
2, 94159, Note_off_c, 2, 74, 127
2, 94162, Note_on_c, 4, 76, 127
2, 94315, Note_off_c, 4, 76, 127
2, 94318, Note_on_c, 7, 79, 127
2, 94471, Note_off_c, 7, 79, 127
2, 94473, Note_on_c, 4, 76, 127
2, 94626, Note_off_c, 4, 76, 127
2, 94629, Note_on_c, 7, 79, 127
2, 94782, Note_off_c, 7, 79, 127
2, 94782, Note_off_c, 1, 49, 127
2, 94782, Note_off_c, 7, 55, 127
2, 94782, Note_off_c, 11, 58, 127
2, 94784, Note_on_c, 1, 49, 127
2, 94784, Note_on_c, 10, 57, 127
2, 94784, Note_on_c, 4, 52, 127
2, 94784, Note_on_c, 1, 73, 127
2, 94937, Note_off_c, 1, 73, 127
2, 94940, Note_on_c, 2, 74, 127
2, 95093, Note_off_c, 2, 74, 127
2, 95093, Note_off_c, 4, 52, 127
2, 95093, Note_off_c, 10, 57, 127
2, 95093, Note_off_c, 1, 49, 127
2, 95095, Note_on_c, 10, 45, 127
2, 95095, Note_on_c, 4, 52, 127
2, 95095, Note_on_c, 1, 49, 127
2, 95095, Note_on_c, 10, 57, 127
2, 95095, Note_on_c, 4, 76, 127
2, 95248, Note_off_c, 4, 76, 127
2, 95251, Note_on_c, 7, 79, 127
2, 95404, Note_off_c, 7, 79, 127
2, 95404, Note_off_c, 10, 57, 127
2, 95404, Note_off_c, 1, 49, 127
2, 95404, Note_off_c, 4, 52, 127
2, 95404, Note_off_c, 10, 45, 127
2, 95406, Note_on_c, 10, 57, 127
2, 95406, Note_on_c, 2, 50, 127
2, 95406, Note_on_c, 6, 78, 127
2, 95406, Note_on_c, 2, 74, 127
2, 95559, Note_off_c, 2, 50, 127
2, 95559, Note_off_c, 10, 57, 127
2, 95562, Note_on_c, 1, 49, 127
2, 95715, Note_off_c, 1, 49, 127
2, 95715, Note_off_c, 2, 74, 127
2, 95715, Note_off_c, 6, 78, 127
2, 95717, Note_on_c, 2, 50, 127
2, 95717, Note_on_c, 10, 69, 127
2, 95717, Note_on_c, 6, 66, 127
2, 95717, Note_on_c, 2, 74, 127
2, 95870, Note_off_c, 2, 50, 127
2, 95873, Note_on_c, 4, 52, 127
2, 96026, Note_off_c, 4, 52, 127
2, 96028, Note_on_c, 2, 50, 127
2, 96181, Note_off_c, 2, 50, 127
2, 96181, Note_off_c, 2, 74, 127
2, 96181, Note_off_c, 6, 66, 127
2, 96181, Note_off_c, 10, 69, 127
2, 96184, Note_on_c, 0, 48, 127
2, 96184, Note_on_c, 6, 66, 127
2, 96184, Note_on_c, 10, 69, 127
2, 96184, Note_on_c, 2, 74, 127
2, 96337, Note_off_c, 2, 74, 127
2, 96337, Note_off_c, 10, 69, 127
2, 96337, Note_off_c, 6, 66, 127
2, 96337, Note_off_c, 0, 48, 127
2, 96339, Note_on_c, 12, 47, 127
2, 96339, Note_on_c, 2, 62, 127
2, 96339, Note_on_c, 7, 67, 127
2, 96492, Note_off_c, 12, 47, 127
2, 96495, Note_on_c, 10, 45, 127
2, 96648, Note_off_c, 10, 45, 127
2, 96648, Note_off_c, 7, 67, 127
2, 96648, Note_off_c, 2, 62, 127
2, 96650, Note_on_c, 12, 47, 127
2, 96650, Note_on_c, 0, 72, 127
2, 96650, Note_on_c, 7, 67, 127
2, 96650, Note_on_c, 4, 76, 127
2, 96803, Note_off_c, 4, 76, 127
2, 96803, Note_off_c, 0, 72, 127
2, 96803, Note_off_c, 12, 47, 127
2, 96806, Note_on_c, 2, 50, 127
2, 96806, Note_on_c, 2, 74, 127
2, 96959, Note_off_c, 2, 74, 127
2, 96959, Note_off_c, 2, 50, 127
2, 96961, Note_on_c, 0, 48, 127
2, 96961, Note_on_c, 4, 76, 127
2, 97114, Note_off_c, 4, 76, 127
2, 97114, Note_off_c, 0, 48, 127
2, 97117, Note_on_c, 12, 47, 127
2, 97117, Note_on_c, 0, 72, 127
2, 97265, Note_off_c, 7, 67, 127
2, 97270, Note_off_c, 0, 72, 127
2, 97270, Note_off_c, 12, 47, 127
2, 97272, Note_on_c, 10, 45, 127
2, 97272, Note_on_c, 6, 66, 127
2, 97425, Note_off_c, 10, 45, 127
2, 97428, Note_on_c, 7, 43, 127
2, 97581, Note_off_c, 7, 43, 127
2, 97581, Note_off_c, 6, 66, 127
2, 97583, Note_on_c, 10, 45, 127
2, 97583, Note_on_c, 6, 66, 127
2, 97583, Note_on_c, 0, 60, 127
2, 97583, Note_on_c, 10, 69, 127
2, 97736, Note_off_c, 10, 45, 127
2, 97739, Note_on_c, 12, 47, 127
2, 97892, Note_off_c, 12, 47, 127
2, 97894, Note_on_c, 10, 45, 127
2, 98047, Note_off_c, 10, 45, 127
2, 98047, Note_off_c, 10, 69, 127
2, 98047, Note_off_c, 0, 60, 127
2, 98047, Note_off_c, 6, 66, 127
2, 98050, Note_on_c, 7, 43, 127
2, 98050, Note_on_c, 6, 66, 127
2, 98050, Note_on_c, 0, 60, 127
2, 98050, Note_on_c, 10, 69, 127
2, 98203, Note_off_c, 10, 69, 127
2, 98203, Note_off_c, 0, 60, 127
2, 98203, Note_off_c, 6, 66, 127
2, 98203, Note_off_c, 7, 43, 127
2, 98206, Note_on_c, 6, 42, 127
2, 98206, Note_on_c, 0, 60, 127
2, 98206, Note_on_c, 2, 62, 127
2, 98359, Note_off_c, 6, 42, 127
2, 98361, Note_on_c, 4, 40, 127
2, 98514, Note_off_c, 4, 40, 127
2, 98515, Note_off_c, 0, 60, 127
2, 98517, Note_on_c, 6, 42, 127
2, 98517, Note_on_c, 2, 74, 127
2, 98670, Note_off_c, 2, 74, 127
2, 98670, Note_off_c, 6, 42, 127
2, 98672, Note_on_c, 7, 43, 127
2, 98672, Note_on_c, 0, 72, 127
2, 98825, Note_off_c, 0, 72, 127
2, 98825, Note_off_c, 7, 43, 127
2, 98828, Note_on_c, 4, 40, 127
2, 98828, Note_on_c, 2, 74, 127
2, 98981, Note_off_c, 2, 74, 127
2, 98981, Note_off_c, 4, 40, 127
2, 98983, Note_on_c, 6, 42, 127
2, 98983, Note_on_c, 10, 69, 127
2, 99136, Note_off_c, 10, 69, 127
2, 99136, Note_off_c, 6, 42, 127
2, 99137, Note_off_c, 2, 62, 127
2, 99139, Note_on_c, 7, 43, 127
2, 99139, Note_on_c, 12, 71, 127
2, 99292, Note_off_c, 12, 71, 127
2, 99294, Note_on_c, 10, 69, 127
2, 99447, Note_off_c, 10, 69, 127
2, 99448, Note_off_c, 7, 43, 127
2, 99450, Note_on_c, 7, 55, 127
2, 99450, Note_on_c, 7, 67, 127
2, 99603, Note_off_c, 7, 67, 127
2, 99605, Note_on_c, 10, 69, 127
2, 99758, Note_off_c, 10, 69, 127
2, 99761, Note_on_c, 12, 71, 127
2, 99914, Note_off_c, 12, 71, 127
2, 99914, Note_off_c, 7, 55, 127
2, 99916, Note_on_c, 7, 55, 127
2, 99916, Note_on_c, 1, 73, 127
2, 100069, Note_off_c, 1, 73, 127
2, 100069, Note_off_c, 7, 55, 127
2, 100072, Note_on_c, 2, 50, 127
2, 100072, Note_on_c, 2, 74, 127
2, 100225, Note_off_c, 2, 74, 127
2, 100227, Note_on_c, 4, 76, 127
2, 100380, Note_off_c, 4, 76, 127
2, 100381, Note_off_c, 2, 50, 127
2, 100383, Note_on_c, 12, 59, 127
2, 100383, Note_on_c, 6, 78, 127
2, 100536, Note_off_c, 6, 78, 127
2, 100536, Note_off_c, 12, 59, 127
2, 100538, Note_on_c, 10, 57, 127
2, 100538, Note_on_c, 10, 81, 127
2, 100691, Note_off_c, 10, 81, 127
2, 100691, Note_off_c, 10, 57, 127
2, 100694, Note_on_c, 12, 59, 127
2, 100694, Note_on_c, 7, 79, 127
2, 100847, Note_off_c, 7, 79, 127
2, 100847, Note_off_c, 12, 59, 127
2, 100849, Note_on_c, 7, 55, 127
2, 100849, Note_on_c, 6, 78, 127
2, 101002, Note_off_c, 6, 78, 127
2, 101002, Note_off_c, 7, 55, 127
2, 101005, Note_on_c, 1, 49, 127
2, 101005, Note_on_c, 4, 76, 127
2, 101158, Note_off_c, 4, 76, 127
2, 101160, Note_on_c, 2, 74, 127
2, 101313, Note_off_c, 2, 74, 127
2, 101314, Note_off_c, 1, 49, 127
2, 101316, Note_on_c, 4, 52, 127
2, 101316, Note_on_c, 1, 73, 127
2, 101469, Note_off_c, 1, 73, 127
2, 101471, Note_on_c, 12, 71, 127
2, 101624, Note_off_c, 12, 71, 127
2, 101627, Note_on_c, 10, 69, 127
2, 101780, Note_off_c, 10, 69, 127
2, 101780, Note_off_c, 4, 52, 127
2, 101782, Note_on_c, 4, 52, 127
2, 101782, Note_on_c, 12, 71, 127
2, 101935, Note_off_c, 12, 71, 127
2, 101935, Note_off_c, 4, 52, 127
2, 101938, Note_on_c, 10, 45, 127
2, 101938, Note_on_c, 1, 73, 127
2, 102091, Note_off_c, 1, 73, 127
2, 102094, Note_on_c, 2, 74, 127
2, 102247, Note_off_c, 2, 74, 127
2, 102247, Note_off_c, 10, 45, 127
2, 102249, Note_on_c, 10, 57, 127
2, 102249, Note_on_c, 4, 76, 127
2, 102402, Note_off_c, 4, 76, 127
2, 102402, Note_off_c, 10, 57, 127
2, 102405, Note_on_c, 7, 55, 127
2, 102405, Note_on_c, 7, 79, 127
2, 102558, Note_off_c, 7, 79, 127
2, 102558, Note_off_c, 7, 55, 127
2, 102560, Note_on_c, 10, 57, 127
2, 102560, Note_on_c, 6, 78, 127
2, 102713, Note_off_c, 6, 78, 127
2, 102713, Note_off_c, 10, 57, 127
2, 102716, Note_on_c, 4, 52, 127
2, 102716, Note_on_c, 4, 76, 127
2, 102869, Note_off_c, 4, 76, 127
2, 102869, Note_off_c, 4, 52, 127
2, 102871, Note_on_c, 6, 54, 127
2, 102871, Note_on_c, 10, 81, 127
2, 103024, Note_off_c, 10, 81, 127
2, 103027, Note_on_c, 6, 78, 127
2, 103178, Note_off_c, 6, 54, 127
2, 103180, Note_off_c, 6, 78, 127
2, 103182, Note_on_c, 2, 74, 127
2, 103335, Note_off_c, 2, 74, 127
2, 103338, Note_on_c, 2, 50, 127
2, 103338, Note_on_c, 10, 69, 127
2, 103491, Note_off_c, 10, 69, 127
2, 103491, Note_off_c, 2, 50, 127
2, 103493, Note_on_c, 4, 52, 127
2, 103493, Note_on_c, 0, 72, 127
2, 103646, Note_off_c, 4, 52, 127
2, 103649, Note_on_c, 6, 54, 127
2, 103802, Note_off_c, 6, 54, 127
2, 103804, Note_on_c, 7, 55, 127
2, 103881, Note_off_c, 0, 72, 127
2, 103957, Note_off_c, 7, 55, 127
2, 103960, Note_on_c, 6, 54, 127
2, 103960, Note_on_c, 4, 76, 127
2, 104113, Note_off_c, 4, 76, 127
2, 104113, Note_off_c, 6, 54, 127
2, 104115, Note_on_c, 7, 55, 127
2, 104115, Note_on_c, 2, 74, 127
2, 104268, Note_off_c, 2, 74, 127
2, 104268, Note_off_c, 7, 55, 127
2, 104271, Note_on_c, 10, 57, 127
2, 104271, Note_on_c, 0, 72, 127
2, 104424, Note_off_c, 0, 72, 127
2, 104424, Note_off_c, 10, 57, 127
2, 104426, Note_on_c, 12, 59, 127
2, 104426, Note_on_c, 12, 71, 127
2, 104579, Note_off_c, 12, 71, 127
2, 104579, Note_off_c, 12, 59, 127
2, 104582, Note_on_c, 0, 60, 127
2, 104582, Note_on_c, 10, 69, 127
2, 104735, Note_off_c, 10, 69, 127
2, 104735, Note_off_c, 0, 60, 127
2, 104737, Note_on_c, 2, 62, 127
2, 104737, Note_on_c, 12, 71, 127
2, 104890, Note_off_c, 2, 62, 127
2, 104893, Note_on_c, 12, 59, 127
2, 105044, Note_off_c, 12, 71, 127
2, 105046, Note_off_c, 12, 59, 127
2, 105048, Note_on_c, 7, 55, 127
2, 105201, Note_off_c, 7, 55, 127
2, 105204, Note_on_c, 2, 50, 127
2, 105204, Note_on_c, 7, 67, 127
2, 105357, Note_off_c, 7, 67, 127
2, 105357, Note_off_c, 2, 50, 127
2, 105359, Note_on_c, 5, 53, 127
2, 105359, Note_on_c, 10, 69, 127
2, 105512, Note_off_c, 10, 69, 127
2, 105515, Note_on_c, 12, 71, 127
2, 105668, Note_off_c, 12, 71, 127
2, 105670, Note_on_c, 0, 72, 127
2, 105780, Note_off_c, 5, 53, 127
2, 105823, Note_off_c, 0, 72, 127
2, 105826, Note_on_c, 10, 57, 127
2, 105826, Note_on_c, 12, 71, 127
2, 105979, Note_off_c, 12, 71, 127
2, 105979, Note_off_c, 10, 57, 127
2, 105982, Note_on_c, 7, 55, 127
2, 105982, Note_on_c, 0, 72, 127
2, 106135, Note_off_c, 0, 72, 127
2, 106135, Note_off_c, 7, 55, 127
2, 106137, Note_on_c, 5, 53, 127
2, 106137, Note_on_c, 2, 74, 127
2, 106290, Note_off_c, 2, 74, 127
2, 106290, Note_off_c, 5, 53, 127
2, 106293, Note_on_c, 4, 52, 127
2, 106293, Note_on_c, 4, 76, 127
2, 106446, Note_off_c, 4, 76, 127
2, 106446, Note_off_c, 4, 52, 127
2, 106448, Note_on_c, 2, 50, 127
2, 106448, Note_on_c, 5, 77, 127
2, 106601, Note_off_c, 5, 77, 127
2, 106601, Note_off_c, 2, 50, 127
2, 106604, Note_on_c, 4, 52, 127
2, 106604, Note_on_c, 7, 79, 127
2, 106757, Note_off_c, 7, 79, 127
2, 106759, Note_on_c, 4, 76, 127
2, 106912, Note_off_c, 4, 76, 127
2, 106915, Note_on_c, 0, 72, 127
2, 107067, Note_off_c, 4, 52, 127
2, 107068, Note_off_c, 0, 72, 127
2, 107070, Note_on_c, 5, 53, 127
2, 107070, Note_on_c, 7, 67, 127
2, 107223, Note_off_c, 7, 67, 127
2, 107223, Note_off_c, 5, 53, 127
2, 107226, Note_on_c, 4, 52, 127
2, 107226, Note_on_c, 11, 70, 127
2, 107379, Note_off_c, 4, 52, 127
2, 107381, Note_on_c, 2, 50, 127
2, 107534, Note_off_c, 2, 50, 127
2, 107537, Note_on_c, 1, 49, 127
2, 107655, Note_off_c, 11, 70, 127
2, 107690, Note_off_c, 1, 49, 127
2, 107692, Note_on_c, 2, 50, 127
2, 107692, Note_on_c, 10, 69, 127
2, 107845, Note_off_c, 10, 69, 127
2, 107845, Note_off_c, 2, 50, 127
2, 107848, Note_on_c, 4, 52, 127
2, 107848, Note_on_c, 7, 67, 127
2, 108001, Note_off_c, 7, 67, 127
2, 108001, Note_off_c, 4, 52, 127
2, 108003, Note_on_c, 6, 54, 127
2, 108003, Note_on_c, 11, 70, 127
2, 108156, Note_off_c, 11, 70, 127
2, 108156, Note_off_c, 6, 54, 127
2, 108159, Note_on_c, 7, 55, 127
2, 108159, Note_on_c, 10, 69, 127
2, 108312, Note_off_c, 10, 69, 127
2, 108312, Note_off_c, 7, 55, 127
2, 108314, Note_on_c, 10, 57, 127
2, 108314, Note_on_c, 7, 67, 127
2, 108467, Note_off_c, 7, 67, 127
2, 108467, Note_off_c, 10, 57, 127
2, 108470, Note_on_c, 2, 50, 127
2, 108470, Note_on_c, 6, 66, 127
2, 108623, Note_off_c, 6, 66, 127
2, 108623, Note_off_c, 2, 50, 127
2, 108625, Note_on_c, 10, 57, 127
2, 108625, Note_on_c, 4, 64, 127
2, 108778, Note_off_c, 4, 64, 127
2, 108778, Note_off_c, 10, 57, 127
2, 108781, Note_on_c, 6, 54, 127
2, 108781, Note_on_c, 2, 62, 127
2, 108934, Note_off_c, 2, 62, 127
2, 108934, Note_off_c, 6, 54, 127
2, 108936, Note_on_c, 2, 50, 127
2, 108936, Note_on_c, 4, 64, 127
2, 109089, Note_off_c, 4, 64, 127
2, 109089, Note_off_c, 2, 50, 127
2, 109092, Note_on_c, 0, 60, 127
2, 109092, Note_on_c, 6, 66, 127
2, 109245, Note_off_c, 6, 66, 127
2, 109247, Note_on_c, 7, 67, 127
2, 109400, Note_off_c, 7, 67, 127
2, 109403, Note_on_c, 10, 69, 127
2, 109556, Note_off_c, 10, 69, 127
2, 109556, Note_off_c, 0, 60, 127
2, 109558, Note_on_c, 4, 64, 127
2, 109558, Note_on_c, 12, 71, 127
2, 109711, Note_off_c, 12, 71, 127
2, 109711, Note_off_c, 4, 64, 127
2, 109714, Note_on_c, 2, 62, 127
2, 109714, Note_on_c, 0, 72, 127
2, 109867, Note_off_c, 0, 72, 127
2, 109867, Note_off_c, 2, 62, 127
2, 109870, Note_on_c, 0, 60, 127
2, 109870, Note_on_c, 2, 74, 127
2, 110023, Note_off_c, 2, 74, 127
2, 110023, Note_off_c, 0, 60, 127
2, 110025, Note_on_c, 12, 59, 127
2, 110025, Note_on_c, 4, 76, 127
2, 110178, Note_off_c, 4, 76, 127
2, 110178, Note_off_c, 12, 59, 127
2, 110181, Note_on_c, 10, 57, 127
2, 110181, Note_on_c, 6, 78, 127
2, 110334, Note_off_c, 6, 78, 127
2, 110334, Note_off_c, 10, 57, 127
2, 110336, Note_on_c, 12, 59, 127
2, 110336, Note_on_c, 7, 79, 127
2, 110489, Note_off_c, 12, 59, 127
2, 110492, Note_on_c, 2, 62, 127
2, 110645, Note_off_c, 2, 62, 127
2, 110647, Note_on_c, 7, 67, 127
2, 110647, Note_on_c, 12, 71, 127
2, 110800, Note_off_c, 7, 67, 127
2, 110803, Note_on_c, 2, 62, 127
2, 110951, Note_off_c, 7, 79, 127
2, 110956, Note_off_c, 2, 62, 127
2, 110958, Note_on_c, 0, 60, 127
2, 110958, Note_on_c, 7, 79, 127
2, 111111, Note_off_c, 0, 60, 127
2, 111114, Note_on_c, 12, 59, 127
2, 111262, Note_off_c, 12, 71, 127
2, 111267, Note_off_c, 12, 59, 127
2, 111267, Note_off_c, 7, 79, 127
2, 111269, Note_on_c, 0, 60, 127
2, 111269, Note_on_c, 7, 79, 127
2, 111422, Note_off_c, 0, 60, 127
2, 111425, Note_on_c, 4, 64, 127
2, 111578, Note_off_c, 4, 64, 127
2, 111580, Note_on_c, 10, 69, 127
2, 111580, Note_on_c, 0, 72, 127
2, 111733, Note_off_c, 10, 69, 127
2, 111736, Note_on_c, 4, 64, 127
2, 111884, Note_off_c, 7, 79, 127
2, 111889, Note_off_c, 4, 64, 127
2, 111891, Note_on_c, 2, 62, 127
2, 111891, Note_on_c, 7, 79, 127
2, 112033, Note_off_c, 0, 72, 127
2, 112044, Note_off_c, 2, 62, 127
2, 112047, Note_on_c, 0, 60, 127
2, 112200, Note_off_c, 0, 60, 127
2, 112200, Note_off_c, 7, 79, 127
2, 112202, Note_on_c, 2, 62, 127
2, 112202, Note_on_c, 7, 79, 127
2, 112355, Note_off_c, 2, 62, 127
2, 112358, Note_on_c, 5, 65, 127
2, 112511, Note_off_c, 5, 65, 127
2, 112513, Note_on_c, 12, 71, 127
2, 112513, Note_on_c, 2, 74, 127
2, 112666, Note_off_c, 12, 71, 127
2, 112669, Note_on_c, 5, 65, 127
2, 112817, Note_off_c, 7, 79, 127
2, 112822, Note_off_c, 5, 65, 127
2, 112824, Note_on_c, 4, 64, 127
2, 112824, Note_on_c, 7, 79, 127
2, 112966, Note_off_c, 2, 74, 127
2, 112977, Note_off_c, 4, 64, 127
2, 112980, Note_on_c, 2, 62, 127
2, 113133, Note_off_c, 2, 62, 127
2, 113133, Note_off_c, 7, 79, 127
2, 113135, Note_on_c, 4, 64, 127
2, 113135, Note_on_c, 7, 79, 127
2, 113288, Note_off_c, 4, 64, 127
2, 113291, Note_on_c, 7, 67, 127
2, 113444, Note_off_c, 7, 67, 127
2, 113446, Note_on_c, 0, 72, 127
2, 113446, Note_on_c, 4, 76, 127
2, 113588, Note_off_c, 7, 79, 127
2, 113599, Note_off_c, 0, 72, 127
2, 113602, Note_on_c, 12, 71, 127
2, 113755, Note_off_c, 12, 71, 127
2, 113755, Note_off_c, 4, 76, 127
2, 113758, Note_on_c, 10, 69, 127
2, 113758, Note_on_c, 7, 79, 127
2, 113911, Note_off_c, 10, 69, 127
2, 113913, Note_on_c, 7, 67, 127
2, 114066, Note_off_c, 7, 67, 127
2, 114067, Note_off_c, 7, 79, 127
2, 114069, Note_on_c, 6, 66, 127
2, 114069, Note_on_c, 10, 81, 127
2, 114222, Note_off_c, 6, 66, 127
2, 114224, Note_on_c, 10, 69, 127
2, 114224, Note_on_c, 0, 84, 127
2, 114376, Note_off_c, 10, 81, 127
2, 114377, Note_off_c, 0, 84, 127
2, 114377, Note_off_c, 10, 69, 127
2, 114380, Note_on_c, 0, 72, 127
2, 114380, Note_on_c, 10, 81, 127
2, 114533, Note_off_c, 10, 81, 127
2, 114533, Note_off_c, 0, 72, 127
2, 114535, Note_on_c, 4, 76, 127
2, 114535, Note_on_c, 7, 79, 127
2, 114688, Note_off_c, 7, 79, 127
2, 114688, Note_off_c, 4, 76, 127
2, 114691, Note_on_c, 2, 74, 127
2, 114691, Note_on_c, 6, 78, 127
2, 114844, Note_off_c, 6, 78, 127
2, 114844, Note_off_c, 2, 74, 127
2, 114846, Note_on_c, 0, 72, 127
2, 114846, Note_on_c, 4, 76, 127
2, 114999, Note_off_c, 4, 76, 127
2, 114999, Note_off_c, 0, 72, 127
2, 115002, Note_on_c, 12, 71, 127
2, 115002, Note_on_c, 2, 74, 127
2, 115155, Note_off_c, 12, 71, 127
2, 115157, Note_on_c, 0, 72, 127
2, 115310, Note_off_c, 0, 72, 127
2, 115313, Note_on_c, 12, 71, 127
2, 115313, Note_on_c, 7, 79, 127
2, 115466, Note_off_c, 12, 71, 127
2, 115468, Note_on_c, 10, 69, 127
2, 115621, Note_off_c, 10, 69, 127
2, 115622, Note_off_c, 7, 79, 127
2, 115624, Note_on_c, 7, 67, 127
2, 115624, Note_on_c, 12, 83, 127
2, 115777, Note_off_c, 7, 67, 127
2, 115779, Note_on_c, 6, 66, 127
2, 115932, Note_off_c, 6, 66, 127
2, 115933, Note_off_c, 12, 83, 127
2, 115933, Note_off_c, 2, 74, 127
2, 115935, Note_on_c, 4, 64, 127
2, 115935, Note_on_c, 0, 72, 127
2, 116088, Note_off_c, 4, 64, 127
2, 116090, Note_on_c, 7, 67, 127
2, 116243, Note_off_c, 7, 67, 127
2, 116244, Note_off_c, 0, 72, 127
2, 116246, Note_on_c, 12, 71, 127
2, 116246, Note_on_c, 7, 79, 127
2, 116399, Note_off_c, 12, 71, 127
2, 116401, Note_on_c, 2, 74, 127
2, 116554, Note_off_c, 2, 74, 127
2, 116555, Note_off_c, 7, 79, 127
2, 116557, Note_on_c, 0, 72, 127
2, 116557, Note_on_c, 12, 83, 127
2, 116710, Note_off_c, 0, 72, 127
2, 116712, Note_on_c, 12, 71, 127
2, 116865, Note_off_c, 12, 71, 127
2, 116866, Note_off_c, 12, 83, 127
2, 116868, Note_on_c, 10, 69, 127
2, 116868, Note_on_c, 0, 72, 127
2, 117021, Note_off_c, 10, 69, 127
2, 117023, Note_on_c, 12, 71, 127
2, 117176, Note_off_c, 12, 71, 127
2, 117179, Note_on_c, 10, 69, 127
2, 117179, Note_on_c, 6, 78, 127
2, 117332, Note_off_c, 10, 69, 127
2, 117334, Note_on_c, 7, 67, 127
2, 117483, Note_off_c, 0, 72, 127
2, 117487, Note_off_c, 7, 67, 127
2, 117488, Note_off_c, 6, 78, 127
2, 117490, Note_on_c, 6, 66, 127
2, 117490, Note_on_c, 10, 81, 127
2, 117643, Note_off_c, 6, 66, 127
2, 117646, Note_on_c, 4, 64, 127
2, 117799, Note_off_c, 4, 64, 127
2, 117799, Note_off_c, 10, 81, 127
2, 117801, Note_on_c, 2, 62, 127
2, 117801, Note_on_c, 12, 71, 127
2, 117954, Note_off_c, 2, 62, 127
2, 117957, Note_on_c, 6, 66, 127
2, 118110, Note_off_c, 6, 66, 127
2, 118110, Note_off_c, 12, 71, 127
2, 118112, Note_on_c, 10, 69, 127
2, 118112, Note_on_c, 6, 78, 127
2, 118265, Note_off_c, 10, 69, 127
2, 118268, Note_on_c, 0, 72, 127
2, 118421, Note_off_c, 0, 72, 127
2, 118421, Note_off_c, 6, 78, 127
2, 118423, Note_on_c, 12, 71, 127
2, 118423, Note_on_c, 10, 81, 127
2, 118576, Note_off_c, 12, 71, 127
2, 118579, Note_on_c, 10, 69, 127
2, 118732, Note_off_c, 10, 69, 127
2, 118732, Note_off_c, 10, 81, 127
2, 118734, Note_on_c, 7, 67, 127
2, 118734, Note_on_c, 12, 71, 127
2, 118887, Note_off_c, 7, 67, 127
2, 118890, Note_on_c, 10, 69, 127
2, 119043, Note_off_c, 10, 69, 127
2, 119045, Note_on_c, 7, 67, 127
2, 119045, Note_on_c, 4, 76, 127
2, 119198, Note_off_c, 7, 67, 127
2, 119201, Note_on_c, 6, 66, 127
2, 119349, Note_off_c, 12, 71, 127
2, 119354, Note_off_c, 6, 66, 127
2, 119354, Note_off_c, 4, 76, 127
2, 119356, Note_on_c, 4, 64, 127
2, 119356, Note_on_c, 7, 79, 127
2, 119509, Note_off_c, 4, 64, 127
2, 119512, Note_on_c, 2, 62, 127
2, 119665, Note_off_c, 2, 62, 127
2, 119665, Note_off_c, 7, 79, 127
2, 119667, Note_on_c, 0, 60, 127
2, 119667, Note_on_c, 10, 69, 127
2, 119820, Note_off_c, 0, 60, 127
2, 119823, Note_on_c, 4, 64, 127
2, 119976, Note_off_c, 4, 64, 127
2, 119976, Note_off_c, 10, 69, 127
2, 119978, Note_on_c, 7, 67, 127
2, 119978, Note_on_c, 4, 76, 127
2, 120131, Note_off_c, 7, 67, 127
2, 120134, Note_on_c, 12, 71, 127
2, 120287, Note_off_c, 12, 71, 127
2, 120287, Note_off_c, 4, 76, 127
2, 120289, Note_on_c, 10, 69, 127
2, 120289, Note_on_c, 7, 79, 127
2, 120442, Note_off_c, 10, 69, 127
2, 120445, Note_on_c, 7, 67, 127
2, 120598, Note_off_c, 7, 67, 127
2, 120598, Note_off_c, 7, 79, 127
2, 120600, Note_on_c, 6, 66, 127
2, 120600, Note_on_c, 10, 69, 127
2, 120753, Note_off_c, 6, 66, 127
2, 120756, Note_on_c, 7, 67, 127
2, 120909, Note_off_c, 7, 67, 127
2, 120911, Note_on_c, 6, 66, 127
2, 120911, Note_on_c, 2, 74, 127
2, 121064, Note_off_c, 6, 66, 127
2, 121067, Note_on_c, 4, 64, 127
2, 121215, Note_off_c, 10, 69, 127
2, 121220, Note_off_c, 4, 64, 127
2, 121220, Note_off_c, 2, 74, 127
2, 121222, Note_on_c, 2, 62, 127
2, 121222, Note_on_c, 6, 78, 127
2, 121375, Note_off_c, 2, 62, 127
2, 121378, Note_on_c, 0, 60, 127
2, 121531, Note_off_c, 0, 60, 127
2, 121531, Note_off_c, 6, 78, 127
2, 121534, Note_on_c, 12, 59, 127
2, 121534, Note_on_c, 7, 79, 127
2, 121687, Note_off_c, 12, 59, 127
2, 121689, Note_on_c, 0, 60, 127
2, 121689, Note_on_c, 12, 71, 127
2, 121842, Note_off_c, 12, 71, 127
2, 121842, Note_off_c, 0, 60, 127
2, 121845, Note_on_c, 2, 62, 127
2, 121845, Note_on_c, 10, 69, 127
2, 121998, Note_off_c, 7, 79, 127
2, 122000, Note_on_c, 6, 78, 127
2, 122153, Note_off_c, 6, 78, 127
2, 122156, Note_on_c, 7, 79, 127
2, 122298, Note_off_c, 10, 69, 127
2, 122309, Note_off_c, 7, 79, 127
2, 122309, Note_off_c, 2, 62, 127
2, 122311, Note_on_c, 2, 62, 127
2, 122311, Note_on_c, 10, 81, 127
2, 122464, Note_off_c, 10, 81, 127
2, 122464, Note_off_c, 2, 62, 127
2, 122467, Note_on_c, 7, 55, 127
2, 122467, Note_on_c, 12, 83, 127
2, 122622, Note_on_c, 10, 81, 127
2, 122775, Note_off_c, 10, 81, 127
2, 122776, Note_off_c, 7, 55, 127
2, 122778, Note_on_c, 4, 64, 127
2, 122778, Note_on_c, 7, 79, 127
2, 122931, Note_off_c, 7, 79, 127
2, 122931, Note_off_c, 4, 64, 127
2, 122933, Note_on_c, 2, 62, 127
2, 122933, Note_on_c, 6, 78, 127
2, 123086, Note_off_c, 6, 78, 127
2, 123086, Note_off_c, 2, 62, 127
2, 123089, Note_on_c, 4, 64, 127
2, 123089, Note_on_c, 7, 79, 127
2, 123242, Note_off_c, 7, 79, 127
2, 123242, Note_off_c, 4, 64, 127
2, 123244, Note_on_c, 0, 60, 127
2, 123244, Note_on_c, 4, 76, 127
2, 123397, Note_off_c, 0, 60, 127
2, 123398, Note_off_c, 12, 83, 127
2, 123400, Note_on_c, 6, 54, 127
2, 123400, Note_on_c, 10, 81, 127
2, 123553, Note_off_c, 10, 81, 127
2, 123555, Note_on_c, 7, 79, 127
2, 123708, Note_off_c, 7, 79, 127
2, 123709, Note_off_c, 6, 54, 127
2, 123711, Note_on_c, 12, 59, 127
2, 123711, Note_on_c, 6, 78, 127
2, 123787, Note_off_c, 12, 59, 127
2, 123789, Note_on_c, 10, 57, 127
2, 123864, Note_off_c, 4, 76, 127
2, 123865, Note_off_c, 10, 57, 127
2, 123866, Note_on_c, 12, 59, 127
2, 123866, Note_on_c, 4, 76, 127
2, 124019, Note_off_c, 4, 76, 127
2, 124022, Note_on_c, 2, 74, 127
2, 124175, Note_off_c, 12, 59, 127
2, 124175, Note_off_c, 6, 78, 127
2, 124177, Note_on_c, 12, 59, 127
2, 124177, Note_on_c, 6, 78, 127
2, 124330, Note_off_c, 6, 78, 127
2, 124330, Note_off_c, 12, 59, 127
2, 124333, Note_on_c, 4, 52, 127
2, 124333, Note_on_c, 7, 79, 127
2, 124486, Note_off_c, 2, 74, 127
2, 124488, Note_on_c, 6, 78, 127
2, 124641, Note_off_c, 6, 78, 127
2, 124642, Note_off_c, 4, 52, 127
2, 124644, Note_on_c, 0, 60, 127
2, 124644, Note_on_c, 4, 76, 127
2, 124797, Note_off_c, 4, 76, 127
2, 124797, Note_off_c, 0, 60, 127
2, 124799, Note_on_c, 12, 59, 127
2, 124799, Note_on_c, 2, 74, 127
2, 124952, Note_off_c, 2, 74, 127
2, 124952, Note_off_c, 12, 59, 127
2, 124955, Note_on_c, 0, 60, 127
2, 124955, Note_on_c, 4, 76, 127
2, 125108, Note_off_c, 4, 76, 127
2, 125108, Note_off_c, 0, 60, 127
2, 125110, Note_on_c, 10, 57, 127
2, 125110, Note_on_c, 0, 72, 127
2, 125263, Note_off_c, 10, 57, 127
2, 125264, Note_off_c, 7, 79, 127
2, 125266, Note_on_c, 2, 50, 127
2, 125266, Note_on_c, 6, 78, 127
2, 125419, Note_off_c, 6, 78, 127
2, 125422, Note_on_c, 4, 76, 127
2, 125575, Note_off_c, 4, 76, 127
2, 125575, Note_off_c, 2, 50, 127
2, 125577, Note_on_c, 7, 55, 127
2, 125577, Note_on_c, 2, 74, 127
2, 125653, Note_off_c, 7, 55, 127
2, 125655, Note_on_c, 6, 54, 127
2, 125730, Note_off_c, 0, 72, 127
2, 125731, Note_off_c, 6, 54, 127
2, 125733, Note_on_c, 7, 55, 127
2, 125733, Note_on_c, 0, 72, 127
2, 125886, Note_off_c, 0, 72, 127
2, 125888, Note_on_c, 12, 71, 127
2, 126041, Note_off_c, 2, 74, 127
2, 126042, Note_off_c, 7, 55, 127
2, 126044, Note_on_c, 7, 55, 127
2, 126044, Note_on_c, 5, 77, 127
2, 126197, Note_off_c, 5, 77, 127
2, 126197, Note_off_c, 7, 55, 127
2, 126199, Note_on_c, 0, 48, 127
2, 126199, Note_on_c, 4, 76, 127
2, 126352, Note_off_c, 12, 71, 127
2, 126355, Note_on_c, 2, 74, 127
2, 126508, Note_off_c, 2, 74, 127
2, 126508, Note_off_c, 0, 48, 127
2, 126510, Note_on_c, 10, 57, 127
2, 126510, Note_on_c, 0, 72, 127
2, 126663, Note_off_c, 0, 72, 127
2, 126663, Note_off_c, 10, 57, 127
2, 126666, Note_on_c, 7, 55, 127
2, 126666, Note_on_c, 12, 71, 127
2, 126819, Note_off_c, 12, 71, 127
2, 126819, Note_off_c, 7, 55, 127
2, 126821, Note_on_c, 10, 57, 127
2, 126821, Note_on_c, 0, 72, 127
2, 126974, Note_off_c, 0, 72, 127
2, 126974, Note_off_c, 10, 57, 127
2, 126977, Note_on_c, 6, 54, 127
2, 126977, Note_on_c, 10, 69, 127
2, 127130, Note_off_c, 6, 54, 127
2, 127130, Note_off_c, 4, 76, 127
2, 127132, Note_on_c, 12, 47, 127
2, 127132, Note_on_c, 2, 74, 127
2, 127285, Note_off_c, 2, 74, 127
2, 127288, Note_on_c, 0, 72, 127
2, 127441, Note_off_c, 0, 72, 127
2, 127441, Note_off_c, 12, 47, 127
2, 127443, Note_on_c, 4, 52, 127
2, 127443, Note_on_c, 12, 71, 127
2, 127519, Note_off_c, 4, 52, 127
2, 127521, Note_on_c, 2, 50, 127
2, 127597, Note_off_c, 2, 50, 127
2, 127597, Note_off_c, 10, 69, 127
2, 127599, Note_on_c, 4, 52, 127
2, 127599, Note_on_c, 10, 69, 127
2, 127752, Note_off_c, 10, 69, 127
2, 127754, Note_on_c, 7, 67, 127
2, 127907, Note_off_c, 12, 71, 127
2, 127908, Note_off_c, 4, 52, 127
2, 127910, Note_on_c, 4, 52, 127
2, 127910, Note_on_c, 2, 74, 127
2, 128063, Note_off_c, 2, 74, 127
2, 128063, Note_off_c, 4, 52, 127
2, 128065, Note_on_c, 10, 45, 127
2, 128065, Note_on_c, 0, 72, 127
2, 128218, Note_off_c, 7, 67, 127
2, 128221, Note_on_c, 12, 71, 127
2, 128374, Note_off_c, 12, 71, 127
2, 128374, Note_off_c, 10, 45, 127
2, 128376, Note_on_c, 6, 54, 127
2, 128376, Note_on_c, 10, 69, 127
2, 128529, Note_off_c, 10, 69, 127
2, 128529, Note_off_c, 6, 54, 127
2, 128532, Note_on_c, 4, 52, 127
2, 128532, Note_on_c, 7, 67, 127
2, 128685, Note_off_c, 7, 67, 127
2, 128685, Note_off_c, 4, 52, 127
2, 128687, Note_on_c, 6, 54, 127
2, 128687, Note_on_c, 10, 69, 127
2, 128840, Note_off_c, 10, 69, 127
2, 128840, Note_off_c, 6, 54, 127
2, 128843, Note_on_c, 2, 50, 127
2, 128843, Note_on_c, 6, 66, 127
2, 128996, Note_off_c, 6, 66, 127
2, 128996, Note_off_c, 2, 50, 127
2, 128998, Note_on_c, 7, 43, 127
2, 128998, Note_on_c, 2, 62, 127
2, 129153, Note_off_c, 0, 72, 127
2, 129156, Note_on_c, 0, 72, 127
2, 129311, Note_off_c, 0, 72, 127
2, 129313, Note_on_c, 12, 71, 127
2, 129467, Note_off_c, 7, 43, 127
2, 129468, Note_off_c, 12, 71, 127
2, 129470, Note_on_c, 10, 45, 127
2, 129470, Note_on_c, 10, 69, 127
2, 129625, Note_off_c, 10, 69, 127
2, 129625, Note_off_c, 10, 45, 127
2, 129627, Note_on_c, 12, 47, 127
2, 129627, Note_on_c, 7, 67, 127
2, 129782, Note_off_c, 7, 67, 127
2, 129784, Note_on_c, 6, 66, 127
2, 129939, Note_off_c, 6, 66, 127
2, 129941, Note_on_c, 7, 67, 127
2, 130096, Note_off_c, 7, 67, 127
2, 130096, Note_off_c, 12, 47, 127
2, 130098, Note_on_c, 0, 48, 127
2, 130098, Note_on_c, 10, 69, 127
2, 130253, Note_off_c, 10, 69, 127
2, 130253, Note_off_c, 0, 48, 127
2, 130253, Note_off_c, 2, 62, 127
2, 130256, Note_on_c, 2, 50, 127
2, 130256, Note_on_c, 6, 66, 127
2, 130256, Note_on_c, 12, 71, 127
2, 130333, Note_off_c, 12, 71, 127
2, 130335, Note_on_c, 10, 69, 127
2, 130412, Note_off_c, 10, 69, 127
2, 130413, Note_off_c, 2, 50, 127
2, 130414, Note_on_c, 0, 48, 127
2, 130414, Note_on_c, 12, 71, 127
2, 130491, Note_off_c, 12, 71, 127
2, 130494, Note_on_c, 10, 69, 127
2, 130571, Note_off_c, 10, 69, 127
2, 130571, Note_off_c, 0, 48, 127
2, 130573, Note_on_c, 2, 50, 127
2, 130573, Note_on_c, 12, 71, 127
2, 130650, Note_off_c, 12, 71, 127
2, 130653, Note_on_c, 10, 69, 127
2, 130730, Note_off_c, 10, 69, 127
2, 130730, Note_off_c, 2, 50, 127
2, 130732, Note_on_c, 2, 38, 127
2, 130732, Note_on_c, 7, 67, 127
2, 130809, Note_off_c, 7, 67, 127
2, 130811, Note_on_c, 10, 69, 127
2, 130884, Note_off_c, 6, 66, 127
2, 130888, Note_off_c, 10, 69, 127
2, 130889, Note_off_c, 2, 38, 127
2, 130891, Note_on_c, 7, 43, 127
2, 130891, Note_on_c, 12, 71, 127
2, 131051, Note_on_c, 6, 66, 127
2, 131209, Note_off_c, 6, 66, 127
2, 131210, Note_off_c, 7, 43, 127
2, 131211, Note_on_c, 7, 55, 127
2, 131211, Note_on_c, 7, 67, 127
2, 131369, Note_off_c, 7, 67, 127
2, 131372, Note_on_c, 3, 63, 127
2, 131530, Note_off_c, 3, 63, 127
2, 131532, Note_on_c, 4, 64, 127
2, 131690, Note_off_c, 7, 55, 127
2, 131691, Note_off_c, 12, 71, 127
2, 131693, Note_on_c, 6, 54, 127
2, 131693, Note_on_c, 11, 70, 127
2, 131851, Note_off_c, 11, 70, 127
2, 131851, Note_off_c, 6, 54, 127
2, 131853, Note_on_c, 7, 55, 127
2, 131853, Note_on_c, 12, 71, 127
2, 132011, Note_off_c, 12, 71, 127
2, 132011, Note_off_c, 7, 55, 127
2, 132013, Note_on_c, 4, 52, 127
2, 132013, Note_on_c, 1, 73, 127
2, 132171, Note_off_c, 1, 73, 127
2, 132171, Note_off_c, 4, 52, 127
2, 132171, Note_off_c, 4, 64, 127
2, 132174, Note_on_c, 6, 54, 127
2, 132174, Note_on_c, 11, 70, 127
2, 132174, Note_on_c, 2, 74, 127
2, 132251, Note_off_c, 2, 74, 127
2, 132253, Note_on_c, 1, 73, 127
2, 132330, Note_off_c, 1, 73, 127
2, 132331, Note_off_c, 6, 54, 127
2, 132332, Note_on_c, 4, 52, 127
2, 132332, Note_on_c, 2, 74, 127
2, 132409, Note_off_c, 2, 74, 127
2, 132412, Note_on_c, 1, 73, 127
2, 132489, Note_off_c, 1, 73, 127
2, 132489, Note_off_c, 4, 52, 127
2, 132491, Note_on_c, 6, 54, 127
2, 132491, Note_on_c, 2, 74, 127
2, 132568, Note_off_c, 2, 74, 127
2, 132571, Note_on_c, 1, 73, 127
2, 132648, Note_off_c, 1, 73, 127
2, 132648, Note_off_c, 6, 54, 127
2, 132650, Note_on_c, 6, 42, 127
2, 132650, Note_on_c, 12, 71, 127
2, 132727, Note_off_c, 12, 71, 127
2, 132729, Note_on_c, 1, 73, 127
2, 132802, Note_off_c, 11, 70, 127
2, 132806, Note_off_c, 1, 73, 127
2, 132807, Note_off_c, 6, 42, 127
2, 132809, Note_on_c, 12, 47, 127
2, 132809, Note_on_c, 2, 74, 127
2, 132969, Note_on_c, 11, 70, 127
2, 133127, Note_off_c, 11, 70, 127
2, 133128, Note_off_c, 12, 47, 127
2, 133129, Note_on_c, 12, 59, 127
2, 133129, Note_on_c, 12, 71, 127
2, 133287, Note_off_c, 12, 71, 127
2, 133290, Note_on_c, 6, 66, 127
2, 133448, Note_off_c, 6, 66, 127
2, 133450, Note_on_c, 7, 67, 127
2, 133608, Note_off_c, 12, 59, 127
2, 133609, Note_off_c, 2, 74, 127
2, 133611, Note_on_c, 10, 57, 127
2, 133611, Note_on_c, 1, 73, 127
2, 133769, Note_off_c, 1, 73, 127
2, 133769, Note_off_c, 10, 57, 127
2, 133771, Note_on_c, 12, 59, 127
2, 133771, Note_on_c, 2, 74, 127
2, 133929, Note_off_c, 2, 74, 127
2, 133929, Note_off_c, 12, 59, 127
2, 133931, Note_on_c, 7, 55, 127
2, 133931, Note_on_c, 4, 76, 127
2, 134089, Note_off_c, 4, 76, 127
2, 134089, Note_off_c, 7, 55, 127
2, 134089, Note_off_c, 7, 67, 127
2, 134092, Note_on_c, 10, 57, 127
2, 134092, Note_on_c, 1, 73, 127
2, 134092, Note_on_c, 6, 78, 127
2, 134169, Note_off_c, 6, 78, 127
2, 134171, Note_on_c, 4, 76, 127
2, 134248, Note_off_c, 4, 76, 127
2, 134249, Note_off_c, 10, 57, 127
2, 134251, Note_on_c, 7, 55, 127
2, 134251, Note_on_c, 6, 78, 127
2, 134328, Note_off_c, 6, 78, 127
2, 134330, Note_on_c, 4, 76, 127
2, 134407, Note_off_c, 4, 76, 127
2, 134408, Note_off_c, 7, 55, 127
2, 134409, Note_on_c, 10, 57, 127
2, 134409, Note_on_c, 6, 78, 127
2, 134486, Note_off_c, 6, 78, 127
2, 134489, Note_on_c, 4, 76, 127
2, 134566, Note_off_c, 4, 76, 127
2, 134566, Note_off_c, 10, 57, 127
2, 134568, Note_on_c, 10, 45, 127
2, 134568, Note_on_c, 2, 74, 127
2, 134645, Note_off_c, 2, 74, 127
2, 134647, Note_on_c, 4, 76, 127
2, 134720, Note_off_c, 1, 73, 127
2, 134724, Note_off_c, 4, 76, 127
2, 134725, Note_off_c, 10, 45, 127
2, 134727, Note_on_c, 2, 50, 127
2, 134727, Note_on_c, 6, 78, 127
2, 134887, Note_on_c, 1, 73, 127
2, 135045, Note_off_c, 1, 73, 127
2, 135046, Note_off_c, 2, 50, 127
2, 135048, Note_on_c, 2, 62, 127
2, 135048, Note_on_c, 2, 74, 127
2, 135206, Note_off_c, 2, 74, 127
2, 135208, Note_on_c, 11, 70, 127
2, 135366, Note_off_c, 11, 70, 127
2, 135368, Note_on_c, 12, 71, 127
2, 135527, Note_off_c, 2, 62, 127
2, 135527, Note_off_c, 6, 78, 127
2, 135529, Note_on_c, 12, 59, 127
2, 135529, Note_on_c, 2, 74, 127
2, 135687, Note_off_c, 2, 74, 127
2, 135687, Note_off_c, 12, 59, 127
2, 135689, Note_on_c, 4, 64, 127
2, 135689, Note_on_c, 1, 73, 127
2, 135766, Note_off_c, 4, 64, 127
2, 135768, Note_on_c, 2, 62, 127
2, 135845, Note_off_c, 2, 62, 127
2, 135846, Note_off_c, 1, 73, 127
2, 135848, Note_on_c, 4, 64, 127
2, 135848, Note_on_c, 2, 74, 127
2, 136006, Note_off_c, 2, 74, 127
2, 136008, Note_on_c, 4, 76, 127
2, 136166, Note_off_c, 12, 71, 127
2, 136167, Note_off_c, 4, 64, 127
2, 136169, Note_on_c, 7, 67, 127
2, 136169, Note_on_c, 2, 74, 127
2, 136327, Note_off_c, 2, 74, 127
2, 136327, Note_off_c, 7, 67, 127
2, 136329, Note_on_c, 4, 64, 127
2, 136329, Note_on_c, 1, 73, 127
2, 136487, Note_off_c, 1, 73, 127
2, 136487, Note_off_c, 4, 64, 127
2, 136489, Note_on_c, 1, 61, 127
2, 136489, Note_on_c, 12, 71, 127
2, 136647, Note_off_c, 12, 71, 127
2, 136647, Note_off_c, 1, 61, 127
2, 136650, Note_on_c, 6, 66, 127
2, 136650, Note_on_c, 11, 70, 127
2, 136809, Note_off_c, 4, 76, 127
2, 136812, Note_on_c, 1, 73, 127
2, 136891, Note_off_c, 1, 73, 127
2, 136893, Note_on_c, 2, 74, 127
2, 136972, Note_off_c, 2, 74, 127
2, 136974, Note_on_c, 6, 54, 127
2, 136974, Note_on_c, 4, 76, 127
2, 137134, Note_off_c, 11, 70, 127
2, 137136, Note_on_c, 1, 73, 127
2, 137291, Note_off_c, 6, 66, 127
2, 137296, Note_off_c, 1, 73, 127
2, 137296, Note_off_c, 6, 54, 127
2, 137298, Note_on_c, 6, 66, 127
2, 137298, Note_on_c, 12, 71, 127
2, 137458, Note_off_c, 12, 71, 127
2, 137460, Note_on_c, 11, 70, 127
2, 137620, Note_off_c, 11, 70, 127
2, 137620, Note_off_c, 6, 66, 127
2, 137622, Note_on_c, 6, 66, 127
2, 137622, Note_on_c, 12, 71, 127
2, 137782, Note_off_c, 4, 76, 127
2, 137784, Note_on_c, 2, 74, 127
2, 137863, Note_off_c, 2, 74, 127
2, 137865, Note_on_c, 4, 76, 127
2, 137944, Note_off_c, 4, 76, 127
2, 137946, Note_on_c, 6, 54, 127
2, 137946, Note_on_c, 6, 78, 127
2, 138106, Note_off_c, 12, 71, 127
2, 138108, Note_on_c, 2, 74, 127
2, 138263, Note_off_c, 6, 66, 127
2, 138268, Note_off_c, 2, 74, 127
2, 138268, Note_off_c, 6, 54, 127
2, 138270, Note_on_c, 6, 66, 127
2, 138270, Note_on_c, 1, 73, 127
2, 138430, Note_off_c, 1, 73, 127
2, 138432, Note_on_c, 12, 71, 127
2, 138592, Note_off_c, 12, 71, 127
2, 138592, Note_off_c, 6, 66, 127
2, 138594, Note_on_c, 6, 66, 127
2, 138594, Note_on_c, 1, 73, 127
2, 138754, Note_off_c, 6, 78, 127
2, 138756, Note_on_c, 4, 76, 127
2, 138916, Note_off_c, 4, 76, 127
2, 138918, Note_on_c, 6, 54, 127
2, 138918, Note_on_c, 11, 82, 127
2, 139078, Note_off_c, 1, 73, 127
2, 139080, Note_on_c, 4, 76, 127
2, 139235, Note_off_c, 6, 66, 127
2, 139240, Note_off_c, 4, 76, 127
2, 139240, Note_off_c, 6, 54, 127
2, 139242, Note_on_c, 6, 66, 127
2, 139242, Note_on_c, 2, 74, 127
2, 139402, Note_off_c, 2, 74, 127
2, 139404, Note_on_c, 1, 73, 127
2, 139564, Note_off_c, 1, 73, 127
2, 139564, Note_off_c, 6, 66, 127
2, 139566, Note_on_c, 6, 66, 127
2, 139566, Note_on_c, 2, 74, 127
2, 139726, Note_off_c, 11, 82, 127
2, 139728, Note_on_c, 6, 78, 127
2, 139888, Note_off_c, 6, 78, 127
2, 139890, Note_on_c, 6, 54, 127
2, 139890, Note_on_c, 12, 83, 127
2, 140050, Note_off_c, 2, 74, 127
2, 140052, Note_on_c, 10, 81, 127
2, 140207, Note_off_c, 6, 66, 127
2, 140212, Note_off_c, 10, 81, 127
2, 140212, Note_off_c, 6, 54, 127
2, 140214, Note_on_c, 6, 66, 127
2, 140214, Note_on_c, 8, 80, 127
2, 140374, Note_off_c, 8, 80, 127
2, 140376, Note_on_c, 6, 78, 127
2, 140531, Note_off_c, 12, 83, 127
2, 140536, Note_off_c, 6, 78, 127
2, 140536, Note_off_c, 6, 66, 127
2, 140538, Note_on_c, 6, 66, 127
2, 140538, Note_on_c, 5, 77, 127
2, 140698, Note_off_c, 5, 77, 127
2, 140700, Note_on_c, 8, 80, 127
2, 140860, Note_off_c, 8, 80, 127
2, 140862, Note_on_c, 6, 54, 127
2, 140862, Note_on_c, 12, 71, 127
2, 141011, Note_off_c, 6, 66, 127
2, 141022, Note_off_c, 12, 71, 127
2, 141024, Note_on_c, 2, 74, 127
2, 141184, Note_off_c, 2, 74, 127
2, 141184, Note_off_c, 6, 54, 127
2, 141186, Note_on_c, 6, 66, 127
2, 141186, Note_on_c, 1, 73, 127
2, 141346, Note_off_c, 1, 73, 127
2, 141348, Note_on_c, 12, 71, 127
2, 141508, Note_off_c, 12, 71, 127
2, 141508, Note_off_c, 6, 66, 127
2, 141510, Note_on_c, 6, 66, 127
2, 141510, Note_on_c, 11, 70, 127
2, 141670, Note_off_c, 11, 70, 127
2, 141670, Note_off_c, 6, 66, 127
2, 141672, Note_on_c, 7, 67, 127
2, 141672, Note_on_c, 1, 73, 127
2, 141832, Note_off_c, 1, 73, 127
2, 141832, Note_off_c, 7, 67, 127
2, 141834, Note_on_c, 6, 66, 127
2, 141834, Note_on_c, 4, 76, 127
2, 141994, Note_off_c, 4, 76, 127
2, 141994, Note_off_c, 6, 66, 127
2, 141996, Note_on_c, 4, 64, 127
2, 141996, Note_on_c, 7, 79, 127
2, 142156, Note_off_c, 7, 79, 127
2, 142156, Note_off_c, 4, 64, 127
2, 142158, Note_on_c, 2, 62, 127
2, 142158, Note_on_c, 6, 78, 127
2, 142318, Note_off_c, 6, 78, 127
2, 142318, Note_off_c, 2, 62, 127
2, 142320, Note_on_c, 1, 61, 127
2, 142320, Note_on_c, 4, 76, 127
2, 142480, Note_off_c, 4, 76, 127
2, 142480, Note_off_c, 1, 61, 127
2, 142482, Note_on_c, 12, 59, 127
2, 142482, Note_on_c, 2, 74, 127
2, 142642, Note_off_c, 12, 59, 127
2, 142644, Note_on_c, 1, 61, 127
2, 142644, Note_on_c, 6, 78, 127
2, 142804, Note_off_c, 6, 78, 127
2, 142804, Note_off_c, 1, 61, 127
2, 142806, Note_on_c, 12, 59, 127
2, 142806, Note_on_c, 10, 81, 127
2, 142966, Note_off_c, 10, 81, 127
2, 142966, Note_off_c, 12, 59, 127
2, 142968, Note_on_c, 10, 57, 127
2, 142968, Note_on_c, 0, 84, 127
2, 143128, Note_off_c, 0, 84, 127
2, 143128, Note_off_c, 10, 57, 127
2, 143130, Note_on_c, 7, 55, 127
2, 143130, Note_on_c, 12, 83, 127
2, 143290, Note_off_c, 12, 83, 127
2, 143290, Note_off_c, 7, 55, 127
2, 143292, Note_on_c, 6, 54, 127
2, 143292, Note_on_c, 10, 81, 127
2, 143452, Note_off_c, 10, 81, 127
2, 143452, Note_off_c, 6, 54, 127
2, 143454, Note_on_c, 4, 52, 127
2, 143454, Note_on_c, 7, 79, 127
2, 143614, Note_off_c, 4, 52, 127
2, 143614, Note_off_c, 2, 74, 127
2, 143616, Note_on_c, 2, 50, 127
2, 143616, Note_on_c, 6, 78, 127
2, 143776, Note_off_c, 6, 78, 127
2, 143776, Note_off_c, 2, 50, 127
2, 143778, Note_on_c, 4, 52, 127
2, 143778, Note_on_c, 4, 76, 127
2, 143938, Note_off_c, 4, 76, 127
2, 143938, Note_off_c, 4, 52, 127
2, 143940, Note_on_c, 6, 54, 127
2, 143940, Note_on_c, 2, 74, 127
2, 144100, Note_off_c, 2, 74, 127
2, 144100, Note_off_c, 6, 54, 127
2, 144102, Note_on_c, 7, 55, 127
2, 144102, Note_on_c, 4, 76, 127
2, 144262, Note_off_c, 4, 76, 127
2, 144262, Note_off_c, 7, 55, 127
2, 144264, Note_on_c, 4, 52, 127
2, 144264, Note_on_c, 12, 71, 127
2, 144424, Note_off_c, 12, 71, 127
2, 144424, Note_off_c, 4, 52, 127
2, 144426, Note_on_c, 10, 57, 127
2, 144426, Note_on_c, 1, 73, 127
2, 144586, Note_off_c, 10, 57, 127
2, 144586, Note_off_c, 7, 79, 127
2, 144588, Note_on_c, 12, 59, 127
2, 144588, Note_on_c, 4, 76, 127
2, 144748, Note_off_c, 4, 76, 127
2, 144748, Note_off_c, 12, 59, 127
2, 144750, Note_on_c, 10, 57, 127
2, 144750, Note_on_c, 7, 79, 127
2, 144910, Note_off_c, 7, 79, 127
2, 144910, Note_off_c, 10, 57, 127
2, 144912, Note_on_c, 7, 55, 127
2, 144912, Note_on_c, 12, 83, 127
2, 145072, Note_off_c, 12, 83, 127
2, 145072, Note_off_c, 7, 55, 127
2, 145074, Note_on_c, 6, 54, 127
2, 145074, Note_on_c, 10, 81, 127
2, 145234, Note_off_c, 10, 81, 127
2, 145234, Note_off_c, 6, 54, 127
2, 145236, Note_on_c, 4, 52, 127
2, 145236, Note_on_c, 7, 79, 127
2, 145396, Note_off_c, 7, 79, 127
2, 145396, Note_off_c, 4, 52, 127
2, 145398, Note_on_c, 2, 50, 127
2, 145398, Note_on_c, 6, 78, 127
2, 145558, Note_off_c, 2, 50, 127
2, 145558, Note_off_c, 1, 73, 127
2, 145560, Note_on_c, 1, 49, 127
2, 145560, Note_on_c, 4, 76, 127
2, 145720, Note_off_c, 4, 76, 127
2, 145720, Note_off_c, 1, 49, 127
2, 145722, Note_on_c, 2, 50, 127
2, 145722, Note_on_c, 2, 74, 127
2, 145882, Note_off_c, 2, 74, 127
2, 145882, Note_off_c, 2, 50, 127
2, 145884, Note_on_c, 4, 52, 127
2, 145884, Note_on_c, 1, 73, 127
2, 146044, Note_off_c, 1, 73, 127
2, 146044, Note_off_c, 4, 52, 127
2, 146046, Note_on_c, 6, 54, 127
2, 146046, Note_on_c, 2, 74, 127
2, 146206, Note_off_c, 2, 74, 127
2, 146206, Note_off_c, 6, 54, 127
2, 146208, Note_on_c, 2, 50, 127
2, 146208, Note_on_c, 11, 70, 127
2, 146368, Note_off_c, 11, 70, 127
2, 146368, Note_off_c, 2, 50, 127
2, 146370, Note_on_c, 7, 55, 127
2, 146370, Note_on_c, 12, 71, 127
2, 146530, Note_off_c, 7, 55, 127
2, 146530, Note_off_c, 6, 78, 127
2, 146532, Note_on_c, 10, 57, 127
2, 146532, Note_on_c, 2, 74, 127
2, 146692, Note_off_c, 2, 74, 127
2, 146692, Note_off_c, 10, 57, 127
2, 146694, Note_on_c, 7, 55, 127
2, 146694, Note_on_c, 6, 78, 127
2, 146854, Note_off_c, 6, 78, 127
2, 146854, Note_off_c, 7, 55, 127
2, 146856, Note_on_c, 6, 54, 127
2, 146856, Note_on_c, 10, 81, 127
2, 147016, Note_off_c, 10, 81, 127
2, 147016, Note_off_c, 6, 54, 127
2, 147018, Note_on_c, 4, 52, 127
2, 147018, Note_on_c, 7, 79, 127
2, 147178, Note_off_c, 7, 79, 127
2, 147178, Note_off_c, 4, 52, 127
2, 147180, Note_on_c, 2, 50, 127
2, 147180, Note_on_c, 6, 78, 127
2, 147340, Note_off_c, 6, 78, 127
2, 147340, Note_off_c, 2, 50, 127
2, 147342, Note_on_c, 1, 49, 127
2, 147342, Note_on_c, 4, 76, 127
2, 147502, Note_off_c, 1, 49, 127
2, 147502, Note_off_c, 12, 71, 127
2, 147504, Note_on_c, 12, 47, 127
2, 147504, Note_on_c, 2, 74, 127
2, 147664, Note_off_c, 2, 74, 127
2, 147664, Note_off_c, 12, 47, 127
2, 147666, Note_on_c, 1, 49, 127
2, 147666, Note_on_c, 1, 73, 127
2, 147826, Note_off_c, 1, 73, 127
2, 147826, Note_off_c, 1, 49, 127
2, 147828, Note_on_c, 2, 50, 127
2, 147828, Note_on_c, 12, 71, 127
2, 147988, Note_off_c, 12, 71, 127
2, 147988, Note_off_c, 2, 50, 127
2, 147990, Note_on_c, 4, 52, 127
2, 147990, Note_on_c, 11, 70, 127
2, 148150, Note_off_c, 11, 70, 127
2, 148150, Note_off_c, 4, 52, 127
2, 148152, Note_on_c, 1, 49, 127
2, 148152, Note_on_c, 12, 71, 127
2, 148312, Note_off_c, 12, 71, 127
2, 148312, Note_off_c, 1, 49, 127
2, 148314, Note_on_c, 6, 54, 127
2, 148314, Note_on_c, 11, 70, 127
2, 148474, Note_off_c, 6, 54, 127
2, 148476, Note_on_c, 4, 52, 127
2, 148634, Note_off_c, 11, 70, 127
2, 148636, Note_off_c, 4, 52, 127
2, 148636, Note_off_c, 4, 76, 127
2, 148638, Note_on_c, 6, 54, 127
2, 148638, Note_on_c, 7, 79, 127
2, 148638, Note_on_c, 4, 76, 127
2, 148798, Note_off_c, 6, 54, 127
2, 148800, Note_on_c, 11, 58, 127
2, 148960, Note_off_c, 11, 58, 127
2, 148960, Note_off_c, 4, 76, 127
2, 148960, Note_off_c, 7, 79, 127
2, 148962, Note_on_c, 1, 61, 127
2, 148962, Note_on_c, 4, 76, 127
2, 148962, Note_on_c, 1, 73, 127
2, 149122, Note_off_c, 1, 61, 127
2, 149124, Note_on_c, 11, 58, 127
2, 149284, Note_off_c, 11, 58, 127
2, 149284, Note_off_c, 1, 73, 127
2, 149284, Note_off_c, 4, 76, 127
2, 149286, Note_on_c, 6, 54, 127
2, 149286, Note_on_c, 1, 73, 127
2, 149286, Note_on_c, 11, 70, 127
2, 149446, Note_off_c, 6, 54, 127
2, 149448, Note_on_c, 1, 61, 127
2, 149608, Note_off_c, 1, 61, 127
2, 149608, Note_off_c, 11, 70, 127
2, 149608, Note_off_c, 1, 73, 127
2, 149610, Note_on_c, 11, 58, 127
2, 149610, Note_on_c, 4, 76, 127
2, 149610, Note_on_c, 1, 73, 127
2, 149770, Note_off_c, 11, 58, 127
2, 149772, Note_on_c, 6, 54, 127
2, 149932, Note_off_c, 6, 54, 127
2, 149932, Note_off_c, 1, 73, 127
2, 149932, Note_off_c, 4, 76, 127
2, 149934, Note_on_c, 1, 49, 127
2, 149934, Note_on_c, 1, 73, 127
2, 149934, Note_on_c, 11, 70, 127
2, 150094, Note_off_c, 1, 49, 127
2, 150096, Note_on_c, 2, 50, 127
2, 150256, Note_off_c, 2, 50, 127
2, 150256, Note_off_c, 11, 70, 127
2, 150256, Note_off_c, 1, 73, 127
2, 150258, Note_on_c, 4, 52, 127
2, 150258, Note_on_c, 11, 70, 127
2, 150258, Note_on_c, 6, 66, 127
2, 150418, Note_off_c, 4, 52, 127
2, 150420, Note_on_c, 2, 50, 127
2, 150580, Note_off_c, 2, 50, 127
2, 150582, Note_on_c, 4, 52, 127
2, 150742, Note_off_c, 4, 52, 127
2, 150744, Note_on_c, 7, 55, 127
2, 150899, Note_off_c, 6, 66, 127
2, 150899, Note_off_c, 11, 70, 127
2, 150904, Note_off_c, 7, 55, 127
2, 150906, Note_on_c, 1, 61, 127
2, 151066, Note_off_c, 1, 61, 127
2, 151068, Note_on_c, 7, 55, 127
2, 151228, Note_off_c, 7, 55, 127
2, 151230, Note_on_c, 4, 52, 127
2, 151390, Note_off_c, 4, 52, 127
2, 151392, Note_on_c, 1, 61, 127
2, 151552, Note_off_c, 1, 61, 127
2, 151554, Note_on_c, 7, 55, 127
2, 151554, Note_on_c, 1, 73, 127
2, 151554, Note_on_c, 1, 61, 127
2, 151554, Note_on_c, 4, 64, 127
2, 151554, Note_on_c, 7, 67, 127
2, 151714, Note_off_c, 7, 55, 127
2, 151716, Note_on_c, 4, 52, 127
2, 151876, Note_off_c, 4, 52, 127
2, 151876, Note_off_c, 7, 67, 127
2, 151876, Note_off_c, 4, 64, 127
2, 151876, Note_off_c, 1, 61, 127
2, 151876, Note_off_c, 1, 73, 127
2, 151878, Note_on_c, 1, 49, 127
2, 151878, Note_on_c, 11, 70, 127
2, 151878, Note_on_c, 6, 66, 127
2, 151878, Note_on_c, 1, 61, 127
2, 151878, Note_on_c, 4, 64, 127
2, 152038, Note_off_c, 1, 49, 127
2, 152040, Note_on_c, 4, 52, 127
2, 152200, Note_off_c, 4, 52, 127
2, 152200, Note_off_c, 4, 64, 127
2, 152200, Note_off_c, 1, 61, 127
2, 152200, Note_off_c, 6, 66, 127
2, 152200, Note_off_c, 11, 70, 127
2, 152202, Note_on_c, 6, 54, 127
2, 152202, Note_on_c, 2, 50, 127
2, 152202, Note_on_c, 12, 59, 127
2, 152202, Note_on_c, 12, 71, 127
2, 152362, Note_off_c, 12, 71, 127
2, 152364, Note_on_c, 11, 70, 127
2, 152524, Note_off_c, 11, 70, 127
2, 152526, Note_on_c, 12, 71, 127
2, 152686, Note_off_c, 12, 71, 127
2, 152688, Note_on_c, 2, 74, 127
2, 152843, Note_off_c, 12, 59, 127
2, 152843, Note_off_c, 2, 50, 127
2, 152843, Note_off_c, 6, 54, 127
2, 152848, Note_off_c, 2, 74, 127
2, 152850, Note_on_c, 6, 78, 127
2, 153010, Note_off_c, 6, 78, 127
2, 153012, Note_on_c, 2, 74, 127
2, 153172, Note_off_c, 2, 74, 127
2, 153174, Note_on_c, 12, 71, 127
2, 153334, Note_off_c, 12, 71, 127
2, 153336, Note_on_c, 6, 78, 127
2, 153496, Note_off_c, 6, 78, 127
2, 153498, Note_on_c, 12, 47, 127
2, 153498, Note_on_c, 2, 50, 127
2, 153498, Note_on_c, 2, 74, 127
2, 153658, Note_off_c, 2, 74, 127
2, 153660, Note_on_c, 12, 71, 127
2, 153820, Note_off_c, 12, 71, 127
2, 153820, Note_off_c, 2, 50, 127
2, 153820, Note_off_c, 12, 47, 127
2, 153822, Note_on_c, 4, 52, 127
2, 153822, Note_on_c, 1, 49, 127
2, 153822, Note_on_c, 6, 66, 127
2, 153982, Note_off_c, 6, 66, 127
2, 153984, Note_on_c, 7, 67, 127
2, 154144, Note_off_c, 7, 67, 127
2, 154144, Note_off_c, 1, 49, 127
2, 154144, Note_off_c, 4, 52, 127
2, 154146, Note_on_c, 6, 54, 127
2, 154146, Note_on_c, 3, 51, 127
2, 154146, Note_on_c, 10, 69, 127
2, 154306, Note_off_c, 10, 69, 127
2, 154308, Note_on_c, 7, 67, 127
2, 154468, Note_off_c, 7, 67, 127
2, 154470, Note_on_c, 10, 69, 127
2, 154630, Note_off_c, 10, 69, 127
2, 154632, Note_on_c, 0, 72, 127
2, 154787, Note_off_c, 3, 51, 127
2, 154787, Note_off_c, 6, 54, 127
2, 154792, Note_off_c, 0, 72, 127
2, 154794, Note_on_c, 6, 78, 127
2, 154954, Note_off_c, 6, 78, 127
2, 154956, Note_on_c, 0, 72, 127
2, 155116, Note_off_c, 0, 72, 127
2, 155118, Note_on_c, 10, 69, 127
2, 155278, Note_off_c, 10, 69, 127
2, 155280, Note_on_c, 6, 78, 127
2, 155440, Note_off_c, 6, 78, 127
2, 155442, Note_on_c, 3, 51, 127
2, 155442, Note_on_c, 6, 54, 127
2, 155442, Note_on_c, 0, 72, 127
2, 155602, Note_off_c, 0, 72, 127
2, 155604, Note_on_c, 10, 69, 127
2, 155764, Note_off_c, 10, 69, 127
2, 155764, Note_off_c, 6, 54, 127
2, 155764, Note_off_c, 3, 51, 127
2, 155766, Note_on_c, 3, 51, 127
2, 155766, Note_on_c, 12, 47, 127
2, 155766, Note_on_c, 6, 66, 127
2, 155926, Note_off_c, 6, 66, 127
2, 155928, Note_on_c, 10, 69, 127
2, 156088, Note_off_c, 10, 69, 127
2, 156088, Note_off_c, 12, 47, 127
2, 156088, Note_off_c, 3, 51, 127
2, 156090, Note_on_c, 4, 52, 127
2, 156090, Note_on_c, 7, 67, 127
2, 156090, Note_on_c, 4, 64, 127
2, 156250, Note_off_c, 4, 52, 127
2, 156252, Note_on_c, 3, 51, 127
2, 156412, Note_off_c, 3, 51, 127
2, 156414, Note_on_c, 4, 52, 127
2, 156574, Note_off_c, 4, 52, 127
2, 156576, Note_on_c, 7, 55, 127
2, 156736, Note_off_c, 7, 55, 127
2, 156738, Note_on_c, 12, 59, 127
2, 156898, Note_off_c, 12, 59, 127
2, 156900, Note_on_c, 7, 55, 127
2, 157060, Note_off_c, 7, 55, 127
2, 157060, Note_off_c, 4, 64, 127
2, 157060, Note_off_c, 7, 67, 127
2, 157062, Note_on_c, 4, 52, 127
2, 157222, Note_off_c, 4, 52, 127
2, 157224, Note_on_c, 12, 59, 127
2, 157384, Note_off_c, 12, 59, 127
2, 157386, Note_on_c, 7, 55, 127
2, 157386, Note_on_c, 12, 59, 127
2, 157386, Note_on_c, 4, 64, 127
2, 157546, Note_off_c, 7, 55, 127
2, 157548, Note_on_c, 4, 52, 127
2, 157708, Note_off_c, 4, 52, 127
2, 157708, Note_off_c, 4, 64, 127
2, 157708, Note_off_c, 12, 59, 127
2, 157710, Note_on_c, 12, 47, 127
2, 157710, Note_on_c, 12, 59, 127
2, 157710, Note_on_c, 6, 66, 127
2, 157710, Note_on_c, 3, 63, 127
2, 157870, Note_off_c, 12, 47, 127
2, 157872, Note_on_c, 0, 48, 127
2, 158032, Note_off_c, 0, 48, 127
2, 158032, Note_off_c, 3, 63, 127
2, 158032, Note_off_c, 6, 66, 127
2, 158032, Note_off_c, 12, 59, 127
2, 158034, Note_on_c, 2, 50, 127
2, 158034, Note_on_c, 12, 59, 127
2, 158034, Note_on_c, 8, 68, 127
2, 158034, Note_on_c, 4, 64, 127
2, 158194, Note_off_c, 2, 50, 127
2, 158196, Note_on_c, 1, 49, 127
2, 158356, Note_off_c, 1, 49, 127
2, 158358, Note_on_c, 2, 50, 127
2, 158518, Note_off_c, 2, 50, 127
2, 158520, Note_on_c, 5, 53, 127
2, 158675, Note_off_c, 12, 59, 127
2, 158680, Note_off_c, 5, 53, 127
2, 158682, Note_on_c, 12, 59, 127
2, 158842, Note_off_c, 12, 59, 127
2, 158844, Note_on_c, 5, 53, 127
2, 159004, Note_off_c, 5, 53, 127
2, 159004, Note_off_c, 4, 64, 127
2, 159004, Note_off_c, 8, 68, 127
2, 159006, Note_on_c, 2, 50, 127
2, 159166, Note_off_c, 2, 50, 127
2, 159168, Note_on_c, 12, 59, 127
2, 159328, Note_off_c, 12, 59, 127
2, 159330, Note_on_c, 5, 53, 127
2, 159330, Note_on_c, 5, 65, 127
2, 159330, Note_on_c, 2, 62, 127
2, 159330, Note_on_c, 12, 59, 127
2, 159330, Note_on_c, 12, 71, 127
2, 159490, Note_off_c, 5, 53, 127
2, 159492, Note_on_c, 2, 50, 127
2, 159652, Note_off_c, 2, 50, 127
2, 159652, Note_off_c, 12, 71, 127
2, 159652, Note_off_c, 12, 59, 127
2, 159652, Note_off_c, 2, 62, 127
2, 159652, Note_off_c, 5, 65, 127
2, 159654, Note_on_c, 12, 47, 127
2, 159654, Note_on_c, 2, 62, 127
2, 159654, Note_on_c, 12, 59, 127
2, 159654, Note_on_c, 8, 68, 127
2, 159654, Note_on_c, 4, 64, 127
2, 159814, Note_off_c, 12, 47, 127
2, 159816, Note_on_c, 2, 50, 127
2, 159976, Note_off_c, 2, 50, 127
2, 159976, Note_off_c, 4, 64, 127
2, 159976, Note_off_c, 8, 68, 127
2, 159976, Note_off_c, 12, 59, 127
2, 159976, Note_off_c, 2, 62, 127
2, 159978, Note_on_c, 1, 49, 127
2, 159978, Note_on_c, 4, 52, 127
2, 159978, Note_on_c, 10, 57, 127
2, 159978, Note_on_c, 10, 69, 127
2, 160138, Note_off_c, 10, 69, 127
2, 160140, Note_on_c, 8, 68, 127
2, 160300, Note_off_c, 8, 68, 127
2, 160302, Note_on_c, 10, 69, 127
2, 160462, Note_off_c, 10, 69, 127
2, 160464, Note_on_c, 1, 73, 127
2, 160619, Note_off_c, 10, 57, 127
2, 160619, Note_off_c, 4, 52, 127
2, 160619, Note_off_c, 1, 49, 127
2, 160624, Note_off_c, 1, 73, 127
2, 160626, Note_on_c, 4, 76, 127
2, 160786, Note_off_c, 4, 76, 127
2, 160788, Note_on_c, 1, 73, 127
2, 160948, Note_off_c, 1, 73, 127
2, 160950, Note_on_c, 10, 69, 127
2, 161110, Note_off_c, 10, 69, 127
2, 161112, Note_on_c, 4, 76, 127
2, 161272, Note_off_c, 4, 76, 127
2, 161274, Note_on_c, 1, 49, 127
2, 161274, Note_on_c, 10, 45, 127
2, 161274, Note_on_c, 1, 73, 127
2, 161434, Note_off_c, 1, 73, 127
2, 161436, Note_on_c, 10, 69, 127
2, 161596, Note_off_c, 10, 69, 127
2, 161596, Note_off_c, 10, 45, 127
2, 161596, Note_off_c, 1, 49, 127
2, 161598, Note_on_c, 2, 50, 127
2, 161598, Note_on_c, 12, 47, 127
2, 161598, Note_on_c, 4, 64, 127
2, 161758, Note_off_c, 4, 64, 127
2, 161760, Note_on_c, 6, 66, 127
2, 161920, Note_off_c, 6, 66, 127
2, 161920, Note_off_c, 12, 47, 127
2, 161920, Note_off_c, 2, 50, 127
2, 161922, Note_on_c, 1, 49, 127
2, 161922, Note_on_c, 4, 52, 127
2, 161922, Note_on_c, 7, 67, 127
2, 162082, Note_off_c, 7, 67, 127
2, 162084, Note_on_c, 6, 66, 127
2, 162244, Note_off_c, 6, 66, 127
2, 162246, Note_on_c, 7, 67, 127
2, 162406, Note_off_c, 7, 67, 127
2, 162408, Note_on_c, 11, 70, 127
2, 162563, Note_off_c, 4, 52, 127
2, 162563, Note_off_c, 1, 49, 127
2, 162568, Note_off_c, 11, 70, 127
2, 162570, Note_on_c, 4, 76, 127
2, 162730, Note_off_c, 4, 76, 127
2, 162732, Note_on_c, 11, 70, 127
2, 162892, Note_off_c, 11, 70, 127
2, 162894, Note_on_c, 7, 67, 127
2, 163054, Note_off_c, 7, 67, 127
2, 163056, Note_on_c, 4, 76, 127
2, 163216, Note_off_c, 4, 76, 127
2, 163218, Note_on_c, 4, 52, 127
2, 163218, Note_on_c, 1, 49, 127
2, 163218, Note_on_c, 11, 70, 127
2, 163378, Note_off_c, 11, 70, 127
2, 163380, Note_on_c, 7, 67, 127
2, 163540, Note_off_c, 7, 67, 127
2, 163540, Note_off_c, 1, 49, 127
2, 163540, Note_off_c, 4, 52, 127
2, 163542, Note_on_c, 1, 49, 127
2, 163542, Note_on_c, 10, 45, 127
2, 163542, Note_on_c, 4, 64, 127
2, 163702, Note_off_c, 4, 64, 127
2, 163704, Note_on_c, 7, 67, 127
2, 163864, Note_off_c, 7, 67, 127
2, 163864, Note_off_c, 10, 45, 127
2, 163864, Note_off_c, 1, 49, 127
2, 163866, Note_on_c, 2, 50, 127
2, 163866, Note_on_c, 6, 66, 127
2, 164024, Note_off_c, 2, 50, 127
2, 164026, Note_on_c, 6, 54, 127
2, 164026, Note_on_c, 10, 69, 127
2, 164183, Note_off_c, 6, 66, 127
2, 164184, Note_off_c, 10, 69, 127
2, 164184, Note_off_c, 6, 54, 127
2, 164187, Note_on_c, 10, 45, 127
2, 164187, Note_on_c, 2, 62, 127
2, 164345, Note_off_c, 2, 62, 127
2, 164345, Note_off_c, 10, 45, 127
2, 164347, Note_on_c, 1, 49, 127
2, 164347, Note_on_c, 4, 64, 127
2, 164505, Note_off_c, 4, 64, 127
2, 164505, Note_off_c, 1, 49, 127
2, 164507, Note_on_c, 2, 50, 127
2, 164507, Note_on_c, 6, 66, 127
2, 164665, Note_off_c, 6, 66, 127
2, 164665, Note_off_c, 2, 50, 127
2, 164668, Note_on_c, 6, 54, 127
2, 164668, Note_on_c, 10, 69, 127
2, 164826, Note_off_c, 10, 69, 127
2, 164826, Note_off_c, 6, 54, 127
2, 164828, Note_on_c, 2, 50, 127
2, 164828, Note_on_c, 6, 66, 127
2, 164986, Note_off_c, 2, 50, 127
2, 164988, Note_on_c, 6, 54, 127
2, 164988, Note_on_c, 10, 69, 127
2, 165145, Note_off_c, 6, 66, 127
2, 165146, Note_off_c, 10, 69, 127
2, 165146, Note_off_c, 6, 54, 127
2, 165149, Note_on_c, 10, 45, 127
2, 165149, Note_on_c, 2, 62, 127
2, 165307, Note_off_c, 2, 62, 127
2, 165307, Note_off_c, 10, 45, 127
2, 165309, Note_on_c, 1, 49, 127
2, 165309, Note_on_c, 4, 64, 127
2, 165467, Note_off_c, 4, 64, 127
2, 165467, Note_off_c, 1, 49, 127
2, 165470, Note_on_c, 2, 50, 127
2, 165470, Note_on_c, 6, 66, 127
2, 165628, Note_off_c, 6, 66, 127
2, 165628, Note_off_c, 2, 50, 127
2, 165630, Note_on_c, 6, 54, 127
2, 165630, Note_on_c, 10, 69, 127
2, 165788, Note_off_c, 10, 69, 127
2, 165788, Note_off_c, 6, 54, 127
2, 165790, Note_on_c, 3, 51, 127
2, 165790, Note_on_c, 6, 66, 127
2, 165948, Note_off_c, 3, 51, 127
2, 165951, Note_on_c, 6, 54, 127
2, 165951, Note_on_c, 10, 69, 127
2, 166107, Note_off_c, 6, 66, 127
2, 166109, Note_off_c, 10, 69, 127
2, 166109, Note_off_c, 6, 54, 127
2, 166111, Note_on_c, 12, 47, 127
2, 166111, Note_on_c, 3, 63, 127
2, 166269, Note_off_c, 3, 63, 127
2, 166269, Note_off_c, 12, 47, 127
2, 166271, Note_on_c, 1, 49, 127
2, 166271, Note_on_c, 4, 64, 127
2, 166429, Note_off_c, 4, 64, 127
2, 166429, Note_off_c, 1, 49, 127
2, 166432, Note_on_c, 3, 51, 127
2, 166432, Note_on_c, 6, 66, 127
2, 166590, Note_off_c, 6, 66, 127
2, 166590, Note_off_c, 3, 51, 127
2, 166592, Note_on_c, 6, 54, 127
2, 166592, Note_on_c, 10, 69, 127
2, 166750, Note_off_c, 10, 69, 127
2, 166750, Note_off_c, 6, 54, 127
2, 166753, Note_on_c, 3, 51, 127
2, 166753, Note_on_c, 6, 66, 127
2, 166911, Note_off_c, 3, 51, 127
2, 166913, Note_on_c, 6, 54, 127
2, 166913, Note_on_c, 10, 69, 127
2, 167070, Note_off_c, 6, 66, 127
2, 167071, Note_off_c, 10, 69, 127
2, 167071, Note_off_c, 6, 54, 127
2, 167073, Note_on_c, 12, 47, 127
2, 167073, Note_on_c, 3, 63, 127
2, 167231, Note_off_c, 3, 63, 127
2, 167231, Note_off_c, 12, 47, 127
2, 167234, Note_on_c, 1, 49, 127
2, 167234, Note_on_c, 4, 64, 127
2, 167392, Note_off_c, 4, 64, 127
2, 167392, Note_off_c, 1, 49, 127
2, 167394, Note_on_c, 3, 51, 127
2, 167394, Note_on_c, 6, 66, 127
2, 167552, Note_off_c, 6, 66, 127
2, 167552, Note_off_c, 3, 51, 127
2, 167554, Note_on_c, 6, 54, 127
2, 167554, Note_on_c, 10, 69, 127
2, 167712, Note_off_c, 10, 69, 127
2, 167712, Note_off_c, 6, 54, 127
2, 167715, Note_on_c, 4, 52, 127
2, 167715, Note_on_c, 7, 67, 127
2, 167870, Note_off_c, 4, 52, 127
2, 167872, Note_on_c, 7, 55, 127
2, 167872, Note_on_c, 12, 71, 127
2, 168026, Note_off_c, 7, 67, 127
2, 168027, Note_off_c, 12, 71, 127
2, 168027, Note_off_c, 7, 55, 127
2, 168029, Note_on_c, 12, 47, 127
2, 168029, Note_on_c, 4, 64, 127
2, 168184, Note_off_c, 4, 64, 127
2, 168184, Note_off_c, 12, 47, 127
2, 168186, Note_on_c, 3, 51, 127
2, 168186, Note_on_c, 6, 66, 127
2, 168341, Note_off_c, 6, 66, 127
2, 168341, Note_off_c, 3, 51, 127
2, 168343, Note_on_c, 4, 52, 127
2, 168343, Note_on_c, 7, 67, 127
2, 168498, Note_off_c, 7, 67, 127
2, 168498, Note_off_c, 4, 52, 127
2, 168501, Note_on_c, 7, 55, 127
2, 168501, Note_on_c, 12, 71, 127
2, 168656, Note_off_c, 12, 71, 127
2, 168656, Note_off_c, 7, 55, 127
2, 168658, Note_on_c, 4, 52, 127
2, 168658, Note_on_c, 7, 67, 127
2, 168813, Note_off_c, 4, 52, 127
2, 168815, Note_on_c, 7, 55, 127
2, 168815, Note_on_c, 12, 71, 127
2, 168969, Note_off_c, 7, 67, 127
2, 168970, Note_off_c, 12, 71, 127
2, 168970, Note_off_c, 7, 55, 127
2, 168972, Note_on_c, 12, 47, 127
2, 168972, Note_on_c, 4, 64, 127
2, 169127, Note_off_c, 4, 64, 127
2, 169127, Note_off_c, 12, 47, 127
2, 169129, Note_on_c, 3, 51, 127
2, 169129, Note_on_c, 6, 66, 127
2, 169284, Note_off_c, 6, 66, 127
2, 169284, Note_off_c, 3, 51, 127
2, 169286, Note_on_c, 4, 52, 127
2, 169286, Note_on_c, 7, 67, 127
2, 169441, Note_off_c, 7, 67, 127
2, 169441, Note_off_c, 4, 52, 127
2, 169443, Note_on_c, 7, 55, 127
2, 169443, Note_on_c, 12, 71, 127
2, 169598, Note_off_c, 12, 71, 127
2, 169598, Note_off_c, 7, 55, 127
2, 169601, Note_on_c, 2, 50, 127
2, 169601, Note_on_c, 8, 68, 127
2, 169756, Note_off_c, 2, 50, 127
2, 169758, Note_on_c, 5, 53, 127
2, 169758, Note_on_c, 12, 71, 127
2, 169912, Note_off_c, 8, 68, 127
2, 169913, Note_off_c, 12, 71, 127
2, 169913, Note_off_c, 5, 53, 127
2, 169915, Note_on_c, 8, 44, 127
2, 169915, Note_on_c, 4, 64, 127
2, 170070, Note_off_c, 4, 64, 127
2, 170070, Note_off_c, 8, 44, 127
2, 170072, Note_on_c, 10, 45, 127
2, 170072, Note_on_c, 6, 66, 127
2, 170227, Note_off_c, 6, 66, 127
2, 170227, Note_off_c, 10, 45, 127
2, 170229, Note_on_c, 12, 47, 127
2, 170229, Note_on_c, 8, 68, 127
2, 170384, Note_off_c, 8, 68, 127
2, 170384, Note_off_c, 12, 47, 127
2, 170386, Note_on_c, 2, 50, 127
2, 170386, Note_on_c, 12, 71, 127
2, 170541, Note_off_c, 12, 71, 127
2, 170541, Note_off_c, 2, 50, 127
2, 170543, Note_on_c, 12, 47, 127
2, 170543, Note_on_c, 8, 68, 127
2, 170698, Note_off_c, 12, 47, 127
2, 170701, Note_on_c, 2, 50, 127
2, 170701, Note_on_c, 12, 71, 127
2, 170854, Note_off_c, 8, 68, 127
2, 170856, Note_off_c, 12, 71, 127
2, 170856, Note_off_c, 2, 50, 127
2, 170858, Note_on_c, 8, 44, 127
2, 170858, Note_on_c, 4, 64, 127
2, 171013, Note_off_c, 4, 64, 127
2, 171013, Note_off_c, 8, 44, 127
2, 171015, Note_on_c, 10, 45, 127
2, 171015, Note_on_c, 6, 66, 127
2, 171170, Note_off_c, 6, 66, 127
2, 171170, Note_off_c, 10, 45, 127
2, 171172, Note_on_c, 12, 47, 127
2, 171172, Note_on_c, 8, 68, 127
2, 171327, Note_off_c, 8, 68, 127
2, 171327, Note_off_c, 12, 47, 127
2, 171329, Note_on_c, 2, 50, 127
2, 171329, Note_on_c, 12, 71, 127
2, 171484, Note_off_c, 12, 71, 127
2, 171484, Note_off_c, 2, 50, 127
2, 171486, Note_on_c, 0, 48, 127
2, 171486, Note_on_c, 10, 69, 127
2, 171641, Note_off_c, 0, 48, 127
2, 171643, Note_on_c, 4, 52, 127
2, 171798, Note_off_c, 4, 52, 127
2, 171798, Note_off_c, 10, 69, 127
2, 171801, Note_on_c, 10, 45, 127
2, 171801, Note_on_c, 4, 64, 127
2, 171801, Note_on_c, 0, 72, 127
2, 171801, Note_on_c, 10, 69, 127
2, 171801, Note_on_c, 4, 76, 127
2, 171956, Note_off_c, 10, 45, 127
2, 171958, Note_on_c, 12, 47, 127
2, 172113, Note_off_c, 12, 47, 127
2, 172115, Note_on_c, 0, 48, 127
2, 172270, Note_off_c, 0, 48, 127
2, 172270, Note_off_c, 4, 76, 127
2, 172270, Note_off_c, 10, 69, 127
2, 172270, Note_off_c, 0, 72, 127
2, 172270, Note_off_c, 4, 64, 127
2, 172272, Note_on_c, 4, 52, 127
2, 172272, Note_on_c, 4, 76, 127
2, 172427, Note_off_c, 4, 76, 127
2, 172427, Note_off_c, 4, 52, 127
2, 172429, Note_on_c, 0, 48, 127
2, 172429, Note_on_c, 10, 69, 127
2, 172584, Note_off_c, 0, 48, 127
2, 172586, Note_on_c, 5, 53, 127
2, 172741, Note_off_c, 5, 53, 127
2, 172741, Note_off_c, 10, 69, 127
2, 172743, Note_on_c, 10, 45, 127
2, 172743, Note_on_c, 5, 77, 127
2, 172898, Note_off_c, 5, 77, 127
2, 172898, Note_off_c, 10, 45, 127
2, 172900, Note_on_c, 12, 47, 127
2, 172900, Note_on_c, 4, 76, 127
2, 173055, Note_off_c, 4, 76, 127
2, 173055, Note_off_c, 12, 47, 127
2, 173058, Note_on_c, 0, 48, 127
2, 173058, Note_on_c, 5, 77, 127
2, 173213, Note_off_c, 5, 77, 127
2, 173213, Note_off_c, 0, 48, 127
2, 173215, Note_on_c, 5, 53, 127
2, 173215, Note_on_c, 2, 74, 127
2, 173370, Note_off_c, 2, 74, 127
2, 173370, Note_off_c, 5, 53, 127
2, 173372, Note_on_c, 2, 50, 127
2, 173372, Note_on_c, 8, 68, 127
2, 173527, Note_off_c, 2, 50, 127
2, 173529, Note_on_c, 5, 53, 127
2, 173684, Note_off_c, 5, 53, 127
2, 173684, Note_off_c, 8, 68, 127
2, 173686, Note_on_c, 12, 47, 127
2, 173686, Note_on_c, 12, 71, 127
2, 173841, Note_off_c, 12, 47, 127
2, 173843, Note_on_c, 0, 48, 127
2, 173998, Note_off_c, 0, 48, 127
2, 174000, Note_on_c, 2, 50, 127
2, 174155, Note_off_c, 2, 50, 127
2, 174155, Note_off_c, 12, 71, 127
2, 174158, Note_on_c, 5, 53, 127
2, 174158, Note_on_c, 12, 71, 127
2, 174313, Note_off_c, 12, 71, 127
2, 174313, Note_off_c, 5, 53, 127
2, 174315, Note_on_c, 8, 56, 127
2, 174315, Note_on_c, 4, 64, 127
2, 174470, Note_off_c, 8, 56, 127
2, 174472, Note_on_c, 12, 59, 127
2, 174627, Note_off_c, 12, 59, 127
2, 174627, Note_off_c, 4, 64, 127
2, 174629, Note_on_c, 4, 52, 127
2, 174629, Note_on_c, 4, 76, 127
2, 174784, Note_off_c, 4, 76, 127
2, 174784, Note_off_c, 4, 52, 127
2, 174786, Note_on_c, 6, 54, 127
2, 174786, Note_on_c, 2, 74, 127
2, 174941, Note_off_c, 2, 74, 127
2, 174941, Note_off_c, 6, 54, 127
2, 174943, Note_on_c, 8, 56, 127
2, 174943, Note_on_c, 4, 76, 127
2, 175098, Note_off_c, 4, 76, 127
2, 175098, Note_off_c, 8, 56, 127
2, 175100, Note_on_c, 4, 52, 127
2, 175100, Note_on_c, 12, 71, 127
2, 175255, Note_off_c, 12, 71, 127
2, 175255, Note_off_c, 4, 52, 127
2, 175258, Note_on_c, 10, 57, 127
2, 175258, Note_on_c, 0, 72, 127
2, 175413, Note_off_c, 0, 72, 127
2, 175415, Note_on_c, 4, 76, 127
2, 175570, Note_off_c, 4, 76, 127
2, 175570, Note_off_c, 10, 57, 127
2, 175572, Note_on_c, 10, 57, 127
2, 175572, Note_on_c, 10, 69, 127
2, 175649, Note_off_c, 10, 57, 127
2, 175651, Note_on_c, 8, 56, 127
2, 175728, Note_off_c, 8, 56, 127
2, 175729, Note_off_c, 10, 69, 127
2, 175731, Note_on_c, 10, 57, 127
2, 175731, Note_on_c, 12, 71, 127
2, 175886, Note_off_c, 12, 71, 127
2, 175888, Note_on_c, 0, 72, 127
2, 176043, Note_off_c, 0, 72, 127
2, 176043, Note_off_c, 10, 57, 127
2, 176045, Note_on_c, 10, 57, 127
2, 176045, Note_on_c, 4, 76, 127
2, 176200, Note_off_c, 4, 76, 127
2, 176200, Note_off_c, 10, 57, 127
2, 176202, Note_on_c, 4, 52, 127
2, 176202, Note_on_c, 0, 72, 127
2, 176357, Note_off_c, 0, 72, 127
2, 176359, Note_on_c, 4, 76, 127
2, 176514, Note_off_c, 4, 76, 127
2, 176514, Note_off_c, 4, 52, 127
2, 176516, Note_on_c, 0, 60, 127
2, 176516, Note_on_c, 6, 66, 127
2, 176671, Note_off_c, 6, 66, 127
2, 176671, Note_off_c, 0, 60, 127
2, 176673, Note_on_c, 12, 59, 127
2, 176673, Note_on_c, 7, 67, 127
2, 176828, Note_off_c, 7, 67, 127
2, 176828, Note_off_c, 12, 59, 127
2, 176831, Note_on_c, 0, 60, 127
2, 176831, Note_on_c, 10, 69, 127
2, 176986, Note_off_c, 10, 69, 127
2, 176986, Note_off_c, 0, 60, 127
2, 176988, Note_on_c, 10, 57, 127
2, 176988, Note_on_c, 0, 72, 127
2, 177143, Note_off_c, 0, 72, 127
2, 177143, Note_off_c, 10, 57, 127
2, 177145, Note_on_c, 3, 51, 127
2, 177145, Note_on_c, 10, 69, 127
2, 177300, Note_off_c, 10, 69, 127
2, 177302, Note_on_c, 0, 72, 127
2, 177457, Note_off_c, 0, 72, 127
2, 177457, Note_off_c, 3, 51, 127
2, 177459, Note_on_c, 6, 54, 127
2, 177459, Note_on_c, 3, 63, 127
2, 177536, Note_off_c, 6, 54, 127
2, 177539, Note_on_c, 4, 52, 127
2, 177616, Note_off_c, 4, 52, 127
2, 177616, Note_off_c, 3, 63, 127
2, 177618, Note_on_c, 6, 54, 127
2, 177618, Note_on_c, 4, 64, 127
2, 177773, Note_off_c, 4, 64, 127
2, 177775, Note_on_c, 6, 66, 127
2, 177930, Note_off_c, 6, 66, 127
2, 177930, Note_off_c, 6, 54, 127
2, 177932, Note_on_c, 6, 54, 127
2, 177932, Note_on_c, 10, 69, 127
2, 178087, Note_off_c, 10, 69, 127
2, 178087, Note_off_c, 6, 54, 127
2, 178089, Note_on_c, 12, 47, 127
2, 178089, Note_on_c, 6, 66, 127
2, 178244, Note_off_c, 6, 66, 127
2, 178246, Note_on_c, 10, 69, 127
2, 178401, Note_off_c, 10, 69, 127
2, 178401, Note_off_c, 12, 47, 127
2, 178404, Note_on_c, 12, 59, 127
2, 178404, Note_on_c, 3, 63, 127
2, 178559, Note_off_c, 3, 63, 127
2, 178559, Note_off_c, 12, 59, 127
2, 178561, Note_on_c, 10, 57, 127
2, 178561, Note_on_c, 6, 66, 127
2, 178716, Note_off_c, 6, 66, 127
2, 178716, Note_off_c, 10, 57, 127
2, 178718, Note_on_c, 12, 59, 127
2, 178718, Note_on_c, 7, 67, 127
2, 178873, Note_off_c, 7, 67, 127
2, 178873, Note_off_c, 12, 59, 127
2, 178875, Note_on_c, 6, 54, 127
2, 178875, Note_on_c, 10, 69, 127
2, 179030, Note_off_c, 10, 69, 127
2, 179030, Note_off_c, 6, 54, 127
2, 179032, Note_on_c, 8, 56, 127
2, 179032, Note_on_c, 12, 71, 127
2, 179187, Note_off_c, 12, 71, 127
2, 179189, Note_on_c, 8, 68, 127
2, 179343, Note_off_c, 8, 56, 127
2, 179344, Note_off_c, 8, 68, 127
2, 179346, Note_on_c, 4, 64, 127
2, 179501, Note_off_c, 4, 64, 127
2, 179504, Note_on_c, 10, 57, 127
2, 179504, Note_on_c, 12, 59, 127
2, 179659, Note_off_c, 12, 59, 127
2, 179659, Note_off_c, 10, 57, 127
2, 179661, Note_on_c, 8, 56, 127
2, 179661, Note_on_c, 2, 62, 127
2, 179816, Note_off_c, 8, 56, 127
2, 179818, Note_on_c, 6, 54, 127
2, 179973, Note_off_c, 6, 54, 127
2, 179975, Note_on_c, 4, 52, 127
2, 180087, Note_off_c, 2, 62, 127
2, 180130, Note_off_c, 4, 52, 127
2, 180132, Note_on_c, 2, 50, 127
2, 180132, Note_on_c, 5, 65, 127
2, 180287, Note_off_c, 5, 65, 127
2, 180287, Note_off_c, 2, 50, 127
2, 180289, Note_on_c, 0, 48, 127
2, 180289, Note_on_c, 4, 64, 127
2, 180444, Note_off_c, 4, 64, 127
2, 180444, Note_off_c, 0, 48, 127
2, 180446, Note_on_c, 12, 47, 127
2, 180446, Note_on_c, 2, 62, 127
2, 180601, Note_off_c, 2, 62, 127
2, 180601, Note_off_c, 12, 47, 127
2, 180604, Note_on_c, 10, 45, 127
2, 180604, Note_on_c, 0, 60, 127
2, 180759, Note_off_c, 0, 60, 127
2, 180759, Note_off_c, 10, 45, 127
2, 180761, Note_on_c, 8, 44, 127
2, 180761, Note_on_c, 12, 59, 127
2, 180916, Note_off_c, 12, 59, 127
2, 180916, Note_off_c, 8, 44, 127
2, 180918, Note_on_c, 10, 45, 127
2, 180918, Note_on_c, 0, 60, 127
2, 181073, Note_off_c, 10, 45, 127
2, 181075, Note_on_c, 0, 48, 127
2, 181230, Note_off_c, 0, 48, 127
2, 181232, Note_on_c, 4, 52, 127
2, 181311, Note_off_c, 0, 60, 127
2, 181389, Note_off_c, 4, 52, 127
2, 181391, Note_on_c, 10, 57, 127
2, 181391, Note_on_c, 0, 60, 127
2, 181546, Note_off_c, 0, 60, 127
2, 181546, Note_off_c, 10, 57, 127
2, 181548, Note_on_c, 3, 51, 127
2, 181548, Note_on_c, 12, 59, 127
2, 181703, Note_off_c, 12, 59, 127
2, 181705, Note_on_c, 10, 57, 127
2, 181860, Note_off_c, 10, 57, 127
2, 181862, Note_on_c, 6, 66, 127
2, 182017, Note_off_c, 3, 51, 127
2, 182019, Note_on_c, 12, 47, 127
2, 182174, Note_off_c, 12, 47, 127
2, 182177, Note_on_c, 1, 49, 127
2, 182255, Note_off_c, 6, 66, 127
2, 182334, Note_off_c, 1, 49, 127
2, 182335, Note_on_c, 3, 51, 127
2, 182335, Note_on_c, 6, 66, 127
2, 182490, Note_off_c, 6, 66, 127
2, 182490, Note_off_c, 3, 51, 127
2, 182493, Note_on_c, 4, 52, 127
2, 182493, Note_on_c, 4, 64, 127
2, 182648, Note_off_c, 4, 64, 127
2, 182648, Note_off_c, 4, 52, 127
2, 182650, Note_on_c, 6, 54, 127
2, 182650, Note_on_c, 3, 63, 127
2, 182805, Note_off_c, 3, 63, 127
2, 182805, Note_off_c, 6, 54, 127
2, 182807, Note_on_c, 7, 55, 127
2, 182807, Note_on_c, 12, 71, 127
2, 182962, Note_off_c, 7, 55, 127
2, 182964, Note_on_c, 4, 52, 127
2, 183119, Note_off_c, 4, 52, 127
2, 183121, Note_on_c, 6, 54, 127
2, 183200, Note_off_c, 12, 71, 127
2, 183278, Note_off_c, 6, 54, 127
2, 183280, Note_on_c, 7, 55, 127
2, 183280, Note_on_c, 10, 69, 127
2, 183435, Note_off_c, 10, 69, 127
2, 183435, Note_off_c, 7, 55, 127
2, 183437, Note_on_c, 10, 57, 127
2, 183437, Note_on_c, 7, 67, 127
2, 183592, Note_off_c, 7, 67, 127
2, 183592, Note_off_c, 10, 57, 127
2, 183594, Note_on_c, 12, 59, 127
2, 183594, Note_on_c, 6, 66, 127
2, 183749, Note_off_c, 6, 66, 127
2, 183749, Note_off_c, 12, 59, 127
2, 183751, Note_on_c, 0, 60, 127
2, 183751, Note_on_c, 4, 64, 127
2, 183906, Note_off_c, 4, 64, 127
2, 183908, Note_on_c, 7, 67, 127
2, 184063, Note_off_c, 7, 67, 127
2, 184066, Note_on_c, 12, 71, 127
2, 184209, Note_off_c, 0, 60, 127
2, 184221, Note_off_c, 12, 71, 127
2, 184223, Note_on_c, 1, 61, 127
2, 184223, Note_on_c, 4, 76, 127
2, 184378, Note_off_c, 4, 76, 127
2, 184378, Note_off_c, 1, 61, 127
2, 184380, Note_on_c, 2, 62, 127
2, 184380, Note_on_c, 11, 70, 127
2, 184535, Note_off_c, 2, 62, 127
2, 184537, Note_on_c, 4, 64, 127
2, 184692, Note_off_c, 4, 64, 127
2, 184694, Note_on_c, 6, 54, 127
2, 184849, Note_off_c, 11, 70, 127
2, 184851, Note_on_c, 6, 66, 127
2, 185006, Note_off_c, 6, 66, 127
2, 185008, Note_on_c, 8, 68, 127
2, 185163, Note_off_c, 8, 68, 127
2, 185163, Note_off_c, 6, 54, 127
2, 185166, Note_on_c, 6, 54, 127
2, 185166, Note_on_c, 11, 70, 127
2, 185321, Note_off_c, 11, 70, 127
2, 185321, Note_off_c, 6, 54, 127
2, 185323, Note_on_c, 8, 56, 127
2, 185323, Note_on_c, 12, 71, 127
2, 185478, Note_off_c, 12, 71, 127
2, 185478, Note_off_c, 8, 56, 127
2, 185480, Note_on_c, 11, 58, 127
2, 185480, Note_on_c, 1, 73, 127
2, 185635, Note_off_c, 1, 73, 127
2, 185635, Note_off_c, 11, 58, 127
2, 185637, Note_on_c, 12, 47, 127
2, 185637, Note_on_c, 3, 75, 127
2, 185792, Note_off_c, 3, 75, 127
2, 185794, Note_on_c, 12, 71, 127
2, 185949, Note_off_c, 12, 71, 127
2, 185951, Note_on_c, 1, 73, 127
2, 186106, Note_off_c, 1, 73, 127
2, 186106, Note_off_c, 12, 47, 127
2, 186108, Note_on_c, 12, 47, 127
2, 186108, Note_on_c, 3, 75, 127
2, 186263, Note_off_c, 3, 75, 127
2, 186263, Note_off_c, 12, 47, 127
2, 186265, Note_on_c, 1, 49, 127
2, 186265, Note_on_c, 4, 76, 127
2, 186420, Note_off_c, 4, 76, 127
2, 186420, Note_off_c, 1, 49, 127
2, 186423, Note_on_c, 3, 51, 127
2, 186423, Note_on_c, 6, 78, 127
2, 186578, Note_off_c, 6, 78, 127
2, 186578, Note_off_c, 3, 51, 127
2, 186580, Note_on_c, 4, 40, 127
2, 186580, Note_on_c, 7, 79, 127
2, 186735, Note_off_c, 7, 79, 127
2, 186737, Note_on_c, 4, 76, 127
2, 186892, Note_off_c, 4, 76, 127
2, 186892, Note_off_c, 4, 40, 127
2, 186894, Note_on_c, 4, 64, 127
2, 186894, Note_on_c, 6, 78, 127
2, 186971, Note_off_c, 4, 64, 127
2, 186973, Note_on_c, 2, 62, 127
2, 187050, Note_off_c, 2, 62, 127
2, 187051, Note_off_c, 6, 78, 127
2, 187053, Note_on_c, 4, 64, 127
2, 187053, Note_on_c, 7, 79, 127
2, 187208, Note_off_c, 7, 79, 127
2, 187210, Note_on_c, 10, 81, 127
2, 187365, Note_off_c, 10, 81, 127
2, 187365, Note_off_c, 4, 64, 127
2, 187367, Note_on_c, 4, 64, 127
2, 187367, Note_on_c, 12, 83, 127
2, 187522, Note_off_c, 12, 83, 127
2, 187522, Note_off_c, 4, 64, 127
2, 187524, Note_on_c, 10, 57, 127
2, 187524, Note_on_c, 0, 84, 127
2, 187681, Note_on_c, 12, 83, 127
2, 187836, Note_off_c, 12, 83, 127
2, 187836, Note_off_c, 10, 57, 127
2, 187839, Note_on_c, 6, 66, 127
2, 187839, Note_on_c, 10, 81, 127
2, 187994, Note_off_c, 10, 81, 127
2, 187994, Note_off_c, 6, 66, 127
2, 187996, Note_on_c, 4, 64, 127
2, 187996, Note_on_c, 7, 79, 127
2, 188151, Note_off_c, 7, 79, 127
2, 188151, Note_off_c, 4, 64, 127
2, 188153, Note_on_c, 6, 66, 127
2, 188153, Note_on_c, 10, 81, 127
2, 188308, Note_off_c, 10, 81, 127
2, 188308, Note_off_c, 6, 66, 127
2, 188310, Note_on_c, 2, 62, 127
2, 188310, Note_on_c, 6, 78, 127
2, 188465, Note_off_c, 2, 62, 127
2, 188465, Note_off_c, 0, 84, 127
2, 188467, Note_on_c, 7, 55, 127
2, 188467, Note_on_c, 12, 83, 127
2, 188622, Note_off_c, 12, 83, 127
2, 188624, Note_on_c, 10, 81, 127
2, 188779, Note_off_c, 10, 81, 127
2, 188779, Note_off_c, 7, 55, 127
2, 188781, Note_on_c, 0, 60, 127
2, 188781, Note_on_c, 7, 79, 127
2, 188858, Note_off_c, 0, 60, 127
2, 188861, Note_on_c, 12, 59, 127
2, 188933, Note_off_c, 6, 78, 127
2, 188938, Note_off_c, 12, 59, 127
2, 188940, Note_on_c, 0, 60, 127
2, 188940, Note_on_c, 6, 78, 127
2, 189095, Note_off_c, 6, 78, 127
2, 189097, Note_on_c, 4, 76, 127
2, 189241, Note_off_c, 7, 79, 127
2, 189252, Note_off_c, 0, 60, 127
2, 189254, Note_on_c, 0, 60, 127
2, 189254, Note_on_c, 12, 83, 127
2, 189409, Note_off_c, 12, 83, 127
2, 189409, Note_off_c, 0, 60, 127
2, 189412, Note_on_c, 6, 54, 127
2, 189412, Note_on_c, 10, 81, 127
2, 189555, Note_off_c, 4, 76, 127
2, 189569, Note_on_c, 7, 79, 127
2, 189724, Note_off_c, 7, 79, 127
2, 189724, Note_off_c, 6, 54, 127
2, 189726, Note_on_c, 2, 62, 127
2, 189726, Note_on_c, 6, 78, 127
2, 189881, Note_off_c, 6, 78, 127
2, 189881, Note_off_c, 2, 62, 127
2, 189883, Note_on_c, 0, 60, 127
2, 189883, Note_on_c, 4, 76, 127
2, 190038, Note_off_c, 4, 76, 127
2, 190038, Note_off_c, 0, 60, 127
2, 190040, Note_on_c, 2, 62, 127
2, 190040, Note_on_c, 6, 78, 127
2, 190195, Note_off_c, 6, 78, 127
2, 190195, Note_off_c, 2, 62, 127
2, 190197, Note_on_c, 12, 59, 127
2, 190197, Note_on_c, 2, 74, 127
2, 190352, Note_off_c, 12, 59, 127
2, 190353, Note_off_c, 10, 81, 127
2, 190354, Note_on_c, 4, 52, 127
2, 190354, Note_on_c, 7, 79, 127
2, 190509, Note_off_c, 7, 79, 127
2, 190512, Note_on_c, 6, 78, 127
2, 190666, Note_off_c, 4, 52, 127
2, 190667, Note_off_c, 6, 78, 127
2, 190669, Note_on_c, 10, 57, 127
2, 190669, Note_on_c, 4, 76, 127
2, 190746, Note_off_c, 10, 57, 127
2, 190748, Note_on_c, 7, 55, 127
2, 190820, Note_off_c, 2, 74, 127
2, 190825, Note_off_c, 7, 55, 127
2, 190827, Note_on_c, 10, 57, 127
2, 190827, Note_on_c, 2, 74, 127
2, 190982, Note_off_c, 2, 74, 127
2, 190985, Note_on_c, 0, 72, 127
2, 191129, Note_off_c, 4, 76, 127
2, 191139, Note_off_c, 10, 57, 127
2, 191142, Note_on_c, 10, 57, 127
2, 191142, Note_on_c, 7, 79, 127
2, 191297, Note_off_c, 7, 79, 127
2, 191297, Note_off_c, 10, 57, 127
2, 191299, Note_on_c, 2, 50, 127
2, 191299, Note_on_c, 6, 78, 127
2, 191443, Note_off_c, 0, 72, 127
2, 191456, Note_on_c, 4, 76, 127
2, 191611, Note_off_c, 4, 76, 127
2, 191611, Note_off_c, 2, 50, 127
2, 191613, Note_on_c, 12, 59, 127
2, 191613, Note_on_c, 2, 74, 127
2, 191768, Note_off_c, 2, 74, 127
2, 191768, Note_off_c, 12, 59, 127
2, 191770, Note_on_c, 10, 57, 127
2, 191770, Note_on_c, 0, 72, 127
2, 191925, Note_off_c, 0, 72, 127
2, 191925, Note_off_c, 10, 57, 127
2, 191927, Note_on_c, 12, 59, 127
2, 191927, Note_on_c, 2, 74, 127
2, 192082, Note_off_c, 2, 74, 127
2, 192082, Note_off_c, 12, 59, 127
2, 192085, Note_on_c, 7, 55, 127
2, 192085, Note_on_c, 12, 71, 127
2, 192240, Note_off_c, 7, 55, 127
2, 192240, Note_off_c, 6, 78, 127
2, 192242, Note_on_c, 1, 49, 127
2, 192242, Note_on_c, 4, 76, 127
2, 192397, Note_off_c, 4, 76, 127
2, 192399, Note_on_c, 2, 74, 127
2, 192554, Note_off_c, 2, 74, 127
2, 192554, Note_off_c, 1, 49, 127
2, 192556, Note_on_c, 6, 54, 127
2, 192556, Note_on_c, 1, 73, 127
2, 192633, Note_off_c, 6, 54, 127
2, 192635, Note_on_c, 4, 52, 127
2, 192708, Note_off_c, 12, 71, 127
2, 192712, Note_off_c, 4, 52, 127
2, 192715, Note_on_c, 6, 54, 127
2, 192715, Note_on_c, 12, 71, 127
2, 192870, Note_off_c, 12, 71, 127
2, 192872, Note_on_c, 10, 69, 127
2, 193016, Note_off_c, 1, 73, 127
2, 193027, Note_off_c, 6, 54, 127
2, 193029, Note_on_c, 6, 54, 127
2, 193029, Note_on_c, 4, 76, 127
2, 193184, Note_off_c, 4, 76, 127
2, 193184, Note_off_c, 6, 54, 127
2, 193186, Note_on_c, 12, 47, 127
2, 193186, Note_on_c, 3, 75, 127
2, 193330, Note_off_c, 10, 69, 127
2, 193343, Note_on_c, 0, 72, 127
2, 193497, Note_off_c, 3, 75, 127
2, 193498, Note_off_c, 0, 72, 127
2, 193498, Note_off_c, 12, 47, 127
2, 193500, Note_on_c, 8, 56, 127
2, 193500, Note_on_c, 12, 71, 127
2, 193500, Note_on_c, 2, 74, 127
2, 193655, Note_off_c, 12, 71, 127
2, 193655, Note_off_c, 8, 56, 127
2, 193658, Note_on_c, 6, 54, 127
2, 193658, Note_on_c, 10, 69, 127
2, 193813, Note_off_c, 10, 69, 127
2, 193813, Note_off_c, 6, 54, 127
2, 193815, Note_on_c, 8, 56, 127
2, 193815, Note_on_c, 12, 71, 127
2, 193970, Note_off_c, 12, 71, 127
2, 193970, Note_off_c, 8, 56, 127
2, 193972, Note_on_c, 4, 52, 127
2, 193972, Note_on_c, 8, 68, 127
2, 194127, Note_off_c, 8, 68, 127
2, 194127, Note_off_c, 4, 52, 127
2, 194129, Note_on_c, 10, 45, 127
2, 194129, Note_on_c, 4, 64, 127
2, 194285, Note_off_c, 2, 74, 127
2, 194286, Note_on_c, 2, 74, 127
2, 194441, Note_off_c, 2, 74, 127
2, 194443, Note_on_c, 0, 72, 127
2, 194598, Note_off_c, 0, 72, 127
2, 194598, Note_off_c, 10, 45, 127
2, 194600, Note_on_c, 12, 47, 127
2, 194600, Note_on_c, 12, 71, 127
2, 194755, Note_off_c, 12, 71, 127
2, 194755, Note_off_c, 12, 47, 127
2, 194758, Note_on_c, 0, 48, 127
2, 194758, Note_on_c, 10, 69, 127
2, 194913, Note_off_c, 10, 69, 127
2, 194915, Note_on_c, 8, 68, 127
2, 195070, Note_off_c, 8, 68, 127
2, 195072, Note_on_c, 10, 69, 127
2, 195227, Note_off_c, 10, 69, 127
2, 195227, Note_off_c, 0, 48, 127
2, 195229, Note_on_c, 2, 50, 127
2, 195229, Note_on_c, 12, 71, 127
2, 195384, Note_off_c, 12, 71, 127
2, 195384, Note_off_c, 2, 50, 127
2, 195384, Note_off_c, 4, 64, 127
2, 195386, Note_on_c, 4, 52, 127
2, 195386, Note_on_c, 0, 72, 127
2, 195386, Note_on_c, 8, 68, 127
2, 195463, Note_off_c, 0, 72, 127
2, 195465, Note_on_c, 12, 71, 127
2, 195542, Note_off_c, 12, 71, 127
2, 195543, Note_off_c, 4, 52, 127
2, 195545, Note_on_c, 2, 50, 127
2, 195545, Note_on_c, 0, 72, 127
2, 195622, Note_off_c, 0, 72, 127
2, 195624, Note_on_c, 12, 71, 127
2, 195701, Note_off_c, 12, 71, 127
2, 195702, Note_off_c, 2, 50, 127
2, 195704, Note_on_c, 4, 52, 127
2, 195704, Note_on_c, 0, 72, 127
2, 195781, Note_off_c, 0, 72, 127
2, 195783, Note_on_c, 12, 71, 127
2, 195849, Note_off_c, 8, 68, 127
2, 195860, Note_off_c, 12, 71, 127
2, 195861, Note_off_c, 4, 52, 127
2, 195862, Note_on_c, 4, 40, 127
2, 195862, Note_on_c, 10, 69, 127
2, 195939, Note_off_c, 10, 69, 127
2, 195942, Note_on_c, 12, 71, 127
2, 196019, Note_off_c, 12, 71, 127
2, 196019, Note_off_c, 4, 40, 127
2, 196021, Note_on_c, 10, 45, 127
2, 196021, Note_on_c, 0, 72, 127
2, 196178, Note_on_c, 8, 68, 127
2, 196333, Note_off_c, 8, 68, 127
2, 196333, Note_off_c, 10, 45, 127
2, 196335, Note_on_c, 10, 57, 127
2, 196335, Note_on_c, 10, 69, 127
2, 196490, Note_off_c, 10, 69, 127
2, 196493, Note_on_c, 4, 64, 127
2, 196643, Note_off_c, 0, 72, 127
2, 196648, Note_off_c, 4, 64, 127
2, 196650, Note_on_c, 7, 67, 127
2, 196804, Note_off_c, 10, 57, 127
2, 196807, Note_on_c, 7, 55, 127
2, 196807, Note_on_c, 1, 73, 127
2, 196961, Note_off_c, 7, 67, 127
2, 196962, Note_off_c, 1, 73, 127
2, 196962, Note_off_c, 7, 55, 127
2, 196964, Note_on_c, 6, 54, 127
2, 196964, Note_on_c, 2, 74, 127
2, 197119, Note_off_c, 2, 74, 127
2, 197119, Note_off_c, 6, 54, 127
2, 197121, Note_on_c, 7, 55, 127
2, 197121, Note_on_c, 4, 76, 127
2, 197276, Note_off_c, 4, 76, 127
2, 197276, Note_off_c, 7, 55, 127
2, 197278, Note_on_c, 10, 57, 127
2, 197278, Note_on_c, 6, 78, 127
2, 197278, Note_on_c, 1, 73, 127
2, 197355, Note_off_c, 6, 78, 127
2, 197358, Note_on_c, 4, 76, 127
2, 197435, Note_off_c, 4, 76, 127
2, 197435, Note_off_c, 10, 57, 127
2, 197437, Note_on_c, 7, 55, 127
2, 197437, Note_on_c, 6, 78, 127
2, 197514, Note_off_c, 6, 78, 127
2, 197516, Note_on_c, 4, 76, 127
2, 197593, Note_off_c, 4, 76, 127
2, 197594, Note_off_c, 7, 55, 127
2, 197596, Note_on_c, 10, 57, 127
2, 197596, Note_on_c, 6, 78, 127
2, 197673, Note_off_c, 6, 78, 127
2, 197675, Note_on_c, 4, 76, 127
2, 197752, Note_off_c, 4, 76, 127
2, 197753, Note_off_c, 10, 57, 127
2, 197755, Note_on_c, 10, 45, 127
2, 197755, Note_on_c, 2, 74, 127
2, 197832, Note_off_c, 2, 74, 127
2, 197834, Note_on_c, 4, 76, 127
2, 197906, Note_off_c, 1, 73, 127
2, 197911, Note_off_c, 4, 76, 127
2, 197912, Note_off_c, 10, 45, 127
2, 197913, Note_on_c, 2, 50, 127
2, 197913, Note_on_c, 6, 78, 127
2, 198070, Note_on_c, 1, 73, 127
2, 198225, Note_off_c, 1, 73, 127
2, 198225, Note_off_c, 2, 50, 127
2, 198228, Note_on_c, 2, 62, 127
2, 198228, Note_on_c, 2, 74, 127
2, 198383, Note_off_c, 2, 74, 127
2, 198385, Note_on_c, 10, 69, 127
2, 198535, Note_off_c, 6, 78, 127
2, 198540, Note_off_c, 10, 69, 127
2, 198542, Note_on_c, 0, 72, 127
2, 198697, Note_off_c, 2, 62, 127
2, 198699, Note_on_c, 0, 60, 127
2, 198699, Note_on_c, 6, 78, 127
2, 198853, Note_off_c, 0, 72, 127
2, 198854, Note_off_c, 6, 78, 127
2, 198854, Note_off_c, 0, 60, 127
2, 198856, Note_on_c, 12, 59, 127
2, 198856, Note_on_c, 7, 79, 127
2, 199011, Note_off_c, 7, 79, 127
2, 199011, Note_off_c, 12, 59, 127
2, 199013, Note_on_c, 0, 60, 127
2, 199013, Note_on_c, 10, 81, 127
2, 199168, Note_off_c, 10, 81, 127
2, 199168, Note_off_c, 0, 60, 127
2, 199170, Note_on_c, 2, 62, 127
2, 199170, Note_on_c, 6, 78, 127
2, 199170, Note_on_c, 12, 83, 127
2, 199247, Note_off_c, 12, 83, 127
2, 199250, Note_on_c, 10, 81, 127
2, 199327, Note_off_c, 10, 81, 127
2, 199327, Note_off_c, 2, 62, 127
2, 199329, Note_on_c, 0, 60, 127
2, 199329, Note_on_c, 12, 83, 127
2, 199406, Note_off_c, 12, 83, 127
2, 199409, Note_on_c, 10, 81, 127
2, 199486, Note_off_c, 10, 81, 127
2, 199486, Note_off_c, 0, 60, 127
2, 199488, Note_on_c, 2, 62, 127
2, 199488, Note_on_c, 12, 83, 127
2, 199565, Note_off_c, 12, 83, 127
2, 199567, Note_on_c, 10, 81, 127
2, 199644, Note_off_c, 10, 81, 127
2, 199645, Note_off_c, 2, 62, 127
2, 199647, Note_on_c, 2, 50, 127
2, 199647, Note_on_c, 7, 79, 127
2, 199724, Note_off_c, 7, 79, 127
2, 199726, Note_on_c, 10, 81, 127
2, 199798, Note_off_c, 6, 78, 127
2, 199803, Note_off_c, 10, 81, 127
2, 199804, Note_off_c, 2, 50, 127
2, 199805, Note_on_c, 7, 55, 127
2, 199805, Note_on_c, 12, 83, 127
2, 199960, Note_off_c, 7, 55, 127
2, 199963, Note_on_c, 10, 57, 127
2, 199963, Note_on_c, 6, 78, 127
2, 200116, Note_off_c, 12, 83, 127
2, 200118, Note_off_c, 6, 78, 127
2, 200118, Note_off_c, 10, 57, 127
2, 200120, Note_on_c, 12, 59, 127
2, 200120, Note_on_c, 7, 79, 127
2, 200275, Note_off_c, 12, 59, 127
2, 200277, Note_on_c, 6, 54, 127
2, 200277, Note_on_c, 3, 75, 127
2, 200432, Note_off_c, 3, 75, 127
2, 200432, Note_off_c, 6, 54, 127
2, 200434, Note_on_c, 7, 55, 127
2, 200434, Note_on_c, 4, 76, 127
2, 200578, Note_off_c, 7, 79, 127
2, 200589, Note_off_c, 4, 76, 127
2, 200589, Note_off_c, 7, 55, 127
2, 200591, Note_on_c, 4, 52, 127
2, 200591, Note_on_c, 7, 79, 127
2, 200746, Note_off_c, 7, 79, 127
2, 200746, Note_off_c, 4, 52, 127
2, 200748, Note_on_c, 0, 60, 127
2, 200748, Note_on_c, 10, 69, 127
2, 200905, Note_on_c, 0, 72, 127
2, 201060, Note_off_c, 0, 72, 127
2, 201063, Note_on_c, 3, 75, 127
2, 201206, Note_off_c, 10, 69, 127
2, 201217, Note_off_c, 0, 60, 127
2, 201218, Note_off_c, 3, 75, 127
2, 201220, Note_on_c, 0, 60, 127
2, 201220, Note_on_c, 4, 76, 127
2, 201375, Note_off_c, 4, 76, 127
2, 201375, Note_off_c, 0, 60, 127
2, 201377, Note_on_c, 10, 57, 127
2, 201377, Note_on_c, 6, 78, 127
2, 201532, Note_off_c, 6, 78, 127
2, 201532, Note_off_c, 10, 57, 127
2, 201534, Note_on_c, 6, 54, 127
2, 201534, Note_on_c, 7, 79, 127
2, 201689, Note_off_c, 7, 79, 127
2, 201689, Note_off_c, 6, 54, 127
2, 201691, Note_on_c, 3, 51, 127
2, 201691, Note_on_c, 10, 81, 127
2, 201846, Note_off_c, 3, 51, 127
2, 201848, Note_on_c, 6, 54, 127
2, 202003, Note_off_c, 6, 54, 127
2, 202005, Note_on_c, 12, 59, 127
2, 202005, Note_on_c, 12, 71, 127
2, 202160, Note_off_c, 12, 59, 127
2, 202163, Note_on_c, 6, 54, 127
2, 202313, Note_off_c, 10, 81, 127
2, 202318, Note_off_c, 6, 54, 127
2, 202320, Note_on_c, 4, 52, 127
2, 202320, Note_on_c, 10, 81, 127
2, 202475, Note_off_c, 4, 52, 127
2, 202477, Note_on_c, 3, 51, 127
2, 202627, Note_off_c, 12, 71, 127
2, 202632, Note_off_c, 3, 51, 127
2, 202632, Note_off_c, 10, 81, 127
2, 202634, Note_on_c, 4, 52, 127
2, 202634, Note_on_c, 7, 79, 127
2, 202789, Note_off_c, 4, 52, 127
2, 202791, Note_on_c, 7, 55, 127
2, 202946, Note_off_c, 7, 55, 127
2, 202948, Note_on_c, 1, 61, 127
2, 202948, Note_on_c, 12, 71, 127
2, 203103, Note_off_c, 1, 61, 127
2, 203105, Note_on_c, 7, 55, 127
2, 203256, Note_off_c, 7, 79, 127
2, 203260, Note_off_c, 7, 55, 127
2, 203263, Note_on_c, 6, 54, 127
2, 203263, Note_on_c, 7, 79, 127
2, 203418, Note_off_c, 6, 54, 127
2, 203420, Note_on_c, 4, 52, 127
2, 203570, Note_off_c, 12, 71, 127
2, 203575, Note_off_c, 4, 52, 127
2, 203575, Note_off_c, 7, 79, 127
2, 203577, Note_on_c, 6, 54, 127
2, 203577, Note_on_c, 6, 78, 127
2, 203732, Note_off_c, 6, 54, 127
2, 203734, Note_on_c, 10, 57, 127
2, 203889, Note_off_c, 10, 57, 127
2, 203891, Note_on_c, 3, 63, 127
2, 203891, Note_on_c, 10, 69, 127
2, 204046, Note_off_c, 3, 63, 127
2, 204048, Note_on_c, 10, 57, 127
2, 204199, Note_off_c, 6, 78, 127
2, 204203, Note_off_c, 10, 57, 127
2, 204205, Note_on_c, 7, 55, 127
2, 204205, Note_on_c, 6, 78, 127
2, 204349, Note_off_c, 10, 69, 127
2, 204360, Note_off_c, 7, 55, 127
2, 204363, Note_on_c, 6, 54, 127
2, 204517, Note_off_c, 6, 78, 127
2, 204518, Note_off_c, 6, 54, 127
2, 204520, Note_on_c, 7, 55, 127
2, 204520, Note_on_c, 4, 76, 127
2, 204675, Note_off_c, 7, 55, 127
2, 204677, Note_on_c, 12, 59, 127
2, 204832, Note_off_c, 12, 59, 127
2, 204834, Note_on_c, 4, 64, 127
2, 204834, Note_on_c, 7, 67, 127
2, 204978, Note_off_c, 4, 76, 127
2, 204989, Note_off_c, 4, 64, 127
2, 204991, Note_on_c, 2, 62, 127
2, 205146, Note_off_c, 2, 62, 127
2, 205146, Note_off_c, 7, 67, 127
2, 205148, Note_on_c, 1, 61, 127
2, 205148, Note_on_c, 4, 76, 127
2, 205303, Note_off_c, 1, 61, 127
2, 205305, Note_on_c, 12, 59, 127
2, 205460, Note_off_c, 12, 59, 127
2, 205460, Note_off_c, 4, 76, 127
2, 205462, Note_on_c, 11, 58, 127
2, 205462, Note_on_c, 6, 66, 127
2, 205617, Note_off_c, 6, 66, 127
2, 205617, Note_off_c, 11, 58, 127
2, 205620, Note_on_c, 1, 61, 127
2, 205620, Note_on_c, 11, 70, 127
2, 205775, Note_off_c, 11, 70, 127
2, 205775, Note_off_c, 1, 61, 127
2, 205777, Note_on_c, 4, 64, 127
2, 205777, Note_on_c, 1, 73, 127
2, 205932, Note_off_c, 1, 73, 127
2, 205932, Note_off_c, 4, 64, 127
2, 205934, Note_on_c, 7, 67, 127
2, 205934, Note_on_c, 4, 76, 127
2, 206089, Note_off_c, 4, 76, 127
2, 206089, Note_off_c, 7, 67, 127
2, 206091, Note_on_c, 6, 66, 127
2, 206091, Note_on_c, 3, 75, 127
2, 206246, Note_off_c, 3, 75, 127
2, 206246, Note_off_c, 6, 66, 127
2, 206248, Note_on_c, 4, 64, 127
2, 206248, Note_on_c, 1, 73, 127
2, 206403, Note_off_c, 1, 73, 127
2, 206403, Note_off_c, 4, 64, 127
2, 206405, Note_on_c, 3, 63, 127
2, 206405, Note_on_c, 12, 71, 127
2, 206560, Note_off_c, 12, 71, 127
2, 206560, Note_off_c, 3, 63, 127
2, 206562, Note_on_c, 6, 66, 127
2, 206562, Note_on_c, 3, 75, 127
2, 206717, Note_off_c, 3, 75, 127
2, 206717, Note_off_c, 6, 66, 127
2, 206720, Note_on_c, 10, 69, 127
2, 206720, Note_on_c, 6, 78, 127
2, 206875, Note_off_c, 6, 78, 127
2, 206875, Note_off_c, 10, 69, 127
2, 206877, Note_on_c, 0, 72, 127
2, 206877, Note_on_c, 10, 81, 127
2, 207032, Note_off_c, 10, 81, 127
2, 207032, Note_off_c, 0, 72, 127
2, 207034, Note_on_c, 12, 71, 127
2, 207034, Note_on_c, 7, 79, 127
2, 207189, Note_off_c, 7, 79, 127
2, 207189, Note_off_c, 12, 71, 127
2, 207191, Note_on_c, 10, 69, 127
2, 207191, Note_on_c, 6, 78, 127
2, 207346, Note_off_c, 6, 78, 127
2, 207346, Note_off_c, 10, 69, 127
2, 207348, Note_on_c, 7, 67, 127
2, 207348, Note_on_c, 12, 83, 127
2, 207503, Note_off_c, 12, 83, 127
2, 207503, Note_off_c, 7, 67, 127
2, 207505, Note_on_c, 6, 66, 127
2, 207505, Note_on_c, 10, 81, 127
2, 207660, Note_off_c, 10, 81, 127
2, 207660, Note_off_c, 6, 66, 127
2, 207662, Note_on_c, 4, 64, 127
2, 207662, Note_on_c, 7, 79, 127
2, 207817, Note_off_c, 7, 79, 127
2, 207817, Note_off_c, 4, 64, 127
2, 207820, Note_on_c, 2, 62, 127
2, 207820, Note_on_c, 6, 78, 127
2, 207975, Note_off_c, 6, 78, 127
2, 207975, Note_off_c, 2, 62, 127
2, 207977, Note_on_c, 0, 60, 127
2, 207977, Note_on_c, 4, 76, 127
2, 208132, Note_off_c, 4, 76, 127
2, 208132, Note_off_c, 0, 60, 127
2, 208134, Note_on_c, 12, 59, 127
2, 208134, Note_on_c, 2, 74, 127
2, 208289, Note_off_c, 2, 74, 127
2, 208289, Note_off_c, 12, 59, 127
2, 208291, Note_on_c, 10, 57, 127
2, 208291, Note_on_c, 0, 72, 127
2, 208446, Note_off_c, 0, 72, 127
2, 208446, Note_off_c, 10, 57, 127
2, 208448, Note_on_c, 7, 55, 127
2, 208448, Note_on_c, 12, 71, 127
2, 208603, Note_off_c, 12, 71, 127
2, 208603, Note_off_c, 7, 55, 127
2, 208605, Note_on_c, 6, 54, 127
2, 208605, Note_on_c, 10, 69, 127
2, 208760, Note_off_c, 10, 69, 127
2, 208760, Note_off_c, 6, 54, 127
2, 208762, Note_on_c, 4, 52, 127
2, 208762, Note_on_c, 7, 67, 127
2, 208917, Note_off_c, 7, 67, 127
2, 208917, Note_off_c, 4, 52, 127
2, 208920, Note_on_c, 3, 51, 127
2, 208920, Note_on_c, 6, 66, 127
2, 209075, Note_off_c, 6, 66, 127
2, 209075, Note_off_c, 3, 51, 127
2, 209077, Note_on_c, 1, 49, 127
2, 209077, Note_on_c, 4, 64, 127
2, 209232, Note_off_c, 4, 64, 127
2, 209232, Note_off_c, 1, 49, 127
2, 209234, Note_on_c, 12, 47, 127
2, 209234, Note_on_c, 3, 63, 127
2, 209391, Note_on_c, 6, 66, 127
2, 209545, Note_off_c, 3, 63, 127
2, 209546, Note_off_c, 6, 66, 127
2, 209546, Note_off_c, 12, 47, 127
2, 209548, Note_on_c, 3, 51, 127
2, 209548, Note_on_c, 12, 59, 127
2, 209703, Note_off_c, 12, 59, 127
2, 209705, Note_on_c, 1, 61, 127
2, 209860, Note_off_c, 1, 61, 127
2, 209860, Note_off_c, 3, 51, 127
2, 209862, Note_on_c, 6, 54, 127
2, 209862, Note_on_c, 3, 63, 127
2, 210017, Note_off_c, 3, 63, 127
2, 210020, Note_on_c, 6, 66, 127
2, 210174, Note_off_c, 6, 54, 127
2, 210175, Note_off_c, 6, 66, 127
2, 210177, Note_on_c, 10, 57, 127
2, 210177, Note_on_c, 3, 63, 127
2, 210334, Note_on_c, 6, 66, 127
2, 210488, Note_off_c, 3, 63, 127
2, 210489, Note_off_c, 6, 66, 127
2, 210489, Note_off_c, 10, 57, 127
2, 210491, Note_on_c, 6, 54, 127
2, 210491, Note_on_c, 12, 59, 127
2, 210646, Note_off_c, 12, 59, 127
2, 210648, Note_on_c, 1, 61, 127
2, 210803, Note_off_c, 1, 61, 127
2, 210803, Note_off_c, 6, 54, 127
2, 210805, Note_on_c, 3, 51, 127
2, 210805, Note_on_c, 3, 63, 127
2, 210960, Note_off_c, 3, 63, 127
2, 210962, Note_on_c, 6, 66, 127
2, 211117, Note_off_c, 6, 66, 127
2, 211117, Note_off_c, 3, 51, 127
2, 211120, Note_on_c, 12, 47, 127
2, 211120, Note_on_c, 4, 64, 127
2, 211277, Note_on_c, 7, 67, 127
2, 211431, Note_off_c, 4, 64, 127
2, 211432, Note_off_c, 7, 67, 127
2, 211432, Note_off_c, 12, 47, 127
2, 211434, Note_on_c, 4, 52, 127
2, 211434, Note_on_c, 12, 59, 127
2, 211589, Note_off_c, 12, 59, 127
2, 211591, Note_on_c, 3, 63, 127
2, 211746, Note_off_c, 3, 63, 127
2, 211746, Note_off_c, 4, 52, 127
2, 211748, Note_on_c, 7, 55, 127
2, 211748, Note_on_c, 4, 64, 127
2, 211903, Note_off_c, 4, 64, 127
2, 211905, Note_on_c, 7, 67, 127
2, 212060, Note_off_c, 7, 67, 127
2, 212060, Note_off_c, 7, 55, 127
2, 212062, Note_on_c, 12, 59, 127
2, 212062, Note_on_c, 4, 64, 127
2, 212220, Note_on_c, 7, 67, 127
2, 212373, Note_off_c, 4, 64, 127
2, 212374, Note_off_c, 12, 59, 127
2, 212375, Note_off_c, 7, 67, 127
2, 212377, Note_on_c, 7, 55, 127
2, 212377, Note_on_c, 12, 59, 127
2, 212532, Note_off_c, 12, 59, 127
2, 212534, Note_on_c, 3, 63, 127
2, 212689, Note_off_c, 3, 63, 127
2, 212689, Note_off_c, 7, 55, 127
2, 212691, Note_on_c, 4, 52, 127
2, 212691, Note_on_c, 4, 64, 127
2, 212846, Note_off_c, 4, 64, 127
2, 212848, Note_on_c, 7, 67, 127
2, 213003, Note_off_c, 7, 67, 127
2, 213003, Note_off_c, 4, 52, 127
2, 213005, Note_on_c, 10, 57, 127
2, 213005, Note_on_c, 6, 66, 127
2, 213162, Note_on_c, 10, 69, 127
2, 213316, Note_off_c, 6, 66, 127
2, 213317, Note_off_c, 10, 69, 127
2, 213317, Note_off_c, 10, 57, 127
2, 213319, Note_on_c, 6, 54, 127
2, 213319, Note_on_c, 3, 63, 127
2, 213474, Note_off_c, 3, 63, 127
2, 213477, Note_on_c, 4, 64, 127
2, 213631, Note_off_c, 6, 54, 127
2, 213632, Note_off_c, 4, 64, 127
2, 213634, Note_on_c, 3, 51, 127
2, 213634, Note_on_c, 6, 66, 127
2, 213789, Note_off_c, 6, 66, 127
2, 213791, Note_on_c, 10, 69, 127
2, 213946, Note_off_c, 10, 69, 127
2, 213946, Note_off_c, 3, 51, 127
2, 213948, Note_on_c, 12, 47, 127
2, 213948, Note_on_c, 6, 66, 127
2, 214105, Note_on_c, 10, 69, 127
2, 214259, Note_off_c, 6, 66, 127
2, 214260, Note_off_c, 10, 69, 127
2, 214260, Note_off_c, 12, 47, 127
2, 214262, Note_on_c, 10, 57, 127
2, 214262, Note_on_c, 3, 63, 127
2, 214417, Note_off_c, 3, 63, 127
2, 214419, Note_on_c, 4, 64, 127
2, 214574, Note_off_c, 4, 64, 127
2, 214574, Note_off_c, 10, 57, 127
2, 214577, Note_on_c, 6, 54, 127
2, 214577, Note_on_c, 6, 66, 127
2, 214732, Note_off_c, 6, 66, 127
2, 214734, Note_on_c, 10, 69, 127
2, 214889, Note_off_c, 10, 69, 127
2, 214889, Note_off_c, 6, 54, 127
2, 214891, Note_on_c, 12, 59, 127
2, 214891, Note_on_c, 7, 67, 127
2, 215048, Note_on_c, 12, 71, 127
2, 215202, Note_off_c, 7, 67, 127
2, 215203, Note_off_c, 12, 71, 127
2, 215203, Note_off_c, 12, 59, 127
2, 215205, Note_on_c, 7, 55, 127
2, 215205, Note_on_c, 4, 64, 127
2, 215360, Note_off_c, 4, 64, 127
2, 215362, Note_on_c, 6, 66, 127
2, 215517, Note_off_c, 6, 66, 127
2, 215517, Note_off_c, 7, 55, 127
2, 215519, Note_on_c, 4, 52, 127
2, 215519, Note_on_c, 7, 67, 127
2, 215674, Note_off_c, 7, 67, 127
2, 215677, Note_on_c, 12, 71, 127
2, 215831, Note_off_c, 4, 52, 127
2, 215832, Note_off_c, 12, 71, 127
2, 215834, Note_on_c, 12, 47, 127
2, 215834, Note_on_c, 7, 67, 127
2, 215991, Note_on_c, 12, 71, 127
2, 216145, Note_off_c, 7, 67, 127
2, 216146, Note_off_c, 12, 71, 127
2, 216146, Note_off_c, 12, 47, 127
2, 216148, Note_on_c, 7, 55, 127
2, 216148, Note_on_c, 4, 64, 127
2, 216303, Note_off_c, 4, 64, 127
2, 216305, Note_on_c, 6, 66, 127
2, 216460, Note_off_c, 6, 66, 127
2, 216460, Note_off_c, 7, 55, 127
2, 216462, Note_on_c, 4, 52, 127
2, 216462, Note_on_c, 7, 67, 127
2, 216617, Note_off_c, 7, 67, 127
2, 216619, Note_on_c, 12, 71, 127
2, 216774, Note_off_c, 12, 71, 127
2, 216774, Note_off_c, 4, 52, 127
2, 216777, Note_on_c, 11, 58, 127
2, 216777, Note_on_c, 7, 67, 127
2, 216932, Note_off_c, 7, 67, 127
2, 216932, Note_off_c, 11, 58, 127
2, 216934, Note_on_c, 4, 52, 127
2, 216934, Note_on_c, 11, 70, 127
2, 217089, Note_off_c, 11, 70, 127
2, 217089, Note_off_c, 4, 52, 127
2, 217091, Note_on_c, 7, 55, 127
2, 217091, Note_on_c, 4, 64, 127
2, 217246, Note_off_c, 4, 64, 127
2, 217246, Note_off_c, 7, 55, 127
2, 217248, Note_on_c, 6, 54, 127
2, 217248, Note_on_c, 6, 66, 127
2, 217403, Note_off_c, 6, 66, 127
2, 217403, Note_off_c, 6, 54, 127
2, 217405, Note_on_c, 4, 52, 127
2, 217405, Note_on_c, 7, 67, 127
2, 217560, Note_off_c, 7, 67, 127
2, 217560, Note_off_c, 4, 52, 127
2, 217562, Note_on_c, 2, 50, 127
2, 217562, Note_on_c, 11, 70, 127
2, 217717, Note_off_c, 11, 70, 127
2, 217717, Note_off_c, 2, 50, 127
2, 217719, Note_on_c, 1, 49, 127
2, 217719, Note_on_c, 7, 67, 127
2, 217874, Note_off_c, 7, 67, 127
2, 217874, Note_off_c, 1, 49, 127
2, 217877, Note_on_c, 7, 55, 127
2, 217877, Note_on_c, 11, 70, 127
2, 218032, Note_off_c, 11, 70, 127
2, 218032, Note_off_c, 7, 55, 127
2, 218034, Note_on_c, 6, 54, 127
2, 218034, Note_on_c, 4, 64, 127
2, 218189, Note_off_c, 4, 64, 127
2, 218189, Note_off_c, 6, 54, 127
2, 218191, Note_on_c, 4, 52, 127
2, 218191, Note_on_c, 6, 66, 127
2, 218346, Note_off_c, 6, 66, 127
2, 218346, Note_off_c, 4, 52, 127
2, 218348, Note_on_c, 3, 51, 127
2, 218348, Note_on_c, 7, 67, 127
2, 218503, Note_off_c, 7, 67, 127
2, 218503, Note_off_c, 3, 51, 127
2, 218505, Note_on_c, 1, 49, 127
2, 218505, Note_on_c, 11, 70, 127
2, 218660, Note_off_c, 11, 70, 127
2, 218660, Note_off_c, 1, 49, 127
2, 218662, Note_on_c, 3, 51, 127
2, 218662, Note_on_c, 12, 71, 127
2, 218817, Note_off_c, 3, 51, 127
2, 218819, Note_on_c, 6, 54, 127
2, 218974, Note_off_c, 6, 54, 127
2, 218974, Note_off_c, 12, 71, 127
2, 218977, Note_on_c, 10, 57, 127
2, 218977, Note_on_c, 6, 66, 127
2, 218977, Note_on_c, 3, 63, 127
2, 218977, Note_on_c, 12, 71, 127
2, 219132, Note_off_c, 10, 57, 127
2, 219134, Note_on_c, 0, 60, 127
2, 219289, Note_off_c, 0, 60, 127
2, 219291, Note_on_c, 12, 59, 127
2, 219446, Note_off_c, 12, 59, 127
2, 219446, Note_off_c, 12, 71, 127
2, 219446, Note_off_c, 3, 63, 127
2, 219446, Note_off_c, 6, 66, 127
2, 219448, Note_on_c, 10, 57, 127
2, 219448, Note_on_c, 6, 66, 127
2, 219448, Note_on_c, 3, 63, 127
2, 219448, Note_on_c, 12, 71, 127
2, 219603, Note_off_c, 12, 71, 127
2, 219603, Note_off_c, 3, 63, 127
2, 219603, Note_off_c, 6, 66, 127
2, 219603, Note_off_c, 10, 57, 127
2, 219605, Note_on_c, 7, 55, 127
2, 219605, Note_on_c, 4, 64, 127
2, 219760, Note_off_c, 7, 55, 127
2, 219762, Note_on_c, 12, 59, 127
2, 219917, Note_off_c, 12, 59, 127
2, 219917, Note_off_c, 4, 64, 127
2, 219919, Note_on_c, 10, 57, 127
2, 219919, Note_on_c, 0, 72, 127
2, 220074, Note_off_c, 0, 72, 127
2, 220074, Note_off_c, 10, 57, 127
2, 220077, Note_on_c, 7, 55, 127
2, 220077, Note_on_c, 12, 71, 127
2, 220232, Note_off_c, 12, 71, 127
2, 220232, Note_off_c, 7, 55, 127
2, 220234, Note_on_c, 6, 54, 127
2, 220234, Note_on_c, 0, 72, 127
2, 220389, Note_off_c, 0, 72, 127
2, 220389, Note_off_c, 6, 54, 127
2, 220391, Note_on_c, 4, 52, 127
2, 220391, Note_on_c, 10, 69, 127
2, 220546, Note_off_c, 10, 69, 127
2, 220546, Note_off_c, 4, 52, 127
2, 220548, Note_on_c, 0, 60, 127
2, 220548, Note_on_c, 3, 63, 127
2, 220703, Note_off_c, 0, 60, 127
2, 220705, Note_on_c, 12, 59, 127
2, 220860, Note_off_c, 12, 59, 127
2, 220860, Note_off_c, 3, 63, 127
2, 220862, Note_on_c, 10, 57, 127
2, 220862, Note_on_c, 6, 66, 127
2, 221017, Note_off_c, 10, 57, 127
2, 221019, Note_on_c, 7, 55, 127
2, 221174, Note_off_c, 7, 55, 127
2, 221176, Note_on_c, 6, 54, 127
2, 221331, Note_off_c, 6, 54, 127
2, 221331, Note_off_c, 6, 66, 127
2, 221334, Note_on_c, 4, 52, 127
2, 221334, Note_on_c, 6, 66, 127
2, 221489, Note_off_c, 6, 66, 127
2, 221489, Note_off_c, 4, 52, 127
2, 221491, Note_on_c, 3, 51, 127
2, 221491, Note_on_c, 12, 59, 127
2, 221646, Note_off_c, 3, 51, 127
2, 221648, Note_on_c, 1, 49, 127
2, 221803, Note_off_c, 1, 49, 127
2, 221803, Note_off_c, 12, 59, 127
2, 221805, Note_on_c, 12, 47, 127
2, 221805, Note_on_c, 12, 71, 127
2, 221960, Note_off_c, 12, 71, 127
2, 221962, Note_on_c, 10, 69, 127
2, 222117, Note_off_c, 10, 69, 127
2, 222119, Note_on_c, 12, 71, 127
2, 222263, Note_off_c, 12, 47, 127
2, 222274, Note_off_c, 12, 71, 127
2, 222276, Note_on_c, 6, 66, 127
2, 222431, Note_off_c, 6, 66, 127
2, 222434, Note_on_c, 7, 67, 127
2, 222589, Note_off_c, 7, 67, 127
2, 222591, Note_on_c, 6, 66, 127
2, 222746, Note_off_c, 6, 66, 127
2, 222748, Note_on_c, 7, 67, 127
2, 222748, Note_on_c, 4, 76, 127
2, 222903, Note_off_c, 7, 67, 127
2, 222905, Note_on_c, 10, 69, 127
2, 223060, Note_off_c, 10, 69, 127
2, 223062, Note_on_c, 7, 67, 127
2, 223217, Note_off_c, 7, 67, 127
2, 223217, Note_off_c, 4, 76, 127
2, 223219, Note_on_c, 6, 66, 127
2, 223219, Note_on_c, 4, 76, 127
2, 223374, Note_off_c, 4, 76, 127
2, 223374, Note_off_c, 6, 66, 127
2, 223376, Note_on_c, 4, 64, 127
2, 223376, Note_on_c, 12, 71, 127
2, 223531, Note_off_c, 4, 64, 127
2, 223534, Note_on_c, 2, 62, 127
2, 223688, Note_off_c, 12, 71, 127
2, 223689, Note_off_c, 2, 62, 127
2, 223691, Note_on_c, 4, 64, 127
2, 223691, Note_on_c, 7, 79, 127
2, 223846, Note_off_c, 7, 79, 127
2, 223846, Note_off_c, 4, 64, 127
2, 223848, Note_on_c, 6, 66, 127
2, 223848, Note_on_c, 6, 78, 127
2, 224003, Note_off_c, 6, 78, 127
2, 224003, Note_off_c, 6, 66, 127
2, 224005, Note_on_c, 4, 64, 127
2, 224005, Note_on_c, 7, 79, 127
2, 224160, Note_off_c, 7, 79, 127
2, 224160, Note_off_c, 4, 64, 127
2, 224162, Note_on_c, 2, 62, 127
2, 224162, Note_on_c, 4, 76, 127
2, 224317, Note_off_c, 4, 76, 127
2, 224317, Note_off_c, 2, 62, 127
2, 224319, Note_on_c, 1, 61, 127
2, 224319, Note_on_c, 11, 70, 127
2, 224474, Note_off_c, 1, 61, 127
2, 224476, Note_on_c, 12, 59, 127
2, 224631, Note_off_c, 12, 59, 127
2, 224631, Note_off_c, 11, 70, 127
2, 224634, Note_on_c, 1, 61, 127
2, 224634, Note_on_c, 1, 73, 127
2, 224789, Note_off_c, 1, 61, 127
2, 224791, Note_on_c, 2, 62, 127
2, 224946, Note_off_c, 2, 62, 127
2, 224948, Note_on_c, 1, 61, 127
2, 225103, Note_off_c, 1, 61, 127
2, 225103, Note_off_c, 1, 73, 127
2, 225105, Note_on_c, 12, 59, 127
2, 225105, Note_on_c, 1, 73, 127
2, 225260, Note_off_c, 1, 73, 127
2, 225260, Note_off_c, 12, 59, 127
2, 225262, Note_on_c, 11, 58, 127
2, 225262, Note_on_c, 6, 66, 127
2, 225417, Note_off_c, 11, 58, 127
2, 225419, Note_on_c, 8, 56, 127
2, 225574, Note_off_c, 8, 56, 127
2, 225574, Note_off_c, 6, 66, 127
2, 225576, Note_on_c, 11, 58, 127
2, 225576, Note_on_c, 6, 78, 127
2, 225731, Note_off_c, 6, 78, 127
2, 225731, Note_off_c, 11, 58, 127
2, 225734, Note_on_c, 12, 59, 127
2, 225734, Note_on_c, 4, 76, 127
2, 225889, Note_off_c, 4, 76, 127
2, 225889, Note_off_c, 12, 59, 127
2, 225891, Note_on_c, 8, 56, 127
2, 225891, Note_on_c, 6, 78, 127
2, 226046, Note_off_c, 6, 78, 127
2, 226046, Note_off_c, 8, 56, 127
2, 226048, Note_on_c, 11, 58, 127
2, 226048, Note_on_c, 1, 73, 127
2, 226203, Note_off_c, 1, 73, 127
2, 226203, Note_off_c, 11, 58, 127
2, 226205, Note_on_c, 12, 59, 127
2, 226205, Note_on_c, 2, 74, 127
2, 226360, Note_off_c, 2, 74, 127
2, 226362, Note_on_c, 1, 73, 127
2, 226517, Note_off_c, 1, 73, 127
2, 226517, Note_off_c, 12, 59, 127
2, 226519, Note_on_c, 12, 71, 127
2, 226519, Note_on_c, 2, 74, 127
2, 226674, Note_off_c, 2, 74, 127
2, 226676, Note_on_c, 4, 76, 127
2, 226831, Note_off_c, 4, 76, 127
2, 226834, Note_on_c, 2, 74, 127
2, 226988, Note_off_c, 12, 71, 127
2, 226989, Note_off_c, 2, 74, 127
2, 226991, Note_on_c, 10, 69, 127
2, 226991, Note_on_c, 0, 72, 127
2, 227146, Note_off_c, 0, 72, 127
2, 227146, Note_off_c, 10, 69, 127
2, 227148, Note_on_c, 7, 67, 127
2, 227148, Note_on_c, 12, 71, 127
2, 227303, Note_off_c, 7, 67, 127
2, 227305, Note_on_c, 6, 66, 127
2, 227460, Note_off_c, 6, 66, 127
2, 227460, Note_off_c, 12, 71, 127
2, 227462, Note_on_c, 7, 67, 127
2, 227462, Note_on_c, 4, 76, 127
2, 227617, Note_off_c, 7, 67, 127
2, 227619, Note_on_c, 10, 69, 127
2, 227774, Note_off_c, 10, 69, 127
2, 227776, Note_on_c, 7, 67, 127
2, 227931, Note_off_c, 7, 67, 127
2, 227931, Note_off_c, 4, 76, 127
2, 227934, Note_on_c, 6, 66, 127
2, 227934, Note_on_c, 2, 74, 127
2, 228089, Note_off_c, 2, 74, 127
2, 228089, Note_off_c, 6, 66, 127
2, 228091, Note_on_c, 4, 64, 127
2, 228091, Note_on_c, 0, 72, 127
2, 228246, Note_off_c, 0, 72, 127
2, 228248, Note_on_c, 12, 71, 127
2, 228403, Note_off_c, 12, 71, 127
2, 228403, Note_off_c, 4, 64, 127
2, 228405, Note_on_c, 10, 69, 127
2, 228405, Note_on_c, 0, 72, 127
2, 228560, Note_off_c, 0, 72, 127
2, 228562, Note_on_c, 2, 74, 127
2, 228717, Note_off_c, 2, 74, 127
2, 228719, Note_on_c, 0, 72, 127
2, 228874, Note_off_c, 0, 72, 127
2, 228874, Note_off_c, 10, 69, 127
2, 228876, Note_on_c, 7, 67, 127
2, 228876, Note_on_c, 12, 71, 127
2, 229031, Note_off_c, 12, 71, 127
2, 229031, Note_off_c, 7, 67, 127
2, 229033, Note_on_c, 6, 66, 127
2, 229033, Note_on_c, 10, 69, 127
2, 229188, Note_off_c, 6, 66, 127
2, 229191, Note_on_c, 4, 64, 127
2, 229345, Note_off_c, 10, 69, 127
2, 229346, Note_off_c, 4, 64, 127
2, 229348, Note_on_c, 6, 66, 127
2, 229348, Note_on_c, 10, 81, 127
2, 229503, Note_off_c, 6, 66, 127
2, 229505, Note_on_c, 7, 67, 127
2, 229660, Note_off_c, 7, 67, 127
2, 229662, Note_on_c, 6, 66, 127
2, 229817, Note_off_c, 6, 66, 127
2, 229817, Note_off_c, 10, 81, 127
2, 229819, Note_on_c, 4, 64, 127
2, 229819, Note_on_c, 10, 81, 127
2, 229974, Note_off_c, 10, 81, 127
2, 229974, Note_off_c, 4, 64, 127
2, 229976, Note_on_c, 3, 63, 127
2, 229976, Note_on_c, 10, 81, 127
2, 230131, Note_off_c, 10, 81, 127
2, 230133, Note_on_c, 7, 79, 127
2, 230288, Note_off_c, 7, 79, 127
2, 230288, Note_off_c, 3, 63, 127
2, 230291, Note_on_c, 3, 63, 127
2, 230291, Note_on_c, 12, 59, 127
2, 230291, Note_on_c, 10, 81, 127
2, 230446, Note_off_c, 10, 81, 127
2, 230448, Note_on_c, 0, 84, 127
2, 230603, Note_off_c, 0, 84, 127
2, 230605, Note_on_c, 12, 83, 127
2, 230760, Note_off_c, 12, 83, 127
2, 230760, Note_off_c, 12, 59, 127
2, 230760, Note_off_c, 3, 63, 127
2, 230762, Note_on_c, 12, 59, 127
2, 230762, Note_on_c, 3, 63, 127
2, 230762, Note_on_c, 10, 81, 127
2, 230917, Note_off_c, 10, 81, 127
2, 230917, Note_off_c, 3, 63, 127
2, 230917, Note_off_c, 12, 59, 127
2, 230919, Note_on_c, 4, 52, 127
2, 230919, Note_on_c, 4, 64, 127
2, 230919, Note_on_c, 7, 79, 127
2, 231074, Note_off_c, 7, 79, 127
2, 231076, Note_on_c, 6, 78, 127
2, 231231, Note_off_c, 6, 78, 127
2, 231231, Note_off_c, 4, 52, 127
2, 231233, Note_on_c, 0, 60, 127
2, 231233, Note_on_c, 7, 79, 127
2, 231388, Note_off_c, 7, 79, 127
2, 231388, Note_off_c, 0, 60, 127
2, 231391, Note_on_c, 12, 59, 127
2, 231391, Note_on_c, 12, 83, 127
2, 231541, Note_off_c, 4, 64, 127
2, 231546, Note_off_c, 12, 83, 127
2, 231546, Note_off_c, 12, 59, 127
2, 231548, Note_on_c, 0, 60, 127
2, 231548, Note_on_c, 10, 81, 127
2, 231703, Note_off_c, 10, 81, 127
2, 231703, Note_off_c, 0, 60, 127
2, 231705, Note_on_c, 10, 57, 127
2, 231705, Note_on_c, 7, 79, 127
2, 231860, Note_off_c, 7, 79, 127
2, 231860, Note_off_c, 10, 57, 127
2, 231862, Note_on_c, 3, 51, 127
2, 231862, Note_on_c, 6, 78, 127
2, 232017, Note_off_c, 6, 78, 127
2, 232019, Note_on_c, 4, 76, 127
2, 232174, Note_off_c, 4, 76, 127
2, 232174, Note_off_c, 3, 51, 127
2, 232176, Note_on_c, 10, 57, 127
2, 232176, Note_on_c, 6, 54, 127
2, 232176, Note_on_c, 6, 78, 127
2, 232331, Note_off_c, 6, 78, 127
2, 232333, Note_on_c, 7, 79, 127
2, 232488, Note_off_c, 7, 79, 127
2, 232491, Note_on_c, 6, 78, 127
2, 232645, Note_off_c, 6, 54, 127
2, 232645, Note_off_c, 10, 57, 127
2, 232646, Note_off_c, 6, 78, 127
2, 232648, Note_on_c, 6, 54, 127
2, 232648, Note_on_c, 10, 57, 127
2, 232648, Note_on_c, 4, 76, 127
2, 232803, Note_off_c, 4, 76, 127
2, 232803, Note_off_c, 10, 57, 127
2, 232803, Note_off_c, 6, 54, 127
2, 232805, Note_on_c, 12, 47, 127
2, 232805, Note_on_c, 10, 57, 127
2, 232805, Note_on_c, 6, 54, 127
2, 232805, Note_on_c, 3, 75, 127
2, 232960, Note_off_c, 3, 75, 127
2, 232962, Note_on_c, 1, 73, 127
2, 233117, Note_off_c, 1, 73, 127
2, 233117, Note_off_c, 6, 54, 127
2, 233117, Note_off_c, 10, 57, 127
2, 233117, Note_off_c, 12, 47, 127
2, 233119, Note_on_c, 12, 59, 127
2, 233119, Note_on_c, 3, 75, 127
2, 233274, Note_off_c, 3, 75, 127
2, 233274, Note_off_c, 12, 59, 127
2, 233276, Note_on_c, 10, 57, 127
2, 233276, Note_on_c, 4, 76, 127
2, 233431, Note_off_c, 4, 76, 127
2, 233431, Note_off_c, 10, 57, 127
2, 233433, Note_on_c, 12, 59, 127
2, 233433, Note_on_c, 1, 73, 127
2, 233588, Note_off_c, 1, 73, 127
2, 233588, Note_off_c, 12, 59, 127
2, 233591, Note_on_c, 6, 54, 127
2, 233591, Note_on_c, 3, 75, 127
2, 233746, Note_off_c, 3, 75, 127
2, 233746, Note_off_c, 6, 54, 127
2, 233748, Note_on_c, 7, 55, 127
2, 233748, Note_on_c, 4, 76, 127
2, 233903, Note_off_c, 4, 76, 127
2, 233903, Note_off_c, 7, 55, 127
2, 233905, Note_on_c, 10, 57, 127
2, 233905, Note_on_c, 3, 75, 127
2, 234060, Note_off_c, 3, 75, 127
2, 234060, Note_off_c, 10, 57, 127
2, 234062, Note_on_c, 7, 55, 127
2, 234062, Note_on_c, 4, 76, 127
2, 234217, Note_off_c, 4, 76, 127
2, 234217, Note_off_c, 7, 55, 127
2, 234219, Note_on_c, 6, 54, 127
2, 234219, Note_on_c, 6, 78, 127
2, 234374, Note_off_c, 6, 78, 127
2, 234374, Note_off_c, 6, 54, 127
2, 234376, Note_on_c, 4, 52, 127
2, 234376, Note_on_c, 7, 79, 127
2, 234531, Note_off_c, 7, 79, 127
2, 234531, Note_off_c, 4, 52, 127
2, 234533, Note_on_c, 7, 55, 127
2, 234533, Note_on_c, 4, 76, 127
2, 234688, Note_off_c, 4, 76, 127
2, 234688, Note_off_c, 7, 55, 127
2, 234691, Note_on_c, 10, 57, 127
2, 234691, Note_on_c, 1, 73, 127
2, 234846, Note_off_c, 1, 73, 127
2, 234846, Note_off_c, 10, 57, 127
2, 234848, Note_on_c, 8, 56, 127
2, 234848, Note_on_c, 2, 74, 127
2, 235003, Note_off_c, 2, 74, 127
2, 235003, Note_off_c, 8, 56, 127
2, 235005, Note_on_c, 10, 57, 127
2, 235005, Note_on_c, 1, 73, 127
2, 235160, Note_off_c, 1, 73, 127
2, 235160, Note_off_c, 10, 57, 127
2, 235162, Note_on_c, 12, 59, 127
2, 235162, Note_on_c, 12, 71, 127
2, 235317, Note_off_c, 12, 71, 127
2, 235317, Note_off_c, 12, 59, 127
2, 235319, Note_on_c, 1, 61, 127
2, 235319, Note_on_c, 10, 69, 127
2, 235474, Note_off_c, 10, 69, 127
2, 235474, Note_off_c, 1, 61, 127
2, 235476, Note_on_c, 10, 57, 127
2, 235476, Note_on_c, 1, 73, 127
2, 235631, Note_off_c, 1, 73, 127
2, 235631, Note_off_c, 10, 57, 127
2, 235633, Note_on_c, 6, 54, 127
2, 235633, Note_on_c, 2, 74, 127
2, 235788, Note_off_c, 2, 74, 127
2, 235788, Note_off_c, 6, 54, 127
2, 235791, Note_on_c, 7, 55, 127
2, 235791, Note_on_c, 1, 73, 127
2, 235946, Note_off_c, 1, 73, 127
2, 235946, Note_off_c, 7, 55, 127
2, 235948, Note_on_c, 6, 54, 127
2, 235948, Note_on_c, 2, 74, 127
2, 236103, Note_off_c, 2, 74, 127
2, 236103, Note_off_c, 6, 54, 127
2, 236105, Note_on_c, 4, 52, 127
2, 236105, Note_on_c, 4, 76, 127
2, 236260, Note_off_c, 4, 76, 127
2, 236260, Note_off_c, 4, 52, 127
2, 236262, Note_on_c, 2, 50, 127
2, 236262, Note_on_c, 6, 78, 127
2, 236417, Note_off_c, 6, 78, 127
2, 236417, Note_off_c, 2, 50, 127
2, 236419, Note_on_c, 6, 54, 127
2, 236419, Note_on_c, 2, 74, 127
2, 236574, Note_off_c, 2, 74, 127
2, 236574, Note_off_c, 6, 54, 127
2, 236576, Note_on_c, 7, 55, 127
2, 236576, Note_on_c, 12, 71, 127
2, 236731, Note_off_c, 12, 71, 127
2, 236731, Note_off_c, 7, 55, 127
2, 236733, Note_on_c, 6, 54, 127
2, 236733, Note_on_c, 0, 72, 127
2, 236888, Note_off_c, 0, 72, 127
2, 236888, Note_off_c, 6, 54, 127
2, 236890, Note_on_c, 7, 55, 127
2, 236890, Note_on_c, 12, 71, 127
2, 237045, Note_off_c, 12, 71, 127
2, 237045, Note_off_c, 7, 55, 127
2, 237048, Note_on_c, 10, 57, 127
2, 237048, Note_on_c, 10, 69, 127
2, 237203, Note_off_c, 10, 69, 127
2, 237203, Note_off_c, 10, 57, 127
2, 237205, Note_on_c, 12, 59, 127
2, 237205, Note_on_c, 7, 67, 127
2, 237360, Note_off_c, 7, 67, 127
2, 237360, Note_off_c, 12, 59, 127
2, 237362, Note_on_c, 7, 55, 127
2, 237362, Note_on_c, 12, 71, 127
2, 237517, Note_off_c, 12, 71, 127
2, 237517, Note_off_c, 7, 55, 127
2, 237519, Note_on_c, 4, 52, 127
2, 237519, Note_on_c, 1, 73, 127
2, 237674, Note_off_c, 1, 73, 127
2, 237674, Note_off_c, 4, 52, 127
2, 237676, Note_on_c, 6, 54, 127
2, 237676, Note_on_c, 12, 71, 127
2, 237831, Note_off_c, 12, 71, 127
2, 237831, Note_off_c, 6, 54, 127
2, 237833, Note_on_c, 4, 52, 127
2, 237833, Note_on_c, 1, 73, 127
2, 237988, Note_off_c, 1, 73, 127
2, 237988, Note_off_c, 4, 52, 127
2, 237990, Note_on_c, 2, 50, 127
2, 237990, Note_on_c, 2, 74, 127
2, 238145, Note_off_c, 2, 74, 127
2, 238145, Note_off_c, 2, 50, 127
2, 238148, Note_on_c, 1, 49, 127
2, 238148, Note_on_c, 4, 76, 127
2, 238303, Note_off_c, 4, 76, 127
2, 238303, Note_off_c, 1, 49, 127
2, 238305, Note_on_c, 4, 52, 127
2, 238305, Note_on_c, 1, 73, 127
2, 238460, Note_off_c, 1, 73, 127
2, 238460, Note_off_c, 4, 52, 127
2, 238462, Note_on_c, 6, 54, 127
2, 238462, Note_on_c, 11, 70, 127
2, 238617, Note_off_c, 11, 70, 127
2, 238617, Note_off_c, 6, 54, 127
2, 238619, Note_on_c, 7, 55, 127
2, 238619, Note_on_c, 12, 71, 127
2, 238774, Note_off_c, 12, 71, 127
2, 238774, Note_off_c, 7, 55, 127
2, 238776, Note_on_c, 6, 54, 127
2, 238776, Note_on_c, 11, 70, 127
2, 238931, Note_off_c, 11, 70, 127
2, 238931, Note_off_c, 6, 54, 127
2, 238933, Note_on_c, 4, 52, 127
2, 238933, Note_on_c, 8, 68, 127
2, 239088, Note_off_c, 8, 68, 127
2, 239088, Note_off_c, 4, 52, 127
2, 239090, Note_on_c, 2, 50, 127
2, 239090, Note_on_c, 6, 66, 127
2, 239245, Note_off_c, 6, 66, 127
2, 239245, Note_off_c, 2, 50, 127
2, 239248, Note_on_c, 1, 49, 127
2, 239248, Note_on_c, 11, 70, 127
2, 239403, Note_off_c, 11, 70, 127
2, 239403, Note_off_c, 1, 49, 127
2, 239405, Note_on_c, 2, 50, 127
2, 239405, Note_on_c, 12, 71, 127
2, 239560, Note_off_c, 12, 71, 127
2, 239560, Note_off_c, 2, 50, 127
2, 239562, Note_on_c, 4, 52, 127
2, 239562, Note_on_c, 11, 70, 127
2, 239717, Note_off_c, 11, 70, 127
2, 239717, Note_off_c, 4, 52, 127
2, 239719, Note_on_c, 2, 50, 127
2, 239719, Note_on_c, 12, 71, 127
2, 239719, Note_on_c, 6, 66, 127
2, 239874, Note_off_c, 12, 71, 127
2, 239874, Note_off_c, 2, 50, 127
2, 239876, Note_on_c, 1, 49, 127
2, 239876, Note_on_c, 1, 73, 127
2, 240031, Note_off_c, 1, 73, 127
2, 240031, Note_off_c, 1, 49, 127
2, 240033, Note_on_c, 12, 47, 127
2, 240033, Note_on_c, 2, 74, 127
2, 240177, Note_off_c, 6, 66, 127
2, 240188, Note_off_c, 2, 74, 127
2, 240188, Note_off_c, 12, 47, 127
2, 240190, Note_on_c, 2, 50, 127
2, 240190, Note_on_c, 12, 71, 127
2, 240190, Note_on_c, 6, 66, 127
2, 240345, Note_off_c, 6, 66, 127
2, 240345, Note_off_c, 12, 71, 127
2, 240345, Note_off_c, 2, 50, 127
2, 240348, Note_on_c, 4, 52, 127
2, 240348, Note_on_c, 7, 67, 127
2, 240348, Note_on_c, 12, 59, 127
2, 240503, Note_off_c, 4, 52, 127
2, 240505, Note_on_c, 2, 50, 127
2, 240660, Note_off_c, 2, 50, 127
2, 240660, Note_off_c, 7, 67, 127
2, 240662, Note_on_c, 4, 52, 127
2, 240662, Note_on_c, 7, 67, 127
2, 240817, Note_off_c, 7, 67, 127
2, 240817, Note_off_c, 4, 52, 127
2, 240819, Note_on_c, 6, 54, 127
2, 240819, Note_on_c, 6, 66, 127
2, 240970, Note_off_c, 12, 59, 127
2, 240974, Note_off_c, 6, 66, 127
2, 240974, Note_off_c, 6, 54, 127
2, 240976, Note_on_c, 4, 52, 127
2, 240976, Note_on_c, 7, 67, 127
2, 241131, Note_off_c, 7, 67, 127
2, 241131, Note_off_c, 4, 52, 127
2, 241133, Note_on_c, 2, 50, 127
2, 241133, Note_on_c, 4, 64, 127
2, 241288, Note_off_c, 4, 64, 127
2, 241288, Note_off_c, 2, 50, 127
2, 241290, Note_on_c, 1, 49, 127
2, 241290, Note_on_c, 11, 58, 127
2, 241445, Note_off_c, 1, 49, 127
2, 241448, Note_on_c, 12, 47, 127
2, 241602, Note_off_c, 11, 58, 127
2, 241603, Note_off_c, 12, 47, 127
2, 241605, Note_on_c, 1, 49, 127
2, 241605, Note_on_c, 4, 64, 127
2, 241605, Note_on_c, 1, 61, 127
2, 241760, Note_off_c, 1, 49, 127
2, 241762, Note_on_c, 2, 50, 127
2, 241917, Note_off_c, 2, 50, 127
2, 241919, Note_on_c, 1, 49, 127
2, 242074, Note_off_c, 1, 49, 127
2, 242074, Note_off_c, 1, 61, 127
2, 242074, Note_off_c, 4, 64, 127
2, 242076, Note_on_c, 12, 47, 127
2, 242076, Note_on_c, 1, 61, 127
2, 242076, Note_on_c, 4, 64, 127
2, 242231, Note_off_c, 4, 64, 127
2, 242231, Note_off_c, 1, 61, 127
2, 242231, Note_off_c, 12, 47, 127
2, 242233, Note_on_c, 11, 46, 127
2, 242233, Note_on_c, 1, 61, 127
2, 242233, Note_on_c, 6, 54, 127
2, 242233, Note_on_c, 4, 64, 127
2, 242388, Note_off_c, 11, 46, 127
2, 242390, Note_on_c, 8, 44, 127
2, 242545, Note_off_c, 8, 44, 127
2, 242545, Note_off_c, 4, 64, 127
2, 242545, Note_off_c, 1, 61, 127
2, 242548, Note_on_c, 11, 46, 127
2, 242548, Note_on_c, 6, 66, 127
2, 242703, Note_off_c, 6, 66, 127
2, 242703, Note_off_c, 11, 46, 127
2, 242705, Note_on_c, 12, 47, 127
2, 242705, Note_on_c, 4, 64, 127
2, 242860, Note_off_c, 4, 64, 127
2, 242860, Note_off_c, 12, 47, 127
2, 242862, Note_on_c, 8, 44, 127
2, 242862, Note_on_c, 6, 66, 127
2, 243017, Note_off_c, 6, 66, 127
2, 243017, Note_off_c, 8, 44, 127
2, 243018, Note_off_c, 6, 54, 127
2, 243019, Note_on_c, 11, 46, 127
2, 243019, Note_on_c, 1, 61, 127
2, 243174, Note_off_c, 1, 61, 127
2, 243174, Note_off_c, 11, 46, 127
2, 243176, Note_on_c, 12, 47, 127
2, 243176, Note_on_c, 2, 62, 127
2, 243333, Note_on_c, 6, 66, 127
2, 243488, Note_off_c, 6, 66, 127
2, 243488, Note_off_c, 12, 47, 127
2, 243490, Note_on_c, 12, 59, 127
2, 243490, Note_on_c, 12, 71, 127
2, 243634, Note_off_c, 2, 62, 127
2, 243648, Note_on_c, 6, 66, 127
2, 243802, Note_off_c, 12, 59, 127
2, 243803, Note_off_c, 6, 66, 127
2, 243805, Note_on_c, 12, 47, 127
2, 243805, Note_on_c, 4, 64, 127
2, 243948, Note_off_c, 12, 71, 127
2, 243960, Note_off_c, 4, 64, 127
2, 243962, Note_on_c, 2, 62, 127
2, 244117, Note_off_c, 2, 62, 127
2, 244117, Note_off_c, 12, 47, 127
2, 244119, Note_on_c, 12, 47, 127
2, 244119, Note_on_c, 4, 64, 127
2, 244276, Note_on_c, 11, 70, 127
2, 244353, Note_off_c, 11, 70, 127
2, 244355, Note_on_c, 12, 71, 127
2, 244432, Note_off_c, 12, 71, 127
2, 244433, Note_off_c, 12, 47, 127
2, 244435, Note_on_c, 12, 59, 127
2, 244435, Note_on_c, 1, 73, 127
2, 244579, Note_off_c, 4, 64, 127
2, 244592, Note_on_c, 7, 67, 127
2, 244747, Note_off_c, 7, 67, 127
2, 244747, Note_off_c, 12, 59, 127
2, 244749, Note_on_c, 12, 47, 127
2, 244749, Note_on_c, 6, 66, 127
2, 244893, Note_off_c, 1, 73, 127
2, 244904, Note_off_c, 6, 66, 127
2, 244906, Note_on_c, 4, 64, 127
2, 245061, Note_off_c, 4, 64, 127
2, 245061, Note_off_c, 12, 47, 127
2, 245063, Note_on_c, 12, 47, 127
2, 245063, Note_on_c, 6, 66, 127
2, 245221, Note_on_c, 12, 71, 127
2, 245298, Note_off_c, 12, 71, 127
2, 245300, Note_on_c, 1, 73, 127
2, 245377, Note_off_c, 1, 73, 127
2, 245377, Note_off_c, 12, 47, 127
2, 245379, Note_on_c, 12, 59, 127
2, 245379, Note_on_c, 2, 74, 127
2, 245523, Note_off_c, 6, 66, 127
2, 245536, Note_on_c, 10, 69, 127
2, 245691, Note_off_c, 10, 69, 127
2, 245691, Note_off_c, 12, 59, 127
2, 245694, Note_on_c, 12, 47, 127
2, 245694, Note_on_c, 7, 67, 127
2, 245837, Note_off_c, 2, 74, 127
2, 245849, Note_off_c, 7, 67, 127
2, 245851, Note_on_c, 6, 66, 127
2, 246006, Note_off_c, 6, 66, 127
2, 246006, Note_off_c, 12, 47, 127
2, 246008, Note_on_c, 12, 47, 127
2, 246008, Note_on_c, 7, 67, 127
2, 246165, Note_on_c, 1, 73, 127
2, 246242, Note_off_c, 1, 73, 127
2, 246244, Note_on_c, 2, 74, 127
2, 246321, Note_off_c, 2, 74, 127
2, 246322, Note_off_c, 12, 47, 127
2, 246324, Note_on_c, 12, 59, 127
2, 246324, Note_on_c, 4, 76, 127
2, 246468, Note_off_c, 7, 67, 127
2, 246481, Note_on_c, 2, 74, 127
2, 246636, Note_off_c, 2, 74, 127
2, 246636, Note_off_c, 12, 59, 127
2, 246638, Note_on_c, 12, 47, 127
2, 246638, Note_on_c, 1, 73, 127
2, 246782, Note_off_c, 4, 76, 127
2, 246793, Note_off_c, 1, 73, 127
2, 246795, Note_on_c, 12, 71, 127
2, 246950, Note_off_c, 12, 71, 127
2, 246950, Note_off_c, 12, 47, 127
2, 246952, Note_on_c, 12, 47, 127
2, 246952, Note_on_c, 11, 70, 127
2, 247109, Note_on_c, 1, 73, 127
2, 247264, Note_off_c, 1, 73, 127
2, 247264, Note_off_c, 12, 47, 127
2, 247267, Note_on_c, 12, 59, 127
2, 247267, Note_on_c, 4, 76, 127
2, 247422, Note_off_c, 4, 76, 127
2, 247424, Note_on_c, 7, 79, 127
2, 247574, Note_off_c, 11, 70, 127
2, 247579, Note_off_c, 7, 79, 127
2, 247579, Note_off_c, 12, 59, 127
2, 247581, Note_on_c, 12, 47, 127
2, 247581, Note_on_c, 6, 78, 127
2, 247736, Note_off_c, 6, 78, 127
2, 247738, Note_on_c, 4, 76, 127
2, 247893, Note_off_c, 4, 76, 127
2, 247893, Note_off_c, 12, 47, 127
2, 247895, Note_on_c, 12, 59, 127
2, 247895, Note_on_c, 2, 74, 127
2, 248050, Note_off_c, 12, 59, 127
2, 248052, Note_on_c, 11, 58, 127
2, 248052, Note_on_c, 1, 73, 127
2, 248207, Note_off_c, 1, 73, 127
2, 248207, Note_off_c, 11, 58, 127
2, 248209, Note_on_c, 12, 59, 127
2, 248209, Note_on_c, 12, 71, 127
2, 248364, Note_off_c, 12, 71, 127
2, 248364, Note_off_c, 12, 59, 127
2, 248367, Note_on_c, 1, 61, 127
2, 248367, Note_on_c, 11, 70, 127
2, 248522, Note_off_c, 11, 70, 127
2, 248522, Note_off_c, 1, 61, 127
2, 248524, Note_on_c, 2, 62, 127
2, 248524, Note_on_c, 12, 71, 127
2, 248679, Note_off_c, 12, 71, 127
2, 248679, Note_off_c, 2, 62, 127
2, 248681, Note_on_c, 12, 59, 127
2, 248681, Note_on_c, 6, 66, 127
2, 248836, Note_off_c, 6, 66, 127
2, 248836, Note_off_c, 12, 59, 127
2, 248836, Note_off_c, 2, 74, 127
2, 248838, Note_on_c, 4, 64, 127
2, 248838, Note_on_c, 8, 68, 127
2, 248993, Note_off_c, 4, 64, 127
2, 248995, Note_on_c, 5, 65, 127
2, 248995, Note_on_c, 12, 71, 127
2, 249150, Note_off_c, 12, 71, 127
2, 249150, Note_off_c, 5, 65, 127
2, 249152, Note_on_c, 4, 64, 127
2, 249152, Note_on_c, 2, 74, 127
2, 249307, Note_off_c, 2, 74, 127
2, 249307, Note_off_c, 4, 64, 127
2, 249309, Note_on_c, 2, 62, 127
2, 249309, Note_on_c, 5, 77, 127
2, 249460, Note_off_c, 8, 68, 127
2, 249464, Note_off_c, 5, 77, 127
2, 249464, Note_off_c, 2, 62, 127
2, 249467, Note_on_c, 0, 60, 127
2, 249467, Note_on_c, 4, 76, 127
2, 249622, Note_off_c, 4, 76, 127
2, 249622, Note_off_c, 0, 60, 127
2, 249624, Note_on_c, 12, 59, 127
2, 249624, Note_on_c, 2, 74, 127
2, 249779, Note_off_c, 2, 74, 127
2, 249779, Note_off_c, 12, 59, 127
2, 249781, Note_on_c, 10, 57, 127
2, 249781, Note_on_c, 0, 72, 127
2, 249936, Note_off_c, 10, 57, 127
2, 249938, Note_on_c, 8, 56, 127
2, 249938, Note_on_c, 12, 71, 127
2, 250093, Note_off_c, 12, 71, 127
2, 250093, Note_off_c, 8, 56, 127
2, 250095, Note_on_c, 10, 57, 127
2, 250095, Note_on_c, 10, 69, 127
2, 250250, Note_off_c, 10, 69, 127
2, 250250, Note_off_c, 10, 57, 127
2, 250252, Note_on_c, 12, 59, 127
2, 250252, Note_on_c, 8, 68, 127
2, 250407, Note_off_c, 8, 68, 127
2, 250407, Note_off_c, 12, 59, 127
2, 250409, Note_on_c, 0, 60, 127
2, 250409, Note_on_c, 10, 69, 127
2, 250564, Note_off_c, 10, 69, 127
2, 250564, Note_off_c, 0, 60, 127
2, 250567, Note_on_c, 10, 57, 127
2, 250567, Note_on_c, 4, 64, 127
2, 250722, Note_off_c, 4, 64, 127
2, 250722, Note_off_c, 10, 57, 127
2, 250722, Note_off_c, 0, 72, 127
2, 250724, Note_on_c, 2, 62, 127
2, 250724, Note_on_c, 6, 66, 127
2, 250879, Note_off_c, 2, 62, 127
2, 250881, Note_on_c, 4, 64, 127
2, 250881, Note_on_c, 10, 69, 127
2, 251036, Note_off_c, 10, 69, 127
2, 251036, Note_off_c, 4, 64, 127
2, 251038, Note_on_c, 2, 62, 127
2, 251038, Note_on_c, 0, 72, 127
2, 251193, Note_off_c, 0, 72, 127
2, 251193, Note_off_c, 2, 62, 127
2, 251195, Note_on_c, 0, 60, 127
2, 251195, Note_on_c, 4, 76, 127
2, 251346, Note_off_c, 6, 66, 127
2, 251350, Note_off_c, 4, 76, 127
2, 251350, Note_off_c, 0, 60, 127
2, 251352, Note_on_c, 12, 59, 127
2, 251352, Note_on_c, 2, 74, 127
2, 251507, Note_off_c, 2, 74, 127
2, 251507, Note_off_c, 12, 59, 127
2, 251509, Note_on_c, 10, 57, 127
2, 251509, Note_on_c, 0, 72, 127
2, 251664, Note_off_c, 0, 72, 127
2, 251664, Note_off_c, 10, 57, 127
2, 251667, Note_on_c, 7, 55, 127
2, 251667, Note_on_c, 12, 71, 127
2, 251822, Note_off_c, 7, 55, 127
2, 251824, Note_on_c, 6, 54, 127
2, 251824, Note_on_c, 10, 69, 127
2, 251979, Note_off_c, 10, 69, 127
2, 251979, Note_off_c, 6, 54, 127
2, 251981, Note_on_c, 7, 55, 127
2, 251981, Note_on_c, 7, 67, 127
2, 252136, Note_off_c, 7, 67, 127
2, 252136, Note_off_c, 7, 55, 127
2, 252138, Note_on_c, 10, 57, 127
2, 252138, Note_on_c, 6, 66, 127
2, 252293, Note_off_c, 6, 66, 127
2, 252293, Note_off_c, 10, 57, 127
2, 252295, Note_on_c, 12, 59, 127
2, 252295, Note_on_c, 7, 67, 127
2, 252450, Note_off_c, 7, 67, 127
2, 252450, Note_off_c, 12, 59, 127
2, 252452, Note_on_c, 7, 55, 127
2, 252452, Note_on_c, 3, 63, 127
2, 252607, Note_off_c, 3, 63, 127
2, 252607, Note_off_c, 7, 55, 127
2, 252608, Note_off_c, 12, 71, 127
2, 252609, Note_on_c, 0, 60, 127
2, 252609, Note_on_c, 4, 64, 127
2, 252764, Note_off_c, 0, 60, 127
2, 252766, Note_on_c, 2, 62, 127
2, 252766, Note_on_c, 7, 67, 127
2, 252921, Note_off_c, 7, 67, 127
2, 252921, Note_off_c, 2, 62, 127
2, 252924, Note_on_c, 0, 60, 127
2, 252924, Note_on_c, 12, 71, 127
2, 253079, Note_off_c, 12, 71, 127
2, 253079, Note_off_c, 0, 60, 127
2, 253081, Note_on_c, 12, 59, 127
2, 253081, Note_on_c, 2, 74, 127
2, 253231, Note_off_c, 4, 64, 127
2, 253236, Note_off_c, 2, 74, 127
2, 253236, Note_off_c, 12, 59, 127
2, 253238, Note_on_c, 10, 57, 127
2, 253238, Note_on_c, 0, 72, 127
2, 253393, Note_off_c, 0, 72, 127
2, 253393, Note_off_c, 10, 57, 127
2, 253395, Note_on_c, 7, 55, 127
2, 253395, Note_on_c, 12, 71, 127
2, 253550, Note_off_c, 12, 71, 127
2, 253550, Note_off_c, 7, 55, 127
2, 253552, Note_on_c, 6, 54, 127
2, 253552, Note_on_c, 10, 69, 127
2, 253707, Note_off_c, 6, 54, 127
2, 253709, Note_on_c, 4, 52, 127
2, 253709, Note_on_c, 7, 67, 127
2, 253864, Note_off_c, 7, 67, 127
2, 253864, Note_off_c, 4, 52, 127
2, 253866, Note_on_c, 6, 54, 127
2, 253866, Note_on_c, 6, 66, 127
2, 254021, Note_off_c, 6, 66, 127
2, 254021, Note_off_c, 6, 54, 127
2, 254024, Note_on_c, 7, 55, 127
2, 254024, Note_on_c, 4, 64, 127
2, 254174, Note_off_c, 10, 69, 127
2, 254179, Note_off_c, 4, 64, 127
2, 254179, Note_off_c, 7, 55, 127
2, 254181, Note_on_c, 10, 57, 127
2, 254181, Note_on_c, 6, 66, 127
2, 254336, Note_off_c, 6, 66, 127
2, 254336, Note_off_c, 10, 57, 127
2, 254338, Note_on_c, 6, 54, 127
2, 254338, Note_on_c, 1, 61, 127
2, 254493, Note_off_c, 1, 61, 127
2, 254493, Note_off_c, 6, 54, 127
2, 254495, Note_on_c, 12, 59, 127
2, 254495, Note_on_c, 3, 63, 127
2, 254650, Note_off_c, 12, 59, 127
2, 254652, Note_on_c, 6, 54, 127
2, 254807, Note_off_c, 6, 54, 127
2, 254807, Note_off_c, 3, 63, 127
2, 254809, Note_on_c, 10, 57, 127
2, 254809, Note_on_c, 3, 75, 127
2, 254809, Note_on_c, 12, 83, 127
2, 254809, Note_on_c, 6, 78, 127
2, 254964, Note_off_c, 10, 57, 127
2, 254966, Note_on_c, 0, 60, 127
2, 255121, Note_off_c, 0, 60, 127
2, 255124, Note_on_c, 12, 59, 127
2, 255278, Note_off_c, 12, 83, 127
2, 255279, Note_off_c, 12, 59, 127
2, 255281, Note_on_c, 10, 57, 127
2, 255281, Note_on_c, 12, 83, 127
2, 255431, Note_off_c, 6, 78, 127
2, 255431, Note_off_c, 3, 75, 127
2, 255436, Note_off_c, 12, 83, 127
2, 255436, Note_off_c, 10, 57, 127
2, 255438, Note_on_c, 7, 55, 127
2, 255438, Note_on_c, 12, 71, 127
2, 255438, Note_on_c, 4, 76, 127
2, 255593, Note_off_c, 7, 55, 127
2, 255595, Note_on_c, 6, 54, 127
2, 255750, Note_off_c, 6, 54, 127
2, 255750, Note_off_c, 4, 76, 127
2, 255750, Note_off_c, 12, 71, 127
2, 255752, Note_on_c, 7, 55, 127
2, 255752, Note_on_c, 4, 76, 127
2, 255752, Note_on_c, 0, 84, 127
2, 255752, Note_on_c, 10, 81, 127
2, 255907, Note_off_c, 10, 81, 127
2, 255907, Note_off_c, 0, 84, 127
2, 255907, Note_off_c, 7, 55, 127
2, 255909, Note_on_c, 12, 59, 127
2, 255909, Note_on_c, 12, 83, 127
2, 256064, Note_off_c, 12, 83, 127
2, 256064, Note_off_c, 12, 59, 127
2, 256066, Note_on_c, 10, 57, 127
2, 256066, Note_on_c, 0, 84, 127
2, 256221, Note_off_c, 0, 84, 127
2, 256221, Note_off_c, 10, 57, 127
2, 256224, Note_on_c, 7, 55, 127
2, 256224, Note_on_c, 10, 81, 127
2, 256374, Note_off_c, 4, 76, 127
2, 256379, Note_off_c, 10, 81, 127
2, 256379, Note_off_c, 7, 55, 127
2, 256381, Note_on_c, 6, 54, 127
2, 256381, Note_on_c, 3, 75, 127
2, 256536, Note_off_c, 6, 54, 127
2, 256538, Note_on_c, 4, 52, 127
2, 256693, Note_off_c, 4, 52, 127
2, 256693, Note_off_c, 3, 75, 127
2, 256695, Note_on_c, 6, 54, 127
2, 256695, Note_on_c, 10, 69, 127
2, 256695, Note_on_c, 6, 78, 127
2, 256695, Note_on_c, 0, 72, 127
2, 256850, Note_off_c, 6, 54, 127
2, 256852, Note_on_c, 7, 55, 127
2, 257007, Note_off_c, 7, 55, 127
2, 257009, Note_on_c, 6, 54, 127
2, 257164, Note_off_c, 6, 54, 127
2, 257164, Note_off_c, 6, 78, 127
2, 257166, Note_on_c, 4, 52, 127
2, 257166, Note_on_c, 6, 78, 127
2, 257317, Note_off_c, 0, 72, 127
2, 257317, Note_off_c, 10, 69, 127
2, 257321, Note_off_c, 6, 78, 127
2, 257321, Note_off_c, 4, 52, 127
2, 257324, Note_on_c, 3, 51, 127
2, 257324, Note_on_c, 12, 71, 127
2, 257479, Note_off_c, 3, 51, 127
2, 257481, Note_on_c, 1, 49, 127
2, 257636, Note_off_c, 1, 49, 127
2, 257636, Note_off_c, 12, 71, 127
2, 257638, Note_on_c, 3, 51, 127
2, 257638, Note_on_c, 6, 78, 127
2, 257638, Note_on_c, 12, 71, 127
2, 257638, Note_on_c, 12, 83, 127
2, 257793, Note_off_c, 12, 83, 127
2, 257793, Note_off_c, 6, 78, 127
2, 257793, Note_off_c, 3, 51, 127
2, 257795, Note_on_c, 4, 52, 127
2, 257795, Note_on_c, 10, 81, 127
2, 257950, Note_off_c, 10, 81, 127
2, 257950, Note_off_c, 4, 52, 127
2, 257952, Note_on_c, 1, 49, 127
2, 257952, Note_on_c, 12, 83, 127
2, 258107, Note_off_c, 12, 83, 127
2, 258107, Note_off_c, 1, 49, 127
2, 258109, Note_on_c, 3, 51, 127
2, 258109, Note_on_c, 6, 78, 127
2, 258260, Note_off_c, 12, 71, 127
2, 258264, Note_off_c, 6, 78, 127
2, 258264, Note_off_c, 3, 51, 127
2, 258266, Note_on_c, 4, 52, 127
2, 258266, Note_on_c, 7, 79, 127
2, 258421, Note_off_c, 7, 79, 127
2, 258421, Note_off_c, 4, 52, 127
2, 258424, Note_on_c, 12, 47, 127
2, 258424, Note_on_c, 10, 81, 127
2, 258579, Note_off_c, 10, 81, 127
2, 258579, Note_off_c, 12, 47, 127
2, 258581, Note_on_c, 4, 52, 127
2, 258581, Note_on_c, 7, 79, 127
2, 258736, Note_off_c, 7, 79, 127
2, 258736, Note_off_c, 4, 52, 127
2, 258738, Note_on_c, 6, 54, 127
2, 258738, Note_on_c, 6, 78, 127
2, 258893, Note_off_c, 6, 78, 127
2, 258893, Note_off_c, 6, 54, 127
2, 258895, Note_on_c, 7, 55, 127
2, 258895, Note_on_c, 4, 76, 127
2, 259050, Note_off_c, 4, 76, 127
2, 259050, Note_off_c, 7, 55, 127
2, 259052, Note_on_c, 4, 52, 127
2, 259052, Note_on_c, 7, 79, 127
2, 259207, Note_off_c, 7, 79, 127
2, 259207, Note_off_c, 4, 52, 127
2, 259209, Note_on_c, 0, 48, 127
2, 259209, Note_on_c, 10, 81, 127
2, 259364, Note_off_c, 10, 81, 127
2, 259364, Note_off_c, 0, 48, 127
2, 259366, Note_on_c, 2, 50, 127
2, 259366, Note_on_c, 7, 79, 127
2, 259521, Note_off_c, 7, 79, 127
2, 259521, Note_off_c, 2, 50, 127
2, 259524, Note_on_c, 0, 48, 127
2, 259524, Note_on_c, 10, 81, 127
2, 259679, Note_off_c, 10, 81, 127
2, 259679, Note_off_c, 0, 48, 127
2, 259681, Note_on_c, 12, 47, 127
2, 259681, Note_on_c, 12, 83, 127
2, 259836, Note_off_c, 12, 83, 127
2, 259836, Note_off_c, 12, 47, 127
2, 259838, Note_on_c, 10, 45, 127
2, 259838, Note_on_c, 0, 84, 127
2, 259993, Note_off_c, 0, 84, 127
2, 259993, Note_off_c, 10, 45, 127
2, 259995, Note_on_c, 0, 48, 127
2, 259995, Note_on_c, 10, 81, 127
2, 260150, Note_off_c, 10, 81, 127
2, 260150, Note_off_c, 0, 48, 127
2, 260152, Note_on_c, 2, 50, 127
2, 260152, Note_on_c, 6, 78, 127
2, 260307, Note_off_c, 6, 78, 127
2, 260307, Note_off_c, 2, 50, 127
2, 260309, Note_on_c, 10, 45, 127
2, 260309, Note_on_c, 7, 79, 127
2, 260464, Note_off_c, 7, 79, 127
2, 260464, Note_off_c, 10, 45, 127
2, 260466, Note_on_c, 2, 50, 127
2, 260466, Note_on_c, 6, 78, 127
2, 260621, Note_off_c, 6, 78, 127
2, 260621, Note_off_c, 2, 50, 127
2, 260623, Note_on_c, 4, 52, 127
2, 260623, Note_on_c, 4, 76, 127
2, 260778, Note_off_c, 4, 76, 127
2, 260778, Note_off_c, 4, 52, 127
2, 260781, Note_on_c, 6, 54, 127
2, 260781, Note_on_c, 2, 74, 127
2, 260936, Note_off_c, 2, 74, 127
2, 260936, Note_off_c, 6, 54, 127
2, 260938, Note_on_c, 2, 50, 127
2, 260938, Note_on_c, 6, 78, 127
2, 261093, Note_off_c, 6, 78, 127
2, 261093, Note_off_c, 2, 50, 127
2, 261095, Note_on_c, 12, 47, 127
2, 261095, Note_on_c, 7, 79, 127
2, 261250, Note_off_c, 7, 79, 127
2, 261250, Note_off_c, 12, 47, 127
2, 261252, Note_on_c, 0, 48, 127
2, 261252, Note_on_c, 6, 78, 127
2, 261407, Note_off_c, 6, 78, 127
2, 261407, Note_off_c, 0, 48, 127
2, 261409, Note_on_c, 12, 47, 127
2, 261409, Note_on_c, 7, 79, 127
2, 261564, Note_off_c, 7, 79, 127
2, 261564, Note_off_c, 12, 47, 127
2, 261566, Note_on_c, 10, 45, 127
2, 261566, Note_on_c, 10, 81, 127
2, 261721, Note_off_c, 10, 81, 127
2, 261721, Note_off_c, 10, 45, 127
2, 261723, Note_on_c, 7, 43, 127
2, 261723, Note_on_c, 12, 83, 127
2, 261878, Note_off_c, 12, 83, 127
2, 261878, Note_off_c, 7, 43, 127
2, 261881, Note_on_c, 12, 47, 127
2, 261881, Note_on_c, 7, 79, 127
2, 262036, Note_off_c, 7, 79, 127
2, 262036, Note_off_c, 12, 47, 127
2, 262038, Note_on_c, 0, 48, 127
2, 262038, Note_on_c, 4, 76, 127
2, 262193, Note_off_c, 4, 76, 127
2, 262193, Note_off_c, 0, 48, 127
2, 262195, Note_on_c, 7, 43, 127
2, 262195, Note_on_c, 6, 78, 127
2, 262350, Note_off_c, 6, 78, 127
2, 262350, Note_off_c, 7, 43, 127
2, 262352, Note_on_c, 0, 48, 127
2, 262352, Note_on_c, 4, 76, 127
2, 262507, Note_off_c, 4, 76, 127
2, 262507, Note_off_c, 0, 48, 127
2, 262509, Note_on_c, 2, 50, 127
2, 262509, Note_on_c, 2, 74, 127
2, 262664, Note_off_c, 2, 74, 127
2, 262664, Note_off_c, 2, 50, 127
2, 262666, Note_on_c, 4, 52, 127
2, 262666, Note_on_c, 0, 72, 127
2, 262821, Note_off_c, 0, 72, 127
2, 262821, Note_off_c, 4, 52, 127
2, 262823, Note_on_c, 0, 48, 127
2, 262823, Note_on_c, 4, 76, 127
2, 262978, Note_off_c, 4, 76, 127
2, 262978, Note_off_c, 0, 48, 127
2, 262981, Note_on_c, 10, 45, 127
2, 262981, Note_on_c, 6, 78, 127
2, 263136, Note_off_c, 6, 78, 127
2, 263136, Note_off_c, 10, 45, 127
2, 263138, Note_on_c, 12, 47, 127
2, 263138, Note_on_c, 4, 76, 127
2, 263293, Note_off_c, 4, 76, 127
2, 263293, Note_off_c, 12, 47, 127
2, 263295, Note_on_c, 10, 45, 127
2, 263295, Note_on_c, 6, 78, 127
2, 263450, Note_off_c, 6, 78, 127
2, 263450, Note_off_c, 10, 45, 127
2, 263452, Note_on_c, 7, 43, 127
2, 263452, Note_on_c, 7, 79, 127
2, 263607, Note_off_c, 7, 79, 127
2, 263607, Note_off_c, 7, 43, 127
2, 263609, Note_on_c, 6, 42, 127
2, 263609, Note_on_c, 10, 81, 127
2, 263764, Note_off_c, 10, 81, 127
2, 263764, Note_off_c, 6, 42, 127
2, 263766, Note_on_c, 10, 45, 127
2, 263766, Note_on_c, 6, 78, 127
2, 263921, Note_off_c, 6, 78, 127
2, 263921, Note_off_c, 10, 45, 127
2, 263923, Note_on_c, 12, 47, 127
2, 263923, Note_on_c, 3, 75, 127
2, 264078, Note_off_c, 12, 47, 127
2, 264081, Note_on_c, 6, 42, 127
2, 264235, Note_off_c, 3, 75, 127
2, 264236, Note_off_c, 6, 42, 127
2, 264238, Note_on_c, 10, 45, 127
2, 264238, Note_on_c, 3, 75, 127
2, 264238, Note_on_c, 12, 71, 127
2, 264393, Note_off_c, 10, 45, 127
2, 264395, Note_on_c, 0, 48, 127
2, 264550, Note_off_c, 0, 48, 127
2, 264552, Note_on_c, 12, 47, 127
2, 264707, Note_off_c, 12, 47, 127
2, 264707, Note_off_c, 12, 71, 127
2, 264707, Note_off_c, 3, 75, 127
2, 264709, Note_on_c, 10, 45, 127
2, 264709, Note_on_c, 12, 71, 127
2, 264709, Note_on_c, 3, 75, 127
2, 264864, Note_off_c, 3, 75, 127
2, 264864, Note_off_c, 12, 71, 127
2, 264864, Note_off_c, 10, 45, 127
2, 264866, Note_on_c, 7, 43, 127
2, 264866, Note_on_c, 4, 64, 127
2, 264866, Note_on_c, 4, 76, 127
2, 264866, Note_on_c, 12, 71, 127
2, 265021, Note_off_c, 7, 43, 127
2, 265023, Note_on_c, 6, 42, 127
2, 265178, Note_off_c, 6, 42, 127
2, 265178, Note_off_c, 12, 71, 127
2, 265178, Note_off_c, 4, 76, 127
2, 265181, Note_on_c, 7, 43, 127
2, 265181, Note_on_c, 0, 72, 127
2, 265336, Note_off_c, 0, 72, 127
2, 265336, Note_off_c, 7, 43, 127
2, 265338, Note_on_c, 12, 47, 127
2, 265338, Note_on_c, 12, 71, 127
2, 265493, Note_off_c, 12, 71, 127
2, 265493, Note_off_c, 12, 47, 127
2, 265495, Note_on_c, 10, 45, 127
2, 265495, Note_on_c, 0, 72, 127
2, 265650, Note_off_c, 0, 72, 127
2, 265650, Note_off_c, 10, 45, 127
2, 265651, Note_off_c, 4, 64, 127
2, 265652, Note_on_c, 7, 43, 127
2, 265652, Note_on_c, 10, 69, 127
2, 265807, Note_off_c, 10, 69, 127
2, 265807, Note_off_c, 7, 43, 127
2, 265809, Note_on_c, 6, 42, 127
2, 265809, Note_on_c, 3, 63, 127
2, 265964, Note_off_c, 6, 42, 127
2, 265966, Note_on_c, 4, 40, 127
2, 266121, Note_off_c, 4, 40, 127
2, 266121, Note_off_c, 3, 63, 127
2, 266123, Note_on_c, 6, 42, 127
2, 266123, Note_on_c, 6, 66, 127
2, 266123, Note_on_c, 10, 69, 127
2, 266278, Note_off_c, 6, 42, 127
2, 266281, Note_on_c, 7, 43, 127
2, 266436, Note_off_c, 7, 43, 127
2, 266438, Note_on_c, 6, 42, 127
2, 266592, Note_off_c, 10, 69, 127
2, 266592, Note_off_c, 6, 66, 127
2, 266593, Note_off_c, 6, 42, 127
2, 266595, Note_on_c, 4, 40, 127
2, 266595, Note_on_c, 6, 66, 127
2, 266595, Note_on_c, 10, 69, 127
2, 266750, Note_off_c, 10, 69, 127
2, 266750, Note_off_c, 6, 66, 127
2, 266750, Note_off_c, 4, 40, 127
2, 266752, Note_on_c, 3, 39, 127
2, 266752, Note_on_c, 6, 66, 127
2, 266752, Note_on_c, 12, 59, 127
2, 266752, Note_on_c, 10, 69, 127
2, 266907, Note_off_c, 3, 39, 127
2, 266909, Note_on_c, 1, 37, 127
2, 267064, Note_off_c, 1, 37, 127
2, 267064, Note_off_c, 10, 69, 127
2, 267064, Note_off_c, 12, 59, 127
2, 267066, Note_on_c, 3, 39, 127
2, 267066, Note_on_c, 12, 71, 127
2, 267221, Note_off_c, 12, 71, 127
2, 267221, Note_off_c, 3, 39, 127
2, 267223, Note_on_c, 4, 40, 127
2, 267223, Note_on_c, 10, 69, 127
2, 267374, Note_off_c, 6, 66, 127
2, 267378, Note_off_c, 10, 69, 127
2, 267378, Note_off_c, 4, 40, 127
2, 267381, Note_on_c, 1, 37, 127
2, 267381, Note_on_c, 12, 71, 127
2, 267536, Note_off_c, 12, 71, 127
2, 267536, Note_off_c, 1, 37, 127
2, 267538, Note_on_c, 3, 39, 127
2, 267538, Note_on_c, 6, 66, 127
2, 267693, Note_off_c, 6, 66, 127
2, 267693, Note_off_c, 3, 39, 127
2, 267695, Note_on_c, 4, 40, 127
2, 267695, Note_on_c, 7, 67, 127
2, 267852, Note_on_c, 12, 71, 127
2, 268007, Note_off_c, 12, 71, 127
2, 268007, Note_off_c, 4, 40, 127
2, 268009, Note_on_c, 4, 52, 127
2, 268009, Note_on_c, 4, 76, 127
2, 268153, Note_off_c, 7, 67, 127
2, 268166, Note_on_c, 12, 71, 127
2, 268321, Note_off_c, 12, 71, 127
2, 268321, Note_off_c, 4, 52, 127
2, 268323, Note_on_c, 4, 40, 127
2, 268323, Note_on_c, 10, 69, 127
2, 268478, Note_off_c, 10, 69, 127
2, 268480, Note_on_c, 7, 67, 127
2, 268635, Note_off_c, 7, 67, 127
2, 268635, Note_off_c, 4, 40, 127
2, 268638, Note_on_c, 4, 40, 127
2, 268638, Note_on_c, 10, 69, 127
2, 268794, Note_off_c, 4, 76, 127
2, 268795, Note_on_c, 3, 75, 127
2, 268872, Note_off_c, 3, 75, 127
2, 268874, Note_on_c, 4, 76, 127
2, 268951, Note_off_c, 4, 76, 127
2, 268952, Note_off_c, 4, 40, 127
2, 268954, Note_on_c, 4, 52, 127
2, 268954, Note_on_c, 6, 78, 127
2, 269098, Note_off_c, 10, 69, 127
2, 269111, Note_on_c, 0, 72, 127
2, 269266, Note_off_c, 0, 72, 127
2, 269266, Note_off_c, 4, 52, 127
2, 269268, Note_on_c, 4, 40, 127
2, 269268, Note_on_c, 12, 71, 127
2, 269423, Note_off_c, 12, 71, 127
2, 269425, Note_on_c, 10, 69, 127
2, 269580, Note_off_c, 10, 69, 127
2, 269580, Note_off_c, 4, 40, 127
2, 269582, Note_on_c, 4, 40, 127
2, 269582, Note_on_c, 12, 71, 127
2, 269739, Note_off_c, 6, 78, 127
2, 269739, Note_on_c, 4, 76, 127
2, 269816, Note_off_c, 4, 76, 127
2, 269819, Note_on_c, 6, 78, 127
2, 269896, Note_off_c, 6, 78, 127
2, 269896, Note_off_c, 4, 40, 127
2, 269898, Note_on_c, 4, 52, 127
2, 269898, Note_on_c, 7, 79, 127
2, 270042, Note_off_c, 12, 71, 127
2, 270055, Note_on_c, 2, 74, 127
2, 270210, Note_off_c, 2, 74, 127
2, 270210, Note_off_c, 4, 52, 127
2, 270212, Note_on_c, 4, 40, 127
2, 270212, Note_on_c, 0, 72, 127
2, 270367, Note_off_c, 0, 72, 127
2, 270369, Note_on_c, 12, 71, 127
2, 270524, Note_off_c, 12, 71, 127
2, 270524, Note_off_c, 4, 40, 127
2, 270527, Note_on_c, 4, 40, 127
2, 270527, Note_on_c, 0, 72, 127
2, 270683, Note_off_c, 7, 79, 127
2, 270684, Note_on_c, 6, 78, 127
2, 270761, Note_off_c, 6, 78, 127
2, 270763, Note_on_c, 7, 79, 127
2, 270840, Note_off_c, 7, 79, 127
2, 270841, Note_off_c, 4, 40, 127
2, 270842, Note_on_c, 4, 52, 127
2, 270842, Note_on_c, 10, 81, 127
2, 270987, Note_off_c, 0, 72, 127
2, 271000, Note_on_c, 7, 79, 127
2, 271154, Note_off_c, 4, 52, 127
2, 271155, Note_off_c, 7, 79, 127
2, 271157, Note_on_c, 4, 40, 127
2, 271157, Note_on_c, 6, 78, 127
2, 271312, Note_off_c, 6, 78, 127
2, 271314, Note_on_c, 4, 76, 127
2, 271469, Note_off_c, 4, 76, 127
2, 271469, Note_off_c, 4, 40, 127
2, 271471, Note_on_c, 4, 40, 127
2, 271471, Note_on_c, 3, 75, 127
2, 271628, Note_on_c, 6, 78, 127
2, 271783, Note_off_c, 6, 78, 127
2, 271783, Note_off_c, 4, 40, 127
2, 271783, Note_off_c, 10, 81, 127
2, 271785, Note_on_c, 4, 52, 127
2, 271785, Note_on_c, 10, 81, 127
2, 271940, Note_off_c, 10, 81, 127
2, 271942, Note_on_c, 0, 84, 127
2, 272093, Note_off_c, 3, 75, 127
2, 272097, Note_off_c, 0, 84, 127
2, 272097, Note_off_c, 4, 52, 127
2, 272100, Note_on_c, 4, 40, 127
2, 272100, Note_on_c, 12, 83, 127
2, 272255, Note_off_c, 12, 83, 127
2, 272257, Note_on_c, 10, 81, 127
2, 272412, Note_off_c, 10, 81, 127
2, 272412, Note_off_c, 4, 40, 127
2, 272414, Note_on_c, 4, 52, 127
2, 272414, Note_on_c, 7, 79, 127
2, 272569, Note_off_c, 4, 52, 127
2, 272571, Note_on_c, 3, 51, 127
2, 272571, Note_on_c, 6, 78, 127
2, 272726, Note_off_c, 6, 78, 127
2, 272726, Note_off_c, 3, 51, 127
2, 272728, Note_on_c, 4, 52, 127
2, 272728, Note_on_c, 4, 76, 127
2, 272883, Note_off_c, 4, 76, 127
2, 272883, Note_off_c, 4, 52, 127
2, 272885, Note_on_c, 6, 54, 127
2, 272885, Note_on_c, 3, 75, 127
2, 273040, Note_off_c, 3, 75, 127
2, 273040, Note_off_c, 6, 54, 127
2, 273042, Note_on_c, 7, 55, 127
2, 273042, Note_on_c, 4, 76, 127
2, 273197, Note_off_c, 4, 76, 127
2, 273197, Note_off_c, 7, 55, 127
2, 273200, Note_on_c, 4, 52, 127
2, 273200, Note_on_c, 12, 71, 127
2, 273355, Note_off_c, 12, 71, 127
2, 273355, Note_off_c, 4, 52, 127
2, 273355, Note_off_c, 7, 79, 127
2, 273357, Note_on_c, 10, 57, 127
2, 273357, Note_on_c, 0, 72, 127
2, 273512, Note_off_c, 10, 57, 127
2, 273514, Note_on_c, 12, 59, 127
2, 273514, Note_on_c, 4, 64, 127
2, 273669, Note_off_c, 4, 64, 127
2, 273669, Note_off_c, 12, 59, 127
2, 273671, Note_on_c, 10, 57, 127
2, 273671, Note_on_c, 7, 67, 127
2, 273826, Note_off_c, 7, 67, 127
2, 273826, Note_off_c, 10, 57, 127
2, 273828, Note_on_c, 7, 55, 127
2, 273828, Note_on_c, 12, 71, 127
2, 273983, Note_off_c, 12, 71, 127
2, 273983, Note_off_c, 7, 55, 127
2, 273985, Note_on_c, 6, 54, 127
2, 273985, Note_on_c, 10, 69, 127
2, 274140, Note_off_c, 10, 69, 127
2, 274140, Note_off_c, 6, 54, 127
2, 274142, Note_on_c, 4, 52, 127
2, 274142, Note_on_c, 7, 67, 127
2, 274297, Note_off_c, 7, 67, 127
2, 274297, Note_off_c, 4, 52, 127
2, 274298, Note_off_c, 0, 72, 127
2, 274300, Note_on_c, 2, 50, 127
2, 274300, Note_on_c, 6, 66, 127
2, 274455, Note_off_c, 2, 50, 127
2, 274457, Note_on_c, 0, 48, 127
2, 274457, Note_on_c, 4, 76, 127
2, 274612, Note_off_c, 4, 76, 127
2, 274612, Note_off_c, 0, 48, 127
2, 274614, Note_on_c, 2, 50, 127
2, 274614, Note_on_c, 2, 74, 127
2, 274769, Note_off_c, 2, 74, 127
2, 274769, Note_off_c, 2, 50, 127
2, 274771, Note_on_c, 4, 52, 127
2, 274771, Note_on_c, 0, 72, 127
2, 274926, Note_off_c, 0, 72, 127
2, 274926, Note_off_c, 4, 52, 127
2, 274928, Note_on_c, 6, 54, 127
2, 274928, Note_on_c, 2, 74, 127
2, 275083, Note_off_c, 2, 74, 127
2, 275083, Note_off_c, 6, 54, 127
2, 275085, Note_on_c, 2, 50, 127
2, 275085, Note_on_c, 10, 69, 127
2, 275240, Note_off_c, 10, 69, 127
2, 275240, Note_off_c, 2, 50, 127
2, 275241, Note_off_c, 6, 66, 127
2, 275242, Note_on_c, 7, 55, 127
2, 275242, Note_on_c, 12, 71, 127
2, 275397, Note_off_c, 7, 55, 127
2, 275400, Note_on_c, 10, 57, 127
2, 275400, Note_on_c, 2, 62, 127
2, 275555, Note_off_c, 2, 62, 127
2, 275555, Note_off_c, 10, 57, 127
2, 275557, Note_on_c, 7, 55, 127
2, 275557, Note_on_c, 5, 65, 127
2, 275712, Note_off_c, 5, 65, 127
2, 275712, Note_off_c, 7, 55, 127
2, 275714, Note_on_c, 5, 53, 127
2, 275714, Note_on_c, 10, 69, 127
2, 275869, Note_off_c, 10, 69, 127
2, 275869, Note_off_c, 5, 53, 127
2, 275871, Note_on_c, 4, 52, 127
2, 275871, Note_on_c, 7, 67, 127
2, 276026, Note_off_c, 7, 67, 127
2, 276026, Note_off_c, 4, 52, 127
2, 276028, Note_on_c, 2, 50, 127
2, 276028, Note_on_c, 5, 65, 127
2, 276183, Note_off_c, 5, 65, 127
2, 276183, Note_off_c, 2, 50, 127
2, 276183, Note_off_c, 12, 71, 127
2, 276185, Note_on_c, 0, 48, 127
2, 276185, Note_on_c, 4, 64, 127
2, 276340, Note_off_c, 0, 48, 127
2, 276342, Note_on_c, 12, 47, 127
2, 276342, Note_on_c, 2, 74, 127
2, 276497, Note_off_c, 2, 74, 127
2, 276497, Note_off_c, 12, 47, 127
2, 276499, Note_on_c, 0, 48, 127
2, 276499, Note_on_c, 0, 72, 127
2, 276654, Note_off_c, 0, 72, 127
2, 276654, Note_off_c, 0, 48, 127
2, 276657, Note_on_c, 2, 50, 127
2, 276657, Note_on_c, 12, 71, 127
2, 276812, Note_off_c, 12, 71, 127
2, 276812, Note_off_c, 2, 50, 127
2, 276814, Note_on_c, 4, 52, 127
2, 276814, Note_on_c, 0, 72, 127
2, 276969, Note_off_c, 0, 72, 127
2, 276969, Note_off_c, 4, 52, 127
2, 276971, Note_on_c, 0, 48, 127
2, 276971, Note_on_c, 7, 67, 127
2, 277126, Note_off_c, 7, 67, 127
2, 277126, Note_off_c, 0, 48, 127
2, 277126, Note_off_c, 4, 64, 127
2, 277128, Note_on_c, 6, 54, 127
2, 277128, Note_on_c, 10, 69, 127
2, 277283, Note_off_c, 6, 54, 127
2, 277285, Note_on_c, 7, 55, 127
2, 277285, Note_on_c, 3, 63, 127
2, 277440, Note_off_c, 3, 63, 127
2, 277440, Note_off_c, 7, 55, 127
2, 277442, Note_on_c, 6, 54, 127
2, 277442, Note_on_c, 4, 64, 127
2, 277597, Note_off_c, 4, 64, 127
2, 277597, Note_off_c, 6, 54, 127
2, 277599, Note_on_c, 4, 52, 127
2, 277599, Note_on_c, 7, 67, 127
2, 277754, Note_off_c, 7, 67, 127
2, 277754, Note_off_c, 4, 52, 127
2, 277757, Note_on_c, 3, 51, 127
2, 277757, Note_on_c, 6, 66, 127
2, 277912, Note_off_c, 6, 66, 127
2, 277912, Note_off_c, 3, 51, 127
2, 277914, Note_on_c, 1, 49, 127
2, 277914, Note_on_c, 4, 64, 127
2, 278069, Note_off_c, 4, 64, 127
2, 278069, Note_off_c, 1, 49, 127
2, 278069, Note_off_c, 10, 69, 127
2, 278071, Note_on_c, 12, 47, 127
2, 278071, Note_on_c, 3, 63, 127
2, 278231, Note_on_c, 0, 72, 127
2, 278389, Note_off_c, 0, 72, 127
2, 278390, Note_off_c, 12, 47, 127
2, 278392, Note_on_c, 12, 59, 127
2, 278392, Note_on_c, 12, 71, 127
2, 278550, Note_off_c, 12, 71, 127
2, 278552, Note_on_c, 10, 69, 127
2, 278710, Note_off_c, 10, 69, 127
2, 278711, Note_off_c, 12, 59, 127
2, 278712, Note_on_c, 12, 47, 127
2, 278712, Note_on_c, 12, 71, 127
2, 278870, Note_off_c, 12, 71, 127
2, 278873, Note_on_c, 6, 66, 127
2, 279031, Note_off_c, 6, 66, 127
2, 279031, Note_off_c, 12, 47, 127
2, 279031, Note_off_c, 3, 63, 127
2, 279033, Note_on_c, 12, 47, 127
2, 279033, Note_on_c, 7, 67, 127
2, 279194, Note_on_c, 6, 66, 127
2, 279352, Note_off_c, 6, 66, 127
2, 279352, Note_off_c, 12, 47, 127
2, 279354, Note_on_c, 12, 59, 127
2, 279354, Note_on_c, 4, 64, 127
2, 279512, Note_off_c, 4, 64, 127
2, 279514, Note_on_c, 3, 63, 127
2, 279672, Note_off_c, 3, 63, 127
2, 279673, Note_off_c, 12, 59, 127
2, 279675, Note_on_c, 12, 47, 127
2, 279675, Note_on_c, 4, 64, 127
2, 279833, Note_off_c, 4, 64, 127
2, 279835, Note_on_c, 1, 61, 127
2, 279993, Note_off_c, 1, 61, 127
2, 279994, Note_off_c, 12, 47, 127
2, 279995, Note_on_c, 11, 58, 127
2, 279995, Note_on_c, 12, 47, 127
2, 280152, Note_off_c, 7, 67, 127
2, 280156, Note_on_c, 7, 67, 127
2, 280312, Note_off_c, 11, 58, 127
2, 280314, Note_off_c, 7, 67, 127
2, 280316, Note_on_c, 6, 66, 127
2, 280316, Note_on_c, 11, 58, 127
2, 280474, Note_off_c, 6, 66, 127
2, 280477, Note_on_c, 4, 64, 127
2, 280630, Note_off_c, 12, 47, 127
2, 280635, Note_off_c, 4, 64, 127
2, 280637, Note_on_c, 12, 47, 127
2, 280637, Note_on_c, 6, 66, 127
2, 280795, Note_off_c, 6, 66, 127
2, 280797, Note_on_c, 1, 61, 127
2, 280951, Note_off_c, 11, 58, 127
2, 280955, Note_off_c, 1, 61, 127
2, 280956, Note_off_c, 12, 47, 127
2, 280958, Note_on_c, 12, 47, 127
2, 280958, Note_on_c, 3, 63, 127
2, 281120, Note_on_c, 0, 60, 127
2, 281280, Note_off_c, 0, 60, 127
2, 281282, Note_on_c, 12, 59, 127
2, 281442, Note_off_c, 12, 59, 127
2, 281444, Note_on_c, 10, 57, 127
2, 281604, Note_off_c, 10, 57, 127
2, 281606, Note_on_c, 12, 59, 127
2, 281766, Note_off_c, 12, 59, 127
2, 281768, Note_on_c, 6, 54, 127
2, 281928, Note_off_c, 6, 54, 127
2, 281928, Note_off_c, 3, 63, 127
2, 281930, Note_on_c, 7, 55, 127
2, 282093, Note_on_c, 12, 59, 127
2, 282255, Note_off_c, 12, 59, 127
2, 282257, Note_on_c, 4, 64, 127
2, 282419, Note_off_c, 4, 64, 127
2, 282421, Note_on_c, 6, 66, 127
2, 282583, Note_off_c, 6, 66, 127
2, 282584, Note_on_c, 7, 67, 127
2, 282748, Note_on_c, 1, 61, 127
2, 282910, Note_off_c, 1, 61, 127
2, 282911, Note_on_c, 4, 64, 127
2, 283078, Note_on_c, 11, 58, 127
2, 283243, Note_off_c, 11, 58, 127
2, 283245, Note_on_c, 1, 61, 127
2, 283412, Note_on_c, 4, 52, 127
2, 283577, Note_off_c, 4, 52, 127
2, 283579, Note_off_c, 7, 55, 127
2, 283579, Note_on_c, 7, 55, 127
2, 283744, Note_off_c, 7, 55, 127
2, 283746, Note_on_c, 1, 49, 127
2, 283905, Note_off_c, 1, 61, 127
2, 283911, Note_off_c, 1, 49, 127
2, 283913, Note_on_c, 4, 52, 127
2, 284078, Note_off_c, 4, 52, 127
2, 284079, Note_on_c, 7, 55, 127
2, 284244, Note_off_c, 4, 64, 127
2, 284246, Note_on_c, 1, 61, 127
2, 284413, Note_on_c, 4, 64, 127
2, 284576, Note_off_c, 7, 67, 127
2, 284580, Note_on_c, 7, 67, 127
2, 284732, Note_off_c, 1, 61, 127
2, 284738, Note_off_c, 7, 55, 127
2, 284741, Note_off_c, 4, 64, 127
2, 284743, Note_off_c, 7, 67, 127
2, 284745, Note_on_c, 11, 70, 127
2, 284910, Note_off_c, 11, 70, 127
2, 284910, Note_off_c, 12, 47, 127
2, 284912, Note_on_c, 12, 47, 127
2, 284912, Note_on_c, 3, 63, 127
2, 284912, Note_on_c, 12, 71, 127
2, 284912, Note_on_c, 6, 66, 127
2, 285074, Note_off_c, 6, 66, 127
2, 285074, Note_off_c, 3, 63, 127
2, 285076, Note_on_c, 12, 59, 127
2, 285236, Note_off_c, 12, 71, 127
2, 285237, Note_off_c, 12, 47, 127
2, 285238, Note_off_c, 12, 59, 127
2, 285239, Note_on_c, 12, 59, 127
2, 285239, Note_on_c, 1, 61, 127
2, 285401, Note_off_c, 1, 61, 127
2, 285403, Note_on_c, 3, 63, 127
2, 285565, Note_off_c, 3, 63, 127
2, 285567, Note_on_c, 4, 64, 127
2, 285725, Note_off_c, 4, 64, 127
2, 285725, Note_off_c, 12, 59, 127
2, 285727, Note_on_c, 12, 59, 127
2, 285727, Note_on_c, 6, 66, 127
2, 285885, Note_off_c, 6, 66, 127
2, 285885, Note_off_c, 12, 59, 127
2, 285887, Note_on_c, 4, 52, 127
2, 285887, Note_on_c, 7, 67, 127
2, 286045, Note_off_c, 7, 67, 127
2, 286048, Note_on_c, 4, 64, 127
2, 286206, Note_off_c, 4, 64, 127
2, 286206, Note_off_c, 4, 52, 127
2, 286208, Note_on_c, 0, 60, 127
2, 286208, Note_on_c, 6, 66, 127
2, 286366, Note_off_c, 6, 66, 127
2, 286366, Note_off_c, 0, 60, 127
2, 286369, Note_on_c, 12, 59, 127
2, 286369, Note_on_c, 7, 67, 127
2, 286527, Note_off_c, 7, 67, 127
2, 286527, Note_off_c, 12, 59, 127
2, 286529, Note_on_c, 0, 60, 127
2, 286529, Note_on_c, 10, 69, 127
2, 286687, Note_off_c, 10, 69, 127
2, 286687, Note_off_c, 0, 60, 127
2, 286689, Note_on_c, 10, 57, 127
2, 286689, Note_on_c, 12, 71, 127
2, 286847, Note_off_c, 12, 71, 127
2, 286847, Note_off_c, 10, 57, 127
2, 286850, Note_on_c, 3, 51, 127
2, 286850, Note_on_c, 0, 72, 127
2, 287010, Note_on_c, 12, 71, 127
2, 287168, Note_off_c, 12, 71, 127
2, 287169, Note_off_c, 3, 51, 127
2, 287170, Note_on_c, 6, 54, 127
2, 287170, Note_on_c, 10, 69, 127
2, 287328, Note_off_c, 10, 69, 127
2, 287331, Note_on_c, 7, 67, 127
2, 287489, Note_off_c, 7, 67, 127
2, 287491, Note_on_c, 6, 66, 127
2, 287649, Note_off_c, 6, 66, 127
2, 287649, Note_off_c, 6, 54, 127
2, 287652, Note_on_c, 6, 54, 127
2, 287652, Note_on_c, 4, 64, 127
2, 287810, Note_off_c, 4, 64, 127
2, 287810, Note_off_c, 6, 54, 127
2, 287812, Note_on_c, 12, 47, 127
2, 287812, Note_on_c, 3, 63, 127
2, 287972, Note_off_c, 0, 72, 127
2, 287972, Note_on_c, 6, 66, 127
2, 288130, Note_off_c, 6, 66, 127
2, 288131, Note_off_c, 12, 47, 127
2, 288133, Note_on_c, 12, 59, 127
2, 288133, Note_on_c, 10, 69, 127
2, 288291, Note_off_c, 10, 69, 127
2, 288291, Note_off_c, 12, 59, 127
2, 288293, Note_on_c, 10, 57, 127
2, 288293, Note_on_c, 0, 72, 127
2, 288447, Note_off_c, 3, 63, 127
2, 288451, Note_off_c, 0, 72, 127
2, 288451, Note_off_c, 10, 57, 127
2, 288453, Note_on_c, 12, 59, 127
2, 288453, Note_on_c, 3, 63, 127
2, 288611, Note_off_c, 12, 59, 127
2, 288614, Note_on_c, 6, 54, 127
2, 288614, Note_on_c, 6, 66, 127
2, 288770, Note_off_c, 3, 63, 127
2, 288772, Note_off_c, 6, 66, 127
2, 288772, Note_off_c, 6, 54, 127
2, 288774, Note_on_c, 7, 55, 127
2, 288774, Note_on_c, 4, 64, 127
2, 288935, Note_on_c, 7, 67, 127
2, 289093, Note_off_c, 7, 67, 127
2, 289093, Note_off_c, 7, 55, 127
2, 289095, Note_on_c, 10, 57, 127
2, 289095, Note_on_c, 12, 71, 127
2, 289172, Note_off_c, 10, 57, 127
2, 289174, Note_on_c, 8, 56, 127
2, 289251, Note_off_c, 8, 56, 127
2, 289252, Note_off_c, 12, 71, 127
2, 289254, Note_on_c, 10, 57, 127
2, 289254, Note_on_c, 4, 76, 127
2, 289331, Note_off_c, 10, 57, 127
2, 289333, Note_on_c, 8, 56, 127
2, 289405, Note_off_c, 4, 64, 127
2, 289411, Note_off_c, 4, 76, 127
2, 289413, Note_on_c, 4, 64, 127
2, 289571, Note_off_c, 8, 56, 127
2, 289573, Note_on_c, 8, 56, 127
2, 289573, Note_on_c, 2, 74, 127
2, 289730, Note_off_c, 4, 64, 127
2, 289731, Note_off_c, 2, 74, 127
2, 289731, Note_off_c, 8, 56, 127
2, 289733, Note_on_c, 10, 57, 127
2, 289733, Note_on_c, 0, 72, 127
2, 289894, Note_on_c, 4, 76, 127
2, 290052, Note_off_c, 4, 76, 127
2, 290052, Note_off_c, 10, 57, 127
2, 290054, Note_on_c, 0, 60, 127
2, 290054, Note_on_c, 10, 81, 127
2, 290131, Note_off_c, 0, 60, 127
2, 290133, Note_on_c, 12, 59, 127
2, 290210, Note_off_c, 12, 59, 127
2, 290211, Note_off_c, 10, 81, 127
2, 290213, Note_on_c, 0, 60, 127
2, 290213, Note_on_c, 0, 84, 127
2, 290366, Note_off_c, 0, 72, 127
2, 290371, Note_off_c, 0, 84, 127
2, 290373, Note_on_c, 5, 77, 127
2, 290531, Note_off_c, 5, 77, 127
2, 290532, Note_off_c, 0, 60, 127
2, 290534, Note_on_c, 0, 60, 127
2, 290534, Note_on_c, 10, 81, 127
2, 290692, Note_off_c, 10, 81, 127
2, 290692, Note_off_c, 0, 60, 127
2, 290694, Note_on_c, 12, 59, 127
2, 290694, Note_on_c, 3, 75, 127
2, 290860, Note_off_c, 12, 59, 127
2, 290862, Note_on_c, 0, 60, 127
2, 290862, Note_on_c, 6, 78, 127
2, 291028, Note_off_c, 6, 78, 127
2, 291028, Note_off_c, 0, 60, 127
2, 291031, Note_on_c, 12, 59, 127
2, 291031, Note_on_c, 12, 71, 127
2, 291186, Note_off_c, 3, 75, 127
2, 291199, Note_off_c, 12, 59, 127
2, 291201, Note_on_c, 10, 57, 127
2, 291201, Note_on_c, 3, 75, 127
2, 291367, Note_off_c, 3, 75, 127
2, 291367, Note_off_c, 10, 57, 127
2, 291369, Note_on_c, 7, 55, 127
2, 291369, Note_on_c, 4, 76, 127
2, 291536, Note_off_c, 12, 71, 127
2, 291548, Note_off_c, 7, 55, 127
2, 291551, Note_on_c, 6, 54, 127
2, 291551, Note_on_c, 10, 69, 127
2, 291732, Note_off_c, 10, 69, 127
2, 291732, Note_off_c, 6, 54, 127
2, 291734, Note_on_c, 4, 52, 127
2, 291734, Note_on_c, 7, 67, 127
2, 291900, Note_off_c, 4, 76, 127
2, 291913, Note_off_c, 7, 67, 127
2, 291913, Note_off_c, 4, 52, 127
2, 291915, Note_on_c, 10, 57, 127
2, 291915, Note_on_c, 6, 78, 127
2, 291915, Note_on_c, 4, 76, 127
2, 292096, Note_off_c, 4, 76, 127
2, 292096, Note_off_c, 6, 78, 127
2, 292096, Note_off_c, 10, 57, 127
2, 292098, Note_on_c, 12, 59, 127
2, 292098, Note_on_c, 3, 75, 127
2, 292098, Note_on_c, 7, 79, 127
2, 292198, Note_off_c, 7, 79, 127
2, 292201, Note_on_c, 6, 78, 127
2, 292301, Note_off_c, 6, 78, 127
2, 292303, Note_on_c, 7, 79, 127
2, 292403, Note_off_c, 7, 79, 127
2, 292405, Note_on_c, 6, 78, 127
2, 292504, Note_off_c, 12, 59, 127
2, 292505, Note_off_c, 6, 78, 127
2, 292507, Note_on_c, 12, 47, 127
2, 292507, Note_on_c, 7, 79, 127
2, 292607, Note_off_c, 7, 79, 127
2, 292609, Note_on_c, 6, 78, 127
2, 292694, Note_off_c, 3, 75, 127
2, 292709, Note_off_c, 6, 78, 127
2, 292711, Note_on_c, 4, 76, 127
2, 292915, Note_off_c, 4, 76, 127
2, 292915, Note_off_c, 12, 47, 127
2, 292917, Note_on_c, 4, 40, 127
2, 292917, Note_on_c, 4, 76, 127
2, 295617, Note_off_c, 4, 76, 127
2, 295617, Note_off_c, 4, 40, 127
2, 296677, Note_on_c, 4, 76, 127
2, 296853, Note_off_c, 4, 76, 127
2, 296857, Note_on_c, 4, 52, 127
2, 296857, Note_on_c, 4, 76, 127
2, 296857, Note_on_c, 7, 67, 127
2, 296857, Note_on_c, 12, 71, 127
2, 297208, Note_off_c, 4, 52, 127
2, 297210, Note_on_c, 4, 40, 127
2, 297384, Note_off_c, 12, 71, 127
2, 297384, Note_off_c, 7, 67, 127
2, 297384, Note_off_c, 4, 76, 127
2, 297387, Note_on_c, 2, 74, 127
2, 297560, Note_off_c, 2, 74, 127
2, 297563, Note_on_c, 0, 72, 127
2, 297740, Note_off_c, 4, 40, 127
2, 297742, Note_off_c, 0, 72, 127
2, 297744, Note_on_c, 4, 52, 127
2, 297744, Note_on_c, 12, 71, 127
2, 297918, Note_on_c, 6, 54, 127
2, 297918, Note_on_c, 10, 69, 127
2, 297920, Note_off_c, 12, 71, 127
2, 297920, Note_off_c, 4, 52, 127
2, 298096, Note_off_c, 10, 69, 127
2, 298096, Note_off_c, 6, 54, 127
2, 298098, Note_on_c, 7, 55, 127
2, 298098, Note_on_c, 7, 67, 127
2, 298276, Note_off_c, 7, 67, 127
2, 298276, Note_off_c, 7, 55, 127
2, 298278, Note_on_c, 10, 57, 127
2, 298278, Note_on_c, 6, 66, 127
2, 298456, Note_off_c, 6, 66, 127
2, 298458, Note_on_c, 4, 76, 127
2, 298636, Note_off_c, 4, 76, 127
2, 298636, Note_off_c, 10, 57, 127
2, 298637, Note_on_c, 6, 54, 127
2, 298637, Note_on_c, 3, 75, 127
2, 298815, Note_off_c, 3, 75, 127
2, 298817, Note_on_c, 10, 81, 127
2, 298995, Note_off_c, 10, 81, 127
2, 298995, Note_off_c, 6, 54, 127
2, 298997, Note_on_c, 12, 59, 127
2, 298997, Note_on_c, 10, 81, 127
2, 299175, Note_off_c, 10, 81, 127
2, 299177, Note_on_c, 7, 79, 127
2, 299355, Note_off_c, 7, 79, 127
2, 299355, Note_off_c, 12, 59, 127
2, 299357, Note_on_c, 12, 47, 127
2, 299357, Note_on_c, 10, 81, 127
2, 299535, Note_off_c, 10, 81, 127
2, 299536, Note_on_c, 6, 78, 127
2, 299714, Note_off_c, 6, 78, 127
2, 299715, Note_off_c, 12, 47, 127
2, 299716, Note_on_c, 7, 55, 127
2, 299716, Note_on_c, 4, 52, 127
2, 299716, Note_on_c, 4, 64, 127
2, 299716, Note_on_c, 12, 59, 127
2, 299716, Note_on_c, 7, 79, 127
2, 299894, Note_off_c, 7, 79, 127
2, 299896, Note_on_c, 6, 78, 127
2, 300074, Note_off_c, 6, 78, 127
2, 300076, Note_on_c, 4, 76, 127
2, 300253, Note_off_c, 12, 59, 127
2, 300253, Note_off_c, 4, 64, 127
2, 300253, Note_off_c, 4, 52, 127
2, 300253, Note_off_c, 7, 55, 127
2, 300256, Note_on_c, 2, 62, 127
2, 300434, Note_off_c, 2, 62, 127
2, 300436, Note_on_c, 0, 60, 127
2, 300613, Note_off_c, 4, 76, 127
2, 300614, Note_off_c, 0, 60, 127
2, 300615, Note_on_c, 12, 59, 127
2, 300615, Note_on_c, 4, 76, 127
2, 300793, Note_off_c, 4, 76, 127
2, 300793, Note_off_c, 12, 59, 127
2, 300795, Note_on_c, 10, 57, 127
2, 300795, Note_on_c, 6, 78, 127
2, 300973, Note_off_c, 6, 78, 127
2, 300973, Note_off_c, 10, 57, 127
2, 300975, Note_on_c, 7, 55, 127
2, 300975, Note_on_c, 7, 79, 127
2, 301153, Note_off_c, 7, 79, 127
2, 301153, Note_off_c, 7, 55, 127
2, 301155, Note_on_c, 6, 54, 127
2, 301155, Note_on_c, 10, 81, 127
2, 301333, Note_off_c, 10, 81, 127
2, 301333, Note_off_c, 6, 54, 127
2, 301335, Note_on_c, 4, 64, 127
2, 301335, Note_on_c, 12, 83, 127
2, 301422, Note_off_c, 12, 83, 127
2, 301424, Note_on_c, 0, 84, 127
2, 301511, Note_off_c, 0, 84, 127
2, 301511, Note_off_c, 4, 64, 127
2, 301513, Note_on_c, 3, 63, 127
2, 301513, Note_on_c, 12, 83, 127
2, 301691, Note_off_c, 12, 83, 127
2, 301691, Note_off_c, 3, 63, 127
2, 301693, Note_on_c, 10, 69, 127
2, 301693, Note_on_c, 4, 76, 127
2, 301871, Note_off_c, 4, 76, 127
2, 301871, Note_off_c, 10, 69, 127
2, 301873, Note_on_c, 10, 69, 127
2, 301873, Note_on_c, 4, 76, 127
2, 301991, Note_off_c, 4, 76, 127
2, 301992, Note_on_c, 3, 75, 127
2, 302051, Note_off_c, 10, 69, 127
2, 302052, Note_on_c, 7, 67, 127
2, 302056, Note_off_c, 3, 75, 127
2, 302059, Note_on_c, 4, 76, 127
2, 302123, Note_off_c, 4, 76, 127
2, 302125, Note_on_c, 3, 75, 127
2, 302189, Note_off_c, 3, 75, 127
2, 302192, Note_on_c, 4, 76, 127
2, 302226, Note_off_c, 7, 67, 127
2, 302229, Note_on_c, 10, 69, 127
2, 302256, Note_off_c, 4, 76, 127
2, 302258, Note_on_c, 3, 75, 127
2, 302405, Note_off_c, 10, 69, 127
2, 302407, Note_on_c, 6, 66, 127
2, 302407, Note_on_c, 4, 76, 127
2, 302418, Note_off_c, 3, 75, 127
2, 302585, Note_off_c, 4, 76, 127
2, 302585, Note_off_c, 6, 66, 127
2, 302587, Note_on_c, 7, 67, 127
2, 302587, Note_on_c, 4, 76, 127
2, 302765, Note_off_c, 7, 67, 127
2, 302767, Note_on_c, 6, 66, 127
2, 302945, Note_off_c, 6, 66, 127
2, 302947, Note_on_c, 4, 64, 127
2, 303124, Note_off_c, 4, 76, 127
2, 303126, Note_on_c, 0, 84, 127
2, 303304, Note_off_c, 0, 84, 127
2, 303305, Note_off_c, 4, 64, 127
2, 303306, Note_on_c, 6, 66, 127
2, 303306, Note_on_c, 2, 74, 127
2, 303484, Note_off_c, 2, 74, 127
2, 303486, Note_on_c, 0, 84, 127
2, 303664, Note_off_c, 0, 84, 127
2, 303664, Note_off_c, 6, 66, 127
2, 303666, Note_on_c, 8, 68, 127
2, 303666, Note_on_c, 2, 74, 127
2, 303844, Note_off_c, 2, 74, 127
2, 303846, Note_on_c, 12, 83, 127
2, 304024, Note_off_c, 12, 83, 127
2, 304024, Note_off_c, 8, 68, 127
2, 304026, Note_on_c, 10, 69, 127
2, 304026, Note_on_c, 2, 74, 127
2, 304113, Note_off_c, 2, 74, 127
2, 304115, Note_on_c, 0, 72, 127
2, 304202, Note_off_c, 0, 72, 127
2, 304202, Note_off_c, 10, 69, 127
2, 304204, Note_on_c, 7, 67, 127
2, 304204, Note_on_c, 12, 71, 127
2, 304382, Note_off_c, 12, 71, 127
2, 304382, Note_off_c, 7, 67, 127
2, 304384, Note_on_c, 6, 66, 127
2, 304384, Note_on_c, 0, 72, 127
2, 304562, Note_off_c, 0, 72, 127
2, 304562, Note_off_c, 6, 66, 127
2, 304563, Note_on_c, 4, 64, 127
2, 304563, Note_on_c, 10, 81, 127
2, 304741, Note_off_c, 10, 81, 127
2, 304741, Note_off_c, 4, 64, 127
2, 304743, Note_on_c, 3, 63, 127
2, 304743, Note_on_c, 12, 71, 127
2, 304921, Note_off_c, 12, 71, 127
2, 304923, Note_on_c, 10, 81, 127
2, 305101, Note_off_c, 10, 81, 127
2, 305101, Note_off_c, 3, 63, 127
2, 305103, Note_on_c, 4, 64, 127
2, 305103, Note_on_c, 12, 71, 127
2, 305281, Note_off_c, 12, 71, 127
2, 305283, Note_on_c, 7, 79, 127
2, 305461, Note_off_c, 7, 79, 127
2, 305462, Note_on_c, 12, 71, 127
2, 305549, Note_off_c, 12, 71, 127
2, 305552, Note_on_c, 10, 69, 127
2, 305639, Note_off_c, 10, 69, 127
2, 305641, Note_on_c, 7, 67, 127
2, 305819, Note_off_c, 7, 67, 127
2, 305819, Note_off_c, 4, 64, 127
2, 305820, Note_on_c, 3, 63, 127
2, 305820, Note_on_c, 10, 69, 127
2, 305998, Note_off_c, 10, 69, 127
2, 306000, Note_on_c, 6, 78, 127
2, 306178, Note_off_c, 6, 78, 127
2, 306178, Note_off_c, 3, 63, 127
2, 306180, Note_on_c, 4, 64, 127
2, 306180, Note_on_c, 7, 67, 127
2, 306358, Note_off_c, 7, 67, 127
2, 306360, Note_on_c, 6, 78, 127
2, 306538, Note_off_c, 6, 78, 127
2, 306538, Note_off_c, 4, 64, 127
2, 306540, Note_on_c, 4, 52, 127
2, 306540, Note_on_c, 7, 67, 127
2, 306718, Note_off_c, 7, 67, 127
2, 306720, Note_on_c, 4, 76, 127
2, 306898, Note_off_c, 4, 76, 127
2, 306898, Note_off_c, 4, 52, 127
2, 306899, Note_on_c, 12, 59, 127
2, 306899, Note_on_c, 6, 66, 127
2, 307077, Note_off_c, 6, 66, 127
2, 307079, Note_on_c, 4, 76, 127
2, 307257, Note_off_c, 4, 76, 127
2, 307259, Note_on_c, 3, 75, 127
2, 307436, Note_off_c, 12, 59, 127
2, 307439, Note_on_c, 10, 57, 127
2, 307617, Note_off_c, 10, 57, 127
2, 307617, Note_off_c, 3, 75, 127
2, 307619, Note_on_c, 7, 55, 127
2, 307619, Note_on_c, 4, 76, 127
2, 307797, Note_off_c, 7, 55, 127
2, 307798, Note_on_c, 6, 54, 127
2, 307798, Note_on_c, 2, 74, 127
2, 307976, Note_off_c, 2, 74, 127
2, 307976, Note_off_c, 6, 54, 127
2, 307978, Note_on_c, 4, 52, 127
2, 307978, Note_on_c, 1, 73, 127
2, 308156, Note_off_c, 1, 73, 127
2, 308156, Note_off_c, 4, 52, 127
2, 308158, Note_on_c, 2, 50, 127
2, 308158, Note_on_c, 12, 71, 127
2, 308336, Note_off_c, 12, 71, 127
2, 308336, Note_off_c, 2, 50, 127
2, 308338, Note_on_c, 1, 49, 127
2, 308338, Note_on_c, 11, 70, 127
2, 308516, Note_off_c, 1, 49, 127
2, 308518, Note_off_c, 4, 76, 127
2, 308518, Note_on_c, 12, 59, 127
2, 308518, Note_on_c, 7, 79, 127
2, 308696, Note_off_c, 7, 79, 127
2, 308696, Note_off_c, 12, 59, 127
2, 308698, Note_on_c, 11, 58, 127
2, 308698, Note_on_c, 6, 78, 127
2, 308862, Note_off_c, 11, 70, 127
2, 308876, Note_off_c, 6, 78, 127
2, 308876, Note_off_c, 11, 58, 127
2, 308877, Note_on_c, 4, 64, 127
2, 308877, Note_on_c, 4, 76, 127
2, 308877, Note_on_c, 1, 73, 127
2, 309055, Note_off_c, 1, 73, 127
2, 309055, Note_off_c, 4, 76, 127
2, 309055, Note_off_c, 4, 64, 127
2, 309057, Note_on_c, 4, 64, 127
2, 309057, Note_on_c, 2, 74, 127
2, 309057, Note_on_c, 12, 71, 127
2, 309235, Note_off_c, 4, 64, 127
2, 309237, Note_on_c, 2, 62, 127
2, 309415, Note_off_c, 2, 62, 127
2, 309415, Note_off_c, 12, 71, 127
2, 309415, Note_off_c, 2, 74, 127
2, 309417, Note_on_c, 4, 64, 127
2, 309417, Note_on_c, 11, 70, 127
2, 309417, Note_on_c, 1, 73, 127
2, 309595, Note_off_c, 11, 70, 127
2, 309595, Note_off_c, 4, 64, 127
2, 309597, Note_on_c, 1, 61, 127
2, 309655, Note_off_c, 1, 73, 127
2, 309657, Note_on_c, 12, 71, 127
2, 309775, Note_off_c, 12, 71, 127
2, 309775, Note_off_c, 1, 61, 127
2, 309777, Note_on_c, 2, 62, 127
2, 309777, Note_on_c, 12, 71, 127
2, 309955, Note_off_c, 2, 62, 127
2, 309956, Note_on_c, 12, 59, 127
2, 310134, Note_off_c, 12, 59, 127
2, 310136, Note_on_c, 1, 61, 127
2, 310314, Note_off_c, 1, 61, 127
2, 310314, Note_off_c, 12, 71, 127
2, 310316, Note_on_c, 2, 62, 127
2, 310316, Note_on_c, 10, 69, 127
2, 310494, Note_off_c, 10, 69, 127
2, 310494, Note_off_c, 2, 62, 127
2, 310496, Note_on_c, 4, 64, 127
2, 310496, Note_on_c, 7, 67, 127
2, 310674, Note_off_c, 7, 67, 127
2, 310676, Note_on_c, 6, 66, 127
2, 310852, Note_off_c, 4, 64, 127
2, 310854, Note_off_c, 6, 66, 127
2, 310855, Note_on_c, 4, 64, 127
2, 311035, Note_on_c, 2, 62, 127
2, 311213, Note_off_c, 2, 62, 127
2, 311215, Note_on_c, 1, 61, 127
2, 311379, Note_off_c, 4, 64, 127
2, 311393, Note_off_c, 1, 61, 127
2, 311395, Note_on_c, 2, 62, 127
2, 311395, Note_on_c, 12, 71, 127
2, 311573, Note_off_c, 12, 71, 127
2, 311573, Note_off_c, 2, 62, 127
2, 311575, Note_on_c, 1, 61, 127
2, 311575, Note_on_c, 11, 70, 127
2, 311753, Note_off_c, 11, 70, 127
2, 311753, Note_off_c, 1, 61, 127
2, 311755, Note_on_c, 12, 59, 127
2, 311755, Note_on_c, 4, 76, 127
2, 311933, Note_off_c, 4, 76, 127
2, 311933, Note_off_c, 12, 59, 127
2, 311934, Note_on_c, 12, 59, 127
2, 311934, Note_on_c, 4, 76, 127
2, 312053, Note_off_c, 12, 59, 127
2, 312053, Note_on_c, 11, 58, 127
2, 312112, Note_off_c, 4, 76, 127
2, 312114, Note_on_c, 2, 74, 127
2, 312134, Note_on_c, 12, 59, 127
2, 312142, Note_off_c, 11, 58, 127
2, 312215, Note_on_c, 11, 58, 127
2, 312223, Note_off_c, 12, 59, 127
2, 312293, Note_off_c, 2, 74, 127
2, 312296, Note_on_c, 12, 59, 127
2, 312296, Note_on_c, 4, 76, 127
2, 312304, Note_off_c, 11, 58, 127
2, 312377, Note_on_c, 11, 58, 127
2, 312385, Note_off_c, 12, 59, 127
2, 312475, Note_off_c, 11, 58, 127
2, 312475, Note_off_c, 4, 76, 127
2, 312477, Note_on_c, 11, 58, 127
2, 312477, Note_on_c, 1, 73, 127
2, 312655, Note_off_c, 1, 73, 127
2, 312655, Note_off_c, 11, 58, 127
2, 312657, Note_on_c, 12, 59, 127
2, 312657, Note_on_c, 2, 74, 127
2, 312835, Note_off_c, 2, 74, 127
2, 312837, Note_on_c, 1, 73, 127
2, 313015, Note_off_c, 1, 73, 127
2, 313017, Note_on_c, 12, 71, 127
2, 313194, Note_off_c, 12, 59, 127
2, 313196, Note_on_c, 7, 67, 127
2, 313374, Note_off_c, 7, 67, 127
2, 313375, Note_off_c, 12, 71, 127
2, 313376, Note_on_c, 10, 57, 127
2, 313376, Note_on_c, 1, 73, 127
2, 313463, Note_off_c, 1, 73, 127
2, 313465, Note_on_c, 3, 75, 127
2, 313552, Note_off_c, 3, 75, 127
2, 313552, Note_off_c, 10, 57, 127
2, 313554, Note_on_c, 7, 67, 127
2, 313554, Note_on_c, 1, 73, 127
2, 313641, Note_off_c, 1, 73, 127
2, 313643, Note_on_c, 3, 75, 127
2, 313730, Note_off_c, 3, 75, 127
2, 313730, Note_off_c, 7, 67, 127
2, 313733, Note_on_c, 10, 57, 127
2, 313733, Note_on_c, 4, 76, 127
2, 313820, Note_off_c, 4, 76, 127
2, 313822, Note_on_c, 3, 75, 127
2, 313909, Note_off_c, 3, 75, 127
2, 313909, Note_off_c, 10, 57, 127
2, 313911, Note_on_c, 6, 66, 127
2, 313911, Note_on_c, 1, 73, 127
2, 313998, Note_off_c, 1, 73, 127
2, 314000, Note_on_c, 3, 75, 127
2, 314087, Note_off_c, 3, 75, 127
2, 314087, Note_off_c, 6, 66, 127
2, 314089, Note_on_c, 7, 55, 127
2, 314089, Note_on_c, 4, 76, 127
2, 314267, Note_off_c, 4, 76, 127
2, 314267, Note_off_c, 7, 55, 127
2, 314269, Note_on_c, 6, 54, 127
2, 314269, Note_on_c, 2, 74, 127
2, 314447, Note_off_c, 2, 74, 127
2, 314447, Note_off_c, 6, 54, 127
2, 314449, Note_on_c, 7, 55, 127
2, 314449, Note_on_c, 1, 73, 127
2, 314627, Note_off_c, 1, 73, 127
2, 314627, Note_off_c, 7, 55, 127
2, 314628, Note_on_c, 4, 64, 127
2, 314628, Note_on_c, 12, 71, 127
2, 314806, Note_off_c, 12, 71, 127
2, 314806, Note_off_c, 4, 64, 127
2, 314808, Note_on_c, 6, 54, 127
2, 314808, Note_on_c, 11, 70, 127
2, 314986, Note_off_c, 6, 54, 127
2, 314988, Note_on_c, 4, 64, 127
2, 315166, Note_off_c, 4, 64, 127
2, 315166, Note_off_c, 11, 70, 127
2, 315168, Note_on_c, 6, 54, 127
2, 315168, Note_on_c, 12, 71, 127
2, 315346, Note_off_c, 6, 54, 127
2, 315348, Note_on_c, 2, 62, 127
2, 315526, Note_off_c, 2, 62, 127
2, 315526, Note_off_c, 12, 71, 127
2, 315528, Note_on_c, 4, 52, 127
2, 315528, Note_on_c, 7, 79, 127
2, 315615, Note_off_c, 7, 79, 127
2, 315617, Note_on_c, 6, 78, 127
2, 315704, Note_off_c, 6, 78, 127
2, 315704, Note_off_c, 4, 52, 127
2, 315706, Note_on_c, 2, 50, 127
2, 315706, Note_on_c, 7, 79, 127
2, 315884, Note_off_c, 2, 50, 127
2, 315886, Note_on_c, 4, 52, 127
2, 316062, Note_off_c, 7, 79, 127
2, 316064, Note_off_c, 4, 52, 127
2, 316065, Note_on_c, 1, 61, 127
2, 316065, Note_on_c, 10, 81, 127
2, 316243, Note_off_c, 10, 81, 127
2, 316243, Note_off_c, 1, 61, 127
2, 316245, Note_on_c, 2, 50, 127
2, 316245, Note_on_c, 6, 78, 127
2, 316423, Note_off_c, 6, 78, 127
2, 316423, Note_off_c, 2, 50, 127
2, 316425, Note_on_c, 1, 61, 127
2, 316425, Note_on_c, 11, 82, 127
2, 316603, Note_off_c, 11, 82, 127
2, 316603, Note_off_c, 1, 61, 127
2, 316605, Note_on_c, 2, 50, 127
2, 316605, Note_on_c, 12, 83, 127
2, 316783, Note_off_c, 12, 83, 127
2, 316783, Note_off_c, 2, 50, 127
2, 316785, Note_on_c, 12, 59, 127
2, 316785, Note_on_c, 7, 79, 127
2, 316963, Note_off_c, 7, 79, 127
2, 316963, Note_off_c, 12, 59, 127
2, 316964, Note_on_c, 1, 49, 127
2, 316964, Note_on_c, 6, 78, 127
2, 317036, Note_off_c, 6, 78, 127
2, 317039, Note_on_c, 4, 76, 127
2, 317111, Note_off_c, 4, 76, 127
2, 317113, Note_on_c, 6, 78, 127
2, 317140, Note_off_c, 1, 49, 127
2, 317143, Note_on_c, 12, 47, 127
2, 317185, Note_off_c, 6, 78, 127
2, 317188, Note_on_c, 4, 76, 127
2, 317321, Note_off_c, 12, 47, 127
2, 317322, Note_on_c, 1, 49, 127
2, 317500, Note_off_c, 1, 49, 127
2, 317500, Note_off_c, 4, 76, 127
2, 317502, Note_on_c, 12, 59, 127
2, 317502, Note_on_c, 7, 79, 127
2, 317680, Note_off_c, 7, 79, 127
2, 317680, Note_off_c, 12, 59, 127
2, 317682, Note_on_c, 11, 58, 127
2, 317682, Note_on_c, 6, 78, 127
2, 317860, Note_off_c, 6, 78, 127
2, 317860, Note_off_c, 11, 58, 127
2, 317862, Note_on_c, 8, 56, 127
2, 317862, Note_on_c, 4, 76, 127
2, 318040, Note_off_c, 4, 76, 127
2, 318040, Note_off_c, 8, 56, 127
2, 318042, Note_on_c, 11, 58, 127
2, 318042, Note_on_c, 6, 78, 127
2, 318220, Note_off_c, 6, 78, 127
2, 318220, Note_off_c, 11, 58, 127
2, 318222, Note_on_c, 1, 61, 127
2, 318222, Note_on_c, 7, 79, 127
2, 318400, Note_off_c, 7, 79, 127
2, 318400, Note_off_c, 1, 61, 127
2, 318401, Note_on_c, 4, 52, 127
2, 318401, Note_on_c, 2, 74, 127
2, 318476, Note_on_c, 1, 73, 127
2, 318488, Note_off_c, 2, 74, 127
2, 318550, Note_on_c, 2, 74, 127
2, 318563, Note_off_c, 1, 73, 127
2, 318577, Note_off_c, 4, 52, 127
2, 318580, Note_on_c, 2, 50, 127
2, 318625, Note_on_c, 1, 73, 127
2, 318637, Note_off_c, 2, 74, 127
2, 318758, Note_off_c, 2, 50, 127
2, 318759, Note_on_c, 4, 52, 127
2, 318937, Note_off_c, 4, 52, 127
2, 318937, Note_off_c, 1, 73, 127
2, 318939, Note_on_c, 12, 59, 127
2, 318939, Note_on_c, 2, 74, 127
2, 319117, Note_off_c, 2, 74, 127
2, 319117, Note_off_c, 12, 59, 127
2, 319119, Note_on_c, 11, 58, 127
2, 319119, Note_on_c, 1, 73, 127
2, 319297, Note_off_c, 1, 73, 127
2, 319297, Note_off_c, 11, 58, 127
2, 319299, Note_on_c, 8, 56, 127
2, 319299, Note_on_c, 12, 71, 127
2, 319477, Note_off_c, 12, 71, 127
2, 319477, Note_off_c, 8, 56, 127
2, 319479, Note_on_c, 11, 58, 127
2, 319479, Note_on_c, 1, 73, 127
2, 319657, Note_off_c, 1, 73, 127
2, 319657, Note_off_c, 11, 58, 127
2, 319659, Note_on_c, 1, 61, 127
2, 319659, Note_on_c, 4, 76, 127
2, 319837, Note_off_c, 4, 76, 127
2, 319837, Note_off_c, 1, 61, 127
2, 319838, Note_on_c, 7, 55, 127
2, 319838, Note_on_c, 12, 71, 127
2, 319910, Note_on_c, 11, 70, 127
2, 319925, Note_off_c, 12, 71, 127
2, 319981, Note_on_c, 12, 71, 127
2, 319997, Note_off_c, 11, 70, 127
2, 320016, Note_off_c, 7, 55, 127
2, 320018, Note_on_c, 6, 54, 127
2, 320052, Note_on_c, 11, 70, 127
2, 320068, Note_off_c, 12, 71, 127
2, 320196, Note_off_c, 6, 54, 127
2, 320198, Note_on_c, 7, 55, 127
2, 320369, Note_off_c, 11, 70, 127
2, 320374, Note_off_c, 7, 55, 127
2, 320376, Note_on_c, 12, 59, 127
2, 320376, Note_on_c, 12, 71, 127
2, 320554, Note_off_c, 12, 71, 127
2, 320554, Note_off_c, 12, 59, 127
2, 320556, Note_on_c, 11, 58, 127
2, 320556, Note_on_c, 1, 73, 127
2, 320734, Note_off_c, 1, 73, 127
2, 320734, Note_off_c, 11, 58, 127
2, 320736, Note_on_c, 8, 56, 127
2, 320736, Note_on_c, 2, 74, 127
2, 320914, Note_off_c, 2, 74, 127
2, 320914, Note_off_c, 8, 56, 127
2, 320916, Note_on_c, 11, 58, 127
2, 320916, Note_on_c, 1, 73, 127
2, 321094, Note_off_c, 1, 73, 127
2, 321094, Note_off_c, 11, 58, 127
2, 321095, Note_on_c, 1, 61, 127
2, 321095, Note_on_c, 2, 74, 127
2, 321273, Note_off_c, 2, 74, 127
2, 321273, Note_off_c, 1, 61, 127
2, 321275, Note_on_c, 6, 54, 127
2, 321275, Note_on_c, 4, 76, 127
2, 321453, Note_off_c, 4, 76, 127
2, 321455, Note_on_c, 7, 79, 127
2, 321633, Note_off_c, 7, 79, 127
2, 321635, Note_on_c, 11, 58, 127
2, 321635, Note_on_c, 6, 78, 127
2, 321813, Note_off_c, 6, 78, 127
2, 321815, Note_on_c, 4, 76, 127
2, 321993, Note_off_c, 4, 76, 127
2, 321993, Note_off_c, 11, 58, 127
2, 321995, Note_on_c, 12, 59, 127
2, 321995, Note_on_c, 2, 74, 127
2, 322173, Note_off_c, 2, 74, 127
2, 322174, Note_on_c, 1, 73, 127
2, 322352, Note_off_c, 1, 73, 127
2, 322353, Note_off_c, 12, 59, 127
2, 322354, Note_on_c, 2, 62, 127
2, 322354, Note_on_c, 12, 71, 127
2, 322532, Note_off_c, 12, 71, 127
2, 322534, Note_on_c, 10, 69, 127
2, 322712, Note_off_c, 10, 69, 127
2, 322712, Note_off_c, 2, 62, 127
2, 322714, Note_on_c, 12, 59, 127
2, 322714, Note_on_c, 8, 68, 127
2, 322892, Note_off_c, 8, 68, 127
2, 322894, Note_on_c, 6, 78, 127
2, 323072, Note_off_c, 6, 78, 127
2, 323072, Note_off_c, 12, 59, 127
2, 323073, Note_on_c, 8, 56, 127
2, 323073, Note_on_c, 5, 77, 127
2, 323251, Note_off_c, 5, 77, 127
2, 323253, Note_on_c, 12, 83, 127
2, 323431, Note_off_c, 12, 83, 127
2, 323431, Note_off_c, 8, 56, 127
2, 323433, Note_on_c, 6, 66, 127
2, 323433, Note_on_c, 12, 83, 127
2, 323611, Note_off_c, 12, 83, 127
2, 323613, Note_on_c, 11, 82, 127
2, 323791, Note_off_c, 11, 82, 127
2, 323791, Note_off_c, 6, 66, 127
2, 323793, Note_on_c, 5, 65, 127
2, 323793, Note_on_c, 12, 83, 127
2, 323971, Note_off_c, 12, 83, 127
2, 323973, Note_on_c, 8, 80, 127
2, 324140, Note_off_c, 6, 54, 127
2, 324151, Note_off_c, 8, 80, 127
2, 324151, Note_off_c, 5, 65, 127
2, 324152, Note_on_c, 6, 66, 127
2, 324152, Note_on_c, 12, 83, 127
2, 324330, Note_off_c, 12, 83, 127
2, 324332, Note_on_c, 11, 82, 127
2, 324510, Note_off_c, 11, 82, 127
2, 324512, Note_on_c, 8, 80, 127
2, 324689, Note_off_c, 6, 66, 127
2, 324690, Note_off_c, 8, 80, 127
2, 324692, Note_on_c, 4, 52, 127
2, 324692, Note_on_c, 6, 78, 127
2, 324870, Note_off_c, 6, 78, 127
2, 324870, Note_off_c, 4, 52, 127
2, 324872, Note_on_c, 2, 50, 127
2, 324872, Note_on_c, 12, 83, 127
2, 325050, Note_off_c, 12, 83, 127
2, 325050, Note_off_c, 2, 50, 127
2, 325051, Note_on_c, 1, 49, 127
2, 325051, Note_on_c, 10, 81, 127
2, 325229, Note_off_c, 10, 81, 127
2, 325229, Note_off_c, 1, 49, 127
2, 325231, Note_on_c, 12, 47, 127
2, 325231, Note_on_c, 7, 79, 127
2, 325409, Note_off_c, 7, 79, 127
2, 325409, Note_off_c, 12, 47, 127
2, 325411, Note_on_c, 10, 45, 127
2, 325411, Note_on_c, 6, 78, 127
2, 325589, Note_off_c, 6, 78, 127
2, 325589, Note_off_c, 10, 45, 127
2, 325591, Note_on_c, 7, 43, 127
2, 325591, Note_on_c, 4, 76, 127
2, 325769, Note_off_c, 4, 76, 127
2, 325769, Note_off_c, 7, 43, 127
2, 325771, Note_on_c, 6, 54, 127
2, 325771, Note_on_c, 2, 74, 127
2, 325949, Note_off_c, 2, 74, 127
2, 325949, Note_off_c, 6, 54, 127
2, 325951, Note_on_c, 4, 52, 127
2, 325951, Note_on_c, 1, 73, 127
2, 326129, Note_off_c, 4, 52, 127
2, 326130, Note_on_c, 12, 59, 127
2, 326130, Note_on_c, 2, 74, 127
2, 326308, Note_off_c, 2, 74, 127
2, 326308, Note_off_c, 12, 59, 127
2, 326310, Note_on_c, 12, 59, 127
2, 326310, Note_on_c, 4, 76, 127
2, 326397, Note_off_c, 4, 76, 127
2, 326399, Note_off_c, 1, 73, 127
2, 326399, Note_on_c, 2, 74, 127
2, 326486, Note_off_c, 2, 74, 127
2, 326486, Note_off_c, 12, 59, 127
2, 326488, Note_on_c, 11, 58, 127
2, 326488, Note_on_c, 4, 76, 127
2, 326666, Note_off_c, 11, 58, 127
2, 326668, Note_on_c, 12, 59, 127
2, 326846, Note_off_c, 12, 59, 127
2, 326846, Note_off_c, 4, 76, 127
2, 326848, Note_on_c, 8, 56, 127
2, 326848, Note_on_c, 4, 76, 127
2, 327026, Note_off_c, 4, 76, 127
2, 327026, Note_off_c, 8, 56, 127
2, 327028, Note_on_c, 11, 58, 127
2, 327028, Note_on_c, 4, 76, 127
2, 327028, Note_on_c, 1, 73, 127
2, 327206, Note_off_c, 4, 76, 127
2, 327208, Note_on_c, 6, 78, 127
2, 327295, Note_off_c, 6, 78, 127
2, 327297, Note_on_c, 4, 76, 127
2, 327382, Note_off_c, 1, 73, 127
2, 327384, Note_off_c, 4, 76, 127
2, 327384, Note_off_c, 11, 58, 127
2, 327386, Note_on_c, 12, 59, 127
2, 327386, Note_on_c, 12, 71, 127
2, 327386, Note_on_c, 2, 74, 127
2, 327473, Note_off_c, 2, 74, 127
2, 327475, Note_on_c, 4, 76, 127
2, 327562, Note_off_c, 4, 76, 127
2, 327562, Note_off_c, 12, 59, 127
2, 327564, Note_on_c, 4, 52, 127
2, 327564, Note_on_c, 6, 78, 127
2, 327740, Note_off_c, 12, 71, 127
2, 327742, Note_off_c, 6, 78, 127
2, 327742, Note_off_c, 4, 52, 127
2, 327744, Note_on_c, 6, 54, 127
2, 327744, Note_on_c, 2, 74, 127
2, 327744, Note_on_c, 11, 70, 127
2, 327862, Note_off_c, 2, 74, 127
2, 327864, Note_on_c, 1, 73, 127
2, 327924, Note_on_c, 2, 74, 127
2, 327951, Note_off_c, 1, 73, 127
2, 327984, Note_on_c, 1, 73, 127
2, 328011, Note_off_c, 2, 74, 127
2, 328044, Note_on_c, 2, 74, 127
2, 328071, Note_off_c, 1, 73, 127
2, 328102, Note_off_c, 6, 54, 127
2, 328104, Note_on_c, 6, 42, 127
2, 328104, Note_on_c, 1, 73, 127
2, 328131, Note_off_c, 2, 74, 127
2, 328267, Note_off_c, 11, 70, 127
2, 328280, Note_off_c, 1, 73, 127
2, 328282, Note_on_c, 12, 71, 127
2, 328460, Note_off_c, 12, 71, 127
2, 328460, Note_off_c, 6, 42, 127
2, 328462, Note_on_c, 12, 47, 127
2, 328462, Note_on_c, 12, 71, 127
2, 328641, Note_on_c, 1, 49, 127
2, 328819, Note_off_c, 1, 49, 127
2, 328821, Note_on_c, 3, 51, 127
2, 329001, Note_on_c, 10, 69, 127
2, 329179, Note_off_c, 10, 69, 127
2, 329179, Note_off_c, 3, 51, 127
2, 329181, Note_on_c, 4, 52, 127
2, 329181, Note_on_c, 7, 67, 127
2, 329359, Note_off_c, 7, 67, 127
2, 329361, Note_on_c, 6, 66, 127
2, 329539, Note_off_c, 6, 66, 127
2, 329539, Note_off_c, 4, 52, 127
2, 329541, Note_on_c, 6, 54, 127
2, 329541, Note_on_c, 4, 64, 127
2, 329719, Note_off_c, 4, 64, 127
2, 329720, Note_on_c, 2, 62, 127
2, 329898, Note_off_c, 2, 62, 127
2, 329899, Note_off_c, 6, 54, 127
2, 329900, Note_on_c, 7, 55, 127
2, 329900, Note_on_c, 1, 61, 127
2, 330080, Note_on_c, 4, 64, 127
2, 330258, Note_off_c, 4, 64, 127
2, 330258, Note_off_c, 7, 55, 127
2, 330260, Note_off_c, 12, 71, 127
2, 330260, Note_on_c, 4, 52, 127
2, 330260, Note_on_c, 12, 71, 127
2, 330438, Note_off_c, 12, 71, 127
2, 330440, Note_on_c, 11, 70, 127
2, 330611, Note_off_c, 1, 61, 127
2, 330616, Note_off_c, 11, 70, 127
2, 330616, Note_off_c, 4, 52, 127
2, 330618, Note_on_c, 6, 54, 127
2, 330618, Note_on_c, 3, 63, 127
2, 330709, Note_on_c, 6, 66, 127
2, 330799, Note_on_c, 12, 71, 127
2, 331144, Note_off_c, 3, 63, 127
2, 331157, Note_off_c, 12, 71, 127
2, 331159, Note_off_c, 6, 66, 127
2, 331159, Note_on_c, 6, 78, 127
2, 331327, Note_off_c, 12, 47, 127
2, 331337, Note_off_c, 6, 78, 127
2, 331337, Note_off_c, 6, 54, 127
2, 331339, Note_on_c, 12, 47, 127
2, 331339, Note_on_c, 6, 78, 127
2, 331519, Note_on_c, 3, 75, 127
2, 331698, Note_on_c, 12, 71, 127
2, 331876, Note_off_c, 12, 47, 127
2, 331878, Note_on_c, 1, 49, 127
2, 332043, Note_off_c, 3, 75, 127
2, 332051, Note_off_c, 6, 78, 127
2, 332056, Note_off_c, 1, 49, 127
2, 332058, Note_on_c, 3, 51, 127
2, 332235, Note_off_c, 12, 71, 127
2, 332236, Note_off_c, 3, 51, 127
2, 332238, Note_on_c, 4, 52, 127
2, 332238, Note_on_c, 7, 79, 127
2, 332416, Note_off_c, 7, 79, 127
2, 332416, Note_off_c, 4, 52, 127
2, 332418, Note_on_c, 6, 54, 127
2, 332418, Note_on_c, 6, 78, 127
2, 332596, Note_off_c, 6, 78, 127
2, 332596, Note_off_c, 6, 54, 127
2, 332597, Note_on_c, 7, 55, 127
2, 332597, Note_on_c, 4, 76, 127
2, 332775, Note_off_c, 4, 76, 127
2, 332775, Note_off_c, 7, 55, 127
2, 332777, Note_on_c, 10, 57, 127
2, 332777, Note_on_c, 3, 75, 127
2, 332955, Note_off_c, 10, 57, 127
2, 332957, Note_on_c, 3, 51, 127
2, 333135, Note_off_c, 3, 51, 127
2, 333137, Note_on_c, 6, 54, 127
2, 333314, Note_off_c, 3, 75, 127
2, 333315, Note_off_c, 6, 54, 127
2, 333317, Note_on_c, 10, 57, 127
2, 333317, Note_on_c, 4, 76, 127
2, 333495, Note_off_c, 4, 76, 127
2, 333495, Note_off_c, 10, 57, 127
2, 333497, Note_on_c, 0, 60, 127
2, 333497, Note_on_c, 6, 78, 127
2, 333675, Note_off_c, 6, 78, 127
2, 333675, Note_off_c, 0, 60, 127
2, 333676, Note_on_c, 12, 59, 127
2, 333676, Note_on_c, 7, 79, 127
2, 333763, Note_off_c, 7, 79, 127
2, 333765, Note_on_c, 10, 81, 127
2, 333852, Note_off_c, 10, 81, 127
2, 333852, Note_off_c, 12, 59, 127
2, 333855, Note_on_c, 4, 64, 127
2, 333855, Note_on_c, 7, 79, 127
2, 334033, Note_off_c, 7, 79, 127
2, 334033, Note_off_c, 4, 64, 127
2, 334034, Note_on_c, 3, 63, 127
2, 334034, Note_on_c, 6, 78, 127
2, 334212, Note_off_c, 6, 78, 127
2, 334212, Note_off_c, 3, 63, 127
2, 334214, Note_on_c, 4, 64, 127
2, 334214, Note_on_c, 7, 79, 127
2, 334392, Note_off_c, 7, 79, 127
2, 334394, Note_on_c, 6, 78, 127
2, 334572, Note_off_c, 6, 78, 127
2, 334574, Note_on_c, 4, 76, 127
2, 334752, Note_off_c, 4, 76, 127
2, 334754, Note_on_c, 6, 66, 127
2, 334932, Note_off_c, 6, 66, 127
2, 334933, Note_on_c, 7, 67, 127
2, 335111, Note_off_c, 7, 67, 127
2, 335113, Note_on_c, 0, 84, 127
2, 335113, Note_on_c, 10, 69, 127
2, 335291, Note_off_c, 10, 69, 127
2, 335291, Note_off_c, 0, 84, 127
2, 335293, Note_on_c, 12, 71, 127
2, 335293, Note_on_c, 12, 83, 127
2, 335471, Note_off_c, 12, 83, 127
2, 335471, Note_off_c, 12, 71, 127
2, 335473, Note_on_c, 10, 81, 127
2, 335473, Note_on_c, 0, 72, 127
2, 335651, Note_off_c, 0, 72, 127
2, 335651, Note_off_c, 10, 81, 127
2, 335653, Note_on_c, 8, 80, 127
2, 335653, Note_on_c, 2, 74, 127
2, 335831, Note_off_c, 8, 80, 127
2, 335833, Note_on_c, 12, 83, 127
2, 336011, Note_off_c, 12, 83, 127
2, 336012, Note_on_c, 8, 80, 127
2, 336177, Note_off_c, 2, 74, 127
2, 336190, Note_off_c, 8, 80, 127
2, 336190, Note_off_c, 4, 64, 127
2, 336192, Note_on_c, 4, 64, 127
2, 336192, Note_on_c, 4, 76, 127
2, 336370, Note_off_c, 4, 76, 127
2, 336370, Note_off_c, 4, 64, 127
2, 336372, Note_on_c, 12, 59, 127
2, 336372, Note_on_c, 5, 77, 127
2, 336550, Note_off_c, 5, 77, 127
2, 336550, Note_off_c, 12, 59, 127
2, 336552, Note_on_c, 0, 60, 127
2, 336552, Note_on_c, 4, 76, 127
2, 336639, Note_off_c, 0, 60, 127
2, 336641, Note_on_c, 2, 62, 127
2, 336728, Note_off_c, 2, 62, 127
2, 336728, Note_off_c, 4, 76, 127
2, 336730, Note_on_c, 0, 60, 127
2, 336730, Note_on_c, 10, 81, 127
2, 336908, Note_off_c, 10, 81, 127
2, 336908, Note_off_c, 0, 60, 127
2, 336910, Note_on_c, 12, 59, 127
2, 336910, Note_on_c, 8, 80, 127
2, 337088, Note_off_c, 8, 80, 127
2, 337088, Note_off_c, 12, 59, 127
2, 337090, Note_on_c, 0, 60, 127
2, 337090, Note_on_c, 10, 81, 127
2, 337268, Note_off_c, 0, 60, 127
2, 337270, Note_on_c, 12, 59, 127
2, 337448, Note_off_c, 12, 59, 127
2, 337449, Note_on_c, 10, 57, 127
2, 337627, Note_off_c, 10, 57, 127
2, 337627, Note_off_c, 10, 81, 127
2, 337629, Note_on_c, 10, 45, 127
2, 337629, Note_on_c, 7, 79, 127
2, 337807, Note_off_c, 7, 79, 127
2, 337807, Note_off_c, 10, 45, 127
2, 337809, Note_on_c, 10, 57, 127
2, 337809, Note_on_c, 5, 77, 127
2, 337987, Note_off_c, 5, 77, 127
2, 337987, Note_off_c, 10, 57, 127
2, 337989, Note_on_c, 12, 47, 127
2, 337989, Note_on_c, 4, 76, 127
2, 338167, Note_off_c, 4, 76, 127
2, 338167, Note_off_c, 12, 47, 127
2, 338169, Note_on_c, 10, 57, 127
2, 338169, Note_on_c, 7, 79, 127
2, 338347, Note_off_c, 7, 79, 127
2, 338347, Note_off_c, 10, 57, 127
2, 338348, Note_on_c, 1, 49, 127
2, 338348, Note_on_c, 5, 77, 127
2, 338526, Note_off_c, 5, 77, 127
2, 338526, Note_off_c, 1, 49, 127
2, 338528, Note_on_c, 11, 58, 127
2, 338528, Note_on_c, 5, 77, 127
2, 338619, Note_on_c, 4, 76, 127
2, 338626, Note_off_c, 5, 77, 127
2, 338707, Note_off_c, 11, 58, 127
2, 338708, Note_off_c, 4, 76, 127
2, 338710, Note_on_c, 0, 60, 127
2, 338710, Note_on_c, 5, 77, 127
2, 338888, Note_off_c, 0, 60, 127
2, 338890, Note_on_c, 11, 58, 127
2, 339068, Note_off_c, 11, 58, 127
2, 339068, Note_off_c, 5, 77, 127
2, 339069, Note_on_c, 1, 49, 127
2, 339069, Note_on_c, 4, 76, 127
2, 339247, Note_off_c, 4, 76, 127
2, 339247, Note_off_c, 1, 49, 127
2, 339249, Note_on_c, 11, 58, 127
2, 339249, Note_on_c, 2, 74, 127
2, 339427, Note_off_c, 2, 74, 127
2, 339427, Note_off_c, 11, 58, 127
2, 339429, Note_on_c, 2, 50, 127
2, 339429, Note_on_c, 0, 72, 127
2, 339607, Note_off_c, 0, 72, 127
2, 339607, Note_off_c, 2, 50, 127
2, 339609, Note_on_c, 1, 61, 127
2, 339609, Note_on_c, 11, 70, 127
2, 339787, Note_off_c, 11, 70, 127
2, 339787, Note_off_c, 1, 61, 127
2, 339789, Note_on_c, 4, 52, 127
2, 339789, Note_on_c, 10, 69, 127
2, 339967, Note_off_c, 10, 69, 127
2, 339967, Note_off_c, 4, 52, 127
2, 339968, Note_on_c, 2, 62, 127
2, 339968, Note_on_c, 8, 68, 127
2, 340146, Note_off_c, 2, 62, 127
2, 340148, Note_on_c, 4, 64, 127
2, 340326, Note_off_c, 4, 64, 127
2, 340328, Note_on_c, 2, 62, 127
2, 340505, Note_off_c, 8, 68, 127
2, 340506, Note_off_c, 2, 62, 127
2, 340508, Note_on_c, 4, 52, 127
2, 340508, Note_on_c, 10, 69, 127
2, 340595, Note_off_c, 10, 69, 127
2, 340597, Note_on_c, 12, 71, 127
2, 340684, Note_off_c, 12, 71, 127
2, 340684, Note_off_c, 4, 52, 127
2, 340686, Note_on_c, 2, 62, 127
2, 340686, Note_on_c, 10, 69, 127
2, 340864, Note_off_c, 10, 69, 127
2, 340864, Note_off_c, 2, 62, 127
2, 340866, Note_on_c, 6, 54, 127
2, 340866, Note_on_c, 12, 71, 127
2, 340953, Note_off_c, 12, 71, 127
2, 340955, Note_on_c, 0, 72, 127
2, 341042, Note_off_c, 0, 72, 127
2, 341042, Note_off_c, 6, 54, 127
2, 341044, Note_on_c, 2, 62, 127
2, 341044, Note_on_c, 12, 71, 127
2, 341222, Note_off_c, 12, 71, 127
2, 341222, Note_off_c, 2, 62, 127
2, 341224, Note_on_c, 8, 56, 127
2, 341224, Note_on_c, 0, 72, 127
2, 341311, Note_off_c, 0, 72, 127
2, 341313, Note_on_c, 2, 74, 127
2, 341400, Note_off_c, 2, 74, 127
2, 341400, Note_off_c, 8, 56, 127
2, 341402, Note_on_c, 10, 57, 127
2, 341402, Note_on_c, 0, 72, 127
2, 341580, Note_off_c, 0, 72, 127
2, 341582, Note_on_c, 12, 71, 127
2, 341673, Note_on_c, 10, 69, 127
2, 341680, Note_off_c, 12, 71, 127
2, 341761, Note_off_c, 10, 57, 127
2, 341762, Note_off_c, 10, 69, 127
2, 341763, Note_on_c, 2, 50, 127
2, 341763, Note_on_c, 5, 77, 127
2, 341941, Note_off_c, 5, 77, 127
2, 341943, Note_on_c, 4, 76, 127
2, 342121, Note_off_c, 4, 76, 127
2, 342121, Note_off_c, 2, 50, 127
2, 342123, Note_on_c, 4, 52, 127
2, 342123, Note_on_c, 2, 74, 127
2, 342301, Note_off_c, 2, 74, 127
2, 342303, Note_on_c, 0, 72, 127
2, 342481, Note_off_c, 0, 72, 127
2, 342481, Note_off_c, 4, 52, 127
2, 342483, Note_on_c, 4, 40, 127
2, 342483, Note_on_c, 12, 71, 127
2, 342661, Note_off_c, 12, 71, 127
2, 342663, Note_on_c, 10, 69, 127
2, 342841, Note_off_c, 10, 69, 127
2, 342841, Note_off_c, 4, 40, 127
2, 342842, Note_on_c, 10, 45, 127
2, 342842, Note_on_c, 0, 60, 127
2, 342933, Note_on_c, 4, 64, 127
2, 343020, Note_off_c, 10, 45, 127
2, 343022, Note_on_c, 4, 52, 127
2, 343022, Note_on_c, 10, 69, 127
2, 343200, Note_off_c, 4, 52, 127
2, 343202, Note_on_c, 10, 57, 127
2, 343366, Note_off_c, 0, 60, 127
2, 343380, Note_off_c, 10, 69, 127
2, 343381, Note_off_c, 4, 64, 127
2, 343382, Note_on_c, 12, 59, 127
2, 343560, Note_off_c, 12, 59, 127
2, 343562, Note_on_c, 1, 61, 127
2, 343739, Note_off_c, 10, 57, 127
2, 343740, Note_off_c, 1, 61, 127
2, 343741, Note_on_c, 10, 57, 127
2, 343741, Note_on_c, 2, 62, 127
2, 343919, Note_off_c, 2, 62, 127
2, 343919, Note_off_c, 10, 57, 127
2, 343921, Note_on_c, 7, 55, 127
2, 343921, Note_on_c, 4, 64, 127
2, 344099, Note_off_c, 4, 64, 127
2, 344099, Note_off_c, 7, 55, 127
2, 344101, Note_on_c, 6, 54, 127
2, 344101, Note_on_c, 6, 66, 127
2, 344279, Note_off_c, 6, 66, 127
2, 344279, Note_off_c, 6, 54, 127
2, 344281, Note_on_c, 4, 52, 127
2, 344281, Note_on_c, 7, 67, 127
2, 344459, Note_off_c, 7, 67, 127
2, 344459, Note_off_c, 4, 52, 127
2, 344461, Note_on_c, 7, 55, 127
2, 344461, Note_on_c, 4, 64, 127
2, 344639, Note_off_c, 4, 64, 127
2, 344639, Note_off_c, 7, 55, 127
2, 344641, Note_on_c, 4, 52, 127
2, 344641, Note_on_c, 7, 67, 127
2, 344819, Note_off_c, 7, 67, 127
2, 344819, Note_off_c, 4, 52, 127
2, 344820, Note_on_c, 1, 49, 127
2, 344820, Note_on_c, 10, 69, 127
2, 344998, Note_off_c, 10, 69, 127
2, 344998, Note_off_c, 1, 49, 127
2, 345000, Note_on_c, 10, 45, 127
2, 345000, Note_on_c, 1, 73, 127
2, 345178, Note_off_c, 1, 73, 127
2, 345178, Note_off_c, 10, 45, 127
2, 345180, Note_on_c, 1, 49, 127
2, 345180, Note_on_c, 4, 76, 127
2, 345358, Note_off_c, 4, 76, 127
2, 345358, Note_off_c, 1, 49, 127
2, 345360, Note_on_c, 12, 47, 127
2, 345360, Note_on_c, 7, 79, 127
2, 345538, Note_off_c, 7, 79, 127
2, 345538, Note_off_c, 12, 47, 127
2, 345540, Note_on_c, 10, 45, 127
2, 345540, Note_on_c, 6, 78, 127
2, 345718, Note_off_c, 6, 78, 127
2, 345718, Note_off_c, 10, 45, 127
2, 345719, Note_on_c, 2, 50, 127
2, 345719, Note_on_c, 6, 78, 127
2, 345897, Note_off_c, 6, 78, 127
2, 345899, Note_on_c, 4, 76, 127
2, 346077, Note_off_c, 4, 76, 127
2, 346079, Note_on_c, 2, 74, 127
2, 346256, Note_off_c, 2, 50, 127
2, 346259, Note_on_c, 4, 52, 127
2, 346437, Note_off_c, 4, 52, 127
2, 346439, Note_on_c, 6, 54, 127
2, 346616, Note_off_c, 2, 74, 127
2, 346617, Note_off_c, 6, 54, 127
2, 346619, Note_on_c, 7, 55, 127
2, 346619, Note_on_c, 4, 76, 127
2, 346797, Note_off_c, 4, 76, 127
2, 346797, Note_off_c, 7, 55, 127
2, 346798, Note_on_c, 10, 57, 127
2, 346798, Note_on_c, 6, 78, 127
2, 346976, Note_off_c, 6, 78, 127
2, 346976, Note_off_c, 10, 57, 127
2, 346978, Note_on_c, 12, 59, 127
2, 346978, Note_on_c, 7, 79, 127
2, 347156, Note_off_c, 7, 79, 127
2, 347156, Note_off_c, 12, 59, 127
2, 347158, Note_on_c, 0, 60, 127
2, 347158, Note_on_c, 10, 81, 127
2, 347336, Note_off_c, 10, 81, 127
2, 347336, Note_off_c, 0, 60, 127
2, 347338, Note_on_c, 6, 54, 127
2, 347338, Note_on_c, 12, 83, 127
2, 347425, Note_off_c, 12, 83, 127
2, 347427, Note_on_c, 0, 84, 127
2, 347514, Note_off_c, 0, 84, 127
2, 347514, Note_off_c, 6, 54, 127
2, 347516, Note_on_c, 10, 57, 127
2, 347516, Note_on_c, 6, 78, 127
2, 347694, Note_off_c, 6, 78, 127
2, 347694, Note_off_c, 10, 57, 127
2, 347696, Note_on_c, 0, 60, 127
2, 347696, Note_on_c, 7, 79, 127
2, 347783, Note_off_c, 7, 79, 127
2, 347785, Note_on_c, 10, 81, 127
2, 347872, Note_off_c, 10, 81, 127
2, 347872, Note_off_c, 0, 60, 127
2, 347874, Note_on_c, 4, 64, 127
2, 347874, Note_on_c, 2, 74, 127
2, 348052, Note_off_c, 4, 64, 127
2, 348054, Note_on_c, 2, 62, 127
2, 348232, Note_off_c, 2, 62, 127
2, 348232, Note_off_c, 2, 74, 127
2, 348234, Note_on_c, 7, 67, 127
2, 348234, Note_on_c, 2, 74, 127
2, 348321, Note_off_c, 2, 74, 127
2, 348323, Note_on_c, 0, 72, 127
2, 348410, Note_off_c, 0, 72, 127
2, 348410, Note_off_c, 7, 67, 127
2, 348412, Note_on_c, 6, 66, 127
2, 348412, Note_on_c, 12, 71, 127
2, 348499, Note_off_c, 12, 71, 127
2, 348501, Note_on_c, 0, 72, 127
2, 348588, Note_off_c, 0, 72, 127
2, 348588, Note_off_c, 6, 66, 127
2, 348590, Note_on_c, 7, 67, 127
2, 348590, Note_on_c, 12, 71, 127
2, 348768, Note_off_c, 12, 71, 127
2, 348770, Note_on_c, 2, 74, 127
2, 348948, Note_off_c, 2, 74, 127
2, 348950, Note_on_c, 4, 76, 127
2, 349127, Note_off_c, 7, 67, 127
2, 349128, Note_off_c, 4, 76, 127
2, 349130, Note_on_c, 6, 66, 127
2, 349130, Note_on_c, 6, 78, 127
2, 349308, Note_off_c, 6, 78, 127
2, 349308, Note_off_c, 6, 66, 127
2, 349309, Note_on_c, 4, 64, 127
2, 349309, Note_on_c, 7, 79, 127
2, 349396, Note_off_c, 7, 79, 127
2, 349398, Note_on_c, 6, 78, 127
2, 349485, Note_off_c, 6, 78, 127
2, 349485, Note_off_c, 4, 64, 127
2, 349488, Note_on_c, 2, 62, 127
2, 349488, Note_on_c, 7, 79, 127
2, 349666, Note_off_c, 2, 62, 127
2, 349667, Note_on_c, 0, 60, 127
2, 349845, Note_off_c, 0, 60, 127
2, 349846, Note_off_c, 7, 79, 127
2, 349847, Note_on_c, 12, 59, 127
2, 349847, Note_on_c, 7, 79, 127
2, 350025, Note_off_c, 7, 79, 127
2, 350025, Note_off_c, 12, 59, 127
2, 350027, Note_on_c, 10, 57, 127
2, 350027, Note_on_c, 7, 79, 127
2, 350205, Note_off_c, 7, 79, 127
2, 350205, Note_off_c, 10, 57, 127
2, 350207, Note_on_c, 12, 59, 127
2, 350207, Note_on_c, 6, 78, 127
2, 350385, Note_off_c, 6, 78, 127
2, 350385, Note_off_c, 12, 59, 127
2, 350387, Note_on_c, 0, 60, 127
2, 350387, Note_on_c, 10, 81, 127
2, 350565, Note_off_c, 10, 81, 127
2, 350565, Note_off_c, 0, 60, 127
2, 350566, Note_on_c, 12, 59, 127
2, 350566, Note_on_c, 7, 79, 127
2, 350744, Note_off_c, 7, 79, 127
2, 350744, Note_off_c, 12, 59, 127
2, 350746, Note_on_c, 10, 57, 127
2, 350746, Note_on_c, 6, 78, 127
2, 350924, Note_off_c, 6, 78, 127
2, 350924, Note_off_c, 10, 57, 127
2, 350926, Note_on_c, 7, 55, 127
2, 350926, Note_on_c, 4, 76, 127
2, 351104, Note_off_c, 4, 76, 127
2, 351104, Note_off_c, 7, 55, 127
2, 351106, Note_on_c, 6, 54, 127
2, 351106, Note_on_c, 3, 75, 127
2, 351284, Note_off_c, 3, 75, 127
2, 351284, Note_off_c, 6, 54, 127
2, 351286, Note_on_c, 4, 52, 127
2, 351286, Note_on_c, 4, 76, 127
2, 351464, Note_off_c, 4, 76, 127
2, 351464, Note_off_c, 4, 52, 127
2, 351466, Note_on_c, 12, 59, 127
2, 351466, Note_on_c, 7, 67, 127
2, 351553, Note_off_c, 7, 67, 127
2, 351555, Note_on_c, 6, 66, 127
2, 351642, Note_off_c, 6, 66, 127
2, 351644, Note_on_c, 4, 64, 127
2, 351822, Note_off_c, 4, 64, 127
2, 351824, Note_on_c, 6, 66, 127
2, 352002, Note_off_c, 12, 59, 127
2, 352003, Note_on_c, 0, 60, 127
2, 352003, Note_on_c, 4, 76, 127
2, 352180, Note_off_c, 6, 66, 127
2, 352181, Note_off_c, 4, 76, 127
2, 352181, Note_off_c, 0, 60, 127
2, 352183, Note_on_c, 12, 59, 127
2, 352183, Note_on_c, 3, 75, 127
2, 352361, Note_off_c, 3, 75, 127
2, 352361, Note_off_c, 12, 59, 127
2, 352363, Note_on_c, 10, 57, 127
2, 352363, Note_on_c, 1, 73, 127
2, 352541, Note_off_c, 1, 73, 127
2, 352541, Note_off_c, 10, 57, 127
2, 352543, Note_on_c, 12, 59, 127
2, 352543, Note_on_c, 3, 75, 127
2, 352721, Note_off_c, 3, 75, 127
2, 352721, Note_off_c, 12, 59, 127
2, 352723, Note_on_c, 0, 60, 127
2, 352723, Note_on_c, 6, 78, 127
2, 352901, Note_off_c, 6, 78, 127
2, 352901, Note_off_c, 0, 60, 127
2, 352903, Note_on_c, 6, 54, 127
2, 352903, Note_on_c, 12, 71, 127
2, 352990, Note_off_c, 12, 71, 127
2, 352992, Note_on_c, 10, 69, 127
2, 353079, Note_off_c, 10, 69, 127
2, 353081, Note_on_c, 7, 67, 127
2, 353259, Note_off_c, 7, 67, 127
2, 353261, Note_on_c, 10, 69, 127
2, 353439, Note_off_c, 6, 54, 127
2, 353440, Note_on_c, 7, 55, 127
2, 353440, Note_on_c, 4, 76, 127
2, 353617, Note_off_c, 10, 69, 127
2, 353618, Note_off_c, 4, 76, 127
2, 353618, Note_off_c, 7, 55, 127
2, 353620, Note_on_c, 6, 54, 127
2, 353620, Note_on_c, 3, 75, 127
2, 353798, Note_off_c, 3, 75, 127
2, 353798, Note_off_c, 6, 54, 127
2, 353800, Note_on_c, 4, 52, 127
2, 353800, Note_on_c, 1, 73, 127
2, 353978, Note_off_c, 1, 73, 127
2, 353978, Note_off_c, 4, 52, 127
2, 353980, Note_on_c, 6, 54, 127
2, 353980, Note_on_c, 3, 75, 127
2, 354158, Note_off_c, 3, 75, 127
2, 354158, Note_off_c, 6, 54, 127
2, 354160, Note_on_c, 10, 57, 127
2, 354160, Note_on_c, 6, 78, 127
2, 354338, Note_off_c, 6, 78, 127
2, 354338, Note_off_c, 10, 57, 127
2, 354339, Note_on_c, 3, 51, 127
2, 354339, Note_on_c, 2, 74, 127
2, 354426, Note_off_c, 2, 74, 127
2, 354429, Note_on_c, 0, 72, 127
2, 354516, Note_off_c, 0, 72, 127
2, 354518, Note_on_c, 12, 71, 127
2, 354696, Note_off_c, 12, 71, 127
2, 354697, Note_on_c, 0, 72, 127
2, 354875, Note_off_c, 0, 72, 127
2, 354875, Note_off_c, 3, 51, 127
2, 354877, Note_on_c, 4, 52, 127
2, 354877, Note_on_c, 4, 76, 127
2, 355055, Note_off_c, 4, 76, 127
2, 355055, Note_off_c, 4, 52, 127
2, 355057, Note_on_c, 6, 54, 127
2, 355057, Note_on_c, 3, 75, 127
2, 355235, Note_off_c, 3, 75, 127
2, 355235, Note_off_c, 6, 54, 127
2, 355237, Note_on_c, 7, 55, 127
2, 355237, Note_on_c, 1, 73, 127
2, 355415, Note_off_c, 1, 73, 127
2, 355415, Note_off_c, 7, 55, 127
2, 355417, Note_on_c, 6, 54, 127
2, 355417, Note_on_c, 3, 75, 127
2, 355595, Note_off_c, 3, 75, 127
2, 355595, Note_off_c, 6, 54, 127
2, 355597, Note_on_c, 7, 55, 127
2, 355597, Note_on_c, 6, 78, 127
2, 355775, Note_off_c, 6, 78, 127
2, 355775, Note_off_c, 7, 55, 127
2, 355776, Note_on_c, 10, 57, 127
2, 355776, Note_on_c, 12, 71, 127
2, 355954, Note_off_c, 10, 57, 127
2, 355956, Note_on_c, 0, 60, 127
2, 356134, Note_off_c, 0, 60, 127
2, 356136, Note_on_c, 12, 59, 127
2, 356314, Note_off_c, 12, 59, 127
2, 356316, Note_on_c, 10, 57, 127
2, 356316, Note_on_c, 3, 75, 127
2, 356494, Note_off_c, 3, 75, 127
2, 356494, Note_off_c, 10, 57, 127
2, 356496, Note_on_c, 7, 55, 127
2, 356496, Note_on_c, 4, 76, 127
2, 356674, Note_off_c, 4, 76, 127
2, 356674, Note_off_c, 7, 55, 127
2, 356676, Note_on_c, 6, 54, 127
2, 356676, Note_on_c, 6, 78, 127
2, 356853, Note_off_c, 12, 71, 127
2, 356854, Note_off_c, 6, 78, 127
2, 356854, Note_off_c, 6, 54, 127
2, 356855, Note_on_c, 4, 52, 127
2, 356855, Note_on_c, 7, 79, 127
2, 357033, Note_off_c, 4, 52, 127
2, 357035, Note_on_c, 2, 50, 127
2, 357035, Note_on_c, 12, 71, 127
2, 357213, Note_off_c, 12, 71, 127
2, 357213, Note_off_c, 2, 50, 127
2, 357215, Note_on_c, 1, 49, 127
2, 357215, Note_on_c, 4, 76, 127
2, 357379, Note_off_c, 7, 79, 127
2, 357393, Note_off_c, 1, 49, 127
2, 357395, Note_on_c, 12, 59, 127
2, 357395, Note_on_c, 6, 78, 127
2, 357573, Note_off_c, 6, 78, 127
2, 357573, Note_off_c, 12, 59, 127
2, 357575, Note_on_c, 11, 58, 127
2, 357575, Note_on_c, 7, 79, 127
2, 357739, Note_off_c, 4, 76, 127
2, 357753, Note_off_c, 7, 79, 127
2, 357753, Note_off_c, 11, 58, 127
2, 357754, Note_on_c, 4, 64, 127
2, 357754, Note_on_c, 4, 76, 127
2, 357754, Note_on_c, 2, 74, 127
2, 357932, Note_off_c, 2, 74, 127
2, 357932, Note_off_c, 4, 76, 127
2, 357932, Note_off_c, 4, 64, 127
2, 357934, Note_on_c, 4, 64, 127
2, 357934, Note_on_c, 0, 72, 127
2, 358025, Note_on_c, 6, 78, 127
2, 358112, Note_off_c, 4, 64, 127
2, 358114, Note_on_c, 3, 63, 127
2, 358114, Note_on_c, 10, 81, 127
2, 358292, Note_off_c, 3, 63, 127
2, 358294, Note_on_c, 4, 64, 127
2, 358472, Note_off_c, 4, 64, 127
2, 358472, Note_off_c, 10, 81, 127
2, 358474, Note_on_c, 1, 61, 127
2, 358474, Note_on_c, 10, 81, 127
2, 358548, Note_off_c, 6, 78, 127
2, 358645, Note_off_c, 0, 72, 127
2, 358650, Note_off_c, 10, 81, 127
2, 358650, Note_off_c, 1, 61, 127
2, 358652, Note_on_c, 3, 63, 127
2, 358652, Note_on_c, 6, 78, 127
2, 358652, Note_on_c, 12, 71, 127
2, 358652, Note_on_c, 10, 81, 127
2, 358830, Note_off_c, 10, 81, 127
2, 358830, Note_off_c, 12, 71, 127
2, 358830, Note_off_c, 6, 78, 127
2, 358832, Note_on_c, 0, 84, 127
2, 359010, Note_off_c, 0, 84, 127
2, 359010, Note_off_c, 3, 63, 127
2, 359012, Note_on_c, 12, 59, 127
2, 359012, Note_on_c, 12, 83, 127
2, 359190, Note_off_c, 12, 83, 127
2, 359191, Note_on_c, 10, 81, 127
2, 359369, Note_off_c, 10, 81, 127
2, 359371, Note_on_c, 7, 79, 127
2, 359462, Note_off_c, 12, 59, 127
2, 359549, Note_off_c, 7, 79, 127
2, 359551, Note_on_c, 4, 64, 127
2, 359551, Note_on_c, 6, 78, 127
2, 359729, Note_off_c, 6, 78, 127
2, 359729, Note_off_c, 4, 64, 127
2, 359731, Note_on_c, 6, 66, 127
2, 359731, Note_on_c, 4, 76, 127
2, 359909, Note_off_c, 4, 76, 127
2, 359909, Note_off_c, 6, 66, 127
2, 359911, Note_on_c, 7, 67, 127
2, 359911, Note_on_c, 2, 74, 127
2, 360089, Note_off_c, 2, 74, 127
2, 360089, Note_off_c, 7, 67, 127
2, 360090, Note_on_c, 10, 69, 127
2, 360090, Note_on_c, 0, 72, 127
2, 360268, Note_off_c, 0, 72, 127
2, 360270, Note_on_c, 12, 83, 127
2, 360448, Note_off_c, 12, 83, 127
2, 360450, Note_on_c, 10, 81, 127
2, 360627, Note_off_c, 10, 69, 127
2, 360628, Note_off_c, 10, 81, 127
2, 360630, Note_on_c, 7, 67, 127
2, 360630, Note_on_c, 0, 84, 127
2, 360808, Note_off_c, 0, 84, 127
2, 360808, Note_off_c, 7, 67, 127
2, 360810, Note_on_c, 6, 66, 127
2, 360810, Note_on_c, 4, 76, 127
2, 360988, Note_off_c, 6, 66, 127
2, 360990, Note_on_c, 12, 59, 127
2, 360990, Note_on_c, 3, 75, 127
2, 361168, Note_off_c, 3, 75, 127
2, 361168, Note_off_c, 12, 59, 127
2, 361169, Note_on_c, 1, 61, 127
2, 361169, Note_on_c, 1, 73, 127
2, 361347, Note_off_c, 1, 73, 127
2, 361347, Note_off_c, 1, 61, 127
2, 361349, Note_on_c, 3, 63, 127
2, 361349, Note_on_c, 12, 71, 127
2, 361521, Note_off_c, 4, 76, 127
2, 361525, Note_off_c, 12, 71, 127
2, 361525, Note_off_c, 3, 63, 127
2, 361527, Note_on_c, 4, 64, 127
2, 361527, Note_on_c, 12, 71, 127
2, 361618, Note_on_c, 4, 76, 127
2, 361709, Note_on_c, 7, 79, 127
2, 361889, Note_off_c, 4, 64, 127
2, 361892, Note_on_c, 10, 57, 127
2, 362073, Note_off_c, 7, 79, 127
2, 362075, Note_on_c, 10, 81, 127
2, 362150, Note_off_c, 4, 76, 127
2, 362249, Note_off_c, 12, 71, 127
2, 362256, Note_off_c, 10, 81, 127
2, 362256, Note_off_c, 10, 57, 127
2, 362258, Note_on_c, 12, 59, 127
2, 362258, Note_on_c, 7, 79, 127
2, 362258, Note_on_c, 3, 75, 127
2, 362379, Note_off_c, 7, 79, 127
2, 362381, Note_on_c, 6, 78, 127
2, 362443, Note_on_c, 7, 79, 127
2, 362471, Note_off_c, 6, 78, 127
2, 362504, Note_on_c, 6, 78, 127
2, 362533, Note_off_c, 7, 79, 127
2, 362566, Note_on_c, 7, 79, 127
2, 362594, Note_off_c, 6, 78, 127
2, 362625, Note_off_c, 12, 59, 127
2, 362627, Note_on_c, 12, 47, 127
2, 362627, Note_on_c, 6, 78, 127
2, 362656, Note_off_c, 7, 79, 127
2, 362810, Note_off_c, 6, 78, 127
2, 362812, Note_on_c, 4, 76, 127
2, 362990, Note_off_c, 3, 75, 127
2, 362996, Note_off_c, 4, 76, 127
2, 362996, Note_off_c, 12, 47, 127
2, 362998, Note_on_c, 4, 52, 127
2, 362998, Note_on_c, 4, 76, 127
2, 363186, Note_on_c, 6, 54, 127
2, 363372, Note_off_c, 6, 54, 127
2, 363374, Note_on_c, 8, 56, 127
2, 363562, Note_on_c, 2, 74, 127
2, 363748, Note_off_c, 2, 74, 127
2, 363748, Note_off_c, 8, 56, 127
2, 363750, Note_on_c, 10, 57, 127
2, 363750, Note_on_c, 0, 72, 127
2, 363936, Note_off_c, 0, 72, 127
2, 363938, Note_on_c, 12, 71, 127
2, 364123, Note_off_c, 4, 76, 127
2, 364124, Note_off_c, 12, 71, 127
2, 364124, Note_off_c, 10, 57, 127
2, 364126, Note_on_c, 12, 59, 127
2, 364126, Note_on_c, 10, 69, 127
2, 364312, Note_off_c, 10, 69, 127
2, 364314, Note_on_c, 7, 67, 127
2, 364500, Note_off_c, 7, 67, 127
2, 364500, Note_off_c, 12, 59, 127
2, 364502, Note_on_c, 0, 60, 127
2, 364502, Note_on_c, 6, 66, 127
2, 364704, Note_on_c, 10, 69, 127
2, 364903, Note_off_c, 10, 69, 127
2, 364903, Note_off_c, 0, 60, 127
2, 364905, Note_on_c, 10, 57, 127
2, 364905, Note_on_c, 4, 76, 127
2, 365104, Note_off_c, 4, 76, 127
2, 365106, Note_on_c, 3, 75, 127
2, 365299, Note_off_c, 6, 66, 127
2, 365305, Note_off_c, 3, 75, 127
2, 365305, Note_off_c, 10, 57, 127
2, 365307, Note_on_c, 12, 59, 127
2, 365307, Note_on_c, 8, 68, 127
2, 365407, Note_on_c, 12, 71, 127
2, 365508, Note_on_c, 4, 76, 127
2, 367720, Note_off_c, 4, 52, 127
2, 368483, Note_off_c, 8, 68, 127
2, 368483, Note_off_c, 12, 59, 127
2, 368495, Note_off_c, 4, 76, 127
2, 368497, Note_off_c, 12, 71, 127
2, 369070, Note_on_c, 12, 71, 127
2, 369259, Note_off_c, 12, 71, 127
2, 369261, Note_on_c, 4, 52, 127
2, 369261, Note_on_c, 4, 64, 127
2, 369261, Note_on_c, 7, 67, 127
2, 369261, Note_on_c, 12, 71, 127
2, 369643, Note_off_c, 4, 52, 127
2, 369645, Note_on_c, 4, 40, 127
2, 369834, Note_off_c, 12, 71, 127
2, 369834, Note_off_c, 7, 67, 127
2, 369834, Note_off_c, 4, 64, 127
2, 369836, Note_on_c, 0, 72, 127
2, 370025, Note_off_c, 0, 72, 127
2, 370028, Note_on_c, 12, 71, 127
2, 370203, Note_off_c, 4, 40, 127
2, 370219, Note_off_c, 12, 71, 127
2, 370220, Note_on_c, 10, 69, 127
2, 370409, Note_off_c, 10, 69, 127
2, 370411, Note_on_c, 7, 67, 127
2, 370600, Note_off_c, 7, 67, 127
2, 370603, Note_on_c, 6, 66, 127
2, 370792, Note_off_c, 6, 66, 127
2, 370794, Note_on_c, 4, 64, 127
2, 370983, Note_off_c, 4, 64, 127
2, 370985, Note_on_c, 3, 63, 127
2, 371176, Note_on_c, 10, 69, 127
2, 371176, Note_on_c, 0, 72, 127
2, 371543, Note_off_c, 3, 63, 127
2, 371558, Note_off_c, 0, 72, 127
2, 371558, Note_off_c, 10, 69, 127
2, 371560, Note_on_c, 4, 64, 127
2, 371656, Note_on_c, 7, 67, 127
2, 371751, Note_on_c, 4, 52, 127
2, 371751, Note_on_c, 12, 71, 127
2, 371940, Note_off_c, 4, 52, 127
2, 371942, Note_on_c, 6, 54, 127
2, 372118, Note_off_c, 4, 64, 127
2, 372133, Note_off_c, 6, 54, 127
2, 372133, Note_off_c, 12, 71, 127
2, 372135, Note_off_c, 7, 67, 127
2, 372135, Note_on_c, 7, 55, 127
2, 372135, Note_on_c, 7, 79, 127
2, 372324, Note_off_c, 7, 79, 127
2, 372324, Note_off_c, 7, 55, 127
2, 372326, Note_on_c, 10, 57, 127
2, 372326, Note_on_c, 6, 78, 127
2, 372515, Note_off_c, 6, 78, 127
2, 372515, Note_off_c, 10, 57, 127
2, 372517, Note_on_c, 12, 59, 127
2, 372517, Note_on_c, 4, 76, 127
2, 372706, Note_off_c, 4, 76, 127
2, 372706, Note_off_c, 12, 59, 127
2, 372709, Note_on_c, 0, 60, 127
2, 372709, Note_on_c, 3, 75, 127
2, 372898, Note_off_c, 3, 75, 127
2, 372898, Note_off_c, 0, 60, 127
2, 372900, Note_on_c, 12, 59, 127
2, 372900, Note_on_c, 4, 76, 127
2, 373089, Note_off_c, 4, 76, 127
2, 373089, Note_off_c, 12, 59, 127
2, 373091, Note_on_c, 10, 57, 127
2, 373091, Note_on_c, 6, 78, 127
2, 373235, Note_on_c, 4, 76, 127
2, 373241, Note_off_c, 6, 78, 127
2, 373282, Note_off_c, 10, 57, 127
2, 373284, Note_on_c, 7, 55, 127
2, 373316, Note_on_c, 6, 78, 127
2, 373330, Note_off_c, 4, 76, 127
2, 373397, Note_on_c, 4, 76, 127
2, 373411, Note_off_c, 6, 78, 127
2, 373475, Note_off_c, 7, 55, 127
2, 373477, Note_on_c, 6, 54, 127
2, 373477, Note_on_c, 6, 78, 127
2, 373490, Note_off_c, 4, 76, 127
2, 373570, Note_off_c, 6, 78, 127
2, 373572, Note_on_c, 4, 76, 127
2, 373665, Note_off_c, 4, 76, 127
2, 373666, Note_off_c, 6, 54, 127
2, 373668, Note_on_c, 4, 52, 127
2, 373668, Note_on_c, 3, 75, 127
2, 373761, Note_off_c, 3, 75, 127
2, 373763, Note_on_c, 4, 76, 127
2, 373856, Note_off_c, 4, 76, 127
2, 373857, Note_off_c, 4, 52, 127
2, 373859, Note_on_c, 12, 59, 127
2, 373859, Note_on_c, 6, 78, 127
2, 374241, Note_off_c, 6, 78, 127
2, 374243, Note_on_c, 12, 71, 127
2, 374432, Note_off_c, 12, 59, 127
2, 374434, Note_on_c, 0, 60, 127
2, 374623, Note_off_c, 0, 60, 127
2, 374623, Note_off_c, 12, 71, 127
2, 374625, Note_on_c, 12, 59, 127
2, 374625, Note_on_c, 7, 67, 127
2, 374721, Note_on_c, 12, 71, 127
2, 374814, Note_off_c, 12, 59, 127
2, 374816, Note_on_c, 10, 57, 127
2, 374816, Note_on_c, 4, 76, 127
2, 375005, Note_off_c, 10, 57, 127
2, 375007, Note_on_c, 7, 55, 127
2, 375183, Note_off_c, 7, 67, 127
2, 375198, Note_off_c, 7, 55, 127
2, 375198, Note_off_c, 4, 76, 127
2, 375200, Note_off_c, 12, 71, 127
2, 375200, Note_on_c, 6, 54, 127
2, 375200, Note_on_c, 6, 78, 127
2, 375389, Note_off_c, 6, 78, 127
2, 375389, Note_off_c, 6, 54, 127
2, 375391, Note_on_c, 4, 52, 127
2, 375391, Note_on_c, 7, 79, 127
2, 375518, Note_off_c, 7, 79, 127
2, 375518, Note_on_c, 6, 78, 127
2, 375580, Note_off_c, 4, 52, 127
2, 375583, Note_on_c, 3, 51, 127
2, 375602, Note_on_c, 7, 79, 127
2, 375610, Note_off_c, 6, 78, 127
2, 375688, Note_on_c, 6, 78, 127
2, 375695, Note_off_c, 7, 79, 127
2, 375774, Note_on_c, 0, 60, 127
2, 375774, Note_on_c, 7, 79, 127
2, 375781, Note_off_c, 6, 78, 127
2, 375867, Note_off_c, 7, 79, 127
2, 375869, Note_on_c, 6, 78, 127
2, 375962, Note_off_c, 6, 78, 127
2, 375965, Note_on_c, 4, 76, 127
2, 376058, Note_off_c, 4, 76, 127
2, 376060, Note_on_c, 6, 78, 127
2, 376140, Note_off_c, 3, 51, 127
2, 376153, Note_off_c, 6, 78, 127
2, 376154, Note_off_c, 0, 60, 127
2, 376156, Note_on_c, 4, 52, 127
2, 376156, Note_on_c, 12, 59, 127
2, 376156, Note_on_c, 7, 79, 127
2, 376538, Note_off_c, 7, 79, 127
2, 376540, Note_on_c, 12, 71, 127
2, 376729, Note_off_c, 12, 59, 127
2, 376729, Note_off_c, 4, 52, 127
2, 376731, Note_on_c, 5, 53, 127
2, 376920, Note_off_c, 5, 53, 127
2, 376920, Note_off_c, 12, 71, 127
2, 376922, Note_on_c, 4, 52, 127
2, 376922, Note_on_c, 4, 64, 127
2, 377018, Note_on_c, 8, 68, 127
2, 377111, Note_off_c, 4, 52, 127
2, 377113, Note_on_c, 2, 50, 127
2, 377113, Note_on_c, 12, 71, 127
2, 377209, Note_on_c, 4, 76, 127
2, 377302, Note_off_c, 2, 50, 127
2, 377305, Note_on_c, 0, 48, 127
2, 377480, Note_off_c, 4, 64, 127
2, 377492, Note_off_c, 12, 71, 127
2, 377494, Note_off_c, 0, 48, 127
2, 377494, Note_off_c, 4, 76, 127
2, 377495, Note_off_c, 8, 68, 127
2, 377496, Note_on_c, 12, 47, 127
2, 377496, Note_on_c, 2, 74, 127
2, 377685, Note_off_c, 2, 74, 127
2, 377685, Note_off_c, 12, 47, 127
2, 377687, Note_on_c, 10, 45, 127
2, 377687, Note_on_c, 2, 74, 127
2, 377832, Note_off_c, 2, 74, 127
2, 377833, Note_on_c, 0, 72, 127
2, 377876, Note_off_c, 10, 45, 127
2, 377878, Note_on_c, 8, 44, 127
2, 377919, Note_on_c, 2, 74, 127
2, 377926, Note_off_c, 0, 72, 127
2, 378004, Note_on_c, 0, 72, 127
2, 378012, Note_off_c, 2, 74, 127
2, 378071, Note_on_c, 5, 53, 127
2, 378090, Note_on_c, 2, 74, 127
2, 378097, Note_off_c, 0, 72, 127
2, 378176, Note_on_c, 0, 72, 127
2, 378183, Note_off_c, 2, 74, 127
2, 378262, Note_on_c, 12, 71, 127
2, 378269, Note_off_c, 0, 72, 127
2, 378438, Note_off_c, 8, 44, 127
2, 378453, Note_off_c, 12, 71, 127
2, 378453, Note_off_c, 5, 53, 127
2, 378455, Note_on_c, 10, 45, 127
2, 378455, Note_on_c, 0, 72, 127
2, 378646, Note_on_c, 4, 52, 127
2, 378834, Note_off_c, 10, 45, 127
2, 378835, Note_off_c, 4, 52, 127
2, 378837, Note_on_c, 10, 57, 127
2, 379026, Note_off_c, 10, 57, 127
2, 379026, Note_off_c, 0, 72, 127
2, 379028, Note_on_c, 12, 59, 127
2, 379028, Note_on_c, 12, 71, 127
2, 379217, Note_off_c, 12, 71, 127
2, 379217, Note_off_c, 12, 59, 127
2, 379219, Note_on_c, 0, 60, 127
2, 379219, Note_on_c, 10, 69, 127
2, 379408, Note_off_c, 10, 69, 127
2, 379408, Note_off_c, 0, 60, 127
2, 379411, Note_on_c, 2, 62, 127
2, 379411, Note_on_c, 7, 67, 127
2, 379600, Note_off_c, 7, 67, 127
2, 379600, Note_off_c, 2, 62, 127
2, 379602, Note_on_c, 4, 64, 127
2, 379602, Note_on_c, 6, 66, 127
2, 379791, Note_off_c, 6, 66, 127
2, 379791, Note_off_c, 4, 64, 127
2, 379793, Note_on_c, 2, 62, 127
2, 379793, Note_on_c, 7, 67, 127
2, 379982, Note_off_c, 7, 67, 127
2, 379982, Note_off_c, 2, 62, 127
2, 379984, Note_on_c, 0, 60, 127
2, 379984, Note_on_c, 10, 69, 127
2, 380115, Note_off_c, 10, 69, 127
2, 380115, Note_on_c, 7, 67, 127
2, 380173, Note_off_c, 0, 60, 127
2, 380175, Note_on_c, 12, 59, 127
2, 380200, Note_on_c, 10, 69, 127
2, 380208, Note_off_c, 7, 67, 127
2, 380284, Note_on_c, 7, 67, 127
2, 380293, Note_off_c, 10, 69, 127
2, 380364, Note_off_c, 12, 59, 127
2, 380366, Note_on_c, 10, 57, 127
2, 380366, Note_on_c, 10, 69, 127
2, 380376, Note_off_c, 7, 67, 127
2, 380459, Note_off_c, 10, 69, 127
2, 380462, Note_on_c, 7, 67, 127
2, 380555, Note_off_c, 7, 67, 127
2, 380555, Note_off_c, 10, 57, 127
2, 380558, Note_on_c, 7, 55, 127
2, 380558, Note_on_c, 6, 66, 127
2, 380651, Note_off_c, 6, 66, 127
2, 380653, Note_on_c, 7, 67, 127
2, 380746, Note_off_c, 7, 67, 127
2, 380747, Note_off_c, 7, 55, 127
2, 380749, Note_on_c, 2, 62, 127
2, 380749, Note_on_c, 6, 66, 127
2, 380749, Note_on_c, 10, 69, 127
2, 381131, Note_off_c, 2, 62, 127
2, 381133, Note_on_c, 2, 50, 127
2, 381322, Note_off_c, 10, 69, 127
2, 381322, Note_off_c, 6, 66, 127
2, 381324, Note_on_c, 10, 81, 127
2, 381513, Note_off_c, 10, 81, 127
2, 381515, Note_on_c, 7, 79, 127
2, 381704, Note_off_c, 7, 79, 127
2, 381706, Note_on_c, 6, 78, 127
2, 381889, Note_off_c, 2, 50, 127
2, 381895, Note_off_c, 6, 78, 127
2, 381897, Note_on_c, 4, 76, 127
2, 382086, Note_off_c, 4, 76, 127
2, 382088, Note_on_c, 2, 74, 127
2, 382277, Note_off_c, 2, 74, 127
2, 382280, Note_on_c, 0, 72, 127
2, 382469, Note_off_c, 0, 72, 127
2, 382471, Note_on_c, 12, 71, 127
2, 382662, Note_on_c, 2, 62, 127
2, 382662, Note_on_c, 6, 66, 127
2, 382749, Note_off_c, 12, 71, 127
2, 382758, Note_on_c, 10, 69, 127
2, 382853, Note_on_c, 0, 72, 127
2, 382949, Note_on_c, 10, 81, 127
2, 383041, Note_off_c, 6, 66, 127
2, 383042, Note_off_c, 10, 81, 127
2, 383042, Note_off_c, 0, 72, 127
2, 383042, Note_off_c, 2, 62, 127
2, 383044, Note_on_c, 2, 62, 127
2, 383044, Note_on_c, 7, 67, 127
2, 383044, Note_on_c, 0, 72, 127
2, 383056, Note_off_c, 10, 69, 127
2, 383233, Note_off_c, 0, 72, 127
2, 383235, Note_on_c, 12, 71, 127
2, 383423, Note_off_c, 7, 67, 127
2, 383424, Note_off_c, 2, 62, 127
2, 383427, Note_on_c, 2, 50, 127
2, 383615, Note_off_c, 12, 71, 127
2, 383618, Note_on_c, 7, 79, 127
2, 383807, Note_off_c, 7, 79, 127
2, 383809, Note_on_c, 6, 78, 127
2, 383998, Note_off_c, 6, 78, 127
2, 384000, Note_on_c, 4, 76, 127
2, 384189, Note_off_c, 4, 76, 127
2, 384191, Note_on_c, 2, 74, 127
2, 384380, Note_off_c, 2, 74, 127
2, 384382, Note_on_c, 0, 72, 127
2, 384571, Note_off_c, 0, 72, 127
2, 384572, Note_off_c, 2, 50, 127
2, 384574, Note_on_c, 12, 71, 127
2, 384763, Note_off_c, 12, 71, 127
2, 384765, Note_on_c, 10, 69, 127
2, 384954, Note_off_c, 10, 69, 127
2, 384956, Note_on_c, 2, 62, 127
2, 384956, Note_on_c, 7, 67, 127
2, 385051, Note_on_c, 12, 71, 127
2, 385147, Note_on_c, 7, 79, 127
2, 385334, Note_off_c, 12, 71, 127
2, 385335, Note_off_c, 7, 67, 127
2, 385336, Note_off_c, 7, 79, 127
2, 385336, Note_off_c, 2, 62, 127
2, 385338, Note_on_c, 2, 62, 127
2, 385338, Note_on_c, 12, 71, 127
2, 385338, Note_on_c, 6, 66, 127
2, 385527, Note_off_c, 12, 71, 127
2, 385529, Note_on_c, 10, 69, 127
2, 385717, Note_off_c, 6, 66, 127
2, 385718, Note_off_c, 2, 62, 127
2, 385720, Note_on_c, 2, 50, 127
2, 385909, Note_off_c, 10, 69, 127
2, 385912, Note_on_c, 0, 72, 127
2, 386101, Note_off_c, 0, 72, 127
2, 386103, Note_on_c, 12, 71, 127
2, 386292, Note_off_c, 12, 71, 127
2, 386294, Note_on_c, 10, 69, 127
2, 386483, Note_off_c, 10, 69, 127
2, 386485, Note_on_c, 7, 67, 127
2, 386674, Note_off_c, 7, 67, 127
2, 386676, Note_on_c, 6, 66, 127
2, 386865, Note_off_c, 6, 66, 127
2, 386865, Note_off_c, 2, 50, 127
2, 386867, Note_on_c, 4, 64, 127
2, 387056, Note_off_c, 4, 64, 127
2, 387059, Note_on_c, 2, 50, 127
2, 387059, Note_on_c, 2, 62, 127
2, 387248, Note_off_c, 2, 62, 127
2, 387248, Note_off_c, 2, 50, 127
2, 387250, Note_on_c, 4, 52, 127
2, 387250, Note_on_c, 0, 72, 127
2, 387439, Note_off_c, 4, 52, 127
2, 387441, Note_on_c, 6, 54, 127
2, 387630, Note_off_c, 6, 54, 127
2, 387630, Note_off_c, 0, 72, 127
2, 387632, Note_on_c, 7, 55, 127
2, 387632, Note_on_c, 0, 72, 127
2, 387821, Note_off_c, 7, 55, 127
2, 387823, Note_on_c, 10, 57, 127
2, 387839, Note_off_c, 0, 72, 127
2, 387843, Note_on_c, 12, 71, 127
2, 387929, Note_on_c, 0, 72, 127
2, 387936, Note_off_c, 12, 71, 127
2, 388012, Note_off_c, 10, 57, 127
2, 388014, Note_on_c, 7, 55, 127
2, 388014, Note_on_c, 12, 71, 127
2, 388022, Note_off_c, 0, 72, 127
2, 388203, Note_off_c, 12, 71, 127
2, 388203, Note_off_c, 7, 55, 127
2, 388206, Note_on_c, 6, 54, 127
2, 388206, Note_on_c, 10, 69, 127
2, 388395, Note_off_c, 10, 69, 127
2, 388395, Note_off_c, 6, 54, 127
2, 388397, Note_on_c, 4, 52, 127
2, 388397, Note_on_c, 7, 67, 127
2, 388586, Note_off_c, 7, 67, 127
2, 388586, Note_off_c, 4, 52, 127
2, 388588, Note_on_c, 2, 50, 127
2, 388588, Note_on_c, 6, 66, 127
2, 388777, Note_off_c, 6, 66, 127
2, 388777, Note_off_c, 2, 50, 127
2, 388779, Note_on_c, 4, 52, 127
2, 388779, Note_on_c, 7, 67, 127
2, 388968, Note_off_c, 7, 67, 127
2, 388968, Note_off_c, 4, 52, 127
2, 388970, Note_on_c, 0, 48, 127
2, 388970, Note_on_c, 10, 69, 127
2, 389159, Note_off_c, 10, 69, 127
2, 389159, Note_off_c, 0, 48, 127
2, 389161, Note_on_c, 2, 50, 127
2, 389161, Note_on_c, 6, 66, 127
2, 389161, Note_on_c, 12, 71, 127
2, 389441, Note_off_c, 12, 71, 127
2, 389450, Note_on_c, 10, 69, 127
2, 389543, Note_off_c, 10, 69, 127
2, 389543, Note_off_c, 2, 50, 127
2, 389545, Note_on_c, 2, 38, 127
2, 389545, Note_on_c, 12, 71, 127
2, 389638, Note_off_c, 12, 71, 127
2, 389641, Note_on_c, 10, 69, 127
2, 389734, Note_off_c, 10, 69, 127
2, 389736, Note_on_c, 7, 67, 127
2, 389829, Note_off_c, 7, 67, 127
2, 389832, Note_on_c, 10, 69, 127
2, 389919, Note_off_c, 6, 66, 127
2, 389925, Note_off_c, 2, 38, 127
2, 389927, Note_off_c, 10, 69, 127
2, 389928, Note_on_c, 7, 43, 127
2, 389928, Note_on_c, 7, 67, 127
2, 390310, Note_off_c, 7, 67, 127
2, 390310, Note_off_c, 7, 43, 127
2, 390312, Note_on_c, 7, 55, 127
2, 390312, Note_on_c, 12, 71, 127
2, 390501, Note_off_c, 7, 55, 127
2, 390503, Note_on_c, 10, 57, 127
2, 390692, Note_off_c, 10, 57, 127
2, 390692, Note_off_c, 12, 71, 127
2, 390694, Note_on_c, 7, 55, 127
2, 390694, Note_on_c, 4, 76, 127
2, 390787, Note_off_c, 4, 76, 127
2, 390789, Note_on_c, 2, 74, 127
2, 390882, Note_off_c, 2, 74, 127
2, 390883, Note_off_c, 7, 55, 127
2, 390885, Note_on_c, 6, 54, 127
2, 390885, Note_on_c, 4, 76, 127
2, 391074, Note_off_c, 6, 54, 127
2, 391076, Note_on_c, 4, 52, 127
2, 391265, Note_off_c, 4, 52, 127
2, 391265, Note_off_c, 4, 76, 127
2, 391267, Note_on_c, 2, 50, 127
2, 391267, Note_on_c, 6, 78, 127
2, 391456, Note_off_c, 6, 78, 127
2, 391456, Note_off_c, 2, 50, 127
2, 391459, Note_on_c, 1, 49, 127
2, 391459, Note_on_c, 7, 79, 127
2, 391648, Note_off_c, 7, 79, 127
2, 391648, Note_off_c, 1, 49, 127
2, 391650, Note_on_c, 12, 47, 127
2, 391650, Note_on_c, 4, 76, 127
2, 391839, Note_off_c, 4, 76, 127
2, 391841, Note_on_c, 7, 55, 127
2, 391841, Note_on_c, 1, 73, 127
2, 392030, Note_off_c, 1, 73, 127
2, 392032, Note_on_c, 2, 74, 127
2, 392208, Note_off_c, 12, 47, 127
2, 392223, Note_off_c, 2, 74, 127
2, 392223, Note_off_c, 7, 55, 127
2, 392225, Note_on_c, 6, 54, 127
2, 392225, Note_on_c, 11, 46, 127
2, 392225, Note_on_c, 4, 76, 127
2, 392414, Note_off_c, 4, 76, 127
2, 392416, Note_on_c, 7, 79, 127
2, 392605, Note_off_c, 7, 79, 127
2, 392605, Note_off_c, 11, 46, 127
2, 392607, Note_on_c, 6, 42, 127
2, 392607, Note_on_c, 6, 78, 127
2, 392796, Note_off_c, 6, 78, 127
2, 392798, Note_on_c, 4, 76, 127
2, 392987, Note_off_c, 4, 76, 127
2, 392987, Note_off_c, 6, 42, 127
2, 392989, Note_on_c, 12, 47, 127
2, 392989, Note_on_c, 2, 74, 127
2, 393178, Note_off_c, 2, 74, 127
2, 393181, Note_on_c, 1, 73, 127
2, 393369, Note_off_c, 12, 47, 127
2, 393370, Note_off_c, 6, 54, 127
2, 393372, Note_on_c, 4, 52, 127
2, 393372, Note_on_c, 7, 55, 127
2, 393372, Note_on_c, 12, 83, 127
2, 393739, Note_off_c, 1, 73, 127
2, 393754, Note_off_c, 12, 83, 127
2, 393754, Note_off_c, 7, 55, 127
2, 393754, Note_off_c, 4, 52, 127
2, 393756, Note_on_c, 6, 54, 127
2, 393756, Note_on_c, 11, 70, 127
2, 393756, Note_on_c, 2, 74, 127
2, 393882, Note_off_c, 2, 74, 127
2, 393884, Note_on_c, 1, 73, 127
2, 393947, Note_on_c, 2, 74, 127
2, 393977, Note_off_c, 1, 73, 127
2, 394012, Note_on_c, 1, 73, 127
2, 394042, Note_off_c, 2, 74, 127
2, 394076, Note_on_c, 2, 74, 127
2, 394107, Note_off_c, 1, 73, 127
2, 394139, Note_off_c, 6, 54, 127
2, 394141, Note_on_c, 6, 42, 127
2, 394141, Note_on_c, 1, 73, 127
2, 394171, Note_off_c, 2, 74, 127
2, 394318, Note_off_c, 11, 70, 127
2, 394332, Note_off_c, 1, 73, 127
2, 394334, Note_on_c, 12, 71, 127
2, 394523, Note_off_c, 12, 71, 127
2, 394523, Note_off_c, 6, 42, 127
2, 394525, Note_on_c, 12, 47, 127
2, 394525, Note_on_c, 12, 71, 127
2, 394909, Note_on_c, 3, 51, 127
2, 395291, Note_off_c, 3, 51, 127
2, 395293, Note_on_c, 6, 54, 127
2, 395675, Note_off_c, 6, 54, 127
2, 395677, Note_on_c, 12, 59, 127
2, 395677, Note_on_c, 6, 66, 127
2, 395677, Note_on_c, 3, 63, 127
2, 396059, Note_off_c, 12, 71, 127
2, 396059, Note_off_c, 12, 47, 127
2, 396445, Note_on_c, 6, 78, 127
2, 396477, Note_off_c, 3, 63, 127
2, 396477, Note_off_c, 6, 66, 127
2, 396820, Note_off_c, 6, 78, 127
2, 396825, Note_off_c, 12, 59, 127
2, 396827, Note_on_c, 12, 59, 127
2, 396827, Note_on_c, 3, 75, 127
2, 396827, Note_on_c, 12, 71, 127
2, 396827, Note_on_c, 6, 78, 127
2, 397209, Note_off_c, 6, 78, 127
2, 397209, Note_off_c, 12, 71, 127
2, 397209, Note_off_c, 3, 75, 127
2, 397211, Note_on_c, 4, 76, 127
2, 397400, Note_off_c, 4, 76, 127
2, 397400, Note_off_c, 12, 59, 127
2, 397402, Note_on_c, 12, 47, 127
2, 397402, Note_on_c, 3, 75, 127
2, 397591, Note_off_c, 3, 75, 127
2, 397591, Note_off_c, 12, 47, 127
2, 397593, Note_on_c, 1, 49, 127
2, 397593, Note_on_c, 1, 73, 127
2, 397782, Note_off_c, 1, 73, 127
2, 397782, Note_off_c, 1, 49, 127
2, 397785, Note_on_c, 3, 51, 127
2, 397785, Note_on_c, 12, 71, 127
2, 397974, Note_off_c, 12, 71, 127
2, 397974, Note_off_c, 3, 51, 127
2, 397976, Note_on_c, 4, 52, 127
2, 397976, Note_on_c, 1, 73, 127
2, 398165, Note_off_c, 1, 73, 127
2, 398165, Note_off_c, 4, 52, 127
2, 398167, Note_on_c, 6, 54, 127
2, 398167, Note_on_c, 3, 75, 127
2, 398356, Note_off_c, 3, 75, 127
2, 398356, Note_off_c, 6, 54, 127
2, 398358, Note_on_c, 7, 55, 127
2, 398358, Note_on_c, 4, 76, 127
2, 398547, Note_off_c, 4, 76, 127
2, 398547, Note_off_c, 7, 55, 127
2, 398549, Note_on_c, 10, 57, 127
2, 398549, Note_on_c, 6, 78, 127
2, 398738, Note_off_c, 6, 78, 127
2, 398740, Note_on_c, 3, 51, 127
2, 398740, Note_on_c, 7, 79, 127
2, 398833, Note_off_c, 7, 79, 127
2, 398836, Note_on_c, 6, 78, 127
2, 398929, Note_off_c, 6, 78, 127
2, 398932, Note_on_c, 4, 76, 127
2, 399025, Note_off_c, 4, 76, 127
2, 399027, Note_on_c, 6, 78, 127
2, 399106, Note_off_c, 10, 57, 127
2, 399120, Note_off_c, 6, 78, 127
2, 399120, Note_off_c, 3, 51, 127
2, 399123, Note_on_c, 4, 52, 127
2, 399123, Note_on_c, 12, 71, 127
2, 399218, Note_on_c, 4, 76, 127
2, 399312, Note_off_c, 4, 52, 127
2, 399314, Note_on_c, 6, 54, 127
2, 399314, Note_on_c, 7, 79, 127
2, 399503, Note_off_c, 6, 54, 127
2, 399505, Note_on_c, 4, 52, 127
2, 399681, Note_off_c, 12, 71, 127
2, 399696, Note_off_c, 4, 52, 127
2, 399696, Note_off_c, 7, 79, 127
2, 399697, Note_off_c, 4, 76, 127
2, 399698, Note_on_c, 2, 50, 127
2, 399698, Note_on_c, 4, 64, 127
2, 399887, Note_off_c, 4, 64, 127
2, 399887, Note_off_c, 2, 50, 127
2, 399889, Note_on_c, 0, 48, 127
2, 399889, Note_on_c, 6, 66, 127
2, 400078, Note_off_c, 6, 66, 127
2, 400078, Note_off_c, 0, 48, 127
2, 400080, Note_on_c, 12, 47, 127
2, 400080, Note_on_c, 8, 68, 127
2, 400269, Note_off_c, 8, 68, 127
2, 400269, Note_off_c, 12, 47, 127
2, 400271, Note_on_c, 10, 45, 127
2, 400271, Note_on_c, 10, 69, 127
2, 400460, Note_off_c, 10, 69, 127
2, 400460, Note_off_c, 10, 45, 127
2, 400462, Note_on_c, 8, 44, 127
2, 400462, Note_on_c, 12, 71, 127
2, 400651, Note_off_c, 12, 71, 127
2, 400651, Note_off_c, 8, 44, 127
2, 400654, Note_on_c, 6, 42, 127
2, 400654, Note_on_c, 0, 72, 127
2, 400843, Note_off_c, 0, 72, 127
2, 400843, Note_off_c, 6, 42, 127
2, 400845, Note_on_c, 4, 40, 127
2, 400845, Note_on_c, 2, 74, 127
2, 401036, Note_on_c, 4, 52, 127
2, 401036, Note_on_c, 8, 68, 127
2, 401224, Note_off_c, 2, 74, 127
2, 401227, Note_on_c, 2, 74, 127
2, 401403, Note_off_c, 4, 40, 127
2, 401415, Note_off_c, 8, 68, 127
2, 401416, Note_off_c, 2, 74, 127
2, 401418, Note_on_c, 10, 45, 127
2, 401418, Note_on_c, 2, 74, 127
2, 401418, Note_on_c, 10, 69, 127
2, 401594, Note_off_c, 4, 52, 127
2, 401609, Note_off_c, 2, 74, 127
2, 401611, Note_on_c, 8, 56, 127
2, 401611, Note_on_c, 0, 72, 127
2, 401800, Note_off_c, 8, 56, 127
2, 401802, Note_on_c, 10, 57, 127
2, 401978, Note_off_c, 10, 45, 127
2, 401993, Note_off_c, 0, 72, 127
2, 401995, Note_on_c, 12, 47, 127
2, 401995, Note_on_c, 2, 74, 127
2, 402177, Note_off_c, 10, 69, 127
2, 402184, Note_off_c, 2, 74, 127
2, 402184, Note_off_c, 12, 47, 127
2, 402186, Note_on_c, 0, 48, 127
2, 402186, Note_on_c, 4, 76, 127
2, 402375, Note_off_c, 4, 76, 127
2, 402377, Note_on_c, 2, 74, 127
2, 402566, Note_off_c, 2, 74, 127
2, 402566, Note_off_c, 0, 48, 127
2, 402568, Note_on_c, 2, 50, 127
2, 402568, Note_on_c, 4, 76, 127
2, 402757, Note_off_c, 4, 76, 127
2, 402760, Note_on_c, 5, 77, 127
2, 402948, Note_off_c, 2, 50, 127
2, 402948, Note_off_c, 10, 57, 127
2, 402949, Note_off_c, 5, 77, 127
2, 402951, Note_on_c, 4, 52, 127
2, 402951, Note_on_c, 8, 68, 127
2, 402951, Note_on_c, 0, 72, 127
2, 403072, Note_off_c, 0, 72, 127
2, 403076, Note_on_c, 12, 71, 127
2, 403161, Note_on_c, 0, 72, 127
2, 403169, Note_off_c, 12, 71, 127
2, 403247, Note_on_c, 12, 71, 127
2, 403254, Note_off_c, 0, 72, 127
2, 403333, Note_on_c, 4, 40, 127
2, 403333, Note_on_c, 0, 72, 127
2, 403340, Note_off_c, 12, 71, 127
2, 403419, Note_on_c, 12, 71, 127
2, 403426, Note_off_c, 0, 72, 127
2, 403509, Note_off_c, 8, 68, 127
2, 403525, Note_off_c, 12, 71, 127
2, 403526, Note_on_c, 10, 69, 127
2, 403709, Note_off_c, 4, 52, 127
2, 403715, Note_off_c, 10, 69, 127
2, 403715, Note_off_c, 4, 40, 127
2, 403717, Note_on_c, 10, 45, 127
2, 403717, Note_on_c, 0, 60, 127
2, 403813, Note_on_c, 4, 64, 127
2, 403908, Note_on_c, 10, 69, 127
2, 404097, Note_off_c, 10, 45, 127
2, 404099, Note_on_c, 10, 57, 127
2, 404275, Note_off_c, 0, 60, 127
2, 404290, Note_off_c, 10, 69, 127
2, 404292, Note_off_c, 4, 64, 127
2, 404292, Note_on_c, 12, 71, 127
2, 404481, Note_off_c, 12, 71, 127
2, 404481, Note_off_c, 10, 57, 127
2, 404483, Note_on_c, 7, 55, 127
2, 404483, Note_on_c, 1, 73, 127
2, 404672, Note_off_c, 1, 73, 127
2, 404674, Note_on_c, 2, 74, 127
2, 404863, Note_off_c, 2, 74, 127
2, 404863, Note_off_c, 7, 55, 127
2, 404866, Note_on_c, 6, 54, 127
2, 404866, Note_on_c, 4, 76, 127
2, 405055, Note_off_c, 4, 76, 127
2, 405057, Note_on_c, 6, 78, 127
2, 405246, Note_off_c, 6, 78, 127
2, 405246, Note_off_c, 6, 54, 127
2, 405248, Note_on_c, 4, 52, 127
2, 405248, Note_on_c, 7, 79, 127
2, 405437, Note_off_c, 7, 79, 127
2, 405439, Note_on_c, 10, 81, 127
2, 405628, Note_off_c, 4, 52, 127
2, 405630, Note_on_c, 6, 54, 127
2, 405630, Note_on_c, 0, 72, 127
2, 405630, Note_on_c, 2, 74, 127
2, 405818, Note_off_c, 10, 81, 127
2, 405821, Note_on_c, 10, 81, 127
2, 406009, Note_off_c, 2, 74, 127
2, 406009, Note_off_c, 0, 72, 127
2, 406010, Note_off_c, 10, 81, 127
2, 406010, Note_off_c, 6, 54, 127
2, 406013, Note_on_c, 7, 55, 127
2, 406013, Note_on_c, 12, 83, 127
2, 406202, Note_off_c, 12, 83, 127
2, 406204, Note_on_c, 0, 84, 127
2, 406393, Note_off_c, 0, 84, 127
2, 406395, Note_on_c, 12, 83, 127
2, 406584, Note_off_c, 12, 83, 127
2, 406584, Note_off_c, 7, 55, 127
2, 406586, Note_on_c, 10, 57, 127
2, 406586, Note_on_c, 10, 81, 127
2, 406775, Note_off_c, 10, 81, 127
2, 406775, Note_off_c, 10, 57, 127
2, 406777, Note_on_c, 12, 59, 127
2, 406777, Note_on_c, 7, 79, 127
2, 406966, Note_off_c, 7, 79, 127
2, 406966, Note_off_c, 12, 59, 127
2, 406968, Note_on_c, 10, 57, 127
2, 406968, Note_on_c, 6, 78, 127
2, 407157, Note_off_c, 6, 78, 127
2, 407157, Note_off_c, 10, 57, 127
2, 407160, Note_on_c, 7, 55, 127
2, 407160, Note_on_c, 4, 76, 127
2, 407349, Note_off_c, 4, 76, 127
2, 407349, Note_off_c, 7, 55, 127
2, 407351, Note_on_c, 6, 54, 127
2, 407351, Note_on_c, 2, 74, 127
2, 407540, Note_off_c, 2, 74, 127
2, 407540, Note_off_c, 6, 54, 127
2, 407542, Note_on_c, 4, 52, 127
2, 407542, Note_on_c, 1, 73, 127
2, 407731, Note_off_c, 1, 73, 127
2, 407731, Note_off_c, 4, 52, 127
2, 407733, Note_on_c, 6, 54, 127
2, 407733, Note_on_c, 2, 74, 127
2, 407922, Note_off_c, 2, 74, 127
2, 407922, Note_off_c, 6, 54, 127
2, 407924, Note_on_c, 4, 52, 127
2, 407924, Note_on_c, 4, 76, 127
2, 408017, Note_off_c, 4, 76, 127
2, 408020, Note_on_c, 2, 74, 127
2, 408113, Note_off_c, 2, 74, 127
2, 408113, Note_off_c, 4, 52, 127
2, 408115, Note_on_c, 2, 50, 127
2, 408115, Note_on_c, 1, 73, 127
2, 408208, Note_off_c, 1, 73, 127
2, 408211, Note_on_c, 2, 74, 127
2, 408304, Note_off_c, 2, 74, 127
2, 408304, Note_off_c, 2, 50, 127
2, 408307, Note_on_c, 10, 57, 127
2, 408307, Note_on_c, 4, 76, 127
2, 408689, Note_off_c, 4, 76, 127
2, 408690, Note_on_c, 10, 69, 127
2, 408880, Note_off_c, 10, 57, 127
2, 408882, Note_on_c, 10, 45, 127
2, 408951, Note_on_c, 12, 71, 127
2, 409034, Note_on_c, 1, 73, 127
2, 409044, Note_off_c, 12, 71, 127
2, 409071, Note_off_c, 10, 45, 127
2, 409073, Note_on_c, 12, 47, 127
2, 409127, Note_off_c, 1, 73, 127
2, 409138, Note_on_c, 2, 74, 127
2, 409200, Note_on_c, 1, 73, 127
2, 409249, Note_off_c, 2, 74, 127
2, 409262, Note_off_c, 12, 47, 127
2, 409264, Note_on_c, 1, 49, 127
2, 409279, Note_on_c, 2, 74, 127
2, 409293, Note_off_c, 1, 73, 127
2, 409358, Note_on_c, 1, 73, 127
2, 409372, Note_off_c, 2, 74, 127
2, 409436, Note_on_c, 2, 74, 127
2, 409451, Note_off_c, 1, 73, 127
2, 409453, Note_off_c, 1, 49, 127
2, 409455, Note_on_c, 2, 50, 127
2, 409516, Note_on_c, 1, 73, 127
2, 409529, Note_off_c, 2, 74, 127
2, 409595, Note_on_c, 2, 74, 127
2, 409609, Note_off_c, 1, 73, 127
2, 409644, Note_off_c, 2, 50, 127
2, 409646, Note_on_c, 4, 52, 127
2, 409675, Note_on_c, 1, 73, 127
2, 409688, Note_off_c, 2, 74, 127
2, 409755, Note_on_c, 2, 74, 127
2, 409768, Note_off_c, 1, 73, 127
2, 409834, Note_on_c, 1, 73, 127
2, 409835, Note_off_c, 4, 52, 127
2, 409837, Note_on_c, 6, 54, 127
2, 409848, Note_off_c, 2, 74, 127
2, 409914, Note_on_c, 2, 74, 127
2, 409927, Note_off_c, 1, 73, 127
2, 409993, Note_on_c, 1, 73, 127
2, 410007, Note_off_c, 2, 74, 127
2, 410028, Note_off_c, 6, 54, 127
2, 410030, Note_on_c, 7, 55, 127
2, 410072, Note_on_c, 2, 74, 127
2, 410086, Note_off_c, 1, 73, 127
2, 410161, Note_on_c, 1, 73, 127
2, 410165, Note_off_c, 2, 74, 127
2, 410221, Note_on_c, 10, 45, 127
2, 410250, Note_on_c, 2, 74, 127
2, 410254, Note_off_c, 1, 73, 127
2, 410338, Note_on_c, 1, 73, 127
2, 410343, Note_off_c, 2, 74, 127
2, 410427, Note_on_c, 12, 71, 127
2, 410431, Note_off_c, 1, 73, 127
2, 410516, Note_on_c, 1, 73, 127
2, 410520, Note_off_c, 12, 71, 127
2, 410587, Note_off_c, 7, 55, 127
2, 410604, Note_on_c, 4, 76, 127
2, 410604, Note_on_c, 7, 55, 127
2, 410609, Note_off_c, 1, 73, 127
2, 410774, Note_off_c, 4, 76, 127
2, 410782, Note_on_c, 2, 74, 127
2, 410793, Note_off_c, 7, 55, 127
2, 410795, Note_on_c, 6, 54, 127
2, 410875, Note_off_c, 2, 74, 127
2, 410875, Note_on_c, 4, 76, 127
2, 410960, Note_on_c, 2, 74, 127
2, 410968, Note_off_c, 4, 76, 127
2, 411045, Note_on_c, 4, 76, 127
2, 411053, Note_off_c, 2, 74, 127
2, 411131, Note_on_c, 2, 74, 127
2, 411138, Note_off_c, 4, 76, 127
2, 411176, Note_off_c, 10, 45, 127
2, 411177, Note_on_c, 12, 47, 127
2, 411216, Note_on_c, 4, 76, 127
2, 411224, Note_off_c, 2, 74, 127
2, 411302, Note_on_c, 2, 74, 127
2, 411309, Note_off_c, 4, 76, 127
2, 411366, Note_off_c, 12, 47, 127
2, 411368, Note_on_c, 1, 49, 127
2, 411387, Note_on_c, 4, 76, 127
2, 411395, Note_off_c, 2, 74, 127
2, 411473, Note_on_c, 2, 74, 127
2, 411480, Note_off_c, 4, 76, 127
2, 411551, Note_off_c, 6, 54, 127
2, 411557, Note_off_c, 1, 49, 127
2, 411558, Note_on_c, 4, 76, 127
2, 411559, Note_on_c, 2, 50, 127
2, 411566, Note_off_c, 2, 74, 127
2, 411644, Note_on_c, 2, 74, 127
2, 411651, Note_off_c, 4, 76, 127
2, 411730, Note_on_c, 4, 76, 127
2, 411737, Note_off_c, 2, 74, 127
2, 411748, Note_off_c, 2, 50, 127
2, 411751, Note_on_c, 4, 52, 127
2, 411815, Note_on_c, 2, 74, 127
2, 411823, Note_off_c, 4, 76, 127
2, 411901, Note_on_c, 4, 76, 127
2, 411908, Note_off_c, 2, 74, 127
2, 411940, Note_off_c, 4, 52, 127
2, 411942, Note_on_c, 6, 54, 127
2, 411986, Note_on_c, 2, 74, 127
2, 411994, Note_off_c, 4, 76, 127
2, 412071, Note_on_c, 4, 76, 127
2, 412079, Note_off_c, 2, 74, 127
2, 412131, Note_off_c, 6, 54, 127
2, 412133, Note_on_c, 7, 55, 127
2, 412157, Note_on_c, 2, 74, 127
2, 412164, Note_off_c, 4, 76, 127
2, 412242, Note_on_c, 4, 76, 127
2, 412250, Note_off_c, 2, 74, 127
2, 412322, Note_off_c, 7, 55, 127
2, 412324, Note_on_c, 10, 57, 127
2, 412328, Note_on_c, 2, 74, 127
2, 412335, Note_off_c, 4, 76, 127
2, 412413, Note_on_c, 4, 76, 127
2, 412421, Note_off_c, 2, 74, 127
2, 412499, Note_on_c, 2, 74, 127
2, 412506, Note_off_c, 4, 76, 127
2, 412515, Note_on_c, 12, 47, 127
2, 412584, Note_on_c, 4, 76, 127
2, 412592, Note_off_c, 2, 74, 127
2, 412667, Note_on_c, 2, 74, 127
2, 412677, Note_off_c, 4, 76, 127
2, 412740, Note_on_c, 1, 73, 127
2, 412760, Note_off_c, 2, 74, 127
2, 412823, Note_on_c, 2, 74, 127
2, 412833, Note_off_c, 1, 73, 127
2, 412881, Note_off_c, 10, 57, 127
2, 412895, Note_off_c, 12, 47, 127
2, 412898, Note_on_c, 1, 49, 127
2, 412898, Note_on_c, 4, 76, 127
2, 412907, Note_off_c, 2, 74, 127
2, 413089, Note_on_c, 6, 54, 127
2, 413278, Note_off_c, 6, 54, 127
2, 413280, Note_on_c, 7, 55, 127
2, 413469, Note_off_c, 7, 55, 127
2, 413469, Note_off_c, 4, 76, 127
2, 413471, Note_on_c, 4, 52, 127
2, 413471, Note_on_c, 6, 78, 127
2, 413654, Note_off_c, 1, 49, 127
2, 413660, Note_off_c, 6, 78, 127
2, 413660, Note_off_c, 4, 52, 127
2, 413662, Note_on_c, 2, 50, 127
2, 413662, Note_on_c, 6, 54, 127
2, 413662, Note_on_c, 2, 74, 127
2, 413851, Note_off_c, 2, 74, 127
2, 413853, Note_on_c, 1, 73, 127
2, 414042, Note_off_c, 1, 73, 127
2, 414042, Note_off_c, 2, 50, 127
2, 414045, Note_on_c, 7, 43, 127
2, 414045, Note_on_c, 2, 74, 127
2, 414220, Note_off_c, 6, 54, 127
2, 414236, Note_off_c, 2, 74, 127
2, 414237, Note_on_c, 4, 52, 127
2, 414237, Note_on_c, 4, 76, 127
2, 414423, Note_off_c, 10, 69, 127
2, 414425, Note_off_c, 7, 43, 127
2, 414426, Note_off_c, 4, 76, 127
2, 414426, Note_off_c, 4, 52, 127
2, 414429, Note_on_c, 10, 45, 127
2, 414429, Note_on_c, 4, 52, 127
2, 414429, Note_on_c, 7, 67, 127
2, 414429, Note_on_c, 2, 74, 127
2, 414636, Note_off_c, 2, 74, 127
2, 414639, Note_on_c, 1, 73, 127
2, 414725, Note_on_c, 2, 74, 127
2, 414732, Note_off_c, 1, 73, 127
2, 414811, Note_on_c, 1, 73, 127
2, 414818, Note_off_c, 2, 74, 127
2, 415000, Note_off_c, 1, 73, 127
2, 415000, Note_off_c, 4, 52, 127
2, 415002, Note_on_c, 2, 50, 127
2, 415002, Note_on_c, 2, 74, 127
2, 415185, Note_off_c, 7, 67, 127
2, 415185, Note_off_c, 10, 45, 127
2, 415191, Note_off_c, 2, 74, 127
2, 415191, Note_off_c, 2, 50, 127
2, 415193, Note_on_c, 2, 50, 127
2, 415193, Note_on_c, 2, 38, 127
2, 415193, Note_on_c, 10, 69, 127
2, 415193, Note_on_c, 6, 66, 127
2, 415193, Note_on_c, 2, 74, 127
2, 415553, Note_off_c, 2, 74, 127
2, 415575, Note_off_c, 6, 66, 127
2, 415575, Note_off_c, 10, 69, 127
2, 415577, Note_on_c, 6, 78, 127
2, 415766, Note_off_c, 2, 38, 127
2, 415766, Note_off_c, 2, 50, 127
2, 415768, Note_on_c, 2, 62, 127
2, 415936, Note_off_c, 6, 78, 127
2, 415957, Note_off_c, 2, 62, 127
2, 415959, Note_on_c, 0, 60, 127
2, 415959, Note_on_c, 10, 81, 127
2, 416148, Note_off_c, 0, 60, 127
2, 416151, Note_on_c, 12, 59, 127
2, 416340, Note_off_c, 12, 59, 127
2, 416342, Note_on_c, 10, 57, 127
2, 416530, Note_off_c, 10, 81, 127
2, 416531, Note_off_c, 10, 57, 127
2, 416533, Note_on_c, 7, 55, 127
2, 416533, Note_on_c, 12, 83, 127
2, 416722, Note_off_c, 12, 83, 127
2, 416722, Note_off_c, 7, 55, 127
2, 416724, Note_on_c, 6, 54, 127
2, 416724, Note_on_c, 10, 81, 127
2, 416913, Note_off_c, 10, 81, 127
2, 416913, Note_off_c, 6, 54, 127
2, 416915, Note_on_c, 7, 55, 127
2, 416915, Note_on_c, 7, 79, 127
2, 417104, Note_off_c, 7, 79, 127
2, 417104, Note_off_c, 7, 55, 127
2, 417106, Note_on_c, 10, 57, 127
2, 417106, Note_on_c, 6, 78, 127
2, 417295, Note_off_c, 6, 78, 127
2, 417295, Note_off_c, 10, 57, 127
2, 417298, Note_on_c, 6, 54, 127
2, 417298, Note_on_c, 4, 76, 127
2, 417487, Note_off_c, 4, 76, 127
2, 417487, Note_off_c, 6, 54, 127
2, 417489, Note_on_c, 12, 59, 127
2, 417489, Note_on_c, 3, 75, 127
2, 417678, Note_off_c, 3, 75, 127
2, 417680, Note_on_c, 12, 71, 127
2, 417869, Note_off_c, 12, 71, 127
2, 417871, Note_on_c, 1, 73, 127
2, 418060, Note_off_c, 1, 73, 127
2, 418060, Note_off_c, 12, 59, 127
2, 418062, Note_on_c, 10, 57, 127
2, 418062, Note_on_c, 3, 75, 127
2, 418251, Note_off_c, 3, 75, 127
2, 418251, Note_off_c, 10, 57, 127
2, 418253, Note_on_c, 7, 55, 127
2, 418253, Note_on_c, 4, 76, 127
2, 418442, Note_off_c, 4, 76, 127
2, 418442, Note_off_c, 7, 55, 127
2, 418444, Note_on_c, 6, 54, 127
2, 418444, Note_on_c, 6, 78, 127
2, 418633, Note_off_c, 6, 78, 127
2, 418633, Note_off_c, 6, 54, 127
2, 418636, Note_on_c, 4, 52, 127
2, 418636, Note_on_c, 7, 79, 127
2, 418825, Note_off_c, 7, 79, 127
2, 418825, Note_off_c, 4, 52, 127
2, 418827, Note_on_c, 3, 51, 127
2, 418827, Note_on_c, 10, 81, 127
2, 419016, Note_off_c, 10, 81, 127
2, 419016, Note_off_c, 3, 51, 127
2, 419018, Note_on_c, 4, 52, 127
2, 419018, Note_on_c, 7, 79, 127
2, 419207, Note_off_c, 7, 79, 127
2, 419207, Note_off_c, 4, 52, 127
2, 419209, Note_on_c, 6, 54, 127
2, 419209, Note_on_c, 6, 78, 127
2, 419398, Note_off_c, 6, 78, 127
2, 419398, Note_off_c, 6, 54, 127
2, 419400, Note_on_c, 7, 55, 127
2, 419400, Note_on_c, 4, 76, 127
2, 419589, Note_off_c, 4, 76, 127
2, 419589, Note_off_c, 7, 55, 127
2, 419591, Note_on_c, 4, 52, 127
2, 419591, Note_on_c, 2, 74, 127
2, 419780, Note_off_c, 2, 74, 127
2, 419780, Note_off_c, 4, 52, 127
2, 419783, Note_on_c, 10, 57, 127
2, 419783, Note_on_c, 0, 72, 127
2, 419972, Note_off_c, 10, 57, 127
2, 419974, Note_on_c, 12, 59, 127
2, 420163, Note_off_c, 12, 59, 127
2, 420165, Note_on_c, 10, 57, 127
2, 420354, Note_off_c, 10, 57, 127
2, 420354, Note_off_c, 0, 72, 127
2, 420356, Note_on_c, 7, 55, 127
2, 420356, Note_on_c, 12, 71, 127
2, 420545, Note_off_c, 12, 71, 127
2, 420545, Note_off_c, 7, 55, 127
2, 420547, Note_on_c, 6, 54, 127
2, 420547, Note_on_c, 10, 69, 127
2, 420736, Note_off_c, 10, 69, 127
2, 420736, Note_off_c, 6, 54, 127
2, 420738, Note_on_c, 4, 64, 127
2, 420738, Note_on_c, 0, 72, 127
2, 420927, Note_off_c, 0, 72, 127
2, 420927, Note_off_c, 4, 64, 127
2, 420930, Note_on_c, 3, 63, 127
2, 420930, Note_on_c, 12, 71, 127
2, 421119, Note_off_c, 12, 71, 127
2, 421119, Note_off_c, 3, 63, 127
2, 421121, Note_on_c, 12, 59, 127
2, 421121, Note_on_c, 10, 69, 127
2, 421310, Note_off_c, 10, 69, 127
2, 421310, Note_off_c, 12, 59, 127
2, 421312, Note_on_c, 4, 64, 127
2, 421312, Note_on_c, 10, 69, 127
2, 421438, Note_off_c, 10, 69, 127
2, 421440, Note_on_c, 7, 67, 127
2, 421501, Note_off_c, 4, 64, 127
2, 421503, Note_on_c, 12, 59, 127
2, 421503, Note_on_c, 10, 69, 127
2, 421533, Note_off_c, 7, 67, 127
2, 421568, Note_on_c, 7, 67, 127
2, 421598, Note_off_c, 10, 69, 127
2, 421633, Note_on_c, 10, 69, 127
2, 421663, Note_off_c, 7, 67, 127
2, 421695, Note_off_c, 12, 59, 127
2, 421697, Note_on_c, 1, 61, 127
2, 421697, Note_on_c, 7, 67, 127
2, 421728, Note_off_c, 10, 69, 127
2, 421888, Note_off_c, 7, 67, 127
2, 421888, Note_off_c, 1, 61, 127
2, 421890, Note_on_c, 11, 58, 127
2, 421890, Note_on_c, 6, 66, 127
2, 422079, Note_off_c, 6, 66, 127
2, 422079, Note_off_c, 11, 58, 127
2, 422081, Note_on_c, 12, 59, 127
2, 422081, Note_on_c, 6, 66, 127
2, 422081, Note_on_c, 3, 63, 127
2, 422463, Note_off_c, 12, 59, 127
2, 422465, Note_on_c, 12, 47, 127
2, 422654, Note_off_c, 3, 63, 127
2, 422654, Note_off_c, 6, 66, 127
2, 422656, Note_on_c, 10, 81, 127
2, 422845, Note_off_c, 10, 81, 127
2, 422848, Note_on_c, 7, 79, 127
2, 423037, Note_off_c, 7, 79, 127
2, 423039, Note_on_c, 6, 78, 127
2, 423221, Note_off_c, 12, 47, 127
2, 423228, Note_off_c, 6, 78, 127
2, 423230, Note_on_c, 4, 76, 127
2, 423419, Note_off_c, 4, 76, 127
2, 423421, Note_on_c, 3, 75, 127
2, 423610, Note_off_c, 3, 75, 127
2, 423612, Note_on_c, 1, 73, 127
2, 423801, Note_off_c, 1, 73, 127
2, 423803, Note_on_c, 12, 71, 127
2, 423995, Note_on_c, 12, 59, 127
2, 423995, Note_on_c, 7, 79, 127
2, 423995, Note_on_c, 4, 64, 127
2, 424361, Note_off_c, 12, 71, 127
2, 424377, Note_off_c, 4, 64, 127
2, 424377, Note_off_c, 7, 79, 127
2, 424377, Note_off_c, 12, 59, 127
2, 424379, Note_on_c, 12, 59, 127
2, 424379, Note_on_c, 3, 63, 127
2, 424474, Note_on_c, 6, 66, 127
2, 424570, Note_on_c, 10, 69, 127
2, 424759, Note_off_c, 12, 59, 127
2, 424761, Note_on_c, 12, 47, 127
2, 424950, Note_off_c, 3, 63, 127
2, 424952, Note_on_c, 7, 79, 127
2, 425045, Note_off_c, 6, 66, 127
2, 425141, Note_off_c, 7, 79, 127
2, 425141, Note_off_c, 10, 69, 127
2, 425143, Note_on_c, 6, 78, 127
2, 425332, Note_off_c, 6, 78, 127
2, 425334, Note_on_c, 4, 76, 127
2, 425523, Note_off_c, 4, 76, 127
2, 425526, Note_on_c, 3, 75, 127
2, 425715, Note_off_c, 3, 75, 127
2, 425716, Note_off_c, 12, 47, 127
2, 425717, Note_on_c, 1, 73, 127
2, 425906, Note_off_c, 1, 73, 127
2, 425908, Note_on_c, 12, 71, 127
2, 426097, Note_off_c, 12, 71, 127
2, 426099, Note_on_c, 10, 69, 127
2, 426290, Note_on_c, 12, 59, 127
2, 426290, Note_on_c, 3, 63, 127
2, 426290, Note_on_c, 6, 66, 127
2, 426290, Note_on_c, 6, 78, 127
2, 426657, Note_off_c, 10, 69, 127
2, 426672, Note_off_c, 6, 78, 127
2, 426672, Note_off_c, 6, 66, 127
2, 426672, Note_off_c, 3, 63, 127
2, 426672, Note_off_c, 12, 59, 127
2, 426674, Note_on_c, 12, 59, 127
2, 426674, Note_on_c, 4, 64, 127
2, 426674, Note_on_c, 7, 67, 127
2, 427056, Note_off_c, 12, 59, 127
2, 427058, Note_on_c, 12, 47, 127
2, 427247, Note_off_c, 7, 67, 127
2, 427249, Note_on_c, 12, 71, 127
2, 427432, Note_off_c, 4, 64, 127
2, 427438, Note_off_c, 12, 71, 127
2, 427440, Note_on_c, 1, 73, 127
2, 427629, Note_off_c, 1, 73, 127
2, 427629, Note_off_c, 12, 47, 127
2, 427632, Note_on_c, 12, 47, 127
2, 427632, Note_on_c, 3, 75, 127
2, 427821, Note_off_c, 3, 75, 127
2, 427821, Note_off_c, 12, 47, 127
2, 427823, Note_on_c, 1, 49, 127
2, 427823, Note_on_c, 4, 76, 127
2, 428012, Note_off_c, 4, 76, 127
2, 428012, Note_off_c, 1, 49, 127
2, 428014, Note_on_c, 3, 51, 127
2, 428014, Note_on_c, 6, 78, 127
2, 428203, Note_off_c, 6, 78, 127
2, 428203, Note_off_c, 3, 51, 127
2, 428205, Note_on_c, 4, 52, 127
2, 428205, Note_on_c, 7, 79, 127
2, 428394, Note_off_c, 7, 79, 127
2, 428394, Note_off_c, 4, 52, 127
2, 428396, Note_on_c, 6, 54, 127
2, 428396, Note_on_c, 10, 81, 127
2, 428585, Note_off_c, 6, 54, 127
2, 428587, Note_on_c, 7, 55, 127
2, 428587, Note_on_c, 1, 73, 127
2, 428776, Note_off_c, 7, 55, 127
2, 428778, Note_on_c, 10, 57, 127
2, 428967, Note_off_c, 10, 57, 127
2, 428967, Note_off_c, 1, 73, 127
2, 428970, Note_on_c, 12, 59, 127
2, 428970, Note_on_c, 4, 76, 127
2, 429159, Note_off_c, 12, 59, 127
2, 429161, Note_on_c, 1, 61, 127
2, 429255, Note_off_c, 4, 76, 127
2, 429256, Note_on_c, 3, 75, 127
2, 429350, Note_off_c, 1, 61, 127
2, 429352, Note_on_c, 3, 63, 127
2, 429541, Note_off_c, 3, 63, 127
2, 429541, Note_off_c, 10, 81, 127
2, 429543, Note_on_c, 12, 59, 127
2, 429543, Note_on_c, 12, 83, 127
2, 429635, Note_off_c, 3, 75, 127
2, 429732, Note_off_c, 12, 83, 127
2, 429732, Note_off_c, 12, 59, 127
2, 429734, Note_on_c, 4, 64, 127
2, 429734, Note_on_c, 4, 76, 127
2, 429830, Note_on_c, 6, 78, 127
2, 429925, Note_on_c, 7, 79, 127
2, 430019, Note_off_c, 6, 78, 127
2, 430114, Note_off_c, 4, 64, 127
2, 430117, Note_on_c, 10, 57, 127
2, 430292, Note_off_c, 4, 76, 127
2, 430304, Note_off_c, 7, 79, 127
2, 430308, Note_on_c, 6, 78, 127
2, 430497, Note_off_c, 6, 78, 127
2, 430497, Note_off_c, 10, 57, 127
2, 430499, Note_on_c, 12, 59, 127
2, 430499, Note_on_c, 3, 75, 127
2, 430499, Note_on_c, 7, 79, 127
2, 430592, Note_off_c, 7, 79, 127
2, 430594, Note_on_c, 6, 78, 127
2, 430687, Note_off_c, 6, 78, 127
2, 430690, Note_on_c, 7, 79, 127
2, 430783, Note_off_c, 7, 79, 127
2, 430786, Note_on_c, 6, 78, 127
2, 430879, Note_off_c, 6, 78, 127
2, 430879, Note_off_c, 12, 59, 127
2, 430881, Note_on_c, 12, 47, 127
2, 430881, Note_on_c, 7, 79, 127
2, 430974, Note_off_c, 7, 79, 127
2, 430977, Note_on_c, 6, 78, 127
2, 431056, Note_off_c, 3, 75, 127
2, 431070, Note_off_c, 6, 78, 127
2, 431072, Note_on_c, 4, 76, 127
2, 431261, Note_off_c, 4, 76, 127
2, 431261, Note_off_c, 12, 47, 127
2, 431264, Note_on_c, 4, 52, 127
2, 431264, Note_on_c, 4, 76, 127
2, 431647, Note_on_c, 4, 40, 127
2, 432031, Note_on_c, 12, 47, 127
2, 432413, Note_off_c, 12, 47, 127
2, 432414, Note_off_c, 4, 52, 127
2, 432415, Note_on_c, 4, 52, 127
2, 432415, Note_on_c, 12, 71, 127
2, 432415, Note_on_c, 7, 67, 127
2, 434322, Note_off_c, 4, 76, 127
2, 434705, Note_off_c, 4, 40, 127
2, 435867, Note_off_c, 7, 67, 127
2, 435867, Note_off_c, 12, 71, 127
2, 435867, Note_off_c, 4, 52, 127
2, 435869, Note_on_c, 4, 64, 127
2, 435869, Note_on_c, 12, 71, 127
2, 435869, Note_on_c, 7, 67, 127
2, 436251, Note_off_c, 12, 71, 127
2, 436253, Note_on_c, 10, 69, 127
2, 436442, Note_off_c, 10, 69, 127
2, 436444, Note_on_c, 12, 71, 127
2, 436627, Note_off_c, 7, 67, 127
2, 436633, Note_off_c, 12, 71, 127
2, 436633, Note_off_c, 4, 64, 127
2, 436635, Note_on_c, 4, 52, 127
2, 436635, Note_on_c, 0, 72, 127
2, 436635, Note_on_c, 10, 69, 127
2, 437017, Note_off_c, 10, 69, 127
2, 437017, Note_off_c, 0, 72, 127
2, 437019, Note_on_c, 12, 71, 127
2, 437019, Note_on_c, 7, 67, 127
2, 437401, Note_off_c, 7, 67, 127
2, 437401, Note_off_c, 12, 71, 127
2, 437401, Note_off_c, 4, 52, 127
2, 437403, Note_on_c, 10, 57, 127
2, 437403, Note_on_c, 6, 66, 127
2, 437403, Note_on_c, 10, 69, 127
2, 437785, Note_off_c, 10, 69, 127
2, 437785, Note_off_c, 6, 66, 127
2, 437787, Note_on_c, 4, 64, 127
2, 437787, Note_on_c, 7, 67, 127
2, 438169, Note_off_c, 7, 67, 127
2, 438169, Note_off_c, 4, 64, 127
2, 438169, Note_off_c, 10, 57, 127
2, 438171, Note_on_c, 12, 59, 127
2, 438171, Note_on_c, 6, 66, 127
2, 438171, Note_on_c, 3, 63, 127
2, 438360, Note_off_c, 6, 66, 127
2, 438362, Note_on_c, 10, 69, 127
2, 438551, Note_off_c, 10, 69, 127
2, 438551, Note_off_c, 12, 59, 127
2, 438554, Note_on_c, 12, 47, 127
2, 438554, Note_on_c, 7, 67, 127
2, 438743, Note_off_c, 7, 67, 127
2, 438745, Note_on_c, 6, 66, 127
2, 438927, Note_off_c, 3, 63, 127
2, 438934, Note_off_c, 6, 66, 127
2, 438934, Note_off_c, 12, 47, 127
2, 438936, Note_on_c, 4, 52, 127
2, 438936, Note_on_c, 7, 67, 127
2, 438936, Note_on_c, 4, 64, 127
2, 439318, Note_off_c, 4, 52, 127
2, 439320, Note_on_c, 6, 54, 127
2, 439702, Note_off_c, 6, 54, 127
2, 439702, Note_off_c, 4, 64, 127
2, 439702, Note_off_c, 7, 67, 127
2, 439704, Note_on_c, 7, 55, 127
2, 439704, Note_on_c, 4, 64, 127
2, 439704, Note_on_c, 12, 59, 127
2, 440083, Note_off_c, 12, 59, 127
2, 440084, Note_off_c, 7, 55, 127
2, 440086, Note_on_c, 10, 57, 127
2, 440468, Note_off_c, 10, 57, 127
2, 440468, Note_off_c, 4, 64, 127
2, 440470, Note_on_c, 12, 59, 127
2, 440470, Note_on_c, 7, 67, 127
2, 440470, Note_on_c, 2, 74, 127
2, 440852, Note_off_c, 2, 74, 127
2, 440854, Note_on_c, 0, 72, 127
2, 441043, Note_off_c, 0, 72, 127
2, 441045, Note_on_c, 2, 74, 127
2, 441228, Note_off_c, 7, 67, 127
2, 441234, Note_off_c, 2, 74, 127
2, 441234, Note_off_c, 12, 59, 127
2, 441236, Note_on_c, 0, 60, 127
2, 441236, Note_on_c, 7, 67, 127
2, 441236, Note_on_c, 4, 76, 127
2, 441618, Note_off_c, 4, 76, 127
2, 441618, Note_off_c, 7, 67, 127
2, 441620, Note_on_c, 2, 74, 127
2, 441620, Note_on_c, 12, 71, 127
2, 442002, Note_off_c, 12, 71, 127
2, 442002, Note_off_c, 2, 74, 127
2, 442002, Note_off_c, 0, 60, 127
2, 442004, Note_on_c, 0, 48, 127
2, 442004, Note_on_c, 10, 69, 127
2, 442004, Note_on_c, 0, 72, 127
2, 442386, Note_off_c, 0, 72, 127
2, 442386, Note_off_c, 10, 69, 127
2, 442388, Note_on_c, 12, 71, 127
2, 442388, Note_on_c, 7, 67, 127
2, 442770, Note_off_c, 7, 67, 127
2, 442770, Note_off_c, 12, 71, 127
2, 442770, Note_off_c, 0, 48, 127
2, 442772, Note_on_c, 2, 50, 127
2, 442772, Note_on_c, 10, 69, 127
2, 442772, Note_on_c, 6, 66, 127
2, 442961, Note_off_c, 10, 69, 127
2, 442963, Note_on_c, 0, 72, 127
2, 443152, Note_off_c, 0, 72, 127
2, 443152, Note_off_c, 2, 50, 127
2, 443154, Note_on_c, 2, 38, 127
2, 443154, Note_on_c, 12, 71, 127
2, 443343, Note_off_c, 12, 71, 127
2, 443346, Note_on_c, 10, 69, 127
2, 443528, Note_off_c, 6, 66, 127
2, 443534, Note_off_c, 2, 38, 127
2, 443535, Note_off_c, 10, 69, 127
2, 443537, Note_on_c, 7, 43, 127
2, 443537, Note_on_c, 7, 67, 127
2, 444112, Note_on_c, 12, 71, 127
2, 444301, Note_off_c, 12, 71, 127
2, 444303, Note_on_c, 4, 76, 127
2, 444685, Note_off_c, 7, 67, 127
2, 444685, Note_off_c, 7, 43, 127
2, 444880, Note_on_c, 7, 55, 127
2, 444880, Note_on_c, 12, 71, 127
2, 445069, Note_off_c, 12, 71, 127
2, 445069, Note_off_c, 7, 55, 127
2, 445071, Note_on_c, 6, 54, 127
2, 445071, Note_on_c, 10, 69, 127
2, 445453, Note_off_c, 6, 54, 127
2, 445453, Note_off_c, 4, 76, 127
2, 445455, Note_on_c, 7, 55, 127
2, 445455, Note_on_c, 2, 74, 127
2, 445644, Note_off_c, 2, 74, 127
2, 445646, Note_on_c, 1, 73, 127
2, 445835, Note_off_c, 1, 73, 127
2, 445835, Note_off_c, 7, 55, 127
2, 445837, Note_on_c, 6, 54, 127
2, 445837, Note_on_c, 2, 74, 127
2, 446219, Note_off_c, 2, 74, 127
2, 446219, Note_off_c, 6, 54, 127
2, 446219, Note_off_c, 10, 69, 127
2, 446221, Note_on_c, 4, 52, 127
2, 446221, Note_on_c, 4, 76, 127
2, 446221, Note_on_c, 12, 71, 127
2, 446410, Note_off_c, 12, 71, 127
2, 446412, Note_on_c, 1, 73, 127
2, 446600, Note_off_c, 4, 76, 127
2, 446601, Note_off_c, 1, 73, 127
2, 446601, Note_off_c, 4, 52, 127
2, 446603, Note_on_c, 2, 50, 127
2, 446603, Note_on_c, 2, 74, 127
2, 446603, Note_on_c, 6, 78, 127
2, 446985, Note_off_c, 2, 74, 127
2, 446985, Note_off_c, 2, 50, 127
2, 446987, Note_on_c, 4, 52, 127
2, 446987, Note_on_c, 1, 73, 127
2, 447176, Note_off_c, 4, 52, 127
2, 447178, Note_on_c, 6, 54, 127
2, 447367, Note_off_c, 6, 54, 127
2, 447367, Note_off_c, 1, 73, 127
2, 447370, Note_on_c, 7, 55, 127
2, 447370, Note_on_c, 12, 71, 127
2, 447751, Note_off_c, 6, 78, 127
2, 447752, Note_off_c, 7, 55, 127
2, 447754, Note_on_c, 10, 57, 127
2, 447754, Note_on_c, 4, 76, 127
2, 447943, Note_off_c, 4, 76, 127
2, 447945, Note_on_c, 3, 75, 127
2, 448134, Note_off_c, 3, 75, 127
2, 448134, Note_off_c, 10, 57, 127
2, 448136, Note_on_c, 7, 55, 127
2, 448136, Note_on_c, 4, 76, 127
2, 448518, Note_off_c, 4, 76, 127
2, 448518, Note_off_c, 7, 55, 127
2, 448518, Note_off_c, 12, 71, 127
2, 448520, Note_on_c, 6, 54, 127
2, 448520, Note_on_c, 6, 78, 127
2, 448520, Note_on_c, 1, 73, 127
2, 448709, Note_off_c, 1, 73, 127
2, 448711, Note_on_c, 3, 75, 127
2, 448899, Note_off_c, 6, 78, 127
2, 448900, Note_off_c, 3, 75, 127
2, 448900, Note_off_c, 6, 54, 127
2, 448902, Note_on_c, 4, 52, 127
2, 448902, Note_on_c, 4, 76, 127
2, 448902, Note_on_c, 7, 79, 127
2, 449091, Note_off_c, 7, 79, 127
2, 449093, Note_on_c, 6, 78, 127
2, 449281, Note_off_c, 4, 76, 127
2, 449282, Note_off_c, 6, 78, 127
2, 449282, Note_off_c, 4, 52, 127
2, 449284, Note_on_c, 10, 57, 127
2, 449284, Note_on_c, 1, 73, 127
2, 449284, Note_on_c, 4, 76, 127
2, 449473, Note_off_c, 4, 76, 127
2, 449476, Note_on_c, 7, 79, 127
2, 449663, Note_off_c, 1, 73, 127
2, 449664, Note_off_c, 10, 57, 127
2, 449665, Note_off_c, 7, 79, 127
2, 449667, Note_on_c, 2, 50, 127
2, 449667, Note_on_c, 2, 74, 127
2, 449667, Note_on_c, 6, 78, 127
2, 449856, Note_off_c, 6, 78, 127
2, 449858, Note_on_c, 7, 79, 127
2, 450047, Note_off_c, 7, 79, 127
2, 450047, Note_off_c, 2, 50, 127
2, 450049, Note_on_c, 12, 47, 127
2, 450049, Note_on_c, 4, 76, 127
2, 450238, Note_off_c, 4, 76, 127
2, 450240, Note_on_c, 6, 78, 127
2, 450423, Note_off_c, 2, 74, 127
2, 450429, Note_off_c, 6, 78, 127
2, 450429, Note_off_c, 12, 47, 127
2, 450431, Note_on_c, 4, 52, 127
2, 450431, Note_on_c, 7, 79, 127
2, 450431, Note_on_c, 4, 76, 127
2, 450813, Note_off_c, 4, 76, 127
2, 450813, Note_off_c, 7, 79, 127
2, 450815, Note_on_c, 6, 78, 127
2, 450815, Note_on_c, 2, 74, 127
2, 451197, Note_off_c, 2, 74, 127
2, 451197, Note_off_c, 6, 78, 127
2, 451197, Note_off_c, 4, 52, 127
2, 451199, Note_on_c, 4, 40, 127
2, 451199, Note_on_c, 4, 76, 127
2, 451199, Note_on_c, 1, 73, 127
2, 451581, Note_off_c, 1, 73, 127
2, 451581, Note_off_c, 4, 76, 127
2, 451583, Note_on_c, 2, 74, 127
2, 451583, Note_on_c, 12, 71, 127
2, 451965, Note_off_c, 12, 71, 127
2, 451965, Note_off_c, 2, 74, 127
2, 451965, Note_off_c, 4, 40, 127
2, 451967, Note_on_c, 6, 42, 127
2, 451967, Note_on_c, 11, 70, 127
2, 451967, Note_on_c, 1, 73, 127
2, 452156, Note_off_c, 1, 73, 127
2, 452158, Note_on_c, 12, 71, 127
2, 452347, Note_off_c, 12, 71, 127
2, 452349, Note_on_c, 1, 73, 127
2, 452538, Note_off_c, 1, 73, 127
2, 452541, Note_on_c, 2, 74, 127
2, 452723, Note_off_c, 11, 70, 127
2, 452730, Note_off_c, 2, 74, 127
2, 452730, Note_off_c, 6, 42, 127
2, 452732, Note_on_c, 12, 47, 127
2, 452732, Note_on_c, 12, 71, 127
2, 453116, Note_on_c, 6, 66, 127
2, 453498, Note_off_c, 6, 66, 127
2, 453500, Note_on_c, 6, 54, 127
2, 453500, Note_on_c, 3, 63, 127
2, 453689, Note_off_c, 3, 63, 127
2, 453691, Note_on_c, 1, 61, 127
2, 453880, Note_off_c, 1, 61, 127
2, 453882, Note_on_c, 3, 63, 127
2, 454264, Note_off_c, 3, 63, 127
2, 454264, Note_off_c, 6, 54, 127
2, 454264, Note_off_c, 12, 71, 127
2, 454264, Note_off_c, 12, 47, 127
2, 454266, Note_on_c, 12, 59, 127
2, 454266, Note_on_c, 6, 78, 127
2, 454266, Note_on_c, 3, 75, 127
2, 454455, Note_off_c, 6, 78, 127
2, 454457, Note_on_c, 7, 79, 127
2, 454646, Note_off_c, 7, 79, 127
2, 454646, Note_off_c, 12, 59, 127
2, 454648, Note_on_c, 12, 47, 127
2, 454648, Note_on_c, 10, 81, 127
2, 454837, Note_off_c, 10, 81, 127
2, 454839, Note_on_c, 7, 79, 127
2, 455022, Note_off_c, 3, 75, 127
2, 455028, Note_off_c, 7, 79, 127
2, 455031, Note_on_c, 6, 78, 127
2, 455412, Note_off_c, 12, 47, 127
2, 455413, Note_off_c, 6, 78, 127
2, 455415, Note_on_c, 10, 69, 127
2, 455415, Note_on_c, 3, 75, 127
2, 455415, Note_on_c, 12, 71, 127
2, 455797, Note_off_c, 12, 71, 127
2, 455797, Note_off_c, 3, 75, 127
2, 455797, Note_off_c, 10, 69, 127
2, 455798, Note_on_c, 7, 67, 127
2, 455798, Note_on_c, 4, 76, 127
2, 455798, Note_on_c, 1, 73, 127
2, 456180, Note_off_c, 1, 73, 127
2, 456180, Note_off_c, 4, 76, 127
2, 456180, Note_off_c, 7, 67, 127
2, 456182, Note_on_c, 6, 66, 127
2, 456182, Note_on_c, 6, 78, 127
2, 456182, Note_on_c, 3, 75, 127
2, 456564, Note_off_c, 3, 75, 127
2, 456564, Note_off_c, 6, 78, 127
2, 456564, Note_off_c, 6, 66, 127
2, 456566, Note_on_c, 4, 64, 127
2, 456566, Note_on_c, 7, 79, 127
2, 456566, Note_on_c, 4, 76, 127
2, 456755, Note_off_c, 7, 79, 127
2, 456755, Note_off_c, 4, 64, 127
2, 456757, Note_on_c, 6, 66, 127
2, 456757, Note_on_c, 10, 81, 127
2, 456946, Note_off_c, 10, 81, 127
2, 456946, Note_off_c, 6, 66, 127
2, 456949, Note_on_c, 7, 67, 127
2, 456949, Note_on_c, 12, 83, 127
2, 457138, Note_off_c, 12, 83, 127
2, 457138, Note_off_c, 7, 67, 127
2, 457140, Note_on_c, 6, 66, 127
2, 457140, Note_on_c, 10, 81, 127
2, 457322, Note_off_c, 4, 76, 127
2, 457329, Note_off_c, 10, 81, 127
2, 457329, Note_off_c, 6, 66, 127
2, 457331, Note_on_c, 4, 64, 127
2, 457331, Note_on_c, 7, 79, 127
2, 457331, Note_on_c, 4, 76, 127
2, 457713, Note_off_c, 4, 64, 127
2, 457715, Note_on_c, 2, 62, 127
2, 458097, Note_off_c, 2, 62, 127
2, 458099, Note_on_c, 1, 61, 127
2, 458481, Note_off_c, 1, 61, 127
2, 458483, Note_on_c, 12, 59, 127
2, 458865, Note_off_c, 12, 59, 127
2, 458865, Note_off_c, 4, 76, 127
2, 458865, Note_off_c, 7, 79, 127
2, 458867, Note_on_c, 10, 57, 127
2, 458867, Note_on_c, 1, 73, 127
2, 459056, Note_off_c, 10, 57, 127
2, 459058, Note_on_c, 12, 59, 127
2, 459058, Note_on_c, 6, 78, 127
2, 459247, Note_off_c, 6, 78, 127
2, 459247, Note_off_c, 12, 59, 127
2, 459249, Note_on_c, 1, 61, 127
2, 459249, Note_on_c, 4, 76, 127
2, 459438, Note_off_c, 4, 76, 127
2, 459438, Note_off_c, 1, 61, 127
2, 459440, Note_on_c, 12, 59, 127
2, 459440, Note_on_c, 6, 78, 127
2, 459623, Note_off_c, 1, 73, 127
2, 459629, Note_off_c, 6, 78, 127
2, 459629, Note_off_c, 12, 59, 127
2, 459631, Note_on_c, 10, 57, 127
2, 459631, Note_on_c, 7, 79, 127
2, 460013, Note_off_c, 7, 79, 127
2, 460013, Note_off_c, 10, 57, 127
2, 460015, Note_on_c, 10, 57, 127
2, 460015, Note_on_c, 7, 55, 127
2, 460015, Note_on_c, 12, 83, 127
2, 460015, Note_on_c, 1, 73, 127
2, 460397, Note_off_c, 1, 73, 127
2, 460397, Note_off_c, 12, 83, 127
2, 460397, Note_off_c, 7, 55, 127
2, 460397, Note_off_c, 10, 57, 127
2, 460399, Note_on_c, 6, 54, 127
2, 460399, Note_on_c, 12, 59, 127
2, 460399, Note_on_c, 10, 81, 127
2, 460399, Note_on_c, 2, 74, 127
2, 460781, Note_off_c, 2, 74, 127
2, 460781, Note_off_c, 10, 81, 127
2, 460781, Note_off_c, 12, 59, 127
2, 460781, Note_off_c, 6, 54, 127
2, 460783, Note_on_c, 4, 52, 127
2, 460783, Note_on_c, 1, 61, 127
2, 460783, Note_on_c, 7, 79, 127
2, 460783, Note_on_c, 4, 76, 127
2, 461165, Note_off_c, 4, 76, 127
2, 461165, Note_off_c, 7, 79, 127
2, 461165, Note_off_c, 1, 61, 127
2, 461165, Note_off_c, 4, 52, 127
2, 461167, Note_on_c, 2, 50, 127
2, 461167, Note_on_c, 2, 62, 127
2, 461167, Note_on_c, 10, 69, 127
2, 461167, Note_on_c, 6, 78, 127
2, 461356, Note_off_c, 6, 78, 127
2, 461356, Note_off_c, 2, 50, 127
2, 461358, Note_on_c, 4, 52, 127
2, 461358, Note_on_c, 4, 76, 127
2, 461547, Note_off_c, 4, 76, 127
2, 461547, Note_off_c, 4, 52, 127
2, 461549, Note_on_c, 6, 54, 127
2, 461549, Note_on_c, 2, 74, 127
2, 461738, Note_off_c, 2, 74, 127
2, 461738, Note_off_c, 6, 54, 127
2, 461741, Note_on_c, 4, 52, 127
2, 461741, Note_on_c, 4, 76, 127
2, 461923, Note_off_c, 10, 69, 127
2, 461923, Note_off_c, 2, 62, 127
2, 461930, Note_off_c, 4, 76, 127
2, 461930, Note_off_c, 4, 52, 127
2, 461932, Note_on_c, 2, 50, 127
2, 461932, Note_on_c, 6, 78, 127
2, 461932, Note_on_c, 10, 69, 127
2, 462314, Note_off_c, 2, 50, 127
2, 462316, Note_on_c, 0, 48, 127
2, 462698, Note_off_c, 0, 48, 127
2, 462700, Note_on_c, 12, 47, 127
2, 463082, Note_off_c, 12, 47, 127
2, 463084, Note_on_c, 10, 45, 127
2, 463466, Note_off_c, 10, 45, 127
2, 463466, Note_off_c, 10, 69, 127
2, 463468, Note_on_c, 8, 44, 127
2, 463468, Note_on_c, 12, 71, 127
2, 463850, Note_off_c, 8, 44, 127
2, 463851, Note_off_c, 6, 78, 127
2, 463851, Note_on_c, 8, 44, 127
2, 463851, Note_on_c, 2, 50, 127
2, 463851, Note_on_c, 5, 77, 127
2, 464040, Note_off_c, 5, 77, 127
2, 464043, Note_on_c, 4, 76, 127
2, 464226, Note_off_c, 12, 71, 127
2, 464231, Note_off_c, 2, 50, 127
2, 464231, Note_off_c, 8, 44, 127
2, 464232, Note_off_c, 4, 76, 127
2, 464234, Note_on_c, 8, 44, 127
2, 464234, Note_on_c, 2, 50, 127
2, 464234, Note_on_c, 5, 77, 127
2, 464616, Note_off_c, 5, 77, 127
2, 464616, Note_off_c, 2, 50, 127
2, 464616, Note_off_c, 8, 44, 127
2, 464618, Note_on_c, 2, 50, 127
2, 464618, Note_on_c, 8, 44, 127
2, 464618, Note_on_c, 12, 83, 127
2, 465000, Note_off_c, 12, 83, 127
2, 465000, Note_off_c, 8, 44, 127
2, 465000, Note_off_c, 2, 50, 127
2, 465002, Note_on_c, 2, 50, 127
2, 465002, Note_on_c, 8, 44, 127
2, 465002, Note_on_c, 10, 81, 127
2, 465191, Note_off_c, 10, 81, 127
2, 465193, Note_on_c, 8, 80, 127
2, 465382, Note_off_c, 8, 80, 127
2, 465382, Note_off_c, 8, 44, 127
2, 465382, Note_off_c, 2, 50, 127
2, 465384, Note_on_c, 4, 52, 127
2, 465384, Note_on_c, 8, 44, 127
2, 465384, Note_on_c, 6, 78, 127
2, 465573, Note_off_c, 6, 78, 127
2, 465575, Note_on_c, 4, 76, 127
2, 465764, Note_off_c, 4, 76, 127
2, 465764, Note_off_c, 8, 44, 127
2, 465764, Note_off_c, 4, 52, 127
2, 465766, Note_on_c, 8, 44, 127
2, 465766, Note_on_c, 5, 53, 127
2, 465766, Note_on_c, 2, 74, 127
2, 465766, Note_on_c, 12, 71, 127
2, 465955, Note_off_c, 2, 74, 127
2, 465957, Note_on_c, 5, 77, 127
2, 466146, Note_off_c, 5, 77, 127
2, 466146, Note_off_c, 5, 53, 127
2, 466146, Note_off_c, 8, 44, 127
2, 466149, Note_on_c, 8, 44, 127
2, 466149, Note_on_c, 1, 49, 127
2, 466149, Note_on_c, 4, 76, 127
2, 466524, Note_off_c, 12, 71, 127
2, 466531, Note_off_c, 4, 76, 127
2, 466531, Note_off_c, 1, 49, 127
2, 466531, Note_off_c, 8, 44, 127
2, 466533, Note_on_c, 2, 50, 127
2, 466533, Note_on_c, 8, 44, 127
2, 466533, Note_on_c, 5, 77, 127
2, 466915, Note_off_c, 5, 77, 127
2, 466915, Note_off_c, 8, 44, 127
2, 466915, Note_off_c, 2, 50, 127
2, 466917, Note_on_c, 8, 44, 127
2, 466917, Note_on_c, 4, 52, 127
2, 466917, Note_on_c, 2, 74, 127
2, 467106, Note_off_c, 2, 74, 127
2, 467108, Note_on_c, 1, 73, 127
2, 467297, Note_off_c, 1, 73, 127
2, 467297, Note_off_c, 4, 52, 127
2, 467297, Note_off_c, 8, 44, 127
2, 467299, Note_on_c, 8, 44, 127
2, 467299, Note_on_c, 5, 53, 127
2, 467299, Note_on_c, 2, 74, 127
2, 467681, Note_off_c, 2, 74, 127
2, 467681, Note_off_c, 5, 53, 127
2, 467681, Note_off_c, 8, 44, 127
2, 467683, Note_on_c, 8, 44, 127
2, 467683, Note_on_c, 2, 74, 127
2, 467683, Note_on_c, 12, 71, 127
2, 467776, Note_off_c, 2, 74, 127
2, 467778, Note_on_c, 4, 76, 127
2, 467871, Note_off_c, 4, 76, 127
2, 467874, Note_on_c, 5, 77, 127
2, 468062, Note_off_c, 12, 71, 127
2, 468063, Note_off_c, 5, 77, 127
2, 468063, Note_off_c, 8, 44, 127
2, 468065, Note_on_c, 10, 45, 127
2, 468065, Note_on_c, 4, 76, 127
2, 468065, Note_on_c, 0, 72, 127
2, 468447, Note_off_c, 4, 76, 127
2, 468447, Note_off_c, 10, 45, 127
2, 468449, Note_on_c, 10, 57, 127
2, 468449, Note_on_c, 2, 74, 127
2, 468638, Note_off_c, 2, 74, 127
2, 468640, Note_on_c, 4, 76, 127
2, 468823, Note_off_c, 0, 72, 127
2, 468829, Note_off_c, 4, 76, 127
2, 468829, Note_off_c, 10, 57, 127
2, 468831, Note_on_c, 2, 50, 127
2, 468831, Note_on_c, 5, 77, 127
2, 468831, Note_on_c, 2, 74, 127
2, 469213, Note_off_c, 2, 74, 127
2, 469213, Note_off_c, 5, 77, 127
2, 469213, Note_off_c, 2, 50, 127
2, 469215, Note_on_c, 4, 52, 127
2, 469215, Note_on_c, 4, 76, 127
2, 469215, Note_on_c, 0, 72, 127
2, 469597, Note_off_c, 0, 72, 127
2, 469597, Note_off_c, 4, 76, 127
2, 469597, Note_off_c, 4, 52, 127
2, 469599, Note_on_c, 5, 53, 127
2, 469599, Note_on_c, 2, 74, 127
2, 469599, Note_on_c, 12, 71, 127
2, 469981, Note_off_c, 12, 71, 127
2, 469981, Note_off_c, 2, 74, 127
2, 469981, Note_off_c, 5, 53, 127
2, 469983, Note_on_c, 2, 50, 127
2, 469983, Note_on_c, 10, 69, 127
2, 469983, Note_on_c, 0, 72, 127
2, 470365, Note_off_c, 0, 72, 127
2, 470365, Note_off_c, 10, 69, 127
2, 470365, Note_off_c, 2, 50, 127
2, 470367, Note_on_c, 4, 52, 127
2, 470367, Note_on_c, 8, 68, 127
2, 470367, Note_on_c, 12, 71, 127
2, 470556, Note_off_c, 12, 71, 127
2, 470558, Note_on_c, 2, 74, 127
2, 470747, Note_off_c, 2, 74, 127
2, 470747, Note_off_c, 4, 52, 127
2, 470749, Note_on_c, 4, 40, 127
2, 470749, Note_on_c, 0, 72, 127
2, 470938, Note_off_c, 0, 72, 127
2, 470941, Note_on_c, 12, 71, 127
2, 471123, Note_off_c, 8, 68, 127
2, 471129, Note_off_c, 4, 40, 127
2, 471130, Note_off_c, 12, 71, 127
2, 471132, Note_on_c, 10, 45, 127
2, 471132, Note_on_c, 10, 69, 127
2, 471514, Note_off_c, 10, 45, 127
2, 471516, Note_on_c, 7, 43, 127
2, 471898, Note_off_c, 7, 43, 127
2, 471900, Note_on_c, 6, 42, 127
2, 472282, Note_off_c, 6, 42, 127
2, 472284, Note_on_c, 4, 40, 127
2, 472666, Note_off_c, 4, 40, 127
2, 472666, Note_off_c, 10, 69, 127
2, 472668, Note_on_c, 2, 38, 127
2, 472668, Note_on_c, 10, 69, 127
2, 472668, Note_on_c, 6, 66, 127
2, 472857, Note_off_c, 10, 69, 127
2, 472859, Note_on_c, 7, 67, 127
2, 472946, Note_off_c, 6, 66, 127
2, 473048, Note_off_c, 7, 67, 127
2, 473050, Note_on_c, 6, 66, 127
2, 473239, Note_off_c, 6, 66, 127
2, 473241, Note_on_c, 7, 67, 127
2, 473430, Note_off_c, 7, 67, 127
2, 473432, Note_on_c, 10, 69, 127
2, 473621, Note_off_c, 10, 69, 127
2, 473623, Note_on_c, 12, 71, 127
2, 473812, Note_off_c, 12, 71, 127
2, 473813, Note_off_c, 2, 38, 127
2, 473814, Note_on_c, 2, 50, 127
2, 473814, Note_on_c, 0, 72, 127
2, 473814, Note_on_c, 6, 66, 127
2, 474196, Note_off_c, 6, 66, 127
2, 474196, Note_off_c, 0, 72, 127
2, 474196, Note_off_c, 2, 50, 127
2, 474198, Note_on_c, 4, 52, 127
2, 474198, Note_on_c, 7, 67, 127
2, 474198, Note_on_c, 0, 72, 127
2, 474580, Note_off_c, 7, 67, 127
2, 474580, Note_off_c, 4, 52, 127
2, 474582, Note_on_c, 6, 54, 127
2, 474582, Note_on_c, 10, 69, 127
2, 474964, Note_off_c, 10, 69, 127
2, 474964, Note_off_c, 6, 54, 127
2, 474966, Note_on_c, 7, 55, 127
2, 474966, Note_on_c, 2, 62, 127
2, 475348, Note_off_c, 7, 55, 127
2, 475348, Note_off_c, 0, 72, 127
2, 475350, Note_on_c, 10, 57, 127
2, 475350, Note_on_c, 12, 71, 127
2, 475539, Note_off_c, 12, 71, 127
2, 475541, Note_on_c, 10, 69, 127
2, 475724, Note_off_c, 2, 62, 127
2, 475730, Note_off_c, 10, 69, 127
2, 475730, Note_off_c, 10, 57, 127
2, 475733, Note_on_c, 7, 55, 127
2, 475733, Note_on_c, 12, 71, 127
2, 475922, Note_off_c, 12, 71, 127
2, 475924, Note_on_c, 1, 73, 127
2, 476113, Note_off_c, 1, 73, 127
2, 476113, Note_off_c, 7, 55, 127
2, 476115, Note_on_c, 6, 54, 127
2, 476115, Note_on_c, 2, 74, 127
2, 476115, Note_on_c, 10, 69, 127
2, 476497, Note_off_c, 10, 69, 127
2, 476497, Note_off_c, 2, 74, 127
2, 476497, Note_off_c, 6, 54, 127
2, 476499, Note_on_c, 4, 52, 127
2, 476499, Note_on_c, 2, 74, 127
2, 476499, Note_on_c, 8, 68, 127
2, 476881, Note_off_c, 8, 68, 127
2, 476881, Note_off_c, 4, 52, 127
2, 476883, Note_on_c, 6, 54, 127
2, 476883, Note_on_c, 10, 69, 127
2, 477072, Note_off_c, 10, 69, 127
2, 477072, Note_off_c, 6, 54, 127
2, 477074, Note_on_c, 8, 56, 127
2, 477074, Note_on_c, 12, 71, 127
2, 477257, Note_off_c, 2, 74, 127
2, 477263, Note_off_c, 12, 71, 127
2, 477263, Note_off_c, 8, 56, 127
2, 477265, Note_on_c, 10, 57, 127
2, 477265, Note_on_c, 4, 64, 127
2, 477265, Note_on_c, 1, 73, 127
2, 477454, Note_off_c, 1, 73, 127
2, 477456, Note_on_c, 12, 71, 127
2, 477645, Note_off_c, 12, 71, 127
2, 477645, Note_off_c, 10, 57, 127
2, 477647, Note_on_c, 12, 59, 127
2, 477647, Note_on_c, 10, 69, 127
2, 477836, Note_off_c, 10, 69, 127
2, 477839, Note_on_c, 12, 71, 127
2, 478021, Note_off_c, 4, 64, 127
2, 478027, Note_off_c, 12, 59, 127
2, 478028, Note_off_c, 12, 71, 127
2, 478030, Note_on_c, 10, 57, 127
2, 478030, Note_on_c, 1, 73, 127
2, 478219, Note_off_c, 1, 73, 127
2, 478221, Note_on_c, 3, 75, 127
2, 478410, Note_off_c, 3, 75, 127
2, 478410, Note_off_c, 10, 57, 127
2, 478412, Note_on_c, 7, 55, 127
2, 478412, Note_on_c, 12, 71, 127
2, 478412, Note_on_c, 4, 76, 127
2, 478794, Note_off_c, 4, 76, 127
2, 478794, Note_off_c, 12, 71, 127
2, 478794, Note_off_c, 7, 55, 127
2, 478796, Note_on_c, 6, 54, 127
2, 478796, Note_on_c, 11, 70, 127
2, 478796, Note_on_c, 4, 76, 127
2, 479178, Note_off_c, 11, 70, 127
2, 479178, Note_off_c, 6, 54, 127
2, 479180, Note_on_c, 8, 56, 127
2, 479180, Note_on_c, 12, 71, 127
2, 479369, Note_off_c, 12, 71, 127
2, 479369, Note_off_c, 8, 56, 127
2, 479371, Note_on_c, 11, 58, 127
2, 479371, Note_on_c, 1, 73, 127
2, 479560, Note_off_c, 1, 73, 127
2, 479560, Note_off_c, 11, 58, 127
2, 479562, Note_on_c, 12, 59, 127
2, 479562, Note_on_c, 6, 66, 127
2, 479944, Note_off_c, 12, 59, 127
2, 479944, Note_off_c, 4, 76, 127
2, 479946, Note_on_c, 12, 47, 127
2, 479946, Note_on_c, 3, 75, 127
2, 480135, Note_off_c, 3, 75, 127
2, 480137, Note_on_c, 1, 73, 127
2, 480320, Note_off_c, 6, 66, 127
2, 480326, Note_off_c, 1, 73, 127
2, 480326, Note_off_c, 12, 47, 127
2, 480328, Note_on_c, 12, 59, 127
2, 480328, Note_on_c, 3, 75, 127
2, 480517, Note_off_c, 3, 75, 127
2, 480520, Note_on_c, 4, 76, 127
2, 480708, Note_off_c, 12, 59, 127
2, 480709, Note_off_c, 4, 76, 127
2, 480711, Note_on_c, 10, 57, 127
2, 480711, Note_on_c, 0, 72, 127
2, 480711, Note_on_c, 6, 78, 127
2, 481093, Note_off_c, 6, 78, 127
2, 481093, Note_off_c, 0, 72, 127
2, 481093, Note_off_c, 10, 57, 127
2, 481095, Note_on_c, 7, 55, 127
2, 481095, Note_on_c, 6, 78, 127
2, 481095, Note_on_c, 12, 71, 127
2, 481477, Note_off_c, 12, 71, 127
2, 481477, Note_off_c, 7, 55, 127
2, 481479, Note_on_c, 10, 57, 127
2, 481479, Note_on_c, 10, 69, 127
2, 481668, Note_off_c, 10, 57, 127
2, 481670, Note_on_c, 12, 59, 127
2, 481859, Note_off_c, 12, 59, 127
2, 481859, Note_off_c, 10, 69, 127
2, 481861, Note_on_c, 0, 60, 127
2, 481861, Note_on_c, 7, 67, 127
2, 482052, Note_off_c, 6, 78, 127
2, 482052, Note_on_c, 4, 76, 127
2, 482240, Note_off_c, 7, 67, 127
2, 482241, Note_off_c, 4, 76, 127
2, 482241, Note_off_c, 0, 60, 127
2, 482243, Note_on_c, 12, 59, 127
2, 482243, Note_on_c, 10, 69, 127
2, 482243, Note_on_c, 6, 78, 127
2, 482432, Note_off_c, 6, 78, 127
2, 482432, Note_off_c, 10, 69, 127
2, 482434, Note_on_c, 7, 79, 127
2, 482434, Note_on_c, 12, 71, 127
2, 482623, Note_off_c, 12, 71, 127
2, 482623, Note_off_c, 7, 79, 127
2, 482623, Note_off_c, 12, 59, 127
2, 482626, Note_on_c, 10, 57, 127
2, 482626, Note_on_c, 10, 81, 127
2, 482626, Note_on_c, 0, 72, 127
2, 483008, Note_off_c, 0, 72, 127
2, 483008, Note_off_c, 10, 81, 127
2, 483008, Note_off_c, 10, 57, 127
2, 483010, Note_on_c, 12, 59, 127
2, 483010, Note_on_c, 7, 79, 127
2, 483010, Note_on_c, 12, 71, 127
2, 483392, Note_off_c, 12, 71, 127
2, 483392, Note_off_c, 7, 79, 127
2, 483392, Note_off_c, 12, 59, 127
2, 483394, Note_on_c, 0, 60, 127
2, 483394, Note_on_c, 6, 78, 127
2, 483394, Note_on_c, 10, 69, 127
2, 483776, Note_off_c, 10, 69, 127
2, 483776, Note_off_c, 6, 78, 127
2, 483776, Note_off_c, 0, 60, 127
2, 483777, Note_on_c, 10, 57, 127
2, 483777, Note_on_c, 7, 67, 127
2, 483777, Note_on_c, 4, 76, 127
2, 484159, Note_off_c, 4, 76, 127
2, 484159, Note_off_c, 7, 67, 127
2, 484159, Note_off_c, 10, 57, 127
2, 484161, Note_on_c, 12, 59, 127
2, 484161, Note_on_c, 3, 75, 127
2, 484161, Note_on_c, 6, 66, 127
2, 484350, Note_off_c, 3, 75, 127
2, 484353, Note_on_c, 12, 71, 127
2, 484540, Note_off_c, 6, 66, 127
2, 484542, Note_off_c, 12, 71, 127
2, 484544, Note_on_c, 0, 72, 127
2, 484544, Note_on_c, 4, 64, 127
2, 484925, Note_off_c, 12, 59, 127
2, 484926, Note_off_c, 4, 64, 127
2, 484928, Note_on_c, 12, 47, 127
2, 484928, Note_on_c, 3, 63, 127
2, 485303, Note_off_c, 0, 72, 127
2, 485310, Note_off_c, 12, 47, 127
2, 485312, Note_on_c, 0, 48, 127
2, 485312, Note_on_c, 12, 71, 127
2, 485501, Note_off_c, 12, 71, 127
2, 485503, Note_on_c, 10, 69, 127
2, 485686, Note_off_c, 3, 63, 127
2, 485692, Note_off_c, 10, 69, 127
2, 485692, Note_off_c, 0, 48, 127
2, 485694, Note_on_c, 12, 47, 127
2, 485694, Note_on_c, 7, 67, 127
2, 486076, Note_off_c, 7, 67, 127
2, 486076, Note_off_c, 12, 47, 127
2, 486078, Note_on_c, 10, 45, 127
2, 486078, Note_on_c, 6, 66, 127
2, 486460, Note_off_c, 6, 66, 127
2, 486460, Note_off_c, 10, 45, 127
2, 486462, Note_on_c, 7, 43, 127
2, 486462, Note_on_c, 7, 67, 127
2, 486462, Note_on_c, 4, 64, 127
2, 486462, Note_on_c, 12, 71, 127
2, 486844, Note_off_c, 12, 71, 127
2, 486844, Note_off_c, 4, 64, 127
2, 486844, Note_off_c, 7, 67, 127
2, 486844, Note_off_c, 7, 43, 127
2, 486846, Note_on_c, 4, 40, 127
2, 486846, Note_on_c, 6, 66, 127
2, 486846, Note_on_c, 10, 69, 127
2, 487035, Note_off_c, 10, 69, 127
2, 487035, Note_off_c, 6, 66, 127
2, 487037, Note_on_c, 12, 71, 127
2, 487037, Note_on_c, 7, 67, 127
2, 487226, Note_off_c, 7, 67, 127
2, 487226, Note_off_c, 12, 71, 127
2, 487226, Note_off_c, 4, 40, 127
2, 487228, Note_on_c, 10, 45, 127
2, 487228, Note_on_c, 10, 69, 127
2, 487228, Note_on_c, 0, 72, 127
2, 487610, Note_off_c, 0, 72, 127
2, 487610, Note_off_c, 10, 69, 127
2, 487610, Note_off_c, 10, 45, 127
2, 487612, Note_on_c, 12, 47, 127
2, 487612, Note_on_c, 12, 71, 127
2, 487612, Note_on_c, 7, 67, 127
2, 487994, Note_off_c, 7, 67, 127
2, 487994, Note_off_c, 12, 71, 127
2, 487994, Note_off_c, 12, 47, 127
2, 487996, Note_on_c, 0, 48, 127
2, 487996, Note_on_c, 6, 66, 127
2, 487996, Note_on_c, 10, 69, 127
2, 488378, Note_off_c, 10, 69, 127
2, 488378, Note_off_c, 6, 66, 127
2, 488378, Note_off_c, 0, 48, 127
2, 488380, Note_on_c, 10, 45, 127
2, 488380, Note_on_c, 7, 67, 127
2, 488380, Note_on_c, 4, 64, 127
2, 488762, Note_off_c, 4, 64, 127
2, 488762, Note_off_c, 7, 67, 127
2, 488762, Note_off_c, 10, 45, 127
2, 488764, Note_on_c, 12, 47, 127
2, 488764, Note_on_c, 3, 63, 127
2, 488764, Note_on_c, 6, 66, 127
2, 488953, Note_off_c, 6, 66, 127
2, 488955, Note_on_c, 4, 64, 127
2, 489144, Note_off_c, 4, 64, 127
2, 489146, Note_on_c, 6, 66, 127
2, 489335, Note_off_c, 6, 66, 127
2, 489337, Note_on_c, 7, 67, 127
2, 489520, Note_off_c, 3, 63, 127
2, 489526, Note_off_c, 7, 67, 127
2, 489527, Note_off_c, 12, 47, 127
2, 489528, Note_on_c, 4, 40, 127
2, 489528, Note_on_c, 4, 64, 127
2, 489912, Note_on_c, 12, 59, 127
2, 490294, Note_off_c, 12, 59, 127
2, 490296, Note_on_c, 12, 47, 127
2, 490296, Note_on_c, 7, 55, 127
2, 492584, Note_off_c, 4, 64, 127
2, 492584, Note_off_c, 4, 40, 127
2, 492978, Note_off_c, 7, 55, 127
2, 492978, Note_off_c, 12, 47, 127
2, 492981, Note_on_c, 4, 64, 127
2, 492981, Note_on_c, 12, 71, 127
2, 493363, Note_off_c, 12, 71, 127
2, 493363, Note_off_c, 4, 64, 127
2, 493365, Note_on_c, 7, 55, 127
2, 493365, Note_on_c, 4, 76, 127
2, 493531, Note_off_c, 4, 76, 127
2, 493533, Note_on_c, 6, 78, 127
2, 493699, Note_off_c, 6, 78, 127
2, 493700, Note_off_c, 7, 55, 127
2, 493702, Note_on_c, 10, 57, 127
2, 493702, Note_on_c, 7, 79, 127
2, 494038, Note_off_c, 7, 79, 127
2, 494038, Note_off_c, 10, 57, 127
2, 494040, Note_on_c, 12, 59, 127
2, 494040, Note_on_c, 6, 78, 127
2, 494376, Note_off_c, 6, 78, 127
2, 494376, Note_off_c, 12, 59, 127
2, 494379, Note_on_c, 4, 52, 127
2, 494379, Note_on_c, 7, 79, 127
2, 494715, Note_off_c, 7, 79, 127
2, 494715, Note_off_c, 4, 52, 127
2, 494717, Note_on_c, 7, 55, 127
2, 494717, Note_on_c, 4, 76, 127
2, 494883, Note_off_c, 4, 76, 127
2, 494886, Note_on_c, 3, 75, 127
2, 495052, Note_off_c, 3, 75, 127
2, 495052, Note_off_c, 7, 55, 127
2, 495054, Note_on_c, 12, 59, 127
2, 495054, Note_on_c, 4, 76, 127
2, 495220, Note_off_c, 4, 76, 127
2, 495223, Note_on_c, 6, 78, 127
2, 495389, Note_off_c, 6, 78, 127
2, 495389, Note_off_c, 12, 59, 127
2, 495391, Note_on_c, 4, 64, 127
2, 495391, Note_on_c, 7, 79, 127
2, 495557, Note_off_c, 7, 79, 127
2, 495557, Note_off_c, 4, 64, 127
2, 495560, Note_on_c, 6, 66, 127
2, 495560, Note_on_c, 10, 81, 127
2, 495726, Note_off_c, 10, 81, 127
2, 495726, Note_off_c, 6, 66, 127
2, 495728, Note_on_c, 7, 67, 127
2, 495728, Note_on_c, 12, 83, 127
2, 495894, Note_off_c, 12, 83, 127
2, 495897, Note_on_c, 0, 84, 127
2, 496063, Note_off_c, 0, 84, 127
2, 496063, Note_off_c, 7, 67, 127
2, 496065, Note_on_c, 6, 66, 127
2, 496065, Note_on_c, 12, 83, 127
2, 496231, Note_off_c, 12, 83, 127
2, 496234, Note_on_c, 10, 81, 127
2, 496400, Note_off_c, 10, 81, 127
2, 496400, Note_off_c, 6, 66, 127
2, 496402, Note_on_c, 7, 67, 127
2, 496402, Note_on_c, 12, 83, 127
2, 496568, Note_off_c, 12, 83, 127
2, 496571, Note_on_c, 4, 76, 127
2, 496737, Note_off_c, 4, 76, 127
2, 496737, Note_off_c, 7, 67, 127
2, 496739, Note_on_c, 6, 66, 127
2, 496739, Note_on_c, 6, 78, 127
2, 496905, Note_off_c, 6, 78, 127
2, 496905, Note_off_c, 6, 66, 127
2, 496908, Note_on_c, 4, 64, 127
2, 496908, Note_on_c, 7, 79, 127
2, 497074, Note_off_c, 7, 79, 127
2, 497074, Note_off_c, 4, 64, 127
2, 497076, Note_on_c, 6, 66, 127
2, 497076, Note_on_c, 10, 81, 127
2, 497242, Note_off_c, 10, 81, 127
2, 497242, Note_off_c, 6, 66, 127
2, 497245, Note_on_c, 7, 67, 127
2, 497245, Note_on_c, 12, 83, 127
2, 497411, Note_off_c, 12, 83, 127
2, 497411, Note_off_c, 7, 67, 127
2, 497413, Note_on_c, 10, 69, 127
2, 497413, Note_on_c, 0, 84, 127
2, 497749, Note_off_c, 0, 84, 127
2, 497749, Note_off_c, 10, 69, 127
2, 497752, Note_on_c, 6, 66, 127
2, 497752, Note_on_c, 12, 83, 127
2, 497918, Note_off_c, 12, 83, 127
2, 497920, Note_on_c, 10, 81, 127
2, 498086, Note_off_c, 10, 81, 127
2, 498087, Note_off_c, 6, 66, 127
2, 498089, Note_on_c, 2, 62, 127
2, 498089, Note_on_c, 7, 79, 127
2, 498255, Note_off_c, 7, 79, 127
2, 498257, Note_on_c, 6, 78, 127
2, 498423, Note_off_c, 6, 78, 127
2, 498424, Note_off_c, 2, 62, 127
2, 498426, Note_on_c, 7, 67, 127
2, 498426, Note_on_c, 12, 83, 127
2, 498762, Note_off_c, 12, 83, 127
2, 498762, Note_off_c, 7, 67, 127
2, 498764, Note_on_c, 4, 64, 127
2, 498764, Note_on_c, 10, 81, 127
2, 498930, Note_off_c, 10, 81, 127
2, 498933, Note_on_c, 7, 79, 127
2, 499099, Note_off_c, 7, 79, 127
2, 499099, Note_off_c, 4, 64, 127
2, 499101, Note_on_c, 0, 60, 127
2, 499101, Note_on_c, 6, 78, 127
2, 499267, Note_off_c, 6, 78, 127
2, 499270, Note_on_c, 4, 76, 127
2, 499436, Note_off_c, 4, 76, 127
2, 499436, Note_off_c, 0, 60, 127
2, 499438, Note_on_c, 6, 54, 127
2, 499438, Note_on_c, 10, 81, 127
2, 499604, Note_off_c, 10, 81, 127
2, 499606, Note_on_c, 7, 79, 127
2, 499772, Note_off_c, 7, 79, 127
2, 499773, Note_off_c, 6, 54, 127
2, 499775, Note_on_c, 4, 64, 127
2, 499775, Note_on_c, 6, 78, 127
2, 499941, Note_off_c, 6, 78, 127
2, 499943, Note_on_c, 7, 79, 127
2, 500109, Note_off_c, 7, 79, 127
2, 500110, Note_off_c, 4, 64, 127
2, 500112, Note_on_c, 3, 63, 127
2, 500112, Note_on_c, 10, 81, 127
2, 500278, Note_off_c, 10, 81, 127
2, 500280, Note_on_c, 6, 78, 127
2, 500446, Note_off_c, 6, 78, 127
2, 500447, Note_off_c, 3, 63, 127
2, 500449, Note_on_c, 4, 64, 127
2, 500449, Note_on_c, 7, 79, 127
2, 500615, Note_off_c, 7, 79, 127
2, 500617, Note_on_c, 12, 71, 127
2, 500783, Note_off_c, 12, 71, 127
2, 500784, Note_off_c, 4, 64, 127
2, 500786, Note_on_c, 4, 52, 127
2, 500786, Note_on_c, 1, 73, 127
2, 500952, Note_off_c, 1, 73, 127
2, 500954, Note_on_c, 3, 75, 127
2, 501120, Note_off_c, 3, 75, 127
2, 501121, Note_off_c, 4, 52, 127
2, 501123, Note_on_c, 6, 54, 127
2, 501123, Note_on_c, 4, 76, 127
2, 501289, Note_off_c, 4, 76, 127
2, 501291, Note_on_c, 3, 75, 127
2, 501457, Note_off_c, 3, 75, 127
2, 501458, Note_off_c, 6, 54, 127
2, 501460, Note_on_c, 7, 55, 127
2, 501460, Note_on_c, 4, 76, 127
2, 501626, Note_off_c, 4, 76, 127
2, 501628, Note_on_c, 6, 78, 127
2, 501794, Note_off_c, 6, 78, 127
2, 501795, Note_off_c, 7, 55, 127
2, 501797, Note_on_c, 10, 57, 127
2, 501797, Note_on_c, 7, 79, 127
2, 501963, Note_off_c, 7, 79, 127
2, 501965, Note_on_c, 10, 81, 127
2, 502131, Note_off_c, 10, 81, 127
2, 502132, Note_off_c, 10, 57, 127
2, 502134, Note_on_c, 12, 59, 127
2, 502134, Note_on_c, 7, 79, 127
2, 502300, Note_off_c, 7, 79, 127
2, 502302, Note_on_c, 6, 78, 127
2, 502468, Note_off_c, 6, 78, 127
2, 502469, Note_off_c, 12, 59, 127
2, 502471, Note_on_c, 4, 52, 127
2, 502471, Note_on_c, 7, 79, 127
2, 502637, Note_off_c, 7, 79, 127
2, 502639, Note_on_c, 6, 78, 127
2, 502805, Note_off_c, 6, 78, 127
2, 502806, Note_off_c, 4, 52, 127
2, 502808, Note_on_c, 7, 55, 127
2, 502808, Note_on_c, 4, 76, 127
2, 502974, Note_off_c, 4, 76, 127
2, 502976, Note_on_c, 3, 75, 127
2, 503142, Note_off_c, 3, 75, 127
2, 503143, Note_off_c, 7, 55, 127
2, 503145, Note_on_c, 12, 59, 127
2, 503145, Note_on_c, 4, 76, 127
2, 503311, Note_off_c, 4, 76, 127
2, 503313, Note_on_c, 6, 78, 127
2, 503479, Note_off_c, 6, 78, 127
2, 503480, Note_off_c, 12, 59, 127
2, 503482, Note_on_c, 4, 64, 127
2, 503482, Note_on_c, 7, 79, 127
2, 503648, Note_off_c, 7, 79, 127
2, 503648, Note_off_c, 4, 64, 127
2, 503650, Note_on_c, 6, 66, 127
2, 503650, Note_on_c, 10, 81, 127
2, 503816, Note_off_c, 10, 81, 127
2, 503816, Note_off_c, 6, 66, 127
2, 503818, Note_on_c, 7, 67, 127
2, 503818, Note_on_c, 12, 83, 127
2, 503984, Note_off_c, 12, 83, 127
2, 503987, Note_on_c, 0, 84, 127
2, 504153, Note_off_c, 0, 84, 127
2, 504153, Note_off_c, 7, 67, 127
2, 504155, Note_on_c, 6, 66, 127
2, 504155, Note_on_c, 12, 83, 127
2, 504321, Note_off_c, 12, 83, 127
2, 504324, Note_on_c, 10, 81, 127
2, 504490, Note_off_c, 10, 81, 127
2, 504490, Note_off_c, 6, 66, 127
2, 504492, Note_on_c, 7, 67, 127
2, 504492, Note_on_c, 12, 83, 127
2, 504658, Note_off_c, 12, 83, 127
2, 504661, Note_on_c, 4, 76, 127
2, 504827, Note_off_c, 4, 76, 127
2, 504827, Note_off_c, 7, 67, 127
2, 504829, Note_on_c, 6, 66, 127
2, 504829, Note_on_c, 6, 78, 127
2, 504995, Note_off_c, 6, 78, 127
2, 504995, Note_off_c, 6, 66, 127
2, 504998, Note_on_c, 4, 64, 127
2, 504998, Note_on_c, 7, 79, 127
2, 505164, Note_off_c, 7, 79, 127
2, 505164, Note_off_c, 4, 64, 127
2, 505166, Note_on_c, 6, 66, 127
2, 505166, Note_on_c, 10, 81, 127
2, 505332, Note_off_c, 10, 81, 127
2, 505332, Note_off_c, 6, 66, 127
2, 505335, Note_on_c, 7, 67, 127
2, 505335, Note_on_c, 12, 83, 127
2, 505501, Note_off_c, 12, 83, 127
2, 505501, Note_off_c, 7, 67, 127
2, 505503, Note_on_c, 10, 69, 127
2, 505503, Note_on_c, 0, 84, 127
2, 505669, Note_off_c, 0, 84, 127
2, 505672, Note_on_c, 2, 74, 127
2, 505838, Note_off_c, 2, 74, 127
2, 505838, Note_off_c, 10, 69, 127
2, 505840, Note_on_c, 6, 66, 127
2, 505840, Note_on_c, 4, 76, 127
2, 506006, Note_off_c, 4, 76, 127
2, 506009, Note_on_c, 6, 78, 127
2, 506175, Note_off_c, 6, 78, 127
2, 506175, Note_off_c, 6, 66, 127
2, 506177, Note_on_c, 2, 62, 127
2, 506177, Note_on_c, 7, 79, 127
2, 506343, Note_off_c, 7, 79, 127
2, 506346, Note_on_c, 10, 81, 127
2, 506512, Note_off_c, 10, 81, 127
2, 506512, Note_off_c, 2, 62, 127
2, 506514, Note_on_c, 7, 67, 127
2, 506514, Note_on_c, 12, 83, 127
2, 506680, Note_off_c, 7, 67, 127
2, 506683, Note_on_c, 6, 66, 127
2, 506849, Note_off_c, 6, 66, 127
2, 506849, Note_off_c, 12, 83, 127
2, 506851, Note_on_c, 4, 64, 127
2, 506851, Note_on_c, 12, 71, 127
2, 507017, Note_off_c, 4, 64, 127
2, 507020, Note_on_c, 2, 62, 127
2, 507186, Note_off_c, 2, 62, 127
2, 507186, Note_off_c, 12, 71, 127
2, 507188, Note_on_c, 0, 60, 127
2, 507188, Note_on_c, 4, 76, 127
2, 507270, Note_off_c, 4, 76, 127
2, 507272, Note_on_c, 2, 74, 127
2, 507354, Note_off_c, 2, 74, 127
2, 507354, Note_off_c, 0, 60, 127
2, 507357, Note_on_c, 12, 59, 127
2, 507357, Note_on_c, 4, 76, 127
2, 507523, Note_off_c, 12, 59, 127
2, 507525, Note_on_c, 0, 60, 127
2, 507691, Note_off_c, 0, 60, 127
2, 507692, Note_off_c, 4, 76, 127
2, 507694, Note_on_c, 10, 57, 127
2, 507694, Note_on_c, 6, 78, 127
2, 507860, Note_off_c, 6, 78, 127
2, 507860, Note_off_c, 10, 57, 127
2, 507862, Note_on_c, 12, 59, 127
2, 507862, Note_on_c, 7, 79, 127
2, 507973, Note_off_c, 7, 79, 127
2, 507975, Note_on_c, 6, 78, 127
2, 508032, Note_on_c, 7, 79, 127
2, 508057, Note_off_c, 6, 78, 127
2, 508087, Note_on_c, 6, 78, 127
2, 508113, Note_off_c, 7, 79, 127
2, 508142, Note_on_c, 7, 79, 127
2, 508168, Note_off_c, 6, 78, 127
2, 508195, Note_off_c, 12, 59, 127
2, 508197, Note_on_c, 12, 47, 127
2, 508197, Note_on_c, 6, 78, 127
2, 508223, Note_off_c, 7, 79, 127
2, 508363, Note_off_c, 6, 78, 127
2, 508366, Note_on_c, 4, 76, 127
2, 508532, Note_off_c, 4, 76, 127
2, 508532, Note_off_c, 12, 47, 127
2, 508534, Note_on_c, 4, 52, 127
2, 508534, Note_on_c, 4, 76, 127
2, 508870, Note_off_c, 4, 52, 127
2, 508873, Note_on_c, 4, 40, 127
2, 509209, Note_off_c, 4, 40, 127
2, 509209, Note_off_c, 4, 76, 127
2, 509211, Note_on_c, 4, 52, 127
2, 509211, Note_on_c, 7, 79, 127
2, 509377, Note_off_c, 4, 52, 127
2, 509380, Note_on_c, 6, 54, 127
2, 509546, Note_off_c, 6, 54, 127
2, 509546, Note_off_c, 7, 79, 127
2, 509548, Note_on_c, 7, 55, 127
2, 509548, Note_on_c, 12, 71, 127
2, 509714, Note_off_c, 12, 71, 127
2, 509714, Note_off_c, 7, 55, 127
2, 509717, Note_on_c, 10, 57, 127
2, 509717, Note_on_c, 0, 72, 127
2, 509883, Note_off_c, 0, 72, 127
2, 509883, Note_off_c, 10, 57, 127
2, 509885, Note_on_c, 12, 59, 127
2, 509885, Note_on_c, 2, 74, 127
2, 510051, Note_off_c, 12, 59, 127
2, 510054, Note_on_c, 0, 60, 127
2, 510220, Note_off_c, 0, 60, 127
2, 510220, Note_off_c, 2, 74, 127
2, 510222, Note_on_c, 12, 59, 127
2, 510222, Note_on_c, 4, 76, 127
2, 510388, Note_off_c, 12, 59, 127
2, 510391, Note_on_c, 10, 57, 127
2, 510557, Note_off_c, 10, 57, 127
2, 510557, Note_off_c, 4, 76, 127
2, 510559, Note_on_c, 12, 59, 127
2, 510559, Note_on_c, 2, 74, 127
2, 510725, Note_off_c, 12, 59, 127
2, 510728, Note_on_c, 10, 57, 127
2, 510894, Note_off_c, 10, 57, 127
2, 510894, Note_off_c, 2, 74, 127
2, 510896, Note_on_c, 7, 55, 127
2, 510896, Note_on_c, 0, 72, 127
2, 511062, Note_off_c, 0, 72, 127
2, 511062, Note_off_c, 7, 55, 127
2, 511065, Note_on_c, 10, 57, 127
2, 511065, Note_on_c, 12, 71, 127
2, 511231, Note_off_c, 12, 71, 127
2, 511231, Note_off_c, 10, 57, 127
2, 511233, Note_on_c, 12, 59, 127
2, 511233, Note_on_c, 10, 69, 127
2, 511399, Note_off_c, 10, 69, 127
2, 511399, Note_off_c, 12, 59, 127
2, 511402, Note_on_c, 0, 60, 127
2, 511402, Note_on_c, 7, 67, 127
2, 511568, Note_off_c, 7, 67, 127
2, 511568, Note_off_c, 0, 60, 127
2, 511570, Note_on_c, 12, 59, 127
2, 511570, Note_on_c, 7, 79, 127
2, 511736, Note_off_c, 12, 59, 127
2, 511739, Note_on_c, 10, 57, 127
2, 511905, Note_off_c, 10, 57, 127
2, 511905, Note_off_c, 7, 79, 127
2, 511907, Note_on_c, 7, 55, 127
2, 511907, Note_on_c, 12, 71, 127
2, 512073, Note_off_c, 12, 71, 127
2, 512073, Note_off_c, 7, 55, 127
2, 512076, Note_on_c, 10, 57, 127
2, 512076, Note_on_c, 0, 72, 127
2, 512242, Note_off_c, 0, 72, 127
2, 512242, Note_off_c, 10, 57, 127
2, 512244, Note_on_c, 12, 59, 127
2, 512244, Note_on_c, 2, 74, 127
2, 512410, Note_off_c, 2, 74, 127
2, 512410, Note_off_c, 12, 59, 127
2, 512413, Note_on_c, 0, 60, 127
2, 512413, Note_on_c, 4, 76, 127
2, 512579, Note_off_c, 4, 76, 127
2, 512579, Note_off_c, 0, 60, 127
2, 512581, Note_on_c, 12, 59, 127
2, 512581, Note_on_c, 2, 74, 127
2, 512747, Note_off_c, 12, 59, 127
2, 512750, Note_on_c, 10, 57, 127
2, 512916, Note_off_c, 10, 57, 127
2, 512916, Note_off_c, 2, 74, 127
2, 512918, Note_on_c, 7, 55, 127
2, 512918, Note_on_c, 7, 79, 127
2, 513084, Note_off_c, 7, 55, 127
2, 513087, Note_on_c, 6, 54, 127
2, 513253, Note_off_c, 6, 54, 127
2, 513255, Note_on_c, 4, 52, 127
2, 513421, Note_off_c, 4, 52, 127
2, 513423, Note_on_c, 2, 50, 127
2, 513589, Note_off_c, 2, 50, 127
2, 513592, Note_on_c, 1, 49, 127
2, 513758, Note_off_c, 1, 49, 127
2, 513760, Note_on_c, 4, 52, 127
2, 513926, Note_off_c, 4, 52, 127
2, 513927, Note_off_c, 7, 79, 127
2, 513929, Note_on_c, 10, 57, 127
2, 513929, Note_on_c, 4, 76, 127
2, 514095, Note_off_c, 10, 57, 127
2, 514097, Note_on_c, 7, 55, 127
2, 514263, Note_off_c, 7, 55, 127
2, 514264, Note_off_c, 4, 76, 127
2, 514266, Note_on_c, 6, 54, 127
2, 514266, Note_on_c, 10, 81, 127
2, 514432, Note_off_c, 6, 54, 127
2, 514434, Note_on_c, 4, 52, 127
2, 514600, Note_off_c, 4, 52, 127
2, 514601, Note_off_c, 10, 81, 127
2, 514603, Note_on_c, 2, 50, 127
2, 514603, Note_on_c, 6, 78, 127
2, 514769, Note_off_c, 2, 50, 127
2, 514771, Note_on_c, 4, 52, 127
2, 514937, Note_off_c, 4, 52, 127
2, 514938, Note_off_c, 6, 78, 127
2, 514940, Note_on_c, 2, 50, 127
2, 514940, Note_on_c, 12, 83, 127
2, 515106, Note_off_c, 2, 50, 127
2, 515108, Note_on_c, 1, 49, 127
2, 515274, Note_off_c, 1, 49, 127
2, 515277, Note_on_c, 12, 47, 127
2, 515443, Note_off_c, 12, 47, 127
2, 515445, Note_on_c, 10, 45, 127
2, 515611, Note_off_c, 10, 45, 127
2, 515614, Note_on_c, 7, 43, 127
2, 515780, Note_off_c, 7, 43, 127
2, 515782, Note_on_c, 4, 52, 127
2, 515948, Note_off_c, 4, 52, 127
2, 515949, Note_off_c, 12, 83, 127
2, 515951, Note_on_c, 10, 57, 127
2, 515951, Note_on_c, 10, 81, 127
2, 516117, Note_off_c, 10, 81, 127
2, 516119, Note_on_c, 7, 79, 127
2, 516285, Note_off_c, 7, 79, 127
2, 516286, Note_off_c, 10, 57, 127
2, 516288, Note_on_c, 10, 45, 127
2, 516288, Note_on_c, 6, 78, 127
2, 516454, Note_off_c, 6, 78, 127
2, 516456, Note_on_c, 4, 76, 127
2, 516622, Note_off_c, 4, 76, 127
2, 516623, Note_off_c, 10, 45, 127
2, 516625, Note_on_c, 2, 50, 127
2, 516625, Note_on_c, 7, 79, 127
2, 516791, Note_off_c, 7, 79, 127
2, 516793, Note_on_c, 6, 78, 127
2, 516959, Note_off_c, 6, 78, 127
2, 516962, Note_on_c, 4, 76, 127
2, 517128, Note_off_c, 4, 76, 127
2, 517128, Note_off_c, 2, 50, 127
2, 517130, Note_on_c, 6, 54, 127
2, 517130, Note_on_c, 2, 74, 127
2, 517296, Note_off_c, 2, 74, 127
2, 517296, Note_off_c, 6, 54, 127
2, 517299, Note_on_c, 12, 59, 127
2, 517299, Note_on_c, 6, 78, 127
2, 517465, Note_off_c, 12, 59, 127
2, 517467, Note_on_c, 10, 57, 127
2, 517633, Note_off_c, 10, 57, 127
2, 517634, Note_off_c, 6, 78, 127
2, 517635, Note_on_c, 7, 55, 127
2, 517635, Note_on_c, 12, 71, 127
2, 517801, Note_off_c, 12, 71, 127
2, 517801, Note_off_c, 7, 55, 127
2, 517804, Note_on_c, 6, 54, 127
2, 517804, Note_on_c, 1, 73, 127
2, 517970, Note_off_c, 1, 73, 127
2, 517970, Note_off_c, 6, 54, 127
2, 517972, Note_on_c, 4, 52, 127
2, 517972, Note_on_c, 2, 74, 127
2, 518138, Note_off_c, 4, 52, 127
2, 518141, Note_on_c, 2, 50, 127
2, 518307, Note_off_c, 2, 50, 127
2, 518307, Note_off_c, 2, 74, 127
2, 518309, Note_on_c, 4, 52, 127
2, 518309, Note_on_c, 1, 73, 127
2, 518475, Note_off_c, 4, 52, 127
2, 518478, Note_on_c, 6, 54, 127
2, 518644, Note_off_c, 6, 54, 127
2, 518644, Note_off_c, 1, 73, 127
2, 518646, Note_on_c, 12, 47, 127
2, 518646, Note_on_c, 2, 74, 127
2, 518812, Note_off_c, 12, 47, 127
2, 518815, Note_on_c, 12, 59, 127
2, 518981, Note_off_c, 12, 59, 127
2, 518981, Note_off_c, 2, 74, 127
2, 518983, Note_on_c, 11, 58, 127
2, 518983, Note_on_c, 1, 73, 127
2, 519149, Note_off_c, 1, 73, 127
2, 519149, Note_off_c, 11, 58, 127
2, 519152, Note_on_c, 8, 56, 127
2, 519152, Note_on_c, 12, 71, 127
2, 519318, Note_off_c, 12, 71, 127
2, 519318, Note_off_c, 8, 56, 127
2, 519320, Note_on_c, 11, 58, 127
2, 519320, Note_on_c, 1, 73, 127
2, 519486, Note_off_c, 1, 73, 127
2, 519486, Note_off_c, 11, 58, 127
2, 519489, Note_on_c, 12, 59, 127
2, 519489, Note_on_c, 2, 74, 127
2, 519655, Note_off_c, 2, 74, 127
2, 519655, Note_off_c, 12, 59, 127
2, 519657, Note_on_c, 1, 49, 127
2, 519657, Note_on_c, 4, 76, 127
2, 519823, Note_off_c, 4, 76, 127
2, 519823, Note_off_c, 1, 49, 127
2, 519826, Note_on_c, 12, 59, 127
2, 519826, Note_on_c, 6, 78, 127
2, 519992, Note_off_c, 6, 78, 127
2, 519992, Note_off_c, 12, 59, 127
2, 519994, Note_on_c, 10, 57, 127
2, 519994, Note_on_c, 7, 79, 127
2, 520160, Note_off_c, 10, 57, 127
2, 520163, Note_on_c, 7, 55, 127
2, 520329, Note_off_c, 7, 55, 127
2, 520329, Note_off_c, 7, 79, 127
2, 520331, Note_on_c, 10, 57, 127
2, 520331, Note_on_c, 6, 78, 127
2, 520497, Note_off_c, 10, 57, 127
2, 520500, Note_on_c, 3, 51, 127
2, 520666, Note_off_c, 3, 51, 127
2, 520666, Note_off_c, 6, 78, 127
2, 520668, Note_on_c, 4, 52, 127
2, 520668, Note_on_c, 7, 79, 127
2, 520834, Note_off_c, 4, 52, 127
2, 520837, Note_on_c, 10, 57, 127
2, 521003, Note_off_c, 10, 57, 127
2, 521005, Note_on_c, 7, 55, 127
2, 521171, Note_off_c, 7, 55, 127
2, 521174, Note_on_c, 6, 54, 127
2, 521340, Note_off_c, 6, 54, 127
2, 521342, Note_on_c, 7, 55, 127
2, 521508, Note_off_c, 7, 55, 127
2, 521511, Note_on_c, 4, 52, 127
2, 521677, Note_off_c, 4, 52, 127
2, 521679, Note_on_c, 1, 49, 127
2, 521845, Note_off_c, 7, 79, 127
2, 521847, Note_on_c, 11, 82, 127
2, 522013, Note_off_c, 11, 82, 127
2, 522014, Note_off_c, 1, 49, 127
2, 522016, Note_on_c, 2, 50, 127
2, 522016, Note_on_c, 12, 83, 127
2, 522182, Note_off_c, 12, 83, 127
2, 522184, Note_on_c, 7, 79, 127
2, 522350, Note_off_c, 7, 79, 127
2, 522351, Note_off_c, 2, 50, 127
2, 522353, Note_on_c, 11, 46, 127
2, 522353, Note_on_c, 6, 78, 127
2, 522519, Note_off_c, 6, 78, 127
2, 522521, Note_on_c, 4, 76, 127
2, 522687, Note_off_c, 4, 76, 127
2, 522688, Note_off_c, 11, 46, 127
2, 522690, Note_on_c, 12, 47, 127
2, 522690, Note_on_c, 2, 74, 127
2, 522856, Note_off_c, 2, 74, 127
2, 522858, Note_on_c, 5, 77, 127
2, 523024, Note_off_c, 5, 77, 127
2, 523025, Note_off_c, 12, 47, 127
2, 523027, Note_on_c, 2, 50, 127
2, 523027, Note_on_c, 6, 78, 127
2, 523193, Note_off_c, 6, 78, 127
2, 523195, Note_on_c, 2, 74, 127
2, 523361, Note_off_c, 2, 74, 127
2, 523362, Note_off_c, 2, 50, 127
2, 523364, Note_on_c, 7, 55, 127
2, 523364, Note_on_c, 1, 73, 127
2, 523530, Note_off_c, 1, 73, 127
2, 523532, Note_on_c, 12, 71, 127
2, 523698, Note_off_c, 12, 71, 127
2, 523701, Note_on_c, 4, 76, 127
2, 523867, Note_off_c, 4, 76, 127
2, 523867, Note_off_c, 7, 55, 127
2, 523869, Note_on_c, 4, 52, 127
2, 523869, Note_on_c, 6, 78, 127
2, 524035, Note_off_c, 6, 78, 127
2, 524035, Note_off_c, 4, 52, 127
2, 524038, Note_on_c, 6, 54, 127
2, 524038, Note_on_c, 2, 74, 127
2, 524149, Note_off_c, 2, 74, 127
2, 524151, Note_on_c, 1, 73, 127
2, 524208, Note_on_c, 2, 74, 127
2, 524233, Note_off_c, 1, 73, 127
2, 524263, Note_on_c, 1, 73, 127
2, 524289, Note_off_c, 2, 74, 127
2, 524318, Note_on_c, 2, 74, 127
2, 524344, Note_off_c, 1, 73, 127
2, 524371, Note_off_c, 6, 54, 127
2, 524373, Note_on_c, 6, 42, 127
2, 524373, Note_on_c, 1, 73, 127
2, 524399, Note_off_c, 2, 74, 127
2, 524539, Note_off_c, 1, 73, 127
2, 524542, Note_on_c, 12, 71, 127
2, 524708, Note_off_c, 12, 71, 127
2, 524708, Note_off_c, 6, 42, 127
2, 524710, Note_on_c, 12, 47, 127
2, 524710, Note_on_c, 12, 71, 127
2, 525046, Note_off_c, 12, 47, 127
2, 525049, Note_on_c, 12, 59, 127
2, 525215, Note_off_c, 12, 59, 127
2, 525217, Note_on_c, 10, 57, 127
2, 525383, Note_off_c, 10, 57, 127
2, 525383, Note_off_c, 12, 71, 127
2, 525386, Note_on_c, 7, 55, 127
2, 525386, Note_on_c, 12, 71, 127
2, 525552, Note_off_c, 7, 55, 127
2, 525554, Note_on_c, 6, 54, 127
2, 525720, Note_off_c, 6, 54, 127
2, 525721, Note_off_c, 12, 71, 127
2, 525723, Note_on_c, 7, 55, 127
2, 525723, Note_on_c, 4, 76, 127
2, 525889, Note_off_c, 4, 76, 127
2, 525891, Note_on_c, 6, 78, 127
2, 526057, Note_off_c, 6, 78, 127
2, 526058, Note_off_c, 7, 55, 127
2, 526059, Note_on_c, 10, 57, 127
2, 526059, Note_on_c, 7, 79, 127
2, 526395, Note_off_c, 7, 79, 127
2, 526395, Note_off_c, 10, 57, 127
2, 526398, Note_on_c, 12, 59, 127
2, 526398, Note_on_c, 6, 78, 127
2, 526734, Note_off_c, 6, 78, 127
2, 526734, Note_off_c, 12, 59, 127
2, 526737, Note_on_c, 4, 52, 127
2, 526737, Note_on_c, 7, 79, 127
2, 527073, Note_off_c, 7, 79, 127
2, 527073, Note_off_c, 4, 52, 127
2, 527075, Note_on_c, 7, 55, 127
2, 527075, Note_on_c, 4, 76, 127
2, 527241, Note_off_c, 4, 76, 127
2, 527244, Note_on_c, 3, 75, 127
2, 527410, Note_off_c, 3, 75, 127
2, 527410, Note_off_c, 7, 55, 127
2, 527412, Note_on_c, 12, 59, 127
2, 527412, Note_on_c, 4, 76, 127
2, 527578, Note_off_c, 4, 76, 127
2, 527581, Note_on_c, 6, 78, 127
2, 527747, Note_off_c, 6, 78, 127
2, 527747, Note_off_c, 12, 59, 127
2, 527749, Note_on_c, 4, 64, 127
2, 527749, Note_on_c, 7, 79, 127
2, 527915, Note_off_c, 7, 79, 127
2, 527915, Note_off_c, 4, 64, 127
2, 527918, Note_on_c, 6, 66, 127
2, 527918, Note_on_c, 10, 81, 127
2, 528084, Note_off_c, 10, 81, 127
2, 528084, Note_off_c, 6, 66, 127
2, 528086, Note_on_c, 7, 67, 127
2, 528086, Note_on_c, 12, 83, 127
2, 528252, Note_off_c, 12, 83, 127
2, 528255, Note_on_c, 0, 84, 127
2, 528421, Note_off_c, 0, 84, 127
2, 528421, Note_off_c, 7, 67, 127
2, 528423, Note_on_c, 6, 66, 127
2, 528423, Note_on_c, 12, 83, 127
2, 528589, Note_off_c, 12, 83, 127
2, 528592, Note_on_c, 10, 81, 127
2, 528758, Note_off_c, 10, 81, 127
2, 528758, Note_off_c, 6, 66, 127
2, 528760, Note_on_c, 7, 67, 127
2, 528760, Note_on_c, 12, 83, 127
2, 528926, Note_off_c, 12, 83, 127
2, 528928, Note_on_c, 4, 76, 127
2, 529094, Note_off_c, 4, 76, 127
2, 529095, Note_off_c, 7, 67, 127
2, 529097, Note_on_c, 6, 66, 127
2, 529097, Note_on_c, 6, 78, 127
2, 529263, Note_off_c, 6, 78, 127
2, 529263, Note_off_c, 6, 66, 127
2, 529265, Note_on_c, 4, 64, 127
2, 529265, Note_on_c, 7, 79, 127
2, 529431, Note_off_c, 7, 79, 127
2, 529431, Note_off_c, 4, 64, 127
2, 529434, Note_on_c, 6, 66, 127
2, 529434, Note_on_c, 10, 81, 127
2, 529600, Note_off_c, 10, 81, 127
2, 529600, Note_off_c, 6, 66, 127
2, 529602, Note_on_c, 7, 67, 127
2, 529602, Note_on_c, 12, 83, 127
2, 529768, Note_off_c, 12, 83, 127
2, 529768, Note_off_c, 7, 67, 127
2, 529771, Note_on_c, 10, 69, 127
2, 529771, Note_on_c, 0, 84, 127
2, 530107, Note_off_c, 0, 84, 127
2, 530107, Note_off_c, 10, 69, 127
2, 530109, Note_on_c, 6, 66, 127
2, 530109, Note_on_c, 12, 83, 127
2, 530275, Note_off_c, 12, 83, 127
2, 530278, Note_on_c, 10, 81, 127
2, 530444, Note_off_c, 10, 81, 127
2, 530444, Note_off_c, 6, 66, 127
2, 530446, Note_on_c, 2, 62, 127
2, 530446, Note_on_c, 7, 79, 127
2, 530612, Note_off_c, 7, 79, 127
2, 530615, Note_on_c, 6, 78, 127
2, 530781, Note_off_c, 6, 78, 127
2, 530781, Note_off_c, 2, 62, 127
2, 530783, Note_on_c, 7, 67, 127
2, 530783, Note_on_c, 12, 83, 127
2, 531119, Note_off_c, 12, 83, 127
2, 531119, Note_off_c, 7, 67, 127
2, 531122, Note_on_c, 4, 64, 127
2, 531122, Note_on_c, 10, 81, 127
2, 531288, Note_off_c, 10, 81, 127
2, 531290, Note_on_c, 7, 79, 127
2, 531456, Note_off_c, 7, 79, 127
2, 531457, Note_off_c, 4, 64, 127
2, 531459, Note_on_c, 0, 60, 127
2, 531459, Note_on_c, 6, 78, 127
2, 531625, Note_off_c, 6, 78, 127
2, 531627, Note_on_c, 4, 76, 127
2, 531793, Note_off_c, 4, 76, 127
2, 531794, Note_off_c, 0, 60, 127
2, 531796, Note_on_c, 6, 54, 127
2, 531796, Note_on_c, 10, 81, 127
2, 531962, Note_off_c, 10, 81, 127
2, 531964, Note_on_c, 7, 79, 127
2, 532130, Note_off_c, 7, 79, 127
2, 532131, Note_off_c, 6, 54, 127
2, 532133, Note_on_c, 4, 64, 127
2, 532133, Note_on_c, 6, 78, 127
2, 532299, Note_off_c, 6, 78, 127
2, 532301, Note_on_c, 7, 79, 127
2, 532467, Note_off_c, 7, 79, 127
2, 532468, Note_off_c, 4, 64, 127
2, 532470, Note_on_c, 3, 63, 127
2, 532470, Note_on_c, 10, 81, 127
2, 532636, Note_off_c, 10, 81, 127
2, 532638, Note_on_c, 6, 78, 127
2, 532804, Note_off_c, 6, 78, 127
2, 532805, Note_off_c, 3, 63, 127
2, 532807, Note_on_c, 4, 64, 127
2, 532807, Note_on_c, 7, 79, 127
2, 532973, Note_off_c, 7, 79, 127
2, 532975, Note_on_c, 12, 71, 127
2, 533141, Note_off_c, 12, 71, 127
2, 533142, Note_off_c, 4, 64, 127
2, 533144, Note_on_c, 4, 52, 127
2, 533144, Note_on_c, 1, 73, 127
2, 533310, Note_off_c, 1, 73, 127
2, 533312, Note_on_c, 3, 75, 127
2, 533478, Note_off_c, 3, 75, 127
2, 533479, Note_off_c, 4, 52, 127
2, 533481, Note_on_c, 6, 54, 127
2, 533481, Note_on_c, 4, 76, 127
2, 533647, Note_off_c, 4, 76, 127
2, 533649, Note_on_c, 3, 75, 127
2, 533815, Note_off_c, 3, 75, 127
2, 533816, Note_off_c, 6, 54, 127
2, 533818, Note_on_c, 7, 55, 127
2, 533818, Note_on_c, 4, 76, 127
2, 533984, Note_off_c, 4, 76, 127
2, 533986, Note_on_c, 6, 78, 127
2, 534152, Note_off_c, 6, 78, 127
2, 534153, Note_off_c, 7, 55, 127
2, 534155, Note_on_c, 10, 57, 127
2, 534155, Note_on_c, 7, 79, 127
2, 534321, Note_off_c, 7, 79, 127
2, 534323, Note_on_c, 10, 81, 127
2, 534489, Note_off_c, 10, 81, 127
2, 534490, Note_off_c, 10, 57, 127
2, 534492, Note_on_c, 12, 59, 127
2, 534492, Note_on_c, 7, 79, 127
2, 534658, Note_off_c, 7, 79, 127
2, 534660, Note_on_c, 6, 78, 127
2, 534826, Note_off_c, 6, 78, 127
2, 534827, Note_off_c, 12, 59, 127
2, 534829, Note_on_c, 4, 52, 127
2, 534829, Note_on_c, 7, 79, 127
2, 534995, Note_off_c, 7, 79, 127
2, 534997, Note_on_c, 6, 78, 127
2, 535163, Note_off_c, 6, 78, 127
2, 535164, Note_off_c, 4, 52, 127
2, 535165, Note_on_c, 7, 55, 127
2, 535165, Note_on_c, 4, 76, 127
2, 535331, Note_off_c, 4, 76, 127
2, 535334, Note_on_c, 3, 75, 127
2, 535500, Note_off_c, 3, 75, 127
2, 535500, Note_off_c, 7, 55, 127
2, 535502, Note_on_c, 12, 59, 127
2, 535502, Note_on_c, 4, 76, 127
2, 535668, Note_off_c, 4, 76, 127
2, 535671, Note_on_c, 6, 78, 127
2, 535837, Note_off_c, 6, 78, 127
2, 535837, Note_off_c, 12, 59, 127
2, 535839, Note_on_c, 4, 64, 127
2, 535839, Note_on_c, 7, 79, 127
2, 536005, Note_off_c, 7, 79, 127
2, 536005, Note_off_c, 4, 64, 127
2, 536008, Note_on_c, 6, 66, 127
2, 536008, Note_on_c, 10, 81, 127
2, 536174, Note_off_c, 10, 81, 127
2, 536174, Note_off_c, 6, 66, 127
2, 536176, Note_on_c, 7, 67, 127
2, 536176, Note_on_c, 12, 83, 127
2, 536342, Note_off_c, 12, 83, 127
2, 536345, Note_on_c, 0, 84, 127
2, 536511, Note_off_c, 0, 84, 127
2, 536511, Note_off_c, 7, 67, 127
2, 536513, Note_on_c, 6, 66, 127
2, 536513, Note_on_c, 12, 83, 127
2, 536679, Note_off_c, 12, 83, 127
2, 536682, Note_on_c, 10, 81, 127
2, 536848, Note_off_c, 10, 81, 127
2, 536848, Note_off_c, 6, 66, 127
2, 536850, Note_on_c, 7, 67, 127
2, 536850, Note_on_c, 12, 83, 127
2, 537016, Note_off_c, 12, 83, 127
2, 537019, Note_on_c, 4, 76, 127
2, 537185, Note_off_c, 4, 76, 127
2, 537185, Note_off_c, 7, 67, 127
2, 537187, Note_on_c, 6, 66, 127
2, 537187, Note_on_c, 6, 78, 127
2, 537353, Note_off_c, 6, 78, 127
2, 537353, Note_off_c, 6, 66, 127
2, 537356, Note_on_c, 4, 64, 127
2, 537356, Note_on_c, 7, 79, 127
2, 537522, Note_off_c, 7, 79, 127
2, 537522, Note_off_c, 4, 64, 127
2, 537524, Note_on_c, 6, 66, 127
2, 537524, Note_on_c, 10, 81, 127
2, 537690, Note_off_c, 10, 81, 127
2, 537690, Note_off_c, 6, 66, 127
2, 537693, Note_on_c, 7, 67, 127
2, 537693, Note_on_c, 12, 83, 127
2, 537859, Note_off_c, 12, 83, 127
2, 537859, Note_off_c, 7, 67, 127
2, 537861, Note_on_c, 10, 69, 127
2, 537861, Note_on_c, 0, 84, 127
2, 538027, Note_off_c, 0, 84, 127
2, 538030, Note_on_c, 2, 74, 127
2, 538196, Note_off_c, 2, 74, 127
2, 538196, Note_off_c, 10, 69, 127
2, 538198, Note_on_c, 6, 66, 127
2, 538198, Note_on_c, 4, 76, 127
2, 538364, Note_off_c, 4, 76, 127
2, 538367, Note_on_c, 6, 78, 127
2, 538533, Note_off_c, 6, 78, 127
2, 538533, Note_off_c, 6, 66, 127
2, 538535, Note_on_c, 2, 62, 127
2, 538535, Note_on_c, 7, 79, 127
2, 538701, Note_off_c, 7, 79, 127
2, 538704, Note_on_c, 10, 81, 127
2, 538870, Note_off_c, 10, 81, 127
2, 538870, Note_off_c, 2, 62, 127
2, 538872, Note_on_c, 7, 67, 127
2, 538872, Note_on_c, 12, 83, 127
2, 539038, Note_off_c, 7, 67, 127
2, 539041, Note_on_c, 6, 66, 127
2, 539207, Note_off_c, 6, 66, 127
2, 539207, Note_off_c, 12, 83, 127
2, 539209, Note_on_c, 4, 64, 127
2, 539209, Note_on_c, 12, 71, 127
2, 539375, Note_off_c, 4, 64, 127
2, 539377, Note_on_c, 2, 62, 127
2, 539543, Note_off_c, 2, 62, 127
2, 539544, Note_off_c, 12, 71, 127
2, 539546, Note_on_c, 0, 60, 127
2, 539546, Note_on_c, 4, 76, 127
2, 539628, Note_off_c, 4, 76, 127
2, 539630, Note_on_c, 2, 74, 127
2, 539712, Note_off_c, 2, 74, 127
2, 539712, Note_off_c, 0, 60, 127
2, 539714, Note_on_c, 12, 59, 127
2, 539714, Note_on_c, 4, 76, 127
2, 539880, Note_off_c, 12, 59, 127
2, 539883, Note_on_c, 0, 60, 127
2, 540049, Note_off_c, 0, 60, 127
2, 540049, Note_off_c, 4, 76, 127
2, 540051, Note_on_c, 10, 57, 127
2, 540051, Note_on_c, 6, 78, 127
2, 540217, Note_off_c, 6, 78, 127
2, 540217, Note_off_c, 10, 57, 127
2, 540220, Note_on_c, 12, 59, 127
2, 540220, Note_on_c, 7, 79, 127
2, 540331, Note_off_c, 7, 79, 127
2, 540333, Note_on_c, 6, 78, 127
2, 540390, Note_on_c, 7, 79, 127
2, 540415, Note_off_c, 6, 78, 127
2, 540445, Note_on_c, 6, 78, 127
2, 540471, Note_off_c, 7, 79, 127
2, 540500, Note_on_c, 7, 79, 127
2, 540526, Note_off_c, 6, 78, 127
2, 540553, Note_off_c, 12, 59, 127
2, 540555, Note_on_c, 12, 47, 127
2, 540555, Note_on_c, 6, 78, 127
2, 540581, Note_off_c, 7, 79, 127
2, 540721, Note_off_c, 6, 78, 127
2, 540724, Note_on_c, 4, 76, 127
2, 540890, Note_off_c, 4, 76, 127
2, 540890, Note_off_c, 12, 47, 127
2, 540892, Note_on_c, 4, 52, 127
2, 540892, Note_on_c, 4, 76, 127
2, 541228, Note_off_c, 4, 52, 127
2, 541231, Note_on_c, 4, 40, 127
2, 541567, Note_off_c, 4, 76, 127
2, 541569, Note_on_c, 12, 71, 127
2, 541735, Note_off_c, 12, 71, 127
2, 541738, Note_on_c, 0, 72, 127
2, 541900, Note_off_c, 4, 40, 127
2, 541904, Note_off_c, 0, 72, 127
2, 541906, Note_on_c, 2, 74, 127
2, 542072, Note_off_c, 2, 74, 127
2, 542075, Note_on_c, 12, 71, 127
2, 542241, Note_off_c, 12, 71, 127
2, 542243, Note_on_c, 4, 52, 127
2, 542243, Note_on_c, 8, 68, 127
2, 542409, Note_off_c, 8, 68, 127
2, 542409, Note_off_c, 4, 52, 127
2, 542412, Note_on_c, 6, 54, 127
2, 542412, Note_on_c, 4, 64, 127
2, 542578, Note_off_c, 4, 64, 127
2, 542578, Note_off_c, 6, 54, 127
2, 542580, Note_on_c, 8, 56, 127
2, 542580, Note_on_c, 5, 77, 127
2, 542746, Note_off_c, 8, 56, 127
2, 542749, Note_on_c, 10, 57, 127
2, 542915, Note_off_c, 10, 57, 127
2, 542917, Note_on_c, 12, 59, 127
2, 543083, Note_off_c, 12, 59, 127
2, 543086, Note_on_c, 10, 57, 127
2, 543252, Note_off_c, 10, 57, 127
2, 543252, Note_off_c, 5, 77, 127
2, 543254, Note_on_c, 8, 56, 127
2, 543254, Note_on_c, 4, 76, 127
2, 543420, Note_off_c, 8, 56, 127
2, 543423, Note_on_c, 12, 59, 127
2, 543589, Note_off_c, 12, 59, 127
2, 543589, Note_off_c, 4, 76, 127
2, 543591, Note_on_c, 4, 52, 127
2, 543591, Note_on_c, 2, 74, 127
2, 543757, Note_off_c, 4, 52, 127
2, 543760, Note_on_c, 8, 56, 127
2, 543926, Note_off_c, 8, 56, 127
2, 543926, Note_off_c, 2, 74, 127
2, 543928, Note_on_c, 10, 57, 127
2, 543928, Note_on_c, 0, 72, 127
2, 544094, Note_off_c, 0, 72, 127
2, 544097, Note_on_c, 4, 76, 127
2, 544263, Note_off_c, 4, 76, 127
2, 544263, Note_off_c, 10, 57, 127
2, 544265, Note_on_c, 2, 50, 127
2, 544265, Note_on_c, 10, 81, 127
2, 544431, Note_off_c, 10, 81, 127
2, 544434, Note_on_c, 0, 72, 127
2, 544600, Note_off_c, 0, 72, 127
2, 544600, Note_off_c, 2, 50, 127
2, 544602, Note_on_c, 4, 52, 127
2, 544602, Note_on_c, 12, 71, 127
2, 544768, Note_off_c, 12, 71, 127
2, 544770, Note_on_c, 8, 80, 127
2, 544936, Note_off_c, 8, 80, 127
2, 544937, Note_off_c, 4, 52, 127
2, 544939, Note_on_c, 10, 45, 127
2, 544939, Note_on_c, 10, 81, 127
2, 545105, Note_off_c, 10, 81, 127
2, 545107, Note_on_c, 4, 76, 127
2, 545273, Note_off_c, 4, 76, 127
2, 545274, Note_off_c, 10, 45, 127
2, 545276, Note_on_c, 10, 57, 127
2, 545276, Note_on_c, 0, 72, 127
2, 545442, Note_off_c, 0, 72, 127
2, 545444, Note_on_c, 10, 69, 127
2, 545610, Note_off_c, 10, 69, 127
2, 545611, Note_off_c, 10, 57, 127
2, 545613, Note_on_c, 7, 55, 127
2, 545613, Note_on_c, 0, 72, 127
2, 545779, Note_off_c, 0, 72, 127
2, 545781, Note_on_c, 4, 76, 127
2, 545947, Note_off_c, 4, 76, 127
2, 545948, Note_off_c, 7, 55, 127
2, 545950, Note_on_c, 6, 54, 127
2, 545950, Note_on_c, 10, 81, 127
2, 546116, Note_off_c, 10, 81, 127
2, 546118, Note_on_c, 6, 78, 127
2, 546284, Note_off_c, 6, 78, 127
2, 546285, Note_off_c, 6, 54, 127
2, 546287, Note_on_c, 12, 47, 127
2, 546287, Note_on_c, 3, 75, 127
2, 546453, Note_off_c, 3, 75, 127
2, 546453, Note_off_c, 12, 47, 127
2, 546455, Note_on_c, 1, 49, 127
2, 546455, Note_on_c, 12, 71, 127
2, 546621, Note_off_c, 12, 71, 127
2, 546621, Note_off_c, 1, 49, 127
2, 546624, Note_on_c, 3, 51, 127
2, 546624, Note_on_c, 0, 72, 127
2, 546790, Note_off_c, 3, 51, 127
2, 546792, Note_on_c, 4, 52, 127
2, 546958, Note_off_c, 4, 52, 127
2, 546961, Note_on_c, 6, 54, 127
2, 547127, Note_off_c, 6, 54, 127
2, 547129, Note_on_c, 4, 52, 127
2, 547295, Note_off_c, 4, 52, 127
2, 547296, Note_off_c, 0, 72, 127
2, 547298, Note_on_c, 3, 51, 127
2, 547298, Note_on_c, 12, 71, 127
2, 547464, Note_off_c, 3, 51, 127
2, 547466, Note_on_c, 6, 54, 127
2, 547632, Note_off_c, 6, 54, 127
2, 547633, Note_off_c, 12, 71, 127
2, 547635, Note_on_c, 12, 47, 127
2, 547635, Note_on_c, 10, 69, 127
2, 547801, Note_off_c, 12, 47, 127
2, 547803, Note_on_c, 3, 51, 127
2, 547969, Note_off_c, 3, 51, 127
2, 547970, Note_off_c, 10, 69, 127
2, 547972, Note_on_c, 4, 52, 127
2, 547972, Note_on_c, 7, 67, 127
2, 548138, Note_off_c, 7, 67, 127
2, 548140, Note_on_c, 12, 71, 127
2, 548306, Note_off_c, 12, 71, 127
2, 548307, Note_off_c, 4, 52, 127
2, 548309, Note_on_c, 0, 48, 127
2, 548309, Note_on_c, 4, 76, 127
2, 548475, Note_off_c, 4, 76, 127
2, 548477, Note_on_c, 3, 75, 127
2, 548643, Note_off_c, 3, 75, 127
2, 548644, Note_off_c, 0, 48, 127
2, 548646, Note_on_c, 10, 45, 127
2, 548646, Note_on_c, 4, 76, 127
2, 548812, Note_off_c, 4, 76, 127
2, 548814, Note_on_c, 6, 78, 127
2, 548980, Note_off_c, 6, 78, 127
2, 548981, Note_off_c, 10, 45, 127
2, 548982, Note_on_c, 12, 47, 127
2, 548982, Note_on_c, 4, 76, 127
2, 549148, Note_off_c, 4, 76, 127
2, 549151, Note_on_c, 3, 75, 127
2, 549317, Note_off_c, 3, 75, 127
2, 549319, Note_on_c, 1, 73, 127
2, 549485, Note_off_c, 1, 73, 127
2, 549485, Note_off_c, 12, 47, 127
2, 549488, Note_on_c, 12, 59, 127
2, 549488, Note_on_c, 12, 71, 127
2, 549654, Note_off_c, 12, 71, 127
2, 549654, Note_off_c, 12, 59, 127
2, 549656, Note_on_c, 10, 57, 127
2, 549656, Note_on_c, 12, 83, 127
2, 549822, Note_off_c, 10, 57, 127
2, 549825, Note_on_c, 6, 54, 127
2, 549991, Note_off_c, 6, 54, 127
2, 549993, Note_on_c, 8, 56, 127
2, 550041, Note_off_c, 12, 83, 127
2, 550162, Note_on_c, 4, 76, 127
2, 550328, Note_off_c, 4, 76, 127
2, 550328, Note_off_c, 8, 56, 127
2, 550330, Note_on_c, 4, 52, 127
2, 550330, Note_on_c, 5, 77, 127
2, 550496, Note_off_c, 5, 77, 127
2, 550499, Note_on_c, 2, 74, 127
2, 550665, Note_off_c, 2, 74, 127
2, 550665, Note_off_c, 4, 52, 127
2, 550667, Note_on_c, 8, 56, 127
2, 550667, Note_on_c, 4, 76, 127
2, 550833, Note_off_c, 4, 76, 127
2, 550836, Note_on_c, 12, 71, 127
2, 551002, Note_off_c, 12, 71, 127
2, 551002, Note_off_c, 8, 56, 127
2, 551004, Note_on_c, 10, 45, 127
2, 551004, Note_on_c, 2, 74, 127
2, 551170, Note_off_c, 2, 74, 127
2, 551173, Note_on_c, 0, 72, 127
2, 551339, Note_off_c, 0, 72, 127
2, 551341, Note_on_c, 12, 71, 127
2, 551507, Note_off_c, 12, 71, 127
2, 551507, Note_off_c, 10, 45, 127
2, 551510, Note_on_c, 10, 57, 127
2, 551510, Note_on_c, 10, 69, 127
2, 551676, Note_off_c, 10, 69, 127
2, 551676, Note_off_c, 10, 57, 127
2, 551678, Note_on_c, 7, 55, 127
2, 551678, Note_on_c, 10, 81, 127
2, 551844, Note_off_c, 7, 55, 127
2, 551847, Note_on_c, 4, 52, 127
2, 552013, Note_off_c, 4, 52, 127
2, 552015, Note_on_c, 6, 54, 127
2, 552099, Note_off_c, 10, 81, 127
2, 552184, Note_on_c, 2, 74, 127
2, 552350, Note_off_c, 2, 74, 127
2, 552350, Note_off_c, 6, 54, 127
2, 552352, Note_on_c, 2, 50, 127
2, 552352, Note_on_c, 3, 75, 127
2, 552518, Note_off_c, 3, 75, 127
2, 552521, Note_on_c, 0, 72, 127
2, 552687, Note_off_c, 0, 72, 127
2, 552687, Note_off_c, 2, 50, 127
2, 552689, Note_on_c, 6, 54, 127
2, 552689, Note_on_c, 2, 74, 127
2, 552855, Note_off_c, 2, 74, 127
2, 552858, Note_on_c, 10, 69, 127
2, 553024, Note_off_c, 10, 69, 127
2, 553024, Note_off_c, 6, 54, 127
2, 553026, Note_on_c, 7, 43, 127
2, 553026, Note_on_c, 0, 72, 127
2, 553192, Note_off_c, 0, 72, 127
2, 553194, Note_on_c, 12, 71, 127
2, 553360, Note_off_c, 12, 71, 127
2, 553363, Note_on_c, 10, 69, 127
2, 553529, Note_off_c, 10, 69, 127
2, 553529, Note_off_c, 7, 43, 127
2, 553531, Note_on_c, 2, 50, 127
2, 553531, Note_on_c, 7, 67, 127
2, 553697, Note_off_c, 7, 67, 127
2, 553697, Note_off_c, 2, 50, 127
2, 553700, Note_on_c, 0, 48, 127
2, 553700, Note_on_c, 2, 74, 127
2, 553866, Note_off_c, 0, 48, 127
2, 553868, Note_on_c, 10, 45, 127
2, 554034, Note_off_c, 10, 45, 127
2, 554037, Note_on_c, 12, 47, 127
2, 554156, Note_off_c, 2, 74, 127
2, 554205, Note_on_c, 10, 69, 127
2, 554371, Note_off_c, 10, 69, 127
2, 554372, Note_off_c, 12, 47, 127
2, 554374, Note_on_c, 7, 43, 127
2, 554374, Note_on_c, 12, 71, 127
2, 554540, Note_off_c, 12, 71, 127
2, 554542, Note_on_c, 7, 67, 127
2, 554708, Note_off_c, 7, 67, 127
2, 554711, Note_on_c, 10, 69, 127
2, 554866, Note_off_c, 7, 43, 127
2, 554879, Note_off_c, 10, 69, 127
2, 554881, Note_on_c, 5, 65, 127
2, 555047, Note_off_c, 5, 65, 127
2, 555049, Note_on_c, 0, 48, 127
2, 555049, Note_on_c, 4, 64, 127
2, 555215, Note_off_c, 4, 64, 127
2, 555218, Note_on_c, 2, 74, 127
2, 555384, Note_off_c, 2, 74, 127
2, 555384, Note_off_c, 0, 48, 127
2, 555386, Note_on_c, 10, 45, 127
2, 555386, Note_on_c, 0, 72, 127
2, 555552, Note_off_c, 0, 72, 127
2, 555555, Note_on_c, 10, 69, 127
2, 555721, Note_off_c, 10, 69, 127
2, 555723, Note_on_c, 12, 71, 127
2, 555878, Note_off_c, 10, 45, 127
2, 555891, Note_off_c, 12, 71, 127
2, 555893, Note_on_c, 7, 67, 127
2, 556059, Note_off_c, 7, 67, 127
2, 556062, Note_on_c, 2, 50, 127
2, 556062, Note_on_c, 6, 78, 127
2, 556228, Note_off_c, 6, 78, 127
2, 556230, Note_on_c, 7, 79, 127
2, 556396, Note_off_c, 7, 79, 127
2, 556397, Note_off_c, 2, 50, 127
2, 556399, Note_on_c, 0, 48, 127
2, 556399, Note_on_c, 0, 72, 127
2, 556565, Note_off_c, 0, 72, 127
2, 556567, Note_on_c, 12, 71, 127
2, 556733, Note_off_c, 12, 71, 127
2, 556734, Note_off_c, 0, 48, 127
2, 556736, Note_on_c, 2, 50, 127
2, 556736, Note_on_c, 10, 69, 127
2, 556902, Note_off_c, 10, 69, 127
2, 556904, Note_on_c, 12, 71, 127
2, 557070, Note_off_c, 12, 71, 127
2, 557071, Note_off_c, 2, 50, 127
2, 557073, Note_on_c, 7, 55, 127
2, 557073, Note_on_c, 7, 67, 127
2, 557239, Note_off_c, 7, 55, 127
2, 557241, Note_on_c, 10, 57, 127
2, 557407, Note_off_c, 10, 57, 127
2, 557410, Note_on_c, 12, 59, 127
2, 557565, Note_off_c, 7, 67, 127
2, 557578, Note_off_c, 12, 59, 127
2, 557580, Note_on_c, 7, 55, 127
2, 557746, Note_off_c, 7, 55, 127
2, 557748, Note_on_c, 10, 57, 127
2, 557748, Note_on_c, 12, 71, 127
2, 557914, Note_off_c, 10, 57, 127
2, 557917, Note_on_c, 6, 54, 127
2, 558083, Note_off_c, 6, 54, 127
2, 558083, Note_off_c, 12, 71, 127
2, 558085, Note_on_c, 7, 55, 127
2, 558085, Note_on_c, 4, 76, 127
2, 558251, Note_off_c, 4, 76, 127
2, 558254, Note_on_c, 6, 78, 127
2, 558420, Note_off_c, 6, 78, 127
2, 558420, Note_off_c, 7, 55, 127
2, 558422, Note_on_c, 10, 57, 127
2, 558422, Note_on_c, 7, 79, 127
2, 558758, Note_off_c, 7, 79, 127
2, 558758, Note_off_c, 10, 57, 127
2, 558761, Note_on_c, 12, 59, 127
2, 558761, Note_on_c, 6, 78, 127
2, 559097, Note_off_c, 6, 78, 127
2, 559097, Note_off_c, 12, 59, 127
2, 559099, Note_on_c, 4, 52, 127
2, 559099, Note_on_c, 7, 79, 127
2, 559435, Note_off_c, 7, 79, 127
2, 559435, Note_off_c, 4, 52, 127
2, 559438, Note_on_c, 7, 55, 127
2, 559438, Note_on_c, 4, 76, 127
2, 559604, Note_off_c, 4, 76, 127
2, 559606, Note_on_c, 3, 75, 127
2, 559772, Note_off_c, 3, 75, 127
2, 559773, Note_off_c, 7, 55, 127
2, 559775, Note_on_c, 12, 59, 127
2, 559775, Note_on_c, 4, 76, 127
2, 559941, Note_off_c, 4, 76, 127
2, 559943, Note_on_c, 6, 78, 127
2, 560109, Note_off_c, 6, 78, 127
2, 560110, Note_off_c, 12, 59, 127
2, 560112, Note_on_c, 4, 64, 127
2, 560112, Note_on_c, 7, 79, 127
2, 560278, Note_off_c, 7, 79, 127
2, 560278, Note_off_c, 4, 64, 127
2, 560280, Note_on_c, 6, 66, 127
2, 560280, Note_on_c, 10, 81, 127
2, 560446, Note_off_c, 10, 81, 127
2, 560446, Note_off_c, 6, 66, 127
2, 560449, Note_on_c, 7, 67, 127
2, 560449, Note_on_c, 12, 83, 127
2, 560615, Note_off_c, 12, 83, 127
2, 560617, Note_on_c, 0, 84, 127
2, 560783, Note_off_c, 0, 84, 127
2, 560784, Note_off_c, 7, 67, 127
2, 560786, Note_on_c, 6, 66, 127
2, 560786, Note_on_c, 12, 83, 127
2, 560952, Note_off_c, 12, 83, 127
2, 560954, Note_on_c, 10, 81, 127
2, 561120, Note_off_c, 10, 81, 127
2, 561121, Note_off_c, 6, 66, 127
2, 561123, Note_on_c, 7, 67, 127
2, 561123, Note_on_c, 12, 83, 127
2, 561289, Note_off_c, 12, 83, 127
2, 561291, Note_on_c, 4, 76, 127
2, 561457, Note_off_c, 4, 76, 127
2, 561458, Note_off_c, 7, 67, 127
2, 561460, Note_on_c, 6, 66, 127
2, 561460, Note_on_c, 6, 78, 127
2, 561626, Note_off_c, 6, 78, 127
2, 561626, Note_off_c, 6, 66, 127
2, 561628, Note_on_c, 4, 64, 127
2, 561628, Note_on_c, 7, 79, 127
2, 561794, Note_off_c, 7, 79, 127
2, 561794, Note_off_c, 4, 64, 127
2, 561797, Note_on_c, 6, 66, 127
2, 561797, Note_on_c, 10, 81, 127
2, 561963, Note_off_c, 10, 81, 127
2, 561963, Note_off_c, 6, 66, 127
2, 561965, Note_on_c, 7, 67, 127
2, 561965, Note_on_c, 12, 83, 127
2, 562131, Note_off_c, 12, 83, 127
2, 562131, Note_off_c, 7, 67, 127
2, 562134, Note_on_c, 10, 69, 127
2, 562134, Note_on_c, 0, 84, 127
2, 562470, Note_off_c, 0, 84, 127
2, 562470, Note_off_c, 10, 69, 127
2, 562472, Note_on_c, 6, 66, 127
2, 562472, Note_on_c, 12, 83, 127
2, 562638, Note_off_c, 12, 83, 127
2, 562641, Note_on_c, 10, 81, 127
2, 562807, Note_off_c, 10, 81, 127
2, 562807, Note_off_c, 6, 66, 127
2, 562809, Note_on_c, 2, 62, 127
2, 562809, Note_on_c, 7, 79, 127
2, 562975, Note_off_c, 7, 79, 127
2, 562978, Note_on_c, 6, 78, 127
2, 563144, Note_off_c, 6, 78, 127
2, 563144, Note_off_c, 2, 62, 127
2, 563146, Note_on_c, 7, 67, 127
2, 563146, Note_on_c, 12, 83, 127
2, 563482, Note_off_c, 12, 83, 127
2, 563482, Note_off_c, 7, 67, 127
2, 563485, Note_on_c, 4, 64, 127
2, 563485, Note_on_c, 10, 81, 127
2, 563651, Note_off_c, 10, 81, 127
2, 563653, Note_on_c, 7, 79, 127
2, 563819, Note_off_c, 7, 79, 127
2, 563820, Note_off_c, 4, 64, 127
2, 563822, Note_on_c, 0, 60, 127
2, 563822, Note_on_c, 6, 78, 127
2, 563988, Note_off_c, 6, 78, 127
2, 563990, Note_on_c, 4, 76, 127
2, 564156, Note_off_c, 4, 76, 127
2, 564157, Note_off_c, 0, 60, 127
2, 564159, Note_on_c, 6, 54, 127
2, 564159, Note_on_c, 10, 81, 127
2, 564325, Note_off_c, 10, 81, 127
2, 564327, Note_on_c, 7, 79, 127
2, 564493, Note_off_c, 7, 79, 127
2, 564494, Note_off_c, 6, 54, 127
2, 564496, Note_on_c, 4, 64, 127
2, 564496, Note_on_c, 6, 78, 127
2, 564662, Note_off_c, 6, 78, 127
2, 564664, Note_on_c, 7, 79, 127
2, 564830, Note_off_c, 7, 79, 127
2, 564831, Note_off_c, 4, 64, 127
2, 564833, Note_on_c, 3, 63, 127
2, 564833, Note_on_c, 10, 81, 127
2, 564999, Note_off_c, 10, 81, 127
2, 565001, Note_on_c, 6, 78, 127
2, 565167, Note_off_c, 6, 78, 127
2, 565168, Note_off_c, 3, 63, 127
2, 565170, Note_on_c, 4, 64, 127
2, 565170, Note_on_c, 7, 79, 127
2, 565336, Note_off_c, 7, 79, 127
2, 565338, Note_on_c, 12, 71, 127
2, 565504, Note_off_c, 12, 71, 127
2, 565505, Note_off_c, 4, 64, 127
2, 565506, Note_on_c, 4, 52, 127
2, 565506, Note_on_c, 1, 73, 127
2, 565672, Note_off_c, 1, 73, 127
2, 565675, Note_on_c, 3, 75, 127
2, 565841, Note_off_c, 3, 75, 127
2, 565841, Note_off_c, 4, 52, 127
2, 565843, Note_on_c, 6, 54, 127
2, 565843, Note_on_c, 4, 76, 127
2, 566009, Note_off_c, 4, 76, 127
2, 566012, Note_on_c, 3, 75, 127
2, 566178, Note_off_c, 3, 75, 127
2, 566178, Note_off_c, 6, 54, 127
2, 566180, Note_on_c, 7, 55, 127
2, 566180, Note_on_c, 4, 76, 127
2, 566346, Note_off_c, 4, 76, 127
2, 566349, Note_on_c, 6, 78, 127
2, 566515, Note_off_c, 6, 78, 127
2, 566515, Note_off_c, 7, 55, 127
2, 566517, Note_on_c, 10, 57, 127
2, 566517, Note_on_c, 7, 79, 127
2, 566683, Note_off_c, 7, 79, 127
2, 566686, Note_on_c, 10, 81, 127
2, 566852, Note_off_c, 10, 81, 127
2, 566852, Note_off_c, 10, 57, 127
2, 566854, Note_on_c, 12, 59, 127
2, 566854, Note_on_c, 7, 79, 127
2, 567020, Note_off_c, 7, 79, 127
2, 567023, Note_on_c, 6, 78, 127
2, 567189, Note_off_c, 6, 78, 127
2, 567189, Note_off_c, 12, 59, 127
2, 567191, Note_on_c, 4, 52, 127
2, 567191, Note_on_c, 7, 79, 127
2, 567357, Note_off_c, 7, 79, 127
2, 567360, Note_on_c, 6, 78, 127
2, 567526, Note_off_c, 6, 78, 127
2, 567526, Note_off_c, 4, 52, 127
2, 567528, Note_on_c, 7, 55, 127
2, 567528, Note_on_c, 4, 76, 127
2, 567694, Note_off_c, 4, 76, 127
2, 567697, Note_on_c, 3, 75, 127
2, 567863, Note_off_c, 3, 75, 127
2, 567863, Note_off_c, 7, 55, 127
2, 567865, Note_on_c, 12, 59, 127
2, 567865, Note_on_c, 4, 76, 127
2, 568031, Note_off_c, 4, 76, 127
2, 568034, Note_on_c, 6, 78, 127
2, 568200, Note_off_c, 6, 78, 127
2, 568200, Note_off_c, 12, 59, 127
2, 568202, Note_on_c, 4, 64, 127
2, 568202, Note_on_c, 7, 79, 127
2, 568368, Note_off_c, 7, 79, 127
2, 568368, Note_off_c, 4, 64, 127
2, 568371, Note_on_c, 6, 66, 127
2, 568371, Note_on_c, 10, 81, 127
2, 568537, Note_off_c, 10, 81, 127
2, 568537, Note_off_c, 6, 66, 127
2, 568539, Note_on_c, 7, 67, 127
2, 568539, Note_on_c, 12, 83, 127
2, 568705, Note_off_c, 12, 83, 127
2, 568708, Note_on_c, 0, 84, 127
2, 568874, Note_off_c, 0, 84, 127
2, 568874, Note_off_c, 7, 67, 127
2, 568876, Note_on_c, 6, 66, 127
2, 568876, Note_on_c, 12, 83, 127
2, 569042, Note_off_c, 12, 83, 127
2, 569045, Note_on_c, 10, 81, 127
2, 569211, Note_off_c, 10, 81, 127
2, 569211, Note_off_c, 6, 66, 127
2, 569213, Note_on_c, 7, 67, 127
2, 569213, Note_on_c, 12, 83, 127
2, 569379, Note_off_c, 12, 83, 127
2, 569382, Note_on_c, 4, 76, 127
2, 569548, Note_off_c, 4, 76, 127
2, 569548, Note_off_c, 7, 67, 127
2, 569550, Note_on_c, 6, 66, 127
2, 569550, Note_on_c, 6, 78, 127
2, 569716, Note_off_c, 6, 78, 127
2, 569716, Note_off_c, 6, 66, 127
2, 569718, Note_on_c, 4, 64, 127
2, 569718, Note_on_c, 7, 79, 127
2, 569884, Note_off_c, 7, 79, 127
2, 569884, Note_off_c, 4, 64, 127
2, 569887, Note_on_c, 6, 66, 127
2, 569887, Note_on_c, 10, 81, 127
2, 570053, Note_off_c, 10, 81, 127
2, 570053, Note_off_c, 6, 66, 127
2, 570055, Note_on_c, 7, 67, 127
2, 570055, Note_on_c, 12, 83, 127
2, 570221, Note_off_c, 12, 83, 127
2, 570221, Note_off_c, 7, 67, 127
2, 570224, Note_on_c, 10, 69, 127
2, 570224, Note_on_c, 0, 84, 127
2, 570390, Note_off_c, 0, 84, 127
2, 570392, Note_on_c, 2, 74, 127
2, 570558, Note_off_c, 2, 74, 127
2, 570559, Note_off_c, 10, 69, 127
2, 570561, Note_on_c, 6, 66, 127
2, 570561, Note_on_c, 4, 76, 127
2, 570727, Note_off_c, 4, 76, 127
2, 570729, Note_on_c, 6, 78, 127
2, 570895, Note_off_c, 6, 78, 127
2, 570896, Note_off_c, 6, 66, 127
2, 570898, Note_on_c, 2, 62, 127
2, 570898, Note_on_c, 7, 79, 127
2, 571064, Note_off_c, 7, 79, 127
2, 571066, Note_on_c, 10, 81, 127
2, 571232, Note_off_c, 10, 81, 127
2, 571233, Note_off_c, 2, 62, 127
2, 571235, Note_on_c, 7, 67, 127
2, 571235, Note_on_c, 12, 83, 127
2, 571401, Note_off_c, 7, 67, 127
2, 571403, Note_on_c, 6, 66, 127
2, 571569, Note_off_c, 6, 66, 127
2, 571570, Note_off_c, 12, 83, 127
2, 571572, Note_on_c, 4, 64, 127
2, 571572, Note_on_c, 12, 71, 127
2, 571738, Note_off_c, 4, 64, 127
2, 571740, Note_on_c, 2, 62, 127
2, 571906, Note_off_c, 2, 62, 127
2, 571907, Note_off_c, 12, 71, 127
2, 571909, Note_on_c, 0, 60, 127
2, 571909, Note_on_c, 4, 76, 127
2, 571991, Note_off_c, 4, 76, 127
2, 571993, Note_on_c, 3, 75, 127
2, 572075, Note_off_c, 3, 75, 127
2, 572075, Note_off_c, 0, 60, 127
2, 572077, Note_on_c, 12, 59, 127
2, 572077, Note_on_c, 4, 76, 127
2, 572243, Note_off_c, 12, 59, 127
2, 572246, Note_on_c, 0, 60, 127
2, 572412, Note_off_c, 0, 60, 127
2, 572412, Note_off_c, 4, 76, 127
2, 572414, Note_on_c, 10, 57, 127
2, 572414, Note_on_c, 6, 78, 127
2, 572580, Note_off_c, 6, 78, 127
2, 572580, Note_off_c, 10, 57, 127
2, 572583, Note_on_c, 12, 59, 127
2, 572583, Note_on_c, 7, 79, 127
2, 572694, Note_off_c, 7, 79, 127
2, 572696, Note_on_c, 6, 78, 127
2, 572753, Note_on_c, 7, 79, 127
2, 572778, Note_off_c, 6, 78, 127
2, 572808, Note_on_c, 6, 78, 127
2, 572834, Note_off_c, 7, 79, 127
2, 572863, Note_on_c, 7, 79, 127
2, 572889, Note_off_c, 6, 78, 127
2, 572916, Note_off_c, 12, 59, 127
2, 572918, Note_on_c, 12, 47, 127
2, 572918, Note_on_c, 6, 78, 127
2, 572944, Note_off_c, 7, 79, 127
2, 573084, Note_off_c, 6, 78, 127
2, 573086, Note_on_c, 4, 76, 127
2, 573252, Note_off_c, 4, 76, 127
2, 573253, Note_off_c, 12, 47, 127
2, 573255, Note_on_c, 4, 52, 127
2, 573255, Note_on_c, 4, 76, 127
2, 573591, Note_off_c, 4, 52, 127
2, 573594, Note_on_c, 4, 40, 127
2, 573930, Note_off_c, 4, 40, 127
2, 573930, Note_off_c, 4, 76, 127
2, 573932, Note_on_c, 8, 68, 127
2, 573932, Note_on_c, 4, 64, 127
2, 573932, Note_on_c, 12, 83, 127
2, 574098, Note_off_c, 8, 68, 127
2, 574101, Note_on_c, 10, 69, 127
2, 574265, Note_off_c, 4, 64, 127
2, 574267, Note_off_c, 10, 69, 127
2, 574267, Note_off_c, 12, 83, 127
2, 574269, Note_on_c, 4, 64, 127
2, 574269, Note_on_c, 12, 71, 127
2, 574269, Note_on_c, 8, 80, 127
2, 574605, Note_off_c, 8, 80, 127
2, 574605, Note_off_c, 12, 71, 127
2, 574608, Note_on_c, 10, 69, 127
2, 574608, Note_on_c, 10, 81, 127
2, 574774, Note_off_c, 10, 81, 127
2, 574776, Note_on_c, 8, 80, 127
2, 574942, Note_off_c, 8, 80, 127
2, 574943, Note_off_c, 10, 69, 127
2, 574945, Note_on_c, 8, 68, 127
2, 574945, Note_on_c, 6, 78, 127
2, 575111, Note_off_c, 6, 78, 127
2, 575113, Note_on_c, 4, 76, 127
2, 575279, Note_off_c, 4, 76, 127
2, 575280, Note_off_c, 8, 68, 127
2, 575282, Note_on_c, 10, 69, 127
2, 575282, Note_on_c, 6, 78, 127
2, 575448, Note_off_c, 6, 78, 127
2, 575450, Note_on_c, 3, 75, 127
2, 575616, Note_off_c, 3, 75, 127
2, 575617, Note_off_c, 10, 69, 127
2, 575619, Note_on_c, 8, 68, 127
2, 575619, Note_on_c, 4, 76, 127
2, 575785, Note_off_c, 8, 68, 127
2, 575787, Note_on_c, 6, 66, 127
2, 575953, Note_off_c, 6, 66, 127
2, 575954, Note_off_c, 4, 76, 127
2, 575955, Note_on_c, 10, 69, 127
2, 575955, Note_on_c, 12, 71, 127
2, 576121, Note_off_c, 10, 69, 127
2, 576124, Note_on_c, 8, 68, 127
2, 576290, Note_off_c, 8, 68, 127
2, 576290, Note_off_c, 12, 71, 127
2, 576292, Note_on_c, 10, 69, 127
2, 576292, Note_on_c, 1, 73, 127
2, 576628, Note_off_c, 1, 73, 127
2, 576628, Note_off_c, 10, 69, 127
2, 576631, Note_on_c, 8, 68, 127
2, 576631, Note_on_c, 12, 71, 127
2, 576958, Note_off_c, 4, 64, 127
2, 576966, Note_off_c, 12, 71, 127
2, 576966, Note_off_c, 8, 68, 127
2, 576968, Note_on_c, 6, 66, 127
2, 576968, Note_on_c, 3, 63, 127
2, 576968, Note_on_c, 10, 69, 127
2, 577304, Note_off_c, 10, 69, 127
2, 577304, Note_off_c, 3, 63, 127
2, 577304, Note_off_c, 6, 66, 127
2, 577307, Note_on_c, 4, 64, 127
2, 577307, Note_on_c, 8, 68, 127
2, 577473, Note_off_c, 8, 68, 127
2, 577475, Note_on_c, 6, 66, 127
2, 577640, Note_off_c, 4, 64, 127
2, 577641, Note_off_c, 6, 66, 127
2, 577644, Note_on_c, 4, 64, 127
2, 577812, Note_on_c, 6, 66, 127
2, 577978, Note_off_c, 6, 66, 127
2, 577980, Note_on_c, 8, 68, 127
2, 577980, Note_on_c, 12, 83, 127
2, 578146, Note_off_c, 8, 68, 127
2, 578149, Note_on_c, 10, 69, 127
2, 578315, Note_off_c, 10, 69, 127
2, 578315, Note_off_c, 12, 83, 127
2, 578317, Note_on_c, 12, 71, 127
2, 578317, Note_on_c, 8, 80, 127
2, 578653, Note_off_c, 8, 80, 127
2, 578653, Note_off_c, 12, 71, 127
2, 578656, Note_on_c, 10, 69, 127
2, 578656, Note_on_c, 10, 81, 127
2, 578822, Note_off_c, 10, 81, 127
2, 578824, Note_on_c, 8, 80, 127
2, 578990, Note_off_c, 8, 80, 127
2, 578991, Note_off_c, 10, 69, 127
2, 578993, Note_on_c, 8, 68, 127
2, 578993, Note_on_c, 6, 78, 127
2, 579159, Note_off_c, 6, 78, 127
2, 579161, Note_on_c, 4, 76, 127
2, 579327, Note_off_c, 4, 76, 127
2, 579328, Note_off_c, 8, 68, 127
2, 579330, Note_on_c, 10, 69, 127
2, 579330, Note_on_c, 6, 78, 127
2, 579496, Note_off_c, 6, 78, 127
2, 579498, Note_on_c, 3, 75, 127
2, 579664, Note_off_c, 3, 75, 127
2, 579665, Note_off_c, 10, 69, 127
2, 579667, Note_on_c, 8, 68, 127
2, 579667, Note_on_c, 4, 76, 127
2, 579833, Note_off_c, 8, 68, 127
2, 579835, Note_on_c, 6, 66, 127
2, 580001, Note_off_c, 6, 66, 127
2, 580002, Note_off_c, 4, 76, 127
2, 580004, Note_on_c, 10, 69, 127
2, 580004, Note_on_c, 12, 71, 127
2, 580170, Note_off_c, 10, 69, 127
2, 580172, Note_on_c, 8, 68, 127
2, 580331, Note_off_c, 4, 64, 127
2, 580338, Note_off_c, 8, 68, 127
2, 580339, Note_off_c, 12, 71, 127
2, 580341, Note_on_c, 10, 57, 127
2, 580341, Note_on_c, 1, 73, 127
2, 580341, Note_on_c, 10, 69, 127
2, 580677, Note_off_c, 10, 69, 127
2, 580677, Note_off_c, 1, 73, 127
2, 580677, Note_off_c, 10, 57, 127
2, 580679, Note_on_c, 12, 59, 127
2, 580679, Note_on_c, 12, 71, 127
2, 580679, Note_on_c, 8, 68, 127
2, 581015, Note_off_c, 8, 68, 127
2, 581015, Note_off_c, 12, 71, 127
2, 581015, Note_off_c, 12, 59, 127
2, 581018, Note_on_c, 12, 47, 127
2, 581018, Note_on_c, 6, 66, 127
2, 581018, Note_on_c, 10, 69, 127
2, 581354, Note_off_c, 10, 69, 127
2, 581354, Note_off_c, 6, 66, 127
2, 581354, Note_off_c, 12, 47, 127
2, 581357, Note_on_c, 4, 52, 127
2, 581357, Note_on_c, 8, 68, 127
2, 581357, Note_on_c, 4, 64, 127
2, 581693, Note_off_c, 4, 52, 127
2, 581695, Note_on_c, 12, 59, 127
2, 582031, Note_off_c, 12, 59, 127
2, 582032, Note_off_c, 4, 64, 127
2, 582032, Note_off_c, 8, 68, 127
2, 582034, Note_on_c, 4, 64, 127
2, 582034, Note_on_c, 8, 80, 127
2, 582034, Note_on_c, 12, 71, 127
2, 582370, Note_off_c, 12, 71, 127
2, 582370, Note_off_c, 8, 80, 127
2, 582370, Note_off_c, 4, 64, 127
2, 582372, Note_on_c, 3, 63, 127
2, 582372, Note_on_c, 12, 71, 127
2, 582372, Note_on_c, 6, 78, 127
2, 582708, Note_off_c, 6, 78, 127
2, 582708, Note_off_c, 3, 63, 127
2, 582711, Note_on_c, 4, 64, 127
2, 582711, Note_on_c, 4, 76, 127
2, 582877, Note_off_c, 4, 76, 127
2, 582879, Note_on_c, 3, 75, 127
2, 583041, Note_off_c, 12, 71, 127
2, 583045, Note_off_c, 3, 75, 127
2, 583046, Note_off_c, 4, 64, 127
2, 583048, Note_on_c, 6, 66, 127
2, 583048, Note_on_c, 1, 73, 127
2, 583214, Note_off_c, 1, 73, 127
2, 583216, Note_on_c, 12, 71, 127
2, 583383, Note_off_c, 6, 66, 127
2, 583385, Note_on_c, 8, 68, 127
2, 583385, Note_on_c, 4, 76, 127
2, 583549, Note_off_c, 12, 71, 127
2, 583551, Note_off_c, 4, 76, 127
2, 583553, Note_on_c, 1, 73, 127
2, 583719, Note_off_c, 1, 73, 127
2, 583720, Note_off_c, 8, 68, 127
2, 583722, Note_on_c, 11, 70, 127
2, 583722, Note_on_c, 1, 73, 127
2, 583722, Note_on_c, 6, 78, 127
2, 584058, Note_off_c, 6, 78, 127
2, 584058, Note_off_c, 11, 70, 127
2, 584060, Note_on_c, 6, 66, 127
2, 584060, Note_on_c, 4, 76, 127
2, 584392, Note_off_c, 1, 73, 127
2, 584396, Note_off_c, 4, 76, 127
2, 584396, Note_off_c, 6, 66, 127
2, 584399, Note_on_c, 12, 71, 127
2, 584399, Note_on_c, 3, 75, 127
2, 584735, Note_off_c, 3, 75, 127
2, 584735, Note_off_c, 12, 71, 127
2, 584737, Note_on_c, 11, 70, 127
2, 584737, Note_on_c, 4, 76, 127
2, 584903, Note_off_c, 4, 76, 127
2, 584906, Note_on_c, 3, 75, 127
2, 585072, Note_off_c, 3, 75, 127
2, 585072, Note_off_c, 11, 70, 127
2, 585074, Note_on_c, 8, 68, 127
2, 585074, Note_on_c, 1, 73, 127
2, 585240, Note_off_c, 1, 73, 127
2, 585243, Note_on_c, 12, 71, 127
2, 585409, Note_off_c, 12, 71, 127
2, 585409, Note_off_c, 8, 68, 127
2, 585411, Note_on_c, 6, 66, 127
2, 585411, Note_on_c, 1, 73, 127
2, 585411, Note_on_c, 11, 70, 127
2, 585746, Note_off_c, 6, 66, 127
2, 585747, Note_off_c, 11, 70, 127
2, 585747, Note_off_c, 1, 73, 127
2, 585750, Note_on_c, 6, 66, 127
2, 585918, Note_on_c, 8, 68, 127
2, 586083, Note_off_c, 6, 66, 127
2, 586084, Note_off_c, 8, 68, 127
2, 586087, Note_on_c, 6, 66, 127
2, 586087, Note_on_c, 11, 70, 127
2, 586253, Note_off_c, 11, 70, 127
2, 586255, Note_on_c, 12, 71, 127
2, 586255, Note_on_c, 8, 68, 127
2, 586421, Note_off_c, 8, 68, 127
2, 586421, Note_off_c, 12, 71, 127
2, 586424, Note_on_c, 1, 73, 127
2, 586424, Note_on_c, 11, 70, 127
2, 586590, Note_off_c, 11, 70, 127
2, 586590, Note_off_c, 1, 73, 127
2, 586592, Note_on_c, 3, 75, 127
2, 586758, Note_off_c, 3, 75, 127
2, 586761, Note_on_c, 8, 68, 127
2, 586761, Note_on_c, 4, 76, 127
2, 586927, Note_off_c, 4, 76, 127
2, 586927, Note_off_c, 8, 68, 127
2, 586929, Note_on_c, 1, 73, 127
2, 587095, Note_off_c, 1, 73, 127
2, 587096, Note_off_c, 6, 66, 127
2, 587098, Note_on_c, 4, 64, 127
2, 587098, Note_on_c, 8, 80, 127
2, 587098, Note_on_c, 11, 70, 127
2, 587434, Note_off_c, 11, 70, 127
2, 587434, Note_off_c, 8, 80, 127
2, 587434, Note_off_c, 4, 64, 127
2, 587436, Note_on_c, 3, 63, 127
2, 587436, Note_on_c, 6, 78, 127
2, 587436, Note_on_c, 12, 71, 127
2, 587772, Note_off_c, 6, 78, 127
2, 587772, Note_off_c, 3, 63, 127
2, 587775, Note_on_c, 8, 68, 127
2, 587775, Note_on_c, 4, 76, 127
2, 587941, Note_off_c, 4, 76, 127
2, 587941, Note_off_c, 8, 68, 127
2, 587943, Note_on_c, 6, 66, 127
2, 587943, Note_on_c, 3, 75, 127
2, 588105, Note_off_c, 12, 71, 127
2, 588109, Note_off_c, 3, 75, 127
2, 588109, Note_off_c, 6, 66, 127
2, 588112, Note_on_c, 4, 64, 127
2, 588112, Note_on_c, 1, 73, 127
2, 588278, Note_off_c, 1, 73, 127
2, 588278, Note_off_c, 4, 64, 127
2, 588280, Note_on_c, 3, 63, 127
2, 588280, Note_on_c, 12, 71, 127
2, 588446, Note_off_c, 12, 71, 127
2, 588446, Note_off_c, 3, 63, 127
2, 588449, Note_on_c, 1, 61, 127
2, 588449, Note_on_c, 4, 76, 127
2, 588615, Note_off_c, 4, 76, 127
2, 588615, Note_off_c, 1, 61, 127
2, 588617, Note_on_c, 12, 59, 127
2, 588617, Note_on_c, 6, 78, 127
2, 588783, Note_off_c, 6, 78, 127
2, 588783, Note_off_c, 12, 59, 127
2, 588786, Note_on_c, 6, 66, 127
2, 588786, Note_on_c, 3, 75, 127
2, 588786, Note_on_c, 11, 70, 127
2, 588898, Note_on_c, 1, 73, 127
2, 588901, Note_off_c, 3, 75, 127
2, 588974, Note_on_c, 3, 75, 127
2, 588980, Note_off_c, 1, 73, 127
2, 589048, Note_on_c, 1, 73, 127
2, 589055, Note_off_c, 3, 75, 127
2, 589121, Note_off_c, 6, 66, 127
2, 589123, Note_on_c, 6, 54, 127
2, 589123, Note_on_c, 3, 75, 127
2, 589129, Note_off_c, 1, 73, 127
2, 589197, Note_on_c, 1, 73, 127
2, 589204, Note_off_c, 3, 75, 127
2, 589276, Note_off_c, 11, 70, 127
2, 589291, Note_on_c, 12, 71, 127
2, 589299, Note_off_c, 1, 73, 127
2, 589457, Note_off_c, 12, 71, 127
2, 589458, Note_off_c, 6, 54, 127
2, 589460, Note_on_c, 12, 59, 127
2, 589460, Note_on_c, 12, 71, 127
2, 589796, Note_off_c, 12, 59, 127
2, 589798, Note_on_c, 1, 61, 127
2, 590134, Note_off_c, 1, 61, 127
2, 590135, Note_off_c, 12, 71, 127
2, 590137, Note_on_c, 3, 63, 127
2, 590137, Note_on_c, 12, 71, 127
2, 590137, Note_on_c, 6, 66, 127
2, 590473, Note_off_c, 6, 66, 127
2, 590473, Note_off_c, 12, 71, 127
2, 590473, Note_off_c, 3, 63, 127
2, 590476, Note_on_c, 4, 64, 127
2, 590476, Note_on_c, 8, 68, 127
2, 590812, Note_off_c, 8, 68, 127
2, 590814, Note_on_c, 4, 52, 127
2, 590814, Note_on_c, 10, 69, 127
2, 590980, Note_off_c, 10, 69, 127
2, 590983, Note_on_c, 8, 68, 127
2, 591145, Note_off_c, 4, 64, 127
2, 591149, Note_off_c, 8, 68, 127
2, 591149, Note_off_c, 4, 52, 127
2, 591151, Note_on_c, 6, 54, 127
2, 591151, Note_on_c, 6, 66, 127
2, 591317, Note_off_c, 6, 66, 127
2, 591320, Note_on_c, 4, 64, 127
2, 591486, Note_off_c, 6, 54, 127
2, 591488, Note_on_c, 8, 56, 127
2, 591488, Note_on_c, 2, 74, 127
2, 591654, Note_off_c, 2, 74, 127
2, 591657, Note_on_c, 12, 71, 127
2, 591823, Note_off_c, 12, 71, 127
2, 591823, Note_off_c, 8, 56, 127
2, 591825, Note_on_c, 10, 57, 127
2, 591825, Note_on_c, 1, 73, 127
2, 592161, Note_off_c, 1, 73, 127
2, 592161, Note_off_c, 10, 57, 127
2, 592164, Note_on_c, 12, 59, 127
2, 592164, Note_on_c, 3, 75, 127
2, 592500, Note_off_c, 3, 75, 127
2, 592500, Note_off_c, 12, 59, 127
2, 592502, Note_on_c, 1, 61, 127
2, 592502, Note_on_c, 4, 76, 127
2, 592669, Note_off_c, 4, 64, 127
2, 592671, Note_on_c, 6, 66, 127
2, 592835, Note_off_c, 4, 76, 127
2, 592837, Note_off_c, 6, 66, 127
2, 592839, Note_on_c, 8, 68, 127
2, 592839, Note_on_c, 6, 78, 127
2, 593005, Note_off_c, 6, 78, 127
2, 593008, Note_on_c, 4, 76, 127
2, 593172, Note_off_c, 8, 68, 127
2, 593174, Note_off_c, 4, 76, 127
2, 593176, Note_on_c, 11, 70, 127
2, 593176, Note_on_c, 3, 75, 127
2, 593342, Note_off_c, 3, 75, 127
2, 593345, Note_on_c, 1, 73, 127
2, 593509, Note_off_c, 11, 70, 127
2, 593511, Note_off_c, 1, 73, 127
2, 593511, Note_off_c, 1, 61, 127
2, 593513, Note_on_c, 3, 63, 127
2, 593513, Note_on_c, 10, 81, 127
2, 593513, Note_on_c, 12, 71, 127
2, 593679, Note_off_c, 10, 81, 127
2, 593682, Note_on_c, 6, 78, 127
2, 593848, Note_off_c, 6, 78, 127
2, 593848, Note_off_c, 3, 63, 127
2, 593850, Note_on_c, 4, 64, 127
2, 593850, Note_on_c, 8, 80, 127
2, 594149, Note_off_c, 8, 80, 127
2, 594182, Note_off_c, 12, 71, 127
2, 594186, Note_off_c, 4, 64, 127
2, 594189, Note_on_c, 10, 57, 127
2, 594189, Note_on_c, 10, 69, 127
2, 594189, Note_on_c, 6, 78, 127
2, 594530, Note_off_c, 10, 57, 127
2, 594532, Note_on_c, 12, 59, 127
2, 594689, Note_off_c, 10, 69, 127
2, 594702, Note_off_c, 6, 78, 127
2, 594704, Note_on_c, 6, 66, 127
2, 594704, Note_on_c, 3, 75, 127
2, 594874, Note_off_c, 3, 75, 127
2, 594874, Note_off_c, 6, 66, 127
2, 594875, Note_on_c, 8, 68, 127
2, 594875, Note_on_c, 4, 76, 127
2, 595045, Note_off_c, 8, 68, 127
2, 595047, Note_on_c, 4, 64, 127
2, 595215, Note_off_c, 4, 76, 127
2, 595217, Note_off_c, 4, 64, 127
2, 595219, Note_on_c, 10, 69, 127
2, 595219, Note_on_c, 1, 73, 127
2, 595389, Note_off_c, 10, 69, 127
2, 595391, Note_on_c, 1, 61, 127
2, 595561, Note_off_c, 1, 61, 127
2, 595562, Note_on_c, 3, 63, 127
2, 595722, Note_off_c, 1, 73, 127
2, 595737, Note_on_c, 10, 81, 127
2, 595907, Note_off_c, 3, 63, 127
2, 595908, Note_off_c, 10, 81, 127
2, 595909, Note_off_c, 12, 59, 127
2, 595911, Note_on_c, 1, 61, 127
2, 595911, Note_on_c, 4, 64, 127
2, 595911, Note_on_c, 12, 71, 127
2, 596084, Note_off_c, 12, 71, 127
2, 596086, Note_on_c, 8, 80, 127
2, 596256, Note_off_c, 4, 64, 127
2, 596257, Note_off_c, 8, 80, 127
2, 596257, Note_off_c, 1, 61, 127
2, 596259, Note_on_c, 3, 63, 127
2, 596259, Note_on_c, 6, 66, 127
2, 596259, Note_on_c, 10, 69, 127
2, 596432, Note_off_c, 10, 69, 127
2, 596434, Note_on_c, 6, 78, 127
2, 596604, Note_off_c, 6, 66, 127
2, 596605, Note_off_c, 6, 78, 127
2, 596605, Note_off_c, 3, 63, 127
2, 596607, Note_on_c, 4, 64, 127
2, 596607, Note_on_c, 8, 68, 127
2, 596976, Note_off_c, 8, 68, 127
2, 596976, Note_off_c, 4, 64, 127
2, 596978, Note_on_c, 10, 57, 127
2, 596978, Note_on_c, 10, 69, 127
2, 596978, Note_on_c, 6, 66, 127
2, 597373, Note_off_c, 6, 66, 127
2, 597373, Note_off_c, 10, 69, 127
2, 597373, Note_off_c, 10, 57, 127
2, 597375, Note_on_c, 12, 59, 127
2, 597375, Note_on_c, 6, 66, 127
2, 597375, Note_on_c, 3, 63, 127
2, 597815, Note_off_c, 3, 63, 127
2, 597815, Note_off_c, 6, 66, 127
2, 597815, Note_off_c, 12, 59, 127
2, 597817, Note_on_c, 4, 52, 127
2, 597817, Note_on_c, 4, 64, 127
2, 600169, Note_off_c, 4, 64, 127
2, 600169, Note_off_c, 4, 52, 127
2, 600474, Note_on_c, 12, 71, 127
2, 600619, Note_off_c, 12, 71, 127
2, 600622, Note_on_c, 0, 72, 127
2, 600767, Note_off_c, 0, 72, 127
2, 600769, Note_on_c, 12, 71, 127
2, 600914, Note_off_c, 12, 71, 127
2, 600916, Note_on_c, 10, 69, 127
2, 601061, Note_off_c, 10, 69, 127
2, 601064, Note_on_c, 7, 67, 127
2, 601209, Note_off_c, 7, 67, 127
2, 601211, Note_on_c, 6, 66, 127
2, 601356, Note_off_c, 6, 66, 127
2, 601359, Note_on_c, 4, 64, 127
2, 601652, Note_off_c, 4, 64, 127
2, 601654, Note_on_c, 4, 76, 127
2, 601947, Note_off_c, 4, 76, 127
2, 601948, Note_on_c, 3, 75, 127
2, 602241, Note_off_c, 3, 75, 127
2, 602243, Note_on_c, 4, 64, 127
2, 602536, Note_off_c, 4, 64, 127
2, 602538, Note_on_c, 2, 74, 127
2, 602831, Note_off_c, 2, 74, 127
2, 602833, Note_on_c, 1, 73, 127
2, 603126, Note_off_c, 1, 73, 127
2, 603128, Note_on_c, 4, 64, 127
2, 603421, Note_off_c, 4, 64, 127
2, 603423, Note_on_c, 0, 72, 127
2, 603716, Note_off_c, 0, 72, 127
2, 603717, Note_on_c, 12, 71, 127
2, 604010, Note_off_c, 12, 71, 127
2, 604012, Note_on_c, 4, 64, 127
2, 604012, Note_on_c, 11, 70, 127
2, 604157, Note_off_c, 4, 64, 127
2, 604160, Note_on_c, 7, 67, 127
2, 604305, Note_off_c, 7, 67, 127
2, 604305, Note_off_c, 11, 70, 127
2, 604307, Note_on_c, 6, 66, 127
2, 604307, Note_on_c, 12, 71, 127
2, 604452, Note_off_c, 6, 66, 127
2, 604455, Note_on_c, 4, 64, 127
2, 604600, Note_off_c, 4, 64, 127
2, 604600, Note_off_c, 12, 71, 127
2, 604602, Note_on_c, 2, 62, 127
2, 604602, Note_on_c, 1, 73, 127
2, 604747, Note_off_c, 2, 62, 127
2, 604749, Note_on_c, 1, 61, 127
2, 604894, Note_off_c, 1, 61, 127
2, 604895, Note_off_c, 1, 73, 127
2, 604897, Note_on_c, 12, 59, 127
2, 604897, Note_on_c, 2, 74, 127
2, 605042, Note_off_c, 2, 74, 127
2, 605044, Note_on_c, 7, 79, 127
2, 605189, Note_off_c, 7, 79, 127
2, 605190, Note_off_c, 12, 59, 127
2, 605192, Note_on_c, 12, 71, 127
2, 605192, Note_on_c, 5, 77, 127
2, 605337, Note_off_c, 5, 77, 127
2, 605339, Note_on_c, 1, 73, 127
2, 605484, Note_off_c, 1, 73, 127
2, 605485, Note_off_c, 12, 71, 127
2, 605486, Note_on_c, 11, 70, 127
2, 605486, Note_on_c, 6, 78, 127
2, 605631, Note_off_c, 6, 78, 127
2, 605634, Note_on_c, 4, 76, 127
2, 605779, Note_off_c, 4, 76, 127
2, 605779, Note_off_c, 11, 70, 127
2, 605781, Note_on_c, 12, 59, 127
2, 605781, Note_on_c, 3, 75, 127
2, 605926, Note_off_c, 3, 75, 127
2, 605929, Note_on_c, 6, 78, 127
2, 606074, Note_off_c, 6, 78, 127
2, 606074, Note_off_c, 12, 59, 127
2, 606076, Note_on_c, 10, 69, 127
2, 606076, Note_on_c, 3, 75, 127
2, 606221, Note_off_c, 3, 75, 127
2, 606224, Note_on_c, 12, 71, 127
2, 606369, Note_off_c, 12, 71, 127
2, 606369, Note_off_c, 10, 69, 127
2, 606371, Note_on_c, 8, 68, 127
2, 606371, Note_on_c, 4, 76, 127
2, 606516, Note_off_c, 4, 76, 127
2, 606518, Note_on_c, 2, 74, 127
2, 606663, Note_off_c, 2, 74, 127
2, 606664, Note_off_c, 8, 68, 127
2, 606666, Note_on_c, 12, 59, 127
2, 606666, Note_on_c, 1, 73, 127
2, 606811, Note_off_c, 1, 73, 127
2, 606813, Note_on_c, 4, 76, 127
2, 606958, Note_off_c, 4, 76, 127
2, 606959, Note_off_c, 12, 59, 127
2, 606961, Note_on_c, 7, 67, 127
2, 606961, Note_on_c, 1, 73, 127
2, 607106, Note_off_c, 1, 73, 127
2, 607108, Note_on_c, 11, 70, 127
2, 607253, Note_off_c, 11, 70, 127
2, 607254, Note_off_c, 7, 67, 127
2, 607255, Note_on_c, 6, 66, 127
2, 607255, Note_on_c, 2, 74, 127
2, 607400, Note_off_c, 2, 74, 127
2, 607403, Note_on_c, 12, 71, 127
2, 607548, Note_off_c, 12, 71, 127
2, 607548, Note_off_c, 6, 66, 127
2, 607550, Note_on_c, 4, 64, 127
2, 607550, Note_on_c, 0, 72, 127
2, 607695, Note_off_c, 4, 64, 127
2, 607698, Note_on_c, 10, 69, 127
2, 607843, Note_off_c, 10, 69, 127
2, 607843, Note_off_c, 0, 72, 127
2, 607845, Note_on_c, 6, 66, 127
2, 607845, Note_on_c, 10, 81, 127
2, 607990, Note_off_c, 6, 66, 127
2, 607993, Note_on_c, 2, 62, 127
2, 608138, Note_off_c, 2, 62, 127
2, 608138, Note_off_c, 10, 81, 127
2, 608140, Note_on_c, 7, 67, 127
2, 608140, Note_on_c, 12, 71, 127
2, 608285, Note_off_c, 7, 67, 127
2, 608287, Note_on_c, 6, 66, 127
2, 608432, Note_off_c, 6, 66, 127
2, 608435, Note_on_c, 4, 64, 127
2, 608580, Note_off_c, 4, 64, 127
2, 608582, Note_on_c, 7, 67, 127
2, 608727, Note_off_c, 7, 67, 127
2, 608728, Note_off_c, 12, 71, 127
2, 608730, Note_on_c, 4, 64, 127
2, 608730, Note_on_c, 7, 79, 127
2, 608875, Note_off_c, 4, 64, 127
2, 608877, Note_on_c, 1, 61, 127
2, 609022, Note_off_c, 1, 61, 127
2, 609023, Note_off_c, 7, 79, 127
2, 609025, Note_on_c, 6, 66, 127
2, 609025, Note_on_c, 10, 69, 127
2, 609170, Note_off_c, 6, 66, 127
2, 609172, Note_on_c, 4, 64, 127
2, 609317, Note_off_c, 4, 64, 127
2, 609319, Note_on_c, 3, 63, 127
2, 609464, Note_off_c, 3, 63, 127
2, 609467, Note_on_c, 6, 66, 127
2, 609612, Note_off_c, 6, 66, 127
2, 609613, Note_off_c, 10, 69, 127
2, 609614, Note_on_c, 3, 63, 127
2, 609614, Note_on_c, 6, 78, 127
2, 609759, Note_off_c, 3, 63, 127
2, 609762, Note_on_c, 12, 59, 127
2, 609907, Note_off_c, 12, 59, 127
2, 609907, Note_off_c, 6, 78, 127
2, 609909, Note_on_c, 4, 64, 127
2, 609909, Note_on_c, 7, 67, 127
2, 610054, Note_off_c, 4, 64, 127
2, 610056, Note_on_c, 2, 62, 127
2, 610201, Note_off_c, 2, 62, 127
2, 610204, Note_on_c, 0, 60, 127
2, 610349, Note_off_c, 7, 67, 127
2, 610351, Note_on_c, 12, 71, 127
2, 610496, Note_off_c, 12, 71, 127
2, 610497, Note_off_c, 0, 60, 127
2, 610499, Note_on_c, 12, 71, 127
2, 610499, Note_on_c, 3, 75, 127
2, 610644, Note_off_c, 3, 75, 127
2, 610646, Note_on_c, 4, 76, 127
2, 610792, Note_off_c, 12, 71, 127
2, 610794, Note_on_c, 10, 69, 127
2, 610939, Note_off_c, 4, 76, 127
2, 610941, Note_on_c, 6, 78, 127
2, 611086, Note_off_c, 6, 78, 127
2, 611087, Note_off_c, 10, 69, 127
2, 611088, Note_on_c, 12, 59, 127
2, 611088, Note_on_c, 12, 71, 127
2, 611088, Note_on_c, 3, 75, 127
2, 611233, Note_off_c, 12, 59, 127
2, 611236, Note_on_c, 0, 60, 127
2, 611381, Note_off_c, 0, 60, 127
2, 611381, Note_off_c, 3, 75, 127
2, 611381, Note_off_c, 12, 71, 127
2, 611383, Note_on_c, 12, 59, 127
2, 611383, Note_on_c, 4, 76, 127
2, 611383, Note_on_c, 1, 73, 127
2, 611528, Note_off_c, 12, 59, 127
2, 611531, Note_on_c, 10, 57, 127
2, 611676, Note_off_c, 10, 57, 127
2, 611676, Note_off_c, 1, 73, 127
2, 611676, Note_off_c, 4, 76, 127
2, 611678, Note_on_c, 7, 55, 127
2, 611678, Note_on_c, 3, 75, 127
2, 611678, Note_on_c, 6, 78, 127
2, 611823, Note_off_c, 7, 55, 127
2, 611826, Note_on_c, 6, 54, 127
2, 611971, Note_off_c, 6, 54, 127
2, 611971, Note_off_c, 6, 78, 127
2, 611971, Note_off_c, 3, 75, 127
2, 611973, Note_on_c, 4, 52, 127
2, 611973, Note_on_c, 7, 79, 127
2, 611973, Note_on_c, 4, 76, 127
2, 612118, Note_off_c, 4, 76, 127
2, 612120, Note_on_c, 0, 72, 127
2, 612264, Note_off_c, 7, 79, 127
2, 612265, Note_off_c, 0, 72, 127
2, 612266, Note_off_c, 4, 52, 127
2, 612268, Note_on_c, 4, 64, 127
2, 612268, Note_on_c, 11, 70, 127
2, 612268, Note_on_c, 6, 78, 127
2, 612413, Note_off_c, 11, 70, 127
2, 612415, Note_on_c, 6, 66, 127
2, 612559, Note_off_c, 6, 78, 127
2, 612560, Note_off_c, 6, 66, 127
2, 612561, Note_off_c, 4, 64, 127
2, 612563, Note_on_c, 3, 63, 127
2, 612563, Note_on_c, 12, 71, 127
2, 612708, Note_off_c, 12, 71, 127
2, 612710, Note_on_c, 10, 69, 127
2, 612855, Note_off_c, 10, 69, 127
2, 612856, Note_off_c, 3, 63, 127
2, 612857, Note_on_c, 4, 52, 127
2, 612857, Note_on_c, 5, 77, 127
2, 612857, Note_on_c, 8, 68, 127
2, 613002, Note_off_c, 8, 68, 127
2, 613005, Note_on_c, 12, 71, 127
2, 613148, Note_off_c, 5, 77, 127
2, 613150, Note_off_c, 12, 71, 127
2, 613150, Note_off_c, 4, 52, 127
2, 613152, Note_on_c, 2, 62, 127
2, 613152, Note_on_c, 4, 76, 127
2, 613152, Note_on_c, 8, 68, 127
2, 613297, Note_off_c, 8, 68, 127
2, 613300, Note_on_c, 4, 64, 127
2, 613443, Note_off_c, 4, 76, 127
2, 613445, Note_off_c, 4, 64, 127
2, 613445, Note_off_c, 2, 62, 127
2, 613447, Note_on_c, 1, 61, 127
2, 613447, Note_on_c, 10, 69, 127
2, 613592, Note_off_c, 10, 69, 127
2, 613595, Note_on_c, 7, 67, 127
2, 613740, Note_off_c, 7, 67, 127
2, 613740, Note_off_c, 1, 61, 127
2, 613742, Note_on_c, 4, 52, 127
2, 613742, Note_on_c, 3, 75, 127
2, 613742, Note_on_c, 6, 66, 127
2, 613887, Note_off_c, 6, 66, 127
2, 613889, Note_on_c, 10, 69, 127
2, 614034, Note_off_c, 10, 69, 127
2, 614035, Note_off_c, 4, 52, 127
2, 614037, Note_on_c, 0, 60, 127
2, 614037, Note_on_c, 6, 66, 127
2, 614171, Note_off_c, 3, 75, 127
2, 614182, Note_off_c, 6, 66, 127
2, 614184, Note_on_c, 3, 63, 127
2, 614329, Note_off_c, 3, 63, 127
2, 614330, Note_off_c, 0, 60, 127
2, 614332, Note_on_c, 12, 59, 127
2, 614332, Note_on_c, 7, 67, 127
2, 614332, Note_on_c, 4, 76, 127
2, 614477, Note_off_c, 7, 67, 127
2, 614479, Note_on_c, 4, 64, 127
2, 614624, Note_off_c, 4, 64, 127
2, 614625, Note_off_c, 12, 59, 127
2, 614626, Note_on_c, 10, 57, 127
2, 614626, Note_on_c, 6, 66, 127
2, 614771, Note_off_c, 10, 57, 127
2, 614774, Note_on_c, 2, 62, 127
2, 614915, Note_off_c, 4, 76, 127
2, 614919, Note_off_c, 2, 62, 127
2, 614919, Note_off_c, 6, 66, 127
2, 614921, Note_on_c, 12, 59, 127
2, 614921, Note_on_c, 5, 65, 127
2, 614921, Note_on_c, 2, 74, 127
2, 615066, Note_off_c, 12, 59, 127
2, 615069, Note_on_c, 7, 55, 127
2, 615214, Note_off_c, 7, 55, 127
2, 615214, Note_off_c, 5, 65, 127
2, 615216, Note_on_c, 0, 60, 127
2, 615216, Note_on_c, 4, 64, 127
2, 615361, Note_off_c, 0, 60, 127
2, 615364, Note_on_c, 12, 59, 127
2, 615504, Note_off_c, 2, 74, 127
2, 615509, Note_off_c, 12, 59, 127
2, 615511, Note_on_c, 10, 57, 127
2, 615511, Note_on_c, 0, 72, 127
2, 615656, Note_off_c, 10, 57, 127
2, 615658, Note_on_c, 0, 60, 127
2, 615799, Note_off_c, 4, 64, 127
2, 615803, Note_off_c, 0, 60, 127
2, 615806, Note_on_c, 10, 57, 127
2, 615806, Note_on_c, 4, 64, 127
2, 615951, Note_off_c, 10, 57, 127
2, 615953, Note_on_c, 6, 54, 127
2, 616098, Note_off_c, 6, 54, 127
2, 616099, Note_off_c, 4, 64, 127
2, 616101, Note_on_c, 12, 59, 127
2, 616101, Note_on_c, 3, 63, 127
2, 616246, Note_off_c, 12, 59, 127
2, 616248, Note_on_c, 10, 57, 127
2, 616393, Note_off_c, 10, 57, 127
2, 616393, Note_off_c, 0, 72, 127
2, 616396, Note_on_c, 8, 56, 127
2, 616396, Note_on_c, 12, 71, 127
2, 616541, Note_off_c, 8, 56, 127
2, 616543, Note_on_c, 12, 59, 127
2, 616684, Note_off_c, 3, 63, 127
2, 616688, Note_off_c, 12, 59, 127
2, 616690, Note_on_c, 8, 56, 127
2, 616690, Note_on_c, 2, 62, 127
2, 616835, Note_off_c, 8, 56, 127
2, 616838, Note_on_c, 4, 52, 127
2, 616979, Note_off_c, 12, 71, 127
2, 616983, Note_off_c, 4, 52, 127
2, 616983, Note_off_c, 2, 62, 127
2, 616985, Note_on_c, 10, 57, 127
2, 616985, Note_on_c, 1, 61, 127
2, 617130, Note_off_c, 10, 57, 127
2, 617133, Note_on_c, 7, 55, 127
2, 617278, Note_off_c, 7, 55, 127
2, 617278, Note_off_c, 1, 61, 127
2, 617280, Note_on_c, 6, 54, 127
2, 617280, Note_on_c, 0, 60, 127
2, 617280, Note_on_c, 10, 69, 127
2, 617425, Note_off_c, 10, 69, 127
2, 617427, Note_on_c, 4, 64, 127
2, 617571, Note_off_c, 0, 60, 127
2, 617572, Note_off_c, 4, 64, 127
2, 617575, Note_on_c, 4, 64, 127
2, 617575, Note_on_c, 10, 69, 127
2, 617709, Note_off_c, 6, 54, 127
2, 617720, Note_off_c, 10, 69, 127
2, 617722, Note_on_c, 0, 72, 127
2, 617868, Note_off_c, 4, 64, 127
2, 617870, Note_on_c, 3, 63, 127
2, 617870, Note_on_c, 6, 66, 127
2, 618013, Note_off_c, 0, 72, 127
2, 618017, Note_on_c, 12, 71, 127
2, 618161, Note_off_c, 6, 66, 127
2, 618162, Note_off_c, 12, 71, 127
2, 618163, Note_off_c, 3, 63, 127
2, 618165, Note_on_c, 4, 64, 127
2, 618165, Note_on_c, 7, 67, 127
2, 618310, Note_off_c, 7, 67, 127
2, 618312, Note_on_c, 12, 71, 127
2, 618457, Note_off_c, 12, 71, 127
2, 618458, Note_off_c, 4, 64, 127
2, 618459, Note_on_c, 4, 52, 127
2, 618459, Note_on_c, 4, 76, 127
2, 618604, Note_off_c, 4, 76, 127
2, 618607, Note_on_c, 7, 79, 127
2, 618752, Note_off_c, 7, 79, 127
2, 618752, Note_off_c, 4, 52, 127
2, 618754, Note_on_c, 2, 50, 127
2, 618754, Note_on_c, 6, 78, 127
2, 618899, Note_off_c, 6, 78, 127
2, 618902, Note_on_c, 12, 71, 127
2, 619047, Note_off_c, 12, 71, 127
2, 619047, Note_off_c, 2, 50, 127
2, 619049, Note_on_c, 0, 48, 127
2, 619049, Note_on_c, 4, 76, 127
2, 619194, Note_off_c, 4, 76, 127
2, 619197, Note_on_c, 0, 72, 127
2, 619342, Note_off_c, 0, 72, 127
2, 619342, Note_off_c, 0, 48, 127
2, 619344, Note_on_c, 0, 60, 127
2, 619344, Note_on_c, 10, 69, 127
2, 619489, Note_off_c, 10, 69, 127
2, 619491, Note_on_c, 6, 66, 127
2, 619636, Note_off_c, 6, 66, 127
2, 619637, Note_off_c, 0, 60, 127
2, 619639, Note_on_c, 12, 59, 127
2, 619639, Note_on_c, 7, 67, 127
2, 619784, Note_off_c, 7, 67, 127
2, 619786, Note_on_c, 2, 74, 127
2, 619931, Note_off_c, 2, 74, 127
2, 619932, Note_off_c, 12, 59, 127
2, 619934, Note_on_c, 10, 57, 127
2, 619934, Note_on_c, 0, 60, 127
2, 620079, Note_off_c, 0, 60, 127
2, 620081, Note_on_c, 6, 66, 127
2, 620226, Note_off_c, 6, 66, 127
2, 620227, Note_off_c, 10, 57, 127
2, 620228, Note_on_c, 10, 45, 127
2, 620228, Note_on_c, 10, 69, 127
2, 620373, Note_off_c, 10, 69, 127
2, 620376, Note_on_c, 0, 72, 127
2, 620521, Note_off_c, 0, 72, 127
2, 620521, Note_off_c, 10, 45, 127
2, 620523, Note_on_c, 7, 43, 127
2, 620523, Note_on_c, 12, 71, 127
2, 620668, Note_off_c, 12, 71, 127
2, 620671, Note_on_c, 4, 64, 127
2, 620816, Note_off_c, 4, 64, 127
2, 620816, Note_off_c, 7, 43, 127
2, 620818, Note_on_c, 6, 42, 127
2, 620818, Note_on_c, 10, 69, 127
2, 620963, Note_off_c, 10, 69, 127
2, 620966, Note_on_c, 6, 66, 127
2, 621111, Note_off_c, 6, 66, 127
2, 621111, Note_off_c, 6, 42, 127
2, 621113, Note_on_c, 6, 54, 127
2, 621113, Note_on_c, 3, 63, 127
2, 621258, Note_off_c, 3, 63, 127
2, 621260, Note_on_c, 12, 59, 127
2, 621405, Note_off_c, 12, 59, 127
2, 621406, Note_off_c, 6, 54, 127
2, 621408, Note_on_c, 4, 52, 127
2, 621408, Note_on_c, 0, 60, 127
2, 621553, Note_off_c, 0, 60, 127
2, 621555, Note_on_c, 10, 69, 127
2, 621700, Note_off_c, 10, 69, 127
2, 621701, Note_off_c, 4, 52, 127
2, 621703, Note_on_c, 3, 51, 127
2, 621703, Note_on_c, 12, 59, 127
2, 621848, Note_off_c, 12, 59, 127
2, 621850, Note_on_c, 3, 63, 127
2, 621995, Note_off_c, 3, 63, 127
2, 621997, Note_on_c, 6, 66, 127
2, 622142, Note_off_c, 6, 66, 127
2, 622145, Note_on_c, 10, 69, 127
2, 622290, Note_off_c, 10, 69, 127
2, 622292, Note_on_c, 7, 67, 127
2, 622437, Note_off_c, 7, 67, 127
2, 622440, Note_off_c, 3, 51, 127
2, 622440, Note_on_c, 6, 66, 127
2, 622585, Note_off_c, 6, 66, 127
2, 622587, Note_on_c, 4, 52, 127
2, 622587, Note_on_c, 7, 67, 127
2, 622732, Note_off_c, 4, 52, 127
2, 622735, Note_on_c, 7, 55, 127
2, 622880, Note_off_c, 7, 55, 127
2, 622882, Note_on_c, 12, 59, 127
2, 623027, Note_off_c, 12, 59, 127
2, 623027, Note_off_c, 7, 67, 127
2, 623029, Note_on_c, 2, 62, 127
2, 623029, Note_on_c, 6, 66, 127
2, 623174, Note_off_c, 6, 66, 127
2, 623174, Note_off_c, 2, 62, 127
2, 623177, Note_on_c, 1, 61, 127
2, 623177, Note_on_c, 4, 64, 127
2, 623322, Note_off_c, 4, 64, 127
2, 623322, Note_off_c, 1, 61, 127
2, 623324, Note_on_c, 12, 59, 127
2, 623324, Note_on_c, 2, 62, 127
2, 623469, Note_off_c, 2, 62, 127
2, 623469, Note_off_c, 12, 59, 127
2, 623472, Note_on_c, 11, 58, 127
2, 623472, Note_on_c, 1, 61, 127
2, 623472, Note_on_c, 6, 78, 127
2, 623617, Note_off_c, 6, 78, 127
2, 623619, Note_on_c, 7, 79, 127
2, 623764, Note_off_c, 7, 79, 127
2, 623765, Note_off_c, 1, 61, 127
2, 623767, Note_on_c, 2, 62, 127
2, 623767, Note_on_c, 6, 78, 127
2, 623912, Note_off_c, 6, 78, 127
2, 623914, Note_on_c, 4, 76, 127
2, 624059, Note_off_c, 4, 76, 127
2, 624060, Note_off_c, 2, 62, 127
2, 624061, Note_on_c, 4, 64, 127
2, 624061, Note_on_c, 2, 74, 127
2, 624206, Note_off_c, 2, 74, 127
2, 624209, Note_on_c, 1, 73, 127
2, 624354, Note_off_c, 1, 73, 127
2, 624354, Note_off_c, 4, 64, 127
2, 624354, Note_off_c, 11, 58, 127
2, 624356, Note_on_c, 3, 63, 127
2, 624356, Note_on_c, 10, 57, 127
2, 624356, Note_on_c, 12, 71, 127
2, 624504, Note_on_c, 8, 80, 127
2, 624647, Note_off_c, 12, 71, 127
2, 624649, Note_off_c, 8, 80, 127
2, 624649, Note_off_c, 10, 57, 127
2, 624649, Note_off_c, 3, 63, 127
2, 624651, Note_on_c, 8, 56, 127
2, 624651, Note_on_c, 5, 77, 127
2, 624651, Note_on_c, 12, 83, 127
2, 624796, Note_off_c, 5, 77, 127
2, 624798, Note_on_c, 1, 73, 127
2, 624942, Note_off_c, 12, 83, 127
2, 624943, Note_off_c, 1, 73, 127
2, 624944, Note_off_c, 8, 56, 127
2, 624946, Note_on_c, 6, 54, 127
2, 624946, Note_on_c, 6, 78, 127
2, 624946, Note_on_c, 11, 82, 127
2, 625091, Note_off_c, 6, 78, 127
2, 625093, Note_on_c, 4, 76, 127
2, 625237, Note_off_c, 11, 82, 127
2, 625238, Note_off_c, 4, 76, 127
2, 625241, Note_on_c, 12, 71, 127
2, 625388, Note_on_c, 3, 75, 127
2, 625532, Note_off_c, 12, 71, 127
2, 625533, Note_off_c, 3, 75, 127
2, 625534, Note_off_c, 6, 54, 127
2, 625536, Note_on_c, 12, 47, 127
2, 625536, Note_on_c, 3, 75, 127
2, 625536, Note_on_c, 10, 81, 127
2, 625681, Note_off_c, 3, 75, 127
2, 625683, Note_on_c, 12, 71, 127
2, 625827, Note_off_c, 10, 81, 127
2, 625828, Note_off_c, 12, 71, 127
2, 625829, Note_off_c, 12, 47, 127
2, 625830, Note_on_c, 1, 49, 127
2, 625830, Note_on_c, 8, 80, 127
2, 625830, Note_on_c, 4, 76, 127
2, 625975, Note_off_c, 4, 76, 127
2, 625975, Note_off_c, 1, 49, 127
2, 625978, Note_on_c, 2, 50, 127
2, 625978, Note_on_c, 2, 74, 127
2, 626121, Note_off_c, 8, 80, 127
2, 626123, Note_off_c, 2, 74, 127
2, 626123, Note_off_c, 2, 50, 127
2, 626125, Note_on_c, 4, 52, 127
2, 626125, Note_on_c, 1, 73, 127
2, 626125, Note_on_c, 12, 71, 127
2, 626270, Note_off_c, 1, 73, 127
2, 626273, Note_on_c, 4, 76, 127
2, 626416, Note_off_c, 12, 71, 127
2, 626418, Note_off_c, 4, 76, 127
2, 626418, Note_off_c, 4, 52, 127
2, 626420, Note_on_c, 6, 54, 127
2, 626420, Note_on_c, 7, 79, 127
2, 626420, Note_on_c, 1, 73, 127
2, 626565, Note_off_c, 1, 73, 127
2, 626568, Note_on_c, 11, 70, 127
2, 626711, Note_off_c, 7, 79, 127
2, 626713, Note_off_c, 11, 70, 127
2, 626713, Note_off_c, 6, 54, 127
2, 626715, Note_on_c, 8, 56, 127
2, 626715, Note_on_c, 2, 74, 127
2, 626715, Note_on_c, 6, 78, 127
2, 626860, Note_off_c, 2, 74, 127
2, 626862, Note_on_c, 12, 71, 127
2, 627006, Note_off_c, 6, 78, 127
2, 627007, Note_off_c, 12, 71, 127
2, 627008, Note_off_c, 8, 56, 127
2, 627010, Note_on_c, 11, 58, 127
2, 627010, Note_on_c, 4, 76, 127
2, 627010, Note_on_c, 7, 67, 127
2, 627155, Note_off_c, 11, 58, 127
2, 627157, Note_on_c, 1, 61, 127
2, 627302, Note_off_c, 1, 61, 127
2, 627303, Note_off_c, 7, 67, 127
2, 627305, Note_on_c, 11, 58, 127
2, 627305, Note_on_c, 6, 66, 127
2, 627450, Note_off_c, 11, 58, 127
2, 627452, Note_on_c, 6, 54, 127
2, 627593, Note_off_c, 4, 76, 127
2, 627597, Note_off_c, 6, 54, 127
2, 627599, Note_on_c, 12, 59, 127
2, 627599, Note_on_c, 3, 75, 127
2, 627744, Note_off_c, 12, 59, 127
2, 627747, Note_on_c, 10, 57, 127
2, 627888, Note_off_c, 6, 66, 127
2, 627892, Note_off_c, 10, 57, 127
2, 627892, Note_off_c, 3, 75, 127
2, 627894, Note_on_c, 8, 56, 127
2, 627894, Note_on_c, 5, 65, 127
2, 627894, Note_on_c, 2, 74, 127
2, 628039, Note_off_c, 8, 56, 127
2, 628042, Note_on_c, 12, 59, 127
2, 628187, Note_off_c, 12, 59, 127
2, 628187, Note_off_c, 5, 65, 127
2, 628189, Note_on_c, 8, 56, 127
2, 628189, Note_on_c, 4, 64, 127
2, 628334, Note_off_c, 8, 56, 127
2, 628337, Note_on_c, 4, 52, 127
2, 628477, Note_off_c, 2, 74, 127
2, 628482, Note_off_c, 4, 52, 127
2, 628484, Note_on_c, 10, 57, 127
2, 628484, Note_on_c, 1, 73, 127
2, 628629, Note_off_c, 10, 57, 127
2, 628631, Note_on_c, 7, 55, 127
2, 628772, Note_off_c, 4, 64, 127
2, 628776, Note_off_c, 7, 55, 127
2, 628777, Note_off_c, 1, 73, 127
2, 628779, Note_on_c, 6, 54, 127
2, 628779, Note_on_c, 0, 72, 127
2, 628779, Note_on_c, 3, 63, 127
2, 628924, Note_off_c, 6, 54, 127
2, 628926, Note_on_c, 10, 57, 127
2, 629071, Note_off_c, 10, 57, 127
2, 629072, Note_off_c, 3, 63, 127
2, 629074, Note_on_c, 6, 54, 127
2, 629074, Note_on_c, 2, 62, 127
2, 629219, Note_off_c, 6, 54, 127
2, 629221, Note_on_c, 2, 50, 127
2, 629362, Note_off_c, 0, 72, 127
2, 629366, Note_off_c, 2, 50, 127
2, 629368, Note_on_c, 7, 55, 127
2, 629368, Note_on_c, 12, 71, 127
2, 629513, Note_off_c, 7, 55, 127
2, 629516, Note_on_c, 6, 54, 127
2, 629657, Note_off_c, 2, 62, 127
2, 629661, Note_off_c, 6, 54, 127
2, 629663, Note_on_c, 4, 52, 127
2, 629663, Note_on_c, 1, 61, 127
2, 629808, Note_off_c, 4, 52, 127
2, 629811, Note_on_c, 7, 55, 127
2, 629951, Note_off_c, 12, 71, 127
2, 629956, Note_off_c, 7, 55, 127
2, 629956, Note_off_c, 1, 61, 127
2, 629958, Note_on_c, 4, 52, 127
2, 629958, Note_on_c, 11, 70, 127
2, 629958, Note_on_c, 6, 66, 127
2, 630103, Note_off_c, 4, 52, 127
2, 630106, Note_on_c, 1, 49, 127
2, 630251, Note_off_c, 1, 49, 127
2, 630251, Note_off_c, 6, 66, 127
2, 630251, Note_off_c, 11, 70, 127
2, 630253, Note_on_c, 6, 54, 127
2, 630253, Note_on_c, 11, 70, 127
2, 630253, Note_on_c, 1, 73, 127
2, 630398, Note_off_c, 6, 54, 127
2, 630400, Note_on_c, 4, 52, 127
2, 630545, Note_off_c, 4, 52, 127
2, 630546, Note_off_c, 1, 73, 127
2, 630546, Note_off_c, 11, 70, 127
2, 630548, Note_on_c, 2, 50, 127
2, 630548, Note_on_c, 2, 74, 127
2, 630548, Note_on_c, 12, 71, 127
2, 630693, Note_off_c, 2, 74, 127
2, 630695, Note_on_c, 6, 78, 127
2, 630840, Note_off_c, 6, 78, 127
2, 630841, Note_off_c, 2, 50, 127
2, 630843, Note_on_c, 12, 47, 127
2, 630843, Note_on_c, 2, 74, 127
2, 630977, Note_off_c, 12, 71, 127
2, 630988, Note_off_c, 2, 74, 127
2, 630990, Note_on_c, 12, 71, 127
2, 631135, Note_off_c, 12, 71, 127
2, 631138, Note_on_c, 12, 59, 127
2, 631138, Note_on_c, 3, 75, 127
2, 631138, Note_on_c, 10, 69, 127
2, 631283, Note_off_c, 3, 75, 127
2, 631285, Note_on_c, 6, 78, 127
2, 631429, Note_off_c, 10, 69, 127
2, 631430, Note_off_c, 6, 78, 127
2, 631432, Note_on_c, 4, 76, 127
2, 631432, Note_on_c, 7, 67, 127
2, 631577, Note_off_c, 4, 76, 127
2, 631580, Note_on_c, 7, 79, 127
2, 631725, Note_off_c, 7, 79, 127
2, 631725, Note_off_c, 12, 47, 127
2, 631727, Note_on_c, 12, 47, 127
2, 631727, Note_on_c, 4, 76, 127
2, 631861, Note_off_c, 7, 67, 127
2, 631872, Note_off_c, 4, 76, 127
2, 631875, Note_on_c, 12, 71, 127
2, 632020, Note_off_c, 12, 71, 127
2, 632020, Note_off_c, 12, 59, 127
2, 632022, Note_on_c, 12, 59, 127
2, 632022, Note_on_c, 4, 76, 127
2, 632022, Note_on_c, 2, 74, 127
2, 632167, Note_off_c, 4, 76, 127
2, 632169, Note_on_c, 8, 80, 127
2, 632313, Note_off_c, 2, 74, 127
2, 632314, Note_off_c, 8, 80, 127
2, 632317, Note_on_c, 4, 76, 127
2, 632317, Note_on_c, 1, 73, 127
2, 632462, Note_off_c, 4, 76, 127
2, 632464, Note_on_c, 10, 81, 127
2, 632609, Note_off_c, 10, 81, 127
2, 632609, Note_off_c, 12, 47, 127
2, 632612, Note_on_c, 12, 47, 127
2, 632612, Note_on_c, 4, 76, 127
2, 632746, Note_off_c, 1, 73, 127
2, 632757, Note_off_c, 4, 76, 127
2, 632759, Note_on_c, 1, 73, 127
2, 632904, Note_off_c, 1, 73, 127
2, 632904, Note_off_c, 12, 59, 127
2, 632907, Note_on_c, 12, 59, 127
2, 632907, Note_on_c, 4, 76, 127
2, 632907, Note_on_c, 1, 73, 127
2, 633052, Note_off_c, 4, 76, 127
2, 633054, Note_on_c, 11, 82, 127
2, 633195, Note_off_c, 12, 47, 127
2, 633198, Note_off_c, 1, 73, 127
2, 633199, Note_off_c, 11, 82, 127
2, 633201, Note_on_c, 2, 74, 127
2, 633201, Note_on_c, 12, 83, 127
2, 633347, Note_off_c, 12, 59, 127
2, 633349, Note_on_c, 0, 60, 127
2, 633494, Note_off_c, 0, 60, 127
2, 633494, Note_off_c, 12, 83, 127
2, 633496, Note_on_c, 12, 59, 127
2, 633496, Note_on_c, 12, 71, 127
2, 633641, Note_off_c, 12, 59, 127
2, 633644, Note_on_c, 10, 57, 127
2, 633784, Note_off_c, 2, 74, 127
2, 633789, Note_off_c, 10, 57, 127
2, 633789, Note_off_c, 12, 71, 127
2, 633791, Note_on_c, 7, 55, 127
2, 633791, Note_on_c, 10, 81, 127
2, 633791, Note_on_c, 3, 75, 127
2, 633936, Note_off_c, 7, 55, 127
2, 633939, Note_on_c, 6, 54, 127
2, 634084, Note_off_c, 6, 54, 127
2, 634084, Note_off_c, 3, 75, 127
2, 634084, Note_off_c, 10, 81, 127
2, 634086, Note_on_c, 4, 52, 127
2, 634086, Note_on_c, 7, 79, 127
2, 634233, Note_on_c, 4, 76, 127
2, 634378, Note_off_c, 4, 76, 127
2, 634379, Note_off_c, 4, 52, 127
2, 634381, Note_on_c, 4, 64, 127
2, 634381, Note_on_c, 1, 73, 127
2, 634515, Note_off_c, 7, 79, 127
2, 634526, Note_off_c, 1, 73, 127
2, 634528, Note_on_c, 11, 70, 127
2, 634673, Note_off_c, 11, 70, 127
2, 634674, Note_off_c, 4, 64, 127
2, 634676, Note_on_c, 3, 63, 127
2, 634676, Note_on_c, 6, 78, 127
2, 634823, Note_on_c, 10, 69, 127
2, 634891, Note_off_c, 6, 78, 127
2, 634968, Note_off_c, 10, 69, 127
2, 634969, Note_off_c, 3, 63, 127
2, 634970, Note_on_c, 4, 52, 127
2, 634970, Note_on_c, 5, 77, 127
2, 635118, Note_on_c, 2, 74, 127
2, 635263, Note_off_c, 2, 74, 127
2, 635263, Note_off_c, 4, 52, 127
2, 635265, Note_on_c, 2, 62, 127
2, 635265, Note_on_c, 12, 71, 127
2, 635399, Note_off_c, 5, 77, 127
2, 635410, Note_off_c, 12, 71, 127
2, 635413, Note_on_c, 8, 68, 127
2, 635558, Note_off_c, 8, 68, 127
2, 635558, Note_off_c, 2, 62, 127
2, 635560, Note_on_c, 1, 61, 127
2, 635560, Note_on_c, 4, 76, 127
2, 635708, Note_on_c, 7, 67, 127
2, 635775, Note_off_c, 4, 76, 127
2, 635853, Note_off_c, 7, 67, 127
2, 635853, Note_off_c, 1, 61, 127
2, 635855, Note_on_c, 4, 52, 127
2, 635855, Note_on_c, 3, 75, 127
2, 636002, Note_on_c, 0, 72, 127
2, 636147, Note_off_c, 0, 72, 127
2, 636148, Note_off_c, 4, 52, 127
2, 636150, Note_on_c, 0, 60, 127
2, 636150, Note_on_c, 10, 69, 127
2, 636284, Note_off_c, 3, 75, 127
2, 636295, Note_off_c, 10, 69, 127
2, 636297, Note_on_c, 6, 66, 127
2, 636442, Note_off_c, 6, 66, 127
2, 636443, Note_off_c, 0, 60, 127
2, 636445, Note_on_c, 12, 59, 127
2, 636445, Note_on_c, 2, 74, 127
2, 636592, Note_on_c, 5, 65, 127
2, 636660, Note_off_c, 2, 74, 127
2, 636737, Note_off_c, 5, 65, 127
2, 636738, Note_off_c, 12, 59, 127
2, 636739, Note_on_c, 11, 58, 127
2, 636739, Note_on_c, 4, 64, 127
2, 636739, Note_on_c, 1, 73, 127
2, 637179, Note_off_c, 1, 73, 127
2, 637179, Note_off_c, 4, 64, 127
2, 637179, Note_off_c, 11, 58, 127
2, 637182, Note_on_c, 6, 54, 127
2, 637182, Note_on_c, 6, 66, 127
2, 637182, Note_on_c, 2, 74, 127
2, 637327, Note_off_c, 2, 74, 127
2, 637327, Note_off_c, 6, 66, 127
2, 637327, Note_off_c, 6, 54, 127
2, 637329, Note_on_c, 12, 59, 127
2, 637329, Note_on_c, 2, 62, 127
2, 637329, Note_on_c, 12, 71, 127
2, 637622, Note_off_c, 12, 59, 127
2, 637624, Note_on_c, 4, 52, 127
2, 637769, Note_off_c, 12, 71, 127
2, 637769, Note_off_c, 2, 62, 127
2, 637771, Note_on_c, 1, 73, 127
2, 637771, Note_on_c, 4, 64, 127
2, 637916, Note_off_c, 4, 64, 127
2, 637916, Note_off_c, 1, 73, 127
2, 637917, Note_off_c, 4, 52, 127
2, 637919, Note_on_c, 6, 54, 127
2, 637919, Note_on_c, 12, 71, 127
2, 637919, Note_on_c, 1, 61, 127
2, 637991, Note_off_c, 12, 71, 127
2, 637993, Note_on_c, 11, 70, 127
2, 638065, Note_off_c, 11, 70, 127
2, 638068, Note_on_c, 12, 71, 127
2, 638140, Note_off_c, 12, 71, 127
2, 638142, Note_on_c, 11, 70, 127
2, 638214, Note_off_c, 11, 70, 127
2, 638215, Note_off_c, 6, 54, 127
2, 638217, Note_on_c, 6, 42, 127
2, 638217, Note_on_c, 12, 71, 127
2, 638289, Note_off_c, 12, 71, 127
2, 638291, Note_on_c, 11, 70, 127
2, 638353, Note_off_c, 1, 61, 127
2, 638363, Note_off_c, 11, 70, 127
2, 638366, Note_on_c, 12, 71, 127
2, 638511, Note_off_c, 12, 71, 127
2, 638511, Note_off_c, 6, 42, 127
2, 638513, Note_on_c, 12, 47, 127
2, 638513, Note_on_c, 12, 59, 127
2, 638513, Note_on_c, 12, 71, 127
2, 638658, Note_off_c, 12, 71, 127
2, 638661, Note_on_c, 6, 66, 127
2, 638806, Note_off_c, 6, 66, 127
2, 638806, Note_off_c, 12, 59, 127
2, 638808, Note_on_c, 6, 54, 127
2, 638808, Note_on_c, 10, 57, 127
2, 638808, Note_on_c, 3, 63, 127
2, 638953, Note_off_c, 3, 63, 127
2, 638956, Note_on_c, 12, 59, 127
2, 639096, Note_off_c, 12, 47, 127
2, 639101, Note_off_c, 12, 59, 127
2, 639103, Note_on_c, 10, 69, 127
2, 639237, Note_off_c, 10, 57, 127
2, 639237, Note_off_c, 6, 54, 127
2, 639248, Note_off_c, 10, 69, 127
2, 639250, Note_on_c, 6, 66, 127
2, 639395, Note_off_c, 6, 66, 127
2, 639398, Note_on_c, 12, 47, 127
2, 639398, Note_on_c, 4, 52, 127
2, 639398, Note_on_c, 7, 55, 127
2, 639398, Note_on_c, 7, 67, 127
2, 639543, Note_off_c, 7, 67, 127
2, 639545, Note_on_c, 4, 64, 127
2, 639690, Note_off_c, 4, 64, 127
2, 639691, Note_off_c, 7, 55, 127
2, 639691, Note_off_c, 4, 52, 127
2, 639691, Note_off_c, 12, 47, 127
2, 639693, Note_on_c, 10, 45, 127
2, 639693, Note_on_c, 6, 54, 127
2, 639693, Note_on_c, 12, 47, 127
2, 639693, Note_on_c, 7, 67, 127
2, 639838, Note_off_c, 7, 67, 127
2, 639840, Note_on_c, 12, 71, 127
2, 639985, Note_off_c, 12, 71, 127
2, 639988, Note_on_c, 4, 76, 127
2, 640122, Note_off_c, 12, 47, 127
2, 640122, Note_off_c, 6, 54, 127
2, 640133, Note_off_c, 4, 76, 127
2, 640135, Note_on_c, 3, 75, 127
2, 640245, Note_off_c, 10, 45, 127
2, 640280, Note_off_c, 3, 75, 127
2, 640282, Note_on_c, 4, 52, 127
2, 640282, Note_on_c, 12, 47, 127
2, 640282, Note_on_c, 7, 43, 127
2, 640282, Note_on_c, 4, 76, 127
2, 640427, Note_off_c, 4, 76, 127
2, 640427, Note_off_c, 4, 52, 127
2, 640430, Note_on_c, 3, 51, 127
2, 640430, Note_on_c, 12, 71, 127
2, 640573, Note_off_c, 7, 43, 127
2, 640573, Note_off_c, 12, 47, 127
2, 640575, Note_off_c, 12, 71, 127
2, 640575, Note_off_c, 3, 51, 127
2, 640577, Note_on_c, 4, 40, 127
2, 640577, Note_on_c, 4, 52, 127
2, 640577, Note_on_c, 1, 49, 127
2, 640577, Note_on_c, 4, 76, 127
2, 640722, Note_off_c, 4, 76, 127
2, 640725, Note_on_c, 7, 79, 127
2, 640870, Note_off_c, 7, 79, 127
2, 640872, Note_on_c, 12, 83, 127
2, 641006, Note_off_c, 4, 52, 127
2, 641006, Note_off_c, 4, 40, 127
2, 641017, Note_off_c, 12, 83, 127
2, 641020, Note_on_c, 11, 82, 127
2, 641129, Note_off_c, 1, 49, 127
2, 641165, Note_off_c, 11, 82, 127
2, 641167, Note_on_c, 12, 83, 127
2, 641314, Note_on_c, 12, 47, 127
2, 641459, Note_off_c, 12, 47, 127
2, 641462, Note_on_c, 3, 51, 127
2, 641607, Note_off_c, 3, 51, 127
2, 641609, Note_on_c, 6, 54, 127
2, 641754, Note_off_c, 6, 54, 127
2, 641757, Note_on_c, 12, 59, 127
2, 641902, Note_off_c, 12, 59, 127
2, 641904, Note_on_c, 11, 58, 127
2, 642049, Note_off_c, 11, 58, 127
2, 642051, Note_on_c, 12, 59, 127
2, 642199, Note_on_c, 6, 54, 127
2, 642344, Note_off_c, 6, 54, 127
2, 642346, Note_on_c, 3, 51, 127
2, 642491, Note_off_c, 3, 51, 127
2, 642494, Note_on_c, 12, 47, 127
2, 642634, Note_off_c, 12, 59, 127
2, 642641, Note_on_c, 12, 59, 127
2, 642785, Note_off_c, 12, 47, 127
2, 642932, Note_off_c, 12, 83, 127
2, 642934, Note_off_c, 12, 59, 127
2, 642936, Note_on_c, 6, 54, 127
2, 643081, Note_off_c, 6, 54, 127
2, 643083, Note_on_c, 3, 51, 127
2, 643228, Note_off_c, 3, 51, 127
2, 643231, Note_on_c, 4, 52, 127
2, 643376, Note_off_c, 4, 52, 127
2, 643378, Note_on_c, 6, 54, 127
2, 643523, Note_off_c, 6, 54, 127
2, 643526, Note_on_c, 7, 55, 127
2, 643671, Note_off_c, 7, 55, 127
2, 643673, Note_on_c, 10, 57, 127
2, 643818, Note_off_c, 10, 57, 127
2, 643821, Note_on_c, 12, 59, 127
2, 644114, Note_off_c, 12, 59, 127
2, 644115, Note_on_c, 12, 47, 127
2, 644408, Note_off_c, 12, 47, 127
2, 644410, Note_on_c, 0, 48, 127
2, 644703, Note_off_c, 0, 48, 127
2, 644705, Note_on_c, 12, 59, 127
2, 644998, Note_off_c, 12, 59, 127
2, 645000, Note_on_c, 1, 49, 127
2, 645293, Note_off_c, 1, 49, 127
2, 645295, Note_on_c, 2, 50, 127
2, 645588, Note_off_c, 2, 50, 127
2, 645590, Note_on_c, 12, 59, 127
2, 645883, Note_off_c, 12, 59, 127
2, 645884, Note_on_c, 3, 51, 127
2, 646177, Note_off_c, 3, 51, 127
2, 646179, Note_on_c, 4, 52, 127
2, 646324, Note_off_c, 4, 52, 127
2, 646327, Note_on_c, 6, 54, 127
2, 646472, Note_off_c, 6, 54, 127
2, 646474, Note_on_c, 7, 55, 127
2, 646474, Note_on_c, 12, 59, 127
2, 646619, Note_off_c, 12, 59, 127
2, 646621, Note_on_c, 11, 58, 127
2, 646766, Note_off_c, 11, 58, 127
2, 646767, Note_off_c, 7, 55, 127
2, 646769, Note_on_c, 6, 54, 127
2, 646769, Note_on_c, 12, 59, 127
2, 646914, Note_off_c, 12, 59, 127
2, 646916, Note_on_c, 1, 61, 127
2, 647061, Note_off_c, 1, 61, 127
2, 647062, Note_off_c, 6, 54, 127
2, 647064, Note_on_c, 4, 52, 127
2, 647064, Note_on_c, 2, 62, 127
2, 647209, Note_off_c, 2, 62, 127
2, 647211, Note_on_c, 4, 64, 127
2, 647356, Note_off_c, 4, 64, 127
2, 647357, Note_off_c, 4, 52, 127
2, 647359, Note_on_c, 2, 50, 127
2, 647359, Note_on_c, 6, 66, 127
2, 647504, Note_off_c, 2, 50, 127
2, 647506, Note_on_c, 4, 52, 127
2, 647651, Note_off_c, 4, 52, 127
2, 647652, Note_off_c, 6, 66, 127
2, 647653, Note_on_c, 2, 50, 127
2, 647653, Note_on_c, 6, 54, 127
2, 647798, Note_off_c, 2, 50, 127
2, 647801, Note_on_c, 1, 49, 127
2, 647946, Note_off_c, 1, 49, 127
2, 647946, Note_off_c, 6, 54, 127
2, 647948, Note_on_c, 12, 47, 127
2, 647948, Note_on_c, 7, 55, 127
2, 648093, Note_off_c, 12, 47, 127
2, 648096, Note_on_c, 1, 49, 127
2, 648241, Note_off_c, 1, 49, 127
2, 648241, Note_off_c, 7, 55, 127
2, 648243, Note_on_c, 2, 50, 127
2, 648243, Note_on_c, 6, 66, 127
2, 648388, Note_off_c, 2, 50, 127
2, 648391, Note_on_c, 6, 54, 127
2, 648536, Note_off_c, 6, 54, 127
2, 648536, Note_off_c, 6, 66, 127
2, 648538, Note_on_c, 4, 52, 127
2, 648538, Note_on_c, 8, 56, 127
2, 648683, Note_off_c, 4, 52, 127
2, 648685, Note_on_c, 2, 50, 127
2, 648830, Note_off_c, 2, 50, 127
2, 648831, Note_off_c, 8, 56, 127
2, 648833, Note_on_c, 1, 49, 127
2, 648833, Note_on_c, 10, 57, 127
2, 648978, Note_off_c, 1, 49, 127
2, 648980, Note_on_c, 2, 50, 127
2, 649125, Note_off_c, 2, 50, 127
2, 649126, Note_off_c, 10, 57, 127
2, 649128, Note_on_c, 4, 52, 127
2, 649128, Note_on_c, 6, 66, 127
2, 649273, Note_off_c, 4, 52, 127
2, 649275, Note_on_c, 7, 55, 127
2, 649420, Note_off_c, 7, 55, 127
2, 649421, Note_off_c, 6, 66, 127
2, 649422, Note_on_c, 6, 54, 127
2, 649422, Note_on_c, 11, 58, 127
2, 649567, Note_off_c, 6, 54, 127
2, 649570, Note_on_c, 4, 52, 127
2, 649715, Note_off_c, 4, 52, 127
2, 649715, Note_off_c, 11, 58, 127
2, 649717, Note_on_c, 2, 50, 127
2, 649717, Note_on_c, 12, 59, 127
2, 649862, Note_off_c, 2, 50, 127
2, 649865, Note_on_c, 6, 54, 127
2, 650010, Note_off_c, 6, 54, 127
2, 650010, Note_off_c, 12, 59, 127
2, 650012, Note_on_c, 4, 52, 127
2, 650012, Note_on_c, 0, 60, 127
2, 650157, Note_off_c, 0, 60, 127
2, 650160, Note_on_c, 2, 62, 127
2, 650305, Note_off_c, 2, 62, 127
2, 650305, Note_off_c, 4, 52, 127
2, 650307, Note_on_c, 7, 43, 127
2, 650307, Note_on_c, 0, 60, 127
2, 650452, Note_off_c, 0, 60, 127
2, 650454, Note_on_c, 12, 59, 127
2, 650599, Note_off_c, 12, 59, 127
2, 650600, Note_off_c, 7, 43, 127
2, 650602, Note_on_c, 6, 54, 127
2, 650602, Note_on_c, 10, 57, 127
2, 650747, Note_off_c, 10, 57, 127
2, 650749, Note_on_c, 12, 59, 127
2, 650894, Note_off_c, 12, 59, 127
2, 650897, Note_on_c, 0, 60, 127
2, 651031, Note_off_c, 6, 54, 127
2, 651042, Note_off_c, 0, 60, 127
2, 651044, Note_on_c, 4, 64, 127
2, 651189, Note_off_c, 4, 64, 127
2, 651192, Note_on_c, 10, 45, 127
2, 651192, Note_on_c, 2, 62, 127
2, 651337, Note_off_c, 2, 62, 127
2, 651339, Note_on_c, 0, 60, 127
2, 651484, Note_off_c, 0, 60, 127
2, 651485, Note_off_c, 10, 45, 127
2, 651486, Note_on_c, 7, 55, 127
2, 651486, Note_on_c, 12, 59, 127
2, 651631, Note_off_c, 12, 59, 127
2, 651634, Note_on_c, 1, 61, 127
2, 651779, Note_off_c, 1, 61, 127
2, 651781, Note_on_c, 2, 62, 127
2, 651915, Note_off_c, 7, 55, 127
2, 651926, Note_off_c, 2, 62, 127
2, 651929, Note_on_c, 6, 66, 127
2, 652074, Note_off_c, 6, 66, 127
2, 652076, Note_on_c, 12, 47, 127
2, 652076, Note_on_c, 4, 64, 127
2, 652221, Note_off_c, 4, 64, 127
2, 652223, Note_on_c, 2, 62, 127
2, 652368, Note_off_c, 2, 62, 127
2, 652369, Note_off_c, 12, 47, 127
2, 652371, Note_on_c, 10, 57, 127
2, 652371, Note_on_c, 1, 61, 127
2, 652516, Note_off_c, 1, 61, 127
2, 652518, Note_on_c, 3, 63, 127
2, 652663, Note_off_c, 3, 63, 127
2, 652666, Note_on_c, 4, 64, 127
2, 652811, Note_off_c, 4, 64, 127
2, 652813, Note_on_c, 3, 63, 127
2, 652892, Note_off_c, 10, 57, 127
2, 652958, Note_off_c, 3, 63, 127
2, 652961, Note_on_c, 1, 49, 127
2, 652961, Note_on_c, 4, 64, 127
2, 653106, Note_off_c, 4, 64, 127
2, 653108, Note_on_c, 7, 67, 127
2, 653253, Note_off_c, 7, 67, 127
2, 653254, Note_off_c, 1, 49, 127
2, 653255, Note_on_c, 3, 51, 127
2, 653255, Note_on_c, 6, 66, 127
2, 653403, Note_on_c, 10, 57, 127
2, 653546, Note_off_c, 3, 51, 127
2, 653548, Note_off_c, 10, 57, 127
2, 653548, Note_off_c, 6, 66, 127
2, 653550, Note_on_c, 7, 55, 127
2, 653550, Note_on_c, 4, 52, 127
2, 653550, Note_on_c, 4, 64, 127
2, 653695, Note_off_c, 4, 64, 127
2, 653695, Note_off_c, 7, 55, 127
2, 653698, Note_on_c, 0, 60, 127
2, 653698, Note_on_c, 3, 63, 127
2, 653841, Note_off_c, 4, 52, 127
2, 653843, Note_off_c, 3, 63, 127
2, 653843, Note_off_c, 0, 60, 127
2, 653845, Note_on_c, 12, 59, 127
2, 653845, Note_on_c, 4, 64, 127
2, 653990, Note_off_c, 4, 64, 127
2, 653990, Note_off_c, 12, 59, 127
2, 653992, Note_on_c, 10, 57, 127
2, 653992, Note_on_c, 6, 66, 127
2, 654137, Note_off_c, 6, 66, 127
2, 654137, Note_off_c, 10, 57, 127
2, 654140, Note_on_c, 7, 55, 127
2, 654140, Note_on_c, 7, 67, 127
2, 654285, Note_off_c, 7, 67, 127
2, 654285, Note_off_c, 7, 55, 127
2, 654287, Note_on_c, 6, 54, 127
2, 654287, Note_on_c, 10, 69, 127
2, 654432, Note_off_c, 10, 69, 127
2, 654432, Note_off_c, 6, 54, 127
2, 654435, Note_on_c, 7, 43, 127
2, 654435, Note_on_c, 4, 52, 127
2, 654435, Note_on_c, 12, 71, 127
2, 654580, Note_off_c, 4, 52, 127
2, 654580, Note_off_c, 7, 43, 127
2, 654582, Note_on_c, 10, 57, 127
2, 654727, Note_off_c, 10, 57, 127
2, 654728, Note_off_c, 12, 71, 127
2, 654730, Note_on_c, 7, 55, 127
2, 654730, Note_on_c, 12, 59, 127
2, 654875, Note_off_c, 7, 55, 127
2, 654877, Note_on_c, 6, 54, 127
2, 655022, Note_off_c, 6, 54, 127
2, 655023, Note_off_c, 12, 59, 127
2, 655024, Note_on_c, 10, 45, 127
2, 655024, Note_on_c, 4, 52, 127
2, 655024, Note_on_c, 0, 60, 127
2, 655169, Note_off_c, 4, 52, 127
2, 655172, Note_on_c, 6, 54, 127
2, 655315, Note_off_c, 10, 45, 127
2, 655317, Note_off_c, 6, 54, 127
2, 655317, Note_off_c, 0, 60, 127
2, 655319, Note_on_c, 7, 55, 127
2, 655319, Note_on_c, 12, 71, 127
2, 655464, Note_off_c, 7, 55, 127
2, 655467, Note_on_c, 12, 59, 127
2, 655612, Note_off_c, 12, 59, 127
2, 655612, Note_off_c, 12, 71, 127
2, 655614, Note_on_c, 10, 57, 127
2, 655614, Note_on_c, 1, 61, 127
2, 655759, Note_off_c, 10, 57, 127
2, 655762, Note_on_c, 7, 55, 127
2, 655907, Note_off_c, 7, 55, 127
2, 655907, Note_off_c, 1, 61, 127
2, 655909, Note_on_c, 6, 54, 127
2, 655909, Note_on_c, 12, 47, 127
2, 655909, Note_on_c, 2, 62, 127
2, 656054, Note_off_c, 6, 54, 127
2, 656056, Note_on_c, 7, 55, 127
2, 656200, Note_off_c, 12, 47, 127
2, 656201, Note_off_c, 7, 55, 127
2, 656202, Note_off_c, 2, 62, 127
2, 656204, Note_on_c, 10, 57, 127
2, 656204, Note_on_c, 12, 71, 127
2, 656349, Note_off_c, 10, 57, 127
2, 656351, Note_on_c, 0, 60, 127
2, 656496, Note_off_c, 0, 60, 127
2, 656497, Note_off_c, 12, 71, 127
2, 656499, Note_on_c, 12, 59, 127
2, 656499, Note_on_c, 3, 63, 127
2, 656644, Note_off_c, 12, 59, 127
2, 656646, Note_on_c, 10, 57, 127
2, 656791, Note_off_c, 10, 57, 127
2, 656792, Note_off_c, 3, 63, 127
2, 656793, Note_on_c, 7, 55, 127
2, 656793, Note_on_c, 0, 48, 127
2, 656793, Note_on_c, 4, 64, 127
2, 656938, Note_off_c, 7, 55, 127
2, 656941, Note_on_c, 10, 57, 127
2, 657084, Note_off_c, 0, 48, 127
2, 657086, Note_off_c, 10, 57, 127
2, 657088, Note_on_c, 6, 54, 127
2, 657088, Note_on_c, 10, 45, 127
2, 657233, Note_off_c, 4, 64, 127
2, 657236, Note_on_c, 7, 67, 127
2, 657381, Note_off_c, 7, 67, 127
2, 657381, Note_off_c, 10, 45, 127
2, 657383, Note_on_c, 6, 42, 127
2, 657383, Note_on_c, 6, 66, 127
2, 657528, Note_off_c, 6, 66, 127
2, 657531, Note_on_c, 4, 64, 127
2, 657676, Note_off_c, 4, 64, 127
2, 657676, Note_off_c, 6, 42, 127
2, 657678, Note_on_c, 12, 47, 127
2, 657678, Note_on_c, 3, 63, 127
2, 657823, Note_off_c, 3, 63, 127
2, 657825, Note_on_c, 4, 64, 127
2, 657970, Note_off_c, 4, 64, 127
2, 657970, Note_off_c, 6, 54, 127
2, 657973, Note_on_c, 7, 55, 127
2, 657973, Note_on_c, 6, 66, 127
2, 658118, Note_off_c, 6, 66, 127
2, 658120, Note_on_c, 10, 69, 127
2, 658261, Note_off_c, 12, 47, 127
2, 658265, Note_off_c, 10, 69, 127
2, 658268, Note_on_c, 7, 43, 127
2, 658268, Note_on_c, 7, 67, 127
2, 658413, Note_off_c, 7, 67, 127
2, 658415, Note_on_c, 6, 66, 127
2, 658560, Note_off_c, 6, 66, 127
2, 658561, Note_off_c, 7, 43, 127
2, 658563, Note_on_c, 0, 48, 127
2, 658563, Note_on_c, 4, 64, 127
2, 658708, Note_off_c, 4, 64, 127
2, 658710, Note_on_c, 6, 66, 127
2, 658855, Note_off_c, 6, 66, 127
2, 658855, Note_off_c, 7, 55, 127
2, 658857, Note_on_c, 10, 57, 127
2, 658857, Note_on_c, 7, 67, 127
2, 659002, Note_off_c, 7, 67, 127
2, 659005, Note_on_c, 12, 71, 127
2, 659146, Note_off_c, 0, 48, 127
2, 659150, Note_off_c, 12, 71, 127
2, 659152, Note_on_c, 10, 45, 127
2, 659152, Note_on_c, 10, 69, 127
2, 659297, Note_off_c, 10, 69, 127
2, 659300, Note_on_c, 7, 67, 127
2, 659445, Note_off_c, 7, 67, 127
2, 659445, Note_off_c, 10, 45, 127
2, 659447, Note_on_c, 2, 50, 127
2, 659447, Note_on_c, 6, 66, 127
2, 659592, Note_off_c, 6, 66, 127
2, 659594, Note_on_c, 7, 67, 127
2, 659739, Note_off_c, 7, 67, 127
2, 659739, Note_off_c, 10, 57, 127
2, 659742, Note_on_c, 12, 59, 127
2, 659742, Note_on_c, 10, 69, 127
2, 659887, Note_off_c, 10, 69, 127
2, 659889, Note_on_c, 0, 72, 127
2, 660030, Note_off_c, 2, 50, 127
2, 660034, Note_off_c, 0, 72, 127
2, 660035, Note_off_c, 12, 59, 127
2, 660037, Note_on_c, 4, 52, 127
2, 660037, Note_on_c, 0, 60, 127
2, 660037, Note_on_c, 12, 71, 127
2, 660182, Note_off_c, 12, 71, 127
2, 660184, Note_on_c, 10, 69, 127
2, 660329, Note_off_c, 10, 69, 127
2, 660330, Note_off_c, 0, 60, 127
2, 660330, Note_off_c, 4, 52, 127
2, 660332, Note_on_c, 6, 54, 127
2, 660332, Note_on_c, 2, 62, 127
2, 660332, Note_on_c, 7, 67, 127
2, 660477, Note_off_c, 7, 67, 127
2, 660479, Note_on_c, 10, 69, 127
2, 660624, Note_off_c, 10, 69, 127
2, 660625, Note_off_c, 6, 54, 127
2, 660626, Note_on_c, 7, 55, 127
2, 660626, Note_on_c, 12, 71, 127
2, 660761, Note_off_c, 2, 62, 127
2, 660771, Note_off_c, 7, 55, 127
2, 660774, Note_on_c, 12, 59, 127
2, 660919, Note_off_c, 12, 59, 127
2, 660919, Note_off_c, 12, 71, 127
2, 660921, Note_on_c, 2, 62, 127
2, 660921, Note_on_c, 12, 83, 127
2, 661066, Note_off_c, 2, 62, 127
2, 661069, Note_on_c, 7, 67, 127
2, 661214, Note_off_c, 7, 67, 127
2, 661214, Note_off_c, 12, 83, 127
2, 661216, Note_on_c, 6, 66, 127
2, 661216, Note_on_c, 10, 81, 127
2, 661361, Note_off_c, 6, 66, 127
2, 661363, Note_on_c, 12, 59, 127
2, 661508, Note_off_c, 12, 59, 127
2, 661509, Note_off_c, 10, 81, 127
2, 661511, Note_on_c, 4, 64, 127
2, 661511, Note_on_c, 7, 79, 127
2, 661656, Note_off_c, 4, 64, 127
2, 661658, Note_on_c, 0, 60, 127
2, 661803, Note_off_c, 0, 60, 127
2, 661804, Note_off_c, 7, 79, 127
2, 661806, Note_on_c, 10, 57, 127
2, 661806, Note_on_c, 0, 72, 127
2, 661951, Note_off_c, 10, 57, 127
2, 661953, Note_on_c, 6, 54, 127
2, 662098, Note_off_c, 6, 54, 127
2, 662099, Note_off_c, 0, 72, 127
2, 662101, Note_on_c, 7, 55, 127
2, 662101, Note_on_c, 12, 71, 127
2, 662246, Note_off_c, 7, 55, 127
2, 662248, Note_on_c, 12, 59, 127
2, 662393, Note_off_c, 12, 59, 127
2, 662394, Note_off_c, 12, 71, 127
2, 662395, Note_on_c, 0, 48, 127
2, 662395, Note_on_c, 10, 69, 127
2, 662540, Note_off_c, 0, 48, 127
2, 662543, Note_on_c, 4, 52, 127
2, 662688, Note_off_c, 4, 52, 127
2, 662688, Note_off_c, 10, 69, 127
2, 662690, Note_on_c, 10, 57, 127
2, 662690, Note_on_c, 4, 76, 127
2, 662835, Note_off_c, 10, 57, 127
2, 662838, Note_on_c, 0, 60, 127
2, 662983, Note_off_c, 0, 60, 127
2, 662983, Note_off_c, 4, 76, 127
2, 662985, Note_on_c, 12, 59, 127
2, 662985, Note_on_c, 2, 74, 127
2, 663130, Note_off_c, 12, 59, 127
2, 663133, Note_on_c, 4, 52, 127
2, 663278, Note_off_c, 4, 52, 127
2, 663278, Note_off_c, 2, 74, 127
2, 663280, Note_on_c, 10, 57, 127
2, 663280, Note_on_c, 0, 72, 127
2, 663425, Note_off_c, 10, 57, 127
2, 663427, Note_on_c, 4, 52, 127
2, 663572, Note_off_c, 4, 52, 127
2, 663573, Note_off_c, 0, 72, 127
2, 663575, Note_on_c, 0, 48, 127
2, 663575, Note_on_c, 4, 64, 127
2, 663720, Note_off_c, 0, 48, 127
2, 663722, Note_on_c, 10, 45, 127
2, 663867, Note_off_c, 10, 45, 127
2, 663868, Note_off_c, 4, 64, 127
2, 663870, Note_on_c, 12, 47, 127
2, 663870, Note_on_c, 2, 62, 127
2, 664015, Note_off_c, 12, 47, 127
2, 664017, Note_on_c, 2, 50, 127
2, 664162, Note_off_c, 2, 50, 127
2, 664164, Note_on_c, 6, 42, 127
2, 664310, Note_off_c, 2, 62, 127
2, 664312, Note_on_c, 6, 66, 127
2, 664457, Note_off_c, 6, 66, 127
2, 664459, Note_on_c, 10, 69, 127
2, 664604, Note_off_c, 10, 69, 127
2, 664607, Note_on_c, 0, 72, 127
2, 664752, Note_off_c, 0, 72, 127
2, 664754, Note_on_c, 12, 71, 127
2, 664899, Note_off_c, 12, 71, 127
2, 664902, Note_on_c, 10, 69, 127
2, 665046, Note_off_c, 6, 42, 127
2, 665047, Note_off_c, 10, 69, 127
2, 665049, Note_on_c, 7, 43, 127
2, 665049, Note_on_c, 7, 55, 127
2, 665049, Note_on_c, 12, 71, 127
2, 665194, Note_off_c, 7, 55, 127
2, 665196, Note_on_c, 12, 59, 127
2, 665341, Note_off_c, 12, 59, 127
2, 665344, Note_on_c, 2, 62, 127
2, 665489, Note_off_c, 2, 62, 127
2, 665491, Note_on_c, 5, 65, 127
2, 665636, Note_off_c, 5, 65, 127
2, 665639, Note_on_c, 4, 64, 127
2, 665784, Note_off_c, 4, 64, 127
2, 665786, Note_on_c, 2, 62, 127
2, 665931, Note_off_c, 2, 62, 127
2, 665931, Note_off_c, 7, 43, 127
2, 665934, Note_on_c, 0, 48, 127
2, 665934, Note_on_c, 4, 64, 127
2, 666079, Note_off_c, 0, 48, 127
2, 666081, Note_on_c, 4, 52, 127
2, 666226, Note_off_c, 4, 52, 127
2, 666226, Note_off_c, 12, 71, 127
2, 666228, Note_on_c, 7, 55, 127
2, 666373, Note_off_c, 7, 55, 127
2, 666374, Note_off_c, 4, 64, 127
2, 666376, Note_on_c, 12, 59, 127
2, 666376, Note_on_c, 2, 74, 127
2, 666521, Note_off_c, 2, 74, 127
2, 666521, Note_off_c, 12, 59, 127
2, 666523, Note_on_c, 10, 57, 127
2, 666523, Note_on_c, 0, 72, 127
2, 666668, Note_off_c, 0, 72, 127
2, 666668, Note_off_c, 10, 57, 127
2, 666671, Note_on_c, 7, 55, 127
2, 666671, Note_on_c, 12, 71, 127
2, 666816, Note_off_c, 12, 71, 127
2, 666816, Note_off_c, 7, 55, 127
2, 666818, Note_on_c, 6, 54, 127
2, 666818, Note_on_c, 10, 69, 127
2, 666965, Note_on_c, 10, 57, 127
2, 667110, Note_off_c, 10, 57, 127
2, 667113, Note_on_c, 0, 60, 127
2, 667258, Note_off_c, 0, 60, 127
2, 667260, Note_on_c, 4, 64, 127
2, 667405, Note_off_c, 4, 64, 127
2, 667408, Note_on_c, 2, 62, 127
2, 667553, Note_off_c, 2, 62, 127
2, 667555, Note_on_c, 0, 60, 127
2, 667700, Note_off_c, 0, 60, 127
2, 667700, Note_off_c, 6, 54, 127
2, 667703, Note_on_c, 7, 55, 127
2, 667703, Note_on_c, 12, 59, 127
2, 667848, Note_off_c, 10, 69, 127
2, 667850, Note_on_c, 2, 62, 127
2, 667995, Note_off_c, 2, 62, 127
2, 667997, Note_on_c, 6, 66, 127
2, 668142, Note_off_c, 6, 66, 127
2, 668145, Note_on_c, 10, 69, 127
2, 668290, Note_off_c, 10, 69, 127
2, 668292, Note_on_c, 7, 67, 127
2, 668437, Note_off_c, 7, 67, 127
2, 668440, Note_on_c, 6, 66, 127
2, 668585, Note_off_c, 6, 66, 127
2, 668585, Note_off_c, 7, 55, 127
2, 668587, Note_on_c, 4, 52, 127
2, 668587, Note_on_c, 7, 67, 127
2, 668732, Note_off_c, 7, 67, 127
2, 668734, Note_on_c, 12, 71, 127
2, 668879, Note_off_c, 12, 71, 127
2, 668880, Note_off_c, 12, 59, 127
2, 668882, Note_on_c, 4, 64, 127
2, 668882, Note_on_c, 1, 73, 127
2, 669027, Note_off_c, 1, 73, 127
2, 669029, Note_on_c, 4, 76, 127
2, 669174, Note_off_c, 4, 76, 127
2, 669175, Note_off_c, 4, 64, 127
2, 669177, Note_on_c, 7, 67, 127
2, 669177, Note_on_c, 2, 74, 127
2, 669322, Note_off_c, 2, 74, 127
2, 669324, Note_on_c, 1, 73, 127
2, 669469, Note_off_c, 1, 73, 127
2, 669469, Note_off_c, 4, 52, 127
2, 669472, Note_on_c, 2, 50, 127
2, 669472, Note_on_c, 2, 74, 127
2, 669617, Note_off_c, 2, 50, 127
2, 669619, Note_on_c, 1, 49, 127
2, 669760, Note_off_c, 7, 67, 127
2, 669764, Note_off_c, 1, 49, 127
2, 669765, Note_off_c, 2, 74, 127
2, 669766, Note_on_c, 2, 50, 127
2, 669766, Note_on_c, 6, 66, 127
2, 669766, Note_on_c, 10, 69, 127
2, 669911, Note_off_c, 2, 50, 127
2, 669914, Note_on_c, 4, 52, 127
2, 670059, Note_off_c, 4, 52, 127
2, 670059, Note_off_c, 10, 69, 127
2, 670061, Note_on_c, 6, 54, 127
2, 670061, Note_on_c, 2, 74, 127
2, 670206, Note_off_c, 6, 54, 127
2, 670209, Note_on_c, 7, 55, 127
2, 670349, Note_off_c, 6, 66, 127
2, 670354, Note_off_c, 7, 55, 127
2, 670356, Note_on_c, 10, 57, 127
2, 670356, Note_on_c, 4, 64, 127
2, 670501, Note_off_c, 10, 57, 127
2, 670504, Note_on_c, 12, 59, 127
2, 670644, Note_off_c, 2, 74, 127
2, 670649, Note_off_c, 12, 59, 127
2, 670651, Note_on_c, 10, 57, 127
2, 670651, Note_on_c, 0, 72, 127
2, 670796, Note_off_c, 0, 72, 127
2, 670796, Note_off_c, 10, 57, 127
2, 670798, Note_on_c, 7, 55, 127
2, 670798, Note_on_c, 12, 71, 127
2, 670939, Note_off_c, 4, 64, 127
2, 670943, Note_off_c, 12, 71, 127
2, 670943, Note_off_c, 7, 55, 127
2, 670946, Note_on_c, 6, 54, 127
2, 670946, Note_on_c, 0, 72, 127
2, 670946, Note_on_c, 10, 69, 127
2, 671091, Note_off_c, 6, 54, 127
2, 671093, Note_on_c, 4, 52, 127
2, 671238, Note_off_c, 4, 52, 127
2, 671239, Note_off_c, 0, 72, 127
2, 671241, Note_on_c, 3, 51, 127
2, 671241, Note_on_c, 12, 71, 127
2, 671386, Note_off_c, 3, 51, 127
2, 671388, Note_on_c, 12, 47, 127
2, 671529, Note_off_c, 10, 69, 127
2, 671533, Note_off_c, 12, 47, 127
2, 671535, Note_on_c, 1, 49, 127
2, 671535, Note_on_c, 7, 67, 127
2, 671680, Note_off_c, 7, 67, 127
2, 671680, Note_off_c, 1, 49, 127
2, 671683, Note_on_c, 3, 51, 127
2, 671683, Note_on_c, 6, 66, 127
2, 671828, Note_off_c, 6, 66, 127
2, 671828, Note_off_c, 3, 51, 127
2, 671830, Note_on_c, 4, 52, 127
2, 671830, Note_on_c, 4, 64, 127
2, 671975, Note_off_c, 4, 64, 127
2, 671975, Note_off_c, 4, 52, 127
2, 671978, Note_on_c, 6, 54, 127
2, 671978, Note_on_c, 3, 63, 127
2, 672123, Note_off_c, 3, 63, 127
2, 672123, Note_off_c, 6, 54, 127
2, 672125, Note_on_c, 7, 55, 127
2, 672125, Note_on_c, 4, 64, 127
2, 672270, Note_off_c, 7, 55, 127
2, 672273, Note_on_c, 10, 57, 127
2, 672418, Note_off_c, 10, 57, 127
2, 672418, Note_off_c, 12, 71, 127
2, 672420, Note_on_c, 7, 55, 127
2, 672420, Note_on_c, 4, 76, 127
2, 672565, Note_off_c, 4, 76, 127
2, 672565, Note_off_c, 7, 55, 127
2, 672567, Note_on_c, 6, 54, 127
2, 672567, Note_on_c, 2, 74, 127
2, 672712, Note_off_c, 2, 74, 127
2, 672712, Note_off_c, 6, 54, 127
2, 672715, Note_on_c, 4, 52, 127
2, 672715, Note_on_c, 0, 72, 127
2, 672860, Note_off_c, 0, 72, 127
2, 672860, Note_off_c, 4, 52, 127
2, 672862, Note_on_c, 2, 50, 127
2, 672862, Note_on_c, 12, 71, 127
2, 673007, Note_off_c, 12, 71, 127
2, 673007, Note_off_c, 2, 50, 127
2, 673010, Note_on_c, 0, 48, 127
2, 673010, Note_on_c, 10, 69, 127
2, 673155, Note_off_c, 0, 48, 127
2, 673157, Note_on_c, 2, 50, 127
2, 673302, Note_off_c, 2, 50, 127
2, 673303, Note_off_c, 10, 69, 127
2, 673305, Note_on_c, 0, 48, 127
2, 673305, Note_on_c, 12, 71, 127
2, 673450, Note_off_c, 0, 48, 127
2, 673452, Note_on_c, 12, 47, 127
2, 673597, Note_off_c, 12, 47, 127
2, 673598, Note_off_c, 12, 71, 127
2, 673599, Note_on_c, 10, 45, 127
2, 673599, Note_on_c, 0, 72, 127
2, 673744, Note_off_c, 10, 45, 127
2, 673747, Note_on_c, 7, 43, 127
2, 673890, Note_off_c, 4, 64, 127
2, 673892, Note_off_c, 7, 43, 127
2, 673894, Note_on_c, 6, 42, 127
2, 673894, Note_on_c, 10, 69, 127
2, 674039, Note_off_c, 6, 42, 127
2, 674042, Note_on_c, 3, 39, 127
2, 674182, Note_off_c, 0, 72, 127
2, 674187, Note_off_c, 3, 39, 127
2, 674189, Note_on_c, 4, 40, 127
2, 674189, Note_on_c, 12, 71, 127
2, 674334, Note_off_c, 4, 40, 127
2, 674336, Note_on_c, 6, 42, 127
2, 674477, Note_off_c, 10, 69, 127
2, 674481, Note_off_c, 6, 42, 127
2, 674482, Note_off_c, 12, 71, 127
2, 674484, Note_on_c, 7, 43, 127
2, 674484, Note_on_c, 4, 76, 127
2, 674484, Note_on_c, 7, 67, 127
2, 674629, Note_off_c, 7, 43, 127
2, 674631, Note_on_c, 10, 45, 127
2, 674776, Note_off_c, 10, 45, 127
2, 674777, Note_off_c, 7, 67, 127
2, 674777, Note_off_c, 4, 76, 127
2, 674779, Note_on_c, 12, 47, 127
2, 674779, Note_on_c, 3, 75, 127
2, 674779, Note_on_c, 6, 66, 127
2, 674924, Note_off_c, 3, 75, 127
2, 674924, Note_off_c, 12, 47, 127
2, 674926, Note_on_c, 6, 42, 127
2, 674926, Note_on_c, 1, 73, 127
2, 675070, Note_off_c, 6, 66, 127
2, 675071, Note_off_c, 1, 73, 127
2, 675071, Note_off_c, 6, 42, 127
2, 675074, Note_on_c, 8, 44, 127
2, 675074, Note_on_c, 12, 71, 127
2, 675219, Note_off_c, 12, 71, 127
2, 675219, Note_off_c, 8, 44, 127
2, 675221, Note_on_c, 11, 46, 127
2, 675221, Note_on_c, 1, 73, 127
2, 675366, Note_off_c, 1, 73, 127
2, 675366, Note_off_c, 11, 46, 127
2, 675368, Note_on_c, 12, 47, 127
2, 675368, Note_on_c, 3, 75, 127
2, 675513, Note_off_c, 3, 75, 127
2, 675513, Note_off_c, 12, 47, 127
2, 675516, Note_on_c, 1, 49, 127
2, 675516, Note_on_c, 4, 76, 127
2, 675661, Note_off_c, 4, 76, 127
2, 675661, Note_off_c, 1, 49, 127
2, 675663, Note_on_c, 3, 51, 127
2, 675663, Note_on_c, 6, 78, 127
2, 675808, Note_off_c, 3, 51, 127
2, 675811, Note_on_c, 4, 52, 127
2, 675956, Note_off_c, 4, 52, 127
2, 675956, Note_off_c, 6, 78, 127
2, 675958, Note_on_c, 3, 51, 127
2, 675958, Note_on_c, 6, 66, 127
2, 676103, Note_off_c, 3, 51, 127
2, 676105, Note_on_c, 1, 49, 127
2, 676250, Note_off_c, 1, 49, 127
2, 676251, Note_off_c, 6, 66, 127
2, 676253, Note_on_c, 12, 47, 127
2, 676253, Note_on_c, 7, 67, 127
2, 676398, Note_off_c, 12, 47, 127
2, 676400, Note_on_c, 1, 49, 127
2, 676545, Note_off_c, 1, 49, 127
2, 676546, Note_off_c, 7, 67, 127
2, 676548, Note_on_c, 2, 50, 127
2, 676548, Note_on_c, 6, 78, 127
2, 676693, Note_off_c, 2, 50, 127
2, 676695, Note_on_c, 6, 54, 127
2, 676840, Note_off_c, 6, 54, 127
2, 676841, Note_off_c, 6, 78, 127
2, 676843, Note_on_c, 4, 52, 127
2, 676843, Note_on_c, 8, 68, 127
2, 676988, Note_off_c, 4, 52, 127
2, 676990, Note_on_c, 2, 50, 127
2, 677135, Note_off_c, 2, 50, 127
2, 677136, Note_off_c, 8, 68, 127
2, 677137, Note_on_c, 1, 49, 127
2, 677137, Note_on_c, 10, 69, 127
2, 677282, Note_off_c, 1, 49, 127
2, 677285, Note_on_c, 3, 51, 127
2, 677430, Note_off_c, 3, 51, 127
2, 677430, Note_off_c, 10, 69, 127
2, 677432, Note_on_c, 4, 52, 127
2, 677432, Note_on_c, 6, 78, 127
2, 677577, Note_off_c, 4, 52, 127
2, 677580, Note_on_c, 7, 55, 127
2, 677725, Note_off_c, 7, 55, 127
2, 677725, Note_off_c, 6, 78, 127
2, 677727, Note_on_c, 6, 54, 127
2, 677727, Note_on_c, 11, 70, 127
2, 677872, Note_off_c, 6, 54, 127
2, 677875, Note_on_c, 4, 52, 127
2, 678020, Note_off_c, 4, 52, 127
2, 678020, Note_off_c, 11, 70, 127
2, 678022, Note_on_c, 3, 51, 127
2, 678022, Note_on_c, 12, 71, 127
2, 678167, Note_off_c, 3, 51, 127
2, 678169, Note_on_c, 6, 54, 127
2, 678314, Note_off_c, 6, 54, 127
2, 678315, Note_off_c, 12, 71, 127
2, 678317, Note_on_c, 4, 52, 127
2, 678317, Note_on_c, 0, 72, 127
2, 678464, Note_off_c, 4, 52, 127
2, 678466, Note_on_c, 7, 55, 127
2, 678613, Note_off_c, 7, 55, 127
2, 678613, Note_off_c, 0, 72, 127
2, 678615, Note_on_c, 6, 54, 127
2, 678615, Note_on_c, 7, 79, 127
2, 678762, Note_off_c, 6, 54, 127
2, 678764, Note_on_c, 4, 52, 127
2, 678911, Note_off_c, 4, 52, 127
2, 678911, Note_off_c, 7, 79, 127
2, 678913, Note_on_c, 2, 50, 127
2, 678913, Note_on_c, 5, 77, 127
2, 679060, Note_off_c, 2, 50, 127
2, 679062, Note_on_c, 7, 55, 127
2, 679209, Note_off_c, 7, 55, 127
2, 679209, Note_off_c, 5, 77, 127
2, 679211, Note_on_c, 0, 48, 127
2, 679211, Note_on_c, 4, 76, 127
2, 679360, Note_off_c, 0, 48, 127
2, 679362, Note_on_c, 4, 52, 127
2, 679511, Note_off_c, 4, 52, 127
2, 679512, Note_on_c, 2, 50, 127
2, 679512, Note_on_c, 10, 69, 127
2, 679661, Note_off_c, 2, 50, 127
2, 679663, Note_on_c, 0, 48, 127
2, 679811, Note_off_c, 10, 69, 127
2, 679812, Note_off_c, 0, 48, 127
2, 679814, Note_on_c, 12, 47, 127
2, 679814, Note_on_c, 7, 67, 127
2, 679963, Note_off_c, 12, 47, 127
2, 679964, Note_on_c, 4, 52, 127
2, 680113, Note_off_c, 4, 52, 127
2, 680113, Note_off_c, 7, 67, 127
2, 680115, Note_on_c, 10, 45, 127
2, 680115, Note_on_c, 6, 66, 127
2, 680267, Note_off_c, 10, 45, 127
2, 680269, Note_on_c, 10, 57, 127
2, 680421, Note_off_c, 10, 57, 127
2, 680421, Note_off_c, 4, 76, 127
2, 680423, Note_on_c, 7, 55, 127
2, 680423, Note_on_c, 4, 76, 127
2, 680575, Note_off_c, 7, 55, 127
2, 680577, Note_on_c, 6, 54, 127
2, 680724, Note_off_c, 6, 66, 127
2, 680729, Note_off_c, 6, 54, 127
2, 680729, Note_off_c, 4, 76, 127
2, 680731, Note_on_c, 12, 59, 127
2, 680731, Note_on_c, 3, 75, 127
2, 680731, Note_on_c, 10, 69, 127
2, 680883, Note_off_c, 12, 59, 127
2, 680884, Note_on_c, 12, 47, 127
2, 681036, Note_off_c, 12, 47, 127
2, 681037, Note_off_c, 10, 69, 127
2, 681037, Note_off_c, 3, 75, 127
2, 681038, Note_on_c, 4, 52, 127
2, 681038, Note_on_c, 4, 76, 127
2, 681038, Note_on_c, 8, 68, 127
2, 681191, Note_off_c, 4, 52, 127
2, 681194, Note_on_c, 12, 47, 127
2, 681347, Note_off_c, 12, 47, 127
2, 681347, Note_off_c, 8, 68, 127
2, 681347, Note_off_c, 4, 76, 127
2, 681349, Note_on_c, 8, 44, 127
2, 681349, Note_on_c, 12, 71, 127
2, 681349, Note_on_c, 4, 64, 127
2, 681349, Note_on_c, 2, 74, 127
2, 681502, Note_off_c, 8, 44, 127
2, 681505, Note_on_c, 4, 40, 127
2, 681658, Note_off_c, 4, 40, 127
2, 681660, Note_on_c, 2, 50, 127
2, 681813, Note_off_c, 2, 50, 127
2, 681816, Note_on_c, 12, 47, 127
2, 681964, Note_off_c, 2, 74, 127
2, 681964, Note_off_c, 4, 64, 127
2, 681969, Note_off_c, 12, 47, 127
2, 681972, Note_on_c, 0, 48, 127
2, 682127, Note_off_c, 0, 48, 127
2, 682129, Note_on_c, 10, 45, 127
2, 682259, Note_off_c, 12, 71, 127
2, 682284, Note_off_c, 10, 45, 127
2, 682286, Note_on_c, 0, 48, 127
2, 682286, Note_on_c, 4, 64, 127
2, 682286, Note_on_c, 10, 69, 127
2, 682286, Note_on_c, 0, 72, 127
2, 682441, Note_off_c, 0, 48, 127
2, 682443, Note_on_c, 4, 52, 127
2, 682598, Note_off_c, 4, 52, 127
2, 682598, Note_off_c, 0, 72, 127
2, 682598, Note_off_c, 10, 69, 127
2, 682598, Note_off_c, 4, 64, 127
2, 682600, Note_on_c, 10, 57, 127
2, 682600, Note_on_c, 2, 62, 127
2, 682600, Note_on_c, 4, 64, 127
2, 682600, Note_on_c, 12, 71, 127
2, 682755, Note_off_c, 10, 57, 127
2, 682757, Note_on_c, 8, 56, 127
2, 682912, Note_off_c, 8, 56, 127
2, 682914, Note_on_c, 10, 57, 127
2, 683060, Note_off_c, 12, 71, 127
2, 683060, Note_off_c, 2, 62, 127
2, 683071, Note_off_c, 10, 57, 127
2, 683073, Note_on_c, 4, 52, 127
2, 683192, Note_off_c, 4, 64, 127
2, 683231, Note_off_c, 4, 52, 127
2, 683233, Note_on_c, 10, 57, 127
2, 683233, Note_on_c, 3, 63, 127
2, 683233, Note_on_c, 6, 66, 127
2, 683233, Note_on_c, 10, 69, 127
2, 683391, Note_off_c, 10, 69, 127
2, 683391, Note_off_c, 6, 66, 127
2, 683391, Note_off_c, 10, 57, 127
2, 683394, Note_on_c, 0, 60, 127
2, 683394, Note_on_c, 8, 68, 127
2, 683550, Note_off_c, 3, 63, 127
2, 683552, Note_off_c, 8, 68, 127
2, 683552, Note_off_c, 0, 60, 127
2, 683554, Note_on_c, 4, 64, 127
2, 683554, Note_on_c, 6, 66, 127
2, 683554, Note_on_c, 10, 69, 127
2, 683712, Note_off_c, 4, 64, 127
2, 683715, Note_on_c, 3, 63, 127
2, 683873, Note_off_c, 3, 63, 127
2, 683875, Note_on_c, 4, 64, 127
2, 683957, Note_off_c, 10, 69, 127
2, 683957, Note_off_c, 6, 66, 127
2, 684040, Note_on_c, 6, 66, 127
2, 684205, Note_off_c, 6, 66, 127
2, 684207, Note_on_c, 8, 68, 127
2, 684372, Note_off_c, 8, 68, 127
2, 684374, Note_on_c, 12, 71, 127
2, 684539, Note_off_c, 12, 71, 127
2, 684541, Note_on_c, 4, 76, 127
2, 684706, Note_off_c, 4, 76, 127
2, 684708, Note_on_c, 3, 75, 127
2, 684873, Note_off_c, 3, 75, 127
2, 684875, Note_on_c, 4, 76, 127
2, 685084, Note_on_c, 12, 71, 127
2, 685290, Note_off_c, 4, 64, 127
2, 685291, Note_off_c, 12, 71, 127
2, 685293, Note_on_c, 8, 68, 127
2, 685500, Note_off_c, 8, 68, 127
2, 685501, Note_on_c, 4, 64, 127
2, 685702, Note_off_c, 4, 76, 127
2, 685791, Note_on_c, 4, 40, 127
2, 685914, Note_off_c, 4, 64, 127
2, 688297, Note_off_c, 4, 40, 127
2, 692736, End_track
3, 0, Start_track
3, 0, Title_t, "MIDI"
3, 1536, End_track
0, 0, End_of_file
