0, 0, Header, 1, 4, 240
1, 0, Start_track
1, 0, Time_signature, 3, 3, 36, 8
1, 0, Tempo, 612245
1, 0, End_track
2, 0, Start_track
2, 0, Title_t, "English Suite 3, 1. Prelude"
2, 0, Program_c, 0, 0
2, 0, Control_c, 0, 7, 99
2, 120, Note_on_c, 0, 74, 107
2, 216, Note_off_c, 0, 74, 64
2, 240, Note_on_c, 0, 74, 107
2, 336, Note_off_c, 0, 74, 64
2, 360, Note_on_c, 0, 70, 107
2, 456, Note_off_c, 0, 70, 64
2, 480, Note_on_c, 0, 67, 107
2, 480, Note_on_c, 0, 70, 107
2, 576, Note_off_c, 0, 70, 64
2, 576, Note_off_c, 0, 67, 64
2, 600, Note_on_c, 0, 70, 107
2, 600, Note_on_c, 0, 67, 107
2, 696, Note_off_c, 0, 67, 64
2, 696, Note_off_c, 0, 70, 64
2, 720, Note_on_c, 0, 69, 107
2, 720, Note_on_c, 0, 66, 107
2, 768, Note_off_c, 0, 69, 64
2, 780, Note_on_c, 0, 67, 107
2, 816, Note_off_c, 0, 66, 64
2, 828, Note_off_c, 0, 67, 64
2, 840, Note_on_c, 0, 69, 107
2, 840, Note_on_c, 0, 66, 107
2, 888, Note_off_c, 0, 69, 64
2, 900, Note_on_c, 0, 70, 107
2, 936, Note_off_c, 0, 66, 64
2, 948, Note_off_c, 0, 70, 64
2, 960, Note_on_c, 0, 66, 107
2, 960, Note_on_c, 0, 69, 107
2, 1008, Note_off_c, 0, 69, 64
2, 1020, Note_on_c, 0, 70, 107
2, 1056, Note_off_c, 0, 66, 64
2, 1068, Note_off_c, 0, 70, 64
2, 1080, Note_on_c, 0, 67, 107
2, 1128, Note_off_c, 0, 67, 64
2, 1140, Note_on_c, 0, 66, 107
2, 1188, Note_off_c, 0, 66, 64
2, 1200, Note_on_c, 0, 67, 107
2, 1248, Note_off_c, 0, 67, 64
2, 1260, Note_on_c, 0, 69, 107
2, 1308, Note_off_c, 0, 69, 64
2, 1320, Note_on_c, 0, 70, 107
2, 1368, Note_off_c, 0, 70, 64
2, 1380, Note_on_c, 0, 72, 107
2, 1428, Note_off_c, 0, 72, 64
2, 1440, Note_on_c, 0, 74, 107
2, 1488, Note_off_c, 0, 74, 64
2, 1500, Note_on_c, 0, 72, 107
2, 1548, Note_off_c, 0, 72, 64
2, 1560, Note_on_c, 0, 74, 107
2, 1608, Note_off_c, 0, 74, 64
2, 1620, Note_on_c, 0, 76, 107
2, 1668, Note_off_c, 0, 76, 64
2, 1680, Note_on_c, 0, 78, 107
2, 1728, Note_off_c, 0, 78, 64
2, 1740, Note_on_c, 0, 74, 107
2, 1788, Note_off_c, 0, 74, 64
2, 1800, Note_on_c, 0, 79, 107
2, 1848, Note_off_c, 0, 79, 64
2, 1860, Note_on_c, 0, 78, 107
2, 1908, Note_off_c, 0, 78, 64
2, 1920, Note_on_c, 0, 79, 107
2, 1968, Note_off_c, 0, 79, 64
2, 1980, Note_on_c, 0, 81, 107
2, 2028, Note_off_c, 0, 81, 64
2, 2040, Note_on_c, 0, 82, 107
2, 2088, Note_off_c, 0, 82, 64
2, 2100, Note_on_c, 0, 79, 107
2, 2148, Note_off_c, 0, 79, 64
2, 2160, Note_on_c, 0, 81, 107
2, 2208, Note_off_c, 0, 81, 64
2, 2220, Note_on_c, 0, 79, 107
2, 2268, Note_off_c, 0, 79, 64
2, 2280, Note_on_c, 0, 78, 107
2, 2328, Note_off_c, 0, 78, 64
2, 2340, Note_on_c, 0, 76, 107
2, 2388, Note_off_c, 0, 76, 64
2, 2400, Note_on_c, 0, 74, 107
2, 2448, Note_off_c, 0, 74, 64
2, 2460, Note_on_c, 0, 72, 107
2, 2508, Note_off_c, 0, 72, 64
2, 2520, Note_on_c, 0, 70, 107
2, 2610, Note_off_c, 0, 70, 64
2, 2640, Note_on_c, 0, 79, 107
2, 2640, Note_on_c, 0, 74, 107
2, 2640, Note_on_c, 0, 70, 107
2, 2736, Note_off_c, 0, 70, 64
2, 2736, Note_off_c, 0, 74, 64
2, 2753, Note_off_c, 0, 79, 64
2, 2760, Note_on_c, 0, 74, 107
2, 2760, Note_on_c, 0, 79, 107
2, 2760, Note_on_c, 0, 70, 107
2, 2856, Note_off_c, 0, 70, 64
2, 2856, Note_off_c, 0, 74, 64
2, 2873, Note_off_c, 0, 79, 64
2, 2880, Note_on_c, 0, 75, 107
2, 2880, Note_on_c, 0, 70, 107
2, 2928, Note_off_c, 0, 75, 64
2, 2940, Note_on_c, 0, 77, 107
2, 2976, Note_off_c, 0, 70, 64
2, 2988, Note_off_c, 0, 77, 64
2, 3000, Note_on_c, 0, 75, 107
2, 3048, Note_off_c, 0, 75, 64
2, 3060, Note_on_c, 0, 74, 107
2, 3108, Note_off_c, 0, 74, 64
2, 3120, Note_on_c, 0, 72, 107
2, 3168, Note_off_c, 0, 72, 64
2, 3180, Note_on_c, 0, 70, 107
2, 3228, Note_off_c, 0, 70, 64
2, 3240, Note_on_c, 0, 69, 107
2, 3336, Note_off_c, 0, 69, 64
2, 3360, Note_on_c, 0, 77, 107
2, 3360, Note_on_c, 0, 69, 107
2, 3360, Note_on_c, 0, 72, 107
2, 3456, Note_off_c, 0, 72, 64
2, 3456, Note_off_c, 0, 69, 64
2, 3456, Note_off_c, 0, 77, 64
2, 3480, Note_on_c, 0, 69, 107
2, 3480, Note_on_c, 0, 77, 107
2, 3480, Note_on_c, 0, 72, 107
2, 3576, Note_off_c, 0, 72, 64
2, 3576, Note_off_c, 0, 77, 64
2, 3576, Note_off_c, 0, 69, 64
2, 3600, Note_on_c, 0, 74, 107
2, 3600, Note_on_c, 0, 69, 107
2, 3648, Note_off_c, 0, 74, 64
2, 3660, Note_on_c, 0, 75, 107
2, 3696, Note_off_c, 0, 69, 64
2, 3708, Note_off_c, 0, 75, 64
2, 3720, Note_on_c, 0, 74, 107
2, 3768, Note_off_c, 0, 74, 64
2, 3780, Note_on_c, 0, 72, 107
2, 3828, Note_off_c, 0, 72, 64
2, 3840, Note_on_c, 0, 70, 107
2, 3888, Note_off_c, 0, 70, 64
2, 3900, Note_on_c, 0, 69, 107
2, 3948, Note_off_c, 0, 69, 64
2, 3960, Note_on_c, 0, 67, 107
2, 4050, Note_off_c, 0, 67, 64
2, 4080, Note_on_c, 0, 75, 107
2, 4080, Note_on_c, 0, 70, 107
2, 4080, Note_on_c, 0, 67, 107
2, 4176, Note_off_c, 0, 67, 64
2, 4176, Note_off_c, 0, 70, 64
2, 4176, Note_off_c, 0, 75, 64
2, 4200, Note_on_c, 0, 67, 107
2, 4200, Note_on_c, 0, 75, 107
2, 4200, Note_on_c, 0, 70, 107
2, 4296, Note_off_c, 0, 70, 64
2, 4296, Note_off_c, 0, 75, 64
2, 4296, Note_off_c, 0, 67, 64
2, 4320, Note_on_c, 0, 72, 107
2, 4320, Note_on_c, 0, 67, 107
2, 4368, Note_off_c, 0, 72, 64
2, 4380, Note_on_c, 0, 74, 107
2, 4416, Note_off_c, 0, 67, 64
2, 4428, Note_off_c, 0, 74, 64
2, 4440, Note_on_c, 0, 72, 107
2, 4488, Note_off_c, 0, 72, 64
2, 4500, Note_on_c, 0, 70, 107
2, 4548, Note_off_c, 0, 70, 64
2, 4560, Note_on_c, 0, 69, 107
2, 4608, Note_off_c, 0, 69, 64
2, 4620, Note_on_c, 0, 67, 107
2, 4668, Note_off_c, 0, 67, 64
2, 4680, Note_on_c, 0, 66, 107
2, 4770, Note_off_c, 0, 66, 64
2, 4800, Note_on_c, 0, 66, 107
2, 4800, Note_on_c, 0, 69, 107
2, 4800, Note_on_c, 0, 74, 107
2, 4896, Note_off_c, 0, 74, 64
2, 4896, Note_off_c, 0, 69, 64
2, 4896, Note_off_c, 0, 66, 64
2, 4920, Note_on_c, 0, 66, 107
2, 4920, Note_on_c, 0, 74, 107
2, 4920, Note_on_c, 0, 69, 107
2, 5016, Note_off_c, 0, 69, 64
2, 5016, Note_off_c, 0, 74, 64
2, 5016, Note_off_c, 0, 66, 64
2, 5040, Note_on_c, 0, 70, 107
2, 5040, Note_on_c, 0, 62, 107
2, 5040, Note_on_c, 0, 67, 107
2, 5136, Note_off_c, 0, 67, 64
2, 5136, Note_off_c, 0, 62, 64
2, 5136, Note_off_c, 0, 70, 64
2, 5160, Note_on_c, 0, 70, 107
2, 5160, Note_on_c, 0, 67, 107
2, 5256, Note_off_c, 0, 67, 64
2, 5256, Note_off_c, 0, 70, 64
2, 5280, Note_on_c, 0, 67, 107
2, 5280, Note_on_c, 0, 70, 107
2, 5376, Note_off_c, 0, 70, 64
2, 5376, Note_off_c, 0, 67, 64
2, 5400, Note_on_c, 0, 70, 107
2, 5400, Note_on_c, 0, 63, 107
2, 5448, Note_off_c, 0, 63, 64
2, 5460, Note_on_c, 0, 62, 107
2, 5508, Note_off_c, 0, 62, 64
2, 5520, Note_on_c, 0, 63, 107
2, 5568, Note_off_c, 0, 63, 64
2, 5580, Note_on_c, 0, 65, 107
2, 5628, Note_off_c, 0, 65, 64
2, 5640, Note_on_c, 0, 67, 107
2, 5688, Note_off_c, 0, 67, 64
2, 5688, Note_off_c, 0, 70, 64
2, 5700, Note_on_c, 0, 63, 107
2, 5748, Note_off_c, 0, 63, 64
2, 5760, Note_on_c, 0, 69, 107
2, 5760, Note_on_c, 0, 60, 107
2, 5808, Note_off_c, 0, 60, 64
2, 5820, Note_on_c, 0, 67, 107
2, 5868, Note_off_c, 0, 67, 64
2, 5880, Note_on_c, 0, 65, 107
2, 5928, Note_off_c, 0, 65, 64
2, 5940, Note_on_c, 0, 63, 107
2, 5988, Note_off_c, 0, 63, 64
2, 6000, Note_on_c, 0, 62, 107
2, 6048, Note_off_c, 0, 62, 64
2, 6060, Note_on_c, 0, 60, 107
2, 6108, Note_off_c, 0, 60, 64
2, 6120, Note_on_c, 0, 62, 107
2, 6168, Note_off_c, 0, 62, 64
2, 6180, Note_on_c, 0, 60, 107
2, 6228, Note_off_c, 0, 60, 64
2, 6240, Note_on_c, 0, 62, 107
2, 6288, Note_off_c, 0, 62, 64
2, 6300, Note_on_c, 0, 63, 107
2, 6348, Note_off_c, 0, 63, 64
2, 6360, Note_on_c, 0, 65, 107
2, 6408, Note_off_c, 0, 65, 64
2, 6408, Note_off_c, 0, 69, 64
2, 6420, Note_on_c, 0, 62, 107
2, 6468, Note_off_c, 0, 62, 64
2, 6480, Note_on_c, 0, 58, 107
2, 6480, Note_on_c, 0, 67, 107
2, 6528, Note_off_c, 0, 58, 64
2, 6540, Note_on_c, 0, 65, 107
2, 6588, Note_off_c, 0, 65, 64
2, 6600, Note_on_c, 0, 63, 107
2, 6648, Note_off_c, 0, 63, 64
2, 6660, Note_on_c, 0, 62, 107
2, 6708, Note_off_c, 0, 62, 64
2, 6720, Note_on_c, 0, 60, 107
2, 6768, Note_off_c, 0, 60, 64
2, 6780, Note_on_c, 0, 58, 107
2, 6828, Note_off_c, 0, 58, 64
2, 6840, Note_on_c, 0, 60, 107
2, 6888, Note_off_c, 0, 60, 64
2, 6900, Note_on_c, 0, 58, 107
2, 6948, Note_off_c, 0, 58, 64
2, 6960, Note_on_c, 0, 60, 107
2, 7008, Note_off_c, 0, 60, 64
2, 7020, Note_on_c, 0, 62, 107
2, 7068, Note_off_c, 0, 62, 64
2, 7080, Note_on_c, 0, 63, 107
2, 7128, Note_off_c, 0, 63, 64
2, 7128, Note_off_c, 0, 67, 64
2, 7140, Note_on_c, 0, 60, 107
2, 7188, Note_off_c, 0, 60, 64
2, 7200, Note_on_c, 0, 57, 107
2, 7200, Note_on_c, 0, 66, 107
2, 7248, Note_off_c, 0, 57, 64
2, 7260, Note_on_c, 0, 63, 107
2, 7308, Note_off_c, 0, 63, 64
2, 7320, Note_on_c, 0, 62, 107
2, 7368, Note_off_c, 0, 62, 64
2, 7380, Note_on_c, 0, 60, 107
2, 7428, Note_off_c, 0, 60, 64
2, 7440, Note_on_c, 0, 58, 107
2, 7488, Note_off_c, 0, 58, 64
2, 7488, Note_off_c, 0, 66, 64
2, 7500, Note_on_c, 0, 57, 107
2, 7548, Note_off_c, 0, 57, 64
2, 7560, Note_on_c, 0, 67, 107
2, 7584, Note_off_c, 0, 67, 64
2, 7590, Note_on_c, 0, 66, 107
2, 7614, Note_off_c, 0, 66, 64
2, 7620, Note_on_c, 0, 67, 107
2, 7872, Note_off_c, 0, 67, 64
2, 7920, Note_on_c, 0, 69, 107
2, 8010, Note_off_c, 0, 69, 64
2, 8040, Note_on_c, 0, 74, 107
2, 8040, Note_on_c, 0, 66, 107
2, 8040, Note_on_c, 0, 69, 107
2, 8130, Note_off_c, 0, 74, 64
2, 8136, Note_off_c, 0, 69, 64
2, 8136, Note_off_c, 0, 66, 64
2, 8160, Note_on_c, 0, 74, 107
2, 8160, Note_on_c, 0, 69, 107
2, 8160, Note_on_c, 0, 66, 107
2, 8250, Note_off_c, 0, 74, 64
2, 8256, Note_off_c, 0, 66, 64
2, 8256, Note_off_c, 0, 69, 64
2, 8280, Note_on_c, 0, 77, 107
2, 8280, Note_on_c, 0, 71, 107
2, 8280, Note_on_c, 0, 74, 107
2, 8280, Note_on_c, 0, 67, 107
2, 8370, Note_off_c, 0, 77, 64
2, 8376, Note_off_c, 0, 67, 64
2, 8376, Note_off_c, 0, 74, 64
2, 8376, Note_off_c, 0, 71, 64
2, 8400, Note_on_c, 0, 71, 107
2, 8400, Note_on_c, 0, 67, 107
2, 8400, Note_on_c, 0, 74, 107
2, 8400, Note_on_c, 0, 77, 107
2, 8490, Note_off_c, 0, 77, 64
2, 8496, Note_off_c, 0, 74, 64
2, 8496, Note_off_c, 0, 67, 64
2, 8496, Note_off_c, 0, 71, 64
2, 8520, Note_on_c, 0, 71, 107
2, 8520, Note_on_c, 0, 77, 107
2, 8520, Note_on_c, 0, 67, 107
2, 8520, Note_on_c, 0, 74, 107
2, 8610, Note_off_c, 0, 77, 64
2, 8616, Note_off_c, 0, 74, 64
2, 8616, Note_off_c, 0, 67, 64
2, 8616, Note_off_c, 0, 71, 64
2, 8640, Note_on_c, 0, 77, 107
2, 8640, Note_on_c, 0, 67, 107
2, 8640, Note_on_c, 0, 71, 107
2, 8640, Note_on_c, 0, 74, 107
2, 8736, Note_off_c, 0, 74, 64
2, 8736, Note_off_c, 0, 71, 64
2, 8736, Note_off_c, 0, 67, 64
2, 8736, Note_off_c, 0, 77, 64
2, 8760, Note_on_c, 0, 76, 107
2, 8760, Note_on_c, 0, 67, 107
2, 8760, Note_on_c, 0, 72, 107
2, 8850, Note_off_c, 0, 76, 64
2, 8856, Note_off_c, 0, 72, 64
2, 8856, Note_off_c, 0, 67, 64
2, 8880, Note_on_c, 0, 76, 107
2, 8880, Note_on_c, 0, 72, 107
2, 8880, Note_on_c, 0, 67, 107
2, 8970, Note_off_c, 0, 76, 64
2, 8976, Note_off_c, 0, 67, 64
2, 8976, Note_off_c, 0, 72, 64
2, 9000, Note_on_c, 0, 79, 107
2, 9000, Note_on_c, 0, 69, 107
2, 9000, Note_on_c, 0, 76, 107
2, 9000, Note_on_c, 0, 73, 107
2, 9090, Note_off_c, 0, 79, 64
2, 9096, Note_off_c, 0, 73, 64
2, 9096, Note_off_c, 0, 76, 64
2, 9096, Note_off_c, 0, 69, 64
2, 9120, Note_on_c, 0, 79, 107
2, 9120, Note_on_c, 0, 69, 107
2, 9120, Note_on_c, 0, 73, 107
2, 9120, Note_on_c, 0, 76, 107
2, 9210, Note_off_c, 0, 79, 64
2, 9216, Note_off_c, 0, 76, 64
2, 9216, Note_off_c, 0, 73, 64
2, 9216, Note_off_c, 0, 69, 64
2, 9240, Note_on_c, 0, 79, 107
2, 9240, Note_on_c, 0, 76, 107
2, 9240, Note_on_c, 0, 69, 107
2, 9240, Note_on_c, 0, 73, 107
2, 9330, Note_off_c, 0, 79, 64
2, 9336, Note_off_c, 0, 73, 64
2, 9336, Note_off_c, 0, 69, 64
2, 9336, Note_off_c, 0, 76, 64
2, 9360, Note_on_c, 0, 79, 107
2, 9360, Note_on_c, 0, 69, 107
2, 9360, Note_on_c, 0, 76, 107
2, 9360, Note_on_c, 0, 73, 107
2, 9456, Note_off_c, 0, 73, 64
2, 9456, Note_off_c, 0, 76, 64
2, 9456, Note_off_c, 0, 69, 64
2, 9456, Note_off_c, 0, 79, 64
2, 9480, Note_on_c, 0, 78, 107
2, 9480, Note_on_c, 0, 74, 107
2, 9480, Note_on_c, 0, 69, 107
2, 9570, Note_off_c, 0, 78, 64
2, 9576, Note_off_c, 0, 69, 64
2, 9576, Note_off_c, 0, 74, 64
2, 9600, Note_on_c, 0, 78, 107
2, 9600, Note_on_c, 0, 74, 107
2, 9600, Note_on_c, 0, 69, 107
2, 9690, Note_off_c, 0, 78, 64
2, 9696, Note_off_c, 0, 69, 64
2, 9696, Note_off_c, 0, 74, 64
2, 9720, Note_on_c, 0, 81, 107
2, 9720, Note_on_c, 0, 74, 107
2, 9720, Note_on_c, 0, 72, 107
2, 9810, Note_off_c, 0, 81, 64
2, 9816, Note_off_c, 0, 72, 64
2, 9816, Note_off_c, 0, 74, 64
2, 9840, Note_on_c, 0, 81, 107
2, 9840, Note_on_c, 0, 74, 107
2, 9840, Note_on_c, 0, 72, 107
2, 9930, Note_off_c, 0, 81, 64
2, 9936, Note_off_c, 0, 72, 64
2, 9936, Note_off_c, 0, 74, 64
2, 9960, Note_on_c, 0, 81, 107
2, 9960, Note_on_c, 0, 72, 107
2, 9960, Note_on_c, 0, 74, 107
2, 10050, Note_off_c, 0, 81, 64
2, 10056, Note_off_c, 0, 74, 64
2, 10056, Note_off_c, 0, 72, 64
2, 10080, Note_on_c, 0, 81, 107
2, 10080, Note_on_c, 0, 72, 107
2, 10080, Note_on_c, 0, 74, 107
2, 10176, Note_off_c, 0, 72, 64
2, 10176, Note_off_c, 0, 81, 64
2, 10200, Note_on_c, 0, 79, 107
2, 10200, Note_on_c, 0, 70, 107
2, 10272, Note_off_c, 0, 74, 64
2, 10290, Note_off_c, 0, 79, 64
2, 10296, Note_off_c, 0, 70, 64
2, 10320, Note_on_c, 0, 77, 107
2, 10320, Note_on_c, 0, 67, 107
2, 10320, Note_on_c, 0, 74, 107
2, 10410, Note_off_c, 0, 77, 64
2, 10416, Note_off_c, 0, 74, 64
2, 10416, Note_off_c, 0, 67, 64
2, 10440, Note_on_c, 0, 72, 107
2, 10440, Note_on_c, 0, 67, 107
2, 10440, Note_on_c, 0, 75, 107
2, 10536, Note_off_c, 0, 75, 64
2, 10536, Note_off_c, 0, 72, 64
2, 10560, Note_on_c, 0, 70, 107
2, 10560, Note_on_c, 0, 74, 107
2, 10656, Note_off_c, 0, 74, 64
2, 10656, Note_off_c, 0, 70, 64
2, 10680, Note_on_c, 0, 72, 107
2, 10680, Note_on_c, 0, 69, 107
2, 10728, Note_off_c, 0, 67, 64
2, 10776, Note_off_c, 0, 69, 64
2, 10776, Note_off_c, 0, 72, 64
2, 10800, Note_on_c, 0, 69, 107
2, 10800, Note_on_c, 0, 66, 107
2, 10800, Note_on_c, 0, 72, 107
2, 10944, Note_off_c, 0, 72, 64
2, 10980, Note_on_c, 0, 74, 107
2, 10992, Note_off_c, 0, 66, 64
2, 10992, Note_off_c, 0, 69, 64
2, 11028, Note_off_c, 0, 74, 64
2, 11040, Note_on_c, 0, 62, 107
2, 11040, Note_on_c, 0, 67, 107
2, 11040, Note_on_c, 0, 70, 107
2, 11136, Note_off_c, 0, 62, 64
2, 11160, Note_on_c, 0, 63, 107
2, 11208, Note_off_c, 0, 70, 64
2, 11220, Note_on_c, 0, 69, 107
2, 11256, Note_off_c, 0, 63, 64
2, 11256, Note_off_c, 0, 67, 64
2, 11268, Note_off_c, 0, 69, 64
2, 11280, Note_on_c, 0, 66, 107
2, 11280, Note_on_c, 0, 70, 107
2, 11304, Note_off_c, 0, 70, 64
2, 11310, Note_on_c, 0, 69, 107
2, 11334, Note_off_c, 0, 69, 64
2, 11340, Note_on_c, 0, 70, 105
2, 11364, Note_off_c, 0, 70, 64
2, 11370, Note_on_c, 0, 69, 105
2, 11457, Note_off_c, 0, 69, 64
2, 11460, Note_on_c, 0, 67, 107
2, 11472, Note_off_c, 0, 66, 64
2, 11508, Note_off_c, 0, 67, 64
2, 11520, Note_on_c, 0, 67, 107
2, 11520, Note_on_c, 0, 67, 107
2, 11568, Note_off_c, 0, 67, 64
2, 11580, Note_on_c, 0, 69, 107
2, 11616, Note_off_c, 0, 67, 64
2, 11628, Note_off_c, 0, 69, 64
2, 11640, Note_on_c, 0, 70, 107
2, 11688, Note_off_c, 0, 70, 64
2, 11700, Note_on_c, 0, 67, 107
2, 11748, Note_off_c, 0, 67, 64
2, 11760, Note_on_c, 0, 66, 107
2, 11808, Note_off_c, 0, 66, 64
2, 11820, Note_on_c, 0, 67, 107
2, 11868, Note_off_c, 0, 67, 64
2, 11880, Note_on_c, 0, 62, 107
2, 11928, Note_off_c, 0, 62, 64
2, 11940, Note_on_c, 0, 67, 107
2, 11988, Note_off_c, 0, 67, 64
2, 12000, Note_on_c, 0, 70, 107
2, 12048, Note_off_c, 0, 70, 64
2, 12060, Note_on_c, 0, 67, 107
2, 12108, Note_off_c, 0, 67, 64
2, 12120, Note_on_c, 0, 73, 107
2, 12168, Note_off_c, 0, 73, 64
2, 12180, Note_on_c, 0, 67, 107
2, 12228, Note_off_c, 0, 67, 64
2, 12240, Note_on_c, 0, 74, 107
2, 12330, Note_off_c, 0, 74, 64
2, 12360, Note_on_c, 0, 81, 107
2, 12456, Note_off_c, 0, 81, 64
2, 12480, Note_on_c, 0, 81, 107
2, 12576, Note_off_c, 0, 81, 64
2, 12600, Note_on_c, 0, 77, 107
2, 12696, Note_off_c, 0, 77, 64
2, 12720, Note_on_c, 0, 74, 107
2, 12816, Note_off_c, 0, 74, 64
2, 12840, Note_on_c, 0, 74, 107
2, 12936, Note_off_c, 0, 74, 64
2, 12960, Note_on_c, 0, 74, 107
2, 13008, Note_off_c, 0, 74, 64
2, 13020, Note_on_c, 0, 71, 107
2, 13068, Note_off_c, 0, 71, 64
2, 13080, Note_on_c, 0, 72, 107
2, 13128, Note_off_c, 0, 72, 64
2, 13140, Note_on_c, 0, 76, 107
2, 13188, Note_off_c, 0, 76, 64
2, 13200, Note_on_c, 0, 77, 107
2, 13248, Note_off_c, 0, 77, 64
2, 13260, Note_on_c, 0, 72, 107
2, 13308, Note_off_c, 0, 72, 64
2, 13320, Note_on_c, 0, 70, 107
2, 13368, Note_off_c, 0, 70, 64
2, 13380, Note_on_c, 0, 72, 107
2, 13428, Note_off_c, 0, 72, 64
2, 13440, Note_on_c, 0, 74, 107
2, 13488, Note_off_c, 0, 74, 64
2, 13500, Note_on_c, 0, 70, 107
2, 13548, Note_off_c, 0, 70, 64
2, 13560, Note_on_c, 0, 75, 107
2, 13608, Note_off_c, 0, 75, 64
2, 13620, Note_on_c, 0, 70, 107
2, 13668, Note_off_c, 0, 70, 64
2, 13680, Note_on_c, 0, 69, 107
2, 13728, Note_off_c, 0, 69, 64
2, 13740, Note_on_c, 0, 72, 107
2, 13788, Note_off_c, 0, 72, 64
2, 13800, Note_on_c, 0, 74, 107
2, 13848, Note_off_c, 0, 74, 64
2, 13860, Note_on_c, 0, 75, 107
2, 13908, Note_off_c, 0, 75, 64
2, 13920, Note_on_c, 0, 77, 107
2, 13968, Note_off_c, 0, 77, 64
2, 13980, Note_on_c, 0, 74, 107
2, 14028, Note_off_c, 0, 74, 64
2, 14040, Note_on_c, 0, 71, 107
2, 14136, Note_off_c, 0, 71, 64
2, 14160, Note_on_c, 0, 72, 107
2, 14250, Note_off_c, 0, 72, 64
2, 14280, Note_on_c, 0, 72, 107
2, 14370, Note_off_c, 0, 72, 64
2, 14400, Note_on_c, 0, 72, 107
2, 14448, Note_off_c, 0, 72, 64
2, 14460, Note_on_c, 0, 74, 107
2, 14508, Note_off_c, 0, 74, 64
2, 14520, Note_on_c, 0, 75, 107
2, 14568, Note_off_c, 0, 75, 64
2, 14580, Note_on_c, 0, 72, 107
2, 14628, Note_off_c, 0, 72, 64
2, 14640, Note_on_c, 0, 78, 107
2, 14688, Note_off_c, 0, 78, 64
2, 14700, Note_on_c, 0, 72, 107
2, 14748, Note_off_c, 0, 72, 64
2, 14760, Note_on_c, 0, 81, 107
2, 14808, Note_off_c, 0, 81, 64
2, 14820, Note_on_c, 0, 75, 107
2, 14868, Note_off_c, 0, 75, 64
2, 14880, Note_on_c, 0, 74, 107
2, 14928, Note_off_c, 0, 74, 64
2, 14940, Note_on_c, 0, 72, 107
2, 14988, Note_off_c, 0, 72, 64
2, 15000, Note_on_c, 0, 70, 107
2, 15048, Note_off_c, 0, 70, 64
2, 15060, Note_on_c, 0, 69, 107
2, 15108, Note_off_c, 0, 69, 64
2, 15120, Note_on_c, 0, 70, 107
2, 15120, Note_on_c, 0, 67, 107
2, 15216, Note_off_c, 0, 67, 64
2, 15216, Note_off_c, 0, 70, 64
2, 15240, Note_on_c, 0, 67, 107
2, 15240, Note_on_c, 0, 74, 107
2, 15336, Note_off_c, 0, 74, 64
2, 15336, Note_off_c, 0, 67, 64
2, 15360, Note_on_c, 0, 69, 107
2, 15360, Note_on_c, 0, 74, 107
2, 15456, Note_off_c, 0, 74, 64
2, 15456, Note_off_c, 0, 69, 64
2, 15480, Note_on_c, 0, 70, 107
2, 15480, Note_on_c, 0, 69, 107
2, 15576, Note_off_c, 0, 69, 64
2, 15576, Note_off_c, 0, 70, 64
2, 15600, Note_on_c, 0, 70, 107
2, 15600, Note_on_c, 0, 67, 107
2, 15696, Note_off_c, 0, 67, 64
2, 15696, Note_off_c, 0, 70, 64
2, 15720, Note_on_c, 0, 70, 107
2, 15720, Note_on_c, 0, 67, 107
2, 15816, Note_off_c, 0, 67, 64
2, 15816, Note_off_c, 0, 70, 64
2, 15840, Note_on_c, 0, 69, 107
2, 15840, Note_on_c, 0, 67, 107
2, 15888, Note_off_c, 0, 69, 64
2, 15900, Note_on_c, 0, 81, 107
2, 15936, Note_off_c, 0, 67, 64
2, 15948, Note_off_c, 0, 81, 64
2, 15960, Note_on_c, 0, 74, 107
2, 15960, Note_on_c, 0, 65, 107
2, 16008, Note_off_c, 0, 74, 64
2, 16020, Note_on_c, 0, 81, 107
2, 16056, Note_off_c, 0, 65, 64
2, 16068, Note_off_c, 0, 81, 64
2, 16080, Note_on_c, 0, 64, 107
2, 16080, Note_on_c, 0, 73, 107
2, 16128, Note_off_c, 0, 73, 64
2, 16140, Note_on_c, 0, 79, 107
2, 16176, Note_off_c, 0, 64, 64
2, 16188, Note_off_c, 0, 79, 64
2, 16200, Note_on_c, 0, 77, 107
2, 16200, Note_on_c, 0, 62, 107
2, 16248, Note_off_c, 0, 77, 64
2, 16260, Note_on_c, 0, 81, 107
2, 16296, Note_off_c, 0, 62, 64
2, 16308, Note_off_c, 0, 81, 64
2, 16320, Note_on_c, 0, 74, 107
2, 16320, Note_on_c, 0, 65, 107
2, 16368, Note_off_c, 0, 74, 64
2, 16380, Note_on_c, 0, 81, 107
2, 16416, Note_off_c, 0, 65, 64
2, 16428, Note_off_c, 0, 81, 64
2, 16440, Note_on_c, 0, 64, 107
2, 16440, Note_on_c, 0, 73, 107
2, 16488, Note_off_c, 0, 73, 64
2, 16500, Note_on_c, 0, 79, 107
2, 16536, Note_off_c, 0, 64, 64
2, 16548, Note_off_c, 0, 79, 64
2, 16560, Note_on_c, 0, 77, 107
2, 16560, Note_on_c, 0, 62, 107
2, 16608, Note_off_c, 0, 77, 64
2, 16620, Note_on_c, 0, 74, 107
2, 16668, Note_off_c, 0, 74, 64
2, 16680, Note_on_c, 0, 71, 107
2, 16728, Note_off_c, 0, 71, 64
2, 16740, Note_on_c, 0, 77, 107
2, 16788, Note_off_c, 0, 77, 64
2, 16800, Note_on_c, 0, 69, 107
2, 16848, Note_off_c, 0, 69, 64
2, 16860, Note_on_c, 0, 77, 107
2, 16908, Note_off_c, 0, 77, 64
2, 16920, Note_on_c, 0, 67, 107
2, 16968, Note_off_c, 0, 67, 64
2, 16980, Note_on_c, 0, 77, 107
2, 17028, Note_off_c, 0, 77, 64
2, 17040, Note_on_c, 0, 69, 107
2, 17088, Note_off_c, 0, 69, 64
2, 17100, Note_on_c, 0, 77, 107
2, 17148, Note_off_c, 0, 77, 64
2, 17160, Note_on_c, 0, 71, 107
2, 17208, Note_off_c, 0, 71, 64
2, 17208, Note_off_c, 0, 62, 64
2, 17220, Note_on_c, 0, 77, 107
2, 17268, Note_off_c, 0, 77, 64
2, 17280, Note_on_c, 0, 75, 107
2, 17328, Note_off_c, 0, 75, 64
2, 17340, Note_on_c, 0, 79, 107
2, 17388, Note_off_c, 0, 79, 64
2, 17400, Note_on_c, 0, 72, 107
2, 17400, Note_on_c, 0, 63, 107
2, 17448, Note_off_c, 0, 72, 64
2, 17460, Note_on_c, 0, 79, 107
2, 17496, Note_off_c, 0, 63, 64
2, 17508, Note_off_c, 0, 79, 64
2, 17520, Note_on_c, 0, 62, 107
2, 17520, Note_on_c, 0, 71, 107
2, 17568, Note_off_c, 0, 71, 64
2, 17580, Note_on_c, 0, 77, 107
2, 17616, Note_off_c, 0, 62, 64
2, 17628, Note_off_c, 0, 77, 64
2, 17640, Note_on_c, 0, 60, 107
2, 17640, Note_on_c, 0, 75, 107
2, 17688, Note_off_c, 0, 75, 64
2, 17700, Note_on_c, 0, 79, 107
2, 17736, Note_off_c, 0, 60, 64
2, 17748, Note_off_c, 0, 79, 64
2, 17760, Note_on_c, 0, 63, 107
2, 17760, Note_on_c, 0, 72, 107
2, 17808, Note_off_c, 0, 72, 64
2, 17820, Note_on_c, 0, 79, 107
2, 17856, Note_off_c, 0, 63, 64
2, 17868, Note_off_c, 0, 79, 64
2, 17880, Note_on_c, 0, 62, 107
2, 17880, Note_on_c, 0, 71, 107
2, 17928, Note_off_c, 0, 71, 64
2, 17940, Note_on_c, 0, 77, 107
2, 17976, Note_off_c, 0, 62, 64
2, 17988, Note_off_c, 0, 77, 64
2, 18000, Note_on_c, 0, 75, 107
2, 18048, Note_off_c, 0, 75, 64
2, 18060, Note_on_c, 0, 72, 107
2, 18108, Note_off_c, 0, 72, 64
2, 18120, Note_on_c, 0, 69, 107
2, 18168, Note_off_c, 0, 69, 64
2, 18180, Note_on_c, 0, 75, 107
2, 18228, Note_off_c, 0, 75, 64
2, 18240, Note_on_c, 0, 67, 107
2, 18288, Note_off_c, 0, 67, 64
2, 18300, Note_on_c, 0, 75, 107
2, 18348, Note_off_c, 0, 75, 64
2, 18360, Note_on_c, 0, 65, 107
2, 18408, Note_off_c, 0, 65, 64
2, 18420, Note_on_c, 0, 75, 107
2, 18468, Note_off_c, 0, 75, 64
2, 18480, Note_on_c, 0, 67, 107
2, 18528, Note_off_c, 0, 67, 64
2, 18540, Note_on_c, 0, 75, 107
2, 18588, Note_off_c, 0, 75, 64
2, 18600, Note_on_c, 0, 69, 107
2, 18648, Note_off_c, 0, 69, 64
2, 18660, Note_on_c, 0, 75, 107
2, 18708, Note_off_c, 0, 75, 64
2, 18720, Note_on_c, 0, 74, 107
2, 18816, Note_off_c, 0, 74, 64
2, 18840, Note_on_c, 0, 77, 107
2, 18936, Note_off_c, 0, 77, 64
2, 18960, Note_on_c, 0, 77, 107
2, 19056, Note_off_c, 0, 77, 64
2, 19080, Note_on_c, 0, 74, 107
2, 19176, Note_off_c, 0, 74, 64
2, 19200, Note_on_c, 0, 74, 107
2, 19200, Note_on_c, 0, 70, 107
2, 19296, Note_off_c, 0, 70, 64
2, 19296, Note_off_c, 0, 74, 64
2, 19320, Note_on_c, 0, 74, 107
2, 19320, Note_on_c, 0, 70, 107
2, 19416, Note_off_c, 0, 70, 64
2, 19416, Note_off_c, 0, 74, 64
2, 19440, Note_on_c, 0, 72, 107
2, 19440, Note_on_c, 0, 70, 107
2, 19488, Note_off_c, 0, 72, 64
2, 19500, Note_on_c, 0, 84, 107
2, 19536, Note_off_c, 0, 70, 64
2, 19548, Note_off_c, 0, 84, 64
2, 19560, Note_on_c, 0, 77, 107
2, 19560, Note_on_c, 0, 69, 107
2, 19608, Note_off_c, 0, 77, 64
2, 19620, Note_on_c, 0, 84, 107
2, 19656, Note_off_c, 0, 69, 64
2, 19668, Note_off_c, 0, 84, 64
2, 19680, Note_on_c, 0, 67, 107
2, 19680, Note_on_c, 0, 76, 107
2, 19728, Note_off_c, 0, 76, 64
2, 19740, Note_on_c, 0, 82, 107
2, 19776, Note_off_c, 0, 67, 64
2, 19788, Note_off_c, 0, 82, 64
2, 19800, Note_on_c, 0, 81, 107
2, 19800, Note_on_c, 0, 65, 107
2, 19848, Note_off_c, 0, 81, 64
2, 19860, Note_on_c, 0, 84, 107
2, 19896, Note_off_c, 0, 65, 64
2, 19908, Note_off_c, 0, 84, 64
2, 19920, Note_on_c, 0, 77, 107
2, 19920, Note_on_c, 0, 69, 107
2, 19968, Note_off_c, 0, 77, 64
2, 19980, Note_on_c, 0, 84, 107
2, 20016, Note_off_c, 0, 69, 64
2, 20028, Note_off_c, 0, 84, 64
2, 20040, Note_on_c, 0, 67, 107
2, 20040, Note_on_c, 0, 76, 107
2, 20088, Note_off_c, 0, 76, 64
2, 20100, Note_on_c, 0, 82, 107
2, 20136, Note_off_c, 0, 67, 64
2, 20148, Note_off_c, 0, 82, 64
2, 20160, Note_on_c, 0, 81, 107
2, 20160, Note_on_c, 0, 65, 107
2, 20208, Note_off_c, 0, 81, 64
2, 20220, Note_on_c, 0, 77, 107
2, 20268, Note_off_c, 0, 77, 64
2, 20280, Note_on_c, 0, 74, 107
2, 20328, Note_off_c, 0, 74, 64
2, 20340, Note_on_c, 0, 80, 107
2, 20388, Note_off_c, 0, 80, 64
2, 20400, Note_on_c, 0, 72, 107
2, 20448, Note_off_c, 0, 72, 64
2, 20460, Note_on_c, 0, 80, 107
2, 20508, Note_off_c, 0, 80, 64
2, 20520, Note_on_c, 0, 70, 107
2, 20568, Note_off_c, 0, 70, 64
2, 20580, Note_on_c, 0, 80, 107
2, 20628, Note_off_c, 0, 80, 64
2, 20640, Note_on_c, 0, 72, 107
2, 20688, Note_off_c, 0, 72, 64
2, 20700, Note_on_c, 0, 80, 107
2, 20712, Note_off_c, 0, 65, 64
2, 20748, Note_off_c, 0, 80, 64
2, 20760, Note_on_c, 0, 74, 107
2, 20808, Note_off_c, 0, 74, 64
2, 20820, Note_on_c, 0, 80, 107
2, 20868, Note_off_c, 0, 80, 64
2, 20880, Note_on_c, 0, 79, 107
2, 20928, Note_off_c, 0, 79, 64
2, 20940, Note_on_c, 0, 82, 107
2, 20988, Note_off_c, 0, 82, 64
2, 21000, Note_on_c, 0, 67, 107
2, 21000, Note_on_c, 0, 75, 107
2, 21048, Note_off_c, 0, 75, 64
2, 21060, Note_on_c, 0, 82, 107
2, 21096, Note_off_c, 0, 67, 64
2, 21108, Note_off_c, 0, 82, 64
2, 21120, Note_on_c, 0, 65, 107
2, 21120, Note_on_c, 0, 74, 107
2, 21168, Note_off_c, 0, 74, 64
2, 21180, Note_on_c, 0, 80, 107
2, 21216, Note_off_c, 0, 65, 64
2, 21228, Note_off_c, 0, 80, 64
2, 21240, Note_on_c, 0, 79, 107
2, 21240, Note_on_c, 0, 63, 107
2, 21288, Note_off_c, 0, 79, 64
2, 21300, Note_on_c, 0, 82, 107
2, 21336, Note_off_c, 0, 63, 64
2, 21348, Note_off_c, 0, 82, 64
2, 21360, Note_on_c, 0, 75, 107
2, 21360, Note_on_c, 0, 67, 107
2, 21408, Note_off_c, 0, 75, 64
2, 21420, Note_on_c, 0, 82, 107
2, 21456, Note_off_c, 0, 67, 64
2, 21468, Note_off_c, 0, 82, 64
2, 21480, Note_on_c, 0, 65, 107
2, 21480, Note_on_c, 0, 74, 107
2, 21528, Note_off_c, 0, 74, 64
2, 21540, Note_on_c, 0, 80, 107
2, 21576, Note_off_c, 0, 65, 64
2, 21588, Note_off_c, 0, 80, 64
2, 21600, Note_on_c, 0, 63, 107
2, 21600, Note_on_c, 0, 79, 107
2, 21648, Note_off_c, 0, 79, 64
2, 21660, Note_on_c, 0, 75, 107
2, 21708, Note_off_c, 0, 75, 64
2, 21720, Note_on_c, 0, 72, 107
2, 21768, Note_off_c, 0, 72, 64
2, 21780, Note_on_c, 0, 79, 107
2, 21828, Note_off_c, 0, 79, 64
2, 21840, Note_on_c, 0, 70, 107
2, 21888, Note_off_c, 0, 70, 64
2, 21900, Note_on_c, 0, 79, 107
2, 21948, Note_off_c, 0, 79, 64
2, 21960, Note_on_c, 0, 69, 107
2, 22008, Note_off_c, 0, 69, 64
2, 22020, Note_on_c, 0, 79, 107
2, 22068, Note_off_c, 0, 79, 64
2, 22080, Note_on_c, 0, 70, 107
2, 22128, Note_off_c, 0, 70, 64
2, 22140, Note_on_c, 0, 79, 107
2, 22188, Note_off_c, 0, 79, 64
2, 22200, Note_on_c, 0, 72, 107
2, 22248, Note_off_c, 0, 72, 64
2, 22248, Note_off_c, 0, 63, 64
2, 22260, Note_on_c, 0, 79, 107
2, 22308, Note_off_c, 0, 79, 64
2, 22320, Note_on_c, 0, 78, 107
2, 22416, Note_off_c, 0, 78, 64
2, 22440, Note_on_c, 0, 79, 107
2, 22440, Note_on_c, 0, 74, 107
2, 22536, Note_off_c, 0, 74, 64
2, 22536, Note_off_c, 0, 79, 64
2, 22560, Note_on_c, 0, 77, 107
2, 22560, Note_on_c, 0, 72, 107
2, 22656, Note_off_c, 0, 72, 64
2, 22656, Note_off_c, 0, 77, 64
2, 22680, Note_on_c, 0, 75, 107
2, 22680, Note_on_c, 0, 70, 107
2, 22776, Note_off_c, 0, 70, 64
2, 22776, Note_off_c, 0, 75, 64
2, 22800, Note_on_c, 0, 74, 107
2, 22800, Note_on_c, 0, 69, 107
2, 22896, Note_off_c, 0, 69, 64
2, 22896, Note_off_c, 0, 74, 64
2, 22920, Note_on_c, 0, 72, 107
2, 22920, Note_on_c, 0, 67, 107
2, 23016, Note_off_c, 0, 67, 64
2, 23016, Note_off_c, 0, 72, 64
2, 23040, Note_on_c, 0, 70, 107
2, 23040, Note_on_c, 0, 77, 107
2, 23040, Note_on_c, 0, 65, 107
2, 23136, Note_off_c, 0, 77, 64
2, 23136, Note_off_c, 0, 70, 64
2, 23160, Note_on_c, 0, 69, 107
2, 23160, Note_on_c, 0, 75, 107
2, 23232, Note_off_c, 0, 65, 64
2, 23256, Note_off_c, 0, 75, 64
2, 23256, Note_off_c, 0, 69, 64
2, 23280, Note_on_c, 0, 65, 107
2, 23280, Note_on_c, 0, 74, 107
2, 23280, Note_on_c, 0, 70, 107
2, 23376, Note_off_c, 0, 65, 64
2, 23400, Note_on_c, 0, 67, 107
2, 23448, Note_off_c, 0, 74, 64
2, 23448, Note_off_c, 0, 70, 64
2, 23460, Note_on_c, 0, 79, 107
2, 23496, Note_off_c, 0, 67, 64
2, 23508, Note_off_c, 0, 79, 64
2, 23520, Note_on_c, 0, 74, 107
2, 23520, Note_on_c, 0, 69, 107
2, 23544, Note_off_c, 0, 74, 64
2, 23550, Note_on_c, 0, 72, 107
2, 23574, Note_off_c, 0, 72, 64
2, 23580, Note_on_c, 0, 74, 105
2, 23604, Note_off_c, 0, 74, 64
2, 23610, Note_on_c, 0, 72, 105
2, 23697, Note_off_c, 0, 72, 64
2, 23700, Note_on_c, 0, 70, 107
2, 23712, Note_off_c, 0, 69, 64
2, 23748, Note_off_c, 0, 70, 64
2, 23760, Note_on_c, 0, 70, 107
2, 23760, Note_on_c, 0, 70, 107
2, 23856, Note_off_c, 0, 70, 64
2, 23856, Note_off_c, 0, 70, 64
2, 23880, Note_on_c, 0, 77, 107
2, 23976, Note_off_c, 0, 77, 64
2, 24000, Note_on_c, 0, 77, 107
2, 24096, Note_off_c, 0, 77, 64
2, 24120, Note_on_c, 0, 74, 107
2, 24216, Note_off_c, 0, 74, 64
2, 24240, Note_on_c, 0, 70, 107
2, 24240, Note_on_c, 0, 74, 107
2, 24336, Note_off_c, 0, 74, 64
2, 24336, Note_off_c, 0, 70, 64
2, 24360, Note_on_c, 0, 70, 107
2, 24360, Note_on_c, 0, 74, 107
2, 24456, Note_off_c, 0, 74, 64
2, 24456, Note_off_c, 0, 70, 64
2, 24480, Note_on_c, 0, 72, 107
2, 24480, Note_on_c, 0, 69, 107
2, 24528, Note_off_c, 0, 72, 64
2, 24540, Note_on_c, 0, 70, 107
2, 24576, Note_off_c, 0, 69, 64
2, 24588, Note_off_c, 0, 70, 64
2, 24600, Note_on_c, 0, 72, 107
2, 24600, Note_on_c, 0, 69, 107
2, 24648, Note_off_c, 0, 72, 64
2, 24660, Note_on_c, 0, 74, 107
2, 24696, Note_off_c, 0, 69, 64
2, 24708, Note_off_c, 0, 74, 64
2, 24720, Note_on_c, 0, 69, 107
2, 24720, Note_on_c, 0, 72, 107
2, 24768, Note_off_c, 0, 72, 64
2, 24780, Note_on_c, 0, 74, 107
2, 24816, Note_off_c, 0, 69, 64
2, 24828, Note_off_c, 0, 74, 64
2, 24840, Note_on_c, 0, 70, 107
2, 24888, Note_off_c, 0, 70, 64
2, 24900, Note_on_c, 0, 69, 107
2, 24948, Note_off_c, 0, 69, 64
2, 24960, Note_on_c, 0, 70, 107
2, 25008, Note_off_c, 0, 70, 64
2, 25020, Note_on_c, 0, 72, 107
2, 25068, Note_off_c, 0, 72, 64
2, 25080, Note_on_c, 0, 74, 107
2, 25128, Note_off_c, 0, 74, 64
2, 25140, Note_on_c, 0, 75, 107
2, 25188, Note_off_c, 0, 75, 64
2, 25200, Note_on_c, 0, 77, 107
2, 25248, Note_off_c, 0, 77, 64
2, 25260, Note_on_c, 0, 76, 107
2, 25308, Note_off_c, 0, 76, 64
2, 25320, Note_on_c, 0, 77, 107
2, 25368, Note_off_c, 0, 77, 64
2, 25380, Note_on_c, 0, 79, 107
2, 25428, Note_off_c, 0, 79, 64
2, 25440, Note_on_c, 0, 81, 107
2, 25488, Note_off_c, 0, 81, 64
2, 25500, Note_on_c, 0, 77, 107
2, 25548, Note_off_c, 0, 77, 64
2, 25560, Note_on_c, 0, 82, 107
2, 25608, Note_off_c, 0, 82, 64
2, 25620, Note_on_c, 0, 81, 107
2, 25668, Note_off_c, 0, 81, 64
2, 25680, Note_on_c, 0, 82, 107
2, 25728, Note_off_c, 0, 82, 64
2, 25740, Note_on_c, 0, 84, 107
2, 25788, Note_off_c, 0, 84, 64
2, 25800, Note_on_c, 0, 81, 107
2, 25848, Note_off_c, 0, 81, 64
2, 25860, Note_on_c, 0, 82, 107
2, 25908, Note_off_c, 0, 82, 64
2, 25920, Note_on_c, 0, 84, 107
2, 25968, Note_off_c, 0, 84, 64
2, 25980, Note_on_c, 0, 82, 107
2, 26028, Note_off_c, 0, 82, 64
2, 26040, Note_on_c, 0, 81, 107
2, 26088, Note_off_c, 0, 81, 64
2, 26100, Note_on_c, 0, 79, 107
2, 26148, Note_off_c, 0, 79, 64
2, 26160, Note_on_c, 0, 77, 107
2, 26208, Note_off_c, 0, 77, 64
2, 26220, Note_on_c, 0, 75, 107
2, 26268, Note_off_c, 0, 75, 64
2, 26280, Note_on_c, 0, 74, 107
2, 26370, Note_off_c, 0, 74, 64
2, 26400, Note_on_c, 0, 74, 107
2, 26400, Note_on_c, 0, 77, 107
2, 26400, Note_on_c, 0, 82, 107
2, 26496, Note_off_c, 0, 82, 64
2, 26496, Note_off_c, 0, 77, 64
2, 26496, Note_off_c, 0, 74, 64
2, 26520, Note_on_c, 0, 77, 107
2, 26520, Note_on_c, 0, 82, 107
2, 26520, Note_on_c, 0, 74, 107
2, 26616, Note_off_c, 0, 74, 64
2, 26616, Note_off_c, 0, 82, 64
2, 26616, Note_off_c, 0, 77, 64
2, 26640, Note_on_c, 0, 79, 107
2, 26640, Note_on_c, 0, 74, 107
2, 26688, Note_off_c, 0, 79, 64
2, 26700, Note_on_c, 0, 81, 107
2, 26736, Note_off_c, 0, 74, 64
2, 26748, Note_off_c, 0, 81, 64
2, 26760, Note_on_c, 0, 79, 107
2, 26808, Note_off_c, 0, 79, 64
2, 26820, Note_on_c, 0, 77, 107
2, 26868, Note_off_c, 0, 77, 64
2, 26880, Note_on_c, 0, 75, 107
2, 26928, Note_off_c, 0, 75, 64
2, 26940, Note_on_c, 0, 74, 107
2, 26988, Note_off_c, 0, 74, 64
2, 27000, Note_on_c, 0, 72, 107
2, 27096, Note_off_c, 0, 72, 64
2, 27120, Note_on_c, 0, 75, 107
2, 27120, Note_on_c, 0, 72, 107
2, 27120, Note_on_c, 0, 81, 107
2, 27216, Note_off_c, 0, 81, 64
2, 27216, Note_off_c, 0, 72, 64
2, 27216, Note_off_c, 0, 75, 64
2, 27240, Note_on_c, 0, 72, 107
2, 27240, Note_on_c, 0, 81, 107
2, 27240, Note_on_c, 0, 75, 107
2, 27336, Note_off_c, 0, 75, 64
2, 27336, Note_off_c, 0, 81, 64
2, 27336, Note_off_c, 0, 72, 64
2, 27360, Note_on_c, 0, 72, 107
2, 27360, Note_on_c, 0, 77, 107
2, 27408, Note_off_c, 0, 77, 64
2, 27420, Note_on_c, 0, 79, 107
2, 27456, Note_off_c, 0, 72, 64
2, 27468, Note_off_c, 0, 79, 64
2, 27480, Note_on_c, 0, 77, 107
2, 27528, Note_off_c, 0, 77, 64
2, 27540, Note_on_c, 0, 75, 107
2, 27588, Note_off_c, 0, 75, 64
2, 27600, Note_on_c, 0, 74, 107
2, 27648, Note_off_c, 0, 74, 64
2, 27660, Note_on_c, 0, 72, 107
2, 27708, Note_off_c, 0, 72, 64
2, 27720, Note_on_c, 0, 70, 107
2, 27810, Note_off_c, 0, 70, 64
2, 27840, Note_on_c, 0, 79, 107
2, 27840, Note_on_c, 0, 74, 107
2, 27840, Note_on_c, 0, 70, 107
2, 27936, Note_off_c, 0, 70, 64
2, 27936, Note_off_c, 0, 74, 64
2, 27936, Note_off_c, 0, 79, 64
2, 27960, Note_on_c, 0, 74, 107
2, 27960, Note_on_c, 0, 70, 107
2, 27960, Note_on_c, 0, 79, 107
2, 28056, Note_off_c, 0, 79, 64
2, 28056, Note_off_c, 0, 70, 64
2, 28056, Note_off_c, 0, 74, 64
2, 28080, Note_on_c, 0, 75, 107
2, 28080, Note_on_c, 0, 70, 107
2, 28128, Note_off_c, 0, 75, 64
2, 28140, Note_on_c, 0, 77, 107
2, 28176, Note_off_c, 0, 70, 64
2, 28188, Note_off_c, 0, 77, 64
2, 28200, Note_on_c, 0, 75, 107
2, 28248, Note_off_c, 0, 75, 64
2, 28260, Note_on_c, 0, 74, 107
2, 28308, Note_off_c, 0, 74, 64
2, 28320, Note_on_c, 0, 72, 107
2, 28368, Note_off_c, 0, 72, 64
2, 28380, Note_on_c, 0, 70, 107
2, 28428, Note_off_c, 0, 70, 64
2, 28440, Note_on_c, 0, 69, 107
2, 28530, Note_off_c, 0, 69, 64
2, 28560, Note_on_c, 0, 72, 107
2, 28560, Note_on_c, 0, 69, 107
2, 28560, Note_on_c, 0, 77, 107
2, 28656, Note_off_c, 0, 77, 64
2, 28656, Note_off_c, 0, 69, 64
2, 28656, Note_off_c, 0, 72, 64
2, 28680, Note_on_c, 0, 72, 107
2, 28680, Note_on_c, 0, 77, 107
2, 28680, Note_on_c, 0, 69, 107
2, 28776, Note_off_c, 0, 69, 64
2, 28776, Note_off_c, 0, 77, 64
2, 28776, Note_off_c, 0, 72, 64
2, 28800, Note_on_c, 0, 65, 107
2, 28800, Note_on_c, 0, 74, 107
2, 28800, Note_on_c, 0, 70, 107
2, 28896, Note_off_c, 0, 70, 64
2, 28896, Note_off_c, 0, 74, 64
2, 28896, Note_off_c, 0, 65, 64
2, 28920, Note_on_c, 0, 74, 107
2, 28920, Note_on_c, 0, 70, 107
2, 29010, Note_off_c, 0, 74, 64
2, 29016, Note_off_c, 0, 70, 64
2, 29040, Note_on_c, 0, 74, 107
2, 29040, Note_on_c, 0, 70, 107
2, 29130, Note_off_c, 0, 74, 64
2, 29136, Note_off_c, 0, 70, 64
2, 29160, Note_on_c, 0, 74, 107
2, 29160, Note_on_c, 0, 67, 107
2, 29208, Note_off_c, 0, 67, 64
2, 29220, Note_on_c, 0, 65, 107
2, 29268, Note_off_c, 0, 65, 64
2, 29280, Note_on_c, 0, 67, 107
2, 29328, Note_off_c, 0, 67, 64
2, 29340, Note_on_c, 0, 69, 107
2, 29388, Note_off_c, 0, 69, 64
2, 29400, Note_on_c, 0, 70, 107
2, 29448, Note_off_c, 0, 70, 64
2, 29448, Note_off_c, 0, 74, 64
2, 29460, Note_on_c, 0, 67, 107
2, 29508, Note_off_c, 0, 67, 64
2, 29520, Note_on_c, 0, 72, 107
2, 29520, Note_on_c, 0, 63, 107
2, 29568, Note_off_c, 0, 63, 64
2, 29580, Note_on_c, 0, 70, 107
2, 29628, Note_off_c, 0, 70, 64
2, 29640, Note_on_c, 0, 69, 107
2, 29688, Note_off_c, 0, 69, 64
2, 29700, Note_on_c, 0, 67, 107
2, 29748, Note_off_c, 0, 67, 64
2, 29760, Note_on_c, 0, 65, 107
2, 29808, Note_off_c, 0, 65, 64
2, 29820, Note_on_c, 0, 63, 107
2, 29868, Note_off_c, 0, 63, 64
2, 29880, Note_on_c, 0, 65, 107
2, 29928, Note_off_c, 0, 65, 64
2, 29940, Note_on_c, 0, 63, 107
2, 29988, Note_off_c, 0, 63, 64
2, 30000, Note_on_c, 0, 65, 107
2, 30048, Note_off_c, 0, 65, 64
2, 30060, Note_on_c, 0, 67, 107
2, 30108, Note_off_c, 0, 67, 64
2, 30120, Note_on_c, 0, 69, 107
2, 30168, Note_off_c, 0, 69, 64
2, 30168, Note_off_c, 0, 72, 64
2, 30180, Note_on_c, 0, 65, 107
2, 30228, Note_off_c, 0, 65, 64
2, 30240, Note_on_c, 0, 70, 107
2, 30240, Note_on_c, 0, 62, 107
2, 30288, Note_off_c, 0, 62, 64
2, 30300, Note_on_c, 0, 69, 107
2, 30348, Note_off_c, 0, 69, 64
2, 30360, Note_on_c, 0, 67, 107
2, 30408, Note_off_c, 0, 67, 64
2, 30420, Note_on_c, 0, 65, 107
2, 30468, Note_off_c, 0, 65, 64
2, 30480, Note_on_c, 0, 63, 107
2, 30528, Note_off_c, 0, 63, 64
2, 30540, Note_on_c, 0, 62, 107
2, 30588, Note_off_c, 0, 62, 64
2, 30600, Note_on_c, 0, 63, 107
2, 30648, Note_off_c, 0, 63, 64
2, 30660, Note_on_c, 0, 62, 107
2, 30708, Note_off_c, 0, 62, 64
2, 30720, Note_on_c, 0, 63, 107
2, 30768, Note_off_c, 0, 63, 64
2, 30780, Note_on_c, 0, 65, 107
2, 30828, Note_off_c, 0, 65, 64
2, 30840, Note_on_c, 0, 67, 107
2, 30888, Note_off_c, 0, 67, 64
2, 30888, Note_off_c, 0, 70, 64
2, 30900, Note_on_c, 0, 63, 107
2, 30948, Note_off_c, 0, 63, 64
2, 30960, Note_on_c, 0, 69, 107
2, 30960, Note_on_c, 0, 60, 107
2, 31008, Note_off_c, 0, 60, 64
2, 31020, Note_on_c, 0, 67, 107
2, 31068, Note_off_c, 0, 67, 64
2, 31080, Note_on_c, 0, 65, 107
2, 31128, Note_off_c, 0, 65, 64
2, 31140, Note_on_c, 0, 63, 107
2, 31188, Note_off_c, 0, 63, 64
2, 31200, Note_on_c, 0, 62, 107
2, 31248, Note_off_c, 0, 62, 64
2, 31248, Note_off_c, 0, 69, 64
2, 31260, Note_on_c, 0, 60, 107
2, 31308, Note_off_c, 0, 60, 64
2, 31320, Note_on_c, 0, 70, 107
2, 31320, Note_on_c, 0, 62, 107
2, 31344, Note_off_c, 0, 70, 64
2, 31350, Note_on_c, 0, 69, 107
2, 31368, Note_off_c, 0, 62, 64
2, 31374, Note_off_c, 0, 69, 64
2, 31380, Note_on_c, 0, 65, 107
2, 31380, Note_on_c, 0, 70, 107
2, 31428, Note_off_c, 0, 65, 64
2, 31440, Note_on_c, 0, 63, 107
2, 31488, Note_off_c, 0, 63, 64
2, 31500, Note_on_c, 0, 62, 107
2, 31548, Note_off_c, 0, 62, 64
2, 31560, Note_on_c, 0, 60, 107
2, 31608, Note_off_c, 0, 60, 64
2, 31620, Note_on_c, 0, 58, 107
2, 31632, Note_off_c, 0, 70, 64
2, 31668, Note_off_c, 0, 58, 64
2, 31680, Note_on_c, 0, 72, 107
2, 31776, Note_off_c, 0, 72, 64
2, 31800, Note_on_c, 0, 72, 107
2, 31800, Note_on_c, 0, 65, 107
2, 31800, Note_on_c, 0, 69, 107
2, 31890, Note_off_c, 0, 72, 64
2, 31896, Note_off_c, 0, 69, 64
2, 31896, Note_off_c, 0, 65, 64
2, 31920, Note_on_c, 0, 72, 107
2, 31920, Note_on_c, 0, 69, 107
2, 31920, Note_on_c, 0, 65, 107
2, 32010, Note_off_c, 0, 72, 64
2, 32016, Note_off_c, 0, 65, 64
2, 32016, Note_off_c, 0, 69, 64
2, 32040, Note_on_c, 0, 77, 107
2, 32040, Note_on_c, 0, 70, 107
2, 32040, Note_on_c, 0, 68, 107
2, 32130, Note_off_c, 0, 77, 64
2, 32136, Note_off_c, 0, 68, 64
2, 32160, Note_on_c, 0, 77, 107
2, 32160, Note_on_c, 0, 68, 107
2, 32250, Note_off_c, 0, 77, 64
2, 32256, Note_off_c, 0, 68, 64
2, 32280, Note_on_c, 0, 77, 107
2, 32280, Note_on_c, 0, 68, 107
2, 32370, Note_off_c, 0, 77, 64
2, 32376, Note_off_c, 0, 68, 64
2, 32400, Note_on_c, 0, 68, 107
2, 32400, Note_on_c, 0, 77, 107
2, 32496, Note_off_c, 0, 77, 64
2, 32496, Note_off_c, 0, 68, 64
2, 32520, Note_on_c, 0, 75, 107
2, 32520, Note_on_c, 0, 67, 107
2, 32520, Note_on_c, 0, 70, 107
2, 32610, Note_off_c, 0, 75, 64
2, 32616, Note_off_c, 0, 70, 64
2, 32616, Note_off_c, 0, 67, 64
2, 32640, Note_on_c, 0, 75, 107
2, 32640, Note_on_c, 0, 67, 107
2, 32640, Note_on_c, 0, 70, 107
2, 32688, Note_off_c, 0, 70, 64
2, 32730, Note_off_c, 0, 75, 64
2, 32736, Note_off_c, 0, 70, 64
2, 32736, Note_off_c, 0, 67, 64
2, 32760, Note_on_c, 0, 79, 107
2, 32760, Note_on_c, 0, 72, 107
2, 32760, Note_on_c, 0, 70, 107
2, 32850, Note_off_c, 0, 79, 64
2, 32856, Note_off_c, 0, 70, 64
2, 32880, Note_on_c, 0, 79, 107
2, 32880, Note_on_c, 0, 70, 107
2, 32970, Note_off_c, 0, 79, 64
2, 32976, Note_off_c, 0, 70, 64
2, 33000, Note_on_c, 0, 79, 107
2, 33000, Note_on_c, 0, 70, 107
2, 33090, Note_off_c, 0, 79, 64
2, 33096, Note_off_c, 0, 70, 64
2, 33120, Note_on_c, 0, 70, 107
2, 33120, Note_on_c, 0, 79, 107
2, 33216, Note_off_c, 0, 72, 64
2, 33216, Note_off_c, 0, 79, 64
2, 33216, Note_off_c, 0, 70, 64
2, 33240, Note_on_c, 0, 72, 105
2, 33240, Note_on_c, 0, 69, 107
2, 33240, Note_on_c, 0, 77, 107
2, 33330, Note_off_c, 0, 77, 64
2, 33336, Note_off_c, 0, 69, 64
2, 33336, Note_off_c, 0, 72, 64
2, 33360, Note_on_c, 0, 69, 107
2, 33360, Note_on_c, 0, 72, 105
2, 33360, Note_on_c, 0, 77, 107
2, 33450, Note_off_c, 0, 77, 64
2, 33456, Note_off_c, 0, 72, 64
2, 33456, Note_off_c, 0, 69, 64
2, 33480, Note_on_c, 0, 75, 107
2, 33480, Note_on_c, 0, 77, 107
2, 33480, Note_on_c, 0, 72, 107
2, 33576, Note_off_c, 0, 72, 64
2, 33576, Note_off_c, 0, 75, 64
2, 33600, Note_on_c, 0, 75, 107
2, 33600, Note_on_c, 0, 72, 107
2, 33696, Note_off_c, 0, 72, 64
2, 33696, Note_off_c, 0, 75, 64
2, 33720, Note_on_c, 0, 72, 107
2, 33720, Note_on_c, 0, 75, 107
2, 33816, Note_off_c, 0, 75, 64
2, 33816, Note_off_c, 0, 72, 64
2, 33840, Note_on_c, 0, 75, 107
2, 33840, Note_on_c, 0, 72, 107
2, 33936, Note_off_c, 0, 72, 64
2, 33936, Note_off_c, 0, 75, 64
2, 33960, Note_on_c, 0, 74, 107
2, 33960, Note_on_c, 0, 70, 107
2, 34032, Note_off_c, 0, 77, 64
2, 34056, Note_off_c, 0, 70, 64
2, 34056, Note_off_c, 0, 74, 64
2, 34080, Note_on_c, 0, 68, 107
2, 34080, Note_on_c, 0, 70, 107
2, 34176, Note_off_c, 0, 70, 64
2, 34176, Note_off_c, 0, 68, 64
2, 34200, Note_on_c, 0, 75, 107
2, 34200, Note_on_c, 0, 70, 107
2, 34200, Note_on_c, 0, 67, 107
2, 34296, Note_off_c, 0, 67, 64
2, 34296, Note_off_c, 0, 75, 64
2, 34320, Note_on_c, 0, 74, 107
2, 34320, Note_on_c, 0, 65, 107
2, 34416, Note_off_c, 0, 65, 64
2, 34416, Note_off_c, 0, 74, 64
2, 34440, Note_on_c, 0, 63, 107
2, 34440, Note_on_c, 0, 72, 107
2, 34488, Note_off_c, 0, 70, 64
2, 34536, Note_off_c, 0, 72, 64
2, 34536, Note_off_c, 0, 63, 64
2, 34560, Note_on_c, 0, 72, 107
2, 34560, Note_on_c, 0, 69, 107
2, 34560, Note_on_c, 0, 63, 107
2, 34656, Note_off_c, 0, 63, 64
2, 34704, Note_off_c, 0, 72, 64
2, 34740, Note_on_c, 0, 74, 107
2, 34740, Note_on_c, 0, 65, 107
2, 34752, Note_off_c, 0, 69, 64
2, 34788, Note_off_c, 0, 65, 64
2, 34788, Note_off_c, 0, 74, 64
2, 34800, Note_on_c, 0, 65, 107
2, 34800, Note_on_c, 0, 62, 107
2, 34800, Note_on_c, 0, 70, 107
2, 34896, Note_off_c, 0, 70, 64
2, 34896, Note_off_c, 0, 62, 64
2, 34896, Note_off_c, 0, 65, 64
2, 34920, Note_on_c, 0, 62, 107
2, 34920, Note_on_c, 0, 67, 107
2, 34920, Note_on_c, 0, 70, 107
2, 34968, Note_off_c, 0, 70, 64
2, 34968, Note_off_c, 0, 62, 64
2, 34980, Note_on_c, 0, 63, 107
2, 34980, Note_on_c, 0, 72, 107
2, 35016, Note_off_c, 0, 67, 64
2, 35028, Note_off_c, 0, 72, 64
2, 35028, Note_off_c, 0, 63, 64
2, 35040, Note_on_c, 0, 65, 107
2, 35040, Note_on_c, 0, 69, 107
2, 35040, Note_on_c, 0, 60, 107
2, 35064, Note_off_c, 0, 69, 64
2, 35070, Note_on_c, 0, 70, 107
2, 35094, Note_off_c, 0, 70, 64
2, 35100, Note_on_c, 0, 69, 107
2, 35196, Note_off_c, 0, 69, 64
2, 35220, Note_on_c, 0, 70, 107
2, 35232, Note_off_c, 0, 60, 64
2, 35232, Note_off_c, 0, 65, 64
2, 35268, Note_off_c, 0, 70, 64
2, 35280, Note_on_c, 0, 62, 107
2, 35280, Note_on_c, 0, 70, 107
2, 35280, Note_on_c, 0, 65, 107
2, 35328, Note_off_c, 0, 70, 64
2, 35340, Note_on_c, 0, 72, 107
2, 35370, Note_off_c, 0, 62, 64
2, 35376, Note_off_c, 0, 65, 64
2, 35388, Note_off_c, 0, 72, 64
2, 35400, Note_on_c, 0, 65, 107
2, 35400, Note_on_c, 0, 74, 107
2, 35448, Note_off_c, 0, 74, 64
2, 35460, Note_on_c, 0, 70, 107
2, 35496, Note_off_c, 0, 65, 64
2, 35508, Note_off_c, 0, 70, 64
2, 35520, Note_on_c, 0, 65, 107
2, 35520, Note_on_c, 0, 69, 107
2, 35568, Note_off_c, 0, 69, 64
2, 35580, Note_on_c, 0, 70, 107
2, 35616, Note_off_c, 0, 65, 64
2, 35628, Note_off_c, 0, 70, 64
2, 35640, Note_on_c, 0, 65, 107
2, 35688, Note_off_c, 0, 65, 64
2, 35700, Note_on_c, 0, 70, 107
2, 35748, Note_off_c, 0, 70, 64
2, 35760, Note_on_c, 0, 74, 107
2, 35808, Note_off_c, 0, 74, 64
2, 35820, Note_on_c, 0, 70, 107
2, 35868, Note_off_c, 0, 70, 64
2, 35880, Note_on_c, 0, 76, 107
2, 35928, Note_off_c, 0, 76, 64
2, 35940, Note_on_c, 0, 70, 107
2, 35988, Note_off_c, 0, 70, 64
2, 36000, Note_on_c, 0, 77, 107
2, 36090, Note_off_c, 0, 77, 64
2, 36120, Note_on_c, 0, 84, 107
2, 36210, Note_off_c, 0, 84, 64
2, 36240, Note_on_c, 0, 84, 107
2, 36330, Note_off_c, 0, 84, 64
2, 36360, Note_on_c, 0, 81, 107
2, 36456, Note_off_c, 0, 81, 64
2, 36480, Note_on_c, 0, 77, 107
2, 36570, Note_off_c, 0, 77, 64
2, 36600, Note_on_c, 0, 77, 107
2, 36690, Note_off_c, 0, 77, 64
2, 36720, Note_on_c, 0, 75, 107
2, 36768, Note_off_c, 0, 75, 64
2, 36780, Note_on_c, 0, 74, 107
2, 36828, Note_off_c, 0, 74, 64
2, 36840, Note_on_c, 0, 75, 107
2, 36888, Note_off_c, 0, 75, 64
2, 36900, Note_on_c, 0, 72, 107
2, 36948, Note_off_c, 0, 72, 64
2, 36960, Note_on_c, 0, 71, 107
2, 37008, Note_off_c, 0, 71, 64
2, 37020, Note_on_c, 0, 72, 107
2, 37068, Note_off_c, 0, 72, 64
2, 37080, Note_on_c, 0, 67, 107
2, 37128, Note_off_c, 0, 67, 64
2, 37140, Note_on_c, 0, 72, 107
2, 37188, Note_off_c, 0, 72, 64
2, 37200, Note_on_c, 0, 75, 107
2, 37248, Note_off_c, 0, 75, 64
2, 37260, Note_on_c, 0, 72, 107
2, 37308, Note_off_c, 0, 72, 64
2, 37320, Note_on_c, 0, 78, 107
2, 37368, Note_off_c, 0, 78, 64
2, 37380, Note_on_c, 0, 72, 107
2, 37428, Note_off_c, 0, 72, 64
2, 37440, Note_on_c, 0, 79, 107
2, 37536, Note_off_c, 0, 79, 64
2, 37560, Note_on_c, 0, 74, 107
2, 37650, Note_off_c, 0, 74, 64
2, 37680, Note_on_c, 0, 74, 107
2, 37770, Note_off_c, 0, 74, 64
2, 37800, Note_on_c, 0, 70, 107
2, 37896, Note_off_c, 0, 70, 64
2, 37920, Note_on_c, 0, 67, 107
2, 38010, Note_off_c, 0, 67, 64
2, 38040, Note_on_c, 0, 67, 107
2, 38130, Note_off_c, 0, 67, 64
2, 38160, Note_on_c, 0, 65, 107
2, 38250, Note_off_c, 0, 65, 64
2, 38280, Note_on_c, 0, 81, 107
2, 38370, Note_off_c, 0, 81, 64
2, 38400, Note_on_c, 0, 81, 107
2, 38490, Note_off_c, 0, 81, 64
2, 38520, Note_on_c, 0, 77, 107
2, 38616, Note_off_c, 0, 77, 64
2, 38640, Note_on_c, 0, 74, 107
2, 38730, Note_off_c, 0, 74, 64
2, 38760, Note_on_c, 0, 74, 107
2, 38850, Note_off_c, 0, 74, 64
2, 38880, Note_on_c, 0, 73, 107
2, 38880, Note_on_c, 0, 57, 107
2, 38928, Note_off_c, 0, 73, 64
2, 38940, Note_on_c, 0, 71, 107
2, 38976, Note_off_c, 0, 57, 64
2, 38988, Note_off_c, 0, 71, 64
2, 39000, Note_on_c, 0, 73, 107
2, 39000, Note_on_c, 0, 69, 107
2, 39048, Note_off_c, 0, 73, 64
2, 39060, Note_on_c, 0, 74, 107
2, 39096, Note_off_c, 0, 69, 64
2, 39108, Note_off_c, 0, 74, 64
2, 39120, Note_on_c, 0, 69, 107
2, 39120, Note_on_c, 0, 71, 107
2, 39168, Note_off_c, 0, 71, 64
2, 39180, Note_on_c, 0, 73, 107
2, 39216, Note_off_c, 0, 69, 64
2, 39228, Note_off_c, 0, 73, 64
2, 39240, Note_on_c, 0, 74, 107
2, 39240, Note_on_c, 0, 65, 107
2, 39288, Note_off_c, 0, 74, 64
2, 39300, Note_on_c, 0, 73, 107
2, 39336, Note_off_c, 0, 65, 64
2, 39348, Note_off_c, 0, 73, 64
2, 39360, Note_on_c, 0, 74, 107
2, 39360, Note_on_c, 0, 65, 107
2, 39408, Note_off_c, 0, 74, 64
2, 39420, Note_on_c, 0, 76, 107
2, 39456, Note_off_c, 0, 65, 64
2, 39468, Note_off_c, 0, 76, 64
2, 39480, Note_on_c, 0, 65, 107
2, 39480, Note_on_c, 0, 73, 107
2, 39528, Note_off_c, 0, 73, 64
2, 39540, Note_on_c, 0, 74, 107
2, 39576, Note_off_c, 0, 65, 64
2, 39588, Note_off_c, 0, 74, 64
2, 39600, Note_on_c, 0, 76, 107
2, 39600, Note_on_c, 0, 64, 107
2, 39696, Note_off_c, 0, 64, 64
2, 39696, Note_off_c, 0, 76, 64
2, 39720, Note_on_c, 0, 69, 107
2, 39816, Note_off_c, 0, 69, 64
2, 39960, Note_on_c, 0, 62, 107
2, 40008, Note_off_c, 0, 62, 64
2, 40020, Note_on_c, 0, 61, 107
2, 40068, Note_off_c, 0, 61, 64
2, 40080, Note_on_c, 0, 62, 107
2, 40128, Note_off_c, 0, 62, 64
2, 40140, Note_on_c, 0, 64, 107
2, 40188, Note_off_c, 0, 64, 64
2, 40200, Note_on_c, 0, 65, 107
2, 40248, Note_off_c, 0, 65, 64
2, 40260, Note_on_c, 0, 67, 107
2, 40308, Note_off_c, 0, 67, 64
2, 40320, Note_on_c, 0, 69, 107
2, 40368, Note_off_c, 0, 69, 64
2, 40380, Note_on_c, 0, 67, 107
2, 40428, Note_off_c, 0, 67, 64
2, 40440, Note_on_c, 0, 69, 107
2, 40488, Note_off_c, 0, 69, 64
2, 40500, Note_on_c, 0, 71, 107
2, 40548, Note_off_c, 0, 71, 64
2, 40560, Note_on_c, 0, 73, 107
2, 40608, Note_off_c, 0, 73, 64
2, 40620, Note_on_c, 0, 69, 107
2, 40668, Note_off_c, 0, 69, 64
2, 40680, Note_on_c, 0, 74, 107
2, 40728, Note_off_c, 0, 74, 64
2, 40740, Note_on_c, 0, 73, 107
2, 40788, Note_off_c, 0, 73, 64
2, 40800, Note_on_c, 0, 74, 107
2, 40848, Note_off_c, 0, 74, 64
2, 40860, Note_on_c, 0, 76, 107
2, 40908, Note_off_c, 0, 76, 64
2, 40920, Note_on_c, 0, 77, 107
2, 40968, Note_off_c, 0, 77, 64
2, 40980, Note_on_c, 0, 79, 107
2, 41028, Note_off_c, 0, 79, 64
2, 41040, Note_on_c, 0, 81, 107
2, 41088, Note_off_c, 0, 81, 64
2, 41100, Note_on_c, 0, 82, 107
2, 41148, Note_off_c, 0, 82, 64
2, 41160, Note_on_c, 0, 81, 107
2, 41160, Note_on_c, 0, 69, 107
2, 41208, Note_off_c, 0, 81, 64
2, 41220, Note_on_c, 0, 79, 107
2, 41256, Note_off_c, 0, 69, 64
2, 41268, Note_off_c, 0, 79, 64
2, 41280, Note_on_c, 0, 69, 107
2, 41280, Note_on_c, 0, 77, 107
2, 41328, Note_off_c, 0, 77, 64
2, 41340, Note_on_c, 0, 76, 107
2, 41376, Note_off_c, 0, 69, 64
2, 41388, Note_off_c, 0, 76, 64
2, 41400, Note_on_c, 0, 77, 107
2, 41400, Note_on_c, 0, 74, 107
2, 41448, Note_off_c, 0, 74, 64
2, 41460, Note_on_c, 0, 76, 107
2, 41496, Note_off_c, 0, 77, 64
2, 41508, Note_off_c, 0, 76, 64
2, 41520, Note_on_c, 0, 77, 107
2, 41520, Note_on_c, 0, 81, 107
2, 41520, Note_on_c, 0, 74, 107
2, 41568, Note_off_c, 0, 74, 64
2, 41580, Note_on_c, 0, 72, 107
2, 41616, Note_off_c, 0, 81, 64
2, 41616, Note_off_c, 0, 77, 64
2, 41628, Note_off_c, 0, 72, 64
2, 41640, Note_on_c, 0, 81, 107
2, 41640, Note_on_c, 0, 77, 107
2, 41640, Note_on_c, 0, 70, 107
2, 41688, Note_off_c, 0, 70, 64
2, 41700, Note_on_c, 0, 69, 107
2, 41736, Note_off_c, 0, 77, 64
2, 41736, Note_off_c, 0, 81, 64
2, 41748, Note_off_c, 0, 69, 64
2, 41760, Note_on_c, 0, 82, 107
2, 41760, Note_on_c, 0, 77, 107
2, 41760, Note_on_c, 0, 67, 107
2, 41808, Note_off_c, 0, 67, 64
2, 41808, Note_off_c, 0, 82, 64
2, 41820, Note_on_c, 0, 84, 107
2, 41820, Note_on_c, 0, 69, 107
2, 41856, Note_off_c, 0, 77, 64
2, 41868, Note_off_c, 0, 69, 64
2, 41868, Note_off_c, 0, 84, 64
2, 41880, Note_on_c, 0, 82, 107
2, 41880, Note_on_c, 0, 67, 107
2, 41928, Note_off_c, 0, 67, 64
2, 41928, Note_off_c, 0, 82, 64
2, 41940, Note_on_c, 0, 65, 107
2, 41940, Note_on_c, 0, 81, 107
2, 41988, Note_off_c, 0, 81, 64
2, 41988, Note_off_c, 0, 65, 64
2, 42000, Note_on_c, 0, 79, 107
2, 42000, Note_on_c, 0, 64, 107
2, 42048, Note_off_c, 0, 64, 64
2, 42048, Note_off_c, 0, 79, 64
2, 42060, Note_on_c, 0, 77, 107
2, 42060, Note_on_c, 0, 62, 107
2, 42108, Note_off_c, 0, 62, 64
2, 42108, Note_off_c, 0, 77, 64
2, 42120, Note_on_c, 0, 76, 107
2, 42210, Note_off_c, 0, 76, 64
2, 42240, Note_on_c, 0, 76, 107
2, 42240, Note_on_c, 0, 79, 107
2, 42336, Note_off_c, 0, 79, 64
2, 42336, Note_off_c, 0, 76, 64
2, 42360, Note_on_c, 0, 79, 107
2, 42360, Note_on_c, 0, 76, 107
2, 42456, Note_off_c, 0, 76, 64
2, 42456, Note_off_c, 0, 79, 64
2, 42480, Note_on_c, 0, 76, 107
2, 42480, Note_on_c, 0, 81, 107
2, 42528, Note_off_c, 0, 81, 64
2, 42540, Note_on_c, 0, 82, 107
2, 42576, Note_off_c, 0, 76, 64
2, 42588, Note_off_c, 0, 82, 64
2, 42600, Note_on_c, 0, 81, 107
2, 42648, Note_off_c, 0, 81, 64
2, 42660, Note_on_c, 0, 79, 107
2, 42708, Note_off_c, 0, 79, 64
2, 42720, Note_on_c, 0, 77, 107
2, 42768, Note_off_c, 0, 77, 64
2, 42780, Note_on_c, 0, 76, 107
2, 42828, Note_off_c, 0, 76, 64
2, 42840, Note_on_c, 0, 74, 107
2, 42888, Note_off_c, 0, 74, 64
2, 42900, Note_on_c, 0, 72, 107
2, 42948, Note_off_c, 0, 72, 64
2, 42960, Note_on_c, 0, 74, 107
2, 43008, Note_off_c, 0, 74, 64
2, 43020, Note_on_c, 0, 76, 107
2, 43068, Note_off_c, 0, 76, 64
2, 43080, Note_on_c, 0, 77, 107
2, 43128, Note_off_c, 0, 77, 64
2, 43140, Note_on_c, 0, 74, 107
2, 43188, Note_off_c, 0, 74, 64
2, 43200, Note_on_c, 0, 79, 107
2, 43290, Note_off_c, 0, 79, 64
2, 43320, Note_on_c, 0, 79, 107
2, 43320, Note_on_c, 0, 74, 107
2, 43320, Note_on_c, 0, 70, 107
2, 43410, Note_off_c, 0, 79, 64
2, 43416, Note_off_c, 0, 70, 64
2, 43416, Note_off_c, 0, 74, 64
2, 43440, Note_on_c, 0, 79, 107
2, 43440, Note_on_c, 0, 74, 107
2, 43440, Note_on_c, 0, 70, 107
2, 43530, Note_off_c, 0, 79, 64
2, 43536, Note_off_c, 0, 70, 64
2, 43536, Note_off_c, 0, 74, 64
2, 43560, Note_on_c, 0, 70, 107
2, 43560, Note_on_c, 0, 73, 107
2, 43656, Note_off_c, 0, 73, 64
2, 43656, Note_off_c, 0, 70, 64
2, 43680, Note_on_c, 0, 76, 107
2, 43680, Note_on_c, 0, 73, 107
2, 43680, Note_on_c, 0, 69, 107
2, 43770, Note_off_c, 0, 76, 64
2, 43776, Note_off_c, 0, 69, 64
2, 43776, Note_off_c, 0, 73, 64
2, 43800, Note_on_c, 0, 76, 107
2, 43800, Note_on_c, 0, 73, 107
2, 43800, Note_on_c, 0, 69, 107
2, 43890, Note_off_c, 0, 76, 64
2, 43896, Note_off_c, 0, 69, 64
2, 43896, Note_off_c, 0, 73, 64
2, 43920, Note_on_c, 0, 64, 107
2, 43920, Note_on_c, 0, 67, 107
2, 44064, Note_off_c, 0, 67, 64
2, 44100, Note_on_c, 0, 69, 107
2, 44112, Note_off_c, 0, 64, 64
2, 44148, Note_off_c, 0, 69, 64
2, 44160, Note_on_c, 0, 62, 107
2, 44160, Note_on_c, 0, 65, 107
2, 44328, Note_off_c, 0, 65, 64
2, 44340, Note_on_c, 0, 64, 107
2, 44376, Note_off_c, 0, 62, 64
2, 44388, Note_off_c, 0, 64, 64
2, 44400, Note_on_c, 0, 61, 107
2, 44400, Note_on_c, 0, 65, 107
2, 44424, Note_off_c, 0, 65, 64
2, 44430, Note_on_c, 0, 64, 107
2, 44454, Note_off_c, 0, 64, 64
2, 44460, Note_on_c, 0, 65, 105
2, 44484, Note_off_c, 0, 65, 64
2, 44490, Note_on_c, 0, 64, 105
2, 44577, Note_off_c, 0, 64, 64
2, 44580, Note_on_c, 0, 62, 107
2, 44592, Note_off_c, 0, 61, 64
2, 44628, Note_off_c, 0, 62, 64
2, 44640, Note_on_c, 0, 62, 107
2, 44640, Note_on_c, 0, 62, 107
2, 44688, Note_off_c, 0, 62, 64
2, 44700, Note_on_c, 0, 64, 107
2, 44736, Note_off_c, 0, 62, 64
2, 44748, Note_off_c, 0, 64, 64
2, 44760, Note_on_c, 0, 65, 107
2, 44808, Note_off_c, 0, 65, 64
2, 44820, Note_on_c, 0, 62, 107
2, 44868, Note_off_c, 0, 62, 64
2, 44880, Note_on_c, 0, 61, 107
2, 44928, Note_off_c, 0, 61, 64
2, 44940, Note_on_c, 0, 62, 107
2, 44988, Note_off_c, 0, 62, 64
2, 45000, Note_on_c, 0, 57, 107
2, 45048, Note_off_c, 0, 57, 64
2, 45060, Note_on_c, 0, 62, 107
2, 45108, Note_off_c, 0, 62, 64
2, 45120, Note_on_c, 0, 65, 107
2, 45168, Note_off_c, 0, 65, 64
2, 45180, Note_on_c, 0, 62, 107
2, 45228, Note_off_c, 0, 62, 64
2, 45240, Note_on_c, 0, 68, 107
2, 45288, Note_off_c, 0, 68, 64
2, 45300, Note_on_c, 0, 62, 107
2, 45348, Note_off_c, 0, 62, 64
2, 45360, Note_on_c, 0, 69, 107
2, 45450, Note_off_c, 0, 69, 64
2, 45480, Note_on_c, 0, 76, 107
2, 45570, Note_off_c, 0, 76, 64
2, 45600, Note_on_c, 0, 76, 107
2, 45690, Note_off_c, 0, 76, 64
2, 45720, Note_on_c, 0, 72, 107
2, 45810, Note_off_c, 0, 72, 64
2, 45840, Note_on_c, 0, 69, 107
2, 45930, Note_off_c, 0, 69, 64
2, 45960, Note_on_c, 0, 69, 107
2, 46050, Note_off_c, 0, 69, 64
2, 46080, Note_on_c, 0, 69, 107
2, 46128, Note_off_c, 0, 69, 64
2, 46140, Note_on_c, 0, 66, 107
2, 46188, Note_off_c, 0, 66, 64
2, 46200, Note_on_c, 0, 67, 107
2, 46248, Note_off_c, 0, 67, 64
2, 46260, Note_on_c, 0, 71, 107
2, 46308, Note_off_c, 0, 71, 64
2, 46320, Note_on_c, 0, 72, 107
2, 46368, Note_off_c, 0, 72, 64
2, 46380, Note_on_c, 0, 67, 107
2, 46428, Note_off_c, 0, 67, 64
2, 46440, Note_on_c, 0, 65, 107
2, 46488, Note_off_c, 0, 65, 64
2, 46500, Note_on_c, 0, 67, 107
2, 46548, Note_off_c, 0, 67, 64
2, 46560, Note_on_c, 0, 69, 107
2, 46608, Note_off_c, 0, 69, 64
2, 46620, Note_on_c, 0, 65, 107
2, 46668, Note_off_c, 0, 65, 64
2, 46680, Note_on_c, 0, 70, 107
2, 46728, Note_off_c, 0, 70, 64
2, 46740, Note_on_c, 0, 65, 107
2, 46788, Note_off_c, 0, 65, 64
2, 46800, Note_on_c, 0, 64, 107
2, 46848, Note_off_c, 0, 64, 64
2, 46860, Note_on_c, 0, 67, 107
2, 46908, Note_off_c, 0, 67, 64
2, 46920, Note_on_c, 0, 69, 107
2, 46968, Note_off_c, 0, 69, 64
2, 46980, Note_on_c, 0, 70, 107
2, 47028, Note_off_c, 0, 70, 64
2, 47040, Note_on_c, 0, 72, 107
2, 47088, Note_off_c, 0, 72, 64
2, 47100, Note_on_c, 0, 69, 107
2, 47148, Note_off_c, 0, 69, 64
2, 47160, Note_on_c, 0, 66, 107
2, 47256, Note_off_c, 0, 66, 64
2, 47280, Note_on_c, 0, 67, 107
2, 47370, Note_off_c, 0, 67, 64
2, 47400, Note_on_c, 0, 67, 107
2, 47490, Note_off_c, 0, 67, 64
2, 47520, Note_on_c, 0, 67, 107
2, 47568, Note_off_c, 0, 67, 64
2, 47580, Note_on_c, 0, 69, 107
2, 47628, Note_off_c, 0, 69, 64
2, 47640, Note_on_c, 0, 70, 107
2, 47688, Note_off_c, 0, 70, 64
2, 47700, Note_on_c, 0, 67, 107
2, 47748, Note_off_c, 0, 67, 64
2, 47760, Note_on_c, 0, 73, 107
2, 47808, Note_off_c, 0, 73, 64
2, 47820, Note_on_c, 0, 67, 107
2, 47868, Note_off_c, 0, 67, 64
2, 47880, Note_on_c, 0, 76, 107
2, 47928, Note_off_c, 0, 76, 64
2, 47940, Note_on_c, 0, 70, 107
2, 47988, Note_off_c, 0, 70, 64
2, 48000, Note_on_c, 0, 69, 107
2, 48048, Note_off_c, 0, 69, 64
2, 48060, Note_on_c, 0, 67, 107
2, 48108, Note_off_c, 0, 67, 64
2, 48120, Note_on_c, 0, 65, 107
2, 48168, Note_off_c, 0, 65, 64
2, 48180, Note_on_c, 0, 64, 107
2, 48228, Note_off_c, 0, 64, 64
2, 48240, Note_on_c, 0, 65, 107
2, 48288, Note_off_c, 0, 65, 64
2, 48300, Note_on_c, 0, 67, 107
2, 48348, Note_off_c, 0, 67, 64
2, 48360, Note_on_c, 0, 68, 107
2, 48408, Note_off_c, 0, 68, 64
2, 48420, Note_on_c, 0, 65, 107
2, 48468, Note_off_c, 0, 65, 64
2, 48480, Note_on_c, 0, 71, 107
2, 48528, Note_off_c, 0, 71, 64
2, 48540, Note_on_c, 0, 65, 107
2, 48588, Note_off_c, 0, 65, 64
2, 48600, Note_on_c, 0, 74, 107
2, 48648, Note_off_c, 0, 74, 64
2, 48660, Note_on_c, 0, 68, 107
2, 48708, Note_off_c, 0, 68, 64
2, 48720, Note_on_c, 0, 67, 107
2, 48768, Note_off_c, 0, 67, 64
2, 48780, Note_on_c, 0, 65, 107
2, 48828, Note_off_c, 0, 65, 64
2, 48840, Note_on_c, 0, 63, 107
2, 48888, Note_off_c, 0, 63, 64
2, 48900, Note_on_c, 0, 62, 107
2, 48948, Note_off_c, 0, 62, 64
2, 48960, Note_on_c, 0, 63, 107
2, 48960, Note_on_c, 0, 60, 107
2, 49050, Note_off_c, 0, 63, 64
2, 49056, Note_off_c, 0, 60, 64
2, 49080, Note_on_c, 0, 67, 107
2, 49080, Note_on_c, 0, 72, 107
2, 49080, Note_on_c, 0, 79, 107
2, 49176, Note_off_c, 0, 79, 64
2, 49176, Note_off_c, 0, 72, 64
2, 49176, Note_off_c, 0, 67, 64
2, 49200, Note_on_c, 0, 74, 107
2, 49200, Note_on_c, 0, 67, 107
2, 49200, Note_on_c, 0, 79, 107
2, 49296, Note_off_c, 0, 79, 64
2, 49296, Note_off_c, 0, 67, 64
2, 49296, Note_off_c, 0, 74, 64
2, 49320, Note_on_c, 0, 75, 107
2, 49320, Note_on_c, 0, 67, 107
2, 49320, Note_on_c, 0, 74, 107
2, 49416, Note_off_c, 0, 74, 64
2, 49416, Note_off_c, 0, 67, 64
2, 49416, Note_off_c, 0, 75, 64
2, 49440, Note_on_c, 0, 67, 107
2, 49440, Note_on_c, 0, 72, 107
2, 49440, Note_on_c, 0, 75, 107
2, 49536, Note_off_c, 0, 75, 64
2, 49536, Note_off_c, 0, 72, 64
2, 49536, Note_off_c, 0, 67, 64
2, 49560, Note_on_c, 0, 72, 107
2, 49560, Note_on_c, 0, 75, 107
2, 49560, Note_on_c, 0, 69, 107
2, 49656, Note_off_c, 0, 69, 64
2, 49656, Note_off_c, 0, 75, 64
2, 49656, Note_off_c, 0, 72, 64
2, 49680, Note_on_c, 0, 74, 107
2, 49680, Note_on_c, 0, 70, 107
2, 49728, Note_off_c, 0, 70, 64
2, 49728, Note_off_c, 0, 74, 64
2, 49740, Note_on_c, 0, 74, 107
2, 49788, Note_off_c, 0, 74, 64
2, 49800, Note_on_c, 0, 67, 107
2, 49848, Note_off_c, 0, 67, 64
2, 49860, Note_on_c, 0, 74, 107
2, 49908, Note_off_c, 0, 74, 64
2, 49920, Note_on_c, 0, 66, 107
2, 49968, Note_off_c, 0, 66, 64
2, 49980, Note_on_c, 0, 72, 107
2, 50028, Note_off_c, 0, 72, 64
2, 50040, Note_on_c, 0, 70, 107
2, 50088, Note_off_c, 0, 70, 64
2, 50100, Note_on_c, 0, 74, 107
2, 50148, Note_off_c, 0, 74, 64
2, 50160, Note_on_c, 0, 67, 107
2, 50208, Note_off_c, 0, 67, 64
2, 50220, Note_on_c, 0, 74, 107
2, 50268, Note_off_c, 0, 74, 64
2, 50280, Note_on_c, 0, 66, 107
2, 50328, Note_off_c, 0, 66, 64
2, 50340, Note_on_c, 0, 72, 107
2, 50388, Note_off_c, 0, 72, 64
2, 50400, Note_on_c, 0, 70, 107
2, 50448, Note_off_c, 0, 70, 64
2, 50460, Note_on_c, 0, 67, 107
2, 50508, Note_off_c, 0, 67, 64
2, 50520, Note_on_c, 0, 64, 107
2, 50568, Note_off_c, 0, 64, 64
2, 50580, Note_on_c, 0, 70, 107
2, 50628, Note_off_c, 0, 70, 64
2, 50640, Note_on_c, 0, 62, 107
2, 50688, Note_off_c, 0, 62, 64
2, 50700, Note_on_c, 0, 70, 107
2, 50748, Note_off_c, 0, 70, 64
2, 50760, Note_on_c, 0, 60, 107
2, 50808, Note_off_c, 0, 60, 64
2, 50820, Note_on_c, 0, 70, 107
2, 50868, Note_off_c, 0, 70, 64
2, 50880, Note_on_c, 0, 62, 107
2, 50928, Note_off_c, 0, 62, 64
2, 50940, Note_on_c, 0, 70, 107
2, 50988, Note_off_c, 0, 70, 64
2, 51000, Note_on_c, 0, 64, 107
2, 51048, Note_off_c, 0, 64, 64
2, 51060, Note_on_c, 0, 70, 107
2, 51108, Note_off_c, 0, 70, 64
2, 51120, Note_on_c, 0, 68, 107
2, 51168, Note_off_c, 0, 68, 64
2, 51180, Note_on_c, 0, 72, 107
2, 51228, Note_off_c, 0, 72, 64
2, 51240, Note_on_c, 0, 65, 107
2, 51288, Note_off_c, 0, 65, 64
2, 51300, Note_on_c, 0, 72, 107
2, 51348, Note_off_c, 0, 72, 64
2, 51360, Note_on_c, 0, 64, 107
2, 51408, Note_off_c, 0, 64, 64
2, 51420, Note_on_c, 0, 70, 107
2, 51468, Note_off_c, 0, 70, 64
2, 51480, Note_on_c, 0, 68, 107
2, 51528, Note_off_c, 0, 68, 64
2, 51540, Note_on_c, 0, 72, 107
2, 51588, Note_off_c, 0, 72, 64
2, 51600, Note_on_c, 0, 65, 107
2, 51648, Note_off_c, 0, 65, 64
2, 51660, Note_on_c, 0, 72, 107
2, 51708, Note_off_c, 0, 72, 64
2, 51720, Note_on_c, 0, 64, 107
2, 51768, Note_off_c, 0, 64, 64
2, 51780, Note_on_c, 0, 70, 107
2, 51828, Note_off_c, 0, 70, 64
2, 51840, Note_on_c, 0, 68, 107
2, 51888, Note_off_c, 0, 68, 64
2, 51900, Note_on_c, 0, 65, 107
2, 51948, Note_off_c, 0, 65, 64
2, 51960, Note_on_c, 0, 62, 107
2, 52008, Note_off_c, 0, 62, 64
2, 52020, Note_on_c, 0, 68, 107
2, 52068, Note_off_c, 0, 68, 64
2, 52080, Note_on_c, 0, 60, 107
2, 52128, Note_off_c, 0, 60, 64
2, 52140, Note_on_c, 0, 68, 107
2, 52188, Note_off_c, 0, 68, 64
2, 52200, Note_on_c, 0, 58, 107
2, 52248, Note_off_c, 0, 58, 64
2, 52260, Note_on_c, 0, 68, 107
2, 52308, Note_off_c, 0, 68, 64
2, 52320, Note_on_c, 0, 60, 107
2, 52368, Note_off_c, 0, 60, 64
2, 52380, Note_on_c, 0, 68, 107
2, 52428, Note_off_c, 0, 68, 64
2, 52440, Note_on_c, 0, 62, 107
2, 52488, Note_off_c, 0, 62, 64
2, 52500, Note_on_c, 0, 68, 107
2, 52548, Note_off_c, 0, 68, 64
2, 52560, Note_on_c, 0, 67, 107
2, 52650, Note_off_c, 0, 67, 64
2, 52680, Note_on_c, 0, 82, 107
2, 52776, Note_off_c, 0, 82, 64
2, 52800, Note_on_c, 0, 82, 107
2, 52896, Note_off_c, 0, 82, 64
2, 52920, Note_on_c, 0, 79, 107
2, 53010, Note_off_c, 0, 79, 64
2, 53040, Note_on_c, 0, 75, 107
2, 53040, Note_on_c, 0, 79, 107
2, 53136, Note_off_c, 0, 79, 64
2, 53136, Note_off_c, 0, 75, 64
2, 53160, Note_on_c, 0, 75, 107
2, 53160, Note_on_c, 0, 79, 107
2, 53256, Note_off_c, 0, 79, 64
2, 53256, Note_off_c, 0, 75, 64
2, 53280, Note_on_c, 0, 77, 107
2, 53280, Note_on_c, 0, 74, 107
2, 53328, Note_off_c, 0, 74, 64
2, 53328, Note_off_c, 0, 77, 64
2, 53340, Note_on_c, 0, 77, 107
2, 53388, Note_off_c, 0, 77, 64
2, 53400, Note_on_c, 0, 70, 107
2, 53448, Note_off_c, 0, 70, 64
2, 53460, Note_on_c, 0, 77, 107
2, 53508, Note_off_c, 0, 77, 64
2, 53520, Note_on_c, 0, 69, 107
2, 53568, Note_off_c, 0, 69, 64
2, 53580, Note_on_c, 0, 75, 107
2, 53628, Note_off_c, 0, 75, 64
2, 53640, Note_on_c, 0, 74, 107
2, 53688, Note_off_c, 0, 74, 64
2, 53700, Note_on_c, 0, 77, 107
2, 53748, Note_off_c, 0, 77, 64
2, 53760, Note_on_c, 0, 70, 107
2, 53808, Note_off_c, 0, 70, 64
2, 53820, Note_on_c, 0, 77, 107
2, 53868, Note_off_c, 0, 77, 64
2, 53880, Note_on_c, 0, 69, 107
2, 53928, Note_off_c, 0, 69, 64
2, 53940, Note_on_c, 0, 75, 107
2, 53988, Note_off_c, 0, 75, 64
2, 54000, Note_on_c, 0, 74, 107
2, 54048, Note_off_c, 0, 74, 64
2, 54060, Note_on_c, 0, 70, 107
2, 54108, Note_off_c, 0, 70, 64
2, 54120, Note_on_c, 0, 67, 107
2, 54168, Note_off_c, 0, 67, 64
2, 54180, Note_on_c, 0, 73, 107
2, 54228, Note_off_c, 0, 73, 64
2, 54240, Note_on_c, 0, 65, 107
2, 54288, Note_off_c, 0, 65, 64
2, 54300, Note_on_c, 0, 73, 107
2, 54348, Note_off_c, 0, 73, 64
2, 54360, Note_on_c, 0, 63, 107
2, 54408, Note_off_c, 0, 63, 64
2, 54420, Note_on_c, 0, 73, 107
2, 54468, Note_off_c, 0, 73, 64
2, 54480, Note_on_c, 0, 65, 107
2, 54528, Note_off_c, 0, 65, 64
2, 54540, Note_on_c, 0, 73, 107
2, 54588, Note_off_c, 0, 73, 64
2, 54600, Note_on_c, 0, 67, 107
2, 54648, Note_off_c, 0, 67, 64
2, 54660, Note_on_c, 0, 73, 107
2, 54708, Note_off_c, 0, 73, 64
2, 54720, Note_on_c, 0, 72, 107
2, 54768, Note_off_c, 0, 72, 64
2, 54780, Note_on_c, 0, 75, 107
2, 54828, Note_off_c, 0, 75, 64
2, 54840, Note_on_c, 0, 68, 107
2, 54888, Note_off_c, 0, 68, 64
2, 54900, Note_on_c, 0, 75, 107
2, 54948, Note_off_c, 0, 75, 64
2, 54960, Note_on_c, 0, 67, 107
2, 55008, Note_off_c, 0, 67, 64
2, 55020, Note_on_c, 0, 73, 107
2, 55068, Note_off_c, 0, 73, 64
2, 55080, Note_on_c, 0, 72, 107
2, 55128, Note_off_c, 0, 72, 64
2, 55140, Note_on_c, 0, 75, 107
2, 55188, Note_off_c, 0, 75, 64
2, 55200, Note_on_c, 0, 68, 107
2, 55248, Note_off_c, 0, 68, 64
2, 55260, Note_on_c, 0, 75, 107
2, 55308, Note_off_c, 0, 75, 64
2, 55320, Note_on_c, 0, 67, 107
2, 55368, Note_off_c, 0, 67, 64
2, 55380, Note_on_c, 0, 73, 107
2, 55428, Note_off_c, 0, 73, 64
2, 55440, Note_on_c, 0, 72, 107
2, 55488, Note_off_c, 0, 72, 64
2, 55500, Note_on_c, 0, 68, 107
2, 55548, Note_off_c, 0, 68, 64
2, 55560, Note_on_c, 0, 65, 107
2, 55608, Note_off_c, 0, 65, 64
2, 55620, Note_on_c, 0, 72, 107
2, 55668, Note_off_c, 0, 72, 64
2, 55680, Note_on_c, 0, 63, 107
2, 55728, Note_off_c, 0, 63, 64
2, 55740, Note_on_c, 0, 72, 107
2, 55788, Note_off_c, 0, 72, 64
2, 55800, Note_on_c, 0, 62, 107
2, 55848, Note_off_c, 0, 62, 64
2, 55860, Note_on_c, 0, 72, 107
2, 55908, Note_off_c, 0, 72, 64
2, 55920, Note_on_c, 0, 63, 107
2, 55968, Note_off_c, 0, 63, 64
2, 55980, Note_on_c, 0, 72, 107
2, 56028, Note_off_c, 0, 72, 64
2, 56040, Note_on_c, 0, 65, 107
2, 56088, Note_off_c, 0, 65, 64
2, 56100, Note_on_c, 0, 72, 107
2, 56148, Note_off_c, 0, 72, 64
2, 56160, Note_on_c, 0, 71, 107
2, 56160, Note_on_c, 0, 55, 107
2, 56256, Note_off_c, 0, 55, 64
2, 56256, Note_off_c, 0, 71, 64
2, 56280, Note_on_c, 0, 67, 107
2, 56280, Note_on_c, 0, 72, 107
2, 56376, Note_off_c, 0, 72, 64
2, 56376, Note_off_c, 0, 67, 64
2, 56400, Note_on_c, 0, 65, 107
2, 56400, Note_on_c, 0, 70, 107
2, 56496, Note_off_c, 0, 70, 64
2, 56496, Note_off_c, 0, 65, 64
2, 56520, Note_on_c, 0, 68, 107
2, 56520, Note_on_c, 0, 63, 107
2, 56616, Note_off_c, 0, 63, 64
2, 56616, Note_off_c, 0, 68, 64
2, 56640, Note_on_c, 0, 62, 107
2, 56640, Note_on_c, 0, 67, 107
2, 56736, Note_off_c, 0, 67, 64
2, 56736, Note_off_c, 0, 62, 64
2, 56760, Note_on_c, 0, 60, 107
2, 56760, Note_on_c, 0, 65, 107
2, 56856, Note_off_c, 0, 65, 64
2, 56856, Note_off_c, 0, 60, 64
2, 56880, Note_on_c, 0, 70, 107
2, 56880, Note_on_c, 0, 63, 107
2, 56880, Note_on_c, 0, 58, 107
2, 56976, Note_off_c, 0, 63, 64
2, 56976, Note_off_c, 0, 70, 64
2, 57000, Note_on_c, 0, 68, 107
2, 57000, Note_on_c, 0, 62, 107
2, 57072, Note_off_c, 0, 58, 64
2, 57096, Note_off_c, 0, 62, 64
2, 57096, Note_off_c, 0, 68, 64
2, 57120, Note_on_c, 0, 63, 107
2, 57120, Note_on_c, 0, 58, 107
2, 57120, Note_on_c, 0, 67, 107
2, 57216, Note_off_c, 0, 58, 64
2, 57240, Note_on_c, 0, 60, 107
2, 57288, Note_off_c, 0, 67, 64
2, 57300, Note_on_c, 0, 72, 107
2, 57336, Note_off_c, 0, 63, 64
2, 57336, Note_off_c, 0, 60, 64
2, 57348, Note_off_c, 0, 72, 64
2, 57360, Note_on_c, 0, 67, 107
2, 57360, Note_on_c, 0, 62, 107
2, 57384, Note_off_c, 0, 67, 64
2, 57390, Note_on_c, 0, 65, 107
2, 57414, Note_off_c, 0, 65, 64
2, 57420, Note_on_c, 0, 67, 105
2, 57444, Note_off_c, 0, 67, 64
2, 57450, Note_on_c, 0, 65, 105
2, 57537, Note_off_c, 0, 65, 64
2, 57540, Note_on_c, 0, 63, 107
2, 57552, Note_off_c, 0, 62, 64
2, 57588, Note_off_c, 0, 63, 64
2, 57600, Note_on_c, 0, 63, 107
2, 57600, Note_on_c, 0, 63, 107
2, 57690, Note_off_c, 0, 63, 64
2, 57696, Note_off_c, 0, 63, 64
2, 57720, Note_on_c, 0, 70, 107
2, 57810, Note_off_c, 0, 70, 64
2, 57840, Note_on_c, 0, 70, 107
2, 57930, Note_off_c, 0, 70, 64
2, 57960, Note_on_c, 0, 72, 107
2, 57984, Note_off_c, 0, 72, 64
2, 57990, Note_on_c, 0, 70, 107
2, 58014, Note_off_c, 0, 70, 64
2, 58020, Note_on_c, 0, 72, 107
2, 58044, Note_off_c, 0, 72, 64
2, 58050, Note_on_c, 0, 70, 107
2, 58074, Note_off_c, 0, 70, 64
2, 58080, Note_on_c, 0, 72, 107
2, 58104, Note_off_c, 0, 72, 64
2, 58110, Note_on_c, 0, 70, 107
2, 58134, Note_off_c, 0, 70, 64
2, 58140, Note_on_c, 0, 72, 107
2, 58164, Note_off_c, 0, 72, 64
2, 58170, Note_on_c, 0, 70, 107
2, 58194, Note_off_c, 0, 70, 64
2, 58200, Note_on_c, 0, 72, 107
2, 58224, Note_off_c, 0, 72, 64
2, 58230, Note_on_c, 0, 70, 107
2, 58254, Note_off_c, 0, 70, 64
2, 58260, Note_on_c, 0, 72, 107
2, 58284, Note_off_c, 0, 72, 64
2, 58290, Note_on_c, 0, 70, 107
2, 58314, Note_off_c, 0, 70, 64
2, 58320, Note_on_c, 0, 72, 107
2, 58344, Note_off_c, 0, 72, 64
2, 58350, Note_on_c, 0, 70, 107
2, 58374, Note_off_c, 0, 70, 64
2, 58380, Note_on_c, 0, 72, 107
2, 58404, Note_off_c, 0, 72, 64
2, 58410, Note_on_c, 0, 70, 107
2, 58434, Note_off_c, 0, 70, 64
2, 58440, Note_on_c, 0, 72, 107
2, 58464, Note_off_c, 0, 72, 64
2, 58470, Note_on_c, 0, 70, 107
2, 58494, Note_off_c, 0, 70, 64
2, 58500, Note_on_c, 0, 72, 107
2, 58524, Note_off_c, 0, 72, 64
2, 58530, Note_on_c, 0, 70, 107
2, 58554, Note_off_c, 0, 70, 64
2, 58560, Note_on_c, 0, 72, 107
2, 58584, Note_off_c, 0, 72, 64
2, 58590, Note_on_c, 0, 70, 107
2, 58614, Note_off_c, 0, 70, 64
2, 58620, Note_on_c, 0, 72, 107
2, 58644, Note_off_c, 0, 72, 64
2, 58650, Note_on_c, 0, 70, 107
2, 58728, Note_off_c, 0, 70, 64
2, 58740, Note_on_c, 0, 68, 107
2, 58788, Note_off_c, 0, 68, 64
2, 58800, Note_on_c, 0, 70, 107
2, 58848, Note_off_c, 0, 70, 64
2, 58860, Note_on_c, 0, 73, 107
2, 58908, Note_off_c, 0, 73, 64
2, 58920, Note_on_c, 0, 72, 107
2, 58968, Note_off_c, 0, 72, 64
2, 58980, Note_on_c, 0, 70, 107
2, 59028, Note_off_c, 0, 70, 64
2, 59040, Note_on_c, 0, 68, 107
2, 59088, Note_off_c, 0, 68, 64
2, 59100, Note_on_c, 0, 70, 107
2, 59148, Note_off_c, 0, 70, 64
2, 59160, Note_on_c, 0, 68, 107
2, 59256, Note_off_c, 0, 68, 64
2, 59280, Note_on_c, 0, 68, 107
2, 59376, Note_off_c, 0, 68, 64
2, 59400, Note_on_c, 0, 70, 107
2, 59424, Note_off_c, 0, 70, 64
2, 59430, Note_on_c, 0, 68, 107
2, 59454, Note_off_c, 0, 68, 64
2, 59460, Note_on_c, 0, 70, 107
2, 59484, Note_off_c, 0, 70, 64
2, 59490, Note_on_c, 0, 68, 107
2, 59514, Note_off_c, 0, 68, 64
2, 59520, Note_on_c, 0, 70, 107
2, 59544, Note_off_c, 0, 70, 64
2, 59550, Note_on_c, 0, 68, 107
2, 59574, Note_off_c, 0, 68, 64
2, 59580, Note_on_c, 0, 70, 107
2, 59604, Note_off_c, 0, 70, 64
2, 59610, Note_on_c, 0, 68, 107
2, 59634, Note_off_c, 0, 68, 64
2, 59640, Note_on_c, 0, 70, 107
2, 59664, Note_off_c, 0, 70, 64
2, 59670, Note_on_c, 0, 68, 107
2, 59694, Note_off_c, 0, 68, 64
2, 59700, Note_on_c, 0, 70, 107
2, 59724, Note_off_c, 0, 70, 64
2, 59730, Note_on_c, 0, 68, 107
2, 59754, Note_off_c, 0, 68, 64
2, 59760, Note_on_c, 0, 70, 107
2, 59784, Note_off_c, 0, 70, 64
2, 59790, Note_on_c, 0, 68, 107
2, 59814, Note_off_c, 0, 68, 64
2, 59820, Note_on_c, 0, 70, 107
2, 59844, Note_off_c, 0, 70, 64
2, 59850, Note_on_c, 0, 68, 107
2, 59874, Note_off_c, 0, 68, 64
2, 59880, Note_on_c, 0, 70, 107
2, 59904, Note_off_c, 0, 70, 64
2, 59910, Note_on_c, 0, 68, 107
2, 59934, Note_off_c, 0, 68, 64
2, 59940, Note_on_c, 0, 70, 107
2, 59964, Note_off_c, 0, 70, 64
2, 59970, Note_on_c, 0, 68, 107
2, 59994, Note_off_c, 0, 68, 64
2, 60000, Note_on_c, 0, 70, 107
2, 60024, Note_off_c, 0, 70, 64
2, 60030, Note_on_c, 0, 68, 107
2, 60054, Note_off_c, 0, 68, 64
2, 60060, Note_on_c, 0, 70, 107
2, 60084, Note_off_c, 0, 70, 64
2, 60090, Note_on_c, 0, 68, 107
2, 60168, Note_off_c, 0, 68, 64
2, 60180, Note_on_c, 0, 67, 107
2, 60228, Note_off_c, 0, 67, 64
2, 60240, Note_on_c, 0, 68, 107
2, 60288, Note_off_c, 0, 68, 64
2, 60300, Note_on_c, 0, 72, 107
2, 60348, Note_off_c, 0, 72, 64
2, 60360, Note_on_c, 0, 70, 107
2, 60408, Note_off_c, 0, 70, 64
2, 60420, Note_on_c, 0, 68, 107
2, 60468, Note_off_c, 0, 68, 64
2, 60480, Note_on_c, 0, 67, 107
2, 60528, Note_off_c, 0, 67, 64
2, 60540, Note_on_c, 0, 69, 107
2, 60564, Note_off_c, 0, 69, 64
2, 60570, Note_on_c, 0, 71, 107
2, 60594, Note_off_c, 0, 71, 64
2, 60600, Note_on_c, 0, 72, 107
2, 60690, Note_off_c, 0, 72, 64
2, 60720, Note_on_c, 0, 72, 107
2, 60810, Note_off_c, 0, 72, 64
2, 60840, Note_on_c, 0, 74, 107
2, 60864, Note_off_c, 0, 74, 64
2, 60870, Note_on_c, 0, 72, 107
2, 60894, Note_off_c, 0, 72, 64
2, 60900, Note_on_c, 0, 74, 107
2, 60924, Note_off_c, 0, 74, 64
2, 60930, Note_on_c, 0, 72, 107
2, 60954, Note_off_c, 0, 72, 64
2, 60960, Note_on_c, 0, 74, 107
2, 60984, Note_off_c, 0, 74, 64
2, 60990, Note_on_c, 0, 72, 107
2, 61014, Note_off_c, 0, 72, 64
2, 61020, Note_on_c, 0, 74, 107
2, 61044, Note_off_c, 0, 74, 64
2, 61050, Note_on_c, 0, 72, 107
2, 61074, Note_off_c, 0, 72, 64
2, 61080, Note_on_c, 0, 74, 107
2, 61104, Note_off_c, 0, 74, 64
2, 61110, Note_on_c, 0, 72, 107
2, 61134, Note_off_c, 0, 72, 64
2, 61140, Note_on_c, 0, 74, 107
2, 61164, Note_off_c, 0, 74, 64
2, 61170, Note_on_c, 0, 72, 107
2, 61194, Note_off_c, 0, 72, 64
2, 61200, Note_on_c, 0, 74, 107
2, 61224, Note_off_c, 0, 74, 64
2, 61230, Note_on_c, 0, 72, 107
2, 61254, Note_off_c, 0, 72, 64
2, 61260, Note_on_c, 0, 74, 107
2, 61284, Note_off_c, 0, 74, 64
2, 61290, Note_on_c, 0, 72, 107
2, 61314, Note_off_c, 0, 72, 64
2, 61320, Note_on_c, 0, 74, 107
2, 61344, Note_off_c, 0, 74, 64
2, 61350, Note_on_c, 0, 72, 107
2, 61374, Note_off_c, 0, 72, 64
2, 61380, Note_on_c, 0, 74, 107
2, 61404, Note_off_c, 0, 74, 64
2, 61410, Note_on_c, 0, 72, 107
2, 61434, Note_off_c, 0, 72, 64
2, 61440, Note_on_c, 0, 74, 107
2, 61464, Note_off_c, 0, 74, 64
2, 61470, Note_on_c, 0, 72, 107
2, 61494, Note_off_c, 0, 72, 64
2, 61500, Note_on_c, 0, 74, 107
2, 61524, Note_off_c, 0, 74, 64
2, 61530, Note_on_c, 0, 72, 107
2, 61608, Note_off_c, 0, 72, 64
2, 61620, Note_on_c, 0, 70, 107
2, 61668, Note_off_c, 0, 70, 64
2, 61680, Note_on_c, 0, 72, 107
2, 61728, Note_off_c, 0, 72, 64
2, 61740, Note_on_c, 0, 75, 107
2, 61788, Note_off_c, 0, 75, 64
2, 61800, Note_on_c, 0, 74, 107
2, 61848, Note_off_c, 0, 74, 64
2, 61860, Note_on_c, 0, 72, 107
2, 61908, Note_off_c, 0, 72, 64
2, 61920, Note_on_c, 0, 70, 107
2, 61968, Note_off_c, 0, 70, 64
2, 61980, Note_on_c, 0, 69, 107
2, 62028, Note_off_c, 0, 69, 64
2, 62040, Note_on_c, 0, 67, 107
2, 62088, Note_off_c, 0, 67, 64
2, 62100, Note_on_c, 0, 75, 107
2, 62148, Note_off_c, 0, 75, 64
2, 62160, Note_on_c, 0, 66, 107
2, 62208, Note_off_c, 0, 66, 64
2, 62220, Note_on_c, 0, 67, 107
2, 62268, Note_off_c, 0, 67, 64
2, 62280, Note_on_c, 0, 69, 107
2, 62328, Note_off_c, 0, 69, 64
2, 62340, Note_on_c, 0, 67, 107
2, 62388, Note_off_c, 0, 67, 64
2, 62400, Note_on_c, 0, 65, 107
2, 62448, Note_off_c, 0, 65, 64
2, 62460, Note_on_c, 0, 74, 107
2, 62508, Note_off_c, 0, 74, 64
2, 62520, Note_on_c, 0, 64, 107
2, 62568, Note_off_c, 0, 64, 64
2, 62580, Note_on_c, 0, 65, 107
2, 62628, Note_off_c, 0, 65, 64
2, 62640, Note_on_c, 0, 67, 107
2, 62688, Note_off_c, 0, 67, 64
2, 62700, Note_on_c, 0, 65, 107
2, 62748, Note_off_c, 0, 65, 64
2, 62760, Note_on_c, 0, 63, 107
2, 62808, Note_off_c, 0, 63, 64
2, 62820, Note_on_c, 0, 72, 107
2, 62868, Note_off_c, 0, 72, 64
2, 62880, Note_on_c, 0, 62, 107
2, 62928, Note_off_c, 0, 62, 64
2, 62940, Note_on_c, 0, 64, 107
2, 62988, Note_off_c, 0, 64, 64
2, 63000, Note_on_c, 0, 66, 107
2, 63048, Note_off_c, 0, 66, 64
2, 63060, Note_on_c, 0, 64, 107
2, 63108, Note_off_c, 0, 64, 64
2, 63120, Note_on_c, 0, 62, 107
2, 63168, Note_off_c, 0, 62, 64
2, 63180, Note_on_c, 0, 72, 107
2, 63228, Note_off_c, 0, 72, 64
2, 63240, Note_on_c, 0, 64, 107
2, 63288, Note_off_c, 0, 64, 64
2, 63300, Note_on_c, 0, 66, 107
2, 63348, Note_off_c, 0, 66, 64
2, 63360, Note_on_c, 0, 67, 107
2, 63408, Note_off_c, 0, 67, 64
2, 63420, Note_on_c, 0, 66, 107
2, 63468, Note_off_c, 0, 66, 64
2, 63480, Note_on_c, 0, 64, 107
2, 63528, Note_off_c, 0, 64, 64
2, 63540, Note_on_c, 0, 70, 107
2, 63588, Note_off_c, 0, 70, 64
2, 63600, Note_on_c, 0, 61, 107
2, 63648, Note_off_c, 0, 61, 64
2, 63660, Note_on_c, 0, 62, 107
2, 63708, Note_off_c, 0, 62, 64
2, 63720, Note_on_c, 0, 64, 107
2, 63768, Note_off_c, 0, 64, 64
2, 63780, Note_on_c, 0, 62, 107
2, 63828, Note_off_c, 0, 62, 64
2, 63840, Note_on_c, 0, 61, 107
2, 63888, Note_off_c, 0, 61, 64
2, 63900, Note_on_c, 0, 69, 107
2, 63948, Note_off_c, 0, 69, 64
2, 63960, Note_on_c, 0, 64, 107
2, 64008, Note_off_c, 0, 64, 64
2, 64020, Note_on_c, 0, 66, 107
2, 64068, Note_off_c, 0, 66, 64
2, 64080, Note_on_c, 0, 67, 107
2, 64128, Note_off_c, 0, 67, 64
2, 64140, Note_on_c, 0, 66, 107
2, 64188, Note_off_c, 0, 66, 64
2, 64200, Note_on_c, 0, 64, 107
2, 64248, Note_off_c, 0, 64, 64
2, 64260, Note_on_c, 0, 62, 107
2, 64308, Note_off_c, 0, 62, 64
2, 64320, Note_on_c, 0, 64, 107
2, 64368, Note_off_c, 0, 64, 64
2, 64380, Note_on_c, 0, 66, 107
2, 64428, Note_off_c, 0, 66, 64
2, 64440, Note_on_c, 0, 67, 107
2, 64530, Note_off_c, 0, 67, 64
2, 64560, Note_on_c, 0, 55, 107
2, 64656, Note_off_c, 0, 55, 64
2, 64680, Note_on_c, 0, 55, 107
2, 64776, Note_off_c, 0, 55, 64
2, 64800, Note_on_c, 0, 54, 107
2, 64896, Note_off_c, 0, 54, 64
2, 64920, Note_on_c, 0, 62, 107
2, 65016, Note_off_c, 0, 62, 64
2, 65040, Note_on_c, 0, 62, 107
2, 65136, Note_off_c, 0, 62, 64
2, 65160, Note_on_c, 0, 58, 107
2, 65256, Note_off_c, 0, 58, 64
2, 65280, Note_on_c, 0, 67, 107
2, 65376, Note_off_c, 0, 67, 64
2, 65400, Note_on_c, 0, 67, 107
2, 65496, Note_off_c, 0, 67, 64
2, 65520, Note_on_c, 0, 66, 107
2, 65616, Note_off_c, 0, 66, 64
2, 65640, Note_on_c, 0, 74, 107
2, 65736, Note_off_c, 0, 74, 64
2, 65760, Note_on_c, 0, 74, 107
2, 65856, Note_off_c, 0, 74, 64
2, 65880, Note_on_c, 0, 70, 107
2, 65928, Note_off_c, 0, 70, 64
2, 65940, Note_on_c, 0, 69, 107
2, 65988, Note_off_c, 0, 69, 64
2, 66000, Note_on_c, 0, 67, 107
2, 66048, Note_off_c, 0, 67, 64
2, 66060, Note_on_c, 0, 69, 107
2, 66108, Note_off_c, 0, 69, 64
2, 66120, Note_on_c, 0, 70, 107
2, 66168, Note_off_c, 0, 70, 64
2, 66180, Note_on_c, 0, 72, 107
2, 66228, Note_off_c, 0, 72, 64
2, 66240, Note_on_c, 0, 74, 107
2, 66288, Note_off_c, 0, 74, 64
2, 66300, Note_on_c, 0, 72, 107
2, 66348, Note_off_c, 0, 72, 64
2, 66360, Note_on_c, 0, 74, 107
2, 66408, Note_off_c, 0, 74, 64
2, 66420, Note_on_c, 0, 76, 107
2, 66468, Note_off_c, 0, 76, 64
2, 66480, Note_on_c, 0, 78, 107
2, 66528, Note_off_c, 0, 78, 64
2, 66540, Note_on_c, 0, 74, 107
2, 66588, Note_off_c, 0, 74, 64
2, 66600, Note_on_c, 0, 79, 107
2, 66648, Note_off_c, 0, 79, 64
2, 66660, Note_on_c, 0, 78, 107
2, 66708, Note_off_c, 0, 78, 64
2, 66720, Note_on_c, 0, 79, 107
2, 66768, Note_off_c, 0, 79, 64
2, 66780, Note_on_c, 0, 81, 107
2, 66828, Note_off_c, 0, 81, 64
2, 66840, Note_on_c, 0, 82, 107
2, 66888, Note_off_c, 0, 82, 64
2, 66900, Note_on_c, 0, 79, 107
2, 66948, Note_off_c, 0, 79, 64
2, 66960, Note_on_c, 0, 81, 107
2, 67008, Note_off_c, 0, 81, 64
2, 67020, Note_on_c, 0, 79, 107
2, 67068, Note_off_c, 0, 79, 64
2, 67080, Note_on_c, 0, 78, 107
2, 67128, Note_off_c, 0, 78, 64
2, 67140, Note_on_c, 0, 76, 107
2, 67188, Note_off_c, 0, 76, 64
2, 67200, Note_on_c, 0, 74, 107
2, 67248, Note_off_c, 0, 74, 64
2, 67260, Note_on_c, 0, 72, 107
2, 67308, Note_off_c, 0, 72, 64
2, 67320, Note_on_c, 0, 70, 107
2, 67410, Note_off_c, 0, 70, 64
2, 67440, Note_on_c, 0, 79, 107
2, 67440, Note_on_c, 0, 74, 107
2, 67440, Note_on_c, 0, 70, 107
2, 67536, Note_off_c, 0, 70, 64
2, 67536, Note_off_c, 0, 74, 64
2, 67536, Note_off_c, 0, 79, 64
2, 67560, Note_on_c, 0, 70, 107
2, 67560, Note_on_c, 0, 74, 107
2, 67560, Note_on_c, 0, 79, 107
2, 67656, Note_off_c, 0, 79, 64
2, 67656, Note_off_c, 0, 74, 64
2, 67656, Note_off_c, 0, 70, 64
2, 67680, Note_on_c, 0, 75, 107
2, 67680, Note_on_c, 0, 70, 107
2, 67728, Note_off_c, 0, 75, 64
2, 67740, Note_on_c, 0, 77, 107
2, 67776, Note_off_c, 0, 70, 64
2, 67788, Note_off_c, 0, 77, 64
2, 67800, Note_on_c, 0, 75, 107
2, 67848, Note_off_c, 0, 75, 64
2, 67860, Note_on_c, 0, 74, 107
2, 67908, Note_off_c, 0, 74, 64
2, 67920, Note_on_c, 0, 72, 107
2, 67968, Note_off_c, 0, 72, 64
2, 67980, Note_on_c, 0, 70, 107
2, 68028, Note_off_c, 0, 70, 64
2, 68040, Note_on_c, 0, 69, 107
2, 68130, Note_off_c, 0, 69, 64
2, 68160, Note_on_c, 0, 72, 107
2, 68160, Note_on_c, 0, 69, 107
2, 68160, Note_on_c, 0, 77, 107
2, 68256, Note_off_c, 0, 77, 64
2, 68256, Note_off_c, 0, 69, 64
2, 68256, Note_off_c, 0, 72, 64
2, 68280, Note_on_c, 0, 72, 107
2, 68280, Note_on_c, 0, 77, 107
2, 68280, Note_on_c, 0, 69, 107
2, 68376, Note_off_c, 0, 69, 64
2, 68376, Note_off_c, 0, 77, 64
2, 68376, Note_off_c, 0, 72, 64
2, 68400, Note_on_c, 0, 74, 107
2, 68400, Note_on_c, 0, 69, 107
2, 68448, Note_off_c, 0, 74, 64
2, 68460, Note_on_c, 0, 75, 107
2, 68496, Note_off_c, 0, 69, 64
2, 68508, Note_off_c, 0, 75, 64
2, 68520, Note_on_c, 0, 74, 107
2, 68568, Note_off_c, 0, 74, 64
2, 68580, Note_on_c, 0, 72, 107
2, 68628, Note_off_c, 0, 72, 64
2, 68640, Note_on_c, 0, 70, 107
2, 68688, Note_off_c, 0, 70, 64
2, 68700, Note_on_c, 0, 69, 107
2, 68748, Note_off_c, 0, 69, 64
2, 68760, Note_on_c, 0, 67, 107
2, 68850, Note_off_c, 0, 67, 64
2, 68880, Note_on_c, 0, 70, 107
2, 68880, Note_on_c, 0, 67, 107
2, 68880, Note_on_c, 0, 75, 107
2, 68976, Note_off_c, 0, 75, 64
2, 68976, Note_off_c, 0, 67, 64
2, 68976, Note_off_c, 0, 70, 64
2, 69000, Note_on_c, 0, 67, 107
2, 69000, Note_on_c, 0, 75, 107
2, 69000, Note_on_c, 0, 70, 107
2, 69096, Note_off_c, 0, 70, 64
2, 69096, Note_off_c, 0, 75, 64
2, 69096, Note_off_c, 0, 67, 64
2, 69120, Note_on_c, 0, 72, 107
2, 69120, Note_on_c, 0, 67, 107
2, 69168, Note_off_c, 0, 72, 64
2, 69180, Note_on_c, 0, 74, 107
2, 69216, Note_off_c, 0, 67, 64
2, 69228, Note_off_c, 0, 74, 64
2, 69240, Note_on_c, 0, 72, 107
2, 69288, Note_off_c, 0, 72, 64
2, 69300, Note_on_c, 0, 70, 107
2, 69348, Note_off_c, 0, 70, 64
2, 69360, Note_on_c, 0, 69, 107
2, 69408, Note_off_c, 0, 69, 64
2, 69420, Note_on_c, 0, 67, 107
2, 69468, Note_off_c, 0, 67, 64
2, 69480, Note_on_c, 0, 66, 107
2, 69576, Note_off_c, 0, 66, 64
2, 69600, Note_on_c, 0, 69, 107
2, 69600, Note_on_c, 0, 66, 107
2, 69600, Note_on_c, 0, 74, 107
2, 69696, Note_off_c, 0, 74, 64
2, 69696, Note_off_c, 0, 66, 64
2, 69696, Note_off_c, 0, 69, 64
2, 69720, Note_on_c, 0, 69, 107
2, 69720, Note_on_c, 0, 74, 107
2, 69720, Note_on_c, 0, 66, 107
2, 69816, Note_off_c, 0, 66, 64
2, 69816, Note_off_c, 0, 74, 64
2, 69816, Note_off_c, 0, 69, 64
2, 69840, Note_on_c, 0, 62, 107
2, 69840, Note_on_c, 0, 70, 107
2, 69840, Note_on_c, 0, 67, 107
2, 69936, Note_off_c, 0, 67, 64
2, 69936, Note_off_c, 0, 70, 64
2, 69936, Note_off_c, 0, 62, 64
2, 69960, Note_on_c, 0, 67, 107
2, 69960, Note_on_c, 0, 70, 107
2, 70056, Note_off_c, 0, 70, 64
2, 70056, Note_off_c, 0, 67, 64
2, 70080, Note_on_c, 0, 70, 107
2, 70080, Note_on_c, 0, 67, 107
2, 70176, Note_off_c, 0, 67, 64
2, 70176, Note_off_c, 0, 70, 64
2, 70200, Note_on_c, 0, 70, 107
2, 70200, Note_on_c, 0, 63, 107
2, 70248, Note_off_c, 0, 63, 64
2, 70260, Note_on_c, 0, 62, 107
2, 70308, Note_off_c, 0, 62, 64
2, 70320, Note_on_c, 0, 63, 107
2, 70368, Note_off_c, 0, 63, 64
2, 70380, Note_on_c, 0, 65, 107
2, 70428, Note_off_c, 0, 65, 64
2, 70440, Note_on_c, 0, 67, 107
2, 70488, Note_off_c, 0, 67, 64
2, 70488, Note_off_c, 0, 70, 64
2, 70500, Note_on_c, 0, 63, 107
2, 70548, Note_off_c, 0, 63, 64
2, 70560, Note_on_c, 0, 69, 107
2, 70560, Note_on_c, 0, 60, 107
2, 70608, Note_off_c, 0, 60, 64
2, 70620, Note_on_c, 0, 67, 107
2, 70668, Note_off_c, 0, 67, 64
2, 70680, Note_on_c, 0, 65, 107
2, 70728, Note_off_c, 0, 65, 64
2, 70740, Note_on_c, 0, 63, 107
2, 70788, Note_off_c, 0, 63, 64
2, 70800, Note_on_c, 0, 62, 107
2, 70848, Note_off_c, 0, 62, 64
2, 70860, Note_on_c, 0, 60, 107
2, 70908, Note_off_c, 0, 60, 64
2, 70920, Note_on_c, 0, 62, 107
2, 70968, Note_off_c, 0, 62, 64
2, 70980, Note_on_c, 0, 60, 107
2, 71028, Note_off_c, 0, 60, 64
2, 71040, Note_on_c, 0, 62, 107
2, 71088, Note_off_c, 0, 62, 64
2, 71100, Note_on_c, 0, 63, 107
2, 71148, Note_off_c, 0, 63, 64
2, 71160, Note_on_c, 0, 65, 107
2, 71208, Note_off_c, 0, 65, 64
2, 71208, Note_off_c, 0, 69, 64
2, 71220, Note_on_c, 0, 62, 107
2, 71268, Note_off_c, 0, 62, 64
2, 71280, Note_on_c, 0, 67, 107
2, 71280, Note_on_c, 0, 58, 107
2, 71328, Note_off_c, 0, 58, 64
2, 71340, Note_on_c, 0, 65, 107
2, 71388, Note_off_c, 0, 65, 64
2, 71400, Note_on_c, 0, 63, 107
2, 71448, Note_off_c, 0, 63, 64
2, 71460, Note_on_c, 0, 62, 107
2, 71508, Note_off_c, 0, 62, 64
2, 71520, Note_on_c, 0, 60, 107
2, 71568, Note_off_c, 0, 60, 64
2, 71580, Note_on_c, 0, 58, 107
2, 71628, Note_off_c, 0, 58, 64
2, 71640, Note_on_c, 0, 60, 107
2, 71688, Note_off_c, 0, 60, 64
2, 71700, Note_on_c, 0, 58, 107
2, 71748, Note_off_c, 0, 58, 64
2, 71760, Note_on_c, 0, 60, 107
2, 71808, Note_off_c, 0, 60, 64
2, 71820, Note_on_c, 0, 62, 107
2, 71868, Note_off_c, 0, 62, 64
2, 71880, Note_on_c, 0, 63, 107
2, 71928, Note_off_c, 0, 63, 64
2, 71928, Note_off_c, 0, 67, 64
2, 71940, Note_on_c, 0, 60, 107
2, 71988, Note_off_c, 0, 60, 64
2, 72000, Note_on_c, 0, 66, 107
2, 72000, Note_on_c, 0, 57, 107
2, 72048, Note_off_c, 0, 57, 64
2, 72060, Note_on_c, 0, 63, 107
2, 72108, Note_off_c, 0, 63, 64
2, 72120, Note_on_c, 0, 62, 107
2, 72168, Note_off_c, 0, 62, 64
2, 72180, Note_on_c, 0, 60, 107
2, 72228, Note_off_c, 0, 60, 64
2, 72240, Note_on_c, 0, 58, 107
2, 72288, Note_off_c, 0, 58, 64
2, 72288, Note_off_c, 0, 66, 64
2, 72300, Note_on_c, 0, 57, 107
2, 72348, Note_off_c, 0, 57, 64
2, 72360, Note_on_c, 0, 67, 107
2, 72384, Note_off_c, 0, 67, 64
2, 72390, Note_on_c, 0, 66, 107
2, 72414, Note_off_c, 0, 66, 64
2, 72420, Note_on_c, 0, 67, 107
2, 72672, Note_off_c, 0, 67, 64
2, 72720, Note_on_c, 0, 69, 107
2, 72816, Note_off_c, 0, 69, 64
2, 72840, Note_on_c, 0, 66, 107
2, 72840, Note_on_c, 0, 69, 107
2, 72840, Note_on_c, 0, 74, 107
2, 72936, Note_off_c, 0, 74, 64
2, 72936, Note_off_c, 0, 69, 64
2, 72936, Note_off_c, 0, 66, 64
2, 72960, Note_on_c, 0, 69, 107
2, 72960, Note_on_c, 0, 74, 107
2, 72960, Note_on_c, 0, 66, 107
2, 73056, Note_off_c, 0, 66, 64
2, 73056, Note_off_c, 0, 74, 64
2, 73056, Note_off_c, 0, 69, 64
2, 73080, Note_on_c, 0, 77, 107
2, 73080, Note_on_c, 0, 74, 107
2, 73080, Note_on_c, 0, 71, 107
2, 73080, Note_on_c, 0, 67, 107
2, 73176, Note_off_c, 0, 67, 64
2, 73176, Note_off_c, 0, 71, 64
2, 73176, Note_off_c, 0, 74, 64
2, 73176, Note_off_c, 0, 77, 64
2, 73200, Note_on_c, 0, 77, 107
2, 73200, Note_on_c, 0, 67, 107
2, 73200, Note_on_c, 0, 74, 107
2, 73200, Note_on_c, 0, 71, 107
2, 73296, Note_off_c, 0, 71, 64
2, 73296, Note_off_c, 0, 74, 64
2, 73296, Note_off_c, 0, 67, 64
2, 73296, Note_off_c, 0, 77, 64
2, 73320, Note_on_c, 0, 77, 107
2, 73320, Note_on_c, 0, 74, 107
2, 73320, Note_on_c, 0, 71, 107
2, 73320, Note_on_c, 0, 67, 107
2, 73416, Note_off_c, 0, 67, 64
2, 73416, Note_off_c, 0, 71, 64
2, 73416, Note_off_c, 0, 74, 64
2, 73416, Note_off_c, 0, 77, 64
2, 73440, Note_on_c, 0, 77, 107
2, 73440, Note_on_c, 0, 67, 107
2, 73440, Note_on_c, 0, 71, 107
2, 73440, Note_on_c, 0, 74, 107
2, 73536, Note_off_c, 0, 74, 64
2, 73536, Note_off_c, 0, 71, 64
2, 73536, Note_off_c, 0, 67, 64
2, 73536, Note_off_c, 0, 77, 64
2, 73560, Note_on_c, 0, 72, 107
2, 73560, Note_on_c, 0, 76, 107
2, 73560, Note_on_c, 0, 67, 107
2, 73656, Note_off_c, 0, 67, 64
2, 73656, Note_off_c, 0, 76, 64
2, 73656, Note_off_c, 0, 72, 64
2, 73680, Note_on_c, 0, 76, 107
2, 73680, Note_on_c, 0, 72, 107
2, 73680, Note_on_c, 0, 67, 107
2, 73776, Note_off_c, 0, 67, 64
2, 73776, Note_off_c, 0, 72, 64
2, 73776, Note_off_c, 0, 76, 64
2, 73800, Note_on_c, 0, 79, 107
2, 73800, Note_on_c, 0, 69, 107
2, 73800, Note_on_c, 0, 76, 107
2, 73800, Note_on_c, 0, 73, 107
2, 73890, Note_off_c, 0, 79, 64
2, 73896, Note_off_c, 0, 73, 64
2, 73896, Note_off_c, 0, 76, 64
2, 73896, Note_off_c, 0, 69, 64
2, 73920, Note_on_c, 0, 79, 107
2, 73920, Note_on_c, 0, 69, 107
2, 73920, Note_on_c, 0, 76, 107
2, 73920, Note_on_c, 0, 73, 107
2, 74010, Note_off_c, 0, 79, 64
2, 74016, Note_off_c, 0, 73, 64
2, 74016, Note_off_c, 0, 76, 64
2, 74016, Note_off_c, 0, 69, 64
2, 74040, Note_on_c, 0, 79, 107
2, 74040, Note_on_c, 0, 69, 107
2, 74040, Note_on_c, 0, 73, 107
2, 74040, Note_on_c, 0, 76, 107
2, 74130, Note_off_c, 0, 79, 64
2, 74136, Note_off_c, 0, 76, 64
2, 74136, Note_off_c, 0, 73, 64
2, 74136, Note_off_c, 0, 69, 64
2, 74160, Note_on_c, 0, 79, 107
2, 74160, Note_on_c, 0, 69, 107
2, 74160, Note_on_c, 0, 73, 107
2, 74160, Note_on_c, 0, 76, 107
2, 74256, Note_off_c, 0, 76, 64
2, 74256, Note_off_c, 0, 73, 64
2, 74256, Note_off_c, 0, 69, 64
2, 74256, Note_off_c, 0, 79, 64
2, 74280, Note_on_c, 0, 78, 107
2, 74280, Note_on_c, 0, 69, 107
2, 74280, Note_on_c, 0, 74, 107
2, 74370, Note_off_c, 0, 78, 64
2, 74376, Note_off_c, 0, 74, 64
2, 74376, Note_off_c, 0, 69, 64
2, 74400, Note_on_c, 0, 78, 107
2, 74400, Note_on_c, 0, 74, 107
2, 74400, Note_on_c, 0, 69, 107
2, 74490, Note_off_c, 0, 78, 64
2, 74496, Note_off_c, 0, 69, 64
2, 74496, Note_off_c, 0, 74, 64
2, 74520, Note_on_c, 0, 81, 107
2, 74520, Note_on_c, 0, 74, 107
2, 74520, Note_on_c, 0, 72, 107
2, 74610, Note_off_c, 0, 81, 64
2, 74616, Note_off_c, 0, 72, 64
2, 74616, Note_off_c, 0, 74, 64
2, 74640, Note_on_c, 0, 81, 107
2, 74640, Note_on_c, 0, 72, 107
2, 74640, Note_on_c, 0, 74, 107
2, 74730, Note_off_c, 0, 81, 64
2, 74736, Note_off_c, 0, 74, 64
2, 74736, Note_off_c, 0, 72, 64
2, 74760, Note_on_c, 0, 81, 107
2, 74760, Note_on_c, 0, 72, 107
2, 74760, Note_on_c, 0, 74, 107
2, 74850, Note_off_c, 0, 81, 64
2, 74856, Note_off_c, 0, 74, 64
2, 74856, Note_off_c, 0, 72, 64
2, 74880, Note_on_c, 0, 72, 107
2, 74880, Note_on_c, 0, 74, 107
2, 74880, Note_on_c, 0, 81, 107
2, 74976, Note_off_c, 0, 81, 64
2, 75000, Note_off_c, 0, 72, 64
2, 75000, Note_on_c, 0, 79, 107
2, 75000, Note_on_c, 0, 70, 107
2, 75072, Note_off_c, 0, 74, 64
2, 75090, Note_off_c, 0, 79, 64
2, 75120, Note_off_c, 0, 70, 64
2, 75120, Note_on_c, 0, 77, 107
2, 75120, Note_on_c, 0, 74, 107
2, 75120, Note_on_c, 0, 67, 107
2, 75210, Note_off_c, 0, 77, 64
2, 75216, Note_off_c, 0, 74, 64
2, 75240, Note_off_c, 0, 67, 64
2, 75240, Note_on_c, 0, 75, 107
2, 75240, Note_on_c, 0, 72, 107
2, 75240, Note_on_c, 0, 67, 107
2, 75336, Note_off_c, 0, 72, 64
2, 75336, Note_off_c, 0, 75, 64
2, 75360, Note_on_c, 0, 74, 107
2, 75360, Note_on_c, 0, 70, 107
2, 75456, Note_off_c, 0, 70, 64
2, 75456, Note_off_c, 0, 74, 64
2, 75480, Note_on_c, 0, 69, 107
2, 75480, Note_on_c, 0, 72, 107
2, 75528, Note_off_c, 0, 67, 64
2, 75576, Note_off_c, 0, 72, 64
2, 75576, Note_off_c, 0, 69, 64
2, 75600, Note_on_c, 0, 69, 107
2, 75600, Note_on_c, 0, 72, 107
2, 75600, Note_on_c, 0, 66, 107
2, 75744, Note_off_c, 0, 72, 64
2, 75780, Note_on_c, 0, 74, 107
2, 75792, Note_off_c, 0, 66, 64
2, 75792, Note_off_c, 0, 69, 64
2, 75828, Note_off_c, 0, 74, 64
2, 75840, Note_on_c, 0, 67, 107
2, 75840, Note_on_c, 0, 62, 107
2, 75840, Note_on_c, 0, 70, 107
2, 75936, Note_off_c, 0, 62, 64
2, 75960, Note_on_c, 0, 63, 107
2, 76008, Note_off_c, 0, 70, 64
2, 76020, Note_on_c, 0, 69, 107
2, 76056, Note_off_c, 0, 63, 64
2, 76056, Note_off_c, 0, 67, 64
2, 76068, Note_off_c, 0, 69, 64
2, 76080, Note_on_c, 0, 70, 107
2, 76080, Note_on_c, 0, 66, 107
2, 76104, Note_off_c, 0, 70, 64
2, 76110, Note_on_c, 0, 69, 107
2, 76134, Note_off_c, 0, 69, 64
2, 76140, Note_on_c, 0, 70, 105
2, 76164, Note_off_c, 0, 70, 64
2, 76170, Note_on_c, 0, 69, 105
2, 76257, Note_off_c, 0, 69, 64
2, 76260, Note_on_c, 0, 67, 107
2, 76272, Note_off_c, 0, 66, 64
2, 76308, Note_off_c, 0, 67, 64
2, 76320, Note_on_c, 0, 67, 107
2, 76320, Note_on_c, 0, 67, 107
2, 76512, Note_off_c, 0, 67, 64
2, 76512, Note_off_c, 0, 67, 64
2, 76512, End_track
3, 0, Start_track
3, 0, Title_t, "J.S. Bach, Edition Wood"
3, 0, Program_c, 1, 0
3, 0, Control_c, 1, 7, 99
3, 840, Note_on_c, 1, 62, 107
3, 936, Note_off_c, 1, 62, 64
3, 960, Note_on_c, 1, 62, 107
3, 1056, Note_off_c, 1, 62, 64
3, 1080, Note_on_c, 1, 62, 107
3, 1080, Note_on_c, 1, 58, 107
3, 1176, Note_off_c, 1, 58, 64
3, 1176, Note_off_c, 1, 62, 64
3, 1200, Note_on_c, 1, 62, 107
3, 1200, Note_on_c, 1, 55, 107
3, 1200, Note_on_c, 1, 58, 107
3, 1296, Note_off_c, 1, 58, 64
3, 1296, Note_off_c, 1, 55, 64
3, 1296, Note_off_c, 1, 62, 64
3, 1320, Note_on_c, 1, 58, 107
3, 1320, Note_on_c, 1, 62, 107
3, 1320, Note_on_c, 1, 55, 107
3, 1416, Note_off_c, 1, 55, 64
3, 1416, Note_off_c, 1, 62, 64
3, 1416, Note_off_c, 1, 58, 64
3, 1440, Note_on_c, 1, 62, 107
3, 1440, Note_on_c, 1, 54, 107
3, 1440, Note_on_c, 1, 57, 107
3, 1536, Note_off_c, 1, 57, 64
3, 1536, Note_off_c, 1, 54, 64
3, 1536, Note_off_c, 1, 62, 64
3, 1560, Note_on_c, 1, 57, 107
3, 1560, Note_on_c, 1, 50, 107
3, 1560, Note_on_c, 1, 54, 107
3, 1656, Note_off_c, 1, 54, 64
3, 1656, Note_off_c, 1, 50, 64
3, 1656, Note_off_c, 1, 57, 64
3, 1680, Note_on_c, 1, 54, 107
3, 1680, Note_on_c, 1, 57, 107
3, 1680, Note_on_c, 1, 50, 107
3, 1776, Note_off_c, 1, 50, 64
3, 1776, Note_off_c, 1, 57, 64
3, 1776, Note_off_c, 1, 54, 64
3, 1800, Note_on_c, 1, 55, 107
3, 1800, Note_on_c, 1, 46, 107
3, 1800, Note_on_c, 1, 50, 107
3, 1896, Note_off_c, 1, 50, 64
3, 1896, Note_off_c, 1, 46, 64
3, 1896, Note_off_c, 1, 55, 64
3, 1920, Note_on_c, 1, 50, 107
3, 1920, Note_on_c, 1, 46, 107
3, 1920, Note_on_c, 1, 43, 107
3, 2016, Note_off_c, 1, 43, 64
3, 2016, Note_off_c, 1, 46, 64
3, 2016, Note_off_c, 1, 50, 64
3, 2040, Note_on_c, 1, 43, 107
3, 2040, Note_on_c, 1, 50, 107
3, 2040, Note_on_c, 1, 46, 107
3, 2136, Note_off_c, 1, 46, 64
3, 2136, Note_off_c, 1, 50, 64
3, 2136, Note_off_c, 1, 43, 64
3, 2160, Note_on_c, 1, 38, 107
3, 2160, Note_on_c, 1, 42, 107
3, 2160, Note_on_c, 1, 45, 107
3, 2160, Note_on_c, 1, 50, 107
3, 2352, Note_off_c, 1, 50, 64
3, 2352, Note_off_c, 1, 45, 64
3, 2352, Note_off_c, 1, 42, 64
3, 2352, Note_off_c, 1, 38, 64
3, 2580, Note_on_c, 1, 69, 107
3, 2628, Note_off_c, 1, 69, 64
3, 2640, Note_on_c, 1, 67, 107
3, 2688, Note_off_c, 1, 67, 64
3, 2700, Note_on_c, 1, 65, 107
3, 2748, Note_off_c, 1, 65, 64
3, 2760, Note_on_c, 1, 63, 107
3, 2808, Note_off_c, 1, 63, 64
3, 2820, Note_on_c, 1, 62, 107
3, 2868, Note_off_c, 1, 62, 64
3, 2880, Note_on_c, 1, 60, 107
3, 2928, Note_off_c, 1, 60, 64
3, 2940, Note_on_c, 1, 62, 107
3, 2988, Note_off_c, 1, 62, 64
3, 3000, Note_on_c, 1, 60, 107
3, 3048, Note_off_c, 1, 60, 64
3, 3060, Note_on_c, 1, 58, 107
3, 3108, Note_off_c, 1, 58, 64
3, 3120, Note_on_c, 1, 57, 107
3, 3168, Note_off_c, 1, 57, 64
3, 3180, Note_on_c, 1, 55, 107
3, 3228, Note_off_c, 1, 55, 64
3, 3240, Note_on_c, 1, 53, 107
3, 3285, Note_off_c, 1, 53, 64
3, 3300, Note_on_c, 1, 67, 107
3, 3348, Note_off_c, 1, 67, 64
3, 3360, Note_on_c, 1, 65, 107
3, 3408, Note_off_c, 1, 65, 64
3, 3420, Note_on_c, 1, 63, 107
3, 3468, Note_off_c, 1, 63, 64
3, 3480, Note_on_c, 1, 62, 107
3, 3528, Note_off_c, 1, 62, 64
3, 3540, Note_on_c, 1, 60, 107
3, 3588, Note_off_c, 1, 60, 64
3, 3600, Note_on_c, 1, 58, 107
3, 3648, Note_off_c, 1, 58, 64
3, 3660, Note_on_c, 1, 60, 107
3, 3708, Note_off_c, 1, 60, 64
3, 3720, Note_on_c, 1, 58, 107
3, 3768, Note_off_c, 1, 58, 64
3, 3780, Note_on_c, 1, 57, 107
3, 3828, Note_off_c, 1, 57, 64
3, 3840, Note_on_c, 1, 55, 107
3, 3888, Note_off_c, 1, 55, 64
3, 3900, Note_on_c, 1, 53, 107
3, 3948, Note_off_c, 1, 53, 64
3, 3960, Note_on_c, 1, 51, 107
3, 4005, Note_off_c, 1, 51, 64
3, 4020, Note_on_c, 1, 65, 107
3, 4068, Note_off_c, 1, 65, 64
3, 4080, Note_on_c, 1, 63, 107
3, 4128, Note_off_c, 1, 63, 64
3, 4140, Note_on_c, 1, 62, 107
3, 4188, Note_off_c, 1, 62, 64
3, 4200, Note_on_c, 1, 60, 107
3, 4248, Note_off_c, 1, 60, 64
3, 4260, Note_on_c, 1, 58, 107
3, 4308, Note_off_c, 1, 58, 64
3, 4320, Note_on_c, 1, 57, 107
3, 4368, Note_off_c, 1, 57, 64
3, 4380, Note_on_c, 1, 58, 107
3, 4428, Note_off_c, 1, 58, 64
3, 4440, Note_on_c, 1, 57, 107
3, 4488, Note_off_c, 1, 57, 64
3, 4500, Note_on_c, 1, 55, 107
3, 4548, Note_off_c, 1, 55, 64
3, 4560, Note_on_c, 1, 54, 107
3, 4608, Note_off_c, 1, 54, 64
3, 4620, Note_on_c, 1, 52, 107
3, 4668, Note_off_c, 1, 52, 64
3, 4680, Note_on_c, 1, 50, 107
3, 4728, Note_off_c, 1, 50, 64
3, 4740, Note_on_c, 1, 51, 107
3, 4788, Note_off_c, 1, 51, 64
3, 4800, Note_on_c, 1, 50, 107
3, 4848, Note_off_c, 1, 50, 64
3, 4860, Note_on_c, 1, 48, 107
3, 4908, Note_off_c, 1, 48, 64
3, 4920, Note_on_c, 1, 46, 107
3, 4968, Note_off_c, 1, 46, 64
3, 4980, Note_on_c, 1, 45, 107
3, 5028, Note_off_c, 1, 45, 64
3, 5040, Note_on_c, 1, 43, 107
3, 5088, Note_off_c, 1, 43, 64
3, 5100, Note_on_c, 1, 45, 107
3, 5148, Note_off_c, 1, 45, 64
3, 5160, Note_on_c, 1, 43, 107
3, 5208, Note_off_c, 1, 43, 64
3, 5220, Note_on_c, 1, 41, 107
3, 5268, Note_off_c, 1, 41, 64
3, 5280, Note_on_c, 1, 39, 107
3, 5328, Note_off_c, 1, 39, 64
3, 5340, Note_on_c, 1, 38, 107
3, 5388, Note_off_c, 1, 38, 64
3, 5400, Note_on_c, 1, 36, 107
3, 5496, Note_off_c, 1, 36, 64
3, 5520, Note_on_c, 1, 48, 107
3, 5610, Note_off_c, 1, 48, 64
3, 5640, Note_on_c, 1, 48, 107
3, 5730, Note_off_c, 1, 48, 64
3, 5760, Note_on_c, 1, 41, 107
3, 5856, Note_off_c, 1, 41, 64
3, 5880, Note_on_c, 1, 53, 107
3, 5970, Note_off_c, 1, 53, 64
3, 6000, Note_on_c, 1, 53, 107
3, 6090, Note_off_c, 1, 53, 64
3, 6120, Note_on_c, 1, 58, 107
3, 6216, Note_off_c, 1, 58, 64
3, 6240, Note_on_c, 1, 46, 107
3, 6330, Note_off_c, 1, 46, 64
3, 6360, Note_on_c, 1, 46, 107
3, 6450, Note_off_c, 1, 46, 64
3, 6480, Note_on_c, 1, 39, 107
3, 6576, Note_off_c, 1, 39, 64
3, 6600, Note_on_c, 1, 51, 107
3, 6690, Note_off_c, 1, 51, 64
3, 6720, Note_on_c, 1, 51, 107
3, 6810, Note_off_c, 1, 51, 64
3, 6840, Note_on_c, 1, 57, 107
3, 6936, Note_off_c, 1, 57, 64
3, 6960, Note_on_c, 1, 45, 107
3, 7050, Note_off_c, 1, 45, 64
3, 7080, Note_on_c, 1, 45, 107
3, 7170, Note_off_c, 1, 45, 64
3, 7200, Note_on_c, 1, 38, 107
3, 7290, Note_off_c, 1, 38, 64
3, 7560, Note_on_c, 1, 58, 107
3, 7608, Note_off_c, 1, 58, 64
3, 7620, Note_on_c, 1, 62, 107
3, 7668, Note_off_c, 1, 62, 64
3, 7680, Note_on_c, 1, 60, 107
3, 7728, Note_off_c, 1, 60, 64
3, 7740, Note_on_c, 1, 58, 107
3, 7788, Note_off_c, 1, 58, 64
3, 7800, Note_on_c, 1, 57, 107
3, 7848, Note_off_c, 1, 57, 64
3, 7860, Note_on_c, 1, 55, 107
3, 7908, Note_off_c, 1, 55, 64
3, 7920, Note_on_c, 1, 54, 107
3, 7968, Note_off_c, 1, 54, 64
3, 7980, Note_on_c, 1, 55, 107
3, 8028, Note_off_c, 1, 55, 64
3, 8040, Note_on_c, 1, 54, 107
3, 8088, Note_off_c, 1, 54, 64
3, 8100, Note_on_c, 1, 52, 107
3, 8148, Note_off_c, 1, 52, 64
3, 8160, Note_on_c, 1, 50, 107
3, 8208, Note_off_c, 1, 50, 64
3, 8220, Note_on_c, 1, 48, 107
3, 8268, Note_off_c, 1, 48, 64
3, 8280, Note_on_c, 1, 47, 107
3, 8328, Note_off_c, 1, 47, 64
3, 8340, Note_on_c, 1, 45, 107
3, 8388, Note_off_c, 1, 45, 64
3, 8400, Note_on_c, 1, 43, 107
3, 8448, Note_off_c, 1, 43, 64
3, 8460, Note_on_c, 1, 41, 107
3, 8508, Note_off_c, 1, 41, 64
3, 8520, Note_on_c, 1, 40, 107
3, 8568, Note_off_c, 1, 40, 64
3, 8580, Note_on_c, 1, 38, 107
3, 8628, Note_off_c, 1, 38, 64
3, 8640, Note_on_c, 1, 36, 107
3, 8736, Note_off_c, 1, 36, 64
3, 8760, Note_on_c, 1, 55, 107
3, 8808, Note_off_c, 1, 55, 64
3, 8820, Note_on_c, 1, 53, 107
3, 8868, Note_off_c, 1, 53, 64
3, 8880, Note_on_c, 1, 52, 107
3, 8928, Note_off_c, 1, 52, 64
3, 8940, Note_on_c, 1, 50, 107
3, 8988, Note_off_c, 1, 50, 64
3, 9000, Note_on_c, 1, 49, 107
3, 9048, Note_off_c, 1, 49, 64
3, 9060, Note_on_c, 1, 47, 107
3, 9108, Note_off_c, 1, 47, 64
3, 9120, Note_on_c, 1, 45, 107
3, 9168, Note_off_c, 1, 45, 64
3, 9180, Note_on_c, 1, 43, 107
3, 9228, Note_off_c, 1, 43, 64
3, 9240, Note_on_c, 1, 42, 107
3, 9288, Note_off_c, 1, 42, 64
3, 9300, Note_on_c, 1, 40, 107
3, 9348, Note_off_c, 1, 40, 64
3, 9360, Note_on_c, 1, 38, 107
3, 9473, Note_off_c, 1, 38, 64
3, 9480, Note_on_c, 1, 60, 107
3, 9528, Note_off_c, 1, 60, 64
3, 9540, Note_on_c, 1, 58, 107
3, 9588, Note_off_c, 1, 58, 64
3, 9600, Note_on_c, 1, 57, 107
3, 9648, Note_off_c, 1, 57, 64
3, 9660, Note_on_c, 1, 55, 107
3, 9708, Note_off_c, 1, 55, 64
3, 9720, Note_on_c, 1, 54, 107
3, 9768, Note_off_c, 1, 54, 64
3, 9780, Note_on_c, 1, 52, 107
3, 9828, Note_off_c, 1, 52, 64
3, 9840, Note_on_c, 1, 50, 107
3, 9888, Note_off_c, 1, 50, 64
3, 9900, Note_on_c, 1, 48, 107
3, 9948, Note_off_c, 1, 48, 64
3, 9960, Note_on_c, 1, 46, 107
3, 10008, Note_off_c, 1, 46, 64
3, 10020, Note_on_c, 1, 45, 107
3, 10068, Note_off_c, 1, 45, 64
3, 10080, Note_on_c, 1, 43, 107
3, 10128, Note_off_c, 1, 43, 64
3, 10140, Note_on_c, 1, 42, 107
3, 10188, Note_off_c, 1, 42, 64
3, 10200, Note_on_c, 1, 43, 107
3, 10248, Note_off_c, 1, 43, 64
3, 10260, Note_on_c, 1, 45, 107
3, 10308, Note_off_c, 1, 45, 64
3, 10320, Note_on_c, 1, 46, 107
3, 10368, Note_off_c, 1, 46, 64
3, 10380, Note_on_c, 1, 43, 107
3, 10428, Note_off_c, 1, 43, 64
3, 10440, Note_on_c, 1, 48, 107
3, 10488, Note_off_c, 1, 48, 64
3, 10500, Note_on_c, 1, 46, 107
3, 10548, Note_off_c, 1, 46, 64
3, 10560, Note_on_c, 1, 48, 107
3, 10608, Note_off_c, 1, 48, 64
3, 10620, Note_on_c, 1, 50, 107
3, 10668, Note_off_c, 1, 50, 64
3, 10680, Note_on_c, 1, 51, 107
3, 10728, Note_off_c, 1, 51, 64
3, 10740, Note_on_c, 1, 48, 107
3, 10788, Note_off_c, 1, 48, 64
3, 10800, Note_on_c, 1, 50, 107
3, 10848, Note_off_c, 1, 50, 64
3, 10860, Note_on_c, 1, 52, 107
3, 10908, Note_off_c, 1, 52, 64
3, 10920, Note_on_c, 1, 54, 107
3, 10968, Note_off_c, 1, 54, 64
3, 10980, Note_on_c, 1, 50, 107
3, 11028, Note_off_c, 1, 50, 64
3, 11040, Note_on_c, 1, 55, 107
3, 11136, Note_off_c, 1, 55, 64
3, 11160, Note_on_c, 1, 48, 107
3, 11256, Note_off_c, 1, 48, 64
3, 11280, Note_on_c, 1, 50, 107
3, 11376, Note_off_c, 1, 50, 64
3, 11400, Note_on_c, 1, 38, 107
3, 11496, Note_off_c, 1, 38, 64
3, 11520, Note_on_c, 1, 43, 107
3, 11712, Note_off_c, 1, 43, 64
3, 12300, Note_on_c, 1, 62, 107
3, 12324, Note_off_c, 1, 62, 64
3, 12330, Note_on_c, 1, 64, 107
3, 12354, Note_off_c, 1, 64, 64
3, 12360, Note_on_c, 1, 65, 107
3, 12408, Note_off_c, 1, 65, 64
3, 12420, Note_on_c, 1, 62, 107
3, 12468, Note_off_c, 1, 62, 64
3, 12480, Note_on_c, 1, 61, 107
3, 12528, Note_off_c, 1, 61, 64
3, 12540, Note_on_c, 1, 62, 107
3, 12588, Note_off_c, 1, 62, 64
3, 12600, Note_on_c, 1, 57, 107
3, 12648, Note_off_c, 1, 57, 64
3, 12660, Note_on_c, 1, 62, 107
3, 12708, Note_off_c, 1, 62, 64
3, 12720, Note_on_c, 1, 65, 107
3, 12768, Note_off_c, 1, 65, 64
3, 12780, Note_on_c, 1, 62, 107
3, 12828, Note_off_c, 1, 62, 64
3, 12840, Note_on_c, 1, 68, 107
3, 12888, Note_off_c, 1, 68, 64
3, 12900, Note_on_c, 1, 62, 107
3, 12948, Note_off_c, 1, 62, 64
3, 12960, Note_on_c, 1, 69, 107
3, 13050, Note_off_c, 1, 69, 64
3, 13080, Note_on_c, 1, 69, 107
3, 13170, Note_off_c, 1, 69, 64
3, 13200, Note_on_c, 1, 69, 107
3, 13290, Note_off_c, 1, 69, 64
3, 13320, Note_on_c, 1, 69, 107
3, 13416, Note_off_c, 1, 69, 64
3, 13440, Note_on_c, 1, 67, 107
3, 13530, Note_off_c, 1, 67, 64
3, 13560, Note_on_c, 1, 67, 107
3, 13650, Note_off_c, 1, 67, 64
3, 13680, Note_on_c, 1, 67, 107
3, 13776, Note_off_c, 1, 67, 64
3, 13800, Note_on_c, 1, 65, 107
3, 13890, Note_off_c, 1, 65, 64
3, 13920, Note_on_c, 1, 65, 107
3, 14010, Note_off_c, 1, 65, 64
3, 14100, Note_on_c, 1, 65, 107
3, 14148, Note_off_c, 1, 65, 64
3, 14160, Note_on_c, 1, 63, 107
3, 14208, Note_off_c, 1, 63, 64
3, 14220, Note_on_c, 1, 62, 107
3, 14268, Note_off_c, 1, 62, 64
3, 14280, Note_on_c, 1, 60, 107
3, 14328, Note_off_c, 1, 60, 64
3, 14340, Note_on_c, 1, 63, 107
3, 14388, Note_off_c, 1, 63, 64
3, 14400, Note_on_c, 1, 54, 107
3, 14496, Note_off_c, 1, 54, 64
3, 14520, Note_on_c, 1, 60, 107
3, 14616, Note_off_c, 1, 60, 64
3, 14640, Note_on_c, 1, 63, 107
3, 14736, Note_off_c, 1, 63, 64
3, 14760, Note_on_c, 1, 54, 107
3, 14856, Note_off_c, 1, 54, 64
3, 14880, Note_on_c, 1, 57, 107
3, 14976, Note_off_c, 1, 57, 64
3, 15000, Note_on_c, 1, 62, 107
3, 15096, Note_off_c, 1, 62, 64
3, 15180, Note_on_c, 1, 55, 107
3, 15204, Note_off_c, 1, 55, 64
3, 15210, Note_on_c, 1, 57, 107
3, 15234, Note_off_c, 1, 57, 64
3, 15240, Note_on_c, 1, 58, 107
3, 15288, Note_off_c, 1, 58, 64
3, 15300, Note_on_c, 1, 55, 107
3, 15348, Note_off_c, 1, 55, 64
3, 15360, Note_on_c, 1, 54, 107
3, 15408, Note_off_c, 1, 54, 64
3, 15420, Note_on_c, 1, 55, 107
3, 15468, Note_off_c, 1, 55, 64
3, 15480, Note_on_c, 1, 50, 107
3, 15528, Note_off_c, 1, 50, 64
3, 15540, Note_on_c, 1, 55, 107
3, 15588, Note_off_c, 1, 55, 64
3, 15600, Note_on_c, 1, 58, 107
3, 15648, Note_off_c, 1, 58, 64
3, 15660, Note_on_c, 1, 55, 107
3, 15708, Note_off_c, 1, 55, 64
3, 15720, Note_on_c, 1, 61, 107
3, 15768, Note_off_c, 1, 61, 64
3, 15780, Note_on_c, 1, 55, 107
3, 15828, Note_off_c, 1, 55, 64
3, 15840, Note_on_c, 1, 62, 107
3, 16032, Note_off_c, 1, 62, 64
3, 16200, Note_on_c, 1, 50, 107
3, 16392, Note_off_c, 1, 50, 64
3, 16680, Note_on_c, 1, 55, 107
3, 16776, Note_off_c, 1, 55, 64
3, 16800, Note_on_c, 1, 57, 107
3, 16896, Note_off_c, 1, 57, 64
3, 16920, Note_on_c, 1, 59, 107
3, 17016, Note_off_c, 1, 59, 64
3, 17040, Note_on_c, 1, 57, 107
3, 17136, Note_off_c, 1, 57, 64
3, 17160, Note_on_c, 1, 55, 107
3, 17256, Note_off_c, 1, 55, 64
3, 17280, Note_on_c, 1, 60, 107
3, 17472, Note_off_c, 1, 60, 64
3, 17640, Note_on_c, 1, 48, 107
3, 17832, Note_off_c, 1, 48, 64
3, 18000, Note_on_c, 1, 60, 107
3, 18120, Note_on_c, 1, 53, 107
3, 18216, Note_off_c, 1, 53, 64
3, 18240, Note_on_c, 1, 55, 107
3, 18336, Note_off_c, 1, 55, 64
3, 18360, Note_on_c, 1, 57, 107
3, 18456, Note_off_c, 1, 57, 64
3, 18480, Note_on_c, 1, 55, 107
3, 18576, Note_off_c, 1, 55, 64
3, 18600, Note_on_c, 1, 53, 107
3, 18648, Note_off_c, 1, 60, 64
3, 18696, Note_off_c, 1, 53, 64
3, 18720, Note_on_c, 1, 58, 107
3, 18720, Note_on_c, 1, 58, 107
3, 18768, Note_off_c, 1, 58, 64
3, 18780, Note_on_c, 1, 60, 107
3, 18816, Note_off_c, 1, 58, 64
3, 18828, Note_off_c, 1, 60, 64
3, 18840, Note_on_c, 1, 62, 107
3, 18888, Note_off_c, 1, 62, 64
3, 18900, Note_on_c, 1, 58, 107
3, 18948, Note_off_c, 1, 58, 64
3, 18960, Note_on_c, 1, 57, 107
3, 19008, Note_off_c, 1, 57, 64
3, 19020, Note_on_c, 1, 58, 107
3, 19068, Note_off_c, 1, 58, 64
3, 19080, Note_on_c, 1, 53, 107
3, 19128, Note_off_c, 1, 53, 64
3, 19140, Note_on_c, 1, 58, 107
3, 19188, Note_off_c, 1, 58, 64
3, 19200, Note_on_c, 1, 62, 107
3, 19248, Note_off_c, 1, 62, 64
3, 19260, Note_on_c, 1, 58, 107
3, 19308, Note_off_c, 1, 58, 64
3, 19320, Note_on_c, 1, 64, 107
3, 19368, Note_off_c, 1, 64, 64
3, 19380, Note_on_c, 1, 58, 107
3, 19428, Note_off_c, 1, 58, 64
3, 19440, Note_on_c, 1, 65, 107
3, 19632, Note_off_c, 1, 65, 64
3, 19800, Note_on_c, 1, 53, 107
3, 19992, Note_off_c, 1, 53, 64
3, 20280, Note_on_c, 1, 58, 107
3, 20376, Note_off_c, 1, 58, 64
3, 20400, Note_on_c, 1, 60, 107
3, 20496, Note_off_c, 1, 60, 64
3, 20520, Note_on_c, 1, 62, 107
3, 20616, Note_off_c, 1, 62, 64
3, 20640, Note_on_c, 1, 60, 107
3, 20736, Note_off_c, 1, 60, 64
3, 20760, Note_on_c, 1, 58, 107
3, 20856, Note_off_c, 1, 58, 64
3, 20880, Note_on_c, 1, 63, 107
3, 21072, Note_off_c, 1, 63, 64
3, 21240, Note_on_c, 1, 51, 107
3, 21432, Note_off_c, 1, 51, 64
3, 21720, Note_on_c, 1, 57, 107
3, 21816, Note_off_c, 1, 57, 64
3, 21840, Note_on_c, 1, 58, 107
3, 21936, Note_off_c, 1, 58, 64
3, 21960, Note_on_c, 1, 60, 107
3, 22056, Note_off_c, 1, 60, 64
3, 22080, Note_on_c, 1, 58, 107
3, 22176, Note_off_c, 1, 58, 64
3, 22200, Note_on_c, 1, 57, 107
3, 22296, Note_off_c, 1, 57, 64
3, 22320, Note_on_c, 1, 62, 107
3, 22368, Note_off_c, 1, 62, 64
3, 22380, Note_on_c, 1, 60, 107
3, 22428, Note_off_c, 1, 60, 64
3, 22440, Note_on_c, 1, 58, 107
3, 22488, Note_off_c, 1, 58, 64
3, 22500, Note_on_c, 1, 60, 107
3, 22548, Note_off_c, 1, 60, 64
3, 22560, Note_on_c, 1, 57, 107
3, 22608, Note_off_c, 1, 57, 64
3, 22620, Note_on_c, 1, 58, 107
3, 22668, Note_off_c, 1, 58, 64
3, 22680, Note_on_c, 1, 55, 107
3, 22728, Note_off_c, 1, 55, 64
3, 22740, Note_on_c, 1, 58, 107
3, 22788, Note_off_c, 1, 58, 64
3, 22800, Note_on_c, 1, 53, 107
3, 22848, Note_off_c, 1, 53, 64
3, 22860, Note_on_c, 1, 58, 107
3, 22908, Note_off_c, 1, 58, 64
3, 22920, Note_on_c, 1, 51, 107
3, 22968, Note_off_c, 1, 51, 64
3, 22980, Note_on_c, 1, 58, 107
3, 23028, Note_off_c, 1, 58, 64
3, 23040, Note_on_c, 1, 50, 107
3, 23088, Note_off_c, 1, 50, 64
3, 23100, Note_on_c, 1, 58, 107
3, 23148, Note_off_c, 1, 58, 64
3, 23160, Note_on_c, 1, 48, 107
3, 23208, Note_off_c, 1, 48, 64
3, 23220, Note_on_c, 1, 58, 107
3, 23268, Note_off_c, 1, 58, 64
3, 23280, Note_on_c, 1, 46, 107
3, 23328, Note_off_c, 1, 46, 64
3, 23340, Note_on_c, 1, 58, 107
3, 23388, Note_off_c, 1, 58, 64
3, 23400, Note_on_c, 1, 51, 107
3, 23496, Note_off_c, 1, 51, 64
3, 23520, Note_on_c, 1, 53, 107
3, 23616, Note_off_c, 1, 53, 64
3, 23640, Note_on_c, 1, 41, 107
3, 23736, Note_off_c, 1, 41, 64
3, 23760, Note_on_c, 1, 46, 107
3, 23952, Note_off_c, 1, 46, 64
3, 24600, Note_on_c, 1, 65, 107
3, 24696, Note_off_c, 1, 65, 64
3, 24720, Note_on_c, 1, 65, 107
3, 24840, Note_on_c, 1, 62, 107
3, 24936, Note_off_c, 1, 65, 64
3, 24936, Note_off_c, 1, 62, 64
3, 24960, Note_on_c, 1, 65, 107
3, 24960, Note_on_c, 1, 62, 107
3, 24960, Note_on_c, 1, 58, 107
3, 25056, Note_off_c, 1, 58, 64
3, 25056, Note_off_c, 1, 62, 64
3, 25056, Note_off_c, 1, 65, 64
3, 25080, Note_on_c, 1, 62, 107
3, 25080, Note_on_c, 1, 58, 107
3, 25080, Note_on_c, 1, 65, 107
3, 25176, Note_off_c, 1, 65, 64
3, 25176, Note_off_c, 1, 58, 64
3, 25176, Note_off_c, 1, 62, 64
3, 25200, Note_on_c, 1, 60, 107
3, 25200, Note_on_c, 1, 65, 107
3, 25200, Note_on_c, 1, 57, 107
3, 25296, Note_off_c, 1, 57, 64
3, 25296, Note_off_c, 1, 65, 64
3, 25296, Note_off_c, 1, 60, 64
3, 25320, Note_on_c, 1, 57, 107
3, 25320, Note_on_c, 1, 60, 107
3, 25320, Note_on_c, 1, 53, 107
3, 25416, Note_off_c, 1, 53, 64
3, 25416, Note_off_c, 1, 60, 64
3, 25416, Note_off_c, 1, 57, 64
3, 25440, Note_on_c, 1, 60, 107
3, 25440, Note_on_c, 1, 53, 107
3, 25440, Note_on_c, 1, 57, 107
3, 25536, Note_off_c, 1, 57, 64
3, 25536, Note_off_c, 1, 53, 64
3, 25536, Note_off_c, 1, 60, 64
3, 25560, Note_on_c, 1, 53, 107
3, 25560, Note_on_c, 1, 58, 107
3, 25560, Note_on_c, 1, 50, 107
3, 25656, Note_off_c, 1, 50, 64
3, 25656, Note_off_c, 1, 58, 64
3, 25656, Note_off_c, 1, 53, 64
3, 25680, Note_on_c, 1, 50, 107
3, 25680, Note_on_c, 1, 53, 107
3, 25680, Note_on_c, 1, 46, 107
3, 25776, Note_off_c, 1, 46, 64
3, 25776, Note_off_c, 1, 53, 64
3, 25776, Note_off_c, 1, 50, 64
3, 25800, Note_on_c, 1, 50, 107
3, 25800, Note_on_c, 1, 46, 107
3, 25800, Note_on_c, 1, 53, 107
3, 25896, Note_off_c, 1, 53, 64
3, 25896, Note_off_c, 1, 46, 64
3, 25896, Note_off_c, 1, 50, 64
3, 25920, Note_on_c, 1, 45, 107
3, 25920, Note_on_c, 1, 48, 107
3, 25920, Note_on_c, 1, 53, 107
3, 25920, Note_on_c, 1, 41, 107
3, 26112, Note_off_c, 1, 41, 64
3, 26112, Note_off_c, 1, 53, 64
3, 26112, Note_off_c, 1, 48, 64
3, 26112, Note_off_c, 1, 45, 64
3, 26340, Note_on_c, 1, 72, 107
3, 26388, Note_off_c, 1, 72, 64
3, 26400, Note_on_c, 1, 70, 107
3, 26448, Note_off_c, 1, 70, 64
3, 26460, Note_on_c, 1, 69, 107
3, 26508, Note_off_c, 1, 69, 64
3, 26520, Note_on_c, 1, 67, 107
3, 26568, Note_off_c, 1, 67, 64
3, 26580, Note_on_c, 1, 65, 107
3, 26628, Note_off_c, 1, 65, 64
3, 26640, Note_on_c, 1, 63, 107
3, 26688, Note_off_c, 1, 63, 64
3, 26700, Note_on_c, 1, 65, 107
3, 26748, Note_off_c, 1, 65, 64
3, 26760, Note_on_c, 1, 63, 107
3, 26808, Note_off_c, 1, 63, 64
3, 26820, Note_on_c, 1, 62, 107
3, 26868, Note_off_c, 1, 62, 64
3, 26880, Note_on_c, 1, 60, 107
3, 26928, Note_off_c, 1, 60, 64
3, 26940, Note_on_c, 1, 58, 107
3, 26988, Note_off_c, 1, 58, 64
3, 27000, Note_on_c, 1, 57, 107
3, 27048, Note_off_c, 1, 57, 64
3, 27060, Note_on_c, 1, 70, 107
3, 27108, Note_off_c, 1, 70, 64
3, 27120, Note_on_c, 1, 69, 107
3, 27168, Note_off_c, 1, 69, 64
3, 27180, Note_on_c, 1, 67, 107
3, 27228, Note_off_c, 1, 67, 64
3, 27240, Note_on_c, 1, 65, 107
3, 27288, Note_off_c, 1, 65, 64
3, 27300, Note_on_c, 1, 63, 107
3, 27348, Note_off_c, 1, 63, 64
3, 27360, Note_on_c, 1, 62, 107
3, 27408, Note_off_c, 1, 62, 64
3, 27420, Note_on_c, 1, 63, 107
3, 27468, Note_off_c, 1, 63, 64
3, 27480, Note_on_c, 1, 62, 107
3, 27528, Note_off_c, 1, 62, 64
3, 27540, Note_on_c, 1, 60, 107
3, 27588, Note_off_c, 1, 60, 64
3, 27600, Note_on_c, 1, 58, 107
3, 27648, Note_off_c, 1, 58, 64
3, 27660, Note_on_c, 1, 57, 107
3, 27708, Note_off_c, 1, 57, 64
3, 27720, Note_on_c, 1, 55, 107
3, 27768, Note_off_c, 1, 55, 64
3, 27780, Note_on_c, 1, 69, 107
3, 27828, Note_off_c, 1, 69, 64
3, 27840, Note_on_c, 1, 67, 107
3, 27888, Note_off_c, 1, 67, 64
3, 27900, Note_on_c, 1, 65, 107
3, 27948, Note_off_c, 1, 65, 64
3, 27960, Note_on_c, 1, 63, 107
3, 28008, Note_off_c, 1, 63, 64
3, 28020, Note_on_c, 1, 62, 107
3, 28068, Note_off_c, 1, 62, 64
3, 28080, Note_on_c, 1, 60, 107
3, 28128, Note_off_c, 1, 60, 64
3, 28140, Note_on_c, 1, 62, 107
3, 28188, Note_off_c, 1, 62, 64
3, 28200, Note_on_c, 1, 60, 107
3, 28248, Note_off_c, 1, 60, 64
3, 28260, Note_on_c, 1, 58, 107
3, 28308, Note_off_c, 1, 58, 64
3, 28320, Note_on_c, 1, 57, 107
3, 28368, Note_off_c, 1, 57, 64
3, 28380, Note_on_c, 1, 55, 107
3, 28428, Note_off_c, 1, 55, 64
3, 28440, Note_on_c, 1, 53, 107
3, 28488, Note_off_c, 1, 53, 64
3, 28500, Note_on_c, 1, 55, 107
3, 28548, Note_off_c, 1, 55, 64
3, 28560, Note_on_c, 1, 53, 107
3, 28608, Note_off_c, 1, 53, 64
3, 28620, Note_on_c, 1, 51, 107
3, 28668, Note_off_c, 1, 51, 64
3, 28680, Note_on_c, 1, 50, 107
3, 28728, Note_off_c, 1, 50, 64
3, 28740, Note_on_c, 1, 48, 107
3, 28788, Note_off_c, 1, 48, 64
3, 28800, Note_on_c, 1, 46, 107
3, 28848, Note_off_c, 1, 46, 64
3, 28860, Note_on_c, 1, 48, 107
3, 28908, Note_off_c, 1, 48, 64
3, 28920, Note_on_c, 1, 46, 107
3, 28968, Note_off_c, 1, 46, 64
3, 28980, Note_on_c, 1, 45, 107
3, 29028, Note_off_c, 1, 45, 64
3, 29040, Note_on_c, 1, 43, 107
3, 29088, Note_off_c, 1, 43, 64
3, 29100, Note_on_c, 1, 41, 107
3, 29148, Note_off_c, 1, 41, 64
3, 29160, Note_on_c, 1, 39, 107
3, 29256, Note_off_c, 1, 39, 64
3, 29280, Note_on_c, 1, 51, 107
3, 29370, Note_off_c, 1, 51, 64
3, 29400, Note_on_c, 1, 51, 107
3, 29490, Note_off_c, 1, 51, 64
3, 29520, Note_on_c, 1, 57, 107
3, 29616, Note_off_c, 1, 57, 64
3, 29640, Note_on_c, 1, 45, 107
3, 29730, Note_off_c, 1, 45, 64
3, 29760, Note_on_c, 1, 45, 107
3, 29850, Note_off_c, 1, 45, 64
3, 29880, Note_on_c, 1, 38, 107
3, 29976, Note_off_c, 1, 38, 64
3, 30000, Note_on_c, 1, 50, 107
3, 30090, Note_off_c, 1, 50, 64
3, 30120, Note_on_c, 1, 50, 107
3, 30210, Note_off_c, 1, 50, 64
3, 30240, Note_on_c, 1, 55, 107
3, 30336, Note_off_c, 1, 55, 64
3, 30360, Note_on_c, 1, 43, 107
3, 30450, Note_off_c, 1, 43, 64
3, 30480, Note_on_c, 1, 43, 107
3, 30570, Note_off_c, 1, 43, 64
3, 30600, Note_on_c, 1, 36, 107
3, 30696, Note_off_c, 1, 36, 64
3, 30720, Note_on_c, 1, 48, 107
3, 30810, Note_off_c, 1, 48, 64
3, 30840, Note_on_c, 1, 48, 107
3, 30930, Note_off_c, 1, 48, 64
3, 30960, Note_on_c, 1, 53, 107
3, 31152, Note_off_c, 1, 53, 64
3, 31680, Note_on_c, 1, 57, 107
3, 31728, Note_off_c, 1, 57, 64
3, 31740, Note_on_c, 1, 58, 107
3, 31788, Note_off_c, 1, 58, 64
3, 31800, Note_on_c, 1, 57, 107
3, 31848, Note_off_c, 1, 57, 64
3, 31860, Note_on_c, 1, 55, 107
3, 31908, Note_off_c, 1, 55, 64
3, 31920, Note_on_c, 1, 53, 107
3, 31968, Note_off_c, 1, 53, 64
3, 31980, Note_on_c, 1, 51, 107
3, 32028, Note_off_c, 1, 51, 64
3, 32040, Note_on_c, 1, 50, 107
3, 32088, Note_off_c, 1, 50, 64
3, 32100, Note_on_c, 1, 48, 107
3, 32148, Note_off_c, 1, 48, 64
3, 32160, Note_on_c, 1, 46, 107
3, 32208, Note_off_c, 1, 46, 64
3, 32220, Note_on_c, 1, 44, 107
3, 32268, Note_off_c, 1, 44, 64
3, 32280, Note_on_c, 1, 43, 107
3, 32328, Note_off_c, 1, 43, 64
3, 32340, Note_on_c, 1, 41, 107
3, 32388, Note_off_c, 1, 41, 64
3, 32400, Note_on_c, 1, 39, 107
3, 32496, Note_off_c, 1, 39, 64
3, 32520, Note_on_c, 1, 58, 107
3, 32568, Note_off_c, 1, 58, 64
3, 32580, Note_on_c, 1, 56, 107
3, 32628, Note_off_c, 1, 56, 64
3, 32640, Note_on_c, 1, 55, 107
3, 32688, Note_off_c, 1, 55, 64
3, 32700, Note_on_c, 1, 53, 107
3, 32748, Note_off_c, 1, 53, 64
3, 32760, Note_on_c, 1, 52, 107
3, 32808, Note_off_c, 1, 52, 64
3, 32820, Note_on_c, 1, 50, 107
3, 32868, Note_off_c, 1, 50, 64
3, 32880, Note_on_c, 1, 48, 107
3, 32928, Note_off_c, 1, 48, 64
3, 32940, Note_on_c, 1, 46, 107
3, 32988, Note_off_c, 1, 46, 64
3, 33000, Note_on_c, 1, 45, 107
3, 33048, Note_off_c, 1, 45, 64
3, 33060, Note_on_c, 1, 43, 107
3, 33108, Note_off_c, 1, 43, 64
3, 33120, Note_on_c, 1, 41, 107
3, 33216, Note_off_c, 1, 41, 64
3, 33240, Note_on_c, 1, 63, 107
3, 33288, Note_off_c, 1, 63, 64
3, 33300, Note_on_c, 1, 62, 107
3, 33348, Note_off_c, 1, 62, 64
3, 33360, Note_on_c, 1, 60, 107
3, 33408, Note_off_c, 1, 60, 64
3, 33420, Note_on_c, 1, 58, 107
3, 33468, Note_off_c, 1, 58, 64
3, 33480, Note_on_c, 1, 57, 107
3, 33528, Note_off_c, 1, 57, 64
3, 33540, Note_on_c, 1, 55, 107
3, 33588, Note_off_c, 1, 55, 64
3, 33600, Note_on_c, 1, 53, 107
3, 33648, Note_off_c, 1, 53, 64
3, 33660, Note_on_c, 1, 51, 107
3, 33708, Note_off_c, 1, 51, 64
3, 33720, Note_on_c, 1, 50, 107
3, 33768, Note_off_c, 1, 50, 64
3, 33780, Note_on_c, 1, 48, 107
3, 33828, Note_off_c, 1, 48, 64
3, 33840, Note_on_c, 1, 46, 107
3, 33888, Note_off_c, 1, 46, 64
3, 33900, Note_on_c, 1, 45, 107
3, 33948, Note_off_c, 1, 45, 64
3, 33960, Note_on_c, 1, 46, 107
3, 34008, Note_off_c, 1, 46, 64
3, 34020, Note_on_c, 1, 48, 107
3, 34068, Note_off_c, 1, 48, 64
3, 34080, Note_on_c, 1, 50, 107
3, 34128, Note_off_c, 1, 50, 64
3, 34140, Note_on_c, 1, 46, 107
3, 34188, Note_off_c, 1, 46, 64
3, 34200, Note_on_c, 1, 51, 107
3, 34248, Note_off_c, 1, 51, 64
3, 34260, Note_on_c, 1, 50, 107
3, 34308, Note_off_c, 1, 50, 64
3, 34320, Note_on_c, 1, 51, 107
3, 34368, Note_off_c, 1, 51, 64
3, 34380, Note_on_c, 1, 53, 107
3, 34428, Note_off_c, 1, 53, 64
3, 34440, Note_on_c, 1, 55, 107
3, 34488, Note_off_c, 1, 55, 64
3, 34500, Note_on_c, 1, 51, 107
3, 34548, Note_off_c, 1, 51, 64
3, 34560, Note_on_c, 1, 53, 107
3, 34608, Note_off_c, 1, 53, 64
3, 34620, Note_on_c, 1, 55, 107
3, 34668, Note_off_c, 1, 55, 64
3, 34680, Note_on_c, 1, 57, 107
3, 34728, Note_off_c, 1, 57, 64
3, 34740, Note_on_c, 1, 53, 107
3, 34788, Note_off_c, 1, 53, 64
3, 34800, Note_on_c, 1, 58, 107
3, 34896, Note_off_c, 1, 58, 64
3, 34920, Note_on_c, 1, 51, 107
3, 35016, Note_off_c, 1, 51, 64
3, 35040, Note_on_c, 1, 53, 107
3, 35136, Note_off_c, 1, 53, 64
3, 35160, Note_on_c, 1, 41, 107
3, 35256, Note_off_c, 1, 41, 64
3, 35280, Note_on_c, 1, 46, 107
3, 35376, Note_off_c, 1, 46, 64
3, 35640, Note_on_c, 1, 62, 107
3, 35736, Note_off_c, 1, 62, 64
3, 35760, Note_on_c, 1, 58, 107
3, 35850, Note_off_c, 1, 58, 64
3, 35880, Note_on_c, 1, 58, 107
3, 35970, Note_off_c, 1, 58, 64
3, 36000, Note_on_c, 1, 57, 107
3, 36048, Note_off_c, 1, 57, 64
3, 36060, Note_on_c, 1, 55, 107
3, 36108, Note_off_c, 1, 55, 64
3, 36120, Note_on_c, 1, 57, 107
3, 36168, Note_off_c, 1, 57, 64
3, 36180, Note_on_c, 1, 53, 107
3, 36228, Note_off_c, 1, 53, 64
3, 36240, Note_on_c, 1, 52, 107
3, 36288, Note_off_c, 1, 52, 64
3, 36300, Note_on_c, 1, 53, 107
3, 36348, Note_off_c, 1, 53, 64
3, 36360, Note_on_c, 1, 48, 107
3, 36408, Note_off_c, 1, 48, 64
3, 36420, Note_on_c, 1, 53, 107
3, 36468, Note_off_c, 1, 53, 64
3, 36480, Note_on_c, 1, 57, 107
3, 36528, Note_off_c, 1, 57, 64
3, 36540, Note_on_c, 1, 53, 107
3, 36588, Note_off_c, 1, 53, 64
3, 36600, Note_on_c, 1, 59, 107
3, 36648, Note_off_c, 1, 59, 64
3, 36660, Note_on_c, 1, 53, 107
3, 36708, Note_off_c, 1, 53, 64
3, 36720, Note_on_c, 1, 60, 107
3, 36810, Note_off_c, 1, 60, 64
3, 36840, Note_on_c, 1, 55, 107
3, 36930, Note_off_c, 1, 55, 64
3, 36960, Note_on_c, 1, 55, 107
3, 37050, Note_off_c, 1, 55, 64
3, 37080, Note_on_c, 1, 51, 107
3, 37176, Note_off_c, 1, 51, 64
3, 37200, Note_on_c, 1, 48, 107
3, 37290, Note_off_c, 1, 48, 64
3, 37320, Note_on_c, 1, 48, 107
3, 37410, Note_off_c, 1, 48, 64
3, 37440, Note_on_c, 1, 46, 107
3, 37488, Note_off_c, 1, 46, 64
3, 37500, Note_on_c, 1, 45, 107
3, 37548, Note_off_c, 1, 45, 64
3, 37560, Note_on_c, 1, 46, 107
3, 37608, Note_off_c, 1, 46, 64
3, 37620, Note_on_c, 1, 43, 107
3, 37668, Note_off_c, 1, 43, 64
3, 37680, Note_on_c, 1, 42, 107
3, 37728, Note_off_c, 1, 42, 64
3, 37740, Note_on_c, 1, 43, 107
3, 37788, Note_off_c, 1, 43, 64
3, 37800, Note_on_c, 1, 38, 107
3, 37848, Note_off_c, 1, 38, 64
3, 37860, Note_on_c, 1, 43, 107
3, 37908, Note_off_c, 1, 43, 64
3, 37920, Note_on_c, 1, 46, 107
3, 37968, Note_off_c, 1, 46, 64
3, 37980, Note_on_c, 1, 43, 107
3, 38028, Note_off_c, 1, 43, 64
3, 38040, Note_on_c, 1, 49, 107
3, 38088, Note_off_c, 1, 49, 64
3, 38100, Note_on_c, 1, 43, 107
3, 38148, Note_off_c, 1, 43, 64
3, 38160, Note_on_c, 1, 50, 107
3, 38208, Note_off_c, 1, 50, 64
3, 38220, Note_on_c, 1, 52, 107
3, 38268, Note_off_c, 1, 52, 64
3, 38280, Note_on_c, 1, 53, 107
3, 38328, Note_off_c, 1, 53, 64
3, 38340, Note_on_c, 1, 50, 107
3, 38388, Note_off_c, 1, 50, 64
3, 38400, Note_on_c, 1, 49, 107
3, 38448, Note_off_c, 1, 49, 64
3, 38460, Note_on_c, 1, 50, 107
3, 38508, Note_off_c, 1, 50, 64
3, 38520, Note_on_c, 1, 45, 107
3, 38568, Note_off_c, 1, 45, 64
3, 38580, Note_on_c, 1, 50, 107
3, 38628, Note_off_c, 1, 50, 64
3, 38640, Note_on_c, 1, 53, 107
3, 38688, Note_off_c, 1, 53, 64
3, 38700, Note_on_c, 1, 50, 107
3, 38748, Note_off_c, 1, 50, 64
3, 38760, Note_on_c, 1, 56, 107
3, 38808, Note_off_c, 1, 56, 64
3, 38820, Note_on_c, 1, 50, 107
3, 38868, Note_off_c, 1, 50, 64
3, 39360, Note_on_c, 1, 62, 107
3, 39456, Note_off_c, 1, 62, 64
3, 39480, Note_on_c, 1, 62, 107
3, 39576, Note_off_c, 1, 62, 64
3, 39600, Note_on_c, 1, 61, 107
3, 39648, Note_off_c, 1, 61, 64
3, 39660, Note_on_c, 1, 59, 107
3, 39708, Note_off_c, 1, 59, 64
3, 39720, Note_on_c, 1, 61, 107
3, 39720, Note_on_c, 1, 57, 107
3, 39768, Note_off_c, 1, 61, 64
3, 39780, Note_on_c, 1, 62, 107
3, 39816, Note_off_c, 1, 57, 64
3, 39828, Note_off_c, 1, 62, 64
3, 39840, Note_on_c, 1, 57, 107
3, 39840, Note_on_c, 1, 59, 107
3, 39888, Note_off_c, 1, 59, 64
3, 39900, Note_on_c, 1, 61, 107
3, 39936, Note_off_c, 1, 57, 64
3, 39948, Note_off_c, 1, 61, 64
3, 39960, Note_on_c, 1, 57, 107
3, 39960, Note_on_c, 1, 53, 107
3, 40056, Note_off_c, 1, 53, 64
3, 40056, Note_off_c, 1, 57, 64
3, 40080, Note_on_c, 1, 57, 107
3, 40080, Note_on_c, 1, 53, 107
3, 40080, Note_on_c, 1, 50, 107
3, 40176, Note_off_c, 1, 50, 64
3, 40176, Note_off_c, 1, 53, 64
3, 40176, Note_off_c, 1, 57, 64
3, 40200, Note_on_c, 1, 53, 107
3, 40200, Note_on_c, 1, 50, 107
3, 40200, Note_on_c, 1, 57, 107
3, 40296, Note_off_c, 1, 57, 64
3, 40296, Note_off_c, 1, 50, 64
3, 40296, Note_off_c, 1, 53, 64
3, 40320, Note_on_c, 1, 52, 107
3, 40320, Note_on_c, 1, 57, 107
3, 40320, Note_on_c, 1, 49, 107
3, 40416, Note_off_c, 1, 49, 64
3, 40416, Note_off_c, 1, 57, 64
3, 40416, Note_off_c, 1, 52, 64
3, 40440, Note_on_c, 1, 49, 107
3, 40440, Note_on_c, 1, 52, 107
3, 40440, Note_on_c, 1, 45, 107
3, 40536, Note_off_c, 1, 45, 64
3, 40536, Note_off_c, 1, 52, 64
3, 40536, Note_off_c, 1, 49, 64
3, 40560, Note_on_c, 1, 49, 107
3, 40560, Note_on_c, 1, 45, 107
3, 40560, Note_on_c, 1, 52, 107
3, 40656, Note_off_c, 1, 52, 64
3, 40656, Note_off_c, 1, 45, 64
3, 40656, Note_off_c, 1, 49, 64
3, 40680, Note_on_c, 1, 50, 107
3, 40680, Note_on_c, 1, 45, 107
3, 40680, Note_on_c, 1, 41, 107
3, 40776, Note_off_c, 1, 41, 64
3, 40776, Note_off_c, 1, 45, 64
3, 40776, Note_off_c, 1, 50, 64
3, 40800, Note_on_c, 1, 41, 107
3, 40800, Note_on_c, 1, 45, 107
3, 40800, Note_on_c, 1, 38, 107
3, 40896, Note_off_c, 1, 38, 64
3, 40896, Note_off_c, 1, 45, 64
3, 40896, Note_off_c, 1, 41, 64
3, 40920, Note_on_c, 1, 41, 107
3, 40920, Note_on_c, 1, 38, 107
3, 40920, Note_on_c, 1, 45, 107
3, 41016, Note_off_c, 1, 45, 64
3, 41016, Note_off_c, 1, 38, 64
3, 41016, Note_off_c, 1, 41, 64
3, 41040, Note_on_c, 1, 45, 107
3, 41040, Note_on_c, 1, 40, 107
3, 41040, Note_on_c, 1, 33, 107
3, 41040, Note_on_c, 1, 37, 107
3, 41136, Note_off_c, 1, 37, 64
3, 41136, Note_off_c, 1, 33, 64
3, 41136, Note_off_c, 1, 40, 64
3, 41136, Note_off_c, 1, 45, 64
3, 42120, Note_on_c, 1, 60, 107
3, 42168, Note_off_c, 1, 60, 64
3, 42180, Note_on_c, 1, 62, 107
3, 42228, Note_off_c, 1, 62, 64
3, 42240, Note_on_c, 1, 60, 107
3, 42288, Note_off_c, 1, 60, 64
3, 42300, Note_on_c, 1, 58, 107
3, 42348, Note_off_c, 1, 58, 64
3, 42360, Note_on_c, 1, 57, 107
3, 42408, Note_off_c, 1, 57, 64
3, 42420, Note_on_c, 1, 55, 107
3, 42468, Note_off_c, 1, 55, 64
3, 42480, Note_on_c, 1, 53, 107
3, 42528, Note_off_c, 1, 53, 64
3, 42540, Note_on_c, 1, 55, 107
3, 42588, Note_off_c, 1, 55, 64
3, 42600, Note_on_c, 1, 53, 107
3, 42648, Note_off_c, 1, 53, 64
3, 42660, Note_on_c, 1, 52, 107
3, 42708, Note_off_c, 1, 52, 64
3, 42720, Note_on_c, 1, 50, 107
3, 42768, Note_off_c, 1, 50, 64
3, 42780, Note_on_c, 1, 48, 107
3, 42828, Note_off_c, 1, 48, 64
3, 42840, Note_on_c, 1, 46, 107
3, 42888, Note_off_c, 1, 46, 64
3, 42900, Note_on_c, 1, 48, 107
3, 42948, Note_off_c, 1, 48, 64
3, 42960, Note_on_c, 1, 46, 107
3, 43008, Note_off_c, 1, 46, 64
3, 43020, Note_on_c, 1, 45, 107
3, 43068, Note_off_c, 1, 45, 64
3, 43080, Note_on_c, 1, 43, 107
3, 43128, Note_off_c, 1, 43, 64
3, 43140, Note_on_c, 1, 41, 107
3, 43188, Note_off_c, 1, 41, 64
3, 43200, Note_on_c, 1, 40, 107
3, 43248, Note_off_c, 1, 40, 64
3, 43260, Note_on_c, 1, 38, 107
3, 43308, Note_off_c, 1, 38, 64
3, 43320, Note_on_c, 1, 40, 107
3, 43368, Note_off_c, 1, 40, 64
3, 43380, Note_on_c, 1, 41, 107
3, 43428, Note_off_c, 1, 41, 64
3, 43440, Note_on_c, 1, 43, 107
3, 43488, Note_off_c, 1, 43, 64
3, 43500, Note_on_c, 1, 40, 107
3, 43548, Note_off_c, 1, 40, 64
3, 43560, Note_on_c, 1, 45, 107
3, 43608, Note_off_c, 1, 45, 64
3, 43620, Note_on_c, 1, 43, 107
3, 43668, Note_off_c, 1, 43, 64
3, 43680, Note_on_c, 1, 45, 107
3, 43728, Note_off_c, 1, 45, 64
3, 43740, Note_on_c, 1, 47, 107
3, 43788, Note_off_c, 1, 47, 64
3, 43800, Note_on_c, 1, 49, 107
3, 43848, Note_off_c, 1, 49, 64
3, 43860, Note_on_c, 1, 45, 107
3, 43908, Note_off_c, 1, 45, 64
3, 43920, Note_on_c, 1, 58, 107
3, 44016, Note_off_c, 1, 58, 64
3, 44040, Note_on_c, 1, 49, 107
3, 44136, Note_off_c, 1, 49, 64
3, 44160, Note_on_c, 1, 50, 107
3, 44256, Note_off_c, 1, 50, 64
3, 44280, Note_on_c, 1, 55, 107
3, 44376, Note_off_c, 1, 55, 64
3, 44400, Note_on_c, 1, 57, 107
3, 44496, Note_off_c, 1, 57, 64
3, 44520, Note_on_c, 1, 45, 107
3, 44616, Note_off_c, 1, 45, 64
3, 44640, Note_on_c, 1, 38, 107
3, 44832, Note_off_c, 1, 38, 64
3, 45420, Note_on_c, 1, 57, 107
3, 45444, Note_off_c, 1, 57, 64
3, 45450, Note_on_c, 1, 59, 107
3, 45474, Note_off_c, 1, 59, 64
3, 45480, Note_on_c, 1, 60, 107
3, 45528, Note_off_c, 1, 60, 64
3, 45540, Note_on_c, 1, 57, 107
3, 45588, Note_off_c, 1, 57, 64
3, 45600, Note_on_c, 1, 56, 107
3, 45648, Note_off_c, 1, 56, 64
3, 45660, Note_on_c, 1, 57, 107
3, 45708, Note_off_c, 1, 57, 64
3, 45720, Note_on_c, 1, 52, 107
3, 45768, Note_off_c, 1, 52, 64
3, 45780, Note_on_c, 1, 57, 107
3, 45828, Note_off_c, 1, 57, 64
3, 45840, Note_on_c, 1, 60, 107
3, 45888, Note_off_c, 1, 60, 64
3, 45900, Note_on_c, 1, 57, 107
3, 45948, Note_off_c, 1, 57, 64
3, 45960, Note_on_c, 1, 61, 107
3, 46008, Note_off_c, 1, 61, 64
3, 46020, Note_on_c, 1, 57, 107
3, 46068, Note_off_c, 1, 57, 64
3, 46080, Note_on_c, 1, 64, 107
3, 46170, Note_off_c, 1, 64, 64
3, 46200, Note_on_c, 1, 64, 107
3, 46290, Note_off_c, 1, 64, 64
3, 46320, Note_on_c, 1, 64, 107
3, 46410, Note_off_c, 1, 64, 64
3, 46440, Note_on_c, 1, 64, 107
3, 46536, Note_off_c, 1, 64, 64
3, 46560, Note_on_c, 1, 62, 107
3, 46650, Note_off_c, 1, 62, 64
3, 46680, Note_on_c, 1, 62, 107
3, 46770, Note_off_c, 1, 62, 64
3, 46800, Note_on_c, 1, 62, 107
3, 46896, Note_off_c, 1, 62, 64
3, 46920, Note_on_c, 1, 60, 107
3, 47010, Note_off_c, 1, 60, 64
3, 47040, Note_on_c, 1, 60, 107
3, 47130, Note_off_c, 1, 60, 64
3, 47220, Note_on_c, 1, 60, 107
3, 47268, Note_off_c, 1, 60, 64
3, 47280, Note_on_c, 1, 58, 107
3, 47328, Note_off_c, 1, 58, 64
3, 47340, Note_on_c, 1, 57, 107
3, 47388, Note_off_c, 1, 57, 64
3, 47400, Note_on_c, 1, 55, 107
3, 47448, Note_off_c, 1, 55, 64
3, 47460, Note_on_c, 1, 58, 107
3, 47508, Note_off_c, 1, 58, 64
3, 47520, Note_on_c, 1, 49, 107
3, 47616, Note_off_c, 1, 49, 64
3, 47640, Note_on_c, 1, 55, 107
3, 47736, Note_off_c, 1, 55, 64
3, 47760, Note_on_c, 1, 58, 107
3, 47856, Note_off_c, 1, 58, 64
3, 47880, Note_on_c, 1, 49, 107
3, 47976, Note_off_c, 1, 49, 64
3, 48000, Note_on_c, 1, 52, 107
3, 48096, Note_off_c, 1, 52, 64
3, 48120, Note_on_c, 1, 57, 107
3, 48216, Note_off_c, 1, 57, 64
3, 48240, Note_on_c, 1, 50, 107
3, 48336, Note_off_c, 1, 50, 64
3, 48360, Note_on_c, 1, 53, 107
3, 48456, Note_off_c, 1, 53, 64
3, 48480, Note_on_c, 1, 56, 107
3, 48576, Note_off_c, 1, 56, 64
3, 48600, Note_on_c, 1, 59, 107
3, 48696, Note_off_c, 1, 59, 64
3, 48720, Note_on_c, 1, 62, 107
3, 48816, Note_off_c, 1, 62, 64
3, 48840, Note_on_c, 1, 55, 107
3, 48936, Note_off_c, 1, 55, 64
3, 49020, Note_on_c, 1, 48, 107
3, 49044, Note_off_c, 1, 48, 64
3, 49050, Note_on_c, 1, 50, 107
3, 49074, Note_off_c, 1, 50, 64
3, 49080, Note_on_c, 1, 52, 107
3, 49128, Note_off_c, 1, 52, 64
3, 49140, Note_on_c, 1, 48, 107
3, 49188, Note_off_c, 1, 48, 64
3, 49200, Note_on_c, 1, 47, 107
3, 49248, Note_off_c, 1, 47, 64
3, 49260, Note_on_c, 1, 48, 107
3, 49308, Note_off_c, 1, 48, 64
3, 49320, Note_on_c, 1, 43, 107
3, 49368, Note_off_c, 1, 43, 64
3, 49380, Note_on_c, 1, 48, 107
3, 49428, Note_off_c, 1, 48, 64
3, 49440, Note_on_c, 1, 51, 107
3, 49488, Note_off_c, 1, 51, 64
3, 49500, Note_on_c, 1, 48, 107
3, 49548, Note_off_c, 1, 48, 64
3, 49560, Note_on_c, 1, 54, 107
3, 49608, Note_off_c, 1, 54, 64
3, 49620, Note_on_c, 1, 48, 107
3, 49668, Note_off_c, 1, 48, 64
3, 49680, Note_on_c, 1, 55, 107
3, 49800, Note_on_c, 1, 58, 107
3, 49872, Note_off_c, 1, 55, 64
3, 49896, Note_off_c, 1, 58, 64
3, 49920, Note_on_c, 1, 57, 107
3, 50016, Note_off_c, 1, 57, 64
3, 50040, Note_on_c, 1, 55, 107
3, 50040, Note_on_c, 1, 43, 107
3, 50136, Note_off_c, 1, 55, 64
3, 50160, Note_on_c, 1, 58, 107
3, 50232, Note_off_c, 1, 43, 64
3, 50256, Note_off_c, 1, 58, 64
3, 50280, Note_on_c, 1, 57, 107
3, 50376, Note_off_c, 1, 57, 64
3, 50400, Note_on_c, 1, 55, 107
3, 50520, Note_on_c, 1, 48, 107
3, 50616, Note_off_c, 1, 48, 64
3, 50640, Note_on_c, 1, 50, 107
3, 50736, Note_off_c, 1, 50, 64
3, 50760, Note_on_c, 1, 52, 107
3, 50856, Note_off_c, 1, 52, 64
3, 50880, Note_on_c, 1, 50, 107
3, 50976, Note_off_c, 1, 50, 64
3, 51000, Note_on_c, 1, 48, 107
3, 51048, Note_off_c, 1, 55, 64
3, 51096, Note_off_c, 1, 48, 64
3, 51120, Note_on_c, 1, 53, 107
3, 51240, Note_on_c, 1, 56, 107
3, 51312, Note_off_c, 1, 53, 64
3, 51336, Note_off_c, 1, 56, 64
3, 51360, Note_on_c, 1, 55, 107
3, 51456, Note_off_c, 1, 55, 64
3, 51480, Note_on_c, 1, 53, 107
3, 51480, Note_on_c, 1, 41, 107
3, 51576, Note_off_c, 1, 53, 64
3, 51600, Note_on_c, 1, 56, 107
3, 51672, Note_off_c, 1, 41, 64
3, 51696, Note_off_c, 1, 56, 64
3, 51720, Note_on_c, 1, 55, 107
3, 51816, Note_off_c, 1, 55, 64
3, 51840, Note_on_c, 1, 53, 107
3, 51960, Note_on_c, 1, 46, 107
3, 52056, Note_off_c, 1, 46, 64
3, 52080, Note_on_c, 1, 48, 107
3, 52176, Note_off_c, 1, 48, 64
3, 52200, Note_on_c, 1, 50, 107
3, 52296, Note_off_c, 1, 50, 64
3, 52320, Note_on_c, 1, 48, 107
3, 52416, Note_off_c, 1, 48, 64
3, 52440, Note_on_c, 1, 46, 107
3, 52488, Note_off_c, 1, 53, 64
3, 52536, Note_off_c, 1, 46, 64
3, 52560, Note_on_c, 1, 51, 107
3, 52560, Note_on_c, 1, 51, 107
3, 52608, Note_off_c, 1, 51, 64
3, 52620, Note_on_c, 1, 53, 107
3, 52656, Note_off_c, 1, 51, 64
3, 52668, Note_off_c, 1, 53, 64
3, 52680, Note_on_c, 1, 55, 107
3, 52728, Note_off_c, 1, 55, 64
3, 52740, Note_on_c, 1, 51, 107
3, 52788, Note_off_c, 1, 51, 64
3, 52800, Note_on_c, 1, 50, 107
3, 52848, Note_off_c, 1, 50, 64
3, 52860, Note_on_c, 1, 51, 107
3, 52908, Note_off_c, 1, 51, 64
3, 52920, Note_on_c, 1, 46, 107
3, 52968, Note_off_c, 1, 46, 64
3, 52980, Note_on_c, 1, 51, 107
3, 53028, Note_off_c, 1, 51, 64
3, 53040, Note_on_c, 1, 55, 107
3, 53088, Note_off_c, 1, 55, 64
3, 53100, Note_on_c, 1, 51, 107
3, 53148, Note_off_c, 1, 51, 64
3, 53160, Note_on_c, 1, 57, 107
3, 53208, Note_off_c, 1, 57, 64
3, 53220, Note_on_c, 1, 51, 107
3, 53268, Note_off_c, 1, 51, 64
3, 53280, Note_on_c, 1, 58, 107
3, 53400, Note_on_c, 1, 62, 107
3, 53472, Note_off_c, 1, 58, 64
3, 53496, Note_off_c, 1, 62, 64
3, 53520, Note_on_c, 1, 60, 107
3, 53616, Note_off_c, 1, 60, 64
3, 53640, Note_on_c, 1, 58, 107
3, 53640, Note_on_c, 1, 46, 107
3, 53736, Note_off_c, 1, 58, 64
3, 53760, Note_on_c, 1, 62, 107
3, 53832, Note_off_c, 1, 46, 64
3, 53856, Note_off_c, 1, 62, 64
3, 53880, Note_on_c, 1, 60, 107
3, 53976, Note_off_c, 1, 60, 64
3, 54000, Note_on_c, 1, 58, 107
3, 54120, Note_on_c, 1, 51, 107
3, 54216, Note_off_c, 1, 51, 64
3, 54240, Note_on_c, 1, 53, 107
3, 54336, Note_off_c, 1, 53, 64
3, 54360, Note_on_c, 1, 55, 107
3, 54456, Note_off_c, 1, 55, 64
3, 54480, Note_on_c, 1, 53, 107
3, 54576, Note_off_c, 1, 53, 64
3, 54600, Note_on_c, 1, 51, 107
3, 54648, Note_off_c, 1, 58, 64
3, 54696, Note_off_c, 1, 51, 64
3, 54720, Note_on_c, 1, 56, 107
3, 54840, Note_on_c, 1, 60, 107
3, 54912, Note_off_c, 1, 56, 64
3, 54936, Note_off_c, 1, 60, 64
3, 54960, Note_on_c, 1, 58, 107
3, 55056, Note_off_c, 1, 58, 64
3, 55080, Note_on_c, 1, 56, 107
3, 55080, Note_on_c, 1, 44, 107
3, 55176, Note_off_c, 1, 56, 64
3, 55200, Note_on_c, 1, 60, 107
3, 55272, Note_off_c, 1, 44, 64
3, 55296, Note_off_c, 1, 60, 64
3, 55320, Note_on_c, 1, 58, 107
3, 55416, Note_off_c, 1, 58, 64
3, 55440, Note_on_c, 1, 56, 107
3, 55560, Note_on_c, 1, 50, 107
3, 55656, Note_off_c, 1, 50, 64
3, 55680, Note_on_c, 1, 51, 107
3, 55776, Note_off_c, 1, 51, 64
3, 55800, Note_on_c, 1, 53, 107
3, 55896, Note_off_c, 1, 53, 64
3, 55920, Note_on_c, 1, 51, 107
3, 56016, Note_off_c, 1, 51, 64
3, 56040, Note_on_c, 1, 50, 107
3, 56088, Note_off_c, 1, 56, 64
3, 56136, Note_off_c, 1, 50, 64
3, 56160, Note_on_c, 1, 55, 107
3, 56208, Note_off_c, 1, 55, 64
3, 56220, Note_on_c, 1, 53, 107
3, 56268, Note_off_c, 1, 53, 64
3, 56280, Note_on_c, 1, 51, 107
3, 56328, Note_off_c, 1, 51, 64
3, 56340, Note_on_c, 1, 53, 107
3, 56388, Note_off_c, 1, 53, 64
3, 56400, Note_on_c, 1, 50, 107
3, 56448, Note_off_c, 1, 50, 64
3, 56460, Note_on_c, 1, 51, 107
3, 56508, Note_off_c, 1, 51, 64
3, 56520, Note_on_c, 1, 48, 107
3, 56568, Note_off_c, 1, 48, 64
3, 56580, Note_on_c, 1, 51, 107
3, 56628, Note_off_c, 1, 51, 64
3, 56640, Note_on_c, 1, 46, 107
3, 56688, Note_off_c, 1, 46, 64
3, 56700, Note_on_c, 1, 51, 107
3, 56748, Note_off_c, 1, 51, 64
3, 56760, Note_on_c, 1, 44, 107
3, 56808, Note_off_c, 1, 44, 64
3, 56820, Note_on_c, 1, 51, 107
3, 56868, Note_off_c, 1, 51, 64
3, 56880, Note_on_c, 1, 43, 107
3, 56928, Note_off_c, 1, 43, 64
3, 56940, Note_on_c, 1, 51, 107
3, 56988, Note_off_c, 1, 51, 64
3, 57000, Note_on_c, 1, 41, 107
3, 57048, Note_off_c, 1, 41, 64
3, 57060, Note_on_c, 1, 51, 107
3, 57108, Note_off_c, 1, 51, 64
3, 57120, Note_on_c, 1, 39, 107
3, 57168, Note_off_c, 1, 39, 64
3, 57180, Note_on_c, 1, 51, 107
3, 57228, Note_off_c, 1, 51, 64
3, 57240, Note_on_c, 1, 44, 107
3, 57336, Note_off_c, 1, 44, 64
3, 57360, Note_on_c, 1, 46, 107
3, 57456, Note_off_c, 1, 46, 64
3, 57480, Note_on_c, 1, 34, 107
3, 57576, Note_off_c, 1, 34, 64
3, 57600, Note_on_c, 1, 67, 107
3, 57713, Note_off_c, 1, 67, 64
3, 57780, Note_on_c, 1, 68, 107
3, 57828, Note_off_c, 1, 68, 64
3, 57840, Note_on_c, 1, 67, 107
3, 57888, Note_off_c, 1, 67, 64
3, 57900, Note_on_c, 1, 65, 107
3, 57948, Note_off_c, 1, 65, 64
3, 57960, Note_on_c, 1, 64, 107
3, 58008, Note_off_c, 1, 64, 64
3, 58020, Note_on_c, 1, 65, 107
3, 58068, Note_off_c, 1, 65, 64
3, 58080, Note_on_c, 1, 67, 107
3, 58128, Note_off_c, 1, 67, 64
3, 58140, Note_on_c, 1, 64, 107
3, 58188, Note_off_c, 1, 64, 64
3, 58200, Note_on_c, 1, 61, 107
3, 58248, Note_off_c, 1, 61, 64
3, 58260, Note_on_c, 1, 64, 107
3, 58308, Note_off_c, 1, 64, 64
3, 58320, Note_on_c, 1, 58, 107
3, 58368, Note_off_c, 1, 58, 64
3, 58380, Note_on_c, 1, 60, 107
3, 58428, Note_off_c, 1, 60, 64
3, 58440, Note_on_c, 1, 61, 107
3, 58488, Note_off_c, 1, 61, 64
3, 58500, Note_on_c, 1, 58, 107
3, 58548, Note_off_c, 1, 58, 64
3, 58560, Note_on_c, 1, 55, 107
3, 58608, Note_off_c, 1, 55, 64
3, 58620, Note_on_c, 1, 58, 107
3, 58668, Note_off_c, 1, 58, 64
3, 58680, Note_on_c, 1, 52, 107
3, 58728, Note_off_c, 1, 52, 64
3, 58740, Note_on_c, 1, 53, 107
3, 58788, Note_off_c, 1, 53, 64
3, 58800, Note_on_c, 1, 55, 107
3, 58848, Note_off_c, 1, 55, 64
3, 58860, Note_on_c, 1, 52, 107
3, 58908, Note_off_c, 1, 52, 64
3, 58920, Note_on_c, 1, 48, 107
3, 58968, Note_off_c, 1, 48, 64
3, 58980, Note_on_c, 1, 52, 107
3, 59028, Note_off_c, 1, 52, 64
3, 59040, Note_on_c, 1, 41, 107
3, 59136, Note_off_c, 1, 41, 64
3, 59220, Note_on_c, 1, 67, 107
3, 59268, Note_off_c, 1, 67, 64
3, 59280, Note_on_c, 1, 65, 107
3, 59328, Note_off_c, 1, 65, 64
3, 59340, Note_on_c, 1, 63, 107
3, 59388, Note_off_c, 1, 63, 64
3, 59400, Note_on_c, 1, 62, 107
3, 59448, Note_off_c, 1, 62, 64
3, 59460, Note_on_c, 1, 63, 107
3, 59508, Note_off_c, 1, 63, 64
3, 59520, Note_on_c, 1, 65, 107
3, 59568, Note_off_c, 1, 65, 64
3, 59580, Note_on_c, 1, 62, 107
3, 59628, Note_off_c, 1, 62, 64
3, 59640, Note_on_c, 1, 58, 107
3, 59688, Note_off_c, 1, 58, 64
3, 59700, Note_on_c, 1, 62, 107
3, 59748, Note_off_c, 1, 62, 64
3, 59760, Note_on_c, 1, 56, 107
3, 59808, Note_off_c, 1, 56, 64
3, 59820, Note_on_c, 1, 58, 107
3, 59868, Note_off_c, 1, 58, 64
3, 59880, Note_on_c, 1, 60, 107
3, 59928, Note_off_c, 1, 60, 64
3, 59940, Note_on_c, 1, 56, 107
3, 59988, Note_off_c, 1, 56, 64
3, 60000, Note_on_c, 1, 53, 107
3, 60048, Note_off_c, 1, 53, 64
3, 60060, Note_on_c, 1, 56, 107
3, 60108, Note_off_c, 1, 56, 64
3, 60120, Note_on_c, 1, 50, 107
3, 60168, Note_off_c, 1, 50, 64
3, 60180, Note_on_c, 1, 51, 107
3, 60228, Note_off_c, 1, 51, 64
3, 60240, Note_on_c, 1, 53, 107
3, 60288, Note_off_c, 1, 53, 64
3, 60300, Note_on_c, 1, 50, 107
3, 60348, Note_off_c, 1, 50, 64
3, 60360, Note_on_c, 1, 46, 107
3, 60408, Note_off_c, 1, 46, 64
3, 60420, Note_on_c, 1, 50, 107
3, 60468, Note_off_c, 1, 50, 64
3, 60480, Note_on_c, 1, 39, 107
3, 60600, Note_off_c, 1, 39, 64
3, 60660, Note_on_c, 1, 70, 107
3, 60708, Note_off_c, 1, 70, 64
3, 60720, Note_on_c, 1, 69, 107
3, 60768, Note_off_c, 1, 69, 64
3, 60780, Note_on_c, 1, 67, 107
3, 60828, Note_off_c, 1, 67, 64
3, 60840, Note_on_c, 1, 66, 107
3, 60888, Note_off_c, 1, 66, 64
3, 60900, Note_on_c, 1, 67, 107
3, 60948, Note_off_c, 1, 67, 64
3, 60960, Note_on_c, 1, 69, 107
3, 61008, Note_off_c, 1, 69, 64
3, 61020, Note_on_c, 1, 66, 107
3, 61068, Note_off_c, 1, 66, 64
3, 61080, Note_on_c, 1, 63, 107
3, 61128, Note_off_c, 1, 63, 64
3, 61140, Note_on_c, 1, 66, 107
3, 61188, Note_off_c, 1, 66, 64
3, 61200, Note_on_c, 1, 60, 107
3, 61248, Note_off_c, 1, 60, 64
3, 61260, Note_on_c, 1, 62, 107
3, 61308, Note_off_c, 1, 62, 64
3, 61320, Note_on_c, 1, 63, 107
3, 61368, Note_off_c, 1, 63, 64
3, 61380, Note_on_c, 1, 60, 107
3, 61428, Note_off_c, 1, 60, 64
3, 61440, Note_on_c, 1, 57, 107
3, 61488, Note_off_c, 1, 57, 64
3, 61500, Note_on_c, 1, 60, 107
3, 61548, Note_off_c, 1, 60, 64
3, 61560, Note_on_c, 1, 54, 107
3, 61608, Note_off_c, 1, 54, 64
3, 61620, Note_on_c, 1, 55, 107
3, 61668, Note_off_c, 1, 55, 64
3, 61680, Note_on_c, 1, 57, 107
3, 61728, Note_off_c, 1, 57, 64
3, 61740, Note_on_c, 1, 54, 107
3, 61788, Note_off_c, 1, 54, 64
3, 61800, Note_on_c, 1, 50, 107
3, 61848, Note_off_c, 1, 50, 64
3, 61860, Note_on_c, 1, 54, 107
3, 61908, Note_off_c, 1, 54, 64
3, 61920, Note_on_c, 1, 43, 107
3, 62016, Note_off_c, 1, 43, 64
3, 62040, Note_on_c, 1, 46, 107
3, 62136, Note_off_c, 1, 46, 64
3, 62160, Note_on_c, 1, 51, 107
3, 62256, Note_off_c, 1, 51, 64
3, 62280, Note_on_c, 1, 41, 107
3, 62376, Note_off_c, 1, 41, 64
3, 62400, Note_on_c, 1, 45, 107
3, 62496, Note_off_c, 1, 45, 64
3, 62520, Note_on_c, 1, 50, 107
3, 62616, Note_off_c, 1, 50, 64
3, 62640, Note_on_c, 1, 39, 107
3, 62736, Note_off_c, 1, 39, 64
3, 62760, Note_on_c, 1, 43, 107
3, 62856, Note_off_c, 1, 43, 64
3, 62880, Note_on_c, 1, 48, 107
3, 62976, Note_off_c, 1, 48, 64
3, 63000, Note_on_c, 1, 38, 107
3, 63090, Note_off_c, 1, 38, 64
3, 63120, Note_on_c, 1, 50, 107
3, 63210, Note_off_c, 1, 50, 64
3, 63360, Note_on_c, 1, 38, 107
3, 63450, Note_off_c, 1, 38, 64
3, 63480, Note_on_c, 1, 50, 107
3, 63570, Note_off_c, 1, 50, 64
3, 63720, Note_on_c, 1, 38, 107
3, 63810, Note_off_c, 1, 38, 64
3, 63840, Note_on_c, 1, 50, 107
3, 63930, Note_off_c, 1, 50, 64
3, 64080, Note_on_c, 1, 38, 107
3, 64170, Note_off_c, 1, 38, 64
3, 64200, Note_on_c, 1, 50, 107
3, 64290, Note_off_c, 1, 50, 64
3, 64320, Note_on_c, 1, 50, 107
3, 64410, Note_off_c, 1, 50, 64
3, 64440, Note_on_c, 1, 46, 107
3, 64488, Note_off_c, 1, 46, 64
3, 64500, Note_on_c, 1, 45, 107
3, 64548, Note_off_c, 1, 45, 64
3, 64560, Note_on_c, 1, 43, 107
3, 64608, Note_off_c, 1, 43, 64
3, 64620, Note_on_c, 1, 45, 107
3, 64668, Note_off_c, 1, 45, 64
3, 64680, Note_on_c, 1, 46, 107
3, 64728, Note_off_c, 1, 46, 64
3, 64740, Note_on_c, 1, 48, 107
3, 64788, Note_off_c, 1, 48, 64
3, 64800, Note_on_c, 1, 50, 107
3, 64848, Note_off_c, 1, 50, 64
3, 64860, Note_on_c, 1, 48, 107
3, 64908, Note_off_c, 1, 48, 64
3, 64920, Note_on_c, 1, 50, 107
3, 64968, Note_off_c, 1, 50, 64
3, 64980, Note_on_c, 1, 52, 107
3, 65028, Note_off_c, 1, 52, 64
3, 65040, Note_on_c, 1, 54, 107
3, 65088, Note_off_c, 1, 54, 64
3, 65100, Note_on_c, 1, 50, 107
3, 65148, Note_off_c, 1, 50, 64
3, 65160, Note_on_c, 1, 55, 107
3, 65208, Note_off_c, 1, 55, 64
3, 65220, Note_on_c, 1, 54, 107
3, 65268, Note_off_c, 1, 54, 64
3, 65280, Note_on_c, 1, 55, 107
3, 65328, Note_off_c, 1, 55, 64
3, 65340, Note_on_c, 1, 57, 107
3, 65388, Note_off_c, 1, 57, 64
3, 65400, Note_on_c, 1, 58, 107
3, 65448, Note_off_c, 1, 58, 64
3, 65460, Note_on_c, 1, 60, 107
3, 65508, Note_off_c, 1, 60, 64
3, 65520, Note_on_c, 1, 62, 107
3, 65568, Note_off_c, 1, 62, 64
3, 65580, Note_on_c, 1, 60, 107
3, 65628, Note_off_c, 1, 60, 64
3, 65640, Note_on_c, 1, 62, 107
3, 65688, Note_off_c, 1, 62, 64
3, 65700, Note_on_c, 1, 64, 107
3, 65748, Note_off_c, 1, 64, 64
3, 65760, Note_on_c, 1, 66, 107
3, 65808, Note_off_c, 1, 66, 64
3, 65820, Note_on_c, 1, 62, 107
3, 65868, Note_off_c, 1, 62, 64
3, 65880, Note_on_c, 1, 67, 107
3, 65993, Note_off_c, 1, 67, 64
3, 66000, Note_on_c, 1, 62, 107
3, 66000, Note_on_c, 1, 58, 107
3, 66000, Note_on_c, 1, 55, 107
3, 66096, Note_off_c, 1, 55, 64
3, 66096, Note_off_c, 1, 58, 64
3, 66113, Note_off_c, 1, 62, 64
3, 66120, Note_on_c, 1, 58, 107
3, 66120, Note_on_c, 1, 62, 107
3, 66120, Note_on_c, 1, 55, 107
3, 66216, Note_off_c, 1, 55, 64
3, 66216, Note_off_c, 1, 58, 64
3, 66233, Note_off_c, 1, 62, 64
3, 66240, Note_on_c, 1, 62, 107
3, 66240, Note_on_c, 1, 54, 107
3, 66240, Note_on_c, 1, 57, 107
3, 66336, Note_off_c, 1, 57, 64
3, 66336, Note_off_c, 1, 54, 64
3, 66353, Note_off_c, 1, 62, 64
3, 66360, Note_on_c, 1, 57, 107
3, 66360, Note_on_c, 1, 50, 107
3, 66360, Note_on_c, 1, 54, 107
3, 66456, Note_off_c, 1, 54, 64
3, 66456, Note_off_c, 1, 50, 64
3, 66473, Note_off_c, 1, 57, 64
3, 66480, Note_on_c, 1, 50, 107
3, 66480, Note_on_c, 1, 57, 107
3, 66480, Note_on_c, 1, 54, 107
3, 66576, Note_off_c, 1, 54, 64
3, 66576, Note_off_c, 1, 50, 64
3, 66593, Note_off_c, 1, 57, 64
3, 66600, Note_on_c, 1, 55, 107
3, 66600, Note_on_c, 1, 46, 107
3, 66600, Note_on_c, 1, 50, 107
3, 66696, Note_off_c, 1, 50, 64
3, 66696, Note_off_c, 1, 46, 64
3, 66696, Note_off_c, 1, 55, 64
3, 66720, Note_on_c, 1, 50, 107
3, 66720, Note_on_c, 1, 43, 107
3, 66720, Note_on_c, 1, 46, 107
3, 66816, Note_off_c, 1, 46, 64
3, 66816, Note_off_c, 1, 43, 64
3, 66816, Note_off_c, 1, 50, 64
3, 66840, Note_on_c, 1, 46, 107
3, 66840, Note_on_c, 1, 50, 107
3, 66840, Note_on_c, 1, 43, 107
3, 66936, Note_off_c, 1, 43, 64
3, 66936, Note_off_c, 1, 50, 64
3, 66936, Note_off_c, 1, 46, 64
3, 66960, Note_on_c, 1, 45, 107
3, 66960, Note_on_c, 1, 50, 107
3, 66960, Note_on_c, 1, 38, 107
3, 66960, Note_on_c, 1, 42, 107
3, 67152, Note_off_c, 1, 42, 64
3, 67152, Note_off_c, 1, 38, 64
3, 67152, Note_off_c, 1, 50, 64
3, 67152, Note_off_c, 1, 45, 64
3, 67380, Note_on_c, 1, 69, 107
3, 67428, Note_off_c, 1, 69, 64
3, 67440, Note_on_c, 1, 67, 107
3, 67488, Note_off_c, 1, 67, 64
3, 67500, Note_on_c, 1, 65, 107
3, 67548, Note_off_c, 1, 65, 64
3, 67560, Note_on_c, 1, 63, 107
3, 67608, Note_off_c, 1, 63, 64
3, 67620, Note_on_c, 1, 62, 107
3, 67668, Note_off_c, 1, 62, 64
3, 67680, Note_on_c, 1, 60, 107
3, 67728, Note_off_c, 1, 60, 64
3, 67740, Note_on_c, 1, 62, 107
3, 67788, Note_off_c, 1, 62, 64
3, 67800, Note_on_c, 1, 60, 107
3, 67848, Note_off_c, 1, 60, 64
3, 67860, Note_on_c, 1, 58, 107
3, 67908, Note_off_c, 1, 58, 64
3, 67920, Note_on_c, 1, 57, 107
3, 67968, Note_off_c, 1, 57, 64
3, 67980, Note_on_c, 1, 55, 107
3, 68028, Note_off_c, 1, 55, 64
3, 68040, Note_on_c, 1, 53, 107
3, 68085, Note_off_c, 1, 53, 64
3, 68100, Note_on_c, 1, 67, 107
3, 68148, Note_off_c, 1, 67, 64
3, 68160, Note_on_c, 1, 65, 107
3, 68208, Note_off_c, 1, 65, 64
3, 68220, Note_on_c, 1, 63, 107
3, 68268, Note_off_c, 1, 63, 64
3, 68280, Note_on_c, 1, 62, 107
3, 68328, Note_off_c, 1, 62, 64
3, 68340, Note_on_c, 1, 60, 107
3, 68388, Note_off_c, 1, 60, 64
3, 68400, Note_on_c, 1, 58, 107
3, 68448, Note_off_c, 1, 58, 64
3, 68460, Note_on_c, 1, 60, 107
3, 68508, Note_off_c, 1, 60, 64
3, 68520, Note_on_c, 1, 58, 107
3, 68568, Note_off_c, 1, 58, 64
3, 68580, Note_on_c, 1, 57, 107
3, 68628, Note_off_c, 1, 57, 64
3, 68640, Note_on_c, 1, 55, 107
3, 68688, Note_off_c, 1, 55, 64
3, 68700, Note_on_c, 1, 53, 107
3, 68748, Note_off_c, 1, 53, 64
3, 68760, Note_on_c, 1, 51, 107
3, 68808, Note_off_c, 1, 51, 64
3, 68820, Note_on_c, 1, 65, 107
3, 68868, Note_off_c, 1, 65, 64
3, 68880, Note_on_c, 1, 63, 107
3, 68928, Note_off_c, 1, 63, 64
3, 68940, Note_on_c, 1, 62, 107
3, 68988, Note_off_c, 1, 62, 64
3, 69000, Note_on_c, 1, 60, 107
3, 69048, Note_off_c, 1, 60, 64
3, 69060, Note_on_c, 1, 58, 107
3, 69108, Note_off_c, 1, 58, 64
3, 69120, Note_on_c, 1, 57, 107
3, 69168, Note_off_c, 1, 57, 64
3, 69180, Note_on_c, 1, 58, 107
3, 69228, Note_off_c, 1, 58, 64
3, 69240, Note_on_c, 1, 57, 107
3, 69288, Note_off_c, 1, 57, 64
3, 69300, Note_on_c, 1, 55, 107
3, 69348, Note_off_c, 1, 55, 64
3, 69360, Note_on_c, 1, 54, 107
3, 69408, Note_off_c, 1, 54, 64
3, 69420, Note_on_c, 1, 52, 107
3, 69468, Note_off_c, 1, 52, 64
3, 69480, Note_on_c, 1, 50, 107
3, 69528, Note_off_c, 1, 50, 64
3, 69540, Note_on_c, 1, 51, 107
3, 69588, Note_off_c, 1, 51, 64
3, 69600, Note_on_c, 1, 50, 107
3, 69648, Note_off_c, 1, 50, 64
3, 69660, Note_on_c, 1, 48, 107
3, 69708, Note_off_c, 1, 48, 64
3, 69720, Note_on_c, 1, 46, 107
3, 69768, Note_off_c, 1, 46, 64
3, 69780, Note_on_c, 1, 45, 107
3, 69828, Note_off_c, 1, 45, 64
3, 69840, Note_on_c, 1, 43, 107
3, 69888, Note_off_c, 1, 43, 64
3, 69900, Note_on_c, 1, 45, 107
3, 69948, Note_off_c, 1, 45, 64
3, 69960, Note_on_c, 1, 43, 107
3, 70008, Note_off_c, 1, 43, 64
3, 70020, Note_on_c, 1, 41, 107
3, 70068, Note_off_c, 1, 41, 64
3, 70080, Note_on_c, 1, 39, 107
3, 70128, Note_off_c, 1, 39, 64
3, 70140, Note_on_c, 1, 38, 107
3, 70188, Note_off_c, 1, 38, 64
3, 70200, Note_on_c, 1, 36, 107
3, 70296, Note_off_c, 1, 36, 64
3, 70320, Note_on_c, 1, 48, 107
3, 70410, Note_off_c, 1, 48, 64
3, 70440, Note_on_c, 1, 48, 107
3, 70530, Note_off_c, 1, 48, 64
3, 70560, Note_on_c, 1, 41, 107
3, 70656, Note_off_c, 1, 41, 64
3, 70680, Note_on_c, 1, 53, 107
3, 70770, Note_off_c, 1, 53, 64
3, 70800, Note_on_c, 1, 53, 107
3, 70890, Note_off_c, 1, 53, 64
3, 70920, Note_on_c, 1, 58, 107
3, 71016, Note_off_c, 1, 58, 64
3, 71040, Note_on_c, 1, 46, 107
3, 71130, Note_off_c, 1, 46, 64
3, 71160, Note_on_c, 1, 46, 107
3, 71250, Note_off_c, 1, 46, 64
3, 71280, Note_on_c, 1, 39, 107
3, 71376, Note_off_c, 1, 39, 64
3, 71400, Note_on_c, 1, 51, 107
3, 71490, Note_off_c, 1, 51, 64
3, 71520, Note_on_c, 1, 51, 107
3, 71610, Note_off_c, 1, 51, 64
3, 71640, Note_on_c, 1, 57, 107
3, 71736, Note_off_c, 1, 57, 64
3, 71760, Note_on_c, 1, 45, 107
3, 71850, Note_off_c, 1, 45, 64
3, 71880, Note_on_c, 1, 45, 107
3, 71970, Note_off_c, 1, 45, 64
3, 72000, Note_on_c, 1, 38, 107
3, 72096, Note_off_c, 1, 38, 64
3, 72360, Note_on_c, 1, 58, 107
3, 72408, Note_off_c, 1, 58, 64
3, 72420, Note_on_c, 1, 62, 107
3, 72468, Note_off_c, 1, 62, 64
3, 72480, Note_on_c, 1, 60, 107
3, 72528, Note_off_c, 1, 60, 64
3, 72540, Note_on_c, 1, 58, 107
3, 72588, Note_off_c, 1, 58, 64
3, 72600, Note_on_c, 1, 57, 107
3, 72648, Note_off_c, 1, 57, 64
3, 72660, Note_on_c, 1, 55, 107
3, 72708, Note_off_c, 1, 55, 64
3, 72720, Note_on_c, 1, 54, 107
3, 72768, Note_off_c, 1, 54, 64
3, 72780, Note_on_c, 1, 55, 107
3, 72828, Note_off_c, 1, 55, 64
3, 72840, Note_on_c, 1, 54, 107
3, 72888, Note_off_c, 1, 54, 64
3, 72900, Note_on_c, 1, 52, 107
3, 72948, Note_off_c, 1, 52, 64
3, 72960, Note_on_c, 1, 50, 107
3, 73008, Note_off_c, 1, 50, 64
3, 73020, Note_on_c, 1, 48, 107
3, 73068, Note_off_c, 1, 48, 64
3, 73080, Note_on_c, 1, 47, 107
3, 73128, Note_off_c, 1, 47, 64
3, 73140, Note_on_c, 1, 45, 107
3, 73188, Note_off_c, 1, 45, 64
3, 73200, Note_on_c, 1, 43, 107
3, 73248, Note_off_c, 1, 43, 64
3, 73260, Note_on_c, 1, 41, 107
3, 73308, Note_off_c, 1, 41, 64
3, 73320, Note_on_c, 1, 40, 107
3, 73368, Note_off_c, 1, 40, 64
3, 73380, Note_on_c, 1, 38, 107
3, 73428, Note_off_c, 1, 38, 64
3, 73440, Note_on_c, 1, 36, 107
3, 73536, Note_off_c, 1, 36, 64
3, 73560, Note_on_c, 1, 55, 107
3, 73608, Note_off_c, 1, 55, 64
3, 73620, Note_on_c, 1, 53, 107
3, 73668, Note_off_c, 1, 53, 64
3, 73680, Note_on_c, 1, 52, 107
3, 73728, Note_off_c, 1, 52, 64
3, 73740, Note_on_c, 1, 50, 107
3, 73788, Note_off_c, 1, 50, 64
3, 73800, Note_on_c, 1, 49, 107
3, 73848, Note_off_c, 1, 49, 64
3, 73860, Note_on_c, 1, 47, 107
3, 73908, Note_off_c, 1, 47, 64
3, 73920, Note_on_c, 1, 45, 107
3, 73968, Note_off_c, 1, 45, 64
3, 73980, Note_on_c, 1, 43, 107
3, 74028, Note_off_c, 1, 43, 64
3, 74040, Note_on_c, 1, 42, 107
3, 74088, Note_off_c, 1, 42, 64
3, 74100, Note_on_c, 1, 40, 107
3, 74148, Note_off_c, 1, 40, 64
3, 74160, Note_on_c, 1, 38, 107
3, 74256, Note_off_c, 1, 38, 64
3, 74280, Note_on_c, 1, 60, 107
3, 74328, Note_off_c, 1, 60, 64
3, 74340, Note_on_c, 1, 58, 107
3, 74388, Note_off_c, 1, 58, 64
3, 74400, Note_on_c, 1, 57, 107
3, 74448, Note_off_c, 1, 57, 64
3, 74460, Note_on_c, 1, 55, 107
3, 74508, Note_off_c, 1, 55, 64
3, 74520, Note_on_c, 1, 54, 107
3, 74568, Note_off_c, 1, 54, 64
3, 74580, Note_on_c, 1, 52, 107
3, 74628, Note_off_c, 1, 52, 64
3, 74640, Note_on_c, 1, 50, 107
3, 74688, Note_off_c, 1, 50, 64
3, 74700, Note_on_c, 1, 48, 107
3, 74748, Note_off_c, 1, 48, 64
3, 74760, Note_on_c, 1, 46, 107
3, 74808, Note_off_c, 1, 46, 64
3, 74820, Note_on_c, 1, 45, 107
3, 74868, Note_off_c, 1, 45, 64
3, 74880, Note_on_c, 1, 43, 107
3, 74928, Note_off_c, 1, 43, 64
3, 74940, Note_on_c, 1, 42, 107
3, 74988, Note_off_c, 1, 42, 64
3, 75000, Note_on_c, 1, 43, 107
3, 75048, Note_off_c, 1, 43, 64
3, 75060, Note_on_c, 1, 45, 107
3, 75108, Note_off_c, 1, 45, 64
3, 75120, Note_on_c, 1, 46, 107
3, 75168, Note_off_c, 1, 46, 64
3, 75180, Note_on_c, 1, 43, 107
3, 75228, Note_off_c, 1, 43, 64
3, 75240, Note_on_c, 1, 48, 107
3, 75288, Note_off_c, 1, 48, 64
3, 75300, Note_on_c, 1, 46, 107
3, 75348, Note_off_c, 1, 46, 64
3, 75360, Note_on_c, 1, 48, 107
3, 75408, Note_off_c, 1, 48, 64
3, 75420, Note_on_c, 1, 50, 107
3, 75468, Note_off_c, 1, 50, 64
3, 75480, Note_on_c, 1, 51, 107
3, 75528, Note_off_c, 1, 51, 64
3, 75540, Note_on_c, 1, 48, 107
3, 75588, Note_off_c, 1, 48, 64
3, 75600, Note_on_c, 1, 50, 107
3, 75648, Note_off_c, 1, 50, 64
3, 75660, Note_on_c, 1, 52, 107
3, 75708, Note_off_c, 1, 52, 64
3, 75720, Note_on_c, 1, 54, 107
3, 75768, Note_off_c, 1, 54, 64
3, 75780, Note_on_c, 1, 50, 107
3, 75828, Note_off_c, 1, 50, 64
3, 75840, Note_on_c, 1, 55, 107
3, 75936, Note_off_c, 1, 55, 64
3, 75960, Note_on_c, 1, 48, 107
3, 76056, Note_off_c, 1, 48, 64
3, 76080, Note_on_c, 1, 50, 107
3, 76176, Note_off_c, 1, 50, 64
3, 76200, Note_on_c, 1, 38, 107
3, 76296, Note_off_c, 1, 38, 64
3, 76320, Note_on_c, 1, 43, 107
3, 76512, Note_off_c, 1, 43, 64
3, 76512, End_track
4, 0, Start_track
4, 0, Title_t, "Arr. Gary Bricault, (c) 1997"
4, 0, End_track
0, 0, End_of_file
