0, 0, Header, 1, 3, 384
1, 0, Start_track
1, 0, Time_signature, 4, 2, 24, 8
1, 0, Tempo, 500000
1, 172032, End_track
2, 0, Start_track
2, 0, Text_t, "harpsichord: John Sankey"
2, 0, Program_c, 0, 6
2, 0, Pitch_bend_c, 0, 8192
2, 0, Program_c, 1, 6
2, 0, Pitch_bend_c, 1, 7792
2, 0, Program_c, 2, 6
2, 0, Pitch_bend_c, 2, 7876
2, 0, Program_c, 3, 6
2, 0, Pitch_bend_c, 3, 7952
2, 0, Program_c, 4, 6
2, 0, Pitch_bend_c, 4, 7792
2, 0, Program_c, 5, 6
2, 0, Pitch_bend_c, 5, 8112
2, 0, Program_c, 6, 6
2, 0, Pitch_bend_c, 6, 7712
2, 0, Program_c, 7, 6
2, 0, Pitch_bend_c, 7, 8037
2, 0, Program_c, 8, 6
2, 0, Pitch_bend_c, 8, 7872
2, 0, Program_c, 10, 6
2, 0, Pitch_bend_c, 10, 7712
2, 0, Program_c, 11, 6
2, 0, Pitch_bend_c, 11, 8032
2, 0, Program_c, 12, 6
2, 0, Pitch_bend_c, 12, 7872
2, 0, Title_t, "Track 1"
2, 64, Note_on_c, 2, 50, 127
2, 407, Note_off_c, 2, 50, 127
2, 411, Note_on_c, 2, 50, 127
2, 643, Note_on_c, 10, 69, 127
2, 754, Note_off_c, 2, 50, 127
2, 759, Note_on_c, 5, 65, 127
2, 759, Note_on_c, 2, 50, 127
2, 805, Note_off_c, 10, 69, 127
2, 874, Note_on_c, 2, 62, 127
2, 976, Note_off_c, 5, 65, 127
2, 990, Note_on_c, 10, 69, 127
2, 1036, Note_off_c, 2, 62, 127
2, 1102, Note_off_c, 2, 50, 127
2, 1106, Note_on_c, 5, 65, 127
2, 1106, Note_on_c, 2, 50, 127
2, 1152, Note_off_c, 10, 69, 127
2, 1222, Note_on_c, 2, 62, 127
2, 1323, Note_off_c, 5, 65, 127
2, 1338, Note_on_c, 2, 74, 127
2, 1384, Note_off_c, 2, 62, 127
2, 1449, Note_off_c, 2, 50, 127
2, 1454, Note_on_c, 11, 70, 127
2, 1454, Note_on_c, 2, 50, 127
2, 1500, Note_off_c, 2, 74, 127
2, 1569, Note_on_c, 7, 67, 127
2, 1671, Note_off_c, 11, 70, 127
2, 1685, Note_on_c, 11, 70, 127
2, 1731, Note_off_c, 7, 67, 127
2, 1797, Note_off_c, 2, 50, 127
2, 1801, Note_on_c, 7, 67, 127
2, 1801, Note_on_c, 2, 50, 127
2, 1847, Note_off_c, 11, 70, 127
2, 1917, Note_on_c, 4, 64, 127
2, 2018, Note_off_c, 7, 67, 127
2, 2033, Note_on_c, 7, 67, 127
2, 2079, Note_off_c, 4, 64, 127
2, 2144, Note_off_c, 2, 50, 127
2, 2149, Note_on_c, 4, 64, 127
2, 2149, Note_on_c, 2, 50, 127
2, 2195, Note_off_c, 7, 67, 127
2, 2264, Note_on_c, 1, 61, 127
2, 2366, Note_off_c, 4, 64, 127
2, 2380, Note_on_c, 7, 67, 127
2, 2426, Note_off_c, 1, 61, 127
2, 2492, Note_off_c, 2, 50, 127
2, 2496, Note_on_c, 4, 64, 127
2, 2496, Note_on_c, 2, 50, 127
2, 2542, Note_off_c, 7, 67, 127
2, 2612, Note_on_c, 1, 61, 127
2, 2713, Note_off_c, 4, 64, 127
2, 2728, Note_on_c, 10, 69, 127
2, 2774, Note_off_c, 1, 61, 127
2, 2839, Note_off_c, 2, 50, 127
2, 2844, Note_on_c, 5, 65, 127
2, 2844, Note_on_c, 2, 50, 127
2, 2890, Note_off_c, 10, 69, 127
2, 2960, Note_on_c, 2, 62, 127
2, 3061, Note_off_c, 5, 65, 127
2, 3075, Note_on_c, 10, 69, 127
2, 3122, Note_off_c, 2, 62, 127
2, 3187, Note_off_c, 2, 50, 127
2, 3191, Note_on_c, 5, 65, 127
2, 3191, Note_on_c, 2, 50, 127
2, 3237, Note_off_c, 10, 69, 127
2, 3307, Note_on_c, 2, 62, 127
2, 3335, Note_off_c, 5, 65, 127
2, 3406, Note_off_c, 2, 62, 127
2, 3423, Note_on_c, 10, 81, 127
2, 3534, Note_off_c, 2, 50, 127
2, 3539, Note_on_c, 5, 77, 127
2, 3539, Note_on_c, 2, 62, 127
2, 3585, Note_off_c, 10, 81, 127
2, 3655, Note_on_c, 2, 74, 127
2, 3756, Note_off_c, 5, 77, 127
2, 3770, Note_on_c, 5, 77, 127
2, 3817, Note_off_c, 2, 74, 127
2, 3882, Note_off_c, 2, 62, 127
2, 3886, Note_on_c, 2, 74, 127
2, 3886, Note_on_c, 2, 62, 127
2, 3932, Note_off_c, 5, 77, 127
2, 4002, Note_on_c, 10, 69, 127
2, 4103, Note_off_c, 2, 74, 127
2, 4118, Note_on_c, 2, 74, 127
2, 4164, Note_off_c, 10, 69, 127
2, 4229, Note_off_c, 2, 62, 127
2, 4234, Note_on_c, 11, 70, 127
2, 4234, Note_on_c, 7, 55, 127
2, 4280, Note_off_c, 2, 74, 127
2, 4350, Note_on_c, 7, 67, 127
2, 4451, Note_off_c, 11, 70, 127
2, 4465, Note_on_c, 2, 74, 127
2, 4512, Note_off_c, 7, 67, 127
2, 4577, Note_off_c, 7, 55, 127
2, 4581, Note_on_c, 11, 70, 127
2, 4581, Note_on_c, 7, 55, 127
2, 4627, Note_off_c, 2, 74, 127
2, 4697, Note_on_c, 7, 67, 127
2, 4798, Note_off_c, 11, 70, 127
2, 4813, Note_on_c, 7, 79, 127
2, 4859, Note_off_c, 7, 67, 127
2, 4924, Note_off_c, 7, 55, 127
2, 4929, Note_on_c, 4, 76, 127
2, 4929, Note_on_c, 0, 60, 127
2, 4975, Note_off_c, 7, 79, 127
2, 5045, Note_on_c, 0, 72, 127
2, 5146, Note_off_c, 4, 76, 127
2, 5160, Note_on_c, 4, 76, 127
2, 5207, Note_off_c, 0, 72, 127
2, 5272, Note_off_c, 0, 60, 127
2, 5276, Note_on_c, 0, 72, 127
2, 5276, Note_on_c, 0, 60, 127
2, 5322, Note_off_c, 4, 76, 127
2, 5392, Note_on_c, 7, 67, 127
2, 5493, Note_off_c, 0, 72, 127
2, 5508, Note_on_c, 0, 72, 127
2, 5554, Note_off_c, 7, 67, 127
2, 5619, Note_off_c, 0, 60, 127
2, 5624, Note_on_c, 10, 69, 127
2, 5624, Note_on_c, 5, 53, 127
2, 5670, Note_off_c, 0, 72, 127
2, 5740, Note_on_c, 5, 65, 127
2, 5841, Note_off_c, 10, 69, 127
2, 5856, Note_on_c, 0, 72, 127
2, 5902, Note_off_c, 5, 65, 127
2, 5967, Note_off_c, 5, 53, 127
2, 5971, Note_on_c, 10, 69, 127
2, 5971, Note_on_c, 5, 53, 127
2, 6018, Note_off_c, 0, 72, 127
2, 6087, Note_on_c, 5, 65, 127
2, 6133, Note_off_c, 10, 69, 127
2, 6203, Note_on_c, 5, 77, 127
2, 6249, Note_off_c, 5, 65, 127
2, 6314, Note_off_c, 5, 53, 127
2, 6319, Note_on_c, 2, 74, 127
2, 6319, Note_on_c, 11, 58, 127
2, 6365, Note_off_c, 5, 77, 127
2, 6435, Note_on_c, 11, 70, 127
2, 6536, Note_off_c, 2, 74, 127
2, 6551, Note_on_c, 2, 74, 127
2, 6597, Note_off_c, 11, 70, 127
2, 6662, Note_off_c, 11, 58, 127
2, 6666, Note_on_c, 11, 70, 127
2, 6666, Note_on_c, 7, 55, 127
2, 6713, Note_off_c, 2, 74, 127
2, 6782, Note_on_c, 7, 67, 127
2, 6828, Note_off_c, 11, 70, 127
2, 6898, Note_on_c, 7, 79, 127
2, 6944, Note_off_c, 7, 67, 127
2, 7009, Note_off_c, 7, 55, 127
2, 7014, Note_on_c, 4, 76, 127
2, 7014, Note_on_c, 0, 60, 127
2, 7060, Note_off_c, 7, 79, 127
2, 7130, Note_on_c, 0, 72, 127
2, 7231, Note_off_c, 4, 76, 127
2, 7246, Note_on_c, 4, 76, 127
2, 7292, Note_off_c, 0, 72, 127
2, 7357, Note_off_c, 0, 60, 127
2, 7361, Note_on_c, 0, 72, 127
2, 7361, Note_on_c, 10, 57, 127
2, 7408, Note_off_c, 4, 76, 127
2, 7477, Note_on_c, 10, 69, 127
2, 7523, Note_off_c, 0, 72, 127
2, 7593, Note_on_c, 10, 81, 127
2, 7639, Note_off_c, 10, 69, 127
2, 7704, Note_off_c, 10, 57, 127
2, 7709, Note_on_c, 5, 77, 127
2, 7709, Note_on_c, 2, 62, 127
2, 7755, Note_off_c, 10, 81, 127
2, 7825, Note_on_c, 2, 74, 127
2, 7926, Note_off_c, 5, 77, 127
2, 7941, Note_on_c, 5, 77, 127
2, 7987, Note_off_c, 2, 74, 127
2, 8052, Note_off_c, 2, 62, 127
2, 8056, Note_on_c, 2, 74, 127
2, 8056, Note_on_c, 2, 50, 127
2, 8103, Note_off_c, 5, 77, 127
2, 8172, Note_on_c, 11, 70, 127
2, 8218, Note_off_c, 2, 74, 127
2, 8288, Note_on_c, 11, 82, 127
2, 8334, Note_off_c, 11, 70, 127
2, 8399, Note_off_c, 2, 50, 127
2, 8404, Note_on_c, 7, 79, 127
2, 8404, Note_on_c, 4, 52, 127
2, 8450, Note_off_c, 11, 82, 127
2, 8520, Note_on_c, 4, 76, 127
2, 8621, Note_off_c, 7, 79, 127
2, 8636, Note_on_c, 7, 79, 127
2, 8682, Note_off_c, 4, 76, 127
2, 8747, Note_off_c, 4, 52, 127
2, 8752, Note_on_c, 4, 76, 127
2, 8752, Note_on_c, 0, 48, 127
2, 8798, Note_off_c, 7, 79, 127
2, 8867, Note_on_c, 0, 72, 127
2, 8914, Note_off_c, 4, 76, 127
2, 8983, Note_on_c, 0, 84, 127
2, 9029, Note_off_c, 0, 72, 127
2, 9095, Note_off_c, 0, 48, 127
2, 9099, Note_on_c, 10, 81, 127
2, 9099, Note_on_c, 5, 53, 127
2, 9145, Note_off_c, 0, 84, 127
2, 9215, Note_on_c, 5, 77, 127
2, 9316, Note_off_c, 10, 81, 127
2, 9331, Note_on_c, 10, 81, 127
2, 9377, Note_off_c, 5, 77, 127
2, 9442, Note_off_c, 5, 53, 127
2, 9447, Note_on_c, 5, 77, 127
2, 9447, Note_on_c, 4, 52, 127
2, 9493, Note_off_c, 10, 81, 127
2, 9562, Note_on_c, 0, 72, 127
2, 9664, Note_off_c, 5, 77, 127
2, 9678, Note_on_c, 10, 81, 127
2, 9724, Note_off_c, 0, 72, 127
2, 9790, Note_off_c, 4, 52, 127
2, 9794, Note_on_c, 5, 77, 127
2, 9794, Note_on_c, 2, 50, 127
2, 9840, Note_off_c, 10, 81, 127
2, 9910, Note_on_c, 2, 74, 127
2, 10011, Note_off_c, 5, 77, 127
2, 10026, Note_on_c, 5, 77, 127
2, 10072, Note_off_c, 2, 74, 127
2, 10137, Note_off_c, 2, 50, 127
2, 10142, Note_on_c, 2, 74, 127
2, 10142, Note_on_c, 0, 48, 127
2, 10188, Note_off_c, 5, 77, 127
2, 10257, Note_on_c, 10, 69, 127
2, 10359, Note_off_c, 2, 74, 127
2, 10373, Note_on_c, 5, 77, 127
2, 10419, Note_off_c, 10, 69, 127
2, 10485, Note_off_c, 0, 48, 127
2, 10489, Note_on_c, 2, 74, 127
2, 10489, Note_on_c, 11, 46, 127
2, 10535, Note_off_c, 5, 77, 127
2, 10605, Note_on_c, 11, 70, 127
2, 10706, Note_off_c, 2, 74, 127
2, 10721, Note_on_c, 2, 74, 127
2, 10767, Note_off_c, 11, 70, 127
2, 10832, Note_off_c, 11, 46, 127
2, 10837, Note_on_c, 11, 70, 127
2, 10837, Note_on_c, 10, 45, 127
2, 10883, Note_off_c, 2, 74, 127
2, 10952, Note_on_c, 5, 65, 127
2, 11054, Note_off_c, 11, 70, 127
2, 11068, Note_on_c, 2, 74, 127
2, 11114, Note_off_c, 5, 65, 127
2, 11180, Note_off_c, 10, 45, 127
2, 11184, Note_on_c, 11, 70, 127
2, 11184, Note_on_c, 7, 43, 127
2, 11230, Note_off_c, 2, 74, 127
2, 11300, Note_on_c, 7, 67, 127
2, 11401, Note_off_c, 11, 70, 127
2, 11416, Note_on_c, 11, 70, 127
2, 11462, Note_off_c, 7, 67, 127
2, 11527, Note_off_c, 7, 43, 127
2, 11532, Note_on_c, 7, 67, 127
2, 11532, Note_on_c, 5, 41, 127
2, 11578, Note_off_c, 11, 70, 127
2, 11648, Note_on_c, 2, 62, 127
2, 11749, Note_off_c, 7, 67, 127
2, 11763, Note_on_c, 11, 70, 127
2, 11810, Note_off_c, 2, 62, 127
2, 11875, Note_off_c, 5, 41, 127
2, 11879, Note_on_c, 7, 67, 127
2, 11879, Note_on_c, 4, 40, 127
2, 11925, Note_off_c, 11, 70, 127
2, 11995, Note_on_c, 0, 60, 127
2, 12096, Note_off_c, 7, 67, 127
2, 12111, Note_on_c, 11, 70, 127
2, 12157, Note_off_c, 0, 60, 127
2, 12222, Note_off_c, 4, 40, 127
2, 12227, Note_on_c, 7, 67, 127
2, 12227, Note_on_c, 0, 36, 127
2, 12273, Note_off_c, 11, 70, 127
2, 12343, Note_on_c, 4, 64, 127
2, 12389, Note_off_c, 7, 67, 127
2, 12458, Note_on_c, 11, 70, 127
2, 12505, Note_off_c, 4, 64, 127
2, 12570, Note_off_c, 0, 36, 127
2, 12574, Note_on_c, 10, 69, 127
2, 12574, Note_on_c, 5, 41, 127
2, 12620, Note_off_c, 11, 70, 127
2, 12690, Note_on_c, 5, 65, 127
2, 12791, Note_off_c, 10, 69, 127
2, 12806, Note_on_c, 10, 69, 127
2, 12852, Note_off_c, 5, 65, 127
2, 12917, Note_off_c, 5, 41, 127
2, 12922, Note_on_c, 5, 65, 127
2, 12922, Note_on_c, 10, 45, 127
2, 12968, Note_off_c, 10, 69, 127
2, 13038, Note_on_c, 0, 60, 127
2, 13139, Note_off_c, 5, 65, 127
2, 13153, Note_on_c, 5, 65, 127
2, 13200, Note_off_c, 0, 60, 127
2, 13265, Note_off_c, 10, 45, 127
2, 13269, Note_on_c, 2, 62, 127
2, 13269, Note_on_c, 11, 46, 127
2, 13315, Note_off_c, 5, 65, 127
2, 13385, Note_on_c, 11, 58, 127
2, 13486, Note_off_c, 2, 62, 127
2, 13501, Note_on_c, 5, 65, 127
2, 13547, Note_off_c, 11, 58, 127
2, 13612, Note_off_c, 11, 46, 127
2, 13617, Note_on_c, 0, 60, 127
2, 13617, Note_on_c, 0, 48, 127
2, 13663, Note_off_c, 5, 65, 127
2, 13733, Note_on_c, 11, 58, 127
2, 13834, Note_off_c, 0, 60, 127
2, 13848, Note_on_c, 4, 64, 127
2, 13895, Note_off_c, 11, 58, 127
2, 13960, Note_off_c, 0, 48, 127
2, 13964, Note_on_c, 0, 60, 127
2, 13964, Note_on_c, 5, 41, 127
2, 14010, Note_off_c, 4, 64, 127
2, 14080, Note_on_c, 10, 57, 127
2, 14126, Note_off_c, 0, 60, 127
2, 14196, Note_on_c, 5, 65, 127
2, 14242, Note_off_c, 10, 57, 127
2, 14312, Note_on_c, 0, 60, 127
2, 14312, Note_on_c, 5, 53, 127
2, 14358, Note_off_c, 5, 65, 127
2, 14428, Note_on_c, 10, 57, 127
2, 14474, Note_off_c, 0, 60, 127
2, 14544, Note_on_c, 0, 60, 127
2, 14590, Note_off_c, 10, 57, 127
2, 14651, Note_off_c, 5, 41, 127
2, 14659, Note_on_c, 10, 57, 127
2, 14706, Note_off_c, 0, 60, 127
2, 14768, Note_off_c, 5, 53, 127
2, 14775, Note_on_c, 5, 53, 127
2, 14821, Note_off_c, 10, 57, 127
2, 14891, Note_on_c, 0, 60, 127
2, 14937, Note_off_c, 5, 53, 127
2, 15007, Note_on_c, 10, 57, 127
2, 15007, Note_on_c, 3, 51, 127
2, 15053, Note_off_c, 0, 60, 127
2, 15123, Note_on_c, 5, 53, 127
2, 15169, Note_off_c, 10, 57, 127
2, 15239, Note_on_c, 0, 60, 127
2, 15285, Note_off_c, 5, 53, 127
2, 15350, Note_off_c, 3, 51, 127
2, 15354, Note_on_c, 10, 57, 127
2, 15354, Note_on_c, 2, 50, 127
2, 15401, Note_off_c, 0, 60, 127
2, 15470, Note_on_c, 6, 54, 127
2, 15516, Note_off_c, 10, 57, 127
2, 15586, Note_on_c, 0, 60, 127
2, 15632, Note_off_c, 6, 54, 127
2, 15697, Note_off_c, 2, 50, 127
2, 15702, Note_on_c, 10, 57, 127
2, 15702, Note_on_c, 0, 48, 127
2, 15803, Note_off_c, 0, 60, 127
2, 15818, Note_on_c, 6, 54, 127
2, 15864, Note_off_c, 10, 57, 127
2, 15934, Note_on_c, 3, 63, 127
2, 15980, Note_off_c, 6, 54, 127
2, 16045, Note_off_c, 0, 48, 127
2, 16049, Note_on_c, 10, 57, 127
2, 16049, Note_on_c, 11, 46, 127
2, 16151, Note_off_c, 3, 63, 127
2, 16165, Note_on_c, 6, 54, 127
2, 16211, Note_off_c, 10, 57, 127
2, 16281, Note_on_c, 2, 62, 127
2, 16327, Note_off_c, 6, 54, 127
2, 16392, Note_off_c, 11, 46, 127
2, 16397, Note_on_c, 10, 57, 127
2, 16397, Note_on_c, 10, 45, 127
2, 16498, Note_off_c, 2, 62, 127
2, 16513, Note_on_c, 6, 54, 127
2, 16559, Note_off_c, 10, 57, 127
2, 16629, Note_on_c, 0, 60, 127
2, 16675, Note_off_c, 6, 54, 127
2, 16740, Note_off_c, 10, 45, 127
2, 16744, Note_on_c, 11, 58, 127
2, 16744, Note_on_c, 7, 43, 127
2, 16791, Note_off_c, 0, 60, 127
2, 16860, Note_on_c, 7, 55, 127
2, 16961, Note_off_c, 11, 58, 127
2, 16976, Note_on_c, 2, 62, 127
2, 17022, Note_off_c, 7, 55, 127
2, 17087, Note_off_c, 7, 43, 127
2, 17092, Note_on_c, 11, 58, 127
2, 17092, Note_on_c, 11, 46, 127
2, 17138, Note_off_c, 2, 62, 127
2, 17208, Note_on_c, 7, 55, 127
2, 17254, Note_off_c, 11, 58, 127
2, 17324, Note_on_c, 2, 62, 127
2, 17370, Note_off_c, 7, 55, 127
2, 17435, Note_off_c, 11, 46, 127
2, 17440, Note_on_c, 11, 58, 127
2, 17440, Note_on_c, 0, 48, 127
2, 17541, Note_off_c, 2, 62, 127
2, 17555, Note_on_c, 7, 55, 127
2, 17602, Note_off_c, 11, 58, 127
2, 17671, Note_on_c, 4, 64, 127
2, 17717, Note_off_c, 7, 55, 127
2, 17783, Note_off_c, 0, 48, 127
2, 17787, Note_on_c, 11, 58, 127
2, 17787, Note_on_c, 2, 50, 127
2, 17888, Note_off_c, 4, 64, 127
2, 17903, Note_on_c, 7, 55, 127
2, 17949, Note_off_c, 11, 58, 127
2, 18019, Note_on_c, 6, 66, 127
2, 18065, Note_off_c, 7, 55, 127
2, 18130, Note_off_c, 2, 50, 127
2, 18135, Note_on_c, 11, 58, 127
2, 18135, Note_on_c, 3, 51, 127
2, 18236, Note_off_c, 6, 66, 127
2, 18250, Note_on_c, 7, 55, 127
2, 18297, Note_off_c, 11, 58, 127
2, 18366, Note_on_c, 7, 67, 127
2, 18412, Note_off_c, 7, 55, 127
2, 18478, Note_off_c, 3, 51, 127
2, 18482, Note_on_c, 2, 62, 127
2, 18482, Note_on_c, 11, 46, 127
2, 18528, Note_off_c, 7, 67, 127
2, 18598, Note_on_c, 11, 58, 127
2, 18699, Note_off_c, 2, 62, 127
2, 18714, Note_on_c, 7, 67, 127
2, 18760, Note_off_c, 11, 58, 127
2, 18825, Note_off_c, 11, 46, 127
2, 18830, Note_on_c, 3, 63, 127
2, 18830, Note_on_c, 0, 48, 127
2, 18876, Note_off_c, 7, 67, 127
2, 18945, Note_on_c, 10, 57, 127
2, 19047, Note_off_c, 3, 63, 127
2, 19061, Note_on_c, 7, 67, 127
2, 19107, Note_off_c, 10, 57, 127
2, 19173, Note_off_c, 0, 48, 127
2, 19177, Note_on_c, 2, 62, 127
2, 19177, Note_on_c, 2, 50, 127
2, 19223, Note_off_c, 7, 67, 127
2, 19293, Note_on_c, 10, 57, 127
2, 19394, Note_off_c, 2, 62, 127
2, 19409, Note_on_c, 6, 66, 127
2, 19455, Note_off_c, 10, 57, 127
2, 19520, Note_off_c, 2, 50, 127
2, 19525, Note_on_c, 2, 62, 127
2, 19525, Note_on_c, 7, 43, 127
2, 19571, Note_off_c, 6, 66, 127
2, 19640, Note_on_c, 11, 58, 127
2, 19742, Note_off_c, 2, 62, 127
2, 19756, Note_on_c, 7, 67, 127
2, 19802, Note_off_c, 11, 58, 127
2, 19872, Note_on_c, 2, 62, 127
2, 19872, Note_on_c, 7, 55, 127
2, 19918, Note_off_c, 7, 67, 127
2, 19988, Note_on_c, 11, 58, 127
2, 20034, Note_off_c, 2, 62, 127
2, 20104, Note_on_c, 2, 62, 127
2, 20150, Note_off_c, 11, 58, 127
2, 20212, Note_off_c, 7, 43, 127
2, 20220, Note_on_c, 11, 58, 127
2, 20266, Note_off_c, 2, 62, 127
2, 20331, Note_off_c, 7, 55, 127
2, 20336, Note_on_c, 7, 55, 127
2, 20382, Note_off_c, 11, 58, 127
2, 20451, Note_on_c, 2, 62, 127
2, 20498, Note_off_c, 7, 55, 127
2, 20567, Note_on_c, 11, 58, 127
2, 20567, Note_on_c, 5, 53, 127
2, 20613, Note_off_c, 2, 62, 127
2, 20683, Note_on_c, 7, 55, 127
2, 20729, Note_off_c, 11, 58, 127
2, 20799, Note_on_c, 2, 62, 127
2, 20845, Note_off_c, 7, 55, 127
2, 20910, Note_off_c, 5, 53, 127
2, 20915, Note_on_c, 12, 59, 127
2, 20915, Note_on_c, 4, 52, 127
2, 21016, Note_off_c, 2, 62, 127
2, 21031, Note_on_c, 8, 56, 127
2, 21077, Note_off_c, 12, 59, 127
2, 21146, Note_on_c, 2, 62, 127
2, 21193, Note_off_c, 8, 56, 127
2, 21258, Note_off_c, 4, 52, 127
2, 21262, Note_on_c, 12, 59, 127
2, 21262, Note_on_c, 2, 50, 127
2, 21363, Note_off_c, 2, 62, 127
2, 21378, Note_on_c, 8, 56, 127
2, 21424, Note_off_c, 12, 59, 127
2, 21494, Note_on_c, 5, 65, 127
2, 21540, Note_off_c, 8, 56, 127
2, 21605, Note_off_c, 2, 50, 127
2, 21610, Note_on_c, 12, 59, 127
2, 21610, Note_on_c, 0, 48, 127
2, 21711, Note_off_c, 5, 65, 127
2, 21726, Note_on_c, 8, 56, 127
2, 21772, Note_off_c, 12, 59, 127
2, 21841, Note_on_c, 4, 64, 127
2, 21888, Note_off_c, 8, 56, 127
2, 21953, Note_off_c, 0, 48, 127
2, 21957, Note_on_c, 12, 59, 127
2, 21957, Note_on_c, 12, 47, 127
2, 22058, Note_off_c, 4, 64, 127
2, 22073, Note_on_c, 8, 56, 127
2, 22119, Note_off_c, 12, 59, 127
2, 22189, Note_on_c, 2, 62, 127
2, 22235, Note_off_c, 8, 56, 127
2, 22300, Note_off_c, 12, 47, 127
2, 22305, Note_on_c, 0, 60, 127
2, 22305, Note_on_c, 10, 45, 127
2, 22351, Note_off_c, 2, 62, 127
2, 22421, Note_on_c, 10, 57, 127
2, 22522, Note_off_c, 0, 60, 127
2, 22536, Note_on_c, 4, 64, 127
2, 22583, Note_off_c, 10, 57, 127
2, 22648, Note_off_c, 10, 45, 127
2, 22652, Note_on_c, 0, 60, 127
2, 22652, Note_on_c, 0, 48, 127
2, 22698, Note_off_c, 4, 64, 127
2, 22768, Note_on_c, 10, 57, 127
2, 22814, Note_off_c, 0, 60, 127
2, 22884, Note_on_c, 4, 64, 127
2, 22930, Note_off_c, 10, 57, 127
2, 22995, Note_off_c, 0, 48, 127
2, 23000, Note_on_c, 0, 60, 127
2, 23000, Note_on_c, 2, 50, 127
2, 23101, Note_off_c, 4, 64, 127
2, 23116, Note_on_c, 10, 57, 127
2, 23162, Note_off_c, 0, 60, 127
2, 23232, Note_on_c, 6, 66, 127
2, 23278, Note_off_c, 10, 57, 127
2, 23343, Note_off_c, 2, 50, 127
2, 23347, Note_on_c, 0, 60, 127
2, 23347, Note_on_c, 4, 52, 127
2, 23449, Note_off_c, 6, 66, 127
2, 23463, Note_on_c, 10, 57, 127
2, 23509, Note_off_c, 0, 60, 127
2, 23579, Note_on_c, 8, 68, 127
2, 23625, Note_off_c, 10, 57, 127
2, 23690, Note_off_c, 4, 52, 127
2, 23695, Note_on_c, 0, 60, 127
2, 23695, Note_on_c, 5, 53, 127
2, 23796, Note_off_c, 8, 68, 127
2, 23811, Note_on_c, 10, 57, 127
2, 23857, Note_off_c, 0, 60, 127
2, 23927, Note_on_c, 10, 69, 127
2, 23973, Note_off_c, 10, 57, 127
2, 24038, Note_off_c, 5, 53, 127
2, 24042, Note_on_c, 4, 64, 127
2, 24042, Note_on_c, 0, 48, 127
2, 24089, Note_off_c, 10, 69, 127
2, 24158, Note_on_c, 0, 60, 127
2, 24259, Note_off_c, 4, 64, 127
2, 24274, Note_on_c, 10, 69, 127
2, 24320, Note_off_c, 0, 60, 127
2, 24385, Note_off_c, 0, 48, 127
2, 24390, Note_on_c, 5, 65, 127
2, 24390, Note_on_c, 2, 50, 127
2, 24436, Note_off_c, 10, 69, 127
2, 24506, Note_on_c, 12, 59, 127
2, 24607, Note_off_c, 5, 65, 127
2, 24622, Note_on_c, 10, 69, 127
2, 24668, Note_off_c, 12, 59, 127
2, 24733, Note_off_c, 2, 50, 127
2, 24737, Note_on_c, 4, 64, 127
2, 24737, Note_on_c, 4, 52, 127
2, 24784, Note_off_c, 10, 69, 127
2, 24853, Note_on_c, 12, 59, 127
2, 24954, Note_off_c, 4, 64, 127
2, 24969, Note_on_c, 8, 68, 127
2, 25015, Note_off_c, 12, 59, 127
2, 25080, Note_off_c, 4, 52, 127
2, 25085, Note_on_c, 4, 64, 127
2, 25085, Note_on_c, 10, 45, 127
2, 25131, Note_off_c, 8, 68, 127
2, 25201, Note_on_c, 0, 60, 127
2, 25247, Note_off_c, 4, 64, 127
2, 25317, Note_on_c, 10, 69, 127
2, 25363, Note_off_c, 0, 60, 127
2, 25432, Note_on_c, 4, 64, 127
2, 25432, Note_on_c, 10, 57, 127
2, 25479, Note_off_c, 10, 69, 127
2, 25519, Note_off_c, 10, 45, 127
2, 25548, Note_on_c, 0, 60, 127
2, 25594, Note_off_c, 4, 64, 127
2, 25664, Note_on_c, 0, 72, 127
2, 25710, Note_off_c, 0, 60, 127
2, 25775, Note_off_c, 10, 57, 127
2, 25780, Note_on_c, 5, 65, 127
2, 25780, Note_on_c, 10, 57, 127
2, 25881, Note_off_c, 0, 72, 127
2, 25896, Note_on_c, 2, 62, 127
2, 25942, Note_off_c, 5, 65, 127
2, 26012, Note_on_c, 11, 70, 127
2, 26058, Note_off_c, 2, 62, 127
2, 26123, Note_off_c, 10, 57, 127
2, 26128, Note_on_c, 7, 67, 127
2, 26128, Note_on_c, 7, 55, 127
2, 26229, Note_off_c, 11, 70, 127
2, 26243, Note_on_c, 4, 64, 127
2, 26290, Note_off_c, 7, 67, 127
2, 26359, Note_on_c, 11, 70, 127
2, 26405, Note_off_c, 4, 64, 127
2, 26471, Note_off_c, 7, 55, 127
2, 26475, Note_on_c, 10, 69, 127
2, 26475, Note_on_c, 5, 53, 127
2, 26576, Note_off_c, 11, 70, 127
2, 26591, Note_on_c, 5, 65, 127
2, 26637, Note_off_c, 10, 69, 127
2, 26707, Note_on_c, 10, 69, 127
2, 26753, Note_off_c, 5, 65, 127
2, 26823, Note_on_c, 0, 60, 127
2, 26823, Note_on_c, 5, 41, 127
2, 26869, Note_off_c, 10, 69, 127
2, 26909, Note_off_c, 5, 53, 127
2, 26938, Note_on_c, 10, 57, 127
2, 27040, Note_off_c, 0, 60, 127
2, 27054, Note_on_c, 10, 69, 127
2, 27100, Note_off_c, 10, 57, 127
2, 27166, Note_off_c, 5, 41, 127
2, 27170, Note_on_c, 2, 62, 127
2, 27170, Note_on_c, 5, 41, 127
2, 27216, Note_off_c, 10, 69, 127
2, 27286, Note_on_c, 12, 59, 127
2, 27387, Note_off_c, 2, 62, 127
2, 27402, Note_on_c, 7, 67, 127
2, 27448, Note_off_c, 12, 59, 127
2, 27513, Note_off_c, 5, 41, 127
2, 27518, Note_on_c, 4, 64, 127
2, 27518, Note_on_c, 4, 40, 127
2, 27564, Note_off_c, 7, 67, 127
2, 27633, Note_on_c, 1, 61, 127
2, 27735, Note_off_c, 4, 64, 127
2, 27749, Note_on_c, 7, 67, 127
2, 27795, Note_off_c, 1, 61, 127
2, 27861, Note_off_c, 4, 40, 127
2, 27865, Note_on_c, 5, 65, 127
2, 27865, Note_on_c, 2, 38, 127
2, 27911, Note_off_c, 7, 67, 127
2, 27981, Note_on_c, 2, 62, 127
2, 28027, Note_off_c, 5, 65, 127
2, 28097, Note_on_c, 2, 74, 127
2, 28143, Note_off_c, 2, 62, 127
2, 28213, Note_on_c, 10, 69, 127
2, 28213, Note_on_c, 2, 50, 127
2, 28299, Note_off_c, 2, 38, 127
2, 28314, Note_off_c, 2, 74, 127
2, 28328, Note_on_c, 5, 65, 127
2, 28375, Note_off_c, 10, 69, 127
2, 28444, Note_on_c, 5, 77, 127
2, 28490, Note_off_c, 5, 65, 127
2, 28556, Note_off_c, 2, 50, 127
2, 28560, Note_on_c, 11, 70, 127
2, 28560, Note_on_c, 2, 50, 127
2, 28661, Note_off_c, 5, 77, 127
2, 28676, Note_on_c, 7, 67, 127
2, 28722, Note_off_c, 11, 70, 127
2, 28792, Note_on_c, 3, 75, 127
2, 28838, Note_off_c, 7, 67, 127
2, 28903, Note_off_c, 2, 50, 127
2, 28908, Note_on_c, 0, 72, 127
2, 28908, Note_on_c, 0, 48, 127
2, 29009, Note_off_c, 3, 75, 127
2, 29024, Note_on_c, 10, 69, 127
2, 29070, Note_off_c, 0, 72, 127
2, 29139, Note_on_c, 3, 75, 127
2, 29186, Note_off_c, 10, 69, 127
2, 29251, Note_off_c, 0, 48, 127
2, 29255, Note_on_c, 2, 74, 127
2, 29255, Note_on_c, 11, 46, 127
2, 29301, Note_off_c, 3, 75, 127
2, 29371, Note_on_c, 11, 70, 127
2, 29472, Note_off_c, 2, 74, 127
2, 29487, Note_on_c, 2, 74, 127
2, 29533, Note_off_c, 11, 70, 127
2, 29603, Note_on_c, 5, 65, 127
2, 29603, Note_on_c, 11, 58, 127
2, 29649, Note_off_c, 2, 74, 127
2, 29689, Note_off_c, 11, 46, 127
2, 29719, Note_on_c, 2, 62, 127
2, 29820, Note_off_c, 5, 65, 127
2, 29834, Note_on_c, 2, 74, 127
2, 29881, Note_off_c, 2, 62, 127
2, 29946, Note_off_c, 11, 58, 127
2, 29950, Note_on_c, 7, 67, 127
2, 29950, Note_on_c, 11, 58, 127
2, 29996, Note_off_c, 2, 74, 127
2, 30066, Note_on_c, 4, 64, 127
2, 30167, Note_off_c, 7, 67, 127
2, 30182, Note_on_c, 0, 72, 127
2, 30228, Note_off_c, 4, 64, 127
2, 30293, Note_off_c, 11, 58, 127
2, 30298, Note_on_c, 10, 69, 127
2, 30298, Note_on_c, 10, 57, 127
2, 30344, Note_off_c, 0, 72, 127
2, 30414, Note_on_c, 6, 66, 127
2, 30515, Note_off_c, 10, 69, 127
2, 30529, Note_on_c, 0, 72, 127
2, 30576, Note_off_c, 6, 66, 127
2, 30641, Note_off_c, 10, 57, 127
2, 30645, Note_on_c, 11, 70, 127
2, 30645, Note_on_c, 7, 55, 127
2, 30691, Note_off_c, 0, 72, 127
2, 30761, Note_on_c, 7, 67, 127
2, 30807, Note_off_c, 11, 70, 127
2, 30877, Note_on_c, 2, 74, 127
2, 30923, Note_off_c, 7, 67, 127
2, 30993, Note_on_c, 11, 70, 127
2, 31039, Note_off_c, 2, 74, 127
2, 31109, Note_on_c, 7, 67, 127
2, 31155, Note_off_c, 11, 70, 127
2, 31224, Note_on_c, 7, 79, 127
2, 31271, Note_off_c, 7, 67, 127
2, 31340, Note_on_c, 3, 75, 127
2, 31386, Note_off_c, 7, 79, 127
2, 31456, Note_on_c, 7, 67, 127
2, 31513, Note_off_c, 7, 55, 127
2, 31557, Note_off_c, 3, 75, 127
2, 31572, Note_on_c, 7, 79, 127
2, 31618, Note_off_c, 7, 67, 127
2, 31688, Note_on_c, 2, 74, 127
2, 31688, Note_on_c, 11, 58, 127
2, 31734, Note_off_c, 7, 79, 127
2, 31804, Note_on_c, 7, 67, 127
2, 31905, Note_off_c, 2, 74, 127
2, 31920, Note_on_c, 7, 79, 127
2, 31966, Note_off_c, 7, 67, 127
2, 32031, Note_off_c, 11, 58, 127
2, 32035, Note_on_c, 1, 73, 127
2, 32035, Note_on_c, 10, 57, 127
2, 32082, Note_off_c, 7, 79, 127
2, 32151, Note_on_c, 10, 69, 127
2, 32197, Note_off_c, 1, 73, 127
2, 32267, Note_on_c, 7, 79, 127
2, 32368, Note_off_c, 10, 69, 127
2, 32378, Note_off_c, 10, 57, 127
2, 32383, Note_on_c, 4, 76, 127
2, 32383, Note_on_c, 7, 55, 127
2, 32429, Note_off_c, 7, 79, 127
2, 32499, Note_on_c, 1, 73, 127
2, 32545, Note_off_c, 4, 76, 127
2, 32615, Note_on_c, 11, 82, 127
2, 32661, Note_off_c, 1, 73, 127
2, 32726, Note_off_c, 7, 55, 127
2, 32730, Note_on_c, 4, 76, 127
2, 32730, Note_on_c, 5, 53, 127
2, 32832, Note_off_c, 11, 82, 127
2, 32846, Note_on_c, 1, 73, 127
2, 32892, Note_off_c, 4, 76, 127
2, 32962, Note_on_c, 10, 81, 127
2, 33008, Note_off_c, 1, 73, 127
2, 33073, Note_off_c, 5, 53, 127
2, 33078, Note_on_c, 4, 76, 127
2, 33078, Note_on_c, 4, 52, 127
2, 33179, Note_off_c, 10, 81, 127
2, 33194, Note_on_c, 1, 73, 127
2, 33240, Note_off_c, 4, 76, 127
2, 33310, Note_on_c, 7, 79, 127
2, 33356, Note_off_c, 1, 73, 127
2, 33418, Note_off_c, 7, 79, 127
2, 33421, Note_off_c, 4, 52, 127
2, 33425, Note_on_c, 5, 77, 127
2, 33425, Note_on_c, 2, 50, 127
2, 33541, Note_on_c, 2, 74, 127
2, 33642, Note_off_c, 5, 77, 127
2, 33657, Note_on_c, 10, 69, 127
2, 33658, Note_off_c, 2, 74, 127
2, 33768, Note_off_c, 2, 50, 127
2, 33773, Note_on_c, 5, 65, 127
2, 33773, Note_on_c, 5, 53, 127
2, 33774, Note_off_c, 10, 69, 127
2, 33889, Note_on_c, 2, 62, 127
2, 33935, Note_off_c, 5, 65, 127
2, 34005, Note_on_c, 10, 69, 127
2, 34051, Note_off_c, 2, 62, 127
2, 34116, Note_off_c, 5, 53, 127
2, 34120, Note_on_c, 5, 65, 127
2, 34120, Note_on_c, 7, 55, 127
2, 34222, Note_off_c, 10, 69, 127
2, 34236, Note_on_c, 2, 62, 127
2, 34282, Note_off_c, 5, 65, 127
2, 34352, Note_on_c, 12, 71, 127
2, 34398, Note_off_c, 2, 62, 127
2, 34463, Note_off_c, 7, 55, 127
2, 34468, Note_on_c, 5, 65, 127
2, 34468, Note_on_c, 10, 57, 127
2, 34569, Note_off_c, 12, 71, 127
2, 34584, Note_on_c, 2, 62, 127
2, 34630, Note_off_c, 5, 65, 127
2, 34700, Note_on_c, 1, 73, 127
2, 34746, Note_off_c, 2, 62, 127
2, 34811, Note_off_c, 10, 57, 127
2, 34816, Note_on_c, 5, 65, 127
2, 34816, Note_on_c, 11, 58, 127
2, 34917, Note_off_c, 1, 73, 127
2, 34931, Note_on_c, 2, 62, 127
2, 34978, Note_off_c, 5, 65, 127
2, 35047, Note_on_c, 2, 74, 127
2, 35093, Note_off_c, 2, 62, 127
2, 35159, Note_off_c, 11, 58, 127
2, 35163, Note_on_c, 5, 65, 127
2, 35163, Note_on_c, 5, 53, 127
2, 35264, Note_off_c, 2, 74, 127
2, 35279, Note_on_c, 2, 62, 127
2, 35325, Note_off_c, 5, 65, 127
2, 35395, Note_on_c, 10, 69, 127
2, 35441, Note_off_c, 2, 62, 127
2, 35506, Note_off_c, 5, 53, 127
2, 35511, Note_on_c, 5, 65, 127
2, 35511, Note_on_c, 7, 55, 127
2, 35612, Note_off_c, 10, 69, 127
2, 35626, Note_on_c, 2, 62, 127
2, 35673, Note_off_c, 5, 65, 127
2, 35742, Note_on_c, 11, 70, 127
2, 35788, Note_off_c, 2, 62, 127
2, 35854, Note_off_c, 7, 55, 127
2, 35858, Note_on_c, 4, 64, 127
2, 35858, Note_on_c, 10, 57, 127
2, 35959, Note_off_c, 11, 70, 127
2, 35974, Note_on_c, 1, 61, 127
2, 36020, Note_off_c, 4, 64, 127
2, 36090, Note_on_c, 10, 69, 127
2, 36136, Note_off_c, 1, 61, 127
2, 36201, Note_off_c, 10, 57, 127
2, 36206, Note_on_c, 4, 64, 127
2, 36206, Note_on_c, 11, 46, 127
2, 36307, Note_off_c, 10, 69, 127
2, 36321, Note_on_c, 1, 61, 127
2, 36368, Note_off_c, 4, 64, 127
2, 36437, Note_on_c, 7, 67, 127
2, 36483, Note_off_c, 1, 61, 127
2, 36549, Note_off_c, 11, 46, 127
2, 36553, Note_on_c, 2, 62, 127
2, 36553, Note_on_c, 5, 41, 127
2, 36654, Note_off_c, 7, 67, 127
2, 36669, Note_on_c, 10, 57, 127
2, 36715, Note_off_c, 2, 62, 127
2, 36785, Note_on_c, 5, 65, 127
2, 36831, Note_off_c, 10, 57, 127
2, 36896, Note_off_c, 5, 41, 127
2, 36901, Note_on_c, 2, 62, 127
2, 36901, Note_on_c, 7, 43, 127
2, 37002, Note_off_c, 5, 65, 127
2, 37016, Note_on_c, 11, 58, 127
2, 37063, Note_off_c, 2, 62, 127
2, 37132, Note_on_c, 4, 64, 127
2, 37178, Note_off_c, 11, 58, 127
2, 37244, Note_off_c, 7, 43, 127
2, 37248, Note_on_c, 0, 60, 127
2, 37248, Note_on_c, 10, 45, 127
2, 37349, Note_off_c, 4, 64, 127
2, 37364, Note_on_c, 5, 53, 127
2, 37410, Note_off_c, 0, 60, 127
2, 37480, Note_on_c, 3, 63, 127
2, 37526, Note_off_c, 5, 53, 127
2, 37591, Note_off_c, 10, 45, 127
2, 37596, Note_on_c, 11, 58, 127
2, 37596, Note_on_c, 11, 46, 127
2, 37697, Note_off_c, 3, 63, 127
2, 37712, Note_on_c, 5, 53, 127
2, 37758, Note_off_c, 11, 58, 127
2, 37827, Note_on_c, 2, 62, 127
2, 37874, Note_off_c, 5, 53, 127
2, 37939, Note_off_c, 11, 46, 127
2, 37943, Note_on_c, 10, 57, 127
2, 37943, Note_on_c, 5, 41, 127
2, 37989, Note_off_c, 2, 62, 127
2, 38059, Note_on_c, 5, 53, 127
2, 38160, Note_off_c, 10, 57, 127
2, 38175, Note_on_c, 2, 62, 127
2, 38221, Note_off_c, 5, 53, 127
2, 38286, Note_off_c, 5, 41, 127
2, 38291, Note_on_c, 11, 58, 127
2, 38291, Note_on_c, 7, 43, 127
2, 38337, Note_off_c, 2, 62, 127
2, 38407, Note_on_c, 4, 52, 127
2, 38508, Note_off_c, 11, 58, 127
2, 38522, Note_on_c, 2, 62, 127
2, 38569, Note_off_c, 4, 52, 127
2, 38634, Note_off_c, 7, 43, 127
2, 38638, Note_on_c, 10, 57, 127
2, 38638, Note_on_c, 10, 45, 127
2, 38684, Note_off_c, 2, 62, 127
2, 38754, Note_on_c, 4, 52, 127
2, 38855, Note_off_c, 10, 57, 127
2, 38870, Note_on_c, 1, 61, 127
2, 38916, Note_off_c, 4, 52, 127
2, 38981, Note_off_c, 10, 45, 127
2, 38986, Note_on_c, 10, 57, 127
2, 38986, Note_on_c, 2, 38, 127
2, 39032, Note_off_c, 1, 61, 127
2, 39118, Note_on_c, 6, 54, 127
2, 39148, Note_off_c, 10, 57, 127
2, 39233, Note_on_c, 10, 57, 127
2, 39280, Note_off_c, 6, 54, 127
2, 39349, Note_on_c, 0, 60, 127
2, 39395, Note_off_c, 10, 57, 127
2, 39465, Note_on_c, 10, 57, 127
2, 39511, Note_off_c, 0, 60, 127
2, 39581, Note_on_c, 0, 60, 127
2, 39627, Note_off_c, 10, 57, 127
2, 39697, Note_on_c, 3, 63, 127
2, 39743, Note_off_c, 0, 60, 127
2, 39813, Note_on_c, 0, 60, 127
2, 39859, Note_off_c, 3, 63, 127
2, 39928, Note_on_c, 3, 63, 127
2, 39975, Note_off_c, 0, 60, 127
2, 40044, Note_on_c, 6, 66, 127
2, 40090, Note_off_c, 3, 63, 127
2, 40160, Note_on_c, 6, 42, 127
2, 40276, Note_on_c, 10, 45, 127
2, 40286, Note_off_c, 6, 42, 127
2, 40387, Note_off_c, 6, 66, 127
2, 40392, Note_on_c, 2, 50, 127
2, 40392, Note_on_c, 11, 58, 127
2, 40402, Note_off_c, 10, 45, 127
2, 40524, Note_on_c, 7, 55, 127
2, 40554, Note_off_c, 11, 58, 127
2, 40640, Note_on_c, 11, 58, 127
2, 40686, Note_off_c, 7, 55, 127
2, 40755, Note_on_c, 2, 62, 127
2, 40802, Note_off_c, 11, 58, 127
2, 40871, Note_on_c, 11, 58, 127
2, 40917, Note_off_c, 2, 62, 127
2, 40987, Note_on_c, 2, 62, 127
2, 41033, Note_off_c, 11, 58, 127
2, 41103, Note_on_c, 7, 67, 127
2, 41149, Note_off_c, 2, 62, 127
2, 41158, Note_off_c, 2, 38, 127
2, 41219, Note_on_c, 2, 62, 127
2, 41265, Note_off_c, 7, 67, 127
2, 41335, Note_on_c, 7, 67, 127
2, 41381, Note_off_c, 2, 62, 127
2, 41450, Note_on_c, 11, 70, 127
2, 41497, Note_off_c, 7, 67, 127
2, 41566, Note_on_c, 7, 55, 127
2, 41682, Note_on_c, 11, 58, 127
2, 41692, Note_off_c, 7, 55, 127
2, 41798, Note_on_c, 1, 61, 127
2, 41808, Note_off_c, 11, 58, 127
2, 41909, Note_off_c, 11, 70, 127
2, 41914, Note_on_c, 7, 67, 127
2, 42030, Note_on_c, 4, 76, 127
2, 42076, Note_off_c, 7, 67, 127
2, 42129, Note_off_c, 2, 50, 127
2, 42145, Note_on_c, 11, 70, 127
2, 42145, Note_on_c, 2, 50, 127
2, 42261, Note_on_c, 7, 67, 127
2, 42307, Note_off_c, 11, 70, 127
2, 42319, Note_off_c, 4, 76, 127
2, 42377, Note_on_c, 7, 79, 127
2, 42423, Note_off_c, 7, 67, 127
2, 42485, Note_off_c, 1, 61, 127
2, 42493, Note_on_c, 11, 70, 127
2, 42493, Note_on_c, 1, 61, 127
2, 42609, Note_on_c, 7, 67, 127
2, 42655, Note_off_c, 11, 70, 127
2, 42666, Note_off_c, 7, 79, 127
2, 42725, Note_on_c, 4, 76, 127
2, 42771, Note_off_c, 7, 67, 127
2, 42832, Note_off_c, 2, 50, 127
2, 42840, Note_on_c, 11, 70, 127
2, 42840, Note_on_c, 2, 50, 127
2, 42956, Note_on_c, 7, 67, 127
2, 43002, Note_off_c, 11, 70, 127
2, 43014, Note_off_c, 4, 76, 127
2, 43072, Note_on_c, 1, 73, 127
2, 43118, Note_off_c, 7, 67, 127
2, 43180, Note_off_c, 1, 61, 127
2, 43188, Note_on_c, 11, 70, 127
2, 43188, Note_on_c, 1, 61, 127
2, 43304, Note_on_c, 7, 67, 127
2, 43350, Note_off_c, 11, 70, 127
2, 43361, Note_off_c, 1, 73, 127
2, 43420, Note_on_c, 4, 76, 127
2, 43466, Note_off_c, 7, 67, 127
2, 43527, Note_off_c, 2, 50, 127
2, 43536, Note_on_c, 11, 70, 127
2, 43536, Note_on_c, 2, 50, 127
2, 43651, Note_on_c, 7, 67, 127
2, 43698, Note_off_c, 11, 70, 127
2, 43709, Note_off_c, 4, 76, 127
2, 43767, Note_on_c, 7, 79, 127
2, 43813, Note_off_c, 7, 67, 127
2, 43875, Note_off_c, 1, 61, 127
2, 43883, Note_on_c, 11, 70, 127
2, 43883, Note_on_c, 1, 61, 127
2, 43999, Note_on_c, 7, 67, 127
2, 44045, Note_off_c, 11, 70, 127
2, 44056, Note_off_c, 7, 79, 127
2, 44115, Note_on_c, 4, 76, 127
2, 44161, Note_off_c, 7, 67, 127
2, 44223, Note_off_c, 2, 50, 127
2, 44231, Note_on_c, 11, 70, 127
2, 44231, Note_on_c, 2, 50, 127
2, 44346, Note_on_c, 7, 67, 127
2, 44393, Note_off_c, 11, 70, 127
2, 44404, Note_off_c, 4, 76, 127
2, 44462, Note_on_c, 1, 73, 127
2, 44508, Note_off_c, 7, 67, 127
2, 44570, Note_off_c, 1, 61, 127
2, 44578, Note_on_c, 10, 69, 127
2, 44578, Note_on_c, 0, 60, 127
2, 44694, Note_on_c, 6, 66, 127
2, 44740, Note_off_c, 10, 69, 127
2, 44751, Note_off_c, 1, 73, 127
2, 44810, Note_on_c, 2, 74, 127
2, 44856, Note_off_c, 6, 66, 127
2, 44918, Note_off_c, 2, 50, 127
2, 44926, Note_on_c, 10, 69, 127
2, 44926, Note_on_c, 2, 50, 127
2, 45041, Note_on_c, 6, 66, 127
2, 45088, Note_off_c, 10, 69, 127
2, 45099, Note_off_c, 2, 74, 127
2, 45157, Note_on_c, 3, 75, 127
2, 45203, Note_off_c, 6, 66, 127
2, 45265, Note_off_c, 0, 60, 127
2, 45273, Note_on_c, 10, 69, 127
2, 45273, Note_on_c, 0, 60, 127
2, 45389, Note_on_c, 6, 66, 127
2, 45435, Note_off_c, 10, 69, 127
2, 45446, Note_off_c, 3, 75, 127
2, 45505, Note_on_c, 2, 74, 127
2, 45551, Note_off_c, 6, 66, 127
2, 45613, Note_off_c, 2, 50, 127
2, 45621, Note_on_c, 10, 69, 127
2, 45621, Note_on_c, 2, 50, 127
2, 45736, Note_on_c, 6, 66, 127
2, 45783, Note_off_c, 10, 69, 127
2, 45794, Note_off_c, 2, 74, 127
2, 45852, Note_on_c, 0, 72, 127
2, 45898, Note_off_c, 6, 66, 127
2, 45960, Note_off_c, 0, 60, 127
2, 45968, Note_on_c, 10, 69, 127
2, 45968, Note_on_c, 0, 60, 127
2, 46084, Note_on_c, 6, 66, 127
2, 46130, Note_off_c, 10, 69, 127
2, 46141, Note_off_c, 0, 72, 127
2, 46200, Note_on_c, 2, 74, 127
2, 46246, Note_off_c, 6, 66, 127
2, 46308, Note_off_c, 2, 50, 127
2, 46316, Note_on_c, 10, 69, 127
2, 46316, Note_on_c, 2, 50, 127
2, 46432, Note_on_c, 6, 66, 127
2, 46478, Note_off_c, 10, 69, 127
2, 46489, Note_off_c, 2, 74, 127
2, 46547, Note_on_c, 3, 75, 127
2, 46594, Note_off_c, 6, 66, 127
2, 46655, Note_off_c, 0, 60, 127
2, 46663, Note_on_c, 10, 69, 127
2, 46663, Note_on_c, 0, 60, 127
2, 46779, Note_on_c, 6, 66, 127
2, 46825, Note_off_c, 10, 69, 127
2, 46836, Note_off_c, 3, 75, 127
2, 46895, Note_on_c, 2, 74, 127
2, 46941, Note_off_c, 6, 66, 127
2, 47003, Note_off_c, 2, 50, 127
2, 47011, Note_on_c, 10, 69, 127
2, 47011, Note_on_c, 2, 50, 127
2, 47127, Note_on_c, 6, 66, 127
2, 47173, Note_off_c, 10, 69, 127
2, 47184, Note_off_c, 2, 74, 127
2, 47242, Note_on_c, 0, 72, 127
2, 47289, Note_off_c, 6, 66, 127
2, 47350, Note_off_c, 0, 60, 127
2, 47358, Note_on_c, 7, 67, 127
2, 47358, Note_on_c, 11, 58, 127
2, 47404, Note_off_c, 0, 72, 127
2, 47474, Note_on_c, 2, 62, 127
2, 47520, Note_off_c, 7, 67, 127
2, 47590, Note_on_c, 7, 67, 127
2, 47636, Note_off_c, 2, 62, 127
2, 47698, Note_off_c, 2, 50, 127
2, 47706, Note_on_c, 11, 70, 127
2, 47706, Note_on_c, 2, 50, 127
2, 47752, Note_off_c, 7, 67, 127
2, 47822, Note_on_c, 7, 67, 127
2, 47868, Note_off_c, 11, 70, 127
2, 47937, Note_on_c, 11, 70, 127
2, 47984, Note_off_c, 7, 67, 127
2, 48045, Note_off_c, 11, 58, 127
2, 48053, Note_on_c, 2, 74, 127
2, 48053, Note_on_c, 11, 58, 127
2, 48099, Note_off_c, 11, 70, 127
2, 48169, Note_on_c, 11, 70, 127
2, 48215, Note_off_c, 2, 74, 127
2, 48285, Note_on_c, 2, 74, 127
2, 48331, Note_off_c, 11, 70, 127
2, 48393, Note_off_c, 2, 50, 127
2, 48401, Note_on_c, 7, 79, 127
2, 48401, Note_on_c, 2, 50, 127
2, 48447, Note_off_c, 2, 74, 127
2, 48517, Note_on_c, 2, 74, 127
2, 48563, Note_off_c, 7, 79, 127
2, 48632, Note_on_c, 7, 79, 127
2, 48679, Note_off_c, 2, 74, 127
2, 48740, Note_off_c, 11, 58, 127
2, 48748, Note_on_c, 11, 82, 127
2, 48748, Note_on_c, 7, 55, 127
2, 48794, Note_off_c, 7, 79, 127
2, 48864, Note_on_c, 10, 81, 127
2, 48910, Note_off_c, 11, 82, 127
2, 48980, Note_on_c, 7, 79, 127
2, 49026, Note_off_c, 10, 81, 127
2, 49088, Note_off_c, 2, 50, 127
2, 49096, Note_on_c, 5, 77, 127
2, 49096, Note_on_c, 2, 50, 127
2, 49142, Note_off_c, 7, 79, 127
2, 49212, Note_on_c, 4, 76, 127
2, 49258, Note_off_c, 5, 77, 127
2, 49328, Note_on_c, 2, 74, 127
2, 49374, Note_off_c, 4, 76, 127
2, 49435, Note_off_c, 7, 55, 127
2, 49443, Note_on_c, 1, 73, 127
2, 49443, Note_on_c, 7, 55, 127
2, 49490, Note_off_c, 2, 74, 127
2, 49559, Note_on_c, 10, 69, 127
2, 49605, Note_off_c, 1, 73, 127
2, 49675, Note_on_c, 1, 73, 127
2, 49721, Note_off_c, 10, 69, 127
2, 49783, Note_off_c, 2, 50, 127
2, 49791, Note_on_c, 4, 76, 127
2, 49791, Note_on_c, 2, 50, 127
2, 49837, Note_off_c, 1, 73, 127
2, 49907, Note_on_c, 1, 73, 127
2, 49953, Note_off_c, 4, 76, 127
2, 50023, Note_on_c, 4, 76, 127
2, 50069, Note_off_c, 1, 73, 127
2, 50130, Note_off_c, 7, 55, 127
2, 50138, Note_on_c, 7, 79, 127
2, 50138, Note_on_c, 4, 52, 127
2, 50185, Note_off_c, 4, 76, 127
2, 50254, Note_on_c, 4, 76, 127
2, 50300, Note_off_c, 7, 79, 127
2, 50370, Note_on_c, 2, 74, 127
2, 50416, Note_off_c, 4, 76, 127
2, 50478, Note_off_c, 2, 50, 127
2, 50486, Note_on_c, 1, 73, 127
2, 50486, Note_on_c, 2, 50, 127
2, 50532, Note_off_c, 2, 74, 127
2, 50602, Note_on_c, 12, 71, 127
2, 50648, Note_off_c, 1, 73, 127
2, 50718, Note_on_c, 10, 69, 127
2, 50764, Note_off_c, 12, 71, 127
2, 50825, Note_off_c, 4, 52, 127
2, 50833, Note_on_c, 7, 67, 127
2, 50833, Note_on_c, 4, 52, 127
2, 50880, Note_off_c, 10, 69, 127
2, 50949, Note_on_c, 4, 64, 127
2, 50995, Note_off_c, 7, 67, 127
2, 51065, Note_on_c, 7, 67, 127
2, 51111, Note_off_c, 4, 64, 127
2, 51173, Note_off_c, 2, 50, 127
2, 51181, Note_on_c, 11, 70, 127
2, 51181, Note_on_c, 2, 50, 127
2, 51227, Note_off_c, 7, 67, 127
2, 51297, Note_on_c, 7, 67, 127
2, 51343, Note_off_c, 11, 70, 127
2, 51413, Note_on_c, 11, 70, 127
2, 51459, Note_off_c, 7, 67, 127
2, 51520, Note_off_c, 4, 52, 127
2, 51528, Note_on_c, 1, 73, 127
2, 51528, Note_on_c, 4, 52, 127
2, 51575, Note_off_c, 11, 70, 127
2, 51644, Note_on_c, 7, 67, 127
2, 51745, Note_off_c, 1, 73, 127
2, 51760, Note_on_c, 4, 76, 127
2, 51806, Note_off_c, 7, 67, 127
2, 51868, Note_off_c, 2, 50, 127
2, 51876, Note_on_c, 1, 73, 127
2, 51876, Note_on_c, 2, 50, 127
2, 51922, Note_off_c, 4, 76, 127
2, 51992, Note_on_c, 11, 70, 127
2, 52093, Note_off_c, 1, 73, 127
2, 52108, Note_on_c, 4, 76, 127
2, 52154, Note_off_c, 11, 70, 127
2, 52215, Note_off_c, 4, 52, 127
2, 52224, Note_on_c, 1, 73, 127
2, 52224, Note_on_c, 4, 52, 127
2, 52270, Note_off_c, 4, 76, 127
2, 52339, Note_on_c, 10, 69, 127
2, 52441, Note_off_c, 1, 73, 127
2, 52455, Note_on_c, 4, 76, 127
2, 52501, Note_off_c, 10, 69, 127
2, 52563, Note_off_c, 2, 50, 127
2, 52571, Note_on_c, 1, 73, 127
2, 52571, Note_on_c, 2, 50, 127
2, 52617, Note_off_c, 4, 76, 127
2, 52687, Note_on_c, 7, 67, 127
2, 52788, Note_off_c, 1, 73, 127
2, 52803, Note_on_c, 4, 76, 127
2, 52849, Note_off_c, 7, 67, 127
2, 52911, Note_off_c, 4, 52, 127
2, 52919, Note_on_c, 0, 72, 127
2, 52919, Note_on_c, 6, 54, 127
2, 52965, Note_off_c, 4, 76, 127
2, 53034, Note_on_c, 10, 69, 127
2, 53118, Note_off_c, 0, 72, 127
2, 53150, Note_on_c, 2, 74, 127
2, 53196, Note_off_c, 10, 69, 127
2, 53258, Note_off_c, 2, 50, 127
2, 53266, Note_on_c, 11, 70, 127
2, 53266, Note_on_c, 2, 50, 127
2, 53312, Note_off_c, 2, 74, 127
2, 53382, Note_on_c, 7, 67, 127
2, 53465, Note_off_c, 11, 70, 127
2, 53498, Note_on_c, 3, 75, 127
2, 53544, Note_off_c, 7, 67, 127
2, 53606, Note_off_c, 6, 54, 127
2, 53614, Note_on_c, 10, 69, 127
2, 53614, Note_on_c, 6, 54, 127
2, 53660, Note_off_c, 3, 75, 127
2, 53729, Note_on_c, 6, 66, 127
2, 53795, Note_off_c, 10, 69, 127
2, 53845, Note_on_c, 2, 74, 127
2, 53891, Note_off_c, 6, 66, 127
2, 53953, Note_off_c, 2, 50, 127
2, 53961, Note_on_c, 10, 69, 127
2, 53961, Note_on_c, 2, 50, 127
2, 54007, Note_off_c, 2, 74, 127
2, 54077, Note_on_c, 6, 66, 127
2, 54123, Note_off_c, 10, 69, 127
2, 54193, Note_on_c, 0, 72, 127
2, 54239, Note_off_c, 6, 66, 127
2, 54301, Note_off_c, 6, 54, 127
2, 54309, Note_on_c, 7, 67, 127
2, 54309, Note_on_c, 7, 55, 127
2, 54355, Note_off_c, 0, 72, 127
2, 54424, Note_on_c, 2, 62, 127
2, 54526, Note_off_c, 7, 67, 127
2, 54540, Note_on_c, 11, 70, 127
2, 54586, Note_off_c, 2, 62, 127
2, 54652, Note_off_c, 7, 55, 127
2, 54656, Note_on_c, 7, 67, 127
2, 54656, Note_on_c, 10, 57, 127
2, 54702, Note_off_c, 11, 70, 127
2, 54772, Note_on_c, 5, 65, 127
2, 54873, Note_off_c, 7, 67, 127
2, 54888, Note_on_c, 11, 70, 127
2, 54934, Note_off_c, 5, 65, 127
2, 54999, Note_off_c, 10, 57, 127
2, 55004, Note_on_c, 7, 67, 127
2, 55004, Note_on_c, 7, 55, 127
2, 55050, Note_off_c, 11, 70, 127
2, 55120, Note_on_c, 3, 63, 127
2, 55221, Note_off_c, 7, 67, 127
2, 55235, Note_on_c, 11, 70, 127
2, 55282, Note_off_c, 3, 63, 127
2, 55347, Note_off_c, 7, 55, 127
2, 55351, Note_on_c, 7, 67, 127
2, 55351, Note_on_c, 5, 53, 127
2, 55397, Note_off_c, 11, 70, 127
2, 55467, Note_on_c, 2, 62, 127
2, 55568, Note_off_c, 7, 67, 127
2, 55583, Note_on_c, 11, 70, 127
2, 55629, Note_off_c, 2, 62, 127
2, 55694, Note_off_c, 5, 53, 127
2, 55699, Note_on_c, 7, 67, 127
2, 55699, Note_on_c, 4, 52, 127
2, 55745, Note_off_c, 11, 70, 127
2, 55815, Note_on_c, 1, 61, 127
2, 55916, Note_off_c, 7, 67, 127
2, 55930, Note_on_c, 11, 70, 127
2, 55977, Note_off_c, 1, 61, 127
2, 56042, Note_off_c, 4, 52, 127
2, 56046, Note_on_c, 4, 64, 127
2, 56046, Note_on_c, 7, 55, 127
2, 56092, Note_off_c, 11, 70, 127
2, 56162, Note_on_c, 1, 61, 127
2, 56254, Note_off_c, 4, 64, 127
2, 56278, Note_on_c, 11, 70, 127
2, 56324, Note_off_c, 1, 61, 127
2, 56389, Note_off_c, 7, 55, 127
2, 56394, Note_on_c, 4, 64, 127
2, 56394, Note_on_c, 5, 53, 127
2, 56440, Note_off_c, 11, 70, 127
2, 56510, Note_on_c, 1, 61, 127
2, 56593, Note_off_c, 4, 64, 127
2, 56625, Note_on_c, 10, 69, 127
2, 56672, Note_off_c, 1, 61, 127
2, 56737, Note_off_c, 5, 53, 127
2, 56741, Note_on_c, 4, 64, 127
2, 56741, Note_on_c, 4, 52, 127
2, 56787, Note_off_c, 10, 69, 127
2, 56857, Note_on_c, 1, 61, 127
2, 56931, Note_off_c, 4, 64, 127
2, 56973, Note_on_c, 7, 67, 127
2, 57019, Note_off_c, 1, 61, 127
2, 57084, Note_off_c, 2, 50, 127
2, 57097, Note_off_c, 4, 52, 127
2, 57099, Note_on_c, 2, 50, 127
2, 57099, Note_on_c, 8, 44, 127
2, 57099, Note_on_c, 2, 62, 127
2, 57135, Note_off_c, 7, 67, 127
2, 57221, Note_on_c, 12, 59, 127
2, 57261, Note_off_c, 2, 62, 127
2, 57336, Note_on_c, 5, 65, 127
2, 57383, Note_off_c, 12, 59, 127
2, 57442, Note_off_c, 2, 50, 127
2, 57452, Note_on_c, 4, 52, 127
2, 57452, Note_on_c, 2, 62, 127
2, 57498, Note_off_c, 5, 65, 127
2, 57568, Note_on_c, 1, 61, 127
2, 57614, Note_off_c, 2, 62, 127
2, 57684, Note_on_c, 5, 65, 127
2, 57730, Note_off_c, 1, 61, 127
2, 57795, Note_off_c, 4, 52, 127
2, 57800, Note_on_c, 5, 53, 127
2, 57800, Note_on_c, 2, 62, 127
2, 57846, Note_off_c, 5, 65, 127
2, 57916, Note_on_c, 12, 59, 127
2, 57962, Note_off_c, 2, 62, 127
2, 58032, Note_on_c, 5, 65, 127
2, 58078, Note_off_c, 12, 59, 127
2, 58139, Note_off_c, 8, 44, 127
2, 58147, Note_on_c, 10, 45, 127
2, 58147, Note_on_c, 2, 62, 127
2, 58194, Note_off_c, 5, 65, 127
2, 58263, Note_on_c, 10, 57, 127
2, 58309, Note_off_c, 2, 62, 127
2, 58379, Note_on_c, 5, 65, 127
2, 58425, Note_off_c, 10, 57, 127
2, 58487, Note_off_c, 5, 53, 127
2, 58490, Note_off_c, 10, 45, 127
2, 58503, Note_on_c, 4, 52, 127
2, 58503, Note_on_c, 11, 46, 127
2, 58503, Note_on_c, 1, 61, 127
2, 58541, Note_off_c, 5, 65, 127
2, 58627, Note_on_c, 7, 55, 127
2, 58665, Note_off_c, 1, 61, 127
2, 58743, Note_on_c, 4, 64, 127
2, 58789, Note_off_c, 7, 55, 127
2, 58846, Note_off_c, 4, 52, 127
2, 58858, Note_on_c, 1, 61, 127
2, 58858, Note_on_c, 7, 55, 127
2, 58905, Note_off_c, 4, 64, 127
2, 58974, Note_on_c, 11, 58, 127
2, 59020, Note_off_c, 1, 61, 127
2, 59090, Note_on_c, 4, 64, 127
2, 59136, Note_off_c, 11, 58, 127
2, 59201, Note_off_c, 7, 55, 127
2, 59206, Note_on_c, 1, 61, 127
2, 59206, Note_on_c, 5, 53, 127
2, 59252, Note_off_c, 4, 64, 127
2, 59322, Note_on_c, 10, 57, 127
2, 59368, Note_off_c, 1, 61, 127
2, 59438, Note_on_c, 4, 64, 127
2, 59484, Note_off_c, 10, 57, 127
2, 59549, Note_off_c, 5, 53, 127
2, 59553, Note_on_c, 1, 61, 127
2, 59553, Note_on_c, 4, 52, 127
2, 59600, Note_off_c, 4, 64, 127
2, 59669, Note_on_c, 7, 55, 127
2, 59715, Note_off_c, 1, 61, 127
2, 59785, Note_on_c, 4, 64, 127
2, 59831, Note_off_c, 7, 55, 127
2, 59891, Note_off_c, 11, 46, 127
2, 59896, Note_off_c, 4, 52, 127
2, 59901, Note_on_c, 12, 59, 127
2, 59901, Note_on_c, 12, 47, 127
2, 59901, Note_on_c, 5, 53, 127
2, 59947, Note_off_c, 4, 64, 127
2, 60033, Note_on_c, 8, 56, 127
2, 60063, Note_off_c, 12, 59, 127
2, 60149, Note_on_c, 2, 62, 127
2, 60195, Note_off_c, 8, 56, 127
2, 60244, Note_off_c, 5, 53, 127
2, 60264, Note_on_c, 4, 52, 127
2, 60264, Note_on_c, 1, 61, 127
2, 60311, Note_off_c, 2, 62, 127
2, 60380, Note_on_c, 8, 56, 127
2, 60426, Note_off_c, 1, 61, 127
2, 60496, Note_on_c, 4, 64, 127
2, 60542, Note_off_c, 8, 56, 127
2, 60607, Note_off_c, 4, 52, 127
2, 60612, Note_on_c, 5, 53, 127
2, 60612, Note_on_c, 2, 62, 127
2, 60658, Note_off_c, 4, 64, 127
2, 60728, Note_on_c, 8, 56, 127
2, 60774, Note_off_c, 2, 62, 127
2, 60844, Note_on_c, 5, 65, 127
2, 60890, Note_off_c, 8, 56, 127
2, 60941, Note_off_c, 12, 47, 127
2, 60952, Note_off_c, 5, 65, 127
2, 60960, Note_on_c, 11, 46, 127
2, 60960, Note_on_c, 7, 55, 127
2, 61073, Note_off_c, 5, 53, 127
2, 61075, Note_on_c, 4, 52, 127
2, 61191, Note_on_c, 2, 50, 127
2, 61201, Note_off_c, 4, 52, 127
2, 61303, Note_off_c, 11, 46, 127
2, 61307, Note_on_c, 10, 45, 127
2, 61307, Note_on_c, 1, 49, 127
2, 61317, Note_off_c, 2, 50, 127
2, 61419, Note_off_c, 7, 55, 127
2, 61423, Note_on_c, 4, 52, 127
2, 61555, Note_on_c, 7, 55, 127
2, 61585, Note_off_c, 4, 52, 127
2, 61650, Note_off_c, 1, 49, 127
2, 61671, Note_on_c, 1, 61, 127
2, 61671, Note_on_c, 4, 52, 127
2, 61717, Note_off_c, 7, 55, 127
2, 61786, Note_on_c, 7, 55, 127
2, 61833, Note_off_c, 1, 61, 127
2, 61902, Note_on_c, 1, 61, 127
2, 61948, Note_off_c, 7, 55, 127
2, 62014, Note_off_c, 4, 52, 127
2, 62018, Note_on_c, 4, 64, 127
2, 62018, Note_on_c, 7, 55, 127
2, 62064, Note_off_c, 1, 61, 127
2, 62134, Note_on_c, 1, 61, 127
2, 62180, Note_off_c, 4, 64, 127
2, 62250, Note_on_c, 4, 64, 127
2, 62296, Note_off_c, 1, 61, 127
2, 62361, Note_off_c, 7, 55, 127
2, 62366, Note_on_c, 7, 67, 127
2, 62366, Note_on_c, 11, 58, 127
2, 62412, Note_off_c, 4, 64, 127
2, 62452, Note_off_c, 10, 45, 127
2, 62481, Note_on_c, 1, 49, 127
2, 62597, Note_on_c, 4, 52, 127
2, 62607, Note_off_c, 1, 49, 127
2, 62709, Note_off_c, 11, 58, 127
2, 62709, Note_off_c, 7, 67, 127
2, 62713, Note_on_c, 5, 65, 127
2, 62713, Note_on_c, 10, 57, 127
2, 62723, Note_off_c, 4, 52, 127
2, 62845, Note_on_c, 2, 62, 127
2, 62875, Note_off_c, 5, 65, 127
2, 62961, Note_on_c, 5, 65, 127
2, 63007, Note_off_c, 2, 62, 127
2, 63077, Note_on_c, 2, 62, 127
2, 63077, Note_on_c, 10, 69, 127
2, 63123, Note_off_c, 5, 65, 127
2, 63192, Note_on_c, 5, 65, 127
2, 63239, Note_off_c, 10, 69, 127
2, 63308, Note_on_c, 10, 69, 127
2, 63354, Note_off_c, 5, 65, 127
2, 63420, Note_off_c, 2, 62, 127
2, 63424, Note_on_c, 5, 65, 127
2, 63424, Note_on_c, 2, 74, 127
2, 63470, Note_off_c, 10, 69, 127
2, 63540, Note_on_c, 10, 69, 127
2, 63586, Note_off_c, 2, 74, 127
2, 63656, Note_on_c, 2, 74, 127
2, 63702, Note_off_c, 10, 69, 127
2, 63767, Note_off_c, 5, 65, 127
2, 63772, Note_on_c, 10, 69, 127
2, 63772, Note_on_c, 5, 77, 127
2, 63818, Note_off_c, 2, 74, 127
2, 63858, Note_off_c, 10, 57, 127
2, 63888, Note_on_c, 2, 62, 127
2, 64003, Note_on_c, 5, 65, 127
2, 64014, Note_off_c, 2, 62, 127
2, 64115, Note_off_c, 10, 69, 127
2, 64119, Note_on_c, 8, 68, 127
2, 64129, Note_off_c, 5, 65, 127
2, 64231, Note_off_c, 5, 77, 127
2, 64251, Note_on_c, 12, 71, 127
2, 64367, Note_on_c, 2, 74, 127
2, 64413, Note_off_c, 12, 71, 127
2, 64483, Note_on_c, 5, 77, 127
2, 64529, Note_off_c, 2, 74, 127
2, 64599, Note_on_c, 2, 74, 127
2, 64640, Note_off_c, 8, 68, 127
2, 64645, Note_off_c, 5, 77, 127
2, 64714, Note_on_c, 5, 77, 127
2, 64761, Note_off_c, 2, 74, 127
2, 64830, Note_on_c, 8, 80, 127
2, 64876, Note_off_c, 5, 77, 127
2, 64946, Note_on_c, 5, 77, 127
2, 64992, Note_off_c, 8, 80, 127
2, 65062, Note_on_c, 8, 80, 127
2, 65108, Note_off_c, 5, 77, 127
2, 65178, Note_on_c, 12, 83, 127
2, 65224, Note_off_c, 8, 80, 127
2, 65294, Note_on_c, 8, 80, 127
2, 65409, Note_on_c, 5, 77, 127
2, 65502, Note_off_c, 8, 80, 127
2, 65503, Note_off_c, 12, 83, 127
2, 65525, Note_on_c, 11, 82, 127
2, 65565, Note_off_c, 5, 77, 127
2, 65625, Note_on_c, 7, 79, 127
2, 65727, Note_on_c, 4, 76, 127
2, 65807, Note_off_c, 7, 79, 127
2, 65809, Note_off_c, 11, 82, 127
2, 65829, Note_on_c, 10, 81, 127
2, 65867, Note_off_c, 4, 76, 127
2, 65925, Note_on_c, 6, 78, 127
2, 66023, Note_on_c, 3, 75, 127
2, 66100, Note_off_c, 6, 78, 127
2, 66102, Note_off_c, 10, 81, 127
2, 66121, Note_on_c, 8, 80, 127
2, 66159, Note_off_c, 3, 75, 127
2, 66216, Note_on_c, 5, 77, 127
2, 66313, Note_on_c, 2, 74, 127
2, 66389, Note_off_c, 5, 77, 127
2, 66391, Note_off_c, 8, 80, 127
2, 66410, Note_on_c, 7, 79, 127
2, 66448, Note_off_c, 2, 74, 127
2, 66505, Note_on_c, 4, 76, 127
2, 66602, Note_on_c, 1, 73, 127
2, 66678, Note_off_c, 4, 76, 127
2, 66680, Note_off_c, 7, 79, 127
2, 66699, Note_on_c, 6, 78, 127
2, 66737, Note_off_c, 1, 73, 127
2, 66794, Note_on_c, 3, 75, 127
2, 66891, Note_on_c, 0, 72, 127
2, 66967, Note_off_c, 3, 75, 127
2, 66969, Note_off_c, 6, 78, 127
2, 66987, Note_on_c, 5, 77, 127
2, 67026, Note_off_c, 0, 72, 127
2, 67082, Note_on_c, 2, 74, 127
2, 67179, Note_on_c, 12, 71, 127
2, 67255, Note_off_c, 2, 74, 127
2, 67257, Note_off_c, 5, 77, 127
2, 67276, Note_on_c, 4, 76, 127
2, 67314, Note_off_c, 12, 71, 127
2, 67371, Note_on_c, 1, 73, 127
2, 67468, Note_on_c, 11, 70, 127
2, 67544, Note_off_c, 1, 73, 127
2, 67546, Note_off_c, 4, 76, 127
2, 67565, Note_on_c, 3, 75, 127
2, 67603, Note_off_c, 11, 70, 127
2, 67660, Note_on_c, 0, 72, 127
2, 67757, Note_on_c, 10, 69, 127
2, 67833, Note_off_c, 0, 72, 127
2, 67835, Note_off_c, 3, 75, 127
2, 67850, Note_on_c, 2, 74, 127
2, 67943, Note_off_c, 10, 69, 127
2, 68365, Note_off_c, 2, 74, 127
2, 68387, Note_on_c, 12, 47, 127
2, 68389, Note_on_c, 2, 62, 127
2, 68389, Note_on_c, 12, 71, 127
2, 68389, Note_on_c, 2, 74, 127
2, 68389, Note_on_c, 5, 65, 127
2, 68389, Note_on_c, 8, 56, 127
2, 68389, Note_on_c, 2, 50, 127
2, 68389, Note_on_c, 5, 53, 127
2, 69018, Note_off_c, 12, 47, 127
2, 69020, Note_off_c, 5, 53, 127
2, 69020, Note_off_c, 2, 50, 127
2, 69020, Note_off_c, 8, 56, 127
2, 69020, Note_off_c, 5, 65, 127
2, 69020, Note_off_c, 2, 74, 127
2, 69020, Note_off_c, 12, 71, 127
2, 69020, Note_off_c, 2, 62, 127
2, 69023, Note_on_c, 10, 45, 127
2, 69024, Note_on_c, 10, 69, 127
2, 69024, Note_on_c, 2, 74, 127
2, 69024, Note_on_c, 2, 62, 127
2, 69024, Note_on_c, 5, 65, 127
2, 69024, Note_on_c, 10, 57, 127
2, 69024, Note_on_c, 2, 50, 127
2, 69024, Note_on_c, 5, 53, 127
2, 69654, Note_off_c, 10, 45, 127
2, 69655, Note_off_c, 5, 53, 127
2, 69655, Note_off_c, 2, 50, 127
2, 69655, Note_off_c, 10, 57, 127
2, 69655, Note_off_c, 5, 65, 127
2, 69655, Note_off_c, 2, 62, 127
2, 69655, Note_off_c, 2, 74, 127
2, 69655, Note_off_c, 10, 69, 127
2, 69658, Note_on_c, 10, 45, 127
2, 69660, Note_on_c, 1, 73, 127
2, 69660, Note_on_c, 7, 67, 127
2, 69660, Note_on_c, 4, 64, 127
2, 69660, Note_on_c, 10, 57, 127
2, 69660, Note_on_c, 4, 52, 127
2, 70289, Note_off_c, 10, 45, 127
2, 70291, Note_off_c, 4, 52, 127
2, 70291, Note_off_c, 10, 57, 127
2, 70291, Note_off_c, 4, 64, 127
2, 70291, Note_off_c, 7, 67, 127
2, 70291, Note_off_c, 1, 73, 127
2, 70294, Note_on_c, 2, 38, 127
2, 70296, Note_on_c, 10, 45, 127
2, 70298, Note_on_c, 2, 50, 127
2, 70299, Note_on_c, 2, 62, 127
2, 70301, Note_on_c, 6, 66, 127
2, 70303, Note_on_c, 10, 69, 127
2, 70305, Note_on_c, 2, 74, 127
2, 74533, Note_off_c, 2, 38, 127
2, 74535, Note_off_c, 10, 45, 127
2, 74537, Note_off_c, 2, 50, 127
2, 74538, Note_off_c, 2, 62, 127
2, 74540, Note_off_c, 6, 66, 127
2, 74542, Note_off_c, 10, 69, 127
2, 74544, Note_off_c, 2, 74, 127
2, 74728, Note_on_c, 2, 62, 127
2, 75066, Note_off_c, 2, 62, 127
2, 75070, Note_on_c, 4, 64, 127
2, 75408, Note_off_c, 4, 64, 127
2, 75412, Note_on_c, 5, 65, 127
2, 75750, Note_off_c, 5, 65, 127
2, 75754, Note_on_c, 7, 67, 127
2, 76092, Note_off_c, 7, 67, 127
2, 76096, Note_on_c, 4, 64, 127
2, 76434, Note_off_c, 4, 64, 127
2, 76439, Note_on_c, 5, 65, 127
2, 76607, Note_off_c, 5, 65, 127
2, 76611, Note_on_c, 2, 62, 127
2, 76779, Note_off_c, 2, 62, 127
2, 76782, Note_on_c, 1, 61, 127
2, 76950, Note_off_c, 1, 61, 127
2, 76954, Note_on_c, 2, 62, 127
2, 77122, Note_off_c, 2, 62, 127
2, 77126, Note_on_c, 11, 70, 127
2, 77806, Note_off_c, 11, 70, 127
2, 77811, Note_on_c, 10, 69, 127
2, 77925, Note_on_c, 7, 67, 127
2, 77935, Note_off_c, 10, 69, 127
2, 78039, Note_on_c, 10, 69, 127
2, 78049, Note_off_c, 7, 67, 127
2, 78153, Note_on_c, 7, 67, 127
2, 78163, Note_off_c, 10, 69, 127
2, 78267, Note_on_c, 5, 65, 127
2, 78277, Note_off_c, 7, 67, 127
2, 78381, Note_on_c, 7, 67, 127
2, 78391, Note_off_c, 5, 65, 127
2, 78495, Note_on_c, 10, 69, 127
2, 78505, Note_off_c, 7, 67, 127
2, 78837, Note_on_c, 10, 57, 127
2, 79175, Note_off_c, 10, 57, 127
2, 79179, Note_on_c, 12, 59, 127
2, 79347, Note_off_c, 10, 69, 127
2, 79351, Note_on_c, 7, 67, 127
2, 79519, Note_off_c, 7, 67, 127
2, 79519, Note_off_c, 12, 59, 127
2, 79523, Note_on_c, 1, 61, 127
2, 79523, Note_on_c, 5, 65, 127
2, 79691, Note_off_c, 5, 65, 127
2, 79695, Note_on_c, 4, 64, 127
2, 79863, Note_off_c, 4, 64, 127
2, 79863, Note_off_c, 1, 61, 127
2, 79867, Note_on_c, 2, 62, 127
2, 79867, Note_on_c, 7, 67, 127
2, 80035, Note_off_c, 7, 67, 127
2, 80039, Note_on_c, 5, 65, 127
2, 80207, Note_off_c, 5, 65, 127
2, 80207, Note_off_c, 2, 62, 127
2, 80211, Note_on_c, 12, 59, 127
2, 80211, Note_on_c, 4, 64, 127
2, 80379, Note_off_c, 4, 64, 127
2, 80383, Note_on_c, 2, 62, 127
2, 80551, Note_off_c, 2, 62, 127
2, 80551, Note_off_c, 12, 59, 127
2, 80555, Note_on_c, 0, 60, 127
2, 80555, Note_on_c, 4, 64, 127
2, 80723, Note_off_c, 0, 60, 127
2, 80726, Note_on_c, 10, 57, 127
2, 80894, Note_off_c, 10, 57, 127
2, 80895, Note_off_c, 4, 64, 127
2, 80898, Note_on_c, 8, 56, 127
2, 80898, Note_on_c, 0, 72, 127
2, 81066, Note_off_c, 8, 56, 127
2, 81070, Note_on_c, 10, 57, 127
2, 81238, Note_off_c, 10, 57, 127
2, 81242, Note_on_c, 5, 65, 127
2, 81410, Note_off_c, 0, 72, 127
2, 81414, Note_on_c, 12, 71, 127
2, 81582, Note_off_c, 12, 71, 127
2, 81586, Note_on_c, 10, 69, 127
2, 81754, Note_off_c, 10, 69, 127
2, 81758, Note_on_c, 12, 71, 127
2, 81926, Note_off_c, 12, 71, 127
2, 81926, Note_off_c, 5, 65, 127
2, 81930, Note_on_c, 4, 64, 127
2, 81930, Note_on_c, 12, 71, 127
2, 82044, Note_on_c, 2, 62, 127
2, 82054, Note_off_c, 4, 64, 127
2, 82098, Note_off_c, 12, 71, 127
2, 82102, Note_on_c, 10, 69, 127
2, 82160, Note_on_c, 4, 64, 127
2, 82170, Note_off_c, 2, 62, 127
2, 82270, Note_off_c, 10, 69, 127
2, 82274, Note_on_c, 2, 62, 127
2, 82274, Note_on_c, 8, 68, 127
2, 82284, Note_off_c, 4, 64, 127
2, 82388, Note_on_c, 1, 61, 127
2, 82398, Note_off_c, 2, 62, 127
2, 82442, Note_off_c, 8, 68, 127
2, 82446, Note_on_c, 10, 69, 127
2, 82504, Note_on_c, 2, 62, 127
2, 82514, Note_off_c, 1, 61, 127
2, 82614, Note_off_c, 10, 69, 127
2, 82618, Note_on_c, 4, 64, 127
2, 82618, Note_on_c, 10, 69, 127
2, 82628, Note_off_c, 2, 62, 127
2, 82786, Note_off_c, 10, 69, 127
2, 82790, Note_on_c, 7, 67, 127
2, 82958, Note_off_c, 7, 67, 127
2, 82962, Note_on_c, 6, 66, 127
2, 83130, Note_off_c, 6, 66, 127
2, 83134, Note_on_c, 7, 67, 127
2, 83302, Note_off_c, 7, 67, 127
2, 83306, Note_on_c, 4, 76, 127
2, 83474, Note_off_c, 4, 64, 127
2, 83478, Note_on_c, 2, 62, 127
2, 83646, Note_off_c, 2, 62, 127
2, 83650, Note_on_c, 1, 61, 127
2, 83818, Note_off_c, 1, 61, 127
2, 83822, Note_on_c, 12, 59, 127
2, 83990, Note_off_c, 12, 59, 127
2, 83990, Note_off_c, 4, 76, 127
2, 83994, Note_on_c, 2, 62, 127
2, 83994, Note_on_c, 7, 67, 127
2, 84162, Note_off_c, 2, 62, 127
2, 84165, Note_on_c, 1, 61, 127
2, 84333, Note_off_c, 1, 61, 127
2, 84337, Note_on_c, 12, 59, 127
2, 84505, Note_off_c, 12, 59, 127
2, 84509, Note_on_c, 10, 57, 127
2, 84677, Note_off_c, 10, 57, 127
2, 84678, Note_off_c, 7, 67, 127
2, 84681, Note_on_c, 2, 62, 127
2, 84681, Note_on_c, 5, 65, 127
2, 85019, Note_off_c, 5, 65, 127
2, 85023, Note_on_c, 2, 50, 127
2, 85023, Note_on_c, 2, 74, 127
2, 85357, Note_off_c, 2, 62, 127
2, 85361, Note_off_c, 2, 50, 127
2, 85366, Note_on_c, 4, 52, 127
2, 85533, Note_off_c, 2, 74, 127
2, 85537, Note_on_c, 0, 72, 127
2, 85705, Note_off_c, 0, 72, 127
2, 85706, Note_off_c, 4, 52, 127
2, 85709, Note_on_c, 5, 53, 127
2, 85709, Note_on_c, 11, 70, 127
2, 85877, Note_off_c, 11, 70, 127
2, 85881, Note_on_c, 10, 69, 127
2, 86049, Note_off_c, 10, 69, 127
2, 86049, Note_off_c, 5, 53, 127
2, 86053, Note_on_c, 7, 55, 127
2, 86053, Note_on_c, 0, 72, 127
2, 86221, Note_off_c, 0, 72, 127
2, 86225, Note_on_c, 11, 70, 127
2, 86393, Note_off_c, 11, 70, 127
2, 86393, Note_off_c, 7, 55, 127
2, 86397, Note_on_c, 4, 52, 127
2, 86397, Note_on_c, 10, 69, 127
2, 86565, Note_off_c, 10, 69, 127
2, 86569, Note_on_c, 7, 67, 127
2, 86737, Note_off_c, 7, 67, 127
2, 86737, Note_off_c, 4, 52, 127
2, 86741, Note_on_c, 5, 53, 127
2, 86741, Note_on_c, 10, 69, 127
2, 86909, Note_off_c, 5, 53, 127
2, 86913, Note_on_c, 2, 50, 127
2, 87081, Note_off_c, 2, 50, 127
2, 87085, Note_on_c, 1, 49, 127
2, 87085, Note_on_c, 5, 65, 127
2, 87253, Note_off_c, 1, 49, 127
2, 87257, Note_on_c, 2, 50, 127
2, 87425, Note_off_c, 2, 50, 127
2, 87425, Note_off_c, 10, 69, 127
2, 87429, Note_on_c, 11, 58, 127
2, 87429, Note_on_c, 7, 67, 127
2, 87597, Note_off_c, 5, 65, 127
2, 87601, Note_on_c, 4, 64, 127
2, 87769, Note_off_c, 4, 64, 127
2, 87773, Note_on_c, 2, 62, 127
2, 87941, Note_off_c, 2, 62, 127
2, 87945, Note_on_c, 4, 64, 127
2, 88113, Note_off_c, 4, 64, 127
2, 88113, Note_off_c, 11, 58, 127
2, 88117, Note_on_c, 10, 57, 127
2, 88117, Note_on_c, 4, 64, 127
2, 88231, Note_on_c, 7, 55, 127
2, 88241, Note_off_c, 10, 57, 127
2, 88285, Note_off_c, 4, 64, 127
2, 88289, Note_on_c, 2, 62, 127
2, 88347, Note_on_c, 10, 57, 127
2, 88357, Note_off_c, 7, 55, 127
2, 88457, Note_off_c, 2, 62, 127
2, 88461, Note_on_c, 7, 55, 127
2, 88461, Note_on_c, 1, 61, 127
2, 88471, Note_off_c, 10, 57, 127
2, 88575, Note_on_c, 5, 53, 127
2, 88585, Note_off_c, 7, 55, 127
2, 88629, Note_off_c, 1, 61, 127
2, 88633, Note_on_c, 2, 62, 127
2, 88690, Note_on_c, 7, 55, 127
2, 88701, Note_off_c, 5, 53, 127
2, 88801, Note_off_c, 2, 62, 127
2, 88805, Note_on_c, 10, 57, 127
2, 88805, Note_on_c, 1, 61, 127
2, 88814, Note_off_c, 7, 55, 127
2, 89143, Note_off_c, 7, 67, 127
2, 89147, Note_on_c, 4, 64, 127
2, 89485, Note_off_c, 4, 64, 127
2, 89485, Note_off_c, 1, 61, 127
2, 89489, Note_on_c, 2, 62, 127
2, 89489, Note_on_c, 5, 65, 127
2, 89657, Note_off_c, 10, 57, 127
2, 89661, Note_on_c, 7, 55, 127
2, 89829, Note_off_c, 7, 55, 127
2, 89829, Note_off_c, 5, 65, 127
2, 89829, Note_off_c, 2, 62, 127
2, 89833, Note_on_c, 5, 53, 127
2, 89833, Note_on_c, 4, 64, 127
2, 89833, Note_on_c, 7, 67, 127
2, 90001, Note_off_c, 5, 53, 127
2, 90005, Note_on_c, 4, 52, 127
2, 90173, Note_off_c, 4, 52, 127
2, 90173, Note_off_c, 7, 67, 127
2, 90173, Note_off_c, 4, 64, 127
2, 90176, Note_on_c, 7, 55, 127
2, 90176, Note_on_c, 1, 61, 127
2, 90176, Note_on_c, 10, 69, 127
2, 90344, Note_off_c, 7, 55, 127
2, 90348, Note_on_c, 5, 53, 127
2, 90516, Note_off_c, 5, 53, 127
2, 90516, Note_off_c, 10, 69, 127
2, 90516, Note_off_c, 1, 61, 127
2, 90520, Note_on_c, 4, 52, 127
2, 90520, Note_on_c, 2, 62, 127
2, 90520, Note_on_c, 5, 65, 127
2, 90688, Note_off_c, 4, 52, 127
2, 90692, Note_on_c, 2, 50, 127
2, 90860, Note_off_c, 2, 50, 127
2, 90860, Note_off_c, 5, 65, 127
2, 90860, Note_off_c, 2, 62, 127
2, 90864, Note_on_c, 7, 55, 127
2, 90864, Note_on_c, 3, 63, 127
2, 90864, Note_on_c, 11, 70, 127
2, 91032, Note_off_c, 11, 70, 127
2, 91036, Note_on_c, 7, 67, 127
2, 91204, Note_off_c, 7, 67, 127
2, 91204, Note_off_c, 3, 63, 127
2, 91204, Note_off_c, 7, 55, 127
2, 91208, Note_on_c, 11, 58, 127
2, 91208, Note_on_c, 2, 62, 127
2, 91208, Note_on_c, 6, 66, 127
2, 91376, Note_off_c, 6, 66, 127
2, 91380, Note_on_c, 7, 67, 127
2, 91548, Note_off_c, 7, 67, 127
2, 91548, Note_off_c, 2, 62, 127
2, 91552, Note_on_c, 7, 67, 127
2, 91552, Note_on_c, 3, 75, 127
2, 91720, Note_off_c, 11, 58, 127
2, 91724, Note_on_c, 10, 57, 127
2, 91892, Note_off_c, 10, 57, 127
2, 91896, Note_on_c, 7, 55, 127
2, 92064, Note_off_c, 7, 55, 127
2, 92068, Note_on_c, 10, 57, 127
2, 92236, Note_off_c, 10, 57, 127
2, 92236, Note_off_c, 3, 75, 127
2, 92236, Note_off_c, 7, 67, 127
2, 92240, Note_on_c, 10, 57, 127
2, 92240, Note_on_c, 4, 64, 127
2, 92240, Note_on_c, 2, 74, 127
2, 92354, Note_on_c, 1, 73, 127
2, 92364, Note_off_c, 2, 74, 127
2, 92408, Note_off_c, 10, 57, 127
2, 92412, Note_on_c, 7, 55, 127
2, 92470, Note_on_c, 2, 74, 127
2, 92480, Note_off_c, 1, 73, 127
2, 92580, Note_off_c, 7, 55, 127
2, 92584, Note_on_c, 5, 53, 127
2, 92584, Note_on_c, 1, 73, 127
2, 92594, Note_off_c, 2, 74, 127
2, 92698, Note_on_c, 12, 71, 127
2, 92708, Note_off_c, 1, 73, 127
2, 92752, Note_off_c, 5, 53, 127
2, 92756, Note_on_c, 7, 55, 127
2, 92814, Note_on_c, 1, 73, 127
2, 92824, Note_off_c, 12, 71, 127
2, 92920, Note_off_c, 4, 64, 127
2, 92924, Note_off_c, 7, 55, 127
2, 92928, Note_on_c, 7, 55, 127
2, 92928, Note_on_c, 2, 74, 127
2, 92938, Note_off_c, 1, 73, 127
2, 93096, Note_off_c, 7, 55, 127
2, 93100, Note_on_c, 5, 53, 127
2, 93100, Note_on_c, 10, 69, 127
2, 93268, Note_off_c, 10, 69, 127
2, 93268, Note_off_c, 5, 53, 127
2, 93272, Note_on_c, 4, 52, 127
2, 93272, Note_on_c, 7, 67, 127
2, 93440, Note_off_c, 7, 67, 127
2, 93440, Note_off_c, 4, 52, 127
2, 93444, Note_on_c, 5, 53, 127
2, 93444, Note_on_c, 10, 69, 127
2, 93612, Note_off_c, 10, 69, 127
2, 93612, Note_off_c, 5, 53, 127
2, 93612, Note_off_c, 2, 74, 127
2, 93615, Note_on_c, 10, 57, 127
2, 93615, Note_on_c, 5, 65, 127
2, 93615, Note_on_c, 2, 74, 127
2, 93783, Note_off_c, 10, 57, 127
2, 93787, Note_on_c, 7, 55, 127
2, 93955, Note_off_c, 7, 55, 127
2, 93959, Note_on_c, 5, 53, 127
2, 94127, Note_off_c, 5, 53, 127
2, 94131, Note_on_c, 7, 55, 127
2, 94299, Note_off_c, 7, 55, 127
2, 94299, Note_off_c, 2, 74, 127
2, 94299, Note_off_c, 5, 65, 127
2, 94303, Note_on_c, 7, 55, 127
2, 94303, Note_on_c, 2, 62, 127
2, 94303, Note_on_c, 0, 72, 127
2, 94417, Note_on_c, 12, 71, 127
2, 94427, Note_off_c, 0, 72, 127
2, 94471, Note_off_c, 7, 55, 127
2, 94475, Note_on_c, 5, 53, 127
2, 94533, Note_on_c, 0, 72, 127
2, 94543, Note_off_c, 12, 71, 127
2, 94643, Note_off_c, 5, 53, 127
2, 94647, Note_on_c, 4, 52, 127
2, 94647, Note_on_c, 12, 71, 127
2, 94657, Note_off_c, 0, 72, 127
2, 94761, Note_on_c, 10, 69, 127
2, 94771, Note_off_c, 12, 71, 127
2, 94815, Note_off_c, 4, 52, 127
2, 94819, Note_on_c, 5, 53, 127
2, 94877, Note_on_c, 12, 71, 127
2, 94887, Note_off_c, 10, 69, 127
2, 94983, Note_off_c, 2, 62, 127
2, 94987, Note_off_c, 5, 53, 127
2, 94991, Note_on_c, 5, 53, 127
2, 94991, Note_on_c, 0, 72, 127
2, 95001, Note_off_c, 12, 71, 127
2, 95159, Note_off_c, 5, 53, 127
2, 95163, Note_on_c, 4, 52, 127
2, 95163, Note_on_c, 7, 67, 127
2, 95331, Note_off_c, 7, 67, 127
2, 95331, Note_off_c, 4, 52, 127
2, 95335, Note_on_c, 2, 50, 127
2, 95335, Note_on_c, 5, 65, 127
2, 95503, Note_off_c, 5, 65, 127
2, 95503, Note_off_c, 2, 50, 127
2, 95507, Note_on_c, 4, 52, 127
2, 95507, Note_on_c, 7, 67, 127
2, 95675, Note_off_c, 7, 67, 127
2, 95675, Note_off_c, 4, 52, 127
2, 95675, Note_off_c, 0, 72, 127
2, 95679, Note_on_c, 7, 55, 127
2, 95679, Note_on_c, 3, 63, 127
2, 95679, Note_on_c, 0, 72, 127
2, 95847, Note_off_c, 7, 55, 127
2, 95851, Note_on_c, 5, 53, 127
2, 96019, Note_off_c, 5, 53, 127
2, 96023, Note_on_c, 3, 51, 127
2, 96191, Note_off_c, 3, 51, 127
2, 96195, Note_on_c, 5, 53, 127
2, 96363, Note_off_c, 5, 53, 127
2, 96363, Note_off_c, 0, 72, 127
2, 96363, Note_off_c, 3, 63, 127
2, 96367, Note_on_c, 5, 53, 127
2, 96367, Note_on_c, 0, 60, 127
2, 96367, Note_on_c, 11, 70, 127
2, 96481, Note_on_c, 10, 69, 127
2, 96491, Note_off_c, 11, 70, 127
2, 96535, Note_off_c, 5, 53, 127
2, 96539, Note_on_c, 3, 51, 127
2, 96597, Note_on_c, 11, 70, 127
2, 96607, Note_off_c, 10, 69, 127
2, 96707, Note_off_c, 3, 51, 127
2, 96711, Note_on_c, 2, 50, 127
2, 96711, Note_on_c, 10, 69, 127
2, 96721, Note_off_c, 11, 70, 127
2, 96825, Note_on_c, 7, 67, 127
2, 96835, Note_off_c, 10, 69, 127
2, 96879, Note_off_c, 2, 50, 127
2, 96882, Note_off_c, 0, 60, 127
2, 96883, Note_on_c, 3, 51, 127
2, 96940, Note_on_c, 10, 69, 127
2, 96951, Note_off_c, 7, 67, 127
2, 97051, Note_off_c, 3, 51, 127
2, 97054, Note_on_c, 3, 51, 127
2, 97054, Note_on_c, 11, 70, 127
2, 97064, Note_off_c, 10, 69, 127
2, 97222, Note_off_c, 3, 51, 127
2, 97226, Note_on_c, 2, 50, 127
2, 97394, Note_off_c, 2, 50, 127
2, 97398, Note_on_c, 1, 49, 127
2, 97398, Note_on_c, 10, 69, 127
2, 97566, Note_off_c, 1, 49, 127
2, 97570, Note_on_c, 2, 50, 127
2, 97738, Note_off_c, 2, 50, 127
2, 97738, Note_off_c, 10, 69, 127
2, 97742, Note_on_c, 11, 58, 127
2, 97742, Note_on_c, 7, 67, 127
2, 98080, Note_off_c, 7, 67, 127
2, 98084, Note_on_c, 5, 65, 127
2, 98409, Note_off_c, 11, 58, 127
2, 98422, Note_off_c, 5, 65, 127
2, 98426, Note_on_c, 10, 57, 127
2, 98426, Note_on_c, 4, 64, 127
2, 98540, Note_on_c, 7, 55, 127
2, 98550, Note_off_c, 10, 57, 127
2, 98655, Note_on_c, 10, 57, 127
2, 98664, Note_off_c, 7, 55, 127
2, 98764, Note_off_c, 4, 64, 127
2, 98769, Note_on_c, 7, 55, 127
2, 98769, Note_on_c, 7, 67, 127
2, 98779, Note_off_c, 10, 57, 127
2, 98883, Note_on_c, 5, 53, 127
2, 98893, Note_off_c, 7, 55, 127
2, 98997, Note_on_c, 7, 55, 127
2, 99007, Note_off_c, 5, 53, 127
2, 99107, Note_off_c, 7, 67, 127
2, 99111, Note_on_c, 10, 57, 127
2, 99111, Note_on_c, 1, 61, 127
2, 99121, Note_off_c, 7, 55, 127
2, 99448, Note_off_c, 11, 70, 127
2, 99453, Note_on_c, 10, 69, 127
2, 99791, Note_off_c, 10, 69, 127
2, 99791, Note_off_c, 1, 61, 127
2, 99795, Note_on_c, 2, 62, 127
2, 99795, Note_on_c, 12, 71, 127
2, 99963, Note_off_c, 10, 57, 127
2, 99967, Note_on_c, 7, 55, 127
2, 100135, Note_off_c, 7, 55, 127
2, 100135, Note_off_c, 12, 71, 127
2, 100135, Note_off_c, 2, 62, 127
2, 100139, Note_on_c, 5, 53, 127
2, 100139, Note_on_c, 4, 64, 127
2, 100139, Note_on_c, 1, 73, 127
2, 100307, Note_off_c, 5, 53, 127
2, 100311, Note_on_c, 4, 52, 127
2, 100479, Note_off_c, 4, 52, 127
2, 100479, Note_off_c, 1, 73, 127
2, 100479, Note_off_c, 4, 64, 127
2, 100483, Note_on_c, 7, 55, 127
2, 100483, Note_on_c, 10, 57, 127
2, 100483, Note_on_c, 2, 74, 127
2, 100651, Note_off_c, 7, 55, 127
2, 100655, Note_on_c, 5, 53, 127
2, 100823, Note_off_c, 5, 53, 127
2, 100823, Note_off_c, 2, 74, 127
2, 100827, Note_on_c, 4, 52, 127
2, 100827, Note_on_c, 12, 71, 127
2, 100995, Note_off_c, 4, 52, 127
2, 100998, Note_on_c, 2, 50, 127
2, 101091, Note_off_c, 10, 57, 127
2, 101164, Note_off_c, 2, 50, 127
2, 101165, Note_off_c, 12, 71, 127
2, 101169, Note_on_c, 4, 52, 127
2, 101169, Note_on_c, 1, 73, 127
2, 101337, Note_off_c, 1, 73, 127
2, 101341, Note_on_c, 10, 69, 127
2, 101509, Note_off_c, 10, 69, 127
2, 101509, Note_off_c, 4, 52, 127
2, 101513, Note_on_c, 1, 49, 127
2, 101513, Note_on_c, 4, 64, 127
2, 101513, Note_on_c, 8, 68, 127
2, 101681, Note_off_c, 8, 68, 127
2, 101684, Note_on_c, 10, 69, 127
2, 101852, Note_off_c, 10, 69, 127
2, 101853, Note_off_c, 4, 64, 127
2, 101853, Note_off_c, 1, 49, 127
2, 101856, Note_on_c, 2, 50, 127
2, 101856, Note_on_c, 2, 62, 127
2, 101856, Note_on_c, 5, 77, 127
2, 102194, Note_off_c, 2, 62, 127
2, 102194, Note_off_c, 2, 50, 127
2, 102199, Note_on_c, 4, 52, 127
2, 102199, Note_on_c, 1, 61, 127
2, 102491, Note_off_c, 5, 77, 127
2, 102539, Note_off_c, 1, 61, 127
2, 102539, Note_off_c, 4, 52, 127
2, 102542, Note_on_c, 5, 53, 127
2, 102542, Note_on_c, 12, 59, 127
2, 102542, Note_on_c, 4, 76, 127
2, 102656, Note_on_c, 2, 74, 127
2, 102666, Note_off_c, 4, 76, 127
2, 102770, Note_on_c, 4, 76, 127
2, 102780, Note_off_c, 2, 74, 127
2, 102880, Note_off_c, 12, 59, 127
2, 102880, Note_off_c, 5, 53, 127
2, 102884, Note_on_c, 2, 50, 127
2, 102884, Note_on_c, 2, 62, 127
2, 102884, Note_on_c, 2, 74, 127
2, 102894, Note_off_c, 4, 76, 127
2, 102999, Note_on_c, 1, 73, 127
2, 103008, Note_off_c, 2, 74, 127
2, 103113, Note_on_c, 2, 74, 127
2, 103123, Note_off_c, 1, 73, 127
2, 103222, Note_off_c, 2, 62, 127
2, 103222, Note_off_c, 2, 50, 127
2, 103227, Note_on_c, 10, 57, 127
2, 103227, Note_on_c, 1, 61, 127
2, 103227, Note_on_c, 4, 76, 127
2, 103237, Note_off_c, 2, 74, 127
2, 103395, Note_off_c, 1, 61, 127
2, 103399, Note_on_c, 4, 64, 127
2, 103567, Note_off_c, 4, 64, 127
2, 103567, Note_off_c, 4, 76, 127
2, 103570, Note_on_c, 5, 65, 127
2, 103570, Note_on_c, 10, 81, 127
2, 103738, Note_off_c, 5, 65, 127
2, 103742, Note_off_c, 10, 57, 127
2, 103742, Note_on_c, 4, 64, 127
2, 103910, Note_off_c, 4, 64, 127
2, 103914, Note_on_c, 6, 54, 127
2, 103914, Note_on_c, 10, 57, 127
2, 104082, Note_off_c, 10, 81, 127
2, 104086, Note_on_c, 7, 79, 127
2, 104254, Note_off_c, 7, 79, 127
2, 104254, Note_off_c, 6, 54, 127
2, 104258, Note_on_c, 4, 52, 127
2, 104258, Note_on_c, 6, 78, 127
2, 104426, Note_off_c, 6, 78, 127
2, 104430, Note_on_c, 4, 76, 127
2, 104598, Note_off_c, 4, 76, 127
2, 104598, Note_off_c, 4, 52, 127
2, 104598, Note_off_c, 10, 57, 127
2, 104602, Note_on_c, 2, 50, 127
2, 104602, Note_on_c, 0, 60, 127
2, 104602, Note_on_c, 7, 79, 127
2, 104770, Note_off_c, 7, 79, 127
2, 104774, Note_on_c, 6, 78, 127
2, 104942, Note_off_c, 6, 78, 127
2, 104942, Note_off_c, 2, 50, 127
2, 104946, Note_on_c, 6, 54, 127
2, 104946, Note_on_c, 4, 76, 127
2, 105114, Note_off_c, 4, 76, 127
2, 105118, Note_on_c, 2, 74, 127
2, 105286, Note_off_c, 2, 74, 127
2, 105286, Note_off_c, 6, 54, 127
2, 105286, Note_off_c, 0, 60, 127
2, 105290, Note_on_c, 7, 55, 127
2, 105290, Note_on_c, 11, 58, 127
2, 105290, Note_on_c, 3, 75, 127
2, 105458, Note_off_c, 3, 75, 127
2, 105458, Note_off_c, 11, 58, 127
2, 105462, Note_on_c, 2, 62, 127
2, 105462, Note_on_c, 0, 84, 127
2, 105630, Note_off_c, 0, 84, 127
2, 105630, Note_off_c, 2, 62, 127
2, 105634, Note_on_c, 3, 63, 127
2, 105634, Note_on_c, 11, 82, 127
2, 105802, Note_off_c, 3, 63, 127
2, 105805, Note_off_c, 7, 55, 127
2, 105806, Note_on_c, 2, 62, 127
2, 105974, Note_off_c, 2, 62, 127
2, 105978, Note_on_c, 8, 56, 127
2, 105978, Note_on_c, 12, 59, 127
2, 106097, Note_off_c, 11, 82, 127
2, 106150, Note_on_c, 10, 81, 127
2, 106318, Note_off_c, 10, 81, 127
2, 106318, Note_off_c, 8, 56, 127
2, 106322, Note_on_c, 6, 54, 127
2, 106322, Note_on_c, 8, 80, 127
2, 106490, Note_off_c, 8, 80, 127
2, 106494, Note_on_c, 6, 78, 127
2, 106662, Note_off_c, 6, 78, 127
2, 106662, Note_off_c, 6, 54, 127
2, 106662, Note_off_c, 12, 59, 127
2, 106666, Note_on_c, 4, 52, 127
2, 106666, Note_on_c, 4, 64, 127
2, 106666, Note_on_c, 10, 81, 127
2, 106834, Note_off_c, 10, 81, 127
2, 106838, Note_on_c, 8, 80, 127
2, 107006, Note_off_c, 8, 80, 127
2, 107006, Note_off_c, 4, 52, 127
2, 107009, Note_on_c, 8, 56, 127
2, 107009, Note_on_c, 6, 78, 127
2, 107177, Note_off_c, 6, 78, 127
2, 107181, Note_on_c, 4, 76, 127
2, 107349, Note_off_c, 4, 76, 127
2, 107349, Note_off_c, 8, 56, 127
2, 107353, Note_on_c, 10, 57, 127
2, 107353, Note_on_c, 2, 74, 127
2, 107521, Note_off_c, 2, 74, 127
2, 107525, Note_on_c, 0, 72, 127
2, 107693, Note_off_c, 0, 72, 127
2, 107695, Note_off_c, 4, 64, 127
2, 107697, Note_on_c, 10, 45, 127
2, 107697, Note_on_c, 12, 71, 127
2, 107865, Note_off_c, 12, 71, 127
2, 107869, Note_on_c, 0, 72, 127
2, 108037, Note_off_c, 0, 72, 127
2, 108037, Note_off_c, 10, 45, 127
2, 108041, Note_on_c, 12, 47, 127
2, 108041, Note_on_c, 0, 72, 127
2, 108209, Note_off_c, 0, 72, 127
2, 108213, Note_on_c, 12, 71, 127
2, 108381, Note_off_c, 12, 71, 127
2, 108381, Note_off_c, 12, 47, 127
2, 108385, Note_on_c, 0, 48, 127
2, 108385, Note_on_c, 10, 69, 127
2, 108553, Note_off_c, 10, 69, 127
2, 108557, Note_on_c, 12, 71, 127
2, 108725, Note_off_c, 12, 71, 127
2, 108725, Note_off_c, 0, 48, 127
2, 108729, Note_on_c, 2, 50, 127
2, 108729, Note_on_c, 12, 71, 127
2, 108897, Note_off_c, 12, 71, 127
2, 108901, Note_on_c, 10, 69, 127
2, 109069, Note_off_c, 10, 69, 127
2, 109069, Note_off_c, 2, 50, 127
2, 109072, Note_off_c, 10, 57, 127
2, 109073, Note_on_c, 12, 47, 127
2, 109073, Note_on_c, 8, 68, 127
2, 109241, Note_off_c, 8, 68, 127
2, 109245, Note_on_c, 10, 69, 127
2, 109413, Note_off_c, 10, 69, 127
2, 109413, Note_off_c, 12, 47, 127
2, 109417, Note_on_c, 1, 49, 127
2, 109417, Note_on_c, 7, 67, 127
2, 109585, Note_off_c, 1, 49, 127
2, 109589, Note_on_c, 10, 45, 127
2, 109757, Note_off_c, 10, 45, 127
2, 109761, Note_on_c, 8, 44, 127
2, 109761, Note_on_c, 10, 57, 127
2, 109929, Note_off_c, 8, 44, 127
2, 109933, Note_on_c, 10, 45, 127
2, 110101, Note_off_c, 10, 45, 127
2, 110101, Note_off_c, 10, 57, 127
2, 110105, Note_on_c, 5, 53, 127
2, 110105, Note_on_c, 12, 59, 127
2, 110273, Note_off_c, 7, 67, 127
2, 110277, Note_on_c, 5, 65, 127
2, 110445, Note_off_c, 5, 65, 127
2, 110445, Note_off_c, 12, 59, 127
2, 110448, Note_on_c, 1, 61, 127
2, 110448, Note_on_c, 4, 64, 127
2, 110616, Note_off_c, 4, 64, 127
2, 110620, Note_on_c, 5, 65, 127
2, 110788, Note_off_c, 5, 65, 127
2, 110788, Note_off_c, 1, 61, 127
2, 110789, Note_off_c, 5, 53, 127
2, 110792, Note_on_c, 4, 52, 127
2, 110792, Note_on_c, 2, 62, 127
2, 110792, Note_on_c, 5, 65, 127
2, 110906, Note_on_c, 2, 50, 127
2, 110916, Note_off_c, 4, 52, 127
2, 110960, Note_off_c, 5, 65, 127
2, 110964, Note_on_c, 4, 64, 127
2, 111022, Note_on_c, 4, 52, 127
2, 111032, Note_off_c, 2, 50, 127
2, 111132, Note_off_c, 4, 64, 127
2, 111132, Note_off_c, 2, 62, 127
2, 111136, Note_on_c, 2, 50, 127
2, 111136, Note_on_c, 12, 59, 127
2, 111136, Note_on_c, 2, 62, 127
2, 111146, Note_off_c, 4, 52, 127
2, 111250, Note_on_c, 0, 48, 127
2, 111260, Note_off_c, 2, 50, 127
2, 111304, Note_off_c, 2, 62, 127
2, 111308, Note_on_c, 10, 69, 127
2, 111366, Note_on_c, 2, 50, 127
2, 111376, Note_off_c, 0, 48, 127
2, 111476, Note_off_c, 10, 69, 127
2, 111476, Note_off_c, 12, 59, 127
2, 111480, Note_on_c, 4, 52, 127
2, 111480, Note_on_c, 0, 60, 127
2, 111480, Note_on_c, 10, 69, 127
2, 111490, Note_off_c, 2, 50, 127
2, 111648, Note_off_c, 0, 60, 127
2, 111652, Note_on_c, 10, 57, 127
2, 111820, Note_off_c, 10, 57, 127
2, 111820, Note_off_c, 4, 52, 127
2, 111824, Note_on_c, 5, 53, 127
2, 111824, Note_on_c, 8, 56, 127
2, 111992, Note_off_c, 8, 56, 127
2, 111996, Note_on_c, 10, 57, 127
2, 112164, Note_off_c, 10, 57, 127
2, 112164, Note_off_c, 5, 53, 127
2, 112168, Note_on_c, 4, 52, 127
2, 112168, Note_on_c, 5, 65, 127
2, 112336, Note_off_c, 4, 52, 127
2, 112340, Note_on_c, 2, 50, 127
2, 112508, Note_off_c, 2, 50, 127
2, 112512, Note_on_c, 0, 48, 127
2, 112680, Note_off_c, 0, 48, 127
2, 112684, Note_on_c, 2, 50, 127
2, 112839, Note_off_c, 5, 65, 127
2, 112852, Note_off_c, 2, 50, 127
2, 112856, Note_on_c, 2, 50, 127
2, 112856, Note_on_c, 4, 64, 127
2, 112970, Note_on_c, 2, 62, 127
2, 112980, Note_off_c, 4, 64, 127
2, 113024, Note_off_c, 2, 50, 127
2, 113028, Note_on_c, 0, 48, 127
2, 113086, Note_on_c, 4, 64, 127
2, 113096, Note_off_c, 2, 62, 127
2, 113196, Note_off_c, 0, 48, 127
2, 113200, Note_on_c, 12, 47, 127
2, 113200, Note_on_c, 2, 62, 127
2, 113210, Note_off_c, 4, 64, 127
2, 113314, Note_on_c, 0, 60, 127
2, 113324, Note_off_c, 2, 62, 127
2, 113368, Note_off_c, 12, 47, 127
2, 113372, Note_on_c, 0, 48, 127
2, 113430, Note_on_c, 2, 62, 127
2, 113440, Note_off_c, 0, 60, 127
2, 113540, Note_off_c, 0, 48, 127
2, 113544, Note_on_c, 0, 48, 127
2, 113544, Note_on_c, 4, 64, 127
2, 113554, Note_off_c, 2, 62, 127
2, 113882, Note_off_c, 4, 64, 127
2, 113882, Note_off_c, 0, 48, 127
2, 113886, Note_on_c, 2, 50, 127
2, 113886, Note_on_c, 5, 65, 127
2, 114224, Note_off_c, 5, 65, 127
2, 114224, Note_off_c, 2, 50, 127
2, 114228, Note_on_c, 4, 52, 127
2, 114228, Note_on_c, 0, 60, 127
2, 114395, Note_off_c, 10, 69, 127
2, 114400, Note_on_c, 3, 75, 127
2, 114568, Note_off_c, 3, 75, 127
2, 114568, Note_off_c, 4, 52, 127
2, 114572, Note_on_c, 2, 50, 127
2, 114572, Note_on_c, 4, 76, 127
2, 114740, Note_off_c, 4, 76, 127
2, 114744, Note_on_c, 10, 69, 127
2, 114912, Note_off_c, 10, 69, 127
2, 114912, Note_off_c, 2, 50, 127
2, 114916, Note_on_c, 4, 52, 127
2, 114916, Note_on_c, 0, 72, 127
2, 115082, Note_off_c, 0, 60, 127
2, 115084, Note_off_c, 0, 72, 127
2, 115088, Note_on_c, 12, 71, 127
2, 115088, Note_on_c, 12, 59, 127
2, 115173, Note_on_c, 0, 60, 127
2, 115212, Note_off_c, 12, 59, 127
2, 115256, Note_off_c, 12, 71, 127
2, 115259, Note_on_c, 10, 69, 127
2, 115259, Note_on_c, 12, 59, 127
2, 115299, Note_off_c, 0, 60, 127
2, 115427, Note_off_c, 10, 69, 127
2, 115431, Note_on_c, 8, 68, 127
2, 115599, Note_off_c, 8, 68, 127
2, 115599, Note_off_c, 12, 59, 127
2, 115600, Note_off_c, 4, 52, 127
2, 115603, Note_on_c, 10, 57, 127
2, 115603, Note_on_c, 10, 69, 127
2, 115771, Note_off_c, 10, 69, 127
2, 115775, Note_on_c, 8, 68, 127
2, 115943, Note_off_c, 8, 68, 127
2, 115947, Note_on_c, 10, 45, 127
2, 115947, Note_on_c, 10, 69, 127
2, 116285, Note_off_c, 10, 45, 127
2, 116289, Note_on_c, 12, 47, 127
2, 116457, Note_off_c, 10, 69, 127
2, 116461, Note_on_c, 7, 67, 127
2, 116629, Note_off_c, 7, 67, 127
2, 116629, Note_off_c, 12, 47, 127
2, 116633, Note_on_c, 1, 49, 127
2, 116633, Note_on_c, 5, 65, 127
2, 116801, Note_off_c, 5, 65, 127
2, 116805, Note_on_c, 4, 64, 127
2, 116973, Note_off_c, 4, 64, 127
2, 116973, Note_off_c, 1, 49, 127
2, 116977, Note_on_c, 2, 50, 127
2, 116977, Note_on_c, 7, 67, 127
2, 117145, Note_off_c, 7, 67, 127
2, 117149, Note_on_c, 5, 65, 127
2, 117317, Note_off_c, 5, 65, 127
2, 117317, Note_off_c, 2, 50, 127
2, 117320, Note_off_c, 10, 57, 127
2, 117321, Note_on_c, 12, 47, 127
2, 117321, Note_on_c, 4, 64, 127
2, 117489, Note_off_c, 4, 64, 127
2, 117493, Note_on_c, 2, 62, 127
2, 117661, Note_off_c, 2, 62, 127
2, 117661, Note_off_c, 12, 47, 127
2, 117665, Note_on_c, 1, 49, 127
2, 117665, Note_on_c, 4, 64, 127
2, 117833, Note_off_c, 1, 49, 127
2, 117837, Note_on_c, 10, 45, 127
2, 118005, Note_off_c, 10, 45, 127
2, 118005, Note_off_c, 4, 64, 127
2, 118009, Note_on_c, 8, 44, 127
2, 118009, Note_on_c, 4, 76, 127
2, 118177, Note_off_c, 8, 44, 127
2, 118181, Note_on_c, 10, 45, 127
2, 118349, Note_off_c, 10, 45, 127
2, 118349, Note_off_c, 4, 76, 127
2, 118353, Note_on_c, 5, 53, 127
2, 118353, Note_on_c, 2, 74, 127
2, 118691, Note_off_c, 2, 74, 127
2, 118695, Note_on_c, 1, 73, 127
2, 119020, Note_off_c, 5, 53, 127
2, 119033, Note_off_c, 1, 73, 127
2, 119037, Note_on_c, 4, 52, 127
2, 119037, Note_on_c, 12, 71, 127
2, 119151, Note_on_c, 2, 50, 127
2, 119161, Note_off_c, 4, 52, 127
2, 119265, Note_on_c, 4, 52, 127
2, 119275, Note_off_c, 2, 50, 127
2, 119375, Note_off_c, 12, 71, 127
2, 119379, Note_on_c, 2, 50, 127
2, 119379, Note_on_c, 2, 74, 127
2, 119389, Note_off_c, 4, 52, 127
2, 119493, Note_on_c, 1, 49, 127
2, 119503, Note_off_c, 2, 50, 127
2, 119607, Note_on_c, 2, 50, 127
2, 119617, Note_off_c, 1, 49, 127
2, 119717, Note_off_c, 2, 74, 127
2, 119721, Note_on_c, 10, 57, 127
2, 119721, Note_on_c, 1, 73, 127
2, 119731, Note_off_c, 2, 50, 127
2, 119889, Note_off_c, 1, 73, 127
2, 119893, Note_on_c, 4, 76, 127
2, 120061, Note_off_c, 4, 76, 127
2, 120065, Note_on_c, 5, 53, 127
2, 120065, Note_on_c, 5, 77, 127
2, 120233, Note_off_c, 5, 77, 127
2, 120237, Note_on_c, 4, 76, 127
2, 120401, Note_off_c, 10, 57, 127
2, 120405, Note_off_c, 4, 76, 127
2, 120405, Note_off_c, 5, 53, 127
2, 120409, Note_on_c, 4, 52, 127
2, 120409, Note_on_c, 7, 67, 127
2, 120747, Note_off_c, 4, 52, 127
2, 120751, Note_on_c, 2, 50, 127
2, 121089, Note_off_c, 2, 50, 127
2, 121089, Note_off_c, 7, 67, 127
2, 121093, Note_on_c, 1, 49, 127
2, 121093, Note_on_c, 7, 67, 127
2, 121225, Note_off_c, 7, 67, 127
2, 121227, Note_on_c, 10, 69, 127
2, 121359, Note_off_c, 10, 69, 127
2, 121361, Note_on_c, 11, 70, 127
2, 121431, Note_off_c, 1, 49, 127
2, 121435, Note_on_c, 4, 52, 127
2, 121773, Note_off_c, 4, 52, 127
2, 121777, Note_on_c, 2, 50, 127
2, 121945, Note_off_c, 2, 50, 127
2, 121947, Note_off_c, 11, 70, 127
2, 121949, Note_on_c, 5, 53, 127
2, 121949, Note_on_c, 10, 69, 127
2, 122117, Note_off_c, 10, 69, 127
2, 122117, Note_off_c, 5, 53, 127
2, 122121, Note_on_c, 7, 55, 127
2, 122121, Note_on_c, 7, 67, 127
2, 122289, Note_off_c, 7, 67, 127
2, 122289, Note_off_c, 7, 55, 127
2, 122293, Note_on_c, 5, 53, 127
2, 122293, Note_on_c, 10, 69, 127
2, 122461, Note_off_c, 10, 69, 127
2, 122461, Note_off_c, 5, 53, 127
2, 122465, Note_on_c, 10, 45, 127
2, 122465, Note_on_c, 10, 69, 127
2, 122633, Note_off_c, 10, 69, 127
2, 122637, Note_on_c, 7, 67, 127
2, 122805, Note_off_c, 7, 67, 127
2, 122809, Note_on_c, 5, 65, 127
2, 122977, Note_off_c, 5, 65, 127
2, 122981, Note_on_c, 7, 67, 127
2, 123136, Note_off_c, 10, 45, 127
2, 123149, Note_off_c, 7, 67, 127
2, 123153, Note_on_c, 2, 50, 127
2, 123153, Note_on_c, 7, 67, 127
2, 123267, Note_on_c, 1, 49, 127
2, 123277, Note_off_c, 2, 50, 127
2, 123321, Note_off_c, 7, 67, 127
2, 123325, Note_on_c, 5, 65, 127
2, 123383, Note_on_c, 2, 50, 127
2, 123393, Note_off_c, 1, 49, 127
2, 123493, Note_off_c, 5, 65, 127
2, 123497, Note_on_c, 1, 49, 127
2, 123497, Note_on_c, 4, 64, 127
2, 123507, Note_off_c, 2, 50, 127
2, 123611, Note_on_c, 12, 47, 127
2, 123621, Note_off_c, 1, 49, 127
2, 123665, Note_off_c, 4, 64, 127
2, 123669, Note_on_c, 5, 65, 127
2, 123727, Note_on_c, 1, 49, 127
2, 123737, Note_off_c, 12, 47, 127
2, 123837, Note_off_c, 5, 65, 127
2, 123841, Note_on_c, 2, 50, 127
2, 123841, Note_on_c, 5, 65, 127
2, 123851, Note_off_c, 1, 49, 127
2, 124186, Note_on_c, 2, 62, 127
2, 124527, Note_off_c, 2, 62, 127
2, 124531, Note_on_c, 0, 60, 127
2, 124700, Note_off_c, 5, 65, 127
2, 124704, Note_on_c, 4, 64, 127
2, 124873, Note_off_c, 4, 64, 127
2, 124873, Note_off_c, 0, 60, 127
2, 124877, Note_on_c, 11, 58, 127
2, 124877, Note_on_c, 6, 66, 127
2, 125046, Note_off_c, 6, 66, 127
2, 125050, Note_on_c, 7, 67, 127
2, 125219, Note_off_c, 7, 67, 127
2, 125219, Note_off_c, 11, 58, 127
2, 125223, Note_on_c, 10, 57, 127
2, 125223, Note_on_c, 6, 66, 127
2, 125392, Note_off_c, 6, 66, 127
2, 125396, Note_on_c, 7, 67, 127
2, 125565, Note_off_c, 7, 67, 127
2, 125565, Note_off_c, 10, 57, 127
2, 125569, Note_on_c, 0, 60, 127
2, 125569, Note_on_c, 10, 69, 127
2, 125738, Note_off_c, 10, 69, 127
2, 125742, Note_on_c, 7, 67, 127
2, 125911, Note_off_c, 7, 67, 127
2, 125911, Note_off_c, 0, 60, 127
2, 125911, Note_off_c, 2, 50, 127
2, 125914, Note_on_c, 11, 58, 127
2, 125914, Note_on_c, 7, 67, 127
2, 126083, Note_off_c, 7, 67, 127
2, 126087, Note_on_c, 10, 69, 127
2, 126256, Note_off_c, 10, 69, 127
2, 126260, Note_on_c, 7, 55, 127
2, 126260, Note_on_c, 11, 70, 127
2, 126429, Note_off_c, 11, 70, 127
2, 126433, Note_on_c, 10, 69, 127
2, 126602, Note_off_c, 10, 69, 127
2, 126602, Note_off_c, 7, 55, 127
2, 126602, Note_off_c, 11, 58, 127
2, 126606, Note_on_c, 6, 54, 127
2, 126606, Note_on_c, 2, 62, 127
2, 126606, Note_on_c, 10, 69, 127
2, 126775, Note_off_c, 10, 69, 127
2, 126779, Note_on_c, 12, 71, 127
2, 126948, Note_off_c, 12, 71, 127
2, 126948, Note_off_c, 6, 54, 127
2, 126952, Note_on_c, 4, 52, 127
2, 126952, Note_on_c, 0, 72, 127
2, 127121, Note_off_c, 0, 72, 127
2, 127125, Note_on_c, 12, 71, 127
2, 127294, Note_off_c, 12, 71, 127
2, 127294, Note_off_c, 4, 52, 127
2, 127298, Note_on_c, 2, 50, 127
2, 127298, Note_on_c, 12, 71, 127
2, 127467, Note_off_c, 12, 71, 127
2, 127471, Note_on_c, 1, 73, 127
2, 127640, Note_off_c, 1, 73, 127
2, 127640, Note_off_c, 2, 50, 127
2, 127644, Note_on_c, 5, 53, 127
2, 127644, Note_on_c, 2, 74, 127
2, 127813, Note_off_c, 2, 74, 127
2, 127817, Note_on_c, 1, 73, 127
2, 127985, Note_off_c, 2, 62, 127
2, 127986, Note_off_c, 1, 73, 127
2, 127986, Note_off_c, 5, 53, 127
2, 127990, Note_on_c, 4, 52, 127
2, 127990, Note_on_c, 7, 55, 127
2, 127990, Note_on_c, 1, 73, 127
2, 128331, Note_off_c, 1, 73, 127
2, 128335, Note_on_c, 10, 81, 127
2, 128672, Note_off_c, 7, 55, 127
2, 128676, Note_off_c, 10, 81, 127
2, 128680, Note_on_c, 7, 79, 127
2, 128849, Note_off_c, 4, 52, 127
2, 128853, Note_on_c, 2, 50, 127
2, 129022, Note_off_c, 2, 50, 127
2, 129022, Note_off_c, 7, 79, 127
2, 129026, Note_on_c, 1, 49, 127
2, 129026, Note_on_c, 5, 77, 127
2, 129195, Note_off_c, 1, 49, 127
2, 129199, Note_on_c, 12, 47, 127
2, 129368, Note_off_c, 12, 47, 127
2, 129368, Note_off_c, 5, 77, 127
2, 129372, Note_on_c, 2, 50, 127
2, 129372, Note_on_c, 4, 76, 127
2, 129541, Note_off_c, 2, 50, 127
2, 129545, Note_on_c, 1, 49, 127
2, 129714, Note_off_c, 1, 49, 127
2, 129714, Note_off_c, 4, 76, 127
2, 129718, Note_on_c, 12, 47, 127
2, 129718, Note_on_c, 7, 79, 127
2, 129887, Note_off_c, 12, 47, 127
2, 129891, Note_on_c, 10, 45, 127
2, 130060, Note_off_c, 10, 45, 127
2, 130060, Note_off_c, 7, 79, 127
2, 130064, Note_on_c, 2, 50, 127
2, 130064, Note_on_c, 5, 77, 127
2, 130233, Note_off_c, 5, 77, 127
2, 130237, Note_on_c, 10, 81, 127
2, 130406, Note_off_c, 10, 81, 127
2, 130410, Note_on_c, 2, 62, 127
2, 130410, Note_on_c, 11, 82, 127
2, 130579, Note_off_c, 11, 82, 127
2, 130582, Note_on_c, 10, 81, 127
2, 130748, Note_off_c, 2, 50, 127
2, 130751, Note_off_c, 10, 81, 127
2, 130752, Note_off_c, 2, 62, 127
2, 130755, Note_on_c, 4, 64, 127
2, 130755, Note_on_c, 1, 73, 127
2, 131096, Note_off_c, 4, 64, 127
2, 131101, Note_on_c, 5, 65, 127
2, 131441, Note_off_c, 1, 73, 127
2, 131442, Note_off_c, 5, 65, 127
2, 131446, Note_on_c, 7, 67, 127
2, 131446, Note_on_c, 4, 76, 127
2, 131787, Note_off_c, 7, 67, 127
2, 131791, Note_on_c, 4, 64, 127
2, 132132, Note_off_c, 4, 64, 127
2, 132136, Note_on_c, 5, 65, 127
2, 132305, Note_off_c, 5, 65, 127
2, 132309, Note_on_c, 2, 62, 127
2, 132478, Note_off_c, 2, 62, 127
2, 132478, Note_off_c, 4, 76, 127
2, 132482, Note_on_c, 10, 57, 127
2, 132482, Note_on_c, 1, 61, 127
2, 132482, Note_on_c, 10, 69, 127
2, 132651, Note_off_c, 1, 61, 127
2, 132655, Note_on_c, 2, 62, 127
2, 132824, Note_off_c, 2, 62, 127
2, 132824, Note_off_c, 10, 69, 127
2, 132824, Note_off_c, 10, 57, 127
2, 132828, Note_on_c, 7, 55, 127
2, 132828, Note_on_c, 11, 70, 127
2, 132828, Note_on_c, 2, 74, 127
2, 133169, Note_off_c, 7, 55, 127
2, 133173, Note_on_c, 5, 53, 127
2, 133503, Note_off_c, 11, 70, 127
2, 133514, Note_off_c, 5, 53, 127
2, 133514, Note_off_c, 2, 74, 127
2, 133518, Note_on_c, 4, 52, 127
2, 133518, Note_on_c, 10, 69, 127
2, 133518, Note_on_c, 0, 72, 127
2, 133633, Note_on_c, 7, 67, 127
2, 133643, Note_off_c, 10, 69, 127
2, 133748, Note_on_c, 10, 69, 127
2, 133758, Note_off_c, 7, 67, 127
2, 133859, Note_off_c, 4, 52, 127
2, 133863, Note_on_c, 7, 55, 127
2, 133863, Note_on_c, 7, 67, 127
2, 133873, Note_off_c, 10, 69, 127
2, 133978, Note_on_c, 6, 66, 127
2, 133988, Note_off_c, 7, 67, 127
2, 134093, Note_on_c, 7, 67, 127
2, 134103, Note_off_c, 6, 66, 127
2, 134204, Note_off_c, 7, 55, 127
2, 134208, Note_on_c, 6, 54, 127
2, 134208, Note_on_c, 10, 69, 127
2, 134218, Note_off_c, 7, 67, 127
2, 134381, Note_on_c, 10, 57, 127
2, 134550, Note_off_c, 10, 57, 127
2, 134550, Note_off_c, 0, 72, 127
2, 134554, Note_on_c, 11, 58, 127
2, 134554, Note_on_c, 3, 75, 127
2, 134723, Note_off_c, 11, 58, 127
2, 134727, Note_on_c, 10, 57, 127
2, 134892, Note_off_c, 6, 54, 127
2, 134896, Note_off_c, 10, 57, 127
2, 134896, Note_off_c, 10, 69, 127
2, 134900, Note_on_c, 2, 50, 127
2, 134900, Note_on_c, 6, 54, 127
2, 135069, Note_off_c, 3, 75, 127
2, 135073, Note_on_c, 2, 74, 127
2, 135242, Note_off_c, 2, 74, 127
2, 135246, Note_on_c, 0, 72, 127
2, 135415, Note_off_c, 0, 72, 127
2, 135419, Note_on_c, 2, 74, 127
2, 135566, Note_off_c, 6, 54, 127
2, 135566, Note_off_c, 2, 50, 127
2, 135588, Note_off_c, 2, 74, 127
2, 135592, Note_on_c, 6, 54, 127
2, 135592, Note_on_c, 10, 57, 127
2, 135592, Note_on_c, 2, 74, 127
2, 135761, Note_off_c, 2, 74, 127
2, 135765, Note_on_c, 0, 72, 127
2, 135934, Note_off_c, 0, 72, 127
2, 135937, Note_on_c, 11, 70, 127
2, 136106, Note_off_c, 11, 70, 127
2, 136110, Note_on_c, 0, 72, 127
2, 136258, Note_off_c, 10, 57, 127
2, 136258, Note_off_c, 6, 54, 127
2, 136279, Note_off_c, 0, 72, 127
2, 136283, Note_on_c, 7, 43, 127
2, 136283, Note_on_c, 0, 72, 127
2, 136452, Note_off_c, 0, 72, 127
2, 136456, Note_on_c, 7, 55, 127
2, 136456, Note_on_c, 11, 70, 127
2, 136625, Note_off_c, 11, 70, 127
2, 136625, Note_off_c, 7, 55, 127
2, 136629, Note_on_c, 6, 54, 127
2, 136629, Note_on_c, 10, 69, 127
2, 136798, Note_off_c, 10, 69, 127
2, 136798, Note_off_c, 6, 54, 127
2, 136802, Note_on_c, 7, 55, 127
2, 136802, Note_on_c, 11, 70, 127
2, 136971, Note_off_c, 11, 70, 127
2, 136971, Note_off_c, 7, 55, 127
2, 136971, Note_off_c, 7, 43, 127
2, 136975, Note_on_c, 0, 48, 127
2, 136975, Note_on_c, 4, 52, 127
2, 136975, Note_on_c, 2, 74, 127
2, 137144, Note_off_c, 2, 74, 127
2, 137148, Note_on_c, 0, 72, 127
2, 137317, Note_off_c, 0, 72, 127
2, 137321, Note_on_c, 11, 70, 127
2, 137490, Note_off_c, 11, 70, 127
2, 137494, Note_on_c, 0, 72, 127
2, 137641, Note_off_c, 4, 52, 127
2, 137641, Note_off_c, 0, 48, 127
2, 137663, Note_off_c, 0, 72, 127
2, 137667, Note_on_c, 4, 52, 127
2, 137667, Note_on_c, 7, 55, 127
2, 137667, Note_on_c, 0, 72, 127
2, 137836, Note_off_c, 0, 72, 127
2, 137840, Note_on_c, 11, 70, 127
2, 138009, Note_off_c, 11, 70, 127
2, 138013, Note_on_c, 10, 69, 127
2, 138182, Note_off_c, 10, 69, 127
2, 138186, Note_on_c, 11, 70, 127
2, 138333, Note_off_c, 7, 55, 127
2, 138333, Note_off_c, 4, 52, 127
2, 138355, Note_off_c, 11, 70, 127
2, 138359, Note_on_c, 5, 41, 127
2, 138359, Note_on_c, 11, 70, 127
2, 138528, Note_off_c, 11, 70, 127
2, 138532, Note_on_c, 5, 53, 127
2, 138532, Note_on_c, 10, 69, 127
2, 138701, Note_off_c, 10, 69, 127
2, 138701, Note_off_c, 5, 53, 127
2, 138705, Note_on_c, 4, 52, 127
2, 138705, Note_on_c, 7, 67, 127
2, 138874, Note_off_c, 7, 67, 127
2, 138874, Note_off_c, 4, 52, 127
2, 138878, Note_on_c, 5, 53, 127
2, 138878, Note_on_c, 10, 69, 127
2, 139047, Note_off_c, 10, 69, 127
2, 139047, Note_off_c, 5, 53, 127
2, 139047, Note_off_c, 5, 41, 127
2, 139051, Note_on_c, 11, 46, 127
2, 139051, Note_on_c, 2, 50, 127
2, 139051, Note_on_c, 0, 72, 127
2, 139220, Note_off_c, 0, 72, 127
2, 139224, Note_on_c, 11, 70, 127
2, 139393, Note_off_c, 11, 70, 127
2, 139396, Note_on_c, 10, 69, 127
2, 139565, Note_off_c, 10, 69, 127
2, 139569, Note_on_c, 11, 70, 127
2, 139717, Note_off_c, 2, 50, 127
2, 139717, Note_off_c, 11, 46, 127
2, 139738, Note_off_c, 11, 70, 127
2, 139742, Note_on_c, 2, 50, 127
2, 139742, Note_on_c, 5, 53, 127
2, 139742, Note_on_c, 11, 70, 127
2, 139911, Note_off_c, 11, 70, 127
2, 139915, Note_on_c, 10, 69, 127
2, 140084, Note_off_c, 10, 69, 127
2, 140088, Note_on_c, 7, 67, 127
2, 140257, Note_off_c, 7, 67, 127
2, 140261, Note_on_c, 10, 69, 127
2, 140408, Note_off_c, 5, 53, 127
2, 140408, Note_off_c, 2, 50, 127
2, 140430, Note_off_c, 10, 69, 127
2, 140434, Note_on_c, 4, 52, 127
2, 140434, Note_on_c, 10, 69, 127
2, 140603, Note_off_c, 10, 69, 127
2, 140607, Note_on_c, 7, 67, 127
2, 140776, Note_off_c, 7, 67, 127
2, 140780, Note_on_c, 5, 53, 127
2, 140780, Note_on_c, 5, 65, 127
2, 140949, Note_off_c, 5, 65, 127
2, 140953, Note_on_c, 7, 67, 127
2, 141122, Note_off_c, 7, 67, 127
2, 141122, Note_off_c, 5, 53, 127
2, 141126, Note_on_c, 7, 55, 127
2, 141126, Note_on_c, 4, 76, 127
2, 141467, Note_off_c, 7, 55, 127
2, 141471, Note_on_c, 10, 57, 127
2, 141799, Note_off_c, 4, 76, 127
2, 141812, Note_off_c, 10, 57, 127
2, 141816, Note_on_c, 11, 58, 127
2, 141816, Note_on_c, 2, 74, 127
2, 141931, Note_on_c, 1, 73, 127
2, 141941, Note_off_c, 2, 74, 127
2, 142046, Note_on_c, 2, 74, 127
2, 142056, Note_off_c, 1, 73, 127
2, 142157, Note_off_c, 11, 58, 127
2, 142161, Note_on_c, 7, 55, 127
2, 142161, Note_on_c, 1, 73, 127
2, 142171, Note_off_c, 2, 74, 127
2, 142276, Note_on_c, 12, 71, 127
2, 142286, Note_off_c, 1, 73, 127
2, 142391, Note_on_c, 1, 73, 127
2, 142401, Note_off_c, 12, 71, 127
2, 142502, Note_off_c, 7, 55, 127
2, 142502, Note_off_c, 4, 52, 127
2, 142506, Note_on_c, 5, 53, 127
2, 142506, Note_on_c, 10, 57, 127
2, 142506, Note_on_c, 2, 74, 127
2, 142516, Note_off_c, 1, 73, 127
2, 142847, Note_off_c, 10, 57, 127
2, 142847, Note_off_c, 5, 53, 127
2, 142851, Note_on_c, 2, 50, 127
2, 142851, Note_on_c, 5, 53, 127
2, 143192, Note_off_c, 5, 53, 127
2, 143192, Note_off_c, 2, 50, 127
2, 143196, Note_on_c, 4, 52, 127
2, 143196, Note_on_c, 7, 55, 127
2, 143365, Note_off_c, 2, 74, 127
2, 143369, Note_on_c, 0, 72, 127
2, 143538, Note_off_c, 0, 72, 127
2, 143538, Note_off_c, 7, 55, 127
2, 143538, Note_off_c, 4, 52, 127
2, 143542, Note_on_c, 6, 54, 127
2, 143542, Note_on_c, 10, 57, 127
2, 143542, Note_on_c, 11, 70, 127
2, 143711, Note_off_c, 11, 70, 127
2, 143715, Note_on_c, 10, 69, 127
2, 143884, Note_off_c, 10, 69, 127
2, 143884, Note_off_c, 10, 57, 127
2, 143884, Note_off_c, 6, 54, 127
2, 143888, Note_on_c, 7, 55, 127
2, 143888, Note_on_c, 0, 72, 127
2, 144057, Note_off_c, 0, 72, 127
2, 144061, Note_on_c, 11, 70, 127
2, 144230, Note_off_c, 11, 70, 127
2, 144230, Note_off_c, 7, 55, 127
2, 144234, Note_on_c, 4, 52, 127
2, 144234, Note_on_c, 10, 69, 127
2, 144403, Note_off_c, 10, 69, 127
2, 144407, Note_on_c, 7, 67, 127
2, 144576, Note_off_c, 7, 67, 127
2, 144576, Note_off_c, 4, 52, 127
2, 144580, Note_on_c, 6, 54, 127
2, 144580, Note_on_c, 10, 69, 127
2, 144749, Note_off_c, 6, 54, 127
2, 144753, Note_on_c, 2, 50, 127
2, 144922, Note_off_c, 2, 50, 127
2, 144922, Note_off_c, 10, 69, 127
2, 144926, Note_on_c, 1, 49, 127
2, 144926, Note_on_c, 10, 57, 127
2, 144926, Note_on_c, 6, 66, 127
2, 145095, Note_off_c, 1, 49, 127
2, 145099, Note_on_c, 2, 50, 127
2, 145268, Note_off_c, 2, 50, 127
2, 145268, Note_off_c, 6, 66, 127
2, 145268, Note_off_c, 10, 57, 127
2, 145272, Note_on_c, 7, 55, 127
2, 145272, Note_on_c, 11, 58, 127
2, 145272, Note_on_c, 7, 67, 127
2, 145613, Note_off_c, 7, 67, 127
2, 145613, Note_off_c, 11, 58, 127
2, 145613, Note_off_c, 7, 55, 127
2, 145617, Note_on_c, 6, 54, 127
2, 145617, Note_on_c, 10, 57, 127
2, 145617, Note_on_c, 10, 69, 127
2, 145958, Note_off_c, 10, 69, 127
2, 145958, Note_off_c, 10, 57, 127
2, 145958, Note_off_c, 6, 54, 127
2, 145962, Note_on_c, 4, 52, 127
2, 145962, Note_on_c, 7, 55, 127
2, 145962, Note_on_c, 11, 70, 127
2, 146303, Note_off_c, 11, 70, 127
2, 146303, Note_off_c, 7, 55, 127
2, 146303, Note_off_c, 4, 52, 127
2, 146307, Note_on_c, 7, 55, 127
2, 146307, Note_on_c, 11, 58, 127
2, 146307, Note_on_c, 10, 69, 127
2, 146476, Note_off_c, 10, 69, 127
2, 146480, Note_on_c, 7, 67, 127
2, 146649, Note_off_c, 7, 67, 127
2, 146649, Note_off_c, 11, 58, 127
2, 146649, Note_off_c, 7, 55, 127
2, 146653, Note_on_c, 6, 54, 127
2, 146653, Note_on_c, 10, 57, 127
2, 146653, Note_on_c, 10, 69, 127
2, 146822, Note_off_c, 10, 69, 127
2, 146826, Note_on_c, 0, 72, 127
2, 146969, Note_off_c, 0, 72, 127
2, 146995, Note_off_c, 10, 57, 127
2, 146995, Note_off_c, 6, 54, 127
2, 146999, Note_on_c, 7, 55, 127
2, 146999, Note_on_c, 11, 58, 127
2, 146999, Note_on_c, 3, 75, 127
2, 147340, Note_off_c, 11, 58, 127
2, 147340, Note_off_c, 7, 55, 127
2, 147344, Note_on_c, 6, 54, 127
2, 147344, Note_on_c, 10, 57, 127
2, 147513, Note_off_c, 3, 75, 127
2, 147517, Note_on_c, 2, 74, 127
2, 147686, Note_off_c, 2, 74, 127
2, 147686, Note_off_c, 10, 57, 127
2, 147686, Note_off_c, 6, 54, 127
2, 147690, Note_on_c, 4, 52, 127
2, 147690, Note_on_c, 7, 55, 127
2, 147690, Note_on_c, 0, 72, 127
2, 147859, Note_off_c, 0, 72, 127
2, 147863, Note_on_c, 11, 70, 127
2, 148032, Note_off_c, 11, 70, 127
2, 148032, Note_off_c, 7, 55, 127
2, 148032, Note_off_c, 4, 52, 127
2, 148036, Note_on_c, 2, 50, 127
2, 148036, Note_on_c, 6, 54, 127
2, 148036, Note_on_c, 2, 74, 127
2, 148205, Note_off_c, 2, 74, 127
2, 148209, Note_on_c, 0, 72, 127
2, 148378, Note_off_c, 0, 72, 127
2, 148378, Note_off_c, 6, 54, 127
2, 148378, Note_off_c, 2, 50, 127
2, 148382, Note_on_c, 6, 54, 127
2, 148382, Note_on_c, 10, 57, 127
2, 148382, Note_on_c, 11, 70, 127
2, 148551, Note_off_c, 11, 70, 127
2, 148555, Note_on_c, 10, 69, 127
2, 148724, Note_off_c, 10, 69, 127
2, 148724, Note_off_c, 10, 57, 127
2, 148724, Note_off_c, 6, 54, 127
2, 148728, Note_on_c, 7, 43, 127
2, 148728, Note_on_c, 7, 55, 127
2, 148728, Note_on_c, 11, 70, 127
2, 148897, Note_off_c, 11, 70, 127
2, 148901, Note_on_c, 2, 74, 127
2, 149044, Note_off_c, 2, 74, 127
2, 149070, Note_off_c, 7, 55, 127
2, 149070, Note_off_c, 7, 43, 127
2, 149074, Note_on_c, 10, 57, 127
2, 149074, Note_on_c, 0, 60, 127
2, 149074, Note_on_c, 5, 77, 127
2, 149415, Note_off_c, 0, 60, 127
2, 149415, Note_off_c, 10, 57, 127
2, 149419, Note_on_c, 8, 56, 127
2, 149419, Note_on_c, 12, 59, 127
2, 149588, Note_off_c, 5, 77, 127
2, 149592, Note_on_c, 4, 76, 127
2, 149761, Note_off_c, 4, 76, 127
2, 149761, Note_off_c, 12, 59, 127
2, 149761, Note_off_c, 8, 56, 127
2, 149765, Note_on_c, 6, 54, 127
2, 149765, Note_on_c, 10, 57, 127
2, 149765, Note_on_c, 2, 74, 127
2, 149934, Note_off_c, 2, 74, 127
2, 149937, Note_on_c, 1, 73, 127
2, 150106, Note_off_c, 1, 73, 127
2, 150107, Note_off_c, 10, 57, 127
2, 150107, Note_off_c, 6, 54, 127
2, 150110, Note_on_c, 4, 52, 127
2, 150110, Note_on_c, 8, 56, 127
2, 150110, Note_on_c, 4, 76, 127
2, 150279, Note_off_c, 4, 76, 127
2, 150283, Note_on_c, 2, 74, 127
2, 150452, Note_off_c, 2, 74, 127
2, 150452, Note_off_c, 8, 56, 127
2, 150452, Note_off_c, 4, 52, 127
2, 150456, Note_on_c, 8, 56, 127
2, 150456, Note_on_c, 12, 59, 127
2, 150456, Note_on_c, 1, 73, 127
2, 150625, Note_off_c, 1, 73, 127
2, 150629, Note_on_c, 12, 71, 127
2, 150798, Note_off_c, 12, 71, 127
2, 150798, Note_off_c, 12, 59, 127
2, 150798, Note_off_c, 8, 56, 127
2, 150802, Note_on_c, 10, 45, 127
2, 150802, Note_on_c, 10, 57, 127
2, 150802, Note_on_c, 1, 73, 127
2, 150971, Note_off_c, 1, 73, 127
2, 150975, Note_on_c, 4, 76, 127
2, 151118, Note_off_c, 4, 76, 127
2, 151144, Note_off_c, 10, 57, 127
2, 151144, Note_off_c, 10, 45, 127
2, 151148, Note_on_c, 2, 62, 127
2, 151148, Note_on_c, 5, 65, 127
2, 151148, Note_on_c, 11, 82, 127
2, 151489, Note_off_c, 5, 65, 127
2, 151489, Note_off_c, 2, 62, 127
2, 151493, Note_on_c, 1, 61, 127
2, 151493, Note_on_c, 4, 64, 127
2, 151662, Note_off_c, 11, 82, 127
2, 151666, Note_on_c, 10, 81, 127
2, 151835, Note_off_c, 10, 81, 127
2, 151835, Note_off_c, 4, 64, 127
2, 151835, Note_off_c, 1, 61, 127
2, 151839, Note_on_c, 12, 59, 127
2, 151839, Note_on_c, 2, 62, 127
2, 151839, Note_on_c, 7, 79, 127
2, 152008, Note_off_c, 7, 79, 127
2, 152012, Note_on_c, 5, 77, 127
2, 152181, Note_off_c, 5, 77, 127
2, 152181, Note_off_c, 2, 62, 127
2, 152181, Note_off_c, 12, 59, 127
2, 152185, Note_on_c, 10, 57, 127
2, 152185, Note_on_c, 1, 61, 127
2, 152185, Note_on_c, 10, 81, 127
2, 152354, Note_off_c, 10, 81, 127
2, 152358, Note_on_c, 7, 79, 127
2, 152527, Note_off_c, 7, 79, 127
2, 152527, Note_off_c, 1, 61, 127
2, 152527, Note_off_c, 10, 57, 127
2, 152531, Note_on_c, 1, 61, 127
2, 152531, Note_on_c, 4, 64, 127
2, 152531, Note_on_c, 5, 77, 127
2, 152700, Note_off_c, 5, 77, 127
2, 152704, Note_on_c, 4, 76, 127
2, 152873, Note_off_c, 4, 76, 127
2, 152873, Note_off_c, 4, 64, 127
2, 152873, Note_off_c, 1, 61, 127
2, 152877, Note_on_c, 2, 62, 127
2, 152877, Note_on_c, 7, 79, 127
2, 153046, Note_off_c, 7, 79, 127
2, 153050, Note_on_c, 5, 77, 127
2, 153219, Note_off_c, 5, 77, 127
2, 153223, Note_on_c, 2, 50, 127
2, 153223, Note_on_c, 4, 76, 127
2, 153392, Note_off_c, 4, 76, 127
2, 153396, Note_on_c, 5, 77, 127
2, 153561, Note_off_c, 2, 62, 127
2, 153565, Note_off_c, 5, 77, 127
2, 153565, Note_off_c, 2, 50, 127
2, 153569, Note_on_c, 4, 52, 127
2, 153569, Note_on_c, 5, 77, 127
2, 153738, Note_off_c, 5, 77, 127
2, 153742, Note_on_c, 4, 76, 127
2, 153911, Note_off_c, 4, 76, 127
2, 153911, Note_off_c, 4, 52, 127
2, 153915, Note_on_c, 5, 53, 127
2, 153915, Note_on_c, 2, 74, 127
2, 154084, Note_off_c, 2, 74, 127
2, 154087, Note_on_c, 4, 76, 127
2, 154256, Note_off_c, 4, 76, 127
2, 154257, Note_off_c, 5, 53, 127
2, 154260, Note_on_c, 7, 55, 127
2, 154260, Note_on_c, 4, 76, 127
2, 154429, Note_off_c, 4, 76, 127
2, 154433, Note_on_c, 2, 74, 127
2, 154602, Note_off_c, 2, 74, 127
2, 154602, Note_off_c, 7, 55, 127
2, 154606, Note_on_c, 4, 52, 127
2, 154606, Note_on_c, 1, 73, 127
2, 154775, Note_off_c, 1, 73, 127
2, 154779, Note_on_c, 2, 74, 127
2, 154948, Note_off_c, 2, 74, 127
2, 154948, Note_off_c, 4, 52, 127
2, 154952, Note_on_c, 6, 54, 127
2, 154952, Note_on_c, 0, 72, 127
2, 155121, Note_off_c, 6, 54, 127
2, 155125, Note_on_c, 2, 50, 127
2, 155294, Note_off_c, 2, 50, 127
2, 155298, Note_on_c, 1, 49, 127
2, 155298, Note_on_c, 2, 62, 127
2, 155467, Note_off_c, 1, 49, 127
2, 155471, Note_on_c, 2, 50, 127
2, 155640, Note_off_c, 2, 50, 127
2, 155640, Note_off_c, 2, 62, 127
2, 155644, Note_on_c, 11, 58, 127
2, 155644, Note_on_c, 4, 64, 127
2, 155813, Note_off_c, 0, 72, 127
2, 155817, Note_on_c, 11, 70, 127
2, 155986, Note_off_c, 11, 70, 127
2, 155986, Note_off_c, 4, 64, 127
2, 155990, Note_on_c, 6, 66, 127
2, 155990, Note_on_c, 10, 69, 127
2, 156159, Note_off_c, 10, 69, 127
2, 156163, Note_on_c, 11, 70, 127
2, 156319, Note_off_c, 11, 58, 127
2, 156332, Note_off_c, 11, 70, 127
2, 156332, Note_off_c, 6, 66, 127
2, 156336, Note_on_c, 10, 57, 127
2, 156336, Note_on_c, 7, 67, 127
2, 156336, Note_on_c, 11, 70, 127
2, 156451, Note_on_c, 7, 55, 127
2, 156461, Note_off_c, 10, 57, 127
2, 156505, Note_off_c, 11, 70, 127
2, 156509, Note_on_c, 10, 69, 127
2, 156567, Note_on_c, 10, 57, 127
2, 156577, Note_off_c, 7, 55, 127
2, 156678, Note_off_c, 10, 69, 127
2, 156678, Note_off_c, 7, 67, 127
2, 156682, Note_on_c, 7, 55, 127
2, 156682, Note_on_c, 4, 64, 127
2, 156682, Note_on_c, 7, 67, 127
2, 156692, Note_off_c, 10, 57, 127
2, 156797, Note_on_c, 5, 53, 127
2, 156807, Note_off_c, 7, 55, 127
2, 156851, Note_off_c, 7, 67, 127
2, 156855, Note_on_c, 2, 74, 127
2, 156913, Note_on_c, 7, 55, 127
2, 156923, Note_off_c, 5, 53, 127
2, 157024, Note_off_c, 2, 74, 127
2, 157024, Note_off_c, 4, 64, 127
2, 157028, Note_on_c, 10, 57, 127
2, 157028, Note_on_c, 5, 65, 127
2, 157028, Note_on_c, 2, 74, 127
2, 157038, Note_off_c, 7, 55, 127
2, 157197, Note_off_c, 5, 65, 127
2, 157201, Note_on_c, 2, 62, 127
2, 157370, Note_off_c, 2, 62, 127
2, 157370, Note_off_c, 10, 57, 127
2, 157374, Note_on_c, 11, 58, 127
2, 157374, Note_on_c, 1, 61, 127
2, 157543, Note_off_c, 1, 61, 127
2, 157546, Note_on_c, 2, 62, 127
2, 157715, Note_off_c, 2, 62, 127
2, 157716, Note_off_c, 11, 58, 127
2, 157719, Note_on_c, 10, 57, 127
2, 157719, Note_on_c, 11, 70, 127
2, 157888, Note_off_c, 10, 57, 127
2, 157892, Note_on_c, 7, 55, 127
2, 158061, Note_off_c, 7, 55, 127
2, 158065, Note_on_c, 5, 53, 127
2, 158234, Note_off_c, 5, 53, 127
2, 158238, Note_on_c, 7, 55, 127
2, 158394, Note_off_c, 11, 70, 127
2, 158407, Note_off_c, 7, 55, 127
2, 158411, Note_on_c, 7, 55, 127
2, 158411, Note_on_c, 10, 69, 127
2, 158526, Note_on_c, 7, 67, 127
2, 158536, Note_off_c, 10, 69, 127
2, 158580, Note_off_c, 7, 55, 127
2, 158584, Note_on_c, 5, 53, 127
2, 158642, Note_on_c, 10, 69, 127
2, 158652, Note_off_c, 7, 67, 127
2, 158753, Note_off_c, 5, 53, 127
2, 158757, Note_on_c, 4, 52, 127
2, 158757, Note_on_c, 7, 67, 127
2, 158767, Note_off_c, 10, 69, 127
2, 158872, Note_on_c, 5, 65, 127
2, 158882, Note_off_c, 7, 67, 127
2, 158926, Note_off_c, 4, 52, 127
2, 158930, Note_on_c, 5, 53, 127
2, 158988, Note_on_c, 7, 67, 127
2, 158998, Note_off_c, 5, 65, 127
2, 159099, Note_off_c, 5, 53, 127
2, 159103, Note_on_c, 5, 53, 127
2, 159103, Note_on_c, 10, 69, 127
2, 159113, Note_off_c, 7, 67, 127
2, 159466, Note_off_c, 10, 69, 127
2, 159466, Note_off_c, 5, 53, 127
2, 159470, Note_on_c, 7, 55, 127
2, 159470, Note_on_c, 11, 70, 127
2, 159833, Note_off_c, 11, 70, 127
2, 159833, Note_off_c, 7, 55, 127
2, 159837, Note_on_c, 10, 57, 127
2, 159837, Note_on_c, 5, 65, 127
2, 159964, Note_on_c, 4, 64, 127
2, 159977, Note_off_c, 5, 65, 127
2, 160024, Note_off_c, 2, 74, 127
2, 160028, Note_on_c, 8, 80, 127
2, 160092, Note_on_c, 5, 65, 127
2, 160104, Note_off_c, 4, 64, 127
2, 160218, Note_off_c, 8, 80, 127
2, 160218, Note_off_c, 10, 57, 127
2, 160222, Note_on_c, 7, 55, 127
2, 160222, Note_on_c, 4, 64, 127
2, 160222, Note_on_c, 10, 81, 127
2, 160234, Note_off_c, 5, 65, 127
2, 160351, Note_on_c, 5, 65, 127
2, 160364, Note_off_c, 4, 64, 127
2, 160411, Note_off_c, 10, 81, 127
2, 160414, Note_on_c, 2, 74, 127
2, 160479, Note_on_c, 4, 64, 127
2, 160491, Note_off_c, 5, 65, 127
2, 160604, Note_off_c, 2, 74, 127
2, 160605, Note_off_c, 7, 55, 127
2, 160608, Note_on_c, 10, 57, 127
2, 160608, Note_on_c, 5, 65, 127
2, 160608, Note_on_c, 5, 77, 127
2, 160621, Note_off_c, 4, 64, 127
2, 160738, Note_on_c, 4, 64, 127
2, 160750, Note_off_c, 5, 65, 127
2, 160797, Note_off_c, 5, 77, 127
2, 160801, Note_on_c, 4, 76, 127
2, 160865, Note_on_c, 5, 65, 127
2, 160878, Note_off_c, 4, 64, 127
2, 160991, Note_off_c, 4, 76, 127
2, 160995, Note_on_c, 4, 64, 127
2, 160995, Note_on_c, 2, 74, 127
2, 161007, Note_off_c, 5, 65, 127
2, 161184, Note_off_c, 2, 74, 127
2, 161188, Note_on_c, 1, 73, 127
2, 161376, Note_off_c, 1, 73, 127
2, 161376, Note_off_c, 4, 64, 127
2, 161376, Note_off_c, 10, 57, 127
2, 161380, Note_on_c, 2, 50, 127
2, 161380, Note_on_c, 2, 62, 127
2, 161380, Note_on_c, 2, 74, 127
2, 161838, Note_off_c, 2, 62, 127
2, 161844, Note_on_c, 6, 54, 127
2, 161844, Note_on_c, 10, 69, 127
2, 161844, Note_on_c, 0, 72, 127
2, 162302, Note_off_c, 0, 72, 127
2, 162302, Note_off_c, 10, 69, 127
2, 162302, Note_off_c, 6, 54, 127
2, 162307, Note_on_c, 7, 55, 127
2, 162307, Note_on_c, 4, 52, 127
2, 162307, Note_on_c, 7, 67, 127
2, 162307, Note_on_c, 11, 70, 127
2, 162765, Note_off_c, 11, 70, 127
2, 162765, Note_off_c, 7, 67, 127
2, 162765, Note_off_c, 4, 52, 127
2, 162765, Note_off_c, 7, 55, 127
2, 162771, Note_on_c, 6, 54, 127
2, 162771, Note_on_c, 10, 57, 127
2, 162771, Note_on_c, 6, 66, 127
2, 162771, Note_on_c, 10, 69, 127
2, 163229, Note_off_c, 10, 69, 127
2, 163229, Note_off_c, 6, 66, 127
2, 163229, Note_off_c, 10, 57, 127
2, 163229, Note_off_c, 6, 54, 127
2, 163235, Note_on_c, 11, 58, 127
2, 163235, Note_on_c, 7, 55, 127
2, 163235, Note_on_c, 4, 64, 127
2, 163235, Note_on_c, 7, 67, 127
2, 163693, Note_off_c, 7, 67, 127
2, 163693, Note_off_c, 4, 64, 127
2, 163693, Note_off_c, 7, 55, 127
2, 163693, Note_off_c, 11, 58, 127
2, 163699, Note_on_c, 4, 52, 127
2, 163699, Note_on_c, 7, 55, 127
2, 163699, Note_on_c, 7, 67, 127
2, 163699, Note_on_c, 11, 70, 127
2, 164157, Note_off_c, 11, 70, 127
2, 164157, Note_off_c, 7, 67, 127
2, 164157, Note_off_c, 7, 55, 127
2, 164157, Note_off_c, 4, 52, 127
2, 164157, Note_off_c, 2, 74, 127
2, 164157, Note_off_c, 2, 50, 127
2, 164178, Note_on_c, 2, 74, 127
2, 164178, Note_on_c, 2, 62, 127
2, 164178, Note_on_c, 10, 69, 127
2, 164178, Note_on_c, 6, 66, 127
2, 164178, Note_on_c, 10, 57, 127
2, 164178, Note_on_c, 2, 50, 127
2, 164178, Note_on_c, 6, 54, 127
2, 167604, Note_off_c, 6, 54, 127
2, 167604, Note_off_c, 2, 50, 127
2, 167604, Note_off_c, 10, 57, 127
2, 167604, Note_off_c, 6, 66, 127
2, 167604, Note_off_c, 10, 69, 127
2, 167604, Note_off_c, 2, 62, 127
2, 167604, Note_off_c, 2, 74, 127
2, 172032, End_track
3, 0, Start_track
3, 0, Title_t, "MIDI"
3, 1536, End_track
0, 0, End_of_file
