0, 0, Header, 1, 3, 384
1, 0, Start_track
1, 0, Time_signature, 4, 2, 24, 8
1, 0, Tempo, 500000
1, 304128, End_track
2, 0, Start_track
2, 0, Text_t, "harpsichord: John Sankey"
2, 0, Program_c, 0, 6
2, 0, Pitch_bend_c, 0, 8192
2, 0, Program_c, 1, 6
2, 0, Pitch_bend_c, 1, 7792
2, 0, Program_c, 2, 6
2, 0, Pitch_bend_c, 2, 7876
2, 0, Program_c, 3, 6
2, 0, Pitch_bend_c, 3, 7952
2, 0, Program_c, 4, 6
2, 0, Pitch_bend_c, 4, 7792
2, 0, Program_c, 5, 6
2, 0, Pitch_bend_c, 5, 8112
2, 0, Program_c, 6, 6
2, 0, Pitch_bend_c, 6, 7712
2, 0, Program_c, 7, 6
2, 0, Pitch_bend_c, 7, 8037
2, 0, Program_c, 8, 6
2, 0, Pitch_bend_c, 8, 7872
2, 0, Program_c, 10, 6
2, 0, Pitch_bend_c, 10, 7712
2, 0, Program_c, 11, 6
2, 0, Pitch_bend_c, 11, 8032
2, 0, Program_c, 12, 6
2, 0, Pitch_bend_c, 12, 7872
2, 0, Title_t, "Track 1"
2, 64, Note_on_c, 1, 49, 127
2, 64, Note_on_c, 8, 68, 127
2, 319, Note_on_c, 6, 66, 127
2, 563, Note_off_c, 6, 66, 127
2, 570, Note_on_c, 4, 64, 127
2, 825, Note_on_c, 3, 63, 127
2, 850, Note_off_c, 4, 64, 127
2, 1069, Note_off_c, 3, 63, 127
2, 1075, Note_on_c, 4, 64, 127
2, 1333, Note_on_c, 1, 61, 127
2, 1566, Note_off_c, 4, 64, 127
2, 1575, Note_off_c, 1, 61, 127
2, 1581, Note_on_c, 4, 64, 127
2, 1694, Note_off_c, 8, 68, 127
2, 1706, Note_on_c, 8, 68, 127
2, 1832, Note_on_c, 1, 73, 127
2, 2354, Note_on_c, 12, 71, 127
2, 2356, Note_off_c, 1, 73, 127
2, 2584, Note_off_c, 8, 68, 127
2, 2589, Note_off_c, 4, 64, 127
2, 2590, Note_off_c, 12, 71, 127
2, 2590, Note_on_c, 10, 69, 127
2, 2590, Note_on_c, 6, 66, 127
2, 3093, Note_off_c, 6, 66, 127
2, 3093, Note_off_c, 10, 69, 127
2, 3096, Note_on_c, 8, 56, 127
2, 3096, Note_on_c, 4, 64, 127
2, 3096, Note_on_c, 10, 69, 127
2, 3346, Note_off_c, 8, 56, 127
2, 3350, Note_on_c, 6, 54, 127
2, 3594, Note_off_c, 6, 54, 127
2, 3601, Note_on_c, 4, 52, 127
2, 3660, Note_on_c, 8, 68, 127
2, 3664, Note_off_c, 10, 69, 127
2, 3757, Note_on_c, 10, 69, 127
2, 3760, Note_off_c, 8, 68, 127
2, 3851, Note_off_c, 4, 52, 127
2, 3854, Note_on_c, 8, 68, 127
2, 3855, Note_off_c, 1, 49, 127
2, 3856, Note_on_c, 3, 51, 127
2, 3857, Note_off_c, 10, 69, 127
2, 4100, Note_off_c, 3, 51, 127
2, 4106, Note_on_c, 4, 52, 127
2, 4356, Note_off_c, 4, 52, 127
2, 4359, Note_on_c, 1, 49, 127
2, 4612, Note_on_c, 4, 52, 127
2, 4738, Note_on_c, 8, 56, 127
2, 4805, Note_off_c, 4, 52, 127
2, 4864, Note_on_c, 1, 61, 127
2, 4931, Note_off_c, 8, 56, 127
2, 5367, Note_off_c, 1, 61, 127
2, 5370, Note_on_c, 12, 59, 127
2, 5620, Note_off_c, 12, 59, 127
2, 5621, Note_off_c, 4, 64, 127
2, 5622, Note_on_c, 10, 57, 127
2, 5622, Note_on_c, 6, 66, 127
2, 5640, Note_off_c, 8, 68, 127
2, 6121, Note_off_c, 1, 49, 127
2, 6125, Note_off_c, 6, 66, 127
2, 6125, Note_off_c, 10, 57, 127
2, 6128, Note_on_c, 0, 48, 127
2, 6128, Note_on_c, 8, 56, 127
2, 6128, Note_on_c, 3, 75, 127
2, 6383, Note_on_c, 1, 73, 127
2, 6627, Note_off_c, 1, 73, 127
2, 6633, Note_on_c, 0, 72, 127
2, 6883, Note_off_c, 0, 72, 127
2, 6888, Note_on_c, 11, 70, 127
2, 7132, Note_off_c, 11, 70, 127
2, 7138, Note_on_c, 0, 72, 127
2, 7391, Note_on_c, 8, 68, 127
2, 7628, Note_off_c, 0, 72, 127
2, 7634, Note_off_c, 8, 68, 127
2, 7643, Note_on_c, 8, 68, 127
2, 7758, Note_off_c, 3, 75, 127
2, 7770, Note_on_c, 3, 75, 127
2, 7896, Note_on_c, 8, 80, 127
2, 8421, Note_off_c, 8, 80, 127
2, 8422, Note_on_c, 6, 78, 127
2, 8646, Note_off_c, 6, 78, 127
2, 8648, Note_off_c, 3, 75, 127
2, 8651, Note_off_c, 8, 68, 127
2, 8652, Note_off_c, 8, 56, 127
2, 8652, Note_off_c, 0, 48, 127
2, 8654, Note_on_c, 1, 49, 127
2, 8654, Note_on_c, 1, 61, 127
2, 8654, Note_on_c, 1, 73, 127
2, 8654, Note_on_c, 8, 68, 127
2, 8654, Note_on_c, 4, 76, 127
2, 9157, Note_off_c, 4, 76, 127
2, 9157, Note_off_c, 8, 68, 127
2, 9157, Note_off_c, 1, 73, 127
2, 9157, Note_off_c, 1, 61, 127
2, 9157, Note_off_c, 1, 49, 127
2, 9159, Note_on_c, 8, 56, 127
2, 9159, Note_on_c, 3, 63, 127
2, 9159, Note_on_c, 8, 68, 127
2, 9304, Note_on_c, 0, 72, 127
2, 9409, Note_off_c, 3, 63, 127
2, 9412, Note_on_c, 4, 76, 127
2, 9414, Note_on_c, 1, 61, 127
2, 9658, Note_off_c, 1, 61, 127
2, 9662, Note_off_c, 4, 76, 127
2, 9664, Note_on_c, 0, 60, 127
2, 9664, Note_on_c, 3, 75, 127
2, 9914, Note_off_c, 0, 60, 127
2, 9919, Note_on_c, 11, 58, 127
2, 10163, Note_off_c, 11, 58, 127
2, 10170, Note_on_c, 0, 60, 127
2, 10420, Note_off_c, 0, 60, 127
2, 10421, Note_off_c, 8, 56, 127
2, 10422, Note_on_c, 8, 56, 127
2, 10675, Note_on_c, 0, 60, 127
2, 10799, Note_off_c, 0, 60, 127
2, 10801, Note_on_c, 3, 63, 127
2, 10925, Note_off_c, 3, 63, 127
2, 10928, Note_on_c, 6, 66, 127
2, 11431, Note_off_c, 6, 66, 127
2, 11433, Note_on_c, 4, 64, 127
2, 11677, Note_off_c, 0, 72, 127
2, 11683, Note_off_c, 4, 64, 127
2, 11683, Note_off_c, 3, 75, 127
2, 11684, Note_off_c, 8, 68, 127
2, 11686, Note_on_c, 3, 63, 127
2, 11686, Note_on_c, 8, 80, 127
2, 11686, Note_on_c, 0, 72, 127
2, 11686, Note_on_c, 8, 68, 127
2, 12177, Note_off_c, 8, 80, 127
2, 12189, Note_off_c, 8, 68, 127
2, 12189, Note_off_c, 0, 72, 127
2, 12189, Note_off_c, 3, 63, 127
2, 12191, Note_on_c, 4, 64, 127
2, 12191, Note_on_c, 3, 75, 127
2, 12191, Note_on_c, 10, 69, 127
2, 12314, Note_off_c, 3, 75, 127
2, 12317, Note_on_c, 1, 73, 127
2, 12440, Note_off_c, 1, 73, 127
2, 12444, Note_on_c, 0, 72, 127
2, 12668, Note_off_c, 0, 72, 127
2, 12696, Note_on_c, 1, 73, 127
2, 12946, Note_off_c, 1, 73, 127
2, 12948, Note_on_c, 4, 76, 127
2, 13172, Note_off_c, 4, 76, 127
2, 13201, Note_on_c, 10, 81, 127
2, 13312, Note_off_c, 10, 81, 127
2, 13327, Note_on_c, 8, 80, 127
2, 13438, Note_off_c, 8, 80, 127
2, 13452, Note_on_c, 10, 81, 127
2, 13703, Note_off_c, 10, 69, 127
2, 13704, Note_off_c, 4, 64, 127
2, 13706, Note_on_c, 6, 54, 127
2, 13706, Note_on_c, 3, 63, 127
2, 13706, Note_on_c, 10, 69, 127
2, 13711, Note_off_c, 8, 56, 127
2, 13959, Note_off_c, 10, 81, 127
2, 13964, Note_on_c, 8, 80, 127
2, 14188, Note_off_c, 8, 80, 127
2, 14212, Note_on_c, 6, 78, 127
2, 14469, Note_on_c, 4, 76, 127
2, 14473, Note_off_c, 6, 78, 127
2, 14693, Note_off_c, 4, 76, 127
2, 14717, Note_on_c, 3, 75, 127
2, 14975, Note_on_c, 1, 73, 127
2, 14978, Note_off_c, 3, 75, 127
2, 15199, Note_off_c, 1, 73, 127
2, 15218, Note_off_c, 10, 69, 127
2, 15222, Note_on_c, 8, 68, 127
2, 15222, Note_on_c, 1, 73, 127
2, 15346, Note_off_c, 1, 73, 127
2, 15348, Note_on_c, 12, 71, 127
2, 15472, Note_off_c, 12, 71, 127
2, 15475, Note_on_c, 10, 69, 127
2, 15725, Note_off_c, 10, 69, 127
2, 15728, Note_on_c, 12, 71, 127
2, 15978, Note_off_c, 12, 71, 127
2, 15980, Note_on_c, 3, 75, 127
2, 16230, Note_off_c, 3, 75, 127
2, 16233, Note_on_c, 8, 80, 127
2, 16347, Note_off_c, 8, 80, 127
2, 16359, Note_on_c, 6, 78, 127
2, 16473, Note_off_c, 6, 78, 127
2, 16486, Note_on_c, 8, 80, 127
2, 16734, Note_off_c, 8, 68, 127
2, 16735, Note_off_c, 3, 63, 127
2, 16735, Note_off_c, 6, 54, 127
2, 16738, Note_on_c, 4, 52, 127
2, 16738, Note_on_c, 1, 61, 127
2, 16738, Note_on_c, 8, 68, 127
2, 16985, Note_off_c, 8, 80, 127
2, 16996, Note_on_c, 6, 78, 127
2, 17220, Note_off_c, 6, 78, 127
2, 17244, Note_on_c, 4, 76, 127
2, 17501, Note_on_c, 3, 75, 127
2, 17505, Note_off_c, 4, 76, 127
2, 17725, Note_off_c, 3, 75, 127
2, 17749, Note_on_c, 1, 73, 127
2, 18009, Note_on_c, 12, 71, 127
2, 18010, Note_off_c, 1, 73, 127
2, 18233, Note_off_c, 12, 71, 127
2, 18250, Note_off_c, 8, 68, 127
2, 18257, Note_on_c, 6, 66, 127
2, 18259, Note_on_c, 12, 71, 127
2, 18383, Note_off_c, 12, 71, 127
2, 18383, Note_on_c, 10, 69, 127
2, 18507, Note_off_c, 10, 69, 127
2, 18507, Note_on_c, 8, 68, 127
2, 18757, Note_off_c, 8, 68, 127
2, 18758, Note_on_c, 10, 69, 127
2, 19008, Note_off_c, 10, 69, 127
2, 19012, Note_on_c, 1, 73, 127
2, 19262, Note_off_c, 1, 73, 127
2, 19264, Note_on_c, 3, 75, 127
2, 19401, Note_on_c, 4, 76, 127
2, 19516, Note_off_c, 3, 75, 127
2, 19525, Note_off_c, 4, 76, 127
2, 19538, Note_on_c, 6, 78, 127
2, 19767, Note_off_c, 1, 61, 127
2, 19767, Note_off_c, 4, 52, 127
2, 19769, Note_off_c, 6, 66, 127
2, 19770, Note_on_c, 12, 59, 127
2, 19770, Note_on_c, 3, 51, 127
2, 19770, Note_on_c, 6, 66, 127
2, 20020, Note_off_c, 6, 78, 127
2, 20027, Note_on_c, 4, 76, 127
2, 20251, Note_off_c, 4, 76, 127
2, 20275, Note_on_c, 3, 75, 127
2, 20533, Note_on_c, 1, 73, 127
2, 20536, Note_off_c, 3, 75, 127
2, 20757, Note_off_c, 1, 73, 127
2, 20780, Note_on_c, 12, 71, 127
2, 21089, Note_on_c, 10, 69, 127
2, 21092, Note_off_c, 12, 71, 127
2, 21248, Note_off_c, 10, 69, 127
2, 21282, Note_off_c, 6, 66, 127
2, 21283, Note_off_c, 3, 51, 127
2, 21283, Note_off_c, 12, 59, 127
2, 21286, Note_on_c, 4, 52, 127
2, 21286, Note_on_c, 4, 64, 127
2, 21286, Note_on_c, 10, 69, 127
2, 21540, Note_on_c, 10, 57, 127
2, 21784, Note_off_c, 10, 57, 127
2, 21791, Note_on_c, 8, 56, 127
2, 21811, Note_on_c, 8, 68, 127
2, 21812, Note_off_c, 10, 69, 127
2, 21913, Note_on_c, 10, 69, 127
2, 21935, Note_off_c, 8, 68, 127
2, 22027, Note_on_c, 8, 68, 127
2, 22041, Note_off_c, 8, 56, 127
2, 22042, Note_off_c, 10, 69, 127
2, 22046, Note_on_c, 6, 54, 127
2, 22290, Note_off_c, 6, 54, 127
2, 22296, Note_on_c, 8, 56, 127
2, 22546, Note_off_c, 8, 56, 127
2, 22548, Note_off_c, 4, 52, 127
2, 22549, Note_on_c, 4, 52, 127
2, 22798, Note_off_c, 4, 64, 127
2, 22802, Note_on_c, 8, 56, 127
2, 22926, Note_off_c, 8, 56, 127
2, 22928, Note_on_c, 12, 59, 127
2, 23052, Note_off_c, 12, 59, 127
2, 23054, Note_on_c, 4, 64, 127
2, 23506, Note_off_c, 8, 68, 127
2, 23557, Note_off_c, 4, 64, 127
2, 23559, Note_on_c, 3, 63, 127
2, 23559, Note_on_c, 6, 66, 127
2, 23790, Note_off_c, 6, 66, 127
2, 23809, Note_off_c, 3, 63, 127
2, 23811, Note_on_c, 1, 61, 127
2, 23811, Note_on_c, 10, 69, 127
2, 23935, Note_off_c, 10, 69, 127
2, 23938, Note_on_c, 8, 68, 127
2, 24062, Note_off_c, 8, 68, 127
2, 24064, Note_on_c, 10, 69, 127
2, 24311, Note_off_c, 4, 52, 127
2, 24314, Note_off_c, 1, 61, 127
2, 24317, Note_on_c, 0, 60, 127
2, 24317, Note_on_c, 3, 51, 127
2, 24567, Note_off_c, 10, 69, 127
2, 24578, Note_on_c, 8, 68, 127
2, 24802, Note_off_c, 8, 68, 127
2, 24822, Note_on_c, 6, 66, 127
2, 25081, Note_off_c, 6, 66, 127
2, 25084, Note_on_c, 4, 64, 127
2, 25308, Note_off_c, 4, 64, 127
2, 25328, Note_on_c, 6, 66, 127
2, 25580, Note_on_c, 3, 63, 127
2, 25828, Note_off_c, 6, 66, 127
2, 25830, Note_off_c, 0, 60, 127
2, 25833, Note_on_c, 8, 56, 127
2, 25833, Note_on_c, 3, 75, 127
2, 26090, Note_off_c, 3, 63, 127
2, 26092, Note_off_c, 3, 75, 127
2, 26095, Note_on_c, 1, 73, 127
2, 26319, Note_off_c, 1, 73, 127
2, 26338, Note_on_c, 0, 72, 127
2, 26588, Note_off_c, 8, 56, 127
2, 26597, Note_off_c, 0, 72, 127
2, 26598, Note_on_c, 6, 54, 127
2, 26600, Note_on_c, 11, 70, 127
2, 26824, Note_off_c, 11, 70, 127
2, 26844, Note_on_c, 8, 56, 127
2, 26844, Note_on_c, 0, 72, 127
2, 26848, Note_off_c, 6, 54, 127
2, 27105, Note_on_c, 8, 68, 127
2, 27329, Note_off_c, 8, 68, 127
2, 27343, Note_off_c, 3, 51, 127
2, 27344, Note_off_c, 0, 72, 127
2, 27349, Note_on_c, 1, 49, 127
2, 27351, Note_on_c, 10, 81, 127
2, 27610, Note_off_c, 10, 81, 127
2, 27611, Note_on_c, 8, 80, 127
2, 27835, Note_off_c, 8, 80, 127
2, 27854, Note_on_c, 6, 78, 127
2, 28106, Note_off_c, 8, 56, 127
2, 28113, Note_off_c, 6, 78, 127
2, 28114, Note_on_c, 1, 61, 127
2, 28116, Note_on_c, 4, 76, 127
2, 28340, Note_off_c, 4, 76, 127
2, 28360, Note_on_c, 3, 63, 127
2, 28360, Note_on_c, 6, 78, 127
2, 28364, Note_off_c, 1, 61, 127
2, 28621, Note_on_c, 3, 75, 127
2, 28845, Note_off_c, 3, 75, 127
2, 28860, Note_off_c, 6, 78, 127
2, 28863, Note_off_c, 3, 63, 127
2, 28864, Note_on_c, 1, 61, 127
2, 28864, Note_on_c, 4, 76, 127
2, 29127, Note_on_c, 3, 75, 127
2, 29351, Note_off_c, 3, 75, 127
2, 29369, Note_on_c, 1, 73, 127
2, 29611, Note_off_c, 1, 49, 127
2, 29628, Note_off_c, 1, 73, 127
2, 29629, Note_on_c, 3, 51, 127
2, 29631, Note_on_c, 12, 71, 127
2, 29855, Note_off_c, 12, 71, 127
2, 29875, Note_on_c, 4, 52, 127
2, 29875, Note_on_c, 1, 73, 127
2, 29879, Note_off_c, 3, 51, 127
2, 30112, Note_off_c, 1, 61, 127
2, 30134, Note_off_c, 1, 73, 127
2, 30136, Note_on_c, 11, 70, 127
2, 30360, Note_off_c, 11, 70, 127
2, 30378, Note_off_c, 4, 52, 127
2, 30380, Note_on_c, 11, 46, 127
2, 30380, Note_on_c, 8, 68, 127
2, 30630, Note_off_c, 11, 46, 127
2, 30633, Note_on_c, 7, 67, 127
2, 30635, Note_on_c, 3, 51, 127
2, 30639, Note_off_c, 8, 68, 127
2, 30879, Note_off_c, 3, 51, 127
2, 30885, Note_on_c, 1, 49, 127
2, 31126, Note_off_c, 4, 76, 127
2, 31135, Note_off_c, 1, 49, 127
2, 31136, Note_off_c, 7, 67, 127
2, 31138, Note_on_c, 3, 75, 127
2, 31138, Note_on_c, 8, 68, 127
2, 31140, Note_on_c, 12, 47, 127
2, 31384, Note_off_c, 12, 47, 127
2, 31388, Note_off_c, 8, 68, 127
2, 31388, Note_off_c, 3, 75, 127
2, 31391, Note_on_c, 1, 49, 127
2, 31391, Note_on_c, 11, 70, 127
2, 31391, Note_on_c, 1, 73, 127
2, 31515, Note_off_c, 11, 70, 127
2, 31518, Note_on_c, 8, 68, 127
2, 31641, Note_off_c, 1, 49, 127
2, 31642, Note_off_c, 8, 68, 127
2, 31644, Note_on_c, 11, 70, 127
2, 31646, Note_on_c, 11, 46, 127
2, 31890, Note_off_c, 11, 46, 127
2, 31890, Note_off_c, 1, 73, 127
2, 31894, Note_off_c, 11, 70, 127
2, 31896, Note_on_c, 7, 43, 127
2, 31896, Note_on_c, 1, 73, 127
2, 31896, Note_on_c, 3, 63, 127
2, 32146, Note_off_c, 7, 43, 127
2, 32151, Note_on_c, 12, 47, 127
2, 32395, Note_off_c, 12, 47, 127
2, 32402, Note_on_c, 11, 46, 127
2, 32651, Note_off_c, 3, 63, 127
2, 32651, Note_off_c, 1, 73, 127
2, 32652, Note_off_c, 11, 46, 127
2, 32654, Note_on_c, 12, 71, 127
2, 32654, Note_on_c, 5, 65, 127
2, 32656, Note_on_c, 8, 44, 127
2, 32900, Note_off_c, 8, 44, 127
2, 32904, Note_off_c, 5, 65, 127
2, 32904, Note_off_c, 12, 71, 127
2, 32907, Note_on_c, 11, 46, 127
2, 32907, Note_on_c, 11, 70, 127
2, 32907, Note_on_c, 7, 67, 127
2, 33031, Note_off_c, 7, 67, 127
2, 33033, Note_on_c, 5, 65, 127
2, 33157, Note_off_c, 5, 65, 127
2, 33157, Note_off_c, 11, 46, 127
2, 33160, Note_on_c, 7, 67, 127
2, 33162, Note_on_c, 7, 43, 127
2, 33406, Note_off_c, 7, 43, 127
2, 33412, Note_on_c, 1, 37, 127
2, 33662, Note_off_c, 11, 70, 127
2, 33663, Note_off_c, 7, 67, 127
2, 33674, Note_on_c, 8, 68, 127
2, 33898, Note_off_c, 8, 68, 127
2, 33918, Note_on_c, 7, 67, 127
2, 34177, Note_off_c, 7, 67, 127
2, 34179, Note_on_c, 5, 65, 127
2, 34403, Note_off_c, 5, 65, 127
2, 34422, Note_on_c, 7, 67, 127
2, 34685, Note_on_c, 3, 63, 127
2, 34911, Note_off_c, 7, 67, 127
2, 34927, Note_on_c, 7, 67, 127
2, 35054, Note_on_c, 11, 70, 127
2, 35178, Note_off_c, 1, 37, 127
2, 35180, Note_on_c, 3, 75, 127
2, 35182, Note_on_c, 1, 49, 127
2, 35303, Note_off_c, 11, 70, 127
2, 35426, Note_off_c, 1, 49, 127
2, 35433, Note_on_c, 12, 47, 127
2, 35683, Note_off_c, 12, 47, 127
2, 35687, Note_on_c, 11, 46, 127
2, 35885, Note_off_c, 3, 63, 127
2, 35931, Note_off_c, 11, 46, 127
2, 35935, Note_off_c, 7, 67, 127
2, 35938, Note_on_c, 12, 47, 127
2, 35938, Note_on_c, 8, 68, 127
2, 36188, Note_off_c, 12, 47, 127
2, 36193, Note_on_c, 8, 44, 127
2, 36437, Note_off_c, 8, 44, 127
2, 36443, Note_on_c, 4, 52, 127
2, 36567, Note_off_c, 4, 52, 127
2, 36570, Note_on_c, 3, 51, 127
2, 36692, Note_off_c, 3, 75, 127
2, 36694, Note_off_c, 3, 51, 127
2, 36696, Note_on_c, 4, 52, 127
2, 36705, Note_on_c, 0, 72, 127
2, 36929, Note_off_c, 0, 72, 127
2, 36949, Note_on_c, 1, 73, 127
2, 37199, Note_off_c, 4, 52, 127
2, 37208, Note_off_c, 1, 73, 127
2, 37208, Note_on_c, 3, 51, 127
2, 37210, Note_on_c, 3, 75, 127
2, 37434, Note_off_c, 3, 75, 127
2, 37452, Note_off_c, 3, 51, 127
2, 37454, Note_on_c, 1, 49, 127
2, 37454, Note_on_c, 4, 76, 127
2, 37713, Note_off_c, 4, 76, 127
2, 37716, Note_on_c, 3, 75, 127
2, 37940, Note_off_c, 3, 75, 127
2, 37950, Note_off_c, 8, 68, 127
2, 37957, Note_off_c, 1, 49, 127
2, 37960, Note_on_c, 3, 51, 127
2, 37960, Note_on_c, 1, 73, 127
2, 37960, Note_on_c, 8, 68, 127
2, 38217, Note_on_c, 12, 71, 127
2, 38219, Note_off_c, 1, 73, 127
2, 38720, Note_off_c, 12, 71, 127
2, 38727, Note_on_c, 1, 73, 127
2, 38951, Note_off_c, 1, 73, 127
2, 38968, Note_off_c, 8, 68, 127
2, 38968, Note_off_c, 3, 51, 127
2, 38970, Note_on_c, 3, 39, 127
2, 38970, Note_on_c, 12, 71, 127
2, 38970, Note_on_c, 7, 67, 127
2, 39127, Note_on_c, 11, 70, 127
2, 39129, Note_off_c, 12, 71, 127
2, 39243, Note_on_c, 8, 68, 127
2, 39251, Note_off_c, 11, 70, 127
2, 39359, Note_on_c, 11, 70, 127
2, 39367, Note_off_c, 8, 68, 127
2, 39469, Note_off_c, 7, 67, 127
2, 39473, Note_off_c, 3, 39, 127
2, 39476, Note_on_c, 8, 44, 127
2, 39476, Note_on_c, 12, 59, 127
2, 39514, Note_off_c, 11, 70, 127
2, 39621, Note_on_c, 3, 63, 127
2, 39726, Note_off_c, 8, 44, 127
2, 39730, Note_on_c, 1, 49, 127
2, 39768, Note_on_c, 8, 68, 127
2, 39974, Note_off_c, 1, 49, 127
2, 39980, Note_on_c, 12, 47, 127
2, 40230, Note_off_c, 12, 47, 127
2, 40235, Note_on_c, 11, 46, 127
2, 40479, Note_off_c, 11, 46, 127
2, 40485, Note_on_c, 12, 47, 127
2, 40735, Note_off_c, 12, 47, 127
2, 40740, Note_on_c, 8, 44, 127
2, 40984, Note_off_c, 8, 44, 127
2, 40991, Note_on_c, 12, 47, 127
2, 41241, Note_off_c, 12, 47, 127
2, 41245, Note_on_c, 3, 51, 127
2, 41489, Note_off_c, 3, 51, 127
2, 41496, Note_on_c, 8, 56, 127
2, 41751, Note_on_c, 4, 52, 127
2, 41864, Note_off_c, 8, 56, 127
2, 41994, Note_off_c, 8, 68, 127
2, 41994, Note_off_c, 3, 63, 127
2, 41995, Note_off_c, 4, 52, 127
2, 41999, Note_off_c, 12, 59, 127
2, 42001, Note_on_c, 6, 54, 127
2, 42001, Note_on_c, 12, 71, 127
2, 42112, Note_on_c, 11, 70, 127
2, 42125, Note_off_c, 12, 71, 127
2, 42223, Note_on_c, 12, 71, 127
2, 42236, Note_off_c, 11, 70, 127
2, 42256, Note_on_c, 3, 51, 127
2, 42500, Note_off_c, 3, 51, 127
2, 42500, Note_off_c, 6, 54, 127
2, 42507, Note_on_c, 4, 52, 127
2, 42507, Note_on_c, 1, 49, 127
2, 42750, Note_off_c, 12, 71, 127
2, 42757, Note_off_c, 1, 49, 127
2, 42761, Note_on_c, 3, 51, 127
2, 42768, Note_on_c, 8, 68, 127
2, 42992, Note_off_c, 8, 68, 127
2, 43005, Note_off_c, 3, 51, 127
2, 43012, Note_on_c, 1, 49, 127
2, 43012, Note_on_c, 11, 70, 127
2, 43262, Note_off_c, 1, 49, 127
2, 43267, Note_on_c, 12, 47, 127
2, 43271, Note_off_c, 11, 70, 127
2, 43274, Note_on_c, 1, 73, 127
2, 43498, Note_off_c, 1, 73, 127
2, 43511, Note_off_c, 12, 47, 127
2, 43517, Note_on_c, 1, 49, 127
2, 43517, Note_on_c, 4, 76, 127
2, 43767, Note_off_c, 1, 49, 127
2, 43770, Note_on_c, 11, 46, 127
2, 44019, Note_off_c, 4, 52, 127
2, 44023, Note_on_c, 6, 54, 127
2, 44142, Note_on_c, 4, 52, 127
2, 44147, Note_off_c, 6, 54, 127
2, 44265, Note_on_c, 6, 54, 127
2, 44266, Note_off_c, 4, 52, 127
2, 44272, Note_off_c, 4, 76, 127
2, 44276, Note_on_c, 3, 75, 127
2, 44526, Note_off_c, 3, 75, 127
2, 44528, Note_on_c, 4, 76, 127
2, 44778, Note_off_c, 4, 76, 127
2, 44779, Note_off_c, 6, 54, 127
2, 44788, Note_on_c, 8, 56, 127
2, 44790, Note_on_c, 8, 80, 127
2, 45014, Note_off_c, 8, 80, 127
2, 45034, Note_on_c, 11, 58, 127
2, 45034, Note_on_c, 6, 78, 127
2, 45038, Note_off_c, 8, 56, 127
2, 45047, Note_off_c, 11, 46, 127
2, 45520, Note_off_c, 11, 58, 127
2, 45537, Note_off_c, 6, 78, 127
2, 45538, Note_on_c, 12, 59, 127
2, 45538, Note_on_c, 3, 75, 127
2, 45662, Note_off_c, 12, 59, 127
2, 45665, Note_on_c, 11, 58, 127
2, 45789, Note_off_c, 11, 58, 127
2, 45791, Note_on_c, 12, 59, 127
2, 45801, Note_on_c, 1, 73, 127
2, 46025, Note_off_c, 1, 73, 127
2, 46043, Note_on_c, 12, 71, 127
2, 46302, Note_off_c, 12, 71, 127
2, 46305, Note_on_c, 11, 70, 127
2, 46529, Note_off_c, 11, 70, 127
2, 46549, Note_on_c, 12, 71, 127
2, 46801, Note_on_c, 6, 66, 127
2, 47054, Note_on_c, 3, 63, 127
2, 47304, Note_off_c, 12, 59, 127
2, 47317, Note_on_c, 12, 59, 127
2, 47561, Note_off_c, 12, 59, 127
2, 47567, Note_on_c, 10, 57, 127
2, 47817, Note_off_c, 10, 57, 127
2, 47822, Note_on_c, 8, 56, 127
2, 48058, Note_off_c, 6, 66, 127
2, 48062, Note_off_c, 3, 63, 127
2, 48062, Note_off_c, 12, 71, 127
2, 48063, Note_off_c, 3, 75, 127
2, 48066, Note_off_c, 8, 56, 127
2, 48073, Note_on_c, 10, 57, 127
2, 48073, Note_on_c, 1, 73, 127
2, 48323, Note_off_c, 10, 57, 127
2, 48327, Note_on_c, 6, 54, 127
2, 48571, Note_off_c, 6, 54, 127
2, 48578, Note_on_c, 3, 51, 127
2, 48828, Note_off_c, 3, 51, 127
2, 48828, Note_off_c, 1, 73, 127
2, 48838, Note_on_c, 4, 52, 127
2, 48840, Note_on_c, 11, 70, 127
2, 49064, Note_off_c, 11, 70, 127
2, 49082, Note_off_c, 4, 52, 127
2, 49083, Note_on_c, 3, 51, 127
2, 49083, Note_on_c, 0, 72, 127
2, 49333, Note_off_c, 3, 51, 127
2, 49342, Note_off_c, 0, 72, 127
2, 49343, Note_on_c, 1, 49, 127
2, 49345, Note_on_c, 3, 75, 127
2, 49569, Note_off_c, 3, 75, 127
2, 49587, Note_off_c, 1, 49, 127
2, 49589, Note_on_c, 3, 51, 127
2, 49589, Note_on_c, 6, 78, 127
2, 49848, Note_off_c, 6, 78, 127
2, 49848, Note_on_c, 0, 48, 127
2, 49850, Note_on_c, 8, 80, 127
2, 50074, Note_off_c, 8, 80, 127
2, 50092, Note_off_c, 0, 48, 127
2, 50094, Note_on_c, 8, 44, 127
2, 50094, Note_on_c, 10, 81, 127
2, 50353, Note_off_c, 10, 81, 127
2, 50356, Note_on_c, 8, 80, 127
2, 50580, Note_off_c, 8, 80, 127
2, 50600, Note_on_c, 6, 78, 127
2, 50849, Note_off_c, 8, 44, 127
2, 50859, Note_off_c, 6, 78, 127
2, 50859, Note_on_c, 11, 46, 127
2, 50861, Note_on_c, 4, 76, 127
2, 51085, Note_off_c, 4, 76, 127
2, 51101, Note_off_c, 3, 51, 127
2, 51105, Note_on_c, 0, 48, 127
2, 51105, Note_on_c, 6, 78, 127
2, 51109, Note_off_c, 11, 46, 127
2, 51367, Note_on_c, 3, 75, 127
2, 51433, Note_off_c, 6, 78, 127
2, 51591, Note_off_c, 3, 75, 127
2, 51608, Note_off_c, 0, 48, 127
2, 51609, Note_on_c, 1, 49, 127
2, 51609, Note_on_c, 4, 76, 127
2, 51872, Note_on_c, 3, 75, 127
2, 52096, Note_off_c, 3, 75, 127
2, 52115, Note_on_c, 1, 73, 127
2, 52374, Note_off_c, 1, 73, 127
2, 52376, Note_on_c, 0, 72, 127
2, 52600, Note_off_c, 0, 72, 127
2, 52620, Note_on_c, 1, 73, 127
2, 52873, Note_on_c, 8, 68, 127
2, 53125, Note_on_c, 4, 64, 127
2, 53394, Note_off_c, 1, 49, 127
2, 53397, Note_on_c, 3, 51, 127
2, 53641, Note_off_c, 3, 51, 127
2, 53647, Note_on_c, 4, 52, 127
2, 53897, Note_off_c, 4, 52, 127
2, 53901, Note_on_c, 6, 54, 127
2, 54145, Note_off_c, 6, 54, 127
2, 54152, Note_on_c, 8, 56, 127
2, 54402, Note_off_c, 8, 56, 127
2, 54407, Note_on_c, 10, 57, 127
2, 54632, Note_off_c, 1, 73, 127
2, 54635, Note_off_c, 8, 68, 127
2, 54651, Note_off_c, 10, 57, 127
2, 54657, Note_on_c, 12, 59, 127
2, 54695, Note_off_c, 4, 64, 127
2, 54898, Note_off_c, 4, 76, 127
2, 54919, Note_on_c, 2, 74, 127
2, 55143, Note_off_c, 2, 74, 127
2, 55163, Note_on_c, 5, 77, 127
2, 55422, Note_off_c, 5, 77, 127
2, 55422, Note_on_c, 1, 61, 127
2, 55424, Note_on_c, 8, 80, 127
2, 55648, Note_off_c, 8, 80, 127
2, 55668, Note_on_c, 12, 83, 127
2, 55668, Note_on_c, 2, 62, 127
2, 55672, Note_off_c, 1, 61, 127
2, 55919, Note_off_c, 12, 59, 127
2, 55921, Note_on_c, 12, 59, 127
2, 56171, Note_off_c, 12, 59, 127
2, 56173, Note_on_c, 5, 53, 127
2, 56423, Note_off_c, 12, 83, 127
2, 56435, Note_on_c, 2, 74, 127
2, 56659, Note_off_c, 2, 74, 127
2, 56676, Note_off_c, 2, 62, 127
2, 56679, Note_on_c, 1, 73, 127
2, 56679, Note_on_c, 8, 56, 127
2, 56938, Note_off_c, 1, 73, 127
2, 56941, Note_on_c, 12, 71, 127
2, 57165, Note_off_c, 12, 71, 127
2, 57182, Note_off_c, 8, 56, 127
2, 57184, Note_on_c, 10, 69, 127
2, 57184, Note_on_c, 1, 61, 127
2, 57443, Note_off_c, 10, 69, 127
2, 57446, Note_on_c, 8, 68, 127
2, 57670, Note_off_c, 8, 68, 127
2, 57685, Note_off_c, 5, 53, 127
2, 57690, Note_on_c, 10, 69, 127
2, 57690, Note_on_c, 6, 54, 127
2, 57805, Note_on_c, 8, 68, 127
2, 57814, Note_off_c, 10, 69, 127
2, 57923, Note_on_c, 10, 69, 127
2, 57929, Note_off_c, 8, 68, 127
2, 57939, Note_off_c, 1, 61, 127
2, 57944, Note_on_c, 12, 59, 127
2, 58188, Note_off_c, 12, 59, 127
2, 58195, Note_on_c, 10, 57, 127
2, 58445, Note_off_c, 10, 57, 127
2, 58450, Note_on_c, 8, 56, 127
2, 58694, Note_off_c, 8, 56, 127
2, 58699, Note_on_c, 10, 57, 127
2, 58945, Note_off_c, 6, 54, 127
2, 58949, Note_off_c, 10, 57, 127
2, 58952, Note_on_c, 6, 54, 127
2, 59205, Note_on_c, 6, 66, 127
2, 59436, Note_off_c, 10, 69, 127
2, 59466, Note_on_c, 8, 68, 127
2, 59690, Note_off_c, 8, 68, 127
2, 59710, Note_on_c, 10, 69, 127
2, 59960, Note_off_c, 6, 66, 127
2, 59969, Note_off_c, 10, 69, 127
2, 59970, Note_on_c, 4, 64, 127
2, 59972, Note_on_c, 1, 73, 127
2, 60196, Note_off_c, 1, 73, 127
2, 60215, Note_on_c, 3, 63, 127
2, 60216, Note_on_c, 6, 78, 127
2, 60220, Note_off_c, 4, 64, 127
2, 60465, Note_off_c, 3, 63, 127
2, 60468, Note_on_c, 1, 61, 127
2, 60714, Note_off_c, 6, 54, 127
2, 60718, Note_off_c, 1, 61, 127
2, 60721, Note_on_c, 8, 56, 127
2, 60721, Note_on_c, 12, 59, 127
2, 60971, Note_off_c, 6, 78, 127
2, 60982, Note_on_c, 4, 76, 127
2, 61206, Note_off_c, 4, 76, 127
2, 61226, Note_on_c, 3, 75, 127
2, 61476, Note_off_c, 12, 59, 127
2, 61476, Note_off_c, 8, 56, 127
2, 61485, Note_off_c, 3, 75, 127
2, 61486, Note_on_c, 10, 57, 127
2, 61486, Note_on_c, 1, 61, 127
2, 61488, Note_on_c, 1, 73, 127
2, 61712, Note_off_c, 1, 73, 127
2, 61730, Note_off_c, 10, 57, 127
2, 61731, Note_on_c, 12, 71, 127
2, 61731, Note_on_c, 3, 63, 127
2, 61731, Note_on_c, 12, 59, 127
2, 61736, Note_off_c, 1, 61, 127
2, 61990, Note_off_c, 12, 71, 127
2, 61993, Note_on_c, 10, 69, 127
2, 62217, Note_off_c, 10, 69, 127
2, 62234, Note_off_c, 12, 59, 127
2, 62237, Note_on_c, 10, 69, 127
2, 62237, Note_on_c, 4, 52, 127
2, 62362, Note_off_c, 10, 69, 127
2, 62363, Note_on_c, 8, 68, 127
2, 62488, Note_off_c, 8, 68, 127
2, 62490, Note_on_c, 6, 66, 127
2, 62740, Note_off_c, 6, 66, 127
2, 62741, Note_on_c, 8, 68, 127
2, 62992, Note_off_c, 3, 63, 127
2, 63002, Note_on_c, 8, 56, 127
2, 63003, Note_off_c, 8, 68, 127
2, 63004, Note_on_c, 12, 71, 127
2, 63228, Note_off_c, 12, 71, 127
2, 63248, Note_on_c, 4, 76, 127
2, 63248, Note_on_c, 1, 61, 127
2, 63252, Note_off_c, 8, 56, 127
2, 63498, Note_off_c, 1, 61, 127
2, 63500, Note_on_c, 0, 60, 127
2, 63750, Note_off_c, 0, 60, 127
2, 63754, Note_on_c, 1, 61, 127
2, 63867, Note_off_c, 1, 61, 127
2, 63870, Note_on_c, 0, 60, 127
2, 63983, Note_off_c, 0, 60, 127
2, 63986, Note_on_c, 1, 61, 127
2, 64003, Note_off_c, 4, 76, 127
2, 64015, Note_on_c, 3, 75, 127
2, 64239, Note_off_c, 3, 75, 127
2, 64257, Note_on_c, 1, 73, 127
2, 64499, Note_off_c, 4, 52, 127
2, 64516, Note_off_c, 1, 73, 127
2, 64518, Note_on_c, 3, 51, 127
2, 64520, Note_on_c, 12, 71, 127
2, 64744, Note_off_c, 12, 71, 127
2, 64762, Note_off_c, 3, 51, 127
2, 64763, Note_on_c, 10, 69, 127
2, 64763, Note_on_c, 1, 49, 127
2, 65022, Note_off_c, 10, 69, 127
2, 65024, Note_on_c, 8, 68, 127
2, 65248, Note_off_c, 8, 68, 127
2, 65266, Note_off_c, 1, 49, 127
2, 65268, Note_on_c, 8, 68, 127
2, 65268, Note_on_c, 3, 51, 127
2, 65392, Note_off_c, 8, 68, 127
2, 65400, Note_on_c, 6, 66, 127
2, 65521, Note_on_c, 4, 64, 127
2, 65524, Note_off_c, 6, 66, 127
2, 65771, Note_off_c, 4, 64, 127
2, 65773, Note_on_c, 6, 66, 127
2, 65998, Note_off_c, 1, 61, 127
2, 66023, Note_off_c, 6, 66, 127
2, 66033, Note_on_c, 0, 60, 127
2, 66035, Note_on_c, 10, 69, 127
2, 66259, Note_off_c, 10, 69, 127
2, 66279, Note_on_c, 0, 72, 127
2, 66279, Note_on_c, 1, 61, 127
2, 66283, Note_off_c, 0, 60, 127
2, 66412, Note_on_c, 1, 73, 127
2, 66528, Note_off_c, 0, 72, 127
2, 66529, Note_off_c, 1, 61, 127
2, 66531, Note_on_c, 11, 58, 127
2, 66543, Note_on_c, 3, 75, 127
2, 66661, Note_off_c, 1, 73, 127
2, 66780, Note_off_c, 3, 51, 127
2, 66781, Note_off_c, 11, 58, 127
2, 66784, Note_on_c, 0, 60, 127
2, 66784, Note_on_c, 8, 56, 127
2, 66908, Note_off_c, 0, 60, 127
2, 66910, Note_on_c, 11, 58, 127
2, 67031, Note_off_c, 3, 75, 127
2, 67034, Note_off_c, 11, 58, 127
2, 67037, Note_on_c, 0, 60, 127
2, 67046, Note_on_c, 1, 73, 127
2, 67270, Note_off_c, 1, 73, 127
2, 67289, Note_on_c, 0, 72, 127
2, 67539, Note_off_c, 8, 56, 127
2, 67540, Note_off_c, 0, 60, 127
2, 67548, Note_off_c, 0, 72, 127
2, 67549, Note_on_c, 11, 58, 127
2, 67549, Note_on_c, 1, 61, 127
2, 67551, Note_on_c, 11, 70, 127
2, 67775, Note_off_c, 11, 70, 127
2, 67793, Note_off_c, 11, 58, 127
2, 67795, Note_on_c, 8, 68, 127
2, 67795, Note_on_c, 3, 63, 127
2, 67795, Note_on_c, 0, 60, 127
2, 67799, Note_off_c, 1, 61, 127
2, 68054, Note_off_c, 8, 68, 127
2, 68056, Note_on_c, 6, 66, 127
2, 68280, Note_off_c, 6, 66, 127
2, 68298, Note_off_c, 0, 60, 127
2, 68298, Note_off_c, 3, 63, 127
2, 68300, Note_on_c, 6, 66, 127
2, 68300, Note_on_c, 1, 61, 127
2, 68430, Note_off_c, 6, 66, 127
2, 68438, Note_on_c, 4, 64, 127
2, 68564, Note_off_c, 4, 64, 127
2, 68574, Note_on_c, 3, 63, 127
2, 68798, Note_off_c, 3, 63, 127
2, 68803, Note_on_c, 4, 64, 127
2, 69053, Note_off_c, 4, 64, 127
2, 69058, Note_on_c, 8, 68, 127
2, 69060, Note_on_c, 12, 59, 127
2, 69304, Note_off_c, 12, 59, 127
2, 69308, Note_off_c, 8, 68, 127
2, 69311, Note_on_c, 1, 73, 127
2, 69311, Note_on_c, 10, 57, 127
2, 69561, Note_off_c, 10, 57, 127
2, 69566, Note_on_c, 8, 56, 127
2, 69810, Note_off_c, 8, 56, 127
2, 69812, Note_off_c, 1, 61, 127
2, 69815, Note_on_c, 6, 54, 127
2, 69815, Note_on_c, 10, 57, 127
2, 70066, Note_off_c, 1, 73, 127
2, 70078, Note_on_c, 12, 71, 127
2, 70302, Note_off_c, 12, 71, 127
2, 70321, Note_on_c, 10, 69, 127
2, 70570, Note_off_c, 10, 57, 127
2, 70580, Note_off_c, 10, 69, 127
2, 70580, Note_on_c, 12, 59, 127
2, 70582, Note_on_c, 8, 68, 127
2, 70806, Note_off_c, 8, 68, 127
2, 70824, Note_off_c, 12, 59, 127
2, 70826, Note_on_c, 10, 69, 127
2, 70826, Note_on_c, 1, 61, 127
2, 71088, Note_on_c, 6, 66, 127
2, 71312, Note_off_c, 6, 66, 127
2, 71326, Note_off_c, 10, 69, 127
2, 71329, Note_off_c, 1, 61, 127
2, 71331, Note_on_c, 6, 78, 127
2, 71331, Note_on_c, 2, 62, 127
2, 71455, Note_off_c, 2, 62, 127
2, 71461, Note_on_c, 1, 61, 127
2, 71585, Note_off_c, 1, 61, 127
2, 71590, Note_off_c, 6, 78, 127
2, 71591, Note_on_c, 2, 62, 127
2, 71593, Note_on_c, 4, 76, 127
2, 71817, Note_off_c, 4, 76, 127
2, 71837, Note_on_c, 2, 74, 127
2, 72077, Note_off_c, 6, 54, 127
2, 72096, Note_off_c, 2, 74, 127
2, 72096, Note_on_c, 4, 52, 127
2, 72098, Note_on_c, 1, 73, 127
2, 72322, Note_off_c, 1, 73, 127
2, 72340, Note_off_c, 4, 52, 127
2, 72342, Note_on_c, 2, 74, 127
2, 72342, Note_on_c, 6, 54, 127
2, 72604, Note_on_c, 10, 69, 127
2, 72828, Note_off_c, 10, 69, 127
2, 72838, Note_off_c, 6, 54, 127
2, 72842, Note_off_c, 2, 74, 127
2, 72847, Note_on_c, 10, 81, 127
2, 72847, Note_on_c, 0, 60, 127
2, 72847, Note_on_c, 3, 51, 127
2, 72853, Note_off_c, 2, 62, 127
2, 73106, Note_off_c, 10, 81, 127
2, 73109, Note_on_c, 8, 80, 127
2, 73333, Note_off_c, 8, 80, 127
2, 73353, Note_on_c, 6, 78, 127
2, 73602, Note_off_c, 3, 51, 127
2, 73612, Note_off_c, 6, 78, 127
2, 73612, Note_on_c, 6, 54, 127
2, 73614, Note_on_c, 4, 76, 127
2, 73838, Note_off_c, 4, 76, 127
2, 73856, Note_off_c, 6, 54, 127
2, 73858, Note_on_c, 6, 78, 127
2, 73858, Note_on_c, 10, 57, 127
2, 74111, Note_on_c, 3, 75, 127
2, 74258, Note_off_c, 6, 78, 127
2, 74359, Note_off_c, 0, 60, 127
2, 74363, Note_on_c, 0, 84, 127
2, 74363, Note_on_c, 6, 66, 127
2, 74592, Note_off_c, 10, 57, 127
2, 74618, Note_on_c, 8, 56, 127
2, 74862, Note_off_c, 8, 56, 127
2, 74862, Note_off_c, 6, 66, 127
2, 74869, Note_on_c, 6, 54, 127
2, 75119, Note_off_c, 6, 54, 127
2, 75123, Note_on_c, 4, 52, 127
2, 75367, Note_off_c, 4, 52, 127
2, 75371, Note_off_c, 0, 84, 127
2, 75373, Note_on_c, 6, 54, 127
2, 75623, Note_off_c, 6, 54, 127
2, 75626, Note_on_c, 8, 80, 127
2, 75628, Note_on_c, 3, 51, 127
2, 75841, Note_off_c, 3, 75, 127
2, 75861, Note_off_c, 8, 80, 127
2, 75872, Note_off_c, 3, 51, 127
2, 75879, Note_on_c, 3, 75, 127
2, 75879, Note_on_c, 8, 80, 127
2, 75879, Note_on_c, 4, 52, 127
2, 76129, Note_off_c, 4, 52, 127
2, 76133, Note_on_c, 3, 51, 127
2, 76377, Note_off_c, 3, 51, 127
2, 76384, Note_on_c, 1, 49, 127
2, 76634, Note_off_c, 1, 49, 127
2, 76634, Note_off_c, 3, 75, 127
2, 76644, Note_on_c, 12, 47, 127
2, 76646, Note_on_c, 4, 76, 127
2, 76870, Note_off_c, 4, 76, 127
2, 76888, Note_off_c, 12, 47, 127
2, 76889, Note_on_c, 0, 72, 127
2, 76889, Note_on_c, 1, 49, 127
2, 77139, Note_off_c, 1, 49, 127
2, 77142, Note_on_c, 10, 45, 127
2, 77381, Note_off_c, 10, 45, 127
2, 77392, Note_off_c, 0, 72, 127
2, 77395, Note_on_c, 1, 73, 127
2, 77395, Note_on_c, 10, 57, 127
2, 77517, Note_on_c, 8, 56, 127
2, 77519, Note_off_c, 10, 57, 127
2, 77641, Note_off_c, 8, 56, 127
2, 77641, Note_off_c, 8, 80, 127
2, 77641, Note_on_c, 10, 57, 127
2, 77656, Note_on_c, 6, 78, 127
2, 77880, Note_off_c, 6, 78, 127
2, 77900, Note_on_c, 4, 76, 127
2, 78159, Note_off_c, 4, 76, 127
2, 78162, Note_on_c, 3, 75, 127
2, 78386, Note_off_c, 3, 75, 127
2, 78405, Note_on_c, 4, 76, 127
2, 78657, Note_off_c, 1, 73, 127
2, 78658, Note_on_c, 1, 73, 127
2, 78664, Note_off_c, 4, 76, 127
2, 78911, Note_on_c, 3, 75, 127
2, 79035, Note_off_c, 3, 75, 127
2, 79043, Note_on_c, 4, 76, 127
2, 79154, Note_off_c, 10, 57, 127
2, 79167, Note_off_c, 4, 76, 127
2, 79173, Note_on_c, 8, 56, 127
2, 79175, Note_on_c, 6, 78, 127
2, 79416, Note_on_c, 6, 54, 127
2, 79417, Note_off_c, 8, 56, 127
2, 79666, Note_off_c, 6, 54, 127
2, 79666, Note_off_c, 1, 73, 127
2, 79669, Note_on_c, 0, 72, 127
2, 79671, Note_on_c, 4, 52, 127
2, 79915, Note_off_c, 4, 52, 127
2, 79919, Note_off_c, 0, 72, 127
2, 79921, Note_on_c, 3, 75, 127
2, 79921, Note_on_c, 6, 54, 127
2, 80171, Note_off_c, 6, 54, 127
2, 80174, Note_on_c, 3, 51, 127
2, 80413, Note_off_c, 3, 51, 127
2, 80424, Note_off_c, 3, 75, 127
2, 80427, Note_on_c, 8, 68, 127
2, 80427, Note_on_c, 0, 60, 127
2, 80670, Note_off_c, 6, 78, 127
2, 80688, Note_on_c, 4, 76, 127
2, 80912, Note_off_c, 4, 76, 127
2, 80930, Note_off_c, 0, 60, 127
2, 80931, Note_on_c, 3, 75, 127
2, 80931, Note_on_c, 11, 58, 127
2, 81190, Note_off_c, 3, 75, 127
2, 81193, Note_on_c, 1, 73, 127
2, 81417, Note_off_c, 1, 73, 127
2, 81434, Note_off_c, 11, 58, 127
2, 81436, Note_on_c, 3, 75, 127
2, 81436, Note_on_c, 0, 60, 127
2, 81689, Note_off_c, 8, 68, 127
2, 81689, Note_on_c, 8, 68, 127
2, 81695, Note_off_c, 3, 75, 127
2, 81939, Note_off_c, 0, 60, 127
2, 81942, Note_on_c, 4, 76, 127
2, 81942, Note_on_c, 1, 61, 127
2, 82064, Note_on_c, 3, 75, 127
2, 82066, Note_off_c, 4, 76, 127
2, 82185, Note_on_c, 4, 76, 127
2, 82188, Note_off_c, 3, 75, 127
2, 82192, Note_off_c, 1, 61, 127
2, 82197, Note_on_c, 12, 59, 127
2, 82441, Note_off_c, 12, 59, 127
2, 82447, Note_on_c, 10, 57, 127
2, 82697, Note_off_c, 10, 57, 127
2, 82700, Note_on_c, 1, 73, 127
2, 82702, Note_on_c, 8, 56, 127
2, 82946, Note_off_c, 8, 56, 127
2, 82950, Note_off_c, 1, 73, 127
2, 82950, Note_off_c, 8, 68, 127
2, 82953, Note_on_c, 6, 66, 127
2, 82953, Note_on_c, 10, 57, 127
2, 83203, Note_off_c, 10, 57, 127
2, 83203, Note_off_c, 6, 66, 127
2, 83205, Note_on_c, 8, 68, 127
2, 83205, Note_on_c, 6, 54, 127
2, 83455, Note_off_c, 8, 68, 127
2, 83458, Note_on_c, 10, 69, 127
2, 83458, Note_on_c, 6, 66, 127
2, 83697, Note_off_c, 4, 76, 127
2, 83720, Note_on_c, 3, 75, 127
2, 83944, Note_off_c, 3, 75, 127
2, 83960, Note_off_c, 6, 54, 127
2, 83963, Note_on_c, 4, 76, 127
2, 83963, Note_on_c, 6, 54, 127
2, 84222, Note_off_c, 4, 76, 127
2, 84225, Note_on_c, 6, 78, 127
2, 84449, Note_off_c, 6, 78, 127
2, 84466, Note_off_c, 6, 54, 127
2, 84466, Note_off_c, 6, 66, 127
2, 84469, Note_on_c, 8, 80, 127
2, 84469, Note_on_c, 6, 66, 127
2, 84728, Note_off_c, 8, 80, 127
2, 84730, Note_on_c, 10, 81, 127
2, 84954, Note_off_c, 10, 81, 127
2, 84970, Note_off_c, 10, 69, 127
2, 84974, Note_on_c, 8, 68, 127
2, 84974, Note_on_c, 1, 73, 127
2, 85224, Note_off_c, 6, 66, 127
2, 85229, Note_on_c, 4, 64, 127
2, 85280, Note_on_c, 0, 72, 127
2, 85289, Note_off_c, 1, 73, 127
2, 85374, Note_off_c, 0, 72, 127
2, 85380, Note_on_c, 1, 73, 127
2, 85473, Note_off_c, 4, 64, 127
2, 85474, Note_off_c, 1, 73, 127
2, 85479, Note_on_c, 3, 63, 127
2, 85479, Note_on_c, 0, 72, 127
2, 85729, Note_off_c, 3, 63, 127
2, 85734, Note_on_c, 1, 61, 127
2, 85738, Note_off_c, 0, 72, 127
2, 85741, Note_on_c, 1, 73, 127
2, 85965, Note_off_c, 1, 73, 127
2, 85978, Note_off_c, 1, 61, 127
2, 85984, Note_on_c, 3, 75, 127
2, 85984, Note_on_c, 0, 60, 127
2, 86234, Note_off_c, 0, 60, 127
2, 86238, Note_on_c, 11, 58, 127
2, 86482, Note_off_c, 11, 58, 127
2, 86486, Note_off_c, 8, 68, 127
2, 86487, Note_off_c, 3, 75, 127
2, 86489, Note_on_c, 0, 60, 127
2, 86489, Note_on_c, 8, 56, 127
2, 86616, Note_on_c, 1, 61, 127
2, 86739, Note_off_c, 8, 56, 127
2, 86740, Note_off_c, 1, 61, 127
2, 86742, Note_on_c, 3, 63, 127
2, 86744, Note_on_c, 6, 54, 127
2, 86869, Note_on_c, 4, 64, 127
2, 86988, Note_off_c, 6, 54, 127
2, 86993, Note_off_c, 4, 64, 127
2, 86994, Note_on_c, 6, 66, 127
2, 86994, Note_on_c, 4, 52, 127
2, 87244, Note_off_c, 4, 52, 127
2, 87249, Note_on_c, 3, 51, 127
2, 87493, Note_off_c, 3, 51, 127
2, 87500, Note_on_c, 1, 49, 127
2, 87750, Note_off_c, 1, 49, 127
2, 87754, Note_on_c, 12, 47, 127
2, 87998, Note_off_c, 12, 47, 127
2, 88001, Note_off_c, 0, 60, 127
2, 88004, Note_off_c, 3, 63, 127
2, 88005, Note_on_c, 10, 45, 127
2, 88267, Note_on_c, 4, 64, 127
2, 88381, Note_off_c, 6, 66, 127
2, 88491, Note_off_c, 4, 64, 127
2, 88511, Note_on_c, 3, 63, 127
2, 88760, Note_off_c, 10, 45, 127
2, 88770, Note_off_c, 3, 63, 127
2, 88770, Note_on_c, 12, 47, 127
2, 88772, Note_on_c, 1, 61, 127
2, 88996, Note_off_c, 1, 61, 127
2, 89014, Note_off_c, 12, 47, 127
2, 89016, Note_on_c, 3, 63, 127
2, 89016, Note_on_c, 8, 44, 127
2, 89278, Note_on_c, 0, 60, 127
2, 89496, Note_off_c, 3, 63, 127
2, 89502, Note_off_c, 0, 60, 127
2, 89519, Note_off_c, 8, 44, 127
2, 89521, Note_on_c, 10, 69, 127
2, 89521, Note_on_c, 6, 42, 127
2, 89774, Note_on_c, 8, 68, 127
2, 90018, Note_off_c, 8, 68, 127
2, 90027, Note_on_c, 6, 66, 127
2, 90276, Note_off_c, 6, 42, 127
2, 90276, Note_off_c, 10, 69, 127
2, 90277, Note_off_c, 6, 66, 127
2, 90279, Note_on_c, 4, 64, 127
2, 90281, Note_on_c, 8, 44, 127
2, 90523, Note_off_c, 4, 64, 127
2, 90525, Note_off_c, 8, 44, 127
2, 90532, Note_on_c, 6, 66, 127
2, 90532, Note_on_c, 4, 40, 127
2, 90785, Note_on_c, 3, 63, 127
2, 91012, Note_off_c, 6, 66, 127
2, 91029, Note_off_c, 3, 63, 127
2, 91035, Note_off_c, 4, 40, 127
2, 91037, Note_on_c, 0, 72, 127
2, 91037, Note_on_c, 3, 39, 127
2, 91290, Note_on_c, 10, 69, 127
2, 91540, Note_off_c, 10, 69, 127
2, 91542, Note_on_c, 8, 68, 127
2, 91792, Note_off_c, 8, 68, 127
2, 91792, Note_off_c, 3, 39, 127
2, 91792, Note_off_c, 0, 72, 127
2, 91794, Note_on_c, 6, 66, 127
2, 91796, Note_on_c, 4, 40, 127
2, 92040, Note_off_c, 4, 40, 127
2, 92044, Note_off_c, 6, 66, 127
2, 92047, Note_on_c, 8, 68, 127
2, 92047, Note_on_c, 6, 42, 127
2, 92300, Note_on_c, 3, 63, 127
2, 92527, Note_off_c, 8, 68, 127
2, 92550, Note_off_c, 3, 63, 127
2, 92550, Note_off_c, 6, 42, 127
2, 92552, Note_on_c, 3, 75, 127
2, 92552, Note_on_c, 0, 36, 127
2, 92805, Note_on_c, 1, 73, 127
2, 93055, Note_off_c, 1, 73, 127
2, 93058, Note_on_c, 0, 72, 127
2, 93307, Note_off_c, 0, 36, 127
2, 93307, Note_off_c, 3, 75, 127
2, 93308, Note_off_c, 0, 72, 127
2, 93310, Note_on_c, 11, 70, 127
2, 93312, Note_on_c, 3, 39, 127
2, 93556, Note_off_c, 3, 39, 127
2, 93560, Note_off_c, 11, 70, 127
2, 93563, Note_on_c, 0, 72, 127
2, 93563, Note_on_c, 6, 42, 127
2, 93816, Note_on_c, 8, 68, 127
2, 93824, Note_off_c, 0, 72, 127
2, 94066, Note_off_c, 6, 42, 127
2, 94068, Note_on_c, 8, 80, 127
2, 94068, Note_on_c, 4, 40, 127
2, 94296, Note_off_c, 8, 68, 127
2, 94348, Note_on_c, 4, 52, 127
2, 94349, Note_off_c, 4, 40, 127
2, 94601, Note_off_c, 8, 80, 127
2, 94611, Note_off_c, 4, 52, 127
2, 94615, Note_on_c, 6, 78, 127
2, 94615, Note_on_c, 6, 54, 127
2, 94865, Note_off_c, 6, 54, 127
2, 94865, Note_off_c, 6, 78, 127
2, 94870, Note_on_c, 8, 56, 127
2, 94877, Note_on_c, 4, 76, 127
2, 95101, Note_off_c, 4, 76, 127
2, 95114, Note_off_c, 8, 56, 127
2, 95120, Note_on_c, 3, 75, 127
2, 95120, Note_on_c, 10, 57, 127
2, 95370, Note_off_c, 10, 57, 127
2, 95370, Note_off_c, 3, 75, 127
2, 95375, Note_on_c, 6, 54, 127
2, 95382, Note_on_c, 1, 73, 127
2, 95606, Note_off_c, 1, 73, 127
2, 95619, Note_off_c, 6, 54, 127
2, 95626, Note_on_c, 0, 72, 127
2, 95626, Note_on_c, 3, 51, 127
2, 95876, Note_off_c, 3, 51, 127
2, 95876, Note_off_c, 0, 72, 127
2, 95880, Note_on_c, 4, 52, 127
2, 95887, Note_on_c, 1, 73, 127
2, 96111, Note_off_c, 1, 73, 127
2, 96124, Note_off_c, 4, 52, 127
2, 96130, Note_on_c, 3, 75, 127
2, 96130, Note_on_c, 6, 54, 127
2, 96380, Note_off_c, 6, 54, 127
2, 96380, Note_off_c, 3, 75, 127
2, 96385, Note_on_c, 3, 51, 127
2, 96393, Note_on_c, 6, 78, 127
2, 96617, Note_off_c, 6, 78, 127
2, 96629, Note_off_c, 3, 51, 127
2, 96635, Note_on_c, 10, 69, 127
2, 96635, Note_on_c, 0, 48, 127
2, 96759, Note_off_c, 10, 69, 127
2, 96762, Note_on_c, 8, 68, 127
2, 96885, Note_off_c, 0, 48, 127
2, 96886, Note_off_c, 8, 68, 127
2, 96888, Note_on_c, 10, 69, 127
2, 96890, Note_on_c, 1, 49, 127
2, 97134, Note_off_c, 1, 49, 127
2, 97141, Note_on_c, 3, 51, 127
2, 97387, Note_off_c, 10, 69, 127
2, 97391, Note_off_c, 3, 51, 127
2, 97393, Note_on_c, 8, 68, 127
2, 97395, Note_on_c, 0, 48, 127
2, 97637, Note_off_c, 8, 68, 127
2, 97639, Note_off_c, 0, 48, 127
2, 97646, Note_on_c, 10, 69, 127
2, 97646, Note_on_c, 8, 44, 127
2, 97896, Note_off_c, 8, 44, 127
2, 97896, Note_off_c, 10, 69, 127
2, 97899, Note_on_c, 6, 66, 127
2, 97901, Note_on_c, 11, 46, 127
2, 98082, Note_off_c, 6, 66, 127
2, 98153, Note_off_c, 11, 46, 127
2, 98156, Note_on_c, 6, 78, 127
2, 98159, Note_on_c, 0, 48, 127
2, 98269, Note_off_c, 6, 78, 127
2, 98275, Note_on_c, 8, 80, 127
2, 98388, Note_off_c, 8, 80, 127
2, 98395, Note_on_c, 10, 81, 127
2, 98409, Note_off_c, 0, 48, 127
2, 98414, Note_on_c, 1, 49, 127
2, 98658, Note_off_c, 1, 49, 127
2, 98665, Note_on_c, 3, 51, 127
2, 98915, Note_off_c, 3, 51, 127
2, 98919, Note_on_c, 4, 52, 127
2, 99163, Note_off_c, 4, 52, 127
2, 99170, Note_on_c, 8, 80, 127
2, 99170, Note_on_c, 6, 54, 127
2, 99177, Note_off_c, 10, 81, 127
2, 99420, Note_off_c, 6, 54, 127
2, 99420, Note_off_c, 8, 80, 127
2, 99425, Note_on_c, 8, 56, 127
2, 99432, Note_on_c, 6, 78, 127
2, 99656, Note_off_c, 6, 78, 127
2, 99669, Note_off_c, 8, 56, 127
2, 99675, Note_on_c, 4, 76, 127
2, 99675, Note_on_c, 11, 58, 127
2, 99925, Note_off_c, 11, 58, 127
2, 99925, Note_off_c, 4, 76, 127
2, 99930, Note_on_c, 0, 60, 127
2, 99937, Note_on_c, 3, 75, 127
2, 100161, Note_off_c, 3, 75, 127
2, 100174, Note_off_c, 0, 60, 127
2, 100189, Note_on_c, 4, 76, 127
2, 100189, Note_on_c, 1, 61, 127
2, 100448, Note_off_c, 1, 61, 127
2, 100465, Note_on_c, 3, 75, 127
2, 100466, Note_on_c, 12, 59, 127
2, 100717, Note_off_c, 12, 59, 127
2, 100724, Note_off_c, 3, 75, 127
2, 100726, Note_on_c, 10, 57, 127
2, 100726, Note_on_c, 1, 73, 127
2, 100985, Note_off_c, 1, 73, 127
2, 100985, Note_off_c, 10, 57, 127
2, 100986, Note_on_c, 0, 72, 127
2, 100987, Note_on_c, 8, 56, 127
2, 101242, Note_off_c, 8, 56, 127
2, 101245, Note_off_c, 0, 72, 127
2, 101246, Note_on_c, 10, 57, 127
2, 101246, Note_on_c, 1, 73, 127
2, 101491, Note_off_c, 4, 76, 127
2, 101505, Note_off_c, 10, 57, 127
2, 101508, Note_on_c, 6, 54, 127
2, 101508, Note_on_c, 10, 81, 127
2, 101761, Note_off_c, 1, 73, 127
2, 101767, Note_off_c, 10, 81, 127
2, 101767, Note_off_c, 6, 54, 127
2, 101768, Note_on_c, 8, 56, 127
2, 101768, Note_on_c, 1, 73, 127
2, 101898, Note_on_c, 3, 75, 127
2, 102026, Note_off_c, 3, 75, 127
2, 102029, Note_on_c, 4, 76, 127
2, 102549, Note_off_c, 4, 76, 127
2, 102551, Note_on_c, 6, 78, 127
2, 102809, Note_off_c, 1, 73, 127
2, 102810, Note_off_c, 6, 78, 127
2, 102811, Note_on_c, 8, 44, 127
2, 102811, Note_on_c, 4, 76, 127
2, 102811, Note_on_c, 0, 72, 127
2, 102939, Note_off_c, 0, 72, 127
2, 102939, Note_off_c, 4, 76, 127
2, 102942, Note_on_c, 3, 75, 127
2, 103070, Note_off_c, 3, 75, 127
2, 103072, Note_on_c, 1, 73, 127
2, 103200, Note_off_c, 1, 73, 127
2, 103202, Note_on_c, 3, 75, 127
2, 103330, Note_off_c, 3, 75, 127
2, 103330, Note_off_c, 8, 44, 127
2, 103340, Note_on_c, 11, 46, 127
2, 103340, Note_on_c, 1, 73, 127
2, 103587, Note_off_c, 8, 56, 127
2, 103634, Note_on_c, 8, 56, 127
2, 103634, Note_on_c, 12, 71, 127
2, 103878, Note_off_c, 12, 71, 127
2, 103893, Note_off_c, 8, 56, 127
2, 103894, Note_on_c, 7, 55, 127
2, 103894, Note_on_c, 11, 70, 127
2, 104153, Note_off_c, 11, 70, 127
2, 104153, Note_off_c, 7, 55, 127
2, 104154, Note_on_c, 8, 56, 127
2, 104154, Note_on_c, 8, 68, 127
2, 104398, Note_off_c, 8, 68, 127
2, 104413, Note_off_c, 8, 56, 127
2, 104415, Note_on_c, 11, 58, 127
2, 104415, Note_on_c, 7, 67, 127
2, 104674, Note_off_c, 7, 67, 127
2, 104674, Note_off_c, 11, 58, 127
2, 104675, Note_on_c, 3, 51, 127
2, 104675, Note_on_c, 8, 68, 127
2, 104919, Note_off_c, 8, 68, 127
2, 104934, Note_off_c, 3, 51, 127
2, 104936, Note_on_c, 4, 52, 127
2, 104936, Note_on_c, 8, 68, 127
2, 105195, Note_off_c, 8, 68, 127
2, 105197, Note_on_c, 7, 67, 127
2, 105657, Note_off_c, 11, 46, 127
2, 105674, Note_off_c, 1, 73, 127
2, 105717, Note_off_c, 4, 52, 127
2, 105735, Note_on_c, 4, 76, 127
2, 105735, Note_on_c, 12, 47, 127
2, 105994, Note_off_c, 12, 47, 127
2, 105994, Note_off_c, 4, 76, 127
2, 105996, Note_on_c, 3, 75, 127
2, 105996, Note_on_c, 1, 49, 127
2, 106516, Note_off_c, 1, 49, 127
2, 106516, Note_off_c, 3, 75, 127
2, 106518, Note_on_c, 4, 76, 127
2, 106518, Note_on_c, 7, 43, 127
2, 106765, Note_off_c, 7, 67, 127
2, 106801, Note_on_c, 3, 51, 127
2, 106801, Note_on_c, 8, 68, 127
2, 107056, Note_off_c, 8, 68, 127
2, 107066, Note_off_c, 3, 51, 127
2, 107068, Note_on_c, 1, 49, 127
2, 107068, Note_on_c, 11, 70, 127
2, 107333, Note_off_c, 11, 70, 127
2, 107333, Note_off_c, 1, 49, 127
2, 107335, Note_on_c, 12, 47, 127
2, 107335, Note_on_c, 8, 68, 127
2, 107590, Note_off_c, 8, 68, 127
2, 107600, Note_off_c, 12, 47, 127
2, 107602, Note_on_c, 1, 49, 127
2, 107602, Note_on_c, 12, 71, 127
2, 107867, Note_off_c, 12, 71, 127
2, 107867, Note_off_c, 1, 49, 127
2, 107869, Note_on_c, 4, 52, 127
2, 107869, Note_on_c, 11, 70, 127
2, 108124, Note_off_c, 11, 70, 127
2, 108134, Note_off_c, 4, 52, 127
2, 108137, Note_on_c, 7, 55, 127
2, 108137, Note_on_c, 11, 70, 127
2, 108268, Note_off_c, 7, 55, 127
2, 108269, Note_on_c, 5, 53, 127
2, 108400, Note_off_c, 5, 53, 127
2, 108403, Note_on_c, 7, 55, 127
2, 108909, Note_off_c, 7, 43, 127
2, 108909, Note_off_c, 4, 76, 127
2, 108936, Note_on_c, 8, 44, 127
2, 108936, Note_on_c, 0, 72, 127
2, 109201, Note_off_c, 0, 72, 127
2, 109201, Note_off_c, 8, 44, 127
2, 109204, Note_on_c, 11, 46, 127
2, 109204, Note_on_c, 1, 73, 127
2, 109736, Note_off_c, 1, 73, 127
2, 109736, Note_off_c, 11, 46, 127
2, 109738, Note_off_c, 7, 55, 127
2, 109770, Note_on_c, 3, 39, 127
2, 109770, Note_on_c, 7, 79, 127
2, 110008, Note_off_c, 11, 70, 127
2, 110063, Note_on_c, 3, 75, 127
2, 110328, Note_off_c, 3, 75, 127
2, 110339, Note_on_c, 4, 76, 127
2, 110613, Note_off_c, 4, 76, 127
2, 110616, Note_on_c, 3, 75, 127
2, 110881, Note_off_c, 3, 75, 127
2, 110891, Note_on_c, 1, 73, 127
2, 111165, Note_off_c, 1, 73, 127
2, 111168, Note_on_c, 12, 71, 127
2, 111424, Note_off_c, 3, 39, 127
2, 111433, Note_off_c, 12, 71, 127
2, 111444, Note_on_c, 11, 70, 127
2, 111718, Note_off_c, 11, 70, 127
2, 111721, Note_on_c, 8, 68, 127
2, 111986, Note_off_c, 8, 68, 127
2, 111997, Note_on_c, 7, 67, 127
2, 112271, Note_off_c, 7, 67, 127
2, 112273, Note_on_c, 5, 65, 127
2, 112538, Note_off_c, 5, 65, 127
2, 112538, Note_off_c, 7, 79, 127
2, 112550, Note_on_c, 8, 80, 127
2, 112550, Note_on_c, 0, 72, 127
2, 112550, Note_on_c, 6, 66, 127
2, 112824, Note_off_c, 6, 66, 127
2, 112826, Note_on_c, 3, 63, 127
2, 113091, Note_off_c, 3, 63, 127
2, 113096, Note_off_c, 0, 72, 127
2, 113096, Note_off_c, 8, 80, 127
2, 113119, Note_on_c, 4, 64, 127
2, 113119, Note_on_c, 1, 73, 127
2, 113403, Note_off_c, 4, 64, 127
2, 113406, Note_on_c, 3, 63, 127
2, 113406, Note_on_c, 12, 71, 127
2, 113681, Note_off_c, 12, 71, 127
2, 113690, Note_off_c, 3, 63, 127
2, 113692, Note_on_c, 1, 61, 127
2, 113692, Note_on_c, 10, 69, 127
2, 113976, Note_off_c, 10, 69, 127
2, 113976, Note_off_c, 1, 61, 127
2, 113979, Note_on_c, 12, 59, 127
2, 113979, Note_on_c, 8, 68, 127
2, 114254, Note_off_c, 8, 68, 127
2, 114263, Note_off_c, 12, 59, 127
2, 114266, Note_on_c, 10, 57, 127
2, 114266, Note_on_c, 6, 66, 127
2, 114550, Note_off_c, 6, 66, 127
2, 114550, Note_off_c, 10, 57, 127
2, 114553, Note_on_c, 6, 54, 127
2, 114553, Note_on_c, 10, 69, 127
2, 114828, Note_off_c, 10, 69, 127
2, 114837, Note_off_c, 6, 54, 127
2, 114840, Note_on_c, 8, 56, 127
2, 114840, Note_on_c, 4, 64, 127
2, 115124, Note_off_c, 8, 56, 127
2, 115126, Note_on_c, 3, 51, 127
2, 115410, Note_off_c, 3, 51, 127
2, 115413, Note_on_c, 4, 52, 127
2, 115688, Note_off_c, 1, 73, 127
2, 115697, Note_off_c, 4, 52, 127
2, 115698, Note_off_c, 4, 64, 127
2, 115701, Note_on_c, 1, 49, 127
2, 115701, Note_on_c, 6, 66, 127
2, 115701, Note_on_c, 3, 75, 127
2, 115976, Note_off_c, 3, 75, 127
2, 115985, Note_off_c, 6, 66, 127
2, 115985, Note_off_c, 1, 49, 127
2, 115987, Note_on_c, 8, 44, 127
2, 115987, Note_on_c, 3, 63, 127
2, 115987, Note_on_c, 0, 72, 127
2, 116271, Note_off_c, 3, 63, 127
2, 116274, Note_on_c, 8, 56, 127
2, 116274, Note_on_c, 6, 66, 127
2, 116555, Note_off_c, 0, 72, 127
2, 116555, Note_off_c, 8, 44, 127
2, 116595, Note_on_c, 1, 49, 127
2, 116595, Note_on_c, 1, 73, 127
2, 116595, Note_on_c, 1, 61, 127
2, 116887, Note_off_c, 6, 66, 127
2, 116926, Note_on_c, 8, 68, 127
2, 117223, Note_off_c, 8, 56, 127
2, 117255, Note_off_c, 8, 68, 127
2, 117258, Note_on_c, 6, 54, 127
2, 117258, Note_on_c, 10, 69, 127
2, 117587, Note_off_c, 10, 69, 127
2, 117589, Note_on_c, 6, 66, 127
2, 117918, Note_off_c, 6, 66, 127
2, 117918, Note_off_c, 6, 54, 127
2, 117919, Note_off_c, 1, 61, 127
2, 117921, Note_on_c, 10, 57, 127
2, 117921, Note_on_c, 3, 63, 127
2, 118252, Note_off_c, 1, 73, 127
2, 118252, Note_on_c, 0, 72, 127
2, 118576, Note_off_c, 3, 63, 127
2, 118581, Note_off_c, 0, 72, 127
2, 118581, Note_off_c, 10, 57, 127
2, 118584, Note_on_c, 8, 56, 127
2, 118584, Note_on_c, 5, 65, 127
2, 118765, Note_on_c, 8, 68, 127
2, 118946, Note_on_c, 1, 73, 127
2, 122397, Note_off_c, 1, 73, 127
2, 122397, Note_off_c, 8, 68, 127
2, 122397, Note_off_c, 5, 65, 127
2, 122397, Note_off_c, 8, 56, 127
2, 122397, Note_off_c, 1, 49, 127
2, 123410, Note_on_c, 1, 49, 127
2, 124723, Note_off_c, 1, 49, 127
2, 124727, Note_on_c, 0, 48, 127
2, 125382, Note_off_c, 0, 48, 127
2, 125386, Note_on_c, 4, 52, 127
2, 126041, Note_off_c, 4, 52, 127
2, 126045, Note_on_c, 3, 51, 127
2, 127358, Note_off_c, 3, 51, 127
2, 127361, Note_on_c, 8, 56, 127
2, 127361, Note_on_c, 1, 49, 127
2, 127698, Note_off_c, 1, 49, 127
2, 127702, Note_on_c, 3, 51, 127
2, 128039, Note_off_c, 3, 51, 127
2, 128043, Note_on_c, 4, 52, 127
2, 128716, Note_off_c, 8, 56, 127
2, 128725, Note_on_c, 7, 55, 127
2, 129061, Note_off_c, 4, 52, 127
2, 129065, Note_on_c, 3, 51, 127
2, 129232, Note_off_c, 3, 51, 127
2, 129235, Note_on_c, 1, 49, 127
2, 129402, Note_off_c, 1, 49, 127
2, 129403, Note_off_c, 7, 55, 127
2, 129405, Note_on_c, 12, 59, 127
2, 129405, Note_on_c, 3, 51, 127
2, 129742, Note_off_c, 3, 51, 127
2, 129747, Note_on_c, 8, 56, 127
2, 130083, Note_off_c, 12, 59, 127
2, 130084, Note_off_c, 8, 56, 127
2, 130087, Note_on_c, 11, 58, 127
2, 130087, Note_on_c, 1, 49, 127
2, 130424, Note_off_c, 1, 49, 127
2, 130428, Note_on_c, 3, 51, 127
2, 130595, Note_off_c, 3, 51, 127
2, 130597, Note_on_c, 4, 52, 127
2, 130764, Note_off_c, 4, 52, 127
2, 130768, Note_on_c, 6, 54, 127
2, 131442, Note_off_c, 11, 58, 127
2, 131449, Note_on_c, 8, 56, 127
2, 131786, Note_off_c, 6, 54, 127
2, 131790, Note_on_c, 4, 52, 127
2, 132127, Note_off_c, 4, 52, 127
2, 132127, Note_off_c, 8, 56, 127
2, 132130, Note_on_c, 1, 61, 127
2, 132130, Note_on_c, 10, 57, 127
2, 132130, Note_on_c, 3, 51, 127
2, 132473, Note_off_c, 3, 51, 127
2, 132476, Note_on_c, 1, 49, 127
2, 132819, Note_off_c, 1, 49, 127
2, 132819, Note_off_c, 1, 61, 127
2, 132822, Note_on_c, 0, 60, 127
2, 132822, Note_on_c, 3, 51, 127
2, 133165, Note_off_c, 10, 57, 127
2, 133169, Note_on_c, 8, 56, 127
2, 133339, Note_off_c, 8, 56, 127
2, 133341, Note_on_c, 6, 54, 127
2, 133511, Note_off_c, 6, 54, 127
2, 133511, Note_off_c, 3, 51, 127
2, 133511, Note_off_c, 0, 60, 127
2, 133515, Note_on_c, 4, 64, 127
2, 133515, Note_on_c, 8, 56, 127
2, 133515, Note_on_c, 1, 49, 127
2, 133858, Note_off_c, 8, 56, 127
2, 133860, Note_on_c, 1, 61, 127
2, 134203, Note_off_c, 1, 61, 127
2, 134204, Note_off_c, 4, 64, 127
2, 134206, Note_on_c, 3, 63, 127
2, 134206, Note_on_c, 6, 54, 127
2, 134550, Note_off_c, 6, 54, 127
2, 134550, Note_off_c, 1, 49, 127
2, 134555, Note_on_c, 8, 56, 127
2, 134555, Note_on_c, 12, 47, 127
2, 134725, Note_off_c, 8, 56, 127
2, 134726, Note_on_c, 10, 57, 127
2, 134894, Note_off_c, 12, 47, 127
2, 134896, Note_off_c, 10, 57, 127
2, 134900, Note_on_c, 12, 59, 127
2, 134900, Note_on_c, 10, 45, 127
2, 135243, Note_off_c, 10, 45, 127
2, 135246, Note_on_c, 8, 44, 127
2, 135588, Note_off_c, 3, 63, 127
2, 135589, Note_off_c, 8, 44, 127
2, 135591, Note_on_c, 1, 61, 127
2, 135591, Note_on_c, 10, 45, 127
2, 135935, Note_off_c, 12, 59, 127
2, 135938, Note_on_c, 10, 57, 127
2, 136280, Note_off_c, 10, 45, 127
2, 136280, Note_off_c, 1, 61, 127
2, 136281, Note_off_c, 10, 57, 127
2, 136285, Note_on_c, 6, 66, 127
2, 136285, Note_on_c, 11, 46, 127
2, 136285, Note_on_c, 8, 56, 127
2, 136628, Note_off_c, 8, 56, 127
2, 136631, Note_on_c, 6, 54, 127
2, 136974, Note_off_c, 6, 54, 127
2, 136974, Note_off_c, 11, 46, 127
2, 136975, Note_on_c, 8, 56, 127
2, 136975, Note_on_c, 0, 48, 127
2, 137320, Note_off_c, 6, 66, 127
2, 137321, Note_on_c, 4, 64, 127
2, 137664, Note_off_c, 4, 64, 127
2, 137664, Note_off_c, 0, 48, 127
2, 137664, Note_off_c, 8, 56, 127
2, 137668, Note_on_c, 3, 63, 127
2, 137668, Note_on_c, 1, 49, 127
2, 137668, Note_on_c, 6, 54, 127
2, 138011, Note_off_c, 6, 54, 127
2, 138011, Note_off_c, 3, 63, 127
2, 138015, Note_on_c, 1, 61, 127
2, 138015, Note_on_c, 4, 52, 127
2, 138357, Note_off_c, 1, 49, 127
2, 138358, Note_off_c, 4, 52, 127
2, 138358, Note_off_c, 1, 61, 127
2, 138361, Note_on_c, 1, 61, 127
2, 138361, Note_on_c, 3, 51, 127
2, 138361, Note_on_c, 8, 44, 127
2, 138704, Note_off_c, 8, 44, 127
2, 138705, Note_on_c, 10, 45, 127
2, 139048, Note_off_c, 10, 45, 127
2, 139050, Note_off_c, 1, 61, 127
2, 139051, Note_on_c, 12, 59, 127
2, 139051, Note_on_c, 8, 68, 127
2, 139051, Note_on_c, 12, 47, 127
2, 139397, Note_off_c, 3, 51, 127
2, 139399, Note_on_c, 2, 50, 127
2, 139744, Note_off_c, 8, 68, 127
2, 139744, Note_off_c, 12, 59, 127
2, 139745, Note_off_c, 2, 50, 127
2, 139749, Note_on_c, 5, 65, 127
2, 139749, Note_on_c, 1, 61, 127
2, 139749, Note_on_c, 1, 49, 127
2, 140091, Note_off_c, 12, 47, 127
2, 140096, Note_on_c, 10, 45, 127
2, 140442, Note_off_c, 10, 45, 127
2, 140442, Note_off_c, 1, 61, 127
2, 140442, Note_off_c, 5, 65, 127
2, 140443, Note_on_c, 10, 69, 127
2, 140443, Note_on_c, 6, 66, 127
2, 140443, Note_on_c, 8, 44, 127
2, 140789, Note_off_c, 8, 44, 127
2, 140793, Note_on_c, 6, 42, 127
2, 141135, Note_off_c, 1, 49, 127
2, 141137, Note_off_c, 10, 69, 127
2, 141139, Note_off_c, 6, 42, 127
2, 141141, Note_on_c, 8, 68, 127
2, 141141, Note_on_c, 1, 49, 127
2, 141484, Note_off_c, 6, 66, 127
2, 141488, Note_on_c, 4, 64, 127
2, 141834, Note_off_c, 4, 64, 127
2, 141834, Note_off_c, 8, 68, 127
2, 141838, Note_on_c, 1, 73, 127
2, 141838, Note_on_c, 6, 66, 127
2, 141838, Note_on_c, 3, 63, 127
2, 141838, Note_on_c, 10, 45, 127
2, 142184, Note_off_c, 3, 63, 127
2, 142186, Note_on_c, 1, 61, 127
2, 142527, Note_off_c, 1, 49, 127
2, 142532, Note_off_c, 1, 61, 127
2, 142532, Note_off_c, 1, 73, 127
2, 142534, Note_on_c, 0, 72, 127
2, 142534, Note_on_c, 3, 63, 127
2, 142880, Note_off_c, 10, 45, 127
2, 142884, Note_on_c, 8, 44, 127
2, 143226, Note_off_c, 6, 66, 127
2, 143228, Note_off_c, 3, 63, 127
2, 143228, Note_off_c, 0, 72, 127
2, 143230, Note_off_c, 8, 44, 127
2, 143232, Note_on_c, 1, 73, 127
2, 143232, Note_on_c, 4, 76, 127
2, 143232, Note_on_c, 8, 68, 127
2, 143232, Note_on_c, 6, 42, 127
2, 143578, Note_off_c, 6, 42, 127
2, 143582, Note_on_c, 4, 40, 127
2, 143926, Note_off_c, 8, 68, 127
2, 143926, Note_off_c, 4, 76, 127
2, 143928, Note_off_c, 4, 40, 127
2, 143930, Note_on_c, 3, 75, 127
2, 143930, Note_on_c, 6, 42, 127
2, 144278, Note_on_c, 10, 69, 127
2, 144620, Note_off_c, 1, 73, 127
2, 144624, Note_off_c, 10, 69, 127
2, 144624, Note_off_c, 6, 42, 127
2, 144624, Note_off_c, 3, 75, 127
2, 144627, Note_on_c, 12, 71, 127
2, 144627, Note_on_c, 8, 68, 127
2, 144627, Note_on_c, 8, 44, 127
2, 144973, Note_off_c, 8, 68, 127
2, 144975, Note_on_c, 6, 66, 127
2, 145321, Note_off_c, 6, 66, 127
2, 145321, Note_off_c, 8, 44, 127
2, 145324, Note_on_c, 1, 73, 127
2, 145324, Note_on_c, 5, 65, 127
2, 145324, Note_on_c, 10, 45, 127
2, 145670, Note_off_c, 10, 45, 127
2, 145670, Note_off_c, 5, 65, 127
2, 145673, Note_on_c, 1, 61, 127
2, 145673, Note_on_c, 8, 44, 127
2, 146015, Note_off_c, 12, 71, 127
2, 146019, Note_off_c, 8, 44, 127
2, 146019, Note_off_c, 1, 61, 127
2, 146022, Note_on_c, 10, 69, 127
2, 146022, Note_on_c, 6, 66, 127
2, 146022, Note_on_c, 10, 45, 127
2, 146365, Note_off_c, 1, 73, 127
2, 146368, Note_off_c, 10, 45, 127
2, 146371, Note_on_c, 3, 75, 127
2, 146371, Note_on_c, 12, 47, 127
2, 146716, Note_off_c, 6, 66, 127
2, 146716, Note_off_c, 10, 69, 127
2, 146717, Note_off_c, 12, 47, 127
2, 146717, Note_off_c, 3, 75, 127
2, 146719, Note_on_c, 4, 76, 127
2, 146719, Note_on_c, 8, 68, 127
2, 146719, Note_on_c, 4, 64, 127
2, 146719, Note_on_c, 1, 49, 127
2, 147065, Note_off_c, 1, 49, 127
2, 147065, Note_off_c, 4, 76, 127
2, 147068, Note_on_c, 3, 75, 127
2, 147068, Note_on_c, 12, 47, 127
2, 147413, Note_off_c, 8, 68, 127
2, 147414, Note_off_c, 12, 47, 127
2, 147414, Note_off_c, 3, 75, 127
2, 147416, Note_on_c, 10, 69, 127
2, 147416, Note_on_c, 1, 73, 127
2, 147416, Note_on_c, 1, 49, 127
2, 147762, Note_off_c, 1, 49, 127
2, 147765, Note_on_c, 3, 51, 127
2, 148110, Note_off_c, 1, 73, 127
2, 148111, Note_off_c, 3, 51, 127
2, 148114, Note_on_c, 12, 71, 127
2, 148114, Note_on_c, 4, 52, 127
2, 148457, Note_off_c, 10, 69, 127
2, 148461, Note_on_c, 8, 68, 127
2, 148803, Note_off_c, 4, 64, 127
2, 148807, Note_off_c, 8, 68, 127
2, 148807, Note_off_c, 4, 52, 127
2, 148807, Note_off_c, 12, 71, 127
2, 148809, Note_on_c, 8, 68, 127
2, 148809, Note_on_c, 1, 73, 127
2, 148809, Note_on_c, 6, 66, 127
2, 148809, Note_on_c, 8, 56, 127
2, 148809, Note_on_c, 1, 49, 127
2, 149155, Note_off_c, 6, 66, 127
2, 149159, Note_on_c, 4, 64, 127
2, 149503, Note_off_c, 8, 56, 127
2, 149503, Note_off_c, 1, 73, 127
2, 149503, Note_off_c, 8, 68, 127
2, 149505, Note_off_c, 4, 64, 127
2, 149507, Note_on_c, 11, 70, 127
2, 149507, Note_on_c, 3, 75, 127
2, 149507, Note_on_c, 3, 63, 127
2, 149507, Note_on_c, 7, 55, 127
2, 149850, Note_off_c, 1, 49, 127
2, 149855, Note_on_c, 12, 47, 127
2, 150200, Note_off_c, 7, 55, 127
2, 150200, Note_off_c, 3, 63, 127
2, 150200, Note_off_c, 3, 75, 127
2, 150200, Note_off_c, 11, 70, 127
2, 150201, Note_off_c, 12, 47, 127
2, 150204, Note_on_c, 8, 68, 127
2, 150204, Note_on_c, 12, 59, 127
2, 150204, Note_on_c, 11, 46, 127
2, 150550, Note_off_c, 11, 46, 127
2, 150552, Note_on_c, 8, 44, 127
2, 150898, Note_off_c, 8, 44, 127
2, 150898, Note_off_c, 12, 59, 127
2, 150900, Note_on_c, 1, 49, 127
2, 150900, Note_on_c, 11, 58, 127
2, 151249, Note_on_c, 4, 76, 127
2, 151592, Note_off_c, 8, 68, 127
2, 151594, Note_off_c, 1, 49, 127
2, 151595, Note_off_c, 4, 76, 127
2, 151597, Note_on_c, 7, 67, 127
2, 151597, Note_on_c, 3, 75, 127
2, 151597, Note_on_c, 3, 51, 127
2, 151943, Note_off_c, 3, 75, 127
2, 151947, Note_on_c, 1, 73, 127
2, 152288, Note_off_c, 11, 58, 127
2, 152291, Note_off_c, 3, 51, 127
2, 152291, Note_off_c, 7, 67, 127
2, 152293, Note_off_c, 1, 73, 127
2, 152295, Note_on_c, 8, 68, 127
2, 152295, Note_on_c, 12, 71, 127
2, 152295, Note_on_c, 8, 56, 127
2, 152295, Note_on_c, 8, 44, 127
2, 152641, Note_off_c, 8, 56, 127
2, 152641, Note_off_c, 12, 71, 127
2, 152653, Note_on_c, 10, 57, 127
2, 152653, Note_on_c, 3, 75, 127
2, 152989, Note_off_c, 8, 44, 127
2, 152989, Note_off_c, 8, 68, 127
2, 152999, Note_off_c, 3, 75, 127
2, 152999, Note_off_c, 10, 57, 127
2, 153011, Note_on_c, 8, 56, 127
2, 153011, Note_on_c, 12, 59, 127
2, 153011, Note_on_c, 8, 80, 127
2, 153357, Note_off_c, 8, 56, 127
2, 153359, Note_on_c, 6, 54, 127
2, 153705, Note_off_c, 6, 54, 127
2, 153705, Note_off_c, 12, 59, 127
2, 153709, Note_on_c, 5, 53, 127
2, 153709, Note_on_c, 1, 61, 127
2, 154052, Note_off_c, 8, 80, 127
2, 154055, Note_on_c, 6, 78, 127
2, 154401, Note_off_c, 6, 78, 127
2, 154402, Note_off_c, 1, 61, 127
2, 154402, Note_off_c, 5, 53, 127
2, 154403, Note_on_c, 10, 57, 127
2, 154403, Note_on_c, 8, 80, 127
2, 154749, Note_off_c, 8, 80, 127
2, 154752, Note_on_c, 1, 61, 127
2, 154752, Note_on_c, 10, 81, 127
2, 155097, Note_off_c, 10, 57, 127
2, 155098, Note_off_c, 10, 81, 127
2, 155098, Note_off_c, 1, 61, 127
2, 155101, Note_on_c, 8, 56, 127
2, 155101, Note_on_c, 3, 63, 127
2, 155101, Note_on_c, 12, 83, 127
2, 155447, Note_off_c, 3, 63, 127
2, 155449, Note_on_c, 1, 61, 127
2, 155795, Note_off_c, 1, 61, 127
2, 155800, Note_on_c, 3, 63, 127
2, 156146, Note_off_c, 3, 63, 127
2, 156147, Note_on_c, 5, 65, 127
2, 156493, Note_off_c, 5, 65, 127
2, 156493, Note_off_c, 8, 56, 127
2, 156496, Note_on_c, 6, 54, 127
2, 156496, Note_on_c, 6, 66, 127
2, 156843, Note_off_c, 12, 83, 127
2, 156845, Note_on_c, 10, 81, 127
2, 157190, Note_off_c, 6, 66, 127
2, 157191, Note_off_c, 10, 81, 127
2, 157193, Note_on_c, 1, 61, 127
2, 157193, Note_on_c, 10, 69, 127
2, 157193, Note_on_c, 8, 80, 127
2, 157539, Note_off_c, 8, 80, 127
2, 157542, Note_on_c, 6, 78, 127
2, 157887, Note_off_c, 10, 69, 127
2, 157887, Note_off_c, 1, 61, 127
2, 157888, Note_off_c, 6, 78, 127
2, 157891, Note_on_c, 0, 60, 127
2, 157891, Note_on_c, 8, 68, 127
2, 157891, Note_on_c, 8, 80, 127
2, 158062, Note_off_c, 8, 80, 127
2, 158065, Note_on_c, 6, 78, 127
2, 158236, Note_off_c, 6, 78, 127
2, 158238, Note_off_c, 6, 54, 127
2, 158239, Note_on_c, 8, 56, 127
2, 158239, Note_on_c, 4, 76, 127
2, 158410, Note_off_c, 4, 76, 127
2, 158410, Note_off_c, 8, 56, 127
2, 158414, Note_on_c, 6, 54, 127
2, 158414, Note_on_c, 3, 75, 127
2, 158585, Note_off_c, 3, 75, 127
2, 158585, Note_off_c, 6, 54, 127
2, 158585, Note_off_c, 8, 68, 127
2, 158585, Note_off_c, 0, 60, 127
2, 158587, Note_on_c, 4, 52, 127
2, 158587, Note_on_c, 4, 64, 127
2, 158587, Note_on_c, 1, 73, 127
2, 158763, Note_on_c, 12, 71, 127
2, 158933, Note_off_c, 4, 52, 127
2, 158934, Note_off_c, 12, 71, 127
2, 158936, Note_on_c, 6, 54, 127
2, 158936, Note_on_c, 10, 69, 127
2, 159107, Note_off_c, 10, 69, 127
2, 159107, Note_off_c, 6, 54, 127
2, 159110, Note_on_c, 8, 56, 127
2, 159110, Note_on_c, 8, 68, 127
2, 159281, Note_off_c, 8, 68, 127
2, 159281, Note_off_c, 8, 56, 127
2, 159281, Note_off_c, 4, 64, 127
2, 159286, Note_on_c, 10, 57, 127
2, 159286, Note_on_c, 3, 63, 127
2, 159286, Note_on_c, 6, 66, 127
2, 159632, Note_off_c, 6, 66, 127
2, 159632, Note_off_c, 10, 57, 127
2, 159634, Note_on_c, 6, 54, 127
2, 159634, Note_on_c, 10, 69, 127
2, 159975, Note_off_c, 1, 73, 127
2, 159980, Note_off_c, 10, 69, 127
2, 159980, Note_off_c, 6, 54, 127
2, 159984, Note_on_c, 8, 56, 127
2, 159984, Note_on_c, 8, 68, 127
2, 159984, Note_on_c, 12, 71, 127
2, 160330, Note_off_c, 8, 68, 127
2, 160331, Note_on_c, 6, 66, 127
2, 160674, Note_off_c, 3, 63, 127
2, 160677, Note_off_c, 6, 66, 127
2, 160678, Note_off_c, 8, 56, 127
2, 160679, Note_on_c, 1, 49, 127
2, 160679, Note_on_c, 1, 61, 127
2, 160679, Note_on_c, 5, 65, 127
2, 161025, Note_off_c, 12, 71, 127
2, 161027, Note_on_c, 1, 73, 127
2, 161372, Note_off_c, 5, 65, 127
2, 161373, Note_off_c, 1, 73, 127
2, 161376, Note_on_c, 6, 66, 127
2, 161376, Note_on_c, 12, 71, 127
2, 161722, Note_off_c, 12, 71, 127
2, 161724, Note_on_c, 10, 69, 127
2, 162070, Note_off_c, 10, 69, 127
2, 162074, Note_on_c, 8, 68, 127
2, 162417, Note_off_c, 6, 66, 127
2, 162421, Note_on_c, 4, 64, 127
2, 162764, Note_off_c, 1, 61, 127
2, 162764, Note_off_c, 1, 49, 127
2, 162767, Note_off_c, 8, 68, 127
2, 162769, Note_on_c, 12, 47, 127
2, 162769, Note_on_c, 11, 70, 127
2, 163115, Note_off_c, 11, 70, 127
2, 163119, Note_on_c, 12, 71, 127
2, 163463, Note_off_c, 12, 47, 127
2, 163465, Note_off_c, 12, 71, 127
2, 163467, Note_on_c, 11, 46, 127
2, 163467, Note_on_c, 6, 54, 127
2, 163467, Note_on_c, 1, 73, 127
2, 163813, Note_off_c, 6, 54, 127
2, 163815, Note_on_c, 8, 56, 127
2, 164161, Note_off_c, 8, 56, 127
2, 164161, Note_off_c, 1, 73, 127
2, 164161, Note_off_c, 11, 46, 127
2, 164163, Note_off_c, 4, 64, 127
2, 164165, Note_on_c, 3, 51, 127
2, 164165, Note_on_c, 6, 54, 127
2, 164165, Note_on_c, 11, 58, 127
2, 164165, Note_on_c, 12, 71, 127
2, 164165, Note_on_c, 3, 63, 127
2, 164511, Note_off_c, 11, 58, 127
2, 164512, Note_on_c, 12, 59, 127
2, 164858, Note_off_c, 12, 59, 127
2, 164859, Note_off_c, 3, 63, 127
2, 164859, Note_off_c, 6, 54, 127
2, 164859, Note_off_c, 3, 51, 127
2, 164861, Note_on_c, 1, 49, 127
2, 164861, Note_on_c, 4, 52, 127
2, 164861, Note_on_c, 4, 64, 127
2, 164861, Note_on_c, 1, 61, 127
2, 165207, Note_off_c, 4, 52, 127
2, 165210, Note_on_c, 3, 51, 127
2, 165553, Note_off_c, 12, 71, 127
2, 165556, Note_off_c, 3, 51, 127
2, 165558, Note_on_c, 4, 52, 127
2, 165558, Note_on_c, 11, 70, 127
2, 165904, Note_off_c, 4, 52, 127
2, 165909, Note_on_c, 6, 54, 127
2, 166249, Note_off_c, 1, 61, 127
2, 166249, Note_off_c, 1, 49, 127
2, 166252, Note_off_c, 11, 70, 127
2, 166255, Note_off_c, 6, 54, 127
2, 166257, Note_on_c, 12, 47, 127
2, 166257, Note_on_c, 8, 56, 127
2, 166257, Note_on_c, 12, 71, 127
2, 166603, Note_off_c, 8, 56, 127
2, 166603, Note_off_c, 4, 64, 127
2, 166605, Note_on_c, 6, 54, 127
2, 166605, Note_on_c, 3, 63, 127
2, 166951, Note_off_c, 3, 63, 127
2, 166951, Note_off_c, 6, 54, 127
2, 166954, Note_on_c, 8, 56, 127
2, 166954, Note_on_c, 4, 64, 127
2, 167300, Note_off_c, 8, 56, 127
2, 167302, Note_on_c, 10, 57, 127
2, 167302, Note_on_c, 6, 66, 127
2, 167473, Note_off_c, 6, 66, 127
2, 167476, Note_on_c, 8, 68, 127
2, 167647, Note_off_c, 8, 68, 127
2, 167648, Note_off_c, 10, 57, 127
2, 167648, Note_off_c, 4, 64, 127
2, 167651, Note_on_c, 12, 59, 127
2, 167651, Note_on_c, 6, 66, 127
2, 167651, Note_on_c, 3, 63, 127
2, 167999, Note_off_c, 12, 71, 127
2, 167999, Note_off_c, 12, 47, 127
2, 168000, Note_on_c, 8, 56, 127
2, 168000, Note_on_c, 1, 73, 127
2, 168345, Note_off_c, 3, 63, 127
2, 168345, Note_off_c, 6, 66, 127
2, 168346, Note_off_c, 1, 73, 127
2, 168346, Note_off_c, 8, 56, 127
2, 168349, Note_on_c, 6, 54, 127
2, 168349, Note_on_c, 12, 71, 127
2, 168349, Note_on_c, 8, 68, 127
2, 168349, Note_on_c, 3, 75, 127
2, 168695, Note_off_c, 3, 75, 127
2, 168695, Note_off_c, 6, 54, 127
2, 168696, Note_on_c, 4, 52, 127
2, 168696, Note_on_c, 4, 76, 127
2, 169039, Note_off_c, 12, 59, 127
2, 169042, Note_off_c, 4, 52, 127
2, 169043, Note_off_c, 8, 68, 127
2, 169045, Note_on_c, 12, 59, 127
2, 169045, Note_on_c, 6, 66, 127
2, 169390, Note_off_c, 12, 71, 127
2, 169393, Note_on_c, 1, 73, 127
2, 169736, Note_off_c, 4, 76, 127
2, 169739, Note_off_c, 1, 73, 127
2, 169742, Note_on_c, 12, 47, 127
2, 169742, Note_on_c, 12, 71, 127
2, 169742, Note_on_c, 3, 75, 127
2, 170088, Note_off_c, 12, 71, 127
2, 170091, Note_on_c, 10, 69, 127
2, 170431, Note_off_c, 6, 66, 127
2, 170436, Note_off_c, 3, 75, 127
2, 170436, Note_off_c, 12, 47, 127
2, 170437, Note_off_c, 10, 69, 127
2, 170440, Note_on_c, 4, 52, 127
2, 170440, Note_on_c, 8, 68, 127
2, 170440, Note_on_c, 4, 64, 127
2, 170440, Note_on_c, 4, 76, 127
2, 170813, Note_on_c, 3, 75, 127
2, 170821, Note_off_c, 4, 76, 127
2, 171129, Note_off_c, 12, 59, 127
2, 171134, Note_off_c, 4, 64, 127
2, 171134, Note_off_c, 8, 68, 127
2, 171134, Note_off_c, 4, 52, 127
2, 171165, Note_off_c, 3, 75, 127
2, 171170, Note_on_c, 10, 57, 127
2, 171170, Note_on_c, 1, 61, 127
2, 171170, Note_on_c, 4, 76, 127
2, 171516, Note_off_c, 4, 76, 127
2, 171520, Note_on_c, 6, 78, 127
2, 171864, Note_off_c, 1, 61, 127
2, 171864, Note_off_c, 10, 57, 127
2, 171866, Note_off_c, 6, 78, 127
2, 171868, Note_on_c, 8, 56, 127
2, 171868, Note_on_c, 0, 60, 127
2, 171868, Note_on_c, 8, 80, 127
2, 172041, Note_off_c, 8, 80, 127
2, 172045, Note_on_c, 6, 78, 127
2, 172218, Note_off_c, 6, 78, 127
2, 172223, Note_on_c, 8, 80, 127
2, 172396, Note_off_c, 8, 80, 127
2, 172399, Note_on_c, 10, 81, 127
2, 172572, Note_off_c, 10, 81, 127
2, 172572, Note_off_c, 0, 60, 127
2, 172572, Note_off_c, 8, 56, 127
2, 172575, Note_on_c, 1, 61, 127
2, 172575, Note_on_c, 4, 64, 127
2, 172575, Note_on_c, 8, 80, 127
2, 172748, Note_off_c, 8, 80, 127
2, 172753, Note_on_c, 6, 78, 127
2, 172926, Note_off_c, 6, 78, 127
2, 172929, Note_on_c, 4, 76, 127
2, 173102, Note_off_c, 4, 76, 127
2, 173107, Note_on_c, 8, 80, 127
2, 173279, Note_off_c, 4, 64, 127
2, 173279, Note_off_c, 1, 61, 127
2, 173280, Note_off_c, 8, 80, 127
2, 173283, Note_on_c, 3, 63, 127
2, 173283, Note_on_c, 1, 61, 127
2, 173283, Note_on_c, 6, 78, 127
2, 173456, Note_off_c, 6, 78, 127
2, 173462, Note_on_c, 4, 76, 127
2, 173635, Note_off_c, 4, 76, 127
2, 173637, Note_on_c, 6, 78, 127
2, 173810, Note_off_c, 6, 78, 127
2, 173815, Note_on_c, 8, 80, 127
2, 173987, Note_off_c, 1, 61, 127
2, 173988, Note_off_c, 8, 80, 127
2, 173992, Note_on_c, 0, 60, 127
2, 173992, Note_on_c, 6, 78, 127
2, 174165, Note_off_c, 6, 78, 127
2, 174170, Note_on_c, 4, 76, 127
2, 174343, Note_off_c, 4, 76, 127
2, 174346, Note_on_c, 3, 75, 127
2, 174519, Note_off_c, 3, 75, 127
2, 174523, Note_on_c, 6, 78, 127
2, 174692, Note_off_c, 3, 63, 127
2, 174696, Note_off_c, 6, 78, 127
2, 174696, Note_off_c, 0, 60, 127
2, 174700, Note_on_c, 1, 61, 127
2, 174700, Note_on_c, 4, 76, 127
2, 174873, Note_off_c, 4, 76, 127
2, 174877, Note_on_c, 3, 75, 127
2, 175050, Note_off_c, 3, 75, 127
2, 175054, Note_on_c, 4, 76, 127
2, 175227, Note_off_c, 4, 76, 127
2, 175232, Note_on_c, 6, 78, 127
2, 175405, Note_off_c, 6, 78, 127
2, 175409, Note_on_c, 4, 76, 127
2, 175409, Note_on_c, 8, 68, 127
2, 175582, Note_off_c, 4, 76, 127
2, 175585, Note_on_c, 3, 75, 127
2, 175758, Note_off_c, 3, 75, 127
2, 175762, Note_on_c, 1, 73, 127
2, 175935, Note_off_c, 1, 73, 127
2, 175939, Note_on_c, 4, 76, 127
2, 176112, Note_off_c, 4, 76, 127
2, 176113, Note_off_c, 8, 68, 127
2, 176116, Note_on_c, 3, 75, 127
2, 176116, Note_on_c, 7, 67, 127
2, 176289, Note_off_c, 3, 75, 127
2, 176293, Note_on_c, 1, 73, 127
2, 176466, Note_off_c, 1, 73, 127
2, 176467, Note_off_c, 1, 61, 127
2, 176471, Note_on_c, 12, 59, 127
2, 176471, Note_on_c, 3, 75, 127
2, 176644, Note_off_c, 3, 75, 127
2, 176648, Note_on_c, 4, 76, 127
2, 176820, Note_off_c, 7, 67, 127
2, 176821, Note_off_c, 4, 76, 127
2, 176821, Note_off_c, 12, 59, 127
2, 176824, Note_on_c, 11, 58, 127
2, 176824, Note_on_c, 12, 71, 127
2, 176824, Note_on_c, 3, 75, 127
2, 176997, Note_off_c, 3, 75, 127
2, 177001, Note_on_c, 1, 73, 127
2, 177172, Note_off_c, 12, 71, 127
2, 177174, Note_off_c, 1, 73, 127
2, 177174, Note_off_c, 11, 58, 127
2, 177179, Note_on_c, 8, 56, 127
2, 177179, Note_on_c, 12, 71, 127
2, 177356, Note_on_c, 3, 75, 127
2, 177527, Note_off_c, 12, 71, 127
2, 177529, Note_off_c, 3, 75, 127
2, 177533, Note_on_c, 11, 70, 127
2, 177533, Note_on_c, 1, 73, 127
2, 177706, Note_off_c, 1, 73, 127
2, 177709, Note_on_c, 12, 71, 127
2, 177882, Note_off_c, 12, 71, 127
2, 177883, Note_off_c, 8, 56, 127
2, 177887, Note_on_c, 7, 55, 127
2, 177887, Note_on_c, 1, 73, 127
2, 178060, Note_off_c, 1, 73, 127
2, 178060, Note_off_c, 7, 55, 127
2, 178063, Note_on_c, 5, 53, 127
2, 178063, Note_on_c, 3, 75, 127
2, 178236, Note_off_c, 3, 75, 127
2, 178236, Note_off_c, 5, 53, 127
2, 178241, Note_on_c, 7, 55, 127
2, 178241, Note_on_c, 1, 73, 127
2, 178414, Note_off_c, 1, 73, 127
2, 178418, Note_on_c, 12, 71, 127
2, 178590, Note_off_c, 11, 70, 127
2, 178591, Note_off_c, 12, 71, 127
2, 178596, Note_on_c, 11, 70, 127
2, 178771, Note_on_c, 1, 73, 127
2, 178944, Note_off_c, 1, 73, 127
2, 178945, Note_off_c, 7, 55, 127
2, 178948, Note_on_c, 8, 56, 127
2, 178948, Note_on_c, 12, 71, 127
2, 179124, Note_off_c, 8, 56, 127
2, 179128, Note_on_c, 11, 58, 127
2, 179304, Note_off_c, 11, 58, 127
2, 179305, Note_off_c, 11, 70, 127
2, 179307, Note_on_c, 8, 56, 127
2, 179307, Note_on_c, 3, 63, 127
2, 179483, Note_off_c, 8, 56, 127
2, 179488, Note_on_c, 7, 55, 127
2, 179662, Note_off_c, 3, 63, 127
2, 179664, Note_off_c, 7, 55, 127
2, 179668, Note_on_c, 8, 56, 127
2, 179668, Note_on_c, 8, 68, 127
2, 179844, Note_off_c, 8, 56, 127
2, 179847, Note_on_c, 10, 57, 127
2, 179847, Note_on_c, 1, 73, 127
2, 179850, Note_off_c, 12, 71, 127
2, 180023, Note_off_c, 1, 73, 127
2, 180023, Note_off_c, 10, 57, 127
2, 180028, Note_on_c, 12, 59, 127
2, 180028, Note_on_c, 3, 75, 127
2, 180204, Note_off_c, 3, 75, 127
2, 180204, Note_off_c, 12, 59, 127
2, 180206, Note_on_c, 8, 56, 127
2, 180206, Note_on_c, 12, 71, 127
2, 180382, Note_off_c, 12, 71, 127
2, 180382, Note_off_c, 8, 56, 127
2, 180387, Note_on_c, 10, 57, 127
2, 180387, Note_on_c, 1, 73, 127
2, 180563, Note_off_c, 10, 57, 127
2, 180566, Note_on_c, 12, 59, 127
2, 180742, Note_off_c, 12, 59, 127
2, 180742, Note_off_c, 8, 68, 127
2, 180746, Note_on_c, 10, 57, 127
2, 180746, Note_on_c, 6, 66, 127
2, 180922, Note_off_c, 6, 66, 127
2, 180922, Note_off_c, 10, 57, 127
2, 180926, Note_on_c, 8, 56, 127
2, 180926, Note_on_c, 4, 64, 127
2, 181102, Note_off_c, 4, 64, 127
2, 181102, Note_off_c, 8, 56, 127
2, 181106, Note_on_c, 11, 58, 127
2, 181106, Note_on_c, 6, 66, 127
2, 181282, Note_off_c, 11, 58, 127
2, 181285, Note_on_c, 12, 59, 127
2, 181461, Note_off_c, 12, 59, 127
2, 181461, Note_off_c, 1, 73, 127
2, 181465, Note_on_c, 1, 61, 127
2, 181465, Note_on_c, 4, 76, 127
2, 181641, Note_off_c, 1, 61, 127
2, 181644, Note_on_c, 11, 58, 127
2, 181820, Note_off_c, 11, 58, 127
2, 181820, Note_off_c, 4, 76, 127
2, 181824, Note_on_c, 12, 59, 127
2, 181824, Note_on_c, 3, 75, 127
2, 182000, Note_off_c, 12, 59, 127
2, 182004, Note_on_c, 1, 61, 127
2, 182180, Note_off_c, 1, 61, 127
2, 182180, Note_off_c, 6, 66, 127
2, 182184, Note_on_c, 12, 59, 127
2, 182184, Note_on_c, 4, 64, 127
2, 182360, Note_off_c, 4, 64, 127
2, 182360, Note_off_c, 12, 59, 127
2, 182363, Note_on_c, 11, 58, 127
2, 182363, Note_on_c, 6, 66, 127
2, 182539, Note_off_c, 6, 66, 127
2, 182539, Note_off_c, 11, 58, 127
2, 182544, Note_on_c, 0, 60, 127
2, 182544, Note_on_c, 8, 68, 127
2, 182720, Note_off_c, 0, 60, 127
2, 182723, Note_on_c, 1, 61, 127
2, 182898, Note_off_c, 3, 75, 127
2, 182899, Note_off_c, 1, 61, 127
2, 182902, Note_on_c, 3, 63, 127
2, 182902, Note_on_c, 6, 78, 127
2, 183078, Note_off_c, 3, 63, 127
2, 183082, Note_on_c, 0, 60, 127
2, 183257, Note_off_c, 6, 78, 127
2, 183258, Note_off_c, 0, 60, 127
2, 183262, Note_on_c, 1, 61, 127
2, 183262, Note_on_c, 4, 76, 127
2, 183622, Note_on_c, 1, 49, 127
2, 183798, Note_off_c, 1, 49, 127
2, 183801, Note_on_c, 3, 51, 127
2, 183977, Note_off_c, 3, 51, 127
2, 183982, Note_on_c, 4, 52, 127
2, 183982, Note_on_c, 1, 73, 127
2, 184337, Note_off_c, 4, 52, 127
2, 184339, Note_on_c, 6, 54, 127
2, 184692, Note_off_c, 1, 61, 127
2, 184693, Note_off_c, 6, 54, 127
2, 184694, Note_off_c, 8, 68, 127
2, 184696, Note_off_c, 1, 73, 127
2, 184698, Note_on_c, 8, 56, 127
2, 184698, Note_on_c, 0, 72, 127
2, 184874, Note_off_c, 8, 56, 127
2, 184878, Note_on_c, 6, 54, 127
2, 185054, Note_off_c, 6, 54, 127
2, 185056, Note_off_c, 4, 76, 127
2, 185057, Note_on_c, 8, 56, 127
2, 185057, Note_on_c, 3, 75, 127
2, 185233, Note_off_c, 8, 56, 127
2, 185237, Note_on_c, 10, 57, 127
2, 185413, Note_off_c, 10, 57, 127
2, 185414, Note_off_c, 0, 72, 127
2, 185416, Note_on_c, 8, 56, 127
2, 185416, Note_on_c, 4, 76, 127
2, 185592, Note_off_c, 8, 56, 127
2, 185597, Note_on_c, 6, 54, 127
2, 185773, Note_off_c, 6, 54, 127
2, 185773, Note_off_c, 3, 75, 127
2, 185776, Note_on_c, 4, 52, 127
2, 185776, Note_on_c, 1, 73, 127
2, 185952, Note_off_c, 4, 52, 127
2, 185956, Note_on_c, 8, 56, 127
2, 186132, Note_off_c, 8, 56, 127
2, 186132, Note_off_c, 4, 76, 127
2, 186136, Note_on_c, 6, 54, 127
2, 186136, Note_on_c, 3, 75, 127
2, 186312, Note_off_c, 6, 54, 127
2, 186315, Note_on_c, 4, 52, 127
2, 186491, Note_off_c, 4, 52, 127
2, 186492, Note_off_c, 1, 73, 127
2, 186495, Note_on_c, 6, 54, 127
2, 186495, Note_on_c, 0, 72, 127
2, 186671, Note_off_c, 0, 72, 127
2, 186671, Note_off_c, 6, 54, 127
2, 186675, Note_on_c, 8, 56, 127
2, 186675, Note_on_c, 11, 70, 127
2, 186851, Note_off_c, 11, 70, 127
2, 186851, Note_off_c, 8, 56, 127
2, 186854, Note_on_c, 6, 54, 127
2, 186854, Note_on_c, 0, 72, 127
2, 187030, Note_off_c, 6, 54, 127
2, 187035, Note_on_c, 4, 52, 127
2, 187210, Note_off_c, 3, 75, 127
2, 187211, Note_off_c, 4, 52, 127
2, 187215, Note_on_c, 3, 51, 127
2, 187215, Note_on_c, 3, 75, 127
2, 187391, Note_off_c, 3, 51, 127
2, 187394, Note_on_c, 6, 54, 127
2, 187570, Note_off_c, 6, 54, 127
2, 187570, Note_off_c, 0, 72, 127
2, 187574, Note_on_c, 4, 52, 127
2, 187574, Note_on_c, 8, 80, 127
2, 187754, Note_off_c, 8, 80, 127
2, 187754, Note_off_c, 4, 52, 127
2, 187756, Note_on_c, 3, 51, 127
2, 187756, Note_on_c, 6, 78, 127
2, 187936, Note_off_c, 6, 78, 127
2, 187936, Note_off_c, 3, 51, 127
2, 187938, Note_on_c, 4, 52, 127
2, 187938, Note_on_c, 8, 80, 127
2, 188118, Note_off_c, 8, 80, 127
2, 188118, Note_off_c, 4, 52, 127
2, 188120, Note_on_c, 6, 54, 127
2, 188120, Note_on_c, 10, 81, 127
2, 188299, Note_off_c, 3, 75, 127
2, 188300, Note_off_c, 10, 81, 127
2, 188300, Note_off_c, 6, 54, 127
2, 188303, Note_on_c, 4, 52, 127
2, 188303, Note_on_c, 8, 80, 127
2, 188303, Note_on_c, 1, 73, 127
2, 188483, Note_off_c, 8, 80, 127
2, 188483, Note_off_c, 4, 52, 127
2, 188485, Note_on_c, 10, 57, 127
2, 188485, Note_on_c, 6, 78, 127
2, 188665, Note_off_c, 6, 78, 127
2, 188665, Note_off_c, 10, 57, 127
2, 188668, Note_on_c, 8, 56, 127
2, 188668, Note_on_c, 4, 76, 127
2, 188848, Note_off_c, 4, 76, 127
2, 188848, Note_off_c, 8, 56, 127
2, 188851, Note_on_c, 10, 57, 127
2, 188851, Note_on_c, 8, 80, 127
2, 189031, Note_off_c, 8, 80, 127
2, 189031, Note_off_c, 10, 57, 127
2, 189033, Note_on_c, 3, 51, 127
2, 189033, Note_on_c, 6, 78, 127
2, 189213, Note_off_c, 6, 78, 127
2, 189213, Note_off_c, 3, 51, 127
2, 189215, Note_on_c, 1, 49, 127
2, 189215, Note_on_c, 4, 76, 127
2, 189395, Note_off_c, 4, 76, 127
2, 189395, Note_off_c, 1, 49, 127
2, 189397, Note_on_c, 3, 51, 127
2, 189397, Note_on_c, 6, 78, 127
2, 189577, Note_off_c, 6, 78, 127
2, 189577, Note_off_c, 3, 51, 127
2, 189579, Note_on_c, 4, 52, 127
2, 189579, Note_on_c, 8, 80, 127
2, 189755, Note_off_c, 1, 73, 127
2, 189760, Note_off_c, 8, 80, 127
2, 189760, Note_off_c, 4, 52, 127
2, 189763, Note_on_c, 3, 51, 127
2, 189763, Note_on_c, 6, 78, 127
2, 189763, Note_on_c, 0, 72, 127
2, 189943, Note_off_c, 6, 78, 127
2, 189943, Note_off_c, 3, 51, 127
2, 189945, Note_on_c, 8, 56, 127
2, 189945, Note_on_c, 4, 76, 127
2, 190122, Note_off_c, 0, 72, 127
2, 190125, Note_off_c, 4, 76, 127
2, 190125, Note_off_c, 8, 56, 127
2, 190129, Note_on_c, 6, 54, 127
2, 190129, Note_on_c, 3, 75, 127
2, 190129, Note_on_c, 12, 71, 127
2, 190309, Note_off_c, 3, 75, 127
2, 190309, Note_off_c, 6, 54, 127
2, 190310, Note_on_c, 8, 56, 127
2, 190310, Note_on_c, 6, 78, 127
2, 190490, Note_off_c, 6, 78, 127
2, 190490, Note_off_c, 8, 56, 127
2, 190494, Note_on_c, 1, 49, 127
2, 190494, Note_on_c, 5, 77, 127
2, 190673, Note_off_c, 12, 71, 127
2, 190675, Note_on_c, 12, 71, 127
2, 190855, Note_off_c, 12, 71, 127
2, 190858, Note_on_c, 1, 61, 127
2, 190858, Note_on_c, 1, 73, 127
2, 191038, Note_off_c, 1, 73, 127
2, 191040, Note_on_c, 2, 74, 127
2, 191220, Note_off_c, 2, 74, 127
2, 191220, Note_off_c, 1, 61, 127
2, 191221, Note_off_c, 5, 77, 127
2, 191221, Note_off_c, 1, 49, 127
2, 191223, Note_on_c, 6, 66, 127
2, 191223, Note_on_c, 1, 73, 127
2, 191223, Note_on_c, 10, 81, 127
2, 191403, Note_off_c, 1, 73, 127
2, 191405, Note_on_c, 12, 71, 127
2, 191585, Note_off_c, 12, 71, 127
2, 191585, Note_off_c, 6, 66, 127
2, 191587, Note_on_c, 6, 66, 127
2, 191587, Note_on_c, 10, 69, 127
2, 191767, Note_off_c, 10, 69, 127
2, 191770, Note_on_c, 1, 73, 127
2, 191949, Note_off_c, 6, 66, 127
2, 191950, Note_off_c, 1, 73, 127
2, 191950, Note_off_c, 10, 81, 127
2, 191952, Note_on_c, 6, 66, 127
2, 191952, Note_on_c, 8, 80, 127
2, 191952, Note_on_c, 12, 71, 127
2, 192132, Note_off_c, 12, 71, 127
2, 192135, Note_on_c, 10, 69, 127
2, 192314, Note_off_c, 6, 66, 127
2, 192315, Note_off_c, 10, 69, 127
2, 192317, Note_on_c, 5, 65, 127
2, 192317, Note_on_c, 12, 71, 127
2, 192497, Note_off_c, 12, 71, 127
2, 192497, Note_off_c, 5, 65, 127
2, 192499, Note_on_c, 3, 63, 127
2, 192499, Note_on_c, 1, 73, 127
2, 192679, Note_off_c, 1, 73, 127
2, 192679, Note_off_c, 3, 63, 127
2, 192682, Note_on_c, 5, 65, 127
2, 192682, Note_on_c, 12, 71, 127
2, 192862, Note_off_c, 12, 71, 127
2, 192863, Note_on_c, 10, 69, 127
2, 193043, Note_off_c, 10, 69, 127
2, 193047, Note_on_c, 8, 68, 127
2, 193227, Note_off_c, 8, 68, 127
2, 193228, Note_on_c, 12, 71, 127
2, 193408, Note_off_c, 12, 71, 127
2, 193409, Note_off_c, 5, 65, 127
2, 193412, Note_on_c, 6, 66, 127
2, 193412, Note_on_c, 10, 69, 127
2, 193774, Note_off_c, 8, 80, 127
2, 193776, Note_on_c, 6, 54, 127
2, 193776, Note_on_c, 6, 78, 127
2, 193956, Note_off_c, 6, 78, 127
2, 193956, Note_off_c, 6, 54, 127
2, 193958, Note_on_c, 8, 56, 127
2, 193958, Note_on_c, 4, 76, 127
2, 194138, Note_off_c, 4, 76, 127
2, 194138, Note_off_c, 8, 56, 127
2, 194139, Note_off_c, 6, 66, 127
2, 194141, Note_on_c, 6, 54, 127
2, 194141, Note_on_c, 10, 57, 127
2, 194141, Note_on_c, 2, 74, 127
2, 194321, Note_off_c, 2, 74, 127
2, 194322, Note_off_c, 10, 69, 127
2, 194323, Note_on_c, 1, 73, 127
2, 194503, Note_off_c, 1, 73, 127
2, 194503, Note_off_c, 10, 57, 127
2, 194504, Note_on_c, 12, 59, 127
2, 194504, Note_on_c, 12, 71, 127
2, 194684, Note_off_c, 12, 71, 127
2, 194688, Note_on_c, 10, 69, 127
2, 194866, Note_off_c, 12, 59, 127
2, 194868, Note_off_c, 10, 69, 127
2, 194868, Note_off_c, 6, 54, 127
2, 194871, Note_on_c, 5, 53, 127
2, 194871, Note_on_c, 1, 61, 127
2, 194871, Note_on_c, 8, 68, 127
2, 195051, Note_off_c, 1, 61, 127
2, 195053, Note_on_c, 12, 59, 127
2, 195233, Note_off_c, 12, 59, 127
2, 195235, Note_on_c, 1, 61, 127
2, 195235, Note_on_c, 1, 73, 127
2, 195415, Note_off_c, 1, 61, 127
2, 195417, Note_on_c, 2, 62, 127
2, 195597, Note_off_c, 2, 62, 127
2, 195597, Note_off_c, 1, 73, 127
2, 195598, Note_off_c, 8, 68, 127
2, 195598, Note_off_c, 5, 53, 127
2, 195600, Note_on_c, 1, 61, 127
2, 195600, Note_on_c, 10, 57, 127
2, 195600, Note_on_c, 6, 78, 127
2, 195780, Note_off_c, 1, 61, 127
2, 195783, Note_on_c, 12, 59, 127
2, 195959, Note_off_c, 10, 57, 127
2, 195962, Note_off_c, 6, 78, 127
2, 195963, Note_off_c, 12, 59, 127
2, 195964, Note_on_c, 10, 57, 127
2, 195964, Note_on_c, 6, 78, 127
2, 196147, Note_on_c, 1, 61, 127
2, 196323, Note_off_c, 10, 57, 127
2, 196326, Note_off_c, 6, 78, 127
2, 196327, Note_off_c, 1, 61, 127
2, 196330, Note_on_c, 8, 56, 127
2, 196330, Note_on_c, 12, 59, 127
2, 196330, Note_on_c, 6, 78, 127
2, 196510, Note_off_c, 12, 59, 127
2, 196512, Note_on_c, 10, 57, 127
2, 196692, Note_off_c, 10, 57, 127
2, 196692, Note_off_c, 6, 78, 127
2, 196694, Note_on_c, 12, 59, 127
2, 196694, Note_on_c, 4, 76, 127
2, 196874, Note_off_c, 4, 76, 127
2, 196874, Note_off_c, 12, 59, 127
2, 196876, Note_on_c, 1, 61, 127
2, 196876, Note_on_c, 2, 74, 127
2, 197056, Note_off_c, 2, 74, 127
2, 197056, Note_off_c, 1, 61, 127
2, 197060, Note_on_c, 12, 59, 127
2, 197060, Note_on_c, 4, 76, 127
2, 197240, Note_off_c, 12, 59, 127
2, 197241, Note_on_c, 10, 57, 127
2, 197420, Note_off_c, 8, 56, 127
2, 197421, Note_off_c, 10, 57, 127
2, 197423, Note_on_c, 8, 56, 127
2, 197606, Note_on_c, 12, 59, 127
2, 197782, Note_off_c, 8, 56, 127
2, 197786, Note_off_c, 12, 59, 127
2, 197789, Note_on_c, 6, 54, 127
2, 197789, Note_on_c, 10, 57, 127
2, 197969, Note_off_c, 10, 57, 127
2, 197971, Note_on_c, 8, 56, 127
2, 198151, Note_off_c, 8, 56, 127
2, 198151, Note_off_c, 4, 76, 127
2, 198153, Note_on_c, 10, 57, 127
2, 198153, Note_on_c, 2, 74, 127
2, 198333, Note_off_c, 2, 74, 127
2, 198333, Note_off_c, 10, 57, 127
2, 198336, Note_on_c, 12, 59, 127
2, 198336, Note_on_c, 1, 73, 127
2, 198516, Note_off_c, 1, 73, 127
2, 198516, Note_off_c, 12, 59, 127
2, 198518, Note_on_c, 10, 57, 127
2, 198518, Note_on_c, 2, 74, 127
2, 198518, Note_on_c, 10, 69, 127
2, 198698, Note_off_c, 10, 57, 127
2, 198701, Note_on_c, 12, 59, 127
2, 198881, Note_off_c, 12, 59, 127
2, 198882, Note_on_c, 1, 61, 127
2, 199062, Note_off_c, 1, 61, 127
2, 199065, Note_on_c, 2, 62, 127
2, 199241, Note_off_c, 6, 54, 127
2, 199246, Note_off_c, 2, 62, 127
2, 199246, Note_off_c, 10, 69, 127
2, 199249, Note_on_c, 4, 64, 127
2, 199249, Note_on_c, 8, 68, 127
2, 199429, Note_off_c, 4, 64, 127
2, 199432, Note_on_c, 2, 62, 127
2, 199612, Note_off_c, 2, 62, 127
2, 199614, Note_on_c, 4, 52, 127
2, 199614, Note_on_c, 4, 64, 127
2, 199794, Note_off_c, 4, 64, 127
2, 199795, Note_on_c, 6, 66, 127
2, 199971, Note_off_c, 2, 74, 127
2, 199973, Note_off_c, 4, 52, 127
2, 199975, Note_off_c, 6, 66, 127
2, 199976, Note_off_c, 8, 68, 127
2, 199979, Note_on_c, 4, 64, 127
2, 199979, Note_on_c, 10, 57, 127
2, 199979, Note_on_c, 1, 73, 127
2, 200159, Note_off_c, 4, 64, 127
2, 200160, Note_on_c, 2, 62, 127
2, 200338, Note_off_c, 10, 57, 127
2, 200340, Note_off_c, 2, 62, 127
2, 200343, Note_on_c, 1, 61, 127
2, 200343, Note_on_c, 10, 57, 127
2, 200523, Note_off_c, 1, 61, 127
2, 200526, Note_on_c, 4, 64, 127
2, 200702, Note_off_c, 10, 57, 127
2, 200706, Note_off_c, 4, 64, 127
2, 200706, Note_off_c, 1, 73, 127
2, 200709, Note_on_c, 2, 62, 127
2, 200709, Note_on_c, 10, 57, 127
2, 200709, Note_on_c, 6, 78, 127
2, 200709, Note_on_c, 12, 71, 127
2, 200889, Note_off_c, 2, 62, 127
2, 200891, Note_on_c, 1, 61, 127
2, 201068, Note_off_c, 10, 57, 127
2, 201071, Note_off_c, 1, 61, 127
2, 201073, Note_on_c, 8, 56, 127
2, 201073, Note_on_c, 2, 62, 127
2, 201253, Note_off_c, 2, 62, 127
2, 201253, Note_off_c, 8, 56, 127
2, 201255, Note_on_c, 6, 54, 127
2, 201255, Note_on_c, 4, 64, 127
2, 201435, Note_off_c, 4, 64, 127
2, 201435, Note_off_c, 6, 54, 127
2, 201436, Note_off_c, 6, 78, 127
2, 201437, Note_on_c, 2, 62, 127
2, 201437, Note_on_c, 8, 56, 127
2, 201437, Note_on_c, 4, 76, 127
2, 201617, Note_off_c, 2, 62, 127
2, 201620, Note_on_c, 1, 61, 127
2, 201800, Note_off_c, 1, 61, 127
2, 201802, Note_on_c, 12, 59, 127
2, 201982, Note_off_c, 12, 59, 127
2, 201985, Note_on_c, 2, 62, 127
2, 202164, Note_off_c, 8, 56, 127
2, 202165, Note_off_c, 2, 62, 127
2, 202168, Note_on_c, 10, 57, 127
2, 202168, Note_on_c, 1, 61, 127
2, 202348, Note_off_c, 1, 61, 127
2, 202350, Note_on_c, 12, 59, 127
2, 202528, Note_off_c, 4, 76, 127
2, 202530, Note_off_c, 12, 59, 127
2, 202531, Note_off_c, 12, 71, 127
2, 202532, Note_on_c, 1, 61, 127
2, 202532, Note_on_c, 4, 64, 127
2, 202712, Note_off_c, 1, 61, 127
2, 202714, Note_on_c, 2, 62, 127
2, 202714, Note_on_c, 6, 78, 127
2, 202891, Note_off_c, 4, 64, 127
2, 202894, Note_off_c, 6, 78, 127
2, 202894, Note_off_c, 2, 62, 127
2, 202895, Note_off_c, 10, 57, 127
2, 202897, Note_on_c, 1, 61, 127
2, 202897, Note_on_c, 6, 54, 127
2, 202897, Note_on_c, 10, 69, 127
2, 202897, Note_on_c, 4, 76, 127
2, 203077, Note_off_c, 4, 76, 127
2, 203077, Note_off_c, 1, 61, 127
2, 203079, Note_on_c, 12, 59, 127
2, 203079, Note_on_c, 2, 74, 127
2, 203256, Note_off_c, 10, 69, 127
2, 203259, Note_off_c, 2, 74, 127
2, 203259, Note_off_c, 12, 59, 127
2, 203261, Note_on_c, 10, 57, 127
2, 203261, Note_on_c, 1, 73, 127
2, 203261, Note_on_c, 10, 69, 127
2, 203441, Note_off_c, 1, 73, 127
2, 203441, Note_off_c, 10, 57, 127
2, 203444, Note_on_c, 1, 61, 127
2, 203444, Note_on_c, 4, 76, 127
2, 203620, Note_off_c, 10, 69, 127
2, 203624, Note_off_c, 4, 76, 127
2, 203624, Note_off_c, 1, 61, 127
2, 203624, Note_off_c, 6, 54, 127
2, 203627, Note_on_c, 12, 47, 127
2, 203627, Note_on_c, 12, 59, 127
2, 203627, Note_on_c, 10, 69, 127
2, 203627, Note_on_c, 2, 74, 127
2, 203807, Note_off_c, 2, 74, 127
2, 203809, Note_on_c, 1, 73, 127
2, 203986, Note_off_c, 10, 69, 127
2, 203989, Note_off_c, 1, 73, 127
2, 203991, Note_on_c, 8, 68, 127
2, 203991, Note_on_c, 2, 74, 127
2, 204171, Note_off_c, 2, 74, 127
2, 204171, Note_off_c, 8, 68, 127
2, 204173, Note_on_c, 6, 66, 127
2, 204173, Note_on_c, 4, 76, 127
2, 204353, Note_off_c, 4, 76, 127
2, 204353, Note_off_c, 6, 66, 127
2, 204354, Note_off_c, 12, 47, 127
2, 204356, Note_on_c, 4, 52, 127
2, 204356, Note_on_c, 8, 68, 127
2, 204356, Note_on_c, 2, 74, 127
2, 204536, Note_off_c, 2, 74, 127
2, 204538, Note_on_c, 1, 73, 127
2, 204718, Note_off_c, 1, 73, 127
2, 204720, Note_on_c, 12, 71, 127
2, 204900, Note_off_c, 12, 71, 127
2, 204903, Note_on_c, 2, 74, 127
2, 205079, Note_off_c, 12, 59, 127
2, 205084, Note_off_c, 2, 74, 127
2, 205084, Note_off_c, 4, 52, 127
2, 205088, Note_on_c, 10, 45, 127
2, 205088, Note_on_c, 10, 57, 127
2, 205088, Note_on_c, 1, 73, 127
2, 205268, Note_off_c, 10, 57, 127
2, 205270, Note_on_c, 8, 56, 127
2, 205447, Note_off_c, 8, 68, 127
2, 205450, Note_off_c, 8, 56, 127
2, 205451, Note_on_c, 6, 54, 127
2, 205451, Note_on_c, 1, 61, 127
2, 205631, Note_off_c, 1, 61, 127
2, 205631, Note_off_c, 6, 54, 127
2, 205634, Note_on_c, 4, 52, 127
2, 205634, Note_on_c, 3, 63, 127
2, 205814, Note_off_c, 3, 63, 127
2, 205814, Note_off_c, 4, 52, 127
2, 205816, Note_on_c, 3, 51, 127
2, 205816, Note_on_c, 4, 64, 127
2, 205996, Note_off_c, 3, 51, 127
2, 205999, Note_on_c, 1, 49, 127
2, 206178, Note_off_c, 4, 64, 127
2, 206179, Note_off_c, 1, 49, 127
2, 206180, Note_on_c, 0, 48, 127
2, 206180, Note_on_c, 6, 66, 127
2, 206360, Note_off_c, 0, 48, 127
2, 206364, Note_on_c, 1, 49, 127
2, 206540, Note_off_c, 1, 73, 127
2, 206540, Note_off_c, 10, 45, 127
2, 206543, Note_off_c, 6, 66, 127
2, 206545, Note_off_c, 1, 49, 127
2, 206548, Note_on_c, 3, 51, 127
2, 206548, Note_on_c, 8, 44, 127
2, 206548, Note_on_c, 8, 68, 127
2, 206548, Note_on_c, 0, 72, 127
2, 206733, Note_off_c, 8, 68, 127
2, 206753, Note_on_c, 6, 66, 127
2, 206938, Note_off_c, 6, 66, 127
2, 206941, Note_on_c, 8, 68, 127
2, 206941, Note_on_c, 8, 56, 127
2, 207126, Note_off_c, 8, 68, 127
2, 207128, Note_on_c, 10, 69, 127
2, 207296, Note_off_c, 0, 72, 127
2, 207296, Note_off_c, 8, 44, 127
2, 207296, Note_off_c, 3, 51, 127
2, 207313, Note_off_c, 10, 69, 127
2, 207313, Note_off_c, 8, 56, 127
2, 207316, Note_on_c, 8, 68, 127
2, 207316, Note_on_c, 4, 76, 127
2, 207316, Note_on_c, 1, 61, 127
2, 207501, Note_off_c, 8, 68, 127
2, 207503, Note_on_c, 6, 66, 127
2, 207688, Note_off_c, 6, 66, 127
2, 207688, Note_off_c, 1, 61, 127
2, 207691, Note_on_c, 4, 64, 127
2, 207691, Note_on_c, 1, 61, 127
2, 207876, Note_off_c, 4, 64, 127
2, 207880, Note_on_c, 8, 68, 127
2, 208063, Note_off_c, 1, 61, 127
2, 208064, Note_off_c, 4, 76, 127
2, 208065, Note_off_c, 8, 68, 127
2, 208066, Note_on_c, 3, 75, 127
2, 208066, Note_on_c, 6, 66, 127
2, 208066, Note_on_c, 1, 61, 127
2, 208251, Note_off_c, 6, 66, 127
2, 208255, Note_on_c, 4, 64, 127
2, 208438, Note_off_c, 1, 61, 127
2, 208440, Note_off_c, 4, 64, 127
2, 208442, Note_on_c, 6, 66, 127
2, 208442, Note_on_c, 0, 60, 127
2, 208627, Note_off_c, 0, 60, 127
2, 208627, Note_off_c, 6, 66, 127
2, 208629, Note_on_c, 8, 68, 127
2, 208629, Note_on_c, 11, 58, 127
2, 208814, Note_off_c, 11, 58, 127
2, 208814, Note_off_c, 8, 68, 127
2, 208818, Note_on_c, 6, 66, 127
2, 208818, Note_on_c, 0, 60, 127
2, 209003, Note_off_c, 6, 66, 127
2, 209005, Note_on_c, 4, 64, 127
2, 209190, Note_off_c, 4, 64, 127
2, 209193, Note_on_c, 3, 63, 127
2, 209378, Note_off_c, 3, 63, 127
2, 209380, Note_on_c, 6, 66, 127
2, 209565, Note_off_c, 6, 66, 127
2, 209566, Note_off_c, 0, 60, 127
2, 209569, Note_on_c, 4, 64, 127
2, 209569, Note_on_c, 1, 61, 127
2, 209754, Note_off_c, 4, 64, 127
2, 209758, Note_on_c, 3, 63, 127
2, 209942, Note_off_c, 3, 75, 127
2, 209943, Note_off_c, 3, 63, 127
2, 209944, Note_on_c, 4, 64, 127
2, 209944, Note_on_c, 8, 68, 127
2, 210129, Note_off_c, 4, 64, 127
2, 210133, Note_on_c, 6, 66, 127
2, 210314, Note_off_c, 8, 68, 127
2, 210317, Note_off_c, 1, 61, 127
2, 210318, Note_off_c, 6, 66, 127
2, 210320, Note_on_c, 4, 64, 127
2, 210320, Note_on_c, 1, 73, 127
2, 210320, Note_on_c, 10, 57, 127
2, 210505, Note_off_c, 4, 64, 127
2, 210508, Note_on_c, 3, 63, 127
2, 210690, Note_off_c, 1, 73, 127
2, 210693, Note_off_c, 3, 63, 127
2, 210696, Note_on_c, 1, 73, 127
2, 210696, Note_on_c, 1, 61, 127
2, 210881, Note_off_c, 1, 61, 127
2, 210883, Note_on_c, 4, 64, 127
2, 211066, Note_off_c, 1, 73, 127
2, 211068, Note_off_c, 4, 64, 127
2, 211068, Note_off_c, 10, 57, 127
2, 211071, Note_on_c, 1, 73, 127
2, 211071, Note_on_c, 3, 63, 127
2, 211071, Note_on_c, 6, 54, 127
2, 211256, Note_off_c, 3, 63, 127
2, 211258, Note_on_c, 1, 61, 127
2, 211441, Note_off_c, 1, 73, 127
2, 211443, Note_off_c, 1, 61, 127
2, 211447, Note_on_c, 12, 71, 127
2, 211447, Note_on_c, 3, 63, 127
2, 211632, Note_off_c, 3, 63, 127
2, 211632, Note_off_c, 12, 71, 127
2, 211634, Note_on_c, 10, 69, 127
2, 211634, Note_on_c, 4, 64, 127
2, 211819, Note_off_c, 4, 64, 127
2, 211819, Note_off_c, 10, 69, 127
2, 211819, Note_off_c, 6, 54, 127
2, 211821, Note_on_c, 12, 71, 127
2, 211821, Note_on_c, 2, 62, 127
2, 211821, Note_on_c, 8, 56, 127
2, 212006, Note_off_c, 2, 62, 127
2, 212010, Note_on_c, 1, 61, 127
2, 212195, Note_off_c, 1, 61, 127
2, 212196, Note_on_c, 12, 59, 127
2, 212381, Note_off_c, 12, 59, 127
2, 212385, Note_on_c, 2, 62, 127
2, 212569, Note_off_c, 8, 56, 127
2, 212570, Note_off_c, 2, 62, 127
2, 212573, Note_on_c, 1, 61, 127
2, 212573, Note_on_c, 5, 53, 127
2, 212758, Note_off_c, 1, 61, 127
2, 212760, Note_on_c, 12, 59, 127
2, 212945, Note_off_c, 12, 59, 127
2, 212948, Note_on_c, 1, 61, 127
2, 212948, Note_on_c, 1, 49, 127
2, 213133, Note_off_c, 1, 61, 127
2, 213136, Note_on_c, 2, 62, 127
2, 213315, Note_off_c, 12, 71, 127
2, 213322, Note_off_c, 2, 62, 127
2, 213322, Note_off_c, 1, 49, 127
2, 213322, Note_off_c, 5, 53, 127
2, 213325, Note_on_c, 10, 69, 127
2, 213325, Note_on_c, 1, 61, 127
2, 213325, Note_on_c, 6, 54, 127
2, 213510, Note_off_c, 1, 61, 127
2, 213513, Note_on_c, 4, 64, 127
2, 213697, Note_off_c, 6, 54, 127
2, 213698, Note_off_c, 4, 64, 127
2, 213701, Note_on_c, 3, 63, 127
2, 213701, Note_on_c, 6, 54, 127
2, 213886, Note_off_c, 3, 63, 127
2, 213889, Note_on_c, 1, 61, 127
2, 214073, Note_off_c, 6, 54, 127
2, 214073, Note_off_c, 10, 69, 127
2, 214074, Note_off_c, 1, 61, 127
2, 214077, Note_on_c, 8, 68, 127
2, 214077, Note_on_c, 0, 60, 127
2, 214077, Note_on_c, 8, 56, 127
2, 214077, Note_on_c, 6, 54, 127
2, 214456, Note_off_c, 6, 54, 127
2, 214459, Note_on_c, 4, 52, 127
2, 214459, Note_on_c, 8, 44, 127
2, 214647, Note_off_c, 4, 52, 127
2, 214650, Note_on_c, 3, 51, 127
2, 214835, Note_off_c, 8, 44, 127
2, 214837, Note_off_c, 3, 51, 127
2, 214838, Note_off_c, 0, 60, 127
2, 214838, Note_off_c, 8, 68, 127
2, 214840, Note_on_c, 1, 61, 127
2, 214840, Note_on_c, 1, 49, 127
2, 214840, Note_on_c, 4, 52, 127
2, 215219, Note_off_c, 1, 49, 127
2, 215223, Note_on_c, 1, 49, 127
2, 215597, Note_off_c, 8, 56, 127
2, 215601, Note_off_c, 4, 52, 127
2, 215601, Note_off_c, 1, 61, 127
2, 215602, Note_off_c, 1, 49, 127
2, 215604, Note_on_c, 3, 75, 127
2, 215604, Note_on_c, 3, 63, 127
2, 215604, Note_on_c, 3, 51, 127
2, 215604, Note_on_c, 7, 55, 127
2, 215604, Note_on_c, 1, 49, 127
2, 215983, Note_off_c, 1, 49, 127
2, 215983, Note_off_c, 3, 63, 127
2, 215988, Note_on_c, 3, 63, 127
2, 215988, Note_on_c, 12, 47, 127
2, 216176, Note_off_c, 12, 47, 127
2, 216178, Note_on_c, 11, 46, 127
2, 216366, Note_off_c, 11, 46, 127
2, 216366, Note_off_c, 7, 55, 127
2, 216368, Note_off_c, 3, 63, 127
2, 216371, Note_on_c, 8, 68, 127
2, 216371, Note_on_c, 8, 56, 127
2, 216371, Note_on_c, 12, 47, 127
2, 216559, Note_off_c, 12, 47, 127
2, 216559, Note_off_c, 8, 68, 127
2, 216563, Note_on_c, 11, 70, 127
2, 216563, Note_on_c, 11, 46, 127
2, 216751, Note_off_c, 11, 46, 127
2, 216751, Note_off_c, 11, 70, 127
2, 216755, Note_on_c, 12, 71, 127
2, 216755, Note_on_c, 8, 44, 127
2, 216943, Note_off_c, 8, 44, 127
2, 216946, Note_on_c, 12, 47, 127
2, 217128, Note_off_c, 3, 51, 127
2, 217128, Note_off_c, 3, 75, 127
2, 217134, Note_off_c, 12, 47, 127
2, 217134, Note_off_c, 8, 56, 127
2, 217137, Note_on_c, 2, 74, 127
2, 217137, Note_on_c, 11, 46, 127
2, 217137, Note_on_c, 5, 53, 127
2, 217325, Note_off_c, 11, 46, 127
2, 217329, Note_on_c, 8, 44, 127
2, 217513, Note_off_c, 5, 53, 127
2, 217516, Note_off_c, 8, 44, 127
2, 217517, Note_off_c, 12, 71, 127
2, 217520, Note_on_c, 11, 70, 127
2, 217520, Note_on_c, 11, 46, 127
2, 217708, Note_off_c, 11, 46, 127
2, 217711, Note_on_c, 12, 47, 127
2, 217899, Note_off_c, 12, 47, 127
2, 217899, Note_off_c, 2, 74, 127
2, 217900, Note_off_c, 11, 70, 127
2, 217903, Note_on_c, 3, 75, 127
2, 217903, Note_on_c, 6, 78, 127
2, 217903, Note_on_c, 11, 46, 127
2, 218091, Note_off_c, 11, 46, 127
2, 218096, Note_on_c, 8, 44, 127
2, 218283, Note_off_c, 3, 75, 127
2, 218284, Note_off_c, 8, 44, 127
2, 218287, Note_on_c, 3, 75, 127
2, 218287, Note_on_c, 6, 42, 127
2, 218475, Note_off_c, 6, 42, 127
2, 218480, Note_on_c, 11, 46, 127
2, 218666, Note_off_c, 6, 78, 127
2, 218667, Note_off_c, 3, 75, 127
2, 218668, Note_off_c, 11, 46, 127
2, 218671, Note_on_c, 5, 77, 127
2, 218671, Note_on_c, 3, 75, 127
2, 218671, Note_on_c, 8, 44, 127
2, 218859, Note_off_c, 8, 44, 127
2, 218863, Note_on_c, 6, 42, 127
2, 219051, Note_off_c, 6, 42, 127
2, 219051, Note_off_c, 3, 75, 127
2, 219055, Note_on_c, 1, 73, 127
2, 219055, Note_on_c, 8, 44, 127
2, 219243, Note_off_c, 8, 44, 127
2, 219243, Note_off_c, 1, 73, 127
2, 219246, Note_on_c, 0, 72, 127
2, 219246, Note_on_c, 11, 46, 127
2, 219434, Note_off_c, 11, 46, 127
2, 219434, Note_off_c, 0, 72, 127
2, 219434, Note_off_c, 5, 77, 127
2, 219437, Note_on_c, 1, 73, 127
2, 219437, Note_on_c, 4, 76, 127
2, 219437, Note_on_c, 8, 44, 127
2, 219625, Note_off_c, 8, 44, 127
2, 219630, Note_on_c, 12, 47, 127
2, 219818, Note_off_c, 12, 47, 127
2, 219821, Note_on_c, 11, 46, 127
2, 220009, Note_off_c, 11, 46, 127
2, 220013, Note_on_c, 8, 44, 127
2, 220200, Note_off_c, 4, 76, 127
2, 220201, Note_off_c, 8, 44, 127
2, 220205, Note_on_c, 3, 75, 127
2, 220205, Note_on_c, 7, 43, 127
2, 220388, Note_off_c, 1, 73, 127
2, 220393, Note_off_c, 3, 75, 127
2, 220396, Note_on_c, 1, 73, 127
2, 220588, Note_on_c, 3, 75, 127
2, 220588, Note_on_c, 3, 51, 127
2, 220776, Note_off_c, 3, 75, 127
2, 220780, Note_on_c, 4, 76, 127
2, 220966, Note_off_c, 1, 73, 127
2, 220967, Note_off_c, 7, 43, 127
2, 220968, Note_off_c, 4, 76, 127
2, 220968, Note_off_c, 3, 51, 127
2, 220971, Note_on_c, 3, 75, 127
2, 220971, Note_on_c, 12, 71, 127
2, 220971, Note_on_c, 8, 56, 127
2, 220971, Note_on_c, 8, 44, 127
2, 221159, Note_off_c, 3, 75, 127
2, 221163, Note_on_c, 1, 73, 127
2, 221347, Note_off_c, 12, 71, 127
2, 221350, Note_off_c, 1, 73, 127
2, 221350, Note_off_c, 8, 56, 127
2, 221353, Note_on_c, 12, 71, 127
2, 221353, Note_on_c, 8, 56, 127
2, 221544, Note_on_c, 3, 75, 127
2, 221728, Note_off_c, 12, 71, 127
2, 221730, Note_off_c, 8, 44, 127
2, 221731, Note_off_c, 3, 75, 127
2, 221731, Note_off_c, 8, 56, 127
2, 221734, Note_on_c, 11, 70, 127
2, 221734, Note_on_c, 1, 73, 127
2, 221734, Note_on_c, 8, 56, 127
2, 221734, Note_on_c, 11, 46, 127
2, 221922, Note_off_c, 1, 73, 127
2, 221925, Note_on_c, 12, 71, 127
2, 222113, Note_off_c, 12, 71, 127
2, 222114, Note_off_c, 8, 56, 127
2, 222117, Note_on_c, 1, 73, 127
2, 222117, Note_on_c, 6, 54, 127
2, 222305, Note_off_c, 6, 54, 127
2, 222305, Note_off_c, 1, 73, 127
2, 222309, Note_on_c, 3, 75, 127
2, 222309, Note_on_c, 4, 52, 127
2, 222497, Note_off_c, 4, 52, 127
2, 222497, Note_off_c, 3, 75, 127
2, 222497, Note_off_c, 11, 46, 127
2, 222497, Note_off_c, 11, 70, 127
2, 222500, Note_on_c, 1, 73, 127
2, 222500, Note_on_c, 10, 69, 127
2, 222500, Note_on_c, 6, 54, 127
2, 222500, Note_on_c, 3, 51, 127
2, 222688, Note_off_c, 1, 73, 127
2, 222693, Note_on_c, 4, 76, 127
2, 222881, Note_off_c, 4, 76, 127
2, 222884, Note_on_c, 3, 75, 127
2, 223072, Note_off_c, 3, 75, 127
2, 223077, Note_on_c, 1, 73, 127
2, 223263, Note_off_c, 3, 51, 127
2, 223265, Note_off_c, 1, 73, 127
2, 223268, Note_on_c, 0, 72, 127
2, 223268, Note_on_c, 8, 44, 127
2, 223456, Note_off_c, 6, 54, 127
2, 223458, Note_on_c, 10, 57, 127
2, 223644, Note_off_c, 10, 69, 127
2, 223646, Note_off_c, 10, 57, 127
2, 223651, Note_on_c, 3, 63, 127
2, 223651, Note_on_c, 8, 56, 127
2, 223839, Note_off_c, 8, 56, 127
2, 223841, Note_on_c, 6, 54, 127
2, 224029, Note_off_c, 6, 54, 127
2, 224030, Note_off_c, 8, 44, 127
2, 224030, Note_off_c, 0, 72, 127
2, 224031, Note_off_c, 3, 63, 127
2, 224033, Note_on_c, 12, 71, 127
2, 224033, Note_on_c, 8, 68, 127
2, 224033, Note_on_c, 5, 53, 127
2, 224221, Note_off_c, 5, 53, 127
2, 224225, Note_on_c, 3, 51, 127
2, 224413, Note_off_c, 3, 51, 127
2, 224413, Note_off_c, 8, 68, 127
2, 224417, Note_on_c, 8, 68, 127
2, 224417, Note_on_c, 5, 53, 127
2, 224605, Note_off_c, 5, 53, 127
2, 224609, Note_on_c, 1, 49, 127
2, 224796, Note_off_c, 12, 71, 127
2, 224797, Note_off_c, 1, 49, 127
2, 224802, Note_on_c, 11, 70, 127
2, 224802, Note_on_c, 6, 54, 127
2, 224990, Note_off_c, 6, 54, 127
2, 224992, Note_on_c, 5, 53, 127
2, 225180, Note_off_c, 5, 53, 127
2, 225180, Note_off_c, 8, 68, 127
2, 225185, Note_on_c, 6, 66, 127
2, 225185, Note_on_c, 6, 54, 127
2, 225373, Note_off_c, 6, 54, 127
2, 225373, Note_off_c, 6, 66, 127
2, 225377, Note_on_c, 5, 65, 127
2, 225377, Note_on_c, 8, 56, 127
2, 225565, Note_off_c, 8, 56, 127
2, 225565, Note_off_c, 5, 65, 127
2, 225565, Note_off_c, 11, 70, 127
2, 225569, Note_on_c, 6, 66, 127
2, 225569, Note_on_c, 10, 69, 127
2, 225569, Note_on_c, 10, 57, 127
2, 225757, Note_off_c, 10, 57, 127
2, 225760, Note_on_c, 8, 56, 127
2, 225948, Note_off_c, 8, 56, 127
2, 225952, Note_on_c, 10, 57, 127
2, 226140, Note_off_c, 10, 57, 127
2, 226143, Note_on_c, 12, 59, 127
2, 226331, Note_off_c, 12, 59, 127
2, 226332, Note_off_c, 10, 69, 127
2, 226353, Note_on_c, 1, 37, 127
2, 226353, Note_on_c, 8, 68, 127
2, 226353, Note_on_c, 1, 61, 127
2, 226542, Note_off_c, 1, 61, 127
2, 226546, Note_on_c, 0, 60, 127
2, 226735, Note_off_c, 0, 60, 127
2, 226738, Note_on_c, 1, 61, 127
2, 226927, Note_off_c, 1, 61, 127
2, 226932, Note_on_c, 3, 63, 127
2, 227101, Note_off_c, 6, 66, 127
2, 227121, Note_off_c, 3, 63, 127
2, 227122, Note_off_c, 8, 68, 127
2, 227126, Note_on_c, 4, 64, 127
2, 227318, Note_on_c, 3, 63, 127
2, 227506, Note_off_c, 4, 64, 127
2, 227507, Note_off_c, 3, 63, 127
2, 227511, Note_on_c, 4, 64, 127
2, 227704, Note_on_c, 6, 66, 127
2, 227891, Note_off_c, 4, 64, 127
2, 227893, Note_off_c, 6, 66, 127
2, 227894, Note_off_c, 1, 37, 127
2, 227898, Note_on_c, 0, 36, 127
2, 227898, Note_on_c, 3, 63, 127
2, 227898, Note_on_c, 8, 68, 127
2, 228087, Note_off_c, 8, 68, 127
2, 228090, Note_on_c, 6, 66, 127
2, 228279, Note_off_c, 6, 66, 127
2, 228284, Note_on_c, 8, 44, 127
2, 228284, Note_on_c, 8, 68, 127
2, 228473, Note_off_c, 8, 68, 127
2, 228478, Note_on_c, 10, 69, 127
2, 228667, Note_off_c, 10, 69, 127
2, 228667, Note_off_c, 8, 44, 127
2, 228667, Note_off_c, 3, 63, 127
2, 228667, Note_off_c, 0, 36, 127
2, 228669, Note_on_c, 4, 40, 127
2, 228669, Note_on_c, 1, 49, 127
2, 228669, Note_on_c, 8, 68, 127
2, 228669, Note_on_c, 1, 61, 127
2, 228858, Note_off_c, 8, 68, 127
2, 228862, Note_on_c, 6, 66, 127
2, 229051, Note_off_c, 6, 66, 127
2, 229052, Note_off_c, 1, 49, 127
2, 229056, Note_on_c, 1, 49, 127
2, 229056, Note_on_c, 4, 64, 127
2, 229245, Note_off_c, 4, 64, 127
2, 229250, Note_on_c, 8, 68, 127
2, 229438, Note_off_c, 1, 61, 127
2, 229438, Note_off_c, 4, 40, 127
2, 229439, Note_off_c, 8, 68, 127
2, 229439, Note_off_c, 1, 49, 127
2, 229443, Note_on_c, 1, 49, 127
2, 229443, Note_on_c, 3, 39, 127
2, 229443, Note_on_c, 3, 63, 127
2, 229443, Note_on_c, 6, 66, 127
2, 229632, Note_off_c, 6, 66, 127
2, 229635, Note_on_c, 4, 64, 127
2, 229824, Note_off_c, 4, 64, 127
2, 229826, Note_off_c, 1, 49, 127
2, 229829, Note_on_c, 0, 48, 127
2, 229829, Note_on_c, 6, 66, 127
2, 230018, Note_off_c, 6, 66, 127
2, 230018, Note_off_c, 0, 48, 127
2, 230021, Note_on_c, 11, 46, 127
2, 230021, Note_on_c, 8, 68, 127
2, 230210, Note_off_c, 8, 68, 127
2, 230210, Note_off_c, 11, 46, 127
2, 230215, Note_on_c, 0, 48, 127
2, 230215, Note_on_c, 6, 66, 127
2, 230404, Note_off_c, 6, 66, 127
2, 230407, Note_on_c, 4, 64, 127
2, 230596, Note_off_c, 4, 64, 127
2, 230597, Note_off_c, 3, 63, 127
2, 230601, Note_on_c, 3, 63, 127
2, 230800, Note_on_c, 6, 66, 127
2, 230980, Note_off_c, 3, 39, 127
2, 230983, Note_off_c, 0, 48, 127
2, 230995, Note_off_c, 6, 66, 127
2, 230998, Note_off_c, 3, 63, 127
2, 230998, Note_on_c, 1, 37, 127
2, 230998, Note_on_c, 1, 49, 127
2, 230998, Note_on_c, 4, 64, 127
2, 230998, Note_on_c, 1, 73, 127
2, 231187, Note_off_c, 4, 64, 127
2, 231197, Note_on_c, 3, 63, 127
2, 231381, Note_off_c, 1, 37, 127
2, 231386, Note_off_c, 3, 63, 127
2, 231390, Note_on_c, 4, 64, 127
2, 231390, Note_on_c, 1, 37, 127
2, 231579, Note_off_c, 1, 37, 127
2, 231579, Note_off_c, 4, 64, 127
2, 231582, Note_on_c, 6, 66, 127
2, 231582, Note_on_c, 3, 39, 127
2, 231767, Note_off_c, 1, 49, 127
2, 231771, Note_off_c, 3, 39, 127
2, 231771, Note_off_c, 6, 66, 127
2, 231776, Note_on_c, 4, 64, 127
2, 231776, Note_on_c, 4, 40, 127
2, 231965, Note_off_c, 4, 64, 127
2, 231968, Note_on_c, 3, 63, 127
2, 232157, Note_off_c, 3, 63, 127
2, 232159, Note_off_c, 4, 40, 127
2, 232162, Note_on_c, 1, 61, 127
2, 232162, Note_on_c, 6, 42, 127
2, 232351, Note_off_c, 1, 61, 127
2, 232356, Note_on_c, 4, 64, 127
2, 232535, Note_off_c, 1, 73, 127
2, 232545, Note_off_c, 4, 64, 127
2, 232545, Note_off_c, 6, 42, 127
2, 232549, Note_on_c, 0, 72, 127
2, 232549, Note_on_c, 3, 63, 127
2, 232549, Note_on_c, 8, 44, 127
2, 232738, Note_off_c, 8, 44, 127
2, 232741, Note_on_c, 6, 42, 127
2, 232930, Note_off_c, 6, 42, 127
2, 232934, Note_on_c, 8, 68, 127
2, 232934, Note_on_c, 8, 44, 127
2, 233123, Note_off_c, 8, 44, 127
2, 233128, Note_on_c, 10, 45, 127
2, 233317, Note_off_c, 10, 45, 127
2, 233317, Note_off_c, 8, 68, 127
2, 233318, Note_off_c, 3, 63, 127
2, 233318, Note_off_c, 0, 72, 127
2, 233322, Note_on_c, 1, 73, 127
2, 233322, Note_on_c, 4, 76, 127
2, 233322, Note_on_c, 8, 44, 127
2, 233511, Note_off_c, 8, 44, 127
2, 233513, Note_on_c, 6, 42, 127
2, 233702, Note_off_c, 6, 42, 127
2, 233705, Note_off_c, 1, 73, 127
2, 233707, Note_on_c, 1, 73, 127
2, 233707, Note_on_c, 4, 40, 127
2, 233896, Note_off_c, 4, 40, 127
2, 233901, Note_on_c, 8, 44, 127
2, 234090, Note_off_c, 8, 44, 127
2, 234090, Note_off_c, 1, 73, 127
2, 234091, Note_off_c, 4, 76, 127
2, 234093, Note_on_c, 3, 75, 127
2, 234093, Note_on_c, 1, 73, 127
2, 234093, Note_on_c, 6, 42, 127
2, 234282, Note_off_c, 6, 42, 127
2, 234285, Note_on_c, 4, 40, 127
2, 234474, Note_off_c, 4, 40, 127
2, 234476, Note_off_c, 1, 73, 127
2, 234479, Note_on_c, 0, 72, 127
2, 234479, Note_on_c, 6, 42, 127
2, 234668, Note_off_c, 6, 42, 127
2, 234668, Note_off_c, 0, 72, 127
2, 234673, Note_on_c, 11, 70, 127
2, 234673, Note_on_c, 8, 44, 127
2, 234862, Note_off_c, 8, 44, 127
2, 234862, Note_off_c, 11, 70, 127
2, 234866, Note_on_c, 0, 72, 127
2, 234866, Note_on_c, 6, 42, 127
2, 235055, Note_off_c, 6, 42, 127
2, 235055, Note_off_c, 0, 72, 127
2, 235059, Note_on_c, 1, 73, 127
2, 235059, Note_on_c, 4, 40, 127
2, 235247, Note_off_c, 3, 75, 127
2, 235248, Note_off_c, 4, 40, 127
2, 235248, Note_off_c, 1, 73, 127
2, 235252, Note_on_c, 3, 75, 127
2, 235252, Note_on_c, 3, 39, 127
2, 235441, Note_off_c, 3, 39, 127
2, 235444, Note_on_c, 0, 72, 127
2, 235444, Note_on_c, 6, 42, 127
2, 235633, Note_off_c, 6, 42, 127
2, 235633, Note_off_c, 0, 72, 127
2, 235638, Note_on_c, 8, 68, 127
2, 235638, Note_on_c, 4, 40, 127
2, 235827, Note_off_c, 8, 68, 127
2, 235831, Note_on_c, 6, 66, 127
2, 236020, Note_off_c, 6, 66, 127
2, 236021, Note_off_c, 4, 40, 127
2, 236025, Note_on_c, 8, 68, 127
2, 236025, Note_on_c, 4, 52, 127
2, 236214, Note_off_c, 8, 68, 127
2, 236217, Note_on_c, 10, 69, 127
2, 236406, Note_off_c, 10, 69, 127
2, 236406, Note_off_c, 3, 75, 127
2, 236408, Note_off_c, 4, 52, 127
2, 236411, Note_on_c, 8, 68, 127
2, 236411, Note_on_c, 1, 73, 127
2, 236411, Note_on_c, 10, 57, 127
2, 236600, Note_off_c, 8, 68, 127
2, 236605, Note_on_c, 6, 66, 127
2, 236794, Note_off_c, 6, 66, 127
2, 236794, Note_off_c, 10, 57, 127
2, 236796, Note_on_c, 4, 64, 127
2, 236796, Note_on_c, 10, 57, 127
2, 236985, Note_off_c, 4, 64, 127
2, 236989, Note_on_c, 8, 68, 127
2, 237178, Note_off_c, 8, 68, 127
2, 237179, Note_off_c, 10, 57, 127
2, 237180, Note_off_c, 1, 73, 127
2, 237183, Note_on_c, 6, 66, 127
2, 237183, Note_on_c, 1, 73, 127
2, 237183, Note_on_c, 10, 57, 127
2, 237372, Note_off_c, 6, 66, 127
2, 237377, Note_on_c, 4, 64, 127
2, 237566, Note_off_c, 4, 64, 127
2, 237566, Note_off_c, 10, 57, 127
2, 237569, Note_on_c, 6, 66, 127
2, 237569, Note_on_c, 8, 56, 127
2, 237758, Note_off_c, 8, 56, 127
2, 237758, Note_off_c, 6, 66, 127
2, 237763, Note_on_c, 8, 68, 127
2, 237763, Note_on_c, 6, 54, 127
2, 237952, Note_off_c, 6, 54, 127
2, 237952, Note_off_c, 8, 68, 127
2, 237952, Note_off_c, 1, 73, 127
2, 237956, Note_on_c, 6, 66, 127
2, 237956, Note_on_c, 0, 72, 127
2, 237956, Note_on_c, 8, 56, 127
2, 238145, Note_off_c, 6, 66, 127
2, 238148, Note_on_c, 4, 64, 127
2, 238337, Note_off_c, 4, 64, 127
2, 238339, Note_off_c, 8, 56, 127
2, 238341, Note_on_c, 3, 63, 127
2, 238341, Note_on_c, 8, 44, 127
2, 238530, Note_off_c, 3, 63, 127
2, 238535, Note_on_c, 6, 66, 127
2, 238724, Note_off_c, 6, 66, 127
2, 238724, Note_off_c, 8, 44, 127
2, 238725, Note_off_c, 0, 72, 127
2, 238729, Note_on_c, 4, 64, 127
2, 238729, Note_on_c, 1, 49, 127
2, 238918, Note_off_c, 4, 64, 127
2, 238921, Note_on_c, 8, 68, 127
2, 239110, Note_off_c, 8, 68, 127
2, 239114, Note_on_c, 1, 73, 127
2, 239114, Note_on_c, 10, 69, 127
2, 239114, Note_on_c, 12, 47, 127
2, 239303, Note_off_c, 10, 69, 127
2, 239303, Note_off_c, 1, 73, 127
2, 239308, Note_on_c, 3, 75, 127
2, 239308, Note_on_c, 12, 71, 127
2, 239497, Note_off_c, 12, 71, 127
2, 239497, Note_off_c, 3, 75, 127
2, 239497, Note_off_c, 12, 47, 127
2, 239500, Note_on_c, 4, 76, 127
2, 239500, Note_on_c, 1, 73, 127
2, 239500, Note_on_c, 10, 45, 127
2, 239689, Note_off_c, 1, 73, 127
2, 239694, Note_on_c, 3, 75, 127
2, 239880, Note_off_c, 4, 76, 127
2, 239883, Note_off_c, 3, 75, 127
2, 239886, Note_on_c, 0, 72, 127
2, 239886, Note_on_c, 6, 78, 127
2, 240075, Note_off_c, 0, 72, 127
2, 240080, Note_on_c, 1, 73, 127
2, 240265, Note_off_c, 6, 78, 127
2, 240266, Note_off_c, 1, 49, 127
2, 240268, Note_off_c, 1, 73, 127
2, 240268, Note_off_c, 10, 45, 127
2, 240272, Note_on_c, 3, 75, 127
2, 240272, Note_on_c, 8, 80, 127
2, 240272, Note_on_c, 8, 44, 127
2, 240272, Note_on_c, 0, 48, 127
2, 240480, Note_off_c, 8, 80, 127
2, 240482, Note_on_c, 6, 78, 127
2, 240652, Note_off_c, 3, 75, 127
2, 240655, Note_off_c, 8, 44, 127
2, 240671, Note_off_c, 6, 78, 127
2, 240676, Note_on_c, 8, 56, 127
2, 240676, Note_on_c, 8, 80, 127
2, 240865, Note_off_c, 8, 80, 127
2, 240868, Note_on_c, 10, 81, 127
2, 241041, Note_off_c, 0, 48, 127
2, 241057, Note_off_c, 10, 81, 127
2, 241059, Note_off_c, 8, 56, 127
2, 241061, Note_on_c, 4, 52, 127
2, 241061, Note_on_c, 1, 61, 127
2, 241061, Note_on_c, 8, 80, 127
2, 241250, Note_off_c, 8, 80, 127
2, 241254, Note_on_c, 6, 78, 127
2, 241443, Note_off_c, 6, 78, 127
2, 241444, Note_off_c, 1, 61, 127
2, 241448, Note_on_c, 1, 61, 127
2, 241448, Note_on_c, 4, 76, 127
2, 241637, Note_off_c, 4, 76, 127
2, 241641, Note_on_c, 8, 80, 127
2, 241830, Note_off_c, 8, 80, 127
2, 241830, Note_off_c, 4, 52, 127
2, 241831, Note_off_c, 1, 61, 127
2, 241834, Note_on_c, 1, 61, 127
2, 241834, Note_on_c, 3, 51, 127
2, 241834, Note_on_c, 6, 78, 127
2, 242023, Note_off_c, 6, 78, 127
2, 242028, Note_on_c, 4, 76, 127
2, 242217, Note_off_c, 4, 76, 127
2, 242217, Note_off_c, 1, 61, 127
2, 242219, Note_on_c, 0, 60, 127
2, 242219, Note_on_c, 6, 78, 127
2, 242408, Note_off_c, 6, 78, 127
2, 242408, Note_off_c, 0, 60, 127
2, 242413, Note_on_c, 11, 58, 127
2, 242413, Note_on_c, 8, 80, 127
2, 242602, Note_off_c, 8, 80, 127
2, 242602, Note_off_c, 11, 58, 127
2, 242607, Note_on_c, 0, 60, 127
2, 242607, Note_on_c, 6, 78, 127
2, 242796, Note_off_c, 6, 78, 127
2, 242800, Note_on_c, 4, 76, 127
2, 242989, Note_off_c, 4, 76, 127
2, 242992, Note_on_c, 3, 75, 127
2, 243181, Note_off_c, 3, 75, 127
2, 243186, Note_on_c, 6, 78, 127
2, 243371, Note_off_c, 3, 51, 127
2, 243375, Note_off_c, 6, 78, 127
2, 243376, Note_off_c, 0, 60, 127
2, 243380, Note_on_c, 1, 61, 127
2, 243380, Note_on_c, 1, 49, 127
2, 243380, Note_on_c, 4, 76, 127
2, 243569, Note_off_c, 4, 76, 127
2, 243572, Note_on_c, 3, 75, 127
2, 243761, Note_off_c, 3, 75, 127
2, 243763, Note_off_c, 1, 49, 127
2, 243764, Note_on_c, 4, 52, 127
2, 243764, Note_on_c, 4, 76, 127
2, 243953, Note_off_c, 4, 76, 127
2, 243958, Note_on_c, 6, 78, 127
2, 244147, Note_off_c, 6, 78, 127
2, 244147, Note_off_c, 4, 52, 127
2, 244149, Note_off_c, 1, 61, 127
2, 244152, Note_on_c, 1, 61, 127
2, 244152, Note_on_c, 10, 57, 127
2, 244152, Note_on_c, 4, 76, 127
2, 244341, Note_off_c, 4, 76, 127
2, 244345, Note_on_c, 2, 74, 127
2, 244534, Note_off_c, 2, 74, 127
2, 244535, Note_off_c, 10, 57, 127
2, 244535, Note_off_c, 1, 61, 127
2, 244537, Note_on_c, 1, 61, 127
2, 244537, Note_on_c, 10, 57, 127
2, 244537, Note_on_c, 1, 73, 127
2, 244726, Note_off_c, 1, 73, 127
2, 244731, Note_on_c, 4, 76, 127
2, 244920, Note_off_c, 4, 76, 127
2, 244920, Note_off_c, 10, 57, 127
2, 244920, Note_off_c, 1, 61, 127
2, 244923, Note_on_c, 12, 59, 127
2, 244923, Note_on_c, 10, 57, 127
2, 244923, Note_on_c, 2, 74, 127
2, 245112, Note_off_c, 2, 74, 127
2, 245117, Note_on_c, 1, 73, 127
2, 245306, Note_off_c, 1, 73, 127
2, 245306, Note_off_c, 10, 57, 127
2, 245310, Note_on_c, 8, 56, 127
2, 245310, Note_on_c, 6, 66, 127
2, 245310, Note_on_c, 2, 74, 127
2, 245499, Note_off_c, 2, 74, 127
2, 245499, Note_off_c, 8, 56, 127
2, 245503, Note_on_c, 6, 54, 127
2, 245503, Note_on_c, 4, 76, 127
2, 245690, Note_off_c, 6, 66, 127
2, 245692, Note_off_c, 4, 76, 127
2, 245692, Note_off_c, 6, 54, 127
2, 245696, Note_on_c, 8, 56, 127
2, 245696, Note_on_c, 2, 74, 127
2, 245696, Note_on_c, 12, 71, 127
2, 245885, Note_off_c, 2, 74, 127
2, 245890, Note_on_c, 1, 73, 127
2, 246076, Note_off_c, 12, 71, 127
2, 246077, Note_off_c, 12, 59, 127
2, 246079, Note_off_c, 1, 73, 127
2, 246083, Note_on_c, 12, 71, 127
2, 246083, Note_on_c, 6, 66, 127
2, 246272, Note_off_c, 12, 71, 127
2, 246275, Note_on_c, 2, 74, 127
2, 246463, Note_off_c, 6, 66, 127
2, 246464, Note_off_c, 2, 74, 127
2, 246468, Note_on_c, 1, 73, 127
2, 246468, Note_on_c, 5, 65, 127
2, 246468, Note_on_c, 12, 71, 127
2, 246657, Note_off_c, 12, 71, 127
2, 246657, Note_off_c, 1, 73, 127
2, 246662, Note_on_c, 12, 71, 127
2, 246851, Note_off_c, 12, 71, 127
2, 246856, Note_on_c, 1, 49, 127
2, 246856, Note_on_c, 1, 73, 127
2, 246856, Note_on_c, 10, 69, 127
2, 247045, Note_off_c, 10, 69, 127
2, 247045, Note_off_c, 1, 73, 127
2, 247048, Note_on_c, 2, 74, 127
2, 247048, Note_on_c, 8, 68, 127
2, 247233, Note_off_c, 8, 56, 127
2, 247237, Note_off_c, 8, 68, 127
2, 247237, Note_off_c, 2, 74, 127
2, 247237, Note_off_c, 5, 65, 127
2, 247239, Note_off_c, 1, 49, 127
2, 247242, Note_on_c, 6, 54, 127
2, 247242, Note_on_c, 10, 69, 127
2, 247242, Note_on_c, 1, 73, 127
2, 247242, Note_on_c, 6, 66, 127
2, 247431, Note_off_c, 1, 73, 127
2, 247435, Note_on_c, 12, 71, 127
2, 247622, Note_off_c, 10, 69, 127
2, 247624, Note_off_c, 12, 71, 127
2, 247625, Note_off_c, 6, 54, 127
2, 247627, Note_on_c, 6, 54, 127
2, 247627, Note_on_c, 10, 69, 127
2, 247820, Note_on_c, 1, 73, 127
2, 248007, Note_off_c, 10, 69, 127
2, 248009, Note_off_c, 1, 73, 127
2, 248010, Note_off_c, 6, 54, 127
2, 248011, Note_off_c, 6, 66, 127
2, 248014, Note_on_c, 6, 54, 127
2, 248014, Note_on_c, 12, 59, 127
2, 248014, Note_on_c, 8, 56, 127
2, 248014, Note_on_c, 12, 71, 127
2, 248014, Note_on_c, 8, 68, 127
2, 248203, Note_off_c, 12, 71, 127
2, 248207, Note_on_c, 10, 69, 127
2, 248396, Note_off_c, 10, 69, 127
2, 248397, Note_off_c, 6, 54, 127
2, 248400, Note_on_c, 5, 53, 127
2, 248400, Note_on_c, 12, 71, 127
2, 248589, Note_off_c, 12, 71, 127
2, 248589, Note_off_c, 5, 53, 127
2, 248593, Note_on_c, 3, 51, 127
2, 248593, Note_on_c, 1, 73, 127
2, 248782, Note_off_c, 1, 73, 127
2, 248782, Note_off_c, 3, 51, 127
2, 248783, Note_off_c, 12, 59, 127
2, 248787, Note_on_c, 5, 53, 127
2, 248787, Note_on_c, 1, 61, 127
2, 248787, Note_on_c, 12, 71, 127
2, 248976, Note_off_c, 12, 71, 127
2, 248979, Note_on_c, 10, 69, 127
2, 249168, Note_off_c, 10, 69, 127
2, 249168, Note_off_c, 8, 68, 127
2, 249172, Note_on_c, 8, 68, 127
2, 249365, Note_on_c, 12, 71, 127
2, 249551, Note_off_c, 8, 68, 127
2, 249551, Note_off_c, 8, 56, 127
2, 249553, Note_off_c, 12, 71, 127
2, 249555, Note_off_c, 5, 53, 127
2, 249558, Note_on_c, 10, 57, 127
2, 249558, Note_on_c, 6, 54, 127
2, 249558, Note_on_c, 10, 69, 127
2, 249622, Note_on_c, 8, 68, 127
2, 249666, Note_off_c, 10, 69, 127
2, 249683, Note_off_c, 8, 68, 127
2, 249686, Note_on_c, 10, 69, 127
2, 249751, Note_on_c, 8, 68, 127
2, 249940, Note_off_c, 8, 68, 127
2, 249943, Note_on_c, 6, 66, 127
2, 250132, Note_off_c, 6, 66, 127
2, 250137, Note_on_c, 5, 65, 127
2, 250326, Note_off_c, 5, 65, 127
2, 250327, Note_off_c, 6, 54, 127
2, 250327, Note_off_c, 10, 57, 127
2, 250328, Note_off_c, 10, 69, 127
2, 250329, Note_on_c, 6, 54, 127
2, 250329, Note_on_c, 6, 66, 127
2, 250513, Note_off_c, 1, 61, 127
2, 250523, Note_on_c, 1, 61, 127
2, 250712, Note_off_c, 1, 61, 127
2, 250716, Note_on_c, 12, 59, 127
2, 250905, Note_off_c, 12, 59, 127
2, 250909, Note_on_c, 10, 57, 127
2, 251098, Note_off_c, 10, 57, 127
2, 251098, Note_off_c, 6, 66, 127
2, 251102, Note_on_c, 8, 56, 127
2, 251102, Note_on_c, 8, 68, 127
2, 251102, Note_on_c, 1, 73, 127
2, 251292, Note_off_c, 6, 54, 127
2, 251296, Note_on_c, 6, 54, 127
2, 251485, Note_off_c, 6, 54, 127
2, 251489, Note_on_c, 4, 52, 127
2, 251678, Note_off_c, 4, 52, 127
2, 251681, Note_on_c, 3, 51, 127
2, 251870, Note_off_c, 3, 51, 127
2, 251874, Note_on_c, 4, 52, 127
2, 252064, Note_off_c, 8, 68, 127
2, 252068, Note_on_c, 8, 68, 127
2, 252257, Note_off_c, 8, 68, 127
2, 252257, Note_off_c, 4, 52, 127
2, 252262, Note_on_c, 1, 49, 127
2, 252262, Note_on_c, 6, 66, 127
2, 252451, Note_off_c, 6, 66, 127
2, 252454, Note_on_c, 4, 64, 127
2, 252639, Note_off_c, 1, 73, 127
2, 252639, Note_off_c, 8, 56, 127
2, 252643, Note_off_c, 4, 64, 127
2, 252645, Note_off_c, 1, 49, 127
2, 252648, Note_on_c, 8, 56, 127
2, 252648, Note_on_c, 3, 63, 127
2, 252648, Note_on_c, 0, 72, 127
2, 252841, Note_off_c, 3, 63, 127
2, 252844, Note_on_c, 10, 69, 127
2, 253037, Note_off_c, 10, 69, 127
2, 253041, Note_on_c, 8, 44, 127
2, 253041, Note_on_c, 8, 68, 127
2, 253234, Note_off_c, 8, 68, 127
2, 253239, Note_on_c, 6, 66, 127
2, 253431, Note_off_c, 8, 44, 127
2, 253432, Note_off_c, 6, 66, 127
2, 253433, Note_off_c, 0, 72, 127
2, 253433, Note_off_c, 8, 56, 127
2, 253437, Note_on_c, 8, 56, 127
2, 253437, Note_on_c, 1, 49, 127
2, 253437, Note_on_c, 4, 64, 127
2, 253437, Note_on_c, 4, 76, 127
2, 253630, Note_off_c, 4, 64, 127
2, 253633, Note_on_c, 8, 68, 127
2, 253826, Note_off_c, 8, 68, 127
2, 253827, Note_off_c, 1, 49, 127
2, 253831, Note_on_c, 1, 49, 127
2, 253831, Note_on_c, 1, 73, 127
2, 254024, Note_off_c, 1, 73, 127
2, 254028, Note_on_c, 12, 71, 127
2, 254221, Note_off_c, 12, 71, 127
2, 254221, Note_off_c, 1, 49, 127
2, 254222, Note_off_c, 4, 76, 127
2, 254222, Note_off_c, 8, 56, 127
2, 254224, Note_on_c, 6, 54, 127
2, 254224, Note_on_c, 1, 49, 127
2, 254224, Note_on_c, 10, 69, 127
2, 254224, Note_on_c, 3, 75, 127
2, 254417, Note_off_c, 10, 69, 127
2, 254422, Note_on_c, 8, 68, 127
2, 254614, Note_off_c, 1, 49, 127
2, 254615, Note_off_c, 8, 68, 127
2, 254618, Note_on_c, 0, 48, 127
2, 254618, Note_on_c, 10, 69, 127
2, 254811, Note_off_c, 10, 69, 127
2, 254811, Note_off_c, 0, 48, 127
2, 254815, Note_on_c, 11, 46, 127
2, 254815, Note_on_c, 6, 66, 127
2, 255008, Note_off_c, 6, 66, 127
2, 255008, Note_off_c, 11, 46, 127
2, 255009, Note_off_c, 6, 54, 127
2, 255013, Note_on_c, 0, 48, 127
2, 255013, Note_on_c, 3, 51, 127
2, 255013, Note_on_c, 8, 68, 127
2, 255206, Note_off_c, 0, 48, 127
2, 255210, Note_on_c, 1, 49, 127
2, 255401, Note_off_c, 3, 51, 127
2, 255403, Note_off_c, 1, 49, 127
2, 255408, Note_on_c, 3, 51, 127
2, 255603, Note_on_c, 0, 48, 127
2, 255796, Note_off_c, 0, 48, 127
2, 255796, Note_off_c, 3, 51, 127
2, 255801, Note_on_c, 4, 40, 127
2, 255801, Note_on_c, 4, 52, 127
2, 255994, Note_off_c, 4, 52, 127
2, 255999, Note_on_c, 3, 51, 127
2, 256192, Note_off_c, 3, 51, 127
2, 256193, Note_off_c, 8, 68, 127
2, 256194, Note_off_c, 3, 75, 127
2, 256195, Note_on_c, 4, 52, 127
2, 256195, Note_on_c, 1, 73, 127
2, 256388, Note_off_c, 4, 52, 127
2, 256393, Note_on_c, 6, 54, 127
2, 256393, Note_on_c, 0, 72, 127
2, 256583, Note_off_c, 1, 73, 127
2, 256586, Note_off_c, 0, 72, 127
2, 256586, Note_off_c, 6, 54, 127
2, 256586, Note_off_c, 4, 40, 127
2, 256591, Note_on_c, 4, 52, 127
2, 256591, Note_on_c, 8, 80, 127
2, 256591, Note_on_c, 1, 73, 127
2, 256784, Note_off_c, 4, 52, 127
2, 256788, Note_on_c, 3, 51, 127
2, 256981, Note_off_c, 3, 51, 127
2, 256981, Note_off_c, 8, 80, 127
2, 256985, Note_on_c, 1, 49, 127
2, 256985, Note_on_c, 10, 45, 127
2, 256985, Note_on_c, 8, 80, 127
2, 257178, Note_off_c, 1, 49, 127
2, 257182, Note_on_c, 4, 52, 127
2, 257373, Note_off_c, 10, 45, 127
2, 257375, Note_off_c, 4, 52, 127
2, 257375, Note_off_c, 8, 80, 127
2, 257379, Note_on_c, 3, 39, 127
2, 257379, Note_on_c, 3, 51, 127
2, 257379, Note_on_c, 8, 80, 127
2, 257572, Note_off_c, 3, 51, 127
2, 257576, Note_on_c, 1, 49, 127
2, 257770, Note_off_c, 1, 49, 127
2, 257771, Note_off_c, 8, 80, 127
2, 257771, Note_off_c, 1, 73, 127
2, 257775, Note_on_c, 3, 51, 127
2, 257775, Note_on_c, 11, 70, 127
2, 257775, Note_on_c, 6, 78, 127
2, 257968, Note_off_c, 6, 78, 127
2, 257968, Note_off_c, 3, 51, 127
2, 257971, Note_on_c, 4, 52, 127
2, 257971, Note_on_c, 4, 76, 127
2, 258163, Note_off_c, 11, 70, 127
2, 258164, Note_off_c, 4, 76, 127
2, 258164, Note_off_c, 4, 52, 127
2, 258165, Note_off_c, 3, 39, 127
2, 258168, Note_on_c, 3, 51, 127
2, 258168, Note_on_c, 6, 78, 127
2, 258168, Note_on_c, 3, 75, 127
2, 258361, Note_off_c, 3, 51, 127
2, 258366, Note_on_c, 1, 49, 127
2, 258558, Note_off_c, 3, 75, 127
2, 258559, Note_off_c, 1, 49, 127
2, 258562, Note_on_c, 0, 48, 127
2, 258562, Note_on_c, 8, 44, 127
2, 258562, Note_on_c, 3, 75, 127
2, 258755, Note_off_c, 0, 48, 127
2, 258760, Note_on_c, 3, 51, 127
2, 258950, Note_off_c, 8, 44, 127
2, 258952, Note_off_c, 3, 75, 127
2, 258953, Note_off_c, 3, 51, 127
2, 258953, Note_off_c, 6, 78, 127
2, 258956, Note_on_c, 1, 37, 127
2, 258956, Note_on_c, 1, 49, 127
2, 258956, Note_on_c, 4, 76, 127
2, 258956, Note_on_c, 3, 75, 127
2, 259348, Note_off_c, 3, 75, 127
2, 259348, Note_off_c, 1, 49, 127
2, 259348, Note_off_c, 1, 37, 127
2, 259370, Note_on_c, 1, 73, 127
2, 259370, Note_on_c, 4, 52, 127
2, 259563, Note_off_c, 1, 73, 127
2, 259567, Note_on_c, 12, 71, 127
2, 259760, Note_off_c, 12, 71, 127
2, 259760, Note_off_c, 4, 52, 127
2, 259764, Note_on_c, 1, 73, 127
2, 259764, Note_on_c, 10, 57, 127
2, 260156, Note_off_c, 10, 57, 127
2, 260160, Note_on_c, 10, 57, 127
2, 260528, Note_off_c, 4, 76, 127
2, 260551, Note_off_c, 1, 73, 127
2, 260552, Note_off_c, 10, 57, 127
2, 260556, Note_on_c, 12, 71, 127
2, 260556, Note_on_c, 3, 75, 127
2, 260556, Note_on_c, 10, 57, 127
2, 260948, Note_off_c, 10, 57, 127
2, 260951, Note_on_c, 12, 59, 127
2, 260951, Note_on_c, 7, 55, 127
2, 261144, Note_off_c, 7, 55, 127
2, 261149, Note_on_c, 6, 54, 127
2, 261339, Note_off_c, 12, 59, 127
2, 261342, Note_off_c, 6, 54, 127
2, 261342, Note_off_c, 3, 75, 127
2, 261342, Note_off_c, 12, 71, 127
2, 261346, Note_on_c, 12, 71, 127
2, 261346, Note_on_c, 7, 79, 127
2, 261346, Note_on_c, 4, 52, 127
2, 261346, Note_on_c, 4, 64, 127
2, 261738, Note_off_c, 4, 64, 127
2, 261742, Note_on_c, 4, 64, 127
2, 262133, Note_off_c, 4, 52, 127
2, 262133, Note_off_c, 7, 79, 127
2, 262133, Note_off_c, 12, 71, 127
2, 262134, Note_off_c, 4, 64, 127
2, 262137, Note_on_c, 6, 78, 127
2, 262137, Note_on_c, 11, 70, 127
2, 262137, Note_on_c, 4, 64, 127
2, 262529, Note_off_c, 4, 64, 127
2, 262533, Note_on_c, 2, 62, 127
2, 262533, Note_on_c, 6, 54, 127
2, 262726, Note_off_c, 2, 62, 127
2, 262728, Note_on_c, 1, 61, 127
2, 262921, Note_off_c, 1, 61, 127
2, 262921, Note_off_c, 6, 54, 127
2, 262923, Note_off_c, 11, 70, 127
2, 262923, Note_off_c, 6, 78, 127
2, 262926, Note_on_c, 6, 66, 127
2, 262926, Note_on_c, 2, 74, 127
2, 262926, Note_on_c, 12, 59, 127
2, 263318, Note_off_c, 12, 59, 127
2, 263322, Note_on_c, 12, 59, 127
2, 263713, Note_off_c, 2, 74, 127
2, 263713, Note_off_c, 6, 66, 127
2, 263714, Note_off_c, 12, 59, 127
2, 263718, Note_on_c, 1, 73, 127
2, 263718, Note_on_c, 5, 65, 127
2, 263718, Note_on_c, 12, 59, 127
2, 264110, Note_off_c, 12, 59, 127
2, 264113, Note_on_c, 1, 61, 127
2, 264113, Note_on_c, 10, 57, 127
2, 264306, Note_off_c, 10, 57, 127
2, 264310, Note_on_c, 8, 56, 127
2, 264503, Note_off_c, 8, 56, 127
2, 264503, Note_off_c, 1, 61, 127
2, 264504, Note_off_c, 5, 65, 127
2, 264508, Note_on_c, 6, 66, 127
2, 264508, Note_on_c, 10, 69, 127
2, 264508, Note_on_c, 10, 57, 127
2, 264508, Note_on_c, 1, 49, 127
2, 264701, Note_off_c, 10, 57, 127
2, 264705, Note_on_c, 8, 56, 127
2, 264898, Note_off_c, 8, 56, 127
2, 264898, Note_off_c, 6, 66, 127
2, 264902, Note_on_c, 6, 66, 127
2, 264902, Note_on_c, 6, 54, 127
2, 265095, Note_off_c, 6, 54, 127
2, 265100, Note_on_c, 4, 52, 127
2, 265289, Note_off_c, 1, 73, 127
2, 265294, Note_off_c, 4, 52, 127
2, 265294, Note_off_c, 6, 66, 127
2, 265294, Note_off_c, 1, 49, 127
2, 265294, Note_off_c, 10, 69, 127
2, 265298, Note_on_c, 8, 68, 127
2, 265298, Note_on_c, 6, 66, 127
2, 265298, Note_on_c, 3, 51, 127
2, 265298, Note_on_c, 0, 48, 127
2, 265706, Note_off_c, 6, 66, 127
2, 265706, Note_off_c, 8, 68, 127
2, 265710, Note_on_c, 8, 68, 127
2, 265710, Note_on_c, 4, 64, 127
2, 265914, Note_off_c, 4, 64, 127
2, 265916, Note_on_c, 3, 63, 127
2, 266115, Note_off_c, 8, 68, 127
2, 266118, Note_off_c, 3, 63, 127
2, 266118, Note_off_c, 0, 48, 127
2, 266118, Note_off_c, 3, 51, 127
2, 266122, Note_on_c, 4, 64, 127
2, 266122, Note_on_c, 1, 73, 127
2, 266122, Note_on_c, 4, 52, 127
2, 266530, Note_off_c, 1, 73, 127
2, 266530, Note_off_c, 4, 64, 127
2, 266534, Note_on_c, 1, 73, 127
2, 266534, Note_on_c, 4, 64, 127
2, 266534, Note_on_c, 8, 56, 127
2, 266942, Note_off_c, 8, 56, 127
2, 266942, Note_off_c, 4, 64, 127
2, 266942, Note_off_c, 1, 73, 127
2, 266942, Note_off_c, 4, 52, 127
2, 266944, Note_on_c, 1, 73, 127
2, 266944, Note_on_c, 6, 66, 127
2, 266944, Note_on_c, 3, 63, 127
2, 266944, Note_on_c, 3, 51, 127
2, 267352, Note_off_c, 3, 63, 127
2, 267352, Note_off_c, 6, 66, 127
2, 267352, Note_off_c, 1, 73, 127
2, 267356, Note_on_c, 6, 66, 127
2, 267356, Note_on_c, 0, 72, 127
2, 267356, Note_on_c, 3, 63, 127
2, 267560, Note_off_c, 0, 72, 127
2, 267564, Note_on_c, 11, 70, 127
2, 267761, Note_off_c, 6, 66, 127
2, 267764, Note_off_c, 3, 63, 127
2, 267766, Note_off_c, 11, 70, 127
2, 267768, Note_on_c, 6, 78, 127
2, 267768, Note_on_c, 0, 72, 127
2, 267768, Note_on_c, 6, 66, 127
2, 267768, Note_on_c, 3, 63, 127
2, 267972, Note_off_c, 0, 72, 127
2, 267975, Note_on_c, 1, 73, 127
2, 268173, Note_off_c, 6, 78, 127
2, 268176, Note_off_c, 3, 63, 127
2, 268177, Note_off_c, 1, 73, 127
2, 268180, Note_on_c, 6, 78, 127
2, 268180, Note_on_c, 3, 75, 127
2, 268180, Note_on_c, 1, 61, 127
2, 268384, Note_off_c, 1, 61, 127
2, 268384, Note_off_c, 6, 66, 127
2, 268386, Note_on_c, 8, 68, 127
2, 268386, Note_on_c, 0, 60, 127
2, 268584, Note_off_c, 3, 51, 127
2, 268586, Note_off_c, 3, 75, 127
2, 268586, Note_off_c, 6, 78, 127
2, 268590, Note_off_c, 0, 60, 127
2, 268590, Note_off_c, 8, 68, 127
2, 268592, Note_on_c, 6, 78, 127
2, 268592, Note_on_c, 3, 75, 127
2, 268592, Note_on_c, 10, 69, 127
2, 268592, Note_on_c, 1, 61, 127
2, 268592, Note_on_c, 1, 49, 127
2, 269013, Note_off_c, 1, 49, 127
2, 269013, Note_off_c, 10, 69, 127
2, 269013, Note_off_c, 3, 75, 127
2, 269013, Note_off_c, 6, 78, 127
2, 269016, Note_on_c, 1, 73, 127
2, 269016, Note_on_c, 8, 68, 127
2, 269016, Note_on_c, 4, 76, 127
2, 269016, Note_on_c, 4, 52, 127
2, 269225, Note_off_c, 4, 76, 127
2, 269225, Note_off_c, 8, 68, 127
2, 269225, Note_off_c, 1, 73, 127
2, 269229, Note_on_c, 3, 75, 127
2, 269229, Note_on_c, 0, 72, 127
2, 269229, Note_on_c, 6, 66, 127
2, 269435, Note_off_c, 1, 61, 127
2, 269437, Note_off_c, 4, 52, 127
2, 269438, Note_off_c, 6, 66, 127
2, 269438, Note_off_c, 0, 72, 127
2, 269438, Note_off_c, 3, 75, 127
2, 269441, Note_on_c, 1, 73, 127
2, 269441, Note_on_c, 4, 76, 127
2, 269441, Note_on_c, 8, 68, 127
2, 269441, Note_on_c, 10, 57, 127
2, 269441, Note_on_c, 1, 61, 127
2, 269862, Note_off_c, 1, 61, 127
2, 269862, Note_off_c, 10, 57, 127
2, 269862, Note_off_c, 8, 68, 127
2, 269862, Note_off_c, 4, 76, 127
2, 269863, Note_on_c, 3, 75, 127
2, 269863, Note_on_c, 6, 66, 127
2, 269863, Note_on_c, 10, 57, 127
2, 269863, Note_on_c, 1, 61, 127
2, 270072, Note_off_c, 6, 66, 127
2, 270072, Note_off_c, 3, 75, 127
2, 270074, Note_off_c, 1, 73, 127
2, 270076, Note_on_c, 1, 73, 127
2, 270076, Note_on_c, 4, 64, 127
2, 270284, Note_off_c, 1, 61, 127
2, 270284, Note_off_c, 10, 57, 127
2, 270285, Note_off_c, 4, 64, 127
2, 270285, Note_off_c, 1, 73, 127
2, 270288, Note_on_c, 6, 66, 127
2, 270288, Note_on_c, 3, 75, 127
2, 270288, Note_on_c, 3, 63, 127
2, 270288, Note_on_c, 10, 57, 127
2, 270288, Note_on_c, 0, 60, 127
2, 270709, Note_off_c, 10, 57, 127
2, 270709, Note_off_c, 3, 75, 127
2, 270713, Note_on_c, 0, 72, 127
2, 270713, Note_on_c, 8, 56, 127
2, 270922, Note_off_c, 8, 56, 127
2, 270923, Note_on_c, 6, 54, 127
2, 271131, Note_off_c, 0, 60, 127
2, 271131, Note_off_c, 3, 63, 127
2, 271131, Note_off_c, 6, 66, 127
2, 271132, Note_off_c, 6, 54, 127
2, 271134, Note_off_c, 0, 72, 127
2, 271135, Note_on_c, 4, 64, 127
2, 271135, Note_on_c, 1, 73, 127
2, 271135, Note_on_c, 8, 68, 127
2, 271135, Note_on_c, 4, 52, 127
2, 271344, Note_off_c, 4, 52, 127
2, 271348, Note_on_c, 3, 51, 127
2, 271557, Note_off_c, 3, 51, 127
2, 271560, Note_on_c, 1, 49, 127
2, 271769, Note_off_c, 1, 49, 127
2, 271771, Note_on_c, 12, 47, 127
2, 271980, Note_off_c, 12, 47, 127
2, 271983, Note_on_c, 11, 46, 127
2, 272405, Note_on_c, 1, 49, 127
2, 272825, Note_off_c, 11, 46, 127
2, 272825, Note_off_c, 8, 68, 127
2, 272825, Note_off_c, 1, 73, 127
2, 272825, Note_off_c, 4, 64, 127
2, 272826, Note_off_c, 1, 49, 127
2, 272829, Note_on_c, 1, 73, 127
2, 272829, Note_on_c, 6, 66, 127
2, 272829, Note_on_c, 3, 63, 127
2, 272829, Note_on_c, 6, 54, 127
2, 272829, Note_on_c, 10, 45, 127
2, 273250, Note_off_c, 6, 54, 127
2, 273250, Note_off_c, 3, 63, 127
2, 273254, Note_on_c, 1, 61, 127
2, 273254, Note_on_c, 6, 54, 127
2, 273672, Note_off_c, 6, 66, 127
2, 273672, Note_off_c, 1, 73, 127
2, 273675, Note_off_c, 6, 54, 127
2, 273675, Note_off_c, 1, 61, 127
2, 273677, Note_on_c, 6, 66, 127
2, 273677, Note_on_c, 3, 63, 127
2, 273677, Note_on_c, 0, 72, 127
2, 273677, Note_on_c, 6, 54, 127
2, 274096, Note_off_c, 10, 45, 127
2, 274098, Note_off_c, 6, 54, 127
2, 274098, Note_off_c, 3, 63, 127
2, 274101, Note_on_c, 5, 65, 127
2, 274101, Note_on_c, 8, 44, 127
2, 274101, Note_on_c, 5, 53, 127
2, 274310, Note_off_c, 5, 53, 127
2, 274310, Note_off_c, 8, 44, 127
2, 274310, Note_off_c, 5, 65, 127
2, 274310, Note_off_c, 6, 66, 127
2, 274312, Note_on_c, 6, 66, 127
2, 274312, Note_on_c, 3, 51, 127
2, 274312, Note_on_c, 6, 42, 127
2, 274520, Note_off_c, 0, 72, 127
2, 274521, Note_off_c, 6, 42, 127
2, 274521, Note_off_c, 3, 51, 127
2, 274521, Note_off_c, 6, 66, 127
2, 274524, Note_on_c, 12, 71, 127
2, 274524, Note_on_c, 8, 68, 127
2, 274524, Note_on_c, 1, 49, 127
2, 274524, Note_on_c, 5, 41, 127
2, 274945, Note_off_c, 8, 68, 127
2, 274949, Note_on_c, 8, 68, 127
2, 275367, Note_off_c, 5, 41, 127
2, 275367, Note_off_c, 12, 71, 127
2, 275370, Note_off_c, 8, 68, 127
2, 275372, Note_on_c, 11, 70, 127
2, 275372, Note_on_c, 8, 68, 127
2, 275372, Note_on_c, 6, 42, 127
2, 275793, Note_off_c, 8, 68, 127
2, 275796, Note_on_c, 6, 66, 127
2, 275796, Note_on_c, 1, 61, 127
2, 276005, Note_off_c, 6, 66, 127
2, 276008, Note_on_c, 4, 64, 127
2, 276211, Note_off_c, 1, 49, 127
2, 276214, Note_off_c, 1, 61, 127
2, 276215, Note_off_c, 11, 70, 127
2, 276217, Note_off_c, 4, 64, 127
2, 276220, Note_on_c, 3, 63, 127
2, 276220, Note_on_c, 6, 66, 127
2, 276220, Note_on_c, 10, 69, 127
2, 276220, Note_on_c, 3, 51, 127
2, 276641, Note_off_c, 6, 66, 127
2, 276641, Note_off_c, 3, 63, 127
2, 276644, Note_on_c, 6, 66, 127
2, 276644, Note_on_c, 1, 61, 127
2, 277057, Note_off_c, 6, 42, 127
2, 277062, Note_off_c, 10, 69, 127
2, 277064, Note_off_c, 1, 61, 127
2, 277064, Note_off_c, 6, 66, 127
2, 277066, Note_on_c, 8, 68, 127
2, 277066, Note_on_c, 0, 60, 127
2, 277066, Note_on_c, 6, 66, 127
2, 277066, Note_on_c, 8, 44, 127
2, 277486, Note_off_c, 3, 51, 127
2, 277487, Note_off_c, 6, 66, 127
2, 277490, Note_on_c, 4, 64, 127
2, 277490, Note_on_c, 3, 51, 127
2, 277699, Note_off_c, 4, 64, 127
2, 277701, Note_on_c, 3, 63, 127
2, 277909, Note_off_c, 0, 60, 127
2, 277909, Note_off_c, 8, 68, 127
2, 277910, Note_off_c, 3, 63, 127
2, 277911, Note_off_c, 3, 51, 127
2, 277914, Note_on_c, 4, 64, 127
2, 277914, Note_on_c, 8, 68, 127
2, 277914, Note_on_c, 1, 61, 127
2, 277914, Note_on_c, 8, 56, 127
2, 278335, Note_off_c, 8, 56, 127
2, 278337, Note_on_c, 8, 56, 127
2, 278751, Note_off_c, 8, 44, 127
2, 278756, Note_off_c, 1, 61, 127
2, 278756, Note_off_c, 8, 68, 127
2, 278756, Note_off_c, 4, 64, 127
2, 278757, Note_off_c, 8, 56, 127
2, 278760, Note_on_c, 4, 64, 127
2, 278760, Note_on_c, 11, 70, 127
2, 278760, Note_on_c, 1, 61, 127
2, 278760, Note_on_c, 8, 44, 127
2, 278760, Note_on_c, 8, 56, 127
2, 279181, Note_off_c, 8, 56, 127
2, 279181, Note_off_c, 4, 64, 127
2, 279184, Note_on_c, 6, 66, 127
2, 279184, Note_on_c, 6, 54, 127
2, 279393, Note_off_c, 6, 54, 127
2, 279393, Note_off_c, 6, 66, 127
2, 279395, Note_on_c, 8, 68, 127
2, 279395, Note_on_c, 4, 52, 127
2, 279603, Note_off_c, 1, 61, 127
2, 279603, Note_off_c, 11, 70, 127
2, 279604, Note_off_c, 4, 52, 127
2, 279604, Note_off_c, 8, 68, 127
2, 279607, Note_on_c, 10, 69, 127
2, 279607, Note_on_c, 0, 72, 127
2, 279607, Note_on_c, 3, 63, 127
2, 279607, Note_on_c, 6, 54, 127
2, 280028, Note_off_c, 6, 54, 127
2, 280028, Note_off_c, 10, 69, 127
2, 280031, Note_on_c, 8, 68, 127
2, 280031, Note_on_c, 6, 54, 127
2, 280445, Note_off_c, 8, 44, 127
2, 280449, Note_off_c, 3, 63, 127
2, 280449, Note_off_c, 0, 72, 127
2, 280451, Note_off_c, 6, 54, 127
2, 280451, Note_off_c, 8, 68, 127
2, 280454, Note_on_c, 1, 73, 127
2, 280454, Note_on_c, 1, 61, 127
2, 280454, Note_on_c, 8, 68, 127
2, 280454, Note_on_c, 6, 54, 127
2, 280454, Note_on_c, 8, 44, 127
2, 280875, Note_off_c, 6, 54, 127
2, 280875, Note_off_c, 8, 68, 127
2, 280875, Note_off_c, 1, 61, 127
2, 280878, Note_on_c, 1, 61, 127
2, 280878, Note_on_c, 4, 64, 127
2, 280878, Note_on_c, 4, 52, 127
2, 281087, Note_off_c, 4, 52, 127
2, 281089, Note_on_c, 3, 51, 127
2, 281298, Note_off_c, 3, 51, 127
2, 281299, Note_off_c, 4, 64, 127
2, 281299, Note_off_c, 1, 61, 127
2, 281300, Note_on_c, 6, 66, 127
2, 281300, Note_on_c, 1, 61, 127
2, 281300, Note_on_c, 10, 69, 127
2, 281300, Note_on_c, 4, 52, 127
2, 281721, Note_off_c, 4, 52, 127
2, 281721, Note_off_c, 10, 69, 127
2, 281721, Note_off_c, 1, 61, 127
2, 281721, Note_off_c, 6, 66, 127
2, 281726, Note_on_c, 6, 66, 127
2, 281726, Note_on_c, 10, 69, 127
2, 281726, Note_on_c, 1, 61, 127
2, 281726, Note_on_c, 3, 51, 127
2, 281935, Note_off_c, 3, 51, 127
2, 281937, Note_on_c, 1, 49, 127
2, 282141, Note_off_c, 1, 73, 127
2, 282146, Note_off_c, 1, 49, 127
2, 282147, Note_off_c, 1, 61, 127
2, 282147, Note_off_c, 10, 69, 127
2, 282147, Note_off_c, 6, 66, 127
2, 282149, Note_on_c, 0, 72, 127
2, 282149, Note_on_c, 6, 66, 127
2, 282149, Note_on_c, 10, 69, 127
2, 282149, Note_on_c, 3, 51, 127
2, 282570, Note_off_c, 10, 69, 127
2, 282570, Note_off_c, 6, 66, 127
2, 282571, Note_off_c, 8, 44, 127
2, 282572, Note_on_c, 4, 64, 127
2, 282572, Note_on_c, 8, 68, 127
2, 282572, Note_on_c, 8, 44, 127
2, 282781, Note_off_c, 8, 68, 127
2, 282781, Note_off_c, 4, 64, 127
2, 282783, Note_on_c, 6, 66, 127
2, 282783, Note_on_c, 3, 63, 127
2, 282992, Note_off_c, 3, 63, 127
2, 282992, Note_off_c, 6, 66, 127
2, 282992, Note_off_c, 3, 51, 127
2, 282992, Note_off_c, 0, 72, 127
2, 282997, Note_on_c, 4, 76, 127
2, 282997, Note_on_c, 4, 64, 127
2, 282997, Note_on_c, 8, 68, 127
2, 282997, Note_on_c, 1, 49, 127
2, 283418, Note_off_c, 1, 49, 127
2, 283418, Note_off_c, 8, 68, 127
2, 283418, Note_off_c, 4, 64, 127
2, 283421, Note_on_c, 11, 70, 127
2, 283421, Note_on_c, 6, 66, 127
2, 283421, Note_on_c, 1, 49, 127
2, 283630, Note_off_c, 6, 66, 127
2, 283630, Note_off_c, 11, 70, 127
2, 283631, Note_on_c, 8, 68, 127
2, 283631, Note_on_c, 0, 72, 127
2, 283839, Note_off_c, 8, 44, 127
2, 283840, Note_off_c, 0, 72, 127
2, 283840, Note_off_c, 8, 68, 127
2, 283840, Note_off_c, 4, 76, 127
2, 283842, Note_off_c, 1, 49, 127
2, 283843, Note_on_c, 1, 73, 127
2, 283843, Note_on_c, 4, 76, 127
2, 283843, Note_on_c, 11, 70, 127
2, 283843, Note_on_c, 7, 43, 127
2, 283843, Note_on_c, 1, 49, 127
2, 284278, Note_off_c, 1, 49, 127
2, 284283, Note_on_c, 12, 47, 127
2, 284500, Note_off_c, 12, 47, 127
2, 284503, Note_on_c, 11, 46, 127
2, 284718, Note_off_c, 11, 70, 127
2, 284718, Note_off_c, 4, 76, 127
2, 284718, Note_off_c, 1, 73, 127
2, 284720, Note_off_c, 11, 46, 127
2, 284722, Note_on_c, 11, 70, 127
2, 284722, Note_on_c, 3, 75, 127
2, 284722, Note_on_c, 3, 63, 127
2, 284722, Note_on_c, 3, 51, 127
2, 285172, Note_off_c, 3, 75, 127
2, 285172, Note_on_c, 1, 73, 127
2, 285591, Note_off_c, 7, 43, 127
2, 285595, Note_off_c, 1, 73, 127
2, 285596, Note_off_c, 3, 63, 127
2, 285596, Note_off_c, 11, 70, 127
2, 285600, Note_on_c, 0, 72, 127
2, 285600, Note_on_c, 3, 63, 127
2, 285600, Note_on_c, 8, 68, 127
2, 285600, Note_on_c, 8, 44, 127
2, 285817, Note_off_c, 3, 51, 127
2, 285819, Note_on_c, 4, 52, 127
2, 286036, Note_off_c, 4, 52, 127
2, 286039, Note_on_c, 6, 54, 127
2, 286475, Note_off_c, 8, 68, 127
2, 286475, Note_off_c, 3, 63, 127
2, 286475, Note_off_c, 0, 72, 127
2, 286478, Note_on_c, 1, 73, 127
2, 286478, Note_on_c, 4, 64, 127
2, 286478, Note_on_c, 8, 68, 127
2, 286694, Note_off_c, 6, 54, 127
2, 286698, Note_on_c, 4, 52, 127
2, 286915, Note_off_c, 4, 52, 127
2, 286917, Note_on_c, 3, 51, 127
2, 287134, Note_off_c, 3, 51, 127
2, 287137, Note_on_c, 1, 49, 127
2, 287349, Note_off_c, 8, 44, 127
2, 287353, Note_off_c, 1, 49, 127
2, 287353, Note_off_c, 8, 68, 127
2, 287353, Note_off_c, 4, 64, 127
2, 287353, Note_off_c, 1, 73, 127
2, 287356, Note_on_c, 8, 68, 127
2, 287356, Note_on_c, 1, 73, 127
2, 287356, Note_on_c, 3, 63, 127
2, 287356, Note_on_c, 8, 56, 127
2, 287356, Note_on_c, 8, 44, 127
2, 288230, Note_off_c, 1, 73, 127
2, 288230, Note_off_c, 8, 68, 127
2, 288233, Note_on_c, 0, 72, 127
2, 288666, Note_off_c, 3, 63, 127
2, 288672, Note_on_c, 4, 64, 127
2, 288889, Note_off_c, 4, 64, 127
2, 288891, Note_on_c, 6, 66, 127
2, 289108, Note_off_c, 6, 66, 127
2, 289108, Note_off_c, 0, 72, 127
2, 289109, Note_off_c, 8, 44, 127
2, 289109, Note_off_c, 8, 56, 127
2, 289129, Note_on_c, 1, 49, 127
2, 289129, Note_on_c, 10, 57, 127
2, 289129, Note_on_c, 5, 65, 127
2, 289129, Note_on_c, 8, 68, 127
2, 289129, Note_on_c, 1, 73, 127
2, 289582, Note_off_c, 5, 65, 127
2, 289585, Note_on_c, 1, 61, 127
2, 290037, Note_off_c, 8, 68, 127
2, 290042, Note_on_c, 6, 66, 127
2, 290493, Note_off_c, 10, 57, 127
2, 290497, Note_on_c, 8, 56, 127
2, 290722, Note_off_c, 8, 56, 127
2, 290724, Note_on_c, 10, 57, 127
2, 290943, Note_off_c, 1, 73, 127
2, 290943, Note_off_c, 1, 49, 127
2, 290949, Note_off_c, 10, 57, 127
2, 290950, Note_off_c, 6, 66, 127
2, 290954, Note_on_c, 1, 49, 127
2, 290954, Note_on_c, 12, 59, 127
2, 290954, Note_on_c, 5, 65, 127
2, 290954, Note_on_c, 1, 73, 127
2, 291417, Note_off_c, 1, 61, 127
2, 291426, Note_off_c, 5, 65, 127
2, 291426, Note_off_c, 12, 59, 127
2, 291427, Note_on_c, 10, 57, 127
2, 291427, Note_on_c, 1, 61, 127
2, 291898, Note_off_c, 1, 61, 127
2, 291898, Note_off_c, 10, 57, 127
2, 291901, Note_on_c, 8, 56, 127
2, 291901, Note_on_c, 6, 66, 127
2, 291901, Note_on_c, 10, 69, 127
2, 292372, Note_off_c, 10, 69, 127
2, 292372, Note_off_c, 6, 66, 127
2, 292372, Note_off_c, 8, 56, 127
2, 292374, Note_on_c, 6, 54, 127
2, 292374, Note_on_c, 6, 66, 127
2, 292374, Note_on_c, 10, 69, 127
2, 292841, Note_off_c, 1, 73, 127
2, 292841, Note_off_c, 1, 49, 127
2, 292846, Note_off_c, 10, 69, 127
2, 292846, Note_off_c, 6, 66, 127
2, 292846, Note_off_c, 6, 54, 127
2, 292850, Note_on_c, 1, 49, 127
2, 292850, Note_on_c, 1, 61, 127
2, 292850, Note_on_c, 8, 68, 127
2, 292850, Note_on_c, 6, 66, 127
2, 292850, Note_on_c, 1, 73, 127
2, 293350, Note_off_c, 1, 61, 127
2, 293354, Note_on_c, 12, 59, 127
2, 293602, Note_off_c, 12, 59, 127
2, 293606, Note_on_c, 10, 57, 127
2, 293854, Note_off_c, 10, 57, 127
2, 293854, Note_off_c, 6, 66, 127
2, 293858, Note_on_c, 8, 56, 127
2, 293858, Note_on_c, 5, 65, 127
2, 294446, Note_off_c, 8, 56, 127
2, 294449, Note_on_c, 6, 54, 127
2, 294743, Note_off_c, 5, 65, 127
2, 294746, Note_on_c, 3, 63, 127
2, 295032, Note_off_c, 1, 73, 127
2, 295032, Note_off_c, 8, 68, 127
2, 295032, Note_off_c, 1, 49, 127
2, 295038, Note_off_c, 3, 63, 127
2, 295038, Note_off_c, 6, 54, 127
2, 295065, Note_on_c, 1, 49, 127
2, 295066, Note_on_c, 8, 56, 127
2, 295067, Note_on_c, 5, 65, 127
2, 295068, Note_on_c, 8, 68, 127
2, 295069, Note_on_c, 1, 73, 127
2, 299616, Note_off_c, 1, 73, 127
2, 299616, Note_off_c, 8, 68, 127
2, 299616, Note_off_c, 5, 65, 127
2, 299616, Note_off_c, 8, 56, 127
2, 299616, Note_off_c, 1, 49, 127
2, 304128, End_track
3, 0, Start_track
3, 0, Title_t, "MIDI"
3, 1536, End_track
0, 0, End_of_file
