0, 0, Header, 1, 4, 240
1, 0, Start_track
1, 0, Time_signature, 1, 3, 12, 8
1, 0, Tempo, 555556
1, 120, Time_signature, 3, 3, 36, 8
1, 120, Tempo, 526316
1, 28560, Time_signature, 2, 3, 12, 8
1, 28560, End_track
2, 0, Start_track
2, 0, Title_t, "English Suite 1, 5. Passepeid 1"
2, 0, Program_c, 0, 0
2, 0, Note_on_c, 0, 71, 107
2, 96, Note_off_c, 0, 71, 64
2, 120, Note_on_c, 0, 76, 107
2, 168, Note_off_c, 0, 76, 64
2, 180, Note_on_c, 0, 78, 107
2, 228, Note_off_c, 0, 78, 64
2, 240, Note_on_c, 0, 79, 107
2, 336, Note_off_c, 0, 79, 64
2, 360, Note_on_c, 0, 78, 107
2, 456, Note_off_c, 0, 78, 64
2, 480, Note_on_c, 0, 79, 107
2, 576, Note_off_c, 0, 79, 64
2, 600, Note_on_c, 0, 76, 107
2, 648, Note_off_c, 0, 76, 64
2, 660, Note_on_c, 0, 75, 107
2, 708, Note_off_c, 0, 75, 64
2, 720, Note_on_c, 0, 76, 107
2, 768, Note_off_c, 0, 76, 64
2, 780, Note_on_c, 0, 78, 107
2, 828, Note_off_c, 0, 78, 64
2, 840, Note_on_c, 0, 79, 107
2, 888, Note_off_c, 0, 79, 64
2, 900, Note_on_c, 0, 81, 107
2, 948, Note_off_c, 0, 81, 64
2, 960, Note_on_c, 0, 83, 107
2, 1008, Note_off_c, 0, 83, 64
2, 1020, Note_on_c, 0, 84, 107
2, 1068, Note_off_c, 0, 84, 64
2, 1080, Note_on_c, 0, 83, 107
2, 1128, Note_off_c, 0, 83, 64
2, 1140, Note_on_c, 0, 81, 107
2, 1188, Note_off_c, 0, 81, 64
2, 1200, Note_on_c, 0, 83, 107
2, 1248, Note_off_c, 0, 83, 64
2, 1260, Note_on_c, 0, 76, 107
2, 1308, Note_off_c, 0, 76, 64
2, 1320, Note_on_c, 0, 78, 107
2, 1368, Note_off_c, 0, 78, 64
2, 1380, Note_on_c, 0, 79, 107
2, 1428, Note_off_c, 0, 79, 64
2, 1440, Note_on_c, 0, 81, 107
2, 1488, Note_off_c, 0, 81, 64
2, 1500, Note_on_c, 0, 83, 107
2, 1548, Note_off_c, 0, 83, 64
2, 1560, Note_on_c, 0, 84, 107
2, 1656, Note_off_c, 0, 84, 64
2, 1680, Note_on_c, 0, 83, 107
2, 1728, Note_off_c, 0, 83, 64
2, 1740, Note_on_c, 0, 81, 107
2, 1788, Note_off_c, 0, 81, 64
2, 1800, Note_on_c, 0, 79, 107
2, 1848, Note_off_c, 0, 79, 64
2, 1860, Note_on_c, 0, 78, 107
2, 1908, Note_off_c, 0, 78, 64
2, 1920, Note_on_c, 0, 83, 107
2, 2016, Note_off_c, 0, 83, 64
2, 2040, Note_on_c, 0, 81, 107
2, 2088, Note_off_c, 0, 81, 64
2, 2100, Note_on_c, 0, 79, 107
2, 2148, Note_off_c, 0, 79, 64
2, 2160, Note_on_c, 0, 78, 107
2, 2208, Note_off_c, 0, 78, 64
2, 2220, Note_on_c, 0, 76, 107
2, 2268, Note_off_c, 0, 76, 64
2, 2280, Note_on_c, 0, 81, 107
2, 2328, Note_off_c, 0, 81, 64
2, 2340, Note_on_c, 0, 79, 107
2, 2388, Note_off_c, 0, 79, 64
2, 2400, Note_on_c, 0, 78, 107
2, 2448, Note_off_c, 0, 78, 64
2, 2460, Note_on_c, 0, 79, 107
2, 2508, Note_off_c, 0, 79, 64
2, 2520, Note_on_c, 0, 81, 107
2, 2568, Note_off_c, 0, 81, 64
2, 2580, Note_on_c, 0, 78, 107
2, 2628, Note_off_c, 0, 78, 64
2, 2640, Note_on_c, 0, 79, 107
2, 2688, Note_off_c, 0, 79, 64
2, 2700, Note_on_c, 0, 71, 107
2, 2748, Note_off_c, 0, 71, 64
2, 2760, Note_on_c, 0, 73, 107
2, 2808, Note_off_c, 0, 73, 64
2, 2820, Note_on_c, 0, 75, 107
2, 2868, Note_off_c, 0, 75, 64
2, 2880, Note_on_c, 0, 76, 107
2, 2928, Note_off_c, 0, 76, 64
2, 2940, Note_on_c, 0, 75, 107
2, 2988, Note_off_c, 0, 75, 64
2, 3000, Note_on_c, 0, 76, 107
2, 3048, Note_off_c, 0, 76, 64
2, 3060, Note_on_c, 0, 78, 107
2, 3108, Note_off_c, 0, 78, 64
2, 3120, Note_on_c, 0, 79, 107
2, 3168, Note_off_c, 0, 79, 64
2, 3180, Note_on_c, 0, 81, 107
2, 3228, Note_off_c, 0, 81, 64
2, 3240, Note_on_c, 0, 79, 107
2, 3288, Note_off_c, 0, 79, 64
2, 3300, Note_on_c, 0, 78, 107
2, 3348, Note_off_c, 0, 78, 64
2, 3360, Note_on_c, 0, 79, 107
2, 3408, Note_off_c, 0, 79, 64
2, 3420, Note_on_c, 0, 78, 107
2, 3468, Note_off_c, 0, 78, 64
2, 3480, Note_on_c, 0, 76, 107
2, 3528, Note_off_c, 0, 76, 64
2, 3540, Note_on_c, 0, 75, 107
2, 3588, Note_off_c, 0, 75, 64
2, 3600, Note_on_c, 0, 76, 107
2, 3648, Note_off_c, 0, 76, 64
2, 3660, Note_on_c, 0, 78, 107
2, 3708, Note_off_c, 0, 78, 64
2, 3720, Note_on_c, 0, 79, 107
2, 3768, Note_off_c, 0, 79, 64
2, 3780, Note_on_c, 0, 81, 107
2, 3828, Note_off_c, 0, 81, 64
2, 3840, Note_on_c, 0, 83, 107
2, 3888, Note_off_c, 0, 83, 64
2, 3900, Note_on_c, 0, 84, 107
2, 3948, Note_off_c, 0, 84, 64
2, 3960, Note_on_c, 0, 83, 107
2, 4008, Note_off_c, 0, 83, 64
2, 4020, Note_on_c, 0, 81, 107
2, 4068, Note_off_c, 0, 81, 64
2, 4080, Note_on_c, 0, 83, 107
2, 4128, Note_off_c, 0, 83, 64
2, 4140, Note_on_c, 0, 76, 107
2, 4188, Note_off_c, 0, 76, 64
2, 4200, Note_on_c, 0, 78, 107
2, 4248, Note_off_c, 0, 78, 64
2, 4260, Note_on_c, 0, 79, 107
2, 4308, Note_off_c, 0, 79, 64
2, 4320, Note_on_c, 0, 81, 107
2, 4368, Note_off_c, 0, 81, 64
2, 4380, Note_on_c, 0, 83, 107
2, 4428, Note_off_c, 0, 83, 64
2, 4440, Note_on_c, 0, 84, 107
2, 4488, Note_off_c, 0, 84, 64
2, 4500, Note_on_c, 0, 74, 107
2, 4548, Note_off_c, 0, 74, 64
2, 4560, Note_on_c, 0, 76, 107
2, 4608, Note_off_c, 0, 76, 64
2, 4620, Note_on_c, 0, 78, 107
2, 4668, Note_off_c, 0, 78, 64
2, 4680, Note_on_c, 0, 79, 107
2, 4728, Note_off_c, 0, 79, 64
2, 4740, Note_on_c, 0, 81, 107
2, 4788, Note_off_c, 0, 81, 64
2, 4800, Note_on_c, 0, 83, 107
2, 4896, Note_off_c, 0, 83, 64
2, 4920, Note_on_c, 0, 71, 107
2, 5010, Note_off_c, 0, 71, 64
2, 5040, Note_on_c, 0, 76, 107
2, 5208, Note_off_c, 0, 76, 64
2, 5220, Note_on_c, 0, 78, 107
2, 5268, Note_off_c, 0, 78, 64
2, 5280, Note_on_c, 0, 79, 107
2, 5304, Note_off_c, 0, 79, 64
2, 5310, Note_on_c, 0, 78, 107
2, 5334, Note_off_c, 0, 78, 64
2, 5340, Note_on_c, 0, 79, 107
2, 5364, Note_off_c, 0, 79, 64
2, 5370, Note_on_c, 0, 78, 107
2, 5394, Note_off_c, 0, 78, 64
2, 5400, Note_on_c, 0, 79, 107
2, 5424, Note_off_c, 0, 79, 64
2, 5430, Note_on_c, 0, 78, 107
2, 5454, Note_off_c, 0, 78, 64
2, 5460, Note_on_c, 0, 76, 107
2, 5508, Note_off_c, 0, 76, 64
2, 5520, Note_on_c, 0, 76, 107
2, 5712, Note_off_c, 0, 76, 64
2, 5760, Note_on_c, 0, 79, 107
2, 5856, Note_off_c, 0, 79, 64
2, 5880, Note_on_c, 0, 71, 107
2, 5928, Note_off_c, 0, 71, 64
2, 5940, Note_on_c, 0, 72, 107
2, 5988, Note_off_c, 0, 72, 64
2, 6000, Note_on_c, 0, 74, 107
2, 6090, Note_off_c, 0, 74, 64
2, 6120, Note_on_c, 0, 76, 107
2, 6210, Note_off_c, 0, 76, 64
2, 6240, Note_on_c, 0, 74, 107
2, 6336, Note_off_c, 0, 74, 64
2, 6360, Note_on_c, 0, 72, 107
2, 6408, Note_off_c, 0, 72, 64
2, 6420, Note_on_c, 0, 71, 107
2, 6468, Note_off_c, 0, 71, 64
2, 6480, Note_on_c, 0, 69, 107
2, 6528, Note_off_c, 0, 69, 64
2, 6540, Note_on_c, 0, 67, 107
2, 6588, Note_off_c, 0, 67, 64
2, 6600, Note_on_c, 0, 79, 107
2, 6690, Note_off_c, 0, 79, 64
2, 6720, Note_on_c, 0, 71, 107
2, 6768, Note_off_c, 0, 71, 64
2, 6780, Note_on_c, 0, 72, 107
2, 6828, Note_off_c, 0, 72, 64
2, 6840, Note_on_c, 0, 74, 107
2, 6888, Note_off_c, 0, 74, 64
2, 6900, Note_on_c, 0, 76, 107
2, 6948, Note_off_c, 0, 76, 64
2, 6960, Note_on_c, 0, 74, 107
2, 7050, Note_off_c, 0, 74, 64
2, 7080, Note_on_c, 0, 79, 107
2, 7416, Note_off_c, 0, 79, 64
2, 7440, Note_on_c, 0, 76, 107
2, 7530, Note_off_c, 0, 76, 64
2, 7560, Note_on_c, 0, 81, 107
2, 7650, Note_off_c, 0, 81, 64
2, 7680, Note_on_c, 0, 78, 107
2, 7770, Note_off_c, 0, 78, 64
2, 7800, Note_on_c, 0, 83, 107
2, 8136, Note_off_c, 0, 83, 64
2, 8160, Note_on_c, 0, 81, 107
2, 8208, Note_off_c, 0, 81, 64
2, 8220, Note_on_c, 0, 79, 107
2, 8268, Note_off_c, 0, 79, 64
2, 8280, Note_on_c, 0, 78, 107
2, 8328, Note_off_c, 0, 78, 64
2, 8340, Note_on_c, 0, 76, 107
2, 8388, Note_off_c, 0, 76, 64
2, 8400, Note_on_c, 0, 79, 107
2, 8448, Note_off_c, 0, 79, 64
2, 8460, Note_on_c, 0, 78, 107
2, 8508, Note_off_c, 0, 78, 64
2, 8520, Note_on_c, 0, 76, 107
2, 8568, Note_off_c, 0, 76, 64
2, 8580, Note_on_c, 0, 74, 107
2, 8628, Note_off_c, 0, 74, 64
2, 8640, Note_on_c, 0, 78, 107
2, 8736, Note_off_c, 0, 78, 64
2, 8760, Note_on_c, 0, 71, 107
2, 8808, Note_off_c, 0, 71, 64
2, 8820, Note_on_c, 0, 73, 107
2, 8868, Note_off_c, 0, 73, 64
2, 8880, Note_on_c, 0, 74, 107
2, 8970, Note_off_c, 0, 74, 64
2, 9000, Note_on_c, 0, 73, 107
2, 9090, Note_off_c, 0, 73, 64
2, 9120, Note_on_c, 0, 74, 107
2, 9216, Note_off_c, 0, 74, 64
2, 9240, Note_on_c, 0, 73, 107
2, 9288, Note_off_c, 0, 73, 64
2, 9300, Note_on_c, 0, 71, 107
2, 9348, Note_off_c, 0, 71, 64
2, 9360, Note_on_c, 0, 73, 107
2, 9408, Note_off_c, 0, 73, 64
2, 9420, Note_on_c, 0, 74, 107
2, 9468, Note_off_c, 0, 74, 64
2, 9480, Note_on_c, 0, 76, 107
2, 9528, Note_off_c, 0, 76, 64
2, 9540, Note_on_c, 0, 78, 107
2, 9588, Note_off_c, 0, 78, 64
2, 9600, Note_on_c, 0, 79, 107
2, 9690, Note_off_c, 0, 79, 64
2, 9720, Note_on_c, 0, 78, 107
2, 9810, Note_off_c, 0, 78, 64
2, 9840, Note_on_c, 0, 79, 107
2, 10248, Note_off_c, 0, 79, 64
2, 10260, Note_on_c, 0, 82, 107
2, 10308, Note_off_c, 0, 82, 64
2, 10320, Note_on_c, 0, 83, 107
2, 10368, Note_off_c, 0, 83, 64
2, 10380, Note_on_c, 0, 79, 107
2, 10428, Note_off_c, 0, 79, 64
2, 10440, Note_on_c, 0, 78, 107
2, 10488, Note_off_c, 0, 78, 64
2, 10500, Note_on_c, 0, 76, 107
2, 10548, Note_off_c, 0, 76, 64
2, 10560, Note_on_c, 0, 74, 107
2, 10608, Note_off_c, 0, 74, 64
2, 10620, Note_on_c, 0, 77, 107
2, 10668, Note_off_c, 0, 77, 64
2, 10680, Note_on_c, 0, 78, 107
2, 10728, Note_off_c, 0, 78, 64
2, 10740, Note_on_c, 0, 74, 107
2, 10788, Note_off_c, 0, 74, 64
2, 10800, Note_on_c, 0, 73, 107
2, 10848, Note_off_c, 0, 73, 64
2, 10860, Note_on_c, 0, 71, 107
2, 10908, Note_off_c, 0, 71, 64
2, 10920, Note_on_c, 0, 76, 107
2, 10968, Note_off_c, 0, 76, 64
2, 10980, Note_on_c, 0, 78, 107
2, 11028, Note_off_c, 0, 78, 64
2, 11040, Note_on_c, 0, 74, 107
2, 11064, Note_off_c, 0, 74, 64
2, 11070, Note_on_c, 0, 73, 107
2, 11094, Note_off_c, 0, 73, 64
2, 11100, Note_on_c, 0, 74, 107
2, 11124, Note_off_c, 0, 74, 64
2, 11130, Note_on_c, 0, 73, 107
2, 11154, Note_off_c, 0, 73, 64
2, 11160, Note_on_c, 0, 74, 107
2, 11184, Note_off_c, 0, 74, 64
2, 11190, Note_on_c, 0, 73, 107
2, 11214, Note_off_c, 0, 73, 64
2, 11220, Note_on_c, 0, 71, 107
2, 11268, Note_off_c, 0, 71, 64
2, 11280, Note_on_c, 0, 71, 107
2, 11472, Note_off_c, 0, 71, 64
2, 11520, Note_on_c, 0, 71, 107
2, 11616, Note_off_c, 0, 71, 64
2, 11640, Note_on_c, 0, 76, 107
2, 11688, Note_off_c, 0, 76, 64
2, 11700, Note_on_c, 0, 78, 107
2, 11748, Note_off_c, 0, 78, 64
2, 11760, Note_on_c, 0, 79, 107
2, 11850, Note_off_c, 0, 79, 64
2, 11880, Note_on_c, 0, 78, 107
2, 11970, Note_off_c, 0, 78, 64
2, 12000, Note_on_c, 0, 79, 107
2, 12090, Note_off_c, 0, 79, 64
2, 12120, Note_on_c, 0, 76, 107
2, 12168, Note_off_c, 0, 76, 64
2, 12180, Note_on_c, 0, 75, 107
2, 12228, Note_off_c, 0, 75, 64
2, 12240, Note_on_c, 0, 76, 107
2, 12288, Note_off_c, 0, 76, 64
2, 12300, Note_on_c, 0, 78, 107
2, 12348, Note_off_c, 0, 78, 64
2, 12360, Note_on_c, 0, 79, 107
2, 12408, Note_off_c, 0, 79, 64
2, 12420, Note_on_c, 0, 81, 107
2, 12468, Note_off_c, 0, 81, 64
2, 12480, Note_on_c, 0, 83, 107
2, 12528, Note_off_c, 0, 83, 64
2, 12540, Note_on_c, 0, 84, 107
2, 12588, Note_off_c, 0, 84, 64
2, 12600, Note_on_c, 0, 83, 107
2, 12648, Note_off_c, 0, 83, 64
2, 12660, Note_on_c, 0, 81, 107
2, 12708, Note_off_c, 0, 81, 64
2, 12720, Note_on_c, 0, 83, 107
2, 12768, Note_off_c, 0, 83, 64
2, 12780, Note_on_c, 0, 76, 107
2, 12828, Note_off_c, 0, 76, 64
2, 12840, Note_on_c, 0, 78, 107
2, 12888, Note_off_c, 0, 78, 64
2, 12900, Note_on_c, 0, 79, 107
2, 12948, Note_off_c, 0, 79, 64
2, 12960, Note_on_c, 0, 81, 107
2, 13008, Note_off_c, 0, 81, 64
2, 13020, Note_on_c, 0, 83, 107
2, 13068, Note_off_c, 0, 83, 64
2, 13080, Note_on_c, 0, 84, 107
2, 13176, Note_off_c, 0, 84, 64
2, 13200, Note_on_c, 0, 83, 107
2, 13248, Note_off_c, 0, 83, 64
2, 13260, Note_on_c, 0, 81, 107
2, 13308, Note_off_c, 0, 81, 64
2, 13320, Note_on_c, 0, 79, 107
2, 13368, Note_off_c, 0, 79, 64
2, 13380, Note_on_c, 0, 78, 107
2, 13428, Note_off_c, 0, 78, 64
2, 13440, Note_on_c, 0, 83, 107
2, 13536, Note_off_c, 0, 83, 64
2, 13560, Note_on_c, 0, 81, 107
2, 13608, Note_off_c, 0, 81, 64
2, 13620, Note_on_c, 0, 79, 107
2, 13668, Note_off_c, 0, 79, 64
2, 13680, Note_on_c, 0, 78, 107
2, 13728, Note_off_c, 0, 78, 64
2, 13740, Note_on_c, 0, 76, 107
2, 13788, Note_off_c, 0, 76, 64
2, 13800, Note_on_c, 0, 81, 107
2, 13848, Note_off_c, 0, 81, 64
2, 13860, Note_on_c, 0, 79, 107
2, 13908, Note_off_c, 0, 79, 64
2, 13920, Note_on_c, 0, 78, 107
2, 13968, Note_off_c, 0, 78, 64
2, 13980, Note_on_c, 0, 79, 107
2, 14028, Note_off_c, 0, 79, 64
2, 14040, Note_on_c, 0, 81, 107
2, 14088, Note_off_c, 0, 81, 64
2, 14100, Note_on_c, 0, 78, 107
2, 14148, Note_off_c, 0, 78, 64
2, 14160, Note_on_c, 0, 79, 107
2, 14208, Note_off_c, 0, 79, 64
2, 14220, Note_on_c, 0, 71, 107
2, 14268, Note_off_c, 0, 71, 64
2, 14280, Note_on_c, 0, 73, 107
2, 14328, Note_off_c, 0, 73, 64
2, 14340, Note_on_c, 0, 75, 107
2, 14388, Note_off_c, 0, 75, 64
2, 14400, Note_on_c, 0, 76, 107
2, 14448, Note_off_c, 0, 76, 64
2, 14460, Note_on_c, 0, 75, 107
2, 14508, Note_off_c, 0, 75, 64
2, 14520, Note_on_c, 0, 76, 107
2, 14568, Note_off_c, 0, 76, 64
2, 14580, Note_on_c, 0, 78, 107
2, 14628, Note_off_c, 0, 78, 64
2, 14640, Note_on_c, 0, 79, 107
2, 14688, Note_off_c, 0, 79, 64
2, 14700, Note_on_c, 0, 81, 107
2, 14748, Note_off_c, 0, 81, 64
2, 14760, Note_on_c, 0, 79, 107
2, 14808, Note_off_c, 0, 79, 64
2, 14820, Note_on_c, 0, 78, 107
2, 14868, Note_off_c, 0, 78, 64
2, 14880, Note_on_c, 0, 79, 107
2, 14928, Note_off_c, 0, 79, 64
2, 14940, Note_on_c, 0, 78, 107
2, 14988, Note_off_c, 0, 78, 64
2, 15000, Note_on_c, 0, 76, 107
2, 15048, Note_off_c, 0, 76, 64
2, 15060, Note_on_c, 0, 75, 107
2, 15108, Note_off_c, 0, 75, 64
2, 15120, Note_on_c, 0, 76, 107
2, 15168, Note_off_c, 0, 76, 64
2, 15180, Note_on_c, 0, 78, 107
2, 15228, Note_off_c, 0, 78, 64
2, 15240, Note_on_c, 0, 79, 107
2, 15288, Note_off_c, 0, 79, 64
2, 15300, Note_on_c, 0, 81, 107
2, 15348, Note_off_c, 0, 81, 64
2, 15360, Note_on_c, 0, 83, 107
2, 15408, Note_off_c, 0, 83, 64
2, 15420, Note_on_c, 0, 84, 107
2, 15468, Note_off_c, 0, 84, 64
2, 15480, Note_on_c, 0, 83, 107
2, 15528, Note_off_c, 0, 83, 64
2, 15540, Note_on_c, 0, 81, 107
2, 15588, Note_off_c, 0, 81, 64
2, 15600, Note_on_c, 0, 83, 107
2, 15648, Note_off_c, 0, 83, 64
2, 15660, Note_on_c, 0, 76, 107
2, 15708, Note_off_c, 0, 76, 64
2, 15720, Note_on_c, 0, 78, 107
2, 15768, Note_off_c, 0, 78, 64
2, 15780, Note_on_c, 0, 79, 107
2, 15828, Note_off_c, 0, 79, 64
2, 15840, Note_on_c, 0, 81, 107
2, 15888, Note_off_c, 0, 81, 64
2, 15900, Note_on_c, 0, 83, 107
2, 15948, Note_off_c, 0, 83, 64
2, 15960, Note_on_c, 0, 84, 107
2, 16008, Note_off_c, 0, 84, 64
2, 16020, Note_on_c, 0, 74, 107
2, 16068, Note_off_c, 0, 74, 64
2, 16080, Note_on_c, 0, 76, 107
2, 16128, Note_off_c, 0, 76, 64
2, 16140, Note_on_c, 0, 78, 107
2, 16188, Note_off_c, 0, 78, 64
2, 16200, Note_on_c, 0, 79, 107
2, 16248, Note_off_c, 0, 79, 64
2, 16260, Note_on_c, 0, 81, 107
2, 16308, Note_off_c, 0, 81, 64
2, 16320, Note_on_c, 0, 83, 107
2, 16410, Note_off_c, 0, 83, 64
2, 16440, Note_on_c, 0, 71, 107
2, 16530, Note_off_c, 0, 71, 64
2, 16560, Note_on_c, 0, 76, 107
2, 16728, Note_off_c, 0, 76, 64
2, 16740, Note_on_c, 0, 78, 107
2, 16788, Note_off_c, 0, 78, 64
2, 16800, Note_on_c, 0, 79, 107
2, 16824, Note_off_c, 0, 79, 64
2, 16830, Note_on_c, 0, 78, 107
2, 16854, Note_off_c, 0, 78, 64
2, 16860, Note_on_c, 0, 79, 107
2, 16884, Note_off_c, 0, 79, 64
2, 16890, Note_on_c, 0, 78, 107
2, 16914, Note_off_c, 0, 78, 64
2, 16920, Note_on_c, 0, 79, 107
2, 16944, Note_off_c, 0, 79, 64
2, 16950, Note_on_c, 0, 78, 107
2, 16974, Note_off_c, 0, 78, 64
2, 16980, Note_on_c, 0, 76, 107
2, 17028, Note_off_c, 0, 76, 64
2, 17040, Note_on_c, 0, 76, 107
2, 17232, Note_off_c, 0, 76, 64
2, 17280, Note_on_c, 0, 71, 107
2, 17328, Note_off_c, 0, 71, 64
2, 17340, Note_on_c, 0, 72, 107
2, 17388, Note_off_c, 0, 72, 64
2, 17400, Note_on_c, 0, 74, 107
2, 17448, Note_off_c, 0, 74, 64
2, 17460, Note_on_c, 0, 71, 107
2, 17508, Note_off_c, 0, 71, 64
2, 17520, Note_on_c, 0, 68, 107
2, 17568, Note_off_c, 0, 68, 64
2, 17580, Note_on_c, 0, 64, 107
2, 17628, Note_off_c, 0, 64, 64
2, 17640, Note_on_c, 0, 77, 107
2, 17856, Note_off_c, 0, 77, 64
2, 17880, Note_on_c, 0, 76, 107
2, 17970, Note_off_c, 0, 76, 64
2, 18000, Note_on_c, 0, 74, 107
2, 18090, Note_off_c, 0, 74, 64
2, 18120, Note_on_c, 0, 72, 107
2, 18168, Note_off_c, 0, 72, 64
2, 18180, Note_on_c, 0, 76, 107
2, 18228, Note_off_c, 0, 76, 64
2, 18240, Note_on_c, 0, 81, 107
2, 18288, Note_off_c, 0, 81, 64
2, 18300, Note_on_c, 0, 76, 107
2, 18348, Note_off_c, 0, 76, 64
2, 18360, Note_on_c, 0, 74, 107
2, 18408, Note_off_c, 0, 74, 64
2, 18420, Note_on_c, 0, 80, 107
2, 18468, Note_off_c, 0, 80, 64
2, 18480, Note_on_c, 0, 81, 107
2, 18528, Note_off_c, 0, 81, 64
2, 18540, Note_on_c, 0, 76, 107
2, 18588, Note_off_c, 0, 76, 64
2, 18600, Note_on_c, 0, 72, 107
2, 18648, Note_off_c, 0, 72, 64
2, 18660, Note_on_c, 0, 69, 107
2, 18708, Note_off_c, 0, 69, 64
2, 18720, Note_on_c, 0, 72, 107
2, 18768, Note_off_c, 0, 72, 64
2, 18780, Note_on_c, 0, 76, 107
2, 18828, Note_off_c, 0, 76, 64
2, 18840, Note_on_c, 0, 81, 107
2, 18888, Note_off_c, 0, 81, 64
2, 18900, Note_on_c, 0, 78, 107
2, 18948, Note_off_c, 0, 78, 64
2, 18960, Note_on_c, 0, 75, 107
2, 19008, Note_off_c, 0, 75, 64
2, 19020, Note_on_c, 0, 71, 107
2, 19068, Note_off_c, 0, 71, 64
2, 19080, Note_on_c, 0, 72, 107
2, 19296, Note_off_c, 0, 72, 64
2, 19320, Note_on_c, 0, 71, 107
2, 19410, Note_off_c, 0, 71, 64
2, 19440, Note_on_c, 0, 69, 107
2, 19530, Note_off_c, 0, 69, 64
2, 19560, Note_on_c, 0, 67, 107
2, 19608, Note_off_c, 0, 67, 64
2, 19620, Note_on_c, 0, 71, 107
2, 19668, Note_off_c, 0, 71, 64
2, 19680, Note_on_c, 0, 76, 107
2, 19728, Note_off_c, 0, 76, 64
2, 19740, Note_on_c, 0, 75, 107
2, 19788, Note_off_c, 0, 75, 64
2, 19800, Note_on_c, 0, 76, 107
2, 19848, Note_off_c, 0, 76, 64
2, 19860, Note_on_c, 0, 78, 107
2, 19908, Note_off_c, 0, 78, 64
2, 19920, Note_on_c, 0, 76, 107
2, 19968, Note_off_c, 0, 76, 64
2, 19980, Note_on_c, 0, 75, 107
2, 20028, Note_off_c, 0, 75, 64
2, 20040, Note_on_c, 0, 73, 107
2, 20088, Note_off_c, 0, 73, 64
2, 20100, Note_on_c, 0, 71, 107
2, 20148, Note_off_c, 0, 71, 64
2, 20160, Note_on_c, 0, 83, 107
2, 20328, Note_off_c, 0, 83, 64
2, 20340, Note_on_c, 0, 76, 107
2, 20388, Note_off_c, 0, 76, 64
2, 20400, Note_on_c, 0, 77, 107
2, 20448, Note_off_c, 0, 77, 64
2, 20460, Note_on_c, 0, 74, 107
2, 20508, Note_off_c, 0, 74, 64
2, 20520, Note_on_c, 0, 76, 107
2, 20568, Note_off_c, 0, 76, 64
2, 20580, Note_on_c, 0, 71, 107
2, 20628, Note_off_c, 0, 71, 64
2, 20640, Note_on_c, 0, 74, 107
2, 20688, Note_off_c, 0, 74, 64
2, 20700, Note_on_c, 0, 72, 107
2, 20748, Note_off_c, 0, 72, 64
2, 20760, Note_on_c, 0, 71, 107
2, 20808, Note_off_c, 0, 71, 64
2, 20820, Note_on_c, 0, 69, 107
2, 20868, Note_off_c, 0, 69, 64
2, 20880, Note_on_c, 0, 81, 107
2, 21048, Note_off_c, 0, 81, 64
2, 21060, Note_on_c, 0, 74, 107
2, 21108, Note_off_c, 0, 74, 64
2, 21120, Note_on_c, 0, 75, 107
2, 21168, Note_off_c, 0, 75, 64
2, 21180, Note_on_c, 0, 72, 107
2, 21228, Note_off_c, 0, 72, 64
2, 21240, Note_on_c, 0, 74, 107
2, 21288, Note_off_c, 0, 74, 64
2, 21300, Note_on_c, 0, 69, 107
2, 21348, Note_off_c, 0, 69, 64
2, 21360, Note_on_c, 0, 72, 107
2, 21408, Note_off_c, 0, 72, 64
2, 21420, Note_on_c, 0, 71, 107
2, 21468, Note_off_c, 0, 71, 64
2, 21480, Note_on_c, 0, 69, 107
2, 21528, Note_off_c, 0, 69, 64
2, 21540, Note_on_c, 0, 67, 107
2, 21588, Note_off_c, 0, 67, 64
2, 21600, Note_on_c, 0, 74, 107
2, 21768, Note_off_c, 0, 74, 64
2, 21780, Note_on_c, 0, 69, 107
2, 21828, Note_off_c, 0, 69, 64
2, 21840, Note_on_c, 0, 71, 107
2, 21888, Note_off_c, 0, 71, 64
2, 21900, Note_on_c, 0, 67, 107
2, 21948, Note_off_c, 0, 67, 64
2, 21960, Note_on_c, 0, 69, 107
2, 22008, Note_off_c, 0, 69, 64
2, 22020, Note_on_c, 0, 65, 107
2, 22068, Note_off_c, 0, 65, 64
2, 22080, Note_on_c, 0, 64, 107
2, 22128, Note_off_c, 0, 64, 64
2, 22140, Note_on_c, 0, 74, 107
2, 22188, Note_off_c, 0, 74, 64
2, 22200, Note_on_c, 0, 72, 107
2, 22248, Note_off_c, 0, 72, 64
2, 22260, Note_on_c, 0, 69, 107
2, 22308, Note_off_c, 0, 69, 64
2, 22320, Note_on_c, 0, 71, 107
2, 22368, Note_off_c, 0, 71, 64
2, 22380, Note_on_c, 0, 67, 107
2, 22428, Note_off_c, 0, 67, 64
2, 22440, Note_on_c, 0, 78, 107
2, 22488, Note_off_c, 0, 78, 64
2, 22500, Note_on_c, 0, 79, 107
2, 22548, Note_off_c, 0, 79, 64
2, 22560, Note_on_c, 0, 72, 107
2, 22608, Note_off_c, 0, 72, 64
2, 22620, Note_on_c, 0, 71, 107
2, 22668, Note_off_c, 0, 71, 64
2, 22680, Note_on_c, 0, 69, 107
2, 22728, Note_off_c, 0, 69, 64
2, 22740, Note_on_c, 0, 71, 107
2, 22788, Note_off_c, 0, 71, 64
2, 22800, Note_on_c, 0, 67, 107
2, 22992, Note_off_c, 0, 67, 64
2, 23040, Note_on_c, 0, 71, 107
2, 23136, Note_off_c, 0, 71, 64
2, 23160, Note_on_c, 0, 76, 107
2, 23208, Note_off_c, 0, 76, 64
2, 23220, Note_on_c, 0, 78, 107
2, 23268, Note_off_c, 0, 78, 64
2, 23280, Note_on_c, 0, 79, 107
2, 23370, Note_off_c, 0, 79, 64
2, 23400, Note_on_c, 0, 78, 107
2, 23490, Note_off_c, 0, 78, 64
2, 23520, Note_on_c, 0, 79, 107
2, 23616, Note_off_c, 0, 79, 64
2, 23640, Note_on_c, 0, 76, 107
2, 23688, Note_off_c, 0, 76, 64
2, 23700, Note_on_c, 0, 75, 107
2, 23748, Note_off_c, 0, 75, 64
2, 23760, Note_on_c, 0, 76, 107
2, 23808, Note_off_c, 0, 76, 64
2, 23820, Note_on_c, 0, 78, 107
2, 23868, Note_off_c, 0, 78, 64
2, 23880, Note_on_c, 0, 79, 107
2, 23928, Note_off_c, 0, 79, 64
2, 23940, Note_on_c, 0, 81, 107
2, 23988, Note_off_c, 0, 81, 64
2, 24000, Note_on_c, 0, 83, 107
2, 24048, Note_off_c, 0, 83, 64
2, 24060, Note_on_c, 0, 84, 107
2, 24108, Note_off_c, 0, 84, 64
2, 24120, Note_on_c, 0, 83, 107
2, 24168, Note_off_c, 0, 83, 64
2, 24180, Note_on_c, 0, 81, 107
2, 24228, Note_off_c, 0, 81, 64
2, 24240, Note_on_c, 0, 83, 107
2, 24288, Note_off_c, 0, 83, 64
2, 24300, Note_on_c, 0, 76, 107
2, 24348, Note_off_c, 0, 76, 64
2, 24360, Note_on_c, 0, 78, 107
2, 24408, Note_off_c, 0, 78, 64
2, 24420, Note_on_c, 0, 79, 107
2, 24468, Note_off_c, 0, 79, 64
2, 24480, Note_on_c, 0, 81, 107
2, 24528, Note_off_c, 0, 81, 64
2, 24540, Note_on_c, 0, 83, 107
2, 24588, Note_off_c, 0, 83, 64
2, 24600, Note_on_c, 0, 84, 107
2, 24696, Note_off_c, 0, 84, 64
2, 24720, Note_on_c, 0, 83, 107
2, 24768, Note_off_c, 0, 83, 64
2, 24780, Note_on_c, 0, 81, 107
2, 24828, Note_off_c, 0, 81, 64
2, 24840, Note_on_c, 0, 79, 107
2, 24888, Note_off_c, 0, 79, 64
2, 24900, Note_on_c, 0, 78, 107
2, 24948, Note_off_c, 0, 78, 64
2, 24960, Note_on_c, 0, 83, 107
2, 25056, Note_off_c, 0, 83, 64
2, 25080, Note_on_c, 0, 81, 107
2, 25128, Note_off_c, 0, 81, 64
2, 25140, Note_on_c, 0, 79, 107
2, 25188, Note_off_c, 0, 79, 64
2, 25200, Note_on_c, 0, 78, 107
2, 25248, Note_off_c, 0, 78, 64
2, 25260, Note_on_c, 0, 76, 107
2, 25308, Note_off_c, 0, 76, 64
2, 25320, Note_on_c, 0, 81, 107
2, 25368, Note_off_c, 0, 81, 64
2, 25380, Note_on_c, 0, 79, 107
2, 25428, Note_off_c, 0, 79, 64
2, 25440, Note_on_c, 0, 78, 107
2, 25488, Note_off_c, 0, 78, 64
2, 25500, Note_on_c, 0, 79, 107
2, 25548, Note_off_c, 0, 79, 64
2, 25560, Note_on_c, 0, 81, 107
2, 25608, Note_off_c, 0, 81, 64
2, 25620, Note_on_c, 0, 78, 107
2, 25668, Note_off_c, 0, 78, 64
2, 25680, Note_on_c, 0, 79, 107
2, 25728, Note_off_c, 0, 79, 64
2, 25740, Note_on_c, 0, 71, 107
2, 25788, Note_off_c, 0, 71, 64
2, 25800, Note_on_c, 0, 73, 107
2, 25848, Note_off_c, 0, 73, 64
2, 25860, Note_on_c, 0, 75, 107
2, 25908, Note_off_c, 0, 75, 64
2, 25920, Note_on_c, 0, 76, 107
2, 25968, Note_off_c, 0, 76, 64
2, 25980, Note_on_c, 0, 75, 107
2, 26028, Note_off_c, 0, 75, 64
2, 26040, Note_on_c, 0, 76, 107
2, 26088, Note_off_c, 0, 76, 64
2, 26100, Note_on_c, 0, 78, 107
2, 26148, Note_off_c, 0, 78, 64
2, 26160, Note_on_c, 0, 79, 107
2, 26208, Note_off_c, 0, 79, 64
2, 26220, Note_on_c, 0, 81, 107
2, 26268, Note_off_c, 0, 81, 64
2, 26280, Note_on_c, 0, 79, 107
2, 26328, Note_off_c, 0, 79, 64
2, 26340, Note_on_c, 0, 78, 107
2, 26388, Note_off_c, 0, 78, 64
2, 26400, Note_on_c, 0, 79, 107
2, 26448, Note_off_c, 0, 79, 64
2, 26460, Note_on_c, 0, 78, 107
2, 26508, Note_off_c, 0, 78, 64
2, 26520, Note_on_c, 0, 76, 107
2, 26568, Note_off_c, 0, 76, 64
2, 26580, Note_on_c, 0, 75, 107
2, 26628, Note_off_c, 0, 75, 64
2, 26640, Note_on_c, 0, 76, 107
2, 26688, Note_off_c, 0, 76, 64
2, 26700, Note_on_c, 0, 78, 107
2, 26748, Note_off_c, 0, 78, 64
2, 26760, Note_on_c, 0, 79, 107
2, 26808, Note_off_c, 0, 79, 64
2, 26820, Note_on_c, 0, 81, 107
2, 26868, Note_off_c, 0, 81, 64
2, 26880, Note_on_c, 0, 83, 107
2, 26928, Note_off_c, 0, 83, 64
2, 26940, Note_on_c, 0, 84, 107
2, 26988, Note_off_c, 0, 84, 64
2, 27000, Note_on_c, 0, 83, 107
2, 27048, Note_off_c, 0, 83, 64
2, 27060, Note_on_c, 0, 81, 107
2, 27108, Note_off_c, 0, 81, 64
2, 27120, Note_on_c, 0, 83, 107
2, 27168, Note_off_c, 0, 83, 64
2, 27180, Note_on_c, 0, 76, 107
2, 27228, Note_off_c, 0, 76, 64
2, 27240, Note_on_c, 0, 78, 107
2, 27288, Note_off_c, 0, 78, 64
2, 27300, Note_on_c, 0, 79, 107
2, 27348, Note_off_c, 0, 79, 64
2, 27360, Note_on_c, 0, 81, 107
2, 27408, Note_off_c, 0, 81, 64
2, 27420, Note_on_c, 0, 83, 107
2, 27468, Note_off_c, 0, 83, 64
2, 27480, Note_on_c, 0, 84, 107
2, 27528, Note_off_c, 0, 84, 64
2, 27540, Note_on_c, 0, 74, 107
2, 27588, Note_off_c, 0, 74, 64
2, 27600, Note_on_c, 0, 76, 107
2, 27648, Note_off_c, 0, 76, 64
2, 27660, Note_on_c, 0, 78, 107
2, 27708, Note_off_c, 0, 78, 64
2, 27720, Note_on_c, 0, 79, 107
2, 27768, Note_off_c, 0, 79, 64
2, 27780, Note_on_c, 0, 81, 107
2, 27828, Note_off_c, 0, 81, 64
2, 27840, Note_on_c, 0, 83, 107
2, 27930, Note_off_c, 0, 83, 64
2, 27960, Note_on_c, 0, 71, 107
2, 28050, Note_off_c, 0, 71, 64
2, 28080, Note_on_c, 0, 76, 107
2, 28248, Note_off_c, 0, 76, 64
2, 28260, Note_on_c, 0, 78, 107
2, 28308, Note_off_c, 0, 78, 64
2, 28320, Note_on_c, 0, 79, 107
2, 28344, Note_off_c, 0, 79, 64
2, 28350, Note_on_c, 0, 78, 107
2, 28374, Note_off_c, 0, 78, 64
2, 28380, Note_on_c, 0, 79, 107
2, 28404, Note_off_c, 0, 79, 64
2, 28410, Note_on_c, 0, 78, 107
2, 28434, Note_off_c, 0, 78, 64
2, 28440, Note_on_c, 0, 79, 107
2, 28464, Note_off_c, 0, 79, 64
2, 28470, Note_on_c, 0, 78, 107
2, 28494, Note_off_c, 0, 78, 64
2, 28500, Note_on_c, 0, 76, 107
2, 28548, Note_off_c, 0, 76, 64
2, 28560, Note_on_c, 0, 76, 107
2, 28752, Note_off_c, 0, 76, 64
2, 28752, End_track
3, 0, Start_track
3, 0, Title_t, "J.S. Bach, Edition Kalmus"
3, 0, Program_c, 1, 0
3, 0, Note_on_c, 1, 64, 107
3, 96, Note_off_c, 1, 64, 64
3, 120, Note_on_c, 1, 55, 107
3, 210, Note_off_c, 1, 55, 64
3, 240, Note_on_c, 1, 57, 107
3, 330, Note_off_c, 1, 57, 64
3, 360, Note_on_c, 1, 59, 107
3, 450, Note_off_c, 1, 59, 64
3, 480, Note_on_c, 1, 52, 107
3, 570, Note_off_c, 1, 52, 64
3, 600, Note_on_c, 1, 55, 107
3, 690, Note_off_c, 1, 55, 64
3, 720, Note_on_c, 1, 59, 107
3, 810, Note_off_c, 1, 59, 64
3, 840, Note_on_c, 1, 64, 107
3, 888, Note_off_c, 1, 64, 64
3, 900, Note_on_c, 1, 66, 107
3, 948, Note_off_c, 1, 66, 64
3, 960, Note_on_c, 1, 67, 107
3, 1050, Note_off_c, 1, 67, 64
3, 1080, Note_on_c, 1, 66, 107
3, 1170, Note_off_c, 1, 66, 64
3, 1200, Note_on_c, 1, 67, 107
3, 1296, Note_off_c, 1, 67, 64
3, 1320, Note_on_c, 1, 66, 107
3, 1368, Note_off_c, 1, 66, 64
3, 1380, Note_on_c, 1, 64, 107
3, 1428, Note_off_c, 1, 64, 64
3, 1440, Note_on_c, 1, 66, 107
3, 1488, Note_off_c, 1, 66, 64
3, 1500, Note_on_c, 1, 67, 107
3, 1548, Note_off_c, 1, 67, 64
3, 1560, Note_on_c, 1, 69, 107
3, 1650, Note_off_c, 1, 69, 64
3, 1680, Note_on_c, 1, 66, 107
3, 1770, Note_off_c, 1, 66, 64
3, 1800, Note_on_c, 1, 62, 107
3, 1890, Note_off_c, 1, 62, 64
3, 1920, Note_on_c, 1, 67, 107
3, 2010, Note_off_c, 1, 67, 64
3, 2040, Note_on_c, 1, 64, 107
3, 2130, Note_off_c, 1, 64, 64
3, 2160, Note_on_c, 1, 60, 107
3, 2250, Note_off_c, 1, 60, 64
3, 2280, Note_on_c, 1, 54, 107
3, 2370, Note_off_c, 1, 54, 64
3, 2400, Note_on_c, 1, 64, 107
3, 2490, Note_off_c, 1, 64, 64
3, 2520, Note_on_c, 1, 63, 107
3, 2610, Note_off_c, 1, 63, 64
3, 2640, Note_on_c, 1, 64, 107
3, 2730, Note_off_c, 1, 64, 64
3, 2760, Note_on_c, 1, 52, 107
3, 2850, Note_off_c, 1, 52, 64
3, 2880, Note_on_c, 1, 54, 107
3, 2970, Note_off_c, 1, 54, 64
3, 3000, Note_on_c, 1, 55, 107
3, 3090, Note_off_c, 1, 55, 64
3, 3120, Note_on_c, 1, 57, 107
3, 3210, Note_off_c, 1, 57, 64
3, 3240, Note_on_c, 1, 59, 107
3, 3330, Note_off_c, 1, 59, 64
3, 3360, Note_on_c, 1, 52, 107
3, 3450, Note_off_c, 1, 52, 64
3, 3480, Note_on_c, 1, 55, 107
3, 3570, Note_off_c, 1, 55, 64
3, 3600, Note_on_c, 1, 59, 107
3, 3690, Note_off_c, 1, 59, 64
3, 3720, Note_on_c, 1, 64, 107
3, 3768, Note_off_c, 1, 64, 64
3, 3780, Note_on_c, 1, 66, 107
3, 3828, Note_off_c, 1, 66, 64
3, 3840, Note_on_c, 1, 67, 107
3, 3930, Note_off_c, 1, 67, 64
3, 3960, Note_on_c, 1, 66, 107
3, 4050, Note_off_c, 1, 66, 64
3, 4080, Note_on_c, 1, 67, 107
3, 4170, Note_off_c, 1, 67, 64
3, 4200, Note_on_c, 1, 66, 107
3, 4248, Note_off_c, 1, 66, 64
3, 4260, Note_on_c, 1, 64, 107
3, 4308, Note_off_c, 1, 64, 64
3, 4320, Note_on_c, 1, 66, 107
3, 4368, Note_off_c, 1, 66, 64
3, 4380, Note_on_c, 1, 67, 107
3, 4428, Note_off_c, 1, 67, 64
3, 4440, Note_on_c, 1, 69, 107
3, 4530, Note_off_c, 1, 69, 64
3, 4560, Note_on_c, 1, 66, 107
3, 4650, Note_off_c, 1, 66, 64
3, 4680, Note_on_c, 1, 62, 107
3, 4770, Note_off_c, 1, 62, 64
3, 4800, Note_on_c, 1, 67, 107
3, 4848, Note_off_c, 1, 67, 64
3, 4860, Note_on_c, 1, 66, 107
3, 4908, Note_off_c, 1, 66, 64
3, 4920, Note_on_c, 1, 64, 107
3, 4968, Note_off_c, 1, 64, 64
3, 4980, Note_on_c, 1, 62, 107
3, 5028, Note_off_c, 1, 62, 64
3, 5040, Note_on_c, 1, 60, 107
3, 5088, Note_off_c, 1, 60, 64
3, 5100, Note_on_c, 1, 59, 107
3, 5148, Note_off_c, 1, 59, 64
3, 5160, Note_on_c, 1, 60, 107
3, 5208, Note_off_c, 1, 60, 64
3, 5220, Note_on_c, 1, 57, 107
3, 5268, Note_off_c, 1, 57, 64
3, 5280, Note_on_c, 1, 59, 107
3, 5370, Note_off_c, 1, 59, 64
3, 5400, Note_on_c, 1, 47, 107
3, 5490, Note_off_c, 1, 47, 64
3, 5520, Note_on_c, 1, 52, 107
3, 5610, Note_off_c, 1, 52, 64
3, 5640, Note_on_c, 1, 40, 107
3, 5730, Note_off_c, 1, 40, 64
3, 5760, Note_on_c, 1, 52, 107
3, 5808, Note_off_c, 1, 52, 64
3, 5820, Note_on_c, 1, 54, 107
3, 5868, Note_off_c, 1, 54, 64
3, 5880, Note_on_c, 1, 55, 107
3, 5928, Note_off_c, 1, 55, 64
3, 5940, Note_on_c, 1, 57, 107
3, 5988, Note_off_c, 1, 57, 64
3, 6000, Note_on_c, 1, 59, 107
3, 6048, Note_off_c, 1, 59, 64
3, 6060, Note_on_c, 1, 60, 107
3, 6108, Note_off_c, 1, 60, 64
3, 6120, Note_on_c, 1, 59, 107
3, 6168, Note_off_c, 1, 59, 64
3, 6180, Note_on_c, 1, 57, 107
3, 6228, Note_off_c, 1, 57, 64
3, 6240, Note_on_c, 1, 59, 107
3, 6288, Note_off_c, 1, 59, 64
3, 6300, Note_on_c, 1, 57, 107
3, 6348, Note_off_c, 1, 57, 64
3, 6360, Note_on_c, 1, 55, 107
3, 6408, Note_off_c, 1, 55, 64
3, 6420, Note_on_c, 1, 57, 107
3, 6468, Note_off_c, 1, 57, 64
3, 6480, Note_on_c, 1, 59, 107
3, 6528, Note_off_c, 1, 59, 64
3, 6540, Note_on_c, 1, 60, 107
3, 6588, Note_off_c, 1, 60, 64
3, 6600, Note_on_c, 1, 59, 107
3, 6648, Note_off_c, 1, 59, 64
3, 6660, Note_on_c, 1, 57, 107
3, 6708, Note_off_c, 1, 57, 64
3, 6720, Note_on_c, 1, 55, 107
3, 6768, Note_off_c, 1, 55, 64
3, 6780, Note_on_c, 1, 57, 107
3, 6828, Note_off_c, 1, 57, 64
3, 6840, Note_on_c, 1, 59, 107
3, 6888, Note_off_c, 1, 59, 64
3, 6900, Note_on_c, 1, 60, 107
3, 6948, Note_off_c, 1, 60, 64
3, 6960, Note_on_c, 1, 59, 107
3, 7008, Note_off_c, 1, 59, 64
3, 7020, Note_on_c, 1, 57, 107
3, 7068, Note_off_c, 1, 57, 64
3, 7080, Note_on_c, 1, 55, 107
3, 7128, Note_off_c, 1, 55, 64
3, 7140, Note_on_c, 1, 54, 107
3, 7188, Note_off_c, 1, 54, 64
3, 7200, Note_on_c, 1, 52, 107
3, 7248, Note_off_c, 1, 52, 64
3, 7260, Note_on_c, 1, 50, 107
3, 7308, Note_off_c, 1, 50, 64
3, 7320, Note_on_c, 1, 49, 107
3, 7368, Note_off_c, 1, 49, 64
3, 7380, Note_on_c, 1, 52, 107
3, 7428, Note_off_c, 1, 52, 64
3, 7440, Note_on_c, 1, 57, 107
3, 7488, Note_off_c, 1, 57, 64
3, 7500, Note_on_c, 1, 55, 107
3, 7548, Note_off_c, 1, 55, 64
3, 7560, Note_on_c, 1, 54, 107
3, 7608, Note_off_c, 1, 54, 64
3, 7620, Note_on_c, 1, 52, 107
3, 7668, Note_off_c, 1, 52, 64
3, 7680, Note_on_c, 1, 50, 107
3, 7728, Note_off_c, 1, 50, 64
3, 7740, Note_on_c, 1, 52, 107
3, 7788, Note_off_c, 1, 52, 64
3, 7800, Note_on_c, 1, 50, 107
3, 7848, Note_off_c, 1, 50, 64
3, 7860, Note_on_c, 1, 49, 107
3, 7908, Note_off_c, 1, 49, 64
3, 7920, Note_on_c, 1, 47, 107
3, 7968, Note_off_c, 1, 47, 64
3, 7980, Note_on_c, 1, 45, 107
3, 8028, Note_off_c, 1, 45, 64
3, 8040, Note_on_c, 1, 43, 107
3, 8088, Note_off_c, 1, 43, 64
3, 8100, Note_on_c, 1, 52, 107
3, 8148, Note_off_c, 1, 52, 64
3, 8160, Note_on_c, 1, 57, 107
3, 8250, Note_off_c, 1, 57, 64
3, 8280, Note_on_c, 1, 45, 107
3, 8370, Note_off_c, 1, 45, 64
3, 8400, Note_on_c, 1, 50, 107
3, 8544, Note_off_c, 1, 50, 64
3, 8580, Note_on_c, 1, 54, 107
3, 8628, Note_off_c, 1, 54, 64
3, 8640, Note_on_c, 1, 59, 107
3, 8688, Note_off_c, 1, 59, 64
3, 8700, Note_on_c, 1, 57, 107
3, 8748, Note_off_c, 1, 57, 64
3, 8760, Note_on_c, 1, 55, 107
3, 8808, Note_off_c, 1, 55, 64
3, 8820, Note_on_c, 1, 54, 107
3, 8868, Note_off_c, 1, 54, 64
3, 8880, Note_on_c, 1, 52, 107
3, 8928, Note_off_c, 1, 52, 64
3, 8940, Note_on_c, 1, 50, 107
3, 8988, Note_off_c, 1, 50, 64
3, 9000, Note_on_c, 1, 52, 107
3, 9048, Note_off_c, 1, 52, 64
3, 9060, Note_on_c, 1, 54, 107
3, 9108, Note_off_c, 1, 54, 64
3, 9120, Note_on_c, 1, 47, 107
3, 9168, Note_off_c, 1, 47, 64
3, 9180, Note_on_c, 1, 59, 107
3, 9228, Note_off_c, 1, 59, 64
3, 9240, Note_on_c, 1, 58, 107
3, 9288, Note_off_c, 1, 58, 64
3, 9300, Note_on_c, 1, 56, 107
3, 9348, Note_off_c, 1, 56, 64
3, 9360, Note_on_c, 1, 58, 107
3, 9408, Note_off_c, 1, 58, 64
3, 9420, Note_on_c, 1, 59, 107
3, 9468, Note_off_c, 1, 59, 64
3, 9480, Note_on_c, 1, 49, 107
3, 9528, Note_off_c, 1, 49, 64
3, 9540, Note_on_c, 1, 59, 107
3, 9588, Note_off_c, 1, 59, 64
3, 9600, Note_on_c, 1, 57, 107
3, 9648, Note_off_c, 1, 57, 64
3, 9660, Note_on_c, 1, 55, 107
3, 9708, Note_off_c, 1, 55, 64
3, 9720, Note_on_c, 1, 57, 107
3, 9768, Note_off_c, 1, 57, 64
3, 9780, Note_on_c, 1, 51, 107
3, 9828, Note_off_c, 1, 51, 64
3, 9840, Note_on_c, 1, 52, 107
3, 9888, Note_off_c, 1, 52, 64
3, 9900, Note_on_c, 1, 57, 107
3, 9948, Note_off_c, 1, 57, 64
3, 9960, Note_on_c, 1, 55, 107
3, 10008, Note_off_c, 1, 55, 64
3, 10020, Note_on_c, 1, 54, 107
3, 10068, Note_off_c, 1, 54, 64
3, 10080, Note_on_c, 1, 55, 107
3, 10128, Note_off_c, 1, 55, 64
3, 10140, Note_on_c, 1, 52, 107
3, 10188, Note_off_c, 1, 52, 64
3, 10200, Note_on_c, 1, 49, 107
3, 10290, Note_off_c, 1, 49, 64
3, 10320, Note_on_c, 1, 50, 107
3, 10410, Note_off_c, 1, 50, 64
3, 10440, Note_on_c, 1, 46, 107
3, 10530, Note_off_c, 1, 46, 64
3, 10560, Note_on_c, 1, 47, 107
3, 10650, Note_off_c, 1, 47, 64
3, 10680, Note_on_c, 1, 50, 107
3, 10770, Note_off_c, 1, 50, 64
3, 10800, Note_on_c, 1, 55, 107
3, 10968, Note_off_c, 1, 55, 64
3, 10980, Note_on_c, 1, 52, 107
3, 11028, Note_off_c, 1, 52, 64
3, 11040, Note_on_c, 1, 54, 107
3, 11136, Note_off_c, 1, 54, 64
3, 11160, Note_on_c, 1, 42, 107
3, 11256, Note_off_c, 1, 42, 64
3, 11280, Note_on_c, 1, 47, 107
3, 11376, Note_off_c, 1, 47, 64
3, 11400, Note_on_c, 1, 59, 107
3, 11448, Note_off_c, 1, 59, 64
3, 11460, Note_on_c, 1, 57, 107
3, 11508, Note_off_c, 1, 57, 64
3, 11520, Note_on_c, 1, 55, 107
3, 11568, Note_off_c, 1, 55, 64
3, 11580, Note_on_c, 1, 54, 107
3, 11628, Note_off_c, 1, 54, 64
3, 11640, Note_on_c, 1, 55, 107
3, 11730, Note_off_c, 1, 55, 64
3, 11760, Note_on_c, 1, 57, 107
3, 11850, Note_off_c, 1, 57, 64
3, 11880, Note_on_c, 1, 59, 107
3, 11970, Note_off_c, 1, 59, 64
3, 12000, Note_on_c, 1, 52, 107
3, 12090, Note_off_c, 1, 52, 64
3, 12120, Note_on_c, 1, 55, 107
3, 12210, Note_off_c, 1, 55, 64
3, 12240, Note_on_c, 1, 59, 107
3, 12330, Note_off_c, 1, 59, 64
3, 12360, Note_on_c, 1, 64, 107
3, 12408, Note_off_c, 1, 64, 64
3, 12420, Note_on_c, 1, 66, 107
3, 12468, Note_off_c, 1, 66, 64
3, 12480, Note_on_c, 1, 67, 107
3, 12570, Note_off_c, 1, 67, 64
3, 12600, Note_on_c, 1, 66, 107
3, 12690, Note_off_c, 1, 66, 64
3, 12720, Note_on_c, 1, 67, 107
3, 12816, Note_off_c, 1, 67, 64
3, 12840, Note_on_c, 1, 66, 107
3, 12888, Note_off_c, 1, 66, 64
3, 12900, Note_on_c, 1, 64, 107
3, 12948, Note_off_c, 1, 64, 64
3, 12960, Note_on_c, 1, 66, 107
3, 13008, Note_off_c, 1, 66, 64
3, 13020, Note_on_c, 1, 67, 107
3, 13068, Note_off_c, 1, 67, 64
3, 13080, Note_on_c, 1, 69, 107
3, 13170, Note_off_c, 1, 69, 64
3, 13200, Note_on_c, 1, 66, 107
3, 13290, Note_off_c, 1, 66, 64
3, 13320, Note_on_c, 1, 62, 107
3, 13410, Note_off_c, 1, 62, 64
3, 13440, Note_on_c, 1, 67, 107
3, 13530, Note_off_c, 1, 67, 64
3, 13560, Note_on_c, 1, 64, 107
3, 13650, Note_off_c, 1, 64, 64
3, 13680, Note_on_c, 1, 60, 107
3, 13770, Note_off_c, 1, 60, 64
3, 13800, Note_on_c, 1, 54, 107
3, 13890, Note_off_c, 1, 54, 64
3, 13920, Note_on_c, 1, 64, 107
3, 14010, Note_off_c, 1, 64, 64
3, 14040, Note_on_c, 1, 63, 107
3, 14130, Note_off_c, 1, 63, 64
3, 14160, Note_on_c, 1, 64, 107
3, 14250, Note_off_c, 1, 64, 64
3, 14280, Note_on_c, 1, 52, 107
3, 14370, Note_off_c, 1, 52, 64
3, 14400, Note_on_c, 1, 54, 107
3, 14490, Note_off_c, 1, 54, 64
3, 14520, Note_on_c, 1, 55, 107
3, 14610, Note_off_c, 1, 55, 64
3, 14640, Note_on_c, 1, 57, 107
3, 14730, Note_off_c, 1, 57, 64
3, 14760, Note_on_c, 1, 59, 107
3, 14850, Note_off_c, 1, 59, 64
3, 14880, Note_on_c, 1, 52, 107
3, 14970, Note_off_c, 1, 52, 64
3, 15000, Note_on_c, 1, 55, 107
3, 15090, Note_off_c, 1, 55, 64
3, 15120, Note_on_c, 1, 59, 107
3, 15210, Note_off_c, 1, 59, 64
3, 15240, Note_on_c, 1, 64, 107
3, 15288, Note_off_c, 1, 64, 64
3, 15300, Note_on_c, 1, 66, 107
3, 15348, Note_off_c, 1, 66, 64
3, 15360, Note_on_c, 1, 67, 107
3, 15450, Note_off_c, 1, 67, 64
3, 15480, Note_on_c, 1, 66, 107
3, 15570, Note_off_c, 1, 66, 64
3, 15600, Note_on_c, 1, 67, 107
3, 15696, Note_off_c, 1, 67, 64
3, 15720, Note_on_c, 1, 66, 107
3, 15768, Note_off_c, 1, 66, 64
3, 15780, Note_on_c, 1, 64, 107
3, 15828, Note_off_c, 1, 64, 64
3, 15840, Note_on_c, 1, 66, 107
3, 15888, Note_off_c, 1, 66, 64
3, 15900, Note_on_c, 1, 67, 107
3, 15948, Note_off_c, 1, 67, 64
3, 15960, Note_on_c, 1, 69, 107
3, 16050, Note_off_c, 1, 69, 64
3, 16080, Note_on_c, 1, 66, 107
3, 16170, Note_off_c, 1, 66, 64
3, 16200, Note_on_c, 1, 62, 107
3, 16290, Note_off_c, 1, 62, 64
3, 16320, Note_on_c, 1, 67, 107
3, 16368, Note_off_c, 1, 67, 64
3, 16380, Note_on_c, 1, 66, 107
3, 16428, Note_off_c, 1, 66, 64
3, 16440, Note_on_c, 1, 64, 107
3, 16488, Note_off_c, 1, 64, 64
3, 16500, Note_on_c, 1, 62, 107
3, 16548, Note_off_c, 1, 62, 64
3, 16560, Note_on_c, 1, 60, 107
3, 16608, Note_off_c, 1, 60, 64
3, 16620, Note_on_c, 1, 59, 107
3, 16668, Note_off_c, 1, 59, 64
3, 16680, Note_on_c, 1, 60, 107
3, 16728, Note_off_c, 1, 60, 64
3, 16740, Note_on_c, 1, 57, 107
3, 16788, Note_off_c, 1, 57, 64
3, 16800, Note_on_c, 1, 59, 107
3, 16890, Note_off_c, 1, 59, 64
3, 16920, Note_on_c, 1, 47, 107
3, 17010, Note_off_c, 1, 47, 64
3, 17040, Note_on_c, 1, 52, 107
3, 17130, Note_off_c, 1, 52, 64
3, 17160, Note_on_c, 1, 40, 107
3, 17250, Note_off_c, 1, 40, 64
3, 17520, Note_on_c, 1, 52, 107
3, 17568, Note_off_c, 1, 52, 64
3, 17580, Note_on_c, 1, 54, 107
3, 17628, Note_off_c, 1, 54, 64
3, 17640, Note_on_c, 1, 56, 107
3, 17688, Note_off_c, 1, 56, 64
3, 17700, Note_on_c, 1, 57, 107
3, 17748, Note_off_c, 1, 57, 64
3, 17760, Note_on_c, 1, 59, 107
3, 17808, Note_off_c, 1, 59, 64
3, 17820, Note_on_c, 1, 57, 107
3, 17868, Note_off_c, 1, 57, 64
3, 17880, Note_on_c, 1, 56, 107
3, 17928, Note_off_c, 1, 56, 64
3, 17940, Note_on_c, 1, 59, 107
3, 17988, Note_off_c, 1, 59, 64
3, 18000, Note_on_c, 1, 52, 107
3, 18048, Note_off_c, 1, 52, 64
3, 18060, Note_on_c, 1, 56, 107
3, 18108, Note_off_c, 1, 56, 64
3, 18120, Note_on_c, 1, 57, 107
3, 18210, Note_off_c, 1, 57, 64
3, 18240, Note_on_c, 1, 50, 107
3, 18330, Note_off_c, 1, 50, 64
3, 18360, Note_on_c, 1, 52, 107
3, 18450, Note_off_c, 1, 52, 64
3, 18480, Note_on_c, 1, 45, 107
3, 18570, Note_off_c, 1, 45, 64
3, 18600, Note_on_c, 1, 57, 107
3, 18690, Note_off_c, 1, 57, 64
3, 18720, Note_on_c, 1, 55, 107
3, 18810, Note_off_c, 1, 55, 64
3, 18840, Note_on_c, 1, 54, 107
3, 18930, Note_off_c, 1, 54, 64
3, 18960, Note_on_c, 1, 47, 107
3, 19008, Note_off_c, 1, 47, 64
3, 19020, Note_on_c, 1, 49, 107
3, 19068, Note_off_c, 1, 49, 64
3, 19080, Note_on_c, 1, 51, 107
3, 19128, Note_off_c, 1, 51, 64
3, 19140, Note_on_c, 1, 52, 107
3, 19188, Note_off_c, 1, 52, 64
3, 19200, Note_on_c, 1, 54, 107
3, 19248, Note_off_c, 1, 54, 64
3, 19260, Note_on_c, 1, 52, 107
3, 19308, Note_off_c, 1, 52, 64
3, 19320, Note_on_c, 1, 51, 107
3, 19368, Note_off_c, 1, 51, 64
3, 19380, Note_on_c, 1, 54, 107
3, 19428, Note_off_c, 1, 54, 64
3, 19440, Note_on_c, 1, 47, 107
3, 19488, Note_off_c, 1, 47, 64
3, 19500, Note_on_c, 1, 51, 107
3, 19548, Note_off_c, 1, 51, 64
3, 19560, Note_on_c, 1, 52, 107
3, 19650, Note_off_c, 1, 52, 64
3, 19680, Note_on_c, 1, 48, 107
3, 19770, Note_off_c, 1, 48, 64
3, 19800, Note_on_c, 1, 45, 107
3, 19890, Note_off_c, 1, 45, 64
3, 19920, Note_on_c, 1, 47, 107
3, 20064, Note_off_c, 1, 47, 64
3, 20100, Note_on_c, 1, 59, 107
3, 20148, Note_off_c, 1, 59, 64
3, 20160, Note_on_c, 1, 57, 107
3, 20208, Note_off_c, 1, 57, 64
3, 20220, Note_on_c, 1, 54, 107
3, 20268, Note_off_c, 1, 54, 64
3, 20280, Note_on_c, 1, 56, 107
3, 20370, Note_off_c, 1, 56, 64
3, 20400, Note_on_c, 1, 52, 107
3, 20490, Note_off_c, 1, 52, 64
3, 20520, Note_on_c, 1, 56, 107
3, 20610, Note_off_c, 1, 56, 64
3, 20640, Note_on_c, 1, 45, 107
3, 20784, Note_off_c, 1, 45, 64
3, 20820, Note_on_c, 1, 57, 107
3, 20868, Note_off_c, 1, 57, 64
3, 20880, Note_on_c, 1, 55, 107
3, 20928, Note_off_c, 1, 55, 64
3, 20940, Note_on_c, 1, 52, 107
3, 20988, Note_off_c, 1, 52, 64
3, 21000, Note_on_c, 1, 54, 107
3, 21090, Note_off_c, 1, 54, 64
3, 21120, Note_on_c, 1, 50, 107
3, 21210, Note_off_c, 1, 50, 64
3, 21240, Note_on_c, 1, 54, 107
3, 21330, Note_off_c, 1, 54, 64
3, 21360, Note_on_c, 1, 45, 107
3, 21504, Note_off_c, 1, 45, 64
3, 21540, Note_on_c, 1, 50, 107
3, 21588, Note_off_c, 1, 50, 64
3, 21600, Note_on_c, 1, 48, 107
3, 21648, Note_off_c, 1, 48, 64
3, 21660, Note_on_c, 1, 45, 107
3, 21708, Note_off_c, 1, 45, 64
3, 21720, Note_on_c, 1, 47, 107
3, 21810, Note_off_c, 1, 47, 64
3, 21840, Note_on_c, 1, 43, 107
3, 21930, Note_off_c, 1, 43, 64
3, 22080, Note_on_c, 1, 48, 107
3, 22170, Note_off_c, 1, 48, 64
3, 22200, Note_on_c, 1, 45, 107
3, 22290, Note_off_c, 1, 45, 64
3, 22440, Note_on_c, 1, 50, 107
3, 22530, Note_off_c, 1, 50, 64
3, 22560, Note_on_c, 1, 48, 107
3, 22650, Note_off_c, 1, 48, 64
3, 22680, Note_on_c, 1, 50, 107
3, 22770, Note_off_c, 1, 50, 64
3, 22800, Note_on_c, 1, 55, 107
3, 22848, Note_off_c, 1, 55, 64
3, 22860, Note_on_c, 1, 57, 107
3, 22908, Note_off_c, 1, 57, 64
3, 22920, Note_on_c, 1, 59, 107
3, 22968, Note_off_c, 1, 59, 64
3, 22980, Note_on_c, 1, 55, 107
3, 23028, Note_off_c, 1, 55, 64
3, 23040, Note_on_c, 1, 57, 107
3, 23088, Note_off_c, 1, 57, 64
3, 23100, Note_on_c, 1, 54, 107
3, 23148, Note_off_c, 1, 54, 64
3, 23160, Note_on_c, 1, 55, 107
3, 23250, Note_off_c, 1, 55, 64
3, 23280, Note_on_c, 1, 57, 107
3, 23370, Note_off_c, 1, 57, 64
3, 23400, Note_on_c, 1, 59, 107
3, 23490, Note_off_c, 1, 59, 64
3, 23520, Note_on_c, 1, 52, 107
3, 23610, Note_off_c, 1, 52, 64
3, 23640, Note_on_c, 1, 55, 107
3, 23730, Note_off_c, 1, 55, 64
3, 23760, Note_on_c, 1, 59, 107
3, 23850, Note_off_c, 1, 59, 64
3, 23880, Note_on_c, 1, 64, 107
3, 23928, Note_off_c, 1, 64, 64
3, 23940, Note_on_c, 1, 66, 107
3, 23988, Note_off_c, 1, 66, 64
3, 24000, Note_on_c, 1, 67, 107
3, 24090, Note_off_c, 1, 67, 64
3, 24120, Note_on_c, 1, 66, 107
3, 24210, Note_off_c, 1, 66, 64
3, 24240, Note_on_c, 1, 67, 107
3, 24336, Note_off_c, 1, 67, 64
3, 24360, Note_on_c, 1, 66, 107
3, 24408, Note_off_c, 1, 66, 64
3, 24420, Note_on_c, 1, 64, 107
3, 24468, Note_off_c, 1, 64, 64
3, 24480, Note_on_c, 1, 66, 107
3, 24528, Note_off_c, 1, 66, 64
3, 24540, Note_on_c, 1, 67, 107
3, 24588, Note_off_c, 1, 67, 64
3, 24600, Note_on_c, 1, 69, 107
3, 24690, Note_off_c, 1, 69, 64
3, 24720, Note_on_c, 1, 66, 107
3, 24810, Note_off_c, 1, 66, 64
3, 24840, Note_on_c, 1, 62, 107
3, 24930, Note_off_c, 1, 62, 64
3, 24960, Note_on_c, 1, 67, 107
3, 25050, Note_off_c, 1, 67, 64
3, 25080, Note_on_c, 1, 64, 107
3, 25170, Note_off_c, 1, 64, 64
3, 25200, Note_on_c, 1, 60, 107
3, 25290, Note_off_c, 1, 60, 64
3, 25320, Note_on_c, 1, 54, 107
3, 25410, Note_off_c, 1, 54, 64
3, 25440, Note_on_c, 1, 64, 107
3, 25530, Note_off_c, 1, 64, 64
3, 25560, Note_on_c, 1, 63, 107
3, 25650, Note_off_c, 1, 63, 64
3, 25680, Note_on_c, 1, 64, 107
3, 25770, Note_off_c, 1, 64, 64
3, 25800, Note_on_c, 1, 52, 107
3, 25890, Note_off_c, 1, 52, 64
3, 25920, Note_on_c, 1, 54, 107
3, 26010, Note_off_c, 1, 54, 64
3, 26040, Note_on_c, 1, 55, 107
3, 26130, Note_off_c, 1, 55, 64
3, 26160, Note_on_c, 1, 57, 107
3, 26250, Note_off_c, 1, 57, 64
3, 26280, Note_on_c, 1, 59, 107
3, 26370, Note_off_c, 1, 59, 64
3, 26400, Note_on_c, 1, 52, 107
3, 26490, Note_off_c, 1, 52, 64
3, 26520, Note_on_c, 1, 55, 107
3, 26610, Note_off_c, 1, 55, 64
3, 26640, Note_on_c, 1, 59, 107
3, 26730, Note_off_c, 1, 59, 64
3, 26760, Note_on_c, 1, 64, 107
3, 26808, Note_off_c, 1, 64, 64
3, 26820, Note_on_c, 1, 66, 107
3, 26868, Note_off_c, 1, 66, 64
3, 26880, Note_on_c, 1, 67, 107
3, 26970, Note_off_c, 1, 67, 64
3, 27000, Note_on_c, 1, 66, 107
3, 27090, Note_off_c, 1, 66, 64
3, 27120, Note_on_c, 1, 67, 107
3, 27216, Note_off_c, 1, 67, 64
3, 27240, Note_on_c, 1, 66, 107
3, 27288, Note_off_c, 1, 66, 64
3, 27300, Note_on_c, 1, 64, 107
3, 27348, Note_off_c, 1, 64, 64
3, 27360, Note_on_c, 1, 66, 107
3, 27408, Note_off_c, 1, 66, 64
3, 27420, Note_on_c, 1, 67, 107
3, 27468, Note_off_c, 1, 67, 64
3, 27480, Note_on_c, 1, 69, 107
3, 27570, Note_off_c, 1, 69, 64
3, 27600, Note_on_c, 1, 66, 107
3, 27690, Note_off_c, 1, 66, 64
3, 27720, Note_on_c, 1, 62, 107
3, 27810, Note_off_c, 1, 62, 64
3, 27840, Note_on_c, 1, 67, 107
3, 27888, Note_off_c, 1, 67, 64
3, 27900, Note_on_c, 1, 66, 107
3, 27948, Note_off_c, 1, 66, 64
3, 27960, Note_on_c, 1, 64, 107
3, 28008, Note_off_c, 1, 64, 64
3, 28020, Note_on_c, 1, 62, 107
3, 28068, Note_off_c, 1, 62, 64
3, 28080, Note_on_c, 1, 60, 107
3, 28128, Note_off_c, 1, 60, 64
3, 28140, Note_on_c, 1, 59, 107
3, 28188, Note_off_c, 1, 59, 64
3, 28200, Note_on_c, 1, 60, 107
3, 28248, Note_off_c, 1, 60, 64
3, 28260, Note_on_c, 1, 57, 107
3, 28308, Note_off_c, 1, 57, 64
3, 28320, Note_on_c, 1, 59, 107
3, 28410, Note_off_c, 1, 59, 64
3, 28440, Note_on_c, 1, 47, 107
3, 28530, Note_off_c, 1, 47, 64
3, 28560, Note_on_c, 1, 52, 107
3, 28650, Note_off_c, 1, 52, 64
3, 28680, Note_on_c, 1, 40, 107
3, 28770, Note_off_c, 1, 40, 64
3, 28770, End_track
4, 0, Start_track
4, 0, Title_t, "Arr. Gary Bricault, (c) 1997"
4, 0, End_track
0, 0, End_of_file
