0, 0, Header, 1, 4, 240
1, 0, Start_track
1, 0, Time_signature, 3, 2, 24, 8
1, 0, Tempo, 454545
1, 0, End_track
2, 0, Start_track
2, 0, Title_t, "English Suite 4, 5. Minuet 1"
2, 0, Program_c, 0, 0
2, 0, Note_on_c, 0, 65, 100
2, 96, Note_off_c, 0, 65, 64
2, 120, Note_on_c, 0, 67, 100
2, 216, Note_off_c, 0, 67, 64
2, 240, Note_on_c, 0, 69, 100
2, 264, Note_off_c, 0, 69, 64
2, 270, Note_on_c, 0, 67, 100
2, 294, Note_off_c, 0, 67, 64
2, 300, Note_on_c, 0, 69, 100
2, 324, Note_off_c, 0, 69, 64
2, 330, Note_on_c, 0, 67, 100
2, 552, Note_off_c, 0, 67, 64
2, 600, Note_on_c, 0, 65, 100
2, 648, Note_off_c, 0, 65, 64
2, 660, Note_on_c, 0, 67, 100
2, 708, Note_off_c, 0, 67, 64
2, 720, Note_on_c, 0, 69, 100
2, 816, Note_off_c, 0, 69, 64
2, 840, Note_on_c, 0, 70, 100
2, 936, Note_off_c, 0, 70, 64
2, 960, Note_on_c, 0, 72, 100
2, 1152, Note_off_c, 0, 72, 64
2, 1200, Note_on_c, 0, 77, 100
2, 1392, Note_off_c, 0, 77, 64
2, 1440, Note_on_c, 0, 69, 100
2, 1536, Note_off_c, 0, 69, 64
2, 1560, Note_on_c, 0, 70, 100
2, 1656, Note_off_c, 0, 70, 64
2, 1680, Note_on_c, 0, 72, 100
2, 1872, Note_off_c, 0, 72, 64
2, 1920, Note_on_c, 0, 74, 100
2, 2112, Note_off_c, 0, 74, 64
2, 2160, Note_on_c, 0, 72, 100
2, 2184, Note_off_c, 0, 72, 64
2, 2190, Note_on_c, 0, 70, 100
2, 2214, Note_off_c, 0, 70, 64
2, 2220, Note_on_c, 0, 72, 100
2, 2244, Note_off_c, 0, 72, 64
2, 2250, Note_on_c, 0, 70, 100
2, 2784, Note_off_c, 0, 70, 64
2, 2880, Note_on_c, 0, 67, 100
2, 2976, Note_off_c, 0, 67, 64
2, 3000, Note_on_c, 0, 69, 100
2, 3096, Note_off_c, 0, 69, 64
2, 3120, Note_on_c, 0, 70, 100
2, 3144, Note_off_c, 0, 70, 64
2, 3150, Note_on_c, 0, 69, 100
2, 3174, Note_off_c, 0, 69, 64
2, 3180, Note_on_c, 0, 70, 100
2, 3204, Note_off_c, 0, 70, 64
2, 3210, Note_on_c, 0, 69, 100
2, 3432, Note_off_c, 0, 69, 64
2, 3480, Note_on_c, 0, 67, 100
2, 3528, Note_off_c, 0, 67, 64
2, 3540, Note_on_c, 0, 69, 100
2, 3588, Note_off_c, 0, 69, 64
2, 3600, Note_on_c, 0, 70, 100
2, 3696, Note_off_c, 0, 70, 64
2, 3720, Note_on_c, 0, 72, 100
2, 3816, Note_off_c, 0, 72, 64
2, 3840, Note_on_c, 0, 74, 100
2, 4032, Note_off_c, 0, 74, 64
2, 4080, Note_on_c, 0, 79, 100
2, 4272, Note_off_c, 0, 79, 64
2, 4320, Note_on_c, 0, 77, 100
2, 4416, Note_off_c, 0, 77, 64
2, 4440, Note_on_c, 0, 76, 100
2, 4536, Note_off_c, 0, 76, 64
2, 4560, Note_on_c, 0, 74, 100
2, 4656, Note_off_c, 0, 74, 64
2, 4680, Note_on_c, 0, 72, 100
2, 4776, Note_off_c, 0, 72, 64
2, 4800, Note_on_c, 0, 70, 100
2, 4896, Note_off_c, 0, 70, 64
2, 4920, Note_on_c, 0, 69, 100
2, 5016, Note_off_c, 0, 69, 64
2, 5040, Note_on_c, 0, 67, 100
2, 5136, Note_off_c, 0, 67, 64
2, 5160, Note_on_c, 0, 69, 100
2, 5256, Note_off_c, 0, 69, 64
2, 5280, Note_on_c, 0, 70, 100
2, 5376, Note_off_c, 0, 70, 64
2, 5400, Note_on_c, 0, 69, 100
2, 5496, Note_off_c, 0, 69, 64
2, 5520, Note_on_c, 0, 67, 100
2, 5616, Note_off_c, 0, 67, 64
2, 5640, Note_on_c, 0, 65, 100
2, 5736, Note_off_c, 0, 65, 64
2, 5760, Note_on_c, 0, 69, 100
2, 5856, Note_off_c, 0, 69, 64
2, 5880, Note_on_c, 0, 71, 100
2, 5976, Note_off_c, 0, 71, 64
2, 6000, Note_on_c, 0, 72, 100
2, 6024, Note_off_c, 0, 72, 64
2, 6030, Note_on_c, 0, 71, 100
2, 6054, Note_off_c, 0, 71, 64
2, 6060, Note_on_c, 0, 72, 100
2, 6084, Note_off_c, 0, 72, 64
2, 6090, Note_on_c, 0, 71, 100
2, 6312, Note_off_c, 0, 71, 64
2, 6360, Note_on_c, 0, 69, 100
2, 6408, Note_off_c, 0, 69, 64
2, 6420, Note_on_c, 0, 71, 100
2, 6468, Note_off_c, 0, 71, 64
2, 6480, Note_on_c, 0, 72, 100
2, 6576, Note_off_c, 0, 72, 64
2, 6600, Note_on_c, 0, 74, 100
2, 6696, Note_off_c, 0, 74, 64
2, 6720, Note_on_c, 0, 76, 100
2, 6816, Note_off_c, 0, 76, 64
2, 6840, Note_on_c, 0, 74, 100
2, 6936, Note_off_c, 0, 74, 64
2, 6960, Note_on_c, 0, 77, 100
2, 7056, Note_off_c, 0, 77, 64
2, 7080, Note_on_c, 0, 76, 100
2, 7176, Note_off_c, 0, 76, 64
2, 7200, Note_on_c, 0, 76, 100
2, 7296, Note_off_c, 0, 76, 64
2, 7320, Note_on_c, 0, 77, 100
2, 7416, Note_off_c, 0, 77, 64
2, 7440, Note_on_c, 0, 79, 100
2, 7464, Note_off_c, 0, 79, 64
2, 7470, Note_on_c, 0, 77, 100
2, 7494, Note_off_c, 0, 77, 64
2, 7500, Note_on_c, 0, 79, 100
2, 7524, Note_off_c, 0, 79, 64
2, 7530, Note_on_c, 0, 77, 100
2, 7752, Note_off_c, 0, 77, 64
2, 7800, Note_on_c, 0, 76, 100
2, 7848, Note_off_c, 0, 76, 64
2, 7860, Note_on_c, 0, 77, 100
2, 7908, Note_off_c, 0, 77, 64
2, 7920, Note_on_c, 0, 79, 100
2, 8496, Note_off_c, 0, 79, 64
2, 8640, Note_on_c, 0, 81, 100
2, 8832, Note_off_c, 0, 81, 64
2, 8880, Note_on_c, 0, 74, 100
2, 8976, Note_off_c, 0, 74, 64
2, 9000, Note_on_c, 0, 76, 100
2, 9096, Note_off_c, 0, 76, 64
2, 9120, Note_on_c, 0, 77, 100
2, 9216, Note_off_c, 0, 77, 64
2, 9240, Note_on_c, 0, 74, 100
2, 9336, Note_off_c, 0, 74, 64
2, 9360, Note_on_c, 0, 79, 100
2, 9552, Note_off_c, 0, 79, 64
2, 9600, Note_on_c, 0, 71, 100
2, 9792, Note_off_c, 0, 71, 64
2, 9840, Note_on_c, 0, 72, 100
2, 10176, Note_off_c, 0, 72, 64
2, 10200, Note_on_c, 0, 77, 100
2, 10296, Note_off_c, 0, 77, 64
2, 10320, Note_on_c, 0, 76, 100
2, 10344, Note_off_c, 0, 76, 64
2, 10350, Note_on_c, 0, 74, 100
2, 10374, Note_off_c, 0, 74, 64
2, 10380, Note_on_c, 0, 76, 100
2, 10404, Note_off_c, 0, 76, 64
2, 10410, Note_on_c, 0, 74, 100
2, 10632, Note_off_c, 0, 74, 64
2, 10680, Note_on_c, 0, 72, 100
2, 10776, Note_off_c, 0, 72, 64
2, 10800, Note_on_c, 0, 72, 100
2, 11376, Note_off_c, 0, 72, 64
2, 11520, Note_on_c, 0, 65, 100
2, 11616, Note_off_c, 0, 65, 64
2, 11640, Note_on_c, 0, 67, 100
2, 11736, Note_off_c, 0, 67, 64
2, 11760, Note_on_c, 0, 69, 100
2, 11784, Note_off_c, 0, 69, 64
2, 11790, Note_on_c, 0, 67, 100
2, 11814, Note_off_c, 0, 67, 64
2, 11820, Note_on_c, 0, 69, 100
2, 11844, Note_off_c, 0, 69, 64
2, 11850, Note_on_c, 0, 67, 100
2, 12072, Note_off_c, 0, 67, 64
2, 12120, Note_on_c, 0, 65, 100
2, 12168, Note_off_c, 0, 65, 64
2, 12180, Note_on_c, 0, 67, 100
2, 12228, Note_off_c, 0, 67, 64
2, 12240, Note_on_c, 0, 69, 100
2, 12336, Note_off_c, 0, 69, 64
2, 12360, Note_on_c, 0, 70, 100
2, 12456, Note_off_c, 0, 70, 64
2, 12480, Note_on_c, 0, 72, 100
2, 12672, Note_off_c, 0, 72, 64
2, 12720, Note_on_c, 0, 77, 100
2, 12912, Note_off_c, 0, 77, 64
2, 12960, Note_on_c, 0, 69, 100
2, 13056, Note_off_c, 0, 69, 64
2, 13080, Note_on_c, 0, 70, 100
2, 13176, Note_off_c, 0, 70, 64
2, 13200, Note_on_c, 0, 72, 100
2, 13392, Note_off_c, 0, 72, 64
2, 13440, Note_on_c, 0, 74, 100
2, 13632, Note_off_c, 0, 74, 64
2, 13680, Note_on_c, 0, 72, 100
2, 13704, Note_off_c, 0, 72, 64
2, 13710, Note_on_c, 0, 70, 100
2, 13734, Note_off_c, 0, 70, 64
2, 13740, Note_on_c, 0, 72, 100
2, 13764, Note_off_c, 0, 72, 64
2, 13770, Note_on_c, 0, 70, 100
2, 14304, Note_off_c, 0, 70, 64
2, 14400, Note_on_c, 0, 67, 100
2, 14496, Note_off_c, 0, 67, 64
2, 14520, Note_on_c, 0, 69, 100
2, 14616, Note_off_c, 0, 69, 64
2, 14640, Note_on_c, 0, 70, 100
2, 14664, Note_off_c, 0, 70, 64
2, 14670, Note_on_c, 0, 69, 100
2, 14694, Note_off_c, 0, 69, 64
2, 14700, Note_on_c, 0, 70, 100
2, 14724, Note_off_c, 0, 70, 64
2, 14730, Note_on_c, 0, 69, 100
2, 14952, Note_off_c, 0, 69, 64
2, 15000, Note_on_c, 0, 67, 100
2, 15048, Note_off_c, 0, 67, 64
2, 15060, Note_on_c, 0, 69, 100
2, 15108, Note_off_c, 0, 69, 64
2, 15120, Note_on_c, 0, 70, 100
2, 15216, Note_off_c, 0, 70, 64
2, 15240, Note_on_c, 0, 72, 100
2, 15336, Note_off_c, 0, 72, 64
2, 15360, Note_on_c, 0, 74, 100
2, 15552, Note_off_c, 0, 74, 64
2, 15600, Note_on_c, 0, 79, 100
2, 15792, Note_off_c, 0, 79, 64
2, 15840, Note_on_c, 0, 77, 100
2, 15936, Note_off_c, 0, 77, 64
2, 15960, Note_on_c, 0, 76, 100
2, 16056, Note_off_c, 0, 76, 64
2, 16080, Note_on_c, 0, 74, 100
2, 16176, Note_off_c, 0, 74, 64
2, 16200, Note_on_c, 0, 72, 100
2, 16296, Note_off_c, 0, 72, 64
2, 16320, Note_on_c, 0, 70, 100
2, 16416, Note_off_c, 0, 70, 64
2, 16440, Note_on_c, 0, 69, 100
2, 16536, Note_off_c, 0, 69, 64
2, 16560, Note_on_c, 0, 67, 100
2, 16656, Note_off_c, 0, 67, 64
2, 16680, Note_on_c, 0, 69, 100
2, 16776, Note_off_c, 0, 69, 64
2, 16800, Note_on_c, 0, 70, 100
2, 16896, Note_off_c, 0, 70, 64
2, 16920, Note_on_c, 0, 69, 100
2, 17016, Note_off_c, 0, 69, 64
2, 17040, Note_on_c, 0, 67, 100
2, 17136, Note_off_c, 0, 67, 64
2, 17160, Note_on_c, 0, 65, 100
2, 17256, Note_off_c, 0, 65, 64
2, 17280, Note_on_c, 0, 69, 100
2, 17376, Note_off_c, 0, 69, 64
2, 17400, Note_on_c, 0, 71, 100
2, 17496, Note_off_c, 0, 71, 64
2, 17520, Note_on_c, 0, 72, 100
2, 17544, Note_off_c, 0, 72, 64
2, 17550, Note_on_c, 0, 71, 100
2, 17574, Note_off_c, 0, 71, 64
2, 17580, Note_on_c, 0, 72, 100
2, 17604, Note_off_c, 0, 72, 64
2, 17610, Note_on_c, 0, 71, 100
2, 17832, Note_off_c, 0, 71, 64
2, 17880, Note_on_c, 0, 69, 100
2, 17928, Note_off_c, 0, 69, 64
2, 17940, Note_on_c, 0, 71, 100
2, 17988, Note_off_c, 0, 71, 64
2, 18000, Note_on_c, 0, 72, 100
2, 18096, Note_off_c, 0, 72, 64
2, 18120, Note_on_c, 0, 74, 100
2, 18216, Note_off_c, 0, 74, 64
2, 18240, Note_on_c, 0, 76, 100
2, 18336, Note_off_c, 0, 76, 64
2, 18360, Note_on_c, 0, 74, 100
2, 18456, Note_off_c, 0, 74, 64
2, 18480, Note_on_c, 0, 77, 100
2, 18576, Note_off_c, 0, 77, 64
2, 18600, Note_on_c, 0, 76, 100
2, 18696, Note_off_c, 0, 76, 64
2, 18720, Note_on_c, 0, 76, 100
2, 18816, Note_off_c, 0, 76, 64
2, 18840, Note_on_c, 0, 77, 100
2, 18936, Note_off_c, 0, 77, 64
2, 18960, Note_on_c, 0, 79, 100
2, 18984, Note_off_c, 0, 79, 64
2, 18990, Note_on_c, 0, 77, 100
2, 19014, Note_off_c, 0, 77, 64
2, 19020, Note_on_c, 0, 79, 100
2, 19044, Note_off_c, 0, 79, 64
2, 19050, Note_on_c, 0, 77, 100
2, 19272, Note_off_c, 0, 77, 64
2, 19320, Note_on_c, 0, 76, 100
2, 19368, Note_off_c, 0, 76, 64
2, 19380, Note_on_c, 0, 77, 100
2, 19428, Note_off_c, 0, 77, 64
2, 19440, Note_on_c, 0, 79, 100
2, 20016, Note_off_c, 0, 79, 64
2, 20160, Note_on_c, 0, 81, 100
2, 20352, Note_off_c, 0, 81, 64
2, 20400, Note_on_c, 0, 74, 100
2, 20496, Note_off_c, 0, 74, 64
2, 20520, Note_on_c, 0, 76, 100
2, 20616, Note_off_c, 0, 76, 64
2, 20640, Note_on_c, 0, 77, 100
2, 20736, Note_off_c, 0, 77, 64
2, 20760, Note_on_c, 0, 74, 100
2, 20856, Note_off_c, 0, 74, 64
2, 20880, Note_on_c, 0, 79, 100
2, 21072, Note_off_c, 0, 79, 64
2, 21120, Note_on_c, 0, 71, 100
2, 21312, Note_off_c, 0, 71, 64
2, 21360, Note_on_c, 0, 72, 100
2, 21696, Note_off_c, 0, 72, 64
2, 21720, Note_on_c, 0, 77, 100
2, 21816, Note_off_c, 0, 77, 64
2, 21840, Note_on_c, 0, 76, 100
2, 21864, Note_off_c, 0, 76, 64
2, 21870, Note_on_c, 0, 74, 100
2, 21894, Note_off_c, 0, 74, 64
2, 21900, Note_on_c, 0, 76, 100
2, 21924, Note_off_c, 0, 76, 64
2, 21930, Note_on_c, 0, 74, 100
2, 22152, Note_off_c, 0, 74, 64
2, 22200, Note_on_c, 0, 72, 100
2, 22296, Note_off_c, 0, 72, 64
2, 22320, Note_on_c, 0, 72, 100
2, 22896, Note_off_c, 0, 72, 64
2, 23040, Note_on_c, 0, 76, 100
2, 23136, Note_off_c, 0, 76, 64
2, 23160, Note_on_c, 0, 77, 100
2, 23256, Note_off_c, 0, 77, 64
2, 23280, Note_on_c, 0, 79, 100
2, 23304, Note_off_c, 0, 79, 64
2, 23310, Note_on_c, 0, 77, 100
2, 23334, Note_off_c, 0, 77, 64
2, 23340, Note_on_c, 0, 79, 100
2, 23364, Note_off_c, 0, 79, 64
2, 23370, Note_on_c, 0, 77, 100
2, 23592, Note_off_c, 0, 77, 64
2, 23640, Note_on_c, 0, 76, 100
2, 23688, Note_off_c, 0, 76, 64
2, 23700, Note_on_c, 0, 77, 100
2, 23748, Note_off_c, 0, 77, 64
2, 23760, Note_on_c, 0, 79, 100
2, 23856, Note_off_c, 0, 79, 64
2, 23880, Note_on_c, 0, 77, 100
2, 23976, Note_off_c, 0, 77, 64
2, 24000, Note_on_c, 0, 76, 100
2, 24096, Note_off_c, 0, 76, 64
2, 24120, Note_on_c, 0, 74, 100
2, 24216, Note_off_c, 0, 74, 64
2, 24240, Note_on_c, 0, 76, 100
2, 24336, Note_off_c, 0, 76, 64
2, 24360, Note_on_c, 0, 72, 100
2, 24456, Note_off_c, 0, 72, 64
2, 24480, Note_on_c, 0, 77, 100
2, 24576, Note_off_c, 0, 77, 64
2, 24600, Note_on_c, 0, 79, 100
2, 24696, Note_off_c, 0, 79, 64
2, 24720, Note_on_c, 0, 81, 100
2, 24744, Note_off_c, 0, 81, 64
2, 24750, Note_on_c, 0, 79, 100
2, 24774, Note_off_c, 0, 79, 64
2, 24780, Note_on_c, 0, 81, 100
2, 24804, Note_off_c, 0, 81, 64
2, 24810, Note_on_c, 0, 79, 100
2, 25032, Note_off_c, 0, 79, 64
2, 25080, Note_on_c, 0, 77, 100
2, 25128, Note_off_c, 0, 77, 64
2, 25140, Note_on_c, 0, 79, 100
2, 25188, Note_off_c, 0, 79, 64
2, 25200, Note_on_c, 0, 81, 100
2, 25776, Note_off_c, 0, 81, 64
2, 25920, Note_on_c, 0, 69, 100
2, 26016, Note_off_c, 0, 69, 64
2, 26040, Note_on_c, 0, 71, 100
2, 26136, Note_off_c, 0, 71, 64
2, 26160, Note_on_c, 0, 73, 100
2, 26352, Note_off_c, 0, 73, 64
2, 26400, Note_on_c, 0, 74, 100
2, 26592, Note_off_c, 0, 74, 64
2, 26640, Note_on_c, 0, 73, 100
2, 26736, Note_off_c, 0, 73, 64
2, 26760, Note_on_c, 0, 74, 100
2, 26856, Note_off_c, 0, 74, 64
2, 26880, Note_on_c, 0, 76, 100
2, 27072, Note_off_c, 0, 76, 64
2, 27120, Note_on_c, 0, 77, 100
2, 27312, Note_off_c, 0, 77, 64
2, 27360, Note_on_c, 0, 77, 100
2, 27456, Note_off_c, 0, 77, 64
2, 27480, Note_on_c, 0, 76, 100
2, 27576, Note_off_c, 0, 76, 64
2, 27600, Note_on_c, 0, 77, 100
2, 27696, Note_off_c, 0, 77, 64
2, 27720, Note_on_c, 0, 76, 100
2, 27816, Note_off_c, 0, 76, 64
2, 27840, Note_on_c, 0, 74, 100
2, 27936, Note_off_c, 0, 74, 64
2, 27960, Note_on_c, 0, 73, 100
2, 28056, Note_off_c, 0, 73, 64
2, 28080, Note_on_c, 0, 74, 100
2, 28656, Note_off_c, 0, 74, 64
2, 28800, Note_on_c, 0, 77, 100
2, 28992, Note_off_c, 0, 77, 64
2, 29040, Note_on_c, 0, 75, 100
2, 29136, Note_off_c, 0, 75, 64
2, 29160, Note_on_c, 0, 74, 100
2, 29256, Note_off_c, 0, 74, 64
2, 29280, Note_on_c, 0, 72, 100
2, 29376, Note_off_c, 0, 72, 64
2, 29400, Note_on_c, 0, 74, 100
2, 29496, Note_off_c, 0, 74, 64
2, 29520, Note_on_c, 0, 75, 100
2, 29616, Note_off_c, 0, 75, 64
2, 29640, Note_on_c, 0, 74, 100
2, 29736, Note_off_c, 0, 74, 64
2, 29760, Note_on_c, 0, 72, 100
2, 29856, Note_off_c, 0, 72, 64
2, 29880, Note_on_c, 0, 70, 100
2, 29976, Note_off_c, 0, 70, 64
2, 30000, Note_on_c, 0, 74, 100
2, 30192, Note_off_c, 0, 74, 64
2, 30240, Note_on_c, 0, 79, 100
2, 30432, Note_off_c, 0, 79, 64
2, 30480, Note_on_c, 0, 77, 100
2, 30576, Note_off_c, 0, 77, 64
2, 30600, Note_on_c, 0, 76, 100
2, 30696, Note_off_c, 0, 76, 64
2, 30720, Note_on_c, 0, 74, 100
2, 30816, Note_off_c, 0, 74, 64
2, 30840, Note_on_c, 0, 76, 100
2, 30936, Note_off_c, 0, 76, 64
2, 30960, Note_on_c, 0, 77, 100
2, 31056, Note_off_c, 0, 77, 64
2, 31080, Note_on_c, 0, 76, 100
2, 31176, Note_off_c, 0, 76, 64
2, 31200, Note_on_c, 0, 74, 100
2, 31296, Note_off_c, 0, 74, 64
2, 31320, Note_on_c, 0, 72, 100
2, 31416, Note_off_c, 0, 72, 64
2, 31440, Note_on_c, 0, 74, 100
2, 31536, Note_off_c, 0, 74, 64
2, 31560, Note_on_c, 0, 76, 100
2, 31656, Note_off_c, 0, 76, 64
2, 31680, Note_on_c, 0, 77, 100
2, 31776, Note_off_c, 0, 77, 64
2, 31800, Note_on_c, 0, 79, 100
2, 31896, Note_off_c, 0, 79, 64
2, 31920, Note_on_c, 0, 81, 100
2, 31944, Note_off_c, 0, 81, 64
2, 31950, Note_on_c, 0, 79, 100
2, 31974, Note_off_c, 0, 79, 64
2, 31980, Note_on_c, 0, 81, 100
2, 32004, Note_off_c, 0, 81, 64
2, 32010, Note_on_c, 0, 79, 100
2, 32232, Note_off_c, 0, 79, 64
2, 32280, Note_on_c, 0, 77, 100
2, 32328, Note_off_c, 0, 77, 64
2, 32340, Note_on_c, 0, 79, 100
2, 32388, Note_off_c, 0, 79, 64
2, 32400, Note_on_c, 0, 81, 100
2, 32496, Note_off_c, 0, 81, 64
2, 32520, Note_on_c, 0, 82, 100
2, 32616, Note_off_c, 0, 82, 64
2, 32640, Note_on_c, 0, 84, 100
2, 32832, Note_off_c, 0, 84, 64
2, 32880, Note_on_c, 0, 72, 100
2, 33072, Note_off_c, 0, 72, 64
2, 33120, Note_on_c, 0, 74, 100
2, 33312, Note_off_c, 0, 74, 64
2, 33360, Note_on_c, 0, 76, 100
2, 33408, Note_off_c, 0, 76, 64
2, 33420, Note_on_c, 0, 77, 100
2, 33468, Note_off_c, 0, 77, 64
2, 33480, Note_on_c, 0, 79, 100
2, 33576, Note_off_c, 0, 79, 64
2, 33600, Note_on_c, 0, 77, 100
2, 33696, Note_off_c, 0, 77, 64
2, 33720, Note_on_c, 0, 76, 100
2, 33816, Note_off_c, 0, 76, 64
2, 33840, Note_on_c, 0, 77, 100
2, 34416, Note_off_c, 0, 77, 64
2, 34560, Note_on_c, 0, 76, 100
2, 34656, Note_off_c, 0, 76, 64
2, 34680, Note_on_c, 0, 77, 100
2, 34776, Note_off_c, 0, 77, 64
2, 34800, Note_on_c, 0, 79, 100
2, 34824, Note_off_c, 0, 79, 64
2, 34830, Note_on_c, 0, 77, 100
2, 34854, Note_off_c, 0, 77, 64
2, 34860, Note_on_c, 0, 79, 100
2, 34884, Note_off_c, 0, 79, 64
2, 34890, Note_on_c, 0, 77, 100
2, 35112, Note_off_c, 0, 77, 64
2, 35160, Note_on_c, 0, 76, 100
2, 35208, Note_off_c, 0, 76, 64
2, 35220, Note_on_c, 0, 77, 100
2, 35268, Note_off_c, 0, 77, 64
2, 35280, Note_on_c, 0, 79, 100
2, 35376, Note_off_c, 0, 79, 64
2, 35400, Note_on_c, 0, 77, 100
2, 35496, Note_off_c, 0, 77, 64
2, 35520, Note_on_c, 0, 76, 100
2, 35616, Note_off_c, 0, 76, 64
2, 35640, Note_on_c, 0, 74, 100
2, 35736, Note_off_c, 0, 74, 64
2, 35760, Note_on_c, 0, 76, 100
2, 35856, Note_off_c, 0, 76, 64
2, 35880, Note_on_c, 0, 72, 100
2, 35976, Note_off_c, 0, 72, 64
2, 36000, Note_on_c, 0, 77, 100
2, 36096, Note_off_c, 0, 77, 64
2, 36120, Note_on_c, 0, 79, 100
2, 36216, Note_off_c, 0, 79, 64
2, 36240, Note_on_c, 0, 81, 100
2, 36264, Note_off_c, 0, 81, 64
2, 36270, Note_on_c, 0, 79, 100
2, 36294, Note_off_c, 0, 79, 64
2, 36300, Note_on_c, 0, 81, 100
2, 36324, Note_off_c, 0, 81, 64
2, 36330, Note_on_c, 0, 79, 100
2, 36552, Note_off_c, 0, 79, 64
2, 36600, Note_on_c, 0, 77, 100
2, 36648, Note_off_c, 0, 77, 64
2, 36660, Note_on_c, 0, 79, 100
2, 36708, Note_off_c, 0, 79, 64
2, 36720, Note_on_c, 0, 81, 100
2, 37296, Note_off_c, 0, 81, 64
2, 37440, Note_on_c, 0, 69, 100
2, 37536, Note_off_c, 0, 69, 64
2, 37560, Note_on_c, 0, 71, 100
2, 37656, Note_off_c, 0, 71, 64
2, 37680, Note_on_c, 0, 73, 100
2, 37872, Note_off_c, 0, 73, 64
2, 37920, Note_on_c, 0, 74, 100
2, 38112, Note_off_c, 0, 74, 64
2, 38160, Note_on_c, 0, 73, 100
2, 38256, Note_off_c, 0, 73, 64
2, 38280, Note_on_c, 0, 74, 100
2, 38376, Note_off_c, 0, 74, 64
2, 38400, Note_on_c, 0, 76, 100
2, 38592, Note_off_c, 0, 76, 64
2, 38640, Note_on_c, 0, 77, 100
2, 38832, Note_off_c, 0, 77, 64
2, 38880, Note_on_c, 0, 77, 100
2, 38976, Note_off_c, 0, 77, 64
2, 39000, Note_on_c, 0, 76, 100
2, 39096, Note_off_c, 0, 76, 64
2, 39120, Note_on_c, 0, 77, 100
2, 39216, Note_off_c, 0, 77, 64
2, 39240, Note_on_c, 0, 76, 100
2, 39336, Note_off_c, 0, 76, 64
2, 39360, Note_on_c, 0, 74, 100
2, 39456, Note_off_c, 0, 74, 64
2, 39480, Note_on_c, 0, 73, 100
2, 39576, Note_off_c, 0, 73, 64
2, 39600, Note_on_c, 0, 74, 100
2, 40176, Note_off_c, 0, 74, 64
2, 40320, Note_on_c, 0, 77, 100
2, 40512, Note_off_c, 0, 77, 64
2, 40560, Note_on_c, 0, 75, 100
2, 40656, Note_off_c, 0, 75, 64
2, 40680, Note_on_c, 0, 74, 100
2, 40776, Note_off_c, 0, 74, 64
2, 40800, Note_on_c, 0, 72, 100
2, 40896, Note_off_c, 0, 72, 64
2, 40920, Note_on_c, 0, 74, 100
2, 41016, Note_off_c, 0, 74, 64
2, 41040, Note_on_c, 0, 75, 100
2, 41136, Note_off_c, 0, 75, 64
2, 41160, Note_on_c, 0, 74, 100
2, 41256, Note_off_c, 0, 74, 64
2, 41280, Note_on_c, 0, 72, 100
2, 41376, Note_off_c, 0, 72, 64
2, 41400, Note_on_c, 0, 70, 100
2, 41496, Note_off_c, 0, 70, 64
2, 41520, Note_on_c, 0, 74, 100
2, 41712, Note_off_c, 0, 74, 64
2, 41760, Note_on_c, 0, 79, 100
2, 41952, Note_off_c, 0, 79, 64
2, 42000, Note_on_c, 0, 77, 100
2, 42096, Note_off_c, 0, 77, 64
2, 42120, Note_on_c, 0, 76, 100
2, 42216, Note_off_c, 0, 76, 64
2, 42240, Note_on_c, 0, 74, 100
2, 42336, Note_off_c, 0, 74, 64
2, 42360, Note_on_c, 0, 76, 100
2, 42456, Note_off_c, 0, 76, 64
2, 42480, Note_on_c, 0, 77, 100
2, 42576, Note_off_c, 0, 77, 64
2, 42600, Note_on_c, 0, 76, 100
2, 42696, Note_off_c, 0, 76, 64
2, 42720, Note_on_c, 0, 74, 100
2, 42816, Note_off_c, 0, 74, 64
2, 42840, Note_on_c, 0, 72, 100
2, 42936, Note_off_c, 0, 72, 64
2, 42960, Note_on_c, 0, 74, 100
2, 43056, Note_off_c, 0, 74, 64
2, 43080, Note_on_c, 0, 76, 100
2, 43176, Note_off_c, 0, 76, 64
2, 43200, Note_on_c, 0, 77, 100
2, 43296, Note_off_c, 0, 77, 64
2, 43320, Note_on_c, 0, 79, 100
2, 43416, Note_off_c, 0, 79, 64
2, 43440, Note_on_c, 0, 81, 100
2, 43464, Note_off_c, 0, 81, 64
2, 43470, Note_on_c, 0, 79, 100
2, 43494, Note_off_c, 0, 79, 64
2, 43500, Note_on_c, 0, 81, 100
2, 43524, Note_off_c, 0, 81, 64
2, 43530, Note_on_c, 0, 79, 100
2, 43752, Note_off_c, 0, 79, 64
2, 43800, Note_on_c, 0, 77, 100
2, 43848, Note_off_c, 0, 77, 64
2, 43860, Note_on_c, 0, 79, 100
2, 43908, Note_off_c, 0, 79, 64
2, 43920, Note_on_c, 0, 81, 100
2, 44016, Note_off_c, 0, 81, 64
2, 44040, Note_on_c, 0, 82, 100
2, 44136, Note_off_c, 0, 82, 64
2, 44160, Note_on_c, 0, 84, 100
2, 44352, Note_off_c, 0, 84, 64
2, 44400, Note_on_c, 0, 72, 100
2, 44592, Note_off_c, 0, 72, 64
2, 44640, Note_on_c, 0, 74, 100
2, 44832, Note_off_c, 0, 74, 64
2, 44880, Note_on_c, 0, 76, 100
2, 44928, Note_off_c, 0, 76, 64
2, 44940, Note_on_c, 0, 77, 100
2, 44988, Note_off_c, 0, 77, 64
2, 45000, Note_on_c, 0, 79, 100
2, 45096, Note_off_c, 0, 79, 64
2, 45120, Note_on_c, 0, 77, 100
2, 45216, Note_off_c, 0, 77, 64
2, 45240, Note_on_c, 0, 76, 100
2, 45336, Note_off_c, 0, 76, 64
2, 45360, Note_on_c, 0, 77, 100
2, 45936, Note_off_c, 0, 77, 64
2, 45936, End_track
3, 0, Start_track
3, 0, Title_t, "J.S. Bach, Edition Kalmus"
3, 0, Program_c, 1, 0
3, 0, Note_on_c, 1, 53, 100
3, 192, Note_off_c, 1, 53, 64
3, 240, Note_on_c, 1, 52, 100
3, 336, Note_off_c, 1, 52, 64
3, 360, Note_on_c, 1, 50, 100
3, 456, Note_off_c, 1, 50, 64
3, 480, Note_on_c, 1, 52, 100
3, 576, Note_off_c, 1, 52, 64
3, 600, Note_on_c, 1, 48, 100
3, 696, Note_off_c, 1, 48, 64
3, 720, Note_on_c, 1, 53, 100
3, 912, Note_off_c, 1, 53, 64
3, 960, Note_on_c, 1, 41, 100
3, 1056, Note_off_c, 1, 41, 64
3, 1080, Note_on_c, 1, 43, 100
3, 1176, Note_off_c, 1, 43, 64
3, 1200, Note_on_c, 1, 45, 100
3, 1296, Note_off_c, 1, 45, 64
3, 1320, Note_on_c, 1, 46, 100
3, 1416, Note_off_c, 1, 46, 64
3, 1440, Note_on_c, 1, 48, 100
3, 1536, Note_off_c, 1, 48, 64
3, 1560, Note_on_c, 1, 50, 100
3, 1656, Note_off_c, 1, 50, 64
3, 1680, Note_on_c, 1, 52, 100
3, 1776, Note_off_c, 1, 52, 64
3, 1800, Note_on_c, 1, 55, 100
3, 1896, Note_off_c, 1, 55, 64
3, 1920, Note_on_c, 1, 54, 100
3, 2016, Note_off_c, 1, 54, 64
3, 2040, Note_on_c, 1, 57, 100
3, 2136, Note_off_c, 1, 57, 64
3, 2160, Note_on_c, 1, 55, 100
3, 2256, Note_off_c, 1, 55, 64
3, 2280, Note_on_c, 1, 57, 100
3, 2376, Note_off_c, 1, 57, 64
3, 2400, Note_on_c, 1, 58, 100
3, 2496, Note_off_c, 1, 58, 64
3, 2520, Note_on_c, 1, 57, 100
3, 2616, Note_off_c, 1, 57, 64
3, 2640, Note_on_c, 1, 55, 100
3, 2736, Note_off_c, 1, 55, 64
3, 2760, Note_on_c, 1, 53, 100
3, 2856, Note_off_c, 1, 53, 64
3, 2880, Note_on_c, 1, 52, 100
3, 2976, Note_off_c, 1, 52, 64
3, 3000, Note_on_c, 1, 50, 100
3, 3096, Note_off_c, 1, 50, 64
3, 3120, Note_on_c, 1, 48, 100
3, 3216, Note_off_c, 1, 48, 64
3, 3240, Note_on_c, 1, 50, 100
3, 3336, Note_off_c, 1, 50, 64
3, 3360, Note_on_c, 1, 52, 100
3, 3456, Note_off_c, 1, 52, 64
3, 3480, Note_on_c, 1, 53, 100
3, 3576, Note_off_c, 1, 53, 64
3, 3600, Note_on_c, 1, 55, 100
3, 3792, Note_off_c, 1, 55, 64
3, 3840, Note_on_c, 1, 43, 100
3, 3936, Note_off_c, 1, 43, 64
3, 3960, Note_on_c, 1, 45, 100
3, 4056, Note_off_c, 1, 45, 64
3, 4080, Note_on_c, 1, 46, 100
3, 4176, Note_off_c, 1, 46, 64
3, 4200, Note_on_c, 1, 43, 100
3, 4296, Note_off_c, 1, 43, 64
3, 4320, Note_on_c, 1, 48, 100
3, 4512, Note_off_c, 1, 48, 64
3, 4560, Note_on_c, 1, 50, 100
3, 4752, Note_off_c, 1, 50, 64
3, 4800, Note_on_c, 1, 52, 100
3, 4992, Note_off_c, 1, 52, 64
3, 5040, Note_on_c, 1, 53, 100
3, 5232, Note_off_c, 1, 53, 64
3, 5280, Note_on_c, 1, 48, 100
3, 5472, Note_off_c, 1, 48, 64
3, 5520, Note_on_c, 1, 45, 100
3, 5712, Note_off_c, 1, 45, 64
3, 5760, Note_on_c, 1, 41, 100
3, 5952, Note_off_c, 1, 41, 64
3, 6000, Note_on_c, 1, 53, 100
3, 6096, Note_off_c, 1, 53, 64
3, 6120, Note_on_c, 1, 52, 100
3, 6216, Note_off_c, 1, 52, 64
3, 6240, Note_on_c, 1, 53, 100
3, 6336, Note_off_c, 1, 53, 64
3, 6360, Note_on_c, 1, 50, 100
3, 6456, Note_off_c, 1, 50, 64
3, 6480, Note_on_c, 1, 52, 100
3, 6672, Note_off_c, 1, 52, 64
3, 6720, Note_on_c, 1, 53, 100
3, 6912, Note_off_c, 1, 53, 64
3, 6960, Note_on_c, 1, 55, 100
3, 7152, Note_off_c, 1, 55, 64
3, 7200, Note_on_c, 1, 48, 100
3, 7296, Note_off_c, 1, 48, 64
3, 7320, Note_on_c, 1, 50, 100
3, 7416, Note_off_c, 1, 50, 64
3, 7440, Note_on_c, 1, 52, 100
3, 7536, Note_off_c, 1, 52, 64
3, 7560, Note_on_c, 1, 50, 100
3, 7656, Note_off_c, 1, 50, 64
3, 7680, Note_on_c, 1, 48, 100
3, 7776, Note_off_c, 1, 48, 64
3, 7800, Note_on_c, 1, 50, 100
3, 7896, Note_off_c, 1, 50, 64
3, 7920, Note_on_c, 1, 52, 100
3, 8016, Note_off_c, 1, 52, 64
3, 8040, Note_on_c, 1, 50, 100
3, 8136, Note_off_c, 1, 50, 64
3, 8160, Note_on_c, 1, 53, 100
3, 8256, Note_off_c, 1, 53, 64
3, 8280, Note_on_c, 1, 52, 100
3, 8376, Note_off_c, 1, 52, 64
3, 8400, Note_on_c, 1, 50, 100
3, 8496, Note_off_c, 1, 50, 64
3, 8520, Note_on_c, 1, 48, 100
3, 8616, Note_off_c, 1, 48, 64
3, 8640, Note_on_c, 1, 53, 100
3, 8736, Note_off_c, 1, 53, 64
3, 8760, Note_on_c, 1, 52, 100
3, 8856, Note_off_c, 1, 52, 64
3, 8880, Note_on_c, 1, 53, 100
3, 9456, Note_off_c, 1, 53, 64
3, 9480, Note_on_c, 1, 52, 100
3, 9576, Note_off_c, 1, 52, 64
3, 9600, Note_on_c, 1, 53, 100
3, 9696, Note_off_c, 1, 53, 64
3, 9720, Note_on_c, 1, 55, 100
3, 9816, Note_off_c, 1, 55, 64
3, 9840, Note_on_c, 1, 57, 100
3, 9936, Note_off_c, 1, 57, 64
3, 9960, Note_on_c, 1, 52, 100
3, 10056, Note_off_c, 1, 52, 64
3, 10080, Note_on_c, 1, 53, 100
3, 10176, Note_off_c, 1, 53, 64
3, 10200, Note_on_c, 1, 50, 100
3, 10296, Note_off_c, 1, 50, 64
3, 10320, Note_on_c, 1, 55, 100
3, 10512, Note_off_c, 1, 55, 64
3, 10560, Note_on_c, 1, 43, 100
3, 10752, Note_off_c, 1, 43, 64
3, 10800, Note_on_c, 1, 48, 100
3, 10896, Note_off_c, 1, 48, 64
3, 10920, Note_on_c, 1, 46, 100
3, 11016, Note_off_c, 1, 46, 64
3, 11040, Note_on_c, 1, 48, 100
3, 11136, Note_off_c, 1, 48, 64
3, 11160, Note_on_c, 1, 50, 100
3, 11256, Note_off_c, 1, 50, 64
3, 11280, Note_on_c, 1, 48, 100
3, 11376, Note_off_c, 1, 48, 64
3, 11400, Note_on_c, 1, 46, 100
3, 11496, Note_off_c, 1, 46, 64
3, 11520, Note_on_c, 1, 45, 100
3, 11712, Note_off_c, 1, 45, 64
3, 11760, Note_on_c, 1, 46, 100
3, 11952, Note_off_c, 1, 46, 64
3, 12000, Note_on_c, 1, 48, 100
3, 12192, Note_off_c, 1, 48, 64
3, 12240, Note_on_c, 1, 53, 100
3, 12432, Note_off_c, 1, 53, 64
3, 12480, Note_on_c, 1, 41, 100
3, 12576, Note_off_c, 1, 41, 64
3, 12600, Note_on_c, 1, 43, 100
3, 12696, Note_off_c, 1, 43, 64
3, 12720, Note_on_c, 1, 45, 100
3, 12816, Note_off_c, 1, 45, 64
3, 12840, Note_on_c, 1, 46, 100
3, 12936, Note_off_c, 1, 46, 64
3, 12960, Note_on_c, 1, 48, 100
3, 13056, Note_off_c, 1, 48, 64
3, 13080, Note_on_c, 1, 50, 100
3, 13176, Note_off_c, 1, 50, 64
3, 13200, Note_on_c, 1, 52, 100
3, 13296, Note_off_c, 1, 52, 64
3, 13320, Note_on_c, 1, 55, 100
3, 13416, Note_off_c, 1, 55, 64
3, 13440, Note_on_c, 1, 54, 100
3, 13536, Note_off_c, 1, 54, 64
3, 13560, Note_on_c, 1, 57, 100
3, 13656, Note_off_c, 1, 57, 64
3, 13680, Note_on_c, 1, 55, 100
3, 13776, Note_off_c, 1, 55, 64
3, 13800, Note_on_c, 1, 57, 100
3, 13896, Note_off_c, 1, 57, 64
3, 13920, Note_on_c, 1, 58, 100
3, 14016, Note_off_c, 1, 58, 64
3, 14040, Note_on_c, 1, 57, 100
3, 14136, Note_off_c, 1, 57, 64
3, 14160, Note_on_c, 1, 55, 100
3, 14256, Note_off_c, 1, 55, 64
3, 14280, Note_on_c, 1, 53, 100
3, 14376, Note_off_c, 1, 53, 64
3, 14400, Note_on_c, 1, 52, 100
3, 14496, Note_off_c, 1, 52, 64
3, 14520, Note_on_c, 1, 50, 100
3, 14616, Note_off_c, 1, 50, 64
3, 14640, Note_on_c, 1, 48, 100
3, 14736, Note_off_c, 1, 48, 64
3, 14760, Note_on_c, 1, 50, 100
3, 14856, Note_off_c, 1, 50, 64
3, 14880, Note_on_c, 1, 52, 100
3, 14976, Note_off_c, 1, 52, 64
3, 15000, Note_on_c, 1, 53, 100
3, 15096, Note_off_c, 1, 53, 64
3, 15120, Note_on_c, 1, 55, 100
3, 15312, Note_off_c, 1, 55, 64
3, 15360, Note_on_c, 1, 43, 100
3, 15456, Note_off_c, 1, 43, 64
3, 15480, Note_on_c, 1, 45, 100
3, 15576, Note_off_c, 1, 45, 64
3, 15600, Note_on_c, 1, 46, 100
3, 15696, Note_off_c, 1, 46, 64
3, 15720, Note_on_c, 1, 43, 100
3, 15816, Note_off_c, 1, 43, 64
3, 15840, Note_on_c, 1, 48, 100
3, 16032, Note_off_c, 1, 48, 64
3, 16080, Note_on_c, 1, 50, 100
3, 16272, Note_off_c, 1, 50, 64
3, 16320, Note_on_c, 1, 52, 100
3, 16512, Note_off_c, 1, 52, 64
3, 16560, Note_on_c, 1, 53, 100
3, 16752, Note_off_c, 1, 53, 64
3, 16800, Note_on_c, 1, 48, 100
3, 16992, Note_off_c, 1, 48, 64
3, 17040, Note_on_c, 1, 45, 100
3, 17232, Note_off_c, 1, 45, 64
3, 17280, Note_on_c, 1, 41, 100
3, 17472, Note_off_c, 1, 41, 64
3, 17520, Note_on_c, 1, 53, 100
3, 17616, Note_off_c, 1, 53, 64
3, 17640, Note_on_c, 1, 52, 100
3, 17736, Note_off_c, 1, 52, 64
3, 17760, Note_on_c, 1, 53, 100
3, 17856, Note_off_c, 1, 53, 64
3, 17880, Note_on_c, 1, 50, 100
3, 17976, Note_off_c, 1, 50, 64
3, 18000, Note_on_c, 1, 52, 100
3, 18192, Note_off_c, 1, 52, 64
3, 18240, Note_on_c, 1, 53, 100
3, 18432, Note_off_c, 1, 53, 64
3, 18480, Note_on_c, 1, 55, 100
3, 18672, Note_off_c, 1, 55, 64
3, 18720, Note_on_c, 1, 48, 100
3, 18816, Note_off_c, 1, 48, 64
3, 18840, Note_on_c, 1, 50, 100
3, 18936, Note_off_c, 1, 50, 64
3, 18960, Note_on_c, 1, 52, 100
3, 19056, Note_off_c, 1, 52, 64
3, 19080, Note_on_c, 1, 50, 100
3, 19176, Note_off_c, 1, 50, 64
3, 19200, Note_on_c, 1, 48, 100
3, 19296, Note_off_c, 1, 48, 64
3, 19320, Note_on_c, 1, 50, 100
3, 19416, Note_off_c, 1, 50, 64
3, 19440, Note_on_c, 1, 52, 100
3, 19536, Note_off_c, 1, 52, 64
3, 19560, Note_on_c, 1, 50, 100
3, 19656, Note_off_c, 1, 50, 64
3, 19680, Note_on_c, 1, 53, 100
3, 19776, Note_off_c, 1, 53, 64
3, 19800, Note_on_c, 1, 52, 100
3, 19896, Note_off_c, 1, 52, 64
3, 19920, Note_on_c, 1, 50, 100
3, 20016, Note_off_c, 1, 50, 64
3, 20040, Note_on_c, 1, 48, 100
3, 20136, Note_off_c, 1, 48, 64
3, 20160, Note_on_c, 1, 53, 100
3, 20256, Note_off_c, 1, 53, 64
3, 20280, Note_on_c, 1, 52, 100
3, 20376, Note_off_c, 1, 52, 64
3, 20400, Note_on_c, 1, 53, 100
3, 20976, Note_off_c, 1, 53, 64
3, 21000, Note_on_c, 1, 52, 100
3, 21096, Note_off_c, 1, 52, 64
3, 21120, Note_on_c, 1, 53, 100
3, 21216, Note_off_c, 1, 53, 64
3, 21240, Note_on_c, 1, 55, 100
3, 21336, Note_off_c, 1, 55, 64
3, 21360, Note_on_c, 1, 57, 100
3, 21456, Note_off_c, 1, 57, 64
3, 21480, Note_on_c, 1, 52, 100
3, 21576, Note_off_c, 1, 52, 64
3, 21600, Note_on_c, 1, 53, 100
3, 21696, Note_off_c, 1, 53, 64
3, 21720, Note_on_c, 1, 50, 100
3, 21816, Note_off_c, 1, 50, 64
3, 21840, Note_on_c, 1, 55, 100
3, 22032, Note_off_c, 1, 55, 64
3, 22080, Note_on_c, 1, 43, 100
3, 22272, Note_off_c, 1, 43, 64
3, 22320, Note_on_c, 1, 48, 100
3, 22512, Note_off_c, 1, 48, 64
3, 22560, Note_on_c, 1, 52, 100
3, 22752, Note_off_c, 1, 52, 64
3, 22800, Note_on_c, 1, 55, 100
3, 22992, Note_off_c, 1, 55, 64
3, 23040, Note_on_c, 1, 60, 100
3, 23136, Note_off_c, 1, 60, 64
3, 23160, Note_on_c, 1, 58, 100
3, 23256, Note_off_c, 1, 58, 64
3, 23280, Note_on_c, 1, 57, 100
3, 23376, Note_off_c, 1, 57, 64
3, 23400, Note_on_c, 1, 55, 100
3, 23496, Note_off_c, 1, 55, 64
3, 23520, Note_on_c, 1, 57, 100
3, 23616, Note_off_c, 1, 57, 64
3, 23640, Note_on_c, 1, 53, 100
3, 23736, Note_off_c, 1, 53, 64
3, 23760, Note_on_c, 1, 60, 100
3, 23952, Note_off_c, 1, 60, 64
3, 24000, Note_on_c, 1, 48, 100
3, 24192, Note_off_c, 1, 48, 64
3, 24240, Note_on_c, 1, 46, 100
3, 24432, Note_off_c, 1, 46, 64
3, 24480, Note_on_c, 1, 45, 100
3, 24576, Note_off_c, 1, 45, 64
3, 24600, Note_on_c, 1, 48, 100
3, 24696, Note_off_c, 1, 48, 64
3, 24720, Note_on_c, 1, 46, 100
3, 24816, Note_off_c, 1, 46, 64
3, 24840, Note_on_c, 1, 45, 100
3, 24936, Note_off_c, 1, 45, 64
3, 24960, Note_on_c, 1, 46, 100
3, 25056, Note_off_c, 1, 46, 64
3, 25080, Note_on_c, 1, 48, 100
3, 25176, Note_off_c, 1, 48, 64
3, 25200, Note_on_c, 1, 41, 100
3, 25392, Note_off_c, 1, 41, 64
3, 25440, Note_on_c, 1, 53, 100
3, 25536, Note_off_c, 1, 53, 64
3, 25560, Note_on_c, 1, 52, 100
3, 25656, Note_off_c, 1, 52, 64
3, 25680, Note_on_c, 1, 53, 100
3, 25776, Note_off_c, 1, 53, 64
3, 25800, Note_on_c, 1, 50, 100
3, 25896, Note_off_c, 1, 50, 64
3, 25920, Note_on_c, 1, 49, 100
3, 26016, Note_off_c, 1, 49, 64
3, 26040, Note_on_c, 1, 50, 100
3, 26136, Note_off_c, 1, 50, 64
3, 26160, Note_on_c, 1, 52, 100
3, 26256, Note_off_c, 1, 52, 64
3, 26280, Note_on_c, 1, 55, 100
3, 26376, Note_off_c, 1, 55, 64
3, 26400, Note_on_c, 1, 53, 100
3, 26496, Note_off_c, 1, 53, 64
3, 26520, Note_on_c, 1, 57, 100
3, 26616, Note_off_c, 1, 57, 64
3, 26640, Note_on_c, 1, 45, 100
3, 26736, Note_off_c, 1, 45, 64
3, 26760, Note_on_c, 1, 47, 100
3, 26856, Note_off_c, 1, 47, 64
3, 26880, Note_on_c, 1, 49, 100
3, 26976, Note_off_c, 1, 49, 64
3, 27000, Note_on_c, 1, 52, 100
3, 27096, Note_off_c, 1, 52, 64
3, 27120, Note_on_c, 1, 50, 100
3, 27216, Note_off_c, 1, 50, 64
3, 27240, Note_on_c, 1, 53, 100
3, 27336, Note_off_c, 1, 53, 64
3, 27360, Note_on_c, 1, 46, 100
3, 27552, Note_off_c, 1, 46, 64
3, 27600, Note_on_c, 1, 43, 100
3, 27792, Note_off_c, 1, 43, 64
3, 27840, Note_on_c, 1, 45, 100
3, 28032, Note_off_c, 1, 45, 64
3, 28080, Note_on_c, 1, 38, 100
3, 28176, Note_off_c, 1, 38, 64
3, 28200, Note_on_c, 1, 45, 100
3, 28296, Note_off_c, 1, 45, 64
3, 28320, Note_on_c, 1, 50, 100
3, 28416, Note_off_c, 1, 50, 64
3, 28440, Note_on_c, 1, 52, 100
3, 28536, Note_off_c, 1, 52, 64
3, 28560, Note_on_c, 1, 53, 100
3, 28656, Note_off_c, 1, 53, 64
3, 28680, Note_on_c, 1, 55, 100
3, 28776, Note_off_c, 1, 55, 64
3, 28800, Note_on_c, 1, 57, 100
3, 28896, Note_off_c, 1, 57, 64
3, 28920, Note_on_c, 1, 55, 100
3, 29016, Note_off_c, 1, 55, 64
3, 29040, Note_on_c, 1, 53, 100
3, 29136, Note_off_c, 1, 53, 64
3, 29160, Note_on_c, 1, 55, 100
3, 29256, Note_off_c, 1, 55, 64
3, 29280, Note_on_c, 1, 57, 100
3, 29472, Note_off_c, 1, 57, 64
3, 29520, Note_on_c, 1, 58, 100
3, 29712, Note_off_c, 1, 58, 64
3, 29760, Note_on_c, 1, 46, 100
3, 29856, Note_off_c, 1, 46, 64
3, 29880, Note_on_c, 1, 53, 100
3, 29976, Note_off_c, 1, 53, 64
3, 30000, Note_on_c, 1, 55, 100
3, 30096, Note_off_c, 1, 55, 64
3, 30120, Note_on_c, 1, 57, 100
3, 30216, Note_off_c, 1, 57, 64
3, 30240, Note_on_c, 1, 58, 100
3, 30336, Note_off_c, 1, 58, 64
3, 30360, Note_on_c, 1, 57, 100
3, 30456, Note_off_c, 1, 57, 64
3, 30480, Note_on_c, 1, 55, 100
3, 30576, Note_off_c, 1, 55, 64
3, 30600, Note_on_c, 1, 57, 100
3, 30696, Note_off_c, 1, 57, 64
3, 30720, Note_on_c, 1, 59, 100
3, 30912, Note_off_c, 1, 59, 64
3, 30960, Note_on_c, 1, 60, 100
3, 31152, Note_off_c, 1, 60, 64
3, 31200, Note_on_c, 1, 48, 100
3, 31296, Note_off_c, 1, 48, 64
3, 31320, Note_on_c, 1, 62, 100
3, 31416, Note_off_c, 1, 62, 64
3, 31440, Note_on_c, 1, 60, 100
3, 31536, Note_off_c, 1, 60, 64
3, 31560, Note_on_c, 1, 58, 100
3, 31656, Note_off_c, 1, 58, 64
3, 31680, Note_on_c, 1, 57, 100
3, 31776, Note_off_c, 1, 57, 64
3, 31800, Note_on_c, 1, 58, 100
3, 31896, Note_off_c, 1, 58, 64
3, 31920, Note_on_c, 1, 57, 100
3, 32016, Note_off_c, 1, 57, 64
3, 32040, Note_on_c, 1, 55, 100
3, 32136, Note_off_c, 1, 55, 64
3, 32160, Note_on_c, 1, 53, 100
3, 32256, Note_off_c, 1, 53, 64
3, 32280, Note_on_c, 1, 52, 100
3, 32376, Note_off_c, 1, 52, 64
3, 32400, Note_on_c, 1, 53, 100
3, 32496, Note_off_c, 1, 53, 64
3, 32520, Note_on_c, 1, 55, 100
3, 32616, Note_off_c, 1, 55, 64
3, 32640, Note_on_c, 1, 53, 100
3, 32736, Note_off_c, 1, 53, 64
3, 32760, Note_on_c, 1, 52, 100
3, 32856, Note_off_c, 1, 52, 64
3, 32880, Note_on_c, 1, 50, 100
3, 32976, Note_off_c, 1, 50, 64
3, 33000, Note_on_c, 1, 48, 100
3, 33096, Note_off_c, 1, 48, 64
3, 33120, Note_on_c, 1, 46, 100
3, 33216, Note_off_c, 1, 46, 64
3, 33240, Note_on_c, 1, 45, 100
3, 33336, Note_off_c, 1, 45, 64
3, 33360, Note_on_c, 1, 43, 100
3, 33552, Note_off_c, 1, 43, 64
3, 33600, Note_on_c, 1, 48, 100
3, 33792, Note_off_c, 1, 48, 64
3, 33840, Note_on_c, 1, 41, 100
3, 33936, Note_off_c, 1, 41, 64
3, 33960, Note_on_c, 1, 48, 100
3, 34056, Note_off_c, 1, 48, 64
3, 34080, Note_on_c, 1, 53, 100
3, 34176, Note_off_c, 1, 53, 64
3, 34200, Note_on_c, 1, 55, 100
3, 34296, Note_off_c, 1, 55, 64
3, 34320, Note_on_c, 1, 57, 100
3, 34416, Note_off_c, 1, 57, 64
3, 34440, Note_on_c, 1, 58, 100
3, 34536, Note_off_c, 1, 58, 64
3, 34560, Note_on_c, 1, 60, 100
3, 34656, Note_off_c, 1, 60, 64
3, 34680, Note_on_c, 1, 58, 100
3, 34776, Note_off_c, 1, 58, 64
3, 34800, Note_on_c, 1, 57, 100
3, 34896, Note_off_c, 1, 57, 64
3, 34920, Note_on_c, 1, 55, 100
3, 35016, Note_off_c, 1, 55, 64
3, 35040, Note_on_c, 1, 57, 100
3, 35136, Note_off_c, 1, 57, 64
3, 35160, Note_on_c, 1, 53, 100
3, 35256, Note_off_c, 1, 53, 64
3, 35280, Note_on_c, 1, 60, 100
3, 35472, Note_off_c, 1, 60, 64
3, 35520, Note_on_c, 1, 48, 100
3, 35712, Note_off_c, 1, 48, 64
3, 35760, Note_on_c, 1, 46, 100
3, 35952, Note_off_c, 1, 46, 64
3, 36000, Note_on_c, 1, 45, 100
3, 36096, Note_off_c, 1, 45, 64
3, 36120, Note_on_c, 1, 48, 100
3, 36216, Note_off_c, 1, 48, 64
3, 36240, Note_on_c, 1, 46, 100
3, 36336, Note_off_c, 1, 46, 64
3, 36360, Note_on_c, 1, 45, 100
3, 36456, Note_off_c, 1, 45, 64
3, 36480, Note_on_c, 1, 46, 100
3, 36576, Note_off_c, 1, 46, 64
3, 36600, Note_on_c, 1, 48, 100
3, 36696, Note_off_c, 1, 48, 64
3, 36720, Note_on_c, 1, 41, 100
3, 36912, Note_off_c, 1, 41, 64
3, 36960, Note_on_c, 1, 53, 100
3, 37056, Note_off_c, 1, 53, 64
3, 37080, Note_on_c, 1, 52, 100
3, 37176, Note_off_c, 1, 52, 64
3, 37200, Note_on_c, 1, 53, 100
3, 37296, Note_off_c, 1, 53, 64
3, 37320, Note_on_c, 1, 50, 100
3, 37416, Note_off_c, 1, 50, 64
3, 37440, Note_on_c, 1, 49, 100
3, 37536, Note_off_c, 1, 49, 64
3, 37560, Note_on_c, 1, 50, 100
3, 37656, Note_off_c, 1, 50, 64
3, 37680, Note_on_c, 1, 52, 100
3, 37776, Note_off_c, 1, 52, 64
3, 37800, Note_on_c, 1, 55, 100
3, 37896, Note_off_c, 1, 55, 64
3, 37920, Note_on_c, 1, 53, 100
3, 38016, Note_off_c, 1, 53, 64
3, 38040, Note_on_c, 1, 57, 100
3, 38136, Note_off_c, 1, 57, 64
3, 38160, Note_on_c, 1, 45, 100
3, 38256, Note_off_c, 1, 45, 64
3, 38280, Note_on_c, 1, 47, 100
3, 38376, Note_off_c, 1, 47, 64
3, 38400, Note_on_c, 1, 49, 100
3, 38496, Note_off_c, 1, 49, 64
3, 38520, Note_on_c, 1, 52, 100
3, 38616, Note_off_c, 1, 52, 64
3, 38640, Note_on_c, 1, 50, 100
3, 38736, Note_off_c, 1, 50, 64
3, 38760, Note_on_c, 1, 53, 100
3, 38856, Note_off_c, 1, 53, 64
3, 38880, Note_on_c, 1, 46, 100
3, 39072, Note_off_c, 1, 46, 64
3, 39120, Note_on_c, 1, 43, 100
3, 39312, Note_off_c, 1, 43, 64
3, 39360, Note_on_c, 1, 45, 100
3, 39552, Note_off_c, 1, 45, 64
3, 39600, Note_on_c, 1, 38, 100
3, 39696, Note_off_c, 1, 38, 64
3, 39720, Note_on_c, 1, 45, 100
3, 39816, Note_off_c, 1, 45, 64
3, 39840, Note_on_c, 1, 50, 100
3, 39936, Note_off_c, 1, 50, 64
3, 39960, Note_on_c, 1, 52, 100
3, 40056, Note_off_c, 1, 52, 64
3, 40080, Note_on_c, 1, 53, 100
3, 40176, Note_off_c, 1, 53, 64
3, 40200, Note_on_c, 1, 55, 100
3, 40296, Note_off_c, 1, 55, 64
3, 40320, Note_on_c, 1, 57, 100
3, 40416, Note_off_c, 1, 57, 64
3, 40440, Note_on_c, 1, 55, 100
3, 40536, Note_off_c, 1, 55, 64
3, 40560, Note_on_c, 1, 53, 100
3, 40656, Note_off_c, 1, 53, 64
3, 40680, Note_on_c, 1, 55, 100
3, 40776, Note_off_c, 1, 55, 64
3, 40800, Note_on_c, 1, 57, 100
3, 40992, Note_off_c, 1, 57, 64
3, 41040, Note_on_c, 1, 58, 100
3, 41232, Note_off_c, 1, 58, 64
3, 41280, Note_on_c, 1, 46, 100
3, 41376, Note_off_c, 1, 46, 64
3, 41400, Note_on_c, 1, 53, 100
3, 41496, Note_off_c, 1, 53, 64
3, 41520, Note_on_c, 1, 55, 100
3, 41616, Note_off_c, 1, 55, 64
3, 41640, Note_on_c, 1, 57, 100
3, 41736, Note_off_c, 1, 57, 64
3, 41760, Note_on_c, 1, 58, 100
3, 41856, Note_off_c, 1, 58, 64
3, 41880, Note_on_c, 1, 57, 100
3, 41976, Note_off_c, 1, 57, 64
3, 42000, Note_on_c, 1, 55, 100
3, 42096, Note_off_c, 1, 55, 64
3, 42120, Note_on_c, 1, 57, 100
3, 42216, Note_off_c, 1, 57, 64
3, 42240, Note_on_c, 1, 59, 100
3, 42432, Note_off_c, 1, 59, 64
3, 42480, Note_on_c, 1, 60, 100
3, 42672, Note_off_c, 1, 60, 64
3, 42720, Note_on_c, 1, 48, 100
3, 42816, Note_off_c, 1, 48, 64
3, 42840, Note_on_c, 1, 62, 100
3, 42936, Note_off_c, 1, 62, 64
3, 42960, Note_on_c, 1, 60, 100
3, 43056, Note_off_c, 1, 60, 64
3, 43080, Note_on_c, 1, 58, 100
3, 43176, Note_off_c, 1, 58, 64
3, 43200, Note_on_c, 1, 57, 100
3, 43296, Note_off_c, 1, 57, 64
3, 43320, Note_on_c, 1, 58, 100
3, 43416, Note_off_c, 1, 58, 64
3, 43440, Note_on_c, 1, 57, 100
3, 43536, Note_off_c, 1, 57, 64
3, 43560, Note_on_c, 1, 55, 100
3, 43656, Note_off_c, 1, 55, 64
3, 43680, Note_on_c, 1, 53, 100
3, 43776, Note_off_c, 1, 53, 64
3, 43800, Note_on_c, 1, 52, 100
3, 43896, Note_off_c, 1, 52, 64
3, 43920, Note_on_c, 1, 53, 100
3, 44016, Note_off_c, 1, 53, 64
3, 44040, Note_on_c, 1, 55, 100
3, 44136, Note_off_c, 1, 55, 64
3, 44160, Note_on_c, 1, 53, 100
3, 44256, Note_off_c, 1, 53, 64
3, 44280, Note_on_c, 1, 52, 100
3, 44376, Note_off_c, 1, 52, 64
3, 44400, Note_on_c, 1, 50, 100
3, 44496, Note_off_c, 1, 50, 64
3, 44520, Note_on_c, 1, 48, 100
3, 44616, Note_off_c, 1, 48, 64
3, 44640, Note_on_c, 1, 46, 100
3, 44736, Note_off_c, 1, 46, 64
3, 44760, Note_on_c, 1, 45, 100
3, 44856, Note_off_c, 1, 45, 64
3, 44880, Note_on_c, 1, 43, 100
3, 45072, Note_off_c, 1, 43, 64
3, 45120, Note_on_c, 1, 48, 100
3, 45312, Note_off_c, 1, 48, 64
3, 45360, Note_on_c, 1, 41, 100
3, 45936, Note_off_c, 1, 41, 64
3, 45936, End_track
4, 0, Start_track
4, 0, Title_t, "Arr. Gary Bricault, (c) 1997"
4, 0, End_track
0, 0, End_of_file
