0, 0, Header, 1, 3, 384
1, 0, Start_track
1, 0, Time_signature, 4, 2, 24, 8
1, 0, Tempo, 500000
1, 347136, End_track
2, 0, Start_track
2, 0, Text_t, "harpsichord: John Sankey"
2, 0, Program_c, 0, 6
2, 0, Pitch_bend_c, 0, 8192
2, 0, Program_c, 1, 6
2, 0, Pitch_bend_c, 1, 7792
2, 0, Program_c, 2, 6
2, 0, Pitch_bend_c, 2, 7876
2, 0, Program_c, 3, 6
2, 0, Pitch_bend_c, 3, 7952
2, 0, Program_c, 4, 6
2, 0, Pitch_bend_c, 4, 7792
2, 0, Program_c, 5, 6
2, 0, Pitch_bend_c, 5, 8112
2, 0, Program_c, 6, 6
2, 0, Pitch_bend_c, 6, 7712
2, 0, Program_c, 7, 6
2, 0, Pitch_bend_c, 7, 8037
2, 0, Program_c, 8, 6
2, 0, Pitch_bend_c, 8, 7872
2, 0, Program_c, 10, 6
2, 0, Pitch_bend_c, 10, 7712
2, 0, Program_c, 11, 6
2, 0, Pitch_bend_c, 11, 8032
2, 0, Program_c, 12, 6
2, 0, Pitch_bend_c, 12, 7872
2, 0, Title_t, "Track 1"
2, 64, Note_on_c, 10, 69, 127
2, 64, Note_on_c, 10, 45, 127
2, 194, Note_off_c, 10, 69, 127
2, 198, Note_on_c, 12, 71, 127
2, 328, Note_off_c, 12, 71, 127
2, 332, Note_on_c, 0, 72, 127
2, 596, Note_off_c, 0, 72, 127
2, 601, Note_on_c, 4, 76, 127
2, 865, Note_off_c, 4, 76, 127
2, 866, Note_off_c, 10, 45, 127
2, 870, Note_on_c, 0, 72, 127
2, 870, Note_on_c, 10, 57, 127
2, 1000, Note_off_c, 10, 57, 127
2, 1004, Note_on_c, 8, 56, 127
2, 1134, Note_off_c, 8, 56, 127
2, 1134, Note_off_c, 0, 72, 127
2, 1139, Note_on_c, 10, 69, 127
2, 1139, Note_on_c, 10, 57, 127
2, 1269, Note_off_c, 10, 57, 127
2, 1273, Note_on_c, 8, 56, 127
2, 1403, Note_off_c, 8, 56, 127
2, 1403, Note_off_c, 10, 69, 127
2, 1408, Note_on_c, 4, 64, 127
2, 1408, Note_on_c, 10, 57, 127
2, 1538, Note_off_c, 10, 57, 127
2, 1542, Note_on_c, 8, 56, 127
2, 1672, Note_off_c, 8, 56, 127
2, 1672, Note_off_c, 4, 64, 127
2, 1676, Note_on_c, 10, 69, 127
2, 1676, Note_on_c, 10, 57, 127
2, 1940, Note_off_c, 10, 57, 127
2, 1940, Note_off_c, 10, 69, 127
2, 1945, Note_on_c, 0, 72, 127
2, 1945, Note_on_c, 4, 52, 127
2, 2209, Note_off_c, 4, 52, 127
2, 2209, Note_off_c, 0, 72, 127
2, 2214, Note_on_c, 4, 76, 127
2, 2214, Note_on_c, 0, 48, 127
2, 2478, Note_off_c, 0, 48, 127
2, 2478, Note_off_c, 4, 76, 127
2, 2483, Note_on_c, 12, 71, 127
2, 2483, Note_on_c, 10, 45, 127
2, 2613, Note_off_c, 12, 71, 127
2, 2617, Note_on_c, 0, 72, 127
2, 2747, Note_off_c, 0, 72, 127
2, 2752, Note_on_c, 2, 74, 127
2, 3016, Note_off_c, 2, 74, 127
2, 3020, Note_on_c, 5, 77, 127
2, 3284, Note_off_c, 5, 77, 127
2, 3285, Note_off_c, 10, 45, 127
2, 3289, Note_on_c, 2, 74, 127
2, 3289, Note_on_c, 10, 57, 127
2, 3419, Note_off_c, 10, 57, 127
2, 3424, Note_on_c, 8, 56, 127
2, 3553, Note_off_c, 2, 74, 127
2, 3554, Note_off_c, 8, 56, 127
2, 3558, Note_on_c, 12, 71, 127
2, 3558, Note_on_c, 10, 57, 127
2, 3688, Note_off_c, 10, 57, 127
2, 3692, Note_on_c, 8, 56, 127
2, 3822, Note_off_c, 8, 56, 127
2, 3822, Note_off_c, 12, 71, 127
2, 3827, Note_on_c, 8, 68, 127
2, 3827, Note_on_c, 10, 57, 127
2, 3957, Note_off_c, 10, 57, 127
2, 3961, Note_on_c, 8, 56, 127
2, 4091, Note_off_c, 8, 56, 127
2, 4091, Note_off_c, 8, 68, 127
2, 4096, Note_on_c, 12, 71, 127
2, 4096, Note_on_c, 10, 57, 127
2, 4360, Note_off_c, 10, 57, 127
2, 4360, Note_off_c, 12, 71, 127
2, 4364, Note_on_c, 2, 74, 127
2, 4364, Note_on_c, 5, 53, 127
2, 4628, Note_off_c, 5, 53, 127
2, 4628, Note_off_c, 2, 74, 127
2, 4633, Note_on_c, 5, 77, 127
2, 4633, Note_on_c, 2, 50, 127
2, 4897, Note_off_c, 2, 50, 127
2, 4897, Note_off_c, 5, 77, 127
2, 4902, Note_on_c, 2, 74, 127
2, 4902, Note_on_c, 10, 45, 127
2, 5032, Note_off_c, 2, 74, 127
2, 5036, Note_on_c, 4, 76, 127
2, 5166, Note_off_c, 4, 76, 127
2, 5171, Note_on_c, 5, 77, 127
2, 5435, Note_off_c, 5, 77, 127
2, 5440, Note_on_c, 8, 80, 127
2, 5704, Note_off_c, 8, 80, 127
2, 5704, Note_off_c, 10, 45, 127
2, 5708, Note_on_c, 5, 77, 127
2, 5708, Note_on_c, 10, 57, 127
2, 5838, Note_off_c, 10, 57, 127
2, 5843, Note_on_c, 8, 56, 127
2, 5972, Note_off_c, 5, 77, 127
2, 5973, Note_off_c, 8, 56, 127
2, 5977, Note_on_c, 2, 74, 127
2, 5977, Note_on_c, 10, 57, 127
2, 6107, Note_off_c, 10, 57, 127
2, 6112, Note_on_c, 8, 56, 127
2, 6241, Note_off_c, 2, 74, 127
2, 6242, Note_off_c, 8, 56, 127
2, 6246, Note_on_c, 12, 71, 127
2, 6246, Note_on_c, 10, 57, 127
2, 6376, Note_off_c, 10, 57, 127
2, 6380, Note_on_c, 8, 56, 127
2, 6510, Note_off_c, 8, 56, 127
2, 6510, Note_off_c, 12, 71, 127
2, 6515, Note_on_c, 2, 74, 127
2, 6515, Note_on_c, 10, 57, 127
2, 6779, Note_off_c, 10, 57, 127
2, 6779, Note_off_c, 2, 74, 127
2, 6784, Note_on_c, 5, 77, 127
2, 6784, Note_on_c, 5, 53, 127
2, 7048, Note_off_c, 5, 53, 127
2, 7048, Note_off_c, 5, 77, 127
2, 7052, Note_on_c, 8, 80, 127
2, 7052, Note_on_c, 2, 50, 127
2, 7316, Note_off_c, 2, 50, 127
2, 7316, Note_off_c, 8, 80, 127
2, 7321, Note_on_c, 10, 81, 127
2, 7321, Note_on_c, 10, 45, 127
2, 7585, Note_off_c, 10, 81, 127
2, 7590, Note_on_c, 7, 79, 127
2, 7720, Note_off_c, 7, 79, 127
2, 7724, Note_on_c, 5, 77, 127
2, 7854, Note_off_c, 5, 77, 127
2, 7859, Note_on_c, 4, 76, 127
2, 7989, Note_off_c, 4, 76, 127
2, 7993, Note_on_c, 2, 74, 127
2, 8123, Note_off_c, 2, 74, 127
2, 8126, Note_off_c, 10, 45, 127
2, 8128, Note_on_c, 0, 72, 127
2, 8396, Note_on_c, 10, 69, 127
2, 8660, Note_off_c, 10, 69, 127
2, 8665, Note_on_c, 4, 64, 127
2, 8929, Note_off_c, 4, 64, 127
2, 8933, Note_off_c, 0, 72, 127
2, 8934, Note_on_c, 0, 60, 127
2, 9198, Note_off_c, 0, 60, 127
2, 9203, Note_on_c, 10, 57, 127
2, 9467, Note_off_c, 10, 57, 127
2, 9472, Note_on_c, 3, 63, 127
2, 9736, Note_off_c, 3, 63, 127
2, 9740, Note_on_c, 12, 71, 127
2, 9740, Note_on_c, 4, 52, 127
2, 9831, Note_on_c, 4, 76, 127
2, 9870, Note_off_c, 4, 52, 127
2, 9875, Note_on_c, 6, 54, 127
2, 9922, Note_on_c, 7, 79, 127
2, 10005, Note_off_c, 6, 54, 127
2, 10009, Note_on_c, 7, 55, 127
2, 10273, Note_off_c, 7, 55, 127
2, 10278, Note_on_c, 12, 59, 127
2, 10538, Note_off_c, 7, 79, 127
2, 10542, Note_off_c, 12, 59, 127
2, 10545, Note_off_c, 12, 71, 127
2, 10547, Note_on_c, 7, 55, 127
2, 10671, Note_off_c, 4, 76, 127
2, 10681, Note_on_c, 3, 75, 127
2, 10811, Note_off_c, 3, 75, 127
2, 10811, Note_off_c, 7, 55, 127
2, 10816, Note_on_c, 4, 76, 127
2, 10816, Note_on_c, 4, 52, 127
2, 10946, Note_off_c, 4, 76, 127
2, 10950, Note_on_c, 3, 75, 127
2, 11080, Note_off_c, 3, 75, 127
2, 11080, Note_off_c, 4, 52, 127
2, 11084, Note_on_c, 4, 76, 127
2, 11084, Note_on_c, 12, 47, 127
2, 11214, Note_off_c, 4, 76, 127
2, 11219, Note_on_c, 3, 75, 127
2, 11348, Note_off_c, 12, 47, 127
2, 11349, Note_off_c, 3, 75, 127
2, 11353, Note_on_c, 4, 76, 127
2, 11353, Note_on_c, 4, 52, 127
2, 11483, Note_off_c, 4, 76, 127
2, 11488, Note_on_c, 12, 71, 127
2, 11617, Note_off_c, 4, 52, 127
2, 11618, Note_off_c, 12, 71, 127
2, 11622, Note_on_c, 10, 69, 127
2, 11622, Note_on_c, 7, 55, 127
2, 11752, Note_off_c, 10, 69, 127
2, 11756, Note_on_c, 7, 67, 127
2, 11886, Note_off_c, 7, 67, 127
2, 11886, Note_off_c, 7, 55, 127
2, 11891, Note_on_c, 6, 66, 127
2, 11891, Note_on_c, 12, 59, 127
2, 12021, Note_off_c, 6, 66, 127
2, 12025, Note_on_c, 4, 64, 127
2, 12155, Note_off_c, 12, 59, 127
2, 12160, Note_on_c, 6, 54, 127
2, 12290, Note_off_c, 6, 54, 127
2, 12294, Note_on_c, 10, 69, 127
2, 12294, Note_on_c, 7, 55, 127
2, 12424, Note_off_c, 7, 55, 127
2, 12428, Note_on_c, 0, 72, 127
2, 12428, Note_on_c, 10, 57, 127
2, 12692, Note_off_c, 10, 57, 127
2, 12697, Note_on_c, 0, 60, 127
2, 12961, Note_off_c, 0, 60, 127
2, 12966, Note_on_c, 10, 57, 127
2, 13092, Note_off_c, 10, 69, 127
2, 13095, Note_off_c, 0, 72, 127
2, 13098, Note_off_c, 4, 64, 127
2, 13100, Note_on_c, 12, 71, 127
2, 13230, Note_off_c, 12, 71, 127
2, 13230, Note_off_c, 10, 57, 127
2, 13235, Note_on_c, 0, 72, 127
2, 13235, Note_on_c, 6, 54, 127
2, 13365, Note_off_c, 0, 72, 127
2, 13369, Note_on_c, 12, 71, 127
2, 13499, Note_off_c, 12, 71, 127
2, 13499, Note_off_c, 6, 54, 127
2, 13504, Note_on_c, 0, 72, 127
2, 13504, Note_on_c, 3, 51, 127
2, 13634, Note_off_c, 0, 72, 127
2, 13638, Note_on_c, 12, 71, 127
2, 13768, Note_off_c, 12, 71, 127
2, 13768, Note_off_c, 3, 51, 127
2, 13772, Note_on_c, 0, 72, 127
2, 13772, Note_on_c, 6, 54, 127
2, 13902, Note_off_c, 0, 72, 127
2, 13907, Note_on_c, 7, 79, 127
2, 14036, Note_off_c, 6, 54, 127
2, 14037, Note_off_c, 7, 79, 127
2, 14041, Note_on_c, 6, 78, 127
2, 14041, Note_on_c, 10, 57, 127
2, 14171, Note_off_c, 6, 78, 127
2, 14176, Note_on_c, 4, 76, 127
2, 14305, Note_off_c, 10, 57, 127
2, 14306, Note_off_c, 4, 76, 127
2, 14310, Note_on_c, 3, 75, 127
2, 14310, Note_on_c, 0, 60, 127
2, 14440, Note_off_c, 3, 75, 127
2, 14444, Note_on_c, 4, 76, 127
2, 14574, Note_off_c, 4, 76, 127
2, 14574, Note_off_c, 0, 60, 127
2, 14579, Note_on_c, 6, 66, 127
2, 14579, Note_on_c, 10, 57, 127
2, 14671, Note_on_c, 10, 69, 127
2, 14709, Note_off_c, 10, 57, 127
2, 14713, Note_on_c, 12, 59, 127
2, 14764, Note_on_c, 0, 72, 127
2, 14843, Note_off_c, 12, 59, 127
2, 14848, Note_on_c, 0, 60, 127
2, 14856, Note_on_c, 3, 75, 127
2, 15112, Note_off_c, 0, 60, 127
2, 15116, Note_on_c, 3, 63, 127
2, 15380, Note_off_c, 3, 63, 127
2, 15384, Note_off_c, 6, 66, 127
2, 15385, Note_off_c, 10, 69, 127
2, 15385, Note_on_c, 0, 60, 127
2, 15394, Note_off_c, 0, 72, 127
2, 15520, Note_on_c, 4, 76, 127
2, 15528, Note_off_c, 3, 75, 127
2, 15649, Note_off_c, 0, 60, 127
2, 15650, Note_off_c, 4, 76, 127
2, 15654, Note_on_c, 6, 78, 127
2, 15654, Note_on_c, 10, 57, 127
2, 15784, Note_off_c, 6, 78, 127
2, 15788, Note_on_c, 4, 76, 127
2, 15918, Note_off_c, 4, 76, 127
2, 15918, Note_off_c, 10, 57, 127
2, 15923, Note_on_c, 6, 78, 127
2, 15923, Note_on_c, 6, 54, 127
2, 16053, Note_off_c, 6, 78, 127
2, 16057, Note_on_c, 4, 76, 127
2, 16187, Note_off_c, 4, 76, 127
2, 16187, Note_off_c, 6, 54, 127
2, 16192, Note_on_c, 6, 78, 127
2, 16192, Note_on_c, 10, 57, 127
2, 16322, Note_off_c, 6, 78, 127
2, 16326, Note_on_c, 4, 76, 127
2, 16456, Note_off_c, 4, 76, 127
2, 16456, Note_off_c, 10, 57, 127
2, 16460, Note_on_c, 3, 75, 127
2, 16460, Note_on_c, 0, 60, 127
2, 16590, Note_off_c, 3, 75, 127
2, 16595, Note_on_c, 6, 78, 127
2, 16724, Note_off_c, 0, 60, 127
2, 16725, Note_off_c, 6, 78, 127
2, 16729, Note_on_c, 12, 71, 127
2, 16729, Note_on_c, 3, 63, 127
2, 16859, Note_off_c, 12, 71, 127
2, 16864, Note_on_c, 10, 69, 127
2, 16993, Note_off_c, 3, 63, 127
2, 16994, Note_off_c, 10, 69, 127
2, 16998, Note_on_c, 7, 67, 127
2, 16998, Note_on_c, 4, 64, 127
2, 17262, Note_off_c, 4, 64, 127
2, 17267, Note_on_c, 4, 52, 127
2, 17397, Note_off_c, 4, 52, 127
2, 17401, Note_on_c, 6, 54, 127
2, 17531, Note_off_c, 6, 54, 127
2, 17536, Note_on_c, 7, 55, 127
2, 17666, Note_off_c, 7, 55, 127
2, 17670, Note_on_c, 10, 57, 127
2, 17800, Note_off_c, 10, 57, 127
2, 17804, Note_on_c, 12, 59, 127
2, 18069, Note_off_c, 7, 67, 127
2, 18073, Note_on_c, 4, 64, 127
2, 18336, Note_off_c, 12, 59, 127
2, 18337, Note_off_c, 4, 64, 127
2, 18342, Note_on_c, 7, 67, 127
2, 18606, Note_off_c, 7, 67, 127
2, 18611, Note_on_c, 12, 71, 127
2, 18880, Note_on_c, 4, 76, 127
2, 19143, Note_off_c, 12, 71, 127
2, 19148, Note_on_c, 11, 70, 127
2, 19412, Note_off_c, 11, 70, 127
2, 19412, Note_off_c, 4, 76, 127
2, 19417, Note_on_c, 12, 71, 127
2, 19417, Note_on_c, 4, 64, 127
2, 19515, Note_on_c, 4, 76, 127
2, 19547, Note_off_c, 4, 64, 127
2, 19552, Note_on_c, 6, 66, 127
2, 19613, Note_on_c, 7, 79, 127
2, 19682, Note_off_c, 6, 66, 127
2, 19686, Note_on_c, 7, 67, 127
2, 19949, Note_off_c, 12, 71, 127
2, 19950, Note_off_c, 7, 67, 127
2, 19955, Note_on_c, 12, 71, 127
2, 20219, Note_off_c, 12, 71, 127
2, 20224, Note_on_c, 7, 67, 127
2, 20231, Note_off_c, 4, 76, 127
2, 20348, Note_off_c, 7, 79, 127
2, 20358, Note_on_c, 6, 78, 127
2, 20488, Note_off_c, 6, 78, 127
2, 20488, Note_off_c, 7, 67, 127
2, 20492, Note_on_c, 7, 79, 127
2, 20492, Note_on_c, 4, 64, 127
2, 20622, Note_off_c, 7, 79, 127
2, 20627, Note_on_c, 6, 78, 127
2, 20756, Note_off_c, 4, 64, 127
2, 20757, Note_off_c, 6, 78, 127
2, 20761, Note_on_c, 7, 79, 127
2, 20761, Note_on_c, 12, 59, 127
2, 20891, Note_off_c, 7, 79, 127
2, 20896, Note_on_c, 6, 78, 127
2, 21025, Note_off_c, 12, 59, 127
2, 21026, Note_off_c, 6, 78, 127
2, 21030, Note_on_c, 7, 79, 127
2, 21030, Note_on_c, 1, 61, 127
2, 21160, Note_off_c, 7, 79, 127
2, 21164, Note_on_c, 5, 77, 127
2, 21294, Note_off_c, 5, 77, 127
2, 21294, Note_off_c, 1, 61, 127
2, 21299, Note_on_c, 4, 76, 127
2, 21299, Note_on_c, 4, 64, 127
2, 21429, Note_off_c, 4, 76, 127
2, 21433, Note_on_c, 2, 74, 127
2, 21563, Note_off_c, 2, 74, 127
2, 21563, Note_off_c, 4, 64, 127
2, 21568, Note_on_c, 1, 73, 127
2, 21568, Note_on_c, 10, 69, 127
2, 21698, Note_off_c, 1, 73, 127
2, 21702, Note_on_c, 12, 71, 127
2, 21832, Note_off_c, 12, 71, 127
2, 21832, Note_off_c, 10, 69, 127
2, 21836, Note_on_c, 10, 69, 127
2, 21836, Note_on_c, 2, 62, 127
2, 21948, Note_on_c, 2, 74, 127
2, 21966, Note_off_c, 2, 62, 127
2, 21971, Note_on_c, 4, 64, 127
2, 22060, Note_on_c, 5, 77, 127
2, 22101, Note_off_c, 4, 64, 127
2, 22105, Note_on_c, 5, 65, 127
2, 22368, Note_off_c, 10, 69, 127
2, 22369, Note_off_c, 5, 65, 127
2, 22374, Note_on_c, 10, 69, 127
2, 22634, Note_off_c, 2, 74, 127
2, 22638, Note_off_c, 10, 69, 127
2, 22643, Note_on_c, 5, 65, 127
2, 22777, Note_on_c, 4, 76, 127
2, 22783, Note_off_c, 5, 77, 127
2, 22907, Note_off_c, 4, 76, 127
2, 22907, Note_off_c, 5, 65, 127
2, 22912, Note_on_c, 5, 77, 127
2, 22912, Note_on_c, 2, 62, 127
2, 23042, Note_off_c, 5, 77, 127
2, 23046, Note_on_c, 4, 76, 127
2, 23176, Note_off_c, 4, 76, 127
2, 23176, Note_off_c, 2, 62, 127
2, 23180, Note_on_c, 5, 77, 127
2, 23180, Note_on_c, 10, 57, 127
2, 23310, Note_off_c, 5, 77, 127
2, 23315, Note_on_c, 4, 76, 127
2, 23444, Note_off_c, 10, 57, 127
2, 23445, Note_off_c, 4, 76, 127
2, 23449, Note_on_c, 5, 77, 127
2, 23449, Note_on_c, 12, 59, 127
2, 23579, Note_off_c, 5, 77, 127
2, 23584, Note_on_c, 4, 76, 127
2, 23713, Note_off_c, 12, 59, 127
2, 23714, Note_off_c, 4, 76, 127
2, 23718, Note_on_c, 2, 74, 127
2, 23718, Note_on_c, 2, 62, 127
2, 23848, Note_off_c, 2, 74, 127
2, 23852, Note_on_c, 0, 72, 127
2, 23982, Note_off_c, 0, 72, 127
2, 23982, Note_off_c, 2, 62, 127
2, 23987, Note_on_c, 12, 71, 127
2, 23987, Note_on_c, 7, 67, 127
2, 24117, Note_off_c, 12, 71, 127
2, 24121, Note_on_c, 10, 69, 127
2, 24251, Note_off_c, 10, 69, 127
2, 24251, Note_off_c, 7, 67, 127
2, 24256, Note_on_c, 7, 67, 127
2, 24256, Note_on_c, 0, 60, 127
2, 24386, Note_off_c, 0, 60, 127
2, 24390, Note_on_c, 0, 72, 127
2, 24390, Note_on_c, 2, 62, 127
2, 24520, Note_off_c, 2, 62, 127
2, 24524, Note_on_c, 4, 76, 127
2, 24524, Note_on_c, 4, 64, 127
2, 24788, Note_off_c, 4, 64, 127
2, 24788, Note_off_c, 7, 67, 127
2, 24793, Note_on_c, 7, 67, 127
2, 25057, Note_off_c, 7, 67, 127
2, 25062, Note_on_c, 4, 64, 127
2, 25195, Note_off_c, 0, 72, 127
2, 25196, Note_off_c, 4, 76, 127
2, 25196, Note_on_c, 2, 74, 127
2, 25326, Note_off_c, 2, 74, 127
2, 25326, Note_off_c, 4, 64, 127
2, 25331, Note_on_c, 4, 76, 127
2, 25331, Note_on_c, 0, 60, 127
2, 25461, Note_off_c, 4, 76, 127
2, 25465, Note_on_c, 2, 74, 127
2, 25595, Note_off_c, 2, 74, 127
2, 25595, Note_off_c, 0, 60, 127
2, 25600, Note_on_c, 4, 76, 127
2, 25600, Note_on_c, 7, 55, 127
2, 25730, Note_off_c, 4, 76, 127
2, 25734, Note_on_c, 2, 74, 127
2, 25864, Note_off_c, 2, 74, 127
2, 25864, Note_off_c, 7, 55, 127
2, 25868, Note_on_c, 0, 72, 127
2, 25868, Note_on_c, 10, 57, 127
2, 25998, Note_off_c, 0, 72, 127
2, 26003, Note_on_c, 7, 79, 127
2, 26132, Note_off_c, 10, 57, 127
2, 26133, Note_off_c, 7, 79, 127
2, 26137, Note_on_c, 5, 77, 127
2, 26137, Note_on_c, 0, 60, 127
2, 26267, Note_off_c, 5, 77, 127
2, 26272, Note_on_c, 4, 76, 127
2, 26401, Note_off_c, 0, 60, 127
2, 26402, Note_off_c, 4, 76, 127
2, 26406, Note_on_c, 2, 74, 127
2, 26406, Note_on_c, 5, 65, 127
2, 26536, Note_off_c, 2, 74, 127
2, 26540, Note_on_c, 0, 72, 127
2, 26670, Note_off_c, 0, 72, 127
2, 26670, Note_off_c, 5, 65, 127
2, 26675, Note_on_c, 12, 71, 127
2, 26675, Note_on_c, 7, 55, 127
2, 26805, Note_off_c, 12, 71, 127
2, 26809, Note_on_c, 4, 76, 127
2, 26939, Note_off_c, 4, 76, 127
2, 26939, Note_off_c, 7, 55, 127
2, 26944, Note_on_c, 2, 74, 127
2, 26944, Note_on_c, 12, 59, 127
2, 27074, Note_off_c, 2, 74, 127
2, 27078, Note_on_c, 0, 72, 127
2, 27208, Note_off_c, 0, 72, 127
2, 27208, Note_off_c, 12, 59, 127
2, 27212, Note_on_c, 12, 71, 127
2, 27212, Note_on_c, 2, 62, 127
2, 27342, Note_off_c, 12, 71, 127
2, 27347, Note_on_c, 10, 69, 127
2, 27476, Note_off_c, 2, 62, 127
2, 27477, Note_off_c, 10, 69, 127
2, 27481, Note_on_c, 7, 67, 127
2, 27481, Note_on_c, 5, 65, 127
2, 27611, Note_off_c, 7, 67, 127
2, 27616, Note_on_c, 0, 72, 127
2, 27745, Note_off_c, 5, 65, 127
2, 27746, Note_off_c, 0, 72, 127
2, 27750, Note_on_c, 12, 71, 127
2, 27750, Note_on_c, 2, 62, 127
2, 27880, Note_off_c, 12, 71, 127
2, 27884, Note_on_c, 10, 69, 127
2, 28014, Note_off_c, 10, 69, 127
2, 28014, Note_off_c, 2, 62, 127
2, 28019, Note_on_c, 7, 67, 127
2, 28019, Note_on_c, 12, 59, 127
2, 28149, Note_off_c, 7, 67, 127
2, 28153, Note_on_c, 5, 65, 127
2, 28283, Note_off_c, 5, 65, 127
2, 28283, Note_off_c, 12, 59, 127
2, 28288, Note_on_c, 4, 64, 127
2, 28288, Note_on_c, 7, 55, 127
2, 28418, Note_off_c, 4, 64, 127
2, 28422, Note_on_c, 10, 69, 127
2, 28552, Note_off_c, 10, 69, 127
2, 28552, Note_off_c, 7, 55, 127
2, 28556, Note_on_c, 7, 67, 127
2, 28556, Note_on_c, 12, 59, 127
2, 28686, Note_off_c, 7, 67, 127
2, 28691, Note_on_c, 5, 65, 127
2, 28820, Note_off_c, 12, 59, 127
2, 28821, Note_off_c, 5, 65, 127
2, 28825, Note_on_c, 4, 64, 127
2, 28825, Note_on_c, 7, 55, 127
2, 28955, Note_off_c, 4, 64, 127
2, 28960, Note_on_c, 2, 62, 127
2, 29089, Note_off_c, 7, 55, 127
2, 29090, Note_off_c, 2, 62, 127
2, 29094, Note_on_c, 4, 64, 127
2, 29094, Note_on_c, 0, 60, 127
2, 29224, Note_off_c, 4, 64, 127
2, 29228, Note_on_c, 5, 65, 127
2, 29358, Note_off_c, 5, 65, 127
2, 29363, Note_on_c, 7, 67, 127
2, 29627, Note_off_c, 7, 67, 127
2, 29632, Note_on_c, 0, 72, 127
2, 29896, Note_off_c, 0, 72, 127
2, 29900, Note_on_c, 7, 67, 127
2, 30035, Note_on_c, 10, 57, 127
2, 30164, Note_off_c, 7, 67, 127
2, 30165, Note_off_c, 10, 57, 127
2, 30169, Note_on_c, 4, 64, 127
2, 30169, Note_on_c, 7, 55, 127
2, 30299, Note_off_c, 7, 55, 127
2, 30304, Note_on_c, 5, 53, 127
2, 30433, Note_off_c, 4, 64, 127
2, 30434, Note_off_c, 5, 53, 127
2, 30438, Note_off_c, 0, 60, 127
2, 30438, Note_on_c, 0, 60, 127
2, 30438, Note_on_c, 4, 52, 127
2, 30568, Note_off_c, 4, 52, 127
2, 30572, Note_on_c, 2, 50, 127
2, 30702, Note_off_c, 2, 50, 127
2, 30707, Note_on_c, 4, 64, 127
2, 30707, Note_on_c, 0, 48, 127
2, 30841, Note_on_c, 2, 50, 127
2, 30970, Note_off_c, 0, 60, 127
2, 30971, Note_off_c, 2, 50, 127
2, 30971, Note_off_c, 4, 64, 127
2, 30976, Note_on_c, 7, 67, 127
2, 30976, Note_on_c, 4, 52, 127
2, 31106, Note_off_c, 4, 52, 127
2, 31110, Note_on_c, 5, 53, 127
2, 31240, Note_off_c, 5, 53, 127
2, 31240, Note_off_c, 7, 67, 127
2, 31244, Note_on_c, 0, 72, 127
2, 31244, Note_on_c, 7, 55, 127
2, 31374, Note_off_c, 7, 55, 127
2, 31379, Note_on_c, 4, 52, 127
2, 31508, Note_off_c, 0, 72, 127
2, 31509, Note_off_c, 4, 52, 127
2, 31513, Note_on_c, 5, 65, 127
2, 31513, Note_on_c, 10, 57, 127
2, 31643, Note_off_c, 5, 65, 127
2, 31648, Note_on_c, 7, 67, 127
2, 31778, Note_off_c, 7, 67, 127
2, 31782, Note_on_c, 10, 69, 127
2, 32046, Note_off_c, 10, 69, 127
2, 32051, Note_on_c, 0, 72, 127
2, 32315, Note_off_c, 0, 72, 127
2, 32320, Note_on_c, 10, 69, 127
2, 32443, Note_off_c, 0, 48, 127
2, 32449, Note_off_c, 10, 57, 127
2, 32454, Note_on_c, 0, 48, 127
2, 32584, Note_off_c, 10, 69, 127
2, 32588, Note_on_c, 5, 65, 127
2, 32588, Note_on_c, 2, 50, 127
2, 32718, Note_off_c, 2, 50, 127
2, 32723, Note_on_c, 4, 52, 127
2, 32852, Note_off_c, 5, 65, 127
2, 32853, Note_off_c, 4, 52, 127
2, 32857, Note_on_c, 0, 60, 127
2, 32857, Note_on_c, 5, 53, 127
2, 32987, Note_off_c, 5, 53, 127
2, 32992, Note_on_c, 7, 55, 127
2, 33121, Note_off_c, 0, 60, 127
2, 33122, Note_off_c, 7, 55, 127
2, 33126, Note_on_c, 5, 65, 127
2, 33126, Note_on_c, 10, 57, 127
2, 33256, Note_off_c, 10, 57, 127
2, 33260, Note_on_c, 7, 55, 127
2, 33390, Note_off_c, 7, 55, 127
2, 33390, Note_off_c, 5, 65, 127
2, 33395, Note_on_c, 10, 69, 127
2, 33395, Note_on_c, 5, 53, 127
2, 33525, Note_off_c, 5, 53, 127
2, 33529, Note_on_c, 4, 52, 127
2, 33659, Note_off_c, 4, 52, 127
2, 33659, Note_off_c, 10, 69, 127
2, 33664, Note_on_c, 0, 72, 127
2, 33664, Note_on_c, 2, 50, 127
2, 33786, Note_off_c, 0, 48, 127
2, 33794, Note_off_c, 2, 50, 127
2, 33798, Note_on_c, 0, 48, 127
2, 33928, Note_off_c, 0, 72, 127
2, 33932, Note_on_c, 12, 71, 127
2, 33932, Note_on_c, 2, 50, 127
2, 34062, Note_off_c, 12, 71, 127
2, 34067, Note_on_c, 0, 72, 127
2, 34197, Note_off_c, 0, 72, 127
2, 34201, Note_on_c, 2, 74, 127
2, 34465, Note_off_c, 2, 74, 127
2, 34470, Note_on_c, 5, 77, 127
2, 34734, Note_off_c, 5, 77, 127
2, 34734, Note_off_c, 2, 50, 127
2, 34736, Note_off_c, 0, 48, 127
2, 34739, Note_on_c, 2, 74, 127
2, 34739, Note_on_c, 12, 47, 127
2, 34873, Note_on_c, 4, 52, 127
2, 35003, Note_off_c, 4, 52, 127
2, 35003, Note_off_c, 2, 74, 127
2, 35008, Note_on_c, 12, 71, 127
2, 35008, Note_on_c, 2, 50, 127
2, 35131, Note_off_c, 12, 47, 127
2, 35138, Note_off_c, 2, 50, 127
2, 35142, Note_on_c, 0, 48, 127
2, 35272, Note_off_c, 0, 48, 127
2, 35272, Note_off_c, 12, 71, 127
2, 35276, Note_on_c, 7, 67, 127
2, 35276, Note_on_c, 12, 47, 127
2, 35406, Note_off_c, 12, 47, 127
2, 35411, Note_on_c, 10, 45, 127
2, 35540, Note_off_c, 7, 67, 127
2, 35541, Note_off_c, 10, 45, 127
2, 35545, Note_on_c, 12, 71, 127
2, 35545, Note_on_c, 7, 43, 127
2, 35675, Note_off_c, 7, 43, 127
2, 35680, Note_on_c, 10, 45, 127
2, 35810, Note_off_c, 10, 45, 127
2, 35814, Note_on_c, 2, 74, 127
2, 35814, Note_on_c, 7, 43, 127
2, 35944, Note_off_c, 7, 43, 127
2, 35948, Note_on_c, 5, 41, 127
2, 36078, Note_off_c, 5, 41, 127
2, 36083, Note_on_c, 5, 77, 127
2, 36083, Note_on_c, 4, 40, 127
2, 36213, Note_off_c, 4, 40, 127
2, 36217, Note_on_c, 2, 38, 127
2, 36346, Note_off_c, 2, 74, 127
2, 36347, Note_off_c, 2, 38, 127
2, 36347, Note_off_c, 5, 77, 127
2, 36350, Note_off_c, 12, 71, 127
2, 36352, Note_on_c, 4, 76, 127
2, 36352, Note_on_c, 0, 36, 127
2, 36486, Note_on_c, 2, 74, 127
2, 36616, Note_off_c, 2, 74, 127
2, 36620, Note_on_c, 0, 72, 127
2, 36750, Note_off_c, 0, 72, 127
2, 36755, Note_on_c, 12, 71, 127
2, 36885, Note_off_c, 12, 71, 127
2, 36889, Note_on_c, 0, 72, 127
2, 37024, Note_on_c, 7, 67, 127
2, 37154, Note_off_c, 0, 36, 127
2, 37158, Note_on_c, 4, 64, 127
2, 37288, Note_off_c, 4, 64, 127
2, 37292, Note_on_c, 2, 62, 127
2, 37422, Note_off_c, 2, 62, 127
2, 37427, Note_on_c, 0, 60, 127
2, 37557, Note_off_c, 0, 60, 127
2, 37561, Note_on_c, 12, 59, 127
2, 37691, Note_off_c, 12, 59, 127
2, 37696, Note_on_c, 0, 60, 127
2, 37826, Note_off_c, 0, 60, 127
2, 37830, Note_on_c, 7, 55, 127
2, 37960, Note_off_c, 7, 55, 127
2, 37964, Note_on_c, 4, 52, 127
2, 38094, Note_off_c, 4, 52, 127
2, 38099, Note_on_c, 7, 55, 127
2, 38229, Note_off_c, 7, 55, 127
2, 38233, Note_on_c, 5, 53, 127
2, 38363, Note_off_c, 5, 53, 127
2, 38368, Note_on_c, 4, 52, 127
2, 38498, Note_off_c, 4, 52, 127
2, 38502, Note_on_c, 2, 50, 127
2, 38632, Note_off_c, 2, 50, 127
2, 38636, Note_on_c, 0, 48, 127
2, 38744, Note_off_c, 0, 72, 127
2, 38751, Note_off_c, 7, 67, 127
2, 38751, Note_off_c, 4, 76, 127
2, 38766, Note_off_c, 0, 48, 127
2, 38771, Note_on_c, 3, 75, 127
2, 38771, Note_on_c, 6, 54, 127
2, 38905, Note_on_c, 10, 69, 127
2, 39035, Note_off_c, 10, 69, 127
2, 39035, Note_off_c, 6, 54, 127
2, 39040, Note_on_c, 11, 70, 127
2, 39040, Note_on_c, 6, 54, 127
2, 39170, Note_off_c, 11, 70, 127
2, 39174, Note_on_c, 0, 72, 127
2, 39304, Note_off_c, 0, 72, 127
2, 39304, Note_off_c, 6, 54, 127
2, 39308, Note_on_c, 11, 70, 127
2, 39308, Note_on_c, 6, 54, 127
2, 39438, Note_off_c, 11, 70, 127
2, 39443, Note_on_c, 10, 69, 127
2, 39572, Note_off_c, 6, 54, 127
2, 39573, Note_off_c, 10, 69, 127
2, 39576, Note_off_c, 3, 75, 127
2, 39577, Note_on_c, 2, 74, 127
2, 39577, Note_on_c, 6, 54, 127
2, 39712, Note_on_c, 10, 69, 127
2, 39841, Note_off_c, 6, 54, 127
2, 39842, Note_off_c, 10, 69, 127
2, 39846, Note_on_c, 11, 70, 127
2, 39846, Note_on_c, 6, 54, 127
2, 39976, Note_off_c, 11, 70, 127
2, 39980, Note_on_c, 0, 72, 127
2, 40110, Note_off_c, 0, 72, 127
2, 40110, Note_off_c, 6, 54, 127
2, 40115, Note_on_c, 11, 70, 127
2, 40115, Note_on_c, 6, 54, 127
2, 40245, Note_off_c, 11, 70, 127
2, 40249, Note_on_c, 10, 69, 127
2, 40379, Note_off_c, 10, 69, 127
2, 40379, Note_off_c, 6, 54, 127
2, 40382, Note_off_c, 2, 74, 127
2, 40384, Note_on_c, 10, 81, 127
2, 40384, Note_on_c, 6, 54, 127
2, 40518, Note_on_c, 10, 69, 127
2, 40648, Note_off_c, 10, 69, 127
2, 40648, Note_off_c, 6, 54, 127
2, 40652, Note_on_c, 11, 70, 127
2, 40652, Note_on_c, 6, 54, 127
2, 40782, Note_off_c, 11, 70, 127
2, 40787, Note_on_c, 0, 72, 127
2, 40916, Note_off_c, 6, 54, 127
2, 40916, Note_off_c, 10, 81, 127
2, 40917, Note_off_c, 0, 72, 127
2, 40921, Note_on_c, 11, 70, 127
2, 40921, Note_on_c, 6, 54, 127
2, 41051, Note_off_c, 11, 70, 127
2, 41056, Note_on_c, 10, 69, 127
2, 41185, Note_off_c, 6, 54, 127
2, 41186, Note_off_c, 10, 69, 127
2, 41190, Note_on_c, 11, 70, 127
2, 41190, Note_on_c, 7, 55, 127
2, 41324, Note_on_c, 10, 69, 127
2, 41454, Note_off_c, 10, 69, 127
2, 41459, Note_on_c, 7, 67, 127
2, 41589, Note_off_c, 7, 67, 127
2, 41593, Note_on_c, 6, 66, 127
2, 41723, Note_off_c, 6, 66, 127
2, 41728, Note_on_c, 7, 67, 127
2, 41862, Note_on_c, 2, 62, 127
2, 41992, Note_off_c, 7, 55, 127
2, 41996, Note_on_c, 11, 58, 127
2, 42126, Note_off_c, 11, 58, 127
2, 42131, Note_on_c, 10, 57, 127
2, 42261, Note_off_c, 10, 57, 127
2, 42265, Note_on_c, 7, 55, 127
2, 42395, Note_off_c, 7, 55, 127
2, 42400, Note_on_c, 6, 54, 127
2, 42530, Note_off_c, 6, 54, 127
2, 42534, Note_on_c, 7, 55, 127
2, 42664, Note_off_c, 7, 55, 127
2, 42668, Note_on_c, 2, 50, 127
2, 42798, Note_off_c, 2, 50, 127
2, 42803, Note_on_c, 11, 46, 127
2, 42933, Note_off_c, 11, 46, 127
2, 42937, Note_on_c, 2, 50, 127
2, 43067, Note_off_c, 2, 50, 127
2, 43072, Note_on_c, 0, 48, 127
2, 43202, Note_off_c, 0, 48, 127
2, 43206, Note_on_c, 11, 46, 127
2, 43336, Note_off_c, 11, 46, 127
2, 43340, Note_on_c, 10, 45, 127
2, 43470, Note_off_c, 10, 45, 127
2, 43475, Note_on_c, 7, 43, 127
2, 43601, Note_off_c, 7, 67, 127
2, 43603, Note_off_c, 11, 70, 127
2, 43605, Note_off_c, 7, 43, 127
2, 43605, Note_off_c, 2, 62, 127
2, 43609, Note_on_c, 11, 70, 127
2, 43609, Note_on_c, 1, 49, 127
2, 43744, Note_on_c, 4, 64, 127
2, 43873, Note_off_c, 1, 49, 127
2, 43874, Note_off_c, 4, 64, 127
2, 43878, Note_on_c, 5, 65, 127
2, 43878, Note_on_c, 1, 49, 127
2, 44008, Note_off_c, 5, 65, 127
2, 44012, Note_on_c, 7, 67, 127
2, 44142, Note_off_c, 7, 67, 127
2, 44142, Note_off_c, 1, 49, 127
2, 44147, Note_on_c, 5, 65, 127
2, 44147, Note_on_c, 1, 49, 127
2, 44277, Note_off_c, 5, 65, 127
2, 44281, Note_on_c, 4, 64, 127
2, 44411, Note_off_c, 4, 64, 127
2, 44411, Note_off_c, 1, 49, 127
2, 44414, Note_off_c, 11, 70, 127
2, 44416, Note_on_c, 10, 69, 127
2, 44416, Note_on_c, 1, 49, 127
2, 44550, Note_on_c, 4, 64, 127
2, 44680, Note_off_c, 4, 64, 127
2, 44680, Note_off_c, 1, 49, 127
2, 44684, Note_on_c, 5, 65, 127
2, 44684, Note_on_c, 1, 49, 127
2, 44814, Note_off_c, 5, 65, 127
2, 44819, Note_on_c, 7, 67, 127
2, 44948, Note_off_c, 1, 49, 127
2, 44949, Note_off_c, 7, 67, 127
2, 44953, Note_on_c, 5, 65, 127
2, 44953, Note_on_c, 1, 49, 127
2, 45083, Note_off_c, 5, 65, 127
2, 45088, Note_on_c, 4, 64, 127
2, 45217, Note_off_c, 1, 49, 127
2, 45218, Note_off_c, 4, 64, 127
2, 45221, Note_off_c, 10, 69, 127
2, 45222, Note_on_c, 4, 76, 127
2, 45222, Note_on_c, 1, 49, 127
2, 45356, Note_on_c, 4, 64, 127
2, 45486, Note_off_c, 4, 64, 127
2, 45486, Note_off_c, 1, 49, 127
2, 45488, Note_off_c, 4, 76, 127
2, 45491, Note_on_c, 5, 65, 127
2, 45491, Note_on_c, 1, 49, 127
2, 45621, Note_off_c, 5, 65, 127
2, 45625, Note_on_c, 7, 67, 127
2, 45755, Note_off_c, 7, 67, 127
2, 45755, Note_off_c, 1, 49, 127
2, 45760, Note_on_c, 5, 65, 127
2, 45760, Note_on_c, 1, 49, 127
2, 45890, Note_off_c, 5, 65, 127
2, 45894, Note_on_c, 4, 64, 127
2, 46024, Note_off_c, 4, 64, 127
2, 46024, Note_off_c, 1, 49, 127
2, 46028, Note_on_c, 5, 65, 127
2, 46028, Note_on_c, 2, 50, 127
2, 46158, Note_off_c, 2, 50, 127
2, 46158, Note_off_c, 5, 65, 127
2, 46163, Note_on_c, 4, 64, 127
2, 46163, Note_on_c, 4, 52, 127
2, 46293, Note_off_c, 4, 52, 127
2, 46293, Note_off_c, 4, 64, 127
2, 46297, Note_on_c, 5, 65, 127
2, 46297, Note_on_c, 5, 53, 127
2, 46561, Note_off_c, 5, 53, 127
2, 46566, Note_on_c, 10, 57, 127
2, 46830, Note_off_c, 10, 57, 127
2, 46835, Note_on_c, 5, 53, 127
2, 46964, Note_off_c, 5, 65, 127
2, 46969, Note_on_c, 4, 64, 127
2, 47099, Note_off_c, 4, 64, 127
2, 47099, Note_off_c, 5, 53, 127
2, 47104, Note_on_c, 5, 65, 127
2, 47104, Note_on_c, 2, 50, 127
2, 47234, Note_off_c, 5, 65, 127
2, 47238, Note_on_c, 10, 69, 127
2, 47368, Note_off_c, 10, 69, 127
2, 47368, Note_off_c, 2, 50, 127
2, 47372, Note_on_c, 2, 74, 127
2, 47372, Note_on_c, 10, 45, 127
2, 47502, Note_off_c, 2, 74, 127
2, 47507, Note_on_c, 10, 69, 127
2, 47636, Note_off_c, 10, 45, 127
2, 47637, Note_off_c, 10, 69, 127
2, 47641, Note_on_c, 5, 77, 127
2, 47641, Note_on_c, 2, 50, 127
2, 47771, Note_off_c, 5, 77, 127
2, 47776, Note_on_c, 4, 76, 127
2, 47905, Note_off_c, 2, 50, 127
2, 47906, Note_off_c, 4, 76, 127
2, 47910, Note_on_c, 2, 74, 127
2, 47910, Note_on_c, 5, 53, 127
2, 48040, Note_off_c, 2, 74, 127
2, 48044, Note_on_c, 0, 72, 127
2, 48174, Note_off_c, 0, 72, 127
2, 48174, Note_off_c, 5, 53, 127
2, 48179, Note_on_c, 12, 71, 127
2, 48179, Note_on_c, 10, 57, 127
2, 48309, Note_off_c, 12, 71, 127
2, 48313, Note_on_c, 10, 69, 127
2, 48443, Note_off_c, 10, 69, 127
2, 48443, Note_off_c, 10, 57, 127
2, 48448, Note_on_c, 8, 80, 127
2, 48448, Note_on_c, 2, 50, 127
2, 48536, Note_off_c, 8, 80, 127
2, 48546, Note_on_c, 6, 78, 127
2, 48578, Note_off_c, 2, 50, 127
2, 48582, Note_on_c, 4, 52, 127
2, 48634, Note_off_c, 6, 78, 127
2, 48644, Note_on_c, 8, 80, 127
2, 48712, Note_off_c, 4, 52, 127
2, 48716, Note_on_c, 5, 53, 127
2, 48980, Note_off_c, 5, 53, 127
2, 48985, Note_on_c, 8, 56, 127
2, 49249, Note_off_c, 8, 56, 127
2, 49254, Note_on_c, 5, 53, 127
2, 49381, Note_off_c, 8, 80, 127
2, 49388, Note_on_c, 10, 81, 127
2, 49518, Note_off_c, 10, 81, 127
2, 49518, Note_off_c, 5, 53, 127
2, 49523, Note_on_c, 12, 83, 127
2, 49523, Note_on_c, 2, 50, 127
2, 49653, Note_off_c, 12, 83, 127
2, 49657, Note_on_c, 10, 81, 127
2, 49787, Note_off_c, 10, 81, 127
2, 49787, Note_off_c, 2, 50, 127
2, 49792, Note_on_c, 8, 80, 127
2, 49792, Note_on_c, 12, 47, 127
2, 49922, Note_off_c, 8, 80, 127
2, 49926, Note_on_c, 6, 78, 127
2, 50056, Note_off_c, 6, 78, 127
2, 50056, Note_off_c, 12, 47, 127
2, 50060, Note_on_c, 4, 76, 127
2, 50060, Note_on_c, 2, 50, 127
2, 50190, Note_off_c, 4, 76, 127
2, 50195, Note_on_c, 5, 77, 127
2, 50324, Note_off_c, 2, 50, 127
2, 50325, Note_off_c, 5, 77, 127
2, 50329, Note_on_c, 4, 76, 127
2, 50329, Note_on_c, 5, 53, 127
2, 50459, Note_off_c, 4, 76, 127
2, 50464, Note_on_c, 2, 74, 127
2, 50593, Note_off_c, 5, 53, 127
2, 50594, Note_off_c, 2, 74, 127
2, 50598, Note_on_c, 0, 72, 127
2, 50598, Note_on_c, 8, 56, 127
2, 50728, Note_off_c, 0, 72, 127
2, 50732, Note_on_c, 12, 71, 127
2, 50862, Note_off_c, 12, 71, 127
2, 50862, Note_off_c, 8, 56, 127
2, 50867, Note_on_c, 10, 69, 127
2, 50867, Note_on_c, 0, 48, 127
2, 50997, Note_off_c, 10, 69, 127
2, 51001, Note_on_c, 12, 71, 127
2, 51131, Note_off_c, 12, 71, 127
2, 51136, Note_on_c, 0, 72, 127
2, 51400, Note_off_c, 0, 72, 127
2, 51404, Note_on_c, 4, 76, 127
2, 51668, Note_off_c, 4, 76, 127
2, 51669, Note_off_c, 0, 48, 127
2, 51673, Note_on_c, 0, 72, 127
2, 51673, Note_on_c, 10, 57, 127
2, 51803, Note_off_c, 10, 57, 127
2, 51808, Note_on_c, 8, 56, 127
2, 51937, Note_off_c, 0, 72, 127
2, 51938, Note_off_c, 8, 56, 127
2, 51942, Note_on_c, 10, 69, 127
2, 51942, Note_on_c, 10, 57, 127
2, 52072, Note_off_c, 10, 57, 127
2, 52076, Note_on_c, 8, 56, 127
2, 52206, Note_off_c, 8, 56, 127
2, 52206, Note_off_c, 10, 69, 127
2, 52211, Note_on_c, 4, 64, 127
2, 52211, Note_on_c, 10, 57, 127
2, 52341, Note_off_c, 10, 57, 127
2, 52345, Note_on_c, 8, 56, 127
2, 52475, Note_off_c, 8, 56, 127
2, 52475, Note_off_c, 4, 64, 127
2, 52480, Note_on_c, 4, 76, 127
2, 52480, Note_on_c, 10, 57, 127
2, 52610, Note_off_c, 4, 76, 127
2, 52614, Note_on_c, 2, 74, 127
2, 52744, Note_off_c, 2, 74, 127
2, 52744, Note_off_c, 10, 57, 127
2, 52748, Note_on_c, 0, 72, 127
2, 52748, Note_on_c, 4, 52, 127
2, 52878, Note_off_c, 0, 72, 127
2, 52883, Note_on_c, 12, 71, 127
2, 53012, Note_off_c, 4, 52, 127
2, 53013, Note_off_c, 12, 71, 127
2, 53017, Note_on_c, 10, 69, 127
2, 53017, Note_on_c, 0, 48, 127
2, 53147, Note_off_c, 10, 69, 127
2, 53152, Note_on_c, 8, 68, 127
2, 53281, Note_off_c, 0, 48, 127
2, 53282, Note_off_c, 8, 68, 127
2, 53286, Note_on_c, 10, 69, 127
2, 53286, Note_on_c, 5, 41, 127
2, 53416, Note_off_c, 10, 69, 127
2, 53420, Note_on_c, 12, 71, 127
2, 53550, Note_off_c, 12, 71, 127
2, 53555, Note_on_c, 0, 72, 127
2, 53819, Note_off_c, 0, 72, 127
2, 53824, Note_on_c, 10, 81, 127
2, 54088, Note_off_c, 10, 81, 127
2, 54088, Note_off_c, 5, 41, 127
2, 54092, Note_on_c, 4, 76, 127
2, 54092, Note_on_c, 10, 57, 127
2, 54222, Note_off_c, 10, 57, 127
2, 54227, Note_on_c, 8, 56, 127
2, 54356, Note_off_c, 4, 76, 127
2, 54357, Note_off_c, 8, 56, 127
2, 54361, Note_on_c, 0, 72, 127
2, 54361, Note_on_c, 10, 57, 127
2, 54491, Note_off_c, 10, 57, 127
2, 54496, Note_on_c, 8, 56, 127
2, 54625, Note_off_c, 0, 72, 127
2, 54626, Note_off_c, 8, 56, 127
2, 54630, Note_on_c, 10, 69, 127
2, 54630, Note_on_c, 10, 57, 127
2, 54760, Note_off_c, 10, 57, 127
2, 54764, Note_on_c, 8, 56, 127
2, 54894, Note_off_c, 8, 56, 127
2, 54894, Note_off_c, 10, 69, 127
2, 54899, Note_on_c, 10, 81, 127
2, 54899, Note_on_c, 10, 57, 127
2, 55029, Note_off_c, 10, 81, 127
2, 55033, Note_on_c, 7, 79, 127
2, 55163, Note_off_c, 7, 79, 127
2, 55163, Note_off_c, 10, 57, 127
2, 55168, Note_on_c, 5, 77, 127
2, 55168, Note_on_c, 12, 59, 127
2, 55298, Note_off_c, 5, 77, 127
2, 55302, Note_on_c, 4, 76, 127
2, 55432, Note_off_c, 4, 76, 127
2, 55432, Note_off_c, 12, 59, 127
2, 55436, Note_on_c, 2, 74, 127
2, 55436, Note_on_c, 0, 60, 127
2, 55566, Note_off_c, 2, 74, 127
2, 55571, Note_on_c, 0, 72, 127
2, 55690, Note_off_c, 0, 72, 127
2, 55700, Note_off_c, 0, 60, 127
2, 55705, Note_on_c, 5, 77, 127
2, 55705, Note_on_c, 2, 50, 127
2, 55835, Note_off_c, 5, 77, 127
2, 55840, Note_on_c, 4, 76, 127
2, 55969, Note_off_c, 2, 50, 127
2, 55970, Note_off_c, 4, 76, 127
2, 55974, Note_on_c, 2, 74, 127
2, 55974, Note_on_c, 4, 52, 127
2, 56104, Note_off_c, 2, 74, 127
2, 56108, Note_on_c, 0, 72, 127
2, 56238, Note_off_c, 0, 72, 127
2, 56238, Note_off_c, 4, 52, 127
2, 56243, Note_on_c, 12, 71, 127
2, 56243, Note_on_c, 5, 53, 127
2, 56373, Note_off_c, 12, 71, 127
2, 56377, Note_on_c, 10, 69, 127
2, 56496, Note_off_c, 10, 69, 127
2, 56507, Note_off_c, 5, 53, 127
2, 56512, Note_on_c, 2, 74, 127
2, 56512, Note_on_c, 12, 47, 127
2, 56642, Note_off_c, 2, 74, 127
2, 56646, Note_on_c, 0, 72, 127
2, 56776, Note_off_c, 0, 72, 127
2, 56776, Note_off_c, 12, 47, 127
2, 56780, Note_on_c, 12, 71, 127
2, 56780, Note_on_c, 0, 48, 127
2, 56910, Note_off_c, 12, 71, 127
2, 56915, Note_on_c, 10, 69, 127
2, 57044, Note_off_c, 0, 48, 127
2, 57045, Note_off_c, 10, 69, 127
2, 57049, Note_on_c, 8, 68, 127
2, 57049, Note_on_c, 2, 50, 127
2, 57179, Note_off_c, 8, 68, 127
2, 57184, Note_on_c, 6, 66, 127
2, 57303, Note_off_c, 6, 66, 127
2, 57313, Note_off_c, 2, 50, 127
2, 57318, Note_on_c, 12, 71, 127
2, 57318, Note_on_c, 8, 44, 127
2, 57448, Note_off_c, 12, 71, 127
2, 57452, Note_on_c, 10, 69, 127
2, 57582, Note_off_c, 10, 69, 127
2, 57582, Note_off_c, 8, 44, 127
2, 57587, Note_on_c, 8, 68, 127
2, 57587, Note_on_c, 10, 45, 127
2, 57717, Note_off_c, 8, 68, 127
2, 57721, Note_on_c, 6, 66, 127
2, 57851, Note_off_c, 6, 66, 127
2, 57851, Note_off_c, 10, 45, 127
2, 57856, Note_on_c, 4, 64, 127
2, 57856, Note_on_c, 12, 47, 127
2, 57986, Note_off_c, 4, 64, 127
2, 57990, Note_on_c, 2, 62, 127
2, 58109, Note_off_c, 2, 62, 127
2, 58120, Note_off_c, 12, 47, 127
2, 58124, Note_on_c, 4, 64, 127
2, 58124, Note_on_c, 0, 36, 127
2, 58254, Note_off_c, 4, 64, 127
2, 58259, Note_on_c, 10, 69, 127
2, 58389, Note_off_c, 10, 69, 127
2, 58393, Note_on_c, 7, 67, 127
2, 58523, Note_off_c, 7, 67, 127
2, 58528, Note_on_c, 5, 65, 127
2, 58658, Note_off_c, 5, 65, 127
2, 58662, Note_on_c, 4, 64, 127
2, 58792, Note_off_c, 4, 64, 127
2, 58796, Note_on_c, 2, 62, 127
2, 58926, Note_off_c, 2, 62, 127
2, 58931, Note_on_c, 0, 60, 127
2, 59065, Note_on_c, 5, 65, 127
2, 59183, Note_off_c, 0, 60, 127
2, 59195, Note_off_c, 5, 65, 127
2, 59195, Note_off_c, 0, 36, 127
2, 59200, Note_on_c, 4, 64, 127
2, 59200, Note_on_c, 0, 48, 127
2, 59330, Note_off_c, 4, 64, 127
2, 59334, Note_on_c, 2, 62, 127
2, 59464, Note_off_c, 2, 62, 127
2, 59464, Note_off_c, 0, 48, 127
2, 59468, Note_on_c, 0, 60, 127
2, 59468, Note_on_c, 2, 50, 127
2, 59598, Note_off_c, 0, 60, 127
2, 59603, Note_on_c, 12, 59, 127
2, 59732, Note_off_c, 2, 50, 127
2, 59733, Note_off_c, 12, 59, 127
2, 59737, Note_on_c, 10, 57, 127
2, 59737, Note_on_c, 4, 52, 127
2, 59872, Note_on_c, 2, 62, 127
2, 59989, Note_off_c, 10, 57, 127
2, 60001, Note_off_c, 4, 52, 127
2, 60002, Note_off_c, 2, 62, 127
2, 60006, Note_on_c, 0, 60, 127
2, 60006, Note_on_c, 2, 50, 127
2, 60136, Note_off_c, 0, 60, 127
2, 60140, Note_on_c, 12, 59, 127
2, 60270, Note_off_c, 12, 59, 127
2, 60270, Note_off_c, 2, 50, 127
2, 60275, Note_on_c, 10, 57, 127
2, 60275, Note_on_c, 4, 52, 127
2, 60405, Note_off_c, 10, 57, 127
2, 60409, Note_on_c, 8, 56, 127
2, 60539, Note_off_c, 8, 56, 127
2, 60539, Note_off_c, 4, 52, 127
2, 60544, Note_on_c, 10, 57, 127
2, 60544, Note_on_c, 10, 45, 127
2, 60675, Note_off_c, 10, 57, 127
2, 60679, Note_on_c, 12, 59, 127
2, 60810, Note_off_c, 12, 59, 127
2, 60815, Note_on_c, 1, 61, 127
2, 60946, Note_off_c, 1, 61, 127
2, 60951, Note_on_c, 2, 62, 127
2, 61082, Note_off_c, 2, 62, 127
2, 61087, Note_on_c, 4, 64, 127
2, 61218, Note_off_c, 4, 64, 127
2, 61223, Note_on_c, 5, 65, 127
2, 61354, Note_off_c, 5, 65, 127
2, 61358, Note_on_c, 7, 67, 127
2, 61494, Note_on_c, 12, 47, 127
2, 61625, Note_off_c, 12, 47, 127
2, 61625, Note_off_c, 7, 67, 127
2, 61630, Note_on_c, 4, 64, 127
2, 61630, Note_on_c, 1, 49, 127
2, 61761, Note_off_c, 1, 49, 127
2, 61766, Note_on_c, 2, 50, 127
2, 61897, Note_off_c, 2, 50, 127
2, 61897, Note_off_c, 4, 64, 127
2, 61902, Note_on_c, 1, 61, 127
2, 61902, Note_on_c, 4, 52, 127
2, 62033, Note_off_c, 4, 52, 127
2, 62037, Note_on_c, 5, 53, 127
2, 62168, Note_off_c, 5, 53, 127
2, 62169, Note_off_c, 1, 61, 127
2, 62173, Note_on_c, 11, 70, 127
2, 62173, Note_on_c, 7, 55, 127
2, 62309, Note_on_c, 1, 61, 127
2, 62440, Note_off_c, 7, 55, 127
2, 62441, Note_off_c, 11, 70, 127
2, 62445, Note_on_c, 10, 69, 127
2, 62445, Note_on_c, 5, 53, 127
2, 62507, Note_off_c, 1, 61, 127
2, 62582, Note_on_c, 1, 61, 127
2, 62713, Note_off_c, 5, 53, 127
2, 62715, Note_off_c, 10, 69, 127
2, 62718, Note_on_c, 7, 67, 127
2, 62718, Note_on_c, 4, 52, 127
2, 62780, Note_off_c, 1, 61, 127
2, 62855, Note_on_c, 1, 61, 127
2, 62980, Note_off_c, 10, 45, 127
2, 62986, Note_off_c, 1, 61, 127
2, 62986, Note_off_c, 4, 52, 127
2, 62988, Note_off_c, 7, 67, 127
2, 62991, Note_on_c, 5, 65, 127
2, 62991, Note_on_c, 10, 45, 127
2, 62991, Note_on_c, 2, 50, 127
2, 63129, Note_on_c, 10, 69, 127
2, 63263, Note_off_c, 10, 69, 127
2, 63268, Note_on_c, 12, 71, 127
2, 63402, Note_off_c, 12, 71, 127
2, 63407, Note_on_c, 1, 73, 127
2, 63541, Note_off_c, 1, 73, 127
2, 63545, Note_on_c, 2, 74, 127
2, 63679, Note_off_c, 2, 74, 127
2, 63684, Note_on_c, 4, 76, 127
2, 63818, Note_off_c, 4, 76, 127
2, 63821, Note_off_c, 5, 65, 127
2, 63822, Note_on_c, 5, 77, 127
2, 63962, Note_off_c, 2, 50, 127
2, 63967, Note_on_c, 10, 57, 127
2, 64099, Note_off_c, 10, 45, 127
2, 64112, Note_on_c, 2, 74, 127
2, 64112, Note_on_c, 12, 59, 127
2, 64252, Note_off_c, 12, 59, 127
2, 64256, Note_on_c, 1, 61, 127
2, 64396, Note_off_c, 1, 61, 127
2, 64396, Note_off_c, 2, 74, 127
2, 64401, Note_on_c, 12, 71, 127
2, 64401, Note_on_c, 2, 62, 127
2, 64541, Note_off_c, 2, 62, 127
2, 64545, Note_on_c, 4, 64, 127
2, 64685, Note_off_c, 4, 64, 127
2, 64687, Note_off_c, 5, 77, 127
2, 64689, Note_on_c, 10, 81, 127
2, 64689, Note_on_c, 5, 65, 127
2, 64844, Note_off_c, 10, 81, 127
2, 64850, Note_on_c, 8, 80, 127
2, 65005, Note_off_c, 8, 80, 127
2, 65005, Note_off_c, 5, 65, 127
2, 65011, Note_on_c, 10, 81, 127
2, 65011, Note_on_c, 4, 64, 127
2, 65166, Note_off_c, 10, 81, 127
2, 65172, Note_on_c, 8, 80, 127
2, 65327, Note_off_c, 8, 80, 127
2, 65327, Note_off_c, 4, 64, 127
2, 65333, Note_on_c, 10, 81, 127
2, 65333, Note_on_c, 2, 62, 127
2, 65488, Note_off_c, 10, 81, 127
2, 65494, Note_on_c, 8, 80, 127
2, 65649, Note_off_c, 8, 80, 127
2, 65649, Note_off_c, 2, 62, 127
2, 65652, Note_off_c, 12, 71, 127
2, 65670, Note_on_c, 4, 64, 127
2, 65670, Note_on_c, 4, 76, 127
2, 65670, Note_on_c, 1, 73, 127
2, 65670, Note_on_c, 10, 81, 127
2, 68546, Note_off_c, 10, 57, 127
2, 68552, Note_off_c, 10, 81, 127
2, 68552, Note_off_c, 1, 73, 127
2, 68552, Note_off_c, 4, 76, 127
2, 68552, Note_off_c, 4, 64, 127
2, 68939, Note_on_c, 10, 57, 127
2, 69125, Note_off_c, 10, 57, 127
2, 69129, Note_on_c, 8, 56, 127
2, 69315, Note_off_c, 8, 56, 127
2, 69319, Note_on_c, 10, 57, 127
2, 69694, Note_off_c, 10, 57, 127
2, 69699, Note_on_c, 12, 59, 127
2, 70074, Note_off_c, 12, 59, 127
2, 70078, Note_on_c, 0, 60, 127
2, 70453, Note_off_c, 0, 60, 127
2, 70458, Note_on_c, 0, 60, 127
2, 70644, Note_off_c, 0, 60, 127
2, 70648, Note_on_c, 12, 59, 127
2, 70834, Note_off_c, 12, 59, 127
2, 70838, Note_on_c, 0, 60, 127
2, 71213, Note_off_c, 0, 60, 127
2, 71218, Note_on_c, 2, 62, 127
2, 71593, Note_off_c, 2, 62, 127
2, 71597, Note_on_c, 4, 64, 127
2, 71783, Note_off_c, 4, 64, 127
2, 71788, Note_on_c, 2, 62, 127
2, 71974, Note_off_c, 2, 62, 127
2, 71978, Note_on_c, 0, 60, 127
2, 72164, Note_off_c, 0, 60, 127
2, 72168, Note_on_c, 2, 62, 127
2, 72354, Note_off_c, 2, 62, 127
2, 72359, Note_on_c, 4, 64, 127
2, 72734, Note_off_c, 4, 64, 127
2, 72738, Note_on_c, 5, 65, 127
2, 73113, Note_off_c, 5, 65, 127
2, 73118, Note_on_c, 8, 56, 127
2, 73463, Note_off_c, 8, 56, 127
2, 73497, Note_on_c, 4, 52, 127
2, 74050, Note_off_c, 4, 52, 127
2, 74256, Note_on_c, 10, 57, 127
2, 74631, Note_off_c, 10, 57, 127
2, 74635, Note_on_c, 12, 59, 127
2, 74821, Note_off_c, 12, 59, 127
2, 74826, Note_on_c, 0, 60, 127
2, 75012, Note_off_c, 0, 60, 127
2, 75016, Note_on_c, 10, 57, 127
2, 75202, Note_off_c, 10, 57, 127
2, 75206, Note_on_c, 12, 59, 127
2, 75392, Note_off_c, 12, 59, 127
2, 75397, Note_on_c, 0, 60, 127
2, 75583, Note_off_c, 0, 60, 127
2, 75587, Note_on_c, 2, 62, 127
2, 75773, Note_off_c, 2, 62, 127
2, 75778, Note_on_c, 12, 59, 127
2, 75964, Note_off_c, 12, 59, 127
2, 75968, Note_on_c, 0, 60, 127
2, 76154, Note_off_c, 0, 60, 127
2, 76158, Note_on_c, 2, 62, 127
2, 76533, Note_off_c, 2, 62, 127
2, 76538, Note_on_c, 0, 60, 127
2, 76913, Note_off_c, 0, 60, 127
2, 76917, Note_on_c, 12, 59, 127
2, 77292, Note_off_c, 12, 59, 127
2, 77297, Note_on_c, 4, 64, 127
2, 77672, Note_off_c, 4, 64, 127
2, 77676, Note_on_c, 10, 57, 127
2, 78055, Note_on_c, 4, 64, 127
2, 78241, Note_off_c, 4, 64, 127
2, 78246, Note_on_c, 3, 63, 127
2, 78432, Note_off_c, 3, 63, 127
2, 78432, Note_off_c, 10, 57, 127
2, 78436, Note_on_c, 7, 55, 127
2, 78436, Note_on_c, 4, 64, 127
2, 78811, Note_off_c, 4, 64, 127
2, 78811, Note_off_c, 7, 55, 127
2, 78816, Note_on_c, 6, 54, 127
2, 78816, Note_on_c, 6, 66, 127
2, 79191, Note_off_c, 6, 66, 127
2, 79191, Note_off_c, 6, 54, 127
2, 79195, Note_on_c, 4, 52, 127
2, 79195, Note_on_c, 7, 67, 127
2, 79570, Note_off_c, 7, 67, 127
2, 79570, Note_off_c, 4, 52, 127
2, 79574, Note_on_c, 0, 60, 127
2, 79574, Note_on_c, 7, 67, 127
2, 79760, Note_off_c, 7, 67, 127
2, 79765, Note_on_c, 6, 66, 127
2, 79950, Note_off_c, 0, 60, 127
2, 79951, Note_off_c, 6, 66, 127
2, 79955, Note_on_c, 12, 59, 127
2, 79955, Note_on_c, 7, 67, 127
2, 80330, Note_off_c, 7, 67, 127
2, 80330, Note_off_c, 12, 59, 127
2, 80335, Note_on_c, 10, 57, 127
2, 80335, Note_on_c, 10, 69, 127
2, 80710, Note_off_c, 10, 69, 127
2, 80710, Note_off_c, 10, 57, 127
2, 80714, Note_on_c, 7, 55, 127
2, 80714, Note_on_c, 12, 71, 127
2, 80900, Note_off_c, 12, 71, 127
2, 80900, Note_off_c, 7, 55, 127
2, 80904, Note_on_c, 6, 54, 127
2, 80904, Note_on_c, 10, 69, 127
2, 81090, Note_off_c, 10, 69, 127
2, 81090, Note_off_c, 6, 54, 127
2, 81095, Note_on_c, 4, 52, 127
2, 81095, Note_on_c, 7, 67, 127
2, 81281, Note_off_c, 7, 67, 127
2, 81281, Note_off_c, 4, 52, 127
2, 81285, Note_on_c, 6, 54, 127
2, 81285, Note_on_c, 10, 69, 127
2, 81471, Note_off_c, 10, 69, 127
2, 81471, Note_off_c, 6, 54, 127
2, 81476, Note_on_c, 7, 55, 127
2, 81476, Note_on_c, 12, 71, 127
2, 81851, Note_off_c, 12, 71, 127
2, 81851, Note_off_c, 7, 55, 127
2, 81855, Note_on_c, 10, 57, 127
2, 81855, Note_on_c, 0, 72, 127
2, 82230, Note_off_c, 0, 72, 127
2, 82230, Note_off_c, 10, 57, 127
2, 82234, Note_on_c, 12, 59, 127
2, 82234, Note_on_c, 3, 63, 127
2, 82420, Note_off_c, 12, 59, 127
2, 82425, Note_on_c, 10, 57, 127
2, 82579, Note_off_c, 3, 63, 127
2, 82609, Note_off_c, 10, 57, 127
2, 82614, Note_on_c, 7, 55, 127
2, 82614, Note_on_c, 12, 59, 127
2, 82800, Note_off_c, 7, 55, 127
2, 82804, Note_on_c, 10, 57, 127
2, 82990, Note_off_c, 10, 57, 127
2, 82990, Note_off_c, 12, 59, 127
2, 82995, Note_on_c, 12, 59, 127
2, 83370, Note_off_c, 12, 59, 127
2, 83374, Note_on_c, 0, 60, 127
2, 83374, Note_on_c, 4, 64, 127
2, 83749, Note_off_c, 4, 64, 127
2, 83753, Note_on_c, 6, 66, 127
2, 83939, Note_off_c, 6, 66, 127
2, 83944, Note_on_c, 7, 67, 127
2, 84130, Note_off_c, 7, 67, 127
2, 84130, Note_off_c, 0, 60, 127
2, 84134, Note_on_c, 12, 59, 127
2, 84134, Note_on_c, 4, 64, 127
2, 84320, Note_off_c, 4, 64, 127
2, 84320, Note_off_c, 12, 59, 127
2, 84325, Note_on_c, 10, 57, 127
2, 84325, Note_on_c, 6, 66, 127
2, 84511, Note_off_c, 6, 66, 127
2, 84511, Note_off_c, 10, 57, 127
2, 84515, Note_on_c, 12, 59, 127
2, 84515, Note_on_c, 7, 67, 127
2, 84701, Note_off_c, 7, 67, 127
2, 84705, Note_on_c, 10, 69, 127
2, 84891, Note_off_c, 10, 69, 127
2, 84891, Note_off_c, 12, 59, 127
2, 84896, Note_on_c, 4, 64, 127
2, 84896, Note_on_c, 6, 66, 127
2, 85082, Note_off_c, 6, 66, 127
2, 85086, Note_on_c, 7, 67, 127
2, 85272, Note_off_c, 7, 67, 127
2, 85277, Note_on_c, 10, 69, 127
2, 85652, Note_off_c, 10, 69, 127
2, 85652, Note_off_c, 4, 64, 127
2, 85656, Note_on_c, 2, 62, 127
2, 85656, Note_on_c, 7, 67, 127
2, 85842, Note_off_c, 2, 62, 127
2, 85846, Note_on_c, 1, 61, 127
2, 86032, Note_off_c, 1, 61, 127
2, 86032, Note_off_c, 7, 67, 127
2, 86037, Note_on_c, 2, 62, 127
2, 86037, Note_on_c, 6, 66, 127
2, 86412, Note_off_c, 6, 66, 127
2, 86416, Note_on_c, 12, 71, 127
2, 86791, Note_off_c, 12, 71, 127
2, 86796, Note_on_c, 4, 64, 127
2, 87171, Note_off_c, 4, 64, 127
2, 87171, Note_off_c, 2, 62, 127
2, 87175, Note_on_c, 0, 60, 127
2, 87175, Note_on_c, 6, 66, 127
2, 87361, Note_off_c, 6, 66, 127
2, 87361, Note_off_c, 0, 60, 127
2, 87365, Note_on_c, 12, 59, 127
2, 87365, Note_on_c, 8, 68, 127
2, 87551, Note_off_c, 8, 68, 127
2, 87551, Note_off_c, 12, 59, 127
2, 87556, Note_on_c, 0, 60, 127
2, 87556, Note_on_c, 10, 69, 127
2, 87742, Note_off_c, 10, 69, 127
2, 87746, Note_on_c, 12, 71, 127
2, 87932, Note_off_c, 12, 71, 127
2, 87937, Note_on_c, 0, 72, 127
2, 88123, Note_off_c, 0, 72, 127
2, 88127, Note_on_c, 2, 74, 127
2, 88313, Note_off_c, 2, 74, 127
2, 88317, Note_on_c, 4, 76, 127
2, 88428, Note_off_c, 0, 60, 127
2, 88506, Note_on_c, 10, 69, 127
2, 88692, Note_off_c, 10, 69, 127
2, 88692, Note_off_c, 4, 76, 127
2, 88697, Note_on_c, 7, 67, 127
2, 88697, Note_on_c, 10, 69, 127
2, 88883, Note_off_c, 7, 67, 127
2, 88887, Note_on_c, 5, 65, 127
2, 89073, Note_off_c, 5, 65, 127
2, 89073, Note_off_c, 10, 69, 127
2, 89078, Note_on_c, 4, 64, 127
2, 89078, Note_on_c, 10, 69, 127
2, 89141, Note_on_c, 8, 68, 127
2, 89142, Note_off_c, 10, 69, 127
2, 89204, Note_on_c, 10, 69, 127
2, 89205, Note_off_c, 8, 68, 127
2, 89262, Note_off_c, 4, 64, 127
2, 89267, Note_on_c, 2, 62, 127
2, 89267, Note_on_c, 8, 68, 127
2, 89268, Note_off_c, 10, 69, 127
2, 89451, Note_off_c, 2, 62, 127
2, 89456, Note_on_c, 0, 60, 127
2, 89642, Note_off_c, 0, 60, 127
2, 89646, Note_on_c, 12, 59, 127
2, 89820, Note_off_c, 8, 68, 127
2, 89830, Note_off_c, 12, 59, 127
2, 89835, Note_on_c, 0, 60, 127
2, 89835, Note_on_c, 10, 69, 127
2, 90021, Note_off_c, 0, 60, 127
2, 90025, Note_on_c, 12, 59, 127
2, 90211, Note_off_c, 12, 59, 127
2, 90211, Note_off_c, 10, 69, 127
2, 90216, Note_on_c, 10, 45, 127
2, 90216, Note_on_c, 0, 60, 127
2, 90216, Note_on_c, 10, 69, 127
2, 90402, Note_off_c, 10, 45, 127
2, 90406, Note_on_c, 8, 44, 127
2, 90592, Note_off_c, 8, 44, 127
2, 90592, Note_off_c, 10, 69, 127
2, 90597, Note_on_c, 10, 45, 127
2, 90597, Note_on_c, 7, 67, 127
2, 90972, Note_off_c, 7, 67, 127
2, 90972, Note_off_c, 10, 45, 127
2, 90972, Note_off_c, 0, 60, 127
2, 90976, Note_on_c, 12, 47, 127
2, 90976, Note_on_c, 2, 62, 127
2, 90976, Note_on_c, 5, 65, 127
2, 91351, Note_off_c, 5, 65, 127
2, 91351, Note_off_c, 2, 62, 127
2, 91351, Note_off_c, 12, 47, 127
2, 91355, Note_on_c, 0, 48, 127
2, 91355, Note_on_c, 4, 64, 127
2, 91544, Note_on_c, 2, 62, 127
2, 91730, Note_off_c, 2, 62, 127
2, 91730, Note_off_c, 4, 64, 127
2, 91730, Note_off_c, 0, 48, 127
2, 91735, Note_on_c, 0, 48, 127
2, 91735, Note_on_c, 4, 64, 127
2, 91735, Note_on_c, 0, 72, 127
2, 91921, Note_off_c, 0, 48, 127
2, 91925, Note_on_c, 12, 47, 127
2, 92111, Note_off_c, 12, 47, 127
2, 92111, Note_off_c, 0, 72, 127
2, 92116, Note_on_c, 0, 48, 127
2, 92116, Note_on_c, 12, 71, 127
2, 92491, Note_off_c, 12, 71, 127
2, 92491, Note_off_c, 0, 48, 127
2, 92491, Note_off_c, 4, 64, 127
2, 92495, Note_on_c, 2, 50, 127
2, 92495, Note_on_c, 5, 65, 127
2, 92495, Note_on_c, 10, 69, 127
2, 92870, Note_off_c, 10, 69, 127
2, 92870, Note_off_c, 5, 65, 127
2, 92870, Note_off_c, 2, 50, 127
2, 92874, Note_on_c, 4, 52, 127
2, 92874, Note_on_c, 8, 68, 127
2, 93060, Note_off_c, 4, 52, 127
2, 93065, Note_on_c, 2, 50, 127
2, 93065, Note_on_c, 6, 66, 127
2, 93250, Note_off_c, 8, 68, 127
2, 93251, Note_off_c, 6, 66, 127
2, 93251, Note_off_c, 2, 50, 127
2, 93255, Note_on_c, 0, 48, 127
2, 93255, Note_on_c, 4, 64, 127
2, 93255, Note_on_c, 4, 76, 127
2, 93441, Note_off_c, 4, 64, 127
2, 93441, Note_off_c, 0, 48, 127
2, 93446, Note_on_c, 2, 50, 127
2, 93446, Note_on_c, 6, 66, 127
2, 93631, Note_off_c, 4, 76, 127
2, 93632, Note_off_c, 6, 66, 127
2, 93632, Note_off_c, 2, 50, 127
2, 93636, Note_on_c, 4, 52, 127
2, 93636, Note_on_c, 8, 68, 127
2, 93636, Note_on_c, 2, 74, 127
2, 94011, Note_off_c, 2, 74, 127
2, 94011, Note_off_c, 8, 68, 127
2, 94011, Note_off_c, 4, 52, 127
2, 94015, Note_on_c, 5, 53, 127
2, 94015, Note_on_c, 10, 69, 127
2, 94015, Note_on_c, 0, 72, 127
2, 94390, Note_off_c, 0, 72, 127
2, 94390, Note_off_c, 10, 69, 127
2, 94390, Note_off_c, 5, 53, 127
2, 94395, Note_on_c, 8, 44, 127
2, 94395, Note_on_c, 12, 71, 127
2, 94584, Note_on_c, 0, 72, 127
2, 94749, Note_off_c, 8, 44, 127
2, 94768, Note_off_c, 0, 72, 127
2, 94773, Note_on_c, 4, 40, 127
2, 94773, Note_on_c, 2, 74, 127
2, 94946, Note_off_c, 12, 71, 127
2, 94957, Note_off_c, 2, 74, 127
2, 94962, Note_on_c, 12, 71, 127
2, 95148, Note_off_c, 12, 71, 127
2, 95152, Note_on_c, 0, 72, 127
2, 95326, Note_off_c, 4, 40, 127
2, 95341, Note_on_c, 12, 71, 127
2, 95527, Note_off_c, 12, 71, 127
2, 95532, Note_on_c, 10, 45, 127
2, 95532, Note_on_c, 10, 69, 127
2, 95705, Note_off_c, 0, 72, 127
2, 95721, Note_on_c, 0, 72, 127
2, 95907, Note_off_c, 0, 72, 127
2, 95907, Note_off_c, 10, 69, 127
2, 95907, Note_off_c, 10, 45, 127
2, 95911, Note_on_c, 12, 47, 127
2, 95911, Note_on_c, 7, 67, 127
2, 95911, Note_on_c, 2, 74, 127
2, 96097, Note_off_c, 2, 74, 127
2, 96097, Note_off_c, 12, 47, 127
2, 96101, Note_on_c, 0, 48, 127
2, 96101, Note_on_c, 4, 76, 127
2, 96287, Note_off_c, 4, 76, 127
2, 96287, Note_off_c, 0, 48, 127
2, 96292, Note_on_c, 10, 45, 127
2, 96292, Note_on_c, 5, 77, 127
2, 96478, Note_off_c, 5, 77, 127
2, 96478, Note_off_c, 10, 45, 127
2, 96482, Note_on_c, 12, 47, 127
2, 96482, Note_on_c, 2, 74, 127
2, 96668, Note_off_c, 2, 74, 127
2, 96668, Note_off_c, 12, 47, 127
2, 96673, Note_on_c, 1, 49, 127
2, 96673, Note_on_c, 4, 76, 127
2, 96858, Note_off_c, 7, 67, 127
2, 96859, Note_off_c, 1, 49, 127
2, 96863, Note_on_c, 2, 50, 127
2, 96863, Note_on_c, 5, 65, 127
2, 97049, Note_off_c, 5, 65, 127
2, 97049, Note_off_c, 2, 50, 127
2, 97053, Note_on_c, 12, 47, 127
2, 97053, Note_on_c, 4, 64, 127
2, 97239, Note_off_c, 4, 64, 127
2, 97239, Note_off_c, 12, 47, 127
2, 97244, Note_on_c, 1, 49, 127
2, 97244, Note_on_c, 7, 67, 127
2, 97430, Note_off_c, 7, 67, 127
2, 97430, Note_off_c, 1, 49, 127
2, 97434, Note_on_c, 2, 50, 127
2, 97434, Note_on_c, 6, 66, 127
2, 97809, Note_off_c, 2, 50, 127
2, 97809, Note_off_c, 4, 76, 127
2, 97814, Note_on_c, 0, 48, 127
2, 97814, Note_on_c, 10, 69, 127
2, 98188, Note_off_c, 6, 66, 127
2, 98189, Note_off_c, 10, 69, 127
2, 98189, Note_off_c, 0, 48, 127
2, 98193, Note_on_c, 12, 47, 127
2, 98193, Note_on_c, 8, 68, 127
2, 98193, Note_on_c, 12, 71, 127
2, 98379, Note_off_c, 12, 71, 127
2, 98383, Note_on_c, 0, 72, 127
2, 98569, Note_off_c, 0, 72, 127
2, 98569, Note_off_c, 12, 47, 127
2, 98574, Note_on_c, 4, 52, 127
2, 98574, Note_on_c, 2, 74, 127
2, 98944, Note_off_c, 8, 68, 127
2, 98949, Note_off_c, 2, 74, 127
2, 98953, Note_on_c, 10, 45, 127
2, 98953, Note_on_c, 10, 69, 127
2, 99324, Note_off_c, 4, 52, 127
2, 99328, Note_off_c, 10, 69, 127
2, 99328, Note_off_c, 10, 45, 127
2, 99333, Note_on_c, 12, 47, 127
2, 99333, Note_on_c, 4, 52, 127
2, 99333, Note_on_c, 0, 72, 127
2, 99333, Note_on_c, 10, 69, 127
2, 99519, Note_off_c, 4, 52, 127
2, 99523, Note_on_c, 3, 51, 127
2, 99709, Note_off_c, 3, 51, 127
2, 99709, Note_off_c, 10, 69, 127
2, 99709, Note_off_c, 0, 72, 127
2, 99709, Note_off_c, 12, 47, 127
2, 99713, Note_on_c, 1, 49, 127
2, 99713, Note_on_c, 4, 52, 127
2, 99713, Note_on_c, 12, 71, 127
2, 99713, Note_on_c, 7, 67, 127
2, 100088, Note_off_c, 7, 67, 127
2, 100088, Note_off_c, 12, 71, 127
2, 100088, Note_off_c, 4, 52, 127
2, 100088, Note_off_c, 1, 49, 127
2, 100093, Note_on_c, 3, 51, 127
2, 100093, Note_on_c, 6, 54, 127
2, 100093, Note_on_c, 6, 66, 127
2, 100093, Note_on_c, 10, 69, 127
2, 100468, Note_off_c, 10, 69, 127
2, 100468, Note_off_c, 6, 66, 127
2, 100468, Note_off_c, 6, 54, 127
2, 100468, Note_off_c, 3, 51, 127
2, 100472, Note_on_c, 4, 52, 127
2, 100472, Note_on_c, 7, 55, 127
2, 100472, Note_on_c, 7, 67, 127
2, 100472, Note_on_c, 4, 64, 127
2, 100847, Note_off_c, 4, 64, 127
2, 100847, Note_off_c, 7, 67, 127
2, 100847, Note_off_c, 7, 55, 127
2, 100847, Note_off_c, 4, 52, 127
2, 100852, Note_on_c, 4, 52, 127
2, 100852, Note_on_c, 7, 55, 127
2, 100852, Note_on_c, 4, 76, 127
2, 100852, Note_on_c, 0, 72, 127
2, 101038, Note_off_c, 7, 55, 127
2, 101038, Note_off_c, 4, 52, 127
2, 101042, Note_on_c, 2, 50, 127
2, 101042, Note_on_c, 6, 54, 127
2, 101228, Note_off_c, 6, 54, 127
2, 101228, Note_off_c, 2, 50, 127
2, 101228, Note_off_c, 0, 72, 127
2, 101228, Note_off_c, 4, 76, 127
2, 101232, Note_on_c, 4, 52, 127
2, 101232, Note_on_c, 7, 55, 127
2, 101232, Note_on_c, 2, 74, 127
2, 101232, Note_on_c, 12, 71, 127
2, 101607, Note_off_c, 12, 71, 127
2, 101607, Note_off_c, 2, 74, 127
2, 101607, Note_off_c, 7, 55, 127
2, 101607, Note_off_c, 4, 52, 127
2, 101612, Note_on_c, 6, 54, 127
2, 101612, Note_on_c, 10, 57, 127
2, 101612, Note_on_c, 0, 72, 127
2, 101612, Note_on_c, 10, 69, 127
2, 101987, Note_off_c, 10, 69, 127
2, 101987, Note_off_c, 0, 72, 127
2, 101987, Note_off_c, 10, 57, 127
2, 101987, Note_off_c, 6, 54, 127
2, 101991, Note_on_c, 7, 55, 127
2, 101991, Note_on_c, 12, 59, 127
2, 101991, Note_on_c, 12, 71, 127
2, 101991, Note_on_c, 7, 67, 127
2, 102177, Note_off_c, 7, 67, 127
2, 102177, Note_off_c, 12, 59, 127
2, 102182, Note_on_c, 10, 57, 127
2, 102182, Note_on_c, 6, 66, 127
2, 102367, Note_off_c, 7, 55, 127
2, 102368, Note_off_c, 6, 66, 127
2, 102368, Note_off_c, 10, 57, 127
2, 102372, Note_on_c, 7, 55, 127
2, 102372, Note_on_c, 4, 64, 127
2, 102558, Note_off_c, 4, 64, 127
2, 102562, Note_on_c, 10, 57, 127
2, 102562, Note_on_c, 6, 66, 127
2, 102744, Note_off_c, 12, 71, 127
2, 102748, Note_off_c, 6, 66, 127
2, 102748, Note_off_c, 10, 57, 127
2, 102748, Note_off_c, 7, 55, 127
2, 102753, Note_on_c, 12, 59, 127
2, 102753, Note_on_c, 7, 67, 127
2, 103128, Note_off_c, 7, 67, 127
2, 103128, Note_off_c, 12, 59, 127
2, 103132, Note_on_c, 10, 57, 127
2, 103132, Note_on_c, 0, 60, 127
2, 103132, Note_on_c, 6, 66, 127
2, 103132, Note_on_c, 10, 69, 127
2, 103507, Note_off_c, 0, 60, 127
2, 103507, Note_off_c, 10, 57, 127
2, 103512, Note_on_c, 12, 59, 127
2, 103512, Note_on_c, 3, 51, 127
2, 103886, Note_off_c, 10, 69, 127
2, 103886, Note_off_c, 6, 66, 127
2, 103887, Note_off_c, 3, 51, 127
2, 103891, Note_on_c, 12, 47, 127
2, 103891, Note_on_c, 4, 64, 127
2, 103891, Note_on_c, 7, 67, 127
2, 104077, Note_off_c, 7, 67, 127
2, 104077, Note_off_c, 4, 64, 127
2, 104077, Note_off_c, 12, 59, 127
2, 104081, Note_on_c, 10, 45, 127
2, 104081, Note_on_c, 3, 63, 127
2, 104081, Note_on_c, 6, 66, 127
2, 104267, Note_off_c, 6, 66, 127
2, 104267, Note_off_c, 3, 63, 127
2, 104267, Note_off_c, 10, 45, 127
2, 104267, Note_off_c, 12, 47, 127
2, 104272, Note_on_c, 7, 43, 127
2, 104272, Note_on_c, 4, 64, 127
2, 104272, Note_on_c, 7, 67, 127
2, 104458, Note_off_c, 7, 67, 127
2, 104462, Note_on_c, 10, 69, 127
2, 104648, Note_off_c, 10, 69, 127
2, 104648, Note_off_c, 7, 43, 127
2, 104653, Note_on_c, 4, 40, 127
2, 104653, Note_on_c, 4, 52, 127
2, 104653, Note_on_c, 12, 71, 127
2, 104839, Note_off_c, 12, 71, 127
2, 104843, Note_on_c, 7, 67, 127
2, 105029, Note_off_c, 7, 67, 127
2, 105029, Note_off_c, 4, 52, 127
2, 105029, Note_off_c, 4, 40, 127
2, 105033, Note_on_c, 10, 45, 127
2, 105033, Note_on_c, 6, 54, 127
2, 105033, Note_on_c, 0, 72, 127
2, 105219, Note_off_c, 6, 54, 127
2, 105224, Note_on_c, 7, 55, 127
2, 105410, Note_off_c, 7, 55, 127
2, 105410, Note_off_c, 4, 64, 127
2, 105414, Note_on_c, 4, 52, 127
2, 105414, Note_on_c, 10, 69, 127
2, 105600, Note_off_c, 10, 69, 127
2, 105600, Note_off_c, 4, 52, 127
2, 105605, Note_on_c, 6, 54, 127
2, 105605, Note_on_c, 3, 63, 127
2, 105790, Note_off_c, 10, 45, 127
2, 105791, Note_off_c, 3, 63, 127
2, 105791, Note_off_c, 6, 54, 127
2, 105795, Note_on_c, 12, 47, 127
2, 105795, Note_on_c, 7, 55, 127
2, 105795, Note_on_c, 4, 64, 127
2, 105981, Note_off_c, 7, 55, 127
2, 105985, Note_on_c, 10, 57, 127
2, 106171, Note_off_c, 10, 57, 127
2, 106171, Note_off_c, 0, 72, 127
2, 106176, Note_on_c, 6, 54, 127
2, 106176, Note_on_c, 12, 71, 127
2, 106362, Note_off_c, 6, 54, 127
2, 106366, Note_on_c, 7, 55, 127
2, 106552, Note_off_c, 7, 55, 127
2, 106552, Note_off_c, 12, 71, 127
2, 106552, Note_off_c, 12, 47, 127
2, 106557, Note_on_c, 0, 48, 127
2, 106557, Note_on_c, 10, 57, 127
2, 106557, Note_on_c, 10, 69, 127
2, 106743, Note_off_c, 10, 69, 127
2, 106747, Note_on_c, 7, 67, 127
2, 106933, Note_off_c, 7, 67, 127
2, 106933, Note_off_c, 10, 57, 127
2, 106933, Note_off_c, 0, 48, 127
2, 106937, Note_on_c, 12, 47, 127
2, 106937, Note_on_c, 7, 55, 127
2, 106937, Note_on_c, 10, 69, 127
2, 107123, Note_off_c, 10, 69, 127
2, 107128, Note_on_c, 12, 71, 127
2, 107313, Note_off_c, 7, 55, 127
2, 107313, Note_off_c, 12, 47, 127
2, 107314, Note_off_c, 12, 71, 127
2, 107318, Note_on_c, 10, 45, 127
2, 107318, Note_on_c, 6, 54, 127
2, 107318, Note_on_c, 0, 72, 127
2, 107693, Note_off_c, 0, 72, 127
2, 107693, Note_off_c, 6, 54, 127
2, 107693, Note_off_c, 10, 45, 127
2, 107693, Note_off_c, 4, 64, 127
2, 107698, Note_on_c, 12, 47, 127
2, 107698, Note_on_c, 12, 59, 127
2, 107698, Note_on_c, 3, 63, 127
2, 107698, Note_on_c, 6, 66, 127
2, 107884, Note_off_c, 12, 47, 127
2, 107888, Note_on_c, 10, 45, 127
2, 108074, Note_off_c, 10, 45, 127
2, 108074, Note_off_c, 6, 66, 127
2, 108074, Note_off_c, 3, 63, 127
2, 108074, Note_off_c, 12, 59, 127
2, 108078, Note_on_c, 7, 43, 127
2, 108078, Note_on_c, 4, 52, 127
2, 108078, Note_on_c, 4, 64, 127
2, 108078, Note_on_c, 12, 71, 127
2, 108264, Note_off_c, 12, 71, 127
2, 108269, Note_on_c, 10, 69, 127
2, 108454, Note_off_c, 7, 43, 127
2, 108455, Note_off_c, 10, 69, 127
2, 108459, Note_on_c, 10, 45, 127
2, 108459, Note_on_c, 0, 72, 127
2, 108645, Note_off_c, 0, 72, 127
2, 108650, Note_on_c, 12, 71, 127
2, 108835, Note_off_c, 10, 45, 127
2, 108835, Note_off_c, 4, 52, 127
2, 108836, Note_off_c, 12, 71, 127
2, 108840, Note_on_c, 12, 47, 127
2, 108840, Note_on_c, 12, 59, 127
2, 108840, Note_on_c, 10, 69, 127
2, 109026, Note_off_c, 10, 69, 127
2, 109030, Note_on_c, 7, 67, 127
2, 109216, Note_off_c, 7, 67, 127
2, 109216, Note_off_c, 12, 59, 127
2, 109216, Note_off_c, 4, 64, 127
2, 109221, Note_on_c, 10, 57, 127
2, 109221, Note_on_c, 3, 63, 127
2, 109221, Note_on_c, 6, 66, 127
2, 109407, Note_off_c, 6, 66, 127
2, 109411, Note_on_c, 7, 67, 127
2, 109597, Note_off_c, 7, 67, 127
2, 109597, Note_off_c, 3, 63, 127
2, 109597, Note_off_c, 10, 57, 127
2, 109597, Note_off_c, 12, 47, 127
2, 109602, Note_on_c, 4, 52, 127
2, 109602, Note_on_c, 8, 56, 127
2, 109602, Note_on_c, 4, 64, 127
2, 109977, Note_off_c, 4, 64, 127
2, 109977, Note_off_c, 8, 56, 127
2, 109977, Note_off_c, 4, 52, 127
2, 109981, Note_on_c, 2, 50, 127
2, 109981, Note_on_c, 4, 52, 127
2, 109981, Note_on_c, 4, 76, 127
2, 110167, Note_off_c, 4, 76, 127
2, 110171, Note_on_c, 5, 77, 127
2, 110357, Note_off_c, 5, 77, 127
2, 110357, Note_off_c, 4, 52, 127
2, 110357, Note_off_c, 2, 50, 127
2, 110362, Note_on_c, 0, 48, 127
2, 110362, Note_on_c, 6, 54, 127
2, 110362, Note_on_c, 4, 76, 127
2, 110737, Note_off_c, 4, 76, 127
2, 110737, Note_off_c, 6, 54, 127
2, 110737, Note_off_c, 0, 48, 127
2, 110741, Note_on_c, 12, 47, 127
2, 110741, Note_on_c, 8, 56, 127
2, 110741, Note_on_c, 2, 74, 127
2, 111116, Note_off_c, 2, 74, 127
2, 111116, Note_off_c, 8, 56, 127
2, 111116, Note_off_c, 12, 47, 127
2, 111121, Note_on_c, 10, 45, 127
2, 111121, Note_on_c, 10, 57, 127
2, 111121, Note_on_c, 0, 72, 127
2, 111496, Note_off_c, 0, 72, 127
2, 111496, Note_off_c, 10, 57, 127
2, 111496, Note_off_c, 10, 45, 127
2, 111500, Note_on_c, 12, 59, 127
2, 111500, Note_on_c, 4, 64, 127
2, 111500, Note_on_c, 0, 72, 127
2, 111686, Note_off_c, 0, 72, 127
2, 111690, Note_on_c, 2, 74, 127
2, 111876, Note_off_c, 2, 74, 127
2, 111876, Note_off_c, 4, 64, 127
2, 111876, Note_off_c, 12, 59, 127
2, 111881, Note_on_c, 10, 57, 127
2, 111881, Note_on_c, 0, 72, 127
2, 111881, Note_on_c, 6, 66, 127
2, 112256, Note_off_c, 6, 66, 127
2, 112256, Note_off_c, 0, 72, 127
2, 112256, Note_off_c, 10, 57, 127
2, 112260, Note_on_c, 7, 55, 127
2, 112260, Note_on_c, 12, 71, 127
2, 112260, Note_on_c, 7, 67, 127
2, 112635, Note_off_c, 7, 67, 127
2, 112635, Note_off_c, 12, 71, 127
2, 112635, Note_off_c, 7, 55, 127
2, 112640, Note_on_c, 6, 54, 127
2, 112640, Note_on_c, 10, 69, 127
2, 112829, Note_on_c, 12, 71, 127
2, 113015, Note_off_c, 12, 71, 127
2, 113015, Note_off_c, 10, 69, 127
2, 113015, Note_off_c, 6, 54, 127
2, 113019, Note_on_c, 7, 55, 127
2, 113019, Note_on_c, 10, 57, 127
2, 113019, Note_on_c, 0, 72, 127
2, 113205, Note_off_c, 0, 72, 127
2, 113209, Note_on_c, 12, 71, 127
2, 113395, Note_off_c, 12, 71, 127
2, 113395, Note_off_c, 10, 57, 127
2, 113395, Note_off_c, 7, 55, 127
2, 113400, Note_on_c, 6, 54, 127
2, 113400, Note_on_c, 12, 59, 127
2, 113400, Note_on_c, 10, 69, 127
2, 113775, Note_off_c, 10, 69, 127
2, 113775, Note_off_c, 12, 59, 127
2, 113775, Note_off_c, 6, 54, 127
2, 113779, Note_on_c, 4, 52, 127
2, 113779, Note_on_c, 1, 61, 127
2, 113779, Note_on_c, 7, 67, 127
2, 114154, Note_off_c, 7, 67, 127
2, 114154, Note_off_c, 1, 61, 127
2, 114154, Note_off_c, 4, 52, 127
2, 114159, Note_on_c, 2, 50, 127
2, 114159, Note_on_c, 2, 62, 127
2, 114159, Note_on_c, 6, 78, 127
2, 114534, Note_off_c, 6, 78, 127
2, 114534, Note_off_c, 2, 62, 127
2, 114534, Note_off_c, 2, 50, 127
2, 114538, Note_on_c, 4, 52, 127
2, 114538, Note_on_c, 10, 81, 127
2, 114538, Note_on_c, 2, 62, 127
2, 114913, Note_off_c, 2, 62, 127
2, 114913, Note_off_c, 10, 81, 127
2, 114913, Note_off_c, 4, 52, 127
2, 114917, Note_on_c, 2, 50, 127
2, 114917, Note_on_c, 4, 64, 127
2, 115292, Note_off_c, 4, 64, 127
2, 115292, Note_off_c, 2, 50, 127
2, 115297, Note_on_c, 0, 48, 127
2, 115297, Note_on_c, 4, 76, 127
2, 115297, Note_on_c, 6, 66, 127
2, 115672, Note_off_c, 6, 66, 127
2, 115672, Note_off_c, 4, 76, 127
2, 115672, Note_off_c, 0, 48, 127
2, 115676, Note_on_c, 12, 47, 127
2, 115676, Note_on_c, 7, 67, 127
2, 115676, Note_on_c, 2, 74, 127
2, 115862, Note_off_c, 2, 74, 127
2, 115867, Note_on_c, 0, 72, 127
2, 116052, Note_off_c, 7, 67, 127
2, 116052, Note_off_c, 12, 47, 127
2, 116053, Note_off_c, 0, 72, 127
2, 116057, Note_on_c, 7, 55, 127
2, 116057, Note_on_c, 12, 59, 127
2, 116057, Note_on_c, 4, 76, 127
2, 116243, Note_off_c, 4, 76, 127
2, 116247, Note_on_c, 2, 74, 127
2, 116433, Note_off_c, 2, 74, 127
2, 116433, Note_off_c, 12, 59, 127
2, 116438, Note_on_c, 10, 57, 127
2, 116438, Note_on_c, 0, 72, 127
2, 116624, Note_off_c, 0, 72, 127
2, 116628, Note_on_c, 12, 71, 127
2, 116814, Note_off_c, 12, 71, 127
2, 116814, Note_off_c, 7, 55, 127
2, 116819, Note_on_c, 6, 54, 127
2, 116819, Note_on_c, 2, 74, 127
2, 117005, Note_off_c, 2, 74, 127
2, 117009, Note_on_c, 0, 72, 127
2, 117195, Note_off_c, 0, 72, 127
2, 117195, Note_off_c, 6, 54, 127
2, 117195, Note_off_c, 10, 57, 127
2, 117199, Note_on_c, 7, 55, 127
2, 117199, Note_on_c, 12, 71, 127
2, 117388, Note_on_c, 4, 52, 127
2, 117574, Note_off_c, 4, 52, 127
2, 117574, Note_off_c, 12, 71, 127
2, 117579, Note_on_c, 2, 50, 127
2, 117579, Note_on_c, 0, 72, 127
2, 117765, Note_off_c, 2, 50, 127
2, 117769, Note_on_c, 0, 48, 127
2, 117955, Note_off_c, 0, 48, 127
2, 117955, Note_off_c, 0, 72, 127
2, 117960, Note_on_c, 12, 47, 127
2, 117960, Note_on_c, 2, 74, 127
2, 118146, Note_off_c, 2, 74, 127
2, 118150, Note_on_c, 12, 71, 127
2, 118336, Note_off_c, 12, 71, 127
2, 118336, Note_off_c, 12, 47, 127
2, 118340, Note_on_c, 4, 52, 127
2, 118340, Note_on_c, 10, 69, 127
2, 118526, Note_off_c, 10, 69, 127
2, 118531, Note_on_c, 7, 67, 127
2, 118716, Note_off_c, 4, 52, 127
2, 118717, Note_off_c, 7, 67, 127
2, 118721, Note_on_c, 0, 48, 127
2, 118721, Note_on_c, 4, 76, 127
2, 118812, Note_off_c, 4, 76, 127
2, 118816, Note_on_c, 6, 78, 127
2, 118907, Note_off_c, 6, 78, 127
2, 118912, Note_on_c, 4, 76, 127
2, 119097, Note_off_c, 0, 48, 127
2, 119097, Note_off_c, 7, 55, 127
2, 119098, Note_off_c, 4, 76, 127
2, 119102, Note_on_c, 10, 45, 127
2, 119102, Note_on_c, 10, 57, 127
2, 119102, Note_on_c, 6, 78, 127
2, 119102, Note_on_c, 2, 74, 127
2, 119288, Note_off_c, 2, 74, 127
2, 119288, Note_off_c, 6, 78, 127
2, 119292, Note_on_c, 7, 79, 127
2, 119292, Note_on_c, 4, 76, 127
2, 119478, Note_off_c, 4, 76, 127
2, 119478, Note_off_c, 7, 79, 127
2, 119478, Note_off_c, 10, 45, 127
2, 119483, Note_on_c, 2, 50, 127
2, 119483, Note_on_c, 7, 79, 127
2, 119483, Note_on_c, 2, 74, 127
2, 119551, Note_on_c, 6, 78, 127
2, 119557, Note_off_c, 7, 79, 127
2, 119620, Note_on_c, 7, 79, 127
2, 119625, Note_off_c, 6, 78, 127
2, 119689, Note_on_c, 6, 78, 127
2, 119690, Note_off_c, 7, 79, 127
2, 119855, Note_off_c, 2, 74, 127
2, 119855, Note_off_c, 2, 50, 127
2, 119855, Note_off_c, 10, 57, 127
2, 119859, Note_on_c, 2, 38, 127
2, 119859, Note_on_c, 2, 50, 127
2, 119859, Note_on_c, 0, 72, 127
2, 120034, Note_off_c, 6, 78, 127
2, 120048, Note_on_c, 7, 79, 127
2, 120234, Note_off_c, 7, 79, 127
2, 120234, Note_off_c, 0, 72, 127
2, 120234, Note_off_c, 2, 38, 127
2, 120239, Note_on_c, 7, 43, 127
2, 120239, Note_on_c, 7, 79, 127
2, 120239, Note_on_c, 12, 71, 127
2, 120613, Note_off_c, 2, 50, 127
2, 120614, Note_off_c, 12, 71, 127
2, 120614, Note_off_c, 7, 43, 127
2, 120618, Note_on_c, 7, 67, 127
2, 120618, Note_on_c, 12, 71, 127
2, 120804, Note_off_c, 12, 71, 127
2, 120804, Note_off_c, 7, 67, 127
2, 120809, Note_on_c, 10, 69, 127
2, 120809, Note_on_c, 0, 72, 127
2, 120995, Note_off_c, 0, 72, 127
2, 120995, Note_off_c, 10, 69, 127
2, 120999, Note_on_c, 7, 67, 127
2, 120999, Note_on_c, 12, 71, 127
2, 121374, Note_off_c, 12, 71, 127
2, 121374, Note_off_c, 7, 67, 127
2, 121378, Note_on_c, 5, 65, 127
2, 121378, Note_on_c, 10, 69, 127
2, 121753, Note_off_c, 10, 69, 127
2, 121753, Note_off_c, 5, 65, 127
2, 121758, Note_on_c, 4, 64, 127
2, 121758, Note_on_c, 7, 67, 127
2, 122133, Note_off_c, 4, 64, 127
2, 122137, Note_off_c, 7, 79, 127
2, 122137, Note_on_c, 4, 64, 127
2, 122137, Note_on_c, 7, 79, 127
2, 122323, Note_off_c, 7, 79, 127
2, 122323, Note_off_c, 4, 64, 127
2, 122328, Note_on_c, 5, 65, 127
2, 122328, Note_on_c, 10, 81, 127
2, 122509, Note_off_c, 7, 67, 127
2, 122514, Note_off_c, 10, 81, 127
2, 122514, Note_off_c, 5, 65, 127
2, 122518, Note_on_c, 4, 64, 127
2, 122518, Note_on_c, 7, 79, 127
2, 122518, Note_on_c, 10, 69, 127
2, 122893, Note_off_c, 10, 69, 127
2, 122893, Note_off_c, 7, 79, 127
2, 122893, Note_off_c, 4, 64, 127
2, 122897, Note_on_c, 2, 62, 127
2, 122897, Note_on_c, 5, 77, 127
2, 122897, Note_on_c, 12, 71, 127
2, 123272, Note_off_c, 12, 71, 127
2, 123272, Note_off_c, 5, 77, 127
2, 123272, Note_off_c, 2, 62, 127
2, 123277, Note_on_c, 0, 60, 127
2, 123277, Note_on_c, 4, 76, 127
2, 123277, Note_on_c, 0, 72, 127
2, 123463, Note_off_c, 4, 76, 127
2, 123463, Note_off_c, 0, 60, 127
2, 123467, Note_on_c, 2, 62, 127
2, 123467, Note_on_c, 2, 74, 127
2, 123653, Note_off_c, 2, 74, 127
2, 123653, Note_off_c, 2, 62, 127
2, 123653, Note_off_c, 0, 72, 127
2, 123658, Note_on_c, 4, 64, 127
2, 123658, Note_on_c, 0, 72, 127
2, 123844, Note_off_c, 4, 64, 127
2, 123848, Note_on_c, 2, 62, 127
2, 123848, Note_on_c, 2, 74, 127
2, 124034, Note_off_c, 2, 74, 127
2, 124034, Note_off_c, 2, 62, 127
2, 124034, Note_off_c, 0, 72, 127
2, 124038, Note_on_c, 0, 60, 127
2, 124038, Note_on_c, 4, 76, 127
2, 124224, Note_off_c, 4, 76, 127
2, 124229, Note_on_c, 5, 77, 127
2, 124414, Note_off_c, 0, 60, 127
2, 124415, Note_off_c, 5, 77, 127
2, 124419, Note_on_c, 11, 58, 127
2, 124419, Note_on_c, 7, 79, 127
2, 124419, Note_on_c, 2, 74, 127
2, 124794, Note_off_c, 2, 74, 127
2, 124794, Note_off_c, 11, 58, 127
2, 124799, Note_on_c, 10, 69, 127
2, 124799, Note_on_c, 1, 73, 127
2, 124972, Note_off_c, 7, 79, 127
2, 124988, Note_on_c, 5, 77, 127
2, 125174, Note_off_c, 5, 77, 127
2, 125174, Note_off_c, 1, 73, 127
2, 125174, Note_off_c, 10, 69, 127
2, 125178, Note_on_c, 1, 73, 127
2, 125178, Note_on_c, 4, 76, 127
2, 125364, Note_off_c, 4, 76, 127
2, 125365, Note_off_c, 1, 73, 127
2, 125367, Note_on_c, 2, 74, 127
2, 125367, Note_on_c, 5, 77, 127
2, 125553, Note_off_c, 5, 77, 127
2, 125553, Note_off_c, 2, 74, 127
2, 125557, Note_on_c, 4, 76, 127
2, 125557, Note_on_c, 7, 79, 127
2, 125743, Note_off_c, 7, 79, 127
2, 125748, Note_on_c, 10, 81, 127
2, 125934, Note_off_c, 10, 81, 127
2, 125938, Note_on_c, 7, 67, 127
2, 125938, Note_on_c, 11, 82, 127
2, 126124, Note_off_c, 11, 82, 127
2, 126129, Note_on_c, 7, 79, 127
2, 126314, Note_off_c, 7, 67, 127
2, 126315, Note_off_c, 7, 79, 127
2, 126319, Note_on_c, 5, 65, 127
2, 126319, Note_on_c, 10, 81, 127
2, 126505, Note_off_c, 5, 65, 127
2, 126509, Note_off_c, 4, 76, 127
2, 126509, Note_on_c, 4, 64, 127
2, 126509, Note_on_c, 1, 73, 127
2, 126695, Note_off_c, 1, 73, 127
2, 126695, Note_off_c, 4, 64, 127
2, 126700, Note_on_c, 7, 67, 127
2, 126700, Note_on_c, 2, 74, 127
2, 126873, Note_off_c, 10, 81, 127
2, 126884, Note_off_c, 7, 67, 127
2, 126889, Note_on_c, 5, 65, 127
2, 126889, Note_on_c, 11, 82, 127
2, 127075, Note_off_c, 11, 82, 127
2, 127075, Note_off_c, 5, 65, 127
2, 127079, Note_on_c, 4, 64, 127
2, 127079, Note_on_c, 7, 79, 127
2, 127253, Note_off_c, 2, 74, 127
2, 127263, Note_off_c, 4, 64, 127
2, 127268, Note_on_c, 2, 62, 127
2, 127268, Note_on_c, 12, 71, 127
2, 127454, Note_off_c, 12, 71, 127
2, 127454, Note_off_c, 2, 62, 127
2, 127459, Note_on_c, 5, 65, 127
2, 127459, Note_on_c, 1, 73, 127
2, 127632, Note_off_c, 7, 79, 127
2, 127643, Note_off_c, 5, 65, 127
2, 127648, Note_on_c, 4, 64, 127
2, 127648, Note_on_c, 10, 81, 127
2, 127834, Note_off_c, 10, 81, 127
2, 127834, Note_off_c, 4, 64, 127
2, 127834, Note_off_c, 1, 73, 127
2, 127838, Note_on_c, 2, 62, 127
2, 127838, Note_on_c, 5, 77, 127
2, 127838, Note_on_c, 2, 74, 127
2, 128024, Note_off_c, 5, 77, 127
2, 128028, Note_on_c, 4, 76, 127
2, 128214, Note_off_c, 4, 76, 127
2, 128214, Note_off_c, 2, 62, 127
2, 128219, Note_on_c, 4, 64, 127
2, 128219, Note_on_c, 5, 77, 127
2, 128405, Note_off_c, 5, 77, 127
2, 128409, Note_on_c, 7, 79, 127
2, 128591, Note_off_c, 2, 74, 127
2, 128595, Note_off_c, 7, 79, 127
2, 128595, Note_off_c, 4, 64, 127
2, 128600, Note_on_c, 5, 65, 127
2, 128600, Note_on_c, 10, 81, 127
2, 128786, Note_off_c, 5, 65, 127
2, 128790, Note_on_c, 4, 64, 127
2, 128976, Note_off_c, 4, 64, 127
2, 128976, Note_off_c, 10, 81, 127
2, 128980, Note_on_c, 2, 62, 127
2, 128980, Note_on_c, 10, 69, 127
2, 128980, Note_on_c, 5, 65, 127
2, 129166, Note_off_c, 2, 62, 127
2, 129171, Note_on_c, 0, 60, 127
2, 129356, Note_off_c, 5, 65, 127
2, 129356, Note_off_c, 10, 69, 127
2, 129357, Note_off_c, 0, 60, 127
2, 129361, Note_on_c, 11, 58, 127
2, 129361, Note_on_c, 2, 74, 127
2, 129361, Note_on_c, 7, 67, 127
2, 129547, Note_off_c, 7, 67, 127
2, 129547, Note_off_c, 2, 74, 127
2, 129552, Note_on_c, 1, 73, 127
2, 129552, Note_on_c, 7, 79, 127
2, 129737, Note_off_c, 11, 58, 127
2, 129738, Note_off_c, 7, 79, 127
2, 129738, Note_off_c, 1, 73, 127
2, 129742, Note_on_c, 10, 57, 127
2, 129742, Note_on_c, 2, 74, 127
2, 129742, Note_on_c, 5, 77, 127
2, 129928, Note_off_c, 5, 77, 127
2, 129928, Note_off_c, 2, 74, 127
2, 129928, Note_off_c, 10, 57, 127
2, 129932, Note_on_c, 7, 55, 127
2, 129932, Note_on_c, 11, 58, 127
2, 129932, Note_on_c, 4, 76, 127
2, 130115, Note_off_c, 7, 55, 127
2, 130116, Note_off_c, 4, 76, 127
2, 130116, Note_off_c, 11, 58, 127
2, 130121, Note_on_c, 10, 57, 127
2, 130121, Note_on_c, 1, 73, 127
2, 130121, Note_on_c, 5, 77, 127
2, 130184, Note_on_c, 4, 76, 127
2, 130185, Note_off_c, 5, 77, 127
2, 130247, Note_on_c, 5, 77, 127
2, 130248, Note_off_c, 4, 76, 127
2, 130310, Note_on_c, 4, 76, 127
2, 130311, Note_off_c, 5, 77, 127
2, 130494, Note_off_c, 1, 73, 127
2, 130499, Note_on_c, 7, 55, 127
2, 130685, Note_off_c, 4, 76, 127
2, 130690, Note_on_c, 2, 74, 127
2, 130875, Note_off_c, 7, 55, 127
2, 130876, Note_off_c, 2, 74, 127
2, 130880, Note_on_c, 5, 53, 127
2, 130880, Note_on_c, 2, 74, 127
2, 131255, Note_off_c, 2, 74, 127
2, 131255, Note_off_c, 5, 53, 127
2, 131255, Note_off_c, 10, 57, 127
2, 131260, Note_on_c, 5, 53, 127
2, 131260, Note_on_c, 10, 57, 127
2, 131260, Note_on_c, 10, 69, 127
2, 131446, Note_off_c, 10, 69, 127
2, 131446, Note_off_c, 5, 53, 127
2, 131450, Note_on_c, 7, 55, 127
2, 131450, Note_on_c, 11, 70, 127
2, 131636, Note_off_c, 11, 70, 127
2, 131636, Note_off_c, 7, 55, 127
2, 131636, Note_off_c, 10, 57, 127
2, 131640, Note_on_c, 5, 53, 127
2, 131640, Note_on_c, 12, 59, 127
2, 131640, Note_on_c, 10, 69, 127
2, 132015, Note_off_c, 10, 69, 127
2, 132015, Note_off_c, 12, 59, 127
2, 132015, Note_off_c, 5, 53, 127
2, 132020, Note_on_c, 4, 52, 127
2, 132020, Note_on_c, 1, 61, 127
2, 132020, Note_on_c, 4, 76, 127
2, 132020, Note_on_c, 7, 67, 127
2, 132395, Note_off_c, 7, 67, 127
2, 132395, Note_off_c, 4, 76, 127
2, 132395, Note_off_c, 1, 61, 127
2, 132395, Note_off_c, 4, 52, 127
2, 132399, Note_on_c, 2, 50, 127
2, 132399, Note_on_c, 2, 62, 127
2, 132399, Note_on_c, 5, 65, 127
2, 132399, Note_on_c, 5, 77, 127
2, 132585, Note_off_c, 2, 50, 127
2, 132590, Note_on_c, 4, 52, 127
2, 132775, Note_off_c, 5, 65, 127
2, 132775, Note_off_c, 2, 62, 127
2, 132776, Note_off_c, 4, 52, 127
2, 132780, Note_on_c, 5, 53, 127
2, 132780, Note_on_c, 10, 69, 127
2, 132966, Note_off_c, 5, 53, 127
2, 132970, Note_on_c, 4, 52, 127
2, 133156, Note_off_c, 4, 52, 127
2, 133156, Note_off_c, 10, 69, 127
2, 133161, Note_on_c, 2, 50, 127
2, 133161, Note_on_c, 12, 71, 127
2, 133536, Note_off_c, 12, 71, 127
2, 133536, Note_off_c, 2, 50, 127
2, 133540, Note_on_c, 0, 48, 127
2, 133540, Note_on_c, 0, 72, 127
2, 133915, Note_off_c, 0, 72, 127
2, 133915, Note_off_c, 0, 48, 127
2, 133920, Note_on_c, 12, 59, 127
2, 133920, Note_on_c, 2, 74, 127
2, 134106, Note_off_c, 2, 74, 127
2, 134110, Note_on_c, 0, 72, 127
2, 134275, Note_off_c, 12, 59, 127
2, 134294, Note_off_c, 0, 72, 127
2, 134299, Note_on_c, 2, 62, 127
2, 134299, Note_on_c, 12, 71, 127
2, 134485, Note_off_c, 12, 71, 127
2, 134489, Note_on_c, 10, 69, 127
2, 134675, Note_off_c, 10, 69, 127
2, 134680, Note_on_c, 7, 67, 127
2, 134775, Note_off_c, 2, 62, 127
2, 134870, Note_on_c, 4, 76, 127
2, 134874, Note_off_c, 5, 77, 127
2, 135056, Note_off_c, 4, 76, 127
2, 135056, Note_off_c, 7, 67, 127
2, 135061, Note_on_c, 10, 57, 127
2, 135061, Note_on_c, 2, 74, 127
2, 135061, Note_on_c, 5, 65, 127
2, 135247, Note_off_c, 2, 74, 127
2, 135251, Note_on_c, 0, 72, 127
2, 135437, Note_off_c, 0, 72, 127
2, 135437, Note_off_c, 10, 57, 127
2, 135441, Note_on_c, 7, 55, 127
2, 135441, Note_on_c, 12, 71, 127
2, 135627, Note_off_c, 7, 55, 127
2, 135632, Note_on_c, 5, 53, 127
2, 135814, Note_off_c, 5, 65, 127
2, 135817, Note_off_c, 12, 71, 127
2, 135818, Note_off_c, 5, 53, 127
2, 135822, Note_on_c, 10, 57, 127
2, 135822, Note_on_c, 4, 64, 127
2, 135822, Note_on_c, 0, 72, 127
2, 136008, Note_off_c, 10, 57, 127
2, 136013, Note_on_c, 7, 55, 127
2, 136198, Note_off_c, 4, 64, 127
2, 136199, Note_off_c, 7, 55, 127
2, 136203, Note_on_c, 5, 53, 127
2, 136203, Note_on_c, 2, 62, 127
2, 136389, Note_off_c, 5, 53, 127
2, 136393, Note_on_c, 4, 52, 127
2, 136575, Note_off_c, 0, 72, 127
2, 136579, Note_off_c, 4, 52, 127
2, 136584, Note_on_c, 7, 55, 127
2, 136584, Note_on_c, 12, 71, 127
2, 136770, Note_off_c, 7, 55, 127
2, 136774, Note_on_c, 5, 53, 127
2, 136956, Note_off_c, 2, 62, 127
2, 136960, Note_off_c, 5, 53, 127
2, 136960, Note_off_c, 12, 71, 127
2, 136965, Note_on_c, 4, 52, 127
2, 136965, Note_on_c, 0, 72, 127
2, 137154, Note_on_c, 10, 69, 127
2, 137340, Note_off_c, 10, 69, 127
2, 137340, Note_off_c, 4, 52, 127
2, 137344, Note_on_c, 5, 53, 127
2, 137344, Note_on_c, 7, 67, 127
2, 137530, Note_off_c, 7, 67, 127
2, 137534, Note_on_c, 5, 65, 127
2, 137720, Note_off_c, 5, 65, 127
2, 137720, Note_off_c, 5, 53, 127
2, 137725, Note_on_c, 7, 55, 127
2, 137725, Note_on_c, 4, 64, 127
2, 137911, Note_off_c, 7, 55, 127
2, 137915, Note_on_c, 4, 52, 127
2, 138101, Note_off_c, 4, 52, 127
2, 138101, Note_off_c, 4, 64, 127
2, 138103, Note_off_c, 0, 72, 127
2, 138104, Note_on_c, 2, 50, 127
2, 138104, Note_on_c, 11, 70, 127
2, 138104, Note_on_c, 7, 67, 127
2, 138290, Note_off_c, 2, 50, 127
2, 138295, Note_on_c, 0, 48, 127
2, 138480, Note_off_c, 11, 70, 127
2, 138481, Note_off_c, 0, 48, 127
2, 138485, Note_on_c, 5, 53, 127
2, 138485, Note_on_c, 10, 69, 127
2, 138671, Note_off_c, 5, 53, 127
2, 138675, Note_on_c, 4, 52, 127
2, 138857, Note_off_c, 7, 67, 127
2, 138861, Note_off_c, 4, 52, 127
2, 138866, Note_on_c, 2, 50, 127
2, 138866, Note_on_c, 5, 65, 127
2, 139052, Note_off_c, 5, 65, 127
2, 139052, Note_off_c, 2, 50, 127
2, 139056, Note_on_c, 0, 48, 127
2, 139056, Note_on_c, 7, 67, 127
2, 139242, Note_off_c, 7, 67, 127
2, 139242, Note_off_c, 0, 48, 127
2, 139247, Note_on_c, 2, 50, 127
2, 139247, Note_on_c, 5, 65, 127
2, 139433, Note_off_c, 2, 50, 127
2, 139437, Note_on_c, 4, 52, 127
2, 139623, Note_off_c, 4, 52, 127
2, 139623, Note_off_c, 5, 65, 127
2, 139627, Note_on_c, 5, 53, 127
2, 139627, Note_on_c, 4, 64, 127
2, 139813, Note_off_c, 5, 53, 127
2, 139818, Note_on_c, 2, 50, 127
2, 140003, Note_off_c, 4, 64, 127
2, 140004, Note_off_c, 2, 50, 127
2, 140008, Note_on_c, 12, 47, 127
2, 140008, Note_on_c, 2, 62, 127
2, 140383, Note_off_c, 2, 62, 127
2, 140387, Note_off_c, 10, 69, 127
2, 140388, Note_on_c, 12, 59, 127
2, 140388, Note_on_c, 2, 62, 127
2, 140388, Note_on_c, 8, 68, 127
2, 140574, Note_off_c, 2, 62, 127
2, 140574, Note_off_c, 12, 59, 127
2, 140578, Note_on_c, 0, 60, 127
2, 140578, Note_on_c, 4, 64, 127
2, 140764, Note_off_c, 4, 64, 127
2, 140764, Note_off_c, 0, 60, 127
2, 140764, Note_off_c, 8, 68, 127
2, 140764, Note_off_c, 12, 47, 127
2, 140768, Note_on_c, 0, 48, 127
2, 140768, Note_on_c, 12, 59, 127
2, 140768, Note_on_c, 2, 62, 127
2, 140768, Note_on_c, 10, 69, 127
2, 141143, Note_off_c, 10, 69, 127
2, 141143, Note_off_c, 2, 62, 127
2, 141143, Note_off_c, 12, 59, 127
2, 141143, Note_off_c, 0, 48, 127
2, 141148, Note_on_c, 2, 50, 127
2, 141148, Note_on_c, 10, 57, 127
2, 141148, Note_on_c, 12, 71, 127
2, 141148, Note_on_c, 0, 60, 127
2, 141523, Note_off_c, 0, 60, 127
2, 141523, Note_off_c, 12, 71, 127
2, 141523, Note_off_c, 10, 57, 127
2, 141527, Note_on_c, 8, 56, 127
2, 141527, Note_on_c, 12, 59, 127
2, 141527, Note_on_c, 4, 64, 127
2, 141713, Note_off_c, 12, 59, 127
2, 141718, Note_on_c, 0, 60, 127
2, 141904, Note_off_c, 0, 60, 127
2, 141904, Note_off_c, 2, 50, 127
2, 141908, Note_on_c, 4, 52, 127
2, 141908, Note_on_c, 2, 62, 127
2, 142094, Note_off_c, 2, 62, 127
2, 142098, Note_on_c, 0, 60, 127
2, 142284, Note_off_c, 0, 60, 127
2, 142284, Note_off_c, 4, 52, 127
2, 142289, Note_on_c, 2, 50, 127
2, 142289, Note_on_c, 12, 59, 127
2, 142477, Note_off_c, 4, 64, 127
2, 142478, Note_on_c, 6, 66, 127
2, 142663, Note_off_c, 8, 56, 127
2, 142664, Note_off_c, 6, 66, 127
2, 142664, Note_off_c, 12, 59, 127
2, 142664, Note_off_c, 2, 50, 127
2, 142668, Note_on_c, 0, 48, 127
2, 142668, Note_on_c, 4, 52, 127
2, 142668, Note_on_c, 8, 68, 127
2, 142668, Note_on_c, 10, 57, 127
2, 142854, Note_off_c, 8, 68, 127
2, 142859, Note_on_c, 10, 69, 127
2, 143044, Note_off_c, 10, 57, 127
2, 143044, Note_off_c, 4, 52, 127
2, 143044, Note_off_c, 0, 48, 127
2, 143045, Note_off_c, 10, 69, 127
2, 143049, Note_on_c, 12, 47, 127
2, 143049, Note_on_c, 2, 50, 127
2, 143049, Note_on_c, 12, 71, 127
2, 143049, Note_on_c, 8, 68, 127
2, 143235, Note_off_c, 12, 71, 127
2, 143239, Note_on_c, 0, 72, 127
2, 143425, Note_off_c, 0, 72, 127
2, 143425, Note_off_c, 8, 68, 127
2, 143425, Note_off_c, 2, 50, 127
2, 143425, Note_off_c, 12, 47, 127
2, 143430, Note_on_c, 2, 50, 127
2, 143430, Note_on_c, 5, 53, 127
2, 143430, Note_on_c, 12, 71, 127
2, 143616, Note_off_c, 5, 53, 127
2, 143616, Note_off_c, 2, 50, 127
2, 143620, Note_on_c, 0, 48, 127
2, 143620, Note_on_c, 4, 52, 127
2, 143620, Note_on_c, 0, 72, 127
2, 143806, Note_off_c, 0, 72, 127
2, 143806, Note_off_c, 4, 52, 127
2, 143806, Note_off_c, 0, 48, 127
2, 143806, Note_off_c, 12, 71, 127
2, 143811, Note_on_c, 12, 47, 127
2, 143811, Note_on_c, 2, 50, 127
2, 143811, Note_on_c, 2, 74, 127
2, 144186, Note_off_c, 2, 50, 127
2, 144186, Note_off_c, 12, 47, 127
2, 144190, Note_on_c, 10, 45, 127
2, 144190, Note_on_c, 0, 48, 127
2, 144190, Note_on_c, 5, 65, 127
2, 144565, Note_off_c, 5, 65, 127
2, 144565, Note_off_c, 0, 48, 127
2, 144565, Note_off_c, 10, 45, 127
2, 144569, Note_on_c, 8, 44, 127
2, 144569, Note_on_c, 12, 47, 127
2, 144569, Note_on_c, 4, 64, 127
2, 144755, Note_off_c, 4, 64, 127
2, 144760, Note_on_c, 2, 62, 127
2, 144945, Note_off_c, 12, 47, 127
2, 144945, Note_off_c, 8, 44, 127
2, 144946, Note_off_c, 2, 62, 127
2, 144947, Note_off_c, 2, 74, 127
2, 144949, Note_on_c, 10, 45, 127
2, 144949, Note_on_c, 0, 48, 127
2, 144949, Note_on_c, 0, 72, 127
2, 144949, Note_on_c, 5, 65, 127
2, 145135, Note_off_c, 5, 65, 127
2, 145139, Note_on_c, 4, 64, 127
2, 145325, Note_off_c, 4, 64, 127
2, 145325, Note_off_c, 0, 48, 127
2, 145325, Note_off_c, 10, 45, 127
2, 145330, Note_on_c, 12, 47, 127
2, 145330, Note_on_c, 2, 50, 127
2, 145330, Note_on_c, 2, 62, 127
2, 145516, Note_off_c, 2, 62, 127
2, 145520, Note_on_c, 0, 60, 127
2, 145702, Note_off_c, 0, 72, 127
2, 145706, Note_off_c, 0, 60, 127
2, 145706, Note_off_c, 2, 50, 127
2, 145706, Note_off_c, 12, 47, 127
2, 145710, Note_on_c, 8, 44, 127
2, 145710, Note_on_c, 12, 47, 127
2, 145710, Note_on_c, 12, 71, 127
2, 145710, Note_on_c, 4, 64, 127
2, 145896, Note_off_c, 4, 64, 127
2, 145901, Note_on_c, 2, 62, 127
2, 146086, Note_off_c, 12, 47, 127
2, 146086, Note_off_c, 8, 44, 127
2, 146087, Note_off_c, 2, 62, 127
2, 146091, Note_on_c, 10, 45, 127
2, 146091, Note_on_c, 4, 52, 127
2, 146091, Note_on_c, 0, 60, 127
2, 146461, Note_off_c, 12, 71, 127
2, 146466, Note_off_c, 0, 60, 127
2, 146466, Note_off_c, 10, 45, 127
2, 146471, Note_on_c, 12, 47, 127
2, 146471, Note_on_c, 2, 62, 127
2, 146471, Note_on_c, 10, 69, 127
2, 146657, Note_off_c, 10, 69, 127
2, 146661, Note_on_c, 8, 68, 127
2, 146847, Note_off_c, 8, 68, 127
2, 146847, Note_off_c, 2, 62, 127
2, 146847, Note_off_c, 12, 47, 127
2, 146851, Note_on_c, 0, 48, 127
2, 146851, Note_on_c, 10, 69, 127
2, 146851, Note_on_c, 4, 64, 127
2, 147037, Note_off_c, 4, 64, 127
2, 147042, Note_on_c, 0, 60, 127
2, 147227, Note_off_c, 0, 48, 127
2, 147227, Note_off_c, 4, 52, 127
2, 147228, Note_off_c, 0, 60, 127
2, 147232, Note_on_c, 5, 53, 127
2, 147232, Note_on_c, 12, 59, 127
2, 147418, Note_off_c, 12, 59, 127
2, 147423, Note_on_c, 10, 57, 127
2, 147609, Note_off_c, 10, 57, 127
2, 147613, Note_on_c, 2, 50, 127
2, 147613, Note_on_c, 5, 65, 127
2, 147799, Note_off_c, 5, 65, 127
2, 147803, Note_on_c, 2, 62, 127
2, 147989, Note_off_c, 2, 62, 127
2, 147989, Note_off_c, 2, 50, 127
2, 147989, Note_off_c, 5, 53, 127
2, 147994, Note_on_c, 12, 47, 127
2, 147994, Note_on_c, 2, 50, 127
2, 147994, Note_on_c, 4, 64, 127
2, 148180, Note_off_c, 4, 64, 127
2, 148184, Note_on_c, 5, 65, 127
2, 148370, Note_off_c, 5, 65, 127
2, 148370, Note_off_c, 2, 50, 127
2, 148370, Note_off_c, 12, 47, 127
2, 148371, Note_off_c, 10, 69, 127
2, 148373, Note_on_c, 4, 52, 127
2, 148373, Note_on_c, 10, 69, 127
2, 148373, Note_on_c, 0, 60, 127
2, 148452, Note_on_c, 12, 59, 127
2, 148462, Note_off_c, 0, 60, 127
2, 148530, Note_on_c, 0, 60, 127
2, 148541, Note_off_c, 12, 59, 127
2, 148608, Note_off_c, 10, 69, 127
2, 148608, Note_on_c, 12, 59, 127
2, 148608, Note_on_c, 8, 68, 127
2, 148619, Note_off_c, 0, 60, 127
2, 148745, Note_off_c, 4, 52, 127
2, 148750, Note_on_c, 4, 40, 127
2, 148750, Note_on_c, 2, 50, 127
2, 148932, Note_off_c, 12, 59, 127
2, 148939, Note_on_c, 10, 57, 127
2, 149120, Note_off_c, 8, 68, 127
2, 149125, Note_off_c, 10, 57, 127
2, 149125, Note_off_c, 2, 50, 127
2, 149125, Note_off_c, 4, 40, 127
2, 149129, Note_on_c, 10, 45, 127
2, 149129, Note_on_c, 0, 48, 127
2, 149129, Note_on_c, 10, 69, 127
2, 149129, Note_on_c, 10, 57, 127
2, 149509, Note_off_c, 10, 57, 127
2, 149509, Note_off_c, 10, 69, 127
2, 149509, Note_off_c, 10, 45, 127
2, 149514, Note_on_c, 10, 57, 127
2, 149514, Note_on_c, 10, 69, 127
2, 149570, Note_off_c, 0, 48, 127
2, 149703, Note_off_c, 10, 69, 127
2, 149707, Note_on_c, 8, 68, 127
2, 149896, Note_off_c, 8, 68, 127
2, 149896, Note_off_c, 10, 57, 127
2, 149901, Note_on_c, 0, 48, 127
2, 149901, Note_on_c, 10, 69, 127
2, 150281, Note_off_c, 10, 69, 127
2, 150281, Note_off_c, 0, 48, 127
2, 150286, Note_on_c, 4, 52, 127
2, 150286, Note_on_c, 12, 71, 127
2, 150666, Note_off_c, 12, 71, 127
2, 150666, Note_off_c, 4, 52, 127
2, 150671, Note_on_c, 10, 45, 127
2, 150671, Note_on_c, 0, 72, 127
2, 151051, Note_off_c, 0, 72, 127
2, 151051, Note_off_c, 10, 45, 127
2, 151056, Note_on_c, 5, 53, 127
2, 151056, Note_on_c, 10, 57, 127
2, 151056, Note_on_c, 0, 72, 127
2, 151245, Note_off_c, 0, 72, 127
2, 151245, Note_off_c, 10, 57, 127
2, 151249, Note_on_c, 8, 56, 127
2, 151249, Note_on_c, 12, 71, 127
2, 151438, Note_off_c, 12, 71, 127
2, 151438, Note_off_c, 8, 56, 127
2, 151438, Note_off_c, 5, 53, 127
2, 151442, Note_on_c, 4, 52, 127
2, 151442, Note_on_c, 10, 57, 127
2, 151442, Note_on_c, 0, 72, 127
2, 151822, Note_off_c, 0, 72, 127
2, 151822, Note_off_c, 10, 57, 127
2, 151822, Note_off_c, 4, 52, 127
2, 151827, Note_on_c, 2, 50, 127
2, 151827, Note_on_c, 12, 59, 127
2, 151827, Note_on_c, 2, 74, 127
2, 152207, Note_off_c, 2, 74, 127
2, 152207, Note_off_c, 12, 59, 127
2, 152207, Note_off_c, 2, 50, 127
2, 152212, Note_on_c, 0, 48, 127
2, 152212, Note_on_c, 0, 60, 127
2, 152212, Note_on_c, 4, 76, 127
2, 152401, Note_off_c, 4, 76, 127
2, 152405, Note_on_c, 2, 74, 127
2, 152594, Note_off_c, 2, 74, 127
2, 152594, Note_off_c, 0, 60, 127
2, 152594, Note_off_c, 0, 48, 127
2, 152598, Note_on_c, 10, 57, 127
2, 152598, Note_on_c, 0, 60, 127
2, 152598, Note_on_c, 0, 72, 127
2, 152787, Note_off_c, 0, 72, 127
2, 152787, Note_off_c, 0, 60, 127
2, 152792, Note_on_c, 12, 59, 127
2, 152792, Note_on_c, 2, 74, 127
2, 152980, Note_off_c, 10, 57, 127
2, 152981, Note_off_c, 2, 74, 127
2, 152981, Note_off_c, 12, 59, 127
2, 152985, Note_on_c, 7, 55, 127
2, 152985, Note_on_c, 0, 60, 127
2, 152985, Note_on_c, 4, 76, 127
2, 153365, Note_off_c, 4, 76, 127
2, 153365, Note_off_c, 0, 60, 127
2, 153365, Note_off_c, 7, 55, 127
2, 153370, Note_on_c, 5, 53, 127
2, 153370, Note_on_c, 2, 62, 127
2, 153370, Note_on_c, 5, 77, 127
2, 153750, Note_off_c, 5, 77, 127
2, 153750, Note_off_c, 2, 62, 127
2, 153750, Note_off_c, 5, 53, 127
2, 153755, Note_on_c, 4, 52, 127
2, 153755, Note_on_c, 4, 64, 127
2, 153755, Note_on_c, 8, 68, 127
2, 153944, Note_off_c, 4, 64, 127
2, 153948, Note_on_c, 2, 62, 127
2, 154137, Note_off_c, 2, 62, 127
2, 154137, Note_off_c, 8, 68, 127
2, 154137, Note_off_c, 4, 52, 127
2, 154141, Note_on_c, 10, 57, 127
2, 154141, Note_on_c, 0, 60, 127
2, 154141, Note_on_c, 4, 64, 127
2, 154330, Note_off_c, 0, 60, 127
2, 154330, Note_off_c, 10, 57, 127
2, 154334, Note_on_c, 7, 55, 127
2, 154334, Note_on_c, 2, 62, 127
2, 154523, Note_off_c, 2, 62, 127
2, 154523, Note_off_c, 7, 55, 127
2, 154523, Note_off_c, 4, 64, 127
2, 154528, Note_on_c, 5, 53, 127
2, 154528, Note_on_c, 4, 64, 127
2, 154717, Note_off_c, 5, 53, 127
2, 154721, Note_on_c, 4, 52, 127
2, 154910, Note_off_c, 4, 52, 127
2, 154910, Note_off_c, 4, 64, 127
2, 154914, Note_on_c, 2, 50, 127
2, 154914, Note_on_c, 5, 65, 127
2, 154914, Note_on_c, 10, 69, 127
2, 155103, Note_off_c, 2, 50, 127
2, 155107, Note_on_c, 0, 48, 127
2, 155296, Note_off_c, 0, 48, 127
2, 155296, Note_off_c, 10, 69, 127
2, 155296, Note_off_c, 5, 65, 127
2, 155300, Note_on_c, 12, 47, 127
2, 155300, Note_on_c, 8, 56, 127
2, 155300, Note_on_c, 12, 71, 127
2, 155489, Note_off_c, 12, 71, 127
2, 155494, Note_on_c, 0, 72, 127
2, 155682, Note_off_c, 8, 56, 127
2, 155682, Note_off_c, 12, 47, 127
2, 155683, Note_off_c, 0, 72, 127
2, 155687, Note_on_c, 0, 60, 127
2, 155687, Note_on_c, 4, 52, 127
2, 155687, Note_on_c, 10, 69, 127
2, 155876, Note_off_c, 10, 69, 127
2, 155876, Note_off_c, 0, 60, 127
2, 155880, Note_on_c, 12, 59, 127
2, 155880, Note_on_c, 12, 71, 127
2, 156069, Note_off_c, 12, 71, 127
2, 156069, Note_off_c, 12, 59, 127
2, 156073, Note_on_c, 10, 57, 127
2, 156073, Note_on_c, 0, 72, 127
2, 156249, Note_off_c, 4, 52, 127
2, 156262, Note_off_c, 0, 72, 127
2, 156262, Note_off_c, 10, 57, 127
2, 156266, Note_on_c, 7, 55, 127
2, 156266, Note_on_c, 2, 74, 127
2, 156455, Note_off_c, 2, 74, 127
2, 156455, Note_off_c, 7, 55, 127
2, 156460, Note_on_c, 5, 53, 127
2, 156460, Note_on_c, 10, 57, 127
2, 156460, Note_on_c, 12, 71, 127
2, 156649, Note_off_c, 12, 71, 127
2, 156649, Note_off_c, 5, 53, 127
2, 156653, Note_on_c, 4, 52, 127
2, 156653, Note_on_c, 0, 72, 127
2, 156842, Note_off_c, 0, 72, 127
2, 156842, Note_off_c, 4, 52, 127
2, 156842, Note_off_c, 10, 57, 127
2, 156846, Note_on_c, 2, 50, 127
2, 156846, Note_on_c, 12, 59, 127
2, 156846, Note_on_c, 2, 74, 127
2, 157035, Note_off_c, 12, 59, 127
2, 157039, Note_on_c, 0, 60, 127
2, 157228, Note_off_c, 0, 60, 127
2, 157228, Note_off_c, 2, 74, 127
2, 157232, Note_on_c, 10, 57, 127
2, 157232, Note_on_c, 0, 72, 127
2, 157421, Note_off_c, 10, 57, 127
2, 157426, Note_on_c, 12, 59, 127
2, 157530, Note_off_c, 2, 50, 127
2, 157614, Note_off_c, 0, 72, 127
2, 157615, Note_off_c, 12, 59, 127
2, 157619, Note_on_c, 4, 52, 127
2, 157619, Note_on_c, 0, 60, 127
2, 157619, Note_on_c, 12, 71, 127
2, 157808, Note_off_c, 0, 60, 127
2, 157812, Note_on_c, 2, 62, 127
2, 158001, Note_off_c, 2, 62, 127
2, 158001, Note_off_c, 12, 71, 127
2, 158005, Note_on_c, 12, 59, 127
2, 158005, Note_on_c, 4, 76, 127
2, 158194, Note_off_c, 12, 59, 127
2, 158198, Note_on_c, 0, 60, 127
2, 158303, Note_off_c, 4, 52, 127
2, 158387, Note_off_c, 0, 60, 127
2, 158387, Note_off_c, 4, 76, 127
2, 158392, Note_on_c, 5, 53, 127
2, 158392, Note_on_c, 2, 62, 127
2, 158392, Note_on_c, 10, 69, 127
2, 158772, Note_off_c, 10, 69, 127
2, 158772, Note_off_c, 2, 62, 127
2, 158772, Note_off_c, 5, 53, 127
2, 158777, Note_on_c, 4, 52, 127
2, 158777, Note_on_c, 0, 60, 127
2, 158777, Note_on_c, 10, 81, 127
2, 159157, Note_off_c, 0, 60, 127
2, 159157, Note_off_c, 4, 52, 127
2, 159162, Note_on_c, 2, 50, 127
2, 159162, Note_on_c, 12, 59, 127
2, 159542, Note_off_c, 12, 59, 127
2, 159542, Note_off_c, 2, 50, 127
2, 159542, Note_off_c, 10, 81, 127
2, 159547, Note_on_c, 4, 52, 127
2, 159547, Note_on_c, 4, 64, 127
2, 159547, Note_on_c, 7, 79, 127
2, 159927, Note_off_c, 4, 64, 127
2, 159927, Note_off_c, 4, 52, 127
2, 159932, Note_on_c, 0, 48, 127
2, 159932, Note_on_c, 10, 57, 127
2, 160312, Note_off_c, 0, 48, 127
2, 160312, Note_off_c, 7, 79, 127
2, 160317, Note_on_c, 12, 47, 127
2, 160317, Note_on_c, 0, 84, 127
2, 160506, Note_off_c, 0, 84, 127
2, 160510, Note_on_c, 12, 83, 127
2, 160699, Note_off_c, 12, 83, 127
2, 160699, Note_off_c, 12, 47, 127
2, 160703, Note_on_c, 0, 48, 127
2, 160703, Note_on_c, 10, 81, 127
2, 160892, Note_off_c, 10, 81, 127
2, 160896, Note_on_c, 7, 79, 127
2, 161085, Note_off_c, 7, 79, 127
2, 161085, Note_off_c, 0, 48, 127
2, 161089, Note_on_c, 10, 45, 127
2, 161089, Note_on_c, 6, 78, 127
2, 161278, Note_off_c, 6, 78, 127
2, 161283, Note_on_c, 4, 76, 127
2, 161471, Note_off_c, 10, 45, 127
2, 161472, Note_off_c, 4, 76, 127
2, 161476, Note_on_c, 12, 47, 127
2, 161476, Note_on_c, 3, 75, 127
2, 161863, Note_off_c, 3, 75, 127
2, 161864, Note_off_c, 10, 57, 127
2, 161868, Note_on_c, 7, 55, 127
2, 161868, Note_on_c, 4, 64, 127
2, 161868, Note_on_c, 12, 71, 127
2, 162059, Note_off_c, 4, 64, 127
2, 162059, Note_off_c, 7, 55, 127
2, 162064, Note_on_c, 6, 54, 127
2, 162064, Note_on_c, 3, 63, 127
2, 162255, Note_off_c, 3, 63, 127
2, 162255, Note_off_c, 6, 54, 127
2, 162255, Note_off_c, 12, 71, 127
2, 162260, Note_on_c, 7, 55, 127
2, 162260, Note_on_c, 4, 64, 127
2, 162260, Note_on_c, 1, 73, 127
2, 162647, Note_off_c, 1, 73, 127
2, 162647, Note_off_c, 4, 64, 127
2, 162647, Note_off_c, 7, 55, 127
2, 162647, Note_off_c, 12, 47, 127
2, 162652, Note_on_c, 10, 45, 127
2, 162652, Note_on_c, 10, 57, 127
2, 162652, Note_on_c, 6, 66, 127
2, 162652, Note_on_c, 3, 75, 127
2, 163039, Note_off_c, 3, 75, 127
2, 163039, Note_off_c, 6, 66, 127
2, 163039, Note_off_c, 10, 57, 127
2, 163039, Note_off_c, 10, 45, 127
2, 163044, Note_on_c, 7, 43, 127
2, 163044, Note_on_c, 7, 67, 127
2, 163044, Note_on_c, 4, 76, 127
2, 163044, Note_on_c, 12, 71, 127
2, 163235, Note_off_c, 4, 76, 127
2, 163240, Note_on_c, 2, 74, 127
2, 163431, Note_off_c, 2, 74, 127
2, 163431, Note_off_c, 12, 71, 127
2, 163431, Note_off_c, 7, 67, 127
2, 163431, Note_off_c, 7, 43, 127
2, 163436, Note_on_c, 4, 52, 127
2, 163436, Note_on_c, 4, 64, 127
2, 163436, Note_on_c, 7, 67, 127
2, 163436, Note_on_c, 0, 72, 127
2, 163627, Note_off_c, 0, 72, 127
2, 163627, Note_off_c, 7, 67, 127
2, 163627, Note_off_c, 4, 52, 127
2, 163632, Note_on_c, 3, 51, 127
2, 163632, Note_on_c, 6, 66, 127
2, 163632, Note_on_c, 12, 71, 127
2, 163823, Note_off_c, 12, 71, 127
2, 163823, Note_off_c, 6, 66, 127
2, 163823, Note_off_c, 3, 51, 127
2, 163828, Note_on_c, 4, 52, 127
2, 163828, Note_on_c, 7, 67, 127
2, 163828, Note_on_c, 0, 72, 127
2, 164215, Note_off_c, 7, 67, 127
2, 164215, Note_off_c, 4, 52, 127
2, 164215, Note_off_c, 4, 64, 127
2, 164220, Note_on_c, 6, 54, 127
2, 164220, Note_on_c, 3, 63, 127
2, 164220, Note_on_c, 10, 69, 127
2, 164607, Note_off_c, 10, 69, 127
2, 164607, Note_off_c, 3, 63, 127
2, 164607, Note_off_c, 6, 54, 127
2, 164607, Note_off_c, 0, 72, 127
2, 164612, Note_on_c, 7, 55, 127
2, 164612, Note_on_c, 4, 64, 127
2, 164612, Note_on_c, 12, 71, 127
2, 164808, Note_on_c, 10, 69, 127
2, 164999, Note_off_c, 10, 69, 127
2, 164999, Note_off_c, 12, 71, 127
2, 164999, Note_off_c, 4, 64, 127
2, 164999, Note_off_c, 7, 55, 127
2, 165004, Note_on_c, 7, 55, 127
2, 165004, Note_on_c, 7, 67, 127
2, 165004, Note_on_c, 4, 76, 127
2, 165195, Note_off_c, 4, 76, 127
2, 165195, Note_off_c, 7, 67, 127
2, 165195, Note_off_c, 7, 55, 127
2, 165200, Note_on_c, 6, 54, 127
2, 165200, Note_on_c, 10, 69, 127
2, 165200, Note_on_c, 3, 75, 127
2, 165391, Note_off_c, 3, 75, 127
2, 165391, Note_off_c, 10, 69, 127
2, 165391, Note_off_c, 6, 54, 127
2, 165396, Note_on_c, 7, 55, 127
2, 165396, Note_on_c, 12, 71, 127
2, 165396, Note_on_c, 4, 76, 127
2, 165783, Note_off_c, 4, 76, 127
2, 165783, Note_off_c, 12, 71, 127
2, 165783, Note_off_c, 7, 55, 127
2, 165788, Note_on_c, 10, 57, 127
2, 165788, Note_on_c, 0, 72, 127
2, 165788, Note_on_c, 6, 78, 127
2, 166175, Note_off_c, 6, 78, 127
2, 166175, Note_off_c, 0, 72, 127
2, 166175, Note_off_c, 10, 57, 127
2, 166180, Note_on_c, 12, 59, 127
2, 166180, Note_on_c, 3, 63, 127
2, 166180, Note_on_c, 7, 79, 127
2, 166371, Note_off_c, 12, 59, 127
2, 166376, Note_on_c, 10, 57, 127
2, 166567, Note_off_c, 10, 57, 127
2, 166567, Note_off_c, 7, 79, 127
2, 166567, Note_off_c, 3, 63, 127
2, 166572, Note_on_c, 7, 55, 127
2, 166572, Note_on_c, 12, 59, 127
2, 166572, Note_on_c, 7, 79, 127
2, 166763, Note_off_c, 7, 79, 127
2, 166763, Note_off_c, 7, 55, 127
2, 166768, Note_on_c, 10, 57, 127
2, 166768, Note_on_c, 6, 78, 127
2, 166959, Note_off_c, 6, 78, 127
2, 166959, Note_off_c, 10, 57, 127
2, 166959, Note_off_c, 12, 59, 127
2, 166964, Note_on_c, 12, 59, 127
2, 166964, Note_on_c, 7, 79, 127
2, 167351, Note_off_c, 7, 79, 127
2, 167351, Note_off_c, 12, 59, 127
2, 167356, Note_on_c, 0, 60, 127
2, 167356, Note_on_c, 4, 64, 127
2, 167356, Note_on_c, 10, 81, 127
2, 167743, Note_off_c, 10, 81, 127
2, 167743, Note_off_c, 4, 64, 127
2, 167743, Note_off_c, 0, 60, 127
2, 167748, Note_on_c, 3, 51, 127
2, 167748, Note_on_c, 6, 66, 127
2, 167748, Note_on_c, 12, 71, 127
2, 167939, Note_off_c, 6, 66, 127
2, 167944, Note_on_c, 7, 67, 127
2, 168135, Note_off_c, 7, 67, 127
2, 168135, Note_off_c, 3, 51, 127
2, 168140, Note_on_c, 12, 47, 127
2, 168140, Note_on_c, 4, 64, 127
2, 168331, Note_off_c, 4, 64, 127
2, 168336, Note_on_c, 6, 66, 127
2, 168527, Note_off_c, 6, 66, 127
2, 168532, Note_on_c, 7, 67, 127
2, 168711, Note_off_c, 12, 47, 127
2, 168723, Note_off_c, 7, 67, 127
2, 168728, Note_on_c, 10, 69, 127
2, 168919, Note_off_c, 10, 69, 127
2, 168924, Note_on_c, 4, 52, 127
2, 168924, Note_on_c, 6, 66, 127
2, 169115, Note_off_c, 6, 66, 127
2, 169120, Note_on_c, 7, 67, 127
2, 169311, Note_off_c, 7, 67, 127
2, 169311, Note_off_c, 4, 52, 127
2, 169316, Note_on_c, 6, 54, 127
2, 169316, Note_on_c, 10, 69, 127
2, 169507, Note_off_c, 6, 54, 127
2, 169512, Note_on_c, 7, 55, 127
2, 169703, Note_off_c, 7, 55, 127
2, 169703, Note_off_c, 10, 69, 127
2, 169708, Note_on_c, 4, 52, 127
2, 169708, Note_on_c, 7, 67, 127
2, 169899, Note_off_c, 4, 52, 127
2, 169904, Note_on_c, 6, 54, 127
2, 170095, Note_off_c, 6, 54, 127
2, 170095, Note_off_c, 7, 67, 127
2, 170100, Note_on_c, 7, 55, 127
2, 170100, Note_on_c, 6, 66, 127
2, 170291, Note_off_c, 7, 55, 127
2, 170296, Note_on_c, 10, 57, 127
2, 170487, Note_off_c, 10, 57, 127
2, 170487, Note_off_c, 6, 66, 127
2, 170487, Note_off_c, 12, 71, 127
2, 170492, Note_on_c, 6, 54, 127
2, 170492, Note_on_c, 12, 71, 127
2, 170492, Note_on_c, 4, 76, 127
2, 170683, Note_off_c, 4, 76, 127
2, 170683, Note_off_c, 6, 54, 127
2, 170688, Note_on_c, 7, 55, 127
2, 170688, Note_on_c, 2, 74, 127
2, 170879, Note_off_c, 2, 74, 127
2, 170879, Note_off_c, 7, 55, 127
2, 170879, Note_off_c, 12, 71, 127
2, 170884, Note_on_c, 10, 57, 127
2, 170884, Note_on_c, 4, 64, 127
2, 170884, Note_on_c, 0, 72, 127
2, 171075, Note_off_c, 0, 72, 127
2, 171080, Note_on_c, 12, 71, 127
2, 171271, Note_off_c, 12, 71, 127
2, 171271, Note_off_c, 10, 57, 127
2, 171276, Note_on_c, 7, 55, 127
2, 171276, Note_on_c, 10, 69, 127
2, 171467, Note_off_c, 10, 69, 127
2, 171472, Note_on_c, 12, 71, 127
2, 171663, Note_off_c, 12, 71, 127
2, 171663, Note_off_c, 7, 55, 127
2, 171668, Note_on_c, 6, 54, 127
2, 171668, Note_on_c, 0, 72, 127
2, 172055, Note_off_c, 0, 72, 127
2, 172055, Note_off_c, 6, 54, 127
2, 172055, Note_off_c, 4, 64, 127
2, 172060, Note_on_c, 12, 59, 127
2, 172060, Note_on_c, 3, 63, 127
2, 172060, Note_on_c, 12, 71, 127
2, 172251, Note_off_c, 12, 71, 127
2, 172256, Note_on_c, 10, 69, 127
2, 172447, Note_off_c, 10, 69, 127
2, 172447, Note_off_c, 3, 63, 127
2, 172447, Note_off_c, 12, 59, 127
2, 172452, Note_on_c, 4, 52, 127
2, 172452, Note_on_c, 4, 64, 127
2, 172452, Note_on_c, 7, 67, 127
2, 172839, Note_off_c, 4, 64, 127
2, 172839, Note_off_c, 4, 52, 127
2, 172844, Note_on_c, 4, 52, 127
2, 172844, Note_on_c, 0, 72, 127
2, 173035, Note_off_c, 0, 72, 127
2, 173035, Note_off_c, 4, 52, 127
2, 173040, Note_on_c, 3, 51, 127
2, 173040, Note_on_c, 12, 71, 127
2, 173231, Note_off_c, 12, 71, 127
2, 173231, Note_off_c, 3, 51, 127
2, 173231, Note_off_c, 7, 67, 127
2, 173236, Note_on_c, 4, 52, 127
2, 173236, Note_on_c, 10, 69, 127
2, 173236, Note_on_c, 0, 72, 127
2, 173427, Note_off_c, 10, 69, 127
2, 173432, Note_on_c, 7, 67, 127
2, 173623, Note_off_c, 7, 67, 127
2, 173623, Note_off_c, 4, 52, 127
2, 173628, Note_on_c, 6, 54, 127
2, 173628, Note_on_c, 6, 66, 127
2, 173819, Note_off_c, 6, 66, 127
2, 173824, Note_on_c, 4, 64, 127
2, 174015, Note_off_c, 4, 64, 127
2, 174015, Note_off_c, 6, 54, 127
2, 174020, Note_on_c, 7, 55, 127
2, 174020, Note_on_c, 2, 62, 127
2, 174407, Note_off_c, 2, 62, 127
2, 174407, Note_off_c, 0, 72, 127
2, 174412, Note_on_c, 7, 67, 127
2, 174412, Note_on_c, 12, 71, 127
2, 174603, Note_off_c, 12, 71, 127
2, 174603, Note_off_c, 7, 67, 127
2, 174608, Note_on_c, 5, 65, 127
2, 174608, Note_on_c, 10, 69, 127
2, 174799, Note_off_c, 10, 69, 127
2, 174799, Note_off_c, 5, 65, 127
2, 174804, Note_on_c, 4, 64, 127
2, 174804, Note_on_c, 12, 71, 127
2, 174995, Note_off_c, 4, 64, 127
2, 175000, Note_on_c, 2, 62, 127
2, 175191, Note_off_c, 2, 62, 127
2, 175191, Note_off_c, 12, 71, 127
2, 175196, Note_on_c, 1, 61, 127
2, 175196, Note_on_c, 1, 73, 127
2, 175387, Note_off_c, 1, 61, 127
2, 175392, Note_on_c, 12, 59, 127
2, 175583, Note_off_c, 12, 59, 127
2, 175583, Note_off_c, 1, 73, 127
2, 175588, Note_on_c, 10, 57, 127
2, 175588, Note_on_c, 2, 74, 127
2, 175975, Note_off_c, 2, 74, 127
2, 175975, Note_off_c, 10, 57, 127
2, 175975, Note_off_c, 7, 55, 127
2, 175980, Note_on_c, 6, 54, 127
2, 175980, Note_on_c, 2, 74, 127
2, 176171, Note_off_c, 6, 54, 127
2, 176176, Note_on_c, 4, 52, 127
2, 176176, Note_on_c, 0, 72, 127
2, 176367, Note_off_c, 0, 72, 127
2, 176367, Note_off_c, 4, 52, 127
2, 176372, Note_on_c, 6, 54, 127
2, 176372, Note_on_c, 12, 71, 127
2, 176563, Note_off_c, 12, 71, 127
2, 176568, Note_on_c, 10, 69, 127
2, 176759, Note_off_c, 10, 69, 127
2, 176759, Note_off_c, 6, 54, 127
2, 176764, Note_on_c, 8, 56, 127
2, 176764, Note_on_c, 8, 68, 127
2, 176955, Note_off_c, 8, 68, 127
2, 176960, Note_on_c, 6, 66, 127
2, 177151, Note_off_c, 6, 66, 127
2, 177151, Note_off_c, 8, 56, 127
2, 177156, Note_on_c, 10, 57, 127
2, 177156, Note_on_c, 4, 64, 127
2, 177531, Note_off_c, 2, 74, 127
2, 177543, Note_off_c, 10, 57, 127
2, 177548, Note_on_c, 10, 57, 127
2, 177548, Note_on_c, 0, 72, 127
2, 177739, Note_off_c, 0, 72, 127
2, 177739, Note_off_c, 10, 57, 127
2, 177744, Note_on_c, 8, 56, 127
2, 177744, Note_on_c, 12, 71, 127
2, 177935, Note_off_c, 12, 71, 127
2, 177935, Note_off_c, 8, 56, 127
2, 177935, Note_off_c, 4, 64, 127
2, 177940, Note_on_c, 10, 57, 127
2, 177940, Note_on_c, 10, 69, 127
2, 177940, Note_on_c, 0, 72, 127
2, 178327, Note_off_c, 0, 72, 127
2, 178327, Note_off_c, 10, 57, 127
2, 178332, Note_on_c, 12, 59, 127
2, 178332, Note_on_c, 2, 74, 127
2, 178719, Note_off_c, 2, 74, 127
2, 178719, Note_off_c, 12, 59, 127
2, 178724, Note_on_c, 0, 60, 127
2, 178724, Note_on_c, 4, 76, 127
2, 179111, Note_off_c, 4, 76, 127
2, 179111, Note_off_c, 0, 60, 127
2, 179113, Note_off_c, 10, 69, 127
2, 179114, Note_on_c, 10, 57, 127
2, 179114, Note_on_c, 0, 60, 127
2, 179114, Note_on_c, 10, 69, 127
2, 179305, Note_off_c, 0, 60, 127
2, 179310, Note_on_c, 12, 59, 127
2, 179310, Note_on_c, 8, 68, 127
2, 179501, Note_off_c, 8, 68, 127
2, 179501, Note_off_c, 12, 59, 127
2, 179501, Note_off_c, 10, 69, 127
2, 179501, Note_off_c, 10, 57, 127
2, 179506, Note_on_c, 7, 55, 127
2, 179506, Note_on_c, 0, 60, 127
2, 179506, Note_on_c, 10, 69, 127
2, 179506, Note_on_c, 10, 81, 127
2, 179893, Note_off_c, 10, 69, 127
2, 179893, Note_off_c, 0, 60, 127
2, 179893, Note_off_c, 7, 55, 127
2, 179898, Note_on_c, 5, 53, 127
2, 179898, Note_on_c, 2, 62, 127
2, 179898, Note_on_c, 12, 71, 127
2, 180285, Note_off_c, 12, 71, 127
2, 180285, Note_off_c, 2, 62, 127
2, 180285, Note_off_c, 5, 53, 127
2, 180290, Note_on_c, 4, 52, 127
2, 180290, Note_on_c, 4, 64, 127
2, 180290, Note_on_c, 0, 72, 127
2, 180481, Note_off_c, 4, 64, 127
2, 180481, Note_off_c, 10, 81, 127
2, 180486, Note_on_c, 2, 62, 127
2, 180486, Note_on_c, 8, 80, 127
2, 180677, Note_off_c, 8, 80, 127
2, 180677, Note_off_c, 2, 62, 127
2, 180677, Note_off_c, 0, 72, 127
2, 180682, Note_on_c, 0, 60, 127
2, 180682, Note_on_c, 0, 72, 127
2, 180682, Note_on_c, 10, 81, 127
2, 180873, Note_off_c, 10, 81, 127
2, 180873, Note_off_c, 0, 72, 127
2, 180873, Note_off_c, 0, 60, 127
2, 180878, Note_on_c, 2, 62, 127
2, 180878, Note_on_c, 12, 71, 127
2, 180878, Note_on_c, 8, 80, 127
2, 181069, Note_off_c, 8, 80, 127
2, 181069, Note_off_c, 12, 71, 127
2, 181069, Note_off_c, 2, 62, 127
2, 181074, Note_on_c, 4, 64, 127
2, 181074, Note_on_c, 0, 72, 127
2, 181074, Note_on_c, 10, 81, 127
2, 181461, Note_off_c, 10, 81, 127
2, 181461, Note_off_c, 0, 72, 127
2, 181461, Note_off_c, 4, 64, 127
2, 181463, Note_off_c, 4, 52, 127
2, 181465, Note_on_c, 5, 65, 127
2, 181465, Note_on_c, 2, 74, 127
2, 181465, Note_on_c, 12, 83, 127
2, 181852, Note_off_c, 12, 83, 127
2, 181852, Note_off_c, 2, 74, 127
2, 181852, Note_off_c, 5, 65, 127
2, 181857, Note_on_c, 8, 56, 127
2, 181857, Note_on_c, 4, 76, 127
2, 182053, Note_on_c, 2, 74, 127
2, 182244, Note_off_c, 2, 74, 127
2, 182244, Note_off_c, 8, 56, 127
2, 182249, Note_on_c, 10, 45, 127
2, 182249, Note_on_c, 4, 52, 127
2, 182249, Note_on_c, 0, 72, 127
2, 182440, Note_off_c, 0, 72, 127
2, 182440, Note_off_c, 10, 45, 127
2, 182445, Note_on_c, 12, 47, 127
2, 182445, Note_on_c, 2, 74, 127
2, 182632, Note_off_c, 4, 76, 127
2, 182636, Note_off_c, 2, 74, 127
2, 182636, Note_off_c, 12, 47, 127
2, 182641, Note_on_c, 0, 48, 127
2, 182641, Note_on_c, 4, 76, 127
2, 182820, Note_off_c, 4, 52, 127
2, 183028, Note_off_c, 4, 76, 127
2, 183028, Note_off_c, 0, 48, 127
2, 183033, Note_on_c, 2, 50, 127
2, 183033, Note_on_c, 10, 57, 127
2, 183033, Note_on_c, 2, 74, 127
2, 183033, Note_on_c, 5, 77, 127
2, 183224, Note_off_c, 2, 74, 127
2, 183229, Note_on_c, 0, 72, 127
2, 183420, Note_off_c, 0, 72, 127
2, 183420, Note_off_c, 5, 77, 127
2, 183420, Note_off_c, 10, 57, 127
2, 183425, Note_on_c, 12, 59, 127
2, 183425, Note_on_c, 8, 68, 127
2, 183425, Note_on_c, 12, 71, 127
2, 183616, Note_off_c, 12, 59, 127
2, 183621, Note_on_c, 0, 60, 127
2, 183812, Note_off_c, 0, 60, 127
2, 183812, Note_off_c, 12, 71, 127
2, 183812, Note_off_c, 8, 68, 127
2, 183812, Note_off_c, 2, 50, 127
2, 183817, Note_on_c, 0, 48, 127
2, 183817, Note_on_c, 10, 57, 127
2, 183817, Note_on_c, 4, 64, 127
2, 183817, Note_on_c, 4, 76, 127
2, 184008, Note_off_c, 4, 76, 127
2, 184008, Note_off_c, 10, 57, 127
2, 184008, Note_off_c, 0, 48, 127
2, 184013, Note_on_c, 2, 50, 127
2, 184013, Note_on_c, 12, 59, 127
2, 184013, Note_on_c, 2, 74, 127
2, 184204, Note_off_c, 2, 74, 127
2, 184204, Note_off_c, 12, 59, 127
2, 184204, Note_off_c, 2, 50, 127
2, 184209, Note_on_c, 4, 52, 127
2, 184209, Note_on_c, 0, 60, 127
2, 184209, Note_on_c, 0, 72, 127
2, 184400, Note_off_c, 0, 72, 127
2, 184400, Note_off_c, 0, 60, 127
2, 184405, Note_on_c, 2, 62, 127
2, 184405, Note_on_c, 12, 71, 127
2, 184596, Note_off_c, 12, 71, 127
2, 184596, Note_off_c, 2, 62, 127
2, 184596, Note_off_c, 4, 52, 127
2, 184596, Note_off_c, 4, 64, 127
2, 184601, Note_on_c, 5, 53, 127
2, 184601, Note_on_c, 12, 59, 127
2, 184601, Note_on_c, 10, 69, 127
2, 184792, Note_off_c, 12, 59, 127
2, 184797, Note_on_c, 0, 60, 127
2, 184797, Note_on_c, 8, 68, 127
2, 184988, Note_off_c, 8, 68, 127
2, 184988, Note_off_c, 0, 60, 127
2, 184988, Note_off_c, 10, 69, 127
2, 184993, Note_on_c, 2, 62, 127
2, 184993, Note_on_c, 12, 71, 127
2, 184993, Note_on_c, 10, 69, 127
2, 185184, Note_off_c, 12, 71, 127
2, 185189, Note_on_c, 0, 72, 127
2, 185380, Note_off_c, 0, 72, 127
2, 185380, Note_off_c, 10, 69, 127
2, 185380, Note_off_c, 2, 62, 127
2, 185380, Note_off_c, 5, 53, 127
2, 185385, Note_on_c, 4, 52, 127
2, 185385, Note_on_c, 0, 60, 127
2, 185385, Note_on_c, 10, 69, 127
2, 185576, Note_off_c, 4, 52, 127
2, 185581, Note_on_c, 2, 50, 127
2, 185581, Note_on_c, 12, 71, 127
2, 185772, Note_off_c, 12, 71, 127
2, 185772, Note_off_c, 2, 50, 127
2, 185772, Note_off_c, 10, 69, 127
2, 185772, Note_off_c, 0, 60, 127
2, 185777, Note_on_c, 4, 52, 127
2, 185777, Note_on_c, 12, 59, 127
2, 185777, Note_on_c, 0, 72, 127
2, 185777, Note_on_c, 8, 68, 127
2, 185968, Note_off_c, 0, 72, 127
2, 185973, Note_on_c, 2, 74, 127
2, 186164, Note_off_c, 2, 74, 127
2, 186164, Note_off_c, 12, 59, 127
2, 186164, Note_off_c, 4, 52, 127
2, 186169, Note_on_c, 0, 48, 127
2, 186169, Note_on_c, 4, 64, 127
2, 186169, Note_on_c, 12, 71, 127
2, 186360, Note_off_c, 12, 71, 127
2, 186365, Note_on_c, 0, 72, 127
2, 186556, Note_off_c, 0, 72, 127
2, 186556, Note_off_c, 4, 64, 127
2, 186556, Note_off_c, 0, 48, 127
2, 186556, Note_off_c, 8, 68, 127
2, 186561, Note_on_c, 5, 53, 127
2, 186561, Note_on_c, 10, 57, 127
2, 186561, Note_on_c, 10, 69, 127
2, 186561, Note_on_c, 2, 74, 127
2, 186948, Note_off_c, 2, 74, 127
2, 186948, Note_off_c, 5, 53, 127
2, 186953, Note_on_c, 4, 52, 127
2, 186953, Note_on_c, 0, 72, 127
2, 187144, Note_off_c, 4, 52, 127
2, 187149, Note_on_c, 2, 50, 127
2, 187336, Note_off_c, 10, 69, 127
2, 187340, Note_off_c, 2, 50, 127
2, 187340, Note_off_c, 0, 72, 127
2, 187345, Note_on_c, 4, 52, 127
2, 187345, Note_on_c, 12, 71, 127
2, 187536, Note_off_c, 4, 52, 127
2, 187541, Note_on_c, 5, 53, 127
2, 187732, Note_off_c, 5, 53, 127
2, 187732, Note_off_c, 12, 71, 127
2, 187732, Note_off_c, 10, 57, 127
2, 187737, Note_on_c, 4, 52, 127
2, 187737, Note_on_c, 7, 55, 127
2, 187737, Note_on_c, 4, 76, 127
2, 187928, Note_off_c, 4, 52, 127
2, 187933, Note_on_c, 2, 50, 127
2, 188124, Note_off_c, 2, 50, 127
2, 188124, Note_off_c, 4, 76, 127
2, 188129, Note_on_c, 1, 49, 127
2, 188129, Note_on_c, 10, 69, 127
2, 188516, Note_off_c, 1, 49, 127
2, 188516, Note_off_c, 7, 55, 127
2, 188521, Note_on_c, 10, 45, 127
2, 188521, Note_on_c, 5, 53, 127
2, 188712, Note_off_c, 5, 53, 127
2, 188717, Note_on_c, 4, 52, 127
2, 188908, Note_off_c, 4, 52, 127
2, 188908, Note_off_c, 10, 45, 127
2, 188913, Note_on_c, 2, 50, 127
2, 188913, Note_on_c, 5, 53, 127
2, 189104, Note_off_c, 10, 69, 127
2, 189109, Note_on_c, 5, 77, 127
2, 189300, Note_off_c, 5, 77, 127
2, 189300, Note_off_c, 2, 50, 127
2, 189305, Note_on_c, 0, 48, 127
2, 189305, Note_on_c, 2, 74, 127
2, 189496, Note_off_c, 2, 74, 127
2, 189501, Note_on_c, 12, 71, 127
2, 189692, Note_off_c, 12, 71, 127
2, 189692, Note_off_c, 0, 48, 127
2, 189697, Note_on_c, 12, 47, 127
2, 189697, Note_on_c, 7, 67, 127
2, 190084, Note_off_c, 12, 47, 127
2, 190084, Note_off_c, 5, 53, 127
2, 190089, Note_on_c, 7, 43, 127
2, 190089, Note_on_c, 4, 52, 127
2, 190280, Note_off_c, 4, 52, 127
2, 190285, Note_on_c, 2, 50, 127
2, 190476, Note_off_c, 2, 50, 127
2, 190476, Note_off_c, 7, 43, 127
2, 190481, Note_on_c, 0, 48, 127
2, 190481, Note_on_c, 4, 52, 127
2, 190672, Note_off_c, 7, 67, 127
2, 190677, Note_on_c, 4, 76, 127
2, 190868, Note_off_c, 4, 76, 127
2, 190868, Note_off_c, 0, 48, 127
2, 190873, Note_on_c, 12, 47, 127
2, 190873, Note_on_c, 0, 72, 127
2, 191064, Note_off_c, 0, 72, 127
2, 191069, Note_on_c, 10, 69, 127
2, 191260, Note_off_c, 10, 69, 127
2, 191260, Note_off_c, 12, 47, 127
2, 191265, Note_on_c, 10, 45, 127
2, 191265, Note_on_c, 5, 65, 127
2, 191652, Note_off_c, 5, 65, 127
2, 191652, Note_off_c, 10, 45, 127
2, 191657, Note_on_c, 12, 47, 127
2, 191657, Note_on_c, 7, 67, 127
2, 191848, Note_off_c, 7, 67, 127
2, 191848, Note_off_c, 12, 47, 127
2, 191853, Note_on_c, 0, 48, 127
2, 191853, Note_on_c, 10, 69, 127
2, 192044, Note_off_c, 10, 69, 127
2, 192044, Note_off_c, 0, 48, 127
2, 192044, Note_off_c, 4, 52, 127
2, 192049, Note_on_c, 12, 47, 127
2, 192049, Note_on_c, 2, 50, 127
2, 192049, Note_on_c, 7, 67, 127
2, 192240, Note_off_c, 7, 67, 127
2, 192245, Note_on_c, 5, 65, 127
2, 192436, Note_off_c, 5, 65, 127
2, 192436, Note_off_c, 12, 47, 127
2, 192441, Note_on_c, 7, 43, 127
2, 192441, Note_on_c, 4, 64, 127
2, 192632, Note_off_c, 4, 64, 127
2, 192637, Note_on_c, 5, 65, 127
2, 192824, Note_off_c, 2, 50, 127
2, 192828, Note_off_c, 5, 65, 127
2, 192828, Note_off_c, 7, 43, 127
2, 192833, Note_on_c, 0, 48, 127
2, 192833, Note_on_c, 4, 64, 127
2, 193023, Note_off_c, 0, 48, 127
2, 193029, Note_on_c, 0, 48, 127
2, 193225, Note_on_c, 2, 50, 127
2, 193416, Note_off_c, 2, 50, 127
2, 193421, Note_on_c, 4, 52, 127
2, 193612, Note_off_c, 4, 52, 127
2, 193617, Note_on_c, 5, 53, 127
2, 193808, Note_off_c, 5, 53, 127
2, 193813, Note_on_c, 7, 55, 127
2, 194004, Note_off_c, 7, 55, 127
2, 194009, Note_off_c, 0, 48, 127
2, 194009, Note_on_c, 12, 47, 127
2, 194009, Note_on_c, 10, 57, 127
2, 194200, Note_off_c, 10, 57, 127
2, 194205, Note_on_c, 12, 59, 127
2, 194396, Note_off_c, 12, 59, 127
2, 194396, Note_off_c, 12, 47, 127
2, 194401, Note_on_c, 10, 45, 127
2, 194401, Note_on_c, 0, 60, 127
2, 194592, Note_off_c, 4, 64, 127
2, 194597, Note_on_c, 2, 62, 127
2, 194788, Note_off_c, 2, 62, 127
2, 194793, Note_on_c, 4, 64, 127
2, 194984, Note_off_c, 4, 64, 127
2, 194989, Note_on_c, 5, 65, 127
2, 195180, Note_off_c, 5, 65, 127
2, 195185, Note_on_c, 7, 67, 127
2, 195376, Note_off_c, 7, 67, 127
2, 195381, Note_off_c, 10, 45, 127
2, 195381, Note_on_c, 10, 69, 127
2, 195572, Note_off_c, 10, 69, 127
2, 195577, Note_on_c, 7, 43, 127
2, 195577, Note_on_c, 12, 71, 127
2, 195768, Note_off_c, 12, 71, 127
2, 195773, Note_on_c, 0, 72, 127
2, 195964, Note_off_c, 0, 72, 127
2, 195964, Note_off_c, 7, 43, 127
2, 195969, Note_on_c, 5, 41, 127
2, 195969, Note_on_c, 2, 62, 127
2, 196160, Note_off_c, 2, 62, 127
2, 196160, Note_off_c, 5, 41, 127
2, 196165, Note_on_c, 7, 55, 127
2, 196165, Note_on_c, 4, 64, 127
2, 196356, Note_off_c, 4, 64, 127
2, 196356, Note_off_c, 7, 55, 127
2, 196361, Note_on_c, 5, 53, 127
2, 196361, Note_on_c, 2, 62, 127
2, 196552, Note_off_c, 2, 62, 127
2, 196552, Note_off_c, 5, 53, 127
2, 196557, Note_on_c, 4, 52, 127
2, 196557, Note_on_c, 4, 64, 127
2, 196748, Note_off_c, 4, 64, 127
2, 196748, Note_off_c, 4, 52, 127
2, 196753, Note_on_c, 2, 50, 127
2, 196753, Note_on_c, 5, 65, 127
2, 196944, Note_off_c, 2, 50, 127
2, 196944, Note_off_c, 0, 60, 127
2, 196949, Note_on_c, 0, 48, 127
2, 196949, Note_on_c, 4, 64, 127
2, 197140, Note_off_c, 4, 64, 127
2, 197140, Note_off_c, 0, 48, 127
2, 197145, Note_on_c, 12, 47, 127
2, 197145, Note_on_c, 2, 62, 127
2, 197336, Note_off_c, 2, 62, 127
2, 197336, Note_off_c, 12, 47, 127
2, 197341, Note_on_c, 10, 45, 127
2, 197341, Note_on_c, 0, 60, 127
2, 197532, Note_off_c, 0, 60, 127
2, 197532, Note_off_c, 10, 45, 127
2, 197537, Note_on_c, 7, 43, 127
2, 197537, Note_on_c, 12, 59, 127
2, 197728, Note_off_c, 5, 65, 127
2, 197733, Note_on_c, 10, 69, 127
2, 197761, Note_off_c, 7, 43, 127
2, 197924, Note_off_c, 10, 69, 127
2, 197924, Note_off_c, 12, 59, 127
2, 197929, Note_on_c, 7, 55, 127
2, 197929, Note_on_c, 4, 64, 127
2, 197929, Note_on_c, 7, 67, 127
2, 197929, Note_on_c, 0, 72, 127
2, 198120, Note_off_c, 0, 72, 127
2, 198120, Note_off_c, 7, 67, 127
2, 198120, Note_off_c, 4, 64, 127
2, 198125, Note_on_c, 2, 62, 127
2, 198125, Note_on_c, 5, 65, 127
2, 198125, Note_on_c, 12, 71, 127
2, 198316, Note_off_c, 12, 71, 127
2, 198316, Note_off_c, 5, 65, 127
2, 198316, Note_off_c, 2, 62, 127
2, 198316, Note_off_c, 7, 55, 127
2, 198321, Note_on_c, 10, 57, 127
2, 198321, Note_on_c, 0, 60, 127
2, 198321, Note_on_c, 4, 64, 127
2, 198321, Note_on_c, 0, 72, 127
2, 198512, Note_off_c, 0, 60, 127
2, 198517, Note_on_c, 12, 59, 127
2, 198708, Note_off_c, 12, 59, 127
2, 198708, Note_off_c, 0, 72, 127
2, 198708, Note_off_c, 4, 64, 127
2, 198708, Note_off_c, 10, 57, 127
2, 198713, Note_on_c, 5, 53, 127
2, 198713, Note_on_c, 10, 57, 127
2, 198713, Note_on_c, 10, 69, 127
2, 198713, Note_on_c, 2, 74, 127
2, 198904, Note_off_c, 10, 57, 127
2, 198909, Note_on_c, 12, 59, 127
2, 199100, Note_off_c, 12, 59, 127
2, 199100, Note_off_c, 2, 74, 127
2, 199100, Note_off_c, 10, 69, 127
2, 199100, Note_off_c, 5, 53, 127
2, 199105, Note_on_c, 0, 60, 127
2, 199105, Note_on_c, 7, 67, 127
2, 199105, Note_on_c, 4, 76, 127
2, 199492, Note_off_c, 4, 76, 127
2, 199497, Note_on_c, 0, 48, 127
2, 199497, Note_on_c, 4, 76, 127
2, 199688, Note_off_c, 4, 76, 127
2, 199688, Note_off_c, 0, 48, 127
2, 199693, Note_on_c, 12, 47, 127
2, 199693, Note_on_c, 2, 74, 127
2, 199884, Note_off_c, 2, 74, 127
2, 199884, Note_off_c, 12, 47, 127
2, 199889, Note_on_c, 0, 48, 127
2, 199889, Note_on_c, 4, 76, 127
2, 200276, Note_off_c, 4, 76, 127
2, 200276, Note_off_c, 0, 48, 127
2, 200281, Note_on_c, 2, 50, 127
2, 200281, Note_on_c, 5, 77, 127
2, 200668, Note_off_c, 5, 77, 127
2, 200668, Note_off_c, 2, 50, 127
2, 200673, Note_on_c, 4, 52, 127
2, 200673, Note_on_c, 7, 79, 127
2, 200864, Note_off_c, 7, 79, 127
2, 200869, Note_on_c, 5, 77, 127
2, 201060, Note_off_c, 5, 77, 127
2, 201060, Note_off_c, 4, 52, 127
2, 201060, Note_off_c, 7, 67, 127
2, 201060, Note_off_c, 0, 60, 127
2, 201065, Note_on_c, 4, 52, 127
2, 201065, Note_on_c, 7, 55, 127
2, 201065, Note_on_c, 0, 72, 127
2, 201065, Note_on_c, 4, 76, 127
2, 201256, Note_off_c, 4, 76, 127
2, 201256, Note_off_c, 4, 52, 127
2, 201261, Note_on_c, 2, 50, 127
2, 201261, Note_on_c, 5, 77, 127
2, 201452, Note_off_c, 5, 77, 127
2, 201452, Note_off_c, 2, 50, 127
2, 201452, Note_off_c, 0, 72, 127
2, 201457, Note_on_c, 4, 52, 127
2, 201457, Note_on_c, 12, 71, 127
2, 201457, Note_on_c, 7, 79, 127
2, 201844, Note_off_c, 7, 79, 127
2, 201844, Note_off_c, 12, 71, 127
2, 201844, Note_off_c, 4, 52, 127
2, 201844, Note_off_c, 7, 55, 127
2, 201849, Note_on_c, 6, 54, 127
2, 201849, Note_on_c, 2, 62, 127
2, 201849, Note_on_c, 10, 69, 127
2, 201849, Note_on_c, 10, 81, 127
2, 202236, Note_off_c, 10, 81, 127
2, 202236, Note_off_c, 10, 69, 127
2, 202236, Note_off_c, 6, 54, 127
2, 202241, Note_on_c, 7, 55, 127
2, 202241, Note_on_c, 7, 67, 127
2, 202241, Note_on_c, 12, 71, 127
2, 202432, Note_off_c, 7, 55, 127
2, 202437, Note_on_c, 5, 53, 127
2, 202628, Note_off_c, 5, 53, 127
2, 202628, Note_off_c, 12, 71, 127
2, 202628, Note_off_c, 7, 67, 127
2, 202628, Note_off_c, 2, 62, 127
2, 202633, Note_on_c, 4, 52, 127
2, 202633, Note_on_c, 4, 64, 127
2, 202633, Note_on_c, 7, 67, 127
2, 202824, Note_off_c, 4, 52, 127
2, 202829, Note_on_c, 5, 53, 127
2, 203020, Note_off_c, 5, 53, 127
2, 203020, Note_off_c, 4, 64, 127
2, 203025, Note_on_c, 7, 55, 127
2, 203025, Note_on_c, 2, 62, 127
2, 203025, Note_on_c, 5, 65, 127
2, 203204, Note_off_c, 7, 67, 127
2, 203412, Note_off_c, 5, 65, 127
2, 203412, Note_off_c, 2, 62, 127
2, 203412, Note_off_c, 7, 55, 127
2, 203417, Note_on_c, 10, 57, 127
2, 203417, Note_on_c, 0, 60, 127
2, 203417, Note_on_c, 4, 64, 127
2, 203417, Note_on_c, 0, 72, 127
2, 203804, Note_off_c, 0, 72, 127
2, 203804, Note_off_c, 4, 64, 127
2, 203804, Note_off_c, 0, 60, 127
2, 203804, Note_off_c, 10, 57, 127
2, 203809, Note_on_c, 12, 47, 127
2, 203809, Note_on_c, 7, 55, 127
2, 203809, Note_on_c, 2, 62, 127
2, 203809, Note_on_c, 2, 74, 127
2, 204000, Note_off_c, 2, 74, 127
2, 204000, Note_off_c, 2, 62, 127
2, 204005, Note_on_c, 7, 67, 127
2, 204005, Note_on_c, 4, 76, 127
2, 204196, Note_off_c, 4, 76, 127
2, 204196, Note_off_c, 7, 67, 127
2, 204196, Note_off_c, 12, 47, 127
2, 204201, Note_on_c, 7, 43, 127
2, 204201, Note_on_c, 10, 69, 127
2, 204201, Note_on_c, 0, 72, 127
2, 204392, Note_off_c, 0, 72, 127
2, 204392, Note_off_c, 10, 69, 127
2, 204397, Note_on_c, 12, 71, 127
2, 204397, Note_on_c, 2, 74, 127
2, 204584, Note_off_c, 7, 55, 127
2, 204588, Note_off_c, 2, 74, 127
2, 204588, Note_off_c, 12, 71, 127
2, 204593, Note_on_c, 0, 72, 127
2, 204593, Note_on_c, 4, 76, 127
2, 204731, Note_off_c, 7, 43, 127
2, 204784, Note_off_c, 4, 76, 127
2, 204789, Note_on_c, 5, 77, 127
2, 204980, Note_off_c, 5, 77, 127
2, 204985, Note_on_c, 0, 48, 127
2, 204985, Note_on_c, 2, 74, 127
2, 205176, Note_off_c, 2, 74, 127
2, 205181, Note_on_c, 4, 76, 127
2, 205372, Note_off_c, 4, 76, 127
2, 205372, Note_off_c, 0, 48, 127
2, 205377, Note_on_c, 2, 50, 127
2, 205377, Note_on_c, 5, 77, 127
2, 205568, Note_off_c, 2, 50, 127
2, 205573, Note_on_c, 4, 52, 127
2, 205764, Note_off_c, 4, 52, 127
2, 205764, Note_off_c, 5, 77, 127
2, 205769, Note_on_c, 0, 48, 127
2, 205769, Note_on_c, 4, 76, 127
2, 205960, Note_off_c, 0, 48, 127
2, 205965, Note_on_c, 2, 50, 127
2, 206156, Note_off_c, 2, 50, 127
2, 206156, Note_off_c, 4, 76, 127
2, 206156, Note_off_c, 0, 72, 127
2, 206161, Note_on_c, 4, 52, 127
2, 206161, Note_on_c, 12, 71, 127
2, 206161, Note_on_c, 2, 74, 127
2, 206352, Note_off_c, 4, 52, 127
2, 206357, Note_on_c, 5, 53, 127
2, 206548, Note_off_c, 5, 53, 127
2, 206548, Note_off_c, 2, 74, 127
2, 206548, Note_off_c, 12, 71, 127
2, 206553, Note_on_c, 2, 50, 127
2, 206553, Note_on_c, 7, 55, 127
2, 206553, Note_on_c, 11, 70, 127
2, 206553, Note_on_c, 7, 79, 127
2, 206744, Note_off_c, 2, 50, 127
2, 206749, Note_on_c, 4, 52, 127
2, 206940, Note_off_c, 4, 52, 127
2, 206940, Note_off_c, 7, 79, 127
2, 206940, Note_off_c, 11, 70, 127
2, 206940, Note_off_c, 7, 55, 127
2, 206945, Note_on_c, 5, 53, 127
2, 206945, Note_on_c, 10, 57, 127
2, 206945, Note_on_c, 10, 69, 127
2, 206945, Note_on_c, 0, 72, 127
2, 207136, Note_off_c, 0, 72, 127
2, 207136, Note_off_c, 10, 57, 127
2, 207141, Note_on_c, 12, 59, 127
2, 207141, Note_on_c, 12, 71, 127
2, 207332, Note_off_c, 12, 71, 127
2, 207332, Note_off_c, 12, 59, 127
2, 207332, Note_off_c, 10, 69, 127
2, 207332, Note_off_c, 5, 53, 127
2, 207337, Note_on_c, 4, 52, 127
2, 207337, Note_on_c, 7, 55, 127
2, 207337, Note_on_c, 2, 74, 127
2, 207528, Note_off_c, 2, 74, 127
2, 207528, Note_off_c, 7, 55, 127
2, 207533, Note_on_c, 10, 57, 127
2, 207533, Note_on_c, 0, 72, 127
2, 207724, Note_off_c, 0, 72, 127
2, 207724, Note_off_c, 10, 57, 127
2, 207724, Note_off_c, 4, 52, 127
2, 207729, Note_on_c, 2, 50, 127
2, 207729, Note_on_c, 12, 59, 127
2, 207729, Note_on_c, 12, 71, 127
2, 207920, Note_off_c, 12, 71, 127
2, 207920, Note_off_c, 12, 59, 127
2, 207925, Note_on_c, 0, 60, 127
2, 207925, Note_on_c, 10, 69, 127
2, 208116, Note_off_c, 10, 69, 127
2, 208116, Note_off_c, 0, 60, 127
2, 208116, Note_off_c, 2, 50, 127
2, 208121, Note_on_c, 7, 55, 127
2, 208121, Note_on_c, 10, 57, 127
2, 208121, Note_on_c, 7, 67, 127
2, 208312, Note_off_c, 7, 67, 127
2, 208312, Note_off_c, 10, 57, 127
2, 208317, Note_on_c, 12, 59, 127
2, 208317, Note_on_c, 5, 65, 127
2, 208508, Note_off_c, 5, 65, 127
2, 208508, Note_off_c, 12, 59, 127
2, 208508, Note_off_c, 7, 55, 127
2, 208513, Note_on_c, 0, 48, 127
2, 208513, Note_on_c, 0, 60, 127
2, 208513, Note_on_c, 4, 64, 127
2, 208900, Note_off_c, 4, 64, 127
2, 208900, Note_off_c, 0, 60, 127
2, 208900, Note_off_c, 0, 48, 127
2, 208905, Note_on_c, 2, 50, 127
2, 208905, Note_on_c, 12, 59, 127
2, 208905, Note_on_c, 5, 65, 127
2, 209096, Note_off_c, 5, 65, 127
2, 209096, Note_off_c, 2, 50, 127
2, 209101, Note_on_c, 4, 52, 127
2, 209101, Note_on_c, 7, 67, 127
2, 209292, Note_off_c, 7, 67, 127
2, 209292, Note_off_c, 4, 52, 127
2, 209292, Note_off_c, 12, 59, 127
2, 209297, Note_on_c, 5, 53, 127
2, 209297, Note_on_c, 10, 57, 127
2, 209297, Note_on_c, 10, 69, 127
2, 209488, Note_off_c, 10, 69, 127
2, 209493, Note_on_c, 12, 71, 127
2, 209684, Note_off_c, 12, 71, 127
2, 209684, Note_off_c, 10, 57, 127
2, 209689, Note_on_c, 2, 62, 127
2, 209689, Note_on_c, 0, 72, 127
2, 209880, Note_off_c, 0, 72, 127
2, 209885, Note_on_c, 2, 74, 127
2, 210076, Note_off_c, 2, 74, 127
2, 210081, Note_on_c, 7, 55, 127
2, 210081, Note_on_c, 12, 71, 127
2, 210272, Note_off_c, 2, 62, 127
2, 210277, Note_on_c, 4, 64, 127
2, 210468, Note_off_c, 4, 64, 127
2, 210468, Note_off_c, 12, 71, 127
2, 210473, Note_on_c, 0, 60, 127
2, 210473, Note_on_c, 10, 69, 127
2, 210664, Note_off_c, 10, 69, 127
2, 210664, Note_off_c, 0, 60, 127
2, 210669, Note_on_c, 2, 62, 127
2, 210669, Note_on_c, 7, 67, 127
2, 210860, Note_off_c, 7, 67, 127
2, 210860, Note_off_c, 2, 62, 127
2, 210860, Note_off_c, 5, 53, 127
2, 210865, Note_on_c, 4, 52, 127
2, 210865, Note_on_c, 4, 64, 127
2, 210865, Note_on_c, 0, 72, 127
2, 211056, Note_off_c, 4, 64, 127
2, 211061, Note_on_c, 5, 65, 127
2, 211252, Note_off_c, 5, 65, 127
2, 211252, Note_off_c, 4, 52, 127
2, 211252, Note_off_c, 7, 55, 127
2, 211257, Note_on_c, 10, 57, 127
2, 211257, Note_on_c, 0, 60, 127
2, 211257, Note_on_c, 2, 62, 127
2, 211448, Note_off_c, 2, 62, 127
2, 211453, Note_on_c, 4, 64, 127
2, 211644, Note_off_c, 4, 64, 127
2, 211644, Note_off_c, 0, 60, 127
2, 211644, Note_off_c, 10, 57, 127
2, 211649, Note_on_c, 2, 50, 127
2, 211649, Note_on_c, 2, 62, 127
2, 211649, Note_on_c, 5, 65, 127
2, 211840, Note_off_c, 2, 62, 127
2, 211845, Note_on_c, 5, 53, 127
2, 212036, Note_off_c, 5, 53, 127
2, 212036, Note_off_c, 5, 65, 127
2, 212036, Note_off_c, 2, 50, 127
2, 212041, Note_on_c, 4, 52, 127
2, 212041, Note_on_c, 7, 55, 127
2, 212041, Note_on_c, 4, 64, 127
2, 212232, Note_off_c, 7, 55, 127
2, 212232, Note_off_c, 4, 52, 127
2, 212237, Note_on_c, 5, 53, 127
2, 212237, Note_on_c, 10, 57, 127
2, 212428, Note_off_c, 10, 57, 127
2, 212428, Note_off_c, 5, 53, 127
2, 212428, Note_off_c, 4, 64, 127
2, 212428, Note_off_c, 0, 72, 127
2, 212433, Note_on_c, 7, 55, 127
2, 212433, Note_on_c, 12, 59, 127
2, 212433, Note_on_c, 2, 62, 127
2, 212433, Note_on_c, 12, 71, 127
2, 212624, Note_off_c, 12, 59, 127
2, 212629, Note_on_c, 0, 60, 127
2, 212820, Note_off_c, 0, 60, 127
2, 212820, Note_off_c, 2, 62, 127
2, 212820, Note_off_c, 7, 55, 127
2, 212825, Note_on_c, 7, 43, 127
2, 212825, Note_on_c, 2, 62, 127
2, 212825, Note_on_c, 7, 67, 127
2, 213016, Note_off_c, 2, 62, 127
2, 213021, Note_on_c, 12, 59, 127
2, 213212, Note_off_c, 12, 59, 127
2, 213212, Note_off_c, 7, 67, 127
2, 213212, Note_off_c, 7, 43, 127
2, 213212, Note_off_c, 12, 71, 127
2, 213217, Note_on_c, 0, 48, 127
2, 213217, Note_on_c, 7, 55, 127
2, 213217, Note_on_c, 4, 64, 127
2, 213217, Note_on_c, 0, 72, 127
2, 213408, Note_off_c, 4, 64, 127
2, 213429, Note_on_c, 5, 65, 127
2, 213620, Note_off_c, 5, 65, 127
2, 213625, Note_on_c, 4, 76, 127
2, 213625, Note_on_c, 4, 64, 127
2, 213631, Note_off_c, 0, 72, 127
2, 213816, Note_off_c, 4, 64, 127
2, 213816, Note_off_c, 4, 76, 127
2, 213821, Note_on_c, 5, 77, 127
2, 213821, Note_on_c, 2, 62, 127
2, 213992, Note_off_c, 7, 55, 127
2, 213992, Note_off_c, 0, 48, 127
2, 214012, Note_off_c, 2, 62, 127
2, 214012, Note_off_c, 5, 77, 127
2, 214017, Note_on_c, 4, 76, 127
2, 214017, Note_on_c, 0, 60, 127
2, 214208, Note_off_c, 0, 60, 127
2, 214213, Note_on_c, 12, 59, 127
2, 214404, Note_off_c, 12, 59, 127
2, 214404, Note_off_c, 4, 76, 127
2, 214409, Note_on_c, 2, 74, 127
2, 214409, Note_on_c, 10, 57, 127
2, 214409, Note_on_c, 4, 52, 127
2, 214600, Note_off_c, 10, 57, 127
2, 214605, Note_on_c, 8, 56, 127
2, 214796, Note_off_c, 8, 56, 127
2, 214796, Note_off_c, 4, 52, 127
2, 214796, Note_off_c, 2, 74, 127
2, 214801, Note_on_c, 0, 72, 127
2, 214801, Note_on_c, 10, 57, 127
2, 214801, Note_on_c, 10, 45, 127
2, 214997, Note_on_c, 11, 58, 127
2, 215188, Note_off_c, 11, 58, 127
2, 215188, Note_off_c, 10, 57, 127
2, 215188, Note_off_c, 0, 72, 127
2, 215193, Note_on_c, 1, 73, 127
2, 215193, Note_on_c, 10, 69, 127
2, 215193, Note_on_c, 10, 57, 127
2, 215372, Note_off_c, 10, 45, 127
2, 215384, Note_off_c, 10, 57, 127
2, 215384, Note_off_c, 10, 69, 127
2, 215389, Note_on_c, 11, 70, 127
2, 215389, Note_on_c, 7, 55, 127
2, 215580, Note_off_c, 7, 55, 127
2, 215580, Note_off_c, 11, 70, 127
2, 215580, Note_off_c, 1, 73, 127
2, 215585, Note_on_c, 2, 74, 127
2, 215585, Note_on_c, 10, 69, 127
2, 215585, Note_on_c, 5, 53, 127
2, 215776, Note_off_c, 5, 53, 127
2, 215781, Note_on_c, 4, 52, 127
2, 215972, Note_off_c, 4, 52, 127
2, 215972, Note_off_c, 10, 69, 127
2, 215972, Note_off_c, 2, 74, 127
2, 215977, Note_on_c, 4, 76, 127
2, 215977, Note_on_c, 7, 67, 127
2, 215977, Note_on_c, 2, 50, 127
2, 216168, Note_off_c, 2, 50, 127
2, 216173, Note_on_c, 1, 49, 127
2, 216364, Note_off_c, 1, 49, 127
2, 216364, Note_off_c, 7, 67, 127
2, 216364, Note_off_c, 4, 76, 127
2, 216369, Note_on_c, 10, 69, 127
2, 216369, Note_on_c, 5, 65, 127
2, 216369, Note_on_c, 2, 50, 127
2, 216756, Note_off_c, 5, 65, 127
2, 216756, Note_off_c, 10, 69, 127
2, 216761, Note_on_c, 2, 74, 127
2, 216761, Note_on_c, 5, 65, 127
2, 216761, Note_on_c, 10, 57, 127
2, 216952, Note_off_c, 10, 57, 127
2, 216952, Note_off_c, 5, 65, 127
2, 216952, Note_off_c, 2, 74, 127
2, 216957, Note_on_c, 4, 76, 127
2, 216957, Note_on_c, 7, 67, 127
2, 216957, Note_on_c, 11, 58, 127
2, 217148, Note_off_c, 11, 58, 127
2, 217148, Note_off_c, 7, 67, 127
2, 217148, Note_off_c, 4, 76, 127
2, 217153, Note_on_c, 2, 74, 127
2, 217153, Note_on_c, 5, 65, 127
2, 217153, Note_on_c, 10, 57, 127
2, 217540, Note_off_c, 10, 57, 127
2, 217540, Note_off_c, 5, 65, 127
2, 217540, Note_off_c, 2, 74, 127
2, 217545, Note_on_c, 0, 72, 127
2, 217545, Note_on_c, 4, 64, 127
2, 217545, Note_on_c, 7, 55, 127
2, 217932, Note_off_c, 7, 55, 127
2, 217932, Note_off_c, 4, 64, 127
2, 217932, Note_off_c, 0, 72, 127
2, 217937, Note_on_c, 12, 71, 127
2, 217937, Note_on_c, 2, 62, 127
2, 217937, Note_on_c, 5, 53, 127
2, 218128, Note_off_c, 2, 62, 127
2, 218128, Note_off_c, 12, 71, 127
2, 218133, Note_on_c, 0, 72, 127
2, 218133, Note_on_c, 4, 64, 127
2, 218324, Note_off_c, 4, 64, 127
2, 218324, Note_off_c, 0, 72, 127
2, 218324, Note_off_c, 5, 53, 127
2, 218329, Note_on_c, 2, 74, 127
2, 218329, Note_on_c, 5, 65, 127
2, 218329, Note_on_c, 5, 53, 127
2, 218520, Note_off_c, 5, 53, 127
2, 218520, Note_off_c, 5, 65, 127
2, 218520, Note_off_c, 2, 74, 127
2, 218525, Note_on_c, 0, 72, 127
2, 218525, Note_on_c, 4, 64, 127
2, 218525, Note_on_c, 7, 55, 127
2, 218716, Note_off_c, 7, 55, 127
2, 218716, Note_off_c, 4, 64, 127
2, 218716, Note_off_c, 0, 72, 127
2, 218721, Note_on_c, 12, 71, 127
2, 218721, Note_on_c, 2, 62, 127
2, 218721, Note_on_c, 5, 53, 127
2, 219108, Note_off_c, 5, 53, 127
2, 219108, Note_off_c, 2, 62, 127
2, 219108, Note_off_c, 12, 71, 127
2, 219108, Note_off_c, 2, 50, 127
2, 219113, Note_on_c, 10, 69, 127
2, 219113, Note_on_c, 0, 60, 127
2, 219113, Note_on_c, 4, 52, 127
2, 219500, Note_off_c, 4, 52, 127
2, 219500, Note_off_c, 0, 60, 127
2, 219500, Note_off_c, 10, 69, 127
2, 219505, Note_on_c, 7, 67, 127
2, 219505, Note_on_c, 12, 71, 127
2, 219505, Note_on_c, 2, 50, 127
2, 219505, Note_on_c, 5, 53, 127
2, 219696, Note_off_c, 2, 50, 127
2, 219701, Note_on_c, 4, 52, 127
2, 219892, Note_off_c, 4, 52, 127
2, 219892, Note_off_c, 5, 53, 127
2, 219892, Note_off_c, 12, 71, 127
2, 219897, Note_on_c, 2, 74, 127
2, 219897, Note_on_c, 5, 53, 127
2, 220093, Note_on_c, 4, 52, 127
2, 220280, Note_off_c, 7, 67, 127
2, 220284, Note_off_c, 4, 52, 127
2, 220289, Note_on_c, 2, 50, 127
2, 220676, Note_off_c, 2, 50, 127
2, 220676, Note_off_c, 2, 74, 127
2, 220681, Note_on_c, 10, 69, 127
2, 220681, Note_on_c, 0, 48, 127
2, 221068, Note_off_c, 0, 48, 127
2, 221068, Note_off_c, 10, 69, 127
2, 221073, Note_on_c, 7, 67, 127
2, 221073, Note_on_c, 12, 59, 127
2, 221264, Note_off_c, 7, 67, 127
2, 221264, Note_off_c, 5, 53, 127
2, 221269, Note_on_c, 5, 65, 127
2, 221269, Note_on_c, 7, 55, 127
2, 221460, Note_off_c, 7, 55, 127
2, 221460, Note_off_c, 5, 65, 127
2, 221460, Note_off_c, 12, 59, 127
2, 221465, Note_on_c, 10, 69, 127
2, 221465, Note_on_c, 2, 62, 127
2, 221465, Note_on_c, 5, 53, 127
2, 221656, Note_off_c, 5, 53, 127
2, 221656, Note_off_c, 10, 69, 127
2, 221661, Note_on_c, 7, 67, 127
2, 221661, Note_on_c, 4, 52, 127
2, 221852, Note_off_c, 4, 52, 127
2, 221852, Note_off_c, 7, 67, 127
2, 221857, Note_on_c, 5, 65, 127
2, 221857, Note_on_c, 2, 50, 127
2, 222036, Note_off_c, 2, 62, 127
2, 222048, Note_off_c, 5, 65, 127
2, 222053, Note_on_c, 4, 64, 127
2, 222244, Note_off_c, 4, 64, 127
2, 222249, Note_on_c, 7, 67, 127
2, 222249, Note_on_c, 10, 57, 127
2, 222440, Note_off_c, 7, 67, 127
2, 222445, Note_on_c, 5, 65, 127
2, 222636, Note_off_c, 5, 65, 127
2, 222636, Note_off_c, 10, 57, 127
2, 222641, Note_on_c, 4, 64, 127
2, 222641, Note_on_c, 7, 55, 127
2, 222832, Note_off_c, 7, 55, 127
2, 222837, Note_on_c, 5, 53, 127
2, 223028, Note_off_c, 5, 53, 127
2, 223028, Note_off_c, 4, 64, 127
2, 223028, Note_off_c, 2, 50, 127
2, 223033, Note_on_c, 5, 65, 127
2, 223033, Note_on_c, 10, 57, 127
2, 223033, Note_on_c, 0, 48, 127
2, 223224, Note_off_c, 10, 57, 127
2, 223229, Note_on_c, 7, 55, 127
2, 223420, Note_off_c, 7, 55, 127
2, 223420, Note_off_c, 5, 65, 127
2, 223425, Note_on_c, 7, 67, 127
2, 223425, Note_on_c, 5, 53, 127
2, 223616, Note_off_c, 5, 53, 127
2, 223621, Note_on_c, 4, 52, 127
2, 223812, Note_off_c, 4, 52, 127
2, 223812, Note_off_c, 7, 67, 127
2, 223812, Note_off_c, 0, 48, 127
2, 223817, Note_on_c, 2, 62, 127
2, 223817, Note_on_c, 7, 55, 127
2, 223817, Note_on_c, 12, 47, 127
2, 224008, Note_off_c, 7, 55, 127
2, 224013, Note_on_c, 5, 53, 127
2, 224204, Note_off_c, 5, 53, 127
2, 224204, Note_off_c, 12, 47, 127
2, 224204, Note_off_c, 2, 62, 127
2, 224209, Note_on_c, 10, 69, 127
2, 224209, Note_on_c, 4, 52, 127
2, 224209, Note_on_c, 0, 48, 127
2, 224400, Note_off_c, 10, 69, 127
2, 224405, Note_on_c, 12, 71, 127
2, 224596, Note_off_c, 12, 71, 127
2, 224596, Note_off_c, 0, 48, 127
2, 224596, Note_off_c, 4, 52, 127
2, 224601, Note_on_c, 10, 69, 127
2, 224601, Note_on_c, 5, 53, 127
2, 224601, Note_on_c, 2, 50, 127
2, 224792, Note_off_c, 10, 69, 127
2, 224797, Note_on_c, 12, 71, 127
2, 224988, Note_off_c, 12, 71, 127
2, 224988, Note_off_c, 2, 50, 127
2, 224988, Note_off_c, 5, 53, 127
2, 224993, Note_on_c, 0, 72, 127
2, 224993, Note_on_c, 7, 55, 127
2, 224993, Note_on_c, 7, 43, 127
2, 225086, Note_off_c, 0, 72, 127
2, 225091, Note_on_c, 12, 71, 127
2, 225184, Note_off_c, 12, 71, 127
2, 225189, Note_on_c, 0, 72, 127
2, 225282, Note_off_c, 0, 72, 127
2, 225287, Note_on_c, 12, 71, 127
2, 225380, Note_off_c, 12, 71, 127
2, 225380, Note_off_c, 7, 55, 127
2, 225385, Note_on_c, 0, 72, 127
2, 225385, Note_on_c, 2, 50, 127
2, 225478, Note_off_c, 0, 72, 127
2, 225483, Note_on_c, 12, 71, 127
2, 225576, Note_off_c, 12, 71, 127
2, 225581, Note_on_c, 10, 69, 127
2, 225674, Note_off_c, 10, 69, 127
2, 225679, Note_on_c, 12, 71, 127
2, 225772, Note_off_c, 12, 71, 127
2, 225772, Note_off_c, 2, 50, 127
2, 225777, Note_on_c, 0, 72, 127
2, 225777, Note_on_c, 10, 57, 127
2, 225968, Note_off_c, 10, 57, 127
2, 225968, Note_off_c, 0, 72, 127
2, 225973, Note_on_c, 2, 74, 127
2, 225973, Note_on_c, 12, 59, 127
2, 226164, Note_off_c, 12, 59, 127
2, 226164, Note_off_c, 2, 74, 127
2, 226164, Note_off_c, 7, 43, 127
2, 226169, Note_on_c, 0, 72, 127
2, 226169, Note_on_c, 10, 57, 127
2, 226360, Note_off_c, 0, 72, 127
2, 226365, Note_on_c, 2, 74, 127
2, 226365, Note_on_c, 12, 59, 127
2, 226556, Note_off_c, 12, 59, 127
2, 226556, Note_off_c, 2, 74, 127
2, 226556, Note_off_c, 10, 57, 127
2, 226561, Note_on_c, 4, 76, 127
2, 226561, Note_on_c, 0, 60, 127
2, 226561, Note_on_c, 7, 55, 127
2, 226654, Note_off_c, 0, 60, 127
2, 226654, Note_off_c, 4, 76, 127
2, 226659, Note_on_c, 2, 74, 127
2, 226659, Note_on_c, 12, 59, 127
2, 226752, Note_off_c, 12, 59, 127
2, 226752, Note_off_c, 2, 74, 127
2, 226757, Note_on_c, 4, 76, 127
2, 226757, Note_on_c, 0, 60, 127
2, 226850, Note_off_c, 0, 60, 127
2, 226850, Note_off_c, 4, 76, 127
2, 226855, Note_on_c, 2, 74, 127
2, 226855, Note_on_c, 12, 59, 127
2, 226948, Note_off_c, 12, 59, 127
2, 226948, Note_off_c, 2, 74, 127
2, 226948, Note_off_c, 7, 55, 127
2, 226953, Note_on_c, 4, 76, 127
2, 226953, Note_on_c, 0, 60, 127
2, 226953, Note_on_c, 5, 53, 127
2, 227046, Note_off_c, 0, 60, 127
2, 227046, Note_off_c, 4, 76, 127
2, 227051, Note_on_c, 2, 74, 127
2, 227051, Note_on_c, 12, 59, 127
2, 227144, Note_off_c, 12, 59, 127
2, 227144, Note_off_c, 2, 74, 127
2, 227149, Note_on_c, 0, 72, 127
2, 227149, Note_on_c, 10, 57, 127
2, 227242, Note_off_c, 10, 57, 127
2, 227242, Note_off_c, 0, 72, 127
2, 227247, Note_on_c, 2, 74, 127
2, 227247, Note_on_c, 12, 59, 127
2, 227340, Note_off_c, 12, 59, 127
2, 227340, Note_off_c, 2, 74, 127
2, 227340, Note_off_c, 5, 53, 127
2, 227345, Note_on_c, 4, 76, 127
2, 227345, Note_on_c, 0, 60, 127
2, 227345, Note_on_c, 4, 52, 127
2, 227536, Note_off_c, 4, 76, 127
2, 227541, Note_on_c, 2, 74, 127
2, 227732, Note_off_c, 2, 74, 127
2, 227732, Note_off_c, 4, 52, 127
2, 227737, Note_on_c, 0, 72, 127
2, 227737, Note_on_c, 2, 50, 127
2, 227928, Note_off_c, 0, 72, 127
2, 227933, Note_on_c, 12, 71, 127
2, 228124, Note_off_c, 12, 71, 127
2, 228124, Note_off_c, 2, 50, 127
2, 228129, Note_on_c, 10, 69, 127
2, 228129, Note_on_c, 0, 48, 127
2, 228320, Note_off_c, 10, 69, 127
2, 228325, Note_on_c, 7, 67, 127
2, 228516, Note_off_c, 7, 67, 127
2, 228516, Note_off_c, 0, 48, 127
2, 228521, Note_on_c, 6, 66, 127
2, 228521, Note_on_c, 4, 52, 127
2, 228712, Note_off_c, 6, 66, 127
2, 228717, Note_on_c, 4, 64, 127
2, 228908, Note_off_c, 4, 64, 127
2, 228908, Note_off_c, 4, 52, 127
2, 228913, Note_on_c, 6, 66, 127
2, 228913, Note_on_c, 2, 50, 127
2, 229300, Note_off_c, 2, 50, 127
2, 229300, Note_off_c, 6, 66, 127
2, 229300, Note_off_c, 0, 60, 127
2, 229305, Note_on_c, 2, 62, 127
2, 229305, Note_on_c, 6, 54, 127
2, 229305, Note_on_c, 2, 50, 127
2, 229496, Note_off_c, 2, 50, 127
2, 229501, Note_on_c, 4, 52, 127
2, 229692, Note_off_c, 4, 52, 127
2, 229692, Note_off_c, 6, 54, 127
2, 229692, Note_off_c, 2, 62, 127
2, 229697, Note_on_c, 4, 64, 127
2, 229697, Note_on_c, 7, 55, 127
2, 229697, Note_on_c, 2, 50, 127
2, 230084, Note_off_c, 2, 50, 127
2, 230084, Note_off_c, 7, 55, 127
2, 230084, Note_off_c, 4, 64, 127
2, 230089, Note_on_c, 6, 66, 127
2, 230089, Note_on_c, 10, 57, 127
2, 230089, Note_on_c, 0, 48, 127
2, 230476, Note_off_c, 0, 48, 127
2, 230476, Note_off_c, 10, 57, 127
2, 230476, Note_off_c, 6, 66, 127
2, 230481, Note_on_c, 7, 67, 127
2, 230481, Note_on_c, 12, 59, 127
2, 230481, Note_on_c, 12, 47, 127
2, 230868, Note_off_c, 12, 47, 127
2, 230868, Note_off_c, 12, 59, 127
2, 230868, Note_off_c, 7, 67, 127
2, 230873, Note_on_c, 2, 74, 127
2, 230873, Note_on_c, 6, 66, 127
2, 230873, Note_on_c, 2, 50, 127
2, 230873, Note_on_c, 12, 47, 127
2, 231064, Note_off_c, 12, 47, 127
2, 231064, Note_off_c, 2, 74, 127
2, 231069, Note_on_c, 4, 76, 127
2, 231069, Note_on_c, 0, 48, 127
2, 231260, Note_off_c, 0, 48, 127
2, 231260, Note_off_c, 4, 76, 127
2, 231260, Note_off_c, 2, 50, 127
2, 231260, Note_off_c, 6, 66, 127
2, 231265, Note_on_c, 2, 74, 127
2, 231265, Note_on_c, 7, 67, 127
2, 231265, Note_on_c, 4, 52, 127
2, 231265, Note_on_c, 12, 47, 127
2, 231652, Note_off_c, 12, 47, 127
2, 231652, Note_off_c, 4, 52, 127
2, 231652, Note_off_c, 7, 67, 127
2, 231652, Note_off_c, 2, 74, 127
2, 231657, Note_on_c, 0, 72, 127
2, 231657, Note_on_c, 10, 69, 127
2, 231657, Note_on_c, 6, 54, 127
2, 231657, Note_on_c, 10, 45, 127
2, 232044, Note_off_c, 10, 45, 127
2, 232044, Note_off_c, 6, 54, 127
2, 232044, Note_off_c, 10, 69, 127
2, 232044, Note_off_c, 0, 72, 127
2, 232049, Note_on_c, 12, 71, 127
2, 232049, Note_on_c, 2, 62, 127
2, 232049, Note_on_c, 7, 55, 127
2, 232049, Note_on_c, 7, 43, 127
2, 232240, Note_off_c, 7, 43, 127
2, 232245, Note_on_c, 10, 45, 127
2, 232436, Note_off_c, 10, 45, 127
2, 232436, Note_off_c, 12, 71, 127
2, 232441, Note_on_c, 12, 71, 127
2, 232441, Note_on_c, 12, 47, 127
2, 232632, Note_off_c, 12, 47, 127
2, 232632, Note_off_c, 12, 71, 127
2, 232637, Note_on_c, 0, 72, 127
2, 232637, Note_on_c, 10, 45, 127
2, 232828, Note_off_c, 10, 45, 127
2, 232828, Note_off_c, 0, 72, 127
2, 232833, Note_on_c, 12, 71, 127
2, 232833, Note_on_c, 7, 43, 127
2, 233220, Note_off_c, 7, 43, 127
2, 233220, Note_off_c, 12, 71, 127
2, 233220, Note_off_c, 7, 55, 127
2, 233220, Note_off_c, 2, 62, 127
2, 233225, Note_on_c, 10, 69, 127
2, 233225, Note_on_c, 3, 63, 127
2, 233225, Note_on_c, 10, 57, 127
2, 233225, Note_on_c, 6, 42, 127
2, 233612, Note_off_c, 6, 42, 127
2, 233612, Note_off_c, 10, 57, 127
2, 233612, Note_off_c, 3, 63, 127
2, 233612, Note_off_c, 10, 69, 127
2, 233617, Note_on_c, 7, 67, 127
2, 233617, Note_on_c, 4, 64, 127
2, 233617, Note_on_c, 12, 59, 127
2, 233617, Note_on_c, 4, 52, 127
2, 233808, Note_off_c, 7, 67, 127
2, 233813, Note_on_c, 10, 69, 127
2, 234004, Note_off_c, 10, 69, 127
2, 234004, Note_off_c, 4, 52, 127
2, 234004, Note_off_c, 4, 64, 127
2, 234009, Note_on_c, 12, 71, 127
2, 234009, Note_on_c, 4, 64, 127
2, 234009, Note_on_c, 7, 55, 127
2, 234200, Note_off_c, 4, 64, 127
2, 234200, Note_off_c, 12, 71, 127
2, 234205, Note_on_c, 10, 69, 127
2, 234205, Note_on_c, 3, 63, 127
2, 234396, Note_off_c, 3, 63, 127
2, 234396, Note_off_c, 10, 69, 127
2, 234401, Note_on_c, 7, 67, 127
2, 234401, Note_on_c, 4, 64, 127
2, 234580, Note_off_c, 7, 55, 127
2, 234788, Note_off_c, 7, 67, 127
2, 234793, Note_on_c, 6, 66, 127
2, 234793, Note_on_c, 2, 50, 127
2, 235180, Note_off_c, 2, 50, 127
2, 235180, Note_off_c, 6, 66, 127
2, 235185, Note_on_c, 4, 76, 127
2, 235185, Note_on_c, 0, 48, 127
2, 235376, Note_off_c, 0, 48, 127
2, 235381, Note_on_c, 12, 47, 127
2, 235572, Note_off_c, 12, 47, 127
2, 235572, Note_off_c, 4, 76, 127
2, 235572, Note_off_c, 4, 64, 127
2, 235572, Note_off_c, 12, 59, 127
2, 235577, Note_on_c, 7, 79, 127
2, 235577, Note_on_c, 7, 67, 127
2, 235577, Note_on_c, 4, 52, 127
2, 235577, Note_on_c, 2, 50, 127
2, 235768, Note_off_c, 2, 50, 127
2, 235773, Note_on_c, 0, 48, 127
2, 235964, Note_off_c, 0, 48, 127
2, 235964, Note_off_c, 4, 52, 127
2, 235964, Note_off_c, 7, 67, 127
2, 235969, Note_on_c, 10, 69, 127
2, 235969, Note_on_c, 6, 54, 127
2, 235969, Note_on_c, 12, 47, 127
2, 236148, Note_off_c, 7, 79, 127
2, 236160, Note_off_c, 12, 47, 127
2, 236165, Note_on_c, 10, 45, 127
2, 236356, Note_off_c, 10, 45, 127
2, 236356, Note_off_c, 6, 54, 127
2, 236356, Note_off_c, 10, 69, 127
2, 236361, Note_on_c, 2, 74, 127
2, 236361, Note_on_c, 12, 71, 127
2, 236361, Note_on_c, 7, 55, 127
2, 236361, Note_on_c, 0, 48, 127
2, 236552, Note_off_c, 0, 48, 127
2, 236557, Note_on_c, 12, 47, 127
2, 236748, Note_off_c, 12, 47, 127
2, 236748, Note_off_c, 7, 55, 127
2, 236748, Note_off_c, 12, 71, 127
2, 236748, Note_off_c, 2, 74, 127
2, 236753, Note_on_c, 0, 72, 127
2, 236753, Note_on_c, 10, 57, 127
2, 236753, Note_on_c, 10, 45, 127
2, 236944, Note_off_c, 0, 72, 127
2, 236949, Note_on_c, 12, 71, 127
2, 237140, Note_off_c, 12, 71, 127
2, 237140, Note_off_c, 10, 45, 127
2, 237140, Note_off_c, 10, 57, 127
2, 237145, Note_on_c, 2, 74, 127
2, 237145, Note_on_c, 7, 67, 127
2, 237145, Note_on_c, 2, 50, 127
2, 237145, Note_on_c, 12, 47, 127
2, 237336, Note_off_c, 2, 74, 127
2, 237341, Note_on_c, 0, 72, 127
2, 237532, Note_off_c, 0, 72, 127
2, 237532, Note_off_c, 12, 47, 127
2, 237532, Note_off_c, 2, 50, 127
2, 237537, Note_on_c, 12, 71, 127
2, 237537, Note_on_c, 4, 52, 127
2, 237537, Note_on_c, 0, 48, 127
2, 237728, Note_off_c, 12, 71, 127
2, 237733, Note_on_c, 10, 69, 127
2, 237924, Note_off_c, 10, 69, 127
2, 237924, Note_off_c, 0, 48, 127
2, 237924, Note_off_c, 4, 52, 127
2, 237924, Note_off_c, 7, 67, 127
2, 237929, Note_on_c, 0, 72, 127
2, 237929, Note_on_c, 6, 66, 127
2, 237929, Note_on_c, 2, 50, 127
2, 237929, Note_on_c, 7, 43, 127
2, 238120, Note_off_c, 2, 50, 127
2, 238120, Note_off_c, 6, 66, 127
2, 238120, Note_off_c, 0, 72, 127
2, 238125, Note_on_c, 12, 71, 127
2, 238125, Note_on_c, 7, 67, 127
2, 238125, Note_on_c, 4, 52, 127
2, 238316, Note_off_c, 4, 52, 127
2, 238316, Note_off_c, 7, 67, 127
2, 238316, Note_off_c, 12, 71, 127
2, 238316, Note_off_c, 7, 43, 127
2, 238321, Note_on_c, 10, 69, 127
2, 238321, Note_on_c, 6, 54, 127
2, 238321, Note_on_c, 2, 50, 127
2, 238512, Note_off_c, 6, 54, 127
2, 238517, Note_on_c, 7, 55, 127
2, 238708, Note_off_c, 7, 55, 127
2, 238708, Note_off_c, 10, 69, 127
2, 238713, Note_on_c, 12, 71, 127
2, 238713, Note_on_c, 4, 52, 127
2, 238904, Note_off_c, 4, 52, 127
2, 238909, Note_on_c, 6, 54, 127
2, 239100, Note_off_c, 6, 54, 127
2, 239100, Note_off_c, 12, 71, 127
2, 239100, Note_off_c, 2, 50, 127
2, 239105, Note_on_c, 0, 72, 127
2, 239105, Note_on_c, 7, 55, 127
2, 239105, Note_on_c, 4, 52, 127
2, 239296, Note_off_c, 7, 55, 127
2, 239301, Note_on_c, 10, 57, 127
2, 239492, Note_off_c, 10, 57, 127
2, 239492, Note_off_c, 0, 72, 127
2, 239497, Note_on_c, 7, 67, 127
2, 239497, Note_on_c, 6, 54, 127
2, 239688, Note_off_c, 6, 54, 127
2, 239693, Note_on_c, 7, 55, 127
2, 239884, Note_off_c, 7, 55, 127
2, 239884, Note_off_c, 7, 67, 127
2, 239884, Note_off_c, 4, 52, 127
2, 239889, Note_on_c, 2, 74, 127
2, 239889, Note_on_c, 10, 57, 127
2, 239889, Note_on_c, 6, 54, 127
2, 240080, Note_off_c, 2, 74, 127
2, 240085, Note_on_c, 4, 76, 127
2, 240276, Note_off_c, 4, 76, 127
2, 240276, Note_off_c, 10, 57, 127
2, 240281, Note_on_c, 2, 74, 127
2, 240281, Note_on_c, 12, 59, 127
2, 240472, Note_off_c, 12, 59, 127
2, 240477, Note_on_c, 0, 60, 127
2, 240575, Note_off_c, 2, 74, 127
2, 240575, Note_on_c, 4, 76, 127
2, 240668, Note_off_c, 0, 60, 127
2, 240668, Note_off_c, 6, 54, 127
2, 240673, Note_off_c, 4, 76, 127
2, 240673, Note_on_c, 5, 77, 127
2, 240673, Note_on_c, 12, 59, 127
2, 240673, Note_on_c, 7, 55, 127
2, 240766, Note_off_c, 5, 77, 127
2, 240771, Note_on_c, 4, 76, 127
2, 240864, Note_off_c, 4, 76, 127
2, 240864, Note_off_c, 12, 59, 127
2, 240869, Note_on_c, 5, 77, 127
2, 240869, Note_on_c, 0, 60, 127
2, 240962, Note_off_c, 5, 77, 127
2, 240967, Note_on_c, 4, 76, 127
2, 241060, Note_off_c, 4, 76, 127
2, 241060, Note_off_c, 0, 60, 127
2, 241065, Note_on_c, 5, 77, 127
2, 241065, Note_on_c, 10, 57, 127
2, 241158, Note_off_c, 5, 77, 127
2, 241163, Note_on_c, 4, 76, 127
2, 241256, Note_off_c, 4, 76, 127
2, 241256, Note_off_c, 10, 57, 127
2, 241261, Note_on_c, 2, 74, 127
2, 241261, Note_on_c, 12, 59, 127
2, 241354, Note_off_c, 2, 74, 127
2, 241359, Note_on_c, 4, 76, 127
2, 241452, Note_off_c, 4, 76, 127
2, 241452, Note_off_c, 12, 59, 127
2, 241452, Note_off_c, 7, 55, 127
2, 241457, Note_on_c, 5, 77, 127
2, 241457, Note_on_c, 0, 60, 127
2, 241457, Note_on_c, 10, 57, 127
2, 241653, Note_on_c, 4, 76, 127
2, 241844, Note_off_c, 4, 76, 127
2, 241844, Note_off_c, 0, 60, 127
2, 241849, Note_on_c, 2, 74, 127
2, 241849, Note_on_c, 2, 62, 127
2, 242040, Note_off_c, 2, 62, 127
2, 242040, Note_off_c, 2, 74, 127
2, 242045, Note_on_c, 0, 72, 127
2, 242045, Note_on_c, 4, 64, 127
2, 242236, Note_off_c, 4, 64, 127
2, 242236, Note_off_c, 0, 72, 127
2, 242236, Note_off_c, 10, 57, 127
2, 242241, Note_on_c, 12, 71, 127
2, 242241, Note_on_c, 2, 62, 127
2, 242241, Note_on_c, 12, 59, 127
2, 242432, Note_off_c, 12, 71, 127
2, 242437, Note_on_c, 10, 69, 127
2, 242628, Note_off_c, 10, 69, 127
2, 242628, Note_off_c, 12, 59, 127
2, 242628, Note_off_c, 2, 62, 127
2, 242633, Note_on_c, 8, 68, 127
2, 242633, Note_on_c, 0, 60, 127
2, 242633, Note_on_c, 10, 57, 127
2, 242824, Note_off_c, 8, 68, 127
2, 242829, Note_on_c, 10, 69, 127
2, 243020, Note_off_c, 10, 69, 127
2, 243020, Note_off_c, 10, 57, 127
2, 243020, Note_off_c, 0, 60, 127
2, 243025, Note_on_c, 12, 71, 127
2, 243025, Note_on_c, 12, 59, 127
2, 243025, Note_on_c, 8, 56, 127
2, 243412, Note_off_c, 8, 56, 127
2, 243412, Note_off_c, 12, 59, 127
2, 243412, Note_off_c, 5, 77, 127
2, 243417, Note_on_c, 4, 76, 127
2, 243417, Note_on_c, 8, 56, 127
2, 243417, Note_on_c, 4, 52, 127
2, 243608, Note_off_c, 4, 76, 127
2, 243613, Note_on_c, 5, 77, 127
2, 243804, Note_off_c, 5, 77, 127
2, 243804, Note_off_c, 4, 52, 127
2, 243804, Note_off_c, 8, 56, 127
2, 243809, Note_on_c, 4, 76, 127
2, 243809, Note_on_c, 10, 57, 127
2, 243809, Note_on_c, 6, 54, 127
2, 244196, Note_off_c, 6, 54, 127
2, 244196, Note_off_c, 10, 57, 127
2, 244196, Note_off_c, 4, 76, 127
2, 244201, Note_on_c, 2, 74, 127
2, 244201, Note_on_c, 12, 59, 127
2, 244201, Note_on_c, 8, 56, 127
2, 244588, Note_off_c, 8, 56, 127
2, 244588, Note_off_c, 12, 59, 127
2, 244588, Note_off_c, 2, 74, 127
2, 244593, Note_on_c, 0, 72, 127
2, 244593, Note_on_c, 0, 60, 127
2, 244593, Note_on_c, 10, 57, 127
2, 244980, Note_off_c, 10, 57, 127
2, 244980, Note_off_c, 0, 60, 127
2, 244980, Note_off_c, 0, 72, 127
2, 244980, Note_off_c, 12, 71, 127
2, 244985, Note_on_c, 0, 72, 127
2, 244985, Note_on_c, 4, 64, 127
2, 244985, Note_on_c, 4, 52, 127
2, 244985, Note_on_c, 0, 48, 127
2, 245176, Note_off_c, 4, 64, 127
2, 245176, Note_off_c, 0, 72, 127
2, 245181, Note_on_c, 2, 74, 127
2, 245181, Note_on_c, 5, 65, 127
2, 245372, Note_off_c, 5, 65, 127
2, 245372, Note_off_c, 2, 74, 127
2, 245372, Note_off_c, 0, 48, 127
2, 245372, Note_off_c, 4, 52, 127
2, 245377, Note_on_c, 0, 72, 127
2, 245377, Note_on_c, 4, 64, 127
2, 245377, Note_on_c, 6, 54, 127
2, 245377, Note_on_c, 2, 50, 127
2, 245764, Note_off_c, 2, 50, 127
2, 245764, Note_off_c, 6, 54, 127
2, 245764, Note_off_c, 4, 64, 127
2, 245764, Note_off_c, 0, 72, 127
2, 245769, Note_on_c, 12, 71, 127
2, 245769, Note_on_c, 2, 62, 127
2, 245769, Note_on_c, 8, 56, 127
2, 245769, Note_on_c, 4, 52, 127
2, 246156, Note_off_c, 4, 52, 127
2, 246156, Note_off_c, 8, 56, 127
2, 246156, Note_off_c, 2, 62, 127
2, 246156, Note_off_c, 12, 71, 127
2, 246161, Note_on_c, 10, 69, 127
2, 246161, Note_on_c, 0, 60, 127
2, 246161, Note_on_c, 10, 57, 127
2, 246161, Note_on_c, 5, 53, 127
2, 246352, Note_off_c, 10, 69, 127
2, 246357, Note_on_c, 12, 71, 127
2, 246548, Note_off_c, 12, 71, 127
2, 246548, Note_off_c, 0, 60, 127
2, 246553, Note_on_c, 0, 72, 127
2, 246553, Note_on_c, 0, 60, 127
2, 246744, Note_off_c, 0, 60, 127
2, 246744, Note_off_c, 0, 72, 127
2, 246749, Note_on_c, 12, 71, 127
2, 246749, Note_on_c, 2, 62, 127
2, 246940, Note_off_c, 2, 62, 127
2, 246940, Note_off_c, 12, 71, 127
2, 246945, Note_on_c, 10, 69, 127
2, 246945, Note_on_c, 0, 60, 127
2, 247141, Note_off_c, 5, 53, 127
2, 247141, Note_off_c, 10, 57, 127
2, 247332, Note_off_c, 0, 60, 127
2, 247332, Note_off_c, 10, 69, 127
2, 247337, Note_on_c, 7, 67, 127
2, 247337, Note_on_c, 11, 58, 127
2, 247337, Note_on_c, 4, 52, 127
2, 247337, Note_on_c, 1, 49, 127
2, 247724, Note_off_c, 1, 49, 127
2, 247724, Note_off_c, 4, 52, 127
2, 247724, Note_off_c, 11, 58, 127
2, 247724, Note_off_c, 7, 67, 127
2, 247729, Note_on_c, 5, 77, 127
2, 247729, Note_on_c, 10, 57, 127
2, 247729, Note_on_c, 5, 53, 127
2, 247729, Note_on_c, 2, 50, 127
2, 247920, Note_off_c, 10, 57, 127
2, 247925, Note_on_c, 12, 59, 127
2, 248116, Note_off_c, 12, 59, 127
2, 248116, Note_off_c, 2, 50, 127
2, 248116, Note_off_c, 5, 53, 127
2, 248116, Note_off_c, 5, 77, 127
2, 248121, Note_on_c, 10, 81, 127
2, 248121, Note_on_c, 1, 61, 127
2, 248121, Note_on_c, 7, 55, 127
2, 248121, Note_on_c, 4, 52, 127
2, 248312, Note_off_c, 1, 61, 127
2, 248317, Note_on_c, 12, 59, 127
2, 248508, Note_off_c, 12, 59, 127
2, 248508, Note_off_c, 4, 52, 127
2, 248508, Note_off_c, 7, 55, 127
2, 248513, Note_on_c, 10, 57, 127
2, 248513, Note_on_c, 5, 53, 127
2, 248692, Note_off_c, 10, 81, 127
2, 248900, Note_off_c, 5, 53, 127
2, 248900, Note_off_c, 10, 57, 127
2, 248905, Note_on_c, 4, 76, 127
2, 248905, Note_on_c, 11, 58, 127
2, 248905, Note_on_c, 7, 55, 127
2, 248905, Note_on_c, 1, 49, 127
2, 249292, Note_off_c, 1, 49, 127
2, 249292, Note_off_c, 7, 55, 127
2, 249292, Note_off_c, 11, 58, 127
2, 249292, Note_off_c, 4, 76, 127
2, 249297, Note_on_c, 2, 74, 127
2, 249297, Note_on_c, 6, 66, 127
2, 249297, Note_on_c, 10, 57, 127
2, 249297, Note_on_c, 2, 50, 127
2, 249488, Note_off_c, 2, 74, 127
2, 249493, Note_on_c, 0, 72, 127
2, 249684, Note_off_c, 0, 72, 127
2, 249684, Note_off_c, 10, 57, 127
2, 249684, Note_off_c, 6, 66, 127
2, 249689, Note_on_c, 4, 76, 127
2, 249689, Note_on_c, 12, 71, 127
2, 249689, Note_on_c, 8, 56, 127
2, 249880, Note_off_c, 8, 56, 127
2, 249880, Note_off_c, 4, 76, 127
2, 249885, Note_on_c, 2, 74, 127
2, 249885, Note_on_c, 6, 54, 127
2, 250076, Note_off_c, 6, 54, 127
2, 250076, Note_off_c, 2, 74, 127
2, 250076, Note_off_c, 12, 71, 127
2, 250076, Note_off_c, 2, 50, 127
2, 250081, Note_on_c, 0, 72, 127
2, 250081, Note_on_c, 4, 52, 127
2, 250081, Note_on_c, 10, 45, 127
2, 250272, Note_off_c, 0, 72, 127
2, 250277, Note_on_c, 12, 71, 127
2, 250468, Note_off_c, 12, 71, 127
2, 250468, Note_off_c, 4, 52, 127
2, 250473, Note_on_c, 2, 74, 127
2, 250473, Note_on_c, 4, 64, 127
2, 250473, Note_on_c, 10, 57, 127
2, 250664, Note_off_c, 2, 74, 127
2, 250669, Note_on_c, 0, 72, 127
2, 250860, Note_off_c, 0, 72, 127
2, 250860, Note_off_c, 10, 57, 127
2, 250860, Note_off_c, 4, 64, 127
2, 250865, Note_on_c, 12, 71, 127
2, 250865, Note_on_c, 2, 62, 127
2, 250865, Note_on_c, 5, 53, 127
2, 251056, Note_off_c, 2, 62, 127
2, 251061, Note_on_c, 0, 60, 127
2, 251252, Note_off_c, 0, 60, 127
2, 251252, Note_off_c, 5, 53, 127
2, 251252, Note_off_c, 10, 45, 127
2, 251257, Note_on_c, 4, 64, 127
2, 251257, Note_on_c, 4, 52, 127
2, 251257, Note_on_c, 8, 44, 127
2, 251448, Note_off_c, 4, 64, 127
2, 251453, Note_on_c, 2, 62, 127
2, 251644, Note_off_c, 2, 62, 127
2, 251644, Note_off_c, 8, 44, 127
2, 251649, Note_on_c, 0, 60, 127
2, 251649, Note_on_c, 10, 45, 127
2, 251840, Note_off_c, 0, 60, 127
2, 251845, Note_on_c, 12, 59, 127
2, 252036, Note_off_c, 12, 59, 127
2, 252036, Note_off_c, 4, 52, 127
2, 252036, Note_off_c, 12, 71, 127
2, 252041, Note_on_c, 10, 69, 127
2, 252041, Note_on_c, 2, 62, 127
2, 252041, Note_on_c, 5, 53, 127
2, 252232, Note_off_c, 5, 53, 127
2, 252232, Note_off_c, 2, 62, 127
2, 252237, Note_on_c, 0, 60, 127
2, 252237, Note_on_c, 3, 51, 127
2, 252428, Note_off_c, 3, 51, 127
2, 252428, Note_off_c, 0, 60, 127
2, 252428, Note_off_c, 10, 45, 127
2, 252433, Note_on_c, 12, 59, 127
2, 252433, Note_on_c, 4, 52, 127
2, 252433, Note_on_c, 4, 40, 127
2, 252624, Note_off_c, 10, 69, 127
2, 252629, Note_on_c, 12, 71, 127
2, 252820, Note_off_c, 12, 71, 127
2, 252820, Note_off_c, 12, 59, 127
2, 252825, Note_on_c, 8, 68, 127
2, 252825, Note_on_c, 0, 60, 127
2, 253016, Note_off_c, 8, 68, 127
2, 253021, Note_on_c, 10, 69, 127
2, 253212, Note_off_c, 10, 69, 127
2, 253212, Note_off_c, 0, 60, 127
2, 253217, Note_on_c, 12, 71, 127
2, 253217, Note_on_c, 2, 62, 127
2, 253408, Note_off_c, 2, 62, 127
2, 253413, Note_on_c, 0, 60, 127
2, 253604, Note_off_c, 0, 60, 127
2, 253609, Note_on_c, 4, 64, 127
2, 253800, Note_off_c, 4, 64, 127
2, 253805, Note_on_c, 2, 62, 127
2, 253996, Note_off_c, 2, 62, 127
2, 253996, Note_off_c, 4, 40, 127
2, 253996, Note_off_c, 4, 52, 127
2, 254001, Note_on_c, 0, 60, 127
2, 254001, Note_on_c, 4, 52, 127
2, 254001, Note_on_c, 4, 40, 127
2, 254192, Note_off_c, 12, 71, 127
2, 254197, Note_on_c, 0, 72, 127
2, 254388, Note_off_c, 0, 72, 127
2, 254388, Note_off_c, 0, 60, 127
2, 254393, Note_on_c, 10, 69, 127
2, 254393, Note_on_c, 2, 62, 127
2, 254584, Note_off_c, 10, 69, 127
2, 254589, Note_on_c, 12, 71, 127
2, 254780, Note_off_c, 12, 71, 127
2, 254780, Note_off_c, 2, 62, 127
2, 254785, Note_on_c, 0, 72, 127
2, 254785, Note_on_c, 4, 64, 127
2, 254976, Note_off_c, 4, 64, 127
2, 254981, Note_on_c, 2, 62, 127
2, 255172, Note_off_c, 2, 62, 127
2, 255177, Note_on_c, 5, 65, 127
2, 255368, Note_off_c, 5, 65, 127
2, 255373, Note_on_c, 4, 64, 127
2, 255564, Note_off_c, 4, 64, 127
2, 255564, Note_off_c, 4, 40, 127
2, 255564, Note_off_c, 4, 52, 127
2, 255569, Note_on_c, 2, 62, 127
2, 255569, Note_on_c, 4, 52, 127
2, 255569, Note_on_c, 4, 40, 127
2, 255760, Note_off_c, 0, 72, 127
2, 255765, Note_on_c, 2, 74, 127
2, 255956, Note_off_c, 2, 74, 127
2, 255956, Note_off_c, 2, 62, 127
2, 255961, Note_on_c, 12, 71, 127
2, 255961, Note_on_c, 4, 64, 127
2, 256152, Note_off_c, 12, 71, 127
2, 256157, Note_on_c, 0, 72, 127
2, 256348, Note_off_c, 0, 72, 127
2, 256348, Note_off_c, 4, 64, 127
2, 256353, Note_on_c, 2, 74, 127
2, 256353, Note_on_c, 5, 65, 127
2, 256544, Note_off_c, 2, 74, 127
2, 256549, Note_on_c, 0, 72, 127
2, 256740, Note_off_c, 0, 72, 127
2, 256745, Note_on_c, 12, 71, 127
2, 256936, Note_off_c, 12, 71, 127
2, 256941, Note_on_c, 10, 69, 127
2, 257132, Note_off_c, 10, 69, 127
2, 257134, Note_off_c, 4, 52, 127
2, 257136, Note_on_c, 4, 52, 127
2, 257136, Note_on_c, 8, 68, 127
2, 257327, Note_off_c, 8, 68, 127
2, 257332, Note_on_c, 12, 71, 127
2, 257404, Note_off_c, 4, 40, 127
2, 257523, Note_off_c, 12, 71, 127
2, 257523, Note_off_c, 4, 52, 127
2, 257523, Note_off_c, 5, 65, 127
2, 257528, Note_on_c, 0, 72, 127
2, 257528, Note_on_c, 4, 64, 127
2, 257528, Note_on_c, 4, 52, 127
2, 257719, Note_off_c, 4, 52, 127
2, 257719, Note_off_c, 0, 72, 127
2, 257724, Note_on_c, 2, 74, 127
2, 257724, Note_on_c, 5, 53, 127
2, 257915, Note_off_c, 5, 53, 127
2, 257915, Note_off_c, 2, 74, 127
2, 257915, Note_off_c, 4, 64, 127
2, 257920, Note_on_c, 4, 76, 127
2, 257920, Note_on_c, 4, 52, 127
2, 258111, Note_off_c, 4, 76, 127
2, 258116, Note_on_c, 5, 77, 127
2, 258307, Note_off_c, 5, 77, 127
2, 258307, Note_off_c, 4, 52, 127
2, 258312, Note_on_c, 7, 79, 127
2, 258312, Note_on_c, 2, 50, 127
2, 258508, Note_on_c, 11, 70, 127
2, 258699, Note_off_c, 11, 70, 127
2, 258699, Note_off_c, 2, 50, 127
2, 258704, Note_on_c, 10, 69, 127
2, 258704, Note_on_c, 1, 49, 127
2, 258895, Note_off_c, 7, 79, 127
2, 258900, Note_on_c, 10, 81, 127
2, 259091, Note_off_c, 10, 81, 127
2, 259091, Note_off_c, 1, 49, 127
2, 259096, Note_on_c, 7, 79, 127
2, 259096, Note_on_c, 4, 52, 127
2, 259096, Note_on_c, 1, 49, 127
2, 259287, Note_off_c, 1, 49, 127
2, 259287, Note_off_c, 4, 52, 127
2, 259287, Note_off_c, 7, 79, 127
2, 259292, Note_on_c, 5, 77, 127
2, 259292, Note_on_c, 5, 53, 127
2, 259292, Note_on_c, 2, 50, 127
2, 259483, Note_off_c, 2, 50, 127
2, 259483, Note_off_c, 5, 53, 127
2, 259483, Note_off_c, 5, 77, 127
2, 259488, Note_on_c, 7, 79, 127
2, 259488, Note_on_c, 4, 52, 127
2, 259488, Note_on_c, 1, 49, 127
2, 259679, Note_off_c, 10, 69, 127
2, 259684, Note_on_c, 1, 73, 127
2, 259875, Note_off_c, 1, 73, 127
2, 259875, Note_off_c, 1, 49, 127
2, 259875, Note_off_c, 4, 52, 127
2, 259880, Note_on_c, 4, 76, 127
2, 259880, Note_on_c, 2, 50, 127
2, 259880, Note_on_c, 12, 47, 127
2, 260071, Note_off_c, 4, 76, 127
2, 260076, Note_on_c, 2, 74, 127
2, 260267, Note_off_c, 2, 74, 127
2, 260267, Note_off_c, 12, 47, 127
2, 260267, Note_off_c, 2, 50, 127
2, 260272, Note_on_c, 4, 76, 127
2, 260272, Note_on_c, 1, 49, 127
2, 260272, Note_on_c, 10, 45, 127
2, 260463, Note_off_c, 10, 45, 127
2, 260463, Note_off_c, 7, 79, 127
2, 260468, Note_on_c, 5, 77, 127
2, 260468, Note_on_c, 12, 47, 127
2, 260659, Note_off_c, 12, 47, 127
2, 260659, Note_off_c, 5, 77, 127
2, 260659, Note_off_c, 1, 49, 127
2, 260659, Note_off_c, 4, 76, 127
2, 260664, Note_on_c, 4, 76, 127
2, 260664, Note_on_c, 4, 52, 127
2, 260664, Note_on_c, 1, 49, 127
2, 260855, Note_off_c, 1, 49, 127
2, 260855, Note_off_c, 4, 52, 127
2, 260860, Note_on_c, 5, 77, 127
2, 260860, Note_on_c, 2, 50, 127
2, 260860, Note_on_c, 12, 47, 127
2, 261051, Note_off_c, 12, 47, 127
2, 261051, Note_off_c, 2, 50, 127
2, 261051, Note_off_c, 5, 77, 127
2, 261056, Note_on_c, 7, 79, 127
2, 261056, Note_on_c, 1, 49, 127
2, 261056, Note_on_c, 10, 45, 127
2, 261235, Note_off_c, 4, 76, 127
2, 261252, Note_on_c, 10, 69, 127
2, 261443, Note_off_c, 10, 69, 127
2, 261443, Note_off_c, 10, 45, 127
2, 261443, Note_off_c, 1, 49, 127
2, 261448, Note_on_c, 1, 73, 127
2, 261448, Note_on_c, 11, 46, 127
2, 261448, Note_on_c, 7, 43, 127
2, 261639, Note_off_c, 1, 73, 127
2, 261644, Note_on_c, 2, 74, 127
2, 261835, Note_off_c, 2, 74, 127
2, 261835, Note_off_c, 7, 43, 127
2, 261835, Note_off_c, 11, 46, 127
2, 261840, Note_on_c, 4, 76, 127
2, 261840, Note_on_c, 10, 45, 127
2, 261840, Note_on_c, 5, 41, 127
2, 262031, Note_off_c, 4, 76, 127
2, 262031, Note_off_c, 7, 79, 127
2, 262036, Note_on_c, 11, 82, 127
2, 262036, Note_on_c, 1, 73, 127
2, 262227, Note_off_c, 1, 73, 127
2, 262227, Note_off_c, 11, 82, 127
2, 262232, Note_on_c, 10, 81, 127
2, 262232, Note_on_c, 2, 74, 127
2, 262423, Note_off_c, 10, 81, 127
2, 262428, Note_on_c, 7, 79, 127
2, 262619, Note_off_c, 7, 79, 127
2, 262624, Note_on_c, 5, 77, 127
2, 262815, Note_off_c, 5, 77, 127
2, 262820, Note_off_c, 5, 41, 127
2, 262820, Note_off_c, 10, 45, 127
2, 262820, Note_on_c, 4, 76, 127
2, 263011, Note_off_c, 4, 76, 127
2, 263011, Note_off_c, 2, 74, 127
2, 263016, Note_on_c, 2, 74, 127
2, 263016, Note_on_c, 10, 69, 127
2, 263016, Note_on_c, 5, 65, 127
2, 263016, Note_on_c, 5, 53, 127
2, 263207, Note_off_c, 5, 65, 127
2, 263207, Note_off_c, 10, 69, 127
2, 263207, Note_off_c, 2, 74, 127
2, 263212, Note_on_c, 1, 73, 127
2, 263212, Note_on_c, 7, 67, 127
2, 263212, Note_on_c, 4, 64, 127
2, 263403, Note_off_c, 4, 64, 127
2, 263403, Note_off_c, 7, 67, 127
2, 263403, Note_off_c, 1, 73, 127
2, 263403, Note_off_c, 5, 53, 127
2, 263408, Note_on_c, 2, 74, 127
2, 263408, Note_on_c, 5, 65, 127
2, 263408, Note_on_c, 2, 62, 127
2, 263408, Note_on_c, 11, 58, 127
2, 263599, Note_off_c, 2, 74, 127
2, 263604, Note_on_c, 4, 76, 127
2, 263795, Note_off_c, 4, 76, 127
2, 263795, Note_off_c, 11, 58, 127
2, 263795, Note_off_c, 5, 65, 127
2, 263800, Note_on_c, 2, 74, 127
2, 263800, Note_on_c, 11, 70, 127
2, 263800, Note_on_c, 7, 55, 127
2, 263991, Note_off_c, 2, 74, 127
2, 263996, Note_on_c, 4, 76, 127
2, 264187, Note_off_c, 4, 76, 127
2, 264187, Note_off_c, 7, 55, 127
2, 264187, Note_off_c, 11, 70, 127
2, 264192, Note_on_c, 5, 77, 127
2, 264192, Note_on_c, 10, 69, 127
2, 264192, Note_on_c, 10, 57, 127
2, 264257, Note_on_c, 4, 76, 127
2, 264259, Note_off_c, 5, 77, 127
2, 264322, Note_off_c, 4, 76, 127
2, 264322, Note_on_c, 5, 77, 127
2, 264386, Note_on_c, 4, 76, 127
2, 264387, Note_off_c, 5, 77, 127
2, 264578, Note_off_c, 10, 69, 127
2, 264578, Note_off_c, 2, 62, 127
2, 264582, Note_on_c, 7, 67, 127
2, 264582, Note_on_c, 1, 61, 127
2, 264773, Note_off_c, 4, 76, 127
2, 264778, Note_on_c, 2, 74, 127
2, 264969, Note_off_c, 2, 74, 127
2, 264969, Note_off_c, 1, 61, 127
2, 264970, Note_off_c, 10, 57, 127
2, 264974, Note_on_c, 2, 74, 127
2, 264974, Note_on_c, 2, 62, 127
2, 264974, Note_on_c, 2, 50, 127
2, 265361, Note_off_c, 2, 50, 127
2, 265361, Note_off_c, 2, 62, 127
2, 265361, Note_off_c, 7, 67, 127
2, 265366, Note_on_c, 5, 65, 127
2, 265366, Note_on_c, 10, 57, 127
2, 265366, Note_on_c, 2, 50, 127
2, 265557, Note_off_c, 2, 50, 127
2, 265557, Note_off_c, 5, 65, 127
2, 265562, Note_on_c, 4, 64, 127
2, 265562, Note_on_c, 1, 49, 127
2, 265753, Note_off_c, 1, 49, 127
2, 265753, Note_off_c, 4, 64, 127
2, 265758, Note_on_c, 5, 65, 127
2, 265758, Note_on_c, 2, 50, 127
2, 265949, Note_off_c, 5, 65, 127
2, 265954, Note_on_c, 7, 67, 127
2, 266145, Note_off_c, 7, 67, 127
2, 266145, Note_off_c, 2, 50, 127
2, 266150, Note_on_c, 10, 69, 127
2, 266150, Note_on_c, 4, 52, 127
2, 266341, Note_off_c, 10, 69, 127
2, 266346, Note_on_c, 5, 65, 127
2, 266537, Note_off_c, 5, 65, 127
2, 266537, Note_off_c, 4, 52, 127
2, 266539, Note_off_c, 10, 57, 127
2, 266541, Note_on_c, 2, 62, 127
2, 266541, Note_on_c, 5, 53, 127
2, 266928, Note_off_c, 5, 53, 127
2, 266928, Note_off_c, 2, 62, 127
2, 266933, Note_on_c, 10, 57, 127
2, 266933, Note_on_c, 5, 53, 127
2, 267124, Note_off_c, 5, 53, 127
2, 267124, Note_off_c, 10, 57, 127
2, 267129, Note_on_c, 8, 56, 127
2, 267129, Note_on_c, 4, 52, 127
2, 267320, Note_off_c, 4, 52, 127
2, 267320, Note_off_c, 8, 56, 127
2, 267320, Note_off_c, 2, 74, 127
2, 267325, Note_on_c, 10, 57, 127
2, 267325, Note_on_c, 6, 54, 127
2, 267712, Note_off_c, 6, 54, 127
2, 267712, Note_off_c, 10, 57, 127
2, 267717, Note_on_c, 12, 59, 127
2, 267717, Note_on_c, 8, 56, 127
2, 268104, Note_off_c, 8, 56, 127
2, 268104, Note_off_c, 12, 59, 127
2, 268109, Note_on_c, 0, 60, 127
2, 268109, Note_on_c, 10, 57, 127
2, 268300, Note_off_c, 10, 57, 127
2, 268305, Note_on_c, 8, 56, 127
2, 268496, Note_off_c, 8, 56, 127
2, 268496, Note_off_c, 0, 60, 127
2, 268501, Note_on_c, 0, 60, 127
2, 268501, Note_on_c, 6, 54, 127
2, 268692, Note_off_c, 6, 54, 127
2, 268692, Note_off_c, 0, 60, 127
2, 268697, Note_on_c, 12, 59, 127
2, 268697, Note_on_c, 8, 56, 127
2, 268888, Note_off_c, 8, 56, 127
2, 268888, Note_off_c, 12, 59, 127
2, 268893, Note_on_c, 0, 60, 127
2, 268893, Note_on_c, 10, 57, 127
2, 269280, Note_off_c, 10, 57, 127
2, 269280, Note_off_c, 0, 60, 127
2, 269285, Note_on_c, 2, 62, 127
2, 269285, Note_on_c, 12, 59, 127
2, 269672, Note_off_c, 12, 59, 127
2, 269672, Note_off_c, 2, 62, 127
2, 269677, Note_on_c, 4, 64, 127
2, 269677, Note_on_c, 0, 48, 127
2, 269868, Note_off_c, 4, 64, 127
2, 269873, Note_on_c, 2, 62, 127
2, 270043, Note_off_c, 0, 48, 127
2, 270064, Note_off_c, 2, 62, 127
2, 270069, Note_on_c, 0, 60, 127
2, 270069, Note_on_c, 10, 45, 127
2, 270260, Note_off_c, 0, 60, 127
2, 270265, Note_on_c, 2, 62, 127
2, 270456, Note_off_c, 2, 62, 127
2, 270461, Note_on_c, 4, 64, 127
2, 270640, Note_off_c, 10, 45, 127
2, 270848, Note_off_c, 4, 64, 127
2, 270853, Note_on_c, 5, 65, 127
2, 270853, Note_on_c, 2, 50, 127
2, 271240, Note_off_c, 2, 50, 127
2, 271240, Note_off_c, 5, 65, 127
2, 271245, Note_on_c, 8, 56, 127
2, 271245, Note_on_c, 4, 52, 127
2, 271436, Note_off_c, 4, 52, 127
2, 271441, Note_on_c, 5, 53, 127
2, 271632, Note_off_c, 5, 53, 127
2, 271632, Note_off_c, 8, 56, 127
2, 271637, Note_on_c, 4, 52, 127
2, 271637, Note_on_c, 2, 50, 127
2, 271827, Note_off_c, 4, 52, 127
2, 271828, Note_off_c, 2, 50, 127
2, 271833, Note_on_c, 4, 52, 127
2, 272029, Note_on_c, 5, 53, 127
2, 272220, Note_off_c, 5, 53, 127
2, 272225, Note_on_c, 7, 55, 127
2, 272404, Note_off_c, 4, 52, 127
2, 272416, Note_off_c, 7, 55, 127
2, 272421, Note_on_c, 10, 57, 127
2, 272421, Note_on_c, 4, 52, 127
2, 272612, Note_off_c, 4, 52, 127
2, 272617, Note_on_c, 6, 54, 127
2, 272808, Note_off_c, 6, 54, 127
2, 272808, Note_off_c, 10, 57, 127
2, 272813, Note_on_c, 12, 59, 127
2, 272813, Note_on_c, 7, 55, 127
2, 273004, Note_off_c, 12, 59, 127
2, 273009, Note_on_c, 0, 60, 127
2, 273200, Note_off_c, 0, 60, 127
2, 273200, Note_off_c, 7, 55, 127
2, 273205, Note_on_c, 10, 57, 127
2, 273205, Note_on_c, 5, 53, 127
2, 273396, Note_off_c, 10, 57, 127
2, 273401, Note_on_c, 12, 59, 127
2, 273592, Note_off_c, 12, 59, 127
2, 273592, Note_off_c, 5, 53, 127
2, 273597, Note_on_c, 0, 60, 127
2, 273597, Note_on_c, 4, 52, 127
2, 273788, Note_off_c, 0, 60, 127
2, 273793, Note_on_c, 2, 62, 127
2, 273984, Note_off_c, 2, 62, 127
2, 273984, Note_off_c, 4, 52, 127
2, 273989, Note_on_c, 12, 59, 127
2, 273989, Note_on_c, 10, 57, 127
2, 274180, Note_off_c, 12, 59, 127
2, 274185, Note_on_c, 1, 61, 127
2, 274376, Note_off_c, 1, 61, 127
2, 274376, Note_off_c, 10, 57, 127
2, 274381, Note_on_c, 2, 62, 127
2, 274381, Note_on_c, 2, 50, 127
2, 274759, Note_off_c, 2, 50, 127
2, 274759, Note_off_c, 2, 62, 127
2, 274773, Note_on_c, 4, 76, 127
2, 274773, Note_on_c, 0, 60, 127
2, 274773, Note_on_c, 10, 57, 127
2, 274964, Note_off_c, 4, 76, 127
2, 274969, Note_on_c, 5, 77, 127
2, 275160, Note_off_c, 5, 77, 127
2, 275160, Note_off_c, 0, 60, 127
2, 275165, Note_on_c, 4, 76, 127
2, 275165, Note_on_c, 12, 59, 127
2, 275356, Note_off_c, 10, 57, 127
2, 275361, Note_on_c, 8, 56, 127
2, 275552, Note_off_c, 8, 56, 127
2, 275552, Note_off_c, 12, 59, 127
2, 275552, Note_off_c, 4, 76, 127
2, 275557, Note_on_c, 2, 74, 127
2, 275557, Note_on_c, 4, 64, 127
2, 275557, Note_on_c, 10, 57, 127
2, 275748, Note_off_c, 10, 57, 127
2, 275753, Note_on_c, 8, 56, 127
2, 275944, Note_off_c, 8, 56, 127
2, 275944, Note_off_c, 4, 64, 127
2, 275944, Note_off_c, 2, 74, 127
2, 275949, Note_on_c, 10, 69, 127
2, 275949, Note_on_c, 0, 72, 127
2, 275949, Note_on_c, 10, 57, 127
2, 276336, Note_off_c, 0, 72, 127
2, 276336, Note_off_c, 10, 69, 127
2, 276341, Note_on_c, 0, 72, 127
2, 276341, Note_on_c, 10, 69, 127
2, 276532, Note_off_c, 10, 69, 127
2, 276532, Note_off_c, 0, 72, 127
2, 276537, Note_on_c, 2, 74, 127
2, 276537, Note_on_c, 12, 71, 127
2, 276728, Note_off_c, 12, 71, 127
2, 276728, Note_off_c, 2, 74, 127
2, 276733, Note_on_c, 0, 72, 127
2, 276733, Note_on_c, 10, 69, 127
2, 276924, Note_off_c, 10, 57, 127
2, 276929, Note_on_c, 7, 55, 127
2, 277120, Note_off_c, 7, 55, 127
2, 277120, Note_off_c, 10, 69, 127
2, 277120, Note_off_c, 0, 72, 127
2, 277125, Note_on_c, 11, 70, 127
2, 277125, Note_on_c, 7, 67, 127
2, 277125, Note_on_c, 5, 53, 127
2, 277316, Note_off_c, 5, 53, 127
2, 277321, Note_on_c, 4, 52, 127
2, 277512, Note_off_c, 4, 52, 127
2, 277512, Note_off_c, 7, 67, 127
2, 277512, Note_off_c, 11, 70, 127
2, 277517, Note_on_c, 10, 69, 127
2, 277517, Note_on_c, 5, 65, 127
2, 277517, Note_on_c, 5, 53, 127
2, 277708, Note_off_c, 10, 69, 127
2, 277713, Note_on_c, 11, 70, 127
2, 277904, Note_off_c, 11, 70, 127
2, 277904, Note_off_c, 5, 65, 127
2, 277909, Note_on_c, 0, 72, 127
2, 277909, Note_on_c, 5, 65, 127
2, 277909, Note_on_c, 10, 57, 127
2, 278100, Note_off_c, 10, 57, 127
2, 278100, Note_off_c, 5, 65, 127
2, 278100, Note_off_c, 0, 72, 127
2, 278105, Note_on_c, 11, 70, 127
2, 278105, Note_on_c, 7, 67, 127
2, 278105, Note_on_c, 11, 58, 127
2, 278296, Note_off_c, 11, 58, 127
2, 278296, Note_off_c, 7, 67, 127
2, 278296, Note_off_c, 11, 70, 127
2, 278301, Note_on_c, 10, 69, 127
2, 278301, Note_on_c, 5, 65, 127
2, 278301, Note_on_c, 0, 60, 127
2, 278492, Note_off_c, 5, 53, 127
2, 278497, Note_on_c, 4, 52, 127
2, 278688, Note_off_c, 4, 52, 127
2, 278688, Note_off_c, 0, 60, 127
2, 278688, Note_off_c, 5, 65, 127
2, 278688, Note_off_c, 10, 69, 127
2, 278693, Note_on_c, 7, 67, 127
2, 278693, Note_on_c, 4, 64, 127
2, 278693, Note_on_c, 11, 58, 127
2, 278693, Note_on_c, 2, 50, 127
2, 278884, Note_off_c, 2, 50, 127
2, 278889, Note_on_c, 1, 49, 127
2, 279080, Note_off_c, 1, 49, 127
2, 279080, Note_off_c, 11, 58, 127
2, 279080, Note_off_c, 4, 64, 127
2, 279080, Note_off_c, 7, 67, 127
2, 279085, Note_on_c, 5, 77, 127
2, 279085, Note_on_c, 2, 62, 127
2, 279085, Note_on_c, 10, 57, 127
2, 279085, Note_on_c, 2, 50, 127
2, 279276, Note_off_c, 2, 62, 127
2, 279281, Note_on_c, 4, 64, 127
2, 279472, Note_off_c, 4, 64, 127
2, 279472, Note_off_c, 2, 50, 127
2, 279472, Note_off_c, 10, 57, 127
2, 279472, Note_off_c, 5, 77, 127
2, 279477, Note_on_c, 10, 81, 127
2, 279477, Note_on_c, 5, 65, 127
2, 279477, Note_on_c, 2, 62, 127
2, 279668, Note_off_c, 5, 65, 127
2, 279673, Note_on_c, 4, 64, 127
2, 279864, Note_off_c, 4, 64, 127
2, 279864, Note_off_c, 2, 62, 127
2, 279869, Note_on_c, 2, 62, 127
2, 279869, Note_on_c, 5, 65, 127
2, 280048, Note_off_c, 10, 81, 127
2, 280060, Note_off_c, 5, 65, 127
2, 280065, Note_on_c, 7, 67, 127
2, 280256, Note_off_c, 7, 67, 127
2, 280256, Note_off_c, 2, 62, 127
2, 280261, Note_on_c, 4, 76, 127
2, 280261, Note_on_c, 1, 61, 127
2, 280261, Note_on_c, 10, 69, 127
2, 280648, Note_off_c, 1, 61, 127
2, 280648, Note_off_c, 4, 76, 127
2, 280653, Note_on_c, 2, 74, 127
2, 280653, Note_on_c, 11, 70, 127
2, 280844, Note_off_c, 2, 74, 127
2, 280849, Note_on_c, 1, 73, 127
2, 281040, Note_off_c, 1, 73, 127
2, 281040, Note_off_c, 11, 70, 127
2, 281040, Note_off_c, 10, 69, 127
2, 281045, Note_on_c, 4, 76, 127
2, 281045, Note_on_c, 2, 74, 127
2, 281045, Note_on_c, 7, 67, 127
2, 281235, Note_off_c, 2, 74, 127
2, 281236, Note_off_c, 4, 76, 127
2, 281241, Note_on_c, 2, 74, 127
2, 281432, Note_off_c, 2, 74, 127
2, 281437, Note_on_c, 1, 73, 127
2, 281628, Note_off_c, 1, 73, 127
2, 281633, Note_on_c, 12, 71, 127
2, 281824, Note_off_c, 12, 71, 127
2, 281824, Note_off_c, 7, 67, 127
2, 281829, Note_on_c, 2, 74, 127
2, 281829, Note_on_c, 10, 69, 127
2, 281829, Note_on_c, 5, 65, 127
2, 282020, Note_off_c, 2, 74, 127
2, 282025, Note_on_c, 0, 72, 127
2, 282216, Note_off_c, 0, 72, 127
2, 282216, Note_off_c, 10, 69, 127
2, 282221, Note_on_c, 12, 71, 127
2, 282221, Note_on_c, 7, 67, 127
2, 282400, Note_off_c, 5, 65, 127
2, 282412, Note_off_c, 7, 67, 127
2, 282417, Note_on_c, 5, 65, 127
2, 282608, Note_off_c, 5, 65, 127
2, 282608, Note_off_c, 12, 71, 127
2, 282613, Note_on_c, 1, 73, 127
2, 282613, Note_on_c, 10, 69, 127
2, 282613, Note_on_c, 4, 64, 127
2, 282804, Note_off_c, 10, 69, 127
2, 282809, Note_on_c, 7, 67, 127
2, 283000, Note_off_c, 7, 67, 127
2, 283000, Note_off_c, 4, 64, 127
2, 283000, Note_off_c, 1, 73, 127
2, 283005, Note_on_c, 2, 74, 127
2, 283005, Note_on_c, 5, 65, 127
2, 283005, Note_on_c, 2, 62, 127
2, 283196, Note_off_c, 5, 65, 127
2, 283201, Note_on_c, 4, 64, 127
2, 283392, Note_off_c, 4, 64, 127
2, 283392, Note_off_c, 2, 74, 127
2, 283397, Note_on_c, 10, 69, 127
2, 283397, Note_on_c, 7, 67, 127
2, 283588, Note_off_c, 7, 67, 127
2, 283593, Note_on_c, 5, 65, 127
2, 283780, Note_off_c, 2, 62, 127
2, 283784, Note_off_c, 5, 65, 127
2, 283784, Note_off_c, 10, 69, 127
2, 283789, Note_on_c, 4, 76, 127
2, 283789, Note_on_c, 4, 64, 127
2, 283985, Note_on_c, 1, 61, 127
2, 284176, Note_off_c, 1, 61, 127
2, 284176, Note_off_c, 4, 64, 127
2, 284181, Note_on_c, 5, 65, 127
2, 284181, Note_on_c, 4, 64, 127
2, 284372, Note_off_c, 4, 64, 127
2, 284377, Note_on_c, 2, 62, 127
2, 284568, Note_off_c, 2, 62, 127
2, 284568, Note_off_c, 5, 65, 127
2, 284573, Note_on_c, 7, 67, 127
2, 284573, Note_on_c, 1, 61, 127
2, 284764, Note_off_c, 1, 61, 127
2, 284769, Note_on_c, 12, 59, 127
2, 284960, Note_off_c, 12, 59, 127
2, 284965, Note_on_c, 2, 62, 127
2, 285156, Note_off_c, 2, 62, 127
2, 285161, Note_on_c, 1, 61, 127
2, 285352, Note_off_c, 1, 61, 127
2, 285352, Note_off_c, 7, 67, 127
2, 285357, Note_on_c, 5, 65, 127
2, 285357, Note_on_c, 2, 62, 127
2, 285548, Note_off_c, 4, 76, 127
2, 285553, Note_on_c, 1, 73, 127
2, 285744, Note_off_c, 1, 73, 127
2, 285749, Note_on_c, 2, 74, 127
2, 285940, Note_off_c, 2, 74, 127
2, 285945, Note_on_c, 5, 77, 127
2, 286136, Note_off_c, 5, 77, 127
2, 286136, Note_off_c, 5, 65, 127
2, 286141, Note_on_c, 7, 79, 127
2, 286141, Note_on_c, 4, 64, 127
2, 286332, Note_off_c, 2, 62, 127
2, 286337, Note_on_c, 12, 59, 127
2, 286528, Note_off_c, 12, 59, 127
2, 286528, Note_off_c, 4, 64, 127
2, 286533, Note_on_c, 10, 69, 127
2, 286533, Note_on_c, 1, 61, 127
2, 286724, Note_off_c, 1, 61, 127
2, 286729, Note_on_c, 4, 64, 127
2, 286920, Note_off_c, 4, 64, 127
2, 286925, Note_on_c, 5, 65, 127
2, 287116, Note_off_c, 10, 69, 127
2, 287116, Note_off_c, 7, 79, 127
2, 287121, Note_on_c, 4, 76, 127
2, 287121, Note_on_c, 1, 73, 127
2, 287312, Note_off_c, 1, 73, 127
2, 287312, Note_off_c, 4, 76, 127
2, 287317, Note_on_c, 5, 77, 127
2, 287317, Note_on_c, 2, 74, 127
2, 287508, Note_off_c, 5, 77, 127
2, 287513, Note_on_c, 10, 81, 127
2, 287704, Note_off_c, 10, 81, 127
2, 287704, Note_off_c, 2, 74, 127
2, 287709, Note_on_c, 11, 82, 127
2, 287709, Note_on_c, 7, 67, 127
2, 287900, Note_off_c, 5, 65, 127
2, 287905, Note_on_c, 2, 62, 127
2, 288096, Note_off_c, 2, 62, 127
2, 288096, Note_off_c, 7, 67, 127
2, 288101, Note_on_c, 0, 72, 127
2, 288101, Note_on_c, 4, 64, 127
2, 288292, Note_off_c, 4, 64, 127
2, 288297, Note_on_c, 7, 67, 127
2, 288488, Note_off_c, 7, 67, 127
2, 288493, Note_on_c, 10, 69, 127
2, 288684, Note_off_c, 0, 72, 127
2, 288684, Note_off_c, 11, 82, 127
2, 288689, Note_on_c, 7, 79, 127
2, 288689, Note_on_c, 4, 76, 127
2, 288880, Note_off_c, 4, 76, 127
2, 288880, Note_off_c, 7, 79, 127
2, 288885, Note_on_c, 10, 81, 127
2, 288885, Note_on_c, 5, 77, 127
2, 289076, Note_off_c, 10, 81, 127
2, 289081, Note_on_c, 0, 84, 127
2, 289272, Note_off_c, 0, 84, 127
2, 289272, Note_off_c, 5, 77, 127
2, 289277, Note_on_c, 2, 74, 127
2, 289277, Note_on_c, 11, 70, 127
2, 289468, Note_off_c, 10, 69, 127
2, 289473, Note_on_c, 5, 65, 127
2, 289664, Note_off_c, 5, 65, 127
2, 289664, Note_off_c, 11, 70, 127
2, 289664, Note_off_c, 2, 74, 127
2, 289669, Note_on_c, 4, 76, 127
2, 289669, Note_on_c, 7, 67, 127
2, 289860, Note_off_c, 7, 67, 127
2, 289860, Note_off_c, 4, 76, 127
2, 289865, Note_on_c, 7, 79, 127
2, 289865, Note_on_c, 11, 70, 127
2, 290056, Note_off_c, 7, 79, 127
2, 290061, Note_on_c, 0, 72, 127
2, 290061, Note_on_c, 4, 64, 127
2, 290252, Note_off_c, 11, 70, 127
2, 290257, Note_on_c, 7, 67, 127
2, 290448, Note_off_c, 7, 67, 127
2, 290448, Note_off_c, 4, 64, 127
2, 290453, Note_on_c, 10, 69, 127
2, 290453, Note_on_c, 5, 65, 127
2, 290632, Note_off_c, 0, 72, 127
2, 290644, Note_off_c, 10, 69, 127
2, 290649, Note_on_c, 0, 72, 127
2, 290840, Note_off_c, 5, 65, 127
2, 290845, Note_on_c, 2, 62, 127
2, 290845, Note_on_c, 11, 58, 127
2, 291036, Note_off_c, 0, 72, 127
2, 291041, Note_on_c, 5, 65, 127
2, 291232, Note_off_c, 5, 65, 127
2, 291237, Note_on_c, 7, 67, 127
2, 291428, Note_off_c, 7, 67, 127
2, 291433, Note_on_c, 11, 70, 127
2, 291624, Note_off_c, 11, 58, 127
2, 291624, Note_off_c, 2, 62, 127
2, 291629, Note_on_c, 4, 64, 127
2, 291629, Note_on_c, 0, 60, 127
2, 291820, Note_off_c, 11, 70, 127
2, 291825, Note_on_c, 11, 70, 127
2, 292016, Note_off_c, 11, 70, 127
2, 292016, Note_off_c, 4, 64, 127
2, 292021, Note_on_c, 10, 69, 127
2, 292021, Note_on_c, 5, 65, 127
2, 292021, Note_on_c, 0, 48, 127
2, 292212, Note_off_c, 0, 48, 127
2, 292212, Note_off_c, 10, 69, 127
2, 292217, Note_on_c, 7, 67, 127
2, 292217, Note_on_c, 2, 50, 127
2, 292408, Note_off_c, 2, 50, 127
2, 292408, Note_off_c, 7, 67, 127
2, 292413, Note_on_c, 10, 69, 127
2, 292413, Note_on_c, 0, 48, 127
2, 292479, Note_on_c, 7, 67, 127
2, 292480, Note_off_c, 10, 69, 127
2, 292543, Note_on_c, 10, 69, 127
2, 292544, Note_off_c, 7, 67, 127
2, 292607, Note_on_c, 7, 67, 127
2, 292608, Note_off_c, 10, 69, 127
2, 292799, Note_off_c, 0, 48, 127
2, 292799, Note_off_c, 5, 65, 127
2, 292803, Note_on_c, 4, 64, 127
2, 292803, Note_on_c, 11, 46, 127
2, 292994, Note_off_c, 7, 67, 127
2, 292999, Note_on_c, 5, 65, 127
2, 293190, Note_off_c, 5, 65, 127
2, 293190, Note_off_c, 11, 46, 127
2, 293190, Note_off_c, 4, 64, 127
2, 293195, Note_on_c, 5, 65, 127
2, 293195, Note_on_c, 10, 45, 127
2, 293582, Note_off_c, 10, 45, 127
2, 293583, Note_off_c, 0, 60, 127
2, 293587, Note_on_c, 0, 72, 127
2, 293587, Note_on_c, 10, 45, 127
2, 293587, Note_on_c, 4, 52, 127
2, 293778, Note_off_c, 10, 45, 127
2, 293778, Note_off_c, 0, 72, 127
2, 293783, Note_on_c, 2, 74, 127
2, 293783, Note_on_c, 11, 46, 127
2, 293974, Note_off_c, 11, 46, 127
2, 293974, Note_off_c, 2, 74, 127
2, 293974, Note_off_c, 4, 52, 127
2, 293979, Note_on_c, 0, 72, 127
2, 293979, Note_on_c, 10, 45, 127
2, 293979, Note_on_c, 5, 53, 127
2, 294358, Note_off_c, 5, 65, 127
2, 294366, Note_off_c, 5, 53, 127
2, 294366, Note_off_c, 10, 45, 127
2, 294371, Note_on_c, 11, 70, 127
2, 294371, Note_on_c, 7, 43, 127
2, 294371, Note_on_c, 4, 52, 127
2, 294758, Note_off_c, 4, 52, 127
2, 294758, Note_off_c, 7, 43, 127
2, 294758, Note_off_c, 11, 70, 127
2, 294758, Note_off_c, 0, 72, 127
2, 294763, Note_on_c, 0, 72, 127
2, 294763, Note_on_c, 10, 69, 127
2, 294763, Note_on_c, 5, 41, 127
2, 294763, Note_on_c, 5, 53, 127
2, 294954, Note_off_c, 5, 41, 127
2, 294959, Note_on_c, 7, 43, 127
2, 295150, Note_off_c, 7, 43, 127
2, 295150, Note_off_c, 5, 53, 127
2, 295150, Note_off_c, 10, 69, 127
2, 295155, Note_on_c, 10, 69, 127
2, 295155, Note_on_c, 10, 45, 127
2, 295155, Note_on_c, 4, 52, 127
2, 295346, Note_off_c, 10, 45, 127
2, 295346, Note_off_c, 10, 69, 127
2, 295351, Note_on_c, 11, 70, 127
2, 295351, Note_on_c, 7, 43, 127
2, 295542, Note_off_c, 7, 43, 127
2, 295542, Note_off_c, 11, 70, 127
2, 295542, Note_off_c, 4, 52, 127
2, 295547, Note_on_c, 10, 69, 127
2, 295547, Note_on_c, 5, 41, 127
2, 295547, Note_on_c, 5, 53, 127
2, 295934, Note_off_c, 5, 53, 127
2, 295934, Note_off_c, 5, 41, 127
2, 295934, Note_off_c, 10, 69, 127
2, 295936, Note_off_c, 0, 72, 127
2, 295938, Note_on_c, 0, 72, 127
2, 295938, Note_on_c, 7, 67, 127
2, 295938, Note_on_c, 3, 39, 127
2, 296325, Note_off_c, 3, 39, 127
2, 296325, Note_off_c, 7, 67, 127
2, 296330, Note_on_c, 6, 66, 127
2, 296330, Note_on_c, 2, 50, 127
2, 296330, Note_on_c, 10, 57, 127
2, 296521, Note_off_c, 10, 57, 127
2, 296521, Note_off_c, 6, 66, 127
2, 296526, Note_on_c, 7, 67, 127
2, 296526, Note_on_c, 7, 55, 127
2, 296717, Note_off_c, 7, 55, 127
2, 296717, Note_off_c, 7, 67, 127
2, 296717, Note_off_c, 2, 50, 127
2, 296722, Note_on_c, 10, 69, 127
2, 296722, Note_on_c, 6, 54, 127
2, 296913, Note_off_c, 6, 54, 127
2, 296913, Note_off_c, 10, 69, 127
2, 296918, Note_on_c, 7, 67, 127
2, 296918, Note_on_c, 7, 55, 127
2, 297109, Note_off_c, 7, 55, 127
2, 297109, Note_off_c, 7, 67, 127
2, 297114, Note_on_c, 6, 66, 127
2, 297114, Note_on_c, 10, 57, 127
2, 297305, Note_off_c, 10, 57, 127
2, 297310, Note_on_c, 11, 58, 127
2, 297501, Note_off_c, 11, 58, 127
2, 297501, Note_off_c, 6, 66, 127
2, 297506, Note_on_c, 3, 63, 127
2, 297506, Note_on_c, 0, 48, 127
2, 297506, Note_on_c, 0, 60, 127
2, 297893, Note_off_c, 0, 60, 127
2, 297893, Note_off_c, 0, 48, 127
2, 297893, Note_off_c, 3, 63, 127
2, 297898, Note_on_c, 2, 74, 127
2, 297898, Note_on_c, 11, 46, 127
2, 297898, Note_on_c, 6, 54, 127
2, 298089, Note_off_c, 11, 46, 127
2, 298094, Note_on_c, 10, 45, 127
2, 298285, Note_off_c, 10, 45, 127
2, 298285, Note_off_c, 6, 54, 127
2, 298285, Note_off_c, 2, 74, 127
2, 298285, Note_off_c, 0, 72, 127
2, 298290, Note_on_c, 10, 69, 127
2, 298290, Note_on_c, 6, 78, 127
2, 298290, Note_on_c, 0, 48, 127
2, 298290, Note_on_c, 10, 57, 127
2, 298481, Note_off_c, 0, 48, 127
2, 298486, Note_on_c, 11, 46, 127
2, 298677, Note_off_c, 11, 46, 127
2, 298677, Note_off_c, 10, 57, 127
2, 298677, Note_off_c, 10, 69, 127
2, 298682, Note_on_c, 3, 75, 127
2, 298682, Note_on_c, 10, 45, 127
2, 298682, Note_on_c, 7, 55, 127
2, 298861, Note_off_c, 6, 78, 127
2, 298873, Note_off_c, 10, 45, 127
2, 298878, Note_on_c, 7, 43, 127
2, 299069, Note_off_c, 7, 43, 127
2, 299069, Note_off_c, 7, 55, 127
2, 299074, Note_on_c, 0, 72, 127
2, 299074, Note_on_c, 11, 46, 127
2, 299074, Note_on_c, 6, 54, 127
2, 299265, Note_off_c, 11, 46, 127
2, 299270, Note_on_c, 10, 45, 127
2, 299461, Note_off_c, 10, 45, 127
2, 299461, Note_off_c, 6, 54, 127
2, 299461, Note_off_c, 0, 72, 127
2, 299466, Note_on_c, 11, 70, 127
2, 299466, Note_on_c, 7, 43, 127
2, 299466, Note_on_c, 7, 55, 127
2, 299657, Note_off_c, 11, 70, 127
2, 299662, Note_on_c, 10, 69, 127
2, 299853, Note_off_c, 10, 69, 127
2, 299853, Note_off_c, 7, 55, 127
2, 299853, Note_off_c, 3, 75, 127
2, 299858, Note_on_c, 2, 74, 127
2, 299858, Note_on_c, 0, 72, 127
2, 299858, Note_on_c, 5, 53, 127
2, 300049, Note_off_c, 0, 72, 127
2, 300054, Note_on_c, 11, 70, 127
2, 300245, Note_off_c, 11, 70, 127
2, 300245, Note_off_c, 5, 53, 127
2, 300245, Note_off_c, 2, 74, 127
2, 300250, Note_on_c, 0, 72, 127
2, 300250, Note_on_c, 10, 69, 127
2, 300250, Note_on_c, 3, 51, 127
2, 300441, Note_off_c, 10, 69, 127
2, 300441, Note_off_c, 0, 72, 127
2, 300446, Note_on_c, 11, 70, 127
2, 300446, Note_on_c, 7, 67, 127
2, 300637, Note_off_c, 7, 67, 127
2, 300637, Note_off_c, 11, 70, 127
2, 300637, Note_off_c, 3, 51, 127
2, 300637, Note_off_c, 7, 43, 127
2, 300642, Note_on_c, 2, 74, 127
2, 300642, Note_on_c, 11, 70, 127
2, 300642, Note_on_c, 6, 42, 127
2, 300642, Note_on_c, 2, 50, 127
2, 300833, Note_off_c, 11, 70, 127
2, 300833, Note_off_c, 2, 74, 127
2, 300838, Note_on_c, 0, 72, 127
2, 300838, Note_on_c, 10, 69, 127
2, 301029, Note_off_c, 0, 72, 127
2, 301029, Note_off_c, 6, 42, 127
2, 301037, Note_off_c, 10, 69, 127
2, 301042, Note_on_c, 11, 70, 127
2, 301042, Note_on_c, 7, 67, 127
2, 301042, Note_on_c, 7, 43, 127
2, 301236, Note_off_c, 11, 70, 127
2, 301241, Note_on_c, 0, 72, 127
2, 301427, Note_off_c, 2, 50, 127
2, 301435, Note_off_c, 0, 72, 127
2, 301440, Note_on_c, 2, 74, 127
2, 301440, Note_on_c, 7, 55, 127
2, 301634, Note_off_c, 7, 55, 127
2, 301634, Note_off_c, 2, 74, 127
2, 301638, Note_on_c, 0, 72, 127
2, 301638, Note_on_c, 10, 57, 127
2, 301832, Note_off_c, 10, 57, 127
2, 301832, Note_off_c, 0, 72, 127
2, 301837, Note_on_c, 11, 70, 127
2, 301837, Note_on_c, 7, 55, 127
2, 302036, Note_off_c, 7, 67, 127
2, 302036, Note_on_c, 10, 69, 127
2, 302230, Note_off_c, 10, 69, 127
2, 302230, Note_off_c, 7, 55, 127
2, 302235, Note_on_c, 7, 67, 127
2, 302235, Note_on_c, 5, 53, 127
2, 302429, Note_off_c, 7, 67, 127
2, 302434, Note_on_c, 5, 65, 127
2, 302628, Note_off_c, 5, 65, 127
2, 302628, Note_off_c, 5, 53, 127
2, 302632, Note_on_c, 7, 67, 127
2, 302632, Note_on_c, 4, 52, 127
2, 302826, Note_off_c, 7, 67, 127
2, 302831, Note_off_c, 11, 70, 127
2, 302831, Note_on_c, 10, 69, 127
2, 303025, Note_off_c, 10, 69, 127
2, 303025, Note_off_c, 4, 52, 127
2, 303030, Note_on_c, 11, 70, 127
2, 303030, Note_on_c, 4, 52, 127
2, 303224, Note_off_c, 4, 52, 127
2, 303229, Note_on_c, 10, 69, 127
2, 303229, Note_on_c, 5, 53, 127
2, 303423, Note_off_c, 5, 53, 127
2, 303423, Note_off_c, 10, 69, 127
2, 303428, Note_on_c, 7, 67, 127
2, 303428, Note_on_c, 4, 52, 127
2, 303622, Note_off_c, 7, 67, 127
2, 303626, Note_on_c, 5, 65, 127
2, 303820, Note_off_c, 5, 65, 127
2, 303821, Note_off_c, 4, 52, 127
2, 303825, Note_on_c, 4, 64, 127
2, 303825, Note_on_c, 2, 50, 127
2, 304019, Note_off_c, 4, 64, 127
2, 304024, Note_on_c, 2, 62, 127
2, 304218, Note_off_c, 2, 62, 127
2, 304218, Note_off_c, 2, 50, 127
2, 304218, Note_off_c, 7, 43, 127
2, 304220, Note_off_c, 11, 70, 127
2, 304221, Note_on_c, 4, 76, 127
2, 304221, Note_on_c, 7, 43, 127
2, 304221, Note_on_c, 1, 49, 127
2, 304415, Note_off_c, 1, 49, 127
2, 304420, Note_on_c, 2, 50, 127
2, 304614, Note_off_c, 2, 50, 127
2, 304619, Note_on_c, 10, 69, 127
2, 304619, Note_on_c, 4, 52, 127
2, 304813, Note_off_c, 4, 52, 127
2, 304813, Note_off_c, 10, 69, 127
2, 304818, Note_on_c, 7, 67, 127
2, 304818, Note_on_c, 2, 50, 127
2, 305012, Note_off_c, 2, 50, 127
2, 305012, Note_off_c, 7, 67, 127
2, 305017, Note_on_c, 10, 69, 127
2, 305017, Note_on_c, 1, 49, 127
2, 305411, Note_off_c, 1, 49, 127
2, 305411, Note_off_c, 10, 69, 127
2, 305416, Note_on_c, 12, 71, 127
2, 305416, Note_on_c, 12, 47, 127
2, 305810, Note_off_c, 12, 47, 127
2, 305810, Note_off_c, 12, 71, 127
2, 305815, Note_on_c, 1, 73, 127
2, 305815, Note_on_c, 10, 57, 127
2, 306209, Note_off_c, 10, 57, 127
2, 306209, Note_off_c, 1, 73, 127
2, 306209, Note_off_c, 7, 43, 127
2, 306209, Note_off_c, 4, 76, 127
2, 306214, Note_on_c, 4, 76, 127
2, 306214, Note_on_c, 1, 73, 127
2, 306214, Note_on_c, 4, 52, 127
2, 306214, Note_on_c, 1, 61, 127
2, 306408, Note_off_c, 4, 52, 127
2, 306408, Note_off_c, 1, 73, 127
2, 306408, Note_off_c, 4, 76, 127
2, 306412, Note_on_c, 2, 74, 127
2, 306412, Note_on_c, 12, 71, 127
2, 306412, Note_on_c, 5, 53, 127
2, 306606, Note_off_c, 5, 53, 127
2, 306606, Note_off_c, 12, 71, 127
2, 306606, Note_off_c, 2, 74, 127
2, 306607, Note_off_c, 1, 61, 127
2, 306611, Note_on_c, 4, 76, 127
2, 306611, Note_on_c, 1, 73, 127
2, 306611, Note_on_c, 7, 55, 127
2, 306805, Note_off_c, 7, 55, 127
2, 306810, Note_on_c, 5, 53, 127
2, 307004, Note_off_c, 5, 53, 127
2, 307004, Note_off_c, 1, 73, 127
2, 307004, Note_off_c, 4, 76, 127
2, 307009, Note_on_c, 5, 77, 127
2, 307009, Note_on_c, 10, 69, 127
2, 307009, Note_on_c, 2, 74, 127
2, 307009, Note_on_c, 4, 52, 127
2, 307203, Note_off_c, 4, 52, 127
2, 307208, Note_on_c, 2, 50, 127
2, 307402, Note_off_c, 2, 50, 127
2, 307402, Note_off_c, 2, 74, 127
2, 307402, Note_off_c, 10, 69, 127
2, 307402, Note_off_c, 5, 77, 127
2, 307406, Note_on_c, 7, 79, 127
2, 307406, Note_on_c, 4, 76, 127
2, 307406, Note_on_c, 1, 49, 127
2, 307406, Note_on_c, 11, 70, 127
2, 307600, Note_off_c, 4, 76, 127
2, 307605, Note_on_c, 2, 74, 127
2, 307799, Note_off_c, 2, 74, 127
2, 307799, Note_off_c, 1, 49, 127
2, 307799, Note_off_c, 7, 79, 127
2, 307804, Note_on_c, 7, 79, 127
2, 307804, Note_on_c, 1, 73, 127
2, 307998, Note_off_c, 1, 73, 127
2, 307998, Note_off_c, 7, 79, 127
2, 307998, Note_off_c, 11, 70, 127
2, 308003, Note_on_c, 5, 77, 127
2, 308003, Note_on_c, 2, 74, 127
2, 308003, Note_on_c, 10, 69, 127
2, 308197, Note_off_c, 10, 69, 127
2, 308197, Note_off_c, 2, 74, 127
2, 308197, Note_off_c, 5, 77, 127
2, 308202, Note_on_c, 7, 79, 127
2, 308202, Note_on_c, 4, 76, 127
2, 308202, Note_on_c, 7, 67, 127
2, 308396, Note_off_c, 7, 67, 127
2, 308400, Note_on_c, 5, 65, 127
2, 308594, Note_off_c, 5, 65, 127
2, 308595, Note_off_c, 4, 76, 127
2, 308595, Note_off_c, 7, 79, 127
2, 308599, Note_on_c, 10, 81, 127
2, 308599, Note_on_c, 5, 77, 127
2, 308599, Note_on_c, 4, 64, 127
2, 308793, Note_off_c, 4, 64, 127
2, 308798, Note_on_c, 2, 62, 127
2, 308992, Note_off_c, 2, 62, 127
2, 308992, Note_off_c, 5, 77, 127
2, 308992, Note_off_c, 10, 81, 127
2, 308997, Note_on_c, 11, 82, 127
2, 308997, Note_on_c, 7, 67, 127
2, 308997, Note_on_c, 1, 61, 127
2, 309191, Note_off_c, 11, 82, 127
2, 309196, Note_on_c, 10, 81, 127
2, 309390, Note_off_c, 10, 81, 127
2, 309390, Note_off_c, 7, 67, 127
2, 309394, Note_on_c, 7, 79, 127
2, 309394, Note_on_c, 4, 64, 127
2, 309588, Note_off_c, 7, 79, 127
2, 309593, Note_on_c, 10, 81, 127
2, 309783, Note_off_c, 1, 61, 127
2, 309787, Note_off_c, 10, 81, 127
2, 309792, Note_on_c, 11, 82, 127
2, 309792, Note_on_c, 1, 61, 127
2, 309986, Note_off_c, 11, 82, 127
2, 309991, Note_on_c, 7, 79, 127
2, 310185, Note_off_c, 7, 79, 127
2, 310185, Note_off_c, 1, 61, 127
2, 310185, Note_off_c, 4, 64, 127
2, 310190, Note_on_c, 10, 81, 127
2, 310190, Note_on_c, 10, 69, 127
2, 310190, Note_on_c, 10, 57, 127
2, 310190, Note_on_c, 1, 61, 127
2, 310384, Note_off_c, 10, 81, 127
2, 310388, Note_on_c, 4, 76, 127
2, 310582, Note_off_c, 4, 76, 127
2, 310583, Note_off_c, 1, 61, 127
2, 310583, Note_off_c, 10, 57, 127
2, 310583, Note_off_c, 10, 69, 127
2, 310587, Note_on_c, 5, 77, 127
2, 310587, Note_on_c, 10, 69, 127
2, 310587, Note_on_c, 2, 50, 127
2, 310587, Note_on_c, 2, 62, 127
2, 310781, Note_off_c, 5, 77, 127
2, 310786, Note_on_c, 4, 76, 127
2, 310980, Note_off_c, 4, 76, 127
2, 310980, Note_off_c, 2, 62, 127
2, 310980, Note_off_c, 10, 69, 127
2, 310985, Note_on_c, 2, 74, 127
2, 310985, Note_on_c, 5, 65, 127
2, 311184, Note_on_c, 4, 76, 127
2, 311378, Note_off_c, 4, 76, 127
2, 311378, Note_off_c, 5, 65, 127
2, 311378, Note_off_c, 2, 74, 127
2, 311382, Note_on_c, 5, 77, 127
2, 311382, Note_on_c, 10, 69, 127
2, 311382, Note_on_c, 2, 62, 127
2, 311576, Note_off_c, 5, 77, 127
2, 311581, Note_on_c, 2, 74, 127
2, 311775, Note_off_c, 2, 74, 127
2, 311775, Note_off_c, 2, 62, 127
2, 311775, Note_off_c, 10, 69, 127
2, 311780, Note_on_c, 4, 76, 127
2, 311780, Note_on_c, 7, 67, 127
2, 311780, Note_on_c, 10, 57, 127
2, 311974, Note_off_c, 4, 76, 127
2, 311979, Note_on_c, 1, 73, 127
2, 312173, Note_off_c, 1, 73, 127
2, 312173, Note_off_c, 10, 57, 127
2, 312173, Note_off_c, 7, 67, 127
2, 312173, Note_off_c, 2, 50, 127
2, 312178, Note_on_c, 2, 74, 127
2, 312178, Note_on_c, 5, 65, 127
2, 312178, Note_on_c, 2, 50, 127
2, 312178, Note_on_c, 11, 58, 127
2, 312372, Note_off_c, 2, 74, 127
2, 312376, Note_on_c, 0, 72, 127
2, 312570, Note_off_c, 0, 72, 127
2, 312571, Note_off_c, 11, 58, 127
2, 312571, Note_off_c, 5, 65, 127
2, 312575, Note_on_c, 11, 70, 127
2, 312575, Note_on_c, 2, 62, 127
2, 312575, Note_on_c, 5, 53, 127
2, 312769, Note_off_c, 11, 70, 127
2, 312774, Note_on_c, 0, 72, 127
2, 312968, Note_off_c, 0, 72, 127
2, 312968, Note_off_c, 5, 53, 127
2, 312968, Note_off_c, 2, 62, 127
2, 312973, Note_on_c, 2, 74, 127
2, 312973, Note_on_c, 5, 65, 127
2, 312973, Note_on_c, 11, 58, 127
2, 313167, Note_off_c, 2, 74, 127
2, 313172, Note_on_c, 11, 70, 127
2, 313366, Note_off_c, 11, 70, 127
2, 313366, Note_off_c, 11, 58, 127
2, 313366, Note_off_c, 5, 65, 127
2, 313370, Note_on_c, 0, 72, 127
2, 313370, Note_on_c, 5, 65, 127
2, 313370, Note_on_c, 2, 62, 127
2, 313564, Note_off_c, 0, 72, 127
2, 313569, Note_on_c, 10, 69, 127
2, 313763, Note_off_c, 2, 62, 127
2, 313763, Note_off_c, 5, 65, 127
2, 313764, Note_off_c, 2, 50, 127
2, 313768, Note_on_c, 4, 64, 127
2, 313768, Note_on_c, 2, 50, 127
2, 313768, Note_on_c, 12, 59, 127
2, 313801, Note_off_c, 10, 69, 127
2, 313837, Note_on_c, 12, 71, 127
2, 313905, Note_on_c, 4, 76, 127
2, 313975, Note_on_c, 8, 80, 127
2, 314979, Note_off_c, 12, 59, 127
2, 314979, Note_off_c, 2, 50, 127
2, 314979, Note_off_c, 4, 64, 127
2, 314990, Note_off_c, 8, 80, 127
2, 315023, Note_off_c, 4, 76, 127
2, 315049, Note_off_c, 12, 71, 127
2, 315386, Note_on_c, 10, 81, 127
2, 315386, Note_on_c, 0, 60, 127
2, 315386, Note_on_c, 10, 57, 127
2, 315386, Note_on_c, 3, 51, 127
2, 315792, Note_on_c, 10, 69, 127
2, 315990, Note_off_c, 10, 69, 127
2, 315995, Note_on_c, 8, 68, 127
2, 316193, Note_off_c, 8, 68, 127
2, 316198, Note_on_c, 10, 69, 127
2, 316401, Note_off_c, 3, 51, 127
2, 316401, Note_off_c, 10, 57, 127
2, 316401, Note_off_c, 0, 60, 127
2, 316599, Note_off_c, 10, 69, 127
2, 316604, Note_on_c, 12, 71, 127
2, 317005, Note_off_c, 12, 71, 127
2, 317010, Note_on_c, 0, 72, 127
2, 317010, Note_on_c, 0, 60, 127
2, 317010, Note_on_c, 10, 57, 127
2, 317010, Note_on_c, 4, 52, 127
2, 317411, Note_off_c, 0, 72, 127
2, 317411, Note_off_c, 10, 81, 127
2, 317416, Note_on_c, 4, 76, 127
2, 317416, Note_on_c, 0, 72, 127
2, 317614, Note_off_c, 0, 72, 127
2, 317614, Note_off_c, 4, 76, 127
2, 317619, Note_on_c, 2, 74, 127
2, 317619, Note_on_c, 12, 71, 127
2, 317817, Note_off_c, 12, 71, 127
2, 317817, Note_off_c, 2, 74, 127
2, 317822, Note_on_c, 4, 76, 127
2, 317822, Note_on_c, 0, 72, 127
2, 318025, Note_off_c, 4, 52, 127
2, 318025, Note_off_c, 10, 57, 127
2, 318025, Note_off_c, 0, 60, 127
2, 318223, Note_off_c, 0, 72, 127
2, 318223, Note_off_c, 4, 76, 127
2, 318228, Note_on_c, 6, 78, 127
2, 318228, Note_on_c, 2, 74, 127
2, 318629, Note_off_c, 2, 74, 127
2, 318629, Note_off_c, 6, 78, 127
2, 318634, Note_on_c, 8, 80, 127
2, 318634, Note_on_c, 4, 76, 127
2, 318634, Note_on_c, 2, 62, 127
2, 318634, Note_on_c, 4, 52, 127
2, 318634, Note_on_c, 12, 59, 127
2, 318832, Note_off_c, 4, 76, 127
2, 318837, Note_on_c, 2, 74, 127
2, 319035, Note_off_c, 2, 74, 127
2, 319035, Note_off_c, 8, 80, 127
2, 319040, Note_on_c, 8, 80, 127
2, 319040, Note_on_c, 0, 72, 127
2, 319238, Note_off_c, 0, 72, 127
2, 319238, Note_off_c, 8, 80, 127
2, 319243, Note_on_c, 6, 78, 127
2, 319243, Note_on_c, 2, 74, 127
2, 319441, Note_off_c, 2, 74, 127
2, 319441, Note_off_c, 6, 78, 127
2, 319446, Note_on_c, 8, 80, 127
2, 319446, Note_on_c, 4, 76, 127
2, 319847, Note_off_c, 4, 76, 127
2, 319847, Note_off_c, 8, 80, 127
2, 319850, Note_off_c, 12, 59, 127
2, 319850, Note_off_c, 4, 52, 127
2, 319850, Note_off_c, 2, 62, 127
2, 319854, Note_on_c, 10, 81, 127
2, 319854, Note_on_c, 5, 77, 127
2, 320255, Note_off_c, 5, 77, 127
2, 320255, Note_off_c, 10, 81, 127
2, 320260, Note_on_c, 12, 83, 127
2, 320260, Note_on_c, 8, 68, 127
2, 320458, Note_off_c, 12, 83, 127
2, 320463, Note_on_c, 10, 81, 127
2, 320661, Note_off_c, 10, 81, 127
2, 320661, Note_off_c, 8, 68, 127
2, 320666, Note_on_c, 8, 80, 127
2, 320666, Note_on_c, 4, 64, 127
2, 320666, Note_on_c, 12, 59, 127
2, 320864, Note_off_c, 12, 59, 127
2, 320864, Note_off_c, 8, 80, 127
2, 320869, Note_on_c, 10, 81, 127
2, 320869, Note_on_c, 0, 60, 127
2, 321067, Note_off_c, 0, 60, 127
2, 321067, Note_off_c, 10, 81, 127
2, 321072, Note_on_c, 12, 83, 127
2, 321072, Note_on_c, 2, 62, 127
2, 321258, Note_off_c, 4, 64, 127
2, 321270, Note_off_c, 2, 62, 127
2, 321275, Note_on_c, 4, 64, 127
2, 321473, Note_off_c, 4, 64, 127
2, 321473, Note_off_c, 12, 83, 127
2, 321478, Note_on_c, 0, 84, 127
2, 321478, Note_on_c, 10, 69, 127
2, 321478, Note_on_c, 6, 66, 127
2, 321676, Note_off_c, 6, 66, 127
2, 321681, Note_on_c, 8, 68, 127
2, 321879, Note_off_c, 8, 68, 127
2, 321879, Note_off_c, 10, 69, 127
2, 321879, Note_off_c, 0, 84, 127
2, 321884, Note_on_c, 3, 75, 127
2, 321884, Note_on_c, 12, 71, 127
2, 321884, Note_on_c, 10, 57, 127
2, 321884, Note_on_c, 6, 54, 127
2, 321884, Note_on_c, 6, 66, 127
2, 321884, Note_on_c, 10, 69, 127
2, 322915, Note_off_c, 10, 69, 127
2, 322915, Note_off_c, 6, 66, 127
2, 322915, Note_off_c, 6, 54, 127
2, 322915, Note_off_c, 10, 57, 127
2, 322915, Note_off_c, 12, 71, 127
2, 322915, Note_off_c, 3, 75, 127
2, 323121, Note_on_c, 4, 76, 127
2, 323121, Note_on_c, 12, 71, 127
2, 323121, Note_on_c, 12, 59, 127
2, 323121, Note_on_c, 8, 56, 127
2, 323529, Note_off_c, 8, 56, 127
2, 323529, Note_off_c, 12, 59, 127
2, 323529, Note_off_c, 12, 71, 127
2, 323529, Note_off_c, 4, 76, 127
2, 323534, Note_on_c, 2, 74, 127
2, 323534, Note_on_c, 4, 64, 127
2, 323534, Note_on_c, 10, 69, 127
2, 323534, Note_on_c, 10, 57, 127
2, 323534, Note_on_c, 0, 60, 127
2, 323734, Note_off_c, 2, 74, 127
2, 323742, Note_on_c, 0, 72, 127
2, 323942, Note_off_c, 0, 72, 127
2, 323944, Note_off_c, 0, 60, 127
2, 323944, Note_off_c, 10, 57, 127
2, 323944, Note_off_c, 10, 69, 127
2, 323944, Note_off_c, 4, 64, 127
2, 323949, Note_on_c, 12, 71, 127
2, 323949, Note_on_c, 5, 65, 127
2, 323949, Note_on_c, 2, 50, 127
2, 323949, Note_on_c, 2, 62, 127
2, 324150, Note_off_c, 12, 71, 127
2, 324155, Note_on_c, 10, 69, 127
2, 324356, Note_off_c, 10, 69, 127
2, 324356, Note_off_c, 2, 62, 127
2, 324356, Note_off_c, 2, 50, 127
2, 324356, Note_off_c, 5, 65, 127
2, 324360, Note_on_c, 0, 72, 127
2, 324360, Note_on_c, 10, 69, 127
2, 324360, Note_on_c, 4, 52, 127
2, 324360, Note_on_c, 0, 60, 127
2, 324561, Note_off_c, 0, 72, 127
2, 324566, Note_on_c, 12, 71, 127
2, 324767, Note_off_c, 12, 71, 127
2, 324767, Note_off_c, 0, 60, 127
2, 324767, Note_off_c, 10, 69, 127
2, 324772, Note_on_c, 10, 69, 127
2, 324772, Note_on_c, 2, 62, 127
2, 324772, Note_on_c, 12, 59, 127
2, 324973, Note_off_c, 10, 69, 127
2, 324978, Note_on_c, 8, 68, 127
2, 325179, Note_off_c, 8, 68, 127
2, 325179, Note_off_c, 12, 59, 127
2, 325179, Note_off_c, 2, 62, 127
2, 325179, Note_off_c, 4, 52, 127
2, 325184, Note_on_c, 10, 69, 127
2, 325184, Note_on_c, 4, 64, 127
2, 325184, Note_on_c, 1, 61, 127
2, 325184, Note_on_c, 10, 45, 127
2, 325184, Note_on_c, 10, 57, 127
2, 325599, Note_off_c, 10, 57, 127
2, 325604, Note_on_c, 10, 57, 127
2, 325809, Note_off_c, 10, 57, 127
2, 325814, Note_on_c, 11, 58, 127
2, 326019, Note_off_c, 11, 58, 127
2, 326024, Note_on_c, 10, 57, 127
2, 326439, Note_off_c, 10, 57, 127
2, 326439, Note_off_c, 1, 61, 127
2, 326439, Note_off_c, 4, 64, 127
2, 326444, Note_on_c, 4, 64, 127
2, 326444, Note_on_c, 7, 55, 127
2, 326859, Note_off_c, 7, 55, 127
2, 326859, Note_off_c, 4, 64, 127
2, 326859, Note_off_c, 10, 45, 127
2, 326864, Note_on_c, 10, 57, 127
2, 326864, Note_on_c, 10, 45, 127
2, 326864, Note_on_c, 5, 53, 127
2, 327277, Note_off_c, 10, 69, 127
2, 327284, Note_off_c, 5, 53, 127
2, 327284, Note_off_c, 10, 57, 127
2, 327288, Note_on_c, 10, 69, 127
2, 327288, Note_on_c, 5, 53, 127
2, 327495, Note_off_c, 5, 53, 127
2, 327495, Note_off_c, 10, 69, 127
2, 327499, Note_on_c, 11, 70, 127
2, 327499, Note_on_c, 7, 55, 127
2, 327706, Note_off_c, 7, 55, 127
2, 327706, Note_off_c, 11, 70, 127
2, 327711, Note_on_c, 10, 69, 127
2, 327711, Note_on_c, 5, 53, 127
2, 328131, Note_off_c, 5, 53, 127
2, 328131, Note_off_c, 10, 69, 127
2, 328135, Note_on_c, 7, 67, 127
2, 328135, Note_on_c, 4, 52, 127
2, 328555, Note_off_c, 4, 52, 127
2, 328555, Note_off_c, 7, 67, 127
2, 328555, Note_off_c, 10, 45, 127
2, 328559, Note_on_c, 5, 65, 127
2, 328559, Note_on_c, 10, 45, 127
2, 328559, Note_on_c, 2, 50, 127
2, 328769, Note_off_c, 2, 50, 127
2, 328773, Note_on_c, 4, 52, 127
2, 328983, Note_off_c, 4, 52, 127
2, 328983, Note_off_c, 5, 65, 127
2, 328987, Note_on_c, 2, 74, 127
2, 328987, Note_on_c, 5, 65, 127
2, 328987, Note_on_c, 5, 53, 127
2, 329197, Note_off_c, 5, 53, 127
2, 329197, Note_off_c, 5, 65, 127
2, 329197, Note_off_c, 2, 74, 127
2, 329202, Note_on_c, 1, 73, 127
2, 329202, Note_on_c, 7, 67, 127
2, 329202, Note_on_c, 4, 52, 127
2, 329412, Note_off_c, 4, 52, 127
2, 329412, Note_off_c, 7, 67, 127
2, 329412, Note_off_c, 1, 73, 127
2, 329416, Note_on_c, 2, 74, 127
2, 329416, Note_on_c, 5, 65, 127
2, 329416, Note_on_c, 2, 50, 127
2, 329840, Note_off_c, 2, 50, 127
2, 329840, Note_off_c, 5, 65, 127
2, 329840, Note_off_c, 2, 74, 127
2, 329844, Note_on_c, 4, 76, 127
2, 329844, Note_on_c, 4, 64, 127
2, 329844, Note_on_c, 1, 49, 127
2, 330268, Note_off_c, 1, 49, 127
2, 330268, Note_off_c, 4, 64, 127
2, 330268, Note_off_c, 4, 76, 127
2, 330268, Note_off_c, 10, 45, 127
2, 330273, Note_on_c, 5, 77, 127
2, 330273, Note_on_c, 2, 74, 127
2, 330273, Note_on_c, 10, 45, 127
2, 330273, Note_on_c, 2, 50, 127
2, 330700, Note_off_c, 2, 50, 127
2, 330700, Note_off_c, 2, 74, 127
2, 330700, Note_off_c, 5, 77, 127
2, 330704, Note_on_c, 5, 77, 127
2, 330704, Note_on_c, 10, 69, 127
2, 330704, Note_on_c, 5, 53, 127
2, 330704, Note_on_c, 10, 57, 127
2, 330915, Note_off_c, 10, 57, 127
2, 330915, Note_off_c, 10, 69, 127
2, 330915, Note_off_c, 5, 77, 127
2, 330919, Note_on_c, 4, 76, 127
2, 330919, Note_on_c, 7, 67, 127
2, 330919, Note_on_c, 12, 59, 127
2, 331127, Note_off_c, 10, 45, 127
2, 331130, Note_off_c, 12, 59, 127
2, 331130, Note_off_c, 7, 67, 127
2, 331130, Note_off_c, 4, 76, 127
2, 331131, Note_off_c, 5, 53, 127
2, 331135, Note_on_c, 5, 77, 127
2, 331135, Note_on_c, 10, 69, 127
2, 331135, Note_on_c, 4, 52, 127
2, 331135, Note_on_c, 1, 61, 127
2, 331562, Note_off_c, 1, 61, 127
2, 331562, Note_off_c, 4, 52, 127
2, 331562, Note_off_c, 10, 69, 127
2, 331562, Note_off_c, 5, 77, 127
2, 331566, Note_on_c, 7, 79, 127
2, 331566, Note_on_c, 12, 71, 127
2, 331566, Note_on_c, 2, 50, 127
2, 331566, Note_on_c, 2, 62, 127
2, 331993, Note_off_c, 2, 62, 127
2, 331993, Note_off_c, 2, 50, 127
2, 331993, Note_off_c, 12, 71, 127
2, 331993, Note_off_c, 7, 79, 127
2, 331997, Note_on_c, 10, 81, 127
2, 331997, Note_on_c, 1, 73, 127
2, 331997, Note_on_c, 10, 45, 127
2, 331997, Note_on_c, 7, 55, 127
2, 332004, Note_on_c, 4, 52, 127
2, 332211, Note_off_c, 10, 81, 127
2, 332216, Note_on_c, 7, 79, 127
2, 332429, Note_off_c, 1, 73, 127
2, 332430, Note_off_c, 7, 79, 127
2, 332434, Note_on_c, 5, 77, 127
2, 332434, Note_on_c, 1, 73, 127
2, 332648, Note_off_c, 1, 73, 127
2, 332648, Note_off_c, 5, 77, 127
2, 332653, Note_on_c, 7, 79, 127
2, 332653, Note_on_c, 12, 71, 127
2, 332867, Note_off_c, 12, 71, 127
2, 332867, Note_off_c, 7, 79, 127
2, 332871, Note_on_c, 10, 81, 127
2, 332871, Note_on_c, 1, 73, 127
2, 333301, Note_off_c, 7, 55, 127
2, 333302, Note_off_c, 1, 73, 127
2, 333302, Note_off_c, 10, 81, 127
2, 333306, Note_on_c, 11, 82, 127
2, 333306, Note_on_c, 2, 74, 127
2, 333306, Note_on_c, 2, 50, 127
2, 333306, Note_on_c, 5, 53, 127
2, 333308, Note_off_c, 4, 52, 127
2, 333737, Note_off_c, 5, 53, 127
2, 333737, Note_off_c, 2, 50, 127
2, 333737, Note_off_c, 2, 74, 127
2, 333737, Note_off_c, 11, 82, 127
2, 333740, Note_off_c, 10, 45, 127
2, 333743, Note_on_c, 1, 73, 127
2, 333743, Note_on_c, 4, 76, 127
2, 333743, Note_on_c, 10, 45, 127
2, 333743, Note_on_c, 7, 67, 127
2, 333743, Note_on_c, 4, 52, 127
2, 333960, Note_off_c, 4, 76, 127
2, 333964, Note_on_c, 2, 74, 127
2, 334181, Note_off_c, 2, 74, 127
2, 334181, Note_off_c, 1, 73, 127
2, 334186, Note_on_c, 10, 69, 127
2, 334186, Note_on_c, 1, 73, 127
2, 334403, Note_off_c, 1, 73, 127
2, 334407, Note_on_c, 2, 74, 127
2, 334624, Note_off_c, 2, 74, 127
2, 334628, Note_on_c, 4, 76, 127
2, 335067, Note_off_c, 4, 76, 127
2, 335067, Note_off_c, 4, 52, 127
2, 335067, Note_off_c, 7, 67, 127
2, 335068, Note_off_c, 10, 69, 127
2, 335072, Note_on_c, 5, 77, 127
2, 335072, Note_on_c, 2, 74, 127
2, 335072, Note_on_c, 5, 65, 127
2, 335072, Note_on_c, 2, 50, 127
2, 335289, Note_off_c, 5, 65, 127
2, 335293, Note_on_c, 4, 64, 127
2, 335510, Note_off_c, 4, 64, 127
2, 335510, Note_off_c, 2, 50, 127
2, 335510, Note_off_c, 2, 74, 127
2, 335510, Note_off_c, 5, 77, 127
2, 335512, Note_off_c, 10, 45, 127
2, 335516, Note_on_c, 2, 74, 127
2, 335516, Note_on_c, 8, 68, 127
2, 335516, Note_on_c, 10, 45, 127
2, 335516, Note_on_c, 2, 62, 127
2, 335516, Note_on_c, 12, 59, 127
2, 335738, Note_off_c, 2, 74, 127
2, 335742, Note_on_c, 0, 72, 127
2, 335964, Note_off_c, 0, 72, 127
2, 335969, Note_on_c, 12, 71, 127
2, 336191, Note_off_c, 12, 71, 127
2, 336196, Note_on_c, 0, 72, 127
2, 336418, Note_off_c, 0, 72, 127
2, 336423, Note_on_c, 2, 74, 127
2, 336649, Note_off_c, 2, 74, 127
2, 336654, Note_on_c, 4, 76, 127
2, 336880, Note_off_c, 4, 76, 127
2, 336881, Note_off_c, 2, 62, 127
2, 336881, Note_off_c, 8, 68, 127
2, 336883, Note_off_c, 10, 45, 127
2, 336886, Note_on_c, 6, 78, 127
2, 336886, Note_on_c, 2, 74, 127
2, 336886, Note_on_c, 10, 57, 127
2, 336886, Note_on_c, 2, 62, 127
2, 337112, Note_off_c, 2, 62, 127
2, 337112, Note_off_c, 6, 78, 127
2, 337117, Note_on_c, 8, 80, 127
2, 337117, Note_on_c, 4, 64, 127
2, 337343, Note_off_c, 4, 64, 127
2, 337343, Note_off_c, 8, 80, 127
2, 337343, Note_off_c, 10, 57, 127
2, 337343, Note_off_c, 2, 74, 127
2, 337344, Note_off_c, 12, 59, 127
2, 337348, Note_on_c, 10, 81, 127
2, 337348, Note_on_c, 2, 74, 127
2, 337348, Note_on_c, 5, 65, 127
2, 337348, Note_on_c, 10, 57, 127
2, 337814, Note_off_c, 5, 65, 127
2, 337814, Note_off_c, 2, 74, 127
2, 337820, Note_on_c, 4, 76, 127
2, 337820, Note_on_c, 1, 73, 127
2, 337820, Note_on_c, 4, 64, 127
2, 337820, Note_on_c, 1, 61, 127
2, 338051, Note_off_c, 1, 61, 127
2, 338051, Note_off_c, 4, 64, 127
2, 338051, Note_off_c, 1, 73, 127
2, 338051, Note_off_c, 4, 76, 127
2, 338057, Note_on_c, 5, 77, 127
2, 338057, Note_on_c, 2, 74, 127
2, 338057, Note_on_c, 2, 62, 127
2, 338057, Note_on_c, 12, 59, 127
2, 338288, Note_off_c, 12, 59, 127
2, 338288, Note_off_c, 2, 62, 127
2, 338288, Note_off_c, 2, 74, 127
2, 338288, Note_off_c, 5, 77, 127
2, 338293, Note_on_c, 4, 76, 127
2, 338293, Note_on_c, 1, 73, 127
2, 338293, Note_on_c, 4, 64, 127
2, 338293, Note_on_c, 1, 61, 127
2, 338812, Note_off_c, 1, 61, 127
2, 338812, Note_off_c, 4, 64, 127
2, 338812, Note_off_c, 1, 73, 127
2, 338812, Note_off_c, 4, 76, 127
2, 338818, Note_on_c, 2, 74, 127
2, 338818, Note_on_c, 12, 71, 127
2, 338818, Note_on_c, 5, 65, 127
2, 338818, Note_on_c, 2, 62, 127
2, 339075, Note_off_c, 12, 71, 127
2, 339081, Note_on_c, 8, 68, 127
2, 339341, Note_off_c, 10, 57, 127
2, 339345, Note_on_c, 10, 57, 127
2, 339368, Note_off_c, 2, 62, 127
2, 339389, Note_off_c, 5, 65, 127
2, 339413, Note_on_c, 4, 64, 127
2, 339482, Note_on_c, 10, 69, 127
2, 339505, Note_off_c, 8, 68, 127
2, 339533, Note_off_c, 2, 74, 127
2, 339550, Note_on_c, 1, 73, 127
2, 339581, Note_off_c, 10, 81, 127
2, 339584, Note_on_c, 4, 76, 127
2, 339619, Note_on_c, 10, 81, 127
2, 342645, Note_off_c, 10, 81, 127
2, 342645, Note_off_c, 4, 76, 127
2, 342645, Note_off_c, 1, 73, 127
2, 342645, Note_off_c, 4, 64, 127
2, 342646, Note_off_c, 10, 69, 127
2, 342646, Note_off_c, 10, 57, 127
2, 347136, End_track
3, 0, Start_track
3, 0, Title_t, "MIDI"
3, 1536, End_track
0, 0, End_of_file
