0, 0, Header, 1, 3, 384
1, 0, Start_track
1, 0, Time_signature, 4, 2, 24, 8
1, 0, Tempo, 500000
1, 141312, End_track
2, 0, Start_track
2, 0, Text_t, "harpsichord: John Sankey"
2, 0, Program_c, 0, 6
2, 0, Pitch_bend_c, 0, 8192
2, 0, Program_c, 1, 6
2, 0, Pitch_bend_c, 1, 7792
2, 0, Program_c, 2, 6
2, 0, Pitch_bend_c, 2, 7876
2, 0, Program_c, 3, 6
2, 0, Pitch_bend_c, 3, 7952
2, 0, Program_c, 4, 6
2, 0, Pitch_bend_c, 4, 7792
2, 0, Program_c, 5, 6
2, 0, Pitch_bend_c, 5, 8112
2, 0, Program_c, 6, 6
2, 0, Pitch_bend_c, 6, 7712
2, 0, Program_c, 7, 6
2, 0, Pitch_bend_c, 7, 8037
2, 0, Program_c, 8, 6
2, 0, Pitch_bend_c, 8, 7872
2, 0, Program_c, 10, 6
2, 0, Pitch_bend_c, 10, 7712
2, 0, Program_c, 11, 6
2, 0, Pitch_bend_c, 11, 8032
2, 0, Program_c, 12, 6
2, 0, Pitch_bend_c, 12, 7872
2, 0, Title_t, "Track 1"
2, 64, Note_on_c, 4, 64, 127
2, 64, Note_on_c, 4, 52, 127
2, 286, Note_on_c, 8, 68, 127
2, 505, Note_off_c, 8, 68, 127
2, 509, Note_on_c, 12, 71, 127
2, 728, Note_off_c, 12, 71, 127
2, 732, Note_on_c, 4, 76, 127
2, 732, Note_on_c, 8, 56, 127
2, 951, Note_off_c, 4, 76, 127
2, 954, Note_on_c, 3, 75, 127
2, 1173, Note_off_c, 3, 75, 127
2, 1177, Note_on_c, 4, 76, 127
2, 1396, Note_off_c, 4, 76, 127
2, 1396, Note_off_c, 8, 56, 127
2, 1400, Note_on_c, 10, 57, 127
2, 1402, Note_on_c, 3, 75, 127
2, 1509, Note_off_c, 3, 75, 127
2, 1511, Note_on_c, 1, 73, 127
2, 1618, Note_off_c, 1, 73, 127
2, 1623, Note_on_c, 12, 71, 127
2, 1842, Note_off_c, 12, 71, 127
2, 1845, Note_on_c, 1, 73, 127
2, 2064, Note_off_c, 1, 73, 127
2, 2068, Note_on_c, 4, 76, 127
2, 2287, Note_off_c, 10, 57, 127
2, 2291, Note_on_c, 8, 56, 127
2, 2510, Note_off_c, 8, 56, 127
2, 2513, Note_on_c, 6, 54, 127
2, 2732, Note_off_c, 6, 54, 127
2, 2732, Note_off_c, 4, 76, 127
2, 2736, Note_on_c, 8, 56, 127
2, 2738, Note_on_c, 1, 73, 127
2, 2845, Note_off_c, 1, 73, 127
2, 2848, Note_on_c, 12, 71, 127
2, 2955, Note_off_c, 12, 71, 127
2, 2959, Note_on_c, 10, 69, 127
2, 3178, Note_off_c, 10, 69, 127
2, 3182, Note_on_c, 12, 71, 127
2, 3401, Note_off_c, 12, 71, 127
2, 3404, Note_on_c, 4, 76, 127
2, 3623, Note_off_c, 8, 56, 127
2, 3627, Note_on_c, 10, 57, 127
2, 3846, Note_off_c, 10, 57, 127
2, 3850, Note_on_c, 8, 56, 127
2, 4066, Note_off_c, 4, 64, 127
2, 4068, Note_off_c, 4, 76, 127
2, 4069, Note_off_c, 8, 56, 127
2, 4072, Note_on_c, 10, 69, 127
2, 4072, Note_on_c, 6, 54, 127
2, 4295, Note_on_c, 12, 71, 127
2, 4514, Note_off_c, 12, 71, 127
2, 4518, Note_on_c, 1, 73, 127
2, 4727, Note_off_c, 4, 52, 127
2, 4737, Note_off_c, 1, 73, 127
2, 4741, Note_on_c, 12, 71, 127
2, 4741, Note_on_c, 3, 51, 127
2, 4959, Note_off_c, 10, 69, 127
2, 4960, Note_off_c, 12, 71, 127
2, 4963, Note_on_c, 1, 73, 127
2, 5182, Note_off_c, 1, 73, 127
2, 5186, Note_on_c, 10, 69, 127
2, 5355, Note_off_c, 3, 51, 127
2, 5405, Note_off_c, 10, 69, 127
2, 5406, Note_off_c, 6, 54, 127
2, 5409, Note_on_c, 8, 68, 127
2, 5409, Note_on_c, 4, 52, 127
2, 5632, Note_on_c, 12, 71, 127
2, 5632, Note_on_c, 8, 56, 127
2, 5851, Note_off_c, 8, 56, 127
2, 5851, Note_off_c, 12, 71, 127
2, 5852, Note_off_c, 8, 68, 127
2, 5854, Note_on_c, 4, 76, 127
2, 5854, Note_on_c, 12, 59, 127
2, 6070, Note_off_c, 4, 52, 127
2, 6073, Note_off_c, 12, 59, 127
2, 6073, Note_off_c, 4, 76, 127
2, 6077, Note_on_c, 4, 64, 127
2, 6079, Note_on_c, 8, 80, 127
2, 6160, Note_on_c, 6, 78, 127
2, 6183, Note_off_c, 8, 80, 127
2, 6242, Note_on_c, 8, 80, 127
2, 6264, Note_off_c, 6, 78, 127
2, 6300, Note_on_c, 3, 63, 127
2, 6303, Note_off_c, 4, 64, 127
2, 6519, Note_off_c, 3, 63, 127
2, 6522, Note_on_c, 4, 64, 127
2, 6741, Note_off_c, 4, 64, 127
2, 6745, Note_on_c, 11, 58, 127
2, 6955, Note_off_c, 8, 80, 127
2, 6968, Note_on_c, 6, 78, 127
2, 7187, Note_off_c, 6, 78, 127
2, 7191, Note_on_c, 4, 76, 127
2, 7191, Note_on_c, 1, 61, 127
2, 7410, Note_off_c, 1, 61, 127
2, 7410, Note_off_c, 4, 76, 127
2, 7413, Note_on_c, 3, 75, 127
2, 7413, Note_on_c, 6, 66, 127
2, 7632, Note_off_c, 3, 75, 127
2, 7636, Note_on_c, 4, 76, 127
2, 7855, Note_off_c, 4, 76, 127
2, 7859, Note_on_c, 1, 73, 127
2, 8074, Note_off_c, 6, 66, 127
2, 8078, Note_off_c, 1, 73, 127
2, 8079, Note_off_c, 11, 58, 127
2, 8081, Note_on_c, 1, 73, 127
2, 8081, Note_on_c, 12, 47, 127
2, 8304, Note_on_c, 3, 51, 127
2, 8324, Note_off_c, 12, 47, 127
2, 8392, Note_on_c, 3, 75, 127
2, 8410, Note_off_c, 1, 73, 127
2, 8499, Note_off_c, 3, 75, 127
2, 8499, Note_on_c, 4, 76, 127
2, 8527, Note_on_c, 6, 54, 127
2, 8547, Note_off_c, 3, 51, 127
2, 8596, Note_on_c, 3, 75, 127
2, 8599, Note_off_c, 4, 76, 127
2, 8687, Note_on_c, 4, 76, 127
2, 8689, Note_off_c, 3, 75, 127
2, 8750, Note_on_c, 12, 59, 127
2, 8770, Note_off_c, 6, 54, 127
2, 8770, Note_on_c, 3, 75, 127
2, 8774, Note_off_c, 4, 76, 127
2, 8847, Note_on_c, 4, 76, 127
2, 8850, Note_off_c, 3, 75, 127
2, 8917, Note_on_c, 3, 75, 127
2, 8920, Note_off_c, 4, 76, 127
2, 8969, Note_off_c, 12, 59, 127
2, 8972, Note_on_c, 11, 58, 127
2, 8984, Note_on_c, 4, 76, 127
2, 8986, Note_off_c, 3, 75, 127
2, 9049, Note_on_c, 3, 75, 127
2, 9051, Note_off_c, 4, 76, 127
2, 9112, Note_on_c, 4, 76, 127
2, 9115, Note_off_c, 3, 75, 127
2, 9171, Note_off_c, 4, 76, 127
2, 9172, Note_on_c, 3, 75, 127
2, 9191, Note_off_c, 11, 58, 127
2, 9195, Note_on_c, 12, 59, 127
2, 9414, Note_off_c, 12, 59, 127
2, 9418, Note_on_c, 4, 52, 127
2, 9640, Note_on_c, 4, 76, 127
2, 9652, Note_off_c, 3, 75, 127
2, 9859, Note_off_c, 4, 76, 127
2, 9863, Note_on_c, 6, 78, 127
2, 9863, Note_on_c, 12, 59, 127
2, 10082, Note_off_c, 12, 59, 127
2, 10082, Note_off_c, 6, 78, 127
2, 10086, Note_on_c, 8, 80, 127
2, 10086, Note_on_c, 4, 64, 127
2, 10305, Note_off_c, 8, 80, 127
2, 10309, Note_on_c, 1, 73, 127
2, 10528, Note_off_c, 1, 73, 127
2, 10531, Note_on_c, 4, 76, 127
2, 10750, Note_off_c, 4, 76, 127
2, 10752, Note_off_c, 4, 52, 127
2, 10754, Note_on_c, 6, 66, 127
2, 10754, Note_on_c, 6, 54, 127
2, 10977, Note_on_c, 11, 70, 127
2, 11189, Note_off_c, 6, 66, 127
2, 11200, Note_on_c, 1, 73, 127
2, 11359, Note_off_c, 11, 70, 127
2, 11419, Note_off_c, 1, 73, 127
2, 11420, Note_off_c, 4, 64, 127
2, 11422, Note_on_c, 6, 78, 127
2, 11422, Note_on_c, 3, 63, 127
2, 11641, Note_off_c, 6, 78, 127
2, 11645, Note_on_c, 4, 76, 127
2, 11864, Note_off_c, 4, 76, 127
2, 11868, Note_on_c, 6, 78, 127
2, 12087, Note_off_c, 6, 78, 127
2, 12090, Note_on_c, 8, 68, 127
2, 12313, Note_on_c, 12, 71, 127
2, 12536, Note_on_c, 3, 75, 127
2, 12695, Note_off_c, 12, 71, 127
2, 12751, Note_off_c, 8, 68, 127
2, 12755, Note_off_c, 3, 75, 127
2, 12759, Note_on_c, 4, 76, 127
2, 12866, Note_off_c, 4, 76, 127
2, 12870, Note_on_c, 3, 75, 127
2, 12977, Note_off_c, 3, 75, 127
2, 12977, Note_off_c, 3, 63, 127
2, 12981, Note_on_c, 4, 76, 127
2, 12981, Note_on_c, 1, 61, 127
2, 13200, Note_off_c, 1, 61, 127
2, 13204, Note_on_c, 12, 59, 127
2, 13422, Note_off_c, 4, 76, 127
2, 13423, Note_off_c, 12, 59, 127
2, 13427, Note_on_c, 6, 66, 127
2, 13427, Note_on_c, 11, 58, 127
2, 13649, Note_on_c, 11, 70, 127
2, 13872, Note_on_c, 1, 73, 127
2, 14031, Note_off_c, 11, 70, 127
2, 14091, Note_off_c, 1, 73, 127
2, 14095, Note_on_c, 4, 76, 127
2, 14314, Note_off_c, 4, 76, 127
2, 14314, Note_off_c, 6, 66, 127
2, 14318, Note_on_c, 3, 75, 127
2, 14529, Note_off_c, 6, 54, 127
2, 14537, Note_off_c, 3, 75, 127
2, 14540, Note_on_c, 4, 76, 127
2, 14540, Note_on_c, 1, 49, 127
2, 14759, Note_off_c, 1, 49, 127
2, 14759, Note_off_c, 4, 76, 127
2, 14763, Note_on_c, 6, 66, 127
2, 14763, Note_on_c, 2, 50, 127
2, 14986, Note_on_c, 11, 70, 127
2, 15208, Note_on_c, 1, 73, 127
2, 15403, Note_off_c, 11, 70, 127
2, 15406, Note_off_c, 6, 66, 127
2, 15427, Note_off_c, 1, 73, 127
2, 15428, Note_off_c, 11, 58, 127
2, 15431, Note_on_c, 12, 71, 127
2, 15431, Note_on_c, 12, 59, 127
2, 15538, Note_off_c, 12, 71, 127
2, 15543, Note_on_c, 1, 73, 127
2, 15650, Note_off_c, 1, 73, 127
2, 15650, Note_off_c, 2, 50, 127
2, 15654, Note_on_c, 2, 74, 127
2, 15654, Note_on_c, 4, 52, 127
2, 15873, Note_off_c, 4, 52, 127
2, 15877, Note_on_c, 6, 54, 127
2, 16096, Note_off_c, 6, 54, 127
2, 16099, Note_on_c, 7, 55, 127
2, 16280, Note_off_c, 2, 74, 127
2, 16318, Note_off_c, 12, 59, 127
2, 16322, Note_on_c, 4, 76, 127
2, 16322, Note_on_c, 1, 61, 127
2, 16541, Note_off_c, 1, 61, 127
2, 16541, Note_off_c, 4, 76, 127
2, 16545, Note_on_c, 2, 74, 127
2, 16545, Note_on_c, 2, 62, 127
2, 16764, Note_off_c, 2, 62, 127
2, 16764, Note_off_c, 2, 74, 127
2, 16768, Note_on_c, 1, 73, 127
2, 16768, Note_on_c, 4, 64, 127
2, 16987, Note_off_c, 1, 73, 127
2, 16990, Note_on_c, 2, 74, 127
2, 17209, Note_off_c, 2, 74, 127
2, 17213, Note_on_c, 12, 71, 127
2, 17432, Note_off_c, 12, 71, 127
2, 17433, Note_off_c, 7, 55, 127
2, 17436, Note_on_c, 12, 71, 127
2, 17436, Note_on_c, 6, 54, 127
2, 17543, Note_off_c, 12, 71, 127
2, 17547, Note_on_c, 11, 70, 127
2, 17654, Note_off_c, 11, 70, 127
2, 17658, Note_on_c, 8, 68, 127
2, 17877, Note_off_c, 8, 68, 127
2, 17881, Note_on_c, 6, 66, 127
2, 18100, Note_off_c, 6, 66, 127
2, 18104, Note_on_c, 7, 79, 127
2, 18297, Note_off_c, 6, 54, 127
2, 18318, Note_off_c, 4, 64, 127
2, 18323, Note_off_c, 7, 79, 127
2, 18327, Note_on_c, 6, 78, 127
2, 18327, Note_on_c, 3, 63, 127
2, 18327, Note_on_c, 8, 56, 127
2, 18546, Note_off_c, 8, 56, 127
2, 18546, Note_off_c, 3, 63, 127
2, 18546, Note_off_c, 6, 78, 127
2, 18549, Note_on_c, 5, 77, 127
2, 18549, Note_on_c, 11, 58, 127
2, 18549, Note_on_c, 1, 61, 127
2, 18768, Note_off_c, 1, 61, 127
2, 18768, Note_off_c, 11, 58, 127
2, 18768, Note_off_c, 5, 77, 127
2, 18772, Note_on_c, 4, 76, 127
2, 18772, Note_on_c, 12, 59, 127
2, 18991, Note_off_c, 4, 76, 127
2, 18995, Note_on_c, 3, 75, 127
2, 19214, Note_off_c, 3, 75, 127
2, 19217, Note_on_c, 2, 74, 127
2, 19217, Note_on_c, 5, 53, 127
2, 19436, Note_off_c, 5, 53, 127
2, 19436, Note_off_c, 2, 74, 127
2, 19440, Note_on_c, 1, 73, 127
2, 19440, Note_on_c, 6, 54, 127
2, 19547, Note_off_c, 1, 73, 127
2, 19552, Note_on_c, 3, 75, 127
2, 19659, Note_off_c, 3, 75, 127
2, 19659, Note_off_c, 12, 59, 127
2, 19663, Note_on_c, 4, 76, 127
2, 19663, Note_on_c, 11, 58, 127
2, 19882, Note_off_c, 11, 58, 127
2, 19882, Note_off_c, 4, 76, 127
2, 19886, Note_on_c, 11, 70, 127
2, 19886, Note_on_c, 4, 64, 127
2, 20101, Note_off_c, 6, 54, 127
2, 20105, Note_off_c, 4, 64, 127
2, 20105, Note_off_c, 11, 70, 127
2, 20108, Note_on_c, 12, 71, 127
2, 20108, Note_on_c, 3, 63, 127
2, 20108, Note_on_c, 12, 47, 127
2, 20331, Note_on_c, 3, 51, 127
2, 20550, Note_off_c, 3, 51, 127
2, 20551, Note_off_c, 12, 47, 127
2, 20554, Note_on_c, 6, 54, 127
2, 20773, Note_off_c, 6, 54, 127
2, 20776, Note_on_c, 12, 59, 127
2, 20999, Note_on_c, 10, 57, 127
2, 21014, Note_off_c, 12, 59, 127
2, 21213, Note_off_c, 10, 57, 127
2, 21222, Note_on_c, 12, 59, 127
2, 21436, Note_off_c, 12, 59, 127
2, 21442, Note_off_c, 3, 63, 127
2, 21445, Note_on_c, 8, 56, 127
2, 21663, Note_off_c, 12, 71, 127
2, 21667, Note_on_c, 3, 75, 127
2, 21886, Note_off_c, 3, 75, 127
2, 21890, Note_on_c, 6, 78, 127
2, 22109, Note_off_c, 6, 78, 127
2, 22113, Note_on_c, 12, 83, 127
2, 22332, Note_off_c, 8, 56, 127
2, 22336, Note_on_c, 10, 81, 127
2, 22336, Note_on_c, 6, 54, 127
2, 22391, Note_off_c, 12, 83, 127
2, 22555, Note_off_c, 6, 54, 127
2, 22555, Note_off_c, 10, 81, 127
2, 22558, Note_on_c, 12, 83, 127
2, 22558, Note_on_c, 8, 56, 127
2, 22777, Note_off_c, 8, 56, 127
2, 22777, Note_off_c, 12, 83, 127
2, 22781, Note_on_c, 1, 73, 127
2, 22781, Note_on_c, 5, 53, 127
2, 23000, Note_off_c, 1, 73, 127
2, 23004, Note_on_c, 5, 77, 127
2, 23004, Note_on_c, 8, 56, 127
2, 23223, Note_off_c, 8, 56, 127
2, 23223, Note_off_c, 5, 77, 127
2, 23226, Note_on_c, 8, 80, 127
2, 23226, Note_on_c, 12, 59, 127
2, 23445, Note_off_c, 12, 59, 127
2, 23445, Note_off_c, 8, 80, 127
2, 23449, Note_on_c, 2, 62, 127
2, 23451, Note_on_c, 12, 83, 127
2, 23554, Note_on_c, 10, 81, 127
2, 23558, Note_off_c, 12, 83, 127
2, 23656, Note_on_c, 12, 83, 127
2, 23661, Note_off_c, 10, 81, 127
2, 23668, Note_off_c, 2, 62, 127
2, 23672, Note_on_c, 12, 59, 127
2, 23891, Note_off_c, 12, 59, 127
2, 23895, Note_on_c, 1, 61, 127
2, 24115, Note_off_c, 5, 53, 127
2, 24117, Note_on_c, 6, 54, 127
2, 24265, Note_off_c, 12, 83, 127
2, 24340, Note_on_c, 8, 80, 127
2, 24559, Note_off_c, 8, 80, 127
2, 24563, Note_on_c, 10, 81, 127
2, 24781, Note_off_c, 6, 54, 127
2, 24782, Note_off_c, 1, 61, 127
2, 24785, Note_on_c, 12, 59, 127
2, 24785, Note_on_c, 2, 50, 127
2, 24963, Note_off_c, 10, 81, 127
2, 25008, Note_on_c, 6, 78, 127
2, 25227, Note_off_c, 6, 78, 127
2, 25231, Note_on_c, 8, 80, 127
2, 25449, Note_off_c, 2, 50, 127
2, 25449, Note_off_c, 12, 59, 127
2, 25454, Note_on_c, 0, 60, 127
2, 25454, Note_on_c, 3, 51, 127
2, 25631, Note_off_c, 8, 80, 127
2, 25676, Note_on_c, 5, 77, 127
2, 25895, Note_off_c, 5, 77, 127
2, 25899, Note_on_c, 6, 78, 127
2, 26118, Note_off_c, 6, 78, 127
2, 26118, Note_off_c, 3, 51, 127
2, 26118, Note_off_c, 0, 60, 127
2, 26122, Note_on_c, 5, 77, 127
2, 26122, Note_on_c, 1, 61, 127
2, 26122, Note_on_c, 1, 49, 127
2, 26229, Note_off_c, 5, 77, 127
2, 26233, Note_on_c, 6, 78, 127
2, 26340, Note_off_c, 6, 78, 127
2, 26344, Note_on_c, 8, 80, 127
2, 26563, Note_off_c, 8, 80, 127
2, 26567, Note_on_c, 1, 73, 127
2, 26786, Note_off_c, 1, 73, 127
2, 26786, Note_off_c, 1, 49, 127
2, 26786, Note_off_c, 1, 61, 127
2, 26790, Note_on_c, 2, 74, 127
2, 26790, Note_on_c, 12, 47, 127
2, 27013, Note_on_c, 12, 71, 127
2, 27013, Note_on_c, 2, 50, 127
2, 27232, Note_off_c, 2, 50, 127
2, 27232, Note_off_c, 12, 71, 127
2, 27235, Note_on_c, 8, 68, 127
2, 27235, Note_on_c, 5, 53, 127
2, 27454, Note_off_c, 5, 53, 127
2, 27454, Note_off_c, 8, 68, 127
2, 27458, Note_on_c, 5, 65, 127
2, 27458, Note_on_c, 8, 56, 127
2, 27677, Note_off_c, 8, 56, 127
2, 27681, Note_on_c, 8, 68, 127
2, 27681, Note_on_c, 12, 59, 127
2, 27840, Note_off_c, 5, 65, 127
2, 27900, Note_off_c, 12, 59, 127
2, 27900, Note_off_c, 8, 68, 127
2, 27904, Note_on_c, 6, 66, 127
2, 27904, Note_on_c, 10, 57, 127
2, 28123, Note_off_c, 10, 57, 127
2, 28124, Note_off_c, 12, 47, 127
2, 28126, Note_on_c, 8, 68, 127
2, 28126, Note_on_c, 12, 59, 127
2, 28182, Note_off_c, 6, 66, 127
2, 28345, Note_off_c, 12, 59, 127
2, 28349, Note_on_c, 12, 71, 127
2, 28349, Note_on_c, 8, 56, 127
2, 28508, Note_off_c, 8, 68, 127
2, 28568, Note_off_c, 8, 56, 127
2, 28568, Note_off_c, 12, 71, 127
2, 28572, Note_on_c, 10, 69, 127
2, 28572, Note_on_c, 6, 54, 127
2, 28791, Note_off_c, 6, 54, 127
2, 28794, Note_on_c, 12, 71, 127
2, 28794, Note_on_c, 8, 56, 127
2, 28850, Note_off_c, 10, 69, 127
2, 28901, Note_off_c, 8, 56, 127
2, 28906, Note_on_c, 10, 57, 127
2, 29013, Note_off_c, 10, 57, 127
2, 29017, Note_off_c, 2, 74, 127
2, 29017, Note_on_c, 2, 74, 127
2, 29017, Note_on_c, 12, 59, 127
2, 29236, Note_off_c, 12, 59, 127
2, 29236, Note_off_c, 2, 74, 127
2, 29240, Note_on_c, 1, 73, 127
2, 29240, Note_on_c, 5, 53, 127
2, 29459, Note_off_c, 5, 53, 127
2, 29459, Note_off_c, 1, 73, 127
2, 29463, Note_on_c, 1, 73, 127
2, 29463, Note_on_c, 6, 54, 127
2, 29681, Note_off_c, 12, 71, 127
2, 29685, Note_on_c, 10, 69, 127
2, 29904, Note_off_c, 10, 69, 127
2, 29908, Note_on_c, 8, 68, 127
2, 30127, Note_off_c, 8, 68, 127
2, 30127, Note_off_c, 6, 54, 127
2, 30131, Note_on_c, 6, 66, 127
2, 30131, Note_on_c, 10, 45, 127
2, 30350, Note_off_c, 1, 73, 127
2, 30353, Note_on_c, 12, 71, 127
2, 30572, Note_off_c, 12, 71, 127
2, 30576, Note_on_c, 10, 69, 127
2, 30795, Note_off_c, 10, 69, 127
2, 30795, Note_off_c, 10, 45, 127
2, 30799, Note_on_c, 8, 68, 127
2, 30799, Note_on_c, 12, 47, 127
2, 31018, Note_off_c, 8, 68, 127
2, 31022, Note_on_c, 10, 69, 127
2, 31241, Note_off_c, 10, 69, 127
2, 31244, Note_on_c, 12, 71, 127
2, 31463, Note_off_c, 12, 47, 127
2, 31465, Note_off_c, 6, 66, 127
2, 31467, Note_on_c, 5, 65, 127
2, 31467, Note_on_c, 1, 49, 127
2, 31679, Note_off_c, 12, 71, 127
2, 31690, Note_on_c, 10, 69, 127
2, 31909, Note_off_c, 10, 69, 127
2, 31912, Note_on_c, 8, 68, 127
2, 32128, Note_off_c, 5, 65, 127
2, 32131, Note_off_c, 8, 68, 127
2, 32131, Note_off_c, 1, 49, 127
2, 32135, Note_on_c, 6, 66, 127
2, 32135, Note_on_c, 6, 42, 127
2, 32137, Note_on_c, 10, 69, 127
2, 32236, Note_on_c, 8, 68, 127
2, 32244, Note_off_c, 10, 69, 127
2, 32335, Note_on_c, 10, 69, 127
2, 32343, Note_off_c, 8, 68, 127
2, 32354, Note_off_c, 6, 42, 127
2, 32358, Note_on_c, 10, 45, 127
2, 32577, Note_off_c, 10, 45, 127
2, 32581, Note_on_c, 1, 49, 127
2, 32800, Note_off_c, 1, 49, 127
2, 32803, Note_on_c, 6, 54, 127
2, 33022, Note_off_c, 6, 54, 127
2, 33022, Note_off_c, 10, 69, 127
2, 33022, Note_off_c, 6, 66, 127
2, 33026, Note_on_c, 12, 71, 127
2, 33026, Note_on_c, 4, 52, 127
2, 33245, Note_off_c, 4, 52, 127
2, 33245, Note_off_c, 12, 71, 127
2, 33249, Note_on_c, 4, 64, 127
2, 33249, Note_on_c, 8, 68, 127
2, 33249, Note_on_c, 6, 54, 127
2, 33468, Note_off_c, 6, 54, 127
2, 33468, Note_off_c, 8, 68, 127
2, 33468, Note_off_c, 4, 64, 127
2, 33472, Note_on_c, 10, 69, 127
2, 33472, Note_on_c, 3, 63, 127
2, 33472, Note_on_c, 12, 47, 127
2, 33579, Note_off_c, 10, 69, 127
2, 33583, Note_on_c, 8, 68, 127
2, 33690, Note_off_c, 8, 68, 127
2, 33691, Note_off_c, 12, 47, 127
2, 33694, Note_on_c, 10, 69, 127
2, 33694, Note_on_c, 3, 51, 127
2, 33801, Note_off_c, 10, 69, 127
2, 33806, Note_on_c, 8, 68, 127
2, 33913, Note_off_c, 8, 68, 127
2, 33913, Note_off_c, 3, 51, 127
2, 33917, Note_on_c, 10, 69, 127
2, 33917, Note_on_c, 6, 54, 127
2, 34024, Note_off_c, 10, 69, 127
2, 34028, Note_on_c, 8, 68, 127
2, 34133, Note_off_c, 3, 63, 127
2, 34135, Note_off_c, 8, 68, 127
2, 34136, Note_off_c, 6, 54, 127
2, 34140, Note_on_c, 10, 69, 127
2, 34140, Note_on_c, 12, 59, 127
2, 34359, Note_off_c, 12, 59, 127
2, 34359, Note_off_c, 10, 69, 127
2, 34362, Note_on_c, 12, 71, 127
2, 34362, Note_on_c, 10, 57, 127
2, 34469, Note_off_c, 12, 71, 127
2, 34474, Note_on_c, 10, 69, 127
2, 34581, Note_off_c, 10, 69, 127
2, 34581, Note_off_c, 10, 57, 127
2, 34585, Note_on_c, 8, 68, 127
2, 34585, Note_on_c, 12, 59, 127
2, 34692, Note_off_c, 8, 68, 127
2, 34696, Note_on_c, 6, 66, 127
2, 34803, Note_off_c, 6, 66, 127
2, 34804, Note_off_c, 12, 59, 127
2, 34808, Note_on_c, 8, 68, 127
2, 34808, Note_on_c, 4, 52, 127
2, 34915, Note_off_c, 8, 68, 127
2, 34919, Note_on_c, 6, 66, 127
2, 35026, Note_off_c, 6, 66, 127
2, 35027, Note_off_c, 4, 52, 127
2, 35031, Note_on_c, 4, 64, 127
2, 35031, Note_on_c, 8, 56, 127
2, 35138, Note_off_c, 4, 64, 127
2, 35142, Note_on_c, 6, 66, 127
2, 35249, Note_off_c, 6, 66, 127
2, 35250, Note_off_c, 8, 56, 127
2, 35253, Note_on_c, 8, 68, 127
2, 35253, Note_on_c, 12, 59, 127
2, 35360, Note_off_c, 8, 68, 127
2, 35365, Note_on_c, 10, 69, 127
2, 35472, Note_off_c, 10, 69, 127
2, 35472, Note_off_c, 12, 59, 127
2, 35476, Note_on_c, 12, 71, 127
2, 35476, Note_on_c, 4, 64, 127
2, 35583, Note_off_c, 12, 71, 127
2, 35587, Note_on_c, 10, 69, 127
2, 35694, Note_off_c, 10, 69, 127
2, 35695, Note_off_c, 4, 64, 127
2, 35699, Note_on_c, 8, 68, 127
2, 35699, Note_on_c, 2, 62, 127
2, 35806, Note_off_c, 8, 68, 127
2, 35810, Note_on_c, 10, 69, 127
2, 35917, Note_off_c, 10, 69, 127
2, 35918, Note_off_c, 2, 62, 127
2, 35921, Note_on_c, 12, 71, 127
2, 35921, Note_on_c, 1, 61, 127
2, 36028, Note_off_c, 12, 71, 127
2, 36033, Note_on_c, 1, 73, 127
2, 36140, Note_off_c, 1, 73, 127
2, 36140, Note_off_c, 1, 61, 127
2, 36144, Note_on_c, 2, 74, 127
2, 36144, Note_on_c, 12, 59, 127
2, 36251, Note_off_c, 2, 74, 127
2, 36256, Note_on_c, 1, 73, 127
2, 36363, Note_off_c, 1, 73, 127
2, 36367, Note_on_c, 12, 71, 127
2, 36474, Note_off_c, 12, 71, 127
2, 36478, Note_on_c, 10, 69, 127
2, 36585, Note_off_c, 10, 69, 127
2, 36585, Note_off_c, 12, 59, 127
2, 36590, Note_on_c, 8, 68, 127
2, 36590, Note_on_c, 10, 57, 127
2, 36697, Note_off_c, 8, 68, 127
2, 36701, Note_on_c, 6, 66, 127
2, 36808, Note_off_c, 6, 66, 127
2, 36809, Note_off_c, 10, 57, 127
2, 36812, Note_on_c, 4, 64, 127
2, 36812, Note_on_c, 8, 56, 127
2, 36924, Note_on_c, 2, 62, 127
2, 37031, Note_off_c, 2, 62, 127
2, 37035, Note_on_c, 1, 61, 127
2, 37142, Note_off_c, 1, 61, 127
2, 37142, Note_off_c, 8, 56, 127
2, 37146, Note_on_c, 12, 59, 127
2, 37253, Note_off_c, 12, 59, 127
2, 37258, Note_on_c, 10, 57, 127
2, 37365, Note_off_c, 10, 57, 127
2, 37369, Note_on_c, 8, 56, 127
2, 37473, Note_off_c, 4, 64, 127
2, 37476, Note_off_c, 8, 56, 127
2, 37480, Note_on_c, 10, 69, 127
2, 37480, Note_on_c, 10, 57, 127
2, 37703, Note_on_c, 1, 73, 127
2, 37922, Note_off_c, 1, 73, 127
2, 37926, Note_on_c, 4, 76, 127
2, 38145, Note_off_c, 4, 76, 127
2, 38149, Note_on_c, 10, 81, 127
2, 38149, Note_on_c, 1, 61, 127
2, 38368, Note_off_c, 10, 81, 127
2, 38371, Note_on_c, 8, 80, 127
2, 38590, Note_off_c, 8, 80, 127
2, 38594, Note_on_c, 10, 81, 127
2, 38813, Note_off_c, 10, 81, 127
2, 38813, Note_off_c, 1, 61, 127
2, 38817, Note_on_c, 8, 80, 127
2, 38817, Note_on_c, 2, 62, 127
2, 38924, Note_off_c, 8, 80, 127
2, 38928, Note_on_c, 6, 78, 127
2, 39035, Note_off_c, 6, 78, 127
2, 39040, Note_on_c, 4, 76, 127
2, 39259, Note_off_c, 4, 76, 127
2, 39262, Note_on_c, 6, 78, 127
2, 39481, Note_off_c, 6, 78, 127
2, 39485, Note_on_c, 10, 81, 127
2, 39704, Note_off_c, 2, 62, 127
2, 39708, Note_on_c, 1, 61, 127
2, 39927, Note_off_c, 1, 61, 127
2, 39930, Note_on_c, 12, 59, 127
2, 40149, Note_off_c, 12, 59, 127
2, 40149, Note_off_c, 10, 81, 127
2, 40153, Note_on_c, 6, 78, 127
2, 40153, Note_on_c, 1, 61, 127
2, 40260, Note_off_c, 6, 78, 127
2, 40264, Note_on_c, 4, 76, 127
2, 40371, Note_off_c, 4, 76, 127
2, 40376, Note_on_c, 2, 74, 127
2, 40595, Note_off_c, 2, 74, 127
2, 40599, Note_on_c, 4, 76, 127
2, 40818, Note_off_c, 4, 76, 127
2, 40821, Note_on_c, 10, 81, 127
2, 41040, Note_off_c, 1, 61, 127
2, 41044, Note_on_c, 2, 62, 127
2, 41263, Note_off_c, 2, 62, 127
2, 41267, Note_on_c, 1, 61, 127
2, 41482, Note_off_c, 10, 69, 127
2, 41485, Note_off_c, 10, 81, 127
2, 41486, Note_off_c, 1, 61, 127
2, 41489, Note_on_c, 2, 74, 127
2, 41489, Note_on_c, 12, 59, 127
2, 41712, Note_on_c, 4, 76, 127
2, 41924, Note_off_c, 2, 74, 127
2, 41931, Note_off_c, 4, 76, 127
2, 41935, Note_on_c, 6, 78, 127
2, 42150, Note_off_c, 10, 57, 127
2, 42154, Note_off_c, 6, 78, 127
2, 42158, Note_on_c, 4, 76, 127
2, 42158, Note_on_c, 8, 56, 127
2, 42377, Note_off_c, 4, 76, 127
2, 42380, Note_on_c, 6, 78, 127
2, 42599, Note_off_c, 6, 78, 127
2, 42603, Note_on_c, 2, 74, 127
2, 42767, Note_off_c, 8, 56, 127
2, 42822, Note_off_c, 2, 74, 127
2, 42823, Note_off_c, 12, 59, 127
2, 42826, Note_on_c, 1, 73, 127
2, 42826, Note_on_c, 10, 45, 127
2, 43045, Note_off_c, 10, 45, 127
2, 43045, Note_off_c, 1, 73, 127
2, 43048, Note_on_c, 10, 69, 127
2, 43048, Note_on_c, 1, 49, 127
2, 43267, Note_off_c, 1, 49, 127
2, 43267, Note_off_c, 10, 69, 127
2, 43271, Note_on_c, 12, 71, 127
2, 43271, Note_on_c, 4, 52, 127
2, 43490, Note_off_c, 4, 52, 127
2, 43490, Note_off_c, 12, 71, 127
2, 43494, Note_on_c, 10, 57, 127
2, 43496, Note_on_c, 1, 73, 127
2, 43595, Note_on_c, 12, 71, 127
2, 43603, Note_off_c, 1, 73, 127
2, 43694, Note_on_c, 1, 73, 127
2, 43702, Note_off_c, 12, 71, 127
2, 43713, Note_off_c, 10, 57, 127
2, 43717, Note_on_c, 8, 56, 127
2, 43936, Note_off_c, 8, 56, 127
2, 43939, Note_on_c, 10, 57, 127
2, 44158, Note_off_c, 10, 57, 127
2, 44162, Note_on_c, 3, 51, 127
2, 44369, Note_off_c, 1, 73, 127
2, 44385, Note_on_c, 12, 71, 127
2, 44604, Note_off_c, 12, 71, 127
2, 44608, Note_on_c, 10, 69, 127
2, 44608, Note_on_c, 6, 54, 127
2, 44827, Note_off_c, 6, 54, 127
2, 44827, Note_off_c, 10, 69, 127
2, 44830, Note_on_c, 8, 68, 127
2, 44830, Note_on_c, 12, 59, 127
2, 45049, Note_off_c, 8, 68, 127
2, 45053, Note_on_c, 10, 69, 127
2, 45272, Note_off_c, 10, 69, 127
2, 45276, Note_on_c, 6, 66, 127
2, 45494, Note_off_c, 12, 59, 127
2, 45495, Note_off_c, 6, 66, 127
2, 45496, Note_off_c, 3, 51, 127
2, 45498, Note_on_c, 8, 68, 127
2, 45498, Note_on_c, 4, 40, 127
2, 45717, Note_off_c, 4, 40, 127
2, 45717, Note_off_c, 8, 68, 127
2, 45721, Note_on_c, 4, 64, 127
2, 45721, Note_on_c, 8, 44, 127
2, 45940, Note_off_c, 8, 44, 127
2, 45940, Note_off_c, 4, 64, 127
2, 45944, Note_on_c, 6, 66, 127
2, 45944, Note_on_c, 12, 47, 127
2, 46163, Note_off_c, 12, 47, 127
2, 46163, Note_off_c, 6, 66, 127
2, 46167, Note_on_c, 8, 68, 127
2, 46167, Note_on_c, 4, 52, 127
2, 46274, Note_off_c, 8, 68, 127
2, 46288, Note_on_c, 6, 66, 127
2, 46386, Note_off_c, 4, 52, 127
2, 46389, Note_on_c, 8, 68, 127
2, 46389, Note_on_c, 3, 51, 127
2, 46395, Note_off_c, 6, 66, 127
2, 46490, Note_on_c, 6, 66, 127
2, 46496, Note_off_c, 8, 68, 127
2, 46591, Note_on_c, 8, 68, 127
2, 46597, Note_off_c, 6, 66, 127
2, 46608, Note_off_c, 3, 51, 127
2, 46612, Note_on_c, 4, 52, 127
2, 46831, Note_off_c, 4, 52, 127
2, 46835, Note_on_c, 10, 45, 127
2, 47055, Note_off_c, 8, 68, 127
2, 47057, Note_on_c, 10, 69, 127
2, 47276, Note_off_c, 10, 69, 127
2, 47280, Note_on_c, 12, 71, 127
2, 47280, Note_on_c, 4, 52, 127
2, 47499, Note_off_c, 4, 52, 127
2, 47499, Note_off_c, 12, 71, 127
2, 47503, Note_on_c, 1, 73, 127
2, 47503, Note_on_c, 10, 57, 127
2, 47726, Note_on_c, 6, 66, 127
2, 47938, Note_off_c, 1, 73, 127
2, 47948, Note_on_c, 10, 69, 127
2, 48167, Note_off_c, 10, 69, 127
2, 48169, Note_off_c, 6, 66, 127
2, 48169, Note_off_c, 10, 45, 127
2, 48171, Note_on_c, 12, 59, 127
2, 48171, Note_on_c, 12, 47, 127
2, 48394, Note_on_c, 3, 63, 127
2, 48613, Note_off_c, 3, 63, 127
2, 48616, Note_on_c, 6, 66, 127
2, 48835, Note_off_c, 6, 66, 127
2, 48837, Note_off_c, 10, 57, 127
2, 48839, Note_on_c, 12, 71, 127
2, 48839, Note_on_c, 8, 56, 127
2, 49058, Note_off_c, 12, 71, 127
2, 49062, Note_on_c, 10, 69, 127
2, 49281, Note_off_c, 10, 69, 127
2, 49285, Note_on_c, 12, 71, 127
2, 49504, Note_off_c, 12, 71, 127
2, 49505, Note_off_c, 12, 59, 127
2, 49507, Note_on_c, 1, 61, 127
2, 49730, Note_on_c, 4, 64, 127
2, 49953, Note_on_c, 8, 68, 127
2, 50112, Note_off_c, 4, 64, 127
2, 50172, Note_off_c, 8, 68, 127
2, 50176, Note_on_c, 10, 69, 127
2, 50283, Note_off_c, 10, 69, 127
2, 50287, Note_on_c, 8, 68, 127
2, 50394, Note_off_c, 8, 68, 127
2, 50394, Note_off_c, 8, 56, 127
2, 50398, Note_on_c, 10, 69, 127
2, 50398, Note_on_c, 6, 54, 127
2, 50617, Note_off_c, 6, 54, 127
2, 50621, Note_on_c, 4, 52, 127
2, 50839, Note_off_c, 10, 69, 127
2, 50840, Note_off_c, 4, 52, 127
2, 50841, Note_off_c, 1, 61, 127
2, 50844, Note_on_c, 12, 59, 127
2, 50844, Note_on_c, 3, 51, 127
2, 51066, Note_on_c, 3, 63, 127
2, 51289, Note_on_c, 6, 66, 127
2, 51448, Note_off_c, 3, 63, 127
2, 51508, Note_off_c, 6, 66, 127
2, 51512, Note_on_c, 10, 69, 127
2, 51731, Note_off_c, 10, 69, 127
2, 51735, Note_on_c, 8, 68, 127
2, 51946, Note_off_c, 12, 47, 127
2, 51954, Note_off_c, 8, 68, 127
2, 51957, Note_on_c, 10, 69, 127
2, 51957, Note_on_c, 6, 42, 127
2, 52176, Note_off_c, 6, 42, 127
2, 52176, Note_off_c, 10, 69, 127
2, 52178, Note_off_c, 12, 59, 127
2, 52180, Note_on_c, 12, 59, 127
2, 52180, Note_on_c, 7, 43, 127
2, 52403, Note_on_c, 3, 63, 127
2, 52622, Note_off_c, 3, 63, 127
2, 52625, Note_on_c, 6, 66, 127
2, 52841, Note_off_c, 12, 59, 127
2, 52844, Note_off_c, 6, 66, 127
2, 52845, Note_off_c, 3, 51, 127
2, 52848, Note_on_c, 4, 64, 127
2, 52848, Note_on_c, 4, 52, 127
2, 52955, Note_off_c, 4, 64, 127
2, 52960, Note_on_c, 6, 66, 127
2, 53067, Note_off_c, 6, 66, 127
2, 53067, Note_off_c, 7, 43, 127
2, 53071, Note_on_c, 7, 67, 127
2, 53071, Note_on_c, 10, 45, 127
2, 53290, Note_off_c, 10, 45, 127
2, 53294, Note_on_c, 12, 47, 127
2, 53513, Note_off_c, 12, 47, 127
2, 53516, Note_on_c, 0, 48, 127
2, 53680, Note_off_c, 7, 67, 127
2, 53735, Note_off_c, 4, 52, 127
2, 53739, Note_on_c, 10, 69, 127
2, 53739, Note_on_c, 6, 54, 127
2, 53958, Note_off_c, 6, 54, 127
2, 53958, Note_off_c, 10, 69, 127
2, 53962, Note_on_c, 7, 67, 127
2, 53962, Note_on_c, 7, 55, 127
2, 54181, Note_off_c, 7, 55, 127
2, 54181, Note_off_c, 7, 67, 127
2, 54184, Note_on_c, 6, 66, 127
2, 54184, Note_on_c, 10, 57, 127
2, 54403, Note_off_c, 6, 66, 127
2, 54407, Note_on_c, 7, 67, 127
2, 54626, Note_off_c, 7, 67, 127
2, 54630, Note_on_c, 4, 64, 127
2, 54848, Note_off_c, 10, 57, 127
2, 54849, Note_off_c, 4, 64, 127
2, 54850, Note_off_c, 0, 48, 127
2, 54853, Note_on_c, 3, 63, 127
2, 54853, Note_on_c, 10, 57, 127
2, 54853, Note_on_c, 12, 47, 127
2, 55072, Note_off_c, 3, 63, 127
2, 55075, Note_on_c, 1, 61, 127
2, 55294, Note_off_c, 1, 61, 127
2, 55298, Note_on_c, 12, 59, 127
2, 55517, Note_off_c, 12, 59, 127
2, 55521, Note_on_c, 0, 72, 127
2, 55688, Note_off_c, 10, 57, 127
2, 55740, Note_off_c, 0, 72, 127
2, 55740, Note_off_c, 12, 47, 127
2, 55744, Note_on_c, 12, 71, 127
2, 55744, Note_on_c, 8, 56, 127
2, 55744, Note_on_c, 1, 49, 127
2, 55963, Note_off_c, 1, 49, 127
2, 55963, Note_off_c, 8, 56, 127
2, 55963, Note_off_c, 12, 71, 127
2, 55966, Note_on_c, 11, 70, 127
2, 55966, Note_on_c, 6, 54, 127
2, 55966, Note_on_c, 3, 51, 127
2, 56185, Note_off_c, 3, 51, 127
2, 56185, Note_off_c, 6, 54, 127
2, 56185, Note_off_c, 11, 70, 127
2, 56189, Note_on_c, 10, 69, 127
2, 56189, Note_on_c, 4, 52, 127
2, 56408, Note_off_c, 10, 69, 127
2, 56412, Note_on_c, 8, 68, 127
2, 56631, Note_off_c, 8, 68, 127
2, 56634, Note_on_c, 7, 67, 127
2, 56634, Note_on_c, 11, 46, 127
2, 56853, Note_off_c, 11, 46, 127
2, 56853, Note_off_c, 7, 67, 127
2, 56857, Note_on_c, 6, 66, 127
2, 56857, Note_on_c, 12, 47, 127
2, 56964, Note_off_c, 6, 66, 127
2, 56968, Note_on_c, 8, 68, 127
2, 57075, Note_off_c, 8, 68, 127
2, 57076, Note_off_c, 4, 52, 127
2, 57080, Note_on_c, 10, 69, 127
2, 57080, Note_on_c, 3, 51, 127
2, 57299, Note_off_c, 3, 51, 127
2, 57299, Note_off_c, 10, 69, 127
2, 57303, Note_on_c, 3, 63, 127
2, 57303, Note_on_c, 10, 57, 127
2, 57518, Note_off_c, 12, 47, 127
2, 57522, Note_off_c, 10, 57, 127
2, 57522, Note_off_c, 3, 63, 127
2, 57525, Note_on_c, 4, 64, 127
2, 57525, Note_on_c, 8, 56, 127
2, 57525, Note_on_c, 1, 49, 127
2, 57612, Note_on_c, 3, 63, 127
2, 57634, Note_off_c, 4, 64, 127
2, 57701, Note_on_c, 4, 64, 127
2, 57723, Note_off_c, 3, 63, 127
2, 57756, Note_off_c, 8, 56, 127
2, 57760, Note_on_c, 4, 52, 127
2, 57989, Note_off_c, 4, 52, 127
2, 57993, Note_on_c, 8, 56, 127
2, 58222, Note_off_c, 8, 56, 127
2, 58226, Note_on_c, 10, 57, 127
2, 58455, Note_off_c, 10, 57, 127
2, 58460, Note_on_c, 8, 56, 127
2, 58689, Note_off_c, 8, 56, 127
2, 58693, Note_on_c, 10, 57, 127
2, 58922, Note_off_c, 10, 57, 127
2, 58923, Note_off_c, 1, 49, 127
2, 58926, Note_on_c, 4, 52, 127
2, 58926, Note_on_c, 8, 44, 127
2, 59159, Note_on_c, 8, 56, 127
2, 59388, Note_off_c, 8, 56, 127
2, 59392, Note_on_c, 12, 59, 127
2, 59621, Note_off_c, 12, 59, 127
2, 59625, Note_on_c, 2, 62, 127
2, 59854, Note_off_c, 2, 62, 127
2, 59859, Note_on_c, 1, 61, 127
2, 60088, Note_off_c, 1, 61, 127
2, 60092, Note_on_c, 2, 62, 127
2, 60194, Note_off_c, 4, 64, 127
2, 60321, Note_off_c, 2, 62, 127
2, 60321, Note_off_c, 8, 44, 127
2, 60325, Note_on_c, 4, 64, 127
2, 60325, Note_on_c, 1, 61, 127
2, 60325, Note_on_c, 10, 45, 127
2, 60445, Note_off_c, 1, 61, 127
2, 60448, Note_on_c, 12, 59, 127
2, 60575, Note_off_c, 12, 59, 127
2, 60579, Note_on_c, 1, 61, 127
2, 60579, Note_on_c, 1, 49, 127
2, 60587, Note_off_c, 4, 52, 127
2, 60845, Note_off_c, 1, 49, 127
2, 60849, Note_on_c, 4, 52, 127
2, 61123, Note_off_c, 4, 52, 127
2, 61129, Note_on_c, 10, 57, 127
2, 61431, Note_off_c, 10, 57, 127
2, 61437, Note_on_c, 8, 56, 127
2, 61814, Note_off_c, 8, 56, 127
2, 61814, Note_off_c, 1, 61, 127
2, 61814, Note_off_c, 4, 64, 127
2, 61820, Note_on_c, 0, 60, 127
2, 61820, Note_on_c, 3, 63, 127
2, 61820, Note_on_c, 10, 57, 127
2, 62324, Note_off_c, 10, 57, 127
2, 62324, Note_off_c, 3, 63, 127
2, 62324, Note_off_c, 0, 60, 127
2, 62327, Note_off_c, 10, 45, 127
2, 62331, Note_on_c, 4, 40, 127
2, 62331, Note_on_c, 12, 59, 127
2, 62331, Note_on_c, 4, 64, 127
2, 62331, Note_on_c, 8, 56, 127
2, 64754, Note_off_c, 8, 56, 127
2, 64754, Note_off_c, 4, 64, 127
2, 64754, Note_off_c, 12, 59, 127
2, 64754, Note_off_c, 4, 40, 127
2, 65668, Note_on_c, 4, 64, 127
2, 65918, Note_off_c, 4, 64, 127
2, 65973, Note_on_c, 6, 66, 127
2, 66115, Note_off_c, 6, 66, 127
2, 66124, Note_on_c, 4, 64, 127
2, 66266, Note_off_c, 4, 64, 127
2, 66276, Note_on_c, 6, 66, 127
2, 66670, Note_off_c, 6, 66, 127
2, 66732, Note_on_c, 12, 59, 127
2, 66874, Note_off_c, 12, 59, 127
2, 66883, Note_on_c, 1, 61, 127
2, 67025, Note_off_c, 1, 61, 127
2, 67034, Note_on_c, 3, 63, 127
2, 67176, Note_off_c, 3, 63, 127
2, 67186, Note_on_c, 4, 64, 127
2, 67328, Note_off_c, 4, 64, 127
2, 67337, Note_on_c, 3, 63, 127
2, 67479, Note_off_c, 3, 63, 127
2, 67489, Note_on_c, 4, 64, 127
2, 67631, Note_off_c, 4, 64, 127
2, 67640, Note_on_c, 6, 66, 127
2, 67782, Note_off_c, 6, 66, 127
2, 67791, Note_on_c, 8, 68, 127
2, 67933, Note_off_c, 8, 68, 127
2, 67943, Note_on_c, 10, 69, 127
2, 68085, Note_off_c, 10, 69, 127
2, 68094, Note_on_c, 12, 71, 127
2, 68245, Note_on_c, 8, 68, 127
2, 68344, Note_off_c, 12, 71, 127
2, 68387, Note_off_c, 8, 68, 127
2, 68399, Note_on_c, 4, 64, 127
2, 68399, Note_on_c, 1, 73, 127
2, 68541, Note_off_c, 1, 73, 127
2, 68541, Note_off_c, 4, 64, 127
2, 68550, Note_on_c, 3, 63, 127
2, 68550, Note_on_c, 12, 71, 127
2, 68692, Note_off_c, 12, 71, 127
2, 68692, Note_off_c, 3, 63, 127
2, 68701, Note_on_c, 4, 64, 127
2, 68701, Note_on_c, 1, 73, 127
2, 68843, Note_off_c, 4, 64, 127
2, 68853, Note_on_c, 6, 66, 127
2, 68995, Note_off_c, 6, 66, 127
2, 69004, Note_on_c, 4, 64, 127
2, 69095, Note_off_c, 1, 73, 127
2, 69146, Note_off_c, 4, 64, 127
2, 69155, Note_on_c, 3, 63, 127
2, 69155, Note_on_c, 6, 66, 127
2, 69297, Note_off_c, 6, 66, 127
2, 69297, Note_off_c, 3, 63, 127
2, 69307, Note_on_c, 4, 64, 127
2, 69307, Note_on_c, 8, 68, 127
2, 69449, Note_off_c, 8, 68, 127
2, 69449, Note_off_c, 4, 64, 127
2, 69458, Note_on_c, 6, 66, 127
2, 69458, Note_on_c, 11, 70, 127
2, 69600, Note_off_c, 11, 70, 127
2, 69600, Note_off_c, 6, 66, 127
2, 69610, Note_on_c, 3, 63, 127
2, 69610, Note_on_c, 12, 71, 127
2, 69752, Note_off_c, 12, 71, 127
2, 69752, Note_off_c, 3, 63, 127
2, 69761, Note_on_c, 1, 61, 127
2, 69761, Note_on_c, 11, 70, 127
2, 69903, Note_off_c, 11, 70, 127
2, 69903, Note_off_c, 1, 61, 127
2, 69912, Note_on_c, 3, 63, 127
2, 69912, Note_on_c, 12, 71, 127
2, 70054, Note_off_c, 12, 71, 127
2, 70054, Note_off_c, 3, 63, 127
2, 70064, Note_on_c, 4, 64, 127
2, 70064, Note_on_c, 1, 73, 127
2, 70206, Note_off_c, 1, 73, 127
2, 70206, Note_off_c, 4, 64, 127
2, 70215, Note_on_c, 6, 66, 127
2, 70215, Note_on_c, 3, 75, 127
2, 70357, Note_off_c, 3, 75, 127
2, 70357, Note_off_c, 6, 66, 127
2, 70366, Note_on_c, 8, 68, 127
2, 70366, Note_on_c, 4, 76, 127
2, 70508, Note_off_c, 4, 76, 127
2, 70508, Note_off_c, 8, 68, 127
2, 70518, Note_on_c, 10, 69, 127
2, 70518, Note_on_c, 6, 78, 127
2, 70660, Note_off_c, 6, 78, 127
2, 70660, Note_off_c, 10, 69, 127
2, 70669, Note_on_c, 6, 66, 127
2, 70669, Note_on_c, 3, 75, 127
2, 70811, Note_off_c, 3, 75, 127
2, 70811, Note_off_c, 6, 66, 127
2, 70821, Note_on_c, 8, 68, 127
2, 70821, Note_on_c, 12, 71, 127
2, 70963, Note_off_c, 12, 71, 127
2, 70972, Note_on_c, 10, 69, 127
2, 71114, Note_off_c, 10, 69, 127
2, 71122, Note_off_c, 8, 68, 127
2, 71125, Note_on_c, 12, 59, 127
2, 71125, Note_on_c, 12, 71, 127
2, 71267, Note_off_c, 12, 71, 127
2, 71276, Note_on_c, 1, 73, 127
2, 71375, Note_off_c, 12, 59, 127
2, 71418, Note_off_c, 1, 73, 127
2, 71430, Note_on_c, 4, 64, 127
2, 71430, Note_on_c, 12, 71, 127
2, 71572, Note_off_c, 12, 71, 127
2, 71581, Note_on_c, 10, 69, 127
2, 71723, Note_off_c, 10, 69, 127
2, 71732, Note_on_c, 4, 52, 127
2, 71732, Note_on_c, 12, 71, 127
2, 71874, Note_off_c, 12, 71, 127
2, 71884, Note_on_c, 1, 73, 127
2, 72026, Note_off_c, 1, 73, 127
2, 72033, Note_off_c, 4, 52, 127
2, 72037, Note_on_c, 6, 54, 127
2, 72037, Note_on_c, 10, 69, 127
2, 72179, Note_off_c, 10, 69, 127
2, 72179, Note_off_c, 6, 54, 127
2, 72188, Note_on_c, 4, 52, 127
2, 72188, Note_on_c, 8, 68, 127
2, 72330, Note_off_c, 8, 68, 127
2, 72330, Note_off_c, 4, 52, 127
2, 72338, Note_off_c, 4, 64, 127
2, 72341, Note_on_c, 6, 54, 127
2, 72341, Note_on_c, 3, 63, 127
2, 72341, Note_on_c, 10, 69, 127
2, 72483, Note_off_c, 10, 69, 127
2, 72493, Note_on_c, 12, 71, 127
2, 72611, Note_off_c, 3, 63, 127
2, 72635, Note_off_c, 12, 71, 127
2, 72646, Note_on_c, 6, 66, 127
2, 72646, Note_on_c, 10, 69, 127
2, 72753, Note_off_c, 6, 54, 127
2, 72788, Note_off_c, 10, 69, 127
2, 72797, Note_on_c, 12, 47, 127
2, 72797, Note_on_c, 8, 68, 127
2, 72939, Note_off_c, 8, 68, 127
2, 72939, Note_off_c, 12, 47, 127
2, 72949, Note_on_c, 1, 49, 127
2, 72949, Note_on_c, 10, 69, 127
2, 73091, Note_off_c, 10, 69, 127
2, 73091, Note_off_c, 1, 49, 127
2, 73100, Note_on_c, 3, 51, 127
2, 73100, Note_on_c, 12, 71, 127
2, 73242, Note_off_c, 12, 71, 127
2, 73242, Note_off_c, 3, 51, 127
2, 73251, Note_on_c, 4, 52, 127
2, 73251, Note_on_c, 8, 68, 127
2, 73393, Note_off_c, 8, 68, 127
2, 73393, Note_off_c, 4, 52, 127
2, 73401, Note_off_c, 6, 66, 127
2, 73405, Note_on_c, 3, 51, 127
2, 73405, Note_on_c, 6, 66, 127
2, 73547, Note_off_c, 6, 66, 127
2, 73547, Note_off_c, 3, 51, 127
2, 73556, Note_on_c, 4, 52, 127
2, 73556, Note_on_c, 12, 59, 127
2, 73556, Note_on_c, 8, 68, 127
2, 73698, Note_off_c, 8, 68, 127
2, 73698, Note_off_c, 4, 52, 127
2, 73707, Note_on_c, 6, 54, 127
2, 73707, Note_on_c, 11, 70, 127
2, 73849, Note_off_c, 11, 70, 127
2, 73849, Note_off_c, 6, 54, 127
2, 73857, Note_off_c, 12, 59, 127
2, 73860, Note_on_c, 8, 56, 127
2, 73860, Note_on_c, 4, 64, 127
2, 73860, Note_on_c, 12, 71, 127
2, 74002, Note_off_c, 8, 56, 127
2, 74012, Note_on_c, 10, 57, 127
2, 74154, Note_off_c, 10, 57, 127
2, 74161, Note_off_c, 4, 64, 127
2, 74165, Note_on_c, 12, 59, 127
2, 74165, Note_on_c, 3, 63, 127
2, 74307, Note_off_c, 12, 59, 127
2, 74316, Note_on_c, 8, 56, 127
2, 74458, Note_off_c, 8, 56, 127
2, 74466, Note_off_c, 3, 63, 127
2, 74469, Note_on_c, 4, 52, 127
2, 74469, Note_on_c, 1, 61, 127
2, 74611, Note_off_c, 4, 52, 127
2, 74621, Note_on_c, 3, 51, 127
2, 74763, Note_off_c, 3, 51, 127
2, 74772, Note_on_c, 4, 52, 127
2, 74914, Note_off_c, 4, 52, 127
2, 74924, Note_on_c, 6, 54, 127
2, 75066, Note_off_c, 6, 54, 127
2, 75072, Note_off_c, 12, 71, 127
2, 75077, Note_on_c, 4, 52, 127
2, 75077, Note_on_c, 11, 70, 127
2, 75219, Note_off_c, 4, 52, 127
2, 75228, Note_on_c, 3, 51, 127
2, 75370, Note_off_c, 3, 51, 127
2, 75379, Note_on_c, 4, 52, 127
2, 75521, Note_off_c, 4, 52, 127
2, 75531, Note_on_c, 6, 54, 127
2, 75673, Note_off_c, 6, 54, 127
2, 75680, Note_off_c, 11, 70, 127
2, 75680, Note_off_c, 1, 61, 127
2, 75684, Note_on_c, 3, 51, 127
2, 75684, Note_on_c, 12, 59, 127
2, 75684, Note_on_c, 12, 71, 127
2, 75826, Note_off_c, 3, 51, 127
2, 75835, Note_on_c, 1, 49, 127
2, 75977, Note_off_c, 1, 49, 127
2, 75985, Note_off_c, 12, 59, 127
2, 75988, Note_on_c, 3, 51, 127
2, 75988, Note_on_c, 12, 83, 127
2, 76130, Note_off_c, 3, 51, 127
2, 76140, Note_on_c, 4, 52, 127
2, 76282, Note_off_c, 4, 52, 127
2, 76289, Note_off_c, 12, 83, 127
2, 76293, Note_on_c, 6, 54, 127
2, 76293, Note_on_c, 3, 75, 127
2, 76435, Note_off_c, 6, 54, 127
2, 76444, Note_on_c, 8, 56, 127
2, 76586, Note_off_c, 8, 56, 127
2, 76594, Note_off_c, 3, 75, 127
2, 76597, Note_on_c, 10, 57, 127
2, 76597, Note_on_c, 6, 78, 127
2, 76739, Note_off_c, 10, 57, 127
2, 76749, Note_on_c, 6, 54, 127
2, 76891, Note_off_c, 6, 54, 127
2, 76900, Note_off_c, 12, 71, 127
2, 76902, Note_on_c, 8, 56, 127
2, 76902, Note_on_c, 12, 71, 127
2, 77044, Note_off_c, 8, 56, 127
2, 77053, Note_on_c, 6, 54, 127
2, 77195, Note_off_c, 6, 54, 127
2, 77197, Note_off_c, 6, 78, 127
2, 77205, Note_on_c, 8, 56, 127
2, 77205, Note_on_c, 4, 76, 127
2, 77347, Note_off_c, 8, 56, 127
2, 77356, Note_on_c, 10, 57, 127
2, 77498, Note_off_c, 10, 57, 127
2, 77506, Note_off_c, 4, 76, 127
2, 77509, Note_on_c, 12, 59, 127
2, 77509, Note_on_c, 8, 68, 127
2, 77651, Note_off_c, 12, 59, 127
2, 77661, Note_on_c, 1, 61, 127
2, 77803, Note_off_c, 1, 61, 127
2, 77810, Note_off_c, 12, 71, 127
2, 77814, Note_on_c, 2, 62, 127
2, 77814, Note_on_c, 12, 71, 127
2, 77956, Note_off_c, 2, 62, 127
2, 77965, Note_on_c, 12, 59, 127
2, 78107, Note_off_c, 12, 59, 127
2, 78109, Note_off_c, 8, 68, 127
2, 78115, Note_off_c, 12, 71, 127
2, 78118, Note_on_c, 1, 61, 127
2, 78118, Note_on_c, 4, 64, 127
2, 78260, Note_off_c, 1, 61, 127
2, 78270, Note_on_c, 12, 59, 127
2, 78412, Note_off_c, 12, 59, 127
2, 78419, Note_off_c, 4, 64, 127
2, 78423, Note_on_c, 1, 61, 127
2, 78423, Note_on_c, 6, 66, 127
2, 78423, Note_on_c, 10, 69, 127
2, 78565, Note_off_c, 1, 61, 127
2, 78574, Note_on_c, 3, 63, 127
2, 78716, Note_off_c, 3, 63, 127
2, 78724, Note_off_c, 10, 69, 127
2, 78724, Note_off_c, 6, 66, 127
2, 78727, Note_on_c, 4, 64, 127
2, 78727, Note_on_c, 8, 68, 127
2, 78869, Note_off_c, 4, 64, 127
2, 78879, Note_on_c, 3, 63, 127
2, 79021, Note_off_c, 3, 63, 127
2, 79028, Note_off_c, 8, 68, 127
2, 79032, Note_on_c, 1, 61, 127
2, 79032, Note_on_c, 4, 64, 127
2, 79032, Note_on_c, 4, 76, 127
2, 79174, Note_off_c, 1, 61, 127
2, 79183, Note_on_c, 12, 59, 127
2, 79302, Note_off_c, 4, 76, 127
2, 79325, Note_off_c, 12, 59, 127
2, 79333, Note_off_c, 4, 64, 127
2, 79336, Note_on_c, 10, 57, 127
2, 79336, Note_on_c, 4, 64, 127
2, 79336, Note_on_c, 6, 78, 127
2, 79478, Note_off_c, 6, 78, 127
2, 79478, Note_off_c, 10, 57, 127
2, 79488, Note_on_c, 8, 56, 127
2, 79488, Note_on_c, 4, 76, 127
2, 79630, Note_off_c, 4, 76, 127
2, 79630, Note_off_c, 8, 56, 127
2, 79639, Note_on_c, 10, 57, 127
2, 79639, Note_on_c, 6, 78, 127
2, 79781, Note_off_c, 10, 57, 127
2, 79790, Note_on_c, 12, 59, 127
2, 79932, Note_off_c, 12, 59, 127
2, 79939, Note_off_c, 4, 64, 127
2, 79943, Note_on_c, 10, 57, 127
2, 79943, Note_on_c, 3, 63, 127
2, 80051, Note_off_c, 6, 78, 127
2, 80085, Note_off_c, 10, 57, 127
2, 80095, Note_on_c, 8, 56, 127
2, 80095, Note_on_c, 12, 71, 127
2, 80237, Note_off_c, 12, 71, 127
2, 80237, Note_off_c, 8, 56, 127
2, 80244, Note_off_c, 3, 63, 127
2, 80248, Note_on_c, 10, 57, 127
2, 80248, Note_on_c, 6, 66, 127
2, 80248, Note_on_c, 1, 73, 127
2, 80390, Note_off_c, 1, 73, 127
2, 80390, Note_off_c, 10, 57, 127
2, 80399, Note_on_c, 12, 59, 127
2, 80399, Note_on_c, 3, 75, 127
2, 80541, Note_off_c, 3, 75, 127
2, 80541, Note_off_c, 12, 59, 127
2, 80549, Note_off_c, 6, 66, 127
2, 80552, Note_on_c, 8, 56, 127
2, 80552, Note_on_c, 12, 59, 127
2, 80552, Note_on_c, 4, 76, 127
2, 80694, Note_off_c, 4, 76, 127
2, 80704, Note_on_c, 3, 75, 127
2, 80846, Note_off_c, 3, 75, 127
2, 80853, Note_off_c, 8, 56, 127
2, 80857, Note_on_c, 6, 54, 127
2, 80857, Note_on_c, 4, 76, 127
2, 80999, Note_off_c, 4, 76, 127
2, 81008, Note_on_c, 6, 78, 127
2, 81150, Note_off_c, 6, 78, 127
2, 81158, Note_off_c, 6, 54, 127
2, 81161, Note_on_c, 4, 52, 127
2, 81161, Note_on_c, 8, 80, 127
2, 81303, Note_off_c, 8, 80, 127
2, 81313, Note_on_c, 10, 81, 127
2, 81455, Note_off_c, 10, 81, 127
2, 81462, Note_off_c, 4, 52, 127
2, 81462, Note_off_c, 12, 59, 127
2, 81466, Note_on_c, 3, 51, 127
2, 81466, Note_on_c, 12, 71, 127
2, 81466, Note_on_c, 12, 83, 127
2, 81608, Note_off_c, 12, 83, 127
2, 81617, Note_on_c, 8, 80, 127
2, 81746, Note_off_c, 12, 71, 127
2, 81759, Note_off_c, 8, 80, 127
2, 81767, Note_off_c, 3, 51, 127
2, 81770, Note_on_c, 1, 49, 127
2, 81770, Note_on_c, 1, 73, 127
2, 81770, Note_on_c, 4, 76, 127
2, 81912, Note_off_c, 4, 76, 127
2, 81912, Note_off_c, 1, 73, 127
2, 81922, Note_on_c, 12, 71, 127
2, 81922, Note_on_c, 3, 75, 127
2, 82064, Note_off_c, 3, 75, 127
2, 82064, Note_off_c, 12, 71, 127
2, 82071, Note_off_c, 1, 49, 127
2, 82075, Note_on_c, 12, 59, 127
2, 82075, Note_on_c, 1, 73, 127
2, 82075, Note_on_c, 4, 76, 127
2, 82217, Note_off_c, 4, 76, 127
2, 82226, Note_on_c, 6, 78, 127
2, 82368, Note_off_c, 6, 78, 127
2, 82376, Note_off_c, 12, 59, 127
2, 82379, Note_on_c, 11, 58, 127
2, 82379, Note_on_c, 4, 76, 127
2, 82521, Note_off_c, 4, 76, 127
2, 82529, Note_off_c, 1, 73, 127
2, 82533, Note_on_c, 6, 66, 127
2, 82533, Note_on_c, 3, 75, 127
2, 82675, Note_off_c, 3, 75, 127
2, 82675, Note_off_c, 6, 66, 127
2, 82681, Note_off_c, 11, 58, 127
2, 82686, Note_on_c, 6, 54, 127
2, 82686, Note_on_c, 8, 68, 127
2, 82686, Note_on_c, 4, 76, 127
2, 82828, Note_off_c, 4, 76, 127
2, 82828, Note_off_c, 8, 68, 127
2, 82837, Note_on_c, 11, 70, 127
2, 82837, Note_on_c, 6, 78, 127
2, 82979, Note_off_c, 6, 78, 127
2, 82979, Note_off_c, 11, 70, 127
2, 82987, Note_off_c, 6, 54, 127
2, 82990, Note_on_c, 12, 59, 127
2, 82990, Note_on_c, 12, 71, 127
2, 82990, Note_on_c, 3, 75, 127
2, 83132, Note_off_c, 3, 75, 127
2, 83132, Note_off_c, 12, 71, 127
2, 83142, Note_on_c, 11, 70, 127
2, 83142, Note_on_c, 1, 73, 127
2, 83284, Note_off_c, 1, 73, 127
2, 83284, Note_off_c, 11, 70, 127
2, 83293, Note_on_c, 12, 71, 127
2, 83293, Note_on_c, 3, 75, 127
2, 83435, Note_off_c, 3, 75, 127
2, 83435, Note_off_c, 12, 71, 127
2, 83444, Note_on_c, 1, 73, 127
2, 83444, Note_on_c, 4, 76, 127
2, 83586, Note_off_c, 4, 76, 127
2, 83586, Note_off_c, 1, 73, 127
2, 83590, Note_off_c, 12, 59, 127
2, 83597, Note_on_c, 3, 75, 127
2, 83597, Note_on_c, 6, 78, 127
2, 83739, Note_off_c, 6, 78, 127
2, 83739, Note_off_c, 3, 75, 127
2, 83749, Note_on_c, 4, 76, 127
2, 83749, Note_on_c, 8, 80, 127
2, 83891, Note_off_c, 8, 80, 127
2, 83891, Note_off_c, 4, 76, 127
2, 83900, Note_on_c, 6, 78, 127
2, 83900, Note_on_c, 10, 81, 127
2, 84042, Note_off_c, 6, 78, 127
2, 84052, Note_on_c, 3, 75, 127
2, 84194, Note_off_c, 3, 75, 127
2, 84203, Note_on_c, 12, 71, 127
2, 84345, Note_off_c, 12, 71, 127
2, 84354, Note_on_c, 10, 69, 127
2, 84496, Note_off_c, 10, 69, 127
2, 84503, Note_off_c, 10, 81, 127
2, 84507, Note_on_c, 12, 71, 127
2, 84507, Note_on_c, 3, 75, 127
2, 84649, Note_off_c, 12, 71, 127
2, 84659, Note_on_c, 1, 73, 127
2, 84757, Note_off_c, 3, 75, 127
2, 84801, Note_off_c, 1, 73, 127
2, 84812, Note_on_c, 12, 71, 127
2, 84812, Note_on_c, 8, 80, 127
2, 84954, Note_off_c, 12, 71, 127
2, 84963, Note_on_c, 10, 69, 127
2, 85105, Note_off_c, 10, 69, 127
2, 85115, Note_on_c, 12, 71, 127
2, 85257, Note_off_c, 12, 71, 127
2, 85266, Note_on_c, 1, 73, 127
2, 85408, Note_off_c, 1, 73, 127
2, 85417, Note_on_c, 10, 69, 127
2, 85559, Note_off_c, 10, 69, 127
2, 85569, Note_on_c, 8, 68, 127
2, 85711, Note_off_c, 8, 68, 127
2, 85718, Note_off_c, 8, 80, 127
2, 85722, Note_on_c, 10, 69, 127
2, 85722, Note_on_c, 6, 78, 127
2, 85864, Note_off_c, 6, 78, 127
2, 85864, Note_off_c, 10, 69, 127
2, 85873, Note_on_c, 12, 71, 127
2, 85873, Note_on_c, 4, 76, 127
2, 86015, Note_off_c, 4, 76, 127
2, 86015, Note_off_c, 12, 71, 127
2, 86025, Note_on_c, 10, 69, 127
2, 86025, Note_on_c, 3, 75, 127
2, 86167, Note_off_c, 10, 69, 127
2, 86176, Note_on_c, 8, 68, 127
2, 86318, Note_off_c, 8, 68, 127
2, 86327, Note_on_c, 12, 59, 127
2, 86327, Note_on_c, 10, 69, 127
2, 86469, Note_off_c, 10, 69, 127
2, 86479, Note_on_c, 12, 71, 127
2, 86597, Note_off_c, 12, 59, 127
2, 86621, Note_off_c, 12, 71, 127
2, 86628, Note_off_c, 3, 75, 127
2, 86632, Note_on_c, 1, 61, 127
2, 86632, Note_on_c, 8, 68, 127
2, 86632, Note_on_c, 4, 76, 127
2, 86774, Note_off_c, 4, 76, 127
2, 86774, Note_off_c, 1, 61, 127
2, 86783, Note_on_c, 12, 59, 127
2, 86783, Note_on_c, 3, 75, 127
2, 86925, Note_off_c, 3, 75, 127
2, 86925, Note_off_c, 12, 59, 127
2, 86933, Note_off_c, 8, 68, 127
2, 86936, Note_on_c, 1, 61, 127
2, 86936, Note_on_c, 4, 64, 127
2, 86936, Note_on_c, 4, 76, 127
2, 87078, Note_off_c, 4, 76, 127
2, 87088, Note_on_c, 6, 78, 127
2, 87230, Note_off_c, 6, 78, 127
2, 87237, Note_off_c, 4, 64, 127
2, 87241, Note_on_c, 10, 69, 127
2, 87241, Note_on_c, 4, 76, 127
2, 87383, Note_off_c, 4, 76, 127
2, 87390, Note_off_c, 1, 61, 127
2, 87394, Note_on_c, 6, 54, 127
2, 87394, Note_on_c, 3, 75, 127
2, 87536, Note_off_c, 3, 75, 127
2, 87536, Note_off_c, 6, 54, 127
2, 87545, Note_on_c, 8, 56, 127
2, 87545, Note_on_c, 4, 76, 127
2, 87687, Note_off_c, 4, 76, 127
2, 87687, Note_off_c, 8, 56, 127
2, 87697, Note_on_c, 10, 57, 127
2, 87697, Note_on_c, 6, 78, 127
2, 87839, Note_off_c, 6, 78, 127
2, 87839, Note_off_c, 10, 57, 127
2, 87848, Note_on_c, 12, 59, 127
2, 87848, Note_on_c, 3, 75, 127
2, 87990, Note_off_c, 3, 75, 127
2, 87990, Note_off_c, 12, 59, 127
2, 88000, Note_on_c, 10, 57, 127
2, 88000, Note_on_c, 1, 73, 127
2, 88142, Note_off_c, 1, 73, 127
2, 88142, Note_off_c, 10, 57, 127
2, 88151, Note_on_c, 12, 59, 127
2, 88151, Note_on_c, 3, 75, 127
2, 88293, Note_off_c, 3, 75, 127
2, 88293, Note_off_c, 12, 59, 127
2, 88302, Note_on_c, 1, 61, 127
2, 88302, Note_on_c, 4, 76, 127
2, 88444, Note_off_c, 4, 76, 127
2, 88444, Note_off_c, 1, 61, 127
2, 88454, Note_on_c, 3, 63, 127
2, 88454, Note_on_c, 6, 78, 127
2, 88596, Note_off_c, 3, 63, 127
2, 88603, Note_off_c, 10, 69, 127
2, 88607, Note_on_c, 4, 64, 127
2, 88607, Note_on_c, 0, 72, 127
2, 88749, Note_off_c, 0, 72, 127
2, 88749, Note_off_c, 4, 64, 127
2, 88758, Note_on_c, 3, 63, 127
2, 88758, Note_on_c, 1, 73, 127
2, 88900, Note_off_c, 1, 73, 127
2, 88900, Note_off_c, 3, 63, 127
2, 88910, Note_on_c, 1, 61, 127
2, 88910, Note_on_c, 3, 75, 127
2, 89052, Note_off_c, 3, 75, 127
2, 89052, Note_off_c, 1, 61, 127
2, 89061, Note_on_c, 0, 60, 127
2, 89061, Note_on_c, 8, 68, 127
2, 89203, Note_off_c, 0, 60, 127
2, 89212, Note_on_c, 8, 56, 127
2, 89354, Note_off_c, 8, 56, 127
2, 89362, Note_off_c, 6, 78, 127
2, 89366, Note_on_c, 11, 58, 127
2, 89366, Note_on_c, 4, 76, 127
2, 89508, Note_off_c, 4, 76, 127
2, 89508, Note_off_c, 11, 58, 127
2, 89517, Note_on_c, 0, 60, 127
2, 89517, Note_on_c, 3, 75, 127
2, 89659, Note_off_c, 3, 75, 127
2, 89659, Note_off_c, 0, 60, 127
2, 89668, Note_on_c, 1, 61, 127
2, 89668, Note_on_c, 4, 76, 127
2, 89810, Note_off_c, 1, 61, 127
2, 89820, Note_on_c, 3, 63, 127
2, 89962, Note_off_c, 3, 63, 127
2, 89969, Note_off_c, 8, 68, 127
2, 89973, Note_on_c, 4, 64, 127
2, 89973, Note_on_c, 1, 73, 127
2, 90115, Note_off_c, 4, 64, 127
2, 90124, Note_on_c, 1, 61, 127
2, 90266, Note_off_c, 1, 61, 127
2, 90274, Note_off_c, 1, 73, 127
2, 90277, Note_on_c, 10, 57, 127
2, 90277, Note_on_c, 6, 66, 127
2, 90419, Note_off_c, 10, 57, 127
2, 90429, Note_on_c, 8, 56, 127
2, 90571, Note_off_c, 8, 56, 127
2, 90578, Note_off_c, 4, 76, 127
2, 90582, Note_on_c, 10, 57, 127
2, 90582, Note_on_c, 4, 76, 127
2, 90724, Note_off_c, 10, 57, 127
2, 90733, Note_on_c, 12, 59, 127
2, 90875, Note_off_c, 12, 59, 127
2, 90883, Note_off_c, 4, 76, 127
2, 90886, Note_on_c, 10, 57, 127
2, 90886, Note_on_c, 3, 75, 127
2, 91028, Note_off_c, 10, 57, 127
2, 91038, Note_on_c, 8, 56, 127
2, 91180, Note_off_c, 8, 56, 127
2, 91187, Note_off_c, 3, 75, 127
2, 91191, Note_on_c, 10, 57, 127
2, 91191, Note_on_c, 1, 73, 127
2, 91333, Note_off_c, 10, 57, 127
2, 91342, Note_on_c, 12, 59, 127
2, 91484, Note_off_c, 12, 59, 127
2, 91492, Note_off_c, 1, 73, 127
2, 91495, Note_on_c, 8, 56, 127
2, 91495, Note_on_c, 0, 72, 127
2, 91637, Note_off_c, 8, 56, 127
2, 91647, Note_on_c, 4, 52, 127
2, 91789, Note_off_c, 4, 52, 127
2, 91796, Note_off_c, 0, 72, 127
2, 91800, Note_on_c, 6, 54, 127
2, 91800, Note_on_c, 8, 68, 127
2, 91942, Note_off_c, 6, 54, 127
2, 91951, Note_on_c, 8, 56, 127
2, 92093, Note_off_c, 8, 56, 127
2, 92100, Note_off_c, 6, 66, 127
2, 92101, Note_off_c, 8, 68, 127
2, 92104, Note_on_c, 10, 57, 127
2, 92104, Note_on_c, 4, 64, 127
2, 92104, Note_on_c, 1, 73, 127
2, 92246, Note_off_c, 10, 57, 127
2, 92256, Note_on_c, 12, 59, 127
2, 92398, Note_off_c, 12, 59, 127
2, 92405, Note_off_c, 4, 64, 127
2, 92409, Note_on_c, 1, 61, 127
2, 92409, Note_on_c, 10, 69, 127
2, 92551, Note_off_c, 1, 61, 127
2, 92560, Note_on_c, 10, 57, 127
2, 92702, Note_off_c, 10, 57, 127
2, 92710, Note_off_c, 10, 69, 127
2, 92713, Note_on_c, 6, 54, 127
2, 92713, Note_on_c, 3, 63, 127
2, 92855, Note_off_c, 6, 54, 127
2, 92865, Note_on_c, 4, 52, 127
2, 93007, Note_off_c, 4, 52, 127
2, 93008, Note_off_c, 3, 63, 127
2, 93014, Note_off_c, 1, 73, 127
2, 93018, Note_on_c, 6, 54, 127
2, 93018, Note_on_c, 6, 66, 127
2, 93018, Note_on_c, 3, 75, 127
2, 93160, Note_off_c, 6, 54, 127
2, 93169, Note_on_c, 8, 56, 127
2, 93311, Note_off_c, 8, 56, 127
2, 93319, Note_off_c, 3, 75, 127
2, 93319, Note_off_c, 6, 66, 127
2, 93322, Note_on_c, 6, 54, 127
2, 93322, Note_on_c, 0, 60, 127
2, 93322, Note_on_c, 8, 68, 127
2, 93464, Note_off_c, 6, 54, 127
2, 93474, Note_on_c, 4, 52, 127
2, 93616, Note_off_c, 4, 52, 127
2, 93623, Note_off_c, 8, 68, 127
2, 93623, Note_off_c, 0, 60, 127
2, 93627, Note_on_c, 6, 54, 127
2, 93627, Note_on_c, 3, 63, 127
2, 93627, Note_on_c, 11, 70, 127
2, 93769, Note_off_c, 11, 70, 127
2, 93769, Note_off_c, 6, 54, 127
2, 93778, Note_on_c, 8, 56, 127
2, 93778, Note_on_c, 0, 72, 127
2, 93917, Note_off_c, 3, 63, 127
2, 93920, Note_off_c, 0, 72, 127
2, 93920, Note_off_c, 8, 56, 127
2, 93931, Note_on_c, 4, 52, 127
2, 93931, Note_on_c, 8, 56, 127
2, 93931, Note_on_c, 1, 73, 127
2, 94073, Note_off_c, 1, 73, 127
2, 94083, Note_on_c, 0, 72, 127
2, 94225, Note_off_c, 0, 72, 127
2, 94232, Note_off_c, 4, 52, 127
2, 94236, Note_on_c, 3, 51, 127
2, 94236, Note_on_c, 1, 73, 127
2, 94378, Note_off_c, 1, 73, 127
2, 94387, Note_on_c, 3, 75, 127
2, 94529, Note_off_c, 3, 75, 127
2, 94537, Note_off_c, 3, 51, 127
2, 94540, Note_on_c, 1, 49, 127
2, 94540, Note_on_c, 4, 76, 127
2, 94682, Note_off_c, 4, 76, 127
2, 94692, Note_on_c, 6, 78, 127
2, 94834, Note_off_c, 6, 78, 127
2, 94841, Note_off_c, 1, 49, 127
2, 94842, Note_off_c, 8, 56, 127
2, 94845, Note_on_c, 4, 52, 127
2, 94845, Note_on_c, 8, 80, 127
2, 94987, Note_off_c, 8, 80, 127
2, 94996, Note_on_c, 4, 76, 127
2, 95138, Note_off_c, 4, 76, 127
2, 95146, Note_off_c, 4, 52, 127
2, 95149, Note_on_c, 11, 46, 127
2, 95149, Note_on_c, 1, 73, 127
2, 95291, Note_off_c, 1, 73, 127
2, 95301, Note_on_c, 12, 71, 127
2, 95443, Note_off_c, 12, 71, 127
2, 95450, Note_off_c, 11, 46, 127
2, 95454, Note_on_c, 8, 56, 127
2, 95454, Note_on_c, 1, 73, 127
2, 95596, Note_off_c, 1, 73, 127
2, 95605, Note_on_c, 3, 75, 127
2, 95747, Note_off_c, 3, 75, 127
2, 95755, Note_off_c, 8, 56, 127
2, 95758, Note_on_c, 7, 55, 127
2, 95758, Note_on_c, 11, 58, 127
2, 95758, Note_on_c, 1, 73, 127
2, 95900, Note_off_c, 1, 73, 127
2, 95910, Note_on_c, 12, 71, 127
2, 96052, Note_off_c, 12, 71, 127
2, 96059, Note_off_c, 7, 55, 127
2, 96063, Note_on_c, 3, 51, 127
2, 96063, Note_on_c, 1, 73, 127
2, 96205, Note_off_c, 1, 73, 127
2, 96214, Note_on_c, 3, 75, 127
2, 96356, Note_off_c, 3, 75, 127
2, 96364, Note_off_c, 3, 51, 127
2, 96367, Note_on_c, 8, 44, 127
2, 96367, Note_on_c, 12, 71, 127
2, 96509, Note_off_c, 12, 71, 127
2, 96519, Note_on_c, 11, 70, 127
2, 96661, Note_off_c, 11, 70, 127
2, 96668, Note_off_c, 8, 44, 127
2, 96672, Note_on_c, 11, 46, 127
2, 96672, Note_on_c, 12, 71, 127
2, 96814, Note_off_c, 12, 71, 127
2, 96823, Note_on_c, 1, 73, 127
2, 96965, Note_off_c, 1, 73, 127
2, 96972, Note_off_c, 11, 58, 127
2, 96973, Note_off_c, 11, 46, 127
2, 96976, Note_on_c, 12, 47, 127
2, 96976, Note_on_c, 8, 56, 127
2, 96976, Note_on_c, 3, 75, 127
2, 97118, Note_off_c, 3, 75, 127
2, 97128, Note_on_c, 4, 76, 127
2, 97270, Note_off_c, 4, 76, 127
2, 97277, Note_off_c, 12, 47, 127
2, 97281, Note_on_c, 11, 46, 127
2, 97281, Note_on_c, 6, 78, 127
2, 97423, Note_off_c, 6, 78, 127
2, 97432, Note_on_c, 3, 75, 127
2, 97574, Note_off_c, 3, 75, 127
2, 97578, Note_off_c, 8, 56, 127
2, 97582, Note_off_c, 11, 46, 127
2, 97585, Note_on_c, 8, 44, 127
2, 97585, Note_on_c, 12, 71, 127
2, 97727, Note_off_c, 12, 71, 127
2, 97737, Note_on_c, 10, 69, 127
2, 97879, Note_off_c, 10, 69, 127
2, 97886, Note_off_c, 8, 44, 127
2, 97890, Note_on_c, 6, 54, 127
2, 97890, Note_on_c, 12, 71, 127
2, 98032, Note_off_c, 12, 71, 127
2, 98041, Note_on_c, 1, 73, 127
2, 98183, Note_off_c, 1, 73, 127
2, 98191, Note_off_c, 6, 54, 127
2, 98194, Note_on_c, 5, 53, 127
2, 98194, Note_on_c, 8, 56, 127
2, 98194, Note_on_c, 12, 71, 127
2, 98336, Note_off_c, 12, 71, 127
2, 98346, Note_on_c, 10, 69, 127
2, 98488, Note_off_c, 10, 69, 127
2, 98495, Note_off_c, 5, 53, 127
2, 98499, Note_on_c, 1, 49, 127
2, 98499, Note_on_c, 12, 71, 127
2, 98641, Note_off_c, 12, 71, 127
2, 98650, Note_on_c, 1, 73, 127
2, 98792, Note_off_c, 1, 73, 127
2, 98800, Note_off_c, 1, 49, 127
2, 98803, Note_on_c, 6, 42, 127
2, 98803, Note_on_c, 10, 69, 127
2, 98945, Note_off_c, 10, 69, 127
2, 98955, Note_on_c, 8, 68, 127
2, 99097, Note_off_c, 8, 68, 127
2, 99104, Note_off_c, 6, 42, 127
2, 99108, Note_on_c, 8, 44, 127
2, 99108, Note_on_c, 10, 69, 127
2, 99250, Note_off_c, 10, 69, 127
2, 99259, Note_on_c, 12, 71, 127
2, 99401, Note_off_c, 12, 71, 127
2, 99408, Note_off_c, 8, 56, 127
2, 99409, Note_off_c, 8, 44, 127
2, 99412, Note_on_c, 10, 45, 127
2, 99412, Note_on_c, 6, 54, 127
2, 99412, Note_on_c, 1, 73, 127
2, 99554, Note_off_c, 1, 73, 127
2, 99564, Note_on_c, 3, 75, 127
2, 99706, Note_off_c, 3, 75, 127
2, 99713, Note_off_c, 10, 45, 127
2, 99717, Note_on_c, 8, 44, 127
2, 99717, Note_on_c, 4, 76, 127
2, 99859, Note_off_c, 4, 76, 127
2, 99868, Note_on_c, 1, 73, 127
2, 100010, Note_off_c, 1, 73, 127
2, 100014, Note_off_c, 6, 54, 127
2, 100018, Note_off_c, 8, 44, 127
2, 100021, Note_on_c, 6, 42, 127
2, 100021, Note_on_c, 3, 75, 127
2, 100163, Note_off_c, 3, 75, 127
2, 100173, Note_on_c, 1, 73, 127
2, 100315, Note_off_c, 1, 73, 127
2, 100322, Note_off_c, 6, 42, 127
2, 100326, Note_on_c, 4, 52, 127
2, 100326, Note_on_c, 3, 75, 127
2, 100468, Note_off_c, 3, 75, 127
2, 100477, Note_on_c, 4, 76, 127
2, 100619, Note_off_c, 4, 76, 127
2, 100627, Note_off_c, 4, 52, 127
2, 100630, Note_on_c, 3, 51, 127
2, 100630, Note_on_c, 6, 54, 127
2, 100630, Note_on_c, 6, 78, 127
2, 100772, Note_off_c, 6, 78, 127
2, 100782, Note_on_c, 8, 80, 127
2, 100924, Note_off_c, 8, 80, 127
2, 100931, Note_off_c, 3, 51, 127
2, 100935, Note_on_c, 1, 49, 127
2, 100935, Note_on_c, 10, 81, 127
2, 101077, Note_off_c, 10, 81, 127
2, 101086, Note_on_c, 6, 78, 127
2, 101228, Note_off_c, 6, 78, 127
2, 101236, Note_off_c, 1, 49, 127
2, 101239, Note_on_c, 0, 48, 127
2, 101239, Note_on_c, 8, 80, 127
2, 101381, Note_off_c, 8, 80, 127
2, 101391, Note_on_c, 6, 78, 127
2, 101533, Note_off_c, 6, 78, 127
2, 101540, Note_off_c, 0, 48, 127
2, 101544, Note_on_c, 8, 44, 127
2, 101544, Note_on_c, 4, 76, 127
2, 101686, Note_off_c, 4, 76, 127
2, 101695, Note_on_c, 3, 75, 127
2, 101837, Note_off_c, 3, 75, 127
2, 101844, Note_off_c, 6, 54, 127
2, 101845, Note_off_c, 8, 44, 127
2, 101848, Note_on_c, 10, 45, 127
2, 101848, Note_on_c, 4, 52, 127
2, 101848, Note_on_c, 1, 73, 127
2, 101990, Note_off_c, 1, 73, 127
2, 102000, Note_on_c, 12, 71, 127
2, 102142, Note_off_c, 12, 71, 127
2, 102149, Note_off_c, 4, 52, 127
2, 102149, Note_off_c, 10, 45, 127
2, 102153, Note_on_c, 4, 52, 127
2, 102153, Note_on_c, 1, 61, 127
2, 102153, Note_on_c, 10, 69, 127
2, 102295, Note_off_c, 10, 69, 127
2, 102304, Note_on_c, 8, 68, 127
2, 102446, Note_off_c, 8, 68, 127
2, 102454, Note_off_c, 1, 61, 127
2, 102454, Note_off_c, 4, 52, 127
2, 102457, Note_on_c, 6, 54, 127
2, 102457, Note_on_c, 3, 63, 127
2, 102457, Note_on_c, 6, 66, 127
2, 102599, Note_off_c, 6, 66, 127
2, 102599, Note_off_c, 6, 54, 127
2, 102609, Note_on_c, 4, 52, 127
2, 102609, Note_on_c, 8, 68, 127
2, 102751, Note_off_c, 8, 68, 127
2, 102751, Note_off_c, 4, 52, 127
2, 102760, Note_on_c, 6, 54, 127
2, 102760, Note_on_c, 10, 69, 127
2, 102902, Note_off_c, 10, 69, 127
2, 102911, Note_on_c, 6, 66, 127
2, 103053, Note_off_c, 6, 66, 127
2, 103057, Note_off_c, 3, 63, 127
2, 103061, Note_off_c, 6, 54, 127
2, 103065, Note_on_c, 8, 56, 127
2, 103065, Note_on_c, 3, 63, 127
2, 103207, Note_off_c, 8, 56, 127
2, 103216, Note_on_c, 8, 56, 127
2, 103358, Note_off_c, 8, 56, 127
2, 103366, Note_off_c, 3, 63, 127
2, 103369, Note_on_c, 8, 44, 127
2, 103369, Note_on_c, 11, 58, 127
2, 103369, Note_on_c, 8, 68, 127
2, 103511, Note_off_c, 11, 58, 127
2, 103520, Note_on_c, 0, 60, 127
2, 103662, Note_off_c, 0, 60, 127
2, 103670, Note_off_c, 8, 68, 127
2, 103670, Note_off_c, 8, 44, 127
2, 103674, Note_on_c, 1, 49, 127
2, 103674, Note_on_c, 1, 61, 127
2, 103674, Note_on_c, 4, 64, 127
2, 103816, Note_off_c, 1, 61, 127
2, 103825, Note_on_c, 0, 60, 127
2, 103967, Note_off_c, 0, 60, 127
2, 103975, Note_off_c, 4, 64, 127
2, 103978, Note_on_c, 1, 61, 127
2, 103978, Note_on_c, 8, 68, 127
2, 104117, Note_off_c, 1, 49, 127
2, 104120, Note_off_c, 1, 61, 127
2, 104129, Note_on_c, 3, 63, 127
2, 104228, Note_off_c, 8, 68, 127
2, 104271, Note_off_c, 3, 63, 127
2, 104283, Note_on_c, 4, 64, 127
2, 104283, Note_on_c, 1, 73, 127
2, 104425, Note_off_c, 4, 64, 127
2, 104434, Note_on_c, 6, 66, 127
2, 104576, Note_off_c, 6, 66, 127
2, 104584, Note_off_c, 1, 73, 127
2, 104587, Note_on_c, 8, 68, 127
2, 104587, Note_on_c, 12, 71, 127
2, 104729, Note_off_c, 8, 68, 127
2, 104738, Note_on_c, 4, 64, 127
2, 104837, Note_off_c, 12, 71, 127
2, 104880, Note_off_c, 4, 64, 127
2, 104892, Note_on_c, 1, 61, 127
2, 104892, Note_on_c, 4, 76, 127
2, 105034, Note_off_c, 4, 76, 127
2, 105034, Note_off_c, 1, 61, 127
2, 105043, Note_on_c, 12, 59, 127
2, 105043, Note_on_c, 3, 75, 127
2, 105185, Note_off_c, 3, 75, 127
2, 105185, Note_off_c, 12, 59, 127
2, 105194, Note_on_c, 1, 61, 127
2, 105194, Note_on_c, 1, 73, 127
2, 105336, Note_off_c, 1, 73, 127
2, 105336, Note_off_c, 1, 61, 127
2, 105346, Note_on_c, 3, 63, 127
2, 105346, Note_on_c, 12, 71, 127
2, 105488, Note_off_c, 12, 71, 127
2, 105488, Note_off_c, 3, 63, 127
2, 105497, Note_on_c, 1, 61, 127
2, 105497, Note_on_c, 10, 69, 127
2, 105639, Note_off_c, 1, 61, 127
2, 105648, Note_on_c, 12, 59, 127
2, 105790, Note_off_c, 12, 59, 127
2, 105800, Note_on_c, 1, 61, 127
2, 105942, Note_off_c, 1, 61, 127
2, 105951, Note_on_c, 3, 63, 127
2, 106093, Note_off_c, 3, 63, 127
2, 106103, Note_on_c, 12, 59, 127
2, 106245, Note_off_c, 12, 59, 127
2, 106254, Note_on_c, 8, 56, 127
2, 106396, Note_off_c, 8, 56, 127
2, 106403, Note_off_c, 10, 69, 127
2, 106407, Note_on_c, 10, 57, 127
2, 106407, Note_on_c, 3, 63, 127
2, 106549, Note_off_c, 10, 57, 127
2, 106558, Note_on_c, 12, 59, 127
2, 106657, Note_off_c, 3, 63, 127
2, 106700, Note_off_c, 12, 59, 127
2, 106712, Note_on_c, 1, 61, 127
2, 106712, Note_on_c, 10, 69, 127
2, 106854, Note_off_c, 1, 61, 127
2, 106863, Note_on_c, 3, 63, 127
2, 107005, Note_off_c, 3, 63, 127
2, 107013, Note_off_c, 10, 69, 127
2, 107016, Note_on_c, 4, 64, 127
2, 107016, Note_on_c, 8, 68, 127
2, 107158, Note_off_c, 4, 64, 127
2, 107167, Note_on_c, 1, 61, 127
2, 107266, Note_off_c, 8, 68, 127
2, 107309, Note_off_c, 1, 61, 127
2, 107321, Note_on_c, 10, 57, 127
2, 107321, Note_on_c, 1, 73, 127
2, 107463, Note_off_c, 1, 73, 127
2, 107463, Note_off_c, 10, 57, 127
2, 107472, Note_on_c, 8, 56, 127
2, 107472, Note_on_c, 12, 71, 127
2, 107614, Note_off_c, 12, 71, 127
2, 107614, Note_off_c, 8, 56, 127
2, 107623, Note_on_c, 10, 57, 127
2, 107623, Note_on_c, 10, 69, 127
2, 107765, Note_off_c, 10, 69, 127
2, 107765, Note_off_c, 10, 57, 127
2, 107775, Note_on_c, 12, 59, 127
2, 107775, Note_on_c, 8, 68, 127
2, 107917, Note_off_c, 8, 68, 127
2, 107917, Note_off_c, 12, 59, 127
2, 107926, Note_on_c, 10, 57, 127
2, 107926, Note_on_c, 6, 66, 127
2, 108068, Note_off_c, 10, 57, 127
2, 108077, Note_on_c, 8, 56, 127
2, 108219, Note_off_c, 8, 56, 127
2, 108229, Note_on_c, 10, 57, 127
2, 108371, Note_off_c, 10, 57, 127
2, 108380, Note_on_c, 12, 59, 127
2, 108522, Note_off_c, 12, 59, 127
2, 108532, Note_on_c, 8, 56, 127
2, 108674, Note_off_c, 8, 56, 127
2, 108683, Note_on_c, 6, 54, 127
2, 108825, Note_off_c, 6, 54, 127
2, 108834, Note_on_c, 8, 56, 127
2, 108834, Note_on_c, 4, 64, 127
2, 108839, Note_off_c, 6, 66, 127
2, 108976, Note_off_c, 4, 64, 127
2, 108976, Note_off_c, 8, 56, 127
2, 108986, Note_on_c, 10, 57, 127
2, 108986, Note_on_c, 3, 63, 127
2, 109128, Note_off_c, 3, 63, 127
2, 109128, Note_off_c, 10, 57, 127
2, 109137, Note_on_c, 8, 56, 127
2, 109137, Note_on_c, 4, 64, 127
2, 109279, Note_off_c, 4, 64, 127
2, 109289, Note_on_c, 6, 66, 127
2, 109427, Note_off_c, 8, 56, 127
2, 109431, Note_off_c, 6, 66, 127
2, 109442, Note_on_c, 4, 52, 127
2, 109442, Note_on_c, 12, 59, 127
2, 109442, Note_on_c, 8, 68, 127
2, 109584, Note_off_c, 8, 68, 127
2, 109593, Note_on_c, 4, 64, 127
2, 109735, Note_off_c, 4, 64, 127
2, 109743, Note_off_c, 4, 52, 127
2, 109746, Note_on_c, 6, 54, 127
2, 109746, Note_on_c, 1, 61, 127
2, 109888, Note_off_c, 1, 61, 127
2, 109888, Note_off_c, 6, 54, 127
2, 109898, Note_on_c, 4, 52, 127
2, 109898, Note_on_c, 8, 68, 127
2, 110040, Note_off_c, 8, 68, 127
2, 110040, Note_off_c, 4, 52, 127
2, 110047, Note_off_c, 12, 59, 127
2, 110051, Note_on_c, 6, 54, 127
2, 110051, Note_on_c, 10, 57, 127
2, 110051, Note_on_c, 6, 66, 127
2, 110193, Note_off_c, 6, 66, 127
2, 110193, Note_off_c, 10, 57, 127
2, 110202, Note_on_c, 8, 56, 127
2, 110202, Note_on_c, 4, 64, 127
2, 110344, Note_off_c, 4, 64, 127
2, 110344, Note_off_c, 8, 56, 127
2, 110353, Note_on_c, 10, 57, 127
2, 110353, Note_on_c, 3, 63, 127
2, 110495, Note_off_c, 10, 57, 127
2, 110503, Note_off_c, 6, 54, 127
2, 110507, Note_on_c, 12, 47, 127
2, 110507, Note_on_c, 1, 61, 127
2, 110649, Note_off_c, 1, 61, 127
2, 110649, Note_off_c, 12, 47, 127
2, 110658, Note_on_c, 1, 49, 127
2, 110658, Note_on_c, 12, 59, 127
2, 110800, Note_off_c, 12, 59, 127
2, 110800, Note_off_c, 1, 49, 127
2, 110809, Note_on_c, 3, 51, 127
2, 110809, Note_on_c, 10, 57, 127
2, 110937, Note_off_c, 3, 63, 127
2, 110949, Note_off_c, 10, 57, 127
2, 110949, Note_off_c, 3, 51, 127
2, 110959, Note_on_c, 4, 52, 127
2, 110959, Note_on_c, 8, 56, 127
2, 111101, Note_off_c, 4, 52, 127
2, 111110, Note_on_c, 3, 51, 127
2, 111110, Note_on_c, 12, 59, 127
2, 111252, Note_off_c, 12, 59, 127
2, 111252, Note_off_c, 3, 51, 127
2, 111262, Note_on_c, 4, 52, 127
2, 111262, Note_on_c, 1, 61, 127
2, 111404, Note_off_c, 1, 61, 127
2, 111404, Note_off_c, 4, 52, 127
2, 111411, Note_off_c, 8, 56, 127
2, 111415, Note_on_c, 6, 54, 127
2, 111415, Note_on_c, 3, 63, 127
2, 111557, Note_off_c, 3, 63, 127
2, 111557, Note_off_c, 6, 54, 127
2, 111566, Note_on_c, 8, 56, 127
2, 111566, Note_on_c, 4, 64, 127
2, 111708, Note_off_c, 4, 64, 127
2, 111708, Note_off_c, 8, 56, 127
2, 111718, Note_on_c, 10, 57, 127
2, 111718, Note_on_c, 6, 66, 127
2, 111860, Note_off_c, 6, 66, 127
2, 111860, Note_off_c, 10, 57, 127
2, 111869, Note_on_c, 12, 59, 127
2, 111869, Note_on_c, 8, 68, 127
2, 112011, Note_off_c, 8, 68, 127
2, 112011, Note_off_c, 12, 59, 127
2, 112020, Note_on_c, 8, 56, 127
2, 112020, Note_on_c, 4, 64, 127
2, 112162, Note_off_c, 4, 64, 127
2, 112162, Note_off_c, 8, 56, 127
2, 112172, Note_on_c, 4, 52, 127
2, 112172, Note_on_c, 1, 73, 127
2, 112314, Note_off_c, 1, 73, 127
2, 112314, Note_off_c, 4, 52, 127
2, 112323, Note_on_c, 3, 51, 127
2, 112323, Note_on_c, 12, 71, 127
2, 112465, Note_off_c, 12, 71, 127
2, 112465, Note_off_c, 3, 51, 127
2, 112474, Note_on_c, 4, 52, 127
2, 112474, Note_on_c, 1, 73, 127
2, 112616, Note_off_c, 4, 52, 127
2, 112626, Note_on_c, 6, 54, 127
2, 112768, Note_off_c, 6, 54, 127
2, 112777, Note_on_c, 4, 52, 127
2, 112914, Note_off_c, 1, 73, 127
2, 112919, Note_off_c, 4, 52, 127
2, 112930, Note_on_c, 3, 51, 127
2, 112930, Note_on_c, 6, 66, 127
2, 113072, Note_off_c, 6, 66, 127
2, 113072, Note_off_c, 3, 51, 127
2, 113082, Note_on_c, 4, 52, 127
2, 113082, Note_on_c, 8, 68, 127
2, 113224, Note_off_c, 8, 68, 127
2, 113224, Note_off_c, 4, 52, 127
2, 113233, Note_on_c, 6, 54, 127
2, 113233, Note_on_c, 11, 70, 127
2, 113375, Note_off_c, 11, 70, 127
2, 113375, Note_off_c, 6, 54, 127
2, 113384, Note_on_c, 3, 51, 127
2, 113384, Note_on_c, 12, 71, 127
2, 113526, Note_off_c, 12, 71, 127
2, 113536, Note_on_c, 11, 70, 127
2, 113678, Note_off_c, 11, 70, 127
2, 113685, Note_off_c, 3, 51, 127
2, 113689, Note_on_c, 6, 54, 127
2, 113689, Note_on_c, 12, 71, 127
2, 113831, Note_off_c, 12, 71, 127
2, 113840, Note_on_c, 1, 73, 127
2, 113982, Note_off_c, 1, 73, 127
2, 113990, Note_off_c, 6, 54, 127
2, 113993, Note_on_c, 12, 47, 127
2, 113993, Note_on_c, 3, 75, 127
2, 114135, Note_off_c, 3, 75, 127
2, 114145, Note_on_c, 4, 76, 127
2, 114287, Note_off_c, 4, 76, 127
2, 114294, Note_off_c, 12, 47, 127
2, 114298, Note_on_c, 4, 52, 127
2, 114298, Note_on_c, 4, 64, 127
2, 114298, Note_on_c, 6, 78, 127
2, 114440, Note_off_c, 6, 78, 127
2, 114449, Note_on_c, 8, 80, 127
2, 114591, Note_off_c, 8, 80, 127
2, 114599, Note_off_c, 4, 64, 127
2, 114602, Note_on_c, 6, 66, 127
2, 114602, Note_on_c, 10, 69, 127
2, 114744, Note_off_c, 10, 69, 127
2, 114744, Note_off_c, 6, 66, 127
2, 114754, Note_on_c, 4, 64, 127
2, 114754, Note_on_c, 8, 68, 127
2, 114896, Note_off_c, 8, 68, 127
2, 114896, Note_off_c, 4, 64, 127
2, 114903, Note_off_c, 4, 52, 127
2, 114907, Note_on_c, 3, 51, 127
2, 114907, Note_on_c, 6, 66, 127
2, 114907, Note_on_c, 10, 69, 127
2, 115049, Note_off_c, 10, 69, 127
2, 115049, Note_off_c, 3, 51, 127
2, 115058, Note_on_c, 1, 49, 127
2, 115058, Note_on_c, 12, 71, 127
2, 115200, Note_off_c, 12, 71, 127
2, 115200, Note_off_c, 1, 49, 127
2, 115210, Note_on_c, 3, 51, 127
2, 115210, Note_on_c, 10, 69, 127
2, 115352, Note_off_c, 10, 69, 127
2, 115359, Note_off_c, 6, 66, 127
2, 115363, Note_on_c, 12, 59, 127
2, 115363, Note_on_c, 8, 68, 127
2, 115505, Note_off_c, 8, 68, 127
2, 115505, Note_off_c, 12, 59, 127
2, 115512, Note_off_c, 3, 51, 127
2, 115516, Note_on_c, 12, 59, 127
2, 115516, Note_on_c, 1, 61, 127
2, 115516, Note_on_c, 10, 69, 127
2, 115658, Note_off_c, 10, 69, 127
2, 115658, Note_off_c, 1, 61, 127
2, 115667, Note_on_c, 3, 63, 127
2, 115667, Note_on_c, 12, 71, 127
2, 115809, Note_off_c, 12, 71, 127
2, 115809, Note_off_c, 3, 63, 127
2, 115817, Note_off_c, 12, 59, 127
2, 115820, Note_on_c, 1, 61, 127
2, 115820, Note_on_c, 4, 64, 127
2, 115820, Note_on_c, 8, 68, 127
2, 115962, Note_off_c, 8, 68, 127
2, 115962, Note_off_c, 4, 64, 127
2, 115972, Note_on_c, 3, 63, 127
2, 115972, Note_on_c, 6, 66, 127
2, 116114, Note_off_c, 6, 66, 127
2, 116114, Note_off_c, 3, 63, 127
2, 116123, Note_on_c, 4, 64, 127
2, 116123, Note_on_c, 8, 68, 127
2, 116265, Note_off_c, 8, 68, 127
2, 116265, Note_off_c, 4, 64, 127
2, 116275, Note_on_c, 6, 66, 127
2, 116275, Note_on_c, 10, 69, 127
2, 116417, Note_off_c, 10, 69, 127
2, 116417, Note_off_c, 6, 66, 127
2, 116420, Note_off_c, 1, 61, 127
2, 116428, Note_on_c, 8, 68, 127
2, 116428, Note_on_c, 12, 71, 127
2, 116570, Note_off_c, 12, 71, 127
2, 116570, Note_off_c, 8, 68, 127
2, 116579, Note_on_c, 10, 69, 127
2, 116579, Note_on_c, 1, 73, 127
2, 116721, Note_off_c, 1, 73, 127
2, 116721, Note_off_c, 10, 69, 127
2, 116731, Note_on_c, 8, 56, 127
2, 116731, Note_on_c, 12, 71, 127
2, 116731, Note_on_c, 2, 74, 127
2, 116873, Note_off_c, 12, 71, 127
2, 116882, Note_on_c, 8, 68, 127
2, 117024, Note_off_c, 8, 68, 127
2, 117032, Note_off_c, 8, 56, 127
2, 117035, Note_on_c, 10, 57, 127
2, 117035, Note_on_c, 4, 64, 127
2, 117177, Note_off_c, 4, 64, 127
2, 117186, Note_on_c, 3, 63, 127
2, 117328, Note_off_c, 3, 63, 127
2, 117336, Note_off_c, 10, 57, 127
2, 117336, Note_off_c, 2, 74, 127
2, 117340, Note_on_c, 8, 56, 127
2, 117340, Note_on_c, 4, 64, 127
2, 117340, Note_on_c, 1, 73, 127
2, 117482, Note_off_c, 1, 73, 127
2, 117482, Note_off_c, 4, 64, 127
2, 117491, Note_on_c, 6, 66, 127
2, 117491, Note_on_c, 12, 71, 127
2, 117633, Note_off_c, 12, 71, 127
2, 117633, Note_off_c, 6, 66, 127
2, 117641, Note_off_c, 8, 56, 127
2, 117644, Note_on_c, 10, 57, 127
2, 117644, Note_on_c, 4, 64, 127
2, 117644, Note_on_c, 1, 73, 127
2, 117786, Note_off_c, 4, 64, 127
2, 117795, Note_on_c, 3, 63, 127
2, 117937, Note_off_c, 3, 63, 127
2, 117945, Note_off_c, 10, 57, 127
2, 117949, Note_on_c, 4, 52, 127
2, 117949, Note_on_c, 4, 64, 127
2, 118091, Note_off_c, 4, 64, 127
2, 118100, Note_on_c, 6, 66, 127
2, 118242, Note_off_c, 6, 66, 127
2, 118250, Note_off_c, 4, 52, 127
2, 118253, Note_on_c, 6, 54, 127
2, 118253, Note_on_c, 3, 63, 127
2, 118395, Note_off_c, 3, 63, 127
2, 118404, Note_on_c, 1, 61, 127
2, 118546, Note_off_c, 1, 61, 127
2, 118554, Note_off_c, 6, 54, 127
2, 118558, Note_on_c, 10, 57, 127
2, 118558, Note_on_c, 3, 63, 127
2, 118700, Note_off_c, 3, 63, 127
2, 118709, Note_on_c, 4, 64, 127
2, 118851, Note_off_c, 4, 64, 127
2, 118858, Note_off_c, 1, 73, 127
2, 118859, Note_off_c, 10, 57, 127
2, 118862, Note_on_c, 8, 56, 127
2, 118862, Note_on_c, 6, 66, 127
2, 118862, Note_on_c, 12, 71, 127
2, 119004, Note_off_c, 6, 66, 127
2, 119013, Note_on_c, 8, 68, 127
2, 119155, Note_off_c, 8, 68, 127
2, 119163, Note_off_c, 8, 56, 127
2, 119167, Note_on_c, 6, 54, 127
2, 119167, Note_on_c, 10, 69, 127
2, 119309, Note_off_c, 10, 69, 127
2, 119318, Note_on_c, 6, 66, 127
2, 119460, Note_off_c, 6, 66, 127
2, 119464, Note_off_c, 12, 71, 127
2, 119468, Note_off_c, 6, 54, 127
2, 119471, Note_on_c, 4, 52, 127
2, 119471, Note_on_c, 2, 62, 127
2, 119613, Note_off_c, 2, 62, 127
2, 119622, Note_on_c, 1, 61, 127
2, 119764, Note_off_c, 1, 61, 127
2, 119772, Note_off_c, 4, 52, 127
2, 119776, Note_on_c, 6, 54, 127
2, 119776, Note_on_c, 2, 62, 127
2, 119918, Note_off_c, 2, 62, 127
2, 119927, Note_on_c, 4, 64, 127
2, 120069, Note_off_c, 4, 64, 127
2, 120077, Note_off_c, 6, 54, 127
2, 120080, Note_on_c, 8, 56, 127
2, 120080, Note_on_c, 2, 62, 127
2, 120080, Note_on_c, 12, 71, 127
2, 120222, Note_off_c, 2, 62, 127
2, 120231, Note_on_c, 1, 61, 127
2, 120373, Note_off_c, 1, 61, 127
2, 120381, Note_off_c, 8, 56, 127
2, 120385, Note_on_c, 4, 52, 127
2, 120385, Note_on_c, 2, 62, 127
2, 120527, Note_off_c, 2, 62, 127
2, 120536, Note_on_c, 4, 64, 127
2, 120678, Note_off_c, 4, 64, 127
2, 120686, Note_off_c, 4, 52, 127
2, 120689, Note_on_c, 10, 57, 127
2, 120689, Note_on_c, 1, 61, 127
2, 120831, Note_off_c, 1, 61, 127
2, 120840, Note_on_c, 12, 59, 127
2, 120982, Note_off_c, 12, 59, 127
2, 120990, Note_off_c, 10, 57, 127
2, 120994, Note_on_c, 12, 59, 127
2, 120994, Note_on_c, 1, 61, 127
2, 121136, Note_off_c, 1, 61, 127
2, 121145, Note_on_c, 2, 62, 127
2, 121287, Note_off_c, 2, 62, 127
2, 121294, Note_off_c, 12, 71, 127
2, 121295, Note_off_c, 12, 59, 127
2, 121298, Note_on_c, 1, 61, 127
2, 121298, Note_on_c, 4, 64, 127
2, 121298, Note_on_c, 10, 69, 127
2, 121440, Note_off_c, 4, 64, 127
2, 121449, Note_on_c, 6, 66, 127
2, 121591, Note_off_c, 6, 66, 127
2, 121599, Note_off_c, 1, 61, 127
2, 121603, Note_on_c, 12, 59, 127
2, 121603, Note_on_c, 8, 68, 127
2, 121745, Note_off_c, 8, 68, 127
2, 121754, Note_on_c, 4, 64, 127
2, 121896, Note_off_c, 4, 64, 127
2, 121900, Note_off_c, 10, 69, 127
2, 121904, Note_off_c, 12, 59, 127
2, 121907, Note_on_c, 10, 57, 127
2, 121907, Note_on_c, 1, 61, 127
2, 122049, Note_off_c, 1, 61, 127
2, 122058, Note_on_c, 12, 59, 127
2, 122200, Note_off_c, 12, 59, 127
2, 122208, Note_off_c, 10, 57, 127
2, 122212, Note_on_c, 4, 52, 127
2, 122212, Note_on_c, 1, 61, 127
2, 122354, Note_off_c, 1, 61, 127
2, 122363, Note_on_c, 2, 62, 127
2, 122505, Note_off_c, 2, 62, 127
2, 122513, Note_off_c, 4, 52, 127
2, 122516, Note_on_c, 6, 54, 127
2, 122516, Note_on_c, 1, 61, 127
2, 122516, Note_on_c, 10, 69, 127
2, 122658, Note_off_c, 1, 61, 127
2, 122667, Note_on_c, 12, 59, 127
2, 122809, Note_off_c, 12, 59, 127
2, 122817, Note_off_c, 6, 54, 127
2, 122821, Note_on_c, 1, 49, 127
2, 122821, Note_on_c, 1, 61, 127
2, 122963, Note_off_c, 1, 61, 127
2, 122972, Note_on_c, 2, 62, 127
2, 123114, Note_off_c, 2, 62, 127
2, 123122, Note_off_c, 1, 49, 127
2, 123125, Note_on_c, 3, 51, 127
2, 123125, Note_on_c, 12, 59, 127
2, 123267, Note_off_c, 12, 59, 127
2, 123276, Note_on_c, 10, 57, 127
2, 123418, Note_off_c, 10, 57, 127
2, 123426, Note_off_c, 3, 51, 127
2, 123430, Note_on_c, 12, 47, 127
2, 123430, Note_on_c, 12, 59, 127
2, 123572, Note_off_c, 12, 59, 127
2, 123581, Note_on_c, 1, 61, 127
2, 123723, Note_off_c, 1, 61, 127
2, 123730, Note_off_c, 10, 69, 127
2, 123731, Note_off_c, 12, 47, 127
2, 123734, Note_on_c, 4, 52, 127
2, 123734, Note_on_c, 12, 59, 127
2, 123734, Note_on_c, 8, 68, 127
2, 123876, Note_off_c, 12, 59, 127
2, 123885, Note_on_c, 10, 57, 127
2, 124024, Note_off_c, 8, 68, 127
2, 124025, Note_off_c, 10, 57, 127
2, 124035, Note_on_c, 12, 59, 127
2, 124035, Note_on_c, 4, 76, 127
2, 124177, Note_off_c, 12, 59, 127
2, 124186, Note_on_c, 1, 61, 127
2, 124285, Note_off_c, 4, 76, 127
2, 124328, Note_off_c, 1, 61, 127
2, 124340, Note_on_c, 10, 57, 127
2, 124340, Note_on_c, 6, 78, 127
2, 124482, Note_off_c, 6, 78, 127
2, 124482, Note_off_c, 10, 57, 127
2, 124491, Note_on_c, 8, 56, 127
2, 124491, Note_on_c, 4, 76, 127
2, 124633, Note_off_c, 4, 76, 127
2, 124633, Note_off_c, 8, 56, 127
2, 124642, Note_on_c, 10, 57, 127
2, 124642, Note_on_c, 6, 78, 127
2, 124784, Note_off_c, 10, 57, 127
2, 124794, Note_on_c, 12, 59, 127
2, 124936, Note_off_c, 12, 59, 127
2, 124943, Note_off_c, 4, 52, 127
2, 124947, Note_on_c, 3, 51, 127
2, 124947, Note_on_c, 10, 57, 127
2, 125038, Note_off_c, 6, 78, 127
2, 125089, Note_off_c, 10, 57, 127
2, 125098, Note_on_c, 8, 56, 127
2, 125098, Note_on_c, 12, 71, 127
2, 125240, Note_off_c, 12, 71, 127
2, 125240, Note_off_c, 8, 56, 127
2, 125250, Note_on_c, 10, 57, 127
2, 125250, Note_on_c, 1, 73, 127
2, 125392, Note_off_c, 1, 73, 127
2, 125392, Note_off_c, 10, 57, 127
2, 125401, Note_on_c, 12, 59, 127
2, 125401, Note_on_c, 3, 75, 127
2, 125543, Note_off_c, 3, 75, 127
2, 125543, Note_off_c, 12, 59, 127
2, 125552, Note_on_c, 8, 56, 127
2, 125552, Note_on_c, 4, 76, 127
2, 125694, Note_off_c, 4, 76, 127
2, 125704, Note_on_c, 3, 75, 127
2, 125846, Note_off_c, 3, 75, 127
2, 125853, Note_off_c, 8, 56, 127
2, 125857, Note_on_c, 12, 59, 127
2, 125857, Note_on_c, 4, 76, 127
2, 125999, Note_off_c, 4, 76, 127
2, 126008, Note_on_c, 6, 78, 127
2, 126150, Note_off_c, 6, 78, 127
2, 126158, Note_off_c, 12, 59, 127
2, 126158, Note_off_c, 3, 51, 127
2, 126161, Note_on_c, 1, 49, 127
2, 126161, Note_on_c, 4, 52, 127
2, 126161, Note_on_c, 8, 80, 127
2, 126303, Note_off_c, 8, 80, 127
2, 126313, Note_on_c, 10, 81, 127
2, 126455, Note_off_c, 10, 81, 127
2, 126462, Note_off_c, 4, 52, 127
2, 126466, Note_on_c, 8, 56, 127
2, 126466, Note_on_c, 12, 83, 127
2, 126608, Note_off_c, 12, 83, 127
2, 126617, Note_on_c, 8, 80, 127
2, 126759, Note_off_c, 8, 80, 127
2, 126766, Note_off_c, 1, 49, 127
2, 126770, Note_on_c, 6, 42, 127
2, 126770, Note_on_c, 10, 81, 127
2, 126912, Note_off_c, 10, 81, 127
2, 126922, Note_on_c, 8, 80, 127
2, 127064, Note_off_c, 8, 80, 127
2, 127071, Note_off_c, 8, 56, 127
2, 127075, Note_on_c, 6, 54, 127
2, 127075, Note_on_c, 10, 81, 127
2, 127217, Note_off_c, 10, 81, 127
2, 127224, Note_off_c, 6, 42, 127
2, 127228, Note_on_c, 1, 49, 127
2, 127228, Note_on_c, 12, 83, 127
2, 127370, Note_off_c, 12, 83, 127
2, 127370, Note_off_c, 1, 49, 127
2, 127379, Note_on_c, 3, 51, 127
2, 127379, Note_on_c, 10, 81, 127
2, 127521, Note_off_c, 10, 81, 127
2, 127531, Note_on_c, 8, 80, 127
2, 127673, Note_off_c, 8, 80, 127
2, 127680, Note_off_c, 3, 51, 127
2, 127684, Note_on_c, 12, 47, 127
2, 127684, Note_on_c, 10, 81, 127
2, 127826, Note_off_c, 10, 81, 127
2, 127835, Note_on_c, 12, 83, 127
2, 127977, Note_off_c, 12, 83, 127
2, 127985, Note_off_c, 12, 47, 127
2, 127988, Note_on_c, 4, 52, 127
2, 127988, Note_on_c, 8, 80, 127
2, 128132, Note_off_c, 8, 80, 127
2, 128143, Note_on_c, 6, 78, 127
2, 128287, Note_off_c, 6, 78, 127
2, 128294, Note_off_c, 4, 52, 127
2, 128298, Note_on_c, 12, 47, 127
2, 128298, Note_on_c, 8, 80, 127
2, 128442, Note_off_c, 8, 80, 127
2, 128453, Note_on_c, 10, 81, 127
2, 128597, Note_off_c, 10, 81, 127
2, 128604, Note_off_c, 12, 47, 127
2, 128604, Note_off_c, 6, 54, 127
2, 128608, Note_on_c, 1, 49, 127
2, 128608, Note_on_c, 4, 52, 127
2, 128608, Note_on_c, 8, 80, 127
2, 128752, Note_off_c, 8, 80, 127
2, 128763, Note_on_c, 6, 78, 127
2, 128907, Note_off_c, 6, 78, 127
2, 128914, Note_off_c, 1, 49, 127
2, 128917, Note_on_c, 8, 44, 127
2, 128917, Note_on_c, 4, 76, 127
2, 129061, Note_off_c, 4, 76, 127
2, 129072, Note_on_c, 2, 74, 127
2, 129216, Note_off_c, 2, 74, 127
2, 129223, Note_off_c, 8, 44, 127
2, 129227, Note_on_c, 10, 45, 127
2, 129227, Note_on_c, 1, 73, 127
2, 129374, Note_off_c, 1, 73, 127
2, 129386, Note_on_c, 12, 71, 127
2, 129533, Note_off_c, 12, 71, 127
2, 129540, Note_off_c, 10, 45, 127
2, 129540, Note_off_c, 4, 52, 127
2, 129544, Note_on_c, 4, 40, 127
2, 129544, Note_on_c, 4, 64, 127
2, 129544, Note_on_c, 1, 73, 127
2, 129691, Note_off_c, 1, 73, 127
2, 129702, Note_on_c, 2, 74, 127
2, 129849, Note_off_c, 2, 74, 127
2, 129857, Note_off_c, 4, 64, 127
2, 129857, Note_off_c, 4, 40, 127
2, 129861, Note_on_c, 6, 42, 127
2, 129861, Note_on_c, 10, 69, 127
2, 129861, Note_on_c, 1, 73, 127
2, 130008, Note_off_c, 1, 73, 127
2, 130019, Note_on_c, 12, 71, 127
2, 130166, Note_off_c, 12, 71, 127
2, 130174, Note_off_c, 6, 42, 127
2, 130177, Note_on_c, 1, 37, 127
2, 130177, Note_on_c, 1, 73, 127
2, 130324, Note_off_c, 1, 73, 127
2, 130336, Note_on_c, 2, 74, 127
2, 130483, Note_off_c, 2, 74, 127
2, 130490, Note_off_c, 1, 37, 127
2, 130494, Note_on_c, 3, 39, 127
2, 130494, Note_on_c, 12, 71, 127
2, 130648, Note_off_c, 12, 71, 127
2, 130659, Note_on_c, 1, 73, 127
2, 130813, Note_off_c, 1, 73, 127
2, 130821, Note_off_c, 3, 39, 127
2, 130825, Note_on_c, 12, 59, 127
2, 130825, Note_on_c, 3, 75, 127
2, 130979, Note_off_c, 3, 75, 127
2, 130990, Note_on_c, 12, 71, 127
2, 131144, Note_off_c, 12, 71, 127
2, 131152, Note_off_c, 12, 59, 127
2, 131152, Note_off_c, 10, 69, 127
2, 131155, Note_on_c, 1, 61, 127
2, 131155, Note_on_c, 8, 68, 127
2, 131155, Note_on_c, 4, 76, 127
2, 131318, Note_off_c, 8, 68, 127
2, 131329, Note_on_c, 4, 64, 127
2, 131492, Note_off_c, 4, 64, 127
2, 131503, Note_on_c, 6, 66, 127
2, 131666, Note_off_c, 6, 66, 127
2, 131677, Note_on_c, 8, 68, 127
2, 131840, Note_off_c, 8, 68, 127
2, 131844, Note_off_c, 1, 61, 127
2, 131851, Note_on_c, 10, 69, 127
2, 132025, Note_off_c, 10, 69, 127
2, 132037, Note_on_c, 6, 54, 127
2, 132037, Note_on_c, 12, 71, 127
2, 132211, Note_off_c, 12, 71, 127
2, 132211, Note_off_c, 6, 54, 127
2, 132223, Note_on_c, 8, 56, 127
2, 132223, Note_on_c, 1, 73, 127
2, 132397, Note_off_c, 8, 56, 127
2, 132410, Note_on_c, 10, 57, 127
2, 132584, Note_off_c, 10, 57, 127
2, 132590, Note_off_c, 4, 76, 127
2, 132594, Note_on_c, 12, 59, 127
2, 132594, Note_on_c, 3, 75, 127
2, 132795, Note_off_c, 1, 73, 127
2, 132799, Note_on_c, 1, 73, 127
2, 132992, Note_off_c, 1, 73, 127
2, 133005, Note_on_c, 12, 47, 127
2, 133005, Note_on_c, 12, 71, 127
2, 133250, Note_off_c, 12, 71, 127
2, 133266, Note_on_c, 10, 69, 127
2, 133408, Note_off_c, 12, 59, 127
2, 133513, Note_off_c, 10, 69, 127
2, 133523, Note_off_c, 12, 47, 127
2, 133523, Note_off_c, 3, 75, 127
2, 133528, Note_on_c, 4, 40, 127
2, 133528, Note_on_c, 8, 68, 127
2, 133528, Note_on_c, 4, 76, 127
2, 136528, Note_off_c, 4, 76, 127
2, 136528, Note_off_c, 8, 68, 127
2, 136528, Note_off_c, 4, 40, 127
2, 141312, End_track
3, 0, Start_track
3, 0, Title_t, "MIDI"
3, 1536, End_track
0, 0, End_of_file
