0, 0, Header, 0, 1, 384
1, 0, Start_track
1, 0, Copyright_t, "(C) John Sankey 1998"
1, 0, Program_c, 0, 6
1, 0, Pitch_bend_c, 0, 8192
1, 0, Program_c, 1, 6
1, 0, Pitch_bend_c, 1, 7792
1, 0, Program_c, 2, 6
1, 0, Pitch_bend_c, 2, 7876
1, 0, Program_c, 3, 6
1, 0, Pitch_bend_c, 3, 7952
1, 0, Program_c, 4, 6
1, 0, Pitch_bend_c, 4, 7792
1, 0, Program_c, 5, 6
1, 0, Pitch_bend_c, 5, 8112
1, 0, Program_c, 6, 6
1, 0, Pitch_bend_c, 6, 7712
1, 0, Program_c, 7, 6
1, 0, Pitch_bend_c, 7, 8037
1, 0, Program_c, 8, 6
1, 0, Pitch_bend_c, 8, 7872
1, 0, Program_c, 10, 6
1, 0, Pitch_bend_c, 10, 7712
1, 0, Program_c, 11, 6
1, 0, Pitch_bend_c, 11, 8032
1, 0, Program_c, 12, 6
1, 0, Pitch_bend_c, 12, 7872
1, 0, Tempo, 500000
1, 113, Note_on_c, 4, 52, 127
1, 427, Note_on_c, 7, 55, 127
1, 474, Note_on_c, 12, 59, 127
1, 521, Note_on_c, 4, 64, 127
1, 569, Note_on_c, 7, 67, 127
1, 616, Note_on_c, 12, 71, 127
1, 663, Note_on_c, 4, 76, 127
1, 710, Note_on_c, 7, 79, 127
1, 1135, Note_off_c, 7, 79, 127
1, 1136, Note_off_c, 4, 76, 127
1, 1136, Note_off_c, 12, 71, 127
1, 1136, Note_off_c, 4, 64, 127
1, 1136, Note_off_c, 12, 59, 127
1, 1136, Note_off_c, 7, 55, 127
1, 1137, Note_off_c, 7, 67, 127
1, 1208, Note_on_c, 7, 79, 127
1, 1222, Note_off_c, 4, 52, 127
1, 1277, Note_off_c, 7, 79, 127
1, 1278, Note_on_c, 0, 72, 127
1, 1278, Note_on_c, 10, 69, 127
1, 1278, Note_on_c, 10, 57, 127
1, 1278, Note_on_c, 0, 60, 127
1, 1278, Note_on_c, 4, 52, 127
1, 1278, Note_on_c, 7, 79, 127
1, 1916, Note_off_c, 7, 79, 127
1, 1918, Note_on_c, 6, 78, 127
1, 2415, Note_off_c, 4, 52, 127
1, 2415, Note_off_c, 0, 60, 127
1, 2415, Note_off_c, 10, 57, 127
1, 2415, Note_off_c, 10, 69, 127
1, 2415, Note_off_c, 0, 72, 127
1, 2571, Note_off_c, 6, 78, 127
1, 2658, Note_on_c, 3, 51, 127
1, 2889, Note_on_c, 6, 54, 127
1, 2957, Note_on_c, 10, 57, 127
1, 3026, Note_on_c, 0, 60, 127
1, 3094, Note_on_c, 3, 63, 127
1, 3162, Note_on_c, 6, 66, 127
1, 3234, Note_on_c, 7, 67, 127
1, 3299, Note_on_c, 10, 69, 127
1, 3367, Note_off_c, 7, 67, 127
1, 3654, Note_off_c, 3, 63, 127
1, 3654, Note_off_c, 10, 57, 127
1, 3654, Note_off_c, 6, 54, 127
1, 3724, Note_off_c, 10, 69, 127
1, 3725, Note_on_c, 10, 69, 127
1, 3754, Note_off_c, 3, 51, 127
1, 3772, Note_off_c, 0, 60, 127
1, 3783, Note_off_c, 6, 66, 127
1, 3794, Note_off_c, 10, 69, 127
1, 3795, Note_on_c, 4, 52, 127
1, 3795, Note_on_c, 0, 60, 127
1, 3795, Note_on_c, 3, 63, 127
1, 3795, Note_on_c, 6, 66, 127
1, 3795, Note_on_c, 10, 69, 127
1, 4433, Note_off_c, 10, 69, 127
1, 4433, Note_off_c, 6, 66, 127
1, 4433, Note_off_c, 3, 63, 127
1, 4434, Note_off_c, 0, 60, 127
1, 4435, Note_on_c, 12, 59, 127
1, 4435, Note_on_c, 4, 64, 127
1, 4435, Note_on_c, 7, 67, 127
1, 5041, Note_off_c, 4, 52, 127
1, 5051, Note_off_c, 12, 59, 127
1, 5073, Note_off_c, 4, 64, 127
1, 5196, Note_on_c, 4, 64, 127
1, 5209, Note_off_c, 7, 67, 127
1, 5276, Note_on_c, 7, 67, 127
1, 5355, Note_off_c, 7, 67, 127
1, 5357, Note_on_c, 12, 71, 127
1, 5436, Note_off_c, 12, 71, 127
1, 5437, Note_on_c, 0, 72, 127
1, 5516, Note_off_c, 0, 72, 127
1, 5518, Note_on_c, 2, 74, 127
1, 5579, Note_off_c, 4, 64, 127
1, 5597, Note_off_c, 2, 74, 127
1, 5599, Note_on_c, 0, 72, 127
1, 5678, Note_off_c, 0, 72, 127
1, 5680, Note_on_c, 12, 71, 127
1, 5759, Note_off_c, 12, 71, 127
1, 5761, Note_on_c, 10, 69, 127
1, 5841, Note_on_c, 0, 72, 127
1, 5920, Note_off_c, 0, 72, 127
1, 5922, Note_on_c, 4, 76, 127
1, 6001, Note_off_c, 4, 76, 127
1, 6002, Note_on_c, 6, 78, 127
1, 6081, Note_off_c, 6, 78, 127
1, 6083, Note_on_c, 7, 79, 127
1, 6144, Note_off_c, 10, 69, 127
1, 6162, Note_off_c, 7, 79, 127
1, 6164, Note_on_c, 6, 78, 127
1, 6243, Note_off_c, 6, 78, 127
1, 6245, Note_on_c, 4, 76, 127
1, 6324, Note_off_c, 4, 76, 127
1, 6326, Note_on_c, 2, 62, 127
1, 6406, Note_on_c, 6, 66, 127
1, 6485, Note_off_c, 6, 66, 127
1, 6486, Note_on_c, 10, 69, 127
1, 6565, Note_off_c, 10, 69, 127
1, 6567, Note_on_c, 12, 71, 127
1, 6646, Note_off_c, 12, 71, 127
1, 6648, Note_on_c, 0, 72, 127
1, 6709, Note_off_c, 2, 62, 127
1, 6727, Note_off_c, 0, 72, 127
1, 6729, Note_on_c, 12, 71, 127
1, 6808, Note_off_c, 12, 71, 127
1, 6810, Note_on_c, 10, 69, 127
1, 6889, Note_off_c, 10, 69, 127
1, 6891, Note_on_c, 7, 67, 127
1, 6970, Note_on_c, 12, 71, 127
1, 7049, Note_off_c, 12, 71, 127
1, 7051, Note_on_c, 3, 75, 127
1, 7130, Note_off_c, 3, 75, 127
1, 7132, Note_on_c, 4, 76, 127
1, 7211, Note_off_c, 4, 76, 127
1, 7213, Note_on_c, 6, 78, 127
1, 7274, Note_off_c, 7, 67, 127
1, 7292, Note_off_c, 6, 78, 127
1, 7294, Note_on_c, 4, 76, 127
1, 7373, Note_off_c, 4, 76, 127
1, 7375, Note_on_c, 3, 75, 127
1, 7454, Note_off_c, 3, 75, 127
1, 7456, Note_on_c, 0, 60, 127
1, 7535, Note_on_c, 4, 64, 127
1, 7614, Note_off_c, 4, 64, 127
1, 7616, Note_on_c, 7, 67, 127
1, 7695, Note_off_c, 7, 67, 127
1, 7697, Note_on_c, 10, 69, 127
1, 7776, Note_off_c, 10, 69, 127
1, 7778, Note_on_c, 12, 71, 127
1, 7839, Note_off_c, 0, 60, 127
1, 7857, Note_off_c, 12, 71, 127
1, 7859, Note_on_c, 10, 69, 127
1, 7938, Note_off_c, 10, 69, 127
1, 7940, Note_on_c, 7, 67, 127
1, 8019, Note_off_c, 7, 67, 127
1, 8020, Note_on_c, 6, 66, 127
1, 8100, Note_on_c, 11, 70, 127
1, 8179, Note_off_c, 11, 70, 127
1, 8181, Note_on_c, 1, 73, 127
1, 8260, Note_off_c, 1, 73, 127
1, 8262, Note_on_c, 3, 75, 127
1, 8341, Note_off_c, 3, 75, 127
1, 8343, Note_on_c, 4, 76, 127
1, 8403, Note_off_c, 6, 66, 127
1, 8422, Note_off_c, 4, 76, 127
1, 8424, Note_on_c, 3, 75, 127
1, 8503, Note_off_c, 3, 75, 127
1, 8505, Note_on_c, 1, 73, 127
1, 8584, Note_off_c, 1, 73, 127
1, 8585, Note_on_c, 12, 71, 127
1, 8665, Note_on_c, 3, 75, 127
1, 8744, Note_off_c, 3, 75, 127
1, 8746, Note_on_c, 6, 78, 127
1, 8825, Note_off_c, 6, 78, 127
1, 8827, Note_on_c, 7, 79, 127
1, 8906, Note_off_c, 7, 79, 127
1, 8908, Note_on_c, 10, 81, 127
1, 8968, Note_off_c, 12, 71, 127
1, 8987, Note_off_c, 10, 81, 127
1, 8989, Note_on_c, 7, 79, 127
1, 9068, Note_off_c, 7, 79, 127
1, 9069, Note_on_c, 6, 78, 127
1, 9148, Note_off_c, 6, 78, 127
1, 9150, Note_on_c, 3, 75, 127
1, 9230, Note_on_c, 6, 78, 127
1, 9309, Note_off_c, 6, 78, 127
1, 9311, Note_on_c, 10, 81, 127
1, 9390, Note_off_c, 10, 81, 127
1, 9392, Note_on_c, 12, 83, 127
1, 9471, Note_off_c, 12, 83, 127
1, 9473, Note_on_c, 0, 84, 127
1, 9533, Note_off_c, 3, 75, 127
1, 9597, Note_off_c, 0, 84, 127
1, 9615, Note_on_c, 12, 83, 127
1, 9742, Note_off_c, 12, 83, 127
1, 9749, Note_on_c, 10, 81, 127
1, 9891, Note_on_c, 4, 52, 127
1, 9902, Note_off_c, 10, 81, 127
1, 10104, Note_on_c, 7, 55, 127
1, 10176, Note_on_c, 12, 59, 127
1, 10247, Note_on_c, 4, 64, 127
1, 10318, Note_on_c, 7, 67, 127
1, 10390, Note_on_c, 12, 71, 127
1, 10461, Note_on_c, 4, 76, 127
1, 10533, Note_on_c, 7, 79, 127
1, 10958, Note_off_c, 7, 79, 127
1, 10958, Note_off_c, 4, 76, 127
1, 10958, Note_off_c, 7, 67, 127
1, 10958, Note_off_c, 4, 64, 127
1, 10958, Note_off_c, 7, 55, 127
1, 10958, Note_off_c, 4, 52, 127
1, 10959, Note_off_c, 12, 71, 127
1, 10959, Note_off_c, 12, 59, 127
1, 10959, Note_on_c, 7, 79, 127
1, 11030, Note_off_c, 7, 79, 127
1, 11030, Note_on_c, 10, 57, 127
1, 11030, Note_on_c, 1, 61, 127
1, 11030, Note_on_c, 4, 64, 127
1, 11030, Note_on_c, 10, 69, 127
1, 11030, Note_on_c, 7, 79, 127
1, 11173, Note_on_c, 6, 78, 127
1, 11312, Note_off_c, 7, 79, 127
1, 11313, Note_off_c, 6, 78, 127
1, 11315, Note_on_c, 4, 76, 127
1, 11455, Note_off_c, 4, 76, 127
1, 11457, Note_on_c, 6, 78, 127
1, 11526, Note_off_c, 6, 78, 127
1, 11527, Note_on_c, 7, 79, 127
1, 11596, Note_off_c, 7, 79, 127
1, 11597, Note_on_c, 2, 74, 127
1, 11950, Note_off_c, 2, 74, 127
1, 11952, Note_on_c, 1, 73, 127
1, 12165, Note_off_c, 10, 69, 127
1, 12165, Note_off_c, 4, 64, 127
1, 12165, Note_off_c, 1, 61, 127
1, 12165, Note_off_c, 10, 57, 127
1, 12307, Note_on_c, 2, 50, 127
1, 12335, Note_off_c, 1, 73, 127
1, 12544, Note_on_c, 6, 54, 127
1, 12616, Note_on_c, 10, 57, 127
1, 12687, Note_on_c, 2, 62, 127
1, 12758, Note_on_c, 6, 66, 127
1, 12830, Note_on_c, 10, 69, 127
1, 12901, Note_on_c, 1, 73, 127
1, 12973, Note_on_c, 6, 78, 127
1, 13374, Note_off_c, 2, 50, 127
1, 13398, Note_off_c, 6, 78, 127
1, 13398, Note_off_c, 1, 73, 127
1, 13398, Note_off_c, 6, 66, 127
1, 13398, Note_off_c, 2, 62, 127
1, 13398, Note_off_c, 6, 54, 127
1, 13399, Note_off_c, 10, 69, 127
1, 13399, Note_off_c, 10, 57, 127
1, 13399, Note_on_c, 6, 78, 127
1, 13468, Note_off_c, 6, 78, 127
1, 13469, Note_on_c, 7, 67, 127
1, 13469, Note_on_c, 6, 78, 127
1, 13469, Note_on_c, 2, 62, 127
1, 13469, Note_on_c, 12, 59, 127
1, 13469, Note_on_c, 7, 55, 127
1, 13612, Note_on_c, 4, 76, 127
1, 13751, Note_off_c, 6, 78, 127
1, 13752, Note_off_c, 4, 76, 127
1, 13754, Note_on_c, 2, 74, 127
1, 13894, Note_off_c, 2, 74, 127
1, 13896, Note_on_c, 4, 76, 127
1, 13965, Note_off_c, 4, 76, 127
1, 13966, Note_on_c, 6, 78, 127
1, 14035, Note_off_c, 6, 78, 127
1, 14036, Note_on_c, 1, 73, 127
1, 14319, Note_off_c, 1, 73, 127
1, 14321, Note_on_c, 12, 71, 127
1, 14605, Note_off_c, 7, 55, 127
1, 14605, Note_off_c, 12, 59, 127
1, 14605, Note_off_c, 2, 62, 127
1, 14605, Note_off_c, 7, 67, 127
1, 14674, Note_off_c, 12, 71, 127
1, 14676, Note_on_c, 7, 67, 127
1, 14756, Note_on_c, 12, 71, 127
1, 14835, Note_off_c, 12, 71, 127
1, 14836, Note_on_c, 1, 73, 127
1, 14915, Note_off_c, 1, 73, 127
1, 14917, Note_on_c, 2, 74, 127
1, 14996, Note_off_c, 2, 74, 127
1, 14998, Note_on_c, 4, 76, 127
1, 15059, Note_off_c, 7, 67, 127
1, 15077, Note_off_c, 4, 76, 127
1, 15079, Note_on_c, 2, 74, 127
1, 15158, Note_off_c, 2, 74, 127
1, 15160, Note_on_c, 1, 73, 127
1, 15239, Note_off_c, 1, 73, 127
1, 15241, Note_on_c, 6, 66, 127
1, 15320, Note_on_c, 11, 70, 127
1, 15399, Note_off_c, 11, 70, 127
1, 15401, Note_on_c, 12, 71, 127
1, 15480, Note_off_c, 12, 71, 127
1, 15482, Note_on_c, 1, 73, 127
1, 15561, Note_off_c, 1, 73, 127
1, 15563, Note_on_c, 2, 74, 127
1, 15624, Note_off_c, 6, 66, 127
1, 15642, Note_off_c, 2, 74, 127
1, 15644, Note_on_c, 1, 73, 127
1, 15723, Note_off_c, 1, 73, 127
1, 15725, Note_on_c, 12, 71, 127
1, 15804, Note_off_c, 12, 71, 127
1, 15806, Note_on_c, 4, 64, 127
1, 15885, Note_on_c, 7, 67, 127
1, 15964, Note_off_c, 7, 67, 127
1, 15966, Note_on_c, 11, 70, 127
1, 16045, Note_off_c, 11, 70, 127
1, 16047, Note_on_c, 12, 71, 127
1, 16126, Note_off_c, 12, 71, 127
1, 16128, Note_on_c, 1, 73, 127
1, 16189, Note_off_c, 4, 64, 127
1, 16207, Note_off_c, 1, 73, 127
1, 16209, Note_on_c, 12, 71, 127
1, 16288, Note_off_c, 12, 71, 127
1, 16290, Note_on_c, 11, 70, 127
1, 16369, Note_off_c, 11, 70, 127
1, 16370, Note_on_c, 1, 61, 127
1, 16450, Note_on_c, 11, 70, 127
1, 16529, Note_off_c, 11, 70, 127
1, 16531, Note_on_c, 4, 76, 127
1, 16610, Note_off_c, 4, 76, 127
1, 16612, Note_on_c, 6, 78, 127
1, 16691, Note_off_c, 6, 78, 127
1, 16693, Note_on_c, 7, 79, 127
1, 16753, Note_off_c, 1, 61, 127
1, 16772, Note_off_c, 7, 79, 127
1, 16774, Note_on_c, 6, 78, 127
1, 16853, Note_off_c, 6, 78, 127
1, 16854, Note_on_c, 4, 76, 127
1, 16933, Note_off_c, 4, 76, 127
1, 16935, Note_on_c, 2, 62, 127
1, 16935, Note_on_c, 6, 78, 127
1, 17360, Note_off_c, 6, 78, 127
1, 17360, Note_off_c, 2, 62, 127
1, 17433, Note_on_c, 7, 55, 127
1, 17433, Note_on_c, 12, 71, 127
1, 17433, Note_on_c, 2, 62, 127
1, 17433, Note_on_c, 7, 67, 127
1, 17573, Note_off_c, 7, 67, 127
1, 17573, Note_off_c, 2, 62, 127
1, 17573, Note_off_c, 12, 71, 127
1, 17573, Note_off_c, 7, 55, 127
1, 17575, Note_on_c, 4, 52, 127
1, 17575, Note_on_c, 7, 67, 127
1, 17575, Note_on_c, 4, 64, 127
1, 17575, Note_on_c, 1, 73, 127
1, 17930, Note_off_c, 1, 73, 127
1, 17930, Note_off_c, 4, 64, 127
1, 17930, Note_off_c, 7, 67, 127
1, 17930, Note_off_c, 4, 52, 127
1, 18002, Note_on_c, 6, 54, 127
1, 18002, Note_on_c, 1, 61, 127
1, 18002, Note_on_c, 6, 66, 127
1, 18002, Note_on_c, 11, 70, 127
1, 18141, Note_off_c, 6, 66, 127
1, 18142, Note_off_c, 11, 70, 127
1, 18142, Note_off_c, 1, 61, 127
1, 18142, Note_off_c, 6, 54, 127
1, 18144, Note_on_c, 12, 47, 127
1, 18144, Note_on_c, 12, 59, 127
1, 18144, Note_on_c, 4, 64, 127
1, 18144, Note_on_c, 11, 70, 127
1, 18144, Note_on_c, 6, 66, 127
1, 18712, Note_off_c, 11, 70, 127
1, 18712, Note_off_c, 4, 64, 127
1, 18713, Note_on_c, 12, 71, 127
1, 18713, Note_on_c, 3, 63, 127
1, 18856, Note_on_c, 10, 69, 127
1, 18891, Note_off_c, 12, 71, 127
1, 18915, Note_off_c, 12, 47, 127
1, 18959, Note_off_c, 12, 59, 127
1, 18996, Note_off_c, 10, 69, 127
1, 18996, Note_off_c, 6, 66, 127
1, 18998, Note_on_c, 7, 67, 127
1, 19068, Note_off_c, 3, 63, 127
1, 19138, Note_off_c, 7, 67, 127
1, 19139, Note_on_c, 6, 66, 127
1, 19279, Note_off_c, 6, 66, 127
1, 19281, Note_on_c, 4, 64, 127
1, 19281, Note_on_c, 7, 67, 127
1, 19421, Note_off_c, 7, 67, 127
1, 19423, Note_on_c, 11, 70, 127
1, 19563, Note_off_c, 11, 70, 127
1, 19563, Note_off_c, 4, 64, 127
1, 19565, Note_on_c, 12, 59, 127
1, 19565, Note_on_c, 12, 71, 127
1, 19705, Note_off_c, 12, 71, 127
1, 19706, Note_on_c, 1, 73, 127
1, 19846, Note_off_c, 1, 73, 127
1, 19847, Note_off_c, 12, 59, 127
1, 19848, Note_on_c, 7, 55, 127
1, 19848, Note_on_c, 12, 71, 127
1, 19988, Note_off_c, 12, 71, 127
1, 19990, Note_on_c, 11, 70, 127
1, 20130, Note_off_c, 11, 70, 127
1, 20130, Note_off_c, 7, 55, 127
1, 20132, Note_on_c, 4, 64, 127
1, 20132, Note_on_c, 12, 71, 127
1, 20272, Note_off_c, 12, 71, 127
1, 20273, Note_on_c, 7, 67, 127
1, 20413, Note_off_c, 7, 67, 127
1, 20414, Note_off_c, 4, 64, 127
1, 20415, Note_on_c, 2, 62, 127
1, 20415, Note_on_c, 6, 66, 127
1, 20555, Note_off_c, 6, 66, 127
1, 20557, Note_on_c, 11, 70, 127
1, 20697, Note_off_c, 11, 70, 127
1, 20697, Note_off_c, 2, 62, 127
1, 20699, Note_on_c, 12, 59, 127
1, 20699, Note_on_c, 12, 71, 127
1, 20839, Note_off_c, 12, 71, 127
1, 20840, Note_on_c, 1, 73, 127
1, 20980, Note_off_c, 1, 73, 127
1, 20981, Note_off_c, 12, 59, 127
1, 20982, Note_on_c, 6, 54, 127
1, 20982, Note_on_c, 12, 71, 127
1, 21122, Note_off_c, 12, 71, 127
1, 21124, Note_on_c, 11, 70, 127
1, 21264, Note_off_c, 11, 70, 127
1, 21264, Note_off_c, 6, 54, 127
1, 21266, Note_on_c, 2, 62, 127
1, 21266, Note_on_c, 12, 71, 127
1, 21406, Note_off_c, 12, 71, 127
1, 21407, Note_on_c, 6, 66, 127
1, 21547, Note_off_c, 6, 66, 127
1, 21548, Note_off_c, 2, 62, 127
1, 21549, Note_on_c, 1, 61, 127
1, 21549, Note_on_c, 4, 64, 127
1, 21689, Note_off_c, 4, 64, 127
1, 21691, Note_on_c, 12, 71, 127
1, 21831, Note_off_c, 12, 71, 127
1, 21831, Note_off_c, 1, 61, 127
1, 21833, Note_on_c, 11, 58, 127
1, 21833, Note_on_c, 1, 73, 127
1, 21973, Note_off_c, 1, 73, 127
1, 21974, Note_on_c, 2, 74, 127
1, 22114, Note_off_c, 2, 74, 127
1, 22115, Note_off_c, 11, 58, 127
1, 22116, Note_on_c, 4, 52, 127
1, 22116, Note_on_c, 1, 73, 127
1, 22256, Note_off_c, 1, 73, 127
1, 22258, Note_on_c, 12, 71, 127
1, 22398, Note_off_c, 12, 71, 127
1, 22398, Note_off_c, 4, 52, 127
1, 22400, Note_on_c, 11, 58, 127
1, 22400, Note_on_c, 1, 73, 127
1, 22540, Note_off_c, 1, 73, 127
1, 22541, Note_on_c, 4, 64, 127
1, 22681, Note_off_c, 4, 64, 127
1, 22682, Note_off_c, 11, 58, 127
1, 22683, Note_on_c, 12, 59, 127
1, 22683, Note_on_c, 2, 62, 127
1, 22823, Note_off_c, 2, 62, 127
1, 22825, Note_on_c, 6, 66, 127
1, 22965, Note_off_c, 6, 66, 127
1, 22965, Note_off_c, 12, 59, 127
1, 22967, Note_on_c, 6, 54, 127
1, 22967, Note_on_c, 8, 68, 127
1, 23107, Note_off_c, 8, 68, 127
1, 23108, Note_on_c, 11, 70, 127
1, 23248, Note_off_c, 11, 70, 127
1, 23249, Note_off_c, 6, 54, 127
1, 23250, Note_on_c, 2, 50, 127
1, 23250, Note_on_c, 12, 71, 127
1, 23390, Note_off_c, 12, 71, 127
1, 23392, Note_on_c, 6, 66, 127
1, 23532, Note_off_c, 6, 66, 127
1, 23532, Note_off_c, 2, 50, 127
1, 23534, Note_on_c, 6, 54, 127
1, 23534, Note_on_c, 2, 74, 127
1, 23674, Note_off_c, 2, 74, 127
1, 23675, Note_on_c, 12, 71, 127
1, 23815, Note_off_c, 12, 71, 127
1, 23816, Note_off_c, 6, 54, 127
1, 23817, Note_on_c, 7, 55, 127
1, 23817, Note_on_c, 4, 76, 127
1, 23957, Note_off_c, 7, 55, 127
1, 23959, Note_on_c, 11, 58, 127
1, 24099, Note_off_c, 11, 58, 127
1, 24101, Note_on_c, 12, 59, 127
1, 24101, Note_on_c, 12, 71, 127
1, 24241, Note_off_c, 12, 59, 127
1, 24242, Note_on_c, 1, 61, 127
1, 24378, Note_off_c, 4, 76, 127
1, 24382, Note_off_c, 1, 61, 127
1, 24383, Note_off_c, 12, 71, 127
1, 24384, Note_on_c, 12, 59, 127
1, 24384, Note_on_c, 7, 67, 127
1, 24524, Note_off_c, 12, 59, 127
1, 24526, Note_on_c, 11, 58, 127
1, 24666, Note_off_c, 11, 58, 127
1, 24666, Note_off_c, 7, 67, 127
1, 24668, Note_on_c, 12, 59, 127
1, 24668, Note_on_c, 4, 76, 127
1, 24808, Note_off_c, 12, 59, 127
1, 24809, Note_on_c, 7, 55, 127
1, 24949, Note_off_c, 7, 55, 127
1, 24950, Note_off_c, 4, 76, 127
1, 24951, Note_on_c, 6, 54, 127
1, 24951, Note_on_c, 2, 74, 127
1, 25091, Note_off_c, 6, 54, 127
1, 25093, Note_on_c, 11, 58, 127
1, 25233, Note_off_c, 11, 58, 127
1, 25235, Note_on_c, 12, 59, 127
1, 25235, Note_on_c, 12, 71, 127
1, 25375, Note_off_c, 12, 59, 127
1, 25376, Note_on_c, 1, 61, 127
1, 25512, Note_off_c, 2, 74, 127
1, 25516, Note_off_c, 1, 61, 127
1, 25517, Note_off_c, 12, 71, 127
1, 25518, Note_on_c, 12, 59, 127
1, 25518, Note_on_c, 6, 66, 127
1, 25658, Note_off_c, 12, 59, 127
1, 25660, Note_on_c, 11, 58, 127
1, 25800, Note_off_c, 11, 58, 127
1, 25800, Note_off_c, 6, 66, 127
1, 25802, Note_on_c, 12, 59, 127
1, 25802, Note_on_c, 2, 74, 127
1, 25942, Note_off_c, 12, 59, 127
1, 25943, Note_on_c, 6, 54, 127
1, 26083, Note_off_c, 6, 54, 127
1, 26084, Note_off_c, 2, 74, 127
1, 26085, Note_on_c, 4, 52, 127
1, 26085, Note_on_c, 1, 73, 127
1, 26225, Note_off_c, 4, 52, 127
1, 26227, Note_on_c, 12, 59, 127
1, 26367, Note_off_c, 12, 59, 127
1, 26369, Note_on_c, 1, 61, 127
1, 26369, Note_on_c, 11, 70, 127
1, 26509, Note_off_c, 1, 61, 127
1, 26510, Note_on_c, 2, 62, 127
1, 26646, Note_off_c, 1, 73, 127
1, 26650, Note_off_c, 2, 62, 127
1, 26651, Note_off_c, 11, 70, 127
1, 26652, Note_on_c, 1, 61, 127
1, 26652, Note_on_c, 4, 64, 127
1, 26792, Note_off_c, 1, 61, 127
1, 26794, Note_on_c, 12, 59, 127
1, 26934, Note_off_c, 12, 59, 127
1, 26934, Note_off_c, 4, 64, 127
1, 26936, Note_on_c, 1, 61, 127
1, 26936, Note_on_c, 11, 70, 127
1, 27076, Note_off_c, 1, 61, 127
1, 27077, Note_on_c, 4, 52, 127
1, 27217, Note_off_c, 4, 52, 127
1, 27218, Note_off_c, 11, 70, 127
1, 27219, Note_on_c, 2, 50, 127
1, 27219, Note_on_c, 12, 71, 127
1, 27359, Note_off_c, 2, 50, 127
1, 27361, Note_on_c, 1, 49, 127
1, 27501, Note_off_c, 1, 49, 127
1, 27503, Note_on_c, 2, 50, 127
1, 27503, Note_on_c, 6, 66, 127
1, 27643, Note_off_c, 2, 50, 127
1, 27644, Note_on_c, 6, 54, 127
1, 27780, Note_off_c, 12, 71, 127
1, 27784, Note_off_c, 6, 54, 127
1, 27785, Note_off_c, 6, 66, 127
1, 27786, Note_on_c, 12, 59, 127
1, 27786, Note_on_c, 2, 62, 127
1, 27926, Note_off_c, 12, 59, 127
1, 27928, Note_on_c, 6, 54, 127
1, 28067, Note_off_c, 2, 62, 127
1, 28068, Note_off_c, 6, 54, 127
1, 28070, Note_on_c, 2, 62, 127
1, 28210, Note_off_c, 2, 62, 127
1, 28211, Note_on_c, 12, 59, 127
1, 28351, Note_off_c, 12, 59, 127
1, 28353, Note_on_c, 8, 56, 127
1, 28566, Note_on_c, 12, 59, 127
1, 28638, Note_on_c, 2, 62, 127
1, 28709, Note_on_c, 4, 64, 127
1, 28780, Note_on_c, 12, 71, 127
1, 28852, Note_on_c, 4, 76, 127
1, 28923, Note_on_c, 8, 80, 127
1, 28995, Note_on_c, 12, 83, 127
1, 29420, Note_off_c, 12, 83, 127
1, 29420, Note_off_c, 8, 80, 127
1, 29420, Note_off_c, 12, 71, 127
1, 29420, Note_off_c, 4, 64, 127
1, 29420, Note_off_c, 12, 59, 127
1, 29420, Note_off_c, 8, 56, 127
1, 29421, Note_off_c, 4, 76, 127
1, 29421, Note_off_c, 2, 62, 127
1, 29421, Note_on_c, 12, 71, 127
1, 29421, Note_on_c, 2, 74, 127
1, 29490, Note_off_c, 2, 74, 127
1, 29490, Note_off_c, 12, 71, 127
1, 29491, Note_on_c, 10, 57, 127
1, 29491, Note_on_c, 4, 64, 127
1, 29491, Note_on_c, 12, 71, 127
1, 29491, Note_on_c, 2, 74, 127
1, 30129, Note_off_c, 2, 74, 127
1, 30129, Note_off_c, 12, 71, 127
1, 30131, Note_on_c, 0, 72, 127
1, 30131, Note_on_c, 10, 69, 127
1, 30628, Note_off_c, 4, 64, 127
1, 30628, Note_off_c, 10, 57, 127
1, 30698, Note_off_c, 10, 69, 127
1, 30698, Note_off_c, 0, 72, 127
1, 30794, Note_on_c, 6, 54, 127
1, 31007, Note_on_c, 10, 57, 127
1, 31079, Note_on_c, 0, 60, 127
1, 31150, Note_on_c, 2, 62, 127
1, 31221, Note_on_c, 10, 69, 127
1, 31293, Note_on_c, 2, 74, 127
1, 31364, Note_on_c, 6, 78, 127
1, 31436, Note_on_c, 10, 81, 127
1, 31789, Note_off_c, 10, 81, 127
1, 31790, Note_off_c, 6, 78, 127
1, 31790, Note_off_c, 2, 74, 127
1, 31790, Note_off_c, 10, 69, 127
1, 31790, Note_off_c, 2, 62, 127
1, 31790, Note_off_c, 0, 60, 127
1, 31790, Note_off_c, 10, 57, 127
1, 31790, Note_off_c, 6, 54, 127
1, 31820, Note_on_c, 0, 72, 127
1, 31820, Note_on_c, 10, 69, 127
1, 31929, Note_off_c, 10, 69, 127
1, 31929, Note_off_c, 0, 72, 127
1, 31932, Note_on_c, 0, 72, 127
1, 31932, Note_on_c, 10, 69, 127
1, 31932, Note_on_c, 2, 62, 127
1, 31932, Note_on_c, 7, 55, 127
1, 32572, Note_off_c, 10, 69, 127
1, 32572, Note_off_c, 0, 72, 127
1, 32573, Note_on_c, 7, 67, 127
1, 32573, Note_on_c, 12, 71, 127
1, 32999, Note_off_c, 7, 55, 127
1, 32999, Note_off_c, 2, 62, 127
1, 33255, Note_off_c, 12, 71, 127
1, 33255, Note_off_c, 7, 67, 127
1, 33285, Note_on_c, 8, 56, 127
1, 33365, Note_on_c, 12, 59, 127
1, 33444, Note_off_c, 8, 56, 127
1, 33445, Note_off_c, 12, 59, 127
1, 33445, Note_on_c, 2, 62, 127
1, 33526, Note_off_c, 2, 62, 127
1, 33527, Note_on_c, 4, 64, 127
1, 33608, Note_off_c, 4, 64, 127
1, 33609, Note_on_c, 5, 65, 127
1, 33690, Note_off_c, 5, 65, 127
1, 33691, Note_on_c, 4, 64, 127
1, 33772, Note_off_c, 4, 64, 127
1, 33773, Note_on_c, 2, 62, 127
1, 33851, Note_off_c, 2, 62, 127
1, 33855, Note_on_c, 10, 57, 127
1, 33935, Note_on_c, 0, 60, 127
1, 34016, Note_off_c, 0, 60, 127
1, 34017, Note_on_c, 3, 63, 127
1, 34095, Note_off_c, 10, 57, 127
1, 34098, Note_off_c, 3, 63, 127
1, 34098, Note_on_c, 4, 64, 127
1, 34179, Note_off_c, 4, 64, 127
1, 34180, Note_on_c, 6, 66, 127
1, 34261, Note_off_c, 6, 66, 127
1, 34262, Note_on_c, 4, 64, 127
1, 34343, Note_off_c, 4, 64, 127
1, 34344, Note_on_c, 3, 63, 127
1, 34422, Note_off_c, 3, 63, 127
1, 34426, Note_on_c, 11, 58, 127
1, 34506, Note_on_c, 1, 61, 127
1, 34587, Note_off_c, 1, 61, 127
1, 34588, Note_on_c, 4, 64, 127
1, 34669, Note_off_c, 4, 64, 127
1, 34670, Note_on_c, 6, 66, 127
1, 34746, Note_off_c, 11, 58, 127
1, 34750, Note_off_c, 6, 66, 127
1, 34751, Note_on_c, 7, 67, 127
1, 34832, Note_off_c, 7, 67, 127
1, 34832, Note_on_c, 6, 66, 127
1, 34913, Note_off_c, 6, 66, 127
1, 34914, Note_on_c, 4, 64, 127
1, 34992, Note_off_c, 4, 64, 127
1, 34996, Note_on_c, 12, 59, 127
1, 35076, Note_on_c, 2, 62, 127
1, 35157, Note_off_c, 2, 62, 127
1, 35158, Note_on_c, 5, 65, 127
1, 35239, Note_off_c, 5, 65, 127
1, 35240, Note_on_c, 6, 66, 127
1, 35321, Note_off_c, 6, 66, 127
1, 35322, Note_on_c, 8, 68, 127
1, 35382, Note_off_c, 12, 59, 127
1, 35403, Note_off_c, 8, 68, 127
1, 35404, Note_on_c, 6, 66, 127
1, 35485, Note_off_c, 6, 66, 127
1, 35486, Note_on_c, 5, 65, 127
1, 35564, Note_off_c, 5, 65, 127
1, 35567, Note_on_c, 0, 60, 127
1, 35647, Note_on_c, 3, 63, 127
1, 35729, Note_on_c, 6, 66, 127
1, 35807, Note_off_c, 3, 63, 127
1, 35810, Note_off_c, 6, 66, 127
1, 35811, Note_on_c, 7, 67, 127
1, 35892, Note_off_c, 7, 67, 127
1, 35893, Note_on_c, 10, 69, 127
1, 35953, Note_off_c, 0, 60, 127
1, 35974, Note_off_c, 10, 69, 127
1, 35975, Note_on_c, 7, 67, 127
1, 36056, Note_off_c, 7, 67, 127
1, 36057, Note_on_c, 6, 66, 127
1, 36135, Note_off_c, 6, 66, 127
1, 36139, Note_on_c, 1, 61, 127
1, 36218, Note_on_c, 4, 64, 127
1, 36300, Note_on_c, 7, 67, 127
1, 36381, Note_off_c, 7, 67, 127
1, 36382, Note_on_c, 10, 69, 127
1, 36458, Note_off_c, 4, 64, 127
1, 36462, Note_off_c, 10, 69, 127
1, 36463, Note_on_c, 11, 70, 127
1, 36524, Note_off_c, 1, 61, 127
1, 36544, Note_off_c, 11, 70, 127
1, 36545, Note_on_c, 10, 69, 127
1, 36626, Note_off_c, 10, 69, 127
1, 36627, Note_on_c, 7, 67, 127
1, 36705, Note_off_c, 7, 67, 127
1, 36709, Note_on_c, 2, 62, 127
1, 36789, Note_on_c, 5, 65, 127
1, 36870, Note_on_c, 8, 68, 127
1, 36952, Note_on_c, 10, 69, 127
1, 37029, Note_off_c, 8, 68, 127
1, 37029, Note_off_c, 5, 65, 127
1, 37032, Note_off_c, 10, 69, 127
1, 37033, Note_on_c, 12, 71, 127
1, 37094, Note_off_c, 2, 62, 127
1, 37114, Note_off_c, 12, 71, 127
1, 37115, Note_on_c, 10, 69, 127
1, 37196, Note_off_c, 10, 69, 127
1, 37197, Note_on_c, 8, 68, 127
1, 37275, Note_off_c, 8, 68, 127
1, 37279, Note_on_c, 3, 63, 127
1, 37359, Note_on_c, 6, 66, 127
1, 37438, Note_off_c, 3, 63, 127
1, 37440, Note_on_c, 10, 69, 127
1, 37518, Note_off_c, 6, 66, 127
1, 37521, Note_on_c, 12, 71, 127
1, 37600, Note_off_c, 12, 71, 127
1, 37600, Note_off_c, 10, 69, 127
1, 37602, Note_on_c, 0, 72, 127
1, 37693, Note_on_c, 12, 71, 127
1, 37761, Note_off_c, 0, 72, 127
1, 37772, Note_off_c, 12, 71, 127
1, 37776, Note_on_c, 10, 69, 127
1, 37885, Note_off_c, 10, 69, 127
1, 37917, Note_on_c, 4, 52, 127
1, 38130, Note_on_c, 7, 55, 127
1, 38202, Note_on_c, 12, 59, 127
1, 38273, Note_on_c, 4, 64, 127
1, 38345, Note_on_c, 7, 67, 127
1, 38416, Note_on_c, 12, 71, 127
1, 38487, Note_on_c, 4, 76, 127
1, 38559, Note_on_c, 7, 79, 127
1, 38984, Note_off_c, 7, 79, 127
1, 38984, Note_off_c, 4, 76, 127
1, 38984, Note_off_c, 4, 64, 127
1, 38984, Note_off_c, 7, 55, 127
1, 38984, Note_off_c, 4, 52, 127
1, 38985, Note_off_c, 12, 71, 127
1, 38985, Note_off_c, 7, 67, 127
1, 38985, Note_off_c, 12, 59, 127
1, 38985, Note_on_c, 7, 79, 127
1, 39054, Note_off_c, 7, 79, 127
1, 39056, Note_on_c, 0, 72, 127
1, 39056, Note_on_c, 10, 69, 127
1, 39056, Note_on_c, 4, 64, 127
1, 39056, Note_on_c, 7, 79, 127
1, 39056, Note_on_c, 0, 60, 127
1, 39056, Note_on_c, 10, 57, 127
1, 39694, Note_off_c, 7, 79, 127
1, 39695, Note_on_c, 5, 77, 127
1, 40193, Note_off_c, 10, 57, 127
1, 40193, Note_off_c, 0, 60, 127
1, 40193, Note_off_c, 4, 64, 127
1, 40193, Note_off_c, 10, 69, 127
1, 40193, Note_off_c, 0, 72, 127
1, 40262, Note_off_c, 5, 77, 127
1, 40334, Note_on_c, 12, 59, 127
1, 40548, Note_on_c, 2, 62, 127
1, 40619, Note_on_c, 5, 65, 127
1, 40690, Note_on_c, 8, 68, 127
1, 40762, Note_on_c, 12, 71, 127
1, 40833, Note_on_c, 2, 74, 127
1, 40905, Note_on_c, 5, 77, 127
1, 40976, Note_on_c, 8, 80, 127
1, 41401, Note_off_c, 8, 80, 127
1, 41401, Note_off_c, 8, 68, 127
1, 41401, Note_off_c, 12, 59, 127
1, 41402, Note_off_c, 5, 77, 127
1, 41402, Note_off_c, 2, 74, 127
1, 41402, Note_off_c, 12, 71, 127
1, 41402, Note_off_c, 5, 65, 127
1, 41402, Note_off_c, 2, 62, 127
1, 41402, Note_on_c, 8, 80, 127
1, 41471, Note_off_c, 8, 80, 127
1, 41473, Note_on_c, 0, 72, 127
1, 41473, Note_on_c, 8, 80, 127
1, 41473, Note_on_c, 4, 76, 127
1, 41473, Note_on_c, 10, 69, 127
1, 41473, Note_on_c, 4, 64, 127
1, 41473, Note_on_c, 0, 60, 127
1, 42111, Note_off_c, 8, 80, 127
1, 42125, Note_on_c, 10, 81, 127
1, 42681, Note_off_c, 4, 64, 127
1, 42681, Note_off_c, 10, 69, 127
1, 42681, Note_off_c, 4, 76, 127
1, 42725, Note_off_c, 0, 72, 127
1, 42752, Note_off_c, 0, 60, 127
1, 42823, Note_on_c, 0, 72, 127
1, 42834, Note_off_c, 10, 81, 127
1, 42903, Note_on_c, 4, 76, 127
1, 42982, Note_off_c, 4, 76, 127
1, 42984, Note_on_c, 6, 78, 127
1, 43063, Note_off_c, 6, 78, 127
1, 43064, Note_on_c, 7, 79, 127
1, 43143, Note_off_c, 7, 79, 127
1, 43145, Note_on_c, 10, 81, 127
1, 43206, Note_off_c, 0, 72, 127
1, 43224, Note_off_c, 10, 81, 127
1, 43226, Note_on_c, 7, 79, 127
1, 43305, Note_off_c, 7, 79, 127
1, 43307, Note_on_c, 6, 78, 127
1, 43386, Note_off_c, 6, 78, 127
1, 43388, Note_on_c, 12, 71, 127
1, 43468, Note_on_c, 3, 75, 127
1, 43550, Note_on_c, 4, 76, 127
1, 43628, Note_off_c, 3, 75, 127
1, 43629, Note_off_c, 4, 76, 127
1, 43630, Note_on_c, 6, 78, 127
1, 43709, Note_off_c, 6, 78, 127
1, 43711, Note_on_c, 7, 79, 127
1, 43772, Note_off_c, 12, 71, 127
1, 43790, Note_off_c, 7, 79, 127
1, 43792, Note_on_c, 6, 78, 127
1, 43871, Note_off_c, 6, 78, 127
1, 43873, Note_on_c, 4, 76, 127
1, 43952, Note_off_c, 4, 76, 127
1, 43954, Note_on_c, 10, 69, 127
1, 44034, Note_on_c, 0, 72, 127
1, 44113, Note_off_c, 0, 72, 127
1, 44114, Note_on_c, 3, 75, 127
1, 44196, Note_on_c, 4, 76, 127
1, 44275, Note_off_c, 4, 76, 127
1, 44277, Note_on_c, 6, 78, 127
1, 44338, Note_off_c, 10, 69, 127
1, 44354, Note_off_c, 3, 75, 127
1, 44357, Note_off_c, 6, 78, 127
1, 44359, Note_on_c, 4, 76, 127
1, 44438, Note_off_c, 4, 76, 127
1, 44440, Note_on_c, 3, 75, 127
1, 44519, Note_off_c, 3, 75, 127
1, 44521, Note_on_c, 6, 66, 127
1, 44601, Note_on_c, 3, 75, 127
1, 44682, Note_on_c, 10, 81, 127
1, 44761, Note_off_c, 10, 81, 127
1, 44763, Note_on_c, 12, 83, 127
1, 44842, Note_off_c, 12, 83, 127
1, 44844, Note_on_c, 0, 84, 127
1, 44918, Note_off_c, 6, 66, 127
1, 44920, Note_off_c, 3, 75, 127
1, 44923, Note_off_c, 0, 84, 127
1, 44941, Note_on_c, 12, 83, 127
1, 45020, Note_off_c, 12, 83, 127
1, 45022, Note_on_c, 10, 81, 127
1, 45101, Note_off_c, 10, 81, 127
1, 45103, Note_on_c, 12, 83, 127
1, 45103, Note_on_c, 7, 67, 127
1, 45528, Note_off_c, 7, 67, 127
1, 45528, Note_off_c, 12, 83, 127
1, 45600, Note_on_c, 0, 60, 127
1, 45600, Note_on_c, 4, 76, 127
1, 45600, Note_on_c, 0, 72, 127
1, 45600, Note_on_c, 7, 67, 127
1, 45740, Note_off_c, 7, 67, 127
1, 45740, Note_off_c, 0, 72, 127
1, 45740, Note_off_c, 4, 76, 127
1, 45740, Note_off_c, 0, 60, 127
1, 45742, Note_on_c, 10, 57, 127
1, 45742, Note_on_c, 6, 78, 127
1, 45742, Note_on_c, 0, 72, 127
1, 45742, Note_on_c, 10, 69, 127
1, 46152, Note_off_c, 10, 69, 127
1, 46152, Note_off_c, 0, 72, 127
1, 46152, Note_off_c, 6, 78, 127
1, 46152, Note_off_c, 10, 57, 127
1, 46178, Note_on_c, 12, 59, 127
1, 46178, Note_on_c, 3, 75, 127
1, 46178, Note_on_c, 6, 66, 127
1, 46178, Note_on_c, 12, 71, 127
1, 46308, Note_off_c, 12, 71, 127
1, 46308, Note_off_c, 3, 75, 127
1, 46309, Note_off_c, 6, 66, 127
1, 46310, Note_on_c, 4, 64, 127
1, 46310, Note_on_c, 4, 52, 127
1, 46310, Note_on_c, 12, 71, 127
1, 46310, Note_on_c, 3, 75, 127
1, 46310, Note_on_c, 10, 69, 127
1, 46317, Note_off_c, 12, 59, 127
1, 46878, Note_off_c, 10, 69, 127
1, 46878, Note_off_c, 3, 75, 127
1, 46878, Note_off_c, 12, 71, 127
1, 46879, Note_on_c, 4, 76, 127
1, 46879, Note_on_c, 8, 68, 127
1, 47019, Note_off_c, 4, 76, 127
1, 47021, Note_on_c, 2, 74, 127
1, 47161, Note_off_c, 2, 74, 127
1, 47161, Note_off_c, 4, 52, 127
1, 47161, Note_off_c, 4, 64, 127
1, 47163, Note_on_c, 0, 72, 127
1, 47292, Note_off_c, 8, 68, 127
1, 47303, Note_off_c, 0, 72, 127
1, 47305, Note_on_c, 12, 71, 127
1, 47445, Note_off_c, 12, 71, 127
1, 47446, Note_on_c, 10, 69, 127
1, 47446, Note_on_c, 0, 72, 127
1, 47586, Note_off_c, 0, 72, 127
1, 47588, Note_on_c, 3, 75, 127
1, 47728, Note_off_c, 3, 75, 127
1, 47728, Note_off_c, 10, 69, 127
1, 47730, Note_on_c, 4, 64, 127
1, 47730, Note_on_c, 4, 76, 127
1, 47870, Note_off_c, 4, 76, 127
1, 47872, Note_on_c, 6, 78, 127
1, 48012, Note_off_c, 6, 78, 127
1, 48012, Note_off_c, 4, 64, 127
1, 48013, Note_on_c, 0, 60, 127
1, 48013, Note_on_c, 4, 76, 127
1, 48153, Note_off_c, 4, 76, 127
1, 48155, Note_on_c, 3, 75, 127
1, 48295, Note_off_c, 3, 75, 127
1, 48295, Note_off_c, 0, 60, 127
1, 48297, Note_on_c, 10, 69, 127
1, 48297, Note_on_c, 4, 76, 127
1, 48437, Note_off_c, 4, 76, 127
1, 48439, Note_on_c, 0, 72, 127
1, 48579, Note_off_c, 0, 72, 127
1, 48579, Note_off_c, 10, 69, 127
1, 48580, Note_on_c, 7, 67, 127
1, 48580, Note_on_c, 12, 71, 127
1, 48720, Note_off_c, 12, 71, 127
1, 48722, Note_on_c, 3, 75, 127
1, 48862, Note_off_c, 3, 75, 127
1, 48862, Note_off_c, 7, 67, 127
1, 48864, Note_on_c, 4, 64, 127
1, 48864, Note_on_c, 4, 76, 127
1, 49004, Note_off_c, 4, 76, 127
1, 49006, Note_on_c, 6, 78, 127
1, 49146, Note_off_c, 6, 78, 127
1, 49146, Note_off_c, 4, 64, 127
1, 49147, Note_on_c, 12, 59, 127
1, 49147, Note_on_c, 4, 76, 127
1, 49287, Note_off_c, 4, 76, 127
1, 49289, Note_on_c, 3, 75, 127
1, 49429, Note_off_c, 3, 75, 127
1, 49429, Note_off_c, 12, 59, 127
1, 49431, Note_on_c, 7, 67, 127
1, 49431, Note_on_c, 4, 76, 127
1, 49571, Note_off_c, 4, 76, 127
1, 49573, Note_on_c, 12, 71, 127
1, 49713, Note_off_c, 12, 71, 127
1, 49713, Note_off_c, 7, 67, 127
1, 49714, Note_on_c, 6, 66, 127
1, 49714, Note_on_c, 10, 69, 127
1, 49854, Note_off_c, 10, 69, 127
1, 49856, Note_on_c, 4, 76, 127
1, 49996, Note_off_c, 4, 76, 127
1, 49996, Note_off_c, 6, 66, 127
1, 49998, Note_on_c, 3, 63, 127
1, 49998, Note_on_c, 6, 78, 127
1, 50138, Note_off_c, 6, 78, 127
1, 50140, Note_on_c, 7, 79, 127
1, 50280, Note_off_c, 7, 79, 127
1, 50280, Note_off_c, 3, 63, 127
1, 50281, Note_on_c, 10, 57, 127
1, 50281, Note_on_c, 6, 78, 127
1, 50421, Note_off_c, 6, 78, 127
1, 50423, Note_on_c, 4, 76, 127
1, 50563, Note_off_c, 4, 76, 127
1, 50563, Note_off_c, 10, 57, 127
1, 50565, Note_on_c, 3, 63, 127
1, 50565, Note_on_c, 6, 78, 127
1, 50705, Note_off_c, 6, 78, 127
1, 50707, Note_on_c, 10, 69, 127
1, 50847, Note_off_c, 10, 69, 127
1, 50847, Note_off_c, 3, 63, 127
1, 50848, Note_on_c, 4, 64, 127
1, 50848, Note_on_c, 7, 67, 127
1, 50988, Note_off_c, 7, 67, 127
1, 50990, Note_on_c, 6, 66, 127
1, 51130, Note_off_c, 6, 66, 127
1, 51130, Note_off_c, 4, 64, 127
1, 51132, Note_on_c, 12, 59, 127
1, 51132, Note_on_c, 7, 67, 127
1, 51272, Note_off_c, 7, 67, 127
1, 51274, Note_on_c, 12, 71, 127
1, 51414, Note_off_c, 12, 71, 127
1, 51414, Note_off_c, 12, 59, 127
1, 51415, Note_on_c, 7, 55, 127
1, 51415, Note_on_c, 4, 76, 127
1, 51555, Note_off_c, 4, 76, 127
1, 51557, Note_on_c, 12, 71, 127
1, 51697, Note_off_c, 12, 71, 127
1, 51697, Note_off_c, 7, 55, 127
1, 51699, Note_on_c, 12, 59, 127
1, 51699, Note_on_c, 7, 79, 127
1, 51839, Note_off_c, 7, 79, 127
1, 51841, Note_on_c, 4, 76, 127
1, 51981, Note_off_c, 4, 76, 127
1, 51981, Note_off_c, 12, 59, 127
1, 51982, Note_on_c, 0, 60, 127
1, 51982, Note_on_c, 10, 69, 127
1, 52122, Note_off_c, 0, 60, 127
1, 52124, Note_on_c, 3, 51, 127
1, 52264, Note_off_c, 3, 51, 127
1, 52266, Note_on_c, 4, 52, 127
1, 52266, Note_on_c, 4, 76, 127
1, 52406, Note_off_c, 4, 52, 127
1, 52408, Note_on_c, 6, 54, 127
1, 52543, Note_off_c, 10, 69, 127
1, 52548, Note_off_c, 6, 54, 127
1, 52549, Note_on_c, 4, 52, 127
1, 52549, Note_on_c, 0, 84, 127
1, 52689, Note_off_c, 4, 52, 127
1, 52691, Note_on_c, 3, 51, 127
1, 52827, Note_off_c, 4, 76, 127
1, 52831, Note_off_c, 3, 51, 127
1, 52831, Note_off_c, 0, 84, 127
1, 52833, Note_on_c, 4, 52, 127
1, 52833, Note_on_c, 10, 69, 127
1, 52973, Note_off_c, 4, 52, 127
1, 52975, Note_on_c, 0, 60, 127
1, 53115, Note_off_c, 0, 60, 127
1, 53115, Note_off_c, 10, 69, 127
1, 53116, Note_on_c, 12, 59, 127
1, 53116, Note_on_c, 7, 67, 127
1, 53256, Note_off_c, 12, 59, 127
1, 53258, Note_on_c, 3, 51, 127
1, 53398, Note_off_c, 3, 51, 127
1, 53400, Note_on_c, 4, 52, 127
1, 53400, Note_on_c, 4, 76, 127
1, 53540, Note_off_c, 4, 52, 127
1, 53542, Note_on_c, 6, 54, 127
1, 53677, Note_off_c, 7, 67, 127
1, 53682, Note_off_c, 6, 54, 127
1, 53683, Note_on_c, 4, 52, 127
1, 53683, Note_on_c, 12, 83, 127
1, 53823, Note_off_c, 4, 52, 127
1, 53825, Note_on_c, 3, 51, 127
1, 53961, Note_off_c, 4, 76, 127
1, 53965, Note_off_c, 3, 51, 127
1, 53965, Note_off_c, 12, 83, 127
1, 53967, Note_on_c, 4, 52, 127
1, 53967, Note_on_c, 7, 67, 127
1, 54107, Note_off_c, 4, 52, 127
1, 54109, Note_on_c, 12, 59, 127
1, 54249, Note_off_c, 12, 59, 127
1, 54249, Note_off_c, 7, 67, 127
1, 54250, Note_on_c, 10, 57, 127
1, 54250, Note_on_c, 6, 66, 127
1, 54390, Note_off_c, 10, 57, 127
1, 54392, Note_on_c, 4, 52, 127
1, 54532, Note_off_c, 4, 52, 127
1, 54534, Note_on_c, 6, 54, 127
1, 54534, Note_on_c, 3, 75, 127
1, 54674, Note_off_c, 6, 54, 127
1, 54676, Note_on_c, 7, 55, 127
1, 54811, Note_off_c, 6, 66, 127
1, 54816, Note_off_c, 7, 55, 127
1, 54817, Note_on_c, 6, 54, 127
1, 54817, Note_on_c, 10, 81, 127
1, 54957, Note_off_c, 6, 54, 127
1, 54959, Note_on_c, 4, 52, 127
1, 55095, Note_off_c, 3, 75, 127
1, 55099, Note_off_c, 4, 52, 127
1, 55099, Note_off_c, 10, 81, 127
1, 55101, Note_on_c, 6, 54, 127
1, 55101, Note_on_c, 3, 75, 127
1, 55241, Note_off_c, 6, 54, 127
1, 55243, Note_on_c, 10, 57, 127
1, 55383, Note_off_c, 10, 57, 127
1, 55383, Note_off_c, 3, 75, 127
1, 55384, Note_on_c, 7, 55, 127
1, 55384, Note_on_c, 4, 64, 127
1, 55524, Note_off_c, 7, 55, 127
1, 55526, Note_on_c, 6, 54, 127
1, 55666, Note_off_c, 6, 54, 127
1, 55668, Note_on_c, 7, 55, 127
1, 55668, Note_on_c, 12, 71, 127
1, 55808, Note_off_c, 7, 55, 127
1, 55810, Note_on_c, 12, 59, 127
1, 55856, Note_off_c, 4, 64, 127
1, 55950, Note_off_c, 12, 59, 127
1, 55951, Note_on_c, 4, 64, 127
1, 55951, Note_on_c, 7, 79, 127
1, 56022, Note_off_c, 12, 71, 127
1, 56091, Note_off_c, 4, 64, 127
1, 56093, Note_on_c, 7, 67, 127
1, 56233, Note_off_c, 7, 67, 127
1, 56235, Note_on_c, 1, 61, 127
1, 56375, Note_off_c, 1, 61, 127
1, 56377, Note_on_c, 4, 64, 127
1, 56516, Note_off_c, 7, 79, 127
1, 56517, Note_off_c, 4, 64, 127
1, 56518, Note_on_c, 11, 58, 127
1, 56731, Note_on_c, 1, 61, 127
1, 56803, Note_on_c, 4, 64, 127
1, 56874, Note_on_c, 7, 67, 127
1, 56946, Note_on_c, 11, 70, 127
1, 57017, Note_on_c, 1, 73, 127
1, 57088, Note_on_c, 4, 76, 127
1, 57160, Note_on_c, 7, 79, 127
1, 57586, Note_off_c, 4, 76, 127
1, 57586, Note_off_c, 7, 67, 127
1, 57586, Note_off_c, 1, 61, 127
1, 57587, Note_off_c, 1, 73, 127
1, 57656, Note_off_c, 7, 79, 127
1, 57658, Note_on_c, 6, 78, 127
1, 57687, Note_off_c, 11, 70, 127
1, 57693, Note_off_c, 4, 64, 127
1, 57721, Note_off_c, 11, 58, 127
1, 57728, Note_off_c, 6, 78, 127
1, 57729, Note_on_c, 10, 57, 127
1, 57729, Note_on_c, 12, 59, 127
1, 57729, Note_on_c, 4, 76, 127
1, 57729, Note_on_c, 12, 71, 127
1, 57729, Note_on_c, 6, 66, 127
1, 57872, Note_on_c, 3, 75, 127
1, 58011, Note_off_c, 12, 71, 127
1, 58011, Note_off_c, 4, 76, 127
1, 58012, Note_off_c, 3, 75, 127
1, 58014, Note_on_c, 1, 73, 127
1, 58154, Note_off_c, 1, 73, 127
1, 58155, Note_on_c, 12, 71, 127
1, 58226, Note_off_c, 6, 66, 127
1, 58295, Note_off_c, 12, 71, 127
1, 58296, Note_off_c, 10, 57, 127
1, 58297, Note_on_c, 7, 55, 127
1, 58297, Note_on_c, 4, 76, 127
1, 58297, Note_on_c, 4, 64, 127
1, 58850, Note_off_c, 4, 64, 127
1, 58850, Note_off_c, 4, 76, 127
1, 58850, Note_off_c, 7, 55, 127
1, 58850, Note_off_c, 12, 59, 127
1, 58867, Note_on_c, 10, 57, 127
1, 58867, Note_on_c, 0, 60, 127
1, 58867, Note_on_c, 4, 64, 127
1, 58936, Note_off_c, 4, 64, 127
1, 58936, Note_off_c, 0, 60, 127
1, 58936, Note_off_c, 10, 57, 127
1, 58938, Note_on_c, 12, 59, 127
1, 58938, Note_on_c, 4, 64, 127
1, 58938, Note_on_c, 7, 67, 127
1, 59279, Note_off_c, 7, 67, 127
1, 59279, Note_off_c, 12, 59, 127
1, 59293, Note_on_c, 0, 60, 127
1, 59293, Note_on_c, 10, 57, 127
1, 59293, Note_on_c, 10, 69, 127
1, 59362, Note_off_c, 10, 69, 127
1, 59364, Note_on_c, 7, 67, 127
1, 59433, Note_off_c, 7, 67, 127
1, 59434, Note_on_c, 6, 66, 127
1, 59499, Note_off_c, 4, 64, 127
1, 59503, Note_off_c, 6, 66, 127
1, 59505, Note_on_c, 7, 67, 127
1, 59573, Note_off_c, 10, 57, 127
1, 59573, Note_off_c, 0, 60, 127
1, 59574, Note_off_c, 7, 67, 127
1, 59575, Note_on_c, 12, 59, 127
1, 59575, Note_on_c, 10, 69, 127
1, 60071, Note_off_c, 10, 69, 127
1, 60071, Note_off_c, 12, 59, 127
1, 60073, Note_on_c, 10, 57, 127
1, 60073, Note_on_c, 12, 47, 127
1, 60073, Note_on_c, 3, 63, 127
1, 60073, Note_on_c, 6, 66, 127
1, 60176, Note_off_c, 6, 66, 127
1, 60176, Note_off_c, 3, 63, 127
1, 60176, Note_off_c, 12, 47, 127
1, 60176, Note_off_c, 10, 57, 127
1, 60180, Note_on_c, 4, 52, 127
1, 60180, Note_on_c, 10, 57, 127
1, 60180, Note_on_c, 12, 59, 127
1, 60180, Note_on_c, 6, 66, 127
1, 60180, Note_on_c, 3, 63, 127
1, 60748, Note_off_c, 12, 59, 127
1, 60832, Note_off_c, 3, 63, 127
1, 60832, Note_off_c, 6, 66, 127
1, 60832, Note_off_c, 10, 57, 127
1, 60856, Note_on_c, 7, 55, 127
1, 60856, Note_on_c, 4, 64, 127
1, 61306, Note_off_c, 4, 52, 127
1, 61405, Note_on_c, 4, 52, 127
1, 61409, Note_off_c, 7, 55, 127
1, 61567, Note_off_c, 4, 64, 127
1, 61687, Note_off_c, 4, 52, 127
1, 61701, Note_on_c, 6, 54, 127
1, 61769, Note_off_c, 6, 54, 127
1, 61773, Note_on_c, 4, 52, 127
1, 61841, Note_off_c, 4, 52, 127
1, 61844, Note_on_c, 6, 54, 127
1, 61912, Note_off_c, 6, 54, 127
1, 61916, Note_on_c, 4, 52, 127
1, 61984, Note_off_c, 4, 52, 127
1, 61987, Note_on_c, 3, 51, 127
1, 62401, Note_off_c, 3, 51, 127
1, 62556, Note_on_c, 6, 54, 127
1, 62837, Note_off_c, 6, 54, 127
1, 62841, Note_on_c, 7, 55, 127
1, 62909, Note_off_c, 7, 55, 127
1, 62912, Note_on_c, 6, 54, 127
1, 62980, Note_off_c, 6, 54, 127
1, 62983, Note_on_c, 7, 55, 127
1, 63051, Note_off_c, 7, 55, 127
1, 63055, Note_on_c, 6, 54, 127
1, 63123, Note_off_c, 6, 54, 127
1, 63126, Note_on_c, 4, 52, 127
1, 63540, Note_off_c, 4, 52, 127
1, 63695, Note_on_c, 7, 55, 127
1, 63976, Note_off_c, 7, 55, 127
1, 63980, Note_on_c, 10, 57, 127
1, 64048, Note_off_c, 10, 57, 127
1, 64051, Note_on_c, 7, 55, 127
1, 64119, Note_off_c, 7, 55, 127
1, 64123, Note_on_c, 10, 57, 127
1, 64191, Note_off_c, 10, 57, 127
1, 64194, Note_on_c, 7, 55, 127
1, 64262, Note_off_c, 7, 55, 127
1, 64265, Note_on_c, 6, 54, 127
1, 64404, Note_off_c, 6, 54, 127
1, 64408, Note_on_c, 7, 55, 127
1, 64547, Note_off_c, 7, 55, 127
1, 64551, Note_on_c, 10, 57, 127
1, 64832, Note_off_c, 10, 57, 127
1, 64836, Note_on_c, 0, 48, 127
1, 65117, Note_off_c, 0, 48, 127
1, 65120, Note_on_c, 12, 47, 127
1, 65401, Note_off_c, 12, 47, 127
1, 65405, Note_on_c, 3, 51, 127
1, 65686, Note_off_c, 3, 51, 127
1, 65689, Note_on_c, 4, 52, 127
1, 65974, Note_on_c, 7, 55, 127
1, 65979, Note_off_c, 4, 52, 127
1, 66247, Note_off_c, 7, 55, 127
1, 66258, Note_on_c, 10, 45, 127
1, 66543, Note_on_c, 6, 54, 127
1, 66548, Note_off_c, 10, 45, 127
1, 66818, Note_off_c, 6, 54, 127
1, 66829, Note_on_c, 12, 47, 127
1, 67113, Note_on_c, 3, 51, 127
1, 67119, Note_off_c, 12, 47, 127
1, 67386, Note_off_c, 3, 51, 127
1, 67398, Note_on_c, 4, 52, 127
1, 67537, Note_off_c, 4, 52, 127
1, 67540, Note_on_c, 7, 55, 127
1, 67679, Note_off_c, 7, 55, 127
1, 67683, Note_on_c, 6, 54, 127
1, 67822, Note_off_c, 6, 54, 127
1, 67826, Note_on_c, 4, 52, 127
1, 67965, Note_off_c, 4, 52, 127
1, 67969, Note_on_c, 2, 50, 127
1, 68108, Note_off_c, 2, 50, 127
1, 68112, Note_on_c, 6, 54, 127
1, 68251, Note_off_c, 6, 54, 127
1, 68254, Note_on_c, 4, 52, 127
1, 68254, Note_on_c, 12, 59, 127
1, 68393, Note_off_c, 4, 52, 127
1, 68397, Note_on_c, 2, 50, 127
1, 68536, Note_off_c, 2, 50, 127
1, 68536, Note_off_c, 12, 59, 127
1, 68540, Note_on_c, 1, 49, 127
1, 68540, Note_on_c, 1, 61, 127
1, 68608, Note_off_c, 1, 61, 127
1, 68611, Note_on_c, 12, 59, 127
1, 68679, Note_off_c, 12, 59, 127
1, 68679, Note_off_c, 1, 49, 127
1, 68683, Note_on_c, 4, 52, 127
1, 68683, Note_on_c, 1, 61, 127
1, 68751, Note_off_c, 1, 61, 127
1, 68754, Note_on_c, 12, 59, 127
1, 68822, Note_off_c, 12, 59, 127
1, 68822, Note_off_c, 4, 52, 127
1, 68826, Note_on_c, 6, 54, 127
1, 68826, Note_on_c, 11, 58, 127
1, 68965, Note_off_c, 6, 54, 127
1, 68968, Note_on_c, 7, 55, 127
1, 69107, Note_off_c, 7, 55, 127
1, 69111, Note_on_c, 11, 46, 127
1, 69241, Note_off_c, 11, 58, 127
1, 69249, Note_off_c, 11, 46, 127
1, 69253, Note_on_c, 7, 55, 127
1, 69392, Note_off_c, 7, 55, 127
1, 69396, Note_on_c, 6, 54, 127
1, 69396, Note_on_c, 1, 61, 127
1, 69535, Note_off_c, 6, 54, 127
1, 69539, Note_on_c, 4, 52, 127
1, 69678, Note_off_c, 4, 52, 127
1, 69678, Note_off_c, 1, 61, 127
1, 69681, Note_on_c, 2, 50, 127
1, 69681, Note_on_c, 2, 62, 127
1, 69749, Note_off_c, 2, 62, 127
1, 69753, Note_on_c, 1, 61, 127
1, 69820, Note_off_c, 2, 50, 127
1, 69821, Note_off_c, 1, 61, 127
1, 69824, Note_on_c, 6, 54, 127
1, 69824, Note_on_c, 2, 62, 127
1, 69892, Note_off_c, 2, 62, 127
1, 69896, Note_on_c, 1, 61, 127
1, 69963, Note_off_c, 6, 54, 127
1, 69964, Note_off_c, 1, 61, 127
1, 69967, Note_on_c, 8, 56, 127
1, 69967, Note_on_c, 12, 59, 127
1, 70106, Note_off_c, 8, 56, 127
1, 70110, Note_on_c, 11, 58, 127
1, 70249, Note_off_c, 11, 58, 127
1, 70253, Note_on_c, 12, 47, 127
1, 70382, Note_off_c, 12, 59, 127
1, 70391, Note_off_c, 12, 47, 127
1, 70394, Note_on_c, 10, 57, 127
1, 70533, Note_off_c, 10, 57, 127
1, 70537, Note_on_c, 7, 55, 127
1, 70537, Note_on_c, 2, 62, 127
1, 70676, Note_off_c, 7, 55, 127
1, 70680, Note_on_c, 6, 54, 127
1, 70819, Note_off_c, 6, 54, 127
1, 70819, Note_off_c, 2, 62, 127
1, 70823, Note_on_c, 4, 52, 127
1, 70823, Note_on_c, 4, 64, 127
1, 70891, Note_off_c, 4, 64, 127
1, 70894, Note_on_c, 2, 62, 127
1, 70962, Note_off_c, 2, 62, 127
1, 70962, Note_off_c, 4, 52, 127
1, 70966, Note_on_c, 8, 56, 127
1, 70966, Note_on_c, 4, 64, 127
1, 71034, Note_off_c, 4, 64, 127
1, 71037, Note_on_c, 2, 62, 127
1, 71105, Note_off_c, 2, 62, 127
1, 71105, Note_off_c, 8, 56, 127
1, 71108, Note_on_c, 11, 58, 127
1, 71108, Note_on_c, 1, 61, 127
1, 71247, Note_off_c, 1, 61, 127
1, 71247, Note_off_c, 11, 58, 127
1, 71251, Note_on_c, 12, 59, 127
1, 71251, Note_on_c, 2, 62, 127
1, 71390, Note_off_c, 2, 62, 127
1, 71390, Note_off_c, 12, 59, 127
1, 71394, Note_on_c, 1, 49, 127
1, 71394, Note_on_c, 4, 64, 127
1, 71533, Note_off_c, 1, 49, 127
1, 71537, Note_on_c, 2, 50, 127
1, 71676, Note_off_c, 2, 50, 127
1, 71676, Note_off_c, 4, 64, 127
1, 71680, Note_on_c, 4, 52, 127
1, 71680, Note_on_c, 7, 55, 127
1, 71961, Note_off_c, 7, 55, 127
1, 71964, Note_on_c, 6, 54, 127
1, 72050, Note_off_c, 4, 52, 127
1, 72107, Note_on_c, 4, 52, 127
1, 72246, Note_off_c, 4, 52, 127
1, 72246, Note_off_c, 6, 54, 127
1, 72250, Note_on_c, 2, 50, 127
1, 72250, Note_on_c, 11, 58, 127
1, 72389, Note_off_c, 2, 50, 127
1, 72392, Note_on_c, 1, 49, 127
1, 72531, Note_off_c, 1, 49, 127
1, 72532, Note_off_c, 11, 58, 127
1, 72535, Note_on_c, 2, 50, 127
1, 72535, Note_on_c, 12, 59, 127
1, 72674, Note_off_c, 2, 50, 127
1, 72678, Note_on_c, 1, 49, 127
1, 72817, Note_off_c, 1, 49, 127
1, 72817, Note_off_c, 12, 59, 127
1, 72821, Note_on_c, 12, 47, 127
1, 72821, Note_on_c, 2, 62, 127
1, 73102, Note_off_c, 2, 62, 127
1, 73105, Note_on_c, 4, 52, 127
1, 73176, Note_off_c, 12, 47, 127
1, 73248, Note_on_c, 12, 47, 127
1, 73387, Note_off_c, 12, 47, 127
1, 73387, Note_off_c, 4, 52, 127
1, 73391, Note_on_c, 11, 46, 127
1, 73391, Note_on_c, 1, 61, 127
1, 73530, Note_off_c, 11, 46, 127
1, 73534, Note_on_c, 8, 44, 127
1, 73673, Note_off_c, 8, 44, 127
1, 73673, Note_off_c, 1, 61, 127
1, 73677, Note_on_c, 11, 46, 127
1, 73677, Note_on_c, 6, 54, 127
1, 73816, Note_off_c, 11, 46, 127
1, 73819, Note_on_c, 12, 47, 127
1, 73958, Note_off_c, 12, 47, 127
1, 73959, Note_off_c, 6, 54, 127
1, 73962, Note_on_c, 1, 49, 127
1, 73962, Note_on_c, 11, 58, 127
1, 74101, Note_off_c, 1, 49, 127
1, 74105, Note_on_c, 6, 42, 127
1, 74216, Note_off_c, 11, 58, 127
1, 74244, Note_off_c, 6, 42, 127
1, 74248, Note_on_c, 2, 50, 127
1, 74248, Note_on_c, 12, 59, 127
1, 74387, Note_off_c, 12, 59, 127
1, 74387, Note_off_c, 2, 50, 127
1, 74391, Note_on_c, 1, 49, 127
1, 74391, Note_on_c, 1, 61, 127
1, 74530, Note_off_c, 1, 61, 127
1, 74530, Note_off_c, 1, 49, 127
1, 74533, Note_on_c, 12, 47, 127
1, 74533, Note_on_c, 2, 62, 127
1, 74672, Note_off_c, 12, 47, 127
1, 74676, Note_on_c, 11, 46, 127
1, 74815, Note_off_c, 11, 46, 127
1, 74819, Note_on_c, 12, 47, 127
1, 74958, Note_off_c, 12, 47, 127
1, 74962, Note_on_c, 1, 49, 127
1, 75068, Note_off_c, 2, 62, 127
1, 75101, Note_off_c, 1, 49, 127
1, 75105, Note_on_c, 2, 50, 127
1, 75105, Note_on_c, 12, 59, 127
1, 75244, Note_off_c, 2, 50, 127
1, 75247, Note_on_c, 6, 42, 127
1, 75386, Note_off_c, 6, 42, 127
1, 75387, Note_off_c, 12, 59, 127
1, 75390, Note_on_c, 4, 52, 127
1, 75390, Note_on_c, 1, 61, 127
1, 75529, Note_off_c, 1, 61, 127
1, 75529, Note_off_c, 4, 52, 127
1, 75533, Note_on_c, 2, 50, 127
1, 75533, Note_on_c, 2, 62, 127
1, 75672, Note_off_c, 2, 62, 127
1, 75672, Note_off_c, 2, 50, 127
1, 75676, Note_on_c, 1, 49, 127
1, 75676, Note_on_c, 4, 64, 127
1, 75815, Note_off_c, 1, 49, 127
1, 75819, Note_on_c, 12, 47, 127
1, 75958, Note_off_c, 12, 47, 127
1, 75961, Note_on_c, 1, 49, 127
1, 76100, Note_off_c, 1, 49, 127
1, 76104, Note_on_c, 2, 50, 127
1, 76211, Note_off_c, 4, 64, 127
1, 76243, Note_off_c, 2, 50, 127
1, 76247, Note_on_c, 4, 52, 127
1, 76247, Note_on_c, 1, 61, 127
1, 76386, Note_off_c, 4, 52, 127
1, 76390, Note_on_c, 6, 42, 127
1, 76529, Note_off_c, 6, 42, 127
1, 76529, Note_off_c, 1, 61, 127
1, 76533, Note_on_c, 6, 54, 127
1, 76533, Note_on_c, 3, 63, 127
1, 76672, Note_off_c, 3, 63, 127
1, 76672, Note_off_c, 6, 54, 127
1, 76675, Note_on_c, 4, 52, 127
1, 76675, Note_on_c, 4, 64, 127
1, 76814, Note_off_c, 4, 64, 127
1, 76814, Note_off_c, 4, 52, 127
1, 76818, Note_on_c, 3, 51, 127
1, 76818, Note_on_c, 6, 66, 127
1, 76957, Note_off_c, 3, 51, 127
1, 76961, Note_on_c, 1, 49, 127
1, 77100, Note_off_c, 1, 49, 127
1, 77104, Note_on_c, 3, 51, 127
1, 77243, Note_off_c, 3, 51, 127
1, 77247, Note_on_c, 4, 52, 127
1, 77372, Note_off_c, 6, 66, 127
1, 77386, Note_off_c, 4, 52, 127
1, 77389, Note_on_c, 6, 54, 127
1, 77389, Note_on_c, 4, 64, 127
1, 77528, Note_off_c, 4, 64, 127
1, 77528, Note_off_c, 6, 54, 127
1, 77532, Note_on_c, 12, 47, 127
1, 77532, Note_on_c, 3, 63, 127
1, 77671, Note_off_c, 3, 63, 127
1, 77671, Note_off_c, 12, 47, 127
1, 77675, Note_on_c, 7, 55, 127
1, 77675, Note_on_c, 4, 64, 127
1, 77814, Note_off_c, 4, 64, 127
1, 77814, Note_off_c, 7, 55, 127
1, 77818, Note_on_c, 6, 54, 127
1, 77818, Note_on_c, 6, 66, 127
1, 77957, Note_off_c, 6, 66, 127
1, 77957, Note_off_c, 6, 54, 127
1, 77961, Note_on_c, 4, 52, 127
1, 77961, Note_on_c, 7, 67, 127
1, 78100, Note_off_c, 4, 52, 127
1, 78103, Note_on_c, 3, 51, 127
1, 78242, Note_off_c, 3, 51, 127
1, 78246, Note_on_c, 4, 52, 127
1, 78385, Note_off_c, 4, 52, 127
1, 78389, Note_on_c, 2, 50, 127
1, 78389, Note_on_c, 12, 59, 127
1, 78528, Note_off_c, 12, 59, 127
1, 78528, Note_off_c, 2, 50, 127
1, 78529, Note_off_c, 7, 67, 127
1, 78532, Note_on_c, 0, 48, 127
1, 78532, Note_on_c, 10, 57, 127
1, 78532, Note_on_c, 4, 64, 127
1, 78671, Note_off_c, 10, 57, 127
1, 78671, Note_off_c, 0, 48, 127
1, 78675, Note_on_c, 12, 47, 127
1, 78675, Note_on_c, 7, 55, 127
1, 78814, Note_off_c, 7, 55, 127
1, 78814, Note_off_c, 12, 47, 127
1, 78814, Note_off_c, 4, 64, 127
1, 78817, Note_on_c, 10, 45, 127
1, 78817, Note_on_c, 6, 54, 127
1, 78817, Note_on_c, 4, 64, 127
1, 78956, Note_off_c, 6, 54, 127
1, 78960, Note_on_c, 10, 57, 127
1, 79099, Note_off_c, 10, 57, 127
1, 79099, Note_off_c, 4, 64, 127
1, 79103, Note_on_c, 12, 59, 127
1, 79103, Note_on_c, 3, 63, 127
1, 79242, Note_off_c, 12, 59, 127
1, 79246, Note_on_c, 0, 60, 127
1, 79385, Note_off_c, 0, 60, 127
1, 79385, Note_off_c, 10, 45, 127
1, 79389, Note_on_c, 12, 47, 127
1, 79389, Note_on_c, 3, 51, 127
1, 79518, Note_off_c, 3, 63, 127
1, 79527, Note_off_c, 3, 51, 127
1, 79530, Note_on_c, 0, 60, 127
1, 79669, Note_off_c, 0, 60, 127
1, 79673, Note_on_c, 12, 59, 127
1, 79673, Note_on_c, 6, 66, 127
1, 79812, Note_off_c, 12, 59, 127
1, 79816, Note_on_c, 10, 57, 127
1, 79955, Note_off_c, 10, 57, 127
1, 79955, Note_off_c, 6, 66, 127
1, 79956, Note_off_c, 12, 47, 127
1, 79959, Note_on_c, 4, 52, 127
1, 79959, Note_on_c, 7, 55, 127
1, 79959, Note_on_c, 6, 66, 127
1, 80098, Note_off_c, 7, 55, 127
1, 80102, Note_on_c, 12, 59, 127
1, 80241, Note_off_c, 12, 59, 127
1, 80241, Note_off_c, 6, 66, 127
1, 80244, Note_on_c, 1, 61, 127
1, 80244, Note_on_c, 4, 64, 127
1, 80383, Note_off_c, 1, 61, 127
1, 80387, Note_on_c, 3, 63, 127
1, 80526, Note_off_c, 3, 63, 127
1, 80527, Note_off_c, 4, 52, 127
1, 80530, Note_on_c, 4, 52, 127
1, 80659, Note_off_c, 4, 64, 127
1, 80672, Note_on_c, 2, 62, 127
1, 80811, Note_off_c, 2, 62, 127
1, 80815, Note_on_c, 0, 60, 127
1, 80815, Note_on_c, 7, 67, 127
1, 80954, Note_off_c, 0, 60, 127
1, 80957, Note_on_c, 12, 59, 127
1, 81096, Note_off_c, 12, 59, 127
1, 81097, Note_off_c, 7, 67, 127
1, 81097, Note_off_c, 4, 52, 127
1, 81100, Note_on_c, 6, 54, 127
1, 81100, Note_on_c, 10, 57, 127
1, 81100, Note_on_c, 10, 69, 127
1, 81168, Note_off_c, 10, 69, 127
1, 81172, Note_on_c, 7, 67, 127
1, 81239, Note_off_c, 10, 57, 127
1, 81240, Note_off_c, 7, 67, 127
1, 81243, Note_on_c, 1, 61, 127
1, 81243, Note_on_c, 10, 69, 127
1, 81311, Note_off_c, 10, 69, 127
1, 81314, Note_on_c, 7, 67, 127
1, 81382, Note_off_c, 7, 67, 127
1, 81382, Note_off_c, 1, 61, 127
1, 81386, Note_on_c, 3, 63, 127
1, 81386, Note_on_c, 6, 66, 127
1, 81525, Note_off_c, 6, 66, 127
1, 81525, Note_off_c, 3, 63, 127
1, 81529, Note_on_c, 4, 64, 127
1, 81529, Note_on_c, 7, 67, 127
1, 81668, Note_off_c, 7, 67, 127
1, 81668, Note_off_c, 4, 64, 127
1, 81668, Note_off_c, 6, 54, 127
1, 81671, Note_on_c, 6, 54, 127
1, 81671, Note_on_c, 10, 69, 127
1, 81814, Note_on_c, 7, 55, 127
1, 81953, Note_off_c, 7, 55, 127
1, 81953, Note_off_c, 10, 69, 127
1, 81957, Note_on_c, 10, 57, 127
1, 81957, Note_on_c, 0, 60, 127
1, 82096, Note_off_c, 6, 54, 127
1, 82100, Note_on_c, 4, 52, 127
1, 82239, Note_off_c, 4, 52, 127
1, 82239, Note_off_c, 0, 60, 127
1, 82243, Note_on_c, 3, 51, 127
1, 82243, Note_on_c, 12, 59, 127
1, 82382, Note_off_c, 10, 57, 127
1, 82385, Note_on_c, 10, 57, 127
1, 82524, Note_off_c, 10, 57, 127
1, 82525, Note_off_c, 12, 59, 127
1, 82525, Note_off_c, 3, 51, 127
1, 82528, Note_on_c, 12, 47, 127
1, 82528, Note_on_c, 7, 55, 127
1, 82528, Note_on_c, 3, 63, 127
1, 82667, Note_off_c, 7, 55, 127
1, 82671, Note_on_c, 6, 54, 127
1, 82810, Note_off_c, 6, 54, 127
1, 82810, Note_off_c, 3, 63, 127
1, 82810, Note_off_c, 12, 47, 127
1, 82814, Note_on_c, 7, 55, 127
1, 82814, Note_on_c, 4, 64, 127
1, 82953, Note_off_c, 7, 55, 127
1, 82957, Note_on_c, 6, 54, 127
1, 83096, Note_off_c, 6, 54, 127
1, 83096, Note_off_c, 4, 64, 127
1, 83099, Note_on_c, 7, 43, 127
1, 83099, Note_on_c, 4, 52, 127
1, 83099, Note_on_c, 7, 67, 127
1, 83380, Note_off_c, 7, 67, 127
1, 83380, Note_off_c, 7, 43, 127
1, 83384, Note_on_c, 0, 48, 127
1, 83384, Note_on_c, 10, 57, 127
1, 83523, Note_off_c, 4, 52, 127
1, 83527, Note_on_c, 4, 52, 127
1, 83666, Note_off_c, 4, 52, 127
1, 83666, Note_off_c, 10, 57, 127
1, 83666, Note_off_c, 0, 48, 127
1, 83669, Note_on_c, 10, 45, 127
1, 83669, Note_on_c, 3, 51, 127
1, 83669, Note_on_c, 6, 66, 127
1, 83808, Note_off_c, 3, 51, 127
1, 83812, Note_on_c, 1, 49, 127
1, 83951, Note_off_c, 1, 49, 127
1, 83951, Note_off_c, 6, 66, 127
1, 83951, Note_off_c, 10, 45, 127
1, 83955, Note_on_c, 12, 47, 127
1, 83955, Note_on_c, 3, 51, 127
1, 83955, Note_on_c, 12, 59, 127
1, 84094, Note_off_c, 3, 51, 127
1, 84098, Note_on_c, 4, 52, 127
1, 84237, Note_off_c, 4, 52, 127
1, 84237, Note_off_c, 12, 59, 127
1, 84241, Note_on_c, 6, 54, 127
1, 84241, Note_on_c, 3, 63, 127
1, 84370, Note_off_c, 12, 47, 127
1, 84379, Note_off_c, 6, 54, 127
1, 84382, Note_on_c, 12, 47, 127
1, 84522, Note_off_c, 3, 63, 127
1, 84525, Note_on_c, 7, 55, 127
1, 84525, Note_on_c, 4, 64, 127
1, 84560, Note_off_c, 12, 47, 127
1, 84664, Note_off_c, 4, 64, 127
1, 84668, Note_on_c, 7, 67, 127
1, 84807, Note_off_c, 7, 67, 127
1, 84811, Note_on_c, 4, 40, 127
1, 84811, Note_on_c, 6, 66, 127
1, 84950, Note_off_c, 6, 66, 127
1, 84954, Note_on_c, 4, 64, 127
1, 85093, Note_off_c, 4, 64, 127
1, 85093, Note_off_c, 4, 40, 127
1, 85096, Note_on_c, 6, 42, 127
1, 85096, Note_on_c, 2, 62, 127
1, 85235, Note_off_c, 2, 62, 127
1, 85239, Note_on_c, 6, 66, 127
1, 85378, Note_off_c, 6, 66, 127
1, 85378, Note_off_c, 6, 42, 127
1, 85382, Note_on_c, 7, 43, 127
1, 85382, Note_on_c, 4, 64, 127
1, 85521, Note_off_c, 4, 64, 127
1, 85525, Note_on_c, 2, 62, 127
1, 85664, Note_off_c, 2, 62, 127
1, 85664, Note_off_c, 7, 43, 127
1, 85665, Note_off_c, 7, 55, 127
1, 85667, Note_on_c, 10, 45, 127
1, 85667, Note_on_c, 1, 61, 127
1, 85806, Note_off_c, 1, 61, 127
1, 85809, Note_on_c, 4, 64, 127
1, 85948, Note_off_c, 4, 64, 127
1, 85952, Note_on_c, 1, 49, 127
1, 85952, Note_on_c, 6, 66, 127
1, 86091, Note_off_c, 6, 66, 127
1, 86095, Note_on_c, 7, 67, 127
1, 86212, Note_off_c, 1, 49, 127
1, 86234, Note_off_c, 7, 67, 127
1, 86238, Note_on_c, 4, 52, 127
1, 86238, Note_on_c, 10, 57, 127
1, 86381, Note_on_c, 7, 67, 127
1, 86387, Note_off_c, 10, 57, 127
1, 86498, Note_off_c, 4, 52, 127
1, 86520, Note_off_c, 7, 67, 127
1, 86523, Note_on_c, 10, 57, 127
1, 86523, Note_on_c, 6, 66, 127
1, 86662, Note_off_c, 6, 66, 127
1, 86666, Note_on_c, 4, 64, 127
1, 86805, Note_off_c, 4, 64, 127
1, 86805, Note_off_c, 10, 57, 127
1, 86807, Note_off_c, 10, 45, 127
1, 86808, Note_on_c, 6, 54, 127
1, 86808, Note_on_c, 2, 62, 127
1, 86947, Note_off_c, 2, 62, 127
1, 86951, Note_on_c, 6, 66, 127
1, 87090, Note_off_c, 6, 66, 127
1, 87094, Note_on_c, 2, 38, 127
1, 87094, Note_on_c, 4, 64, 127
1, 87233, Note_off_c, 4, 64, 127
1, 87236, Note_on_c, 2, 62, 127
1, 87375, Note_off_c, 2, 62, 127
1, 87376, Note_off_c, 2, 38, 127
1, 87379, Note_on_c, 4, 40, 127
1, 87379, Note_on_c, 1, 61, 127
1, 87518, Note_off_c, 1, 61, 127
1, 87522, Note_on_c, 4, 64, 127
1, 87661, Note_off_c, 4, 64, 127
1, 87661, Note_off_c, 4, 40, 127
1, 87665, Note_on_c, 6, 42, 127
1, 87665, Note_on_c, 2, 62, 127
1, 87804, Note_off_c, 2, 62, 127
1, 87808, Note_on_c, 1, 61, 127
1, 87947, Note_off_c, 1, 61, 127
1, 87947, Note_off_c, 6, 42, 127
1, 87948, Note_off_c, 6, 54, 127
1, 87949, Note_on_c, 7, 43, 127
1, 87949, Note_on_c, 12, 59, 127
1, 88088, Note_off_c, 12, 59, 127
1, 88092, Note_on_c, 2, 62, 127
1, 88231, Note_off_c, 2, 62, 127
1, 88235, Note_on_c, 12, 47, 127
1, 88235, Note_on_c, 4, 64, 127
1, 88374, Note_off_c, 4, 64, 127
1, 88378, Note_on_c, 6, 66, 127
1, 88505, Note_off_c, 12, 47, 127
1, 88517, Note_off_c, 6, 66, 127
1, 88520, Note_on_c, 2, 50, 127
1, 88520, Note_on_c, 7, 55, 127
1, 88659, Note_off_c, 7, 55, 127
1, 88663, Note_on_c, 6, 66, 127
1, 88790, Note_off_c, 2, 50, 127
1, 88802, Note_off_c, 6, 66, 127
1, 88806, Note_on_c, 7, 55, 127
1, 88806, Note_on_c, 4, 64, 127
1, 88945, Note_off_c, 4, 64, 127
1, 88949, Note_on_c, 2, 62, 127
1, 89088, Note_off_c, 2, 62, 127
1, 89088, Note_off_c, 7, 55, 127
1, 89089, Note_off_c, 7, 43, 127
1, 89091, Note_on_c, 4, 52, 127
1, 89091, Note_on_c, 1, 61, 127
1, 89230, Note_off_c, 1, 61, 127
1, 89233, Note_on_c, 4, 64, 127
1, 89372, Note_off_c, 4, 64, 127
1, 89376, Note_on_c, 1, 37, 127
1, 89376, Note_on_c, 2, 62, 127
1, 89515, Note_off_c, 2, 62, 127
1, 89519, Note_on_c, 1, 61, 127
1, 89658, Note_off_c, 1, 61, 127
1, 89658, Note_off_c, 1, 37, 127
1, 89662, Note_on_c, 2, 38, 127
1, 89662, Note_on_c, 12, 59, 127
1, 89801, Note_off_c, 12, 59, 127
1, 89805, Note_on_c, 2, 62, 127
1, 89944, Note_off_c, 2, 62, 127
1, 89944, Note_off_c, 2, 38, 127
1, 89947, Note_on_c, 4, 40, 127
1, 89947, Note_on_c, 1, 61, 127
1, 90086, Note_off_c, 1, 61, 127
1, 90090, Note_on_c, 12, 59, 127
1, 90229, Note_off_c, 12, 59, 127
1, 90229, Note_off_c, 4, 40, 127
1, 90231, Note_off_c, 4, 52, 127
1, 90232, Note_on_c, 6, 42, 127
1, 90232, Note_on_c, 11, 58, 127
1, 90371, Note_off_c, 11, 58, 127
1, 90375, Note_on_c, 1, 61, 127
1, 90514, Note_off_c, 1, 61, 127
1, 90518, Note_on_c, 11, 46, 127
1, 90518, Note_on_c, 2, 62, 127
1, 90657, Note_off_c, 2, 62, 127
1, 90660, Note_on_c, 4, 64, 127
1, 90799, Note_off_c, 4, 64, 127
1, 90800, Note_off_c, 11, 46, 127
1, 90803, Note_on_c, 1, 49, 127
1, 90803, Note_on_c, 6, 54, 127
1, 90942, Note_off_c, 6, 54, 127
1, 90946, Note_on_c, 4, 64, 127
1, 91085, Note_off_c, 4, 64, 127
1, 91085, Note_off_c, 1, 49, 127
1, 91089, Note_on_c, 6, 54, 127
1, 91089, Note_on_c, 2, 62, 127
1, 91228, Note_off_c, 2, 62, 127
1, 91232, Note_on_c, 1, 61, 127
1, 91243, Note_off_c, 6, 42, 127
1, 91370, Note_off_c, 1, 61, 127
1, 91370, Note_off_c, 6, 54, 127
1, 91373, Note_on_c, 2, 50, 127
1, 91373, Note_on_c, 12, 59, 127
1, 91512, Note_off_c, 12, 59, 127
1, 91516, Note_on_c, 2, 62, 127
1, 91655, Note_off_c, 2, 62, 127
1, 91655, Note_off_c, 2, 50, 127
1, 91659, Note_on_c, 12, 47, 127
1, 91659, Note_on_c, 4, 64, 127
1, 91798, Note_off_c, 4, 64, 127
1, 91802, Note_on_c, 6, 66, 127
1, 91941, Note_off_c, 6, 66, 127
1, 91945, Note_on_c, 2, 50, 127
1, 91945, Note_on_c, 8, 56, 127
1, 92084, Note_off_c, 8, 56, 127
1, 92087, Note_on_c, 6, 66, 127
1, 92223, Note_off_c, 12, 47, 127
1, 92226, Note_off_c, 6, 66, 127
1, 92227, Note_off_c, 2, 50, 127
1, 92230, Note_on_c, 12, 47, 127
1, 92230, Note_on_c, 7, 55, 127
1, 92230, Note_on_c, 4, 64, 127
1, 92369, Note_off_c, 4, 64, 127
1, 92373, Note_on_c, 2, 62, 127
1, 92512, Note_off_c, 2, 62, 127
1, 92512, Note_off_c, 7, 55, 127
1, 92512, Note_off_c, 12, 47, 127
1, 92516, Note_on_c, 12, 47, 127
1, 92516, Note_on_c, 4, 52, 127
1, 92516, Note_on_c, 1, 61, 127
1, 92655, Note_off_c, 1, 61, 127
1, 92659, Note_on_c, 4, 64, 127
1, 92798, Note_off_c, 4, 64, 127
1, 92798, Note_off_c, 4, 52, 127
1, 92798, Note_off_c, 12, 47, 127
1, 92801, Note_on_c, 11, 46, 127
1, 92801, Note_on_c, 1, 49, 127
1, 92801, Note_on_c, 6, 66, 127
1, 92940, Note_off_c, 6, 66, 127
1, 92944, Note_on_c, 7, 67, 127
1, 93083, Note_off_c, 7, 67, 127
1, 93083, Note_off_c, 1, 49, 127
1, 93087, Note_on_c, 4, 52, 127
1, 93087, Note_on_c, 11, 58, 127
1, 93216, Note_off_c, 11, 46, 127
1, 93225, Note_off_c, 11, 58, 127
1, 93229, Note_on_c, 7, 67, 127
1, 93368, Note_off_c, 7, 67, 127
1, 93368, Note_off_c, 4, 52, 127
1, 93371, Note_on_c, 1, 49, 127
1, 93371, Note_on_c, 11, 58, 127
1, 93371, Note_on_c, 6, 66, 127
1, 93510, Note_off_c, 6, 66, 127
1, 93514, Note_on_c, 4, 64, 127
1, 93653, Note_off_c, 4, 64, 127
1, 93653, Note_off_c, 11, 58, 127
1, 93653, Note_off_c, 1, 49, 127
1, 93657, Note_on_c, 1, 49, 127
1, 93657, Note_on_c, 6, 54, 127
1, 93657, Note_on_c, 2, 62, 127
1, 93796, Note_off_c, 2, 62, 127
1, 93800, Note_on_c, 6, 66, 127
1, 93939, Note_off_c, 6, 66, 127
1, 93939, Note_off_c, 6, 54, 127
1, 93939, Note_off_c, 1, 49, 127
1, 93943, Note_on_c, 12, 47, 127
1, 93943, Note_on_c, 2, 50, 127
1, 93943, Note_on_c, 8, 68, 127
1, 94082, Note_off_c, 8, 68, 127
1, 94085, Note_on_c, 11, 70, 127
1, 94224, Note_off_c, 11, 70, 127
1, 94225, Note_off_c, 2, 50, 127
1, 94228, Note_on_c, 6, 54, 127
1, 94228, Note_on_c, 12, 59, 127
1, 94358, Note_off_c, 12, 47, 127
1, 94366, Note_off_c, 12, 59, 127
1, 94370, Note_on_c, 10, 69, 127
1, 94509, Note_off_c, 10, 69, 127
1, 94509, Note_off_c, 6, 54, 127
1, 94513, Note_on_c, 2, 50, 127
1, 94513, Note_on_c, 12, 59, 127
1, 94513, Note_on_c, 7, 67, 127
1, 94652, Note_off_c, 7, 67, 127
1, 94656, Note_on_c, 6, 66, 127
1, 94795, Note_off_c, 6, 66, 127
1, 94795, Note_off_c, 2, 50, 127
1, 94798, Note_on_c, 4, 52, 127
1, 94798, Note_on_c, 4, 64, 127
1, 94866, Note_off_c, 4, 52, 127
1, 94870, Note_on_c, 2, 50, 127
1, 94937, Note_off_c, 4, 64, 127
1, 94938, Note_off_c, 2, 50, 127
1, 94941, Note_on_c, 4, 52, 127
1, 94941, Note_on_c, 8, 68, 127
1, 95009, Note_off_c, 4, 52, 127
1, 95013, Note_on_c, 2, 50, 127
1, 95080, Note_off_c, 8, 68, 127
1, 95081, Note_off_c, 2, 50, 127
1, 95084, Note_on_c, 1, 49, 127
1, 95084, Note_on_c, 11, 70, 127
1, 95223, Note_off_c, 11, 70, 127
1, 95223, Note_off_c, 1, 49, 127
1, 95227, Note_on_c, 2, 50, 127
1, 95227, Note_on_c, 12, 71, 127
1, 95366, Note_off_c, 12, 71, 127
1, 95366, Note_off_c, 2, 50, 127
1, 95370, Note_on_c, 4, 52, 127
1, 95370, Note_on_c, 1, 61, 127
1, 95509, Note_off_c, 1, 61, 127
1, 95512, Note_on_c, 2, 62, 127
1, 95651, Note_off_c, 2, 62, 127
1, 95652, Note_off_c, 4, 52, 127
1, 95655, Note_on_c, 7, 43, 127
1, 95655, Note_on_c, 4, 64, 127
1, 95795, Note_off_c, 12, 59, 127
1, 95798, Note_on_c, 12, 59, 127
1, 95937, Note_off_c, 12, 59, 127
1, 95937, Note_off_c, 7, 43, 127
1, 95941, Note_on_c, 6, 42, 127
1, 95941, Note_on_c, 11, 58, 127
1, 96080, Note_off_c, 11, 58, 127
1, 96084, Note_on_c, 1, 61, 127
1, 96223, Note_off_c, 1, 61, 127
1, 96223, Note_off_c, 6, 42, 127
1, 96226, Note_on_c, 11, 46, 127
1, 96226, Note_on_c, 6, 54, 127
1, 96365, Note_off_c, 4, 64, 127
1, 96369, Note_on_c, 4, 64, 127
1, 96508, Note_off_c, 4, 64, 127
1, 96508, Note_off_c, 11, 46, 127
1, 96512, Note_on_c, 12, 47, 127
1, 96512, Note_on_c, 2, 62, 127
1, 96651, Note_off_c, 2, 62, 127
1, 96655, Note_on_c, 1, 61, 127
1, 96794, Note_off_c, 1, 61, 127
1, 96794, Note_off_c, 12, 47, 127
1, 96798, Note_on_c, 2, 50, 127
1, 96798, Note_on_c, 12, 59, 127
1, 96936, Note_off_c, 6, 54, 127
1, 96940, Note_on_c, 6, 54, 127
1, 97079, Note_off_c, 6, 54, 127
1, 97080, Note_off_c, 2, 50, 127
1, 97083, Note_on_c, 4, 40, 127
1, 97083, Note_on_c, 7, 55, 127
1, 97223, Note_off_c, 12, 59, 127
1, 97226, Note_on_c, 12, 59, 127
1, 97365, Note_off_c, 7, 55, 127
1, 97365, Note_off_c, 4, 40, 127
1, 97369, Note_on_c, 1, 49, 127
1, 97369, Note_on_c, 4, 52, 127
1, 97508, Note_off_c, 12, 59, 127
1, 97512, Note_on_c, 12, 59, 127
1, 97651, Note_off_c, 12, 59, 127
1, 97651, Note_off_c, 4, 52, 127
1, 97651, Note_off_c, 1, 49, 127
1, 97654, Note_on_c, 6, 42, 127
1, 97654, Note_on_c, 1, 49, 127
1, 97654, Note_on_c, 11, 58, 127
1, 97793, Note_off_c, 11, 58, 127
1, 97797, Note_on_c, 12, 59, 127
1, 97936, Note_off_c, 12, 59, 127
1, 97936, Note_off_c, 6, 42, 127
1, 97940, Note_on_c, 11, 46, 127
1, 97940, Note_on_c, 1, 61, 127
1, 98079, Note_off_c, 1, 61, 127
1, 98083, Note_on_c, 6, 54, 127
1, 98222, Note_off_c, 6, 54, 127
1, 98222, Note_off_c, 11, 46, 127
1, 98222, Note_off_c, 1, 49, 127
1, 98226, Note_on_c, 12, 47, 127
1, 98226, Note_on_c, 2, 62, 127
1, 98365, Note_off_c, 2, 62, 127
1, 98365, Note_off_c, 12, 47, 127
1, 98368, Note_on_c, 1, 49, 127
1, 98368, Note_on_c, 1, 61, 127
1, 98507, Note_off_c, 1, 61, 127
1, 98507, Note_off_c, 1, 49, 127
1, 98511, Note_on_c, 2, 50, 127
1, 98511, Note_on_c, 12, 59, 127
1, 98650, Note_off_c, 12, 59, 127
1, 98654, Note_on_c, 11, 58, 127
1, 98793, Note_off_c, 11, 58, 127
1, 98797, Note_on_c, 12, 59, 127
1, 98936, Note_off_c, 12, 59, 127
1, 98940, Note_on_c, 1, 61, 127
1, 99016, Note_off_c, 2, 50, 127
1, 99078, Note_off_c, 1, 61, 127
1, 99081, Note_on_c, 12, 47, 127
1, 99081, Note_on_c, 2, 62, 127
1, 99220, Note_off_c, 2, 62, 127
1, 99224, Note_on_c, 6, 54, 127
1, 99363, Note_off_c, 6, 54, 127
1, 99363, Note_off_c, 12, 47, 127
1, 99367, Note_on_c, 1, 49, 127
1, 99367, Note_on_c, 4, 64, 127
1, 99497, Note_off_c, 1, 49, 127
1, 99506, Note_off_c, 4, 64, 127
1, 99510, Note_on_c, 2, 50, 127
1, 99510, Note_on_c, 2, 62, 127
1, 99640, Note_off_c, 2, 50, 127
1, 99649, Note_off_c, 2, 62, 127
1, 99653, Note_on_c, 4, 52, 127
1, 99653, Note_on_c, 1, 61, 127
1, 99792, Note_off_c, 1, 61, 127
1, 99795, Note_on_c, 12, 59, 127
1, 99934, Note_off_c, 12, 59, 127
1, 99938, Note_on_c, 1, 61, 127
1, 100077, Note_off_c, 1, 61, 127
1, 100081, Note_on_c, 2, 62, 127
1, 100158, Note_off_c, 4, 52, 127
1, 100219, Note_off_c, 2, 62, 127
1, 100223, Note_on_c, 1, 49, 127
1, 100223, Note_on_c, 4, 64, 127
1, 100362, Note_off_c, 4, 64, 127
1, 100366, Note_on_c, 6, 54, 127
1, 100505, Note_off_c, 6, 54, 127
1, 100505, Note_off_c, 1, 49, 127
1, 100508, Note_on_c, 3, 51, 127
1, 100508, Note_on_c, 6, 66, 127
1, 100628, Note_off_c, 3, 51, 127
1, 100647, Note_off_c, 6, 66, 127
1, 100651, Note_on_c, 4, 52, 127
1, 100651, Note_on_c, 4, 64, 127
1, 100771, Note_off_c, 4, 52, 127
1, 100790, Note_off_c, 4, 64, 127
1, 100794, Note_on_c, 6, 54, 127
1, 100794, Note_on_c, 3, 63, 127
1, 100933, Note_off_c, 3, 63, 127
1, 100937, Note_on_c, 1, 61, 127
1, 101076, Note_off_c, 1, 61, 127
1, 101080, Note_on_c, 3, 63, 127
1, 101219, Note_off_c, 3, 63, 127
1, 101222, Note_on_c, 4, 64, 127
1, 101329, Note_off_c, 6, 54, 127
1, 101361, Note_off_c, 4, 64, 127
1, 101365, Note_on_c, 4, 52, 127
1, 101365, Note_on_c, 6, 66, 127
1, 101504, Note_off_c, 6, 66, 127
1, 101504, Note_off_c, 4, 52, 127
1, 101508, Note_on_c, 3, 51, 127
1, 101508, Note_on_c, 12, 59, 127
1, 101647, Note_off_c, 12, 59, 127
1, 101647, Note_off_c, 3, 51, 127
1, 101651, Note_on_c, 7, 55, 127
1, 101651, Note_on_c, 4, 64, 127
1, 101790, Note_off_c, 4, 64, 127
1, 101790, Note_off_c, 7, 55, 127
1, 101794, Note_on_c, 6, 54, 127
1, 101794, Note_on_c, 6, 66, 127
1, 101933, Note_off_c, 6, 66, 127
1, 101933, Note_off_c, 6, 54, 127
1, 101936, Note_on_c, 4, 52, 127
1, 101936, Note_on_c, 7, 67, 127
1, 102075, Note_off_c, 4, 52, 127
1, 102079, Note_on_c, 3, 51, 127
1, 102218, Note_off_c, 3, 51, 127
1, 102222, Note_on_c, 4, 52, 127
1, 102351, Note_off_c, 7, 67, 127
1, 102360, Note_off_c, 4, 52, 127
1, 102364, Note_on_c, 6, 54, 127
1, 102503, Note_off_c, 6, 54, 127
1, 102506, Note_on_c, 7, 55, 127
1, 102506, Note_on_c, 4, 64, 127
1, 102645, Note_off_c, 7, 55, 127
1, 102649, Note_on_c, 1, 49, 127
1, 102788, Note_off_c, 1, 49, 127
1, 102788, Note_off_c, 4, 64, 127
1, 102792, Note_on_c, 10, 57, 127
1, 102792, Note_on_c, 6, 66, 127
1, 102931, Note_off_c, 6, 66, 127
1, 102931, Note_off_c, 10, 57, 127
1, 102935, Note_on_c, 7, 55, 127
1, 102935, Note_on_c, 7, 67, 127
1, 103074, Note_off_c, 7, 67, 127
1, 103074, Note_off_c, 7, 55, 127
1, 103078, Note_on_c, 6, 54, 127
1, 103078, Note_on_c, 10, 69, 127
1, 103217, Note_off_c, 6, 54, 127
1, 103220, Note_on_c, 4, 52, 127
1, 103359, Note_off_c, 4, 52, 127
1, 103363, Note_on_c, 6, 54, 127
1, 103493, Note_off_c, 10, 69, 127
1, 103501, Note_off_c, 6, 54, 127
1, 103505, Note_on_c, 7, 55, 127
1, 103644, Note_off_c, 7, 55, 127
1, 103648, Note_on_c, 10, 57, 127
1, 103648, Note_on_c, 6, 66, 127
1, 103787, Note_off_c, 10, 57, 127
1, 103791, Note_on_c, 3, 51, 127
1, 103930, Note_off_c, 3, 51, 127
1, 103930, Note_off_c, 6, 66, 127
1, 103933, Note_on_c, 12, 59, 127
1, 103933, Note_on_c, 8, 68, 127
1, 104072, Note_off_c, 8, 68, 127
1, 104072, Note_off_c, 12, 59, 127
1, 104076, Note_on_c, 10, 57, 127
1, 104076, Note_on_c, 10, 69, 127
1, 104215, Note_off_c, 10, 69, 127
1, 104215, Note_off_c, 10, 57, 127
1, 104219, Note_on_c, 8, 56, 127
1, 104219, Note_on_c, 12, 71, 127
1, 104358, Note_off_c, 8, 56, 127
1, 104362, Note_on_c, 6, 54, 127
1, 104501, Note_off_c, 6, 54, 127
1, 104505, Note_on_c, 8, 56, 127
1, 104644, Note_off_c, 8, 56, 127
1, 104647, Note_on_c, 10, 57, 127
1, 104786, Note_off_c, 10, 57, 127
1, 104787, Note_off_c, 12, 71, 127
1, 104790, Note_on_c, 12, 59, 127
1, 104790, Note_on_c, 10, 69, 127
1, 104929, Note_off_c, 10, 69, 127
1, 104929, Note_off_c, 12, 59, 127
1, 104933, Note_on_c, 4, 52, 127
1, 104933, Note_on_c, 8, 68, 127
1, 105072, Note_off_c, 8, 68, 127
1, 105072, Note_off_c, 4, 52, 127
1, 105076, Note_on_c, 10, 57, 127
1, 105076, Note_on_c, 0, 72, 127
1, 105215, Note_off_c, 0, 72, 127
1, 105215, Note_off_c, 10, 57, 127
1, 105219, Note_on_c, 12, 59, 127
1, 105219, Note_on_c, 12, 71, 127
1, 105358, Note_off_c, 12, 71, 127
1, 105358, Note_off_c, 12, 59, 127
1, 105361, Note_on_c, 0, 60, 127
1, 105361, Note_on_c, 10, 69, 127
1, 105500, Note_off_c, 10, 69, 127
1, 105504, Note_on_c, 8, 68, 127
1, 105643, Note_off_c, 8, 68, 127
1, 105647, Note_on_c, 10, 69, 127
1, 105718, Note_off_c, 0, 60, 127
1, 105786, Note_off_c, 10, 69, 127
1, 105790, Note_on_c, 12, 59, 127
1, 105790, Note_on_c, 12, 71, 127
1, 105929, Note_off_c, 12, 71, 127
1, 105929, Note_off_c, 12, 59, 127
1, 105933, Note_on_c, 10, 57, 127
1, 105933, Note_on_c, 0, 72, 127
1, 106072, Note_off_c, 0, 72, 127
1, 106072, Note_off_c, 10, 57, 127
1, 106075, Note_on_c, 7, 55, 127
1, 106075, Note_on_c, 4, 64, 127
1, 106214, Note_off_c, 4, 64, 127
1, 106214, Note_off_c, 7, 55, 127
1, 106218, Note_on_c, 6, 54, 127
1, 106218, Note_on_c, 4, 64, 127
1, 106218, Note_on_c, 10, 69, 127
1, 106357, Note_off_c, 10, 69, 127
1, 106357, Note_off_c, 6, 54, 127
1, 106361, Note_on_c, 10, 57, 127
1, 106361, Note_on_c, 7, 67, 127
1, 106500, Note_off_c, 7, 67, 127
1, 106500, Note_off_c, 10, 57, 127
1, 106500, Note_off_c, 4, 64, 127
1, 106504, Note_on_c, 12, 59, 127
1, 106504, Note_on_c, 3, 63, 127
1, 106504, Note_on_c, 6, 66, 127
1, 106643, Note_off_c, 6, 66, 127
1, 106643, Note_off_c, 12, 59, 127
1, 106647, Note_on_c, 0, 60, 127
1, 106647, Note_on_c, 4, 64, 127
1, 106786, Note_off_c, 4, 64, 127
1, 106786, Note_off_c, 0, 60, 127
1, 106789, Note_on_c, 3, 51, 127
1, 106789, Note_on_c, 6, 66, 127
1, 106919, Note_off_c, 3, 63, 127
1, 106927, Note_off_c, 6, 66, 127
1, 106927, Note_off_c, 3, 51, 127
1, 106931, Note_on_c, 0, 60, 127
1, 106931, Note_on_c, 7, 67, 127
1, 107070, Note_off_c, 7, 67, 127
1, 107070, Note_off_c, 0, 60, 127
1, 107074, Note_on_c, 12, 59, 127
1, 107074, Note_on_c, 6, 66, 127
1, 107074, Note_on_c, 10, 69, 127
1, 107213, Note_off_c, 12, 59, 127
1, 107217, Note_on_c, 10, 57, 127
1, 107356, Note_off_c, 10, 57, 127
1, 107356, Note_off_c, 10, 69, 127
1, 107356, Note_off_c, 6, 66, 127
1, 107360, Note_on_c, 7, 55, 127
1, 107360, Note_on_c, 6, 66, 127
1, 107360, Note_on_c, 10, 69, 127
1, 107499, Note_off_c, 7, 55, 127
1, 107502, Note_on_c, 12, 59, 127
1, 107641, Note_off_c, 12, 59, 127
1, 107642, Note_off_c, 10, 69, 127
1, 107642, Note_off_c, 6, 66, 127
1, 107645, Note_on_c, 1, 61, 127
1, 107645, Note_on_c, 4, 64, 127
1, 107645, Note_on_c, 7, 67, 127
1, 107784, Note_off_c, 1, 61, 127
1, 107788, Note_on_c, 3, 63, 127
1, 107927, Note_off_c, 3, 63, 127
1, 107931, Note_on_c, 4, 52, 127
1, 108060, Note_off_c, 7, 67, 127
1, 108060, Note_off_c, 4, 64, 127
1, 108069, Note_off_c, 4, 52, 127
1, 108073, Note_on_c, 2, 62, 127
1, 108212, Note_off_c, 2, 62, 127
1, 108215, Note_on_c, 0, 60, 127
1, 108215, Note_on_c, 7, 67, 127
1, 108215, Note_on_c, 12, 71, 127
1, 108354, Note_off_c, 0, 60, 127
1, 108358, Note_on_c, 12, 59, 127
1, 108497, Note_off_c, 12, 59, 127
1, 108497, Note_off_c, 12, 71, 127
1, 108497, Note_off_c, 7, 67, 127
1, 108501, Note_on_c, 10, 57, 127
1, 108501, Note_on_c, 7, 67, 127
1, 108501, Note_on_c, 12, 71, 127
1, 108640, Note_off_c, 10, 57, 127
1, 108644, Note_on_c, 1, 61, 127
1, 108783, Note_off_c, 1, 61, 127
1, 108783, Note_off_c, 12, 71, 127
1, 108783, Note_off_c, 7, 67, 127
1, 108787, Note_on_c, 3, 63, 127
1, 108787, Note_on_c, 6, 66, 127
1, 108787, Note_on_c, 10, 69, 127
1, 108926, Note_off_c, 6, 66, 127
1, 108926, Note_off_c, 3, 63, 127
1, 108929, Note_on_c, 4, 64, 127
1, 108929, Note_on_c, 7, 67, 127
1, 109068, Note_off_c, 7, 67, 127
1, 109068, Note_off_c, 4, 64, 127
1, 109069, Note_off_c, 10, 69, 127
1, 109072, Note_on_c, 6, 54, 127
1, 109072, Note_on_c, 10, 69, 127
1, 109211, Note_off_c, 6, 54, 127
1, 109215, Note_on_c, 7, 55, 127
1, 109215, Note_on_c, 7, 67, 127
1, 109354, Note_off_c, 7, 67, 127
1, 109354, Note_off_c, 7, 55, 127
1, 109354, Note_off_c, 10, 69, 127
1, 109358, Note_on_c, 10, 57, 127
1, 109358, Note_on_c, 0, 60, 127
1, 109358, Note_on_c, 6, 66, 127
1, 109497, Note_off_c, 6, 66, 127
1, 109501, Note_on_c, 4, 64, 127
1, 109640, Note_off_c, 4, 64, 127
1, 109640, Note_off_c, 0, 60, 127
1, 109643, Note_on_c, 12, 59, 127
1, 109643, Note_on_c, 3, 63, 127
1, 109783, Note_off_c, 10, 57, 127
1, 109786, Note_on_c, 10, 57, 127
1, 109925, Note_off_c, 10, 57, 127
1, 109925, Note_off_c, 3, 63, 127
1, 109925, Note_off_c, 12, 59, 127
1, 109929, Note_on_c, 7, 55, 127
1, 109929, Note_on_c, 3, 63, 127
1, 109929, Note_on_c, 12, 71, 127
1, 110068, Note_off_c, 7, 55, 127
1, 110072, Note_on_c, 6, 54, 127
1, 110211, Note_off_c, 6, 54, 127
1, 110211, Note_off_c, 3, 63, 127
1, 110215, Note_on_c, 7, 55, 127
1, 110215, Note_on_c, 4, 64, 127
1, 110354, Note_off_c, 7, 55, 127
1, 110354, Note_off_c, 12, 71, 127
1, 110357, Note_on_c, 6, 54, 127
1, 110357, Note_on_c, 2, 74, 127
1, 110496, Note_off_c, 2, 74, 127
1, 110496, Note_off_c, 6, 54, 127
1, 110497, Note_off_c, 4, 64, 127
1, 110500, Note_on_c, 4, 52, 127
1, 110500, Note_on_c, 7, 67, 127
1, 110500, Note_on_c, 0, 72, 127
1, 110639, Note_off_c, 0, 72, 127
1, 110643, Note_on_c, 12, 71, 127
1, 110782, Note_off_c, 12, 71, 127
1, 110782, Note_off_c, 7, 67, 127
1, 110786, Note_on_c, 10, 57, 127
1, 110786, Note_on_c, 0, 72, 127
1, 110925, Note_off_c, 0, 72, 127
1, 110925, Note_off_c, 4, 52, 127
1, 110929, Note_on_c, 4, 52, 127
1, 110929, Note_on_c, 10, 69, 127
1, 111068, Note_off_c, 4, 52, 127
1, 111068, Note_off_c, 10, 57, 127
1, 111071, Note_on_c, 3, 51, 127
1, 111071, Note_on_c, 6, 66, 127
1, 111210, Note_off_c, 3, 51, 127
1, 111211, Note_off_c, 10, 69, 127
1, 111214, Note_on_c, 1, 49, 127
1, 111214, Note_on_c, 10, 69, 127
1, 111353, Note_off_c, 1, 49, 127
1, 111353, Note_off_c, 6, 66, 127
1, 111357, Note_on_c, 3, 51, 127
1, 111357, Note_on_c, 12, 59, 127
1, 111496, Note_off_c, 3, 51, 127
1, 111496, Note_off_c, 10, 69, 127
1, 111500, Note_on_c, 4, 52, 127
1, 111500, Note_on_c, 10, 69, 127
1, 111639, Note_off_c, 4, 52, 127
1, 111639, Note_off_c, 12, 59, 127
1, 111643, Note_on_c, 6, 54, 127
1, 111643, Note_on_c, 3, 63, 127
1, 111782, Note_off_c, 6, 54, 127
1, 111782, Note_off_c, 10, 69, 127
1, 111785, Note_on_c, 12, 47, 127
1, 111785, Note_on_c, 10, 69, 127
1, 111924, Note_off_c, 12, 47, 127
1, 111925, Note_off_c, 3, 63, 127
1, 111928, Note_on_c, 4, 52, 127
1, 111928, Note_on_c, 4, 64, 127
1, 112067, Note_off_c, 10, 69, 127
1, 112071, Note_on_c, 10, 69, 127
1, 112210, Note_off_c, 4, 64, 127
1, 112210, Note_off_c, 4, 52, 127
1, 112214, Note_on_c, 4, 40, 127
1, 112214, Note_on_c, 12, 59, 127
1, 112353, Note_off_c, 10, 69, 127
1, 112357, Note_on_c, 7, 67, 127
1, 112496, Note_off_c, 12, 59, 127
1, 112499, Note_on_c, 4, 64, 127
1, 112629, Note_off_c, 4, 40, 127
1, 112638, Note_off_c, 7, 67, 127
1, 112641, Note_on_c, 7, 67, 127
1, 112780, Note_off_c, 4, 64, 127
1, 112784, Note_on_c, 4, 52, 127
1, 112784, Note_on_c, 2, 62, 127
1, 112923, Note_off_c, 7, 67, 127
1, 112927, Note_on_c, 7, 67, 127
1, 113066, Note_off_c, 2, 62, 127
1, 113066, Note_off_c, 4, 52, 127
1, 113069, Note_on_c, 10, 57, 127
1, 113069, Note_on_c, 1, 61, 127
1, 113209, Note_off_c, 7, 67, 127
1, 113212, Note_on_c, 7, 67, 127
1, 113351, Note_off_c, 1, 61, 127
1, 113351, Note_off_c, 10, 57, 127
1, 113355, Note_on_c, 1, 49, 127
1, 113355, Note_on_c, 4, 64, 127
1, 113494, Note_off_c, 7, 67, 127
1, 113498, Note_on_c, 7, 67, 127
1, 113637, Note_off_c, 4, 64, 127
1, 113641, Note_on_c, 10, 57, 127
1, 113770, Note_off_c, 1, 49, 127
1, 113779, Note_off_c, 7, 67, 127
1, 113782, Note_on_c, 7, 67, 127
1, 113922, Note_off_c, 10, 57, 127
1, 113925, Note_on_c, 10, 45, 127
1, 113925, Note_on_c, 1, 61, 127
1, 114064, Note_off_c, 7, 67, 127
1, 114068, Note_on_c, 7, 67, 127
1, 114207, Note_off_c, 1, 61, 127
1, 114207, Note_off_c, 10, 45, 127
1, 114211, Note_on_c, 2, 50, 127
1, 114211, Note_on_c, 2, 62, 127
1, 114350, Note_off_c, 7, 67, 127
1, 114354, Note_on_c, 7, 67, 127
1, 114493, Note_off_c, 2, 62, 127
1, 114493, Note_off_c, 2, 50, 127
1, 114496, Note_on_c, 2, 38, 127
1, 114496, Note_on_c, 10, 57, 127
1, 114636, Note_off_c, 7, 67, 127
1, 114639, Note_on_c, 7, 67, 127
1, 114778, Note_off_c, 10, 57, 127
1, 114782, Note_on_c, 2, 62, 127
1, 114911, Note_off_c, 2, 38, 127
1, 114920, Note_off_c, 7, 67, 127
1, 114924, Note_on_c, 6, 66, 127
1, 115063, Note_off_c, 2, 62, 127
1, 115067, Note_on_c, 2, 50, 127
1, 115067, Note_on_c, 0, 60, 127
1, 115176, Note_off_c, 6, 66, 127
1, 115208, Note_on_c, 5, 65, 127
1, 115348, Note_off_c, 0, 60, 127
1, 115348, Note_off_c, 2, 50, 127
1, 115351, Note_on_c, 7, 55, 127
1, 115351, Note_on_c, 12, 59, 127
1, 115490, Note_off_c, 5, 65, 127
1, 115494, Note_on_c, 5, 65, 127
1, 115633, Note_off_c, 12, 59, 127
1, 115633, Note_off_c, 7, 55, 127
1, 115637, Note_on_c, 12, 47, 127
1, 115637, Note_on_c, 2, 62, 127
1, 115776, Note_off_c, 5, 65, 127
1, 115780, Note_on_c, 5, 65, 127
1, 115919, Note_off_c, 2, 62, 127
1, 115922, Note_on_c, 7, 55, 127
1, 116062, Note_off_c, 5, 65, 127
1, 116065, Note_on_c, 5, 65, 127
1, 116112, Note_off_c, 12, 47, 127
1, 116204, Note_off_c, 7, 55, 127
1, 116208, Note_on_c, 7, 43, 127
1, 116208, Note_on_c, 12, 59, 127
1, 116347, Note_off_c, 5, 65, 127
1, 116351, Note_on_c, 5, 65, 127
1, 116490, Note_off_c, 5, 65, 127
1, 116490, Note_off_c, 12, 59, 127
1, 116490, Note_off_c, 7, 43, 127
1, 116494, Note_on_c, 0, 48, 127
1, 116494, Note_on_c, 0, 60, 127
1, 116494, Note_on_c, 4, 64, 127
1, 116633, Note_off_c, 0, 48, 127
1, 116636, Note_on_c, 2, 50, 127
1, 116775, Note_off_c, 2, 50, 127
1, 116776, Note_off_c, 4, 64, 127
1, 116779, Note_on_c, 4, 52, 127
1, 116779, Note_on_c, 10, 69, 127
1, 116909, Note_off_c, 0, 60, 127
1, 116917, Note_off_c, 4, 52, 127
1, 116921, Note_on_c, 2, 50, 127
1, 117060, Note_off_c, 2, 50, 127
1, 117060, Note_off_c, 10, 69, 127
1, 117064, Note_on_c, 1, 49, 127
1, 117064, Note_on_c, 10, 69, 127
1, 117203, Note_off_c, 1, 49, 127
1, 117206, Note_on_c, 4, 52, 127
1, 117345, Note_off_c, 4, 52, 127
1, 117346, Note_off_c, 10, 69, 127
1, 117349, Note_on_c, 10, 45, 127
1, 117349, Note_on_c, 4, 64, 127
1, 117349, Note_on_c, 7, 67, 127
1, 117488, Note_off_c, 10, 45, 127
1, 117492, Note_on_c, 1, 49, 127
1, 117631, Note_off_c, 1, 49, 127
1, 117631, Note_off_c, 7, 67, 127
1, 117631, Note_off_c, 4, 64, 127
1, 117635, Note_on_c, 2, 50, 127
1, 117635, Note_on_c, 4, 64, 127
1, 117635, Note_on_c, 6, 66, 127
1, 117774, Note_off_c, 2, 50, 127
1, 117778, Note_on_c, 4, 52, 127
1, 117917, Note_off_c, 4, 52, 127
1, 117917, Note_off_c, 6, 66, 127
1, 117917, Note_off_c, 4, 64, 127
1, 117920, Note_on_c, 6, 54, 127
1, 117920, Note_on_c, 2, 62, 127
1, 117920, Note_on_c, 12, 71, 127
1, 118059, Note_off_c, 6, 54, 127
1, 118063, Note_on_c, 4, 52, 127
1, 118202, Note_off_c, 4, 52, 127
1, 118202, Note_off_c, 12, 71, 127
1, 118202, Note_off_c, 2, 62, 127
1, 118206, Note_on_c, 3, 51, 127
1, 118206, Note_on_c, 12, 71, 127
1, 118345, Note_off_c, 3, 51, 127
1, 118349, Note_on_c, 6, 54, 127
1, 118488, Note_off_c, 6, 54, 127
1, 118488, Note_off_c, 12, 71, 127
1, 118492, Note_on_c, 12, 47, 127
1, 118492, Note_on_c, 6, 66, 127
1, 118492, Note_on_c, 10, 69, 127
1, 118631, Note_off_c, 12, 47, 127
1, 118634, Note_on_c, 3, 51, 127
1, 118773, Note_off_c, 3, 51, 127
1, 118774, Note_off_c, 10, 69, 127
1, 118774, Note_off_c, 6, 66, 127
1, 118777, Note_on_c, 4, 52, 127
1, 118777, Note_on_c, 6, 66, 127
1, 118777, Note_on_c, 7, 67, 127
1, 118916, Note_off_c, 4, 52, 127
1, 118920, Note_on_c, 6, 54, 127
1, 119059, Note_off_c, 6, 54, 127
1, 119059, Note_off_c, 7, 67, 127
1, 119059, Note_off_c, 6, 66, 127
1, 119063, Note_on_c, 7, 55, 127
1, 119063, Note_on_c, 4, 64, 127
1, 119063, Note_on_c, 0, 72, 127
1, 119202, Note_off_c, 7, 55, 127
1, 119206, Note_on_c, 6, 54, 127
1, 119345, Note_off_c, 6, 54, 127
1, 119345, Note_off_c, 0, 72, 127
1, 119348, Note_on_c, 4, 52, 127
1, 119348, Note_on_c, 0, 72, 127
1, 119478, Note_off_c, 4, 64, 127
1, 119486, Note_off_c, 4, 52, 127
1, 119490, Note_on_c, 7, 55, 127
1, 119629, Note_off_c, 7, 55, 127
1, 119629, Note_off_c, 0, 72, 127
1, 119633, Note_on_c, 0, 48, 127
1, 119633, Note_on_c, 7, 67, 127
1, 119633, Note_on_c, 12, 71, 127
1, 119772, Note_off_c, 0, 48, 127
1, 119776, Note_on_c, 4, 52, 127
1, 119915, Note_off_c, 4, 52, 127
1, 119915, Note_off_c, 12, 71, 127
1, 119915, Note_off_c, 7, 67, 127
1, 119919, Note_on_c, 6, 54, 127
1, 119919, Note_on_c, 7, 67, 127
1, 119919, Note_on_c, 10, 69, 127
1, 120058, Note_off_c, 6, 54, 127
1, 120061, Note_on_c, 7, 55, 127
1, 120200, Note_off_c, 7, 55, 127
1, 120201, Note_off_c, 10, 69, 127
1, 120201, Note_off_c, 7, 67, 127
1, 120204, Note_on_c, 10, 57, 127
1, 120204, Note_on_c, 6, 66, 127
1, 120204, Note_on_c, 2, 74, 127
1, 120343, Note_off_c, 10, 57, 127
1, 120347, Note_on_c, 7, 55, 127
1, 120486, Note_off_c, 7, 55, 127
1, 120486, Note_off_c, 2, 74, 127
1, 120490, Note_on_c, 6, 54, 127
1, 120490, Note_on_c, 2, 74, 127
1, 120619, Note_off_c, 6, 66, 127
1, 120628, Note_off_c, 6, 54, 127
1, 120632, Note_on_c, 10, 57, 127
1, 120771, Note_off_c, 10, 57, 127
1, 120771, Note_off_c, 2, 74, 127
1, 120774, Note_on_c, 2, 50, 127
1, 120774, Note_on_c, 10, 69, 127
1, 120774, Note_on_c, 0, 72, 127
1, 120913, Note_off_c, 2, 50, 127
1, 120917, Note_on_c, 6, 54, 127
1, 121056, Note_off_c, 6, 54, 127
1, 121056, Note_off_c, 0, 72, 127
1, 121060, Note_on_c, 7, 55, 127
1, 121060, Note_on_c, 12, 71, 127
1, 121199, Note_off_c, 10, 69, 127
1, 121203, Note_on_c, 6, 66, 127
1, 121342, Note_off_c, 6, 66, 127
1, 121342, Note_off_c, 7, 55, 127
1, 121346, Note_on_c, 7, 43, 127
1, 121346, Note_on_c, 7, 67, 127
1, 121485, Note_off_c, 7, 67, 127
1, 121488, Note_on_c, 2, 62, 127
1, 121624, Note_off_c, 12, 71, 127
1, 121627, Note_off_c, 2, 62, 127
1, 121631, Note_on_c, 4, 64, 127
1, 121761, Note_off_c, 7, 43, 127
1, 121773, Note_on_c, 7, 67, 127
1, 121912, Note_off_c, 7, 67, 127
1, 121916, Note_on_c, 7, 55, 127
1, 121916, Note_on_c, 12, 71, 127
1, 122055, Note_off_c, 12, 71, 127
1, 122059, Note_on_c, 2, 74, 127
1, 122194, Note_off_c, 4, 64, 127
1, 122198, Note_off_c, 2, 74, 127
1, 122198, Note_off_c, 7, 55, 127
1, 122201, Note_on_c, 10, 57, 127
1, 122201, Note_on_c, 0, 72, 127
1, 122269, Note_off_c, 10, 57, 127
1, 122273, Note_on_c, 7, 55, 127
1, 122341, Note_off_c, 7, 55, 127
1, 122344, Note_on_c, 10, 57, 127
1, 122344, Note_on_c, 7, 67, 127
1, 122412, Note_off_c, 10, 57, 127
1, 122416, Note_on_c, 7, 55, 127
1, 122483, Note_off_c, 7, 67, 127
1, 122484, Note_off_c, 7, 55, 127
1, 122487, Note_on_c, 6, 54, 127
1, 122487, Note_on_c, 10, 69, 127
1, 122626, Note_off_c, 10, 69, 127
1, 122630, Note_on_c, 4, 64, 127
1, 122765, Note_off_c, 0, 72, 127
1, 122769, Note_off_c, 4, 64, 127
1, 122773, Note_on_c, 6, 66, 127
1, 122902, Note_off_c, 6, 54, 127
1, 122914, Note_on_c, 10, 69, 127
1, 123053, Note_off_c, 10, 69, 127
1, 123057, Note_on_c, 10, 57, 127
1, 123057, Note_on_c, 0, 72, 127
1, 123196, Note_off_c, 0, 72, 127
1, 123200, Note_on_c, 4, 76, 127
1, 123336, Note_off_c, 6, 66, 127
1, 123339, Note_off_c, 4, 76, 127
1, 123339, Note_off_c, 10, 57, 127
1, 123343, Note_on_c, 12, 59, 127
1, 123343, Note_on_c, 2, 74, 127
1, 123411, Note_off_c, 12, 59, 127
1, 123414, Note_on_c, 10, 57, 127
1, 123482, Note_off_c, 10, 57, 127
1, 123485, Note_on_c, 12, 59, 127
1, 123485, Note_on_c, 10, 69, 127
1, 123553, Note_off_c, 12, 59, 127
1, 123557, Note_on_c, 10, 57, 127
1, 123624, Note_off_c, 10, 69, 127
1, 123625, Note_off_c, 10, 57, 127
1, 123628, Note_on_c, 7, 55, 127
1, 123628, Note_on_c, 12, 71, 127
1, 123767, Note_off_c, 12, 71, 127
1, 123771, Note_on_c, 6, 66, 127
1, 123907, Note_off_c, 2, 74, 127
1, 123910, Note_off_c, 6, 66, 127
1, 123914, Note_on_c, 7, 67, 127
1, 124057, Note_on_c, 12, 71, 127
1, 124074, Note_off_c, 7, 55, 127
1, 124196, Note_off_c, 12, 71, 127
1, 124199, Note_on_c, 12, 59, 127
1, 124199, Note_on_c, 2, 74, 127
1, 124338, Note_off_c, 2, 74, 127
1, 124342, Note_on_c, 5, 77, 127
1, 124478, Note_off_c, 7, 67, 127
1, 124481, Note_off_c, 5, 77, 127
1, 124481, Note_off_c, 12, 59, 127
1, 124485, Note_on_c, 0, 60, 127
1, 124485, Note_on_c, 4, 76, 127
1, 124553, Note_off_c, 0, 60, 127
1, 124556, Note_on_c, 12, 59, 127
1, 124624, Note_off_c, 12, 59, 127
1, 124628, Note_on_c, 0, 60, 127
1, 124628, Note_on_c, 12, 71, 127
1, 124696, Note_off_c, 0, 60, 127
1, 124699, Note_on_c, 12, 59, 127
1, 124767, Note_off_c, 12, 59, 127
1, 124767, Note_off_c, 12, 71, 127
1, 124771, Note_on_c, 10, 57, 127
1, 124771, Note_on_c, 0, 72, 127
1, 124910, Note_off_c, 0, 72, 127
1, 124910, Note_off_c, 10, 57, 127
1, 124913, Note_on_c, 12, 59, 127
1, 124913, Note_on_c, 7, 67, 127
1, 125049, Note_off_c, 4, 76, 127
1, 125052, Note_off_c, 7, 67, 127
1, 125052, Note_off_c, 12, 59, 127
1, 125056, Note_on_c, 0, 60, 127
1, 125056, Note_on_c, 10, 69, 127
1, 125199, Note_on_c, 0, 72, 127
1, 125338, Note_off_c, 0, 72, 127
1, 125338, Note_off_c, 0, 60, 127
1, 125342, Note_on_c, 4, 52, 127
1, 125342, Note_on_c, 4, 76, 127
1, 125481, Note_off_c, 4, 76, 127
1, 125485, Note_on_c, 7, 79, 127
1, 125620, Note_off_c, 10, 69, 127
1, 125624, Note_off_c, 7, 79, 127
1, 125624, Note_off_c, 4, 52, 127
1, 125627, Note_on_c, 2, 50, 127
1, 125627, Note_on_c, 6, 78, 127
1, 125766, Note_off_c, 6, 78, 127
1, 125770, Note_on_c, 4, 76, 127
1, 125909, Note_off_c, 4, 76, 127
1, 125909, Note_off_c, 2, 50, 127
1, 125913, Note_on_c, 6, 54, 127
1, 125913, Note_on_c, 2, 74, 127
1, 126056, Note_on_c, 0, 72, 127
1, 126195, Note_off_c, 0, 72, 127
1, 126195, Note_off_c, 6, 54, 127
1, 126199, Note_on_c, 7, 55, 127
1, 126199, Note_on_c, 12, 71, 127
1, 126338, Note_off_c, 2, 74, 127
1, 126341, Note_on_c, 2, 74, 127
1, 126480, Note_off_c, 2, 74, 127
1, 126481, Note_off_c, 7, 55, 127
1, 126484, Note_on_c, 12, 59, 127
1, 126484, Note_on_c, 7, 79, 127
1, 126623, Note_off_c, 7, 79, 127
1, 126627, Note_on_c, 2, 74, 127
1, 126763, Note_off_c, 12, 71, 127
1, 126766, Note_off_c, 2, 74, 127
1, 126766, Note_off_c, 12, 59, 127
1, 126770, Note_on_c, 0, 48, 127
1, 126770, Note_on_c, 4, 76, 127
1, 126913, Note_on_c, 12, 71, 127
1, 127052, Note_off_c, 12, 71, 127
1, 127052, Note_off_c, 0, 48, 127
1, 127055, Note_on_c, 10, 57, 127
1, 127055, Note_on_c, 0, 72, 127
1, 127194, Note_off_c, 0, 72, 127
1, 127198, Note_on_c, 4, 64, 127
1, 127334, Note_off_c, 4, 76, 127
1, 127337, Note_off_c, 4, 64, 127
1, 127337, Note_off_c, 10, 57, 127
1, 127341, Note_on_c, 2, 50, 127
1, 127341, Note_on_c, 6, 66, 127
1, 127484, Note_on_c, 10, 69, 127
1, 127623, Note_off_c, 10, 69, 127
1, 127623, Note_off_c, 2, 50, 127
1, 127627, Note_on_c, 6, 54, 127
1, 127627, Note_on_c, 2, 74, 127
1, 127766, Note_off_c, 2, 74, 127
1, 127769, Note_on_c, 10, 69, 127
1, 127905, Note_off_c, 6, 66, 127
1, 127908, Note_off_c, 10, 69, 127
1, 127909, Note_off_c, 6, 54, 127
1, 127912, Note_on_c, 7, 43, 127
1, 127912, Note_on_c, 12, 71, 127
1, 128055, Note_on_c, 6, 66, 127
1, 128194, Note_off_c, 6, 66, 127
1, 128194, Note_off_c, 7, 43, 127
1, 128198, Note_on_c, 7, 55, 127
1, 128198, Note_on_c, 4, 64, 127
1, 128337, Note_off_c, 4, 64, 127
1, 128341, Note_on_c, 2, 62, 127
1, 128480, Note_off_c, 2, 62, 127
1, 128480, Note_off_c, 7, 55, 127
1, 128483, Note_on_c, 1, 49, 127
1, 128483, Note_on_c, 4, 64, 127
1, 128622, Note_off_c, 4, 64, 127
1, 128626, Note_on_c, 6, 66, 127
1, 128765, Note_off_c, 6, 66, 127
1, 128765, Note_off_c, 1, 49, 127
1, 128769, Note_on_c, 4, 52, 127
1, 128769, Note_on_c, 7, 67, 127
1, 128908, Note_off_c, 7, 67, 127
1, 128912, Note_on_c, 1, 61, 127
1, 129051, Note_off_c, 4, 52, 127
1, 129051, Note_off_c, 12, 71, 127
1, 129055, Note_on_c, 6, 42, 127
1, 129055, Note_on_c, 10, 69, 127
1, 129194, Note_off_c, 1, 61, 127
1, 129197, Note_on_c, 4, 64, 127
1, 129336, Note_off_c, 4, 64, 127
1, 129337, Note_off_c, 6, 42, 127
1, 129340, Note_on_c, 6, 54, 127
1, 129340, Note_on_c, 2, 62, 127
1, 129479, Note_off_c, 2, 62, 127
1, 129483, Note_on_c, 1, 61, 127
1, 129622, Note_off_c, 1, 61, 127
1, 129622, Note_off_c, 6, 54, 127
1, 129626, Note_on_c, 12, 47, 127
1, 129626, Note_on_c, 2, 62, 127
1, 129765, Note_off_c, 2, 62, 127
1, 129769, Note_on_c, 4, 64, 127
1, 129908, Note_off_c, 4, 64, 127
1, 129908, Note_off_c, 12, 47, 127
1, 129911, Note_on_c, 2, 50, 127
1, 129911, Note_on_c, 6, 66, 127
1, 130050, Note_off_c, 6, 66, 127
1, 130054, Note_on_c, 12, 59, 127
1, 130193, Note_off_c, 2, 50, 127
1, 130194, Note_off_c, 10, 69, 127
1, 130197, Note_on_c, 4, 40, 127
1, 130197, Note_on_c, 7, 67, 127
1, 130336, Note_off_c, 12, 59, 127
1, 130340, Note_on_c, 2, 62, 127
1, 130479, Note_off_c, 2, 62, 127
1, 130479, Note_off_c, 4, 40, 127
1, 130483, Note_on_c, 4, 52, 127
1, 130483, Note_on_c, 1, 61, 127
1, 130622, Note_off_c, 1, 61, 127
1, 130625, Note_on_c, 12, 59, 127
1, 130764, Note_off_c, 12, 59, 127
1, 130765, Note_off_c, 4, 52, 127
1, 130768, Note_on_c, 10, 45, 127
1, 130768, Note_on_c, 1, 61, 127
1, 130907, Note_off_c, 1, 61, 127
1, 130911, Note_on_c, 2, 62, 127
1, 131050, Note_off_c, 2, 62, 127
1, 131050, Note_off_c, 10, 45, 127
1, 131054, Note_on_c, 1, 49, 127
1, 131054, Note_on_c, 4, 64, 127
1, 131193, Note_off_c, 4, 64, 127
1, 131197, Note_on_c, 10, 57, 127
1, 131336, Note_off_c, 1, 49, 127
1, 131336, Note_off_c, 7, 67, 127
1, 131339, Note_on_c, 2, 38, 127
1, 131339, Note_on_c, 6, 66, 127
1, 131478, Note_off_c, 2, 38, 127
1, 131479, Note_off_c, 10, 57, 127
1, 131482, Note_on_c, 10, 45, 127
1, 131482, Note_on_c, 1, 61, 127
1, 131621, Note_off_c, 1, 61, 127
1, 131621, Note_off_c, 10, 45, 127
1, 131625, Note_on_c, 12, 47, 127
1, 131625, Note_on_c, 2, 62, 127
1, 131764, Note_off_c, 2, 62, 127
1, 131764, Note_off_c, 12, 47, 127
1, 131768, Note_on_c, 1, 49, 127
1, 131768, Note_on_c, 4, 64, 127
1, 131903, Note_off_c, 6, 66, 127
1, 131907, Note_off_c, 4, 64, 127
1, 131907, Note_off_c, 1, 49, 127
1, 131911, Note_on_c, 2, 50, 127
1, 131911, Note_on_c, 6, 66, 127
1, 132050, Note_off_c, 2, 50, 127
1, 132053, Note_on_c, 4, 52, 127
1, 132053, Note_on_c, 7, 67, 127
1, 132192, Note_off_c, 7, 67, 127
1, 132192, Note_off_c, 4, 52, 127
1, 132193, Note_off_c, 6, 66, 127
1, 132196, Note_on_c, 6, 54, 127
1, 132196, Note_on_c, 10, 69, 127
1, 132196, Note_on_c, 2, 74, 127
1, 132335, Note_off_c, 10, 69, 127
1, 132335, Note_off_c, 6, 54, 127
1, 132339, Note_on_c, 2, 50, 127
1, 132339, Note_on_c, 6, 66, 127
1, 132478, Note_off_c, 6, 66, 127
1, 132478, Note_off_c, 2, 50, 127
1, 132478, Note_off_c, 2, 74, 127
1, 132482, Note_on_c, 4, 52, 127
1, 132482, Note_on_c, 7, 67, 127
1, 132482, Note_on_c, 2, 74, 127
1, 132621, Note_off_c, 4, 52, 127
1, 132625, Note_on_c, 7, 55, 127
1, 132764, Note_off_c, 7, 55, 127
1, 132764, Note_off_c, 2, 74, 127
1, 132764, Note_off_c, 7, 67, 127
1, 132767, Note_on_c, 10, 57, 127
1, 132767, Note_on_c, 4, 64, 127
1, 132767, Note_on_c, 1, 73, 127
1, 132906, Note_off_c, 10, 57, 127
1, 132910, Note_on_c, 12, 59, 127
1, 133049, Note_off_c, 12, 59, 127
1, 133049, Note_off_c, 4, 64, 127
1, 133053, Note_on_c, 1, 49, 127
1, 133053, Note_on_c, 10, 69, 127
1, 133182, Note_off_c, 1, 73, 127
1, 133191, Note_off_c, 1, 49, 127
1, 133195, Note_on_c, 12, 59, 127
1, 133334, Note_off_c, 12, 59, 127
1, 133334, Note_off_c, 10, 69, 127
1, 133338, Note_on_c, 10, 57, 127
1, 133338, Note_on_c, 1, 73, 127
1, 133338, Note_on_c, 4, 76, 127
1, 133477, Note_off_c, 10, 57, 127
1, 133480, Note_on_c, 7, 55, 127
1, 133619, Note_off_c, 7, 55, 127
1, 133620, Note_off_c, 4, 76, 127
1, 133620, Note_off_c, 1, 73, 127
1, 133623, Note_on_c, 6, 54, 127
1, 133623, Note_on_c, 10, 69, 127
1, 133623, Note_on_c, 4, 76, 127
1, 133762, Note_off_c, 6, 54, 127
1, 133766, Note_on_c, 10, 57, 127
1, 133905, Note_off_c, 10, 57, 127
1, 133905, Note_off_c, 4, 76, 127
1, 133905, Note_off_c, 10, 69, 127
1, 133909, Note_on_c, 12, 59, 127
1, 133909, Note_on_c, 6, 66, 127
1, 133909, Note_on_c, 2, 74, 127
1, 134048, Note_off_c, 12, 59, 127
1, 134052, Note_on_c, 1, 61, 127
1, 134191, Note_off_c, 1, 61, 127
1, 134191, Note_off_c, 6, 66, 127
1, 134194, Note_on_c, 2, 50, 127
1, 134194, Note_on_c, 10, 69, 127
1, 134324, Note_off_c, 2, 74, 127
1, 134332, Note_off_c, 2, 50, 127
1, 134336, Note_on_c, 0, 60, 127
1, 134475, Note_off_c, 0, 60, 127
1, 134475, Note_off_c, 10, 69, 127
1, 134479, Note_on_c, 12, 59, 127
1, 134479, Note_on_c, 2, 74, 127
1, 134479, Note_on_c, 6, 78, 127
1, 134618, Note_off_c, 12, 59, 127
1, 134622, Note_on_c, 10, 57, 127
1, 134761, Note_off_c, 10, 57, 127
1, 134761, Note_off_c, 6, 78, 127
1, 134761, Note_off_c, 2, 74, 127
1, 134765, Note_on_c, 7, 55, 127
1, 134765, Note_on_c, 12, 71, 127
1, 134765, Note_on_c, 6, 78, 127
1, 134904, Note_off_c, 7, 55, 127
1, 134907, Note_on_c, 12, 59, 127
1, 135046, Note_off_c, 12, 59, 127
1, 135047, Note_off_c, 6, 78, 127
1, 135050, Note_on_c, 1, 61, 127
1, 135050, Note_on_c, 4, 76, 127
1, 135189, Note_off_c, 4, 76, 127
1, 135189, Note_off_c, 1, 61, 127
1, 135193, Note_on_c, 2, 62, 127
1, 135193, Note_on_c, 6, 78, 127
1, 135332, Note_off_c, 6, 78, 127
1, 135332, Note_off_c, 2, 62, 127
1, 135336, Note_on_c, 4, 52, 127
1, 135336, Note_on_c, 7, 79, 127
1, 135475, Note_off_c, 7, 79, 127
1, 135475, Note_off_c, 4, 52, 127
1, 135479, Note_on_c, 6, 54, 127
1, 135479, Note_on_c, 6, 78, 127
1, 135568, Note_off_c, 12, 71, 127
1, 135618, Note_off_c, 6, 78, 127
1, 135618, Note_off_c, 6, 54, 127
1, 135621, Note_on_c, 7, 55, 127
1, 135621, Note_on_c, 12, 71, 127
1, 135621, Note_on_c, 4, 76, 127
1, 135760, Note_off_c, 4, 76, 127
1, 135764, Note_on_c, 2, 74, 127
1, 135903, Note_off_c, 2, 74, 127
1, 135903, Note_off_c, 12, 71, 127
1, 135907, Note_on_c, 10, 69, 127
1, 135907, Note_on_c, 1, 73, 127
1, 136046, Note_off_c, 10, 69, 127
1, 136046, Note_off_c, 7, 55, 127
1, 136050, Note_on_c, 7, 55, 127
1, 136050, Note_on_c, 12, 71, 127
1, 136189, Note_off_c, 12, 71, 127
1, 136189, Note_off_c, 7, 55, 127
1, 136189, Note_off_c, 1, 73, 127
1, 136193, Note_on_c, 6, 54, 127
1, 136193, Note_on_c, 10, 69, 127
1, 136193, Note_on_c, 1, 73, 127
1, 136332, Note_off_c, 10, 69, 127
1, 136332, Note_off_c, 6, 54, 127
1, 136335, Note_on_c, 4, 52, 127
1, 136335, Note_on_c, 7, 67, 127
1, 136474, Note_off_c, 7, 67, 127
1, 136474, Note_off_c, 4, 52, 127
1, 136475, Note_off_c, 1, 73, 127
1, 136478, Note_on_c, 6, 54, 127
1, 136478, Note_on_c, 10, 69, 127
1, 136478, Note_on_c, 2, 74, 127
1, 136617, Note_off_c, 6, 54, 127
1, 136621, Note_on_c, 7, 55, 127
1, 136760, Note_off_c, 7, 55, 127
1, 136760, Note_off_c, 2, 74, 127
1, 136764, Note_on_c, 10, 57, 127
1, 136764, Note_on_c, 6, 78, 127
1, 136903, Note_off_c, 10, 57, 127
1, 136907, Note_on_c, 2, 50, 127
1, 137046, Note_off_c, 2, 50, 127
1, 137046, Note_off_c, 6, 78, 127
1, 137049, Note_on_c, 12, 59, 127
1, 137049, Note_on_c, 7, 67, 127
1, 137188, Note_off_c, 12, 59, 127
1, 137192, Note_on_c, 2, 50, 127
1, 137331, Note_off_c, 2, 50, 127
1, 137331, Note_off_c, 7, 67, 127
1, 137335, Note_on_c, 1, 49, 127
1, 137335, Note_on_c, 4, 76, 127
1, 137474, Note_off_c, 1, 49, 127
1, 137478, Note_on_c, 12, 47, 127
1, 137617, Note_off_c, 12, 47, 127
1, 137617, Note_off_c, 4, 76, 127
1, 137618, Note_off_c, 10, 69, 127
1, 137620, Note_on_c, 1, 49, 127
1, 137620, Note_on_c, 10, 69, 127
1, 137759, Note_off_c, 1, 49, 127
1, 137762, Note_on_c, 2, 50, 127
1, 137901, Note_off_c, 2, 50, 127
1, 137902, Note_off_c, 10, 69, 127
1, 137905, Note_on_c, 4, 52, 127
1, 137905, Note_on_c, 1, 73, 127
1, 138044, Note_off_c, 4, 52, 127
1, 138048, Note_on_c, 10, 45, 127
1, 138187, Note_off_c, 10, 45, 127
1, 138187, Note_off_c, 1, 73, 127
1, 138191, Note_on_c, 6, 54, 127
1, 138191, Note_on_c, 2, 74, 127
1, 138330, Note_off_c, 6, 54, 127
1, 138334, Note_on_c, 4, 52, 127
1, 138473, Note_off_c, 4, 52, 127
1, 138476, Note_on_c, 2, 50, 127
1, 138476, Note_on_c, 10, 69, 127
1, 138615, Note_off_c, 2, 50, 127
1, 138619, Note_on_c, 0, 48, 127
1, 138758, Note_off_c, 0, 48, 127
1, 138758, Note_off_c, 10, 69, 127
1, 138762, Note_on_c, 12, 47, 127
1, 138762, Note_on_c, 10, 69, 127
1, 138901, Note_off_c, 12, 47, 127
1, 138905, Note_on_c, 0, 48, 127
1, 139044, Note_off_c, 0, 48, 127
1, 139044, Note_off_c, 10, 69, 127
1, 139044, Note_off_c, 2, 74, 127
1, 139048, Note_on_c, 2, 50, 127
1, 139048, Note_on_c, 8, 68, 127
1, 139048, Note_on_c, 12, 71, 127
1, 139187, Note_off_c, 2, 50, 127
1, 139190, Note_on_c, 12, 47, 127
1, 139329, Note_off_c, 12, 47, 127
1, 139330, Note_off_c, 12, 71, 127
1, 139333, Note_on_c, 0, 48, 127
1, 139333, Note_on_c, 12, 71, 127
1, 139405, Note_off_c, 8, 68, 127
1, 139472, Note_off_c, 0, 48, 127
1, 139476, Note_on_c, 4, 52, 127
1, 139615, Note_off_c, 4, 52, 127
1, 139615, Note_off_c, 12, 71, 127
1, 139619, Note_on_c, 10, 57, 127
1, 139619, Note_on_c, 0, 72, 127
1, 139619, Note_on_c, 10, 69, 127
1, 139758, Note_off_c, 10, 57, 127
1, 139762, Note_on_c, 7, 55, 127
1, 139901, Note_off_c, 7, 55, 127
1, 139901, Note_off_c, 0, 72, 127
1, 139904, Note_on_c, 5, 53, 127
1, 139904, Note_on_c, 0, 72, 127
1, 139976, Note_off_c, 10, 69, 127
1, 140043, Note_off_c, 5, 53, 127
1, 140047, Note_on_c, 8, 56, 127
1, 140186, Note_off_c, 8, 56, 127
1, 140186, Note_off_c, 0, 72, 127
1, 140190, Note_on_c, 10, 57, 127
1, 140190, Note_on_c, 12, 71, 127
1, 140190, Note_on_c, 2, 74, 127
1, 140329, Note_off_c, 10, 57, 127
1, 140333, Note_on_c, 5, 53, 127
1, 140472, Note_off_c, 5, 53, 127
1, 140472, Note_off_c, 2, 74, 127
1, 140476, Note_on_c, 4, 52, 127
1, 140476, Note_on_c, 2, 74, 127
1, 140547, Note_off_c, 12, 71, 127
1, 140615, Note_off_c, 4, 52, 127
1, 140618, Note_on_c, 7, 55, 127
1, 140757, Note_off_c, 7, 55, 127
1, 140758, Note_off_c, 2, 74, 127
1, 140761, Note_on_c, 10, 57, 127
1, 140761, Note_on_c, 4, 76, 127
1, 140761, Note_on_c, 0, 72, 127
1, 140900, Note_off_c, 10, 57, 127
1, 140904, Note_on_c, 7, 55, 127
1, 141043, Note_off_c, 7, 55, 127
1, 141043, Note_off_c, 4, 76, 127
1, 141047, Note_on_c, 6, 54, 127
1, 141047, Note_on_c, 4, 76, 127
1, 141118, Note_off_c, 0, 72, 127
1, 141186, Note_off_c, 6, 54, 127
1, 141190, Note_on_c, 8, 56, 127
1, 141329, Note_off_c, 8, 56, 127
1, 141329, Note_off_c, 4, 76, 127
1, 141332, Note_on_c, 10, 57, 127
1, 141332, Note_on_c, 2, 74, 127
1, 141332, Note_on_c, 5, 77, 127
1, 141471, Note_off_c, 10, 57, 127
1, 141475, Note_on_c, 0, 60, 127
1, 141614, Note_off_c, 0, 60, 127
1, 141614, Note_off_c, 5, 77, 127
1, 141618, Note_on_c, 12, 59, 127
1, 141618, Note_on_c, 5, 77, 127
1, 141689, Note_off_c, 2, 74, 127
1, 141757, Note_off_c, 12, 59, 127
1, 141761, Note_on_c, 10, 57, 127
1, 141900, Note_off_c, 10, 57, 127
1, 141900, Note_off_c, 5, 77, 127
1, 141904, Note_on_c, 8, 56, 127
1, 141904, Note_on_c, 2, 74, 127
1, 141904, Note_on_c, 4, 76, 127
1, 142043, Note_off_c, 8, 56, 127
1, 142046, Note_on_c, 6, 54, 127
1, 142185, Note_off_c, 6, 54, 127
1, 142186, Note_off_c, 2, 74, 127
1, 142189, Note_on_c, 8, 56, 127
1, 142189, Note_on_c, 2, 74, 127
1, 142261, Note_off_c, 4, 76, 127
1, 142328, Note_off_c, 8, 56, 127
1, 142332, Note_on_c, 4, 52, 127
1, 142471, Note_off_c, 4, 52, 127
1, 142471, Note_off_c, 2, 74, 127
1, 142475, Note_on_c, 10, 57, 127
1, 142475, Note_on_c, 0, 72, 127
1, 142475, Note_on_c, 4, 76, 127
1, 142614, Note_off_c, 10, 57, 127
1, 142618, Note_on_c, 7, 55, 127
1, 142757, Note_off_c, 7, 55, 127
1, 142757, Note_off_c, 4, 76, 127
1, 142760, Note_on_c, 6, 54, 127
1, 142760, Note_on_c, 4, 76, 127
1, 142832, Note_off_c, 0, 72, 127
1, 142899, Note_off_c, 6, 54, 127
1, 142903, Note_on_c, 0, 60, 127
1, 143042, Note_off_c, 0, 60, 127
1, 143042, Note_off_c, 4, 76, 127
1, 143046, Note_on_c, 6, 54, 127
1, 143046, Note_on_c, 0, 72, 127
1, 143046, Note_on_c, 2, 74, 127
1, 143185, Note_off_c, 6, 54, 127
1, 143189, Note_on_c, 4, 52, 127
1, 143328, Note_off_c, 4, 52, 127
1, 143328, Note_off_c, 0, 72, 127
1, 143332, Note_on_c, 6, 54, 127
1, 143332, Note_on_c, 0, 72, 127
1, 143403, Note_off_c, 2, 74, 127
1, 143471, Note_off_c, 6, 54, 127
1, 143474, Note_on_c, 2, 50, 127
1, 143613, Note_off_c, 2, 50, 127
1, 143614, Note_off_c, 0, 72, 127
1, 143617, Note_on_c, 7, 55, 127
1, 143617, Note_on_c, 12, 71, 127
1, 143617, Note_on_c, 2, 74, 127
1, 143756, Note_off_c, 7, 55, 127
1, 143760, Note_on_c, 5, 53, 127
1, 143899, Note_off_c, 5, 53, 127
1, 143899, Note_off_c, 2, 74, 127
1, 143903, Note_on_c, 4, 52, 127
1, 143903, Note_on_c, 2, 74, 127
1, 143974, Note_off_c, 12, 71, 127
1, 144042, Note_off_c, 4, 52, 127
1, 144046, Note_on_c, 12, 59, 127
1, 144185, Note_off_c, 12, 59, 127
1, 144185, Note_off_c, 2, 74, 127
1, 144188, Note_on_c, 4, 52, 127
1, 144188, Note_on_c, 12, 71, 127
1, 144188, Note_on_c, 0, 72, 127
1, 144327, Note_off_c, 4, 52, 127
1, 144331, Note_on_c, 2, 50, 127
1, 144470, Note_off_c, 2, 50, 127
1, 144470, Note_off_c, 12, 71, 127
1, 144474, Note_on_c, 4, 52, 127
1, 144474, Note_on_c, 12, 71, 127
1, 144545, Note_off_c, 0, 72, 127
1, 144613, Note_off_c, 4, 52, 127
1, 144617, Note_on_c, 0, 48, 127
1, 144756, Note_off_c, 0, 48, 127
1, 144756, Note_off_c, 12, 71, 127
1, 144760, Note_on_c, 5, 53, 127
1, 144760, Note_on_c, 10, 69, 127
1, 144760, Note_on_c, 0, 72, 127
1, 144899, Note_off_c, 5, 53, 127
1, 144902, Note_on_c, 4, 52, 127
1, 145041, Note_off_c, 4, 52, 127
1, 145042, Note_off_c, 0, 72, 127
1, 145045, Note_on_c, 2, 50, 127
1, 145045, Note_on_c, 0, 72, 127
1, 145117, Note_off_c, 10, 69, 127
1, 145184, Note_off_c, 2, 50, 127
1, 145188, Note_on_c, 4, 52, 127
1, 145327, Note_off_c, 4, 52, 127
1, 145327, Note_off_c, 0, 72, 127
1, 145331, Note_on_c, 5, 53, 127
1, 145331, Note_on_c, 2, 62, 127
1, 145331, Note_on_c, 12, 71, 127
1, 145470, Note_off_c, 5, 53, 127
1, 145474, Note_on_c, 8, 44, 127
1, 145613, Note_off_c, 8, 44, 127
1, 145613, Note_off_c, 12, 71, 127
1, 145613, Note_off_c, 2, 62, 127
1, 145616, Note_on_c, 10, 45, 127
1, 145616, Note_on_c, 2, 62, 127
1, 145616, Note_on_c, 12, 71, 127
1, 145755, Note_off_c, 10, 45, 127
1, 145759, Note_on_c, 12, 47, 127
1, 145898, Note_off_c, 12, 47, 127
1, 145898, Note_off_c, 12, 71, 127
1, 145898, Note_off_c, 2, 62, 127
1, 145902, Note_on_c, 0, 48, 127
1, 145902, Note_on_c, 0, 60, 127
1, 145902, Note_on_c, 10, 69, 127
1, 146041, Note_off_c, 0, 48, 127
1, 146045, Note_on_c, 3, 39, 127
1, 146184, Note_off_c, 3, 39, 127
1, 146184, Note_off_c, 10, 69, 127
1, 146184, Note_off_c, 0, 60, 127
1, 146188, Note_on_c, 4, 40, 127
1, 146188, Note_on_c, 0, 60, 127
1, 146188, Note_on_c, 10, 69, 127
1, 146327, Note_off_c, 4, 40, 127
1, 146330, Note_on_c, 4, 52, 127
1, 146469, Note_off_c, 4, 52, 127
1, 146470, Note_off_c, 10, 69, 127
1, 146470, Note_off_c, 0, 60, 127
1, 146473, Note_on_c, 2, 50, 127
1, 146473, Note_on_c, 12, 59, 127
1, 146473, Note_on_c, 8, 68, 127
1, 146612, Note_off_c, 2, 50, 127
1, 146616, Note_on_c, 4, 52, 127
1, 146740, Note_off_c, 8, 68, 127
1, 146755, Note_off_c, 4, 52, 127
1, 146755, Note_off_c, 12, 59, 127
1, 146759, Note_on_c, 0, 48, 127
1, 146759, Note_on_c, 12, 59, 127
1, 146902, Note_on_c, 4, 76, 127
1, 147041, Note_off_c, 4, 76, 127
1, 147041, Note_off_c, 12, 59, 127
1, 147044, Note_on_c, 10, 57, 127
1, 147044, Note_on_c, 2, 74, 127
1, 147183, Note_off_c, 2, 74, 127
1, 147187, Note_on_c, 0, 72, 127
1, 147326, Note_off_c, 0, 72, 127
1, 147326, Note_off_c, 10, 57, 127
1, 147327, Note_off_c, 0, 48, 127
1, 147330, Note_on_c, 2, 50, 127
1, 147330, Note_on_c, 10, 57, 127
1, 147330, Note_on_c, 12, 71, 127
1, 147469, Note_off_c, 12, 71, 127
1, 147473, Note_on_c, 2, 74, 127
1, 147612, Note_off_c, 2, 74, 127
1, 147612, Note_off_c, 10, 57, 127
1, 147616, Note_on_c, 8, 56, 127
1, 147616, Note_on_c, 4, 76, 127
1, 147755, Note_off_c, 4, 76, 127
1, 147758, Note_on_c, 5, 77, 127
1, 147897, Note_off_c, 5, 77, 127
1, 147898, Note_off_c, 2, 50, 127
1, 147901, Note_on_c, 4, 52, 127
1, 147901, Note_on_c, 8, 68, 127
1, 148031, Note_off_c, 8, 56, 127
1, 148039, Note_off_c, 8, 68, 127
1, 148043, Note_on_c, 5, 77, 127
1, 148182, Note_off_c, 5, 77, 127
1, 148186, Note_on_c, 12, 59, 127
1, 148186, Note_on_c, 4, 76, 127
1, 148325, Note_off_c, 4, 76, 127
1, 148328, Note_on_c, 2, 74, 127
1, 148467, Note_off_c, 2, 74, 127
1, 148468, Note_off_c, 12, 59, 127
1, 148468, Note_off_c, 4, 52, 127
1, 148471, Note_on_c, 10, 45, 127
1, 148471, Note_on_c, 12, 59, 127
1, 148471, Note_on_c, 0, 72, 127
1, 148610, Note_off_c, 0, 72, 127
1, 148610, Note_off_c, 10, 45, 127
1, 148614, Note_on_c, 8, 56, 127
1, 148614, Note_on_c, 4, 76, 127
1, 148753, Note_off_c, 4, 76, 127
1, 148753, Note_off_c, 8, 56, 127
1, 148753, Note_off_c, 12, 59, 127
1, 148757, Note_on_c, 10, 57, 127
1, 148757, Note_on_c, 6, 78, 127
1, 148896, Note_off_c, 6, 78, 127
1, 148900, Note_on_c, 12, 59, 127
1, 148900, Note_on_c, 8, 80, 127
1, 149039, Note_off_c, 8, 80, 127
1, 149039, Note_off_c, 12, 59, 127
1, 149042, Note_on_c, 0, 60, 127
1, 149042, Note_on_c, 10, 69, 127
1, 149172, Note_off_c, 10, 57, 127
1, 149180, Note_off_c, 10, 69, 127
1, 149180, Note_off_c, 0, 60, 127
1, 149184, Note_on_c, 12, 59, 127
1, 149184, Note_on_c, 7, 79, 127
1, 149323, Note_off_c, 7, 79, 127
1, 149323, Note_off_c, 12, 59, 127
1, 149327, Note_on_c, 10, 57, 127
1, 149327, Note_on_c, 0, 60, 127
1, 149327, Note_on_c, 5, 77, 127
1, 149466, Note_off_c, 5, 77, 127
1, 149466, Note_off_c, 10, 57, 127
1, 149470, Note_on_c, 7, 55, 127
1, 149470, Note_on_c, 4, 76, 127
1, 149609, Note_off_c, 4, 76, 127
1, 149609, Note_off_c, 7, 55, 127
1, 149609, Note_off_c, 0, 60, 127
1, 149613, Note_on_c, 6, 54, 127
1, 149613, Note_on_c, 0, 60, 127
1, 149613, Note_on_c, 2, 74, 127
1, 149752, Note_off_c, 2, 74, 127
1, 149755, Note_on_c, 6, 78, 127
1, 149894, Note_off_c, 6, 78, 127
1, 149895, Note_off_c, 0, 60, 127
1, 149898, Note_on_c, 12, 59, 127
1, 149898, Note_on_c, 8, 80, 127
1, 150037, Note_off_c, 8, 80, 127
1, 150037, Note_off_c, 12, 59, 127
1, 150041, Note_on_c, 0, 60, 127
1, 150041, Note_on_c, 10, 81, 127
1, 150177, Note_off_c, 6, 54, 127
1, 150180, Note_off_c, 10, 81, 127
1, 150180, Note_off_c, 0, 60, 127
1, 150184, Note_on_c, 2, 62, 127
1, 150184, Note_on_c, 12, 71, 127
1, 150323, Note_off_c, 12, 71, 127
1, 150327, Note_on_c, 0, 72, 127
1, 150466, Note_off_c, 0, 72, 127
1, 150466, Note_off_c, 2, 62, 127
1, 150469, Note_on_c, 12, 47, 127
1, 150469, Note_on_c, 5, 53, 127
1, 150469, Note_on_c, 2, 74, 127
1, 150612, Note_on_c, 10, 69, 127
1, 150751, Note_off_c, 10, 69, 127
1, 150751, Note_off_c, 5, 53, 127
1, 150751, Note_off_c, 12, 47, 127
1, 150755, Note_on_c, 0, 48, 127
1, 150755, Note_on_c, 4, 52, 127
1, 150755, Note_on_c, 8, 68, 127
1, 150884, Note_off_c, 2, 74, 127
1, 150893, Note_off_c, 8, 68, 127
1, 150897, Note_on_c, 5, 77, 127
1, 151036, Note_off_c, 5, 77, 127
1, 151036, Note_off_c, 4, 52, 127
1, 151040, Note_on_c, 8, 56, 127
1, 151040, Note_on_c, 4, 76, 127
1, 151179, Note_off_c, 4, 76, 127
1, 151182, Note_on_c, 2, 74, 127
1, 151321, Note_off_c, 2, 74, 127
1, 151322, Note_off_c, 8, 56, 127
1, 151325, Note_on_c, 10, 57, 127
1, 151325, Note_on_c, 0, 72, 127
1, 151464, Note_off_c, 0, 72, 127
1, 151467, Note_off_c, 0, 48, 127
1, 151468, Note_on_c, 12, 71, 127
1, 151607, Note_off_c, 12, 71, 127
1, 151607, Note_off_c, 10, 57, 127
1, 151611, Note_on_c, 5, 53, 127
1, 151611, Note_on_c, 0, 60, 127
1, 151611, Note_on_c, 10, 69, 127
1, 151750, Note_off_c, 5, 53, 127
1, 151754, Note_on_c, 4, 52, 127
1, 151893, Note_off_c, 4, 52, 127
1, 151893, Note_off_c, 0, 60, 127
1, 151896, Note_on_c, 2, 50, 127
1, 151896, Note_on_c, 5, 53, 127
1, 152036, Note_off_c, 10, 69, 127
1, 152039, Note_on_c, 8, 68, 127
1, 152178, Note_off_c, 8, 68, 127
1, 152178, Note_off_c, 5, 53, 127
1, 152178, Note_off_c, 2, 50, 127
1, 152182, Note_on_c, 2, 50, 127
1, 152182, Note_on_c, 12, 59, 127
1, 152182, Note_on_c, 10, 69, 127
1, 152321, Note_off_c, 10, 69, 127
1, 152325, Note_on_c, 12, 71, 127
1, 152464, Note_off_c, 12, 71, 127
1, 152464, Note_off_c, 12, 59, 127
1, 152464, Note_off_c, 2, 50, 127
1, 152468, Note_on_c, 4, 52, 127
1, 152468, Note_on_c, 2, 62, 127
1, 152607, Note_off_c, 2, 62, 127
1, 152610, Note_on_c, 5, 65, 127
1, 152749, Note_off_c, 5, 65, 127
1, 152753, Note_on_c, 8, 56, 127
1, 152753, Note_on_c, 4, 64, 127
1, 152892, Note_off_c, 4, 64, 127
1, 152896, Note_on_c, 2, 62, 127
1, 153032, Note_off_c, 4, 52, 127
1, 153035, Note_off_c, 2, 62, 127
1, 153035, Note_off_c, 8, 56, 127
1, 153039, Note_on_c, 10, 45, 127
1, 153039, Note_on_c, 10, 57, 127
1, 153039, Note_on_c, 0, 60, 127
1, 153178, Note_off_c, 0, 60, 127
1, 153182, Note_on_c, 4, 64, 127
1, 153321, Note_off_c, 4, 64, 127
1, 153321, Note_off_c, 10, 57, 127
1, 153324, Note_on_c, 10, 57, 127
1, 153324, Note_on_c, 5, 65, 127
1, 153324, Note_on_c, 10, 69, 127
1, 153463, Note_off_c, 10, 69, 127
1, 153467, Note_on_c, 0, 72, 127
1, 153603, Note_off_c, 10, 45, 127
1, 153606, Note_off_c, 0, 72, 127
1, 153606, Note_off_c, 5, 65, 127
1, 153610, Note_on_c, 5, 65, 127
1, 153610, Note_on_c, 12, 71, 127
1, 153681, Note_off_c, 10, 57, 127
1, 153749, Note_off_c, 12, 71, 127
1, 153753, Note_on_c, 10, 69, 127
1, 153892, Note_off_c, 10, 69, 127
1, 153892, Note_off_c, 5, 65, 127
1, 153896, Note_on_c, 7, 55, 127
1, 153896, Note_on_c, 4, 64, 127
1, 153896, Note_on_c, 12, 71, 127
1, 154035, Note_off_c, 12, 71, 127
1, 154038, Note_on_c, 4, 76, 127
1, 154177, Note_off_c, 4, 76, 127
1, 154178, Note_off_c, 7, 55, 127
1, 154181, Note_on_c, 7, 55, 127
1, 154181, Note_on_c, 10, 69, 127
1, 154253, Note_off_c, 4, 64, 127
1, 154320, Note_off_c, 10, 69, 127
1, 154324, Note_on_c, 0, 72, 127
1, 154463, Note_off_c, 0, 72, 127
1, 154463, Note_off_c, 7, 55, 127
1, 154467, Note_on_c, 5, 53, 127
1, 154467, Note_on_c, 2, 62, 127
1, 154467, Note_on_c, 12, 71, 127
1, 154606, Note_off_c, 12, 71, 127
1, 154610, Note_on_c, 10, 69, 127
1, 154749, Note_off_c, 10, 69, 127
1, 154749, Note_off_c, 2, 62, 127
1, 154752, Note_on_c, 2, 62, 127
1, 154752, Note_on_c, 7, 67, 127
1, 154824, Note_off_c, 5, 53, 127
1, 154891, Note_off_c, 7, 67, 127
1, 154895, Note_on_c, 5, 65, 127
1, 155034, Note_off_c, 5, 65, 127
1, 155034, Note_off_c, 2, 62, 127
1, 155038, Note_on_c, 4, 52, 127
1, 155038, Note_on_c, 0, 60, 127
1, 155038, Note_on_c, 7, 67, 127
1, 155177, Note_off_c, 7, 67, 127
1, 155181, Note_on_c, 0, 72, 127
1, 155320, Note_off_c, 0, 72, 127
1, 155320, Note_off_c, 4, 52, 127
1, 155324, Note_on_c, 4, 52, 127
1, 155324, Note_on_c, 5, 65, 127
1, 155395, Note_off_c, 0, 60, 127
1, 155463, Note_off_c, 5, 65, 127
1, 155466, Note_on_c, 10, 69, 127
1, 155605, Note_off_c, 10, 69, 127
1, 155606, Note_off_c, 4, 52, 127
1, 155609, Note_on_c, 2, 50, 127
1, 155609, Note_on_c, 12, 59, 127
1, 155609, Note_on_c, 7, 67, 127
1, 155748, Note_off_c, 7, 67, 127
1, 155752, Note_on_c, 5, 65, 127
1, 155891, Note_off_c, 5, 65, 127
1, 155891, Note_off_c, 12, 59, 127
1, 155895, Note_on_c, 12, 59, 127
1, 155895, Note_on_c, 4, 64, 127
1, 155966, Note_off_c, 2, 50, 127
1, 156034, Note_off_c, 4, 64, 127
1, 156038, Note_on_c, 2, 62, 127
1, 156177, Note_off_c, 2, 62, 127
1, 156177, Note_off_c, 12, 59, 127
1, 156180, Note_on_c, 0, 48, 127
1, 156180, Note_on_c, 10, 57, 127
1, 156180, Note_on_c, 4, 64, 127
1, 156319, Note_off_c, 4, 64, 127
1, 156323, Note_on_c, 10, 69, 127
1, 156462, Note_off_c, 10, 69, 127
1, 156462, Note_off_c, 0, 48, 127
1, 156466, Note_on_c, 0, 48, 127
1, 156466, Note_on_c, 2, 62, 127
1, 156537, Note_off_c, 10, 57, 127
1, 156605, Note_off_c, 2, 62, 127
1, 156609, Note_on_c, 5, 65, 127
1, 156748, Note_off_c, 5, 65, 127
1, 156748, Note_off_c, 0, 48, 127
1, 156752, Note_on_c, 12, 47, 127
1, 156752, Note_on_c, 7, 55, 127
1, 156752, Note_on_c, 4, 64, 127
1, 156891, Note_off_c, 4, 64, 127
1, 156894, Note_on_c, 2, 62, 127
1, 157033, Note_off_c, 2, 62, 127
1, 157034, Note_off_c, 12, 47, 127
1, 157037, Note_on_c, 10, 45, 127
1, 157037, Note_on_c, 0, 60, 127
1, 157177, Note_off_c, 7, 55, 127
1, 157180, Note_on_c, 4, 52, 127
1, 157272, Note_off_c, 0, 60, 127
1, 157319, Note_off_c, 4, 52, 127
1, 157323, Note_on_c, 5, 53, 127
1, 157323, Note_on_c, 0, 72, 127
1, 157462, Note_off_c, 5, 53, 127
1, 157466, Note_on_c, 2, 50, 127
1, 157592, Note_off_c, 0, 72, 127
1, 157605, Note_off_c, 2, 50, 127
1, 157605, Note_off_c, 10, 45, 127
1, 157608, Note_on_c, 7, 43, 127
1, 157608, Note_on_c, 4, 52, 127
1, 157608, Note_on_c, 2, 74, 127
1, 157676, Note_off_c, 2, 74, 127
1, 157680, Note_on_c, 0, 72, 127
1, 157747, Note_off_c, 4, 52, 127
1, 157748, Note_off_c, 0, 72, 127
1, 157751, Note_on_c, 0, 48, 127
1, 157751, Note_on_c, 2, 74, 127
1, 157819, Note_off_c, 2, 74, 127
1, 157823, Note_on_c, 0, 72, 127
1, 157890, Note_off_c, 0, 48, 127
1, 157891, Note_off_c, 0, 72, 127
1, 157894, Note_on_c, 2, 50, 127
1, 157894, Note_on_c, 12, 71, 127
1, 158033, Note_off_c, 2, 50, 127
1, 158037, Note_on_c, 12, 47, 127
1, 158172, Note_off_c, 7, 43, 127
1, 158176, Note_off_c, 12, 47, 127
1, 158176, Note_off_c, 12, 71, 127
1, 158180, Note_on_c, 7, 43, 127
1, 158322, Note_on_c, 12, 47, 127
1, 158322, Note_on_c, 12, 71, 127
1, 158461, Note_off_c, 12, 71, 127
1, 158461, Note_off_c, 12, 47, 127
1, 158465, Note_on_c, 2, 50, 127
1, 158465, Note_on_c, 0, 72, 127
1, 158604, Note_off_c, 0, 72, 127
1, 158604, Note_off_c, 2, 50, 127
1, 158608, Note_on_c, 5, 53, 127
1, 158608, Note_on_c, 2, 74, 127
1, 158747, Note_off_c, 2, 74, 127
1, 158747, Note_off_c, 5, 53, 127
1, 158751, Note_on_c, 4, 52, 127
1, 158751, Note_on_c, 4, 76, 127
1, 158819, Note_off_c, 4, 76, 127
1, 158822, Note_on_c, 2, 74, 127
1, 158890, Note_off_c, 2, 74, 127
1, 158890, Note_off_c, 4, 52, 127
1, 158894, Note_on_c, 2, 50, 127
1, 158894, Note_on_c, 4, 76, 127
1, 158962, Note_off_c, 4, 76, 127
1, 158965, Note_on_c, 2, 74, 127
1, 159033, Note_off_c, 2, 74, 127
1, 159033, Note_off_c, 2, 50, 127
1, 159036, Note_on_c, 4, 52, 127
1, 159036, Note_on_c, 0, 72, 127
1, 159175, Note_off_c, 4, 52, 127
1, 159179, Note_on_c, 0, 48, 127
1, 159318, Note_off_c, 0, 48, 127
1, 159318, Note_off_c, 0, 72, 127
1, 159320, Note_off_c, 7, 43, 127
1, 159321, Note_on_c, 7, 43, 127
1, 159464, Note_on_c, 0, 48, 127
1, 159464, Note_on_c, 0, 72, 127
1, 159603, Note_off_c, 0, 72, 127
1, 159603, Note_off_c, 0, 48, 127
1, 159607, Note_on_c, 4, 52, 127
1, 159607, Note_on_c, 2, 74, 127
1, 159736, Note_off_c, 7, 43, 127
1, 159745, Note_off_c, 2, 74, 127
1, 159745, Note_off_c, 4, 52, 127
1, 159748, Note_on_c, 7, 55, 127
1, 159748, Note_on_c, 4, 76, 127
1, 159887, Note_off_c, 4, 76, 127
1, 159887, Note_off_c, 7, 55, 127
1, 159891, Note_on_c, 5, 53, 127
1, 159891, Note_on_c, 5, 77, 127
1, 159959, Note_off_c, 5, 77, 127
1, 159962, Note_on_c, 4, 76, 127
1, 160030, Note_off_c, 4, 76, 127
1, 160030, Note_off_c, 5, 53, 127
1, 160034, Note_on_c, 4, 52, 127
1, 160034, Note_on_c, 5, 77, 127
1, 160102, Note_off_c, 5, 77, 127
1, 160105, Note_on_c, 4, 76, 127
1, 160173, Note_off_c, 4, 76, 127
1, 160173, Note_off_c, 4, 52, 127
1, 160177, Note_on_c, 5, 53, 127
1, 160177, Note_on_c, 2, 74, 127
1, 160316, Note_off_c, 2, 74, 127
1, 160316, Note_off_c, 5, 53, 127
1, 160319, Note_on_c, 7, 55, 127
1, 160319, Note_on_c, 4, 76, 127
1, 160458, Note_off_c, 4, 76, 127
1, 160458, Note_off_c, 7, 55, 127
1, 160462, Note_on_c, 10, 57, 127
1, 160462, Note_on_c, 5, 77, 127
1, 160601, Note_off_c, 10, 57, 127
1, 160605, Note_on_c, 12, 59, 127
1, 160744, Note_off_c, 12, 59, 127
1, 160744, Note_off_c, 5, 77, 127
1, 160748, Note_on_c, 0, 60, 127
1, 160748, Note_on_c, 10, 69, 127
1, 160887, Note_off_c, 0, 60, 127
1, 160891, Note_on_c, 2, 62, 127
1, 161030, Note_off_c, 10, 69, 127
1, 161033, Note_on_c, 4, 64, 127
1, 161033, Note_on_c, 7, 67, 127
1, 161173, Note_off_c, 2, 62, 127
1, 161176, Note_on_c, 2, 62, 127
1, 161315, Note_off_c, 2, 62, 127
1, 161315, Note_off_c, 7, 67, 127
1, 161319, Note_on_c, 0, 60, 127
1, 161319, Note_on_c, 10, 69, 127
1, 161458, Note_off_c, 10, 69, 127
1, 161458, Note_off_c, 0, 60, 127
1, 161462, Note_on_c, 12, 59, 127
1, 161462, Note_on_c, 12, 71, 127
1, 161601, Note_off_c, 12, 71, 127
1, 161601, Note_off_c, 12, 59, 127
1, 161605, Note_on_c, 10, 57, 127
1, 161605, Note_on_c, 0, 72, 127
1, 161744, Note_off_c, 10, 57, 127
1, 161747, Note_on_c, 7, 55, 127
1, 161886, Note_off_c, 7, 55, 127
1, 161887, Note_off_c, 0, 72, 127
1, 161890, Note_on_c, 5, 53, 127
1, 161890, Note_on_c, 4, 76, 127
1, 162029, Note_off_c, 5, 53, 127
1, 162033, Note_on_c, 4, 52, 127
1, 162172, Note_off_c, 4, 52, 127
1, 162172, Note_off_c, 4, 76, 127
1, 162172, Note_off_c, 4, 64, 127
1, 162176, Note_on_c, 2, 50, 127
1, 162176, Note_on_c, 4, 64, 127
1, 162176, Note_on_c, 5, 65, 127
1, 162315, Note_off_c, 2, 50, 127
1, 162319, Note_on_c, 0, 48, 127
1, 162458, Note_off_c, 0, 48, 127
1, 162458, Note_off_c, 5, 65, 127
1, 162458, Note_off_c, 4, 64, 127
1, 162461, Note_on_c, 12, 47, 127
1, 162461, Note_on_c, 2, 62, 127
1, 162461, Note_on_c, 2, 74, 127
1, 162600, Note_off_c, 12, 47, 127
1, 162604, Note_on_c, 10, 45, 127
1, 162743, Note_off_c, 10, 45, 127
1, 162743, Note_off_c, 2, 74, 127
1, 162747, Note_on_c, 7, 43, 127
1, 162747, Note_on_c, 7, 67, 127
1, 162886, Note_off_c, 7, 43, 127
1, 162890, Note_on_c, 5, 41, 127
1, 163029, Note_off_c, 5, 41, 127
1, 163029, Note_off_c, 7, 67, 127
1, 163029, Note_off_c, 2, 62, 127
1, 163033, Note_on_c, 4, 40, 127
1, 163033, Note_on_c, 5, 65, 127
1, 163033, Note_on_c, 12, 71, 127
1, 163172, Note_off_c, 4, 40, 127
1, 163175, Note_on_c, 2, 38, 127
1, 163314, Note_off_c, 2, 38, 127
1, 163315, Note_off_c, 12, 71, 127
1, 163318, Note_on_c, 0, 36, 127
1, 163318, Note_on_c, 0, 72, 127
1, 163458, Note_off_c, 5, 65, 127
1, 163461, Note_on_c, 5, 65, 127
1, 163600, Note_off_c, 5, 65, 127
1, 163604, Note_on_c, 4, 64, 127
1, 163743, Note_off_c, 4, 64, 127
1, 163747, Note_on_c, 2, 62, 127
1, 163841, Note_off_c, 0, 72, 127
1, 163886, Note_off_c, 2, 62, 127
1, 163889, Note_on_c, 4, 64, 127
1, 164032, Note_on_c, 11, 70, 127
1, 164171, Note_off_c, 11, 70, 127
1, 164171, Note_off_c, 4, 64, 127
1, 164172, Note_off_c, 0, 36, 127
1, 164174, Note_on_c, 0, 60, 127
1, 164174, Note_on_c, 10, 69, 127
1, 164313, Note_off_c, 10, 69, 127
1, 164317, Note_on_c, 7, 67, 127
1, 164456, Note_off_c, 7, 67, 127
1, 164456, Note_off_c, 0, 60, 127
1, 164460, Note_on_c, 5, 65, 127
1, 164460, Note_on_c, 10, 69, 127
1, 164599, Note_off_c, 10, 69, 127
1, 164602, Note_on_c, 12, 71, 127
1, 164741, Note_off_c, 12, 71, 127
1, 164742, Note_off_c, 5, 65, 127
1, 164745, Note_on_c, 0, 60, 127
1, 164745, Note_on_c, 0, 72, 127
1, 164884, Note_off_c, 0, 72, 127
1, 164888, Note_on_c, 2, 74, 127
1, 165027, Note_off_c, 2, 74, 127
1, 165027, Note_off_c, 0, 60, 127
1, 165031, Note_on_c, 10, 57, 127
1, 165031, Note_on_c, 0, 72, 127
1, 165170, Note_off_c, 0, 72, 127
1, 165174, Note_on_c, 12, 71, 127
1, 165313, Note_off_c, 12, 71, 127
1, 165313, Note_off_c, 10, 57, 127
1, 165316, Note_on_c, 5, 65, 127
1, 165316, Note_on_c, 0, 72, 127
1, 165455, Note_off_c, 0, 72, 127
1, 165459, Note_on_c, 10, 69, 127
1, 165598, Note_off_c, 10, 69, 127
1, 165598, Note_off_c, 5, 65, 127
1, 165602, Note_on_c, 4, 64, 127
1, 165602, Note_on_c, 7, 67, 127
1, 165741, Note_off_c, 7, 67, 127
1, 165745, Note_on_c, 12, 71, 127
1, 165884, Note_off_c, 12, 71, 127
1, 165884, Note_off_c, 4, 64, 127
1, 165888, Note_on_c, 0, 60, 127
1, 165888, Note_on_c, 0, 72, 127
1, 166027, Note_off_c, 0, 72, 127
1, 166030, Note_on_c, 2, 74, 127
1, 166169, Note_off_c, 2, 74, 127
1, 166170, Note_off_c, 0, 60, 127
1, 166173, Note_on_c, 7, 55, 127
1, 166173, Note_on_c, 0, 72, 127
1, 166312, Note_off_c, 0, 72, 127
1, 166316, Note_on_c, 12, 71, 127
1, 166455, Note_off_c, 12, 71, 127
1, 166455, Note_off_c, 7, 55, 127
1, 166459, Note_on_c, 4, 64, 127
1, 166459, Note_on_c, 0, 72, 127
1, 166598, Note_off_c, 0, 72, 127
1, 166602, Note_on_c, 7, 67, 127
1, 166741, Note_off_c, 7, 67, 127
1, 166741, Note_off_c, 4, 64, 127
1, 166744, Note_on_c, 2, 62, 127
1, 166744, Note_on_c, 5, 65, 127
1, 166883, Note_off_c, 5, 65, 127
1, 166887, Note_on_c, 0, 72, 127
1, 167026, Note_off_c, 0, 72, 127
1, 167026, Note_off_c, 2, 62, 127
1, 167030, Note_on_c, 12, 59, 127
1, 167030, Note_on_c, 2, 74, 127
1, 167169, Note_off_c, 2, 74, 127
1, 167173, Note_on_c, 4, 76, 127
1, 167312, Note_off_c, 4, 76, 127
1, 167312, Note_off_c, 12, 59, 127
1, 167316, Note_on_c, 7, 55, 127
1, 167316, Note_on_c, 2, 74, 127
1, 167455, Note_off_c, 2, 74, 127
1, 167458, Note_on_c, 0, 72, 127
1, 167597, Note_off_c, 0, 72, 127
1, 167598, Note_off_c, 7, 55, 127
1, 167601, Note_on_c, 12, 59, 127
1, 167601, Note_on_c, 2, 74, 127
1, 167740, Note_off_c, 2, 74, 127
1, 167744, Note_on_c, 5, 65, 127
1, 167883, Note_off_c, 5, 65, 127
1, 167883, Note_off_c, 12, 59, 127
1, 167887, Note_on_c, 0, 60, 127
1, 167887, Note_on_c, 4, 64, 127
1, 168026, Note_off_c, 4, 64, 127
1, 168030, Note_on_c, 2, 62, 127
1, 168169, Note_off_c, 2, 62, 127
1, 168169, Note_off_c, 0, 60, 127
1, 168172, Note_on_c, 7, 55, 127
1, 168172, Note_on_c, 4, 64, 127
1, 168311, Note_off_c, 4, 64, 127
1, 168315, Note_on_c, 7, 67, 127
1, 168454, Note_off_c, 7, 67, 127
1, 168454, Note_off_c, 7, 55, 127
1, 168458, Note_on_c, 4, 52, 127
1, 168458, Note_on_c, 0, 72, 127
1, 168597, Note_off_c, 0, 72, 127
1, 168601, Note_on_c, 12, 71, 127
1, 168740, Note_off_c, 12, 71, 127
1, 168740, Note_off_c, 4, 52, 127
1, 168744, Note_on_c, 0, 48, 127
1, 168744, Note_on_c, 0, 72, 127
1, 168883, Note_off_c, 0, 72, 127
1, 168886, Note_on_c, 4, 76, 127
1, 169025, Note_off_c, 4, 76, 127
1, 169026, Note_off_c, 0, 48, 127
1, 169029, Note_on_c, 5, 53, 127
1, 169029, Note_on_c, 10, 81, 127
1, 169168, Note_off_c, 5, 53, 127
1, 169172, Note_on_c, 4, 52, 127
1, 169311, Note_off_c, 4, 52, 127
1, 169311, Note_off_c, 10, 81, 127
1, 169315, Note_on_c, 5, 53, 127
1, 169315, Note_on_c, 2, 74, 127
1, 169454, Note_off_c, 5, 53, 127
1, 169458, Note_on_c, 10, 57, 127
1, 169597, Note_off_c, 10, 57, 127
1, 169600, Note_on_c, 2, 62, 127
1, 169672, Note_off_c, 2, 74, 127
1, 169743, Note_on_c, 10, 69, 127
1, 169882, Note_off_c, 10, 69, 127
1, 169882, Note_off_c, 2, 62, 127
1, 169886, Note_on_c, 5, 53, 127
1, 169886, Note_on_c, 12, 71, 127
1, 170025, Note_off_c, 12, 71, 127
1, 170029, Note_on_c, 2, 74, 127
1, 170168, Note_off_c, 2, 74, 127
1, 170172, Note_on_c, 7, 79, 127
1, 170243, Note_off_c, 5, 53, 127
1, 170314, Note_on_c, 2, 50, 127
1, 170453, Note_off_c, 2, 50, 127
1, 170454, Note_off_c, 7, 79, 127
1, 170457, Note_on_c, 4, 52, 127
1, 170457, Note_on_c, 0, 72, 127
1, 170596, Note_off_c, 4, 52, 127
1, 170600, Note_on_c, 7, 55, 127
1, 170739, Note_off_c, 7, 55, 127
1, 170743, Note_on_c, 0, 60, 127
1, 170814, Note_off_c, 0, 72, 127
1, 170886, Note_on_c, 7, 67, 127
1, 171025, Note_off_c, 7, 67, 127
1, 171025, Note_off_c, 0, 60, 127
1, 171028, Note_on_c, 4, 52, 127
1, 171028, Note_on_c, 10, 69, 127
1, 171167, Note_off_c, 10, 69, 127
1, 171171, Note_on_c, 0, 72, 127
1, 171310, Note_off_c, 0, 72, 127
1, 171314, Note_on_c, 5, 77, 127
1, 171385, Note_off_c, 4, 52, 127
1, 171453, Note_off_c, 5, 77, 127
1, 171457, Note_on_c, 0, 48, 127
1, 171457, Note_on_c, 4, 76, 127
1, 171596, Note_off_c, 4, 76, 127
1, 171596, Note_off_c, 0, 48, 127
1, 171600, Note_on_c, 2, 50, 127
1, 171600, Note_on_c, 2, 74, 127
1, 171739, Note_off_c, 2, 74, 127
1, 171739, Note_off_c, 2, 50, 127
1, 171742, Note_on_c, 5, 53, 127
1, 171742, Note_on_c, 0, 72, 127
1, 171881, Note_off_c, 0, 72, 127
1, 171881, Note_off_c, 5, 53, 127
1, 171885, Note_on_c, 7, 55, 127
1, 171885, Note_on_c, 12, 71, 127
1, 172024, Note_off_c, 12, 71, 127
1, 172024, Note_off_c, 7, 55, 127
1, 172028, Note_on_c, 5, 53, 127
1, 172028, Note_on_c, 2, 74, 127
1, 172167, Note_off_c, 2, 74, 127
1, 172167, Note_off_c, 5, 53, 127
1, 172171, Note_on_c, 7, 55, 127
1, 172171, Note_on_c, 12, 71, 127
1, 172310, Note_off_c, 12, 71, 127
1, 172310, Note_off_c, 7, 55, 127
1, 172314, Note_on_c, 12, 59, 127
1, 172314, Note_on_c, 7, 67, 127
1, 172453, Note_off_c, 7, 67, 127
1, 172453, Note_off_c, 12, 59, 127
1, 172456, Note_on_c, 0, 60, 127
1, 172456, Note_on_c, 4, 64, 127
1, 172595, Note_off_c, 4, 64, 127
1, 172599, Note_on_c, 5, 65, 127
1, 172738, Note_off_c, 5, 65, 127
1, 172742, Note_on_c, 0, 48, 127
1, 172742, Note_on_c, 7, 67, 127
1, 172881, Note_off_c, 7, 67, 127
1, 172885, Note_on_c, 4, 64, 127
1, 173020, Note_off_c, 0, 60, 127
1, 173024, Note_off_c, 4, 64, 127
1, 173028, Note_on_c, 0, 60, 127
1, 173167, Note_off_c, 0, 48, 127
1, 173170, Note_on_c, 4, 64, 127
1, 173309, Note_off_c, 4, 64, 127
1, 173310, Note_off_c, 0, 60, 127
1, 173313, Note_on_c, 0, 60, 127
1, 173313, Note_on_c, 4, 76, 127
1, 173452, Note_off_c, 0, 60, 127
1, 173456, Note_on_c, 10, 57, 127
1, 173595, Note_off_c, 10, 57, 127
1, 173595, Note_off_c, 4, 76, 127
1, 173599, Note_on_c, 5, 53, 127
1, 173599, Note_on_c, 2, 74, 127
1, 173738, Note_off_c, 5, 53, 127
1, 173742, Note_on_c, 8, 56, 127
1, 173881, Note_off_c, 8, 56, 127
1, 173884, Note_on_c, 10, 57, 127
1, 173884, Note_on_c, 10, 69, 127
1, 174023, Note_off_c, 10, 57, 127
1, 174027, Note_on_c, 12, 59, 127
1, 174163, Note_off_c, 2, 74, 127
1, 174166, Note_off_c, 12, 59, 127
1, 174166, Note_off_c, 10, 69, 127
1, 174170, Note_on_c, 10, 57, 127
1, 174170, Note_on_c, 5, 65, 127
1, 174309, Note_off_c, 10, 57, 127
1, 174313, Note_on_c, 8, 56, 127
1, 174452, Note_off_c, 8, 56, 127
1, 174452, Note_off_c, 5, 65, 127
1, 174456, Note_on_c, 10, 57, 127
1, 174456, Note_on_c, 2, 74, 127
1, 174595, Note_off_c, 10, 57, 127
1, 174598, Note_on_c, 5, 53, 127
1, 174737, Note_off_c, 5, 53, 127
1, 174738, Note_off_c, 2, 74, 127
1, 174741, Note_on_c, 4, 52, 127
1, 174741, Note_on_c, 0, 72, 127
1, 174880, Note_off_c, 4, 52, 127
1, 174884, Note_on_c, 8, 56, 127
1, 175023, Note_off_c, 8, 56, 127
1, 175027, Note_on_c, 10, 57, 127
1, 175027, Note_on_c, 10, 69, 127
1, 175166, Note_off_c, 10, 57, 127
1, 175170, Note_on_c, 12, 59, 127
1, 175305, Note_off_c, 0, 72, 127
1, 175309, Note_off_c, 12, 59, 127
1, 175309, Note_off_c, 10, 69, 127
1, 175312, Note_on_c, 10, 57, 127
1, 175312, Note_on_c, 4, 64, 127
1, 175451, Note_off_c, 10, 57, 127
1, 175455, Note_on_c, 8, 56, 127
1, 175594, Note_off_c, 8, 56, 127
1, 175594, Note_off_c, 4, 64, 127
1, 175598, Note_on_c, 10, 57, 127
1, 175598, Note_on_c, 0, 72, 127
1, 175737, Note_off_c, 10, 57, 127
1, 175741, Note_on_c, 4, 52, 127
1, 175880, Note_off_c, 4, 52, 127
1, 175880, Note_off_c, 0, 72, 127
1, 175884, Note_on_c, 2, 50, 127
1, 175884, Note_on_c, 12, 71, 127
1, 176023, Note_off_c, 2, 50, 127
1, 176026, Note_on_c, 10, 57, 127
1, 176165, Note_off_c, 10, 57, 127
1, 176169, Note_on_c, 12, 59, 127
1, 176169, Note_on_c, 8, 68, 127
1, 176308, Note_off_c, 12, 59, 127
1, 176312, Note_on_c, 0, 60, 127
1, 176448, Note_off_c, 12, 71, 127
1, 176451, Note_off_c, 0, 60, 127
1, 176451, Note_off_c, 8, 68, 127
1, 176455, Note_on_c, 12, 59, 127
1, 176455, Note_on_c, 2, 62, 127
1, 176594, Note_off_c, 12, 59, 127
1, 176598, Note_on_c, 10, 57, 127
1, 176737, Note_off_c, 10, 57, 127
1, 176737, Note_off_c, 2, 62, 127
1, 176740, Note_on_c, 12, 59, 127
1, 176740, Note_on_c, 8, 68, 127
1, 176879, Note_off_c, 12, 59, 127
1, 176883, Note_on_c, 2, 50, 127
1, 177022, Note_off_c, 2, 50, 127
1, 177022, Note_off_c, 8, 68, 127
1, 177026, Note_on_c, 0, 48, 127
1, 177026, Note_on_c, 10, 69, 127
1, 177165, Note_off_c, 0, 48, 127
1, 177169, Note_on_c, 12, 47, 127
1, 177308, Note_off_c, 12, 47, 127
1, 177312, Note_on_c, 0, 48, 127
1, 177312, Note_on_c, 4, 64, 127
1, 177441, Note_off_c, 10, 69, 127
1, 177450, Note_off_c, 0, 48, 127
1, 177453, Note_on_c, 4, 52, 127
1, 177592, Note_off_c, 4, 52, 127
1, 177593, Note_off_c, 4, 64, 127
1, 177596, Note_on_c, 10, 57, 127
1, 177596, Note_on_c, 0, 60, 127
1, 177735, Note_off_c, 10, 57, 127
1, 177739, Note_on_c, 4, 52, 127
1, 177833, Note_off_c, 0, 60, 127
1, 177877, Note_off_c, 4, 52, 127
1, 177881, Note_on_c, 0, 60, 127
1, 177881, Note_on_c, 10, 69, 127
1, 178020, Note_off_c, 0, 60, 127
1, 178024, Note_on_c, 10, 57, 127
1, 178163, Note_off_c, 10, 57, 127
1, 178163, Note_off_c, 10, 69, 127
1, 178166, Note_on_c, 4, 64, 127
1, 178166, Note_on_c, 12, 71, 127
1, 178234, Note_off_c, 12, 71, 127
1, 178238, Note_on_c, 10, 69, 127
1, 178305, Note_off_c, 4, 64, 127
1, 178306, Note_off_c, 10, 69, 127
1, 178309, Note_on_c, 12, 59, 127
1, 178309, Note_on_c, 12, 71, 127
1, 178377, Note_off_c, 12, 71, 127
1, 178381, Note_on_c, 10, 69, 127
1, 178448, Note_off_c, 12, 59, 127
1, 178449, Note_off_c, 10, 69, 127
1, 178452, Note_on_c, 0, 60, 127
1, 178452, Note_on_c, 8, 68, 127
1, 178591, Note_off_c, 0, 60, 127
1, 178595, Note_on_c, 2, 62, 127
1, 178734, Note_off_c, 2, 62, 127
1, 178738, Note_on_c, 8, 56, 127
1, 178867, Note_off_c, 8, 68, 127
1, 178876, Note_off_c, 8, 56, 127
1, 178879, Note_on_c, 5, 65, 127
1, 179018, Note_off_c, 5, 65, 127
1, 179022, Note_on_c, 4, 64, 127
1, 179022, Note_on_c, 12, 71, 127
1, 179161, Note_off_c, 4, 64, 127
1, 179165, Note_on_c, 2, 62, 127
1, 179304, Note_off_c, 2, 62, 127
1, 179304, Note_off_c, 12, 71, 127
1, 179308, Note_on_c, 0, 60, 127
1, 179308, Note_on_c, 0, 72, 127
1, 179376, Note_off_c, 0, 72, 127
1, 179379, Note_on_c, 12, 71, 127
1, 179447, Note_off_c, 12, 71, 127
1, 179447, Note_off_c, 0, 60, 127
1, 179450, Note_on_c, 4, 64, 127
1, 179450, Note_on_c, 0, 72, 127
1, 179518, Note_off_c, 0, 72, 127
1, 179522, Note_on_c, 12, 71, 127
1, 179589, Note_off_c, 4, 64, 127
1, 179590, Note_off_c, 12, 71, 127
1, 179593, Note_on_c, 6, 66, 127
1, 179593, Note_on_c, 10, 69, 127
1, 179732, Note_off_c, 6, 66, 127
1, 179736, Note_on_c, 8, 68, 127
1, 179875, Note_off_c, 8, 68, 127
1, 179879, Note_on_c, 10, 57, 127
1, 180008, Note_off_c, 10, 69, 127
1, 180017, Note_off_c, 10, 57, 127
1, 180021, Note_on_c, 12, 59, 127
1, 180160, Note_off_c, 12, 59, 127
1, 180163, Note_on_c, 10, 57, 127
1, 180163, Note_on_c, 4, 64, 127
1, 180163, Note_on_c, 0, 72, 127
1, 180302, Note_off_c, 10, 57, 127
1, 180306, Note_on_c, 7, 55, 127
1, 180445, Note_off_c, 7, 55, 127
1, 180445, Note_off_c, 0, 72, 127
1, 180445, Note_off_c, 4, 64, 127
1, 180449, Note_on_c, 5, 53, 127
1, 180449, Note_on_c, 4, 64, 127
1, 180449, Note_on_c, 0, 72, 127
1, 180588, Note_off_c, 5, 53, 127
1, 180592, Note_on_c, 10, 57, 127
1, 180731, Note_off_c, 10, 57, 127
1, 180731, Note_off_c, 0, 72, 127
1, 180731, Note_off_c, 4, 64, 127
1, 180735, Note_on_c, 12, 59, 127
1, 180735, Note_on_c, 3, 63, 127
1, 180735, Note_on_c, 12, 71, 127
1, 180874, Note_off_c, 12, 59, 127
1, 180877, Note_on_c, 0, 60, 127
1, 181016, Note_off_c, 0, 60, 127
1, 181020, Note_on_c, 3, 51, 127
1, 181150, Note_off_c, 12, 71, 127
1, 181150, Note_off_c, 3, 63, 127
1, 181158, Note_off_c, 3, 51, 127
1, 181162, Note_on_c, 0, 60, 127
1, 181301, Note_off_c, 0, 60, 127
1, 181305, Note_on_c, 12, 59, 127
1, 181305, Note_on_c, 6, 66, 127
1, 181305, Note_on_c, 10, 69, 127
1, 181444, Note_off_c, 12, 59, 127
1, 181448, Note_on_c, 10, 57, 127
1, 181587, Note_off_c, 10, 57, 127
1, 181587, Note_off_c, 10, 69, 127
1, 181587, Note_off_c, 6, 66, 127
1, 181590, Note_on_c, 7, 55, 127
1, 181590, Note_on_c, 6, 66, 127
1, 181590, Note_on_c, 10, 69, 127
1, 181729, Note_off_c, 7, 55, 127
1, 181733, Note_on_c, 12, 59, 127
1, 181872, Note_off_c, 12, 59, 127
1, 181872, Note_off_c, 10, 69, 127
1, 181872, Note_off_c, 6, 66, 127
1, 181876, Note_on_c, 1, 61, 127
1, 181876, Note_on_c, 4, 64, 127
1, 181876, Note_on_c, 7, 67, 127
1, 182015, Note_off_c, 1, 61, 127
1, 182019, Note_on_c, 3, 63, 127
1, 182158, Note_off_c, 3, 63, 127
1, 182162, Note_on_c, 4, 52, 127
1, 182291, Note_off_c, 7, 67, 127
1, 182291, Note_off_c, 4, 64, 127
1, 182300, Note_off_c, 4, 52, 127
1, 182303, Note_on_c, 5, 53, 127
1, 182442, Note_off_c, 5, 53, 127
1, 182446, Note_on_c, 4, 52, 127
1, 182446, Note_on_c, 7, 67, 127
1, 182446, Note_on_c, 12, 71, 127
1, 182585, Note_off_c, 4, 52, 127
1, 182589, Note_on_c, 2, 50, 127
1, 182728, Note_off_c, 2, 50, 127
1, 182728, Note_off_c, 12, 71, 127
1, 182728, Note_off_c, 7, 67, 127
1, 182732, Note_on_c, 1, 49, 127
1, 182732, Note_on_c, 7, 67, 127
1, 182732, Note_on_c, 12, 71, 127
1, 182871, Note_off_c, 1, 49, 127
1, 182875, Note_on_c, 4, 52, 127
1, 183014, Note_off_c, 4, 52, 127
1, 183014, Note_off_c, 12, 71, 127
1, 183014, Note_off_c, 7, 67, 127
1, 183017, Note_on_c, 6, 54, 127
1, 183017, Note_on_c, 6, 66, 127
1, 183017, Note_on_c, 11, 70, 127
1, 183156, Note_off_c, 6, 54, 127
1, 183160, Note_on_c, 7, 55, 127
1, 183299, Note_off_c, 7, 55, 127
1, 183303, Note_on_c, 11, 46, 127
1, 183432, Note_off_c, 11, 70, 127
1, 183432, Note_off_c, 6, 66, 127
1, 183441, Note_off_c, 11, 46, 127
1, 183445, Note_on_c, 7, 55, 127
1, 183584, Note_off_c, 7, 55, 127
1, 183587, Note_on_c, 6, 54, 127
1, 183587, Note_on_c, 4, 64, 127
1, 183587, Note_on_c, 1, 73, 127
1, 183726, Note_off_c, 6, 54, 127
1, 183730, Note_on_c, 4, 52, 127
1, 183869, Note_off_c, 4, 52, 127
1, 183869, Note_off_c, 1, 73, 127
1, 183869, Note_off_c, 4, 64, 127
1, 183873, Note_on_c, 2, 50, 127
1, 183873, Note_on_c, 4, 64, 127
1, 183873, Note_on_c, 1, 73, 127
1, 184012, Note_off_c, 2, 50, 127
1, 184016, Note_on_c, 6, 54, 127
1, 184155, Note_off_c, 6, 54, 127
1, 184155, Note_off_c, 1, 73, 127
1, 184155, Note_off_c, 4, 64, 127
1, 184159, Note_on_c, 8, 56, 127
1, 184159, Note_on_c, 2, 62, 127
1, 184159, Note_on_c, 12, 71, 127
1, 184298, Note_off_c, 8, 56, 127
1, 184301, Note_on_c, 11, 58, 127
1, 184440, Note_off_c, 11, 58, 127
1, 184444, Note_on_c, 12, 47, 127
1, 184574, Note_off_c, 12, 71, 127
1, 184574, Note_off_c, 2, 62, 127
1, 184582, Note_off_c, 12, 47, 127
1, 184586, Note_on_c, 1, 49, 127
1, 184725, Note_off_c, 1, 49, 127
1, 184729, Note_on_c, 12, 47, 127
1, 184729, Note_on_c, 6, 66, 127
1, 184729, Note_on_c, 2, 74, 127
1, 184868, Note_off_c, 12, 47, 127
1, 184872, Note_on_c, 10, 45, 127
1, 185011, Note_off_c, 10, 45, 127
1, 185011, Note_off_c, 2, 74, 127
1, 185011, Note_off_c, 6, 66, 127
1, 185014, Note_on_c, 8, 44, 127
1, 185014, Note_on_c, 6, 66, 127
1, 185014, Note_on_c, 2, 74, 127
1, 185153, Note_off_c, 8, 44, 127
1, 185157, Note_on_c, 12, 47, 127
1, 185296, Note_off_c, 12, 47, 127
1, 185296, Note_off_c, 2, 74, 127
1, 185296, Note_off_c, 6, 66, 127
1, 185300, Note_on_c, 1, 49, 127
1, 185300, Note_on_c, 5, 65, 127
1, 185300, Note_on_c, 1, 73, 127
1, 185439, Note_off_c, 1, 49, 127
1, 185443, Note_on_c, 2, 50, 127
1, 185582, Note_off_c, 2, 50, 127
1, 185586, Note_on_c, 5, 41, 127
1, 185715, Note_off_c, 1, 73, 127
1, 185715, Note_off_c, 5, 65, 127
1, 185724, Note_off_c, 5, 41, 127
1, 185727, Note_on_c, 8, 44, 127
1, 185866, Note_off_c, 8, 44, 127
1, 185870, Note_on_c, 6, 42, 127
1, 185870, Note_on_c, 8, 68, 127
1, 185870, Note_on_c, 12, 71, 127
1, 186009, Note_off_c, 6, 42, 127
1, 186013, Note_on_c, 5, 41, 127
1, 186152, Note_off_c, 5, 41, 127
1, 186152, Note_off_c, 12, 71, 127
1, 186152, Note_off_c, 8, 68, 127
1, 186156, Note_on_c, 6, 42, 127
1, 186156, Note_on_c, 8, 68, 127
1, 186156, Note_on_c, 12, 71, 127
1, 186295, Note_off_c, 6, 42, 127
1, 186299, Note_on_c, 1, 37, 127
1, 186438, Note_off_c, 1, 37, 127
1, 186438, Note_off_c, 12, 71, 127
1, 186438, Note_off_c, 8, 68, 127
1, 186441, Note_on_c, 6, 42, 127
1, 186441, Note_on_c, 6, 66, 127
1, 186441, Note_on_c, 11, 70, 127
1, 186580, Note_off_c, 6, 42, 127
1, 186584, Note_on_c, 8, 44, 127
1, 186723, Note_off_c, 8, 44, 127
1, 186723, Note_off_c, 11, 70, 127
1, 186723, Note_off_c, 6, 66, 127
1, 186727, Note_on_c, 11, 46, 127
1, 186866, Note_off_c, 11, 46, 127
1, 186870, Note_on_c, 6, 42, 127
1, 186870, Note_on_c, 6, 78, 127
1, 187009, Note_off_c, 6, 78, 127
1, 187009, Note_off_c, 6, 42, 127
1, 187013, Note_on_c, 12, 47, 127
1, 187013, Note_on_c, 4, 76, 127
1, 187152, Note_off_c, 4, 76, 127
1, 187155, Note_on_c, 2, 74, 127
1, 187294, Note_off_c, 2, 74, 127
1, 187295, Note_off_c, 12, 47, 127
1, 187298, Note_on_c, 1, 49, 127
1, 187298, Note_on_c, 1, 73, 127
1, 187366, Note_off_c, 1, 49, 127
1, 187370, Note_on_c, 12, 47, 127
1, 187437, Note_off_c, 1, 73, 127
1, 187438, Note_off_c, 12, 47, 127
1, 187441, Note_on_c, 1, 49, 127
1, 187441, Note_on_c, 4, 76, 127
1, 187509, Note_off_c, 1, 49, 127
1, 187512, Note_on_c, 12, 47, 127
1, 187580, Note_off_c, 12, 47, 127
1, 187580, Note_off_c, 4, 76, 127
1, 187584, Note_on_c, 11, 46, 127
1, 187584, Note_on_c, 6, 78, 127
1, 187723, Note_off_c, 6, 78, 127
1, 187727, Note_on_c, 7, 79, 127
1, 187866, Note_off_c, 7, 79, 127
1, 187869, Note_on_c, 11, 70, 127
1, 187999, Note_off_c, 11, 46, 127
1, 188011, Note_on_c, 7, 79, 127
1, 188039, Note_off_c, 11, 70, 127
1, 188150, Note_off_c, 7, 79, 127
1, 188154, Note_on_c, 1, 49, 127
1, 188154, Note_on_c, 6, 78, 127
1, 188293, Note_off_c, 6, 78, 127
1, 188297, Note_on_c, 4, 76, 127
1, 188436, Note_off_c, 4, 76, 127
1, 188436, Note_off_c, 1, 49, 127
1, 188440, Note_on_c, 2, 50, 127
1, 188440, Note_on_c, 2, 74, 127
1, 188508, Note_off_c, 2, 50, 127
1, 188511, Note_on_c, 1, 49, 127
1, 188579, Note_off_c, 1, 49, 127
1, 188579, Note_off_c, 2, 74, 127
1, 188582, Note_on_c, 2, 50, 127
1, 188582, Note_on_c, 6, 78, 127
1, 188650, Note_off_c, 2, 50, 127
1, 188654, Note_on_c, 1, 49, 127
1, 188721, Note_off_c, 6, 78, 127
1, 188722, Note_off_c, 1, 49, 127
1, 188725, Note_on_c, 12, 47, 127
1, 188725, Note_on_c, 8, 80, 127
1, 188864, Note_off_c, 8, 80, 127
1, 188868, Note_on_c, 11, 82, 127
1, 189011, Note_on_c, 12, 71, 127
1, 189018, Note_off_c, 11, 82, 127
1, 189140, Note_off_c, 12, 47, 127
1, 189152, Note_on_c, 10, 81, 127
1, 189269, Note_off_c, 12, 71, 127
1, 189291, Note_off_c, 10, 81, 127
1, 189295, Note_on_c, 2, 50, 127
1, 189295, Note_on_c, 7, 79, 127
1, 189434, Note_off_c, 7, 79, 127
1, 189438, Note_on_c, 6, 78, 127
1, 189577, Note_off_c, 6, 78, 127
1, 189577, Note_off_c, 2, 50, 127
1, 189581, Note_on_c, 4, 52, 127
1, 189581, Note_on_c, 4, 76, 127
1, 189649, Note_off_c, 4, 52, 127
1, 189652, Note_on_c, 2, 50, 127
1, 189720, Note_off_c, 2, 50, 127
1, 189720, Note_off_c, 4, 76, 127
1, 189724, Note_on_c, 4, 52, 127
1, 189724, Note_on_c, 12, 71, 127
1, 189792, Note_off_c, 4, 52, 127
1, 189795, Note_on_c, 2, 50, 127
1, 189863, Note_off_c, 2, 50, 127
1, 189863, Note_off_c, 12, 71, 127
1, 189866, Note_on_c, 1, 49, 127
1, 189866, Note_on_c, 4, 76, 127
1, 190005, Note_off_c, 4, 76, 127
1, 190005, Note_off_c, 1, 49, 127
1, 190009, Note_on_c, 2, 50, 127
1, 190009, Note_on_c, 6, 78, 127
1, 190148, Note_off_c, 6, 78, 127
1, 190148, Note_off_c, 2, 50, 127
1, 190152, Note_on_c, 4, 52, 127
1, 190152, Note_on_c, 7, 79, 127
1, 190295, Note_on_c, 1, 73, 127
1, 190434, Note_off_c, 1, 73, 127
1, 190434, Note_off_c, 4, 52, 127
1, 190438, Note_on_c, 7, 43, 127
1, 190438, Note_on_c, 2, 74, 127
1, 190577, Note_off_c, 2, 74, 127
1, 190580, Note_on_c, 4, 76, 127
1, 190719, Note_off_c, 4, 76, 127
1, 190720, Note_off_c, 7, 43, 127
1, 190723, Note_on_c, 6, 42, 127
1, 190723, Note_on_c, 11, 70, 127
1, 190862, Note_off_c, 7, 79, 127
1, 190866, Note_on_c, 7, 79, 127
1, 191005, Note_off_c, 7, 79, 127
1, 191005, Note_off_c, 6, 42, 127
1, 191009, Note_on_c, 11, 46, 127
1, 191009, Note_on_c, 6, 78, 127
1, 191148, Note_off_c, 6, 78, 127
1, 191152, Note_on_c, 4, 76, 127
1, 191287, Note_off_c, 11, 70, 127
1, 191291, Note_off_c, 4, 76, 127
1, 191291, Note_off_c, 11, 46, 127
1, 191294, Note_on_c, 12, 47, 127
1, 191294, Note_on_c, 2, 74, 127
1, 191437, Note_on_c, 11, 70, 127
1, 191576, Note_off_c, 11, 70, 127
1, 191576, Note_off_c, 12, 47, 127
1, 191580, Note_on_c, 2, 50, 127
1, 191580, Note_on_c, 12, 71, 127
1, 191719, Note_off_c, 12, 71, 127
1, 191723, Note_on_c, 6, 66, 127
1, 191862, Note_off_c, 6, 66, 127
1, 191862, Note_off_c, 2, 50, 127
1, 191866, Note_on_c, 4, 40, 127
1, 191866, Note_on_c, 7, 67, 127
1, 192004, Note_off_c, 2, 74, 127
1, 192008, Note_on_c, 1, 73, 127
1, 192147, Note_off_c, 1, 73, 127
1, 192148, Note_off_c, 4, 40, 127
1, 192151, Note_on_c, 1, 49, 127
1, 192151, Note_on_c, 4, 76, 127
1, 192290, Note_off_c, 4, 76, 127
1, 192294, Note_on_c, 12, 71, 127
1, 192430, Note_off_c, 7, 67, 127
1, 192433, Note_off_c, 12, 71, 127
1, 192433, Note_off_c, 1, 49, 127
1, 192437, Note_on_c, 6, 42, 127
1, 192437, Note_on_c, 11, 70, 127
1, 192580, Note_on_c, 7, 67, 127
1, 192719, Note_off_c, 7, 67, 127
1, 192719, Note_off_c, 11, 70, 127
1, 192719, Note_off_c, 6, 42, 127
1, 192722, Note_on_c, 11, 46, 127
1, 192722, Note_on_c, 6, 66, 127
1, 192861, Note_off_c, 6, 66, 127
1, 192865, Note_on_c, 4, 64, 127
1, 193004, Note_off_c, 4, 64, 127
1, 193004, Note_off_c, 11, 46, 127
1, 193008, Note_on_c, 12, 47, 127
1, 193008, Note_on_c, 2, 62, 127
1, 193147, Note_off_c, 2, 62, 127
1, 193151, Note_on_c, 1, 61, 127
1, 193290, Note_off_c, 1, 61, 127
1, 193290, Note_off_c, 12, 47, 127
1, 193294, Note_on_c, 6, 42, 127
1, 193294, Note_on_c, 2, 62, 127
1, 193433, Note_off_c, 2, 62, 127
1, 193436, Note_on_c, 6, 66, 127
1, 193575, Note_off_c, 6, 66, 127
1, 193576, Note_off_c, 6, 42, 127
1, 193579, Note_on_c, 2, 50, 127
1, 193579, Note_on_c, 12, 59, 127
1, 193722, Note_on_c, 6, 66, 127
1, 193861, Note_off_c, 6, 66, 127
1, 193861, Note_off_c, 2, 50, 127
1, 193865, Note_on_c, 12, 47, 127
1, 193865, Note_on_c, 2, 74, 127
1, 194004, Note_off_c, 2, 74, 127
1, 194008, Note_on_c, 12, 71, 127
1, 194147, Note_off_c, 12, 71, 127
1, 194147, Note_off_c, 12, 47, 127
1, 194150, Note_on_c, 4, 52, 127
1, 194150, Note_on_c, 7, 79, 127
1, 194289, Note_off_c, 12, 59, 127
1, 194293, Note_on_c, 11, 70, 127
1, 194432, Note_off_c, 11, 70, 127
1, 194432, Note_off_c, 4, 52, 127
1, 194436, Note_on_c, 12, 59, 127
1, 194436, Note_on_c, 12, 71, 127
1, 194575, Note_off_c, 12, 71, 127
1, 194579, Note_on_c, 1, 73, 127
1, 194718, Note_off_c, 1, 73, 127
1, 194718, Note_off_c, 12, 59, 127
1, 194722, Note_on_c, 7, 67, 127
1, 194722, Note_on_c, 12, 71, 127
1, 194861, Note_off_c, 12, 71, 127
1, 194864, Note_on_c, 11, 70, 127
1, 195003, Note_off_c, 11, 70, 127
1, 195004, Note_off_c, 7, 67, 127
1, 195007, Note_on_c, 4, 52, 127
1, 195007, Note_on_c, 12, 71, 127
1, 195146, Note_off_c, 7, 79, 127
1, 195150, Note_on_c, 7, 79, 127
1, 195289, Note_off_c, 7, 79, 127
1, 195289, Note_off_c, 4, 52, 127
1, 195293, Note_on_c, 2, 50, 127
1, 195293, Note_on_c, 6, 78, 127
1, 195432, Note_off_c, 12, 71, 127
1, 195436, Note_on_c, 11, 70, 127
1, 195575, Note_off_c, 11, 70, 127
1, 195575, Note_off_c, 2, 50, 127
1, 195578, Note_on_c, 12, 59, 127
1, 195578, Note_on_c, 12, 71, 127
1, 195717, Note_off_c, 12, 71, 127
1, 195721, Note_on_c, 1, 73, 127
1, 195860, Note_off_c, 1, 73, 127
1, 195860, Note_off_c, 12, 59, 127
1, 195864, Note_on_c, 6, 66, 127
1, 195864, Note_on_c, 12, 71, 127
1, 196003, Note_off_c, 12, 71, 127
1, 196007, Note_on_c, 11, 70, 127
1, 196146, Note_off_c, 11, 70, 127
1, 196146, Note_off_c, 6, 66, 127
1, 196150, Note_on_c, 2, 50, 127
1, 196150, Note_on_c, 12, 71, 127
1, 196289, Note_off_c, 6, 78, 127
1, 196292, Note_on_c, 6, 78, 127
1, 196431, Note_off_c, 6, 78, 127
1, 196432, Note_off_c, 2, 50, 127
1, 196435, Note_on_c, 1, 49, 127
1, 196435, Note_on_c, 4, 76, 127
1, 196575, Note_off_c, 12, 71, 127
1, 196578, Note_on_c, 12, 71, 127
1, 196717, Note_off_c, 12, 71, 127
1, 196717, Note_off_c, 1, 49, 127
1, 196721, Note_on_c, 11, 58, 127
1, 196721, Note_on_c, 1, 73, 127
1, 196860, Note_off_c, 1, 73, 127
1, 196864, Note_on_c, 2, 74, 127
1, 197003, Note_off_c, 2, 74, 127
1, 197003, Note_off_c, 11, 58, 127
1, 197006, Note_on_c, 4, 64, 127
1, 197006, Note_on_c, 1, 73, 127
1, 197145, Note_off_c, 1, 73, 127
1, 197149, Note_on_c, 12, 71, 127
1, 197288, Note_off_c, 12, 71, 127
1, 197288, Note_off_c, 4, 64, 127
1, 197292, Note_on_c, 11, 58, 127
1, 197292, Note_on_c, 1, 73, 127
1, 197431, Note_off_c, 4, 76, 127
1, 197435, Note_on_c, 4, 76, 127
1, 197574, Note_off_c, 4, 76, 127
1, 197574, Note_off_c, 11, 58, 127
1, 197578, Note_on_c, 12, 59, 127
1, 197578, Note_on_c, 2, 74, 127
1, 197707, Note_off_c, 1, 73, 127
1, 197716, Note_off_c, 2, 74, 127
1, 197719, Note_on_c, 1, 73, 127
1, 197859, Note_off_c, 12, 59, 127
1, 197862, Note_on_c, 6, 54, 127
1, 197862, Note_on_c, 2, 74, 127
1, 197897, Note_off_c, 1, 73, 127
1, 198001, Note_off_c, 2, 74, 127
1, 198005, Note_on_c, 4, 76, 127
1, 198144, Note_off_c, 4, 76, 127
1, 198144, Note_off_c, 6, 54, 127
1, 198148, Note_on_c, 2, 50, 127
1, 198148, Note_on_c, 6, 78, 127
1, 198291, Note_on_c, 12, 71, 127
1, 198430, Note_off_c, 12, 71, 127
1, 198430, Note_off_c, 2, 50, 127
1, 198433, Note_on_c, 12, 47, 127
1, 198433, Note_on_c, 1, 73, 127
1, 198572, Note_off_c, 1, 73, 127
1, 198576, Note_on_c, 2, 74, 127
1, 198715, Note_off_c, 2, 74, 127
1, 198715, Note_off_c, 12, 47, 127
1, 198719, Note_on_c, 4, 52, 127
1, 198719, Note_on_c, 7, 67, 127
1, 198858, Note_off_c, 4, 52, 127
1, 198858, Note_off_c, 6, 78, 127
1, 198862, Note_on_c, 11, 58, 127
1, 198862, Note_on_c, 1, 73, 127
1, 199001, Note_off_c, 1, 73, 127
1, 199001, Note_off_c, 11, 58, 127
1, 199005, Note_on_c, 12, 59, 127
1, 199005, Note_on_c, 2, 74, 127
1, 199144, Note_off_c, 2, 74, 127
1, 199144, Note_off_c, 12, 59, 127
1, 199147, Note_on_c, 1, 61, 127
1, 199147, Note_on_c, 4, 76, 127
1, 199286, Note_off_c, 4, 76, 127
1, 199286, Note_off_c, 1, 61, 127
1, 199290, Note_on_c, 12, 59, 127
1, 199290, Note_on_c, 2, 74, 127
1, 199429, Note_off_c, 2, 74, 127
1, 199429, Note_off_c, 12, 59, 127
1, 199433, Note_on_c, 11, 58, 127
1, 199433, Note_on_c, 1, 73, 127
1, 199572, Note_off_c, 1, 73, 127
1, 199572, Note_off_c, 11, 58, 127
1, 199573, Note_off_c, 7, 67, 127
1, 199575, Note_on_c, 12, 59, 127
1, 199575, Note_on_c, 2, 74, 127
1, 199714, Note_off_c, 12, 59, 127
1, 199718, Note_on_c, 4, 52, 127
1, 199718, Note_on_c, 7, 67, 127
1, 199857, Note_off_c, 7, 67, 127
1, 199857, Note_off_c, 4, 52, 127
1, 199860, Note_on_c, 2, 50, 127
1, 199860, Note_on_c, 6, 66, 127
1, 199932, Note_off_c, 2, 74, 127
1, 199999, Note_off_c, 2, 50, 127
1, 200003, Note_on_c, 11, 58, 127
1, 200003, Note_on_c, 1, 73, 127
1, 200142, Note_off_c, 1, 73, 127
1, 200142, Note_off_c, 11, 58, 127
1, 200146, Note_on_c, 12, 59, 127
1, 200146, Note_on_c, 2, 74, 127
1, 200285, Note_off_c, 2, 74, 127
1, 200285, Note_off_c, 12, 59, 127
1, 200289, Note_on_c, 1, 61, 127
1, 200289, Note_on_c, 4, 76, 127
1, 200428, Note_off_c, 4, 76, 127
1, 200428, Note_off_c, 1, 61, 127
1, 200432, Note_on_c, 12, 59, 127
1, 200432, Note_on_c, 2, 74, 127
1, 200571, Note_off_c, 2, 74, 127
1, 200571, Note_off_c, 12, 59, 127
1, 200574, Note_on_c, 11, 58, 127
1, 200574, Note_on_c, 1, 73, 127
1, 200713, Note_off_c, 1, 73, 127
1, 200713, Note_off_c, 11, 58, 127
1, 200714, Note_off_c, 6, 66, 127
1, 200716, Note_on_c, 12, 59, 127
1, 200716, Note_on_c, 2, 74, 127
1, 200855, Note_off_c, 12, 59, 127
1, 200859, Note_on_c, 2, 50, 127
1, 200859, Note_on_c, 6, 66, 127
1, 200998, Note_off_c, 6, 66, 127
1, 200998, Note_off_c, 2, 50, 127
1, 201002, Note_on_c, 1, 49, 127
1, 201002, Note_on_c, 4, 64, 127
1, 201073, Note_off_c, 2, 74, 127
1, 201141, Note_off_c, 1, 49, 127
1, 201145, Note_on_c, 8, 56, 127
1, 201145, Note_on_c, 12, 71, 127
1, 201284, Note_off_c, 12, 71, 127
1, 201284, Note_off_c, 8, 56, 127
1, 201287, Note_on_c, 11, 58, 127
1, 201287, Note_on_c, 1, 73, 127
1, 201426, Note_off_c, 1, 73, 127
1, 201426, Note_off_c, 11, 58, 127
1, 201430, Note_on_c, 12, 59, 127
1, 201430, Note_on_c, 2, 74, 127
1, 201569, Note_off_c, 2, 74, 127
1, 201569, Note_off_c, 12, 59, 127
1, 201573, Note_on_c, 11, 58, 127
1, 201573, Note_on_c, 1, 73, 127
1, 201712, Note_off_c, 1, 73, 127
1, 201712, Note_off_c, 11, 58, 127
1, 201716, Note_on_c, 8, 56, 127
1, 201716, Note_on_c, 12, 71, 127
1, 201849, Note_off_c, 4, 64, 127
1, 201855, Note_off_c, 12, 71, 127
1, 201855, Note_off_c, 8, 56, 127
1, 201859, Note_on_c, 11, 58, 127
1, 201859, Note_on_c, 1, 73, 127
1, 201998, Note_off_c, 11, 58, 127
1, 202001, Note_on_c, 1, 49, 127
1, 202001, Note_on_c, 4, 64, 127
1, 202140, Note_off_c, 4, 64, 127
1, 202140, Note_off_c, 1, 49, 127
1, 202144, Note_on_c, 12, 47, 127
1, 202144, Note_on_c, 2, 62, 127
1, 202230, Note_off_c, 1, 73, 127
1, 202287, Note_on_c, 5, 65, 127
1, 202426, Note_off_c, 5, 65, 127
1, 202426, Note_off_c, 12, 47, 127
1, 202430, Note_on_c, 5, 41, 127
1, 202430, Note_on_c, 8, 68, 127
1, 202569, Note_off_c, 8, 68, 127
1, 202573, Note_on_c, 12, 71, 127
1, 202712, Note_off_c, 5, 41, 127
1, 202712, Note_off_c, 2, 62, 127
1, 202715, Note_on_c, 6, 42, 127
1, 202715, Note_on_c, 1, 61, 127
1, 202855, Note_off_c, 12, 71, 127
1, 202879, Note_on_c, 12, 71, 127
1, 202997, Note_off_c, 1, 61, 127
1, 202997, Note_off_c, 6, 42, 127
1, 203042, Note_on_c, 6, 54, 127
1, 203042, Note_on_c, 4, 64, 127
1, 203160, Note_off_c, 12, 71, 127
1, 203264, Note_on_c, 11, 70, 127
1, 203322, Note_off_c, 4, 64, 127
1, 203322, Note_off_c, 6, 54, 127
1, 203428, Note_off_c, 11, 70, 127
1, 203460, Note_on_c, 12, 47, 127
1, 203735, Note_on_c, 2, 50, 127
1, 203806, Note_on_c, 6, 54, 127
1, 203878, Note_on_c, 12, 59, 127
1, 203949, Note_on_c, 2, 62, 127
1, 204021, Note_on_c, 6, 66, 127
1, 204092, Note_on_c, 12, 71, 127
1, 204163, Note_on_c, 2, 74, 127
1, 204525, Note_off_c, 12, 47, 127
1, 204587, Note_off_c, 12, 71, 127
1, 204587, Note_off_c, 2, 62, 127
1, 204587, Note_off_c, 12, 59, 127
1, 204587, Note_off_c, 6, 54, 127
1, 204587, Note_off_c, 2, 50, 127
1, 204588, Note_off_c, 2, 74, 127
1, 204588, Note_off_c, 6, 66, 127
1, 204590, Note_on_c, 2, 74, 127
1, 204659, Note_off_c, 2, 74, 127
1, 204660, Note_on_c, 12, 47, 127
1, 204660, Note_on_c, 4, 52, 127
1, 204660, Note_on_c, 7, 55, 127
1, 204660, Note_on_c, 4, 64, 127
1, 204660, Note_on_c, 7, 67, 127
1, 204660, Note_on_c, 2, 74, 127
1, 205225, Note_off_c, 2, 74, 127
1, 205301, Note_on_c, 1, 73, 127
1, 205724, Note_off_c, 7, 67, 127
1, 205724, Note_off_c, 4, 64, 127
1, 205724, Note_off_c, 7, 55, 127
1, 205724, Note_off_c, 4, 52, 127
1, 205724, Note_off_c, 12, 47, 127
1, 205869, Note_off_c, 1, 73, 127
1, 205870, Note_on_c, 11, 46, 127
1, 206083, Note_on_c, 1, 49, 127
1, 206154, Note_on_c, 4, 52, 127
1, 206226, Note_on_c, 7, 55, 127
1, 206297, Note_on_c, 11, 58, 127
1, 206368, Note_on_c, 1, 61, 127
1, 206440, Note_on_c, 2, 62, 127
1, 206511, Note_on_c, 4, 64, 127
1, 206579, Note_off_c, 2, 62, 127
1, 206935, Note_off_c, 1, 61, 127
1, 206935, Note_off_c, 11, 58, 127
1, 206935, Note_off_c, 7, 55, 127
1, 206935, Note_off_c, 4, 52, 127
1, 206935, Note_off_c, 1, 49, 127
1, 206935, Note_off_c, 11, 46, 127
1, 206936, Note_off_c, 4, 64, 127
1, 206938, Note_on_c, 4, 64, 127
1, 207007, Note_off_c, 4, 64, 127
1, 207008, Note_on_c, 4, 64, 127
1, 207008, Note_on_c, 1, 61, 127
1, 207008, Note_on_c, 11, 58, 127
1, 207008, Note_on_c, 6, 54, 127
1, 207008, Note_on_c, 12, 47, 127
1, 207646, Note_off_c, 11, 58, 127
1, 207646, Note_off_c, 1, 61, 127
1, 207646, Note_off_c, 4, 64, 127
1, 207647, Note_on_c, 12, 59, 127
1, 207647, Note_on_c, 2, 62, 127
1, 208284, Note_off_c, 12, 47, 127
1, 208284, Note_off_c, 6, 54, 127
1, 208356, Note_off_c, 2, 62, 127
1, 208356, Note_off_c, 12, 59, 127
1, 208358, Note_on_c, 12, 59, 127
1, 208438, Note_on_c, 2, 62, 127
1, 208517, Note_off_c, 2, 62, 127
1, 208519, Note_on_c, 6, 66, 127
1, 208598, Note_off_c, 6, 66, 127
1, 208600, Note_on_c, 7, 67, 127
1, 208679, Note_off_c, 7, 67, 127
1, 208681, Note_on_c, 10, 69, 127
1, 208741, Note_off_c, 12, 59, 127
1, 208760, Note_off_c, 10, 69, 127
1, 208761, Note_on_c, 7, 67, 127
1, 208840, Note_off_c, 7, 67, 127
1, 208842, Note_on_c, 6, 66, 127
1, 208921, Note_off_c, 6, 66, 127
1, 208923, Note_on_c, 4, 64, 127
1, 209003, Note_on_c, 7, 67, 127
1, 209082, Note_off_c, 7, 67, 127
1, 209084, Note_on_c, 12, 71, 127
1, 209163, Note_off_c, 12, 71, 127
1, 209165, Note_on_c, 1, 73, 127
1, 209244, Note_off_c, 1, 73, 127
1, 209245, Note_on_c, 2, 74, 127
1, 209306, Note_off_c, 4, 64, 127
1, 209324, Note_off_c, 2, 74, 127
1, 209326, Note_on_c, 1, 73, 127
1, 209405, Note_off_c, 1, 73, 127
1, 209407, Note_on_c, 12, 71, 127
1, 209486, Note_off_c, 12, 71, 127
1, 209488, Note_on_c, 10, 57, 127
1, 209568, Note_on_c, 1, 61, 127
1, 209647, Note_off_c, 1, 61, 127
1, 209649, Note_on_c, 4, 64, 127
1, 209728, Note_off_c, 4, 64, 127
1, 209730, Note_on_c, 6, 66, 127
1, 209809, Note_off_c, 6, 66, 127
1, 209810, Note_on_c, 7, 67, 127
1, 209871, Note_off_c, 10, 57, 127
1, 209889, Note_off_c, 7, 67, 127
1, 209891, Note_on_c, 6, 66, 127
1, 209970, Note_off_c, 6, 66, 127
1, 209972, Note_on_c, 4, 64, 127
1, 210051, Note_off_c, 4, 64, 127
1, 210053, Note_on_c, 2, 62, 127
1, 210133, Note_on_c, 6, 66, 127
1, 210212, Note_off_c, 6, 66, 127
1, 210214, Note_on_c, 11, 70, 127
1, 210293, Note_off_c, 11, 70, 127
1, 210294, Note_on_c, 12, 71, 127
1, 210373, Note_off_c, 12, 71, 127
1, 210375, Note_on_c, 1, 73, 127
1, 210436, Note_off_c, 2, 62, 127
1, 210454, Note_off_c, 1, 73, 127
1, 210456, Note_on_c, 12, 71, 127
1, 210535, Note_off_c, 12, 71, 127
1, 210537, Note_on_c, 11, 70, 127
1, 210616, Note_off_c, 11, 70, 127
1, 210618, Note_on_c, 7, 55, 127
1, 210698, Note_on_c, 12, 59, 127
1, 210777, Note_off_c, 12, 59, 127
1, 210778, Note_on_c, 2, 62, 127
1, 210857, Note_off_c, 2, 62, 127
1, 210859, Note_on_c, 4, 64, 127
1, 210938, Note_off_c, 4, 64, 127
1, 210940, Note_on_c, 6, 66, 127
1, 211001, Note_off_c, 7, 55, 127
1, 211019, Note_off_c, 6, 66, 127
1, 211021, Note_on_c, 4, 64, 127
1, 211100, Note_off_c, 4, 64, 127
1, 211102, Note_on_c, 2, 62, 127
1, 211181, Note_off_c, 2, 62, 127
1, 211183, Note_on_c, 1, 61, 127
1, 211263, Note_on_c, 5, 65, 127
1, 211342, Note_off_c, 5, 65, 127
1, 211343, Note_on_c, 8, 68, 127
1, 211422, Note_off_c, 8, 68, 127
1, 211424, Note_on_c, 11, 70, 127
1, 211503, Note_off_c, 11, 70, 127
1, 211505, Note_on_c, 12, 71, 127
1, 211566, Note_off_c, 1, 61, 127
1, 211584, Note_off_c, 12, 71, 127
1, 211586, Note_on_c, 11, 70, 127
1, 211665, Note_off_c, 11, 70, 127
1, 211667, Note_on_c, 8, 68, 127
1, 211746, Note_off_c, 8, 68, 127
1, 211748, Note_on_c, 6, 66, 127
1, 211827, Note_on_c, 11, 70, 127
1, 211906, Note_off_c, 11, 70, 127
1, 211908, Note_on_c, 1, 73, 127
1, 211987, Note_off_c, 1, 73, 127
1, 211989, Note_on_c, 2, 74, 127
1, 212068, Note_off_c, 2, 74, 127
1, 212070, Note_on_c, 4, 76, 127
1, 212131, Note_off_c, 6, 66, 127
1, 212149, Note_off_c, 4, 76, 127
1, 212151, Note_on_c, 2, 74, 127
1, 212230, Note_off_c, 2, 74, 127
1, 212232, Note_on_c, 1, 73, 127
1, 212311, Note_off_c, 1, 73, 127
1, 212313, Note_on_c, 11, 70, 127
1, 212392, Note_on_c, 1, 73, 127
1, 212471, Note_off_c, 1, 73, 127
1, 212473, Note_on_c, 4, 76, 127
1, 212552, Note_off_c, 4, 76, 127
1, 212554, Note_on_c, 6, 78, 127
1, 212633, Note_off_c, 6, 78, 127
1, 212635, Note_on_c, 7, 79, 127
1, 212696, Note_off_c, 11, 70, 127
1, 212750, Note_off_c, 7, 79, 127
1, 212751, Note_on_c, 6, 78, 127
1, 212877, Note_off_c, 6, 78, 127
1, 212878, Note_on_c, 4, 76, 127
1, 213018, Note_off_c, 4, 76, 127
1, 213020, Note_on_c, 12, 47, 127
1, 213233, Note_on_c, 2, 50, 127
1, 213305, Note_on_c, 6, 54, 127
1, 213376, Note_on_c, 12, 59, 127
1, 213448, Note_on_c, 2, 62, 127
1, 213519, Note_on_c, 6, 66, 127
1, 213590, Note_on_c, 12, 71, 127
1, 213662, Note_on_c, 2, 74, 127
1, 214085, Note_off_c, 12, 71, 127
1, 214085, Note_off_c, 12, 59, 127
1, 214085, Note_off_c, 2, 50, 127
1, 214085, Note_off_c, 12, 47, 127
1, 214086, Note_off_c, 6, 66, 127
1, 214086, Note_off_c, 2, 62, 127
1, 214086, Note_off_c, 6, 54, 127
1, 214087, Note_off_c, 2, 74, 127
1, 214088, Note_on_c, 2, 74, 127
1, 214157, Note_off_c, 2, 74, 127
1, 214158, Note_on_c, 4, 52, 127
1, 214158, Note_on_c, 7, 55, 127
1, 214158, Note_on_c, 7, 67, 127
1, 214158, Note_on_c, 2, 74, 127
1, 214158, Note_on_c, 12, 59, 127
1, 214795, Note_off_c, 2, 74, 127
1, 214796, Note_off_c, 12, 59, 127
1, 214798, Note_on_c, 0, 72, 127
1, 215293, Note_off_c, 7, 67, 127
1, 215293, Note_off_c, 7, 55, 127
1, 215293, Note_off_c, 4, 52, 127
1, 215366, Note_off_c, 0, 72, 127
1, 215367, Note_on_c, 6, 54, 127
1, 215580, Note_on_c, 10, 57, 127
1, 215652, Note_on_c, 0, 60, 127
1, 215723, Note_on_c, 2, 62, 127
1, 215794, Note_on_c, 10, 69, 127
1, 215866, Note_on_c, 2, 74, 127
1, 215937, Note_on_c, 6, 78, 127
1, 216009, Note_on_c, 10, 81, 127
1, 216361, Note_off_c, 6, 78, 127
1, 216361, Note_off_c, 2, 74, 127
1, 216361, Note_off_c, 10, 69, 127
1, 216361, Note_off_c, 2, 62, 127
1, 216361, Note_off_c, 0, 60, 127
1, 216361, Note_off_c, 10, 57, 127
1, 216432, Note_off_c, 6, 54, 127
1, 216434, Note_off_c, 10, 81, 127
1, 216435, Note_on_c, 6, 66, 127
1, 216435, Note_on_c, 10, 69, 127
1, 216435, Note_on_c, 0, 72, 127
1, 216504, Note_off_c, 0, 72, 127
1, 216504, Note_off_c, 10, 69, 127
1, 216504, Note_off_c, 6, 66, 127
1, 216505, Note_on_c, 0, 72, 127
1, 216505, Note_on_c, 10, 69, 127
1, 216505, Note_on_c, 6, 66, 127
1, 216505, Note_on_c, 2, 62, 127
1, 216505, Note_on_c, 7, 55, 127
1, 217143, Note_off_c, 6, 66, 127
1, 217143, Note_off_c, 10, 69, 127
1, 217143, Note_off_c, 0, 72, 127
1, 217145, Note_on_c, 7, 67, 127
1, 217145, Note_on_c, 12, 71, 127
1, 217640, Note_off_c, 7, 55, 127
1, 217640, Note_off_c, 2, 62, 127
1, 217713, Note_off_c, 12, 71, 127
1, 217713, Note_off_c, 7, 67, 127
1, 217730, Note_on_c, 4, 64, 127
1, 217810, Note_on_c, 7, 67, 127
1, 217889, Note_off_c, 7, 67, 127
1, 217889, Note_off_c, 4, 64, 127
1, 217890, Note_on_c, 11, 70, 127
1, 217969, Note_off_c, 11, 70, 127
1, 217971, Note_on_c, 12, 71, 127
1, 218050, Note_off_c, 12, 71, 127
1, 218052, Note_on_c, 1, 73, 127
1, 218131, Note_off_c, 1, 73, 127
1, 218133, Note_on_c, 12, 71, 127
1, 218212, Note_off_c, 12, 71, 127
1, 218214, Note_on_c, 11, 70, 127
1, 218293, Note_off_c, 11, 70, 127
1, 218295, Note_on_c, 3, 63, 127
1, 218374, Note_on_c, 6, 66, 127
1, 218453, Note_off_c, 6, 66, 127
1, 218455, Note_on_c, 10, 69, 127
1, 218534, Note_off_c, 10, 69, 127
1, 218534, Note_off_c, 3, 63, 127
1, 218536, Note_on_c, 12, 71, 127
1, 218615, Note_off_c, 12, 71, 127
1, 218617, Note_on_c, 0, 72, 127
1, 218696, Note_off_c, 0, 72, 127
1, 218698, Note_on_c, 12, 71, 127
1, 218777, Note_off_c, 12, 71, 127
1, 218779, Note_on_c, 10, 69, 127
1, 218858, Note_off_c, 10, 69, 127
1, 218860, Note_on_c, 2, 62, 127
1, 218939, Note_on_c, 5, 65, 127
1, 219021, Note_on_c, 8, 68, 127
1, 219099, Note_off_c, 5, 65, 127
1, 219100, Note_off_c, 8, 68, 127
1, 219100, Note_off_c, 2, 62, 127
1, 219102, Note_on_c, 10, 69, 127
1, 219181, Note_off_c, 10, 69, 127
1, 219183, Note_on_c, 12, 71, 127
1, 219262, Note_off_c, 12, 71, 127
1, 219264, Note_on_c, 10, 69, 127
1, 219343, Note_off_c, 10, 69, 127
1, 219345, Note_on_c, 8, 68, 127
1, 219424, Note_off_c, 8, 68, 127
1, 219425, Note_on_c, 1, 61, 127
1, 219505, Note_on_c, 4, 64, 127
1, 219587, Note_on_c, 7, 67, 127
1, 219665, Note_off_c, 4, 64, 127
1, 219666, Note_off_c, 7, 67, 127
1, 219668, Note_on_c, 10, 69, 127
1, 219744, Note_off_c, 1, 61, 127
1, 219747, Note_off_c, 10, 69, 127
1, 219749, Note_on_c, 11, 70, 127
1, 219828, Note_off_c, 11, 70, 127
1, 219830, Note_on_c, 10, 69, 127
1, 219909, Note_off_c, 10, 69, 127
1, 219911, Note_on_c, 7, 67, 127
1, 219990, Note_off_c, 7, 67, 127
1, 219991, Note_on_c, 0, 60, 127
1, 220071, Note_on_c, 3, 63, 127
1, 220153, Note_on_c, 6, 66, 127
1, 220232, Note_off_c, 6, 66, 127
1, 220234, Note_on_c, 7, 67, 127
1, 220310, Note_off_c, 3, 63, 127
1, 220310, Note_off_c, 0, 60, 127
1, 220313, Note_off_c, 7, 67, 127
1, 220315, Note_on_c, 10, 69, 127
1, 220394, Note_off_c, 10, 69, 127
1, 220396, Note_on_c, 7, 67, 127
1, 220475, Note_off_c, 7, 67, 127
1, 220477, Note_on_c, 6, 66, 127
1, 220556, Note_off_c, 6, 66, 127
1, 220557, Note_on_c, 12, 59, 127
1, 220637, Note_on_c, 2, 62, 127
1, 220719, Note_on_c, 5, 65, 127
1, 220798, Note_off_c, 5, 65, 127
1, 220800, Note_on_c, 6, 66, 127
1, 220876, Note_off_c, 2, 62, 127
1, 220879, Note_off_c, 6, 66, 127
1, 220881, Note_on_c, 8, 68, 127
1, 220941, Note_off_c, 12, 59, 127
1, 220960, Note_off_c, 8, 68, 127
1, 220962, Note_on_c, 6, 66, 127
1, 221041, Note_off_c, 6, 66, 127
1, 221042, Note_on_c, 5, 65, 127
1, 221121, Note_off_c, 5, 65, 127
1, 221123, Note_on_c, 11, 58, 127
1, 221203, Note_on_c, 1, 61, 127
1, 221285, Note_on_c, 4, 64, 127
1, 221364, Note_off_c, 4, 64, 127
1, 221366, Note_on_c, 6, 66, 127
1, 221445, Note_off_c, 6, 66, 127
1, 221447, Note_on_c, 7, 67, 127
1, 221507, Note_off_c, 11, 58, 127
1, 221522, Note_off_c, 1, 61, 127
1, 221526, Note_off_c, 7, 67, 127
1, 221528, Note_on_c, 6, 66, 127
1, 221607, Note_off_c, 6, 66, 127
1, 221608, Note_on_c, 4, 64, 127
1, 221687, Note_off_c, 4, 64, 127
1, 221689, Note_on_c, 10, 57, 127
1, 221769, Note_on_c, 0, 60, 127
1, 221848, Note_off_c, 10, 57, 127
1, 221850, Note_on_c, 3, 63, 127
1, 221928, Note_off_c, 0, 60, 127
1, 221932, Note_on_c, 4, 64, 127
1, 222010, Note_off_c, 3, 63, 127
1, 222011, Note_off_c, 4, 64, 127
1, 222013, Note_on_c, 6, 66, 127
1, 222095, Note_on_c, 4, 64, 127
1, 222173, Note_off_c, 6, 66, 127
1, 222174, Note_off_c, 4, 64, 127
1, 222175, Note_on_c, 3, 63, 127
1, 222254, Note_off_c, 3, 63, 127
1, 222256, Note_on_c, 8, 56, 127
1, 222469, Note_on_c, 12, 59, 127
1, 222541, Note_on_c, 2, 62, 127
1, 222612, Note_on_c, 5, 65, 127
1, 222684, Note_on_c, 12, 71, 127
1, 222755, Note_on_c, 2, 74, 127
1, 222826, Note_on_c, 5, 77, 127
1, 222898, Note_on_c, 12, 83, 127
1, 223250, Note_off_c, 5, 77, 127
1, 223250, Note_off_c, 2, 74, 127
1, 223250, Note_off_c, 5, 65, 127
1, 223250, Note_off_c, 2, 62, 127
1, 223250, Note_off_c, 12, 59, 127
1, 223251, Note_off_c, 12, 71, 127
1, 223321, Note_off_c, 8, 56, 127
1, 223323, Note_off_c, 12, 83, 127
1, 223324, Note_on_c, 2, 74, 127
1, 223324, Note_on_c, 8, 80, 127
1, 223324, Note_on_c, 12, 83, 127
1, 223393, Note_off_c, 12, 83, 127
1, 223393, Note_off_c, 8, 80, 127
1, 223393, Note_off_c, 2, 74, 127
1, 223394, Note_on_c, 4, 76, 127
1, 223394, Note_on_c, 8, 80, 127
1, 223394, Note_on_c, 12, 83, 127
1, 223394, Note_on_c, 2, 74, 127
1, 223394, Note_on_c, 8, 68, 127
1, 223394, Note_on_c, 4, 64, 127
1, 223394, Note_on_c, 0, 60, 127
1, 224032, Note_off_c, 8, 68, 127
1, 224032, Note_off_c, 2, 74, 127
1, 224032, Note_off_c, 12, 83, 127
1, 224032, Note_off_c, 8, 80, 127
1, 224032, Note_off_c, 4, 76, 127
1, 224034, Note_on_c, 10, 69, 127
1, 224034, Note_on_c, 0, 72, 127
1, 224034, Note_on_c, 10, 81, 127
1, 224529, Note_off_c, 4, 64, 127
1, 224600, Note_off_c, 0, 60, 127
1, 224602, Note_off_c, 10, 81, 127
1, 224602, Note_off_c, 0, 72, 127
1, 224602, Note_off_c, 10, 69, 127
1, 224639, Note_on_c, 3, 51, 127
1, 224852, Note_on_c, 6, 54, 127
1, 224923, Note_on_c, 10, 57, 127
1, 224995, Note_on_c, 0, 60, 127
1, 225066, Note_on_c, 10, 69, 127
1, 225137, Note_on_c, 0, 72, 127
1, 225209, Note_on_c, 6, 78, 127
1, 225280, Note_on_c, 10, 81, 127
1, 225632, Note_off_c, 0, 72, 127
1, 225632, Note_off_c, 10, 57, 127
1, 225633, Note_off_c, 6, 78, 127
1, 225633, Note_off_c, 10, 69, 127
1, 225633, Note_off_c, 0, 60, 127
1, 225633, Note_off_c, 6, 54, 127
1, 225704, Note_off_c, 3, 51, 127
1, 225705, Note_off_c, 10, 81, 127
1, 225707, Note_on_c, 0, 72, 127
1, 225707, Note_on_c, 3, 75, 127
1, 225707, Note_on_c, 6, 78, 127
1, 225707, Note_on_c, 10, 81, 127
1, 225776, Note_off_c, 10, 81, 127
1, 225776, Note_off_c, 6, 78, 127
1, 225776, Note_off_c, 3, 75, 127
1, 225776, Note_off_c, 0, 72, 127
1, 225777, Note_on_c, 4, 64, 127
1, 225777, Note_on_c, 4, 52, 127
1, 225777, Note_on_c, 10, 81, 127
1, 225777, Note_on_c, 6, 78, 127
1, 225777, Note_on_c, 3, 75, 127
1, 225777, Note_on_c, 0, 72, 127
1, 226415, Note_off_c, 0, 72, 127
1, 226415, Note_off_c, 3, 75, 127
1, 226415, Note_off_c, 6, 78, 127
1, 226415, Note_off_c, 10, 81, 127
1, 226416, Note_on_c, 12, 71, 127
1, 226416, Note_on_c, 4, 76, 127
1, 226416, Note_on_c, 7, 79, 127
1, 227053, Note_off_c, 4, 52, 127
1, 227125, Note_off_c, 7, 79, 127
1, 227125, Note_off_c, 4, 76, 127
1, 227125, Note_off_c, 12, 71, 127
1, 227125, Note_off_c, 4, 64, 127
1, 227127, Note_on_c, 4, 40, 127
1, 227207, Note_on_c, 7, 43, 127
1, 227286, Note_off_c, 7, 43, 127
1, 227288, Note_on_c, 12, 47, 127
1, 227367, Note_off_c, 12, 47, 127
1, 227369, Note_on_c, 0, 48, 127
1, 227448, Note_off_c, 0, 48, 127
1, 227450, Note_on_c, 2, 50, 127
1, 227529, Note_off_c, 2, 50, 127
1, 227530, Note_on_c, 0, 48, 127
1, 227609, Note_off_c, 0, 48, 127
1, 227611, Note_off_c, 4, 40, 127
1, 227611, Note_on_c, 12, 47, 127
1, 227690, Note_off_c, 12, 47, 127
1, 227692, Note_on_c, 10, 45, 127
1, 227772, Note_on_c, 0, 48, 127
1, 227851, Note_off_c, 0, 48, 127
1, 227853, Note_on_c, 4, 52, 127
1, 227932, Note_off_c, 4, 52, 127
1, 227934, Note_on_c, 6, 54, 127
1, 228013, Note_off_c, 6, 54, 127
1, 228014, Note_on_c, 7, 55, 127
1, 228093, Note_off_c, 7, 55, 127
1, 228095, Note_off_c, 10, 45, 127
1, 228095, Note_on_c, 6, 54, 127
1, 228174, Note_off_c, 6, 54, 127
1, 228176, Note_on_c, 4, 52, 127
1, 228255, Note_off_c, 4, 52, 127
1, 228257, Note_on_c, 2, 50, 127
1, 228337, Note_on_c, 6, 54, 127
1, 228416, Note_off_c, 6, 54, 127
1, 228418, Note_on_c, 10, 57, 127
1, 228497, Note_off_c, 10, 57, 127
1, 228499, Note_on_c, 12, 59, 127
1, 228578, Note_off_c, 12, 59, 127
1, 228579, Note_off_c, 2, 50, 127
1, 228579, Note_on_c, 0, 60, 127
1, 228658, Note_off_c, 0, 60, 127
1, 228660, Note_on_c, 12, 59, 127
1, 228739, Note_off_c, 12, 59, 127
1, 228741, Note_on_c, 10, 57, 127
1, 228820, Note_off_c, 10, 57, 127
1, 228822, Note_on_c, 7, 55, 127
1, 228902, Note_on_c, 12, 59, 127
1, 228981, Note_off_c, 12, 59, 127
1, 228983, Note_on_c, 3, 63, 127
1, 229062, Note_off_c, 3, 63, 127
1, 229063, Note_off_c, 7, 55, 127
1, 229063, Note_on_c, 4, 64, 127
1, 229142, Note_off_c, 4, 64, 127
1, 229144, Note_on_c, 6, 66, 127
1, 229223, Note_off_c, 6, 66, 127
1, 229225, Note_on_c, 4, 64, 127
1, 229304, Note_off_c, 4, 64, 127
1, 229306, Note_on_c, 3, 63, 127
1, 229385, Note_off_c, 3, 63, 127
1, 229387, Note_on_c, 0, 60, 127
1, 229467, Note_on_c, 4, 64, 127
1, 229546, Note_off_c, 4, 64, 127
1, 229546, Note_off_c, 0, 60, 127
1, 229547, Note_on_c, 7, 67, 127
1, 229626, Note_off_c, 7, 67, 127
1, 229628, Note_on_c, 10, 69, 127
1, 229707, Note_off_c, 10, 69, 127
1, 229709, Note_on_c, 12, 71, 127
1, 229788, Note_off_c, 12, 71, 127
1, 229790, Note_on_c, 10, 69, 127
1, 229869, Note_off_c, 10, 69, 127
1, 229871, Note_on_c, 7, 67, 127
1, 229950, Note_off_c, 7, 67, 127
1, 229952, Note_on_c, 6, 66, 127
1, 230032, Note_on_c, 11, 70, 127
1, 230111, Note_off_c, 6, 66, 127
1, 230112, Note_on_c, 1, 73, 127
1, 230191, Note_off_c, 1, 73, 127
1, 230191, Note_off_c, 11, 70, 127
1, 230193, Note_on_c, 3, 75, 127
1, 230272, Note_off_c, 3, 75, 127
1, 230274, Note_on_c, 4, 76, 127
1, 230353, Note_off_c, 4, 76, 127
1, 230355, Note_on_c, 3, 75, 127
1, 230434, Note_off_c, 3, 75, 127
1, 230436, Note_on_c, 1, 73, 127
1, 230515, Note_off_c, 1, 73, 127
1, 230517, Note_on_c, 12, 71, 127
1, 230596, Note_on_c, 3, 75, 127
1, 230676, Note_off_c, 12, 71, 127
1, 230677, Note_on_c, 6, 78, 127
1, 230755, Note_off_c, 3, 75, 127
1, 230759, Note_on_c, 7, 79, 127
1, 230837, Note_off_c, 6, 78, 127
1, 230838, Note_off_c, 7, 79, 127
1, 230840, Note_on_c, 10, 81, 127
1, 230919, Note_off_c, 10, 81, 127
1, 230921, Note_on_c, 7, 79, 127
1, 231000, Note_off_c, 7, 79, 127
1, 231002, Note_on_c, 6, 78, 127
1, 231081, Note_off_c, 6, 78, 127
1, 231083, Note_on_c, 3, 75, 127
1, 231162, Note_on_c, 6, 78, 127
1, 231163, Note_off_c, 3, 75, 127
1, 231242, Note_off_c, 6, 78, 127
1, 231243, Note_on_c, 10, 81, 127
1, 231324, Note_off_c, 10, 81, 127
1, 231325, Note_on_c, 12, 83, 127
1, 231406, Note_off_c, 12, 83, 127
1, 231407, Note_on_c, 0, 84, 127
1, 231531, Note_on_c, 12, 83, 127
1, 231566, Note_off_c, 0, 84, 127
1, 231632, Note_off_c, 12, 83, 127
1, 231656, Note_on_c, 10, 81, 127
1, 231793, Note_off_c, 10, 81, 127
1, 231825, Note_on_c, 4, 52, 127
1, 232039, Note_on_c, 7, 55, 127
1, 232110, Note_on_c, 12, 59, 127
1, 232181, Note_on_c, 4, 64, 127
1, 232253, Note_on_c, 7, 67, 127
1, 232324, Note_on_c, 12, 71, 127
1, 232396, Note_on_c, 4, 76, 127
1, 232467, Note_on_c, 7, 79, 127
1, 232819, Note_off_c, 12, 71, 127
1, 232819, Note_off_c, 4, 64, 127
1, 232819, Note_off_c, 12, 59, 127
1, 232820, Note_off_c, 4, 76, 127
1, 232820, Note_off_c, 7, 67, 127
1, 232820, Note_off_c, 7, 55, 127
1, 232890, Note_off_c, 4, 52, 127
1, 232892, Note_off_c, 7, 79, 127
1, 232893, Note_on_c, 7, 79, 127
1, 232962, Note_off_c, 7, 79, 127
1, 232964, Note_on_c, 10, 57, 127
1, 232964, Note_on_c, 0, 60, 127
1, 232964, Note_on_c, 4, 64, 127
1, 232964, Note_on_c, 10, 69, 127
1, 232964, Note_on_c, 7, 79, 127
1, 232964, Note_on_c, 0, 72, 127
1, 233460, Note_off_c, 0, 72, 127
1, 233460, Note_off_c, 7, 79, 127
1, 233460, Note_off_c, 10, 69, 127
1, 233461, Note_on_c, 4, 76, 127
1, 233530, Note_off_c, 4, 76, 127
1, 233532, Note_on_c, 4, 76, 127
1, 233885, Note_off_c, 4, 76, 127
1, 233887, Note_on_c, 5, 77, 127
1, 233955, Note_off_c, 4, 64, 127
1, 233955, Note_off_c, 0, 60, 127
1, 234098, Note_off_c, 10, 57, 127
1, 234170, Note_off_c, 5, 77, 127
1, 234171, Note_on_c, 12, 59, 127
1, 234384, Note_on_c, 2, 62, 127
1, 234456, Note_on_c, 5, 65, 127
1, 234527, Note_on_c, 8, 68, 127
1, 234598, Note_on_c, 12, 71, 127
1, 234670, Note_on_c, 2, 74, 127
1, 234741, Note_on_c, 5, 77, 127
1, 234813, Note_on_c, 8, 80, 127
1, 235165, Note_off_c, 5, 77, 127
1, 235165, Note_off_c, 2, 74, 127
1, 235165, Note_off_c, 12, 71, 127
1, 235165, Note_off_c, 8, 68, 127
1, 235165, Note_off_c, 5, 65, 127
1, 235165, Note_off_c, 2, 62, 127
1, 235236, Note_off_c, 12, 59, 127
1, 235238, Note_off_c, 8, 80, 127
1, 235239, Note_on_c, 4, 76, 127
1, 235239, Note_on_c, 2, 74, 127
1, 235239, Note_on_c, 12, 71, 127
1, 235239, Note_on_c, 8, 80, 127
1, 235308, Note_off_c, 8, 80, 127
1, 235308, Note_off_c, 12, 71, 127
1, 235308, Note_off_c, 2, 74, 127
1, 235308, Note_off_c, 4, 76, 127
1, 235309, Note_on_c, 4, 76, 127
1, 235309, Note_on_c, 2, 74, 127
1, 235309, Note_on_c, 12, 71, 127
1, 235309, Note_on_c, 8, 80, 127
1, 235309, Note_on_c, 0, 60, 127
1, 235309, Note_on_c, 4, 64, 127
1, 235947, Note_off_c, 8, 80, 127
1, 235947, Note_off_c, 12, 71, 127
1, 235947, Note_off_c, 2, 74, 127
1, 235947, Note_off_c, 4, 76, 127
1, 235949, Note_on_c, 10, 69, 127
1, 235949, Note_on_c, 0, 72, 127
1, 235949, Note_on_c, 10, 81, 127
1, 236514, Note_off_c, 4, 64, 127
1, 236514, Note_off_c, 0, 60, 127
1, 236587, Note_off_c, 10, 81, 127
1, 236587, Note_off_c, 0, 72, 127
1, 236587, Note_off_c, 10, 69, 127
1, 236588, Note_on_c, 0, 72, 127
1, 236668, Note_on_c, 4, 76, 127
1, 236747, Note_off_c, 4, 76, 127
1, 236749, Note_on_c, 6, 78, 127
1, 236828, Note_off_c, 6, 78, 127
1, 236830, Note_on_c, 7, 79, 127
1, 236909, Note_off_c, 7, 79, 127
1, 236911, Note_on_c, 10, 81, 127
1, 236971, Note_off_c, 0, 72, 127
1, 236990, Note_off_c, 10, 81, 127
1, 236991, Note_on_c, 7, 79, 127
1, 237070, Note_off_c, 7, 79, 127
1, 237072, Note_on_c, 6, 78, 127
1, 237151, Note_off_c, 6, 78, 127
1, 237153, Note_on_c, 12, 71, 127
1, 237233, Note_on_c, 3, 75, 127
1, 237312, Note_off_c, 3, 75, 127
1, 237314, Note_on_c, 4, 76, 127
1, 237393, Note_off_c, 4, 76, 127
1, 237395, Note_on_c, 6, 78, 127
1, 237474, Note_off_c, 6, 78, 127
1, 237475, Note_on_c, 7, 79, 127
1, 237536, Note_off_c, 12, 71, 127
1, 237554, Note_off_c, 7, 79, 127
1, 237556, Note_on_c, 6, 78, 127
1, 237635, Note_off_c, 6, 78, 127
1, 237637, Note_on_c, 4, 76, 127
1, 237716, Note_off_c, 4, 76, 127
1, 237718, Note_on_c, 10, 69, 127
1, 237798, Note_on_c, 0, 72, 127
1, 237877, Note_off_c, 0, 72, 127
1, 237879, Note_on_c, 3, 75, 127
1, 237958, Note_off_c, 3, 75, 127
1, 237960, Note_on_c, 4, 76, 127
1, 238039, Note_off_c, 4, 76, 127
1, 238040, Note_on_c, 6, 78, 127
1, 238101, Note_off_c, 10, 69, 127
1, 238119, Note_off_c, 6, 78, 127
1, 238121, Note_on_c, 4, 76, 127
1, 238200, Note_off_c, 4, 76, 127
1, 238202, Note_on_c, 3, 75, 127
1, 238281, Note_off_c, 3, 75, 127
1, 238283, Note_on_c, 6, 66, 127
1, 238363, Note_on_c, 3, 75, 127
1, 238442, Note_off_c, 3, 75, 127
1, 238444, Note_on_c, 10, 81, 127
1, 238523, Note_off_c, 10, 81, 127
1, 238524, Note_on_c, 12, 83, 127
1, 238603, Note_off_c, 12, 83, 127
1, 238605, Note_on_c, 0, 84, 127
1, 238666, Note_off_c, 6, 66, 127
1, 238684, Note_off_c, 0, 84, 127
1, 238686, Note_on_c, 12, 83, 127
1, 238765, Note_off_c, 12, 83, 127
1, 238767, Note_on_c, 10, 81, 127
1, 238846, Note_off_c, 10, 81, 127
1, 238848, Note_on_c, 7, 67, 127
1, 238848, Note_on_c, 12, 83, 127
1, 239381, Note_off_c, 12, 83, 127
1, 239381, Note_off_c, 7, 67, 127
1, 239417, Note_on_c, 4, 76, 127
1, 239417, Note_on_c, 0, 72, 127
1, 239417, Note_on_c, 0, 60, 127
1, 239417, Note_on_c, 7, 67, 127
1, 239557, Note_off_c, 7, 67, 127
1, 239557, Note_off_c, 0, 60, 127
1, 239557, Note_off_c, 0, 72, 127
1, 239557, Note_off_c, 4, 76, 127
1, 239559, Note_on_c, 6, 78, 127
1, 239559, Note_on_c, 10, 69, 127
1, 239559, Note_on_c, 10, 57, 127
1, 239559, Note_on_c, 0, 72, 127
1, 239984, Note_off_c, 0, 72, 127
1, 239984, Note_off_c, 10, 57, 127
1, 239984, Note_off_c, 10, 69, 127
1, 239984, Note_off_c, 6, 78, 127
1, 240009, Note_on_c, 12, 71, 127
1, 240009, Note_on_c, 6, 66, 127
1, 240009, Note_on_c, 12, 59, 127
1, 240009, Note_on_c, 3, 75, 127
1, 240149, Note_off_c, 3, 75, 127
1, 240149, Note_off_c, 12, 59, 127
1, 240149, Note_off_c, 6, 66, 127
1, 240149, Note_off_c, 12, 71, 127
1, 240151, Note_on_c, 4, 64, 127
1, 240151, Note_on_c, 1, 49, 127
1, 240151, Note_on_c, 4, 52, 127
1, 240151, Note_on_c, 7, 55, 127
1, 240151, Note_on_c, 1, 61, 127
1, 240151, Note_on_c, 12, 71, 127
1, 240151, Note_on_c, 4, 76, 127
1, 240719, Note_off_c, 4, 76, 127
1, 240719, Note_off_c, 1, 61, 127
1, 240796, Note_off_c, 12, 71, 127
1, 240843, Note_on_c, 11, 70, 127
1, 241500, Note_off_c, 7, 55, 127
1, 241500, Note_off_c, 4, 52, 127
1, 241500, Note_off_c, 1, 49, 127
1, 241500, Note_off_c, 4, 64, 127
1, 242039, Note_off_c, 11, 70, 127
1, 242054, Note_on_c, 4, 52, 127
1, 242144, Note_on_c, 7, 55, 127
1, 242170, Note_off_c, 4, 52, 127
1, 242224, Note_off_c, 7, 55, 127
1, 242226, Note_on_c, 11, 58, 127
1, 242305, Note_off_c, 11, 58, 127
1, 242307, Note_on_c, 12, 59, 127
1, 242386, Note_off_c, 12, 59, 127
1, 242388, Note_on_c, 1, 61, 127
1, 242467, Note_off_c, 1, 61, 127
1, 242468, Note_on_c, 12, 59, 127
1, 242547, Note_off_c, 12, 59, 127
1, 242548, Note_on_c, 11, 58, 127
1, 242627, Note_off_c, 11, 58, 127
1, 242629, Note_on_c, 5, 53, 127
1, 242708, Note_on_c, 8, 56, 127
1, 242777, Note_off_c, 5, 53, 127
1, 242788, Note_on_c, 12, 59, 127
1, 242802, Note_off_c, 8, 56, 127
1, 242867, Note_off_c, 12, 59, 127
1, 242869, Note_on_c, 1, 61, 127
1, 242948, Note_off_c, 1, 61, 127
1, 242948, Note_on_c, 2, 62, 127
1, 243027, Note_off_c, 2, 62, 127
1, 243029, Note_on_c, 0, 60, 127
1, 243108, Note_off_c, 0, 60, 127
1, 243108, Note_on_c, 12, 59, 127
1, 243187, Note_off_c, 12, 59, 127
1, 243189, Note_on_c, 6, 54, 127
1, 243265, Note_on_c, 10, 57, 127
1, 243345, Note_on_c, 0, 60, 127
1, 243373, Note_off_c, 6, 54, 127
1, 243374, Note_off_c, 10, 57, 127
1, 243424, Note_off_c, 0, 60, 127
1, 243425, Note_on_c, 1, 61, 127
1, 243504, Note_off_c, 1, 61, 127
1, 243505, Note_on_c, 3, 63, 127
1, 243584, Note_off_c, 3, 63, 127
1, 243585, Note_on_c, 1, 61, 127
1, 243663, Note_on_c, 0, 60, 127
1, 243664, Note_off_c, 1, 61, 127
1, 243742, Note_off_c, 0, 60, 127
1, 243743, Note_on_c, 7, 55, 127
1, 243819, Note_on_c, 11, 58, 127
1, 243899, Note_on_c, 1, 61, 127
1, 243942, Note_off_c, 11, 58, 127
1, 243964, Note_off_c, 7, 55, 127
1, 243976, Note_on_c, 2, 62, 127
1, 243977, Note_off_c, 1, 61, 127
1, 244055, Note_off_c, 2, 62, 127
1, 244056, Note_on_c, 4, 64, 127
1, 244135, Note_off_c, 4, 64, 127
1, 244135, Note_on_c, 2, 62, 127
1, 244213, Note_off_c, 2, 62, 127
1, 244213, Note_on_c, 1, 61, 127
1, 244290, Note_on_c, 8, 56, 127
1, 244291, Note_off_c, 1, 61, 127
1, 244366, Note_on_c, 12, 59, 127
1, 244445, Note_on_c, 2, 62, 127
1, 244505, Note_off_c, 12, 59, 127
1, 244523, Note_on_c, 4, 64, 127
1, 244524, Note_off_c, 2, 62, 127
1, 244549, Note_off_c, 8, 56, 127
1, 244601, Note_off_c, 4, 64, 127
1, 244601, Note_on_c, 5, 65, 127
1, 244679, Note_off_c, 5, 65, 127
1, 244679, Note_on_c, 4, 64, 127
1, 244755, Note_on_c, 2, 62, 127
1, 244758, Note_off_c, 4, 64, 127
1, 244834, Note_off_c, 2, 62, 127
1, 244834, Note_on_c, 10, 57, 127
1, 244908, Note_on_c, 0, 60, 127
1, 244986, Note_on_c, 3, 63, 127
1, 245062, Note_off_c, 0, 60, 127
1, 245063, Note_on_c, 4, 64, 127
1, 245080, Note_off_c, 3, 63, 127
1, 245130, Note_off_c, 10, 57, 127
1, 245142, Note_off_c, 4, 64, 127
1, 245142, Note_on_c, 6, 66, 127
1, 245218, Note_on_c, 4, 64, 127
1, 245221, Note_off_c, 6, 66, 127
1, 245296, Note_on_c, 3, 63, 127
1, 245298, Note_off_c, 4, 64, 127
1, 245374, Note_on_c, 11, 58, 127
1, 245376, Note_off_c, 3, 63, 127
1, 245446, Note_on_c, 1, 61, 127
1, 245525, Note_on_c, 4, 64, 127
1, 245601, Note_on_c, 6, 66, 127
1, 245615, Note_off_c, 1, 61, 127
1, 245634, Note_off_c, 4, 64, 127
1, 245678, Note_on_c, 7, 67, 127
1, 245679, Note_off_c, 6, 66, 127
1, 245705, Note_off_c, 11, 58, 127
1, 245753, Note_on_c, 6, 66, 127
1, 245756, Note_off_c, 7, 67, 127
1, 245830, Note_on_c, 4, 64, 127
1, 245832, Note_off_c, 6, 66, 127
1, 245905, Note_on_c, 12, 59, 127
1, 245909, Note_off_c, 4, 64, 127
1, 245978, Note_on_c, 2, 62, 127
1, 246054, Note_on_c, 5, 65, 127
1, 246130, Note_on_c, 6, 66, 127
1, 246161, Note_off_c, 2, 62, 127
1, 246178, Note_off_c, 5, 65, 127
1, 246208, Note_on_c, 8, 68, 127
1, 246210, Note_off_c, 6, 66, 127
1, 246275, Note_off_c, 12, 59, 127
1, 246283, Note_on_c, 6, 66, 127
1, 246287, Note_off_c, 8, 68, 127
1, 246359, Note_on_c, 5, 65, 127
1, 246362, Note_off_c, 6, 66, 127
1, 246434, Note_on_c, 0, 60, 127
1, 246438, Note_off_c, 5, 65, 127
1, 246506, Note_on_c, 3, 63, 127
1, 246582, Note_on_c, 6, 66, 127
1, 246657, Note_on_c, 7, 67, 127
1, 246704, Note_off_c, 3, 63, 127
1, 246721, Note_off_c, 6, 66, 127
1, 246734, Note_on_c, 10, 69, 127
1, 246736, Note_off_c, 7, 67, 127
1, 246808, Note_on_c, 7, 67, 127
1, 246841, Note_off_c, 0, 60, 127
1, 246845, Note_off_c, 10, 69, 127
1, 246884, Note_on_c, 6, 66, 127
1, 246887, Note_off_c, 7, 67, 127
1, 246957, Note_on_c, 1, 61, 127
1, 246963, Note_off_c, 6, 66, 127
1, 247029, Note_on_c, 4, 64, 127
1, 247104, Note_on_c, 7, 67, 127
1, 247179, Note_on_c, 10, 69, 127
1, 247243, Note_off_c, 4, 64, 127
1, 247254, Note_on_c, 11, 70, 127
1, 247258, Note_off_c, 10, 69, 127
1, 247258, Note_off_c, 7, 67, 127
1, 247328, Note_on_c, 10, 69, 127
1, 247402, Note_off_c, 11, 70, 127
1, 247402, Note_off_c, 1, 61, 127
1, 247402, Note_on_c, 7, 67, 127
1, 247408, Note_off_c, 10, 69, 127
1, 247477, Note_on_c, 2, 62, 127
1, 247482, Note_off_c, 7, 67, 127
1, 247547, Note_on_c, 5, 65, 127
1, 247623, Note_on_c, 8, 68, 127
1, 247695, Note_on_c, 10, 69, 127
1, 247771, Note_on_c, 12, 71, 127
1, 247774, Note_off_c, 10, 69, 127
1, 247774, Note_off_c, 5, 65, 127
1, 247792, Note_off_c, 8, 68, 127
1, 247843, Note_on_c, 10, 69, 127
1, 247847, Note_off_c, 2, 62, 127
1, 247917, Note_on_c, 8, 68, 127
1, 247922, Note_off_c, 10, 69, 127
1, 247955, Note_off_c, 12, 71, 127
1, 247989, Note_on_c, 3, 63, 127
1, 247996, Note_off_c, 8, 68, 127
1, 248064, Note_on_c, 6, 66, 127
1, 248143, Note_on_c, 10, 69, 127
1, 248149, Note_off_c, 3, 63, 127
1, 248219, Note_on_c, 12, 71, 127
1, 248223, Note_off_c, 6, 66, 127
1, 248296, Note_on_c, 0, 72, 127
1, 248302, Note_off_c, 10, 69, 127
1, 248305, Note_off_c, 12, 71, 127
1, 248553, Note_off_c, 0, 72, 127
1, 248583, Note_on_c, 12, 71, 127
1, 248675, Note_on_c, 10, 69, 127
1, 248689, Note_off_c, 12, 71, 127
1, 248800, Note_on_c, 4, 64, 127
1, 248800, Note_on_c, 7, 67, 127
1, 248806, Note_off_c, 10, 69, 127
1, 249304, Note_off_c, 7, 67, 127
1, 249304, Note_off_c, 4, 64, 127
1, 249452, Note_on_c, 4, 76, 127
1, 249452, Note_on_c, 11, 58, 127
1, 249561, Note_on_c, 12, 59, 127
1, 249561, Note_on_c, 6, 66, 127
1, 249580, Note_off_c, 11, 58, 127
1, 249580, Note_off_c, 4, 76, 127
1, 250153, Note_off_c, 6, 66, 127
1, 250153, Note_off_c, 12, 59, 127
1, 250233, Note_on_c, 3, 75, 127
1, 250233, Note_on_c, 12, 71, 127
1, 250233, Note_on_c, 12, 47, 127
1, 250233, Note_on_c, 10, 69, 127
1, 250373, Note_off_c, 10, 69, 127
1, 250373, Note_off_c, 12, 47, 127
1, 250373, Note_off_c, 12, 71, 127
1, 250373, Note_off_c, 3, 75, 127
1, 250375, Note_on_c, 3, 75, 127
1, 250375, Note_on_c, 10, 69, 127
1, 250375, Note_on_c, 12, 71, 127
1, 250375, Note_on_c, 4, 64, 127
1, 250375, Note_on_c, 12, 59, 127
1, 250375, Note_on_c, 4, 52, 127
1, 251156, Note_off_c, 12, 71, 127
1, 251156, Note_off_c, 10, 69, 127
1, 251156, Note_off_c, 3, 75, 127
1, 251189, Note_on_c, 4, 76, 127
1, 251189, Note_on_c, 8, 68, 127
1, 252764, Note_off_c, 8, 68, 127
1, 252816, Note_off_c, 4, 76, 127
1, 252842, Note_off_c, 12, 59, 127
1, 253049, Note_off_c, 4, 64, 127
1, 253374, Note_off_c, 4, 52, 127
1, 253671, Note_on_c, 7, 79, 127
1, 253849, Note_off_c, 7, 79, 127
1, 253917, Note_on_c, 12, 71, 127
1, 253917, Note_on_c, 4, 76, 127
1, 253917, Note_on_c, 7, 79, 127
1, 253917, Note_on_c, 4, 52, 127
1, 254382, Note_on_c, 6, 54, 127
1, 254587, Note_off_c, 7, 79, 127
1, 254587, Note_off_c, 4, 76, 127
1, 254587, Note_off_c, 12, 71, 127
1, 254614, Note_on_c, 6, 78, 127
1, 254689, Note_off_c, 6, 78, 127
1, 254692, Note_on_c, 4, 76, 127
1, 254767, Note_off_c, 4, 76, 127
1, 254770, Note_on_c, 3, 75, 127
1, 254845, Note_off_c, 3, 75, 127
1, 254845, Note_off_c, 6, 54, 127
1, 254847, Note_on_c, 4, 76, 127
1, 254847, Note_on_c, 7, 55, 127
1, 255310, Note_off_c, 7, 55, 127
1, 255313, Note_on_c, 8, 56, 127
1, 255517, Note_off_c, 4, 76, 127
1, 255545, Note_on_c, 2, 74, 127
1, 255620, Note_off_c, 2, 74, 127
1, 255622, Note_on_c, 0, 72, 127
1, 255697, Note_off_c, 0, 72, 127
1, 255700, Note_on_c, 12, 71, 127
1, 255775, Note_off_c, 12, 71, 127
1, 255776, Note_off_c, 8, 56, 127
1, 255778, Note_on_c, 0, 72, 127
1, 255778, Note_on_c, 10, 57, 127
1, 256241, Note_off_c, 10, 57, 127
1, 256243, Note_on_c, 12, 59, 127
1, 256448, Note_off_c, 0, 72, 127
1, 256475, Note_on_c, 12, 71, 127
1, 256550, Note_off_c, 12, 71, 127
1, 256553, Note_on_c, 10, 69, 127
1, 256628, Note_off_c, 10, 69, 127
1, 256630, Note_on_c, 8, 68, 127
1, 256705, Note_off_c, 8, 68, 127
1, 256706, Note_off_c, 12, 59, 127
1, 256708, Note_on_c, 10, 69, 127
1, 256708, Note_on_c, 0, 60, 127
1, 257093, Note_off_c, 10, 69, 127
1, 257095, Note_on_c, 0, 72, 127
1, 257170, Note_off_c, 0, 72, 127
1, 257171, Note_off_c, 0, 60, 127
1, 257173, Note_on_c, 6, 66, 127
1, 257173, Note_on_c, 10, 57, 127
1, 257558, Note_off_c, 6, 66, 127
1, 257561, Note_on_c, 10, 69, 127
1, 257623, Note_off_c, 4, 52, 127
1, 257636, Note_off_c, 10, 69, 127
1, 257636, Note_off_c, 10, 57, 127
1, 257638, Note_on_c, 3, 63, 127
1, 257638, Note_on_c, 6, 54, 127
1, 258103, Note_on_c, 4, 52, 127
1, 258308, Note_off_c, 3, 63, 127
1, 258336, Note_on_c, 0, 72, 127
1, 258411, Note_off_c, 0, 72, 127
1, 258413, Note_on_c, 12, 71, 127
1, 258488, Note_off_c, 12, 71, 127
1, 258491, Note_on_c, 10, 69, 127
1, 258566, Note_off_c, 10, 69, 127
1, 258566, Note_off_c, 4, 52, 127
1, 258569, Note_on_c, 6, 78, 127
1, 258569, Note_on_c, 3, 51, 127
1, 258954, Note_off_c, 6, 78, 127
1, 258956, Note_on_c, 10, 69, 127
1, 259031, Note_off_c, 10, 69, 127
1, 259032, Note_off_c, 3, 51, 127
1, 259034, Note_on_c, 12, 71, 127
1, 259034, Note_on_c, 12, 47, 127
1, 259419, Note_off_c, 12, 71, 127
1, 259421, Note_on_c, 6, 66, 127
1, 259496, Note_off_c, 6, 66, 127
1, 259496, Note_off_c, 6, 54, 127
1, 259497, Note_off_c, 12, 47, 127
1, 259499, Note_on_c, 6, 66, 127
1, 259499, Note_on_c, 4, 52, 127
1, 259499, Note_on_c, 4, 40, 127
1, 259717, Note_off_c, 6, 66, 127
1, 259732, Note_on_c, 7, 67, 127
1, 259950, Note_off_c, 7, 67, 127
1, 259965, Note_on_c, 6, 66, 127
1, 260171, Note_off_c, 4, 40, 127
1, 260171, Note_off_c, 4, 52, 127
1, 260194, Note_off_c, 6, 66, 127
1, 260197, Note_on_c, 4, 64, 127
1, 260197, Note_on_c, 12, 47, 127
1, 260272, Note_off_c, 12, 47, 127
1, 260275, Note_on_c, 1, 49, 127
1, 260350, Note_off_c, 1, 49, 127
1, 260353, Note_on_c, 2, 50, 127
1, 260428, Note_off_c, 2, 50, 127
1, 260428, Note_off_c, 4, 64, 127
1, 260430, Note_on_c, 4, 64, 127
1, 260430, Note_on_c, 4, 52, 127
1, 260436, Note_on_c, 7, 67, 127
1, 260441, Note_on_c, 12, 71, 127
1, 261102, Note_off_c, 4, 52, 127
1, 261129, Note_on_c, 2, 50, 127
1, 261204, Note_off_c, 2, 50, 127
1, 261205, Note_off_c, 4, 64, 127
1, 261206, Note_on_c, 1, 49, 127
1, 261211, Note_off_c, 7, 67, 127
1, 261216, Note_off_c, 12, 71, 127
1, 261281, Note_off_c, 1, 49, 127
1, 261284, Note_on_c, 12, 71, 127
1, 261284, Note_on_c, 12, 47, 127
1, 261356, Note_off_c, 12, 71, 127
1, 261358, Note_off_c, 12, 47, 127
1, 261361, Note_on_c, 12, 71, 127
1, 261361, Note_on_c, 0, 48, 127
1, 261366, Note_on_c, 4, 52, 127
1, 261371, Note_on_c, 7, 55, 127
1, 261747, Note_off_c, 12, 71, 127
1, 261749, Note_on_c, 6, 66, 127
1, 261824, Note_off_c, 6, 66, 127
1, 261827, Note_on_c, 7, 67, 127
1, 262033, Note_off_c, 0, 48, 127
1, 262038, Note_off_c, 4, 52, 127
1, 262043, Note_off_c, 7, 55, 127
1, 262060, Note_on_c, 4, 52, 127
1, 262135, Note_off_c, 4, 52, 127
1, 262138, Note_on_c, 6, 54, 127
1, 262213, Note_off_c, 6, 54, 127
1, 262213, Note_off_c, 7, 67, 127
1, 262215, Note_on_c, 4, 64, 127
1, 262215, Note_on_c, 7, 55, 127
1, 262290, Note_off_c, 7, 55, 127
1, 262290, Note_off_c, 4, 64, 127
1, 262293, Note_on_c, 0, 72, 127
1, 262293, Note_on_c, 4, 64, 127
1, 262293, Note_on_c, 10, 69, 127
1, 262293, Note_on_c, 10, 57, 127
1, 262678, Note_off_c, 10, 57, 127
1, 262680, Note_on_c, 0, 60, 127
1, 262755, Note_off_c, 0, 60, 127
1, 262758, Note_on_c, 4, 52, 127
1, 263119, Note_off_c, 10, 69, 127
1, 263119, Note_off_c, 4, 64, 127
1, 263119, Note_off_c, 0, 72, 127
1, 263143, Note_off_c, 4, 52, 127
1, 263146, Note_on_c, 0, 72, 127
1, 263146, Note_on_c, 7, 55, 127
1, 263221, Note_off_c, 7, 55, 127
1, 263221, Note_off_c, 0, 72, 127
1, 263223, Note_on_c, 0, 72, 127
1, 263223, Note_on_c, 10, 57, 127
1, 263223, Note_on_c, 2, 62, 127
1, 263223, Note_on_c, 6, 54, 127
1, 263608, Note_off_c, 0, 72, 127
1, 263611, Note_on_c, 7, 67, 127
1, 263686, Note_off_c, 7, 67, 127
1, 263688, Note_on_c, 10, 69, 127
1, 263893, Note_off_c, 6, 54, 127
1, 263893, Note_off_c, 10, 57, 127
1, 263918, Note_off_c, 2, 62, 127
1, 263920, Note_on_c, 4, 52, 127
1, 263995, Note_off_c, 4, 52, 127
1, 263998, Note_on_c, 2, 50, 127
1, 264073, Note_off_c, 2, 50, 127
1, 264073, Note_off_c, 10, 69, 127
1, 264076, Note_on_c, 6, 66, 127
1, 264076, Note_on_c, 0, 48, 127
1, 264151, Note_off_c, 0, 48, 127
1, 264151, Note_off_c, 6, 66, 127
1, 264154, Note_on_c, 2, 74, 127
1, 264154, Note_on_c, 6, 66, 127
1, 264154, Note_on_c, 12, 71, 127
1, 264154, Note_on_c, 12, 47, 127
1, 264539, Note_off_c, 12, 47, 127
1, 264541, Note_on_c, 6, 42, 127
1, 264616, Note_off_c, 6, 42, 127
1, 264619, Note_on_c, 2, 50, 127
1, 264926, Note_off_c, 12, 71, 127
1, 264926, Note_off_c, 6, 66, 127
1, 264926, Note_off_c, 2, 74, 127
1, 265004, Note_off_c, 2, 50, 127
1, 265006, Note_on_c, 2, 74, 127
1, 265006, Note_on_c, 12, 47, 127
1, 265081, Note_off_c, 12, 47, 127
1, 265081, Note_off_c, 2, 74, 127
1, 265084, Note_on_c, 4, 64, 127
1, 265084, Note_on_c, 12, 71, 127
1, 265084, Note_on_c, 2, 74, 127
1, 265084, Note_on_c, 12, 59, 127
1, 265084, Note_on_c, 8, 56, 127
1, 265754, Note_off_c, 2, 74, 127
1, 265754, Note_off_c, 12, 71, 127
1, 265754, Note_off_c, 4, 64, 127
1, 265781, Note_on_c, 5, 77, 127
1, 265856, Note_off_c, 5, 77, 127
1, 265859, Note_on_c, 4, 76, 127
1, 265934, Note_off_c, 4, 76, 127
1, 265936, Note_on_c, 2, 74, 127
1, 266011, Note_off_c, 2, 74, 127
1, 266014, Note_on_c, 12, 83, 127
1, 266399, Note_off_c, 12, 83, 127
1, 266402, Note_on_c, 2, 74, 127
1, 266477, Note_off_c, 2, 74, 127
1, 266479, Note_on_c, 4, 76, 127
1, 266683, Note_off_c, 8, 56, 127
1, 266683, Note_off_c, 12, 59, 127
1, 266712, Note_on_c, 4, 52, 127
1, 266787, Note_off_c, 4, 52, 127
1, 266790, Note_on_c, 6, 54, 127
1, 266865, Note_off_c, 6, 54, 127
1, 266865, Note_off_c, 4, 76, 127
1, 266868, Note_on_c, 12, 71, 127
1, 266868, Note_on_c, 8, 56, 127
1, 266943, Note_off_c, 8, 56, 127
1, 266943, Note_off_c, 12, 71, 127
1, 266946, Note_on_c, 12, 71, 127
1, 266946, Note_on_c, 10, 57, 127
1, 267175, Note_off_c, 10, 57, 127
1, 267175, Note_off_c, 12, 71, 127
1, 267178, Note_on_c, 0, 72, 127
1, 267178, Note_on_c, 12, 59, 127
1, 267291, Note_off_c, 12, 59, 127
1, 267293, Note_on_c, 0, 60, 127
1, 267406, Note_off_c, 0, 60, 127
1, 267406, Note_off_c, 0, 72, 127
1, 267409, Note_on_c, 12, 71, 127
1, 267409, Note_on_c, 2, 62, 127
1, 267522, Note_off_c, 2, 62, 127
1, 267524, Note_on_c, 4, 64, 127
1, 267637, Note_off_c, 4, 64, 127
1, 267637, Note_off_c, 12, 71, 127
1, 267640, Note_on_c, 10, 69, 127
1, 267640, Note_on_c, 6, 66, 127
1, 267753, Note_off_c, 6, 66, 127
1, 267755, Note_on_c, 8, 68, 127
1, 267868, Note_off_c, 8, 68, 127
1, 267868, Note_off_c, 10, 69, 127
1, 267871, Note_on_c, 4, 76, 127
1, 267871, Note_on_c, 10, 69, 127
1, 268256, Note_off_c, 10, 69, 127
1, 268258, Note_on_c, 6, 66, 127
1, 268333, Note_off_c, 6, 66, 127
1, 268336, Note_on_c, 7, 67, 127
1, 268566, Note_off_c, 4, 76, 127
1, 268568, Note_on_c, 4, 76, 127
1, 268643, Note_off_c, 4, 76, 127
1, 268645, Note_on_c, 2, 74, 127
1, 268720, Note_off_c, 2, 74, 127
1, 268721, Note_off_c, 7, 67, 127
1, 268723, Note_on_c, 4, 76, 127
1, 268723, Note_on_c, 4, 64, 127
1, 268798, Note_off_c, 4, 64, 127
1, 268798, Note_off_c, 4, 76, 127
1, 268801, Note_on_c, 4, 76, 127
1, 268801, Note_on_c, 6, 66, 127
1, 269030, Note_off_c, 4, 76, 127
1, 269033, Note_on_c, 3, 75, 127
1, 269146, Note_off_c, 3, 75, 127
1, 269148, Note_on_c, 1, 73, 127
1, 269261, Note_off_c, 1, 73, 127
1, 269264, Note_on_c, 3, 75, 127
1, 269377, Note_off_c, 3, 75, 127
1, 269377, Note_off_c, 6, 66, 127
1, 269379, Note_on_c, 4, 76, 127
1, 269379, Note_on_c, 7, 67, 127
1, 269492, Note_off_c, 7, 67, 127
1, 269492, Note_off_c, 4, 76, 127
1, 269495, Note_on_c, 6, 78, 127
1, 269495, Note_on_c, 6, 66, 127
1, 269608, Note_off_c, 6, 66, 127
1, 269608, Note_off_c, 6, 78, 127
1, 269610, Note_on_c, 7, 79, 127
1, 269610, Note_on_c, 4, 64, 127
1, 269723, Note_off_c, 4, 64, 127
1, 269723, Note_off_c, 7, 79, 127
1, 269726, Note_on_c, 10, 81, 127
1, 269726, Note_on_c, 3, 63, 127
1, 270111, Note_off_c, 10, 81, 127
1, 270113, Note_on_c, 0, 72, 127
1, 270188, Note_off_c, 0, 72, 127
1, 270191, Note_on_c, 12, 71, 127
1, 270421, Note_off_c, 3, 63, 127
1, 270423, Note_on_c, 12, 59, 127
1, 270498, Note_off_c, 12, 59, 127
1, 270501, Note_on_c, 1, 61, 127
1, 270576, Note_off_c, 1, 61, 127
1, 270576, Note_off_c, 12, 71, 127
1, 270579, Note_on_c, 10, 81, 127
1, 270579, Note_on_c, 3, 63, 127
1, 270654, Note_off_c, 3, 63, 127
1, 270654, Note_off_c, 10, 81, 127
1, 270656, Note_on_c, 7, 79, 127
1, 270656, Note_on_c, 4, 64, 127
1, 271031, Note_off_c, 7, 79, 127
1, 271045, Note_on_c, 12, 71, 127
1, 271120, Note_off_c, 12, 71, 127
1, 271120, Note_off_c, 4, 64, 127
1, 271122, Note_on_c, 11, 70, 127
1, 271122, Note_on_c, 1, 61, 127
1, 271497, Note_off_c, 11, 70, 127
1, 271511, Note_on_c, 4, 76, 127
1, 271586, Note_off_c, 4, 76, 127
1, 271586, Note_off_c, 1, 61, 127
1, 271589, Note_on_c, 6, 78, 127
1, 271589, Note_on_c, 2, 62, 127
1, 271964, Note_off_c, 6, 78, 127
1, 271977, Note_on_c, 10, 69, 127
1, 272052, Note_off_c, 10, 69, 127
1, 272053, Note_off_c, 2, 62, 127
1, 272055, Note_on_c, 8, 68, 127
1, 272055, Note_on_c, 12, 59, 127
1, 272430, Note_off_c, 8, 68, 127
1, 272443, Note_on_c, 2, 74, 127
1, 272518, Note_off_c, 2, 74, 127
1, 272519, Note_off_c, 12, 59, 127
1, 272521, Note_on_c, 4, 76, 127
1, 272521, Note_on_c, 1, 61, 127
1, 272896, Note_off_c, 4, 76, 127
1, 272910, Note_on_c, 7, 67, 127
1, 272985, Note_off_c, 7, 67, 127
1, 272985, Note_off_c, 1, 61, 127
1, 272987, Note_on_c, 6, 66, 127
1, 272987, Note_on_c, 11, 58, 127
1, 273362, Note_off_c, 6, 66, 127
1, 273376, Note_on_c, 1, 73, 127
1, 273451, Note_off_c, 1, 73, 127
1, 273451, Note_off_c, 11, 58, 127
1, 273453, Note_on_c, 2, 74, 127
1, 273453, Note_on_c, 12, 59, 127
1, 273828, Note_off_c, 2, 74, 127
1, 273842, Note_on_c, 11, 70, 127
1, 273917, Note_off_c, 11, 70, 127
1, 273920, Note_on_c, 12, 71, 127
1, 274125, Note_off_c, 12, 59, 127
1, 274152, Note_on_c, 12, 47, 127
1, 274227, Note_off_c, 12, 47, 127
1, 274229, Note_on_c, 1, 49, 127
1, 274294, Note_off_c, 12, 71, 127
1, 274303, Note_off_c, 1, 49, 127
1, 274306, Note_on_c, 6, 66, 127
1, 274306, Note_on_c, 2, 50, 127
1, 274381, Note_off_c, 2, 50, 127
1, 274381, Note_off_c, 6, 66, 127
1, 274384, Note_on_c, 7, 67, 127
1, 274384, Note_on_c, 4, 52, 127
1, 274759, Note_off_c, 7, 67, 127
1, 274772, Note_on_c, 3, 63, 127
1, 274847, Note_off_c, 3, 63, 127
1, 274850, Note_on_c, 4, 64, 127
1, 275056, Note_off_c, 4, 52, 127
1, 275082, Note_on_c, 2, 50, 127
1, 275157, Note_off_c, 2, 50, 127
1, 275160, Note_on_c, 4, 52, 127
1, 275224, Note_off_c, 4, 64, 127
1, 275234, Note_off_c, 4, 52, 127
1, 275236, Note_on_c, 7, 67, 127
1, 275236, Note_on_c, 6, 54, 127
1, 275311, Note_off_c, 6, 54, 127
1, 275311, Note_off_c, 7, 67, 127
1, 275314, Note_on_c, 1, 73, 127
1, 275314, Note_on_c, 7, 55, 127
1, 275689, Note_off_c, 1, 73, 127
1, 275703, Note_on_c, 11, 70, 127
1, 275778, Note_off_c, 11, 70, 127
1, 275780, Note_on_c, 4, 76, 127
1, 275986, Note_off_c, 7, 55, 127
1, 276012, Note_on_c, 4, 52, 127
1, 276087, Note_off_c, 4, 52, 127
1, 276090, Note_on_c, 6, 54, 127
1, 276154, Note_off_c, 4, 76, 127
1, 276164, Note_off_c, 6, 54, 127
1, 276167, Note_on_c, 1, 73, 127
1, 276167, Note_on_c, 7, 55, 127
1, 276242, Note_off_c, 7, 55, 127
1, 276242, Note_off_c, 1, 73, 127
1, 276244, Note_on_c, 7, 79, 127
1, 276244, Note_on_c, 11, 46, 127
1, 276551, Note_off_c, 7, 79, 127
1, 276554, Note_on_c, 6, 78, 127
1, 276629, Note_off_c, 6, 78, 127
1, 276632, Note_on_c, 4, 76, 127
1, 276707, Note_off_c, 4, 76, 127
1, 276707, Note_off_c, 11, 46, 127
1, 276709, Note_on_c, 11, 82, 127
1, 276709, Note_on_c, 6, 42, 127
1, 277016, Note_off_c, 11, 82, 127
1, 277019, Note_on_c, 8, 80, 127
1, 277094, Note_off_c, 8, 80, 127
1, 277097, Note_on_c, 6, 78, 127
1, 277172, Note_off_c, 6, 78, 127
1, 277172, Note_off_c, 6, 42, 127
1, 277175, Note_on_c, 12, 83, 127
1, 277175, Note_on_c, 2, 50, 127
1, 277404, Note_off_c, 12, 83, 127
1, 277407, Note_on_c, 10, 81, 127
1, 277520, Note_off_c, 10, 81, 127
1, 277522, Note_on_c, 7, 79, 127
1, 277635, Note_off_c, 7, 79, 127
1, 277635, Note_off_c, 2, 50, 127
1, 277638, Note_on_c, 6, 78, 127
1, 277638, Note_on_c, 12, 47, 127
1, 277751, Note_off_c, 6, 78, 127
1, 277753, Note_on_c, 4, 76, 127
1, 277866, Note_off_c, 4, 76, 127
1, 277869, Note_on_c, 2, 74, 127
1, 277982, Note_off_c, 2, 74, 127
1, 277984, Note_on_c, 1, 73, 127
1, 278097, Note_off_c, 1, 73, 127
1, 278097, Note_off_c, 12, 47, 127
1, 278100, Note_on_c, 2, 74, 127
1, 278100, Note_on_c, 6, 54, 127
1, 278213, Note_off_c, 2, 74, 127
1, 278215, Note_on_c, 1, 73, 127
1, 278328, Note_off_c, 1, 73, 127
1, 278331, Note_on_c, 12, 71, 127
1, 278444, Note_off_c, 12, 71, 127
1, 278446, Note_on_c, 11, 70, 127
1, 278559, Note_off_c, 11, 70, 127
1, 278562, Note_on_c, 12, 71, 127
1, 278562, Note_on_c, 2, 62, 127
1, 278937, Note_off_c, 12, 71, 127
1, 278950, Note_on_c, 5, 65, 127
1, 279025, Note_off_c, 5, 65, 127
1, 279026, Note_off_c, 2, 62, 127
1, 279028, Note_on_c, 6, 66, 127
1, 279028, Note_on_c, 1, 61, 127
1, 279403, Note_off_c, 6, 66, 127
1, 279416, Note_on_c, 12, 71, 127
1, 279491, Note_off_c, 12, 71, 127
1, 279492, Note_off_c, 1, 61, 127
1, 279494, Note_on_c, 1, 73, 127
1, 279494, Note_on_c, 4, 64, 127
1, 279869, Note_off_c, 1, 73, 127
1, 279883, Note_on_c, 11, 70, 127
1, 279958, Note_off_c, 11, 70, 127
1, 279958, Note_off_c, 4, 64, 127
1, 279958, Note_off_c, 6, 54, 127
1, 279960, Note_on_c, 11, 70, 127
1, 279960, Note_on_c, 4, 64, 127
1, 279960, Note_on_c, 12, 47, 127
1, 280423, Note_off_c, 4, 64, 127
1, 280423, Note_off_c, 11, 70, 127
1, 280425, Note_on_c, 12, 71, 127
1, 280425, Note_on_c, 3, 63, 127
1, 280732, Note_off_c, 12, 47, 127
1, 280735, Note_on_c, 3, 51, 127
1, 280810, Note_off_c, 3, 51, 127
1, 280813, Note_on_c, 6, 54, 127
1, 280884, Note_off_c, 3, 63, 127
1, 280887, Note_off_c, 6, 54, 127
1, 280890, Note_on_c, 12, 59, 127
1, 281199, Note_on_c, 3, 63, 127
1, 281274, Note_off_c, 3, 63, 127
1, 281277, Note_on_c, 6, 66, 127
1, 281344, Note_off_c, 12, 71, 127
1, 281350, Note_off_c, 12, 59, 127
1, 281352, Note_off_c, 6, 66, 127
1, 281355, Note_on_c, 12, 71, 127
1, 281664, Note_on_c, 3, 75, 127
1, 281739, Note_off_c, 3, 75, 127
1, 281742, Note_on_c, 6, 78, 127
1, 281814, Note_off_c, 12, 71, 127
1, 281816, Note_off_c, 6, 78, 127
1, 281819, Note_on_c, 12, 83, 127
1, 282129, Note_on_c, 6, 78, 127
1, 282204, Note_off_c, 6, 78, 127
1, 282206, Note_on_c, 3, 75, 127
1, 282281, Note_off_c, 3, 75, 127
1, 282284, Note_on_c, 12, 71, 127
1, 282594, Note_on_c, 6, 66, 127
1, 282669, Note_off_c, 6, 66, 127
1, 282671, Note_on_c, 3, 63, 127
1, 282739, Note_off_c, 12, 83, 127
1, 282744, Note_off_c, 12, 71, 127
1, 282746, Note_off_c, 3, 63, 127
1, 282749, Note_on_c, 12, 59, 127
1, 283447, Note_off_c, 12, 59, 127
1, 283603, Note_on_c, 6, 78, 127
1, 283678, Note_off_c, 6, 78, 127
1, 283680, Note_on_c, 12, 71, 127
1, 283680, Note_on_c, 3, 75, 127
1, 283680, Note_on_c, 6, 78, 127
1, 283680, Note_on_c, 12, 47, 127
1, 284143, Note_off_c, 12, 47, 127
1, 284146, Note_on_c, 12, 59, 127
1, 284350, Note_off_c, 6, 78, 127
1, 284350, Note_off_c, 3, 75, 127
1, 284350, Note_off_c, 12, 71, 127
1, 284378, Note_on_c, 4, 76, 127
1, 284453, Note_off_c, 4, 76, 127
1, 284455, Note_on_c, 3, 75, 127
1, 284530, Note_off_c, 3, 75, 127
1, 284533, Note_on_c, 1, 73, 127
1, 284608, Note_off_c, 1, 73, 127
1, 284609, Note_off_c, 12, 59, 127
1, 284611, Note_on_c, 3, 75, 127
1, 284611, Note_on_c, 6, 54, 127
1, 285074, Note_off_c, 6, 54, 127
1, 285076, Note_on_c, 10, 57, 127
1, 285281, Note_off_c, 3, 75, 127
1, 285308, Note_on_c, 0, 72, 127
1, 285383, Note_off_c, 0, 72, 127
1, 285386, Note_on_c, 12, 71, 127
1, 285461, Note_off_c, 12, 71, 127
1, 285463, Note_on_c, 10, 69, 127
1, 285538, Note_off_c, 10, 69, 127
1, 285539, Note_off_c, 10, 57, 127
1, 285541, Note_on_c, 12, 71, 127
1, 285541, Note_on_c, 3, 51, 127
1, 285926, Note_off_c, 12, 71, 127
1, 285928, Note_on_c, 6, 66, 127
1, 286003, Note_off_c, 6, 66, 127
1, 286004, Note_off_c, 3, 51, 127
1, 286006, Note_on_c, 10, 69, 127
1, 286006, Note_on_c, 6, 54, 127
1, 286391, Note_off_c, 10, 69, 127
1, 286394, Note_on_c, 0, 72, 127
1, 286469, Note_off_c, 0, 72, 127
1, 286469, Note_off_c, 6, 54, 127
1, 286471, Note_on_c, 4, 76, 127
1, 286471, Note_on_c, 12, 47, 127
1, 286584, Note_off_c, 4, 76, 127
1, 286587, Note_on_c, 3, 75, 127
1, 286700, Note_off_c, 3, 75, 127
1, 286702, Note_on_c, 1, 73, 127
1, 286815, Note_off_c, 1, 73, 127
1, 286818, Note_on_c, 12, 71, 127
1, 286930, Note_off_c, 12, 47, 127
1, 286931, Note_off_c, 12, 71, 127
1, 286933, Note_on_c, 10, 81, 127
1, 286933, Note_on_c, 3, 51, 127
1, 287318, Note_off_c, 10, 81, 127
1, 287321, Note_on_c, 6, 78, 127
1, 287396, Note_off_c, 6, 78, 127
1, 287396, Note_off_c, 3, 51, 127
1, 287398, Note_on_c, 7, 79, 127
1, 287398, Note_on_c, 4, 40, 127
1, 287515, Note_on_c, 4, 76, 127
1, 287628, Note_off_c, 4, 76, 127
1, 287631, Note_on_c, 2, 74, 127
1, 287744, Note_off_c, 2, 74, 127
1, 287746, Note_on_c, 0, 72, 127
1, 287856, Note_off_c, 4, 40, 127
1, 287859, Note_off_c, 0, 72, 127
1, 287862, Note_on_c, 12, 71, 127
1, 287975, Note_off_c, 12, 71, 127
1, 287977, Note_on_c, 10, 69, 127
1, 288090, Note_off_c, 10, 69, 127
1, 288093, Note_on_c, 7, 67, 127
1, 288206, Note_off_c, 7, 67, 127
1, 288208, Note_on_c, 6, 66, 127
1, 288321, Note_off_c, 6, 66, 127
1, 288324, Note_on_c, 4, 64, 127
1, 288436, Note_off_c, 7, 79, 127
1, 288437, Note_off_c, 4, 64, 127
1, 288439, Note_on_c, 12, 83, 127
1, 288439, Note_on_c, 7, 67, 127
1, 288552, Note_off_c, 7, 67, 127
1, 288552, Note_off_c, 12, 83, 127
1, 288555, Note_on_c, 10, 81, 127
1, 288555, Note_on_c, 6, 66, 127
1, 288668, Note_off_c, 6, 66, 127
1, 288668, Note_off_c, 10, 81, 127
1, 288670, Note_on_c, 7, 79, 127
1, 288670, Note_on_c, 4, 64, 127
1, 288783, Note_off_c, 4, 64, 127
1, 288783, Note_off_c, 7, 79, 127
1, 288786, Note_on_c, 6, 78, 127
1, 288786, Note_on_c, 2, 62, 127
1, 288899, Note_off_c, 2, 62, 127
1, 288899, Note_off_c, 6, 78, 127
1, 288901, Note_on_c, 4, 76, 127
1, 288901, Note_on_c, 0, 60, 127
1, 289014, Note_off_c, 0, 60, 127
1, 289014, Note_off_c, 4, 76, 127
1, 289017, Note_on_c, 2, 74, 127
1, 289017, Note_on_c, 12, 59, 127
1, 289130, Note_off_c, 12, 59, 127
1, 289130, Note_off_c, 2, 74, 127
1, 289132, Note_on_c, 0, 72, 127
1, 289132, Note_on_c, 10, 57, 127
1, 289245, Note_off_c, 10, 57, 127
1, 289245, Note_off_c, 0, 72, 127
1, 289248, Note_on_c, 2, 74, 127
1, 289248, Note_on_c, 8, 56, 127
1, 289361, Note_off_c, 2, 74, 127
1, 289363, Note_on_c, 5, 77, 127
1, 289476, Note_off_c, 5, 77, 127
1, 289479, Note_on_c, 4, 76, 127
1, 289592, Note_off_c, 4, 76, 127
1, 289594, Note_on_c, 2, 74, 127
1, 289707, Note_off_c, 2, 74, 127
1, 289710, Note_on_c, 12, 83, 127
1, 289915, Note_off_c, 8, 56, 127
1, 289942, Note_on_c, 5, 53, 127
1, 290017, Note_off_c, 5, 53, 127
1, 290019, Note_on_c, 4, 52, 127
1, 290088, Note_off_c, 12, 83, 127
1, 290094, Note_off_c, 4, 52, 127
1, 290097, Note_on_c, 0, 84, 127
1, 290097, Note_on_c, 2, 50, 127
1, 290172, Note_off_c, 2, 50, 127
1, 290172, Note_off_c, 0, 84, 127
1, 290175, Note_on_c, 10, 81, 127
1, 290175, Note_on_c, 12, 59, 127
1, 290250, Note_off_c, 10, 81, 127
1, 290252, Note_on_c, 8, 80, 127
1, 290327, Note_off_c, 8, 80, 127
1, 290330, Note_on_c, 10, 81, 127
1, 290405, Note_off_c, 10, 81, 127
1, 290408, Note_on_c, 8, 80, 127
1, 290483, Note_off_c, 8, 80, 127
1, 290485, Note_on_c, 10, 81, 127
1, 290560, Note_off_c, 10, 81, 127
1, 290561, Note_off_c, 12, 59, 127
1, 290563, Note_on_c, 8, 80, 127
1, 290563, Note_on_c, 2, 50, 127
1, 290638, Note_off_c, 2, 50, 127
1, 290638, Note_off_c, 8, 80, 127
1, 290641, Note_on_c, 10, 81, 127
1, 290641, Note_on_c, 4, 52, 127
1, 290716, Note_off_c, 10, 81, 127
1, 290719, Note_on_c, 8, 80, 127
1, 290794, Note_off_c, 8, 80, 127
1, 290796, Note_on_c, 10, 81, 127
1, 290871, Note_off_c, 10, 81, 127
1, 290874, Note_on_c, 8, 80, 127
1, 290949, Note_off_c, 8, 80, 127
1, 290952, Note_on_c, 6, 78, 127
1, 291027, Note_off_c, 6, 78, 127
1, 291027, Note_off_c, 4, 52, 127
1, 291029, Note_on_c, 8, 80, 127
1, 291029, Note_on_c, 12, 47, 127
1, 291104, Note_off_c, 12, 47, 127
1, 291104, Note_off_c, 8, 80, 127
1, 291107, Note_on_c, 10, 81, 127
1, 291107, Note_on_c, 0, 48, 127
1, 291414, Note_off_c, 10, 81, 127
1, 291417, Note_on_c, 10, 69, 127
1, 291492, Note_off_c, 10, 69, 127
1, 291495, Note_on_c, 12, 71, 127
1, 291570, Note_off_c, 12, 71, 127
1, 291572, Note_on_c, 0, 72, 127
1, 291647, Note_off_c, 0, 72, 127
1, 291650, Note_on_c, 12, 71, 127
1, 291725, Note_off_c, 12, 71, 127
1, 291728, Note_on_c, 0, 72, 127
1, 291777, Note_off_c, 0, 48, 127
1, 291802, Note_off_c, 0, 72, 127
1, 291804, Note_on_c, 12, 71, 127
1, 291804, Note_on_c, 4, 52, 127
1, 291879, Note_off_c, 4, 52, 127
1, 291879, Note_off_c, 12, 71, 127
1, 291882, Note_on_c, 10, 69, 127
1, 291882, Note_on_c, 6, 54, 127
1, 291957, Note_off_c, 6, 54, 127
1, 291957, Note_off_c, 10, 69, 127
1, 291960, Note_on_c, 12, 71, 127
1, 291960, Note_on_c, 8, 56, 127
1, 292035, Note_off_c, 8, 56, 127
1, 292035, Note_off_c, 12, 71, 127
1, 292037, Note_on_c, 0, 72, 127
1, 292037, Note_on_c, 10, 57, 127
1, 292266, Note_off_c, 0, 72, 127
1, 292269, Note_on_c, 12, 71, 127
1, 292382, Note_off_c, 12, 71, 127
1, 292385, Note_on_c, 10, 69, 127
1, 292498, Note_off_c, 10, 69, 127
1, 292500, Note_on_c, 12, 71, 127
1, 292613, Note_off_c, 12, 71, 127
1, 292616, Note_on_c, 0, 72, 127
1, 292704, Note_off_c, 10, 57, 127
1, 292729, Note_off_c, 0, 72, 127
1, 292731, Note_on_c, 2, 74, 127
1, 292731, Note_on_c, 7, 55, 127
1, 292806, Note_off_c, 7, 55, 127
1, 292809, Note_on_c, 5, 53, 127
1, 292845, Note_off_c, 2, 74, 127
1, 292848, Note_on_c, 4, 76, 127
1, 292884, Note_off_c, 5, 53, 127
1, 292887, Note_on_c, 4, 52, 127
1, 292962, Note_off_c, 4, 52, 127
1, 292962, Note_off_c, 4, 76, 127
1, 292965, Note_on_c, 5, 77, 127
1, 292965, Note_on_c, 2, 50, 127
1, 293340, Note_off_c, 5, 77, 127
1, 293353, Note_on_c, 10, 69, 127
1, 293428, Note_off_c, 10, 69, 127
1, 293429, Note_off_c, 2, 50, 127
1, 293431, Note_on_c, 8, 68, 127
1, 293431, Note_on_c, 12, 59, 127
1, 293806, Note_off_c, 8, 68, 127
1, 293819, Note_on_c, 2, 74, 127
1, 293894, Note_off_c, 2, 74, 127
1, 293895, Note_off_c, 12, 59, 127
1, 293897, Note_on_c, 4, 76, 127
1, 293897, Note_on_c, 1, 49, 127
1, 294272, Note_off_c, 4, 76, 127
1, 294285, Note_on_c, 7, 67, 127
1, 294360, Note_off_c, 7, 67, 127
1, 294361, Note_off_c, 1, 49, 127
1, 294363, Note_on_c, 6, 66, 127
1, 294363, Note_on_c, 10, 57, 127
1, 294738, Note_off_c, 6, 66, 127
1, 294752, Note_on_c, 1, 73, 127
1, 294827, Note_off_c, 1, 73, 127
1, 294827, Note_off_c, 10, 57, 127
1, 294829, Note_on_c, 2, 74, 127
1, 294829, Note_on_c, 12, 47, 127
1, 295204, Note_off_c, 2, 74, 127
1, 295218, Note_on_c, 5, 65, 127
1, 295293, Note_off_c, 5, 65, 127
1, 295293, Note_off_c, 12, 47, 127
1, 295296, Note_on_c, 4, 64, 127
1, 295296, Note_on_c, 8, 56, 127
1, 295671, Note_off_c, 4, 64, 127
1, 295684, Note_on_c, 12, 71, 127
1, 295759, Note_off_c, 12, 71, 127
1, 295760, Note_off_c, 8, 56, 127
1, 295762, Note_on_c, 0, 72, 127
1, 295762, Note_on_c, 10, 45, 127
1, 296137, Note_off_c, 0, 72, 127
1, 296150, Note_on_c, 4, 64, 127
1, 296225, Note_off_c, 4, 64, 127
1, 296226, Note_off_c, 10, 45, 127
1, 296228, Note_on_c, 3, 63, 127
1, 296228, Note_on_c, 6, 54, 127
1, 296603, Note_off_c, 3, 63, 127
1, 296616, Note_on_c, 10, 69, 127
1, 296691, Note_off_c, 10, 69, 127
1, 296692, Note_off_c, 6, 54, 127
1, 296694, Note_on_c, 12, 71, 127
1, 296694, Note_on_c, 7, 55, 127
1, 297069, Note_off_c, 12, 71, 127
1, 297083, Note_on_c, 2, 62, 127
1, 297158, Note_off_c, 2, 62, 127
1, 297158, Note_off_c, 7, 55, 127
1, 297160, Note_on_c, 1, 61, 127
1, 297160, Note_on_c, 10, 57, 127
1, 297535, Note_off_c, 1, 61, 127
1, 297549, Note_on_c, 8, 68, 127
1, 297624, Note_off_c, 8, 68, 127
1, 297624, Note_off_c, 10, 57, 127
1, 297627, Note_on_c, 10, 69, 127
1, 297627, Note_on_c, 5, 53, 127
1, 298002, Note_off_c, 10, 69, 127
1, 298015, Note_on_c, 0, 60, 127
1, 298090, Note_off_c, 0, 60, 127
1, 298091, Note_off_c, 5, 53, 127
1, 298093, Note_on_c, 12, 59, 127
1, 298093, Note_on_c, 2, 50, 127
1, 298468, Note_off_c, 12, 59, 127
1, 298481, Note_on_c, 6, 66, 127
1, 298556, Note_off_c, 6, 66, 127
1, 298557, Note_off_c, 2, 50, 127
1, 298559, Note_on_c, 10, 69, 127
1, 298559, Note_on_c, 4, 52, 127
1, 298788, Note_off_c, 10, 69, 127
1, 298791, Note_on_c, 8, 68, 127
1, 299020, Note_off_c, 8, 68, 127
1, 299023, Note_on_c, 6, 66, 127
1, 299252, Note_off_c, 6, 66, 127
1, 299255, Note_on_c, 4, 64, 127
1, 299484, Note_off_c, 4, 64, 127
1, 299487, Note_on_c, 2, 74, 127
1, 299562, Note_off_c, 2, 74, 127
1, 299565, Note_on_c, 0, 72, 127
1, 299640, Note_off_c, 0, 72, 127
1, 299643, Note_on_c, 2, 74, 127
1, 299761, Note_off_c, 4, 52, 127
1, 299798, Note_on_c, 8, 56, 127
1, 299873, Note_off_c, 8, 56, 127
1, 299876, Note_on_c, 12, 59, 127
1, 299951, Note_off_c, 12, 59, 127
1, 299953, Note_on_c, 4, 64, 127
1, 300260, Note_off_c, 4, 64, 127
1, 300261, Note_off_c, 2, 74, 127
1, 300263, Note_on_c, 4, 76, 127
1, 300263, Note_on_c, 6, 66, 127
1, 300338, Note_off_c, 6, 66, 127
1, 300341, Note_on_c, 8, 68, 127
1, 300416, Note_off_c, 8, 68, 127
1, 300416, Note_off_c, 4, 76, 127
1, 300418, Note_on_c, 0, 72, 127
1, 300418, Note_on_c, 10, 69, 127
1, 300647, Note_off_c, 0, 72, 127
1, 300651, Note_on_c, 5, 77, 127
1, 300726, Note_off_c, 5, 77, 127
1, 300728, Note_on_c, 4, 76, 127
1, 300803, Note_off_c, 4, 76, 127
1, 300803, Note_off_c, 10, 69, 127
1, 300806, Note_on_c, 2, 74, 127
1, 300806, Note_on_c, 7, 67, 127
1, 300881, Note_off_c, 7, 67, 127
1, 300881, Note_off_c, 2, 74, 127
1, 300884, Note_on_c, 8, 80, 127
1, 300884, Note_on_c, 5, 65, 127
1, 301269, Note_off_c, 5, 65, 127
1, 301269, Note_off_c, 8, 80, 127
1, 301271, Note_on_c, 10, 81, 127
1, 301271, Note_on_c, 2, 62, 127
1, 301346, Note_off_c, 2, 62, 127
1, 301346, Note_off_c, 10, 81, 127
1, 301349, Note_on_c, 0, 72, 127
1, 301349, Note_on_c, 8, 68, 127
1, 301349, Note_on_c, 4, 64, 127
1, 301424, Note_off_c, 0, 72, 127
1, 301426, Note_on_c, 12, 71, 127
1, 301501, Note_off_c, 12, 71, 127
1, 301504, Note_on_c, 0, 72, 127
1, 301579, Note_off_c, 0, 72, 127
1, 301582, Note_on_c, 12, 71, 127
1, 301657, Note_off_c, 12, 71, 127
1, 301660, Note_on_c, 0, 72, 127
1, 301735, Note_off_c, 0, 72, 127
1, 301737, Note_on_c, 12, 71, 127
1, 301813, Note_off_c, 4, 64, 127
1, 301813, Note_off_c, 8, 68, 127
1, 301815, Note_on_c, 4, 52, 127
1, 302200, Note_off_c, 12, 71, 127
1, 302202, Note_on_c, 10, 69, 127
1, 302277, Note_off_c, 10, 69, 127
1, 302278, Note_off_c, 4, 52, 127
1, 302280, Note_on_c, 10, 69, 127
1, 302280, Note_on_c, 10, 57, 127
1, 302665, Note_off_c, 10, 57, 127
1, 302668, Note_on_c, 4, 52, 127
1, 302743, Note_off_c, 4, 52, 127
1, 302745, Note_on_c, 0, 48, 127
1, 302975, Note_off_c, 10, 69, 127
1, 302977, Note_on_c, 12, 71, 127
1, 303052, Note_off_c, 12, 71, 127
1, 303055, Note_on_c, 10, 69, 127
1, 303130, Note_off_c, 10, 69, 127
1, 303130, Note_off_c, 0, 48, 127
1, 303133, Note_on_c, 8, 68, 127
1, 303133, Note_on_c, 4, 52, 127
1, 303208, Note_off_c, 4, 52, 127
1, 303208, Note_off_c, 8, 68, 127
1, 303210, Note_on_c, 10, 69, 127
1, 303210, Note_on_c, 10, 45, 127
1, 303323, Note_off_c, 10, 69, 127
1, 303326, Note_on_c, 12, 71, 127
1, 303439, Note_off_c, 12, 71, 127
1, 303441, Note_on_c, 0, 72, 127
1, 303554, Note_off_c, 0, 72, 127
1, 303557, Note_on_c, 2, 74, 127
1, 303670, Note_off_c, 2, 74, 127
1, 303672, Note_on_c, 4, 76, 127
1, 303785, Note_off_c, 4, 76, 127
1, 303788, Note_on_c, 5, 77, 127
1, 303859, Note_off_c, 10, 45, 127
1, 303901, Note_off_c, 5, 77, 127
1, 303903, Note_on_c, 7, 79, 127
1, 303903, Note_on_c, 10, 57, 127
1, 303978, Note_off_c, 10, 57, 127
1, 303981, Note_on_c, 12, 59, 127
1, 304017, Note_off_c, 7, 79, 127
1, 304020, Note_on_c, 4, 76, 127
1, 304056, Note_off_c, 12, 59, 127
1, 304059, Note_on_c, 0, 60, 127
1, 304134, Note_off_c, 0, 60, 127
1, 304134, Note_off_c, 4, 76, 127
1, 304137, Note_on_c, 5, 77, 127
1, 304137, Note_on_c, 2, 62, 127
1, 304444, Note_off_c, 2, 62, 127
1, 304446, Note_on_c, 5, 65, 127
1, 304521, Note_off_c, 5, 65, 127
1, 304524, Note_on_c, 2, 62, 127
1, 304599, Note_off_c, 2, 62, 127
1, 304600, Note_off_c, 5, 77, 127
1, 304602, Note_on_c, 4, 76, 127
1, 304602, Note_on_c, 10, 57, 127
1, 304831, Note_off_c, 4, 76, 127
1, 304834, Note_on_c, 2, 74, 127
1, 304909, Note_off_c, 10, 57, 127
1, 304911, Note_on_c, 0, 60, 127
1, 304986, Note_off_c, 0, 60, 127
1, 304989, Note_on_c, 10, 57, 127
1, 305064, Note_off_c, 10, 57, 127
1, 305065, Note_off_c, 2, 74, 127
1, 305067, Note_on_c, 10, 81, 127
1, 305067, Note_on_c, 5, 53, 127
1, 305142, Note_off_c, 10, 81, 127
1, 305145, Note_on_c, 7, 79, 127
1, 305220, Note_off_c, 7, 79, 127
1, 305222, Note_on_c, 10, 81, 127
1, 305374, Note_off_c, 5, 53, 127
1, 305377, Note_on_c, 10, 57, 127
1, 305452, Note_off_c, 10, 57, 127
1, 305454, Note_on_c, 6, 54, 127
1, 305529, Note_off_c, 6, 54, 127
1, 305532, Note_on_c, 3, 51, 127
1, 305761, Note_off_c, 10, 81, 127
1, 305764, Note_on_c, 10, 81, 127
1, 305839, Note_off_c, 3, 51, 127
1, 305842, Note_on_c, 6, 54, 127
1, 305917, Note_off_c, 6, 54, 127
1, 305919, Note_on_c, 3, 51, 127
1, 305994, Note_off_c, 3, 51, 127
1, 305995, Note_off_c, 10, 81, 127
1, 305997, Note_on_c, 3, 75, 127
1, 305997, Note_on_c, 10, 45, 127
1, 306304, Note_off_c, 10, 45, 127
1, 306307, Note_on_c, 0, 48, 127
1, 306382, Note_off_c, 0, 48, 127
1, 306385, Note_on_c, 10, 45, 127
1, 306460, Note_off_c, 10, 45, 127
1, 306462, Note_on_c, 6, 42, 127
1, 306667, Note_off_c, 3, 75, 127
1, 306694, Note_on_c, 4, 76, 127
1, 306769, Note_off_c, 4, 76, 127
1, 306769, Note_off_c, 6, 42, 127
1, 306772, Note_on_c, 6, 78, 127
1, 306772, Note_on_c, 10, 45, 127
1, 306847, Note_off_c, 10, 45, 127
1, 306847, Note_off_c, 6, 78, 127
1, 306850, Note_on_c, 7, 79, 127
1, 306850, Note_on_c, 6, 42, 127
1, 306925, Note_off_c, 6, 42, 127
1, 306925, Note_off_c, 7, 79, 127
1, 306927, Note_on_c, 10, 81, 127
1, 306927, Note_on_c, 3, 39, 127
1, 307040, Note_off_c, 10, 81, 127
1, 307043, Note_on_c, 0, 84, 127
1, 307156, Note_off_c, 0, 84, 127
1, 307158, Note_on_c, 12, 83, 127
1, 307271, Note_off_c, 12, 83, 127
1, 307274, Note_on_c, 10, 81, 127
1, 307387, Note_off_c, 10, 81, 127
1, 307389, Note_on_c, 12, 83, 127
1, 307553, Note_off_c, 3, 39, 127
1, 307623, Note_on_c, 12, 47, 127
1, 307698, Note_off_c, 12, 47, 127
1, 307700, Note_on_c, 1, 49, 127
1, 307775, Note_off_c, 1, 49, 127
1, 307775, Note_off_c, 12, 83, 127
1, 307778, Note_on_c, 6, 78, 127
1, 307778, Note_on_c, 3, 51, 127
1, 307853, Note_off_c, 3, 51, 127
1, 307853, Note_off_c, 6, 78, 127
1, 307856, Note_on_c, 7, 79, 127
1, 307856, Note_on_c, 4, 52, 127
1, 308163, Note_off_c, 7, 79, 127
1, 308165, Note_on_c, 12, 83, 127
1, 308240, Note_off_c, 12, 83, 127
1, 308243, Note_on_c, 7, 79, 127
1, 308318, Note_off_c, 7, 79, 127
1, 308321, Note_on_c, 4, 76, 127
1, 308526, Note_off_c, 4, 52, 127
1, 308553, Note_on_c, 2, 50, 127
1, 308628, Note_off_c, 2, 50, 127
1, 308628, Note_off_c, 4, 76, 127
1, 308631, Note_on_c, 7, 79, 127
1, 308631, Note_on_c, 0, 48, 127
1, 308706, Note_off_c, 0, 48, 127
1, 308706, Note_off_c, 7, 79, 127
1, 308708, Note_on_c, 4, 76, 127
1, 308708, Note_on_c, 12, 47, 127
1, 308783, Note_off_c, 12, 47, 127
1, 308783, Note_off_c, 4, 76, 127
1, 308786, Note_on_c, 0, 72, 127
1, 308786, Note_on_c, 10, 45, 127
1, 309093, Note_off_c, 0, 72, 127
1, 309096, Note_on_c, 4, 76, 127
1, 309171, Note_off_c, 4, 76, 127
1, 309173, Note_on_c, 0, 72, 127
1, 309248, Note_off_c, 0, 72, 127
1, 309251, Note_on_c, 10, 69, 127
1, 309456, Note_off_c, 10, 45, 127
1, 309483, Note_on_c, 10, 57, 127
1, 309558, Note_off_c, 10, 57, 127
1, 309558, Note_off_c, 10, 69, 127
1, 309561, Note_on_c, 0, 72, 127
1, 309561, Note_on_c, 12, 59, 127
1, 309636, Note_off_c, 12, 59, 127
1, 309636, Note_off_c, 0, 72, 127
1, 309639, Note_on_c, 4, 76, 127
1, 309639, Note_on_c, 0, 60, 127
1, 309714, Note_off_c, 0, 60, 127
1, 309714, Note_off_c, 4, 76, 127
1, 309716, Note_on_c, 6, 78, 127
1, 309716, Note_on_c, 2, 62, 127
1, 310023, Note_off_c, 6, 78, 127
1, 310026, Note_on_c, 10, 81, 127
1, 310101, Note_off_c, 10, 81, 127
1, 310104, Note_on_c, 6, 78, 127
1, 310179, Note_off_c, 6, 78, 127
1, 310181, Note_on_c, 2, 74, 127
1, 310386, Note_off_c, 2, 62, 127
1, 310413, Note_on_c, 0, 60, 127
1, 310488, Note_off_c, 0, 60, 127
1, 310488, Note_off_c, 2, 74, 127
1, 310491, Note_on_c, 6, 78, 127
1, 310491, Note_on_c, 12, 59, 127
1, 310566, Note_off_c, 12, 59, 127
1, 310566, Note_off_c, 6, 78, 127
1, 310569, Note_on_c, 2, 74, 127
1, 310569, Note_on_c, 10, 57, 127
1, 310644, Note_off_c, 10, 57, 127
1, 310644, Note_off_c, 2, 74, 127
1, 310647, Note_on_c, 12, 71, 127
1, 310647, Note_on_c, 7, 55, 127
1, 310954, Note_off_c, 12, 71, 127
1, 310956, Note_on_c, 2, 74, 127
1, 311031, Note_off_c, 2, 74, 127
1, 311034, Note_on_c, 12, 71, 127
1, 311109, Note_off_c, 12, 71, 127
1, 311112, Note_on_c, 7, 67, 127
1, 311317, Note_off_c, 7, 55, 127
1, 311344, Note_on_c, 7, 43, 127
1, 311419, Note_off_c, 7, 43, 127
1, 311419, Note_off_c, 7, 67, 127
1, 311421, Note_on_c, 12, 71, 127
1, 311421, Note_on_c, 10, 45, 127
1, 311496, Note_off_c, 10, 45, 127
1, 311496, Note_off_c, 12, 71, 127
1, 311499, Note_on_c, 2, 74, 127
1, 311499, Note_on_c, 12, 47, 127
1, 311574, Note_off_c, 12, 47, 127
1, 311574, Note_off_c, 2, 74, 127
1, 311577, Note_on_c, 4, 76, 127
1, 311577, Note_on_c, 0, 48, 127
1, 311884, Note_off_c, 4, 76, 127
1, 311887, Note_on_c, 7, 79, 127
1, 311962, Note_off_c, 7, 79, 127
1, 311964, Note_on_c, 4, 76, 127
1, 312039, Note_off_c, 4, 76, 127
1, 312042, Note_on_c, 0, 72, 127
1, 312247, Note_off_c, 0, 48, 127
1, 312274, Note_on_c, 12, 47, 127
1, 312349, Note_off_c, 12, 47, 127
1, 312349, Note_off_c, 0, 72, 127
1, 312352, Note_on_c, 4, 76, 127
1, 312352, Note_on_c, 10, 45, 127
1, 312427, Note_off_c, 10, 45, 127
1, 312427, Note_off_c, 4, 76, 127
1, 312429, Note_on_c, 0, 72, 127
1, 312429, Note_on_c, 7, 43, 127
1, 312504, Note_off_c, 7, 43, 127
1, 312504, Note_off_c, 0, 72, 127
1, 312507, Note_on_c, 10, 69, 127
1, 312507, Note_on_c, 6, 42, 127
1, 312814, Note_off_c, 10, 69, 127
1, 312817, Note_on_c, 0, 72, 127
1, 312892, Note_off_c, 0, 72, 127
1, 312895, Note_on_c, 10, 69, 127
1, 312970, Note_off_c, 10, 69, 127
1, 312972, Note_on_c, 6, 66, 127
1, 313177, Note_off_c, 6, 42, 127
1, 313204, Note_on_c, 6, 54, 127
1, 313279, Note_off_c, 6, 54, 127
1, 313279, Note_off_c, 6, 66, 127
1, 313282, Note_on_c, 10, 69, 127
1, 313282, Note_on_c, 7, 55, 127
1, 313357, Note_off_c, 7, 55, 127
1, 313357, Note_off_c, 10, 69, 127
1, 313360, Note_on_c, 0, 72, 127
1, 313360, Note_on_c, 10, 57, 127
1, 313435, Note_off_c, 10, 57, 127
1, 313435, Note_off_c, 0, 72, 127
1, 313437, Note_on_c, 3, 63, 127
1, 313437, Note_on_c, 12, 59, 127
1, 313744, Note_off_c, 3, 63, 127
1, 313747, Note_on_c, 6, 66, 127
1, 313822, Note_off_c, 6, 66, 127
1, 313825, Note_on_c, 10, 69, 127
1, 313900, Note_off_c, 10, 69, 127
1, 313903, Note_on_c, 0, 72, 127
1, 314210, Note_off_c, 0, 72, 127
1, 314212, Note_on_c, 12, 71, 127
1, 314287, Note_off_c, 12, 71, 127
1, 314290, Note_on_c, 10, 69, 127
1, 314365, Note_off_c, 10, 69, 127
1, 314368, Note_on_c, 6, 78, 127
1, 314674, Note_off_c, 12, 59, 127
1, 314677, Note_on_c, 10, 57, 127
1, 314752, Note_off_c, 10, 57, 127
1, 314755, Note_on_c, 7, 55, 127
1, 314830, Note_off_c, 7, 55, 127
1, 314833, Note_on_c, 10, 57, 127
1, 315140, Note_off_c, 10, 57, 127
1, 315140, Note_off_c, 6, 78, 127
1, 315143, Note_on_c, 6, 78, 127
1, 315143, Note_on_c, 7, 55, 127
1, 315218, Note_off_c, 7, 55, 127
1, 315220, Note_on_c, 6, 54, 127
1, 315295, Note_off_c, 6, 54, 127
1, 315296, Note_off_c, 6, 78, 127
1, 315298, Note_on_c, 6, 78, 127
1, 315298, Note_on_c, 7, 55, 127
1, 315605, Note_off_c, 7, 55, 127
1, 315605, Note_off_c, 6, 78, 127
1, 315608, Note_on_c, 12, 71, 127
1, 315608, Note_on_c, 6, 54, 127
1, 315683, Note_off_c, 6, 54, 127
1, 315683, Note_off_c, 12, 71, 127
1, 315685, Note_on_c, 1, 73, 127
1, 315685, Note_on_c, 4, 52, 127
1, 315760, Note_off_c, 4, 52, 127
1, 315760, Note_off_c, 1, 73, 127
1, 315763, Note_on_c, 3, 75, 127
1, 315763, Note_on_c, 6, 54, 127
1, 316070, Note_off_c, 6, 54, 127
1, 316070, Note_off_c, 3, 75, 127
1, 316073, Note_on_c, 1, 73, 127
1, 316073, Note_on_c, 4, 52, 127
1, 316148, Note_off_c, 4, 52, 127
1, 316148, Note_off_c, 1, 73, 127
1, 316151, Note_on_c, 12, 71, 127
1, 316151, Note_on_c, 3, 51, 127
1, 316226, Note_off_c, 3, 51, 127
1, 316226, Note_off_c, 12, 71, 127
1, 316228, Note_on_c, 7, 79, 127
1, 316228, Note_on_c, 4, 52, 127
1, 316535, Note_off_c, 4, 52, 127
1, 316538, Note_on_c, 7, 55, 127
1, 316613, Note_off_c, 7, 55, 127
1, 316613, Note_off_c, 7, 79, 127
1, 316616, Note_on_c, 4, 76, 127
1, 316616, Note_on_c, 12, 59, 127
1, 316691, Note_off_c, 12, 59, 127
1, 316691, Note_off_c, 4, 76, 127
1, 316693, Note_on_c, 4, 76, 127
1, 316693, Note_on_c, 0, 60, 127
1, 316768, Note_off_c, 4, 76, 127
1, 316771, Note_on_c, 3, 75, 127
1, 316846, Note_off_c, 3, 75, 127
1, 316849, Note_on_c, 4, 76, 127
1, 316924, Note_off_c, 4, 76, 127
1, 316927, Note_on_c, 3, 75, 127
1, 317079, Note_off_c, 3, 75, 127
1, 317081, Note_on_c, 4, 76, 127
1, 317156, Note_off_c, 4, 76, 127
1, 317159, Note_on_c, 10, 69, 127
1, 317466, Note_off_c, 10, 69, 127
1, 317467, Note_off_c, 0, 60, 127
1, 317468, Note_on_c, 3, 75, 127
1, 317543, Note_off_c, 3, 75, 127
1, 317546, Note_on_c, 4, 76, 127
1, 317546, Note_on_c, 12, 59, 127
1, 317621, Note_off_c, 12, 59, 127
1, 317621, Note_off_c, 4, 76, 127
1, 317624, Note_on_c, 6, 78, 127
1, 317624, Note_on_c, 10, 57, 127
1, 317931, Note_off_c, 6, 78, 127
1, 317934, Note_on_c, 4, 76, 127
1, 318009, Note_off_c, 4, 76, 127
1, 318009, Note_off_c, 10, 57, 127
1, 318011, Note_on_c, 3, 75, 127
1, 318011, Note_on_c, 0, 60, 127
1, 318086, Note_off_c, 0, 60, 127
1, 318086, Note_off_c, 3, 75, 127
1, 318089, Note_on_c, 10, 81, 127
1, 318089, Note_on_c, 6, 54, 127
1, 318396, Note_off_c, 6, 54, 127
1, 318399, Note_on_c, 10, 57, 127
1, 318474, Note_off_c, 10, 57, 127
1, 318474, Note_off_c, 10, 81, 127
1, 318476, Note_on_c, 4, 76, 127
1, 318476, Note_on_c, 0, 60, 127
1, 318551, Note_off_c, 0, 60, 127
1, 318551, Note_off_c, 4, 76, 127
1, 318554, Note_on_c, 4, 76, 127
1, 318554, Note_on_c, 6, 66, 127
1, 318629, Note_off_c, 4, 76, 127
1, 318632, Note_on_c, 3, 75, 127
1, 318707, Note_off_c, 3, 75, 127
1, 318709, Note_on_c, 4, 76, 127
1, 318784, Note_off_c, 4, 76, 127
1, 318787, Note_on_c, 3, 75, 127
1, 318939, Note_off_c, 3, 75, 127
1, 318942, Note_on_c, 4, 76, 127
1, 319017, Note_off_c, 4, 76, 127
1, 319019, Note_on_c, 12, 71, 127
1, 319326, Note_off_c, 12, 71, 127
1, 319328, Note_off_c, 6, 66, 127
1, 319329, Note_on_c, 4, 76, 127
1, 319404, Note_off_c, 4, 76, 127
1, 319407, Note_on_c, 6, 78, 127
1, 319407, Note_on_c, 4, 64, 127
1, 319482, Note_off_c, 4, 64, 127
1, 319482, Note_off_c, 6, 78, 127
1, 319484, Note_on_c, 7, 79, 127
1, 319484, Note_on_c, 3, 63, 127
1, 319791, Note_off_c, 7, 79, 127
1, 319794, Note_on_c, 6, 78, 127
1, 319869, Note_off_c, 6, 78, 127
1, 319869, Note_off_c, 3, 63, 127
1, 319872, Note_on_c, 4, 76, 127
1, 319872, Note_on_c, 4, 64, 127
1, 319947, Note_off_c, 4, 64, 127
1, 319947, Note_off_c, 4, 76, 127
1, 319950, Note_on_c, 12, 83, 127
1, 319950, Note_on_c, 7, 55, 127
1, 320257, Note_off_c, 7, 55, 127
1, 320259, Note_on_c, 12, 59, 127
1, 320296, Note_off_c, 12, 83, 127
1, 320298, Note_on_c, 10, 81, 127
1, 320334, Note_off_c, 12, 59, 127
1, 320337, Note_on_c, 3, 63, 127
1, 320412, Note_off_c, 3, 63, 127
1, 320412, Note_off_c, 10, 81, 127
1, 320415, Note_on_c, 7, 79, 127
1, 320415, Note_on_c, 4, 64, 127
1, 320528, Note_off_c, 7, 79, 127
1, 320530, Note_on_c, 6, 78, 127
1, 320643, Note_off_c, 6, 78, 127
1, 320646, Note_on_c, 4, 76, 127
1, 320759, Note_off_c, 4, 76, 127
1, 320761, Note_on_c, 2, 74, 127
1, 320874, Note_off_c, 2, 74, 127
1, 320877, Note_on_c, 0, 72, 127
1, 321184, Note_off_c, 0, 72, 127
1, 321186, Note_off_c, 4, 64, 127
1, 321186, Note_on_c, 12, 71, 127
1, 321261, Note_off_c, 12, 71, 127
1, 321264, Note_on_c, 10, 69, 127
1, 321264, Note_on_c, 0, 60, 127
1, 321339, Note_off_c, 0, 60, 127
1, 321339, Note_off_c, 10, 69, 127
1, 321342, Note_on_c, 3, 75, 127
1, 321342, Note_on_c, 10, 57, 127
1, 321649, Note_off_c, 3, 75, 127
1, 321652, Note_on_c, 1, 73, 127
1, 321727, Note_off_c, 1, 73, 127
1, 321727, Note_off_c, 10, 57, 127
1, 321729, Note_on_c, 12, 71, 127
1, 321729, Note_on_c, 6, 54, 127
1, 321804, Note_off_c, 6, 54, 127
1, 321804, Note_off_c, 12, 71, 127
1, 321807, Note_on_c, 6, 78, 127
1, 321807, Note_on_c, 4, 52, 127
1, 321920, Note_off_c, 4, 52, 127
1, 321920, Note_off_c, 6, 78, 127
1, 321922, Note_on_c, 4, 76, 127
1, 321922, Note_on_c, 3, 51, 127
1, 322035, Note_off_c, 3, 51, 127
1, 322035, Note_off_c, 4, 76, 127
1, 322038, Note_on_c, 3, 75, 127
1, 322038, Note_on_c, 4, 52, 127
1, 322151, Note_off_c, 4, 52, 127
1, 322151, Note_off_c, 3, 75, 127
1, 322153, Note_on_c, 1, 73, 127
1, 322153, Note_on_c, 3, 51, 127
1, 322266, Note_off_c, 3, 51, 127
1, 322266, Note_off_c, 1, 73, 127
1, 322269, Note_on_c, 12, 71, 127
1, 322269, Note_on_c, 4, 52, 127
1, 322382, Note_off_c, 4, 52, 127
1, 322382, Note_off_c, 12, 71, 127
1, 322384, Note_on_c, 10, 69, 127
1, 322384, Note_on_c, 3, 51, 127
1, 322497, Note_off_c, 3, 51, 127
1, 322497, Note_off_c, 10, 69, 127
1, 322500, Note_on_c, 7, 67, 127
1, 322500, Note_on_c, 12, 47, 127
1, 322613, Note_off_c, 7, 67, 127
1, 322615, Note_on_c, 6, 66, 127
1, 322728, Note_off_c, 6, 66, 127
1, 322728, Note_off_c, 12, 47, 127
1, 322731, Note_on_c, 7, 67, 127
1, 322731, Note_on_c, 4, 52, 127
1, 322844, Note_off_c, 7, 67, 127
1, 322846, Note_on_c, 6, 66, 127
1, 322959, Note_off_c, 6, 66, 127
1, 322962, Note_on_c, 4, 64, 127
1, 323075, Note_off_c, 4, 64, 127
1, 323077, Note_on_c, 3, 63, 127
1, 323190, Note_off_c, 3, 63, 127
1, 323193, Note_on_c, 4, 64, 127
1, 323193, Note_on_c, 0, 48, 127
1, 323573, Note_off_c, 4, 52, 127
1, 323580, Note_on_c, 11, 58, 127
1, 323580, Note_on_c, 6, 54, 127
1, 323652, Note_off_c, 0, 48, 127
1, 323654, Note_off_c, 6, 54, 127
1, 323654, Note_off_c, 11, 58, 127
1, 323657, Note_on_c, 12, 59, 127
1, 323657, Note_on_c, 7, 55, 127
1, 323657, Note_on_c, 12, 47, 127
1, 323870, Note_off_c, 4, 64, 127
1, 324042, Note_off_c, 12, 59, 127
1, 324045, Note_on_c, 4, 64, 127
1, 324120, Note_off_c, 4, 64, 127
1, 324120, Note_off_c, 7, 55, 127
1, 324122, Note_on_c, 6, 66, 127
1, 324122, Note_on_c, 10, 57, 127
1, 324507, Note_off_c, 6, 66, 127
1, 324510, Note_on_c, 3, 63, 127
1, 324577, Note_off_c, 12, 47, 127
1, 324585, Note_off_c, 3, 63, 127
1, 324585, Note_off_c, 10, 57, 127
1, 324587, Note_on_c, 10, 57, 127
1, 324587, Note_on_c, 3, 63, 127
1, 324587, Note_on_c, 4, 40, 127
1, 325050, Note_off_c, 3, 63, 127
1, 325050, Note_off_c, 10, 57, 127
1, 325053, Note_on_c, 8, 56, 127
1, 325053, Note_on_c, 4, 64, 127
1, 325359, Note_off_c, 4, 40, 127
1, 325362, Note_on_c, 8, 44, 127
1, 325437, Note_off_c, 8, 44, 127
1, 325440, Note_on_c, 12, 47, 127
1, 325512, Note_off_c, 8, 56, 127
1, 325514, Note_off_c, 12, 47, 127
1, 325517, Note_on_c, 4, 52, 127
1, 325826, Note_on_c, 8, 56, 127
1, 325901, Note_off_c, 8, 56, 127
1, 325904, Note_on_c, 12, 59, 127
1, 325972, Note_off_c, 4, 64, 127
1, 325977, Note_off_c, 4, 52, 127
1, 325979, Note_off_c, 12, 59, 127
1, 325982, Note_on_c, 4, 64, 127
1, 326292, Note_on_c, 8, 68, 127
1, 326367, Note_off_c, 8, 68, 127
1, 326369, Note_on_c, 12, 71, 127
1, 326441, Note_off_c, 4, 64, 127
1, 326443, Note_off_c, 12, 71, 127
1, 326446, Note_on_c, 4, 76, 127
1, 326756, Note_on_c, 12, 71, 127
1, 326831, Note_off_c, 12, 71, 127
1, 326833, Note_on_c, 8, 68, 127
1, 326908, Note_off_c, 8, 68, 127
1, 326911, Note_on_c, 4, 64, 127
1, 327184, Note_on_c, 12, 59, 127
1, 327259, Note_off_c, 12, 59, 127
1, 327275, Note_on_c, 8, 56, 127
1, 327350, Note_off_c, 8, 56, 127
1, 327363, Note_on_c, 4, 52, 127
1, 327366, Note_off_c, 4, 76, 127
1, 327371, Note_off_c, 4, 64, 127
1, 329164, Note_on_c, 12, 71, 127
1, 329363, Note_off_c, 4, 52, 127
1, 329370, Note_off_c, 12, 71, 127
1, 329397, Note_on_c, 4, 52, 127
1, 329397, Note_on_c, 12, 71, 127
1, 329580, Note_off_c, 12, 71, 127
1, 329583, Note_on_c, 4, 64, 127
1, 329766, Note_off_c, 4, 52, 127
1, 329769, Note_on_c, 7, 55, 127
1, 329938, Note_off_c, 4, 64, 127
1, 329955, Note_on_c, 3, 63, 127
1, 330138, Note_off_c, 7, 55, 127
1, 330141, Note_on_c, 0, 60, 127
1, 330310, Note_off_c, 3, 63, 127
1, 330326, Note_on_c, 4, 64, 127
1, 330496, Note_off_c, 4, 64, 127
1, 330510, Note_off_c, 0, 60, 127
1, 330512, Note_on_c, 3, 51, 127
1, 330512, Note_on_c, 6, 66, 127
1, 330695, Note_off_c, 6, 66, 127
1, 330698, Note_on_c, 0, 72, 127
1, 330881, Note_off_c, 3, 51, 127
1, 330884, Note_on_c, 6, 54, 127
1, 331053, Note_off_c, 0, 72, 127
1, 331070, Note_on_c, 12, 71, 127
1, 331253, Note_off_c, 6, 54, 127
1, 331256, Note_on_c, 12, 59, 127
1, 331425, Note_off_c, 12, 71, 127
1, 331441, Note_on_c, 10, 69, 127
1, 331625, Note_off_c, 12, 59, 127
1, 331627, Note_on_c, 4, 52, 127
1, 331796, Note_off_c, 10, 69, 127
1, 331813, Note_on_c, 7, 67, 127
1, 331996, Note_off_c, 4, 52, 127
1, 331999, Note_on_c, 10, 57, 127
1, 332168, Note_off_c, 7, 67, 127
1, 332185, Note_on_c, 6, 66, 127
1, 332276, Note_off_c, 6, 66, 127
1, 332278, Note_on_c, 4, 64, 127
1, 332369, Note_off_c, 4, 64, 127
1, 332369, Note_off_c, 10, 57, 127
1, 332372, Note_on_c, 0, 48, 127
1, 332372, Note_on_c, 6, 66, 127
1, 332555, Note_off_c, 6, 66, 127
1, 332558, Note_on_c, 10, 69, 127
1, 332741, Note_off_c, 0, 48, 127
1, 332743, Note_on_c, 12, 47, 127
1, 332927, Note_off_c, 10, 69, 127
1, 332929, Note_on_c, 3, 63, 127
1, 333112, Note_off_c, 3, 63, 127
1, 333112, Note_off_c, 12, 47, 127
1, 333115, Note_on_c, 12, 59, 127
1, 333301, Note_on_c, 12, 71, 127
1, 333392, Note_off_c, 12, 71, 127
1, 333394, Note_on_c, 1, 73, 127
1, 333485, Note_off_c, 1, 73, 127
1, 333485, Note_off_c, 12, 59, 127
1, 333488, Note_on_c, 10, 57, 127
1, 333488, Note_on_c, 3, 75, 127
1, 333579, Note_off_c, 3, 75, 127
1, 333581, Note_on_c, 4, 76, 127
1, 333672, Note_off_c, 4, 76, 127
1, 333675, Note_on_c, 6, 78, 127
1, 333858, Note_off_c, 10, 57, 127
1, 333861, Note_on_c, 7, 55, 127
1, 334030, Note_off_c, 6, 78, 127
1, 334047, Note_on_c, 4, 76, 127
1, 334230, Note_off_c, 7, 55, 127
1, 334232, Note_on_c, 12, 59, 127
1, 334402, Note_off_c, 4, 76, 127
1, 334418, Note_on_c, 7, 79, 127
1, 334601, Note_off_c, 12, 59, 127
1, 334604, Note_on_c, 4, 64, 127
1, 334773, Note_off_c, 7, 79, 127
1, 334790, Note_on_c, 12, 71, 127
1, 334973, Note_off_c, 4, 64, 127
1, 334976, Note_on_c, 10, 57, 127
1, 335159, Note_off_c, 12, 71, 127
1, 335162, Note_on_c, 0, 72, 127
1, 335332, Note_off_c, 0, 72, 127
1, 335345, Note_off_c, 10, 57, 127
1, 335347, Note_on_c, 0, 60, 127
1, 335533, Note_on_c, 10, 69, 127
1, 335624, Note_off_c, 10, 69, 127
1, 335627, Note_on_c, 12, 71, 127
1, 335717, Note_off_c, 0, 60, 127
1, 335718, Note_off_c, 12, 71, 127
1, 335720, Note_on_c, 4, 64, 127
1, 335720, Note_on_c, 0, 72, 127
1, 335811, Note_off_c, 0, 72, 127
1, 335814, Note_on_c, 2, 74, 127
1, 335905, Note_off_c, 2, 74, 127
1, 335907, Note_on_c, 4, 76, 127
1, 336090, Note_off_c, 4, 64, 127
1, 336093, Note_on_c, 6, 54, 127
1, 336262, Note_off_c, 4, 76, 127
1, 336279, Note_on_c, 2, 74, 127
1, 336462, Note_off_c, 6, 54, 127
1, 336465, Note_on_c, 10, 57, 127
1, 336634, Note_off_c, 2, 74, 127
1, 336651, Note_on_c, 10, 81, 127
1, 336834, Note_off_c, 10, 57, 127
1, 336836, Note_on_c, 2, 62, 127
1, 337006, Note_off_c, 10, 81, 127
1, 337022, Note_on_c, 0, 72, 127
1, 337205, Note_off_c, 2, 62, 127
1, 337208, Note_on_c, 7, 55, 127
1, 337391, Note_off_c, 0, 72, 127
1, 337394, Note_on_c, 12, 71, 127
1, 337529, Note_off_c, 12, 71, 127
1, 337577, Note_off_c, 7, 55, 127
1, 337580, Note_on_c, 12, 59, 127
1, 337766, Note_on_c, 4, 76, 127
1, 337857, Note_off_c, 4, 76, 127
1, 337859, Note_on_c, 6, 78, 127
1, 337950, Note_off_c, 6, 78, 127
1, 337950, Note_off_c, 12, 59, 127
1, 337953, Note_on_c, 4, 64, 127
1, 337953, Note_on_c, 7, 79, 127
1, 338136, Note_off_c, 7, 79, 127
1, 338138, Note_on_c, 12, 71, 127
1, 338322, Note_off_c, 4, 64, 127
1, 338324, Note_on_c, 6, 54, 127
1, 338507, Note_off_c, 12, 71, 127
1, 338510, Note_on_c, 10, 69, 127
1, 338680, Note_off_c, 10, 69, 127
1, 338693, Note_off_c, 6, 54, 127
1, 338696, Note_on_c, 10, 57, 127
1, 338882, Note_on_c, 3, 75, 127
1, 338973, Note_off_c, 3, 75, 127
1, 338975, Note_on_c, 4, 76, 127
1, 339066, Note_off_c, 4, 76, 127
1, 339066, Note_off_c, 10, 57, 127
1, 339069, Note_on_c, 3, 63, 127
1, 339069, Note_on_c, 6, 78, 127
1, 339252, Note_off_c, 6, 78, 127
1, 339255, Note_on_c, 10, 69, 127
1, 339438, Note_off_c, 3, 63, 127
1, 339440, Note_on_c, 4, 52, 127
1, 339624, Note_off_c, 10, 69, 127
1, 339626, Note_on_c, 7, 67, 127
1, 339796, Note_off_c, 7, 67, 127
1, 339809, Note_off_c, 4, 52, 127
1, 339812, Note_on_c, 7, 55, 127
1, 339998, Note_on_c, 5, 77, 127
1, 340089, Note_off_c, 5, 77, 127
1, 340091, Note_on_c, 4, 76, 127
1, 340182, Note_off_c, 4, 76, 127
1, 340182, Note_off_c, 7, 55, 127
1, 340185, Note_on_c, 8, 56, 127
1, 340185, Note_on_c, 2, 74, 127
1, 340276, Note_off_c, 2, 74, 127
1, 340278, Note_on_c, 0, 72, 127
1, 340369, Note_off_c, 0, 72, 127
1, 340372, Note_on_c, 12, 71, 127
1, 340555, Note_off_c, 8, 56, 127
1, 340558, Note_on_c, 10, 57, 127
1, 340741, Note_off_c, 12, 71, 127
1, 340743, Note_on_c, 0, 72, 127
1, 340913, Note_off_c, 0, 72, 127
1, 340927, Note_off_c, 10, 57, 127
1, 340929, Note_on_c, 11, 58, 127
1, 341115, Note_on_c, 7, 79, 127
1, 341206, Note_off_c, 7, 79, 127
1, 341209, Note_on_c, 6, 78, 127
1, 341299, Note_off_c, 11, 58, 127
1, 341300, Note_off_c, 6, 78, 127
1, 341302, Note_on_c, 6, 54, 127
1, 341302, Note_on_c, 4, 76, 127
1, 341393, Note_off_c, 4, 76, 127
1, 341395, Note_on_c, 3, 75, 127
1, 341486, Note_off_c, 3, 75, 127
1, 341489, Note_on_c, 1, 73, 127
1, 341672, Note_off_c, 6, 54, 127
1, 341675, Note_on_c, 12, 59, 127
1, 341858, Note_off_c, 1, 73, 127
1, 341861, Note_on_c, 3, 75, 127
1, 342031, Note_off_c, 3, 75, 127
1, 342044, Note_off_c, 12, 59, 127
1, 342046, Note_on_c, 12, 47, 127
1, 342232, Note_on_c, 0, 84, 127
1, 342323, Note_off_c, 0, 84, 127
1, 342326, Note_on_c, 12, 83, 127
1, 342416, Note_off_c, 12, 47, 127
1, 342417, Note_off_c, 12, 83, 127
1, 342419, Note_on_c, 3, 51, 127
1, 342419, Note_on_c, 10, 81, 127
1, 342510, Note_off_c, 10, 81, 127
1, 342513, Note_on_c, 7, 79, 127
1, 342604, Note_off_c, 7, 79, 127
1, 342606, Note_on_c, 6, 78, 127
1, 342789, Note_off_c, 3, 51, 127
1, 342792, Note_on_c, 4, 52, 127
1, 342886, Note_off_c, 6, 78, 127
1, 342978, Note_on_c, 7, 79, 127
1, 343161, Note_off_c, 4, 52, 127
1, 343164, Note_on_c, 6, 54, 127
1, 343268, Note_off_c, 7, 79, 127
1, 343351, Note_on_c, 3, 75, 127
1, 343534, Note_off_c, 6, 54, 127
1, 343536, Note_on_c, 7, 55, 127
1, 343651, Note_off_c, 3, 75, 127
1, 343722, Note_on_c, 4, 76, 127
1, 343905, Note_off_c, 7, 55, 127
1, 343908, Note_on_c, 0, 48, 127
1, 344031, Note_off_c, 4, 76, 127
1, 344094, Note_on_c, 12, 71, 127
1, 344277, Note_off_c, 0, 48, 127
1, 344280, Note_on_c, 2, 50, 127
1, 344413, Note_off_c, 12, 71, 127
1, 344466, Note_on_c, 0, 72, 127
1, 344649, Note_off_c, 2, 50, 127
1, 344652, Note_on_c, 4, 52, 127
1, 344795, Note_off_c, 0, 72, 127
1, 344838, Note_on_c, 8, 68, 127
1, 345022, Note_off_c, 4, 52, 127
1, 345024, Note_on_c, 5, 53, 127
1, 345177, Note_off_c, 8, 68, 127
1, 345210, Note_on_c, 10, 69, 127
1, 345393, Note_off_c, 5, 53, 127
1, 345396, Note_on_c, 7, 55, 127
1, 345558, Note_off_c, 10, 69, 127
1, 345582, Note_on_c, 4, 64, 127
1, 345765, Note_off_c, 7, 55, 127
1, 345768, Note_on_c, 10, 57, 127
1, 345951, Note_off_c, 4, 64, 127
1, 345954, Note_on_c, 5, 65, 127
1, 346137, Note_off_c, 5, 65, 127
1, 346137, Note_off_c, 10, 57, 127
1, 346139, Note_on_c, 3, 51, 127
1, 346139, Note_on_c, 0, 72, 127
1, 346230, Note_off_c, 0, 72, 127
1, 346233, Note_on_c, 12, 71, 127
1, 346324, Note_off_c, 12, 71, 127
1, 346326, Note_on_c, 10, 69, 127
1, 346509, Note_off_c, 3, 51, 127
1, 346512, Note_on_c, 12, 59, 127
1, 346589, Note_off_c, 10, 69, 127
1, 346606, Note_on_c, 7, 67, 127
1, 346697, Note_off_c, 7, 67, 127
1, 346699, Note_on_c, 6, 66, 127
1, 346882, Note_off_c, 12, 59, 127
1, 346885, Note_on_c, 10, 57, 127
1, 346962, Note_off_c, 6, 66, 127
1, 346978, Note_on_c, 4, 76, 127
1, 347069, Note_off_c, 4, 76, 127
1, 347072, Note_on_c, 3, 75, 127
1, 347255, Note_off_c, 10, 57, 127
1, 347258, Note_on_c, 7, 55, 127
1, 347319, Note_off_c, 3, 75, 127
1, 347351, Note_on_c, 4, 76, 127
1, 347442, Note_off_c, 4, 76, 127
1, 347445, Note_on_c, 6, 78, 127
1, 347536, Note_off_c, 6, 78, 127
1, 347538, Note_on_c, 7, 79, 127
1, 347629, Note_off_c, 7, 79, 127
1, 347629, Note_off_c, 7, 55, 127
1, 347631, Note_on_c, 4, 52, 127
1, 347631, Note_on_c, 10, 81, 127
1, 347722, Note_off_c, 10, 81, 127
1, 347725, Note_on_c, 12, 83, 127
1, 347816, Note_off_c, 12, 83, 127
1, 347818, Note_on_c, 0, 84, 127
1, 348001, Note_off_c, 4, 52, 127
1, 348004, Note_on_c, 12, 47, 127
1, 348173, Note_off_c, 0, 84, 127
1, 348190, Note_on_c, 3, 75, 127
1, 348373, Note_off_c, 12, 47, 127
1, 348376, Note_on_c, 4, 52, 127
1, 348559, Note_off_c, 3, 75, 127
1, 348562, Note_on_c, 4, 76, 127
1, 348732, Note_off_c, 4, 76, 127
1, 348745, Note_off_c, 4, 52, 127
1, 348748, Note_on_c, 7, 55, 127
1, 348933, Note_on_c, 4, 64, 127
1, 349117, Note_off_c, 7, 55, 127
1, 349119, Note_on_c, 12, 59, 127
1, 349302, Note_off_c, 4, 64, 127
1, 349305, Note_on_c, 6, 66, 127
1, 349488, Note_off_c, 6, 66, 127
1, 349488, Note_off_c, 12, 59, 127
1, 349491, Note_on_c, 4, 64, 127
1, 349491, Note_on_c, 7, 67, 127
1, 349582, Note_off_c, 7, 67, 127
1, 349584, Note_on_c, 12, 71, 127
1, 349675, Note_off_c, 12, 71, 127
1, 349678, Note_on_c, 4, 76, 127
1, 349861, Note_off_c, 4, 64, 127
1, 349864, Note_on_c, 2, 62, 127
1, 350033, Note_off_c, 4, 76, 127
1, 350050, Note_on_c, 7, 67, 127
1, 350233, Note_off_c, 2, 62, 127
1, 350235, Note_on_c, 1, 61, 127
1, 350405, Note_off_c, 7, 67, 127
1, 350421, Note_on_c, 6, 66, 127
1, 350604, Note_off_c, 1, 61, 127
1, 350607, Note_on_c, 2, 62, 127
1, 350698, Note_off_c, 6, 66, 127
1, 350701, Note_on_c, 4, 64, 127
1, 350792, Note_off_c, 4, 64, 127
1, 350794, Note_on_c, 6, 66, 127
1, 350977, Note_off_c, 2, 62, 127
1, 350980, Note_on_c, 2, 50, 127
1, 351071, Note_off_c, 6, 66, 127
1, 351073, Note_on_c, 7, 67, 127
1, 351164, Note_off_c, 7, 67, 127
1, 351167, Note_on_c, 10, 69, 127
1, 351350, Note_off_c, 2, 50, 127
1, 351353, Note_on_c, 6, 54, 127
1, 351444, Note_off_c, 10, 69, 127
1, 351446, Note_on_c, 12, 71, 127
1, 351537, Note_off_c, 12, 71, 127
1, 351540, Note_on_c, 0, 72, 127
1, 351723, Note_off_c, 6, 54, 127
1, 351725, Note_on_c, 10, 57, 127
1, 351817, Note_off_c, 0, 72, 127
1, 351819, Note_on_c, 4, 76, 127
1, 351910, Note_off_c, 4, 76, 127
1, 351912, Note_on_c, 10, 81, 127
1, 352095, Note_off_c, 10, 57, 127
1, 352098, Note_on_c, 7, 55, 127
1, 352267, Note_off_c, 10, 81, 127
1, 352284, Note_on_c, 0, 72, 127
1, 352467, Note_off_c, 7, 55, 127
1, 352470, Note_on_c, 6, 54, 127
1, 352639, Note_off_c, 0, 72, 127
1, 352656, Note_on_c, 12, 71, 127
1, 352839, Note_off_c, 6, 54, 127
1, 352842, Note_on_c, 7, 55, 127
1, 352933, Note_off_c, 12, 71, 127
1, 352935, Note_on_c, 10, 69, 127
1, 353026, Note_off_c, 10, 69, 127
1, 353028, Note_on_c, 12, 71, 127
1, 353212, Note_off_c, 7, 55, 127
1, 353214, Note_on_c, 7, 43, 127
1, 353305, Note_off_c, 12, 71, 127
1, 353308, Note_on_c, 0, 72, 127
1, 353399, Note_off_c, 0, 72, 127
1, 353401, Note_on_c, 2, 74, 127
1, 353584, Note_off_c, 7, 43, 127
1, 353587, Note_on_c, 12, 47, 127
1, 353678, Note_off_c, 2, 74, 127
1, 353680, Note_on_c, 4, 76, 127
1, 353771, Note_off_c, 4, 76, 127
1, 353774, Note_on_c, 5, 77, 127
1, 353957, Note_off_c, 12, 47, 127
1, 353960, Note_on_c, 2, 50, 127
1, 354051, Note_off_c, 5, 77, 127
1, 354053, Note_on_c, 4, 76, 127
1, 354144, Note_off_c, 4, 76, 127
1, 354147, Note_on_c, 5, 77, 127
1, 354330, Note_off_c, 2, 50, 127
1, 354333, Note_on_c, 0, 48, 127
1, 354476, Note_off_c, 5, 77, 127
1, 354519, Note_on_c, 10, 69, 127
1, 354703, Note_off_c, 0, 48, 127
1, 354705, Note_on_c, 12, 47, 127
1, 354874, Note_off_c, 10, 69, 127
1, 354891, Note_on_c, 7, 67, 127
1, 355061, Note_off_c, 7, 67, 127
1, 355074, Note_off_c, 12, 47, 127
1, 355077, Note_on_c, 0, 48, 127
1, 355077, Note_on_c, 4, 76, 127
1, 355168, Note_off_c, 4, 76, 127
1, 355170, Note_on_c, 2, 74, 127
1, 355261, Note_off_c, 2, 74, 127
1, 355264, Note_on_c, 4, 76, 127
1, 355447, Note_off_c, 0, 48, 127
1, 355450, Note_on_c, 12, 47, 127
1, 355593, Note_off_c, 4, 76, 127
1, 355637, Note_on_c, 7, 67, 127
1, 355820, Note_off_c, 12, 47, 127
1, 355822, Note_on_c, 10, 45, 127
1, 355992, Note_off_c, 7, 67, 127
1, 356008, Note_on_c, 5, 65, 127
1, 356178, Note_off_c, 5, 65, 127
1, 356191, Note_off_c, 10, 45, 127
1, 356194, Note_on_c, 12, 47, 127
1, 356194, Note_on_c, 2, 74, 127
1, 356285, Note_off_c, 2, 74, 127
1, 356288, Note_on_c, 0, 72, 127
1, 356379, Note_off_c, 0, 72, 127
1, 356381, Note_on_c, 2, 74, 127
1, 356564, Note_off_c, 12, 47, 127
1, 356567, Note_on_c, 10, 45, 127
1, 356710, Note_off_c, 2, 74, 127
1, 356754, Note_on_c, 5, 65, 127
1, 356937, Note_off_c, 10, 45, 127
1, 356940, Note_on_c, 7, 43, 127
1, 357109, Note_off_c, 5, 65, 127
1, 357126, Note_on_c, 4, 64, 127
1, 357296, Note_off_c, 4, 64, 127
1, 357309, Note_off_c, 7, 43, 127
1, 357311, Note_on_c, 10, 45, 127
1, 357311, Note_on_c, 0, 72, 127
1, 357402, Note_off_c, 0, 72, 127
1, 357405, Note_on_c, 12, 71, 127
1, 357496, Note_off_c, 12, 71, 127
1, 357498, Note_on_c, 0, 72, 127
1, 357681, Note_off_c, 10, 45, 127
1, 357684, Note_on_c, 7, 43, 127
1, 357827, Note_off_c, 0, 72, 127
1, 357871, Note_on_c, 4, 64, 127
1, 358054, Note_off_c, 7, 43, 127
1, 358057, Note_on_c, 6, 42, 127
1, 358226, Note_off_c, 4, 64, 127
1, 358243, Note_on_c, 2, 62, 127
1, 358413, Note_off_c, 2, 62, 127
1, 358426, Note_off_c, 6, 42, 127
1, 358429, Note_on_c, 7, 43, 127
1, 358429, Note_on_c, 12, 71, 127
1, 358520, Note_off_c, 12, 71, 127
1, 358522, Note_on_c, 10, 69, 127
1, 358613, Note_off_c, 10, 69, 127
1, 358615, Note_on_c, 12, 71, 127
1, 358799, Note_off_c, 7, 43, 127
1, 358801, Note_on_c, 0, 48, 127
1, 358970, Note_off_c, 12, 71, 127
1, 358987, Note_on_c, 4, 76, 127
1, 359170, Note_off_c, 0, 48, 127
1, 359173, Note_on_c, 1, 49, 127
1, 359316, Note_off_c, 4, 76, 127
1, 359360, Note_on_c, 7, 67, 127
1, 359543, Note_off_c, 7, 67, 127
1, 359543, Note_off_c, 1, 49, 127
1, 359546, Note_on_c, 2, 50, 127
1, 359546, Note_on_c, 6, 66, 127
1, 359637, Note_off_c, 6, 66, 127
1, 359639, Note_on_c, 4, 64, 127
1, 359730, Note_off_c, 4, 64, 127
1, 359733, Note_on_c, 2, 62, 127
1, 359916, Note_off_c, 2, 50, 127
1, 359919, Note_on_c, 6, 54, 127
1, 360102, Note_off_c, 2, 62, 127
1, 360104, Note_on_c, 2, 62, 127
1, 360195, Note_off_c, 2, 62, 127
1, 360198, Note_on_c, 4, 64, 127
1, 360289, Note_off_c, 4, 64, 127
1, 360289, Note_off_c, 6, 54, 127
1, 360291, Note_on_c, 10, 57, 127
1, 360291, Note_on_c, 6, 66, 127
1, 360382, Note_off_c, 6, 66, 127
1, 360385, Note_on_c, 7, 67, 127
1, 360476, Note_off_c, 7, 67, 127
1, 360478, Note_on_c, 10, 69, 127
1, 360569, Note_off_c, 10, 69, 127
1, 360572, Note_on_c, 12, 71, 127
1, 360662, Note_off_c, 10, 57, 127
1, 360663, Note_off_c, 12, 71, 127
1, 360665, Note_on_c, 2, 62, 127
1, 360665, Note_on_c, 0, 72, 127
1, 360759, Note_on_c, 10, 81, 127
1, 360850, Note_off_c, 10, 81, 127
1, 360852, Note_on_c, 6, 78, 127
1, 360936, Note_off_c, 0, 72, 127
1, 360943, Note_off_c, 6, 78, 127
1, 360945, Note_on_c, 2, 74, 127
1, 361036, Note_off_c, 2, 74, 127
1, 361036, Note_off_c, 2, 62, 127
1, 361039, Note_on_c, 2, 50, 127
1, 361039, Note_on_c, 0, 72, 127
1, 361132, Note_on_c, 10, 81, 127
1, 361223, Note_off_c, 10, 81, 127
1, 361226, Note_on_c, 6, 78, 127
1, 361310, Note_off_c, 0, 72, 127
1, 361317, Note_off_c, 6, 78, 127
1, 361319, Note_on_c, 2, 74, 127
1, 361410, Note_off_c, 2, 74, 127
1, 361410, Note_off_c, 2, 50, 127
1, 361413, Note_on_c, 2, 62, 127
1, 361413, Note_on_c, 0, 72, 127
1, 361506, Note_on_c, 10, 81, 127
1, 361597, Note_off_c, 10, 81, 127
1, 361600, Note_on_c, 6, 78, 127
1, 361684, Note_off_c, 0, 72, 127
1, 361691, Note_off_c, 6, 78, 127
1, 361693, Note_on_c, 2, 74, 127
1, 361784, Note_off_c, 2, 74, 127
1, 361786, Note_on_c, 12, 71, 127
1, 361880, Note_on_c, 7, 79, 127
1, 361971, Note_off_c, 7, 79, 127
1, 361973, Note_on_c, 2, 74, 127
1, 362057, Note_off_c, 12, 71, 127
1, 362064, Note_off_c, 2, 74, 127
1, 362067, Note_on_c, 12, 71, 127
1, 362158, Note_off_c, 12, 71, 127
1, 362158, Note_off_c, 2, 62, 127
1, 362160, Note_on_c, 2, 50, 127
1, 362160, Note_on_c, 7, 67, 127
1, 362254, Note_on_c, 2, 74, 127
1, 362345, Note_off_c, 2, 74, 127
1, 362347, Note_on_c, 12, 71, 127
1, 362354, Note_off_c, 7, 67, 127
1, 362437, Note_off_c, 12, 71, 127
1, 362440, Note_on_c, 7, 67, 127
1, 362530, Note_off_c, 2, 50, 127
1, 362531, Note_off_c, 7, 67, 127
1, 362533, Note_on_c, 2, 62, 127
1, 362533, Note_on_c, 6, 66, 127
1, 362624, Note_off_c, 6, 66, 127
1, 362626, Note_on_c, 7, 67, 127
1, 362717, Note_off_c, 7, 67, 127
1, 362720, Note_on_c, 10, 69, 127
1, 362811, Note_off_c, 10, 69, 127
1, 362813, Note_on_c, 12, 71, 127
1, 362904, Note_off_c, 12, 71, 127
1, 362907, Note_on_c, 0, 72, 127
1, 362998, Note_off_c, 0, 72, 127
1, 363000, Note_on_c, 10, 81, 127
1, 363091, Note_off_c, 10, 81, 127
1, 363094, Note_on_c, 6, 78, 127
1, 363185, Note_off_c, 6, 78, 127
1, 363187, Note_on_c, 2, 74, 127
1, 363278, Note_off_c, 2, 74, 127
1, 363278, Note_off_c, 2, 62, 127
1, 363281, Note_on_c, 2, 50, 127
1, 363281, Note_on_c, 0, 72, 127
1, 363372, Note_off_c, 0, 72, 127
1, 363374, Note_on_c, 10, 81, 127
1, 363465, Note_off_c, 10, 81, 127
1, 363468, Note_on_c, 6, 78, 127
1, 363559, Note_off_c, 6, 78, 127
1, 363561, Note_on_c, 2, 74, 127
1, 363652, Note_off_c, 2, 74, 127
1, 363652, Note_off_c, 2, 50, 127
1, 363654, Note_on_c, 2, 62, 127
1, 363654, Note_on_c, 0, 72, 127
1, 363745, Note_off_c, 0, 72, 127
1, 363748, Note_on_c, 10, 81, 127
1, 363839, Note_off_c, 10, 81, 127
1, 363841, Note_on_c, 6, 78, 127
1, 363932, Note_off_c, 6, 78, 127
1, 363935, Note_on_c, 2, 74, 127
1, 364026, Note_off_c, 2, 74, 127
1, 364028, Note_on_c, 12, 71, 127
1, 364119, Note_off_c, 12, 71, 127
1, 364122, Note_on_c, 7, 79, 127
1, 364213, Note_off_c, 7, 79, 127
1, 364215, Note_on_c, 2, 74, 127
1, 364306, Note_off_c, 2, 74, 127
1, 364309, Note_on_c, 12, 71, 127
1, 364399, Note_off_c, 2, 62, 127
1, 364400, Note_off_c, 12, 71, 127
1, 364402, Note_on_c, 2, 50, 127
1, 364402, Note_on_c, 7, 67, 127
1, 364493, Note_off_c, 7, 67, 127
1, 364495, Note_on_c, 2, 74, 127
1, 364586, Note_off_c, 2, 74, 127
1, 364589, Note_on_c, 12, 71, 127
1, 364680, Note_off_c, 12, 71, 127
1, 364682, Note_on_c, 7, 67, 127
1, 364773, Note_off_c, 7, 67, 127
1, 364773, Note_off_c, 2, 50, 127
1, 364776, Note_on_c, 2, 62, 127
1, 364776, Note_on_c, 6, 66, 127
1, 364867, Note_off_c, 6, 66, 127
1, 364869, Note_on_c, 7, 67, 127
1, 364960, Note_off_c, 7, 67, 127
1, 364963, Note_on_c, 10, 69, 127
1, 365054, Note_off_c, 10, 69, 127
1, 365056, Note_on_c, 12, 71, 127
1, 365147, Note_off_c, 12, 71, 127
1, 365150, Note_on_c, 1, 73, 127
1, 365243, Note_on_c, 11, 70, 127
1, 365334, Note_off_c, 11, 70, 127
1, 365337, Note_on_c, 10, 69, 127
1, 365428, Note_off_c, 10, 69, 127
1, 365430, Note_on_c, 7, 67, 127
1, 365521, Note_off_c, 7, 67, 127
1, 365521, Note_off_c, 2, 62, 127
1, 365523, Note_on_c, 2, 50, 127
1, 365523, Note_on_c, 4, 64, 127
1, 365614, Note_off_c, 4, 64, 127
1, 365617, Note_on_c, 7, 67, 127
1, 365708, Note_off_c, 7, 67, 127
1, 365710, Note_on_c, 10, 69, 127
1, 365801, Note_off_c, 10, 69, 127
1, 365804, Note_on_c, 11, 70, 127
1, 365889, Note_off_c, 1, 73, 127
1, 365894, Note_off_c, 2, 50, 127
1, 365895, Note_off_c, 11, 70, 127
1, 365897, Note_on_c, 2, 62, 127
1, 365897, Note_on_c, 1, 73, 127
1, 365988, Note_off_c, 1, 73, 127
1, 365991, Note_on_c, 11, 70, 127
1, 366082, Note_off_c, 11, 70, 127
1, 366084, Note_on_c, 10, 69, 127
1, 366175, Note_off_c, 10, 69, 127
1, 366178, Note_on_c, 7, 67, 127
1, 366269, Note_off_c, 7, 67, 127
1, 366271, Note_on_c, 0, 72, 127
1, 366364, Note_on_c, 10, 69, 127
1, 366455, Note_off_c, 10, 69, 127
1, 366458, Note_on_c, 7, 67, 127
1, 366549, Note_off_c, 7, 67, 127
1, 366551, Note_on_c, 6, 66, 127
1, 366642, Note_off_c, 6, 66, 127
1, 366642, Note_off_c, 2, 62, 127
1, 366645, Note_on_c, 2, 50, 127
1, 366645, Note_on_c, 3, 63, 127
1, 366736, Note_off_c, 3, 63, 127
1, 366738, Note_on_c, 6, 66, 127
1, 366829, Note_off_c, 6, 66, 127
1, 366832, Note_on_c, 7, 67, 127
1, 366923, Note_off_c, 7, 67, 127
1, 366925, Note_on_c, 10, 69, 127
1, 366932, Note_off_c, 0, 72, 127
1, 367015, Note_off_c, 10, 69, 127
1, 367015, Note_off_c, 2, 50, 127
1, 367018, Note_on_c, 2, 62, 127
1, 367018, Note_on_c, 0, 72, 127
1, 367109, Note_off_c, 0, 72, 127
1, 367111, Note_on_c, 10, 69, 127
1, 367202, Note_off_c, 10, 69, 127
1, 367204, Note_on_c, 7, 67, 127
1, 367295, Note_off_c, 7, 67, 127
1, 367298, Note_on_c, 6, 66, 127
1, 367389, Note_off_c, 6, 66, 127
1, 367391, Note_on_c, 11, 70, 127
1, 367485, Note_on_c, 7, 67, 127
1, 367576, Note_off_c, 7, 67, 127
1, 367578, Note_on_c, 6, 66, 127
1, 367669, Note_off_c, 6, 66, 127
1, 367672, Note_on_c, 4, 64, 127
1, 367763, Note_off_c, 4, 64, 127
1, 367763, Note_off_c, 2, 62, 127
1, 367765, Note_on_c, 2, 50, 127
1, 367765, Note_on_c, 1, 61, 127
1, 367856, Note_off_c, 1, 61, 127
1, 367859, Note_on_c, 4, 64, 127
1, 367950, Note_off_c, 4, 64, 127
1, 367952, Note_on_c, 6, 66, 127
1, 367974, Note_off_c, 11, 70, 127
1, 368043, Note_off_c, 6, 66, 127
1, 368046, Note_on_c, 7, 67, 127
1, 368136, Note_off_c, 2, 50, 127
1, 368137, Note_off_c, 7, 67, 127
1, 368139, Note_on_c, 2, 62, 127
1, 368139, Note_on_c, 11, 70, 127
1, 368230, Note_off_c, 11, 70, 127
1, 368232, Note_on_c, 7, 67, 127
1, 368323, Note_off_c, 7, 67, 127
1, 368326, Note_on_c, 6, 66, 127
1, 368417, Note_off_c, 6, 66, 127
1, 368419, Note_on_c, 4, 64, 127
1, 368510, Note_off_c, 4, 64, 127
1, 368513, Note_on_c, 1, 73, 127
1, 368606, Note_on_c, 11, 70, 127
1, 368629, Note_off_c, 1, 73, 127
1, 368697, Note_off_c, 11, 70, 127
1, 368700, Note_on_c, 10, 69, 127
1, 368791, Note_off_c, 10, 69, 127
1, 368793, Note_on_c, 7, 67, 127
1, 368884, Note_off_c, 7, 67, 127
1, 368884, Note_off_c, 2, 62, 127
1, 368887, Note_on_c, 6, 54, 127
1, 368887, Note_on_c, 3, 75, 127
1, 368980, Note_on_c, 0, 72, 127
1, 369023, Note_off_c, 3, 75, 127
1, 369071, Note_off_c, 0, 72, 127
1, 369073, Note_on_c, 11, 70, 127
1, 369164, Note_off_c, 11, 70, 127
1, 369167, Note_on_c, 10, 69, 127
1, 369258, Note_off_c, 10, 69, 127
1, 369258, Note_off_c, 6, 54, 127
1, 369260, Note_on_c, 2, 50, 127
1, 369260, Note_on_c, 6, 78, 127
1, 369354, Note_on_c, 3, 75, 127
1, 369435, Note_off_c, 6, 78, 127
1, 369445, Note_off_c, 3, 75, 127
1, 369447, Note_on_c, 2, 74, 127
1, 369538, Note_off_c, 2, 74, 127
1, 369541, Note_on_c, 0, 72, 127
1, 369631, Note_off_c, 2, 50, 127
1, 369632, Note_off_c, 0, 72, 127
1, 369634, Note_on_c, 12, 47, 127
1, 369634, Note_on_c, 7, 79, 127
1, 369725, Note_off_c, 7, 79, 127
1, 369728, Note_on_c, 6, 78, 127
1, 369819, Note_off_c, 6, 78, 127
1, 369821, Note_on_c, 7, 79, 127
1, 370004, Note_off_c, 12, 47, 127
1, 370007, Note_on_c, 7, 43, 127
1, 370130, Note_off_c, 7, 79, 127
1, 370193, Note_on_c, 12, 83, 127
1, 370376, Note_off_c, 12, 83, 127
1, 370376, Note_off_c, 7, 43, 127
1, 370379, Note_on_c, 2, 50, 127
1, 370379, Note_on_c, 2, 74, 127
1, 370562, Note_off_c, 2, 74, 127
1, 370564, Note_on_c, 6, 78, 127
1, 370747, Note_off_c, 6, 78, 127
1, 370748, Note_off_c, 2, 50, 127
1, 370750, Note_on_c, 7, 43, 127
1, 370750, Note_on_c, 7, 79, 127
1, 371118, Note_off_c, 7, 79, 127
1, 371120, Note_off_c, 7, 43, 127
1, 371123, Note_on_c, 7, 55, 127
1, 371309, Note_on_c, 12, 83, 127
1, 371400, Note_off_c, 12, 83, 127
1, 371402, Note_on_c, 10, 81, 127
1, 371493, Note_off_c, 10, 81, 127
1, 371493, Note_off_c, 7, 55, 127
1, 371496, Note_on_c, 12, 59, 127
1, 371496, Note_on_c, 7, 79, 127
1, 371587, Note_off_c, 7, 79, 127
1, 371589, Note_on_c, 6, 78, 127
1, 371680, Note_off_c, 6, 78, 127
1, 371683, Note_on_c, 4, 76, 127
1, 371866, Note_off_c, 12, 59, 127
1, 371869, Note_on_c, 8, 56, 127
1, 371960, Note_off_c, 4, 76, 127
1, 371962, Note_on_c, 5, 77, 127
1, 372053, Note_off_c, 5, 77, 127
1, 372055, Note_on_c, 2, 74, 127
1, 372239, Note_off_c, 8, 56, 127
1, 372241, Note_on_c, 4, 64, 127
1, 372332, Note_off_c, 2, 74, 127
1, 372335, Note_on_c, 4, 76, 127
1, 372426, Note_off_c, 4, 76, 127
1, 372428, Note_on_c, 0, 72, 127
1, 372611, Note_off_c, 4, 64, 127
1, 372614, Note_on_c, 4, 52, 127
1, 372705, Note_off_c, 0, 72, 127
1, 372708, Note_on_c, 2, 74, 127
1, 372799, Note_off_c, 2, 74, 127
1, 372801, Note_on_c, 12, 71, 127
1, 372984, Note_off_c, 4, 52, 127
1, 372987, Note_on_c, 10, 57, 127
1, 373078, Note_off_c, 12, 71, 127
1, 373080, Note_on_c, 0, 72, 127
1, 373171, Note_off_c, 0, 72, 127
1, 373174, Note_on_c, 10, 69, 127
1, 373357, Note_off_c, 10, 69, 127
1, 373357, Note_off_c, 10, 57, 127
1, 373360, Note_on_c, 6, 54, 127
1, 373545, Note_on_c, 10, 69, 127
1, 373636, Note_off_c, 10, 69, 127
1, 373639, Note_on_c, 12, 71, 127
1, 373730, Note_off_c, 12, 71, 127
1, 373730, Note_off_c, 6, 54, 127
1, 373732, Note_on_c, 4, 52, 127
1, 373732, Note_on_c, 0, 72, 127
1, 373823, Note_off_c, 0, 72, 127
1, 373826, Note_on_c, 12, 71, 127
1, 373917, Note_off_c, 12, 71, 127
1, 373919, Note_on_c, 10, 69, 127
1, 374102, Note_off_c, 10, 69, 127
1, 374102, Note_off_c, 4, 52, 127
1, 374105, Note_on_c, 3, 51, 127
1, 374105, Note_on_c, 6, 78, 127
1, 374196, Note_off_c, 6, 78, 127
1, 374199, Note_on_c, 10, 69, 127
1, 374290, Note_off_c, 10, 69, 127
1, 374292, Note_on_c, 0, 72, 127
1, 374475, Note_off_c, 3, 51, 127
1, 374478, Note_on_c, 12, 47, 127
1, 374569, Note_off_c, 0, 72, 127
1, 374571, Note_on_c, 12, 71, 127
1, 374662, Note_off_c, 12, 71, 127
1, 374665, Note_on_c, 10, 69, 127
1, 374848, Note_off_c, 12, 47, 127
1, 374851, Note_on_c, 12, 59, 127
1, 374942, Note_off_c, 10, 69, 127
1, 374944, Note_on_c, 7, 67, 127
1, 375035, Note_off_c, 7, 67, 127
1, 375037, Note_on_c, 6, 66, 127
1, 375220, Note_off_c, 6, 66, 127
1, 375221, Note_off_c, 12, 59, 127
1, 375223, Note_on_c, 4, 52, 127
1, 375223, Note_on_c, 7, 67, 127
1, 375314, Note_off_c, 7, 67, 127
1, 375317, Note_on_c, 6, 66, 127
1, 375408, Note_off_c, 6, 66, 127
1, 375410, Note_on_c, 4, 64, 127
1, 375593, Note_off_c, 4, 64, 127
1, 375593, Note_off_c, 4, 52, 127
1, 375596, Note_on_c, 1, 49, 127
1, 375782, Note_on_c, 11, 70, 127
1, 375873, Note_off_c, 11, 70, 127
1, 375875, Note_on_c, 12, 71, 127
1, 375966, Note_off_c, 12, 71, 127
1, 375966, Note_off_c, 1, 49, 127
1, 375969, Note_on_c, 12, 47, 127
1, 375969, Note_on_c, 1, 73, 127
1, 376060, Note_off_c, 1, 73, 127
1, 376062, Note_on_c, 2, 74, 127
1, 376153, Note_off_c, 2, 74, 127
1, 376156, Note_on_c, 4, 76, 127
1, 376339, Note_off_c, 12, 47, 127
1, 376342, Note_on_c, 11, 46, 127
1, 376433, Note_off_c, 4, 76, 127
1, 376435, Note_on_c, 6, 78, 127
1, 376526, Note_off_c, 6, 78, 127
1, 376528, Note_on_c, 7, 79, 127
1, 376712, Note_off_c, 11, 46, 127
1, 376714, Note_on_c, 6, 42, 127
1, 376805, Note_off_c, 7, 79, 127
1, 376808, Note_on_c, 6, 78, 127
1, 376899, Note_off_c, 6, 78, 127
1, 376901, Note_on_c, 4, 76, 127
1, 377084, Note_off_c, 6, 42, 127
1, 377087, Note_on_c, 6, 54, 127
1, 377178, Note_off_c, 4, 76, 127
1, 377181, Note_on_c, 2, 74, 127
1, 377272, Note_off_c, 2, 74, 127
1, 377274, Note_on_c, 1, 73, 127
1, 377429, Note_off_c, 1, 73, 127
1, 377457, Note_off_c, 6, 54, 127
1, 377460, Note_on_c, 12, 47, 127
1, 377460, Note_on_c, 2, 74, 127
1, 377551, Note_off_c, 2, 74, 127
1, 377553, Note_on_c, 4, 76, 127
1, 377644, Note_off_c, 4, 76, 127
1, 377647, Note_on_c, 6, 78, 127
1, 377830, Note_off_c, 12, 47, 127
1, 377833, Note_on_c, 10, 57, 127
1, 377924, Note_off_c, 6, 78, 127
1, 377926, Note_on_c, 4, 76, 127
1, 378017, Note_off_c, 4, 76, 127
1, 378019, Note_on_c, 2, 74, 127
1, 378203, Note_off_c, 10, 57, 127
1, 378205, Note_on_c, 7, 55, 127
1, 378296, Note_off_c, 2, 74, 127
1, 378299, Note_on_c, 1, 73, 127
1, 378390, Note_off_c, 1, 73, 127
1, 378392, Note_on_c, 12, 71, 127
1, 378556, Note_off_c, 12, 71, 127
1, 378575, Note_off_c, 7, 55, 127
1, 378578, Note_on_c, 10, 45, 127
1, 378578, Note_on_c, 1, 73, 127
1, 378669, Note_off_c, 1, 73, 127
1, 378672, Note_on_c, 2, 74, 127
1, 378763, Note_off_c, 2, 74, 127
1, 378765, Note_on_c, 4, 76, 127
1, 378948, Note_off_c, 10, 45, 127
1, 378951, Note_on_c, 7, 55, 127
1, 379042, Note_off_c, 4, 76, 127
1, 379044, Note_on_c, 2, 74, 127
1, 379135, Note_off_c, 2, 74, 127
1, 379138, Note_on_c, 1, 73, 127
1, 379321, Note_off_c, 7, 55, 127
1, 379324, Note_on_c, 6, 54, 127
1, 379415, Note_off_c, 1, 73, 127
1, 379417, Note_on_c, 12, 71, 127
1, 379508, Note_off_c, 12, 71, 127
1, 379510, Note_on_c, 11, 70, 127
1, 379693, Note_off_c, 11, 70, 127
1, 379694, Note_off_c, 6, 54, 127
1, 379696, Note_on_c, 7, 43, 127
1, 379696, Note_on_c, 12, 71, 127
1, 379787, Note_off_c, 12, 71, 127
1, 379790, Note_on_c, 1, 73, 127
1, 379881, Note_off_c, 1, 73, 127
1, 379883, Note_on_c, 2, 74, 127
1, 380066, Note_off_c, 7, 43, 127
1, 380069, Note_on_c, 6, 54, 127
1, 380252, Note_off_c, 2, 74, 127
1, 380255, Note_on_c, 4, 76, 127
1, 380346, Note_off_c, 4, 76, 127
1, 380348, Note_on_c, 6, 78, 127
1, 380439, Note_off_c, 6, 78, 127
1, 380439, Note_off_c, 6, 54, 127
1, 380442, Note_on_c, 4, 52, 127
1, 380442, Note_on_c, 7, 79, 127
1, 380533, Note_off_c, 7, 79, 127
1, 380535, Note_on_c, 6, 78, 127
1, 380626, Note_off_c, 6, 78, 127
1, 380629, Note_on_c, 7, 79, 127
1, 380812, Note_off_c, 7, 79, 127
1, 380812, Note_off_c, 4, 52, 127
1, 380815, Note_on_c, 6, 42, 127
1, 380815, Note_on_c, 11, 70, 127
1, 380908, Note_on_c, 7, 79, 127
1, 380999, Note_off_c, 7, 79, 127
1, 381001, Note_on_c, 6, 78, 127
1, 381086, Note_off_c, 11, 70, 127
1, 381092, Note_off_c, 6, 78, 127
1, 381095, Note_on_c, 4, 76, 127
1, 381186, Note_off_c, 4, 76, 127
1, 381186, Note_off_c, 6, 42, 127
1, 381188, Note_on_c, 8, 56, 127
1, 381188, Note_on_c, 12, 71, 127
1, 381282, Note_on_c, 6, 78, 127
1, 381373, Note_off_c, 6, 78, 127
1, 381375, Note_on_c, 4, 76, 127
1, 381459, Note_off_c, 12, 71, 127
1, 381466, Note_off_c, 4, 76, 127
1, 381469, Note_on_c, 2, 74, 127
1, 381559, Note_off_c, 8, 56, 127
1, 381560, Note_off_c, 2, 74, 127
1, 381562, Note_on_c, 11, 58, 127
1, 381562, Note_on_c, 1, 73, 127
1, 381656, Note_on_c, 4, 76, 127
1, 381747, Note_off_c, 4, 76, 127
1, 381749, Note_on_c, 2, 74, 127
1, 381833, Note_off_c, 1, 73, 127
1, 381840, Note_off_c, 2, 74, 127
1, 381843, Note_on_c, 1, 73, 127
1, 381933, Note_off_c, 11, 58, 127
1, 381934, Note_off_c, 1, 73, 127
1, 381936, Note_on_c, 6, 42, 127
1, 381936, Note_on_c, 2, 74, 127
1, 382029, Note_on_c, 12, 71, 127
1, 382120, Note_off_c, 12, 71, 127
1, 382123, Note_on_c, 11, 70, 127
1, 382214, Note_off_c, 11, 70, 127
1, 382216, Note_on_c, 8, 68, 127
1, 382307, Note_off_c, 8, 68, 127
1, 382307, Note_off_c, 6, 42, 127
1, 382310, Note_on_c, 12, 59, 127
1, 382310, Note_on_c, 6, 66, 127
1, 382392, Note_off_c, 2, 74, 127
1, 382400, Note_off_c, 6, 66, 127
1, 382402, Note_on_c, 12, 71, 127
1, 382493, Note_off_c, 12, 71, 127
1, 382496, Note_on_c, 1, 73, 127
1, 382587, Note_off_c, 1, 73, 127
1, 382589, Note_on_c, 2, 74, 127
1, 382680, Note_off_c, 2, 74, 127
1, 382680, Note_off_c, 12, 59, 127
1, 382683, Note_on_c, 1, 61, 127
1, 382683, Note_on_c, 4, 64, 127
1, 382774, Note_off_c, 4, 64, 127
1, 382776, Note_on_c, 11, 70, 127
1, 382867, Note_off_c, 11, 70, 127
1, 382869, Note_on_c, 12, 71, 127
1, 382960, Note_off_c, 12, 71, 127
1, 382963, Note_on_c, 1, 73, 127
1, 383054, Note_off_c, 1, 73, 127
1, 383054, Note_off_c, 1, 61, 127
1, 383056, Note_on_c, 6, 42, 127
1, 383056, Note_on_c, 2, 62, 127
1, 383147, Note_off_c, 2, 62, 127
1, 383150, Note_on_c, 6, 66, 127
1, 383241, Note_off_c, 6, 66, 127
1, 383243, Note_on_c, 12, 71, 127
1, 383426, Note_off_c, 6, 42, 127
1, 383429, Note_on_c, 1, 61, 127
1, 383520, Note_off_c, 12, 71, 127
1, 383523, Note_on_c, 1, 73, 127
1, 383614, Note_off_c, 1, 73, 127
1, 383616, Note_on_c, 12, 71, 127
1, 383707, Note_off_c, 12, 71, 127
1, 383709, Note_on_c, 10, 69, 127
1, 383800, Note_off_c, 1, 61, 127
1, 383803, Note_on_c, 12, 59, 127
1, 383893, Note_off_c, 10, 69, 127
1, 383896, Note_on_c, 12, 71, 127
1, 383987, Note_off_c, 12, 71, 127
1, 383990, Note_on_c, 10, 69, 127
1, 384081, Note_off_c, 10, 69, 127
1, 384083, Note_on_c, 7, 67, 127
1, 384174, Note_off_c, 12, 59, 127
1, 384177, Note_on_c, 10, 57, 127
1, 384267, Note_off_c, 7, 67, 127
1, 384270, Note_on_c, 10, 69, 127
1, 384361, Note_off_c, 10, 69, 127
1, 384364, Note_on_c, 7, 67, 127
1, 384455, Note_off_c, 7, 67, 127
1, 384457, Note_on_c, 6, 66, 127
1, 384548, Note_off_c, 10, 57, 127
1, 384550, Note_on_c, 7, 55, 127
1, 384641, Note_off_c, 6, 66, 127
1, 384644, Note_on_c, 7, 67, 127
1, 384735, Note_off_c, 7, 67, 127
1, 384737, Note_on_c, 6, 66, 127
1, 384828, Note_off_c, 6, 66, 127
1, 384831, Note_on_c, 4, 64, 127
1, 384921, Note_off_c, 7, 55, 127
1, 384924, Note_on_c, 6, 54, 127
1, 385015, Note_off_c, 4, 64, 127
1, 385018, Note_on_c, 6, 66, 127
1, 385109, Note_off_c, 6, 66, 127
1, 385111, Note_on_c, 4, 64, 127
1, 385202, Note_off_c, 4, 64, 127
1, 385205, Note_on_c, 2, 62, 127
1, 385295, Note_off_c, 6, 54, 127
1, 385298, Note_on_c, 4, 52, 127
1, 385389, Note_off_c, 2, 62, 127
1, 385392, Note_on_c, 7, 67, 127
1, 385483, Note_off_c, 7, 67, 127
1, 385485, Note_on_c, 0, 60, 127
1, 385659, Note_off_c, 0, 60, 127
1, 385668, Note_off_c, 4, 52, 127
1, 385671, Note_on_c, 2, 50, 127
1, 385764, Note_on_c, 7, 67, 127
1, 385855, Note_off_c, 7, 67, 127
1, 385858, Note_on_c, 12, 59, 127
1, 386032, Note_off_c, 12, 59, 127
1, 386041, Note_off_c, 2, 50, 127
1, 386044, Note_on_c, 1, 49, 127
1, 386137, Note_on_c, 7, 67, 127
1, 386228, Note_off_c, 7, 67, 127
1, 386230, Note_on_c, 11, 58, 127
1, 386508, Note_off_c, 1, 49, 127
1, 386510, Note_on_c, 6, 42, 127
1, 386601, Note_off_c, 6, 42, 127
1, 386603, Note_on_c, 11, 46, 127
1, 386694, Note_off_c, 11, 46, 127
1, 386697, Note_on_c, 1, 49, 127
1, 386788, Note_off_c, 1, 49, 127
1, 386789, Note_off_c, 11, 58, 127
1, 386790, Note_on_c, 4, 52, 127
1, 386881, Note_off_c, 4, 52, 127
1, 386884, Note_on_c, 7, 55, 127
1, 386975, Note_off_c, 7, 55, 127
1, 386977, Note_on_c, 11, 58, 127
1, 387068, Note_off_c, 11, 58, 127
1, 387070, Note_on_c, 1, 61, 127
1, 387161, Note_off_c, 1, 61, 127
1, 387164, Note_on_c, 4, 64, 127
1, 387255, Note_off_c, 4, 64, 127
1, 387257, Note_on_c, 6, 66, 127
1, 387348, Note_off_c, 6, 66, 127
1, 387351, Note_on_c, 11, 70, 127
1, 387442, Note_off_c, 11, 70, 127
1, 387444, Note_on_c, 1, 73, 127
1, 387535, Note_off_c, 1, 73, 127
1, 387538, Note_on_c, 2, 74, 127
1, 387629, Note_off_c, 2, 74, 127
1, 387631, Note_on_c, 5, 77, 127
1, 387722, Note_off_c, 5, 77, 127
1, 387725, Note_on_c, 8, 80, 127
1, 387816, Note_off_c, 8, 80, 127
1, 387818, Note_on_c, 12, 83, 127
1, 387912, Note_on_c, 6, 66, 127
1, 387996, Note_off_c, 12, 83, 127
1, 388191, Note_off_c, 6, 66, 127
1, 388284, Note_on_c, 1, 61, 127
1, 388284, Note_on_c, 6, 54, 127
1, 388284, Note_on_c, 11, 70, 127
1, 388284, Note_on_c, 6, 66, 127
1, 388284, Note_on_c, 4, 64, 127
1, 388613, Note_off_c, 4, 64, 127
1, 388613, Note_off_c, 6, 66, 127
1, 388613, Note_off_c, 11, 70, 127
1, 388613, Note_off_c, 6, 54, 127
1, 388613, Note_off_c, 1, 61, 127
1, 388681, Note_on_c, 12, 71, 127
1, 388681, Note_on_c, 6, 66, 127
1, 388681, Note_on_c, 3, 63, 127
1, 388681, Note_on_c, 12, 47, 127
1, 388681, Note_on_c, 12, 59, 127
1, 389418, Note_off_c, 12, 59, 127
1, 389418, Note_off_c, 12, 47, 127
1, 389418, Note_off_c, 3, 63, 127
1, 389418, Note_off_c, 6, 66, 127
1, 389418, Note_off_c, 12, 71, 127
1, 389624, Note_on_c, 6, 78, 127
1, 389807, Note_off_c, 6, 78, 127
1, 389822, Note_on_c, 12, 47, 127
1, 389822, Note_on_c, 6, 78, 127
1, 390005, Note_off_c, 6, 78, 127
1, 390008, Note_on_c, 12, 83, 127
1, 390191, Note_off_c, 12, 47, 127
1, 390194, Note_on_c, 3, 51, 127
1, 390363, Note_off_c, 12, 83, 127
1, 390380, Note_on_c, 10, 81, 127
1, 390563, Note_off_c, 3, 51, 127
1, 390566, Note_on_c, 6, 54, 127
1, 390735, Note_off_c, 10, 81, 127
1, 390751, Note_on_c, 0, 84, 127
1, 390935, Note_off_c, 6, 54, 127
1, 390937, Note_on_c, 10, 57, 127
1, 391106, Note_off_c, 0, 84, 127
1, 391123, Note_on_c, 3, 75, 127
1, 391306, Note_off_c, 10, 57, 127
1, 391309, Note_on_c, 0, 60, 127
1, 391478, Note_off_c, 3, 75, 127
1, 391495, Note_on_c, 6, 78, 127
1, 391678, Note_off_c, 0, 60, 127
1, 391681, Note_on_c, 3, 63, 127
1, 391850, Note_off_c, 6, 78, 127
1, 391867, Note_on_c, 10, 69, 127
1, 392050, Note_off_c, 3, 63, 127
1, 392052, Note_on_c, 6, 66, 127
1, 392222, Note_off_c, 10, 69, 127
1, 392238, Note_on_c, 0, 72, 127
1, 392421, Note_off_c, 6, 66, 127
1, 392424, Note_on_c, 3, 63, 127
1, 392593, Note_off_c, 0, 72, 127
1, 392610, Note_on_c, 12, 71, 127
1, 392793, Note_off_c, 3, 63, 127
1, 392796, Note_on_c, 12, 59, 127
1, 392965, Note_off_c, 12, 71, 127
1, 392982, Note_on_c, 10, 69, 127
1, 393165, Note_off_c, 12, 59, 127
1, 393168, Note_on_c, 4, 52, 127
1, 393259, Note_off_c, 10, 69, 127
1, 393261, Note_on_c, 6, 66, 127
1, 393352, Note_off_c, 6, 66, 127
1, 393354, Note_on_c, 7, 67, 127
1, 393537, Note_off_c, 7, 67, 127
1, 393538, Note_off_c, 4, 52, 127
1, 393540, Note_on_c, 4, 64, 127
1, 393726, Note_on_c, 12, 71, 127
1, 393817, Note_off_c, 12, 71, 127
1, 393820, Note_on_c, 10, 69, 127
1, 393910, Note_off_c, 4, 64, 127
1, 393911, Note_off_c, 10, 69, 127
1, 393913, Note_on_c, 2, 62, 127
1, 393913, Note_on_c, 7, 67, 127
1, 394004, Note_off_c, 7, 67, 127
1, 394006, Note_on_c, 6, 66, 127
1, 394097, Note_off_c, 6, 66, 127
1, 394100, Note_on_c, 4, 64, 127
1, 394283, Note_off_c, 2, 62, 127
1, 394286, Note_on_c, 0, 60, 127
1, 394347, Note_off_c, 4, 64, 127
1, 394379, Note_on_c, 8, 68, 127
1, 394470, Note_off_c, 8, 68, 127
1, 394473, Note_on_c, 10, 69, 127
1, 394656, Note_off_c, 0, 60, 127
1, 394659, Note_on_c, 10, 57, 127
1, 394750, Note_off_c, 10, 69, 127
1, 394752, Note_on_c, 12, 71, 127
1, 394843, Note_off_c, 12, 71, 127
1, 394845, Note_on_c, 0, 72, 127
1, 395029, Note_off_c, 10, 57, 127
1, 395031, Note_on_c, 7, 55, 127
1, 395122, Note_off_c, 0, 72, 127
1, 395125, Note_on_c, 2, 74, 127
1, 395216, Note_off_c, 2, 74, 127
1, 395218, Note_on_c, 4, 76, 127
1, 395401, Note_off_c, 7, 55, 127
1, 395404, Note_on_c, 5, 53, 127
1, 395495, Note_off_c, 4, 76, 127
1, 395497, Note_on_c, 1, 73, 127
1, 395588, Note_off_c, 1, 73, 127
1, 395591, Note_on_c, 2, 74, 127
1, 395774, Note_off_c, 2, 74, 127
1, 395774, Note_off_c, 5, 53, 127
1, 395777, Note_on_c, 2, 62, 127
1, 395963, Note_on_c, 10, 69, 127
1, 396054, Note_off_c, 10, 69, 127
1, 396056, Note_on_c, 7, 67, 127
1, 396147, Note_off_c, 7, 67, 127
1, 396147, Note_off_c, 2, 62, 127
1, 396150, Note_on_c, 0, 60, 127
1, 396150, Note_on_c, 5, 65, 127
1, 396241, Note_off_c, 5, 65, 127
1, 396243, Note_on_c, 4, 64, 127
1, 396334, Note_off_c, 4, 64, 127
1, 396336, Note_on_c, 2, 62, 127
1, 396520, Note_off_c, 0, 60, 127
1, 396522, Note_on_c, 12, 59, 127
1, 396583, Note_off_c, 2, 62, 127
1, 396616, Note_on_c, 6, 66, 127
1, 396707, Note_off_c, 6, 66, 127
1, 396709, Note_on_c, 7, 67, 127
1, 396892, Note_off_c, 12, 59, 127
1, 396895, Note_on_c, 7, 55, 127
1, 396986, Note_off_c, 7, 67, 127
1, 396988, Note_on_c, 10, 69, 127
1, 397079, Note_off_c, 10, 69, 127
1, 397082, Note_on_c, 12, 71, 127
1, 397265, Note_off_c, 7, 55, 127
1, 397268, Note_on_c, 5, 53, 127
1, 397359, Note_off_c, 12, 71, 127
1, 397361, Note_on_c, 0, 72, 127
1, 397452, Note_off_c, 0, 72, 127
1, 397455, Note_on_c, 2, 74, 127
1, 397638, Note_off_c, 5, 53, 127
1, 397641, Note_on_c, 4, 52, 127
1, 397732, Note_off_c, 2, 74, 127
1, 397734, Note_on_c, 12, 71, 127
1, 397825, Note_off_c, 12, 71, 127
1, 397827, Note_on_c, 0, 72, 127
1, 398010, Note_off_c, 0, 72, 127
1, 398011, Note_off_c, 4, 52, 127
1, 398013, Note_on_c, 0, 60, 127
1, 398199, Note_on_c, 0, 72, 127
1, 398290, Note_off_c, 0, 72, 127
1, 398293, Note_on_c, 2, 74, 127
1, 398383, Note_off_c, 0, 60, 127
1, 398384, Note_off_c, 2, 74, 127
1, 398386, Note_on_c, 11, 58, 127
1, 398386, Note_on_c, 4, 76, 127
1, 398477, Note_off_c, 4, 76, 127
1, 398479, Note_on_c, 5, 77, 127
1, 398570, Note_off_c, 5, 77, 127
1, 398573, Note_on_c, 7, 79, 127
1, 398756, Note_off_c, 11, 58, 127
1, 398759, Note_on_c, 10, 57, 127
1, 398850, Note_off_c, 7, 79, 127
1, 398852, Note_on_c, 10, 81, 127
1, 398943, Note_off_c, 10, 81, 127
1, 398946, Note_on_c, 7, 79, 127
1, 399037, Note_off_c, 7, 79, 127
1, 399039, Note_on_c, 1, 73, 127
1, 399130, Note_off_c, 1, 73, 127
1, 399130, Note_off_c, 10, 57, 127
1, 399133, Note_on_c, 5, 53, 127
1, 399133, Note_on_c, 7, 79, 127
1, 399226, Note_on_c, 10, 81, 127
1, 399308, Note_off_c, 7, 79, 127
1, 399317, Note_off_c, 10, 81, 127
1, 399319, Note_on_c, 7, 79, 127
1, 399413, Note_on_c, 1, 73, 127
1, 399419, Note_off_c, 7, 79, 127
1, 399503, Note_off_c, 1, 73, 127
1, 399503, Note_off_c, 5, 53, 127
1, 399505, Note_on_c, 4, 52, 127
1, 399505, Note_on_c, 7, 79, 127
1, 399599, Note_on_c, 10, 81, 127
1, 399680, Note_off_c, 7, 79, 127
1, 399690, Note_off_c, 10, 81, 127
1, 399692, Note_on_c, 7, 79, 127
1, 399783, Note_off_c, 7, 79, 127
1, 399786, Note_on_c, 1, 73, 127
1, 399876, Note_off_c, 4, 52, 127
1, 399877, Note_off_c, 1, 73, 127
1, 399879, Note_on_c, 2, 50, 127
1, 399879, Note_on_c, 5, 77, 127
1, 399973, Note_on_c, 7, 79, 127
1, 400054, Note_off_c, 5, 77, 127
1, 400064, Note_off_c, 7, 79, 127
1, 400066, Note_on_c, 5, 77, 127
1, 400157, Note_off_c, 5, 77, 127
1, 400159, Note_on_c, 2, 74, 127
1, 400250, Note_off_c, 2, 74, 127
1, 400250, Note_off_c, 2, 50, 127
1, 400253, Note_on_c, 11, 58, 127
1, 400253, Note_on_c, 5, 77, 127
1, 400346, Note_on_c, 7, 79, 127
1, 400428, Note_off_c, 5, 77, 127
1, 400437, Note_off_c, 7, 79, 127
1, 400440, Note_on_c, 5, 77, 127
1, 400533, Note_on_c, 2, 74, 127
1, 400545, Note_off_c, 5, 77, 127
1, 400624, Note_off_c, 2, 74, 127
1, 400624, Note_off_c, 11, 58, 127
1, 400627, Note_on_c, 10, 57, 127
1, 400627, Note_on_c, 5, 77, 127
1, 400720, Note_on_c, 7, 79, 127
1, 400802, Note_off_c, 5, 77, 127
1, 400811, Note_off_c, 7, 79, 127
1, 400814, Note_on_c, 5, 77, 127
1, 400907, Note_on_c, 2, 74, 127
1, 400930, Note_off_c, 5, 77, 127
1, 400998, Note_off_c, 2, 74, 127
1, 400998, Note_off_c, 10, 57, 127
1, 401001, Note_on_c, 8, 56, 127
1, 401001, Note_on_c, 4, 76, 127
1, 401094, Note_on_c, 5, 77, 127
1, 401176, Note_off_c, 4, 76, 127
1, 401185, Note_off_c, 5, 77, 127
1, 401187, Note_on_c, 4, 76, 127
1, 401278, Note_off_c, 4, 76, 127
1, 401281, Note_on_c, 2, 74, 127
1, 401372, Note_off_c, 2, 74, 127
1, 401372, Note_off_c, 8, 56, 127
1, 401374, Note_on_c, 4, 52, 127
1, 401374, Note_on_c, 8, 80, 127
1, 401468, Note_on_c, 10, 81, 127
1, 401549, Note_off_c, 8, 80, 127
1, 401559, Note_off_c, 10, 81, 127
1, 401561, Note_on_c, 8, 80, 127
1, 401652, Note_off_c, 8, 80, 127
1, 401655, Note_on_c, 2, 74, 127
1, 401745, Note_off_c, 4, 52, 127
1, 401746, Note_off_c, 2, 74, 127
1, 401748, Note_on_c, 2, 50, 127
1, 401748, Note_on_c, 12, 83, 127
1, 401842, Note_on_c, 0, 84, 127
1, 401923, Note_off_c, 12, 83, 127
1, 401933, Note_off_c, 0, 84, 127
1, 401935, Note_on_c, 12, 83, 127
1, 402028, Note_on_c, 2, 74, 127
1, 402051, Note_off_c, 12, 83, 127
1, 402119, Note_off_c, 2, 74, 127
1, 402119, Note_off_c, 2, 50, 127
1, 402122, Note_on_c, 0, 48, 127
1, 402122, Note_on_c, 4, 76, 127
1, 402213, Note_off_c, 4, 76, 127
1, 402215, Note_on_c, 0, 72, 127
1, 402306, Note_off_c, 0, 72, 127
1, 402309, Note_on_c, 10, 81, 127
1, 402492, Note_off_c, 10, 81, 127
1, 402492, Note_off_c, 0, 48, 127
1, 402495, Note_on_c, 1, 49, 127
1, 402681, Note_on_c, 11, 70, 127
1, 402772, Note_off_c, 11, 70, 127
1, 402774, Note_on_c, 10, 69, 127
1, 402865, Note_off_c, 10, 69, 127
1, 402865, Note_off_c, 1, 49, 127
1, 402867, Note_on_c, 10, 45, 127
1, 402867, Note_on_c, 7, 67, 127
1, 402958, Note_off_c, 7, 67, 127
1, 402961, Note_on_c, 5, 65, 127
1, 403052, Note_off_c, 5, 65, 127
1, 403054, Note_on_c, 4, 64, 127
1, 403237, Note_off_c, 10, 45, 127
1, 403240, Note_on_c, 2, 50, 127
1, 403331, Note_off_c, 4, 64, 127
1, 403334, Note_on_c, 5, 65, 127
1, 403425, Note_off_c, 5, 65, 127
1, 403427, Note_on_c, 2, 62, 127
1, 403597, Note_off_c, 2, 62, 127
1, 403610, Note_off_c, 2, 50, 127
1, 403613, Note_on_c, 3, 51, 127
1, 403799, Note_on_c, 0, 72, 127
1, 403890, Note_off_c, 0, 72, 127
1, 403892, Note_on_c, 12, 71, 127
1, 403983, Note_off_c, 12, 71, 127
1, 403983, Note_off_c, 3, 51, 127
1, 403986, Note_on_c, 12, 47, 127
1, 403986, Note_on_c, 10, 69, 127
1, 404077, Note_off_c, 10, 69, 127
1, 404079, Note_on_c, 7, 67, 127
1, 404170, Note_off_c, 7, 67, 127
1, 404173, Note_on_c, 6, 66, 127
1, 404356, Note_off_c, 12, 47, 127
1, 404358, Note_on_c, 4, 52, 127
1, 404450, Note_off_c, 6, 66, 127
1, 404452, Note_on_c, 8, 68, 127
1, 404543, Note_off_c, 8, 68, 127
1, 404545, Note_on_c, 4, 64, 127
1, 404715, Note_off_c, 4, 64, 127
1, 404728, Note_off_c, 4, 52, 127
1, 404731, Note_on_c, 4, 40, 127
1, 404917, Note_on_c, 5, 77, 127
1, 405008, Note_off_c, 5, 77, 127
1, 405010, Note_on_c, 4, 76, 127
1, 405101, Note_off_c, 4, 76, 127
1, 405101, Note_off_c, 4, 40, 127
1, 405104, Note_on_c, 8, 44, 127
1, 405104, Note_on_c, 2, 74, 127
1, 405195, Note_off_c, 2, 74, 127
1, 405197, Note_on_c, 0, 72, 127
1, 405288, Note_off_c, 0, 72, 127
1, 405291, Note_on_c, 12, 71, 127
1, 405474, Note_off_c, 8, 44, 127
1, 405477, Note_on_c, 10, 45, 127
1, 405646, Note_off_c, 12, 71, 127
1, 405663, Note_on_c, 0, 72, 127
1, 405846, Note_off_c, 10, 45, 127
1, 405848, Note_on_c, 12, 47, 127
1, 406018, Note_off_c, 0, 72, 127
1, 406034, Note_on_c, 8, 68, 127
1, 406217, Note_off_c, 12, 47, 127
1, 406220, Note_on_c, 0, 48, 127
1, 406389, Note_off_c, 8, 68, 127
1, 406406, Note_on_c, 10, 69, 127
1, 406589, Note_off_c, 0, 48, 127
1, 406592, Note_on_c, 5, 41, 127
1, 406761, Note_off_c, 10, 69, 127
1, 406778, Note_on_c, 4, 64, 127
1, 406961, Note_off_c, 5, 41, 127
1, 406963, Note_on_c, 7, 43, 127
1, 407133, Note_off_c, 4, 64, 127
1, 407149, Note_on_c, 5, 65, 127
1, 407332, Note_off_c, 7, 43, 127
1, 407335, Note_on_c, 10, 45, 127
1, 407504, Note_off_c, 5, 65, 127
1, 407521, Note_on_c, 1, 61, 127
1, 407704, Note_off_c, 10, 45, 127
1, 407707, Note_on_c, 11, 46, 127
1, 407876, Note_off_c, 1, 61, 127
1, 407893, Note_on_c, 2, 62, 127
1, 408076, Note_off_c, 11, 46, 127
1, 408079, Note_on_c, 0, 48, 127
1, 408248, Note_off_c, 2, 62, 127
1, 408264, Note_on_c, 10, 57, 127
1, 408448, Note_off_c, 0, 48, 127
1, 408450, Note_on_c, 2, 50, 127
1, 408619, Note_off_c, 10, 57, 127
1, 408636, Note_on_c, 11, 58, 127
1, 408806, Note_off_c, 11, 58, 127
1, 408819, Note_off_c, 2, 50, 127
1, 408822, Note_on_c, 8, 44, 127
1, 408822, Note_on_c, 5, 65, 127
1, 408913, Note_off_c, 5, 65, 127
1, 408915, Note_on_c, 4, 64, 127
1, 409006, Note_off_c, 4, 64, 127
1, 409009, Note_on_c, 2, 62, 127
1, 409192, Note_off_c, 8, 44, 127
1, 409195, Note_on_c, 4, 52, 127
1, 409272, Note_off_c, 2, 62, 127
1, 409288, Note_on_c, 0, 60, 127
1, 409379, Note_off_c, 0, 60, 127
1, 409382, Note_on_c, 12, 59, 127
1, 409565, Note_off_c, 4, 52, 127
1, 409567, Note_on_c, 2, 50, 127
1, 409645, Note_off_c, 12, 59, 127
1, 409661, Note_on_c, 10, 69, 127
1, 409752, Note_off_c, 10, 69, 127
1, 409754, Note_on_c, 8, 68, 127
1, 409928, Note_off_c, 8, 68, 127
1, 409937, Note_off_c, 2, 50, 127
1, 409940, Note_on_c, 0, 48, 127
1, 410034, Note_on_c, 10, 69, 127
1, 410125, Note_off_c, 10, 69, 127
1, 410127, Note_on_c, 12, 71, 127
1, 410218, Note_off_c, 12, 71, 127
1, 410221, Note_on_c, 0, 72, 127
1, 410311, Note_off_c, 0, 48, 127
1, 410312, Note_off_c, 0, 72, 127
1, 410314, Note_on_c, 10, 45, 127
1, 410314, Note_on_c, 2, 74, 127
1, 410405, Note_off_c, 2, 74, 127
1, 410407, Note_on_c, 4, 76, 127
1, 410498, Note_off_c, 4, 76, 127
1, 410501, Note_on_c, 5, 77, 127
1, 410684, Note_off_c, 10, 45, 127
1, 410687, Note_on_c, 4, 40, 127
1, 410830, Note_off_c, 5, 77, 127
1, 410874, Note_on_c, 8, 68, 127
1, 411057, Note_off_c, 4, 40, 127
1, 411060, Note_on_c, 10, 45, 127
1, 411243, Note_off_c, 8, 68, 127
1, 411245, Note_on_c, 10, 69, 127
1, 411428, Note_off_c, 10, 69, 127
1, 411429, Note_off_c, 10, 45, 127
1, 411431, Note_on_c, 10, 57, 127
1, 411617, Note_on_c, 0, 84, 127
1, 411708, Note_off_c, 0, 84, 127
1, 411711, Note_on_c, 12, 83, 127
1, 411801, Note_off_c, 10, 57, 127
1, 411802, Note_off_c, 12, 83, 127
1, 411804, Note_on_c, 0, 60, 127
1, 411804, Note_on_c, 10, 81, 127
1, 411895, Note_off_c, 10, 81, 127
1, 411897, Note_on_c, 7, 79, 127
1, 411988, Note_off_c, 7, 79, 127
1, 411991, Note_on_c, 6, 78, 127
1, 412082, Note_off_c, 6, 78, 127
1, 412084, Note_on_c, 4, 76, 127
1, 412175, Note_off_c, 4, 76, 127
1, 412175, Note_off_c, 0, 60, 127
1, 412178, Note_on_c, 3, 63, 127
1, 412178, Note_on_c, 6, 78, 127
1, 412271, Note_on_c, 10, 81, 127
1, 412353, Note_off_c, 6, 78, 127
1, 412362, Note_off_c, 10, 81, 127
1, 412365, Note_on_c, 6, 78, 127
1, 412456, Note_off_c, 6, 78, 127
1, 412458, Note_on_c, 4, 76, 127
1, 412549, Note_off_c, 4, 76, 127
1, 412549, Note_off_c, 3, 63, 127
1, 412552, Note_on_c, 6, 66, 127
1, 412552, Note_on_c, 3, 75, 127
1, 412645, Note_on_c, 6, 78, 127
1, 412727, Note_off_c, 3, 75, 127
1, 412736, Note_off_c, 6, 78, 127
1, 412738, Note_on_c, 0, 72, 127
1, 412829, Note_off_c, 0, 72, 127
1, 412832, Note_on_c, 12, 71, 127
1, 412923, Note_off_c, 12, 71, 127
1, 412923, Note_off_c, 6, 66, 127
1, 412925, Note_on_c, 12, 59, 127
1, 412925, Note_on_c, 10, 69, 127
1, 413019, Note_on_c, 6, 78, 127
1, 413100, Note_off_c, 10, 69, 127
1, 413110, Note_off_c, 6, 78, 127
1, 413112, Note_on_c, 12, 71, 127
1, 413203, Note_off_c, 12, 71, 127
1, 413206, Note_on_c, 10, 69, 127
1, 413296, Note_off_c, 12, 59, 127
1, 413297, Note_off_c, 10, 69, 127
1, 413299, Note_on_c, 4, 64, 127
1, 413299, Note_on_c, 7, 67, 127
1, 413393, Note_on_c, 4, 76, 127
1, 413474, Note_off_c, 7, 67, 127
1, 413484, Note_off_c, 4, 76, 127
1, 413486, Note_on_c, 12, 71, 127
1, 413577, Note_off_c, 12, 71, 127
1, 413580, Note_on_c, 10, 69, 127
1, 413670, Note_off_c, 4, 64, 127
1, 413671, Note_off_c, 10, 69, 127
1, 413673, Note_on_c, 4, 52, 127
1, 413673, Note_on_c, 7, 67, 127
1, 413766, Note_on_c, 12, 71, 127
1, 413789, Note_off_c, 7, 67, 127
1, 413857, Note_off_c, 12, 71, 127
1, 413860, Note_on_c, 7, 67, 127
1, 413953, Note_on_c, 6, 66, 127
1, 413976, Note_off_c, 7, 67, 127
1, 414044, Note_off_c, 6, 66, 127
1, 414044, Note_off_c, 4, 52, 127
1, 414047, Note_on_c, 7, 55, 127
1, 414047, Note_on_c, 4, 64, 127
1, 414138, Note_off_c, 4, 64, 127
1, 414140, Note_on_c, 7, 67, 127
1, 414231, Note_off_c, 7, 67, 127
1, 414234, Note_on_c, 12, 71, 127
1, 414325, Note_off_c, 12, 71, 127
1, 414327, Note_on_c, 2, 74, 127
1, 414418, Note_off_c, 2, 74, 127
1, 414418, Note_off_c, 7, 55, 127
1, 414421, Note_on_c, 11, 58, 127
1, 414421, Note_on_c, 1, 73, 127
1, 414514, Note_on_c, 4, 76, 127
1, 414596, Note_off_c, 1, 73, 127
1, 414605, Note_off_c, 4, 76, 127
1, 414607, Note_on_c, 1, 73, 127
1, 414698, Note_off_c, 1, 73, 127
1, 414701, Note_on_c, 12, 71, 127
1, 414792, Note_off_c, 12, 71, 127
1, 414792, Note_off_c, 11, 58, 127
1, 414794, Note_on_c, 1, 61, 127
1, 414794, Note_on_c, 11, 70, 127
1, 414888, Note_on_c, 4, 76, 127
1, 414969, Note_off_c, 11, 70, 127
1, 414979, Note_off_c, 4, 76, 127
1, 414981, Note_on_c, 7, 67, 127
1, 415072, Note_off_c, 7, 67, 127
1, 415075, Note_on_c, 6, 66, 127
1, 415165, Note_off_c, 1, 61, 127
1, 415166, Note_off_c, 6, 66, 127
1, 415168, Note_on_c, 6, 54, 127
1, 415168, Note_on_c, 4, 64, 127
1, 415262, Note_on_c, 1, 73, 127
1, 415343, Note_off_c, 4, 64, 127
1, 415353, Note_off_c, 1, 73, 127
1, 415355, Note_on_c, 6, 66, 127
1, 415446, Note_off_c, 6, 66, 127
1, 415449, Note_on_c, 4, 64, 127
1, 415539, Note_off_c, 6, 54, 127
1, 415540, Note_off_c, 4, 64, 127
1, 415542, Note_on_c, 12, 59, 127
1, 415542, Note_on_c, 3, 63, 127
1, 415635, Note_on_c, 12, 71, 127
1, 415717, Note_off_c, 3, 63, 127
1, 415726, Note_off_c, 12, 71, 127
1, 415729, Note_on_c, 6, 66, 127
1, 415820, Note_off_c, 6, 66, 127
1, 415822, Note_on_c, 4, 64, 127
1, 415913, Note_off_c, 4, 64, 127
1, 415913, Note_off_c, 12, 59, 127
1, 415916, Note_on_c, 12, 47, 127
1, 415916, Note_on_c, 3, 63, 127
1, 416009, Note_on_c, 6, 66, 127
1, 416032, Note_off_c, 3, 63, 127
1, 416100, Note_off_c, 6, 66, 127
1, 416103, Note_on_c, 3, 63, 127
1, 416196, Note_on_c, 1, 61, 127
1, 416219, Note_off_c, 3, 63, 127
1, 416287, Note_off_c, 1, 61, 127
1, 416287, Note_off_c, 12, 47, 127
1, 416290, Note_on_c, 3, 51, 127
1, 416290, Note_on_c, 12, 59, 127
1, 416658, Note_off_c, 12, 59, 127
1, 416660, Note_off_c, 3, 51, 127
1, 416662, Note_on_c, 4, 52, 127
1, 416848, Note_on_c, 12, 71, 127
1, 417031, Note_off_c, 4, 52, 127
1, 417034, Note_on_c, 7, 55, 127
1, 417203, Note_off_c, 12, 71, 127
1, 417220, Note_on_c, 4, 64, 127
1, 417403, Note_off_c, 7, 55, 127
1, 417406, Note_on_c, 0, 60, 127
1, 417575, Note_off_c, 4, 64, 127
1, 417592, Note_on_c, 6, 66, 127
1, 417775, Note_off_c, 0, 60, 127
1, 417777, Note_on_c, 3, 51, 127
1, 417947, Note_off_c, 6, 66, 127
1, 417963, Note_on_c, 0, 72, 127
1, 418146, Note_off_c, 3, 51, 127
1, 418149, Note_on_c, 6, 54, 127
1, 418318, Note_off_c, 0, 72, 127
1, 418335, Note_on_c, 12, 71, 127
1, 418518, Note_off_c, 6, 54, 127
1, 418521, Note_on_c, 12, 59, 127
1, 418690, Note_off_c, 12, 71, 127
1, 418707, Note_on_c, 10, 69, 127
1, 418890, Note_off_c, 12, 59, 127
1, 418893, Note_on_c, 4, 52, 127
1, 419062, Note_off_c, 10, 69, 127
1, 419078, Note_on_c, 7, 67, 127
1, 419262, Note_off_c, 4, 52, 127
1, 419264, Note_on_c, 10, 57, 127
1, 419433, Note_off_c, 7, 67, 127
1, 419450, Note_on_c, 6, 66, 127
1, 419541, Note_off_c, 6, 66, 127
1, 419544, Note_on_c, 4, 64, 127
1, 419634, Note_off_c, 10, 57, 127
1, 419635, Note_off_c, 4, 64, 127
1, 419637, Note_on_c, 0, 48, 127
1, 419637, Note_on_c, 6, 66, 127
1, 419820, Note_off_c, 6, 66, 127
1, 419823, Note_on_c, 10, 69, 127
1, 420006, Note_off_c, 0, 48, 127
1, 420009, Note_on_c, 12, 47, 127
1, 420192, Note_off_c, 10, 69, 127
1, 420195, Note_on_c, 3, 63, 127
1, 420365, Note_off_c, 3, 63, 127
1, 420378, Note_off_c, 12, 47, 127
1, 420380, Note_on_c, 12, 59, 127
1, 420566, Note_on_c, 3, 75, 127
1, 420657, Note_off_c, 3, 75, 127
1, 420660, Note_on_c, 4, 76, 127
1, 420750, Note_off_c, 12, 59, 127
1, 420751, Note_off_c, 4, 76, 127
1, 420753, Note_on_c, 3, 51, 127
1, 420753, Note_on_c, 6, 78, 127
1, 420936, Note_off_c, 6, 78, 127
1, 420939, Note_on_c, 10, 69, 127
1, 421122, Note_off_c, 3, 51, 127
1, 421125, Note_on_c, 4, 52, 127
1, 421308, Note_off_c, 10, 69, 127
1, 421311, Note_on_c, 7, 67, 127
1, 421481, Note_off_c, 7, 67, 127
1, 421494, Note_off_c, 4, 52, 127
1, 421497, Note_on_c, 4, 40, 127
1, 421682, Note_on_c, 8, 80, 127
1, 421773, Note_off_c, 8, 80, 127
1, 421776, Note_on_c, 10, 81, 127
1, 421867, Note_off_c, 10, 81, 127
1, 421867, Note_off_c, 4, 40, 127
1, 421869, Note_on_c, 8, 44, 127
1, 421869, Note_on_c, 12, 83, 127
1, 422052, Note_off_c, 12, 83, 127
1, 422055, Note_on_c, 2, 74, 127
1, 422238, Note_off_c, 8, 44, 127
1, 422241, Note_on_c, 10, 45, 127
1, 422424, Note_off_c, 2, 74, 127
1, 422427, Note_on_c, 0, 72, 127
1, 422597, Note_off_c, 0, 72, 127
1, 422610, Note_off_c, 10, 45, 127
1, 422613, Note_on_c, 10, 57, 127
1, 422799, Note_on_c, 1, 73, 127
1, 422890, Note_off_c, 1, 73, 127
1, 422892, Note_on_c, 2, 74, 127
1, 422983, Note_off_c, 2, 74, 127
1, 422983, Note_off_c, 10, 57, 127
1, 422985, Note_on_c, 1, 49, 127
1, 422985, Note_on_c, 4, 76, 127
1, 423168, Note_off_c, 4, 76, 127
1, 423171, Note_on_c, 7, 67, 127
1, 423354, Note_off_c, 1, 49, 127
1, 423357, Note_on_c, 2, 50, 127
1, 423540, Note_off_c, 7, 67, 127
1, 423543, Note_on_c, 5, 65, 127
1, 423713, Note_off_c, 5, 65, 127
1, 423726, Note_off_c, 2, 50, 127
1, 423729, Note_on_c, 2, 38, 127
1, 423915, Note_on_c, 6, 78, 127
1, 424006, Note_off_c, 6, 78, 127
1, 424008, Note_on_c, 7, 79, 127
1, 424099, Note_off_c, 7, 79, 127
1, 424099, Note_off_c, 2, 38, 127
1, 424102, Note_on_c, 6, 42, 127
1, 424102, Note_on_c, 10, 81, 127
1, 424285, Note_off_c, 10, 81, 127
1, 424287, Note_on_c, 0, 72, 127
1, 424471, Note_off_c, 6, 42, 127
1, 424473, Note_on_c, 7, 43, 127
1, 424656, Note_off_c, 0, 72, 127
1, 424659, Note_on_c, 12, 71, 127
1, 424829, Note_off_c, 12, 71, 127
1, 424842, Note_off_c, 7, 43, 127
1, 424845, Note_on_c, 7, 55, 127
1, 425031, Note_on_c, 12, 71, 127
1, 425122, Note_off_c, 12, 71, 127
1, 425124, Note_on_c, 0, 72, 127
1, 425215, Note_off_c, 0, 72, 127
1, 425215, Note_off_c, 7, 55, 127
1, 425218, Note_on_c, 12, 47, 127
1, 425218, Note_on_c, 2, 74, 127
1, 425401, Note_off_c, 2, 74, 127
1, 425404, Note_on_c, 5, 65, 127
1, 425564, Note_off_c, 5, 65, 127
1, 425587, Note_off_c, 12, 47, 127
1, 425589, Note_on_c, 0, 48, 127
1, 425589, Note_on_c, 4, 64, 127
1, 425680, Note_off_c, 4, 64, 127
1, 425683, Note_on_c, 5, 65, 127
1, 425774, Note_off_c, 5, 65, 127
1, 425776, Note_on_c, 7, 67, 127
1, 425959, Note_off_c, 0, 48, 127
1, 425962, Note_on_c, 12, 59, 127
1, 426053, Note_off_c, 7, 67, 127
1, 426056, Note_on_c, 5, 65, 127
1, 426147, Note_off_c, 5, 65, 127
1, 426149, Note_on_c, 4, 64, 127
1, 426332, Note_off_c, 12, 59, 127
1, 426335, Note_on_c, 10, 57, 127
1, 426426, Note_off_c, 4, 64, 127
1, 426428, Note_on_c, 2, 62, 127
1, 426519, Note_off_c, 2, 62, 127
1, 426522, Note_on_c, 0, 60, 127
1, 426705, Note_off_c, 0, 60, 127
1, 426705, Note_off_c, 10, 57, 127
1, 426708, Note_on_c, 12, 47, 127
1, 426708, Note_on_c, 2, 62, 127
1, 426799, Note_off_c, 2, 62, 127
1, 426801, Note_on_c, 4, 64, 127
1, 426892, Note_off_c, 4, 64, 127
1, 426895, Note_on_c, 5, 65, 127
1, 427078, Note_off_c, 12, 47, 127
1, 427080, Note_on_c, 10, 57, 127
1, 427172, Note_off_c, 5, 65, 127
1, 427174, Note_on_c, 4, 64, 127
1, 427265, Note_off_c, 4, 64, 127
1, 427267, Note_on_c, 2, 62, 127
1, 427450, Note_off_c, 10, 57, 127
1, 427453, Note_on_c, 7, 55, 127
1, 427544, Note_off_c, 2, 62, 127
1, 427547, Note_on_c, 0, 60, 127
1, 427638, Note_off_c, 0, 60, 127
1, 427640, Note_on_c, 12, 59, 127
1, 427823, Note_off_c, 12, 59, 127
1, 427823, Note_off_c, 7, 55, 127
1, 427826, Note_on_c, 10, 45, 127
1, 427826, Note_on_c, 0, 60, 127
1, 427917, Note_off_c, 0, 60, 127
1, 427919, Note_on_c, 2, 62, 127
1, 428010, Note_off_c, 2, 62, 127
1, 428013, Note_on_c, 4, 64, 127
1, 428196, Note_off_c, 10, 45, 127
1, 428199, Note_on_c, 7, 55, 127
1, 428382, Note_off_c, 4, 64, 127
1, 428385, Note_on_c, 5, 65, 127
1, 428476, Note_off_c, 5, 65, 127
1, 428478, Note_on_c, 7, 67, 127
1, 428569, Note_off_c, 7, 67, 127
1, 428569, Note_off_c, 7, 55, 127
1, 428571, Note_on_c, 5, 53, 127
1, 428571, Note_on_c, 10, 69, 127
1, 428662, Note_off_c, 10, 69, 127
1, 428665, Note_on_c, 12, 71, 127
1, 428756, Note_off_c, 12, 71, 127
1, 428758, Note_on_c, 0, 72, 127
1, 428849, Note_off_c, 0, 72, 127
1, 428852, Note_on_c, 10, 69, 127
1, 428942, Note_off_c, 5, 53, 127
1, 428943, Note_off_c, 10, 69, 127
1, 428945, Note_on_c, 7, 43, 127
1, 428945, Note_on_c, 5, 65, 127
1, 429039, Note_on_c, 2, 74, 127
1, 429130, Note_off_c, 2, 74, 127
1, 429132, Note_on_c, 12, 71, 127
1, 429216, Note_off_c, 5, 65, 127
1, 429223, Note_off_c, 12, 71, 127
1, 429226, Note_on_c, 7, 67, 127
1, 429316, Note_off_c, 7, 43, 127
1, 429317, Note_off_c, 7, 67, 127
1, 429319, Note_on_c, 7, 55, 127
1, 429319, Note_on_c, 5, 65, 127
1, 429412, Note_on_c, 2, 74, 127
1, 429503, Note_off_c, 2, 74, 127
1, 429506, Note_on_c, 12, 71, 127
1, 429590, Note_off_c, 5, 65, 127
1, 429597, Note_off_c, 12, 71, 127
1, 429599, Note_on_c, 7, 67, 127
1, 429690, Note_off_c, 7, 67, 127
1, 429690, Note_off_c, 7, 55, 127
1, 429693, Note_on_c, 7, 43, 127
1, 429693, Note_on_c, 5, 65, 127
1, 429786, Note_on_c, 2, 74, 127
1, 429877, Note_off_c, 2, 74, 127
1, 429880, Note_on_c, 12, 71, 127
1, 429964, Note_off_c, 5, 65, 127
1, 429971, Note_off_c, 12, 71, 127
1, 429973, Note_on_c, 7, 67, 127
1, 430064, Note_off_c, 7, 67, 127
1, 430067, Note_on_c, 4, 64, 127
1, 430160, Note_on_c, 0, 72, 127
1, 430251, Note_off_c, 0, 72, 127
1, 430254, Note_on_c, 7, 67, 127
1, 430338, Note_off_c, 4, 64, 127
1, 430345, Note_off_c, 7, 67, 127
1, 430347, Note_on_c, 4, 64, 127
1, 430438, Note_off_c, 4, 64, 127
1, 430438, Note_off_c, 7, 43, 127
1, 430440, Note_on_c, 7, 55, 127
1, 430440, Note_on_c, 0, 60, 127
1, 430534, Note_on_c, 7, 67, 127
1, 430625, Note_off_c, 7, 67, 127
1, 430627, Note_on_c, 4, 64, 127
1, 430673, Note_off_c, 0, 60, 127
1, 430717, Note_off_c, 4, 64, 127
1, 430720, Note_on_c, 0, 60, 127
1, 430810, Note_off_c, 7, 55, 127
1, 430811, Note_off_c, 0, 60, 127
1, 430813, Note_on_c, 7, 43, 127
1, 430813, Note_on_c, 12, 59, 127
1, 430904, Note_off_c, 12, 59, 127
1, 430907, Note_on_c, 0, 60, 127
1, 430998, Note_off_c, 0, 60, 127
1, 431000, Note_on_c, 2, 62, 127
1, 431091, Note_off_c, 2, 62, 127
1, 431094, Note_on_c, 4, 64, 127
1, 431185, Note_off_c, 4, 64, 127
1, 431187, Note_on_c, 5, 65, 127
1, 431278, Note_off_c, 5, 65, 127
1, 431280, Note_on_c, 2, 74, 127
1, 431371, Note_off_c, 2, 74, 127
1, 431374, Note_on_c, 12, 71, 127
1, 431465, Note_off_c, 12, 71, 127
1, 431467, Note_on_c, 7, 67, 127
1, 431558, Note_off_c, 7, 67, 127
1, 431558, Note_off_c, 7, 43, 127
1, 431561, Note_on_c, 7, 55, 127
1, 431561, Note_on_c, 5, 65, 127
1, 431652, Note_off_c, 5, 65, 127
1, 431654, Note_on_c, 2, 74, 127
1, 431745, Note_off_c, 2, 74, 127
1, 431748, Note_on_c, 12, 71, 127
1, 431839, Note_off_c, 12, 71, 127
1, 431841, Note_on_c, 7, 67, 127
1, 431932, Note_off_c, 7, 67, 127
1, 431932, Note_off_c, 7, 55, 127
1, 431935, Note_on_c, 7, 43, 127
1, 431935, Note_on_c, 5, 65, 127
1, 432026, Note_off_c, 5, 65, 127
1, 432028, Note_on_c, 2, 74, 127
1, 432119, Note_off_c, 2, 74, 127
1, 432121, Note_on_c, 12, 71, 127
1, 432212, Note_off_c, 12, 71, 127
1, 432215, Note_on_c, 5, 65, 127
1, 432306, Note_off_c, 5, 65, 127
1, 432308, Note_on_c, 4, 64, 127
1, 432399, Note_off_c, 4, 64, 127
1, 432402, Note_on_c, 0, 72, 127
1, 432493, Note_off_c, 0, 72, 127
1, 432495, Note_on_c, 7, 67, 127
1, 432586, Note_off_c, 7, 67, 127
1, 432589, Note_on_c, 4, 64, 127
1, 432680, Note_off_c, 4, 64, 127
1, 432680, Note_off_c, 7, 43, 127
1, 432682, Note_on_c, 7, 55, 127
1, 432682, Note_on_c, 0, 60, 127
1, 432773, Note_off_c, 0, 60, 127
1, 432776, Note_on_c, 7, 67, 127
1, 432867, Note_off_c, 7, 67, 127
1, 432869, Note_on_c, 4, 64, 127
1, 432960, Note_off_c, 4, 64, 127
1, 432963, Note_on_c, 0, 60, 127
1, 433053, Note_off_c, 7, 55, 127
1, 433054, Note_off_c, 0, 60, 127
1, 433056, Note_on_c, 7, 43, 127
1, 433056, Note_on_c, 12, 59, 127
1, 433147, Note_off_c, 12, 59, 127
1, 433149, Note_on_c, 0, 60, 127
1, 433240, Note_off_c, 0, 60, 127
1, 433243, Note_on_c, 2, 62, 127
1, 433334, Note_off_c, 2, 62, 127
1, 433336, Note_on_c, 4, 64, 127
1, 433427, Note_off_c, 4, 64, 127
1, 433430, Note_on_c, 6, 66, 127
1, 433523, Note_on_c, 3, 63, 127
1, 433614, Note_off_c, 3, 63, 127
1, 433617, Note_on_c, 2, 62, 127
1, 433708, Note_off_c, 2, 62, 127
1, 433710, Note_on_c, 0, 60, 127
1, 433801, Note_off_c, 0, 60, 127
1, 433801, Note_off_c, 7, 43, 127
1, 433804, Note_on_c, 7, 55, 127
1, 433804, Note_on_c, 10, 57, 127
1, 433895, Note_off_c, 10, 57, 127
1, 433897, Note_on_c, 0, 60, 127
1, 433988, Note_off_c, 0, 60, 127
1, 433990, Note_on_c, 2, 62, 127
1, 434081, Note_off_c, 2, 62, 127
1, 434084, Note_on_c, 3, 63, 127
1, 434169, Note_off_c, 6, 66, 127
1, 434175, Note_off_c, 3, 63, 127
1, 434175, Note_off_c, 7, 55, 127
1, 434177, Note_on_c, 7, 43, 127
1, 434177, Note_on_c, 6, 66, 127
1, 434268, Note_off_c, 6, 66, 127
1, 434271, Note_on_c, 3, 63, 127
1, 434362, Note_off_c, 3, 63, 127
1, 434364, Note_on_c, 2, 62, 127
1, 434455, Note_off_c, 2, 62, 127
1, 434458, Note_on_c, 0, 60, 127
1, 434549, Note_off_c, 0, 60, 127
1, 434551, Note_on_c, 5, 65, 127
1, 434645, Note_on_c, 2, 62, 127
1, 434736, Note_off_c, 2, 62, 127
1, 434738, Note_on_c, 0, 60, 127
1, 434829, Note_off_c, 0, 60, 127
1, 434832, Note_on_c, 12, 59, 127
1, 434922, Note_off_c, 7, 43, 127
1, 434923, Note_off_c, 12, 59, 127
1, 434925, Note_on_c, 7, 55, 127
1, 434925, Note_on_c, 12, 59, 127
1, 434925, Note_on_c, 8, 56, 127
1, 435016, Note_off_c, 8, 56, 127
1, 435016, Note_off_c, 12, 59, 127
1, 435018, Note_on_c, 12, 59, 127
1, 435109, Note_off_c, 12, 59, 127
1, 435112, Note_on_c, 0, 60, 127
1, 435203, Note_off_c, 0, 60, 127
1, 435205, Note_on_c, 2, 62, 127
1, 435212, Note_off_c, 5, 65, 127
1, 435295, Note_off_c, 2, 62, 127
1, 435295, Note_off_c, 7, 55, 127
1, 435298, Note_on_c, 7, 43, 127
1, 435298, Note_on_c, 5, 65, 127
1, 435389, Note_off_c, 5, 65, 127
1, 435391, Note_on_c, 2, 62, 127
1, 435482, Note_off_c, 2, 62, 127
1, 435485, Note_on_c, 0, 60, 127
1, 435576, Note_off_c, 0, 60, 127
1, 435578, Note_on_c, 12, 59, 127
1, 435669, Note_off_c, 12, 59, 127
1, 435672, Note_on_c, 3, 63, 127
1, 435765, Note_on_c, 0, 60, 127
1, 435856, Note_off_c, 0, 60, 127
1, 435858, Note_on_c, 12, 59, 127
1, 435949, Note_off_c, 12, 59, 127
1, 435952, Note_on_c, 10, 57, 127
1, 436043, Note_off_c, 10, 57, 127
1, 436043, Note_off_c, 7, 43, 127
1, 436045, Note_on_c, 7, 55, 127
1, 436045, Note_on_c, 6, 54, 127
1, 436136, Note_off_c, 6, 54, 127
1, 436139, Note_on_c, 10, 57, 127
1, 436230, Note_off_c, 10, 57, 127
1, 436232, Note_on_c, 12, 59, 127
1, 436255, Note_off_c, 3, 63, 127
1, 436323, Note_off_c, 12, 59, 127
1, 436326, Note_on_c, 0, 60, 127
1, 436416, Note_off_c, 7, 55, 127
1, 436417, Note_off_c, 0, 60, 127
1, 436419, Note_on_c, 7, 43, 127
1, 436419, Note_on_c, 3, 63, 127
1, 436510, Note_off_c, 3, 63, 127
1, 436513, Note_on_c, 0, 60, 127
1, 436604, Note_off_c, 0, 60, 127
1, 436606, Note_on_c, 12, 59, 127
1, 436697, Note_off_c, 12, 59, 127
1, 436699, Note_on_c, 10, 57, 127
1, 436790, Note_off_c, 10, 57, 127
1, 436793, Note_on_c, 6, 66, 127
1, 436884, Note_off_c, 6, 66, 127
1, 436886, Note_on_c, 3, 63, 127
1, 436977, Note_off_c, 3, 63, 127
1, 436980, Note_on_c, 2, 62, 127
1, 437071, Note_off_c, 2, 62, 127
1, 437073, Note_on_c, 0, 60, 127
1, 437164, Note_off_c, 0, 60, 127
1, 437164, Note_off_c, 7, 43, 127
1, 437167, Note_on_c, 2, 50, 127
1, 437167, Note_on_c, 8, 68, 127
1, 437258, Note_off_c, 8, 68, 127
1, 437260, Note_on_c, 5, 65, 127
1, 437351, Note_off_c, 5, 65, 127
1, 437354, Note_on_c, 3, 63, 127
1, 437445, Note_off_c, 3, 63, 127
1, 437447, Note_on_c, 2, 62, 127
1, 437538, Note_off_c, 2, 62, 127
1, 437538, Note_off_c, 2, 50, 127
1, 437541, Note_on_c, 5, 41, 127
1, 437541, Note_on_c, 12, 71, 127
1, 437632, Note_off_c, 12, 71, 127
1, 437634, Note_on_c, 8, 68, 127
1, 437725, Note_off_c, 8, 68, 127
1, 437727, Note_on_c, 7, 67, 127
1, 437818, Note_off_c, 7, 67, 127
1, 437821, Note_on_c, 5, 65, 127
1, 437903, Note_off_c, 5, 65, 127
1, 437911, Note_off_c, 5, 41, 127
1, 437913, Note_on_c, 4, 40, 127
1, 437913, Note_on_c, 0, 72, 127
1, 438004, Note_off_c, 0, 72, 127
1, 438007, Note_on_c, 12, 71, 127
1, 438098, Note_off_c, 12, 71, 127
1, 438100, Note_on_c, 0, 72, 127
1, 438283, Note_off_c, 4, 40, 127
1, 438286, Note_on_c, 5, 41, 127
1, 438429, Note_off_c, 0, 72, 127
1, 438473, Note_on_c, 4, 76, 127
1, 438656, Note_off_c, 4, 76, 127
1, 438656, Note_off_c, 5, 41, 127
1, 438659, Note_on_c, 7, 43, 127
1, 438659, Note_on_c, 7, 67, 127
1, 438842, Note_off_c, 7, 67, 127
1, 438845, Note_on_c, 12, 71, 127
1, 439028, Note_off_c, 12, 71, 127
1, 439028, Note_off_c, 7, 43, 127
1, 439030, Note_on_c, 0, 36, 127
1, 439030, Note_on_c, 0, 72, 127
1, 439398, Note_off_c, 0, 72, 127
1, 439400, Note_off_c, 0, 36, 127
1, 439403, Note_on_c, 0, 48, 127
1, 439589, Note_on_c, 4, 76, 127
1, 439680, Note_off_c, 4, 76, 127
1, 439683, Note_on_c, 2, 74, 127
1, 439773, Note_off_c, 0, 48, 127
1, 439774, Note_off_c, 2, 74, 127
1, 439776, Note_on_c, 4, 52, 127
1, 439776, Note_on_c, 0, 72, 127
1, 439867, Note_off_c, 0, 72, 127
1, 439869, Note_on_c, 12, 71, 127
1, 439960, Note_off_c, 12, 71, 127
1, 439963, Note_on_c, 10, 69, 127
1, 440146, Note_off_c, 4, 52, 127
1, 440149, Note_on_c, 1, 49, 127
1, 440240, Note_off_c, 10, 69, 127
1, 440242, Note_on_c, 11, 70, 127
1, 440333, Note_off_c, 11, 70, 127
1, 440336, Note_on_c, 7, 67, 127
1, 440519, Note_off_c, 1, 49, 127
1, 440521, Note_on_c, 10, 45, 127
1, 440613, Note_off_c, 7, 67, 127
1, 440615, Note_on_c, 10, 69, 127
1, 440706, Note_off_c, 10, 69, 127
1, 440708, Note_on_c, 5, 65, 127
1, 440891, Note_off_c, 10, 45, 127
1, 440894, Note_on_c, 10, 57, 127
1, 440985, Note_off_c, 5, 65, 127
1, 440988, Note_on_c, 7, 67, 127
1, 441079, Note_off_c, 7, 67, 127
1, 441081, Note_on_c, 4, 64, 127
1, 441264, Note_off_c, 10, 57, 127
1, 441267, Note_on_c, 2, 50, 127
1, 441358, Note_off_c, 4, 64, 127
1, 441360, Note_on_c, 5, 65, 127
1, 441451, Note_off_c, 5, 65, 127
1, 441454, Note_on_c, 2, 62, 127
1, 441637, Note_off_c, 2, 62, 127
1, 441637, Note_off_c, 2, 50, 127
1, 441640, Note_on_c, 12, 59, 127
1, 441826, Note_on_c, 2, 74, 127
1, 441917, Note_off_c, 2, 74, 127
1, 441919, Note_on_c, 4, 76, 127
1, 442010, Note_off_c, 4, 76, 127
1, 442010, Note_off_c, 12, 59, 127
1, 442012, Note_on_c, 10, 57, 127
1, 442012, Note_on_c, 5, 77, 127
1, 442103, Note_off_c, 5, 77, 127
1, 442106, Note_on_c, 4, 76, 127
1, 442197, Note_off_c, 4, 76, 127
1, 442199, Note_on_c, 2, 74, 127
1, 442382, Note_off_c, 2, 74, 127
1, 442382, Note_off_c, 10, 57, 127
1, 442385, Note_on_c, 8, 56, 127
1, 442385, Note_on_c, 12, 83, 127
1, 442476, Note_off_c, 12, 83, 127
1, 442479, Note_on_c, 4, 76, 127
1, 442570, Note_off_c, 4, 76, 127
1, 442572, Note_on_c, 5, 77, 127
1, 442755, Note_off_c, 8, 56, 127
1, 442758, Note_on_c, 4, 52, 127
1, 442849, Note_off_c, 5, 77, 127
1, 442851, Note_on_c, 4, 76, 127
1, 442942, Note_off_c, 4, 76, 127
1, 442945, Note_on_c, 2, 74, 127
1, 443128, Note_off_c, 4, 52, 127
1, 443131, Note_on_c, 4, 64, 127
1, 443222, Note_off_c, 2, 74, 127
1, 443224, Note_on_c, 0, 72, 127
1, 443315, Note_off_c, 0, 72, 127
1, 443318, Note_on_c, 12, 71, 127
1, 443501, Note_off_c, 12, 71, 127
1, 443501, Note_off_c, 4, 64, 127
1, 443503, Note_on_c, 10, 57, 127
1, 443503, Note_on_c, 0, 72, 127
1, 443594, Note_off_c, 0, 72, 127
1, 443597, Note_on_c, 12, 71, 127
1, 443688, Note_off_c, 12, 71, 127
1, 443690, Note_on_c, 10, 69, 127
1, 443873, Note_off_c, 10, 57, 127
1, 443876, Note_on_c, 6, 54, 127
1, 443899, Note_off_c, 10, 69, 127
1, 444062, Note_on_c, 3, 75, 127
1, 444153, Note_off_c, 3, 75, 127
1, 444156, Note_on_c, 4, 76, 127
1, 444246, Note_off_c, 6, 54, 127
1, 444247, Note_off_c, 4, 76, 127
1, 444249, Note_on_c, 4, 52, 127
1, 444249, Note_on_c, 6, 78, 127
1, 444340, Note_off_c, 6, 78, 127
1, 444342, Note_on_c, 7, 79, 127
1, 444433, Note_off_c, 7, 79, 127
1, 444436, Note_on_c, 10, 81, 127
1, 444619, Note_off_c, 4, 52, 127
1, 444622, Note_on_c, 3, 51, 127
1, 444713, Note_off_c, 10, 81, 127
1, 444715, Note_on_c, 12, 83, 127
1, 444806, Note_off_c, 12, 83, 127
1, 444809, Note_on_c, 0, 84, 127
1, 444992, Note_off_c, 3, 51, 127
1, 444994, Note_on_c, 6, 54, 127
1, 445086, Note_off_c, 0, 84, 127
1, 445088, Note_on_c, 12, 83, 127
1, 445179, Note_off_c, 12, 83, 127
1, 445181, Note_on_c, 10, 81, 127
1, 445364, Note_off_c, 6, 54, 127
1, 445367, Note_on_c, 12, 47, 127
1, 445458, Note_off_c, 10, 81, 127
1, 445461, Note_on_c, 7, 79, 127
1, 445552, Note_off_c, 7, 79, 127
1, 445554, Note_on_c, 6, 78, 127
1, 445709, Note_off_c, 6, 78, 127
1, 445738, Note_off_c, 12, 47, 127
1, 445741, Note_on_c, 4, 52, 127
1, 445741, Note_on_c, 7, 79, 127
1, 445832, Note_off_c, 7, 79, 127
1, 445834, Note_on_c, 6, 78, 127
1, 445925, Note_off_c, 6, 78, 127
1, 445928, Note_on_c, 7, 79, 127
1, 446111, Note_off_c, 4, 52, 127
1, 446114, Note_on_c, 2, 62, 127
1, 446283, Note_off_c, 7, 79, 127
1, 446300, Note_on_c, 12, 71, 127
1, 446483, Note_off_c, 2, 62, 127
1, 446485, Note_on_c, 0, 60, 127
1, 446669, Note_off_c, 12, 71, 127
1, 446671, Note_on_c, 10, 69, 127
1, 446841, Note_off_c, 10, 69, 127
1, 446854, Note_off_c, 0, 60, 127
1, 446857, Note_on_c, 2, 50, 127
1, 446857, Note_on_c, 6, 78, 127
1, 446948, Note_off_c, 6, 78, 127
1, 446951, Note_on_c, 4, 76, 127
1, 447042, Note_off_c, 4, 76, 127
1, 447044, Note_on_c, 6, 78, 127
1, 447227, Note_off_c, 2, 50, 127
1, 447230, Note_on_c, 0, 60, 127
1, 447399, Note_off_c, 6, 78, 127
1, 447416, Note_on_c, 10, 69, 127
1, 447599, Note_off_c, 0, 60, 127
1, 447602, Note_on_c, 12, 59, 127
1, 447785, Note_off_c, 10, 69, 127
1, 447787, Note_on_c, 7, 67, 127
1, 447957, Note_off_c, 7, 67, 127
1, 447971, Note_off_c, 12, 59, 127
1, 447973, Note_on_c, 0, 48, 127
1, 447973, Note_on_c, 4, 76, 127
1, 448064, Note_off_c, 4, 76, 127
1, 448067, Note_on_c, 3, 75, 127
1, 448158, Note_off_c, 3, 75, 127
1, 448160, Note_on_c, 4, 76, 127
1, 448343, Note_off_c, 0, 48, 127
1, 448346, Note_on_c, 12, 59, 127
1, 448515, Note_off_c, 4, 76, 127
1, 448532, Note_on_c, 7, 67, 127
1, 448715, Note_off_c, 12, 59, 127
1, 448718, Note_on_c, 10, 57, 127
1, 448901, Note_off_c, 7, 67, 127
1, 448904, Note_on_c, 6, 66, 127
1, 449074, Note_off_c, 6, 66, 127
1, 449087, Note_off_c, 10, 57, 127
1, 449089, Note_on_c, 12, 47, 127
1, 449089, Note_on_c, 3, 75, 127
1, 449183, Note_on_c, 12, 71, 127
1, 449264, Note_off_c, 3, 75, 127
1, 449274, Note_off_c, 12, 71, 127
1, 449276, Note_on_c, 0, 72, 127
1, 449367, Note_off_c, 0, 72, 127
1, 449370, Note_on_c, 12, 71, 127
1, 449460, Note_off_c, 12, 47, 127
1, 449461, Note_off_c, 12, 71, 127
1, 449463, Note_on_c, 1, 61, 127
1, 449463, Note_on_c, 4, 76, 127
1, 449557, Note_on_c, 12, 71, 127
1, 449648, Note_off_c, 12, 71, 127
1, 449650, Note_on_c, 0, 72, 127
1, 449696, Note_off_c, 4, 76, 127
1, 449740, Note_off_c, 0, 72, 127
1, 449743, Note_on_c, 12, 71, 127
1, 449833, Note_off_c, 1, 61, 127
1, 449834, Note_off_c, 12, 71, 127
1, 449836, Note_on_c, 3, 63, 127
1, 449836, Note_on_c, 6, 78, 127
1, 449929, Note_on_c, 12, 71, 127
1, 450020, Note_off_c, 12, 71, 127
1, 450023, Note_on_c, 0, 72, 127
1, 450114, Note_off_c, 0, 72, 127
1, 450116, Note_on_c, 12, 71, 127
1, 450147, Note_off_c, 6, 78, 127
1, 450207, Note_off_c, 12, 71, 127
1, 450207, Note_off_c, 3, 63, 127
1, 450210, Note_on_c, 12, 47, 127
1, 450210, Note_on_c, 7, 79, 127
1, 450303, Note_on_c, 4, 76, 127
1, 450394, Note_off_c, 4, 76, 127
1, 450397, Note_on_c, 3, 75, 127
1, 450488, Note_off_c, 3, 75, 127
1, 450490, Note_on_c, 1, 73, 127
1, 450581, Note_off_c, 1, 73, 127
1, 450581, Note_off_c, 12, 47, 127
1, 450584, Note_on_c, 4, 64, 127
1, 450584, Note_on_c, 12, 71, 127
1, 450675, Note_off_c, 12, 71, 127
1, 450677, Note_off_c, 7, 79, 127
1, 450677, Note_on_c, 4, 76, 127
1, 450768, Note_off_c, 4, 76, 127
1, 450771, Note_on_c, 6, 78, 127
1, 450862, Note_off_c, 6, 78, 127
1, 450864, Note_on_c, 7, 79, 127
1, 450955, Note_off_c, 7, 79, 127
1, 450955, Note_off_c, 4, 64, 127
1, 450957, Note_on_c, 6, 66, 127
1, 450957, Note_on_c, 3, 75, 127
1, 451048, Note_off_c, 3, 75, 127
1, 451051, Note_on_c, 6, 78, 127
1, 451142, Note_off_c, 6, 78, 127
1, 451144, Note_on_c, 7, 79, 127
1, 451235, Note_off_c, 7, 79, 127
1, 451238, Note_on_c, 10, 81, 127
1, 451328, Note_off_c, 6, 66, 127
1, 451329, Note_off_c, 10, 81, 127
1, 451331, Note_on_c, 12, 47, 127
1, 451331, Note_on_c, 7, 79, 127
1, 451422, Note_off_c, 7, 79, 127
1, 451425, Note_on_c, 12, 83, 127
1, 451516, Note_off_c, 12, 83, 127
1, 451518, Note_on_c, 4, 76, 127
1, 451701, Note_off_c, 12, 47, 127
1, 451704, Note_on_c, 6, 66, 127
1, 451795, Note_off_c, 4, 76, 127
1, 451797, Note_on_c, 6, 78, 127
1, 451888, Note_off_c, 6, 78, 127
1, 451891, Note_on_c, 4, 76, 127
1, 451982, Note_off_c, 4, 76, 127
1, 451984, Note_on_c, 2, 74, 127
1, 452075, Note_off_c, 6, 66, 127
1, 452078, Note_on_c, 4, 64, 127
1, 452168, Note_off_c, 2, 74, 127
1, 452171, Note_on_c, 4, 76, 127
1, 452262, Note_off_c, 4, 76, 127
1, 452265, Note_on_c, 2, 74, 127
1, 452356, Note_off_c, 2, 74, 127
1, 452358, Note_on_c, 0, 72, 127
1, 452449, Note_off_c, 4, 64, 127
1, 452452, Note_on_c, 2, 62, 127
1, 452542, Note_off_c, 0, 72, 127
1, 452545, Note_on_c, 2, 74, 127
1, 452636, Note_off_c, 2, 74, 127
1, 452638, Note_on_c, 0, 72, 127
1, 452729, Note_off_c, 0, 72, 127
1, 452732, Note_on_c, 12, 71, 127
1, 452823, Note_off_c, 2, 62, 127
1, 452825, Note_on_c, 0, 60, 127
1, 452916, Note_off_c, 12, 71, 127
1, 452919, Note_on_c, 0, 72, 127
1, 453010, Note_off_c, 0, 72, 127
1, 453012, Note_on_c, 12, 71, 127
1, 453103, Note_off_c, 12, 71, 127
1, 453106, Note_on_c, 10, 69, 127
1, 453196, Note_off_c, 0, 60, 127
1, 453199, Note_on_c, 12, 59, 127
1, 453290, Note_off_c, 10, 69, 127
1, 453293, Note_on_c, 12, 71, 127
1, 453384, Note_off_c, 12, 71, 127
1, 453386, Note_on_c, 10, 69, 127
1, 453477, Note_off_c, 10, 69, 127
1, 453480, Note_on_c, 7, 67, 127
1, 453570, Note_off_c, 12, 59, 127
1, 453573, Note_on_c, 10, 57, 127
1, 453664, Note_off_c, 7, 67, 127
1, 453666, Note_on_c, 0, 72, 127
1, 453757, Note_off_c, 0, 72, 127
1, 453760, Note_on_c, 5, 65, 127
1, 453943, Note_off_c, 10, 57, 127
1, 453946, Note_on_c, 7, 55, 127
1, 454037, Note_off_c, 5, 65, 127
1, 454039, Note_on_c, 0, 72, 127
1, 454130, Note_off_c, 0, 72, 127
1, 454133, Note_on_c, 4, 64, 127
1, 454316, Note_off_c, 7, 55, 127
1, 454318, Note_on_c, 6, 54, 127
1, 454410, Note_off_c, 4, 64, 127
1, 454412, Note_on_c, 0, 72, 127
1, 454503, Note_off_c, 0, 72, 127
1, 454505, Note_on_c, 3, 63, 127
1, 454688, Note_off_c, 6, 54, 127
1, 454691, Note_on_c, 12, 59, 127
1, 454705, Note_off_c, 3, 63, 127
1, 454782, Note_on_c, 12, 47, 127
1, 454868, Note_off_c, 12, 59, 127
1, 454873, Note_off_c, 12, 47, 127
1, 454876, Note_on_c, 1, 49, 127
1, 454967, Note_off_c, 1, 49, 127
1, 454970, Note_on_c, 3, 51, 127
1, 455061, Note_off_c, 3, 51, 127
1, 455064, Note_on_c, 4, 52, 127
1, 455155, Note_off_c, 4, 52, 127
1, 455158, Note_on_c, 6, 54, 127
1, 455249, Note_off_c, 6, 54, 127
1, 455252, Note_on_c, 7, 55, 127
1, 455343, Note_off_c, 7, 55, 127
1, 455345, Note_on_c, 10, 57, 127
1, 455436, Note_off_c, 10, 57, 127
1, 455439, Note_on_c, 12, 59, 127
1, 455530, Note_off_c, 12, 59, 127
1, 455532, Note_on_c, 1, 61, 127
1, 455623, Note_off_c, 1, 61, 127
1, 455626, Note_on_c, 3, 63, 127
1, 455717, Note_off_c, 3, 63, 127
1, 455719, Note_on_c, 4, 64, 127
1, 455810, Note_off_c, 4, 64, 127
1, 455813, Note_on_c, 6, 66, 127
1, 455904, Note_off_c, 6, 66, 127
1, 455906, Note_on_c, 7, 67, 127
1, 455997, Note_off_c, 7, 67, 127
1, 456000, Note_on_c, 10, 69, 127
1, 456091, Note_off_c, 10, 69, 127
1, 456093, Note_on_c, 12, 71, 127
1, 456184, Note_off_c, 12, 71, 127
1, 456186, Note_on_c, 0, 72, 127
1, 456277, Note_off_c, 0, 72, 127
1, 456280, Note_on_c, 12, 71, 127
1, 456371, Note_off_c, 12, 71, 127
1, 456373, Note_on_c, 1, 73, 127
1, 456464, Note_off_c, 1, 73, 127
1, 456467, Note_on_c, 3, 75, 127
1, 456558, Note_off_c, 3, 75, 127
1, 456560, Note_on_c, 4, 76, 127
1, 456651, Note_off_c, 4, 76, 127
1, 456654, Note_on_c, 6, 78, 127
1, 456745, Note_off_c, 6, 78, 127
1, 456747, Note_on_c, 7, 79, 127
1, 456838, Note_off_c, 7, 79, 127
1, 456841, Note_on_c, 10, 81, 127
1, 456932, Note_off_c, 10, 81, 127
1, 456934, Note_on_c, 12, 83, 127
1, 457322, Note_on_c, 7, 43, 127
1, 457360, Note_off_c, 12, 83, 127
1, 457704, Note_off_c, 7, 43, 127
1, 457745, Note_on_c, 12, 47, 127
1, 457745, Note_on_c, 3, 75, 127
1, 457745, Note_on_c, 6, 66, 127
1, 457745, Note_on_c, 10, 69, 127
1, 457745, Note_on_c, 12, 71, 127
1, 458074, Note_off_c, 12, 71, 127
1, 458074, Note_off_c, 10, 69, 127
1, 458074, Note_off_c, 6, 66, 127
1, 458074, Note_off_c, 3, 75, 127
1, 458074, Note_off_c, 12, 47, 127
1, 458242, Note_on_c, 7, 67, 127
1, 458242, Note_on_c, 4, 40, 127
1, 458242, Note_on_c, 4, 64, 127
1, 458242, Note_on_c, 4, 76, 127
1, 458242, Note_on_c, 12, 71, 127
1, 459355, Note_off_c, 12, 71, 127
1, 459355, Note_off_c, 7, 67, 127
1, 459842, Note_off_c, 4, 64, 127
1, 459942, Note_off_c, 4, 76, 127
1, 460011, Note_off_c, 4, 40, 127
1, 460146, Note_on_c, 4, 64, 127
1, 460146, Note_on_c, 4, 52, 127
1, 460146, Note_on_c, 12, 59, 127
1, 460146, Note_on_c, 7, 55, 127
1, 460305, Note_off_c, 4, 64, 127
1, 460308, Note_on_c, 6, 66, 127
1, 460467, Note_off_c, 6, 66, 127
1, 460469, Note_on_c, 7, 67, 127
1, 460516, Note_off_c, 7, 55, 127
1, 460516, Note_off_c, 12, 59, 127
1, 460516, Note_off_c, 4, 52, 127
1, 460628, Note_off_c, 7, 67, 127
1, 460631, Note_on_c, 10, 69, 127
1, 460790, Note_off_c, 10, 69, 127
1, 460793, Note_on_c, 12, 71, 127
1, 460793, Note_on_c, 6, 54, 127
1, 460793, Note_on_c, 12, 59, 127
1, 460793, Note_on_c, 2, 50, 127
1, 460952, Note_off_c, 12, 71, 127
1, 460955, Note_on_c, 0, 72, 127
1, 461114, Note_off_c, 0, 72, 127
1, 461116, Note_on_c, 2, 74, 127
1, 461163, Note_off_c, 2, 50, 127
1, 461163, Note_off_c, 12, 59, 127
1, 461163, Note_off_c, 6, 54, 127
1, 461275, Note_off_c, 2, 74, 127
1, 461278, Note_on_c, 12, 71, 127
1, 461437, Note_off_c, 12, 71, 127
1, 461440, Note_on_c, 4, 76, 127
1, 461440, Note_on_c, 10, 57, 127
1, 461440, Note_on_c, 4, 52, 127
1, 461440, Note_on_c, 0, 48, 127
1, 461599, Note_off_c, 4, 76, 127
1, 461601, Note_on_c, 7, 79, 127
1, 461760, Note_off_c, 7, 79, 127
1, 461763, Note_on_c, 6, 78, 127
1, 461810, Note_off_c, 0, 48, 127
1, 461810, Note_off_c, 4, 52, 127
1, 461810, Note_off_c, 10, 57, 127
1, 461922, Note_off_c, 6, 78, 127
1, 461925, Note_on_c, 4, 76, 127
1, 462084, Note_off_c, 4, 76, 127
1, 462086, Note_on_c, 3, 75, 127
1, 462086, Note_on_c, 12, 59, 127
1, 462086, Note_on_c, 6, 54, 127
1, 462086, Note_on_c, 12, 47, 127
1, 462245, Note_off_c, 3, 75, 127
1, 462248, Note_on_c, 1, 73, 127
1, 462407, Note_off_c, 1, 73, 127
1, 462410, Note_on_c, 12, 71, 127
1, 462456, Note_off_c, 12, 47, 127
1, 462456, Note_off_c, 6, 54, 127
1, 462456, Note_off_c, 12, 59, 127
1, 462569, Note_off_c, 12, 71, 127
1, 462572, Note_on_c, 10, 69, 127
1, 462731, Note_off_c, 10, 69, 127
1, 462733, Note_on_c, 7, 67, 127
1, 462733, Note_on_c, 4, 52, 127
1, 462892, Note_off_c, 4, 52, 127
1, 462895, Note_on_c, 6, 54, 127
1, 463054, Note_off_c, 6, 54, 127
1, 463054, Note_off_c, 7, 67, 127
1, 463057, Note_on_c, 4, 76, 127
1, 463057, Note_on_c, 7, 55, 127
1, 463216, Note_off_c, 7, 55, 127
1, 463218, Note_on_c, 10, 57, 127
1, 463266, Note_off_c, 4, 76, 127
1, 463377, Note_off_c, 10, 57, 127
1, 463380, Note_on_c, 3, 75, 127
1, 463380, Note_on_c, 12, 59, 127
1, 463539, Note_off_c, 12, 59, 127
1, 463542, Note_on_c, 1, 61, 127
1, 463701, Note_off_c, 1, 61, 127
1, 463701, Note_off_c, 3, 75, 127
1, 463703, Note_on_c, 12, 83, 127
1, 463703, Note_on_c, 3, 63, 127
1, 463862, Note_off_c, 3, 63, 127
1, 463865, Note_on_c, 12, 59, 127
1, 463913, Note_off_c, 12, 83, 127
1, 464024, Note_off_c, 12, 59, 127
1, 464027, Note_on_c, 7, 79, 127
1, 464027, Note_on_c, 4, 64, 127
1, 464186, Note_off_c, 4, 64, 127
1, 464186, Note_off_c, 7, 79, 127
1, 464189, Note_on_c, 10, 81, 127
1, 464189, Note_on_c, 7, 67, 127
1, 464348, Note_off_c, 7, 67, 127
1, 464348, Note_off_c, 10, 81, 127
1, 464350, Note_on_c, 12, 83, 127
1, 464350, Note_on_c, 6, 66, 127
1, 464428, Note_off_c, 12, 83, 127
1, 464431, Note_on_c, 10, 81, 127
1, 464509, Note_off_c, 10, 81, 127
1, 464509, Note_off_c, 6, 66, 127
1, 464512, Note_on_c, 7, 79, 127
1, 464512, Note_on_c, 4, 64, 127
1, 464590, Note_off_c, 7, 79, 127
1, 464593, Note_on_c, 10, 81, 127
1, 464671, Note_off_c, 10, 81, 127
1, 464671, Note_off_c, 4, 64, 127
1, 464674, Note_on_c, 12, 83, 127
1, 464674, Note_on_c, 3, 63, 127
1, 464833, Note_off_c, 3, 63, 127
1, 464835, Note_on_c, 1, 61, 127
1, 464994, Note_off_c, 1, 61, 127
1, 464997, Note_on_c, 12, 59, 127
1, 465156, Note_off_c, 12, 59, 127
1, 465159, Note_on_c, 10, 57, 127
1, 465246, Note_off_c, 12, 83, 127
1, 465318, Note_off_c, 10, 57, 127
1, 465320, Note_on_c, 2, 74, 127
1, 465320, Note_on_c, 8, 56, 127
1, 465479, Note_off_c, 8, 56, 127
1, 465479, Note_off_c, 2, 74, 127
1, 465482, Note_on_c, 0, 72, 127
1, 465482, Note_on_c, 4, 52, 127
1, 465641, Note_off_c, 4, 52, 127
1, 465641, Note_off_c, 0, 72, 127
1, 465644, Note_on_c, 2, 74, 127
1, 465644, Note_on_c, 6, 54, 127
1, 465803, Note_off_c, 6, 54, 127
1, 465803, Note_off_c, 2, 74, 127
1, 465806, Note_on_c, 12, 83, 127
1, 465806, Note_on_c, 8, 56, 127
1, 465965, Note_off_c, 8, 56, 127
1, 465965, Note_off_c, 12, 83, 127
1, 465967, Note_on_c, 0, 72, 127
1, 465967, Note_on_c, 10, 57, 127
1, 466126, Note_off_c, 10, 57, 127
1, 466129, Note_on_c, 12, 59, 127
1, 466288, Note_off_c, 12, 59, 127
1, 466288, Note_off_c, 0, 72, 127
1, 466291, Note_on_c, 10, 81, 127
1, 466291, Note_on_c, 0, 60, 127
1, 466450, Note_off_c, 0, 60, 127
1, 466452, Note_on_c, 10, 57, 127
1, 466499, Note_off_c, 10, 81, 127
1, 466611, Note_off_c, 10, 57, 127
1, 466614, Note_on_c, 12, 71, 127
1, 466614, Note_on_c, 2, 62, 127
1, 466773, Note_off_c, 2, 62, 127
1, 466776, Note_on_c, 5, 65, 127
1, 466935, Note_off_c, 5, 65, 127
1, 466935, Note_off_c, 12, 71, 127
1, 466937, Note_on_c, 8, 80, 127
1, 466937, Note_on_c, 4, 64, 127
1, 467096, Note_off_c, 4, 64, 127
1, 467099, Note_on_c, 2, 62, 127
1, 467140, Note_off_c, 8, 80, 127
1, 467258, Note_off_c, 2, 62, 127
1, 467261, Note_on_c, 10, 81, 127
1, 467261, Note_on_c, 0, 60, 127
1, 467420, Note_off_c, 0, 60, 127
1, 467420, Note_off_c, 10, 81, 127
1, 467423, Note_on_c, 7, 79, 127
1, 467423, Note_on_c, 12, 59, 127
1, 467582, Note_off_c, 12, 59, 127
1, 467582, Note_off_c, 7, 79, 127
1, 467584, Note_on_c, 6, 78, 127
1, 467584, Note_on_c, 10, 57, 127
1, 467743, Note_off_c, 10, 57, 127
1, 467743, Note_off_c, 6, 78, 127
1, 467746, Note_on_c, 4, 76, 127
1, 467746, Note_on_c, 7, 55, 127
1, 467905, Note_off_c, 7, 55, 127
1, 467905, Note_off_c, 4, 76, 127
1, 467908, Note_on_c, 2, 74, 127
1, 467908, Note_on_c, 6, 54, 127
1, 468067, Note_off_c, 6, 54, 127
1, 468067, Note_off_c, 2, 74, 127
1, 468069, Note_on_c, 0, 72, 127
1, 468069, Note_on_c, 2, 50, 127
1, 468228, Note_off_c, 2, 50, 127
1, 468228, Note_off_c, 0, 72, 127
1, 468231, Note_on_c, 12, 71, 127
1, 468231, Note_on_c, 4, 52, 127
1, 468390, Note_off_c, 4, 52, 127
1, 468390, Note_off_c, 12, 71, 127
1, 468393, Note_on_c, 10, 69, 127
1, 468393, Note_on_c, 6, 54, 127
1, 468552, Note_off_c, 6, 54, 127
1, 468552, Note_off_c, 10, 69, 127
1, 468554, Note_on_c, 12, 71, 127
1, 468554, Note_on_c, 7, 55, 127
1, 468713, Note_off_c, 7, 55, 127
1, 468716, Note_on_c, 10, 57, 127
1, 468875, Note_off_c, 10, 57, 127
1, 468875, Note_off_c, 12, 71, 127
1, 468878, Note_on_c, 7, 79, 127
1, 468878, Note_on_c, 12, 59, 127
1, 469037, Note_off_c, 12, 59, 127
1, 469040, Note_on_c, 7, 55, 127
1, 469120, Note_off_c, 7, 79, 127
1, 469199, Note_off_c, 7, 55, 127
1, 469201, Note_on_c, 10, 69, 127
1, 469201, Note_on_c, 0, 60, 127
1, 469360, Note_off_c, 0, 60, 127
1, 469363, Note_on_c, 4, 64, 127
1, 469522, Note_off_c, 4, 64, 127
1, 469522, Note_off_c, 10, 69, 127
1, 469525, Note_on_c, 6, 78, 127
1, 469525, Note_on_c, 2, 62, 127
1, 469684, Note_off_c, 2, 62, 127
1, 469686, Note_on_c, 0, 60, 127
1, 469753, Note_off_c, 6, 78, 127
1, 469845, Note_off_c, 0, 60, 127
1, 469848, Note_on_c, 7, 79, 127
1, 469848, Note_on_c, 12, 59, 127
1, 470007, Note_off_c, 12, 59, 127
1, 470007, Note_off_c, 7, 79, 127
1, 470010, Note_on_c, 6, 78, 127
1, 470010, Note_on_c, 10, 57, 127
1, 470169, Note_off_c, 10, 57, 127
1, 470169, Note_off_c, 6, 78, 127
1, 470171, Note_on_c, 4, 76, 127
1, 470171, Note_on_c, 7, 55, 127
1, 470330, Note_off_c, 7, 55, 127
1, 470330, Note_off_c, 4, 76, 127
1, 470333, Note_on_c, 2, 74, 127
1, 470333, Note_on_c, 6, 54, 127
1, 470492, Note_off_c, 6, 54, 127
1, 470492, Note_off_c, 2, 74, 127
1, 470495, Note_on_c, 0, 72, 127
1, 470495, Note_on_c, 4, 52, 127
1, 470654, Note_off_c, 4, 52, 127
1, 470654, Note_off_c, 0, 72, 127
1, 470657, Note_on_c, 12, 71, 127
1, 470657, Note_on_c, 7, 55, 127
1, 470816, Note_off_c, 7, 55, 127
1, 470816, Note_off_c, 12, 71, 127
1, 470818, Note_on_c, 0, 72, 127
1, 470818, Note_on_c, 6, 54, 127
1, 470977, Note_off_c, 6, 54, 127
1, 470977, Note_off_c, 0, 72, 127
1, 470980, Note_on_c, 10, 81, 127
1, 470980, Note_on_c, 4, 52, 127
1, 471139, Note_off_c, 4, 52, 127
1, 471139, Note_off_c, 10, 81, 127
1, 471142, Note_on_c, 12, 71, 127
1, 471142, Note_on_c, 2, 50, 127
1, 471301, Note_off_c, 2, 50, 127
1, 471301, Note_off_c, 12, 71, 127
1, 471303, Note_on_c, 10, 69, 127
1, 471303, Note_on_c, 6, 54, 127
1, 471462, Note_off_c, 6, 54, 127
1, 471462, Note_off_c, 10, 69, 127
1, 471465, Note_on_c, 12, 71, 127
1, 471465, Note_on_c, 4, 52, 127
1, 471624, Note_off_c, 4, 52, 127
1, 471624, Note_off_c, 12, 71, 127
1, 471627, Note_on_c, 7, 79, 127
1, 471627, Note_on_c, 2, 50, 127
1, 471786, Note_off_c, 2, 50, 127
1, 471786, Note_off_c, 7, 79, 127
1, 471788, Note_on_c, 10, 69, 127
1, 471788, Note_on_c, 0, 48, 127
1, 471947, Note_off_c, 0, 48, 127
1, 471947, Note_off_c, 10, 69, 127
1, 471950, Note_on_c, 7, 67, 127
1, 471950, Note_on_c, 4, 52, 127
1, 472109, Note_off_c, 4, 52, 127
1, 472109, Note_off_c, 7, 67, 127
1, 472112, Note_on_c, 10, 69, 127
1, 472112, Note_on_c, 2, 50, 127
1, 472271, Note_off_c, 2, 50, 127
1, 472271, Note_off_c, 10, 69, 127
1, 472274, Note_on_c, 6, 78, 127
1, 472274, Note_on_c, 0, 48, 127
1, 472433, Note_off_c, 0, 48, 127
1, 472433, Note_off_c, 6, 78, 127
1, 472435, Note_on_c, 7, 67, 127
1, 472435, Note_on_c, 12, 47, 127
1, 472594, Note_off_c, 12, 47, 127
1, 472594, Note_off_c, 7, 67, 127
1, 472597, Note_on_c, 6, 66, 127
1, 472597, Note_on_c, 2, 50, 127
1, 472756, Note_off_c, 2, 50, 127
1, 472756, Note_off_c, 6, 66, 127
1, 472759, Note_on_c, 7, 67, 127
1, 472759, Note_on_c, 0, 48, 127
1, 472918, Note_off_c, 0, 48, 127
1, 472918, Note_off_c, 7, 67, 127
1, 472920, Note_on_c, 4, 76, 127
1, 472920, Note_on_c, 12, 47, 127
1, 473079, Note_off_c, 12, 47, 127
1, 473079, Note_off_c, 4, 76, 127
1, 473082, Note_on_c, 6, 66, 127
1, 473082, Note_on_c, 10, 45, 127
1, 473241, Note_off_c, 10, 45, 127
1, 473241, Note_off_c, 6, 66, 127
1, 473244, Note_on_c, 4, 64, 127
1, 473244, Note_on_c, 0, 48, 127
1, 473403, Note_off_c, 0, 48, 127
1, 473403, Note_off_c, 4, 64, 127
1, 473405, Note_on_c, 6, 66, 127
1, 473405, Note_on_c, 12, 47, 127
1, 473564, Note_off_c, 12, 47, 127
1, 473564, Note_off_c, 6, 66, 127
1, 473567, Note_on_c, 3, 75, 127
1, 473567, Note_on_c, 10, 45, 127
1, 473726, Note_off_c, 10, 45, 127
1, 473726, Note_off_c, 3, 75, 127
1, 473729, Note_on_c, 4, 64, 127
1, 473729, Note_on_c, 7, 43, 127
1, 473888, Note_off_c, 7, 43, 127
1, 473891, Note_on_c, 12, 47, 127
1, 474050, Note_off_c, 12, 47, 127
1, 474050, Note_off_c, 4, 64, 127
1, 474052, Note_on_c, 12, 83, 127
1, 474052, Note_on_c, 10, 45, 127
1, 474211, Note_off_c, 10, 45, 127
1, 474214, Note_on_c, 7, 43, 127
1, 474294, Note_off_c, 12, 83, 127
1, 474373, Note_off_c, 7, 43, 127
1, 474376, Note_on_c, 12, 71, 127
1, 474376, Note_on_c, 3, 75, 127
1, 474376, Note_on_c, 10, 45, 127
1, 474535, Note_off_c, 10, 45, 127
1, 474537, Note_on_c, 7, 43, 127
1, 474618, Note_off_c, 3, 75, 127
1, 474618, Note_off_c, 12, 71, 127
1, 474696, Note_off_c, 7, 43, 127
1, 474699, Note_on_c, 4, 76, 127
1, 474699, Note_on_c, 1, 73, 127
1, 474699, Note_on_c, 6, 42, 127
1, 474858, Note_off_c, 6, 42, 127
1, 474861, Note_on_c, 4, 40, 127
1, 474941, Note_off_c, 1, 73, 127
1, 474941, Note_off_c, 4, 76, 127
1, 475020, Note_off_c, 4, 40, 127
1, 475022, Note_on_c, 6, 78, 127
1, 475022, Note_on_c, 3, 75, 127
1, 475022, Note_on_c, 12, 47, 127
1, 475345, Note_on_c, 12, 35, 127
1, 475492, Note_off_c, 12, 47, 127
1, 475492, Note_off_c, 3, 75, 127
1, 475492, Note_off_c, 6, 78, 127
1, 475654, Note_off_c, 12, 35, 127
1, 475668, Note_on_c, 6, 66, 127
1, 475668, Note_on_c, 3, 63, 127
1, 475668, Note_on_c, 12, 59, 127
1, 475827, Note_off_c, 12, 59, 127
1, 475830, Note_on_c, 10, 57, 127
1, 475989, Note_off_c, 10, 57, 127
1, 475989, Note_off_c, 6, 66, 127
1, 475992, Note_on_c, 0, 72, 127
1, 475992, Note_on_c, 7, 55, 127
1, 476151, Note_off_c, 7, 55, 127
1, 476153, Note_on_c, 6, 54, 127
1, 476307, Note_off_c, 3, 63, 127
1, 476312, Note_off_c, 6, 54, 127
1, 476315, Note_on_c, 4, 64, 127
1, 476315, Note_on_c, 10, 57, 127
1, 476474, Note_off_c, 10, 57, 127
1, 476477, Note_on_c, 7, 55, 127
1, 476564, Note_off_c, 0, 72, 127
1, 476636, Note_off_c, 7, 55, 127
1, 476638, Note_on_c, 12, 71, 127
1, 476638, Note_on_c, 6, 54, 127
1, 476797, Note_off_c, 6, 54, 127
1, 476800, Note_on_c, 4, 52, 127
1, 476954, Note_off_c, 4, 64, 127
1, 476959, Note_off_c, 4, 52, 127
1, 476962, Note_on_c, 6, 66, 127
1, 476962, Note_on_c, 3, 51, 127
1, 477121, Note_off_c, 3, 51, 127
1, 477124, Note_on_c, 1, 49, 127
1, 477210, Note_off_c, 12, 71, 127
1, 477283, Note_off_c, 1, 49, 127
1, 477285, Note_on_c, 10, 69, 127
1, 477285, Note_on_c, 3, 51, 127
1, 477444, Note_off_c, 3, 51, 127
1, 477447, Note_on_c, 12, 47, 127
1, 477601, Note_off_c, 6, 66, 127
1, 477606, Note_off_c, 12, 47, 127
1, 477609, Note_on_c, 4, 64, 127
1, 477609, Note_on_c, 12, 59, 127
1, 477609, Note_on_c, 4, 52, 127
1, 477770, Note_on_c, 4, 40, 127
1, 477857, Note_off_c, 10, 69, 127
1, 477928, Note_off_c, 4, 52, 127
1, 477929, Note_off_c, 4, 40, 127
1, 477932, Note_on_c, 7, 67, 127
1, 477932, Note_on_c, 7, 43, 127
1, 478080, Note_off_c, 4, 64, 127
1, 478091, Note_off_c, 7, 43, 127
1, 478091, Note_off_c, 7, 67, 127
1, 478094, Note_on_c, 6, 66, 127
1, 478094, Note_on_c, 12, 47, 127
1, 478248, Note_off_c, 12, 59, 127
1, 478253, Note_off_c, 12, 47, 127
1, 478253, Note_off_c, 6, 66, 127
1, 478255, Note_on_c, 4, 64, 127
1, 478255, Note_on_c, 7, 67, 127
1, 478255, Note_on_c, 4, 52, 127
1, 478414, Note_off_c, 4, 52, 127
1, 478417, Note_on_c, 2, 50, 127
1, 478576, Note_off_c, 2, 50, 127
1, 478576, Note_off_c, 7, 67, 127
1, 478579, Note_on_c, 4, 76, 127
1, 478579, Note_on_c, 0, 48, 127
1, 478738, Note_off_c, 0, 48, 127
1, 478741, Note_on_c, 12, 47, 127
1, 478894, Note_off_c, 4, 64, 127
1, 478900, Note_off_c, 12, 47, 127
1, 478902, Note_on_c, 6, 66, 127
1, 478902, Note_on_c, 0, 48, 127
1, 479061, Note_off_c, 0, 48, 127
1, 479064, Note_on_c, 12, 47, 127
1, 479151, Note_off_c, 4, 76, 127
1, 479223, Note_off_c, 12, 47, 127
1, 479226, Note_on_c, 2, 74, 127
1, 479226, Note_on_c, 10, 45, 127
1, 479385, Note_off_c, 10, 45, 127
1, 479387, Note_on_c, 7, 43, 127
1, 479541, Note_off_c, 6, 66, 127
1, 479546, Note_off_c, 7, 43, 127
1, 479549, Note_on_c, 10, 69, 127
1, 479549, Note_on_c, 6, 42, 127
1, 479708, Note_off_c, 6, 42, 127
1, 479711, Note_on_c, 4, 40, 127
1, 479798, Note_off_c, 2, 74, 127
1, 479870, Note_off_c, 4, 40, 127
1, 479872, Note_on_c, 0, 72, 127
1, 479872, Note_on_c, 6, 42, 127
1, 480031, Note_off_c, 6, 42, 127
1, 480034, Note_on_c, 2, 38, 127
1, 480188, Note_off_c, 10, 69, 127
1, 480193, Note_off_c, 2, 38, 127
1, 480196, Note_on_c, 7, 67, 127
1, 480196, Note_on_c, 2, 62, 127
1, 480196, Note_on_c, 7, 43, 127
1, 480358, Note_on_c, 7, 31, 127
1, 480438, Note_off_c, 7, 43, 127
1, 480444, Note_off_c, 0, 72, 127
1, 480517, Note_off_c, 7, 31, 127
1, 480519, Note_on_c, 12, 71, 127
1, 480519, Note_on_c, 12, 35, 127
1, 480667, Note_off_c, 7, 67, 127
1, 480678, Note_off_c, 12, 35, 127
1, 480678, Note_off_c, 12, 71, 127
1, 480681, Note_on_c, 10, 69, 127
1, 480681, Note_on_c, 2, 38, 127
1, 480835, Note_off_c, 2, 62, 127
1, 480840, Note_off_c, 2, 38, 127
1, 480840, Note_off_c, 10, 69, 127
1, 480843, Note_on_c, 12, 71, 127
1, 480843, Note_on_c, 7, 43, 127
1, 481002, Note_off_c, 7, 43, 127
1, 481004, Note_on_c, 10, 45, 127
1, 481163, Note_off_c, 10, 45, 127
1, 481164, Note_off_c, 12, 71, 127
1, 481166, Note_on_c, 7, 79, 127
1, 481166, Note_on_c, 12, 47, 127
1, 481325, Note_off_c, 12, 47, 127
1, 481328, Note_on_c, 0, 48, 127
1, 481487, Note_off_c, 0, 48, 127
1, 481487, Note_off_c, 7, 79, 127
1, 481489, Note_on_c, 6, 78, 127
1, 481489, Note_on_c, 2, 50, 127
1, 481648, Note_off_c, 2, 50, 127
1, 481651, Note_on_c, 4, 52, 127
1, 481706, Note_off_c, 6, 78, 127
1, 481810, Note_off_c, 4, 52, 127
1, 481813, Note_on_c, 0, 84, 127
1, 481813, Note_on_c, 6, 54, 127
1, 481972, Note_off_c, 6, 54, 127
1, 481975, Note_on_c, 2, 50, 127
1, 482134, Note_off_c, 2, 50, 127
1, 482136, Note_on_c, 7, 55, 127
1, 482295, Note_off_c, 7, 55, 127
1, 482296, Note_off_c, 0, 84, 127
1, 482298, Note_on_c, 12, 83, 127
1, 482298, Note_on_c, 10, 57, 127
1, 482457, Note_off_c, 10, 57, 127
1, 482457, Note_off_c, 12, 83, 127
1, 482460, Note_on_c, 10, 81, 127
1, 482460, Note_on_c, 12, 59, 127
1, 482619, Note_off_c, 12, 59, 127
1, 482619, Note_off_c, 10, 81, 127
1, 482621, Note_on_c, 7, 79, 127
1, 482621, Note_on_c, 0, 60, 127
1, 482780, Note_off_c, 0, 60, 127
1, 482780, Note_off_c, 7, 79, 127
1, 482783, Note_on_c, 6, 78, 127
1, 482783, Note_on_c, 2, 62, 127
1, 482942, Note_off_c, 2, 62, 127
1, 482945, Note_on_c, 4, 64, 127
1, 483025, Note_off_c, 6, 78, 127
1, 483104, Note_off_c, 4, 64, 127
1, 483106, Note_on_c, 0, 72, 127
1, 483106, Note_on_c, 6, 66, 127
1, 483265, Note_off_c, 6, 66, 127
1, 483268, Note_on_c, 2, 62, 127
1, 483427, Note_off_c, 2, 62, 127
1, 483430, Note_on_c, 7, 67, 127
1, 483541, Note_off_c, 0, 72, 127
1, 483589, Note_off_c, 7, 67, 127
1, 483592, Note_on_c, 12, 71, 127
1, 483592, Note_on_c, 6, 66, 127
1, 483751, Note_off_c, 6, 66, 127
1, 483751, Note_off_c, 12, 71, 127
1, 483753, Note_on_c, 4, 76, 127
1, 483753, Note_on_c, 7, 67, 127
1, 483912, Note_off_c, 7, 67, 127
1, 483915, Note_on_c, 10, 69, 127
1, 484074, Note_off_c, 10, 69, 127
1, 484077, Note_on_c, 12, 71, 127
1, 484227, Note_off_c, 4, 76, 127
1, 484238, Note_on_c, 2, 74, 127
1, 484397, Note_off_c, 2, 74, 127
1, 484398, Note_off_c, 12, 71, 127
1, 484400, Note_on_c, 0, 72, 127
1, 484400, Note_on_c, 4, 52, 127
1, 484559, Note_off_c, 0, 72, 127
1, 484562, Note_on_c, 12, 71, 127
1, 484721, Note_off_c, 12, 71, 127
1, 484721, Note_off_c, 4, 52, 127
1, 484723, Note_on_c, 2, 74, 127
1, 484723, Note_on_c, 0, 48, 127
1, 484882, Note_off_c, 2, 74, 127
1, 484885, Note_on_c, 0, 72, 127
1, 485044, Note_off_c, 0, 72, 127
1, 485044, Note_off_c, 0, 48, 127
1, 485047, Note_on_c, 12, 71, 127
1, 485047, Note_on_c, 2, 50, 127
1, 485206, Note_off_c, 12, 71, 127
1, 485209, Note_on_c, 10, 69, 127
1, 485368, Note_off_c, 10, 69, 127
1, 485368, Note_off_c, 2, 50, 127
1, 485370, Note_on_c, 7, 67, 127
1, 485370, Note_on_c, 7, 43, 127
1, 485529, Note_off_c, 7, 43, 127
1, 485532, Note_on_c, 2, 38, 127
1, 485691, Note_off_c, 2, 38, 127
1, 485694, Note_on_c, 4, 40, 127
1, 485841, Note_off_c, 7, 67, 127
1, 485853, Note_off_c, 4, 40, 127
1, 485855, Note_on_c, 6, 42, 127
1, 486014, Note_off_c, 6, 42, 127
1, 486017, Note_on_c, 12, 59, 127
1, 486017, Note_on_c, 7, 43, 127
1, 486176, Note_off_c, 7, 43, 127
1, 486176, Note_off_c, 12, 59, 127
1, 486179, Note_on_c, 2, 62, 127
1, 486179, Note_on_c, 10, 45, 127
1, 486338, Note_off_c, 10, 45, 127
1, 486338, Note_off_c, 2, 62, 127
1, 486340, Note_on_c, 7, 67, 127
1, 486340, Note_on_c, 12, 47, 127
1, 486499, Note_off_c, 12, 47, 127
1, 486502, Note_on_c, 0, 48, 127
1, 486661, Note_off_c, 0, 48, 127
1, 486664, Note_on_c, 2, 50, 127
1, 486823, Note_off_c, 2, 50, 127
1, 486826, Note_on_c, 10, 45, 127
1, 486912, Note_off_c, 7, 67, 127
1, 486985, Note_off_c, 10, 45, 127
1, 486987, Note_on_c, 6, 66, 127
1, 486987, Note_on_c, 12, 47, 127
1, 487146, Note_off_c, 12, 47, 127
1, 487146, Note_off_c, 6, 66, 127
1, 487149, Note_on_c, 4, 64, 127
1, 487149, Note_on_c, 0, 48, 127
1, 487308, Note_off_c, 0, 48, 127
1, 487308, Note_off_c, 4, 64, 127
1, 487311, Note_on_c, 6, 66, 127
1, 487311, Note_on_c, 2, 50, 127
1, 487470, Note_off_c, 2, 50, 127
1, 487470, Note_off_c, 6, 66, 127
1, 487472, Note_on_c, 10, 69, 127
1, 487472, Note_on_c, 4, 52, 127
1, 487631, Note_off_c, 4, 52, 127
1, 487631, Note_off_c, 10, 69, 127
1, 487634, Note_on_c, 2, 74, 127
1, 487634, Note_on_c, 6, 54, 127
1, 487793, Note_off_c, 6, 54, 127
1, 487796, Note_on_c, 7, 55, 127
1, 487955, Note_off_c, 7, 55, 127
1, 487957, Note_on_c, 10, 57, 127
1, 488116, Note_off_c, 10, 57, 127
1, 488119, Note_on_c, 4, 52, 127
1, 488206, Note_off_c, 2, 74, 127
1, 488278, Note_off_c, 4, 52, 127
1, 488281, Note_on_c, 0, 72, 127
1, 488281, Note_on_c, 6, 54, 127
1, 488440, Note_off_c, 6, 54, 127
1, 488440, Note_off_c, 0, 72, 127
1, 488443, Note_on_c, 12, 71, 127
1, 488443, Note_on_c, 8, 56, 127
1, 488602, Note_off_c, 8, 56, 127
1, 488602, Note_off_c, 12, 71, 127
1, 488604, Note_on_c, 0, 72, 127
1, 488604, Note_on_c, 10, 57, 127
1, 488763, Note_off_c, 10, 57, 127
1, 488763, Note_off_c, 0, 72, 127
1, 488766, Note_on_c, 4, 76, 127
1, 488766, Note_on_c, 12, 59, 127
1, 488925, Note_off_c, 12, 59, 127
1, 488925, Note_off_c, 4, 76, 127
1, 488928, Note_on_c, 10, 81, 127
1, 488928, Note_on_c, 0, 60, 127
1, 489087, Note_off_c, 0, 60, 127
1, 489089, Note_on_c, 2, 62, 127
1, 489248, Note_off_c, 2, 62, 127
1, 489251, Note_on_c, 4, 64, 127
1, 489410, Note_off_c, 4, 64, 127
1, 489413, Note_on_c, 12, 59, 127
1, 489500, Note_off_c, 10, 81, 127
1, 489572, Note_off_c, 12, 59, 127
1, 489574, Note_on_c, 7, 79, 127
1, 489574, Note_on_c, 1, 61, 127
1, 489733, Note_off_c, 1, 61, 127
1, 489733, Note_off_c, 7, 79, 127
1, 489736, Note_on_c, 6, 78, 127
1, 489736, Note_on_c, 3, 63, 127
1, 489895, Note_off_c, 3, 63, 127
1, 489895, Note_off_c, 6, 78, 127
1, 489898, Note_on_c, 10, 81, 127
1, 489898, Note_on_c, 4, 64, 127
1, 490057, Note_off_c, 4, 64, 127
1, 490057, Note_off_c, 10, 81, 127
1, 490060, Note_on_c, 7, 79, 127
1, 490060, Note_on_c, 6, 66, 127
1, 490219, Note_off_c, 6, 66, 127
1, 490219, Note_off_c, 7, 79, 127
1, 490221, Note_on_c, 6, 78, 127
1, 490221, Note_on_c, 7, 67, 127
1, 490380, Note_off_c, 7, 67, 127
1, 490380, Note_off_c, 6, 78, 127
1, 490383, Note_on_c, 4, 76, 127
1, 490383, Note_on_c, 10, 69, 127
1, 490542, Note_off_c, 10, 69, 127
1, 490542, Note_off_c, 4, 76, 127
1, 490545, Note_on_c, 3, 75, 127
1, 490545, Note_on_c, 12, 71, 127
1, 490704, Note_off_c, 12, 71, 127
1, 490706, Note_on_c, 6, 78, 127
1, 490706, Note_on_c, 10, 69, 127
1, 490717, Note_off_c, 3, 75, 127
1, 490865, Note_off_c, 10, 69, 127
1, 490865, Note_off_c, 6, 78, 127
1, 490868, Note_on_c, 12, 71, 127
1, 490868, Note_on_c, 7, 67, 127
1, 491027, Note_off_c, 7, 67, 127
1, 491027, Note_off_c, 12, 71, 127
1, 491030, Note_on_c, 10, 69, 127
1, 491030, Note_on_c, 6, 66, 127
1, 491189, Note_off_c, 6, 66, 127
1, 491189, Note_off_c, 10, 69, 127
1, 491191, Note_on_c, 7, 67, 127
1, 491191, Note_on_c, 4, 64, 127
1, 491350, Note_off_c, 4, 64, 127
1, 491353, Note_on_c, 0, 60, 127
1, 491512, Note_off_c, 0, 60, 127
1, 491512, Note_off_c, 7, 67, 127
1, 491515, Note_on_c, 0, 84, 127
1, 491515, Note_on_c, 12, 59, 127
1, 491674, Note_off_c, 12, 59, 127
1, 491677, Note_on_c, 10, 57, 127
1, 491757, Note_off_c, 0, 84, 127
1, 491836, Note_off_c, 10, 57, 127
1, 491838, Note_on_c, 6, 66, 127
1, 491838, Note_on_c, 2, 62, 127
1, 491997, Note_off_c, 2, 62, 127
1, 492000, Note_on_c, 12, 59, 127
1, 492159, Note_off_c, 12, 59, 127
1, 492159, Note_off_c, 6, 66, 127
1, 492162, Note_on_c, 12, 83, 127
1, 492162, Note_on_c, 10, 57, 127
1, 492321, Note_off_c, 10, 57, 127
1, 492323, Note_on_c, 7, 55, 127
1, 492404, Note_off_c, 12, 83, 127
1, 492482, Note_off_c, 7, 55, 127
1, 492485, Note_on_c, 4, 64, 127
1, 492485, Note_on_c, 0, 60, 127
1, 492644, Note_off_c, 0, 60, 127
1, 492647, Note_on_c, 10, 57, 127
1, 492806, Note_off_c, 10, 57, 127
1, 492806, Note_off_c, 4, 64, 127
1, 492808, Note_on_c, 10, 81, 127
1, 492808, Note_on_c, 7, 55, 127
1, 492967, Note_off_c, 7, 55, 127
1, 492970, Note_on_c, 6, 54, 127
1, 493050, Note_off_c, 10, 81, 127
1, 493129, Note_off_c, 6, 54, 127
1, 493132, Note_on_c, 2, 62, 127
1, 493132, Note_on_c, 12, 59, 127
1, 493291, Note_off_c, 12, 59, 127
1, 493294, Note_on_c, 7, 55, 127
1, 493453, Note_off_c, 7, 55, 127
1, 493453, Note_off_c, 2, 62, 127
1, 493455, Note_on_c, 7, 79, 127
1, 493455, Note_on_c, 6, 54, 127
1, 493614, Note_off_c, 6, 54, 127
1, 493617, Note_on_c, 4, 52, 127
1, 493697, Note_off_c, 7, 79, 127
1, 493776, Note_off_c, 4, 52, 127
1, 493779, Note_on_c, 0, 60, 127
1, 493779, Note_on_c, 10, 57, 127
1, 493938, Note_off_c, 10, 57, 127
1, 493940, Note_on_c, 6, 54, 127
1, 494099, Note_off_c, 6, 54, 127
1, 494100, Note_off_c, 0, 60, 127
1, 494102, Note_on_c, 6, 78, 127
1, 494102, Note_on_c, 3, 51, 127
1, 494261, Note_off_c, 3, 51, 127
1, 494264, Note_on_c, 6, 54, 127
1, 494344, Note_off_c, 6, 78, 127
1, 494423, Note_off_c, 6, 54, 127
1, 494425, Note_on_c, 12, 59, 127
1, 494425, Note_on_c, 7, 55, 127
1, 494584, Note_off_c, 7, 55, 127
1, 494587, Note_on_c, 4, 52, 127
1, 494746, Note_off_c, 4, 52, 127
1, 494746, Note_off_c, 12, 59, 127
1, 494749, Note_on_c, 4, 76, 127
1, 494749, Note_on_c, 0, 48, 127
1, 494908, Note_off_c, 0, 48, 127
1, 494911, Note_on_c, 10, 45, 127
1, 494991, Note_off_c, 4, 76, 127
1, 495070, Note_off_c, 10, 45, 127
1, 495072, Note_on_c, 6, 66, 127
1, 495072, Note_on_c, 12, 47, 127
1, 495380, Note_off_c, 6, 66, 127
1, 495392, Note_off_c, 12, 47, 127
1, 495395, Note_on_c, 3, 75, 127
1, 495395, Note_on_c, 12, 35, 127
1, 495636, Note_off_c, 3, 75, 127
1, 495715, Note_off_c, 12, 35, 127
1, 495717, Note_on_c, 4, 76, 127
1, 495717, Note_on_c, 4, 40, 127
1, 495798, Note_on_c, 12, 71, 127
1, 495868, Note_off_c, 4, 76, 127
1, 495876, Note_off_c, 12, 71, 127
1, 495879, Note_on_c, 1, 73, 127
1, 495957, Note_off_c, 1, 73, 127
1, 495959, Note_on_c, 3, 75, 127
1, 496037, Note_off_c, 3, 75, 127
1, 496040, Note_on_c, 4, 76, 127
1, 496051, Note_off_c, 4, 40, 127
1, 496118, Note_off_c, 4, 76, 127
1, 496121, Note_on_c, 3, 75, 127
1, 496121, Note_on_c, 12, 59, 127
1, 496199, Note_off_c, 12, 59, 127
1, 496199, Note_off_c, 3, 75, 127
1, 496202, Note_on_c, 4, 76, 127
1, 496202, Note_on_c, 1, 61, 127
1, 496280, Note_off_c, 1, 61, 127
1, 496280, Note_off_c, 4, 76, 127
1, 496283, Note_on_c, 6, 78, 127
1, 496283, Note_on_c, 3, 63, 127
1, 496361, Note_off_c, 3, 63, 127
1, 496361, Note_off_c, 6, 78, 127
1, 496364, Note_on_c, 7, 79, 127
1, 496364, Note_on_c, 4, 64, 127
1, 496523, Note_off_c, 4, 64, 127
1, 496523, Note_off_c, 7, 79, 127
1, 496525, Note_on_c, 4, 76, 127
1, 496525, Note_on_c, 7, 67, 127
1, 496684, Note_off_c, 7, 67, 127
1, 496684, Note_off_c, 4, 76, 127
1, 496687, Note_on_c, 0, 72, 127
1, 496687, Note_on_c, 4, 64, 127
1, 496846, Note_off_c, 4, 64, 127
1, 496846, Note_off_c, 0, 72, 127
1, 496849, Note_on_c, 10, 69, 127
1, 496849, Note_on_c, 0, 60, 127
1, 497008, Note_off_c, 0, 60, 127
1, 497008, Note_off_c, 10, 69, 127
1, 497011, Note_on_c, 6, 78, 127
1, 497011, Note_on_c, 2, 62, 127
1, 497170, Note_off_c, 2, 62, 127
1, 497170, Note_off_c, 6, 78, 127
1, 497172, Note_on_c, 2, 74, 127
1, 497172, Note_on_c, 6, 66, 127
1, 497331, Note_off_c, 6, 66, 127
1, 497331, Note_off_c, 2, 74, 127
1, 497334, Note_on_c, 12, 71, 127
1, 497334, Note_on_c, 2, 62, 127
1, 497493, Note_off_c, 2, 62, 127
1, 497493, Note_off_c, 12, 71, 127
1, 497496, Note_on_c, 7, 67, 127
1, 497496, Note_on_c, 12, 59, 127
1, 497655, Note_off_c, 12, 59, 127
1, 497655, Note_off_c, 7, 67, 127
1, 497657, Note_on_c, 4, 76, 127
1, 497657, Note_on_c, 0, 60, 127
1, 497816, Note_off_c, 0, 60, 127
1, 497816, Note_off_c, 4, 76, 127
1, 497819, Note_on_c, 0, 72, 127
1, 497819, Note_on_c, 4, 64, 127
1, 497978, Note_off_c, 4, 64, 127
1, 497978, Note_off_c, 0, 72, 127
1, 497981, Note_on_c, 10, 69, 127
1, 497981, Note_on_c, 0, 60, 127
1, 498140, Note_off_c, 0, 60, 127
1, 498140, Note_off_c, 10, 69, 127
1, 498142, Note_on_c, 6, 66, 127
1, 498142, Note_on_c, 10, 57, 127
1, 498301, Note_off_c, 10, 57, 127
1, 498301, Note_off_c, 6, 66, 127
1, 498304, Note_on_c, 4, 76, 127
1, 498304, Note_on_c, 12, 59, 127
1, 498463, Note_off_c, 12, 59, 127
1, 498463, Note_off_c, 4, 76, 127
1, 498466, Note_on_c, 12, 71, 127
1, 498466, Note_on_c, 4, 64, 127
1, 498625, Note_off_c, 4, 64, 127
1, 498625, Note_off_c, 12, 71, 127
1, 498628, Note_on_c, 7, 67, 127
1, 498628, Note_on_c, 12, 59, 127
1, 498787, Note_off_c, 12, 59, 127
1, 498787, Note_off_c, 7, 67, 127
1, 498789, Note_on_c, 4, 64, 127
1, 498789, Note_on_c, 7, 55, 127
1, 498948, Note_off_c, 7, 55, 127
1, 498948, Note_off_c, 4, 64, 127
1, 498951, Note_on_c, 0, 72, 127
1, 498951, Note_on_c, 10, 57, 127
1, 499110, Note_off_c, 10, 57, 127
1, 499110, Note_off_c, 0, 72, 127
1, 499113, Note_on_c, 10, 69, 127
1, 499113, Note_on_c, 0, 60, 127
1, 499272, Note_off_c, 0, 60, 127
1, 499272, Note_off_c, 10, 69, 127
1, 499274, Note_on_c, 6, 66, 127
1, 499274, Note_on_c, 10, 57, 127
1, 499433, Note_off_c, 10, 57, 127
1, 499433, Note_off_c, 6, 66, 127
1, 499436, Note_on_c, 3, 63, 127
1, 499436, Note_on_c, 6, 54, 127
1, 499595, Note_off_c, 6, 54, 127
1, 499595, Note_off_c, 3, 63, 127
1, 499598, Note_on_c, 4, 64, 127
1, 499598, Note_on_c, 7, 55, 127
1, 499757, Note_off_c, 7, 55, 127
1, 499757, Note_off_c, 4, 64, 127
1, 499759, Note_on_c, 7, 67, 127
1, 499759, Note_on_c, 12, 59, 127
1, 499918, Note_off_c, 12, 59, 127
1, 499918, Note_off_c, 7, 67, 127
1, 499921, Note_on_c, 12, 71, 127
1, 499921, Note_on_c, 7, 55, 127
1, 500080, Note_off_c, 7, 55, 127
1, 500080, Note_off_c, 12, 71, 127
1, 500083, Note_on_c, 4, 76, 127
1, 500083, Note_on_c, 4, 52, 127
1, 500242, Note_off_c, 4, 52, 127
1, 500242, Note_off_c, 4, 76, 127
1, 500245, Note_on_c, 12, 71, 127
1, 500245, Note_on_c, 12, 59, 127
1, 500404, Note_off_c, 12, 71, 127
1, 500406, Note_on_c, 4, 76, 127
1, 500565, Note_off_c, 4, 76, 127
1, 500566, Note_off_c, 12, 59, 127
1, 500584, Note_on_c, 12, 47, 127
1, 500584, Note_on_c, 7, 79, 127
1, 500674, Note_on_c, 6, 78, 127
1, 500676, Note_off_c, 7, 79, 127
1, 500766, Note_off_c, 6, 78, 127
1, 500769, Note_on_c, 4, 76, 127
1, 500861, Note_off_c, 4, 76, 127
1, 500863, Note_on_c, 3, 75, 127
1, 500905, Note_off_c, 12, 47, 127
1, 500955, Note_off_c, 3, 75, 127
1, 500999, Note_on_c, 4, 52, 127
1, 500999, Note_on_c, 4, 76, 127
1, 501692, Note_on_c, 4, 40, 127
1, 502299, Note_off_c, 4, 52, 127
1, 503099, Note_off_c, 4, 76, 127
1, 503572, Note_off_c, 4, 40, 127
1, 506406, Note_on_c, 4, 52, 127
1, 506406, Note_on_c, 7, 55, 127
1, 506406, Note_on_c, 12, 59, 127
1, 506406, Note_on_c, 4, 64, 127
1, 506467, Note_on_c, 6, 66, 127
1, 506528, Note_on_c, 7, 67, 127
1, 506545, Note_off_c, 6, 66, 127
1, 507181, Note_off_c, 7, 67, 127
1, 507211, Note_off_c, 4, 64, 127
1, 507211, Note_off_c, 12, 59, 127
1, 507214, Note_on_c, 7, 67, 127
1, 507372, Note_off_c, 7, 67, 127
1, 507372, Note_off_c, 7, 55, 127
1, 507372, Note_off_c, 4, 52, 127
1, 507375, Note_on_c, 10, 57, 127
1, 507375, Note_on_c, 4, 52, 127
1, 507375, Note_on_c, 10, 45, 127
1, 507375, Note_on_c, 0, 48, 127
1, 507375, Note_on_c, 7, 67, 127
1, 507375, Note_on_c, 4, 64, 127
1, 507375, Note_on_c, 12, 59, 127
1, 508080, Note_off_c, 12, 59, 127
1, 508080, Note_on_c, 0, 60, 127
1, 508332, Note_off_c, 4, 64, 127
1, 508582, Note_off_c, 7, 67, 127
1, 508584, Note_on_c, 6, 66, 127
1, 508702, Note_off_c, 6, 66, 127
1, 508705, Note_on_c, 7, 67, 127
1, 508823, Note_off_c, 7, 67, 127
1, 508826, Note_on_c, 10, 69, 127
1, 509037, Note_off_c, 0, 60, 127
1, 509065, Note_off_c, 10, 69, 127
1, 509067, Note_on_c, 10, 69, 127
1, 509137, Note_off_c, 10, 45, 127
1, 509163, Note_off_c, 0, 48, 127
1, 509185, Note_off_c, 10, 69, 127
1, 509188, Note_off_c, 4, 52, 127
1, 509188, Note_on_c, 12, 71, 127
1, 509238, Note_off_c, 10, 57, 127
1, 509306, Note_off_c, 12, 71, 127
1, 509309, Note_on_c, 0, 72, 127
1, 509427, Note_off_c, 0, 72, 127
1, 509429, Note_on_c, 10, 69, 127
1, 509547, Note_off_c, 10, 69, 127
1, 509550, Note_on_c, 12, 71, 127
1, 509668, Note_off_c, 12, 71, 127
1, 509671, Note_on_c, 0, 72, 127
1, 509789, Note_off_c, 0, 72, 127
1, 509792, Note_on_c, 3, 75, 127
1, 509912, Note_on_c, 10, 69, 127
1, 510018, Note_off_c, 3, 75, 127
1, 510033, Note_on_c, 12, 71, 127
1, 510151, Note_off_c, 12, 71, 127
1, 510154, Note_on_c, 0, 72, 127
1, 510275, Note_on_c, 6, 78, 127
1, 510516, Note_on_c, 0, 60, 127
1, 510758, Note_on_c, 10, 57, 127
1, 510999, Note_on_c, 6, 54, 127
1, 511241, Note_on_c, 4, 52, 127
1, 511465, Note_off_c, 4, 52, 127
1, 511483, Note_on_c, 3, 51, 127
1, 511722, Note_off_c, 6, 78, 127
1, 511727, Note_off_c, 0, 72, 127
1, 511737, Note_off_c, 10, 69, 127
1, 511914, Note_off_c, 0, 60, 127
1, 511917, Note_off_c, 10, 57, 127
1, 511918, Note_off_c, 6, 54, 127
1, 511936, Note_off_c, 3, 51, 127
1, 511985, Note_on_c, 3, 51, 127
1, 511985, Note_on_c, 6, 54, 127
1, 511985, Note_on_c, 0, 72, 127
1, 511985, Note_on_c, 10, 69, 127
1, 512206, Note_off_c, 10, 69, 127
1, 512206, Note_off_c, 0, 72, 127
1, 512206, Note_off_c, 6, 54, 127
1, 512206, Note_off_c, 3, 51, 127
1, 512209, Note_on_c, 7, 55, 127
1, 512209, Note_on_c, 4, 52, 127
1, 512209, Note_on_c, 12, 71, 127
1, 512209, Note_on_c, 7, 67, 127
1, 512952, Note_off_c, 7, 67, 127
1, 512952, Note_off_c, 12, 71, 127
1, 512952, Note_off_c, 4, 52, 127
1, 512952, Note_off_c, 7, 55, 127
1, 512990, Note_on_c, 10, 57, 127
1, 512990, Note_on_c, 6, 54, 127
1, 512990, Note_on_c, 3, 75, 127
1, 512990, Note_on_c, 6, 66, 127
1, 513173, Note_off_c, 6, 66, 127
1, 513173, Note_off_c, 3, 75, 127
1, 513173, Note_off_c, 6, 54, 127
1, 513173, Note_off_c, 10, 57, 127
1, 513176, Note_on_c, 12, 59, 127
1, 513176, Note_on_c, 7, 55, 127
1, 513176, Note_on_c, 4, 64, 127
1, 513176, Note_on_c, 4, 76, 127
1, 513919, Note_off_c, 4, 76, 127
1, 513919, Note_off_c, 4, 64, 127
1, 513919, Note_off_c, 7, 55, 127
1, 513919, Note_off_c, 12, 59, 127
1, 513982, Note_on_c, 4, 52, 127
1, 513982, Note_on_c, 4, 64, 127
1, 513982, Note_on_c, 12, 71, 127
1, 513982, Note_on_c, 7, 79, 127
1, 514140, Note_off_c, 7, 79, 127
1, 514140, Note_off_c, 12, 71, 127
1, 514140, Note_off_c, 4, 64, 127
1, 514140, Note_off_c, 4, 52, 127
1, 514143, Note_on_c, 4, 64, 127
1, 514143, Note_on_c, 10, 57, 127
1, 514143, Note_on_c, 6, 78, 127
1, 514143, Note_on_c, 0, 72, 127
1, 514886, Note_off_c, 0, 72, 127
1, 514886, Note_off_c, 6, 78, 127
1, 514886, Note_off_c, 10, 57, 127
1, 514886, Note_off_c, 4, 64, 127
1, 514949, Note_on_c, 12, 59, 127
1, 514949, Note_on_c, 3, 63, 127
1, 514949, Note_on_c, 6, 66, 127
1, 514949, Note_on_c, 12, 71, 127
1, 514949, Note_on_c, 10, 81, 127
1, 515107, Note_off_c, 10, 81, 127
1, 515107, Note_off_c, 12, 71, 127
1, 515107, Note_off_c, 6, 66, 127
1, 515107, Note_off_c, 3, 63, 127
1, 515107, Note_off_c, 12, 59, 127
1, 515110, Note_on_c, 6, 66, 127
1, 515110, Note_on_c, 0, 60, 127
1, 515110, Note_on_c, 10, 69, 127
1, 515110, Note_on_c, 4, 76, 127
1, 515590, Note_off_c, 4, 76, 127
1, 515590, Note_off_c, 10, 69, 127
1, 515593, Note_on_c, 3, 75, 127
1, 515847, Note_off_c, 3, 75, 127
1, 515847, Note_off_c, 0, 60, 127
1, 515847, Note_off_c, 6, 66, 127
1, 515874, Note_on_c, 10, 57, 127
1, 515874, Note_on_c, 7, 67, 127
1, 515874, Note_on_c, 0, 72, 127
1, 515874, Note_on_c, 4, 76, 127
1, 516073, Note_off_c, 4, 76, 127
1, 516073, Note_off_c, 0, 72, 127
1, 516073, Note_off_c, 7, 67, 127
1, 516073, Note_off_c, 10, 57, 127
1, 516076, Note_on_c, 6, 66, 127
1, 516076, Note_on_c, 12, 59, 127
1, 516076, Note_on_c, 4, 76, 127
1, 516076, Note_on_c, 12, 71, 127
1, 517161, Note_off_c, 12, 71, 127
1, 517161, Note_off_c, 4, 76, 127
1, 517164, Note_on_c, 3, 75, 127
1, 517282, Note_off_c, 3, 75, 127
1, 517284, Note_on_c, 4, 76, 127
1, 517402, Note_off_c, 4, 76, 127
1, 517405, Note_on_c, 3, 75, 127
1, 517523, Note_off_c, 3, 75, 127
1, 517526, Note_on_c, 1, 73, 127
1, 517644, Note_off_c, 1, 73, 127
1, 517647, Note_on_c, 3, 75, 127
1, 517765, Note_off_c, 3, 75, 127
1, 517767, Note_on_c, 1, 73, 127
1, 517885, Note_off_c, 1, 73, 127
1, 517888, Note_on_c, 12, 71, 127
1, 518006, Note_off_c, 12, 71, 127
1, 518006, Note_off_c, 12, 59, 127
1, 518006, Note_off_c, 6, 66, 127
1, 518009, Note_on_c, 12, 71, 127
1, 518009, Note_on_c, 6, 66, 127
1, 518009, Note_on_c, 3, 63, 127
1, 518009, Note_on_c, 10, 81, 127
1, 518009, Note_on_c, 6, 78, 127
1, 518009, Note_on_c, 3, 75, 127
1, 518739, Note_off_c, 10, 81, 127
1, 518752, Note_on_c, 10, 81, 127
1, 518966, Note_off_c, 3, 75, 127
1, 518966, Note_off_c, 6, 78, 127
1, 518973, Note_off_c, 10, 81, 127
1, 518973, Note_off_c, 3, 63, 127
1, 518973, Note_off_c, 6, 66, 127
1, 518973, Note_off_c, 12, 71, 127
1, 518976, Note_on_c, 4, 64, 127
1, 518976, Note_on_c, 7, 67, 127
1, 518976, Note_on_c, 6, 78, 127
1, 518976, Note_on_c, 3, 75, 127
1, 518976, Note_on_c, 12, 71, 127
1, 518976, Note_on_c, 10, 81, 127
1, 519940, Note_off_c, 10, 81, 127
1, 519940, Note_off_c, 3, 75, 127
1, 519940, Note_off_c, 6, 78, 127
1, 519943, Note_on_c, 4, 76, 127
1, 519943, Note_on_c, 7, 79, 127
1, 520182, Note_off_c, 7, 79, 127
1, 520182, Note_off_c, 4, 76, 127
1, 520184, Note_off_c, 12, 71, 127
1, 520185, Note_on_c, 12, 71, 127
1, 520303, Note_off_c, 12, 71, 127
1, 520305, Note_on_c, 0, 72, 127
1, 520423, Note_off_c, 0, 72, 127
1, 520426, Note_on_c, 2, 74, 127
1, 520665, Note_off_c, 2, 74, 127
1, 520668, Note_on_c, 2, 74, 127
1, 520786, Note_off_c, 2, 74, 127
1, 520788, Note_on_c, 4, 76, 127
1, 520906, Note_off_c, 4, 76, 127
1, 520906, Note_off_c, 7, 67, 127
1, 520906, Note_off_c, 4, 64, 127
1, 520909, Note_on_c, 8, 68, 127
1, 520909, Note_on_c, 12, 59, 127
1, 520909, Note_on_c, 5, 77, 127
1, 521027, Note_off_c, 5, 77, 127
1, 521030, Note_on_c, 2, 74, 127
1, 521148, Note_off_c, 2, 74, 127
1, 521151, Note_on_c, 4, 76, 127
1, 521269, Note_off_c, 4, 76, 127
1, 521271, Note_on_c, 5, 77, 127
1, 521389, Note_off_c, 5, 77, 127
1, 521392, Note_on_c, 8, 80, 127
1, 521510, Note_off_c, 8, 80, 127
1, 521513, Note_on_c, 2, 74, 127
1, 521634, Note_on_c, 4, 76, 127
1, 521752, Note_off_c, 4, 76, 127
1, 521754, Note_on_c, 5, 77, 127
1, 521872, Note_off_c, 12, 59, 127
1, 521872, Note_off_c, 8, 68, 127
1, 521875, Note_on_c, 0, 60, 127
1, 521875, Note_on_c, 12, 83, 127
1, 522359, Note_on_c, 10, 69, 127
1, 522477, Note_off_c, 10, 69, 127
1, 522480, Note_on_c, 8, 68, 127
1, 522598, Note_off_c, 8, 68, 127
1, 522601, Note_on_c, 6, 66, 127
1, 522719, Note_off_c, 6, 66, 127
1, 522721, Note_on_c, 8, 68, 127
1, 522832, Note_off_c, 12, 83, 127
1, 522837, Note_off_c, 5, 77, 127
1, 522839, Note_off_c, 8, 68, 127
1, 522842, Note_on_c, 10, 81, 127
1, 522842, Note_on_c, 0, 72, 127
1, 522842, Note_on_c, 10, 69, 127
1, 522842, Note_on_c, 4, 76, 127
1, 522847, Note_off_c, 2, 74, 127
1, 522960, Note_off_c, 4, 76, 127
1, 522960, Note_off_c, 10, 81, 127
1, 522963, Note_on_c, 5, 77, 127
1, 523081, Note_off_c, 5, 77, 127
1, 523081, Note_off_c, 0, 72, 127
1, 523084, Note_on_c, 4, 76, 127
1, 523202, Note_off_c, 4, 76, 127
1, 523204, Note_on_c, 2, 74, 127
1, 523322, Note_off_c, 2, 74, 127
1, 523325, Note_on_c, 0, 72, 127
1, 523443, Note_off_c, 0, 72, 127
1, 523445, Note_off_c, 10, 69, 127
1, 523446, Note_on_c, 12, 71, 127
1, 523564, Note_off_c, 12, 71, 127
1, 523567, Note_on_c, 10, 69, 127
1, 523685, Note_off_c, 10, 69, 127
1, 523687, Note_on_c, 8, 68, 127
1, 523805, Note_off_c, 8, 68, 127
1, 523805, Note_off_c, 0, 60, 127
1, 523808, Note_on_c, 10, 69, 127
1, 524035, Note_on_c, 1, 61, 127
1, 524141, Note_on_c, 4, 64, 127
1, 524241, Note_off_c, 10, 69, 127
1, 524243, Note_off_c, 4, 64, 127
1, 524246, Note_on_c, 10, 69, 127
1, 524348, Note_off_c, 10, 69, 127
1, 524351, Note_on_c, 1, 73, 127
1, 524453, Note_off_c, 1, 73, 127
1, 524456, Note_on_c, 4, 76, 127
1, 524562, Note_on_c, 6, 78, 127
1, 524664, Note_off_c, 6, 78, 127
1, 524667, Note_on_c, 7, 79, 127
1, 524757, Note_off_c, 4, 76, 127
1, 524762, Note_off_c, 1, 61, 127
1, 524769, Note_off_c, 7, 79, 127
1, 524772, Note_on_c, 10, 69, 127
1, 524772, Note_on_c, 2, 62, 127
1, 524772, Note_on_c, 7, 79, 127
1, 524772, Note_on_c, 4, 76, 127
1, 524772, Note_on_c, 1, 73, 127
1, 525252, Note_off_c, 1, 73, 127
1, 525255, Note_on_c, 2, 74, 127
1, 525373, Note_off_c, 2, 74, 127
1, 525376, Note_on_c, 1, 73, 127
1, 525494, Note_off_c, 1, 73, 127
1, 525496, Note_on_c, 12, 71, 127
1, 525614, Note_off_c, 12, 71, 127
1, 525617, Note_on_c, 1, 73, 127
1, 525728, Note_off_c, 4, 76, 127
1, 525728, Note_off_c, 7, 79, 127
1, 525728, Note_off_c, 10, 69, 127
1, 525735, Note_off_c, 1, 73, 127
1, 525738, Note_on_c, 6, 78, 127
1, 525738, Note_on_c, 2, 74, 127
1, 525859, Note_on_c, 10, 69, 127
1, 525898, Note_off_c, 2, 74, 127
1, 525979, Note_on_c, 12, 71, 127
1, 526097, Note_off_c, 12, 71, 127
1, 526100, Note_off_c, 6, 78, 127
1, 526100, Note_on_c, 1, 73, 127
1, 526218, Note_off_c, 1, 73, 127
1, 526221, Note_on_c, 2, 74, 127
1, 526339, Note_off_c, 2, 74, 127
1, 526342, Note_on_c, 4, 76, 127
1, 526460, Note_off_c, 4, 76, 127
1, 526462, Note_on_c, 6, 78, 127
1, 526563, Note_off_c, 10, 69, 127
1, 526580, Note_off_c, 6, 78, 127
1, 526583, Note_on_c, 7, 79, 127
1, 526701, Note_off_c, 7, 79, 127
1, 526701, Note_off_c, 2, 62, 127
1, 526704, Note_on_c, 2, 62, 127
1, 526704, Note_on_c, 10, 69, 127
1, 526704, Note_on_c, 6, 66, 127
1, 526704, Note_on_c, 0, 60, 127
1, 526704, Note_on_c, 10, 81, 127
1, 526943, Note_off_c, 10, 81, 127
1, 526945, Note_on_c, 7, 79, 127
1, 527063, Note_off_c, 7, 79, 127
1, 527066, Note_on_c, 6, 78, 127
1, 527184, Note_off_c, 6, 78, 127
1, 527187, Note_on_c, 0, 84, 127
1, 527426, Note_off_c, 0, 84, 127
1, 527428, Note_on_c, 12, 83, 127
1, 527546, Note_off_c, 12, 83, 127
1, 527549, Note_on_c, 10, 81, 127
1, 527667, Note_off_c, 10, 81, 127
1, 527667, Note_off_c, 0, 60, 127
1, 527667, Note_off_c, 6, 66, 127
1, 527667, Note_off_c, 10, 69, 127
1, 527667, Note_off_c, 2, 62, 127
1, 527670, Note_on_c, 12, 59, 127
1, 527670, Note_on_c, 6, 66, 127
1, 527670, Note_on_c, 2, 62, 127
1, 527670, Note_on_c, 2, 74, 127
1, 527670, Note_on_c, 0, 72, 127
1, 527670, Note_on_c, 12, 83, 127
1, 527756, Note_off_c, 12, 83, 127
1, 527758, Note_on_c, 10, 81, 127
1, 527844, Note_off_c, 10, 81, 127
1, 527846, Note_on_c, 12, 83, 127
1, 527932, Note_off_c, 12, 83, 127
1, 527935, Note_on_c, 10, 81, 127
1, 528021, Note_off_c, 10, 81, 127
1, 528023, Note_on_c, 12, 83, 127
1, 528109, Note_off_c, 12, 83, 127
1, 528111, Note_on_c, 10, 81, 127
1, 528197, Note_off_c, 10, 81, 127
1, 528199, Note_on_c, 12, 83, 127
1, 528285, Note_off_c, 12, 83, 127
1, 528287, Note_on_c, 10, 81, 127
1, 528373, Note_off_c, 10, 81, 127
1, 528376, Note_on_c, 7, 79, 127
1, 528462, Note_off_c, 7, 79, 127
1, 528464, Note_on_c, 10, 81, 127
1, 528550, Note_off_c, 10, 81, 127
1, 528552, Note_on_c, 12, 83, 127
1, 528627, Note_off_c, 0, 72, 127
1, 528634, Note_off_c, 12, 83, 127
1, 528634, Note_off_c, 2, 62, 127
1, 528634, Note_off_c, 6, 66, 127
1, 528634, Note_off_c, 12, 59, 127
1, 528637, Note_on_c, 12, 71, 127
1, 528637, Note_on_c, 7, 67, 127
1, 528637, Note_on_c, 7, 79, 127
1, 529117, Note_off_c, 2, 74, 127
1, 529334, Note_off_c, 7, 79, 127
1, 529334, Note_off_c, 7, 67, 127
1, 529334, Note_off_c, 12, 71, 127
1, 529362, Note_on_c, 0, 60, 127
1, 529362, Note_on_c, 10, 57, 127
1, 529362, Note_on_c, 3, 63, 127
1, 529362, Note_on_c, 6, 78, 127
1, 529601, Note_off_c, 6, 78, 127
1, 529601, Note_off_c, 3, 63, 127
1, 529601, Note_off_c, 10, 57, 127
1, 529601, Note_off_c, 0, 60, 127
1, 529603, Note_on_c, 12, 59, 127
1, 529603, Note_on_c, 4, 64, 127
1, 529603, Note_on_c, 7, 55, 127
1, 529603, Note_on_c, 4, 76, 127
1, 529842, Note_off_c, 4, 76, 127
1, 529845, Note_on_c, 7, 79, 127
1, 529963, Note_off_c, 7, 79, 127
1, 529965, Note_on_c, 6, 78, 127
1, 530083, Note_off_c, 6, 78, 127
1, 530086, Note_on_c, 4, 76, 127
1, 530204, Note_off_c, 4, 76, 127
1, 530207, Note_on_c, 6, 78, 127
1, 530325, Note_off_c, 6, 78, 127
1, 530325, Note_off_c, 7, 55, 127
1, 530325, Note_off_c, 4, 64, 127
1, 530325, Note_off_c, 12, 59, 127
1, 530328, Note_on_c, 6, 54, 127
1, 530328, Note_on_c, 7, 79, 127
1, 530567, Note_off_c, 7, 79, 127
1, 530567, Note_off_c, 6, 54, 127
1, 530569, Note_on_c, 4, 52, 127
1, 530569, Note_on_c, 1, 73, 127
1, 530808, Note_off_c, 1, 73, 127
1, 530811, Note_on_c, 4, 76, 127
1, 530929, Note_off_c, 4, 76, 127
1, 530931, Note_on_c, 2, 74, 127
1, 531049, Note_off_c, 2, 74, 127
1, 531052, Note_on_c, 1, 73, 127
1, 531170, Note_off_c, 1, 73, 127
1, 531173, Note_on_c, 2, 74, 127
1, 531291, Note_off_c, 2, 74, 127
1, 531291, Note_off_c, 4, 52, 127
1, 531294, Note_on_c, 2, 50, 127
1, 531294, Note_on_c, 4, 76, 127
1, 531533, Note_off_c, 4, 76, 127
1, 531533, Note_off_c, 2, 50, 127
1, 531535, Note_on_c, 1, 49, 127
1, 531535, Note_on_c, 11, 70, 127
1, 531774, Note_off_c, 11, 70, 127
1, 531777, Note_on_c, 1, 73, 127
1, 531895, Note_off_c, 1, 73, 127
1, 531897, Note_on_c, 12, 71, 127
1, 532015, Note_off_c, 12, 71, 127
1, 532018, Note_on_c, 11, 70, 127
1, 532136, Note_off_c, 11, 70, 127
1, 532139, Note_on_c, 12, 71, 127
1, 532257, Note_off_c, 12, 71, 127
1, 532257, Note_off_c, 1, 49, 127
1, 532260, Note_on_c, 12, 47, 127
1, 532260, Note_on_c, 1, 73, 127
1, 532499, Note_off_c, 1, 73, 127
1, 532499, Note_off_c, 12, 47, 127
1, 532501, Note_on_c, 11, 46, 127
1, 532501, Note_on_c, 6, 66, 127
1, 533206, Note_off_c, 6, 66, 127
1, 533206, Note_off_c, 11, 46, 127
1, 533307, Note_on_c, 12, 47, 127
1, 533307, Note_on_c, 12, 59, 127
1, 533307, Note_on_c, 2, 62, 127
1, 533307, Note_on_c, 7, 67, 127
1, 533465, Note_off_c, 12, 47, 127
1, 533468, Note_on_c, 4, 40, 127
1, 533549, Note_on_c, 11, 46, 127
1, 533630, Note_on_c, 1, 49, 127
1, 533711, Note_on_c, 4, 52, 127
1, 533787, Note_off_c, 7, 67, 127
1, 533787, Note_off_c, 2, 62, 127
1, 533787, Note_off_c, 12, 59, 127
1, 533790, Note_on_c, 11, 58, 127
1, 533871, Note_on_c, 1, 61, 127
1, 533952, Note_on_c, 6, 66, 127
1, 534191, Note_off_c, 6, 66, 127
1, 534194, Note_on_c, 4, 64, 127
1, 534312, Note_off_c, 4, 64, 127
1, 534314, Note_on_c, 7, 67, 127
1, 534432, Note_off_c, 7, 67, 127
1, 534435, Note_on_c, 6, 66, 127
1, 534999, Note_off_c, 1, 61, 127
1, 534999, Note_off_c, 11, 58, 127
1, 534999, Note_off_c, 4, 40, 127
1, 535000, Note_off_c, 4, 52, 127
1, 535000, Note_off_c, 1, 49, 127
1, 535000, Note_off_c, 11, 46, 127
1, 535140, Note_off_c, 6, 66, 127
1, 535176, Note_on_c, 1, 49, 127
1, 535176, Note_on_c, 11, 58, 127
1, 535176, Note_on_c, 7, 79, 127
1, 535176, Note_on_c, 4, 76, 127
1, 535400, Note_off_c, 4, 76, 127
1, 535400, Note_off_c, 7, 79, 127
1, 535400, Note_off_c, 11, 58, 127
1, 535400, Note_off_c, 1, 49, 127
1, 535403, Note_on_c, 12, 59, 127
1, 535403, Note_on_c, 2, 50, 127
1, 535403, Note_on_c, 2, 74, 127
1, 535403, Note_on_c, 6, 78, 127
1, 536131, Note_off_c, 6, 78, 127
1, 536131, Note_off_c, 2, 74, 127
1, 536131, Note_off_c, 2, 50, 127
1, 536131, Note_off_c, 12, 59, 127
1, 536159, Note_on_c, 1, 61, 127
1, 536159, Note_on_c, 4, 52, 127
1, 536159, Note_on_c, 4, 76, 127
1, 536159, Note_on_c, 1, 73, 127
1, 536367, Note_off_c, 1, 73, 127
1, 536367, Note_off_c, 4, 76, 127
1, 536367, Note_off_c, 4, 52, 127
1, 536367, Note_off_c, 1, 61, 127
1, 536370, Note_on_c, 2, 62, 127
1, 536370, Note_on_c, 6, 54, 127
1, 536370, Note_on_c, 2, 74, 127
1, 536370, Note_on_c, 12, 71, 127
1, 537149, Note_off_c, 12, 71, 127
1, 537149, Note_off_c, 2, 74, 127
1, 537149, Note_off_c, 6, 54, 127
1, 537149, Note_off_c, 2, 62, 127
1, 537177, Note_on_c, 7, 55, 127
1, 537177, Note_on_c, 4, 64, 127
1, 537177, Note_on_c, 1, 73, 127
1, 537335, Note_off_c, 1, 73, 127
1, 537335, Note_off_c, 4, 64, 127
1, 537335, Note_off_c, 7, 55, 127
1, 537337, Note_on_c, 4, 52, 127
1, 537337, Note_on_c, 1, 61, 127
1, 537337, Note_on_c, 7, 67, 127
1, 537337, Note_on_c, 12, 71, 127
1, 537657, Note_off_c, 12, 71, 127
1, 537657, Note_off_c, 7, 67, 127
1, 537660, Note_on_c, 11, 70, 127
1, 538100, Note_off_c, 1, 61, 127
1, 538101, Note_off_c, 11, 70, 127
1, 538103, Note_on_c, 2, 62, 127
1, 538103, Note_on_c, 12, 71, 127
1, 538293, Note_off_c, 4, 52, 127
1, 538301, Note_off_c, 2, 62, 127
1, 538303, Note_on_c, 12, 59, 127
1, 538303, Note_on_c, 6, 54, 127
1, 538303, Note_on_c, 6, 66, 127
1, 538371, Note_off_c, 12, 59, 127
1, 538374, Note_on_c, 11, 58, 127
1, 538442, Note_off_c, 11, 58, 127
1, 538444, Note_on_c, 12, 59, 127
1, 538512, Note_off_c, 12, 59, 127
1, 538514, Note_on_c, 11, 58, 127
1, 538529, Note_off_c, 12, 71, 127
1, 538544, Note_on_c, 1, 73, 127
1, 538662, Note_off_c, 1, 73, 127
1, 538665, Note_on_c, 2, 74, 127
1, 538783, Note_off_c, 2, 74, 127
1, 538785, Note_on_c, 4, 76, 127
1, 538903, Note_off_c, 4, 76, 127
1, 538906, Note_on_c, 2, 74, 127
1, 539006, Note_off_c, 6, 66, 127
1, 539024, Note_off_c, 2, 74, 127
1, 539024, Note_off_c, 11, 58, 127
1, 539027, Note_on_c, 11, 58, 127
1, 539027, Note_on_c, 4, 64, 127
1, 539027, Note_on_c, 1, 73, 127
1, 539258, Note_off_c, 6, 54, 127
1, 539266, Note_off_c, 1, 73, 127
1, 539266, Note_off_c, 4, 64, 127
1, 539266, Note_off_c, 11, 58, 127
1, 539268, Note_on_c, 6, 54, 127
1, 539268, Note_on_c, 12, 47, 127
1, 539268, Note_on_c, 1, 73, 127
1, 539268, Note_on_c, 4, 64, 127
1, 540213, Note_off_c, 6, 54, 127
1, 540215, Note_off_c, 4, 64, 127
1, 540215, Note_off_c, 1, 73, 127
1, 540215, Note_on_c, 12, 59, 127
1, 540215, Note_on_c, 12, 71, 127
1, 540215, Note_on_c, 3, 63, 127
1, 541200, Note_off_c, 12, 47, 127
1, 541664, Note_off_c, 3, 63, 127
1, 541664, Note_off_c, 12, 71, 127
1, 542168, Note_off_c, 12, 59, 127
1, 542170, Note_on_c, 6, 54, 127
1, 542170, Note_on_c, 12, 47, 127
1, 542170, Note_on_c, 3, 51, 127
1, 542170, Note_on_c, 10, 57, 127
1, 542170, Note_on_c, 12, 59, 127
1, 542170, Note_on_c, 3, 63, 127
1, 542231, Note_on_c, 4, 64, 127
1, 542292, Note_on_c, 6, 66, 127
1, 542311, Note_off_c, 4, 64, 127
1, 542972, Note_off_c, 6, 66, 127
1, 542974, Note_off_c, 3, 63, 127
1, 542974, Note_off_c, 12, 59, 127
1, 542977, Note_on_c, 6, 66, 127
1, 543134, Note_off_c, 10, 57, 127
1, 543134, Note_off_c, 3, 51, 127
1, 543134, Note_off_c, 12, 47, 127
1, 543134, Note_off_c, 6, 54, 127
1, 543135, Note_off_c, 6, 66, 127
1, 543138, Note_on_c, 4, 52, 127
1, 543138, Note_on_c, 10, 57, 127
1, 543138, Note_on_c, 6, 66, 127
1, 543138, Note_on_c, 3, 63, 127
1, 543138, Note_on_c, 12, 59, 127
1, 544102, Note_off_c, 12, 59, 127
1, 544102, Note_off_c, 3, 63, 127
1, 544102, Note_off_c, 6, 66, 127
1, 544102, Note_off_c, 10, 57, 127
1, 544102, Note_off_c, 4, 52, 127
1, 544105, Note_on_c, 7, 55, 127
1, 544105, Note_on_c, 7, 67, 127
1, 544105, Note_on_c, 4, 64, 127
1, 544465, Note_off_c, 7, 67, 127
1, 544467, Note_on_c, 12, 71, 127
1, 544582, Note_off_c, 4, 64, 127
1, 544582, Note_off_c, 7, 55, 127
1, 544584, Note_off_c, 12, 71, 127
1, 544587, Note_on_c, 12, 71, 127
1, 544705, Note_off_c, 12, 71, 127
1, 544707, Note_on_c, 10, 69, 127
1, 544825, Note_off_c, 10, 69, 127
1, 544828, Note_on_c, 12, 71, 127
1, 545067, Note_off_c, 12, 71, 127
1, 545070, Note_on_c, 2, 74, 127
1, 545311, Note_on_c, 8, 68, 127
1, 545550, Note_off_c, 8, 68, 127
1, 545553, Note_on_c, 8, 68, 127
1, 545671, Note_off_c, 8, 68, 127
1, 545673, Note_on_c, 6, 66, 127
1, 545791, Note_off_c, 6, 66, 127
1, 545794, Note_on_c, 8, 68, 127
1, 546036, Note_on_c, 12, 71, 127
1, 546277, Note_on_c, 2, 62, 127
1, 546516, Note_off_c, 2, 62, 127
1, 546519, Note_on_c, 2, 62, 127
1, 546637, Note_off_c, 2, 62, 127
1, 546639, Note_on_c, 0, 60, 127
1, 546757, Note_off_c, 0, 60, 127
1, 546760, Note_on_c, 2, 62, 127
1, 546999, Note_off_c, 2, 62, 127
1, 547002, Note_on_c, 5, 65, 127
1, 547243, Note_on_c, 12, 59, 127
1, 547482, Note_off_c, 12, 59, 127
1, 547485, Note_on_c, 12, 59, 127
1, 547603, Note_off_c, 12, 59, 127
1, 547605, Note_on_c, 10, 57, 127
1, 547723, Note_off_c, 10, 57, 127
1, 547726, Note_on_c, 12, 59, 127
1, 547965, Note_off_c, 12, 59, 127
1, 547968, Note_on_c, 2, 62, 127
1, 548209, Note_on_c, 8, 56, 127
1, 548448, Note_off_c, 8, 56, 127
1, 548451, Note_on_c, 8, 56, 127
1, 548569, Note_off_c, 8, 56, 127
1, 548571, Note_on_c, 6, 54, 127
1, 548689, Note_off_c, 6, 54, 127
1, 548692, Note_on_c, 8, 56, 127
1, 548843, Note_off_c, 2, 74, 127
1, 548924, Note_off_c, 2, 62, 127
1, 548935, Note_on_c, 0, 48, 127
1, 549055, Note_off_c, 12, 71, 127
1, 549397, Note_off_c, 8, 56, 127
1, 549442, Note_off_c, 8, 68, 127
1, 549697, Note_off_c, 5, 65, 127
1, 549699, Note_on_c, 10, 57, 127
1, 549699, Note_on_c, 0, 72, 127
1, 549699, Note_on_c, 10, 69, 127
1, 549699, Note_on_c, 4, 64, 127
1, 549890, Note_off_c, 0, 48, 127
1, 549897, Note_off_c, 4, 64, 127
1, 549897, Note_off_c, 10, 69, 127
1, 549897, Note_off_c, 0, 72, 127
1, 549897, Note_off_c, 10, 57, 127
1, 549900, Note_on_c, 2, 50, 127
1, 549900, Note_on_c, 10, 57, 127
1, 549900, Note_on_c, 12, 71, 127
1, 549900, Note_on_c, 5, 65, 127
1, 550638, Note_off_c, 5, 65, 127
1, 550638, Note_off_c, 12, 71, 127
1, 550638, Note_off_c, 10, 57, 127
1, 550638, Note_off_c, 2, 50, 127
1, 550665, Note_on_c, 12, 59, 127
1, 550665, Note_on_c, 8, 56, 127
1, 550665, Note_on_c, 4, 52, 127
1, 550665, Note_on_c, 2, 74, 127
1, 550665, Note_on_c, 4, 64, 127
1, 550864, Note_off_c, 4, 64, 127
1, 550864, Note_off_c, 2, 74, 127
1, 550864, Note_off_c, 4, 52, 127
1, 550864, Note_off_c, 8, 56, 127
1, 550864, Note_off_c, 12, 59, 127
1, 550867, Note_on_c, 5, 53, 127
1, 550867, Note_on_c, 12, 59, 127
1, 550867, Note_on_c, 10, 69, 127
1, 550867, Note_on_c, 2, 62, 127
1, 551187, Note_off_c, 10, 69, 127
1, 551189, Note_on_c, 8, 68, 127
1, 551581, Note_off_c, 8, 68, 127
1, 551582, Note_off_c, 2, 62, 127
1, 551582, Note_off_c, 12, 59, 127
1, 551582, Note_off_c, 5, 53, 127
1, 551609, Note_on_c, 0, 60, 127
1, 551609, Note_on_c, 2, 50, 127
1, 551609, Note_on_c, 10, 69, 127
1, 551609, Note_on_c, 5, 65, 127
1, 551830, Note_off_c, 5, 65, 127
1, 551830, Note_off_c, 10, 69, 127
1, 551830, Note_off_c, 2, 50, 127
1, 551830, Note_off_c, 0, 60, 127
1, 551833, Note_on_c, 4, 52, 127
1, 551833, Note_on_c, 12, 59, 127
1, 551833, Note_on_c, 10, 69, 127
1, 551833, Note_on_c, 4, 64, 127
1, 552893, Note_off_c, 10, 69, 127
1, 552895, Note_on_c, 8, 68, 127
1, 552988, Note_off_c, 8, 68, 127
1, 552991, Note_on_c, 10, 69, 127
1, 553084, Note_off_c, 10, 69, 127
1, 553086, Note_on_c, 8, 68, 127
1, 553179, Note_off_c, 8, 68, 127
1, 553182, Note_on_c, 10, 69, 127
1, 553275, Note_off_c, 10, 69, 127
1, 553277, Note_on_c, 8, 68, 127
1, 553370, Note_off_c, 8, 68, 127
1, 553373, Note_on_c, 6, 66, 127
1, 553466, Note_off_c, 6, 66, 127
1, 553468, Note_on_c, 8, 68, 127
1, 553551, Note_off_c, 4, 64, 127
1, 553561, Note_off_c, 8, 68, 127
1, 553564, Note_on_c, 6, 66, 127
1, 553657, Note_off_c, 6, 66, 127
1, 553660, Note_on_c, 4, 64, 127
1, 553762, Note_off_c, 4, 64, 127
1, 553762, Note_off_c, 12, 59, 127
1, 553762, Note_off_c, 4, 52, 127
1, 553765, Note_on_c, 12, 59, 127
1, 553765, Note_on_c, 2, 62, 127
1, 553767, Note_on_c, 5, 65, 127
1, 553769, Note_on_c, 12, 71, 127
1, 553771, Note_on_c, 2, 74, 127
1, 553773, Note_on_c, 5, 77, 127
1, 554561, Note_off_c, 5, 77, 127
1, 554569, Note_on_c, 5, 77, 127
1, 554571, Note_off_c, 12, 71, 127
1, 554573, Note_off_c, 2, 74, 127
1, 554726, Note_off_c, 5, 77, 127
1, 554726, Note_off_c, 2, 62, 127
1, 554726, Note_off_c, 12, 59, 127
1, 554728, Note_off_c, 5, 65, 127
1, 554728, Note_on_c, 0, 60, 127
1, 554728, Note_on_c, 8, 68, 127
1, 554728, Note_on_c, 12, 71, 127
1, 554728, Note_on_c, 2, 74, 127
1, 554728, Note_on_c, 5, 77, 127
1, 555692, Note_off_c, 5, 77, 127
1, 555692, Note_off_c, 2, 74, 127
1, 555692, Note_off_c, 12, 71, 127
1, 555692, Note_off_c, 8, 68, 127
1, 555696, Note_on_c, 10, 69, 127
1, 555696, Note_on_c, 0, 72, 127
1, 555696, Note_on_c, 4, 76, 127
1, 555839, Note_off_c, 0, 72, 127
1, 555841, Note_on_c, 2, 74, 127
1, 555959, Note_off_c, 2, 74, 127
1, 555962, Note_on_c, 0, 72, 127
1, 556080, Note_off_c, 0, 72, 127
1, 556083, Note_on_c, 12, 71, 127
1, 556173, Note_off_c, 10, 69, 127
1, 556174, Note_off_c, 0, 60, 127
1, 556200, Note_off_c, 12, 71, 127
1, 556203, Note_on_c, 0, 72, 127
1, 556435, Note_off_c, 0, 72, 127
1, 556437, Note_on_c, 10, 69, 127
1, 556658, Note_off_c, 10, 69, 127
1, 556660, Note_on_c, 11, 70, 127
1, 556899, Note_off_c, 11, 70, 127
1, 556902, Note_on_c, 7, 67, 127
1, 557143, Note_on_c, 1, 61, 127
1, 557403, Note_on_c, 4, 64, 127
1, 557624, Note_off_c, 4, 64, 127
1, 557624, Note_off_c, 4, 76, 127
1, 557626, Note_on_c, 5, 53, 127
1, 557745, Note_off_c, 7, 67, 127
1, 557747, Note_on_c, 11, 70, 127
1, 557865, Note_off_c, 11, 70, 127
1, 557868, Note_on_c, 10, 69, 127
1, 557986, Note_off_c, 10, 69, 127
1, 557989, Note_on_c, 7, 67, 127
1, 558107, Note_off_c, 7, 67, 127
1, 558109, Note_on_c, 1, 73, 127
1, 558230, Note_on_c, 11, 70, 127
1, 558348, Note_off_c, 11, 70, 127
1, 558350, Note_off_c, 1, 61, 127
1, 558351, Note_on_c, 4, 64, 127
1, 558351, Note_on_c, 10, 69, 127
1, 558469, Note_off_c, 10, 69, 127
1, 558472, Note_on_c, 7, 67, 127
1, 558586, Note_off_c, 1, 73, 127
1, 558589, Note_off_c, 7, 67, 127
1, 558589, Note_off_c, 4, 64, 127
1, 558591, Note_on_c, 10, 57, 127
1, 558591, Note_on_c, 5, 65, 127
1, 558712, Note_on_c, 7, 67, 127
1, 558830, Note_off_c, 7, 67, 127
1, 558833, Note_on_c, 10, 69, 127
1, 559069, Note_off_c, 5, 65, 127
1, 559075, Note_on_c, 2, 74, 127
1, 559312, Note_off_c, 10, 69, 127
1, 559436, Note_off_c, 2, 74, 127
1, 559439, Note_on_c, 12, 71, 127
1, 559556, Note_off_c, 5, 53, 127
1, 559557, Note_off_c, 10, 57, 127
1, 559560, Note_on_c, 6, 54, 127
1, 559635, Note_on_c, 10, 57, 127
1, 559711, Note_on_c, 0, 60, 127
1, 559786, Note_on_c, 3, 63, 127
1, 559860, Note_off_c, 12, 71, 127
1, 559862, Note_on_c, 6, 66, 127
1, 559938, Note_on_c, 10, 69, 127
1, 560013, Note_on_c, 0, 72, 127
1, 560315, Note_off_c, 0, 72, 127
1, 560366, Note_on_c, 0, 72, 127
1, 560516, Note_off_c, 3, 63, 127
1, 560517, Note_off_c, 10, 69, 127
1, 560517, Note_off_c, 6, 66, 127
1, 560517, Note_off_c, 0, 60, 127
1, 560517, Note_off_c, 10, 57, 127
1, 560517, Note_off_c, 6, 54, 127
1, 560524, Note_off_c, 0, 72, 127
1, 560527, Note_on_c, 7, 55, 127
1, 560527, Note_on_c, 3, 63, 127
1, 560527, Note_on_c, 6, 66, 127
1, 560527, Note_on_c, 10, 69, 127
1, 560527, Note_on_c, 0, 72, 127
1, 561250, Note_off_c, 3, 63, 127
1, 561252, Note_on_c, 4, 64, 127
1, 561370, Note_off_c, 4, 64, 127
1, 561373, Note_on_c, 3, 63, 127
1, 561491, Note_off_c, 3, 63, 127
1, 561491, Note_off_c, 0, 72, 127
1, 561491, Note_off_c, 10, 69, 127
1, 561491, Note_off_c, 6, 66, 127
1, 561494, Note_on_c, 4, 64, 127
1, 561494, Note_on_c, 7, 67, 127
1, 561494, Note_on_c, 12, 71, 127
1, 561612, Note_off_c, 7, 67, 127
1, 561614, Note_on_c, 10, 69, 127
1, 561732, Note_off_c, 10, 69, 127
1, 561735, Note_on_c, 7, 67, 127
1, 561853, Note_off_c, 7, 67, 127
1, 561856, Note_on_c, 6, 66, 127
1, 561971, Note_off_c, 4, 64, 127
1, 561973, Note_off_c, 6, 66, 127
1, 561976, Note_on_c, 7, 67, 127
1, 562215, Note_off_c, 7, 67, 127
1, 562217, Note_on_c, 6, 66, 127
1, 562335, Note_off_c, 6, 66, 127
1, 562338, Note_on_c, 4, 64, 127
1, 562456, Note_off_c, 4, 64, 127
1, 562456, Note_off_c, 7, 55, 127
1, 562459, Note_on_c, 2, 62, 127
1, 562579, Note_on_c, 4, 64, 127
1, 562697, Note_off_c, 4, 64, 127
1, 562700, Note_on_c, 12, 59, 127
1, 562700, Note_on_c, 5, 65, 127
1, 562818, Note_off_c, 12, 59, 127
1, 562821, Note_on_c, 10, 57, 127
1, 562939, Note_off_c, 10, 57, 127
1, 562942, Note_on_c, 8, 56, 127
1, 563062, Note_on_c, 10, 57, 127
1, 563180, Note_off_c, 10, 57, 127
1, 563183, Note_on_c, 12, 59, 127
1, 563415, Note_off_c, 2, 62, 127
1, 563422, Note_off_c, 12, 59, 127
1, 563425, Note_on_c, 0, 48, 127
1, 563543, Note_off_c, 5, 65, 127
1, 563545, Note_on_c, 2, 62, 127
1, 563646, Note_off_c, 8, 56, 127
1, 563663, Note_off_c, 2, 62, 127
1, 563666, Note_on_c, 0, 60, 127
1, 563784, Note_off_c, 0, 60, 127
1, 563787, Note_on_c, 12, 59, 127
1, 563905, Note_off_c, 12, 59, 127
1, 563908, Note_on_c, 10, 57, 127
1, 563908, Note_on_c, 0, 60, 127
1, 564260, Note_off_c, 12, 71, 127
1, 564268, Note_off_c, 0, 60, 127
1, 564270, Note_on_c, 4, 64, 127
1, 564388, Note_off_c, 4, 64, 127
1, 564391, Note_on_c, 10, 69, 127
1, 564675, Note_off_c, 10, 69, 127
1, 564677, Note_on_c, 12, 71, 127
1, 564740, Note_off_c, 12, 71, 127
1, 564742, Note_on_c, 10, 69, 127
1, 564805, Note_off_c, 10, 69, 127
1, 564807, Note_on_c, 8, 68, 127
1, 564870, Note_off_c, 8, 68, 127
1, 564873, Note_on_c, 10, 69, 127
1, 564988, Note_off_c, 10, 57, 127
1, 565006, Note_off_c, 0, 48, 127
1, 565112, Note_off_c, 10, 69, 127
1, 565114, Note_on_c, 4, 52, 127
1, 565114, Note_on_c, 8, 56, 127
1, 565114, Note_on_c, 4, 64, 127
1, 565232, Note_off_c, 4, 64, 127
1, 565235, Note_on_c, 12, 71, 127
1, 565353, Note_off_c, 12, 71, 127
1, 565353, Note_off_c, 8, 56, 127
1, 565353, Note_off_c, 4, 52, 127
1, 565356, Note_on_c, 10, 57, 127
1, 565356, Note_on_c, 0, 72, 127
1, 565656, Note_off_c, 0, 72, 127
1, 565658, Note_on_c, 2, 74, 127
1, 565715, Note_off_c, 2, 74, 127
1, 565718, Note_on_c, 0, 72, 127
1, 565775, Note_off_c, 0, 72, 127
1, 565778, Note_on_c, 12, 71, 127
1, 565835, Note_off_c, 12, 71, 127
1, 565837, Note_on_c, 0, 72, 127
1, 566076, Note_off_c, 0, 72, 127
1, 566079, Note_on_c, 7, 55, 127
1, 566079, Note_on_c, 10, 69, 127
1, 566197, Note_off_c, 10, 69, 127
1, 566200, Note_on_c, 1, 73, 127
1, 566318, Note_off_c, 1, 73, 127
1, 566318, Note_off_c, 7, 55, 127
1, 566320, Note_on_c, 5, 53, 127
1, 566320, Note_on_c, 2, 74, 127
1, 566620, Note_off_c, 2, 74, 127
1, 566623, Note_on_c, 4, 76, 127
1, 566680, Note_off_c, 4, 76, 127
1, 566683, Note_on_c, 2, 74, 127
1, 566740, Note_off_c, 2, 74, 127
1, 566743, Note_on_c, 1, 73, 127
1, 566800, Note_off_c, 1, 73, 127
1, 566802, Note_on_c, 2, 74, 127
1, 567040, Note_off_c, 10, 57, 127
1, 567041, Note_off_c, 2, 74, 127
1, 567041, Note_off_c, 5, 53, 127
1, 567044, Note_on_c, 10, 57, 127
1, 567044, Note_on_c, 1, 61, 127
1, 567044, Note_on_c, 10, 69, 127
1, 567162, Note_off_c, 10, 69, 127
1, 567165, Note_on_c, 4, 76, 127
1, 567283, Note_off_c, 4, 76, 127
1, 567283, Note_off_c, 1, 61, 127
1, 567283, Note_off_c, 10, 57, 127
1, 567285, Note_on_c, 2, 62, 127
1, 567285, Note_on_c, 5, 77, 127
1, 567585, Note_off_c, 5, 77, 127
1, 567588, Note_on_c, 7, 79, 127
1, 567645, Note_off_c, 7, 79, 127
1, 567648, Note_on_c, 5, 77, 127
1, 567705, Note_off_c, 5, 77, 127
1, 567708, Note_on_c, 4, 76, 127
1, 567765, Note_off_c, 4, 76, 127
1, 567767, Note_on_c, 5, 77, 127
1, 568006, Note_off_c, 5, 77, 127
1, 568009, Note_on_c, 0, 60, 127
1, 568009, Note_on_c, 2, 74, 127
1, 568127, Note_off_c, 2, 74, 127
1, 568130, Note_on_c, 6, 78, 127
1, 568248, Note_off_c, 6, 78, 127
1, 568248, Note_off_c, 0, 60, 127
1, 568250, Note_on_c, 12, 59, 127
1, 568250, Note_on_c, 8, 80, 127
1, 568550, Note_off_c, 8, 80, 127
1, 568553, Note_on_c, 10, 81, 127
1, 568610, Note_off_c, 10, 81, 127
1, 568613, Note_on_c, 8, 80, 127
1, 568670, Note_off_c, 8, 80, 127
1, 568672, Note_on_c, 6, 78, 127
1, 568729, Note_off_c, 6, 78, 127
1, 568732, Note_on_c, 8, 80, 127
1, 568971, Note_off_c, 8, 80, 127
1, 568971, Note_off_c, 12, 59, 127
1, 568974, Note_on_c, 10, 57, 127
1, 568974, Note_on_c, 2, 74, 127
1, 569092, Note_off_c, 2, 74, 127
1, 569095, Note_on_c, 10, 81, 127
1, 569213, Note_off_c, 10, 81, 127
1, 569213, Note_off_c, 10, 57, 127
1, 569215, Note_on_c, 8, 56, 127
1, 569215, Note_on_c, 10, 81, 127
1, 569616, Note_off_c, 10, 81, 127
1, 569619, Note_on_c, 12, 83, 127
1, 569698, Note_off_c, 2, 62, 127
1, 569820, Note_on_c, 0, 60, 127
1, 569938, Note_off_c, 0, 60, 127
1, 569939, Note_off_c, 12, 83, 127
1, 569941, Note_on_c, 12, 59, 127
1, 569941, Note_on_c, 5, 77, 127
1, 570059, Note_off_c, 12, 59, 127
1, 570062, Note_on_c, 10, 57, 127
1, 570071, Note_off_c, 8, 56, 127
1, 570180, Note_off_c, 10, 57, 127
1, 570180, Note_off_c, 5, 77, 127
1, 570182, Note_on_c, 10, 57, 127
1, 570182, Note_on_c, 5, 77, 127
1, 570259, Note_off_c, 10, 57, 127
1, 570262, Note_on_c, 8, 56, 127
1, 570339, Note_off_c, 8, 56, 127
1, 570342, Note_on_c, 10, 57, 127
1, 570419, Note_off_c, 10, 57, 127
1, 570422, Note_on_c, 8, 56, 127
1, 570499, Note_off_c, 5, 77, 127
1, 570502, Note_on_c, 4, 76, 127
1, 570867, Note_off_c, 4, 76, 127
1, 570867, Note_off_c, 8, 56, 127
1, 570869, Note_on_c, 4, 64, 127
1, 570869, Note_on_c, 8, 56, 127
1, 570869, Note_on_c, 4, 52, 127
1, 570869, Note_on_c, 5, 77, 127
1, 571005, Note_off_c, 5, 77, 127
1, 571008, Note_on_c, 2, 74, 127
1, 571144, Note_off_c, 2, 74, 127
1, 571144, Note_off_c, 4, 52, 127
1, 571144, Note_off_c, 8, 56, 127
1, 571144, Note_off_c, 4, 64, 127
1, 571146, Note_on_c, 10, 57, 127
1, 571146, Note_on_c, 0, 72, 127
1, 571441, Note_off_c, 0, 72, 127
1, 571443, Note_on_c, 4, 76, 127
1, 571506, Note_off_c, 4, 76, 127
1, 571509, Note_on_c, 2, 74, 127
1, 571572, Note_off_c, 2, 74, 127
1, 571574, Note_on_c, 0, 72, 127
1, 571662, Note_off_c, 0, 72, 127
1, 571664, Note_on_c, 2, 74, 127
1, 571822, Note_off_c, 2, 74, 127
1, 571822, Note_off_c, 10, 57, 127
1, 571825, Note_on_c, 7, 55, 127
1, 571825, Note_on_c, 12, 59, 127
1, 571825, Note_on_c, 4, 76, 127
1, 571965, Note_off_c, 4, 76, 127
1, 571967, Note_on_c, 5, 77, 127
1, 572107, Note_off_c, 5, 77, 127
1, 572108, Note_off_c, 12, 59, 127
1, 572108, Note_off_c, 7, 55, 127
1, 572110, Note_on_c, 5, 53, 127
1, 572110, Note_on_c, 12, 59, 127
1, 572110, Note_on_c, 10, 69, 127
1, 572110, Note_on_c, 2, 62, 127
1, 572430, Note_off_c, 10, 69, 127
1, 572433, Note_on_c, 8, 68, 127
1, 572850, Note_off_c, 8, 68, 127
1, 572850, Note_off_c, 2, 62, 127
1, 572850, Note_off_c, 12, 59, 127
1, 572850, Note_off_c, 5, 53, 127
1, 572853, Note_on_c, 2, 50, 127
1, 572853, Note_on_c, 0, 60, 127
1, 572853, Note_on_c, 10, 69, 127
1, 572853, Note_on_c, 5, 65, 127
1, 573074, Note_off_c, 5, 65, 127
1, 573074, Note_off_c, 10, 69, 127
1, 573074, Note_off_c, 0, 60, 127
1, 573074, Note_off_c, 2, 50, 127
1, 573076, Note_on_c, 10, 57, 127
1, 573076, Note_on_c, 4, 52, 127
1, 573076, Note_on_c, 5, 65, 127
1, 573076, Note_on_c, 12, 71, 127
1, 573194, Note_off_c, 12, 71, 127
1, 573197, Note_on_c, 0, 72, 127
1, 573315, Note_off_c, 0, 72, 127
1, 573318, Note_on_c, 2, 74, 127
1, 573816, Note_off_c, 2, 74, 127
1, 573816, Note_off_c, 5, 65, 127
1, 573819, Note_on_c, 0, 72, 127
1, 573819, Note_on_c, 4, 64, 127
1, 574039, Note_off_c, 10, 57, 127
1, 574040, Note_off_c, 4, 64, 127
1, 574040, Note_off_c, 0, 72, 127
1, 574042, Note_on_c, 8, 56, 127
1, 574042, Note_on_c, 2, 62, 127
1, 574042, Note_on_c, 0, 72, 127
1, 574200, Note_off_c, 0, 72, 127
1, 574203, Note_on_c, 12, 71, 127
1, 574280, Note_off_c, 12, 71, 127
1, 574283, Note_on_c, 0, 72, 127
1, 574360, Note_off_c, 0, 72, 127
1, 574362, Note_on_c, 12, 71, 127
1, 574439, Note_off_c, 12, 71, 127
1, 574442, Note_on_c, 0, 72, 127
1, 574519, Note_off_c, 0, 72, 127
1, 574522, Note_on_c, 12, 71, 127
1, 574779, Note_off_c, 12, 71, 127
1, 574779, Note_off_c, 2, 62, 127
1, 574781, Note_on_c, 10, 69, 127
1, 574781, Note_on_c, 0, 60, 127
1, 575002, Note_off_c, 0, 60, 127
1, 575002, Note_off_c, 10, 69, 127
1, 575002, Note_off_c, 8, 56, 127
1, 575002, Note_off_c, 4, 52, 127
1, 575005, Note_on_c, 10, 57, 127
1, 575005, Note_on_c, 4, 64, 127
1, 575005, Note_on_c, 10, 69, 127
1, 575005, Note_on_c, 0, 60, 127
1, 575610, Note_on_c, 5, 53, 127
1, 575728, Note_off_c, 5, 53, 127
1, 575731, Note_on_c, 4, 52, 127
1, 575849, Note_off_c, 4, 52, 127
1, 575851, Note_on_c, 2, 50, 127
1, 575969, Note_off_c, 2, 50, 127
1, 575972, Note_on_c, 4, 52, 127
1, 576090, Note_off_c, 4, 52, 127
1, 576093, Note_on_c, 2, 50, 127
1, 576211, Note_off_c, 2, 50, 127
1, 576214, Note_on_c, 0, 48, 127
1, 576332, Note_off_c, 0, 48, 127
1, 576334, Note_on_c, 2, 50, 127
1, 576452, Note_off_c, 2, 50, 127
1, 576455, Note_on_c, 4, 52, 127
1, 576573, Note_off_c, 4, 52, 127
1, 576576, Note_on_c, 0, 48, 127
1, 576658, Note_off_c, 0, 60, 127
1, 576658, Note_off_c, 10, 69, 127
1, 576658, Note_off_c, 4, 64, 127
1, 576694, Note_off_c, 0, 48, 127
1, 576697, Note_on_c, 2, 50, 127
1, 576815, Note_off_c, 2, 50, 127
1, 576817, Note_on_c, 4, 52, 127
1, 576918, Note_off_c, 10, 57, 127
1, 576935, Note_off_c, 4, 52, 127
1, 576954, Note_on_c, 0, 72, 127
1, 576954, Note_on_c, 10, 69, 127
1, 576954, Note_on_c, 0, 60, 127
1, 576954, Note_on_c, 4, 64, 127
1, 576954, Note_on_c, 10, 57, 127
1, 576954, Note_on_c, 10, 45, 127
1, 576954, Note_on_c, 4, 52, 127
1, 576954, Note_on_c, 0, 48, 127
1, 577717, Note_off_c, 10, 57, 127
1, 577717, Note_off_c, 0, 72, 127
1, 577720, Note_on_c, 0, 72, 127
1, 577720, Note_on_c, 10, 57, 127
1, 577860, Note_off_c, 4, 64, 127
1, 577860, Note_off_c, 0, 60, 127
1, 577860, Note_off_c, 10, 69, 127
1, 577885, Note_off_c, 0, 48, 127
1, 577885, Note_off_c, 4, 52, 127
1, 577885, Note_off_c, 10, 45, 127
1, 577918, Note_off_c, 10, 57, 127
1, 577918, Note_off_c, 0, 72, 127
1, 577920, Note_on_c, 0, 72, 127
1, 577920, Note_on_c, 6, 66, 127
1, 577920, Note_on_c, 10, 57, 127
1, 577920, Note_on_c, 3, 51, 127
1, 578189, Note_off_c, 0, 72, 127
1, 578192, Note_on_c, 2, 74, 127
1, 578260, Note_off_c, 2, 74, 127
1, 578262, Note_on_c, 0, 72, 127
1, 578330, Note_off_c, 0, 72, 127
1, 578333, Note_on_c, 12, 71, 127
1, 578401, Note_off_c, 12, 71, 127
1, 578403, Note_on_c, 0, 72, 127
1, 578521, Note_off_c, 0, 72, 127
1, 578524, Note_on_c, 10, 69, 127
1, 578642, Note_off_c, 10, 69, 127
1, 578645, Note_on_c, 12, 71, 127
1, 578884, Note_off_c, 12, 71, 127
1, 578886, Note_on_c, 12, 71, 127
1, 579488, Note_off_c, 12, 71, 127
1, 579491, Note_on_c, 1, 73, 127
1, 579609, Note_off_c, 1, 73, 127
1, 579612, Note_on_c, 3, 75, 127
1, 579730, Note_off_c, 3, 75, 127
1, 579732, Note_on_c, 4, 76, 127
1, 579850, Note_off_c, 4, 76, 127
1, 579850, Note_off_c, 3, 51, 127
1, 579850, Note_off_c, 10, 57, 127
1, 579850, Note_off_c, 6, 66, 127
1, 579853, Note_on_c, 6, 78, 127
1, 579971, Note_off_c, 6, 78, 127
1, 579974, Note_on_c, 7, 79, 127
1, 580092, Note_off_c, 7, 79, 127
1, 580095, Note_on_c, 10, 81, 127
1, 580334, Note_off_c, 10, 81, 127
1, 580336, Note_on_c, 10, 81, 127
1, 580413, Note_off_c, 10, 81, 127
1, 580416, Note_on_c, 7, 79, 127
1, 580493, Note_off_c, 7, 79, 127
1, 580496, Note_on_c, 10, 81, 127
1, 580573, Note_off_c, 10, 81, 127
1, 580576, Note_on_c, 7, 79, 127
1, 580694, Note_off_c, 7, 79, 127
1, 580696, Note_on_c, 6, 78, 127
1, 580814, Note_off_c, 6, 78, 127
1, 580817, Note_on_c, 6, 78, 127
1, 580817, Note_on_c, 4, 52, 127
1, 580822, Note_on_c, 7, 55, 127
1, 580828, Note_on_c, 12, 59, 127
1, 580833, Note_on_c, 4, 64, 127
1, 581057, Note_off_c, 6, 78, 127
1, 581060, Note_on_c, 7, 79, 127
1, 581420, Note_off_c, 7, 79, 127
1, 581422, Note_on_c, 6, 78, 127
1, 581540, Note_off_c, 6, 78, 127
1, 581543, Note_on_c, 4, 76, 127
1, 581661, Note_off_c, 4, 76, 127
1, 581663, Note_on_c, 3, 75, 127
1, 581781, Note_off_c, 3, 75, 127
1, 581784, Note_on_c, 4, 76, 127
1, 582023, Note_off_c, 4, 76, 127
1, 582026, Note_on_c, 7, 79, 127
1, 582144, Note_off_c, 7, 79, 127
1, 582146, Note_on_c, 11, 70, 127
1, 582264, Note_off_c, 11, 70, 127
1, 582267, Note_on_c, 12, 71, 127
1, 582506, Note_off_c, 12, 71, 127
1, 582509, Note_on_c, 4, 76, 127
1, 582627, Note_off_c, 4, 76, 127
1, 582629, Note_on_c, 6, 66, 127
1, 582747, Note_off_c, 6, 66, 127
1, 582747, Note_off_c, 4, 52, 127
1, 582750, Note_on_c, 7, 67, 127
1, 582751, Note_off_c, 7, 55, 127
1, 582757, Note_off_c, 12, 59, 127
1, 582762, Note_off_c, 4, 64, 127
1, 582989, Note_off_c, 7, 67, 127
1, 582992, Note_on_c, 12, 71, 127
1, 583110, Note_off_c, 12, 71, 127
1, 583112, Note_on_c, 3, 63, 127
1, 583230, Note_off_c, 3, 63, 127
1, 583233, Note_on_c, 4, 64, 127
1, 583472, Note_off_c, 4, 64, 127
1, 583475, Note_on_c, 7, 67, 127
1, 583593, Note_off_c, 7, 67, 127
1, 583595, Note_on_c, 12, 59, 127
1, 583710, Note_off_c, 12, 59, 127
1, 583716, Note_on_c, 12, 59, 127
1, 583716, Note_on_c, 1, 49, 127
1, 583716, Note_on_c, 4, 52, 127
1, 584036, Note_off_c, 12, 59, 127
1, 584038, Note_on_c, 11, 58, 127
1, 584442, Note_on_c, 6, 78, 127
1, 584560, Note_off_c, 6, 78, 127
1, 584562, Note_on_c, 7, 79, 127
1, 584680, Note_off_c, 7, 79, 127
1, 584683, Note_on_c, 10, 81, 127
1, 584760, Note_off_c, 10, 81, 127
1, 584763, Note_on_c, 7, 79, 127
1, 584840, Note_off_c, 7, 79, 127
1, 584843, Note_on_c, 10, 81, 127
1, 584920, Note_off_c, 10, 81, 127
1, 584923, Note_on_c, 7, 79, 127
1, 585000, Note_off_c, 7, 79, 127
1, 585002, Note_on_c, 10, 81, 127
1, 585079, Note_off_c, 10, 81, 127
1, 585082, Note_on_c, 7, 79, 127
1, 585159, Note_off_c, 7, 79, 127
1, 585162, Note_on_c, 10, 81, 127
1, 585239, Note_off_c, 10, 81, 127
1, 585242, Note_on_c, 7, 79, 127
1, 585319, Note_off_c, 7, 79, 127
1, 585321, Note_off_c, 4, 52, 127
1, 585321, Note_off_c, 1, 49, 127
1, 585322, Note_on_c, 10, 81, 127
1, 585333, Note_off_c, 11, 58, 127
1, 585399, Note_off_c, 10, 81, 127
1, 585401, Note_on_c, 7, 79, 127
1, 585401, Note_on_c, 10, 57, 127
1, 585401, Note_on_c, 0, 48, 127
1, 585401, Note_on_c, 4, 52, 127
1, 585478, Note_off_c, 7, 79, 127
1, 585481, Note_on_c, 6, 78, 127
1, 585558, Note_off_c, 6, 78, 127
1, 585561, Note_on_c, 7, 79, 127
1, 585638, Note_off_c, 7, 79, 127
1, 585638, Note_off_c, 4, 52, 127
1, 585638, Note_off_c, 0, 48, 127
1, 585638, Note_off_c, 10, 57, 127
1, 585641, Note_on_c, 10, 81, 127
1, 585641, Note_on_c, 10, 57, 127
1, 585641, Note_on_c, 4, 52, 127
1, 585641, Note_on_c, 0, 48, 127
1, 585714, Note_off_c, 10, 81, 127
1, 585716, Note_on_c, 7, 79, 127
1, 585789, Note_off_c, 7, 79, 127
1, 585792, Note_on_c, 10, 81, 127
1, 585865, Note_off_c, 10, 81, 127
1, 585868, Note_on_c, 7, 79, 127
1, 585941, Note_off_c, 7, 79, 127
1, 585943, Note_on_c, 10, 81, 127
1, 586016, Note_off_c, 10, 81, 127
1, 586019, Note_on_c, 7, 79, 127
1, 586092, Note_off_c, 7, 79, 127
1, 586094, Note_on_c, 10, 81, 127
1, 586167, Note_off_c, 10, 81, 127
1, 586170, Note_on_c, 7, 79, 127
1, 586243, Note_off_c, 7, 79, 127
1, 586246, Note_on_c, 10, 81, 127
1, 586319, Note_off_c, 10, 81, 127
1, 586321, Note_on_c, 7, 79, 127
1, 586339, Note_off_c, 0, 48, 127
1, 586339, Note_off_c, 4, 52, 127
1, 586339, Note_off_c, 10, 57, 127
1, 586366, Note_on_c, 11, 58, 127
1, 586366, Note_on_c, 4, 52, 127
1, 586366, Note_on_c, 0, 48, 127
1, 586393, Note_off_c, 7, 79, 127
1, 586396, Note_on_c, 6, 78, 127
1, 586469, Note_off_c, 6, 78, 127
1, 586471, Note_on_c, 7, 79, 127
1, 586544, Note_off_c, 7, 79, 127
1, 586547, Note_on_c, 10, 81, 127
1, 586604, Note_off_c, 10, 81, 127
1, 586604, Note_off_c, 0, 48, 127
1, 586604, Note_off_c, 4, 52, 127
1, 586604, Note_off_c, 11, 58, 127
1, 586607, Note_on_c, 4, 76, 127
1, 586607, Note_on_c, 6, 54, 127
1, 586607, Note_on_c, 12, 59, 127
1, 586607, Note_on_c, 12, 47, 127
1, 587087, Note_off_c, 4, 76, 127
1, 587090, Note_on_c, 3, 75, 127
1, 587450, Note_off_c, 3, 75, 127
1, 587452, Note_on_c, 1, 73, 127
1, 587563, Note_off_c, 12, 47, 127
1, 587563, Note_off_c, 12, 59, 127
1, 587563, Note_off_c, 6, 54, 127
1, 587570, Note_off_c, 1, 73, 127
1, 587573, Note_on_c, 3, 75, 127
1, 587628, Note_off_c, 3, 75, 127
1, 587630, Note_on_c, 12, 71, 127
1, 587693, Note_off_c, 12, 71, 127
1, 587696, Note_on_c, 1, 73, 127
1, 587761, Note_off_c, 1, 73, 127
1, 587763, Note_on_c, 3, 75, 127
1, 587831, Note_off_c, 3, 75, 127
1, 587833, Note_on_c, 4, 76, 127
1, 587898, Note_off_c, 4, 76, 127
1, 587900, Note_on_c, 6, 78, 127
1, 587965, Note_off_c, 6, 78, 127
1, 587968, Note_on_c, 7, 79, 127
1, 588031, Note_off_c, 7, 79, 127
1, 588033, Note_on_c, 10, 81, 127
1, 588093, Note_off_c, 10, 81, 127
1, 588101, Note_on_c, 10, 81, 127
1, 588189, Note_off_c, 10, 81, 127
1, 588191, Note_on_c, 7, 79, 127
1, 588277, Note_off_c, 7, 79, 127
1, 588279, Note_on_c, 10, 81, 127
1, 588369, Note_off_c, 10, 81, 127
1, 588372, Note_on_c, 7, 79, 127
1, 588503, Note_off_c, 7, 79, 127
1, 588505, Note_on_c, 6, 78, 127
1, 588638, Note_off_c, 6, 78, 127
1, 588641, Note_on_c, 7, 79, 127
1, 588774, Note_on_c, 3, 75, 127
1, 588912, Note_off_c, 3, 75, 127
1, 588915, Note_on_c, 4, 76, 127
1, 589043, Note_on_c, 12, 71, 127
1, 589179, Note_on_c, 7, 67, 127
1, 589242, Note_off_c, 7, 67, 127
1, 589244, Note_on_c, 6, 66, 127
1, 589309, Note_off_c, 6, 66, 127
1, 589312, Note_on_c, 4, 64, 127
1, 589385, Note_off_c, 4, 64, 127
1, 589387, Note_on_c, 3, 63, 127
1, 589450, Note_off_c, 3, 63, 127
1, 589452, Note_on_c, 4, 64, 127
1, 589578, Note_off_c, 4, 64, 127
1, 589580, Note_on_c, 0, 60, 127
1, 589595, Note_off_c, 7, 79, 127
1, 589618, Note_off_c, 4, 76, 127
1, 589620, Note_off_c, 12, 71, 127
1, 589721, Note_on_c, 10, 57, 127
1, 589781, Note_off_c, 0, 60, 127
1, 589787, Note_off_c, 10, 57, 127
1, 589789, Note_on_c, 0, 60, 127
1, 589857, Note_off_c, 0, 60, 127
1, 589860, Note_on_c, 4, 64, 127
1, 589923, Note_off_c, 4, 64, 127
1, 589925, Note_on_c, 10, 69, 127
1, 589986, Note_on_c, 0, 72, 127
1, 590051, Note_off_c, 0, 72, 127
1, 590053, Note_on_c, 4, 76, 127
1, 590118, Note_off_c, 4, 76, 127
1, 590120, Note_on_c, 7, 79, 127
1, 590194, Note_on_c, 4, 76, 127
1, 590257, Note_off_c, 4, 76, 127
1, 590259, Note_on_c, 0, 72, 127
1, 590345, Note_off_c, 0, 72, 127
1, 590347, Note_on_c, 12, 71, 127
1, 590437, Note_off_c, 12, 71, 127
1, 590439, Note_on_c, 0, 72, 127
1, 590515, Note_off_c, 10, 69, 127
1, 590527, Note_on_c, 10, 69, 127
1, 590615, Note_off_c, 10, 69, 127
1, 590618, Note_on_c, 8, 68, 127
1, 590706, Note_off_c, 8, 68, 127
1, 590708, Note_on_c, 10, 69, 127
1, 590773, Note_off_c, 7, 79, 127
1, 590790, Note_off_c, 0, 72, 127
1, 590796, Note_on_c, 7, 79, 127
1, 590796, Note_on_c, 10, 57, 127
1, 591065, Note_off_c, 7, 79, 127
1, 591068, Note_on_c, 7, 79, 127
1, 591133, Note_off_c, 7, 79, 127
1, 591135, Note_on_c, 6, 78, 127
1, 591203, Note_off_c, 6, 78, 127
1, 591206, Note_on_c, 7, 79, 127
1, 591269, Note_off_c, 7, 79, 127
1, 591271, Note_on_c, 6, 78, 127
1, 591411, Note_off_c, 10, 69, 127
1, 591602, Note_off_c, 6, 78, 127
1, 591605, Note_on_c, 10, 69, 127
1, 591909, Note_off_c, 10, 69, 127
1, 591909, Note_off_c, 10, 57, 127
1, 591911, Note_on_c, 5, 77, 127
1, 591911, Note_on_c, 12, 59, 127
1, 592029, Note_off_c, 5, 77, 127
1, 592032, Note_on_c, 4, 76, 127
1, 592150, Note_off_c, 4, 76, 127
1, 592153, Note_on_c, 5, 77, 127
1, 592271, Note_off_c, 5, 77, 127
1, 592274, Note_on_c, 2, 74, 127
1, 592394, Note_on_c, 5, 77, 127
1, 592512, Note_off_c, 5, 77, 127
1, 592515, Note_on_c, 7, 79, 127
1, 592633, Note_off_c, 7, 79, 127
1, 592636, Note_on_c, 7, 67, 127
1, 592636, Note_on_c, 10, 81, 127
1, 592693, Note_off_c, 10, 81, 127
1, 592696, Note_on_c, 7, 79, 127
1, 592753, Note_off_c, 7, 79, 127
1, 592756, Note_on_c, 5, 77, 127
1, 592873, Note_off_c, 12, 59, 127
1, 592874, Note_off_c, 5, 77, 127
1, 592876, Note_on_c, 7, 79, 127
1, 592876, Note_on_c, 0, 60, 127
1, 592953, Note_off_c, 7, 79, 127
1, 592956, Note_on_c, 5, 77, 127
1, 593033, Note_off_c, 5, 77, 127
1, 593036, Note_on_c, 4, 76, 127
1, 593113, Note_off_c, 4, 76, 127
1, 593116, Note_on_c, 5, 77, 127
1, 593193, Note_off_c, 5, 77, 127
1, 593195, Note_on_c, 7, 79, 127
1, 593226, Note_off_c, 2, 74, 127
1, 593273, Note_off_c, 7, 79, 127
1, 593276, Note_on_c, 5, 77, 127
1, 593463, Note_off_c, 7, 67, 127
1, 593475, Note_off_c, 5, 77, 127
1, 593478, Note_on_c, 4, 76, 127
1, 593596, Note_off_c, 4, 76, 127
1, 593599, Note_on_c, 5, 77, 127
1, 593717, Note_off_c, 5, 77, 127
1, 593719, Note_on_c, 7, 79, 127
1, 593837, Note_off_c, 7, 79, 127
1, 593840, Note_on_c, 0, 72, 127
1, 593840, Note_on_c, 4, 76, 127
1, 593958, Note_off_c, 0, 72, 127
1, 593961, Note_on_c, 12, 71, 127
1, 594079, Note_off_c, 12, 71, 127
1, 594082, Note_on_c, 10, 69, 127
1, 594200, Note_off_c, 10, 69, 127
1, 594202, Note_on_c, 8, 68, 127
1, 594320, Note_off_c, 8, 68, 127
1, 594323, Note_on_c, 10, 69, 127
1, 594683, Note_off_c, 10, 69, 127
1, 594683, Note_off_c, 0, 60, 127
1, 594685, Note_on_c, 0, 72, 127
1, 594685, Note_on_c, 12, 59, 127
1, 594796, Note_off_c, 4, 76, 127
1, 594803, Note_off_c, 12, 59, 127
1, 594803, Note_off_c, 0, 72, 127
1, 594806, Note_on_c, 4, 76, 127
1, 594806, Note_on_c, 10, 57, 127
1, 594927, Note_on_c, 2, 74, 127
1, 595045, Note_off_c, 2, 74, 127
1, 595048, Note_on_c, 0, 72, 127
1, 595166, Note_off_c, 0, 72, 127
1, 595168, Note_on_c, 12, 71, 127
1, 595286, Note_off_c, 12, 71, 127
1, 595289, Note_on_c, 0, 72, 127
1, 595611, Note_off_c, 10, 57, 127
1, 595651, Note_on_c, 4, 76, 127
1, 595651, Note_on_c, 4, 64, 127
1, 595651, Note_on_c, 7, 55, 127
1, 595658, Note_off_c, 4, 76, 127
1, 595769, Note_off_c, 7, 55, 127
1, 595769, Note_off_c, 4, 64, 127
1, 595769, Note_off_c, 4, 76, 127
1, 595772, Note_on_c, 10, 81, 127
1, 595772, Note_on_c, 4, 64, 127
1, 595772, Note_on_c, 5, 53, 127
1, 595993, Note_off_c, 0, 72, 127
1, 596014, Note_on_c, 12, 71, 127
1, 596132, Note_off_c, 12, 71, 127
1, 596134, Note_on_c, 0, 72, 127
1, 596252, Note_off_c, 0, 72, 127
1, 596255, Note_on_c, 2, 74, 127
1, 596373, Note_off_c, 2, 74, 127
1, 596376, Note_on_c, 0, 72, 127
1, 596494, Note_off_c, 0, 72, 127
1, 596497, Note_on_c, 12, 71, 127
1, 596615, Note_off_c, 12, 71, 127
1, 596617, Note_on_c, 0, 72, 127
1, 596728, Note_off_c, 10, 81, 127
1, 596735, Note_off_c, 4, 64, 127
1, 596738, Note_on_c, 4, 64, 127
1, 596815, Note_off_c, 4, 64, 127
1, 596818, Note_on_c, 3, 63, 127
1, 596858, Note_on_c, 10, 81, 127
1, 596895, Note_off_c, 3, 63, 127
1, 596898, Note_on_c, 4, 64, 127
1, 596975, Note_off_c, 4, 64, 127
1, 596975, Note_off_c, 10, 81, 127
1, 596978, Note_on_c, 12, 83, 127
1, 596978, Note_on_c, 3, 63, 127
1, 597092, Note_off_c, 0, 72, 127
1, 597095, Note_off_c, 12, 83, 127
1, 597097, Note_on_c, 0, 84, 127
1, 597215, Note_off_c, 0, 84, 127
1, 597218, Note_on_c, 12, 83, 127
1, 597336, Note_off_c, 12, 83, 127
1, 597339, Note_on_c, 10, 81, 127
1, 597457, Note_off_c, 10, 81, 127
1, 597460, Note_on_c, 8, 80, 127
1, 597578, Note_off_c, 8, 80, 127
1, 597580, Note_on_c, 10, 81, 127
1, 597655, Note_off_c, 5, 53, 127
1, 597698, Note_off_c, 10, 81, 127
1, 597699, Note_off_c, 3, 63, 127
1, 597701, Note_on_c, 12, 83, 127
1, 597701, Note_on_c, 2, 62, 127
1, 597701, Note_on_c, 8, 56, 127
1, 597778, Note_off_c, 2, 62, 127
1, 597781, Note_on_c, 0, 60, 127
1, 597821, Note_on_c, 5, 77, 127
1, 597858, Note_off_c, 0, 60, 127
1, 597861, Note_on_c, 2, 62, 127
1, 597938, Note_off_c, 5, 77, 127
1, 597940, Note_on_c, 4, 76, 127
1, 598058, Note_off_c, 4, 76, 127
1, 598061, Note_on_c, 2, 74, 127
1, 598179, Note_off_c, 2, 74, 127
1, 598182, Note_on_c, 4, 76, 127
1, 598542, Note_off_c, 4, 76, 127
1, 598542, Note_off_c, 2, 62, 127
1, 598544, Note_on_c, 12, 71, 127
1, 598544, Note_on_c, 12, 83, 127
1, 598544, Note_on_c, 2, 62, 127
1, 598554, Note_off_c, 12, 83, 127
1, 598655, Note_off_c, 8, 56, 127
1, 598662, Note_off_c, 2, 62, 127
1, 598662, Note_off_c, 12, 83, 127
1, 598662, Note_off_c, 12, 71, 127
1, 598665, Note_on_c, 12, 71, 127
1, 598665, Note_on_c, 4, 76, 127
1, 598665, Note_on_c, 10, 57, 127
1, 598783, Note_off_c, 4, 76, 127
1, 598786, Note_on_c, 6, 78, 127
1, 598904, Note_off_c, 6, 78, 127
1, 598906, Note_on_c, 8, 80, 127
1, 599145, Note_off_c, 8, 80, 127
1, 599148, Note_on_c, 8, 80, 127
1, 599225, Note_off_c, 8, 80, 127
1, 599228, Note_on_c, 6, 78, 127
1, 599305, Note_off_c, 6, 78, 127
1, 599308, Note_on_c, 8, 80, 127
1, 599385, Note_off_c, 8, 80, 127
1, 599387, Note_on_c, 6, 78, 127
1, 599505, Note_off_c, 6, 78, 127
1, 599508, Note_on_c, 4, 76, 127
1, 599619, Note_off_c, 12, 71, 127
1, 599626, Note_off_c, 4, 76, 127
1, 599629, Note_on_c, 10, 69, 127
1, 599629, Note_on_c, 10, 81, 127
1, 599629, Note_on_c, 2, 62, 127
1, 599706, Note_off_c, 2, 62, 127
1, 599709, Note_on_c, 1, 61, 127
1, 599786, Note_off_c, 1, 61, 127
1, 599788, Note_on_c, 2, 62, 127
1, 599865, Note_off_c, 2, 62, 127
1, 599868, Note_on_c, 1, 61, 127
1, 600107, Note_off_c, 10, 57, 127
1, 600110, Note_on_c, 7, 55, 127
1, 600228, Note_off_c, 10, 81, 127
1, 600228, Note_off_c, 10, 69, 127
1, 600230, Note_on_c, 7, 79, 127
1, 600348, Note_off_c, 7, 79, 127
1, 600351, Note_on_c, 6, 78, 127
1, 600469, Note_off_c, 6, 78, 127
1, 600472, Note_on_c, 4, 76, 127
1, 600572, Note_off_c, 1, 61, 127
1, 600590, Note_off_c, 4, 76, 127
1, 600590, Note_off_c, 7, 55, 127
1, 600593, Note_on_c, 3, 75, 127
1, 600593, Note_on_c, 0, 60, 127
1, 600593, Note_on_c, 6, 54, 127
1, 600711, Note_off_c, 3, 75, 127
1, 600713, Note_on_c, 4, 76, 127
1, 600831, Note_off_c, 4, 76, 127
1, 600834, Note_on_c, 3, 75, 127
1, 600952, Note_off_c, 3, 75, 127
1, 600955, Note_on_c, 4, 76, 127
1, 601073, Note_off_c, 4, 76, 127
1, 601073, Note_off_c, 6, 54, 127
1, 601073, Note_off_c, 0, 60, 127
1, 601076, Note_on_c, 6, 78, 127
1, 601076, Note_on_c, 0, 60, 127
1, 601076, Note_on_c, 4, 52, 127
1, 601169, Note_off_c, 6, 78, 127
1, 601171, Note_on_c, 4, 76, 127
1, 601241, Note_off_c, 4, 76, 127
1, 601244, Note_on_c, 3, 75, 127
1, 601294, Note_off_c, 3, 75, 127
1, 601296, Note_on_c, 4, 76, 127
1, 601424, Note_off_c, 4, 76, 127
1, 601426, Note_on_c, 6, 78, 127
1, 601554, Note_off_c, 6, 78, 127
1, 601554, Note_off_c, 4, 52, 127
1, 601554, Note_off_c, 0, 60, 127
1, 601557, Note_on_c, 10, 69, 127
1, 601557, Note_on_c, 0, 60, 127
1, 601557, Note_on_c, 3, 51, 127
1, 601857, Note_off_c, 0, 60, 127
1, 601859, Note_on_c, 12, 59, 127
1, 601916, Note_off_c, 12, 59, 127
1, 601919, Note_on_c, 10, 57, 127
1, 601976, Note_off_c, 10, 57, 127
1, 601979, Note_on_c, 8, 56, 127
1, 602036, Note_off_c, 8, 56, 127
1, 602039, Note_on_c, 10, 57, 127
1, 602296, Note_off_c, 10, 57, 127
1, 602298, Note_on_c, 6, 78, 127
1, 602298, Note_on_c, 0, 60, 127
1, 602512, Note_off_c, 3, 51, 127
1, 602512, Note_off_c, 10, 69, 127
1, 602519, Note_off_c, 0, 60, 127
1, 602519, Note_off_c, 6, 78, 127
1, 602522, Note_on_c, 10, 69, 127
1, 602522, Note_on_c, 6, 54, 127
1, 602822, Note_off_c, 6, 54, 127
1, 602824, Note_on_c, 7, 55, 127
1, 602881, Note_off_c, 7, 55, 127
1, 602884, Note_on_c, 6, 54, 127
1, 602941, Note_off_c, 6, 54, 127
1, 602944, Note_on_c, 4, 52, 127
1, 603001, Note_off_c, 4, 52, 127
1, 603004, Note_on_c, 6, 54, 127
1, 603261, Note_off_c, 6, 54, 127
1, 603263, Note_on_c, 7, 79, 127
1, 603263, Note_on_c, 10, 57, 127
1, 603477, Note_off_c, 10, 69, 127
1, 603484, Note_off_c, 10, 57, 127
1, 603484, Note_off_c, 7, 79, 127
1, 603487, Note_on_c, 10, 69, 127
1, 603487, Note_on_c, 3, 51, 127
1, 603787, Note_off_c, 3, 51, 127
1, 603789, Note_on_c, 4, 52, 127
1, 603846, Note_off_c, 4, 52, 127
1, 603849, Note_on_c, 3, 51, 127
1, 603906, Note_off_c, 3, 51, 127
1, 603909, Note_on_c, 1, 49, 127
1, 603966, Note_off_c, 1, 49, 127
1, 603968, Note_on_c, 3, 51, 127
1, 604225, Note_off_c, 3, 51, 127
1, 604228, Note_on_c, 10, 81, 127
1, 604228, Note_on_c, 6, 54, 127
1, 604442, Note_off_c, 10, 69, 127
1, 604449, Note_off_c, 6, 54, 127
1, 604449, Note_off_c, 10, 81, 127
1, 604451, Note_on_c, 10, 69, 127
1, 604451, Note_on_c, 4, 76, 127
1, 604451, Note_on_c, 6, 54, 127
1, 604451, Note_on_c, 0, 48, 127
1, 605415, Note_off_c, 0, 48, 127
1, 605419, Note_on_c, 12, 47, 127
1, 605495, Note_off_c, 4, 76, 127
1, 605498, Note_on_c, 3, 75, 127
1, 605575, Note_off_c, 3, 75, 127
1, 605578, Note_on_c, 4, 76, 127
1, 605655, Note_off_c, 4, 76, 127
1, 605658, Note_on_c, 3, 75, 127
1, 605735, Note_off_c, 3, 75, 127
1, 605738, Note_on_c, 4, 76, 127
1, 605815, Note_off_c, 4, 76, 127
1, 605818, Note_on_c, 3, 75, 127
1, 605895, Note_off_c, 3, 75, 127
1, 605897, Note_on_c, 4, 76, 127
1, 605974, Note_off_c, 4, 76, 127
1, 605977, Note_on_c, 3, 75, 127
1, 606054, Note_off_c, 3, 75, 127
1, 606057, Note_on_c, 4, 76, 127
1, 606134, Note_off_c, 4, 76, 127
1, 606137, Note_on_c, 3, 75, 127
1, 606175, Note_off_c, 12, 47, 127
1, 606177, Note_on_c, 10, 45, 127
1, 606214, Note_off_c, 3, 75, 127
1, 606217, Note_on_c, 1, 73, 127
1, 606294, Note_off_c, 1, 73, 127
1, 606296, Note_on_c, 3, 75, 127
1, 606373, Note_off_c, 3, 75, 127
1, 606373, Note_off_c, 6, 54, 127
1, 606373, Note_off_c, 10, 69, 127
1, 606374, Note_off_c, 10, 45, 127
1, 606376, Note_on_c, 4, 76, 127
1, 606376, Note_on_c, 4, 52, 127
1, 606376, Note_on_c, 12, 47, 127
1, 606376, Note_on_c, 7, 43, 127
1, 606676, Note_off_c, 4, 76, 127
1, 606679, Note_on_c, 2, 74, 127
1, 606736, Note_off_c, 2, 74, 127
1, 606738, Note_on_c, 0, 72, 127
1, 606795, Note_off_c, 0, 72, 127
1, 606798, Note_on_c, 12, 71, 127
1, 606855, Note_off_c, 12, 71, 127
1, 606858, Note_on_c, 0, 72, 127
1, 606976, Note_off_c, 0, 72, 127
1, 606979, Note_on_c, 4, 76, 127
1, 607115, Note_off_c, 4, 76, 127
1, 607115, Note_off_c, 7, 43, 127
1, 607115, Note_off_c, 12, 47, 127
1, 607117, Note_on_c, 11, 70, 127
1, 607117, Note_on_c, 6, 42, 127
1, 607338, Note_off_c, 6, 42, 127
1, 607338, Note_off_c, 11, 70, 127
1, 607341, Note_on_c, 12, 71, 127
1, 607341, Note_on_c, 7, 43, 127
1, 607641, Note_off_c, 12, 71, 127
1, 607643, Note_on_c, 10, 69, 127
1, 607700, Note_off_c, 10, 69, 127
1, 607703, Note_on_c, 7, 67, 127
1, 607760, Note_off_c, 7, 67, 127
1, 607763, Note_on_c, 6, 66, 127
1, 607820, Note_off_c, 6, 66, 127
1, 607823, Note_on_c, 7, 67, 127
1, 607941, Note_off_c, 7, 67, 127
1, 607944, Note_on_c, 12, 71, 127
1, 608080, Note_off_c, 12, 71, 127
1, 608080, Note_off_c, 7, 43, 127
1, 608082, Note_on_c, 4, 64, 127
1, 608082, Note_on_c, 10, 45, 127
1, 608303, Note_off_c, 10, 45, 127
1, 608303, Note_off_c, 4, 64, 127
1, 608306, Note_on_c, 6, 66, 127
1, 608306, Note_on_c, 12, 47, 127
1, 608656, Note_off_c, 6, 66, 127
1, 608659, Note_on_c, 7, 67, 127
1, 609009, Note_off_c, 7, 67, 127
1, 609012, Note_on_c, 10, 69, 127
1, 609075, Note_off_c, 10, 69, 127
1, 609077, Note_on_c, 7, 67, 127
1, 609140, Note_off_c, 7, 67, 127
1, 609142, Note_on_c, 6, 66, 127
1, 609205, Note_off_c, 6, 66, 127
1, 609207, Note_on_c, 7, 67, 127
1, 609267, Note_off_c, 4, 52, 127
1, 609270, Note_off_c, 7, 67, 127
1, 609272, Note_on_c, 10, 69, 127
1, 609272, Note_on_c, 4, 52, 127
1, 609349, Note_off_c, 4, 52, 127
1, 609352, Note_on_c, 3, 51, 127
1, 609429, Note_off_c, 3, 51, 127
1, 609432, Note_on_c, 4, 52, 127
1, 609509, Note_off_c, 4, 52, 127
1, 609511, Note_on_c, 3, 51, 127
1, 609588, Note_off_c, 3, 51, 127
1, 609591, Note_on_c, 4, 52, 127
1, 609668, Note_off_c, 4, 52, 127
1, 609671, Note_on_c, 3, 51, 127
1, 609748, Note_off_c, 3, 51, 127
1, 609751, Note_on_c, 4, 52, 127
1, 609828, Note_off_c, 4, 52, 127
1, 609831, Note_on_c, 3, 51, 127
1, 609908, Note_off_c, 3, 51, 127
1, 609910, Note_on_c, 1, 49, 127
1, 610005, Note_off_c, 1, 49, 127
1, 610005, Note_off_c, 10, 69, 127
1, 610008, Note_on_c, 10, 57, 127
1, 610008, Note_on_c, 6, 66, 127
1, 610008, Note_on_c, 3, 51, 127
1, 610229, Note_off_c, 3, 51, 127
1, 610229, Note_off_c, 6, 66, 127
1, 610229, Note_off_c, 10, 57, 127
1, 610229, Note_off_c, 12, 47, 127
1, 610232, Note_on_c, 6, 66, 127
1, 610232, Note_on_c, 10, 57, 127
1, 610232, Note_on_c, 4, 52, 127
1, 610232, Note_on_c, 12, 47, 127
1, 610232, Note_on_c, 4, 40, 127
1, 611196, Note_off_c, 10, 57, 127
1, 611196, Note_off_c, 6, 66, 127
1, 611236, Note_on_c, 7, 55, 127
1, 611236, Note_on_c, 4, 64, 127
1, 613128, Note_off_c, 12, 47, 127
1, 613456, Note_off_c, 4, 40, 127
1, 613456, Note_off_c, 4, 52, 127
1, 613604, Note_off_c, 7, 55, 127
1, 613655, Note_off_c, 4, 64, 127
1, 614855, Note_on_c, 4, 52, 127
1, 614855, Note_on_c, 4, 76, 127
1, 614943, Note_off_c, 4, 76, 127
1, 614951, Note_on_c, 6, 78, 127
1, 615039, Note_off_c, 6, 78, 127
1, 615046, Note_on_c, 7, 79, 127
1, 615256, Note_off_c, 4, 52, 127
1, 615266, Note_off_c, 7, 79, 127
1, 615268, Note_on_c, 12, 71, 127
1, 615268, Note_on_c, 7, 55, 127
1, 615534, Note_off_c, 12, 71, 127
1, 615537, Note_on_c, 7, 79, 127
1, 615669, Note_off_c, 7, 79, 127
1, 615669, Note_off_c, 7, 55, 127
1, 615672, Note_on_c, 10, 69, 127
1, 615672, Note_on_c, 0, 60, 127
1, 615938, Note_off_c, 10, 69, 127
1, 615940, Note_on_c, 7, 79, 127
1, 616072, Note_off_c, 7, 79, 127
1, 616075, Note_on_c, 6, 78, 127
1, 616207, Note_off_c, 0, 60, 127
1, 616209, Note_on_c, 12, 59, 127
1, 616341, Note_off_c, 12, 59, 127
1, 616344, Note_on_c, 10, 57, 127
1, 616476, Note_off_c, 10, 57, 127
1, 616476, Note_off_c, 6, 78, 127
1, 616478, Note_on_c, 10, 69, 127
1, 616478, Note_on_c, 3, 63, 127
1, 616566, Note_off_c, 10, 69, 127
1, 616568, Note_on_c, 7, 67, 127
1, 616656, Note_off_c, 7, 67, 127
1, 616659, Note_on_c, 6, 66, 127
1, 616879, Note_off_c, 6, 66, 127
1, 616879, Note_off_c, 3, 63, 127
1, 616881, Note_on_c, 6, 78, 127
1, 616881, Note_on_c, 12, 59, 127
1, 617147, Note_off_c, 6, 78, 127
1, 617150, Note_on_c, 10, 69, 127
1, 617282, Note_off_c, 10, 69, 127
1, 617282, Note_off_c, 12, 59, 127
1, 617284, Note_on_c, 7, 67, 127
1, 617284, Note_on_c, 4, 64, 127
1, 617550, Note_off_c, 7, 67, 127
1, 617553, Note_on_c, 12, 71, 127
1, 617683, Note_off_c, 4, 64, 127
1, 617685, Note_off_c, 12, 71, 127
1, 617688, Note_on_c, 4, 64, 127
1, 617956, Note_on_c, 2, 62, 127
1, 618088, Note_off_c, 2, 62, 127
1, 618091, Note_on_c, 0, 60, 127
1, 618223, Note_off_c, 4, 64, 127
1, 618225, Note_on_c, 3, 63, 127
1, 618357, Note_off_c, 3, 63, 127
1, 618357, Note_off_c, 0, 60, 127
1, 618360, Note_on_c, 4, 64, 127
1, 618360, Note_on_c, 4, 52, 127
1, 618492, Note_off_c, 4, 52, 127
1, 618492, Note_off_c, 4, 64, 127
1, 618494, Note_on_c, 10, 69, 127
1, 618494, Note_on_c, 3, 51, 127
1, 618626, Note_off_c, 10, 69, 127
1, 618628, Note_on_c, 7, 67, 127
1, 618760, Note_off_c, 7, 67, 127
1, 618760, Note_off_c, 3, 51, 127
1, 618763, Note_on_c, 6, 66, 127
1, 618763, Note_on_c, 4, 52, 127
1, 618895, Note_off_c, 4, 52, 127
1, 618895, Note_off_c, 6, 66, 127
1, 618897, Note_on_c, 4, 64, 127
1, 618897, Note_on_c, 12, 59, 127
1, 619029, Note_off_c, 4, 64, 127
1, 619032, Note_on_c, 3, 63, 127
1, 619163, Note_off_c, 12, 59, 127
1, 619164, Note_off_c, 3, 63, 127
1, 619166, Note_on_c, 4, 64, 127
1, 619166, Note_on_c, 4, 52, 127
1, 619298, Note_off_c, 4, 52, 127
1, 619298, Note_off_c, 4, 64, 127
1, 619300, Note_on_c, 12, 71, 127
1, 619300, Note_on_c, 3, 51, 127
1, 619432, Note_off_c, 12, 71, 127
1, 619435, Note_on_c, 7, 67, 127
1, 619566, Note_off_c, 3, 51, 127
1, 619567, Note_off_c, 7, 67, 127
1, 619569, Note_on_c, 6, 66, 127
1, 619569, Note_on_c, 4, 52, 127
1, 619701, Note_off_c, 4, 52, 127
1, 619701, Note_off_c, 6, 66, 127
1, 619704, Note_on_c, 4, 64, 127
1, 619704, Note_on_c, 10, 57, 127
1, 619836, Note_off_c, 4, 64, 127
1, 619838, Note_on_c, 3, 63, 127
1, 619970, Note_off_c, 3, 63, 127
1, 619970, Note_off_c, 10, 57, 127
1, 619972, Note_on_c, 4, 64, 127
1, 619972, Note_on_c, 4, 52, 127
1, 620104, Note_off_c, 4, 52, 127
1, 620104, Note_off_c, 4, 64, 127
1, 620107, Note_on_c, 0, 72, 127
1, 620107, Note_on_c, 3, 51, 127
1, 620239, Note_off_c, 0, 72, 127
1, 620241, Note_on_c, 7, 67, 127
1, 620373, Note_off_c, 7, 67, 127
1, 620373, Note_off_c, 3, 51, 127
1, 620376, Note_on_c, 6, 66, 127
1, 620376, Note_on_c, 4, 52, 127
1, 620508, Note_off_c, 4, 52, 127
1, 620508, Note_off_c, 6, 66, 127
1, 620510, Note_on_c, 4, 64, 127
1, 620510, Note_on_c, 7, 55, 127
1, 620642, Note_off_c, 4, 64, 127
1, 620644, Note_on_c, 3, 63, 127
1, 620776, Note_off_c, 3, 63, 127
1, 620776, Note_off_c, 7, 55, 127
1, 620779, Note_on_c, 4, 64, 127
1, 620779, Note_on_c, 4, 52, 127
1, 620911, Note_off_c, 4, 52, 127
1, 620911, Note_off_c, 4, 64, 127
1, 620913, Note_on_c, 6, 66, 127
1, 620913, Note_on_c, 3, 51, 127
1, 621045, Note_off_c, 6, 66, 127
1, 621048, Note_on_c, 7, 67, 127
1, 621179, Note_off_c, 3, 51, 127
1, 621180, Note_off_c, 7, 67, 127
1, 621182, Note_on_c, 10, 69, 127
1, 621182, Note_on_c, 12, 59, 127
1, 621314, Note_off_c, 12, 59, 127
1, 621314, Note_off_c, 10, 69, 127
1, 621316, Note_on_c, 7, 67, 127
1, 621316, Note_on_c, 4, 52, 127
1, 621448, Note_off_c, 7, 67, 127
1, 621451, Note_on_c, 6, 66, 127
1, 621582, Note_off_c, 4, 52, 127
1, 621583, Note_off_c, 6, 66, 127
1, 621585, Note_on_c, 7, 67, 127
1, 621585, Note_on_c, 0, 60, 127
1, 621717, Note_off_c, 0, 60, 127
1, 621717, Note_off_c, 7, 67, 127
1, 621720, Note_on_c, 10, 69, 127
1, 621720, Note_on_c, 6, 54, 127
1, 621852, Note_off_c, 10, 69, 127
1, 621854, Note_on_c, 12, 71, 127
1, 621986, Note_off_c, 12, 71, 127
1, 621986, Note_off_c, 6, 54, 127
1, 621988, Note_on_c, 0, 72, 127
1, 621988, Note_on_c, 2, 62, 127
1, 622120, Note_off_c, 2, 62, 127
1, 622120, Note_off_c, 0, 72, 127
1, 622123, Note_on_c, 12, 71, 127
1, 622123, Note_on_c, 7, 55, 127
1, 622255, Note_off_c, 12, 71, 127
1, 622257, Note_on_c, 10, 69, 127
1, 622389, Note_off_c, 10, 69, 127
1, 622389, Note_off_c, 7, 55, 127
1, 622392, Note_on_c, 12, 71, 127
1, 622392, Note_on_c, 4, 64, 127
1, 622524, Note_off_c, 4, 64, 127
1, 622524, Note_off_c, 12, 71, 127
1, 622526, Note_on_c, 0, 72, 127
1, 622526, Note_on_c, 10, 57, 127
1, 622658, Note_off_c, 0, 72, 127
1, 622660, Note_on_c, 2, 74, 127
1, 622792, Note_off_c, 2, 74, 127
1, 622792, Note_off_c, 10, 57, 127
1, 622795, Note_on_c, 4, 76, 127
1, 622795, Note_on_c, 6, 66, 127
1, 622927, Note_off_c, 6, 66, 127
1, 622927, Note_off_c, 4, 76, 127
1, 622929, Note_on_c, 2, 74, 127
1, 622929, Note_on_c, 12, 59, 127
1, 623061, Note_off_c, 2, 74, 127
1, 623064, Note_on_c, 0, 72, 127
1, 623195, Note_off_c, 12, 59, 127
1, 623196, Note_off_c, 0, 72, 127
1, 623198, Note_on_c, 2, 74, 127
1, 623198, Note_on_c, 7, 67, 127
1, 623330, Note_off_c, 7, 67, 127
1, 623330, Note_off_c, 2, 74, 127
1, 623332, Note_on_c, 4, 76, 127
1, 623332, Note_on_c, 0, 60, 127
1, 623464, Note_off_c, 4, 76, 127
1, 623467, Note_on_c, 6, 78, 127
1, 623598, Note_off_c, 0, 60, 127
1, 623599, Note_off_c, 6, 78, 127
1, 623601, Note_on_c, 7, 79, 127
1, 623601, Note_on_c, 10, 69, 127
1, 623733, Note_off_c, 10, 69, 127
1, 623733, Note_off_c, 7, 79, 127
1, 623736, Note_on_c, 6, 78, 127
1, 623736, Note_on_c, 2, 62, 127
1, 623868, Note_off_c, 6, 78, 127
1, 623870, Note_on_c, 7, 79, 127
1, 624002, Note_off_c, 7, 79, 127
1, 624004, Note_on_c, 10, 81, 127
1, 624136, Note_off_c, 10, 81, 127
1, 624139, Note_on_c, 2, 74, 127
1, 624271, Note_off_c, 2, 62, 127
1, 624273, Note_on_c, 0, 60, 127
1, 624359, Note_off_c, 0, 60, 127
1, 624361, Note_on_c, 12, 59, 127
1, 624447, Note_off_c, 12, 59, 127
1, 624450, Note_on_c, 10, 57, 127
1, 624540, Note_off_c, 10, 57, 127
1, 624542, Note_on_c, 7, 55, 127
1, 624674, Note_off_c, 7, 55, 127
1, 624674, Note_off_c, 2, 74, 127
1, 624676, Note_on_c, 0, 72, 127
1, 624676, Note_on_c, 10, 57, 127
1, 624808, Note_off_c, 10, 57, 127
1, 624808, Note_off_c, 0, 72, 127
1, 624811, Note_on_c, 2, 74, 127
1, 624811, Note_on_c, 12, 59, 127
1, 624943, Note_off_c, 12, 59, 127
1, 624943, Note_off_c, 2, 74, 127
1, 624945, Note_on_c, 7, 79, 127
1, 624945, Note_on_c, 4, 52, 127
1, 625077, Note_off_c, 7, 79, 127
1, 625080, Note_on_c, 6, 78, 127
1, 625211, Note_off_c, 4, 52, 127
1, 625212, Note_off_c, 6, 78, 127
1, 625214, Note_on_c, 4, 76, 127
1, 625214, Note_on_c, 12, 59, 127
1, 625346, Note_off_c, 12, 59, 127
1, 625346, Note_off_c, 4, 76, 127
1, 625348, Note_on_c, 2, 74, 127
1, 625348, Note_on_c, 0, 48, 127
1, 625480, Note_off_c, 2, 74, 127
1, 625483, Note_on_c, 0, 72, 127
1, 625614, Note_off_c, 0, 48, 127
1, 625615, Note_off_c, 0, 72, 127
1, 625617, Note_on_c, 12, 71, 127
1, 625617, Note_on_c, 12, 59, 127
1, 625749, Note_off_c, 12, 59, 127
1, 625749, Note_off_c, 12, 71, 127
1, 625752, Note_on_c, 0, 72, 127
1, 625752, Note_on_c, 10, 57, 127
1, 625884, Note_off_c, 0, 72, 127
1, 625886, Note_on_c, 12, 71, 127
1, 626018, Note_off_c, 12, 71, 127
1, 626020, Note_on_c, 10, 69, 127
1, 626152, Note_off_c, 10, 69, 127
1, 626153, Note_off_c, 10, 57, 127
1, 626155, Note_on_c, 10, 69, 127
1, 626155, Note_on_c, 6, 54, 127
1, 626287, Note_off_c, 6, 54, 127
1, 626287, Note_off_c, 10, 69, 127
1, 626289, Note_on_c, 7, 67, 127
1, 626289, Note_on_c, 4, 52, 127
1, 626421, Note_off_c, 4, 52, 127
1, 626421, Note_off_c, 7, 67, 127
1, 626424, Note_on_c, 6, 66, 127
1, 626424, Note_on_c, 2, 50, 127
1, 626556, Note_off_c, 2, 50, 127
1, 626556, Note_off_c, 6, 66, 127
1, 626558, Note_on_c, 6, 66, 127
1, 626558, Note_on_c, 10, 57, 127
1, 626690, Note_off_c, 6, 66, 127
1, 626692, Note_on_c, 4, 64, 127
1, 626824, Note_off_c, 4, 64, 127
1, 626824, Note_off_c, 10, 57, 127
1, 626827, Note_on_c, 2, 62, 127
1, 626827, Note_on_c, 0, 48, 127
1, 626959, Note_off_c, 0, 48, 127
1, 626959, Note_off_c, 2, 62, 127
1, 626961, Note_on_c, 2, 62, 127
1, 626961, Note_on_c, 12, 47, 127
1, 627093, Note_off_c, 2, 62, 127
1, 627096, Note_on_c, 0, 60, 127
1, 627227, Note_off_c, 12, 47, 127
1, 627228, Note_off_c, 0, 60, 127
1, 627230, Note_on_c, 12, 59, 127
1, 627230, Note_on_c, 10, 57, 127
1, 627362, Note_off_c, 10, 57, 127
1, 627362, Note_off_c, 12, 59, 127
1, 627364, Note_on_c, 12, 59, 127
1, 627364, Note_on_c, 7, 55, 127
1, 627496, Note_off_c, 12, 59, 127
1, 627499, Note_on_c, 10, 57, 127
1, 627628, Note_off_c, 7, 55, 127
1, 627631, Note_off_c, 10, 57, 127
1, 627633, Note_on_c, 7, 55, 127
1, 627765, Note_off_c, 7, 55, 127
1, 627768, Note_on_c, 7, 55, 127
1, 627768, Note_on_c, 4, 52, 127
1, 627900, Note_off_c, 4, 52, 127
1, 627902, Note_on_c, 6, 54, 127
1, 628034, Note_off_c, 6, 54, 127
1, 628034, Note_off_c, 7, 55, 127
1, 628036, Note_on_c, 7, 67, 127
1, 628036, Note_on_c, 7, 55, 127
1, 628168, Note_off_c, 7, 55, 127
1, 628168, Note_off_c, 7, 67, 127
1, 628171, Note_on_c, 6, 66, 127
1, 628171, Note_on_c, 12, 47, 127
1, 628303, Note_off_c, 12, 47, 127
1, 628305, Note_on_c, 10, 45, 127
1, 628437, Note_off_c, 10, 45, 127
1, 628437, Note_off_c, 6, 66, 127
1, 628440, Note_on_c, 7, 67, 127
1, 628440, Note_on_c, 7, 43, 127
1, 628572, Note_off_c, 7, 43, 127
1, 628572, Note_off_c, 7, 67, 127
1, 628574, Note_on_c, 10, 57, 127
1, 628574, Note_on_c, 6, 54, 127
1, 628706, Note_off_c, 6, 54, 127
1, 628708, Note_on_c, 7, 55, 127
1, 628840, Note_off_c, 7, 55, 127
1, 628840, Note_off_c, 10, 57, 127
1, 628843, Note_on_c, 7, 67, 127
1, 628843, Note_on_c, 10, 57, 127
1, 628975, Note_off_c, 10, 57, 127
1, 628975, Note_off_c, 7, 67, 127
1, 628977, Note_on_c, 6, 66, 127
1, 628977, Note_on_c, 0, 48, 127
1, 629109, Note_off_c, 0, 48, 127
1, 629112, Note_on_c, 12, 47, 127
1, 629243, Note_off_c, 6, 66, 127
1, 629244, Note_off_c, 12, 47, 127
1, 629246, Note_on_c, 7, 67, 127
1, 629246, Note_on_c, 10, 45, 127
1, 629378, Note_off_c, 10, 45, 127
1, 629378, Note_off_c, 7, 67, 127
1, 629380, Note_on_c, 12, 59, 127
1, 629380, Note_on_c, 7, 55, 127
1, 629512, Note_off_c, 7, 55, 127
1, 629515, Note_on_c, 10, 57, 127
1, 629646, Note_off_c, 12, 59, 127
1, 629647, Note_off_c, 10, 57, 127
1, 629649, Note_on_c, 7, 67, 127
1, 629649, Note_on_c, 12, 59, 127
1, 629781, Note_off_c, 12, 59, 127
1, 629781, Note_off_c, 7, 67, 127
1, 629784, Note_on_c, 6, 66, 127
1, 629784, Note_on_c, 2, 50, 127
1, 629916, Note_off_c, 2, 50, 127
1, 629918, Note_on_c, 0, 48, 127
1, 630050, Note_off_c, 0, 48, 127
1, 630050, Note_off_c, 6, 66, 127
1, 630052, Note_on_c, 7, 67, 127
1, 630052, Note_on_c, 12, 47, 127
1, 630184, Note_off_c, 12, 47, 127
1, 630184, Note_off_c, 7, 67, 127
1, 630187, Note_on_c, 0, 60, 127
1, 630187, Note_on_c, 10, 57, 127
1, 630319, Note_off_c, 10, 57, 127
1, 630321, Note_on_c, 12, 59, 127
1, 630453, Note_off_c, 12, 59, 127
1, 630453, Note_off_c, 0, 60, 127
1, 630456, Note_on_c, 7, 67, 127
1, 630456, Note_on_c, 0, 60, 127
1, 630588, Note_off_c, 0, 60, 127
1, 630588, Note_off_c, 7, 67, 127
1, 630590, Note_on_c, 6, 66, 127
1, 630590, Note_on_c, 4, 52, 127
1, 630722, Note_off_c, 4, 52, 127
1, 630724, Note_on_c, 2, 50, 127
1, 630856, Note_off_c, 2, 50, 127
1, 630856, Note_off_c, 6, 66, 127
1, 630859, Note_on_c, 7, 67, 127
1, 630859, Note_on_c, 0, 48, 127
1, 630991, Note_off_c, 0, 48, 127
1, 630991, Note_off_c, 7, 67, 127
1, 630993, Note_on_c, 2, 62, 127
1, 630993, Note_on_c, 12, 47, 127
1, 631125, Note_off_c, 2, 62, 127
1, 631128, Note_on_c, 4, 64, 127
1, 631259, Note_off_c, 12, 47, 127
1, 631260, Note_off_c, 4, 64, 127
1, 631262, Note_on_c, 6, 66, 127
1, 631262, Note_on_c, 7, 55, 127
1, 631394, Note_off_c, 7, 55, 127
1, 631394, Note_off_c, 6, 66, 127
1, 631396, Note_on_c, 6, 66, 127
1, 631396, Note_on_c, 10, 45, 127
1, 631528, Note_off_c, 6, 66, 127
1, 631531, Note_on_c, 7, 67, 127
1, 631662, Note_off_c, 10, 45, 127
1, 631663, Note_off_c, 7, 67, 127
1, 631665, Note_on_c, 10, 69, 127
1, 631665, Note_on_c, 6, 54, 127
1, 631797, Note_off_c, 6, 54, 127
1, 631797, Note_off_c, 10, 69, 127
1, 631800, Note_on_c, 10, 69, 127
1, 631800, Note_on_c, 7, 43, 127
1, 631932, Note_off_c, 10, 69, 127
1, 631934, Note_on_c, 12, 71, 127
1, 632066, Note_off_c, 12, 71, 127
1, 632066, Note_off_c, 7, 43, 127
1, 632068, Note_on_c, 0, 72, 127
1, 632068, Note_on_c, 4, 52, 127
1, 632200, Note_off_c, 4, 52, 127
1, 632200, Note_off_c, 0, 72, 127
1, 632203, Note_on_c, 2, 74, 127
1, 632203, Note_on_c, 6, 42, 127
1, 632335, Note_off_c, 2, 74, 127
1, 632337, Note_on_c, 0, 72, 127
1, 632469, Note_off_c, 0, 72, 127
1, 632469, Note_off_c, 6, 42, 127
1, 632472, Note_on_c, 12, 71, 127
1, 632472, Note_on_c, 2, 50, 127
1, 632604, Note_off_c, 2, 50, 127
1, 632604, Note_off_c, 12, 71, 127
1, 632606, Note_on_c, 10, 69, 127
1, 632606, Note_on_c, 4, 40, 127
1, 632738, Note_off_c, 10, 69, 127
1, 632740, Note_on_c, 12, 71, 127
1, 632872, Note_off_c, 12, 71, 127
1, 632872, Note_off_c, 4, 40, 127
1, 632875, Note_on_c, 7, 67, 127
1, 632875, Note_on_c, 1, 49, 127
1, 633007, Note_off_c, 1, 49, 127
1, 633007, Note_off_c, 7, 67, 127
1, 633009, Note_on_c, 2, 62, 127
1, 633009, Note_on_c, 2, 50, 127
1, 633141, Note_off_c, 2, 62, 127
1, 633144, Note_on_c, 7, 67, 127
1, 633275, Note_off_c, 2, 50, 127
1, 633276, Note_off_c, 7, 67, 127
1, 633278, Note_on_c, 6, 66, 127
1, 633278, Note_on_c, 2, 38, 127
1, 633410, Note_off_c, 2, 38, 127
1, 633410, Note_off_c, 6, 66, 127
1, 633412, Note_on_c, 7, 67, 127
1, 633412, Note_on_c, 7, 43, 127
1, 633544, Note_off_c, 7, 43, 127
1, 633547, Note_on_c, 12, 47, 127
1, 633679, Note_off_c, 12, 47, 127
1, 633681, Note_on_c, 2, 50, 127
1, 633813, Note_off_c, 2, 50, 127
1, 633816, Note_on_c, 7, 55, 127
1, 633948, Note_off_c, 7, 55, 127
1, 633950, Note_on_c, 2, 50, 127
1, 634000, Note_off_c, 7, 67, 127
1, 634082, Note_off_c, 2, 50, 127
1, 634084, Note_on_c, 12, 47, 127
1, 634216, Note_off_c, 12, 47, 127
1, 634219, Note_on_c, 12, 71, 127
1, 634219, Note_on_c, 7, 43, 127
1, 634307, Note_off_c, 12, 71, 127
1, 634309, Note_on_c, 0, 72, 127
1, 634397, Note_off_c, 0, 72, 127
1, 634399, Note_on_c, 2, 74, 127
1, 634619, Note_off_c, 2, 74, 127
1, 634620, Note_off_c, 7, 43, 127
1, 634622, Note_on_c, 7, 67, 127
1, 634622, Note_on_c, 7, 55, 127
1, 634888, Note_off_c, 7, 67, 127
1, 634891, Note_on_c, 4, 76, 127
1, 635023, Note_off_c, 4, 76, 127
1, 635025, Note_on_c, 10, 81, 127
1, 635157, Note_off_c, 7, 55, 127
1, 635160, Note_on_c, 6, 54, 127
1, 635291, Note_off_c, 10, 81, 127
1, 635292, Note_off_c, 6, 54, 127
1, 635294, Note_on_c, 1, 73, 127
1, 635294, Note_on_c, 4, 52, 127
1, 635426, Note_off_c, 4, 52, 127
1, 635426, Note_off_c, 1, 73, 127
1, 635428, Note_on_c, 2, 74, 127
1, 635428, Note_on_c, 6, 54, 127
1, 635694, Note_off_c, 6, 54, 127
1, 635697, Note_on_c, 12, 59, 127
1, 635785, Note_off_c, 2, 74, 127
1, 635829, Note_off_c, 12, 59, 127
1, 635832, Note_on_c, 1, 73, 127
1, 635832, Note_on_c, 4, 52, 127
1, 635964, Note_off_c, 4, 52, 127
1, 635964, Note_off_c, 1, 73, 127
1, 635966, Note_on_c, 12, 71, 127
1, 635966, Note_on_c, 6, 54, 127
1, 636098, Note_off_c, 6, 54, 127
1, 636098, Note_off_c, 12, 71, 127
1, 636100, Note_on_c, 10, 69, 127
1, 636100, Note_on_c, 7, 55, 127
1, 636232, Note_off_c, 7, 55, 127
1, 636232, Note_off_c, 10, 69, 127
1, 636235, Note_on_c, 7, 79, 127
1, 636235, Note_on_c, 10, 57, 127
1, 636367, Note_off_c, 10, 57, 127
1, 636369, Note_on_c, 12, 59, 127
1, 636501, Note_off_c, 12, 59, 127
1, 636501, Note_off_c, 7, 79, 127
1, 636504, Note_on_c, 4, 76, 127
1, 636504, Note_on_c, 1, 61, 127
1, 636636, Note_off_c, 1, 61, 127
1, 636636, Note_off_c, 4, 76, 127
1, 636638, Note_on_c, 6, 78, 127
1, 636638, Note_on_c, 2, 62, 127
1, 636904, Note_off_c, 6, 78, 127
1, 636907, Note_on_c, 10, 81, 127
1, 637039, Note_off_c, 10, 81, 127
1, 637041, Note_on_c, 2, 74, 127
1, 637173, Note_off_c, 2, 62, 127
1, 637176, Note_on_c, 0, 60, 127
1, 637262, Note_off_c, 0, 60, 127
1, 637264, Note_on_c, 12, 59, 127
1, 637350, Note_off_c, 12, 59, 127
1, 637352, Note_on_c, 10, 57, 127
1, 637442, Note_off_c, 10, 57, 127
1, 637444, Note_on_c, 12, 59, 127
1, 637576, Note_off_c, 2, 74, 127
1, 637579, Note_on_c, 7, 79, 127
1, 637710, Note_off_c, 12, 59, 127
1, 637711, Note_off_c, 7, 79, 127
1, 637713, Note_on_c, 2, 74, 127
1, 637713, Note_on_c, 2, 62, 127
1, 637845, Note_off_c, 2, 62, 127
1, 637845, Note_off_c, 2, 74, 127
1, 637848, Note_on_c, 12, 71, 127
1, 637848, Note_on_c, 7, 55, 127
1, 637980, Note_off_c, 12, 71, 127
1, 637982, Note_on_c, 7, 67, 127
1, 638114, Note_off_c, 7, 67, 127
1, 638116, Note_on_c, 6, 66, 127
1, 638248, Note_off_c, 6, 66, 127
1, 638251, Note_on_c, 7, 67, 127
1, 638383, Note_off_c, 7, 67, 127
1, 638383, Note_off_c, 7, 55, 127
1, 638385, Note_on_c, 12, 71, 127
1, 638385, Note_on_c, 2, 50, 127
1, 638517, Note_off_c, 2, 50, 127
1, 638517, Note_off_c, 12, 71, 127
1, 638520, Note_on_c, 2, 74, 127
1, 638520, Note_on_c, 12, 47, 127
1, 638652, Note_off_c, 12, 47, 127
1, 638652, Note_off_c, 2, 74, 127
1, 638654, Note_on_c, 5, 77, 127
1, 638654, Note_on_c, 7, 43, 127
1, 638786, Note_off_c, 5, 77, 127
1, 638788, Note_on_c, 4, 76, 127
1, 638920, Note_off_c, 4, 76, 127
1, 638920, Note_off_c, 7, 43, 127
1, 638923, Note_on_c, 2, 74, 127
1, 638923, Note_on_c, 12, 59, 127
1, 639055, Note_off_c, 12, 59, 127
1, 639055, Note_off_c, 2, 74, 127
1, 639057, Note_on_c, 4, 76, 127
1, 639057, Note_on_c, 0, 60, 127
1, 639189, Note_off_c, 4, 76, 127
1, 639192, Note_on_c, 10, 81, 127
1, 639323, Note_off_c, 0, 60, 127
1, 639324, Note_off_c, 10, 81, 127
1, 639326, Note_on_c, 4, 76, 127
1, 639326, Note_on_c, 4, 64, 127
1, 639458, Note_off_c, 4, 64, 127
1, 639458, Note_off_c, 4, 76, 127
1, 639460, Note_on_c, 1, 73, 127
1, 639460, Note_on_c, 10, 57, 127
1, 639592, Note_off_c, 1, 73, 127
1, 639595, Note_on_c, 10, 69, 127
1, 639727, Note_off_c, 10, 69, 127
1, 639729, Note_on_c, 8, 68, 127
1, 639861, Note_off_c, 8, 68, 127
1, 639864, Note_on_c, 10, 69, 127
1, 639995, Note_off_c, 10, 57, 127
1, 639996, Note_off_c, 10, 69, 127
1, 639998, Note_on_c, 1, 73, 127
1, 639998, Note_on_c, 4, 52, 127
1, 640130, Note_off_c, 4, 52, 127
1, 640130, Note_off_c, 1, 73, 127
1, 640132, Note_on_c, 4, 76, 127
1, 640132, Note_on_c, 1, 49, 127
1, 640264, Note_off_c, 1, 49, 127
1, 640264, Note_off_c, 4, 76, 127
1, 640267, Note_on_c, 7, 79, 127
1, 640267, Note_on_c, 10, 45, 127
1, 640399, Note_off_c, 7, 79, 127
1, 640401, Note_on_c, 6, 78, 127
1, 640533, Note_off_c, 6, 78, 127
1, 640533, Note_off_c, 10, 45, 127
1, 640536, Note_on_c, 4, 76, 127
1, 640536, Note_on_c, 1, 61, 127
1, 640668, Note_off_c, 1, 61, 127
1, 640668, Note_off_c, 4, 76, 127
1, 640670, Note_on_c, 6, 78, 127
1, 640670, Note_on_c, 2, 62, 127
1, 640802, Note_off_c, 6, 78, 127
1, 640804, Note_on_c, 12, 83, 127
1, 640936, Note_off_c, 12, 83, 127
1, 640936, Note_off_c, 2, 62, 127
1, 640939, Note_on_c, 6, 78, 127
1, 640939, Note_on_c, 6, 66, 127
1, 641071, Note_off_c, 6, 66, 127
1, 641071, Note_off_c, 6, 78, 127
1, 641073, Note_on_c, 3, 75, 127
1, 641073, Note_on_c, 12, 59, 127
1, 641205, Note_off_c, 3, 75, 127
1, 641208, Note_on_c, 12, 71, 127
1, 641340, Note_off_c, 12, 71, 127
1, 641342, Note_on_c, 11, 70, 127
1, 641474, Note_off_c, 11, 70, 127
1, 641476, Note_on_c, 12, 71, 127
1, 641608, Note_off_c, 12, 71, 127
1, 641608, Note_off_c, 12, 59, 127
1, 641611, Note_on_c, 3, 75, 127
1, 641611, Note_on_c, 6, 54, 127
1, 641743, Note_off_c, 6, 54, 127
1, 641743, Note_off_c, 3, 75, 127
1, 641745, Note_on_c, 6, 78, 127
1, 641745, Note_on_c, 3, 51, 127
1, 641877, Note_off_c, 3, 51, 127
1, 641877, Note_off_c, 6, 78, 127
1, 641880, Note_on_c, 10, 81, 127
1, 641880, Note_on_c, 12, 47, 127
1, 642012, Note_off_c, 10, 81, 127
1, 642014, Note_on_c, 7, 79, 127
1, 642134, Note_off_c, 12, 47, 127
1, 642146, Note_off_c, 7, 79, 127
1, 642148, Note_on_c, 6, 78, 127
1, 642148, Note_on_c, 3, 63, 127
1, 642280, Note_off_c, 3, 63, 127
1, 642280, Note_off_c, 6, 78, 127
1, 642283, Note_on_c, 7, 79, 127
1, 642283, Note_on_c, 4, 64, 127
1, 642415, Note_off_c, 7, 79, 127
1, 642417, Note_on_c, 6, 78, 127
1, 642549, Note_off_c, 6, 78, 127
1, 642549, Note_off_c, 4, 64, 127
1, 642552, Note_on_c, 4, 76, 127
1, 642552, Note_on_c, 11, 58, 127
1, 642684, Note_off_c, 11, 58, 127
1, 642684, Note_off_c, 4, 76, 127
1, 642686, Note_on_c, 2, 74, 127
1, 642686, Note_on_c, 12, 59, 127
1, 642818, Note_off_c, 2, 74, 127
1, 642820, Note_on_c, 1, 73, 127
1, 642952, Note_off_c, 1, 73, 127
1, 642952, Note_off_c, 12, 59, 127
1, 642955, Note_on_c, 12, 71, 127
1, 642955, Note_on_c, 7, 55, 127
1, 643087, Note_off_c, 7, 55, 127
1, 643087, Note_off_c, 12, 71, 127
1, 643089, Note_on_c, 11, 70, 127
1, 643089, Note_on_c, 6, 54, 127
1, 643221, Note_off_c, 11, 70, 127
1, 643224, Note_on_c, 12, 71, 127
1, 643356, Note_off_c, 12, 71, 127
1, 643358, Note_on_c, 1, 73, 127
1, 643490, Note_off_c, 1, 73, 127
1, 643492, Note_on_c, 6, 66, 127
1, 643624, Note_off_c, 6, 66, 127
1, 643624, Note_off_c, 6, 54, 127
1, 643627, Note_on_c, 8, 68, 127
1, 643627, Note_on_c, 4, 52, 127
1, 643759, Note_off_c, 4, 52, 127
1, 643759, Note_off_c, 8, 68, 127
1, 643761, Note_on_c, 11, 70, 127
1, 643761, Note_on_c, 6, 54, 127
1, 643893, Note_off_c, 6, 54, 127
1, 643893, Note_off_c, 11, 70, 127
1, 643896, Note_on_c, 12, 71, 127
1, 643896, Note_on_c, 7, 55, 127
1, 644028, Note_off_c, 12, 71, 127
1, 644030, Note_on_c, 11, 70, 127
1, 644162, Note_off_c, 11, 70, 127
1, 644162, Note_off_c, 7, 55, 127
1, 644164, Note_on_c, 12, 71, 127
1, 644164, Note_on_c, 12, 59, 127
1, 644296, Note_off_c, 12, 59, 127
1, 644296, Note_off_c, 12, 71, 127
1, 644299, Note_on_c, 4, 76, 127
1, 644299, Note_on_c, 11, 58, 127
1, 644431, Note_off_c, 4, 76, 127
1, 644433, Note_on_c, 2, 74, 127
1, 644565, Note_off_c, 2, 74, 127
1, 644565, Note_off_c, 11, 58, 127
1, 644568, Note_on_c, 1, 73, 127
1, 644568, Note_on_c, 12, 59, 127
1, 644700, Note_off_c, 12, 59, 127
1, 644700, Note_off_c, 1, 73, 127
1, 644702, Note_on_c, 12, 71, 127
1, 644702, Note_on_c, 6, 54, 127
1, 644834, Note_off_c, 12, 71, 127
1, 644836, Note_on_c, 11, 70, 127
1, 644968, Note_off_c, 11, 70, 127
1, 644968, Note_off_c, 6, 54, 127
1, 644971, Note_on_c, 12, 71, 127
1, 644971, Note_on_c, 12, 59, 127
1, 645103, Note_off_c, 12, 59, 127
1, 645103, Note_off_c, 12, 71, 127
1, 645105, Note_on_c, 6, 78, 127
1, 645105, Note_on_c, 11, 58, 127
1, 645237, Note_off_c, 6, 78, 127
1, 645240, Note_on_c, 2, 74, 127
1, 645371, Note_off_c, 11, 58, 127
1, 645372, Note_off_c, 2, 74, 127
1, 645374, Note_on_c, 1, 73, 127
1, 645374, Note_on_c, 12, 59, 127
1, 645506, Note_off_c, 12, 59, 127
1, 645506, Note_off_c, 1, 73, 127
1, 645508, Note_on_c, 12, 71, 127
1, 645508, Note_on_c, 4, 52, 127
1, 645640, Note_off_c, 12, 71, 127
1, 645643, Note_on_c, 11, 70, 127
1, 645774, Note_off_c, 4, 52, 127
1, 645775, Note_off_c, 11, 70, 127
1, 645777, Note_on_c, 12, 71, 127
1, 645777, Note_on_c, 12, 59, 127
1, 645909, Note_off_c, 12, 59, 127
1, 645909, Note_off_c, 12, 71, 127
1, 645912, Note_on_c, 7, 79, 127
1, 645912, Note_on_c, 11, 58, 127
1, 646044, Note_off_c, 7, 79, 127
1, 646046, Note_on_c, 2, 74, 127
1, 646178, Note_off_c, 2, 74, 127
1, 646178, Note_off_c, 11, 58, 127
1, 646180, Note_on_c, 1, 73, 127
1, 646180, Note_on_c, 12, 59, 127
1, 646312, Note_off_c, 12, 59, 127
1, 646312, Note_off_c, 1, 73, 127
1, 646315, Note_on_c, 12, 71, 127
1, 646315, Note_on_c, 2, 50, 127
1, 646447, Note_off_c, 12, 71, 127
1, 646449, Note_on_c, 11, 70, 127
1, 646581, Note_off_c, 11, 70, 127
1, 646581, Note_off_c, 2, 50, 127
1, 646584, Note_on_c, 12, 71, 127
1, 646584, Note_on_c, 12, 59, 127
1, 646716, Note_off_c, 12, 59, 127
1, 646718, Note_on_c, 12, 83, 127
1, 646718, Note_on_c, 11, 58, 127
1, 646773, Note_off_c, 12, 71, 127
1, 646850, Note_off_c, 12, 83, 127
1, 646852, Note_on_c, 10, 81, 127
1, 646984, Note_off_c, 10, 81, 127
1, 646984, Note_off_c, 11, 58, 127
1, 646987, Note_on_c, 7, 79, 127
1, 646987, Note_on_c, 12, 59, 127
1, 647119, Note_off_c, 12, 59, 127
1, 647119, Note_off_c, 7, 79, 127
1, 647121, Note_on_c, 7, 79, 127
1, 647121, Note_on_c, 1, 49, 127
1, 647253, Note_off_c, 1, 49, 127
1, 647253, Note_off_c, 7, 79, 127
1, 647256, Note_on_c, 6, 78, 127
1, 647256, Note_on_c, 2, 50, 127
1, 647388, Note_off_c, 2, 50, 127
1, 647388, Note_off_c, 6, 78, 127
1, 647390, Note_on_c, 4, 76, 127
1, 647390, Note_on_c, 4, 52, 127
1, 647522, Note_off_c, 4, 52, 127
1, 647522, Note_off_c, 4, 76, 127
1, 647524, Note_on_c, 4, 76, 127
1, 647524, Note_on_c, 12, 47, 127
1, 647656, Note_off_c, 4, 76, 127
1, 647659, Note_on_c, 2, 74, 127
1, 647790, Note_off_c, 12, 47, 127
1, 647791, Note_off_c, 2, 74, 127
1, 647793, Note_on_c, 1, 73, 127
1, 647793, Note_on_c, 7, 55, 127
1, 647925, Note_off_c, 7, 55, 127
1, 647925, Note_off_c, 1, 73, 127
1, 647928, Note_on_c, 1, 73, 127
1, 647928, Note_on_c, 11, 46, 127
1, 648060, Note_off_c, 1, 73, 127
1, 648062, Note_on_c, 12, 71, 127
1, 648194, Note_off_c, 12, 71, 127
1, 648194, Note_off_c, 11, 46, 127
1, 648196, Note_on_c, 11, 70, 127
1, 648196, Note_on_c, 7, 55, 127
1, 648328, Note_off_c, 7, 55, 127
1, 648328, Note_off_c, 11, 70, 127
1, 648331, Note_on_c, 11, 70, 127
1, 648331, Note_on_c, 6, 54, 127
1, 648463, Note_off_c, 11, 70, 127
1, 648465, Note_on_c, 8, 68, 127
1, 648597, Note_off_c, 8, 68, 127
1, 648600, Note_on_c, 6, 66, 127
1, 648732, Note_off_c, 6, 66, 127
1, 648732, Note_off_c, 6, 54, 127
1, 648734, Note_on_c, 6, 66, 127
1, 648734, Note_on_c, 2, 50, 127
1, 648866, Note_off_c, 2, 50, 127
1, 648866, Note_off_c, 6, 66, 127
1, 648868, Note_on_c, 4, 64, 127
1, 648868, Note_on_c, 1, 49, 127
1, 649000, Note_off_c, 1, 49, 127
1, 649000, Note_off_c, 4, 64, 127
1, 649003, Note_on_c, 2, 62, 127
1, 649003, Note_on_c, 12, 47, 127
1, 649135, Note_off_c, 12, 47, 127
1, 649135, Note_off_c, 2, 62, 127
1, 649137, Note_on_c, 2, 62, 127
1, 649137, Note_on_c, 6, 54, 127
1, 649269, Note_off_c, 2, 62, 127
1, 649272, Note_on_c, 1, 61, 127
1, 649403, Note_off_c, 6, 54, 127
1, 649404, Note_off_c, 1, 61, 127
1, 649406, Note_on_c, 12, 59, 127
1, 649406, Note_on_c, 6, 42, 127
1, 649538, Note_off_c, 6, 42, 127
1, 649538, Note_off_c, 12, 59, 127
1, 649540, Note_on_c, 12, 59, 127
1, 649540, Note_on_c, 12, 47, 127
1, 649672, Note_off_c, 12, 47, 127
1, 649675, Note_on_c, 2, 50, 127
1, 649807, Note_off_c, 2, 50, 127
1, 649809, Note_on_c, 6, 54, 127
1, 649939, Note_off_c, 12, 59, 127
1, 649941, Note_off_c, 6, 54, 127
1, 649944, Note_on_c, 10, 57, 127
1, 650076, Note_off_c, 10, 57, 127
1, 650078, Note_on_c, 8, 56, 127
1, 650084, Note_on_c, 10, 69, 127
1, 650170, Note_off_c, 10, 69, 127
1, 650170, Note_on_c, 12, 71, 127
1, 650210, Note_off_c, 8, 56, 127
1, 650212, Note_on_c, 6, 54, 127
1, 650256, Note_off_c, 12, 71, 127
1, 650257, Note_on_c, 0, 72, 127
1, 650344, Note_off_c, 6, 54, 127
1, 650347, Note_off_c, 0, 72, 127
1, 650347, Note_on_c, 2, 74, 127
1, 650347, Note_on_c, 8, 56, 127
1, 650479, Note_off_c, 8, 56, 127
1, 650479, Note_off_c, 2, 74, 127
1, 650481, Note_on_c, 0, 72, 127
1, 650481, Note_on_c, 10, 57, 127
1, 650613, Note_off_c, 10, 57, 127
1, 650613, Note_off_c, 0, 72, 127
1, 650616, Note_on_c, 12, 71, 127
1, 650616, Note_on_c, 12, 59, 127
1, 650748, Note_off_c, 12, 59, 127
1, 650748, Note_off_c, 12, 71, 127
1, 650750, Note_on_c, 5, 77, 127
1, 650750, Note_on_c, 2, 50, 127
1, 651016, Note_off_c, 5, 77, 127
1, 651019, Note_on_c, 10, 69, 127
1, 651151, Note_off_c, 10, 69, 127
1, 651153, Note_on_c, 8, 68, 127
1, 651285, Note_off_c, 2, 50, 127
1, 651288, Note_on_c, 5, 53, 127
1, 651419, Note_off_c, 8, 68, 127
1, 651420, Note_off_c, 5, 53, 127
1, 651422, Note_on_c, 12, 71, 127
1, 651422, Note_on_c, 2, 50, 127
1, 651554, Note_off_c, 2, 50, 127
1, 651554, Note_off_c, 12, 71, 127
1, 651556, Note_on_c, 2, 74, 127
1, 651556, Note_on_c, 12, 47, 127
1, 651688, Note_off_c, 12, 47, 127
1, 651691, Note_on_c, 2, 50, 127
1, 651823, Note_off_c, 2, 50, 127
1, 651825, Note_on_c, 12, 47, 127
1, 651913, Note_off_c, 2, 74, 127
1, 651957, Note_off_c, 12, 47, 127
1, 651960, Note_on_c, 5, 65, 127
1, 651960, Note_on_c, 8, 44, 127
1, 652092, Note_off_c, 8, 44, 127
1, 652092, Note_off_c, 5, 65, 127
1, 652094, Note_on_c, 4, 64, 127
1, 652094, Note_on_c, 12, 47, 127
1, 652226, Note_off_c, 12, 47, 127
1, 652226, Note_off_c, 4, 64, 127
1, 652228, Note_on_c, 5, 65, 127
1, 652228, Note_on_c, 8, 44, 127
1, 652360, Note_off_c, 8, 44, 127
1, 652360, Note_off_c, 5, 65, 127
1, 652363, Note_on_c, 2, 74, 127
1, 652363, Note_on_c, 4, 40, 127
1, 652495, Note_off_c, 2, 74, 127
1, 652497, Note_on_c, 0, 72, 127
1, 652629, Note_off_c, 0, 72, 127
1, 652629, Note_off_c, 4, 40, 127
1, 652632, Note_on_c, 12, 71, 127
1, 652632, Note_on_c, 8, 56, 127
1, 652764, Note_off_c, 8, 56, 127
1, 652764, Note_off_c, 12, 71, 127
1, 652766, Note_on_c, 4, 64, 127
1, 652766, Note_on_c, 10, 57, 127
1, 652898, Note_off_c, 10, 57, 127
1, 652898, Note_off_c, 4, 64, 127
1, 652900, Note_on_c, 3, 63, 127
1, 652900, Note_on_c, 12, 59, 127
1, 653032, Note_off_c, 12, 59, 127
1, 653032, Note_off_c, 3, 63, 127
1, 653035, Note_on_c, 4, 64, 127
1, 653035, Note_on_c, 0, 60, 127
1, 653167, Note_off_c, 0, 60, 127
1, 653167, Note_off_c, 4, 64, 127
1, 653169, Note_on_c, 0, 72, 127
1, 653169, Note_on_c, 7, 55, 127
1, 653301, Note_off_c, 0, 72, 127
1, 653304, Note_on_c, 12, 71, 127
1, 653435, Note_off_c, 7, 55, 127
1, 653436, Note_off_c, 12, 71, 127
1, 653438, Note_on_c, 10, 69, 127
1, 653438, Note_on_c, 0, 60, 127
1, 653570, Note_off_c, 0, 60, 127
1, 653570, Note_off_c, 10, 69, 127
1, 653572, Note_on_c, 2, 62, 127
1, 653572, Note_on_c, 6, 54, 127
1, 653704, Note_off_c, 2, 62, 127
1, 653707, Note_on_c, 4, 64, 127
1, 653838, Note_off_c, 6, 54, 127
1, 653839, Note_off_c, 4, 64, 127
1, 653841, Note_on_c, 2, 62, 127
1, 653841, Note_on_c, 0, 60, 127
1, 653973, Note_off_c, 0, 60, 127
1, 653973, Note_off_c, 2, 62, 127
1, 653976, Note_on_c, 0, 72, 127
1, 653976, Note_on_c, 3, 51, 127
1, 654108, Note_off_c, 0, 72, 127
1, 654110, Note_on_c, 12, 71, 127
1, 654242, Note_off_c, 12, 71, 127
1, 654242, Note_off_c, 3, 51, 127
1, 654244, Note_on_c, 10, 69, 127
1, 654244, Note_on_c, 12, 59, 127
1, 654376, Note_off_c, 12, 59, 127
1, 654376, Note_off_c, 10, 69, 127
1, 654379, Note_on_c, 7, 67, 127
1, 654379, Note_on_c, 4, 52, 127
1, 654511, Note_off_c, 7, 67, 127
1, 654513, Note_on_c, 6, 66, 127
1, 654645, Note_off_c, 6, 66, 127
1, 654645, Note_off_c, 4, 52, 127
1, 654648, Note_on_c, 7, 67, 127
1, 654648, Note_on_c, 12, 59, 127
1, 654780, Note_off_c, 12, 59, 127
1, 654780, Note_off_c, 7, 67, 127
1, 654782, Note_on_c, 12, 71, 127
1, 654782, Note_on_c, 7, 55, 127
1, 654914, Note_off_c, 12, 71, 127
1, 654916, Note_on_c, 3, 75, 127
1, 655048, Note_off_c, 3, 75, 127
1, 655048, Note_off_c, 7, 55, 127
1, 655051, Note_on_c, 4, 76, 127
1, 655051, Note_on_c, 4, 52, 127
1, 655183, Note_off_c, 4, 52, 127
1, 655183, Note_off_c, 4, 76, 127
1, 655185, Note_on_c, 10, 69, 127
1, 655185, Note_on_c, 12, 47, 127
1, 655317, Note_off_c, 10, 69, 127
1, 655320, Note_on_c, 12, 71, 127
1, 655451, Note_off_c, 12, 47, 127
1, 655452, Note_off_c, 12, 71, 127
1, 655454, Note_on_c, 10, 69, 127
1, 655454, Note_on_c, 10, 57, 127
1, 655586, Note_off_c, 10, 57, 127
1, 655586, Note_off_c, 10, 69, 127
1, 655588, Note_on_c, 7, 79, 127
1, 655588, Note_on_c, 1, 49, 127
1, 655720, Note_off_c, 7, 79, 127
1, 655723, Note_on_c, 6, 78, 127
1, 655854, Note_off_c, 1, 49, 127
1, 655855, Note_off_c, 6, 78, 127
1, 655857, Note_on_c, 4, 76, 127
1, 655857, Note_on_c, 11, 58, 127
1, 655989, Note_off_c, 11, 58, 127
1, 655989, Note_off_c, 4, 76, 127
1, 655992, Note_on_c, 3, 75, 127
1, 655992, Note_on_c, 12, 59, 127
1, 656124, Note_off_c, 3, 75, 127
1, 656126, Note_on_c, 4, 76, 127
1, 656258, Note_off_c, 4, 76, 127
1, 656260, Note_on_c, 6, 78, 127
1, 656392, Note_off_c, 6, 78, 127
1, 656395, Note_on_c, 12, 71, 127
1, 656454, Note_off_c, 12, 59, 127
1, 656529, Note_on_c, 3, 63, 127
1, 656615, Note_off_c, 3, 63, 127
1, 656617, Note_on_c, 4, 64, 127
1, 656703, Note_off_c, 4, 64, 127
1, 656706, Note_on_c, 6, 66, 127
1, 656796, Note_off_c, 6, 66, 127
1, 656796, Note_off_c, 12, 71, 127
1, 656798, Note_on_c, 4, 76, 127
1, 656798, Note_on_c, 7, 67, 127
1, 656930, Note_off_c, 7, 67, 127
1, 656930, Note_off_c, 4, 76, 127
1, 656932, Note_on_c, 6, 78, 127
1, 656932, Note_on_c, 6, 66, 127
1, 657064, Note_off_c, 6, 66, 127
1, 657064, Note_off_c, 6, 78, 127
1, 657067, Note_on_c, 7, 79, 127
1, 657067, Note_on_c, 4, 64, 127
1, 657199, Note_off_c, 4, 64, 127
1, 657199, Note_off_c, 7, 79, 127
1, 657201, Note_on_c, 12, 71, 127
1, 657201, Note_on_c, 4, 64, 127
1, 657333, Note_off_c, 4, 64, 127
1, 657336, Note_on_c, 2, 62, 127
1, 657467, Note_off_c, 12, 71, 127
1, 657468, Note_off_c, 2, 62, 127
1, 657470, Note_on_c, 7, 79, 127
1, 657470, Note_on_c, 1, 61, 127
1, 657602, Note_off_c, 1, 61, 127
1, 657602, Note_off_c, 7, 79, 127
1, 657604, Note_on_c, 10, 69, 127
1, 657604, Note_on_c, 1, 61, 127
1, 657736, Note_off_c, 1, 61, 127
1, 657739, Note_on_c, 12, 59, 127
1, 657870, Note_off_c, 10, 69, 127
1, 657871, Note_off_c, 12, 59, 127
1, 657873, Note_on_c, 7, 79, 127
1, 657873, Note_on_c, 10, 57, 127
1, 658005, Note_off_c, 10, 57, 127
1, 658005, Note_off_c, 7, 79, 127
1, 658008, Note_on_c, 6, 78, 127
1, 658008, Note_on_c, 10, 57, 127
1, 658140, Note_off_c, 10, 57, 127
1, 658142, Note_on_c, 7, 55, 127
1, 658274, Note_off_c, 7, 55, 127
1, 658276, Note_on_c, 6, 54, 127
1, 658344, Note_off_c, 6, 78, 127
1, 658408, Note_off_c, 6, 54, 127
1, 658411, Note_on_c, 2, 74, 127
1, 658411, Note_on_c, 6, 54, 127
1, 658543, Note_off_c, 6, 54, 127
1, 658543, Note_off_c, 2, 74, 127
1, 658545, Note_on_c, 0, 72, 127
1, 658545, Note_on_c, 4, 52, 127
1, 658677, Note_off_c, 4, 52, 127
1, 658677, Note_off_c, 0, 72, 127
1, 658680, Note_on_c, 12, 71, 127
1, 658680, Note_on_c, 2, 50, 127
1, 658812, Note_off_c, 2, 50, 127
1, 658812, Note_off_c, 12, 71, 127
1, 658814, Note_on_c, 5, 77, 127
1, 658814, Note_on_c, 2, 50, 127
1, 658946, Note_off_c, 2, 50, 127
1, 658948, Note_on_c, 0, 48, 127
1, 659080, Note_off_c, 0, 48, 127
1, 659080, Note_off_c, 5, 77, 127
1, 659083, Note_on_c, 7, 67, 127
1, 659083, Note_on_c, 12, 47, 127
1, 659215, Note_off_c, 12, 47, 127
1, 659215, Note_off_c, 7, 67, 127
1, 659217, Note_on_c, 2, 74, 127
1, 659217, Note_on_c, 12, 47, 127
1, 659349, Note_off_c, 12, 47, 127
1, 659352, Note_on_c, 10, 45, 127
1, 659483, Note_off_c, 2, 74, 127
1, 659484, Note_off_c, 10, 45, 127
1, 659486, Note_on_c, 5, 77, 127
1, 659486, Note_on_c, 7, 43, 127
1, 659618, Note_off_c, 7, 43, 127
1, 659618, Note_off_c, 5, 77, 127
1, 659620, Note_on_c, 4, 76, 127
1, 659620, Note_on_c, 0, 48, 127
1, 659752, Note_off_c, 0, 48, 127
1, 659755, Note_on_c, 7, 43, 127
1, 659887, Note_off_c, 7, 43, 127
1, 659889, Note_on_c, 4, 40, 127
1, 660021, Note_off_c, 4, 40, 127
1, 660024, Note_on_c, 1, 37, 127
1, 660156, Note_off_c, 1, 37, 127
1, 660158, Note_on_c, 4, 40, 127
1, 660289, Note_off_c, 4, 76, 127
1, 660290, Note_off_c, 4, 40, 127
1, 660292, Note_on_c, 4, 76, 127
1, 660292, Note_on_c, 7, 43, 127
1, 660424, Note_off_c, 7, 43, 127
1, 660424, Note_off_c, 4, 76, 127
1, 660427, Note_on_c, 3, 75, 127
1, 660427, Note_on_c, 11, 46, 127
1, 660559, Note_off_c, 11, 46, 127
1, 660561, Note_on_c, 12, 47, 127
1, 660693, Note_off_c, 12, 47, 127
1, 660693, Note_off_c, 3, 75, 127
1, 660696, Note_on_c, 4, 76, 127
1, 660696, Note_on_c, 1, 49, 127
1, 660828, Note_off_c, 1, 49, 127
1, 660828, Note_off_c, 4, 76, 127
1, 660830, Note_on_c, 6, 66, 127
1, 660830, Note_on_c, 0, 48, 127
1, 660962, Note_off_c, 0, 48, 127
1, 660964, Note_on_c, 3, 51, 127
1, 661096, Note_off_c, 3, 51, 127
1, 661096, Note_off_c, 6, 66, 127
1, 661099, Note_on_c, 4, 76, 127
1, 661099, Note_on_c, 6, 54, 127
1, 661231, Note_off_c, 6, 54, 127
1, 661231, Note_off_c, 4, 76, 127
1, 661233, Note_on_c, 3, 75, 127
1, 661233, Note_on_c, 10, 57, 127
1, 661365, Note_off_c, 10, 57, 127
1, 661368, Note_on_c, 12, 59, 127
1, 661499, Note_off_c, 3, 75, 127
1, 661500, Note_off_c, 12, 59, 127
1, 661502, Note_on_c, 4, 76, 127
1, 661502, Note_on_c, 0, 60, 127
1, 661634, Note_off_c, 0, 60, 127
1, 661634, Note_off_c, 4, 76, 127
1, 661636, Note_on_c, 7, 67, 127
1, 661636, Note_on_c, 12, 59, 127
1, 661768, Note_off_c, 12, 59, 127
1, 661771, Note_on_c, 10, 57, 127
1, 661902, Note_off_c, 7, 67, 127
1, 661903, Note_off_c, 10, 57, 127
1, 661905, Note_on_c, 4, 76, 127
1, 661905, Note_on_c, 7, 55, 127
1, 662037, Note_off_c, 7, 55, 127
1, 662037, Note_off_c, 4, 76, 127
1, 662040, Note_on_c, 3, 75, 127
1, 662040, Note_on_c, 6, 54, 127
1, 662172, Note_off_c, 6, 54, 127
1, 662174, Note_on_c, 7, 55, 127
1, 662306, Note_off_c, 7, 55, 127
1, 662306, Note_off_c, 3, 75, 127
1, 662308, Note_on_c, 4, 76, 127
1, 662308, Note_on_c, 4, 52, 127
1, 662440, Note_off_c, 4, 52, 127
1, 662440, Note_off_c, 4, 76, 127
1, 662443, Note_on_c, 10, 69, 127
1, 662443, Note_on_c, 0, 60, 127
1, 662575, Note_off_c, 0, 60, 127
1, 662577, Note_on_c, 12, 59, 127
1, 662709, Note_off_c, 12, 59, 127
1, 662709, Note_off_c, 10, 69, 127
1, 662712, Note_on_c, 4, 76, 127
1, 662712, Note_on_c, 10, 57, 127
1, 662844, Note_off_c, 10, 57, 127
1, 662844, Note_off_c, 4, 76, 127
1, 662846, Note_on_c, 3, 75, 127
1, 662846, Note_on_c, 7, 55, 127
1, 662978, Note_off_c, 7, 55, 127
1, 662980, Note_on_c, 6, 54, 127
1, 663112, Note_off_c, 6, 54, 127
1, 663112, Note_off_c, 3, 75, 127
1, 663115, Note_on_c, 4, 76, 127
1, 663115, Note_on_c, 4, 52, 127
1, 663247, Note_off_c, 4, 52, 127
1, 663247, Note_off_c, 4, 76, 127
1, 663249, Note_on_c, 12, 71, 127
1, 663249, Note_on_c, 3, 51, 127
1, 663381, Note_off_c, 12, 71, 127
1, 663384, Note_on_c, 1, 73, 127
1, 663515, Note_off_c, 3, 51, 127
1, 663516, Note_off_c, 1, 73, 127
1, 663518, Note_on_c, 3, 75, 127
1, 663518, Note_on_c, 12, 47, 127
1, 663650, Note_off_c, 12, 47, 127
1, 663650, Note_off_c, 3, 75, 127
1, 663652, Note_on_c, 3, 75, 127
1, 663652, Note_on_c, 6, 54, 127
1, 663784, Note_off_c, 3, 75, 127
1, 663787, Note_on_c, 4, 76, 127
1, 663918, Note_off_c, 6, 54, 127
1, 663919, Note_off_c, 4, 76, 127
1, 663921, Note_on_c, 6, 78, 127
1, 663921, Note_on_c, 12, 47, 127
1, 664053, Note_off_c, 12, 47, 127
1, 664053, Note_off_c, 6, 78, 127
1, 664056, Note_on_c, 6, 78, 127
1, 664056, Note_on_c, 10, 57, 127
1, 664188, Note_off_c, 6, 78, 127
1, 664190, Note_on_c, 7, 79, 127
1, 664322, Note_off_c, 7, 79, 127
1, 664322, Note_off_c, 10, 57, 127
1, 664324, Note_on_c, 10, 81, 127
1, 664324, Note_on_c, 3, 51, 127
1, 664456, Note_off_c, 3, 51, 127
1, 664456, Note_off_c, 10, 81, 127
1, 664459, Note_on_c, 12, 83, 127
1, 664459, Note_on_c, 7, 55, 127
1, 664591, Note_off_c, 12, 83, 127
1, 664593, Note_on_c, 10, 81, 127
1, 664725, Note_off_c, 10, 81, 127
1, 664725, Note_off_c, 7, 55, 127
1, 664728, Note_on_c, 7, 79, 127
1, 664728, Note_on_c, 4, 52, 127
1, 664860, Note_off_c, 4, 52, 127
1, 664860, Note_off_c, 7, 79, 127
1, 664862, Note_on_c, 6, 78, 127
1, 664862, Note_on_c, 10, 57, 127
1, 664994, Note_off_c, 10, 57, 127
1, 664994, Note_off_c, 6, 78, 127
1, 664996, Note_on_c, 7, 79, 127
1, 664996, Note_on_c, 12, 59, 127
1, 665128, Note_off_c, 12, 59, 127
1, 665128, Note_off_c, 7, 79, 127
1, 665131, Note_on_c, 4, 76, 127
1, 665131, Note_on_c, 0, 60, 127
1, 665263, Note_off_c, 0, 60, 127
1, 665263, Note_off_c, 4, 76, 127
1, 665265, Note_on_c, 12, 71, 127
1, 665265, Note_on_c, 12, 59, 127
1, 665397, Note_off_c, 12, 59, 127
1, 665397, Note_off_c, 12, 71, 127
1, 665400, Note_on_c, 4, 76, 127
1, 665400, Note_on_c, 0, 60, 127
1, 665532, Note_off_c, 0, 60, 127
1, 665532, Note_off_c, 4, 76, 127
1, 665534, Note_on_c, 3, 75, 127
1, 665534, Note_on_c, 12, 59, 127
1, 665666, Note_off_c, 12, 59, 127
1, 665666, Note_off_c, 3, 75, 127
1, 665668, Note_on_c, 3, 75, 127
1, 665668, Note_on_c, 4, 52, 127
1, 665800, Note_off_c, 4, 52, 127
1, 665803, Note_on_c, 7, 55, 127
1, 665934, Note_off_c, 3, 75, 127
1, 665935, Note_off_c, 7, 55, 127
1, 665966, Note_on_c, 4, 76, 127
1, 665967, Note_on_c, 12, 59, 127
1, 666099, Note_off_c, 12, 59, 127
1, 666198, Note_on_c, 4, 64, 127
1, 667598, Note_off_c, 4, 64, 127
1, 668366, Note_off_c, 4, 76, 127
1, 669035, Note_on_c, 4, 64, 127
1, 669188, Note_off_c, 4, 64, 127
1, 669208, Note_on_c, 6, 66, 127
1, 669676, Note_off_c, 6, 66, 127
1, 669727, Note_on_c, 3, 63, 127
1, 669880, Note_off_c, 3, 63, 127
1, 669900, Note_on_c, 0, 72, 127
1, 670368, Note_off_c, 0, 72, 127
1, 670419, Note_on_c, 10, 69, 127
1, 670577, Note_off_c, 10, 69, 127
1, 670592, Note_on_c, 12, 71, 127
1, 671060, Note_off_c, 12, 71, 127
1, 671111, Note_on_c, 8, 68, 127
1, 671269, Note_off_c, 8, 68, 127
1, 671284, Note_on_c, 5, 77, 127
1, 671752, Note_off_c, 5, 77, 127
1, 671803, Note_on_c, 3, 75, 127
1, 671964, Note_off_c, 3, 75, 127
1, 671975, Note_on_c, 4, 76, 127
1, 672443, Note_off_c, 4, 76, 127
1, 672494, Note_on_c, 10, 69, 127
1, 672660, Note_off_c, 10, 69, 127
1, 672666, Note_on_c, 7, 67, 127
1, 673353, Note_off_c, 7, 67, 127
1, 673357, Note_on_c, 7, 67, 127
1, 673439, Note_off_c, 7, 67, 127
1, 673443, Note_on_c, 6, 66, 127
1, 673525, Note_off_c, 6, 66, 127
1, 673529, Note_on_c, 7, 67, 127
1, 673611, Note_off_c, 7, 67, 127
1, 673615, Note_on_c, 6, 66, 127
1, 673697, Note_off_c, 6, 66, 127
1, 673701, Note_on_c, 7, 67, 127
1, 673783, Note_off_c, 7, 67, 127
1, 673787, Note_on_c, 6, 66, 127
1, 673869, Note_off_c, 6, 66, 127
1, 673873, Note_on_c, 7, 67, 127
1, 673955, Note_off_c, 7, 67, 127
1, 673959, Note_on_c, 6, 66, 127
1, 674041, Note_off_c, 6, 66, 127
1, 674045, Note_on_c, 4, 64, 127
1, 674214, Note_off_c, 4, 64, 127
1, 674218, Note_on_c, 6, 66, 127
1, 674387, Note_off_c, 6, 66, 127
1, 674390, Note_on_c, 7, 67, 127
1, 674563, Note_on_c, 12, 71, 127
1, 674721, Note_off_c, 12, 71, 127
1, 674736, Note_on_c, 1, 73, 127
1, 674905, Note_off_c, 7, 67, 127
1, 674909, Note_on_c, 4, 64, 127
1, 675078, Note_off_c, 4, 64, 127
1, 675081, Note_on_c, 6, 66, 127
1, 675221, Note_off_c, 1, 73, 127
1, 675254, Note_on_c, 11, 70, 127
1, 675412, Note_off_c, 11, 70, 127
1, 675427, Note_on_c, 7, 79, 127
1, 675596, Note_off_c, 6, 66, 127
1, 675599, Note_on_c, 3, 63, 127
1, 675768, Note_off_c, 3, 63, 127
1, 675772, Note_on_c, 4, 64, 127
1, 675912, Note_off_c, 7, 79, 127
1, 675945, Note_on_c, 4, 76, 127
1, 676103, Note_off_c, 4, 76, 127
1, 676118, Note_on_c, 6, 78, 127
1, 676287, Note_off_c, 4, 64, 127
1, 676290, Note_on_c, 10, 57, 127
1, 676459, Note_off_c, 10, 57, 127
1, 676463, Note_on_c, 10, 69, 127
1, 676603, Note_off_c, 6, 78, 127
1, 676636, Note_on_c, 3, 75, 127
1, 676794, Note_off_c, 3, 75, 127
1, 676809, Note_on_c, 0, 84, 127
1, 676978, Note_off_c, 10, 69, 127
1, 676981, Note_on_c, 6, 66, 127
1, 677150, Note_off_c, 6, 66, 127
1, 677153, Note_on_c, 7, 67, 127
1, 677294, Note_off_c, 0, 84, 127
1, 677327, Note_on_c, 11, 82, 127
1, 677485, Note_off_c, 11, 82, 127
1, 677500, Note_on_c, 12, 83, 127
1, 677668, Note_off_c, 7, 67, 127
1, 677672, Note_on_c, 4, 64, 127
1, 677841, Note_off_c, 4, 64, 127
1, 677844, Note_on_c, 6, 66, 127
1, 677985, Note_off_c, 12, 83, 127
1, 678018, Note_on_c, 4, 76, 127
1, 678176, Note_off_c, 4, 76, 127
1, 678191, Note_on_c, 2, 74, 127
1, 678359, Note_off_c, 6, 66, 127
1, 678363, Note_on_c, 12, 59, 127
1, 678532, Note_off_c, 12, 59, 127
1, 678535, Note_on_c, 12, 71, 127
1, 678877, Note_off_c, 2, 74, 127
1, 678881, Note_on_c, 2, 74, 127
1, 678963, Note_off_c, 2, 74, 127
1, 678967, Note_on_c, 1, 73, 127
1, 679049, Note_off_c, 1, 73, 127
1, 679049, Note_off_c, 12, 71, 127
1, 679053, Note_on_c, 2, 74, 127
1, 679053, Note_on_c, 8, 68, 127
1, 679135, Note_off_c, 2, 74, 127
1, 679139, Note_on_c, 1, 73, 127
1, 679221, Note_off_c, 1, 73, 127
1, 679222, Note_off_c, 8, 68, 127
1, 679225, Note_on_c, 2, 74, 127
1, 679225, Note_on_c, 11, 70, 127
1, 679307, Note_off_c, 2, 74, 127
1, 679311, Note_on_c, 1, 73, 127
1, 679393, Note_off_c, 1, 73, 127
1, 679397, Note_on_c, 12, 71, 127
1, 679479, Note_off_c, 12, 71, 127
1, 679483, Note_on_c, 1, 73, 127
1, 679565, Note_off_c, 1, 73, 127
1, 679566, Note_off_c, 11, 70, 127
1, 679569, Note_on_c, 12, 71, 127
1, 679743, Note_on_c, 1, 73, 127
1, 679912, Note_off_c, 1, 73, 127
1, 679915, Note_on_c, 2, 74, 127
1, 680083, Note_off_c, 12, 71, 127
1, 680087, Note_on_c, 10, 69, 127
1, 680256, Note_off_c, 10, 69, 127
1, 680259, Note_on_c, 8, 68, 127
1, 680428, Note_off_c, 2, 74, 127
1, 680432, Note_on_c, 5, 65, 127
1, 680601, Note_off_c, 5, 65, 127
1, 680604, Note_on_c, 2, 74, 127
1, 680772, Note_off_c, 8, 68, 127
1, 680776, Note_on_c, 4, 64, 127
1, 680945, Note_off_c, 4, 64, 127
1, 680948, Note_on_c, 10, 69, 127
1, 681117, Note_off_c, 2, 74, 127
1, 681120, Note_on_c, 12, 71, 127
1, 681289, Note_off_c, 12, 71, 127
1, 681293, Note_on_c, 0, 72, 127
1, 681461, Note_off_c, 10, 69, 127
1, 681465, Note_on_c, 7, 67, 127
1, 681634, Note_off_c, 7, 67, 127
1, 681637, Note_on_c, 6, 66, 127
1, 681806, Note_off_c, 0, 72, 127
1, 681809, Note_on_c, 3, 63, 127
1, 681978, Note_off_c, 3, 63, 127
1, 681981, Note_on_c, 0, 72, 127
1, 682150, Note_off_c, 6, 66, 127
1, 682154, Note_on_c, 2, 62, 127
1, 682323, Note_off_c, 2, 62, 127
1, 682326, Note_on_c, 7, 67, 127
1, 682494, Note_off_c, 0, 72, 127
1, 682498, Note_on_c, 10, 69, 127
1, 682667, Note_off_c, 10, 69, 127
1, 682670, Note_on_c, 12, 71, 127
1, 682839, Note_off_c, 7, 67, 127
1, 682842, Note_on_c, 6, 66, 127
1, 683011, Note_off_c, 6, 66, 127
1, 683015, Note_on_c, 4, 64, 127
1, 683183, Note_off_c, 12, 71, 127
1, 683187, Note_on_c, 6, 78, 127
1, 683356, Note_off_c, 6, 78, 127
1, 683359, Note_on_c, 7, 79, 127
1, 683528, Note_off_c, 4, 64, 127
1, 683531, Note_on_c, 1, 61, 127
1, 683700, Note_off_c, 1, 61, 127
1, 683703, Note_on_c, 6, 66, 127
1, 683872, Note_off_c, 7, 79, 127
1, 683876, Note_on_c, 7, 67, 127
1, 684045, Note_off_c, 7, 67, 127
1, 684048, Note_on_c, 10, 69, 127
1, 684216, Note_off_c, 6, 66, 127
1, 684220, Note_on_c, 4, 64, 127
1, 684389, Note_off_c, 4, 64, 127
1, 684392, Note_on_c, 3, 63, 127
1, 684561, Note_off_c, 10, 69, 127
1, 684564, Note_on_c, 4, 76, 127
1, 684733, Note_off_c, 4, 76, 127
1, 684737, Note_on_c, 6, 78, 127
1, 684905, Note_off_c, 3, 63, 127
1, 684909, Note_on_c, 12, 59, 127
1, 685078, Note_off_c, 12, 59, 127
1, 685081, Note_on_c, 4, 64, 127
1, 685250, Note_off_c, 6, 78, 127
1, 685253, Note_on_c, 6, 66, 127
1, 685422, Note_off_c, 6, 66, 127
1, 685425, Note_on_c, 7, 67, 127
1, 685594, Note_off_c, 7, 67, 127
1, 685598, Note_on_c, 0, 72, 127
1, 685598, Note_on_c, 4, 52, 127
1, 685766, Note_off_c, 4, 64, 127
1, 685767, Note_off_c, 4, 52, 127
1, 685770, Note_on_c, 3, 63, 127
1, 685770, Note_on_c, 6, 54, 127
1, 685939, Note_off_c, 0, 72, 127
1, 685942, Note_on_c, 10, 69, 127
1, 686111, Note_off_c, 10, 69, 127
1, 686114, Note_on_c, 12, 71, 127
1, 686283, Note_off_c, 6, 54, 127
1, 686283, Note_off_c, 3, 63, 127
1, 686286, Note_on_c, 6, 66, 127
1, 686286, Note_on_c, 3, 51, 127
1, 686455, Note_off_c, 3, 51, 127
1, 686455, Note_off_c, 6, 66, 127
1, 686459, Note_on_c, 4, 64, 127
1, 686459, Note_on_c, 0, 60, 127
1, 686627, Note_off_c, 12, 71, 127
1, 686631, Note_on_c, 8, 68, 127
1, 686800, Note_off_c, 8, 68, 127
1, 686803, Note_on_c, 10, 69, 127
1, 686972, Note_off_c, 0, 60, 127
1, 686972, Note_off_c, 4, 64, 127
1, 686975, Note_on_c, 0, 72, 127
1, 686975, Note_on_c, 10, 57, 127
1, 687144, Note_off_c, 10, 57, 127
1, 687144, Note_off_c, 0, 72, 127
1, 687147, Note_on_c, 5, 65, 127
1, 687147, Note_on_c, 12, 59, 127
1, 687316, Note_off_c, 5, 65, 127
1, 687320, Note_on_c, 2, 62, 127
1, 687488, Note_off_c, 10, 69, 127
1, 687492, Note_on_c, 2, 74, 127
1, 687660, Note_off_c, 12, 59, 127
1, 687661, Note_off_c, 2, 62, 127
1, 687664, Note_on_c, 12, 71, 127
1, 687664, Note_on_c, 8, 56, 127
1, 687833, Note_off_c, 8, 56, 127
1, 687833, Note_off_c, 12, 71, 127
1, 687836, Note_on_c, 8, 68, 127
1, 687836, Note_on_c, 5, 65, 127
1, 688005, Note_off_c, 2, 74, 127
1, 688008, Note_on_c, 12, 71, 127
1, 688177, Note_off_c, 12, 71, 127
1, 688181, Note_on_c, 0, 72, 127
1, 688349, Note_off_c, 5, 65, 127
1, 688349, Note_off_c, 8, 68, 127
1, 688353, Note_on_c, 10, 69, 127
1, 688353, Note_on_c, 3, 63, 127
1, 688435, Note_off_c, 10, 69, 127
1, 688439, Note_on_c, 6, 66, 127
1, 688521, Note_off_c, 6, 66, 127
1, 688522, Note_off_c, 3, 63, 127
1, 688525, Note_on_c, 7, 67, 127
1, 688525, Note_on_c, 4, 64, 127
1, 688694, Note_off_c, 0, 72, 127
1, 688697, Note_on_c, 10, 69, 127
1, 688866, Note_off_c, 10, 69, 127
1, 688869, Note_on_c, 12, 71, 127
1, 689038, Note_off_c, 4, 64, 127
1, 689038, Note_off_c, 7, 67, 127
1, 689042, Note_on_c, 3, 75, 127
1, 689042, Note_on_c, 10, 57, 127
1, 689211, Note_off_c, 10, 57, 127
1, 689211, Note_off_c, 3, 75, 127
1, 689214, Note_on_c, 4, 76, 127
1, 689214, Note_on_c, 7, 55, 127
1, 689382, Note_off_c, 12, 71, 127
1, 689386, Note_on_c, 4, 64, 127
1, 689555, Note_off_c, 4, 64, 127
1, 689555, Note_off_c, 4, 76, 127
1, 689558, Note_on_c, 4, 76, 127
1, 689731, Note_on_c, 0, 72, 127
1, 689900, Note_off_c, 0, 72, 127
1, 689900, Note_off_c, 7, 55, 127
1, 689904, Note_on_c, 10, 69, 127
1, 689904, Note_on_c, 7, 55, 127
1, 690015, Note_off_c, 7, 55, 127
1, 690018, Note_on_c, 6, 54, 127
1, 690071, Note_off_c, 4, 76, 127
1, 690075, Note_on_c, 1, 73, 127
1, 690128, Note_off_c, 6, 54, 127
1, 690131, Note_on_c, 7, 55, 127
1, 690242, Note_off_c, 7, 55, 127
1, 690243, Note_off_c, 1, 73, 127
1, 690246, Note_on_c, 3, 75, 127
1, 690246, Note_on_c, 6, 54, 127
1, 690357, Note_off_c, 6, 54, 127
1, 690360, Note_on_c, 4, 52, 127
1, 690414, Note_off_c, 10, 69, 127
1, 690417, Note_on_c, 12, 71, 127
1, 690470, Note_off_c, 4, 52, 127
1, 690474, Note_on_c, 6, 54, 127
1, 690585, Note_off_c, 6, 54, 127
1, 690585, Note_off_c, 12, 71, 127
1, 690585, Note_off_c, 3, 75, 127
1, 690588, Note_on_c, 4, 76, 127
1, 690588, Note_on_c, 7, 67, 127
1, 690588, Note_on_c, 4, 52, 127
1, 690761, Note_on_c, 4, 40, 127
1, 690930, Note_off_c, 4, 40, 127
1, 690930, Note_off_c, 4, 52, 127
1, 690930, Note_off_c, 7, 67, 127
1, 690934, Note_on_c, 12, 71, 127
1, 690934, Note_on_c, 4, 52, 127
1, 691102, Note_off_c, 4, 76, 127
1, 691106, Note_on_c, 7, 79, 127
1, 691275, Note_off_c, 7, 79, 127
1, 691275, Note_off_c, 12, 71, 127
1, 691278, Note_on_c, 6, 78, 127
1, 691278, Note_on_c, 10, 69, 127
1, 691447, Note_off_c, 4, 52, 127
1, 691450, Note_on_c, 1, 49, 127
1, 691619, Note_off_c, 1, 49, 127
1, 691619, Note_off_c, 10, 69, 127
1, 691622, Note_on_c, 12, 71, 127
1, 691622, Note_on_c, 2, 50, 127
1, 691791, Note_off_c, 6, 78, 127
1, 691795, Note_on_c, 12, 83, 127
1, 691963, Note_off_c, 12, 71, 127
1, 691964, Note_off_c, 12, 83, 127
1, 691967, Note_on_c, 4, 76, 127
1, 691967, Note_on_c, 8, 68, 127
1, 692049, Note_off_c, 2, 50, 127
1, 692053, Note_on_c, 1, 49, 127
1, 692135, Note_off_c, 1, 49, 127
1, 692139, Note_on_c, 12, 47, 127
1, 692308, Note_off_c, 12, 47, 127
1, 692308, Note_off_c, 8, 68, 127
1, 692311, Note_on_c, 10, 69, 127
1, 692311, Note_on_c, 1, 49, 127
1, 692393, Note_off_c, 1, 49, 127
1, 692397, Note_on_c, 12, 47, 127
1, 692479, Note_off_c, 12, 47, 127
1, 692480, Note_off_c, 4, 76, 127
1, 692483, Note_on_c, 10, 81, 127
1, 692483, Note_on_c, 10, 45, 127
1, 692652, Note_off_c, 10, 45, 127
1, 692652, Note_off_c, 10, 81, 127
1, 692656, Note_on_c, 1, 73, 127
1, 692656, Note_on_c, 10, 57, 127
1, 692738, Note_off_c, 10, 57, 127
1, 692742, Note_on_c, 7, 55, 127
1, 692824, Note_off_c, 7, 55, 127
1, 692824, Note_off_c, 10, 69, 127
1, 692828, Note_on_c, 4, 76, 127
1, 692828, Note_on_c, 6, 54, 127
1, 692997, Note_off_c, 6, 54, 127
1, 692997, Note_off_c, 4, 76, 127
1, 693000, Note_on_c, 10, 69, 127
1, 693000, Note_on_c, 7, 55, 127
1, 693082, Note_off_c, 7, 55, 127
1, 693086, Note_on_c, 6, 54, 127
1, 693168, Note_off_c, 6, 54, 127
1, 693169, Note_off_c, 1, 73, 127
1, 693172, Note_on_c, 7, 79, 127
1, 693172, Note_on_c, 4, 52, 127
1, 693341, Note_off_c, 4, 52, 127
1, 693341, Note_off_c, 7, 79, 127
1, 693344, Note_on_c, 6, 78, 127
1, 693344, Note_on_c, 2, 50, 127
1, 693518, Note_on_c, 2, 38, 127
1, 693686, Note_off_c, 2, 50, 127
1, 693686, Note_off_c, 10, 69, 127
1, 693687, Note_off_c, 2, 38, 127
1, 693690, Note_on_c, 12, 71, 127
1, 693690, Note_on_c, 2, 50, 127
1, 693858, Note_off_c, 6, 78, 127
1, 693862, Note_on_c, 6, 78, 127
1, 694031, Note_off_c, 6, 78, 127
1, 694031, Note_off_c, 12, 71, 127
1, 694034, Note_on_c, 4, 76, 127
1, 694034, Note_on_c, 7, 67, 127
1, 694203, Note_off_c, 2, 50, 127
1, 694206, Note_on_c, 12, 47, 127
1, 694375, Note_off_c, 12, 47, 127
1, 694375, Note_off_c, 7, 67, 127
1, 694379, Note_on_c, 10, 69, 127
1, 694379, Note_on_c, 0, 48, 127
1, 694547, Note_off_c, 4, 76, 127
1, 694551, Note_on_c, 10, 81, 127
1, 694720, Note_off_c, 10, 81, 127
1, 694720, Note_off_c, 10, 69, 127
1, 694723, Note_on_c, 2, 74, 127
1, 694723, Note_on_c, 6, 66, 127
1, 694806, Note_off_c, 0, 48, 127
1, 694809, Note_on_c, 12, 47, 127
1, 694891, Note_off_c, 12, 47, 127
1, 694895, Note_on_c, 10, 45, 127
1, 695064, Note_off_c, 10, 45, 127
1, 695064, Note_off_c, 6, 66, 127
1, 695067, Note_on_c, 7, 67, 127
1, 695067, Note_on_c, 12, 47, 127
1, 695149, Note_off_c, 12, 47, 127
1, 695154, Note_on_c, 10, 45, 127
1, 695236, Note_off_c, 10, 45, 127
1, 695236, Note_off_c, 2, 74, 127
1, 695240, Note_on_c, 7, 79, 127
1, 695240, Note_on_c, 7, 43, 127
1, 695409, Note_off_c, 7, 43, 127
1, 695409, Note_off_c, 7, 79, 127
1, 695412, Note_on_c, 12, 71, 127
1, 695412, Note_on_c, 7, 55, 127
1, 695494, Note_off_c, 7, 55, 127
1, 695498, Note_on_c, 5, 53, 127
1, 695580, Note_off_c, 5, 53, 127
1, 695580, Note_off_c, 7, 67, 127
1, 695584, Note_on_c, 2, 74, 127
1, 695584, Note_on_c, 4, 52, 127
1, 695753, Note_off_c, 4, 52, 127
1, 695753, Note_off_c, 2, 74, 127
1, 695756, Note_on_c, 7, 67, 127
1, 695756, Note_on_c, 5, 53, 127
1, 695838, Note_off_c, 5, 53, 127
1, 695842, Note_on_c, 4, 52, 127
1, 695924, Note_off_c, 4, 52, 127
1, 695925, Note_off_c, 12, 71, 127
1, 695928, Note_on_c, 5, 77, 127
1, 695928, Note_on_c, 2, 50, 127
1, 696097, Note_off_c, 2, 50, 127
1, 696097, Note_off_c, 5, 77, 127
1, 696101, Note_on_c, 4, 76, 127
1, 696101, Note_on_c, 0, 48, 127
1, 696183, Note_off_c, 4, 76, 127
1, 696187, Note_on_c, 2, 74, 127
1, 696269, Note_off_c, 2, 74, 127
1, 696270, Note_off_c, 0, 48, 127
1, 696273, Note_on_c, 0, 72, 127
1, 696273, Note_on_c, 7, 55, 127
1, 696355, Note_off_c, 0, 72, 127
1, 696359, Note_on_c, 2, 74, 127
1, 696441, Note_off_c, 2, 74, 127
1, 696442, Note_off_c, 7, 55, 127
1, 696445, Note_on_c, 4, 76, 127
1, 696445, Note_on_c, 0, 60, 127
1, 696613, Note_off_c, 7, 67, 127
1, 696617, Note_on_c, 4, 64, 127
1, 696786, Note_off_c, 4, 64, 127
1, 696786, Note_off_c, 4, 76, 127
1, 696789, Note_on_c, 10, 69, 127
1, 696789, Note_on_c, 6, 66, 127
1, 696958, Note_off_c, 0, 60, 127
1, 696962, Note_on_c, 10, 57, 127
1, 697130, Note_off_c, 10, 69, 127
1, 697131, Note_off_c, 10, 57, 127
1, 697134, Note_on_c, 2, 74, 127
1, 697134, Note_on_c, 12, 59, 127
1, 697302, Note_off_c, 6, 66, 127
1, 697306, Note_on_c, 2, 62, 127
1, 697475, Note_off_c, 2, 62, 127
1, 697475, Note_off_c, 2, 74, 127
1, 697478, Note_on_c, 7, 67, 127
1, 697478, Note_on_c, 4, 64, 127
1, 697647, Note_off_c, 12, 59, 127
1, 697650, Note_on_c, 7, 55, 127
1, 697819, Note_off_c, 7, 55, 127
1, 697819, Note_off_c, 7, 67, 127
1, 697823, Note_on_c, 0, 72, 127
1, 697823, Note_on_c, 10, 57, 127
1, 697991, Note_off_c, 4, 64, 127
1, 697995, Note_on_c, 0, 60, 127
1, 698164, Note_off_c, 0, 60, 127
1, 698164, Note_off_c, 0, 72, 127
1, 698167, Note_on_c, 6, 66, 127
1, 698167, Note_on_c, 2, 62, 127
1, 698336, Note_off_c, 10, 57, 127
1, 698339, Note_on_c, 6, 54, 127
1, 698508, Note_off_c, 6, 54, 127
1, 698508, Note_off_c, 6, 66, 127
1, 698511, Note_on_c, 12, 71, 127
1, 698511, Note_on_c, 7, 55, 127
1, 698680, Note_off_c, 2, 62, 127
1, 698684, Note_on_c, 12, 59, 127
1, 698852, Note_off_c, 12, 71, 127
1, 698853, Note_off_c, 12, 59, 127
1, 698856, Note_on_c, 4, 64, 127
1, 698856, Note_on_c, 0, 60, 127
1, 699024, Note_off_c, 7, 55, 127
1, 699028, Note_on_c, 4, 52, 127
1, 699197, Note_off_c, 4, 52, 127
1, 699197, Note_off_c, 4, 64, 127
1, 699200, Note_on_c, 10, 69, 127
1, 699200, Note_on_c, 6, 54, 127
1, 699369, Note_off_c, 0, 60, 127
1, 699372, Note_on_c, 10, 57, 127
1, 699541, Note_off_c, 10, 57, 127
1, 699541, Note_off_c, 6, 54, 127
1, 699545, Note_on_c, 12, 59, 127
1, 699545, Note_on_c, 7, 55, 127
1, 699713, Note_off_c, 10, 69, 127
1, 699717, Note_on_c, 2, 62, 127
1, 699886, Note_off_c, 2, 62, 127
1, 699886, Note_off_c, 7, 55, 127
1, 699889, Note_on_c, 7, 67, 127
1, 699889, Note_on_c, 4, 52, 127
1, 700058, Note_off_c, 12, 59, 127
1, 700061, Note_on_c, 7, 55, 127
1, 700230, Note_off_c, 7, 55, 127
1, 700230, Note_off_c, 4, 52, 127
1, 700233, Note_on_c, 10, 57, 127
1, 700233, Note_on_c, 1, 49, 127
1, 700402, Note_off_c, 7, 67, 127
1, 700406, Note_on_c, 6, 66, 127
1, 700488, Note_off_c, 6, 66, 127
1, 700492, Note_on_c, 4, 64, 127
1, 700574, Note_off_c, 4, 64, 127
1, 700574, Note_off_c, 1, 49, 127
1, 700578, Note_on_c, 0, 72, 127
1, 700578, Note_on_c, 3, 51, 127
1, 700746, Note_off_c, 10, 57, 127
1, 700750, Note_on_c, 6, 54, 127
1, 700919, Note_off_c, 6, 54, 127
1, 700919, Note_off_c, 3, 51, 127
1, 700922, Note_on_c, 7, 55, 127
1, 700922, Note_on_c, 4, 52, 127
1, 701091, Note_off_c, 0, 72, 127
1, 701094, Note_on_c, 12, 71, 127
1, 701176, Note_off_c, 12, 71, 127
1, 701181, Note_on_c, 11, 70, 127
1, 701263, Note_off_c, 11, 70, 127
1, 701263, Note_off_c, 4, 52, 127
1, 701267, Note_on_c, 4, 76, 127
1, 701267, Note_on_c, 1, 49, 127
1, 701435, Note_off_c, 7, 55, 127
1, 701439, Note_on_c, 4, 52, 127
1, 701608, Note_off_c, 4, 52, 127
1, 701608, Note_off_c, 1, 49, 127
1, 701611, Note_on_c, 6, 54, 127
1, 701611, Note_on_c, 11, 46, 127
1, 701780, Note_off_c, 4, 76, 127
1, 701783, Note_on_c, 2, 74, 127
1, 701865, Note_off_c, 2, 74, 127
1, 701869, Note_on_c, 1, 73, 127
1, 701951, Note_off_c, 1, 73, 127
1, 701952, Note_off_c, 11, 46, 127
1, 701955, Note_on_c, 2, 74, 127
1, 701955, Note_on_c, 12, 47, 127
1, 702124, Note_off_c, 2, 74, 127
1, 702128, Note_on_c, 1, 73, 127
1, 702210, Note_off_c, 1, 73, 127
1, 702214, Note_on_c, 12, 71, 127
1, 702296, Note_off_c, 12, 71, 127
1, 702296, Note_off_c, 12, 47, 127
1, 702296, Note_off_c, 6, 54, 127
1, 702300, Note_on_c, 1, 73, 127
1, 702300, Note_on_c, 7, 55, 127
1, 702300, Note_on_c, 4, 52, 127
1, 702469, Note_off_c, 1, 73, 127
1, 702472, Note_on_c, 2, 74, 127
1, 702554, Note_off_c, 2, 74, 127
1, 702558, Note_on_c, 4, 76, 127
1, 702640, Note_off_c, 4, 76, 127
1, 702641, Note_off_c, 4, 52, 127
1, 702641, Note_off_c, 7, 55, 127
1, 702644, Note_on_c, 2, 74, 127
1, 702644, Note_on_c, 8, 56, 127
1, 702644, Note_on_c, 5, 53, 127
1, 702813, Note_off_c, 2, 74, 127
1, 702816, Note_on_c, 1, 73, 127
1, 702898, Note_off_c, 1, 73, 127
1, 702903, Note_on_c, 12, 71, 127
1, 702985, Note_off_c, 12, 71, 127
1, 702985, Note_off_c, 5, 53, 127
1, 702985, Note_off_c, 8, 56, 127
1, 702989, Note_on_c, 11, 70, 127
1, 702989, Note_on_c, 6, 54, 127
1, 703158, Note_off_c, 11, 70, 127
1, 703161, Note_on_c, 8, 68, 127
1, 703243, Note_off_c, 8, 68, 127
1, 703247, Note_on_c, 6, 66, 127
1, 703329, Note_off_c, 6, 66, 127
1, 703330, Note_off_c, 6, 54, 127
1, 703333, Note_on_c, 7, 79, 127
1, 703506, Note_on_c, 12, 59, 127
1, 703675, Note_off_c, 12, 59, 127
1, 703679, Note_on_c, 1, 61, 127
1, 703679, Note_on_c, 11, 58, 127
1, 703847, Note_off_c, 7, 79, 127
1, 703851, Note_on_c, 4, 76, 127
1, 704020, Note_off_c, 4, 76, 127
1, 704023, Note_on_c, 6, 78, 127
1, 704181, Note_off_c, 11, 58, 127
1, 704192, Note_off_c, 1, 61, 127
1, 704195, Note_on_c, 11, 58, 127
1, 704364, Note_off_c, 11, 58, 127
1, 704367, Note_on_c, 7, 67, 127
1, 704367, Note_on_c, 12, 59, 127
1, 704536, Note_off_c, 6, 78, 127
1, 704540, Note_on_c, 3, 75, 127
1, 704709, Note_off_c, 3, 75, 127
1, 704712, Note_on_c, 4, 76, 127
1, 704880, Note_off_c, 7, 67, 127
1, 704884, Note_on_c, 4, 64, 127
1, 705049, Note_off_c, 12, 59, 127
1, 705053, Note_off_c, 4, 64, 127
1, 705056, Note_on_c, 6, 66, 127
1, 705225, Note_off_c, 4, 76, 127
1, 705228, Note_on_c, 10, 69, 127
1, 705397, Note_off_c, 10, 69, 127
1, 705401, Note_on_c, 10, 81, 127
1, 705569, Note_off_c, 6, 66, 127
1, 705573, Note_on_c, 3, 63, 127
1, 705742, Note_off_c, 3, 63, 127
1, 705745, Note_on_c, 0, 72, 127
1, 705745, Note_on_c, 4, 52, 127
1, 705914, Note_off_c, 10, 81, 127
1, 705917, Note_on_c, 6, 78, 127
1, 706086, Note_off_c, 6, 78, 127
1, 706089, Note_on_c, 7, 79, 127
1, 706247, Note_off_c, 4, 52, 127
1, 706258, Note_off_c, 0, 72, 127
1, 706262, Note_on_c, 11, 70, 127
1, 706431, Note_off_c, 11, 70, 127
1, 706434, Note_on_c, 12, 71, 127
1, 706434, Note_on_c, 2, 50, 127
1, 706602, Note_off_c, 7, 79, 127
1, 706606, Note_on_c, 4, 76, 127
1, 706775, Note_off_c, 4, 76, 127
1, 706778, Note_on_c, 6, 78, 127
1, 706936, Note_off_c, 2, 50, 127
1, 706947, Note_off_c, 12, 71, 127
1, 706950, Note_on_c, 4, 64, 127
1, 707119, Note_off_c, 4, 64, 127
1, 707123, Note_on_c, 2, 62, 127
1, 707123, Note_on_c, 7, 55, 127
1, 707291, Note_off_c, 6, 78, 127
1, 707295, Note_on_c, 12, 71, 127
1, 707464, Note_off_c, 12, 71, 127
1, 707467, Note_on_c, 12, 83, 127
1, 707636, Note_off_c, 7, 55, 127
1, 707639, Note_on_c, 6, 54, 127
1, 707808, Note_off_c, 6, 54, 127
1, 707808, Note_off_c, 2, 62, 127
1, 707811, Note_on_c, 2, 62, 127
1, 707811, Note_on_c, 4, 52, 127
1, 707893, Note_off_c, 2, 62, 127
1, 707897, Note_on_c, 1, 61, 127
1, 707979, Note_off_c, 1, 61, 127
1, 707980, Note_off_c, 12, 83, 127
1, 707984, Note_on_c, 8, 80, 127
1, 707984, Note_on_c, 2, 62, 127
1, 708066, Note_off_c, 2, 62, 127
1, 708070, Note_on_c, 1, 61, 127
1, 708152, Note_off_c, 1, 61, 127
1, 708153, Note_off_c, 8, 80, 127
1, 708156, Note_on_c, 11, 82, 127
1, 708156, Note_on_c, 2, 62, 127
1, 708238, Note_off_c, 2, 62, 127
1, 708238, Note_off_c, 11, 82, 127
1, 708242, Note_on_c, 8, 80, 127
1, 708242, Note_on_c, 1, 61, 127
1, 708324, Note_off_c, 1, 61, 127
1, 708324, Note_off_c, 8, 80, 127
1, 708324, Note_off_c, 4, 52, 127
1, 708328, Note_on_c, 11, 82, 127
1, 708328, Note_on_c, 2, 62, 127
1, 708328, Note_on_c, 6, 54, 127
1, 708410, Note_off_c, 2, 62, 127
1, 708414, Note_on_c, 1, 61, 127
1, 708496, Note_off_c, 1, 61, 127
1, 708497, Note_off_c, 6, 54, 127
1, 708497, Note_off_c, 11, 82, 127
1, 708500, Note_on_c, 12, 83, 127
1, 708500, Note_on_c, 12, 59, 127
1, 708673, Note_on_c, 12, 47, 127
1, 708842, Note_off_c, 12, 47, 127
1, 708842, Note_off_c, 12, 59, 127
1, 708842, Note_off_c, 12, 83, 127
1, 708846, Note_on_c, 7, 79, 127
1, 708846, Note_on_c, 12, 59, 127
1, 709019, Note_on_c, 2, 74, 127
1, 709188, Note_off_c, 2, 74, 127
1, 709188, Note_off_c, 7, 79, 127
1, 709191, Note_on_c, 4, 76, 127
1, 709191, Note_on_c, 1, 73, 127
1, 709360, Note_off_c, 12, 59, 127
1, 709363, Note_on_c, 8, 56, 127
1, 709532, Note_off_c, 8, 56, 127
1, 709532, Note_off_c, 4, 76, 127
1, 709535, Note_on_c, 6, 78, 127
1, 709535, Note_on_c, 10, 57, 127
1, 709704, Note_off_c, 1, 73, 127
1, 709708, Note_on_c, 6, 66, 127
1, 709876, Note_off_c, 6, 78, 127
1, 709877, Note_off_c, 6, 66, 127
1, 709880, Note_on_c, 3, 75, 127
1, 709880, Note_on_c, 12, 71, 127
1, 710048, Note_off_c, 10, 57, 127
1, 710052, Note_on_c, 8, 56, 127
1, 710134, Note_off_c, 8, 56, 127
1, 710138, Note_on_c, 6, 54, 127
1, 710220, Note_off_c, 6, 54, 127
1, 710221, Note_off_c, 3, 75, 127
1, 710224, Note_on_c, 4, 76, 127
1, 710224, Note_on_c, 8, 56, 127
1, 710306, Note_off_c, 8, 56, 127
1, 710310, Note_on_c, 6, 54, 127
1, 710392, Note_off_c, 6, 54, 127
1, 710393, Note_off_c, 12, 71, 127
1, 710396, Note_on_c, 2, 74, 127
1, 710396, Note_on_c, 4, 52, 127
1, 710565, Note_off_c, 4, 52, 127
1, 710565, Note_off_c, 2, 74, 127
1, 710569, Note_on_c, 8, 68, 127
1, 710569, Note_on_c, 4, 64, 127
1, 710651, Note_off_c, 4, 64, 127
1, 710655, Note_on_c, 2, 62, 127
1, 710737, Note_off_c, 2, 62, 127
1, 710737, Note_off_c, 4, 76, 127
1, 710741, Note_on_c, 10, 81, 127
1, 710741, Note_on_c, 1, 61, 127
1, 710910, Note_off_c, 1, 61, 127
1, 710910, Note_off_c, 10, 81, 127
1, 710913, Note_on_c, 8, 80, 127
1, 710913, Note_on_c, 2, 62, 127
1, 710995, Note_off_c, 2, 62, 127
1, 710999, Note_on_c, 1, 61, 127
1, 711081, Note_off_c, 1, 61, 127
1, 711082, Note_off_c, 8, 68, 127
1, 711085, Note_on_c, 2, 74, 127
1, 711085, Note_on_c, 12, 59, 127
1, 711254, Note_off_c, 12, 59, 127
1, 711254, Note_off_c, 2, 74, 127
1, 711254, Note_off_c, 8, 80, 127
1, 711257, Note_on_c, 10, 81, 127
1, 711257, Note_on_c, 1, 73, 127
1, 711257, Note_on_c, 10, 57, 127
1, 711426, Note_off_c, 10, 57, 127
1, 711430, Note_on_c, 10, 45, 127
1, 711544, Note_off_c, 10, 81, 127
1, 711599, Note_off_c, 10, 45, 127
1, 711602, Note_on_c, 6, 78, 127
1, 711602, Note_on_c, 10, 57, 127
1, 711770, Note_off_c, 1, 73, 127
1, 711774, Note_on_c, 1, 73, 127
1, 711943, Note_off_c, 1, 73, 127
1, 711943, Note_off_c, 6, 78, 127
1, 711946, Note_on_c, 2, 74, 127
1, 711946, Note_on_c, 12, 71, 127
1, 712115, Note_off_c, 10, 57, 127
1, 712118, Note_on_c, 6, 54, 127
1, 712287, Note_off_c, 6, 54, 127
1, 712287, Note_off_c, 2, 74, 127
1, 712291, Note_on_c, 4, 76, 127
1, 712291, Note_on_c, 7, 55, 127
1, 712459, Note_off_c, 12, 71, 127
1, 712463, Note_on_c, 4, 64, 127
1, 712632, Note_off_c, 4, 64, 127
1, 712632, Note_off_c, 4, 76, 127
1, 712635, Note_on_c, 1, 73, 127
1, 712635, Note_on_c, 10, 69, 127
1, 712718, Note_off_c, 7, 55, 127
1, 712721, Note_on_c, 6, 54, 127
1, 712803, Note_off_c, 6, 54, 127
1, 712807, Note_on_c, 4, 52, 127
1, 712976, Note_off_c, 4, 52, 127
1, 712976, Note_off_c, 1, 73, 127
1, 712979, Note_on_c, 2, 74, 127
1, 712979, Note_on_c, 6, 54, 127
1, 713061, Note_off_c, 6, 54, 127
1, 713066, Note_on_c, 4, 52, 127
1, 713148, Note_off_c, 4, 52, 127
1, 713148, Note_off_c, 10, 69, 127
1, 713152, Note_on_c, 0, 72, 127
1, 713152, Note_on_c, 2, 50, 127
1, 713321, Note_off_c, 2, 50, 127
1, 713321, Note_off_c, 0, 72, 127
1, 713324, Note_on_c, 6, 66, 127
1, 713324, Note_on_c, 2, 62, 127
1, 713406, Note_off_c, 2, 62, 127
1, 713410, Note_on_c, 0, 60, 127
1, 713492, Note_off_c, 0, 60, 127
1, 713492, Note_off_c, 2, 74, 127
1, 713496, Note_on_c, 7, 79, 127
1, 713496, Note_on_c, 12, 59, 127
1, 713665, Note_off_c, 12, 59, 127
1, 713665, Note_off_c, 7, 79, 127
1, 713668, Note_on_c, 6, 78, 127
1, 713668, Note_on_c, 0, 60, 127
1, 713750, Note_off_c, 0, 60, 127
1, 713754, Note_on_c, 12, 59, 127
1, 713836, Note_off_c, 12, 59, 127
1, 713840, Note_on_c, 10, 57, 127
1, 714009, Note_off_c, 10, 57, 127
1, 714009, Note_off_c, 6, 78, 127
1, 714009, Note_off_c, 6, 66, 127
1, 714013, Note_on_c, 7, 79, 127
1, 714013, Note_on_c, 12, 71, 127
1, 714013, Note_on_c, 7, 55, 127
1, 714182, Note_off_c, 7, 55, 127
1, 714182, Note_off_c, 7, 79, 127
1, 714185, Note_on_c, 2, 74, 127
1, 714185, Note_on_c, 12, 59, 127
1, 714354, Note_off_c, 12, 59, 127
1, 714354, Note_off_c, 2, 74, 127
1, 714357, Note_on_c, 7, 79, 127
1, 714357, Note_on_c, 4, 64, 127
1, 714526, Note_off_c, 12, 71, 127
1, 714529, Note_on_c, 12, 71, 127
1, 714698, Note_off_c, 12, 71, 127
1, 714698, Note_off_c, 4, 64, 127
1, 714701, Note_on_c, 0, 72, 127
1, 714701, Note_on_c, 10, 57, 127
1, 714870, Note_off_c, 7, 79, 127
1, 714874, Note_on_c, 4, 76, 127
1, 715042, Note_off_c, 10, 57, 127
1, 715043, Note_off_c, 4, 76, 127
1, 715046, Note_on_c, 6, 78, 127
1, 715046, Note_on_c, 2, 62, 127
1, 715214, Note_off_c, 0, 72, 127
1, 715218, Note_on_c, 10, 69, 127
1, 715387, Note_off_c, 10, 69, 127
1, 715387, Note_off_c, 2, 62, 127
1, 715390, Note_on_c, 12, 71, 127
1, 715390, Note_on_c, 7, 55, 127
1, 715559, Note_off_c, 6, 78, 127
1, 715562, Note_on_c, 3, 75, 127
1, 715731, Note_off_c, 3, 75, 127
1, 715731, Note_off_c, 7, 55, 127
1, 715735, Note_on_c, 4, 76, 127
1, 715735, Note_on_c, 0, 60, 127
1, 715903, Note_off_c, 12, 71, 127
1, 715907, Note_on_c, 7, 67, 127
1, 716076, Note_off_c, 7, 67, 127
1, 716076, Note_off_c, 0, 60, 127
1, 716079, Note_on_c, 10, 69, 127
1, 716079, Note_on_c, 6, 54, 127
1, 716248, Note_off_c, 4, 76, 127
1, 716251, Note_on_c, 1, 73, 127
1, 716420, Note_off_c, 1, 73, 127
1, 716420, Note_off_c, 6, 54, 127
1, 716423, Note_on_c, 3, 75, 127
1, 716423, Note_on_c, 12, 59, 127
1, 716592, Note_off_c, 10, 69, 127
1, 716596, Note_on_c, 6, 66, 127
1, 716764, Note_off_c, 12, 59, 127
1, 716764, Note_off_c, 3, 75, 127
1, 716765, Note_off_c, 6, 66, 127
1, 716768, Note_on_c, 4, 76, 127
1, 716768, Note_on_c, 7, 67, 127
1, 716768, Note_on_c, 4, 52, 127
1, 716937, Note_off_c, 4, 52, 127
1, 716937, Note_off_c, 4, 76, 127
1, 716940, Note_on_c, 6, 78, 127
1, 716940, Note_on_c, 12, 59, 127
1, 717022, Note_off_c, 6, 78, 127
1, 717026, Note_on_c, 7, 79, 127
1, 717108, Note_off_c, 7, 79, 127
1, 717109, Note_off_c, 12, 59, 127
1, 717112, Note_on_c, 10, 81, 127
1, 717112, Note_on_c, 0, 60, 127
1, 717194, Note_off_c, 10, 81, 127
1, 717198, Note_on_c, 12, 83, 127
1, 717280, Note_off_c, 12, 83, 127
1, 717281, Note_off_c, 7, 67, 127
1, 717284, Note_on_c, 0, 84, 127
1, 717284, Note_on_c, 4, 64, 127
1, 717453, Note_off_c, 4, 64, 127
1, 717453, Note_off_c, 0, 84, 127
1, 717457, Note_on_c, 2, 74, 127
1, 717457, Note_on_c, 5, 65, 127
1, 717625, Note_off_c, 0, 60, 127
1, 717626, Note_off_c, 2, 74, 127
1, 717629, Note_on_c, 4, 76, 127
1, 717629, Note_on_c, 10, 57, 127
1, 717711, Note_off_c, 4, 76, 127
1, 717715, Note_on_c, 5, 77, 127
1, 717797, Note_off_c, 5, 77, 127
1, 717798, Note_off_c, 10, 57, 127
1, 717801, Note_on_c, 7, 79, 127
1, 717801, Note_on_c, 12, 59, 127
1, 717883, Note_off_c, 7, 79, 127
1, 717887, Note_on_c, 10, 81, 127
1, 717969, Note_off_c, 10, 81, 127
1, 717970, Note_off_c, 5, 65, 127
1, 717973, Note_on_c, 12, 83, 127
1, 717973, Note_on_c, 2, 62, 127
1, 718142, Note_off_c, 2, 62, 127
1, 718142, Note_off_c, 12, 83, 127
1, 718145, Note_on_c, 0, 72, 127
1, 718145, Note_on_c, 4, 64, 127
1, 718314, Note_off_c, 0, 72, 127
1, 718314, Note_off_c, 12, 59, 127
1, 718318, Note_on_c, 2, 74, 127
1, 718318, Note_on_c, 8, 56, 127
1, 718400, Note_off_c, 2, 74, 127
1, 718404, Note_on_c, 4, 76, 127
1, 718486, Note_off_c, 4, 76, 127
1, 718487, Note_off_c, 8, 56, 127
1, 718490, Note_on_c, 5, 77, 127
1, 718490, Note_on_c, 10, 57, 127
1, 718572, Note_off_c, 5, 77, 127
1, 718576, Note_on_c, 7, 79, 127
1, 718658, Note_off_c, 7, 79, 127
1, 718658, Note_off_c, 4, 64, 127
1, 718662, Note_on_c, 10, 81, 127
1, 718662, Note_on_c, 0, 60, 127
1, 718831, Note_off_c, 0, 60, 127
1, 718831, Note_off_c, 10, 81, 127
1, 718834, Note_on_c, 12, 71, 127
1, 718834, Note_on_c, 2, 62, 127
1, 719003, Note_off_c, 12, 71, 127
1, 719003, Note_off_c, 10, 57, 127
1, 719006, Note_on_c, 0, 72, 127
1, 719006, Note_on_c, 6, 54, 127
1, 719088, Note_off_c, 0, 72, 127
1, 719093, Note_on_c, 2, 74, 127
1, 719175, Note_off_c, 2, 74, 127
1, 719175, Note_off_c, 6, 54, 127
1, 719175, Note_off_c, 2, 62, 127
1, 719179, Note_on_c, 4, 76, 127
1, 719179, Note_on_c, 12, 59, 127
1, 719179, Note_on_c, 8, 56, 127
1, 719261, Note_off_c, 4, 76, 127
1, 719265, Note_on_c, 5, 77, 127
1, 719347, Note_off_c, 5, 77, 127
1, 719351, Note_on_c, 2, 74, 127
1, 719520, Note_off_c, 2, 74, 127
1, 719520, Note_off_c, 8, 56, 127
1, 719520, Note_off_c, 12, 59, 127
1, 719523, Note_on_c, 0, 72, 127
1, 719523, Note_on_c, 10, 57, 127
1, 719692, Note_off_c, 10, 57, 127
1, 719695, Note_on_c, 4, 64, 127
1, 719695, Note_on_c, 7, 55, 127
1, 719777, Note_off_c, 7, 55, 127
1, 719781, Note_on_c, 5, 53, 127
1, 719863, Note_off_c, 5, 53, 127
1, 719864, Note_off_c, 4, 64, 127
1, 719867, Note_on_c, 10, 69, 127
1, 719867, Note_on_c, 7, 55, 127
1, 720036, Note_off_c, 7, 55, 127
1, 720036, Note_off_c, 0, 72, 127
1, 720040, Note_on_c, 12, 71, 127
1, 720040, Note_on_c, 6, 54, 127
1, 720122, Note_off_c, 6, 54, 127
1, 720126, Note_on_c, 4, 52, 127
1, 720208, Note_off_c, 4, 52, 127
1, 720209, Note_off_c, 12, 71, 127
1, 720212, Note_on_c, 0, 72, 127
1, 720212, Note_on_c, 6, 54, 127
1, 720380, Note_off_c, 10, 69, 127
1, 720381, Note_off_c, 6, 54, 127
1, 720384, Note_on_c, 4, 64, 127
1, 720384, Note_on_c, 7, 55, 127
1, 720466, Note_off_c, 7, 55, 127
1, 720470, Note_on_c, 10, 57, 127
1, 720552, Note_off_c, 10, 57, 127
1, 720553, Note_off_c, 4, 64, 127
1, 720556, Note_on_c, 10, 69, 127
1, 720556, Note_on_c, 7, 55, 127
1, 720638, Note_off_c, 7, 55, 127
1, 720642, Note_on_c, 6, 54, 127
1, 720724, Note_off_c, 6, 54, 127
1, 720725, Note_off_c, 0, 72, 127
1, 720728, Note_on_c, 0, 72, 127
1, 720728, Note_on_c, 4, 52, 127
1, 720897, Note_off_c, 4, 52, 127
1, 720897, Note_off_c, 0, 72, 127
1, 720901, Note_on_c, 12, 71, 127
1, 720901, Note_on_c, 3, 51, 127
1, 721069, Note_off_c, 10, 69, 127
1, 721070, Note_off_c, 3, 51, 127
1, 721073, Note_on_c, 7, 67, 127
1, 721073, Note_on_c, 12, 47, 127
1, 721155, Note_off_c, 7, 67, 127
1, 721159, Note_on_c, 6, 66, 127
1, 721241, Note_off_c, 6, 66, 127
1, 721242, Note_off_c, 12, 47, 127
1, 721245, Note_on_c, 7, 67, 127
1, 721245, Note_on_c, 4, 52, 127
1, 721327, Note_off_c, 7, 67, 127
1, 721331, Note_on_c, 6, 66, 127
1, 721413, Note_off_c, 6, 66, 127
1, 721417, Note_on_c, 4, 64, 127
1, 721586, Note_off_c, 4, 64, 127
1, 721586, Note_off_c, 12, 71, 127
1, 721589, Note_on_c, 10, 69, 127
1, 721589, Note_on_c, 6, 66, 127
1, 721758, Note_off_c, 4, 52, 127
1, 721762, Note_on_c, 10, 45, 127
1, 721931, Note_off_c, 10, 45, 127
1, 721934, Note_on_c, 12, 47, 127
1, 722074, Note_off_c, 6, 66, 127
1, 722074, Note_off_c, 10, 69, 127
1, 722107, Note_on_c, 6, 66, 127
1, 722107, Note_on_c, 3, 63, 127
1, 722276, Note_off_c, 3, 63, 127
1, 722276, Note_off_c, 6, 66, 127
1, 722279, Note_on_c, 0, 72, 127
1, 722279, Note_on_c, 4, 64, 127
1, 722448, Note_off_c, 12, 47, 127
1, 722451, Note_on_c, 8, 44, 127
1, 722620, Note_off_c, 8, 44, 127
1, 722624, Note_on_c, 10, 45, 127
1, 722764, Note_off_c, 4, 64, 127
1, 722764, Note_off_c, 0, 72, 127
1, 722797, Note_on_c, 0, 72, 127
1, 722797, Note_on_c, 10, 69, 127
1, 722966, Note_off_c, 10, 69, 127
1, 722966, Note_off_c, 0, 72, 127
1, 722969, Note_on_c, 2, 74, 127
1, 722969, Note_on_c, 12, 71, 127
1, 723138, Note_off_c, 10, 45, 127
1, 723141, Note_on_c, 2, 38, 127
1, 723310, Note_off_c, 2, 38, 127
1, 723314, Note_on_c, 2, 50, 127
1, 723454, Note_off_c, 12, 71, 127
1, 723454, Note_off_c, 2, 74, 127
1, 723487, Note_on_c, 12, 71, 127
1, 723487, Note_on_c, 8, 68, 127
1, 723656, Note_off_c, 8, 68, 127
1, 723656, Note_off_c, 12, 71, 127
1, 723659, Note_on_c, 8, 80, 127
1, 723659, Note_on_c, 5, 77, 127
1, 723828, Note_off_c, 2, 50, 127
1, 723831, Note_on_c, 12, 47, 127
1, 724000, Note_off_c, 12, 47, 127
1, 724003, Note_on_c, 0, 48, 127
1, 724144, Note_off_c, 5, 77, 127
1, 724144, Note_off_c, 8, 80, 127
1, 724177, Note_on_c, 3, 75, 127
1, 724346, Note_off_c, 3, 75, 127
1, 724349, Note_on_c, 10, 81, 127
1, 724349, Note_on_c, 4, 76, 127
1, 724517, Note_off_c, 0, 48, 127
1, 724521, Note_on_c, 10, 45, 127
1, 724690, Note_off_c, 10, 45, 127
1, 724693, Note_on_c, 12, 47, 127
1, 724834, Note_off_c, 4, 76, 127
1, 724834, Note_off_c, 10, 81, 127
1, 724866, Note_on_c, 3, 75, 127
1, 724866, Note_on_c, 10, 69, 127
1, 725035, Note_off_c, 10, 69, 127
1, 725035, Note_off_c, 3, 75, 127
1, 725039, Note_on_c, 4, 76, 127
1, 725039, Note_on_c, 7, 67, 127
1, 725207, Note_off_c, 12, 47, 127
1, 725208, Note_off_c, 4, 76, 127
1, 725211, Note_on_c, 2, 74, 127
1, 725211, Note_on_c, 4, 40, 127
1, 725293, Note_off_c, 2, 74, 127
1, 725297, Note_on_c, 0, 72, 127
1, 725379, Note_off_c, 0, 72, 127
1, 725380, Note_off_c, 4, 40, 127
1, 725383, Note_on_c, 12, 71, 127
1, 725383, Note_on_c, 4, 52, 127
1, 725465, Note_off_c, 12, 71, 127
1, 725469, Note_on_c, 10, 69, 127
1, 725541, Note_off_c, 7, 67, 127
1, 725551, Note_off_c, 10, 69, 127
1, 725555, Note_on_c, 7, 67, 127
1, 725724, Note_off_c, 7, 67, 127
1, 725727, Note_on_c, 6, 66, 127
1, 725896, Note_off_c, 4, 52, 127
1, 725900, Note_on_c, 10, 69, 127
1, 725900, Note_on_c, 1, 49, 127
1, 725982, Note_off_c, 10, 69, 127
1, 725986, Note_on_c, 12, 71, 127
1, 726068, Note_off_c, 12, 71, 127
1, 726069, Note_off_c, 1, 49, 127
1, 726072, Note_on_c, 0, 72, 127
1, 726072, Note_on_c, 3, 51, 127
1, 726154, Note_off_c, 0, 72, 127
1, 726158, Note_on_c, 12, 71, 127
1, 726240, Note_off_c, 12, 71, 127
1, 726244, Note_on_c, 10, 69, 127
1, 726413, Note_off_c, 10, 69, 127
1, 726413, Note_off_c, 3, 51, 127
1, 726416, Note_on_c, 7, 67, 127
1, 726416, Note_on_c, 4, 52, 127
1, 726584, Note_off_c, 6, 66, 127
1, 726588, Note_on_c, 3, 63, 127
1, 726757, Note_off_c, 3, 63, 127
1, 726757, Note_off_c, 7, 67, 127
1, 726761, Note_on_c, 7, 67, 127
1, 726761, Note_on_c, 4, 64, 127
1, 726929, Note_off_c, 4, 52, 127
1, 726933, Note_on_c, 2, 62, 127
1, 727102, Note_off_c, 2, 62, 127
1, 727105, Note_on_c, 1, 61, 127
1, 727274, Note_off_c, 4, 64, 127
1, 727277, Note_on_c, 11, 58, 127
1, 727446, Note_off_c, 11, 58, 127
1, 727446, Note_off_c, 7, 67, 127
1, 727449, Note_on_c, 7, 67, 127
1, 727449, Note_on_c, 4, 64, 127
1, 727618, Note_off_c, 1, 61, 127
1, 727622, Note_on_c, 10, 57, 127
1, 727791, Note_off_c, 10, 57, 127
1, 727794, Note_on_c, 2, 50, 127
1, 727962, Note_off_c, 4, 64, 127
1, 727966, Note_on_c, 1, 61, 127
1, 728134, Note_off_c, 7, 67, 127
1, 728135, Note_off_c, 1, 61, 127
1, 728138, Note_on_c, 5, 65, 127
1, 728138, Note_on_c, 2, 62, 127
1, 728307, Note_off_c, 2, 50, 127
1, 728310, Note_on_c, 0, 60, 127
1, 728479, Note_off_c, 0, 60, 127
1, 728483, Note_on_c, 12, 59, 127
1, 728651, Note_off_c, 2, 62, 127
1, 728655, Note_on_c, 8, 56, 127
1, 728823, Note_off_c, 5, 65, 127
1, 728824, Note_off_c, 8, 56, 127
1, 728827, Note_on_c, 5, 65, 127
1, 728827, Note_on_c, 2, 62, 127
1, 728996, Note_off_c, 12, 59, 127
1, 728999, Note_on_c, 7, 55, 127
1, 729168, Note_off_c, 7, 55, 127
1, 729171, Note_on_c, 0, 48, 127
1, 729340, Note_off_c, 2, 62, 127
1, 729344, Note_on_c, 12, 59, 127
1, 729512, Note_off_c, 5, 65, 127
1, 729513, Note_off_c, 12, 59, 127
1, 729516, Note_on_c, 4, 64, 127
1, 729516, Note_on_c, 0, 60, 127
1, 729684, Note_off_c, 0, 48, 127
1, 729688, Note_on_c, 12, 59, 127
1, 729857, Note_off_c, 12, 59, 127
1, 729860, Note_on_c, 10, 57, 127
1, 730029, Note_off_c, 0, 60, 127
1, 730032, Note_on_c, 6, 54, 127
1, 730201, Note_off_c, 6, 54, 127
1, 730201, Note_off_c, 4, 64, 127
1, 730205, Note_on_c, 4, 64, 127
1, 730205, Note_on_c, 0, 60, 127
1, 730373, Note_off_c, 10, 57, 127
1, 730377, Note_on_c, 6, 54, 127
1, 730546, Note_off_c, 6, 54, 127
1, 730549, Note_on_c, 12, 47, 127
1, 730718, Note_off_c, 0, 60, 127
1, 730721, Note_on_c, 11, 58, 127
1, 730890, Note_off_c, 11, 58, 127
1, 730890, Note_off_c, 4, 64, 127
1, 730893, Note_on_c, 3, 63, 127
1, 730893, Note_on_c, 12, 59, 127
1, 731062, Note_off_c, 12, 47, 127
1, 731066, Note_on_c, 10, 57, 127
1, 731235, Note_off_c, 10, 57, 127
1, 731238, Note_on_c, 7, 55, 127
1, 731406, Note_off_c, 12, 59, 127
1, 731410, Note_on_c, 12, 59, 127
1, 731578, Note_off_c, 3, 63, 127
1, 731579, Note_off_c, 12, 59, 127
1, 731582, Note_on_c, 7, 67, 127
1, 731582, Note_on_c, 4, 64, 127
1, 731751, Note_off_c, 7, 55, 127
1, 731754, Note_on_c, 4, 52, 127
1, 731923, Note_off_c, 4, 52, 127
1, 731927, Note_on_c, 3, 51, 127
1, 732095, Note_off_c, 4, 64, 127
1, 732099, Note_on_c, 12, 59, 127
1, 732267, Note_off_c, 7, 67, 127
1, 732268, Note_off_c, 12, 59, 127
1, 732271, Note_on_c, 10, 69, 127
1, 732271, Note_on_c, 6, 66, 127
1, 732440, Note_off_c, 3, 51, 127
1, 732443, Note_on_c, 12, 59, 127
1, 732612, Note_off_c, 12, 59, 127
1, 732615, Note_on_c, 7, 55, 127
1, 732784, Note_off_c, 6, 66, 127
1, 732788, Note_on_c, 1, 61, 127
1, 732956, Note_off_c, 10, 69, 127
1, 732957, Note_off_c, 1, 61, 127
1, 732960, Note_on_c, 11, 70, 127
1, 732960, Note_on_c, 7, 67, 127
1, 733128, Note_off_c, 7, 55, 127
1, 733132, Note_on_c, 4, 52, 127
1, 733301, Note_off_c, 4, 52, 127
1, 733304, Note_on_c, 12, 47, 127
1, 733462, Note_off_c, 7, 67, 127
1, 733473, Note_off_c, 11, 70, 127
1, 733476, Note_on_c, 12, 71, 127
1, 733558, Note_off_c, 12, 71, 127
1, 733563, Note_on_c, 6, 66, 127
1, 733645, Note_off_c, 6, 66, 127
1, 733649, Note_on_c, 3, 63, 127
1, 733818, Note_off_c, 3, 63, 127
1, 733821, Note_on_c, 12, 59, 127
1, 733903, Note_off_c, 12, 59, 127
1, 733907, Note_on_c, 11, 58, 127
1, 733989, Note_off_c, 11, 58, 127
1, 733993, Note_on_c, 12, 59, 127
1, 734075, Note_off_c, 12, 59, 127
1, 734079, Note_on_c, 3, 63, 127
1, 734161, Note_off_c, 3, 63, 127
1, 734165, Note_on_c, 6, 66, 127
1, 734334, Note_off_c, 6, 66, 127
1, 734336, Note_off_c, 12, 47, 127
1, 734339, Note_on_c, 12, 71, 127
1, 734482, Note_off_c, 12, 71, 127
1, 734527, Note_on_c, 12, 59, 127
1, 734696, Note_off_c, 12, 59, 127
1, 734699, Note_on_c, 10, 57, 127
1, 735175, Note_off_c, 10, 57, 127
1, 735217, Note_on_c, 0, 60, 127
1, 735386, Note_off_c, 0, 60, 127
1, 735389, Note_on_c, 3, 51, 127
1, 735865, Note_off_c, 3, 51, 127
1, 735906, Note_on_c, 6, 54, 127
1, 736075, Note_off_c, 6, 54, 127
1, 736079, Note_on_c, 4, 52, 127
1, 736555, Note_off_c, 4, 52, 127
1, 736596, Note_on_c, 7, 55, 127
1, 736765, Note_off_c, 7, 55, 127
1, 736768, Note_on_c, 11, 46, 127
1, 737244, Note_off_c, 11, 46, 127
1, 737286, Note_on_c, 0, 48, 127
1, 737455, Note_off_c, 0, 48, 127
1, 737458, Note_on_c, 12, 47, 127
1, 737934, Note_off_c, 12, 47, 127
1, 737976, Note_on_c, 3, 51, 127
1, 738145, Note_off_c, 3, 51, 127
1, 738148, Note_on_c, 4, 52, 127
1, 738835, Note_off_c, 4, 52, 127
1, 738839, Note_on_c, 7, 55, 127
1, 738950, Note_off_c, 7, 55, 127
1, 738954, Note_on_c, 6, 54, 127
1, 739065, Note_off_c, 6, 54, 127
1, 739068, Note_on_c, 7, 55, 127
1, 739179, Note_off_c, 7, 55, 127
1, 739182, Note_on_c, 6, 54, 127
1, 739293, Note_off_c, 6, 54, 127
1, 739297, Note_on_c, 4, 52, 127
1, 739408, Note_off_c, 4, 52, 127
1, 739411, Note_on_c, 6, 54, 127
1, 739522, Note_off_c, 6, 54, 127
1, 739526, Note_on_c, 7, 55, 127
1, 739695, Note_off_c, 7, 55, 127
1, 739698, Note_on_c, 0, 60, 127
1, 739867, Note_off_c, 0, 60, 127
1, 739870, Note_on_c, 12, 59, 127
1, 740039, Note_off_c, 12, 59, 127
1, 740042, Note_on_c, 6, 66, 127
1, 740042, Note_on_c, 10, 57, 127
1, 740211, Note_off_c, 10, 57, 127
1, 740211, Note_off_c, 6, 66, 127
1, 740215, Note_on_c, 4, 64, 127
1, 740215, Note_on_c, 7, 55, 127
1, 740384, Note_off_c, 7, 55, 127
1, 740387, Note_on_c, 12, 59, 127
1, 740556, Note_off_c, 12, 59, 127
1, 740559, Note_on_c, 4, 52, 127
1, 740700, Note_off_c, 4, 64, 127
1, 740732, Note_on_c, 7, 67, 127
1, 740901, Note_off_c, 7, 67, 127
1, 740904, Note_on_c, 11, 58, 127
1, 741073, Note_off_c, 4, 52, 127
1, 741077, Note_on_c, 1, 49, 127
1, 741246, Note_off_c, 1, 49, 127
1, 741249, Note_on_c, 2, 50, 127
1, 741389, Note_off_c, 11, 58, 127
1, 741422, Note_on_c, 1, 61, 127
1, 741591, Note_off_c, 1, 61, 127
1, 741594, Note_on_c, 12, 59, 127
1, 741763, Note_off_c, 2, 50, 127
1, 741766, Note_on_c, 6, 54, 127
1, 741935, Note_off_c, 6, 54, 127
1, 741939, Note_on_c, 12, 47, 127
1, 742079, Note_off_c, 12, 59, 127
1, 742112, Note_on_c, 2, 62, 127
1, 742281, Note_off_c, 2, 62, 127
1, 742284, Note_on_c, 5, 53, 127
1, 742453, Note_off_c, 12, 47, 127
1, 742456, Note_on_c, 8, 44, 127
1, 742625, Note_off_c, 8, 44, 127
1, 742629, Note_on_c, 11, 46, 127
1, 742769, Note_off_c, 5, 53, 127
1, 742802, Note_on_c, 7, 55, 127
1, 742971, Note_off_c, 7, 55, 127
1, 742974, Note_on_c, 6, 54, 127
1, 743143, Note_off_c, 11, 46, 127
1, 743146, Note_on_c, 1, 49, 127
1, 743315, Note_off_c, 1, 49, 127
1, 743318, Note_on_c, 4, 52, 127
1, 743459, Note_off_c, 6, 54, 127
1, 743492, Note_on_c, 11, 58, 127
1, 743661, Note_off_c, 11, 58, 127
1, 743664, Note_on_c, 12, 59, 127
1, 743832, Note_off_c, 4, 52, 127
1, 743836, Note_on_c, 1, 49, 127
1, 744005, Note_off_c, 1, 49, 127
1, 744008, Note_on_c, 2, 50, 127
1, 744166, Note_off_c, 12, 59, 127
1, 744177, Note_off_c, 2, 50, 127
1, 744180, Note_on_c, 12, 59, 127
1, 744349, Note_off_c, 12, 59, 127
1, 744353, Note_on_c, 2, 62, 127
1, 744353, Note_on_c, 4, 52, 127
1, 744435, Note_off_c, 2, 62, 127
1, 744439, Note_on_c, 1, 61, 127
1, 744521, Note_off_c, 1, 61, 127
1, 744522, Note_off_c, 4, 52, 127
1, 744525, Note_on_c, 2, 62, 127
1, 744525, Note_on_c, 12, 59, 127
1, 744607, Note_off_c, 2, 62, 127
1, 744611, Note_on_c, 1, 61, 127
1, 744693, Note_off_c, 1, 61, 127
1, 744694, Note_off_c, 12, 59, 127
1, 744697, Note_on_c, 2, 62, 127
1, 744697, Note_on_c, 6, 54, 127
1, 744779, Note_off_c, 2, 62, 127
1, 744783, Note_on_c, 1, 61, 127
1, 744865, Note_off_c, 1, 61, 127
1, 744866, Note_off_c, 6, 54, 127
1, 744869, Note_on_c, 12, 59, 127
1, 744869, Note_on_c, 11, 58, 127
1, 744951, Note_off_c, 12, 59, 127
1, 744955, Note_on_c, 1, 61, 127
1, 745037, Note_off_c, 1, 61, 127
1, 745038, Note_off_c, 11, 58, 127
1, 745041, Note_on_c, 2, 62, 127
1, 745041, Note_on_c, 12, 59, 127
1, 745210, Note_off_c, 2, 62, 127
1, 745214, Note_on_c, 7, 67, 127
1, 745383, Note_off_c, 7, 67, 127
1, 745386, Note_on_c, 6, 66, 127
1, 745543, Note_off_c, 12, 59, 127
1, 745555, Note_off_c, 6, 66, 127
1, 745558, Note_on_c, 4, 64, 127
1, 745727, Note_off_c, 4, 64, 127
1, 745730, Note_on_c, 2, 62, 127
1, 745899, Note_off_c, 2, 62, 127
1, 745902, Note_on_c, 6, 66, 127
1, 745902, Note_on_c, 10, 57, 127
1, 746071, Note_off_c, 10, 57, 127
1, 746071, Note_off_c, 6, 66, 127
1, 746075, Note_on_c, 12, 59, 127
1, 746075, Note_on_c, 8, 56, 127
1, 746244, Note_off_c, 8, 56, 127
1, 746247, Note_on_c, 6, 54, 127
1, 746416, Note_off_c, 6, 54, 127
1, 746419, Note_on_c, 4, 52, 127
1, 746588, Note_off_c, 12, 59, 127
1, 746591, Note_on_c, 8, 56, 127
1, 746760, Note_off_c, 8, 56, 127
1, 746763, Note_on_c, 5, 65, 127
1, 746932, Note_off_c, 4, 52, 127
1, 746936, Note_on_c, 2, 50, 127
1, 747105, Note_off_c, 2, 50, 127
1, 747108, Note_on_c, 2, 50, 127
1, 747219, Note_off_c, 2, 50, 127
1, 747222, Note_on_c, 0, 48, 127
1, 747275, Note_off_c, 5, 65, 127
1, 747279, Note_on_c, 2, 62, 127
1, 747332, Note_off_c, 0, 48, 127
1, 747336, Note_on_c, 2, 50, 127
1, 747447, Note_off_c, 2, 50, 127
1, 747447, Note_off_c, 2, 62, 127
1, 747450, Note_on_c, 8, 68, 127
1, 747450, Note_on_c, 0, 48, 127
1, 747619, Note_off_c, 0, 48, 127
1, 747622, Note_on_c, 12, 47, 127
1, 747791, Note_off_c, 12, 47, 127
1, 747791, Note_off_c, 8, 68, 127
1, 747795, Note_on_c, 10, 45, 127
1, 747968, Note_on_c, 5, 65, 127
1, 748137, Note_off_c, 5, 65, 127
1, 748137, Note_off_c, 10, 45, 127
1, 748140, Note_on_c, 4, 64, 127
1, 748140, Note_on_c, 10, 57, 127
1, 748309, Note_off_c, 4, 64, 127
1, 748312, Note_on_c, 2, 62, 127
1, 748481, Note_off_c, 2, 62, 127
1, 748484, Note_on_c, 0, 60, 127
1, 748653, Note_off_c, 0, 60, 127
1, 748653, Note_off_c, 10, 57, 127
1, 748657, Note_on_c, 4, 64, 127
1, 748657, Note_on_c, 7, 55, 127
1, 748826, Note_off_c, 7, 55, 127
1, 748826, Note_off_c, 4, 64, 127
1, 748829, Note_on_c, 10, 57, 127
1, 748829, Note_on_c, 6, 54, 127
1, 748998, Note_off_c, 6, 54, 127
1, 749001, Note_on_c, 4, 52, 127
1, 749170, Note_off_c, 4, 52, 127
1, 749173, Note_on_c, 2, 50, 127
1, 749259, Note_off_c, 10, 57, 127
1, 749345, Note_on_c, 6, 54, 127
1, 749514, Note_off_c, 6, 54, 127
1, 749518, Note_on_c, 3, 63, 127
1, 749686, Note_off_c, 2, 50, 127
1, 749690, Note_on_c, 0, 48, 127
1, 749859, Note_off_c, 0, 48, 127
1, 749859, Note_off_c, 3, 63, 127
1, 749862, Note_on_c, 0, 48, 127
1, 749944, Note_off_c, 0, 48, 127
1, 749948, Note_on_c, 12, 47, 127
1, 750030, Note_off_c, 12, 47, 127
1, 750034, Note_on_c, 0, 60, 127
1, 750034, Note_on_c, 0, 48, 127
1, 750116, Note_off_c, 0, 48, 127
1, 750120, Note_on_c, 12, 47, 127
1, 750202, Note_off_c, 12, 47, 127
1, 750203, Note_off_c, 0, 60, 127
1, 750206, Note_on_c, 6, 66, 127
1, 750206, Note_on_c, 0, 48, 127
1, 750288, Note_off_c, 0, 48, 127
1, 750292, Note_on_c, 12, 47, 127
1, 750374, Note_off_c, 12, 47, 127
1, 750375, Note_off_c, 6, 66, 127
1, 750379, Note_on_c, 0, 60, 127
1, 750379, Note_on_c, 10, 45, 127
1, 750548, Note_off_c, 10, 45, 127
1, 750548, Note_off_c, 0, 60, 127
1, 750551, Note_on_c, 12, 59, 127
1, 750551, Note_on_c, 7, 43, 127
1, 750720, Note_off_c, 7, 43, 127
1, 750723, Note_on_c, 12, 47, 127
1, 750892, Note_off_c, 12, 47, 127
1, 750892, Note_off_c, 12, 59, 127
1, 750895, Note_on_c, 7, 55, 127
1, 750895, Note_on_c, 4, 52, 127
1, 751064, Note_off_c, 4, 52, 127
1, 751067, Note_on_c, 12, 71, 127
1, 751067, Note_on_c, 2, 50, 127
1, 751236, Note_off_c, 2, 50, 127
1, 751236, Note_off_c, 12, 71, 127
1, 751240, Note_on_c, 10, 69, 127
1, 751240, Note_on_c, 0, 48, 127
1, 751409, Note_off_c, 0, 48, 127
1, 751412, Note_on_c, 4, 52, 127
1, 751580, Note_off_c, 7, 55, 127
1, 751581, Note_off_c, 4, 52, 127
1, 751584, Note_on_c, 6, 54, 127
1, 751584, Note_on_c, 10, 45, 127
1, 751725, Note_off_c, 10, 69, 127
1, 751757, Note_on_c, 0, 72, 127
1, 751926, Note_off_c, 0, 72, 127
1, 751929, Note_on_c, 3, 63, 127
1, 752098, Note_off_c, 10, 45, 127
1, 752102, Note_on_c, 6, 42, 127
1, 752270, Note_off_c, 6, 54, 127
1, 752271, Note_off_c, 6, 42, 127
1, 752274, Note_on_c, 12, 59, 127
1, 752274, Note_on_c, 7, 43, 127
1, 752414, Note_off_c, 3, 63, 127
1, 752447, Note_on_c, 6, 66, 127
1, 752616, Note_off_c, 6, 66, 127
1, 752619, Note_on_c, 4, 64, 127
1, 752788, Note_off_c, 7, 43, 127
1, 752791, Note_on_c, 12, 47, 127
1, 752960, Note_off_c, 12, 47, 127
1, 752960, Note_off_c, 12, 59, 127
1, 752964, Note_on_c, 7, 55, 127
1, 752964, Note_on_c, 4, 40, 127
1, 753104, Note_off_c, 4, 64, 127
1, 753137, Note_on_c, 7, 67, 127
1, 753306, Note_off_c, 7, 67, 127
1, 753309, Note_on_c, 11, 58, 127
1, 753478, Note_off_c, 4, 40, 127
1, 753481, Note_on_c, 1, 37, 127
1, 753650, Note_off_c, 1, 37, 127
1, 753650, Note_off_c, 7, 55, 127
1, 753654, Note_on_c, 6, 54, 127
1, 753654, Note_on_c, 3, 39, 127
1, 753794, Note_off_c, 11, 58, 127
1, 753827, Note_on_c, 0, 60, 127
1, 753996, Note_off_c, 0, 60, 127
1, 753999, Note_on_c, 12, 59, 127
1, 754168, Note_off_c, 3, 39, 127
1, 754171, Note_on_c, 6, 42, 127
1, 754340, Note_off_c, 6, 42, 127
1, 754343, Note_on_c, 10, 45, 127
1, 754484, Note_off_c, 12, 59, 127
1, 754517, Note_on_c, 3, 63, 127
1, 754686, Note_off_c, 3, 63, 127
1, 754689, Note_on_c, 4, 64, 127
1, 754857, Note_off_c, 10, 45, 127
1, 754861, Note_on_c, 6, 42, 127
1, 755030, Note_off_c, 6, 42, 127
1, 755030, Note_off_c, 6, 54, 127
1, 755033, Note_on_c, 12, 59, 127
1, 755033, Note_on_c, 7, 43, 127
1, 755202, Note_off_c, 7, 43, 127
1, 755205, Note_on_c, 4, 52, 127
1, 755374, Note_off_c, 4, 52, 127
1, 755374, Note_off_c, 12, 59, 127
1, 755374, Note_off_c, 4, 64, 127
1, 755378, Note_on_c, 7, 67, 127
1, 755378, Note_on_c, 0, 60, 127
1, 755378, Note_on_c, 10, 45, 127
1, 755460, Note_off_c, 7, 67, 127
1, 755464, Note_on_c, 6, 66, 127
1, 755546, Note_off_c, 6, 66, 127
1, 755547, Note_off_c, 10, 45, 127
1, 755550, Note_on_c, 7, 67, 127
1, 755550, Note_on_c, 4, 52, 127
1, 755632, Note_off_c, 7, 67, 127
1, 755636, Note_on_c, 6, 66, 127
1, 755718, Note_off_c, 6, 66, 127
1, 755719, Note_off_c, 4, 52, 127
1, 755719, Note_off_c, 0, 60, 127
1, 755722, Note_on_c, 7, 67, 127
1, 755722, Note_on_c, 12, 59, 127
1, 755722, Note_on_c, 12, 47, 127
1, 755804, Note_off_c, 7, 67, 127
1, 755808, Note_on_c, 6, 66, 127
1, 755890, Note_off_c, 6, 66, 127
1, 755891, Note_off_c, 12, 47, 127
1, 755894, Note_on_c, 4, 64, 127
1, 755894, Note_on_c, 3, 51, 127
1, 755976, Note_off_c, 4, 64, 127
1, 755980, Note_on_c, 6, 66, 127
1, 756062, Note_off_c, 6, 66, 127
1, 756063, Note_off_c, 3, 51, 127
1, 756066, Note_on_c, 7, 67, 127
1, 756066, Note_on_c, 4, 52, 127
1, 756235, Note_off_c, 7, 67, 127
1, 756239, Note_on_c, 4, 64, 127
1, 756408, Note_off_c, 4, 64, 127
1, 756411, Note_on_c, 4, 76, 127
1, 756579, Note_off_c, 4, 52, 127
1, 756579, Note_off_c, 12, 59, 127
1, 756583, Note_on_c, 12, 71, 127
1, 756583, Note_on_c, 7, 55, 127
1, 756752, Note_off_c, 7, 55, 127
1, 756752, Note_off_c, 12, 71, 127
1, 756755, Note_on_c, 10, 69, 127
1, 756755, Note_on_c, 6, 54, 127
1, 756924, Note_off_c, 4, 76, 127
1, 756927, Note_on_c, 1, 73, 127
1, 757096, Note_off_c, 1, 73, 127
1, 757100, Note_on_c, 2, 74, 127
1, 757268, Note_off_c, 6, 54, 127
1, 757268, Note_off_c, 10, 69, 127
1, 757272, Note_on_c, 6, 66, 127
1, 757272, Note_on_c, 12, 59, 127
1, 757441, Note_off_c, 12, 59, 127
1, 757441, Note_off_c, 6, 66, 127
1, 757444, Note_on_c, 8, 68, 127
1, 757444, Note_on_c, 4, 52, 127
1, 757613, Note_off_c, 2, 74, 127
1, 757616, Note_on_c, 1, 73, 127
1, 757698, Note_off_c, 1, 73, 127
1, 757702, Note_on_c, 12, 71, 127
1, 757784, Note_off_c, 12, 71, 127
1, 757785, Note_off_c, 8, 68, 127
1, 757788, Note_on_c, 1, 73, 127
1, 757870, Note_off_c, 1, 73, 127
1, 757875, Note_on_c, 12, 71, 127
1, 757957, Note_off_c, 12, 71, 127
1, 757957, Note_off_c, 4, 52, 127
1, 757961, Note_on_c, 10, 69, 127
1, 757961, Note_on_c, 10, 57, 127
1, 758130, Note_off_c, 10, 57, 127
1, 758130, Note_off_c, 10, 69, 127
1, 758133, Note_on_c, 10, 81, 127
1, 758133, Note_on_c, 1, 49, 127
1, 758215, Note_off_c, 10, 81, 127
1, 758219, Note_on_c, 7, 79, 127
1, 758301, Note_off_c, 7, 79, 127
1, 758302, Note_off_c, 1, 49, 127
1, 758305, Note_on_c, 6, 78, 127
1, 758305, Note_on_c, 4, 52, 127
1, 758474, Note_off_c, 4, 52, 127
1, 758474, Note_off_c, 6, 78, 127
1, 758477, Note_on_c, 7, 79, 127
1, 758477, Note_on_c, 10, 45, 127
1, 758559, Note_off_c, 7, 79, 127
1, 758563, Note_on_c, 6, 78, 127
1, 758645, Note_off_c, 6, 78, 127
1, 758646, Note_off_c, 10, 45, 127
1, 758649, Note_on_c, 4, 76, 127
1, 758649, Note_on_c, 1, 49, 127
1, 758818, Note_off_c, 1, 49, 127
1, 758818, Note_off_c, 4, 76, 127
1, 758822, Note_on_c, 6, 78, 127
1, 758822, Note_on_c, 2, 50, 127
1, 758991, Note_off_c, 6, 78, 127
1, 758994, Note_on_c, 10, 69, 127
1, 759163, Note_off_c, 10, 69, 127
1, 759166, Note_on_c, 2, 74, 127
1, 759335, Note_off_c, 2, 50, 127
1, 759338, Note_on_c, 10, 69, 127
1, 759338, Note_on_c, 6, 54, 127
1, 759507, Note_off_c, 6, 54, 127
1, 759507, Note_off_c, 10, 69, 127
1, 759510, Note_on_c, 7, 67, 127
1, 759510, Note_on_c, 4, 52, 127
1, 759679, Note_off_c, 2, 74, 127
1, 759683, Note_on_c, 12, 71, 127
1, 759852, Note_off_c, 12, 71, 127
1, 759855, Note_on_c, 0, 72, 127
1, 760023, Note_off_c, 4, 52, 127
1, 760023, Note_off_c, 7, 67, 127
1, 760027, Note_on_c, 4, 64, 127
1, 760027, Note_on_c, 10, 57, 127
1, 760196, Note_off_c, 10, 57, 127
1, 760196, Note_off_c, 4, 64, 127
1, 760199, Note_on_c, 6, 66, 127
1, 760199, Note_on_c, 2, 50, 127
1, 760282, Note_off_c, 0, 72, 127
1, 760285, Note_on_c, 12, 71, 127
1, 760367, Note_off_c, 12, 71, 127
1, 760371, Note_on_c, 10, 69, 127
1, 760540, Note_off_c, 10, 69, 127
1, 760540, Note_off_c, 6, 66, 127
1, 760544, Note_on_c, 12, 71, 127
1, 760626, Note_off_c, 12, 71, 127
1, 760630, Note_on_c, 10, 69, 127
1, 760712, Note_off_c, 10, 69, 127
1, 760712, Note_off_c, 2, 50, 127
1, 760716, Note_on_c, 7, 67, 127
1, 760716, Note_on_c, 7, 55, 127
1, 760885, Note_off_c, 7, 55, 127
1, 760885, Note_off_c, 7, 67, 127
1, 760888, Note_on_c, 7, 79, 127
1, 760888, Note_on_c, 12, 47, 127
1, 760970, Note_off_c, 7, 79, 127
1, 760974, Note_on_c, 5, 77, 127
1, 761056, Note_off_c, 5, 77, 127
1, 761057, Note_off_c, 12, 47, 127
1, 761060, Note_on_c, 4, 76, 127
1, 761060, Note_on_c, 2, 50, 127
1, 761229, Note_off_c, 2, 50, 127
1, 761229, Note_off_c, 4, 76, 127
1, 761232, Note_on_c, 5, 77, 127
1, 761232, Note_on_c, 7, 43, 127
1, 761314, Note_off_c, 5, 77, 127
1, 761319, Note_on_c, 4, 76, 127
1, 761401, Note_off_c, 4, 76, 127
1, 761401, Note_off_c, 7, 43, 127
1, 761405, Note_on_c, 2, 74, 127
1, 761405, Note_on_c, 12, 47, 127
1, 761574, Note_off_c, 12, 47, 127
1, 761574, Note_off_c, 2, 74, 127
1, 761577, Note_on_c, 4, 76, 127
1, 761577, Note_on_c, 0, 48, 127
1, 761746, Note_off_c, 0, 48, 127
1, 761749, Note_on_c, 7, 67, 127
1, 761749, Note_on_c, 4, 52, 127
1, 761918, Note_off_c, 4, 52, 127
1, 761918, Note_off_c, 7, 67, 127
1, 761921, Note_on_c, 0, 72, 127
1, 761921, Note_on_c, 10, 57, 127
1, 762090, Note_off_c, 4, 76, 127
1, 762093, Note_on_c, 4, 76, 127
1, 762262, Note_off_c, 4, 76, 127
1, 762262, Note_off_c, 10, 57, 127
1, 762266, Note_on_c, 5, 77, 127
1, 762266, Note_on_c, 2, 50, 127
1, 762434, Note_off_c, 0, 72, 127
1, 762438, Note_on_c, 10, 69, 127
1, 762607, Note_off_c, 10, 69, 127
1, 762607, Note_off_c, 2, 50, 127
1, 762610, Note_on_c, 12, 71, 127
1, 762610, Note_on_c, 7, 55, 127
1, 762779, Note_off_c, 5, 77, 127
1, 762782, Note_on_c, 2, 74, 127
1, 762951, Note_off_c, 2, 74, 127
1, 762951, Note_off_c, 7, 55, 127
1, 762954, Note_on_c, 4, 76, 127
1, 762954, Note_on_c, 0, 48, 127
1, 763123, Note_off_c, 12, 71, 127
1, 763127, Note_on_c, 8, 68, 127
1, 763295, Note_off_c, 0, 48, 127
1, 763296, Note_off_c, 8, 68, 127
1, 763299, Note_on_c, 10, 69, 127
1, 763299, Note_on_c, 5, 53, 127
1, 763467, Note_off_c, 4, 76, 127
1, 763471, Note_on_c, 0, 72, 127
1, 763640, Note_off_c, 0, 72, 127
1, 763640, Note_off_c, 5, 53, 127
1, 763643, Note_on_c, 2, 74, 127
1, 763643, Note_on_c, 12, 47, 127
1, 763812, Note_off_c, 10, 69, 127
1, 763815, Note_on_c, 6, 66, 127
1, 763984, Note_off_c, 6, 66, 127
1, 763984, Note_off_c, 12, 47, 127
1, 763988, Note_on_c, 7, 67, 127
1, 763988, Note_on_c, 4, 52, 127
1, 764156, Note_off_c, 2, 74, 127
1, 764160, Note_on_c, 12, 71, 127
1, 764329, Note_off_c, 12, 71, 127
1, 764329, Note_off_c, 4, 52, 127
1, 764332, Note_on_c, 0, 72, 127
1, 764332, Note_on_c, 10, 45, 127
1, 764501, Note_off_c, 7, 67, 127
1, 764504, Note_on_c, 4, 64, 127
1, 764673, Note_off_c, 4, 64, 127
1, 764673, Note_off_c, 10, 45, 127
1, 764676, Note_on_c, 5, 65, 127
1, 764676, Note_on_c, 2, 50, 127
1, 764845, Note_off_c, 0, 72, 127
1, 764849, Note_on_c, 10, 69, 127
1, 765018, Note_off_c, 10, 69, 127
1, 765021, Note_on_c, 12, 71, 127
1, 765189, Note_off_c, 2, 50, 127
1, 765189, Note_off_c, 5, 65, 127
1, 765193, Note_on_c, 2, 62, 127
1, 765193, Note_on_c, 8, 44, 127
1, 765362, Note_off_c, 8, 44, 127
1, 765362, Note_off_c, 2, 62, 127
1, 765365, Note_on_c, 4, 64, 127
1, 765365, Note_on_c, 0, 48, 127
1, 765534, Note_off_c, 12, 71, 127
1, 765537, Note_on_c, 8, 68, 127
1, 765706, Note_off_c, 8, 68, 127
1, 765710, Note_on_c, 10, 69, 127
1, 765878, Note_off_c, 0, 48, 127
1, 765882, Note_on_c, 12, 47, 127
1, 765964, Note_off_c, 12, 47, 127
1, 765968, Note_on_c, 10, 45, 127
1, 766050, Note_off_c, 10, 45, 127
1, 766050, Note_off_c, 4, 64, 127
1, 766054, Note_on_c, 2, 62, 127
1, 766054, Note_on_c, 5, 53, 127
1, 766223, Note_off_c, 2, 62, 127
1, 766223, Note_off_c, 10, 69, 127
1, 766226, Note_on_c, 12, 71, 127
1, 766226, Note_on_c, 8, 68, 127
1, 766395, Note_off_c, 8, 68, 127
1, 766395, Note_off_c, 12, 71, 127
1, 766398, Note_on_c, 0, 72, 127
1, 766398, Note_on_c, 10, 69, 127
1, 766567, Note_off_c, 5, 53, 127
1, 766571, Note_on_c, 4, 52, 127
1, 766653, Note_off_c, 4, 52, 127
1, 766657, Note_on_c, 3, 51, 127
1, 766739, Note_off_c, 3, 51, 127
1, 766739, Note_off_c, 0, 72, 127
1, 766743, Note_on_c, 1, 73, 127
1, 766743, Note_on_c, 10, 57, 127
1, 766911, Note_off_c, 10, 69, 127
1, 766915, Note_on_c, 7, 67, 127
1, 767084, Note_off_c, 7, 67, 127
1, 767084, Note_off_c, 1, 73, 127
1, 767087, Note_on_c, 3, 75, 127
1, 767087, Note_on_c, 6, 66, 127
1, 767170, Note_off_c, 10, 57, 127
1, 767173, Note_on_c, 7, 55, 127
1, 767255, Note_off_c, 7, 55, 127
1, 767259, Note_on_c, 6, 54, 127
1, 767428, Note_off_c, 6, 54, 127
1, 767428, Note_off_c, 6, 66, 127
1, 767428, Note_off_c, 3, 75, 127
1, 767432, Note_on_c, 4, 76, 127
1, 767432, Note_on_c, 12, 71, 127
1, 767432, Note_on_c, 7, 55, 127
1, 767601, Note_off_c, 7, 55, 127
1, 767604, Note_on_c, 6, 54, 127
1, 767686, Note_off_c, 6, 54, 127
1, 767690, Note_on_c, 4, 52, 127
1, 767772, Note_off_c, 4, 52, 127
1, 767773, Note_off_c, 4, 76, 127
1, 767776, Note_on_c, 3, 75, 127
1, 767776, Note_on_c, 6, 54, 127
1, 767945, Note_off_c, 6, 54, 127
1, 767948, Note_on_c, 7, 55, 127
1, 768030, Note_off_c, 7, 55, 127
1, 768034, Note_on_c, 10, 57, 127
1, 768116, Note_off_c, 10, 57, 127
1, 768117, Note_off_c, 3, 75, 127
1, 768117, Note_off_c, 12, 71, 127
1, 768120, Note_on_c, 4, 76, 127
1, 768120, Note_on_c, 1, 73, 127
1, 768120, Note_on_c, 7, 55, 127
1, 768289, Note_off_c, 7, 55, 127
1, 768293, Note_on_c, 6, 54, 127
1, 768375, Note_off_c, 6, 54, 127
1, 768379, Note_on_c, 4, 52, 127
1, 768461, Note_off_c, 4, 52, 127
1, 768461, Note_off_c, 1, 73, 127
1, 768461, Note_off_c, 4, 76, 127
1, 768465, Note_on_c, 6, 78, 127
1, 768465, Note_on_c, 3, 75, 127
1, 768465, Note_on_c, 12, 59, 127
1, 768634, Note_off_c, 3, 75, 127
1, 768637, Note_on_c, 12, 71, 127
1, 768806, Note_off_c, 12, 71, 127
1, 768809, Note_on_c, 10, 69, 127
1, 768978, Note_off_c, 10, 69, 127
1, 768978, Note_off_c, 6, 78, 127
1, 768981, Note_on_c, 12, 83, 127
1, 768981, Note_on_c, 7, 67, 127
1, 769150, Note_off_c, 7, 67, 127
1, 769150, Note_off_c, 12, 83, 127
1, 769154, Note_on_c, 10, 81, 127
1, 769154, Note_on_c, 6, 66, 127
1, 769323, Note_off_c, 6, 66, 127
1, 769326, Note_on_c, 10, 69, 127
1, 769495, Note_off_c, 10, 69, 127
1, 769498, Note_on_c, 0, 72, 127
1, 769647, Note_off_c, 10, 81, 127
1, 769670, Note_on_c, 0, 84, 127
1, 769839, Note_off_c, 0, 84, 127
1, 769842, Note_on_c, 3, 75, 127
1, 770011, Note_off_c, 0, 72, 127
1, 770015, Note_on_c, 0, 72, 127
1, 770184, Note_off_c, 0, 72, 127
1, 770187, Note_on_c, 12, 71, 127
1, 770335, Note_off_c, 3, 75, 127
1, 770356, Note_off_c, 12, 71, 127
1, 770359, Note_on_c, 6, 78, 127
1, 770359, Note_on_c, 10, 69, 127
1, 770528, Note_off_c, 10, 69, 127
1, 770528, Note_off_c, 6, 78, 127
1, 770531, Note_on_c, 4, 76, 127
1, 770531, Note_on_c, 7, 67, 127
1, 770700, Note_off_c, 7, 67, 127
1, 770703, Note_on_c, 12, 71, 127
1, 770872, Note_off_c, 12, 71, 127
1, 770876, Note_on_c, 4, 64, 127
1, 771024, Note_off_c, 4, 76, 127
1, 771048, Note_on_c, 7, 79, 127
1, 771217, Note_off_c, 7, 79, 127
1, 771220, Note_on_c, 11, 70, 127
1, 771389, Note_off_c, 4, 64, 127
1, 771392, Note_on_c, 7, 67, 127
1, 771561, Note_off_c, 7, 67, 127
1, 771564, Note_on_c, 6, 66, 127
1, 771713, Note_off_c, 11, 70, 127
1, 771733, Note_off_c, 6, 66, 127
1, 771737, Note_on_c, 0, 72, 127
1, 771737, Note_on_c, 4, 64, 127
1, 771906, Note_off_c, 4, 64, 127
1, 771906, Note_off_c, 0, 72, 127
1, 771909, Note_on_c, 12, 71, 127
1, 771909, Note_on_c, 3, 63, 127
1, 772078, Note_off_c, 3, 63, 127
1, 772081, Note_on_c, 6, 66, 127
1, 772250, Note_off_c, 6, 66, 127
1, 772253, Note_on_c, 10, 69, 127
1, 772402, Note_off_c, 12, 71, 127
1, 772425, Note_on_c, 3, 75, 127
1, 772591, Note_off_c, 12, 59, 127
1, 772594, Note_off_c, 3, 75, 127
1, 772598, Note_on_c, 4, 76, 127
1, 772766, Note_off_c, 10, 69, 127
1, 772770, Note_on_c, 6, 66, 127
1, 772939, Note_off_c, 6, 66, 127
1, 772942, Note_on_c, 7, 67, 127
1, 773100, Note_off_c, 4, 76, 127
1, 773111, Note_off_c, 7, 67, 127
1, 773114, Note_on_c, 4, 76, 127
1, 773283, Note_off_c, 4, 76, 127
1, 773286, Note_on_c, 7, 79, 127
1, 773286, Note_on_c, 10, 69, 127
1, 773368, Note_off_c, 7, 79, 127
1, 773373, Note_on_c, 6, 78, 127
1, 773455, Note_off_c, 6, 78, 127
1, 773455, Note_off_c, 10, 69, 127
1, 773459, Note_on_c, 7, 79, 127
1, 773459, Note_on_c, 4, 76, 127
1, 773541, Note_off_c, 7, 79, 127
1, 773545, Note_on_c, 6, 78, 127
1, 773627, Note_off_c, 6, 78, 127
1, 773628, Note_off_c, 4, 76, 127
1, 773631, Note_on_c, 7, 79, 127
1, 773631, Note_on_c, 12, 71, 127
1, 773713, Note_off_c, 7, 79, 127
1, 773717, Note_on_c, 6, 78, 127
1, 773799, Note_off_c, 6, 78, 127
1, 773800, Note_off_c, 12, 71, 127
1, 773803, Note_on_c, 4, 76, 127
1, 773803, Note_on_c, 3, 75, 127
1, 773885, Note_off_c, 4, 76, 127
1, 773889, Note_on_c, 6, 78, 127
1, 773971, Note_off_c, 6, 78, 127
1, 773972, Note_off_c, 3, 75, 127
1, 773975, Note_on_c, 7, 79, 127
1, 773975, Note_on_c, 4, 64, 127
1, 774144, Note_off_c, 4, 64, 127
1, 774147, Note_on_c, 4, 76, 127
1, 774316, Note_off_c, 4, 76, 127
1, 774320, Note_on_c, 2, 74, 127
1, 774477, Note_off_c, 7, 79, 127
1, 774489, Note_off_c, 2, 74, 127
1, 774492, Note_on_c, 0, 72, 127
1, 774492, Note_on_c, 4, 64, 127
1, 774661, Note_off_c, 4, 64, 127
1, 774661, Note_off_c, 0, 72, 127
1, 774664, Note_on_c, 12, 71, 127
1, 774664, Note_on_c, 2, 62, 127
1, 774837, Note_on_c, 2, 74, 127
1, 775006, Note_off_c, 2, 74, 127
1, 775009, Note_on_c, 5, 77, 127
1, 775178, Note_off_c, 2, 62, 127
1, 775182, Note_on_c, 5, 65, 127
1, 775351, Note_off_c, 5, 65, 127
1, 775354, Note_on_c, 8, 56, 127
1, 775522, Note_off_c, 5, 77, 127
1, 775526, Note_on_c, 5, 77, 127
1, 775695, Note_off_c, 5, 77, 127
1, 775698, Note_on_c, 4, 76, 127
1, 775867, Note_off_c, 4, 76, 127
1, 775867, Note_off_c, 8, 56, 127
1, 775870, Note_on_c, 2, 74, 127
1, 775870, Note_on_c, 12, 59, 127
1, 776039, Note_off_c, 12, 59, 127
1, 776039, Note_off_c, 2, 74, 127
1, 776043, Note_on_c, 0, 72, 127
1, 776043, Note_on_c, 10, 57, 127
1, 776211, Note_off_c, 12, 71, 127
1, 776215, Note_on_c, 4, 64, 127
1, 776384, Note_off_c, 4, 64, 127
1, 776387, Note_on_c, 10, 69, 127
1, 776556, Note_off_c, 10, 57, 127
1, 776559, Note_on_c, 0, 60, 127
1, 776728, Note_off_c, 0, 60, 127
1, 776731, Note_on_c, 3, 51, 127
1, 776900, Note_off_c, 0, 72, 127
1, 776904, Note_on_c, 0, 72, 127
1, 777073, Note_off_c, 0, 72, 127
1, 777076, Note_on_c, 12, 71, 127
1, 777237, Note_off_c, 10, 69, 127
1, 777244, Note_off_c, 3, 51, 127
1, 777245, Note_off_c, 12, 71, 127
1, 777248, Note_on_c, 10, 69, 127
1, 777248, Note_on_c, 5, 53, 127
1, 777417, Note_off_c, 5, 53, 127
1, 777417, Note_off_c, 10, 69, 127
1, 777420, Note_on_c, 8, 68, 127
1, 777420, Note_on_c, 4, 52, 127
1, 777589, Note_off_c, 8, 68, 127
1, 777592, Note_on_c, 12, 71, 127
1, 777761, Note_off_c, 12, 71, 127
1, 777765, Note_on_c, 2, 74, 127
1, 777933, Note_off_c, 4, 52, 127
1, 777937, Note_on_c, 5, 65, 127
1, 777937, Note_on_c, 8, 56, 127
1, 778106, Note_off_c, 8, 56, 127
1, 778106, Note_off_c, 5, 65, 127
1, 778109, Note_on_c, 4, 64, 127
1, 778109, Note_on_c, 10, 57, 127
1, 778278, Note_off_c, 2, 74, 127
1, 778281, Note_on_c, 12, 71, 127
1, 778450, Note_off_c, 12, 71, 127
1, 778450, Note_off_c, 4, 64, 127
1, 778453, Note_on_c, 0, 72, 127
1, 778453, Note_on_c, 10, 69, 127
1, 778622, Note_off_c, 0, 72, 127
1, 778626, Note_on_c, 10, 81, 127
1, 778794, Note_off_c, 10, 69, 127
1, 778794, Note_off_c, 10, 57, 127
1, 778795, Note_off_c, 10, 81, 127
1, 778798, Note_on_c, 2, 74, 127
1, 778798, Note_on_c, 5, 65, 127
1, 778798, Note_on_c, 12, 59, 127
1, 778967, Note_off_c, 2, 74, 127
1, 778970, Note_on_c, 10, 81, 127
1, 779139, Note_off_c, 10, 81, 127
1, 779139, Note_off_c, 5, 65, 127
1, 779142, Note_on_c, 12, 71, 127
1, 779142, Note_on_c, 2, 62, 127
1, 779311, Note_off_c, 12, 71, 127
1, 779314, Note_on_c, 8, 80, 127
1, 779483, Note_off_c, 8, 80, 127
1, 779483, Note_off_c, 2, 62, 127
1, 779483, Note_off_c, 12, 59, 127
1, 779487, Note_on_c, 10, 81, 127
1, 779487, Note_on_c, 4, 64, 127
1, 779487, Note_on_c, 0, 60, 127
1, 779656, Note_off_c, 10, 81, 127
1, 779659, Note_on_c, 3, 75, 127
1, 779828, Note_off_c, 3, 75, 127
1, 779831, Note_on_c, 4, 76, 127
1, 780000, Note_off_c, 0, 60, 127
1, 780000, Note_off_c, 4, 64, 127
1, 780003, Note_on_c, 0, 72, 127
1, 780003, Note_on_c, 4, 64, 127
1, 780172, Note_off_c, 4, 64, 127
1, 780172, Note_off_c, 0, 72, 127
1, 780175, Note_on_c, 6, 66, 127
1, 780175, Note_on_c, 10, 57, 127
1, 780344, Note_off_c, 4, 76, 127
1, 780348, Note_on_c, 3, 75, 127
1, 780517, Note_off_c, 3, 75, 127
1, 780520, Note_on_c, 4, 76, 127
1, 780688, Note_off_c, 10, 57, 127
1, 780688, Note_off_c, 6, 66, 127
1, 780692, Note_on_c, 7, 67, 127
1, 780692, Note_on_c, 0, 60, 127
1, 780861, Note_off_c, 0, 60, 127
1, 780861, Note_off_c, 7, 67, 127
1, 780864, Note_on_c, 10, 69, 127
1, 780864, Note_on_c, 6, 54, 127
1, 780947, Note_off_c, 4, 76, 127
1, 780950, Note_on_c, 3, 75, 127
1, 781032, Note_off_c, 3, 75, 127
1, 781036, Note_on_c, 1, 73, 127
1, 781205, Note_off_c, 1, 73, 127
1, 781205, Note_off_c, 10, 69, 127
1, 781209, Note_on_c, 3, 75, 127
1, 781291, Note_off_c, 3, 75, 127
1, 781295, Note_on_c, 1, 73, 127
1, 781377, Note_off_c, 1, 73, 127
1, 781377, Note_off_c, 6, 54, 127
1, 781381, Note_on_c, 12, 71, 127
1, 781381, Note_on_c, 10, 57, 127
1, 781550, Note_off_c, 10, 57, 127
1, 781550, Note_off_c, 12, 71, 127
1, 781553, Note_on_c, 12, 83, 127
1, 781553, Note_on_c, 3, 51, 127
1, 781635, Note_off_c, 12, 83, 127
1, 781639, Note_on_c, 10, 81, 127
1, 781721, Note_off_c, 10, 81, 127
1, 781722, Note_off_c, 3, 51, 127
1, 781725, Note_on_c, 7, 79, 127
1, 781725, Note_on_c, 6, 54, 127
1, 781894, Note_off_c, 6, 54, 127
1, 781894, Note_off_c, 7, 79, 127
1, 781897, Note_on_c, 10, 81, 127
1, 781897, Note_on_c, 12, 47, 127
1, 781979, Note_off_c, 10, 81, 127
1, 781984, Note_on_c, 7, 79, 127
1, 782066, Note_off_c, 7, 79, 127
1, 782066, Note_off_c, 12, 47, 127
1, 782070, Note_on_c, 6, 78, 127
1, 782070, Note_on_c, 3, 51, 127
1, 782239, Note_off_c, 3, 51, 127
1, 782239, Note_off_c, 6, 78, 127
1, 782242, Note_on_c, 7, 79, 127
1, 782242, Note_on_c, 4, 52, 127
1, 782415, Note_on_c, 11, 70, 127
1, 782584, Note_off_c, 11, 70, 127
1, 782587, Note_on_c, 12, 71, 127
1, 782756, Note_off_c, 4, 52, 127
1, 782756, Note_off_c, 7, 79, 127
1, 782760, Note_on_c, 7, 79, 127
1, 782760, Note_on_c, 4, 40, 127
1, 782929, Note_off_c, 4, 40, 127
1, 782929, Note_off_c, 7, 79, 127
1, 782932, Note_on_c, 1, 73, 127
1, 782932, Note_on_c, 4, 52, 127
1, 783100, Note_off_c, 12, 71, 127
1, 783104, Note_on_c, 11, 70, 127
1, 783273, Note_off_c, 11, 70, 127
1, 783276, Note_on_c, 12, 71, 127
1, 783445, Note_off_c, 4, 52, 127
1, 783445, Note_off_c, 1, 73, 127
1, 783448, Note_on_c, 2, 74, 127
1, 783448, Note_on_c, 7, 55, 127
1, 783617, Note_off_c, 7, 55, 127
1, 783617, Note_off_c, 2, 74, 127
1, 783621, Note_on_c, 4, 76, 127
1, 783621, Note_on_c, 1, 49, 127
1, 783703, Note_off_c, 12, 71, 127
1, 783707, Note_on_c, 11, 70, 127
1, 783789, Note_off_c, 11, 70, 127
1, 783793, Note_on_c, 8, 68, 127
1, 783962, Note_off_c, 8, 68, 127
1, 783962, Note_off_c, 4, 76, 127
1, 783965, Note_on_c, 11, 70, 127
1, 784047, Note_off_c, 11, 70, 127
1, 784051, Note_on_c, 8, 68, 127
1, 784133, Note_off_c, 8, 68, 127
1, 784134, Note_off_c, 1, 49, 127
1, 784137, Note_on_c, 6, 66, 127
1, 784137, Note_on_c, 4, 52, 127
1, 784306, Note_off_c, 4, 52, 127
1, 784306, Note_off_c, 6, 66, 127
1, 784309, Note_on_c, 6, 78, 127
1, 784309, Note_on_c, 11, 46, 127
1, 784391, Note_off_c, 6, 78, 127
1, 784395, Note_on_c, 4, 76, 127
1, 784477, Note_off_c, 4, 76, 127
1, 784478, Note_off_c, 11, 46, 127
1, 784482, Note_on_c, 3, 75, 127
1, 784482, Note_on_c, 1, 49, 127
1, 784651, Note_off_c, 1, 49, 127
1, 784651, Note_off_c, 3, 75, 127
1, 784654, Note_on_c, 4, 76, 127
1, 784654, Note_on_c, 6, 42, 127
1, 784736, Note_off_c, 4, 76, 127
1, 784740, Note_on_c, 3, 75, 127
1, 784822, Note_off_c, 3, 75, 127
1, 784823, Note_off_c, 6, 42, 127
1, 784826, Note_on_c, 1, 73, 127
1, 784826, Note_on_c, 11, 46, 127
1, 784995, Note_off_c, 11, 46, 127
1, 784995, Note_off_c, 1, 73, 127
1, 784998, Note_on_c, 3, 75, 127
1, 784998, Note_on_c, 12, 47, 127
1, 785167, Note_off_c, 12, 47, 127
1, 785167, Note_off_c, 3, 75, 127
1, 785170, Note_on_c, 12, 71, 127
1, 785170, Note_on_c, 1, 49, 127
1, 785252, Note_off_c, 1, 49, 127
1, 785256, Note_on_c, 3, 51, 127
1, 785338, Note_off_c, 3, 51, 127
1, 785339, Note_off_c, 12, 71, 127
1, 785343, Note_on_c, 7, 79, 127
1, 785343, Note_on_c, 4, 52, 127
1, 785425, Note_off_c, 4, 52, 127
1, 785429, Note_on_c, 6, 54, 127
1, 785511, Note_off_c, 6, 54, 127
1, 785515, Note_on_c, 4, 76, 127
1, 785515, Note_on_c, 7, 55, 127
1, 785684, Note_off_c, 7, 55, 127
1, 785684, Note_off_c, 4, 76, 127
1, 785687, Note_on_c, 0, 84, 127
1, 785687, Note_on_c, 10, 45, 127
1, 785856, Note_off_c, 10, 45, 127
1, 785856, Note_off_c, 7, 79, 127
1, 785859, Note_on_c, 4, 76, 127
1, 785859, Note_on_c, 12, 47, 127
1, 785941, Note_off_c, 12, 47, 127
1, 785945, Note_on_c, 0, 48, 127
1, 786027, Note_off_c, 0, 48, 127
1, 786028, Note_off_c, 4, 76, 127
1, 786031, Note_on_c, 6, 78, 127
1, 786031, Note_on_c, 2, 50, 127
1, 786113, Note_off_c, 2, 50, 127
1, 786117, Note_on_c, 4, 52, 127
1, 786199, Note_off_c, 4, 52, 127
1, 786200, Note_off_c, 0, 84, 127
1, 786204, Note_on_c, 10, 81, 127
1, 786204, Note_on_c, 6, 54, 127
1, 786373, Note_off_c, 6, 54, 127
1, 786373, Note_off_c, 10, 81, 127
1, 786376, Note_on_c, 12, 83, 127
1, 786376, Note_on_c, 7, 43, 127
1, 786544, Note_off_c, 6, 78, 127
1, 786545, Note_off_c, 7, 43, 127
1, 786548, Note_on_c, 3, 75, 127
1, 786548, Note_on_c, 10, 45, 127
1, 786630, Note_off_c, 10, 45, 127
1, 786634, Note_on_c, 12, 47, 127
1, 786716, Note_off_c, 12, 47, 127
1, 786717, Note_off_c, 3, 75, 127
1, 786720, Note_on_c, 4, 76, 127
1, 786720, Note_on_c, 0, 48, 127
1, 786802, Note_off_c, 0, 48, 127
1, 786806, Note_on_c, 2, 50, 127
1, 786888, Note_off_c, 2, 50, 127
1, 786889, Note_off_c, 12, 83, 127
1, 786892, Note_on_c, 7, 79, 127
1, 786892, Note_on_c, 4, 52, 127
1, 787061, Note_off_c, 4, 52, 127
1, 787061, Note_off_c, 7, 79, 127
1, 787065, Note_on_c, 10, 81, 127
1, 787065, Note_on_c, 6, 42, 127
1, 787233, Note_off_c, 4, 76, 127
1, 787234, Note_off_c, 6, 42, 127
1, 787237, Note_on_c, 1, 73, 127
1, 787237, Note_on_c, 7, 43, 127
1, 787319, Note_off_c, 7, 43, 127
1, 787323, Note_on_c, 10, 45, 127
1, 787405, Note_off_c, 10, 45, 127
1, 787406, Note_off_c, 1, 73, 127
1, 787409, Note_on_c, 3, 75, 127
1, 787409, Note_on_c, 12, 47, 127
1, 787491, Note_off_c, 12, 47, 127
1, 787495, Note_on_c, 10, 45, 127
1, 787577, Note_off_c, 10, 45, 127
1, 787578, Note_off_c, 10, 81, 127
1, 787581, Note_on_c, 6, 78, 127
1, 787581, Note_on_c, 12, 47, 127
1, 787750, Note_off_c, 12, 47, 127
1, 787750, Note_off_c, 6, 78, 127
1, 787750, Note_off_c, 3, 75, 127
1, 787753, Note_on_c, 7, 79, 127
1, 787753, Note_on_c, 4, 76, 127
1, 787753, Note_on_c, 4, 40, 127
1, 787922, Note_off_c, 4, 76, 127
1, 787926, Note_on_c, 2, 74, 127
1, 788008, Note_off_c, 2, 74, 127
1, 788012, Note_on_c, 0, 72, 127
1, 788094, Note_off_c, 0, 72, 127
1, 788098, Note_on_c, 12, 71, 127
1, 788180, Note_off_c, 12, 71, 127
1, 788184, Note_on_c, 0, 72, 127
1, 788266, Note_off_c, 0, 72, 127
1, 788266, Note_off_c, 4, 40, 127
1, 788270, Note_on_c, 2, 74, 127
1, 788270, Note_on_c, 4, 52, 127
1, 788439, Note_off_c, 4, 52, 127
1, 788439, Note_off_c, 2, 74, 127
1, 788442, Note_on_c, 0, 72, 127
1, 788442, Note_on_c, 10, 45, 127
1, 788610, Note_off_c, 7, 79, 127
1, 788614, Note_on_c, 6, 78, 127
1, 788696, Note_off_c, 6, 78, 127
1, 788700, Note_on_c, 4, 76, 127
1, 788782, Note_off_c, 4, 76, 127
1, 788787, Note_on_c, 6, 78, 127
1, 788869, Note_off_c, 6, 78, 127
1, 788873, Note_on_c, 7, 79, 127
1, 788955, Note_off_c, 7, 79, 127
1, 788955, Note_off_c, 10, 45, 127
1, 788959, Note_on_c, 10, 81, 127
1, 788959, Note_on_c, 0, 48, 127
1, 789124, Note_off_c, 0, 72, 127
1, 789128, Note_off_c, 0, 48, 127
1, 789128, Note_off_c, 10, 81, 127
1, 789131, Note_on_c, 3, 75, 127
1, 789131, Note_on_c, 12, 47, 127
1, 789300, Note_off_c, 3, 75, 127
1, 789303, Note_on_c, 12, 83, 127
1, 789472, Note_off_c, 12, 83, 127
1, 789475, Note_on_c, 10, 81, 127
1, 789633, Note_off_c, 12, 47, 127
1, 789644, Note_off_c, 10, 81, 127
1, 789648, Note_on_c, 7, 79, 127
1, 789648, Note_on_c, 12, 71, 127
1, 789817, Note_off_c, 12, 71, 127
1, 789817, Note_off_c, 7, 79, 127
1, 789820, Note_on_c, 6, 78, 127
1, 789820, Note_on_c, 10, 69, 127
1, 789989, Note_off_c, 6, 78, 127
1, 789992, Note_on_c, 10, 81, 127
1, 790161, Note_off_c, 10, 81, 127
1, 790164, Note_on_c, 0, 84, 127
1, 790313, Note_off_c, 10, 69, 127
1, 790336, Note_on_c, 0, 72, 127
1, 790505, Note_off_c, 0, 72, 127
1, 790509, Note_on_c, 3, 63, 127
1, 790509, Note_on_c, 12, 59, 127
1, 790677, Note_off_c, 0, 84, 127
1, 790681, Note_on_c, 0, 72, 127
1, 790850, Note_off_c, 0, 72, 127
1, 790853, Note_on_c, 12, 71, 127
1, 791002, Note_off_c, 3, 63, 127
1, 791022, Note_off_c, 12, 71, 127
1, 791025, Note_on_c, 10, 69, 127
1, 791025, Note_on_c, 6, 66, 127
1, 791194, Note_off_c, 6, 66, 127
1, 791194, Note_off_c, 10, 69, 127
1, 791197, Note_on_c, 7, 67, 127
1, 791197, Note_on_c, 4, 64, 127
1, 791366, Note_off_c, 7, 67, 127
1, 791370, Note_on_c, 12, 71, 127
1, 791539, Note_off_c, 12, 71, 127
1, 791542, Note_on_c, 4, 76, 127
1, 791690, Note_off_c, 4, 64, 127
1, 791714, Note_on_c, 7, 67, 127
1, 791883, Note_off_c, 7, 67, 127
1, 791883, Note_off_c, 12, 59, 127
1, 791886, Note_on_c, 11, 58, 127
1, 791886, Note_on_c, 12, 47, 127
1, 792055, Note_off_c, 4, 76, 127
1, 792058, Note_on_c, 7, 67, 127
1, 792227, Note_off_c, 7, 67, 127
1, 792231, Note_on_c, 6, 66, 127
1, 792379, Note_off_c, 11, 58, 127
1, 792400, Note_off_c, 6, 66, 127
1, 792403, Note_on_c, 4, 64, 127
1, 792403, Note_on_c, 0, 60, 127
1, 792572, Note_off_c, 0, 60, 127
1, 792572, Note_off_c, 4, 64, 127
1, 792575, Note_on_c, 3, 63, 127
1, 792575, Note_on_c, 12, 59, 127
1, 792744, Note_off_c, 3, 63, 127
1, 792747, Note_on_c, 6, 66, 127
1, 792916, Note_off_c, 6, 66, 127
1, 792919, Note_on_c, 10, 69, 127
1, 793068, Note_off_c, 12, 59, 127
1, 793088, Note_off_c, 12, 47, 127
1, 793092, Note_on_c, 3, 63, 127
1, 793092, Note_on_c, 12, 59, 127
1, 793261, Note_off_c, 12, 59, 127
1, 793261, Note_off_c, 3, 63, 127
1, 793264, Note_on_c, 4, 64, 127
1, 793264, Note_on_c, 0, 60, 127
1, 793432, Note_off_c, 10, 69, 127
1, 793436, Note_on_c, 6, 66, 127
1, 793605, Note_off_c, 6, 66, 127
1, 793605, Note_off_c, 0, 60, 127
1, 793608, Note_on_c, 7, 67, 127
1, 793608, Note_on_c, 12, 59, 127
1, 793777, Note_off_c, 7, 67, 127
1, 793780, Note_on_c, 4, 76, 127
1, 793949, Note_off_c, 4, 76, 127
1, 793949, Note_off_c, 12, 59, 127
1, 793949, Note_off_c, 4, 64, 127
1, 793953, Note_on_c, 10, 69, 127
1, 793953, Note_on_c, 6, 66, 127
1, 793953, Note_on_c, 10, 57, 127
1, 794122, Note_off_c, 10, 69, 127
1, 794125, Note_on_c, 4, 76, 127
1, 794294, Note_off_c, 4, 76, 127
1, 794294, Note_off_c, 10, 57, 127
1, 794297, Note_on_c, 10, 69, 127
1, 794297, Note_on_c, 12, 59, 127
1, 794466, Note_off_c, 10, 69, 127
1, 794469, Note_on_c, 3, 75, 127
1, 794638, Note_off_c, 3, 75, 127
1, 794638, Note_off_c, 12, 59, 127
1, 794638, Note_off_c, 6, 66, 127
1, 794641, Note_on_c, 4, 76, 127
1, 794641, Note_on_c, 7, 67, 127
1, 794641, Note_on_c, 4, 52, 127
1, 794810, Note_off_c, 4, 76, 127
1, 794814, Note_on_c, 0, 72, 127
1, 794983, Note_off_c, 0, 72, 127
1, 794986, Note_on_c, 12, 71, 127
1, 795143, Note_off_c, 7, 67, 127
1, 795155, Note_off_c, 12, 71, 127
1, 795158, Note_on_c, 10, 69, 127
1, 795327, Note_off_c, 10, 69, 127
1, 795330, Note_on_c, 7, 67, 127
1, 795498, Note_off_c, 4, 52, 127
1, 795499, Note_off_c, 7, 67, 127
1, 795502, Note_on_c, 12, 71, 127
1, 795502, Note_on_c, 2, 50, 127
1, 795671, Note_off_c, 2, 50, 127
1, 795675, Note_on_c, 4, 64, 127
1, 795675, Note_on_c, 1, 49, 127
1, 795844, Note_off_c, 1, 49, 127
1, 795847, Note_on_c, 12, 47, 127
1, 796016, Note_off_c, 12, 47, 127
1, 796019, Note_on_c, 10, 45, 127
1, 796192, Note_on_c, 1, 61, 127
1, 796360, Note_off_c, 12, 71, 127
1, 796364, Note_on_c, 11, 70, 127
1, 796533, Note_off_c, 10, 45, 127
1, 796537, Note_on_c, 7, 43, 127
1, 796706, Note_off_c, 7, 43, 127
1, 796709, Note_on_c, 7, 43, 127
1, 796820, Note_off_c, 7, 43, 127
1, 796823, Note_on_c, 5, 41, 127
1, 796873, Note_off_c, 1, 61, 127
1, 796876, Note_off_c, 11, 70, 127
1, 796880, Note_on_c, 7, 67, 127
1, 796933, Note_off_c, 5, 41, 127
1, 796937, Note_on_c, 7, 43, 127
1, 797048, Note_off_c, 7, 43, 127
1, 797051, Note_on_c, 1, 73, 127
1, 797051, Note_on_c, 5, 41, 127
1, 797220, Note_off_c, 5, 41, 127
1, 797223, Note_on_c, 4, 40, 127
1, 797392, Note_off_c, 4, 40, 127
1, 797395, Note_on_c, 2, 38, 127
1, 797557, Note_off_c, 4, 64, 127
1, 797564, Note_off_c, 1, 73, 127
1, 797568, Note_on_c, 11, 70, 127
1, 797736, Note_off_c, 2, 38, 127
1, 797737, Note_off_c, 11, 70, 127
1, 797739, Note_off_c, 7, 67, 127
1, 797740, Note_on_c, 10, 69, 127
1, 797740, Note_on_c, 2, 50, 127
1, 797909, Note_off_c, 10, 69, 127
1, 797912, Note_on_c, 7, 67, 127
1, 798081, Note_off_c, 7, 67, 127
1, 798084, Note_on_c, 5, 65, 127
1, 798253, Note_off_c, 5, 65, 127
1, 798253, Note_off_c, 2, 50, 127
1, 798256, Note_on_c, 10, 69, 127
1, 798256, Note_on_c, 0, 48, 127
1, 798425, Note_off_c, 0, 48, 127
1, 798429, Note_on_c, 2, 62, 127
1, 798429, Note_on_c, 12, 47, 127
1, 798598, Note_off_c, 12, 47, 127
1, 798601, Note_on_c, 10, 45, 127
1, 798770, Note_off_c, 10, 45, 127
1, 798773, Note_on_c, 7, 43, 127
1, 798946, Note_on_c, 12, 59, 127
1, 799114, Note_off_c, 10, 69, 127
1, 799119, Note_on_c, 8, 68, 127
1, 799287, Note_off_c, 7, 43, 127
1, 799291, Note_on_c, 5, 41, 127
1, 799460, Note_off_c, 5, 41, 127
1, 799463, Note_on_c, 5, 41, 127
1, 799545, Note_off_c, 5, 41, 127
1, 799549, Note_on_c, 4, 40, 127
1, 799631, Note_off_c, 4, 40, 127
1, 799632, Note_off_c, 8, 68, 127
1, 799635, Note_on_c, 5, 65, 127
1, 799635, Note_on_c, 5, 41, 127
1, 799717, Note_off_c, 5, 41, 127
1, 799721, Note_on_c, 4, 40, 127
1, 799807, Note_on_c, 12, 71, 127
1, 799976, Note_off_c, 4, 40, 127
1, 799980, Note_on_c, 2, 38, 127
1, 800149, Note_off_c, 2, 38, 127
1, 800152, Note_on_c, 0, 36, 127
1, 800313, Note_off_c, 2, 62, 127
1, 800316, Note_off_c, 5, 65, 127
1, 800319, Note_off_c, 12, 71, 127
1, 800323, Note_on_c, 8, 68, 127
1, 800491, Note_off_c, 12, 59, 127
1, 800492, Note_off_c, 8, 68, 127
1, 800492, Note_off_c, 0, 36, 127
1, 800495, Note_on_c, 10, 69, 127
1, 800495, Note_on_c, 0, 60, 127
1, 800664, Note_off_c, 10, 69, 127
1, 800667, Note_on_c, 4, 64, 127
1, 800836, Note_off_c, 4, 64, 127
1, 800839, Note_on_c, 6, 66, 127
1, 801008, Note_off_c, 0, 60, 127
1, 801012, Note_on_c, 10, 57, 127
1, 801181, Note_off_c, 10, 57, 127
1, 801184, Note_on_c, 12, 59, 127
1, 801341, Note_off_c, 6, 66, 127
1, 801357, Note_on_c, 3, 63, 127
1, 801357, Note_on_c, 12, 47, 127
1, 801526, Note_off_c, 12, 47, 127
1, 801526, Note_off_c, 3, 63, 127
1, 801529, Note_on_c, 0, 72, 127
1, 801529, Note_on_c, 4, 52, 127
1, 801698, Note_off_c, 12, 59, 127
1, 801702, Note_on_c, 8, 56, 127
1, 801870, Note_off_c, 4, 52, 127
1, 801871, Note_off_c, 8, 56, 127
1, 801874, Note_on_c, 10, 57, 127
1, 802031, Note_off_c, 0, 72, 127
1, 802047, Note_on_c, 10, 69, 127
1, 802216, Note_off_c, 10, 69, 127
1, 802219, Note_on_c, 12, 71, 127
1, 802388, Note_off_c, 10, 57, 127
1, 802391, Note_on_c, 2, 50, 127
1, 802560, Note_off_c, 2, 50, 127
1, 802564, Note_on_c, 2, 62, 127
1, 802721, Note_off_c, 12, 71, 127
1, 802737, Note_on_c, 8, 68, 127
1, 802737, Note_on_c, 4, 52, 127
1, 802906, Note_off_c, 4, 52, 127
1, 802906, Note_off_c, 8, 68, 127
1, 802909, Note_on_c, 5, 77, 127
1, 802909, Note_on_c, 10, 57, 127
1, 803078, Note_off_c, 2, 62, 127
1, 803081, Note_on_c, 12, 59, 127
1, 803250, Note_off_c, 12, 59, 127
1, 803253, Note_on_c, 0, 60, 127
1, 803411, Note_off_c, 5, 77, 127
1, 803427, Note_on_c, 3, 75, 127
1, 803595, Note_off_c, 10, 57, 127
1, 803596, Note_off_c, 3, 75, 127
1, 803599, Note_on_c, 4, 76, 127
1, 803599, Note_on_c, 7, 55, 127
1, 803767, Note_off_c, 0, 60, 127
1, 803771, Note_on_c, 10, 57, 127
1, 803940, Note_off_c, 10, 57, 127
1, 803943, Note_on_c, 12, 59, 127
1, 804101, Note_off_c, 4, 76, 127
1, 804117, Note_on_c, 10, 69, 127
1, 804285, Note_off_c, 7, 55, 127
1, 804286, Note_off_c, 10, 69, 127
1, 804289, Note_on_c, 7, 67, 127
1, 804289, Note_on_c, 0, 48, 127
1, 804457, Note_off_c, 12, 59, 127
1, 804461, Note_on_c, 4, 52, 127
1, 804630, Note_off_c, 4, 52, 127
1, 804633, Note_on_c, 4, 64, 127
1, 804802, Note_off_c, 0, 48, 127
1, 804805, Note_on_c, 12, 47, 127
1, 804974, Note_off_c, 12, 47, 127
1, 804974, Note_off_c, 7, 67, 127
1, 804978, Note_on_c, 7, 67, 127
1, 804978, Note_on_c, 10, 45, 127
1, 805060, Note_off_c, 7, 67, 127
1, 805064, Note_on_c, 6, 66, 127
1, 805146, Note_off_c, 6, 66, 127
1, 805146, Note_off_c, 4, 64, 127
1, 805150, Note_on_c, 7, 67, 127
1, 805150, Note_on_c, 1, 61, 127
1, 805232, Note_off_c, 7, 67, 127
1, 805236, Note_on_c, 6, 66, 127
1, 805318, Note_off_c, 6, 66, 127
1, 805319, Note_off_c, 1, 61, 127
1, 805319, Note_off_c, 10, 45, 127
1, 805322, Note_on_c, 7, 67, 127
1, 805322, Note_on_c, 3, 63, 127
1, 805322, Note_on_c, 12, 47, 127
1, 805404, Note_off_c, 7, 67, 127
1, 805408, Note_on_c, 6, 66, 127
1, 805490, Note_off_c, 6, 66, 127
1, 805494, Note_on_c, 4, 64, 127
1, 805576, Note_off_c, 4, 64, 127
1, 805580, Note_on_c, 6, 66, 127
1, 805662, Note_off_c, 6, 66, 127
1, 805663, Note_off_c, 12, 47, 127
1, 805663, Note_off_c, 3, 63, 127
1, 805666, Note_on_c, 4, 64, 127
1, 805666, Note_on_c, 4, 40, 127
1, 805840, Note_on_c, 2, 62, 127
1, 806008, Note_off_c, 4, 64, 127
1, 806012, Note_on_c, 5, 65, 127
1, 806012, Note_on_c, 8, 68, 127
1, 806180, Note_off_c, 4, 40, 127
1, 806184, Note_on_c, 12, 59, 127
1, 806353, Note_off_c, 12, 59, 127
1, 806356, Note_on_c, 8, 56, 127
1, 806525, Note_off_c, 2, 62, 127
1, 806528, Note_on_c, 2, 62, 127
1, 806697, Note_off_c, 8, 68, 127
1, 806697, Note_off_c, 5, 65, 127
1, 806701, Note_on_c, 8, 68, 127
1, 806701, Note_on_c, 12, 71, 127
1, 806869, Note_off_c, 8, 56, 127
1, 806873, Note_on_c, 4, 52, 127
1, 807042, Note_off_c, 4, 52, 127
1, 807045, Note_on_c, 0, 48, 127
1, 807213, Note_off_c, 2, 62, 127
1, 807217, Note_on_c, 0, 60, 127
1, 807386, Note_off_c, 12, 71, 127
1, 807386, Note_off_c, 8, 68, 127
1, 807389, Note_on_c, 4, 64, 127
1, 807389, Note_on_c, 10, 69, 127
1, 807558, Note_off_c, 0, 48, 127
1, 807562, Note_on_c, 5, 53, 127
1, 807731, Note_off_c, 5, 53, 127
1, 807734, Note_on_c, 2, 50, 127
1, 807902, Note_off_c, 0, 60, 127
1, 807906, Note_on_c, 12, 59, 127
1, 808074, Note_off_c, 10, 69, 127
1, 808074, Note_off_c, 4, 64, 127
1, 808078, Note_on_c, 8, 68, 127
1, 808078, Note_on_c, 12, 71, 127
1, 808078, Note_on_c, 2, 74, 127
1, 808247, Note_off_c, 2, 50, 127
1, 808250, Note_on_c, 12, 47, 127
1, 808419, Note_off_c, 12, 47, 127
1, 808423, Note_on_c, 5, 65, 127
1, 808423, Note_on_c, 8, 44, 127
1, 808591, Note_off_c, 12, 59, 127
1, 808592, Note_off_c, 5, 65, 127
1, 808595, Note_on_c, 4, 64, 127
1, 808760, Note_off_c, 2, 74, 127
1, 808760, Note_off_c, 12, 71, 127
1, 808760, Note_off_c, 8, 68, 127
1, 808768, Note_on_c, 10, 69, 127
1, 808768, Note_on_c, 0, 72, 127
1, 808937, Note_off_c, 8, 44, 127
1, 808940, Note_on_c, 4, 52, 127
1, 809109, Note_off_c, 4, 52, 127
1, 809112, Note_on_c, 0, 48, 127
1, 809278, Note_off_c, 4, 64, 127
1, 809286, Note_on_c, 6, 66, 127
1, 809451, Note_off_c, 0, 72, 127
1, 809451, Note_off_c, 10, 69, 127
1, 809459, Note_on_c, 0, 72, 127
1, 809459, Note_on_c, 3, 75, 127
1, 809627, Note_off_c, 0, 48, 127
1, 809631, Note_on_c, 10, 45, 127
1, 809790, Note_off_c, 6, 66, 127
1, 809800, Note_off_c, 10, 45, 127
1, 809800, Note_off_c, 3, 75, 127
1, 809800, Note_off_c, 0, 72, 127
1, 809803, Note_on_c, 4, 40, 127
1, 809977, Note_on_c, 4, 76, 127
1, 810059, Note_off_c, 4, 76, 127
1, 810063, Note_on_c, 12, 71, 127
1, 810145, Note_off_c, 12, 71, 127
1, 810149, Note_on_c, 8, 68, 127
1, 810318, Note_off_c, 8, 68, 127
1, 810321, Note_on_c, 4, 64, 127
1, 810403, Note_off_c, 4, 64, 127
1, 810407, Note_on_c, 3, 63, 127
1, 810489, Note_off_c, 3, 63, 127
1, 810493, Note_on_c, 4, 64, 127
1, 810575, Note_off_c, 4, 64, 127
1, 810579, Note_on_c, 8, 68, 127
1, 810707, Note_off_c, 8, 68, 127
1, 810729, Note_on_c, 12, 71, 127
1, 810919, Note_off_c, 12, 71, 127
1, 810980, Note_on_c, 4, 76, 127
1, 811177, Note_off_c, 4, 40, 127
1, 812980, Note_off_c, 4, 76, 127
1, 815616, End_track
0, 0, End_of_file
