0, 0, Header, 1, 4, 240
1, 0, Start_track
1, 0, Title_t, "untitled"
1, 0, SMPTE_offset, 96, 0, 3, 0, 0
1, 0, Time_signature, 1, 3, 12, 8
1, 0, Key_signature, 0, "major"
1, 0, Tempo, 606061
1, 120, Time_signature, 6, 3, 12, 8
1, 10920, Time_signature, 5, 3, 12, 8
1, 11520, Time_signature, 1, 3, 12, 8
1, 11640, Time_signature, 6, 3, 12, 8
1, 22440, Time_signature, 5, 3, 12, 8
1, 23040, Time_signature, 1, 3, 12, 8
1, 23160, Time_signature, 6, 3, 12, 8
1, 39720, Time_signature, 5, 3, 12, 8
1, 40320, Time_signature, 1, 3, 12, 8
1, 40440, Time_signature, 6, 3, 12, 8
1, 57000, Time_signature, 5, 3, 12, 8
1, 57000, End_track
2, 0, Start_track
2, 0, MIDI_port, 0
2, 0, Title_t, "English Suite 1, 10. Gigout"
2, 0, Program_c, 0, 0
2, 0, Control_c, 0, 7, 100
2, 0, Control_c, 0, 10, 64
2, 0, Note_on_c, 0, 76, 107
2, 96, Note_on_c, 0, 76, 0
2, 120, Note_on_c, 0, 81, 107
2, 216, Note_on_c, 0, 81, 0
2, 240, Note_on_c, 0, 80, 107
2, 288, Note_on_c, 0, 80, 0
2, 300, Note_on_c, 0, 78, 107
2, 348, Note_on_c, 0, 78, 0
2, 360, Note_on_c, 0, 76, 107
2, 408, Note_on_c, 0, 76, 0
2, 420, Note_on_c, 0, 74, 107
2, 468, Note_on_c, 0, 74, 0
2, 480, Note_on_c, 0, 73, 107
2, 528, Note_on_c, 0, 73, 0
2, 540, Note_on_c, 0, 74, 107
2, 588, Note_on_c, 0, 74, 0
2, 600, Note_on_c, 0, 76, 107
2, 629, Note_on_c, 0, 76, 0
2, 630, Note_on_c, 0, 74, 107
2, 659, Note_on_c, 0, 74, 0
2, 660, Note_on_c, 0, 76, 107
2, 684, Note_on_c, 0, 76, 0
2, 690, Note_on_c, 0, 74, 107
2, 714, Note_on_c, 0, 74, 0
2, 720, Note_on_c, 0, 76, 107
2, 744, Note_on_c, 0, 76, 0
2, 750, Note_on_c, 0, 74, 107
2, 774, Note_on_c, 0, 74, 0
2, 780, Note_on_c, 0, 73, 107
2, 804, Note_on_c, 0, 73, 0
2, 810, Note_on_c, 0, 74, 107
2, 834, Note_on_c, 0, 74, 0
2, 840, Note_on_c, 0, 76, 107
2, 936, Note_on_c, 0, 76, 0
2, 960, Note_on_c, 0, 74, 107
2, 1008, Note_on_c, 0, 74, 0
2, 1020, Note_on_c, 0, 73, 107
2, 1068, Note_on_c, 0, 73, 0
2, 1080, Note_on_c, 0, 71, 107
2, 1128, Note_on_c, 0, 71, 0
2, 1140, Note_on_c, 0, 69, 107
2, 1188, Note_on_c, 0, 69, 0
2, 1200, Note_on_c, 0, 68, 107
2, 1248, Note_on_c, 0, 68, 0
2, 1260, Note_on_c, 0, 69, 107
2, 1308, Note_on_c, 0, 69, 0
2, 1320, Note_on_c, 0, 71, 107
2, 1349, Note_on_c, 0, 71, 0
2, 1350, Note_on_c, 0, 69, 107
2, 1379, Note_on_c, 0, 69, 0
2, 1380, Note_on_c, 0, 71, 107
2, 1404, Note_on_c, 0, 71, 0
2, 1410, Note_on_c, 0, 69, 107
2, 1434, Note_on_c, 0, 69, 0
2, 1440, Note_on_c, 0, 71, 107
2, 1464, Note_on_c, 0, 71, 0
2, 1470, Note_on_c, 0, 69, 107
2, 1494, Note_on_c, 0, 69, 0
2, 1500, Note_on_c, 0, 68, 107
2, 1524, Note_on_c, 0, 68, 0
2, 1530, Note_on_c, 0, 69, 107
2, 1554, Note_on_c, 0, 69, 0
2, 1560, Note_on_c, 0, 71, 107
2, 1608, Note_on_c, 0, 71, 0
2, 1620, Note_on_c, 0, 73, 107
2, 1668, Note_on_c, 0, 73, 0
2, 1680, Note_on_c, 0, 74, 107
2, 1709, Note_on_c, 0, 74, 0
2, 1710, Note_on_c, 0, 73, 107
2, 1739, Note_on_c, 0, 73, 0
2, 1740, Note_on_c, 0, 74, 107
2, 1764, Note_on_c, 0, 74, 0
2, 1770, Note_on_c, 0, 73, 107
2, 1794, Note_on_c, 0, 73, 0
2, 1800, Note_on_c, 0, 74, 107
2, 1824, Note_on_c, 0, 74, 0
2, 1830, Note_on_c, 0, 73, 107
2, 1854, Note_on_c, 0, 73, 0
2, 1860, Note_on_c, 0, 71, 107
2, 1884, Note_on_c, 0, 71, 0
2, 1890, Note_on_c, 0, 73, 107
2, 1914, Note_on_c, 0, 73, 0
2, 1920, Note_on_c, 0, 74, 107
2, 2064, Note_on_c, 0, 74, 0
2, 2100, Note_on_c, 0, 76, 107
2, 2148, Note_on_c, 0, 76, 0
2, 2160, Note_on_c, 0, 73, 107
2, 2256, Note_on_c, 0, 73, 0
2, 2280, Note_on_c, 0, 73, 107
2, 2328, Note_on_c, 0, 73, 0
2, 2340, Note_on_c, 0, 74, 107
2, 2388, Note_on_c, 0, 74, 0
2, 2400, Note_on_c, 0, 71, 107
2, 2429, Note_on_c, 0, 71, 0
2, 2430, Note_on_c, 0, 73, 107
2, 2459, Note_on_c, 0, 73, 0
2, 2460, Note_on_c, 0, 71, 107
2, 2573, Note_on_c, 0, 71, 0
2, 2580, Note_on_c, 0, 76, 107
2, 2628, Note_on_c, 0, 76, 0
2, 2640, Note_on_c, 0, 73, 107
2, 2688, Note_on_c, 0, 73, 0
2, 2700, Note_on_c, 0, 71, 107
2, 2748, Note_on_c, 0, 71, 0
2, 2760, Note_on_c, 0, 69, 107
2, 2808, Note_on_c, 0, 69, 0
2, 2820, Note_on_c, 0, 71, 107
2, 2868, Note_on_c, 0, 71, 0
2, 2880, Note_on_c, 0, 73, 107
2, 2928, Note_on_c, 0, 73, 0
2, 2940, Note_on_c, 0, 74, 107
2, 2988, Note_on_c, 0, 74, 0
2, 3000, Note_on_c, 0, 76, 107
2, 3048, Note_on_c, 0, 76, 0
2, 3060, Note_on_c, 0, 74, 107
2, 3108, Note_on_c, 0, 74, 0
2, 3120, Note_on_c, 0, 73, 107
2, 3168, Note_on_c, 0, 73, 0
2, 3180, Note_on_c, 0, 74, 107
2, 3228, Note_on_c, 0, 74, 0
2, 3240, Note_on_c, 0, 76, 107
2, 3288, Note_on_c, 0, 76, 0
2, 3300, Note_on_c, 0, 78, 107
2, 3348, Note_on_c, 0, 78, 0
2, 3360, Note_on_c, 0, 79, 107
2, 3408, Note_on_c, 0, 79, 0
2, 3420, Note_on_c, 0, 78, 107
2, 3468, Note_on_c, 0, 78, 0
2, 3480, Note_on_c, 0, 76, 107
2, 3528, Note_on_c, 0, 76, 0
2, 3540, Note_on_c, 0, 78, 107
2, 3588, Note_on_c, 0, 78, 0
2, 3600, Note_on_c, 0, 79, 107
2, 3648, Note_on_c, 0, 79, 0
2, 3660, Note_on_c, 0, 81, 107
2, 3708, Note_on_c, 0, 81, 0
2, 3720, Note_on_c, 0, 78, 107
2, 3768, Note_on_c, 0, 78, 0
2, 3780, Note_on_c, 0, 76, 107
2, 3828, Note_on_c, 0, 76, 0
2, 3840, Note_on_c, 0, 74, 107
2, 3888, Note_on_c, 0, 74, 0
2, 3900, Note_on_c, 0, 76, 107
2, 3948, Note_on_c, 0, 76, 0
2, 3960, Note_on_c, 0, 78, 107
2, 4008, Note_on_c, 0, 78, 0
2, 4020, Note_on_c, 0, 80, 107
2, 4068, Note_on_c, 0, 80, 0
2, 4080, Note_on_c, 0, 81, 107
2, 4128, Note_on_c, 0, 81, 0
2, 4140, Note_on_c, 0, 80, 107
2, 4188, Note_on_c, 0, 80, 0
2, 4200, Note_on_c, 0, 78, 107
2, 4248, Note_on_c, 0, 78, 0
2, 4260, Note_on_c, 0, 80, 107
2, 4308, Note_on_c, 0, 80, 0
2, 4320, Note_on_c, 0, 81, 107
2, 4368, Note_on_c, 0, 81, 0
2, 4380, Note_on_c, 0, 83, 107
2, 4428, Note_on_c, 0, 83, 0
2, 4440, Note_on_c, 0, 80, 107
2, 4488, Note_on_c, 0, 80, 0
2, 4500, Note_on_c, 0, 78, 107
2, 4548, Note_on_c, 0, 78, 0
2, 4560, Note_on_c, 0, 76, 107
2, 4608, Note_on_c, 0, 76, 0
2, 4620, Note_on_c, 0, 78, 107
2, 4668, Note_on_c, 0, 78, 0
2, 4680, Note_on_c, 0, 80, 107
2, 4728, Note_on_c, 0, 80, 0
2, 4740, Note_on_c, 0, 81, 107
2, 4788, Note_on_c, 0, 81, 0
2, 4800, Note_on_c, 0, 83, 107
2, 4848, Note_on_c, 0, 83, 0
2, 4860, Note_on_c, 0, 81, 107
2, 4908, Note_on_c, 0, 81, 0
2, 4920, Note_on_c, 0, 80, 107
2, 4968, Note_on_c, 0, 80, 0
2, 4980, Note_on_c, 0, 78, 107
2, 5028, Note_on_c, 0, 78, 0
2, 5040, Note_on_c, 0, 76, 107
2, 5088, Note_on_c, 0, 76, 0
2, 5100, Note_on_c, 0, 74, 107
2, 5148, Note_on_c, 0, 74, 0
2, 5160, Note_on_c, 0, 73, 107
2, 5208, Note_on_c, 0, 73, 0
2, 5220, Note_on_c, 0, 75, 107
2, 5268, Note_on_c, 0, 75, 0
2, 5280, Note_on_c, 0, 76, 107
2, 5328, Note_on_c, 0, 76, 0
2, 5340, Note_on_c, 0, 78, 107
2, 5388, Note_on_c, 0, 78, 0
2, 5400, Note_on_c, 0, 80, 107
2, 5448, Note_on_c, 0, 80, 0
2, 5460, Note_on_c, 0, 76, 107
2, 5508, Note_on_c, 0, 76, 0
2, 5520, Note_on_c, 0, 81, 107
2, 5568, Note_on_c, 0, 81, 0
2, 5580, Note_on_c, 0, 80, 107
2, 5628, Note_on_c, 0, 80, 0
2, 5640, Note_on_c, 0, 78, 107
2, 5688, Note_on_c, 0, 78, 0
2, 5700, Note_on_c, 0, 76, 107
2, 5748, Note_on_c, 0, 76, 0
2, 5760, Note_on_c, 0, 75, 107
2, 5808, Note_on_c, 0, 75, 0
2, 5820, Note_on_c, 0, 73, 107
2, 5868, Note_on_c, 0, 73, 0
2, 5880, Note_on_c, 0, 71, 107
2, 5928, Note_on_c, 0, 71, 0
2, 5940, Note_on_c, 0, 73, 107
2, 5988, Note_on_c, 0, 73, 0
2, 6000, Note_on_c, 0, 75, 107
2, 6048, Note_on_c, 0, 75, 0
2, 6060, Note_on_c, 0, 76, 107
2, 6108, Note_on_c, 0, 76, 0
2, 6120, Note_on_c, 0, 78, 107
2, 6168, Note_on_c, 0, 78, 0
2, 6180, Note_on_c, 0, 75, 107
2, 6228, Note_on_c, 0, 75, 0
2, 6240, Note_on_c, 0, 80, 107
2, 6288, Note_on_c, 0, 80, 0
2, 6300, Note_on_c, 0, 78, 107
2, 6348, Note_on_c, 0, 78, 0
2, 6360, Note_on_c, 0, 76, 107
2, 6408, Note_on_c, 0, 76, 0
2, 6420, Note_on_c, 0, 75, 107
2, 6468, Note_on_c, 0, 75, 0
2, 6480, Note_on_c, 0, 73, 107
2, 6528, Note_on_c, 0, 73, 0
2, 6540, Note_on_c, 0, 71, 107
2, 6588, Note_on_c, 0, 71, 0
2, 6600, Note_on_c, 0, 69, 107
2, 6648, Note_on_c, 0, 69, 0
2, 6660, Note_on_c, 0, 71, 107
2, 6708, Note_on_c, 0, 71, 0
2, 6720, Note_on_c, 0, 73, 107
2, 6768, Note_on_c, 0, 73, 0
2, 6780, Note_on_c, 0, 75, 107
2, 6828, Note_on_c, 0, 75, 0
2, 6840, Note_on_c, 0, 76, 107
2, 6888, Note_on_c, 0, 76, 0
2, 6900, Note_on_c, 0, 73, 107
2, 6948, Note_on_c, 0, 73, 0
2, 6960, Note_on_c, 0, 78, 107
2, 7008, Note_on_c, 0, 78, 0
2, 7020, Note_on_c, 0, 76, 107
2, 7068, Note_on_c, 0, 76, 0
2, 7080, Note_on_c, 0, 75, 107
2, 7128, Note_on_c, 0, 75, 0
2, 7140, Note_on_c, 0, 73, 107
2, 7188, Note_on_c, 0, 73, 0
2, 7200, Note_on_c, 0, 71, 107
2, 7248, Note_on_c, 0, 71, 0
2, 7260, Note_on_c, 0, 69, 107
2, 7308, Note_on_c, 0, 69, 0
2, 7320, Note_on_c, 0, 68, 107
2, 7368, Note_on_c, 0, 68, 0
2, 7380, Note_on_c, 0, 76, 107
2, 7428, Note_on_c, 0, 76, 0
2, 7440, Note_on_c, 0, 75, 107
2, 7488, Note_on_c, 0, 75, 0
2, 7500, Note_on_c, 0, 73, 107
2, 7548, Note_on_c, 0, 73, 0
2, 7560, Note_on_c, 0, 71, 107
2, 7608, Note_on_c, 0, 71, 0
2, 7620, Note_on_c, 0, 69, 107
2, 7668, Note_on_c, 0, 69, 0
2, 7680, Note_on_c, 0, 68, 107
2, 7728, Note_on_c, 0, 68, 0
2, 7740, Note_on_c, 0, 69, 107
2, 7764, Note_on_c, 0, 69, 0
2, 7770, Note_on_c, 0, 71, 107
2, 7794, Note_on_c, 0, 71, 0
2, 7800, Note_on_c, 0, 68, 107
2, 7812, Note_on_c, 0, 68, 0
2, 7815, Note_on_c, 0, 66, 107
2, 7827, Note_on_c, 0, 66, 0
2, 7830, Note_on_c, 0, 68, 107
2, 7842, Note_on_c, 0, 68, 0
2, 7845, Note_on_c, 0, 66, 107
2, 7857, Note_on_c, 0, 66, 0
2, 7860, Note_on_c, 0, 68, 107
2, 7872, Note_on_c, 0, 68, 0
2, 7875, Note_on_c, 0, 66, 107
2, 7887, Note_on_c, 0, 66, 0
2, 7890, Note_on_c, 0, 68, 107
2, 7902, Note_on_c, 0, 68, 0
2, 7905, Note_on_c, 0, 66, 107
2, 7920, Note_on_c, 0, 66, 0
2, 7920, Note_on_c, 0, 68, 107
2, 7932, Note_on_c, 0, 68, 0
2, 7935, Note_on_c, 0, 66, 107
2, 7964, Note_on_c, 0, 66, 0
2, 7980, Note_on_c, 0, 64, 107
2, 8028, Note_on_c, 0, 64, 0
2, 8040, Note_on_c, 0, 64, 107
2, 8097, Note_on_c, 0, 64, 0
2, 8100, Note_on_c, 0, 66, 107
2, 8157, Note_on_c, 0, 66, 0
2, 8160, Note_on_c, 0, 68, 107
2, 8217, Note_on_c, 0, 68, 0
2, 8220, Note_on_c, 0, 69, 107
2, 8277, Note_on_c, 0, 69, 0
2, 8280, Note_on_c, 0, 71, 107
2, 8337, Note_on_c, 0, 71, 0
2, 8340, Note_on_c, 0, 68, 107
2, 8397, Note_on_c, 0, 68, 0
2, 8400, Note_on_c, 0, 73, 107
2, 8457, Note_on_c, 0, 73, 0
2, 8460, Note_on_c, 0, 71, 107
2, 8517, Note_on_c, 0, 71, 0
2, 8520, Note_on_c, 0, 69, 107
2, 8577, Note_on_c, 0, 69, 0
2, 8580, Note_on_c, 0, 68, 107
2, 8637, Note_on_c, 0, 68, 0
2, 8640, Note_on_c, 0, 66, 107
2, 8697, Note_on_c, 0, 66, 0
2, 8700, Note_on_c, 0, 64, 107
2, 8757, Note_on_c, 0, 64, 0
2, 8760, Note_on_c, 0, 63, 107
2, 8817, Note_on_c, 0, 63, 0
2, 8820, Note_on_c, 0, 64, 107
2, 8877, Note_on_c, 0, 64, 0
2, 8880, Note_on_c, 0, 66, 107
2, 8937, Note_on_c, 0, 66, 0
2, 8940, Note_on_c, 0, 68, 107
2, 8997, Note_on_c, 0, 68, 0
2, 9000, Note_on_c, 0, 69, 107
2, 9057, Note_on_c, 0, 69, 0
2, 9060, Note_on_c, 0, 66, 107
2, 9117, Note_on_c, 0, 66, 0
2, 9120, Note_on_c, 0, 71, 107
2, 9177, Note_on_c, 0, 71, 0
2, 9180, Note_on_c, 0, 69, 107
2, 9237, Note_on_c, 0, 69, 0
2, 9240, Note_on_c, 0, 68, 107
2, 9297, Note_on_c, 0, 68, 0
2, 9300, Note_on_c, 0, 66, 107
2, 9357, Note_on_c, 0, 66, 0
2, 9360, Note_on_c, 0, 64, 107
2, 9417, Note_on_c, 0, 64, 0
2, 9420, Note_on_c, 0, 63, 107
2, 9477, Note_on_c, 0, 63, 0
2, 9480, Note_on_c, 0, 61, 107
2, 9528, Note_on_c, 0, 61, 0
2, 9540, Note_on_c, 0, 63, 107
2, 9588, Note_on_c, 0, 63, 0
2, 9600, Note_on_c, 0, 64, 107
2, 9648, Note_on_c, 0, 64, 0
2, 9660, Note_on_c, 0, 66, 107
2, 9708, Note_on_c, 0, 66, 0
2, 9720, Note_on_c, 0, 68, 107
2, 9768, Note_on_c, 0, 68, 0
2, 9780, Note_on_c, 0, 64, 107
2, 9828, Note_on_c, 0, 64, 0
2, 9840, Note_on_c, 0, 69, 107
2, 9888, Note_on_c, 0, 69, 0
2, 9900, Note_on_c, 0, 68, 107
2, 9948, Note_on_c, 0, 68, 0
2, 9960, Note_on_c, 0, 66, 107
2, 10008, Note_on_c, 0, 66, 0
2, 10020, Note_on_c, 0, 64, 107
2, 10068, Note_on_c, 0, 64, 0
2, 10080, Note_on_c, 0, 63, 107
2, 10128, Note_on_c, 0, 63, 0
2, 10140, Note_on_c, 0, 61, 107
2, 10188, Note_on_c, 0, 61, 0
2, 10200, Note_on_c, 0, 59, 107
2, 10248, Note_on_c, 0, 59, 0
2, 10260, Note_on_c, 0, 69, 107
2, 10308, Note_on_c, 0, 69, 0
2, 10320, Note_on_c, 0, 68, 107
2, 10368, Note_on_c, 0, 68, 0
2, 10380, Note_on_c, 0, 66, 107
2, 10428, Note_on_c, 0, 66, 0
2, 10440, Note_on_c, 0, 64, 107
2, 10488, Note_on_c, 0, 64, 0
2, 10500, Note_on_c, 0, 63, 107
2, 10548, Note_on_c, 0, 63, 0
2, 10560, Note_on_c, 0, 64, 107
2, 10608, Note_on_c, 0, 64, 0
2, 10620, Note_on_c, 0, 66, 107
2, 10668, Note_on_c, 0, 66, 0
2, 10680, Note_on_c, 0, 68, 107
2, 10695, Note_on_c, 0, 68, 0
2, 10695, Note_on_c, 0, 66, 107
2, 10710, Note_on_c, 0, 66, 0
2, 10710, Note_on_c, 0, 68, 107
2, 10725, Note_on_c, 0, 68, 0
2, 10725, Note_on_c, 0, 66, 107
2, 10740, Note_on_c, 0, 66, 0
2, 10740, Note_on_c, 0, 68, 107
2, 10755, Note_on_c, 0, 68, 0
2, 10755, Note_on_c, 0, 66, 107
2, 10767, Note_on_c, 0, 66, 0
2, 10770, Note_on_c, 0, 68, 107
2, 10782, Note_on_c, 0, 68, 0
2, 10785, Note_on_c, 0, 66, 107
2, 10797, Note_on_c, 0, 66, 0
2, 10800, Note_on_c, 0, 68, 107
2, 10812, Note_on_c, 0, 68, 0
2, 10815, Note_on_c, 0, 66, 107
2, 10844, Note_on_c, 0, 66, 0
2, 10860, Note_on_c, 0, 64, 107
2, 10908, Note_on_c, 0, 64, 0
2, 10920, Note_on_c, 0, 64, 107
2, 11472, Note_on_c, 0, 64, 0
2, 11520, Note_on_c, 0, 76, 107
2, 11616, Note_on_c, 0, 76, 0
2, 11640, Note_on_c, 0, 81, 107
2, 11736, Note_on_c, 0, 81, 0
2, 11760, Note_on_c, 0, 80, 107
2, 11808, Note_on_c, 0, 80, 0
2, 11820, Note_on_c, 0, 78, 107
2, 11868, Note_on_c, 0, 78, 0
2, 11880, Note_on_c, 0, 76, 107
2, 11928, Note_on_c, 0, 76, 0
2, 11940, Note_on_c, 0, 74, 107
2, 11988, Note_on_c, 0, 74, 0
2, 12000, Note_on_c, 0, 73, 107
2, 12048, Note_on_c, 0, 73, 0
2, 12060, Note_on_c, 0, 74, 107
2, 12108, Note_on_c, 0, 74, 0
2, 12120, Note_on_c, 0, 76, 107
2, 12149, Note_on_c, 0, 76, 0
2, 12150, Note_on_c, 0, 74, 107
2, 12179, Note_on_c, 0, 74, 0
2, 12180, Note_on_c, 0, 76, 107
2, 12204, Note_on_c, 0, 76, 0
2, 12210, Note_on_c, 0, 74, 107
2, 12234, Note_on_c, 0, 74, 0
2, 12240, Note_on_c, 0, 76, 107
2, 12264, Note_on_c, 0, 76, 0
2, 12270, Note_on_c, 0, 74, 107
2, 12294, Note_on_c, 0, 74, 0
2, 12300, Note_on_c, 0, 73, 107
2, 12324, Note_on_c, 0, 73, 0
2, 12330, Note_on_c, 0, 74, 107
2, 12354, Note_on_c, 0, 74, 0
2, 12360, Note_on_c, 0, 76, 107
2, 12456, Note_on_c, 0, 76, 0
2, 12480, Note_on_c, 0, 74, 107
2, 12528, Note_on_c, 0, 74, 0
2, 12540, Note_on_c, 0, 73, 107
2, 12588, Note_on_c, 0, 73, 0
2, 12600, Note_on_c, 0, 71, 107
2, 12648, Note_on_c, 0, 71, 0
2, 12660, Note_on_c, 0, 69, 107
2, 12708, Note_on_c, 0, 69, 0
2, 12720, Note_on_c, 0, 68, 107
2, 12768, Note_on_c, 0, 68, 0
2, 12780, Note_on_c, 0, 69, 107
2, 12828, Note_on_c, 0, 69, 0
2, 12840, Note_on_c, 0, 71, 107
2, 12869, Note_on_c, 0, 71, 0
2, 12870, Note_on_c, 0, 69, 107
2, 12899, Note_on_c, 0, 69, 0
2, 12900, Note_on_c, 0, 71, 107
2, 12924, Note_on_c, 0, 71, 0
2, 12930, Note_on_c, 0, 69, 107
2, 12954, Note_on_c, 0, 69, 0
2, 12960, Note_on_c, 0, 71, 107
2, 12984, Note_on_c, 0, 71, 0
2, 12990, Note_on_c, 0, 69, 107
2, 13014, Note_on_c, 0, 69, 0
2, 13020, Note_on_c, 0, 68, 107
2, 13044, Note_on_c, 0, 68, 0
2, 13050, Note_on_c, 0, 69, 107
2, 13074, Note_on_c, 0, 69, 0
2, 13080, Note_on_c, 0, 71, 107
2, 13128, Note_on_c, 0, 71, 0
2, 13140, Note_on_c, 0, 73, 107
2, 13188, Note_on_c, 0, 73, 0
2, 13200, Note_on_c, 0, 74, 107
2, 13229, Note_on_c, 0, 74, 0
2, 13230, Note_on_c, 0, 73, 107
2, 13259, Note_on_c, 0, 73, 0
2, 13260, Note_on_c, 0, 74, 107
2, 13284, Note_on_c, 0, 74, 0
2, 13290, Note_on_c, 0, 73, 107
2, 13314, Note_on_c, 0, 73, 0
2, 13320, Note_on_c, 0, 74, 107
2, 13344, Note_on_c, 0, 74, 0
2, 13350, Note_on_c, 0, 73, 107
2, 13374, Note_on_c, 0, 73, 0
2, 13380, Note_on_c, 0, 71, 107
2, 13404, Note_on_c, 0, 71, 0
2, 13410, Note_on_c, 0, 73, 107
2, 13434, Note_on_c, 0, 73, 0
2, 13440, Note_on_c, 0, 74, 107
2, 13584, Note_on_c, 0, 74, 0
2, 13620, Note_on_c, 0, 76, 107
2, 13668, Note_on_c, 0, 76, 0
2, 13680, Note_on_c, 0, 73, 107
2, 13776, Note_on_c, 0, 73, 0
2, 13800, Note_on_c, 0, 73, 107
2, 13848, Note_on_c, 0, 73, 0
2, 13860, Note_on_c, 0, 74, 107
2, 13908, Note_on_c, 0, 74, 0
2, 13920, Note_on_c, 0, 71, 107
2, 13949, Note_on_c, 0, 71, 0
2, 13950, Note_on_c, 0, 73, 107
2, 13979, Note_on_c, 0, 73, 0
2, 13980, Note_on_c, 0, 71, 107
2, 14093, Note_on_c, 0, 71, 0
2, 14100, Note_on_c, 0, 76, 107
2, 14148, Note_on_c, 0, 76, 0
2, 14160, Note_on_c, 0, 73, 107
2, 14208, Note_on_c, 0, 73, 0
2, 14220, Note_on_c, 0, 71, 107
2, 14268, Note_on_c, 0, 71, 0
2, 14280, Note_on_c, 0, 69, 107
2, 14328, Note_on_c, 0, 69, 0
2, 14340, Note_on_c, 0, 71, 107
2, 14388, Note_on_c, 0, 71, 0
2, 14400, Note_on_c, 0, 73, 107
2, 14448, Note_on_c, 0, 73, 0
2, 14460, Note_on_c, 0, 74, 107
2, 14508, Note_on_c, 0, 74, 0
2, 14520, Note_on_c, 0, 76, 107
2, 14568, Note_on_c, 0, 76, 0
2, 14580, Note_on_c, 0, 74, 107
2, 14628, Note_on_c, 0, 74, 0
2, 14640, Note_on_c, 0, 73, 107
2, 14688, Note_on_c, 0, 73, 0
2, 14700, Note_on_c, 0, 74, 107
2, 14748, Note_on_c, 0, 74, 0
2, 14760, Note_on_c, 0, 76, 107
2, 14808, Note_on_c, 0, 76, 0
2, 14820, Note_on_c, 0, 78, 107
2, 14868, Note_on_c, 0, 78, 0
2, 14880, Note_on_c, 0, 79, 107
2, 14928, Note_on_c, 0, 79, 0
2, 14940, Note_on_c, 0, 78, 107
2, 14988, Note_on_c, 0, 78, 0
2, 15000, Note_on_c, 0, 76, 107
2, 15048, Note_on_c, 0, 76, 0
2, 15060, Note_on_c, 0, 78, 107
2, 15108, Note_on_c, 0, 78, 0
2, 15120, Note_on_c, 0, 79, 107
2, 15168, Note_on_c, 0, 79, 0
2, 15180, Note_on_c, 0, 81, 107
2, 15228, Note_on_c, 0, 81, 0
2, 15240, Note_on_c, 0, 78, 107
2, 15288, Note_on_c, 0, 78, 0
2, 15300, Note_on_c, 0, 76, 107
2, 15348, Note_on_c, 0, 76, 0
2, 15360, Note_on_c, 0, 74, 107
2, 15408, Note_on_c, 0, 74, 0
2, 15420, Note_on_c, 0, 76, 107
2, 15468, Note_on_c, 0, 76, 0
2, 15480, Note_on_c, 0, 78, 107
2, 15528, Note_on_c, 0, 78, 0
2, 15540, Note_on_c, 0, 80, 107
2, 15588, Note_on_c, 0, 80, 0
2, 15600, Note_on_c, 0, 81, 107
2, 15648, Note_on_c, 0, 81, 0
2, 15660, Note_on_c, 0, 80, 107
2, 15708, Note_on_c, 0, 80, 0
2, 15720, Note_on_c, 0, 78, 107
2, 15768, Note_on_c, 0, 78, 0
2, 15780, Note_on_c, 0, 80, 107
2, 15828, Note_on_c, 0, 80, 0
2, 15840, Note_on_c, 0, 81, 107
2, 15888, Note_on_c, 0, 81, 0
2, 15900, Note_on_c, 0, 83, 107
2, 15948, Note_on_c, 0, 83, 0
2, 15960, Note_on_c, 0, 80, 107
2, 16008, Note_on_c, 0, 80, 0
2, 16020, Note_on_c, 0, 78, 107
2, 16068, Note_on_c, 0, 78, 0
2, 16080, Note_on_c, 0, 76, 107
2, 16128, Note_on_c, 0, 76, 0
2, 16140, Note_on_c, 0, 78, 107
2, 16188, Note_on_c, 0, 78, 0
2, 16200, Note_on_c, 0, 80, 107
2, 16248, Note_on_c, 0, 80, 0
2, 16260, Note_on_c, 0, 81, 107
2, 16308, Note_on_c, 0, 81, 0
2, 16320, Note_on_c, 0, 83, 107
2, 16368, Note_on_c, 0, 83, 0
2, 16380, Note_on_c, 0, 81, 107
2, 16428, Note_on_c, 0, 81, 0
2, 16440, Note_on_c, 0, 80, 107
2, 16488, Note_on_c, 0, 80, 0
2, 16500, Note_on_c, 0, 78, 107
2, 16548, Note_on_c, 0, 78, 0
2, 16560, Note_on_c, 0, 76, 107
2, 16608, Note_on_c, 0, 76, 0
2, 16620, Note_on_c, 0, 74, 107
2, 16668, Note_on_c, 0, 74, 0
2, 16680, Note_on_c, 0, 73, 107
2, 16728, Note_on_c, 0, 73, 0
2, 16740, Note_on_c, 0, 75, 107
2, 16788, Note_on_c, 0, 75, 0
2, 16800, Note_on_c, 0, 76, 107
2, 16848, Note_on_c, 0, 76, 0
2, 16860, Note_on_c, 0, 78, 107
2, 16908, Note_on_c, 0, 78, 0
2, 16920, Note_on_c, 0, 80, 107
2, 16968, Note_on_c, 0, 80, 0
2, 16980, Note_on_c, 0, 76, 107
2, 17028, Note_on_c, 0, 76, 0
2, 17040, Note_on_c, 0, 81, 107
2, 17088, Note_on_c, 0, 81, 0
2, 17100, Note_on_c, 0, 80, 107
2, 17148, Note_on_c, 0, 80, 0
2, 17160, Note_on_c, 0, 78, 107
2, 17208, Note_on_c, 0, 78, 0
2, 17220, Note_on_c, 0, 76, 107
2, 17268, Note_on_c, 0, 76, 0
2, 17280, Note_on_c, 0, 75, 107
2, 17328, Note_on_c, 0, 75, 0
2, 17340, Note_on_c, 0, 73, 107
2, 17388, Note_on_c, 0, 73, 0
2, 17400, Note_on_c, 0, 71, 107
2, 17448, Note_on_c, 0, 71, 0
2, 17460, Note_on_c, 0, 73, 107
2, 17508, Note_on_c, 0, 73, 0
2, 17520, Note_on_c, 0, 75, 107
2, 17568, Note_on_c, 0, 75, 0
2, 17580, Note_on_c, 0, 76, 107
2, 17628, Note_on_c, 0, 76, 0
2, 17640, Note_on_c, 0, 78, 107
2, 17688, Note_on_c, 0, 78, 0
2, 17700, Note_on_c, 0, 75, 107
2, 17748, Note_on_c, 0, 75, 0
2, 17760, Note_on_c, 0, 80, 107
2, 17808, Note_on_c, 0, 80, 0
2, 17820, Note_on_c, 0, 78, 107
2, 17868, Note_on_c, 0, 78, 0
2, 17880, Note_on_c, 0, 76, 107
2, 17928, Note_on_c, 0, 76, 0
2, 17940, Note_on_c, 0, 75, 107
2, 17988, Note_on_c, 0, 75, 0
2, 18000, Note_on_c, 0, 73, 107
2, 18048, Note_on_c, 0, 73, 0
2, 18060, Note_on_c, 0, 71, 107
2, 18108, Note_on_c, 0, 71, 0
2, 18120, Note_on_c, 0, 69, 107
2, 18168, Note_on_c, 0, 69, 0
2, 18180, Note_on_c, 0, 71, 107
2, 18228, Note_on_c, 0, 71, 0
2, 18240, Note_on_c, 0, 73, 107
2, 18288, Note_on_c, 0, 73, 0
2, 18300, Note_on_c, 0, 75, 107
2, 18348, Note_on_c, 0, 75, 0
2, 18360, Note_on_c, 0, 76, 107
2, 18408, Note_on_c, 0, 76, 0
2, 18420, Note_on_c, 0, 73, 107
2, 18468, Note_on_c, 0, 73, 0
2, 18480, Note_on_c, 0, 78, 107
2, 18528, Note_on_c, 0, 78, 0
2, 18540, Note_on_c, 0, 76, 107
2, 18588, Note_on_c, 0, 76, 0
2, 18600, Note_on_c, 0, 75, 107
2, 18648, Note_on_c, 0, 75, 0
2, 18660, Note_on_c, 0, 73, 107
2, 18708, Note_on_c, 0, 73, 0
2, 18720, Note_on_c, 0, 71, 107
2, 18768, Note_on_c, 0, 71, 0
2, 18780, Note_on_c, 0, 69, 107
2, 18828, Note_on_c, 0, 69, 0
2, 18840, Note_on_c, 0, 68, 107
2, 18888, Note_on_c, 0, 68, 0
2, 18900, Note_on_c, 0, 76, 107
2, 18948, Note_on_c, 0, 76, 0
2, 18960, Note_on_c, 0, 75, 107
2, 19008, Note_on_c, 0, 75, 0
2, 19020, Note_on_c, 0, 73, 107
2, 19068, Note_on_c, 0, 73, 0
2, 19080, Note_on_c, 0, 71, 107
2, 19128, Note_on_c, 0, 71, 0
2, 19140, Note_on_c, 0, 69, 107
2, 19188, Note_on_c, 0, 69, 0
2, 19200, Note_on_c, 0, 68, 107
2, 19248, Note_on_c, 0, 68, 0
2, 19260, Note_on_c, 0, 69, 107
2, 19284, Note_on_c, 0, 69, 0
2, 19290, Note_on_c, 0, 71, 107
2, 19314, Note_on_c, 0, 71, 0
2, 19320, Note_on_c, 0, 68, 107
2, 19332, Note_on_c, 0, 68, 0
2, 19335, Note_on_c, 0, 66, 107
2, 19347, Note_on_c, 0, 66, 0
2, 19350, Note_on_c, 0, 68, 107
2, 19362, Note_on_c, 0, 68, 0
2, 19365, Note_on_c, 0, 66, 107
2, 19377, Note_on_c, 0, 66, 0
2, 19380, Note_on_c, 0, 68, 107
2, 19392, Note_on_c, 0, 68, 0
2, 19395, Note_on_c, 0, 66, 107
2, 19407, Note_on_c, 0, 66, 0
2, 19410, Note_on_c, 0, 68, 107
2, 19422, Note_on_c, 0, 68, 0
2, 19425, Note_on_c, 0, 66, 107
2, 19440, Note_on_c, 0, 66, 0
2, 19440, Note_on_c, 0, 68, 107
2, 19452, Note_on_c, 0, 68, 0
2, 19455, Note_on_c, 0, 66, 107
2, 19484, Note_on_c, 0, 66, 0
2, 19500, Note_on_c, 0, 64, 107
2, 19548, Note_on_c, 0, 64, 0
2, 19560, Note_on_c, 0, 64, 107
2, 19617, Note_on_c, 0, 64, 0
2, 19620, Note_on_c, 0, 66, 107
2, 19677, Note_on_c, 0, 66, 0
2, 19680, Note_on_c, 0, 68, 107
2, 19737, Note_on_c, 0, 68, 0
2, 19740, Note_on_c, 0, 69, 107
2, 19797, Note_on_c, 0, 69, 0
2, 19800, Note_on_c, 0, 71, 107
2, 19857, Note_on_c, 0, 71, 0
2, 19860, Note_on_c, 0, 68, 107
2, 19917, Note_on_c, 0, 68, 0
2, 19920, Note_on_c, 0, 73, 107
2, 19977, Note_on_c, 0, 73, 0
2, 19980, Note_on_c, 0, 71, 107
2, 20037, Note_on_c, 0, 71, 0
2, 20040, Note_on_c, 0, 69, 107
2, 20097, Note_on_c, 0, 69, 0
2, 20100, Note_on_c, 0, 68, 107
2, 20157, Note_on_c, 0, 68, 0
2, 20160, Note_on_c, 0, 66, 107
2, 20217, Note_on_c, 0, 66, 0
2, 20220, Note_on_c, 0, 64, 107
2, 20277, Note_on_c, 0, 64, 0
2, 20280, Note_on_c, 0, 63, 107
2, 20337, Note_on_c, 0, 63, 0
2, 20340, Note_on_c, 0, 64, 107
2, 20397, Note_on_c, 0, 64, 0
2, 20400, Note_on_c, 0, 66, 107
2, 20457, Note_on_c, 0, 66, 0
2, 20460, Note_on_c, 0, 68, 107
2, 20517, Note_on_c, 0, 68, 0
2, 20520, Note_on_c, 0, 69, 107
2, 20577, Note_on_c, 0, 69, 0
2, 20580, Note_on_c, 0, 66, 107
2, 20637, Note_on_c, 0, 66, 0
2, 20640, Note_on_c, 0, 71, 107
2, 20697, Note_on_c, 0, 71, 0
2, 20700, Note_on_c, 0, 69, 107
2, 20757, Note_on_c, 0, 69, 0
2, 20760, Note_on_c, 0, 68, 107
2, 20817, Note_on_c, 0, 68, 0
2, 20820, Note_on_c, 0, 66, 107
2, 20877, Note_on_c, 0, 66, 0
2, 20880, Note_on_c, 0, 64, 107
2, 20937, Note_on_c, 0, 64, 0
2, 20940, Note_on_c, 0, 63, 107
2, 20997, Note_on_c, 0, 63, 0
2, 21000, Note_on_c, 0, 61, 107
2, 21048, Note_on_c, 0, 61, 0
2, 21060, Note_on_c, 0, 63, 107
2, 21108, Note_on_c, 0, 63, 0
2, 21120, Note_on_c, 0, 64, 107
2, 21168, Note_on_c, 0, 64, 0
2, 21180, Note_on_c, 0, 66, 107
2, 21228, Note_on_c, 0, 66, 0
2, 21240, Note_on_c, 0, 68, 107
2, 21288, Note_on_c, 0, 68, 0
2, 21300, Note_on_c, 0, 64, 107
2, 21348, Note_on_c, 0, 64, 0
2, 21360, Note_on_c, 0, 69, 107
2, 21408, Note_on_c, 0, 69, 0
2, 21420, Note_on_c, 0, 68, 107
2, 21468, Note_on_c, 0, 68, 0
2, 21480, Note_on_c, 0, 66, 107
2, 21528, Note_on_c, 0, 66, 0
2, 21540, Note_on_c, 0, 64, 107
2, 21588, Note_on_c, 0, 64, 0
2, 21600, Note_on_c, 0, 63, 107
2, 21648, Note_on_c, 0, 63, 0
2, 21660, Note_on_c, 0, 61, 107
2, 21708, Note_on_c, 0, 61, 0
2, 21720, Note_on_c, 0, 59, 107
2, 21768, Note_on_c, 0, 59, 0
2, 21780, Note_on_c, 0, 69, 107
2, 21828, Note_on_c, 0, 69, 0
2, 21840, Note_on_c, 0, 68, 107
2, 21888, Note_on_c, 0, 68, 0
2, 21900, Note_on_c, 0, 66, 107
2, 21948, Note_on_c, 0, 66, 0
2, 21960, Note_on_c, 0, 64, 107
2, 22008, Note_on_c, 0, 64, 0
2, 22020, Note_on_c, 0, 63, 107
2, 22068, Note_on_c, 0, 63, 0
2, 22080, Note_on_c, 0, 64, 107
2, 22128, Note_on_c, 0, 64, 0
2, 22140, Note_on_c, 0, 66, 107
2, 22188, Note_on_c, 0, 66, 0
2, 22200, Note_on_c, 0, 68, 107
2, 22215, Note_on_c, 0, 68, 0
2, 22215, Note_on_c, 0, 66, 107
2, 22230, Note_on_c, 0, 66, 0
2, 22230, Note_on_c, 0, 68, 107
2, 22245, Note_on_c, 0, 68, 0
2, 22245, Note_on_c, 0, 66, 107
2, 22260, Note_on_c, 0, 66, 0
2, 22260, Note_on_c, 0, 68, 107
2, 22275, Note_on_c, 0, 68, 0
2, 22275, Note_on_c, 0, 66, 107
2, 22287, Note_on_c, 0, 66, 0
2, 22290, Note_on_c, 0, 68, 107
2, 22302, Note_on_c, 0, 68, 0
2, 22305, Note_on_c, 0, 66, 107
2, 22317, Note_on_c, 0, 66, 0
2, 22320, Note_on_c, 0, 68, 107
2, 22332, Note_on_c, 0, 68, 0
2, 22335, Note_on_c, 0, 66, 107
2, 22364, Note_on_c, 0, 66, 0
2, 22380, Note_on_c, 0, 64, 107
2, 22428, Note_on_c, 0, 64, 0
2, 22440, Note_on_c, 0, 64, 107
2, 22992, Note_on_c, 0, 64, 0
2, 23040, Note_on_c, 0, 71, 107
2, 23136, Note_on_c, 0, 71, 0
2, 23160, Note_on_c, 0, 64, 107
2, 23256, Note_on_c, 0, 64, 0
2, 23280, Note_on_c, 0, 66, 107
2, 23328, Note_on_c, 0, 66, 0
2, 23340, Note_on_c, 0, 68, 107
2, 23388, Note_on_c, 0, 68, 0
2, 23400, Note_on_c, 0, 69, 107
2, 23448, Note_on_c, 0, 69, 0
2, 23460, Note_on_c, 0, 71, 107
2, 23508, Note_on_c, 0, 71, 0
2, 23520, Note_on_c, 0, 69, 107
2, 23568, Note_on_c, 0, 69, 0
2, 23580, Note_on_c, 0, 71, 107
2, 23628, Note_on_c, 0, 71, 0
2, 23640, Note_on_c, 0, 73, 107
2, 23669, Note_on_c, 0, 73, 0
2, 23670, Note_on_c, 0, 71, 107
2, 23699, Note_on_c, 0, 71, 0
2, 23700, Note_on_c, 0, 73, 107
2, 23729, Note_on_c, 0, 73, 0
2, 23730, Note_on_c, 0, 71, 107
2, 23759, Note_on_c, 0, 71, 0
2, 23760, Note_on_c, 0, 73, 107
2, 23789, Note_on_c, 0, 73, 0
2, 23790, Note_on_c, 0, 71, 107
2, 23819, Note_on_c, 0, 71, 0
2, 23820, Note_on_c, 0, 69, 107
2, 23844, Note_on_c, 0, 69, 0
2, 23850, Note_on_c, 0, 71, 107
2, 23874, Note_on_c, 0, 71, 0
2, 23880, Note_on_c, 0, 73, 107
2, 23928, Note_on_c, 0, 73, 0
2, 23940, Note_on_c, 0, 74, 107
2, 23988, Note_on_c, 0, 74, 0
2, 24000, Note_on_c, 0, 73, 107
2, 24048, Note_on_c, 0, 73, 0
2, 24060, Note_on_c, 0, 71, 107
2, 24108, Note_on_c, 0, 71, 0
2, 24120, Note_on_c, 0, 69, 107
2, 24168, Note_on_c, 0, 69, 0
2, 24180, Note_on_c, 0, 67, 107
2, 24228, Note_on_c, 0, 67, 0
2, 24240, Note_on_c, 0, 66, 107
2, 24288, Note_on_c, 0, 66, 0
2, 24300, Note_on_c, 0, 78, 107
2, 24348, Note_on_c, 0, 78, 0
2, 24360, Note_on_c, 0, 76, 107
2, 24408, Note_on_c, 0, 76, 0
2, 24420, Note_on_c, 0, 74, 107
2, 24468, Note_on_c, 0, 74, 0
2, 24480, Note_on_c, 0, 73, 107
2, 24528, Note_on_c, 0, 73, 0
2, 24540, Note_on_c, 0, 71, 107
2, 24588, Note_on_c, 0, 71, 0
2, 24600, Note_on_c, 0, 70, 107
2, 24648, Note_on_c, 0, 70, 0
2, 24660, Note_on_c, 0, 71, 107
2, 24708, Note_on_c, 0, 71, 0
2, 24720, Note_on_c, 0, 73, 107
2, 24749, Note_on_c, 0, 73, 0
2, 24750, Note_on_c, 0, 71, 107
2, 24779, Note_on_c, 0, 71, 0
2, 24780, Note_on_c, 0, 73, 107
2, 24809, Note_on_c, 0, 73, 0
2, 24810, Note_on_c, 0, 71, 107
2, 24839, Note_on_c, 0, 71, 0
2, 24840, Note_on_c, 0, 73, 107
2, 24869, Note_on_c, 0, 73, 0
2, 24870, Note_on_c, 0, 71, 107
2, 24899, Note_on_c, 0, 71, 0
2, 24900, Note_on_c, 0, 70, 107
2, 24924, Note_on_c, 0, 70, 0
2, 24930, Note_on_c, 0, 71, 107
2, 24954, Note_on_c, 0, 71, 0
2, 24960, Note_on_c, 0, 73, 107
2, 25017, Note_on_c, 0, 73, 0
2, 25020, Note_on_c, 0, 74, 107
2, 25077, Note_on_c, 0, 74, 0
2, 25080, Note_on_c, 0, 76, 107
2, 25109, Note_on_c, 0, 76, 0
2, 25110, Note_on_c, 0, 74, 107
2, 25139, Note_on_c, 0, 74, 0
2, 25140, Note_on_c, 0, 76, 107
2, 25169, Note_on_c, 0, 76, 0
2, 25170, Note_on_c, 0, 74, 107
2, 25199, Note_on_c, 0, 74, 0
2, 25200, Note_on_c, 0, 76, 107
2, 25229, Note_on_c, 0, 76, 0
2, 25230, Note_on_c, 0, 74, 107
2, 25254, Note_on_c, 0, 74, 0
2, 25260, Note_on_c, 0, 73, 107
2, 25284, Note_on_c, 0, 73, 0
2, 25290, Note_on_c, 0, 74, 107
2, 25314, Note_on_c, 0, 74, 0
2, 25320, Note_on_c, 0, 76, 107
2, 25464, Note_on_c, 0, 76, 0
2, 25500, Note_on_c, 0, 78, 107
2, 25548, Note_on_c, 0, 78, 0
2, 25560, Note_on_c, 0, 74, 107
2, 25728, Note_on_c, 0, 74, 0
2, 25740, Note_on_c, 0, 76, 107
2, 25788, Note_on_c, 0, 76, 0
2, 25800, Note_on_c, 0, 74, 107
2, 25824, Note_on_c, 0, 74, 0
2, 25830, Note_on_c, 0, 73, 107
2, 25854, Note_on_c, 0, 73, 0
2, 25860, Note_on_c, 0, 74, 107
2, 25889, Note_on_c, 0, 74, 0
2, 25890, Note_on_c, 0, 73, 107
2, 25914, Note_on_c, 0, 73, 0
2, 25920, Note_on_c, 0, 74, 107
2, 25944, Note_on_c, 0, 74, 0
2, 25950, Note_on_c, 0, 73, 107
2, 25974, Note_on_c, 0, 73, 0
2, 25980, Note_on_c, 0, 78, 107
2, 26028, Note_on_c, 0, 78, 0
2, 26040, Note_on_c, 0, 75, 107
2, 26088, Note_on_c, 0, 75, 0
2, 26100, Note_on_c, 0, 71, 107
2, 26148, Note_on_c, 0, 71, 0
2, 26160, Note_on_c, 0, 73, 107
2, 26208, Note_on_c, 0, 73, 0
2, 26220, Note_on_c, 0, 75, 107
2, 26268, Note_on_c, 0, 75, 0
2, 26280, Note_on_c, 0, 76, 107
2, 26328, Note_on_c, 0, 76, 0
2, 26340, Note_on_c, 0, 78, 107
2, 26388, Note_on_c, 0, 78, 0
2, 26400, Note_on_c, 0, 76, 107
2, 26448, Note_on_c, 0, 76, 0
2, 26460, Note_on_c, 0, 78, 107
2, 26508, Note_on_c, 0, 78, 0
2, 26520, Note_on_c, 0, 79, 107
2, 26544, Note_on_c, 0, 79, 0
2, 26550, Note_on_c, 0, 78, 107
2, 26574, Note_on_c, 0, 78, 0
2, 26580, Note_on_c, 0, 79, 107
2, 26604, Note_on_c, 0, 79, 0
2, 26610, Note_on_c, 0, 78, 107
2, 26634, Note_on_c, 0, 78, 0
2, 26640, Note_on_c, 0, 79, 107
2, 26664, Note_on_c, 0, 79, 0
2, 26670, Note_on_c, 0, 78, 107
2, 26694, Note_on_c, 0, 78, 0
2, 26700, Note_on_c, 0, 76, 107
2, 26724, Note_on_c, 0, 76, 0
2, 26730, Note_on_c, 0, 78, 107
2, 26754, Note_on_c, 0, 78, 0
2, 26760, Note_on_c, 0, 79, 107
2, 26808, Note_on_c, 0, 79, 0
2, 26820, Note_on_c, 0, 81, 107
2, 26868, Note_on_c, 0, 81, 0
2, 26880, Note_on_c, 0, 79, 107
2, 26928, Note_on_c, 0, 79, 0
2, 26940, Note_on_c, 0, 78, 107
2, 26988, Note_on_c, 0, 78, 0
2, 27000, Note_on_c, 0, 76, 107
2, 27048, Note_on_c, 0, 76, 0
2, 27060, Note_on_c, 0, 74, 107
2, 27108, Note_on_c, 0, 74, 0
2, 27120, Note_on_c, 0, 72, 107
2, 27168, Note_on_c, 0, 72, 0
2, 27180, Note_on_c, 0, 83, 107
2, 27228, Note_on_c, 0, 83, 0
2, 27240, Note_on_c, 0, 81, 107
2, 27288, Note_on_c, 0, 81, 0
2, 27300, Note_on_c, 0, 79, 107
2, 27348, Note_on_c, 0, 79, 0
2, 27360, Note_on_c, 0, 78, 107
2, 27408, Note_on_c, 0, 78, 0
2, 27420, Note_on_c, 0, 76, 107
2, 27468, Note_on_c, 0, 76, 0
2, 27480, Note_on_c, 0, 75, 107
2, 27528, Note_on_c, 0, 75, 0
2, 27540, Note_on_c, 0, 76, 107
2, 27588, Note_on_c, 0, 76, 0
2, 27600, Note_on_c, 0, 78, 107
2, 27624, Note_on_c, 0, 78, 0
2, 27630, Note_on_c, 0, 76, 107
2, 27654, Note_on_c, 0, 76, 0
2, 27660, Note_on_c, 0, 78, 107
2, 27689, Note_on_c, 0, 78, 0
2, 27690, Note_on_c, 0, 76, 107
2, 27714, Note_on_c, 0, 76, 0
2, 27720, Note_on_c, 0, 78, 107
2, 27744, Note_on_c, 0, 78, 0
2, 27750, Note_on_c, 0, 76, 107
2, 27774, Note_on_c, 0, 76, 0
2, 27780, Note_on_c, 0, 74, 107
2, 27804, Note_on_c, 0, 74, 0
2, 27810, Note_on_c, 0, 76, 107
2, 27834, Note_on_c, 0, 76, 0
2, 27840, Note_on_c, 0, 78, 107
2, 27888, Note_on_c, 0, 78, 0
2, 27900, Note_on_c, 0, 79, 107
2, 27948, Note_on_c, 0, 79, 0
2, 27960, Note_on_c, 0, 81, 107
2, 27984, Note_on_c, 0, 81, 0
2, 27990, Note_on_c, 0, 79, 107
2, 28014, Note_on_c, 0, 79, 0
2, 28020, Note_on_c, 0, 81, 107
2, 28044, Note_on_c, 0, 81, 0
2, 28050, Note_on_c, 0, 79, 107
2, 28074, Note_on_c, 0, 79, 0
2, 28080, Note_on_c, 0, 81, 107
2, 28104, Note_on_c, 0, 81, 0
2, 28110, Note_on_c, 0, 79, 107
2, 28139, Note_on_c, 0, 79, 0
2, 28140, Note_on_c, 0, 78, 107
2, 28164, Note_on_c, 0, 78, 0
2, 28170, Note_on_c, 0, 79, 107
2, 28194, Note_on_c, 0, 79, 0
2, 28200, Note_on_c, 0, 81, 107
2, 28344, Note_on_c, 0, 81, 0
2, 28380, Note_on_c, 0, 83, 107
2, 28428, Note_on_c, 0, 83, 0
2, 28440, Note_on_c, 0, 79, 107
2, 28464, Note_on_c, 0, 79, 0
2, 28470, Note_on_c, 0, 78, 107
2, 28494, Note_on_c, 0, 78, 0
2, 28500, Note_on_c, 0, 79, 107
2, 28608, Note_on_c, 0, 79, 0
2, 28620, Note_on_c, 0, 81, 107
2, 28668, Note_on_c, 0, 81, 0
2, 28680, Note_on_c, 0, 78, 107
2, 28704, Note_on_c, 0, 78, 0
2, 28710, Note_on_c, 0, 79, 107
2, 28734, Note_on_c, 0, 79, 0
2, 28740, Note_on_c, 0, 78, 107
2, 28836, Note_on_c, 0, 78, 0
2, 28860, Note_on_c, 0, 83, 107
2, 28908, Note_on_c, 0, 83, 0
2, 28920, Note_on_c, 0, 80, 107
2, 28968, Note_on_c, 0, 80, 0
2, 28980, Note_on_c, 0, 81, 107
2, 29028, Note_on_c, 0, 81, 0
2, 29040, Note_on_c, 0, 80, 107
2, 29088, Note_on_c, 0, 80, 0
2, 29100, Note_on_c, 0, 78, 107
2, 29148, Note_on_c, 0, 78, 0
2, 29160, Note_on_c, 0, 76, 107
2, 29208, Note_on_c, 0, 76, 0
2, 29220, Note_on_c, 0, 74, 107
2, 29268, Note_on_c, 0, 74, 0
2, 29280, Note_on_c, 0, 73, 107
2, 29328, Note_on_c, 0, 73, 0
2, 29340, Note_on_c, 0, 71, 107
2, 29388, Note_on_c, 0, 71, 0
2, 29400, Note_on_c, 0, 69, 107
2, 29448, Note_on_c, 0, 69, 0
2, 29460, Note_on_c, 0, 71, 107
2, 29508, Note_on_c, 0, 71, 0
2, 29520, Note_on_c, 0, 73, 107
2, 29568, Note_on_c, 0, 73, 0
2, 29580, Note_on_c, 0, 74, 107
2, 29628, Note_on_c, 0, 74, 0
2, 29640, Note_on_c, 0, 76, 107
2, 29688, Note_on_c, 0, 76, 0
2, 29700, Note_on_c, 0, 74, 107
2, 29748, Note_on_c, 0, 74, 0
2, 29760, Note_on_c, 0, 73, 107
2, 29808, Note_on_c, 0, 73, 0
2, 29820, Note_on_c, 0, 71, 107
2, 29868, Note_on_c, 0, 71, 0
2, 29880, Note_on_c, 0, 69, 107
2, 29928, Note_on_c, 0, 69, 0
2, 29940, Note_on_c, 0, 67, 107
2, 29988, Note_on_c, 0, 67, 0
2, 30000, Note_on_c, 0, 66, 107
2, 30048, Note_on_c, 0, 66, 0
2, 30060, Note_on_c, 0, 64, 107
2, 30108, Note_on_c, 0, 64, 0
2, 30120, Note_on_c, 0, 62, 107
2, 30168, Note_on_c, 0, 62, 0
2, 30180, Note_on_c, 0, 64, 107
2, 30228, Note_on_c, 0, 64, 0
2, 30240, Note_on_c, 0, 66, 107
2, 30288, Note_on_c, 0, 66, 0
2, 30300, Note_on_c, 0, 67, 107
2, 30348, Note_on_c, 0, 67, 0
2, 30360, Note_on_c, 0, 69, 107
2, 30408, Note_on_c, 0, 69, 0
2, 30420, Note_on_c, 0, 62, 107
2, 30468, Note_on_c, 0, 62, 0
2, 30480, Note_on_c, 0, 74, 107
2, 30768, Note_on_c, 0, 74, 0
2, 30780, Note_on_c, 0, 71, 107
2, 30828, Note_on_c, 0, 71, 0
2, 30840, Note_on_c, 0, 68, 107
2, 30888, Note_on_c, 0, 68, 0
2, 30900, Note_on_c, 0, 71, 107
2, 30948, Note_on_c, 0, 71, 0
2, 30960, Note_on_c, 0, 64, 107
2, 31056, Note_on_c, 0, 64, 0
2, 31080, Note_on_c, 0, 64, 107
2, 31128, Note_on_c, 0, 64, 0
2, 31140, Note_on_c, 0, 69, 107
2, 31188, Note_on_c, 0, 69, 0
2, 31200, Note_on_c, 0, 73, 107
2, 31488, Note_on_c, 0, 73, 0
2, 31500, Note_on_c, 0, 69, 107
2, 31548, Note_on_c, 0, 69, 0
2, 31560, Note_on_c, 0, 66, 107
2, 31608, Note_on_c, 0, 66, 0
2, 31620, Note_on_c, 0, 69, 107
2, 31668, Note_on_c, 0, 69, 0
2, 31680, Note_on_c, 0, 62, 107
2, 31728, Note_on_c, 0, 62, 0
2, 31740, Note_on_c, 0, 73, 107
2, 31788, Note_on_c, 0, 73, 0
2, 31800, Note_on_c, 0, 71, 107
2, 31848, Note_on_c, 0, 71, 0
2, 31860, Note_on_c, 0, 68, 107
2, 31908, Note_on_c, 0, 68, 0
2, 31920, Note_on_c, 0, 64, 107
2, 31968, Note_on_c, 0, 64, 0
2, 31980, Note_on_c, 0, 68, 107
2, 32028, Note_on_c, 0, 68, 0
2, 32040, Note_on_c, 0, 61, 107
2, 32088, Note_on_c, 0, 61, 0
2, 32100, Note_on_c, 0, 71, 107
2, 32148, Note_on_c, 0, 71, 0
2, 32160, Note_on_c, 0, 69, 107
2, 32208, Note_on_c, 0, 69, 0
2, 32220, Note_on_c, 0, 66, 107
2, 32268, Note_on_c, 0, 66, 0
2, 32280, Note_on_c, 0, 62, 107
2, 32328, Note_on_c, 0, 62, 0
2, 32340, Note_on_c, 0, 66, 107
2, 32388, Note_on_c, 0, 66, 0
2, 32400, Note_on_c, 0, 59, 107
2, 32448, Note_on_c, 0, 59, 0
2, 32460, Note_on_c, 0, 69, 107
2, 32508, Note_on_c, 0, 69, 0
2, 32520, Note_on_c, 0, 68, 107
2, 32568, Note_on_c, 0, 68, 0
2, 32580, Note_on_c, 0, 64, 107
2, 32628, Note_on_c, 0, 64, 0
2, 32640, Note_on_c, 0, 66, 107
2, 32688, Note_on_c, 0, 66, 0
2, 32700, Note_on_c, 0, 68, 107
2, 32748, Note_on_c, 0, 68, 0
2, 32760, Note_on_c, 0, 69, 107
2, 32808, Note_on_c, 0, 69, 0
2, 32820, Note_on_c, 0, 71, 107
2, 32868, Note_on_c, 0, 71, 0
2, 32880, Note_on_c, 0, 69, 107
2, 32928, Note_on_c, 0, 69, 0
2, 32940, Note_on_c, 0, 71, 107
2, 32988, Note_on_c, 0, 71, 0
2, 33000, Note_on_c, 0, 73, 107
2, 33024, Note_on_c, 0, 73, 0
2, 33030, Note_on_c, 0, 71, 107
2, 33054, Note_on_c, 0, 71, 0
2, 33060, Note_on_c, 0, 73, 107
2, 33084, Note_on_c, 0, 73, 0
2, 33090, Note_on_c, 0, 71, 107
2, 33114, Note_on_c, 0, 71, 0
2, 33120, Note_on_c, 0, 73, 107
2, 33144, Note_on_c, 0, 73, 0
2, 33150, Note_on_c, 0, 71, 107
2, 33179, Note_on_c, 0, 71, 0
2, 33180, Note_on_c, 0, 69, 107
2, 33204, Note_on_c, 0, 69, 0
2, 33210, Note_on_c, 0, 71, 107
2, 33234, Note_on_c, 0, 71, 0
2, 33240, Note_on_c, 0, 73, 107
2, 33288, Note_on_c, 0, 73, 0
2, 33300, Note_on_c, 0, 69, 107
2, 33348, Note_on_c, 0, 69, 0
2, 33360, Note_on_c, 0, 71, 107
2, 33408, Note_on_c, 0, 71, 0
2, 33420, Note_on_c, 0, 73, 107
2, 33468, Note_on_c, 0, 73, 0
2, 33480, Note_on_c, 0, 74, 107
2, 33528, Note_on_c, 0, 74, 0
2, 33540, Note_on_c, 0, 76, 107
2, 33588, Note_on_c, 0, 76, 0
2, 33600, Note_on_c, 0, 74, 107
2, 33648, Note_on_c, 0, 74, 0
2, 33660, Note_on_c, 0, 76, 107
2, 33708, Note_on_c, 0, 76, 0
2, 33720, Note_on_c, 0, 78, 107
2, 33744, Note_on_c, 0, 78, 0
2, 33750, Note_on_c, 0, 76, 107
2, 33774, Note_on_c, 0, 76, 0
2, 33780, Note_on_c, 0, 78, 107
2, 33804, Note_on_c, 0, 78, 0
2, 33810, Note_on_c, 0, 76, 107
2, 33834, Note_on_c, 0, 76, 0
2, 33840, Note_on_c, 0, 78, 107
2, 33864, Note_on_c, 0, 78, 0
2, 33870, Note_on_c, 0, 76, 107
2, 33899, Note_on_c, 0, 76, 0
2, 33900, Note_on_c, 0, 74, 107
2, 33924, Note_on_c, 0, 74, 0
2, 33930, Note_on_c, 0, 76, 107
2, 33954, Note_on_c, 0, 76, 0
2, 33960, Note_on_c, 0, 78, 107
2, 34008, Note_on_c, 0, 78, 0
2, 34020, Note_on_c, 0, 74, 107
2, 34068, Note_on_c, 0, 74, 0
2, 34080, Note_on_c, 0, 76, 107
2, 34128, Note_on_c, 0, 76, 0
2, 34140, Note_on_c, 0, 78, 107
2, 34188, Note_on_c, 0, 78, 0
2, 34200, Note_on_c, 0, 79, 107
2, 34248, Note_on_c, 0, 79, 0
2, 34260, Note_on_c, 0, 81, 107
2, 34308, Note_on_c, 0, 81, 0
2, 34320, Note_on_c, 0, 80, 107
2, 34368, Note_on_c, 0, 80, 0
2, 34380, Note_on_c, 0, 81, 107
2, 34428, Note_on_c, 0, 81, 0
2, 34440, Note_on_c, 0, 83, 107
2, 34464, Note_on_c, 0, 83, 0
2, 34470, Note_on_c, 0, 81, 107
2, 34494, Note_on_c, 0, 81, 0
2, 34500, Note_on_c, 0, 83, 107
2, 34524, Note_on_c, 0, 83, 0
2, 34530, Note_on_c, 0, 81, 107
2, 34554, Note_on_c, 0, 81, 0
2, 34560, Note_on_c, 0, 83, 107
2, 34584, Note_on_c, 0, 83, 0
2, 34590, Note_on_c, 0, 81, 107
2, 34619, Note_on_c, 0, 81, 0
2, 34620, Note_on_c, 0, 80, 107
2, 34644, Note_on_c, 0, 80, 0
2, 34650, Note_on_c, 0, 81, 107
2, 34674, Note_on_c, 0, 81, 0
2, 34680, Note_on_c, 0, 83, 107
2, 34728, Note_on_c, 0, 83, 0
2, 34740, Note_on_c, 0, 81, 107
2, 34788, Note_on_c, 0, 81, 0
2, 34800, Note_on_c, 0, 80, 107
2, 34848, Note_on_c, 0, 80, 0
2, 34860, Note_on_c, 0, 78, 107
2, 34908, Note_on_c, 0, 78, 0
2, 34920, Note_on_c, 0, 76, 107
2, 34968, Note_on_c, 0, 76, 0
2, 34980, Note_on_c, 0, 74, 107
2, 35028, Note_on_c, 0, 74, 0
2, 35040, Note_on_c, 0, 73, 107
2, 35088, Note_on_c, 0, 73, 0
2, 35100, Note_on_c, 0, 71, 107
2, 35148, Note_on_c, 0, 71, 0
2, 35160, Note_on_c, 0, 69, 107
2, 35208, Note_on_c, 0, 69, 0
2, 35220, Note_on_c, 0, 71, 107
2, 35268, Note_on_c, 0, 71, 0
2, 35280, Note_on_c, 0, 73, 107
2, 35328, Note_on_c, 0, 73, 0
2, 35340, Note_on_c, 0, 74, 107
2, 35388, Note_on_c, 0, 74, 0
2, 35400, Note_on_c, 0, 76, 107
2, 35448, Note_on_c, 0, 76, 0
2, 35460, Note_on_c, 0, 74, 107
2, 35508, Note_on_c, 0, 74, 0
2, 35520, Note_on_c, 0, 73, 107
2, 35568, Note_on_c, 0, 73, 0
2, 35580, Note_on_c, 0, 71, 107
2, 35628, Note_on_c, 0, 71, 0
2, 35640, Note_on_c, 0, 69, 107
2, 35688, Note_on_c, 0, 69, 0
2, 35700, Note_on_c, 0, 67, 107
2, 35748, Note_on_c, 0, 67, 0
2, 35760, Note_on_c, 0, 66, 107
2, 35808, Note_on_c, 0, 66, 0
2, 35820, Note_on_c, 0, 76, 107
2, 35868, Note_on_c, 0, 76, 0
2, 35880, Note_on_c, 0, 74, 107
2, 35928, Note_on_c, 0, 74, 0
2, 35940, Note_on_c, 0, 73, 107
2, 35988, Note_on_c, 0, 73, 0
2, 36000, Note_on_c, 0, 71, 107
2, 36048, Note_on_c, 0, 71, 0
2, 36060, Note_on_c, 0, 69, 107
2, 36108, Note_on_c, 0, 69, 0
2, 36120, Note_on_c, 0, 68, 107
2, 36168, Note_on_c, 0, 68, 0
2, 36180, Note_on_c, 0, 64, 107
2, 36228, Note_on_c, 0, 64, 0
2, 36240, Note_on_c, 0, 66, 107
2, 36288, Note_on_c, 0, 66, 0
2, 36300, Note_on_c, 0, 68, 107
2, 36348, Note_on_c, 0, 68, 0
2, 36360, Note_on_c, 0, 69, 107
2, 36408, Note_on_c, 0, 69, 0
2, 36420, Note_on_c, 0, 68, 107
2, 36468, Note_on_c, 0, 68, 0
2, 36480, Note_on_c, 0, 69, 107
2, 36528, Note_on_c, 0, 69, 0
2, 36540, Note_on_c, 0, 71, 107
2, 36588, Note_on_c, 0, 71, 0
2, 36600, Note_on_c, 0, 69, 107
2, 36624, Note_on_c, 0, 69, 0
2, 36630, Note_on_c, 0, 68, 107
2, 36654, Note_on_c, 0, 68, 0
2, 36660, Note_on_c, 0, 69, 107
2, 36684, Note_on_c, 0, 69, 0
2, 36690, Note_on_c, 0, 68, 107
2, 36714, Note_on_c, 0, 68, 0
2, 36720, Note_on_c, 0, 69, 107
2, 36744, Note_on_c, 0, 69, 0
2, 36750, Note_on_c, 0, 68, 107
2, 36779, Note_on_c, 0, 68, 0
2, 36780, Note_on_c, 0, 66, 107
2, 36804, Note_on_c, 0, 66, 0
2, 36810, Note_on_c, 0, 68, 107
2, 36834, Note_on_c, 0, 68, 0
2, 36840, Note_on_c, 0, 69, 107
2, 36888, Note_on_c, 0, 69, 0
2, 36900, Note_on_c, 0, 71, 107
2, 36948, Note_on_c, 0, 71, 0
2, 36960, Note_on_c, 0, 73, 107
2, 37008, Note_on_c, 0, 73, 0
2, 37020, Note_on_c, 0, 74, 107
2, 37068, Note_on_c, 0, 74, 0
2, 37080, Note_on_c, 0, 76, 107
2, 37128, Note_on_c, 0, 76, 0
2, 37140, Note_on_c, 0, 73, 107
2, 37188, Note_on_c, 0, 73, 0
2, 37200, Note_on_c, 0, 78, 107
2, 37248, Note_on_c, 0, 78, 0
2, 37260, Note_on_c, 0, 76, 107
2, 37308, Note_on_c, 0, 76, 0
2, 37320, Note_on_c, 0, 74, 107
2, 37368, Note_on_c, 0, 74, 0
2, 37380, Note_on_c, 0, 73, 107
2, 37428, Note_on_c, 0, 73, 0
2, 37440, Note_on_c, 0, 71, 107
2, 37488, Note_on_c, 0, 71, 0
2, 37500, Note_on_c, 0, 69, 107
2, 37548, Note_on_c, 0, 69, 0
2, 37560, Note_on_c, 0, 68, 107
2, 37608, Note_on_c, 0, 68, 0
2, 37620, Note_on_c, 0, 69, 107
2, 37668, Note_on_c, 0, 69, 0
2, 37680, Note_on_c, 0, 71, 107
2, 37728, Note_on_c, 0, 71, 0
2, 37740, Note_on_c, 0, 73, 107
2, 37788, Note_on_c, 0, 73, 0
2, 37800, Note_on_c, 0, 74, 107
2, 37848, Note_on_c, 0, 74, 0
2, 37860, Note_on_c, 0, 71, 107
2, 37908, Note_on_c, 0, 71, 0
2, 37920, Note_on_c, 0, 76, 107
2, 37968, Note_on_c, 0, 76, 0
2, 37980, Note_on_c, 0, 74, 107
2, 38028, Note_on_c, 0, 74, 0
2, 38040, Note_on_c, 0, 73, 107
2, 38088, Note_on_c, 0, 73, 0
2, 38100, Note_on_c, 0, 71, 107
2, 38148, Note_on_c, 0, 71, 0
2, 38160, Note_on_c, 0, 69, 107
2, 38208, Note_on_c, 0, 69, 0
2, 38220, Note_on_c, 0, 68, 107
2, 38268, Note_on_c, 0, 68, 0
2, 38280, Note_on_c, 0, 66, 107
2, 38328, Note_on_c, 0, 66, 0
2, 38340, Note_on_c, 0, 68, 107
2, 38388, Note_on_c, 0, 68, 0
2, 38400, Note_on_c, 0, 69, 107
2, 38448, Note_on_c, 0, 69, 0
2, 38460, Note_on_c, 0, 71, 107
2, 38508, Note_on_c, 0, 71, 0
2, 38520, Note_on_c, 0, 73, 107
2, 38568, Note_on_c, 0, 73, 0
2, 38580, Note_on_c, 0, 69, 107
2, 38628, Note_on_c, 0, 69, 0
2, 38640, Note_on_c, 0, 74, 107
2, 38688, Note_on_c, 0, 74, 0
2, 38700, Note_on_c, 0, 73, 107
2, 38748, Note_on_c, 0, 73, 0
2, 38760, Note_on_c, 0, 71, 107
2, 38808, Note_on_c, 0, 71, 0
2, 38820, Note_on_c, 0, 69, 107
2, 38868, Note_on_c, 0, 69, 0
2, 38880, Note_on_c, 0, 68, 107
2, 38928, Note_on_c, 0, 68, 0
2, 38940, Note_on_c, 0, 66, 107
2, 38988, Note_on_c, 0, 66, 0
2, 39000, Note_on_c, 0, 64, 107
2, 39048, Note_on_c, 0, 64, 0
2, 39060, Note_on_c, 0, 74, 107
2, 39108, Note_on_c, 0, 74, 0
2, 39120, Note_on_c, 0, 73, 107
2, 39168, Note_on_c, 0, 73, 0
2, 39180, Note_on_c, 0, 71, 107
2, 39228, Note_on_c, 0, 71, 0
2, 39240, Note_on_c, 0, 69, 107
2, 39288, Note_on_c, 0, 69, 0
2, 39300, Note_on_c, 0, 68, 107
2, 39348, Note_on_c, 0, 68, 0
2, 39360, Note_on_c, 0, 69, 107
2, 39408, Note_on_c, 0, 69, 0
2, 39420, Note_on_c, 0, 71, 107
2, 39468, Note_on_c, 0, 71, 0
2, 39480, Note_on_c, 0, 71, 107
2, 39492, Note_on_c, 0, 71, 0
2, 39495, Note_on_c, 0, 73, 107
2, 39507, Note_on_c, 0, 73, 0
2, 39510, Note_on_c, 0, 71, 107
2, 39522, Note_on_c, 0, 71, 0
2, 39525, Note_on_c, 0, 73, 107
2, 39537, Note_on_c, 0, 73, 0
2, 39540, Note_on_c, 0, 71, 107
2, 39552, Note_on_c, 0, 71, 0
2, 39555, Note_on_c, 0, 73, 107
2, 39567, Note_on_c, 0, 73, 0
2, 39570, Note_on_c, 0, 71, 107
2, 39582, Note_on_c, 0, 71, 0
2, 39585, Note_on_c, 0, 73, 107
2, 39597, Note_on_c, 0, 73, 0
2, 39600, Note_on_c, 0, 71, 107
2, 39612, Note_on_c, 0, 71, 0
2, 39615, Note_on_c, 0, 73, 107
2, 39627, Note_on_c, 0, 73, 0
2, 39630, Note_on_c, 0, 71, 107
2, 39642, Note_on_c, 0, 71, 0
2, 39645, Note_on_c, 0, 73, 107
2, 39660, Note_on_c, 0, 73, 0
2, 39660, Note_on_c, 0, 69, 107
2, 39708, Note_on_c, 0, 69, 0
2, 39720, Note_on_c, 0, 69, 107
2, 40272, Note_on_c, 0, 69, 0
2, 40320, Note_on_c, 0, 71, 107
2, 40416, Note_on_c, 0, 71, 0
2, 40440, Note_on_c, 0, 64, 107
2, 40536, Note_on_c, 0, 64, 0
2, 40560, Note_on_c, 0, 66, 107
2, 40608, Note_on_c, 0, 66, 0
2, 40620, Note_on_c, 0, 68, 107
2, 40668, Note_on_c, 0, 68, 0
2, 40680, Note_on_c, 0, 69, 107
2, 40728, Note_on_c, 0, 69, 0
2, 40740, Note_on_c, 0, 71, 107
2, 40788, Note_on_c, 0, 71, 0
2, 40800, Note_on_c, 0, 69, 107
2, 40848, Note_on_c, 0, 69, 0
2, 40860, Note_on_c, 0, 71, 107
2, 40908, Note_on_c, 0, 71, 0
2, 40920, Note_on_c, 0, 73, 107
2, 40949, Note_on_c, 0, 73, 0
2, 40950, Note_on_c, 0, 71, 107
2, 40979, Note_on_c, 0, 71, 0
2, 40980, Note_on_c, 0, 73, 107
2, 41009, Note_on_c, 0, 73, 0
2, 41010, Note_on_c, 0, 71, 107
2, 41039, Note_on_c, 0, 71, 0
2, 41040, Note_on_c, 0, 73, 107
2, 41069, Note_on_c, 0, 73, 0
2, 41070, Note_on_c, 0, 71, 107
2, 41099, Note_on_c, 0, 71, 0
2, 41100, Note_on_c, 0, 69, 107
2, 41124, Note_on_c, 0, 69, 0
2, 41130, Note_on_c, 0, 71, 107
2, 41154, Note_on_c, 0, 71, 0
2, 41160, Note_on_c, 0, 73, 107
2, 41208, Note_on_c, 0, 73, 0
2, 41220, Note_on_c, 0, 74, 107
2, 41268, Note_on_c, 0, 74, 0
2, 41280, Note_on_c, 0, 73, 107
2, 41328, Note_on_c, 0, 73, 0
2, 41340, Note_on_c, 0, 71, 107
2, 41388, Note_on_c, 0, 71, 0
2, 41400, Note_on_c, 0, 69, 107
2, 41448, Note_on_c, 0, 69, 0
2, 41460, Note_on_c, 0, 67, 107
2, 41508, Note_on_c, 0, 67, 0
2, 41520, Note_on_c, 0, 66, 107
2, 41568, Note_on_c, 0, 66, 0
2, 41580, Note_on_c, 0, 78, 107
2, 41628, Note_on_c, 0, 78, 0
2, 41640, Note_on_c, 0, 76, 107
2, 41688, Note_on_c, 0, 76, 0
2, 41700, Note_on_c, 0, 74, 107
2, 41748, Note_on_c, 0, 74, 0
2, 41760, Note_on_c, 0, 73, 107
2, 41808, Note_on_c, 0, 73, 0
2, 41820, Note_on_c, 0, 71, 107
2, 41868, Note_on_c, 0, 71, 0
2, 41880, Note_on_c, 0, 70, 107
2, 41928, Note_on_c, 0, 70, 0
2, 41940, Note_on_c, 0, 71, 107
2, 41988, Note_on_c, 0, 71, 0
2, 42000, Note_on_c, 0, 73, 107
2, 42029, Note_on_c, 0, 73, 0
2, 42030, Note_on_c, 0, 71, 107
2, 42059, Note_on_c, 0, 71, 0
2, 42060, Note_on_c, 0, 73, 107
2, 42089, Note_on_c, 0, 73, 0
2, 42090, Note_on_c, 0, 71, 107
2, 42119, Note_on_c, 0, 71, 0
2, 42120, Note_on_c, 0, 73, 107
2, 42149, Note_on_c, 0, 73, 0
2, 42150, Note_on_c, 0, 71, 107
2, 42179, Note_on_c, 0, 71, 0
2, 42180, Note_on_c, 0, 70, 107
2, 42204, Note_on_c, 0, 70, 0
2, 42210, Note_on_c, 0, 71, 107
2, 42234, Note_on_c, 0, 71, 0
2, 42240, Note_on_c, 0, 73, 107
2, 42297, Note_on_c, 0, 73, 0
2, 42300, Note_on_c, 0, 74, 107
2, 42357, Note_on_c, 0, 74, 0
2, 42360, Note_on_c, 0, 76, 107
2, 42389, Note_on_c, 0, 76, 0
2, 42390, Note_on_c, 0, 74, 107
2, 42419, Note_on_c, 0, 74, 0
2, 42420, Note_on_c, 0, 76, 107
2, 42449, Note_on_c, 0, 76, 0
2, 42450, Note_on_c, 0, 74, 107
2, 42479, Note_on_c, 0, 74, 0
2, 42480, Note_on_c, 0, 76, 107
2, 42509, Note_on_c, 0, 76, 0
2, 42510, Note_on_c, 0, 74, 107
2, 42534, Note_on_c, 0, 74, 0
2, 42540, Note_on_c, 0, 73, 107
2, 42564, Note_on_c, 0, 73, 0
2, 42570, Note_on_c, 0, 74, 107
2, 42594, Note_on_c, 0, 74, 0
2, 42600, Note_on_c, 0, 76, 107
2, 42744, Note_on_c, 0, 76, 0
2, 42780, Note_on_c, 0, 78, 107
2, 42828, Note_on_c, 0, 78, 0
2, 42840, Note_on_c, 0, 74, 107
2, 43008, Note_on_c, 0, 74, 0
2, 43020, Note_on_c, 0, 76, 107
2, 43068, Note_on_c, 0, 76, 0
2, 43080, Note_on_c, 0, 74, 107
2, 43104, Note_on_c, 0, 74, 0
2, 43110, Note_on_c, 0, 73, 107
2, 43134, Note_on_c, 0, 73, 0
2, 43140, Note_on_c, 0, 74, 107
2, 43169, Note_on_c, 0, 74, 0
2, 43170, Note_on_c, 0, 73, 107
2, 43194, Note_on_c, 0, 73, 0
2, 43200, Note_on_c, 0, 74, 107
2, 43224, Note_on_c, 0, 74, 0
2, 43230, Note_on_c, 0, 73, 107
2, 43254, Note_on_c, 0, 73, 0
2, 43260, Note_on_c, 0, 78, 107
2, 43308, Note_on_c, 0, 78, 0
2, 43320, Note_on_c, 0, 75, 107
2, 43368, Note_on_c, 0, 75, 0
2, 43380, Note_on_c, 0, 71, 107
2, 43428, Note_on_c, 0, 71, 0
2, 43440, Note_on_c, 0, 73, 107
2, 43488, Note_on_c, 0, 73, 0
2, 43500, Note_on_c, 0, 75, 107
2, 43548, Note_on_c, 0, 75, 0
2, 43560, Note_on_c, 0, 76, 107
2, 43608, Note_on_c, 0, 76, 0
2, 43620, Note_on_c, 0, 78, 107
2, 43668, Note_on_c, 0, 78, 0
2, 43680, Note_on_c, 0, 76, 107
2, 43728, Note_on_c, 0, 76, 0
2, 43740, Note_on_c, 0, 78, 107
2, 43788, Note_on_c, 0, 78, 0
2, 43800, Note_on_c, 0, 79, 107
2, 43824, Note_on_c, 0, 79, 0
2, 43830, Note_on_c, 0, 78, 107
2, 43854, Note_on_c, 0, 78, 0
2, 43860, Note_on_c, 0, 79, 107
2, 43884, Note_on_c, 0, 79, 0
2, 43890, Note_on_c, 0, 78, 107
2, 43914, Note_on_c, 0, 78, 0
2, 43920, Note_on_c, 0, 79, 107
2, 43944, Note_on_c, 0, 79, 0
2, 43950, Note_on_c, 0, 78, 107
2, 43974, Note_on_c, 0, 78, 0
2, 43980, Note_on_c, 0, 76, 107
2, 44004, Note_on_c, 0, 76, 0
2, 44010, Note_on_c, 0, 78, 107
2, 44034, Note_on_c, 0, 78, 0
2, 44040, Note_on_c, 0, 79, 107
2, 44088, Note_on_c, 0, 79, 0
2, 44100, Note_on_c, 0, 81, 107
2, 44148, Note_on_c, 0, 81, 0
2, 44160, Note_on_c, 0, 79, 107
2, 44208, Note_on_c, 0, 79, 0
2, 44220, Note_on_c, 0, 78, 107
2, 44268, Note_on_c, 0, 78, 0
2, 44280, Note_on_c, 0, 76, 107
2, 44328, Note_on_c, 0, 76, 0
2, 44340, Note_on_c, 0, 74, 107
2, 44388, Note_on_c, 0, 74, 0
2, 44400, Note_on_c, 0, 72, 107
2, 44448, Note_on_c, 0, 72, 0
2, 44460, Note_on_c, 0, 83, 107
2, 44508, Note_on_c, 0, 83, 0
2, 44520, Note_on_c, 0, 81, 107
2, 44568, Note_on_c, 0, 81, 0
2, 44580, Note_on_c, 0, 79, 107
2, 44628, Note_on_c, 0, 79, 0
2, 44640, Note_on_c, 0, 78, 107
2, 44688, Note_on_c, 0, 78, 0
2, 44700, Note_on_c, 0, 76, 107
2, 44748, Note_on_c, 0, 76, 0
2, 44760, Note_on_c, 0, 75, 107
2, 44808, Note_on_c, 0, 75, 0
2, 44820, Note_on_c, 0, 76, 107
2, 44868, Note_on_c, 0, 76, 0
2, 44880, Note_on_c, 0, 78, 107
2, 44904, Note_on_c, 0, 78, 0
2, 44910, Note_on_c, 0, 76, 107
2, 44934, Note_on_c, 0, 76, 0
2, 44940, Note_on_c, 0, 78, 107
2, 44969, Note_on_c, 0, 78, 0
2, 44970, Note_on_c, 0, 76, 107
2, 44994, Note_on_c, 0, 76, 0
2, 45000, Note_on_c, 0, 78, 107
2, 45024, Note_on_c, 0, 78, 0
2, 45030, Note_on_c, 0, 76, 107
2, 45054, Note_on_c, 0, 76, 0
2, 45060, Note_on_c, 0, 74, 107
2, 45084, Note_on_c, 0, 74, 0
2, 45090, Note_on_c, 0, 76, 107
2, 45114, Note_on_c, 0, 76, 0
2, 45120, Note_on_c, 0, 78, 107
2, 45168, Note_on_c, 0, 78, 0
2, 45180, Note_on_c, 0, 79, 107
2, 45228, Note_on_c, 0, 79, 0
2, 45240, Note_on_c, 0, 81, 107
2, 45264, Note_on_c, 0, 81, 0
2, 45270, Note_on_c, 0, 79, 107
2, 45294, Note_on_c, 0, 79, 0
2, 45300, Note_on_c, 0, 81, 107
2, 45324, Note_on_c, 0, 81, 0
2, 45330, Note_on_c, 0, 79, 107
2, 45354, Note_on_c, 0, 79, 0
2, 45360, Note_on_c, 0, 81, 107
2, 45384, Note_on_c, 0, 81, 0
2, 45390, Note_on_c, 0, 79, 107
2, 45419, Note_on_c, 0, 79, 0
2, 45420, Note_on_c, 0, 78, 107
2, 45444, Note_on_c, 0, 78, 0
2, 45450, Note_on_c, 0, 79, 107
2, 45474, Note_on_c, 0, 79, 0
2, 45480, Note_on_c, 0, 81, 107
2, 45624, Note_on_c, 0, 81, 0
2, 45660, Note_on_c, 0, 83, 107
2, 45708, Note_on_c, 0, 83, 0
2, 45720, Note_on_c, 0, 79, 107
2, 45744, Note_on_c, 0, 79, 0
2, 45750, Note_on_c, 0, 78, 107
2, 45774, Note_on_c, 0, 78, 0
2, 45780, Note_on_c, 0, 79, 107
2, 45888, Note_on_c, 0, 79, 0
2, 45900, Note_on_c, 0, 81, 107
2, 45948, Note_on_c, 0, 81, 0
2, 45960, Note_on_c, 0, 78, 107
2, 45984, Note_on_c, 0, 78, 0
2, 45990, Note_on_c, 0, 79, 107
2, 46014, Note_on_c, 0, 79, 0
2, 46020, Note_on_c, 0, 78, 107
2, 46116, Note_on_c, 0, 78, 0
2, 46140, Note_on_c, 0, 83, 107
2, 46188, Note_on_c, 0, 83, 0
2, 46200, Note_on_c, 0, 80, 107
2, 46248, Note_on_c, 0, 80, 0
2, 46260, Note_on_c, 0, 81, 107
2, 46308, Note_on_c, 0, 81, 0
2, 46320, Note_on_c, 0, 80, 107
2, 46368, Note_on_c, 0, 80, 0
2, 46380, Note_on_c, 0, 78, 107
2, 46428, Note_on_c, 0, 78, 0
2, 46440, Note_on_c, 0, 76, 107
2, 46488, Note_on_c, 0, 76, 0
2, 46500, Note_on_c, 0, 74, 107
2, 46548, Note_on_c, 0, 74, 0
2, 46560, Note_on_c, 0, 73, 107
2, 46608, Note_on_c, 0, 73, 0
2, 46620, Note_on_c, 0, 71, 107
2, 46668, Note_on_c, 0, 71, 0
2, 46680, Note_on_c, 0, 69, 107
2, 46728, Note_on_c, 0, 69, 0
2, 46740, Note_on_c, 0, 71, 107
2, 46788, Note_on_c, 0, 71, 0
2, 46800, Note_on_c, 0, 73, 107
2, 46848, Note_on_c, 0, 73, 0
2, 46860, Note_on_c, 0, 74, 107
2, 46908, Note_on_c, 0, 74, 0
2, 46920, Note_on_c, 0, 76, 107
2, 46968, Note_on_c, 0, 76, 0
2, 46980, Note_on_c, 0, 74, 107
2, 47028, Note_on_c, 0, 74, 0
2, 47040, Note_on_c, 0, 73, 107
2, 47088, Note_on_c, 0, 73, 0
2, 47100, Note_on_c, 0, 71, 107
2, 47148, Note_on_c, 0, 71, 0
2, 47160, Note_on_c, 0, 69, 107
2, 47208, Note_on_c, 0, 69, 0
2, 47220, Note_on_c, 0, 67, 107
2, 47268, Note_on_c, 0, 67, 0
2, 47280, Note_on_c, 0, 66, 107
2, 47328, Note_on_c, 0, 66, 0
2, 47340, Note_on_c, 0, 64, 107
2, 47388, Note_on_c, 0, 64, 0
2, 47400, Note_on_c, 0, 62, 107
2, 47448, Note_on_c, 0, 62, 0
2, 47460, Note_on_c, 0, 64, 107
2, 47508, Note_on_c, 0, 64, 0
2, 47520, Note_on_c, 0, 66, 107
2, 47568, Note_on_c, 0, 66, 0
2, 47580, Note_on_c, 0, 67, 107
2, 47628, Note_on_c, 0, 67, 0
2, 47640, Note_on_c, 0, 69, 107
2, 47688, Note_on_c, 0, 69, 0
2, 47700, Note_on_c, 0, 62, 107
2, 47748, Note_on_c, 0, 62, 0
2, 47760, Note_on_c, 0, 74, 107
2, 48048, Note_on_c, 0, 74, 0
2, 48060, Note_on_c, 0, 71, 107
2, 48108, Note_on_c, 0, 71, 0
2, 48120, Note_on_c, 0, 68, 107
2, 48168, Note_on_c, 0, 68, 0
2, 48180, Note_on_c, 0, 71, 107
2, 48228, Note_on_c, 0, 71, 0
2, 48240, Note_on_c, 0, 64, 107
2, 48336, Note_on_c, 0, 64, 0
2, 48360, Note_on_c, 0, 64, 107
2, 48408, Note_on_c, 0, 64, 0
2, 48420, Note_on_c, 0, 69, 107
2, 48468, Note_on_c, 0, 69, 0
2, 48480, Note_on_c, 0, 73, 107
2, 48768, Note_on_c, 0, 73, 0
2, 48780, Note_on_c, 0, 69, 107
2, 48828, Note_on_c, 0, 69, 0
2, 48840, Note_on_c, 0, 66, 107
2, 48888, Note_on_c, 0, 66, 0
2, 48900, Note_on_c, 0, 69, 107
2, 48948, Note_on_c, 0, 69, 0
2, 48960, Note_on_c, 0, 62, 107
2, 49008, Note_on_c, 0, 62, 0
2, 49020, Note_on_c, 0, 73, 107
2, 49068, Note_on_c, 0, 73, 0
2, 49080, Note_on_c, 0, 71, 107
2, 49128, Note_on_c, 0, 71, 0
2, 49140, Note_on_c, 0, 68, 107
2, 49188, Note_on_c, 0, 68, 0
2, 49200, Note_on_c, 0, 64, 107
2, 49248, Note_on_c, 0, 64, 0
2, 49260, Note_on_c, 0, 68, 107
2, 49308, Note_on_c, 0, 68, 0
2, 49320, Note_on_c, 0, 61, 107
2, 49368, Note_on_c, 0, 61, 0
2, 49380, Note_on_c, 0, 71, 107
2, 49428, Note_on_c, 0, 71, 0
2, 49440, Note_on_c, 0, 69, 107
2, 49488, Note_on_c, 0, 69, 0
2, 49500, Note_on_c, 0, 66, 107
2, 49548, Note_on_c, 0, 66, 0
2, 49560, Note_on_c, 0, 62, 107
2, 49608, Note_on_c, 0, 62, 0
2, 49620, Note_on_c, 0, 66, 107
2, 49668, Note_on_c, 0, 66, 0
2, 49680, Note_on_c, 0, 59, 107
2, 49728, Note_on_c, 0, 59, 0
2, 49740, Note_on_c, 0, 69, 107
2, 49788, Note_on_c, 0, 69, 0
2, 49800, Note_on_c, 0, 68, 107
2, 49848, Note_on_c, 0, 68, 0
2, 49860, Note_on_c, 0, 64, 107
2, 49908, Note_on_c, 0, 64, 0
2, 49920, Note_on_c, 0, 66, 107
2, 49968, Note_on_c, 0, 66, 0
2, 49980, Note_on_c, 0, 68, 107
2, 50028, Note_on_c, 0, 68, 0
2, 50040, Note_on_c, 0, 69, 107
2, 50088, Note_on_c, 0, 69, 0
2, 50100, Note_on_c, 0, 71, 107
2, 50148, Note_on_c, 0, 71, 0
2, 50160, Note_on_c, 0, 69, 107
2, 50208, Note_on_c, 0, 69, 0
2, 50220, Note_on_c, 0, 71, 107
2, 50268, Note_on_c, 0, 71, 0
2, 50280, Note_on_c, 0, 73, 107
2, 50304, Note_on_c, 0, 73, 0
2, 50310, Note_on_c, 0, 71, 107
2, 50334, Note_on_c, 0, 71, 0
2, 50340, Note_on_c, 0, 73, 107
2, 50364, Note_on_c, 0, 73, 0
2, 50370, Note_on_c, 0, 71, 107
2, 50394, Note_on_c, 0, 71, 0
2, 50400, Note_on_c, 0, 73, 107
2, 50424, Note_on_c, 0, 73, 0
2, 50430, Note_on_c, 0, 71, 107
2, 50459, Note_on_c, 0, 71, 0
2, 50460, Note_on_c, 0, 69, 107
2, 50484, Note_on_c, 0, 69, 0
2, 50490, Note_on_c, 0, 71, 107
2, 50514, Note_on_c, 0, 71, 0
2, 50520, Note_on_c, 0, 73, 107
2, 50568, Note_on_c, 0, 73, 0
2, 50580, Note_on_c, 0, 69, 107
2, 50628, Note_on_c, 0, 69, 0
2, 50640, Note_on_c, 0, 71, 107
2, 50688, Note_on_c, 0, 71, 0
2, 50700, Note_on_c, 0, 73, 107
2, 50748, Note_on_c, 0, 73, 0
2, 50760, Note_on_c, 0, 74, 107
2, 50808, Note_on_c, 0, 74, 0
2, 50820, Note_on_c, 0, 76, 107
2, 50868, Note_on_c, 0, 76, 0
2, 50880, Note_on_c, 0, 74, 107
2, 50928, Note_on_c, 0, 74, 0
2, 50940, Note_on_c, 0, 76, 107
2, 50988, Note_on_c, 0, 76, 0
2, 51000, Note_on_c, 0, 78, 107
2, 51024, Note_on_c, 0, 78, 0
2, 51030, Note_on_c, 0, 76, 107
2, 51054, Note_on_c, 0, 76, 0
2, 51060, Note_on_c, 0, 78, 107
2, 51084, Note_on_c, 0, 78, 0
2, 51090, Note_on_c, 0, 76, 107
2, 51114, Note_on_c, 0, 76, 0
2, 51120, Note_on_c, 0, 78, 107
2, 51144, Note_on_c, 0, 78, 0
2, 51150, Note_on_c, 0, 76, 107
2, 51179, Note_on_c, 0, 76, 0
2, 51180, Note_on_c, 0, 74, 107
2, 51204, Note_on_c, 0, 74, 0
2, 51210, Note_on_c, 0, 76, 107
2, 51234, Note_on_c, 0, 76, 0
2, 51240, Note_on_c, 0, 78, 107
2, 51288, Note_on_c, 0, 78, 0
2, 51300, Note_on_c, 0, 74, 107
2, 51348, Note_on_c, 0, 74, 0
2, 51360, Note_on_c, 0, 76, 107
2, 51408, Note_on_c, 0, 76, 0
2, 51420, Note_on_c, 0, 78, 107
2, 51468, Note_on_c, 0, 78, 0
2, 51480, Note_on_c, 0, 79, 107
2, 51528, Note_on_c, 0, 79, 0
2, 51540, Note_on_c, 0, 81, 107
2, 51588, Note_on_c, 0, 81, 0
2, 51600, Note_on_c, 0, 80, 107
2, 51648, Note_on_c, 0, 80, 0
2, 51660, Note_on_c, 0, 81, 107
2, 51708, Note_on_c, 0, 81, 0
2, 51720, Note_on_c, 0, 83, 107
2, 51744, Note_on_c, 0, 83, 0
2, 51750, Note_on_c, 0, 81, 107
2, 51774, Note_on_c, 0, 81, 0
2, 51780, Note_on_c, 0, 83, 107
2, 51804, Note_on_c, 0, 83, 0
2, 51810, Note_on_c, 0, 81, 107
2, 51834, Note_on_c, 0, 81, 0
2, 51840, Note_on_c, 0, 83, 107
2, 51864, Note_on_c, 0, 83, 0
2, 51870, Note_on_c, 0, 81, 107
2, 51899, Note_on_c, 0, 81, 0
2, 51900, Note_on_c, 0, 80, 107
2, 51924, Note_on_c, 0, 80, 0
2, 51930, Note_on_c, 0, 81, 107
2, 51954, Note_on_c, 0, 81, 0
2, 51960, Note_on_c, 0, 83, 107
2, 52008, Note_on_c, 0, 83, 0
2, 52020, Note_on_c, 0, 81, 107
2, 52068, Note_on_c, 0, 81, 0
2, 52080, Note_on_c, 0, 80, 107
2, 52128, Note_on_c, 0, 80, 0
2, 52140, Note_on_c, 0, 78, 107
2, 52188, Note_on_c, 0, 78, 0
2, 52200, Note_on_c, 0, 76, 107
2, 52248, Note_on_c, 0, 76, 0
2, 52260, Note_on_c, 0, 74, 107
2, 52308, Note_on_c, 0, 74, 0
2, 52320, Note_on_c, 0, 73, 107
2, 52368, Note_on_c, 0, 73, 0
2, 52380, Note_on_c, 0, 71, 107
2, 52428, Note_on_c, 0, 71, 0
2, 52440, Note_on_c, 0, 69, 107
2, 52488, Note_on_c, 0, 69, 0
2, 52500, Note_on_c, 0, 71, 107
2, 52548, Note_on_c, 0, 71, 0
2, 52560, Note_on_c, 0, 73, 107
2, 52608, Note_on_c, 0, 73, 0
2, 52620, Note_on_c, 0, 74, 107
2, 52668, Note_on_c, 0, 74, 0
2, 52680, Note_on_c, 0, 76, 107
2, 52728, Note_on_c, 0, 76, 0
2, 52740, Note_on_c, 0, 74, 107
2, 52788, Note_on_c, 0, 74, 0
2, 52800, Note_on_c, 0, 73, 107
2, 52848, Note_on_c, 0, 73, 0
2, 52860, Note_on_c, 0, 71, 107
2, 52908, Note_on_c, 0, 71, 0
2, 52920, Note_on_c, 0, 69, 107
2, 52968, Note_on_c, 0, 69, 0
2, 52980, Note_on_c, 0, 67, 107
2, 53028, Note_on_c, 0, 67, 0
2, 53040, Note_on_c, 0, 66, 107
2, 53088, Note_on_c, 0, 66, 0
2, 53100, Note_on_c, 0, 76, 107
2, 53148, Note_on_c, 0, 76, 0
2, 53160, Note_on_c, 0, 74, 107
2, 53208, Note_on_c, 0, 74, 0
2, 53220, Note_on_c, 0, 73, 107
2, 53268, Note_on_c, 0, 73, 0
2, 53280, Note_on_c, 0, 71, 107
2, 53328, Note_on_c, 0, 71, 0
2, 53340, Note_on_c, 0, 69, 107
2, 53388, Note_on_c, 0, 69, 0
2, 53400, Note_on_c, 0, 68, 107
2, 53448, Note_on_c, 0, 68, 0
2, 53460, Note_on_c, 0, 64, 107
2, 53508, Note_on_c, 0, 64, 0
2, 53520, Note_on_c, 0, 66, 107
2, 53568, Note_on_c, 0, 66, 0
2, 53580, Note_on_c, 0, 68, 107
2, 53628, Note_on_c, 0, 68, 0
2, 53640, Note_on_c, 0, 69, 107
2, 53688, Note_on_c, 0, 69, 0
2, 53700, Note_on_c, 0, 68, 107
2, 53748, Note_on_c, 0, 68, 0
2, 53760, Note_on_c, 0, 69, 107
2, 53808, Note_on_c, 0, 69, 0
2, 53820, Note_on_c, 0, 71, 107
2, 53868, Note_on_c, 0, 71, 0
2, 53880, Note_on_c, 0, 69, 107
2, 53904, Note_on_c, 0, 69, 0
2, 53910, Note_on_c, 0, 68, 107
2, 53934, Note_on_c, 0, 68, 0
2, 53940, Note_on_c, 0, 69, 107
2, 53964, Note_on_c, 0, 69, 0
2, 53970, Note_on_c, 0, 68, 107
2, 53994, Note_on_c, 0, 68, 0
2, 54000, Note_on_c, 0, 69, 107
2, 54024, Note_on_c, 0, 69, 0
2, 54030, Note_on_c, 0, 68, 107
2, 54059, Note_on_c, 0, 68, 0
2, 54060, Note_on_c, 0, 66, 107
2, 54084, Note_on_c, 0, 66, 0
2, 54090, Note_on_c, 0, 68, 107
2, 54114, Note_on_c, 0, 68, 0
2, 54120, Note_on_c, 0, 69, 107
2, 54168, Note_on_c, 0, 69, 0
2, 54180, Note_on_c, 0, 71, 107
2, 54228, Note_on_c, 0, 71, 0
2, 54240, Note_on_c, 0, 73, 107
2, 54288, Note_on_c, 0, 73, 0
2, 54300, Note_on_c, 0, 74, 107
2, 54348, Note_on_c, 0, 74, 0
2, 54360, Note_on_c, 0, 76, 107
2, 54408, Note_on_c, 0, 76, 0
2, 54420, Note_on_c, 0, 73, 107
2, 54468, Note_on_c, 0, 73, 0
2, 54480, Note_on_c, 0, 78, 107
2, 54528, Note_on_c, 0, 78, 0
2, 54540, Note_on_c, 0, 76, 107
2, 54588, Note_on_c, 0, 76, 0
2, 54600, Note_on_c, 0, 74, 107
2, 54648, Note_on_c, 0, 74, 0
2, 54660, Note_on_c, 0, 73, 107
2, 54708, Note_on_c, 0, 73, 0
2, 54720, Note_on_c, 0, 71, 107
2, 54768, Note_on_c, 0, 71, 0
2, 54780, Note_on_c, 0, 69, 107
2, 54828, Note_on_c, 0, 69, 0
2, 54840, Note_on_c, 0, 68, 107
2, 54888, Note_on_c, 0, 68, 0
2, 54900, Note_on_c, 0, 69, 107
2, 54948, Note_on_c, 0, 69, 0
2, 54960, Note_on_c, 0, 71, 107
2, 55008, Note_on_c, 0, 71, 0
2, 55020, Note_on_c, 0, 73, 107
2, 55068, Note_on_c, 0, 73, 0
2, 55080, Note_on_c, 0, 74, 107
2, 55128, Note_on_c, 0, 74, 0
2, 55140, Note_on_c, 0, 71, 107
2, 55188, Note_on_c, 0, 71, 0
2, 55200, Note_on_c, 0, 76, 107
2, 55248, Note_on_c, 0, 76, 0
2, 55260, Note_on_c, 0, 74, 107
2, 55308, Note_on_c, 0, 74, 0
2, 55320, Note_on_c, 0, 73, 107
2, 55368, Note_on_c, 0, 73, 0
2, 55380, Note_on_c, 0, 71, 107
2, 55428, Note_on_c, 0, 71, 0
2, 55440, Note_on_c, 0, 69, 107
2, 55488, Note_on_c, 0, 69, 0
2, 55500, Note_on_c, 0, 68, 107
2, 55548, Note_on_c, 0, 68, 0
2, 55560, Note_on_c, 0, 66, 107
2, 55608, Note_on_c, 0, 66, 0
2, 55620, Note_on_c, 0, 68, 107
2, 55668, Note_on_c, 0, 68, 0
2, 55680, Note_on_c, 0, 69, 107
2, 55728, Note_on_c, 0, 69, 0
2, 55740, Note_on_c, 0, 71, 107
2, 55788, Note_on_c, 0, 71, 0
2, 55800, Note_on_c, 0, 73, 107
2, 55848, Note_on_c, 0, 73, 0
2, 55860, Note_on_c, 0, 69, 107
2, 55908, Note_on_c, 0, 69, 0
2, 55920, Note_on_c, 0, 74, 107
2, 55968, Note_on_c, 0, 74, 0
2, 55980, Note_on_c, 0, 73, 107
2, 56028, Note_on_c, 0, 73, 0
2, 56040, Note_on_c, 0, 71, 107
2, 56088, Note_on_c, 0, 71, 0
2, 56100, Note_on_c, 0, 69, 107
2, 56148, Note_on_c, 0, 69, 0
2, 56160, Note_on_c, 0, 68, 107
2, 56208, Note_on_c, 0, 68, 0
2, 56220, Note_on_c, 0, 66, 107
2, 56268, Note_on_c, 0, 66, 0
2, 56280, Note_on_c, 0, 64, 107
2, 56328, Note_on_c, 0, 64, 0
2, 56340, Note_on_c, 0, 74, 107
2, 56388, Note_on_c, 0, 74, 0
2, 56400, Note_on_c, 0, 73, 107
2, 56448, Note_on_c, 0, 73, 0
2, 56460, Note_on_c, 0, 71, 107
2, 56508, Note_on_c, 0, 71, 0
2, 56520, Note_on_c, 0, 69, 107
2, 56568, Note_on_c, 0, 69, 0
2, 56580, Note_on_c, 0, 68, 107
2, 56628, Note_on_c, 0, 68, 0
2, 56640, Note_on_c, 0, 69, 107
2, 56688, Note_on_c, 0, 69, 0
2, 56700, Note_on_c, 0, 71, 107
2, 56748, Note_on_c, 0, 71, 0
2, 56760, Note_on_c, 0, 71, 107
2, 56772, Note_on_c, 0, 71, 0
2, 56775, Note_on_c, 0, 73, 107
2, 56787, Note_on_c, 0, 73, 0
2, 56790, Note_on_c, 0, 71, 107
2, 56802, Note_on_c, 0, 71, 0
2, 56805, Note_on_c, 0, 73, 107
2, 56817, Note_on_c, 0, 73, 0
2, 56820, Note_on_c, 0, 71, 107
2, 56832, Note_on_c, 0, 71, 0
2, 56835, Note_on_c, 0, 73, 107
2, 56847, Note_on_c, 0, 73, 0
2, 56850, Note_on_c, 0, 71, 107
2, 56862, Note_on_c, 0, 71, 0
2, 56865, Note_on_c, 0, 73, 107
2, 56877, Note_on_c, 0, 73, 0
2, 56880, Note_on_c, 0, 71, 107
2, 56892, Note_on_c, 0, 71, 0
2, 56895, Note_on_c, 0, 73, 107
2, 56907, Note_on_c, 0, 73, 0
2, 56910, Note_on_c, 0, 71, 107
2, 56922, Note_on_c, 0, 71, 0
2, 56925, Note_on_c, 0, 73, 107
2, 56940, Note_on_c, 0, 73, 0
2, 56940, Note_on_c, 0, 69, 107
2, 56988, Note_on_c, 0, 69, 0
2, 57000, Note_on_c, 0, 69, 107
2, 57552, Note_on_c, 0, 69, 0
2, 57552, End_track
3, 0, Start_track
3, 0, MIDI_port, 0
3, 0, Title_t, "J.S. Bach, Edition Wood"
3, 0, Program_c, 1, 0
3, 0, Control_c, 1, 7, 100
3, 0, Control_c, 1, 10, 64
3, 360, Note_on_c, 1, 64, 107
3, 456, Note_on_c, 1, 64, 0
3, 480, Note_on_c, 1, 69, 107
3, 576, Note_on_c, 1, 69, 0
3, 600, Note_on_c, 1, 68, 107
3, 648, Note_on_c, 1, 68, 0
3, 660, Note_on_c, 1, 66, 107
3, 708, Note_on_c, 1, 66, 0
3, 720, Note_on_c, 1, 64, 107
3, 768, Note_on_c, 1, 64, 0
3, 780, Note_on_c, 1, 62, 107
3, 828, Note_on_c, 1, 62, 0
3, 840, Note_on_c, 1, 61, 107
3, 897, Note_on_c, 1, 61, 0
3, 900, Note_on_c, 1, 62, 107
3, 957, Note_on_c, 1, 62, 0
3, 960, Note_on_c, 1, 64, 107
3, 989, Note_on_c, 1, 64, 0
3, 990, Note_on_c, 1, 62, 107
3, 1019, Note_on_c, 1, 62, 0
3, 1020, Note_on_c, 1, 64, 107
3, 1044, Note_on_c, 1, 64, 0
3, 1050, Note_on_c, 1, 62, 107
3, 1074, Note_on_c, 1, 62, 0
3, 1080, Note_on_c, 1, 64, 107
3, 1104, Note_on_c, 1, 64, 0
3, 1110, Note_on_c, 1, 62, 107
3, 1134, Note_on_c, 1, 62, 0
3, 1140, Note_on_c, 1, 61, 107
3, 1164, Note_on_c, 1, 61, 0
3, 1170, Note_on_c, 1, 62, 107
3, 1194, Note_on_c, 1, 62, 0
3, 1200, Note_on_c, 1, 64, 107
3, 1296, Note_on_c, 1, 64, 0
3, 1320, Note_on_c, 1, 62, 107
3, 1368, Note_on_c, 1, 62, 0
3, 1380, Note_on_c, 1, 61, 107
3, 1428, Note_on_c, 1, 61, 0
3, 1440, Note_on_c, 1, 59, 107
3, 1488, Note_on_c, 1, 59, 0
3, 1500, Note_on_c, 1, 57, 107
3, 1548, Note_on_c, 1, 57, 0
3, 1560, Note_on_c, 1, 56, 107
3, 1608, Note_on_c, 1, 56, 0
3, 1620, Note_on_c, 1, 57, 107
3, 1668, Note_on_c, 1, 57, 0
3, 1680, Note_on_c, 1, 59, 107
3, 1709, Note_on_c, 1, 59, 0
3, 1710, Note_on_c, 1, 57, 107
3, 1739, Note_on_c, 1, 57, 0
3, 1740, Note_on_c, 1, 59, 107
3, 1764, Note_on_c, 1, 59, 0
3, 1770, Note_on_c, 1, 57, 107
3, 1794, Note_on_c, 1, 57, 0
3, 1800, Note_on_c, 1, 59, 107
3, 1824, Note_on_c, 1, 59, 0
3, 1830, Note_on_c, 1, 57, 107
3, 1854, Note_on_c, 1, 57, 0
3, 1860, Note_on_c, 1, 56, 107
3, 1884, Note_on_c, 1, 56, 0
3, 1890, Note_on_c, 1, 57, 107
3, 1914, Note_on_c, 1, 57, 0
3, 1920, Note_on_c, 1, 59, 107
3, 1968, Note_on_c, 1, 59, 0
3, 1980, Note_on_c, 1, 57, 107
3, 2028, Note_on_c, 1, 57, 0
3, 2040, Note_on_c, 1, 56, 107
3, 2088, Note_on_c, 1, 56, 0
3, 2100, Note_on_c, 1, 52, 107
3, 2148, Note_on_c, 1, 52, 0
3, 2160, Note_on_c, 1, 57, 107
3, 2208, Note_on_c, 1, 57, 0
3, 2220, Note_on_c, 1, 56, 107
3, 2268, Note_on_c, 1, 56, 0
3, 2280, Note_on_c, 1, 54, 107
3, 2328, Note_on_c, 1, 54, 0
3, 2340, Note_on_c, 1, 50, 107
3, 2388, Note_on_c, 1, 50, 0
3, 2400, Note_on_c, 1, 52, 107
3, 2424, Note_on_c, 1, 52, 0
3, 2430, Note_on_c, 1, 50, 107
3, 2454, Note_on_c, 1, 50, 0
3, 2460, Note_on_c, 1, 52, 107
3, 2508, Note_on_c, 1, 52, 0
3, 2520, Note_on_c, 1, 40, 107
3, 2568, Note_on_c, 1, 40, 0
3, 2580, Note_on_c, 1, 52, 107
3, 2628, Note_on_c, 1, 52, 0
3, 2640, Note_on_c, 1, 57, 107
3, 2736, Note_on_c, 1, 57, 0
3, 2760, Note_on_c, 1, 56, 107
3, 2808, Note_on_c, 1, 56, 0
3, 2820, Note_on_c, 1, 54, 107
3, 2868, Note_on_c, 1, 54, 0
3, 2880, Note_on_c, 1, 52, 107
3, 2928, Note_on_c, 1, 52, 0
3, 2940, Note_on_c, 1, 50, 107
3, 2988, Note_on_c, 1, 50, 0
3, 3000, Note_on_c, 1, 49, 107
3, 3048, Note_on_c, 1, 49, 0
3, 3060, Note_on_c, 1, 50, 107
3, 3108, Note_on_c, 1, 50, 0
3, 3120, Note_on_c, 1, 52, 107
3, 3144, Note_on_c, 1, 52, 0
3, 3150, Note_on_c, 1, 50, 107
3, 3174, Note_on_c, 1, 50, 0
3, 3180, Note_on_c, 1, 52, 107
3, 3204, Note_on_c, 1, 52, 0
3, 3210, Note_on_c, 1, 50, 107
3, 3234, Note_on_c, 1, 50, 0
3, 3240, Note_on_c, 1, 52, 107
3, 3264, Note_on_c, 1, 52, 0
3, 3270, Note_on_c, 1, 50, 107
3, 3294, Note_on_c, 1, 50, 0
3, 3300, Note_on_c, 1, 49, 107
3, 3329, Note_on_c, 1, 49, 0
3, 3330, Note_on_c, 1, 50, 107
3, 3359, Note_on_c, 1, 50, 0
3, 3360, Note_on_c, 1, 52, 107
3, 3408, Note_on_c, 1, 52, 0
3, 3420, Note_on_c, 1, 45, 107
3, 3468, Note_on_c, 1, 45, 0
3, 3480, Note_on_c, 1, 57, 107
3, 3528, Note_on_c, 1, 57, 0
3, 3540, Note_on_c, 1, 55, 107
3, 3588, Note_on_c, 1, 55, 0
3, 3600, Note_on_c, 1, 54, 107
3, 3648, Note_on_c, 1, 54, 0
3, 3660, Note_on_c, 1, 52, 107
3, 3708, Note_on_c, 1, 52, 0
3, 3720, Note_on_c, 1, 50, 107
3, 3768, Note_on_c, 1, 50, 0
3, 3780, Note_on_c, 1, 52, 107
3, 3828, Note_on_c, 1, 52, 0
3, 3840, Note_on_c, 1, 54, 107
3, 3864, Note_on_c, 1, 54, 0
3, 3870, Note_on_c, 1, 52, 107
3, 3894, Note_on_c, 1, 52, 0
3, 3900, Note_on_c, 1, 54, 107
3, 3924, Note_on_c, 1, 54, 0
3, 3930, Note_on_c, 1, 52, 107
3, 3954, Note_on_c, 1, 52, 0
3, 3960, Note_on_c, 1, 54, 107
3, 3984, Note_on_c, 1, 54, 0
3, 3990, Note_on_c, 1, 52, 107
3, 4014, Note_on_c, 1, 52, 0
3, 4020, Note_on_c, 1, 50, 107
3, 4044, Note_on_c, 1, 50, 0
3, 4050, Note_on_c, 1, 52, 107
3, 4074, Note_on_c, 1, 52, 0
3, 4080, Note_on_c, 1, 54, 107
3, 4128, Note_on_c, 1, 54, 0
3, 4140, Note_on_c, 1, 47, 107
3, 4188, Note_on_c, 1, 47, 0
3, 4200, Note_on_c, 1, 59, 107
3, 4248, Note_on_c, 1, 59, 0
3, 4260, Note_on_c, 1, 57, 107
3, 4308, Note_on_c, 1, 57, 0
3, 4320, Note_on_c, 1, 56, 107
3, 4368, Note_on_c, 1, 56, 0
3, 4380, Note_on_c, 1, 54, 107
3, 4428, Note_on_c, 1, 54, 0
3, 4440, Note_on_c, 1, 52, 107
3, 4488, Note_on_c, 1, 52, 0
3, 4500, Note_on_c, 1, 54, 107
3, 4548, Note_on_c, 1, 54, 0
3, 4560, Note_on_c, 1, 56, 107
3, 4584, Note_on_c, 1, 56, 0
3, 4590, Note_on_c, 1, 54, 107
3, 4614, Note_on_c, 1, 54, 0
3, 4620, Note_on_c, 1, 56, 107
3, 4644, Note_on_c, 1, 56, 0
3, 4650, Note_on_c, 1, 54, 107
3, 4674, Note_on_c, 1, 54, 0
3, 4680, Note_on_c, 1, 56, 107
3, 4704, Note_on_c, 1, 56, 0
3, 4710, Note_on_c, 1, 54, 107
3, 4734, Note_on_c, 1, 54, 0
3, 4740, Note_on_c, 1, 52, 107
3, 4764, Note_on_c, 1, 52, 0
3, 4770, Note_on_c, 1, 54, 107
3, 4794, Note_on_c, 1, 54, 0
3, 4800, Note_on_c, 1, 56, 107
3, 4848, Note_on_c, 1, 56, 0
3, 4860, Note_on_c, 1, 54, 107
3, 4908, Note_on_c, 1, 54, 0
3, 4920, Note_on_c, 1, 52, 107
3, 4968, Note_on_c, 1, 52, 0
3, 4980, Note_on_c, 1, 54, 107
3, 5028, Note_on_c, 1, 54, 0
3, 5040, Note_on_c, 1, 56, 107
3, 5088, Note_on_c, 1, 56, 0
3, 5100, Note_on_c, 1, 52, 107
3, 5148, Note_on_c, 1, 52, 0
3, 5160, Note_on_c, 1, 57, 107
3, 5208, Note_on_c, 1, 57, 0
3, 5220, Note_on_c, 1, 59, 107
3, 5268, Note_on_c, 1, 59, 0
3, 5280, Note_on_c, 1, 61, 107
3, 5328, Note_on_c, 1, 61, 0
3, 5340, Note_on_c, 1, 59, 107
3, 5388, Note_on_c, 1, 59, 0
3, 5400, Note_on_c, 1, 57, 107
3, 5448, Note_on_c, 1, 57, 0
3, 5460, Note_on_c, 1, 56, 107
3, 5508, Note_on_c, 1, 56, 0
3, 5520, Note_on_c, 1, 54, 107
3, 5568, Note_on_c, 1, 54, 0
3, 5580, Note_on_c, 1, 56, 107
3, 5628, Note_on_c, 1, 56, 0
3, 5640, Note_on_c, 1, 57, 107
3, 5688, Note_on_c, 1, 57, 0
3, 5700, Note_on_c, 1, 56, 107
3, 5748, Note_on_c, 1, 56, 0
3, 5760, Note_on_c, 1, 57, 107
3, 5808, Note_on_c, 1, 57, 0
3, 5820, Note_on_c, 1, 54, 107
3, 5868, Note_on_c, 1, 54, 0
3, 5880, Note_on_c, 1, 56, 107
3, 5928, Note_on_c, 1, 56, 0
3, 5940, Note_on_c, 1, 57, 107
3, 5988, Note_on_c, 1, 57, 0
3, 6000, Note_on_c, 1, 59, 107
3, 6048, Note_on_c, 1, 59, 0
3, 6060, Note_on_c, 1, 57, 107
3, 6108, Note_on_c, 1, 57, 0
3, 6120, Note_on_c, 1, 56, 107
3, 6168, Note_on_c, 1, 56, 0
3, 6180, Note_on_c, 1, 54, 107
3, 6228, Note_on_c, 1, 54, 0
3, 6240, Note_on_c, 1, 52, 107
3, 6288, Note_on_c, 1, 52, 0
3, 6300, Note_on_c, 1, 54, 107
3, 6348, Note_on_c, 1, 54, 0
3, 6360, Note_on_c, 1, 56, 107
3, 6408, Note_on_c, 1, 56, 0
3, 6420, Note_on_c, 1, 54, 107
3, 6468, Note_on_c, 1, 54, 0
3, 6480, Note_on_c, 1, 56, 107
3, 6528, Note_on_c, 1, 56, 0
3, 6540, Note_on_c, 1, 52, 107
3, 6588, Note_on_c, 1, 52, 0
3, 6600, Note_on_c, 1, 54, 107
3, 6648, Note_on_c, 1, 54, 0
3, 6660, Note_on_c, 1, 56, 107
3, 6708, Note_on_c, 1, 56, 0
3, 6720, Note_on_c, 1, 57, 107
3, 6768, Note_on_c, 1, 57, 0
3, 6780, Note_on_c, 1, 56, 107
3, 6828, Note_on_c, 1, 56, 0
3, 6840, Note_on_c, 1, 54, 107
3, 6888, Note_on_c, 1, 54, 0
3, 6900, Note_on_c, 1, 52, 107
3, 6948, Note_on_c, 1, 52, 0
3, 6960, Note_on_c, 1, 51, 107
3, 7008, Note_on_c, 1, 51, 0
3, 7020, Note_on_c, 1, 52, 107
3, 7068, Note_on_c, 1, 52, 0
3, 7080, Note_on_c, 1, 54, 107
3, 7128, Note_on_c, 1, 54, 0
3, 7140, Note_on_c, 1, 52, 107
3, 7188, Note_on_c, 1, 52, 0
3, 7200, Note_on_c, 1, 54, 107
3, 7248, Note_on_c, 1, 54, 0
3, 7260, Note_on_c, 1, 51, 107
3, 7308, Note_on_c, 1, 51, 0
3, 7320, Note_on_c, 1, 52, 107
3, 7368, Note_on_c, 1, 52, 0
3, 7380, Note_on_c, 1, 54, 107
3, 7428, Note_on_c, 1, 54, 0
3, 7440, Note_on_c, 1, 54, 107
3, 7452, Note_on_c, 1, 54, 0
3, 7455, Note_on_c, 1, 56, 107
3, 7467, Note_on_c, 1, 56, 0
3, 7470, Note_on_c, 1, 54, 107
3, 7494, Note_on_c, 1, 54, 0
3, 7500, Note_on_c, 1, 52, 107
3, 7524, Note_on_c, 1, 52, 0
3, 7530, Note_on_c, 1, 54, 107
3, 7554, Note_on_c, 1, 54, 0
3, 7560, Note_on_c, 1, 56, 107
3, 7608, Note_on_c, 1, 56, 0
3, 7620, Note_on_c, 1, 57, 107
3, 7668, Note_on_c, 1, 57, 0
3, 7680, Note_on_c, 1, 57, 107
3, 7692, Note_on_c, 1, 57, 0
3, 7695, Note_on_c, 1, 59, 107
3, 7707, Note_on_c, 1, 59, 0
3, 7710, Note_on_c, 1, 57, 107
3, 7734, Note_on_c, 1, 57, 0
3, 7740, Note_on_c, 1, 56, 107
3, 7764, Note_on_c, 1, 56, 0
3, 7770, Note_on_c, 1, 57, 107
3, 7794, Note_on_c, 1, 57, 0
3, 7800, Note_on_c, 1, 59, 107
3, 7890, Note_on_c, 1, 59, 0
3, 7920, Note_on_c, 1, 47, 107
3, 8010, Note_on_c, 1, 47, 0
3, 8040, Note_on_c, 1, 40, 107
3, 8136, Note_on_c, 1, 40, 0
3, 8160, Note_on_c, 1, 52, 107
3, 8208, Note_on_c, 1, 52, 0
3, 8220, Note_on_c, 1, 50, 107
3, 8268, Note_on_c, 1, 50, 0
3, 8280, Note_on_c, 1, 49, 107
3, 8328, Note_on_c, 1, 49, 0
3, 8340, Note_on_c, 1, 47, 107
3, 8388, Note_on_c, 1, 47, 0
3, 8400, Note_on_c, 1, 45, 107
3, 8490, Note_on_c, 1, 45, 0
3, 8520, Note_on_c, 1, 47, 107
3, 8544, Note_on_c, 1, 47, 0
3, 8550, Note_on_c, 1, 45, 107
3, 8574, Note_on_c, 1, 45, 0
3, 8580, Note_on_c, 1, 47, 107
3, 8604, Note_on_c, 1, 47, 0
3, 8610, Note_on_c, 1, 45, 107
3, 8634, Note_on_c, 1, 45, 0
3, 8640, Note_on_c, 1, 47, 107
3, 8664, Note_on_c, 1, 47, 0
3, 8670, Note_on_c, 1, 45, 107
3, 8694, Note_on_c, 1, 45, 0
3, 8700, Note_on_c, 1, 44, 107
3, 8724, Note_on_c, 1, 44, 0
3, 8730, Note_on_c, 1, 45, 107
3, 8754, Note_on_c, 1, 45, 0
3, 8760, Note_on_c, 1, 47, 107
3, 8808, Note_on_c, 1, 47, 0
3, 8820, Note_on_c, 1, 49, 107
3, 8868, Note_on_c, 1, 49, 0
3, 8880, Note_on_c, 1, 51, 107
3, 8928, Note_on_c, 1, 51, 0
3, 8940, Note_on_c, 1, 49, 107
3, 8988, Note_on_c, 1, 49, 0
3, 9000, Note_on_c, 1, 47, 107
3, 9048, Note_on_c, 1, 47, 0
3, 9060, Note_on_c, 1, 45, 107
3, 9108, Note_on_c, 1, 45, 0
3, 9120, Note_on_c, 1, 44, 107
3, 9216, Note_on_c, 1, 44, 0
3, 9240, Note_on_c, 1, 47, 107
3, 9264, Note_on_c, 1, 47, 0
3, 9270, Note_on_c, 1, 45, 107
3, 9294, Note_on_c, 1, 45, 0
3, 9300, Note_on_c, 1, 47, 107
3, 9324, Note_on_c, 1, 47, 0
3, 9330, Note_on_c, 1, 45, 107
3, 9354, Note_on_c, 1, 45, 0
3, 9360, Note_on_c, 1, 47, 107
3, 9384, Note_on_c, 1, 47, 0
3, 9390, Note_on_c, 1, 45, 107
3, 9414, Note_on_c, 1, 45, 0
3, 9420, Note_on_c, 1, 42, 107
3, 9444, Note_on_c, 1, 42, 0
3, 9450, Note_on_c, 1, 44, 107
3, 9474, Note_on_c, 1, 44, 0
3, 9480, Note_on_c, 1, 45, 107
3, 9528, Note_on_c, 1, 45, 0
3, 9540, Note_on_c, 1, 47, 107
3, 9588, Note_on_c, 1, 47, 0
3, 9600, Note_on_c, 1, 49, 107
3, 9648, Note_on_c, 1, 49, 0
3, 9660, Note_on_c, 1, 47, 107
3, 9708, Note_on_c, 1, 47, 0
3, 9720, Note_on_c, 1, 45, 107
3, 9768, Note_on_c, 1, 45, 0
3, 9780, Note_on_c, 1, 44, 107
3, 9828, Note_on_c, 1, 44, 0
3, 9840, Note_on_c, 1, 42, 107
3, 9888, Note_on_c, 1, 42, 0
3, 9900, Note_on_c, 1, 44, 107
3, 9948, Note_on_c, 1, 44, 0
3, 9960, Note_on_c, 1, 45, 107
3, 10008, Note_on_c, 1, 45, 0
3, 10020, Note_on_c, 1, 44, 107
3, 10068, Note_on_c, 1, 44, 0
3, 10080, Note_on_c, 1, 42, 107
3, 10128, Note_on_c, 1, 42, 0
3, 10140, Note_on_c, 1, 40, 107
3, 10188, Note_on_c, 1, 40, 0
3, 10200, Note_on_c, 1, 39, 107
3, 10296, Note_on_c, 1, 39, 0
3, 10320, Note_on_c, 1, 47, 107
3, 10416, Note_on_c, 1, 47, 0
3, 10440, Note_on_c, 1, 49, 107
3, 10536, Note_on_c, 1, 49, 0
3, 10560, Note_on_c, 1, 45, 107
3, 10656, Note_on_c, 1, 45, 0
3, 10680, Note_on_c, 1, 47, 107
3, 10776, Note_on_c, 1, 47, 0
3, 10800, Note_on_c, 1, 35, 107
3, 10896, Note_on_c, 1, 35, 0
3, 10920, Note_on_c, 1, 40, 107
3, 10920, Note_on_c, 1, 40, 107
3, 11016, Note_on_c, 1, 40, 0
3, 11040, Note_on_c, 1, 44, 107
3, 11136, Note_on_c, 1, 44, 0
3, 11160, Note_on_c, 1, 47, 107
3, 11256, Note_on_c, 1, 47, 0
3, 11280, Note_on_c, 1, 52, 107
3, 11472, Note_on_c, 1, 52, 0
3, 11472, Note_on_c, 1, 40, 0
3, 11880, Note_on_c, 1, 64, 107
3, 11976, Note_on_c, 1, 64, 0
3, 12000, Note_on_c, 1, 69, 107
3, 12096, Note_on_c, 1, 69, 0
3, 12120, Note_on_c, 1, 68, 107
3, 12168, Note_on_c, 1, 68, 0
3, 12180, Note_on_c, 1, 66, 107
3, 12228, Note_on_c, 1, 66, 0
3, 12240, Note_on_c, 1, 64, 107
3, 12288, Note_on_c, 1, 64, 0
3, 12300, Note_on_c, 1, 62, 107
3, 12348, Note_on_c, 1, 62, 0
3, 12360, Note_on_c, 1, 61, 107
3, 12417, Note_on_c, 1, 61, 0
3, 12420, Note_on_c, 1, 62, 107
3, 12477, Note_on_c, 1, 62, 0
3, 12480, Note_on_c, 1, 64, 107
3, 12509, Note_on_c, 1, 64, 0
3, 12510, Note_on_c, 1, 62, 107
3, 12539, Note_on_c, 1, 62, 0
3, 12540, Note_on_c, 1, 64, 107
3, 12564, Note_on_c, 1, 64, 0
3, 12570, Note_on_c, 1, 62, 107
3, 12594, Note_on_c, 1, 62, 0
3, 12600, Note_on_c, 1, 64, 107
3, 12624, Note_on_c, 1, 64, 0
3, 12630, Note_on_c, 1, 62, 107
3, 12654, Note_on_c, 1, 62, 0
3, 12660, Note_on_c, 1, 61, 107
3, 12684, Note_on_c, 1, 61, 0
3, 12690, Note_on_c, 1, 62, 107
3, 12714, Note_on_c, 1, 62, 0
3, 12720, Note_on_c, 1, 64, 107
3, 12816, Note_on_c, 1, 64, 0
3, 12840, Note_on_c, 1, 62, 107
3, 12888, Note_on_c, 1, 62, 0
3, 12900, Note_on_c, 1, 61, 107
3, 12948, Note_on_c, 1, 61, 0
3, 12960, Note_on_c, 1, 59, 107
3, 13008, Note_on_c, 1, 59, 0
3, 13020, Note_on_c, 1, 57, 107
3, 13068, Note_on_c, 1, 57, 0
3, 13080, Note_on_c, 1, 56, 107
3, 13128, Note_on_c, 1, 56, 0
3, 13140, Note_on_c, 1, 57, 107
3, 13188, Note_on_c, 1, 57, 0
3, 13200, Note_on_c, 1, 59, 107
3, 13229, Note_on_c, 1, 59, 0
3, 13230, Note_on_c, 1, 57, 107
3, 13259, Note_on_c, 1, 57, 0
3, 13260, Note_on_c, 1, 59, 107
3, 13284, Note_on_c, 1, 59, 0
3, 13290, Note_on_c, 1, 57, 107
3, 13314, Note_on_c, 1, 57, 0
3, 13320, Note_on_c, 1, 59, 107
3, 13344, Note_on_c, 1, 59, 0
3, 13350, Note_on_c, 1, 57, 107
3, 13374, Note_on_c, 1, 57, 0
3, 13380, Note_on_c, 1, 56, 107
3, 13404, Note_on_c, 1, 56, 0
3, 13410, Note_on_c, 1, 57, 107
3, 13434, Note_on_c, 1, 57, 0
3, 13440, Note_on_c, 1, 59, 107
3, 13488, Note_on_c, 1, 59, 0
3, 13500, Note_on_c, 1, 57, 107
3, 13548, Note_on_c, 1, 57, 0
3, 13560, Note_on_c, 1, 56, 107
3, 13608, Note_on_c, 1, 56, 0
3, 13620, Note_on_c, 1, 52, 107
3, 13668, Note_on_c, 1, 52, 0
3, 13680, Note_on_c, 1, 57, 107
3, 13728, Note_on_c, 1, 57, 0
3, 13740, Note_on_c, 1, 56, 107
3, 13788, Note_on_c, 1, 56, 0
3, 13800, Note_on_c, 1, 54, 107
3, 13848, Note_on_c, 1, 54, 0
3, 13860, Note_on_c, 1, 50, 107
3, 13908, Note_on_c, 1, 50, 0
3, 13920, Note_on_c, 1, 52, 107
3, 13944, Note_on_c, 1, 52, 0
3, 13950, Note_on_c, 1, 50, 107
3, 13974, Note_on_c, 1, 50, 0
3, 13980, Note_on_c, 1, 52, 107
3, 14028, Note_on_c, 1, 52, 0
3, 14040, Note_on_c, 1, 40, 107
3, 14088, Note_on_c, 1, 40, 0
3, 14100, Note_on_c, 1, 52, 107
3, 14148, Note_on_c, 1, 52, 0
3, 14160, Note_on_c, 1, 57, 107
3, 14256, Note_on_c, 1, 57, 0
3, 14280, Note_on_c, 1, 56, 107
3, 14328, Note_on_c, 1, 56, 0
3, 14340, Note_on_c, 1, 54, 107
3, 14388, Note_on_c, 1, 54, 0
3, 14400, Note_on_c, 1, 52, 107
3, 14448, Note_on_c, 1, 52, 0
3, 14460, Note_on_c, 1, 50, 107
3, 14508, Note_on_c, 1, 50, 0
3, 14520, Note_on_c, 1, 49, 107
3, 14568, Note_on_c, 1, 49, 0
3, 14580, Note_on_c, 1, 50, 107
3, 14628, Note_on_c, 1, 50, 0
3, 14640, Note_on_c, 1, 52, 107
3, 14664, Note_on_c, 1, 52, 0
3, 14670, Note_on_c, 1, 50, 107
3, 14694, Note_on_c, 1, 50, 0
3, 14700, Note_on_c, 1, 52, 107
3, 14724, Note_on_c, 1, 52, 0
3, 14730, Note_on_c, 1, 50, 107
3, 14754, Note_on_c, 1, 50, 0
3, 14760, Note_on_c, 1, 52, 107
3, 14784, Note_on_c, 1, 52, 0
3, 14790, Note_on_c, 1, 50, 107
3, 14814, Note_on_c, 1, 50, 0
3, 14820, Note_on_c, 1, 49, 107
3, 14849, Note_on_c, 1, 49, 0
3, 14850, Note_on_c, 1, 50, 107
3, 14879, Note_on_c, 1, 50, 0
3, 14880, Note_on_c, 1, 52, 107
3, 14928, Note_on_c, 1, 52, 0
3, 14940, Note_on_c, 1, 45, 107
3, 14988, Note_on_c, 1, 45, 0
3, 15000, Note_on_c, 1, 57, 107
3, 15048, Note_on_c, 1, 57, 0
3, 15060, Note_on_c, 1, 55, 107
3, 15108, Note_on_c, 1, 55, 0
3, 15120, Note_on_c, 1, 54, 107
3, 15168, Note_on_c, 1, 54, 0
3, 15180, Note_on_c, 1, 52, 107
3, 15228, Note_on_c, 1, 52, 0
3, 15240, Note_on_c, 1, 50, 107
3, 15288, Note_on_c, 1, 50, 0
3, 15300, Note_on_c, 1, 52, 107
3, 15348, Note_on_c, 1, 52, 0
3, 15360, Note_on_c, 1, 54, 107
3, 15384, Note_on_c, 1, 54, 0
3, 15390, Note_on_c, 1, 52, 107
3, 15414, Note_on_c, 1, 52, 0
3, 15420, Note_on_c, 1, 54, 107
3, 15444, Note_on_c, 1, 54, 0
3, 15450, Note_on_c, 1, 52, 107
3, 15474, Note_on_c, 1, 52, 0
3, 15480, Note_on_c, 1, 54, 107
3, 15504, Note_on_c, 1, 54, 0
3, 15510, Note_on_c, 1, 52, 107
3, 15534, Note_on_c, 1, 52, 0
3, 15540, Note_on_c, 1, 50, 107
3, 15564, Note_on_c, 1, 50, 0
3, 15570, Note_on_c, 1, 52, 107
3, 15594, Note_on_c, 1, 52, 0
3, 15600, Note_on_c, 1, 54, 107
3, 15648, Note_on_c, 1, 54, 0
3, 15660, Note_on_c, 1, 47, 107
3, 15708, Note_on_c, 1, 47, 0
3, 15720, Note_on_c, 1, 59, 107
3, 15768, Note_on_c, 1, 59, 0
3, 15780, Note_on_c, 1, 57, 107
3, 15828, Note_on_c, 1, 57, 0
3, 15840, Note_on_c, 1, 56, 107
3, 15888, Note_on_c, 1, 56, 0
3, 15900, Note_on_c, 1, 54, 107
3, 15948, Note_on_c, 1, 54, 0
3, 15960, Note_on_c, 1, 52, 107
3, 16008, Note_on_c, 1, 52, 0
3, 16020, Note_on_c, 1, 54, 107
3, 16068, Note_on_c, 1, 54, 0
3, 16080, Note_on_c, 1, 56, 107
3, 16104, Note_on_c, 1, 56, 0
3, 16110, Note_on_c, 1, 54, 107
3, 16134, Note_on_c, 1, 54, 0
3, 16140, Note_on_c, 1, 56, 107
3, 16164, Note_on_c, 1, 56, 0
3, 16170, Note_on_c, 1, 54, 107
3, 16194, Note_on_c, 1, 54, 0
3, 16200, Note_on_c, 1, 56, 107
3, 16224, Note_on_c, 1, 56, 0
3, 16230, Note_on_c, 1, 54, 107
3, 16254, Note_on_c, 1, 54, 0
3, 16260, Note_on_c, 1, 52, 107
3, 16284, Note_on_c, 1, 52, 0
3, 16290, Note_on_c, 1, 54, 107
3, 16314, Note_on_c, 1, 54, 0
3, 16320, Note_on_c, 1, 56, 107
3, 16368, Note_on_c, 1, 56, 0
3, 16380, Note_on_c, 1, 54, 107
3, 16428, Note_on_c, 1, 54, 0
3, 16440, Note_on_c, 1, 52, 107
3, 16488, Note_on_c, 1, 52, 0
3, 16500, Note_on_c, 1, 54, 107
3, 16548, Note_on_c, 1, 54, 0
3, 16560, Note_on_c, 1, 56, 107
3, 16608, Note_on_c, 1, 56, 0
3, 16620, Note_on_c, 1, 52, 107
3, 16668, Note_on_c, 1, 52, 0
3, 16680, Note_on_c, 1, 57, 107
3, 16728, Note_on_c, 1, 57, 0
3, 16740, Note_on_c, 1, 59, 107
3, 16788, Note_on_c, 1, 59, 0
3, 16800, Note_on_c, 1, 61, 107
3, 16848, Note_on_c, 1, 61, 0
3, 16860, Note_on_c, 1, 59, 107
3, 16908, Note_on_c, 1, 59, 0
3, 16920, Note_on_c, 1, 57, 107
3, 16968, Note_on_c, 1, 57, 0
3, 16980, Note_on_c, 1, 56, 107
3, 17028, Note_on_c, 1, 56, 0
3, 17040, Note_on_c, 1, 54, 107
3, 17088, Note_on_c, 1, 54, 0
3, 17100, Note_on_c, 1, 56, 107
3, 17148, Note_on_c, 1, 56, 0
3, 17160, Note_on_c, 1, 57, 107
3, 17208, Note_on_c, 1, 57, 0
3, 17220, Note_on_c, 1, 56, 107
3, 17268, Note_on_c, 1, 56, 0
3, 17280, Note_on_c, 1, 57, 107
3, 17328, Note_on_c, 1, 57, 0
3, 17340, Note_on_c, 1, 54, 107
3, 17388, Note_on_c, 1, 54, 0
3, 17400, Note_on_c, 1, 56, 107
3, 17448, Note_on_c, 1, 56, 0
3, 17460, Note_on_c, 1, 57, 107
3, 17508, Note_on_c, 1, 57, 0
3, 17520, Note_on_c, 1, 59, 107
3, 17568, Note_on_c, 1, 59, 0
3, 17580, Note_on_c, 1, 57, 107
3, 17628, Note_on_c, 1, 57, 0
3, 17640, Note_on_c, 1, 56, 107
3, 17688, Note_on_c, 1, 56, 0
3, 17700, Note_on_c, 1, 54, 107
3, 17748, Note_on_c, 1, 54, 0
3, 17760, Note_on_c, 1, 52, 107
3, 17808, Note_on_c, 1, 52, 0
3, 17820, Note_on_c, 1, 54, 107
3, 17868, Note_on_c, 1, 54, 0
3, 17880, Note_on_c, 1, 56, 107
3, 17928, Note_on_c, 1, 56, 0
3, 17940, Note_on_c, 1, 54, 107
3, 17988, Note_on_c, 1, 54, 0
3, 18000, Note_on_c, 1, 56, 107
3, 18048, Note_on_c, 1, 56, 0
3, 18060, Note_on_c, 1, 52, 107
3, 18108, Note_on_c, 1, 52, 0
3, 18120, Note_on_c, 1, 54, 107
3, 18168, Note_on_c, 1, 54, 0
3, 18180, Note_on_c, 1, 56, 107
3, 18228, Note_on_c, 1, 56, 0
3, 18240, Note_on_c, 1, 57, 107
3, 18288, Note_on_c, 1, 57, 0
3, 18300, Note_on_c, 1, 56, 107
3, 18348, Note_on_c, 1, 56, 0
3, 18360, Note_on_c, 1, 54, 107
3, 18408, Note_on_c, 1, 54, 0
3, 18420, Note_on_c, 1, 52, 107
3, 18468, Note_on_c, 1, 52, 0
3, 18480, Note_on_c, 1, 51, 107
3, 18528, Note_on_c, 1, 51, 0
3, 18540, Note_on_c, 1, 52, 107
3, 18588, Note_on_c, 1, 52, 0
3, 18600, Note_on_c, 1, 54, 107
3, 18648, Note_on_c, 1, 54, 0
3, 18660, Note_on_c, 1, 52, 107
3, 18708, Note_on_c, 1, 52, 0
3, 18720, Note_on_c, 1, 54, 107
3, 18768, Note_on_c, 1, 54, 0
3, 18780, Note_on_c, 1, 51, 107
3, 18828, Note_on_c, 1, 51, 0
3, 18840, Note_on_c, 1, 52, 107
3, 18888, Note_on_c, 1, 52, 0
3, 18900, Note_on_c, 1, 54, 107
3, 18948, Note_on_c, 1, 54, 0
3, 18960, Note_on_c, 1, 54, 107
3, 18972, Note_on_c, 1, 54, 0
3, 18975, Note_on_c, 1, 56, 107
3, 18987, Note_on_c, 1, 56, 0
3, 18990, Note_on_c, 1, 54, 107
3, 19014, Note_on_c, 1, 54, 0
3, 19020, Note_on_c, 1, 52, 107
3, 19044, Note_on_c, 1, 52, 0
3, 19050, Note_on_c, 1, 54, 107
3, 19074, Note_on_c, 1, 54, 0
3, 19080, Note_on_c, 1, 56, 107
3, 19128, Note_on_c, 1, 56, 0
3, 19140, Note_on_c, 1, 57, 107
3, 19188, Note_on_c, 1, 57, 0
3, 19200, Note_on_c, 1, 57, 107
3, 19212, Note_on_c, 1, 57, 0
3, 19215, Note_on_c, 1, 59, 107
3, 19227, Note_on_c, 1, 59, 0
3, 19230, Note_on_c, 1, 57, 107
3, 19254, Note_on_c, 1, 57, 0
3, 19260, Note_on_c, 1, 56, 107
3, 19284, Note_on_c, 1, 56, 0
3, 19290, Note_on_c, 1, 57, 107
3, 19314, Note_on_c, 1, 57, 0
3, 19320, Note_on_c, 1, 59, 107
3, 19410, Note_on_c, 1, 59, 0
3, 19440, Note_on_c, 1, 47, 107
3, 19530, Note_on_c, 1, 47, 0
3, 19560, Note_on_c, 1, 40, 107
3, 19656, Note_on_c, 1, 40, 0
3, 19680, Note_on_c, 1, 52, 107
3, 19728, Note_on_c, 1, 52, 0
3, 19740, Note_on_c, 1, 50, 107
3, 19788, Note_on_c, 1, 50, 0
3, 19800, Note_on_c, 1, 49, 107
3, 19848, Note_on_c, 1, 49, 0
3, 19860, Note_on_c, 1, 47, 107
3, 19908, Note_on_c, 1, 47, 0
3, 19920, Note_on_c, 1, 45, 107
3, 20010, Note_on_c, 1, 45, 0
3, 20040, Note_on_c, 1, 47, 107
3, 20064, Note_on_c, 1, 47, 0
3, 20070, Note_on_c, 1, 45, 107
3, 20094, Note_on_c, 1, 45, 0
3, 20100, Note_on_c, 1, 47, 107
3, 20124, Note_on_c, 1, 47, 0
3, 20130, Note_on_c, 1, 45, 107
3, 20154, Note_on_c, 1, 45, 0
3, 20160, Note_on_c, 1, 47, 107
3, 20184, Note_on_c, 1, 47, 0
3, 20190, Note_on_c, 1, 45, 107
3, 20214, Note_on_c, 1, 45, 0
3, 20220, Note_on_c, 1, 44, 107
3, 20244, Note_on_c, 1, 44, 0
3, 20250, Note_on_c, 1, 45, 107
3, 20274, Note_on_c, 1, 45, 0
3, 20280, Note_on_c, 1, 47, 107
3, 20328, Note_on_c, 1, 47, 0
3, 20340, Note_on_c, 1, 49, 107
3, 20388, Note_on_c, 1, 49, 0
3, 20400, Note_on_c, 1, 51, 107
3, 20448, Note_on_c, 1, 51, 0
3, 20460, Note_on_c, 1, 49, 107
3, 20508, Note_on_c, 1, 49, 0
3, 20520, Note_on_c, 1, 47, 107
3, 20568, Note_on_c, 1, 47, 0
3, 20580, Note_on_c, 1, 45, 107
3, 20628, Note_on_c, 1, 45, 0
3, 20640, Note_on_c, 1, 44, 107
3, 20736, Note_on_c, 1, 44, 0
3, 20760, Note_on_c, 1, 47, 107
3, 20784, Note_on_c, 1, 47, 0
3, 20790, Note_on_c, 1, 45, 107
3, 20814, Note_on_c, 1, 45, 0
3, 20820, Note_on_c, 1, 47, 107
3, 20844, Note_on_c, 1, 47, 0
3, 20850, Note_on_c, 1, 45, 107
3, 20874, Note_on_c, 1, 45, 0
3, 20880, Note_on_c, 1, 47, 107
3, 20904, Note_on_c, 1, 47, 0
3, 20910, Note_on_c, 1, 45, 107
3, 20934, Note_on_c, 1, 45, 0
3, 20940, Note_on_c, 1, 42, 107
3, 20964, Note_on_c, 1, 42, 0
3, 20970, Note_on_c, 1, 44, 107
3, 20994, Note_on_c, 1, 44, 0
3, 21000, Note_on_c, 1, 45, 107
3, 21048, Note_on_c, 1, 45, 0
3, 21060, Note_on_c, 1, 47, 107
3, 21108, Note_on_c, 1, 47, 0
3, 21120, Note_on_c, 1, 49, 107
3, 21168, Note_on_c, 1, 49, 0
3, 21180, Note_on_c, 1, 47, 107
3, 21228, Note_on_c, 1, 47, 0
3, 21240, Note_on_c, 1, 45, 107
3, 21288, Note_on_c, 1, 45, 0
3, 21300, Note_on_c, 1, 44, 107
3, 21348, Note_on_c, 1, 44, 0
3, 21360, Note_on_c, 1, 42, 107
3, 21408, Note_on_c, 1, 42, 0
3, 21420, Note_on_c, 1, 44, 107
3, 21468, Note_on_c, 1, 44, 0
3, 21480, Note_on_c, 1, 45, 107
3, 21528, Note_on_c, 1, 45, 0
3, 21540, Note_on_c, 1, 44, 107
3, 21588, Note_on_c, 1, 44, 0
3, 21600, Note_on_c, 1, 42, 107
3, 21648, Note_on_c, 1, 42, 0
3, 21660, Note_on_c, 1, 40, 107
3, 21708, Note_on_c, 1, 40, 0
3, 21720, Note_on_c, 1, 39, 107
3, 21816, Note_on_c, 1, 39, 0
3, 21840, Note_on_c, 1, 47, 107
3, 21936, Note_on_c, 1, 47, 0
3, 21960, Note_on_c, 1, 49, 107
3, 22056, Note_on_c, 1, 49, 0
3, 22080, Note_on_c, 1, 45, 107
3, 22176, Note_on_c, 1, 45, 0
3, 22200, Note_on_c, 1, 47, 107
3, 22296, Note_on_c, 1, 47, 0
3, 22320, Note_on_c, 1, 35, 107
3, 22416, Note_on_c, 1, 35, 0
3, 22440, Note_on_c, 1, 40, 107
3, 22440, Note_on_c, 1, 40, 107
3, 22536, Note_on_c, 1, 40, 0
3, 22560, Note_on_c, 1, 44, 107
3, 22656, Note_on_c, 1, 44, 0
3, 22680, Note_on_c, 1, 47, 107
3, 22776, Note_on_c, 1, 47, 0
3, 22800, Note_on_c, 1, 52, 107
3, 22992, Note_on_c, 1, 52, 0
3, 22992, Note_on_c, 1, 40, 0
3, 23760, Note_on_c, 1, 52, 107
3, 23850, Note_on_c, 1, 52, 0
3, 23880, Note_on_c, 1, 45, 107
3, 23976, Note_on_c, 1, 45, 0
3, 24000, Note_on_c, 1, 47, 107
3, 24048, Note_on_c, 1, 47, 0
3, 24060, Note_on_c, 1, 49, 107
3, 24108, Note_on_c, 1, 49, 0
3, 24120, Note_on_c, 1, 50, 107
3, 24168, Note_on_c, 1, 50, 0
3, 24180, Note_on_c, 1, 52, 107
3, 24228, Note_on_c, 1, 52, 0
3, 24240, Note_on_c, 1, 50, 107
3, 24288, Note_on_c, 1, 50, 0
3, 24300, Note_on_c, 1, 52, 107
3, 24348, Note_on_c, 1, 52, 0
3, 24360, Note_on_c, 1, 54, 107
3, 24384, Note_on_c, 1, 54, 0
3, 24390, Note_on_c, 1, 52, 107
3, 24414, Note_on_c, 1, 52, 0
3, 24420, Note_on_c, 1, 54, 107
3, 24444, Note_on_c, 1, 54, 0
3, 24450, Note_on_c, 1, 52, 107
3, 24474, Note_on_c, 1, 52, 0
3, 24480, Note_on_c, 1, 54, 107
3, 24504, Note_on_c, 1, 54, 0
3, 24510, Note_on_c, 1, 52, 107
3, 24534, Note_on_c, 1, 52, 0
3, 24540, Note_on_c, 1, 50, 107
3, 24564, Note_on_c, 1, 50, 0
3, 24570, Note_on_c, 1, 52, 107
3, 24594, Note_on_c, 1, 52, 0
3, 24600, Note_on_c, 1, 54, 107
3, 24696, Note_on_c, 1, 54, 0
3, 24720, Note_on_c, 1, 52, 107
3, 24768, Note_on_c, 1, 52, 0
3, 24780, Note_on_c, 1, 50, 107
3, 24828, Note_on_c, 1, 50, 0
3, 24840, Note_on_c, 1, 49, 107
3, 24888, Note_on_c, 1, 49, 0
3, 24900, Note_on_c, 1, 47, 107
3, 24948, Note_on_c, 1, 47, 0
3, 24960, Note_on_c, 1, 46, 107
3, 25008, Note_on_c, 1, 46, 0
3, 25020, Note_on_c, 1, 47, 107
3, 25068, Note_on_c, 1, 47, 0
3, 25080, Note_on_c, 1, 50, 107
3, 25104, Note_on_c, 1, 50, 0
3, 25110, Note_on_c, 1, 49, 107
3, 25134, Note_on_c, 1, 49, 0
3, 25140, Note_on_c, 1, 50, 107
3, 25164, Note_on_c, 1, 50, 0
3, 25170, Note_on_c, 1, 49, 107
3, 25194, Note_on_c, 1, 49, 0
3, 25200, Note_on_c, 1, 50, 107
3, 25224, Note_on_c, 1, 50, 0
3, 25230, Note_on_c, 1, 49, 107
3, 25254, Note_on_c, 1, 49, 0
3, 25260, Note_on_c, 1, 45, 107
3, 25284, Note_on_c, 1, 45, 0
3, 25290, Note_on_c, 1, 47, 107
3, 25314, Note_on_c, 1, 47, 0
3, 25320, Note_on_c, 1, 49, 107
3, 25368, Note_on_c, 1, 49, 0
3, 25380, Note_on_c, 1, 42, 107
3, 25428, Note_on_c, 1, 42, 0
3, 25440, Note_on_c, 1, 44, 107
3, 25488, Note_on_c, 1, 44, 0
3, 25500, Note_on_c, 1, 46, 107
3, 25548, Note_on_c, 1, 46, 0
3, 25560, Note_on_c, 1, 47, 107
3, 25608, Note_on_c, 1, 47, 0
3, 25620, Note_on_c, 1, 49, 107
3, 25668, Note_on_c, 1, 49, 0
3, 25680, Note_on_c, 1, 50, 107
3, 25728, Note_on_c, 1, 50, 0
3, 25740, Note_on_c, 1, 47, 107
3, 25788, Note_on_c, 1, 47, 0
3, 25800, Note_on_c, 1, 54, 107
3, 25890, Note_on_c, 1, 54, 0
3, 25920, Note_on_c, 1, 42, 107
3, 26010, Note_on_c, 1, 42, 0
3, 26040, Note_on_c, 1, 47, 107
3, 26232, Note_on_c, 1, 47, 0
3, 26640, Note_on_c, 1, 59, 107
3, 26730, Note_on_c, 1, 59, 0
3, 26760, Note_on_c, 1, 52, 107
3, 26856, Note_on_c, 1, 52, 0
3, 26880, Note_on_c, 1, 54, 107
3, 26928, Note_on_c, 1, 54, 0
3, 26940, Note_on_c, 1, 55, 107
3, 26988, Note_on_c, 1, 55, 0
3, 27000, Note_on_c, 1, 57, 107
3, 27048, Note_on_c, 1, 57, 0
3, 27060, Note_on_c, 1, 59, 107
3, 27108, Note_on_c, 1, 59, 0
3, 27120, Note_on_c, 1, 57, 107
3, 27168, Note_on_c, 1, 57, 0
3, 27180, Note_on_c, 1, 59, 107
3, 27228, Note_on_c, 1, 59, 0
3, 27240, Note_on_c, 1, 60, 107
3, 27264, Note_on_c, 1, 60, 0
3, 27270, Note_on_c, 1, 59, 107
3, 27294, Note_on_c, 1, 59, 0
3, 27300, Note_on_c, 1, 60, 107
3, 27324, Note_on_c, 1, 60, 0
3, 27330, Note_on_c, 1, 59, 107
3, 27359, Note_on_c, 1, 59, 0
3, 27360, Note_on_c, 1, 60, 107
3, 27384, Note_on_c, 1, 60, 0
3, 27390, Note_on_c, 1, 59, 107
3, 27414, Note_on_c, 1, 59, 0
3, 27420, Note_on_c, 1, 57, 107
3, 27444, Note_on_c, 1, 57, 0
3, 27450, Note_on_c, 1, 59, 107
3, 27474, Note_on_c, 1, 59, 0
3, 27480, Note_on_c, 1, 60, 107
3, 27528, Note_on_c, 1, 60, 0
3, 27540, Note_on_c, 1, 59, 107
3, 27588, Note_on_c, 1, 59, 0
3, 27600, Note_on_c, 1, 57, 107
3, 27648, Note_on_c, 1, 57, 0
3, 27660, Note_on_c, 1, 55, 107
3, 27708, Note_on_c, 1, 55, 0
3, 27720, Note_on_c, 1, 54, 107
3, 27768, Note_on_c, 1, 54, 0
3, 27780, Note_on_c, 1, 52, 107
3, 27828, Note_on_c, 1, 52, 0
3, 27840, Note_on_c, 1, 51, 107
3, 27888, Note_on_c, 1, 51, 0
3, 27900, Note_on_c, 1, 52, 107
3, 27948, Note_on_c, 1, 52, 0
3, 27960, Note_on_c, 1, 54, 107
3, 27984, Note_on_c, 1, 54, 0
3, 27990, Note_on_c, 1, 52, 107
3, 28014, Note_on_c, 1, 52, 0
3, 28020, Note_on_c, 1, 54, 107
3, 28044, Note_on_c, 1, 54, 0
3, 28050, Note_on_c, 1, 52, 107
3, 28074, Note_on_c, 1, 52, 0
3, 28080, Note_on_c, 1, 54, 107
3, 28104, Note_on_c, 1, 54, 0
3, 28110, Note_on_c, 1, 52, 107
3, 28139, Note_on_c, 1, 52, 0
3, 28140, Note_on_c, 1, 51, 107
3, 28164, Note_on_c, 1, 51, 0
3, 28170, Note_on_c, 1, 52, 107
3, 28194, Note_on_c, 1, 52, 0
3, 28200, Note_on_c, 1, 54, 107
3, 28248, Note_on_c, 1, 54, 0
3, 28260, Note_on_c, 1, 47, 107
3, 28308, Note_on_c, 1, 47, 0
3, 28320, Note_on_c, 1, 49, 107
3, 28368, Note_on_c, 1, 49, 0
3, 28380, Note_on_c, 1, 51, 107
3, 28428, Note_on_c, 1, 51, 0
3, 28440, Note_on_c, 1, 52, 107
3, 28488, Note_on_c, 1, 52, 0
3, 28500, Note_on_c, 1, 54, 107
3, 28548, Note_on_c, 1, 54, 0
3, 28560, Note_on_c, 1, 55, 107
3, 28608, Note_on_c, 1, 55, 0
3, 28620, Note_on_c, 1, 52, 107
3, 28668, Note_on_c, 1, 52, 0
3, 28680, Note_on_c, 1, 59, 107
3, 28770, Note_on_c, 1, 59, 0
3, 28800, Note_on_c, 1, 47, 107
3, 28890, Note_on_c, 1, 47, 0
3, 28920, Note_on_c, 1, 40, 107
3, 29016, Note_on_c, 1, 40, 0
3, 29040, Note_on_c, 1, 42, 107
3, 29088, Note_on_c, 1, 42, 0
3, 29100, Note_on_c, 1, 44, 107
3, 29148, Note_on_c, 1, 44, 0
3, 29160, Note_on_c, 1, 45, 107
3, 29208, Note_on_c, 1, 45, 0
3, 29220, Note_on_c, 1, 47, 107
3, 29268, Note_on_c, 1, 47, 0
3, 29280, Note_on_c, 1, 45, 107
3, 29328, Note_on_c, 1, 45, 0
3, 29340, Note_on_c, 1, 47, 107
3, 29388, Note_on_c, 1, 47, 0
3, 29400, Note_on_c, 1, 49, 107
3, 29424, Note_on_c, 1, 49, 0
3, 29430, Note_on_c, 1, 47, 107
3, 29454, Note_on_c, 1, 47, 0
3, 29460, Note_on_c, 1, 49, 107
3, 29484, Note_on_c, 1, 49, 0
3, 29490, Note_on_c, 1, 47, 107
3, 29514, Note_on_c, 1, 47, 0
3, 29520, Note_on_c, 1, 49, 107
3, 29544, Note_on_c, 1, 49, 0
3, 29550, Note_on_c, 1, 47, 107
3, 29579, Note_on_c, 1, 47, 0
3, 29580, Note_on_c, 1, 45, 107
3, 29609, Note_on_c, 1, 45, 0
3, 29610, Note_on_c, 1, 47, 107
3, 29639, Note_on_c, 1, 47, 0
3, 29640, Note_on_c, 1, 49, 107
3, 29688, Note_on_c, 1, 49, 0
3, 29700, Note_on_c, 1, 45, 107
3, 29748, Note_on_c, 1, 45, 0
3, 29760, Note_on_c, 1, 47, 107
3, 29808, Note_on_c, 1, 47, 0
3, 29820, Note_on_c, 1, 49, 107
3, 29868, Note_on_c, 1, 49, 0
3, 29880, Note_on_c, 1, 50, 107
3, 29928, Note_on_c, 1, 50, 0
3, 29940, Note_on_c, 1, 52, 107
3, 29988, Note_on_c, 1, 52, 0
3, 30000, Note_on_c, 1, 50, 107
3, 30048, Note_on_c, 1, 50, 0
3, 30060, Note_on_c, 1, 52, 107
3, 30108, Note_on_c, 1, 52, 0
3, 30120, Note_on_c, 1, 54, 107
3, 30144, Note_on_c, 1, 54, 0
3, 30150, Note_on_c, 1, 52, 107
3, 30174, Note_on_c, 1, 52, 0
3, 30180, Note_on_c, 1, 54, 107
3, 30204, Note_on_c, 1, 54, 0
3, 30210, Note_on_c, 1, 52, 107
3, 30234, Note_on_c, 1, 52, 0
3, 30240, Note_on_c, 1, 54, 107
3, 30264, Note_on_c, 1, 54, 0
3, 30270, Note_on_c, 1, 52, 107
3, 30299, Note_on_c, 1, 52, 0
3, 30300, Note_on_c, 1, 50, 107
3, 30324, Note_on_c, 1, 50, 0
3, 30330, Note_on_c, 1, 52, 107
3, 30354, Note_on_c, 1, 52, 0
3, 30360, Note_on_c, 1, 54, 127
3, 30504, Note_on_c, 1, 54, 0
3, 30540, Note_on_c, 1, 50, 107
3, 30588, Note_on_c, 1, 50, 0
3, 30600, Note_on_c, 1, 47, 107
3, 30648, Note_on_c, 1, 47, 0
3, 30660, Note_on_c, 1, 50, 107
3, 30708, Note_on_c, 1, 50, 0
3, 30720, Note_on_c, 1, 44, 127
3, 30864, Note_on_c, 1, 44, 0
3, 30900, Note_on_c, 1, 52, 107
3, 30948, Note_on_c, 1, 52, 0
3, 30960, Note_on_c, 1, 56, 107
3, 31008, Note_on_c, 1, 56, 0
3, 31020, Note_on_c, 1, 52, 107
3, 31068, Note_on_c, 1, 52, 0
3, 31080, Note_on_c, 1, 57, 127
3, 31224, Note_on_c, 1, 57, 0
3, 31260, Note_on_c, 1, 52, 107
3, 31308, Note_on_c, 1, 52, 0
3, 31320, Note_on_c, 1, 45, 107
3, 31368, Note_on_c, 1, 45, 0
3, 31380, Note_on_c, 1, 49, 107
3, 31428, Note_on_c, 1, 49, 0
3, 31440, Note_on_c, 1, 38, 107
3, 31584, Note_on_c, 1, 38, 0
3, 31620, Note_on_c, 1, 42, 107
3, 31668, Note_on_c, 1, 42, 0
3, 31680, Note_on_c, 1, 44, 107
3, 31848, Note_on_c, 1, 44, 0
3, 31860, Note_on_c, 1, 47, 107
3, 31908, Note_on_c, 1, 47, 0
3, 31920, Note_on_c, 1, 49, 107
3, 32064, Note_on_c, 1, 49, 0
3, 32100, Note_on_c, 1, 52, 107
3, 32148, Note_on_c, 1, 52, 0
3, 32160, Note_on_c, 1, 54, 107
3, 32208, Note_on_c, 1, 54, 0
3, 32220, Note_on_c, 1, 57, 107
3, 32268, Note_on_c, 1, 57, 0
3, 32280, Note_on_c, 1, 59, 107
3, 32328, Note_on_c, 1, 59, 0
3, 32340, Note_on_c, 1, 57, 107
3, 32388, Note_on_c, 1, 57, 0
3, 32400, Note_on_c, 1, 54, 107
3, 32448, Note_on_c, 1, 54, 0
3, 32460, Note_on_c, 1, 47, 107
3, 32508, Note_on_c, 1, 47, 0
3, 32520, Note_on_c, 1, 52, 107
3, 32568, Note_on_c, 1, 52, 0
3, 32580, Note_on_c, 1, 57, 107
3, 32628, Note_on_c, 1, 57, 0
3, 32640, Note_on_c, 1, 56, 107
3, 32688, Note_on_c, 1, 56, 0
3, 32700, Note_on_c, 1, 54, 107
3, 32748, Note_on_c, 1, 54, 0
3, 32760, Note_on_c, 1, 52, 107
3, 32808, Note_on_c, 1, 52, 0
3, 32820, Note_on_c, 1, 50, 107
3, 32868, Note_on_c, 1, 50, 0
3, 32880, Note_on_c, 1, 49, 107
3, 32928, Note_on_c, 1, 49, 0
3, 32940, Note_on_c, 1, 50, 107
3, 32988, Note_on_c, 1, 50, 0
3, 33000, Note_on_c, 1, 52, 107
3, 33048, Note_on_c, 1, 52, 0
3, 33060, Note_on_c, 1, 50, 107
3, 33108, Note_on_c, 1, 50, 0
3, 33120, Note_on_c, 1, 49, 107
3, 33168, Note_on_c, 1, 49, 0
3, 33180, Note_on_c, 1, 47, 107
3, 33228, Note_on_c, 1, 47, 0
3, 33240, Note_on_c, 1, 45, 107
3, 33288, Note_on_c, 1, 45, 0
3, 33300, Note_on_c, 1, 50, 107
3, 33348, Note_on_c, 1, 50, 0
3, 33360, Note_on_c, 1, 49, 107
3, 33408, Note_on_c, 1, 49, 0
3, 33420, Note_on_c, 1, 47, 107
3, 33468, Note_on_c, 1, 47, 0
3, 33480, Note_on_c, 1, 45, 107
3, 33528, Note_on_c, 1, 45, 0
3, 33540, Note_on_c, 1, 43, 107
3, 33588, Note_on_c, 1, 43, 0
3, 33600, Note_on_c, 1, 42, 107
3, 33648, Note_on_c, 1, 42, 0
3, 33660, Note_on_c, 1, 43, 107
3, 33708, Note_on_c, 1, 43, 0
3, 33720, Note_on_c, 1, 45, 107
3, 33768, Note_on_c, 1, 45, 0
3, 33780, Note_on_c, 1, 43, 107
3, 33828, Note_on_c, 1, 43, 0
3, 33840, Note_on_c, 1, 42, 107
3, 33888, Note_on_c, 1, 42, 0
3, 33900, Note_on_c, 1, 40, 107
3, 33948, Note_on_c, 1, 40, 0
3, 33960, Note_on_c, 1, 38, 107
3, 34008, Note_on_c, 1, 38, 0
3, 34020, Note_on_c, 1, 42, 107
3, 34068, Note_on_c, 1, 42, 0
3, 34080, Note_on_c, 1, 43, 107
3, 34128, Note_on_c, 1, 43, 0
3, 34140, Note_on_c, 1, 45, 107
3, 34188, Note_on_c, 1, 45, 0
3, 34200, Note_on_c, 1, 47, 107
3, 34248, Note_on_c, 1, 47, 0
3, 34260, Note_on_c, 1, 49, 107
3, 34308, Note_on_c, 1, 49, 0
3, 34320, Note_on_c, 1, 50, 107
3, 34368, Note_on_c, 1, 50, 0
3, 34380, Note_on_c, 1, 52, 107
3, 34428, Note_on_c, 1, 52, 0
3, 34440, Note_on_c, 1, 50, 107
3, 34488, Note_on_c, 1, 50, 0
3, 34500, Note_on_c, 1, 49, 107
3, 34548, Note_on_c, 1, 49, 0
3, 34560, Note_on_c, 1, 47, 107
3, 34608, Note_on_c, 1, 47, 0
3, 34620, Note_on_c, 1, 45, 107
3, 34668, Note_on_c, 1, 45, 0
3, 34680, Note_on_c, 1, 44, 107
3, 34728, Note_on_c, 1, 44, 0
3, 34740, Note_on_c, 1, 40, 107
3, 34788, Note_on_c, 1, 40, 0
3, 34800, Note_on_c, 1, 42, 107
3, 34848, Note_on_c, 1, 42, 0
3, 34860, Note_on_c, 1, 44, 107
3, 34908, Note_on_c, 1, 44, 0
3, 34920, Note_on_c, 1, 45, 107
3, 34968, Note_on_c, 1, 45, 0
3, 34980, Note_on_c, 1, 47, 107
3, 35028, Note_on_c, 1, 47, 0
3, 35040, Note_on_c, 1, 45, 107
3, 35088, Note_on_c, 1, 45, 0
3, 35100, Note_on_c, 1, 47, 107
3, 35148, Note_on_c, 1, 47, 0
3, 35160, Note_on_c, 1, 49, 107
3, 35184, Note_on_c, 1, 49, 0
3, 35190, Note_on_c, 1, 47, 107
3, 35214, Note_on_c, 1, 47, 0
3, 35220, Note_on_c, 1, 49, 107
3, 35244, Note_on_c, 1, 49, 0
3, 35250, Note_on_c, 1, 47, 107
3, 35274, Note_on_c, 1, 47, 0
3, 35280, Note_on_c, 1, 49, 107
3, 35304, Note_on_c, 1, 49, 0
3, 35310, Note_on_c, 1, 47, 107
3, 35339, Note_on_c, 1, 47, 0
3, 35340, Note_on_c, 1, 45, 107
3, 35364, Note_on_c, 1, 45, 0
3, 35370, Note_on_c, 1, 47, 107
3, 35394, Note_on_c, 1, 47, 0
3, 35400, Note_on_c, 1, 49, 107
3, 35448, Note_on_c, 1, 49, 0
3, 35460, Note_on_c, 1, 47, 107
3, 35508, Note_on_c, 1, 47, 0
3, 35520, Note_on_c, 1, 45, 107
3, 35568, Note_on_c, 1, 45, 0
3, 35580, Note_on_c, 1, 47, 107
3, 35628, Note_on_c, 1, 47, 0
3, 35640, Note_on_c, 1, 49, 107
3, 35688, Note_on_c, 1, 49, 0
3, 35700, Note_on_c, 1, 45, 107
3, 35748, Note_on_c, 1, 45, 0
3, 35760, Note_on_c, 1, 50, 107
3, 35808, Note_on_c, 1, 50, 0
3, 35820, Note_on_c, 1, 49, 107
3, 35868, Note_on_c, 1, 49, 0
3, 35880, Note_on_c, 1, 47, 107
3, 35928, Note_on_c, 1, 47, 0
3, 35940, Note_on_c, 1, 49, 107
3, 35988, Note_on_c, 1, 49, 0
3, 36000, Note_on_c, 1, 50, 107
3, 36048, Note_on_c, 1, 50, 0
3, 36060, Note_on_c, 1, 47, 107
3, 36108, Note_on_c, 1, 47, 0
3, 36120, Note_on_c, 1, 52, 107
3, 36168, Note_on_c, 1, 52, 0
3, 36180, Note_on_c, 1, 54, 107
3, 36228, Note_on_c, 1, 54, 0
3, 36240, Note_on_c, 1, 52, 107
3, 36288, Note_on_c, 1, 52, 0
3, 36300, Note_on_c, 1, 50, 107
3, 36348, Note_on_c, 1, 50, 0
3, 36360, Note_on_c, 1, 49, 107
3, 36408, Note_on_c, 1, 49, 0
3, 36420, Note_on_c, 1, 47, 107
3, 36468, Note_on_c, 1, 47, 0
3, 36480, Note_on_c, 1, 49, 107
3, 36528, Note_on_c, 1, 49, 0
3, 36540, Note_on_c, 1, 50, 107
3, 36588, Note_on_c, 1, 50, 0
3, 36600, Note_on_c, 1, 52, 107
3, 36690, Note_on_c, 1, 52, 0
3, 36720, Note_on_c, 1, 40, 107
3, 36810, Note_on_c, 1, 40, 0
3, 36840, Note_on_c, 1, 45, 107
3, 36936, Note_on_c, 1, 45, 0
3, 36960, Note_on_c, 1, 57, 107
3, 37008, Note_on_c, 1, 57, 0
3, 37020, Note_on_c, 1, 56, 107
3, 37068, Note_on_c, 1, 56, 0
3, 37080, Note_on_c, 1, 54, 107
3, 37128, Note_on_c, 1, 54, 0
3, 37140, Note_on_c, 1, 52, 107
3, 37188, Note_on_c, 1, 52, 0
3, 37200, Note_on_c, 1, 50, 107
3, 37290, Note_on_c, 1, 50, 0
3, 37320, Note_on_c, 1, 52, 107
3, 37344, Note_on_c, 1, 52, 0
3, 37350, Note_on_c, 1, 50, 107
3, 37374, Note_on_c, 1, 50, 0
3, 37380, Note_on_c, 1, 52, 107
3, 37404, Note_on_c, 1, 52, 0
3, 37410, Note_on_c, 1, 50, 107
3, 37434, Note_on_c, 1, 50, 0
3, 37440, Note_on_c, 1, 52, 107
3, 37464, Note_on_c, 1, 52, 0
3, 37470, Note_on_c, 1, 50, 107
3, 37499, Note_on_c, 1, 50, 0
3, 37500, Note_on_c, 1, 49, 107
3, 37524, Note_on_c, 1, 49, 0
3, 37530, Note_on_c, 1, 50, 107
3, 37554, Note_on_c, 1, 50, 0
3, 37560, Note_on_c, 1, 52, 107
3, 37608, Note_on_c, 1, 52, 0
3, 37620, Note_on_c, 1, 54, 107
3, 37668, Note_on_c, 1, 54, 0
3, 37680, Note_on_c, 1, 56, 107
3, 37728, Note_on_c, 1, 56, 0
3, 37740, Note_on_c, 1, 54, 107
3, 37788, Note_on_c, 1, 54, 0
3, 37800, Note_on_c, 1, 52, 107
3, 37848, Note_on_c, 1, 52, 0
3, 37860, Note_on_c, 1, 50, 107
3, 37908, Note_on_c, 1, 50, 0
3, 37920, Note_on_c, 1, 49, 107
3, 38010, Note_on_c, 1, 49, 0
3, 38040, Note_on_c, 1, 50, 107
3, 38064, Note_on_c, 1, 50, 0
3, 38070, Note_on_c, 1, 49, 107
3, 38094, Note_on_c, 1, 49, 0
3, 38100, Note_on_c, 1, 50, 107
3, 38124, Note_on_c, 1, 50, 0
3, 38130, Note_on_c, 1, 49, 107
3, 38154, Note_on_c, 1, 49, 0
3, 38160, Note_on_c, 1, 50, 107
3, 38184, Note_on_c, 1, 50, 0
3, 38190, Note_on_c, 1, 49, 107
3, 38219, Note_on_c, 1, 49, 0
3, 38220, Note_on_c, 1, 47, 107
3, 38244, Note_on_c, 1, 47, 0
3, 38250, Note_on_c, 1, 49, 107
3, 38274, Note_on_c, 1, 49, 0
3, 38280, Note_on_c, 1, 50, 107
3, 38328, Note_on_c, 1, 50, 0
3, 38340, Note_on_c, 1, 52, 107
3, 38388, Note_on_c, 1, 52, 0
3, 38400, Note_on_c, 1, 54, 107
3, 38448, Note_on_c, 1, 54, 0
3, 38460, Note_on_c, 1, 52, 107
3, 38508, Note_on_c, 1, 52, 0
3, 38520, Note_on_c, 1, 50, 107
3, 38568, Note_on_c, 1, 50, 0
3, 38580, Note_on_c, 1, 49, 107
3, 38628, Note_on_c, 1, 49, 0
3, 38640, Note_on_c, 1, 47, 107
3, 38688, Note_on_c, 1, 47, 0
3, 38700, Note_on_c, 1, 49, 107
3, 38748, Note_on_c, 1, 49, 0
3, 38760, Note_on_c, 1, 50, 107
3, 38808, Note_on_c, 1, 50, 0
3, 38820, Note_on_c, 1, 49, 107
3, 38868, Note_on_c, 1, 49, 0
3, 38880, Note_on_c, 1, 47, 107
3, 38928, Note_on_c, 1, 47, 0
3, 38940, Note_on_c, 1, 45, 107
3, 38988, Note_on_c, 1, 45, 0
3, 39000, Note_on_c, 1, 44, 107
3, 39090, Note_on_c, 1, 44, 0
3, 39120, Note_on_c, 1, 52, 107
3, 39210, Note_on_c, 1, 52, 0
3, 39240, Note_on_c, 1, 54, 107
3, 39330, Note_on_c, 1, 54, 0
3, 39360, Note_on_c, 1, 50, 107
3, 39450, Note_on_c, 1, 50, 0
3, 39480, Note_on_c, 1, 52, 107
3, 39570, Note_on_c, 1, 52, 0
3, 39600, Note_on_c, 1, 40, 107
3, 39690, Note_on_c, 1, 40, 0
3, 39720, Note_on_c, 1, 33, 107
3, 39720, Note_on_c, 1, 33, 107
3, 39816, Note_on_c, 1, 33, 0
3, 39840, Note_on_c, 1, 37, 107
3, 39936, Note_on_c, 1, 37, 0
3, 39960, Note_on_c, 1, 40, 107
3, 40056, Note_on_c, 1, 40, 0
3, 40080, Note_on_c, 1, 45, 107
3, 40272, Note_on_c, 1, 45, 0
3, 40272, Note_on_c, 1, 33, 0
3, 41040, Note_on_c, 1, 52, 107
3, 41130, Note_on_c, 1, 52, 0
3, 41160, Note_on_c, 1, 45, 107
3, 41256, Note_on_c, 1, 45, 0
3, 41280, Note_on_c, 1, 47, 107
3, 41328, Note_on_c, 1, 47, 0
3, 41340, Note_on_c, 1, 49, 107
3, 41388, Note_on_c, 1, 49, 0
3, 41400, Note_on_c, 1, 50, 107
3, 41448, Note_on_c, 1, 50, 0
3, 41460, Note_on_c, 1, 52, 107
3, 41508, Note_on_c, 1, 52, 0
3, 41520, Note_on_c, 1, 50, 107
3, 41568, Note_on_c, 1, 50, 0
3, 41580, Note_on_c, 1, 52, 107
3, 41628, Note_on_c, 1, 52, 0
3, 41640, Note_on_c, 1, 54, 107
3, 41664, Note_on_c, 1, 54, 0
3, 41670, Note_on_c, 1, 52, 107
3, 41694, Note_on_c, 1, 52, 0
3, 41700, Note_on_c, 1, 54, 107
3, 41724, Note_on_c, 1, 54, 0
3, 41730, Note_on_c, 1, 52, 107
3, 41754, Note_on_c, 1, 52, 0
3, 41760, Note_on_c, 1, 54, 107
3, 41784, Note_on_c, 1, 54, 0
3, 41790, Note_on_c, 1, 52, 107
3, 41814, Note_on_c, 1, 52, 0
3, 41820, Note_on_c, 1, 50, 107
3, 41844, Note_on_c, 1, 50, 0
3, 41850, Note_on_c, 1, 52, 107
3, 41874, Note_on_c, 1, 52, 0
3, 41880, Note_on_c, 1, 54, 107
3, 41976, Note_on_c, 1, 54, 0
3, 42000, Note_on_c, 1, 52, 107
3, 42048, Note_on_c, 1, 52, 0
3, 42060, Note_on_c, 1, 50, 107
3, 42108, Note_on_c, 1, 50, 0
3, 42120, Note_on_c, 1, 49, 107
3, 42168, Note_on_c, 1, 49, 0
3, 42180, Note_on_c, 1, 47, 107
3, 42228, Note_on_c, 1, 47, 0
3, 42240, Note_on_c, 1, 46, 107
3, 42288, Note_on_c, 1, 46, 0
3, 42300, Note_on_c, 1, 47, 107
3, 42348, Note_on_c, 1, 47, 0
3, 42360, Note_on_c, 1, 50, 107
3, 42384, Note_on_c, 1, 50, 0
3, 42390, Note_on_c, 1, 49, 107
3, 42414, Note_on_c, 1, 49, 0
3, 42420, Note_on_c, 1, 50, 107
3, 42444, Note_on_c, 1, 50, 0
3, 42450, Note_on_c, 1, 49, 107
3, 42474, Note_on_c, 1, 49, 0
3, 42480, Note_on_c, 1, 50, 107
3, 42504, Note_on_c, 1, 50, 0
3, 42510, Note_on_c, 1, 49, 107
3, 42534, Note_on_c, 1, 49, 0
3, 42540, Note_on_c, 1, 45, 107
3, 42564, Note_on_c, 1, 45, 0
3, 42570, Note_on_c, 1, 47, 107
3, 42594, Note_on_c, 1, 47, 0
3, 42600, Note_on_c, 1, 49, 107
3, 42648, Note_on_c, 1, 49, 0
3, 42660, Note_on_c, 1, 42, 107
3, 42708, Note_on_c, 1, 42, 0
3, 42720, Note_on_c, 1, 44, 107
3, 42768, Note_on_c, 1, 44, 0
3, 42780, Note_on_c, 1, 46, 107
3, 42828, Note_on_c, 1, 46, 0
3, 42840, Note_on_c, 1, 47, 107
3, 42888, Note_on_c, 1, 47, 0
3, 42900, Note_on_c, 1, 49, 107
3, 42948, Note_on_c, 1, 49, 0
3, 42960, Note_on_c, 1, 50, 107
3, 43008, Note_on_c, 1, 50, 0
3, 43020, Note_on_c, 1, 47, 107
3, 43068, Note_on_c, 1, 47, 0
3, 43080, Note_on_c, 1, 54, 107
3, 43170, Note_on_c, 1, 54, 0
3, 43200, Note_on_c, 1, 42, 107
3, 43290, Note_on_c, 1, 42, 0
3, 43320, Note_on_c, 1, 47, 107
3, 43512, Note_on_c, 1, 47, 0
3, 43920, Note_on_c, 1, 59, 107
3, 44010, Note_on_c, 1, 59, 0
3, 44040, Note_on_c, 1, 52, 107
3, 44136, Note_on_c, 1, 52, 0
3, 44160, Note_on_c, 1, 54, 107
3, 44208, Note_on_c, 1, 54, 0
3, 44220, Note_on_c, 1, 55, 107
3, 44268, Note_on_c, 1, 55, 0
3, 44280, Note_on_c, 1, 57, 107
3, 44328, Note_on_c, 1, 57, 0
3, 44340, Note_on_c, 1, 59, 107
3, 44388, Note_on_c, 1, 59, 0
3, 44400, Note_on_c, 1, 57, 107
3, 44448, Note_on_c, 1, 57, 0
3, 44460, Note_on_c, 1, 59, 107
3, 44508, Note_on_c, 1, 59, 0
3, 44520, Note_on_c, 1, 60, 107
3, 44544, Note_on_c, 1, 60, 0
3, 44550, Note_on_c, 1, 59, 107
3, 44574, Note_on_c, 1, 59, 0
3, 44580, Note_on_c, 1, 60, 107
3, 44604, Note_on_c, 1, 60, 0
3, 44610, Note_on_c, 1, 59, 107
3, 44639, Note_on_c, 1, 59, 0
3, 44640, Note_on_c, 1, 60, 107
3, 44664, Note_on_c, 1, 60, 0
3, 44670, Note_on_c, 1, 59, 107
3, 44694, Note_on_c, 1, 59, 0
3, 44700, Note_on_c, 1, 57, 107
3, 44724, Note_on_c, 1, 57, 0
3, 44730, Note_on_c, 1, 59, 107
3, 44754, Note_on_c, 1, 59, 0
3, 44760, Note_on_c, 1, 60, 107
3, 44808, Note_on_c, 1, 60, 0
3, 44820, Note_on_c, 1, 59, 107
3, 44868, Note_on_c, 1, 59, 0
3, 44880, Note_on_c, 1, 57, 107
3, 44928, Note_on_c, 1, 57, 0
3, 44940, Note_on_c, 1, 55, 107
3, 44988, Note_on_c, 1, 55, 0
3, 45000, Note_on_c, 1, 54, 107
3, 45048, Note_on_c, 1, 54, 0
3, 45060, Note_on_c, 1, 52, 107
3, 45108, Note_on_c, 1, 52, 0
3, 45120, Note_on_c, 1, 51, 107
3, 45168, Note_on_c, 1, 51, 0
3, 45180, Note_on_c, 1, 52, 107
3, 45228, Note_on_c, 1, 52, 0
3, 45240, Note_on_c, 1, 54, 107
3, 45264, Note_on_c, 1, 54, 0
3, 45270, Note_on_c, 1, 52, 107
3, 45294, Note_on_c, 1, 52, 0
3, 45300, Note_on_c, 1, 54, 107
3, 45324, Note_on_c, 1, 54, 0
3, 45330, Note_on_c, 1, 52, 107
3, 45354, Note_on_c, 1, 52, 0
3, 45360, Note_on_c, 1, 54, 107
3, 45384, Note_on_c, 1, 54, 0
3, 45390, Note_on_c, 1, 52, 107
3, 45419, Note_on_c, 1, 52, 0
3, 45420, Note_on_c, 1, 51, 107
3, 45444, Note_on_c, 1, 51, 0
3, 45450, Note_on_c, 1, 52, 107
3, 45474, Note_on_c, 1, 52, 0
3, 45480, Note_on_c, 1, 54, 107
3, 45528, Note_on_c, 1, 54, 0
3, 45540, Note_on_c, 1, 47, 107
3, 45588, Note_on_c, 1, 47, 0
3, 45600, Note_on_c, 1, 49, 107
3, 45648, Note_on_c, 1, 49, 0
3, 45660, Note_on_c, 1, 51, 107
3, 45708, Note_on_c, 1, 51, 0
3, 45720, Note_on_c, 1, 52, 107
3, 45768, Note_on_c, 1, 52, 0
3, 45780, Note_on_c, 1, 54, 107
3, 45828, Note_on_c, 1, 54, 0
3, 45840, Note_on_c, 1, 55, 107
3, 45888, Note_on_c, 1, 55, 0
3, 45900, Note_on_c, 1, 52, 107
3, 45948, Note_on_c, 1, 52, 0
3, 45960, Note_on_c, 1, 59, 107
3, 46050, Note_on_c, 1, 59, 0
3, 46080, Note_on_c, 1, 47, 107
3, 46170, Note_on_c, 1, 47, 0
3, 46200, Note_on_c, 1, 40, 107
3, 46296, Note_on_c, 1, 40, 0
3, 46320, Note_on_c, 1, 42, 107
3, 46368, Note_on_c, 1, 42, 0
3, 46380, Note_on_c, 1, 44, 107
3, 46428, Note_on_c, 1, 44, 0
3, 46440, Note_on_c, 1, 45, 107
3, 46488, Note_on_c, 1, 45, 0
3, 46500, Note_on_c, 1, 47, 107
3, 46548, Note_on_c, 1, 47, 0
3, 46560, Note_on_c, 1, 45, 107
3, 46608, Note_on_c, 1, 45, 0
3, 46620, Note_on_c, 1, 47, 107
3, 46668, Note_on_c, 1, 47, 0
3, 46680, Note_on_c, 1, 49, 107
3, 46704, Note_on_c, 1, 49, 0
3, 46710, Note_on_c, 1, 47, 107
3, 46734, Note_on_c, 1, 47, 0
3, 46740, Note_on_c, 1, 49, 107
3, 46764, Note_on_c, 1, 49, 0
3, 46770, Note_on_c, 1, 47, 107
3, 46794, Note_on_c, 1, 47, 0
3, 46800, Note_on_c, 1, 49, 107
3, 46824, Note_on_c, 1, 49, 0
3, 46830, Note_on_c, 1, 47, 107
3, 46859, Note_on_c, 1, 47, 0
3, 46860, Note_on_c, 1, 45, 107
3, 46889, Note_on_c, 1, 45, 0
3, 46890, Note_on_c, 1, 47, 107
3, 46919, Note_on_c, 1, 47, 0
3, 46920, Note_on_c, 1, 49, 107
3, 46968, Note_on_c, 1, 49, 0
3, 46980, Note_on_c, 1, 45, 107
3, 47028, Note_on_c, 1, 45, 0
3, 47040, Note_on_c, 1, 47, 107
3, 47088, Note_on_c, 1, 47, 0
3, 47100, Note_on_c, 1, 49, 107
3, 47148, Note_on_c, 1, 49, 0
3, 47160, Note_on_c, 1, 50, 107
3, 47208, Note_on_c, 1, 50, 0
3, 47220, Note_on_c, 1, 52, 107
3, 47268, Note_on_c, 1, 52, 0
3, 47280, Note_on_c, 1, 50, 107
3, 47328, Note_on_c, 1, 50, 0
3, 47340, Note_on_c, 1, 52, 107
3, 47388, Note_on_c, 1, 52, 0
3, 47400, Note_on_c, 1, 54, 107
3, 47424, Note_on_c, 1, 54, 0
3, 47430, Note_on_c, 1, 52, 107
3, 47454, Note_on_c, 1, 52, 0
3, 47460, Note_on_c, 1, 54, 107
3, 47484, Note_on_c, 1, 54, 0
3, 47490, Note_on_c, 1, 52, 107
3, 47514, Note_on_c, 1, 52, 0
3, 47520, Note_on_c, 1, 54, 107
3, 47544, Note_on_c, 1, 54, 0
3, 47550, Note_on_c, 1, 52, 107
3, 47579, Note_on_c, 1, 52, 0
3, 47580, Note_on_c, 1, 50, 107
3, 47604, Note_on_c, 1, 50, 0
3, 47610, Note_on_c, 1, 52, 107
3, 47634, Note_on_c, 1, 52, 0
3, 47640, Note_on_c, 1, 54, 127
3, 47784, Note_on_c, 1, 54, 0
3, 47820, Note_on_c, 1, 50, 107
3, 47868, Note_on_c, 1, 50, 0
3, 47880, Note_on_c, 1, 47, 107
3, 47928, Note_on_c, 1, 47, 0
3, 47940, Note_on_c, 1, 50, 107
3, 47988, Note_on_c, 1, 50, 0
3, 48000, Note_on_c, 1, 44, 127
3, 48144, Note_on_c, 1, 44, 0
3, 48180, Note_on_c, 1, 52, 107
3, 48228, Note_on_c, 1, 52, 0
3, 48240, Note_on_c, 1, 56, 107
3, 48288, Note_on_c, 1, 56, 0
3, 48300, Note_on_c, 1, 52, 107
3, 48348, Note_on_c, 1, 52, 0
3, 48360, Note_on_c, 1, 57, 127
3, 48504, Note_on_c, 1, 57, 0
3, 48540, Note_on_c, 1, 52, 107
3, 48588, Note_on_c, 1, 52, 0
3, 48600, Note_on_c, 1, 45, 107
3, 48648, Note_on_c, 1, 45, 0
3, 48660, Note_on_c, 1, 49, 107
3, 48708, Note_on_c, 1, 49, 0
3, 48720, Note_on_c, 1, 38, 107
3, 48864, Note_on_c, 1, 38, 0
3, 48900, Note_on_c, 1, 42, 107
3, 48948, Note_on_c, 1, 42, 0
3, 48960, Note_on_c, 1, 44, 107
3, 49128, Note_on_c, 1, 44, 0
3, 49140, Note_on_c, 1, 47, 107
3, 49188, Note_on_c, 1, 47, 0
3, 49200, Note_on_c, 1, 49, 107
3, 49344, Note_on_c, 1, 49, 0
3, 49380, Note_on_c, 1, 52, 107
3, 49428, Note_on_c, 1, 52, 0
3, 49440, Note_on_c, 1, 54, 107
3, 49488, Note_on_c, 1, 54, 0
3, 49500, Note_on_c, 1, 57, 107
3, 49548, Note_on_c, 1, 57, 0
3, 49560, Note_on_c, 1, 59, 107
3, 49608, Note_on_c, 1, 59, 0
3, 49620, Note_on_c, 1, 57, 107
3, 49668, Note_on_c, 1, 57, 0
3, 49680, Note_on_c, 1, 54, 107
3, 49728, Note_on_c, 1, 54, 0
3, 49740, Note_on_c, 1, 47, 107
3, 49788, Note_on_c, 1, 47, 0
3, 49800, Note_on_c, 1, 52, 107
3, 49848, Note_on_c, 1, 52, 0
3, 49860, Note_on_c, 1, 57, 107
3, 49908, Note_on_c, 1, 57, 0
3, 49920, Note_on_c, 1, 56, 107
3, 49968, Note_on_c, 1, 56, 0
3, 49980, Note_on_c, 1, 54, 107
3, 50028, Note_on_c, 1, 54, 0
3, 50040, Note_on_c, 1, 52, 107
3, 50088, Note_on_c, 1, 52, 0
3, 50100, Note_on_c, 1, 50, 107
3, 50148, Note_on_c, 1, 50, 0
3, 50160, Note_on_c, 1, 49, 107
3, 50208, Note_on_c, 1, 49, 0
3, 50220, Note_on_c, 1, 50, 107
3, 50268, Note_on_c, 1, 50, 0
3, 50280, Note_on_c, 1, 52, 107
3, 50328, Note_on_c, 1, 52, 0
3, 50340, Note_on_c, 1, 50, 107
3, 50388, Note_on_c, 1, 50, 0
3, 50400, Note_on_c, 1, 49, 107
3, 50448, Note_on_c, 1, 49, 0
3, 50460, Note_on_c, 1, 47, 107
3, 50508, Note_on_c, 1, 47, 0
3, 50520, Note_on_c, 1, 45, 107
3, 50568, Note_on_c, 1, 45, 0
3, 50580, Note_on_c, 1, 50, 107
3, 50628, Note_on_c, 1, 50, 0
3, 50640, Note_on_c, 1, 49, 107
3, 50688, Note_on_c, 1, 49, 0
3, 50700, Note_on_c, 1, 47, 107
3, 50748, Note_on_c, 1, 47, 0
3, 50760, Note_on_c, 1, 45, 107
3, 50808, Note_on_c, 1, 45, 0
3, 50820, Note_on_c, 1, 43, 107
3, 50868, Note_on_c, 1, 43, 0
3, 50880, Note_on_c, 1, 42, 107
3, 50928, Note_on_c, 1, 42, 0
3, 50940, Note_on_c, 1, 43, 107
3, 50988, Note_on_c, 1, 43, 0
3, 51000, Note_on_c, 1, 45, 107
3, 51048, Note_on_c, 1, 45, 0
3, 51060, Note_on_c, 1, 43, 107
3, 51108, Note_on_c, 1, 43, 0
3, 51120, Note_on_c, 1, 42, 107
3, 51168, Note_on_c, 1, 42, 0
3, 51180, Note_on_c, 1, 40, 107
3, 51228, Note_on_c, 1, 40, 0
3, 51240, Note_on_c, 1, 38, 107
3, 51288, Note_on_c, 1, 38, 0
3, 51300, Note_on_c, 1, 42, 107
3, 51348, Note_on_c, 1, 42, 0
3, 51360, Note_on_c, 1, 43, 107
3, 51408, Note_on_c, 1, 43, 0
3, 51420, Note_on_c, 1, 45, 107
3, 51468, Note_on_c, 1, 45, 0
3, 51480, Note_on_c, 1, 47, 107
3, 51528, Note_on_c, 1, 47, 0
3, 51540, Note_on_c, 1, 49, 107
3, 51588, Note_on_c, 1, 49, 0
3, 51600, Note_on_c, 1, 50, 107
3, 51648, Note_on_c, 1, 50, 0
3, 51660, Note_on_c, 1, 52, 107
3, 51708, Note_on_c, 1, 52, 0
3, 51720, Note_on_c, 1, 50, 107
3, 51768, Note_on_c, 1, 50, 0
3, 51780, Note_on_c, 1, 49, 107
3, 51828, Note_on_c, 1, 49, 0
3, 51840, Note_on_c, 1, 47, 107
3, 51888, Note_on_c, 1, 47, 0
3, 51900, Note_on_c, 1, 45, 107
3, 51948, Note_on_c, 1, 45, 0
3, 51960, Note_on_c, 1, 44, 107
3, 52008, Note_on_c, 1, 44, 0
3, 52020, Note_on_c, 1, 40, 107
3, 52068, Note_on_c, 1, 40, 0
3, 52080, Note_on_c, 1, 42, 107
3, 52128, Note_on_c, 1, 42, 0
3, 52140, Note_on_c, 1, 44, 107
3, 52188, Note_on_c, 1, 44, 0
3, 52200, Note_on_c, 1, 45, 107
3, 52248, Note_on_c, 1, 45, 0
3, 52260, Note_on_c, 1, 47, 107
3, 52308, Note_on_c, 1, 47, 0
3, 52320, Note_on_c, 1, 45, 107
3, 52368, Note_on_c, 1, 45, 0
3, 52380, Note_on_c, 1, 47, 107
3, 52428, Note_on_c, 1, 47, 0
3, 52440, Note_on_c, 1, 49, 107
3, 52464, Note_on_c, 1, 49, 0
3, 52470, Note_on_c, 1, 47, 107
3, 52494, Note_on_c, 1, 47, 0
3, 52500, Note_on_c, 1, 49, 107
3, 52524, Note_on_c, 1, 49, 0
3, 52530, Note_on_c, 1, 47, 107
3, 52554, Note_on_c, 1, 47, 0
3, 52560, Note_on_c, 1, 49, 107
3, 52584, Note_on_c, 1, 49, 0
3, 52590, Note_on_c, 1, 47, 107
3, 52619, Note_on_c, 1, 47, 0
3, 52620, Note_on_c, 1, 45, 107
3, 52644, Note_on_c, 1, 45, 0
3, 52650, Note_on_c, 1, 47, 107
3, 52674, Note_on_c, 1, 47, 0
3, 52680, Note_on_c, 1, 49, 107
3, 52728, Note_on_c, 1, 49, 0
3, 52740, Note_on_c, 1, 47, 107
3, 52788, Note_on_c, 1, 47, 0
3, 52800, Note_on_c, 1, 45, 107
3, 52848, Note_on_c, 1, 45, 0
3, 52860, Note_on_c, 1, 47, 107
3, 52908, Note_on_c, 1, 47, 0
3, 52920, Note_on_c, 1, 49, 107
3, 52968, Note_on_c, 1, 49, 0
3, 52980, Note_on_c, 1, 45, 107
3, 53028, Note_on_c, 1, 45, 0
3, 53040, Note_on_c, 1, 50, 107
3, 53088, Note_on_c, 1, 50, 0
3, 53100, Note_on_c, 1, 49, 107
3, 53148, Note_on_c, 1, 49, 0
3, 53160, Note_on_c, 1, 47, 107
3, 53208, Note_on_c, 1, 47, 0
3, 53220, Note_on_c, 1, 49, 107
3, 53268, Note_on_c, 1, 49, 0
3, 53280, Note_on_c, 1, 50, 107
3, 53328, Note_on_c, 1, 50, 0
3, 53340, Note_on_c, 1, 47, 107
3, 53388, Note_on_c, 1, 47, 0
3, 53400, Note_on_c, 1, 52, 107
3, 53448, Note_on_c, 1, 52, 0
3, 53460, Note_on_c, 1, 54, 107
3, 53508, Note_on_c, 1, 54, 0
3, 53520, Note_on_c, 1, 52, 107
3, 53568, Note_on_c, 1, 52, 0
3, 53580, Note_on_c, 1, 50, 107
3, 53628, Note_on_c, 1, 50, 0
3, 53640, Note_on_c, 1, 49, 107
3, 53688, Note_on_c, 1, 49, 0
3, 53700, Note_on_c, 1, 47, 107
3, 53748, Note_on_c, 1, 47, 0
3, 53760, Note_on_c, 1, 49, 107
3, 53808, Note_on_c, 1, 49, 0
3, 53820, Note_on_c, 1, 50, 107
3, 53868, Note_on_c, 1, 50, 0
3, 53880, Note_on_c, 1, 52, 107
3, 53970, Note_on_c, 1, 52, 0
3, 54000, Note_on_c, 1, 40, 107
3, 54090, Note_on_c, 1, 40, 0
3, 54120, Note_on_c, 1, 45, 107
3, 54216, Note_on_c, 1, 45, 0
3, 54240, Note_on_c, 1, 57, 107
3, 54288, Note_on_c, 1, 57, 0
3, 54300, Note_on_c, 1, 56, 107
3, 54348, Note_on_c, 1, 56, 0
3, 54360, Note_on_c, 1, 54, 107
3, 54408, Note_on_c, 1, 54, 0
3, 54420, Note_on_c, 1, 52, 107
3, 54468, Note_on_c, 1, 52, 0
3, 54480, Note_on_c, 1, 50, 107
3, 54570, Note_on_c, 1, 50, 0
3, 54600, Note_on_c, 1, 52, 107
3, 54624, Note_on_c, 1, 52, 0
3, 54630, Note_on_c, 1, 50, 107
3, 54654, Note_on_c, 1, 50, 0
3, 54660, Note_on_c, 1, 52, 107
3, 54684, Note_on_c, 1, 52, 0
3, 54690, Note_on_c, 1, 50, 107
3, 54714, Note_on_c, 1, 50, 0
3, 54720, Note_on_c, 1, 52, 107
3, 54744, Note_on_c, 1, 52, 0
3, 54750, Note_on_c, 1, 50, 107
3, 54779, Note_on_c, 1, 50, 0
3, 54780, Note_on_c, 1, 49, 107
3, 54804, Note_on_c, 1, 49, 0
3, 54810, Note_on_c, 1, 50, 107
3, 54834, Note_on_c, 1, 50, 0
3, 54840, Note_on_c, 1, 52, 107
3, 54888, Note_on_c, 1, 52, 0
3, 54900, Note_on_c, 1, 54, 107
3, 54948, Note_on_c, 1, 54, 0
3, 54960, Note_on_c, 1, 56, 107
3, 55008, Note_on_c, 1, 56, 0
3, 55020, Note_on_c, 1, 54, 107
3, 55068, Note_on_c, 1, 54, 0
3, 55080, Note_on_c, 1, 52, 107
3, 55128, Note_on_c, 1, 52, 0
3, 55140, Note_on_c, 1, 50, 107
3, 55188, Note_on_c, 1, 50, 0
3, 55200, Note_on_c, 1, 49, 107
3, 55290, Note_on_c, 1, 49, 0
3, 55320, Note_on_c, 1, 50, 107
3, 55344, Note_on_c, 1, 50, 0
3, 55350, Note_on_c, 1, 49, 107
3, 55374, Note_on_c, 1, 49, 0
3, 55380, Note_on_c, 1, 50, 107
3, 55404, Note_on_c, 1, 50, 0
3, 55410, Note_on_c, 1, 49, 107
3, 55434, Note_on_c, 1, 49, 0
3, 55440, Note_on_c, 1, 50, 107
3, 55464, Note_on_c, 1, 50, 0
3, 55470, Note_on_c, 1, 49, 107
3, 55499, Note_on_c, 1, 49, 0
3, 55500, Note_on_c, 1, 47, 107
3, 55524, Note_on_c, 1, 47, 0
3, 55530, Note_on_c, 1, 49, 107
3, 55554, Note_on_c, 1, 49, 0
3, 55560, Note_on_c, 1, 50, 107
3, 55608, Note_on_c, 1, 50, 0
3, 55620, Note_on_c, 1, 52, 107
3, 55668, Note_on_c, 1, 52, 0
3, 55680, Note_on_c, 1, 54, 107
3, 55728, Note_on_c, 1, 54, 0
3, 55740, Note_on_c, 1, 52, 107
3, 55788, Note_on_c, 1, 52, 0
3, 55800, Note_on_c, 1, 50, 107
3, 55848, Note_on_c, 1, 50, 0
3, 55860, Note_on_c, 1, 49, 107
3, 55908, Note_on_c, 1, 49, 0
3, 55920, Note_on_c, 1, 47, 107
3, 55968, Note_on_c, 1, 47, 0
3, 55980, Note_on_c, 1, 49, 107
3, 56028, Note_on_c, 1, 49, 0
3, 56040, Note_on_c, 1, 50, 107
3, 56088, Note_on_c, 1, 50, 0
3, 56100, Note_on_c, 1, 49, 107
3, 56148, Note_on_c, 1, 49, 0
3, 56160, Note_on_c, 1, 47, 107
3, 56208, Note_on_c, 1, 47, 0
3, 56220, Note_on_c, 1, 45, 107
3, 56268, Note_on_c, 1, 45, 0
3, 56280, Note_on_c, 1, 44, 107
3, 56370, Note_on_c, 1, 44, 0
3, 56400, Note_on_c, 1, 52, 107
3, 56490, Note_on_c, 1, 52, 0
3, 56520, Note_on_c, 1, 54, 107
3, 56610, Note_on_c, 1, 54, 0
3, 56640, Note_on_c, 1, 50, 107
3, 56730, Note_on_c, 1, 50, 0
3, 56760, Note_on_c, 1, 52, 107
3, 56850, Note_on_c, 1, 52, 0
3, 56880, Note_on_c, 1, 40, 107
3, 56970, Note_on_c, 1, 40, 0
3, 57000, Note_on_c, 1, 33, 107
3, 57000, Note_on_c, 1, 33, 107
3, 57096, Note_on_c, 1, 33, 0
3, 57120, Note_on_c, 1, 37, 107
3, 57216, Note_on_c, 1, 37, 0
3, 57240, Note_on_c, 1, 40, 107
3, 57336, Note_on_c, 1, 40, 0
3, 57360, Note_on_c, 1, 45, 107
3, 57552, Note_on_c, 1, 45, 0
3, 57552, Note_on_c, 1, 33, 0
3, 57552, End_track
4, 0, Start_track
4, 0, MIDI_port, 0
4, 0, Title_t, "Arr. Gary Bricault, (c) 1997"
4, 0, End_track
0, 0, End_of_file
