0, 0, Header, 1, 3, 384
1, 0, Start_track
1, 0, Time_signature, 4, 2, 24, 8
1, 0, Tempo, 500000
1, 388608, End_track
2, 0, Start_track
2, 0, Text_t, "harpsichord: John Sankey"
2, 0, Program_c, 0, 6
2, 0, Pitch_bend_c, 0, 8192
2, 0, Program_c, 1, 6
2, 0, Pitch_bend_c, 1, 7792
2, 0, Program_c, 2, 6
2, 0, Pitch_bend_c, 2, 7876
2, 0, Program_c, 3, 6
2, 0, Pitch_bend_c, 3, 7952
2, 0, Program_c, 4, 6
2, 0, Pitch_bend_c, 4, 7792
2, 0, Program_c, 5, 6
2, 0, Pitch_bend_c, 5, 8112
2, 0, Program_c, 6, 6
2, 0, Pitch_bend_c, 6, 7712
2, 0, Program_c, 7, 6
2, 0, Pitch_bend_c, 7, 8037
2, 0, Program_c, 8, 6
2, 0, Pitch_bend_c, 8, 7872
2, 0, Program_c, 10, 6
2, 0, Pitch_bend_c, 10, 7712
2, 0, Program_c, 11, 6
2, 0, Pitch_bend_c, 11, 8032
2, 0, Program_c, 12, 6
2, 0, Pitch_bend_c, 12, 7872
2, 0, Title_t, "Ger.8l"
2, 64, Note_on_c, 12, 71, 127
2, 193, Note_off_c, 12, 71, 127
2, 220, Note_on_c, 8, 68, 127
2, 373, Note_off_c, 8, 68, 127
2, 375, Note_on_c, 10, 69, 127
2, 528, Note_off_c, 10, 69, 127
2, 531, Note_on_c, 12, 71, 127
2, 531, Note_on_c, 4, 52, 127
2, 684, Note_off_c, 12, 71, 127
2, 686, Note_on_c, 4, 76, 127
2, 840, Note_off_c, 4, 52, 127
2, 842, Note_on_c, 4, 64, 127
2, 842, Note_on_c, 8, 56, 127
2, 993, Note_off_c, 4, 76, 127
2, 995, Note_off_c, 4, 64, 127
2, 997, Note_on_c, 4, 76, 127
2, 1151, Note_off_c, 8, 56, 127
2, 1153, Note_on_c, 6, 66, 127
2, 1153, Note_on_c, 12, 59, 127
2, 1304, Note_off_c, 4, 76, 127
2, 1306, Note_off_c, 6, 66, 127
2, 1308, Note_on_c, 4, 76, 127
2, 1461, Note_off_c, 4, 76, 127
2, 1462, Note_off_c, 12, 59, 127
2, 1464, Note_on_c, 8, 68, 127
2, 1464, Note_on_c, 4, 64, 127
2, 1617, Note_off_c, 8, 68, 127
2, 1619, Note_on_c, 10, 69, 127
2, 1772, Note_off_c, 10, 69, 127
2, 1773, Note_off_c, 4, 64, 127
2, 1775, Note_on_c, 12, 71, 127
2, 1775, Note_on_c, 4, 52, 127
2, 1928, Note_off_c, 12, 71, 127
2, 1930, Note_on_c, 4, 76, 127
2, 2084, Note_off_c, 4, 52, 127
2, 2086, Note_on_c, 4, 64, 127
2, 2086, Note_on_c, 8, 56, 127
2, 2237, Note_off_c, 4, 76, 127
2, 2239, Note_off_c, 4, 64, 127
2, 2241, Note_on_c, 4, 76, 127
2, 2395, Note_off_c, 8, 56, 127
2, 2397, Note_on_c, 6, 66, 127
2, 2397, Note_on_c, 12, 59, 127
2, 2548, Note_off_c, 4, 76, 127
2, 2550, Note_off_c, 6, 66, 127
2, 2552, Note_on_c, 4, 76, 127
2, 2705, Note_off_c, 4, 76, 127
2, 2706, Note_off_c, 12, 59, 127
2, 2708, Note_on_c, 8, 68, 127
2, 2708, Note_on_c, 4, 64, 127
2, 2861, Note_off_c, 8, 68, 127
2, 2863, Note_on_c, 4, 76, 127
2, 3016, Note_off_c, 4, 76, 127
2, 3017, Note_off_c, 4, 64, 127
2, 3019, Note_on_c, 6, 78, 127
2, 3019, Note_on_c, 3, 63, 127
2, 3172, Note_off_c, 6, 78, 127
2, 3174, Note_on_c, 8, 80, 127
2, 3328, Note_off_c, 3, 63, 127
2, 3330, Note_on_c, 10, 69, 127
2, 3330, Note_on_c, 1, 61, 127
2, 3481, Note_off_c, 8, 80, 127
2, 3483, Note_off_c, 10, 69, 127
2, 3485, Note_on_c, 8, 80, 127
2, 3638, Note_off_c, 8, 80, 127
2, 3639, Note_off_c, 1, 61, 127
2, 3641, Note_on_c, 6, 78, 127
2, 3641, Note_on_c, 10, 57, 127
2, 3794, Note_off_c, 6, 78, 127
2, 3797, Note_on_c, 4, 76, 127
2, 3950, Note_off_c, 4, 76, 127
2, 3950, Note_off_c, 10, 57, 127
2, 3952, Note_on_c, 3, 75, 127
2, 3952, Note_on_c, 12, 59, 127
2, 4108, Note_on_c, 4, 76, 127
2, 4146, Note_off_c, 3, 75, 127
2, 4261, Note_off_c, 4, 76, 127
2, 4261, Note_off_c, 12, 59, 127
2, 4263, Note_on_c, 6, 78, 127
2, 4263, Note_on_c, 10, 57, 127
2, 4416, Note_off_c, 6, 78, 127
2, 4419, Note_on_c, 12, 83, 127
2, 4572, Note_off_c, 10, 57, 127
2, 4574, Note_on_c, 12, 71, 127
2, 4574, Note_on_c, 8, 56, 127
2, 4726, Note_off_c, 12, 83, 127
2, 4727, Note_off_c, 12, 71, 127
2, 4730, Note_on_c, 12, 83, 127
2, 4883, Note_off_c, 8, 56, 127
2, 4885, Note_on_c, 2, 74, 127
2, 4885, Note_on_c, 4, 52, 127
2, 5037, Note_off_c, 12, 83, 127
2, 5038, Note_off_c, 2, 74, 127
2, 5041, Note_on_c, 12, 83, 127
2, 5194, Note_off_c, 12, 83, 127
2, 5194, Note_off_c, 4, 52, 127
2, 5196, Note_on_c, 1, 73, 127
2, 5196, Note_on_c, 10, 57, 127
2, 5352, Note_on_c, 3, 75, 127
2, 5390, Note_off_c, 1, 73, 127
2, 5505, Note_off_c, 3, 75, 127
2, 5505, Note_off_c, 10, 57, 127
2, 5507, Note_on_c, 4, 76, 127
2, 5507, Note_on_c, 8, 56, 127
2, 5660, Note_off_c, 4, 76, 127
2, 5663, Note_on_c, 10, 81, 127
2, 5816, Note_off_c, 8, 56, 127
2, 5818, Note_on_c, 10, 69, 127
2, 5818, Note_on_c, 6, 54, 127
2, 5970, Note_off_c, 10, 81, 127
2, 5971, Note_off_c, 10, 69, 127
2, 5974, Note_on_c, 10, 81, 127
2, 6127, Note_off_c, 6, 54, 127
2, 6129, Note_on_c, 1, 73, 127
2, 6129, Note_on_c, 4, 52, 127
2, 6281, Note_off_c, 10, 81, 127
2, 6282, Note_off_c, 1, 73, 127
2, 6285, Note_on_c, 10, 81, 127
2, 6438, Note_off_c, 4, 52, 127
2, 6440, Note_on_c, 12, 71, 127
2, 6440, Note_on_c, 3, 51, 127
2, 6511, Note_off_c, 10, 81, 127
2, 6596, Note_on_c, 10, 81, 127
2, 6634, Note_off_c, 12, 71, 127
2, 6749, Note_off_c, 10, 81, 127
2, 6749, Note_off_c, 3, 51, 127
2, 6751, Note_on_c, 4, 76, 127
2, 6751, Note_on_c, 4, 52, 127
2, 6904, Note_off_c, 4, 76, 127
2, 6907, Note_on_c, 8, 80, 127
2, 7060, Note_off_c, 8, 80, 127
2, 7060, Note_off_c, 4, 52, 127
2, 7062, Note_on_c, 10, 69, 127
2, 7062, Note_on_c, 1, 49, 127
2, 7215, Note_off_c, 10, 69, 127
2, 7218, Note_on_c, 12, 71, 127
2, 7371, Note_off_c, 12, 71, 127
2, 7371, Note_off_c, 1, 49, 127
2, 7373, Note_on_c, 1, 73, 127
2, 7373, Note_on_c, 10, 45, 127
2, 7526, Note_off_c, 1, 73, 127
2, 7529, Note_on_c, 6, 78, 127
2, 7682, Note_off_c, 6, 78, 127
2, 7682, Note_off_c, 10, 45, 127
2, 7685, Note_on_c, 8, 68, 127
2, 7685, Note_on_c, 12, 47, 127
2, 7840, Note_on_c, 4, 76, 127
2, 7879, Note_off_c, 8, 68, 127
2, 7994, Note_off_c, 12, 47, 127
2, 7996, Note_on_c, 12, 71, 127
2, 7996, Note_on_c, 8, 44, 127
2, 8147, Note_off_c, 4, 76, 127
2, 8149, Note_off_c, 12, 71, 127
2, 8151, Note_on_c, 4, 76, 127
2, 8304, Note_off_c, 4, 76, 127
2, 8305, Note_off_c, 8, 44, 127
2, 8307, Note_on_c, 6, 66, 127
2, 8307, Note_on_c, 10, 45, 127
2, 8460, Note_off_c, 6, 66, 127
2, 8462, Note_on_c, 8, 68, 127
2, 8615, Note_off_c, 8, 68, 127
2, 8616, Note_off_c, 10, 45, 127
2, 8618, Note_on_c, 10, 69, 127
2, 8618, Note_on_c, 12, 47, 127
2, 8771, Note_off_c, 10, 69, 127
2, 8773, Note_on_c, 3, 75, 127
2, 8925, Note_off_c, 12, 47, 127
2, 8926, Note_off_c, 3, 75, 127
2, 8929, Note_on_c, 4, 76, 127
2, 9084, Note_on_c, 4, 40, 127
2, 9237, Note_off_c, 4, 40, 127
2, 9240, Note_on_c, 8, 44, 127
2, 9393, Note_off_c, 8, 44, 127
2, 9395, Note_on_c, 12, 47, 127
2, 9544, Note_off_c, 4, 76, 127
2, 9548, Note_off_c, 12, 47, 127
2, 9551, Note_on_c, 4, 52, 127
2, 9706, Note_on_c, 8, 80, 127
2, 9859, Note_off_c, 8, 80, 127
2, 9860, Note_off_c, 4, 52, 127
2, 9862, Note_on_c, 3, 75, 127
2, 9862, Note_on_c, 0, 48, 127
2, 10015, Note_off_c, 3, 75, 127
2, 10017, Note_on_c, 6, 78, 127
2, 10170, Note_off_c, 6, 78, 127
2, 10171, Note_off_c, 0, 48, 127
2, 10173, Note_on_c, 4, 76, 127
2, 10173, Note_on_c, 1, 49, 127
2, 10328, Note_on_c, 3, 75, 127
2, 10367, Note_off_c, 4, 76, 127
2, 10481, Note_off_c, 3, 75, 127
2, 10482, Note_off_c, 1, 49, 127
2, 10484, Note_on_c, 1, 73, 127
2, 10484, Note_on_c, 8, 56, 127
2, 10637, Note_off_c, 1, 73, 127
2, 10639, Note_on_c, 4, 76, 127
2, 10792, Note_off_c, 4, 76, 127
2, 10793, Note_off_c, 8, 56, 127
2, 10795, Note_on_c, 8, 80, 127
2, 10795, Note_on_c, 4, 52, 127
2, 10950, Note_on_c, 1, 73, 127
2, 11021, Note_off_c, 8, 80, 127
2, 11103, Note_off_c, 1, 73, 127
2, 11104, Note_off_c, 4, 52, 127
2, 11106, Note_on_c, 4, 76, 127
2, 11106, Note_on_c, 1, 49, 127
2, 11261, Note_on_c, 12, 71, 127
2, 11332, Note_off_c, 4, 76, 127
2, 11414, Note_off_c, 12, 71, 127
2, 11415, Note_off_c, 1, 49, 127
2, 11417, Note_on_c, 11, 70, 127
2, 11417, Note_on_c, 6, 54, 127
2, 11573, Note_on_c, 8, 68, 127
2, 11611, Note_off_c, 11, 70, 127
2, 11726, Note_off_c, 8, 68, 127
2, 11726, Note_off_c, 6, 54, 127
2, 11728, Note_on_c, 6, 66, 127
2, 11728, Note_on_c, 6, 42, 127
2, 11881, Note_off_c, 6, 66, 127
2, 11884, Note_on_c, 11, 70, 127
2, 12037, Note_off_c, 11, 70, 127
2, 12037, Note_off_c, 6, 42, 127
2, 12039, Note_on_c, 1, 73, 127
2, 12039, Note_on_c, 11, 46, 127
2, 12195, Note_on_c, 6, 66, 127
2, 12265, Note_off_c, 1, 73, 127
2, 12348, Note_off_c, 6, 66, 127
2, 12348, Note_off_c, 11, 46, 127
2, 12350, Note_on_c, 4, 76, 127
2, 12350, Note_on_c, 1, 49, 127
2, 12506, Note_on_c, 6, 66, 127
2, 12576, Note_off_c, 4, 76, 127
2, 12659, Note_off_c, 6, 66, 127
2, 12659, Note_off_c, 1, 49, 127
2, 12661, Note_on_c, 3, 75, 127
2, 12661, Note_on_c, 12, 47, 127
2, 12817, Note_on_c, 1, 73, 127
2, 12855, Note_off_c, 3, 75, 127
2, 12970, Note_off_c, 1, 73, 127
2, 12970, Note_off_c, 12, 47, 127
2, 12972, Note_on_c, 12, 71, 127
2, 12972, Note_on_c, 6, 54, 127
2, 13125, Note_off_c, 12, 71, 127
2, 13128, Note_on_c, 3, 75, 127
2, 13281, Note_off_c, 3, 75, 127
2, 13281, Note_off_c, 6, 54, 127
2, 13283, Note_on_c, 6, 78, 127
2, 13283, Note_on_c, 3, 51, 127
2, 13439, Note_on_c, 12, 71, 127
2, 13509, Note_off_c, 6, 78, 127
2, 13592, Note_off_c, 12, 71, 127
2, 13592, Note_off_c, 3, 51, 127
2, 13594, Note_on_c, 3, 75, 127
2, 13594, Note_on_c, 12, 47, 127
2, 13750, Note_on_c, 10, 69, 127
2, 13820, Note_off_c, 3, 75, 127
2, 13903, Note_off_c, 10, 69, 127
2, 13903, Note_off_c, 12, 47, 127
2, 13905, Note_on_c, 8, 68, 127
2, 13905, Note_on_c, 4, 52, 127
2, 14061, Note_on_c, 6, 66, 127
2, 14099, Note_off_c, 8, 68, 127
2, 14214, Note_off_c, 6, 66, 127
2, 14214, Note_off_c, 4, 52, 127
2, 14216, Note_on_c, 4, 64, 127
2, 14216, Note_on_c, 4, 40, 127
2, 14369, Note_off_c, 4, 64, 127
2, 14372, Note_on_c, 8, 68, 127
2, 14525, Note_off_c, 8, 68, 127
2, 14525, Note_off_c, 4, 40, 127
2, 14527, Note_on_c, 12, 71, 127
2, 14527, Note_on_c, 8, 44, 127
2, 14683, Note_on_c, 4, 64, 127
2, 14753, Note_off_c, 12, 71, 127
2, 14836, Note_off_c, 4, 64, 127
2, 14836, Note_off_c, 8, 44, 127
2, 14838, Note_on_c, 3, 75, 127
2, 14838, Note_on_c, 12, 47, 127
2, 14994, Note_on_c, 4, 64, 127
2, 15064, Note_off_c, 3, 75, 127
2, 15147, Note_off_c, 4, 64, 127
2, 15147, Note_off_c, 12, 47, 127
2, 15149, Note_on_c, 1, 73, 127
2, 15149, Note_on_c, 4, 52, 127
2, 15305, Note_on_c, 3, 75, 127
2, 15343, Note_off_c, 1, 73, 127
2, 15458, Note_off_c, 3, 75, 127
2, 15458, Note_off_c, 4, 52, 127
2, 15461, Note_on_c, 4, 76, 127
2, 15461, Note_on_c, 1, 49, 127
2, 15614, Note_off_c, 4, 76, 127
2, 15616, Note_on_c, 8, 80, 127
2, 15769, Note_off_c, 8, 80, 127
2, 15770, Note_off_c, 1, 49, 127
2, 15772, Note_on_c, 6, 78, 127
2, 15772, Note_on_c, 3, 51, 127
2, 15925, Note_off_c, 6, 78, 127
2, 15927, Note_on_c, 4, 76, 127
2, 16080, Note_off_c, 4, 76, 127
2, 16081, Note_off_c, 3, 51, 127
2, 16083, Note_on_c, 3, 75, 127
2, 16083, Note_on_c, 4, 52, 127
2, 16236, Note_off_c, 3, 75, 127
2, 16238, Note_on_c, 1, 73, 127
2, 16377, Note_off_c, 1, 73, 127
2, 16392, Note_off_c, 4, 52, 127
2, 16394, Note_on_c, 12, 83, 127
2, 16394, Note_on_c, 6, 54, 127
2, 16547, Note_off_c, 12, 83, 127
2, 16549, Note_on_c, 11, 82, 127
2, 16702, Note_off_c, 11, 82, 127
2, 16703, Note_off_c, 6, 54, 127
2, 16705, Note_on_c, 8, 80, 127
2, 16705, Note_on_c, 8, 56, 127
2, 16858, Note_off_c, 8, 80, 127
2, 16860, Note_on_c, 6, 78, 127
2, 17013, Note_off_c, 6, 78, 127
2, 17014, Note_off_c, 8, 56, 127
2, 17016, Note_on_c, 4, 76, 127
2, 17016, Note_on_c, 11, 58, 127
2, 17169, Note_off_c, 4, 76, 127
2, 17171, Note_on_c, 3, 75, 127
2, 17324, Note_off_c, 3, 75, 127
2, 17325, Note_off_c, 11, 58, 127
2, 17327, Note_on_c, 4, 76, 127
2, 17327, Note_on_c, 6, 54, 127
2, 17480, Note_off_c, 4, 76, 127
2, 17482, Note_on_c, 1, 73, 127
2, 17635, Note_off_c, 1, 73, 127
2, 17636, Note_off_c, 6, 54, 127
2, 17638, Note_on_c, 3, 75, 127
2, 17638, Note_on_c, 12, 59, 127
2, 17714, Note_off_c, 3, 75, 127
2, 17716, Note_on_c, 1, 73, 127
2, 17792, Note_off_c, 1, 73, 127
2, 17793, Note_on_c, 3, 75, 127
2, 17947, Note_off_c, 12, 59, 127
2, 17949, Note_on_c, 4, 52, 127
2, 18102, Note_off_c, 3, 75, 127
2, 18104, Note_on_c, 4, 76, 127
2, 18257, Note_off_c, 4, 76, 127
2, 18258, Note_off_c, 4, 52, 127
2, 18260, Note_on_c, 3, 75, 127
2, 18260, Note_on_c, 6, 54, 127
2, 18336, Note_off_c, 3, 75, 127
2, 18338, Note_on_c, 1, 73, 127
2, 18414, Note_off_c, 1, 73, 127
2, 18415, Note_on_c, 3, 75, 127
2, 18491, Note_off_c, 3, 75, 127
2, 18493, Note_on_c, 1, 73, 127
2, 18569, Note_off_c, 1, 73, 127
2, 18569, Note_off_c, 6, 54, 127
2, 18571, Note_on_c, 3, 75, 127
2, 18571, Note_on_c, 6, 42, 127
2, 18647, Note_off_c, 3, 75, 127
2, 18649, Note_on_c, 1, 73, 127
2, 18725, Note_off_c, 1, 73, 127
2, 18726, Note_on_c, 12, 71, 127
2, 18879, Note_off_c, 12, 71, 127
2, 18880, Note_off_c, 6, 42, 127
2, 18882, Note_on_c, 12, 71, 127
2, 18882, Note_on_c, 12, 47, 127
2, 19035, Note_off_c, 12, 47, 127
2, 19037, Note_on_c, 1, 49, 127
2, 19190, Note_off_c, 1, 49, 127
2, 19191, Note_off_c, 12, 71, 127
2, 19193, Note_on_c, 6, 78, 127
2, 19193, Note_on_c, 3, 51, 127
2, 19346, Note_off_c, 3, 51, 127
2, 19349, Note_on_c, 6, 54, 127
2, 19502, Note_off_c, 6, 54, 127
2, 19502, Note_off_c, 6, 78, 127
2, 19504, Note_on_c, 3, 75, 127
2, 19504, Note_on_c, 12, 59, 127
2, 19657, Note_off_c, 12, 59, 127
2, 19660, Note_on_c, 6, 54, 127
2, 19795, Note_off_c, 3, 75, 127
2, 19813, Note_off_c, 6, 54, 127
2, 19815, Note_on_c, 6, 78, 127
2, 19815, Note_on_c, 12, 59, 127
2, 19968, Note_off_c, 12, 59, 127
2, 19968, Note_off_c, 6, 78, 127
2, 19971, Note_on_c, 11, 70, 127
2, 19971, Note_on_c, 4, 52, 127
2, 20124, Note_off_c, 4, 52, 127
2, 20124, Note_off_c, 11, 70, 127
2, 20126, Note_on_c, 12, 71, 127
2, 20126, Note_on_c, 3, 51, 127
2, 20279, Note_off_c, 3, 51, 127
2, 20282, Note_on_c, 4, 52, 127
2, 20417, Note_off_c, 12, 71, 127
2, 20435, Note_off_c, 4, 52, 127
2, 20437, Note_on_c, 3, 75, 127
2, 20437, Note_on_c, 6, 54, 127
2, 20590, Note_off_c, 6, 54, 127
2, 20590, Note_off_c, 3, 75, 127
2, 20593, Note_on_c, 8, 68, 127
2, 20593, Note_on_c, 12, 59, 127
2, 20746, Note_off_c, 12, 59, 127
2, 20746, Note_off_c, 8, 68, 127
2, 20748, Note_on_c, 10, 69, 127
2, 20748, Note_on_c, 12, 47, 127
2, 20901, Note_off_c, 12, 47, 127
2, 20904, Note_on_c, 12, 59, 127
2, 21039, Note_off_c, 10, 69, 127
2, 21057, Note_off_c, 12, 59, 127
2, 21059, Note_on_c, 12, 71, 127
2, 21059, Note_on_c, 3, 51, 127
2, 21212, Note_off_c, 3, 51, 127
2, 21212, Note_off_c, 12, 71, 127
2, 21215, Note_on_c, 6, 66, 127
2, 21215, Note_on_c, 12, 59, 127
2, 21368, Note_off_c, 12, 59, 127
2, 21368, Note_off_c, 6, 66, 127
2, 21370, Note_on_c, 8, 68, 127
2, 21370, Note_on_c, 4, 52, 127
2, 21523, Note_off_c, 4, 52, 127
2, 21526, Note_on_c, 6, 54, 127
2, 21629, Note_off_c, 8, 68, 127
2, 21679, Note_off_c, 6, 54, 127
2, 21681, Note_on_c, 4, 76, 127
2, 21681, Note_on_c, 8, 56, 127
2, 21834, Note_off_c, 8, 56, 127
2, 21837, Note_on_c, 1, 61, 127
2, 21990, Note_off_c, 1, 61, 127
2, 21992, Note_on_c, 1, 49, 127
2, 22145, Note_off_c, 1, 49, 127
2, 22148, Note_on_c, 1, 61, 127
2, 22301, Note_off_c, 1, 61, 127
2, 22301, Note_off_c, 4, 76, 127
2, 22303, Note_on_c, 1, 73, 127
2, 22303, Note_on_c, 4, 52, 127
2, 22456, Note_off_c, 4, 52, 127
2, 22459, Note_on_c, 1, 61, 127
2, 22612, Note_off_c, 1, 61, 127
2, 22612, Note_off_c, 1, 73, 127
2, 22614, Note_on_c, 11, 70, 127
2, 22614, Note_on_c, 6, 54, 127
2, 22767, Note_off_c, 6, 54, 127
2, 22770, Note_on_c, 8, 56, 127
2, 22873, Note_off_c, 11, 70, 127
2, 22923, Note_off_c, 8, 56, 127
2, 22925, Note_on_c, 6, 78, 127
2, 22925, Note_on_c, 11, 58, 127
2, 23078, Note_off_c, 11, 58, 127
2, 23081, Note_on_c, 3, 63, 127
2, 23234, Note_off_c, 3, 63, 127
2, 23237, Note_on_c, 3, 51, 127
2, 23390, Note_off_c, 3, 51, 127
2, 23392, Note_on_c, 3, 63, 127
2, 23545, Note_off_c, 3, 63, 127
2, 23545, Note_off_c, 6, 78, 127
2, 23548, Note_on_c, 3, 75, 127
2, 23548, Note_on_c, 6, 54, 127
2, 23701, Note_off_c, 6, 54, 127
2, 23703, Note_on_c, 3, 63, 127
2, 23856, Note_off_c, 3, 63, 127
2, 23857, Note_off_c, 3, 75, 127
2, 23859, Note_on_c, 12, 71, 127
2, 23859, Note_on_c, 8, 56, 127
2, 24012, Note_off_c, 8, 56, 127
2, 24014, Note_on_c, 11, 58, 127
2, 24118, Note_off_c, 12, 71, 127
2, 24167, Note_off_c, 11, 58, 127
2, 24170, Note_on_c, 8, 80, 127
2, 24170, Note_on_c, 12, 59, 127
2, 24323, Note_off_c, 12, 59, 127
2, 24325, Note_on_c, 4, 64, 127
2, 24478, Note_off_c, 4, 64, 127
2, 24481, Note_on_c, 4, 52, 127
2, 24634, Note_off_c, 4, 52, 127
2, 24634, Note_off_c, 8, 80, 127
2, 24636, Note_on_c, 11, 82, 127
2, 24636, Note_on_c, 4, 64, 127
2, 24789, Note_off_c, 4, 64, 127
2, 24789, Note_off_c, 11, 82, 127
2, 24792, Note_on_c, 12, 83, 127
2, 24792, Note_on_c, 8, 56, 127
2, 24945, Note_off_c, 8, 56, 127
2, 24945, Note_off_c, 12, 83, 127
2, 24947, Note_on_c, 8, 80, 127
2, 24947, Note_on_c, 4, 64, 127
2, 25100, Note_off_c, 4, 64, 127
2, 25100, Note_off_c, 8, 80, 127
2, 25103, Note_on_c, 4, 76, 127
2, 25103, Note_on_c, 11, 58, 127
2, 25256, Note_off_c, 11, 58, 127
2, 25256, Note_off_c, 4, 76, 127
2, 25258, Note_on_c, 3, 75, 127
2, 25258, Note_on_c, 12, 59, 127
2, 25411, Note_off_c, 12, 59, 127
2, 25411, Note_off_c, 3, 75, 127
2, 25414, Note_on_c, 4, 76, 127
2, 25414, Note_on_c, 1, 61, 127
2, 25567, Note_off_c, 1, 61, 127
2, 25569, Note_on_c, 6, 66, 127
2, 25722, Note_off_c, 6, 66, 127
2, 25725, Note_on_c, 6, 54, 127
2, 25878, Note_off_c, 6, 54, 127
2, 25878, Note_off_c, 4, 76, 127
2, 25880, Note_on_c, 8, 80, 127
2, 25880, Note_on_c, 6, 66, 127
2, 26033, Note_off_c, 6, 66, 127
2, 26033, Note_off_c, 8, 80, 127
2, 26036, Note_on_c, 6, 78, 127
2, 26036, Note_on_c, 11, 58, 127
2, 26189, Note_off_c, 11, 58, 127
2, 26189, Note_off_c, 6, 78, 127
2, 26191, Note_on_c, 4, 76, 127
2, 26191, Note_on_c, 6, 66, 127
2, 26344, Note_off_c, 6, 66, 127
2, 26344, Note_off_c, 4, 76, 127
2, 26347, Note_on_c, 3, 75, 127
2, 26347, Note_on_c, 12, 59, 127
2, 26500, Note_off_c, 3, 75, 127
2, 26502, Note_on_c, 1, 73, 127
2, 26655, Note_off_c, 1, 73, 127
2, 26656, Note_off_c, 12, 59, 127
2, 26658, Note_on_c, 12, 71, 127
2, 26658, Note_on_c, 8, 56, 127
2, 26811, Note_off_c, 12, 71, 127
2, 26813, Note_on_c, 8, 80, 127
2, 26966, Note_off_c, 8, 80, 127
2, 26967, Note_off_c, 8, 56, 127
2, 26969, Note_on_c, 12, 71, 127
2, 26969, Note_on_c, 4, 52, 127
2, 27122, Note_off_c, 12, 71, 127
2, 27125, Note_on_c, 11, 70, 127
2, 27201, Note_off_c, 11, 70, 127
2, 27202, Note_on_c, 12, 71, 127
2, 27278, Note_off_c, 12, 71, 127
2, 27278, Note_off_c, 4, 52, 127
2, 27280, Note_on_c, 11, 70, 127
2, 27280, Note_on_c, 6, 54, 127
2, 27506, Note_off_c, 11, 70, 127
2, 27513, Note_on_c, 12, 71, 127
2, 27589, Note_off_c, 12, 71, 127
2, 27589, Note_off_c, 6, 54, 127
2, 27591, Note_on_c, 12, 71, 127
2, 27591, Note_on_c, 12, 59, 127
2, 27744, Note_off_c, 12, 71, 127
2, 27747, Note_on_c, 1, 73, 127
2, 27900, Note_off_c, 1, 73, 127
2, 27902, Note_on_c, 3, 75, 127
2, 28055, Note_off_c, 3, 75, 127
2, 28058, Note_on_c, 6, 78, 127
2, 28211, Note_off_c, 6, 78, 127
2, 28213, Note_on_c, 12, 83, 127
2, 28366, Note_off_c, 12, 83, 127
2, 28369, Note_on_c, 6, 78, 127
2, 28522, Note_off_c, 6, 78, 127
2, 28524, Note_on_c, 3, 75, 127
2, 28677, Note_off_c, 3, 75, 127
2, 28680, Note_on_c, 6, 78, 127
2, 28833, Note_off_c, 6, 78, 127
2, 28835, Note_on_c, 12, 71, 127
2, 28989, Note_off_c, 12, 59, 127
2, 28991, Note_on_c, 6, 54, 127
2, 29144, Note_off_c, 6, 54, 127
2, 29146, Note_on_c, 3, 51, 127
2, 29299, Note_off_c, 3, 51, 127
2, 29302, Note_on_c, 6, 54, 127
2, 29455, Note_off_c, 6, 54, 127
2, 29457, Note_on_c, 12, 47, 127
2, 29766, Note_off_c, 12, 71, 127
2, 29910, Note_off_c, 12, 47, 127
2, 29924, Note_on_c, 6, 78, 127
2, 30077, Note_off_c, 6, 78, 127
2, 30079, Note_on_c, 3, 75, 127
2, 30232, Note_off_c, 3, 75, 127
2, 30235, Note_on_c, 4, 76, 127
2, 30388, Note_off_c, 4, 76, 127
2, 30390, Note_on_c, 6, 78, 127
2, 30390, Note_on_c, 12, 47, 127
2, 30546, Note_on_c, 12, 83, 127
2, 30584, Note_off_c, 6, 78, 127
2, 30699, Note_off_c, 12, 47, 127
2, 30701, Note_on_c, 12, 71, 127
2, 30701, Note_on_c, 3, 51, 127
2, 30853, Note_off_c, 12, 83, 127
2, 30854, Note_off_c, 12, 71, 127
2, 30857, Note_on_c, 12, 83, 127
2, 31010, Note_off_c, 3, 51, 127
2, 31013, Note_on_c, 1, 73, 127
2, 31013, Note_on_c, 6, 54, 127
2, 31164, Note_off_c, 12, 83, 127
2, 31166, Note_off_c, 1, 73, 127
2, 31168, Note_on_c, 12, 83, 127
2, 31321, Note_off_c, 12, 83, 127
2, 31322, Note_off_c, 6, 54, 127
2, 31324, Note_on_c, 3, 75, 127
2, 31324, Note_on_c, 12, 59, 127
2, 31479, Note_on_c, 4, 76, 127
2, 31518, Note_off_c, 3, 75, 127
2, 31632, Note_off_c, 4, 76, 127
2, 31633, Note_off_c, 12, 59, 127
2, 31635, Note_on_c, 6, 78, 127
2, 31635, Note_on_c, 12, 47, 127
2, 31788, Note_off_c, 6, 78, 127
2, 31790, Note_on_c, 12, 83, 127
2, 31944, Note_off_c, 12, 47, 127
2, 31946, Note_on_c, 12, 71, 127
2, 31946, Note_on_c, 3, 51, 127
2, 32097, Note_off_c, 12, 83, 127
2, 32099, Note_off_c, 12, 71, 127
2, 32101, Note_on_c, 12, 83, 127
2, 32255, Note_off_c, 3, 51, 127
2, 32257, Note_on_c, 1, 73, 127
2, 32257, Note_on_c, 6, 54, 127
2, 32408, Note_off_c, 12, 83, 127
2, 32410, Note_off_c, 1, 73, 127
2, 32412, Note_on_c, 12, 83, 127
2, 32565, Note_off_c, 12, 83, 127
2, 32566, Note_off_c, 6, 54, 127
2, 32568, Note_on_c, 3, 75, 127
2, 32568, Note_on_c, 12, 59, 127
2, 32723, Note_on_c, 6, 78, 127
2, 32762, Note_off_c, 3, 75, 127
2, 32876, Note_off_c, 6, 78, 127
2, 32877, Note_off_c, 12, 59, 127
2, 32879, Note_on_c, 8, 80, 127
2, 32879, Note_on_c, 6, 54, 127
2, 33032, Note_off_c, 8, 80, 127
2, 33034, Note_on_c, 10, 81, 127
2, 33188, Note_off_c, 6, 54, 127
2, 33190, Note_on_c, 12, 71, 127
2, 33190, Note_on_c, 3, 51, 127
2, 33341, Note_off_c, 10, 81, 127
2, 33343, Note_off_c, 12, 71, 127
2, 33345, Note_on_c, 10, 81, 127
2, 33498, Note_off_c, 10, 81, 127
2, 33499, Note_off_c, 3, 51, 127
2, 33501, Note_on_c, 8, 80, 127
2, 33501, Note_on_c, 12, 47, 127
2, 33654, Note_off_c, 8, 80, 127
2, 33656, Note_on_c, 6, 78, 127
2, 33809, Note_off_c, 6, 78, 127
2, 33810, Note_off_c, 12, 47, 127
2, 33812, Note_on_c, 8, 80, 127
2, 33812, Note_on_c, 4, 52, 127
2, 33965, Note_off_c, 8, 80, 127
2, 33967, Note_on_c, 6, 78, 127
2, 34120, Note_off_c, 6, 78, 127
2, 34121, Note_off_c, 4, 52, 127
2, 34123, Note_on_c, 4, 76, 127
2, 34123, Note_on_c, 4, 40, 127
2, 34276, Note_off_c, 4, 76, 127
2, 34278, Note_on_c, 8, 80, 127
2, 34430, Note_off_c, 4, 40, 127
2, 34434, Note_on_c, 12, 71, 127
2, 34585, Note_off_c, 8, 80, 127
2, 34587, Note_off_c, 12, 71, 127
2, 34589, Note_on_c, 8, 80, 127
2, 34745, Note_on_c, 8, 68, 127
2, 34745, Note_on_c, 4, 64, 127
2, 34896, Note_off_c, 8, 80, 127
2, 34898, Note_off_c, 8, 68, 127
2, 34901, Note_on_c, 8, 80, 127
2, 35054, Note_off_c, 8, 80, 127
2, 35056, Note_on_c, 11, 70, 127
2, 35209, Note_off_c, 11, 70, 127
2, 35212, Note_on_c, 0, 72, 127
2, 35365, Note_off_c, 0, 72, 127
2, 35365, Note_off_c, 4, 64, 127
2, 35367, Note_on_c, 1, 73, 127
2, 35367, Note_on_c, 3, 63, 127
2, 35520, Note_off_c, 3, 63, 127
2, 35520, Note_off_c, 1, 73, 127
2, 35523, Note_on_c, 6, 78, 127
2, 35523, Note_on_c, 1, 61, 127
2, 35676, Note_off_c, 1, 61, 127
2, 35678, Note_on_c, 3, 75, 127
2, 35678, Note_on_c, 0, 60, 127
2, 35830, Note_off_c, 6, 78, 127
2, 35831, Note_off_c, 3, 75, 127
2, 35834, Note_on_c, 6, 78, 127
2, 35987, Note_off_c, 0, 60, 127
2, 35989, Note_on_c, 0, 72, 127
2, 35989, Note_on_c, 8, 56, 127
2, 36141, Note_off_c, 6, 78, 127
2, 36142, Note_off_c, 0, 72, 127
2, 36145, Note_on_c, 6, 78, 127
2, 36298, Note_off_c, 6, 78, 127
2, 36298, Note_off_c, 8, 56, 127
2, 36300, Note_on_c, 4, 76, 127
2, 36300, Note_on_c, 1, 61, 127
2, 36453, Note_off_c, 4, 76, 127
2, 36456, Note_on_c, 3, 75, 127
2, 36609, Note_off_c, 3, 75, 127
2, 36609, Note_off_c, 1, 61, 127
2, 36611, Note_on_c, 1, 73, 127
2, 36611, Note_on_c, 1, 49, 127
2, 36764, Note_off_c, 1, 73, 127
2, 36767, Note_on_c, 4, 76, 127
2, 36918, Note_off_c, 1, 49, 127
2, 36922, Note_on_c, 8, 68, 127
2, 37074, Note_off_c, 4, 76, 127
2, 37075, Note_off_c, 8, 68, 127
2, 37078, Note_on_c, 4, 76, 127
2, 37233, Note_on_c, 4, 64, 127
2, 37233, Note_on_c, 1, 61, 127
2, 37385, Note_off_c, 4, 76, 127
2, 37386, Note_off_c, 4, 64, 127
2, 37389, Note_on_c, 4, 76, 127
2, 37542, Note_off_c, 4, 76, 127
2, 37544, Note_on_c, 6, 66, 127
2, 37697, Note_off_c, 6, 66, 127
2, 37700, Note_on_c, 8, 68, 127
2, 37853, Note_off_c, 8, 68, 127
2, 37853, Note_off_c, 1, 61, 127
2, 37855, Note_on_c, 10, 69, 127
2, 37855, Note_on_c, 12, 59, 127
2, 38008, Note_off_c, 12, 59, 127
2, 38008, Note_off_c, 10, 69, 127
2, 38011, Note_on_c, 2, 74, 127
2, 38011, Note_on_c, 10, 57, 127
2, 38164, Note_off_c, 10, 57, 127
2, 38166, Note_on_c, 12, 71, 127
2, 38166, Note_on_c, 8, 56, 127
2, 38318, Note_off_c, 2, 74, 127
2, 38319, Note_off_c, 12, 71, 127
2, 38322, Note_on_c, 2, 74, 127
2, 38475, Note_off_c, 8, 56, 127
2, 38477, Note_on_c, 8, 68, 127
2, 38477, Note_on_c, 4, 52, 127
2, 38629, Note_off_c, 2, 74, 127
2, 38630, Note_off_c, 8, 68, 127
2, 38633, Note_on_c, 2, 74, 127
2, 38786, Note_off_c, 2, 74, 127
2, 38786, Note_off_c, 4, 52, 127
2, 38789, Note_on_c, 1, 73, 127
2, 38789, Note_on_c, 10, 57, 127
2, 38942, Note_off_c, 1, 73, 127
2, 38944, Note_on_c, 12, 71, 127
2, 39097, Note_off_c, 12, 71, 127
2, 39098, Note_off_c, 10, 57, 127
2, 39100, Note_on_c, 10, 69, 127
2, 39100, Note_on_c, 10, 45, 127
2, 39253, Note_off_c, 10, 69, 127
2, 39255, Note_on_c, 1, 73, 127
2, 39407, Note_off_c, 10, 45, 127
2, 39408, Note_off_c, 1, 73, 127
2, 39411, Note_on_c, 6, 78, 127
2, 39566, Note_on_c, 1, 73, 127
2, 39718, Note_off_c, 6, 78, 127
2, 39719, Note_off_c, 1, 73, 127
2, 39722, Note_on_c, 10, 81, 127
2, 39722, Note_on_c, 10, 57, 127
2, 39875, Note_off_c, 10, 57, 127
2, 39877, Note_on_c, 1, 73, 127
2, 39877, Note_on_c, 7, 55, 127
2, 40029, Note_off_c, 10, 81, 127
2, 40030, Note_off_c, 7, 55, 127
2, 40030, Note_off_c, 1, 73, 127
2, 40033, Note_on_c, 2, 74, 127
2, 40033, Note_on_c, 6, 54, 127
2, 40186, Note_off_c, 2, 74, 127
2, 40188, Note_on_c, 4, 76, 127
2, 40341, Note_off_c, 4, 76, 127
2, 40342, Note_off_c, 6, 54, 127
2, 40344, Note_on_c, 6, 78, 127
2, 40344, Note_on_c, 10, 57, 127
2, 40497, Note_off_c, 10, 57, 127
2, 40497, Note_off_c, 6, 78, 127
2, 40499, Note_on_c, 10, 81, 127
2, 40499, Note_on_c, 7, 55, 127
2, 40652, Note_off_c, 7, 55, 127
2, 40652, Note_off_c, 10, 81, 127
2, 40655, Note_on_c, 2, 74, 127
2, 40655, Note_on_c, 6, 54, 127
2, 40810, Note_on_c, 6, 78, 127
2, 40881, Note_off_c, 2, 74, 127
2, 40963, Note_off_c, 6, 78, 127
2, 40964, Note_off_c, 6, 54, 127
2, 40966, Note_on_c, 10, 69, 127
2, 40966, Note_on_c, 6, 42, 127
2, 41121, Note_on_c, 2, 74, 127
2, 41192, Note_off_c, 10, 69, 127
2, 41273, Note_off_c, 6, 42, 127
2, 41274, Note_off_c, 2, 74, 127
2, 41277, Note_on_c, 6, 66, 127
2, 41430, Note_off_c, 6, 66, 127
2, 41432, Note_on_c, 4, 64, 127
2, 41585, Note_off_c, 4, 64, 127
2, 41588, Note_on_c, 2, 62, 127
2, 41588, Note_on_c, 10, 57, 127
2, 41741, Note_off_c, 10, 57, 127
2, 41741, Note_off_c, 2, 62, 127
2, 41743, Note_on_c, 6, 66, 127
2, 41743, Note_on_c, 7, 55, 127
2, 41896, Note_off_c, 7, 55, 127
2, 41896, Note_off_c, 6, 66, 127
2, 41899, Note_on_c, 10, 69, 127
2, 41899, Note_on_c, 6, 54, 127
2, 42054, Note_on_c, 6, 66, 127
2, 42125, Note_off_c, 10, 69, 127
2, 42207, Note_off_c, 6, 66, 127
2, 42208, Note_off_c, 6, 54, 127
2, 42210, Note_on_c, 2, 74, 127
2, 42210, Note_on_c, 10, 57, 127
2, 42363, Note_off_c, 10, 57, 127
2, 42365, Note_on_c, 10, 69, 127
2, 42365, Note_on_c, 7, 55, 127
2, 42436, Note_off_c, 2, 74, 127
2, 42518, Note_off_c, 7, 55, 127
2, 42518, Note_off_c, 10, 69, 127
2, 42521, Note_on_c, 3, 75, 127
2, 42521, Note_on_c, 6, 54, 127
2, 42674, Note_off_c, 3, 75, 127
2, 42677, Note_on_c, 4, 76, 127
2, 42830, Note_off_c, 4, 76, 127
2, 42830, Note_off_c, 6, 54, 127
2, 42832, Note_on_c, 6, 78, 127
2, 42832, Note_on_c, 6, 42, 127
2, 42988, Note_on_c, 10, 81, 127
2, 43058, Note_off_c, 6, 78, 127
2, 43139, Note_off_c, 6, 42, 127
2, 43141, Note_off_c, 10, 81, 127
2, 43143, Note_on_c, 3, 75, 127
2, 43299, Note_on_c, 6, 78, 127
2, 43369, Note_off_c, 3, 75, 127
2, 43452, Note_off_c, 6, 78, 127
2, 43454, Note_on_c, 0, 72, 127
2, 43454, Note_on_c, 6, 54, 127
2, 43607, Note_off_c, 6, 54, 127
2, 43607, Note_off_c, 0, 72, 127
2, 43610, Note_on_c, 3, 75, 127
2, 43610, Note_on_c, 8, 56, 127
2, 43763, Note_off_c, 8, 56, 127
2, 43763, Note_off_c, 3, 75, 127
2, 43765, Note_on_c, 6, 66, 127
2, 43765, Note_on_c, 10, 57, 127
2, 43918, Note_off_c, 6, 66, 127
2, 43921, Note_on_c, 4, 64, 127
2, 44074, Note_off_c, 4, 64, 127
2, 44074, Note_off_c, 10, 57, 127
2, 44076, Note_on_c, 3, 63, 127
2, 44076, Note_on_c, 6, 54, 127
2, 44229, Note_off_c, 3, 63, 127
2, 44232, Note_on_c, 6, 66, 127
2, 44385, Note_off_c, 6, 66, 127
2, 44385, Note_off_c, 6, 54, 127
2, 44387, Note_on_c, 0, 72, 127
2, 44387, Note_on_c, 3, 51, 127
2, 44543, Note_on_c, 6, 66, 127
2, 44613, Note_off_c, 0, 72, 127
2, 44696, Note_off_c, 6, 66, 127
2, 44696, Note_off_c, 3, 51, 127
2, 44698, Note_on_c, 3, 75, 127
2, 44698, Note_on_c, 8, 56, 127
2, 44851, Note_off_c, 8, 56, 127
2, 44854, Note_on_c, 0, 72, 127
2, 44854, Note_on_c, 6, 54, 127
2, 44924, Note_off_c, 3, 75, 127
2, 45007, Note_off_c, 6, 54, 127
2, 45007, Note_off_c, 0, 72, 127
2, 45009, Note_on_c, 8, 80, 127
2, 45009, Note_on_c, 4, 52, 127
2, 45162, Note_off_c, 8, 80, 127
2, 45165, Note_on_c, 6, 78, 127
2, 45318, Note_off_c, 6, 78, 127
2, 45318, Note_off_c, 4, 52, 127
2, 45320, Note_on_c, 4, 76, 127
2, 45320, Note_on_c, 8, 56, 127
2, 45473, Note_off_c, 8, 56, 127
2, 45473, Note_off_c, 4, 76, 127
2, 45476, Note_on_c, 8, 80, 127
2, 45476, Note_on_c, 6, 54, 127
2, 45629, Note_off_c, 6, 54, 127
2, 45629, Note_off_c, 8, 80, 127
2, 45631, Note_on_c, 1, 73, 127
2, 45631, Note_on_c, 4, 52, 127
2, 45787, Note_on_c, 8, 80, 127
2, 45857, Note_off_c, 1, 73, 127
2, 45940, Note_off_c, 8, 80, 127
2, 45940, Note_off_c, 4, 52, 127
2, 45942, Note_on_c, 10, 69, 127
2, 45942, Note_on_c, 6, 54, 127
2, 46095, Note_off_c, 6, 54, 127
2, 46098, Note_on_c, 8, 80, 127
2, 46098, Note_on_c, 4, 52, 127
2, 46168, Note_off_c, 10, 69, 127
2, 46251, Note_off_c, 4, 52, 127
2, 46251, Note_off_c, 8, 80, 127
2, 46253, Note_on_c, 6, 78, 127
2, 46253, Note_on_c, 3, 51, 127
2, 46406, Note_off_c, 6, 78, 127
2, 46409, Note_on_c, 4, 76, 127
2, 46562, Note_off_c, 4, 76, 127
2, 46562, Note_off_c, 3, 51, 127
2, 46565, Note_on_c, 3, 75, 127
2, 46565, Note_on_c, 6, 54, 127
2, 46718, Note_off_c, 6, 54, 127
2, 46718, Note_off_c, 3, 75, 127
2, 46720, Note_on_c, 6, 78, 127
2, 46720, Note_on_c, 4, 52, 127
2, 46873, Note_off_c, 4, 52, 127
2, 46873, Note_off_c, 6, 78, 127
2, 46876, Note_on_c, 0, 72, 127
2, 46876, Note_on_c, 3, 51, 127
2, 47031, Note_on_c, 6, 78, 127
2, 47102, Note_off_c, 0, 72, 127
2, 47184, Note_off_c, 6, 78, 127
2, 47185, Note_off_c, 3, 51, 127
2, 47187, Note_on_c, 8, 68, 127
2, 47187, Note_on_c, 4, 52, 127
2, 47340, Note_off_c, 4, 52, 127
2, 47342, Note_on_c, 6, 78, 127
2, 47342, Note_on_c, 3, 51, 127
2, 47413, Note_off_c, 8, 68, 127
2, 47495, Note_off_c, 3, 51, 127
2, 47495, Note_off_c, 6, 78, 127
2, 47498, Note_on_c, 4, 76, 127
2, 47498, Note_on_c, 1, 49, 127
2, 47651, Note_off_c, 4, 76, 127
2, 47653, Note_on_c, 3, 75, 127
2, 47806, Note_off_c, 3, 75, 127
2, 47807, Note_off_c, 1, 49, 127
2, 47809, Note_on_c, 1, 73, 127
2, 47809, Note_on_c, 6, 54, 127
2, 47962, Note_off_c, 1, 73, 127
2, 47964, Note_on_c, 4, 76, 127
2, 48117, Note_off_c, 4, 76, 127
2, 48118, Note_off_c, 6, 54, 127
2, 48120, Note_on_c, 8, 68, 127
2, 48120, Note_on_c, 8, 56, 127
2, 48275, Note_on_c, 1, 73, 127
2, 48346, Note_off_c, 8, 68, 127
2, 48428, Note_off_c, 1, 73, 127
2, 48429, Note_off_c, 8, 56, 127
2, 48431, Note_on_c, 3, 75, 127
2, 48431, Note_on_c, 8, 44, 127
2, 48584, Note_off_c, 3, 75, 127
2, 48586, Note_on_c, 0, 72, 127
2, 48739, Note_off_c, 0, 72, 127
2, 48740, Note_off_c, 8, 44, 127
2, 48742, Note_on_c, 1, 73, 127
2, 48742, Note_on_c, 1, 49, 127
2, 48895, Note_off_c, 1, 49, 127
2, 48897, Note_on_c, 3, 51, 127
2, 49033, Note_off_c, 1, 73, 127
2, 49050, Note_off_c, 3, 51, 127
2, 49053, Note_on_c, 8, 80, 127
2, 49053, Note_on_c, 4, 52, 127
2, 49206, Note_off_c, 4, 52, 127
2, 49206, Note_off_c, 8, 80, 127
2, 49208, Note_on_c, 4, 76, 127
2, 49208, Note_on_c, 8, 56, 127
2, 49361, Note_off_c, 8, 56, 127
2, 49361, Note_off_c, 4, 76, 127
2, 49364, Note_on_c, 1, 73, 127
2, 49364, Note_on_c, 1, 61, 127
2, 49517, Note_off_c, 1, 61, 127
2, 49519, Note_on_c, 8, 56, 127
2, 49623, Note_off_c, 1, 73, 127
2, 49672, Note_off_c, 8, 56, 127
2, 49675, Note_on_c, 4, 76, 127
2, 49675, Note_on_c, 1, 61, 127
2, 49828, Note_off_c, 1, 61, 127
2, 49828, Note_off_c, 4, 76, 127
2, 49830, Note_on_c, 8, 68, 127
2, 49830, Note_on_c, 4, 52, 127
2, 49983, Note_off_c, 4, 52, 127
2, 49983, Note_off_c, 8, 68, 127
2, 49986, Note_on_c, 10, 69, 127
2, 49986, Note_on_c, 6, 54, 127
2, 50139, Note_off_c, 6, 54, 127
2, 50141, Note_on_c, 8, 56, 127
2, 50245, Note_off_c, 10, 69, 127
2, 50294, Note_off_c, 8, 56, 127
2, 50297, Note_on_c, 1, 73, 127
2, 50297, Note_on_c, 10, 57, 127
2, 50450, Note_off_c, 10, 57, 127
2, 50450, Note_off_c, 1, 73, 127
2, 50453, Note_on_c, 10, 69, 127
2, 50453, Note_on_c, 1, 61, 127
2, 50606, Note_off_c, 1, 61, 127
2, 50606, Note_off_c, 10, 69, 127
2, 50608, Note_on_c, 6, 66, 127
2, 50608, Note_on_c, 10, 57, 127
2, 50761, Note_off_c, 10, 57, 127
2, 50764, Note_on_c, 1, 61, 127
2, 50867, Note_off_c, 6, 66, 127
2, 50917, Note_off_c, 1, 61, 127
2, 50919, Note_on_c, 10, 69, 127
2, 50919, Note_on_c, 6, 54, 127
2, 51072, Note_off_c, 6, 54, 127
2, 51072, Note_off_c, 10, 69, 127
2, 51075, Note_on_c, 1, 61, 127
2, 51075, Note_on_c, 10, 57, 127
2, 51228, Note_off_c, 10, 57, 127
2, 51228, Note_off_c, 1, 61, 127
2, 51230, Note_on_c, 3, 63, 127
2, 51230, Note_on_c, 12, 47, 127
2, 51383, Note_off_c, 12, 47, 127
2, 51386, Note_on_c, 1, 49, 127
2, 51489, Note_off_c, 3, 63, 127
2, 51539, Note_off_c, 1, 49, 127
2, 51541, Note_on_c, 6, 78, 127
2, 51541, Note_on_c, 3, 51, 127
2, 51694, Note_off_c, 3, 51, 127
2, 51694, Note_off_c, 6, 78, 127
2, 51697, Note_on_c, 3, 75, 127
2, 51697, Note_on_c, 6, 54, 127
2, 51850, Note_off_c, 6, 54, 127
2, 51850, Note_off_c, 3, 75, 127
2, 51852, Note_on_c, 12, 71, 127
2, 51852, Note_on_c, 12, 59, 127
2, 52005, Note_off_c, 12, 59, 127
2, 52008, Note_on_c, 6, 54, 127
2, 52111, Note_off_c, 12, 71, 127
2, 52161, Note_off_c, 6, 54, 127
2, 52163, Note_on_c, 3, 75, 127
2, 52163, Note_on_c, 12, 59, 127
2, 52316, Note_off_c, 12, 59, 127
2, 52316, Note_off_c, 3, 75, 127
2, 52319, Note_on_c, 6, 66, 127
2, 52319, Note_on_c, 3, 51, 127
2, 52472, Note_off_c, 3, 51, 127
2, 52472, Note_off_c, 6, 66, 127
2, 52474, Note_on_c, 8, 68, 127
2, 52474, Note_on_c, 4, 52, 127
2, 52627, Note_off_c, 4, 52, 127
2, 52630, Note_on_c, 6, 54, 127
2, 52733, Note_off_c, 8, 68, 127
2, 52783, Note_off_c, 6, 54, 127
2, 52785, Note_on_c, 12, 71, 127
2, 52785, Note_on_c, 8, 56, 127
2, 52938, Note_off_c, 8, 56, 127
2, 52938, Note_off_c, 12, 71, 127
2, 52941, Note_on_c, 8, 68, 127
2, 52941, Note_on_c, 12, 59, 127
2, 53094, Note_off_c, 12, 59, 127
2, 53094, Note_off_c, 8, 68, 127
2, 53096, Note_on_c, 4, 64, 127
2, 53096, Note_on_c, 8, 56, 127
2, 53249, Note_off_c, 8, 56, 127
2, 53252, Note_on_c, 12, 59, 127
2, 53355, Note_off_c, 4, 64, 127
2, 53405, Note_off_c, 12, 59, 127
2, 53407, Note_on_c, 8, 68, 127
2, 53407, Note_on_c, 4, 52, 127
2, 53560, Note_off_c, 4, 52, 127
2, 53560, Note_off_c, 8, 68, 127
2, 53563, Note_on_c, 12, 59, 127
2, 53563, Note_on_c, 8, 56, 127
2, 53716, Note_off_c, 8, 56, 127
2, 53716, Note_off_c, 12, 59, 127
2, 53718, Note_on_c, 1, 61, 127
2, 53718, Note_on_c, 10, 45, 127
2, 53871, Note_off_c, 10, 45, 127
2, 53874, Note_on_c, 12, 47, 127
2, 53977, Note_off_c, 1, 61, 127
2, 54027, Note_off_c, 12, 47, 127
2, 54029, Note_on_c, 10, 69, 127
2, 54029, Note_on_c, 1, 49, 127
2, 54182, Note_off_c, 1, 49, 127
2, 54185, Note_on_c, 6, 54, 127
2, 54338, Note_off_c, 6, 54, 127
2, 54341, Note_on_c, 6, 42, 127
2, 54494, Note_off_c, 6, 42, 127
2, 54496, Note_on_c, 6, 54, 127
2, 54649, Note_off_c, 6, 54, 127
2, 54649, Note_off_c, 10, 69, 127
2, 54652, Note_on_c, 6, 66, 127
2, 54652, Note_on_c, 10, 45, 127
2, 54805, Note_off_c, 10, 45, 127
2, 54807, Note_on_c, 6, 54, 127
2, 54943, Note_off_c, 6, 66, 127
2, 54960, Note_off_c, 6, 54, 127
2, 54963, Note_on_c, 3, 63, 127
2, 54963, Note_on_c, 12, 47, 127
2, 55116, Note_off_c, 12, 47, 127
2, 55118, Note_on_c, 1, 49, 127
2, 55254, Note_off_c, 3, 63, 127
2, 55271, Note_off_c, 1, 49, 127
2, 55274, Note_on_c, 12, 71, 127
2, 55274, Note_on_c, 3, 51, 127
2, 55427, Note_off_c, 3, 51, 127
2, 55429, Note_on_c, 8, 56, 127
2, 55582, Note_off_c, 8, 56, 127
2, 55585, Note_on_c, 8, 44, 127
2, 55738, Note_off_c, 8, 44, 127
2, 55740, Note_on_c, 8, 56, 127
2, 55893, Note_off_c, 8, 56, 127
2, 55894, Note_off_c, 12, 71, 127
2, 55896, Note_on_c, 8, 68, 127
2, 55896, Note_on_c, 12, 47, 127
2, 56049, Note_off_c, 12, 47, 127
2, 56051, Note_on_c, 8, 56, 127
2, 56187, Note_off_c, 8, 68, 127
2, 56204, Note_off_c, 8, 56, 127
2, 56207, Note_on_c, 4, 64, 127
2, 56207, Note_on_c, 1, 49, 127
2, 56360, Note_off_c, 1, 49, 127
2, 56362, Note_on_c, 3, 51, 127
2, 56498, Note_off_c, 4, 64, 127
2, 56515, Note_off_c, 3, 51, 127
2, 56518, Note_on_c, 1, 73, 127
2, 56518, Note_on_c, 4, 52, 127
2, 56671, Note_off_c, 4, 52, 127
2, 56673, Note_on_c, 10, 57, 127
2, 56826, Note_off_c, 10, 57, 127
2, 56829, Note_on_c, 10, 45, 127
2, 56982, Note_off_c, 10, 45, 127
2, 56982, Note_off_c, 1, 73, 127
2, 56984, Note_on_c, 3, 75, 127
2, 56984, Note_on_c, 10, 57, 127
2, 57137, Note_off_c, 10, 57, 127
2, 57137, Note_off_c, 3, 75, 127
2, 57140, Note_on_c, 4, 76, 127
2, 57140, Note_on_c, 1, 49, 127
2, 57293, Note_off_c, 1, 49, 127
2, 57293, Note_off_c, 4, 76, 127
2, 57295, Note_on_c, 1, 73, 127
2, 57295, Note_on_c, 10, 57, 127
2, 57448, Note_off_c, 10, 57, 127
2, 57448, Note_off_c, 1, 73, 127
2, 57451, Note_on_c, 10, 69, 127
2, 57451, Note_on_c, 3, 51, 127
2, 57604, Note_off_c, 3, 51, 127
2, 57604, Note_off_c, 10, 69, 127
2, 57606, Note_on_c, 8, 68, 127
2, 57606, Note_on_c, 4, 52, 127
2, 57759, Note_off_c, 4, 52, 127
2, 57759, Note_off_c, 8, 68, 127
2, 57762, Note_on_c, 10, 69, 127
2, 57762, Note_on_c, 6, 54, 127
2, 57915, Note_off_c, 6, 54, 127
2, 57917, Note_on_c, 12, 59, 127
2, 58070, Note_off_c, 12, 59, 127
2, 58073, Note_on_c, 12, 47, 127
2, 58183, Note_off_c, 10, 69, 127
2, 58226, Note_off_c, 12, 47, 127
2, 58229, Note_on_c, 1, 73, 127
2, 58229, Note_on_c, 12, 59, 127
2, 58382, Note_off_c, 12, 59, 127
2, 58382, Note_off_c, 1, 73, 127
2, 58384, Note_on_c, 12, 71, 127
2, 58384, Note_on_c, 3, 51, 127
2, 58537, Note_off_c, 3, 51, 127
2, 58537, Note_off_c, 12, 71, 127
2, 58540, Note_on_c, 10, 69, 127
2, 58540, Note_on_c, 12, 59, 127
2, 58693, Note_off_c, 12, 59, 127
2, 58693, Note_off_c, 10, 69, 127
2, 58695, Note_on_c, 8, 68, 127
2, 58695, Note_on_c, 4, 52, 127
2, 58848, Note_off_c, 8, 68, 127
2, 58851, Note_on_c, 6, 66, 127
2, 59004, Note_off_c, 6, 66, 127
2, 59004, Note_off_c, 4, 52, 127
2, 59006, Note_on_c, 4, 64, 127
2, 59006, Note_on_c, 1, 49, 127
2, 59159, Note_off_c, 4, 64, 127
2, 59162, Note_on_c, 1, 73, 127
2, 59315, Note_off_c, 1, 73, 127
2, 59315, Note_off_c, 1, 49, 127
2, 59317, Note_on_c, 8, 68, 127
2, 59317, Note_on_c, 10, 45, 127
2, 59393, Note_off_c, 8, 68, 127
2, 59395, Note_on_c, 6, 66, 127
2, 59471, Note_off_c, 6, 66, 127
2, 59473, Note_on_c, 8, 68, 127
2, 59549, Note_off_c, 8, 68, 127
2, 59550, Note_on_c, 6, 66, 127
2, 59626, Note_off_c, 6, 66, 127
2, 59626, Note_off_c, 10, 45, 127
2, 59628, Note_on_c, 8, 68, 127
2, 59628, Note_on_c, 12, 47, 127
2, 59704, Note_off_c, 8, 68, 127
2, 59706, Note_on_c, 6, 66, 127
2, 59782, Note_off_c, 6, 66, 127
2, 59784, Note_on_c, 4, 64, 127
2, 59937, Note_off_c, 4, 64, 127
2, 59937, Note_off_c, 12, 47, 127
2, 59939, Note_on_c, 4, 64, 127
2, 59939, Note_on_c, 4, 40, 127
2, 60095, Note_on_c, 6, 66, 127
2, 60133, Note_off_c, 4, 64, 127
2, 60248, Note_off_c, 6, 66, 127
2, 60248, Note_off_c, 4, 40, 127
2, 60250, Note_on_c, 8, 68, 127
2, 60250, Note_on_c, 12, 59, 127
2, 60403, Note_off_c, 8, 68, 127
2, 60406, Note_on_c, 10, 69, 127
2, 60559, Note_off_c, 10, 69, 127
2, 60559, Note_off_c, 12, 59, 127
2, 60561, Note_on_c, 12, 71, 127
2, 60561, Note_on_c, 8, 56, 127
2, 60717, Note_on_c, 4, 64, 127
2, 60868, Note_off_c, 12, 71, 127
2, 60870, Note_off_c, 4, 64, 127
2, 60870, Note_off_c, 8, 56, 127
2, 60872, Note_on_c, 2, 74, 127
2, 60872, Note_on_c, 4, 52, 127
2, 61028, Note_on_c, 4, 64, 127
2, 61179, Note_off_c, 2, 74, 127
2, 61181, Note_off_c, 4, 64, 127
2, 61181, Note_off_c, 4, 52, 127
2, 61183, Note_on_c, 1, 73, 127
2, 61183, Note_on_c, 10, 57, 127
2, 61339, Note_on_c, 12, 71, 127
2, 61377, Note_off_c, 1, 73, 127
2, 61492, Note_off_c, 12, 71, 127
2, 61492, Note_off_c, 10, 57, 127
2, 61494, Note_on_c, 10, 69, 127
2, 61494, Note_on_c, 10, 45, 127
2, 61647, Note_off_c, 10, 69, 127
2, 61650, Note_on_c, 1, 73, 127
2, 61803, Note_off_c, 1, 73, 127
2, 61803, Note_off_c, 10, 45, 127
2, 61805, Note_on_c, 4, 76, 127
2, 61805, Note_on_c, 1, 49, 127
2, 61961, Note_on_c, 10, 69, 127
2, 62112, Note_off_c, 4, 76, 127
2, 62114, Note_off_c, 10, 69, 127
2, 62114, Note_off_c, 1, 49, 127
2, 62117, Note_on_c, 1, 73, 127
2, 62117, Note_on_c, 4, 52, 127
2, 62272, Note_on_c, 8, 68, 127
2, 62424, Note_off_c, 1, 73, 127
2, 62425, Note_off_c, 8, 68, 127
2, 62426, Note_off_c, 4, 52, 127
2, 62428, Note_on_c, 6, 66, 127
2, 62428, Note_on_c, 11, 46, 127
2, 62583, Note_on_c, 8, 68, 127
2, 62622, Note_off_c, 6, 66, 127
2, 62736, Note_off_c, 8, 68, 127
2, 62737, Note_off_c, 11, 46, 127
2, 62739, Note_on_c, 11, 70, 127
2, 62739, Note_on_c, 1, 61, 127
2, 62892, Note_off_c, 11, 70, 127
2, 62894, Note_on_c, 12, 71, 127
2, 63047, Note_off_c, 12, 71, 127
2, 63048, Note_off_c, 1, 61, 127
2, 63050, Note_on_c, 1, 73, 127
2, 63050, Note_on_c, 11, 58, 127
2, 63205, Note_on_c, 6, 66, 127
2, 63357, Note_off_c, 1, 73, 127
2, 63358, Note_off_c, 6, 66, 127
2, 63359, Note_off_c, 11, 58, 127
2, 63361, Note_on_c, 4, 76, 127
2, 63361, Note_on_c, 6, 54, 127
2, 63516, Note_on_c, 6, 66, 127
2, 63668, Note_off_c, 4, 76, 127
2, 63669, Note_off_c, 6, 66, 127
2, 63670, Note_off_c, 6, 54, 127
2, 63672, Note_on_c, 3, 75, 127
2, 63672, Note_on_c, 12, 59, 127
2, 63827, Note_on_c, 1, 73, 127
2, 63866, Note_off_c, 3, 75, 127
2, 63980, Note_off_c, 1, 73, 127
2, 63981, Note_off_c, 12, 59, 127
2, 63983, Note_on_c, 12, 71, 127
2, 63983, Note_on_c, 12, 47, 127
2, 64136, Note_off_c, 12, 71, 127
2, 64138, Note_on_c, 3, 75, 127
2, 64291, Note_off_c, 3, 75, 127
2, 64292, Note_off_c, 12, 47, 127
2, 64294, Note_on_c, 6, 78, 127
2, 64294, Note_on_c, 3, 51, 127
2, 64449, Note_on_c, 3, 75, 127
2, 64601, Note_off_c, 6, 78, 127
2, 64602, Note_off_c, 3, 75, 127
2, 64603, Note_off_c, 3, 51, 127
2, 64605, Note_on_c, 10, 81, 127
2, 64605, Note_on_c, 6, 54, 127
2, 64760, Note_on_c, 6, 78, 127
2, 64912, Note_off_c, 10, 81, 127
2, 64913, Note_off_c, 6, 78, 127
2, 64914, Note_off_c, 6, 54, 127
2, 64916, Note_on_c, 12, 47, 127
2, 64916, Note_on_c, 3, 75, 127
2, 65075, Note_on_c, 4, 76, 127
2, 65110, Note_off_c, 3, 75, 127
2, 65232, Note_off_c, 4, 76, 127
2, 65233, Note_off_c, 12, 47, 127
2, 65235, Note_on_c, 6, 54, 127
2, 65235, Note_on_c, 6, 78, 127
2, 65392, Note_off_c, 6, 78, 127
2, 65395, Note_on_c, 10, 81, 127
2, 65552, Note_off_c, 10, 81, 127
2, 65552, Note_off_c, 6, 54, 127
2, 65556, Note_on_c, 3, 51, 127
2, 65556, Note_on_c, 8, 80, 127
2, 65713, Note_off_c, 8, 80, 127
2, 65716, Note_on_c, 6, 78, 127
2, 65873, Note_off_c, 6, 78, 127
2, 65873, Note_off_c, 3, 51, 127
2, 65877, Note_on_c, 12, 47, 127
2, 65877, Note_on_c, 4, 76, 127
2, 66034, Note_off_c, 4, 76, 127
2, 66037, Note_on_c, 3, 75, 127
2, 66169, Note_off_c, 3, 75, 127
2, 66194, Note_off_c, 12, 47, 127
2, 66197, Note_on_c, 12, 83, 127
2, 66197, Note_on_c, 10, 45, 127
2, 66357, Note_off_c, 12, 83, 127
2, 66359, Note_on_c, 10, 81, 127
2, 66519, Note_off_c, 10, 81, 127
2, 66522, Note_off_c, 10, 45, 127
2, 66525, Note_on_c, 8, 80, 127
2, 66525, Note_on_c, 10, 57, 127
2, 66685, Note_off_c, 8, 80, 127
2, 66690, Note_on_c, 6, 78, 127
2, 66849, Note_off_c, 10, 57, 127
2, 66850, Note_off_c, 6, 78, 127
2, 66855, Note_on_c, 4, 76, 127
2, 67015, Note_off_c, 4, 76, 127
2, 67020, Note_on_c, 3, 75, 127
2, 67180, Note_off_c, 3, 75, 127
2, 67185, Note_on_c, 1, 73, 127
2, 67185, Note_on_c, 6, 54, 127
2, 67345, Note_off_c, 1, 73, 127
2, 67351, Note_on_c, 12, 71, 127
2, 67510, Note_off_c, 6, 54, 127
2, 67511, Note_off_c, 12, 71, 127
2, 67516, Note_on_c, 8, 56, 127
2, 67516, Note_on_c, 4, 76, 127
2, 67683, Note_on_c, 12, 71, 127
2, 67846, Note_off_c, 12, 71, 127
2, 67851, Note_off_c, 8, 56, 127
2, 67853, Note_on_c, 10, 57, 127
2, 67853, Note_on_c, 1, 73, 127
2, 68016, Note_off_c, 1, 73, 127
2, 68023, Note_on_c, 10, 69, 127
2, 68186, Note_off_c, 10, 69, 127
2, 68186, Note_off_c, 4, 76, 127
2, 68188, Note_off_c, 10, 57, 127
2, 68193, Note_on_c, 12, 59, 127
2, 68193, Note_on_c, 8, 68, 127
2, 68365, Note_on_c, 4, 76, 127
2, 68526, Note_off_c, 8, 68, 127
2, 68528, Note_off_c, 12, 59, 127
2, 68535, Note_on_c, 12, 47, 127
2, 68535, Note_on_c, 6, 66, 127
2, 68698, Note_off_c, 4, 76, 127
2, 68705, Note_on_c, 3, 75, 127
2, 68868, Note_off_c, 3, 75, 127
2, 68868, Note_off_c, 6, 66, 127
2, 68870, Note_off_c, 12, 47, 127
2, 68875, Note_on_c, 4, 76, 127
2, 68875, Note_on_c, 4, 52, 127
2, 69061, Note_on_c, 4, 40, 127
2, 69244, Note_off_c, 4, 40, 127
2, 69248, Note_on_c, 8, 44, 127
2, 69249, Note_off_c, 4, 52, 127
2, 69431, Note_off_c, 8, 44, 127
2, 69434, Note_on_c, 12, 47, 127
2, 69639, Note_off_c, 12, 47, 127
2, 69666, Note_on_c, 4, 52, 127
2, 71375, Note_off_c, 4, 76, 127
2, 71466, Note_off_c, 4, 52, 127
2, 71734, Note_on_c, 4, 76, 127
2, 71840, Note_off_c, 4, 76, 127
2, 71854, Note_on_c, 4, 76, 127
2, 71974, Note_on_c, 4, 64, 127
2, 72092, Note_off_c, 4, 64, 127
2, 72093, Note_on_c, 6, 66, 127
2, 72211, Note_off_c, 6, 66, 127
2, 72213, Note_on_c, 8, 68, 127
2, 72328, Note_off_c, 4, 76, 127
2, 72331, Note_off_c, 8, 68, 127
2, 72333, Note_on_c, 10, 69, 127
2, 72451, Note_off_c, 10, 69, 127
2, 72453, Note_on_c, 12, 71, 127
2, 72571, Note_off_c, 12, 71, 127
2, 72573, Note_on_c, 1, 73, 127
2, 72691, Note_off_c, 1, 73, 127
2, 72693, Note_on_c, 3, 75, 127
2, 72811, Note_off_c, 3, 75, 127
2, 72813, Note_on_c, 4, 76, 127
2, 72931, Note_off_c, 4, 76, 127
2, 72933, Note_on_c, 6, 78, 127
2, 73051, Note_off_c, 6, 78, 127
2, 73052, Note_on_c, 8, 80, 127
2, 73170, Note_off_c, 8, 80, 127
2, 73172, Note_on_c, 4, 76, 127
2, 73290, Note_off_c, 4, 76, 127
2, 73292, Note_on_c, 12, 83, 127
2, 73292, Note_on_c, 3, 63, 127
2, 73530, Note_off_c, 12, 83, 127
2, 73532, Note_on_c, 10, 81, 127
2, 73641, Note_off_c, 3, 63, 127
2, 73650, Note_off_c, 10, 81, 127
2, 73652, Note_on_c, 8, 80, 127
2, 73770, Note_off_c, 8, 80, 127
2, 73772, Note_on_c, 6, 78, 127
2, 73890, Note_off_c, 6, 78, 127
2, 73892, Note_on_c, 4, 76, 127
2, 74010, Note_off_c, 4, 76, 127
2, 74012, Note_on_c, 3, 75, 127
2, 74130, Note_off_c, 3, 75, 127
2, 74131, Note_on_c, 1, 73, 127
2, 74249, Note_off_c, 1, 73, 127
2, 74251, Note_on_c, 12, 71, 127
2, 74371, Note_on_c, 10, 69, 127
2, 74425, Note_off_c, 12, 71, 127
2, 74489, Note_off_c, 10, 69, 127
2, 74491, Note_on_c, 8, 68, 127
2, 74609, Note_off_c, 8, 68, 127
2, 74611, Note_on_c, 6, 66, 127
2, 74729, Note_off_c, 6, 66, 127
2, 74731, Note_on_c, 8, 68, 127
2, 74851, Note_on_c, 12, 83, 127
2, 74969, Note_off_c, 12, 83, 127
2, 74969, Note_off_c, 8, 68, 127
2, 74971, Note_on_c, 8, 80, 127
2, 74971, Note_on_c, 4, 64, 127
2, 75089, Note_off_c, 8, 80, 127
2, 75090, Note_on_c, 4, 76, 127
2, 75208, Note_off_c, 4, 76, 127
2, 75209, Note_off_c, 4, 64, 127
2, 75210, Note_on_c, 1, 73, 127
2, 75210, Note_on_c, 10, 69, 127
2, 75328, Note_off_c, 1, 73, 127
2, 75330, Note_on_c, 10, 81, 127
2, 75448, Note_off_c, 10, 81, 127
2, 75448, Note_off_c, 10, 69, 127
2, 75450, Note_on_c, 6, 78, 127
2, 75450, Note_on_c, 10, 57, 127
2, 75568, Note_off_c, 6, 78, 127
2, 75570, Note_on_c, 3, 75, 127
2, 75688, Note_off_c, 3, 75, 127
2, 75688, Note_off_c, 10, 57, 127
2, 75690, Note_on_c, 12, 71, 127
2, 75690, Note_on_c, 3, 63, 127
2, 75808, Note_off_c, 12, 71, 127
2, 75810, Note_on_c, 10, 81, 127
2, 75928, Note_off_c, 10, 81, 127
2, 75928, Note_off_c, 3, 63, 127
2, 75930, Note_on_c, 8, 80, 127
2, 75930, Note_on_c, 12, 59, 127
2, 76048, Note_off_c, 8, 80, 127
2, 76049, Note_on_c, 6, 78, 127
2, 76167, Note_off_c, 6, 78, 127
2, 76168, Note_off_c, 12, 59, 127
2, 76169, Note_on_c, 8, 80, 127
2, 76169, Note_on_c, 4, 64, 127
2, 76287, Note_off_c, 8, 80, 127
2, 76289, Note_on_c, 4, 76, 127
2, 76407, Note_off_c, 4, 76, 127
2, 76409, Note_on_c, 3, 75, 127
2, 76527, Note_off_c, 3, 75, 127
2, 76529, Note_on_c, 1, 73, 127
2, 76643, Note_off_c, 4, 64, 127
2, 76647, Note_off_c, 1, 73, 127
2, 76649, Note_on_c, 12, 71, 127
2, 76767, Note_off_c, 12, 71, 127
2, 76769, Note_on_c, 10, 69, 127
2, 76887, Note_off_c, 10, 69, 127
2, 76889, Note_on_c, 8, 68, 127
2, 77007, Note_off_c, 8, 68, 127
2, 77009, Note_on_c, 6, 66, 127
2, 77127, Note_off_c, 6, 66, 127
2, 77128, Note_on_c, 4, 64, 127
2, 77246, Note_off_c, 4, 64, 127
2, 77248, Note_on_c, 3, 63, 127
2, 77366, Note_off_c, 3, 63, 127
2, 77368, Note_on_c, 1, 61, 127
2, 77486, Note_off_c, 1, 61, 127
2, 77488, Note_on_c, 12, 59, 127
2, 77606, Note_off_c, 12, 59, 127
2, 77608, Note_on_c, 1, 61, 127
2, 77728, Note_on_c, 8, 80, 127
2, 77846, Note_off_c, 8, 80, 127
2, 77846, Note_off_c, 1, 61, 127
2, 77848, Note_on_c, 4, 76, 127
2, 77848, Note_on_c, 3, 63, 127
2, 77966, Note_off_c, 4, 76, 127
2, 77968, Note_on_c, 1, 73, 127
2, 78086, Note_off_c, 1, 73, 127
2, 78086, Note_off_c, 3, 63, 127
2, 78087, Note_on_c, 11, 70, 127
2, 78087, Note_on_c, 1, 61, 127
2, 78205, Note_off_c, 11, 70, 127
2, 78207, Note_on_c, 4, 76, 127
2, 78325, Note_off_c, 4, 76, 127
2, 78325, Note_off_c, 1, 61, 127
2, 78327, Note_on_c, 1, 73, 127
2, 78327, Note_on_c, 12, 59, 127
2, 78445, Note_off_c, 1, 73, 127
2, 78447, Note_on_c, 11, 70, 127
2, 78565, Note_off_c, 11, 70, 127
2, 78565, Note_off_c, 12, 59, 127
2, 78567, Note_on_c, 6, 66, 127
2, 78567, Note_on_c, 11, 58, 127
2, 78685, Note_off_c, 6, 66, 127
2, 78687, Note_on_c, 4, 76, 127
2, 78805, Note_off_c, 4, 76, 127
2, 78805, Note_off_c, 11, 58, 127
2, 78807, Note_on_c, 3, 75, 127
2, 78807, Note_on_c, 6, 54, 127
2, 78925, Note_off_c, 3, 75, 127
2, 78927, Note_on_c, 1, 73, 127
2, 79045, Note_off_c, 1, 73, 127
2, 79045, Note_off_c, 6, 54, 127
2, 79046, Note_on_c, 3, 75, 127
2, 79046, Note_on_c, 12, 59, 127
2, 79164, Note_off_c, 3, 75, 127
2, 79166, Note_on_c, 6, 78, 127
2, 79284, Note_off_c, 6, 78, 127
2, 79284, Note_off_c, 12, 59, 127
2, 79286, Note_on_c, 3, 75, 127
2, 79286, Note_on_c, 12, 47, 127
2, 79404, Note_off_c, 3, 75, 127
2, 79406, Note_on_c, 12, 71, 127
2, 79524, Note_off_c, 12, 71, 127
2, 79524, Note_off_c, 12, 47, 127
2, 79526, Note_on_c, 10, 69, 127
2, 79526, Note_on_c, 1, 49, 127
2, 79644, Note_off_c, 10, 69, 127
2, 79646, Note_on_c, 1, 73, 127
2, 79764, Note_off_c, 1, 73, 127
2, 79764, Note_off_c, 1, 49, 127
2, 79766, Note_on_c, 10, 69, 127
2, 79766, Note_on_c, 6, 54, 127
2, 79884, Note_off_c, 10, 69, 127
2, 79886, Note_on_c, 6, 66, 127
2, 80004, Note_off_c, 6, 66, 127
2, 80004, Note_off_c, 6, 54, 127
2, 80006, Note_on_c, 3, 63, 127
2, 80006, Note_on_c, 12, 47, 127
2, 80124, Note_off_c, 3, 63, 127
2, 80125, Note_on_c, 1, 73, 127
2, 80243, Note_off_c, 1, 73, 127
2, 80244, Note_off_c, 12, 47, 127
2, 80245, Note_on_c, 12, 71, 127
2, 80245, Note_on_c, 3, 51, 127
2, 80363, Note_off_c, 12, 71, 127
2, 80365, Note_on_c, 10, 69, 127
2, 80483, Note_off_c, 10, 69, 127
2, 80483, Note_off_c, 3, 51, 127
2, 80485, Note_on_c, 8, 68, 127
2, 80485, Note_on_c, 4, 52, 127
2, 80603, Note_off_c, 4, 52, 127
2, 80605, Note_on_c, 12, 59, 127
2, 80721, Note_off_c, 8, 68, 127
2, 80723, Note_off_c, 12, 59, 127
2, 80725, Note_on_c, 1, 61, 127
2, 80843, Note_off_c, 1, 61, 127
2, 80845, Note_on_c, 3, 63, 127
2, 80963, Note_off_c, 3, 63, 127
2, 80965, Note_on_c, 4, 64, 127
2, 81083, Note_off_c, 4, 64, 127
2, 81084, Note_on_c, 6, 66, 127
2, 81202, Note_off_c, 6, 66, 127
2, 81204, Note_on_c, 8, 68, 127
2, 81322, Note_off_c, 8, 68, 127
2, 81324, Note_on_c, 10, 69, 127
2, 81442, Note_off_c, 10, 69, 127
2, 81444, Note_on_c, 12, 71, 127
2, 81562, Note_off_c, 12, 71, 127
2, 81564, Note_on_c, 1, 73, 127
2, 81682, Note_off_c, 1, 73, 127
2, 81684, Note_on_c, 3, 75, 127
2, 81684, Note_on_c, 3, 63, 127
2, 81802, Note_off_c, 3, 75, 127
2, 81804, Note_on_c, 12, 71, 127
2, 81922, Note_off_c, 12, 71, 127
2, 81922, Note_off_c, 3, 63, 127
2, 81924, Note_on_c, 4, 76, 127
2, 81924, Note_on_c, 1, 61, 127
2, 82042, Note_off_c, 1, 61, 127
2, 82043, Note_on_c, 8, 68, 127
2, 82160, Note_off_c, 4, 76, 127
2, 82161, Note_off_c, 8, 68, 127
2, 82163, Note_on_c, 10, 69, 127
2, 82281, Note_off_c, 10, 69, 127
2, 82283, Note_on_c, 12, 71, 127
2, 82401, Note_off_c, 12, 71, 127
2, 82403, Note_on_c, 1, 73, 127
2, 82521, Note_off_c, 1, 73, 127
2, 82523, Note_on_c, 3, 75, 127
2, 82641, Note_off_c, 3, 75, 127
2, 82643, Note_on_c, 4, 76, 127
2, 82761, Note_off_c, 4, 76, 127
2, 82763, Note_on_c, 6, 78, 127
2, 82881, Note_off_c, 6, 78, 127
2, 82883, Note_on_c, 8, 80, 127
2, 83001, Note_off_c, 8, 80, 127
2, 83003, Note_on_c, 11, 82, 127
2, 83121, Note_off_c, 11, 82, 127
2, 83122, Note_on_c, 12, 83, 127
2, 83122, Note_on_c, 1, 61, 127
2, 83240, Note_off_c, 12, 83, 127
2, 83242, Note_on_c, 8, 80, 127
2, 83360, Note_off_c, 8, 80, 127
2, 83360, Note_off_c, 1, 61, 127
2, 83362, Note_on_c, 11, 82, 127
2, 83362, Note_on_c, 6, 66, 127
2, 83480, Note_off_c, 11, 82, 127
2, 83482, Note_on_c, 6, 78, 127
2, 83600, Note_off_c, 6, 78, 127
2, 83602, Note_on_c, 1, 73, 127
2, 83711, Note_off_c, 6, 66, 127
2, 83720, Note_off_c, 1, 73, 127
2, 83722, Note_on_c, 11, 70, 127
2, 83840, Note_off_c, 11, 70, 127
2, 83842, Note_on_c, 6, 66, 127
2, 83962, Note_on_c, 1, 73, 127
2, 84078, Note_off_c, 6, 66, 127
2, 84080, Note_off_c, 1, 73, 127
2, 84081, Note_on_c, 11, 70, 127
2, 84199, Note_off_c, 11, 70, 127
2, 84201, Note_on_c, 6, 66, 127
2, 84319, Note_off_c, 6, 66, 127
2, 84321, Note_on_c, 4, 64, 127
2, 84439, Note_off_c, 4, 64, 127
2, 84441, Note_on_c, 8, 68, 127
2, 84559, Note_off_c, 8, 68, 127
2, 84561, Note_on_c, 6, 66, 127
2, 84679, Note_off_c, 6, 66, 127
2, 84681, Note_on_c, 4, 64, 127
2, 84799, Note_off_c, 4, 64, 127
2, 84801, Note_on_c, 3, 63, 127
2, 84919, Note_off_c, 3, 63, 127
2, 84921, Note_on_c, 6, 66, 127
2, 85039, Note_off_c, 6, 66, 127
2, 85040, Note_on_c, 12, 71, 127
2, 85160, Note_on_c, 3, 75, 127
2, 85280, Note_on_c, 6, 78, 127
2, 85400, Note_on_c, 4, 64, 127
2, 85509, Note_off_c, 3, 75, 127
2, 85514, Note_off_c, 12, 71, 127
2, 85518, Note_off_c, 6, 78, 127
2, 85519, Note_off_c, 4, 64, 127
2, 85522, Note_on_c, 3, 63, 127
2, 85640, Note_off_c, 3, 63, 127
2, 85641, Note_on_c, 1, 61, 127
2, 85759, Note_off_c, 1, 61, 127
2, 85761, Note_on_c, 12, 59, 127
2, 85879, Note_off_c, 12, 59, 127
2, 85881, Note_on_c, 10, 57, 127
2, 85999, Note_off_c, 10, 57, 127
2, 86001, Note_on_c, 8, 56, 127
2, 86119, Note_off_c, 8, 56, 127
2, 86121, Note_on_c, 10, 57, 127
2, 86239, Note_off_c, 10, 57, 127
2, 86241, Note_on_c, 8, 56, 127
2, 86361, Note_on_c, 4, 64, 127
2, 86477, Note_off_c, 8, 56, 127
2, 86479, Note_off_c, 4, 64, 127
2, 86481, Note_on_c, 12, 71, 127
2, 86601, Note_on_c, 3, 75, 127
2, 86720, Note_on_c, 4, 76, 127
2, 86840, Note_on_c, 10, 57, 127
2, 86950, Note_off_c, 3, 75, 127
2, 86955, Note_off_c, 12, 71, 127
2, 86958, Note_off_c, 4, 76, 127
2, 86959, Note_off_c, 10, 57, 127
2, 86962, Note_on_c, 8, 56, 127
2, 87080, Note_off_c, 8, 56, 127
2, 87082, Note_on_c, 6, 54, 127
2, 87200, Note_off_c, 6, 54, 127
2, 87202, Note_on_c, 4, 52, 127
2, 87320, Note_off_c, 4, 52, 127
2, 87321, Note_on_c, 3, 51, 127
2, 87439, Note_off_c, 3, 51, 127
2, 87441, Note_on_c, 1, 49, 127
2, 87559, Note_off_c, 1, 49, 127
2, 87561, Note_on_c, 4, 52, 127
2, 87679, Note_off_c, 4, 52, 127
2, 87681, Note_on_c, 11, 46, 127
2, 87801, Note_on_c, 6, 66, 127
2, 87919, Note_off_c, 6, 66, 127
2, 87919, Note_off_c, 11, 46, 127
2, 87921, Note_on_c, 1, 73, 127
2, 87921, Note_on_c, 6, 42, 127
2, 88039, Note_off_c, 1, 73, 127
2, 88041, Note_on_c, 4, 76, 127
2, 88159, Note_off_c, 4, 76, 127
2, 88159, Note_off_c, 6, 42, 127
2, 88161, Note_on_c, 3, 75, 127
2, 88161, Note_on_c, 12, 47, 127
2, 88279, Note_off_c, 3, 75, 127
2, 88280, Note_on_c, 1, 73, 127
2, 88398, Note_off_c, 1, 73, 127
2, 88399, Note_off_c, 12, 47, 127
2, 88400, Note_on_c, 12, 71, 127
2, 88400, Note_on_c, 3, 51, 127
2, 88518, Note_off_c, 12, 71, 127
2, 88520, Note_on_c, 3, 75, 127
2, 88638, Note_off_c, 3, 75, 127
2, 88638, Note_off_c, 3, 51, 127
2, 88640, Note_on_c, 8, 68, 127
2, 88640, Note_on_c, 4, 52, 127
2, 88758, Note_off_c, 8, 68, 127
2, 88760, Note_on_c, 1, 73, 127
2, 88878, Note_off_c, 1, 73, 127
2, 88878, Note_off_c, 4, 52, 127
2, 88880, Note_on_c, 11, 70, 127
2, 88880, Note_on_c, 6, 54, 127
2, 88998, Note_off_c, 11, 70, 127
2, 89000, Note_on_c, 4, 64, 127
2, 89118, Note_off_c, 4, 64, 127
2, 89118, Note_off_c, 6, 54, 127
2, 89120, Note_on_c, 3, 63, 127
2, 89120, Note_on_c, 12, 47, 127
2, 89238, Note_off_c, 3, 63, 127
2, 89240, Note_on_c, 12, 71, 127
2, 89358, Note_off_c, 12, 71, 127
2, 89358, Note_off_c, 12, 47, 127
2, 89359, Note_on_c, 6, 66, 127
2, 89359, Note_on_c, 1, 49, 127
2, 89477, Note_off_c, 6, 66, 127
2, 89479, Note_on_c, 3, 63, 127
2, 89597, Note_off_c, 3, 63, 127
2, 89597, Note_off_c, 1, 49, 127
2, 89599, Note_on_c, 12, 59, 127
2, 89599, Note_on_c, 3, 51, 127
2, 89717, Note_off_c, 12, 59, 127
2, 89719, Note_on_c, 6, 66, 127
2, 89837, Note_off_c, 6, 66, 127
2, 89837, Note_off_c, 3, 51, 127
2, 89839, Note_on_c, 8, 68, 127
2, 89839, Note_on_c, 4, 52, 127
2, 89957, Note_off_c, 8, 68, 127
2, 89959, Note_on_c, 11, 70, 127
2, 90077, Note_off_c, 11, 70, 127
2, 90077, Note_off_c, 4, 52, 127
2, 90079, Note_on_c, 12, 71, 127
2, 90079, Note_on_c, 3, 51, 127
2, 90199, Note_on_c, 6, 66, 127
2, 90253, Note_off_c, 12, 71, 127
2, 90317, Note_off_c, 6, 66, 127
2, 90317, Note_off_c, 3, 51, 127
2, 90318, Note_on_c, 12, 71, 127
2, 90318, Note_on_c, 1, 49, 127
2, 90438, Note_on_c, 4, 64, 127
2, 90492, Note_off_c, 12, 71, 127
2, 90556, Note_off_c, 4, 64, 127
2, 90556, Note_off_c, 1, 49, 127
2, 90558, Note_on_c, 3, 63, 127
2, 90558, Note_on_c, 12, 47, 127
2, 90676, Note_off_c, 3, 63, 127
2, 90678, Note_on_c, 12, 71, 127
2, 90796, Note_off_c, 12, 71, 127
2, 90796, Note_off_c, 12, 47, 127
2, 90798, Note_on_c, 6, 66, 127
2, 90798, Note_on_c, 1, 49, 127
2, 90916, Note_off_c, 6, 66, 127
2, 90918, Note_on_c, 3, 63, 127
2, 91036, Note_off_c, 3, 63, 127
2, 91036, Note_off_c, 1, 49, 127
2, 91038, Note_on_c, 12, 59, 127
2, 91038, Note_on_c, 3, 51, 127
2, 91156, Note_off_c, 12, 59, 127
2, 91158, Note_on_c, 6, 66, 127
2, 91276, Note_off_c, 6, 66, 127
2, 91276, Note_off_c, 3, 51, 127
2, 91277, Note_on_c, 8, 68, 127
2, 91277, Note_on_c, 4, 52, 127
2, 91395, Note_off_c, 8, 68, 127
2, 91397, Note_on_c, 11, 70, 127
2, 91515, Note_off_c, 11, 70, 127
2, 91515, Note_off_c, 4, 52, 127
2, 91517, Note_on_c, 12, 71, 127
2, 91517, Note_on_c, 3, 51, 127
2, 91637, Note_on_c, 6, 66, 127
2, 91691, Note_off_c, 12, 71, 127
2, 91755, Note_off_c, 6, 66, 127
2, 91755, Note_off_c, 3, 51, 127
2, 91757, Note_on_c, 12, 71, 127
2, 91757, Note_on_c, 1, 49, 127
2, 91877, Note_on_c, 4, 64, 127
2, 91931, Note_off_c, 12, 71, 127
2, 91995, Note_off_c, 4, 64, 127
2, 91995, Note_off_c, 1, 49, 127
2, 91997, Note_on_c, 3, 63, 127
2, 91997, Note_on_c, 12, 47, 127
2, 92115, Note_off_c, 3, 63, 127
2, 92117, Note_on_c, 6, 66, 127
2, 92235, Note_off_c, 6, 66, 127
2, 92235, Note_off_c, 12, 47, 127
2, 92237, Note_on_c, 12, 71, 127
2, 92237, Note_on_c, 12, 59, 127
2, 92355, Note_off_c, 12, 71, 127
2, 92356, Note_on_c, 3, 75, 127
2, 92475, Note_off_c, 12, 59, 127
2, 92476, Note_on_c, 4, 64, 127
2, 92476, Note_on_c, 8, 56, 127
2, 92530, Note_off_c, 3, 75, 127
2, 92594, Note_off_c, 4, 64, 127
2, 92596, Note_on_c, 3, 75, 127
2, 92714, Note_off_c, 3, 75, 127
2, 92714, Note_off_c, 8, 56, 127
2, 92716, Note_on_c, 1, 73, 127
2, 92716, Note_on_c, 4, 52, 127
2, 92834, Note_off_c, 1, 73, 127
2, 92836, Note_on_c, 12, 71, 127
2, 92954, Note_off_c, 4, 52, 127
2, 92956, Note_on_c, 4, 64, 127
2, 92956, Note_on_c, 6, 54, 127
2, 93010, Note_off_c, 12, 71, 127
2, 93074, Note_off_c, 4, 64, 127
2, 93076, Note_on_c, 1, 73, 127
2, 93194, Note_off_c, 1, 73, 127
2, 93194, Note_off_c, 6, 54, 127
2, 93196, Note_on_c, 12, 71, 127
2, 93196, Note_on_c, 6, 42, 127
2, 93314, Note_off_c, 12, 71, 127
2, 93315, Note_on_c, 11, 70, 127
2, 93432, Note_off_c, 6, 42, 127
2, 93433, Note_off_c, 11, 70, 127
2, 93435, Note_on_c, 12, 71, 127
2, 93555, Note_on_c, 12, 47, 127
2, 93673, Note_off_c, 12, 47, 127
2, 93675, Note_on_c, 3, 51, 127
2, 93793, Note_off_c, 3, 51, 127
2, 93795, Note_on_c, 6, 54, 127
2, 93909, Note_off_c, 12, 71, 127
2, 93913, Note_off_c, 6, 54, 127
2, 93915, Note_on_c, 12, 59, 127
2, 94035, Note_on_c, 1, 61, 127
2, 94153, Note_off_c, 1, 61, 127
2, 94155, Note_on_c, 3, 63, 127
2, 94274, Note_on_c, 6, 66, 127
2, 94394, Note_on_c, 12, 71, 127
2, 94623, Note_off_c, 6, 66, 127
2, 94629, Note_off_c, 3, 63, 127
2, 94632, Note_off_c, 12, 71, 127
2, 94634, Note_off_c, 12, 59, 127
2, 94756, Note_on_c, 6, 78, 127
2, 94874, Note_off_c, 6, 78, 127
2, 94875, Note_on_c, 6, 78, 127
2, 94995, Note_on_c, 4, 76, 127
2, 95113, Note_off_c, 4, 76, 127
2, 95115, Note_on_c, 3, 75, 127
2, 95233, Note_off_c, 3, 75, 127
2, 95235, Note_on_c, 1, 73, 127
2, 95353, Note_off_c, 1, 73, 127
2, 95355, Note_on_c, 3, 75, 127
2, 95475, Note_on_c, 12, 71, 127
2, 95591, Note_off_c, 3, 75, 127
2, 95592, Note_off_c, 6, 78, 127
2, 95593, Note_off_c, 12, 71, 127
2, 95595, Note_on_c, 10, 69, 127
2, 95713, Note_off_c, 10, 69, 127
2, 95715, Note_on_c, 8, 68, 127
2, 95833, Note_off_c, 8, 68, 127
2, 95835, Note_on_c, 6, 66, 127
2, 95953, Note_off_c, 6, 66, 127
2, 95954, Note_on_c, 4, 64, 127
2, 96072, Note_off_c, 4, 64, 127
2, 96074, Note_on_c, 3, 63, 127
2, 96192, Note_off_c, 3, 63, 127
2, 96194, Note_on_c, 6, 66, 127
2, 96312, Note_off_c, 6, 66, 127
2, 96314, Note_on_c, 0, 60, 127
2, 96434, Note_on_c, 3, 63, 127
2, 96552, Note_off_c, 3, 63, 127
2, 96554, Note_on_c, 6, 66, 127
2, 96672, Note_off_c, 6, 66, 127
2, 96674, Note_on_c, 10, 69, 127
2, 96792, Note_off_c, 10, 69, 127
2, 96794, Note_on_c, 8, 68, 127
2, 96913, Note_on_c, 0, 72, 127
2, 97030, Note_off_c, 8, 68, 127
2, 97031, Note_off_c, 0, 72, 127
2, 97031, Note_off_c, 0, 60, 127
2, 97033, Note_on_c, 3, 75, 127
2, 97151, Note_off_c, 3, 75, 127
2, 97153, Note_on_c, 6, 78, 127
2, 97271, Note_off_c, 6, 78, 127
2, 97273, Note_on_c, 4, 76, 127
2, 97391, Note_off_c, 4, 76, 127
2, 97393, Note_on_c, 3, 75, 127
2, 97511, Note_off_c, 3, 75, 127
2, 97513, Note_on_c, 1, 73, 127
2, 97631, Note_off_c, 1, 73, 127
2, 97633, Note_on_c, 3, 75, 127
2, 97751, Note_off_c, 3, 75, 127
2, 97753, Note_on_c, 4, 76, 127
2, 97753, Note_on_c, 1, 61, 127
2, 97872, Note_on_c, 8, 68, 127
2, 97990, Note_off_c, 8, 68, 127
2, 97991, Note_off_c, 1, 61, 127
2, 97992, Note_on_c, 10, 69, 127
2, 97992, Note_on_c, 1, 49, 127
2, 98102, Note_off_c, 4, 76, 127
2, 98110, Note_off_c, 10, 69, 127
2, 98112, Note_on_c, 4, 76, 127
2, 98230, Note_off_c, 4, 76, 127
2, 98230, Note_off_c, 1, 49, 127
2, 98232, Note_on_c, 3, 75, 127
2, 98232, Note_on_c, 12, 47, 127
2, 98352, Note_on_c, 10, 69, 127
2, 98470, Note_off_c, 10, 69, 127
2, 98470, Note_off_c, 12, 47, 127
2, 98472, Note_on_c, 8, 68, 127
2, 98472, Note_on_c, 12, 59, 127
2, 98581, Note_off_c, 3, 75, 127
2, 98590, Note_off_c, 8, 68, 127
2, 98592, Note_on_c, 3, 75, 127
2, 98710, Note_off_c, 3, 75, 127
2, 98710, Note_off_c, 12, 59, 127
2, 98712, Note_on_c, 1, 73, 127
2, 98712, Note_on_c, 10, 57, 127
2, 98832, Note_on_c, 8, 68, 127
2, 98950, Note_off_c, 8, 68, 127
2, 98950, Note_off_c, 10, 57, 127
2, 98951, Note_on_c, 6, 66, 127
2, 98951, Note_on_c, 10, 45, 127
2, 99061, Note_off_c, 1, 73, 127
2, 99069, Note_off_c, 6, 66, 127
2, 99071, Note_on_c, 1, 73, 127
2, 99189, Note_off_c, 1, 73, 127
2, 99189, Note_off_c, 10, 45, 127
2, 99191, Note_on_c, 0, 72, 127
2, 99191, Note_on_c, 8, 44, 127
2, 99311, Note_on_c, 8, 68, 127
2, 99427, Note_off_c, 8, 44, 127
2, 99429, Note_off_c, 8, 68, 127
2, 99431, Note_on_c, 6, 66, 127
2, 99549, Note_off_c, 6, 66, 127
2, 99551, Note_on_c, 4, 64, 127
2, 99665, Note_off_c, 0, 72, 127
2, 99669, Note_off_c, 4, 64, 127
2, 99671, Note_on_c, 3, 63, 127
2, 99791, Note_on_c, 1, 61, 127
2, 99821, Note_off_c, 3, 63, 127
2, 99910, Note_off_c, 1, 61, 127
2, 99912, Note_on_c, 0, 60, 127
2, 100030, Note_off_c, 0, 60, 127
2, 100032, Note_on_c, 11, 58, 127
2, 100150, Note_off_c, 11, 58, 127
2, 100152, Note_on_c, 8, 56, 127
2, 100270, Note_off_c, 8, 56, 127
2, 100272, Note_on_c, 6, 54, 127
2, 100390, Note_off_c, 6, 54, 127
2, 100392, Note_on_c, 5, 53, 127
2, 100510, Note_off_c, 5, 53, 127
2, 100511, Note_on_c, 6, 54, 127
2, 100629, Note_off_c, 6, 54, 127
2, 100631, Note_on_c, 5, 53, 127
2, 100751, Note_on_c, 2, 74, 127
2, 100869, Note_off_c, 2, 74, 127
2, 100869, Note_off_c, 5, 53, 127
2, 100871, Note_on_c, 12, 71, 127
2, 100871, Note_on_c, 8, 56, 127
2, 100989, Note_off_c, 12, 71, 127
2, 100991, Note_on_c, 8, 68, 127
2, 101109, Note_off_c, 8, 68, 127
2, 101109, Note_off_c, 8, 56, 127
2, 101111, Note_on_c, 5, 65, 127
2, 101111, Note_on_c, 1, 61, 127
2, 101229, Note_off_c, 5, 65, 127
2, 101231, Note_on_c, 2, 74, 127
2, 101349, Note_off_c, 2, 74, 127
2, 101349, Note_off_c, 1, 61, 127
2, 101351, Note_on_c, 12, 71, 127
2, 101351, Note_on_c, 12, 59, 127
2, 101469, Note_off_c, 12, 71, 127
2, 101471, Note_on_c, 5, 65, 127
2, 101589, Note_off_c, 5, 65, 127
2, 101589, Note_off_c, 12, 59, 127
2, 101590, Note_on_c, 1, 61, 127
2, 101710, Note_on_c, 12, 71, 127
2, 101828, Note_off_c, 12, 71, 127
2, 101828, Note_off_c, 1, 61, 127
2, 101830, Note_on_c, 10, 69, 127
2, 101830, Note_on_c, 1, 49, 127
2, 101948, Note_off_c, 10, 69, 127
2, 101950, Note_on_c, 8, 68, 127
2, 102068, Note_off_c, 8, 68, 127
2, 102068, Note_off_c, 1, 49, 127
2, 102070, Note_on_c, 10, 69, 127
2, 102070, Note_on_c, 6, 54, 127
2, 102188, Note_off_c, 10, 69, 127
2, 102190, Note_on_c, 6, 66, 127
2, 102308, Note_off_c, 6, 66, 127
2, 102308, Note_off_c, 6, 54, 127
2, 102310, Note_on_c, 5, 65, 127
2, 102310, Note_on_c, 10, 57, 127
2, 102428, Note_off_c, 5, 65, 127
2, 102430, Note_on_c, 6, 66, 127
2, 102548, Note_off_c, 6, 66, 127
2, 102548, Note_off_c, 10, 57, 127
2, 102549, Note_on_c, 0, 72, 127
2, 102549, Note_on_c, 3, 51, 127
2, 102669, Note_on_c, 6, 66, 127
2, 102723, Note_off_c, 0, 72, 127
2, 102787, Note_off_c, 6, 66, 127
2, 102787, Note_off_c, 3, 51, 127
2, 102789, Note_on_c, 1, 73, 127
2, 102789, Note_on_c, 6, 54, 127
2, 102909, Note_on_c, 6, 66, 127
2, 102963, Note_off_c, 1, 73, 127
2, 103027, Note_off_c, 6, 66, 127
2, 103027, Note_off_c, 6, 54, 127
2, 103029, Note_on_c, 3, 75, 127
2, 103029, Note_on_c, 0, 48, 127
2, 103149, Note_on_c, 6, 66, 127
2, 103203, Note_off_c, 3, 75, 127
2, 103267, Note_off_c, 6, 66, 127
2, 103267, Note_off_c, 0, 48, 127
2, 103269, Note_on_c, 8, 68, 127
2, 103269, Note_on_c, 0, 60, 127
2, 103387, Note_off_c, 8, 68, 127
2, 103389, Note_on_c, 3, 63, 127
2, 103507, Note_off_c, 3, 63, 127
2, 103507, Note_off_c, 0, 60, 127
2, 103508, Note_on_c, 4, 64, 127
2, 103508, Note_on_c, 1, 61, 127
2, 103626, Note_off_c, 4, 64, 127
2, 103628, Note_on_c, 1, 73, 127
2, 103746, Note_off_c, 1, 73, 127
2, 103746, Note_off_c, 1, 61, 127
2, 103748, Note_on_c, 10, 69, 127
2, 103748, Note_on_c, 6, 54, 127
2, 103866, Note_off_c, 10, 69, 127
2, 103868, Note_on_c, 6, 66, 127
2, 103986, Note_off_c, 6, 66, 127
2, 103986, Note_off_c, 6, 54, 127
2, 103988, Note_on_c, 3, 63, 127
2, 103988, Note_on_c, 10, 57, 127
2, 104106, Note_off_c, 3, 63, 127
2, 104108, Note_on_c, 10, 69, 127
2, 104226, Note_off_c, 10, 69, 127
2, 104226, Note_off_c, 10, 57, 127
2, 104228, Note_on_c, 6, 66, 127
2, 104228, Note_on_c, 3, 51, 127
2, 104346, Note_off_c, 6, 66, 127
2, 104348, Note_on_c, 3, 63, 127
2, 104466, Note_off_c, 3, 63, 127
2, 104466, Note_off_c, 3, 51, 127
2, 104468, Note_on_c, 0, 60, 127
2, 104468, Note_on_c, 8, 56, 127
2, 104586, Note_off_c, 0, 60, 127
2, 104587, Note_on_c, 10, 69, 127
2, 104705, Note_off_c, 10, 69, 127
2, 104706, Note_off_c, 8, 56, 127
2, 104707, Note_on_c, 8, 68, 127
2, 104707, Note_on_c, 8, 44, 127
2, 104825, Note_off_c, 8, 68, 127
2, 104827, Note_on_c, 6, 66, 127
2, 104945, Note_off_c, 6, 66, 127
2, 104945, Note_off_c, 8, 44, 127
2, 104947, Note_on_c, 4, 64, 127
2, 104947, Note_on_c, 1, 49, 127
2, 105065, Note_off_c, 4, 64, 127
2, 105067, Note_on_c, 3, 63, 127
2, 105185, Note_off_c, 3, 63, 127
2, 105185, Note_off_c, 1, 49, 127
2, 105187, Note_on_c, 1, 61, 127
2, 105187, Note_on_c, 1, 37, 127
2, 105305, Note_off_c, 1, 61, 127
2, 105307, Note_on_c, 0, 60, 127
2, 105423, Note_off_c, 1, 37, 127
2, 105425, Note_off_c, 0, 60, 127
2, 105427, Note_on_c, 1, 61, 127
2, 105545, Note_off_c, 1, 61, 127
2, 105546, Note_on_c, 3, 63, 127
2, 105664, Note_off_c, 3, 63, 127
2, 105666, Note_on_c, 4, 64, 127
2, 105784, Note_off_c, 4, 64, 127
2, 105786, Note_on_c, 6, 66, 127
2, 105904, Note_off_c, 6, 66, 127
2, 105906, Note_on_c, 8, 68, 127
2, 106024, Note_off_c, 8, 68, 127
2, 106026, Note_on_c, 10, 69, 127
2, 106144, Note_off_c, 10, 69, 127
2, 106146, Note_on_c, 12, 71, 127
2, 106264, Note_off_c, 12, 71, 127
2, 106266, Note_on_c, 10, 69, 127
2, 106384, Note_off_c, 10, 69, 127
2, 106386, Note_on_c, 12, 71, 127
2, 106386, Note_on_c, 8, 56, 127
2, 106504, Note_off_c, 8, 56, 127
2, 106505, Note_on_c, 12, 59, 127
2, 106623, Note_off_c, 12, 59, 127
2, 106625, Note_on_c, 1, 61, 127
2, 106735, Note_off_c, 12, 71, 127
2, 106743, Note_off_c, 1, 61, 127
2, 106745, Note_on_c, 3, 63, 127
2, 106863, Note_off_c, 3, 63, 127
2, 106865, Note_on_c, 4, 64, 127
2, 106983, Note_off_c, 4, 64, 127
2, 106985, Note_on_c, 6, 66, 127
2, 107103, Note_off_c, 6, 66, 127
2, 107105, Note_on_c, 8, 68, 127
2, 107223, Note_off_c, 8, 68, 127
2, 107225, Note_on_c, 10, 69, 127
2, 107343, Note_off_c, 10, 69, 127
2, 107345, Note_on_c, 12, 71, 127
2, 107463, Note_off_c, 12, 71, 127
2, 107465, Note_on_c, 1, 73, 127
2, 107583, Note_off_c, 1, 73, 127
2, 107584, Note_on_c, 2, 74, 127
2, 107702, Note_off_c, 2, 74, 127
2, 107704, Note_on_c, 12, 71, 127
2, 107822, Note_off_c, 12, 71, 127
2, 107824, Note_on_c, 1, 73, 127
2, 107944, Note_on_c, 10, 69, 127
2, 108062, Note_off_c, 10, 69, 127
2, 108064, Note_on_c, 4, 64, 127
2, 108182, Note_off_c, 4, 64, 127
2, 108184, Note_on_c, 1, 61, 127
2, 108298, Note_off_c, 1, 73, 127
2, 108302, Note_off_c, 1, 61, 127
2, 108304, Note_on_c, 10, 57, 127
2, 108422, Note_off_c, 10, 57, 127
2, 108424, Note_on_c, 4, 64, 127
2, 108542, Note_off_c, 4, 64, 127
2, 108543, Note_on_c, 10, 69, 127
2, 108543, Note_on_c, 1, 61, 127
2, 108661, Note_off_c, 1, 61, 127
2, 108663, Note_on_c, 10, 57, 127
2, 108781, Note_off_c, 10, 57, 127
2, 108781, Note_off_c, 10, 69, 127
2, 108783, Note_on_c, 1, 73, 127
2, 108783, Note_on_c, 8, 56, 127
2, 108901, Note_off_c, 8, 56, 127
2, 108903, Note_on_c, 12, 59, 127
2, 109021, Note_off_c, 12, 59, 127
2, 109021, Note_off_c, 1, 73, 127
2, 109023, Note_on_c, 4, 76, 127
2, 109023, Note_on_c, 10, 57, 127
2, 109141, Note_off_c, 10, 57, 127
2, 109143, Note_on_c, 8, 56, 127
2, 109261, Note_off_c, 8, 56, 127
2, 109261, Note_off_c, 4, 76, 127
2, 109263, Note_on_c, 8, 80, 127
2, 109263, Note_on_c, 6, 54, 127
2, 109321, Note_off_c, 8, 80, 127
2, 109323, Note_on_c, 10, 81, 127
2, 109381, Note_off_c, 10, 81, 127
2, 109381, Note_off_c, 6, 54, 127
2, 109383, Note_on_c, 12, 83, 127
2, 109383, Note_on_c, 6, 66, 127
2, 109441, Note_off_c, 12, 83, 127
2, 109443, Note_on_c, 10, 81, 127
2, 109501, Note_off_c, 10, 81, 127
2, 109501, Note_off_c, 6, 66, 127
2, 109502, Note_on_c, 12, 83, 127
2, 109502, Note_on_c, 1, 61, 127
2, 109560, Note_off_c, 12, 83, 127
2, 109562, Note_on_c, 10, 81, 127
2, 109620, Note_off_c, 10, 81, 127
2, 109620, Note_off_c, 1, 61, 127
2, 109622, Note_on_c, 12, 83, 127
2, 109622, Note_on_c, 10, 57, 127
2, 109680, Note_off_c, 12, 83, 127
2, 109682, Note_on_c, 10, 81, 127
2, 109740, Note_off_c, 10, 81, 127
2, 109740, Note_off_c, 10, 57, 127
2, 109742, Note_on_c, 12, 83, 127
2, 109742, Note_on_c, 6, 54, 127
2, 109800, Note_off_c, 12, 83, 127
2, 109802, Note_on_c, 10, 81, 127
2, 109860, Note_off_c, 10, 81, 127
2, 109860, Note_off_c, 6, 54, 127
2, 109862, Note_on_c, 12, 83, 127
2, 109862, Note_on_c, 1, 61, 127
2, 109920, Note_off_c, 12, 83, 127
2, 109922, Note_on_c, 10, 81, 127
2, 109980, Note_off_c, 10, 81, 127
2, 109980, Note_off_c, 1, 61, 127
2, 109982, Note_on_c, 12, 83, 127
2, 109982, Note_on_c, 10, 57, 127
2, 110040, Note_off_c, 12, 83, 127
2, 110042, Note_on_c, 10, 81, 127
2, 110100, Note_off_c, 10, 81, 127
2, 110100, Note_off_c, 10, 57, 127
2, 110102, Note_on_c, 12, 83, 127
2, 110102, Note_on_c, 6, 54, 127
2, 110160, Note_off_c, 12, 83, 127
2, 110162, Note_on_c, 10, 81, 127
2, 110220, Note_off_c, 10, 81, 127
2, 110220, Note_off_c, 6, 54, 127
2, 110222, Note_on_c, 12, 83, 127
2, 110222, Note_on_c, 4, 52, 127
2, 110280, Note_off_c, 12, 83, 127
2, 110282, Note_on_c, 10, 81, 127
2, 110340, Note_off_c, 10, 81, 127
2, 110340, Note_off_c, 4, 52, 127
2, 110342, Note_on_c, 12, 83, 127
2, 110342, Note_on_c, 8, 56, 127
2, 110400, Note_off_c, 12, 83, 127
2, 110402, Note_on_c, 10, 81, 127
2, 110460, Note_off_c, 10, 81, 127
2, 110460, Note_off_c, 8, 56, 127
2, 110462, Note_on_c, 12, 83, 127
2, 110462, Note_on_c, 6, 54, 127
2, 110520, Note_off_c, 12, 83, 127
2, 110521, Note_on_c, 10, 81, 127
2, 110579, Note_off_c, 10, 81, 127
2, 110580, Note_off_c, 6, 54, 127
2, 110581, Note_on_c, 12, 83, 127
2, 110581, Note_on_c, 4, 52, 127
2, 110639, Note_off_c, 12, 83, 127
2, 110641, Note_on_c, 10, 81, 127
2, 110699, Note_off_c, 4, 52, 127
2, 110701, Note_on_c, 3, 51, 127
2, 110819, Note_off_c, 10, 81, 127
2, 110821, Note_on_c, 12, 71, 127
2, 110939, Note_off_c, 12, 71, 127
2, 110939, Note_off_c, 3, 51, 127
2, 110941, Note_on_c, 6, 78, 127
2, 110941, Note_on_c, 12, 47, 127
2, 111059, Note_off_c, 6, 78, 127
2, 111061, Note_on_c, 10, 81, 127
2, 111179, Note_off_c, 10, 81, 127
2, 111179, Note_off_c, 12, 47, 127
2, 111181, Note_on_c, 8, 80, 127
2, 111181, Note_on_c, 4, 52, 127
2, 111299, Note_off_c, 8, 80, 127
2, 111301, Note_on_c, 6, 78, 127
2, 111419, Note_off_c, 6, 78, 127
2, 111419, Note_off_c, 4, 52, 127
2, 111421, Note_on_c, 4, 76, 127
2, 111421, Note_on_c, 8, 56, 127
2, 111539, Note_off_c, 4, 76, 127
2, 111540, Note_on_c, 8, 80, 127
2, 111658, Note_off_c, 8, 80, 127
2, 111659, Note_off_c, 8, 56, 127
2, 111660, Note_on_c, 1, 73, 127
2, 111660, Note_on_c, 10, 57, 127
2, 111778, Note_off_c, 1, 73, 127
2, 111780, Note_on_c, 6, 78, 127
2, 111898, Note_off_c, 6, 78, 127
2, 111898, Note_off_c, 10, 57, 127
2, 111900, Note_on_c, 3, 75, 127
2, 111900, Note_on_c, 12, 59, 127
2, 112018, Note_off_c, 3, 75, 127
2, 112020, Note_on_c, 10, 69, 127
2, 112138, Note_off_c, 12, 59, 127
2, 112141, Note_off_c, 10, 69, 127
2, 112143, Note_on_c, 1, 61, 127
2, 112143, Note_on_c, 8, 68, 127
2, 112264, Note_off_c, 8, 68, 127
2, 112268, Note_on_c, 4, 76, 127
2, 112389, Note_off_c, 4, 76, 127
2, 112389, Note_off_c, 1, 61, 127
2, 112393, Note_on_c, 12, 59, 127
2, 112393, Note_on_c, 12, 71, 127
2, 112514, Note_off_c, 12, 71, 127
2, 112514, Note_off_c, 12, 59, 127
2, 112517, Note_on_c, 10, 57, 127
2, 112517, Note_on_c, 8, 68, 127
2, 112638, Note_off_c, 8, 68, 127
2, 112638, Note_off_c, 10, 57, 127
2, 112642, Note_on_c, 8, 56, 127
2, 112642, Note_on_c, 4, 64, 127
2, 112763, Note_off_c, 4, 64, 127
2, 112767, Note_on_c, 12, 71, 127
2, 112888, Note_off_c, 12, 71, 127
2, 112888, Note_off_c, 8, 56, 127
2, 112892, Note_on_c, 10, 57, 127
2, 112892, Note_on_c, 1, 73, 127
2, 113013, Note_off_c, 1, 73, 127
2, 113016, Note_on_c, 3, 75, 127
2, 113137, Note_off_c, 3, 75, 127
2, 113138, Note_off_c, 10, 57, 127
2, 113139, Note_on_c, 8, 56, 127
2, 113139, Note_on_c, 4, 76, 127
2, 113262, Note_on_c, 12, 71, 127
2, 113318, Note_off_c, 4, 76, 127
2, 113383, Note_off_c, 12, 71, 127
2, 113383, Note_off_c, 8, 56, 127
2, 113387, Note_on_c, 6, 54, 127
2, 113387, Note_on_c, 4, 76, 127
2, 113510, Note_on_c, 10, 69, 127
2, 113566, Note_off_c, 4, 76, 127
2, 113631, Note_off_c, 10, 69, 127
2, 113631, Note_off_c, 6, 54, 127
2, 113635, Note_on_c, 4, 52, 127
2, 113635, Note_on_c, 8, 68, 127
2, 113756, Note_off_c, 8, 68, 127
2, 113760, Note_on_c, 4, 76, 127
2, 113881, Note_off_c, 4, 76, 127
2, 113881, Note_off_c, 4, 52, 127
2, 113885, Note_on_c, 6, 54, 127
2, 113885, Note_on_c, 12, 71, 127
2, 114006, Note_off_c, 12, 71, 127
2, 114009, Note_on_c, 8, 68, 127
2, 114130, Note_off_c, 8, 68, 127
2, 114131, Note_off_c, 6, 54, 127
2, 114132, Note_on_c, 8, 56, 127
2, 114132, Note_on_c, 4, 64, 127
2, 114253, Note_off_c, 4, 64, 127
2, 114257, Note_on_c, 12, 71, 127
2, 114378, Note_off_c, 12, 71, 127
2, 114378, Note_off_c, 8, 56, 127
2, 114382, Note_on_c, 10, 57, 127
2, 114382, Note_on_c, 1, 73, 127
2, 114503, Note_off_c, 1, 73, 127
2, 114507, Note_on_c, 3, 75, 127
2, 114628, Note_off_c, 3, 75, 127
2, 114628, Note_off_c, 10, 57, 127
2, 114631, Note_on_c, 8, 56, 127
2, 114631, Note_on_c, 4, 76, 127
2, 114755, Note_on_c, 12, 71, 127
2, 114810, Note_off_c, 4, 76, 127
2, 114875, Note_off_c, 8, 56, 127
2, 114876, Note_off_c, 12, 71, 127
2, 114879, Note_on_c, 6, 54, 127
2, 114879, Note_on_c, 4, 76, 127
2, 115002, Note_on_c, 10, 69, 127
2, 115058, Note_off_c, 4, 76, 127
2, 115123, Note_off_c, 6, 54, 127
2, 115126, Note_off_c, 10, 69, 127
2, 115130, Note_on_c, 8, 68, 127
2, 115130, Note_on_c, 4, 52, 127
2, 115253, Note_off_c, 8, 68, 127
2, 115257, Note_on_c, 12, 71, 127
2, 115379, Note_off_c, 4, 52, 127
2, 115380, Note_off_c, 12, 71, 127
2, 115383, Note_on_c, 4, 76, 127
2, 115383, Note_on_c, 8, 56, 127
2, 115506, Note_off_c, 4, 76, 127
2, 115509, Note_on_c, 8, 80, 127
2, 115634, Note_off_c, 8, 56, 127
2, 115641, Note_on_c, 1, 61, 127
2, 115641, Note_on_c, 10, 69, 127
2, 115698, Note_off_c, 8, 80, 127
2, 115767, Note_off_c, 10, 69, 127
2, 115772, Note_on_c, 8, 80, 127
2, 115898, Note_off_c, 8, 80, 127
2, 115900, Note_off_c, 1, 61, 127
2, 115903, Note_on_c, 10, 57, 127
2, 115903, Note_on_c, 6, 78, 127
2, 116029, Note_off_c, 6, 78, 127
2, 116034, Note_on_c, 4, 76, 127
2, 116162, Note_off_c, 10, 57, 127
2, 116169, Note_on_c, 10, 69, 127
2, 116169, Note_on_c, 12, 59, 127
2, 116230, Note_off_c, 4, 76, 127
2, 116298, Note_off_c, 10, 69, 127
2, 116303, Note_on_c, 6, 78, 127
2, 116432, Note_off_c, 6, 78, 127
2, 116434, Note_off_c, 12, 59, 127
2, 116438, Note_on_c, 4, 76, 127
2, 116438, Note_on_c, 12, 47, 127
2, 116567, Note_off_c, 4, 76, 127
2, 116572, Note_on_c, 3, 75, 127
2, 116702, Note_off_c, 12, 47, 127
2, 116704, Note_off_c, 3, 75, 127
2, 116708, Note_on_c, 4, 76, 127
2, 116848, Note_on_c, 4, 52, 127
2, 116980, Note_off_c, 4, 52, 127
2, 116987, Note_on_c, 8, 56, 127
2, 117119, Note_off_c, 8, 56, 127
2, 117125, Note_on_c, 12, 59, 127
2, 117252, Note_off_c, 4, 76, 127
2, 117261, Note_off_c, 12, 59, 127
2, 117266, Note_on_c, 4, 64, 127
2, 117408, Note_on_c, 6, 66, 127
2, 117545, Note_off_c, 6, 66, 127
2, 117552, Note_on_c, 8, 68, 127
2, 117696, Note_on_c, 12, 71, 127
2, 117909, Note_on_c, 4, 76, 127
2, 118109, Note_off_c, 12, 71, 127
2, 118114, Note_off_c, 8, 68, 127
2, 118670, Note_off_c, 4, 64, 127
2, 119909, Note_off_c, 4, 76, 127
2, 121524, Note_on_c, 4, 64, 127
2, 121524, Note_on_c, 8, 68, 127
2, 121524, Note_on_c, 12, 59, 127
2, 121524, Note_on_c, 8, 56, 127
2, 121524, Note_on_c, 4, 52, 127
2, 121788, Note_off_c, 8, 68, 127
2, 121790, Note_on_c, 10, 69, 127
2, 121877, Note_off_c, 10, 69, 127
2, 121879, Note_on_c, 8, 68, 127
2, 121966, Note_off_c, 8, 68, 127
2, 121968, Note_on_c, 6, 66, 127
2, 122055, Note_off_c, 6, 66, 127
2, 122057, Note_on_c, 8, 68, 127
2, 122144, Note_off_c, 8, 68, 127
2, 122147, Note_on_c, 10, 69, 127
2, 122227, Note_off_c, 4, 64, 127
2, 122231, Note_off_c, 4, 52, 127
2, 122231, Note_off_c, 8, 56, 127
2, 122231, Note_off_c, 12, 59, 127
2, 122232, Note_off_c, 10, 69, 127
2, 122234, Note_on_c, 8, 68, 127
2, 122234, Note_on_c, 0, 60, 127
2, 122234, Note_on_c, 8, 56, 127
2, 122234, Note_on_c, 3, 51, 127
2, 122321, Note_off_c, 8, 68, 127
2, 122323, Note_on_c, 6, 66, 127
2, 122410, Note_off_c, 6, 66, 127
2, 122412, Note_on_c, 8, 68, 127
2, 122499, Note_off_c, 8, 68, 127
2, 122501, Note_on_c, 6, 66, 127
2, 122588, Note_off_c, 6, 66, 127
2, 122590, Note_on_c, 8, 68, 127
2, 122677, Note_off_c, 8, 68, 127
2, 122680, Note_on_c, 6, 66, 127
2, 122767, Note_off_c, 6, 66, 127
2, 122769, Note_on_c, 8, 68, 127
2, 122856, Note_off_c, 8, 68, 127
2, 122858, Note_on_c, 6, 66, 127
2, 122945, Note_off_c, 6, 66, 127
2, 122947, Note_on_c, 8, 68, 127
2, 123034, Note_off_c, 8, 68, 127
2, 123036, Note_on_c, 6, 66, 127
2, 123123, Note_off_c, 6, 66, 127
2, 123125, Note_on_c, 8, 68, 127
2, 123212, Note_off_c, 8, 68, 127
2, 123214, Note_on_c, 6, 66, 127
2, 123301, Note_off_c, 6, 66, 127
2, 123303, Note_on_c, 8, 68, 127
2, 123390, Note_off_c, 8, 68, 127
2, 123392, Note_on_c, 6, 66, 127
2, 123479, Note_off_c, 6, 66, 127
2, 123481, Note_on_c, 4, 64, 127
2, 123568, Note_off_c, 4, 64, 127
2, 123571, Note_on_c, 6, 66, 127
2, 123657, Note_off_c, 3, 51, 127
2, 123657, Note_off_c, 8, 56, 127
2, 123657, Note_off_c, 0, 60, 127
2, 123658, Note_off_c, 6, 66, 127
2, 123660, Note_on_c, 4, 64, 127
2, 123660, Note_on_c, 1, 61, 127
2, 123660, Note_on_c, 8, 56, 127
2, 123660, Note_on_c, 1, 49, 127
2, 124176, Note_off_c, 4, 64, 127
2, 124366, Note_off_c, 1, 49, 127
2, 124366, Note_off_c, 1, 61, 127
2, 124368, Note_on_c, 4, 64, 127
2, 124368, Note_on_c, 10, 69, 127
2, 124368, Note_on_c, 1, 49, 127
2, 124544, Note_off_c, 8, 56, 127
2, 124544, Note_on_c, 12, 59, 127
2, 124718, Note_off_c, 12, 59, 127
2, 124721, Note_on_c, 10, 57, 127
2, 124895, Note_off_c, 10, 57, 127
2, 124897, Note_on_c, 8, 56, 127
2, 125071, Note_off_c, 8, 56, 127
2, 125074, Note_on_c, 6, 54, 127
2, 125248, Note_off_c, 6, 54, 127
2, 125250, Note_on_c, 4, 52, 127
2, 125424, Note_off_c, 4, 52, 127
2, 125427, Note_on_c, 3, 51, 127
2, 125601, Note_off_c, 3, 51, 127
2, 125604, Note_on_c, 4, 52, 127
2, 125778, Note_off_c, 4, 52, 127
2, 125779, Note_off_c, 1, 49, 127
2, 125779, Note_off_c, 10, 69, 127
2, 125779, Note_off_c, 4, 64, 127
2, 125780, Note_on_c, 10, 69, 127
2, 125780, Note_on_c, 6, 66, 127
2, 125780, Note_on_c, 12, 59, 127
2, 125780, Note_on_c, 6, 54, 127
2, 125780, Note_on_c, 3, 51, 127
2, 126044, Note_off_c, 10, 69, 127
2, 126046, Note_on_c, 12, 71, 127
2, 126133, Note_off_c, 12, 71, 127
2, 126135, Note_on_c, 10, 69, 127
2, 126222, Note_off_c, 10, 69, 127
2, 126224, Note_on_c, 8, 68, 127
2, 126311, Note_off_c, 8, 68, 127
2, 126313, Note_on_c, 10, 69, 127
2, 126400, Note_off_c, 10, 69, 127
2, 126402, Note_on_c, 12, 71, 127
2, 126483, Note_off_c, 6, 66, 127
2, 126487, Note_off_c, 12, 71, 127
2, 126487, Note_off_c, 3, 51, 127
2, 126487, Note_off_c, 6, 54, 127
2, 126487, Note_off_c, 12, 59, 127
2, 126490, Note_on_c, 10, 69, 127
2, 126490, Note_on_c, 4, 64, 127
2, 126490, Note_on_c, 12, 59, 127
2, 126490, Note_on_c, 4, 52, 127
2, 126490, Note_on_c, 8, 56, 127
2, 126577, Note_off_c, 10, 69, 127
2, 126579, Note_on_c, 8, 68, 127
2, 126666, Note_off_c, 8, 68, 127
2, 126668, Note_on_c, 10, 69, 127
2, 126755, Note_off_c, 10, 69, 127
2, 126757, Note_on_c, 8, 68, 127
2, 126844, Note_off_c, 8, 68, 127
2, 126846, Note_on_c, 10, 69, 127
2, 126933, Note_off_c, 10, 69, 127
2, 126935, Note_on_c, 8, 68, 127
2, 127022, Note_off_c, 8, 68, 127
2, 127024, Note_on_c, 10, 69, 127
2, 127111, Note_off_c, 10, 69, 127
2, 127113, Note_on_c, 8, 68, 127
2, 127200, Note_off_c, 8, 68, 127
2, 127201, Note_off_c, 8, 56, 127
2, 127201, Note_off_c, 12, 59, 127
2, 127203, Note_on_c, 10, 69, 127
2, 127203, Note_on_c, 11, 58, 127
2, 127203, Note_on_c, 1, 61, 127
2, 127290, Note_off_c, 10, 69, 127
2, 127292, Note_on_c, 8, 68, 127
2, 127379, Note_off_c, 8, 68, 127
2, 127381, Note_on_c, 10, 69, 127
2, 127468, Note_off_c, 10, 69, 127
2, 127470, Note_on_c, 8, 68, 127
2, 127557, Note_off_c, 8, 68, 127
2, 127559, Note_on_c, 6, 66, 127
2, 127910, Note_off_c, 6, 66, 127
2, 127910, Note_off_c, 1, 61, 127
2, 127910, Note_off_c, 11, 58, 127
2, 127910, Note_off_c, 4, 52, 127
2, 127910, Note_off_c, 4, 64, 127
2, 127912, Note_on_c, 6, 66, 127
2, 127912, Note_on_c, 4, 64, 127
2, 127912, Note_on_c, 12, 59, 127
2, 127912, Note_on_c, 12, 47, 127
2, 128618, Note_off_c, 12, 59, 127
2, 128618, Note_off_c, 4, 64, 127
2, 128618, Note_off_c, 6, 66, 127
2, 128620, Note_on_c, 3, 63, 127
2, 128620, Note_on_c, 12, 59, 127
2, 128620, Note_on_c, 6, 66, 127
2, 128794, Note_off_c, 12, 47, 127
2, 128797, Note_on_c, 1, 49, 127
2, 128971, Note_off_c, 1, 49, 127
2, 128973, Note_on_c, 3, 51, 127
2, 129147, Note_off_c, 3, 51, 127
2, 129150, Note_on_c, 4, 52, 127
2, 129324, Note_off_c, 4, 52, 127
2, 129326, Note_on_c, 6, 54, 127
2, 129500, Note_off_c, 6, 54, 127
2, 129503, Note_on_c, 8, 56, 127
2, 129677, Note_off_c, 8, 56, 127
2, 129677, Note_off_c, 6, 66, 127
2, 129680, Note_on_c, 10, 57, 127
2, 129854, Note_off_c, 10, 57, 127
2, 129856, Note_on_c, 6, 54, 127
2, 130030, Note_off_c, 6, 54, 127
2, 130031, Note_off_c, 12, 59, 127
2, 130031, Note_off_c, 3, 63, 127
2, 130033, Note_on_c, 12, 71, 127
2, 130033, Note_on_c, 3, 63, 127
2, 130033, Note_on_c, 12, 59, 127
2, 130033, Note_on_c, 8, 56, 127
2, 130120, Note_off_c, 12, 71, 127
2, 130122, Note_on_c, 10, 69, 127
2, 130122, Note_on_c, 8, 68, 127
2, 130209, Note_off_c, 8, 68, 127
2, 130209, Note_off_c, 10, 69, 127
2, 130211, Note_on_c, 12, 71, 127
2, 130651, Note_off_c, 12, 71, 127
2, 130653, Note_on_c, 1, 73, 127
2, 130734, Note_off_c, 3, 63, 127
2, 130738, Note_off_c, 1, 73, 127
2, 130739, Note_off_c, 8, 56, 127
2, 130739, Note_off_c, 12, 59, 127
2, 130741, Note_on_c, 4, 64, 127
2, 130741, Note_on_c, 12, 71, 127
2, 130741, Note_on_c, 1, 61, 127
2, 130830, Note_off_c, 12, 71, 127
2, 130830, Note_on_c, 10, 69, 127
2, 130919, Note_off_c, 10, 69, 127
2, 130919, Note_on_c, 12, 71, 127
2, 131008, Note_off_c, 12, 71, 127
2, 131008, Note_on_c, 10, 69, 127
2, 131097, Note_off_c, 10, 69, 127
2, 131097, Note_on_c, 12, 71, 127
2, 131186, Note_off_c, 12, 71, 127
2, 131186, Note_on_c, 10, 69, 127
2, 131275, Note_off_c, 10, 69, 127
2, 131275, Note_on_c, 12, 71, 127
2, 131364, Note_off_c, 12, 71, 127
2, 131364, Note_on_c, 10, 69, 127
2, 131453, Note_on_c, 12, 59, 127
2, 131803, Note_off_c, 10, 69, 127
2, 131807, Note_on_c, 8, 68, 127
2, 132157, Note_off_c, 12, 59, 127
2, 132158, Note_off_c, 8, 68, 127
2, 132158, Note_off_c, 1, 61, 127
2, 132158, Note_off_c, 4, 64, 127
2, 132160, Note_on_c, 1, 73, 127
2, 132160, Note_on_c, 6, 66, 127
2, 132160, Note_on_c, 1, 61, 127
2, 132160, Note_on_c, 11, 58, 127
2, 132511, Note_off_c, 1, 73, 127
2, 132513, Note_on_c, 3, 75, 127
2, 132687, Note_off_c, 3, 75, 127
2, 132690, Note_on_c, 4, 76, 127
2, 132859, Note_off_c, 1, 61, 127
2, 132859, Note_off_c, 6, 66, 127
2, 132864, Note_off_c, 4, 76, 127
2, 132866, Note_on_c, 6, 66, 127
2, 132955, Note_on_c, 1, 73, 127
2, 133044, Note_on_c, 4, 76, 127
2, 133219, Note_off_c, 11, 58, 127
2, 133221, Note_on_c, 8, 56, 127
2, 133395, Note_off_c, 8, 56, 127
2, 133397, Note_on_c, 6, 54, 127
2, 133571, Note_off_c, 6, 54, 127
2, 133574, Note_on_c, 12, 59, 127
2, 133922, Note_off_c, 1, 73, 127
2, 133925, Note_off_c, 6, 66, 127
2, 133926, Note_off_c, 4, 76, 127
2, 133927, Note_on_c, 6, 66, 127
2, 133927, Note_on_c, 3, 75, 127
2, 133927, Note_on_c, 12, 71, 127
2, 134278, Note_off_c, 12, 71, 127
2, 134278, Note_off_c, 3, 75, 127
2, 134278, Note_off_c, 6, 66, 127
2, 134278, Note_off_c, 12, 59, 127
2, 134280, Note_on_c, 4, 64, 127
2, 134280, Note_on_c, 1, 73, 127
2, 134280, Note_on_c, 4, 52, 127
2, 134454, Note_off_c, 1, 73, 127
2, 134457, Note_on_c, 11, 70, 127
2, 134629, Note_off_c, 4, 64, 127
2, 134631, Note_off_c, 11, 70, 127
2, 134631, Note_off_c, 4, 52, 127
2, 134634, Note_on_c, 3, 63, 127
2, 134634, Note_on_c, 12, 71, 127
2, 134634, Note_on_c, 1, 49, 127
2, 134985, Note_off_c, 1, 49, 127
2, 134985, Note_off_c, 12, 71, 127
2, 134985, Note_off_c, 3, 63, 127
2, 134987, Note_on_c, 12, 71, 127
2, 134987, Note_on_c, 1, 61, 127
2, 134987, Note_on_c, 6, 54, 127
2, 135096, Note_on_c, 11, 70, 127
2, 135097, Note_off_c, 12, 71, 127
2, 135183, Note_off_c, 11, 70, 127
2, 135185, Note_on_c, 12, 71, 127
2, 135272, Note_off_c, 12, 71, 127
2, 135274, Note_on_c, 11, 70, 127
2, 135338, Note_off_c, 1, 61, 127
2, 135341, Note_on_c, 3, 63, 127
2, 135692, Note_off_c, 3, 63, 127
2, 135695, Note_on_c, 4, 64, 127
2, 135695, Note_on_c, 6, 42, 127
2, 136039, Note_off_c, 11, 70, 127
2, 136048, Note_on_c, 12, 71, 127
2, 136394, Note_off_c, 4, 64, 127
2, 136399, Note_off_c, 12, 71, 127
2, 136399, Note_off_c, 6, 42, 127
2, 136401, Note_on_c, 12, 71, 127
2, 136401, Note_on_c, 12, 47, 127
2, 136756, Note_on_c, 1, 61, 127
2, 137102, Note_off_c, 12, 71, 127
2, 137105, Note_off_c, 6, 54, 127
2, 137107, Note_off_c, 1, 61, 127
2, 137109, Note_on_c, 3, 63, 127
2, 137109, Note_on_c, 6, 66, 127
2, 137109, Note_on_c, 12, 71, 127
2, 137109, Note_on_c, 6, 54, 127
2, 138362, Note_off_c, 6, 54, 127
2, 138362, Note_off_c, 12, 71, 127
2, 138362, Note_off_c, 6, 66, 127
2, 138362, Note_off_c, 3, 63, 127
2, 138521, Note_off_c, 12, 47, 127
2, 138525, Note_on_c, 6, 66, 127
2, 138525, Note_on_c, 12, 71, 127
2, 138525, Note_on_c, 3, 75, 127
2, 138525, Note_on_c, 12, 59, 127
2, 139054, Note_off_c, 3, 75, 127
2, 139054, Note_off_c, 12, 71, 127
2, 139056, Note_on_c, 4, 76, 127
2, 139226, Note_off_c, 6, 66, 127
2, 139230, Note_off_c, 4, 76, 127
2, 139231, Note_off_c, 12, 59, 127
2, 139233, Note_on_c, 6, 66, 127
2, 139233, Note_on_c, 3, 75, 127
2, 139233, Note_on_c, 10, 57, 127
2, 139233, Note_on_c, 1, 61, 127
2, 139320, Note_off_c, 3, 75, 127
2, 139322, Note_on_c, 1, 73, 127
2, 139409, Note_off_c, 1, 73, 127
2, 139411, Note_on_c, 3, 75, 127
2, 139498, Note_off_c, 3, 75, 127
2, 139500, Note_on_c, 1, 73, 127
2, 139587, Note_off_c, 1, 73, 127
2, 139589, Note_on_c, 3, 75, 127
2, 139676, Note_off_c, 3, 75, 127
2, 139678, Note_on_c, 1, 73, 127
2, 139765, Note_off_c, 1, 73, 127
2, 139767, Note_on_c, 3, 75, 127
2, 139854, Note_off_c, 3, 75, 127
2, 139856, Note_on_c, 1, 73, 127
2, 139943, Note_off_c, 1, 73, 127
2, 139946, Note_on_c, 3, 75, 127
2, 140033, Note_off_c, 3, 75, 127
2, 140035, Note_on_c, 1, 73, 127
2, 140122, Note_off_c, 1, 73, 127
2, 140124, Note_on_c, 3, 75, 127
2, 140211, Note_off_c, 3, 75, 127
2, 140213, Note_on_c, 1, 73, 127
2, 140300, Note_off_c, 1, 73, 127
2, 140302, Note_on_c, 3, 75, 127
2, 140389, Note_off_c, 3, 75, 127
2, 140391, Note_on_c, 1, 73, 127
2, 140478, Note_off_c, 1, 73, 127
2, 140480, Note_on_c, 0, 72, 127
2, 140567, Note_off_c, 0, 72, 127
2, 140569, Note_on_c, 1, 73, 127
2, 140656, Note_off_c, 1, 73, 127
2, 140656, Note_off_c, 1, 61, 127
2, 140656, Note_off_c, 10, 57, 127
2, 140656, Note_off_c, 6, 66, 127
2, 140658, Note_on_c, 0, 72, 127
2, 140658, Note_on_c, 8, 68, 127
2, 140658, Note_on_c, 8, 56, 127
2, 140658, Note_on_c, 3, 63, 127
2, 141340, Note_off_c, 3, 63, 127
2, 141340, Note_off_c, 8, 68, 127
2, 141340, Note_off_c, 0, 72, 127
2, 141366, Note_on_c, 0, 72, 127
2, 141455, Note_on_c, 3, 75, 127
2, 141542, Note_off_c, 8, 56, 127
2, 141544, Note_on_c, 6, 78, 127
2, 141544, Note_on_c, 6, 54, 127
2, 141634, Note_on_c, 10, 81, 127
2, 141720, Note_off_c, 6, 54, 127
2, 141723, Note_on_c, 10, 57, 127
2, 141897, Note_off_c, 10, 57, 127
2, 141899, Note_on_c, 8, 56, 127
2, 142073, Note_off_c, 8, 56, 127
2, 142076, Note_on_c, 6, 54, 127
2, 142250, Note_off_c, 6, 54, 127
2, 142252, Note_on_c, 4, 52, 127
2, 142426, Note_off_c, 4, 52, 127
2, 142429, Note_on_c, 6, 54, 127
2, 142603, Note_off_c, 6, 54, 127
2, 142606, Note_on_c, 3, 51, 127
2, 142712, Note_off_c, 0, 72, 127
2, 142741, Note_off_c, 6, 78, 127
2, 142744, Note_off_c, 3, 75, 127
2, 142774, Note_off_c, 10, 81, 127
2, 142779, Note_off_c, 3, 51, 127
2, 142781, Note_on_c, 1, 73, 127
2, 142781, Note_on_c, 8, 80, 127
2, 142781, Note_on_c, 8, 56, 127
2, 142781, Note_on_c, 4, 52, 127
2, 143310, Note_off_c, 8, 80, 127
2, 143312, Note_on_c, 10, 81, 127
2, 143486, Note_off_c, 10, 81, 127
2, 143487, Note_off_c, 8, 56, 127
2, 143488, Note_on_c, 8, 80, 127
2, 143488, Note_on_c, 10, 57, 127
2, 143575, Note_off_c, 8, 80, 127
2, 143578, Note_on_c, 6, 78, 127
2, 143665, Note_off_c, 6, 78, 127
2, 143667, Note_on_c, 8, 80, 127
2, 143754, Note_off_c, 8, 80, 127
2, 143756, Note_on_c, 6, 78, 127
2, 143843, Note_off_c, 6, 78, 127
2, 143845, Note_on_c, 8, 80, 127
2, 143932, Note_off_c, 8, 80, 127
2, 143934, Note_on_c, 6, 78, 127
2, 144021, Note_off_c, 6, 78, 127
2, 144023, Note_on_c, 8, 80, 127
2, 144110, Note_off_c, 8, 80, 127
2, 144112, Note_on_c, 6, 78, 127
2, 144199, Note_off_c, 10, 57, 127
2, 144200, Note_off_c, 4, 52, 127
2, 144200, Note_off_c, 1, 73, 127
2, 144201, Note_on_c, 12, 71, 127
2, 144201, Note_on_c, 8, 56, 127
2, 144201, Note_on_c, 2, 50, 127
2, 144546, Note_off_c, 6, 78, 127
2, 144554, Note_off_c, 8, 56, 127
2, 144556, Note_on_c, 5, 77, 127
2, 144556, Note_on_c, 6, 54, 127
2, 144902, Note_off_c, 2, 50, 127
2, 144902, Note_off_c, 12, 71, 127
2, 144907, Note_off_c, 6, 54, 127
2, 144907, Note_off_c, 5, 77, 127
2, 144909, Note_on_c, 1, 73, 127
2, 144909, Note_on_c, 5, 77, 127
2, 144909, Note_on_c, 1, 49, 127
2, 144909, Note_on_c, 8, 56, 127
2, 145610, Note_off_c, 8, 56, 127
2, 145615, Note_off_c, 5, 77, 127
2, 145615, Note_off_c, 1, 73, 127
2, 145617, Note_on_c, 1, 73, 127
2, 145706, Note_on_c, 5, 77, 127
2, 145793, Note_off_c, 1, 49, 127
2, 145795, Note_on_c, 8, 80, 127
2, 145795, Note_on_c, 2, 50, 127
2, 145884, Note_on_c, 12, 83, 127
2, 145971, Note_off_c, 2, 50, 127
2, 145974, Note_on_c, 1, 49, 127
2, 146148, Note_off_c, 1, 49, 127
2, 146150, Note_on_c, 12, 47, 127
2, 146324, Note_off_c, 12, 47, 127
2, 146327, Note_on_c, 10, 45, 127
2, 146501, Note_off_c, 10, 45, 127
2, 146503, Note_on_c, 8, 44, 127
2, 146677, Note_off_c, 8, 44, 127
2, 146680, Note_on_c, 6, 42, 127
2, 146854, Note_off_c, 6, 42, 127
2, 146856, Note_on_c, 8, 44, 127
2, 146943, Note_off_c, 8, 44, 127
2, 146946, Note_on_c, 5, 41, 127
2, 146963, Note_off_c, 1, 73, 127
2, 146992, Note_off_c, 8, 80, 127
2, 146995, Note_off_c, 5, 77, 127
2, 147024, Note_off_c, 12, 83, 127
2, 147030, Note_off_c, 5, 41, 127
2, 147031, Note_on_c, 10, 81, 127
2, 147031, Note_on_c, 1, 73, 127
2, 147031, Note_on_c, 6, 78, 127
2, 147031, Note_on_c, 6, 42, 127
2, 147560, Note_off_c, 10, 81, 127
2, 147563, Note_on_c, 12, 83, 127
2, 147732, Note_off_c, 6, 78, 127
2, 147732, Note_off_c, 1, 73, 127
2, 147737, Note_off_c, 12, 83, 127
2, 147737, Note_off_c, 6, 42, 127
2, 147739, Note_on_c, 6, 78, 127
2, 147739, Note_on_c, 2, 74, 127
2, 147739, Note_on_c, 10, 81, 127
2, 147739, Note_on_c, 12, 47, 127
2, 148090, Note_off_c, 10, 81, 127
2, 148090, Note_off_c, 6, 78, 127
2, 148092, Note_on_c, 8, 80, 127
2, 148438, Note_off_c, 2, 74, 127
2, 148443, Note_off_c, 12, 47, 127
2, 148446, Note_on_c, 5, 77, 127
2, 148446, Note_on_c, 1, 73, 127
2, 148446, Note_on_c, 1, 49, 127
2, 148607, Note_off_c, 8, 80, 127
2, 148797, Note_off_c, 5, 77, 127
2, 148799, Note_on_c, 10, 81, 127
2, 149145, Note_off_c, 1, 73, 127
2, 149150, Note_off_c, 10, 81, 127
2, 149150, Note_off_c, 1, 49, 127
2, 149152, Note_on_c, 12, 71, 127
2, 149152, Note_on_c, 2, 50, 127
2, 149154, Note_on_c, 6, 78, 127
2, 149155, Note_on_c, 12, 83, 127
2, 149683, Note_on_c, 8, 80, 127
2, 149684, Note_off_c, 12, 83, 127
2, 149853, Note_off_c, 12, 71, 127
2, 149855, Note_off_c, 6, 78, 127
2, 149857, Note_off_c, 8, 80, 127
2, 149860, Note_on_c, 8, 68, 127
2, 149860, Note_on_c, 6, 78, 127
2, 149860, Note_on_c, 12, 71, 127
2, 150211, Note_off_c, 6, 78, 127
2, 150211, Note_off_c, 2, 50, 127
2, 150213, Note_on_c, 5, 77, 127
2, 150213, Note_on_c, 2, 50, 127
2, 150564, Note_off_c, 2, 50, 127
2, 150566, Note_on_c, 1, 49, 127
2, 150917, Note_off_c, 1, 49, 127
2, 150917, Note_off_c, 5, 77, 127
2, 150919, Note_on_c, 6, 78, 127
2, 150919, Note_on_c, 12, 47, 127
2, 151270, Note_off_c, 12, 47, 127
2, 151270, Note_off_c, 6, 78, 127
2, 151271, Note_off_c, 12, 71, 127
2, 151271, Note_off_c, 8, 68, 127
2, 151273, Note_on_c, 1, 73, 127
2, 151273, Note_on_c, 10, 45, 127
2, 151624, Note_off_c, 10, 45, 127
2, 151624, Note_off_c, 1, 73, 127
2, 151626, Note_on_c, 10, 81, 127
2, 151626, Note_on_c, 1, 73, 127
2, 151626, Note_on_c, 6, 42, 127
2, 151977, Note_off_c, 6, 42, 127
2, 151977, Note_off_c, 1, 73, 127
2, 151977, Note_off_c, 10, 81, 127
2, 151979, Note_on_c, 12, 71, 127
2, 151979, Note_on_c, 10, 81, 127
2, 151979, Note_on_c, 1, 49, 127
2, 152330, Note_off_c, 10, 81, 127
2, 152332, Note_on_c, 8, 80, 127
2, 152683, Note_off_c, 8, 80, 127
2, 152683, Note_off_c, 1, 49, 127
2, 152685, Note_on_c, 6, 78, 127
2, 152685, Note_on_c, 1, 37, 127
2, 153036, Note_off_c, 6, 78, 127
2, 153038, Note_on_c, 8, 80, 127
2, 153212, Note_off_c, 8, 80, 127
2, 153215, Note_on_c, 5, 77, 127
2, 153389, Note_off_c, 5, 77, 127
2, 153389, Note_off_c, 1, 37, 127
2, 153392, Note_on_c, 6, 78, 127
2, 153392, Note_on_c, 6, 42, 127
2, 153746, Note_off_c, 12, 71, 127
2, 153746, Note_on_c, 8, 68, 127
2, 154093, Note_off_c, 6, 78, 127
2, 154097, Note_off_c, 8, 68, 127
2, 154099, Note_on_c, 1, 73, 127
2, 154099, Note_on_c, 10, 69, 127
2, 154099, Note_on_c, 6, 78, 127
2, 154451, Note_off_c, 6, 42, 127
2, 154453, Note_on_c, 6, 42, 127
2, 154804, Note_off_c, 6, 42, 127
2, 154806, Note_on_c, 10, 45, 127
2, 155157, Note_off_c, 10, 45, 127
2, 155159, Note_on_c, 1, 49, 127
2, 155349, Note_off_c, 6, 78, 127
2, 155349, Note_off_c, 10, 69, 127
2, 155349, Note_off_c, 1, 73, 127
2, 155510, Note_off_c, 1, 49, 127
2, 155512, Note_on_c, 10, 69, 127
2, 155512, Note_on_c, 1, 73, 127
2, 155512, Note_on_c, 6, 54, 127
2, 156041, Note_off_c, 1, 73, 127
2, 156043, Note_on_c, 2, 74, 127
2, 156213, Note_off_c, 10, 69, 127
2, 156217, Note_off_c, 2, 74, 127
2, 156218, Note_off_c, 6, 54, 127
2, 156220, Note_on_c, 10, 69, 127
2, 156220, Note_on_c, 4, 76, 127
2, 156220, Note_on_c, 6, 42, 127
2, 156307, Note_off_c, 4, 76, 127
2, 156309, Note_on_c, 2, 74, 127
2, 156396, Note_off_c, 2, 74, 127
2, 156398, Note_on_c, 4, 76, 127
2, 156485, Note_off_c, 4, 76, 127
2, 156487, Note_on_c, 2, 74, 127
2, 156574, Note_off_c, 2, 74, 127
2, 156576, Note_on_c, 4, 76, 127
2, 156663, Note_off_c, 4, 76, 127
2, 156666, Note_on_c, 2, 74, 127
2, 156753, Note_off_c, 2, 74, 127
2, 156755, Note_on_c, 4, 76, 127
2, 156842, Note_off_c, 4, 76, 127
2, 156844, Note_on_c, 2, 74, 127
2, 156931, Note_off_c, 2, 74, 127
2, 156931, Note_off_c, 6, 42, 127
2, 156933, Note_on_c, 4, 76, 127
2, 156933, Note_on_c, 6, 54, 127
2, 157020, Note_off_c, 4, 76, 127
2, 157022, Note_on_c, 2, 74, 127
2, 157109, Note_off_c, 2, 74, 127
2, 157111, Note_on_c, 4, 76, 127
2, 157198, Note_off_c, 4, 76, 127
2, 157200, Note_on_c, 2, 74, 127
2, 157287, Note_off_c, 2, 74, 127
2, 157289, Note_on_c, 4, 76, 127
2, 157376, Note_off_c, 4, 76, 127
2, 157378, Note_on_c, 2, 74, 127
2, 157465, Note_off_c, 2, 74, 127
2, 157467, Note_on_c, 1, 73, 127
2, 157554, Note_off_c, 1, 73, 127
2, 157557, Note_on_c, 2, 74, 127
2, 157643, Note_off_c, 10, 69, 127
2, 157644, Note_off_c, 2, 74, 127
2, 157644, Note_off_c, 6, 54, 127
2, 157646, Note_on_c, 12, 71, 127
2, 157646, Note_on_c, 4, 76, 127
2, 157646, Note_on_c, 8, 56, 127
2, 158175, Note_off_c, 8, 56, 127
2, 158177, Note_on_c, 11, 58, 127
2, 158351, Note_off_c, 11, 58, 127
2, 158352, Note_off_c, 4, 76, 127
2, 158352, Note_off_c, 12, 71, 127
2, 158354, Note_on_c, 4, 76, 127
2, 158354, Note_on_c, 1, 73, 127
2, 158354, Note_on_c, 12, 59, 127
2, 158441, Note_off_c, 12, 59, 127
2, 158443, Note_on_c, 11, 58, 127
2, 158530, Note_off_c, 11, 58, 127
2, 158532, Note_on_c, 6, 78, 127
2, 158532, Note_on_c, 12, 59, 127
2, 158619, Note_off_c, 12, 59, 127
2, 158621, Note_on_c, 11, 58, 127
2, 158708, Note_off_c, 11, 58, 127
2, 158708, Note_off_c, 6, 78, 127
2, 158710, Note_on_c, 7, 79, 127
2, 158710, Note_on_c, 12, 59, 127
2, 158797, Note_off_c, 12, 59, 127
2, 158799, Note_on_c, 11, 58, 127
2, 158886, Note_off_c, 11, 58, 127
2, 158888, Note_on_c, 12, 59, 127
2, 158975, Note_off_c, 12, 59, 127
2, 158977, Note_on_c, 11, 58, 127
2, 159064, Note_off_c, 11, 58, 127
2, 159066, Note_on_c, 12, 59, 127
2, 159153, Note_off_c, 12, 59, 127
2, 159155, Note_on_c, 11, 58, 127
2, 159242, Note_off_c, 11, 58, 127
2, 159245, Note_on_c, 12, 59, 127
2, 159332, Note_off_c, 12, 59, 127
2, 159334, Note_on_c, 11, 58, 127
2, 159421, Note_off_c, 11, 58, 127
2, 159423, Note_on_c, 12, 59, 127
2, 159510, Note_off_c, 12, 59, 127
2, 159512, Note_on_c, 11, 58, 127
2, 159599, Note_off_c, 11, 58, 127
2, 159601, Note_on_c, 8, 56, 127
2, 159688, Note_off_c, 8, 56, 127
2, 159690, Note_on_c, 11, 58, 127
2, 159777, Note_off_c, 11, 58, 127
2, 159777, Note_off_c, 7, 79, 127
2, 159777, Note_off_c, 1, 73, 127
2, 159777, Note_off_c, 4, 76, 127
2, 159779, Note_on_c, 2, 74, 127
2, 159779, Note_on_c, 6, 78, 127
2, 159779, Note_on_c, 12, 59, 127
2, 160485, Note_off_c, 12, 59, 127
2, 160485, Note_off_c, 6, 78, 127
2, 160485, Note_off_c, 2, 74, 127
2, 160487, Note_on_c, 1, 73, 127
2, 160487, Note_on_c, 4, 76, 127
2, 160487, Note_on_c, 4, 52, 127
2, 160838, Note_off_c, 4, 76, 127
2, 160838, Note_off_c, 1, 73, 127
2, 160840, Note_on_c, 12, 71, 127
2, 160840, Note_on_c, 2, 74, 127
2, 161191, Note_off_c, 2, 74, 127
2, 161191, Note_off_c, 12, 71, 127
2, 161191, Note_off_c, 4, 52, 127
2, 161193, Note_on_c, 11, 70, 127
2, 161193, Note_on_c, 4, 76, 127
2, 161193, Note_on_c, 6, 54, 127
2, 161544, Note_off_c, 4, 76, 127
2, 161547, Note_on_c, 1, 73, 127
2, 161892, Note_off_c, 11, 70, 127
2, 161897, Note_off_c, 6, 54, 127
2, 161898, Note_off_c, 1, 73, 127
2, 161900, Note_on_c, 12, 71, 127
2, 161900, Note_on_c, 2, 74, 127
2, 161900, Note_on_c, 12, 47, 127
2, 162429, Note_off_c, 12, 47, 127
2, 162431, Note_on_c, 1, 49, 127
2, 162605, Note_off_c, 1, 49, 127
2, 162608, Note_on_c, 2, 50, 127
2, 162695, Note_off_c, 2, 50, 127
2, 162697, Note_on_c, 1, 49, 127
2, 162784, Note_off_c, 1, 49, 127
2, 162786, Note_on_c, 2, 50, 127
2, 162873, Note_off_c, 2, 50, 127
2, 162875, Note_on_c, 1, 49, 127
2, 162962, Note_off_c, 1, 49, 127
2, 162962, Note_off_c, 2, 74, 127
2, 162962, Note_off_c, 12, 71, 127
2, 162964, Note_on_c, 1, 73, 127
2, 162964, Note_on_c, 2, 50, 127
2, 163051, Note_off_c, 2, 50, 127
2, 163053, Note_on_c, 1, 49, 127
2, 163140, Note_off_c, 1, 49, 127
2, 163142, Note_on_c, 2, 50, 127
2, 163229, Note_off_c, 2, 50, 127
2, 163231, Note_on_c, 1, 49, 127
2, 163318, Note_off_c, 1, 49, 127
2, 163318, Note_off_c, 1, 73, 127
2, 163320, Note_on_c, 12, 71, 127
2, 163320, Note_on_c, 2, 50, 127
2, 163407, Note_off_c, 2, 50, 127
2, 163410, Note_on_c, 1, 49, 127
2, 163497, Note_off_c, 1, 49, 127
2, 163499, Note_on_c, 2, 50, 127
2, 163586, Note_off_c, 2, 50, 127
2, 163588, Note_on_c, 1, 49, 127
2, 163675, Note_off_c, 1, 49, 127
2, 163677, Note_on_c, 2, 50, 127
2, 163764, Note_off_c, 2, 50, 127
2, 163766, Note_on_c, 1, 49, 127
2, 163840, Note_off_c, 12, 71, 127
2, 163853, Note_off_c, 1, 49, 127
2, 163855, Note_on_c, 12, 47, 127
2, 163942, Note_off_c, 12, 47, 127
2, 163944, Note_on_c, 1, 49, 127
2, 164031, Note_off_c, 1, 49, 127
2, 164033, Note_on_c, 12, 71, 127
2, 164033, Note_on_c, 8, 80, 127
2, 164033, Note_on_c, 4, 76, 127
2, 164033, Note_on_c, 2, 50, 127
2, 164562, Note_off_c, 8, 80, 127
2, 164565, Note_on_c, 10, 81, 127
2, 164734, Note_off_c, 4, 76, 127
2, 164734, Note_off_c, 12, 71, 127
2, 164739, Note_off_c, 10, 81, 127
2, 164739, Note_off_c, 2, 50, 127
2, 164741, Note_on_c, 4, 76, 127
2, 164741, Note_on_c, 12, 83, 127
2, 164741, Note_on_c, 1, 49, 127
2, 164828, Note_off_c, 12, 83, 127
2, 164830, Note_on_c, 10, 81, 127
2, 164917, Note_off_c, 10, 81, 127
2, 164919, Note_on_c, 12, 83, 127
2, 165006, Note_off_c, 12, 83, 127
2, 165009, Note_on_c, 10, 81, 127
2, 165096, Note_off_c, 10, 81, 127
2, 165098, Note_on_c, 12, 83, 127
2, 165185, Note_off_c, 12, 83, 127
2, 165187, Note_on_c, 10, 81, 127
2, 165274, Note_off_c, 10, 81, 127
2, 165276, Note_on_c, 12, 83, 127
2, 165363, Note_off_c, 12, 83, 127
2, 165365, Note_on_c, 10, 81, 127
2, 165452, Note_off_c, 10, 81, 127
2, 165454, Note_on_c, 12, 83, 127
2, 165541, Note_off_c, 12, 83, 127
2, 165543, Note_on_c, 10, 81, 127
2, 165630, Note_off_c, 10, 81, 127
2, 165632, Note_on_c, 12, 83, 127
2, 165719, Note_off_c, 12, 83, 127
2, 165721, Note_on_c, 10, 81, 127
2, 165808, Note_off_c, 10, 81, 127
2, 165810, Note_on_c, 12, 83, 127
2, 165897, Note_off_c, 12, 83, 127
2, 165900, Note_on_c, 10, 81, 127
2, 165987, Note_off_c, 10, 81, 127
2, 165989, Note_on_c, 8, 80, 127
2, 166076, Note_off_c, 8, 80, 127
2, 166078, Note_on_c, 10, 81, 127
2, 166164, Note_off_c, 1, 49, 127
2, 166164, Note_off_c, 4, 76, 127
2, 166165, Note_off_c, 10, 81, 127
2, 166167, Note_on_c, 12, 83, 127
2, 166167, Note_on_c, 12, 71, 127
2, 166167, Note_on_c, 4, 76, 127
2, 166167, Note_on_c, 8, 44, 127
2, 166696, Note_off_c, 8, 44, 127
2, 166698, Note_on_c, 10, 45, 127
2, 166872, Note_off_c, 10, 45, 127
2, 166873, Note_off_c, 4, 76, 127
2, 166873, Note_off_c, 12, 71, 127
2, 166875, Note_on_c, 1, 73, 127
2, 166875, Note_on_c, 12, 47, 127
2, 166962, Note_off_c, 12, 47, 127
2, 166964, Note_on_c, 10, 45, 127
2, 167051, Note_off_c, 10, 45, 127
2, 167053, Note_on_c, 12, 47, 127
2, 167140, Note_off_c, 12, 47, 127
2, 167142, Note_on_c, 10, 45, 127
2, 167229, Note_off_c, 10, 45, 127
2, 167229, Note_off_c, 12, 83, 127
2, 167231, Note_on_c, 10, 81, 127
2, 167231, Note_on_c, 12, 47, 127
2, 167318, Note_off_c, 12, 47, 127
2, 167320, Note_on_c, 10, 45, 127
2, 167407, Note_off_c, 10, 45, 127
2, 167407, Note_off_c, 10, 81, 127
2, 167409, Note_on_c, 8, 80, 127
2, 167409, Note_on_c, 12, 47, 127
2, 167496, Note_off_c, 12, 47, 127
2, 167498, Note_on_c, 10, 45, 127
2, 167585, Note_off_c, 10, 45, 127
2, 167585, Note_off_c, 8, 80, 127
2, 167588, Note_on_c, 6, 78, 127
2, 167588, Note_on_c, 12, 47, 127
2, 167675, Note_off_c, 12, 47, 127
2, 167677, Note_on_c, 10, 45, 127
2, 167764, Note_off_c, 10, 45, 127
2, 167764, Note_off_c, 6, 78, 127
2, 167766, Note_on_c, 4, 76, 127
2, 167766, Note_on_c, 8, 44, 127
2, 167940, Note_off_c, 8, 44, 127
2, 167940, Note_off_c, 4, 76, 127
2, 167940, Note_off_c, 1, 73, 127
2, 167942, Note_on_c, 3, 75, 127
2, 167942, Note_on_c, 10, 45, 127
2, 168116, Note_off_c, 10, 45, 127
2, 168116, Note_off_c, 3, 75, 127
2, 168119, Note_on_c, 1, 73, 127
2, 168119, Note_on_c, 6, 42, 127
2, 168293, Note_off_c, 6, 42, 127
2, 168293, Note_off_c, 1, 73, 127
2, 168296, Note_on_c, 3, 39, 127
2, 168296, Note_on_c, 12, 71, 127
2, 168477, Note_on_c, 10, 81, 127
2, 168655, Note_off_c, 10, 81, 127
2, 168657, Note_off_c, 3, 39, 127
2, 168658, Note_on_c, 4, 40, 127
2, 168658, Note_on_c, 8, 80, 127
2, 168836, Note_off_c, 8, 80, 127
2, 168840, Note_on_c, 6, 78, 127
2, 169015, Note_off_c, 12, 71, 127
2, 169016, Note_off_c, 4, 40, 127
2, 169018, Note_off_c, 6, 78, 127
2, 169021, Note_on_c, 12, 47, 127
2, 169021, Note_on_c, 4, 76, 127
2, 169021, Note_on_c, 12, 71, 127
2, 169386, Note_on_c, 6, 54, 127
2, 169746, Note_off_c, 4, 76, 127
2, 169756, Note_off_c, 6, 54, 127
2, 169760, Note_on_c, 4, 76, 127
2, 169760, Note_on_c, 8, 56, 127
2, 169850, Note_off_c, 4, 76, 127
2, 169854, Note_on_c, 3, 75, 127
2, 169944, Note_off_c, 3, 75, 127
2, 169948, Note_on_c, 4, 76, 127
2, 170038, Note_off_c, 4, 76, 127
2, 170042, Note_on_c, 3, 75, 127
2, 170130, Note_off_c, 8, 56, 127
2, 170136, Note_on_c, 10, 57, 127
2, 170320, Note_off_c, 3, 75, 127
2, 170324, Note_on_c, 4, 76, 127
2, 170475, Note_off_c, 12, 47, 127
2, 170505, Note_off_c, 4, 76, 127
2, 170513, Note_on_c, 4, 76, 127
2, 170513, Note_on_c, 4, 52, 127
2, 170876, Note_off_c, 10, 57, 127
2, 170909, Note_on_c, 6, 54, 127
2, 171201, Note_off_c, 12, 71, 127
2, 171301, Note_off_c, 6, 54, 127
2, 171301, Note_off_c, 4, 76, 127
2, 171307, Note_on_c, 4, 64, 127
2, 171307, Note_on_c, 12, 71, 127
2, 171307, Note_on_c, 4, 76, 127
2, 171307, Note_on_c, 8, 56, 127
2, 171699, Note_off_c, 8, 56, 127
2, 171704, Note_on_c, 12, 59, 127
2, 172098, Note_off_c, 4, 52, 127
2, 172136, Note_off_c, 12, 59, 127
2, 172162, Note_on_c, 4, 40, 127
2, 172896, Note_off_c, 12, 71, 127
2, 173707, Note_off_c, 4, 76, 127
2, 173707, Note_off_c, 4, 64, 127
2, 174562, Note_off_c, 4, 40, 127
2, 174820, Note_on_c, 8, 68, 127
2, 174820, Note_on_c, 12, 71, 127
2, 174820, Note_on_c, 4, 52, 127
2, 175137, Note_off_c, 12, 71, 127
2, 175137, Note_off_c, 8, 68, 127
2, 175140, Note_on_c, 10, 69, 127
2, 175140, Note_on_c, 1, 73, 127
2, 175456, Note_off_c, 4, 52, 127
2, 175457, Note_off_c, 1, 73, 127
2, 175457, Note_off_c, 10, 69, 127
2, 175459, Note_on_c, 1, 73, 127
2, 175459, Note_on_c, 10, 69, 127
2, 175459, Note_on_c, 4, 40, 127
2, 175776, Note_off_c, 10, 69, 127
2, 175776, Note_off_c, 1, 73, 127
2, 175778, Note_on_c, 3, 75, 127
2, 175778, Note_on_c, 6, 66, 127
2, 176095, Note_off_c, 6, 66, 127
2, 176095, Note_off_c, 3, 75, 127
2, 176095, Note_off_c, 4, 40, 127
2, 176097, Note_on_c, 3, 75, 127
2, 176097, Note_on_c, 6, 66, 127
2, 176097, Note_on_c, 4, 52, 127
2, 176255, Note_off_c, 6, 66, 127
2, 176255, Note_off_c, 3, 75, 127
2, 176257, Note_on_c, 4, 76, 127
2, 176257, Note_on_c, 8, 68, 127
2, 176415, Note_off_c, 8, 68, 127
2, 176415, Note_off_c, 4, 76, 127
2, 176418, Note_on_c, 6, 78, 127
2, 176418, Note_on_c, 10, 69, 127
2, 176735, Note_off_c, 10, 69, 127
2, 176735, Note_off_c, 6, 78, 127
2, 176735, Note_off_c, 4, 52, 127
2, 176737, Note_on_c, 10, 69, 127
2, 176737, Note_on_c, 6, 78, 127
2, 176737, Note_on_c, 4, 40, 127
2, 177054, Note_off_c, 6, 78, 127
2, 177054, Note_off_c, 10, 69, 127
2, 177056, Note_on_c, 4, 76, 127
2, 177056, Note_on_c, 8, 68, 127
2, 177373, Note_off_c, 8, 68, 127
2, 177373, Note_off_c, 4, 76, 127
2, 177373, Note_off_c, 4, 40, 127
2, 177375, Note_on_c, 12, 71, 127
2, 177375, Note_on_c, 8, 80, 127
2, 177375, Note_on_c, 4, 52, 127
2, 177692, Note_off_c, 4, 52, 127
2, 177692, Note_off_c, 8, 80, 127
2, 177694, Note_on_c, 6, 78, 127
2, 177694, Note_on_c, 3, 51, 127
2, 177852, Note_off_c, 6, 78, 127
2, 177855, Note_on_c, 8, 80, 127
2, 177932, Note_off_c, 8, 80, 127
2, 177934, Note_on_c, 10, 81, 127
2, 178011, Note_off_c, 10, 81, 127
2, 178011, Note_off_c, 3, 51, 127
2, 178014, Note_on_c, 8, 80, 127
2, 178014, Note_on_c, 4, 52, 127
2, 178331, Note_off_c, 4, 52, 127
2, 178331, Note_off_c, 8, 80, 127
2, 178333, Note_on_c, 3, 75, 127
2, 178333, Note_on_c, 6, 54, 127
2, 178491, Note_off_c, 3, 75, 127
2, 178493, Note_on_c, 4, 76, 127
2, 178570, Note_off_c, 4, 76, 127
2, 178572, Note_on_c, 6, 78, 127
2, 178649, Note_off_c, 6, 78, 127
2, 178650, Note_off_c, 6, 54, 127
2, 178652, Note_on_c, 4, 76, 127
2, 178652, Note_on_c, 8, 56, 127
2, 178969, Note_off_c, 8, 56, 127
2, 178969, Note_off_c, 4, 76, 127
2, 178970, Note_off_c, 12, 71, 127
2, 178971, Note_on_c, 6, 78, 127
2, 178971, Note_on_c, 1, 73, 127
2, 178971, Note_on_c, 10, 57, 127
2, 179129, Note_off_c, 6, 78, 127
2, 179131, Note_on_c, 8, 80, 127
2, 179208, Note_off_c, 8, 80, 127
2, 179211, Note_on_c, 10, 81, 127
2, 179286, Note_off_c, 1, 73, 127
2, 179288, Note_off_c, 10, 81, 127
2, 179288, Note_off_c, 10, 57, 127
2, 179290, Note_on_c, 3, 75, 127
2, 179290, Note_on_c, 6, 66, 127
2, 179290, Note_on_c, 12, 59, 127
2, 179448, Note_off_c, 12, 59, 127
2, 179450, Note_on_c, 10, 57, 127
2, 179608, Note_off_c, 10, 57, 127
2, 179609, Note_off_c, 3, 75, 127
2, 179611, Note_on_c, 1, 73, 127
2, 179611, Note_on_c, 8, 56, 127
2, 179688, Note_off_c, 1, 73, 127
2, 179690, Note_on_c, 12, 71, 127
2, 179756, Note_off_c, 6, 66, 127
2, 179768, Note_off_c, 8, 56, 127
2, 179770, Note_on_c, 6, 54, 127
2, 179928, Note_off_c, 6, 54, 127
2, 179928, Note_off_c, 12, 71, 127
2, 179930, Note_on_c, 8, 68, 127
2, 179930, Note_on_c, 12, 71, 127
2, 179930, Note_on_c, 4, 52, 127
2, 180247, Note_off_c, 12, 71, 127
2, 180247, Note_off_c, 8, 68, 127
2, 180249, Note_on_c, 1, 73, 127
2, 180249, Note_on_c, 10, 69, 127
2, 180566, Note_off_c, 10, 69, 127
2, 180566, Note_off_c, 1, 73, 127
2, 180566, Note_off_c, 4, 52, 127
2, 180568, Note_on_c, 10, 69, 127
2, 180568, Note_on_c, 1, 73, 127
2, 180568, Note_on_c, 4, 40, 127
2, 180885, Note_off_c, 1, 73, 127
2, 180885, Note_off_c, 10, 69, 127
2, 180887, Note_on_c, 6, 66, 127
2, 180887, Note_on_c, 3, 75, 127
2, 181204, Note_off_c, 3, 75, 127
2, 181204, Note_off_c, 6, 66, 127
2, 181204, Note_off_c, 4, 40, 127
2, 181207, Note_on_c, 6, 66, 127
2, 181207, Note_on_c, 3, 75, 127
2, 181207, Note_on_c, 4, 52, 127
2, 181365, Note_off_c, 3, 75, 127
2, 181365, Note_off_c, 6, 66, 127
2, 181367, Note_on_c, 4, 76, 127
2, 181367, Note_on_c, 8, 68, 127
2, 181525, Note_off_c, 8, 68, 127
2, 181525, Note_off_c, 4, 76, 127
2, 181527, Note_on_c, 10, 69, 127
2, 181527, Note_on_c, 6, 78, 127
2, 181844, Note_off_c, 6, 78, 127
2, 181844, Note_off_c, 10, 69, 127
2, 181845, Note_off_c, 4, 52, 127
2, 181846, Note_on_c, 10, 69, 127
2, 181846, Note_on_c, 6, 78, 127
2, 181846, Note_on_c, 4, 40, 127
2, 182163, Note_off_c, 4, 40, 127
2, 182163, Note_off_c, 6, 78, 127
2, 182163, Note_off_c, 10, 69, 127
2, 182166, Note_on_c, 8, 68, 127
2, 182166, Note_on_c, 4, 76, 127
2, 182166, Note_on_c, 4, 52, 127
2, 182324, Note_off_c, 4, 52, 127
2, 182326, Note_on_c, 6, 54, 127
2, 182484, Note_off_c, 6, 54, 127
2, 182485, Note_off_c, 4, 76, 127
2, 182485, Note_off_c, 8, 68, 127
2, 182486, Note_on_c, 12, 71, 127
2, 182486, Note_on_c, 1, 73, 127
2, 182486, Note_on_c, 8, 56, 127
2, 182644, Note_off_c, 8, 56, 127
2, 182647, Note_on_c, 4, 52, 127
2, 182805, Note_off_c, 4, 52, 127
2, 182805, Note_off_c, 1, 73, 127
2, 182807, Note_on_c, 1, 73, 127
2, 182807, Note_on_c, 3, 51, 127
2, 182965, Note_off_c, 3, 51, 127
2, 182965, Note_off_c, 1, 73, 127
2, 182967, Note_on_c, 3, 75, 127
2, 182967, Note_on_c, 1, 49, 127
2, 183044, Note_off_c, 3, 75, 127
2, 183047, Note_on_c, 4, 76, 127
2, 183124, Note_off_c, 4, 76, 127
2, 183124, Note_off_c, 1, 49, 127
2, 183126, Note_on_c, 3, 75, 127
2, 183126, Note_on_c, 6, 54, 127
2, 183284, Note_off_c, 6, 54, 127
2, 183287, Note_on_c, 3, 51, 127
2, 183445, Note_off_c, 3, 51, 127
2, 183445, Note_off_c, 3, 75, 127
2, 183447, Note_on_c, 3, 75, 127
2, 183447, Note_on_c, 1, 49, 127
2, 183605, Note_off_c, 1, 49, 127
2, 183605, Note_off_c, 3, 75, 127
2, 183607, Note_on_c, 4, 76, 127
2, 183607, Note_on_c, 12, 47, 127
2, 183684, Note_off_c, 4, 76, 127
2, 183687, Note_on_c, 6, 78, 127
2, 183764, Note_off_c, 6, 78, 127
2, 183764, Note_off_c, 12, 47, 127
2, 183766, Note_on_c, 3, 75, 127
2, 183766, Note_on_c, 6, 54, 127
2, 184083, Note_off_c, 6, 54, 127
2, 184083, Note_off_c, 3, 75, 127
2, 184084, Note_off_c, 12, 71, 127
2, 184085, Note_on_c, 11, 70, 127
2, 184085, Note_on_c, 1, 73, 127
2, 184085, Note_on_c, 6, 42, 127
2, 184243, Note_off_c, 1, 73, 127
2, 184246, Note_on_c, 12, 71, 127
2, 184402, Note_off_c, 11, 70, 127
2, 184404, Note_off_c, 12, 71, 127
2, 184404, Note_off_c, 6, 42, 127
2, 184406, Note_on_c, 12, 71, 127
2, 184406, Note_on_c, 12, 47, 127
2, 184872, Note_off_c, 12, 71, 127
2, 185044, Note_off_c, 12, 47, 127
2, 185046, Note_on_c, 6, 66, 127
2, 185046, Note_on_c, 3, 75, 127
2, 185046, Note_on_c, 12, 59, 127
2, 185363, Note_off_c, 12, 59, 127
2, 185363, Note_off_c, 3, 75, 127
2, 185365, Note_on_c, 6, 78, 127
2, 185365, Note_on_c, 10, 57, 127
2, 185682, Note_off_c, 10, 57, 127
2, 185682, Note_off_c, 6, 78, 127
2, 185684, Note_on_c, 3, 75, 127
2, 185684, Note_on_c, 10, 57, 127
2, 186001, Note_off_c, 10, 57, 127
2, 186001, Note_off_c, 3, 75, 127
2, 186003, Note_on_c, 1, 73, 127
2, 186003, Note_on_c, 8, 56, 127
2, 186161, Note_off_c, 1, 73, 127
2, 186164, Note_on_c, 12, 71, 127
2, 186322, Note_off_c, 12, 71, 127
2, 186322, Note_off_c, 8, 56, 127
2, 186322, Note_off_c, 6, 66, 127
2, 186324, Note_on_c, 12, 71, 127
2, 186324, Note_on_c, 4, 76, 127
2, 186324, Note_on_c, 8, 56, 127
2, 186482, Note_off_c, 8, 56, 127
2, 186482, Note_off_c, 4, 76, 127
2, 186484, Note_on_c, 6, 78, 127
2, 186484, Note_on_c, 6, 54, 127
2, 186642, Note_off_c, 6, 54, 127
2, 186642, Note_off_c, 6, 78, 127
2, 186645, Note_on_c, 8, 80, 127
2, 186645, Note_on_c, 4, 52, 127
2, 186957, Note_off_c, 12, 71, 127
2, 186962, Note_off_c, 4, 52, 127
2, 186962, Note_off_c, 8, 80, 127
2, 186964, Note_on_c, 12, 71, 127
2, 186964, Note_on_c, 8, 80, 127
2, 186964, Note_on_c, 10, 57, 127
2, 187281, Note_off_c, 8, 80, 127
2, 187283, Note_on_c, 1, 73, 127
2, 187563, Note_off_c, 1, 73, 127
2, 187597, Note_off_c, 12, 71, 127
2, 187602, Note_off_c, 10, 57, 127
2, 187604, Note_on_c, 10, 69, 127
2, 187604, Note_on_c, 6, 78, 127
2, 187604, Note_on_c, 3, 51, 127
2, 187762, Note_off_c, 3, 51, 127
2, 187764, Note_on_c, 1, 49, 127
2, 187922, Note_off_c, 1, 49, 127
2, 187923, Note_off_c, 6, 78, 127
2, 187923, Note_off_c, 10, 69, 127
2, 187925, Note_on_c, 8, 68, 127
2, 187925, Note_on_c, 4, 76, 127
2, 187925, Note_on_c, 3, 51, 127
2, 188083, Note_off_c, 3, 51, 127
2, 188085, Note_on_c, 4, 52, 127
2, 188243, Note_off_c, 4, 52, 127
2, 188244, Note_off_c, 4, 76, 127
2, 188244, Note_off_c, 8, 68, 127
2, 188245, Note_on_c, 4, 76, 127
2, 188245, Note_on_c, 8, 68, 127
2, 188245, Note_on_c, 6, 54, 127
2, 188403, Note_off_c, 6, 54, 127
2, 188406, Note_on_c, 4, 52, 127
2, 188564, Note_off_c, 4, 52, 127
2, 188564, Note_off_c, 8, 68, 127
2, 188564, Note_off_c, 4, 76, 127
2, 188566, Note_on_c, 3, 75, 127
2, 188566, Note_on_c, 6, 66, 127
2, 188566, Note_on_c, 6, 54, 127
2, 188724, Note_off_c, 6, 54, 127
2, 188727, Note_on_c, 8, 56, 127
2, 188885, Note_off_c, 8, 56, 127
2, 188885, Note_off_c, 6, 66, 127
2, 188885, Note_off_c, 3, 75, 127
2, 188887, Note_on_c, 6, 66, 127
2, 188887, Note_on_c, 3, 75, 127
2, 188887, Note_on_c, 10, 57, 127
2, 189045, Note_off_c, 10, 57, 127
2, 189045, Note_off_c, 3, 75, 127
2, 189047, Note_on_c, 0, 72, 127
2, 189047, Note_on_c, 8, 56, 127
2, 189204, Note_off_c, 6, 66, 127
2, 189205, Note_off_c, 8, 56, 127
2, 189205, Note_off_c, 0, 72, 127
2, 189208, Note_on_c, 1, 73, 127
2, 189208, Note_on_c, 4, 64, 127
2, 189208, Note_on_c, 10, 57, 127
2, 189366, Note_off_c, 10, 57, 127
2, 189368, Note_on_c, 6, 54, 127
2, 189526, Note_off_c, 6, 54, 127
2, 189527, Note_off_c, 4, 64, 127
2, 189527, Note_off_c, 1, 73, 127
2, 189528, Note_on_c, 3, 63, 127
2, 189528, Note_on_c, 0, 72, 127
2, 189528, Note_on_c, 8, 56, 127
2, 189686, Note_off_c, 8, 56, 127
2, 189689, Note_on_c, 10, 57, 127
2, 189847, Note_off_c, 10, 57, 127
2, 189847, Note_off_c, 0, 72, 127
2, 189849, Note_on_c, 11, 70, 127
2, 189849, Note_on_c, 8, 56, 127
2, 190007, Note_off_c, 8, 56, 127
2, 190007, Note_off_c, 11, 70, 127
2, 190010, Note_on_c, 8, 68, 127
2, 190010, Note_on_c, 6, 54, 127
2, 190152, Note_off_c, 8, 68, 127
2, 190161, Note_off_c, 3, 63, 127
2, 190167, Note_off_c, 6, 54, 127
2, 190168, Note_on_c, 8, 68, 127
2, 190168, Note_on_c, 12, 71, 127
2, 190168, Note_on_c, 5, 53, 127
2, 190485, Note_off_c, 12, 71, 127
2, 190488, Note_on_c, 2, 74, 127
2, 190799, Note_off_c, 8, 68, 127
2, 190804, Note_off_c, 5, 53, 127
2, 190805, Note_off_c, 2, 74, 127
2, 190807, Note_on_c, 12, 71, 127
2, 190807, Note_on_c, 2, 74, 127
2, 190807, Note_on_c, 8, 56, 127
2, 191124, Note_off_c, 2, 74, 127
2, 191126, Note_on_c, 8, 80, 127
2, 191438, Note_off_c, 12, 71, 127
2, 191443, Note_off_c, 8, 80, 127
2, 191443, Note_off_c, 8, 56, 127
2, 191445, Note_on_c, 8, 80, 127
2, 191445, Note_on_c, 1, 49, 127
2, 191605, Note_on_c, 12, 71, 127
2, 191762, Note_off_c, 8, 80, 127
2, 191763, Note_off_c, 12, 71, 127
2, 191766, Note_on_c, 5, 65, 127
2, 191766, Note_on_c, 1, 73, 127
2, 192083, Note_off_c, 1, 73, 127
2, 192083, Note_off_c, 5, 65, 127
2, 192083, Note_off_c, 1, 49, 127
2, 192085, Note_on_c, 6, 66, 127
2, 192085, Note_on_c, 10, 69, 127
2, 192085, Note_on_c, 6, 54, 127
2, 192243, Note_off_c, 6, 54, 127
2, 192245, Note_on_c, 8, 56, 127
2, 192403, Note_off_c, 8, 56, 127
2, 192406, Note_on_c, 10, 57, 127
2, 192551, Note_off_c, 6, 66, 127
2, 192563, Note_off_c, 10, 57, 127
2, 192564, Note_on_c, 12, 59, 127
2, 192722, Note_off_c, 12, 59, 127
2, 192723, Note_off_c, 10, 69, 127
2, 192725, Note_on_c, 6, 66, 127
2, 192725, Note_on_c, 10, 69, 127
2, 192725, Note_on_c, 1, 61, 127
2, 192883, Note_off_c, 1, 61, 127
2, 192885, Note_on_c, 3, 63, 127
2, 193043, Note_off_c, 3, 63, 127
2, 193044, Note_off_c, 10, 69, 127
2, 193045, Note_on_c, 1, 73, 127
2, 193045, Note_on_c, 4, 64, 127
2, 193203, Note_off_c, 4, 64, 127
2, 193206, Note_on_c, 1, 61, 127
2, 193360, Note_off_c, 6, 66, 127
2, 193364, Note_off_c, 1, 61, 127
2, 193364, Note_off_c, 1, 73, 127
2, 193366, Note_on_c, 1, 73, 127
2, 193366, Note_on_c, 10, 69, 127
2, 193366, Note_on_c, 3, 63, 127
2, 193524, Note_off_c, 3, 63, 127
2, 193527, Note_on_c, 1, 61, 127
2, 193685, Note_off_c, 1, 61, 127
2, 193685, Note_off_c, 1, 73, 127
2, 193687, Note_on_c, 6, 78, 127
2, 193687, Note_on_c, 12, 59, 127
2, 193845, Note_off_c, 12, 59, 127
2, 193847, Note_on_c, 10, 57, 127
2, 194001, Note_off_c, 10, 69, 127
2, 194005, Note_off_c, 10, 57, 127
2, 194006, Note_off_c, 6, 78, 127
2, 194008, Note_on_c, 10, 69, 127
2, 194008, Note_on_c, 6, 78, 127
2, 194008, Note_on_c, 8, 56, 127
2, 194166, Note_off_c, 8, 56, 127
2, 194166, Note_off_c, 6, 78, 127
2, 194168, Note_on_c, 3, 75, 127
2, 194168, Note_on_c, 6, 54, 127
2, 194325, Note_off_c, 10, 69, 127
2, 194326, Note_off_c, 6, 54, 127
2, 194326, Note_off_c, 3, 75, 127
2, 194329, Note_on_c, 4, 76, 127
2, 194329, Note_on_c, 8, 68, 127
2, 194329, Note_on_c, 8, 56, 127
2, 194487, Note_off_c, 8, 56, 127
2, 194489, Note_on_c, 4, 52, 127
2, 194647, Note_off_c, 4, 52, 127
2, 194648, Note_off_c, 8, 68, 127
2, 194648, Note_off_c, 4, 76, 127
2, 194649, Note_on_c, 6, 66, 127
2, 194649, Note_on_c, 4, 76, 127
2, 194649, Note_on_c, 12, 59, 127
2, 194807, Note_off_c, 12, 59, 127
2, 194807, Note_off_c, 4, 76, 127
2, 194810, Note_on_c, 3, 75, 127
2, 194810, Note_on_c, 10, 57, 127
2, 194968, Note_off_c, 10, 57, 127
2, 194968, Note_off_c, 3, 75, 127
2, 194970, Note_on_c, 1, 73, 127
2, 194970, Note_on_c, 8, 56, 127
2, 195115, Note_off_c, 6, 66, 127
2, 195127, Note_off_c, 8, 56, 127
2, 195127, Note_off_c, 1, 73, 127
2, 195129, Note_on_c, 12, 71, 127
2, 195129, Note_on_c, 6, 54, 127
2, 195287, Note_off_c, 6, 54, 127
2, 195287, Note_off_c, 12, 71, 127
2, 195289, Note_on_c, 12, 71, 127
2, 195289, Note_on_c, 8, 80, 127
2, 195289, Note_on_c, 4, 52, 127
2, 195606, Note_off_c, 8, 80, 127
2, 195606, Note_off_c, 12, 71, 127
2, 195608, Note_on_c, 10, 81, 127
2, 195608, Note_on_c, 1, 73, 127
2, 195925, Note_off_c, 1, 73, 127
2, 195925, Note_off_c, 10, 81, 127
2, 195925, Note_off_c, 4, 52, 127
2, 195927, Note_on_c, 1, 73, 127
2, 195927, Note_on_c, 10, 81, 127
2, 195927, Note_on_c, 4, 40, 127
2, 196244, Note_off_c, 10, 81, 127
2, 196244, Note_off_c, 1, 73, 127
2, 196247, Note_on_c, 2, 74, 127
2, 196247, Note_on_c, 12, 83, 127
2, 196563, Note_off_c, 4, 40, 127
2, 196564, Note_off_c, 12, 83, 127
2, 196564, Note_off_c, 2, 74, 127
2, 196566, Note_on_c, 2, 74, 127
2, 196566, Note_on_c, 12, 83, 127
2, 196566, Note_on_c, 5, 41, 127
2, 196723, Note_off_c, 2, 74, 127
2, 196725, Note_on_c, 12, 71, 127
2, 196882, Note_off_c, 12, 71, 127
2, 196885, Note_on_c, 1, 73, 127
2, 197197, Note_off_c, 12, 83, 127
2, 197200, Note_off_c, 1, 73, 127
2, 197202, Note_off_c, 5, 41, 127
2, 197204, Note_on_c, 6, 42, 127
2, 197204, Note_on_c, 1, 73, 127
2, 197364, Note_off_c, 6, 42, 127
2, 197368, Note_on_c, 8, 44, 127
2, 197368, Note_on_c, 10, 81, 127
2, 197528, Note_off_c, 10, 81, 127
2, 197528, Note_off_c, 8, 44, 127
2, 197533, Note_on_c, 10, 45, 127
2, 197533, Note_on_c, 8, 80, 127
2, 197693, Note_off_c, 8, 80, 127
2, 197693, Note_off_c, 10, 45, 127
2, 197698, Note_on_c, 12, 47, 127
2, 197698, Note_on_c, 6, 78, 127
2, 197855, Note_off_c, 1, 73, 127
2, 197858, Note_off_c, 6, 78, 127
2, 197858, Note_off_c, 12, 47, 127
2, 197863, Note_on_c, 6, 66, 127
2, 197863, Note_on_c, 4, 76, 127
2, 197863, Note_on_c, 1, 49, 127
2, 198029, Note_off_c, 1, 49, 127
2, 198032, Note_on_c, 10, 45, 127
2, 198183, Note_off_c, 6, 66, 127
2, 198198, Note_off_c, 10, 45, 127
2, 198202, Note_on_c, 6, 66, 127
2, 198202, Note_on_c, 8, 44, 127
2, 198283, Note_off_c, 6, 66, 127
2, 198285, Note_on_c, 8, 68, 127
2, 198366, Note_off_c, 8, 68, 127
2, 198367, Note_off_c, 8, 44, 127
2, 198370, Note_on_c, 10, 69, 127
2, 198370, Note_on_c, 6, 42, 127
2, 198536, Note_off_c, 6, 42, 127
2, 198536, Note_off_c, 10, 69, 127
2, 198541, Note_on_c, 12, 47, 127
2, 198541, Note_on_c, 8, 68, 127
2, 198712, Note_off_c, 12, 47, 127
2, 198712, Note_on_c, 8, 44, 127
2, 198874, Note_off_c, 8, 68, 127
2, 198883, Note_off_c, 8, 44, 127
2, 198889, Note_on_c, 6, 42, 127
2, 198889, Note_on_c, 8, 68, 127
2, 198971, Note_off_c, 8, 68, 127
2, 198973, Note_on_c, 10, 69, 127
2, 199055, Note_off_c, 10, 69, 127
2, 199059, Note_off_c, 6, 42, 127
2, 199065, Note_on_c, 12, 71, 127
2, 199065, Note_on_c, 4, 40, 127
2, 199254, Note_off_c, 4, 40, 127
2, 199254, Note_off_c, 12, 71, 127
2, 199260, Note_on_c, 12, 47, 127
2, 199260, Note_on_c, 8, 68, 127
2, 199602, Note_off_c, 4, 76, 127
2, 199652, Note_off_c, 12, 47, 127
2, 199666, Note_on_c, 12, 47, 127
2, 199666, Note_on_c, 3, 75, 127
2, 199666, Note_on_c, 6, 66, 127
2, 199671, Note_off_c, 8, 68, 127
2, 199865, Note_off_c, 6, 66, 127
2, 199872, Note_on_c, 4, 64, 127
2, 200071, Note_off_c, 4, 64, 127
2, 200104, Note_off_c, 3, 75, 127
2, 200108, Note_off_c, 12, 47, 127
2, 200113, Note_on_c, 4, 40, 127
2, 200113, Note_on_c, 4, 64, 127
2, 200113, Note_on_c, 4, 76, 127
2, 201633, Note_off_c, 4, 40, 127
2, 201693, Note_off_c, 4, 76, 127
2, 201693, Note_off_c, 4, 64, 127
2, 201790, Note_on_c, 4, 64, 127
2, 201790, Note_on_c, 8, 80, 127
2, 201903, Note_off_c, 8, 80, 127
2, 201905, Note_on_c, 10, 81, 127
2, 202018, Note_off_c, 10, 81, 127
2, 202018, Note_off_c, 4, 64, 127
2, 202020, Note_on_c, 3, 63, 127
2, 202020, Note_on_c, 12, 83, 127
2, 202248, Note_off_c, 12, 83, 127
2, 202248, Note_off_c, 3, 63, 127
2, 202250, Note_on_c, 1, 61, 127
2, 202250, Note_on_c, 10, 81, 127
2, 202478, Note_off_c, 1, 61, 127
2, 202480, Note_on_c, 4, 64, 127
2, 202708, Note_off_c, 4, 64, 127
2, 202708, Note_off_c, 10, 81, 127
2, 202710, Note_on_c, 12, 59, 127
2, 202710, Note_on_c, 8, 80, 127
2, 202938, Note_off_c, 12, 59, 127
2, 202940, Note_on_c, 4, 64, 127
2, 203168, Note_off_c, 4, 64, 127
2, 203168, Note_off_c, 8, 80, 127
2, 203171, Note_on_c, 10, 57, 127
2, 203171, Note_on_c, 6, 78, 127
2, 203399, Note_off_c, 6, 78, 127
2, 203399, Note_off_c, 10, 57, 127
2, 203401, Note_on_c, 4, 64, 127
2, 203401, Note_on_c, 3, 75, 127
2, 203629, Note_off_c, 3, 75, 127
2, 203629, Note_off_c, 4, 64, 127
2, 203631, Note_on_c, 8, 56, 127
2, 203631, Note_on_c, 4, 76, 127
2, 203859, Note_off_c, 8, 56, 127
2, 203861, Note_on_c, 4, 64, 127
2, 204089, Note_off_c, 4, 64, 127
2, 204091, Note_on_c, 6, 54, 127
2, 204301, Note_off_c, 4, 76, 127
2, 204317, Note_off_c, 6, 54, 127
2, 204319, Note_on_c, 4, 64, 127
2, 204547, Note_off_c, 4, 64, 127
2, 204549, Note_on_c, 8, 56, 127
2, 204549, Note_on_c, 12, 71, 127
2, 204777, Note_off_c, 12, 71, 127
2, 204777, Note_off_c, 8, 56, 127
2, 204779, Note_on_c, 4, 64, 127
2, 204779, Note_on_c, 2, 74, 127
2, 205007, Note_off_c, 2, 74, 127
2, 205007, Note_off_c, 4, 64, 127
2, 205009, Note_on_c, 10, 57, 127
2, 205009, Note_on_c, 2, 74, 127
2, 205237, Note_off_c, 2, 74, 127
2, 205237, Note_off_c, 10, 57, 127
2, 205239, Note_on_c, 4, 64, 127
2, 205239, Note_on_c, 1, 73, 127
2, 205467, Note_off_c, 1, 73, 127
2, 205467, Note_off_c, 4, 64, 127
2, 205469, Note_on_c, 8, 56, 127
2, 205469, Note_on_c, 1, 73, 127
2, 205697, Note_off_c, 1, 73, 127
2, 205697, Note_off_c, 8, 56, 127
2, 205699, Note_on_c, 4, 64, 127
2, 205699, Note_on_c, 12, 71, 127
2, 205927, Note_off_c, 12, 71, 127
2, 205927, Note_off_c, 4, 64, 127
2, 205929, Note_on_c, 6, 54, 127
2, 205929, Note_on_c, 12, 71, 127
2, 206042, Note_off_c, 12, 71, 127
2, 206044, Note_on_c, 10, 69, 127
2, 206157, Note_off_c, 10, 69, 127
2, 206157, Note_off_c, 6, 54, 127
2, 206159, Note_on_c, 3, 63, 127
2, 206159, Note_on_c, 8, 68, 127
2, 206272, Note_off_c, 8, 68, 127
2, 206274, Note_on_c, 6, 66, 127
2, 206387, Note_off_c, 6, 66, 127
2, 206387, Note_off_c, 3, 63, 127
2, 206389, Note_on_c, 4, 64, 127
2, 206389, Note_on_c, 8, 68, 127
2, 206502, Note_off_c, 8, 68, 127
2, 206504, Note_on_c, 6, 66, 127
2, 206617, Note_off_c, 6, 66, 127
2, 206617, Note_off_c, 4, 64, 127
2, 206619, Note_on_c, 4, 52, 127
2, 206619, Note_on_c, 8, 68, 127
2, 206847, Note_off_c, 8, 68, 127
2, 206847, Note_off_c, 4, 52, 127
2, 206850, Note_on_c, 8, 56, 127
2, 206850, Note_on_c, 4, 64, 127
2, 207078, Note_off_c, 8, 56, 127
2, 207080, Note_on_c, 12, 59, 127
2, 207195, Note_off_c, 4, 64, 127
2, 207308, Note_off_c, 12, 59, 127
2, 207310, Note_on_c, 4, 64, 127
2, 207310, Note_on_c, 8, 80, 127
2, 207423, Note_off_c, 8, 80, 127
2, 207425, Note_on_c, 10, 81, 127
2, 207538, Note_off_c, 10, 81, 127
2, 207538, Note_off_c, 4, 64, 127
2, 207540, Note_on_c, 3, 63, 127
2, 207540, Note_on_c, 12, 83, 127
2, 207768, Note_off_c, 12, 83, 127
2, 207768, Note_off_c, 3, 63, 127
2, 207770, Note_on_c, 1, 61, 127
2, 207770, Note_on_c, 10, 81, 127
2, 207998, Note_off_c, 1, 61, 127
2, 208000, Note_on_c, 4, 64, 127
2, 208228, Note_off_c, 4, 64, 127
2, 208228, Note_off_c, 10, 81, 127
2, 208230, Note_on_c, 12, 59, 127
2, 208230, Note_on_c, 8, 80, 127
2, 208458, Note_off_c, 12, 59, 127
2, 208460, Note_on_c, 4, 64, 127
2, 208688, Note_off_c, 4, 64, 127
2, 208688, Note_off_c, 8, 80, 127
2, 208690, Note_on_c, 1, 61, 127
2, 208690, Note_on_c, 11, 70, 127
2, 208918, Note_off_c, 11, 70, 127
2, 208918, Note_off_c, 1, 61, 127
2, 208920, Note_on_c, 4, 64, 127
2, 208920, Note_on_c, 1, 73, 127
2, 209148, Note_off_c, 1, 73, 127
2, 209148, Note_off_c, 4, 64, 127
2, 209150, Note_on_c, 12, 59, 127
2, 209150, Note_on_c, 6, 78, 127
2, 209378, Note_off_c, 12, 59, 127
2, 209380, Note_on_c, 4, 64, 127
2, 209608, Note_off_c, 4, 64, 127
2, 209610, Note_on_c, 11, 58, 127
2, 209820, Note_off_c, 6, 78, 127
2, 209836, Note_off_c, 11, 58, 127
2, 209838, Note_on_c, 4, 64, 127
2, 210066, Note_off_c, 4, 64, 127
2, 210068, Note_on_c, 12, 59, 127
2, 210068, Note_on_c, 6, 66, 127
2, 210296, Note_off_c, 6, 66, 127
2, 210296, Note_off_c, 12, 59, 127
2, 210299, Note_on_c, 3, 63, 127
2, 210299, Note_on_c, 8, 68, 127
2, 210412, Note_off_c, 8, 68, 127
2, 210414, Note_on_c, 11, 70, 127
2, 210527, Note_off_c, 11, 70, 127
2, 210527, Note_off_c, 3, 63, 127
2, 210529, Note_on_c, 3, 51, 127
2, 210529, Note_on_c, 12, 71, 127
2, 210757, Note_off_c, 12, 71, 127
2, 210757, Note_off_c, 3, 51, 127
2, 210759, Note_on_c, 12, 59, 127
2, 210759, Note_on_c, 1, 73, 127
2, 210872, Note_off_c, 1, 73, 127
2, 210874, Note_on_c, 3, 75, 127
2, 210987, Note_off_c, 3, 75, 127
2, 210987, Note_off_c, 12, 59, 127
2, 210989, Note_on_c, 6, 54, 127
2, 210989, Note_on_c, 4, 76, 127
2, 211217, Note_off_c, 4, 76, 127
2, 211217, Note_off_c, 6, 54, 127
2, 211219, Note_on_c, 11, 58, 127
2, 211219, Note_on_c, 3, 75, 127
2, 211332, Note_off_c, 3, 75, 127
2, 211334, Note_on_c, 1, 73, 127
2, 211447, Note_off_c, 1, 73, 127
2, 211447, Note_off_c, 11, 58, 127
2, 211449, Note_on_c, 12, 59, 127
2, 211449, Note_on_c, 6, 78, 127
2, 211562, Note_off_c, 6, 78, 127
2, 211564, Note_on_c, 4, 76, 127
2, 211677, Note_off_c, 4, 76, 127
2, 211677, Note_off_c, 12, 59, 127
2, 211679, Note_on_c, 6, 54, 127
2, 211679, Note_on_c, 3, 75, 127
2, 211792, Note_off_c, 3, 75, 127
2, 211794, Note_on_c, 1, 73, 127
2, 211907, Note_off_c, 1, 73, 127
2, 211907, Note_off_c, 6, 54, 127
2, 211909, Note_on_c, 3, 51, 127
2, 211909, Note_on_c, 12, 71, 127
2, 212137, Note_off_c, 3, 51, 127
2, 212139, Note_on_c, 6, 54, 127
2, 212367, Note_off_c, 6, 54, 127
2, 212369, Note_on_c, 12, 47, 127
2, 212579, Note_off_c, 12, 71, 127
2, 212825, Note_off_c, 12, 47, 127
2, 212827, Note_on_c, 12, 59, 127
2, 212827, Note_on_c, 3, 75, 127
2, 212940, Note_off_c, 3, 75, 127
2, 212942, Note_on_c, 4, 76, 127
2, 213055, Note_off_c, 4, 76, 127
2, 213055, Note_off_c, 12, 59, 127
2, 213057, Note_on_c, 10, 57, 127
2, 213057, Note_on_c, 6, 78, 127
2, 213285, Note_off_c, 6, 78, 127
2, 213285, Note_off_c, 10, 57, 127
2, 213287, Note_on_c, 8, 56, 127
2, 213287, Note_on_c, 4, 76, 127
2, 213515, Note_off_c, 8, 56, 127
2, 213517, Note_on_c, 12, 59, 127
2, 213745, Note_off_c, 12, 59, 127
2, 213745, Note_off_c, 4, 76, 127
2, 213747, Note_on_c, 6, 54, 127
2, 213747, Note_on_c, 3, 75, 127
2, 213975, Note_off_c, 6, 54, 127
2, 213978, Note_on_c, 10, 57, 127
2, 214205, Note_off_c, 3, 75, 127
2, 214206, Note_off_c, 10, 57, 127
2, 214208, Note_on_c, 0, 60, 127
2, 214208, Note_on_c, 10, 81, 127
2, 214436, Note_off_c, 10, 81, 127
2, 214436, Note_off_c, 0, 60, 127
2, 214438, Note_on_c, 1, 61, 127
2, 214438, Note_on_c, 6, 78, 127
2, 214666, Note_off_c, 6, 78, 127
2, 214666, Note_off_c, 1, 61, 127
2, 214668, Note_on_c, 3, 63, 127
2, 214668, Note_on_c, 8, 80, 127
2, 214781, Note_off_c, 8, 80, 127
2, 214783, Note_on_c, 6, 78, 127
2, 214896, Note_off_c, 6, 78, 127
2, 214896, Note_off_c, 3, 63, 127
2, 214898, Note_on_c, 6, 54, 127
2, 214898, Note_on_c, 8, 80, 127
2, 215126, Note_off_c, 6, 54, 127
2, 215128, Note_on_c, 1, 61, 127
2, 215353, Note_off_c, 8, 80, 127
2, 215354, Note_off_c, 1, 61, 127
2, 215356, Note_on_c, 4, 52, 127
2, 215584, Note_off_c, 4, 52, 127
2, 215586, Note_on_c, 3, 51, 127
2, 215586, Note_on_c, 0, 72, 127
2, 215814, Note_off_c, 0, 72, 127
2, 215814, Note_off_c, 3, 51, 127
2, 215816, Note_on_c, 1, 49, 127
2, 215816, Note_on_c, 6, 78, 127
2, 216044, Note_off_c, 6, 78, 127
2, 216044, Note_off_c, 1, 49, 127
2, 216046, Note_on_c, 0, 48, 127
2, 216046, Note_on_c, 6, 78, 127
2, 216274, Note_off_c, 6, 78, 127
2, 216274, Note_off_c, 0, 48, 127
2, 216276, Note_on_c, 8, 56, 127
2, 216276, Note_on_c, 4, 76, 127
2, 216504, Note_off_c, 4, 76, 127
2, 216504, Note_off_c, 8, 56, 127
2, 216506, Note_on_c, 1, 49, 127
2, 216506, Note_on_c, 4, 76, 127
2, 216734, Note_off_c, 4, 76, 127
2, 216734, Note_off_c, 1, 49, 127
2, 216736, Note_on_c, 8, 56, 127
2, 216736, Note_on_c, 3, 75, 127
2, 216964, Note_off_c, 3, 75, 127
2, 216964, Note_off_c, 8, 56, 127
2, 216966, Note_on_c, 8, 44, 127
2, 216966, Note_on_c, 3, 75, 127
2, 217079, Note_off_c, 3, 75, 127
2, 217081, Note_on_c, 1, 73, 127
2, 217194, Note_off_c, 1, 73, 127
2, 217194, Note_off_c, 8, 44, 127
2, 217196, Note_on_c, 10, 57, 127
2, 217196, Note_on_c, 0, 72, 127
2, 217309, Note_off_c, 0, 72, 127
2, 217311, Note_on_c, 1, 73, 127
2, 217424, Note_off_c, 1, 73, 127
2, 217424, Note_off_c, 10, 57, 127
2, 217427, Note_on_c, 8, 56, 127
2, 217427, Note_on_c, 3, 75, 127
2, 217655, Note_off_c, 8, 56, 127
2, 217657, Note_on_c, 10, 57, 127
2, 217770, Note_off_c, 10, 57, 127
2, 217772, Note_on_c, 8, 56, 127
2, 217885, Note_off_c, 8, 56, 127
2, 217885, Note_off_c, 3, 75, 127
2, 217887, Note_on_c, 6, 54, 127
2, 217887, Note_on_c, 8, 68, 127
2, 218115, Note_off_c, 6, 54, 127
2, 218117, Note_on_c, 8, 56, 127
2, 218222, Note_off_c, 8, 68, 127
2, 218228, Note_off_c, 8, 56, 127
2, 218230, Note_on_c, 6, 54, 127
2, 218343, Note_off_c, 6, 54, 127
2, 218345, Note_on_c, 5, 53, 127
2, 218345, Note_on_c, 2, 74, 127
2, 218458, Note_off_c, 2, 74, 127
2, 218460, Note_on_c, 1, 73, 127
2, 218573, Note_off_c, 1, 73, 127
2, 218573, Note_off_c, 5, 53, 127
2, 218575, Note_on_c, 8, 56, 127
2, 218575, Note_on_c, 0, 72, 127
2, 218688, Note_off_c, 0, 72, 127
2, 218690, Note_on_c, 1, 73, 127
2, 218803, Note_off_c, 1, 73, 127
2, 218803, Note_off_c, 8, 56, 127
2, 218805, Note_on_c, 1, 49, 127
2, 218805, Note_on_c, 2, 74, 127
2, 218918, Note_off_c, 2, 74, 127
2, 218920, Note_on_c, 1, 73, 127
2, 219033, Note_off_c, 1, 73, 127
2, 219033, Note_off_c, 1, 49, 127
2, 219035, Note_on_c, 8, 56, 127
2, 219035, Note_on_c, 0, 72, 127
2, 219148, Note_off_c, 0, 72, 127
2, 219150, Note_on_c, 1, 73, 127
2, 219263, Note_off_c, 1, 73, 127
2, 219263, Note_off_c, 8, 56, 127
2, 219265, Note_on_c, 5, 53, 127
2, 219265, Note_on_c, 12, 83, 127
2, 219493, Note_off_c, 5, 53, 127
2, 219495, Note_on_c, 8, 56, 127
2, 219648, Note_off_c, 12, 83, 127
2, 219723, Note_off_c, 8, 56, 127
2, 219725, Note_on_c, 6, 54, 127
2, 219725, Note_on_c, 2, 74, 127
2, 219838, Note_off_c, 2, 74, 127
2, 219840, Note_on_c, 1, 73, 127
2, 219953, Note_off_c, 1, 73, 127
2, 219953, Note_off_c, 6, 54, 127
2, 219955, Note_on_c, 10, 57, 127
2, 219955, Note_on_c, 0, 72, 127
2, 220068, Note_off_c, 0, 72, 127
2, 220070, Note_on_c, 1, 73, 127
2, 220183, Note_off_c, 1, 73, 127
2, 220183, Note_off_c, 10, 57, 127
2, 220185, Note_on_c, 4, 52, 127
2, 220185, Note_on_c, 2, 74, 127
2, 220298, Note_off_c, 2, 74, 127
2, 220300, Note_on_c, 1, 73, 127
2, 220413, Note_off_c, 1, 73, 127
2, 220413, Note_off_c, 4, 52, 127
2, 220415, Note_on_c, 8, 56, 127
2, 220415, Note_on_c, 0, 72, 127
2, 220528, Note_off_c, 0, 72, 127
2, 220530, Note_on_c, 1, 73, 127
2, 220643, Note_off_c, 1, 73, 127
2, 220643, Note_off_c, 8, 56, 127
2, 220645, Note_on_c, 3, 51, 127
2, 220645, Note_on_c, 10, 81, 127
2, 220873, Note_off_c, 3, 51, 127
2, 220875, Note_on_c, 6, 54, 127
2, 221028, Note_off_c, 10, 81, 127
2, 221103, Note_off_c, 6, 54, 127
2, 221106, Note_on_c, 4, 52, 127
2, 221106, Note_on_c, 8, 68, 127
2, 221334, Note_off_c, 8, 68, 127
2, 221334, Note_off_c, 4, 52, 127
2, 221336, Note_on_c, 3, 51, 127
2, 221336, Note_on_c, 11, 70, 127
2, 221449, Note_off_c, 11, 70, 127
2, 221451, Note_on_c, 0, 72, 127
2, 221564, Note_off_c, 0, 72, 127
2, 221564, Note_off_c, 3, 51, 127
2, 221566, Note_on_c, 4, 52, 127
2, 221566, Note_on_c, 1, 73, 127
2, 221794, Note_off_c, 1, 73, 127
2, 221794, Note_off_c, 4, 52, 127
2, 221796, Note_on_c, 6, 54, 127
2, 221796, Note_on_c, 3, 75, 127
2, 221909, Note_off_c, 3, 75, 127
2, 221911, Note_on_c, 4, 76, 127
2, 222024, Note_off_c, 4, 76, 127
2, 222024, Note_off_c, 6, 54, 127
2, 222026, Note_on_c, 8, 56, 127
2, 222026, Note_on_c, 3, 75, 127
2, 222254, Note_off_c, 3, 75, 127
2, 222254, Note_off_c, 8, 56, 127
2, 222256, Note_on_c, 8, 44, 127
2, 222256, Note_on_c, 1, 73, 127
2, 222369, Note_off_c, 1, 73, 127
2, 222371, Note_on_c, 0, 72, 127
2, 222484, Note_off_c, 0, 72, 127
2, 222484, Note_off_c, 8, 44, 127
2, 222486, Note_on_c, 1, 49, 127
2, 222486, Note_on_c, 1, 73, 127
2, 222599, Note_off_c, 1, 73, 127
2, 222601, Note_on_c, 0, 72, 127
2, 222714, Note_off_c, 0, 72, 127
2, 222714, Note_off_c, 1, 49, 127
2, 222716, Note_on_c, 8, 44, 127
2, 222716, Note_on_c, 1, 73, 127
2, 222944, Note_off_c, 1, 73, 127
2, 222944, Note_off_c, 8, 44, 127
2, 222946, Note_on_c, 1, 37, 127
2, 222946, Note_on_c, 1, 73, 127
2, 223174, Note_off_c, 1, 37, 127
2, 223176, Note_on_c, 8, 44, 127
2, 223404, Note_off_c, 8, 44, 127
2, 223406, Note_on_c, 1, 49, 127
2, 223616, Note_off_c, 1, 73, 127
2, 223632, Note_off_c, 1, 49, 127
2, 223634, Note_on_c, 3, 51, 127
2, 223862, Note_off_c, 3, 51, 127
2, 223864, Note_on_c, 4, 52, 127
2, 223864, Note_on_c, 8, 68, 127
2, 223977, Note_off_c, 8, 68, 127
2, 223979, Note_on_c, 10, 69, 127
2, 224092, Note_off_c, 10, 69, 127
2, 224092, Note_off_c, 4, 52, 127
2, 224094, Note_on_c, 12, 47, 127
2, 224094, Note_on_c, 12, 71, 127
2, 224322, Note_off_c, 12, 71, 127
2, 224322, Note_off_c, 12, 47, 127
2, 224324, Note_on_c, 4, 40, 127
2, 224324, Note_on_c, 10, 69, 127
2, 224552, Note_off_c, 4, 40, 127
2, 224555, Note_on_c, 4, 52, 127
2, 224782, Note_off_c, 10, 69, 127
2, 224783, Note_off_c, 4, 52, 127
2, 224785, Note_on_c, 2, 50, 127
2, 224785, Note_on_c, 8, 68, 127
2, 225013, Note_off_c, 2, 50, 127
2, 225015, Note_on_c, 4, 52, 127
2, 225215, Note_off_c, 8, 68, 127
2, 225241, Note_off_c, 4, 52, 127
2, 225243, Note_on_c, 10, 45, 127
2, 225243, Note_on_c, 2, 74, 127
2, 225471, Note_off_c, 2, 74, 127
2, 225471, Note_off_c, 10, 45, 127
2, 225473, Note_on_c, 10, 57, 127
2, 225473, Note_on_c, 12, 71, 127
2, 225701, Note_off_c, 12, 71, 127
2, 225701, Note_off_c, 10, 57, 127
2, 225703, Note_on_c, 4, 52, 127
2, 225703, Note_on_c, 1, 73, 127
2, 225931, Note_off_c, 4, 52, 127
2, 225933, Note_on_c, 1, 49, 127
2, 226161, Note_off_c, 1, 49, 127
2, 226163, Note_on_c, 4, 52, 127
2, 226373, Note_off_c, 1, 73, 127
2, 226389, Note_off_c, 4, 52, 127
2, 226392, Note_on_c, 7, 55, 127
2, 226620, Note_off_c, 7, 55, 127
2, 226622, Note_on_c, 6, 54, 127
2, 226622, Note_on_c, 11, 70, 127
2, 226850, Note_off_c, 11, 70, 127
2, 226850, Note_off_c, 6, 54, 127
2, 226852, Note_on_c, 1, 49, 127
2, 226852, Note_on_c, 12, 71, 127
2, 226965, Note_off_c, 12, 71, 127
2, 226967, Note_on_c, 1, 73, 127
2, 227080, Note_off_c, 1, 73, 127
2, 227080, Note_off_c, 1, 49, 127
2, 227082, Note_on_c, 6, 42, 127
2, 227082, Note_on_c, 12, 71, 127
2, 227310, Note_off_c, 12, 71, 127
2, 227310, Note_off_c, 6, 42, 127
2, 227312, Note_on_c, 6, 54, 127
2, 227312, Note_on_c, 11, 70, 127
2, 227540, Note_off_c, 11, 70, 127
2, 227540, Note_off_c, 6, 54, 127
2, 227542, Note_on_c, 5, 53, 127
2, 227542, Note_on_c, 8, 68, 127
2, 227770, Note_off_c, 8, 68, 127
2, 227770, Note_off_c, 5, 53, 127
2, 227772, Note_on_c, 6, 54, 127
2, 227772, Note_on_c, 6, 66, 127
2, 228000, Note_off_c, 6, 66, 127
2, 228000, Note_off_c, 6, 54, 127
2, 228002, Note_on_c, 12, 47, 127
2, 228002, Note_on_c, 4, 76, 127
2, 228115, Note_off_c, 4, 76, 127
2, 228117, Note_on_c, 3, 75, 127
2, 228230, Note_off_c, 3, 75, 127
2, 228230, Note_off_c, 12, 47, 127
2, 228232, Note_on_c, 12, 59, 127
2, 228232, Note_on_c, 1, 73, 127
2, 228345, Note_off_c, 1, 73, 127
2, 228347, Note_on_c, 4, 76, 127
2, 228460, Note_off_c, 4, 76, 127
2, 228460, Note_off_c, 12, 59, 127
2, 228462, Note_on_c, 6, 54, 127
2, 228462, Note_on_c, 3, 75, 127
2, 228690, Note_off_c, 6, 54, 127
2, 228692, Note_on_c, 3, 51, 127
2, 228816, Note_off_c, 3, 75, 127
2, 228920, Note_off_c, 3, 51, 127
2, 228922, Note_on_c, 6, 54, 127
2, 228922, Note_on_c, 12, 71, 127
2, 229150, Note_off_c, 6, 54, 127
2, 229152, Note_on_c, 10, 57, 127
2, 229380, Note_off_c, 10, 57, 127
2, 229382, Note_on_c, 8, 56, 127
2, 229495, Note_off_c, 12, 71, 127
2, 229497, Note_on_c, 1, 73, 127
2, 229610, Note_off_c, 1, 73, 127
2, 229610, Note_off_c, 8, 56, 127
2, 229612, Note_on_c, 12, 47, 127
2, 229612, Note_on_c, 3, 75, 127
2, 229725, Note_off_c, 3, 75, 127
2, 229727, Note_on_c, 4, 76, 127
2, 229840, Note_off_c, 4, 76, 127
2, 229840, Note_off_c, 12, 47, 127
2, 229842, Note_on_c, 10, 57, 127
2, 229842, Note_on_c, 6, 78, 127
2, 229955, Note_off_c, 6, 78, 127
2, 229957, Note_on_c, 4, 76, 127
2, 230070, Note_off_c, 4, 76, 127
2, 230070, Note_off_c, 10, 57, 127
2, 230072, Note_on_c, 1, 49, 127
2, 230072, Note_on_c, 3, 75, 127
2, 230185, Note_off_c, 3, 75, 127
2, 230187, Note_on_c, 4, 76, 127
2, 230300, Note_off_c, 4, 76, 127
2, 230300, Note_off_c, 1, 49, 127
2, 230302, Note_on_c, 12, 59, 127
2, 230302, Note_on_c, 10, 69, 127
2, 230530, Note_off_c, 12, 59, 127
2, 230532, Note_on_c, 3, 51, 127
2, 230760, Note_off_c, 3, 51, 127
2, 230762, Note_on_c, 1, 61, 127
2, 230828, Note_off_c, 10, 69, 127
2, 230877, Note_on_c, 1, 73, 127
2, 230990, Note_off_c, 1, 73, 127
2, 230990, Note_off_c, 1, 61, 127
2, 230992, Note_on_c, 4, 52, 127
2, 230992, Note_on_c, 3, 75, 127
2, 231105, Note_off_c, 3, 75, 127
2, 231107, Note_on_c, 4, 76, 127
2, 231220, Note_off_c, 4, 76, 127
2, 231220, Note_off_c, 4, 52, 127
2, 231222, Note_on_c, 3, 63, 127
2, 231222, Note_on_c, 6, 78, 127
2, 231335, Note_off_c, 6, 78, 127
2, 231337, Note_on_c, 4, 76, 127
2, 231450, Note_off_c, 4, 76, 127
2, 231450, Note_off_c, 3, 63, 127
2, 231452, Note_on_c, 6, 54, 127
2, 231452, Note_on_c, 3, 75, 127
2, 231565, Note_off_c, 3, 75, 127
2, 231567, Note_on_c, 4, 76, 127
2, 231680, Note_off_c, 4, 76, 127
2, 231680, Note_off_c, 6, 54, 127
2, 231683, Note_on_c, 4, 64, 127
2, 231683, Note_on_c, 8, 68, 127
2, 231911, Note_off_c, 4, 64, 127
2, 231913, Note_on_c, 3, 63, 127
2, 232141, Note_off_c, 3, 63, 127
2, 232143, Note_on_c, 1, 61, 127
2, 232303, Note_off_c, 8, 68, 127
2, 232374, Note_off_c, 1, 61, 127
2, 232376, Note_on_c, 11, 70, 127
2, 232376, Note_on_c, 12, 59, 127
2, 232491, Note_off_c, 11, 70, 127
2, 232496, Note_on_c, 12, 71, 127
2, 232609, Note_off_c, 12, 59, 127
2, 232611, Note_off_c, 12, 71, 127
2, 232612, Note_on_c, 11, 58, 127
2, 232612, Note_on_c, 1, 73, 127
2, 232730, Note_off_c, 1, 73, 127
2, 232736, Note_on_c, 12, 71, 127
2, 232850, Note_off_c, 11, 58, 127
2, 232852, Note_off_c, 12, 71, 127
2, 232854, Note_on_c, 6, 54, 127
2, 232854, Note_on_c, 11, 70, 127
2, 232972, Note_off_c, 11, 70, 127
2, 232979, Note_on_c, 12, 71, 127
2, 233092, Note_off_c, 6, 54, 127
2, 233097, Note_off_c, 12, 71, 127
2, 233098, Note_on_c, 6, 66, 127
2, 233098, Note_on_c, 12, 59, 127
2, 233339, Note_off_c, 12, 59, 127
2, 233339, Note_off_c, 6, 66, 127
2, 233346, Note_on_c, 3, 75, 127
2, 233346, Note_on_c, 12, 47, 127
2, 233587, Note_off_c, 12, 47, 127
2, 233587, Note_off_c, 3, 75, 127
2, 233597, Note_on_c, 3, 75, 127
2, 233597, Note_on_c, 4, 52, 127
2, 233721, Note_off_c, 3, 75, 127
2, 233733, Note_on_c, 4, 76, 127
2, 233852, Note_off_c, 4, 52, 127
2, 233857, Note_off_c, 4, 76, 127
2, 233863, Note_on_c, 6, 78, 127
2, 233863, Note_on_c, 12, 47, 127
2, 233987, Note_off_c, 6, 78, 127
2, 233999, Note_on_c, 3, 75, 127
2, 234118, Note_off_c, 12, 47, 127
2, 234123, Note_off_c, 3, 75, 127
2, 234130, Note_on_c, 3, 75, 127
2, 234130, Note_on_c, 4, 40, 127
2, 234385, Note_off_c, 4, 40, 127
2, 234385, Note_off_c, 3, 75, 127
2, 234415, Note_on_c, 4, 76, 127
2, 234415, Note_on_c, 12, 47, 127
2, 234555, Note_off_c, 4, 76, 127
2, 234558, Note_on_c, 3, 75, 127
2, 234730, Note_off_c, 3, 75, 127
2, 234742, Note_off_c, 12, 47, 127
2, 234750, Note_on_c, 4, 52, 127
2, 234750, Note_on_c, 4, 76, 127
2, 237150, Note_off_c, 4, 76, 127
2, 237150, Note_off_c, 4, 52, 127
2, 237899, Note_on_c, 8, 68, 127
2, 238044, Note_off_c, 8, 68, 127
2, 238046, Note_on_c, 10, 69, 127
2, 238191, Note_off_c, 10, 69, 127
2, 238194, Note_on_c, 12, 71, 127
2, 238487, Note_off_c, 12, 71, 127
2, 238488, Note_on_c, 4, 52, 127
2, 238488, Note_on_c, 8, 68, 127
2, 238633, Note_off_c, 8, 68, 127
2, 238633, Note_off_c, 4, 52, 127
2, 238636, Note_on_c, 6, 54, 127
2, 238636, Note_on_c, 12, 71, 127
2, 238781, Note_off_c, 12, 71, 127
2, 238781, Note_off_c, 6, 54, 127
2, 238783, Note_on_c, 8, 56, 127
2, 238783, Note_on_c, 4, 76, 127
2, 238928, Note_off_c, 8, 56, 127
2, 238931, Note_on_c, 6, 54, 127
2, 239076, Note_off_c, 6, 54, 127
2, 239076, Note_off_c, 4, 76, 127
2, 239078, Note_on_c, 8, 56, 127
2, 239078, Note_on_c, 12, 71, 127
2, 239223, Note_off_c, 8, 56, 127
2, 239225, Note_on_c, 4, 52, 127
2, 239370, Note_off_c, 4, 52, 127
2, 239371, Note_off_c, 12, 71, 127
2, 239373, Note_on_c, 10, 57, 127
2, 239373, Note_on_c, 6, 78, 127
2, 239518, Note_off_c, 10, 57, 127
2, 239520, Note_on_c, 8, 56, 127
2, 239665, Note_off_c, 8, 56, 127
2, 239666, Note_off_c, 6, 78, 127
2, 239668, Note_on_c, 10, 57, 127
2, 239668, Note_on_c, 12, 71, 127
2, 239813, Note_off_c, 10, 57, 127
2, 239815, Note_on_c, 4, 52, 127
2, 239960, Note_off_c, 4, 52, 127
2, 239961, Note_off_c, 12, 71, 127
2, 239963, Note_on_c, 12, 59, 127
2, 239963, Note_on_c, 8, 80, 127
2, 240108, Note_off_c, 12, 59, 127
2, 240110, Note_on_c, 10, 57, 127
2, 240255, Note_off_c, 10, 57, 127
2, 240256, Note_off_c, 8, 80, 127
2, 240257, Note_on_c, 12, 59, 127
2, 240257, Note_on_c, 12, 71, 127
2, 240402, Note_off_c, 12, 59, 127
2, 240405, Note_on_c, 4, 52, 127
2, 240550, Note_off_c, 4, 52, 127
2, 240550, Note_off_c, 12, 71, 127
2, 240552, Note_on_c, 1, 61, 127
2, 240552, Note_on_c, 10, 81, 127
2, 240697, Note_off_c, 1, 61, 127
2, 240700, Note_on_c, 12, 59, 127
2, 240845, Note_off_c, 12, 59, 127
2, 240845, Note_off_c, 10, 81, 127
2, 240847, Note_on_c, 1, 61, 127
2, 240847, Note_on_c, 8, 80, 127
2, 240992, Note_off_c, 8, 80, 127
2, 240992, Note_off_c, 1, 61, 127
2, 240995, Note_on_c, 4, 52, 127
2, 240995, Note_on_c, 10, 81, 127
2, 241140, Note_off_c, 10, 81, 127
2, 241140, Note_off_c, 4, 52, 127
2, 241142, Note_on_c, 3, 63, 127
2, 241142, Note_on_c, 12, 83, 127
2, 241287, Note_off_c, 12, 83, 127
2, 241287, Note_off_c, 3, 63, 127
2, 241289, Note_on_c, 1, 61, 127
2, 241289, Note_on_c, 10, 81, 127
2, 241434, Note_off_c, 10, 81, 127
2, 241434, Note_off_c, 1, 61, 127
2, 241437, Note_on_c, 3, 63, 127
2, 241437, Note_on_c, 8, 80, 127
2, 241582, Note_off_c, 8, 80, 127
2, 241582, Note_off_c, 3, 63, 127
2, 241584, Note_on_c, 4, 52, 127
2, 241584, Note_on_c, 6, 78, 127
2, 241729, Note_off_c, 6, 78, 127
2, 241729, Note_off_c, 4, 52, 127
2, 241732, Note_on_c, 4, 64, 127
2, 241732, Note_on_c, 10, 81, 127
2, 241877, Note_off_c, 10, 81, 127
2, 241879, Note_on_c, 8, 80, 127
2, 242024, Note_off_c, 8, 80, 127
2, 242025, Note_off_c, 4, 64, 127
2, 242026, Note_on_c, 12, 59, 127
2, 242026, Note_on_c, 6, 78, 127
2, 242171, Note_off_c, 6, 78, 127
2, 242174, Note_on_c, 8, 80, 127
2, 242319, Note_off_c, 8, 80, 127
2, 242319, Note_off_c, 12, 59, 127
2, 242321, Note_on_c, 8, 56, 127
2, 242321, Note_on_c, 4, 76, 127
2, 242466, Note_off_c, 4, 76, 127
2, 242469, Note_on_c, 8, 80, 127
2, 242614, Note_off_c, 8, 80, 127
2, 242614, Note_off_c, 8, 56, 127
2, 242616, Note_on_c, 0, 60, 127
2, 242616, Note_on_c, 6, 78, 127
2, 242761, Note_off_c, 6, 78, 127
2, 242764, Note_on_c, 8, 80, 127
2, 242893, Note_off_c, 0, 60, 127
2, 242909, Note_off_c, 8, 80, 127
2, 242911, Note_on_c, 1, 61, 127
2, 242911, Note_on_c, 4, 76, 127
2, 243056, Note_off_c, 4, 76, 127
2, 243058, Note_on_c, 8, 80, 127
2, 243203, Note_off_c, 8, 80, 127
2, 243204, Note_off_c, 1, 61, 127
2, 243206, Note_on_c, 8, 56, 127
2, 243206, Note_on_c, 3, 75, 127
2, 243351, Note_off_c, 3, 75, 127
2, 243353, Note_on_c, 8, 80, 127
2, 243466, Note_off_c, 8, 56, 127
2, 243498, Note_off_c, 8, 80, 127
2, 243501, Note_on_c, 3, 63, 127
2, 243501, Note_on_c, 1, 73, 127
2, 243646, Note_off_c, 1, 73, 127
2, 243648, Note_on_c, 8, 80, 127
2, 243793, Note_off_c, 8, 80, 127
2, 243794, Note_off_c, 3, 63, 127
2, 243795, Note_on_c, 8, 56, 127
2, 243795, Note_on_c, 0, 72, 127
2, 243940, Note_off_c, 0, 72, 127
2, 243943, Note_on_c, 8, 80, 127
2, 244055, Note_off_c, 8, 56, 127
2, 244088, Note_off_c, 8, 80, 127
2, 244090, Note_on_c, 4, 64, 127
2, 244090, Note_on_c, 1, 73, 127
2, 244235, Note_off_c, 1, 73, 127
2, 244235, Note_off_c, 4, 64, 127
2, 244238, Note_on_c, 3, 63, 127
2, 244238, Note_on_c, 3, 75, 127
2, 244383, Note_off_c, 3, 75, 127
2, 244383, Note_off_c, 3, 63, 127
2, 244385, Note_on_c, 1, 61, 127
2, 244385, Note_on_c, 4, 76, 127
2, 244530, Note_off_c, 4, 76, 127
2, 244530, Note_off_c, 1, 61, 127
2, 244533, Note_on_c, 3, 63, 127
2, 244533, Note_on_c, 6, 78, 127
2, 244678, Note_off_c, 6, 78, 127
2, 244678, Note_off_c, 3, 63, 127
2, 244680, Note_on_c, 4, 64, 127
2, 244680, Note_on_c, 8, 80, 127
2, 244825, Note_off_c, 8, 80, 127
2, 244827, Note_on_c, 6, 78, 127
2, 244972, Note_off_c, 6, 78, 127
2, 244973, Note_off_c, 4, 64, 127
2, 244975, Note_on_c, 11, 58, 127
2, 244975, Note_on_c, 4, 76, 127
2, 245120, Note_off_c, 4, 76, 127
2, 245122, Note_on_c, 6, 78, 127
2, 245267, Note_off_c, 6, 78, 127
2, 245268, Note_off_c, 11, 58, 127
2, 245270, Note_on_c, 12, 59, 127
2, 245270, Note_on_c, 3, 75, 127
2, 245415, Note_off_c, 3, 75, 127
2, 245417, Note_on_c, 6, 78, 127
2, 245562, Note_off_c, 6, 78, 127
2, 245563, Note_off_c, 12, 59, 127
2, 245565, Note_on_c, 6, 54, 127
2, 245565, Note_on_c, 1, 73, 127
2, 245710, Note_off_c, 1, 73, 127
2, 245712, Note_on_c, 6, 78, 127
2, 245825, Note_off_c, 6, 54, 127
2, 245857, Note_off_c, 6, 78, 127
2, 245859, Note_on_c, 1, 61, 127
2, 245859, Note_on_c, 12, 71, 127
2, 246004, Note_off_c, 12, 71, 127
2, 246007, Note_on_c, 6, 78, 127
2, 246152, Note_off_c, 6, 78, 127
2, 246152, Note_off_c, 1, 61, 127
2, 246154, Note_on_c, 6, 54, 127
2, 246154, Note_on_c, 11, 70, 127
2, 246299, Note_off_c, 11, 70, 127
2, 246302, Note_on_c, 6, 78, 127
2, 246414, Note_off_c, 6, 54, 127
2, 246447, Note_off_c, 6, 78, 127
2, 246449, Note_on_c, 3, 63, 127
2, 246449, Note_on_c, 12, 71, 127
2, 246594, Note_off_c, 12, 71, 127
2, 246594, Note_off_c, 3, 63, 127
2, 246596, Note_on_c, 1, 61, 127
2, 246596, Note_on_c, 1, 73, 127
2, 246741, Note_off_c, 1, 73, 127
2, 246741, Note_off_c, 1, 61, 127
2, 246744, Note_on_c, 12, 59, 127
2, 246744, Note_on_c, 3, 75, 127
2, 246889, Note_off_c, 3, 75, 127
2, 246889, Note_off_c, 12, 59, 127
2, 246891, Note_on_c, 1, 61, 127
2, 246891, Note_on_c, 4, 76, 127
2, 247036, Note_off_c, 4, 76, 127
2, 247036, Note_off_c, 1, 61, 127
2, 247039, Note_on_c, 3, 63, 127
2, 247039, Note_on_c, 6, 78, 127
2, 247184, Note_off_c, 6, 78, 127
2, 247186, Note_on_c, 8, 80, 127
2, 247331, Note_off_c, 8, 80, 127
2, 247332, Note_off_c, 3, 63, 127
2, 247334, Note_on_c, 8, 56, 127
2, 247334, Note_on_c, 11, 82, 127
2, 247479, Note_off_c, 11, 82, 127
2, 247481, Note_on_c, 12, 83, 127
2, 247626, Note_off_c, 12, 83, 127
2, 247627, Note_off_c, 8, 56, 127
2, 247628, Note_on_c, 1, 61, 127
2, 247628, Note_on_c, 4, 76, 127
2, 247773, Note_off_c, 4, 76, 127
2, 247773, Note_off_c, 1, 61, 127
2, 247776, Note_on_c, 12, 59, 127
2, 247776, Note_on_c, 6, 78, 127
2, 247921, Note_off_c, 6, 78, 127
2, 247921, Note_off_c, 12, 59, 127
2, 247923, Note_on_c, 1, 61, 127
2, 247923, Note_on_c, 3, 75, 127
2, 248068, Note_off_c, 3, 75, 127
2, 248068, Note_off_c, 1, 61, 127
2, 248071, Note_on_c, 12, 59, 127
2, 248071, Note_on_c, 4, 76, 127
2, 248216, Note_off_c, 4, 76, 127
2, 248216, Note_off_c, 12, 59, 127
2, 248218, Note_on_c, 11, 58, 127
2, 248218, Note_on_c, 6, 78, 127
2, 248363, Note_off_c, 6, 78, 127
2, 248363, Note_off_c, 11, 58, 127
2, 248366, Note_on_c, 12, 59, 127
2, 248366, Note_on_c, 4, 76, 127
2, 248511, Note_off_c, 4, 76, 127
2, 248511, Note_off_c, 12, 59, 127
2, 248513, Note_on_c, 8, 56, 127
2, 248513, Note_on_c, 6, 78, 127
2, 248658, Note_off_c, 6, 78, 127
2, 248658, Note_off_c, 8, 56, 127
2, 248660, Note_on_c, 11, 58, 127
2, 248660, Note_on_c, 4, 76, 127
2, 248805, Note_off_c, 4, 76, 127
2, 248805, Note_off_c, 11, 58, 127
2, 248808, Note_on_c, 12, 59, 127
2, 248808, Note_on_c, 3, 75, 127
2, 248953, Note_off_c, 3, 75, 127
2, 248953, Note_off_c, 12, 59, 127
2, 248955, Note_on_c, 11, 58, 127
2, 248955, Note_on_c, 4, 76, 127
2, 249100, Note_off_c, 4, 76, 127
2, 249100, Note_off_c, 11, 58, 127
2, 249103, Note_on_c, 12, 59, 127
2, 249103, Note_on_c, 1, 73, 127
2, 249248, Note_off_c, 1, 73, 127
2, 249248, Note_off_c, 12, 59, 127
2, 249250, Note_on_c, 11, 58, 127
2, 249250, Note_on_c, 3, 75, 127
2, 249395, Note_off_c, 3, 75, 127
2, 249395, Note_off_c, 11, 58, 127
2, 249397, Note_on_c, 8, 56, 127
2, 249397, Note_on_c, 4, 76, 127
2, 249542, Note_off_c, 4, 76, 127
2, 249542, Note_off_c, 8, 56, 127
2, 249545, Note_on_c, 6, 54, 127
2, 249545, Note_on_c, 3, 75, 127
2, 249690, Note_off_c, 3, 75, 127
2, 249690, Note_off_c, 6, 54, 127
2, 249692, Note_on_c, 8, 56, 127
2, 249692, Note_on_c, 4, 76, 127
2, 249837, Note_off_c, 4, 76, 127
2, 249837, Note_off_c, 8, 56, 127
2, 249840, Note_on_c, 6, 54, 127
2, 249840, Note_on_c, 3, 75, 127
2, 249985, Note_off_c, 3, 75, 127
2, 249985, Note_off_c, 6, 54, 127
2, 249987, Note_on_c, 4, 52, 127
2, 249987, Note_on_c, 1, 73, 127
2, 250132, Note_off_c, 1, 73, 127
2, 250132, Note_off_c, 4, 52, 127
2, 250135, Note_on_c, 3, 51, 127
2, 250135, Note_on_c, 3, 75, 127
2, 250280, Note_off_c, 3, 75, 127
2, 250280, Note_off_c, 3, 51, 127
2, 250282, Note_on_c, 4, 52, 127
2, 250282, Note_on_c, 12, 71, 127
2, 250427, Note_off_c, 12, 71, 127
2, 250427, Note_off_c, 4, 52, 127
2, 250429, Note_on_c, 1, 49, 127
2, 250429, Note_on_c, 1, 73, 127
2, 250574, Note_off_c, 1, 73, 127
2, 250574, Note_off_c, 1, 49, 127
2, 250577, Note_on_c, 6, 54, 127
2, 250577, Note_on_c, 3, 75, 127
2, 250722, Note_off_c, 3, 75, 127
2, 250724, Note_on_c, 1, 73, 127
2, 250869, Note_off_c, 1, 73, 127
2, 250870, Note_off_c, 6, 54, 127
2, 250872, Note_on_c, 6, 42, 127
2, 250872, Note_on_c, 3, 75, 127
2, 251017, Note_off_c, 3, 75, 127
2, 251019, Note_on_c, 1, 73, 127
2, 251164, Note_off_c, 1, 73, 127
2, 251165, Note_off_c, 6, 42, 127
2, 251166, Note_on_c, 12, 47, 127
2, 251166, Note_on_c, 12, 71, 127
2, 251750, Note_off_c, 12, 71, 127
2, 251904, Note_off_c, 12, 47, 127
2, 252053, Note_on_c, 3, 51, 127
2, 252053, Note_on_c, 12, 83, 127
2, 252198, Note_off_c, 3, 51, 127
2, 252200, Note_on_c, 4, 52, 127
2, 252345, Note_off_c, 4, 52, 127
2, 252346, Note_off_c, 12, 83, 127
2, 252347, Note_on_c, 6, 54, 127
2, 252347, Note_on_c, 3, 75, 127
2, 252492, Note_off_c, 3, 75, 127
2, 252495, Note_on_c, 1, 73, 127
2, 252640, Note_off_c, 1, 73, 127
2, 252640, Note_off_c, 6, 54, 127
2, 252642, Note_on_c, 3, 51, 127
2, 252642, Note_on_c, 12, 71, 127
2, 252787, Note_off_c, 12, 71, 127
2, 252787, Note_off_c, 3, 51, 127
2, 252790, Note_on_c, 6, 54, 127
2, 252790, Note_on_c, 1, 73, 127
2, 252935, Note_off_c, 1, 73, 127
2, 252935, Note_off_c, 6, 54, 127
2, 252937, Note_on_c, 12, 59, 127
2, 252937, Note_on_c, 3, 75, 127
2, 253082, Note_off_c, 3, 75, 127
2, 253085, Note_on_c, 1, 73, 127
2, 253230, Note_off_c, 1, 73, 127
2, 253230, Note_off_c, 12, 59, 127
2, 253232, Note_on_c, 6, 54, 127
2, 253232, Note_on_c, 3, 75, 127
2, 253377, Note_off_c, 3, 75, 127
2, 253379, Note_on_c, 12, 71, 127
2, 253492, Note_off_c, 6, 54, 127
2, 253524, Note_off_c, 12, 71, 127
2, 253527, Note_on_c, 1, 61, 127
2, 253527, Note_on_c, 4, 76, 127
2, 253672, Note_off_c, 4, 76, 127
2, 253674, Note_on_c, 3, 75, 127
2, 253819, Note_off_c, 3, 75, 127
2, 253820, Note_off_c, 1, 61, 127
2, 253822, Note_on_c, 6, 54, 127
2, 253822, Note_on_c, 4, 76, 127
2, 253967, Note_off_c, 4, 76, 127
2, 253969, Note_on_c, 12, 71, 127
2, 254082, Note_off_c, 6, 54, 127
2, 254114, Note_off_c, 12, 71, 127
2, 254117, Note_on_c, 3, 63, 127
2, 254117, Note_on_c, 6, 78, 127
2, 254262, Note_off_c, 6, 78, 127
2, 254264, Note_on_c, 4, 76, 127
2, 254409, Note_off_c, 4, 76, 127
2, 254410, Note_off_c, 3, 63, 127
2, 254411, Note_on_c, 6, 54, 127
2, 254411, Note_on_c, 6, 78, 127
2, 254556, Note_off_c, 6, 78, 127
2, 254559, Note_on_c, 12, 71, 127
2, 254671, Note_off_c, 6, 54, 127
2, 254704, Note_off_c, 12, 71, 127
2, 254706, Note_on_c, 4, 64, 127
2, 254706, Note_on_c, 8, 80, 127
2, 254851, Note_off_c, 8, 80, 127
2, 254854, Note_on_c, 6, 78, 127
2, 254999, Note_off_c, 6, 78, 127
2, 254999, Note_off_c, 4, 64, 127
2, 255001, Note_on_c, 3, 63, 127
2, 255001, Note_on_c, 8, 80, 127
2, 255146, Note_off_c, 8, 80, 127
2, 255146, Note_off_c, 3, 63, 127
2, 255148, Note_on_c, 4, 64, 127
2, 255148, Note_on_c, 12, 71, 127
2, 255293, Note_off_c, 12, 71, 127
2, 255293, Note_off_c, 4, 64, 127
2, 255296, Note_on_c, 6, 66, 127
2, 255296, Note_on_c, 11, 82, 127
2, 255441, Note_off_c, 11, 82, 127
2, 255441, Note_off_c, 6, 66, 127
2, 255443, Note_on_c, 4, 64, 127
2, 255443, Note_on_c, 8, 80, 127
2, 255588, Note_off_c, 8, 80, 127
2, 255588, Note_off_c, 4, 64, 127
2, 255591, Note_on_c, 3, 63, 127
2, 255591, Note_on_c, 11, 82, 127
2, 255736, Note_off_c, 11, 82, 127
2, 255736, Note_off_c, 3, 63, 127
2, 255738, Note_on_c, 1, 61, 127
2, 255738, Note_on_c, 12, 71, 127
2, 255883, Note_off_c, 12, 71, 127
2, 255883, Note_off_c, 1, 61, 127
2, 255886, Note_on_c, 4, 64, 127
2, 255886, Note_on_c, 12, 83, 127
2, 256031, Note_off_c, 12, 83, 127
2, 256031, Note_off_c, 4, 64, 127
2, 256033, Note_on_c, 3, 63, 127
2, 256033, Note_on_c, 6, 78, 127
2, 256178, Note_off_c, 6, 78, 127
2, 256178, Note_off_c, 3, 63, 127
2, 256180, Note_on_c, 1, 61, 127
2, 256180, Note_on_c, 4, 76, 127
2, 256325, Note_off_c, 4, 76, 127
2, 256325, Note_off_c, 1, 61, 127
2, 256328, Note_on_c, 3, 63, 127
2, 256328, Note_on_c, 6, 78, 127
2, 256473, Note_off_c, 6, 78, 127
2, 256473, Note_off_c, 3, 63, 127
2, 256475, Note_on_c, 12, 59, 127
2, 256475, Note_on_c, 3, 75, 127
2, 256620, Note_off_c, 12, 59, 127
2, 256623, Note_on_c, 8, 68, 127
2, 256768, Note_off_c, 8, 68, 127
2, 256768, Note_off_c, 3, 75, 127
2, 256770, Note_on_c, 6, 66, 127
2, 256770, Note_on_c, 8, 80, 127
2, 256915, Note_off_c, 8, 80, 127
2, 256915, Note_off_c, 6, 66, 127
2, 256917, Note_on_c, 8, 68, 127
2, 256917, Note_on_c, 0, 72, 127
2, 257062, Note_off_c, 0, 72, 127
2, 257062, Note_off_c, 8, 68, 127
2, 257065, Note_on_c, 4, 64, 127
2, 257065, Note_on_c, 1, 73, 127
2, 257210, Note_off_c, 4, 64, 127
2, 257212, Note_on_c, 8, 68, 127
2, 257357, Note_off_c, 8, 68, 127
2, 257358, Note_off_c, 1, 73, 127
2, 257360, Note_on_c, 3, 63, 127
2, 257360, Note_on_c, 8, 80, 127
2, 257505, Note_off_c, 3, 63, 127
2, 257507, Note_on_c, 8, 68, 127
2, 257606, Note_off_c, 8, 80, 127
2, 257652, Note_off_c, 8, 68, 127
2, 257655, Note_on_c, 1, 61, 127
2, 257655, Note_on_c, 3, 75, 127
2, 257800, Note_off_c, 1, 61, 127
2, 257802, Note_on_c, 8, 68, 127
2, 257947, Note_off_c, 8, 68, 127
2, 257948, Note_off_c, 3, 75, 127
2, 257949, Note_on_c, 0, 60, 127
2, 257949, Note_on_c, 8, 80, 127
2, 258094, Note_off_c, 0, 60, 127
2, 258097, Note_on_c, 8, 68, 127
2, 258195, Note_off_c, 8, 80, 127
2, 258242, Note_off_c, 8, 68, 127
2, 258244, Note_on_c, 1, 61, 127
2, 258244, Note_on_c, 4, 76, 127
2, 258389, Note_off_c, 4, 76, 127
2, 258392, Note_on_c, 3, 75, 127
2, 258537, Note_off_c, 3, 75, 127
2, 258537, Note_off_c, 1, 61, 127
2, 258539, Note_on_c, 8, 68, 127
2, 258539, Note_on_c, 4, 76, 127
2, 258684, Note_off_c, 4, 76, 127
2, 258684, Note_off_c, 8, 68, 127
2, 258687, Note_on_c, 6, 66, 127
2, 258687, Note_on_c, 6, 78, 127
2, 258832, Note_off_c, 6, 78, 127
2, 258832, Note_off_c, 6, 66, 127
2, 258834, Note_on_c, 4, 64, 127
2, 258834, Note_on_c, 8, 80, 127
2, 258979, Note_off_c, 8, 80, 127
2, 258979, Note_off_c, 4, 64, 127
2, 258981, Note_on_c, 6, 66, 127
2, 258981, Note_on_c, 10, 81, 127
2, 259126, Note_off_c, 10, 81, 127
2, 259126, Note_off_c, 6, 66, 127
2, 259129, Note_on_c, 4, 64, 127
2, 259129, Note_on_c, 8, 80, 127
2, 259274, Note_off_c, 8, 80, 127
2, 259274, Note_off_c, 4, 64, 127
2, 259276, Note_on_c, 3, 63, 127
2, 259276, Note_on_c, 6, 78, 127
2, 259421, Note_off_c, 6, 78, 127
2, 259421, Note_off_c, 3, 63, 127
2, 259424, Note_on_c, 1, 61, 127
2, 259424, Note_on_c, 4, 76, 127
2, 259569, Note_off_c, 4, 76, 127
2, 259571, Note_on_c, 8, 80, 127
2, 259716, Note_off_c, 8, 80, 127
2, 259717, Note_off_c, 1, 61, 127
2, 259718, Note_on_c, 8, 56, 127
2, 259718, Note_on_c, 3, 75, 127
2, 259863, Note_off_c, 3, 75, 127
2, 259866, Note_on_c, 8, 80, 127
2, 259978, Note_off_c, 8, 56, 127
2, 260011, Note_off_c, 8, 80, 127
2, 260013, Note_on_c, 3, 63, 127
2, 260013, Note_on_c, 1, 73, 127
2, 260158, Note_off_c, 1, 73, 127
2, 260161, Note_on_c, 8, 80, 127
2, 260306, Note_off_c, 8, 80, 127
2, 260306, Note_off_c, 3, 63, 127
2, 260308, Note_on_c, 8, 56, 127
2, 260308, Note_on_c, 0, 72, 127
2, 260453, Note_off_c, 0, 72, 127
2, 260456, Note_on_c, 8, 80, 127
2, 260568, Note_off_c, 8, 56, 127
2, 260601, Note_off_c, 8, 80, 127
2, 260603, Note_on_c, 4, 64, 127
2, 260603, Note_on_c, 1, 73, 127
2, 260748, Note_off_c, 1, 73, 127
2, 260748, Note_off_c, 4, 64, 127
2, 260750, Note_on_c, 6, 66, 127
2, 260750, Note_on_c, 0, 72, 127
2, 260895, Note_off_c, 0, 72, 127
2, 260895, Note_off_c, 6, 66, 127
2, 260898, Note_on_c, 4, 64, 127
2, 260898, Note_on_c, 1, 73, 127
2, 261043, Note_off_c, 1, 73, 127
2, 261043, Note_off_c, 4, 64, 127
2, 261045, Note_on_c, 3, 63, 127
2, 261045, Note_on_c, 3, 75, 127
2, 261190, Note_off_c, 3, 75, 127
2, 261190, Note_off_c, 3, 63, 127
2, 261193, Note_on_c, 1, 61, 127
2, 261193, Note_on_c, 4, 76, 127
2, 261338, Note_off_c, 4, 76, 127
2, 261338, Note_off_c, 1, 61, 127
2, 261340, Note_on_c, 3, 63, 127
2, 261340, Note_on_c, 6, 78, 127
2, 261485, Note_off_c, 6, 78, 127
2, 261485, Note_off_c, 3, 63, 127
2, 261488, Note_on_c, 4, 64, 127
2, 261488, Note_on_c, 8, 80, 127
2, 261633, Note_off_c, 8, 80, 127
2, 261633, Note_off_c, 4, 64, 127
2, 261635, Note_on_c, 6, 66, 127
2, 261635, Note_on_c, 10, 81, 127
2, 261780, Note_off_c, 10, 81, 127
2, 261780, Note_off_c, 6, 66, 127
2, 261782, Note_on_c, 8, 68, 127
2, 261782, Note_on_c, 12, 83, 127
2, 261927, Note_off_c, 12, 83, 127
2, 261927, Note_off_c, 8, 68, 127
2, 261930, Note_on_c, 6, 66, 127
2, 261930, Note_on_c, 10, 81, 127
2, 262075, Note_off_c, 10, 81, 127
2, 262075, Note_off_c, 6, 66, 127
2, 262077, Note_on_c, 8, 68, 127
2, 262077, Note_on_c, 12, 83, 127
2, 262222, Note_off_c, 12, 83, 127
2, 262222, Note_off_c, 8, 68, 127
2, 262225, Note_on_c, 6, 66, 127
2, 262225, Note_on_c, 10, 81, 127
2, 262370, Note_off_c, 10, 81, 127
2, 262370, Note_off_c, 6, 66, 127
2, 262372, Note_on_c, 5, 65, 127
2, 262372, Note_on_c, 8, 80, 127
2, 262517, Note_off_c, 8, 80, 127
2, 262517, Note_off_c, 5, 65, 127
2, 262519, Note_on_c, 3, 63, 127
2, 262519, Note_on_c, 10, 81, 127
2, 262664, Note_off_c, 10, 81, 127
2, 262664, Note_off_c, 3, 63, 127
2, 262667, Note_on_c, 5, 65, 127
2, 262667, Note_on_c, 6, 78, 127
2, 262812, Note_off_c, 6, 78, 127
2, 262812, Note_off_c, 5, 65, 127
2, 262814, Note_on_c, 3, 63, 127
2, 262814, Note_on_c, 8, 80, 127
2, 262959, Note_off_c, 8, 80, 127
2, 262959, Note_off_c, 3, 63, 127
2, 262962, Note_on_c, 1, 61, 127
2, 262962, Note_on_c, 10, 81, 127
2, 263107, Note_off_c, 10, 81, 127
2, 263107, Note_off_c, 1, 61, 127
2, 263109, Note_on_c, 12, 59, 127
2, 263109, Note_on_c, 8, 80, 127
2, 263254, Note_off_c, 8, 80, 127
2, 263254, Note_off_c, 12, 59, 127
2, 263257, Note_on_c, 1, 61, 127
2, 263257, Note_on_c, 10, 81, 127
2, 263402, Note_off_c, 10, 81, 127
2, 263402, Note_off_c, 1, 61, 127
2, 263404, Note_on_c, 12, 59, 127
2, 263404, Note_on_c, 8, 80, 127
2, 263549, Note_off_c, 8, 80, 127
2, 263549, Note_off_c, 12, 59, 127
2, 263551, Note_on_c, 10, 57, 127
2, 263551, Note_on_c, 6, 78, 127
2, 263696, Note_off_c, 6, 78, 127
2, 263696, Note_off_c, 10, 57, 127
2, 263699, Note_on_c, 12, 59, 127
2, 263699, Note_on_c, 8, 80, 127
2, 263844, Note_off_c, 8, 80, 127
2, 263844, Note_off_c, 12, 59, 127
2, 263846, Note_on_c, 8, 56, 127
2, 263846, Note_on_c, 5, 77, 127
2, 263991, Note_off_c, 5, 77, 127
2, 263991, Note_off_c, 8, 56, 127
2, 263994, Note_on_c, 10, 57, 127
2, 263994, Note_on_c, 6, 78, 127
2, 264139, Note_off_c, 6, 78, 127
2, 264139, Note_off_c, 10, 57, 127
2, 264141, Note_on_c, 12, 59, 127
2, 264141, Note_on_c, 8, 80, 127
2, 264286, Note_off_c, 8, 80, 127
2, 264286, Note_off_c, 12, 59, 127
2, 264288, Note_on_c, 1, 61, 127
2, 264288, Note_on_c, 6, 78, 127
2, 264433, Note_off_c, 6, 78, 127
2, 264433, Note_off_c, 1, 61, 127
2, 264436, Note_on_c, 10, 57, 127
2, 264436, Note_on_c, 8, 80, 127
2, 264581, Note_off_c, 8, 80, 127
2, 264581, Note_off_c, 10, 57, 127
2, 264583, Note_on_c, 12, 59, 127
2, 264583, Note_on_c, 6, 78, 127
2, 264728, Note_off_c, 6, 78, 127
2, 264728, Note_off_c, 12, 59, 127
2, 264731, Note_on_c, 1, 61, 127
2, 264731, Note_on_c, 5, 77, 127
2, 264876, Note_off_c, 5, 77, 127
2, 264878, Note_on_c, 6, 78, 127
2, 265023, Note_off_c, 6, 78, 127
2, 265024, Note_off_c, 1, 61, 127
2, 265026, Note_on_c, 1, 49, 127
2, 265026, Note_on_c, 3, 75, 127
2, 265171, Note_off_c, 3, 75, 127
2, 265173, Note_on_c, 5, 77, 127
2, 265318, Note_off_c, 5, 77, 127
2, 265319, Note_off_c, 1, 49, 127
2, 265320, Note_on_c, 6, 54, 127
2, 265320, Note_on_c, 6, 78, 127
2, 265613, Note_off_c, 6, 54, 127
2, 265615, Note_on_c, 4, 52, 127
2, 265749, Note_off_c, 6, 78, 127
2, 265760, Note_off_c, 4, 52, 127
2, 265763, Note_on_c, 2, 50, 127
2, 265908, Note_off_c, 2, 50, 127
2, 265910, Note_on_c, 1, 49, 127
2, 266055, Note_off_c, 1, 49, 127
2, 266058, Note_on_c, 12, 47, 127
2, 266203, Note_off_c, 12, 47, 127
2, 266205, Note_on_c, 10, 45, 127
2, 266205, Note_on_c, 6, 66, 127
2, 266350, Note_off_c, 6, 66, 127
2, 266350, Note_off_c, 10, 45, 127
2, 266352, Note_on_c, 8, 44, 127
2, 266352, Note_on_c, 8, 68, 127
2, 266497, Note_off_c, 8, 68, 127
2, 266497, Note_off_c, 8, 44, 127
2, 266500, Note_on_c, 6, 42, 127
2, 266500, Note_on_c, 10, 69, 127
2, 266793, Note_off_c, 10, 69, 127
2, 266795, Note_on_c, 6, 66, 127
2, 266940, Note_off_c, 6, 66, 127
2, 266942, Note_on_c, 10, 69, 127
2, 267083, Note_off_c, 6, 42, 127
2, 267087, Note_off_c, 10, 69, 127
2, 267089, Note_on_c, 1, 73, 127
2, 267382, Note_off_c, 1, 73, 127
2, 267384, Note_on_c, 1, 61, 127
2, 267384, Note_on_c, 10, 69, 127
2, 267529, Note_off_c, 1, 61, 127
2, 267532, Note_on_c, 12, 59, 127
2, 267677, Note_off_c, 12, 59, 127
2, 267677, Note_off_c, 10, 69, 127
2, 267679, Note_on_c, 10, 57, 127
2, 267679, Note_on_c, 6, 78, 127
2, 267972, Note_off_c, 6, 78, 127
2, 267972, Note_off_c, 10, 57, 127
2, 267974, Note_on_c, 1, 61, 127
2, 267974, Note_on_c, 1, 73, 127
2, 268119, Note_off_c, 1, 61, 127
2, 268121, Note_on_c, 10, 57, 127
2, 268266, Note_off_c, 10, 57, 127
2, 268267, Note_off_c, 1, 73, 127
2, 268269, Note_on_c, 6, 54, 127
2, 268269, Note_on_c, 10, 81, 127
2, 268562, Note_off_c, 10, 81, 127
2, 268562, Note_off_c, 6, 54, 127
2, 268564, Note_on_c, 10, 57, 127
2, 268564, Note_on_c, 6, 78, 127
2, 268709, Note_off_c, 10, 57, 127
2, 268711, Note_on_c, 6, 54, 127
2, 268856, Note_off_c, 6, 54, 127
2, 268857, Note_off_c, 6, 78, 127
2, 268859, Note_on_c, 12, 59, 127
2, 268859, Note_on_c, 3, 75, 127
2, 269004, Note_off_c, 12, 59, 127
2, 269006, Note_on_c, 10, 57, 127
2, 269151, Note_off_c, 10, 57, 127
2, 269152, Note_off_c, 3, 75, 127
2, 269153, Note_on_c, 8, 56, 127
2, 269153, Note_on_c, 12, 71, 127
2, 269298, Note_off_c, 12, 71, 127
2, 269298, Note_off_c, 8, 56, 127
2, 269301, Note_on_c, 12, 59, 127
2, 269301, Note_on_c, 1, 73, 127
2, 269446, Note_off_c, 1, 73, 127
2, 269446, Note_off_c, 12, 59, 127
2, 269448, Note_on_c, 6, 54, 127
2, 269448, Note_on_c, 3, 75, 127
2, 269593, Note_off_c, 6, 54, 127
2, 269596, Note_on_c, 12, 59, 127
2, 269741, Note_off_c, 12, 59, 127
2, 269741, Note_off_c, 3, 75, 127
2, 269743, Note_on_c, 4, 52, 127
2, 269743, Note_on_c, 12, 71, 127
2, 269888, Note_off_c, 12, 71, 127
2, 269888, Note_off_c, 4, 52, 127
2, 269890, Note_on_c, 12, 59, 127
2, 269890, Note_on_c, 3, 75, 127
2, 270035, Note_off_c, 3, 75, 127
2, 270035, Note_off_c, 12, 59, 127
2, 270038, Note_on_c, 3, 51, 127
2, 270038, Note_on_c, 6, 78, 127
2, 270183, Note_off_c, 3, 51, 127
2, 270185, Note_on_c, 12, 59, 127
2, 270330, Note_off_c, 12, 59, 127
2, 270331, Note_off_c, 6, 78, 127
2, 270333, Note_on_c, 1, 49, 127
2, 270333, Note_on_c, 3, 75, 127
2, 270478, Note_off_c, 1, 49, 127
2, 270480, Note_on_c, 12, 59, 127
2, 270625, Note_off_c, 12, 59, 127
2, 270626, Note_off_c, 3, 75, 127
2, 270628, Note_on_c, 3, 51, 127
2, 270628, Note_on_c, 12, 83, 127
2, 270773, Note_off_c, 3, 51, 127
2, 270775, Note_on_c, 12, 59, 127
2, 270920, Note_off_c, 12, 59, 127
2, 270921, Note_off_c, 12, 83, 127
2, 270922, Note_on_c, 12, 47, 127
2, 270922, Note_on_c, 6, 78, 127
2, 271067, Note_off_c, 12, 47, 127
2, 271070, Note_on_c, 12, 59, 127
2, 271215, Note_off_c, 12, 59, 127
2, 271215, Note_off_c, 6, 78, 127
2, 271217, Note_on_c, 4, 52, 127
2, 271217, Note_on_c, 8, 80, 127
2, 271362, Note_off_c, 8, 80, 127
2, 271365, Note_on_c, 10, 81, 127
2, 271510, Note_off_c, 10, 81, 127
2, 271510, Note_off_c, 4, 52, 127
2, 271512, Note_on_c, 3, 63, 127
2, 271512, Note_on_c, 6, 78, 127
2, 271657, Note_off_c, 6, 78, 127
2, 271659, Note_on_c, 8, 80, 127
2, 271804, Note_off_c, 8, 80, 127
2, 271805, Note_off_c, 3, 63, 127
2, 271807, Note_on_c, 1, 61, 127
2, 271807, Note_on_c, 10, 81, 127
2, 271952, Note_off_c, 10, 81, 127
2, 271954, Note_on_c, 8, 80, 127
2, 272099, Note_off_c, 8, 80, 127
2, 272100, Note_off_c, 1, 61, 127
2, 272102, Note_on_c, 4, 52, 127
2, 272102, Note_on_c, 10, 81, 127
2, 272247, Note_off_c, 10, 81, 127
2, 272249, Note_on_c, 8, 80, 127
2, 272394, Note_off_c, 8, 80, 127
2, 272395, Note_off_c, 4, 52, 127
2, 272397, Note_on_c, 3, 51, 127
2, 272397, Note_on_c, 6, 78, 127
2, 272542, Note_off_c, 6, 78, 127
2, 272544, Note_on_c, 8, 80, 127
2, 272689, Note_off_c, 8, 80, 127
2, 272690, Note_off_c, 3, 51, 127
2, 272691, Note_on_c, 1, 61, 127
2, 272691, Note_on_c, 4, 76, 127
2, 272836, Note_off_c, 4, 76, 127
2, 272839, Note_on_c, 6, 78, 127
2, 272984, Note_off_c, 6, 78, 127
2, 272984, Note_off_c, 1, 61, 127
2, 272986, Note_on_c, 12, 59, 127
2, 272986, Note_on_c, 8, 80, 127
2, 273131, Note_off_c, 8, 80, 127
2, 273134, Note_on_c, 6, 78, 127
2, 273279, Note_off_c, 6, 78, 127
2, 273279, Note_off_c, 12, 59, 127
2, 273281, Note_on_c, 3, 51, 127
2, 273281, Note_on_c, 8, 80, 127
2, 273426, Note_off_c, 8, 80, 127
2, 273429, Note_on_c, 6, 78, 127
2, 273574, Note_off_c, 6, 78, 127
2, 273574, Note_off_c, 3, 51, 127
2, 273576, Note_on_c, 1, 49, 127
2, 273576, Note_on_c, 4, 76, 127
2, 273721, Note_off_c, 4, 76, 127
2, 273723, Note_on_c, 6, 78, 127
2, 273868, Note_off_c, 6, 78, 127
2, 273869, Note_off_c, 1, 49, 127
2, 273871, Note_on_c, 12, 59, 127
2, 273871, Note_on_c, 3, 75, 127
2, 274016, Note_off_c, 3, 75, 127
2, 274018, Note_on_c, 4, 76, 127
2, 274163, Note_off_c, 4, 76, 127
2, 274164, Note_off_c, 12, 59, 127
2, 274166, Note_on_c, 11, 58, 127
2, 274166, Note_on_c, 6, 78, 127
2, 274311, Note_off_c, 6, 78, 127
2, 274313, Note_on_c, 4, 76, 127
2, 274458, Note_off_c, 4, 76, 127
2, 274459, Note_off_c, 11, 58, 127
2, 274460, Note_on_c, 6, 54, 127
2, 274460, Note_on_c, 6, 78, 127
2, 274605, Note_off_c, 6, 78, 127
2, 274608, Note_on_c, 4, 76, 127
2, 274753, Note_off_c, 4, 76, 127
2, 274753, Note_off_c, 6, 54, 127
2, 274755, Note_on_c, 12, 59, 127
2, 274755, Note_on_c, 3, 75, 127
2, 274900, Note_off_c, 3, 75, 127
2, 274903, Note_on_c, 4, 76, 127
2, 275048, Note_off_c, 4, 76, 127
2, 275048, Note_off_c, 12, 59, 127
2, 275050, Note_on_c, 12, 47, 127
2, 275050, Note_on_c, 3, 75, 127
2, 275195, Note_off_c, 3, 75, 127
2, 275195, Note_off_c, 12, 47, 127
2, 275198, Note_on_c, 1, 49, 127
2, 275198, Note_on_c, 1, 73, 127
2, 275343, Note_off_c, 1, 73, 127
2, 275343, Note_off_c, 1, 49, 127
2, 275345, Note_on_c, 3, 51, 127
2, 275345, Note_on_c, 12, 71, 127
2, 275490, Note_off_c, 12, 71, 127
2, 275492, Note_on_c, 1, 73, 127
2, 275637, Note_off_c, 1, 73, 127
2, 275638, Note_off_c, 3, 51, 127
2, 275640, Note_on_c, 12, 47, 127
2, 275640, Note_on_c, 10, 69, 127
2, 275785, Note_off_c, 10, 69, 127
2, 275785, Note_off_c, 12, 47, 127
2, 275787, Note_on_c, 3, 51, 127
2, 275787, Note_on_c, 12, 71, 127
2, 275932, Note_off_c, 12, 71, 127
2, 275932, Note_off_c, 3, 51, 127
2, 275935, Note_on_c, 4, 52, 127
2, 275935, Note_on_c, 8, 68, 127
2, 276080, Note_off_c, 8, 68, 127
2, 276082, Note_on_c, 12, 71, 127
2, 276227, Note_off_c, 12, 71, 127
2, 276228, Note_off_c, 4, 52, 127
2, 276230, Note_on_c, 12, 47, 127
2, 276230, Note_on_c, 6, 66, 127
2, 276375, Note_off_c, 6, 66, 127
2, 276377, Note_on_c, 12, 71, 127
2, 276522, Note_off_c, 12, 71, 127
2, 276523, Note_off_c, 12, 47, 127
2, 276524, Note_on_c, 6, 54, 127
2, 276524, Note_on_c, 4, 64, 127
2, 276669, Note_off_c, 4, 64, 127
2, 276672, Note_on_c, 12, 71, 127
2, 276817, Note_off_c, 12, 71, 127
2, 276817, Note_off_c, 6, 54, 127
2, 276819, Note_on_c, 12, 47, 127
2, 276819, Note_on_c, 3, 63, 127
2, 276964, Note_off_c, 3, 63, 127
2, 276967, Note_on_c, 12, 71, 127
2, 277112, Note_off_c, 12, 71, 127
2, 277112, Note_off_c, 12, 47, 127
2, 277114, Note_on_c, 8, 56, 127
2, 277114, Note_on_c, 4, 64, 127
2, 277259, Note_off_c, 4, 64, 127
2, 277259, Note_off_c, 8, 56, 127
2, 277261, Note_on_c, 6, 54, 127
2, 277261, Note_on_c, 6, 66, 127
2, 277406, Note_off_c, 6, 66, 127
2, 277406, Note_off_c, 6, 54, 127
2, 277409, Note_on_c, 4, 52, 127
2, 277409, Note_on_c, 8, 68, 127
2, 277554, Note_off_c, 8, 68, 127
2, 277554, Note_off_c, 4, 52, 127
2, 277556, Note_on_c, 6, 54, 127
2, 277556, Note_on_c, 10, 69, 127
2, 277701, Note_off_c, 10, 69, 127
2, 277701, Note_off_c, 6, 54, 127
2, 277704, Note_on_c, 8, 56, 127
2, 277704, Note_on_c, 12, 71, 127
2, 277849, Note_off_c, 12, 71, 127
2, 277849, Note_off_c, 8, 56, 127
2, 277851, Note_on_c, 10, 57, 127
2, 277851, Note_on_c, 1, 73, 127
2, 277996, Note_off_c, 1, 73, 127
2, 277996, Note_off_c, 10, 57, 127
2, 277999, Note_on_c, 12, 59, 127
2, 277999, Note_on_c, 3, 75, 127
2, 278144, Note_off_c, 3, 75, 127
2, 278144, Note_off_c, 12, 59, 127
2, 278146, Note_on_c, 1, 61, 127
2, 278146, Note_on_c, 4, 76, 127
2, 278291, Note_off_c, 4, 76, 127
2, 278291, Note_off_c, 1, 61, 127
2, 278293, Note_on_c, 3, 63, 127
2, 278293, Note_on_c, 6, 78, 127
2, 278438, Note_off_c, 3, 63, 127
2, 278441, Note_on_c, 1, 61, 127
2, 278586, Note_off_c, 1, 61, 127
2, 278586, Note_off_c, 6, 78, 127
2, 278588, Note_on_c, 3, 63, 127
2, 278588, Note_on_c, 12, 71, 127
2, 278733, Note_off_c, 3, 63, 127
2, 278736, Note_on_c, 12, 59, 127
2, 278834, Note_off_c, 12, 71, 127
2, 278881, Note_off_c, 12, 59, 127
2, 278883, Note_on_c, 4, 64, 127
2, 278883, Note_on_c, 8, 80, 127
2, 279028, Note_off_c, 4, 64, 127
2, 279030, Note_on_c, 3, 63, 127
2, 279175, Note_off_c, 3, 63, 127
2, 279176, Note_off_c, 8, 80, 127
2, 279178, Note_on_c, 4, 64, 127
2, 279178, Note_on_c, 12, 71, 127
2, 279323, Note_off_c, 4, 64, 127
2, 279325, Note_on_c, 12, 59, 127
2, 279424, Note_off_c, 12, 71, 127
2, 279470, Note_off_c, 12, 59, 127
2, 279473, Note_on_c, 6, 66, 127
2, 279473, Note_on_c, 10, 81, 127
2, 279618, Note_off_c, 10, 81, 127
2, 279618, Note_off_c, 6, 66, 127
2, 279620, Note_on_c, 4, 64, 127
2, 279620, Note_on_c, 8, 80, 127
2, 279765, Note_off_c, 8, 80, 127
2, 279765, Note_off_c, 4, 64, 127
2, 279768, Note_on_c, 3, 63, 127
2, 279768, Note_on_c, 6, 78, 127
2, 279913, Note_off_c, 6, 78, 127
2, 279913, Note_off_c, 3, 63, 127
2, 279915, Note_on_c, 1, 61, 127
2, 279915, Note_on_c, 8, 80, 127
2, 280060, Note_off_c, 8, 80, 127
2, 280060, Note_off_c, 1, 61, 127
2, 280062, Note_on_c, 12, 59, 127
2, 280062, Note_on_c, 10, 81, 127
2, 280207, Note_off_c, 12, 59, 127
2, 280210, Note_on_c, 10, 57, 127
2, 280355, Note_off_c, 10, 57, 127
2, 280355, Note_off_c, 10, 81, 127
2, 280357, Note_on_c, 8, 56, 127
2, 280357, Note_on_c, 12, 83, 127
2, 280502, Note_off_c, 8, 56, 127
2, 280505, Note_on_c, 6, 54, 127
2, 280650, Note_off_c, 6, 54, 127
2, 280650, Note_off_c, 12, 83, 127
2, 280652, Note_on_c, 4, 52, 127
2, 280652, Note_on_c, 8, 80, 127
2, 280945, Note_off_c, 8, 80, 127
2, 280945, Note_off_c, 4, 52, 127
2, 280947, Note_on_c, 8, 56, 127
2, 280947, Note_on_c, 6, 78, 127
2, 281092, Note_off_c, 6, 78, 127
2, 281094, Note_on_c, 4, 76, 127
2, 281239, Note_off_c, 4, 76, 127
2, 281240, Note_off_c, 8, 56, 127
2, 281242, Note_on_c, 10, 57, 127
2, 281242, Note_on_c, 8, 80, 127
2, 281387, Note_off_c, 8, 80, 127
2, 281389, Note_on_c, 6, 78, 127
2, 281534, Note_off_c, 6, 78, 127
2, 281535, Note_off_c, 10, 57, 127
2, 281537, Note_on_c, 12, 59, 127
2, 281537, Note_on_c, 4, 76, 127
2, 281682, Note_off_c, 4, 76, 127
2, 281684, Note_on_c, 3, 75, 127
2, 281829, Note_off_c, 3, 75, 127
2, 281830, Note_off_c, 12, 59, 127
2, 281831, Note_on_c, 1, 61, 127
2, 281831, Note_on_c, 4, 76, 127
2, 281976, Note_off_c, 4, 76, 127
2, 281979, Note_on_c, 6, 78, 127
2, 282124, Note_off_c, 6, 78, 127
2, 282124, Note_off_c, 1, 61, 127
2, 282126, Note_on_c, 1, 49, 127
2, 282126, Note_on_c, 4, 76, 127
2, 282271, Note_off_c, 4, 76, 127
2, 282274, Note_on_c, 3, 75, 127
2, 282419, Note_off_c, 3, 75, 127
2, 282419, Note_off_c, 1, 49, 127
2, 282421, Note_on_c, 3, 51, 127
2, 282421, Note_on_c, 1, 73, 127
2, 282566, Note_off_c, 1, 73, 127
2, 282569, Note_on_c, 12, 71, 127
2, 282714, Note_off_c, 12, 71, 127
2, 282714, Note_off_c, 3, 51, 127
2, 282716, Note_on_c, 4, 52, 127
2, 282716, Note_on_c, 10, 69, 127
2, 282861, Note_off_c, 10, 69, 127
2, 282863, Note_on_c, 8, 68, 127
2, 283008, Note_off_c, 8, 68, 127
2, 283009, Note_off_c, 4, 52, 127
2, 283011, Note_on_c, 6, 54, 127
2, 283011, Note_on_c, 10, 69, 127
2, 283156, Note_off_c, 10, 69, 127
2, 283156, Note_off_c, 6, 54, 127
2, 283158, Note_on_c, 4, 52, 127
2, 283158, Note_on_c, 12, 71, 127
2, 283303, Note_off_c, 12, 71, 127
2, 283303, Note_off_c, 4, 52, 127
2, 283306, Note_on_c, 6, 54, 127
2, 283306, Note_on_c, 8, 68, 127
2, 283451, Note_off_c, 8, 68, 127
2, 283451, Note_off_c, 6, 54, 127
2, 283453, Note_on_c, 4, 52, 127
2, 283453, Note_on_c, 10, 69, 127
2, 283598, Note_off_c, 10, 69, 127
2, 283598, Note_off_c, 4, 52, 127
2, 283601, Note_on_c, 3, 51, 127
2, 283601, Note_on_c, 12, 71, 127
2, 283746, Note_off_c, 12, 71, 127
2, 283746, Note_off_c, 3, 51, 127
2, 283748, Note_on_c, 4, 52, 127
2, 283748, Note_on_c, 10, 69, 127
2, 283893, Note_off_c, 10, 69, 127
2, 283893, Note_off_c, 4, 52, 127
2, 283895, Note_on_c, 1, 49, 127
2, 283895, Note_on_c, 12, 71, 127
2, 284040, Note_off_c, 12, 71, 127
2, 284040, Note_off_c, 1, 49, 127
2, 284043, Note_on_c, 3, 51, 127
2, 284043, Note_on_c, 10, 69, 127
2, 284188, Note_off_c, 10, 69, 127
2, 284188, Note_off_c, 3, 51, 127
2, 284190, Note_on_c, 4, 52, 127
2, 284190, Note_on_c, 8, 68, 127
2, 284335, Note_off_c, 8, 68, 127
2, 284335, Note_off_c, 4, 52, 127
2, 284338, Note_on_c, 3, 51, 127
2, 284338, Note_on_c, 10, 69, 127
2, 284483, Note_off_c, 10, 69, 127
2, 284483, Note_off_c, 3, 51, 127
2, 284485, Note_on_c, 4, 52, 127
2, 284485, Note_on_c, 6, 66, 127
2, 284630, Note_off_c, 6, 66, 127
2, 284630, Note_off_c, 4, 52, 127
2, 284632, Note_on_c, 3, 51, 127
2, 284632, Note_on_c, 8, 68, 127
2, 284777, Note_off_c, 8, 68, 127
2, 284777, Note_off_c, 3, 51, 127
2, 284780, Note_on_c, 1, 49, 127
2, 284780, Note_on_c, 10, 69, 127
2, 284925, Note_off_c, 10, 69, 127
2, 284925, Note_off_c, 1, 49, 127
2, 284927, Note_on_c, 12, 47, 127
2, 284927, Note_on_c, 8, 68, 127
2, 285072, Note_off_c, 8, 68, 127
2, 285072, Note_off_c, 12, 47, 127
2, 285075, Note_on_c, 1, 49, 127
2, 285075, Note_on_c, 10, 69, 127
2, 285220, Note_off_c, 10, 69, 127
2, 285220, Note_off_c, 1, 49, 127
2, 285222, Note_on_c, 12, 47, 127
2, 285222, Note_on_c, 8, 68, 127
2, 285367, Note_off_c, 8, 68, 127
2, 285367, Note_off_c, 12, 47, 127
2, 285370, Note_on_c, 6, 66, 127
2, 285370, Note_on_c, 10, 45, 127
2, 285522, Note_off_c, 10, 45, 127
2, 285522, Note_off_c, 6, 66, 127
2, 285523, Note_on_c, 8, 68, 127
2, 285523, Note_on_c, 8, 44, 127
2, 285675, Note_off_c, 8, 44, 127
2, 285675, Note_off_c, 8, 68, 127
2, 285679, Note_on_c, 4, 64, 127
2, 285679, Note_on_c, 10, 45, 127
2, 285831, Note_off_c, 10, 45, 127
2, 285831, Note_off_c, 4, 64, 127
2, 285834, Note_on_c, 6, 66, 127
2, 285834, Note_on_c, 6, 42, 127
2, 285986, Note_off_c, 6, 42, 127
2, 285986, Note_off_c, 6, 66, 127
2, 285990, Note_on_c, 8, 68, 127
2, 285990, Note_on_c, 12, 47, 127
2, 286142, Note_off_c, 8, 68, 127
2, 286146, Note_on_c, 6, 66, 127
2, 286297, Note_off_c, 12, 47, 127
2, 286298, Note_off_c, 6, 66, 127
2, 286299, Note_on_c, 8, 68, 127
2, 286299, Note_on_c, 12, 35, 127
2, 286451, Note_off_c, 8, 68, 127
2, 286455, Note_on_c, 6, 66, 127
2, 286606, Note_off_c, 12, 35, 127
2, 286607, Note_off_c, 6, 66, 127
2, 286610, Note_on_c, 4, 40, 127
2, 286610, Note_on_c, 4, 64, 127
2, 286942, Note_off_c, 4, 40, 127
2, 286975, Note_on_c, 12, 47, 127
2, 287307, Note_off_c, 12, 47, 127
2, 287370, Note_on_c, 4, 52, 127
2, 289170, Note_off_c, 4, 52, 127
2, 289210, Note_off_c, 4, 64, 127
2, 291264, Note_on_c, 8, 68, 127
2, 291447, Note_off_c, 8, 68, 127
2, 291449, Note_on_c, 6, 66, 127
2, 291632, Note_off_c, 6, 66, 127
2, 291634, Note_on_c, 4, 64, 127
2, 291817, Note_off_c, 4, 64, 127
2, 291818, Note_on_c, 6, 66, 127
2, 292001, Note_off_c, 6, 66, 127
2, 292003, Note_on_c, 8, 68, 127
2, 292186, Note_off_c, 8, 68, 127
2, 292188, Note_on_c, 10, 69, 127
2, 292371, Note_off_c, 10, 69, 127
2, 292372, Note_on_c, 12, 71, 127
2, 292372, Note_on_c, 8, 68, 127
2, 292559, Note_on_c, 4, 52, 127
2, 292741, Note_off_c, 8, 68, 127
2, 292741, Note_off_c, 12, 71, 127
2, 292742, Note_off_c, 4, 52, 127
2, 292743, Note_on_c, 3, 51, 127
2, 292743, Note_on_c, 1, 73, 127
2, 292743, Note_on_c, 10, 69, 127
2, 292926, Note_off_c, 3, 51, 127
2, 292928, Note_on_c, 4, 52, 127
2, 293110, Note_off_c, 10, 69, 127
2, 293110, Note_off_c, 1, 73, 127
2, 293111, Note_off_c, 4, 52, 127
2, 293113, Note_on_c, 4, 40, 127
2, 293113, Note_on_c, 8, 68, 127
2, 293113, Note_on_c, 12, 71, 127
2, 293383, Note_off_c, 8, 68, 127
2, 293480, Note_off_c, 4, 40, 127
2, 293482, Note_off_c, 12, 71, 127
2, 293484, Note_on_c, 3, 63, 127
2, 293667, Note_off_c, 3, 63, 127
2, 293668, Note_on_c, 4, 64, 127
2, 293851, Note_off_c, 4, 64, 127
2, 293853, Note_on_c, 6, 66, 127
2, 294036, Note_off_c, 6, 66, 127
2, 294038, Note_on_c, 8, 68, 127
2, 294221, Note_off_c, 8, 68, 127
2, 294222, Note_on_c, 10, 69, 127
2, 294405, Note_off_c, 10, 69, 127
2, 294407, Note_on_c, 3, 75, 127
2, 294590, Note_off_c, 3, 75, 127
2, 294592, Note_on_c, 4, 76, 127
2, 294592, Note_on_c, 8, 68, 127
2, 294778, Note_on_c, 4, 52, 127
2, 294961, Note_off_c, 4, 52, 127
2, 294961, Note_off_c, 8, 68, 127
2, 294961, Note_off_c, 4, 76, 127
2, 294963, Note_on_c, 3, 51, 127
2, 294963, Note_on_c, 6, 78, 127
2, 294963, Note_on_c, 10, 69, 127
2, 295146, Note_off_c, 3, 51, 127
2, 295147, Note_on_c, 4, 52, 127
2, 295330, Note_off_c, 4, 52, 127
2, 295330, Note_off_c, 10, 69, 127
2, 295330, Note_off_c, 6, 78, 127
2, 295332, Note_on_c, 4, 40, 127
2, 295332, Note_on_c, 4, 76, 127
2, 295332, Note_on_c, 8, 68, 127
2, 295602, Note_off_c, 8, 68, 127
2, 295699, Note_off_c, 4, 40, 127
2, 295701, Note_off_c, 4, 76, 127
2, 295703, Note_on_c, 8, 80, 127
2, 295886, Note_off_c, 8, 80, 127
2, 295888, Note_on_c, 6, 78, 127
2, 296071, Note_off_c, 6, 78, 127
2, 296072, Note_on_c, 4, 76, 127
2, 296255, Note_off_c, 4, 76, 127
2, 296257, Note_on_c, 3, 75, 127
2, 296440, Note_off_c, 3, 75, 127
2, 296442, Note_on_c, 1, 73, 127
2, 296625, Note_off_c, 1, 73, 127
2, 296626, Note_on_c, 12, 71, 127
2, 296809, Note_off_c, 12, 71, 127
2, 296811, Note_on_c, 6, 78, 127
2, 296811, Note_on_c, 11, 70, 127
2, 296997, Note_on_c, 4, 52, 127
2, 297180, Note_off_c, 4, 52, 127
2, 297180, Note_off_c, 11, 70, 127
2, 297180, Note_off_c, 6, 78, 127
2, 297182, Note_on_c, 3, 51, 127
2, 297182, Note_on_c, 8, 80, 127
2, 297182, Note_on_c, 12, 71, 127
2, 297365, Note_off_c, 3, 51, 127
2, 297367, Note_on_c, 4, 52, 127
2, 297549, Note_off_c, 12, 71, 127
2, 297549, Note_off_c, 8, 80, 127
2, 297550, Note_off_c, 4, 52, 127
2, 297551, Note_on_c, 4, 40, 127
2, 297551, Note_on_c, 6, 78, 127
2, 297551, Note_on_c, 11, 70, 127
2, 297734, Note_off_c, 4, 40, 127
2, 297736, Note_on_c, 4, 52, 127
2, 297821, Note_off_c, 11, 70, 127
2, 297920, Note_off_c, 4, 52, 127
2, 297920, Note_off_c, 6, 78, 127
2, 297922, Note_on_c, 3, 51, 127
2, 297922, Note_on_c, 12, 71, 127
2, 298105, Note_off_c, 12, 71, 127
2, 298107, Note_on_c, 11, 70, 127
2, 298289, Note_off_c, 3, 51, 127
2, 298290, Note_off_c, 11, 70, 127
2, 298292, Note_on_c, 4, 52, 127
2, 298292, Note_on_c, 8, 68, 127
2, 298475, Note_off_c, 8, 68, 127
2, 298477, Note_on_c, 6, 66, 127
2, 298659, Note_off_c, 4, 52, 127
2, 298660, Note_off_c, 6, 66, 127
2, 298661, Note_on_c, 6, 54, 127
2, 298661, Note_on_c, 4, 76, 127
2, 298844, Note_off_c, 4, 76, 127
2, 298846, Note_on_c, 3, 75, 127
2, 299027, Note_off_c, 6, 54, 127
2, 299029, Note_off_c, 3, 75, 127
2, 299031, Note_on_c, 1, 73, 127
2, 299031, Note_on_c, 4, 64, 127
2, 299217, Note_on_c, 12, 59, 127
2, 299400, Note_off_c, 12, 59, 127
2, 299400, Note_off_c, 4, 64, 127
2, 299400, Note_off_c, 1, 73, 127
2, 299402, Note_on_c, 11, 58, 127
2, 299402, Note_on_c, 12, 71, 127
2, 299402, Note_on_c, 3, 63, 127
2, 299585, Note_off_c, 11, 58, 127
2, 299586, Note_on_c, 12, 59, 127
2, 299768, Note_off_c, 3, 63, 127
2, 299769, Note_off_c, 12, 59, 127
2, 299771, Note_on_c, 12, 47, 127
2, 299941, Note_off_c, 12, 71, 127
2, 300138, Note_off_c, 12, 47, 127
2, 300142, Note_on_c, 3, 75, 127
2, 300325, Note_off_c, 3, 75, 127
2, 300327, Note_on_c, 1, 73, 127
2, 300510, Note_off_c, 1, 73, 127
2, 300511, Note_on_c, 12, 71, 127
2, 300694, Note_off_c, 12, 71, 127
2, 300696, Note_on_c, 1, 73, 127
2, 300879, Note_off_c, 1, 73, 127
2, 300881, Note_on_c, 3, 75, 127
2, 301064, Note_off_c, 3, 75, 127
2, 301065, Note_on_c, 4, 76, 127
2, 301248, Note_off_c, 4, 76, 127
2, 301250, Note_on_c, 3, 75, 127
2, 301250, Note_on_c, 6, 78, 127
2, 301436, Note_on_c, 12, 59, 127
2, 301619, Note_off_c, 12, 59, 127
2, 301619, Note_off_c, 6, 78, 127
2, 301619, Note_off_c, 3, 75, 127
2, 301621, Note_on_c, 11, 58, 127
2, 301621, Note_on_c, 4, 76, 127
2, 301621, Note_on_c, 8, 80, 127
2, 301804, Note_off_c, 11, 58, 127
2, 301806, Note_on_c, 12, 59, 127
2, 301988, Note_off_c, 8, 80, 127
2, 301988, Note_off_c, 4, 76, 127
2, 301989, Note_off_c, 12, 59, 127
2, 301990, Note_on_c, 12, 47, 127
2, 301990, Note_on_c, 3, 75, 127
2, 301990, Note_on_c, 6, 78, 127
2, 302260, Note_off_c, 3, 75, 127
2, 302357, Note_off_c, 12, 47, 127
2, 302359, Note_off_c, 6, 78, 127
2, 302361, Note_on_c, 10, 81, 127
2, 302544, Note_off_c, 10, 81, 127
2, 302546, Note_on_c, 8, 80, 127
2, 302729, Note_off_c, 8, 80, 127
2, 302731, Note_on_c, 6, 78, 127
2, 302914, Note_off_c, 6, 78, 127
2, 302915, Note_on_c, 4, 76, 127
2, 303098, Note_off_c, 4, 76, 127
2, 303100, Note_on_c, 3, 75, 127
2, 303283, Note_off_c, 3, 75, 127
2, 303285, Note_on_c, 1, 73, 127
2, 303468, Note_off_c, 1, 73, 127
2, 303469, Note_on_c, 0, 72, 127
2, 303652, Note_off_c, 0, 72, 127
2, 303654, Note_on_c, 1, 61, 127
2, 303654, Note_on_c, 10, 81, 127
2, 303837, Note_off_c, 10, 81, 127
2, 303837, Note_off_c, 1, 61, 127
2, 303839, Note_on_c, 0, 60, 127
2, 303839, Note_on_c, 8, 80, 127
2, 304022, Note_off_c, 8, 80, 127
2, 304022, Note_off_c, 0, 60, 127
2, 304023, Note_on_c, 1, 61, 127
2, 304023, Note_on_c, 6, 78, 127
2, 304206, Note_off_c, 6, 78, 127
2, 304206, Note_off_c, 1, 61, 127
2, 304208, Note_on_c, 1, 49, 127
2, 304208, Note_on_c, 4, 76, 127
2, 304391, Note_off_c, 4, 76, 127
2, 304393, Note_on_c, 3, 75, 127
2, 304574, Note_off_c, 1, 49, 127
2, 304576, Note_off_c, 3, 75, 127
2, 304577, Note_on_c, 4, 76, 127
2, 304760, Note_off_c, 4, 76, 127
2, 304762, Note_on_c, 1, 73, 127
2, 304945, Note_off_c, 1, 73, 127
2, 304947, Note_on_c, 8, 68, 127
2, 305130, Note_off_c, 8, 68, 127
2, 305131, Note_on_c, 10, 69, 127
2, 305314, Note_off_c, 10, 69, 127
2, 305316, Note_on_c, 12, 71, 127
2, 305499, Note_off_c, 12, 71, 127
2, 305501, Note_on_c, 1, 73, 127
2, 305684, Note_off_c, 1, 73, 127
2, 305686, Note_on_c, 2, 74, 127
2, 305869, Note_off_c, 2, 74, 127
2, 305870, Note_on_c, 10, 57, 127
2, 305870, Note_on_c, 12, 71, 127
2, 306053, Note_off_c, 12, 71, 127
2, 306053, Note_off_c, 10, 57, 127
2, 306055, Note_on_c, 8, 56, 127
2, 306055, Note_on_c, 1, 73, 127
2, 306238, Note_off_c, 1, 73, 127
2, 306238, Note_off_c, 8, 56, 127
2, 306240, Note_on_c, 10, 57, 127
2, 306240, Note_on_c, 10, 69, 127
2, 306423, Note_off_c, 10, 69, 127
2, 306423, Note_off_c, 10, 57, 127
2, 306424, Note_on_c, 10, 45, 127
2, 306424, Note_on_c, 12, 71, 127
2, 306607, Note_off_c, 12, 71, 127
2, 306607, Note_off_c, 10, 45, 127
2, 306609, Note_on_c, 10, 57, 127
2, 306609, Note_on_c, 3, 63, 127
2, 306792, Note_off_c, 3, 63, 127
2, 306792, Note_off_c, 10, 57, 127
2, 306794, Note_on_c, 8, 56, 127
2, 306794, Note_on_c, 4, 64, 127
2, 306977, Note_off_c, 4, 64, 127
2, 306978, Note_on_c, 6, 66, 127
2, 307161, Note_off_c, 6, 66, 127
2, 307161, Note_off_c, 8, 56, 127
2, 307163, Note_on_c, 6, 54, 127
2, 307163, Note_on_c, 8, 68, 127
2, 307346, Note_off_c, 8, 68, 127
2, 307348, Note_on_c, 10, 69, 127
2, 307530, Note_off_c, 6, 54, 127
2, 307531, Note_off_c, 10, 69, 127
2, 307532, Note_on_c, 4, 52, 127
2, 307532, Note_on_c, 12, 71, 127
2, 307715, Note_off_c, 12, 71, 127
2, 307717, Note_on_c, 1, 73, 127
2, 307898, Note_off_c, 4, 52, 127
2, 307900, Note_off_c, 1, 73, 127
2, 307902, Note_on_c, 6, 66, 127
2, 307902, Note_on_c, 3, 63, 127
2, 308088, Note_on_c, 12, 59, 127
2, 308271, Note_off_c, 12, 59, 127
2, 308273, Note_on_c, 10, 57, 127
2, 308456, Note_off_c, 10, 57, 127
2, 308457, Note_on_c, 12, 59, 127
2, 308635, Note_off_c, 3, 63, 127
2, 308641, Note_off_c, 12, 59, 127
2, 308644, Note_on_c, 12, 47, 127
2, 308830, Note_off_c, 6, 66, 127
2, 309011, Note_off_c, 12, 47, 127
2, 309015, Note_on_c, 8, 68, 127
2, 309198, Note_off_c, 8, 68, 127
2, 309199, Note_on_c, 6, 66, 127
2, 309382, Note_off_c, 6, 66, 127
2, 309384, Note_on_c, 4, 64, 127
2, 309567, Note_off_c, 4, 64, 127
2, 309569, Note_on_c, 6, 66, 127
2, 309752, Note_off_c, 6, 66, 127
2, 309753, Note_on_c, 8, 68, 127
2, 309936, Note_off_c, 8, 68, 127
2, 309938, Note_on_c, 10, 69, 127
2, 310121, Note_off_c, 10, 69, 127
2, 310123, Note_on_c, 12, 71, 127
2, 310123, Note_on_c, 8, 68, 127
2, 310309, Note_on_c, 12, 59, 127
2, 310492, Note_off_c, 12, 59, 127
2, 310492, Note_off_c, 8, 68, 127
2, 310492, Note_off_c, 12, 71, 127
2, 310494, Note_on_c, 10, 57, 127
2, 310494, Note_on_c, 1, 73, 127
2, 310494, Note_on_c, 10, 69, 127
2, 310677, Note_off_c, 10, 57, 127
2, 310678, Note_on_c, 12, 59, 127
2, 310861, Note_off_c, 12, 59, 127
2, 310861, Note_off_c, 10, 69, 127
2, 310861, Note_off_c, 1, 73, 127
2, 310863, Note_on_c, 12, 47, 127
2, 310863, Note_on_c, 8, 68, 127
2, 310863, Note_on_c, 12, 71, 127
2, 311133, Note_off_c, 8, 68, 127
2, 311230, Note_off_c, 12, 47, 127
2, 311232, Note_off_c, 12, 71, 127
2, 311234, Note_on_c, 12, 59, 127
2, 311417, Note_off_c, 12, 59, 127
2, 311419, Note_on_c, 1, 61, 127
2, 311602, Note_off_c, 1, 61, 127
2, 311603, Note_on_c, 3, 63, 127
2, 311786, Note_off_c, 3, 63, 127
2, 311788, Note_on_c, 4, 64, 127
2, 311971, Note_off_c, 4, 64, 127
2, 311973, Note_on_c, 6, 66, 127
2, 312156, Note_off_c, 6, 66, 127
2, 312157, Note_on_c, 8, 68, 127
2, 312340, Note_off_c, 8, 68, 127
2, 312342, Note_on_c, 10, 69, 127
2, 312342, Note_on_c, 6, 66, 127
2, 312528, Note_on_c, 12, 59, 127
2, 312711, Note_off_c, 12, 59, 127
2, 312711, Note_off_c, 6, 66, 127
2, 312711, Note_off_c, 10, 69, 127
2, 312713, Note_on_c, 10, 57, 127
2, 312713, Note_on_c, 12, 71, 127
2, 312713, Note_on_c, 8, 68, 127
2, 312896, Note_off_c, 10, 57, 127
2, 312898, Note_on_c, 12, 59, 127
2, 313080, Note_off_c, 8, 68, 127
2, 313080, Note_off_c, 12, 71, 127
2, 313081, Note_off_c, 12, 59, 127
2, 313082, Note_on_c, 12, 47, 127
2, 313082, Note_on_c, 6, 66, 127
2, 313082, Note_on_c, 10, 69, 127
2, 313352, Note_off_c, 6, 66, 127
2, 313449, Note_off_c, 12, 47, 127
2, 313451, Note_off_c, 10, 69, 127
2, 313453, Note_on_c, 8, 68, 127
2, 313636, Note_off_c, 8, 68, 127
2, 313638, Note_on_c, 12, 71, 127
2, 313821, Note_off_c, 12, 71, 127
2, 313823, Note_on_c, 4, 76, 127
2, 314006, Note_off_c, 4, 76, 127
2, 314007, Note_on_c, 3, 75, 127
2, 314190, Note_off_c, 3, 75, 127
2, 314192, Note_on_c, 8, 80, 127
2, 314375, Note_off_c, 8, 80, 127
2, 314377, Note_on_c, 6, 78, 127
2, 314560, Note_off_c, 6, 78, 127
2, 314561, Note_on_c, 10, 81, 127
2, 314748, Note_off_c, 10, 81, 127
2, 314751, Note_on_c, 8, 80, 127
2, 314751, Note_on_c, 12, 59, 127
2, 314938, Note_off_c, 12, 59, 127
2, 314938, Note_off_c, 8, 80, 127
2, 314942, Note_on_c, 6, 78, 127
2, 314942, Note_on_c, 10, 57, 127
2, 315129, Note_off_c, 10, 57, 127
2, 315129, Note_off_c, 6, 78, 127
2, 315133, Note_on_c, 4, 76, 127
2, 315133, Note_on_c, 12, 59, 127
2, 315320, Note_off_c, 12, 59, 127
2, 315320, Note_off_c, 4, 76, 127
2, 315325, Note_on_c, 3, 75, 127
2, 315325, Note_on_c, 12, 47, 127
2, 315512, Note_off_c, 12, 47, 127
2, 315512, Note_off_c, 3, 75, 127
2, 315516, Note_on_c, 1, 73, 127
2, 315516, Note_on_c, 10, 57, 127
2, 315703, Note_off_c, 10, 57, 127
2, 315703, Note_off_c, 1, 73, 127
2, 315707, Note_on_c, 8, 56, 127
2, 315707, Note_on_c, 12, 71, 127
2, 315906, Note_off_c, 12, 71, 127
2, 315906, Note_off_c, 8, 56, 127
2, 315908, Note_on_c, 10, 57, 127
2, 315908, Note_on_c, 4, 76, 127
2, 316107, Note_off_c, 4, 76, 127
2, 316107, Note_off_c, 10, 57, 127
2, 316110, Note_on_c, 12, 59, 127
2, 316110, Note_on_c, 8, 68, 127
2, 316110, Note_on_c, 4, 64, 127
2, 316511, Note_off_c, 4, 64, 127
2, 316511, Note_off_c, 8, 68, 127
2, 316511, Note_off_c, 12, 59, 127
2, 316515, Note_on_c, 12, 47, 127
2, 316515, Note_on_c, 6, 66, 127
2, 316515, Note_on_c, 3, 63, 127
2, 316714, Note_off_c, 6, 66, 127
2, 316716, Note_on_c, 4, 64, 127
2, 316915, Note_off_c, 4, 64, 127
2, 316915, Note_off_c, 3, 63, 127
2, 316916, Note_off_c, 12, 47, 127
2, 316925, Note_on_c, 4, 52, 127
2, 316925, Note_on_c, 4, 64, 127
2, 317176, Note_on_c, 12, 59, 127
2, 317397, Note_off_c, 12, 59, 127
2, 317428, Note_on_c, 8, 56, 127
2, 317602, Note_off_c, 4, 52, 127
2, 317682, Note_on_c, 12, 47, 127
2, 317903, Note_off_c, 12, 47, 127
2, 317980, Note_on_c, 4, 40, 127
2, 318323, Note_off_c, 8, 56, 127
2, 319131, Note_off_c, 4, 64, 127
2, 320380, Note_off_c, 4, 40, 127
2, 320831, Note_on_c, 12, 71, 127
2, 321009, Note_off_c, 12, 71, 127
2, 321045, Note_on_c, 4, 76, 127
2, 321257, Note_off_c, 4, 76, 127
2, 321259, Note_on_c, 12, 71, 127
2, 321471, Note_off_c, 12, 71, 127
2, 321473, Note_on_c, 8, 68, 127
2, 321685, Note_off_c, 8, 68, 127
2, 321687, Note_on_c, 4, 64, 127
2, 321899, Note_off_c, 4, 64, 127
2, 321901, Note_on_c, 8, 68, 127
2, 322113, Note_off_c, 8, 68, 127
2, 322114, Note_on_c, 12, 59, 127
2, 322114, Note_on_c, 6, 66, 127
2, 322326, Note_off_c, 6, 66, 127
2, 322326, Note_off_c, 12, 59, 127
2, 322328, Note_on_c, 4, 64, 127
2, 322328, Note_on_c, 8, 68, 127
2, 322540, Note_off_c, 4, 64, 127
2, 322542, Note_on_c, 12, 59, 127
2, 322754, Note_off_c, 12, 59, 127
2, 322756, Note_on_c, 8, 56, 127
2, 322968, Note_off_c, 8, 56, 127
2, 322970, Note_on_c, 4, 52, 127
2, 323181, Note_off_c, 8, 68, 127
2, 323182, Note_off_c, 4, 52, 127
2, 323184, Note_on_c, 8, 56, 127
2, 323396, Note_off_c, 8, 56, 127
2, 323397, Note_on_c, 6, 54, 127
2, 323397, Note_on_c, 10, 69, 127
2, 323609, Note_off_c, 10, 69, 127
2, 323609, Note_off_c, 6, 54, 127
2, 323611, Note_on_c, 8, 56, 127
2, 323611, Note_on_c, 12, 71, 127
2, 323823, Note_off_c, 12, 71, 127
2, 323825, Note_on_c, 10, 69, 127
2, 323930, Note_off_c, 10, 69, 127
2, 323932, Note_on_c, 8, 68, 127
2, 324033, Note_off_c, 8, 56, 127
2, 324037, Note_off_c, 8, 68, 127
2, 324039, Note_on_c, 6, 66, 127
2, 324144, Note_off_c, 6, 66, 127
2, 324146, Note_on_c, 4, 64, 127
2, 324251, Note_off_c, 4, 64, 127
2, 324253, Note_on_c, 10, 57, 127
2, 324253, Note_on_c, 1, 73, 127
2, 324358, Note_off_c, 1, 73, 127
2, 324360, Note_on_c, 12, 71, 127
2, 324465, Note_off_c, 12, 71, 127
2, 324467, Note_on_c, 10, 69, 127
2, 324572, Note_off_c, 10, 69, 127
2, 324574, Note_on_c, 8, 68, 127
2, 324675, Note_off_c, 10, 57, 127
2, 324679, Note_off_c, 8, 68, 127
2, 324680, Note_on_c, 6, 66, 127
2, 324785, Note_off_c, 6, 66, 127
2, 324787, Note_on_c, 4, 64, 127
2, 324892, Note_off_c, 4, 64, 127
2, 324894, Note_on_c, 12, 59, 127
2, 324894, Note_on_c, 3, 63, 127
2, 325106, Note_off_c, 3, 63, 127
2, 325106, Note_off_c, 12, 59, 127
2, 325108, Note_on_c, 6, 54, 127
2, 325108, Note_on_c, 4, 64, 127
2, 325213, Note_off_c, 4, 64, 127
2, 325215, Note_on_c, 3, 63, 127
2, 325320, Note_off_c, 3, 63, 127
2, 325320, Note_off_c, 6, 54, 127
2, 325322, Note_on_c, 3, 51, 127
2, 325322, Note_on_c, 1, 61, 127
2, 325427, Note_off_c, 1, 61, 127
2, 325429, Note_on_c, 12, 59, 127
2, 325534, Note_off_c, 12, 59, 127
2, 325534, Note_off_c, 3, 51, 127
2, 325536, Note_on_c, 12, 47, 127
2, 325536, Note_on_c, 10, 69, 127
2, 325748, Note_off_c, 12, 47, 127
2, 325750, Note_on_c, 3, 51, 127
2, 325962, Note_off_c, 3, 51, 127
2, 325964, Note_on_c, 1, 49, 127
2, 326176, Note_off_c, 1, 49, 127
2, 326177, Note_on_c, 3, 51, 127
2, 326248, Note_off_c, 10, 69, 127
2, 326284, Note_on_c, 8, 68, 127
2, 326389, Note_off_c, 8, 68, 127
2, 326391, Note_on_c, 6, 66, 127
2, 326496, Note_off_c, 6, 66, 127
2, 326498, Note_on_c, 8, 68, 127
2, 326603, Note_off_c, 8, 68, 127
2, 326605, Note_on_c, 10, 69, 127
2, 326710, Note_off_c, 10, 69, 127
2, 326712, Note_on_c, 12, 71, 127
2, 326817, Note_off_c, 12, 71, 127
2, 326819, Note_on_c, 1, 73, 127
2, 326961, Note_off_c, 3, 51, 127
2, 327031, Note_off_c, 1, 73, 127
2, 327033, Note_on_c, 4, 52, 127
2, 327033, Note_on_c, 12, 71, 127
2, 327138, Note_off_c, 4, 52, 127
2, 327140, Note_on_c, 3, 51, 127
2, 327245, Note_off_c, 3, 51, 127
2, 327245, Note_off_c, 12, 71, 127
2, 327247, Note_on_c, 1, 49, 127
2, 327247, Note_on_c, 10, 69, 127
2, 327352, Note_off_c, 1, 49, 127
2, 327353, Note_on_c, 12, 47, 127
2, 327458, Note_off_c, 12, 47, 127
2, 327459, Note_off_c, 10, 69, 127
2, 327460, Note_on_c, 4, 52, 127
2, 327460, Note_on_c, 8, 68, 127
2, 327565, Note_off_c, 8, 68, 127
2, 327567, Note_on_c, 6, 66, 127
2, 327672, Note_off_c, 6, 66, 127
2, 327672, Note_off_c, 4, 52, 127
2, 327674, Note_on_c, 12, 47, 127
2, 327674, Note_on_c, 4, 64, 127
2, 327779, Note_off_c, 4, 64, 127
2, 327781, Note_on_c, 6, 66, 127
2, 327886, Note_off_c, 6, 66, 127
2, 327886, Note_off_c, 12, 47, 127
2, 327888, Note_on_c, 8, 44, 127
2, 327888, Note_on_c, 8, 68, 127
2, 327993, Note_off_c, 8, 68, 127
2, 327995, Note_on_c, 10, 69, 127
2, 328100, Note_off_c, 10, 69, 127
2, 328100, Note_off_c, 8, 44, 127
2, 328102, Note_on_c, 4, 40, 127
2, 328102, Note_on_c, 12, 71, 127
2, 328207, Note_off_c, 12, 71, 127
2, 328209, Note_on_c, 10, 69, 127
2, 328314, Note_off_c, 10, 69, 127
2, 328314, Note_off_c, 4, 40, 127
2, 328316, Note_on_c, 4, 52, 127
2, 328316, Note_on_c, 8, 68, 127
2, 328421, Note_off_c, 8, 68, 127
2, 328423, Note_on_c, 10, 69, 127
2, 328528, Note_off_c, 10, 69, 127
2, 328528, Note_off_c, 4, 52, 127
2, 328530, Note_on_c, 10, 45, 127
2, 328530, Note_on_c, 12, 71, 127
2, 328635, Note_off_c, 12, 71, 127
2, 328637, Note_on_c, 1, 73, 127
2, 328742, Note_off_c, 1, 73, 127
2, 328742, Note_off_c, 10, 45, 127
2, 328743, Note_on_c, 10, 57, 127
2, 328743, Note_on_c, 3, 75, 127
2, 328955, Note_off_c, 3, 75, 127
2, 328955, Note_off_c, 10, 57, 127
2, 328957, Note_on_c, 8, 56, 127
2, 328957, Note_on_c, 12, 71, 127
2, 329062, Note_off_c, 8, 56, 127
2, 329064, Note_on_c, 6, 54, 127
2, 329169, Note_off_c, 6, 54, 127
2, 329169, Note_off_c, 12, 71, 127
2, 329171, Note_on_c, 8, 56, 127
2, 329171, Note_on_c, 4, 76, 127
2, 329276, Note_off_c, 8, 56, 127
2, 329278, Note_on_c, 4, 52, 127
2, 329383, Note_off_c, 4, 52, 127
2, 329383, Note_off_c, 4, 76, 127
2, 329385, Note_on_c, 12, 59, 127
2, 329385, Note_on_c, 6, 66, 127
2, 329597, Note_off_c, 6, 66, 127
2, 329597, Note_off_c, 12, 59, 127
2, 329599, Note_on_c, 12, 47, 127
2, 329599, Note_on_c, 4, 76, 127
2, 329811, Note_off_c, 4, 76, 127
2, 329811, Note_off_c, 12, 47, 127
2, 329813, Note_on_c, 12, 59, 127
2, 329813, Note_on_c, 3, 75, 127
2, 330025, Note_off_c, 3, 75, 127
2, 330025, Note_off_c, 12, 59, 127
2, 330026, Note_on_c, 4, 64, 127
2, 330026, Note_on_c, 4, 76, 127
2, 330238, Note_off_c, 4, 64, 127
2, 330240, Note_on_c, 12, 59, 127
2, 330452, Note_off_c, 12, 59, 127
2, 330454, Note_on_c, 8, 56, 127
2, 330666, Note_off_c, 8, 56, 127
2, 330668, Note_on_c, 4, 52, 127
2, 330879, Note_off_c, 4, 76, 127
2, 330880, Note_off_c, 4, 52, 127
2, 330882, Note_on_c, 8, 56, 127
2, 331094, Note_off_c, 8, 56, 127
2, 331096, Note_on_c, 1, 49, 127
2, 331096, Note_on_c, 8, 80, 127
2, 331308, Note_off_c, 8, 80, 127
2, 331308, Note_off_c, 1, 49, 127
2, 331310, Note_on_c, 6, 54, 127
2, 331310, Note_on_c, 10, 81, 127
2, 331415, Note_off_c, 10, 81, 127
2, 331416, Note_on_c, 8, 80, 127
2, 331521, Note_off_c, 8, 80, 127
2, 331523, Note_on_c, 6, 78, 127
2, 331628, Note_off_c, 6, 78, 127
2, 331630, Note_on_c, 4, 76, 127
2, 331732, Note_off_c, 6, 54, 127
2, 331735, Note_off_c, 4, 76, 127
2, 331737, Note_on_c, 3, 75, 127
2, 331842, Note_off_c, 3, 75, 127
2, 331844, Note_on_c, 1, 73, 127
2, 331949, Note_off_c, 1, 73, 127
2, 331951, Note_on_c, 8, 56, 127
2, 331951, Note_on_c, 0, 72, 127
2, 332056, Note_off_c, 0, 72, 127
2, 332058, Note_on_c, 3, 75, 127
2, 332163, Note_off_c, 3, 75, 127
2, 332163, Note_off_c, 8, 56, 127
2, 332165, Note_on_c, 11, 58, 127
2, 332165, Note_on_c, 8, 80, 127
2, 332270, Note_off_c, 8, 80, 127
2, 332272, Note_on_c, 6, 78, 127
2, 332377, Note_off_c, 6, 78, 127
2, 332377, Note_off_c, 11, 58, 127
2, 332379, Note_on_c, 0, 60, 127
2, 332379, Note_on_c, 4, 76, 127
2, 332484, Note_off_c, 4, 76, 127
2, 332486, Note_on_c, 3, 75, 127
2, 332591, Note_off_c, 3, 75, 127
2, 332591, Note_off_c, 0, 60, 127
2, 332593, Note_on_c, 1, 49, 127
2, 332593, Note_on_c, 4, 76, 127
2, 332698, Note_off_c, 4, 76, 127
2, 332699, Note_on_c, 6, 78, 127
2, 332804, Note_off_c, 6, 78, 127
2, 332805, Note_off_c, 1, 49, 127
2, 332806, Note_on_c, 3, 51, 127
2, 332806, Note_on_c, 4, 76, 127
2, 332911, Note_off_c, 4, 76, 127
2, 332913, Note_on_c, 3, 75, 127
2, 333018, Note_off_c, 3, 75, 127
2, 333018, Note_off_c, 3, 51, 127
2, 333020, Note_on_c, 4, 52, 127
2, 333020, Note_on_c, 1, 73, 127
2, 333125, Note_off_c, 1, 73, 127
2, 333127, Note_on_c, 12, 71, 127
2, 333232, Note_off_c, 12, 71, 127
2, 333232, Note_off_c, 4, 52, 127
2, 333234, Note_on_c, 6, 54, 127
2, 333234, Note_on_c, 11, 70, 127
2, 333339, Note_off_c, 11, 70, 127
2, 333341, Note_on_c, 1, 73, 127
2, 333446, Note_off_c, 1, 73, 127
2, 333446, Note_off_c, 6, 54, 127
2, 333448, Note_on_c, 8, 56, 127
2, 333448, Note_on_c, 6, 78, 127
2, 333553, Note_off_c, 6, 78, 127
2, 333555, Note_on_c, 4, 76, 127
2, 333660, Note_off_c, 4, 76, 127
2, 333660, Note_off_c, 8, 56, 127
2, 333662, Note_on_c, 11, 58, 127
2, 333662, Note_on_c, 3, 75, 127
2, 333767, Note_off_c, 3, 75, 127
2, 333769, Note_on_c, 1, 73, 127
2, 333874, Note_off_c, 1, 73, 127
2, 333874, Note_off_c, 11, 58, 127
2, 333876, Note_on_c, 12, 47, 127
2, 333876, Note_on_c, 3, 75, 127
2, 333981, Note_off_c, 3, 75, 127
2, 333983, Note_on_c, 4, 76, 127
2, 334088, Note_off_c, 4, 76, 127
2, 334088, Note_off_c, 12, 47, 127
2, 334089, Note_on_c, 1, 49, 127
2, 334089, Note_on_c, 3, 75, 127
2, 334194, Note_off_c, 3, 75, 127
2, 334196, Note_on_c, 1, 73, 127
2, 334301, Note_off_c, 1, 73, 127
2, 334301, Note_off_c, 1, 49, 127
2, 334303, Note_on_c, 3, 51, 127
2, 334303, Note_on_c, 12, 71, 127
2, 334408, Note_off_c, 12, 71, 127
2, 334410, Note_on_c, 10, 69, 127
2, 334515, Note_off_c, 10, 69, 127
2, 334515, Note_off_c, 3, 51, 127
2, 334517, Note_on_c, 4, 52, 127
2, 334517, Note_on_c, 8, 68, 127
2, 334622, Note_off_c, 8, 68, 127
2, 334624, Note_on_c, 12, 71, 127
2, 334729, Note_off_c, 12, 71, 127
2, 334729, Note_off_c, 4, 52, 127
2, 334731, Note_on_c, 1, 49, 127
2, 334731, Note_on_c, 4, 76, 127
2, 334836, Note_off_c, 4, 76, 127
2, 334838, Note_on_c, 3, 75, 127
2, 334943, Note_off_c, 3, 75, 127
2, 334943, Note_off_c, 1, 49, 127
2, 334945, Note_on_c, 4, 52, 127
2, 334945, Note_on_c, 1, 73, 127
2, 335050, Note_off_c, 1, 73, 127
2, 335052, Note_on_c, 12, 71, 127
2, 335157, Note_off_c, 12, 71, 127
2, 335157, Note_off_c, 4, 52, 127
2, 335159, Note_on_c, 6, 54, 127
2, 335159, Note_on_c, 11, 70, 127
2, 335264, Note_off_c, 11, 70, 127
2, 335266, Note_on_c, 8, 68, 127
2, 335371, Note_off_c, 8, 68, 127
2, 335371, Note_off_c, 6, 54, 127
2, 335372, Note_on_c, 1, 49, 127
2, 335372, Note_on_c, 6, 66, 127
2, 335477, Note_off_c, 6, 66, 127
2, 335479, Note_on_c, 8, 68, 127
2, 335584, Note_off_c, 8, 68, 127
2, 335584, Note_off_c, 1, 49, 127
2, 335586, Note_on_c, 11, 46, 127
2, 335586, Note_on_c, 11, 70, 127
2, 335691, Note_off_c, 11, 70, 127
2, 335693, Note_on_c, 12, 71, 127
2, 335798, Note_off_c, 12, 71, 127
2, 335798, Note_off_c, 11, 46, 127
2, 335800, Note_on_c, 6, 42, 127
2, 335800, Note_on_c, 1, 73, 127
2, 335905, Note_off_c, 1, 73, 127
2, 335907, Note_on_c, 12, 71, 127
2, 336012, Note_off_c, 12, 71, 127
2, 336012, Note_off_c, 6, 42, 127
2, 336014, Note_on_c, 4, 52, 127
2, 336014, Note_on_c, 11, 70, 127
2, 336119, Note_off_c, 11, 70, 127
2, 336121, Note_on_c, 12, 71, 127
2, 336226, Note_off_c, 12, 71, 127
2, 336226, Note_off_c, 4, 52, 127
2, 336228, Note_on_c, 3, 51, 127
2, 336228, Note_on_c, 1, 73, 127
2, 336333, Note_off_c, 1, 73, 127
2, 336335, Note_on_c, 3, 75, 127
2, 336440, Note_off_c, 3, 75, 127
2, 336440, Note_off_c, 3, 51, 127
2, 336442, Note_on_c, 1, 49, 127
2, 336442, Note_on_c, 4, 76, 127
2, 336547, Note_off_c, 4, 76, 127
2, 336549, Note_on_c, 3, 75, 127
2, 336654, Note_off_c, 3, 75, 127
2, 336654, Note_off_c, 1, 49, 127
2, 336656, Note_on_c, 8, 44, 127
2, 336656, Note_on_c, 1, 73, 127
2, 336761, Note_off_c, 1, 73, 127
2, 336762, Note_on_c, 3, 75, 127
2, 336867, Note_off_c, 3, 75, 127
2, 336868, Note_off_c, 8, 44, 127
2, 336869, Note_on_c, 4, 40, 127
2, 336869, Note_on_c, 4, 76, 127
2, 336974, Note_off_c, 4, 76, 127
2, 336976, Note_on_c, 6, 78, 127
2, 337081, Note_off_c, 6, 78, 127
2, 337081, Note_off_c, 4, 40, 127
2, 337083, Note_on_c, 1, 37, 127
2, 337083, Note_on_c, 8, 80, 127
2, 337188, Note_off_c, 8, 80, 127
2, 337190, Note_on_c, 6, 78, 127
2, 337295, Note_off_c, 6, 78, 127
2, 337295, Note_off_c, 1, 37, 127
2, 337297, Note_on_c, 12, 47, 127
2, 337297, Note_on_c, 4, 76, 127
2, 337402, Note_off_c, 4, 76, 127
2, 337404, Note_on_c, 6, 78, 127
2, 337509, Note_off_c, 6, 78, 127
2, 337509, Note_off_c, 12, 47, 127
2, 337511, Note_on_c, 11, 46, 127
2, 337511, Note_on_c, 8, 80, 127
2, 337616, Note_off_c, 8, 80, 127
2, 337618, Note_on_c, 11, 82, 127
2, 337723, Note_off_c, 11, 82, 127
2, 337723, Note_off_c, 11, 46, 127
2, 337725, Note_on_c, 8, 44, 127
2, 337725, Note_on_c, 12, 83, 127
2, 337830, Note_off_c, 12, 83, 127
2, 337832, Note_on_c, 11, 82, 127
2, 337937, Note_off_c, 11, 82, 127
2, 337937, Note_off_c, 8, 44, 127
2, 337939, Note_on_c, 11, 46, 127
2, 337939, Note_on_c, 8, 80, 127
2, 338044, Note_off_c, 8, 80, 127
2, 338045, Note_on_c, 6, 78, 127
2, 338150, Note_off_c, 6, 78, 127
2, 338151, Note_off_c, 11, 46, 127
2, 338152, Note_on_c, 12, 47, 127
2, 338152, Note_on_c, 4, 76, 127
2, 338257, Note_off_c, 4, 76, 127
2, 338259, Note_on_c, 3, 75, 127
2, 338364, Note_off_c, 3, 75, 127
2, 338364, Note_off_c, 12, 47, 127
2, 338366, Note_on_c, 4, 40, 127
2, 338366, Note_on_c, 8, 80, 127
2, 338471, Note_off_c, 8, 80, 127
2, 338473, Note_on_c, 6, 78, 127
2, 338578, Note_off_c, 6, 78, 127
2, 338580, Note_on_c, 4, 76, 127
2, 338685, Note_off_c, 4, 76, 127
2, 338687, Note_on_c, 3, 75, 127
2, 338792, Note_off_c, 3, 75, 127
2, 338792, Note_off_c, 4, 40, 127
2, 338794, Note_on_c, 4, 52, 127
2, 338794, Note_on_c, 1, 73, 127
2, 338899, Note_off_c, 1, 73, 127
2, 338901, Note_on_c, 12, 71, 127
2, 339006, Note_off_c, 12, 71, 127
2, 339008, Note_on_c, 11, 70, 127
2, 339113, Note_off_c, 11, 70, 127
2, 339113, Note_off_c, 4, 52, 127
2, 339115, Note_on_c, 8, 56, 127
2, 339115, Note_on_c, 1, 73, 127
2, 339220, Note_off_c, 1, 73, 127
2, 339220, Note_off_c, 8, 56, 127
2, 339222, Note_on_c, 6, 54, 127
2, 339222, Note_on_c, 4, 76, 127
2, 339327, Note_off_c, 4, 76, 127
2, 339327, Note_off_c, 6, 54, 127
2, 339329, Note_on_c, 4, 52, 127
2, 339329, Note_on_c, 8, 80, 127
2, 339434, Note_off_c, 8, 80, 127
2, 339434, Note_off_c, 4, 52, 127
2, 339435, Note_on_c, 3, 51, 127
2, 339435, Note_on_c, 6, 78, 127
2, 339540, Note_off_c, 3, 51, 127
2, 339542, Note_on_c, 1, 49, 127
2, 339647, Note_off_c, 1, 49, 127
2, 339649, Note_on_c, 12, 47, 127
2, 339812, Note_off_c, 6, 78, 127
2, 339859, Note_off_c, 12, 47, 127
2, 339862, Note_on_c, 6, 54, 127
2, 339862, Note_on_c, 4, 76, 127
2, 339967, Note_off_c, 4, 76, 127
2, 339968, Note_on_c, 3, 75, 127
2, 340073, Note_off_c, 3, 75, 127
2, 340074, Note_off_c, 6, 54, 127
2, 340075, Note_on_c, 6, 42, 127
2, 340075, Note_on_c, 1, 73, 127
2, 340180, Note_off_c, 1, 73, 127
2, 340182, Note_on_c, 12, 71, 127
2, 340287, Note_off_c, 12, 71, 127
2, 340287, Note_off_c, 6, 42, 127
2, 340289, Note_on_c, 12, 47, 127
2, 340289, Note_on_c, 12, 71, 127
2, 340396, Note_on_c, 3, 75, 127
2, 340501, Note_off_c, 3, 75, 127
2, 340503, Note_on_c, 6, 78, 127
2, 340608, Note_off_c, 6, 78, 127
2, 340610, Note_on_c, 12, 83, 127
2, 340711, Note_off_c, 12, 71, 127
2, 340711, Note_off_c, 12, 47, 127
2, 340715, Note_off_c, 12, 83, 127
2, 340717, Note_on_c, 6, 78, 127
2, 340822, Note_off_c, 6, 78, 127
2, 340824, Note_on_c, 3, 75, 127
2, 340929, Note_off_c, 3, 75, 127
2, 340931, Note_on_c, 11, 46, 127
2, 340931, Note_on_c, 12, 71, 127
2, 341038, Note_on_c, 3, 75, 127
2, 341143, Note_off_c, 3, 75, 127
2, 341145, Note_on_c, 6, 78, 127
2, 341250, Note_off_c, 6, 78, 127
2, 341251, Note_on_c, 12, 83, 127
2, 341353, Note_off_c, 12, 71, 127
2, 341353, Note_off_c, 11, 46, 127
2, 341356, Note_off_c, 12, 83, 127
2, 341358, Note_on_c, 6, 78, 127
2, 341463, Note_off_c, 6, 78, 127
2, 341465, Note_on_c, 3, 75, 127
2, 341570, Note_off_c, 3, 75, 127
2, 341572, Note_on_c, 8, 44, 127
2, 341572, Note_on_c, 12, 71, 127
2, 341677, Note_off_c, 8, 44, 127
2, 341679, Note_on_c, 12, 47, 127
2, 341784, Note_off_c, 12, 47, 127
2, 341786, Note_on_c, 3, 51, 127
2, 341891, Note_off_c, 3, 51, 127
2, 341893, Note_on_c, 8, 56, 127
2, 341998, Note_off_c, 8, 56, 127
2, 342000, Note_on_c, 3, 51, 127
2, 342105, Note_off_c, 3, 51, 127
2, 342107, Note_on_c, 12, 47, 127
2, 342212, Note_off_c, 12, 47, 127
2, 342214, Note_on_c, 6, 42, 127
2, 342319, Note_off_c, 6, 42, 127
2, 342321, Note_on_c, 12, 47, 127
2, 342426, Note_off_c, 12, 47, 127
2, 342428, Note_on_c, 3, 51, 127
2, 342533, Note_off_c, 3, 51, 127
2, 342535, Note_on_c, 6, 54, 127
2, 342640, Note_off_c, 6, 54, 127
2, 342641, Note_on_c, 3, 51, 127
2, 342746, Note_off_c, 3, 51, 127
2, 342748, Note_on_c, 12, 47, 127
2, 342851, Note_off_c, 12, 71, 127
2, 342853, Note_off_c, 12, 47, 127
2, 342855, Note_on_c, 5, 53, 127
2, 342962, Note_on_c, 2, 74, 127
2, 343067, Note_off_c, 2, 74, 127
2, 343069, Note_on_c, 5, 77, 127
2, 343174, Note_off_c, 5, 77, 127
2, 343176, Note_on_c, 8, 80, 127
2, 343277, Note_off_c, 5, 53, 127
2, 343281, Note_off_c, 8, 80, 127
2, 343283, Note_on_c, 5, 77, 127
2, 343388, Note_off_c, 5, 77, 127
2, 343390, Note_on_c, 2, 74, 127
2, 343495, Note_off_c, 2, 74, 127
2, 343497, Note_on_c, 1, 49, 127
2, 343497, Note_on_c, 12, 71, 127
2, 343604, Note_on_c, 2, 74, 127
2, 343709, Note_off_c, 2, 74, 127
2, 343711, Note_on_c, 5, 77, 127
2, 343816, Note_off_c, 5, 77, 127
2, 343818, Note_on_c, 8, 80, 127
2, 343919, Note_off_c, 12, 71, 127
2, 343919, Note_off_c, 1, 49, 127
2, 343923, Note_off_c, 8, 80, 127
2, 343924, Note_on_c, 5, 77, 127
2, 344029, Note_off_c, 5, 77, 127
2, 344031, Note_on_c, 12, 71, 127
2, 344136, Note_off_c, 12, 71, 127
2, 344138, Note_on_c, 6, 54, 127
2, 344138, Note_on_c, 11, 70, 127
2, 344243, Note_off_c, 11, 70, 127
2, 344245, Note_on_c, 6, 66, 127
2, 344350, Note_off_c, 6, 66, 127
2, 344352, Note_on_c, 8, 68, 127
2, 344457, Note_off_c, 8, 68, 127
2, 344459, Note_on_c, 11, 70, 127
2, 344564, Note_off_c, 11, 70, 127
2, 344566, Note_on_c, 12, 71, 127
2, 344671, Note_off_c, 12, 71, 127
2, 344673, Note_on_c, 1, 73, 127
2, 344777, Note_off_c, 6, 54, 127
2, 344778, Note_off_c, 1, 73, 127
2, 344780, Note_on_c, 3, 75, 127
2, 344887, Note_on_c, 8, 56, 127
2, 344992, Note_off_c, 8, 56, 127
2, 344994, Note_on_c, 11, 58, 127
2, 345099, Note_off_c, 11, 58, 127
2, 345101, Note_on_c, 12, 59, 127
2, 345206, Note_off_c, 12, 59, 127
2, 345208, Note_on_c, 1, 61, 127
2, 345313, Note_off_c, 1, 61, 127
2, 345314, Note_on_c, 3, 63, 127
2, 345419, Note_off_c, 3, 63, 127
2, 345421, Note_on_c, 4, 64, 127
2, 345526, Note_off_c, 3, 75, 127
2, 345528, Note_on_c, 8, 68, 127
2, 345633, Note_off_c, 8, 68, 127
2, 345635, Note_on_c, 11, 70, 127
2, 345740, Note_off_c, 11, 70, 127
2, 345742, Note_on_c, 12, 71, 127
2, 345847, Note_off_c, 12, 71, 127
2, 345849, Note_on_c, 1, 73, 127
2, 345954, Note_off_c, 1, 73, 127
2, 345956, Note_on_c, 3, 75, 127
2, 346060, Note_off_c, 4, 64, 127
2, 346061, Note_off_c, 3, 75, 127
2, 346063, Note_on_c, 4, 76, 127
2, 346170, Note_on_c, 6, 66, 127
2, 346275, Note_off_c, 6, 66, 127
2, 346277, Note_on_c, 4, 64, 127
2, 346382, Note_off_c, 4, 64, 127
2, 346384, Note_on_c, 3, 63, 127
2, 346489, Note_off_c, 3, 63, 127
2, 346491, Note_on_c, 1, 61, 127
2, 346596, Note_off_c, 1, 61, 127
2, 346597, Note_on_c, 12, 59, 127
2, 346702, Note_off_c, 12, 59, 127
2, 346704, Note_on_c, 11, 58, 127
2, 346809, Note_off_c, 4, 76, 127
2, 346811, Note_on_c, 8, 68, 127
2, 346916, Note_off_c, 8, 68, 127
2, 346916, Note_off_c, 11, 58, 127
2, 346918, Note_on_c, 12, 59, 127
2, 346918, Note_on_c, 6, 66, 127
2, 347023, Note_off_c, 6, 66, 127
2, 347025, Note_on_c, 4, 64, 127
2, 347130, Note_off_c, 4, 64, 127
2, 347130, Note_off_c, 12, 59, 127
2, 347132, Note_on_c, 1, 61, 127
2, 347132, Note_on_c, 3, 63, 127
2, 347237, Note_off_c, 3, 63, 127
2, 347239, Note_on_c, 4, 64, 127
2, 347344, Note_off_c, 4, 64, 127
2, 347344, Note_off_c, 1, 61, 127
2, 347346, Note_on_c, 6, 54, 127
2, 347346, Note_on_c, 11, 70, 127
2, 347453, Note_on_c, 8, 68, 127
2, 347558, Note_off_c, 8, 68, 127
2, 347560, Note_on_c, 6, 66, 127
2, 347657, Note_off_c, 11, 70, 127
2, 347665, Note_off_c, 6, 66, 127
2, 347667, Note_on_c, 4, 64, 127
2, 347768, Note_off_c, 6, 54, 127
2, 347772, Note_off_c, 4, 64, 127
2, 347774, Note_on_c, 3, 63, 127
2, 347879, Note_off_c, 3, 63, 127
2, 347881, Note_on_c, 4, 64, 127
2, 347986, Note_off_c, 4, 64, 127
2, 347987, Note_on_c, 8, 56, 127
2, 347987, Note_on_c, 12, 71, 127
2, 348094, Note_on_c, 8, 68, 127
2, 348199, Note_off_c, 8, 68, 127
2, 348201, Note_on_c, 6, 66, 127
2, 348298, Note_off_c, 12, 71, 127
2, 348306, Note_off_c, 6, 66, 127
2, 348308, Note_on_c, 4, 64, 127
2, 348409, Note_off_c, 8, 56, 127
2, 348413, Note_off_c, 4, 64, 127
2, 348415, Note_on_c, 3, 63, 127
2, 348520, Note_off_c, 3, 63, 127
2, 348522, Note_on_c, 4, 64, 127
2, 348627, Note_off_c, 4, 64, 127
2, 348629, Note_on_c, 11, 58, 127
2, 348629, Note_on_c, 1, 73, 127
2, 348736, Note_on_c, 8, 68, 127
2, 348841, Note_off_c, 8, 68, 127
2, 348843, Note_on_c, 6, 66, 127
2, 348940, Note_off_c, 1, 73, 127
2, 348948, Note_off_c, 6, 66, 127
2, 348950, Note_on_c, 4, 64, 127
2, 349051, Note_off_c, 11, 58, 127
2, 349055, Note_off_c, 4, 64, 127
2, 349057, Note_on_c, 3, 63, 127
2, 349162, Note_off_c, 3, 63, 127
2, 349164, Note_on_c, 4, 64, 127
2, 349269, Note_off_c, 4, 64, 127
2, 349270, Note_on_c, 12, 59, 127
2, 349270, Note_on_c, 3, 75, 127
2, 349375, Note_off_c, 3, 75, 127
2, 349377, Note_on_c, 1, 73, 127
2, 349482, Note_off_c, 1, 73, 127
2, 349482, Note_off_c, 12, 59, 127
2, 349484, Note_on_c, 11, 58, 127
2, 349484, Note_on_c, 12, 71, 127
2, 349589, Note_off_c, 12, 71, 127
2, 349591, Note_on_c, 1, 73, 127
2, 349696, Note_off_c, 1, 73, 127
2, 349696, Note_off_c, 11, 58, 127
2, 349698, Note_on_c, 8, 56, 127
2, 349698, Note_on_c, 3, 75, 127
2, 349803, Note_off_c, 3, 75, 127
2, 349805, Note_on_c, 4, 76, 127
2, 349910, Note_off_c, 4, 76, 127
2, 349910, Note_off_c, 8, 56, 127
2, 349912, Note_on_c, 3, 51, 127
2, 349912, Note_on_c, 6, 78, 127
2, 350124, Note_off_c, 6, 78, 127
2, 350124, Note_off_c, 3, 51, 127
2, 350126, Note_on_c, 4, 52, 127
2, 350126, Note_on_c, 12, 71, 127
2, 350338, Note_off_c, 12, 71, 127
2, 350338, Note_off_c, 4, 52, 127
2, 350340, Note_on_c, 6, 54, 127
2, 350340, Note_on_c, 11, 70, 127
2, 350552, Note_off_c, 11, 70, 127
2, 350552, Note_off_c, 6, 54, 127
2, 350554, Note_on_c, 12, 47, 127
2, 350554, Note_on_c, 12, 71, 127
2, 350766, Note_off_c, 12, 47, 127
2, 350767, Note_on_c, 3, 51, 127
2, 350979, Note_off_c, 3, 51, 127
2, 350981, Note_on_c, 6, 54, 127
2, 351193, Note_off_c, 6, 54, 127
2, 351195, Note_on_c, 12, 59, 127
2, 351407, Note_off_c, 12, 71, 127
2, 351621, Note_on_c, 6, 78, 127
2, 351833, Note_off_c, 6, 78, 127
2, 351833, Note_off_c, 12, 59, 127
2, 351835, Note_on_c, 12, 71, 127
2, 352047, Note_off_c, 12, 71, 127
2, 352049, Note_on_c, 3, 75, 127
2, 352261, Note_off_c, 3, 75, 127
2, 352263, Note_on_c, 6, 78, 127
2, 352475, Note_off_c, 6, 78, 127
2, 352476, Note_on_c, 12, 83, 127
2, 352688, Note_off_c, 12, 83, 127
2, 352690, Note_on_c, 8, 80, 127
2, 352902, Note_off_c, 8, 80, 127
2, 352904, Note_on_c, 12, 59, 127
2, 352904, Note_on_c, 10, 81, 127
2, 353116, Note_off_c, 10, 81, 127
2, 353116, Note_off_c, 12, 59, 127
2, 353118, Note_on_c, 4, 52, 127
2, 353118, Note_on_c, 8, 80, 127
2, 353330, Note_off_c, 4, 52, 127
2, 353332, Note_on_c, 8, 56, 127
2, 353544, Note_off_c, 8, 56, 127
2, 353546, Note_on_c, 12, 59, 127
2, 353758, Note_off_c, 12, 59, 127
2, 353759, Note_on_c, 4, 64, 127
2, 353971, Note_off_c, 4, 64, 127
2, 353971, Note_off_c, 8, 80, 127
2, 353973, Note_on_c, 1, 61, 127
2, 354185, Note_off_c, 1, 61, 127
2, 354187, Note_on_c, 2, 62, 127
2, 354187, Note_on_c, 8, 80, 127
2, 354399, Note_off_c, 8, 80, 127
2, 354399, Note_off_c, 2, 62, 127
2, 354401, Note_on_c, 1, 61, 127
2, 354401, Note_on_c, 10, 81, 127
2, 354506, Note_off_c, 10, 81, 127
2, 354508, Note_on_c, 8, 80, 127
2, 354613, Note_off_c, 8, 80, 127
2, 354615, Note_on_c, 10, 81, 127
2, 354720, Note_off_c, 10, 81, 127
2, 354722, Note_on_c, 12, 83, 127
2, 354823, Note_off_c, 1, 61, 127
2, 354827, Note_off_c, 12, 83, 127
2, 354829, Note_on_c, 10, 81, 127
2, 354934, Note_off_c, 10, 81, 127
2, 354936, Note_on_c, 8, 80, 127
2, 355041, Note_off_c, 8, 80, 127
2, 355043, Note_on_c, 2, 62, 127
2, 355043, Note_on_c, 6, 78, 127
2, 355148, Note_off_c, 6, 78, 127
2, 355149, Note_on_c, 5, 77, 127
2, 355254, Note_off_c, 5, 77, 127
2, 355256, Note_on_c, 6, 78, 127
2, 355361, Note_off_c, 6, 78, 127
2, 355363, Note_on_c, 8, 80, 127
2, 355465, Note_off_c, 2, 62, 127
2, 355468, Note_off_c, 8, 80, 127
2, 355470, Note_on_c, 10, 81, 127
2, 355575, Note_off_c, 10, 81, 127
2, 355577, Note_on_c, 6, 78, 127
2, 355682, Note_off_c, 6, 78, 127
2, 355684, Note_on_c, 12, 59, 127
2, 355684, Note_on_c, 8, 80, 127
2, 355789, Note_off_c, 8, 80, 127
2, 355791, Note_on_c, 6, 78, 127
2, 355896, Note_off_c, 6, 78, 127
2, 355898, Note_on_c, 8, 80, 127
2, 356003, Note_off_c, 8, 80, 127
2, 356005, Note_on_c, 10, 81, 127
2, 356106, Note_off_c, 12, 59, 127
2, 356110, Note_off_c, 10, 81, 127
2, 356112, Note_on_c, 12, 83, 127
2, 356217, Note_off_c, 12, 83, 127
2, 356219, Note_on_c, 8, 80, 127
2, 356324, Note_off_c, 8, 80, 127
2, 356326, Note_on_c, 1, 61, 127
2, 356326, Note_on_c, 5, 77, 127
2, 356431, Note_off_c, 1, 61, 127
2, 356432, Note_on_c, 12, 59, 127
2, 356537, Note_off_c, 12, 59, 127
2, 356538, Note_off_c, 5, 77, 127
2, 356539, Note_on_c, 1, 61, 127
2, 356539, Note_on_c, 1, 73, 127
2, 356644, Note_off_c, 1, 61, 127
2, 356646, Note_on_c, 2, 62, 127
2, 356751, Note_off_c, 2, 62, 127
2, 356751, Note_off_c, 1, 73, 127
2, 356753, Note_on_c, 1, 61, 127
2, 356753, Note_on_c, 5, 77, 127
2, 356858, Note_off_c, 1, 61, 127
2, 356860, Note_on_c, 12, 59, 127
2, 356965, Note_off_c, 12, 59, 127
2, 356965, Note_off_c, 5, 77, 127
2, 356967, Note_on_c, 10, 57, 127
2, 356967, Note_on_c, 5, 77, 127
2, 357021, Note_on_c, 6, 78, 127
2, 357025, Note_off_c, 5, 77, 127
2, 357072, Note_off_c, 6, 78, 127
2, 357072, Note_off_c, 10, 57, 127
2, 357074, Note_on_c, 8, 56, 127
2, 357074, Note_on_c, 8, 80, 127
2, 357125, Note_off_c, 8, 80, 127
2, 357127, Note_on_c, 6, 78, 127
2, 357178, Note_off_c, 6, 78, 127
2, 357179, Note_off_c, 8, 56, 127
2, 357181, Note_on_c, 10, 57, 127
2, 357181, Note_on_c, 8, 80, 127
2, 357232, Note_off_c, 8, 80, 127
2, 357234, Note_on_c, 6, 78, 127
2, 357285, Note_off_c, 6, 78, 127
2, 357286, Note_off_c, 10, 57, 127
2, 357288, Note_on_c, 12, 59, 127
2, 357288, Note_on_c, 8, 80, 127
2, 357339, Note_off_c, 8, 80, 127
2, 357341, Note_on_c, 6, 78, 127
2, 357392, Note_off_c, 6, 78, 127
2, 357393, Note_off_c, 12, 59, 127
2, 357395, Note_on_c, 10, 57, 127
2, 357395, Note_on_c, 8, 80, 127
2, 357446, Note_off_c, 8, 80, 127
2, 357448, Note_on_c, 6, 78, 127
2, 357499, Note_off_c, 6, 78, 127
2, 357500, Note_off_c, 10, 57, 127
2, 357502, Note_on_c, 8, 56, 127
2, 357502, Note_on_c, 8, 80, 127
2, 357553, Note_off_c, 8, 80, 127
2, 357555, Note_on_c, 6, 78, 127
2, 357606, Note_off_c, 6, 78, 127
2, 357607, Note_off_c, 8, 56, 127
2, 357609, Note_on_c, 6, 54, 127
2, 357609, Note_on_c, 8, 80, 127
2, 357660, Note_off_c, 8, 80, 127
2, 357662, Note_on_c, 6, 78, 127
2, 357713, Note_off_c, 6, 78, 127
2, 357714, Note_off_c, 6, 54, 127
2, 357716, Note_on_c, 4, 52, 127
2, 357716, Note_on_c, 8, 80, 127
2, 357767, Note_off_c, 8, 80, 127
2, 357769, Note_on_c, 6, 78, 127
2, 357820, Note_off_c, 6, 78, 127
2, 357821, Note_off_c, 4, 52, 127
2, 357822, Note_on_c, 6, 54, 127
2, 357822, Note_on_c, 8, 80, 127
2, 357873, Note_off_c, 8, 80, 127
2, 357876, Note_on_c, 6, 78, 127
2, 357927, Note_off_c, 6, 78, 127
2, 357927, Note_off_c, 6, 54, 127
2, 357929, Note_on_c, 8, 56, 127
2, 357929, Note_on_c, 8, 80, 127
2, 357980, Note_off_c, 8, 80, 127
2, 357983, Note_on_c, 6, 78, 127
2, 358034, Note_off_c, 6, 78, 127
2, 358034, Note_off_c, 8, 56, 127
2, 358036, Note_on_c, 6, 54, 127
2, 358036, Note_on_c, 8, 80, 127
2, 358087, Note_off_c, 8, 80, 127
2, 358090, Note_on_c, 6, 78, 127
2, 358141, Note_off_c, 6, 78, 127
2, 358141, Note_off_c, 6, 54, 127
2, 358143, Note_on_c, 4, 52, 127
2, 358143, Note_on_c, 8, 80, 127
2, 358194, Note_off_c, 8, 80, 127
2, 358197, Note_on_c, 6, 78, 127
2, 358248, Note_off_c, 6, 78, 127
2, 358248, Note_off_c, 4, 52, 127
2, 358250, Note_on_c, 2, 50, 127
2, 358250, Note_on_c, 8, 80, 127
2, 358301, Note_off_c, 8, 80, 127
2, 358304, Note_on_c, 6, 78, 127
2, 358355, Note_off_c, 6, 78, 127
2, 358355, Note_off_c, 2, 50, 127
2, 358357, Note_on_c, 1, 49, 127
2, 358357, Note_on_c, 8, 80, 127
2, 358408, Note_off_c, 8, 80, 127
2, 358411, Note_on_c, 6, 78, 127
2, 358462, Note_off_c, 6, 78, 127
2, 358462, Note_off_c, 1, 49, 127
2, 358464, Note_on_c, 2, 50, 127
2, 358464, Note_on_c, 8, 80, 127
2, 358515, Note_off_c, 8, 80, 127
2, 358517, Note_on_c, 6, 78, 127
2, 358568, Note_off_c, 6, 78, 127
2, 358569, Note_off_c, 2, 50, 127
2, 358571, Note_on_c, 4, 52, 127
2, 358571, Note_on_c, 8, 80, 127
2, 358622, Note_off_c, 8, 80, 127
2, 358624, Note_on_c, 6, 78, 127
2, 358676, Note_off_c, 4, 52, 127
2, 358678, Note_on_c, 2, 50, 127
2, 358783, Note_off_c, 2, 50, 127
2, 358785, Note_on_c, 1, 49, 127
2, 358890, Note_off_c, 1, 49, 127
2, 358892, Note_on_c, 12, 47, 127
2, 358980, Note_off_c, 6, 78, 127
2, 358997, Note_off_c, 12, 47, 127
2, 358999, Note_on_c, 10, 45, 127
2, 358999, Note_on_c, 10, 81, 127
2, 359104, Note_off_c, 10, 81, 127
2, 359104, Note_off_c, 10, 45, 127
2, 359105, Note_on_c, 12, 47, 127
2, 359105, Note_on_c, 8, 80, 127
2, 359210, Note_off_c, 8, 80, 127
2, 359210, Note_off_c, 12, 47, 127
2, 359212, Note_on_c, 1, 49, 127
2, 359212, Note_on_c, 6, 78, 127
2, 359317, Note_off_c, 6, 78, 127
2, 359317, Note_off_c, 1, 49, 127
2, 359319, Note_on_c, 12, 47, 127
2, 359319, Note_on_c, 5, 77, 127
2, 359424, Note_off_c, 5, 77, 127
2, 359424, Note_off_c, 12, 47, 127
2, 359426, Note_on_c, 10, 45, 127
2, 359426, Note_on_c, 6, 78, 127
2, 359531, Note_off_c, 6, 78, 127
2, 359531, Note_off_c, 10, 45, 127
2, 359533, Note_on_c, 8, 44, 127
2, 359533, Note_on_c, 12, 71, 127
2, 359638, Note_off_c, 12, 71, 127
2, 359640, Note_on_c, 2, 74, 127
2, 359745, Note_off_c, 2, 74, 127
2, 359747, Note_on_c, 1, 73, 127
2, 359852, Note_off_c, 1, 73, 127
2, 359854, Note_on_c, 12, 71, 127
2, 359955, Note_off_c, 8, 44, 127
2, 359959, Note_off_c, 12, 71, 127
2, 359961, Note_on_c, 11, 70, 127
2, 360066, Note_off_c, 11, 70, 127
2, 360068, Note_on_c, 12, 71, 127
2, 360173, Note_off_c, 12, 71, 127
2, 360175, Note_on_c, 12, 47, 127
2, 360175, Note_on_c, 5, 77, 127
2, 360282, Note_on_c, 2, 74, 127
2, 360387, Note_off_c, 2, 74, 127
2, 360389, Note_on_c, 1, 73, 127
2, 360442, Note_off_c, 5, 77, 127
2, 360494, Note_off_c, 1, 73, 127
2, 360495, Note_on_c, 12, 71, 127
2, 360597, Note_off_c, 12, 47, 127
2, 360600, Note_off_c, 12, 71, 127
2, 360602, Note_on_c, 11, 70, 127
2, 360707, Note_off_c, 11, 70, 127
2, 360709, Note_on_c, 12, 71, 127
2, 360814, Note_off_c, 12, 71, 127
2, 360816, Note_on_c, 10, 45, 127
2, 360816, Note_on_c, 6, 78, 127
2, 360923, Note_on_c, 2, 74, 127
2, 361028, Note_off_c, 2, 74, 127
2, 361030, Note_on_c, 1, 73, 127
2, 361083, Note_off_c, 6, 78, 127
2, 361135, Note_off_c, 1, 73, 127
2, 361137, Note_on_c, 12, 71, 127
2, 361238, Note_off_c, 10, 45, 127
2, 361242, Note_off_c, 12, 71, 127
2, 361244, Note_on_c, 11, 70, 127
2, 361349, Note_off_c, 11, 70, 127
2, 361351, Note_on_c, 12, 71, 127
2, 361456, Note_off_c, 12, 71, 127
2, 361458, Note_on_c, 5, 41, 127
2, 361458, Note_on_c, 8, 80, 127
2, 361565, Note_on_c, 2, 74, 127
2, 361670, Note_off_c, 2, 74, 127
2, 361672, Note_on_c, 1, 73, 127
2, 361725, Note_off_c, 8, 80, 127
2, 361777, Note_off_c, 1, 73, 127
2, 361778, Note_on_c, 12, 71, 127
2, 361880, Note_off_c, 5, 41, 127
2, 361883, Note_off_c, 12, 71, 127
2, 361885, Note_on_c, 10, 69, 127
2, 361990, Note_off_c, 10, 69, 127
2, 361992, Note_on_c, 8, 68, 127
2, 362097, Note_off_c, 8, 68, 127
2, 362099, Note_on_c, 6, 42, 127
2, 362099, Note_on_c, 10, 69, 127
2, 362204, Note_off_c, 10, 69, 127
2, 362206, Note_on_c, 8, 68, 127
2, 362311, Note_off_c, 8, 68, 127
2, 362311, Note_off_c, 6, 42, 127
2, 362313, Note_on_c, 6, 54, 127
2, 362313, Note_on_c, 6, 66, 127
2, 362418, Note_off_c, 6, 66, 127
2, 362420, Note_on_c, 8, 68, 127
2, 362525, Note_off_c, 8, 68, 127
2, 362525, Note_off_c, 6, 54, 127
2, 362527, Note_on_c, 2, 50, 127
2, 362527, Note_on_c, 10, 69, 127
2, 362632, Note_off_c, 10, 69, 127
2, 362634, Note_on_c, 12, 71, 127
2, 362739, Note_off_c, 12, 71, 127
2, 362739, Note_off_c, 2, 50, 127
2, 362741, Note_on_c, 10, 45, 127
2, 362741, Note_on_c, 1, 73, 127
2, 362953, Note_off_c, 1, 73, 127
2, 362953, Note_off_c, 10, 45, 127
2, 362955, Note_on_c, 12, 47, 127
2, 362955, Note_on_c, 6, 66, 127
2, 363167, Note_off_c, 6, 66, 127
2, 363167, Note_off_c, 12, 47, 127
2, 363168, Note_on_c, 1, 49, 127
2, 363168, Note_on_c, 5, 65, 127
2, 363380, Note_off_c, 5, 65, 127
2, 363380, Note_off_c, 1, 49, 127
2, 363382, Note_on_c, 6, 54, 127
2, 363382, Note_on_c, 6, 66, 127
2, 363594, Note_off_c, 6, 54, 127
2, 363596, Note_on_c, 4, 64, 127
2, 363701, Note_off_c, 4, 64, 127
2, 363703, Note_on_c, 2, 62, 127
2, 363808, Note_off_c, 2, 62, 127
2, 363810, Note_on_c, 1, 61, 127
2, 363915, Note_off_c, 1, 61, 127
2, 363917, Note_on_c, 12, 59, 127
2, 364022, Note_off_c, 12, 59, 127
2, 364024, Note_on_c, 10, 57, 127
2, 364129, Note_off_c, 10, 57, 127
2, 364131, Note_on_c, 12, 59, 127
2, 364235, Note_off_c, 6, 66, 127
2, 364236, Note_off_c, 12, 59, 127
2, 364238, Note_on_c, 1, 61, 127
2, 364343, Note_off_c, 1, 61, 127
2, 364345, Note_on_c, 12, 59, 127
2, 364450, Note_off_c, 12, 59, 127
2, 364451, Note_on_c, 10, 57, 127
2, 364451, Note_on_c, 10, 69, 127
2, 364556, Note_off_c, 10, 57, 127
2, 364558, Note_on_c, 8, 56, 127
2, 364663, Note_off_c, 8, 56, 127
2, 364663, Note_off_c, 10, 69, 127
2, 364665, Note_on_c, 6, 54, 127
2, 364665, Note_on_c, 8, 68, 127
2, 364716, Note_off_c, 8, 68, 127
2, 364719, Note_on_c, 10, 69, 127
2, 364770, Note_off_c, 10, 69, 127
2, 364770, Note_off_c, 6, 54, 127
2, 364772, Note_on_c, 8, 56, 127
2, 364772, Note_on_c, 12, 71, 127
2, 364823, Note_off_c, 12, 71, 127
2, 364826, Note_on_c, 10, 69, 127
2, 364877, Note_off_c, 10, 69, 127
2, 364877, Note_off_c, 8, 56, 127
2, 364879, Note_on_c, 10, 57, 127
2, 364879, Note_on_c, 12, 71, 127
2, 364930, Note_off_c, 12, 71, 127
2, 364933, Note_on_c, 10, 69, 127
2, 364984, Note_off_c, 10, 69, 127
2, 364984, Note_off_c, 10, 57, 127
2, 364986, Note_on_c, 8, 56, 127
2, 364986, Note_on_c, 12, 71, 127
2, 365037, Note_off_c, 12, 71, 127
2, 365040, Note_on_c, 10, 69, 127
2, 365091, Note_off_c, 10, 69, 127
2, 365091, Note_off_c, 8, 56, 127
2, 365093, Note_on_c, 6, 54, 127
2, 365093, Note_on_c, 12, 71, 127
2, 365144, Note_off_c, 12, 71, 127
2, 365146, Note_on_c, 10, 69, 127
2, 365197, Note_off_c, 10, 69, 127
2, 365198, Note_off_c, 6, 54, 127
2, 365200, Note_on_c, 4, 52, 127
2, 365200, Note_on_c, 12, 71, 127
2, 365251, Note_off_c, 12, 71, 127
2, 365253, Note_on_c, 10, 69, 127
2, 365304, Note_off_c, 10, 69, 127
2, 365305, Note_off_c, 4, 52, 127
2, 365307, Note_on_c, 3, 51, 127
2, 365307, Note_on_c, 12, 71, 127
2, 365358, Note_off_c, 12, 71, 127
2, 365360, Note_on_c, 10, 69, 127
2, 365411, Note_off_c, 10, 69, 127
2, 365412, Note_off_c, 3, 51, 127
2, 365414, Note_on_c, 4, 52, 127
2, 365414, Note_on_c, 12, 71, 127
2, 365465, Note_off_c, 12, 71, 127
2, 365467, Note_on_c, 10, 69, 127
2, 365518, Note_off_c, 10, 69, 127
2, 365519, Note_off_c, 4, 52, 127
2, 365521, Note_on_c, 6, 54, 127
2, 365521, Note_on_c, 12, 71, 127
2, 365572, Note_off_c, 12, 71, 127
2, 365574, Note_on_c, 10, 69, 127
2, 365625, Note_off_c, 10, 69, 127
2, 365626, Note_off_c, 6, 54, 127
2, 365628, Note_on_c, 4, 52, 127
2, 365628, Note_on_c, 12, 71, 127
2, 365679, Note_off_c, 12, 71, 127
2, 365681, Note_on_c, 10, 69, 127
2, 365732, Note_off_c, 10, 69, 127
2, 365733, Note_off_c, 4, 52, 127
2, 365735, Note_on_c, 3, 51, 127
2, 365735, Note_on_c, 12, 71, 127
2, 365786, Note_off_c, 12, 71, 127
2, 365788, Note_on_c, 10, 69, 127
2, 365839, Note_off_c, 10, 69, 127
2, 365840, Note_off_c, 3, 51, 127
2, 365841, Note_on_c, 1, 49, 127
2, 365841, Note_on_c, 12, 71, 127
2, 365892, Note_off_c, 12, 71, 127
2, 365895, Note_on_c, 10, 69, 127
2, 365946, Note_off_c, 10, 69, 127
2, 365946, Note_off_c, 1, 49, 127
2, 365948, Note_on_c, 12, 47, 127
2, 365948, Note_on_c, 12, 71, 127
2, 365999, Note_off_c, 12, 71, 127
2, 366002, Note_on_c, 10, 69, 127
2, 366053, Note_off_c, 10, 69, 127
2, 366053, Note_off_c, 12, 47, 127
2, 366055, Note_on_c, 1, 49, 127
2, 366055, Note_on_c, 12, 71, 127
2, 366106, Note_off_c, 12, 71, 127
2, 366109, Note_on_c, 10, 69, 127
2, 366160, Note_off_c, 10, 69, 127
2, 366160, Note_off_c, 1, 49, 127
2, 366162, Note_on_c, 3, 51, 127
2, 366162, Note_on_c, 12, 71, 127
2, 366213, Note_off_c, 12, 71, 127
2, 366216, Note_on_c, 10, 69, 127
2, 366267, Note_off_c, 10, 69, 127
2, 366267, Note_off_c, 3, 51, 127
2, 366269, Note_on_c, 1, 49, 127
2, 366269, Note_on_c, 12, 71, 127
2, 366320, Note_off_c, 12, 71, 127
2, 366323, Note_on_c, 10, 69, 127
2, 366374, Note_off_c, 1, 49, 127
2, 366376, Note_on_c, 12, 47, 127
2, 366481, Note_off_c, 12, 47, 127
2, 366483, Note_on_c, 10, 45, 127
2, 366588, Note_off_c, 10, 45, 127
2, 366590, Note_on_c, 8, 44, 127
2, 366695, Note_off_c, 8, 44, 127
2, 366697, Note_on_c, 10, 45, 127
2, 366802, Note_off_c, 10, 45, 127
2, 366804, Note_on_c, 12, 47, 127
2, 366880, Note_off_c, 10, 69, 127
2, 366909, Note_off_c, 12, 47, 127
2, 366911, Note_on_c, 10, 45, 127
2, 366911, Note_on_c, 1, 73, 127
2, 367016, Note_off_c, 1, 73, 127
2, 367016, Note_off_c, 10, 45, 127
2, 367018, Note_on_c, 8, 44, 127
2, 367018, Note_on_c, 12, 71, 127
2, 367123, Note_off_c, 12, 71, 127
2, 367123, Note_off_c, 8, 44, 127
2, 367124, Note_on_c, 6, 42, 127
2, 367124, Note_on_c, 10, 69, 127
2, 367229, Note_off_c, 10, 69, 127
2, 367229, Note_off_c, 6, 42, 127
2, 367231, Note_on_c, 4, 40, 127
2, 367231, Note_on_c, 8, 68, 127
2, 367336, Note_off_c, 8, 68, 127
2, 367338, Note_on_c, 6, 66, 127
2, 367443, Note_off_c, 6, 66, 127
2, 367443, Note_off_c, 4, 40, 127
2, 367445, Note_on_c, 8, 44, 127
2, 367445, Note_on_c, 4, 64, 127
2, 367550, Note_off_c, 4, 64, 127
2, 367552, Note_on_c, 6, 66, 127
2, 367657, Note_off_c, 6, 66, 127
2, 367657, Note_off_c, 8, 44, 127
2, 367659, Note_on_c, 12, 47, 127
2, 367659, Note_on_c, 8, 68, 127
2, 367764, Note_off_c, 8, 68, 127
2, 367766, Note_on_c, 10, 69, 127
2, 367871, Note_off_c, 10, 69, 127
2, 367871, Note_off_c, 12, 47, 127
2, 367873, Note_on_c, 4, 52, 127
2, 367873, Note_on_c, 12, 71, 127
2, 367978, Note_off_c, 12, 71, 127
2, 367980, Note_on_c, 10, 69, 127
2, 368085, Note_off_c, 10, 69, 127
2, 368085, Note_off_c, 4, 52, 127
2, 368087, Note_on_c, 12, 47, 127
2, 368087, Note_on_c, 8, 68, 127
2, 368192, Note_off_c, 8, 68, 127
2, 368194, Note_on_c, 10, 69, 127
2, 368299, Note_off_c, 10, 69, 127
2, 368299, Note_off_c, 12, 47, 127
2, 368301, Note_on_c, 2, 50, 127
2, 368301, Note_on_c, 12, 71, 127
2, 368406, Note_off_c, 12, 71, 127
2, 368408, Note_on_c, 1, 73, 127
2, 368513, Note_off_c, 1, 73, 127
2, 368513, Note_off_c, 2, 50, 127
2, 368514, Note_on_c, 8, 56, 127
2, 368514, Note_on_c, 2, 74, 127
2, 368619, Note_off_c, 8, 56, 127
2, 368621, Note_on_c, 6, 54, 127
2, 368726, Note_off_c, 6, 54, 127
2, 368728, Note_on_c, 4, 52, 127
2, 368758, Note_off_c, 2, 74, 127
2, 368833, Note_off_c, 4, 52, 127
2, 368835, Note_on_c, 2, 50, 127
2, 368835, Note_on_c, 6, 78, 127
2, 368940, Note_off_c, 6, 78, 127
2, 368940, Note_off_c, 2, 50, 127
2, 368942, Note_on_c, 1, 49, 127
2, 368942, Note_on_c, 4, 76, 127
2, 369047, Note_off_c, 4, 76, 127
2, 369047, Note_off_c, 1, 49, 127
2, 369049, Note_on_c, 12, 47, 127
2, 369049, Note_on_c, 2, 74, 127
2, 369154, Note_off_c, 2, 74, 127
2, 369154, Note_off_c, 12, 47, 127
2, 369156, Note_on_c, 10, 45, 127
2, 369156, Note_on_c, 1, 73, 127
2, 369261, Note_off_c, 1, 73, 127
2, 369263, Note_on_c, 12, 71, 127
2, 369368, Note_off_c, 12, 71, 127
2, 369368, Note_off_c, 10, 45, 127
2, 369370, Note_on_c, 1, 49, 127
2, 369370, Note_on_c, 10, 69, 127
2, 369475, Note_off_c, 10, 69, 127
2, 369477, Note_on_c, 12, 71, 127
2, 369582, Note_off_c, 12, 71, 127
2, 369582, Note_off_c, 1, 49, 127
2, 369584, Note_on_c, 4, 52, 127
2, 369584, Note_on_c, 1, 73, 127
2, 369689, Note_off_c, 1, 73, 127
2, 369691, Note_on_c, 3, 75, 127
2, 369796, Note_off_c, 3, 75, 127
2, 369796, Note_off_c, 4, 52, 127
2, 369797, Note_on_c, 11, 46, 127
2, 369797, Note_on_c, 4, 76, 127
2, 369902, Note_off_c, 4, 76, 127
2, 369904, Note_on_c, 3, 75, 127
2, 370009, Note_off_c, 3, 75, 127
2, 370009, Note_off_c, 11, 46, 127
2, 370011, Note_on_c, 1, 49, 127
2, 370011, Note_on_c, 4, 76, 127
2, 370116, Note_off_c, 4, 76, 127
2, 370118, Note_on_c, 8, 80, 127
2, 370223, Note_off_c, 8, 80, 127
2, 370223, Note_off_c, 1, 49, 127
2, 370225, Note_on_c, 6, 54, 127
2, 370225, Note_on_c, 6, 78, 127
2, 370330, Note_off_c, 6, 78, 127
2, 370332, Note_on_c, 4, 76, 127
2, 370437, Note_off_c, 4, 76, 127
2, 370437, Note_off_c, 6, 54, 127
2, 370439, Note_on_c, 12, 47, 127
2, 370439, Note_on_c, 3, 75, 127
2, 370544, Note_off_c, 3, 75, 127
2, 370546, Note_on_c, 1, 73, 127
2, 370651, Note_off_c, 1, 73, 127
2, 370651, Note_off_c, 12, 47, 127
2, 370653, Note_on_c, 3, 51, 127
2, 370653, Note_on_c, 12, 71, 127
2, 370758, Note_off_c, 12, 71, 127
2, 370760, Note_on_c, 1, 73, 127
2, 370865, Note_off_c, 1, 73, 127
2, 370865, Note_off_c, 3, 51, 127
2, 370867, Note_on_c, 6, 54, 127
2, 370867, Note_on_c, 3, 75, 127
2, 370972, Note_off_c, 3, 75, 127
2, 370974, Note_on_c, 4, 76, 127
2, 371079, Note_off_c, 4, 76, 127
2, 371079, Note_off_c, 6, 54, 127
2, 371081, Note_on_c, 10, 57, 127
2, 371081, Note_on_c, 6, 78, 127
2, 371186, Note_off_c, 6, 78, 127
2, 371187, Note_on_c, 4, 76, 127
2, 371292, Note_off_c, 4, 76, 127
2, 371293, Note_off_c, 10, 57, 127
2, 371294, Note_on_c, 6, 54, 127
2, 371294, Note_on_c, 3, 75, 127
2, 371399, Note_off_c, 3, 75, 127
2, 371401, Note_on_c, 4, 76, 127
2, 371506, Note_off_c, 4, 76, 127
2, 371506, Note_off_c, 6, 54, 127
2, 371508, Note_on_c, 10, 57, 127
2, 371508, Note_on_c, 6, 78, 127
2, 371613, Note_off_c, 6, 78, 127
2, 371615, Note_on_c, 8, 80, 127
2, 371720, Note_off_c, 8, 80, 127
2, 371720, Note_off_c, 10, 57, 127
2, 371722, Note_on_c, 3, 63, 127
2, 371722, Note_on_c, 10, 81, 127
2, 371827, Note_off_c, 3, 63, 127
2, 371829, Note_on_c, 1, 61, 127
2, 371934, Note_off_c, 1, 61, 127
2, 371936, Note_on_c, 12, 59, 127
2, 372041, Note_off_c, 12, 59, 127
2, 372043, Note_on_c, 10, 57, 127
2, 372148, Note_off_c, 10, 57, 127
2, 372150, Note_on_c, 8, 56, 127
2, 372255, Note_off_c, 8, 56, 127
2, 372257, Note_on_c, 6, 54, 127
2, 372361, Note_off_c, 10, 81, 127
2, 372362, Note_off_c, 6, 54, 127
2, 372364, Note_on_c, 4, 52, 127
2, 372470, Note_on_c, 12, 71, 127
2, 372575, Note_off_c, 12, 71, 127
2, 372577, Note_on_c, 1, 73, 127
2, 372682, Note_off_c, 1, 73, 127
2, 372684, Note_on_c, 3, 75, 127
2, 372789, Note_off_c, 3, 75, 127
2, 372791, Note_on_c, 4, 76, 127
2, 372896, Note_off_c, 4, 76, 127
2, 372898, Note_on_c, 6, 78, 127
2, 373003, Note_off_c, 6, 78, 127
2, 373005, Note_on_c, 8, 80, 127
2, 373076, Note_off_c, 4, 52, 127
2, 373112, Note_on_c, 4, 52, 127
2, 373217, Note_off_c, 4, 52, 127
2, 373219, Note_on_c, 6, 54, 127
2, 373324, Note_off_c, 6, 54, 127
2, 373326, Note_on_c, 8, 56, 127
2, 373431, Note_off_c, 8, 56, 127
2, 373433, Note_on_c, 10, 57, 127
2, 373538, Note_off_c, 10, 57, 127
2, 373540, Note_on_c, 12, 59, 127
2, 373645, Note_off_c, 12, 59, 127
2, 373647, Note_on_c, 1, 61, 127
2, 373751, Note_off_c, 8, 80, 127
2, 373754, Note_on_c, 10, 69, 127
2, 373859, Note_off_c, 10, 69, 127
2, 373860, Note_on_c, 12, 71, 127
2, 373965, Note_off_c, 12, 71, 127
2, 373967, Note_on_c, 1, 73, 127
2, 374069, Note_off_c, 1, 61, 127
2, 374072, Note_off_c, 1, 73, 127
2, 374074, Note_on_c, 3, 75, 127
2, 374179, Note_off_c, 3, 75, 127
2, 374181, Note_on_c, 4, 76, 127
2, 374286, Note_off_c, 4, 76, 127
2, 374288, Note_on_c, 3, 63, 127
2, 374288, Note_on_c, 6, 78, 127
2, 374393, Note_off_c, 6, 78, 127
2, 374395, Note_on_c, 4, 76, 127
2, 374500, Note_off_c, 4, 76, 127
2, 374502, Note_on_c, 3, 75, 127
2, 374607, Note_off_c, 3, 75, 127
2, 374609, Note_on_c, 1, 73, 127
2, 374710, Note_off_c, 3, 63, 127
2, 374714, Note_off_c, 1, 73, 127
2, 374716, Note_on_c, 12, 71, 127
2, 374821, Note_off_c, 12, 71, 127
2, 374823, Note_on_c, 10, 69, 127
2, 374928, Note_off_c, 10, 69, 127
2, 374930, Note_on_c, 4, 64, 127
2, 374930, Note_on_c, 8, 68, 127
2, 375035, Note_off_c, 8, 68, 127
2, 375037, Note_on_c, 4, 76, 127
2, 375142, Note_off_c, 4, 76, 127
2, 375142, Note_off_c, 4, 64, 127
2, 375143, Note_on_c, 8, 56, 127
2, 375143, Note_on_c, 3, 75, 127
2, 375248, Note_off_c, 3, 75, 127
2, 375250, Note_on_c, 1, 73, 127
2, 375355, Note_off_c, 1, 73, 127
2, 375355, Note_off_c, 8, 56, 127
2, 375357, Note_on_c, 10, 57, 127
2, 375357, Note_on_c, 12, 71, 127
2, 375462, Note_off_c, 12, 71, 127
2, 375464, Note_on_c, 10, 69, 127
2, 375569, Note_off_c, 10, 69, 127
2, 375569, Note_off_c, 10, 57, 127
2, 375571, Note_on_c, 12, 59, 127
2, 375571, Note_on_c, 8, 68, 127
2, 375783, Note_off_c, 8, 68, 127
2, 375783, Note_off_c, 12, 59, 127
2, 375785, Note_on_c, 10, 57, 127
2, 375785, Note_on_c, 10, 69, 127
2, 375997, Note_off_c, 10, 69, 127
2, 375997, Note_off_c, 10, 57, 127
2, 375999, Note_on_c, 12, 59, 127
2, 375999, Note_on_c, 6, 66, 127
2, 376211, Note_off_c, 6, 66, 127
2, 376211, Note_off_c, 12, 59, 127
2, 376213, Note_on_c, 4, 64, 127
2, 376213, Note_on_c, 4, 52, 127
2, 376320, Note_on_c, 8, 68, 127
2, 376426, Note_off_c, 8, 68, 127
2, 376428, Note_on_c, 12, 71, 127
2, 376534, Note_off_c, 12, 71, 127
2, 376537, Note_on_c, 4, 76, 127
2, 376640, Note_off_c, 4, 52, 127
2, 376640, Note_off_c, 4, 64, 127
2, 376642, Note_off_c, 4, 76, 127
2, 376644, Note_on_c, 12, 71, 127
2, 376750, Note_off_c, 12, 71, 127
2, 376752, Note_on_c, 8, 68, 127
2, 376858, Note_off_c, 8, 68, 127
2, 376861, Note_on_c, 4, 64, 127
2, 376861, Note_on_c, 3, 51, 127
2, 376969, Note_on_c, 8, 68, 127
2, 377075, Note_off_c, 8, 68, 127
2, 377078, Note_on_c, 12, 71, 127
2, 377184, Note_off_c, 12, 71, 127
2, 377186, Note_on_c, 4, 76, 127
2, 377290, Note_off_c, 3, 51, 127
2, 377290, Note_off_c, 4, 64, 127
2, 377292, Note_off_c, 4, 76, 127
2, 377295, Note_on_c, 12, 71, 127
2, 377401, Note_off_c, 12, 71, 127
2, 377403, Note_on_c, 8, 68, 127
2, 377509, Note_off_c, 8, 68, 127
2, 377512, Note_on_c, 4, 64, 127
2, 377512, Note_on_c, 1, 49, 127
2, 377618, Note_off_c, 1, 49, 127
2, 377620, Note_on_c, 4, 52, 127
2, 377726, Note_off_c, 4, 52, 127
2, 377729, Note_on_c, 8, 56, 127
2, 377835, Note_off_c, 8, 56, 127
2, 377838, Note_on_c, 1, 61, 127
2, 377944, Note_off_c, 1, 61, 127
2, 377946, Note_on_c, 8, 56, 127
2, 378052, Note_off_c, 8, 56, 127
2, 378055, Note_on_c, 4, 52, 127
2, 378161, Note_off_c, 4, 52, 127
2, 378163, Note_on_c, 12, 47, 127
2, 378269, Note_off_c, 12, 47, 127
2, 378272, Note_on_c, 4, 52, 127
2, 378378, Note_off_c, 4, 52, 127
2, 378380, Note_on_c, 8, 56, 127
2, 378486, Note_off_c, 8, 56, 127
2, 378489, Note_on_c, 12, 59, 127
2, 378595, Note_off_c, 12, 59, 127
2, 378597, Note_on_c, 8, 56, 127
2, 378703, Note_off_c, 8, 56, 127
2, 378706, Note_on_c, 4, 52, 127
2, 378812, Note_off_c, 4, 52, 127
2, 378812, Note_off_c, 4, 64, 127
2, 378814, Note_on_c, 11, 58, 127
2, 378923, Note_on_c, 7, 67, 127
2, 379029, Note_off_c, 7, 67, 127
2, 379031, Note_on_c, 11, 70, 127
2, 379137, Note_off_c, 11, 70, 127
2, 379140, Note_on_c, 1, 73, 127
2, 379243, Note_off_c, 11, 58, 127
2, 379245, Note_off_c, 1, 73, 127
2, 379247, Note_on_c, 11, 70, 127
2, 379353, Note_off_c, 11, 70, 127
2, 379355, Note_on_c, 7, 67, 127
2, 379461, Note_off_c, 7, 67, 127
2, 379464, Note_on_c, 4, 64, 127
2, 379464, Note_on_c, 6, 54, 127
2, 379573, Note_on_c, 7, 67, 127
2, 379679, Note_off_c, 7, 67, 127
2, 379681, Note_on_c, 11, 70, 127
2, 379787, Note_off_c, 11, 70, 127
2, 379790, Note_on_c, 1, 73, 127
2, 379893, Note_off_c, 6, 54, 127
2, 379893, Note_off_c, 4, 64, 127
2, 379896, Note_off_c, 1, 73, 127
2, 379898, Note_on_c, 11, 70, 127
2, 380004, Note_off_c, 11, 70, 127
2, 380007, Note_on_c, 7, 67, 127
2, 380104, Note_off_c, 7, 67, 127
2, 380115, Note_on_c, 12, 47, 127
2, 380115, Note_on_c, 4, 76, 127
2, 380223, Note_off_c, 4, 76, 127
2, 380225, Note_on_c, 3, 75, 127
2, 380333, Note_off_c, 3, 75, 127
2, 380335, Note_off_c, 12, 47, 127
2, 380337, Note_on_c, 4, 52, 127
2, 380337, Note_on_c, 1, 73, 127
2, 380445, Note_off_c, 1, 73, 127
2, 380449, Note_on_c, 12, 71, 127
2, 380557, Note_off_c, 12, 71, 127
2, 380557, Note_off_c, 4, 52, 127
2, 380561, Note_on_c, 10, 81, 127
2, 380561, Note_on_c, 1, 49, 127
2, 380672, Note_off_c, 10, 81, 127
2, 380676, Note_on_c, 8, 80, 127
2, 380787, Note_off_c, 8, 80, 127
2, 380789, Note_off_c, 1, 49, 127
2, 380791, Note_on_c, 6, 78, 127
2, 380791, Note_on_c, 8, 44, 127
2, 380902, Note_off_c, 6, 78, 127
2, 380907, Note_on_c, 4, 76, 127
2, 381018, Note_off_c, 4, 76, 127
2, 381021, Note_off_c, 8, 44, 127
2, 381024, Note_on_c, 10, 45, 127
2, 381024, Note_on_c, 12, 83, 127
2, 381139, Note_off_c, 12, 83, 127
2, 381142, Note_on_c, 10, 81, 127
2, 381257, Note_off_c, 10, 81, 127
2, 381258, Note_off_c, 10, 45, 127
2, 381261, Note_on_c, 12, 47, 127
2, 381261, Note_on_c, 8, 80, 127
2, 381376, Note_off_c, 8, 80, 127
2, 381380, Note_on_c, 6, 78, 127
2, 381495, Note_off_c, 6, 78, 127
2, 381497, Note_off_c, 12, 47, 127
2, 381505, Note_on_c, 4, 76, 127
2, 381505, Note_on_c, 4, 40, 127
2, 381739, Note_off_c, 4, 40, 127
2, 381771, Note_on_c, 8, 44, 127
2, 382005, Note_off_c, 8, 44, 127
2, 382043, Note_on_c, 12, 47, 127
2, 382277, Note_off_c, 12, 47, 127
2, 382337, Note_on_c, 4, 52, 127
2, 384505, Note_off_c, 4, 76, 127
2, 384537, Note_off_c, 4, 52, 127
2, 388608, End_track
3, 0, Start_track
3, 0, Title_t, "MIDI"
3, 1536, End_track
0, 0, End_of_file
