0, 0, Header, 1, 4, 240
1, 0, Start_track
1, 0, Time_signature, 1, 3, 12, 8
1, 0, Tempo, 375000
1, 120, Time_signature, 3, 1, 48, 8
1, 15960, Time_signature, 11, 3, 12, 8
1, 17280, Time_signature, 1, 3, 12, 8
1, 17400, Time_signature, 3, 1, 48, 8
1, 33240, Time_signature, 11, 3, 12, 8
1, 34560, Time_signature, 1, 3, 12, 8
1, 34680, Time_signature, 3, 1, 48, 8
1, 56280, Time_signature, 11, 3, 12, 8
1, 57600, Time_signature, 1, 3, 12, 8
1, 57720, Time_signature, 3, 1, 48, 8
1, 79320, Time_signature, 11, 3, 12, 8
1, 79320, End_track
2, 0, Start_track
2, 0, Title_t, "English Suite 5, 3. Courante"
2, 0, Program_c, 0, 0
2, 0, Note_on_c, 0, 71, 107
2, 96, Note_off_c, 0, 71, 64
2, 120, Note_on_c, 0, 64, 107
2, 120, Note_on_c, 0, 71, 107
2, 120, Note_on_c, 0, 67, 107
2, 408, Note_off_c, 0, 67, 64
2, 408, Note_off_c, 0, 71, 64
2, 408, Note_off_c, 0, 64, 64
2, 480, Note_on_c, 0, 72, 107
2, 576, Note_off_c, 0, 72, 64
2, 600, Note_on_c, 0, 71, 107
2, 696, Note_off_c, 0, 71, 64
2, 720, Note_on_c, 0, 69, 107
2, 816, Note_off_c, 0, 69, 64
2, 840, Note_on_c, 0, 67, 107
2, 936, Note_off_c, 0, 67, 64
2, 960, Note_on_c, 0, 66, 107
2, 1056, Note_off_c, 0, 66, 64
2, 1080, Note_on_c, 0, 64, 107
2, 1176, Note_off_c, 0, 64, 64
2, 1200, Note_on_c, 0, 63, 107
2, 1320, Note_on_c, 0, 72, 107
2, 1320, Note_on_c, 0, 69, 107
2, 1512, Note_off_c, 0, 69, 64
2, 1512, Note_off_c, 0, 63, 64
2, 1512, Note_off_c, 0, 72, 64
2, 1560, Note_on_c, 0, 64, 107
2, 1590, Note_on_c, 0, 67, 107
2, 1620, Note_on_c, 0, 76, 107
2, 1848, Note_off_c, 0, 64, 64
2, 1872, Note_off_c, 0, 76, 64
2, 1872, Note_off_c, 0, 67, 64
2, 1920, Note_on_c, 0, 79, 107
2, 2016, Note_off_c, 0, 79, 64
2, 2040, Note_on_c, 0, 78, 107
2, 2136, Note_off_c, 0, 78, 64
2, 2160, Note_on_c, 0, 76, 107
2, 2256, Note_off_c, 0, 76, 64
2, 2280, Note_on_c, 0, 75, 107
2, 2376, Note_off_c, 0, 75, 64
2, 2400, Note_on_c, 0, 76, 107
2, 2496, Note_off_c, 0, 76, 64
2, 2520, Note_on_c, 0, 78, 107
2, 2544, Note_off_c, 0, 78, 64
2, 2550, Note_on_c, 0, 76, 107
2, 2574, Note_off_c, 0, 76, 64
2, 2580, Note_on_c, 0, 78, 107
2, 2604, Note_off_c, 0, 78, 64
2, 2610, Note_on_c, 0, 76, 107
2, 2634, Note_off_c, 0, 76, 64
2, 2640, Note_on_c, 0, 78, 107
2, 2664, Note_off_c, 0, 78, 64
2, 2670, Note_on_c, 0, 76, 107
2, 2694, Note_off_c, 0, 76, 64
2, 2700, Note_on_c, 0, 78, 107
2, 2724, Note_off_c, 0, 78, 64
2, 2730, Note_on_c, 0, 76, 107
2, 2754, Note_off_c, 0, 76, 64
2, 2760, Note_on_c, 0, 78, 107
2, 2784, Note_off_c, 0, 78, 64
2, 2790, Note_on_c, 0, 76, 107
2, 2814, Note_off_c, 0, 76, 64
2, 2820, Note_on_c, 0, 78, 107
2, 2844, Note_off_c, 0, 78, 64
2, 2850, Note_on_c, 0, 76, 107
2, 2874, Note_off_c, 0, 76, 64
2, 2880, Note_on_c, 0, 75, 107
2, 2928, Note_off_c, 0, 75, 64
2, 2940, Note_on_c, 0, 76, 107
2, 2988, Note_off_c, 0, 76, 64
2, 3000, Note_on_c, 0, 78, 107
2, 3192, Note_off_c, 0, 78, 64
2, 3240, Note_on_c, 0, 71, 107
2, 3432, Note_off_c, 0, 71, 64
2, 3480, Note_on_c, 0, 67, 107
2, 3510, Note_on_c, 0, 71, 107
2, 3540, Note_on_c, 0, 76, 107
2, 3768, Note_off_c, 0, 67, 64
2, 3792, Note_off_c, 0, 71, 64
2, 3792, Note_off_c, 0, 76, 64
2, 3840, Note_on_c, 0, 78, 107
2, 3936, Note_off_c, 0, 78, 64
2, 3960, Note_on_c, 0, 79, 107
2, 3984, Note_off_c, 0, 79, 64
2, 3990, Note_on_c, 0, 78, 107
2, 4014, Note_off_c, 0, 78, 64
2, 4020, Note_on_c, 0, 79, 107
2, 4044, Note_off_c, 0, 79, 64
2, 4050, Note_on_c, 0, 78, 107
2, 4074, Note_off_c, 0, 78, 64
2, 4080, Note_on_c, 0, 79, 107
2, 4104, Note_off_c, 0, 79, 64
2, 4110, Note_on_c, 0, 78, 107
2, 4134, Note_off_c, 0, 78, 64
2, 4140, Note_on_c, 0, 79, 107
2, 4164, Note_off_c, 0, 79, 64
2, 4170, Note_on_c, 0, 78, 107
2, 4194, Note_off_c, 0, 78, 64
2, 4200, Note_on_c, 0, 79, 107
2, 4224, Note_off_c, 0, 79, 64
2, 4230, Note_on_c, 0, 78, 107
2, 4230, Note_on_c, 0, 78, 107
2, 4254, Note_off_c, 0, 78, 64
2, 4254, Note_off_c, 0, 78, 64
2, 4260, Note_on_c, 0, 79, 107
2, 4284, Note_off_c, 0, 79, 64
2, 4290, Note_on_c, 0, 78, 107
2, 4290, Note_on_c, 0, 78, 107
2, 4314, Note_off_c, 0, 78, 64
2, 4314, Note_off_c, 0, 78, 64
2, 4320, Note_on_c, 0, 76, 107
2, 4368, Note_off_c, 0, 76, 64
2, 4380, Note_on_c, 0, 78, 107
2, 4428, Note_off_c, 0, 78, 64
2, 4440, Note_on_c, 0, 79, 107
2, 4632, Note_off_c, 0, 79, 64
2, 4680, Note_on_c, 0, 71, 107
2, 4872, Note_off_c, 0, 71, 64
2, 4920, Note_on_c, 0, 64, 107
2, 4950, Note_on_c, 0, 68, 107
2, 4965, Note_on_c, 0, 76, 107
2, 4980, Note_on_c, 0, 71, 107
2, 5208, Note_off_c, 0, 64, 64
2, 5217, Note_off_c, 0, 76, 64
2, 5232, Note_off_c, 0, 71, 64
2, 5232, Note_off_c, 0, 68, 64
2, 5265, Note_on_c, 0, 74, 107
2, 5361, Note_off_c, 0, 74, 64
2, 5385, Note_on_c, 0, 74, 107
2, 5409, Note_off_c, 0, 74, 64
2, 5415, Note_on_c, 0, 72, 107
2, 5439, Note_off_c, 0, 72, 64
2, 5445, Note_on_c, 0, 74, 107
2, 5469, Note_off_c, 0, 74, 64
2, 5475, Note_on_c, 0, 72, 107
2, 5499, Note_off_c, 0, 72, 64
2, 5505, Note_on_c, 0, 74, 107
2, 5529, Note_off_c, 0, 74, 64
2, 5535, Note_on_c, 0, 72, 107
2, 5559, Note_off_c, 0, 72, 64
2, 5565, Note_on_c, 0, 74, 107
2, 5589, Note_off_c, 0, 74, 64
2, 5595, Note_on_c, 0, 72, 107
2, 5619, Note_off_c, 0, 72, 64
2, 5625, Note_on_c, 0, 74, 107
2, 5649, Note_off_c, 0, 74, 64
2, 5655, Note_on_c, 0, 72, 107
2, 5679, Note_off_c, 0, 72, 64
2, 5685, Note_on_c, 0, 74, 107
2, 5709, Note_off_c, 0, 74, 64
2, 5715, Note_on_c, 0, 72, 107
2, 5739, Note_off_c, 0, 72, 64
2, 5745, Note_on_c, 0, 71, 107
2, 5841, Note_off_c, 0, 71, 64
2, 5880, Note_on_c, 0, 72, 107
2, 6168, Note_off_c, 0, 72, 64
2, 6240, Note_on_c, 0, 71, 107
2, 6336, Note_off_c, 0, 71, 64
2, 6360, Note_on_c, 0, 69, 107
2, 6456, Note_off_c, 0, 69, 64
2, 6480, Note_on_c, 0, 67, 107
2, 6576, Note_off_c, 0, 67, 64
2, 6600, Note_on_c, 0, 66, 107
2, 6696, Note_off_c, 0, 66, 64
2, 6720, Note_on_c, 0, 67, 107
2, 6816, Note_off_c, 0, 67, 64
2, 6840, Note_on_c, 0, 69, 107
2, 6864, Note_off_c, 0, 69, 64
2, 6870, Note_on_c, 0, 67, 107
2, 6894, Note_off_c, 0, 67, 64
2, 6900, Note_on_c, 0, 69, 107
2, 6924, Note_off_c, 0, 69, 64
2, 6930, Note_on_c, 0, 67, 107
2, 6954, Note_off_c, 0, 67, 64
2, 6960, Note_on_c, 0, 69, 107
2, 6984, Note_off_c, 0, 69, 64
2, 6990, Note_on_c, 0, 67, 107
2, 7014, Note_off_c, 0, 67, 64
2, 7020, Note_on_c, 0, 69, 107
2, 7044, Note_off_c, 0, 69, 64
2, 7050, Note_on_c, 0, 67, 107
2, 7074, Note_off_c, 0, 67, 64
2, 7080, Note_on_c, 0, 69, 107
2, 7104, Note_off_c, 0, 69, 64
2, 7110, Note_on_c, 0, 67, 107
2, 7134, Note_off_c, 0, 67, 64
2, 7140, Note_on_c, 0, 69, 107
2, 7164, Note_off_c, 0, 69, 64
2, 7170, Note_on_c, 0, 67, 107
2, 7194, Note_off_c, 0, 67, 64
2, 7200, Note_on_c, 0, 66, 107
2, 7248, Note_off_c, 0, 66, 64
2, 7260, Note_on_c, 0, 67, 107
2, 7308, Note_off_c, 0, 67, 64
2, 7320, Note_on_c, 0, 66, 107
2, 7320, Note_on_c, 0, 69, 107
2, 7608, Note_off_c, 0, 69, 64
2, 7608, Note_off_c, 0, 66, 64
2, 7680, Note_on_c, 0, 81, 107
2, 7776, Note_off_c, 0, 81, 64
2, 7800, Note_on_c, 0, 79, 107
2, 7896, Note_off_c, 0, 79, 64
2, 7920, Note_on_c, 0, 78, 107
2, 8016, Note_off_c, 0, 78, 64
2, 8040, Note_on_c, 0, 76, 107
2, 8136, Note_off_c, 0, 76, 64
2, 8160, Note_on_c, 0, 74, 107
2, 8256, Note_off_c, 0, 74, 64
2, 8280, Note_on_c, 0, 72, 107
2, 8376, Note_off_c, 0, 72, 64
2, 8400, Note_on_c, 0, 71, 107
2, 8496, Note_off_c, 0, 71, 64
2, 8520, Note_on_c, 0, 81, 107
2, 8520, Note_on_c, 0, 72, 107
2, 8712, Note_off_c, 0, 72, 64
2, 8712, Note_off_c, 0, 81, 64
2, 8760, Note_on_c, 0, 72, 107
2, 8760, Note_on_c, 0, 67, 107
2, 8820, Note_off_c, 0, 72, 64
2, 8940, Note_on_c, 0, 71, 107
2, 9053, Note_off_c, 0, 71, 64
2, 9120, Note_on_c, 0, 79, 107
2, 9144, Note_off_c, 0, 67, 64
2, 9216, Note_off_c, 0, 79, 64
2, 9240, Note_on_c, 0, 78, 107
2, 9336, Note_off_c, 0, 78, 64
2, 9360, Note_on_c, 0, 76, 107
2, 9456, Note_off_c, 0, 76, 64
2, 9480, Note_on_c, 0, 74, 107
2, 9576, Note_off_c, 0, 74, 64
2, 9600, Note_on_c, 0, 72, 107
2, 9696, Note_off_c, 0, 72, 64
2, 9720, Note_on_c, 0, 71, 107
2, 9816, Note_off_c, 0, 71, 64
2, 9840, Note_on_c, 0, 69, 107
2, 9936, Note_off_c, 0, 69, 64
2, 9960, Note_on_c, 0, 71, 107
2, 9960, Note_on_c, 0, 79, 107
2, 10152, Note_off_c, 0, 79, 64
2, 10152, Note_off_c, 0, 71, 64
2, 10200, Note_on_c, 0, 71, 107
2, 10200, Note_on_c, 0, 66, 107
2, 10296, Note_off_c, 0, 71, 64
2, 10380, Note_on_c, 0, 69, 107
2, 10488, Note_off_c, 0, 66, 64
2, 10493, Note_off_c, 0, 69, 64
2, 10560, Note_on_c, 0, 72, 107
2, 10656, Note_off_c, 0, 72, 64
2, 10680, Note_on_c, 0, 71, 107
2, 10776, Note_off_c, 0, 71, 64
2, 10800, Note_on_c, 0, 69, 107
2, 10896, Note_off_c, 0, 69, 64
2, 10920, Note_on_c, 0, 67, 107
2, 11016, Note_off_c, 0, 67, 64
2, 11040, Note_on_c, 0, 66, 107
2, 11136, Note_off_c, 0, 66, 64
2, 11160, Note_on_c, 0, 64, 107
2, 11256, Note_off_c, 0, 64, 64
2, 11280, Note_on_c, 0, 62, 107
2, 11376, Note_off_c, 0, 62, 64
2, 11400, Note_on_c, 0, 72, 107
2, 11592, Note_off_c, 0, 72, 64
2, 11640, Note_on_c, 0, 72, 107
2, 11664, Note_off_c, 0, 72, 64
2, 11670, Note_on_c, 0, 71, 107
2, 11694, Note_off_c, 0, 71, 64
2, 11700, Note_on_c, 0, 72, 107
2, 11724, Note_off_c, 0, 72, 64
2, 11730, Note_on_c, 0, 71, 107
2, 11754, Note_off_c, 0, 71, 64
2, 11760, Note_on_c, 0, 72, 107
2, 11784, Note_off_c, 0, 72, 64
2, 11790, Note_on_c, 0, 71, 107
2, 11814, Note_off_c, 0, 71, 64
2, 11820, Note_on_c, 0, 72, 107
2, 11844, Note_off_c, 0, 72, 64
2, 11850, Note_on_c, 0, 71, 107
2, 11874, Note_off_c, 0, 71, 64
2, 11880, Note_on_c, 0, 72, 107
2, 11904, Note_off_c, 0, 72, 64
2, 11910, Note_on_c, 0, 71, 107
2, 11934, Note_off_c, 0, 71, 64
2, 11940, Note_on_c, 0, 72, 107
2, 11964, Note_off_c, 0, 72, 64
2, 11970, Note_on_c, 0, 71, 107
2, 11994, Note_off_c, 0, 71, 64
2, 12000, Note_on_c, 0, 69, 107
2, 12096, Note_off_c, 0, 69, 64
2, 12120, Note_on_c, 0, 67, 107
2, 12216, Note_off_c, 0, 67, 64
2, 12240, Note_on_c, 0, 66, 107
2, 12336, Note_off_c, 0, 66, 64
2, 12360, Note_on_c, 0, 67, 107
2, 12456, Note_off_c, 0, 67, 64
2, 12480, Note_on_c, 0, 69, 107
2, 12576, Note_off_c, 0, 69, 64
2, 12600, Note_on_c, 0, 71, 107
2, 12600, Note_on_c, 0, 66, 107
2, 12624, Note_off_c, 0, 71, 64
2, 12630, Note_on_c, 0, 69, 107
2, 12654, Note_off_c, 0, 69, 64
2, 12660, Note_on_c, 0, 71, 107
2, 12684, Note_off_c, 0, 71, 64
2, 12690, Note_on_c, 0, 69, 107
2, 12714, Note_off_c, 0, 69, 64
2, 12720, Note_on_c, 0, 71, 107
2, 12744, Note_off_c, 0, 71, 64
2, 12750, Note_on_c, 0, 69, 107
2, 12774, Note_off_c, 0, 69, 64
2, 12780, Note_on_c, 0, 71, 107
2, 12804, Note_off_c, 0, 71, 64
2, 12810, Note_on_c, 0, 69, 107
2, 12834, Note_off_c, 0, 69, 64
2, 12840, Note_on_c, 0, 71, 107
2, 12864, Note_off_c, 0, 71, 64
2, 12870, Note_on_c, 0, 69, 107
2, 12894, Note_off_c, 0, 69, 64
2, 12900, Note_on_c, 0, 71, 107
2, 12924, Note_off_c, 0, 71, 64
2, 12930, Note_on_c, 0, 69, 107
2, 12954, Note_off_c, 0, 69, 64
2, 12960, Note_on_c, 0, 67, 107
2, 12984, Note_off_c, 0, 66, 64
2, 13008, Note_off_c, 0, 67, 64
2, 13020, Note_on_c, 0, 69, 107
2, 13068, Note_off_c, 0, 69, 64
2, 13080, Note_on_c, 0, 67, 107
2, 13272, Note_off_c, 0, 67, 64
2, 13320, Note_on_c, 0, 71, 107
2, 13512, Note_off_c, 0, 71, 64
2, 13560, Note_on_c, 0, 76, 107
2, 13584, Note_off_c, 0, 76, 64
2, 13590, Note_on_c, 0, 75, 107
2, 13614, Note_off_c, 0, 75, 64
2, 13620, Note_on_c, 0, 76, 107
2, 13872, Note_off_c, 0, 76, 64
2, 13920, Note_on_c, 0, 78, 107
2, 14016, Note_off_c, 0, 78, 64
2, 14040, Note_on_c, 0, 79, 107
2, 14136, Note_off_c, 0, 79, 64
2, 14160, Note_on_c, 0, 76, 107
2, 14256, Note_off_c, 0, 76, 64
2, 14280, Note_on_c, 0, 73, 107
2, 14376, Note_off_c, 0, 73, 64
2, 14400, Note_on_c, 0, 74, 107
2, 14496, Note_off_c, 0, 74, 64
2, 14520, Note_on_c, 0, 76, 107
2, 14616, Note_off_c, 0, 76, 64
2, 14640, Note_on_c, 0, 79, 107
2, 14736, Note_off_c, 0, 79, 64
2, 14760, Note_on_c, 0, 78, 107
2, 14856, Note_off_c, 0, 78, 64
2, 14880, Note_on_c, 0, 76, 107
2, 14976, Note_off_c, 0, 76, 64
2, 15000, Note_on_c, 0, 74, 107
2, 15096, Note_off_c, 0, 74, 64
2, 15120, Note_on_c, 0, 73, 107
2, 15240, Note_on_c, 0, 83, 107
2, 15432, Note_off_c, 0, 83, 64
2, 15432, Note_off_c, 0, 73, 64
2, 15480, Note_on_c, 0, 70, 107
2, 15480, Note_on_c, 0, 73, 107
2, 15504, Note_off_c, 0, 73, 64
2, 15510, Note_on_c, 0, 71, 107
2, 15534, Note_off_c, 0, 71, 64
2, 15540, Note_on_c, 0, 73, 107
2, 15564, Note_off_c, 0, 73, 64
2, 15570, Note_on_c, 0, 71, 107
2, 15594, Note_off_c, 0, 71, 64
2, 15600, Note_on_c, 0, 73, 107
2, 15624, Note_off_c, 0, 73, 64
2, 15630, Note_on_c, 0, 71, 107
2, 15654, Note_off_c, 0, 71, 64
2, 15660, Note_on_c, 0, 73, 107
2, 15684, Note_off_c, 0, 73, 64
2, 15690, Note_on_c, 0, 71, 107
2, 15714, Note_off_c, 0, 71, 64
2, 15720, Note_on_c, 0, 73, 107
2, 15744, Note_off_c, 0, 73, 64
2, 15750, Note_on_c, 0, 71, 107
2, 15774, Note_off_c, 0, 71, 64
2, 15780, Note_on_c, 0, 73, 107
2, 15804, Note_off_c, 0, 73, 64
2, 15810, Note_on_c, 0, 71, 107
2, 15834, Note_off_c, 0, 71, 64
2, 15840, Note_on_c, 0, 71, 107
2, 15864, Note_off_c, 0, 70, 64
2, 15936, Note_off_c, 0, 71, 64
2, 15960, Note_on_c, 0, 71, 107
2, 16680, Note_on_c, 0, 66, 107
2, 16680, Note_on_c, 0, 63, 107
2, 17064, Note_off_c, 0, 63, 64
2, 17064, Note_off_c, 0, 71, 64
2, 17064, Note_off_c, 0, 66, 64
2, 17280, Note_on_c, 0, 71, 107
2, 17376, Note_off_c, 0, 71, 64
2, 17400, Note_on_c, 0, 64, 107
2, 17400, Note_on_c, 0, 71, 107
2, 17400, Note_on_c, 0, 67, 107
2, 17688, Note_off_c, 0, 67, 64
2, 17688, Note_off_c, 0, 71, 64
2, 17688, Note_off_c, 0, 64, 64
2, 17760, Note_on_c, 0, 72, 107
2, 17856, Note_off_c, 0, 72, 64
2, 17880, Note_on_c, 0, 71, 107
2, 17976, Note_off_c, 0, 71, 64
2, 18000, Note_on_c, 0, 69, 107
2, 18096, Note_off_c, 0, 69, 64
2, 18120, Note_on_c, 0, 67, 107
2, 18216, Note_off_c, 0, 67, 64
2, 18240, Note_on_c, 0, 66, 107
2, 18336, Note_off_c, 0, 66, 64
2, 18360, Note_on_c, 0, 64, 107
2, 18456, Note_off_c, 0, 64, 64
2, 18480, Note_on_c, 0, 63, 107
2, 18600, Note_on_c, 0, 72, 107
2, 18600, Note_on_c, 0, 69, 107
2, 18792, Note_off_c, 0, 69, 64
2, 18792, Note_off_c, 0, 63, 64
2, 18792, Note_off_c, 0, 72, 64
2, 18840, Note_on_c, 0, 64, 107
2, 18870, Note_on_c, 0, 67, 107
2, 18900, Note_on_c, 0, 76, 107
2, 19128, Note_off_c, 0, 64, 64
2, 19152, Note_off_c, 0, 76, 64
2, 19152, Note_off_c, 0, 67, 64
2, 19200, Note_on_c, 0, 79, 107
2, 19296, Note_off_c, 0, 79, 64
2, 19320, Note_on_c, 0, 78, 107
2, 19416, Note_off_c, 0, 78, 64
2, 19440, Note_on_c, 0, 76, 107
2, 19536, Note_off_c, 0, 76, 64
2, 19560, Note_on_c, 0, 75, 107
2, 19656, Note_off_c, 0, 75, 64
2, 19680, Note_on_c, 0, 76, 107
2, 19776, Note_off_c, 0, 76, 64
2, 19800, Note_on_c, 0, 78, 107
2, 19824, Note_off_c, 0, 78, 64
2, 19830, Note_on_c, 0, 76, 107
2, 19854, Note_off_c, 0, 76, 64
2, 19860, Note_on_c, 0, 78, 107
2, 19884, Note_off_c, 0, 78, 64
2, 19890, Note_on_c, 0, 76, 107
2, 19914, Note_off_c, 0, 76, 64
2, 19920, Note_on_c, 0, 78, 107
2, 19944, Note_off_c, 0, 78, 64
2, 19950, Note_on_c, 0, 76, 107
2, 19974, Note_off_c, 0, 76, 64
2, 19980, Note_on_c, 0, 78, 107
2, 20004, Note_off_c, 0, 78, 64
2, 20010, Note_on_c, 0, 76, 107
2, 20034, Note_off_c, 0, 76, 64
2, 20040, Note_on_c, 0, 78, 107
2, 20064, Note_off_c, 0, 78, 64
2, 20070, Note_on_c, 0, 76, 107
2, 20094, Note_off_c, 0, 76, 64
2, 20100, Note_on_c, 0, 78, 107
2, 20124, Note_off_c, 0, 78, 64
2, 20130, Note_on_c, 0, 76, 107
2, 20154, Note_off_c, 0, 76, 64
2, 20160, Note_on_c, 0, 75, 107
2, 20208, Note_off_c, 0, 75, 64
2, 20220, Note_on_c, 0, 76, 107
2, 20268, Note_off_c, 0, 76, 64
2, 20280, Note_on_c, 0, 78, 107
2, 20472, Note_off_c, 0, 78, 64
2, 20520, Note_on_c, 0, 71, 107
2, 20712, Note_off_c, 0, 71, 64
2, 20760, Note_on_c, 0, 67, 107
2, 20790, Note_on_c, 0, 71, 107
2, 20820, Note_on_c, 0, 76, 107
2, 21048, Note_off_c, 0, 67, 64
2, 21072, Note_off_c, 0, 71, 64
2, 21072, Note_off_c, 0, 76, 64
2, 21120, Note_on_c, 0, 78, 107
2, 21216, Note_off_c, 0, 78, 64
2, 21240, Note_on_c, 0, 79, 107
2, 21264, Note_off_c, 0, 79, 64
2, 21270, Note_on_c, 0, 78, 107
2, 21294, Note_off_c, 0, 78, 64
2, 21300, Note_on_c, 0, 79, 107
2, 21324, Note_off_c, 0, 79, 64
2, 21330, Note_on_c, 0, 78, 107
2, 21354, Note_off_c, 0, 78, 64
2, 21360, Note_on_c, 0, 79, 107
2, 21384, Note_off_c, 0, 79, 64
2, 21390, Note_on_c, 0, 78, 107
2, 21414, Note_off_c, 0, 78, 64
2, 21420, Note_on_c, 0, 79, 107
2, 21444, Note_off_c, 0, 79, 64
2, 21450, Note_on_c, 0, 78, 107
2, 21474, Note_off_c, 0, 78, 64
2, 21480, Note_on_c, 0, 79, 107
2, 21504, Note_off_c, 0, 79, 64
2, 21510, Note_on_c, 0, 78, 107
2, 21510, Note_on_c, 0, 78, 107
2, 21534, Note_off_c, 0, 78, 64
2, 21534, Note_off_c, 0, 78, 64
2, 21540, Note_on_c, 0, 79, 107
2, 21564, Note_off_c, 0, 79, 64
2, 21570, Note_on_c, 0, 78, 107
2, 21570, Note_on_c, 0, 78, 107
2, 21594, Note_off_c, 0, 78, 64
2, 21594, Note_off_c, 0, 78, 64
2, 21600, Note_on_c, 0, 76, 107
2, 21648, Note_off_c, 0, 76, 64
2, 21660, Note_on_c, 0, 78, 107
2, 21708, Note_off_c, 0, 78, 64
2, 21720, Note_on_c, 0, 79, 107
2, 21912, Note_off_c, 0, 79, 64
2, 21960, Note_on_c, 0, 71, 107
2, 22152, Note_off_c, 0, 71, 64
2, 22200, Note_on_c, 0, 64, 107
2, 22230, Note_on_c, 0, 68, 107
2, 22245, Note_on_c, 0, 76, 107
2, 22260, Note_on_c, 0, 71, 107
2, 22488, Note_off_c, 0, 64, 64
2, 22497, Note_off_c, 0, 76, 64
2, 22512, Note_off_c, 0, 71, 64
2, 22512, Note_off_c, 0, 68, 64
2, 22545, Note_on_c, 0, 74, 107
2, 22641, Note_off_c, 0, 74, 64
2, 22665, Note_on_c, 0, 74, 107
2, 22689, Note_off_c, 0, 74, 64
2, 22695, Note_on_c, 0, 72, 107
2, 22719, Note_off_c, 0, 72, 64
2, 22725, Note_on_c, 0, 74, 107
2, 22749, Note_off_c, 0, 74, 64
2, 22755, Note_on_c, 0, 72, 107
2, 22779, Note_off_c, 0, 72, 64
2, 22785, Note_on_c, 0, 74, 107
2, 22809, Note_off_c, 0, 74, 64
2, 22815, Note_on_c, 0, 72, 107
2, 22839, Note_off_c, 0, 72, 64
2, 22845, Note_on_c, 0, 74, 107
2, 22869, Note_off_c, 0, 74, 64
2, 22875, Note_on_c, 0, 72, 107
2, 22899, Note_off_c, 0, 72, 64
2, 22905, Note_on_c, 0, 74, 107
2, 22929, Note_off_c, 0, 74, 64
2, 22935, Note_on_c, 0, 72, 107
2, 22959, Note_off_c, 0, 72, 64
2, 22965, Note_on_c, 0, 74, 107
2, 22989, Note_off_c, 0, 74, 64
2, 22995, Note_on_c, 0, 72, 107
2, 23019, Note_off_c, 0, 72, 64
2, 23025, Note_on_c, 0, 71, 107
2, 23121, Note_off_c, 0, 71, 64
2, 23160, Note_on_c, 0, 72, 107
2, 23448, Note_off_c, 0, 72, 64
2, 23520, Note_on_c, 0, 71, 107
2, 23616, Note_off_c, 0, 71, 64
2, 23640, Note_on_c, 0, 69, 107
2, 23736, Note_off_c, 0, 69, 64
2, 23760, Note_on_c, 0, 67, 107
2, 23856, Note_off_c, 0, 67, 64
2, 23880, Note_on_c, 0, 66, 107
2, 23976, Note_off_c, 0, 66, 64
2, 24000, Note_on_c, 0, 67, 107
2, 24096, Note_off_c, 0, 67, 64
2, 24120, Note_on_c, 0, 69, 107
2, 24144, Note_off_c, 0, 69, 64
2, 24150, Note_on_c, 0, 67, 107
2, 24174, Note_off_c, 0, 67, 64
2, 24180, Note_on_c, 0, 69, 107
2, 24204, Note_off_c, 0, 69, 64
2, 24210, Note_on_c, 0, 67, 107
2, 24234, Note_off_c, 0, 67, 64
2, 24240, Note_on_c, 0, 69, 107
2, 24264, Note_off_c, 0, 69, 64
2, 24270, Note_on_c, 0, 67, 107
2, 24294, Note_off_c, 0, 67, 64
2, 24300, Note_on_c, 0, 69, 107
2, 24324, Note_off_c, 0, 69, 64
2, 24330, Note_on_c, 0, 67, 107
2, 24354, Note_off_c, 0, 67, 64
2, 24360, Note_on_c, 0, 69, 107
2, 24384, Note_off_c, 0, 69, 64
2, 24390, Note_on_c, 0, 67, 107
2, 24414, Note_off_c, 0, 67, 64
2, 24420, Note_on_c, 0, 69, 107
2, 24444, Note_off_c, 0, 69, 64
2, 24450, Note_on_c, 0, 67, 107
2, 24474, Note_off_c, 0, 67, 64
2, 24480, Note_on_c, 0, 66, 107
2, 24528, Note_off_c, 0, 66, 64
2, 24540, Note_on_c, 0, 67, 107
2, 24588, Note_off_c, 0, 67, 64
2, 24600, Note_on_c, 0, 66, 107
2, 24600, Note_on_c, 0, 69, 107
2, 24888, Note_off_c, 0, 69, 64
2, 24888, Note_off_c, 0, 66, 64
2, 24960, Note_on_c, 0, 81, 107
2, 25056, Note_off_c, 0, 81, 64
2, 25080, Note_on_c, 0, 79, 107
2, 25176, Note_off_c, 0, 79, 64
2, 25200, Note_on_c, 0, 78, 107
2, 25296, Note_off_c, 0, 78, 64
2, 25320, Note_on_c, 0, 76, 107
2, 25416, Note_off_c, 0, 76, 64
2, 25440, Note_on_c, 0, 74, 107
2, 25536, Note_off_c, 0, 74, 64
2, 25560, Note_on_c, 0, 72, 107
2, 25656, Note_off_c, 0, 72, 64
2, 25680, Note_on_c, 0, 71, 107
2, 25776, Note_off_c, 0, 71, 64
2, 25800, Note_on_c, 0, 81, 107
2, 25800, Note_on_c, 0, 72, 107
2, 25992, Note_off_c, 0, 72, 64
2, 25992, Note_off_c, 0, 81, 64
2, 26040, Note_on_c, 0, 72, 107
2, 26040, Note_on_c, 0, 67, 107
2, 26100, Note_off_c, 0, 72, 64
2, 26220, Note_on_c, 0, 71, 107
2, 26333, Note_off_c, 0, 71, 64
2, 26400, Note_on_c, 0, 79, 107
2, 26424, Note_off_c, 0, 67, 64
2, 26496, Note_off_c, 0, 79, 64
2, 26520, Note_on_c, 0, 78, 107
2, 26616, Note_off_c, 0, 78, 64
2, 26640, Note_on_c, 0, 76, 107
2, 26736, Note_off_c, 0, 76, 64
2, 26760, Note_on_c, 0, 74, 107
2, 26856, Note_off_c, 0, 74, 64
2, 26880, Note_on_c, 0, 72, 107
2, 26976, Note_off_c, 0, 72, 64
2, 27000, Note_on_c, 0, 71, 107
2, 27096, Note_off_c, 0, 71, 64
2, 27120, Note_on_c, 0, 69, 107
2, 27216, Note_off_c, 0, 69, 64
2, 27240, Note_on_c, 0, 71, 107
2, 27240, Note_on_c, 0, 79, 107
2, 27432, Note_off_c, 0, 79, 64
2, 27432, Note_off_c, 0, 71, 64
2, 27480, Note_on_c, 0, 71, 107
2, 27480, Note_on_c, 0, 66, 107
2, 27576, Note_off_c, 0, 71, 64
2, 27660, Note_on_c, 0, 69, 107
2, 27768, Note_off_c, 0, 66, 64
2, 27773, Note_off_c, 0, 69, 64
2, 27840, Note_on_c, 0, 72, 107
2, 27936, Note_off_c, 0, 72, 64
2, 27960, Note_on_c, 0, 71, 107
2, 28056, Note_off_c, 0, 71, 64
2, 28080, Note_on_c, 0, 69, 107
2, 28176, Note_off_c, 0, 69, 64
2, 28200, Note_on_c, 0, 67, 107
2, 28296, Note_off_c, 0, 67, 64
2, 28320, Note_on_c, 0, 66, 107
2, 28416, Note_off_c, 0, 66, 64
2, 28440, Note_on_c, 0, 64, 107
2, 28536, Note_off_c, 0, 64, 64
2, 28560, Note_on_c, 0, 62, 107
2, 28656, Note_off_c, 0, 62, 64
2, 28680, Note_on_c, 0, 72, 107
2, 28872, Note_off_c, 0, 72, 64
2, 28920, Note_on_c, 0, 72, 107
2, 28944, Note_off_c, 0, 72, 64
2, 28950, Note_on_c, 0, 71, 107
2, 28974, Note_off_c, 0, 71, 64
2, 28980, Note_on_c, 0, 72, 107
2, 29004, Note_off_c, 0, 72, 64
2, 29010, Note_on_c, 0, 71, 107
2, 29034, Note_off_c, 0, 71, 64
2, 29040, Note_on_c, 0, 72, 107
2, 29064, Note_off_c, 0, 72, 64
2, 29070, Note_on_c, 0, 71, 107
2, 29094, Note_off_c, 0, 71, 64
2, 29100, Note_on_c, 0, 72, 107
2, 29124, Note_off_c, 0, 72, 64
2, 29130, Note_on_c, 0, 71, 107
2, 29154, Note_off_c, 0, 71, 64
2, 29160, Note_on_c, 0, 72, 107
2, 29184, Note_off_c, 0, 72, 64
2, 29190, Note_on_c, 0, 71, 107
2, 29214, Note_off_c, 0, 71, 64
2, 29220, Note_on_c, 0, 72, 107
2, 29244, Note_off_c, 0, 72, 64
2, 29250, Note_on_c, 0, 71, 107
2, 29274, Note_off_c, 0, 71, 64
2, 29280, Note_on_c, 0, 69, 107
2, 29376, Note_off_c, 0, 69, 64
2, 29400, Note_on_c, 0, 67, 107
2, 29496, Note_off_c, 0, 67, 64
2, 29520, Note_on_c, 0, 66, 107
2, 29616, Note_off_c, 0, 66, 64
2, 29640, Note_on_c, 0, 67, 107
2, 29736, Note_off_c, 0, 67, 64
2, 29760, Note_on_c, 0, 69, 107
2, 29856, Note_off_c, 0, 69, 64
2, 29880, Note_on_c, 0, 71, 107
2, 29880, Note_on_c, 0, 66, 107
2, 29904, Note_off_c, 0, 71, 64
2, 29910, Note_on_c, 0, 69, 107
2, 29934, Note_off_c, 0, 69, 64
2, 29940, Note_on_c, 0, 71, 107
2, 29964, Note_off_c, 0, 71, 64
2, 29970, Note_on_c, 0, 69, 107
2, 29994, Note_off_c, 0, 69, 64
2, 30000, Note_on_c, 0, 71, 107
2, 30024, Note_off_c, 0, 71, 64
2, 30030, Note_on_c, 0, 69, 107
2, 30054, Note_off_c, 0, 69, 64
2, 30060, Note_on_c, 0, 71, 107
2, 30084, Note_off_c, 0, 71, 64
2, 30090, Note_on_c, 0, 69, 107
2, 30114, Note_off_c, 0, 69, 64
2, 30120, Note_on_c, 0, 71, 107
2, 30144, Note_off_c, 0, 71, 64
2, 30150, Note_on_c, 0, 69, 107
2, 30174, Note_off_c, 0, 69, 64
2, 30180, Note_on_c, 0, 71, 107
2, 30204, Note_off_c, 0, 71, 64
2, 30210, Note_on_c, 0, 69, 107
2, 30234, Note_off_c, 0, 69, 64
2, 30240, Note_on_c, 0, 67, 107
2, 30264, Note_off_c, 0, 66, 64
2, 30288, Note_off_c, 0, 67, 64
2, 30300, Note_on_c, 0, 69, 107
2, 30348, Note_off_c, 0, 69, 64
2, 30360, Note_on_c, 0, 67, 107
2, 30552, Note_off_c, 0, 67, 64
2, 30600, Note_on_c, 0, 71, 107
2, 30792, Note_off_c, 0, 71, 64
2, 30840, Note_on_c, 0, 76, 107
2, 30864, Note_off_c, 0, 76, 64
2, 30870, Note_on_c, 0, 75, 107
2, 30894, Note_off_c, 0, 75, 64
2, 30900, Note_on_c, 0, 76, 107
2, 31152, Note_off_c, 0, 76, 64
2, 31200, Note_on_c, 0, 78, 107
2, 31296, Note_off_c, 0, 78, 64
2, 31320, Note_on_c, 0, 79, 107
2, 31416, Note_off_c, 0, 79, 64
2, 31440, Note_on_c, 0, 76, 107
2, 31536, Note_off_c, 0, 76, 64
2, 31560, Note_on_c, 0, 73, 107
2, 31656, Note_off_c, 0, 73, 64
2, 31680, Note_on_c, 0, 74, 107
2, 31776, Note_off_c, 0, 74, 64
2, 31800, Note_on_c, 0, 76, 107
2, 31896, Note_off_c, 0, 76, 64
2, 31920, Note_on_c, 0, 79, 107
2, 32016, Note_off_c, 0, 79, 64
2, 32040, Note_on_c, 0, 78, 107
2, 32136, Note_off_c, 0, 78, 64
2, 32160, Note_on_c, 0, 76, 107
2, 32256, Note_off_c, 0, 76, 64
2, 32280, Note_on_c, 0, 74, 107
2, 32376, Note_off_c, 0, 74, 64
2, 32400, Note_on_c, 0, 73, 107
2, 32520, Note_on_c, 0, 83, 107
2, 32712, Note_off_c, 0, 83, 64
2, 32712, Note_off_c, 0, 73, 64
2, 32760, Note_on_c, 0, 70, 107
2, 32760, Note_on_c, 0, 73, 107
2, 32784, Note_off_c, 0, 73, 64
2, 32790, Note_on_c, 0, 71, 107
2, 32814, Note_off_c, 0, 71, 64
2, 32820, Note_on_c, 0, 73, 107
2, 32844, Note_off_c, 0, 73, 64
2, 32850, Note_on_c, 0, 71, 107
2, 32874, Note_off_c, 0, 71, 64
2, 32880, Note_on_c, 0, 73, 107
2, 32904, Note_off_c, 0, 73, 64
2, 32910, Note_on_c, 0, 71, 107
2, 32934, Note_off_c, 0, 71, 64
2, 32940, Note_on_c, 0, 73, 107
2, 32964, Note_off_c, 0, 73, 64
2, 32970, Note_on_c, 0, 71, 107
2, 32994, Note_off_c, 0, 71, 64
2, 33000, Note_on_c, 0, 73, 107
2, 33024, Note_off_c, 0, 73, 64
2, 33030, Note_on_c, 0, 71, 107
2, 33054, Note_off_c, 0, 71, 64
2, 33060, Note_on_c, 0, 73, 107
2, 33084, Note_off_c, 0, 73, 64
2, 33090, Note_on_c, 0, 71, 107
2, 33114, Note_off_c, 0, 71, 64
2, 33120, Note_on_c, 0, 71, 107
2, 33144, Note_off_c, 0, 70, 64
2, 33216, Note_off_c, 0, 71, 64
2, 33240, Note_on_c, 0, 71, 107
2, 33960, Note_on_c, 0, 66, 107
2, 33960, Note_on_c, 0, 63, 107
2, 34344, Note_off_c, 0, 63, 64
2, 34344, Note_off_c, 0, 71, 64
2, 34344, Note_off_c, 0, 66, 64
2, 34560, Note_on_c, 0, 78, 107
2, 34656, Note_off_c, 0, 78, 64
2, 34680, Note_on_c, 0, 71, 107
2, 34680, Note_on_c, 0, 78, 107
2, 34680, Note_on_c, 0, 75, 107
2, 34872, Note_off_c, 0, 75, 64
2, 34872, Note_off_c, 0, 78, 64
2, 34872, Note_off_c, 0, 71, 64
2, 34920, Note_on_c, 0, 76, 107
2, 35016, Note_off_c, 0, 76, 64
2, 35040, Note_on_c, 0, 75, 107
2, 35136, Note_off_c, 0, 75, 64
2, 35160, Note_on_c, 0, 73, 107
2, 35256, Note_off_c, 0, 73, 64
2, 35280, Note_on_c, 0, 71, 107
2, 35376, Note_off_c, 0, 71, 64
2, 35400, Note_on_c, 0, 73, 107
2, 35496, Note_off_c, 0, 73, 64
2, 35520, Note_on_c, 0, 75, 107
2, 35616, Note_off_c, 0, 75, 64
2, 35640, Note_on_c, 0, 76, 107
2, 35736, Note_off_c, 0, 76, 64
2, 35760, Note_on_c, 0, 78, 107
2, 35856, Note_off_c, 0, 78, 64
2, 35880, Note_on_c, 0, 79, 107
2, 35904, Note_off_c, 0, 79, 64
2, 35910, Note_on_c, 0, 78, 107
2, 35934, Note_off_c, 0, 78, 64
2, 35940, Note_on_c, 0, 79, 107
2, 35964, Note_off_c, 0, 79, 64
2, 35970, Note_on_c, 0, 78, 107
2, 35994, Note_off_c, 0, 78, 64
2, 36000, Note_on_c, 0, 79, 107
2, 36024, Note_off_c, 0, 79, 64
2, 36030, Note_on_c, 0, 78, 107
2, 36054, Note_off_c, 0, 78, 64
2, 36060, Note_on_c, 0, 76, 107
2, 36084, Note_off_c, 0, 76, 64
2, 36090, Note_on_c, 0, 78, 107
2, 36114, Note_off_c, 0, 78, 64
2, 36120, Note_on_c, 0, 71, 107
2, 36150, Note_on_c, 0, 76, 107
2, 36180, Note_on_c, 0, 79, 107
2, 36432, Note_off_c, 0, 79, 64
2, 36432, Note_off_c, 0, 76, 64
2, 36480, Note_on_c, 0, 64, 107
2, 36570, Note_off_c, 0, 71, 64
2, 36576, Note_off_c, 0, 64, 64
2, 36600, Note_on_c, 0, 66, 107
2, 36696, Note_off_c, 0, 66, 64
2, 36720, Note_on_c, 0, 68, 107
2, 36816, Note_off_c, 0, 68, 64
2, 36840, Note_on_c, 0, 69, 107
2, 36936, Note_off_c, 0, 69, 64
2, 36960, Note_on_c, 0, 71, 107
2, 37056, Note_off_c, 0, 71, 64
2, 37080, Note_on_c, 0, 72, 107
2, 37176, Note_off_c, 0, 72, 64
2, 37200, Note_on_c, 0, 74, 107
2, 37320, Note_on_c, 0, 68, 107
2, 37416, Note_off_c, 0, 74, 64
2, 37440, Note_on_c, 0, 74, 107
2, 37512, Note_off_c, 0, 68, 64
2, 37536, Note_off_c, 0, 74, 64
2, 37560, Note_on_c, 0, 69, 107
2, 37560, Note_on_c, 0, 72, 107
2, 37848, Note_off_c, 0, 72, 64
2, 37920, Note_on_c, 0, 74, 107
2, 38016, Note_off_c, 0, 74, 64
2, 38040, Note_on_c, 0, 76, 107
2, 38136, Note_off_c, 0, 76, 64
2, 38160, Note_on_c, 0, 74, 107
2, 38256, Note_off_c, 0, 74, 64
2, 38280, Note_on_c, 0, 76, 107
2, 38328, Note_off_c, 0, 69, 64
2, 38376, Note_off_c, 0, 76, 64
2, 38400, Note_on_c, 0, 77, 107
2, 38496, Note_off_c, 0, 77, 64
2, 38520, Note_on_c, 0, 68, 107
2, 38520, Note_on_c, 0, 72, 107
2, 38544, Note_off_c, 0, 72, 64
2, 38550, Note_on_c, 0, 71, 107
2, 38574, Note_off_c, 0, 71, 64
2, 38580, Note_on_c, 0, 72, 107
2, 38604, Note_off_c, 0, 72, 64
2, 38610, Note_on_c, 0, 71, 107
2, 38634, Note_off_c, 0, 71, 64
2, 38640, Note_on_c, 0, 72, 107
2, 38664, Note_off_c, 0, 72, 64
2, 38670, Note_on_c, 0, 71, 107
2, 38694, Note_off_c, 0, 71, 64
2, 38700, Note_on_c, 0, 72, 107
2, 38724, Note_off_c, 0, 72, 64
2, 38730, Note_on_c, 0, 71, 107
2, 38754, Note_off_c, 0, 71, 64
2, 38760, Note_on_c, 0, 72, 107
2, 38784, Note_off_c, 0, 72, 64
2, 38790, Note_on_c, 0, 71, 107
2, 38814, Note_off_c, 0, 71, 64
2, 38820, Note_on_c, 0, 72, 107
2, 38844, Note_off_c, 0, 72, 64
2, 38850, Note_on_c, 0, 71, 107
2, 38874, Note_off_c, 0, 71, 64
2, 38880, Note_on_c, 0, 69, 107
2, 38904, Note_off_c, 0, 68, 64
2, 38976, Note_off_c, 0, 69, 64
2, 39000, Note_on_c, 0, 64, 107
2, 39000, Note_on_c, 0, 60, 107
2, 39000, Note_on_c, 0, 69, 107
2, 39288, Note_off_c, 0, 69, 64
2, 39288, Note_off_c, 0, 60, 64
2, 39288, Note_off_c, 0, 64, 64
2, 39360, Note_on_c, 0, 71, 107
2, 39456, Note_off_c, 0, 71, 64
2, 39480, Note_on_c, 0, 73, 107
2, 39576, Note_off_c, 0, 73, 64
2, 39600, Note_on_c, 0, 74, 107
2, 39696, Note_off_c, 0, 74, 64
2, 39720, Note_on_c, 0, 76, 107
2, 39816, Note_off_c, 0, 76, 64
2, 39840, Note_on_c, 0, 78, 107
2, 39936, Note_off_c, 0, 78, 64
2, 39960, Note_on_c, 0, 79, 107
2, 40056, Note_off_c, 0, 79, 64
2, 40080, Note_on_c, 0, 81, 107
2, 40200, Note_on_c, 0, 72, 107
2, 40200, Note_on_c, 0, 74, 107
2, 40296, Note_off_c, 0, 81, 64
2, 40320, Note_on_c, 0, 81, 107
2, 40392, Note_off_c, 0, 74, 64
2, 40392, Note_off_c, 0, 72, 64
2, 40416, Note_off_c, 0, 81, 64
2, 40440, Note_on_c, 0, 83, 107
2, 40536, Note_off_c, 0, 83, 64
2, 40560, Note_on_c, 0, 84, 107
2, 40656, Note_off_c, 0, 84, 64
2, 40680, Note_on_c, 0, 83, 107
2, 40776, Note_off_c, 0, 83, 64
2, 40800, Note_on_c, 0, 81, 107
2, 40896, Note_off_c, 0, 81, 64
2, 40920, Note_on_c, 0, 79, 107
2, 41016, Note_off_c, 0, 79, 64
2, 41040, Note_on_c, 0, 78, 107
2, 41136, Note_off_c, 0, 78, 64
2, 41160, Note_on_c, 0, 76, 107
2, 41256, Note_off_c, 0, 76, 64
2, 41280, Note_on_c, 0, 74, 107
2, 41376, Note_off_c, 0, 74, 64
2, 41400, Note_on_c, 0, 73, 107
2, 41496, Note_off_c, 0, 73, 64
2, 41520, Note_on_c, 0, 74, 107
2, 41616, Note_off_c, 0, 74, 64
2, 41640, Note_on_c, 0, 76, 107
2, 41664, Note_off_c, 0, 76, 64
2, 41670, Note_on_c, 0, 74, 107
2, 41694, Note_off_c, 0, 74, 64
2, 41700, Note_on_c, 0, 76, 107
2, 41724, Note_off_c, 0, 76, 64
2, 41730, Note_on_c, 0, 74, 107
2, 41754, Note_off_c, 0, 74, 64
2, 41760, Note_on_c, 0, 76, 107
2, 41784, Note_off_c, 0, 76, 64
2, 41790, Note_on_c, 0, 74, 107
2, 41814, Note_off_c, 0, 74, 64
2, 41820, Note_on_c, 0, 73, 107
2, 41844, Note_off_c, 0, 73, 64
2, 41850, Note_on_c, 0, 74, 107
2, 41874, Note_off_c, 0, 74, 64
2, 41880, Note_on_c, 0, 76, 107
2, 42072, Note_off_c, 0, 76, 64
2, 42120, Note_on_c, 0, 69, 107
2, 42120, Note_on_c, 0, 69, 107
2, 42216, Note_off_c, 0, 69, 64
2, 42240, Note_on_c, 0, 71, 107
2, 42288, Note_off_c, 0, 71, 64
2, 42300, Note_on_c, 0, 73, 107
2, 42348, Note_off_c, 0, 73, 64
2, 42360, Note_on_c, 0, 74, 107
2, 42384, Note_off_c, 0, 74, 64
2, 42390, Note_on_c, 0, 73, 107
2, 42414, Note_off_c, 0, 73, 64
2, 42420, Note_on_c, 0, 74, 107
2, 42444, Note_off_c, 0, 74, 64
2, 42450, Note_on_c, 0, 73, 107
2, 42474, Note_off_c, 0, 73, 64
2, 42480, Note_on_c, 0, 74, 107
2, 42504, Note_off_c, 0, 74, 64
2, 42510, Note_on_c, 0, 73, 107
2, 42534, Note_off_c, 0, 73, 64
2, 42540, Note_on_c, 0, 74, 107
2, 42564, Note_off_c, 0, 74, 64
2, 42570, Note_on_c, 0, 73, 107
2, 42594, Note_off_c, 0, 73, 64
2, 42600, Note_on_c, 0, 74, 107
2, 42624, Note_off_c, 0, 74, 64
2, 42630, Note_on_c, 0, 73, 107
2, 42654, Note_off_c, 0, 73, 64
2, 42660, Note_on_c, 0, 74, 107
2, 42684, Note_off_c, 0, 74, 64
2, 42690, Note_on_c, 0, 73, 107
2, 42714, Note_off_c, 0, 73, 64
2, 42720, Note_on_c, 0, 74, 107
2, 42744, Note_off_c, 0, 74, 64
2, 42750, Note_on_c, 0, 73, 107
2, 42774, Note_off_c, 0, 73, 64
2, 42780, Note_on_c, 0, 74, 107
2, 42804, Note_off_c, 0, 74, 64
2, 42810, Note_on_c, 0, 73, 107
2, 42834, Note_off_c, 0, 73, 64
2, 42840, Note_on_c, 0, 74, 107
2, 42864, Note_off_c, 0, 74, 64
2, 42870, Note_on_c, 0, 73, 107
2, 42894, Note_off_c, 0, 73, 64
2, 42900, Note_on_c, 0, 74, 107
2, 42924, Note_off_c, 0, 74, 64
2, 42930, Note_on_c, 0, 73, 107
2, 42954, Note_off_c, 0, 73, 64
2, 42960, Note_on_c, 0, 74, 107
2, 42984, Note_off_c, 0, 74, 64
2, 42990, Note_on_c, 0, 73, 107
2, 43014, Note_off_c, 0, 73, 64
2, 43020, Note_on_c, 0, 74, 107
2, 43044, Note_off_c, 0, 74, 64
2, 43050, Note_on_c, 0, 73, 107
2, 43074, Note_off_c, 0, 73, 64
2, 43080, Note_on_c, 0, 74, 107
2, 43104, Note_off_c, 0, 74, 64
2, 43110, Note_on_c, 0, 73, 107
2, 43128, Note_off_c, 0, 69, 64
2, 43134, Note_off_c, 0, 73, 64
2, 43140, Note_on_c, 0, 74, 107
2, 43164, Note_off_c, 0, 74, 64
2, 43170, Note_on_c, 0, 73, 107
2, 43194, Note_off_c, 0, 73, 64
2, 43200, Note_on_c, 0, 71, 107
2, 43248, Note_off_c, 0, 71, 64
2, 43260, Note_on_c, 0, 73, 107
2, 43308, Note_off_c, 0, 73, 64
2, 43320, Note_on_c, 0, 76, 107
2, 43320, Note_on_c, 0, 69, 107
2, 43344, Note_off_c, 0, 76, 64
2, 43350, Note_on_c, 0, 74, 107
2, 43374, Note_off_c, 0, 74, 64
2, 43380, Note_on_c, 0, 76, 107
2, 43404, Note_off_c, 0, 76, 64
2, 43410, Note_on_c, 0, 74, 107
2, 43434, Note_off_c, 0, 74, 64
2, 43440, Note_on_c, 0, 76, 107
2, 43464, Note_off_c, 0, 76, 64
2, 43470, Note_on_c, 0, 74, 107
2, 43494, Note_off_c, 0, 74, 64
2, 43500, Note_on_c, 0, 76, 107
2, 43524, Note_off_c, 0, 76, 64
2, 43530, Note_on_c, 0, 74, 107
2, 43554, Note_off_c, 0, 74, 64
2, 43560, Note_on_c, 0, 76, 107
2, 43584, Note_off_c, 0, 76, 64
2, 43590, Note_on_c, 0, 74, 107
2, 43614, Note_off_c, 0, 74, 64
2, 43620, Note_on_c, 0, 76, 107
2, 43644, Note_off_c, 0, 76, 64
2, 43650, Note_on_c, 0, 74, 107
2, 43674, Note_off_c, 0, 74, 64
2, 43680, Note_on_c, 0, 76, 107
2, 43704, Note_off_c, 0, 76, 64
2, 43710, Note_on_c, 0, 74, 107
2, 43734, Note_off_c, 0, 74, 64
2, 43740, Note_on_c, 0, 76, 107
2, 43764, Note_off_c, 0, 76, 64
2, 43770, Note_on_c, 0, 74, 107
2, 43794, Note_off_c, 0, 74, 64
2, 43800, Note_on_c, 0, 76, 107
2, 43824, Note_off_c, 0, 76, 64
2, 43830, Note_on_c, 0, 74, 107
2, 43854, Note_off_c, 0, 74, 64
2, 43860, Note_on_c, 0, 76, 107
2, 43884, Note_off_c, 0, 76, 64
2, 43890, Note_on_c, 0, 74, 107
2, 43914, Note_off_c, 0, 74, 64
2, 43920, Note_on_c, 0, 76, 107
2, 43944, Note_off_c, 0, 76, 64
2, 43950, Note_on_c, 0, 74, 107
2, 43974, Note_off_c, 0, 74, 64
2, 43980, Note_on_c, 0, 76, 107
2, 44004, Note_off_c, 0, 76, 64
2, 44010, Note_on_c, 0, 74, 107
2, 44034, Note_off_c, 0, 74, 64
2, 44040, Note_on_c, 0, 76, 107
2, 44064, Note_off_c, 0, 76, 64
2, 44070, Note_on_c, 0, 74, 107
2, 44094, Note_off_c, 0, 74, 64
2, 44100, Note_on_c, 0, 76, 107
2, 44124, Note_off_c, 0, 76, 64
2, 44130, Note_on_c, 0, 74, 107
2, 44154, Note_off_c, 0, 74, 64
2, 44160, Note_on_c, 0, 76, 107
2, 44184, Note_off_c, 0, 76, 64
2, 44190, Note_on_c, 0, 74, 107
2, 44214, Note_off_c, 0, 74, 64
2, 44220, Note_on_c, 0, 76, 107
2, 44244, Note_off_c, 0, 76, 64
2, 44250, Note_on_c, 0, 74, 107
2, 44274, Note_off_c, 0, 74, 64
2, 44280, Note_on_c, 0, 76, 107
2, 44304, Note_off_c, 0, 76, 64
2, 44310, Note_on_c, 0, 74, 107
2, 44334, Note_off_c, 0, 74, 64
2, 44340, Note_on_c, 0, 76, 107
2, 44364, Note_off_c, 0, 76, 64
2, 44370, Note_on_c, 0, 74, 107
2, 44394, Note_off_c, 0, 74, 64
2, 44400, Note_on_c, 0, 76, 107
2, 44424, Note_off_c, 0, 76, 64
2, 44430, Note_on_c, 0, 74, 107
2, 44454, Note_off_c, 0, 74, 64
2, 44460, Note_on_c, 0, 76, 107
2, 44484, Note_off_c, 0, 76, 64
2, 44490, Note_on_c, 0, 74, 107
2, 44514, Note_off_c, 0, 74, 64
2, 44520, Note_on_c, 0, 76, 107
2, 44544, Note_off_c, 0, 76, 64
2, 44550, Note_on_c, 0, 74, 107
2, 44574, Note_off_c, 0, 74, 64
2, 44580, Note_on_c, 0, 76, 107
2, 44604, Note_off_c, 0, 76, 64
2, 44610, Note_on_c, 0, 74, 107
2, 44634, Note_off_c, 0, 74, 64
2, 44640, Note_on_c, 0, 73, 107
2, 44688, Note_off_c, 0, 73, 64
2, 44700, Note_on_c, 0, 74, 107
2, 44748, Note_off_c, 0, 74, 64
2, 44760, Note_on_c, 0, 76, 107
2, 45048, Note_off_c, 0, 76, 64
2, 45120, Note_on_c, 0, 78, 107
2, 45216, Note_off_c, 0, 78, 64
2, 45240, Note_on_c, 0, 74, 107
2, 45336, Note_off_c, 0, 74, 64
2, 45360, Note_on_c, 0, 73, 107
2, 45456, Note_off_c, 0, 73, 64
2, 45480, Note_on_c, 0, 74, 107
2, 45528, Note_off_c, 0, 69, 64
2, 45576, Note_off_c, 0, 74, 64
2, 45600, Note_on_c, 0, 76, 107
2, 45696, Note_off_c, 0, 76, 64
2, 45720, Note_on_c, 0, 67, 107
2, 45720, Note_on_c, 0, 74, 107
2, 45744, Note_off_c, 0, 74, 64
2, 45750, Note_on_c, 0, 73, 107
2, 45774, Note_off_c, 0, 73, 64
2, 45780, Note_on_c, 0, 74, 107
2, 45804, Note_off_c, 0, 74, 64
2, 45810, Note_on_c, 0, 73, 107
2, 45834, Note_off_c, 0, 73, 64
2, 45840, Note_on_c, 0, 74, 107
2, 45864, Note_off_c, 0, 74, 64
2, 45870, Note_on_c, 0, 73, 107
2, 45894, Note_off_c, 0, 73, 64
2, 45900, Note_on_c, 0, 74, 107
2, 45924, Note_off_c, 0, 74, 64
2, 45930, Note_on_c, 0, 73, 107
2, 45954, Note_off_c, 0, 73, 64
2, 45960, Note_on_c, 0, 74, 107
2, 45984, Note_off_c, 0, 74, 64
2, 45990, Note_on_c, 0, 73, 107
2, 46014, Note_off_c, 0, 73, 64
2, 46020, Note_on_c, 0, 74, 107
2, 46044, Note_off_c, 0, 74, 64
2, 46050, Note_on_c, 0, 73, 107
2, 46074, Note_off_c, 0, 73, 64
2, 46080, Note_on_c, 0, 74, 107
2, 46104, Note_off_c, 0, 67, 64
2, 46176, Note_off_c, 0, 74, 64
2, 46200, Note_on_c, 0, 66, 107
2, 46200, Note_on_c, 0, 74, 107
2, 46200, Note_on_c, 0, 69, 107
2, 46380, Note_off_c, 0, 66, 64
2, 46392, Note_off_c, 0, 69, 64
2, 46392, Note_off_c, 0, 74, 64
2, 46440, Note_on_c, 0, 78, 107
2, 46620, Note_off_c, 0, 78, 64
2, 46680, Note_on_c, 0, 81, 107
2, 46968, Note_off_c, 0, 81, 64
2, 47040, Note_on_c, 0, 83, 107
2, 47136, Note_off_c, 0, 83, 64
2, 47160, Note_on_c, 0, 81, 107
2, 47256, Note_off_c, 0, 81, 64
2, 47280, Note_on_c, 0, 79, 107
2, 47376, Note_off_c, 0, 79, 64
2, 47400, Note_on_c, 0, 78, 107
2, 47496, Note_off_c, 0, 78, 64
2, 47520, Note_on_c, 0, 76, 107
2, 47616, Note_off_c, 0, 76, 64
2, 47640, Note_on_c, 0, 75, 107
2, 47736, Note_off_c, 0, 75, 64
2, 47760, Note_on_c, 0, 71, 107
2, 47856, Note_off_c, 0, 71, 64
2, 47880, Note_on_c, 0, 73, 107
2, 47976, Note_off_c, 0, 73, 64
2, 48000, Note_on_c, 0, 75, 107
2, 48096, Note_off_c, 0, 75, 64
2, 48120, Note_on_c, 0, 76, 107
2, 48216, Note_off_c, 0, 76, 64
2, 48240, Note_on_c, 0, 78, 107
2, 48336, Note_off_c, 0, 78, 64
2, 48360, Note_on_c, 0, 79, 107
2, 48456, Note_off_c, 0, 79, 64
2, 48480, Note_on_c, 0, 81, 107
2, 48576, Note_off_c, 0, 81, 64
2, 48600, Note_on_c, 0, 79, 107
2, 48696, Note_off_c, 0, 79, 64
2, 48720, Note_on_c, 0, 78, 107
2, 48816, Note_off_c, 0, 78, 64
2, 48840, Note_on_c, 0, 76, 107
2, 48936, Note_off_c, 0, 76, 64
2, 48960, Note_on_c, 0, 74, 107
2, 49056, Note_off_c, 0, 74, 64
2, 49080, Note_on_c, 0, 72, 107
2, 49368, Note_off_c, 0, 72, 64
2, 49440, Note_on_c, 0, 71, 107
2, 49536, Note_off_c, 0, 71, 64
2, 49560, Note_on_c, 0, 69, 107
2, 49656, Note_off_c, 0, 69, 64
2, 49680, Note_on_c, 0, 72, 107
2, 49776, Note_off_c, 0, 72, 64
2, 49800, Note_on_c, 0, 71, 107
2, 49896, Note_off_c, 0, 71, 64
2, 49920, Note_on_c, 0, 69, 107
2, 50016, Note_off_c, 0, 69, 64
2, 50040, Note_on_c, 0, 67, 107
2, 50040, Note_on_c, 0, 64, 107
2, 50328, Note_off_c, 0, 67, 64
2, 50400, Note_on_c, 0, 66, 107
2, 50424, Note_off_c, 0, 64, 64
2, 50496, Note_off_c, 0, 66, 64
2, 50520, Note_on_c, 0, 66, 107
2, 50520, Note_on_c, 0, 63, 107
2, 50808, Note_off_c, 0, 63, 64
2, 50808, Note_off_c, 0, 66, 64
2, 50880, Note_on_c, 0, 81, 107
2, 50976, Note_off_c, 0, 81, 64
2, 51000, Note_on_c, 0, 79, 107
2, 51096, Note_off_c, 0, 79, 64
2, 51120, Note_on_c, 0, 78, 107
2, 51216, Note_off_c, 0, 78, 64
2, 51240, Note_on_c, 0, 76, 107
2, 51336, Note_off_c, 0, 76, 64
2, 51360, Note_on_c, 0, 75, 107
2, 51456, Note_off_c, 0, 75, 64
2, 51480, Note_on_c, 0, 73, 107
2, 51576, Note_off_c, 0, 73, 64
2, 51600, Note_on_c, 0, 71, 107
2, 51720, Note_on_c, 0, 79, 107
2, 51912, Note_off_c, 0, 71, 64
2, 51912, Note_off_c, 0, 79, 64
2, 51960, Note_on_c, 0, 71, 107
2, 51960, Note_on_c, 0, 66, 110
2, 51960, Note_on_c, 0, 63, 110
2, 51984, Note_off_c, 0, 71, 64
2, 51990, Note_on_c, 0, 69, 107
2, 52014, Note_off_c, 0, 69, 64
2, 52020, Note_on_c, 0, 71, 107
2, 52044, Note_off_c, 0, 71, 64
2, 52050, Note_on_c, 0, 69, 107
2, 52074, Note_off_c, 0, 69, 64
2, 52080, Note_on_c, 0, 69, 107
2, 52248, Note_off_c, 0, 63, 64
2, 52248, Note_off_c, 0, 66, 64
2, 52272, Note_off_c, 0, 69, 64
2, 52320, Note_on_c, 0, 79, 107
2, 52416, Note_off_c, 0, 79, 64
2, 52440, Note_on_c, 0, 78, 107
2, 52536, Note_off_c, 0, 78, 64
2, 52560, Note_on_c, 0, 76, 107
2, 52656, Note_off_c, 0, 76, 64
2, 52680, Note_on_c, 0, 75, 107
2, 52776, Note_off_c, 0, 75, 64
2, 52800, Note_on_c, 0, 73, 107
2, 52896, Note_off_c, 0, 73, 64
2, 52920, Note_on_c, 0, 71, 107
2, 53016, Note_off_c, 0, 71, 64
2, 53040, Note_on_c, 0, 69, 107
2, 53160, Note_on_c, 0, 78, 107
2, 53352, Note_off_c, 0, 78, 64
2, 53352, Note_off_c, 0, 69, 64
2, 53400, Note_on_c, 0, 64, 107
2, 53400, Note_on_c, 0, 67, 107
2, 53688, Note_off_c, 0, 67, 64
2, 53760, Note_on_c, 0, 71, 107
2, 53784, Note_off_c, 0, 64, 64
2, 53856, Note_off_c, 0, 71, 64
2, 53880, Note_on_c, 0, 73, 107
2, 53976, Note_off_c, 0, 73, 64
2, 54000, Note_on_c, 0, 75, 107
2, 54096, Note_off_c, 0, 75, 64
2, 54120, Note_on_c, 0, 76, 107
2, 54216, Note_off_c, 0, 76, 64
2, 54240, Note_on_c, 0, 78, 107
2, 54336, Note_off_c, 0, 78, 64
2, 54360, Note_on_c, 0, 79, 107
2, 54456, Note_off_c, 0, 79, 64
2, 54480, Note_on_c, 0, 81, 107
2, 54600, Note_on_c, 0, 73, 107
2, 54792, Note_off_c, 0, 73, 64
2, 54840, Note_on_c, 0, 73, 107
2, 54936, Note_off_c, 0, 73, 64
2, 54960, Note_on_c, 0, 75, 107
2, 55128, Note_off_c, 0, 81, 64
2, 55185, Note_off_c, 0, 75, 64
2, 55200, Note_on_c, 0, 83, 107
2, 55296, Note_off_c, 0, 83, 64
2, 55320, Note_on_c, 0, 76, 107
2, 55320, Note_on_c, 0, 79, 107
2, 55608, Note_off_c, 0, 79, 64
2, 55680, Note_on_c, 0, 78, 107
2, 55704, Note_off_c, 0, 76, 64
2, 55776, Note_off_c, 0, 78, 64
2, 55800, Note_on_c, 0, 79, 107
2, 55800, Note_on_c, 0, 75, 107
2, 55824, Note_off_c, 0, 79, 64
2, 55830, Note_on_c, 0, 78, 107
2, 55854, Note_off_c, 0, 78, 64
2, 55860, Note_on_c, 0, 79, 107
2, 55884, Note_off_c, 0, 79, 64
2, 55890, Note_on_c, 0, 78, 107
2, 55914, Note_off_c, 0, 78, 64
2, 55920, Note_on_c, 0, 79, 107
2, 55944, Note_off_c, 0, 79, 64
2, 55950, Note_on_c, 0, 78, 107
2, 55974, Note_off_c, 0, 78, 64
2, 55980, Note_on_c, 0, 79, 107
2, 56004, Note_off_c, 0, 79, 64
2, 56010, Note_on_c, 0, 78, 107
2, 56034, Note_off_c, 0, 78, 64
2, 56040, Note_on_c, 0, 79, 107
2, 56064, Note_off_c, 0, 79, 64
2, 56070, Note_on_c, 0, 78, 107
2, 56094, Note_off_c, 0, 78, 64
2, 56100, Note_on_c, 0, 79, 107
2, 56124, Note_off_c, 0, 79, 64
2, 56130, Note_on_c, 0, 78, 107
2, 56154, Note_off_c, 0, 78, 64
2, 56160, Note_on_c, 0, 76, 107
2, 56184, Note_off_c, 0, 75, 64
2, 56256, Note_off_c, 0, 76, 64
2, 56280, Note_on_c, 0, 76, 107
2, 57000, Note_on_c, 0, 71, 107
2, 57000, Note_on_c, 0, 67, 107
2, 57384, Note_off_c, 0, 67, 64
2, 57384, Note_off_c, 0, 71, 64
2, 57384, Note_off_c, 0, 76, 64
2, 57600, Note_on_c, 0, 78, 107
2, 57696, Note_off_c, 0, 78, 64
2, 57720, Note_on_c, 0, 71, 107
2, 57720, Note_on_c, 0, 78, 107
2, 57720, Note_on_c, 0, 75, 107
2, 57912, Note_off_c, 0, 75, 64
2, 57912, Note_off_c, 0, 78, 64
2, 57912, Note_off_c, 0, 71, 64
2, 57960, Note_on_c, 0, 76, 107
2, 58056, Note_off_c, 0, 76, 64
2, 58080, Note_on_c, 0, 75, 107
2, 58176, Note_off_c, 0, 75, 64
2, 58200, Note_on_c, 0, 73, 107
2, 58296, Note_off_c, 0, 73, 64
2, 58320, Note_on_c, 0, 71, 107
2, 58416, Note_off_c, 0, 71, 64
2, 58440, Note_on_c, 0, 73, 107
2, 58536, Note_off_c, 0, 73, 64
2, 58560, Note_on_c, 0, 75, 107
2, 58656, Note_off_c, 0, 75, 64
2, 58680, Note_on_c, 0, 76, 107
2, 58776, Note_off_c, 0, 76, 64
2, 58800, Note_on_c, 0, 78, 107
2, 58896, Note_off_c, 0, 78, 64
2, 58920, Note_on_c, 0, 79, 107
2, 58944, Note_off_c, 0, 79, 64
2, 58950, Note_on_c, 0, 78, 107
2, 58974, Note_off_c, 0, 78, 64
2, 58980, Note_on_c, 0, 79, 107
2, 59004, Note_off_c, 0, 79, 64
2, 59010, Note_on_c, 0, 78, 107
2, 59034, Note_off_c, 0, 78, 64
2, 59040, Note_on_c, 0, 79, 107
2, 59064, Note_off_c, 0, 79, 64
2, 59070, Note_on_c, 0, 78, 107
2, 59094, Note_off_c, 0, 78, 64
2, 59100, Note_on_c, 0, 76, 107
2, 59124, Note_off_c, 0, 76, 64
2, 59130, Note_on_c, 0, 78, 107
2, 59154, Note_off_c, 0, 78, 64
2, 59160, Note_on_c, 0, 71, 107
2, 59190, Note_on_c, 0, 76, 107
2, 59220, Note_on_c, 0, 79, 107
2, 59472, Note_off_c, 0, 79, 64
2, 59472, Note_off_c, 0, 76, 64
2, 59520, Note_on_c, 0, 64, 107
2, 59610, Note_off_c, 0, 71, 64
2, 59616, Note_off_c, 0, 64, 64
2, 59640, Note_on_c, 0, 66, 107
2, 59736, Note_off_c, 0, 66, 64
2, 59760, Note_on_c, 0, 68, 107
2, 59856, Note_off_c, 0, 68, 64
2, 59880, Note_on_c, 0, 69, 107
2, 59976, Note_off_c, 0, 69, 64
2, 60000, Note_on_c, 0, 71, 107
2, 60096, Note_off_c, 0, 71, 64
2, 60120, Note_on_c, 0, 72, 107
2, 60216, Note_off_c, 0, 72, 64
2, 60240, Note_on_c, 0, 74, 107
2, 60360, Note_on_c, 0, 68, 107
2, 60456, Note_off_c, 0, 74, 64
2, 60480, Note_on_c, 0, 74, 107
2, 60552, Note_off_c, 0, 68, 64
2, 60576, Note_off_c, 0, 74, 64
2, 60600, Note_on_c, 0, 69, 107
2, 60600, Note_on_c, 0, 72, 107
2, 60888, Note_off_c, 0, 72, 64
2, 60960, Note_on_c, 0, 74, 107
2, 61056, Note_off_c, 0, 74, 64
2, 61080, Note_on_c, 0, 76, 107
2, 61176, Note_off_c, 0, 76, 64
2, 61200, Note_on_c, 0, 74, 107
2, 61296, Note_off_c, 0, 74, 64
2, 61320, Note_on_c, 0, 76, 107
2, 61368, Note_off_c, 0, 69, 64
2, 61416, Note_off_c, 0, 76, 64
2, 61440, Note_on_c, 0, 77, 107
2, 61536, Note_off_c, 0, 77, 64
2, 61560, Note_on_c, 0, 68, 107
2, 61560, Note_on_c, 0, 72, 107
2, 61584, Note_off_c, 0, 72, 64
2, 61590, Note_on_c, 0, 71, 107
2, 61614, Note_off_c, 0, 71, 64
2, 61620, Note_on_c, 0, 72, 107
2, 61644, Note_off_c, 0, 72, 64
2, 61650, Note_on_c, 0, 71, 107
2, 61674, Note_off_c, 0, 71, 64
2, 61680, Note_on_c, 0, 72, 107
2, 61704, Note_off_c, 0, 72, 64
2, 61710, Note_on_c, 0, 71, 107
2, 61734, Note_off_c, 0, 71, 64
2, 61740, Note_on_c, 0, 72, 107
2, 61764, Note_off_c, 0, 72, 64
2, 61770, Note_on_c, 0, 71, 107
2, 61794, Note_off_c, 0, 71, 64
2, 61800, Note_on_c, 0, 72, 107
2, 61824, Note_off_c, 0, 72, 64
2, 61830, Note_on_c, 0, 71, 107
2, 61854, Note_off_c, 0, 71, 64
2, 61860, Note_on_c, 0, 72, 107
2, 61884, Note_off_c, 0, 72, 64
2, 61890, Note_on_c, 0, 71, 107
2, 61914, Note_off_c, 0, 71, 64
2, 61920, Note_on_c, 0, 69, 107
2, 61944, Note_off_c, 0, 68, 64
2, 62016, Note_off_c, 0, 69, 64
2, 62040, Note_on_c, 0, 64, 107
2, 62040, Note_on_c, 0, 60, 107
2, 62040, Note_on_c, 0, 69, 107
2, 62328, Note_off_c, 0, 69, 64
2, 62328, Note_off_c, 0, 60, 64
2, 62328, Note_off_c, 0, 64, 64
2, 62400, Note_on_c, 0, 71, 107
2, 62496, Note_off_c, 0, 71, 64
2, 62520, Note_on_c, 0, 73, 107
2, 62616, Note_off_c, 0, 73, 64
2, 62640, Note_on_c, 0, 74, 107
2, 62736, Note_off_c, 0, 74, 64
2, 62760, Note_on_c, 0, 76, 107
2, 62856, Note_off_c, 0, 76, 64
2, 62880, Note_on_c, 0, 78, 107
2, 62976, Note_off_c, 0, 78, 64
2, 63000, Note_on_c, 0, 79, 107
2, 63096, Note_off_c, 0, 79, 64
2, 63120, Note_on_c, 0, 81, 107
2, 63240, Note_on_c, 0, 72, 107
2, 63240, Note_on_c, 0, 74, 107
2, 63336, Note_off_c, 0, 81, 64
2, 63360, Note_on_c, 0, 81, 107
2, 63432, Note_off_c, 0, 74, 64
2, 63432, Note_off_c, 0, 72, 64
2, 63456, Note_off_c, 0, 81, 64
2, 63480, Note_on_c, 0, 83, 107
2, 63576, Note_off_c, 0, 83, 64
2, 63600, Note_on_c, 0, 84, 107
2, 63696, Note_off_c, 0, 84, 64
2, 63720, Note_on_c, 0, 83, 107
2, 63816, Note_off_c, 0, 83, 64
2, 63840, Note_on_c, 0, 81, 107
2, 63936, Note_off_c, 0, 81, 64
2, 63960, Note_on_c, 0, 79, 107
2, 64056, Note_off_c, 0, 79, 64
2, 64080, Note_on_c, 0, 78, 107
2, 64176, Note_off_c, 0, 78, 64
2, 64200, Note_on_c, 0, 76, 107
2, 64296, Note_off_c, 0, 76, 64
2, 64320, Note_on_c, 0, 74, 107
2, 64416, Note_off_c, 0, 74, 64
2, 64440, Note_on_c, 0, 73, 107
2, 64536, Note_off_c, 0, 73, 64
2, 64560, Note_on_c, 0, 74, 107
2, 64656, Note_off_c, 0, 74, 64
2, 64680, Note_on_c, 0, 76, 107
2, 64704, Note_off_c, 0, 76, 64
2, 64710, Note_on_c, 0, 74, 107
2, 64734, Note_off_c, 0, 74, 64
2, 64740, Note_on_c, 0, 76, 107
2, 64764, Note_off_c, 0, 76, 64
2, 64770, Note_on_c, 0, 74, 107
2, 64794, Note_off_c, 0, 74, 64
2, 64800, Note_on_c, 0, 76, 107
2, 64824, Note_off_c, 0, 76, 64
2, 64830, Note_on_c, 0, 74, 107
2, 64854, Note_off_c, 0, 74, 64
2, 64860, Note_on_c, 0, 73, 107
2, 64884, Note_off_c, 0, 73, 64
2, 64890, Note_on_c, 0, 74, 107
2, 64914, Note_off_c, 0, 74, 64
2, 64920, Note_on_c, 0, 76, 107
2, 65112, Note_off_c, 0, 76, 64
2, 65160, Note_on_c, 0, 69, 107
2, 65160, Note_on_c, 0, 69, 107
2, 65256, Note_off_c, 0, 69, 64
2, 65280, Note_on_c, 0, 71, 107
2, 65328, Note_off_c, 0, 71, 64
2, 65340, Note_on_c, 0, 73, 107
2, 65388, Note_off_c, 0, 73, 64
2, 65400, Note_on_c, 0, 74, 107
2, 65424, Note_off_c, 0, 74, 64
2, 65430, Note_on_c, 0, 73, 107
2, 65454, Note_off_c, 0, 73, 64
2, 65460, Note_on_c, 0, 74, 107
2, 65484, Note_off_c, 0, 74, 64
2, 65490, Note_on_c, 0, 73, 107
2, 65514, Note_off_c, 0, 73, 64
2, 65520, Note_on_c, 0, 74, 107
2, 65544, Note_off_c, 0, 74, 64
2, 65550, Note_on_c, 0, 73, 107
2, 65574, Note_off_c, 0, 73, 64
2, 65580, Note_on_c, 0, 74, 107
2, 65604, Note_off_c, 0, 74, 64
2, 65610, Note_on_c, 0, 73, 107
2, 65634, Note_off_c, 0, 73, 64
2, 65640, Note_on_c, 0, 74, 107
2, 65664, Note_off_c, 0, 74, 64
2, 65670, Note_on_c, 0, 73, 107
2, 65694, Note_off_c, 0, 73, 64
2, 65700, Note_on_c, 0, 74, 107
2, 65724, Note_off_c, 0, 74, 64
2, 65730, Note_on_c, 0, 73, 107
2, 65754, Note_off_c, 0, 73, 64
2, 65760, Note_on_c, 0, 74, 107
2, 65784, Note_off_c, 0, 74, 64
2, 65790, Note_on_c, 0, 73, 107
2, 65814, Note_off_c, 0, 73, 64
2, 65820, Note_on_c, 0, 74, 107
2, 65844, Note_off_c, 0, 74, 64
2, 65850, Note_on_c, 0, 73, 107
2, 65874, Note_off_c, 0, 73, 64
2, 65880, Note_on_c, 0, 74, 107
2, 65904, Note_off_c, 0, 74, 64
2, 65910, Note_on_c, 0, 73, 107
2, 65934, Note_off_c, 0, 73, 64
2, 65940, Note_on_c, 0, 74, 107
2, 65964, Note_off_c, 0, 74, 64
2, 65970, Note_on_c, 0, 73, 107
2, 65994, Note_off_c, 0, 73, 64
2, 66000, Note_on_c, 0, 74, 107
2, 66024, Note_off_c, 0, 74, 64
2, 66030, Note_on_c, 0, 73, 107
2, 66054, Note_off_c, 0, 73, 64
2, 66060, Note_on_c, 0, 74, 107
2, 66084, Note_off_c, 0, 74, 64
2, 66090, Note_on_c, 0, 73, 107
2, 66114, Note_off_c, 0, 73, 64
2, 66120, Note_on_c, 0, 74, 107
2, 66144, Note_off_c, 0, 74, 64
2, 66150, Note_on_c, 0, 73, 107
2, 66168, Note_off_c, 0, 69, 64
2, 66174, Note_off_c, 0, 73, 64
2, 66180, Note_on_c, 0, 74, 107
2, 66204, Note_off_c, 0, 74, 64
2, 66210, Note_on_c, 0, 73, 107
2, 66234, Note_off_c, 0, 73, 64
2, 66240, Note_on_c, 0, 71, 107
2, 66288, Note_off_c, 0, 71, 64
2, 66300, Note_on_c, 0, 73, 107
2, 66348, Note_off_c, 0, 73, 64
2, 66360, Note_on_c, 0, 76, 107
2, 66360, Note_on_c, 0, 69, 107
2, 66384, Note_off_c, 0, 76, 64
2, 66390, Note_on_c, 0, 74, 107
2, 66414, Note_off_c, 0, 74, 64
2, 66420, Note_on_c, 0, 76, 107
2, 66444, Note_off_c, 0, 76, 64
2, 66450, Note_on_c, 0, 74, 107
2, 66474, Note_off_c, 0, 74, 64
2, 66480, Note_on_c, 0, 76, 107
2, 66504, Note_off_c, 0, 76, 64
2, 66510, Note_on_c, 0, 74, 107
2, 66534, Note_off_c, 0, 74, 64
2, 66540, Note_on_c, 0, 76, 107
2, 66564, Note_off_c, 0, 76, 64
2, 66570, Note_on_c, 0, 74, 107
2, 66594, Note_off_c, 0, 74, 64
2, 66600, Note_on_c, 0, 76, 107
2, 66624, Note_off_c, 0, 76, 64
2, 66630, Note_on_c, 0, 74, 107
2, 66654, Note_off_c, 0, 74, 64
2, 66660, Note_on_c, 0, 76, 107
2, 66684, Note_off_c, 0, 76, 64
2, 66690, Note_on_c, 0, 74, 107
2, 66714, Note_off_c, 0, 74, 64
2, 66720, Note_on_c, 0, 76, 107
2, 66744, Note_off_c, 0, 76, 64
2, 66750, Note_on_c, 0, 74, 107
2, 66774, Note_off_c, 0, 74, 64
2, 66780, Note_on_c, 0, 76, 107
2, 66804, Note_off_c, 0, 76, 64
2, 66810, Note_on_c, 0, 74, 107
2, 66834, Note_off_c, 0, 74, 64
2, 66840, Note_on_c, 0, 76, 107
2, 66864, Note_off_c, 0, 76, 64
2, 66870, Note_on_c, 0, 74, 107
2, 66894, Note_off_c, 0, 74, 64
2, 66900, Note_on_c, 0, 76, 107
2, 66924, Note_off_c, 0, 76, 64
2, 66930, Note_on_c, 0, 74, 107
2, 66954, Note_off_c, 0, 74, 64
2, 66960, Note_on_c, 0, 76, 107
2, 66984, Note_off_c, 0, 76, 64
2, 66990, Note_on_c, 0, 74, 107
2, 67014, Note_off_c, 0, 74, 64
2, 67020, Note_on_c, 0, 76, 107
2, 67044, Note_off_c, 0, 76, 64
2, 67050, Note_on_c, 0, 74, 107
2, 67074, Note_off_c, 0, 74, 64
2, 67080, Note_on_c, 0, 76, 107
2, 67104, Note_off_c, 0, 76, 64
2, 67110, Note_on_c, 0, 74, 107
2, 67134, Note_off_c, 0, 74, 64
2, 67140, Note_on_c, 0, 76, 107
2, 67164, Note_off_c, 0, 76, 64
2, 67170, Note_on_c, 0, 74, 107
2, 67194, Note_off_c, 0, 74, 64
2, 67200, Note_on_c, 0, 76, 107
2, 67224, Note_off_c, 0, 76, 64
2, 67230, Note_on_c, 0, 74, 107
2, 67254, Note_off_c, 0, 74, 64
2, 67260, Note_on_c, 0, 76, 107
2, 67284, Note_off_c, 0, 76, 64
2, 67290, Note_on_c, 0, 74, 107
2, 67314, Note_off_c, 0, 74, 64
2, 67320, Note_on_c, 0, 76, 107
2, 67344, Note_off_c, 0, 76, 64
2, 67350, Note_on_c, 0, 74, 107
2, 67374, Note_off_c, 0, 74, 64
2, 67380, Note_on_c, 0, 76, 107
2, 67404, Note_off_c, 0, 76, 64
2, 67410, Note_on_c, 0, 74, 107
2, 67434, Note_off_c, 0, 74, 64
2, 67440, Note_on_c, 0, 76, 107
2, 67464, Note_off_c, 0, 76, 64
2, 67470, Note_on_c, 0, 74, 107
2, 67494, Note_off_c, 0, 74, 64
2, 67500, Note_on_c, 0, 76, 107
2, 67524, Note_off_c, 0, 76, 64
2, 67530, Note_on_c, 0, 74, 107
2, 67554, Note_off_c, 0, 74, 64
2, 67560, Note_on_c, 0, 76, 107
2, 67584, Note_off_c, 0, 76, 64
2, 67590, Note_on_c, 0, 74, 107
2, 67614, Note_off_c, 0, 74, 64
2, 67620, Note_on_c, 0, 76, 107
2, 67644, Note_off_c, 0, 76, 64
2, 67650, Note_on_c, 0, 74, 107
2, 67674, Note_off_c, 0, 74, 64
2, 67680, Note_on_c, 0, 73, 107
2, 67728, Note_off_c, 0, 73, 64
2, 67740, Note_on_c, 0, 74, 107
2, 67788, Note_off_c, 0, 74, 64
2, 67800, Note_on_c, 0, 76, 107
2, 68088, Note_off_c, 0, 76, 64
2, 68160, Note_on_c, 0, 78, 107
2, 68256, Note_off_c, 0, 78, 64
2, 68280, Note_on_c, 0, 74, 107
2, 68376, Note_off_c, 0, 74, 64
2, 68400, Note_on_c, 0, 73, 107
2, 68496, Note_off_c, 0, 73, 64
2, 68520, Note_on_c, 0, 74, 107
2, 68568, Note_off_c, 0, 69, 64
2, 68616, Note_off_c, 0, 74, 64
2, 68640, Note_on_c, 0, 76, 107
2, 68736, Note_off_c, 0, 76, 64
2, 68760, Note_on_c, 0, 67, 107
2, 68760, Note_on_c, 0, 74, 107
2, 68784, Note_off_c, 0, 74, 64
2, 68790, Note_on_c, 0, 73, 107
2, 68814, Note_off_c, 0, 73, 64
2, 68820, Note_on_c, 0, 74, 107
2, 68844, Note_off_c, 0, 74, 64
2, 68850, Note_on_c, 0, 73, 107
2, 68874, Note_off_c, 0, 73, 64
2, 68880, Note_on_c, 0, 74, 107
2, 68904, Note_off_c, 0, 74, 64
2, 68910, Note_on_c, 0, 73, 107
2, 68934, Note_off_c, 0, 73, 64
2, 68940, Note_on_c, 0, 74, 107
2, 68964, Note_off_c, 0, 74, 64
2, 68970, Note_on_c, 0, 73, 107
2, 68994, Note_off_c, 0, 73, 64
2, 69000, Note_on_c, 0, 74, 107
2, 69024, Note_off_c, 0, 74, 64
2, 69030, Note_on_c, 0, 73, 107
2, 69054, Note_off_c, 0, 73, 64
2, 69060, Note_on_c, 0, 74, 107
2, 69084, Note_off_c, 0, 74, 64
2, 69090, Note_on_c, 0, 73, 107
2, 69114, Note_off_c, 0, 73, 64
2, 69120, Note_on_c, 0, 74, 107
2, 69144, Note_off_c, 0, 67, 64
2, 69216, Note_off_c, 0, 74, 64
2, 69240, Note_on_c, 0, 66, 107
2, 69240, Note_on_c, 0, 74, 107
2, 69240, Note_on_c, 0, 69, 107
2, 69420, Note_off_c, 0, 66, 64
2, 69432, Note_off_c, 0, 69, 64
2, 69432, Note_off_c, 0, 74, 64
2, 69480, Note_on_c, 0, 78, 107
2, 69660, Note_off_c, 0, 78, 64
2, 69720, Note_on_c, 0, 81, 107
2, 70008, Note_off_c, 0, 81, 64
2, 70080, Note_on_c, 0, 83, 107
2, 70176, Note_off_c, 0, 83, 64
2, 70200, Note_on_c, 0, 81, 107
2, 70296, Note_off_c, 0, 81, 64
2, 70320, Note_on_c, 0, 79, 107
2, 70416, Note_off_c, 0, 79, 64
2, 70440, Note_on_c, 0, 78, 107
2, 70536, Note_off_c, 0, 78, 64
2, 70560, Note_on_c, 0, 76, 107
2, 70656, Note_off_c, 0, 76, 64
2, 70680, Note_on_c, 0, 75, 107
2, 70776, Note_off_c, 0, 75, 64
2, 70800, Note_on_c, 0, 71, 107
2, 70896, Note_off_c, 0, 71, 64
2, 70920, Note_on_c, 0, 73, 107
2, 71016, Note_off_c, 0, 73, 64
2, 71040, Note_on_c, 0, 75, 107
2, 71136, Note_off_c, 0, 75, 64
2, 71160, Note_on_c, 0, 76, 107
2, 71256, Note_off_c, 0, 76, 64
2, 71280, Note_on_c, 0, 78, 107
2, 71376, Note_off_c, 0, 78, 64
2, 71400, Note_on_c, 0, 79, 107
2, 71496, Note_off_c, 0, 79, 64
2, 71520, Note_on_c, 0, 81, 107
2, 71616, Note_off_c, 0, 81, 64
2, 71640, Note_on_c, 0, 79, 107
2, 71736, Note_off_c, 0, 79, 64
2, 71760, Note_on_c, 0, 78, 107
2, 71856, Note_off_c, 0, 78, 64
2, 71880, Note_on_c, 0, 76, 107
2, 71976, Note_off_c, 0, 76, 64
2, 72000, Note_on_c, 0, 74, 107
2, 72096, Note_off_c, 0, 74, 64
2, 72120, Note_on_c, 0, 72, 107
2, 72408, Note_off_c, 0, 72, 64
2, 72480, Note_on_c, 0, 71, 107
2, 72576, Note_off_c, 0, 71, 64
2, 72600, Note_on_c, 0, 69, 107
2, 72696, Note_off_c, 0, 69, 64
2, 72720, Note_on_c, 0, 72, 107
2, 72816, Note_off_c, 0, 72, 64
2, 72840, Note_on_c, 0, 71, 107
2, 72936, Note_off_c, 0, 71, 64
2, 72960, Note_on_c, 0, 69, 107
2, 73056, Note_off_c, 0, 69, 64
2, 73080, Note_on_c, 0, 67, 107
2, 73080, Note_on_c, 0, 64, 107
2, 73368, Note_off_c, 0, 67, 64
2, 73440, Note_on_c, 0, 66, 107
2, 73464, Note_off_c, 0, 64, 64
2, 73536, Note_off_c, 0, 66, 64
2, 73560, Note_on_c, 0, 66, 107
2, 73560, Note_on_c, 0, 63, 107
2, 73848, Note_off_c, 0, 63, 64
2, 73848, Note_off_c, 0, 66, 64
2, 73920, Note_on_c, 0, 81, 107
2, 74016, Note_off_c, 0, 81, 64
2, 74040, Note_on_c, 0, 79, 107
2, 74136, Note_off_c, 0, 79, 64
2, 74160, Note_on_c, 0, 78, 107
2, 74256, Note_off_c, 0, 78, 64
2, 74280, Note_on_c, 0, 76, 107
2, 74376, Note_off_c, 0, 76, 64
2, 74400, Note_on_c, 0, 75, 107
2, 74496, Note_off_c, 0, 75, 64
2, 74520, Note_on_c, 0, 73, 107
2, 74616, Note_off_c, 0, 73, 64
2, 74640, Note_on_c, 0, 71, 107
2, 74760, Note_on_c, 0, 79, 107
2, 74952, Note_off_c, 0, 71, 64
2, 74952, Note_off_c, 0, 79, 64
2, 75000, Note_on_c, 0, 71, 107
2, 75000, Note_on_c, 0, 66, 110
2, 75000, Note_on_c, 0, 63, 110
2, 75024, Note_off_c, 0, 71, 64
2, 75030, Note_on_c, 0, 69, 107
2, 75054, Note_off_c, 0, 69, 64
2, 75060, Note_on_c, 0, 71, 107
2, 75084, Note_off_c, 0, 71, 64
2, 75090, Note_on_c, 0, 69, 107
2, 75114, Note_off_c, 0, 69, 64
2, 75120, Note_on_c, 0, 69, 107
2, 75288, Note_off_c, 0, 63, 64
2, 75288, Note_off_c, 0, 66, 64
2, 75312, Note_off_c, 0, 69, 64
2, 75360, Note_on_c, 0, 79, 107
2, 75456, Note_off_c, 0, 79, 64
2, 75480, Note_on_c, 0, 78, 107
2, 75576, Note_off_c, 0, 78, 64
2, 75600, Note_on_c, 0, 76, 107
2, 75696, Note_off_c, 0, 76, 64
2, 75720, Note_on_c, 0, 75, 107
2, 75816, Note_off_c, 0, 75, 64
2, 75840, Note_on_c, 0, 73, 107
2, 75936, Note_off_c, 0, 73, 64
2, 75960, Note_on_c, 0, 71, 107
2, 76056, Note_off_c, 0, 71, 64
2, 76080, Note_on_c, 0, 69, 107
2, 76200, Note_on_c, 0, 78, 107
2, 76392, Note_off_c, 0, 78, 64
2, 76392, Note_off_c, 0, 69, 64
2, 76440, Note_on_c, 0, 64, 107
2, 76440, Note_on_c, 0, 67, 107
2, 76728, Note_off_c, 0, 67, 64
2, 76800, Note_on_c, 0, 71, 107
2, 76824, Note_off_c, 0, 64, 64
2, 76896, Note_off_c, 0, 71, 64
2, 76920, Note_on_c, 0, 73, 107
2, 77016, Note_off_c, 0, 73, 64
2, 77040, Note_on_c, 0, 75, 107
2, 77136, Note_off_c, 0, 75, 64
2, 77160, Note_on_c, 0, 76, 107
2, 77256, Note_off_c, 0, 76, 64
2, 77280, Note_on_c, 0, 78, 107
2, 77376, Note_off_c, 0, 78, 64
2, 77400, Note_on_c, 0, 79, 107
2, 77496, Note_off_c, 0, 79, 64
2, 77520, Note_on_c, 0, 81, 107
2, 77640, Note_on_c, 0, 73, 107
2, 77832, Note_off_c, 0, 73, 64
2, 77880, Note_on_c, 0, 73, 107
2, 77976, Note_off_c, 0, 73, 64
2, 78000, Note_on_c, 0, 75, 107
2, 78168, Note_off_c, 0, 81, 64
2, 78225, Note_off_c, 0, 75, 64
2, 78240, Note_on_c, 0, 83, 107
2, 78336, Note_off_c, 0, 83, 64
2, 78360, Note_on_c, 0, 76, 107
2, 78360, Note_on_c, 0, 79, 107
2, 78648, Note_off_c, 0, 79, 64
2, 78720, Note_on_c, 0, 78, 107
2, 78744, Note_off_c, 0, 76, 64
2, 78816, Note_off_c, 0, 78, 64
2, 78840, Note_on_c, 0, 79, 107
2, 78840, Note_on_c, 0, 75, 107
2, 78864, Note_off_c, 0, 79, 64
2, 78870, Note_on_c, 0, 78, 107
2, 78894, Note_off_c, 0, 78, 64
2, 78900, Note_on_c, 0, 79, 107
2, 78924, Note_off_c, 0, 79, 64
2, 78930, Note_on_c, 0, 78, 107
2, 78954, Note_off_c, 0, 78, 64
2, 78960, Note_on_c, 0, 79, 107
2, 78984, Note_off_c, 0, 79, 64
2, 78990, Note_on_c, 0, 78, 107
2, 79014, Note_off_c, 0, 78, 64
2, 79020, Note_on_c, 0, 79, 107
2, 79044, Note_off_c, 0, 79, 64
2, 79050, Note_on_c, 0, 78, 107
2, 79074, Note_off_c, 0, 78, 64
2, 79080, Note_on_c, 0, 79, 107
2, 79104, Note_off_c, 0, 79, 64
2, 79110, Note_on_c, 0, 78, 107
2, 79134, Note_off_c, 0, 78, 64
2, 79140, Note_on_c, 0, 79, 107
2, 79164, Note_off_c, 0, 79, 64
2, 79170, Note_on_c, 0, 78, 107
2, 79194, Note_off_c, 0, 78, 64
2, 79200, Note_on_c, 0, 76, 107
2, 79224, Note_off_c, 0, 75, 64
2, 79296, Note_off_c, 0, 76, 64
2, 79320, Note_on_c, 0, 76, 107
2, 80040, Note_on_c, 0, 71, 107
2, 80040, Note_on_c, 0, 67, 107
2, 80424, Note_off_c, 0, 67, 64
2, 80424, Note_off_c, 0, 71, 64
2, 80424, Note_off_c, 0, 76, 64
2, 80424, End_track
3, 0, Start_track
3, 0, Title_t, "J.S. Bach, Edition Kalmus"
3, 0, Program_c, 1, 0
3, 120, Note_on_c, 1, 52, 107
3, 360, Note_off_c, 1, 52, 64
3, 360, Note_on_c, 1, 40, 107
3, 600, Note_off_c, 1, 40, 64
3, 1680, Note_on_c, 1, 52, 107
3, 1776, Note_off_c, 1, 52, 64
3, 1800, Note_on_c, 1, 54, 107
3, 1896, Note_off_c, 1, 54, 64
3, 1920, Note_on_c, 1, 55, 107
3, 2016, Note_off_c, 1, 55, 64
3, 2040, Note_on_c, 1, 57, 107
3, 2136, Note_off_c, 1, 57, 64
3, 2160, Note_on_c, 1, 59, 107
3, 2256, Note_off_c, 1, 59, 64
3, 2280, Note_on_c, 1, 60, 107
3, 2376, Note_off_c, 1, 60, 64
3, 2400, Note_on_c, 1, 59, 107
3, 2496, Note_off_c, 1, 59, 64
3, 2520, Note_on_c, 1, 57, 107
3, 2616, Note_off_c, 1, 57, 64
3, 2640, Note_on_c, 1, 55, 107
3, 2736, Note_off_c, 1, 55, 64
3, 2760, Note_on_c, 1, 54, 107
3, 2856, Note_off_c, 1, 54, 64
3, 2880, Note_on_c, 1, 52, 107
3, 2976, Note_off_c, 1, 52, 64
3, 3000, Note_on_c, 1, 59, 107
3, 3288, Note_off_c, 1, 59, 64
3, 3360, Note_on_c, 1, 60, 107
3, 3456, Note_off_c, 1, 60, 64
3, 3480, Note_on_c, 1, 59, 107
3, 3576, Note_off_c, 1, 59, 64
3, 3600, Note_on_c, 1, 57, 107
3, 3696, Note_off_c, 1, 57, 64
3, 3720, Note_on_c, 1, 55, 107
3, 3816, Note_off_c, 1, 55, 64
3, 3840, Note_on_c, 1, 54, 107
3, 3936, Note_off_c, 1, 54, 64
3, 3960, Note_on_c, 1, 52, 107
3, 4056, Note_off_c, 1, 52, 64
3, 4080, Note_on_c, 1, 51, 107
3, 4200, Note_on_c, 1, 60, 107
3, 4392, Note_off_c, 1, 60, 64
3, 4392, Note_off_c, 1, 51, 64
3, 4440, Note_on_c, 1, 52, 107
3, 4440, Note_on_c, 1, 59, 107
3, 4728, Note_off_c, 1, 59, 64
3, 4728, Note_off_c, 1, 52, 64
3, 4800, Note_on_c, 1, 53, 107
3, 4896, Note_off_c, 1, 53, 64
3, 4920, Note_on_c, 1, 52, 107
3, 5016, Note_off_c, 1, 52, 64
3, 5040, Note_on_c, 1, 50, 107
3, 5136, Note_off_c, 1, 50, 64
3, 5160, Note_on_c, 1, 48, 107
3, 5256, Note_off_c, 1, 48, 64
3, 5280, Note_on_c, 1, 47, 107
3, 5376, Note_off_c, 1, 47, 64
3, 5400, Note_on_c, 1, 45, 107
3, 5496, Note_off_c, 1, 45, 64
3, 5520, Note_on_c, 1, 44, 107
3, 5640, Note_on_c, 1, 53, 107
3, 5832, Note_off_c, 1, 44, 64
3, 5832, Note_off_c, 1, 53, 64
3, 5880, Note_on_c, 1, 45, 107
3, 6000, Note_on_c, 1, 52, 107
3, 6072, Note_off_c, 1, 45, 64
3, 6096, Note_off_c, 1, 52, 64
3, 6120, Note_on_c, 1, 57, 107
3, 6216, Note_off_c, 1, 57, 64
3, 6240, Note_on_c, 1, 59, 107
3, 6336, Note_off_c, 1, 59, 64
3, 6360, Note_on_c, 1, 60, 107
3, 6456, Note_off_c, 1, 60, 64
3, 6480, Note_on_c, 1, 62, 107
3, 6576, Note_off_c, 1, 62, 64
3, 6600, Note_on_c, 1, 64, 107
3, 6696, Note_off_c, 1, 64, 64
3, 6720, Note_on_c, 1, 62, 107
3, 6816, Note_off_c, 1, 62, 64
3, 6840, Note_on_c, 1, 60, 107
3, 6936, Note_off_c, 1, 60, 64
3, 6960, Note_on_c, 1, 59, 107
3, 7056, Note_off_c, 1, 59, 64
3, 7080, Note_on_c, 1, 57, 107
3, 7176, Note_off_c, 1, 57, 64
3, 7200, Note_on_c, 1, 55, 107
3, 7296, Note_off_c, 1, 55, 64
3, 7320, Note_on_c, 1, 62, 107
3, 7512, Note_off_c, 1, 62, 64
3, 7560, Note_on_c, 1, 50, 107
3, 7752, Note_off_c, 1, 50, 64
3, 8520, Note_on_c, 1, 69, 107
3, 8520, Note_on_c, 1, 66, 107
3, 8520, Note_on_c, 1, 62, 107
3, 8712, Note_off_c, 1, 62, 64
3, 8712, Note_off_c, 1, 66, 64
3, 8712, Note_off_c, 1, 69, 64
3, 8760, Note_on_c, 1, 62, 107
3, 8952, Note_off_c, 1, 62, 64
3, 9000, Note_on_c, 1, 50, 107
3, 9192, Note_off_c, 1, 50, 64
3, 9960, Note_on_c, 1, 62, 107
3, 9960, Note_on_c, 1, 67, 107
3, 10152, Note_off_c, 1, 67, 64
3, 10152, Note_off_c, 1, 62, 64
3, 10200, Note_on_c, 1, 62, 107
3, 10392, Note_off_c, 1, 62, 64
3, 10440, Note_on_c, 1, 50, 107
3, 10632, Note_off_c, 1, 50, 64
3, 11280, Note_on_c, 1, 50, 107
3, 11376, Note_off_c, 1, 50, 64
3, 11400, Note_on_c, 1, 52, 107
3, 11496, Note_off_c, 1, 52, 64
3, 11520, Note_on_c, 1, 54, 107
3, 11616, Note_off_c, 1, 54, 64
3, 11640, Note_on_c, 1, 55, 107
3, 11736, Note_off_c, 1, 55, 64
3, 11760, Note_on_c, 1, 57, 107
3, 11856, Note_off_c, 1, 57, 64
3, 11880, Note_on_c, 1, 55, 107
3, 11976, Note_off_c, 1, 55, 64
3, 12000, Note_on_c, 1, 54, 107
3, 12096, Note_off_c, 1, 54, 64
3, 12120, Note_on_c, 1, 52, 107
3, 12216, Note_off_c, 1, 52, 64
3, 12240, Note_on_c, 1, 50, 107
3, 12336, Note_off_c, 1, 50, 64
3, 12360, Note_on_c, 1, 52, 107
3, 12456, Note_off_c, 1, 52, 64
3, 12480, Note_on_c, 1, 48, 107
3, 12576, Note_off_c, 1, 48, 64
3, 12600, Note_on_c, 1, 50, 107
3, 12792, Note_off_c, 1, 50, 64
3, 12840, Note_on_c, 1, 38, 107
3, 13032, Note_off_c, 1, 38, 64
3, 13080, Note_on_c, 1, 43, 107
3, 13272, Note_off_c, 1, 43, 64
3, 13320, Note_on_c, 1, 55, 107
3, 13416, Note_off_c, 1, 55, 64
3, 13440, Note_on_c, 1, 57, 107
3, 13536, Note_off_c, 1, 57, 64
3, 13560, Note_on_c, 1, 55, 107
3, 13656, Note_off_c, 1, 55, 64
3, 13680, Note_on_c, 1, 54, 107
3, 13776, Note_off_c, 1, 54, 64
3, 13800, Note_on_c, 1, 52, 107
3, 13896, Note_off_c, 1, 52, 64
3, 13920, Note_on_c, 1, 50, 107
3, 14016, Note_off_c, 1, 50, 64
3, 14040, Note_on_c, 1, 49, 107
3, 14136, Note_off_c, 1, 49, 64
3, 14160, Note_on_c, 1, 47, 107
3, 14280, Note_on_c, 1, 55, 107
3, 14472, Note_off_c, 1, 55, 64
3, 14472, Note_off_c, 1, 47, 64
3, 14520, Note_on_c, 1, 54, 107
3, 14520, Note_on_c, 1, 46, 107
3, 14712, Note_off_c, 1, 46, 64
3, 14760, Note_on_c, 1, 42, 107
3, 14952, Note_off_c, 1, 42, 64
3, 15000, Note_on_c, 1, 47, 107
3, 15096, Note_off_c, 1, 54, 64
3, 15192, Note_off_c, 1, 47, 64
3, 15240, Note_on_c, 1, 55, 107
3, 15240, Note_on_c, 1, 52, 107
3, 15432, Note_off_c, 1, 52, 64
3, 15432, Note_off_c, 1, 55, 64
3, 15480, Note_on_c, 1, 54, 107
3, 15480, Note_on_c, 1, 54, 107
3, 15672, Note_off_c, 1, 54, 64
3, 15720, Note_on_c, 1, 42, 107
3, 15864, Note_off_c, 1, 54, 64
3, 15912, Note_off_c, 1, 42, 64
3, 15960, Note_on_c, 1, 47, 107
3, 16200, Note_on_c, 1, 51, 107
3, 16392, Note_off_c, 1, 51, 64
3, 16440, Note_on_c, 1, 54, 107
3, 16536, Note_off_c, 1, 47, 64
3, 16632, Note_off_c, 1, 54, 64
3, 16680, Note_on_c, 1, 59, 107
3, 16680, Note_on_c, 1, 47, 107
3, 17064, Note_off_c, 1, 47, 64
3, 17064, Note_off_c, 1, 59, 64
3, 17400, Note_on_c, 1, 52, 107
3, 17640, Note_off_c, 1, 52, 64
3, 17640, Note_on_c, 1, 40, 107
3, 17880, Note_off_c, 1, 40, 64
3, 18960, Note_on_c, 1, 52, 107
3, 19056, Note_off_c, 1, 52, 64
3, 19080, Note_on_c, 1, 54, 107
3, 19176, Note_off_c, 1, 54, 64
3, 19200, Note_on_c, 1, 55, 107
3, 19296, Note_off_c, 1, 55, 64
3, 19320, Note_on_c, 1, 57, 107
3, 19416, Note_off_c, 1, 57, 64
3, 19440, Note_on_c, 1, 59, 107
3, 19536, Note_off_c, 1, 59, 64
3, 19560, Note_on_c, 1, 60, 107
3, 19656, Note_off_c, 1, 60, 64
3, 19680, Note_on_c, 1, 59, 107
3, 19776, Note_off_c, 1, 59, 64
3, 19800, Note_on_c, 1, 57, 107
3, 19896, Note_off_c, 1, 57, 64
3, 19920, Note_on_c, 1, 55, 107
3, 20016, Note_off_c, 1, 55, 64
3, 20040, Note_on_c, 1, 54, 107
3, 20136, Note_off_c, 1, 54, 64
3, 20160, Note_on_c, 1, 52, 107
3, 20256, Note_off_c, 1, 52, 64
3, 20280, Note_on_c, 1, 59, 107
3, 20568, Note_off_c, 1, 59, 64
3, 20640, Note_on_c, 1, 60, 107
3, 20736, Note_off_c, 1, 60, 64
3, 20760, Note_on_c, 1, 59, 107
3, 20856, Note_off_c, 1, 59, 64
3, 20880, Note_on_c, 1, 57, 107
3, 20976, Note_off_c, 1, 57, 64
3, 21000, Note_on_c, 1, 55, 107
3, 21096, Note_off_c, 1, 55, 64
3, 21120, Note_on_c, 1, 54, 107
3, 21216, Note_off_c, 1, 54, 64
3, 21240, Note_on_c, 1, 52, 107
3, 21336, Note_off_c, 1, 52, 64
3, 21360, Note_on_c, 1, 51, 107
3, 21480, Note_on_c, 1, 60, 107
3, 21672, Note_off_c, 1, 60, 64
3, 21672, Note_off_c, 1, 51, 64
3, 21720, Note_on_c, 1, 52, 107
3, 21720, Note_on_c, 1, 59, 107
3, 22008, Note_off_c, 1, 59, 64
3, 22008, Note_off_c, 1, 52, 64
3, 22080, Note_on_c, 1, 53, 107
3, 22176, Note_off_c, 1, 53, 64
3, 22200, Note_on_c, 1, 52, 107
3, 22296, Note_off_c, 1, 52, 64
3, 22320, Note_on_c, 1, 50, 107
3, 22416, Note_off_c, 1, 50, 64
3, 22440, Note_on_c, 1, 48, 107
3, 22536, Note_off_c, 1, 48, 64
3, 22560, Note_on_c, 1, 47, 107
3, 22656, Note_off_c, 1, 47, 64
3, 22680, Note_on_c, 1, 45, 107
3, 22776, Note_off_c, 1, 45, 64
3, 22800, Note_on_c, 1, 44, 107
3, 22920, Note_on_c, 1, 53, 107
3, 23112, Note_off_c, 1, 44, 64
3, 23112, Note_off_c, 1, 53, 64
3, 23160, Note_on_c, 1, 45, 107
3, 23280, Note_on_c, 1, 52, 107
3, 23352, Note_off_c, 1, 45, 64
3, 23376, Note_off_c, 1, 52, 64
3, 23400, Note_on_c, 1, 57, 107
3, 23496, Note_off_c, 1, 57, 64
3, 23520, Note_on_c, 1, 59, 107
3, 23616, Note_off_c, 1, 59, 64
3, 23640, Note_on_c, 1, 60, 107
3, 23736, Note_off_c, 1, 60, 64
3, 23760, Note_on_c, 1, 62, 107
3, 23856, Note_off_c, 1, 62, 64
3, 23880, Note_on_c, 1, 64, 107
3, 23976, Note_off_c, 1, 64, 64
3, 24000, Note_on_c, 1, 62, 107
3, 24096, Note_off_c, 1, 62, 64
3, 24120, Note_on_c, 1, 60, 107
3, 24216, Note_off_c, 1, 60, 64
3, 24240, Note_on_c, 1, 59, 107
3, 24336, Note_off_c, 1, 59, 64
3, 24360, Note_on_c, 1, 57, 107
3, 24456, Note_off_c, 1, 57, 64
3, 24480, Note_on_c, 1, 55, 107
3, 24576, Note_off_c, 1, 55, 64
3, 24600, Note_on_c, 1, 62, 107
3, 24792, Note_off_c, 1, 62, 64
3, 24840, Note_on_c, 1, 50, 107
3, 25032, Note_off_c, 1, 50, 64
3, 25800, Note_on_c, 1, 69, 107
3, 25800, Note_on_c, 1, 66, 107
3, 25800, Note_on_c, 1, 62, 107
3, 25992, Note_off_c, 1, 62, 64
3, 25992, Note_off_c, 1, 66, 64
3, 25992, Note_off_c, 1, 69, 64
3, 26040, Note_on_c, 1, 62, 107
3, 26232, Note_off_c, 1, 62, 64
3, 26280, Note_on_c, 1, 50, 107
3, 26472, Note_off_c, 1, 50, 64
3, 27240, Note_on_c, 1, 62, 107
3, 27240, Note_on_c, 1, 67, 107
3, 27432, Note_off_c, 1, 67, 64
3, 27432, Note_off_c, 1, 62, 64
3, 27480, Note_on_c, 1, 62, 107
3, 27672, Note_off_c, 1, 62, 64
3, 27720, Note_on_c, 1, 50, 107
3, 27912, Note_off_c, 1, 50, 64
3, 28560, Note_on_c, 1, 50, 107
3, 28656, Note_off_c, 1, 50, 64
3, 28680, Note_on_c, 1, 52, 107
3, 28776, Note_off_c, 1, 52, 64
3, 28800, Note_on_c, 1, 54, 107
3, 28896, Note_off_c, 1, 54, 64
3, 28920, Note_on_c, 1, 55, 107
3, 29016, Note_off_c, 1, 55, 64
3, 29040, Note_on_c, 1, 57, 107
3, 29136, Note_off_c, 1, 57, 64
3, 29160, Note_on_c, 1, 55, 107
3, 29256, Note_off_c, 1, 55, 64
3, 29280, Note_on_c, 1, 54, 107
3, 29376, Note_off_c, 1, 54, 64
3, 29400, Note_on_c, 1, 52, 107
3, 29496, Note_off_c, 1, 52, 64
3, 29520, Note_on_c, 1, 50, 107
3, 29616, Note_off_c, 1, 50, 64
3, 29640, Note_on_c, 1, 52, 107
3, 29736, Note_off_c, 1, 52, 64
3, 29760, Note_on_c, 1, 48, 107
3, 29856, Note_off_c, 1, 48, 64
3, 29880, Note_on_c, 1, 50, 107
3, 30072, Note_off_c, 1, 50, 64
3, 30120, Note_on_c, 1, 38, 107
3, 30312, Note_off_c, 1, 38, 64
3, 30360, Note_on_c, 1, 43, 107
3, 30552, Note_off_c, 1, 43, 64
3, 30600, Note_on_c, 1, 55, 107
3, 30696, Note_off_c, 1, 55, 64
3, 30720, Note_on_c, 1, 57, 107
3, 30816, Note_off_c, 1, 57, 64
3, 30840, Note_on_c, 1, 55, 107
3, 30936, Note_off_c, 1, 55, 64
3, 30960, Note_on_c, 1, 54, 107
3, 31056, Note_off_c, 1, 54, 64
3, 31080, Note_on_c, 1, 52, 107
3, 31176, Note_off_c, 1, 52, 64
3, 31200, Note_on_c, 1, 50, 107
3, 31296, Note_off_c, 1, 50, 64
3, 31320, Note_on_c, 1, 49, 107
3, 31416, Note_off_c, 1, 49, 64
3, 31440, Note_on_c, 1, 47, 107
3, 31560, Note_on_c, 1, 55, 107
3, 31752, Note_off_c, 1, 55, 64
3, 31752, Note_off_c, 1, 47, 64
3, 31800, Note_on_c, 1, 54, 107
3, 31800, Note_on_c, 1, 46, 107
3, 31992, Note_off_c, 1, 46, 64
3, 32040, Note_on_c, 1, 42, 107
3, 32232, Note_off_c, 1, 42, 64
3, 32280, Note_on_c, 1, 47, 107
3, 32376, Note_off_c, 1, 54, 64
3, 32472, Note_off_c, 1, 47, 64
3, 32520, Note_on_c, 1, 55, 107
3, 32520, Note_on_c, 1, 52, 107
3, 32712, Note_off_c, 1, 52, 64
3, 32712, Note_off_c, 1, 55, 64
3, 32760, Note_on_c, 1, 54, 107
3, 32760, Note_on_c, 1, 54, 107
3, 32952, Note_off_c, 1, 54, 64
3, 33000, Note_on_c, 1, 42, 107
3, 33144, Note_off_c, 1, 54, 64
3, 33192, Note_off_c, 1, 42, 64
3, 33240, Note_on_c, 1, 47, 107
3, 33480, Note_on_c, 1, 51, 107
3, 33672, Note_off_c, 1, 51, 64
3, 33720, Note_on_c, 1, 54, 107
3, 33816, Note_off_c, 1, 47, 64
3, 33912, Note_off_c, 1, 54, 64
3, 33960, Note_on_c, 1, 59, 107
3, 33960, Note_on_c, 1, 47, 107
3, 34344, Note_off_c, 1, 47, 64
3, 34344, Note_off_c, 1, 59, 64
3, 34680, Note_on_c, 1, 59, 107
3, 34968, Note_off_c, 1, 59, 64
3, 35040, Note_on_c, 1, 47, 107
3, 35136, Note_off_c, 1, 47, 64
3, 35160, Note_on_c, 1, 49, 107
3, 35256, Note_off_c, 1, 49, 64
3, 35280, Note_on_c, 1, 51, 107
3, 35376, Note_off_c, 1, 51, 64
3, 35400, Note_on_c, 1, 52, 107
3, 35496, Note_off_c, 1, 52, 64
3, 35520, Note_on_c, 1, 54, 107
3, 35616, Note_off_c, 1, 54, 64
3, 35640, Note_on_c, 1, 55, 107
3, 35736, Note_off_c, 1, 55, 64
3, 35760, Note_on_c, 1, 57, 107
3, 35880, Note_on_c, 1, 51, 107
3, 36072, Note_off_c, 1, 57, 64
3, 36072, Note_off_c, 1, 51, 64
3, 36120, Note_on_c, 1, 52, 107
3, 36216, Note_off_c, 1, 52, 64
3, 36240, Note_on_c, 1, 54, 107
3, 36336, Note_off_c, 1, 54, 64
3, 36360, Note_on_c, 1, 52, 107
3, 36456, Note_off_c, 1, 52, 64
3, 36480, Note_on_c, 1, 50, 107
3, 36576, Note_off_c, 1, 50, 64
3, 36600, Note_on_c, 1, 48, 107
3, 36696, Note_off_c, 1, 48, 64
3, 36720, Note_on_c, 1, 47, 107
3, 36816, Note_off_c, 1, 47, 64
3, 36840, Note_on_c, 1, 45, 107
3, 36936, Note_off_c, 1, 45, 64
3, 36960, Note_on_c, 1, 44, 107
3, 37056, Note_off_c, 1, 44, 64
3, 37080, Note_on_c, 1, 42, 107
3, 37176, Note_off_c, 1, 42, 64
3, 37200, Note_on_c, 1, 40, 107
3, 37320, Note_on_c, 1, 52, 107
3, 37512, Note_off_c, 1, 40, 64
3, 37560, Note_on_c, 1, 45, 107
3, 37656, Note_off_c, 1, 52, 64
3, 37680, Note_on_c, 1, 56, 107
3, 37776, Note_off_c, 1, 56, 64
3, 37800, Note_on_c, 1, 57, 107
3, 37848, Note_off_c, 1, 45, 64
3, 37920, Note_on_c, 1, 47, 107
3, 37992, Note_off_c, 1, 57, 64
3, 38016, Note_off_c, 1, 47, 64
3, 38040, Note_on_c, 1, 48, 107
3, 38040, Note_on_c, 1, 57, 107
3, 38232, Note_off_c, 1, 48, 64
3, 38280, Note_on_c, 1, 50, 107
3, 38424, Note_off_c, 1, 57, 64
3, 38472, Note_off_c, 1, 50, 64
3, 38520, Note_on_c, 1, 52, 107
3, 38520, Note_on_c, 1, 52, 107
3, 38712, Note_off_c, 1, 52, 64
3, 38760, Note_on_c, 1, 40, 107
3, 38904, Note_off_c, 1, 52, 64
3, 38952, Note_off_c, 1, 40, 64
3, 39000, Note_on_c, 1, 45, 107
3, 39192, Note_off_c, 1, 45, 64
3, 39240, Note_on_c, 1, 57, 107
3, 39432, Note_off_c, 1, 57, 64
3, 39480, Note_on_c, 1, 55, 107
3, 39672, Note_off_c, 1, 55, 64
3, 39720, Note_on_c, 1, 54, 107
3, 39912, Note_off_c, 1, 54, 64
3, 39960, Note_on_c, 1, 52, 107
3, 40152, Note_off_c, 1, 52, 64
3, 40200, Note_on_c, 1, 54, 107
3, 40392, Note_off_c, 1, 54, 64
3, 40440, Note_on_c, 1, 55, 107
3, 40728, Note_off_c, 1, 55, 64
3, 40800, Note_on_c, 1, 57, 107
3, 40896, Note_off_c, 1, 57, 64
3, 40920, Note_on_c, 1, 59, 107
3, 41016, Note_off_c, 1, 59, 64
3, 41040, Note_on_c, 1, 57, 107
3, 41136, Note_off_c, 1, 57, 64
3, 41160, Note_on_c, 1, 55, 107
3, 41256, Note_off_c, 1, 55, 64
3, 41280, Note_on_c, 1, 54, 107
3, 41376, Note_off_c, 1, 54, 64
3, 41400, Note_on_c, 1, 52, 107
3, 41496, Note_off_c, 1, 52, 64
3, 41520, Note_on_c, 1, 54, 107
3, 41616, Note_off_c, 1, 54, 64
3, 41640, Note_on_c, 1, 52, 107
3, 41736, Note_off_c, 1, 52, 64
3, 41760, Note_on_c, 1, 50, 107
3, 41856, Note_off_c, 1, 50, 64
3, 41880, Note_on_c, 1, 57, 107
3, 42168, Note_off_c, 1, 57, 64
3, 42240, Note_on_c, 1, 45, 107
3, 42336, Note_off_c, 1, 45, 64
3, 42360, Note_on_c, 1, 47, 107
3, 42456, Note_off_c, 1, 47, 64
3, 42480, Note_on_c, 1, 49, 107
3, 42576, Note_off_c, 1, 49, 64
3, 42600, Note_on_c, 1, 50, 107
3, 42696, Note_off_c, 1, 50, 64
3, 42720, Note_on_c, 1, 52, 107
3, 42816, Note_off_c, 1, 52, 64
3, 42840, Note_on_c, 1, 54, 107
3, 42936, Note_off_c, 1, 54, 64
3, 42960, Note_on_c, 1, 55, 107
3, 43080, Note_on_c, 1, 45, 107
3, 43272, Note_off_c, 1, 55, 64
3, 43320, Note_on_c, 1, 55, 105
3, 43464, Note_off_c, 1, 55, 64
3, 43500, Note_on_c, 1, 54, 107
3, 43608, Note_off_c, 1, 45, 64
3, 43613, Note_off_c, 1, 54, 64
3, 43680, Note_on_c, 1, 47, 107
3, 43776, Note_off_c, 1, 47, 64
3, 43800, Note_on_c, 1, 49, 107
3, 43896, Note_off_c, 1, 49, 64
3, 43920, Note_on_c, 1, 50, 107
3, 44016, Note_off_c, 1, 50, 64
3, 44040, Note_on_c, 1, 52, 107
3, 44136, Note_off_c, 1, 52, 64
3, 44160, Note_on_c, 1, 54, 107
3, 44256, Note_off_c, 1, 54, 64
3, 44280, Note_on_c, 1, 55, 107
3, 44376, Note_off_c, 1, 55, 64
3, 44400, Note_on_c, 1, 57, 107
3, 44520, Note_on_c, 1, 47, 107
3, 44712, Note_off_c, 1, 47, 64
3, 44712, Note_off_c, 1, 57, 64
3, 44760, Note_on_c, 1, 57, 107
3, 44760, Note_on_c, 1, 49, 107
3, 44856, Note_off_c, 1, 57, 64
3, 44880, Note_on_c, 1, 54, 107
3, 44976, Note_off_c, 1, 54, 64
3, 45000, Note_on_c, 1, 55, 107
3, 45096, Note_off_c, 1, 55, 64
3, 45120, Note_on_c, 1, 52, 107
3, 45144, Note_off_c, 1, 49, 64
3, 45216, Note_off_c, 1, 52, 64
3, 45240, Note_on_c, 1, 50, 107
3, 45240, Note_on_c, 1, 54, 107
3, 45432, Note_off_c, 1, 50, 64
3, 45480, Note_on_c, 1, 43, 107
3, 45528, Note_off_c, 1, 54, 64
3, 45600, Note_on_c, 1, 52, 107
3, 45672, Note_off_c, 1, 43, 64
3, 45696, Note_off_c, 1, 52, 64
3, 45720, Note_on_c, 1, 45, 107
3, 45720, Note_on_c, 1, 54, 107
3, 45744, Note_off_c, 1, 54, 64
3, 45750, Note_on_c, 1, 52, 107
3, 45774, Note_off_c, 1, 52, 64
3, 45780, Note_on_c, 1, 54, 107
3, 45804, Note_off_c, 1, 54, 64
3, 45810, Note_on_c, 1, 52, 107
3, 45834, Note_off_c, 1, 52, 64
3, 45840, Note_on_c, 1, 54, 107
3, 45864, Note_off_c, 1, 54, 64
3, 45870, Note_on_c, 1, 52, 107
3, 45894, Note_off_c, 1, 52, 64
3, 45900, Note_on_c, 1, 54, 107
3, 45924, Note_off_c, 1, 54, 64
3, 45930, Note_on_c, 1, 52, 107
3, 45954, Note_off_c, 1, 52, 64
3, 45960, Note_on_c, 1, 54, 107
3, 45984, Note_off_c, 1, 54, 64
3, 45990, Note_on_c, 1, 52, 107
3, 46014, Note_off_c, 1, 52, 64
3, 46020, Note_on_c, 1, 54, 107
3, 46044, Note_off_c, 1, 54, 64
3, 46050, Note_on_c, 1, 52, 107
3, 46074, Note_off_c, 1, 52, 64
3, 46080, Note_on_c, 1, 50, 107
3, 46104, Note_off_c, 1, 45, 64
3, 46176, Note_off_c, 1, 50, 64
3, 46200, Note_on_c, 1, 50, 107
3, 46200, Note_on_c, 1, 38, 107
3, 46488, Note_off_c, 1, 38, 64
3, 46488, Note_off_c, 1, 50, 64
3, 46560, Note_on_c, 1, 62, 107
3, 46656, Note_off_c, 1, 62, 64
3, 46680, Note_on_c, 1, 60, 107
3, 46776, Note_off_c, 1, 60, 64
3, 46800, Note_on_c, 1, 59, 107
3, 46896, Note_off_c, 1, 59, 64
3, 46920, Note_on_c, 1, 57, 107
3, 47016, Note_off_c, 1, 57, 64
3, 47040, Note_on_c, 1, 55, 107
3, 47136, Note_off_c, 1, 55, 64
3, 47160, Note_on_c, 1, 54, 107
3, 47256, Note_off_c, 1, 54, 64
3, 47280, Note_on_c, 1, 55, 107
3, 47376, Note_off_c, 1, 55, 64
3, 47400, Note_on_c, 1, 57, 107
3, 47496, Note_off_c, 1, 57, 64
3, 47520, Note_on_c, 1, 54, 107
3, 47616, Note_off_c, 1, 54, 64
3, 47640, Note_on_c, 1, 59, 107
3, 47928, Note_off_c, 1, 59, 64
3, 48000, Note_on_c, 1, 57, 107
3, 48096, Note_off_c, 1, 57, 64
3, 48120, Note_on_c, 1, 55, 107
3, 48216, Note_off_c, 1, 55, 64
3, 48240, Note_on_c, 1, 54, 107
3, 48336, Note_off_c, 1, 54, 64
3, 48360, Note_on_c, 1, 52, 107
3, 48456, Note_off_c, 1, 52, 64
3, 48480, Note_on_c, 1, 51, 107
3, 48576, Note_off_c, 1, 51, 64
3, 48600, Note_on_c, 1, 52, 107
3, 48696, Note_off_c, 1, 52, 64
3, 48720, Note_on_c, 1, 54, 107
3, 48816, Note_off_c, 1, 54, 64
3, 48840, Note_on_c, 1, 55, 107
3, 48936, Note_off_c, 1, 55, 64
3, 48960, Note_on_c, 1, 52, 107
3, 49056, Note_off_c, 1, 52, 64
3, 49080, Note_on_c, 1, 57, 107
3, 49176, Note_off_c, 1, 57, 64
3, 49200, Note_on_c, 1, 59, 107
3, 49296, Note_off_c, 1, 59, 64
3, 49320, Note_on_c, 1, 57, 107
3, 49416, Note_off_c, 1, 57, 64
3, 49440, Note_on_c, 1, 55, 107
3, 49536, Note_off_c, 1, 55, 64
3, 49560, Note_on_c, 1, 54, 107
3, 49656, Note_off_c, 1, 54, 64
3, 49680, Note_on_c, 1, 64, 107
3, 49776, Note_off_c, 1, 64, 64
3, 49800, Note_on_c, 1, 63, 107
3, 49896, Note_off_c, 1, 63, 64
3, 49920, Note_on_c, 1, 59, 107
3, 50016, Note_off_c, 1, 59, 64
3, 50040, Note_on_c, 1, 64, 107
3, 50136, Note_off_c, 1, 64, 64
3, 50160, Note_on_c, 1, 59, 107
3, 50256, Note_off_c, 1, 59, 64
3, 50280, Note_on_c, 1, 61, 107
3, 50376, Note_off_c, 1, 61, 64
3, 50400, Note_on_c, 1, 57, 107
3, 50496, Note_off_c, 1, 57, 64
3, 50520, Note_on_c, 1, 59, 107
3, 50700, Note_off_c, 1, 59, 64
3, 50760, Note_on_c, 1, 47, 107
3, 50940, Note_off_c, 1, 47, 64
3, 51720, Note_on_c, 1, 64, 107
3, 51720, Note_on_c, 1, 59, 107
3, 51900, Note_off_c, 1, 64, 64
3, 51912, Note_off_c, 1, 59, 64
3, 51960, Note_on_c, 1, 59, 107
3, 52140, Note_off_c, 1, 59, 64
3, 52200, Note_on_c, 1, 47, 107
3, 52380, Note_off_c, 1, 47, 64
3, 53160, Note_on_c, 1, 66, 107
3, 53160, Note_on_c, 1, 59, 107
3, 53160, Note_on_c, 1, 63, 107
3, 53340, Note_off_c, 1, 66, 64
3, 53352, Note_off_c, 1, 63, 64
3, 53352, Note_off_c, 1, 59, 64
3, 53400, Note_on_c, 1, 59, 107
3, 53580, Note_off_c, 1, 59, 64
3, 53640, Note_on_c, 1, 47, 107
3, 53976, Note_off_c, 1, 47, 64
3, 54000, Note_on_c, 1, 47, 107
3, 54096, Note_off_c, 1, 47, 64
3, 54120, Note_on_c, 1, 49, 107
3, 54216, Note_off_c, 1, 49, 64
3, 54240, Note_on_c, 1, 51, 107
3, 54336, Note_off_c, 1, 51, 64
3, 54360, Note_on_c, 1, 52, 107
3, 54456, Note_off_c, 1, 52, 64
3, 54480, Note_on_c, 1, 54, 107
3, 54576, Note_off_c, 1, 54, 64
3, 54600, Note_on_c, 1, 55, 107
3, 54696, Note_off_c, 1, 55, 64
3, 54720, Note_on_c, 1, 57, 107
3, 54816, Note_off_c, 1, 57, 64
3, 54840, Note_on_c, 1, 59, 107
3, 54936, Note_off_c, 1, 59, 64
3, 54960, Note_on_c, 1, 61, 107
3, 55056, Note_off_c, 1, 61, 64
3, 55080, Note_on_c, 1, 63, 107
3, 55176, Note_off_c, 1, 63, 64
3, 55200, Note_on_c, 1, 59, 107
3, 55296, Note_off_c, 1, 59, 64
3, 55320, Note_on_c, 1, 64, 107
3, 55500, Note_off_c, 1, 64, 64
3, 55560, Note_on_c, 1, 57, 107
3, 55740, Note_off_c, 1, 57, 64
3, 55800, Note_on_c, 1, 59, 107
3, 55980, Note_off_c, 1, 59, 64
3, 56040, Note_on_c, 1, 47, 107
3, 56220, Note_off_c, 1, 47, 64
3, 56280, Note_on_c, 1, 52, 107
3, 56520, Note_on_c, 1, 40, 107
3, 56760, Note_on_c, 1, 47, 107
3, 56856, Note_off_c, 1, 52, 64
3, 56952, Note_off_c, 1, 47, 64
3, 57000, Note_on_c, 1, 52, 107
3, 57384, Note_off_c, 1, 40, 64
3, 57384, Note_off_c, 1, 52, 64
3, 57720, Note_on_c, 1, 59, 107
3, 58008, Note_off_c, 1, 59, 64
3, 58080, Note_on_c, 1, 47, 107
3, 58176, Note_off_c, 1, 47, 64
3, 58200, Note_on_c, 1, 49, 107
3, 58296, Note_off_c, 1, 49, 64
3, 58320, Note_on_c, 1, 51, 107
3, 58416, Note_off_c, 1, 51, 64
3, 58440, Note_on_c, 1, 52, 107
3, 58536, Note_off_c, 1, 52, 64
3, 58560, Note_on_c, 1, 54, 107
3, 58656, Note_off_c, 1, 54, 64
3, 58680, Note_on_c, 1, 55, 107
3, 58776, Note_off_c, 1, 55, 64
3, 58800, Note_on_c, 1, 57, 107
3, 58920, Note_on_c, 1, 51, 107
3, 59112, Note_off_c, 1, 57, 64
3, 59112, Note_off_c, 1, 51, 64
3, 59160, Note_on_c, 1, 52, 107
3, 59256, Note_off_c, 1, 52, 64
3, 59280, Note_on_c, 1, 54, 107
3, 59376, Note_off_c, 1, 54, 64
3, 59400, Note_on_c, 1, 52, 107
3, 59496, Note_off_c, 1, 52, 64
3, 59520, Note_on_c, 1, 50, 107
3, 59616, Note_off_c, 1, 50, 64
3, 59640, Note_on_c, 1, 48, 107
3, 59736, Note_off_c, 1, 48, 64
3, 59760, Note_on_c, 1, 47, 107
3, 59856, Note_off_c, 1, 47, 64
3, 59880, Note_on_c, 1, 45, 107
3, 59976, Note_off_c, 1, 45, 64
3, 60000, Note_on_c, 1, 44, 107
3, 60096, Note_off_c, 1, 44, 64
3, 60120, Note_on_c, 1, 42, 107
3, 60216, Note_off_c, 1, 42, 64
3, 60240, Note_on_c, 1, 40, 107
3, 60360, Note_on_c, 1, 52, 107
3, 60552, Note_off_c, 1, 40, 64
3, 60600, Note_on_c, 1, 45, 107
3, 60696, Note_off_c, 1, 52, 64
3, 60720, Note_on_c, 1, 56, 107
3, 60816, Note_off_c, 1, 56, 64
3, 60840, Note_on_c, 1, 57, 107
3, 60888, Note_off_c, 1, 45, 64
3, 60960, Note_on_c, 1, 47, 107
3, 61032, Note_off_c, 1, 57, 64
3, 61056, Note_off_c, 1, 47, 64
3, 61080, Note_on_c, 1, 48, 107
3, 61080, Note_on_c, 1, 57, 107
3, 61272, Note_off_c, 1, 48, 64
3, 61320, Note_on_c, 1, 50, 107
3, 61464, Note_off_c, 1, 57, 64
3, 61512, Note_off_c, 1, 50, 64
3, 61560, Note_on_c, 1, 52, 107
3, 61560, Note_on_c, 1, 52, 107
3, 61752, Note_off_c, 1, 52, 64
3, 61800, Note_on_c, 1, 40, 107
3, 61944, Note_off_c, 1, 52, 64
3, 61992, Note_off_c, 1, 40, 64
3, 62040, Note_on_c, 1, 45, 107
3, 62232, Note_off_c, 1, 45, 64
3, 62280, Note_on_c, 1, 57, 107
3, 62472, Note_off_c, 1, 57, 64
3, 62520, Note_on_c, 1, 55, 107
3, 62712, Note_off_c, 1, 55, 64
3, 62760, Note_on_c, 1, 54, 107
3, 62952, Note_off_c, 1, 54, 64
3, 63000, Note_on_c, 1, 52, 107
3, 63192, Note_off_c, 1, 52, 64
3, 63240, Note_on_c, 1, 54, 107
3, 63432, Note_off_c, 1, 54, 64
3, 63480, Note_on_c, 1, 55, 107
3, 63768, Note_off_c, 1, 55, 64
3, 63840, Note_on_c, 1, 57, 107
3, 63936, Note_off_c, 1, 57, 64
3, 63960, Note_on_c, 1, 59, 107
3, 64056, Note_off_c, 1, 59, 64
3, 64080, Note_on_c, 1, 57, 107
3, 64176, Note_off_c, 1, 57, 64
3, 64200, Note_on_c, 1, 55, 107
3, 64296, Note_off_c, 1, 55, 64
3, 64320, Note_on_c, 1, 54, 107
3, 64416, Note_off_c, 1, 54, 64
3, 64440, Note_on_c, 1, 52, 107
3, 64536, Note_off_c, 1, 52, 64
3, 64560, Note_on_c, 1, 54, 107
3, 64656, Note_off_c, 1, 54, 64
3, 64680, Note_on_c, 1, 52, 107
3, 64776, Note_off_c, 1, 52, 64
3, 64800, Note_on_c, 1, 50, 107
3, 64896, Note_off_c, 1, 50, 64
3, 64920, Note_on_c, 1, 57, 107
3, 65208, Note_off_c, 1, 57, 64
3, 65280, Note_on_c, 1, 45, 107
3, 65376, Note_off_c, 1, 45, 64
3, 65400, Note_on_c, 1, 47, 107
3, 65496, Note_off_c, 1, 47, 64
3, 65520, Note_on_c, 1, 49, 107
3, 65616, Note_off_c, 1, 49, 64
3, 65640, Note_on_c, 1, 50, 107
3, 65736, Note_off_c, 1, 50, 64
3, 65760, Note_on_c, 1, 52, 107
3, 65856, Note_off_c, 1, 52, 64
3, 65880, Note_on_c, 1, 54, 107
3, 65976, Note_off_c, 1, 54, 64
3, 66000, Note_on_c, 1, 55, 107
3, 66120, Note_on_c, 1, 45, 107
3, 66312, Note_off_c, 1, 55, 64
3, 66360, Note_on_c, 1, 55, 105
3, 66504, Note_off_c, 1, 55, 64
3, 66540, Note_on_c, 1, 54, 107
3, 66648, Note_off_c, 1, 45, 64
3, 66653, Note_off_c, 1, 54, 64
3, 66720, Note_on_c, 1, 47, 107
3, 66816, Note_off_c, 1, 47, 64
3, 66840, Note_on_c, 1, 49, 107
3, 66936, Note_off_c, 1, 49, 64
3, 66960, Note_on_c, 1, 50, 107
3, 67056, Note_off_c, 1, 50, 64
3, 67080, Note_on_c, 1, 52, 107
3, 67176, Note_off_c, 1, 52, 64
3, 67200, Note_on_c, 1, 54, 107
3, 67296, Note_off_c, 1, 54, 64
3, 67320, Note_on_c, 1, 55, 107
3, 67416, Note_off_c, 1, 55, 64
3, 67440, Note_on_c, 1, 57, 107
3, 67560, Note_on_c, 1, 47, 107
3, 67752, Note_off_c, 1, 47, 64
3, 67752, Note_off_c, 1, 57, 64
3, 67800, Note_on_c, 1, 57, 107
3, 67800, Note_on_c, 1, 49, 107
3, 67896, Note_off_c, 1, 57, 64
3, 67920, Note_on_c, 1, 54, 107
3, 68016, Note_off_c, 1, 54, 64
3, 68040, Note_on_c, 1, 55, 107
3, 68136, Note_off_c, 1, 55, 64
3, 68160, Note_on_c, 1, 52, 107
3, 68184, Note_off_c, 1, 49, 64
3, 68256, Note_off_c, 1, 52, 64
3, 68280, Note_on_c, 1, 50, 107
3, 68280, Note_on_c, 1, 54, 107
3, 68472, Note_off_c, 1, 50, 64
3, 68520, Note_on_c, 1, 43, 107
3, 68568, Note_off_c, 1, 54, 64
3, 68640, Note_on_c, 1, 52, 107
3, 68712, Note_off_c, 1, 43, 64
3, 68736, Note_off_c, 1, 52, 64
3, 68760, Note_on_c, 1, 45, 107
3, 68760, Note_on_c, 1, 54, 107
3, 68784, Note_off_c, 1, 54, 64
3, 68790, Note_on_c, 1, 52, 107
3, 68814, Note_off_c, 1, 52, 64
3, 68820, Note_on_c, 1, 54, 107
3, 68844, Note_off_c, 1, 54, 64
3, 68850, Note_on_c, 1, 52, 107
3, 68874, Note_off_c, 1, 52, 64
3, 68880, Note_on_c, 1, 54, 107
3, 68904, Note_off_c, 1, 54, 64
3, 68910, Note_on_c, 1, 52, 107
3, 68934, Note_off_c, 1, 52, 64
3, 68940, Note_on_c, 1, 54, 107
3, 68964, Note_off_c, 1, 54, 64
3, 68970, Note_on_c, 1, 52, 107
3, 68994, Note_off_c, 1, 52, 64
3, 69000, Note_on_c, 1, 54, 107
3, 69024, Note_off_c, 1, 54, 64
3, 69030, Note_on_c, 1, 52, 107
3, 69054, Note_off_c, 1, 52, 64
3, 69060, Note_on_c, 1, 54, 107
3, 69084, Note_off_c, 1, 54, 64
3, 69090, Note_on_c, 1, 52, 107
3, 69114, Note_off_c, 1, 52, 64
3, 69120, Note_on_c, 1, 50, 107
3, 69144, Note_off_c, 1, 45, 64
3, 69216, Note_off_c, 1, 50, 64
3, 69240, Note_on_c, 1, 50, 107
3, 69240, Note_on_c, 1, 38, 107
3, 69528, Note_off_c, 1, 38, 64
3, 69528, Note_off_c, 1, 50, 64
3, 69600, Note_on_c, 1, 62, 107
3, 69696, Note_off_c, 1, 62, 64
3, 69720, Note_on_c, 1, 60, 107
3, 69816, Note_off_c, 1, 60, 64
3, 69840, Note_on_c, 1, 59, 107
3, 69936, Note_off_c, 1, 59, 64
3, 69960, Note_on_c, 1, 57, 107
3, 70056, Note_off_c, 1, 57, 64
3, 70080, Note_on_c, 1, 55, 107
3, 70176, Note_off_c, 1, 55, 64
3, 70200, Note_on_c, 1, 54, 107
3, 70296, Note_off_c, 1, 54, 64
3, 70320, Note_on_c, 1, 55, 107
3, 70416, Note_off_c, 1, 55, 64
3, 70440, Note_on_c, 1, 57, 107
3, 70536, Note_off_c, 1, 57, 64
3, 70560, Note_on_c, 1, 54, 107
3, 70656, Note_off_c, 1, 54, 64
3, 70680, Note_on_c, 1, 59, 107
3, 70968, Note_off_c, 1, 59, 64
3, 71040, Note_on_c, 1, 57, 107
3, 71136, Note_off_c, 1, 57, 64
3, 71160, Note_on_c, 1, 55, 107
3, 71256, Note_off_c, 1, 55, 64
3, 71280, Note_on_c, 1, 54, 107
3, 71376, Note_off_c, 1, 54, 64
3, 71400, Note_on_c, 1, 52, 107
3, 71496, Note_off_c, 1, 52, 64
3, 71520, Note_on_c, 1, 51, 107
3, 71616, Note_off_c, 1, 51, 64
3, 71640, Note_on_c, 1, 52, 107
3, 71736, Note_off_c, 1, 52, 64
3, 71760, Note_on_c, 1, 54, 107
3, 71856, Note_off_c, 1, 54, 64
3, 71880, Note_on_c, 1, 55, 107
3, 71976, Note_off_c, 1, 55, 64
3, 72000, Note_on_c, 1, 52, 107
3, 72096, Note_off_c, 1, 52, 64
3, 72120, Note_on_c, 1, 57, 107
3, 72216, Note_off_c, 1, 57, 64
3, 72240, Note_on_c, 1, 59, 107
3, 72336, Note_off_c, 1, 59, 64
3, 72360, Note_on_c, 1, 57, 107
3, 72456, Note_off_c, 1, 57, 64
3, 72480, Note_on_c, 1, 55, 107
3, 72576, Note_off_c, 1, 55, 64
3, 72600, Note_on_c, 1, 54, 107
3, 72696, Note_off_c, 1, 54, 64
3, 72720, Note_on_c, 1, 64, 107
3, 72816, Note_off_c, 1, 64, 64
3, 72840, Note_on_c, 1, 63, 107
3, 72936, Note_off_c, 1, 63, 64
3, 72960, Note_on_c, 1, 59, 107
3, 73056, Note_off_c, 1, 59, 64
3, 73080, Note_on_c, 1, 64, 107
3, 73176, Note_off_c, 1, 64, 64
3, 73200, Note_on_c, 1, 59, 107
3, 73296, Note_off_c, 1, 59, 64
3, 73320, Note_on_c, 1, 61, 107
3, 73416, Note_off_c, 1, 61, 64
3, 73440, Note_on_c, 1, 57, 107
3, 73536, Note_off_c, 1, 57, 64
3, 73560, Note_on_c, 1, 59, 107
3, 73740, Note_off_c, 1, 59, 64
3, 73800, Note_on_c, 1, 47, 107
3, 73980, Note_off_c, 1, 47, 64
3, 74760, Note_on_c, 1, 64, 107
3, 74760, Note_on_c, 1, 59, 107
3, 74940, Note_off_c, 1, 64, 64
3, 74952, Note_off_c, 1, 59, 64
3, 75000, Note_on_c, 1, 59, 107
3, 75180, Note_off_c, 1, 59, 64
3, 75240, Note_on_c, 1, 47, 107
3, 75420, Note_off_c, 1, 47, 64
3, 76200, Note_on_c, 1, 66, 107
3, 76200, Note_on_c, 1, 59, 107
3, 76200, Note_on_c, 1, 63, 107
3, 76380, Note_off_c, 1, 66, 64
3, 76392, Note_off_c, 1, 63, 64
3, 76392, Note_off_c, 1, 59, 64
3, 76440, Note_on_c, 1, 59, 107
3, 76620, Note_off_c, 1, 59, 64
3, 76680, Note_on_c, 1, 47, 107
3, 77016, Note_off_c, 1, 47, 64
3, 77040, Note_on_c, 1, 47, 107
3, 77136, Note_off_c, 1, 47, 64
3, 77160, Note_on_c, 1, 49, 107
3, 77256, Note_off_c, 1, 49, 64
3, 77280, Note_on_c, 1, 51, 107
3, 77376, Note_off_c, 1, 51, 64
3, 77400, Note_on_c, 1, 52, 107
3, 77496, Note_off_c, 1, 52, 64
3, 77520, Note_on_c, 1, 54, 107
3, 77616, Note_off_c, 1, 54, 64
3, 77640, Note_on_c, 1, 55, 107
3, 77736, Note_off_c, 1, 55, 64
3, 77760, Note_on_c, 1, 57, 107
3, 77856, Note_off_c, 1, 57, 64
3, 77880, Note_on_c, 1, 59, 107
3, 77976, Note_off_c, 1, 59, 64
3, 78000, Note_on_c, 1, 61, 107
3, 78096, Note_off_c, 1, 61, 64
3, 78120, Note_on_c, 1, 63, 107
3, 78216, Note_off_c, 1, 63, 64
3, 78240, Note_on_c, 1, 59, 107
3, 78336, Note_off_c, 1, 59, 64
3, 78360, Note_on_c, 1, 64, 107
3, 78540, Note_off_c, 1, 64, 64
3, 78600, Note_on_c, 1, 57, 107
3, 78780, Note_off_c, 1, 57, 64
3, 78840, Note_on_c, 1, 59, 107
3, 79020, Note_off_c, 1, 59, 64
3, 79080, Note_on_c, 1, 47, 107
3, 79260, Note_off_c, 1, 47, 64
3, 79320, Note_on_c, 1, 52, 107
3, 79560, Note_on_c, 1, 40, 107
3, 79800, Note_on_c, 1, 47, 107
3, 79896, Note_off_c, 1, 52, 64
3, 79992, Note_off_c, 1, 47, 64
3, 80040, Note_on_c, 1, 52, 107
3, 80424, Note_off_c, 1, 40, 64
3, 80424, Note_off_c, 1, 52, 64
3, 80424, End_track
4, 0, Start_track
4, 0, Title_t, "Arr. Gary Bricault, (c) 1997"
4, 0, End_track
0, 0, End_of_file
