0, 0, Header, 1, 3, 384
1, 0, Start_track
1, 0, Time_signature, 4, 2, 24, 8
1, 0, Tempo, 500000
1, 201216, End_track
2, 0, Start_track
2, 0, Text_t, "harpsichord: John Sankey"
2, 0, Program_c, 0, 6
2, 0, Pitch_bend_c, 0, 8192
2, 0, Program_c, 1, 6
2, 0, Pitch_bend_c, 1, 7792
2, 0, Program_c, 2, 6
2, 0, Pitch_bend_c, 2, 7876
2, 0, Program_c, 3, 6
2, 0, Pitch_bend_c, 3, 7952
2, 0, Program_c, 4, 6
2, 0, Pitch_bend_c, 4, 7792
2, 0, Program_c, 5, 6
2, 0, Pitch_bend_c, 5, 8112
2, 0, Program_c, 6, 6
2, 0, Pitch_bend_c, 6, 7712
2, 0, Program_c, 7, 6
2, 0, Pitch_bend_c, 7, 8037
2, 0, Program_c, 8, 6
2, 0, Pitch_bend_c, 8, 7872
2, 0, Program_c, 10, 6
2, 0, Pitch_bend_c, 10, 7712
2, 0, Program_c, 11, 6
2, 0, Pitch_bend_c, 11, 8032
2, 0, Program_c, 12, 6
2, 0, Pitch_bend_c, 12, 7872
2, 0, Title_t, "Track 1"
2, 64, Note_on_c, 2, 50, 127
2, 64, Note_on_c, 2, 74, 127
2, 126, Note_off_c, 2, 50, 127
2, 129, Note_on_c, 1, 49, 127
2, 191, Note_off_c, 1, 49, 127
2, 194, Note_on_c, 2, 50, 127
2, 323, Note_off_c, 2, 74, 127
2, 324, Note_on_c, 0, 72, 127
2, 447, Note_off_c, 0, 72, 127
2, 455, Note_on_c, 11, 70, 127
2, 578, Note_off_c, 11, 70, 127
2, 585, Note_on_c, 2, 38, 127
2, 585, Note_on_c, 10, 69, 127
2, 708, Note_off_c, 10, 69, 127
2, 716, Note_on_c, 7, 67, 127
2, 839, Note_off_c, 7, 67, 127
2, 846, Note_on_c, 5, 65, 127
2, 969, Note_off_c, 5, 65, 127
2, 976, Note_on_c, 4, 64, 127
2, 1099, Note_off_c, 4, 64, 127
2, 1107, Note_on_c, 2, 62, 127
2, 1230, Note_off_c, 2, 62, 127
2, 1237, Note_on_c, 5, 65, 127
2, 1360, Note_off_c, 5, 65, 127
2, 1368, Note_on_c, 4, 64, 127
2, 1491, Note_off_c, 4, 64, 127
2, 1498, Note_off_c, 2, 50, 127
2, 1498, Note_on_c, 2, 62, 127
2, 1621, Note_off_c, 2, 62, 127
2, 1626, Note_off_c, 2, 38, 127
2, 1629, Note_on_c, 11, 70, 127
2, 1752, Note_off_c, 11, 70, 127
2, 1760, Note_on_c, 7, 67, 127
2, 1883, Note_off_c, 7, 67, 127
2, 1890, Note_on_c, 2, 38, 127
2, 1890, Note_on_c, 2, 62, 127
2, 2013, Note_off_c, 2, 62, 127
2, 2021, Note_on_c, 7, 67, 127
2, 2144, Note_off_c, 7, 67, 127
2, 2148, Note_off_c, 2, 38, 127
2, 2151, Note_on_c, 7, 43, 127
2, 2151, Note_on_c, 11, 70, 127
2, 2274, Note_off_c, 11, 70, 127
2, 2281, Note_on_c, 7, 67, 127
2, 2404, Note_off_c, 7, 67, 127
2, 2409, Note_off_c, 7, 43, 127
2, 2412, Note_on_c, 11, 46, 127
2, 2412, Note_on_c, 2, 62, 127
2, 2535, Note_off_c, 2, 62, 127
2, 2542, Note_on_c, 7, 67, 127
2, 2665, Note_off_c, 7, 67, 127
2, 2670, Note_off_c, 11, 46, 127
2, 2673, Note_on_c, 2, 50, 127
2, 2673, Note_on_c, 11, 70, 127
2, 2735, Note_off_c, 2, 50, 127
2, 2738, Note_on_c, 1, 49, 127
2, 2796, Note_off_c, 11, 70, 127
2, 2800, Note_off_c, 1, 49, 127
2, 2803, Note_on_c, 7, 67, 127
2, 2803, Note_on_c, 2, 50, 127
2, 2926, Note_off_c, 7, 67, 127
2, 2933, Note_on_c, 2, 62, 127
2, 3056, Note_off_c, 2, 62, 127
2, 3064, Note_on_c, 7, 67, 127
2, 3183, Note_off_c, 2, 50, 127
2, 3187, Note_off_c, 7, 67, 127
2, 3195, Note_on_c, 10, 69, 127
2, 3318, Note_off_c, 10, 69, 127
2, 3326, Note_on_c, 7, 67, 127
2, 3449, Note_off_c, 7, 67, 127
2, 3456, Note_on_c, 2, 38, 127
2, 3456, Note_on_c, 2, 62, 127
2, 3579, Note_off_c, 2, 62, 127
2, 3586, Note_on_c, 7, 67, 127
2, 3709, Note_off_c, 7, 67, 127
2, 3714, Note_off_c, 2, 38, 127
2, 3717, Note_on_c, 5, 41, 127
2, 3717, Note_on_c, 10, 69, 127
2, 3840, Note_off_c, 10, 69, 127
2, 3847, Note_on_c, 5, 65, 127
2, 3970, Note_off_c, 5, 65, 127
2, 3975, Note_off_c, 5, 41, 127
2, 3978, Note_on_c, 10, 45, 127
2, 3978, Note_on_c, 2, 62, 127
2, 4101, Note_off_c, 2, 62, 127
2, 4108, Note_on_c, 5, 65, 127
2, 4231, Note_off_c, 5, 65, 127
2, 4236, Note_off_c, 10, 45, 127
2, 4238, Note_on_c, 2, 50, 127
2, 4238, Note_on_c, 10, 69, 127
2, 4300, Note_off_c, 2, 50, 127
2, 4304, Note_on_c, 1, 49, 127
2, 4361, Note_off_c, 10, 69, 127
2, 4366, Note_off_c, 1, 49, 127
2, 4369, Note_on_c, 5, 65, 127
2, 4369, Note_on_c, 2, 50, 127
2, 4492, Note_off_c, 5, 65, 127
2, 4499, Note_on_c, 2, 62, 127
2, 4622, Note_off_c, 2, 62, 127
2, 4630, Note_on_c, 5, 65, 127
2, 4749, Note_off_c, 2, 50, 127
2, 4753, Note_off_c, 5, 65, 127
2, 4761, Note_on_c, 7, 67, 127
2, 4884, Note_off_c, 7, 67, 127
2, 4891, Note_on_c, 4, 64, 127
2, 5014, Note_off_c, 4, 64, 127
2, 5022, Note_on_c, 11, 58, 127
2, 5022, Note_on_c, 2, 62, 127
2, 5145, Note_off_c, 2, 62, 127
2, 5152, Note_on_c, 4, 64, 127
2, 5275, Note_off_c, 4, 64, 127
2, 5280, Note_off_c, 11, 58, 127
2, 5283, Note_on_c, 4, 52, 127
2, 5283, Note_on_c, 7, 67, 127
2, 5406, Note_off_c, 7, 67, 127
2, 5413, Note_on_c, 4, 64, 127
2, 5536, Note_off_c, 4, 64, 127
2, 5541, Note_off_c, 4, 52, 127
2, 5543, Note_on_c, 7, 55, 127
2, 5543, Note_on_c, 1, 61, 127
2, 5666, Note_off_c, 1, 61, 127
2, 5674, Note_on_c, 4, 64, 127
2, 5797, Note_off_c, 4, 64, 127
2, 5801, Note_off_c, 7, 55, 127
2, 5804, Note_on_c, 1, 49, 127
2, 5804, Note_on_c, 7, 67, 127
2, 5927, Note_off_c, 7, 67, 127
2, 5935, Note_on_c, 4, 64, 127
2, 6058, Note_off_c, 4, 64, 127
2, 6062, Note_off_c, 1, 49, 127
2, 6065, Note_on_c, 10, 57, 127
2, 6065, Note_on_c, 1, 61, 127
2, 6188, Note_off_c, 1, 61, 127
2, 6196, Note_on_c, 4, 64, 127
2, 6319, Note_off_c, 4, 64, 127
2, 6323, Note_off_c, 10, 57, 127
2, 6327, Note_on_c, 2, 50, 127
2, 6327, Note_on_c, 5, 65, 127
2, 6457, Note_on_c, 2, 62, 127
2, 6580, Note_off_c, 2, 62, 127
2, 6588, Note_on_c, 0, 60, 127
2, 6711, Note_off_c, 0, 60, 127
2, 6718, Note_on_c, 11, 58, 127
2, 6841, Note_off_c, 11, 58, 127
2, 6843, Note_off_c, 5, 65, 127
2, 6843, Note_off_c, 2, 50, 127
2, 6848, Note_on_c, 10, 57, 127
2, 6972, Note_off_c, 10, 57, 127
2, 6979, Note_on_c, 7, 55, 127
2, 7103, Note_off_c, 7, 55, 127
2, 7109, Note_on_c, 5, 53, 127
2, 7233, Note_off_c, 5, 53, 127
2, 7240, Note_on_c, 4, 52, 127
2, 7364, Note_off_c, 4, 52, 127
2, 7370, Note_on_c, 2, 50, 127
2, 7494, Note_off_c, 2, 50, 127
2, 7500, Note_on_c, 5, 53, 127
2, 7624, Note_off_c, 5, 53, 127
2, 7631, Note_on_c, 4, 52, 127
2, 7755, Note_off_c, 4, 52, 127
2, 7762, Note_on_c, 2, 50, 127
2, 7886, Note_off_c, 2, 50, 127
2, 7893, Note_on_c, 11, 58, 127
2, 8017, Note_off_c, 11, 58, 127
2, 8023, Note_on_c, 7, 55, 127
2, 8147, Note_off_c, 7, 55, 127
2, 8153, Note_on_c, 2, 50, 127
2, 8153, Note_on_c, 2, 62, 127
2, 8277, Note_off_c, 2, 50, 127
2, 8284, Note_on_c, 7, 55, 127
2, 8408, Note_off_c, 7, 55, 127
2, 8412, Note_off_c, 2, 62, 127
2, 8414, Note_on_c, 11, 58, 127
2, 8414, Note_on_c, 7, 67, 127
2, 8538, Note_off_c, 11, 58, 127
2, 8545, Note_on_c, 7, 55, 127
2, 8669, Note_off_c, 7, 55, 127
2, 8673, Note_off_c, 7, 67, 127
2, 8675, Note_on_c, 2, 50, 127
2, 8675, Note_on_c, 11, 70, 127
2, 8799, Note_off_c, 2, 50, 127
2, 8805, Note_on_c, 7, 55, 127
2, 8929, Note_off_c, 7, 55, 127
2, 8934, Note_off_c, 11, 70, 127
2, 8936, Note_on_c, 11, 58, 127
2, 8936, Note_on_c, 2, 74, 127
2, 9021, Note_off_c, 2, 74, 127
2, 9023, Note_on_c, 1, 73, 127
2, 9060, Note_off_c, 11, 58, 127
2, 9066, Note_on_c, 7, 55, 127
2, 9108, Note_off_c, 1, 73, 127
2, 9110, Note_on_c, 2, 74, 127
2, 9190, Note_off_c, 7, 55, 127
2, 9197, Note_on_c, 2, 50, 127
2, 9321, Note_off_c, 2, 50, 127
2, 9328, Note_on_c, 7, 55, 127
2, 9452, Note_off_c, 7, 55, 127
2, 9458, Note_on_c, 10, 57, 127
2, 9582, Note_off_c, 10, 57, 127
2, 9589, Note_on_c, 7, 55, 127
2, 9713, Note_off_c, 7, 55, 127
2, 9719, Note_on_c, 2, 50, 127
2, 9719, Note_on_c, 2, 62, 127
2, 9843, Note_off_c, 2, 50, 127
2, 9850, Note_on_c, 7, 55, 127
2, 9891, Note_off_c, 2, 74, 127
2, 9974, Note_off_c, 7, 55, 127
2, 9978, Note_off_c, 2, 62, 127
2, 9980, Note_on_c, 10, 57, 127
2, 9980, Note_on_c, 5, 65, 127
2, 10104, Note_off_c, 10, 57, 127
2, 10110, Note_on_c, 5, 53, 127
2, 10234, Note_off_c, 5, 53, 127
2, 10239, Note_off_c, 5, 65, 127
2, 10241, Note_on_c, 2, 50, 127
2, 10241, Note_on_c, 10, 69, 127
2, 10365, Note_off_c, 2, 50, 127
2, 10371, Note_on_c, 5, 53, 127
2, 10495, Note_off_c, 5, 53, 127
2, 10500, Note_off_c, 10, 69, 127
2, 10502, Note_on_c, 10, 57, 127
2, 10502, Note_on_c, 2, 74, 127
2, 10587, Note_off_c, 2, 74, 127
2, 10589, Note_on_c, 1, 73, 127
2, 10626, Note_off_c, 10, 57, 127
2, 10632, Note_on_c, 5, 53, 127
2, 10674, Note_off_c, 1, 73, 127
2, 10676, Note_on_c, 2, 74, 127
2, 10756, Note_off_c, 5, 53, 127
2, 10763, Note_on_c, 2, 50, 127
2, 10887, Note_off_c, 2, 50, 127
2, 10894, Note_on_c, 5, 53, 127
2, 11018, Note_off_c, 5, 53, 127
2, 11024, Note_on_c, 7, 55, 127
2, 11148, Note_off_c, 7, 55, 127
2, 11155, Note_on_c, 4, 52, 127
2, 11196, Note_off_c, 2, 74, 127
2, 11279, Note_off_c, 4, 52, 127
2, 11285, Note_on_c, 2, 50, 127
2, 11285, Note_on_c, 7, 67, 127
2, 11409, Note_off_c, 2, 50, 127
2, 11415, Note_on_c, 4, 52, 127
2, 11539, Note_off_c, 4, 52, 127
2, 11544, Note_off_c, 7, 67, 127
2, 11546, Note_on_c, 7, 55, 127
2, 11546, Note_on_c, 1, 73, 127
2, 11670, Note_off_c, 7, 55, 127
2, 11676, Note_on_c, 4, 52, 127
2, 11800, Note_off_c, 4, 52, 127
2, 11805, Note_off_c, 1, 73, 127
2, 11807, Note_on_c, 1, 49, 127
2, 11807, Note_on_c, 4, 76, 127
2, 11931, Note_off_c, 1, 49, 127
2, 11937, Note_on_c, 4, 52, 127
2, 12061, Note_off_c, 4, 52, 127
2, 12066, Note_off_c, 4, 76, 127
2, 12067, Note_on_c, 7, 55, 127
2, 12067, Note_on_c, 1, 73, 127
2, 12191, Note_off_c, 7, 55, 127
2, 12198, Note_on_c, 4, 52, 127
2, 12322, Note_off_c, 4, 52, 127
2, 12326, Note_off_c, 1, 73, 127
2, 12329, Note_on_c, 1, 49, 127
2, 12329, Note_on_c, 10, 69, 127
2, 12453, Note_off_c, 1, 49, 127
2, 12460, Note_on_c, 4, 52, 127
2, 12584, Note_off_c, 4, 52, 127
2, 12588, Note_off_c, 10, 69, 127
2, 12590, Note_on_c, 5, 53, 127
2, 12590, Note_on_c, 2, 74, 127
2, 12714, Note_off_c, 5, 53, 127
2, 12720, Note_on_c, 2, 50, 127
2, 12844, Note_off_c, 2, 50, 127
2, 12849, Note_off_c, 2, 74, 127
2, 12851, Note_on_c, 4, 52, 127
2, 12851, Note_on_c, 0, 72, 127
2, 12974, Note_off_c, 0, 72, 127
2, 12975, Note_off_c, 4, 52, 127
2, 12981, Note_on_c, 5, 53, 127
2, 12981, Note_on_c, 11, 70, 127
2, 13104, Note_off_c, 11, 70, 127
2, 13105, Note_off_c, 5, 53, 127
2, 13112, Note_on_c, 7, 55, 127
2, 13112, Note_on_c, 10, 69, 127
2, 13235, Note_off_c, 10, 69, 127
2, 13236, Note_off_c, 7, 55, 127
2, 13242, Note_on_c, 10, 57, 127
2, 13242, Note_on_c, 7, 67, 127
2, 13365, Note_off_c, 7, 67, 127
2, 13366, Note_off_c, 10, 57, 127
2, 13372, Note_on_c, 12, 59, 127
2, 13372, Note_on_c, 5, 65, 127
2, 13495, Note_off_c, 5, 65, 127
2, 13496, Note_off_c, 12, 59, 127
2, 13503, Note_on_c, 1, 61, 127
2, 13503, Note_on_c, 4, 64, 127
2, 13626, Note_off_c, 4, 64, 127
2, 13627, Note_off_c, 1, 61, 127
2, 13633, Note_on_c, 2, 62, 127
2, 13633, Note_on_c, 5, 65, 127
2, 13757, Note_off_c, 2, 62, 127
2, 13764, Note_on_c, 0, 60, 127
2, 13828, Note_off_c, 5, 65, 127
2, 13888, Note_off_c, 0, 60, 127
2, 13895, Note_on_c, 12, 59, 127
2, 13895, Note_on_c, 10, 69, 127
2, 14019, Note_off_c, 12, 59, 127
2, 14025, Note_on_c, 10, 57, 127
2, 14149, Note_off_c, 10, 57, 127
2, 14156, Note_on_c, 12, 59, 127
2, 14280, Note_off_c, 12, 59, 127
2, 14284, Note_off_c, 10, 69, 127
2, 14286, Note_on_c, 0, 60, 127
2, 14286, Note_on_c, 7, 67, 127
2, 14409, Note_off_c, 7, 67, 127
2, 14410, Note_off_c, 0, 60, 127
2, 14417, Note_on_c, 12, 59, 127
2, 14417, Note_on_c, 10, 69, 127
2, 14540, Note_off_c, 10, 69, 127
2, 14541, Note_off_c, 12, 59, 127
2, 14547, Note_on_c, 10, 57, 127
2, 14547, Note_on_c, 12, 71, 127
2, 14670, Note_off_c, 12, 71, 127
2, 14671, Note_off_c, 10, 57, 127
2, 14677, Note_on_c, 7, 55, 127
2, 14677, Note_on_c, 0, 72, 127
2, 14800, Note_off_c, 0, 72, 127
2, 14801, Note_off_c, 7, 55, 127
2, 14808, Note_on_c, 5, 53, 127
2, 14808, Note_on_c, 2, 74, 127
2, 14931, Note_off_c, 2, 74, 127
2, 14932, Note_off_c, 5, 53, 127
2, 14938, Note_on_c, 4, 52, 127
2, 14938, Note_on_c, 4, 76, 127
2, 15061, Note_off_c, 4, 76, 127
2, 15062, Note_off_c, 4, 52, 127
2, 15069, Note_on_c, 2, 50, 127
2, 15069, Note_on_c, 5, 77, 127
2, 15192, Note_off_c, 5, 77, 127
2, 15193, Note_off_c, 2, 50, 127
2, 15199, Note_on_c, 4, 52, 127
2, 15199, Note_on_c, 7, 79, 127
2, 15322, Note_off_c, 7, 79, 127
2, 15330, Note_on_c, 5, 77, 127
2, 15453, Note_off_c, 5, 77, 127
2, 15457, Note_off_c, 4, 52, 127
2, 15461, Note_on_c, 7, 55, 127
2, 15461, Note_on_c, 4, 76, 127
2, 15584, Note_off_c, 4, 76, 127
2, 15591, Note_on_c, 2, 74, 127
2, 15714, Note_off_c, 2, 74, 127
2, 15719, Note_off_c, 7, 55, 127
2, 15722, Note_on_c, 0, 48, 127
2, 15722, Note_on_c, 4, 76, 127
2, 15845, Note_off_c, 4, 76, 127
2, 15852, Note_on_c, 0, 72, 127
2, 15975, Note_off_c, 0, 72, 127
2, 15980, Note_off_c, 0, 48, 127
2, 15982, Note_on_c, 2, 50, 127
2, 15982, Note_on_c, 11, 70, 127
2, 16105, Note_off_c, 11, 70, 127
2, 16106, Note_off_c, 2, 50, 127
2, 16113, Note_on_c, 4, 52, 127
2, 16113, Note_on_c, 10, 69, 127
2, 16236, Note_off_c, 10, 69, 127
2, 16237, Note_off_c, 4, 52, 127
2, 16243, Note_on_c, 5, 53, 127
2, 16243, Note_on_c, 7, 67, 127
2, 16366, Note_off_c, 7, 67, 127
2, 16367, Note_off_c, 5, 53, 127
2, 16374, Note_on_c, 7, 55, 127
2, 16374, Note_on_c, 5, 65, 127
2, 16497, Note_off_c, 5, 65, 127
2, 16498, Note_off_c, 7, 55, 127
2, 16504, Note_on_c, 10, 57, 127
2, 16504, Note_on_c, 4, 64, 127
2, 16627, Note_off_c, 4, 64, 127
2, 16628, Note_off_c, 10, 57, 127
2, 16634, Note_on_c, 11, 58, 127
2, 16634, Note_on_c, 2, 62, 127
2, 16757, Note_off_c, 2, 62, 127
2, 16758, Note_off_c, 11, 58, 127
2, 16765, Note_on_c, 0, 60, 127
2, 16765, Note_on_c, 4, 64, 127
2, 16889, Note_off_c, 0, 60, 127
2, 16896, Note_on_c, 11, 58, 127
2, 16960, Note_off_c, 4, 64, 127
2, 17020, Note_off_c, 11, 58, 127
2, 17027, Note_on_c, 10, 57, 127
2, 17027, Note_on_c, 7, 67, 127
2, 17151, Note_off_c, 10, 57, 127
2, 17157, Note_on_c, 7, 55, 127
2, 17281, Note_off_c, 7, 55, 127
2, 17287, Note_on_c, 10, 57, 127
2, 17411, Note_off_c, 10, 57, 127
2, 17416, Note_off_c, 7, 67, 127
2, 17418, Note_on_c, 11, 58, 127
2, 17418, Note_on_c, 5, 65, 127
2, 17541, Note_off_c, 5, 65, 127
2, 17542, Note_off_c, 11, 58, 127
2, 17548, Note_on_c, 10, 57, 127
2, 17548, Note_on_c, 7, 67, 127
2, 17671, Note_off_c, 7, 67, 127
2, 17672, Note_off_c, 10, 57, 127
2, 17679, Note_on_c, 7, 55, 127
2, 17679, Note_on_c, 10, 69, 127
2, 17802, Note_off_c, 10, 69, 127
2, 17803, Note_off_c, 7, 55, 127
2, 17809, Note_on_c, 5, 53, 127
2, 17809, Note_on_c, 11, 70, 127
2, 17932, Note_off_c, 11, 70, 127
2, 17933, Note_off_c, 5, 53, 127
2, 17939, Note_on_c, 3, 51, 127
2, 17939, Note_on_c, 0, 72, 127
2, 18062, Note_off_c, 0, 72, 127
2, 18063, Note_off_c, 3, 51, 127
2, 18070, Note_on_c, 2, 50, 127
2, 18070, Note_on_c, 2, 74, 127
2, 18193, Note_off_c, 2, 74, 127
2, 18194, Note_off_c, 2, 50, 127
2, 18200, Note_on_c, 0, 48, 127
2, 18200, Note_on_c, 3, 75, 127
2, 18323, Note_off_c, 3, 75, 127
2, 18324, Note_off_c, 0, 48, 127
2, 18331, Note_on_c, 2, 50, 127
2, 18331, Note_on_c, 5, 77, 127
2, 18454, Note_off_c, 5, 77, 127
2, 18462, Note_on_c, 3, 75, 127
2, 18585, Note_off_c, 3, 75, 127
2, 18589, Note_off_c, 2, 50, 127
2, 18592, Note_on_c, 5, 53, 127
2, 18592, Note_on_c, 2, 74, 127
2, 18715, Note_off_c, 2, 74, 127
2, 18723, Note_on_c, 0, 72, 127
2, 18846, Note_off_c, 0, 72, 127
2, 18850, Note_off_c, 5, 53, 127
2, 18853, Note_on_c, 11, 46, 127
2, 18853, Note_on_c, 2, 74, 127
2, 18976, Note_off_c, 2, 74, 127
2, 18984, Note_on_c, 5, 77, 127
2, 19107, Note_off_c, 5, 77, 127
2, 19111, Note_off_c, 11, 46, 127
2, 19114, Note_on_c, 11, 58, 127
2, 19114, Note_on_c, 2, 74, 127
2, 19237, Note_off_c, 2, 74, 127
2, 19238, Note_off_c, 11, 58, 127
2, 19244, Note_on_c, 0, 60, 127
2, 19244, Note_on_c, 0, 72, 127
2, 19367, Note_off_c, 0, 72, 127
2, 19368, Note_off_c, 0, 60, 127
2, 19375, Note_on_c, 2, 62, 127
2, 19375, Note_on_c, 11, 70, 127
2, 19498, Note_off_c, 11, 70, 127
2, 19505, Note_on_c, 2, 74, 127
2, 19628, Note_off_c, 2, 74, 127
2, 19633, Note_off_c, 2, 62, 127
2, 19636, Note_on_c, 5, 65, 127
2, 19636, Note_on_c, 11, 70, 127
2, 19759, Note_off_c, 11, 70, 127
2, 19766, Note_on_c, 10, 69, 127
2, 19889, Note_off_c, 10, 69, 127
2, 19894, Note_off_c, 5, 65, 127
2, 19897, Note_on_c, 11, 58, 127
2, 19897, Note_on_c, 7, 67, 127
2, 20020, Note_off_c, 7, 67, 127
2, 20028, Note_on_c, 11, 70, 127
2, 20151, Note_off_c, 11, 70, 127
2, 20155, Note_off_c, 11, 58, 127
2, 20158, Note_on_c, 2, 62, 127
2, 20158, Note_on_c, 7, 67, 127
2, 20281, Note_off_c, 7, 67, 127
2, 20289, Note_on_c, 5, 65, 127
2, 20412, Note_off_c, 5, 65, 127
2, 20416, Note_off_c, 2, 62, 127
2, 20419, Note_on_c, 7, 55, 127
2, 20419, Note_on_c, 4, 64, 127
2, 20543, Note_off_c, 7, 55, 127
2, 20549, Note_on_c, 11, 58, 127
2, 20636, Note_off_c, 4, 64, 127
2, 20673, Note_off_c, 11, 58, 127
2, 20680, Note_on_c, 7, 55, 127
2, 20680, Note_on_c, 4, 76, 127
2, 20803, Note_off_c, 4, 76, 127
2, 20804, Note_off_c, 7, 55, 127
2, 20810, Note_on_c, 5, 53, 127
2, 20810, Note_on_c, 5, 77, 127
2, 20933, Note_off_c, 5, 77, 127
2, 20934, Note_off_c, 5, 53, 127
2, 20941, Note_on_c, 4, 52, 127
2, 20941, Note_on_c, 7, 79, 127
2, 21065, Note_off_c, 4, 52, 127
2, 21071, Note_on_c, 7, 55, 127
2, 21195, Note_off_c, 7, 55, 127
2, 21200, Note_off_c, 7, 79, 127
2, 21201, Note_on_c, 4, 52, 127
2, 21201, Note_on_c, 11, 82, 127
2, 21325, Note_off_c, 4, 52, 127
2, 21332, Note_on_c, 2, 50, 127
2, 21456, Note_off_c, 2, 50, 127
2, 21460, Note_off_c, 11, 82, 127
2, 21463, Note_on_c, 1, 49, 127
2, 21463, Note_on_c, 4, 76, 127
2, 21587, Note_off_c, 1, 49, 127
2, 21594, Note_on_c, 4, 52, 127
2, 21718, Note_off_c, 4, 52, 127
2, 21722, Note_off_c, 4, 76, 127
2, 21724, Note_on_c, 1, 49, 127
2, 21724, Note_on_c, 7, 79, 127
2, 21848, Note_off_c, 1, 49, 127
2, 21854, Note_on_c, 12, 47, 127
2, 21978, Note_off_c, 12, 47, 127
2, 21983, Note_off_c, 7, 79, 127
2, 21985, Note_on_c, 10, 45, 127
2, 21985, Note_on_c, 1, 73, 127
2, 22108, Note_off_c, 1, 73, 127
2, 22115, Note_on_c, 7, 79, 127
2, 22236, Note_off_c, 10, 45, 127
2, 22238, Note_off_c, 7, 79, 127
2, 22246, Note_on_c, 10, 57, 127
2, 22246, Note_on_c, 1, 73, 127
2, 22369, Note_off_c, 1, 73, 127
2, 22370, Note_off_c, 10, 57, 127
2, 22376, Note_on_c, 12, 59, 127
2, 22376, Note_on_c, 12, 71, 127
2, 22499, Note_off_c, 12, 71, 127
2, 22500, Note_off_c, 12, 59, 127
2, 22506, Note_on_c, 1, 61, 127
2, 22506, Note_on_c, 10, 69, 127
2, 22629, Note_off_c, 10, 69, 127
2, 22637, Note_on_c, 4, 76, 127
2, 22760, Note_off_c, 4, 76, 127
2, 22764, Note_off_c, 1, 61, 127
2, 22767, Note_on_c, 4, 64, 127
2, 22767, Note_on_c, 10, 69, 127
2, 22890, Note_off_c, 10, 69, 127
2, 22898, Note_on_c, 7, 67, 127
2, 23021, Note_off_c, 7, 67, 127
2, 23025, Note_off_c, 4, 64, 127
2, 23029, Note_on_c, 10, 57, 127
2, 23029, Note_on_c, 5, 65, 127
2, 23152, Note_off_c, 5, 65, 127
2, 23159, Note_on_c, 1, 73, 127
2, 23282, Note_off_c, 1, 73, 127
2, 23287, Note_off_c, 10, 57, 127
2, 23290, Note_on_c, 7, 55, 127
2, 23290, Note_on_c, 5, 65, 127
2, 23413, Note_off_c, 5, 65, 127
2, 23420, Note_on_c, 4, 64, 127
2, 23543, Note_off_c, 4, 64, 127
2, 23548, Note_off_c, 7, 55, 127
2, 23551, Note_on_c, 5, 53, 127
2, 23551, Note_on_c, 2, 62, 127
2, 23675, Note_off_c, 5, 53, 127
2, 23678, Note_off_c, 2, 62, 127
2, 23681, Note_on_c, 2, 62, 127
2, 23811, Note_on_c, 5, 53, 127
2, 23811, Note_on_c, 2, 74, 127
2, 23934, Note_off_c, 2, 74, 127
2, 23935, Note_off_c, 5, 53, 127
2, 23939, Note_off_c, 2, 62, 127
2, 23942, Note_on_c, 4, 52, 127
2, 23942, Note_on_c, 4, 76, 127
2, 24065, Note_off_c, 4, 76, 127
2, 24066, Note_off_c, 4, 52, 127
2, 24072, Note_on_c, 2, 50, 127
2, 24072, Note_on_c, 5, 77, 127
2, 24196, Note_off_c, 2, 50, 127
2, 24203, Note_on_c, 10, 57, 127
2, 24327, Note_off_c, 10, 57, 127
2, 24331, Note_off_c, 5, 77, 127
2, 24333, Note_on_c, 2, 50, 127
2, 24333, Note_on_c, 10, 81, 127
2, 24457, Note_off_c, 2, 50, 127
2, 24464, Note_on_c, 0, 48, 127
2, 24588, Note_off_c, 0, 48, 127
2, 24592, Note_off_c, 10, 81, 127
2, 24595, Note_on_c, 11, 46, 127
2, 24595, Note_on_c, 2, 74, 127
2, 24719, Note_off_c, 11, 46, 127
2, 24725, Note_on_c, 5, 53, 127
2, 24849, Note_off_c, 5, 53, 127
2, 24854, Note_off_c, 2, 74, 127
2, 24856, Note_on_c, 11, 46, 127
2, 24856, Note_on_c, 0, 72, 127
2, 24980, Note_off_c, 11, 46, 127
2, 24986, Note_on_c, 10, 45, 127
2, 25110, Note_off_c, 10, 45, 127
2, 25115, Note_off_c, 0, 72, 127
2, 25116, Note_on_c, 7, 43, 127
2, 25116, Note_on_c, 11, 70, 127
2, 25239, Note_off_c, 11, 70, 127
2, 25247, Note_on_c, 7, 79, 127
2, 25370, Note_off_c, 7, 79, 127
2, 25374, Note_off_c, 7, 43, 127
2, 25377, Note_on_c, 7, 55, 127
2, 25377, Note_on_c, 11, 70, 127
2, 25500, Note_off_c, 11, 70, 127
2, 25501, Note_off_c, 7, 55, 127
2, 25508, Note_on_c, 10, 57, 127
2, 25508, Note_on_c, 10, 69, 127
2, 25631, Note_off_c, 10, 69, 127
2, 25632, Note_off_c, 10, 57, 127
2, 25638, Note_on_c, 11, 58, 127
2, 25638, Note_on_c, 7, 67, 127
2, 25761, Note_off_c, 7, 67, 127
2, 25768, Note_on_c, 11, 70, 127
2, 25891, Note_off_c, 11, 70, 127
2, 25896, Note_off_c, 11, 58, 127
2, 25899, Note_on_c, 2, 62, 127
2, 25899, Note_on_c, 7, 67, 127
2, 26022, Note_off_c, 7, 67, 127
2, 26030, Note_on_c, 5, 65, 127
2, 26153, Note_off_c, 5, 65, 127
2, 26157, Note_off_c, 2, 62, 127
2, 26161, Note_on_c, 7, 55, 127
2, 26161, Note_on_c, 3, 63, 127
2, 26284, Note_off_c, 3, 63, 127
2, 26291, Note_on_c, 11, 70, 127
2, 26414, Note_off_c, 11, 70, 127
2, 26419, Note_off_c, 7, 55, 127
2, 26421, Note_on_c, 11, 58, 127
2, 26421, Note_on_c, 3, 63, 127
2, 26544, Note_off_c, 3, 63, 127
2, 26552, Note_on_c, 2, 62, 127
2, 26675, Note_off_c, 2, 62, 127
2, 26679, Note_off_c, 11, 58, 127
2, 26682, Note_on_c, 10, 57, 127
2, 26682, Note_on_c, 1, 61, 127
2, 26813, Note_on_c, 10, 69, 127
2, 26936, Note_off_c, 10, 69, 127
2, 26940, Note_off_c, 1, 61, 127
2, 26940, Note_off_c, 10, 57, 127
2, 26943, Note_on_c, 4, 64, 127
2, 26943, Note_on_c, 1, 61, 127
2, 27066, Note_off_c, 1, 61, 127
2, 27073, Note_on_c, 12, 59, 127
2, 27196, Note_off_c, 12, 59, 127
2, 27201, Note_off_c, 4, 64, 127
2, 27204, Note_on_c, 10, 57, 127
2, 27204, Note_on_c, 1, 61, 127
2, 27327, Note_off_c, 1, 61, 127
2, 27334, Note_on_c, 10, 69, 127
2, 27457, Note_off_c, 10, 69, 127
2, 27462, Note_off_c, 10, 57, 127
2, 27465, Note_on_c, 4, 64, 127
2, 27465, Note_on_c, 1, 61, 127
2, 27588, Note_off_c, 1, 61, 127
2, 27596, Note_on_c, 10, 69, 127
2, 27719, Note_off_c, 10, 69, 127
2, 27723, Note_off_c, 4, 64, 127
2, 27726, Note_on_c, 10, 57, 127
2, 27726, Note_on_c, 1, 61, 127
2, 27849, Note_off_c, 1, 61, 127
2, 27857, Note_on_c, 10, 69, 127
2, 27980, Note_off_c, 10, 69, 127
2, 27984, Note_off_c, 10, 57, 127
2, 27987, Note_on_c, 4, 64, 127
2, 27987, Note_on_c, 1, 61, 127
2, 28110, Note_off_c, 1, 61, 127
2, 28118, Note_on_c, 10, 69, 127
2, 28241, Note_off_c, 10, 69, 127
2, 28245, Note_off_c, 4, 64, 127
2, 28248, Note_on_c, 7, 55, 127
2, 28248, Note_on_c, 1, 61, 127
2, 28378, Note_on_c, 10, 69, 127
2, 28501, Note_off_c, 10, 69, 127
2, 28506, Note_off_c, 1, 61, 127
2, 28506, Note_off_c, 7, 55, 127
2, 28509, Note_on_c, 4, 64, 127
2, 28509, Note_on_c, 1, 61, 127
2, 28632, Note_off_c, 1, 61, 127
2, 28639, Note_on_c, 12, 59, 127
2, 28762, Note_off_c, 12, 59, 127
2, 28767, Note_off_c, 4, 64, 127
2, 28770, Note_on_c, 7, 55, 127
2, 28770, Note_on_c, 1, 61, 127
2, 28893, Note_off_c, 1, 61, 127
2, 28900, Note_on_c, 10, 69, 127
2, 29023, Note_off_c, 10, 69, 127
2, 29028, Note_off_c, 7, 55, 127
2, 29030, Note_on_c, 4, 64, 127
2, 29030, Note_on_c, 1, 61, 127
2, 29153, Note_off_c, 1, 61, 127
2, 29162, Note_on_c, 10, 69, 127
2, 29285, Note_off_c, 10, 69, 127
2, 29288, Note_off_c, 4, 64, 127
2, 29292, Note_on_c, 7, 55, 127
2, 29292, Note_on_c, 1, 61, 127
2, 29415, Note_off_c, 1, 61, 127
2, 29423, Note_on_c, 10, 69, 127
2, 29546, Note_off_c, 10, 69, 127
2, 29550, Note_off_c, 7, 55, 127
2, 29553, Note_on_c, 4, 64, 127
2, 29553, Note_on_c, 1, 61, 127
2, 29676, Note_off_c, 1, 61, 127
2, 29683, Note_on_c, 10, 69, 127
2, 29806, Note_off_c, 10, 69, 127
2, 29811, Note_off_c, 4, 64, 127
2, 29814, Note_on_c, 5, 53, 127
2, 29814, Note_on_c, 2, 62, 127
2, 29944, Note_on_c, 10, 69, 127
2, 30067, Note_off_c, 10, 69, 127
2, 30072, Note_off_c, 2, 62, 127
2, 30072, Note_off_c, 5, 53, 127
2, 30075, Note_on_c, 5, 65, 127
2, 30075, Note_on_c, 2, 62, 127
2, 30198, Note_off_c, 2, 62, 127
2, 30205, Note_on_c, 1, 61, 127
2, 30328, Note_off_c, 1, 61, 127
2, 30333, Note_off_c, 5, 65, 127
2, 30335, Note_on_c, 5, 53, 127
2, 30335, Note_on_c, 2, 62, 127
2, 30458, Note_off_c, 2, 62, 127
2, 30466, Note_on_c, 10, 69, 127
2, 30589, Note_off_c, 10, 69, 127
2, 30593, Note_off_c, 5, 53, 127
2, 30597, Note_on_c, 5, 65, 127
2, 30597, Note_on_c, 2, 62, 127
2, 30720, Note_off_c, 2, 62, 127
2, 30728, Note_on_c, 10, 69, 127
2, 30851, Note_off_c, 10, 69, 127
2, 30855, Note_off_c, 5, 65, 127
2, 30858, Note_on_c, 5, 53, 127
2, 30858, Note_on_c, 2, 62, 127
2, 30981, Note_off_c, 2, 62, 127
2, 30988, Note_on_c, 10, 69, 127
2, 31111, Note_off_c, 10, 69, 127
2, 31116, Note_off_c, 5, 53, 127
2, 31119, Note_on_c, 5, 65, 127
2, 31119, Note_on_c, 2, 62, 127
2, 31242, Note_off_c, 2, 62, 127
2, 31249, Note_on_c, 10, 69, 127
2, 31372, Note_off_c, 10, 69, 127
2, 31377, Note_off_c, 5, 65, 127
2, 31380, Note_on_c, 1, 61, 127
2, 31380, Note_on_c, 4, 64, 127
2, 31510, Note_on_c, 10, 69, 127
2, 31633, Note_off_c, 10, 69, 127
2, 31638, Note_off_c, 4, 64, 127
2, 31638, Note_off_c, 1, 61, 127
2, 31640, Note_on_c, 7, 67, 127
2, 31640, Note_on_c, 4, 64, 127
2, 31763, Note_off_c, 4, 64, 127
2, 31771, Note_on_c, 2, 62, 127
2, 31894, Note_off_c, 2, 62, 127
2, 31898, Note_off_c, 7, 67, 127
2, 31901, Note_on_c, 1, 61, 127
2, 31901, Note_on_c, 4, 64, 127
2, 32024, Note_off_c, 4, 64, 127
2, 32032, Note_on_c, 10, 69, 127
2, 32155, Note_off_c, 10, 69, 127
2, 32159, Note_off_c, 1, 61, 127
2, 32163, Note_on_c, 7, 67, 127
2, 32163, Note_on_c, 4, 64, 127
2, 32286, Note_off_c, 4, 64, 127
2, 32293, Note_on_c, 10, 69, 127
2, 32416, Note_off_c, 10, 69, 127
2, 32421, Note_off_c, 7, 67, 127
2, 32424, Note_on_c, 1, 61, 127
2, 32424, Note_on_c, 4, 64, 127
2, 32547, Note_off_c, 4, 64, 127
2, 32554, Note_on_c, 10, 69, 127
2, 32677, Note_off_c, 10, 69, 127
2, 32682, Note_off_c, 1, 61, 127
2, 32685, Note_on_c, 7, 67, 127
2, 32685, Note_on_c, 4, 64, 127
2, 32808, Note_off_c, 4, 64, 127
2, 32815, Note_on_c, 10, 69, 127
2, 32938, Note_off_c, 10, 69, 127
2, 32943, Note_off_c, 7, 67, 127
2, 32945, Note_on_c, 2, 62, 127
2, 32945, Note_on_c, 5, 65, 127
2, 33011, Note_on_c, 10, 69, 127
2, 33074, Note_off_c, 10, 69, 127
2, 33076, Note_on_c, 12, 71, 127
2, 33139, Note_off_c, 12, 71, 127
2, 33141, Note_on_c, 1, 73, 127
2, 33203, Note_off_c, 5, 65, 127
2, 33203, Note_off_c, 2, 62, 127
2, 33204, Note_off_c, 1, 73, 127
2, 33206, Note_on_c, 5, 65, 127
2, 33206, Note_on_c, 2, 74, 127
2, 33329, Note_off_c, 2, 74, 127
2, 33337, Note_on_c, 10, 69, 127
2, 33460, Note_off_c, 10, 69, 127
2, 33464, Note_off_c, 5, 65, 127
2, 33467, Note_on_c, 2, 62, 127
2, 33467, Note_on_c, 5, 65, 127
2, 33590, Note_off_c, 5, 65, 127
2, 33597, Note_on_c, 10, 69, 127
2, 33720, Note_off_c, 10, 69, 127
2, 33725, Note_off_c, 2, 62, 127
2, 33729, Note_on_c, 5, 65, 127
2, 33729, Note_on_c, 2, 74, 127
2, 33852, Note_off_c, 2, 74, 127
2, 33859, Note_on_c, 10, 69, 127
2, 33982, Note_off_c, 10, 69, 127
2, 33987, Note_off_c, 5, 65, 127
2, 33990, Note_on_c, 2, 62, 127
2, 33990, Note_on_c, 5, 65, 127
2, 34113, Note_off_c, 5, 65, 127
2, 34120, Note_on_c, 10, 69, 127
2, 34243, Note_off_c, 10, 69, 127
2, 34248, Note_off_c, 2, 62, 127
2, 34250, Note_on_c, 5, 65, 127
2, 34250, Note_on_c, 2, 74, 127
2, 34373, Note_off_c, 2, 74, 127
2, 34381, Note_on_c, 10, 69, 127
2, 34504, Note_off_c, 10, 69, 127
2, 34508, Note_off_c, 5, 65, 127
2, 34511, Note_on_c, 0, 60, 127
2, 34511, Note_on_c, 6, 66, 127
2, 34642, Note_on_c, 2, 74, 127
2, 34765, Note_off_c, 2, 74, 127
2, 34769, Note_off_c, 6, 66, 127
2, 34769, Note_off_c, 0, 60, 127
2, 34772, Note_on_c, 10, 69, 127
2, 34772, Note_on_c, 6, 66, 127
2, 34895, Note_off_c, 6, 66, 127
2, 34902, Note_on_c, 4, 64, 127
2, 35025, Note_off_c, 4, 64, 127
2, 35030, Note_off_c, 10, 69, 127
2, 35033, Note_on_c, 0, 60, 127
2, 35033, Note_on_c, 6, 66, 127
2, 35156, Note_off_c, 6, 66, 127
2, 35164, Note_on_c, 2, 74, 127
2, 35287, Note_off_c, 2, 74, 127
2, 35291, Note_off_c, 0, 60, 127
2, 35295, Note_on_c, 10, 69, 127
2, 35295, Note_on_c, 6, 66, 127
2, 35418, Note_off_c, 6, 66, 127
2, 35425, Note_on_c, 2, 74, 127
2, 35548, Note_off_c, 2, 74, 127
2, 35553, Note_off_c, 10, 69, 127
2, 35555, Note_on_c, 0, 60, 127
2, 35555, Note_on_c, 6, 66, 127
2, 35678, Note_off_c, 6, 66, 127
2, 35686, Note_on_c, 2, 74, 127
2, 35809, Note_off_c, 2, 74, 127
2, 35813, Note_off_c, 0, 60, 127
2, 35816, Note_on_c, 10, 69, 127
2, 35816, Note_on_c, 6, 66, 127
2, 35939, Note_off_c, 6, 66, 127
2, 35947, Note_on_c, 2, 74, 127
2, 36070, Note_off_c, 2, 74, 127
2, 36074, Note_off_c, 10, 69, 127
2, 36077, Note_on_c, 12, 59, 127
2, 36077, Note_on_c, 7, 67, 127
2, 36142, Note_on_c, 10, 69, 127
2, 36205, Note_off_c, 10, 69, 127
2, 36207, Note_on_c, 12, 71, 127
2, 36270, Note_off_c, 12, 71, 127
2, 36273, Note_on_c, 0, 72, 127
2, 36335, Note_off_c, 7, 67, 127
2, 36335, Note_off_c, 12, 59, 127
2, 36336, Note_off_c, 0, 72, 127
2, 36338, Note_on_c, 7, 67, 127
2, 36338, Note_on_c, 2, 74, 127
2, 36461, Note_off_c, 2, 74, 127
2, 36468, Note_on_c, 12, 71, 127
2, 36591, Note_off_c, 12, 71, 127
2, 36596, Note_off_c, 7, 67, 127
2, 36599, Note_on_c, 12, 59, 127
2, 36599, Note_on_c, 7, 67, 127
2, 36722, Note_off_c, 7, 67, 127
2, 36730, Note_on_c, 12, 71, 127
2, 36853, Note_off_c, 12, 71, 127
2, 36857, Note_off_c, 12, 59, 127
2, 36860, Note_on_c, 7, 67, 127
2, 36860, Note_on_c, 2, 74, 127
2, 36983, Note_off_c, 2, 74, 127
2, 36991, Note_on_c, 12, 71, 127
2, 37114, Note_off_c, 12, 71, 127
2, 37118, Note_off_c, 7, 67, 127
2, 37121, Note_on_c, 12, 59, 127
2, 37121, Note_on_c, 7, 67, 127
2, 37244, Note_off_c, 7, 67, 127
2, 37252, Note_on_c, 12, 71, 127
2, 37375, Note_off_c, 12, 71, 127
2, 37379, Note_off_c, 12, 59, 127
2, 37382, Note_on_c, 7, 67, 127
2, 37382, Note_on_c, 2, 74, 127
2, 37505, Note_off_c, 2, 74, 127
2, 37512, Note_on_c, 12, 71, 127
2, 37635, Note_off_c, 12, 71, 127
2, 37640, Note_off_c, 7, 67, 127
2, 37643, Note_on_c, 4, 64, 127
2, 37643, Note_on_c, 8, 68, 127
2, 37773, Note_on_c, 2, 74, 127
2, 37896, Note_off_c, 2, 74, 127
2, 37901, Note_off_c, 8, 68, 127
2, 37901, Note_off_c, 4, 64, 127
2, 37904, Note_on_c, 12, 71, 127
2, 37904, Note_on_c, 8, 68, 127
2, 38027, Note_off_c, 8, 68, 127
2, 38034, Note_on_c, 6, 66, 127
2, 38157, Note_off_c, 6, 66, 127
2, 38162, Note_off_c, 12, 71, 127
2, 38164, Note_on_c, 4, 64, 127
2, 38164, Note_on_c, 8, 68, 127
2, 38287, Note_off_c, 8, 68, 127
2, 38296, Note_on_c, 2, 74, 127
2, 38419, Note_off_c, 2, 74, 127
2, 38422, Note_off_c, 4, 64, 127
2, 38426, Note_on_c, 12, 71, 127
2, 38426, Note_on_c, 8, 68, 127
2, 38549, Note_off_c, 8, 68, 127
2, 38557, Note_on_c, 2, 74, 127
2, 38680, Note_off_c, 2, 74, 127
2, 38684, Note_off_c, 12, 71, 127
2, 38687, Note_on_c, 4, 64, 127
2, 38687, Note_on_c, 8, 68, 127
2, 38810, Note_off_c, 8, 68, 127
2, 38817, Note_on_c, 2, 74, 127
2, 38940, Note_off_c, 2, 74, 127
2, 38945, Note_off_c, 4, 64, 127
2, 38948, Note_on_c, 12, 71, 127
2, 38948, Note_on_c, 8, 68, 127
2, 39071, Note_off_c, 8, 68, 127
2, 39078, Note_on_c, 2, 74, 127
2, 39201, Note_off_c, 2, 74, 127
2, 39206, Note_off_c, 12, 71, 127
2, 39209, Note_on_c, 10, 57, 127
2, 39209, Note_on_c, 0, 72, 127
2, 39339, Note_on_c, 10, 69, 127
2, 39462, Note_off_c, 10, 69, 127
2, 39469, Note_on_c, 7, 67, 127
2, 39592, Note_off_c, 7, 67, 127
2, 39600, Note_on_c, 5, 65, 127
2, 39723, Note_off_c, 5, 65, 127
2, 39730, Note_on_c, 4, 64, 127
2, 39853, Note_off_c, 4, 64, 127
2, 39858, Note_off_c, 10, 57, 127
2, 39862, Note_on_c, 2, 62, 127
2, 39985, Note_off_c, 2, 62, 127
2, 39992, Note_on_c, 0, 60, 127
2, 40115, Note_off_c, 0, 60, 127
2, 40122, Note_on_c, 12, 59, 127
2, 40245, Note_off_c, 12, 59, 127
2, 40253, Note_on_c, 10, 57, 127
2, 40383, Note_on_c, 0, 60, 127
2, 40429, Note_off_c, 10, 57, 127
2, 40507, Note_off_c, 0, 60, 127
2, 40514, Note_on_c, 12, 59, 127
2, 40638, Note_off_c, 12, 59, 127
2, 40644, Note_on_c, 10, 57, 127
2, 40768, Note_off_c, 10, 57, 127
2, 40772, Note_off_c, 0, 72, 127
2, 40774, Note_on_c, 5, 65, 127
2, 40898, Note_off_c, 5, 65, 127
2, 40905, Note_on_c, 2, 62, 127
2, 41029, Note_off_c, 2, 62, 127
2, 41035, Note_on_c, 10, 57, 127
2, 41035, Note_on_c, 10, 69, 127
2, 41159, Note_off_c, 10, 57, 127
2, 41166, Note_on_c, 2, 62, 127
2, 41290, Note_off_c, 2, 62, 127
2, 41294, Note_off_c, 10, 69, 127
2, 41297, Note_on_c, 5, 65, 127
2, 41297, Note_on_c, 2, 74, 127
2, 41421, Note_off_c, 5, 65, 127
2, 41427, Note_on_c, 2, 62, 127
2, 41551, Note_off_c, 2, 62, 127
2, 41556, Note_off_c, 2, 74, 127
2, 41558, Note_on_c, 10, 57, 127
2, 41558, Note_on_c, 5, 77, 127
2, 41682, Note_off_c, 10, 57, 127
2, 41688, Note_on_c, 2, 62, 127
2, 41812, Note_off_c, 2, 62, 127
2, 41817, Note_off_c, 5, 77, 127
2, 41819, Note_on_c, 5, 65, 127
2, 41819, Note_on_c, 10, 81, 127
2, 41904, Note_off_c, 10, 81, 127
2, 41905, Note_on_c, 8, 80, 127
2, 41943, Note_off_c, 5, 65, 127
2, 41949, Note_on_c, 2, 62, 127
2, 41990, Note_off_c, 8, 80, 127
2, 41993, Note_on_c, 10, 81, 127
2, 42073, Note_off_c, 2, 62, 127
2, 42079, Note_on_c, 10, 57, 127
2, 42203, Note_off_c, 10, 57, 127
2, 42210, Note_on_c, 2, 62, 127
2, 42334, Note_off_c, 2, 62, 127
2, 42340, Note_on_c, 4, 64, 127
2, 42464, Note_off_c, 4, 64, 127
2, 42471, Note_on_c, 2, 62, 127
2, 42513, Note_off_c, 10, 81, 127
2, 42595, Note_off_c, 2, 62, 127
2, 42601, Note_on_c, 10, 57, 127
2, 42601, Note_on_c, 10, 69, 127
2, 42725, Note_off_c, 10, 57, 127
2, 42731, Note_on_c, 2, 62, 127
2, 42855, Note_off_c, 2, 62, 127
2, 42860, Note_off_c, 10, 69, 127
2, 42863, Note_on_c, 4, 64, 127
2, 42863, Note_on_c, 0, 72, 127
2, 42987, Note_off_c, 4, 64, 127
2, 42993, Note_on_c, 0, 60, 127
2, 43117, Note_off_c, 0, 60, 127
2, 43122, Note_off_c, 0, 72, 127
2, 43124, Note_on_c, 10, 57, 127
2, 43124, Note_on_c, 4, 76, 127
2, 43248, Note_off_c, 10, 57, 127
2, 43254, Note_on_c, 0, 60, 127
2, 43378, Note_off_c, 0, 60, 127
2, 43383, Note_off_c, 4, 76, 127
2, 43384, Note_on_c, 4, 64, 127
2, 43384, Note_on_c, 10, 81, 127
2, 43469, Note_off_c, 10, 81, 127
2, 43471, Note_on_c, 8, 80, 127
2, 43508, Note_off_c, 4, 64, 127
2, 43515, Note_on_c, 0, 60, 127
2, 43556, Note_off_c, 8, 80, 127
2, 43559, Note_on_c, 10, 81, 127
2, 43639, Note_off_c, 0, 60, 127
2, 43645, Note_on_c, 10, 57, 127
2, 43769, Note_off_c, 10, 57, 127
2, 43776, Note_on_c, 0, 60, 127
2, 43900, Note_off_c, 0, 60, 127
2, 43906, Note_on_c, 2, 62, 127
2, 43939, Note_off_c, 10, 81, 127
2, 44030, Note_off_c, 2, 62, 127
2, 44036, Note_on_c, 12, 59, 127
2, 44160, Note_off_c, 12, 59, 127
2, 44167, Note_on_c, 10, 57, 127
2, 44167, Note_on_c, 2, 74, 127
2, 44291, Note_off_c, 10, 57, 127
2, 44297, Note_on_c, 12, 59, 127
2, 44421, Note_off_c, 12, 59, 127
2, 44426, Note_off_c, 2, 74, 127
2, 44429, Note_on_c, 2, 62, 127
2, 44429, Note_on_c, 8, 80, 127
2, 44553, Note_off_c, 2, 62, 127
2, 44559, Note_on_c, 12, 59, 127
2, 44683, Note_off_c, 12, 59, 127
2, 44688, Note_off_c, 8, 80, 127
2, 44689, Note_on_c, 8, 56, 127
2, 44689, Note_on_c, 12, 83, 127
2, 44813, Note_off_c, 8, 56, 127
2, 44820, Note_on_c, 12, 59, 127
2, 44944, Note_off_c, 12, 59, 127
2, 44948, Note_off_c, 12, 83, 127
2, 44950, Note_on_c, 2, 62, 127
2, 44950, Note_on_c, 8, 80, 127
2, 45074, Note_off_c, 2, 62, 127
2, 45081, Note_on_c, 12, 59, 127
2, 45205, Note_off_c, 12, 59, 127
2, 45209, Note_off_c, 8, 80, 127
2, 45211, Note_on_c, 8, 56, 127
2, 45211, Note_on_c, 4, 76, 127
2, 45335, Note_off_c, 8, 56, 127
2, 45341, Note_on_c, 12, 59, 127
2, 45465, Note_off_c, 12, 59, 127
2, 45470, Note_off_c, 4, 76, 127
2, 45472, Note_on_c, 0, 60, 127
2, 45472, Note_on_c, 10, 81, 127
2, 45730, Note_off_c, 0, 60, 127
2, 45731, Note_off_c, 10, 81, 127
2, 45733, Note_on_c, 10, 45, 127
2, 45733, Note_on_c, 7, 79, 127
2, 45856, Note_off_c, 7, 79, 127
2, 45864, Note_on_c, 5, 77, 127
2, 45987, Note_off_c, 5, 77, 127
2, 45991, Note_off_c, 10, 45, 127
2, 45994, Note_on_c, 0, 48, 127
2, 45994, Note_on_c, 4, 76, 127
2, 46117, Note_off_c, 4, 76, 127
2, 46125, Note_on_c, 2, 74, 127
2, 46248, Note_off_c, 2, 74, 127
2, 46252, Note_off_c, 0, 48, 127
2, 46255, Note_on_c, 4, 52, 127
2, 46255, Note_on_c, 0, 72, 127
2, 46378, Note_off_c, 0, 72, 127
2, 46386, Note_on_c, 12, 71, 127
2, 46509, Note_off_c, 12, 71, 127
2, 46513, Note_off_c, 4, 52, 127
2, 46516, Note_on_c, 10, 57, 127
2, 46516, Note_on_c, 10, 69, 127
2, 46639, Note_off_c, 10, 69, 127
2, 46646, Note_on_c, 0, 72, 127
2, 46769, Note_off_c, 0, 72, 127
2, 46774, Note_off_c, 10, 57, 127
2, 46777, Note_on_c, 0, 60, 127
2, 46777, Note_on_c, 12, 71, 127
2, 46900, Note_off_c, 12, 71, 127
2, 46907, Note_on_c, 10, 69, 127
2, 47030, Note_off_c, 10, 69, 127
2, 47035, Note_off_c, 0, 60, 127
2, 47038, Note_on_c, 2, 62, 127
2, 47038, Note_on_c, 5, 77, 127
2, 47161, Note_off_c, 5, 77, 127
2, 47168, Note_on_c, 2, 74, 127
2, 47291, Note_off_c, 2, 74, 127
2, 47296, Note_off_c, 2, 62, 127
2, 47298, Note_on_c, 5, 65, 127
2, 47298, Note_on_c, 10, 69, 127
2, 47421, Note_off_c, 10, 69, 127
2, 47430, Note_on_c, 2, 74, 127
2, 47553, Note_off_c, 2, 74, 127
2, 47556, Note_off_c, 5, 65, 127
2, 47560, Note_on_c, 10, 57, 127
2, 47560, Note_on_c, 5, 77, 127
2, 47683, Note_off_c, 5, 77, 127
2, 47691, Note_on_c, 2, 74, 127
2, 47814, Note_off_c, 2, 74, 127
2, 47818, Note_off_c, 10, 57, 127
2, 47821, Note_on_c, 2, 62, 127
2, 47821, Note_on_c, 10, 69, 127
2, 47944, Note_off_c, 10, 69, 127
2, 47951, Note_on_c, 2, 74, 127
2, 48074, Note_off_c, 2, 74, 127
2, 48079, Note_off_c, 2, 62, 127
2, 48082, Note_on_c, 2, 50, 127
2, 48082, Note_on_c, 5, 77, 127
2, 48205, Note_off_c, 5, 77, 127
2, 48212, Note_on_c, 2, 74, 127
2, 48335, Note_off_c, 2, 74, 127
2, 48340, Note_off_c, 2, 50, 127
2, 48343, Note_on_c, 12, 59, 127
2, 48343, Note_on_c, 10, 69, 127
2, 48466, Note_off_c, 10, 69, 127
2, 48473, Note_on_c, 2, 74, 127
2, 48596, Note_off_c, 2, 74, 127
2, 48601, Note_off_c, 12, 59, 127
2, 48603, Note_on_c, 0, 60, 127
2, 48603, Note_on_c, 4, 76, 127
2, 48726, Note_off_c, 4, 76, 127
2, 48734, Note_on_c, 2, 74, 127
2, 48857, Note_off_c, 2, 74, 127
2, 48861, Note_off_c, 0, 60, 127
2, 48864, Note_on_c, 4, 64, 127
2, 48864, Note_on_c, 10, 69, 127
2, 48987, Note_off_c, 10, 69, 127
2, 48996, Note_on_c, 2, 74, 127
2, 49119, Note_off_c, 2, 74, 127
2, 49122, Note_off_c, 4, 64, 127
2, 49126, Note_on_c, 10, 57, 127
2, 49126, Note_on_c, 4, 76, 127
2, 49249, Note_off_c, 4, 76, 127
2, 49256, Note_on_c, 0, 72, 127
2, 49379, Note_off_c, 0, 72, 127
2, 49384, Note_off_c, 10, 57, 127
2, 49387, Note_on_c, 0, 60, 127
2, 49387, Note_on_c, 10, 69, 127
2, 49510, Note_off_c, 10, 69, 127
2, 49517, Note_on_c, 0, 72, 127
2, 49640, Note_off_c, 0, 72, 127
2, 49645, Note_off_c, 0, 60, 127
2, 49648, Note_on_c, 0, 48, 127
2, 49648, Note_on_c, 4, 76, 127
2, 49771, Note_off_c, 4, 76, 127
2, 49778, Note_on_c, 0, 72, 127
2, 49901, Note_off_c, 0, 72, 127
2, 49906, Note_off_c, 0, 48, 127
2, 49908, Note_on_c, 10, 57, 127
2, 49908, Note_on_c, 10, 69, 127
2, 50031, Note_off_c, 10, 69, 127
2, 50039, Note_on_c, 0, 72, 127
2, 50162, Note_off_c, 0, 72, 127
2, 50166, Note_off_c, 10, 57, 127
2, 50169, Note_on_c, 12, 59, 127
2, 50169, Note_on_c, 2, 74, 127
2, 50292, Note_off_c, 2, 74, 127
2, 50300, Note_on_c, 12, 71, 127
2, 50423, Note_off_c, 12, 71, 127
2, 50427, Note_off_c, 12, 59, 127
2, 50430, Note_on_c, 2, 62, 127
2, 50430, Note_on_c, 10, 69, 127
2, 50553, Note_off_c, 10, 69, 127
2, 50561, Note_on_c, 12, 71, 127
2, 50684, Note_off_c, 12, 71, 127
2, 50688, Note_off_c, 2, 62, 127
2, 50692, Note_on_c, 8, 56, 127
2, 50692, Note_on_c, 2, 74, 127
2, 50815, Note_off_c, 2, 74, 127
2, 50822, Note_on_c, 12, 71, 127
2, 50945, Note_off_c, 12, 71, 127
2, 50950, Note_off_c, 8, 56, 127
2, 50953, Note_on_c, 12, 59, 127
2, 50953, Note_on_c, 8, 68, 127
2, 51076, Note_off_c, 8, 68, 127
2, 51083, Note_on_c, 12, 71, 127
2, 51206, Note_off_c, 12, 71, 127
2, 51211, Note_off_c, 12, 59, 127
2, 51213, Note_on_c, 4, 64, 127
2, 51213, Note_on_c, 2, 74, 127
2, 51336, Note_off_c, 2, 74, 127
2, 51344, Note_on_c, 12, 71, 127
2, 51467, Note_off_c, 12, 71, 127
2, 51471, Note_off_c, 4, 64, 127
2, 51474, Note_on_c, 4, 52, 127
2, 51474, Note_on_c, 8, 68, 127
2, 51597, Note_off_c, 8, 68, 127
2, 51605, Note_on_c, 12, 71, 127
2, 51728, Note_off_c, 12, 71, 127
2, 51732, Note_off_c, 4, 52, 127
2, 51735, Note_on_c, 10, 57, 127
2, 51735, Note_on_c, 0, 72, 127
2, 51865, Note_on_c, 10, 69, 127
2, 51988, Note_off_c, 10, 69, 127
2, 51997, Note_on_c, 7, 67, 127
2, 52120, Note_off_c, 7, 67, 127
2, 52127, Note_on_c, 5, 65, 127
2, 52250, Note_off_c, 5, 65, 127
2, 52251, Note_off_c, 0, 72, 127
2, 52258, Note_on_c, 4, 64, 127
2, 52381, Note_off_c, 4, 64, 127
2, 52384, Note_off_c, 10, 57, 127
2, 52388, Note_on_c, 2, 62, 127
2, 52512, Note_off_c, 2, 62, 127
2, 52518, Note_on_c, 0, 60, 127
2, 52642, Note_off_c, 0, 60, 127
2, 52649, Note_on_c, 12, 59, 127
2, 52773, Note_off_c, 12, 59, 127
2, 52779, Note_on_c, 10, 57, 127
2, 52903, Note_off_c, 10, 57, 127
2, 52910, Note_on_c, 0, 60, 127
2, 53034, Note_off_c, 0, 60, 127
2, 53040, Note_on_c, 4, 52, 127
2, 53164, Note_off_c, 4, 52, 127
2, 53170, Note_on_c, 7, 55, 127
2, 53294, Note_off_c, 7, 55, 127
2, 53301, Note_on_c, 6, 54, 127
2, 53431, Note_on_c, 3, 75, 127
2, 53554, Note_off_c, 3, 75, 127
2, 53559, Note_off_c, 6, 54, 127
2, 53563, Note_on_c, 10, 69, 127
2, 53563, Note_on_c, 2, 74, 127
2, 53686, Note_off_c, 2, 74, 127
2, 53693, Note_on_c, 0, 72, 127
2, 53816, Note_off_c, 0, 72, 127
2, 53821, Note_off_c, 10, 69, 127
2, 53823, Note_on_c, 0, 72, 127
2, 53823, Note_on_c, 6, 78, 127
2, 53946, Note_off_c, 6, 78, 127
2, 53954, Note_on_c, 3, 75, 127
2, 54077, Note_off_c, 3, 75, 127
2, 54081, Note_off_c, 0, 72, 127
2, 54084, Note_on_c, 10, 69, 127
2, 54084, Note_on_c, 2, 74, 127
2, 54207, Note_off_c, 2, 74, 127
2, 54215, Note_on_c, 0, 72, 127
2, 54338, Note_off_c, 0, 72, 127
2, 54342, Note_off_c, 10, 69, 127
2, 54345, Note_on_c, 6, 66, 127
2, 54345, Note_on_c, 10, 81, 127
2, 54468, Note_off_c, 10, 81, 127
2, 54475, Note_on_c, 3, 75, 127
2, 54598, Note_off_c, 3, 75, 127
2, 54603, Note_off_c, 6, 66, 127
2, 54606, Note_on_c, 2, 62, 127
2, 54606, Note_on_c, 2, 74, 127
2, 54729, Note_off_c, 2, 74, 127
2, 54736, Note_on_c, 0, 72, 127
2, 54859, Note_off_c, 0, 72, 127
2, 54864, Note_off_c, 2, 62, 127
2, 54867, Note_on_c, 7, 67, 127
2, 54867, Note_on_c, 11, 70, 127
2, 54990, Note_off_c, 11, 70, 127
2, 54997, Note_on_c, 7, 79, 127
2, 55120, Note_off_c, 7, 79, 127
2, 55125, Note_off_c, 7, 67, 127
2, 55128, Note_on_c, 7, 55, 127
2, 55128, Note_on_c, 5, 77, 127
2, 55251, Note_off_c, 5, 77, 127
2, 55259, Note_on_c, 3, 75, 127
2, 55382, Note_off_c, 3, 75, 127
2, 55386, Note_off_c, 7, 55, 127
2, 55389, Note_on_c, 11, 58, 127
2, 55389, Note_on_c, 2, 74, 127
2, 55512, Note_off_c, 2, 74, 127
2, 55520, Note_on_c, 0, 72, 127
2, 55643, Note_off_c, 0, 72, 127
2, 55647, Note_off_c, 11, 58, 127
2, 55650, Note_on_c, 2, 62, 127
2, 55650, Note_on_c, 11, 70, 127
2, 55773, Note_off_c, 11, 70, 127
2, 55780, Note_on_c, 10, 69, 127
2, 55903, Note_off_c, 10, 69, 127
2, 55908, Note_off_c, 2, 62, 127
2, 55911, Note_on_c, 7, 67, 127
2, 55911, Note_on_c, 0, 72, 127
2, 56034, Note_off_c, 0, 72, 127
2, 56041, Note_on_c, 11, 70, 127
2, 56164, Note_off_c, 11, 70, 127
2, 56169, Note_off_c, 7, 67, 127
2, 56172, Note_on_c, 5, 65, 127
2, 56172, Note_on_c, 10, 69, 127
2, 56295, Note_off_c, 10, 69, 127
2, 56302, Note_on_c, 7, 67, 127
2, 56425, Note_off_c, 7, 67, 127
2, 56430, Note_off_c, 5, 65, 127
2, 56432, Note_on_c, 4, 64, 127
2, 56432, Note_on_c, 0, 72, 127
2, 56556, Note_off_c, 4, 64, 127
2, 56564, Note_on_c, 1, 61, 127
2, 56688, Note_off_c, 1, 61, 127
2, 56691, Note_off_c, 0, 72, 127
2, 56694, Note_on_c, 0, 60, 127
2, 56694, Note_on_c, 4, 76, 127
2, 56818, Note_off_c, 0, 60, 127
2, 56825, Note_on_c, 11, 58, 127
2, 56949, Note_off_c, 11, 58, 127
2, 56953, Note_off_c, 4, 76, 127
2, 56955, Note_on_c, 5, 65, 127
2, 56955, Note_on_c, 12, 71, 127
2, 57079, Note_off_c, 5, 65, 127
2, 57085, Note_on_c, 2, 62, 127
2, 57209, Note_off_c, 2, 62, 127
2, 57214, Note_off_c, 12, 71, 127
2, 57216, Note_on_c, 0, 60, 127
2, 57216, Note_on_c, 5, 77, 127
2, 57340, Note_off_c, 0, 60, 127
2, 57346, Note_on_c, 11, 58, 127
2, 57470, Note_off_c, 11, 58, 127
2, 57475, Note_off_c, 5, 77, 127
2, 57477, Note_on_c, 7, 67, 127
2, 57477, Note_on_c, 11, 70, 127
2, 57601, Note_off_c, 7, 67, 127
2, 57607, Note_on_c, 2, 62, 127
2, 57731, Note_off_c, 2, 62, 127
2, 57736, Note_off_c, 11, 70, 127
2, 57737, Note_on_c, 0, 60, 127
2, 57737, Note_on_c, 7, 79, 127
2, 57861, Note_off_c, 0, 60, 127
2, 57868, Note_on_c, 11, 58, 127
2, 57992, Note_off_c, 11, 58, 127
2, 57995, Note_off_c, 7, 79, 127
2, 57998, Note_on_c, 10, 57, 127
2, 58122, Note_off_c, 10, 57, 127
2, 58130, Note_on_c, 5, 65, 127
2, 58130, Note_on_c, 2, 74, 127
2, 58253, Note_off_c, 2, 74, 127
2, 58254, Note_off_c, 5, 65, 127
2, 58260, Note_on_c, 4, 64, 127
2, 58260, Note_on_c, 0, 72, 127
2, 58383, Note_off_c, 0, 72, 127
2, 58384, Note_off_c, 4, 64, 127
2, 58390, Note_on_c, 2, 62, 127
2, 58390, Note_on_c, 11, 70, 127
2, 58513, Note_off_c, 11, 70, 127
2, 58514, Note_off_c, 2, 62, 127
2, 58521, Note_on_c, 0, 60, 127
2, 58521, Note_on_c, 10, 69, 127
2, 58644, Note_off_c, 10, 69, 127
2, 58645, Note_off_c, 0, 60, 127
2, 58651, Note_on_c, 11, 58, 127
2, 58651, Note_on_c, 7, 79, 127
2, 58774, Note_off_c, 7, 79, 127
2, 58775, Note_off_c, 11, 58, 127
2, 58782, Note_on_c, 10, 57, 127
2, 58782, Note_on_c, 5, 77, 127
2, 58905, Note_off_c, 5, 77, 127
2, 58906, Note_off_c, 10, 57, 127
2, 58912, Note_on_c, 7, 55, 127
2, 58912, Note_on_c, 4, 76, 127
2, 59035, Note_off_c, 4, 76, 127
2, 59036, Note_off_c, 7, 55, 127
2, 59042, Note_on_c, 11, 58, 127
2, 59042, Note_on_c, 2, 74, 127
2, 59165, Note_off_c, 2, 74, 127
2, 59166, Note_off_c, 11, 58, 127
2, 59173, Note_on_c, 10, 57, 127
2, 59173, Note_on_c, 5, 77, 127
2, 59296, Note_off_c, 5, 77, 127
2, 59297, Note_off_c, 10, 57, 127
2, 59303, Note_on_c, 7, 55, 127
2, 59303, Note_on_c, 4, 76, 127
2, 59426, Note_off_c, 4, 76, 127
2, 59427, Note_off_c, 7, 55, 127
2, 59434, Note_on_c, 5, 53, 127
2, 59434, Note_on_c, 2, 74, 127
2, 59557, Note_off_c, 2, 74, 127
2, 59558, Note_off_c, 5, 53, 127
2, 59564, Note_on_c, 4, 52, 127
2, 59564, Note_on_c, 1, 73, 127
2, 59688, Note_off_c, 4, 52, 127
2, 59695, Note_on_c, 7, 67, 127
2, 59695, Note_on_c, 11, 70, 127
2, 59818, Note_off_c, 11, 70, 127
2, 59819, Note_off_c, 7, 67, 127
2, 59822, Note_off_c, 1, 73, 127
2, 59826, Note_on_c, 5, 65, 127
2, 59826, Note_on_c, 10, 69, 127
2, 59949, Note_off_c, 10, 69, 127
2, 59950, Note_off_c, 5, 65, 127
2, 59956, Note_on_c, 4, 64, 127
2, 59956, Note_on_c, 7, 67, 127
2, 60079, Note_off_c, 7, 67, 127
2, 60080, Note_off_c, 4, 64, 127
2, 60087, Note_on_c, 2, 62, 127
2, 60087, Note_on_c, 2, 74, 127
2, 60210, Note_off_c, 2, 74, 127
2, 60211, Note_off_c, 2, 62, 127
2, 60217, Note_on_c, 7, 67, 127
2, 60217, Note_on_c, 11, 70, 127
2, 60340, Note_off_c, 11, 70, 127
2, 60341, Note_off_c, 7, 67, 127
2, 60347, Note_on_c, 5, 65, 127
2, 60347, Note_on_c, 10, 69, 127
2, 60470, Note_off_c, 10, 69, 127
2, 60471, Note_off_c, 5, 65, 127
2, 60478, Note_on_c, 4, 64, 127
2, 60478, Note_on_c, 7, 67, 127
2, 60601, Note_off_c, 7, 67, 127
2, 60602, Note_off_c, 4, 64, 127
2, 60608, Note_on_c, 1, 61, 127
2, 60608, Note_on_c, 4, 76, 127
2, 60731, Note_off_c, 4, 76, 127
2, 60732, Note_off_c, 1, 61, 127
2, 60739, Note_on_c, 7, 67, 127
2, 60739, Note_on_c, 11, 70, 127
2, 60862, Note_off_c, 11, 70, 127
2, 60863, Note_off_c, 7, 67, 127
2, 60869, Note_on_c, 5, 65, 127
2, 60869, Note_on_c, 10, 69, 127
2, 60992, Note_off_c, 10, 69, 127
2, 60993, Note_off_c, 5, 65, 127
2, 60999, Note_on_c, 4, 64, 127
2, 60999, Note_on_c, 7, 67, 127
2, 61122, Note_off_c, 7, 67, 127
2, 61123, Note_off_c, 4, 64, 127
2, 61130, Note_on_c, 2, 50, 127
2, 61130, Note_on_c, 5, 65, 127
2, 61254, Note_off_c, 2, 50, 127
2, 61261, Note_on_c, 3, 63, 127
2, 61385, Note_off_c, 3, 63, 127
2, 61389, Note_off_c, 5, 65, 127
2, 61392, Note_on_c, 2, 62, 127
2, 61392, Note_on_c, 6, 66, 127
2, 61516, Note_off_c, 2, 62, 127
2, 61522, Note_on_c, 0, 60, 127
2, 61646, Note_off_c, 0, 60, 127
2, 61651, Note_off_c, 6, 66, 127
2, 61652, Note_on_c, 11, 58, 127
2, 61652, Note_on_c, 7, 67, 127
2, 61776, Note_off_c, 11, 58, 127
2, 61783, Note_on_c, 0, 60, 127
2, 61907, Note_off_c, 0, 60, 127
2, 61911, Note_off_c, 7, 67, 127
2, 61913, Note_on_c, 11, 58, 127
2, 61913, Note_on_c, 10, 69, 127
2, 62037, Note_off_c, 11, 58, 127
2, 62044, Note_on_c, 10, 57, 127
2, 62168, Note_off_c, 10, 57, 127
2, 62172, Note_off_c, 10, 69, 127
2, 62174, Note_on_c, 7, 55, 127
2, 62174, Note_on_c, 11, 70, 127
2, 62298, Note_off_c, 7, 55, 127
2, 62304, Note_on_c, 10, 57, 127
2, 62428, Note_off_c, 10, 57, 127
2, 62433, Note_off_c, 11, 70, 127
2, 62435, Note_on_c, 7, 55, 127
2, 62435, Note_on_c, 12, 71, 127
2, 62559, Note_off_c, 7, 55, 127
2, 62565, Note_on_c, 5, 53, 127
2, 62689, Note_off_c, 5, 53, 127
2, 62694, Note_off_c, 12, 71, 127
2, 62697, Note_on_c, 4, 52, 127
2, 62697, Note_on_c, 0, 72, 127
2, 62821, Note_off_c, 4, 52, 127
2, 62827, Note_on_c, 11, 58, 127
2, 62951, Note_off_c, 11, 58, 127
2, 62956, Note_off_c, 0, 72, 127
2, 62957, Note_on_c, 10, 57, 127
2, 62957, Note_on_c, 1, 73, 127
2, 63081, Note_off_c, 10, 57, 127
2, 63088, Note_on_c, 7, 55, 127
2, 63212, Note_off_c, 7, 55, 127
2, 63216, Note_off_c, 1, 73, 127
2, 63218, Note_on_c, 5, 53, 127
2, 63218, Note_on_c, 2, 74, 127
2, 63342, Note_off_c, 5, 53, 127
2, 63349, Note_on_c, 7, 55, 127
2, 63473, Note_off_c, 7, 55, 127
2, 63477, Note_off_c, 2, 74, 127
2, 63479, Note_on_c, 5, 53, 127
2, 63479, Note_on_c, 4, 76, 127
2, 63603, Note_off_c, 5, 53, 127
2, 63609, Note_on_c, 4, 52, 127
2, 63733, Note_off_c, 4, 52, 127
2, 63738, Note_off_c, 4, 76, 127
2, 63740, Note_on_c, 2, 50, 127
2, 63740, Note_on_c, 5, 77, 127
2, 63864, Note_off_c, 2, 50, 127
2, 63870, Note_on_c, 3, 51, 127
2, 63994, Note_off_c, 3, 51, 127
2, 63999, Note_off_c, 5, 77, 127
2, 64001, Note_on_c, 2, 50, 127
2, 64001, Note_on_c, 6, 78, 127
2, 64125, Note_off_c, 2, 50, 127
2, 64131, Note_on_c, 0, 48, 127
2, 64255, Note_off_c, 0, 48, 127
2, 64260, Note_off_c, 6, 78, 127
2, 64262, Note_on_c, 11, 46, 127
2, 64262, Note_on_c, 7, 79, 127
2, 64385, Note_off_c, 7, 79, 127
2, 64393, Note_on_c, 2, 74, 127
2, 64516, Note_off_c, 2, 74, 127
2, 64520, Note_off_c, 11, 46, 127
2, 64523, Note_on_c, 7, 43, 127
2, 64523, Note_on_c, 11, 82, 127
2, 64646, Note_off_c, 11, 82, 127
2, 64654, Note_on_c, 10, 81, 127
2, 64777, Note_off_c, 10, 81, 127
2, 64781, Note_off_c, 7, 43, 127
2, 64784, Note_on_c, 11, 46, 127
2, 64784, Note_on_c, 7, 79, 127
2, 64907, Note_off_c, 7, 79, 127
2, 64914, Note_on_c, 5, 77, 127
2, 65037, Note_off_c, 5, 77, 127
2, 65042, Note_off_c, 11, 46, 127
2, 65045, Note_on_c, 2, 50, 127
2, 65045, Note_on_c, 4, 76, 127
2, 65168, Note_off_c, 4, 76, 127
2, 65175, Note_on_c, 2, 74, 127
2, 65298, Note_off_c, 2, 74, 127
2, 65303, Note_off_c, 2, 50, 127
2, 65306, Note_on_c, 7, 55, 127
2, 65306, Note_on_c, 1, 73, 127
2, 65429, Note_off_c, 1, 73, 127
2, 65436, Note_on_c, 2, 74, 127
2, 65559, Note_off_c, 2, 74, 127
2, 65566, Note_on_c, 4, 76, 127
2, 65689, Note_off_c, 4, 76, 127
2, 65697, Note_on_c, 1, 73, 127
2, 65820, Note_off_c, 1, 73, 127
2, 65828, Note_on_c, 10, 69, 127
2, 65955, Note_off_c, 7, 55, 127
2, 65959, Note_on_c, 7, 55, 127
2, 66083, Note_off_c, 7, 55, 127
2, 66087, Note_off_c, 10, 69, 127
2, 66089, Note_on_c, 10, 45, 127
2, 66089, Note_on_c, 4, 64, 127
2, 66213, Note_off_c, 10, 45, 127
2, 66219, Note_on_c, 7, 43, 127
2, 66343, Note_off_c, 7, 43, 127
2, 66348, Note_off_c, 4, 64, 127
2, 66350, Note_on_c, 10, 45, 127
2, 66350, Note_on_c, 10, 69, 127
2, 66474, Note_off_c, 10, 45, 127
2, 66480, Note_on_c, 7, 55, 127
2, 66604, Note_off_c, 7, 55, 127
2, 66609, Note_off_c, 10, 69, 127
2, 66611, Note_on_c, 10, 45, 127
2, 66611, Note_on_c, 1, 73, 127
2, 66735, Note_off_c, 10, 45, 127
2, 66741, Note_on_c, 7, 55, 127
2, 66865, Note_off_c, 7, 55, 127
2, 66870, Note_off_c, 1, 73, 127
2, 66871, Note_on_c, 10, 45, 127
2, 66871, Note_on_c, 4, 76, 127
2, 66994, Note_off_c, 4, 76, 127
2, 66995, Note_off_c, 10, 45, 127
2, 67002, Note_on_c, 7, 55, 127
2, 67002, Note_on_c, 2, 74, 127
2, 67125, Note_off_c, 2, 74, 127
2, 67126, Note_off_c, 7, 55, 127
2, 67132, Note_on_c, 10, 45, 127
2, 67132, Note_on_c, 4, 76, 127
2, 67256, Note_off_c, 10, 45, 127
2, 67264, Note_on_c, 7, 55, 127
2, 67388, Note_off_c, 7, 55, 127
2, 67394, Note_on_c, 10, 45, 127
2, 67518, Note_off_c, 10, 45, 127
2, 67521, Note_off_c, 4, 76, 127
2, 67524, Note_on_c, 5, 53, 127
2, 67524, Note_on_c, 10, 69, 127
2, 67647, Note_off_c, 10, 69, 127
2, 67648, Note_off_c, 5, 53, 127
2, 67655, Note_on_c, 10, 45, 127
2, 67655, Note_on_c, 5, 65, 127
2, 67778, Note_off_c, 5, 65, 127
2, 67779, Note_off_c, 10, 45, 127
2, 67785, Note_on_c, 7, 43, 127
2, 67785, Note_on_c, 10, 69, 127
2, 67908, Note_off_c, 10, 69, 127
2, 67909, Note_off_c, 7, 43, 127
2, 67916, Note_on_c, 10, 45, 127
2, 67916, Note_on_c, 2, 74, 127
2, 68039, Note_off_c, 2, 74, 127
2, 68040, Note_off_c, 10, 45, 127
2, 68046, Note_on_c, 5, 53, 127
2, 68046, Note_on_c, 10, 69, 127
2, 68169, Note_off_c, 10, 69, 127
2, 68170, Note_off_c, 5, 53, 127
2, 68176, Note_on_c, 10, 45, 127
2, 68176, Note_on_c, 5, 65, 127
2, 68299, Note_off_c, 5, 65, 127
2, 68300, Note_off_c, 10, 45, 127
2, 68307, Note_on_c, 5, 53, 127
2, 68307, Note_on_c, 10, 69, 127
2, 68430, Note_off_c, 10, 69, 127
2, 68431, Note_off_c, 5, 53, 127
2, 68437, Note_on_c, 10, 45, 127
2, 68437, Note_on_c, 2, 74, 127
2, 68560, Note_off_c, 2, 74, 127
2, 68561, Note_off_c, 10, 45, 127
2, 68568, Note_on_c, 5, 53, 127
2, 68568, Note_on_c, 1, 73, 127
2, 68691, Note_off_c, 1, 73, 127
2, 68692, Note_off_c, 5, 53, 127
2, 68698, Note_on_c, 10, 45, 127
2, 68698, Note_on_c, 2, 74, 127
2, 68822, Note_off_c, 10, 45, 127
2, 68829, Note_on_c, 5, 53, 127
2, 68953, Note_off_c, 5, 53, 127
2, 68960, Note_on_c, 10, 45, 127
2, 69084, Note_off_c, 10, 45, 127
2, 69087, Note_off_c, 2, 74, 127
2, 69090, Note_on_c, 4, 52, 127
2, 69090, Note_on_c, 7, 67, 127
2, 69213, Note_off_c, 7, 67, 127
2, 69214, Note_off_c, 4, 52, 127
2, 69221, Note_on_c, 10, 45, 127
2, 69221, Note_on_c, 4, 64, 127
2, 69344, Note_off_c, 4, 64, 127
2, 69345, Note_off_c, 10, 45, 127
2, 69351, Note_on_c, 7, 43, 127
2, 69351, Note_on_c, 7, 67, 127
2, 69474, Note_off_c, 7, 67, 127
2, 69475, Note_off_c, 7, 43, 127
2, 69481, Note_on_c, 10, 45, 127
2, 69481, Note_on_c, 0, 72, 127
2, 69604, Note_off_c, 0, 72, 127
2, 69605, Note_off_c, 10, 45, 127
2, 69612, Note_on_c, 4, 52, 127
2, 69612, Note_on_c, 7, 67, 127
2, 69735, Note_off_c, 7, 67, 127
2, 69736, Note_off_c, 4, 52, 127
2, 69742, Note_on_c, 10, 45, 127
2, 69742, Note_on_c, 4, 64, 127
2, 69865, Note_off_c, 4, 64, 127
2, 69866, Note_off_c, 10, 45, 127
2, 69873, Note_on_c, 4, 52, 127
2, 69873, Note_on_c, 7, 67, 127
2, 69996, Note_off_c, 7, 67, 127
2, 69997, Note_off_c, 4, 52, 127
2, 70003, Note_on_c, 10, 45, 127
2, 70003, Note_on_c, 0, 72, 127
2, 70126, Note_off_c, 0, 72, 127
2, 70127, Note_off_c, 10, 45, 127
2, 70133, Note_on_c, 4, 52, 127
2, 70133, Note_on_c, 12, 71, 127
2, 70256, Note_off_c, 12, 71, 127
2, 70257, Note_off_c, 4, 52, 127
2, 70264, Note_on_c, 10, 45, 127
2, 70264, Note_on_c, 0, 72, 127
2, 70388, Note_off_c, 10, 45, 127
2, 70395, Note_on_c, 4, 52, 127
2, 70519, Note_off_c, 4, 52, 127
2, 70526, Note_on_c, 10, 45, 127
2, 70650, Note_off_c, 10, 45, 127
2, 70653, Note_off_c, 0, 72, 127
2, 70656, Note_on_c, 2, 50, 127
2, 70656, Note_on_c, 5, 65, 127
2, 70779, Note_off_c, 5, 65, 127
2, 70780, Note_off_c, 2, 50, 127
2, 70786, Note_on_c, 5, 53, 127
2, 70786, Note_on_c, 2, 62, 127
2, 70909, Note_off_c, 2, 62, 127
2, 70910, Note_off_c, 5, 53, 127
2, 70917, Note_on_c, 2, 50, 127
2, 70917, Note_on_c, 5, 65, 127
2, 71040, Note_off_c, 5, 65, 127
2, 71041, Note_off_c, 2, 50, 127
2, 71047, Note_on_c, 10, 45, 127
2, 71047, Note_on_c, 11, 70, 127
2, 71170, Note_off_c, 11, 70, 127
2, 71171, Note_off_c, 10, 45, 127
2, 71178, Note_on_c, 2, 50, 127
2, 71178, Note_on_c, 5, 65, 127
2, 71301, Note_off_c, 5, 65, 127
2, 71302, Note_off_c, 2, 50, 127
2, 71308, Note_on_c, 5, 53, 127
2, 71308, Note_on_c, 2, 62, 127
2, 71431, Note_off_c, 2, 62, 127
2, 71432, Note_off_c, 5, 53, 127
2, 71438, Note_on_c, 10, 57, 127
2, 71438, Note_on_c, 5, 65, 127
2, 71561, Note_off_c, 5, 65, 127
2, 71562, Note_off_c, 10, 57, 127
2, 71569, Note_on_c, 7, 43, 127
2, 71569, Note_on_c, 11, 70, 127
2, 71692, Note_off_c, 11, 70, 127
2, 71693, Note_off_c, 7, 43, 127
2, 71699, Note_on_c, 4, 52, 127
2, 71699, Note_on_c, 7, 67, 127
2, 71822, Note_off_c, 7, 67, 127
2, 71823, Note_off_c, 4, 52, 127
2, 71830, Note_on_c, 7, 55, 127
2, 71830, Note_on_c, 4, 64, 127
2, 71953, Note_off_c, 4, 64, 127
2, 71954, Note_off_c, 7, 55, 127
2, 71961, Note_on_c, 11, 58, 127
2, 71961, Note_on_c, 7, 67, 127
2, 72084, Note_off_c, 7, 67, 127
2, 72085, Note_off_c, 11, 58, 127
2, 72091, Note_on_c, 7, 55, 127
2, 72091, Note_on_c, 1, 61, 127
2, 72214, Note_off_c, 1, 61, 127
2, 72222, Note_on_c, 10, 69, 127
2, 72345, Note_off_c, 10, 69, 127
2, 72349, Note_off_c, 7, 55, 127
2, 72352, Note_on_c, 1, 49, 127
2, 72352, Note_on_c, 11, 70, 127
2, 72475, Note_off_c, 11, 70, 127
2, 72483, Note_on_c, 10, 69, 127
2, 72606, Note_off_c, 10, 69, 127
2, 72610, Note_off_c, 1, 49, 127
2, 72613, Note_on_c, 4, 52, 127
2, 72613, Note_on_c, 1, 61, 127
2, 72736, Note_off_c, 1, 61, 127
2, 72743, Note_on_c, 10, 69, 127
2, 72866, Note_off_c, 10, 69, 127
2, 72871, Note_off_c, 4, 52, 127
2, 72874, Note_on_c, 7, 43, 127
2, 72874, Note_on_c, 11, 70, 127
2, 72997, Note_off_c, 11, 70, 127
2, 73004, Note_on_c, 10, 69, 127
2, 73127, Note_off_c, 10, 69, 127
2, 73135, Note_on_c, 1, 61, 127
2, 73262, Note_off_c, 7, 43, 127
2, 73265, Note_on_c, 11, 46, 127
2, 73389, Note_off_c, 11, 46, 127
2, 73394, Note_off_c, 1, 61, 127
2, 73396, Note_on_c, 10, 45, 127
2, 73396, Note_on_c, 4, 64, 127
2, 73520, Note_off_c, 10, 45, 127
2, 73527, Note_on_c, 7, 43, 127
2, 73651, Note_off_c, 7, 43, 127
2, 73654, Note_off_c, 4, 64, 127
2, 73657, Note_on_c, 5, 41, 127
2, 73781, Note_off_c, 5, 41, 127
2, 73788, Note_on_c, 5, 53, 127
2, 73788, Note_on_c, 10, 69, 127
2, 73911, Note_off_c, 10, 69, 127
2, 73912, Note_off_c, 5, 53, 127
2, 73918, Note_on_c, 4, 52, 127
2, 73918, Note_on_c, 11, 70, 127
2, 74041, Note_off_c, 11, 70, 127
2, 74042, Note_off_c, 4, 52, 127
2, 74048, Note_on_c, 5, 53, 127
2, 74048, Note_on_c, 10, 69, 127
2, 74171, Note_off_c, 10, 69, 127
2, 74172, Note_off_c, 5, 53, 127
2, 74179, Note_on_c, 5, 41, 127
2, 74179, Note_on_c, 2, 62, 127
2, 74302, Note_off_c, 2, 62, 127
2, 74303, Note_off_c, 5, 41, 127
2, 74309, Note_on_c, 5, 53, 127
2, 74309, Note_on_c, 10, 69, 127
2, 74432, Note_off_c, 10, 69, 127
2, 74433, Note_off_c, 5, 53, 127
2, 74440, Note_on_c, 4, 52, 127
2, 74440, Note_on_c, 11, 70, 127
2, 74563, Note_off_c, 11, 70, 127
2, 74564, Note_off_c, 4, 52, 127
2, 74570, Note_on_c, 5, 53, 127
2, 74570, Note_on_c, 10, 69, 127
2, 74693, Note_off_c, 10, 69, 127
2, 74694, Note_off_c, 5, 53, 127
2, 74700, Note_on_c, 5, 41, 127
2, 74700, Note_on_c, 2, 62, 127
2, 74824, Note_off_c, 5, 41, 127
2, 74831, Note_on_c, 5, 53, 127
2, 74955, Note_off_c, 5, 53, 127
2, 74959, Note_off_c, 2, 62, 127
2, 74962, Note_on_c, 4, 52, 127
2, 74962, Note_on_c, 5, 65, 127
2, 75086, Note_off_c, 4, 52, 127
2, 75093, Note_on_c, 2, 50, 127
2, 75217, Note_off_c, 2, 50, 127
2, 75220, Note_off_c, 5, 65, 127
2, 75223, Note_on_c, 1, 49, 127
2, 75353, Note_on_c, 7, 67, 127
2, 75476, Note_off_c, 7, 67, 127
2, 75481, Note_off_c, 1, 49, 127
2, 75484, Note_on_c, 4, 40, 127
2, 75484, Note_on_c, 10, 69, 127
2, 75607, Note_off_c, 10, 69, 127
2, 75614, Note_on_c, 7, 67, 127
2, 75737, Note_off_c, 7, 67, 127
2, 75742, Note_off_c, 4, 40, 127
2, 75745, Note_on_c, 7, 43, 127
2, 75745, Note_on_c, 4, 64, 127
2, 75868, Note_off_c, 4, 64, 127
2, 75875, Note_on_c, 7, 67, 127
2, 75998, Note_off_c, 7, 67, 127
2, 76003, Note_off_c, 7, 43, 127
2, 76005, Note_on_c, 1, 37, 127
2, 76005, Note_on_c, 10, 69, 127
2, 76128, Note_off_c, 10, 69, 127
2, 76136, Note_on_c, 7, 67, 127
2, 76259, Note_off_c, 7, 67, 127
2, 76266, Note_on_c, 10, 57, 127
2, 76393, Note_off_c, 1, 37, 127
2, 76397, Note_on_c, 1, 49, 127
2, 76521, Note_off_c, 1, 49, 127
2, 76525, Note_off_c, 10, 57, 127
2, 76528, Note_on_c, 12, 47, 127
2, 76528, Note_on_c, 7, 67, 127
2, 76652, Note_off_c, 12, 47, 127
2, 76658, Note_on_c, 10, 45, 127
2, 76782, Note_off_c, 10, 45, 127
2, 76789, Note_on_c, 2, 50, 127
2, 76917, Note_off_c, 7, 67, 127
2, 76919, Note_on_c, 11, 58, 127
2, 77042, Note_off_c, 11, 58, 127
2, 77047, Note_off_c, 2, 50, 127
2, 77050, Note_on_c, 2, 38, 127
2, 77050, Note_on_c, 10, 57, 127
2, 77173, Note_off_c, 10, 57, 127
2, 77180, Note_on_c, 7, 55, 127
2, 77303, Note_off_c, 7, 55, 127
2, 77308, Note_off_c, 2, 38, 127
2, 77310, Note_on_c, 5, 41, 127
2, 77310, Note_on_c, 10, 57, 127
2, 77433, Note_off_c, 10, 57, 127
2, 77441, Note_on_c, 4, 64, 127
2, 77564, Note_off_c, 4, 64, 127
2, 77568, Note_off_c, 5, 41, 127
2, 77571, Note_on_c, 10, 45, 127
2, 77571, Note_on_c, 2, 62, 127
2, 77694, Note_off_c, 2, 62, 127
2, 77702, Note_on_c, 1, 61, 127
2, 77825, Note_off_c, 1, 61, 127
2, 77829, Note_off_c, 10, 45, 127
2, 77832, Note_on_c, 2, 50, 127
2, 77832, Note_on_c, 2, 62, 127
2, 77917, Note_off_c, 2, 50, 127
2, 77920, Note_on_c, 1, 49, 127
2, 77955, Note_off_c, 2, 62, 127
2, 77963, Note_on_c, 7, 67, 127
2, 78005, Note_off_c, 1, 49, 127
2, 78006, Note_on_c, 2, 50, 127
2, 78086, Note_off_c, 7, 67, 127
2, 78094, Note_on_c, 5, 65, 127
2, 78217, Note_off_c, 5, 65, 127
2, 78224, Note_on_c, 4, 64, 127
2, 78347, Note_off_c, 4, 64, 127
2, 78355, Note_on_c, 5, 65, 127
2, 78468, Note_off_c, 2, 50, 127
2, 78478, Note_off_c, 5, 65, 127
2, 78485, Note_on_c, 7, 55, 127
2, 78485, Note_on_c, 11, 58, 127
2, 78608, Note_off_c, 11, 58, 127
2, 78609, Note_off_c, 7, 55, 127
2, 78615, Note_on_c, 10, 57, 127
2, 78615, Note_on_c, 0, 60, 127
2, 78738, Note_off_c, 0, 60, 127
2, 78739, Note_off_c, 10, 57, 127
2, 78746, Note_on_c, 11, 58, 127
2, 78746, Note_on_c, 2, 62, 127
2, 78869, Note_off_c, 2, 62, 127
2, 78870, Note_off_c, 11, 58, 127
2, 78876, Note_on_c, 0, 48, 127
2, 78876, Note_on_c, 3, 63, 127
2, 78999, Note_off_c, 3, 63, 127
2, 79000, Note_off_c, 0, 48, 127
2, 79007, Note_on_c, 6, 54, 127
2, 79007, Note_on_c, 10, 57, 127
2, 79130, Note_off_c, 10, 57, 127
2, 79131, Note_off_c, 6, 54, 127
2, 79137, Note_on_c, 7, 55, 127
2, 79137, Note_on_c, 11, 58, 127
2, 79260, Note_off_c, 11, 58, 127
2, 79261, Note_off_c, 7, 55, 127
2, 79267, Note_on_c, 10, 57, 127
2, 79267, Note_on_c, 0, 60, 127
2, 79390, Note_off_c, 0, 60, 127
2, 79391, Note_off_c, 10, 57, 127
2, 79398, Note_on_c, 11, 46, 127
2, 79398, Note_on_c, 2, 62, 127
2, 79521, Note_off_c, 2, 62, 127
2, 79522, Note_off_c, 11, 46, 127
2, 79529, Note_on_c, 7, 55, 127
2, 79529, Note_on_c, 11, 58, 127
2, 79652, Note_off_c, 11, 58, 127
2, 79653, Note_off_c, 7, 55, 127
2, 79660, Note_on_c, 10, 57, 127
2, 79660, Note_on_c, 0, 60, 127
2, 79783, Note_off_c, 0, 60, 127
2, 79784, Note_off_c, 10, 57, 127
2, 79790, Note_on_c, 11, 58, 127
2, 79790, Note_on_c, 2, 62, 127
2, 79913, Note_off_c, 2, 62, 127
2, 79914, Note_off_c, 11, 58, 127
2, 79920, Note_on_c, 0, 48, 127
2, 79920, Note_on_c, 3, 63, 127
2, 80043, Note_off_c, 3, 63, 127
2, 80044, Note_off_c, 0, 48, 127
2, 80051, Note_on_c, 6, 54, 127
2, 80051, Note_on_c, 10, 57, 127
2, 80174, Note_off_c, 10, 57, 127
2, 80175, Note_off_c, 6, 54, 127
2, 80181, Note_on_c, 7, 55, 127
2, 80181, Note_on_c, 11, 58, 127
2, 80304, Note_off_c, 11, 58, 127
2, 80305, Note_off_c, 7, 55, 127
2, 80312, Note_on_c, 10, 57, 127
2, 80312, Note_on_c, 0, 60, 127
2, 80435, Note_off_c, 0, 60, 127
2, 80436, Note_off_c, 10, 57, 127
2, 80442, Note_on_c, 11, 46, 127
2, 80442, Note_on_c, 2, 62, 127
2, 80565, Note_off_c, 2, 62, 127
2, 80566, Note_off_c, 11, 46, 127
2, 80572, Note_on_c, 7, 55, 127
2, 80572, Note_on_c, 11, 58, 127
2, 80695, Note_off_c, 11, 58, 127
2, 80696, Note_off_c, 7, 55, 127
2, 80703, Note_on_c, 10, 57, 127
2, 80703, Note_on_c, 0, 60, 127
2, 80826, Note_off_c, 0, 60, 127
2, 80827, Note_off_c, 10, 57, 127
2, 80833, Note_on_c, 11, 58, 127
2, 80833, Note_on_c, 2, 62, 127
2, 80956, Note_off_c, 2, 62, 127
2, 80957, Note_off_c, 11, 58, 127
2, 80964, Note_on_c, 10, 45, 127
2, 80964, Note_on_c, 0, 60, 127
2, 81087, Note_off_c, 0, 60, 127
2, 81088, Note_off_c, 10, 45, 127
2, 81095, Note_on_c, 2, 50, 127
2, 81095, Note_on_c, 6, 54, 127
2, 81218, Note_off_c, 6, 54, 127
2, 81219, Note_off_c, 2, 50, 127
2, 81225, Note_on_c, 4, 52, 127
2, 81225, Note_on_c, 7, 55, 127
2, 81348, Note_off_c, 7, 55, 127
2, 81349, Note_off_c, 4, 52, 127
2, 81356, Note_on_c, 6, 54, 127
2, 81356, Note_on_c, 10, 57, 127
2, 81479, Note_off_c, 10, 57, 127
2, 81480, Note_off_c, 6, 54, 127
2, 81486, Note_on_c, 7, 43, 127
2, 81486, Note_on_c, 11, 58, 127
2, 81610, Note_off_c, 7, 43, 127
2, 81617, Note_on_c, 2, 50, 127
2, 81741, Note_off_c, 2, 50, 127
2, 81747, Note_on_c, 4, 52, 127
2, 81866, Note_off_c, 11, 58, 127
2, 81871, Note_off_c, 4, 52, 127
2, 81877, Note_on_c, 6, 54, 127
2, 82001, Note_off_c, 6, 54, 127
2, 82008, Note_on_c, 7, 55, 127
2, 82132, Note_off_c, 7, 55, 127
2, 82138, Note_on_c, 10, 57, 127
2, 82261, Note_off_c, 10, 57, 127
2, 82269, Note_on_c, 11, 58, 127
2, 82392, Note_off_c, 11, 58, 127
2, 82399, Note_on_c, 0, 60, 127
2, 82522, Note_off_c, 0, 60, 127
2, 82530, Note_on_c, 2, 62, 127
2, 82653, Note_off_c, 2, 62, 127
2, 82661, Note_on_c, 11, 58, 127
2, 82784, Note_off_c, 11, 58, 127
2, 82791, Note_on_c, 7, 67, 127
2, 82914, Note_off_c, 7, 67, 127
2, 82922, Note_on_c, 2, 62, 127
2, 83045, Note_off_c, 2, 62, 127
2, 83052, Note_on_c, 11, 70, 127
2, 83182, Note_on_c, 7, 67, 127
2, 83305, Note_off_c, 7, 67, 127
2, 83310, Note_off_c, 11, 70, 127
2, 83313, Note_on_c, 5, 65, 127
2, 83436, Note_off_c, 5, 65, 127
2, 83443, Note_on_c, 3, 63, 127
2, 83566, Note_off_c, 3, 63, 127
2, 83574, Note_on_c, 2, 62, 127
2, 83697, Note_off_c, 2, 62, 127
2, 83704, Note_on_c, 0, 60, 127
2, 83828, Note_off_c, 0, 60, 127
2, 83834, Note_on_c, 11, 58, 127
2, 83958, Note_off_c, 11, 58, 127
2, 83965, Note_on_c, 10, 57, 127
2, 84089, Note_off_c, 10, 57, 127
2, 84096, Note_on_c, 7, 55, 127
2, 84220, Note_off_c, 7, 55, 127
2, 84227, Note_on_c, 11, 58, 127
2, 84351, Note_off_c, 11, 58, 127
2, 84357, Note_on_c, 4, 52, 127
2, 84481, Note_off_c, 4, 52, 127
2, 84487, Note_on_c, 7, 55, 127
2, 84611, Note_off_c, 7, 55, 127
2, 84618, Note_on_c, 1, 49, 127
2, 84748, Note_on_c, 11, 70, 127
2, 84871, Note_off_c, 11, 70, 127
2, 84879, Note_on_c, 10, 69, 127
2, 85002, Note_off_c, 10, 69, 127
2, 85009, Note_on_c, 7, 67, 127
2, 85132, Note_off_c, 7, 67, 127
2, 85139, Note_on_c, 4, 76, 127
2, 85262, Note_off_c, 4, 76, 127
2, 85270, Note_off_c, 1, 49, 127
2, 85270, Note_on_c, 2, 74, 127
2, 85393, Note_off_c, 2, 74, 127
2, 85400, Note_on_c, 10, 45, 127
2, 85400, Note_on_c, 1, 73, 127
2, 85523, Note_off_c, 1, 73, 127
2, 85531, Note_on_c, 12, 71, 127
2, 85654, Note_off_c, 12, 71, 127
2, 85658, Note_off_c, 10, 45, 127
2, 85662, Note_on_c, 12, 47, 127
2, 85662, Note_on_c, 10, 69, 127
2, 85785, Note_off_c, 10, 69, 127
2, 85792, Note_on_c, 7, 67, 127
2, 85915, Note_off_c, 7, 67, 127
2, 85920, Note_off_c, 12, 47, 127
2, 85923, Note_on_c, 1, 49, 127
2, 85923, Note_on_c, 5, 65, 127
2, 86046, Note_off_c, 5, 65, 127
2, 86053, Note_on_c, 4, 64, 127
2, 86176, Note_off_c, 4, 64, 127
2, 86181, Note_off_c, 1, 49, 127
2, 86184, Note_on_c, 2, 50, 127
2, 86184, Note_on_c, 5, 65, 127
2, 86314, Note_on_c, 2, 62, 127
2, 86347, Note_off_c, 5, 65, 127
2, 86437, Note_off_c, 2, 62, 127
2, 86442, Note_off_c, 2, 50, 127
2, 86444, Note_on_c, 4, 52, 127
2, 86444, Note_on_c, 7, 67, 127
2, 86575, Note_on_c, 2, 62, 127
2, 86607, Note_off_c, 7, 67, 127
2, 86698, Note_off_c, 2, 62, 127
2, 86702, Note_off_c, 4, 52, 127
2, 86705, Note_on_c, 5, 53, 127
2, 86705, Note_on_c, 10, 69, 127
2, 86836, Note_on_c, 2, 62, 127
2, 86868, Note_off_c, 10, 69, 127
2, 86959, Note_off_c, 2, 62, 127
2, 86963, Note_off_c, 5, 53, 127
2, 86966, Note_on_c, 7, 55, 127
2, 86966, Note_on_c, 11, 70, 127
2, 87089, Note_off_c, 11, 70, 127
2, 87097, Note_on_c, 2, 62, 127
2, 87224, Note_off_c, 7, 55, 127
2, 87228, Note_on_c, 10, 57, 127
2, 87356, Note_off_c, 2, 62, 127
2, 87358, Note_on_c, 2, 62, 127
2, 87481, Note_off_c, 2, 62, 127
2, 87486, Note_off_c, 10, 57, 127
2, 87489, Note_on_c, 10, 45, 127
2, 87489, Note_on_c, 4, 64, 127
2, 87612, Note_off_c, 4, 64, 127
2, 87619, Note_on_c, 1, 61, 127
2, 87742, Note_off_c, 1, 61, 127
2, 87747, Note_off_c, 10, 45, 127
2, 87749, Note_on_c, 2, 50, 127
2, 87749, Note_on_c, 2, 62, 127
2, 87872, Note_off_c, 2, 62, 127
2, 87880, Note_on_c, 0, 60, 127
2, 88003, Note_off_c, 0, 60, 127
2, 88007, Note_off_c, 2, 50, 127
2, 88010, Note_on_c, 10, 57, 127
2, 88010, Note_on_c, 6, 54, 127
2, 88133, Note_off_c, 6, 54, 127
2, 88141, Note_on_c, 0, 60, 127
2, 88264, Note_off_c, 0, 60, 127
2, 88268, Note_off_c, 10, 57, 127
2, 88271, Note_on_c, 2, 50, 127
2, 88271, Note_on_c, 2, 62, 127
2, 88394, Note_off_c, 2, 62, 127
2, 88401, Note_on_c, 0, 60, 127
2, 88524, Note_off_c, 0, 60, 127
2, 88529, Note_off_c, 2, 50, 127
2, 88532, Note_on_c, 10, 57, 127
2, 88532, Note_on_c, 6, 54, 127
2, 88655, Note_off_c, 6, 54, 127
2, 88663, Note_on_c, 0, 60, 127
2, 88786, Note_off_c, 0, 60, 127
2, 88790, Note_off_c, 10, 57, 127
2, 88794, Note_on_c, 2, 50, 127
2, 88794, Note_on_c, 2, 62, 127
2, 88917, Note_off_c, 2, 62, 127
2, 88924, Note_on_c, 0, 60, 127
2, 89047, Note_off_c, 0, 60, 127
2, 89052, Note_off_c, 2, 50, 127
2, 89054, Note_on_c, 10, 57, 127
2, 89054, Note_on_c, 6, 54, 127
2, 89177, Note_off_c, 6, 54, 127
2, 89185, Note_on_c, 0, 60, 127
2, 89308, Note_off_c, 0, 60, 127
2, 89312, Note_off_c, 10, 57, 127
2, 89315, Note_on_c, 2, 50, 127
2, 89315, Note_on_c, 11, 58, 127
2, 89438, Note_off_c, 11, 58, 127
2, 89446, Note_on_c, 2, 62, 127
2, 89569, Note_off_c, 2, 62, 127
2, 89573, Note_off_c, 2, 50, 127
2, 89576, Note_on_c, 7, 55, 127
2, 89576, Note_on_c, 11, 58, 127
2, 89699, Note_off_c, 11, 58, 127
2, 89706, Note_on_c, 6, 54, 127
2, 89829, Note_off_c, 6, 54, 127
2, 89834, Note_off_c, 7, 55, 127
2, 89837, Note_on_c, 2, 50, 127
2, 89837, Note_on_c, 11, 58, 127
2, 89960, Note_off_c, 11, 58, 127
2, 89967, Note_on_c, 2, 62, 127
2, 90090, Note_off_c, 2, 62, 127
2, 90095, Note_off_c, 2, 50, 127
2, 90098, Note_on_c, 7, 55, 127
2, 90098, Note_on_c, 11, 58, 127
2, 90221, Note_off_c, 11, 58, 127
2, 90229, Note_on_c, 6, 54, 127
2, 90352, Note_off_c, 6, 54, 127
2, 90356, Note_off_c, 7, 55, 127
2, 90359, Note_on_c, 2, 50, 127
2, 90359, Note_on_c, 11, 58, 127
2, 90482, Note_off_c, 11, 58, 127
2, 90490, Note_on_c, 2, 62, 127
2, 90613, Note_off_c, 2, 62, 127
2, 90617, Note_off_c, 2, 50, 127
2, 90620, Note_on_c, 7, 55, 127
2, 90620, Note_on_c, 11, 58, 127
2, 90743, Note_off_c, 11, 58, 127
2, 90751, Note_on_c, 4, 52, 127
2, 90874, Note_off_c, 4, 52, 127
2, 90878, Note_off_c, 7, 55, 127
2, 90881, Note_on_c, 2, 50, 127
2, 90881, Note_on_c, 5, 53, 127
2, 91004, Note_off_c, 5, 53, 127
2, 91011, Note_on_c, 2, 62, 127
2, 91134, Note_off_c, 2, 62, 127
2, 91139, Note_off_c, 2, 50, 127
2, 91142, Note_on_c, 10, 57, 127
2, 91142, Note_on_c, 5, 53, 127
2, 91265, Note_off_c, 5, 53, 127
2, 91272, Note_on_c, 2, 62, 127
2, 91395, Note_off_c, 2, 62, 127
2, 91400, Note_off_c, 10, 57, 127
2, 91403, Note_on_c, 2, 50, 127
2, 91403, Note_on_c, 5, 53, 127
2, 91526, Note_off_c, 5, 53, 127
2, 91533, Note_on_c, 2, 62, 127
2, 91656, Note_off_c, 2, 62, 127
2, 91661, Note_off_c, 2, 50, 127
2, 91664, Note_on_c, 10, 57, 127
2, 91664, Note_on_c, 5, 53, 127
2, 91787, Note_off_c, 5, 53, 127
2, 91795, Note_on_c, 2, 62, 127
2, 91918, Note_off_c, 2, 62, 127
2, 91922, Note_off_c, 10, 57, 127
2, 91925, Note_on_c, 2, 50, 127
2, 91925, Note_on_c, 5, 53, 127
2, 92048, Note_off_c, 5, 53, 127
2, 92056, Note_on_c, 2, 62, 127
2, 92179, Note_off_c, 2, 62, 127
2, 92183, Note_off_c, 2, 50, 127
2, 92186, Note_on_c, 10, 57, 127
2, 92186, Note_on_c, 5, 53, 127
2, 92309, Note_off_c, 5, 53, 127
2, 92316, Note_on_c, 2, 62, 127
2, 92439, Note_off_c, 2, 62, 127
2, 92444, Note_off_c, 10, 57, 127
2, 92447, Note_on_c, 2, 50, 127
2, 92447, Note_on_c, 7, 55, 127
2, 92574, Note_off_c, 7, 55, 127
2, 92581, Note_on_c, 1, 61, 127
2, 92708, Note_off_c, 1, 61, 127
2, 92713, Note_off_c, 2, 50, 127
2, 92716, Note_on_c, 11, 58, 127
2, 92716, Note_on_c, 7, 55, 127
2, 92843, Note_off_c, 7, 55, 127
2, 92851, Note_on_c, 4, 52, 127
2, 92978, Note_off_c, 4, 52, 127
2, 92982, Note_off_c, 11, 58, 127
2, 92985, Note_on_c, 2, 50, 127
2, 92985, Note_on_c, 7, 55, 127
2, 93112, Note_off_c, 7, 55, 127
2, 93120, Note_on_c, 1, 61, 127
2, 93247, Note_off_c, 1, 61, 127
2, 93251, Note_off_c, 2, 50, 127
2, 93254, Note_on_c, 11, 58, 127
2, 93254, Note_on_c, 7, 55, 127
2, 93381, Note_off_c, 7, 55, 127
2, 93389, Note_on_c, 4, 52, 127
2, 93516, Note_off_c, 4, 52, 127
2, 93520, Note_off_c, 11, 58, 127
2, 93524, Note_on_c, 2, 50, 127
2, 93524, Note_on_c, 7, 55, 127
2, 93651, Note_off_c, 7, 55, 127
2, 93658, Note_on_c, 1, 61, 127
2, 93785, Note_off_c, 1, 61, 127
2, 93790, Note_off_c, 2, 50, 127
2, 93793, Note_on_c, 11, 58, 127
2, 93793, Note_on_c, 7, 55, 127
2, 93920, Note_off_c, 7, 55, 127
2, 93927, Note_on_c, 4, 52, 127
2, 94054, Note_off_c, 4, 52, 127
2, 94059, Note_off_c, 11, 58, 127
2, 94062, Note_on_c, 10, 57, 127
2, 94062, Note_on_c, 2, 50, 127
2, 94062, Note_on_c, 6, 54, 127
2, 94062, Note_on_c, 2, 62, 127
2, 96832, Note_off_c, 2, 62, 127
2, 96832, Note_off_c, 6, 54, 127
2, 96832, Note_off_c, 2, 50, 127
2, 96832, Note_off_c, 10, 57, 127
2, 97307, Note_on_c, 2, 62, 127
2, 97453, Note_off_c, 2, 62, 127
2, 97457, Note_on_c, 4, 64, 127
2, 97603, Note_off_c, 4, 64, 127
2, 97606, Note_on_c, 5, 65, 127
2, 97752, Note_off_c, 5, 65, 127
2, 97756, Note_on_c, 7, 67, 127
2, 97902, Note_off_c, 7, 67, 127
2, 97905, Note_on_c, 5, 65, 127
2, 98051, Note_off_c, 5, 65, 127
2, 98055, Note_on_c, 4, 64, 127
2, 98201, Note_off_c, 4, 64, 127
2, 98204, Note_on_c, 5, 65, 127
2, 98350, Note_off_c, 5, 65, 127
2, 98354, Note_on_c, 7, 67, 127
2, 98500, Note_off_c, 7, 67, 127
2, 98503, Note_on_c, 10, 69, 127
2, 98649, Note_off_c, 10, 69, 127
2, 98653, Note_on_c, 11, 70, 127
2, 98799, Note_off_c, 11, 70, 127
2, 98802, Note_on_c, 10, 69, 127
2, 98948, Note_off_c, 10, 69, 127
2, 98952, Note_on_c, 7, 67, 127
2, 99098, Note_off_c, 7, 67, 127
2, 99101, Note_on_c, 10, 69, 127
2, 99547, Note_off_c, 10, 69, 127
2, 99552, Note_on_c, 2, 74, 127
2, 99998, Note_off_c, 2, 74, 127
2, 100001, Note_on_c, 1, 73, 127
2, 100447, Note_off_c, 1, 73, 127
2, 100451, Note_on_c, 0, 72, 127
2, 100897, Note_off_c, 0, 72, 127
2, 100901, Note_on_c, 12, 71, 127
2, 101347, Note_off_c, 12, 71, 127
2, 101351, Note_on_c, 11, 70, 127
2, 101797, Note_off_c, 11, 70, 127
2, 101801, Note_on_c, 10, 69, 127
2, 102247, Note_off_c, 10, 69, 127
2, 102251, Note_on_c, 7, 67, 127
2, 103146, Note_off_c, 7, 67, 127
2, 103149, Note_on_c, 5, 65, 127
2, 103595, Note_off_c, 5, 65, 127
2, 103599, Note_on_c, 4, 64, 127
2, 104045, Note_off_c, 4, 64, 127
2, 104049, Note_on_c, 10, 69, 127
2, 104495, Note_off_c, 10, 69, 127
2, 104499, Note_on_c, 5, 65, 127
2, 104499, Note_on_c, 10, 69, 127
2, 104645, Note_off_c, 10, 69, 127
2, 104649, Note_on_c, 12, 71, 127
2, 104795, Note_off_c, 12, 71, 127
2, 104798, Note_on_c, 0, 72, 127
2, 104944, Note_off_c, 0, 72, 127
2, 104944, Note_off_c, 5, 65, 127
2, 104948, Note_on_c, 2, 62, 127
2, 104948, Note_on_c, 2, 74, 127
2, 105094, Note_off_c, 2, 74, 127
2, 105097, Note_on_c, 0, 72, 127
2, 105243, Note_off_c, 0, 72, 127
2, 105247, Note_on_c, 12, 71, 127
2, 105393, Note_off_c, 12, 71, 127
2, 105393, Note_off_c, 2, 62, 127
2, 105397, Note_on_c, 10, 69, 127
2, 105397, Note_on_c, 0, 72, 127
2, 105543, Note_off_c, 0, 72, 127
2, 105546, Note_on_c, 2, 74, 127
2, 105692, Note_off_c, 2, 74, 127
2, 105696, Note_on_c, 4, 76, 127
2, 105842, Note_off_c, 4, 76, 127
2, 105845, Note_on_c, 5, 77, 127
2, 105991, Note_off_c, 5, 77, 127
2, 105995, Note_on_c, 4, 76, 127
2, 106141, Note_off_c, 4, 76, 127
2, 106144, Note_on_c, 2, 74, 127
2, 106284, Note_off_c, 10, 69, 127
2, 106290, Note_off_c, 2, 74, 127
2, 106294, Note_on_c, 4, 76, 127
2, 106518, Note_on_c, 12, 59, 127
2, 106739, Note_off_c, 12, 59, 127
2, 106739, Note_off_c, 4, 76, 127
2, 106742, Note_on_c, 0, 60, 127
2, 106742, Note_on_c, 10, 81, 127
2, 106963, Note_off_c, 0, 60, 127
2, 106966, Note_on_c, 2, 62, 127
2, 107187, Note_off_c, 2, 62, 127
2, 107187, Note_off_c, 10, 81, 127
2, 107191, Note_on_c, 4, 64, 127
2, 107191, Note_on_c, 8, 80, 127
2, 107412, Note_off_c, 4, 64, 127
2, 107415, Note_on_c, 6, 66, 127
2, 107636, Note_off_c, 6, 66, 127
2, 107636, Note_off_c, 8, 80, 127
2, 107639, Note_on_c, 7, 67, 127
2, 107639, Note_on_c, 7, 79, 127
2, 107860, Note_off_c, 7, 67, 127
2, 107864, Note_on_c, 4, 64, 127
2, 108084, Note_off_c, 7, 79, 127
2, 108085, Note_off_c, 4, 64, 127
2, 108088, Note_on_c, 10, 69, 127
2, 108088, Note_on_c, 6, 78, 127
2, 108309, Note_off_c, 10, 69, 127
2, 108312, Note_on_c, 8, 68, 127
2, 108533, Note_off_c, 8, 68, 127
2, 108533, Note_off_c, 6, 78, 127
2, 108536, Note_on_c, 10, 69, 127
2, 108536, Note_on_c, 5, 77, 127
2, 108757, Note_off_c, 10, 69, 127
2, 108761, Note_on_c, 12, 71, 127
2, 108981, Note_off_c, 5, 77, 127
2, 108982, Note_off_c, 12, 71, 127
2, 108985, Note_on_c, 0, 72, 127
2, 108985, Note_on_c, 4, 76, 127
2, 109206, Note_off_c, 0, 72, 127
2, 109209, Note_on_c, 6, 66, 127
2, 109430, Note_off_c, 6, 66, 127
2, 109430, Note_off_c, 4, 76, 127
2, 109433, Note_on_c, 12, 71, 127
2, 109433, Note_on_c, 2, 74, 127
2, 109654, Note_off_c, 12, 71, 127
2, 109658, Note_on_c, 10, 69, 127
2, 109879, Note_off_c, 10, 69, 127
2, 109882, Note_on_c, 8, 68, 127
2, 110103, Note_off_c, 8, 68, 127
2, 110106, Note_on_c, 4, 64, 127
2, 110327, Note_off_c, 4, 64, 127
2, 110327, Note_off_c, 2, 74, 127
2, 110330, Note_on_c, 10, 69, 127
2, 110330, Note_on_c, 0, 72, 127
2, 110776, Note_off_c, 0, 72, 127
2, 110780, Note_on_c, 12, 71, 127
2, 111226, Note_off_c, 12, 71, 127
2, 111227, Note_off_c, 10, 69, 127
2, 111230, Note_on_c, 7, 67, 127
2, 111230, Note_on_c, 4, 76, 127
2, 111676, Note_off_c, 4, 76, 127
2, 111680, Note_on_c, 10, 69, 127
2, 111826, Note_off_c, 7, 67, 127
2, 111830, Note_on_c, 5, 65, 127
2, 111976, Note_off_c, 5, 65, 127
2, 111979, Note_on_c, 4, 64, 127
2, 112125, Note_off_c, 4, 64, 127
2, 112125, Note_off_c, 10, 69, 127
2, 112129, Note_on_c, 2, 62, 127
2, 112129, Note_on_c, 12, 71, 127
2, 112275, Note_off_c, 2, 62, 127
2, 112278, Note_on_c, 4, 64, 127
2, 112424, Note_off_c, 4, 64, 127
2, 112428, Note_on_c, 5, 65, 127
2, 112574, Note_off_c, 5, 65, 127
2, 112574, Note_off_c, 12, 71, 127
2, 112577, Note_on_c, 4, 64, 127
2, 112577, Note_on_c, 0, 72, 127
2, 112723, Note_off_c, 4, 64, 127
2, 112727, Note_on_c, 2, 62, 127
2, 112873, Note_off_c, 2, 62, 127
2, 112876, Note_on_c, 0, 60, 127
2, 113022, Note_off_c, 0, 60, 127
2, 113022, Note_off_c, 0, 72, 127
2, 113026, Note_on_c, 12, 59, 127
2, 113026, Note_on_c, 8, 68, 127
2, 113172, Note_off_c, 12, 59, 127
2, 113175, Note_on_c, 0, 60, 127
2, 113321, Note_off_c, 0, 60, 127
2, 113325, Note_on_c, 2, 62, 127
2, 113471, Note_off_c, 2, 62, 127
2, 113471, Note_off_c, 8, 68, 127
2, 113474, Note_on_c, 0, 60, 127
2, 113474, Note_on_c, 10, 69, 127
2, 113620, Note_off_c, 10, 69, 127
2, 113624, Note_on_c, 7, 67, 127
2, 113770, Note_off_c, 7, 67, 127
2, 113773, Note_on_c, 5, 65, 127
2, 113919, Note_off_c, 5, 65, 127
2, 113919, Note_off_c, 0, 60, 127
2, 113923, Note_on_c, 1, 61, 127
2, 113923, Note_on_c, 4, 64, 127
2, 114069, Note_off_c, 4, 64, 127
2, 114072, Note_on_c, 5, 65, 127
2, 114218, Note_off_c, 5, 65, 127
2, 114222, Note_on_c, 7, 67, 127
2, 114368, Note_off_c, 7, 67, 127
2, 114368, Note_off_c, 1, 61, 127
2, 114371, Note_on_c, 2, 62, 127
2, 114371, Note_on_c, 5, 65, 127
2, 114517, Note_off_c, 5, 65, 127
2, 114521, Note_on_c, 4, 64, 127
2, 114665, Note_off_c, 2, 62, 127
2, 114668, Note_off_c, 4, 64, 127
2, 114671, Note_on_c, 2, 62, 127
2, 114817, Note_off_c, 2, 62, 127
2, 114821, Note_on_c, 7, 55, 127
2, 114821, Note_on_c, 1, 61, 127
2, 114967, Note_off_c, 1, 61, 127
2, 114970, Note_on_c, 2, 62, 127
2, 115116, Note_off_c, 2, 62, 127
2, 115120, Note_on_c, 4, 64, 127
2, 115266, Note_off_c, 4, 64, 127
2, 115266, Note_off_c, 7, 55, 127
2, 115269, Note_on_c, 2, 50, 127
2, 115269, Note_on_c, 5, 53, 127
2, 115269, Note_on_c, 2, 62, 127
2, 115415, Note_off_c, 2, 50, 127
2, 115419, Note_on_c, 4, 52, 127
2, 115563, Note_off_c, 5, 53, 127
2, 115566, Note_off_c, 4, 52, 127
2, 115570, Note_on_c, 5, 53, 127
2, 115715, Note_off_c, 2, 62, 127
2, 115716, Note_off_c, 5, 53, 127
2, 115720, Note_on_c, 7, 55, 127
2, 115720, Note_on_c, 11, 58, 127
2, 115720, Note_on_c, 1, 61, 127
2, 115866, Note_off_c, 7, 55, 127
2, 115869, Note_on_c, 5, 53, 127
2, 116015, Note_off_c, 5, 53, 127
2, 116019, Note_on_c, 4, 52, 127
2, 116165, Note_off_c, 4, 52, 127
2, 116165, Note_off_c, 1, 61, 127
2, 116165, Note_off_c, 11, 58, 127
2, 116168, Note_on_c, 5, 53, 127
2, 116168, Note_on_c, 10, 57, 127
2, 116168, Note_on_c, 2, 62, 127
2, 116314, Note_off_c, 5, 53, 127
2, 116318, Note_on_c, 7, 55, 127
2, 116462, Note_off_c, 10, 57, 127
2, 116465, Note_off_c, 7, 55, 127
2, 116468, Note_on_c, 10, 57, 127
2, 116614, Note_off_c, 10, 57, 127
2, 116614, Note_off_c, 2, 62, 127
2, 116618, Note_on_c, 11, 58, 127
2, 116618, Note_on_c, 2, 62, 127
2, 116618, Note_on_c, 7, 67, 127
2, 116764, Note_off_c, 11, 58, 127
2, 116767, Note_on_c, 10, 57, 127
2, 116913, Note_off_c, 10, 57, 127
2, 116917, Note_on_c, 7, 55, 127
2, 117063, Note_off_c, 7, 55, 127
2, 117063, Note_off_c, 2, 62, 127
2, 117066, Note_on_c, 10, 57, 127
2, 117066, Note_on_c, 1, 61, 127
2, 117287, Note_off_c, 7, 67, 127
2, 117291, Note_on_c, 4, 64, 127
2, 117511, Note_off_c, 1, 61, 127
2, 117511, Note_off_c, 10, 57, 127
2, 117512, Note_off_c, 4, 64, 127
2, 117515, Note_on_c, 2, 62, 127
2, 117515, Note_on_c, 5, 65, 127
2, 117736, Note_off_c, 5, 65, 127
2, 117739, Note_on_c, 7, 67, 127
2, 117960, Note_off_c, 7, 67, 127
2, 117960, Note_off_c, 2, 62, 127
2, 117964, Note_on_c, 1, 61, 127
2, 117964, Note_on_c, 4, 64, 127
2, 117964, Note_on_c, 10, 69, 127
2, 118185, Note_off_c, 10, 69, 127
2, 118188, Note_on_c, 12, 71, 127
2, 118409, Note_off_c, 12, 71, 127
2, 118409, Note_off_c, 1, 61, 127
2, 118412, Note_on_c, 0, 60, 127
2, 118412, Note_on_c, 0, 72, 127
2, 118633, Note_off_c, 0, 72, 127
2, 118636, Note_on_c, 10, 69, 127
2, 118857, Note_off_c, 10, 69, 127
2, 118857, Note_off_c, 0, 60, 127
2, 118858, Note_off_c, 4, 64, 127
2, 118861, Note_on_c, 12, 59, 127
2, 118861, Note_on_c, 2, 62, 127
2, 118861, Note_on_c, 2, 74, 127
2, 119082, Note_off_c, 2, 74, 127
2, 119085, Note_on_c, 1, 73, 127
2, 119306, Note_off_c, 1, 73, 127
2, 119306, Note_off_c, 12, 59, 127
2, 119309, Note_on_c, 11, 58, 127
2, 119309, Note_on_c, 2, 74, 127
2, 119530, Note_off_c, 2, 74, 127
2, 119533, Note_on_c, 4, 76, 127
2, 119748, Note_off_c, 2, 62, 127
2, 119754, Note_off_c, 4, 76, 127
2, 119754, Note_off_c, 11, 58, 127
2, 119758, Note_on_c, 10, 57, 127
2, 119758, Note_on_c, 5, 77, 127
2, 119982, Note_on_c, 12, 71, 127
2, 120201, Note_off_c, 5, 77, 127
2, 120204, Note_off_c, 10, 57, 127
2, 120207, Note_on_c, 7, 55, 127
2, 120207, Note_on_c, 4, 76, 127
2, 120428, Note_off_c, 4, 76, 127
2, 120431, Note_on_c, 2, 74, 127
2, 120651, Note_off_c, 12, 71, 127
2, 120653, Note_off_c, 2, 74, 127
2, 120658, Note_on_c, 1, 73, 127
2, 120882, Note_on_c, 10, 69, 127
2, 121101, Note_off_c, 1, 73, 127
2, 121104, Note_off_c, 10, 69, 127
2, 121104, Note_off_c, 7, 55, 127
2, 121107, Note_on_c, 5, 53, 127
2, 121107, Note_on_c, 11, 70, 127
2, 121107, Note_on_c, 2, 74, 127
2, 121328, Note_off_c, 11, 70, 127
2, 121331, Note_on_c, 10, 69, 127
2, 121552, Note_off_c, 10, 69, 127
2, 121552, Note_off_c, 5, 53, 127
2, 121556, Note_on_c, 4, 52, 127
2, 121556, Note_on_c, 7, 67, 127
2, 121777, Note_off_c, 7, 67, 127
2, 121780, Note_on_c, 11, 70, 127
2, 122001, Note_off_c, 11, 70, 127
2, 122001, Note_off_c, 4, 52, 127
2, 122001, Note_off_c, 2, 74, 127
2, 122004, Note_on_c, 10, 57, 127
2, 122004, Note_on_c, 10, 69, 127
2, 122004, Note_on_c, 0, 72, 127
2, 122225, Note_off_c, 10, 69, 127
2, 122229, Note_on_c, 7, 67, 127
2, 122449, Note_off_c, 10, 57, 127
2, 122450, Note_off_c, 7, 67, 127
2, 122453, Note_on_c, 2, 50, 127
2, 122453, Note_on_c, 6, 66, 127
2, 122674, Note_off_c, 6, 66, 127
2, 122674, Note_off_c, 2, 50, 127
2, 122677, Note_on_c, 2, 62, 127
2, 122898, Note_off_c, 2, 62, 127
2, 122898, Note_off_c, 0, 72, 127
2, 122901, Note_on_c, 3, 63, 127
2, 122901, Note_on_c, 7, 67, 127
2, 122901, Note_on_c, 11, 70, 127
2, 123122, Note_off_c, 3, 63, 127
2, 123126, Note_on_c, 2, 62, 127
2, 123346, Note_off_c, 11, 70, 127
2, 123347, Note_off_c, 2, 62, 127
2, 123350, Note_on_c, 0, 60, 127
2, 123350, Note_on_c, 10, 69, 127
2, 123571, Note_off_c, 0, 60, 127
2, 123574, Note_on_c, 3, 63, 127
2, 123795, Note_off_c, 3, 63, 127
2, 123795, Note_off_c, 7, 67, 127
2, 123798, Note_on_c, 2, 62, 127
2, 123798, Note_on_c, 5, 65, 127
2, 124019, Note_off_c, 2, 62, 127
2, 124023, Note_on_c, 0, 60, 127
2, 124244, Note_off_c, 0, 60, 127
2, 124244, Note_off_c, 10, 69, 127
2, 124247, Note_on_c, 12, 59, 127
2, 124247, Note_on_c, 7, 67, 127
2, 124468, Note_off_c, 7, 67, 127
2, 124468, Note_off_c, 12, 59, 127
2, 124471, Note_on_c, 7, 55, 127
2, 124471, Note_on_c, 7, 79, 127
2, 124692, Note_off_c, 7, 79, 127
2, 124692, Note_off_c, 7, 55, 127
2, 124692, Note_off_c, 5, 65, 127
2, 124696, Note_on_c, 0, 60, 127
2, 124696, Note_on_c, 4, 64, 127
2, 124696, Note_on_c, 10, 81, 127
2, 124917, Note_off_c, 10, 81, 127
2, 124920, Note_on_c, 7, 79, 127
2, 125141, Note_off_c, 7, 79, 127
2, 125141, Note_off_c, 4, 64, 127
2, 125144, Note_on_c, 2, 62, 127
2, 125144, Note_on_c, 5, 77, 127
2, 125365, Note_off_c, 5, 77, 127
2, 125368, Note_on_c, 10, 81, 127
2, 125589, Note_off_c, 10, 81, 127
2, 125590, Note_off_c, 0, 60, 127
2, 125593, Note_on_c, 11, 58, 127
2, 125593, Note_on_c, 7, 79, 127
2, 125814, Note_off_c, 7, 79, 127
2, 125817, Note_on_c, 5, 77, 127
2, 126031, Note_off_c, 2, 62, 127
2, 126038, Note_off_c, 5, 77, 127
2, 126041, Note_on_c, 0, 60, 127
2, 126041, Note_on_c, 4, 76, 127
2, 126262, Note_off_c, 4, 76, 127
2, 126265, Note_on_c, 0, 72, 127
2, 126484, Note_off_c, 0, 60, 127
2, 126487, Note_off_c, 0, 72, 127
2, 126488, Note_off_c, 11, 58, 127
2, 126492, Note_on_c, 10, 57, 127
2, 126492, Note_on_c, 2, 74, 127
2, 126492, Note_on_c, 5, 77, 127
2, 126713, Note_off_c, 2, 74, 127
2, 126716, Note_on_c, 0, 72, 127
2, 126937, Note_off_c, 0, 72, 127
2, 126937, Note_off_c, 10, 57, 127
2, 126940, Note_on_c, 7, 55, 127
2, 126940, Note_on_c, 11, 70, 127
2, 127161, Note_off_c, 11, 70, 127
2, 127164, Note_on_c, 2, 74, 127
2, 127385, Note_off_c, 2, 74, 127
2, 127385, Note_off_c, 7, 55, 127
2, 127386, Note_off_c, 5, 77, 127
2, 127389, Note_on_c, 0, 60, 127
2, 127389, Note_on_c, 0, 72, 127
2, 127389, Note_on_c, 4, 76, 127
2, 127610, Note_off_c, 0, 72, 127
2, 127613, Note_on_c, 11, 70, 127
2, 127834, Note_off_c, 11, 70, 127
2, 127834, Note_off_c, 0, 60, 127
2, 127837, Note_on_c, 5, 53, 127
2, 127837, Note_on_c, 10, 69, 127
2, 127983, Note_off_c, 5, 53, 127
2, 127987, Note_on_c, 7, 55, 127
2, 128058, Note_off_c, 4, 76, 127
2, 128062, Note_on_c, 5, 77, 127
2, 128133, Note_off_c, 7, 55, 127
2, 128136, Note_on_c, 10, 57, 127
2, 128282, Note_off_c, 10, 57, 127
2, 128282, Note_off_c, 10, 69, 127
2, 128286, Note_on_c, 11, 58, 127
2, 128286, Note_on_c, 7, 67, 127
2, 128432, Note_off_c, 11, 58, 127
2, 128435, Note_on_c, 10, 57, 127
2, 128507, Note_off_c, 5, 77, 127
2, 128510, Note_on_c, 4, 76, 127
2, 128581, Note_off_c, 10, 57, 127
2, 128585, Note_on_c, 7, 55, 127
2, 128731, Note_off_c, 7, 55, 127
2, 128731, Note_off_c, 7, 67, 127
2, 128734, Note_on_c, 10, 57, 127
2, 128734, Note_on_c, 5, 65, 127
2, 128955, Note_off_c, 4, 76, 127
2, 128959, Note_on_c, 2, 74, 127
2, 129179, Note_off_c, 5, 65, 127
2, 129179, Note_off_c, 10, 57, 127
2, 129183, Note_on_c, 10, 45, 127
2, 129183, Note_on_c, 4, 64, 127
2, 129404, Note_off_c, 2, 74, 127
2, 129407, Note_on_c, 1, 73, 127
2, 129628, Note_off_c, 1, 73, 127
2, 129628, Note_off_c, 4, 64, 127
2, 129628, Note_off_c, 10, 45, 127
2, 129631, Note_on_c, 2, 50, 127
2, 129631, Note_on_c, 5, 65, 127
2, 129631, Note_on_c, 2, 74, 127
2, 129777, Note_off_c, 2, 50, 127
2, 129781, Note_on_c, 4, 52, 127
2, 129927, Note_off_c, 4, 52, 127
2, 129930, Note_on_c, 5, 53, 127
2, 130076, Note_off_c, 5, 53, 127
2, 130076, Note_off_c, 2, 74, 127
2, 130076, Note_off_c, 5, 65, 127
2, 130080, Note_on_c, 7, 55, 127
2, 130080, Note_on_c, 1, 61, 127
2, 130080, Note_on_c, 11, 70, 127
2, 130226, Note_off_c, 7, 55, 127
2, 130230, Note_on_c, 5, 53, 127
2, 130376, Note_off_c, 5, 53, 127
2, 130379, Note_on_c, 4, 52, 127
2, 130525, Note_off_c, 4, 52, 127
2, 130525, Note_off_c, 11, 70, 127
2, 130525, Note_off_c, 1, 61, 127
2, 130529, Note_on_c, 5, 53, 127
2, 130529, Note_on_c, 2, 62, 127
2, 130529, Note_on_c, 10, 69, 127
2, 130675, Note_off_c, 10, 69, 127
2, 130675, Note_off_c, 5, 53, 127
2, 130678, Note_on_c, 7, 55, 127
2, 130678, Note_on_c, 7, 67, 127
2, 130824, Note_off_c, 7, 67, 127
2, 130824, Note_off_c, 7, 55, 127
2, 130828, Note_on_c, 10, 57, 127
2, 130828, Note_on_c, 5, 65, 127
2, 130974, Note_off_c, 5, 65, 127
2, 130974, Note_off_c, 10, 57, 127
2, 130977, Note_on_c, 11, 58, 127
2, 130977, Note_on_c, 4, 64, 127
2, 131123, Note_off_c, 4, 64, 127
2, 131123, Note_off_c, 11, 58, 127
2, 131127, Note_on_c, 10, 57, 127
2, 131127, Note_on_c, 5, 65, 127
2, 131273, Note_off_c, 5, 65, 127
2, 131273, Note_off_c, 10, 57, 127
2, 131276, Note_on_c, 7, 55, 127
2, 131276, Note_on_c, 7, 67, 127
2, 131422, Note_off_c, 7, 67, 127
2, 131422, Note_off_c, 7, 55, 127
2, 131426, Note_on_c, 10, 57, 127
2, 131426, Note_on_c, 5, 65, 127
2, 131572, Note_off_c, 5, 65, 127
2, 131575, Note_on_c, 4, 64, 127
2, 131705, Note_off_c, 2, 62, 127
2, 131721, Note_off_c, 4, 64, 127
2, 131725, Note_on_c, 2, 62, 127
2, 131871, Note_off_c, 2, 62, 127
2, 131871, Note_off_c, 10, 57, 127
2, 131874, Note_on_c, 7, 55, 127
2, 131874, Note_on_c, 11, 58, 127
2, 131874, Note_on_c, 1, 61, 127
2, 132020, Note_off_c, 1, 61, 127
2, 132024, Note_on_c, 2, 62, 127
2, 132170, Note_off_c, 2, 62, 127
2, 132173, Note_on_c, 4, 64, 127
2, 132319, Note_off_c, 4, 64, 127
2, 132319, Note_off_c, 11, 58, 127
2, 132319, Note_off_c, 7, 55, 127
2, 132323, Note_on_c, 5, 53, 127
2, 132323, Note_on_c, 10, 57, 127
2, 132323, Note_on_c, 2, 62, 127
2, 132469, Note_off_c, 2, 62, 127
2, 132469, Note_off_c, 5, 53, 127
2, 132472, Note_on_c, 4, 52, 127
2, 132472, Note_on_c, 4, 64, 127
2, 132618, Note_off_c, 4, 64, 127
2, 132618, Note_off_c, 4, 52, 127
2, 132622, Note_on_c, 2, 50, 127
2, 132622, Note_on_c, 5, 65, 127
2, 132768, Note_off_c, 5, 65, 127
2, 132768, Note_off_c, 2, 50, 127
2, 132771, Note_on_c, 1, 49, 127
2, 132771, Note_on_c, 7, 67, 127
2, 132917, Note_off_c, 7, 67, 127
2, 132917, Note_off_c, 1, 49, 127
2, 132921, Note_on_c, 2, 50, 127
2, 132921, Note_on_c, 5, 65, 127
2, 133067, Note_off_c, 5, 65, 127
2, 133067, Note_off_c, 2, 50, 127
2, 133070, Note_on_c, 4, 52, 127
2, 133070, Note_on_c, 4, 64, 127
2, 133216, Note_off_c, 4, 64, 127
2, 133216, Note_off_c, 4, 52, 127
2, 133220, Note_on_c, 2, 50, 127
2, 133220, Note_on_c, 5, 65, 127
2, 133366, Note_off_c, 5, 65, 127
2, 133366, Note_off_c, 10, 57, 127
2, 133369, Note_on_c, 7, 55, 127
2, 133369, Note_on_c, 7, 67, 127
2, 133515, Note_off_c, 7, 67, 127
2, 133515, Note_off_c, 7, 55, 127
2, 133519, Note_on_c, 5, 53, 127
2, 133519, Note_on_c, 10, 69, 127
2, 133665, Note_off_c, 10, 69, 127
2, 133665, Note_off_c, 5, 53, 127
2, 133668, Note_on_c, 4, 52, 127
2, 133668, Note_on_c, 11, 70, 127
2, 133814, Note_off_c, 11, 70, 127
2, 133814, Note_off_c, 4, 52, 127
2, 133818, Note_on_c, 5, 53, 127
2, 133818, Note_on_c, 10, 69, 127
2, 133964, Note_off_c, 10, 69, 127
2, 133964, Note_off_c, 5, 53, 127
2, 133967, Note_on_c, 7, 55, 127
2, 133967, Note_on_c, 7, 67, 127
2, 134113, Note_off_c, 7, 67, 127
2, 134113, Note_off_c, 7, 55, 127
2, 134117, Note_on_c, 5, 53, 127
2, 134117, Note_on_c, 10, 69, 127
2, 134338, Note_off_c, 2, 50, 127
2, 134341, Note_on_c, 0, 48, 127
2, 134562, Note_off_c, 0, 48, 127
2, 134562, Note_off_c, 10, 69, 127
2, 134565, Note_on_c, 11, 46, 127
2, 134565, Note_on_c, 2, 74, 127
2, 134786, Note_off_c, 5, 53, 127
2, 134790, Note_on_c, 7, 55, 127
2, 135010, Note_off_c, 2, 74, 127
2, 135010, Note_off_c, 11, 46, 127
2, 135014, Note_on_c, 10, 45, 127
2, 135014, Note_on_c, 1, 73, 127
2, 135235, Note_off_c, 7, 55, 127
2, 135238, Note_on_c, 7, 55, 127
2, 135459, Note_off_c, 7, 55, 127
2, 135459, Note_off_c, 1, 73, 127
2, 135463, Note_on_c, 6, 54, 127
2, 135463, Note_on_c, 0, 72, 127
2, 135683, Note_off_c, 10, 45, 127
2, 135687, Note_on_c, 2, 50, 127
2, 135906, Note_off_c, 6, 54, 127
2, 135909, Note_off_c, 2, 50, 127
2, 135909, Note_off_c, 0, 72, 127
2, 135912, Note_on_c, 7, 43, 127
2, 135912, Note_on_c, 12, 71, 127
2, 136136, Note_on_c, 5, 53, 127
2, 136357, Note_off_c, 5, 53, 127
2, 136357, Note_off_c, 12, 71, 127
2, 136361, Note_on_c, 4, 52, 127
2, 136361, Note_on_c, 11, 70, 127
2, 136581, Note_off_c, 7, 43, 127
2, 136585, Note_on_c, 0, 48, 127
2, 136804, Note_off_c, 4, 52, 127
2, 136807, Note_off_c, 0, 48, 127
2, 136807, Note_off_c, 11, 70, 127
2, 136810, Note_on_c, 5, 41, 127
2, 136810, Note_on_c, 10, 69, 127
2, 137034, Note_on_c, 3, 51, 127
2, 137255, Note_off_c, 3, 51, 127
2, 137255, Note_off_c, 10, 69, 127
2, 137259, Note_on_c, 2, 50, 127
2, 137259, Note_on_c, 10, 81, 127
2, 137479, Note_off_c, 5, 41, 127
2, 137483, Note_on_c, 11, 46, 127
2, 137702, Note_off_c, 2, 50, 127
2, 137705, Note_off_c, 11, 46, 127
2, 137705, Note_off_c, 10, 81, 127
2, 137709, Note_on_c, 4, 40, 127
2, 137709, Note_on_c, 8, 80, 127
2, 137933, Note_on_c, 2, 50, 127
2, 138154, Note_off_c, 2, 50, 127
2, 138154, Note_off_c, 8, 80, 127
2, 138158, Note_on_c, 1, 49, 127
2, 138158, Note_on_c, 7, 79, 127
2, 138378, Note_off_c, 4, 40, 127
2, 138382, Note_on_c, 10, 45, 127
2, 138603, Note_off_c, 10, 45, 127
2, 138603, Note_off_c, 7, 79, 127
2, 138603, Note_off_c, 1, 49, 127
2, 138606, Note_on_c, 2, 38, 127
2, 138606, Note_on_c, 2, 50, 127
2, 138606, Note_on_c, 6, 78, 127
2, 138827, Note_off_c, 2, 50, 127
2, 138830, Note_on_c, 10, 69, 127
2, 139051, Note_off_c, 10, 69, 127
2, 139051, Note_off_c, 6, 78, 127
2, 139051, Note_off_c, 2, 38, 127
2, 139055, Note_on_c, 2, 50, 127
2, 139055, Note_on_c, 11, 70, 127
2, 139055, Note_on_c, 5, 77, 127
2, 139276, Note_off_c, 11, 70, 127
2, 139279, Note_on_c, 10, 69, 127
2, 139500, Note_off_c, 10, 69, 127
2, 139500, Note_off_c, 5, 77, 127
2, 139503, Note_on_c, 7, 67, 127
2, 139503, Note_on_c, 4, 76, 127
2, 139724, Note_off_c, 7, 67, 127
2, 139728, Note_on_c, 11, 70, 127
2, 139949, Note_off_c, 11, 70, 127
2, 139949, Note_off_c, 2, 50, 127
2, 139952, Note_on_c, 1, 49, 127
2, 139952, Note_on_c, 10, 69, 127
2, 140173, Note_off_c, 10, 69, 127
2, 140176, Note_on_c, 7, 67, 127
2, 140397, Note_off_c, 7, 67, 127
2, 140397, Note_off_c, 1, 49, 127
2, 140400, Note_on_c, 2, 50, 127
2, 140400, Note_on_c, 5, 65, 127
2, 140621, Note_off_c, 2, 50, 127
2, 140625, Note_on_c, 10, 57, 127
2, 140845, Note_off_c, 4, 76, 127
2, 140846, Note_off_c, 10, 57, 127
2, 140849, Note_on_c, 11, 58, 127
2, 140849, Note_on_c, 2, 74, 127
2, 141070, Note_off_c, 11, 58, 127
2, 141073, Note_on_c, 10, 57, 127
2, 141294, Note_off_c, 10, 57, 127
2, 141294, Note_off_c, 5, 65, 127
2, 141297, Note_on_c, 7, 55, 127
2, 141297, Note_on_c, 4, 64, 127
2, 141518, Note_off_c, 7, 55, 127
2, 141522, Note_on_c, 11, 58, 127
2, 141743, Note_off_c, 11, 58, 127
2, 141743, Note_off_c, 2, 74, 127
2, 141746, Note_on_c, 10, 57, 127
2, 141746, Note_on_c, 1, 73, 127
2, 141967, Note_off_c, 10, 57, 127
2, 141970, Note_on_c, 7, 55, 127
2, 142189, Note_off_c, 1, 73, 127
2, 142192, Note_off_c, 7, 55, 127
2, 142196, Note_on_c, 5, 53, 127
2, 142420, Note_on_c, 10, 81, 127
2, 142640, Note_off_c, 4, 64, 127
2, 142641, Note_off_c, 10, 81, 127
2, 142644, Note_on_c, 2, 62, 127
2, 142644, Note_on_c, 11, 82, 127
2, 142865, Note_off_c, 11, 82, 127
2, 142868, Note_on_c, 10, 81, 127
2, 143089, Note_off_c, 10, 81, 127
2, 143090, Note_off_c, 5, 53, 127
2, 143093, Note_on_c, 4, 52, 127
2, 143093, Note_on_c, 7, 79, 127
2, 143314, Note_off_c, 7, 79, 127
2, 143317, Note_on_c, 11, 82, 127
2, 143538, Note_off_c, 11, 82, 127
2, 143538, Note_off_c, 2, 62, 127
2, 143541, Note_on_c, 1, 61, 127
2, 143541, Note_on_c, 10, 81, 127
2, 143762, Note_off_c, 10, 81, 127
2, 143765, Note_on_c, 7, 79, 127
2, 143986, Note_off_c, 7, 79, 127
2, 143986, Note_off_c, 1, 61, 127
2, 143987, Note_off_c, 4, 52, 127
2, 143990, Note_on_c, 2, 50, 127
2, 143990, Note_on_c, 2, 62, 127
2, 143990, Note_on_c, 5, 77, 127
2, 144136, Note_off_c, 5, 77, 127
2, 144136, Note_off_c, 2, 62, 127
2, 144139, Note_on_c, 4, 64, 127
2, 144139, Note_on_c, 4, 76, 127
2, 144285, Note_off_c, 4, 76, 127
2, 144285, Note_off_c, 4, 64, 127
2, 144289, Note_on_c, 5, 65, 127
2, 144289, Note_on_c, 2, 74, 127
2, 144433, Note_off_c, 2, 50, 127
2, 144436, Note_off_c, 2, 74, 127
2, 144436, Note_off_c, 5, 65, 127
2, 144440, Note_on_c, 7, 67, 127
2, 144440, Note_on_c, 1, 73, 127
2, 144586, Note_off_c, 1, 73, 127
2, 144586, Note_off_c, 7, 67, 127
2, 144590, Note_on_c, 5, 65, 127
2, 144590, Note_on_c, 2, 74, 127
2, 144736, Note_off_c, 2, 74, 127
2, 144736, Note_off_c, 5, 65, 127
2, 144739, Note_on_c, 4, 64, 127
2, 144739, Note_on_c, 4, 76, 127
2, 144885, Note_off_c, 4, 76, 127
2, 144885, Note_off_c, 4, 64, 127
2, 144889, Note_on_c, 5, 65, 127
2, 144889, Note_on_c, 10, 69, 127
2, 145035, Note_off_c, 10, 69, 127
2, 145035, Note_off_c, 5, 65, 127
2, 145038, Note_on_c, 7, 67, 127
2, 145038, Note_on_c, 12, 71, 127
2, 145184, Note_off_c, 12, 71, 127
2, 145184, Note_off_c, 7, 67, 127
2, 145188, Note_on_c, 10, 69, 127
2, 145188, Note_on_c, 1, 73, 127
2, 145334, Note_off_c, 1, 73, 127
2, 145334, Note_off_c, 10, 69, 127
2, 145337, Note_on_c, 11, 70, 127
2, 145337, Note_on_c, 2, 74, 127
2, 145483, Note_off_c, 2, 74, 127
2, 145483, Note_off_c, 11, 70, 127
2, 145487, Note_on_c, 10, 69, 127
2, 145487, Note_on_c, 1, 73, 127
2, 145633, Note_off_c, 1, 73, 127
2, 145633, Note_off_c, 10, 69, 127
2, 145636, Note_on_c, 7, 67, 127
2, 145636, Note_on_c, 12, 71, 127
2, 145782, Note_off_c, 12, 71, 127
2, 145782, Note_off_c, 7, 67, 127
2, 145786, Note_on_c, 10, 69, 127
2, 145786, Note_on_c, 1, 73, 127
2, 145932, Note_off_c, 1, 73, 127
2, 145935, Note_on_c, 2, 74, 127
2, 146081, Note_off_c, 2, 74, 127
2, 146085, Note_on_c, 4, 76, 127
2, 146231, Note_off_c, 4, 76, 127
2, 146231, Note_off_c, 10, 69, 127
2, 146234, Note_on_c, 2, 74, 127
2, 146234, Note_on_c, 5, 77, 127
2, 146380, Note_off_c, 5, 77, 127
2, 146384, Note_on_c, 4, 76, 127
2, 146528, Note_off_c, 2, 74, 127
2, 146531, Note_off_c, 4, 76, 127
2, 146534, Note_on_c, 2, 74, 127
2, 146680, Note_off_c, 2, 74, 127
2, 146684, Note_on_c, 1, 73, 127
2, 146684, Note_on_c, 4, 76, 127
2, 146908, Note_on_c, 12, 47, 127
2, 147129, Note_off_c, 12, 47, 127
2, 147129, Note_off_c, 4, 76, 127
2, 147129, Note_off_c, 1, 73, 127
2, 147132, Note_on_c, 0, 48, 127
2, 147132, Note_on_c, 0, 72, 127
2, 147132, Note_on_c, 10, 81, 127
2, 147353, Note_off_c, 0, 48, 127
2, 147357, Note_on_c, 2, 50, 127
2, 147577, Note_off_c, 10, 81, 127
2, 147577, Note_off_c, 0, 72, 127
2, 147578, Note_off_c, 2, 50, 127
2, 147581, Note_on_c, 4, 52, 127
2, 147581, Note_on_c, 12, 71, 127
2, 147581, Note_on_c, 8, 80, 127
2, 147802, Note_off_c, 4, 52, 127
2, 147805, Note_on_c, 6, 54, 127
2, 148026, Note_off_c, 6, 54, 127
2, 148026, Note_off_c, 8, 80, 127
2, 148026, Note_off_c, 12, 71, 127
2, 148030, Note_on_c, 7, 55, 127
2, 148030, Note_on_c, 11, 70, 127
2, 148030, Note_on_c, 7, 79, 127
2, 148251, Note_off_c, 7, 55, 127
2, 148254, Note_on_c, 4, 52, 127
2, 148475, Note_off_c, 4, 52, 127
2, 148475, Note_off_c, 7, 79, 127
2, 148475, Note_off_c, 11, 70, 127
2, 148478, Note_on_c, 10, 57, 127
2, 148478, Note_on_c, 10, 69, 127
2, 148478, Note_on_c, 6, 78, 127
2, 148699, Note_off_c, 10, 57, 127
2, 148702, Note_on_c, 8, 56, 127
2, 148923, Note_off_c, 8, 56, 127
2, 148923, Note_off_c, 6, 78, 127
2, 148927, Note_on_c, 10, 57, 127
2, 148927, Note_on_c, 5, 77, 127
2, 149148, Note_off_c, 10, 57, 127
2, 149151, Note_on_c, 12, 59, 127
2, 149372, Note_off_c, 12, 59, 127
2, 149372, Note_off_c, 5, 77, 127
2, 149375, Note_on_c, 0, 60, 127
2, 149375, Note_on_c, 4, 76, 127
2, 149596, Note_off_c, 0, 60, 127
2, 149599, Note_on_c, 6, 54, 127
2, 149820, Note_off_c, 6, 54, 127
2, 149820, Note_off_c, 4, 76, 127
2, 149820, Note_off_c, 10, 69, 127
2, 149824, Note_on_c, 12, 59, 127
2, 149824, Note_on_c, 2, 74, 127
2, 150045, Note_off_c, 12, 59, 127
2, 150048, Note_on_c, 10, 57, 127
2, 150048, Note_on_c, 5, 65, 127
2, 150269, Note_off_c, 5, 65, 127
2, 150269, Note_off_c, 10, 57, 127
2, 150272, Note_on_c, 8, 56, 127
2, 150272, Note_on_c, 4, 64, 127
2, 150493, Note_off_c, 8, 56, 127
2, 150497, Note_on_c, 4, 52, 127
2, 150718, Note_off_c, 4, 52, 127
2, 150718, Note_off_c, 2, 74, 127
2, 150721, Note_on_c, 10, 57, 127
2, 150721, Note_on_c, 0, 72, 127
2, 150941, Note_off_c, 4, 64, 127
2, 150945, Note_on_c, 4, 64, 127
2, 151166, Note_off_c, 4, 64, 127
2, 151166, Note_off_c, 0, 72, 127
2, 151169, Note_on_c, 2, 62, 127
2, 151169, Note_on_c, 12, 71, 127
2, 151390, Note_off_c, 10, 57, 127
2, 151394, Note_on_c, 2, 50, 127
2, 151614, Note_off_c, 12, 71, 127
2, 151615, Note_off_c, 2, 50, 127
2, 151618, Note_on_c, 7, 55, 127
2, 151618, Note_on_c, 11, 70, 127
2, 151838, Note_off_c, 2, 62, 127
2, 151839, Note_off_c, 7, 55, 127
2, 151842, Note_on_c, 5, 53, 127
2, 151842, Note_on_c, 2, 62, 127
2, 152063, Note_off_c, 2, 62, 127
2, 152063, Note_off_c, 5, 53, 127
2, 152066, Note_on_c, 4, 52, 127
2, 152066, Note_on_c, 0, 60, 127
2, 152287, Note_off_c, 4, 52, 127
2, 152291, Note_on_c, 0, 48, 127
2, 152512, Note_off_c, 0, 48, 127
2, 152512, Note_off_c, 11, 70, 127
2, 152515, Note_on_c, 5, 53, 127
2, 152515, Note_on_c, 10, 69, 127
2, 152735, Note_off_c, 0, 60, 127
2, 152739, Note_on_c, 0, 60, 127
2, 152960, Note_off_c, 0, 60, 127
2, 152960, Note_off_c, 10, 69, 127
2, 152964, Note_on_c, 12, 59, 127
2, 152964, Note_on_c, 8, 68, 127
2, 153184, Note_off_c, 5, 53, 127
2, 153188, Note_on_c, 12, 47, 127
2, 153409, Note_off_c, 12, 47, 127
2, 153409, Note_off_c, 8, 68, 127
2, 153412, Note_on_c, 4, 52, 127
2, 153412, Note_on_c, 7, 67, 127
2, 153633, Note_off_c, 4, 52, 127
2, 153633, Note_off_c, 12, 59, 127
2, 153636, Note_on_c, 2, 50, 127
2, 153636, Note_on_c, 11, 58, 127
2, 153857, Note_off_c, 11, 58, 127
2, 153857, Note_off_c, 2, 50, 127
2, 153861, Note_on_c, 1, 49, 127
2, 153861, Note_on_c, 10, 57, 127
2, 154082, Note_off_c, 1, 49, 127
2, 154085, Note_on_c, 10, 45, 127
2, 154306, Note_off_c, 10, 45, 127
2, 154306, Note_off_c, 7, 67, 127
2, 154309, Note_on_c, 2, 50, 127
2, 154309, Note_on_c, 5, 65, 127
2, 154755, Note_off_c, 5, 65, 127
2, 154756, Note_off_c, 10, 57, 127
2, 154759, Note_on_c, 4, 64, 127
2, 154759, Note_on_c, 10, 69, 127
2, 154908, Note_on_c, 7, 67, 127
2, 154910, Note_off_c, 10, 69, 127
2, 155058, Note_on_c, 5, 65, 127
2, 155059, Note_off_c, 7, 67, 127
2, 155202, Note_off_c, 4, 64, 127
2, 155205, Note_off_c, 5, 65, 127
2, 155206, Note_off_c, 2, 50, 127
2, 155209, Note_on_c, 1, 49, 127
2, 155209, Note_on_c, 4, 64, 127
2, 155359, Note_on_c, 5, 65, 127
2, 155505, Note_off_c, 5, 65, 127
2, 155505, Note_off_c, 4, 64, 127
2, 155508, Note_on_c, 7, 67, 127
2, 155654, Note_off_c, 7, 67, 127
2, 155654, Note_off_c, 1, 49, 127
2, 155658, Note_on_c, 2, 50, 127
2, 155658, Note_on_c, 5, 65, 127
2, 155804, Note_off_c, 5, 65, 127
2, 155804, Note_off_c, 2, 50, 127
2, 155807, Note_on_c, 0, 48, 127
2, 155807, Note_on_c, 4, 64, 127
2, 155953, Note_off_c, 4, 64, 127
2, 155953, Note_off_c, 0, 48, 127
2, 155957, Note_on_c, 11, 46, 127
2, 155957, Note_on_c, 2, 62, 127
2, 156103, Note_off_c, 2, 62, 127
2, 156103, Note_off_c, 11, 46, 127
2, 156106, Note_on_c, 10, 45, 127
2, 156106, Note_on_c, 1, 61, 127
2, 156252, Note_off_c, 1, 61, 127
2, 156252, Note_off_c, 10, 45, 127
2, 156256, Note_on_c, 11, 46, 127
2, 156256, Note_on_c, 2, 62, 127
2, 156402, Note_off_c, 2, 62, 127
2, 156402, Note_off_c, 11, 46, 127
2, 156405, Note_on_c, 0, 48, 127
2, 156405, Note_on_c, 4, 64, 127
2, 156551, Note_off_c, 4, 64, 127
2, 156551, Note_off_c, 0, 48, 127
2, 156555, Note_on_c, 11, 46, 127
2, 156555, Note_on_c, 2, 62, 127
2, 156701, Note_off_c, 11, 46, 127
2, 156704, Note_on_c, 10, 45, 127
2, 156850, Note_off_c, 10, 45, 127
2, 156854, Note_on_c, 7, 43, 127
2, 157000, Note_off_c, 7, 43, 127
2, 157003, Note_on_c, 6, 42, 127
2, 157003, Note_on_c, 10, 57, 127
2, 157149, Note_off_c, 6, 42, 127
2, 157153, Note_on_c, 7, 43, 127
2, 157299, Note_off_c, 7, 43, 127
2, 157302, Note_on_c, 10, 45, 127
2, 157448, Note_off_c, 10, 45, 127
2, 157448, Note_off_c, 10, 57, 127
2, 157452, Note_on_c, 7, 43, 127
2, 157452, Note_on_c, 11, 58, 127
2, 157598, Note_off_c, 2, 62, 127
2, 157601, Note_on_c, 2, 62, 127
2, 157747, Note_off_c, 2, 62, 127
2, 157751, Note_on_c, 4, 64, 127
2, 157897, Note_off_c, 4, 64, 127
2, 157897, Note_off_c, 11, 58, 127
2, 157897, Note_off_c, 7, 43, 127
2, 157900, Note_on_c, 2, 38, 127
2, 157900, Note_on_c, 12, 59, 127
2, 157900, Note_on_c, 5, 65, 127
2, 158046, Note_off_c, 5, 65, 127
2, 158050, Note_on_c, 4, 64, 127
2, 158196, Note_off_c, 4, 64, 127
2, 158199, Note_on_c, 2, 62, 127
2, 158345, Note_off_c, 12, 59, 127
2, 158345, Note_off_c, 2, 38, 127
2, 158349, Note_on_c, 3, 39, 127
2, 158349, Note_on_c, 0, 60, 127
2, 158350, Note_off_c, 2, 62, 127
2, 158498, Note_on_c, 11, 70, 127
2, 158644, Note_off_c, 11, 70, 127
2, 158648, Note_on_c, 10, 69, 127
2, 158794, Note_off_c, 10, 69, 127
2, 158794, Note_off_c, 0, 60, 127
2, 158794, Note_off_c, 3, 39, 127
2, 158797, Note_on_c, 4, 40, 127
2, 158797, Note_on_c, 1, 61, 127
2, 158797, Note_on_c, 7, 67, 127
2, 158943, Note_off_c, 7, 67, 127
2, 158947, Note_on_c, 10, 69, 127
2, 159093, Note_off_c, 10, 69, 127
2, 159097, Note_on_c, 11, 70, 127
2, 159242, Note_off_c, 1, 61, 127
2, 159242, Note_off_c, 4, 40, 127
2, 159246, Note_on_c, 5, 41, 127
2, 159246, Note_on_c, 2, 62, 127
2, 159248, Note_off_c, 11, 70, 127
2, 159396, Note_on_c, 10, 69, 127
2, 159542, Note_off_c, 10, 69, 127
2, 159545, Note_on_c, 11, 70, 127
2, 159691, Note_off_c, 11, 70, 127
2, 159691, Note_off_c, 5, 41, 127
2, 159695, Note_on_c, 6, 42, 127
2, 159695, Note_on_c, 0, 72, 127
2, 159841, Note_off_c, 0, 72, 127
2, 159844, Note_on_c, 11, 70, 127
2, 159990, Note_off_c, 11, 70, 127
2, 159994, Note_on_c, 10, 69, 127
2, 160140, Note_off_c, 10, 69, 127
2, 160140, Note_off_c, 6, 42, 127
2, 160143, Note_on_c, 7, 43, 127
2, 160143, Note_on_c, 11, 70, 127
2, 160289, Note_off_c, 7, 43, 127
2, 160293, Note_on_c, 10, 45, 127
2, 160439, Note_off_c, 10, 45, 127
2, 160442, Note_on_c, 11, 46, 127
2, 160588, Note_off_c, 11, 46, 127
2, 160588, Note_off_c, 11, 70, 127
2, 160592, Note_on_c, 0, 48, 127
2, 160592, Note_on_c, 6, 66, 127
2, 160738, Note_off_c, 0, 48, 127
2, 160741, Note_on_c, 11, 46, 127
2, 160887, Note_off_c, 11, 46, 127
2, 160891, Note_on_c, 10, 45, 127
2, 161037, Note_off_c, 10, 45, 127
2, 161037, Note_off_c, 6, 66, 127
2, 161040, Note_on_c, 11, 46, 127
2, 161040, Note_on_c, 7, 67, 127
2, 161186, Note_off_c, 7, 67, 127
2, 161186, Note_off_c, 11, 46, 127
2, 161190, Note_on_c, 0, 48, 127
2, 161190, Note_on_c, 10, 69, 127
2, 161336, Note_off_c, 10, 69, 127
2, 161336, Note_off_c, 0, 48, 127
2, 161339, Note_on_c, 2, 50, 127
2, 161339, Note_on_c, 11, 70, 127
2, 161485, Note_off_c, 11, 70, 127
2, 161485, Note_off_c, 2, 50, 127
2, 161488, Note_off_c, 2, 62, 127
2, 161489, Note_on_c, 3, 51, 127
2, 161489, Note_on_c, 0, 72, 127
2, 161635, Note_off_c, 0, 72, 127
2, 161635, Note_off_c, 3, 51, 127
2, 161638, Note_on_c, 2, 50, 127
2, 161638, Note_on_c, 11, 70, 127
2, 161784, Note_off_c, 11, 70, 127
2, 161784, Note_off_c, 2, 50, 127
2, 161788, Note_on_c, 0, 48, 127
2, 161788, Note_on_c, 10, 69, 127
2, 161934, Note_off_c, 10, 69, 127
2, 161934, Note_off_c, 0, 48, 127
2, 161937, Note_on_c, 2, 50, 127
2, 161937, Note_on_c, 11, 70, 127
2, 162083, Note_off_c, 11, 70, 127
2, 162087, Note_on_c, 0, 72, 127
2, 162233, Note_off_c, 0, 72, 127
2, 162236, Note_on_c, 2, 74, 127
2, 162382, Note_off_c, 2, 74, 127
2, 162382, Note_off_c, 2, 50, 127
2, 162386, Note_on_c, 7, 55, 127
2, 162386, Note_on_c, 3, 75, 127
2, 162532, Note_off_c, 3, 75, 127
2, 162535, Note_on_c, 2, 74, 127
2, 162681, Note_off_c, 2, 74, 127
2, 162685, Note_on_c, 0, 72, 127
2, 162831, Note_off_c, 0, 72, 127
2, 162834, Note_on_c, 2, 74, 127
2, 162984, Note_on_c, 0, 72, 127
2, 163130, Note_off_c, 0, 72, 127
2, 163133, Note_on_c, 11, 70, 127
2, 163279, Note_off_c, 11, 70, 127
2, 163280, Note_off_c, 7, 55, 127
2, 163283, Note_on_c, 6, 54, 127
2, 163283, Note_on_c, 10, 69, 127
2, 163429, Note_off_c, 10, 69, 127
2, 163432, Note_on_c, 11, 70, 127
2, 163578, Note_off_c, 11, 70, 127
2, 163582, Note_on_c, 0, 72, 127
2, 163728, Note_off_c, 0, 72, 127
2, 163728, Note_off_c, 6, 54, 127
2, 163731, Note_on_c, 7, 55, 127
2, 163731, Note_on_c, 11, 70, 127
2, 163877, Note_off_c, 7, 55, 127
2, 163881, Note_on_c, 5, 53, 127
2, 164027, Note_off_c, 5, 53, 127
2, 164030, Note_on_c, 4, 52, 127
2, 164176, Note_off_c, 4, 52, 127
2, 164176, Note_off_c, 11, 70, 127
2, 164176, Note_off_c, 2, 74, 127
2, 164180, Note_on_c, 2, 50, 127
2, 164180, Note_on_c, 2, 74, 127
2, 164326, Note_off_c, 2, 50, 127
2, 164330, Note_on_c, 4, 52, 127
2, 164476, Note_off_c, 4, 52, 127
2, 164479, Note_on_c, 5, 53, 127
2, 164625, Note_off_c, 5, 53, 127
2, 164625, Note_off_c, 2, 74, 127
2, 164629, Note_on_c, 4, 52, 127
2, 164629, Note_on_c, 7, 67, 127
2, 164629, Note_on_c, 7, 79, 127
2, 164775, Note_off_c, 7, 79, 127
2, 164778, Note_on_c, 5, 77, 127
2, 164924, Note_off_c, 5, 77, 127
2, 164928, Note_on_c, 4, 76, 127
2, 165074, Note_off_c, 4, 76, 127
2, 165074, Note_off_c, 7, 67, 127
2, 165074, Note_off_c, 4, 52, 127
2, 165077, Note_on_c, 7, 55, 127
2, 165077, Note_on_c, 12, 71, 127
2, 165077, Note_on_c, 2, 74, 127
2, 165223, Note_off_c, 2, 74, 127
2, 165227, Note_on_c, 4, 76, 127
2, 165373, Note_off_c, 4, 76, 127
2, 165376, Note_on_c, 5, 77, 127
2, 165522, Note_off_c, 5, 77, 127
2, 165522, Note_off_c, 12, 71, 127
2, 165522, Note_off_c, 7, 55, 127
2, 165526, Note_on_c, 0, 60, 127
2, 165526, Note_on_c, 0, 72, 127
2, 165526, Note_on_c, 4, 76, 127
2, 165672, Note_off_c, 0, 60, 127
2, 165675, Note_on_c, 11, 58, 127
2, 165821, Note_off_c, 11, 58, 127
2, 165825, Note_on_c, 10, 57, 127
2, 165971, Note_off_c, 10, 57, 127
2, 165971, Note_off_c, 4, 76, 127
2, 165974, Note_on_c, 7, 55, 127
2, 165974, Note_on_c, 7, 79, 127
2, 166120, Note_off_c, 7, 55, 127
2, 166124, Note_on_c, 10, 57, 127
2, 166270, Note_off_c, 10, 57, 127
2, 166273, Note_on_c, 11, 58, 127
2, 166413, Note_off_c, 0, 72, 127
2, 166419, Note_off_c, 11, 58, 127
2, 166419, Note_off_c, 7, 79, 127
2, 166423, Note_on_c, 10, 57, 127
2, 166423, Note_on_c, 0, 72, 127
2, 166572, Note_on_c, 11, 70, 127
2, 166718, Note_off_c, 11, 70, 127
2, 166722, Note_on_c, 10, 69, 127
2, 166868, Note_off_c, 10, 69, 127
2, 166868, Note_off_c, 10, 57, 127
2, 166871, Note_on_c, 0, 60, 127
2, 166871, Note_on_c, 7, 67, 127
2, 167017, Note_off_c, 7, 67, 127
2, 167021, Note_on_c, 10, 69, 127
2, 167076, Note_off_c, 0, 72, 127
2, 167167, Note_off_c, 10, 69, 127
2, 167170, Note_on_c, 11, 70, 127
2, 167316, Note_off_c, 11, 70, 127
2, 167316, Note_off_c, 0, 60, 127
2, 167320, Note_on_c, 5, 53, 127
2, 167320, Note_on_c, 10, 69, 127
2, 167466, Note_off_c, 5, 53, 127
2, 167469, Note_on_c, 3, 51, 127
2, 167615, Note_off_c, 3, 51, 127
2, 167619, Note_on_c, 2, 50, 127
2, 167765, Note_off_c, 2, 50, 127
2, 167765, Note_off_c, 10, 69, 127
2, 167768, Note_on_c, 0, 48, 127
2, 167768, Note_on_c, 0, 72, 127
2, 167914, Note_off_c, 0, 48, 127
2, 167918, Note_on_c, 2, 50, 127
2, 168064, Note_off_c, 2, 50, 127
2, 168067, Note_on_c, 3, 51, 127
2, 168213, Note_off_c, 3, 51, 127
2, 168213, Note_off_c, 0, 72, 127
2, 168217, Note_on_c, 2, 50, 127
2, 168217, Note_on_c, 5, 65, 127
2, 168217, Note_on_c, 5, 77, 127
2, 168363, Note_off_c, 5, 77, 127
2, 168366, Note_on_c, 3, 75, 127
2, 168512, Note_off_c, 3, 75, 127
2, 168516, Note_on_c, 2, 74, 127
2, 168662, Note_off_c, 2, 74, 127
2, 168662, Note_off_c, 5, 65, 127
2, 168662, Note_off_c, 2, 50, 127
2, 168665, Note_on_c, 5, 53, 127
2, 168665, Note_on_c, 10, 69, 127
2, 168665, Note_on_c, 0, 72, 127
2, 168811, Note_off_c, 0, 72, 127
2, 168815, Note_on_c, 2, 74, 127
2, 168961, Note_off_c, 2, 74, 127
2, 168964, Note_on_c, 3, 75, 127
2, 169110, Note_off_c, 3, 75, 127
2, 169110, Note_off_c, 10, 69, 127
2, 169110, Note_off_c, 5, 53, 127
2, 169114, Note_on_c, 11, 58, 127
2, 169114, Note_on_c, 11, 70, 127
2, 169114, Note_on_c, 2, 74, 127
2, 169260, Note_off_c, 11, 58, 127
2, 169264, Note_on_c, 10, 57, 127
2, 169410, Note_off_c, 10, 57, 127
2, 169413, Note_on_c, 7, 55, 127
2, 169559, Note_off_c, 7, 55, 127
2, 169559, Note_off_c, 11, 70, 127
2, 169563, Note_on_c, 6, 54, 127
2, 169563, Note_on_c, 10, 69, 127
2, 169709, Note_off_c, 6, 54, 127
2, 169712, Note_on_c, 7, 55, 127
2, 169858, Note_off_c, 7, 55, 127
2, 169862, Note_on_c, 10, 57, 127
2, 170008, Note_off_c, 10, 57, 127
2, 170008, Note_off_c, 2, 74, 127
2, 170011, Note_on_c, 7, 55, 127
2, 170011, Note_on_c, 1, 73, 127
2, 170157, Note_off_c, 1, 73, 127
2, 170157, Note_off_c, 7, 55, 127
2, 170161, Note_on_c, 5, 53, 127
2, 170161, Note_on_c, 2, 74, 127
2, 170307, Note_off_c, 2, 74, 127
2, 170307, Note_off_c, 5, 53, 127
2, 170310, Note_on_c, 4, 52, 127
2, 170310, Note_on_c, 4, 76, 127
2, 170456, Note_off_c, 4, 76, 127
2, 170456, Note_off_c, 4, 52, 127
2, 170460, Note_on_c, 2, 50, 127
2, 170460, Note_on_c, 5, 77, 127
2, 170606, Note_off_c, 5, 77, 127
2, 170606, Note_off_c, 2, 50, 127
2, 170609, Note_on_c, 4, 52, 127
2, 170609, Note_on_c, 4, 76, 127
2, 170755, Note_off_c, 4, 76, 127
2, 170755, Note_off_c, 4, 52, 127
2, 170759, Note_on_c, 5, 53, 127
2, 170759, Note_on_c, 2, 74, 127
2, 170905, Note_off_c, 2, 74, 127
2, 170905, Note_off_c, 5, 53, 127
2, 170908, Note_on_c, 4, 52, 127
2, 170908, Note_on_c, 4, 76, 127
2, 171054, Note_off_c, 4, 76, 127
2, 171054, Note_off_c, 4, 52, 127
2, 171058, Note_on_c, 2, 50, 127
2, 171058, Note_on_c, 5, 77, 127
2, 171204, Note_off_c, 5, 77, 127
2, 171204, Note_off_c, 2, 50, 127
2, 171207, Note_on_c, 1, 49, 127
2, 171207, Note_on_c, 7, 79, 127
2, 171353, Note_off_c, 7, 79, 127
2, 171353, Note_off_c, 1, 49, 127
2, 171357, Note_on_c, 12, 47, 127
2, 171357, Note_on_c, 10, 81, 127
2, 171503, Note_off_c, 10, 81, 127
2, 171503, Note_off_c, 12, 47, 127
2, 171506, Note_on_c, 1, 49, 127
2, 171506, Note_on_c, 7, 79, 127
2, 171652, Note_off_c, 7, 79, 127
2, 171652, Note_off_c, 1, 49, 127
2, 171656, Note_on_c, 2, 50, 127
2, 171656, Note_on_c, 5, 77, 127
2, 171802, Note_off_c, 5, 77, 127
2, 171802, Note_off_c, 2, 50, 127
2, 171805, Note_on_c, 1, 49, 127
2, 171805, Note_on_c, 7, 79, 127
2, 172026, Note_off_c, 1, 49, 127
2, 172027, Note_off_c, 10, 69, 127
2, 172030, Note_on_c, 10, 45, 127
2, 172030, Note_on_c, 10, 69, 127
2, 172250, Note_off_c, 7, 79, 127
2, 172251, Note_off_c, 10, 69, 127
2, 172251, Note_off_c, 10, 45, 127
2, 172254, Note_on_c, 2, 50, 127
2, 172254, Note_on_c, 11, 70, 127
2, 172254, Note_on_c, 5, 77, 127
2, 172475, Note_off_c, 11, 70, 127
2, 172478, Note_on_c, 10, 69, 127
2, 172699, Note_off_c, 10, 69, 127
2, 172699, Note_off_c, 5, 77, 127
2, 172702, Note_on_c, 7, 67, 127
2, 172702, Note_on_c, 4, 76, 127
2, 172923, Note_off_c, 7, 67, 127
2, 172927, Note_on_c, 11, 70, 127
2, 173148, Note_off_c, 11, 70, 127
2, 173148, Note_off_c, 2, 50, 127
2, 173151, Note_on_c, 1, 49, 127
2, 173151, Note_on_c, 10, 69, 127
2, 173372, Note_off_c, 10, 69, 127
2, 173375, Note_on_c, 7, 67, 127
2, 173596, Note_off_c, 7, 67, 127
2, 173596, Note_off_c, 1, 49, 127
2, 173599, Note_on_c, 2, 50, 127
2, 173599, Note_on_c, 5, 65, 127
2, 173820, Note_off_c, 4, 76, 127
2, 173824, Note_on_c, 2, 74, 127
2, 174044, Note_off_c, 5, 65, 127
2, 174044, Note_off_c, 2, 50, 127
2, 174045, Note_off_c, 2, 74, 127
2, 174048, Note_on_c, 7, 55, 127
2, 174048, Note_on_c, 11, 58, 127
2, 174048, Note_on_c, 3, 75, 127
2, 174269, Note_off_c, 3, 75, 127
2, 174272, Note_on_c, 2, 74, 127
2, 174493, Note_off_c, 2, 74, 127
2, 174493, Note_off_c, 11, 58, 127
2, 174497, Note_on_c, 10, 57, 127
2, 174497, Note_on_c, 1, 73, 127
2, 174718, Note_off_c, 1, 73, 127
2, 174721, Note_on_c, 4, 76, 127
2, 174942, Note_off_c, 4, 76, 127
2, 174942, Note_off_c, 7, 55, 127
2, 174945, Note_on_c, 6, 54, 127
2, 174945, Note_on_c, 2, 74, 127
2, 175166, Note_off_c, 2, 74, 127
2, 175169, Note_on_c, 0, 72, 127
2, 175390, Note_off_c, 0, 72, 127
2, 175390, Note_off_c, 6, 54, 127
2, 175391, Note_off_c, 10, 57, 127
2, 175394, Note_on_c, 7, 55, 127
2, 175394, Note_on_c, 12, 71, 127
2, 175618, Note_on_c, 5, 53, 127
2, 175839, Note_off_c, 5, 53, 127
2, 175839, Note_off_c, 12, 71, 127
2, 175839, Note_off_c, 7, 55, 127
2, 175842, Note_on_c, 4, 52, 127
2, 175842, Note_on_c, 7, 67, 127
2, 175842, Note_on_c, 11, 70, 127
2, 176063, Note_off_c, 4, 52, 127
2, 176066, Note_on_c, 2, 50, 127
2, 176287, Note_off_c, 2, 50, 127
2, 176287, Note_off_c, 11, 70, 127
2, 176291, Note_on_c, 1, 49, 127
2, 176291, Note_on_c, 10, 69, 127
2, 176512, Note_off_c, 1, 49, 127
2, 176515, Note_on_c, 4, 52, 127
2, 176736, Note_off_c, 4, 52, 127
2, 176736, Note_off_c, 7, 67, 127
2, 176739, Note_on_c, 2, 50, 127
2, 176739, Note_on_c, 5, 65, 127
2, 176960, Note_off_c, 5, 65, 127
2, 176960, Note_off_c, 2, 50, 127
2, 176964, Note_on_c, 0, 48, 127
2, 176964, Note_on_c, 4, 64, 127
2, 177185, Note_off_c, 4, 64, 127
2, 177185, Note_off_c, 0, 48, 127
2, 177188, Note_on_c, 12, 47, 127
2, 177188, Note_on_c, 2, 62, 127
2, 177409, Note_off_c, 2, 62, 127
2, 177412, Note_on_c, 5, 65, 127
2, 177633, Note_off_c, 5, 65, 127
2, 177633, Note_off_c, 12, 47, 127
2, 177633, Note_off_c, 10, 69, 127
2, 177636, Note_on_c, 11, 46, 127
2, 177636, Note_on_c, 4, 64, 127
2, 177636, Note_on_c, 7, 67, 127
2, 177857, Note_off_c, 4, 64, 127
2, 177861, Note_on_c, 2, 62, 127
2, 178081, Note_off_c, 11, 46, 127
2, 178082, Note_off_c, 2, 62, 127
2, 178085, Note_on_c, 10, 45, 127
2, 178085, Note_on_c, 1, 61, 127
2, 178306, Note_off_c, 10, 45, 127
2, 178309, Note_on_c, 10, 57, 127
2, 178530, Note_off_c, 10, 57, 127
2, 178530, Note_off_c, 1, 61, 127
2, 178530, Note_off_c, 7, 67, 127
2, 178533, Note_on_c, 11, 58, 127
2, 178533, Note_on_c, 2, 62, 127
2, 178533, Note_on_c, 5, 65, 127
2, 178754, Note_off_c, 11, 58, 127
2, 178758, Note_on_c, 10, 57, 127
2, 178978, Note_off_c, 5, 65, 127
2, 178979, Note_off_c, 10, 57, 127
2, 178982, Note_on_c, 7, 55, 127
2, 178982, Note_on_c, 4, 64, 127
2, 179203, Note_off_c, 7, 55, 127
2, 179206, Note_on_c, 11, 58, 127
2, 179427, Note_off_c, 11, 58, 127
2, 179427, Note_off_c, 2, 62, 127
2, 179430, Note_on_c, 10, 57, 127
2, 179430, Note_on_c, 1, 61, 127
2, 179651, Note_off_c, 10, 57, 127
2, 179655, Note_on_c, 7, 55, 127
2, 179875, Note_off_c, 1, 61, 127
2, 179876, Note_off_c, 7, 55, 127
2, 179876, Note_off_c, 4, 64, 127
2, 179879, Note_on_c, 5, 53, 127
2, 179879, Note_on_c, 2, 62, 127
2, 180100, Note_off_c, 2, 62, 127
2, 180100, Note_off_c, 5, 53, 127
2, 180103, Note_on_c, 10, 57, 127
2, 180103, Note_on_c, 0, 60, 127
2, 180324, Note_off_c, 0, 60, 127
2, 180324, Note_off_c, 10, 57, 127
2, 180328, Note_on_c, 7, 55, 127
2, 180328, Note_on_c, 11, 58, 127
2, 180549, Note_off_c, 11, 58, 127
2, 180549, Note_off_c, 7, 55, 127
2, 180552, Note_on_c, 5, 53, 127
2, 180552, Note_on_c, 10, 57, 127
2, 180773, Note_off_c, 10, 57, 127
2, 180773, Note_off_c, 5, 53, 127
2, 180776, Note_on_c, 4, 52, 127
2, 180776, Note_on_c, 7, 55, 127
2, 180997, Note_off_c, 7, 55, 127
2, 180997, Note_off_c, 4, 52, 127
2, 181000, Note_on_c, 2, 50, 127
2, 181000, Note_on_c, 11, 58, 127
2, 181221, Note_off_c, 11, 58, 127
2, 181221, Note_off_c, 2, 50, 127
2, 181225, Note_on_c, 1, 49, 127
2, 181225, Note_on_c, 10, 57, 127
2, 181446, Note_off_c, 10, 57, 127
2, 181446, Note_off_c, 1, 49, 127
2, 181449, Note_on_c, 4, 52, 127
2, 181449, Note_on_c, 7, 55, 127
2, 181670, Note_off_c, 7, 55, 127
2, 181670, Note_off_c, 4, 52, 127
2, 181673, Note_on_c, 2, 50, 127
2, 181673, Note_on_c, 5, 53, 127
2, 181894, Note_off_c, 5, 53, 127
2, 181894, Note_off_c, 2, 50, 127
2, 181897, Note_on_c, 0, 48, 127
2, 181897, Note_on_c, 10, 57, 127
2, 182118, Note_off_c, 10, 57, 127
2, 182118, Note_off_c, 0, 48, 127
2, 182122, Note_on_c, 11, 46, 127
2, 182122, Note_on_c, 7, 55, 127
2, 182343, Note_off_c, 7, 55, 127
2, 182343, Note_off_c, 11, 46, 127
2, 182346, Note_on_c, 10, 45, 127
2, 182346, Note_on_c, 5, 53, 127
2, 182567, Note_off_c, 5, 53, 127
2, 182567, Note_off_c, 10, 45, 127
2, 182570, Note_on_c, 7, 43, 127
2, 182570, Note_on_c, 4, 52, 127
2, 182791, Note_off_c, 4, 52, 127
2, 182791, Note_off_c, 7, 43, 127
2, 182795, Note_on_c, 11, 46, 127
2, 182795, Note_on_c, 2, 50, 127
2, 183016, Note_off_c, 2, 50, 127
2, 183016, Note_off_c, 11, 46, 127
2, 183019, Note_on_c, 10, 45, 127
2, 183019, Note_on_c, 1, 49, 127
2, 183240, Note_off_c, 1, 49, 127
2, 183240, Note_off_c, 10, 45, 127
2, 183243, Note_on_c, 7, 43, 127
2, 183243, Note_on_c, 4, 52, 127
2, 183464, Note_off_c, 4, 52, 127
2, 183464, Note_off_c, 7, 43, 127
2, 183467, Note_on_c, 5, 41, 127
2, 183467, Note_on_c, 2, 50, 127
2, 183617, Note_off_c, 2, 50, 127
2, 183621, Note_on_c, 4, 52, 127
2, 183771, Note_off_c, 4, 52, 127
2, 183774, Note_on_c, 5, 53, 127
2, 183924, Note_off_c, 5, 53, 127
2, 183924, Note_off_c, 5, 41, 127
2, 183928, Note_on_c, 11, 46, 127
2, 183928, Note_on_c, 7, 55, 127
2, 184078, Note_off_c, 7, 55, 127
2, 184082, Note_on_c, 5, 53, 127
2, 184232, Note_off_c, 5, 53, 127
2, 184235, Note_on_c, 4, 52, 127
2, 184385, Note_off_c, 4, 52, 127
2, 184385, Note_off_c, 11, 46, 127
2, 184389, Note_on_c, 10, 45, 127
2, 184389, Note_on_c, 5, 53, 127
2, 184539, Note_off_c, 5, 53, 127
2, 184539, Note_off_c, 10, 45, 127
2, 184542, Note_on_c, 7, 43, 127
2, 184542, Note_on_c, 7, 55, 127
2, 184692, Note_off_c, 7, 55, 127
2, 184692, Note_off_c, 7, 43, 127
2, 184696, Note_on_c, 5, 41, 127
2, 184696, Note_on_c, 10, 57, 127
2, 184846, Note_off_c, 10, 57, 127
2, 184846, Note_off_c, 5, 41, 127
2, 184850, Note_on_c, 4, 40, 127
2, 184850, Note_on_c, 11, 58, 127
2, 185000, Note_off_c, 11, 58, 127
2, 185000, Note_off_c, 4, 40, 127
2, 185003, Note_on_c, 5, 41, 127
2, 185003, Note_on_c, 10, 57, 127
2, 185153, Note_off_c, 10, 57, 127
2, 185153, Note_off_c, 5, 41, 127
2, 185157, Note_on_c, 7, 43, 127
2, 185157, Note_on_c, 7, 55, 127
2, 185307, Note_off_c, 7, 55, 127
2, 185307, Note_off_c, 7, 43, 127
2, 185310, Note_on_c, 5, 41, 127
2, 185310, Note_on_c, 10, 57, 127
2, 185310, Note_on_c, 2, 62, 127
2, 185460, Note_off_c, 2, 62, 127
2, 185460, Note_off_c, 5, 41, 127
2, 185464, Note_on_c, 4, 40, 127
2, 185464, Note_on_c, 4, 64, 127
2, 185614, Note_off_c, 4, 64, 127
2, 185614, Note_off_c, 4, 40, 127
2, 185618, Note_on_c, 2, 38, 127
2, 185618, Note_on_c, 5, 65, 127
2, 185768, Note_off_c, 5, 65, 127
2, 185768, Note_off_c, 2, 38, 127
2, 185771, Note_on_c, 1, 37, 127
2, 185771, Note_on_c, 7, 67, 127
2, 185921, Note_off_c, 7, 67, 127
2, 185921, Note_off_c, 1, 37, 127
2, 185925, Note_on_c, 2, 38, 127
2, 185925, Note_on_c, 5, 65, 127
2, 186075, Note_off_c, 5, 65, 127
2, 186075, Note_off_c, 2, 38, 127
2, 186078, Note_on_c, 4, 40, 127
2, 186078, Note_on_c, 4, 64, 127
2, 186228, Note_off_c, 4, 64, 127
2, 186228, Note_off_c, 4, 40, 127
2, 186231, Note_on_c, 2, 38, 127
2, 186231, Note_on_c, 5, 65, 127
2, 186381, Note_off_c, 5, 65, 127
2, 186381, Note_off_c, 10, 57, 127
2, 186386, Note_on_c, 7, 55, 127
2, 186386, Note_on_c, 7, 67, 127
2, 186534, Note_off_c, 2, 38, 127
2, 186536, Note_off_c, 7, 67, 127
2, 186536, Note_off_c, 7, 55, 127
2, 186539, Note_on_c, 5, 53, 127
2, 186539, Note_on_c, 10, 69, 127
2, 186689, Note_off_c, 10, 69, 127
2, 186689, Note_off_c, 5, 53, 127
2, 186693, Note_on_c, 4, 52, 127
2, 186693, Note_on_c, 11, 70, 127
2, 186843, Note_off_c, 11, 70, 127
2, 186843, Note_off_c, 4, 52, 127
2, 186846, Note_on_c, 5, 53, 127
2, 186846, Note_on_c, 10, 69, 127
2, 186996, Note_off_c, 10, 69, 127
2, 186996, Note_off_c, 5, 53, 127
2, 186999, Note_on_c, 7, 55, 127
2, 186999, Note_on_c, 7, 67, 127
2, 187149, Note_off_c, 7, 67, 127
2, 187149, Note_off_c, 7, 55, 127
2, 187154, Note_on_c, 5, 53, 127
2, 187154, Note_on_c, 10, 69, 127
2, 187385, Note_off_c, 5, 53, 127
2, 187387, Note_on_c, 4, 40, 127
2, 187618, Note_off_c, 4, 40, 127
2, 187618, Note_off_c, 10, 69, 127
2, 187621, Note_on_c, 5, 41, 127
2, 187621, Note_on_c, 5, 65, 127
2, 187621, Note_on_c, 2, 74, 127
2, 187852, Note_off_c, 5, 41, 127
2, 187855, Note_on_c, 7, 43, 127
2, 188085, Note_off_c, 2, 74, 127
2, 188085, Note_off_c, 5, 65, 127
2, 188086, Note_off_c, 7, 43, 127
2, 188089, Note_on_c, 10, 45, 127
2, 188089, Note_on_c, 4, 64, 127
2, 188089, Note_on_c, 1, 73, 127
2, 188320, Note_off_c, 10, 45, 127
2, 188323, Note_on_c, 12, 47, 127
2, 188553, Note_off_c, 1, 73, 127
2, 188553, Note_off_c, 4, 64, 127
2, 188554, Note_off_c, 12, 47, 127
2, 188556, Note_on_c, 0, 48, 127
2, 188556, Note_on_c, 10, 69, 127
2, 188556, Note_on_c, 0, 72, 127
2, 188787, Note_off_c, 0, 48, 127
2, 188790, Note_on_c, 10, 45, 127
2, 189020, Note_off_c, 0, 72, 127
2, 189021, Note_off_c, 10, 45, 127
2, 189024, Note_on_c, 2, 50, 127
2, 189024, Note_on_c, 12, 71, 127
2, 189259, Note_off_c, 2, 50, 127
2, 189263, Note_on_c, 1, 49, 127
2, 189498, Note_off_c, 1, 49, 127
2, 189499, Note_off_c, 12, 71, 127
2, 189502, Note_on_c, 2, 50, 127
2, 189502, Note_on_c, 11, 70, 127
2, 189737, Note_off_c, 2, 50, 127
2, 189738, Note_off_c, 10, 69, 127
2, 189741, Note_on_c, 4, 52, 127
2, 189741, Note_on_c, 7, 67, 127
2, 189976, Note_off_c, 4, 52, 127
2, 189977, Note_off_c, 11, 70, 127
2, 189981, Note_on_c, 5, 53, 127
2, 189981, Note_on_c, 10, 69, 127
2, 190216, Note_off_c, 5, 53, 127
2, 190216, Note_off_c, 7, 67, 127
2, 190220, Note_on_c, 12, 47, 127
2, 190220, Note_on_c, 5, 65, 127
2, 190455, Note_off_c, 12, 47, 127
2, 190456, Note_off_c, 10, 69, 127
2, 190459, Note_on_c, 4, 52, 127
2, 190459, Note_on_c, 7, 67, 127
2, 190694, Note_off_c, 4, 52, 127
2, 190695, Note_off_c, 5, 65, 127
2, 190698, Note_on_c, 2, 50, 127
2, 190698, Note_on_c, 5, 65, 127
2, 190933, Note_off_c, 5, 65, 127
2, 190933, Note_off_c, 2, 50, 127
2, 190937, Note_on_c, 1, 49, 127
2, 190937, Note_on_c, 4, 64, 127
2, 191183, Note_off_c, 1, 49, 127
2, 191184, Note_off_c, 7, 67, 127
2, 191188, Note_on_c, 10, 45, 127
2, 191188, Note_on_c, 7, 67, 127
2, 191434, Note_off_c, 7, 67, 127
2, 191434, Note_off_c, 10, 45, 127
2, 191434, Note_off_c, 4, 64, 127
2, 191437, Note_on_c, 2, 50, 127
2, 191437, Note_on_c, 2, 62, 127
2, 191437, Note_on_c, 5, 65, 127
2, 191683, Note_off_c, 5, 65, 127
2, 191683, Note_off_c, 2, 50, 127
2, 191688, Note_on_c, 7, 55, 127
2, 191688, Note_on_c, 4, 64, 127
2, 191934, Note_off_c, 4, 64, 127
2, 191934, Note_off_c, 7, 55, 127
2, 191938, Note_on_c, 10, 57, 127
2, 191938, Note_on_c, 5, 65, 127
2, 192203, Note_off_c, 5, 65, 127
2, 192205, Note_on_c, 4, 64, 127
2, 192290, Note_off_c, 4, 64, 127
2, 192294, Note_on_c, 5, 65, 127
2, 192379, Note_off_c, 5, 65, 127
2, 192382, Note_on_c, 4, 64, 127
2, 192467, Note_off_c, 4, 64, 127
2, 192467, Note_off_c, 2, 62, 127
2, 192468, Note_off_c, 10, 57, 127
2, 192470, Note_on_c, 10, 45, 127
2, 192470, Note_on_c, 1, 61, 127
2, 192470, Note_on_c, 5, 65, 127
2, 192555, Note_off_c, 5, 65, 127
2, 192559, Note_on_c, 4, 64, 127
2, 192733, Note_off_c, 4, 64, 127
2, 192737, Note_on_c, 2, 62, 127
2, 193001, Note_off_c, 1, 61, 127
2, 193001, Note_off_c, 10, 45, 127
2, 193002, Note_off_c, 2, 62, 127
2, 193005, Note_on_c, 2, 38, 127
2, 193005, Note_on_c, 2, 62, 127
2, 196288, Note_off_c, 2, 62, 127
2, 196288, Note_off_c, 2, 38, 127
2, 201216, End_track
3, 0, Start_track
3, 0, Title_t, "MIDI"
3, 1536, End_track
0, 0, End_of_file
