0, 0, Header, 1, 3, 384
1, 0, Start_track
1, 0, Time_signature, 4, 2, 24, 8
1, 0, Tempo, 500000
1, 222720, End_track
2, 0, Start_track
2, 0, Text_t, "harpsichord: John Sankey"
2, 0, Program_c, 0, 6
2, 0, Pitch_bend_c, 0, 8192
2, 0, Program_c, 1, 6
2, 0, Pitch_bend_c, 1, 7792
2, 0, Program_c, 2, 6
2, 0, Pitch_bend_c, 2, 7876
2, 0, Program_c, 3, 6
2, 0, Pitch_bend_c, 3, 7952
2, 0, Program_c, 4, 6
2, 0, Pitch_bend_c, 4, 7792
2, 0, Program_c, 5, 6
2, 0, Pitch_bend_c, 5, 8112
2, 0, Program_c, 6, 6
2, 0, Pitch_bend_c, 6, 7712
2, 0, Program_c, 7, 6
2, 0, Pitch_bend_c, 7, 8037
2, 0, Program_c, 8, 6
2, 0, Pitch_bend_c, 8, 7872
2, 0, Program_c, 10, 6
2, 0, Pitch_bend_c, 10, 7712
2, 0, Program_c, 11, 6
2, 0, Pitch_bend_c, 11, 8032
2, 0, Program_c, 12, 6
2, 0, Pitch_bend_c, 12, 7872
2, 0, Title_t, "Track 1"
2, 64, Note_on_c, 10, 69, 127
2, 64, Note_on_c, 10, 45, 127
2, 252, Note_off_c, 10, 69, 127
2, 254, Note_on_c, 12, 71, 127
2, 442, Note_off_c, 12, 71, 127
2, 444, Note_on_c, 1, 73, 127
2, 632, Note_off_c, 1, 73, 127
2, 634, Note_on_c, 10, 69, 127
2, 822, Note_off_c, 10, 69, 127
2, 822, Note_off_c, 10, 45, 127
2, 824, Note_on_c, 6, 78, 127
2, 824, Note_on_c, 10, 57, 127
2, 1202, Note_off_c, 6, 78, 127
2, 1204, Note_on_c, 6, 78, 127
2, 1582, Note_off_c, 6, 78, 127
2, 1582, Note_off_c, 10, 57, 127
2, 1584, Note_on_c, 6, 78, 127
2, 1584, Note_on_c, 8, 56, 127
2, 1772, Note_off_c, 6, 78, 127
2, 1774, Note_on_c, 3, 75, 127
2, 1962, Note_off_c, 3, 75, 127
2, 1964, Note_on_c, 4, 76, 127
2, 2342, Note_off_c, 8, 56, 127
2, 2344, Note_on_c, 7, 55, 127
2, 2498, Note_off_c, 4, 76, 127
2, 2535, Note_on_c, 4, 76, 127
2, 2723, Note_off_c, 4, 76, 127
2, 2725, Note_on_c, 6, 78, 127
2, 2725, Note_on_c, 4, 64, 127
2, 2913, Note_off_c, 6, 78, 127
2, 2915, Note_on_c, 7, 79, 127
2, 3102, Note_off_c, 7, 55, 127
2, 3103, Note_off_c, 7, 79, 127
2, 3105, Note_on_c, 10, 81, 127
2, 3105, Note_on_c, 6, 54, 127
2, 3293, Note_off_c, 10, 81, 127
2, 3295, Note_on_c, 7, 79, 127
2, 3483, Note_off_c, 7, 79, 127
2, 3483, Note_off_c, 4, 64, 127
2, 3485, Note_on_c, 6, 78, 127
2, 3485, Note_on_c, 10, 57, 127
2, 3673, Note_off_c, 6, 78, 127
2, 3675, Note_on_c, 10, 81, 127
2, 3861, Note_off_c, 10, 57, 127
2, 3863, Note_off_c, 10, 81, 127
2, 3863, Note_off_c, 6, 54, 127
2, 3865, Note_on_c, 2, 74, 127
2, 3865, Note_on_c, 12, 59, 127
2, 4053, Note_off_c, 2, 74, 127
2, 4055, Note_on_c, 1, 73, 127
2, 4243, Note_off_c, 1, 73, 127
2, 4245, Note_on_c, 12, 71, 127
2, 4245, Note_on_c, 2, 62, 127
2, 4433, Note_off_c, 12, 71, 127
2, 4435, Note_on_c, 10, 81, 127
2, 4623, Note_off_c, 10, 81, 127
2, 4623, Note_off_c, 12, 59, 127
2, 4625, Note_on_c, 8, 80, 127
2, 4625, Note_on_c, 4, 52, 127
2, 4813, Note_off_c, 8, 80, 127
2, 4816, Note_on_c, 6, 78, 127
2, 5003, Note_off_c, 2, 62, 127
2, 5004, Note_off_c, 6, 78, 127
2, 5006, Note_on_c, 4, 76, 127
2, 5006, Note_on_c, 8, 56, 127
2, 5194, Note_off_c, 4, 76, 127
2, 5196, Note_on_c, 8, 80, 127
2, 5382, Note_off_c, 8, 56, 127
2, 5383, Note_off_c, 4, 52, 127
2, 5384, Note_off_c, 8, 80, 127
2, 5386, Note_on_c, 1, 73, 127
2, 5386, Note_on_c, 10, 57, 127
2, 5574, Note_off_c, 1, 73, 127
2, 5576, Note_on_c, 12, 71, 127
2, 5764, Note_off_c, 12, 71, 127
2, 5766, Note_on_c, 10, 69, 127
2, 5766, Note_on_c, 1, 61, 127
2, 5954, Note_off_c, 10, 69, 127
2, 5956, Note_on_c, 7, 79, 127
2, 6144, Note_off_c, 7, 79, 127
2, 6144, Note_off_c, 10, 57, 127
2, 6146, Note_on_c, 6, 78, 127
2, 6146, Note_on_c, 2, 50, 127
2, 6334, Note_off_c, 6, 78, 127
2, 6336, Note_on_c, 4, 76, 127
2, 6524, Note_off_c, 4, 76, 127
2, 6524, Note_off_c, 1, 61, 127
2, 6526, Note_on_c, 2, 74, 127
2, 6526, Note_on_c, 12, 59, 127
2, 6714, Note_off_c, 12, 59, 127
2, 6714, Note_off_c, 2, 74, 127
2, 6716, Note_on_c, 6, 78, 127
2, 6716, Note_on_c, 10, 57, 127
2, 6904, Note_off_c, 10, 57, 127
2, 6904, Note_off_c, 6, 78, 127
2, 6904, Note_off_c, 2, 50, 127
2, 6906, Note_on_c, 12, 71, 127
2, 6906, Note_on_c, 10, 57, 127
2, 6906, Note_on_c, 4, 52, 127
2, 6990, Note_on_c, 8, 56, 127
2, 6997, Note_off_c, 10, 57, 127
2, 7073, Note_on_c, 10, 57, 127
2, 7081, Note_off_c, 8, 56, 127
2, 7094, Note_off_c, 12, 71, 127
2, 7096, Note_on_c, 6, 78, 127
2, 7156, Note_on_c, 8, 56, 127
2, 7164, Note_off_c, 10, 57, 127
2, 7284, Note_off_c, 6, 78, 127
2, 7287, Note_on_c, 4, 76, 127
2, 7466, Note_off_c, 8, 56, 127
2, 7475, Note_off_c, 4, 76, 127
2, 7477, Note_on_c, 2, 74, 127
2, 7477, Note_on_c, 8, 56, 127
2, 7664, Note_off_c, 4, 52, 127
2, 7665, Note_off_c, 8, 56, 127
2, 7665, Note_off_c, 2, 74, 127
2, 7667, Note_on_c, 1, 73, 127
2, 7667, Note_on_c, 10, 57, 127
2, 7667, Note_on_c, 10, 45, 127
2, 7855, Note_off_c, 1, 73, 127
2, 7857, Note_on_c, 12, 71, 127
2, 8043, Note_off_c, 10, 57, 127
2, 8045, Note_off_c, 12, 71, 127
2, 8045, Note_off_c, 10, 45, 127
2, 8047, Note_on_c, 10, 69, 127
2, 8047, Note_on_c, 10, 57, 127
2, 8235, Note_off_c, 10, 69, 127
2, 8237, Note_on_c, 12, 71, 127
2, 8425, Note_off_c, 12, 71, 127
2, 8425, Note_off_c, 10, 57, 127
2, 8427, Note_on_c, 1, 73, 127
2, 8427, Note_on_c, 8, 56, 127
2, 8615, Note_off_c, 1, 73, 127
2, 8617, Note_on_c, 3, 75, 127
2, 8805, Note_off_c, 3, 75, 127
2, 8805, Note_off_c, 8, 56, 127
2, 8807, Note_on_c, 4, 76, 127
2, 8807, Note_on_c, 6, 54, 127
2, 8995, Note_off_c, 4, 76, 127
2, 8997, Note_on_c, 6, 78, 127
2, 9185, Note_off_c, 6, 78, 127
2, 9185, Note_off_c, 6, 54, 127
2, 9187, Note_on_c, 8, 80, 127
2, 9187, Note_on_c, 4, 52, 127
2, 9375, Note_off_c, 4, 52, 127
2, 9375, Note_off_c, 8, 80, 127
2, 9377, Note_on_c, 10, 81, 127
2, 9377, Note_on_c, 6, 54, 127
2, 9565, Note_off_c, 6, 54, 127
2, 9565, Note_off_c, 10, 81, 127
2, 9568, Note_on_c, 12, 83, 127
2, 9568, Note_on_c, 8, 56, 127
2, 9756, Note_off_c, 8, 56, 127
2, 9756, Note_off_c, 12, 83, 127
2, 9758, Note_on_c, 8, 80, 127
2, 9758, Note_on_c, 4, 52, 127
2, 9946, Note_off_c, 4, 52, 127
2, 9946, Note_off_c, 8, 80, 127
2, 9948, Note_on_c, 4, 76, 127
2, 9948, Note_on_c, 1, 61, 127
2, 10138, Note_on_c, 6, 78, 127
2, 10326, Note_off_c, 6, 78, 127
2, 10326, Note_off_c, 1, 61, 127
2, 10328, Note_on_c, 8, 80, 127
2, 10328, Note_on_c, 1, 61, 127
2, 10502, Note_off_c, 4, 76, 127
2, 10516, Note_off_c, 8, 80, 127
2, 10518, Note_on_c, 4, 76, 127
2, 10706, Note_off_c, 4, 76, 127
2, 10706, Note_off_c, 1, 61, 127
2, 10708, Note_on_c, 6, 78, 127
2, 10708, Note_on_c, 3, 75, 127
2, 10708, Note_on_c, 1, 61, 127
2, 10896, Note_off_c, 1, 61, 127
2, 10896, Note_off_c, 6, 78, 127
2, 10898, Note_on_c, 8, 80, 127
2, 10898, Note_on_c, 11, 58, 127
2, 11086, Note_off_c, 11, 58, 127
2, 11086, Note_off_c, 8, 80, 127
2, 11088, Note_on_c, 10, 81, 127
2, 11088, Note_on_c, 12, 59, 127
2, 11276, Note_off_c, 10, 81, 127
2, 11278, Note_on_c, 6, 78, 127
2, 11466, Note_off_c, 6, 78, 127
2, 11466, Note_off_c, 3, 75, 127
2, 11468, Note_on_c, 12, 71, 127
2, 11468, Note_on_c, 2, 74, 127
2, 11656, Note_off_c, 12, 59, 127
2, 11658, Note_on_c, 12, 59, 127
2, 11846, Note_off_c, 12, 59, 127
2, 11846, Note_off_c, 12, 71, 127
2, 11848, Note_on_c, 12, 83, 127
2, 11848, Note_on_c, 1, 61, 127
2, 12036, Note_off_c, 1, 61, 127
2, 12039, Note_on_c, 2, 62, 127
2, 12226, Note_off_c, 2, 74, 127
2, 12227, Note_off_c, 2, 62, 127
2, 12229, Note_on_c, 1, 73, 127
2, 12229, Note_on_c, 4, 64, 127
2, 12417, Note_off_c, 4, 64, 127
2, 12419, Note_on_c, 2, 62, 127
2, 12606, Note_off_c, 12, 83, 127
2, 12607, Note_off_c, 2, 62, 127
2, 12609, Note_on_c, 4, 76, 127
2, 12609, Note_on_c, 1, 61, 127
2, 12797, Note_off_c, 1, 61, 127
2, 12799, Note_on_c, 4, 64, 127
2, 12985, Note_off_c, 4, 76, 127
2, 12987, Note_off_c, 4, 64, 127
2, 12987, Note_off_c, 1, 73, 127
2, 12989, Note_on_c, 6, 78, 127
2, 12989, Note_on_c, 10, 57, 127
2, 13177, Note_off_c, 10, 57, 127
2, 13179, Note_on_c, 8, 56, 127
2, 13367, Note_off_c, 8, 56, 127
2, 13369, Note_on_c, 10, 81, 127
2, 13369, Note_on_c, 6, 54, 127
2, 13557, Note_off_c, 6, 54, 127
2, 13559, Note_on_c, 4, 64, 127
2, 13747, Note_off_c, 4, 64, 127
2, 13747, Note_off_c, 6, 78, 127
2, 13749, Note_on_c, 12, 71, 127
2, 13749, Note_on_c, 3, 63, 127
2, 13937, Note_off_c, 3, 63, 127
2, 13939, Note_on_c, 1, 61, 127
2, 14127, Note_off_c, 1, 61, 127
2, 14127, Note_off_c, 10, 81, 127
2, 14129, Note_on_c, 3, 75, 127
2, 14129, Note_on_c, 12, 59, 127
2, 14317, Note_off_c, 12, 59, 127
2, 14320, Note_on_c, 3, 63, 127
2, 14505, Note_off_c, 3, 75, 127
2, 14507, Note_off_c, 12, 71, 127
2, 14508, Note_off_c, 3, 63, 127
2, 14510, Note_on_c, 4, 76, 127
2, 14510, Note_on_c, 8, 56, 127
2, 14698, Note_off_c, 8, 56, 127
2, 14700, Note_on_c, 6, 54, 127
2, 14888, Note_off_c, 6, 54, 127
2, 14890, Note_on_c, 8, 80, 127
2, 14890, Note_on_c, 4, 52, 127
2, 15078, Note_off_c, 4, 52, 127
2, 15080, Note_on_c, 2, 62, 127
2, 15268, Note_off_c, 2, 62, 127
2, 15268, Note_off_c, 8, 80, 127
2, 15270, Note_on_c, 10, 81, 127
2, 15270, Note_on_c, 1, 61, 127
2, 15458, Note_off_c, 1, 61, 127
2, 15458, Note_off_c, 10, 81, 127
2, 15460, Note_on_c, 8, 80, 127
2, 15460, Note_on_c, 12, 59, 127
2, 15648, Note_off_c, 12, 59, 127
2, 15648, Note_off_c, 8, 80, 127
2, 15650, Note_on_c, 6, 78, 127
2, 15650, Note_on_c, 10, 57, 127
2, 15838, Note_off_c, 10, 57, 127
2, 15838, Note_off_c, 6, 78, 127
2, 15840, Note_on_c, 10, 81, 127
2, 15840, Note_on_c, 1, 61, 127
2, 16028, Note_off_c, 1, 61, 127
2, 16028, Note_off_c, 4, 76, 127
2, 16030, Note_on_c, 3, 75, 127
2, 16030, Note_on_c, 6, 54, 127
2, 16216, Note_off_c, 10, 81, 127
2, 16218, Note_off_c, 6, 54, 127
2, 16220, Note_on_c, 10, 81, 127
2, 16220, Note_on_c, 1, 61, 127
2, 16408, Note_off_c, 1, 61, 127
2, 16408, Note_off_c, 10, 81, 127
2, 16410, Note_on_c, 8, 80, 127
2, 16410, Note_on_c, 12, 59, 127
2, 16598, Note_off_c, 12, 59, 127
2, 16598, Note_off_c, 8, 80, 127
2, 16600, Note_on_c, 6, 78, 127
2, 16600, Note_on_c, 10, 57, 127
2, 16703, Note_off_c, 3, 75, 127
2, 16788, Note_off_c, 10, 57, 127
2, 16788, Note_off_c, 6, 78, 127
2, 16791, Note_on_c, 4, 76, 127
2, 16791, Note_on_c, 8, 56, 127
2, 16979, Note_off_c, 8, 56, 127
2, 16981, Note_on_c, 6, 54, 127
2, 17169, Note_off_c, 6, 54, 127
2, 17171, Note_on_c, 12, 71, 127
2, 17171, Note_on_c, 4, 52, 127
2, 17359, Note_off_c, 4, 52, 127
2, 17361, Note_on_c, 6, 54, 127
2, 17543, Note_off_c, 4, 76, 127
2, 17549, Note_off_c, 6, 54, 127
2, 17549, Note_off_c, 12, 71, 127
2, 17551, Note_on_c, 4, 76, 127
2, 17551, Note_on_c, 8, 56, 127
2, 17739, Note_off_c, 8, 56, 127
2, 17741, Note_on_c, 10, 57, 127
2, 17929, Note_off_c, 10, 57, 127
2, 17929, Note_off_c, 4, 76, 127
2, 17931, Note_on_c, 7, 79, 127
2, 17931, Note_on_c, 4, 76, 127
2, 17931, Note_on_c, 12, 59, 127
2, 18119, Note_off_c, 12, 59, 127
2, 18121, Note_on_c, 1, 61, 127
2, 18309, Note_off_c, 1, 61, 127
2, 18309, Note_off_c, 4, 76, 127
2, 18309, Note_off_c, 7, 79, 127
2, 18311, Note_on_c, 7, 79, 127
2, 18311, Note_on_c, 4, 76, 127
2, 18311, Note_on_c, 2, 62, 127
2, 18499, Note_off_c, 2, 62, 127
2, 18501, Note_on_c, 4, 64, 127
2, 18689, Note_off_c, 4, 64, 127
2, 18689, Note_off_c, 4, 76, 127
2, 18689, Note_off_c, 7, 79, 127
2, 18691, Note_on_c, 6, 78, 127
2, 18691, Note_on_c, 2, 74, 127
2, 18691, Note_on_c, 6, 66, 127
2, 18879, Note_off_c, 6, 66, 127
2, 18881, Note_on_c, 2, 62, 127
2, 19069, Note_off_c, 2, 62, 127
2, 19072, Note_on_c, 12, 59, 127
2, 19260, Note_off_c, 12, 59, 127
2, 19262, Note_on_c, 1, 61, 127
2, 19364, Note_off_c, 6, 78, 127
2, 19449, Note_off_c, 2, 74, 127
2, 19450, Note_off_c, 1, 61, 127
2, 19452, Note_on_c, 6, 78, 127
2, 19452, Note_on_c, 2, 74, 127
2, 19452, Note_on_c, 2, 62, 127
2, 19640, Note_off_c, 2, 62, 127
2, 19642, Note_on_c, 12, 59, 127
2, 19830, Note_off_c, 12, 59, 127
2, 19830, Note_off_c, 2, 74, 127
2, 19830, Note_off_c, 6, 78, 127
2, 19832, Note_on_c, 6, 78, 127
2, 19832, Note_on_c, 2, 74, 127
2, 19832, Note_on_c, 1, 61, 127
2, 20020, Note_off_c, 1, 61, 127
2, 20022, Note_on_c, 2, 62, 127
2, 20210, Note_off_c, 2, 62, 127
2, 20210, Note_off_c, 2, 74, 127
2, 20210, Note_off_c, 6, 78, 127
2, 20212, Note_on_c, 4, 76, 127
2, 20212, Note_on_c, 1, 73, 127
2, 20212, Note_on_c, 4, 64, 127
2, 20400, Note_off_c, 4, 64, 127
2, 20402, Note_on_c, 1, 61, 127
2, 20590, Note_off_c, 1, 61, 127
2, 20592, Note_on_c, 10, 57, 127
2, 20780, Note_off_c, 10, 57, 127
2, 20782, Note_on_c, 12, 59, 127
2, 20885, Note_off_c, 4, 76, 127
2, 20970, Note_off_c, 12, 59, 127
2, 20970, Note_off_c, 1, 73, 127
2, 20972, Note_on_c, 4, 76, 127
2, 20972, Note_on_c, 1, 73, 127
2, 20972, Note_on_c, 1, 61, 127
2, 21160, Note_off_c, 1, 61, 127
2, 21162, Note_on_c, 10, 57, 127
2, 21350, Note_off_c, 10, 57, 127
2, 21350, Note_off_c, 1, 73, 127
2, 21350, Note_off_c, 4, 76, 127
2, 21352, Note_on_c, 4, 76, 127
2, 21352, Note_on_c, 1, 73, 127
2, 21352, Note_on_c, 12, 59, 127
2, 21540, Note_off_c, 12, 59, 127
2, 21543, Note_on_c, 1, 61, 127
2, 21730, Note_off_c, 1, 73, 127
2, 21730, Note_off_c, 4, 76, 127
2, 21731, Note_off_c, 1, 61, 127
2, 21733, Note_on_c, 2, 74, 127
2, 21733, Note_on_c, 12, 71, 127
2, 21733, Note_on_c, 2, 62, 127
2, 21921, Note_off_c, 2, 62, 127
2, 21923, Note_on_c, 12, 59, 127
2, 22111, Note_off_c, 12, 59, 127
2, 22113, Note_on_c, 8, 56, 127
2, 22301, Note_off_c, 8, 56, 127
2, 22303, Note_on_c, 10, 57, 127
2, 22406, Note_off_c, 2, 74, 127
2, 22491, Note_off_c, 10, 57, 127
2, 22493, Note_on_c, 2, 74, 127
2, 22493, Note_on_c, 12, 59, 127
2, 22681, Note_off_c, 12, 59, 127
2, 22683, Note_on_c, 8, 56, 127
2, 22871, Note_off_c, 8, 56, 127
2, 22871, Note_off_c, 2, 74, 127
2, 22871, Note_off_c, 12, 71, 127
2, 22873, Note_on_c, 2, 74, 127
2, 22873, Note_on_c, 10, 57, 127
2, 23063, Note_on_c, 12, 59, 127
2, 23251, Note_off_c, 12, 59, 127
2, 23251, Note_off_c, 2, 74, 127
2, 23253, Note_on_c, 1, 73, 127
2, 23253, Note_on_c, 1, 61, 127
2, 23427, Note_off_c, 10, 57, 127
2, 23441, Note_off_c, 1, 61, 127
2, 23443, Note_on_c, 10, 57, 127
2, 23631, Note_off_c, 1, 73, 127
2, 23633, Note_on_c, 10, 81, 127
2, 23633, Note_on_c, 6, 66, 127
2, 23819, Note_off_c, 10, 57, 127
2, 23824, Note_on_c, 1, 61, 127
2, 24011, Note_off_c, 6, 66, 127
2, 24012, Note_off_c, 1, 61, 127
2, 24014, Note_on_c, 6, 66, 127
2, 24014, Note_on_c, 10, 57, 127
2, 24202, Note_off_c, 10, 57, 127
2, 24204, Note_on_c, 6, 54, 127
2, 24391, Note_off_c, 10, 81, 127
2, 24392, Note_off_c, 6, 54, 127
2, 24392, Note_off_c, 6, 66, 127
2, 24394, Note_on_c, 8, 80, 127
2, 24394, Note_on_c, 6, 66, 127
2, 24394, Note_on_c, 1, 61, 127
2, 24582, Note_off_c, 6, 66, 127
2, 24584, Note_on_c, 3, 63, 127
2, 24772, Note_off_c, 3, 63, 127
2, 24774, Note_on_c, 4, 64, 127
2, 25146, Note_off_c, 1, 61, 127
2, 25152, Note_off_c, 8, 80, 127
2, 25154, Note_on_c, 7, 79, 127
2, 25342, Note_off_c, 4, 64, 127
2, 25344, Note_on_c, 4, 64, 127
2, 25534, Note_on_c, 6, 66, 127
2, 25722, Note_off_c, 6, 66, 127
2, 25724, Note_on_c, 7, 67, 127
2, 25912, Note_off_c, 7, 67, 127
2, 25912, Note_off_c, 7, 79, 127
2, 25914, Note_on_c, 6, 78, 127
2, 25914, Note_on_c, 10, 69, 127
2, 26102, Note_off_c, 10, 69, 127
2, 26104, Note_on_c, 7, 67, 127
2, 26292, Note_off_c, 7, 67, 127
2, 26294, Note_off_c, 4, 64, 127
2, 26295, Note_on_c, 6, 66, 127
2, 26295, Note_on_c, 10, 57, 127
2, 26483, Note_off_c, 6, 66, 127
2, 26485, Note_on_c, 10, 69, 127
2, 26671, Note_off_c, 10, 57, 127
2, 26672, Note_off_c, 6, 78, 127
2, 26673, Note_off_c, 10, 69, 127
2, 26675, Note_on_c, 12, 83, 127
2, 26675, Note_on_c, 2, 62, 127
2, 26863, Note_off_c, 2, 62, 127
2, 26865, Note_on_c, 1, 61, 127
2, 27053, Note_off_c, 1, 61, 127
2, 27055, Note_on_c, 12, 59, 127
2, 27055, Note_on_c, 2, 62, 127
2, 27243, Note_off_c, 12, 59, 127
2, 27245, Note_on_c, 10, 69, 127
2, 27433, Note_off_c, 10, 69, 127
2, 27433, Note_off_c, 12, 83, 127
2, 27435, Note_on_c, 4, 76, 127
2, 27435, Note_on_c, 8, 68, 127
2, 27623, Note_off_c, 8, 68, 127
2, 27625, Note_on_c, 6, 66, 127
2, 27813, Note_off_c, 6, 66, 127
2, 27813, Note_off_c, 2, 62, 127
2, 27815, Note_on_c, 4, 64, 127
2, 27815, Note_on_c, 8, 56, 127
2, 28003, Note_off_c, 4, 64, 127
2, 28005, Note_on_c, 8, 68, 127
2, 28191, Note_off_c, 8, 56, 127
2, 28193, Note_off_c, 8, 68, 127
2, 28193, Note_off_c, 4, 76, 127
2, 28195, Note_on_c, 10, 81, 127
2, 28195, Note_on_c, 1, 61, 127
2, 28383, Note_off_c, 1, 61, 127
2, 28385, Note_on_c, 12, 59, 127
2, 28573, Note_off_c, 12, 59, 127
2, 28576, Note_on_c, 10, 57, 127
2, 28576, Note_on_c, 1, 61, 127
2, 28764, Note_off_c, 10, 57, 127
2, 28766, Note_on_c, 7, 67, 127
2, 28954, Note_off_c, 7, 67, 127
2, 28954, Note_off_c, 1, 61, 127
2, 28956, Note_on_c, 6, 66, 127
2, 28956, Note_on_c, 2, 62, 127
2, 29144, Note_off_c, 6, 66, 127
2, 29146, Note_on_c, 4, 64, 127
2, 29334, Note_off_c, 4, 64, 127
2, 29334, Note_off_c, 2, 62, 127
2, 29336, Note_on_c, 2, 62, 127
2, 29336, Note_on_c, 12, 59, 127
2, 29524, Note_off_c, 2, 62, 127
2, 29526, Note_on_c, 6, 66, 127
2, 29712, Note_off_c, 12, 59, 127
2, 29713, Note_off_c, 10, 81, 127
2, 29714, Note_off_c, 6, 66, 127
2, 29716, Note_on_c, 8, 80, 127
2, 29716, Note_on_c, 12, 59, 127
2, 29906, Note_on_c, 6, 66, 127
2, 30092, Note_off_c, 12, 59, 127
2, 30094, Note_off_c, 6, 66, 127
2, 30096, Note_on_c, 4, 64, 127
2, 30096, Note_on_c, 4, 52, 127
2, 30284, Note_off_c, 4, 64, 127
2, 30286, Note_on_c, 2, 62, 127
2, 30474, Note_off_c, 2, 62, 127
2, 30474, Note_off_c, 4, 52, 127
2, 30476, Note_on_c, 1, 61, 127
2, 30476, Note_on_c, 10, 57, 127
2, 30664, Note_off_c, 8, 80, 127
2, 30666, Note_on_c, 6, 78, 127
2, 30854, Note_off_c, 6, 78, 127
2, 30854, Note_off_c, 10, 57, 127
2, 30856, Note_on_c, 5, 77, 127
2, 30856, Note_on_c, 8, 56, 127
2, 31044, Note_off_c, 5, 77, 127
2, 31047, Note_on_c, 8, 80, 127
2, 31228, Note_off_c, 1, 61, 127
2, 31234, Note_off_c, 8, 56, 127
2, 31235, Note_off_c, 8, 80, 127
2, 31237, Note_on_c, 6, 78, 127
2, 31237, Note_on_c, 10, 57, 127
2, 31427, Note_on_c, 4, 76, 127
2, 31615, Note_off_c, 4, 76, 127
2, 31615, Note_off_c, 10, 57, 127
2, 31617, Note_on_c, 2, 74, 127
2, 31617, Note_on_c, 6, 54, 127
2, 31805, Note_off_c, 2, 74, 127
2, 31807, Note_on_c, 1, 73, 127
2, 31995, Note_off_c, 1, 73, 127
2, 31995, Note_off_c, 6, 54, 127
2, 31997, Note_on_c, 12, 71, 127
2, 31997, Note_on_c, 8, 56, 127
2, 32185, Note_off_c, 12, 71, 127
2, 32187, Note_on_c, 10, 69, 127
2, 32375, Note_off_c, 10, 69, 127
2, 32375, Note_off_c, 8, 56, 127
2, 32377, Note_on_c, 8, 68, 127
2, 32377, Note_on_c, 12, 59, 127
2, 32565, Note_off_c, 8, 68, 127
2, 32567, Note_on_c, 12, 71, 127
2, 32755, Note_off_c, 12, 59, 127
2, 32755, Note_off_c, 6, 78, 127
2, 32757, Note_on_c, 5, 77, 127
2, 32757, Note_on_c, 1, 61, 127
2, 32943, Note_off_c, 12, 71, 127
2, 32947, Note_on_c, 2, 74, 127
2, 33135, Note_off_c, 2, 74, 127
2, 33137, Note_on_c, 1, 73, 127
2, 33137, Note_on_c, 1, 49, 127
2, 33325, Note_off_c, 1, 73, 127
2, 33328, Note_on_c, 12, 71, 127
2, 33509, Note_off_c, 1, 61, 127
2, 33515, Note_off_c, 1, 49, 127
2, 33515, Note_off_c, 5, 77, 127
2, 33516, Note_off_c, 12, 71, 127
2, 33526, Note_on_c, 6, 78, 127
2, 33526, Note_on_c, 10, 69, 127
2, 33526, Note_on_c, 6, 54, 127
2, 33714, Note_off_c, 6, 78, 127
2, 33716, Note_on_c, 8, 80, 127
2, 33904, Note_off_c, 8, 80, 127
2, 33904, Note_off_c, 6, 54, 127
2, 33906, Note_on_c, 10, 81, 127
2, 33906, Note_on_c, 6, 42, 127
2, 34094, Note_off_c, 10, 81, 127
2, 34096, Note_on_c, 6, 78, 127
2, 34284, Note_off_c, 6, 78, 127
2, 34284, Note_off_c, 6, 42, 127
2, 34286, Note_on_c, 2, 74, 127
2, 34286, Note_on_c, 6, 54, 127
2, 34474, Note_off_c, 10, 69, 127
2, 34476, Note_on_c, 1, 73, 127
2, 34664, Note_off_c, 1, 73, 127
2, 34664, Note_off_c, 2, 74, 127
2, 34666, Note_on_c, 2, 74, 127
2, 34666, Note_on_c, 12, 71, 127
2, 34854, Note_off_c, 12, 71, 127
2, 34856, Note_on_c, 10, 69, 127
2, 35044, Note_off_c, 10, 69, 127
2, 35044, Note_off_c, 2, 74, 127
2, 35044, Note_off_c, 6, 54, 127
2, 35046, Note_on_c, 2, 74, 127
2, 35046, Note_on_c, 8, 68, 127
2, 35046, Note_on_c, 5, 53, 127
2, 35234, Note_off_c, 2, 74, 127
2, 35236, Note_on_c, 0, 72, 127
2, 35424, Note_off_c, 0, 72, 127
2, 35426, Note_on_c, 1, 73, 127
2, 35614, Note_off_c, 8, 68, 127
2, 35616, Note_on_c, 8, 56, 127
2, 35804, Note_off_c, 8, 56, 127
2, 35804, Note_off_c, 5, 53, 127
2, 35807, Note_on_c, 1, 61, 127
2, 35807, Note_on_c, 4, 52, 127
2, 35901, Note_off_c, 1, 73, 127
2, 35997, Note_on_c, 1, 73, 127
2, 36185, Note_off_c, 1, 73, 127
2, 36187, Note_on_c, 3, 75, 127
2, 36375, Note_off_c, 3, 75, 127
2, 36377, Note_on_c, 4, 76, 127
2, 36565, Note_off_c, 4, 76, 127
2, 36565, Note_off_c, 4, 52, 127
2, 36567, Note_on_c, 6, 78, 127
2, 36567, Note_on_c, 3, 51, 127
2, 36755, Note_off_c, 6, 78, 127
2, 36757, Note_on_c, 4, 76, 127
2, 36945, Note_off_c, 4, 76, 127
2, 36945, Note_off_c, 1, 61, 127
2, 36947, Note_on_c, 3, 75, 127
2, 36947, Note_on_c, 6, 54, 127
2, 37135, Note_off_c, 3, 75, 127
2, 37137, Note_on_c, 6, 78, 127
2, 37323, Note_off_c, 6, 54, 127
2, 37325, Note_off_c, 6, 78, 127
2, 37325, Note_off_c, 3, 51, 127
2, 37327, Note_on_c, 12, 71, 127
2, 37327, Note_on_c, 8, 56, 127
2, 37515, Note_off_c, 12, 71, 127
2, 37517, Note_on_c, 10, 69, 127
2, 37705, Note_off_c, 10, 69, 127
2, 37707, Note_on_c, 8, 68, 127
2, 37707, Note_on_c, 12, 59, 127
2, 37895, Note_off_c, 8, 68, 127
2, 37897, Note_on_c, 6, 78, 127
2, 38085, Note_off_c, 6, 78, 127
2, 38085, Note_off_c, 8, 56, 127
2, 38088, Note_on_c, 5, 77, 127
2, 38088, Note_on_c, 1, 49, 127
2, 38276, Note_off_c, 5, 77, 127
2, 38278, Note_on_c, 3, 75, 127
2, 38465, Note_off_c, 12, 59, 127
2, 38466, Note_off_c, 3, 75, 127
2, 38468, Note_on_c, 1, 73, 127
2, 38468, Note_on_c, 5, 53, 127
2, 38656, Note_off_c, 1, 73, 127
2, 38658, Note_on_c, 12, 83, 127
2, 38844, Note_off_c, 5, 53, 127
2, 38846, Note_off_c, 12, 83, 127
2, 38846, Note_off_c, 1, 49, 127
2, 38848, Note_on_c, 10, 81, 127
2, 38848, Note_on_c, 6, 54, 127
2, 39036, Note_off_c, 10, 81, 127
2, 39038, Note_on_c, 8, 80, 127
2, 39226, Note_off_c, 8, 80, 127
2, 39228, Note_on_c, 6, 78, 127
2, 39228, Note_on_c, 10, 57, 127
2, 39416, Note_off_c, 6, 78, 127
2, 39418, Note_on_c, 5, 77, 127
2, 39606, Note_off_c, 5, 77, 127
2, 39606, Note_off_c, 6, 54, 127
2, 39608, Note_on_c, 6, 78, 127
2, 39608, Note_on_c, 2, 50, 127
2, 39796, Note_off_c, 6, 78, 127
2, 39798, Note_on_c, 5, 77, 127
2, 39986, Note_off_c, 5, 77, 127
2, 39986, Note_off_c, 2, 50, 127
2, 39986, Note_off_c, 10, 57, 127
2, 39988, Note_on_c, 6, 78, 127
2, 39988, Note_on_c, 8, 56, 127
2, 39988, Note_on_c, 12, 47, 127
2, 40176, Note_off_c, 8, 56, 127
2, 40176, Note_off_c, 6, 78, 127
2, 40178, Note_on_c, 8, 80, 127
2, 40178, Note_on_c, 6, 54, 127
2, 40366, Note_off_c, 6, 54, 127
2, 40366, Note_off_c, 8, 80, 127
2, 40366, Note_off_c, 12, 47, 127
2, 40368, Note_on_c, 10, 81, 127
2, 40368, Note_on_c, 5, 53, 127
2, 40368, Note_on_c, 1, 49, 127
2, 40496, Note_off_c, 10, 81, 127
2, 40499, Note_on_c, 8, 80, 127
2, 40572, Note_off_c, 8, 80, 127
2, 40574, Note_on_c, 10, 81, 127
2, 40647, Note_off_c, 10, 81, 127
2, 40650, Note_on_c, 8, 80, 127
2, 40746, Note_off_c, 5, 53, 127
2, 40749, Note_on_c, 12, 59, 127
2, 40933, Note_off_c, 8, 80, 127
2, 40939, Note_on_c, 6, 78, 127
2, 41126, Note_off_c, 1, 49, 127
2, 41127, Note_off_c, 6, 78, 127
2, 41127, Note_off_c, 12, 59, 127
2, 41129, Note_on_c, 6, 78, 127
2, 41129, Note_on_c, 10, 57, 127
2, 41129, Note_on_c, 6, 54, 127
2, 41317, Note_off_c, 10, 57, 127
2, 41319, Note_on_c, 2, 74, 127
2, 41507, Note_off_c, 2, 74, 127
2, 41509, Note_on_c, 1, 73, 127
2, 41697, Note_off_c, 1, 73, 127
2, 41699, Note_on_c, 12, 71, 127
2, 41881, Note_off_c, 6, 54, 127
2, 41887, Note_off_c, 12, 71, 127
2, 41889, Note_on_c, 10, 69, 127
2, 42077, Note_off_c, 10, 69, 127
2, 42079, Note_on_c, 8, 68, 127
2, 42267, Note_off_c, 8, 68, 127
2, 42267, Note_off_c, 6, 78, 127
2, 42269, Note_on_c, 10, 81, 127
2, 42269, Note_on_c, 6, 66, 127
2, 42457, Note_off_c, 6, 66, 127
2, 42459, Note_on_c, 4, 64, 127
2, 42647, Note_off_c, 4, 64, 127
2, 42647, Note_off_c, 10, 81, 127
2, 42649, Note_on_c, 10, 81, 127
2, 42649, Note_on_c, 3, 63, 127
2, 42840, Note_on_c, 1, 61, 127
2, 43027, Note_off_c, 10, 81, 127
2, 43028, Note_off_c, 1, 61, 127
2, 43030, Note_on_c, 8, 80, 127
2, 43030, Note_on_c, 12, 59, 127
2, 43218, Note_off_c, 12, 59, 127
2, 43220, Note_on_c, 10, 57, 127
2, 43401, Note_off_c, 3, 63, 127
2, 43408, Note_off_c, 10, 57, 127
2, 43410, Note_on_c, 8, 56, 127
2, 43598, Note_off_c, 8, 56, 127
2, 43600, Note_on_c, 6, 54, 127
2, 43788, Note_off_c, 6, 54, 127
2, 43788, Note_off_c, 8, 80, 127
2, 43790, Note_on_c, 8, 80, 127
2, 43790, Note_on_c, 4, 76, 127
2, 43790, Note_on_c, 4, 52, 127
2, 43978, Note_off_c, 4, 52, 127
2, 43980, Note_on_c, 11, 58, 127
2, 44168, Note_off_c, 11, 58, 127
2, 44168, Note_off_c, 8, 80, 127
2, 44170, Note_on_c, 8, 80, 127
2, 44170, Note_on_c, 12, 47, 127
2, 44358, Note_off_c, 4, 76, 127
2, 44360, Note_on_c, 4, 76, 127
2, 44548, Note_off_c, 4, 76, 127
2, 44548, Note_off_c, 8, 80, 127
2, 44550, Note_on_c, 6, 78, 127
2, 44550, Note_on_c, 3, 75, 127
2, 44738, Note_off_c, 3, 75, 127
2, 44740, Note_on_c, 1, 73, 127
2, 44928, Note_off_c, 1, 73, 127
2, 44930, Note_on_c, 12, 71, 127
2, 45118, Note_off_c, 12, 71, 127
2, 45120, Note_off_c, 12, 47, 127
2, 45120, Note_on_c, 10, 69, 127
2, 45308, Note_off_c, 10, 69, 127
2, 45308, Note_off_c, 6, 78, 127
2, 45311, Note_on_c, 12, 83, 127
2, 45311, Note_on_c, 8, 68, 127
2, 45499, Note_off_c, 8, 68, 127
2, 45501, Note_on_c, 6, 66, 127
2, 45689, Note_off_c, 6, 66, 127
2, 45689, Note_off_c, 12, 83, 127
2, 45691, Note_on_c, 12, 83, 127
2, 45691, Note_on_c, 4, 64, 127
2, 45881, Note_on_c, 3, 63, 127
2, 46069, Note_off_c, 3, 63, 127
2, 46069, Note_off_c, 12, 83, 127
2, 46071, Note_on_c, 10, 81, 127
2, 46071, Note_on_c, 1, 61, 127
2, 46259, Note_off_c, 1, 61, 127
2, 46261, Note_on_c, 12, 59, 127
2, 46449, Note_off_c, 12, 59, 127
2, 46451, Note_on_c, 10, 57, 127
2, 46639, Note_off_c, 10, 57, 127
2, 46641, Note_off_c, 4, 64, 127
2, 46641, Note_on_c, 8, 56, 127
2, 46829, Note_off_c, 8, 56, 127
2, 46829, Note_off_c, 10, 81, 127
2, 46831, Note_on_c, 10, 81, 127
2, 46831, Note_on_c, 6, 78, 127
2, 46831, Note_on_c, 6, 54, 127
2, 47019, Note_off_c, 6, 54, 127
2, 47021, Note_on_c, 3, 63, 127
2, 47209, Note_off_c, 3, 63, 127
2, 47209, Note_off_c, 10, 81, 127
2, 47211, Note_on_c, 10, 81, 127
2, 47211, Note_on_c, 4, 52, 127
2, 47399, Note_off_c, 6, 78, 127
2, 47401, Note_on_c, 6, 78, 127
2, 47589, Note_off_c, 6, 78, 127
2, 47589, Note_off_c, 10, 81, 127
2, 47592, Note_on_c, 8, 80, 127
2, 47592, Note_on_c, 4, 76, 127
2, 47780, Note_off_c, 4, 76, 127
2, 47782, Note_on_c, 2, 74, 127
2, 47970, Note_off_c, 2, 74, 127
2, 47972, Note_on_c, 1, 73, 127
2, 48160, Note_off_c, 1, 73, 127
2, 48161, Note_off_c, 4, 52, 127
2, 48162, Note_on_c, 12, 71, 127
2, 48350, Note_off_c, 8, 80, 127
2, 48351, Note_off_c, 12, 71, 127
2, 48360, Note_on_c, 4, 76, 127
2, 48360, Note_on_c, 10, 69, 127
2, 48548, Note_off_c, 10, 69, 127
2, 48550, Note_on_c, 8, 68, 127
2, 48738, Note_off_c, 8, 68, 127
2, 48738, Note_off_c, 4, 76, 127
2, 48740, Note_on_c, 4, 76, 127
2, 48740, Note_on_c, 6, 66, 127
2, 48930, Note_on_c, 4, 64, 127
2, 49118, Note_off_c, 4, 64, 127
2, 49118, Note_off_c, 4, 76, 127
2, 49120, Note_on_c, 10, 69, 127
2, 49120, Note_on_c, 2, 62, 127
2, 49308, Note_off_c, 2, 62, 127
2, 49310, Note_on_c, 1, 61, 127
2, 49498, Note_off_c, 1, 61, 127
2, 49498, Note_off_c, 10, 69, 127
2, 49500, Note_on_c, 2, 74, 127
2, 49500, Note_on_c, 12, 59, 127
2, 49688, Note_off_c, 12, 59, 127
2, 49690, Note_on_c, 10, 57, 127
2, 49878, Note_off_c, 10, 57, 127
2, 49878, Note_off_c, 2, 74, 127
2, 49878, Note_off_c, 6, 66, 127
2, 49880, Note_on_c, 2, 74, 127
2, 49880, Note_on_c, 12, 71, 127
2, 49880, Note_on_c, 8, 56, 127
2, 50068, Note_off_c, 8, 56, 127
2, 50071, Note_on_c, 12, 59, 127
2, 50258, Note_off_c, 12, 71, 127
2, 50258, Note_off_c, 2, 74, 127
2, 50259, Note_off_c, 12, 59, 127
2, 50261, Note_on_c, 2, 74, 127
2, 50261, Note_on_c, 12, 71, 127
2, 50261, Note_on_c, 10, 45, 127
2, 50449, Note_off_c, 10, 45, 127
2, 50451, Note_on_c, 12, 47, 127
2, 50639, Note_off_c, 12, 47, 127
2, 50639, Note_off_c, 12, 71, 127
2, 50639, Note_off_c, 2, 74, 127
2, 50641, Note_on_c, 1, 73, 127
2, 50641, Note_on_c, 4, 64, 127
2, 50641, Note_on_c, 1, 49, 127
2, 50829, Note_off_c, 1, 49, 127
2, 50831, Note_on_c, 10, 45, 127
2, 51019, Note_off_c, 10, 45, 127
2, 51019, Note_off_c, 4, 64, 127
2, 51021, Note_on_c, 10, 69, 127
2, 51021, Note_on_c, 6, 54, 127
2, 51209, Note_off_c, 1, 73, 127
2, 51211, Note_on_c, 4, 76, 127
2, 51399, Note_off_c, 4, 76, 127
2, 51399, Note_off_c, 6, 54, 127
2, 51401, Note_on_c, 2, 74, 127
2, 51401, Note_on_c, 6, 54, 127
2, 51589, Note_off_c, 2, 74, 127
2, 51591, Note_on_c, 1, 73, 127
2, 51779, Note_off_c, 1, 73, 127
2, 51779, Note_off_c, 6, 54, 127
2, 51779, Note_off_c, 10, 69, 127
2, 51781, Note_on_c, 12, 71, 127
2, 51781, Note_on_c, 8, 68, 127
2, 51781, Note_on_c, 6, 54, 127
2, 51969, Note_off_c, 6, 54, 127
2, 51969, Note_off_c, 12, 71, 127
2, 51971, Note_on_c, 1, 73, 127
2, 51971, Note_on_c, 3, 51, 127
2, 52159, Note_off_c, 3, 51, 127
2, 52159, Note_off_c, 1, 73, 127
2, 52161, Note_on_c, 2, 74, 127
2, 52161, Note_on_c, 4, 52, 127
2, 52349, Note_off_c, 2, 74, 127
2, 52352, Note_on_c, 12, 71, 127
2, 52539, Note_off_c, 8, 68, 127
2, 52540, Note_off_c, 12, 71, 127
2, 52542, Note_on_c, 4, 64, 127
2, 52542, Note_on_c, 7, 67, 127
2, 52729, Note_off_c, 4, 52, 127
2, 52732, Note_on_c, 4, 52, 127
2, 52920, Note_off_c, 4, 52, 127
2, 52920, Note_off_c, 4, 64, 127
2, 52922, Note_on_c, 4, 76, 127
2, 52922, Note_on_c, 6, 54, 127
2, 53110, Note_off_c, 6, 54, 127
2, 53112, Note_on_c, 7, 55, 127
2, 53300, Note_off_c, 7, 55, 127
2, 53300, Note_off_c, 7, 67, 127
2, 53302, Note_on_c, 6, 66, 127
2, 53302, Note_on_c, 10, 57, 127
2, 53490, Note_off_c, 10, 57, 127
2, 53492, Note_on_c, 7, 55, 127
2, 53680, Note_off_c, 7, 55, 127
2, 53680, Note_off_c, 4, 76, 127
2, 53682, Note_on_c, 10, 69, 127
2, 53682, Note_on_c, 6, 54, 127
2, 53870, Note_off_c, 6, 54, 127
2, 53872, Note_on_c, 10, 57, 127
2, 54058, Note_off_c, 10, 69, 127
2, 54060, Note_off_c, 10, 57, 127
2, 54060, Note_off_c, 6, 66, 127
2, 54062, Note_on_c, 12, 71, 127
2, 54062, Note_on_c, 2, 50, 127
2, 54250, Note_off_c, 2, 50, 127
2, 54252, Note_on_c, 1, 49, 127
2, 54440, Note_off_c, 1, 49, 127
2, 54442, Note_on_c, 2, 74, 127
2, 54442, Note_on_c, 12, 47, 127
2, 54630, Note_off_c, 12, 47, 127
2, 54632, Note_on_c, 10, 57, 127
2, 54820, Note_off_c, 10, 57, 127
2, 54820, Note_off_c, 12, 71, 127
2, 54823, Note_on_c, 4, 64, 127
2, 54823, Note_on_c, 8, 56, 127
2, 55011, Note_off_c, 8, 56, 127
2, 55013, Note_on_c, 6, 54, 127
2, 55200, Note_off_c, 2, 74, 127
2, 55201, Note_off_c, 6, 54, 127
2, 55203, Note_on_c, 8, 68, 127
2, 55203, Note_on_c, 4, 52, 127
2, 55391, Note_off_c, 4, 52, 127
2, 55393, Note_on_c, 8, 56, 127
2, 55579, Note_off_c, 8, 68, 127
2, 55581, Note_off_c, 8, 56, 127
2, 55581, Note_off_c, 4, 64, 127
2, 55583, Note_on_c, 10, 69, 127
2, 55583, Note_on_c, 1, 49, 127
2, 55771, Note_off_c, 1, 49, 127
2, 55773, Note_on_c, 12, 47, 127
2, 55961, Note_off_c, 12, 47, 127
2, 55963, Note_on_c, 1, 73, 127
2, 55963, Note_on_c, 10, 45, 127
2, 56151, Note_off_c, 10, 45, 127
2, 56153, Note_on_c, 7, 55, 127
2, 56341, Note_off_c, 7, 55, 127
2, 56341, Note_off_c, 1, 73, 127
2, 56343, Note_on_c, 2, 74, 127
2, 56343, Note_on_c, 6, 54, 127
2, 56531, Note_off_c, 6, 54, 127
2, 56531, Note_off_c, 2, 74, 127
2, 56533, Note_on_c, 1, 73, 127
2, 56533, Note_on_c, 4, 52, 127
2, 56721, Note_off_c, 4, 52, 127
2, 56721, Note_off_c, 1, 73, 127
2, 56723, Note_on_c, 12, 71, 127
2, 56723, Note_on_c, 2, 50, 127
2, 56911, Note_off_c, 2, 50, 127
2, 56911, Note_off_c, 12, 71, 127
2, 56913, Note_on_c, 1, 73, 127
2, 56913, Note_on_c, 6, 54, 127
2, 57101, Note_off_c, 6, 54, 127
2, 57101, Note_off_c, 1, 73, 127
2, 57101, Note_off_c, 10, 69, 127
2, 57104, Note_on_c, 2, 74, 127
2, 57104, Note_on_c, 8, 68, 127
2, 57104, Note_on_c, 12, 47, 127
2, 57292, Note_off_c, 12, 47, 127
2, 57292, Note_off_c, 2, 74, 127
2, 57294, Note_on_c, 1, 73, 127
2, 57294, Note_on_c, 6, 54, 127
2, 57482, Note_off_c, 6, 54, 127
2, 57482, Note_off_c, 1, 73, 127
2, 57484, Note_on_c, 2, 74, 127
2, 57484, Note_on_c, 4, 52, 127
2, 57672, Note_off_c, 4, 52, 127
2, 57672, Note_off_c, 2, 74, 127
2, 57674, Note_on_c, 4, 76, 127
2, 57674, Note_on_c, 2, 50, 127
2, 57862, Note_off_c, 2, 50, 127
2, 57862, Note_off_c, 4, 76, 127
2, 57862, Note_off_c, 8, 68, 127
2, 57872, Note_on_c, 10, 69, 127
2, 57872, Note_on_c, 1, 49, 127
2, 58060, Note_off_c, 1, 49, 127
2, 58062, Note_on_c, 12, 71, 127
2, 58062, Note_on_c, 12, 47, 127
2, 58250, Note_off_c, 12, 47, 127
2, 58250, Note_off_c, 12, 71, 127
2, 58252, Note_on_c, 1, 73, 127
2, 58252, Note_on_c, 10, 45, 127
2, 58426, Note_off_c, 10, 69, 127
2, 58440, Note_off_c, 10, 45, 127
2, 58440, Note_off_c, 1, 73, 127
2, 58442, Note_on_c, 10, 69, 127
2, 58442, Note_on_c, 1, 49, 127
2, 58630, Note_off_c, 1, 49, 127
2, 58630, Note_off_c, 10, 69, 127
2, 58632, Note_on_c, 6, 78, 127
2, 58632, Note_on_c, 10, 57, 127
2, 58632, Note_on_c, 2, 50, 127
2, 58820, Note_off_c, 2, 50, 127
2, 58822, Note_on_c, 4, 52, 127
2, 59010, Note_off_c, 4, 52, 127
2, 59010, Note_off_c, 6, 78, 127
2, 59012, Note_on_c, 6, 78, 127
2, 59012, Note_on_c, 2, 50, 127
2, 59200, Note_off_c, 2, 50, 127
2, 59202, Note_on_c, 1, 49, 127
2, 59390, Note_off_c, 1, 49, 127
2, 59390, Note_off_c, 6, 78, 127
2, 59390, Note_off_c, 10, 57, 127
2, 59392, Note_on_c, 6, 78, 127
2, 59392, Note_on_c, 8, 56, 127
2, 59392, Note_on_c, 12, 47, 127
2, 59580, Note_off_c, 12, 47, 127
2, 59580, Note_off_c, 6, 78, 127
2, 59583, Note_on_c, 3, 75, 127
2, 59583, Note_on_c, 10, 45, 127
2, 59771, Note_off_c, 10, 45, 127
2, 59771, Note_off_c, 3, 75, 127
2, 59773, Note_on_c, 4, 76, 127
2, 59773, Note_on_c, 8, 44, 127
2, 59961, Note_off_c, 8, 44, 127
2, 59963, Note_on_c, 12, 47, 127
2, 60150, Note_off_c, 8, 56, 127
2, 60151, Note_off_c, 12, 47, 127
2, 60153, Note_on_c, 7, 55, 127
2, 60153, Note_on_c, 1, 49, 127
2, 60341, Note_off_c, 4, 76, 127
2, 60343, Note_on_c, 4, 76, 127
2, 60531, Note_off_c, 4, 76, 127
2, 60531, Note_off_c, 1, 49, 127
2, 60533, Note_on_c, 6, 78, 127
2, 60533, Note_on_c, 4, 52, 127
2, 60721, Note_off_c, 6, 78, 127
2, 60723, Note_on_c, 7, 79, 127
2, 60911, Note_off_c, 7, 79, 127
2, 60911, Note_off_c, 7, 55, 127
2, 60913, Note_on_c, 10, 81, 127
2, 60913, Note_on_c, 6, 54, 127
2, 61101, Note_off_c, 10, 81, 127
2, 61103, Note_on_c, 7, 79, 127
2, 61291, Note_off_c, 7, 79, 127
2, 61291, Note_off_c, 4, 52, 127
2, 61293, Note_on_c, 6, 78, 127
2, 61293, Note_on_c, 10, 45, 127
2, 61481, Note_off_c, 6, 78, 127
2, 61483, Note_on_c, 10, 81, 127
2, 61669, Note_off_c, 10, 45, 127
2, 61671, Note_off_c, 10, 81, 127
2, 61671, Note_off_c, 6, 54, 127
2, 61673, Note_on_c, 2, 74, 127
2, 61673, Note_on_c, 12, 59, 127
2, 61861, Note_off_c, 2, 74, 127
2, 61864, Note_on_c, 1, 73, 127
2, 62052, Note_off_c, 1, 73, 127
2, 62054, Note_on_c, 12, 71, 127
2, 62054, Note_on_c, 2, 50, 127
2, 62242, Note_off_c, 12, 71, 127
2, 62244, Note_on_c, 10, 81, 127
2, 62431, Note_off_c, 12, 59, 127
2, 62432, Note_off_c, 10, 81, 127
2, 62434, Note_on_c, 8, 80, 127
2, 62434, Note_on_c, 4, 52, 127
2, 62622, Note_off_c, 8, 80, 127
2, 62624, Note_on_c, 6, 78, 127
2, 62812, Note_off_c, 6, 78, 127
2, 62812, Note_off_c, 2, 50, 127
2, 62814, Note_on_c, 4, 76, 127
2, 62814, Note_on_c, 8, 44, 127
2, 63002, Note_off_c, 4, 76, 127
2, 63004, Note_on_c, 8, 80, 127
2, 63190, Note_off_c, 8, 44, 127
2, 63192, Note_off_c, 8, 80, 127
2, 63192, Note_off_c, 4, 52, 127
2, 63194, Note_on_c, 1, 73, 127
2, 63194, Note_on_c, 10, 57, 127
2, 63382, Note_off_c, 1, 73, 127
2, 63384, Note_on_c, 12, 71, 127
2, 63572, Note_off_c, 12, 71, 127
2, 63574, Note_on_c, 10, 69, 127
2, 63574, Note_on_c, 1, 49, 127
2, 63762, Note_off_c, 10, 69, 127
2, 63764, Note_on_c, 7, 79, 127
2, 63952, Note_off_c, 7, 79, 127
2, 63952, Note_off_c, 10, 57, 127
2, 63954, Note_on_c, 6, 78, 127
2, 63954, Note_on_c, 2, 50, 127
2, 64142, Note_off_c, 6, 78, 127
2, 64144, Note_on_c, 4, 76, 127
2, 64332, Note_off_c, 4, 76, 127
2, 64332, Note_off_c, 1, 49, 127
2, 64335, Note_on_c, 2, 74, 127
2, 64335, Note_on_c, 12, 47, 127
2, 64523, Note_off_c, 12, 47, 127
2, 64523, Note_off_c, 2, 74, 127
2, 64525, Note_on_c, 6, 78, 127
2, 64525, Note_on_c, 10, 45, 127
2, 64713, Note_off_c, 10, 45, 127
2, 64713, Note_off_c, 6, 78, 127
2, 64715, Note_on_c, 12, 71, 127
2, 64715, Note_on_c, 8, 44, 127
2, 64902, Note_off_c, 2, 50, 127
2, 64903, Note_off_c, 12, 71, 127
2, 64905, Note_on_c, 6, 78, 127
2, 64905, Note_on_c, 2, 50, 127
2, 65093, Note_off_c, 2, 50, 127
2, 65093, Note_off_c, 6, 78, 127
2, 65095, Note_on_c, 4, 76, 127
2, 65095, Note_on_c, 1, 49, 127
2, 65283, Note_off_c, 1, 49, 127
2, 65283, Note_off_c, 4, 76, 127
2, 65285, Note_on_c, 2, 74, 127
2, 65285, Note_on_c, 12, 47, 127
2, 65473, Note_off_c, 12, 47, 127
2, 65473, Note_off_c, 2, 74, 127
2, 65473, Note_off_c, 8, 44, 127
2, 65475, Note_on_c, 1, 73, 127
2, 65475, Note_on_c, 10, 45, 127
2, 65663, Note_off_c, 1, 73, 127
2, 65665, Note_on_c, 12, 71, 127
2, 65665, Note_on_c, 12, 47, 127
2, 65712, Note_off_c, 10, 45, 127
2, 65853, Note_off_c, 12, 47, 127
2, 65853, Note_off_c, 12, 71, 127
2, 65855, Note_on_c, 10, 69, 127
2, 65855, Note_on_c, 1, 49, 127
2, 66043, Note_off_c, 1, 49, 127
2, 66043, Note_off_c, 10, 69, 127
2, 66045, Note_on_c, 1, 73, 127
2, 66045, Note_on_c, 10, 45, 127
2, 66233, Note_off_c, 10, 45, 127
2, 66233, Note_off_c, 1, 73, 127
2, 66235, Note_on_c, 6, 66, 127
2, 66235, Note_on_c, 2, 50, 127
2, 66423, Note_off_c, 2, 50, 127
2, 66423, Note_off_c, 6, 66, 127
2, 66425, Note_on_c, 4, 64, 127
2, 66425, Note_on_c, 4, 52, 127
2, 66613, Note_off_c, 4, 52, 127
2, 66613, Note_off_c, 4, 64, 127
2, 66616, Note_on_c, 2, 62, 127
2, 66616, Note_on_c, 6, 54, 127
2, 66804, Note_off_c, 6, 54, 127
2, 66804, Note_off_c, 2, 62, 127
2, 66806, Note_on_c, 6, 66, 127
2, 66806, Note_on_c, 2, 50, 127
2, 66994, Note_off_c, 2, 50, 127
2, 66994, Note_off_c, 6, 66, 127
2, 66996, Note_on_c, 12, 59, 127
2, 66996, Note_on_c, 8, 56, 127
2, 67184, Note_off_c, 8, 56, 127
2, 67184, Note_off_c, 12, 59, 127
2, 67186, Note_on_c, 1, 61, 127
2, 67186, Note_on_c, 10, 57, 127
2, 67374, Note_off_c, 10, 57, 127
2, 67374, Note_off_c, 1, 61, 127
2, 67376, Note_on_c, 2, 62, 127
2, 67376, Note_on_c, 8, 56, 127
2, 67564, Note_off_c, 8, 56, 127
2, 67564, Note_off_c, 2, 62, 127
2, 67566, Note_on_c, 4, 64, 127
2, 67566, Note_on_c, 6, 54, 127
2, 67754, Note_off_c, 6, 54, 127
2, 67754, Note_off_c, 4, 64, 127
2, 67756, Note_on_c, 6, 66, 127
2, 67756, Note_on_c, 4, 52, 127
2, 67944, Note_off_c, 6, 66, 127
2, 67946, Note_on_c, 8, 68, 127
2, 67946, Note_on_c, 2, 62, 127
2, 68134, Note_off_c, 2, 62, 127
2, 68134, Note_off_c, 8, 68, 127
2, 68136, Note_on_c, 10, 69, 127
2, 68136, Note_on_c, 1, 61, 127
2, 68324, Note_off_c, 1, 61, 127
2, 68324, Note_off_c, 10, 69, 127
2, 68326, Note_on_c, 12, 71, 127
2, 68326, Note_on_c, 12, 59, 127
2, 68508, Note_off_c, 4, 52, 127
2, 68514, Note_off_c, 12, 59, 127
2, 68514, Note_off_c, 12, 71, 127
2, 68516, Note_on_c, 1, 73, 127
2, 68516, Note_on_c, 10, 57, 127
2, 68704, Note_off_c, 1, 73, 127
2, 68706, Note_on_c, 2, 74, 127
2, 68706, Note_on_c, 6, 54, 127
2, 68894, Note_off_c, 6, 54, 127
2, 68894, Note_off_c, 2, 74, 127
2, 68896, Note_on_c, 4, 76, 127
2, 68896, Note_on_c, 4, 52, 127
2, 69084, Note_off_c, 4, 52, 127
2, 69084, Note_off_c, 4, 76, 127
2, 69087, Note_on_c, 6, 78, 127
2, 69087, Note_on_c, 2, 50, 127
2, 69275, Note_off_c, 2, 50, 127
2, 69275, Note_off_c, 6, 78, 127
2, 69277, Note_on_c, 8, 80, 127
2, 69277, Note_on_c, 1, 49, 127
2, 69465, Note_off_c, 1, 49, 127
2, 69465, Note_off_c, 8, 80, 127
2, 69467, Note_on_c, 10, 81, 127
2, 69467, Note_on_c, 12, 47, 127
2, 69655, Note_off_c, 12, 47, 127
2, 69655, Note_off_c, 10, 81, 127
2, 69657, Note_on_c, 12, 83, 127
2, 69657, Note_on_c, 10, 45, 127
2, 69842, Note_off_c, 10, 57, 127
2, 69845, Note_off_c, 10, 45, 127
2, 69847, Note_on_c, 8, 80, 127
2, 69847, Note_on_c, 8, 44, 127
2, 70033, Note_off_c, 12, 83, 127
2, 70035, Note_off_c, 8, 44, 127
2, 70035, Note_off_c, 8, 80, 127
2, 70037, Note_on_c, 10, 81, 127
2, 70037, Note_on_c, 6, 42, 127
2, 70231, Note_off_c, 6, 42, 127
2, 70233, Note_on_c, 8, 80, 127
2, 70233, Note_on_c, 4, 40, 127
2, 70427, Note_off_c, 4, 40, 127
2, 70427, Note_off_c, 8, 80, 127
2, 70429, Note_on_c, 6, 78, 127
2, 70429, Note_on_c, 2, 38, 127
2, 70623, Note_off_c, 6, 78, 127
2, 70625, Note_on_c, 4, 76, 127
2, 70819, Note_off_c, 4, 76, 127
2, 70819, Note_off_c, 2, 38, 127
2, 70821, Note_on_c, 2, 74, 127
2, 70821, Note_on_c, 4, 40, 127
2, 71030, Note_off_c, 2, 74, 127
2, 71033, Note_on_c, 1, 73, 127
2, 71242, Note_off_c, 1, 73, 127
2, 71245, Note_on_c, 12, 71, 127
2, 71245, Note_on_c, 4, 52, 127
2, 71470, Note_off_c, 10, 81, 127
2, 71472, Note_on_c, 8, 80, 127
2, 71690, Note_off_c, 4, 40, 127
2, 71705, Note_off_c, 12, 71, 127
2, 71706, Note_off_c, 8, 80, 127
2, 71707, Note_off_c, 4, 52, 127
2, 71708, Note_on_c, 10, 81, 127
2, 71708, Note_on_c, 1, 73, 127
2, 71708, Note_on_c, 10, 45, 127
2, 73527, Note_off_c, 10, 45, 127
2, 73527, Note_off_c, 1, 73, 127
2, 73527, Note_off_c, 10, 81, 127
2, 73989, Note_on_c, 10, 69, 127
2, 74842, Note_off_c, 10, 69, 127
2, 75130, Note_on_c, 8, 68, 127
2, 75407, Note_off_c, 8, 68, 127
2, 75415, Note_on_c, 1, 73, 127
2, 75692, Note_off_c, 1, 73, 127
2, 75700, Note_on_c, 10, 69, 127
2, 75977, Note_off_c, 10, 69, 127
2, 75985, Note_on_c, 2, 74, 127
2, 76262, Note_off_c, 2, 74, 127
2, 76270, Note_on_c, 12, 71, 127
2, 76547, Note_off_c, 12, 71, 127
2, 76555, Note_on_c, 4, 76, 127
2, 76555, Note_on_c, 4, 64, 127
2, 76832, Note_off_c, 4, 76, 127
2, 76840, Note_on_c, 1, 73, 127
2, 77117, Note_off_c, 1, 73, 127
2, 77125, Note_on_c, 6, 78, 127
2, 77402, Note_off_c, 6, 78, 127
2, 77410, Note_off_c, 4, 64, 127
2, 77413, Note_on_c, 4, 76, 127
2, 77690, Note_off_c, 4, 76, 127
2, 77698, Note_on_c, 10, 81, 127
2, 77698, Note_on_c, 1, 61, 127
2, 77975, Note_off_c, 1, 61, 127
2, 77975, Note_off_c, 10, 81, 127
2, 77983, Note_on_c, 2, 74, 127
2, 77983, Note_on_c, 6, 66, 127
2, 78260, Note_off_c, 6, 66, 127
2, 78268, Note_on_c, 4, 64, 127
2, 78545, Note_off_c, 4, 64, 127
2, 78553, Note_off_c, 2, 74, 127
2, 78555, Note_on_c, 1, 73, 127
2, 78555, Note_on_c, 10, 69, 127
2, 78832, Note_off_c, 10, 69, 127
2, 78832, Note_off_c, 1, 73, 127
2, 78840, Note_on_c, 3, 75, 127
2, 78840, Note_on_c, 6, 66, 127
2, 79117, Note_off_c, 6, 66, 127
2, 79117, Note_off_c, 3, 75, 127
2, 79125, Note_on_c, 8, 80, 127
2, 79125, Note_on_c, 12, 71, 127
2, 79402, Note_off_c, 12, 71, 127
2, 79402, Note_off_c, 8, 80, 127
2, 79410, Note_on_c, 4, 76, 127
2, 79410, Note_on_c, 8, 68, 127
2, 79687, Note_off_c, 8, 68, 127
2, 79687, Note_off_c, 4, 76, 127
2, 79695, Note_on_c, 10, 81, 127
2, 79695, Note_on_c, 1, 73, 127
2, 79972, Note_off_c, 1, 73, 127
2, 79972, Note_off_c, 10, 81, 127
2, 79981, Note_on_c, 8, 80, 127
2, 79981, Note_on_c, 12, 71, 127
2, 80258, Note_off_c, 12, 71, 127
2, 80266, Note_on_c, 4, 76, 127
2, 80543, Note_off_c, 4, 76, 127
2, 80547, Note_off_c, 8, 80, 127
2, 80553, Note_on_c, 6, 78, 127
2, 80553, Note_on_c, 10, 69, 127
2, 80830, Note_off_c, 6, 78, 127
2, 80838, Note_on_c, 12, 71, 127
2, 81115, Note_off_c, 12, 71, 127
2, 81123, Note_off_c, 10, 69, 127
2, 81125, Note_on_c, 4, 76, 127
2, 81125, Note_on_c, 8, 68, 127
2, 81402, Note_off_c, 8, 68, 127
2, 81402, Note_off_c, 4, 76, 127
2, 81410, Note_on_c, 2, 74, 127
2, 81410, Note_on_c, 12, 71, 127
2, 81687, Note_off_c, 12, 71, 127
2, 81695, Note_on_c, 4, 64, 127
2, 81695, Note_on_c, 10, 57, 127
2, 81890, Note_off_c, 2, 74, 127
2, 81972, Note_off_c, 4, 64, 127
2, 81982, Note_on_c, 1, 73, 127
2, 81982, Note_on_c, 10, 69, 127
2, 82259, Note_off_c, 10, 69, 127
2, 82259, Note_off_c, 1, 73, 127
2, 82267, Note_on_c, 3, 75, 127
2, 82267, Note_on_c, 6, 66, 127
2, 82544, Note_off_c, 6, 66, 127
2, 82544, Note_off_c, 3, 75, 127
2, 82552, Note_off_c, 10, 57, 127
2, 82555, Note_on_c, 4, 76, 127
2, 82555, Note_on_c, 8, 68, 127
2, 82832, Note_off_c, 4, 76, 127
2, 82840, Note_on_c, 12, 71, 127
2, 82840, Note_on_c, 8, 56, 127
2, 83117, Note_off_c, 8, 56, 127
2, 83117, Note_off_c, 12, 71, 127
2, 83125, Note_on_c, 4, 76, 127
2, 83125, Note_on_c, 1, 61, 127
2, 83402, Note_off_c, 1, 61, 127
2, 83410, Note_off_c, 8, 68, 127
2, 83412, Note_on_c, 1, 73, 127
2, 83412, Note_on_c, 10, 57, 127
2, 83689, Note_off_c, 10, 57, 127
2, 83689, Note_off_c, 1, 73, 127
2, 83697, Note_off_c, 4, 76, 127
2, 83699, Note_on_c, 6, 78, 127
2, 83699, Note_on_c, 10, 69, 127
2, 83699, Note_on_c, 2, 62, 127
2, 83976, Note_off_c, 2, 62, 127
2, 83976, Note_off_c, 10, 69, 127
2, 83984, Note_on_c, 2, 74, 127
2, 83984, Note_on_c, 12, 59, 127
2, 84261, Note_off_c, 12, 59, 127
2, 84261, Note_off_c, 2, 74, 127
2, 84269, Note_off_c, 6, 78, 127
2, 84271, Note_on_c, 8, 80, 127
2, 84271, Note_on_c, 12, 71, 127
2, 84271, Note_on_c, 4, 64, 127
2, 84548, Note_off_c, 4, 64, 127
2, 84548, Note_off_c, 12, 71, 127
2, 84556, Note_on_c, 4, 76, 127
2, 84556, Note_on_c, 1, 61, 127
2, 84833, Note_off_c, 1, 61, 127
2, 84833, Note_off_c, 4, 76, 127
2, 84841, Note_off_c, 8, 80, 127
2, 84843, Note_on_c, 10, 81, 127
2, 84843, Note_on_c, 2, 74, 127
2, 84843, Note_on_c, 6, 66, 127
2, 85120, Note_off_c, 6, 66, 127
2, 85120, Note_off_c, 10, 81, 127
2, 85129, Note_on_c, 8, 80, 127
2, 85129, Note_on_c, 4, 64, 127
2, 85406, Note_off_c, 4, 64, 127
2, 85413, Note_off_c, 2, 74, 127
2, 85416, Note_on_c, 1, 73, 127
2, 85416, Note_on_c, 10, 69, 127
2, 85693, Note_off_c, 10, 69, 127
2, 85701, Note_off_c, 8, 80, 127
2, 85703, Note_on_c, 6, 78, 127
2, 85703, Note_on_c, 2, 62, 127
2, 85980, Note_off_c, 6, 78, 127
2, 85988, Note_off_c, 1, 73, 127
2, 85990, Note_on_c, 8, 80, 127
2, 85990, Note_on_c, 12, 71, 127
2, 86267, Note_off_c, 12, 71, 127
2, 86267, Note_off_c, 8, 80, 127
2, 86275, Note_off_c, 2, 62, 127
2, 86277, Note_on_c, 10, 81, 127
2, 86277, Note_on_c, 4, 76, 127
2, 86277, Note_on_c, 1, 61, 127
2, 86554, Note_off_c, 1, 61, 127
2, 86554, Note_off_c, 4, 76, 127
2, 86562, Note_on_c, 6, 78, 127
2, 86562, Note_on_c, 3, 63, 127
2, 86839, Note_off_c, 3, 63, 127
2, 86839, Note_off_c, 6, 78, 127
2, 86847, Note_on_c, 12, 71, 127
2, 86847, Note_on_c, 4, 52, 127
2, 87124, Note_off_c, 12, 71, 127
2, 87132, Note_off_c, 10, 81, 127
2, 87134, Note_on_c, 8, 80, 127
2, 87134, Note_on_c, 4, 76, 127
2, 87411, Note_off_c, 4, 76, 127
2, 87411, Note_off_c, 8, 80, 127
2, 87419, Note_on_c, 12, 83, 127
2, 87419, Note_on_c, 2, 74, 127
2, 87696, Note_off_c, 12, 83, 127
2, 87704, Note_off_c, 4, 52, 127
2, 87707, Note_on_c, 4, 76, 127
2, 87989, Note_off_c, 2, 74, 127
2, 87992, Note_on_c, 1, 73, 127
2, 87992, Note_on_c, 1, 49, 127
2, 88132, Note_off_c, 1, 73, 127
2, 88134, Note_on_c, 12, 71, 127
2, 88269, Note_off_c, 1, 49, 127
2, 88276, Note_off_c, 12, 71, 127
2, 88277, Note_off_c, 4, 76, 127
2, 88279, Note_on_c, 3, 75, 127
2, 88279, Note_on_c, 1, 73, 127
2, 88279, Note_on_c, 6, 54, 127
2, 88419, Note_off_c, 1, 73, 127
2, 88421, Note_on_c, 10, 69, 127
2, 88556, Note_off_c, 6, 54, 127
2, 88556, Note_off_c, 3, 75, 127
2, 88563, Note_off_c, 10, 69, 127
2, 88566, Note_on_c, 4, 76, 127
2, 88566, Note_on_c, 8, 68, 127
2, 88566, Note_on_c, 4, 52, 127
2, 88843, Note_off_c, 4, 52, 127
2, 88843, Note_off_c, 8, 68, 127
2, 88851, Note_on_c, 1, 73, 127
2, 88851, Note_on_c, 10, 57, 127
2, 89128, Note_off_c, 10, 57, 127
2, 89128, Note_off_c, 1, 73, 127
2, 89136, Note_on_c, 10, 69, 127
2, 89136, Note_on_c, 6, 54, 127
2, 89413, Note_off_c, 6, 54, 127
2, 89413, Note_off_c, 10, 69, 127
2, 89421, Note_on_c, 6, 66, 127
2, 89421, Note_on_c, 12, 59, 127
2, 89698, Note_off_c, 12, 59, 127
2, 89698, Note_off_c, 6, 66, 127
2, 89706, Note_off_c, 4, 76, 127
2, 89708, Note_on_c, 2, 74, 127
2, 89708, Note_on_c, 12, 71, 127
2, 89708, Note_on_c, 8, 56, 127
2, 89985, Note_off_c, 8, 56, 127
2, 89985, Note_off_c, 12, 71, 127
2, 89985, Note_off_c, 2, 74, 127
2, 89993, Note_on_c, 1, 73, 127
2, 89993, Note_on_c, 10, 69, 127
2, 89993, Note_on_c, 1, 61, 127
2, 90270, Note_off_c, 1, 61, 127
2, 90270, Note_off_c, 1, 73, 127
2, 90279, Note_on_c, 2, 74, 127
2, 90279, Note_on_c, 12, 59, 127
2, 90556, Note_off_c, 12, 59, 127
2, 90563, Note_off_c, 10, 69, 127
2, 90566, Note_on_c, 8, 68, 127
2, 90566, Note_on_c, 4, 64, 127
2, 90843, Note_off_c, 4, 64, 127
2, 90843, Note_off_c, 8, 68, 127
2, 90851, Note_off_c, 2, 74, 127
2, 90853, Note_on_c, 1, 73, 127
2, 90853, Note_on_c, 10, 69, 127
2, 90853, Note_on_c, 10, 57, 127
2, 91130, Note_off_c, 10, 69, 127
2, 91130, Note_off_c, 1, 73, 127
2, 91138, Note_on_c, 12, 71, 127
2, 91138, Note_on_c, 2, 62, 127
2, 91421, Note_off_c, 10, 57, 127
2, 91423, Note_on_c, 8, 56, 127
2, 91700, Note_off_c, 8, 56, 127
2, 91708, Note_on_c, 12, 59, 127
2, 91985, Note_off_c, 12, 59, 127
2, 91993, Note_off_c, 12, 71, 127
2, 91995, Note_on_c, 1, 49, 127
2, 92188, Note_off_c, 2, 62, 127
2, 92280, Note_on_c, 10, 69, 127
2, 92280, Note_on_c, 1, 61, 127
2, 92557, Note_off_c, 1, 61, 127
2, 92557, Note_off_c, 10, 69, 127
2, 92565, Note_on_c, 1, 73, 127
2, 92565, Note_on_c, 4, 64, 127
2, 92842, Note_off_c, 4, 64, 127
2, 92842, Note_off_c, 1, 73, 127
2, 92851, Note_on_c, 6, 66, 127
2, 92851, Note_on_c, 10, 57, 127
2, 93133, Note_off_c, 1, 49, 127
2, 93136, Note_on_c, 10, 45, 127
2, 93413, Note_off_c, 10, 45, 127
2, 93421, Note_on_c, 2, 50, 127
2, 93698, Note_off_c, 2, 50, 127
2, 93706, Note_off_c, 10, 57, 127
2, 93708, Note_on_c, 2, 62, 127
2, 93708, Note_on_c, 12, 47, 127
2, 93848, Note_off_c, 6, 66, 127
2, 93850, Note_on_c, 8, 68, 127
2, 93985, Note_off_c, 12, 47, 127
2, 93992, Note_off_c, 8, 68, 127
2, 93995, Note_on_c, 10, 69, 127
2, 93995, Note_on_c, 4, 52, 127
2, 94088, Note_off_c, 10, 69, 127
2, 94090, Note_on_c, 8, 68, 127
2, 94183, Note_off_c, 8, 68, 127
2, 94185, Note_on_c, 10, 69, 127
2, 94272, Note_off_c, 4, 52, 127
2, 94280, Note_off_c, 10, 69, 127
2, 94282, Note_on_c, 8, 68, 127
2, 94282, Note_on_c, 4, 40, 127
2, 94375, Note_off_c, 8, 68, 127
2, 94377, Note_on_c, 6, 66, 127
2, 94470, Note_off_c, 6, 66, 127
2, 94472, Note_on_c, 8, 68, 127
2, 94559, Note_off_c, 4, 40, 127
2, 94567, Note_off_c, 8, 68, 127
2, 94569, Note_on_c, 10, 69, 127
2, 94569, Note_on_c, 10, 45, 127
2, 94846, Note_off_c, 10, 45, 127
2, 94854, Note_off_c, 2, 62, 127
2, 94856, Note_on_c, 1, 61, 127
2, 94856, Note_on_c, 10, 57, 127
2, 95133, Note_off_c, 1, 61, 127
2, 95141, Note_on_c, 6, 66, 127
2, 95418, Note_off_c, 6, 66, 127
2, 95427, Note_on_c, 12, 59, 127
2, 95619, Note_off_c, 10, 69, 127
2, 95704, Note_off_c, 12, 59, 127
2, 95711, Note_off_c, 10, 57, 127
2, 95714, Note_on_c, 8, 68, 127
2, 95714, Note_on_c, 4, 64, 127
2, 95714, Note_on_c, 8, 56, 127
2, 95991, Note_off_c, 8, 56, 127
2, 95991, Note_off_c, 4, 64, 127
2, 95991, Note_off_c, 8, 68, 127
2, 95999, Note_on_c, 1, 73, 127
2, 95999, Note_on_c, 8, 68, 127
2, 95999, Note_on_c, 4, 52, 127
2, 96276, Note_off_c, 4, 52, 127
2, 96276, Note_off_c, 1, 73, 127
2, 96284, Note_on_c, 10, 69, 127
2, 96284, Note_on_c, 6, 54, 127
2, 96561, Note_off_c, 6, 54, 127
2, 96561, Note_off_c, 10, 69, 127
2, 96569, Note_off_c, 8, 68, 127
2, 96571, Note_on_c, 2, 74, 127
2, 96571, Note_on_c, 6, 66, 127
2, 96571, Note_on_c, 12, 47, 127
2, 96848, Note_off_c, 12, 47, 127
2, 96848, Note_off_c, 6, 66, 127
2, 96848, Note_off_c, 2, 74, 127
2, 96856, Note_on_c, 12, 71, 127
2, 96856, Note_on_c, 8, 68, 127
2, 96856, Note_on_c, 4, 52, 127
2, 97133, Note_off_c, 4, 52, 127
2, 97133, Note_off_c, 12, 71, 127
2, 97141, Note_on_c, 4, 76, 127
2, 97141, Note_on_c, 1, 49, 127
2, 97418, Note_off_c, 1, 49, 127
2, 97418, Note_off_c, 4, 76, 127
2, 97426, Note_off_c, 8, 68, 127
2, 97428, Note_on_c, 1, 73, 127
2, 97428, Note_on_c, 10, 69, 127
2, 97428, Note_on_c, 6, 54, 127
2, 97705, Note_off_c, 6, 54, 127
2, 97705, Note_off_c, 10, 69, 127
2, 97705, Note_off_c, 1, 73, 127
2, 97713, Note_on_c, 6, 78, 127
2, 97713, Note_on_c, 12, 71, 127
2, 97713, Note_on_c, 2, 50, 127
2, 97990, Note_off_c, 2, 50, 127
2, 97990, Note_off_c, 12, 71, 127
2, 97990, Note_off_c, 6, 78, 127
2, 97999, Note_on_c, 4, 76, 127
2, 97999, Note_on_c, 1, 73, 127
2, 97999, Note_on_c, 10, 57, 127
2, 98276, Note_off_c, 10, 57, 127
2, 98276, Note_off_c, 4, 76, 127
2, 98284, Note_on_c, 10, 81, 127
2, 98284, Note_on_c, 6, 54, 127
2, 98561, Note_off_c, 6, 54, 127
2, 98561, Note_off_c, 10, 81, 127
2, 98569, Note_on_c, 2, 74, 127
2, 98569, Note_on_c, 12, 59, 127
2, 98846, Note_off_c, 12, 59, 127
2, 98854, Note_off_c, 1, 73, 127
2, 98856, Note_on_c, 12, 71, 127
2, 98856, Note_on_c, 4, 52, 127
2, 99133, Note_off_c, 4, 52, 127
2, 99141, Note_off_c, 2, 74, 127
2, 99143, Note_on_c, 1, 73, 127
2, 99143, Note_on_c, 10, 57, 127
2, 99420, Note_off_c, 10, 57, 127
2, 99420, Note_off_c, 1, 73, 127
2, 99428, Note_off_c, 12, 71, 127
2, 99430, Note_on_c, 3, 75, 127
2, 99430, Note_on_c, 10, 69, 127
2, 99430, Note_on_c, 6, 54, 127
2, 99707, Note_off_c, 6, 54, 127
2, 99707, Note_off_c, 3, 75, 127
2, 99715, Note_on_c, 4, 76, 127
2, 99715, Note_on_c, 1, 61, 127
2, 99998, Note_off_c, 10, 69, 127
2, 100000, Note_on_c, 8, 68, 127
2, 100277, Note_off_c, 8, 68, 127
2, 100285, Note_off_c, 1, 61, 127
2, 100287, Note_on_c, 1, 73, 127
2, 100287, Note_on_c, 12, 59, 127
2, 100564, Note_off_c, 12, 59, 127
2, 100564, Note_off_c, 1, 73, 127
2, 100573, Note_on_c, 6, 66, 127
2, 100573, Note_on_c, 11, 58, 127
2, 100850, Note_off_c, 11, 58, 127
2, 100850, Note_off_c, 6, 66, 127
2, 100857, Note_off_c, 4, 76, 127
2, 100860, Note_on_c, 2, 74, 127
2, 100860, Note_on_c, 12, 71, 127
2, 100860, Note_on_c, 12, 59, 127
2, 101137, Note_off_c, 12, 59, 127
2, 101137, Note_off_c, 2, 74, 127
2, 101145, Note_on_c, 7, 79, 127
2, 101145, Note_on_c, 4, 52, 127
2, 101422, Note_off_c, 4, 52, 127
2, 101422, Note_off_c, 7, 79, 127
2, 101430, Note_on_c, 1, 73, 127
2, 101430, Note_on_c, 6, 54, 127
2, 101707, Note_off_c, 1, 73, 127
2, 101715, Note_off_c, 12, 71, 127
2, 101717, Note_on_c, 6, 78, 127
2, 101717, Note_on_c, 10, 69, 127
2, 101994, Note_off_c, 6, 78, 127
2, 102002, Note_on_c, 2, 74, 127
2, 102279, Note_off_c, 2, 74, 127
2, 102287, Note_off_c, 10, 69, 127
2, 102289, Note_on_c, 12, 71, 127
2, 102289, Note_on_c, 8, 68, 127
2, 102295, Note_off_c, 6, 54, 127
2, 102574, Note_on_c, 5, 53, 127
2, 102851, Note_off_c, 5, 53, 127
2, 102859, Note_on_c, 8, 56, 127
2, 103136, Note_off_c, 8, 56, 127
2, 103145, Note_on_c, 10, 45, 127
2, 103389, Note_off_c, 8, 68, 127
2, 103389, Note_off_c, 12, 71, 127
2, 103430, Note_on_c, 10, 69, 127
2, 103430, Note_on_c, 6, 66, 127
2, 103707, Note_off_c, 10, 69, 127
2, 103715, Note_off_c, 10, 45, 127
2, 103717, Note_on_c, 2, 74, 127
2, 103717, Note_on_c, 12, 47, 127
2, 103994, Note_off_c, 12, 47, 127
2, 103994, Note_off_c, 2, 74, 127
2, 104002, Note_on_c, 8, 68, 127
2, 104002, Note_on_c, 1, 49, 127
2, 104279, Note_off_c, 8, 68, 127
2, 104287, Note_off_c, 6, 66, 127
2, 104289, Note_on_c, 1, 73, 127
2, 104289, Note_on_c, 5, 65, 127
2, 104566, Note_off_c, 5, 65, 127
2, 104566, Note_off_c, 1, 73, 127
2, 104574, Note_off_c, 1, 49, 127
2, 104576, Note_on_c, 12, 71, 127
2, 104576, Note_on_c, 8, 68, 127
2, 104576, Note_on_c, 1, 37, 127
2, 104853, Note_off_c, 1, 37, 127
2, 104853, Note_off_c, 12, 71, 127
2, 104861, Note_on_c, 10, 69, 127
2, 104861, Note_on_c, 6, 42, 127
2, 105144, Note_off_c, 8, 68, 127
2, 105146, Note_on_c, 6, 66, 127
2, 105423, Note_off_c, 6, 66, 127
2, 105432, Note_on_c, 4, 64, 127
2, 105709, Note_off_c, 4, 64, 127
2, 105716, Note_off_c, 6, 42, 127
2, 105719, Note_on_c, 2, 62, 127
2, 105911, Note_off_c, 10, 69, 127
2, 106004, Note_on_c, 8, 68, 127
2, 106004, Note_on_c, 5, 53, 127
2, 106281, Note_off_c, 5, 53, 127
2, 106281, Note_off_c, 8, 68, 127
2, 106289, Note_off_c, 2, 62, 127
2, 106291, Note_on_c, 6, 66, 127
2, 106291, Note_on_c, 1, 61, 127
2, 106291, Note_on_c, 10, 57, 127
2, 106568, Note_off_c, 10, 57, 127
2, 106568, Note_off_c, 6, 66, 127
2, 106576, Note_on_c, 2, 74, 127
2, 106576, Note_on_c, 6, 54, 127
2, 106853, Note_off_c, 6, 54, 127
2, 106857, Note_off_c, 1, 61, 127
2, 106863, Note_on_c, 12, 59, 127
2, 107140, Note_off_c, 12, 59, 127
2, 107148, Note_on_c, 12, 71, 127
2, 107148, Note_on_c, 8, 56, 127
2, 107425, Note_off_c, 8, 56, 127
2, 107425, Note_off_c, 12, 71, 127
2, 107433, Note_on_c, 5, 65, 127
2, 107433, Note_on_c, 1, 61, 127
2, 107710, Note_off_c, 1, 61, 127
2, 107710, Note_off_c, 5, 65, 127
2, 107718, Note_off_c, 2, 74, 127
2, 107720, Note_on_c, 1, 73, 127
2, 107720, Note_on_c, 6, 66, 127
2, 107720, Note_on_c, 10, 57, 127
2, 107997, Note_off_c, 10, 57, 127
2, 107997, Note_off_c, 1, 73, 127
2, 108006, Note_on_c, 6, 78, 127
2, 108006, Note_on_c, 2, 62, 127
2, 108283, Note_off_c, 2, 62, 127
2, 108290, Note_off_c, 6, 66, 127
2, 108293, Note_on_c, 8, 68, 127
2, 108293, Note_on_c, 1, 61, 127
2, 108570, Note_off_c, 1, 61, 127
2, 108570, Note_off_c, 8, 68, 127
2, 108578, Note_off_c, 6, 78, 127
2, 108580, Note_on_c, 4, 76, 127
2, 108580, Note_on_c, 11, 70, 127
2, 108580, Note_on_c, 6, 66, 127
2, 108857, Note_off_c, 6, 66, 127
2, 108857, Note_off_c, 11, 70, 127
2, 108857, Note_off_c, 4, 76, 127
2, 108865, Note_on_c, 2, 74, 127
2, 108865, Note_on_c, 12, 71, 127
2, 108865, Note_on_c, 12, 59, 127
2, 109142, Note_off_c, 12, 71, 127
2, 109142, Note_off_c, 2, 74, 127
2, 109150, Note_on_c, 1, 73, 127
2, 109150, Note_on_c, 4, 64, 127
2, 109433, Note_off_c, 12, 59, 127
2, 109435, Note_on_c, 8, 56, 127
2, 109712, Note_off_c, 8, 56, 127
2, 109720, Note_on_c, 11, 58, 127
2, 109997, Note_off_c, 11, 58, 127
2, 110005, Note_off_c, 4, 64, 127
2, 110007, Note_on_c, 2, 62, 127
2, 110007, Note_on_c, 12, 59, 127
2, 110284, Note_off_c, 12, 59, 127
2, 110292, Note_off_c, 1, 73, 127
2, 110294, Note_on_c, 12, 71, 127
2, 110294, Note_on_c, 12, 47, 127
2, 110571, Note_off_c, 12, 47, 127
2, 110571, Note_off_c, 12, 71, 127
2, 110579, Note_off_c, 2, 62, 127
2, 110581, Note_on_c, 11, 70, 127
2, 110581, Note_on_c, 7, 67, 127
2, 110581, Note_on_c, 4, 52, 127
2, 110858, Note_off_c, 4, 52, 127
2, 110858, Note_off_c, 7, 67, 127
2, 110858, Note_off_c, 11, 70, 127
2, 110867, Note_on_c, 12, 71, 127
2, 110867, Note_on_c, 6, 66, 127
2, 110867, Note_on_c, 2, 50, 127
2, 111144, Note_off_c, 2, 50, 127
2, 111144, Note_off_c, 6, 66, 127
2, 111152, Note_on_c, 4, 64, 127
2, 111152, Note_on_c, 7, 55, 127
2, 111429, Note_off_c, 7, 55, 127
2, 111437, Note_off_c, 12, 71, 127
2, 111439, Note_on_c, 1, 73, 127
2, 111439, Note_on_c, 4, 52, 127
2, 111716, Note_off_c, 4, 52, 127
2, 111716, Note_off_c, 1, 73, 127
2, 111724, Note_off_c, 4, 64, 127
2, 111726, Note_on_c, 6, 66, 127
2, 111726, Note_on_c, 2, 62, 127
2, 111726, Note_on_c, 6, 54, 127
2, 112003, Note_off_c, 6, 66, 127
2, 112011, Note_on_c, 12, 71, 127
2, 112288, Note_off_c, 12, 71, 127
2, 112296, Note_off_c, 6, 54, 127
2, 112296, Note_off_c, 2, 62, 127
2, 112298, Note_on_c, 11, 70, 127
2, 112298, Note_on_c, 1, 61, 127
2, 112298, Note_on_c, 6, 42, 127
2, 112575, Note_off_c, 6, 42, 127
2, 112575, Note_off_c, 1, 61, 127
2, 112575, Note_off_c, 11, 70, 127
2, 112583, Note_on_c, 12, 71, 127
2, 112583, Note_on_c, 2, 62, 127
2, 112583, Note_on_c, 12, 47, 127
2, 112860, Note_off_c, 2, 62, 127
2, 112860, Note_off_c, 12, 71, 127
2, 112868, Note_on_c, 2, 74, 127
2, 112868, Note_on_c, 6, 66, 127
2, 113145, Note_off_c, 6, 66, 127
2, 113149, Note_off_c, 12, 47, 127
2, 113155, Note_on_c, 12, 71, 127
2, 113432, Note_off_c, 12, 71, 127
2, 113441, Note_on_c, 8, 68, 127
2, 113723, Note_off_c, 2, 74, 127
2, 113726, Note_on_c, 1, 73, 127
2, 113726, Note_on_c, 4, 52, 127
2, 114003, Note_off_c, 4, 52, 127
2, 114003, Note_off_c, 1, 73, 127
2, 114011, Note_off_c, 8, 68, 127
2, 114013, Note_on_c, 6, 78, 127
2, 114013, Note_on_c, 1, 73, 127
2, 114013, Note_on_c, 10, 57, 127
2, 114290, Note_off_c, 10, 57, 127
2, 114290, Note_off_c, 1, 73, 127
2, 114298, Note_on_c, 12, 71, 127
2, 114298, Note_on_c, 8, 56, 127
2, 114575, Note_off_c, 8, 56, 127
2, 114575, Note_off_c, 12, 71, 127
2, 114583, Note_off_c, 6, 78, 127
2, 114585, Note_on_c, 4, 76, 127
2, 114585, Note_on_c, 1, 61, 127
2, 114862, Note_off_c, 1, 61, 127
2, 114862, Note_off_c, 4, 76, 127
2, 114870, Note_on_c, 10, 81, 127
2, 114870, Note_on_c, 1, 73, 127
2, 114870, Note_on_c, 10, 57, 127
2, 115147, Note_off_c, 10, 57, 127
2, 115147, Note_off_c, 1, 73, 127
2, 115155, Note_on_c, 12, 71, 127
2, 115155, Note_on_c, 3, 63, 127
2, 115432, Note_off_c, 3, 63, 127
2, 115440, Note_off_c, 10, 81, 127
2, 115442, Note_on_c, 8, 80, 127
2, 115442, Note_on_c, 12, 59, 127
2, 115582, Note_off_c, 8, 80, 127
2, 115585, Note_on_c, 6, 78, 127
2, 115719, Note_off_c, 12, 59, 127
2, 115727, Note_off_c, 6, 78, 127
2, 115729, Note_on_c, 8, 80, 127
2, 115729, Note_on_c, 4, 64, 127
2, 116006, Note_off_c, 4, 64, 127
2, 116015, Note_on_c, 10, 57, 127
2, 116297, Note_off_c, 8, 80, 127
2, 116297, Note_off_c, 12, 71, 127
2, 116300, Note_on_c, 6, 78, 127
2, 116300, Note_on_c, 10, 69, 127
2, 116577, Note_off_c, 10, 69, 127
2, 116577, Note_off_c, 6, 78, 127
2, 116585, Note_on_c, 4, 76, 127
2, 116585, Note_on_c, 1, 73, 127
2, 116862, Note_off_c, 1, 73, 127
2, 116870, Note_on_c, 6, 66, 127
2, 117153, Note_off_c, 4, 76, 127
2, 117153, Note_off_c, 10, 57, 127
2, 117155, Note_on_c, 3, 75, 127
2, 117155, Note_on_c, 12, 59, 127
2, 117432, Note_off_c, 12, 59, 127
2, 117432, Note_off_c, 3, 75, 127
2, 117440, Note_on_c, 6, 78, 127
2, 117440, Note_on_c, 6, 54, 127
2, 117717, Note_off_c, 6, 78, 127
2, 117725, Note_on_c, 12, 71, 127
2, 117725, Note_on_c, 8, 56, 127
2, 117733, Note_off_c, 6, 54, 127
2, 118008, Note_off_c, 6, 66, 127
2, 118010, Note_on_c, 4, 64, 127
2, 118287, Note_off_c, 4, 64, 127
2, 118296, Note_on_c, 8, 68, 127
2, 118573, Note_off_c, 8, 68, 127
2, 118581, Note_on_c, 1, 61, 127
2, 118863, Note_off_c, 8, 56, 127
2, 118866, Note_on_c, 1, 49, 127
2, 119143, Note_off_c, 1, 49, 127
2, 119150, Note_off_c, 12, 71, 127
2, 119153, Note_on_c, 10, 69, 127
2, 119153, Note_on_c, 6, 54, 127
2, 119430, Note_off_c, 6, 54, 127
2, 119438, Note_off_c, 1, 61, 127
2, 119440, Note_on_c, 6, 66, 127
2, 119440, Note_on_c, 3, 51, 127
2, 119717, Note_off_c, 3, 51, 127
2, 119717, Note_off_c, 6, 66, 127
2, 119725, Note_off_c, 10, 69, 127
2, 119727, Note_on_c, 8, 68, 127
2, 119727, Note_on_c, 12, 59, 127
2, 119727, Note_on_c, 4, 52, 127
2, 120004, Note_off_c, 12, 59, 127
2, 120012, Note_on_c, 4, 64, 127
2, 120289, Note_off_c, 4, 64, 127
2, 120297, Note_off_c, 4, 52, 127
2, 120299, Note_on_c, 1, 61, 127
2, 120299, Note_on_c, 10, 45, 127
2, 120582, Note_off_c, 8, 68, 127
2, 120584, Note_on_c, 6, 66, 127
2, 120861, Note_off_c, 6, 66, 127
2, 120870, Note_on_c, 10, 69, 127
2, 121147, Note_off_c, 10, 69, 127
2, 121154, Note_off_c, 1, 61, 127
2, 121157, Note_on_c, 3, 63, 127
2, 121157, Note_on_c, 12, 59, 127
2, 121439, Note_off_c, 10, 45, 127
2, 121442, Note_on_c, 12, 71, 127
2, 121442, Note_on_c, 8, 44, 127
2, 121719, Note_off_c, 8, 44, 127
2, 121723, Note_off_c, 3, 63, 127
2, 121727, Note_off_c, 12, 59, 127
2, 121729, Note_on_c, 8, 68, 127
2, 121729, Note_on_c, 4, 64, 127
2, 121729, Note_on_c, 1, 49, 127
2, 122006, Note_off_c, 1, 49, 127
2, 122006, Note_off_c, 8, 68, 127
2, 122010, Note_off_c, 12, 71, 127
2, 122016, Note_on_c, 1, 73, 127
2, 122016, Note_on_c, 10, 45, 127
2, 122293, Note_off_c, 10, 45, 127
2, 122293, Note_off_c, 1, 73, 127
2, 122301, Note_on_c, 6, 66, 127
2, 122301, Note_on_c, 12, 47, 127
2, 122584, Note_off_c, 4, 64, 127
2, 122586, Note_on_c, 3, 63, 127
2, 122863, Note_off_c, 3, 63, 127
2, 122871, Note_off_c, 12, 47, 127
2, 122871, Note_off_c, 6, 66, 127
2, 122873, Note_on_c, 4, 64, 127
2, 122873, Note_on_c, 4, 40, 127
2, 123202, Note_on_c, 4, 76, 127
2, 123445, Note_off_c, 4, 40, 127
2, 123481, Note_off_c, 4, 76, 127
2, 123491, Note_on_c, 12, 71, 127
2, 123738, Note_off_c, 4, 64, 127
2, 123770, Note_off_c, 12, 71, 127
2, 123781, Note_on_c, 1, 73, 127
2, 124060, Note_off_c, 1, 73, 127
2, 124070, Note_on_c, 6, 78, 127
2, 124070, Note_on_c, 10, 69, 127
2, 124349, Note_off_c, 10, 69, 127
2, 124349, Note_off_c, 6, 78, 127
2, 124359, Note_on_c, 1, 73, 127
2, 124359, Note_on_c, 4, 64, 127
2, 124638, Note_off_c, 4, 64, 127
2, 124638, Note_off_c, 1, 73, 127
2, 124648, Note_on_c, 2, 74, 127
2, 124648, Note_on_c, 6, 66, 127
2, 124927, Note_off_c, 6, 66, 127
2, 124937, Note_on_c, 12, 71, 127
2, 125216, Note_off_c, 12, 71, 127
2, 125226, Note_on_c, 6, 66, 127
2, 125505, Note_off_c, 6, 66, 127
2, 125513, Note_off_c, 2, 74, 127
2, 125515, Note_on_c, 8, 68, 127
2, 125804, Note_on_c, 12, 71, 127
2, 126083, Note_off_c, 12, 71, 127
2, 126093, Note_on_c, 4, 76, 127
2, 126237, Note_off_c, 8, 68, 127
2, 126372, Note_off_c, 4, 76, 127
2, 126382, Note_on_c, 1, 73, 127
2, 126382, Note_on_c, 4, 64, 127
2, 126661, Note_off_c, 4, 64, 127
2, 126661, Note_off_c, 1, 73, 127
2, 126671, Note_on_c, 6, 78, 127
2, 126671, Note_on_c, 10, 69, 127
2, 126950, Note_off_c, 10, 69, 127
2, 126950, Note_off_c, 6, 78, 127
2, 126960, Note_on_c, 2, 74, 127
2, 126960, Note_on_c, 6, 66, 127
2, 127239, Note_off_c, 6, 66, 127
2, 127239, Note_off_c, 2, 74, 127
2, 127250, Note_on_c, 8, 80, 127
2, 127250, Note_on_c, 12, 71, 127
2, 127529, Note_off_c, 12, 71, 127
2, 127529, Note_off_c, 8, 80, 127
2, 127539, Note_on_c, 4, 76, 127
2, 127539, Note_on_c, 8, 68, 127
2, 127818, Note_off_c, 8, 68, 127
2, 127818, Note_off_c, 4, 76, 127
2, 127828, Note_on_c, 10, 81, 127
2, 127828, Note_on_c, 1, 73, 127
2, 128107, Note_off_c, 1, 73, 127
2, 128107, Note_off_c, 10, 81, 127
2, 128117, Note_on_c, 6, 78, 127
2, 128117, Note_on_c, 10, 69, 127
2, 128372, Note_off_c, 10, 69, 127
2, 128406, Note_on_c, 2, 74, 127
2, 128693, Note_off_c, 6, 78, 127
2, 128695, Note_on_c, 12, 83, 127
2, 128974, Note_off_c, 12, 83, 127
2, 128984, Note_on_c, 4, 76, 127
2, 129263, Note_off_c, 4, 76, 127
2, 129271, Note_off_c, 2, 74, 127
2, 129273, Note_on_c, 10, 81, 127
2, 129273, Note_on_c, 1, 73, 127
2, 129552, Note_off_c, 1, 73, 127
2, 129562, Note_on_c, 6, 78, 127
2, 129841, Note_off_c, 6, 78, 127
2, 129851, Note_on_c, 12, 71, 127
2, 130138, Note_off_c, 10, 81, 127
2, 130140, Note_on_c, 8, 80, 127
2, 130282, Note_off_c, 12, 71, 127
2, 130285, Note_on_c, 6, 78, 127
2, 130427, Note_off_c, 6, 78, 127
2, 130429, Note_on_c, 4, 76, 127
2, 130571, Note_off_c, 4, 76, 127
2, 130574, Note_on_c, 2, 74, 127
2, 130716, Note_off_c, 2, 74, 127
2, 130716, Note_off_c, 8, 80, 127
2, 130718, Note_on_c, 10, 81, 127
2, 130718, Note_on_c, 1, 73, 127
2, 130718, Note_on_c, 10, 45, 127
2, 130862, Note_off_c, 1, 73, 127
2, 130865, Note_on_c, 2, 74, 127
2, 131009, Note_off_c, 2, 74, 127
2, 131012, Note_on_c, 4, 76, 127
2, 131145, Note_off_c, 10, 81, 127
2, 131156, Note_off_c, 4, 76, 127
2, 131158, Note_on_c, 1, 73, 127
2, 131302, Note_off_c, 1, 73, 127
2, 131305, Note_on_c, 12, 71, 127
2, 131449, Note_off_c, 12, 71, 127
2, 131451, Note_on_c, 10, 69, 127
2, 131595, Note_off_c, 10, 69, 127
2, 131595, Note_off_c, 10, 45, 127
2, 131598, Note_on_c, 8, 68, 127
2, 131742, Note_off_c, 8, 68, 127
2, 131744, Note_on_c, 10, 69, 127
2, 131888, Note_off_c, 10, 69, 127
2, 131891, Note_on_c, 12, 71, 127
2, 131891, Note_on_c, 8, 44, 127
2, 132035, Note_off_c, 12, 71, 127
2, 132037, Note_on_c, 8, 68, 127
2, 132174, Note_off_c, 8, 44, 127
2, 132181, Note_off_c, 8, 68, 127
2, 132184, Note_on_c, 6, 66, 127
2, 132184, Note_on_c, 1, 49, 127
2, 132328, Note_off_c, 6, 66, 127
2, 132330, Note_on_c, 4, 64, 127
2, 132467, Note_off_c, 1, 49, 127
2, 132474, Note_off_c, 4, 64, 127
2, 132477, Note_on_c, 6, 66, 127
2, 132477, Note_on_c, 10, 45, 127
2, 132621, Note_off_c, 6, 66, 127
2, 132623, Note_on_c, 4, 64, 127
2, 132760, Note_off_c, 10, 45, 127
2, 132767, Note_off_c, 4, 64, 127
2, 132770, Note_on_c, 6, 66, 127
2, 132770, Note_on_c, 2, 50, 127
2, 132914, Note_off_c, 6, 66, 127
2, 132916, Note_on_c, 10, 69, 127
2, 133053, Note_off_c, 2, 50, 127
2, 133060, Note_off_c, 10, 69, 127
2, 133063, Note_on_c, 8, 68, 127
2, 133063, Note_on_c, 12, 47, 127
2, 133207, Note_off_c, 8, 68, 127
2, 133209, Note_on_c, 6, 66, 127
2, 133346, Note_off_c, 12, 47, 127
2, 133353, Note_off_c, 6, 66, 127
2, 133356, Note_on_c, 8, 68, 127
2, 133356, Note_on_c, 4, 52, 127
2, 133500, Note_off_c, 8, 68, 127
2, 133502, Note_on_c, 12, 71, 127
2, 133639, Note_off_c, 4, 52, 127
2, 133646, Note_off_c, 12, 71, 127
2, 133649, Note_on_c, 10, 69, 127
2, 133649, Note_on_c, 1, 49, 127
2, 133793, Note_off_c, 10, 69, 127
2, 133795, Note_on_c, 8, 68, 127
2, 133932, Note_off_c, 1, 49, 127
2, 133939, Note_off_c, 8, 68, 127
2, 133942, Note_on_c, 10, 69, 127
2, 133942, Note_on_c, 6, 54, 127
2, 134086, Note_off_c, 10, 69, 127
2, 134088, Note_on_c, 12, 71, 127
2, 134225, Note_off_c, 6, 54, 127
2, 134232, Note_off_c, 12, 71, 127
2, 134235, Note_on_c, 1, 73, 127
2, 134235, Note_on_c, 4, 52, 127
2, 134379, Note_off_c, 1, 73, 127
2, 134381, Note_on_c, 12, 71, 127
2, 134518, Note_off_c, 4, 52, 127
2, 134525, Note_off_c, 12, 71, 127
2, 134528, Note_on_c, 1, 73, 127
2, 134528, Note_on_c, 10, 57, 127
2, 134672, Note_off_c, 1, 73, 127
2, 134675, Note_on_c, 2, 74, 127
2, 134811, Note_off_c, 10, 57, 127
2, 134819, Note_off_c, 2, 74, 127
2, 134821, Note_on_c, 4, 76, 127
2, 134821, Note_on_c, 2, 50, 127
2, 134965, Note_off_c, 4, 76, 127
2, 134968, Note_on_c, 6, 78, 127
2, 135112, Note_off_c, 6, 78, 127
2, 135114, Note_on_c, 8, 80, 127
2, 135258, Note_off_c, 8, 80, 127
2, 135261, Note_on_c, 12, 83, 127
2, 135405, Note_off_c, 12, 83, 127
2, 135405, Note_off_c, 2, 50, 127
2, 135407, Note_on_c, 10, 81, 127
2, 135407, Note_on_c, 1, 49, 127
2, 135551, Note_off_c, 10, 81, 127
2, 135554, Note_on_c, 8, 80, 127
2, 135690, Note_off_c, 1, 49, 127
2, 135698, Note_off_c, 8, 80, 127
2, 135700, Note_on_c, 6, 78, 127
2, 135700, Note_on_c, 3, 51, 127
2, 135844, Note_off_c, 6, 78, 127
2, 135847, Note_on_c, 10, 81, 127
2, 135983, Note_off_c, 3, 51, 127
2, 135991, Note_off_c, 10, 81, 127
2, 135993, Note_on_c, 8, 80, 127
2, 135993, Note_on_c, 4, 64, 127
2, 135993, Note_on_c, 4, 52, 127
2, 136137, Note_off_c, 8, 80, 127
2, 136140, Note_on_c, 10, 81, 127
2, 136276, Note_off_c, 4, 52, 127
2, 136284, Note_off_c, 10, 81, 127
2, 136286, Note_on_c, 12, 83, 127
2, 136286, Note_on_c, 6, 54, 127
2, 136430, Note_off_c, 12, 83, 127
2, 136433, Note_on_c, 6, 78, 127
2, 136569, Note_off_c, 6, 54, 127
2, 136577, Note_off_c, 6, 78, 127
2, 136579, Note_on_c, 4, 76, 127
2, 136579, Note_on_c, 8, 56, 127
2, 136723, Note_off_c, 4, 76, 127
2, 136725, Note_off_c, 4, 64, 127
2, 136726, Note_on_c, 2, 74, 127
2, 136862, Note_off_c, 8, 56, 127
2, 136870, Note_off_c, 2, 74, 127
2, 136872, Note_on_c, 1, 73, 127
2, 136872, Note_on_c, 10, 57, 127
2, 137165, Note_on_c, 1, 61, 127
2, 137448, Note_off_c, 1, 61, 127
2, 137452, Note_off_c, 1, 73, 127
2, 137458, Note_on_c, 6, 66, 127
2, 137741, Note_off_c, 6, 66, 127
2, 137751, Note_on_c, 4, 64, 127
2, 138034, Note_off_c, 4, 64, 127
2, 138042, Note_off_c, 10, 57, 127
2, 138044, Note_on_c, 1, 73, 127
2, 138044, Note_on_c, 10, 69, 127
2, 138044, Note_on_c, 10, 45, 127
2, 138327, Note_off_c, 10, 45, 127
2, 138327, Note_off_c, 10, 69, 127
2, 138327, Note_off_c, 1, 73, 127
2, 138338, Note_on_c, 10, 69, 127
2, 138338, Note_on_c, 6, 66, 127
2, 138338, Note_on_c, 2, 50, 127
2, 138621, Note_off_c, 2, 50, 127
2, 138621, Note_off_c, 6, 66, 127
2, 138621, Note_off_c, 10, 69, 127
2, 138631, Note_on_c, 2, 74, 127
2, 138631, Note_on_c, 12, 71, 127
2, 138631, Note_on_c, 12, 47, 127
2, 138914, Note_off_c, 12, 47, 127
2, 138914, Note_off_c, 12, 71, 127
2, 138914, Note_off_c, 2, 74, 127
2, 138924, Note_on_c, 12, 71, 127
2, 138924, Note_on_c, 8, 68, 127
2, 138924, Note_on_c, 4, 52, 127
2, 139207, Note_off_c, 4, 52, 127
2, 139207, Note_off_c, 8, 68, 127
2, 139207, Note_off_c, 12, 71, 127
2, 139217, Note_on_c, 4, 76, 127
2, 139217, Note_on_c, 1, 73, 127
2, 139217, Note_on_c, 1, 49, 127
2, 139500, Note_off_c, 1, 49, 127
2, 139500, Note_off_c, 1, 73, 127
2, 139500, Note_off_c, 4, 76, 127
2, 139510, Note_on_c, 1, 73, 127
2, 139510, Note_on_c, 10, 69, 127
2, 139510, Note_on_c, 6, 54, 127
2, 139793, Note_off_c, 6, 54, 127
2, 139793, Note_off_c, 10, 69, 127
2, 139793, Note_off_c, 1, 73, 127
2, 139803, Note_on_c, 6, 78, 127
2, 139803, Note_on_c, 2, 74, 127
2, 139803, Note_on_c, 2, 50, 127
2, 140086, Note_off_c, 2, 50, 127
2, 140086, Note_off_c, 2, 74, 127
2, 140086, Note_off_c, 6, 78, 127
2, 140096, Note_on_c, 4, 76, 127
2, 140096, Note_on_c, 1, 73, 127
2, 140096, Note_on_c, 10, 57, 127
2, 140379, Note_off_c, 10, 57, 127
2, 140379, Note_off_c, 1, 73, 127
2, 140379, Note_off_c, 4, 76, 127
2, 140389, Note_on_c, 10, 81, 127
2, 140389, Note_on_c, 6, 78, 127
2, 140389, Note_on_c, 6, 54, 127
2, 140672, Note_off_c, 6, 54, 127
2, 140672, Note_off_c, 6, 78, 127
2, 140672, Note_off_c, 10, 81, 127
2, 140682, Note_on_c, 8, 80, 127
2, 140682, Note_on_c, 3, 75, 127
2, 140682, Note_on_c, 12, 59, 127
2, 140777, Note_off_c, 8, 80, 127
2, 140779, Note_on_c, 6, 78, 127
2, 140826, Note_off_c, 12, 59, 127
2, 140828, Note_on_c, 10, 57, 127
2, 140876, Note_off_c, 6, 78, 127
2, 140878, Note_on_c, 8, 80, 127
2, 140972, Note_off_c, 10, 57, 127
2, 140973, Note_off_c, 8, 80, 127
2, 140975, Note_on_c, 6, 78, 127
2, 140975, Note_on_c, 8, 56, 127
2, 141070, Note_off_c, 6, 78, 127
2, 141072, Note_on_c, 4, 76, 127
2, 141119, Note_off_c, 8, 56, 127
2, 141121, Note_on_c, 6, 54, 127
2, 141169, Note_off_c, 4, 76, 127
2, 141171, Note_on_c, 6, 78, 127
2, 141262, Note_off_c, 3, 75, 127
2, 141265, Note_off_c, 6, 54, 127
2, 141266, Note_off_c, 6, 78, 127
2, 141268, Note_on_c, 4, 76, 127
2, 141268, Note_on_c, 8, 56, 127
2, 141412, Note_off_c, 8, 56, 127
2, 141414, Note_on_c, 6, 78, 127
2, 141414, Note_on_c, 10, 57, 127
2, 141558, Note_off_c, 10, 57, 127
2, 141558, Note_off_c, 6, 78, 127
2, 141561, Note_on_c, 8, 80, 127
2, 141561, Note_on_c, 12, 59, 127
2, 141695, Note_off_c, 4, 76, 127
2, 141705, Note_off_c, 12, 59, 127
2, 141705, Note_off_c, 8, 80, 127
2, 141707, Note_on_c, 4, 76, 127
2, 141707, Note_on_c, 8, 56, 127
2, 141851, Note_off_c, 8, 56, 127
2, 141851, Note_off_c, 4, 76, 127
2, 141854, Note_on_c, 8, 80, 127
2, 141854, Note_on_c, 6, 54, 127
2, 141998, Note_off_c, 6, 54, 127
2, 141998, Note_off_c, 8, 80, 127
2, 142001, Note_on_c, 10, 81, 127
2, 142001, Note_on_c, 4, 52, 127
2, 142145, Note_off_c, 4, 52, 127
2, 142145, Note_off_c, 10, 81, 127
2, 142147, Note_on_c, 12, 83, 127
2, 142147, Note_on_c, 3, 51, 127
2, 142291, Note_off_c, 3, 51, 127
2, 142294, Note_on_c, 4, 52, 127
2, 142438, Note_off_c, 4, 52, 127
2, 142440, Note_on_c, 3, 63, 127
2, 142440, Note_on_c, 6, 54, 127
2, 142574, Note_off_c, 12, 83, 127
2, 142584, Note_off_c, 6, 54, 127
2, 142587, Note_on_c, 3, 51, 127
2, 142731, Note_off_c, 3, 51, 127
2, 142731, Note_off_c, 3, 63, 127
2, 142733, Note_on_c, 8, 68, 127
2, 142733, Note_on_c, 1, 49, 127
2, 142877, Note_off_c, 1, 49, 127
2, 142880, Note_on_c, 12, 47, 127
2, 143024, Note_off_c, 12, 47, 127
2, 143024, Note_off_c, 8, 68, 127
2, 143026, Note_on_c, 4, 64, 127
2, 143026, Note_on_c, 1, 49, 127
2, 143170, Note_off_c, 1, 49, 127
2, 143173, Note_on_c, 12, 47, 127
2, 143317, Note_off_c, 12, 47, 127
2, 143317, Note_off_c, 4, 64, 127
2, 143319, Note_on_c, 10, 69, 127
2, 143319, Note_on_c, 1, 49, 127
2, 143463, Note_off_c, 1, 49, 127
2, 143466, Note_on_c, 4, 52, 127
2, 143610, Note_off_c, 4, 52, 127
2, 143610, Note_off_c, 10, 69, 127
2, 143612, Note_on_c, 6, 66, 127
2, 143612, Note_on_c, 3, 51, 127
2, 143756, Note_off_c, 3, 51, 127
2, 143759, Note_on_c, 1, 49, 127
2, 143903, Note_off_c, 1, 49, 127
2, 143903, Note_off_c, 6, 66, 127
2, 143905, Note_on_c, 12, 71, 127
2, 143905, Note_on_c, 3, 51, 127
2, 144049, Note_off_c, 3, 51, 127
2, 144052, Note_on_c, 6, 54, 127
2, 144196, Note_off_c, 6, 54, 127
2, 144196, Note_off_c, 12, 71, 127
2, 144198, Note_on_c, 8, 68, 127
2, 144198, Note_on_c, 4, 52, 127
2, 144342, Note_off_c, 4, 52, 127
2, 144345, Note_on_c, 3, 51, 127
2, 144489, Note_off_c, 3, 51, 127
2, 144489, Note_off_c, 8, 68, 127
2, 144491, Note_on_c, 1, 73, 127
2, 144491, Note_on_c, 4, 52, 127
2, 144635, Note_off_c, 4, 52, 127
2, 144638, Note_on_c, 6, 54, 127
2, 144782, Note_off_c, 6, 54, 127
2, 144782, Note_off_c, 1, 73, 127
2, 144784, Note_on_c, 12, 71, 127
2, 144784, Note_on_c, 8, 56, 127
2, 144928, Note_off_c, 8, 56, 127
2, 144931, Note_on_c, 6, 54, 127
2, 145075, Note_off_c, 6, 54, 127
2, 145075, Note_off_c, 12, 71, 127
2, 145077, Note_on_c, 4, 76, 127
2, 145077, Note_on_c, 8, 56, 127
2, 145221, Note_off_c, 8, 56, 127
2, 145224, Note_on_c, 10, 57, 127
2, 145368, Note_off_c, 10, 57, 127
2, 145368, Note_off_c, 4, 76, 127
2, 145370, Note_on_c, 10, 69, 127
2, 145370, Note_on_c, 12, 59, 127
2, 145514, Note_off_c, 12, 59, 127
2, 145517, Note_on_c, 1, 61, 127
2, 145661, Note_off_c, 1, 61, 127
2, 145664, Note_on_c, 3, 63, 127
2, 145808, Note_off_c, 3, 63, 127
2, 145810, Note_on_c, 6, 66, 127
2, 145954, Note_off_c, 6, 66, 127
2, 145954, Note_off_c, 10, 69, 127
2, 145957, Note_on_c, 6, 66, 127
2, 145957, Note_on_c, 4, 64, 127
2, 146101, Note_off_c, 4, 64, 127
2, 146103, Note_on_c, 3, 63, 127
2, 146247, Note_off_c, 3, 63, 127
2, 146248, Note_off_c, 6, 66, 127
2, 146250, Note_on_c, 12, 71, 127
2, 146250, Note_on_c, 1, 61, 127
2, 146394, Note_off_c, 1, 61, 127
2, 146396, Note_on_c, 12, 59, 127
2, 146540, Note_off_c, 12, 59, 127
2, 146541, Note_off_c, 12, 71, 127
2, 146543, Note_on_c, 8, 68, 127
2, 146543, Note_on_c, 4, 64, 127
2, 146832, Note_off_c, 8, 68, 127
2, 146836, Note_on_c, 12, 83, 127
2, 146836, Note_on_c, 4, 52, 127
2, 146980, Note_off_c, 12, 83, 127
2, 146982, Note_on_c, 10, 81, 127
2, 147123, Note_off_c, 4, 64, 127
2, 147126, Note_off_c, 10, 81, 127
2, 147129, Note_on_c, 8, 80, 127
2, 147129, Note_on_c, 10, 57, 127
2, 147140, Note_off_c, 4, 52, 127
2, 147273, Note_off_c, 8, 80, 127
2, 147275, Note_on_c, 6, 78, 127
2, 147419, Note_off_c, 6, 78, 127
2, 147422, Note_on_c, 4, 76, 127
2, 147422, Note_on_c, 8, 56, 127
2, 147433, Note_off_c, 10, 57, 127
2, 147566, Note_off_c, 4, 76, 127
2, 147568, Note_on_c, 6, 78, 127
2, 147712, Note_off_c, 6, 78, 127
2, 147715, Note_on_c, 8, 80, 127
2, 147715, Note_on_c, 4, 64, 127
2, 147726, Note_off_c, 8, 56, 127
2, 147859, Note_off_c, 8, 80, 127
2, 147861, Note_on_c, 4, 76, 127
2, 148005, Note_off_c, 4, 76, 127
2, 148008, Note_on_c, 2, 74, 127
2, 148008, Note_on_c, 10, 57, 127
2, 148019, Note_off_c, 4, 64, 127
2, 148152, Note_off_c, 2, 74, 127
2, 148154, Note_on_c, 1, 73, 127
2, 148298, Note_off_c, 1, 73, 127
2, 148301, Note_on_c, 2, 74, 127
2, 148301, Note_on_c, 6, 66, 127
2, 148312, Note_off_c, 10, 57, 127
2, 148445, Note_off_c, 2, 74, 127
2, 148447, Note_on_c, 1, 73, 127
2, 148591, Note_off_c, 1, 73, 127
2, 148594, Note_on_c, 2, 74, 127
2, 148594, Note_on_c, 12, 59, 127
2, 148605, Note_off_c, 6, 66, 127
2, 148738, Note_off_c, 2, 74, 127
2, 148740, Note_on_c, 6, 78, 127
2, 148884, Note_off_c, 6, 78, 127
2, 148887, Note_on_c, 4, 76, 127
2, 148887, Note_on_c, 8, 68, 127
2, 148898, Note_off_c, 12, 59, 127
2, 149031, Note_off_c, 4, 76, 127
2, 149033, Note_on_c, 2, 74, 127
2, 149177, Note_off_c, 2, 74, 127
2, 149178, Note_off_c, 8, 68, 127
2, 149180, Note_on_c, 1, 73, 127
2, 149180, Note_on_c, 10, 69, 127
2, 149324, Note_off_c, 10, 69, 127
2, 149327, Note_on_c, 6, 66, 127
2, 149471, Note_off_c, 6, 66, 127
2, 149471, Note_off_c, 1, 73, 127
2, 149473, Note_on_c, 10, 69, 127
2, 149473, Note_on_c, 4, 64, 127
2, 149617, Note_off_c, 4, 64, 127
2, 149620, Note_on_c, 2, 62, 127
2, 149764, Note_off_c, 2, 62, 127
2, 149766, Note_on_c, 2, 74, 127
2, 149766, Note_on_c, 1, 61, 127
2, 149777, Note_off_c, 10, 69, 127
2, 149910, Note_off_c, 1, 61, 127
2, 149913, Note_on_c, 12, 59, 127
2, 150057, Note_off_c, 12, 59, 127
2, 150059, Note_on_c, 1, 73, 127
2, 150059, Note_on_c, 10, 57, 127
2, 150070, Note_off_c, 2, 74, 127
2, 150203, Note_off_c, 10, 57, 127
2, 150206, Note_on_c, 12, 59, 127
2, 150350, Note_off_c, 12, 59, 127
2, 150352, Note_on_c, 10, 81, 127
2, 150352, Note_on_c, 1, 61, 127
2, 150395, Note_off_c, 1, 73, 127
2, 150498, Note_off_c, 1, 61, 127
2, 150501, Note_on_c, 10, 57, 127
2, 150645, Note_off_c, 10, 57, 127
2, 150647, Note_on_c, 2, 74, 127
2, 150647, Note_on_c, 7, 55, 127
2, 150658, Note_off_c, 10, 81, 127
2, 150791, Note_off_c, 7, 55, 127
2, 150794, Note_on_c, 6, 54, 127
2, 150938, Note_off_c, 6, 54, 127
2, 150940, Note_on_c, 12, 71, 127
2, 150940, Note_on_c, 7, 55, 127
2, 150951, Note_off_c, 2, 74, 127
2, 151084, Note_off_c, 7, 55, 127
2, 151087, Note_on_c, 6, 54, 127
2, 151231, Note_off_c, 6, 54, 127
2, 151233, Note_on_c, 4, 76, 127
2, 151233, Note_on_c, 7, 55, 127
2, 151276, Note_off_c, 12, 71, 127
2, 151379, Note_off_c, 7, 55, 127
2, 151382, Note_on_c, 12, 59, 127
2, 151526, Note_off_c, 12, 59, 127
2, 151528, Note_on_c, 1, 73, 127
2, 151528, Note_on_c, 10, 57, 127
2, 151539, Note_off_c, 4, 76, 127
2, 151672, Note_off_c, 10, 57, 127
2, 151675, Note_on_c, 7, 55, 127
2, 151819, Note_off_c, 7, 55, 127
2, 151819, Note_off_c, 1, 73, 127
2, 151821, Note_on_c, 2, 74, 127
2, 151821, Note_on_c, 6, 54, 127
2, 151965, Note_off_c, 6, 54, 127
2, 151968, Note_on_c, 7, 55, 127
2, 152112, Note_off_c, 7, 55, 127
2, 152114, Note_on_c, 10, 57, 127
2, 152261, Note_on_c, 6, 54, 127
2, 152405, Note_off_c, 6, 54, 127
2, 152405, Note_off_c, 10, 57, 127
2, 152407, Note_on_c, 2, 62, 127
2, 152407, Note_on_c, 4, 52, 127
2, 152551, Note_off_c, 4, 52, 127
2, 152554, Note_on_c, 2, 50, 127
2, 152621, Note_off_c, 2, 74, 127
2, 152698, Note_off_c, 2, 50, 127
2, 152700, Note_on_c, 10, 57, 127
2, 152991, Note_off_c, 2, 62, 127
2, 152993, Note_on_c, 4, 64, 127
2, 152993, Note_on_c, 1, 61, 127
2, 153137, Note_off_c, 10, 57, 127
2, 153140, Note_on_c, 6, 54, 127
2, 153284, Note_off_c, 6, 54, 127
2, 153284, Note_off_c, 1, 61, 127
2, 153284, Note_off_c, 4, 64, 127
2, 153287, Note_on_c, 10, 69, 127
2, 153287, Note_on_c, 6, 66, 127
2, 153287, Note_on_c, 7, 55, 127
2, 153431, Note_off_c, 7, 55, 127
2, 153433, Note_on_c, 10, 57, 127
2, 153577, Note_off_c, 10, 57, 127
2, 153578, Note_off_c, 6, 66, 127
2, 153578, Note_off_c, 10, 69, 127
2, 153580, Note_on_c, 6, 66, 127
2, 153580, Note_on_c, 2, 62, 127
2, 153580, Note_on_c, 12, 59, 127
2, 153724, Note_off_c, 12, 59, 127
2, 153726, Note_on_c, 10, 57, 127
2, 153870, Note_off_c, 10, 57, 127
2, 153871, Note_off_c, 2, 62, 127
2, 153871, Note_off_c, 6, 66, 127
2, 153873, Note_on_c, 12, 71, 127
2, 153873, Note_on_c, 7, 67, 127
2, 153873, Note_on_c, 7, 55, 127
2, 154017, Note_off_c, 7, 55, 127
2, 154019, Note_on_c, 12, 59, 127
2, 154163, Note_off_c, 12, 59, 127
2, 154164, Note_off_c, 7, 67, 127
2, 154164, Note_off_c, 12, 71, 127
2, 154166, Note_on_c, 1, 73, 127
2, 154166, Note_on_c, 4, 64, 127
2, 154166, Note_on_c, 10, 57, 127
2, 154310, Note_off_c, 10, 57, 127
2, 154312, Note_on_c, 7, 55, 127
2, 154456, Note_off_c, 7, 55, 127
2, 154457, Note_off_c, 4, 64, 127
2, 154459, Note_on_c, 10, 69, 127
2, 154459, Note_on_c, 6, 54, 127
2, 154603, Note_off_c, 6, 54, 127
2, 154605, Note_on_c, 4, 52, 127
2, 154749, Note_off_c, 4, 52, 127
2, 154750, Note_off_c, 10, 69, 127
2, 154750, Note_off_c, 1, 73, 127
2, 154752, Note_on_c, 2, 74, 127
2, 154752, Note_on_c, 6, 66, 127
2, 154752, Note_on_c, 2, 50, 127
2, 154896, Note_off_c, 2, 50, 127
2, 154898, Note_on_c, 6, 54, 127
2, 155042, Note_off_c, 6, 54, 127
2, 155043, Note_off_c, 6, 66, 127
2, 155043, Note_off_c, 2, 74, 127
2, 155045, Note_on_c, 7, 79, 127
2, 155045, Note_on_c, 12, 71, 127
2, 155045, Note_on_c, 4, 52, 127
2, 155189, Note_off_c, 4, 52, 127
2, 155191, Note_on_c, 2, 50, 127
2, 155335, Note_off_c, 2, 50, 127
2, 155336, Note_off_c, 12, 71, 127
2, 155338, Note_on_c, 10, 69, 127
2, 155338, Note_on_c, 1, 49, 127
2, 155482, Note_off_c, 1, 49, 127
2, 155484, Note_on_c, 10, 45, 127
2, 155628, Note_off_c, 10, 45, 127
2, 155629, Note_off_c, 10, 69, 127
2, 155629, Note_off_c, 7, 79, 127
2, 155631, Note_on_c, 6, 78, 127
2, 155631, Note_on_c, 2, 74, 127
2, 155631, Note_on_c, 12, 47, 127
2, 155775, Note_off_c, 12, 47, 127
2, 155777, Note_on_c, 1, 49, 127
2, 155921, Note_off_c, 1, 49, 127
2, 155922, Note_off_c, 2, 74, 127
2, 155922, Note_off_c, 6, 78, 127
2, 155924, Note_on_c, 4, 76, 127
2, 155924, Note_on_c, 7, 67, 127
2, 155924, Note_on_c, 2, 50, 127
2, 156068, Note_off_c, 2, 50, 127
2, 156070, Note_on_c, 4, 52, 127
2, 156214, Note_off_c, 4, 52, 127
2, 156215, Note_off_c, 4, 76, 127
2, 156217, Note_on_c, 10, 69, 127
2, 156217, Note_on_c, 6, 54, 127
2, 156361, Note_off_c, 6, 54, 127
2, 156363, Note_on_c, 7, 55, 127
2, 156507, Note_off_c, 7, 55, 127
2, 156508, Note_off_c, 10, 69, 127
2, 156508, Note_off_c, 7, 67, 127
2, 156510, Note_on_c, 2, 74, 127
2, 156510, Note_on_c, 6, 66, 127
2, 156510, Note_on_c, 10, 57, 127
2, 156654, Note_off_c, 10, 57, 127
2, 156656, Note_on_c, 6, 54, 127
2, 156800, Note_off_c, 6, 54, 127
2, 156801, Note_off_c, 6, 66, 127
2, 156801, Note_off_c, 2, 74, 127
2, 156803, Note_on_c, 1, 73, 127
2, 156803, Note_on_c, 4, 64, 127
2, 156803, Note_on_c, 7, 55, 127
2, 156947, Note_off_c, 7, 55, 127
2, 156950, Note_on_c, 10, 57, 127
2, 157094, Note_off_c, 10, 57, 127
2, 157094, Note_off_c, 4, 64, 127
2, 157094, Note_off_c, 1, 73, 127
2, 157096, Note_on_c, 2, 74, 127
2, 157096, Note_on_c, 6, 66, 127
2, 157096, Note_on_c, 2, 50, 127
2, 157391, Note_off_c, 2, 74, 127
2, 157393, Note_on_c, 6, 78, 127
2, 157539, Note_off_c, 6, 78, 127
2, 157542, Note_on_c, 4, 76, 127
2, 157688, Note_off_c, 4, 76, 127
2, 157690, Note_on_c, 2, 74, 127
2, 157836, Note_off_c, 2, 74, 127
2, 157839, Note_on_c, 1, 73, 127
2, 157985, Note_off_c, 1, 73, 127
2, 157985, Note_off_c, 2, 50, 127
2, 157985, Note_off_c, 6, 66, 127
2, 157987, Note_on_c, 12, 71, 127
2, 158136, Note_on_c, 2, 74, 127
2, 158282, Note_off_c, 2, 74, 127
2, 158282, Note_off_c, 12, 71, 127
2, 158284, Note_on_c, 4, 76, 127
2, 158284, Note_on_c, 1, 73, 127
2, 158284, Note_on_c, 1, 49, 127
2, 158430, Note_off_c, 1, 73, 127
2, 158433, Note_on_c, 12, 71, 127
2, 158579, Note_off_c, 12, 71, 127
2, 158579, Note_off_c, 1, 49, 127
2, 158581, Note_on_c, 11, 70, 127
2, 158581, Note_on_c, 6, 54, 127
2, 158727, Note_off_c, 11, 70, 127
2, 158730, Note_on_c, 8, 68, 127
2, 158876, Note_off_c, 8, 68, 127
2, 158876, Note_off_c, 6, 54, 127
2, 158878, Note_on_c, 6, 66, 127
2, 158878, Note_on_c, 2, 50, 127
2, 159024, Note_off_c, 6, 66, 127
2, 159027, Note_on_c, 1, 73, 127
2, 159173, Note_off_c, 1, 73, 127
2, 159173, Note_off_c, 2, 50, 127
2, 159173, Note_off_c, 4, 76, 127
2, 159175, Note_on_c, 2, 74, 127
2, 159175, Note_on_c, 12, 71, 127
2, 159175, Note_on_c, 7, 55, 127
2, 159321, Note_off_c, 12, 71, 127
2, 159324, Note_on_c, 10, 69, 127
2, 159470, Note_off_c, 10, 69, 127
2, 159470, Note_off_c, 7, 55, 127
2, 159472, Note_on_c, 7, 67, 127
2, 159472, Note_on_c, 4, 52, 127
2, 159618, Note_off_c, 7, 67, 127
2, 159621, Note_on_c, 6, 66, 127
2, 159767, Note_off_c, 6, 66, 127
2, 159767, Note_off_c, 4, 52, 127
2, 159769, Note_on_c, 4, 64, 127
2, 159769, Note_on_c, 11, 58, 127
2, 159915, Note_off_c, 4, 64, 127
2, 159918, Note_on_c, 12, 71, 127
2, 160064, Note_off_c, 12, 71, 127
2, 160064, Note_off_c, 11, 58, 127
2, 160064, Note_off_c, 2, 74, 127
2, 160066, Note_on_c, 1, 73, 127
2, 160066, Note_on_c, 11, 70, 127
2, 160066, Note_on_c, 6, 54, 127
2, 160212, Note_off_c, 11, 70, 127
2, 160215, Note_on_c, 8, 68, 127
2, 160361, Note_off_c, 8, 68, 127
2, 160361, Note_off_c, 6, 54, 127
2, 160363, Note_on_c, 6, 66, 127
2, 160363, Note_on_c, 12, 59, 127
2, 160509, Note_off_c, 6, 66, 127
2, 160512, Note_on_c, 4, 64, 127
2, 160658, Note_off_c, 4, 64, 127
2, 160658, Note_off_c, 12, 59, 127
2, 160660, Note_on_c, 2, 62, 127
2, 160660, Note_on_c, 8, 56, 127
2, 160806, Note_off_c, 1, 73, 127
2, 160809, Note_on_c, 12, 71, 127
2, 160955, Note_off_c, 12, 71, 127
2, 160955, Note_off_c, 8, 56, 127
2, 160955, Note_off_c, 2, 62, 127
2, 160957, Note_on_c, 11, 70, 127
2, 160957, Note_on_c, 4, 64, 127
2, 160957, Note_on_c, 1, 61, 127
2, 161103, Note_off_c, 11, 70, 127
2, 161106, Note_on_c, 12, 71, 127
2, 161252, Note_off_c, 12, 71, 127
2, 161252, Note_off_c, 1, 61, 127
2, 161254, Note_on_c, 1, 73, 127
2, 161254, Note_on_c, 11, 58, 127
2, 161400, Note_off_c, 1, 73, 127
2, 161403, Note_on_c, 2, 74, 127
2, 161549, Note_off_c, 2, 74, 127
2, 161549, Note_off_c, 11, 58, 127
2, 161549, Note_off_c, 4, 64, 127
2, 161551, Note_on_c, 4, 76, 127
2, 161551, Note_on_c, 6, 66, 127
2, 161551, Note_on_c, 2, 62, 127
2, 161697, Note_off_c, 4, 76, 127
2, 161700, Note_on_c, 2, 74, 127
2, 161846, Note_off_c, 2, 74, 127
2, 161846, Note_off_c, 2, 62, 127
2, 161846, Note_off_c, 6, 66, 127
2, 161848, Note_on_c, 4, 76, 127
2, 161848, Note_on_c, 12, 71, 127
2, 161848, Note_on_c, 12, 59, 127
2, 161994, Note_off_c, 4, 76, 127
2, 161997, Note_on_c, 6, 78, 127
2, 162143, Note_off_c, 6, 78, 127
2, 162143, Note_off_c, 12, 59, 127
2, 162145, Note_on_c, 7, 79, 127
2, 162145, Note_on_c, 4, 64, 127
2, 162291, Note_off_c, 7, 79, 127
2, 162294, Note_on_c, 4, 76, 127
2, 162440, Note_off_c, 4, 76, 127
2, 162440, Note_off_c, 12, 71, 127
2, 162442, Note_on_c, 11, 82, 127
2, 162442, Note_on_c, 1, 73, 127
2, 162588, Note_off_c, 11, 82, 127
2, 162591, Note_on_c, 6, 78, 127
2, 162737, Note_off_c, 6, 78, 127
2, 162737, Note_off_c, 1, 73, 127
2, 162737, Note_off_c, 4, 64, 127
2, 162739, Note_on_c, 12, 83, 127
2, 162739, Note_on_c, 6, 66, 127
2, 162739, Note_on_c, 2, 62, 127
2, 162885, Note_off_c, 12, 83, 127
2, 162888, Note_on_c, 10, 81, 127
2, 163034, Note_off_c, 10, 81, 127
2, 163034, Note_off_c, 2, 62, 127
2, 163036, Note_on_c, 7, 79, 127
2, 163036, Note_on_c, 1, 61, 127
2, 163182, Note_off_c, 7, 79, 127
2, 163185, Note_on_c, 6, 78, 127
2, 163331, Note_off_c, 6, 78, 127
2, 163331, Note_off_c, 1, 61, 127
2, 163331, Note_off_c, 6, 66, 127
2, 163333, Note_on_c, 4, 76, 127
2, 163333, Note_on_c, 7, 67, 127
2, 163333, Note_on_c, 12, 59, 127
2, 163479, Note_off_c, 4, 76, 127
2, 163482, Note_on_c, 2, 74, 127
2, 163628, Note_off_c, 2, 74, 127
2, 163628, Note_off_c, 12, 59, 127
2, 163628, Note_off_c, 7, 67, 127
2, 163630, Note_on_c, 1, 73, 127
2, 163630, Note_on_c, 4, 64, 127
2, 163630, Note_on_c, 7, 55, 127
2, 163776, Note_off_c, 1, 73, 127
2, 163779, Note_on_c, 12, 71, 127
2, 163925, Note_off_c, 12, 71, 127
2, 163925, Note_off_c, 7, 55, 127
2, 163925, Note_off_c, 4, 64, 127
2, 163927, Note_on_c, 11, 70, 127
2, 163927, Note_on_c, 6, 66, 127
2, 163927, Note_on_c, 2, 50, 127
2, 164073, Note_off_c, 11, 70, 127
2, 164076, Note_on_c, 12, 71, 127
2, 164222, Note_off_c, 12, 71, 127
2, 164222, Note_off_c, 2, 50, 127
2, 164222, Note_off_c, 6, 66, 127
2, 164224, Note_on_c, 7, 79, 127
2, 164224, Note_on_c, 12, 59, 127
2, 164224, Note_on_c, 4, 52, 127
2, 164370, Note_off_c, 7, 79, 127
2, 164373, Note_on_c, 6, 78, 127
2, 164519, Note_off_c, 6, 78, 127
2, 164519, Note_off_c, 4, 52, 127
2, 164519, Note_off_c, 12, 59, 127
2, 164521, Note_on_c, 4, 76, 127
2, 164521, Note_on_c, 11, 58, 127
2, 164521, Note_on_c, 6, 54, 127
2, 164667, Note_off_c, 4, 76, 127
2, 164670, Note_on_c, 2, 74, 127
2, 164814, Note_off_c, 11, 58, 127
2, 164816, Note_off_c, 2, 74, 127
2, 164818, Note_on_c, 1, 73, 127
2, 164818, Note_on_c, 6, 42, 127
2, 164964, Note_off_c, 1, 73, 127
2, 164967, Note_on_c, 12, 71, 127
2, 165109, Note_off_c, 6, 54, 127
2, 165113, Note_off_c, 12, 71, 127
2, 165113, Note_off_c, 6, 42, 127
2, 165115, Note_on_c, 12, 71, 127
2, 165115, Note_on_c, 12, 47, 127
2, 165261, Note_off_c, 12, 47, 127
2, 165264, Note_on_c, 6, 54, 127
2, 165410, Note_off_c, 6, 54, 127
2, 165410, Note_off_c, 12, 71, 127
2, 165412, Note_on_c, 2, 74, 127
2, 165412, Note_on_c, 6, 66, 127
2, 165412, Note_on_c, 12, 59, 127
2, 165558, Note_off_c, 12, 59, 127
2, 165561, Note_on_c, 10, 57, 127
2, 165707, Note_off_c, 10, 57, 127
2, 165707, Note_off_c, 6, 66, 127
2, 165709, Note_on_c, 12, 71, 127
2, 165709, Note_on_c, 8, 56, 127
2, 165855, Note_off_c, 8, 56, 127
2, 165858, Note_on_c, 6, 54, 127
2, 166004, Note_off_c, 6, 54, 127
2, 166004, Note_off_c, 12, 71, 127
2, 166006, Note_on_c, 8, 68, 127
2, 166006, Note_on_c, 4, 52, 127
2, 166152, Note_off_c, 4, 52, 127
2, 166155, Note_on_c, 6, 54, 127
2, 166301, Note_off_c, 6, 54, 127
2, 166301, Note_off_c, 2, 74, 127
2, 166303, Note_on_c, 12, 71, 127
2, 166303, Note_on_c, 4, 52, 127
2, 166449, Note_off_c, 4, 52, 127
2, 166452, Note_on_c, 2, 50, 127
2, 166598, Note_off_c, 2, 50, 127
2, 166598, Note_off_c, 12, 71, 127
2, 166600, Note_on_c, 4, 76, 127
2, 166600, Note_on_c, 1, 49, 127
2, 166746, Note_off_c, 1, 49, 127
2, 166749, Note_on_c, 12, 47, 127
2, 166895, Note_off_c, 12, 47, 127
2, 166895, Note_off_c, 4, 76, 127
2, 166897, Note_on_c, 1, 73, 127
2, 166897, Note_on_c, 10, 45, 127
2, 167043, Note_off_c, 10, 45, 127
2, 167046, Note_on_c, 12, 47, 127
2, 167192, Note_off_c, 12, 47, 127
2, 167192, Note_off_c, 1, 73, 127
2, 167192, Note_off_c, 8, 68, 127
2, 167194, Note_on_c, 6, 78, 127
2, 167194, Note_on_c, 1, 73, 127
2, 167194, Note_on_c, 10, 45, 127
2, 167340, Note_off_c, 10, 45, 127
2, 167343, Note_on_c, 8, 44, 127
2, 167489, Note_off_c, 8, 44, 127
2, 167489, Note_off_c, 1, 73, 127
2, 167489, Note_off_c, 6, 78, 127
2, 167491, Note_on_c, 3, 75, 127
2, 167491, Note_on_c, 10, 69, 127
2, 167491, Note_on_c, 6, 42, 127
2, 167637, Note_off_c, 6, 42, 127
2, 167640, Note_on_c, 4, 40, 127
2, 167786, Note_off_c, 4, 40, 127
2, 167786, Note_off_c, 3, 75, 127
2, 167788, Note_on_c, 12, 71, 127
2, 167788, Note_on_c, 3, 39, 127
2, 167934, Note_off_c, 3, 39, 127
2, 167937, Note_on_c, 12, 47, 127
2, 168083, Note_off_c, 12, 47, 127
2, 168083, Note_off_c, 10, 69, 127
2, 168085, Note_on_c, 8, 68, 127
2, 168085, Note_on_c, 4, 52, 127
2, 168231, Note_off_c, 4, 52, 127
2, 168234, Note_on_c, 3, 51, 127
2, 168380, Note_off_c, 3, 51, 127
2, 168380, Note_off_c, 8, 68, 127
2, 168382, Note_on_c, 3, 63, 127
2, 168382, Note_on_c, 1, 49, 127
2, 168528, Note_off_c, 1, 49, 127
2, 168531, Note_on_c, 12, 47, 127
2, 168677, Note_off_c, 12, 47, 127
2, 168677, Note_off_c, 3, 63, 127
2, 168679, Note_on_c, 4, 64, 127
2, 168679, Note_on_c, 1, 49, 127
2, 168825, Note_off_c, 1, 49, 127
2, 168828, Note_on_c, 8, 56, 127
2, 168974, Note_off_c, 8, 56, 127
2, 168974, Note_off_c, 12, 71, 127
2, 168976, Note_on_c, 8, 68, 127
2, 168976, Note_on_c, 1, 61, 127
2, 169122, Note_off_c, 1, 61, 127
2, 169125, Note_on_c, 12, 59, 127
2, 169271, Note_off_c, 12, 59, 127
2, 169271, Note_off_c, 8, 68, 127
2, 169273, Note_on_c, 1, 73, 127
2, 169273, Note_on_c, 10, 57, 127
2, 169419, Note_off_c, 10, 57, 127
2, 169422, Note_on_c, 8, 56, 127
2, 169568, Note_off_c, 8, 56, 127
2, 169568, Note_off_c, 1, 73, 127
2, 169570, Note_on_c, 10, 69, 127
2, 169570, Note_on_c, 6, 54, 127
2, 169716, Note_off_c, 6, 54, 127
2, 169719, Note_on_c, 8, 56, 127
2, 169865, Note_off_c, 8, 56, 127
2, 169865, Note_off_c, 4, 64, 127
2, 169867, Note_on_c, 1, 61, 127
2, 169867, Note_on_c, 6, 54, 127
2, 170013, Note_off_c, 6, 54, 127
2, 170016, Note_on_c, 4, 52, 127
2, 170162, Note_off_c, 4, 52, 127
2, 170162, Note_off_c, 1, 61, 127
2, 170164, Note_on_c, 6, 66, 127
2, 170164, Note_on_c, 3, 51, 127
2, 170310, Note_off_c, 3, 51, 127
2, 170313, Note_on_c, 1, 49, 127
2, 170459, Note_off_c, 1, 49, 127
2, 170459, Note_off_c, 6, 66, 127
2, 170461, Note_on_c, 3, 63, 127
2, 170461, Note_on_c, 12, 47, 127
2, 170607, Note_off_c, 12, 47, 127
2, 170610, Note_on_c, 1, 49, 127
2, 170756, Note_off_c, 1, 49, 127
2, 170756, Note_off_c, 3, 63, 127
2, 170756, Note_off_c, 10, 69, 127
2, 170758, Note_on_c, 12, 71, 127
2, 170758, Note_on_c, 8, 68, 127
2, 170758, Note_on_c, 12, 47, 127
2, 170904, Note_off_c, 12, 47, 127
2, 170907, Note_on_c, 10, 45, 127
2, 171053, Note_off_c, 10, 45, 127
2, 171053, Note_off_c, 8, 68, 127
2, 171055, Note_on_c, 5, 65, 127
2, 171055, Note_on_c, 8, 44, 127
2, 171201, Note_off_c, 8, 44, 127
2, 171204, Note_on_c, 6, 42, 127
2, 171350, Note_off_c, 6, 42, 127
2, 171350, Note_off_c, 5, 65, 127
2, 171352, Note_on_c, 1, 61, 127
2, 171352, Note_on_c, 5, 41, 127
2, 171498, Note_off_c, 5, 41, 127
2, 171501, Note_on_c, 1, 49, 127
2, 171647, Note_off_c, 1, 49, 127
2, 171647, Note_off_c, 12, 71, 127
2, 171649, Note_on_c, 10, 69, 127
2, 171649, Note_on_c, 6, 54, 127
2, 171795, Note_off_c, 6, 54, 127
2, 171798, Note_on_c, 4, 52, 127
2, 171944, Note_off_c, 4, 52, 127
2, 171944, Note_off_c, 10, 69, 127
2, 171946, Note_on_c, 5, 65, 127
2, 171946, Note_on_c, 2, 50, 127
2, 172092, Note_off_c, 2, 50, 127
2, 172095, Note_on_c, 1, 49, 127
2, 172241, Note_off_c, 1, 49, 127
2, 172241, Note_off_c, 5, 65, 127
2, 172243, Note_on_c, 6, 66, 127
2, 172243, Note_on_c, 2, 50, 127
2, 172389, Note_off_c, 2, 50, 127
2, 172392, Note_on_c, 4, 52, 127
2, 172538, Note_off_c, 4, 52, 127
2, 172538, Note_off_c, 1, 61, 127
2, 172540, Note_on_c, 10, 57, 127
2, 172540, Note_on_c, 2, 50, 127
2, 172686, Note_off_c, 2, 50, 127
2, 172689, Note_on_c, 1, 49, 127
2, 172835, Note_off_c, 1, 49, 127
2, 172835, Note_off_c, 10, 57, 127
2, 172837, Note_on_c, 2, 62, 127
2, 172837, Note_on_c, 12, 47, 127
2, 172983, Note_off_c, 12, 47, 127
2, 172986, Note_on_c, 10, 45, 127
2, 173132, Note_off_c, 10, 45, 127
2, 173132, Note_off_c, 2, 62, 127
2, 173134, Note_on_c, 12, 59, 127
2, 173134, Note_on_c, 8, 44, 127
2, 173280, Note_off_c, 8, 44, 127
2, 173283, Note_on_c, 10, 45, 127
2, 173429, Note_off_c, 10, 45, 127
2, 173429, Note_off_c, 6, 66, 127
2, 173431, Note_on_c, 3, 63, 127
2, 173431, Note_on_c, 8, 44, 127
2, 173577, Note_off_c, 8, 44, 127
2, 173580, Note_on_c, 6, 42, 127
2, 173726, Note_off_c, 6, 42, 127
2, 173726, Note_off_c, 3, 63, 127
2, 173728, Note_on_c, 8, 68, 127
2, 173728, Note_on_c, 5, 41, 127
2, 173874, Note_off_c, 5, 41, 127
2, 173877, Note_on_c, 3, 39, 127
2, 174023, Note_off_c, 3, 39, 127
2, 174023, Note_off_c, 8, 68, 127
2, 174025, Note_on_c, 5, 65, 127
2, 174025, Note_on_c, 1, 37, 127
2, 174171, Note_off_c, 5, 65, 127
2, 174182, Note_on_c, 1, 61, 127
2, 174320, Note_off_c, 1, 37, 127
2, 174320, Note_off_c, 12, 59, 127
2, 174328, Note_off_c, 1, 61, 127
2, 174330, Note_on_c, 3, 63, 127
2, 174330, Note_on_c, 10, 57, 127
2, 174330, Note_on_c, 10, 45, 127
2, 174476, Note_off_c, 3, 63, 127
2, 174479, Note_on_c, 5, 65, 127
2, 174625, Note_off_c, 5, 65, 127
2, 174625, Note_off_c, 10, 45, 127
2, 174625, Note_off_c, 10, 57, 127
2, 174627, Note_on_c, 6, 66, 127
2, 174627, Note_on_c, 12, 59, 127
2, 174627, Note_on_c, 2, 50, 127
2, 174773, Note_off_c, 6, 66, 127
2, 174776, Note_on_c, 8, 68, 127
2, 174922, Note_off_c, 8, 68, 127
2, 174922, Note_off_c, 2, 50, 127
2, 174922, Note_off_c, 12, 59, 127
2, 174924, Note_on_c, 10, 69, 127
2, 174924, Note_on_c, 5, 53, 127
2, 174924, Note_on_c, 1, 49, 127
2, 175070, Note_off_c, 10, 69, 127
2, 175073, Note_on_c, 6, 66, 127
2, 175219, Note_off_c, 6, 66, 127
2, 175219, Note_off_c, 1, 49, 127
2, 175219, Note_off_c, 5, 53, 127
2, 175221, Note_on_c, 8, 68, 127
2, 175221, Note_on_c, 6, 54, 127
2, 175367, Note_off_c, 8, 68, 127
2, 175370, Note_on_c, 10, 69, 127
2, 175516, Note_off_c, 10, 69, 127
2, 175516, Note_off_c, 6, 54, 127
2, 175518, Note_on_c, 12, 71, 127
2, 175518, Note_on_c, 3, 51, 127
2, 175664, Note_off_c, 12, 71, 127
2, 175667, Note_on_c, 1, 73, 127
2, 175813, Note_off_c, 1, 73, 127
2, 175813, Note_off_c, 3, 51, 127
2, 175815, Note_on_c, 2, 74, 127
2, 175815, Note_on_c, 8, 56, 127
2, 175961, Note_off_c, 2, 74, 127
2, 175964, Note_on_c, 12, 71, 127
2, 176110, Note_off_c, 12, 71, 127
2, 176110, Note_off_c, 8, 56, 127
2, 176112, Note_on_c, 1, 73, 127
2, 176112, Note_on_c, 5, 53, 127
2, 176258, Note_off_c, 1, 73, 127
2, 176261, Note_on_c, 3, 75, 127
2, 176407, Note_off_c, 3, 75, 127
2, 176407, Note_off_c, 5, 53, 127
2, 176409, Note_on_c, 5, 77, 127
2, 176409, Note_on_c, 10, 57, 127
2, 176555, Note_off_c, 5, 77, 127
2, 176558, Note_on_c, 6, 78, 127
2, 176704, Note_off_c, 6, 78, 127
2, 176704, Note_off_c, 10, 57, 127
2, 176706, Note_on_c, 2, 74, 127
2, 176706, Note_on_c, 6, 54, 127
2, 176852, Note_off_c, 2, 74, 127
2, 176855, Note_on_c, 4, 76, 127
2, 177001, Note_off_c, 4, 76, 127
2, 177001, Note_off_c, 6, 54, 127
2, 177003, Note_on_c, 2, 74, 127
2, 177003, Note_on_c, 12, 59, 127
2, 177149, Note_off_c, 2, 74, 127
2, 177152, Note_on_c, 1, 73, 127
2, 177298, Note_off_c, 1, 73, 127
2, 177298, Note_off_c, 12, 59, 127
2, 177300, Note_on_c, 12, 71, 127
2, 177300, Note_on_c, 8, 56, 127
2, 177446, Note_off_c, 12, 71, 127
2, 177449, Note_on_c, 10, 69, 127
2, 177595, Note_off_c, 10, 69, 127
2, 177595, Note_off_c, 8, 56, 127
2, 177597, Note_on_c, 8, 68, 127
2, 177597, Note_on_c, 1, 61, 127
2, 177743, Note_off_c, 8, 68, 127
2, 177746, Note_on_c, 12, 71, 127
2, 177892, Note_off_c, 12, 71, 127
2, 177892, Note_off_c, 1, 61, 127
2, 177894, Note_on_c, 10, 69, 127
2, 177894, Note_on_c, 10, 57, 127
2, 178040, Note_off_c, 10, 69, 127
2, 178043, Note_on_c, 8, 68, 127
2, 178189, Note_off_c, 8, 68, 127
2, 178189, Note_off_c, 10, 57, 127
2, 178191, Note_on_c, 6, 66, 127
2, 178191, Note_on_c, 2, 62, 127
2, 178337, Note_off_c, 6, 66, 127
2, 178340, Note_on_c, 5, 65, 127
2, 178450, Note_off_c, 5, 65, 127
2, 178488, Note_on_c, 12, 71, 127
2, 178634, Note_off_c, 2, 62, 127
2, 178637, Note_on_c, 4, 64, 127
2, 178783, Note_off_c, 4, 64, 127
2, 178785, Note_on_c, 8, 68, 127
2, 178785, Note_on_c, 2, 62, 127
2, 178931, Note_off_c, 2, 62, 127
2, 178934, Note_on_c, 1, 61, 127
2, 179080, Note_off_c, 1, 61, 127
2, 179080, Note_off_c, 8, 68, 127
2, 179082, Note_on_c, 3, 63, 127
2, 179082, Note_on_c, 12, 59, 127
2, 179228, Note_off_c, 12, 59, 127
2, 179231, Note_on_c, 10, 57, 127
2, 179377, Note_off_c, 10, 57, 127
2, 179377, Note_off_c, 3, 63, 127
2, 179382, Note_on_c, 5, 65, 127
2, 179382, Note_on_c, 8, 56, 127
2, 179525, Note_off_c, 12, 71, 127
2, 179536, Note_on_c, 10, 69, 127
2, 179677, Note_off_c, 8, 56, 127
2, 179677, Note_off_c, 5, 65, 127
2, 179682, Note_off_c, 10, 69, 127
2, 179684, Note_on_c, 12, 71, 127
2, 179684, Note_on_c, 1, 61, 127
2, 179684, Note_on_c, 5, 53, 127
2, 179830, Note_off_c, 12, 71, 127
2, 179833, Note_on_c, 8, 68, 127
2, 179979, Note_off_c, 8, 68, 127
2, 179979, Note_off_c, 5, 53, 127
2, 179979, Note_off_c, 1, 61, 127
2, 179981, Note_on_c, 10, 69, 127
2, 179981, Note_on_c, 6, 66, 127
2, 179981, Note_on_c, 6, 54, 127
2, 180276, Note_off_c, 6, 54, 127
2, 180278, Note_on_c, 12, 47, 127
2, 180424, Note_off_c, 10, 69, 127
2, 180427, Note_on_c, 12, 71, 127
2, 180573, Note_off_c, 12, 71, 127
2, 180573, Note_off_c, 12, 47, 127
2, 180573, Note_off_c, 6, 66, 127
2, 180575, Note_on_c, 10, 69, 127
2, 180575, Note_on_c, 5, 65, 127
2, 180575, Note_on_c, 1, 49, 127
2, 180648, Note_off_c, 10, 69, 127
2, 180650, Note_on_c, 8, 68, 127
2, 180723, Note_off_c, 8, 68, 127
2, 180726, Note_on_c, 10, 69, 127
2, 180799, Note_off_c, 10, 69, 127
2, 180801, Note_on_c, 8, 68, 127
2, 180873, Note_off_c, 1, 49, 127
2, 180874, Note_off_c, 8, 68, 127
2, 180876, Note_on_c, 10, 69, 127
2, 180876, Note_on_c, 1, 37, 127
2, 180949, Note_off_c, 10, 69, 127
2, 180951, Note_on_c, 8, 68, 127
2, 181024, Note_off_c, 8, 68, 127
2, 181026, Note_on_c, 6, 66, 127
2, 181172, Note_off_c, 6, 66, 127
2, 181172, Note_off_c, 5, 65, 127
2, 181173, Note_off_c, 1, 37, 127
2, 181175, Note_on_c, 6, 66, 127
2, 181175, Note_on_c, 6, 42, 127
2, 181468, Note_off_c, 6, 42, 127
2, 181468, Note_off_c, 6, 66, 127
2, 181474, Note_on_c, 1, 61, 127
2, 181474, Note_on_c, 10, 45, 127
2, 181767, Note_off_c, 10, 45, 127
2, 181773, Note_on_c, 6, 66, 127
2, 181773, Note_on_c, 6, 42, 127
2, 182066, Note_off_c, 6, 42, 127
2, 182066, Note_off_c, 6, 66, 127
2, 182072, Note_on_c, 4, 64, 127
2, 182072, Note_on_c, 1, 49, 127
2, 182370, Note_off_c, 1, 61, 127
2, 182373, Note_on_c, 8, 56, 127
2, 182666, Note_off_c, 8, 56, 127
2, 182669, Note_off_c, 1, 49, 127
2, 182669, Note_off_c, 4, 64, 127
2, 182672, Note_on_c, 10, 69, 127
2, 182672, Note_on_c, 1, 61, 127
2, 182672, Note_on_c, 10, 45, 127
2, 182965, Note_off_c, 10, 45, 127
2, 182965, Note_off_c, 1, 61, 127
2, 182965, Note_off_c, 10, 69, 127
2, 182971, Note_on_c, 6, 66, 127
2, 182971, Note_on_c, 10, 57, 127
2, 182971, Note_on_c, 2, 50, 127
2, 183264, Note_off_c, 2, 50, 127
2, 183264, Note_off_c, 10, 57, 127
2, 183264, Note_off_c, 6, 66, 127
2, 183270, Note_on_c, 12, 71, 127
2, 183270, Note_on_c, 2, 62, 127
2, 183270, Note_on_c, 12, 47, 127
2, 183563, Note_off_c, 12, 47, 127
2, 183563, Note_off_c, 2, 62, 127
2, 183563, Note_off_c, 12, 71, 127
2, 183569, Note_on_c, 8, 68, 127
2, 183569, Note_on_c, 12, 59, 127
2, 183569, Note_on_c, 4, 52, 127
2, 183862, Note_off_c, 4, 52, 127
2, 183862, Note_off_c, 12, 59, 127
2, 183862, Note_off_c, 8, 68, 127
2, 183868, Note_on_c, 1, 73, 127
2, 183868, Note_on_c, 4, 64, 127
2, 183868, Note_on_c, 1, 49, 127
2, 184161, Note_off_c, 1, 49, 127
2, 184161, Note_off_c, 4, 64, 127
2, 184161, Note_off_c, 1, 73, 127
2, 184167, Note_on_c, 10, 69, 127
2, 184167, Note_on_c, 1, 61, 127
2, 184167, Note_on_c, 6, 54, 127
2, 184460, Note_off_c, 6, 54, 127
2, 184460, Note_off_c, 1, 61, 127
2, 184460, Note_off_c, 10, 69, 127
2, 184466, Note_on_c, 2, 74, 127
2, 184466, Note_on_c, 6, 66, 127
2, 184466, Note_on_c, 2, 50, 127
2, 184759, Note_off_c, 2, 50, 127
2, 184759, Note_off_c, 6, 66, 127
2, 184765, Note_on_c, 4, 64, 127
2, 184765, Note_on_c, 10, 57, 127
2, 185058, Note_off_c, 10, 57, 127
2, 185058, Note_off_c, 4, 64, 127
2, 185061, Note_off_c, 2, 74, 127
2, 185064, Note_on_c, 1, 73, 127
2, 185064, Note_on_c, 10, 69, 127
2, 185064, Note_on_c, 10, 45, 127
2, 185357, Note_off_c, 10, 45, 127
2, 185357, Note_off_c, 10, 69, 127
2, 185357, Note_off_c, 1, 73, 127
2, 185363, Note_on_c, 12, 71, 127
2, 185363, Note_on_c, 2, 62, 127
2, 185363, Note_on_c, 12, 47, 127
2, 185656, Note_off_c, 12, 47, 127
2, 185656, Note_off_c, 12, 71, 127
2, 185662, Note_on_c, 4, 64, 127
2, 185662, Note_on_c, 1, 49, 127
2, 185955, Note_off_c, 1, 49, 127
2, 185955, Note_off_c, 4, 64, 127
2, 185958, Note_off_c, 2, 62, 127
2, 185961, Note_on_c, 10, 69, 127
2, 185961, Note_on_c, 1, 61, 127
2, 185961, Note_on_c, 6, 54, 127
2, 186254, Note_off_c, 6, 54, 127
2, 186254, Note_off_c, 1, 61, 127
2, 186260, Note_on_c, 3, 63, 127
2, 186260, Note_on_c, 12, 47, 127
2, 186553, Note_off_c, 12, 47, 127
2, 186553, Note_off_c, 3, 63, 127
2, 186559, Note_on_c, 4, 64, 127
2, 186559, Note_on_c, 4, 52, 127
2, 186852, Note_off_c, 4, 64, 127
2, 186855, Note_off_c, 10, 69, 127
2, 186858, Note_on_c, 8, 68, 127
2, 186858, Note_on_c, 12, 59, 127
2, 187151, Note_off_c, 12, 59, 127
2, 187151, Note_off_c, 8, 68, 127
2, 187157, Note_on_c, 12, 71, 127
2, 187157, Note_on_c, 2, 62, 127
2, 187450, Note_off_c, 12, 71, 127
2, 187456, Note_on_c, 4, 64, 127
2, 187749, Note_off_c, 4, 64, 127
2, 187752, Note_off_c, 2, 62, 127
2, 187752, Note_off_c, 4, 52, 127
2, 187755, Note_on_c, 10, 69, 127
2, 187755, Note_on_c, 1, 61, 127
2, 187755, Note_on_c, 1, 49, 127
2, 188048, Note_off_c, 1, 49, 127
2, 188048, Note_off_c, 1, 61, 127
2, 188054, Note_on_c, 3, 63, 127
2, 188054, Note_on_c, 6, 54, 127
2, 188235, Note_off_c, 10, 69, 127
2, 188347, Note_off_c, 6, 54, 127
2, 188347, Note_off_c, 3, 63, 127
2, 188352, Note_on_c, 8, 68, 127
2, 188352, Note_on_c, 4, 64, 127
2, 188352, Note_on_c, 4, 52, 127
2, 188645, Note_off_c, 4, 52, 127
2, 188645, Note_off_c, 8, 68, 127
2, 188651, Note_on_c, 1, 73, 127
2, 188651, Note_on_c, 10, 57, 127
2, 188944, Note_off_c, 10, 57, 127
2, 188944, Note_off_c, 1, 73, 127
2, 188947, Note_off_c, 4, 64, 127
2, 188950, Note_on_c, 10, 69, 127
2, 188950, Note_on_c, 6, 66, 127
2, 188950, Note_on_c, 6, 54, 127
2, 189243, Note_off_c, 6, 54, 127
2, 189243, Note_off_c, 10, 69, 127
2, 189249, Note_on_c, 2, 74, 127
2, 189249, Note_on_c, 12, 59, 127
2, 189542, Note_off_c, 12, 59, 127
2, 189545, Note_off_c, 6, 66, 127
2, 189548, Note_on_c, 12, 71, 127
2, 189548, Note_on_c, 8, 56, 127
2, 189841, Note_off_c, 8, 56, 127
2, 189841, Note_off_c, 12, 71, 127
2, 189847, Note_on_c, 4, 64, 127
2, 189847, Note_on_c, 1, 61, 127
2, 190140, Note_off_c, 1, 61, 127
2, 190143, Note_off_c, 2, 74, 127
2, 190146, Note_on_c, 1, 73, 127
2, 190146, Note_on_c, 10, 57, 127
2, 190439, Note_off_c, 10, 57, 127
2, 190439, Note_off_c, 1, 73, 127
2, 190442, Note_off_c, 4, 64, 127
2, 190445, Note_on_c, 6, 78, 127
2, 190445, Note_on_c, 2, 62, 127
2, 190738, Note_off_c, 2, 62, 127
2, 190744, Note_on_c, 1, 61, 127
2, 190744, Note_on_c, 6, 54, 127
2, 191037, Note_off_c, 6, 54, 127
2, 191037, Note_off_c, 1, 61, 127
2, 191043, Note_on_c, 12, 59, 127
2, 191043, Note_on_c, 8, 56, 127
2, 191336, Note_off_c, 8, 56, 127
2, 191336, Note_off_c, 12, 59, 127
2, 191339, Note_off_c, 6, 78, 127
2, 191342, Note_on_c, 4, 76, 127
2, 191342, Note_on_c, 8, 68, 127
2, 191342, Note_on_c, 4, 52, 127
2, 191635, Note_off_c, 4, 52, 127
2, 191635, Note_off_c, 8, 68, 127
2, 191635, Note_off_c, 4, 76, 127
2, 191641, Note_on_c, 2, 74, 127
2, 191641, Note_on_c, 12, 71, 127
2, 191641, Note_on_c, 8, 56, 127
2, 191934, Note_off_c, 8, 56, 127
2, 191934, Note_off_c, 12, 71, 127
2, 191940, Note_on_c, 4, 64, 127
2, 191940, Note_on_c, 10, 57, 127
2, 192233, Note_off_c, 10, 57, 127
2, 192236, Note_off_c, 2, 74, 127
2, 192239, Note_on_c, 1, 73, 127
2, 192239, Note_on_c, 10, 45, 127
2, 192532, Note_off_c, 10, 45, 127
2, 192538, Note_on_c, 1, 49, 127
2, 192831, Note_off_c, 1, 49, 127
2, 192837, Note_on_c, 2, 38, 127
2, 192989, Note_off_c, 1, 73, 127
2, 193114, Note_off_c, 4, 64, 127
2, 193138, Note_on_c, 12, 71, 127
2, 193138, Note_on_c, 2, 62, 127
2, 193431, Note_off_c, 2, 62, 127
2, 193431, Note_off_c, 12, 71, 127
2, 193434, Note_off_c, 2, 38, 127
2, 193437, Note_on_c, 10, 69, 127
2, 193437, Note_on_c, 6, 66, 127
2, 193437, Note_on_c, 2, 50, 127
2, 193730, Note_off_c, 6, 66, 127
2, 193736, Note_on_c, 12, 59, 127
2, 194034, Note_off_c, 2, 50, 127
2, 194034, Note_off_c, 10, 69, 127
2, 194037, Note_on_c, 8, 68, 127
2, 194037, Note_on_c, 4, 52, 127
2, 194330, Note_off_c, 4, 52, 127
2, 194330, Note_off_c, 8, 68, 127
2, 194336, Note_on_c, 12, 71, 127
2, 194336, Note_on_c, 12, 47, 127
2, 194629, Note_off_c, 12, 47, 127
2, 194629, Note_off_c, 12, 71, 127
2, 194635, Note_on_c, 4, 76, 127
2, 194635, Note_on_c, 1, 49, 127
2, 194910, Note_off_c, 12, 59, 127
2, 194936, Note_on_c, 10, 57, 127
2, 195229, Note_off_c, 10, 57, 127
2, 195235, Note_on_c, 1, 61, 127
2, 195528, Note_off_c, 1, 61, 127
2, 195534, Note_on_c, 6, 66, 127
2, 195832, Note_off_c, 1, 49, 127
2, 195835, Note_on_c, 6, 42, 127
2, 196128, Note_off_c, 6, 42, 127
2, 196131, Note_off_c, 4, 76, 127
2, 196134, Note_on_c, 2, 74, 127
2, 196134, Note_on_c, 12, 47, 127
2, 196427, Note_off_c, 12, 47, 127
2, 196430, Note_off_c, 6, 66, 127
2, 196433, Note_on_c, 12, 71, 127
2, 196433, Note_on_c, 8, 44, 127
2, 196726, Note_off_c, 8, 44, 127
2, 196726, Note_off_c, 12, 71, 127
2, 196729, Note_off_c, 2, 74, 127
2, 196732, Note_on_c, 1, 73, 127
2, 196732, Note_on_c, 4, 64, 127
2, 196732, Note_on_c, 10, 45, 127
2, 197025, Note_off_c, 4, 64, 127
2, 197031, Note_on_c, 10, 69, 127
2, 197324, Note_off_c, 10, 69, 127
2, 197327, Note_off_c, 10, 45, 127
2, 197330, Note_on_c, 6, 66, 127
2, 197330, Note_on_c, 2, 38, 127
2, 197623, Note_off_c, 2, 38, 127
2, 197626, Note_off_c, 1, 73, 127
2, 197629, Note_on_c, 12, 71, 127
2, 197629, Note_on_c, 2, 50, 127
2, 197922, Note_off_c, 12, 71, 127
2, 197928, Note_on_c, 2, 74, 127
2, 198221, Note_off_c, 2, 74, 127
2, 198224, Note_off_c, 6, 66, 127
2, 198227, Note_on_c, 8, 68, 127
2, 198227, Note_on_c, 4, 64, 127
2, 198520, Note_off_c, 8, 68, 127
2, 198523, Note_off_c, 2, 50, 127
2, 198526, Note_on_c, 4, 76, 127
2, 198526, Note_on_c, 1, 49, 127
2, 198819, Note_off_c, 1, 49, 127
2, 198819, Note_off_c, 4, 76, 127
2, 198822, Note_off_c, 4, 64, 127
2, 198825, Note_on_c, 1, 73, 127
2, 198825, Note_on_c, 10, 69, 127
2, 198825, Note_on_c, 6, 54, 127
2, 199118, Note_off_c, 6, 54, 127
2, 199118, Note_off_c, 1, 73, 127
2, 199124, Note_on_c, 6, 78, 127
2, 199124, Note_on_c, 2, 50, 127
2, 199417, Note_off_c, 2, 50, 127
2, 199417, Note_off_c, 6, 78, 127
2, 199420, Note_off_c, 10, 69, 127
2, 199423, Note_on_c, 12, 71, 127
2, 199423, Note_on_c, 10, 69, 127
2, 199423, Note_on_c, 4, 52, 127
2, 199716, Note_off_c, 4, 52, 127
2, 199716, Note_off_c, 10, 69, 127
2, 199722, Note_on_c, 8, 68, 127
2, 199722, Note_on_c, 4, 40, 127
2, 200015, Note_off_c, 4, 40, 127
2, 200015, Note_off_c, 8, 68, 127
2, 200018, Note_off_c, 12, 71, 127
2, 200021, Note_on_c, 10, 69, 127
2, 200021, Note_on_c, 10, 45, 127
2, 200333, Note_off_c, 10, 45, 127
2, 200342, Note_on_c, 4, 76, 127
2, 200342, Note_on_c, 10, 45, 127
2, 200464, Note_off_c, 10, 69, 127
2, 200492, Note_off_c, 4, 76, 127
2, 200494, Note_on_c, 2, 74, 127
2, 200644, Note_off_c, 2, 74, 127
2, 200644, Note_off_c, 10, 45, 127
2, 200646, Note_on_c, 1, 73, 127
2, 200646, Note_on_c, 2, 50, 127
2, 200796, Note_off_c, 1, 73, 127
2, 200799, Note_on_c, 12, 71, 127
2, 200948, Note_off_c, 2, 50, 127
2, 200949, Note_off_c, 12, 71, 127
2, 200951, Note_on_c, 10, 69, 127
2, 200951, Note_on_c, 1, 49, 127
2, 201101, Note_off_c, 10, 69, 127
2, 201104, Note_on_c, 12, 71, 127
2, 201253, Note_off_c, 1, 49, 127
2, 201254, Note_off_c, 12, 71, 127
2, 201256, Note_on_c, 1, 73, 127
2, 201256, Note_on_c, 10, 57, 127
2, 201406, Note_off_c, 1, 73, 127
2, 201409, Note_on_c, 10, 69, 127
2, 201558, Note_off_c, 10, 57, 127
2, 201559, Note_off_c, 10, 69, 127
2, 201561, Note_on_c, 7, 67, 127
2, 201561, Note_on_c, 2, 50, 127
2, 201711, Note_off_c, 7, 67, 127
2, 201714, Note_on_c, 6, 66, 127
2, 201863, Note_off_c, 2, 50, 127
2, 201864, Note_off_c, 6, 66, 127
2, 201866, Note_on_c, 7, 67, 127
2, 201866, Note_on_c, 12, 59, 127
2, 202016, Note_off_c, 7, 67, 127
2, 202019, Note_on_c, 6, 66, 127
2, 202168, Note_off_c, 12, 59, 127
2, 202169, Note_off_c, 6, 66, 127
2, 202171, Note_on_c, 7, 67, 127
2, 202171, Note_on_c, 4, 52, 127
2, 202321, Note_off_c, 7, 67, 127
2, 202324, Note_on_c, 12, 71, 127
2, 202473, Note_off_c, 4, 52, 127
2, 202474, Note_off_c, 12, 71, 127
2, 202476, Note_on_c, 10, 69, 127
2, 202476, Note_on_c, 1, 61, 127
2, 202626, Note_off_c, 10, 69, 127
2, 202628, Note_on_c, 7, 67, 127
2, 202778, Note_off_c, 7, 67, 127
2, 202778, Note_off_c, 1, 61, 127
2, 202781, Note_on_c, 6, 66, 127
2, 202781, Note_on_c, 2, 62, 127
2, 202933, Note_off_c, 2, 62, 127
2, 202935, Note_on_c, 1, 61, 127
2, 203087, Note_off_c, 1, 61, 127
2, 203090, Note_on_c, 2, 62, 127
2, 203090, Note_on_c, 12, 59, 127
2, 203242, Note_off_c, 12, 59, 127
2, 203244, Note_on_c, 10, 57, 127
2, 203392, Note_off_c, 6, 66, 127
2, 203396, Note_off_c, 10, 57, 127
2, 203396, Note_off_c, 2, 62, 127
2, 203399, Note_on_c, 10, 69, 127
2, 203399, Note_on_c, 8, 56, 127
2, 203551, Note_off_c, 8, 56, 127
2, 203553, Note_on_c, 6, 54, 127
2, 203705, Note_off_c, 6, 54, 127
2, 203705, Note_off_c, 10, 69, 127
2, 203708, Note_on_c, 8, 68, 127
2, 203708, Note_on_c, 4, 52, 127
2, 203860, Note_off_c, 4, 52, 127
2, 203862, Note_on_c, 6, 54, 127
2, 204014, Note_off_c, 6, 54, 127
2, 204016, Note_on_c, 4, 76, 127
2, 204016, Note_on_c, 8, 56, 127
2, 204168, Note_off_c, 8, 56, 127
2, 204171, Note_on_c, 4, 52, 127
2, 204319, Note_off_c, 8, 68, 127
2, 204323, Note_off_c, 4, 52, 127
2, 204325, Note_on_c, 10, 69, 127
2, 204325, Note_on_c, 2, 50, 127
2, 204477, Note_off_c, 2, 50, 127
2, 204480, Note_on_c, 1, 49, 127
2, 204627, Note_off_c, 4, 76, 127
2, 204632, Note_off_c, 1, 49, 127
2, 204634, Note_on_c, 6, 78, 127
2, 204634, Note_on_c, 2, 50, 127
2, 204786, Note_off_c, 2, 50, 127
2, 204789, Note_on_c, 1, 49, 127
2, 204936, Note_off_c, 10, 69, 127
2, 204941, Note_off_c, 1, 49, 127
2, 204943, Note_on_c, 12, 71, 127
2, 204943, Note_on_c, 2, 50, 127
2, 205095, Note_off_c, 2, 50, 127
2, 205098, Note_on_c, 6, 54, 127
2, 205245, Note_off_c, 6, 78, 127
2, 205250, Note_off_c, 6, 54, 127
2, 205252, Note_on_c, 8, 80, 127
2, 205252, Note_on_c, 4, 52, 127
2, 205404, Note_off_c, 4, 52, 127
2, 205406, Note_on_c, 2, 50, 127
2, 205554, Note_off_c, 12, 71, 127
2, 205558, Note_off_c, 2, 50, 127
2, 205558, Note_off_c, 8, 80, 127
2, 205561, Note_on_c, 10, 81, 127
2, 205561, Note_on_c, 1, 49, 127
2, 205717, Note_off_c, 1, 49, 127
2, 205719, Note_on_c, 12, 47, 127
2, 205842, Note_off_c, 10, 81, 127
2, 205875, Note_off_c, 12, 47, 127
2, 205878, Note_on_c, 4, 76, 127
2, 205878, Note_on_c, 1, 73, 127
2, 205878, Note_on_c, 10, 45, 127
2, 206034, Note_off_c, 10, 45, 127
2, 206036, Note_on_c, 12, 47, 127
2, 206192, Note_off_c, 12, 47, 127
2, 206194, Note_on_c, 1, 49, 127
2, 206350, Note_off_c, 1, 49, 127
2, 206353, Note_on_c, 10, 45, 127
2, 206509, Note_off_c, 10, 45, 127
2, 206511, Note_on_c, 2, 50, 127
2, 206667, Note_off_c, 2, 50, 127
2, 206670, Note_on_c, 1, 49, 127
2, 206826, Note_off_c, 1, 49, 127
2, 206826, Note_off_c, 1, 73, 127
2, 206826, Note_off_c, 4, 76, 127
2, 206828, Note_on_c, 2, 74, 127
2, 206828, Note_on_c, 12, 71, 127
2, 206828, Note_on_c, 2, 50, 127
2, 206984, Note_off_c, 2, 50, 127
2, 206986, Note_on_c, 4, 52, 127
2, 207142, Note_off_c, 4, 52, 127
2, 207142, Note_off_c, 12, 71, 127
2, 207142, Note_off_c, 2, 74, 127
2, 207145, Note_on_c, 6, 78, 127
2, 207145, Note_on_c, 10, 69, 127
2, 207145, Note_on_c, 1, 49, 127
2, 207301, Note_off_c, 1, 49, 127
2, 207303, Note_on_c, 2, 50, 127
2, 207459, Note_off_c, 2, 50, 127
2, 207459, Note_off_c, 6, 78, 127
2, 207462, Note_on_c, 12, 71, 127
2, 207462, Note_on_c, 4, 52, 127
2, 207618, Note_off_c, 4, 52, 127
2, 207620, Note_on_c, 2, 50, 127
2, 207776, Note_off_c, 2, 50, 127
2, 207776, Note_off_c, 10, 69, 127
2, 207778, Note_on_c, 8, 68, 127
2, 207778, Note_on_c, 4, 52, 127
2, 207934, Note_off_c, 4, 52, 127
2, 207937, Note_on_c, 6, 54, 127
2, 208092, Note_off_c, 8, 68, 127
2, 208093, Note_off_c, 6, 54, 127
2, 208095, Note_on_c, 4, 64, 127
2, 208095, Note_on_c, 2, 50, 127
2, 208251, Note_off_c, 2, 50, 127
2, 208254, Note_on_c, 4, 52, 127
2, 208409, Note_off_c, 4, 64, 127
2, 208410, Note_off_c, 4, 52, 127
2, 208412, Note_on_c, 1, 61, 127
2, 208412, Note_on_c, 6, 54, 127
2, 208568, Note_off_c, 6, 54, 127
2, 208570, Note_on_c, 7, 55, 127
2, 208726, Note_off_c, 7, 55, 127
2, 208726, Note_off_c, 1, 61, 127
2, 208727, Note_off_c, 12, 71, 127
2, 208729, Note_on_c, 10, 69, 127
2, 208729, Note_on_c, 2, 62, 127
2, 208729, Note_on_c, 6, 54, 127
2, 208885, Note_off_c, 6, 54, 127
2, 208887, Note_on_c, 4, 52, 127
2, 209043, Note_off_c, 4, 52, 127
2, 209043, Note_off_c, 2, 62, 127
2, 209043, Note_off_c, 10, 69, 127
2, 209046, Note_on_c, 7, 67, 127
2, 209046, Note_on_c, 4, 64, 127
2, 209046, Note_on_c, 2, 50, 127
2, 209202, Note_off_c, 2, 50, 127
2, 209204, Note_on_c, 1, 49, 127
2, 209360, Note_off_c, 1, 49, 127
2, 209360, Note_off_c, 7, 67, 127
2, 209362, Note_on_c, 6, 66, 127
2, 209362, Note_on_c, 2, 50, 127
2, 209518, Note_off_c, 2, 50, 127
2, 209521, Note_on_c, 4, 52, 127
2, 209677, Note_off_c, 4, 52, 127
2, 209677, Note_off_c, 4, 64, 127
2, 209679, Note_on_c, 10, 57, 127
2, 209679, Note_on_c, 2, 50, 127
2, 209835, Note_off_c, 2, 50, 127
2, 209838, Note_on_c, 1, 49, 127
2, 209993, Note_off_c, 10, 57, 127
2, 209994, Note_off_c, 1, 49, 127
2, 209996, Note_on_c, 2, 62, 127
2, 209996, Note_on_c, 12, 47, 127
2, 210152, Note_off_c, 12, 47, 127
2, 210154, Note_on_c, 10, 45, 127
2, 210310, Note_off_c, 10, 45, 127
2, 210310, Note_off_c, 6, 66, 127
2, 210313, Note_on_c, 12, 71, 127
2, 210313, Note_on_c, 8, 44, 127
2, 210469, Note_off_c, 8, 44, 127
2, 210471, Note_on_c, 12, 47, 127
2, 210627, Note_off_c, 12, 47, 127
2, 210627, Note_off_c, 12, 71, 127
2, 210627, Note_off_c, 2, 62, 127
2, 210630, Note_on_c, 4, 64, 127
2, 210630, Note_on_c, 1, 61, 127
2, 210630, Note_on_c, 10, 45, 127
2, 210786, Note_off_c, 10, 45, 127
2, 210788, Note_on_c, 8, 44, 127
2, 210944, Note_off_c, 8, 44, 127
2, 210944, Note_off_c, 4, 64, 127
2, 210946, Note_on_c, 10, 69, 127
2, 210946, Note_on_c, 6, 42, 127
2, 211102, Note_off_c, 6, 42, 127
2, 211105, Note_on_c, 4, 40, 127
2, 211260, Note_off_c, 10, 69, 127
2, 211261, Note_off_c, 4, 40, 127
2, 211263, Note_on_c, 2, 62, 127
2, 211263, Note_on_c, 6, 42, 127
2, 211419, Note_off_c, 6, 42, 127
2, 211422, Note_on_c, 10, 45, 127
2, 211578, Note_off_c, 10, 45, 127
2, 211578, Note_off_c, 1, 61, 127
2, 211580, Note_on_c, 12, 59, 127
2, 211580, Note_on_c, 8, 44, 127
2, 211736, Note_off_c, 8, 44, 127
2, 211738, Note_on_c, 6, 42, 127
2, 211890, Note_off_c, 2, 62, 127
2, 211894, Note_off_c, 6, 42, 127
2, 211894, Note_off_c, 12, 59, 127
2, 211897, Note_on_c, 2, 62, 127
2, 211897, Note_on_c, 4, 40, 127
2, 212053, Note_off_c, 4, 40, 127
2, 212055, Note_on_c, 2, 38, 127
2, 212211, Note_off_c, 2, 38, 127
2, 212214, Note_on_c, 8, 56, 127
2, 212214, Note_on_c, 1, 37, 127
2, 212388, Note_off_c, 1, 37, 127
2, 212390, Note_on_c, 1, 49, 127
2, 212558, Note_off_c, 2, 62, 127
2, 212564, Note_off_c, 1, 49, 127
2, 212564, Note_off_c, 8, 56, 127
2, 212566, Note_on_c, 4, 64, 127
2, 212566, Note_on_c, 1, 61, 127
2, 212566, Note_on_c, 2, 50, 127
2, 212740, Note_off_c, 2, 50, 127
2, 212742, Note_on_c, 4, 52, 127
2, 212916, Note_off_c, 4, 52, 127
2, 212916, Note_off_c, 1, 61, 127
2, 212916, Note_off_c, 4, 64, 127
2, 212919, Note_on_c, 10, 69, 127
2, 212919, Note_on_c, 1, 61, 127
2, 212919, Note_on_c, 6, 54, 127
2, 213093, Note_off_c, 6, 54, 127
2, 213095, Note_on_c, 8, 56, 127
2, 213269, Note_off_c, 8, 56, 127
2, 213269, Note_off_c, 1, 61, 127
2, 213271, Note_on_c, 6, 66, 127
2, 213271, Note_on_c, 10, 57, 127
2, 213472, Note_off_c, 10, 57, 127
2, 213475, Note_on_c, 2, 50, 127
2, 213676, Note_off_c, 2, 50, 127
2, 213676, Note_off_c, 6, 66, 127
2, 213677, Note_off_c, 10, 69, 127
2, 213679, Note_on_c, 10, 69, 127
2, 213679, Note_on_c, 12, 59, 127
2, 213679, Note_on_c, 4, 52, 127
2, 214084, Note_off_c, 4, 52, 127
2, 214084, Note_off_c, 10, 69, 127
2, 214087, Note_on_c, 8, 68, 127
2, 214087, Note_on_c, 4, 40, 127
2, 214492, Note_off_c, 4, 40, 127
2, 214492, Note_off_c, 8, 68, 127
2, 214492, Note_off_c, 12, 59, 127
2, 214503, Note_on_c, 10, 69, 127
2, 214503, Note_on_c, 1, 61, 127
2, 214503, Note_on_c, 10, 45, 127
2, 217744, Note_off_c, 10, 45, 127
2, 217744, Note_off_c, 1, 61, 127
2, 217744, Note_off_c, 10, 69, 127
2, 222720, End_track
3, 0, Start_track
3, 0, Title_t, "MIDI"
3, 1536, End_track
0, 0, End_of_file
