0, 0, Header, 1, 3, 384
1, 0, Start_track
1, 0, Time_signature, 4, 2, 24, 8
1, 0, Tempo, 500000
1, 236544, End_track
2, 0, Start_track
2, 0, Text_t, "harpsichord: John Sankey"
2, 0, Program_c, 0, 6
2, 0, Pitch_bend_c, 0, 8192
2, 0, Program_c, 1, 6
2, 0, Pitch_bend_c, 1, 7792
2, 0, Program_c, 2, 6
2, 0, Pitch_bend_c, 2, 7876
2, 0, Program_c, 3, 6
2, 0, Pitch_bend_c, 3, 7952
2, 0, Program_c, 4, 6
2, 0, Pitch_bend_c, 4, 7792
2, 0, Program_c, 5, 6
2, 0, Pitch_bend_c, 5, 8112
2, 0, Program_c, 6, 6
2, 0, Pitch_bend_c, 6, 7712
2, 0, Program_c, 7, 6
2, 0, Pitch_bend_c, 7, 8037
2, 0, Program_c, 8, 6
2, 0, Pitch_bend_c, 8, 7872
2, 0, Program_c, 10, 6
2, 0, Pitch_bend_c, 10, 7712
2, 0, Program_c, 11, 6
2, 0, Pitch_bend_c, 11, 8032
2, 0, Program_c, 12, 6
2, 0, Pitch_bend_c, 12, 7872
2, 0, Title_t, "Track 1"
2, 68, Note_on_c, 5, 53, 127
2, 482, Note_on_c, 5, 65, 127
2, 482, Note_on_c, 8, 68, 127
2, 893, Note_off_c, 8, 68, 127
2, 893, Note_off_c, 5, 65, 127
2, 893, Note_off_c, 5, 53, 127
2, 897, Note_on_c, 0, 60, 127
2, 897, Note_on_c, 8, 68, 127
2, 897, Note_on_c, 5, 65, 127
2, 1308, Note_off_c, 5, 65, 127
2, 1308, Note_off_c, 8, 68, 127
2, 1310, Note_on_c, 4, 64, 127
2, 1310, Note_on_c, 7, 67, 127
2, 1722, Note_off_c, 0, 60, 127
2, 1725, Note_on_c, 0, 48, 127
2, 1913, Note_off_c, 7, 67, 127
2, 1913, Note_off_c, 4, 64, 127
2, 2139, Note_on_c, 11, 70, 127
2, 2139, Note_on_c, 7, 67, 127
2, 2550, Note_off_c, 7, 67, 127
2, 2550, Note_off_c, 11, 70, 127
2, 2550, Note_off_c, 0, 48, 127
2, 2554, Note_on_c, 5, 53, 127
2, 2554, Note_on_c, 11, 70, 127
2, 2554, Note_on_c, 7, 67, 127
2, 2965, Note_off_c, 7, 67, 127
2, 2965, Note_off_c, 11, 70, 127
2, 2969, Note_on_c, 5, 65, 127
2, 2969, Note_on_c, 8, 68, 127
2, 3379, Note_off_c, 5, 53, 127
2, 3383, Note_on_c, 5, 41, 127
2, 3572, Note_off_c, 8, 68, 127
2, 3572, Note_off_c, 5, 65, 127
2, 3798, Note_on_c, 8, 80, 127
2, 3798, Note_on_c, 0, 72, 127
2, 4208, Note_off_c, 5, 41, 127
2, 4209, Note_off_c, 0, 72, 127
2, 4209, Note_off_c, 8, 80, 127
2, 4211, Note_on_c, 11, 46, 127
2, 4211, Note_on_c, 8, 80, 127
2, 4211, Note_on_c, 0, 72, 127
2, 4622, Note_off_c, 0, 72, 127
2, 4622, Note_off_c, 8, 80, 127
2, 4626, Note_on_c, 11, 70, 127
2, 4626, Note_on_c, 7, 79, 127
2, 5036, Note_off_c, 11, 46, 127
2, 5040, Note_on_c, 12, 47, 127
2, 5229, Note_off_c, 7, 79, 127
2, 5229, Note_off_c, 11, 70, 127
2, 5455, Note_on_c, 5, 77, 127
2, 5455, Note_on_c, 8, 68, 127
2, 5865, Note_off_c, 12, 47, 127
2, 5866, Note_off_c, 8, 68, 127
2, 5866, Note_off_c, 5, 77, 127
2, 5869, Note_on_c, 0, 48, 127
2, 5869, Note_on_c, 5, 77, 127
2, 5869, Note_on_c, 8, 68, 127
2, 6280, Note_off_c, 8, 68, 127
2, 6280, Note_off_c, 5, 77, 127
2, 6284, Note_on_c, 7, 67, 127
2, 6284, Note_on_c, 4, 76, 127
2, 6694, Note_off_c, 0, 48, 127
2, 6714, Note_on_c, 4, 64, 127
2, 6902, Note_off_c, 4, 76, 127
2, 6902, Note_off_c, 7, 67, 127
2, 6921, Note_on_c, 7, 67, 127
2, 7128, Note_on_c, 0, 60, 127
2, 7330, Note_off_c, 7, 67, 127
2, 7335, Note_on_c, 7, 67, 127
2, 7537, Note_off_c, 0, 60, 127
2, 7539, Note_off_c, 7, 67, 127
2, 7539, Note_off_c, 4, 64, 127
2, 7543, Note_on_c, 5, 65, 127
2, 7750, Note_on_c, 8, 68, 127
2, 7957, Note_on_c, 0, 60, 127
2, 8159, Note_off_c, 8, 68, 127
2, 8165, Note_on_c, 8, 68, 127
2, 8366, Note_off_c, 0, 60, 127
2, 8369, Note_off_c, 8, 68, 127
2, 8372, Note_on_c, 2, 62, 127
2, 8492, Note_off_c, 5, 65, 127
2, 8579, Note_on_c, 5, 65, 127
2, 8786, Note_on_c, 0, 60, 127
2, 8988, Note_off_c, 5, 65, 127
2, 8994, Note_on_c, 5, 65, 127
2, 9195, Note_off_c, 0, 60, 127
2, 9197, Note_off_c, 2, 62, 127
2, 9198, Note_off_c, 5, 65, 127
2, 9200, Note_on_c, 4, 64, 127
2, 9407, Note_on_c, 7, 67, 127
2, 9615, Note_on_c, 0, 60, 127
2, 9816, Note_off_c, 7, 67, 127
2, 9822, Note_on_c, 7, 67, 127
2, 10024, Note_off_c, 0, 60, 127
2, 10025, Note_off_c, 4, 64, 127
2, 10026, Note_off_c, 7, 67, 127
2, 10037, Note_on_c, 7, 67, 127
2, 10244, Note_on_c, 11, 70, 127
2, 10452, Note_on_c, 0, 60, 127
2, 10653, Note_off_c, 11, 70, 127
2, 10659, Note_on_c, 11, 70, 127
2, 10861, Note_off_c, 0, 60, 127
2, 10863, Note_off_c, 11, 70, 127
2, 10866, Note_on_c, 5, 65, 127
2, 10964, Note_off_c, 7, 67, 127
2, 11073, Note_on_c, 8, 68, 127
2, 11281, Note_on_c, 0, 60, 127
2, 11482, Note_off_c, 8, 68, 127
2, 11488, Note_on_c, 8, 68, 127
2, 11690, Note_off_c, 0, 60, 127
2, 11692, Note_off_c, 8, 68, 127
2, 11695, Note_on_c, 2, 62, 127
2, 11837, Note_off_c, 5, 65, 127
2, 11902, Note_on_c, 5, 65, 127
2, 12109, Note_on_c, 0, 60, 127
2, 12311, Note_off_c, 5, 65, 127
2, 12316, Note_on_c, 5, 65, 127
2, 12518, Note_off_c, 0, 60, 127
2, 12520, Note_off_c, 5, 65, 127
2, 12520, Note_off_c, 2, 62, 127
2, 12523, Note_on_c, 4, 64, 127
2, 12731, Note_on_c, 7, 67, 127
2, 12944, Note_on_c, 0, 60, 127
2, 13140, Note_off_c, 7, 67, 127
2, 13162, Note_on_c, 7, 67, 127
2, 13348, Note_off_c, 4, 64, 127
2, 13353, Note_off_c, 0, 60, 127
2, 13366, Note_off_c, 7, 67, 127
2, 13385, Note_on_c, 5, 53, 127
2, 13799, Note_on_c, 5, 65, 127
2, 13799, Note_on_c, 8, 68, 127
2, 14210, Note_off_c, 8, 68, 127
2, 14210, Note_off_c, 5, 65, 127
2, 14210, Note_off_c, 5, 53, 127
2, 14213, Note_on_c, 5, 65, 127
2, 14213, Note_on_c, 8, 68, 127
2, 14213, Note_on_c, 0, 60, 127
2, 14624, Note_off_c, 8, 68, 127
2, 14624, Note_off_c, 5, 65, 127
2, 14627, Note_on_c, 7, 67, 127
2, 14627, Note_on_c, 4, 64, 127
2, 15038, Note_off_c, 0, 60, 127
2, 15042, Note_on_c, 0, 48, 127
2, 15230, Note_off_c, 4, 64, 127
2, 15230, Note_off_c, 7, 67, 127
2, 15456, Note_on_c, 7, 67, 127
2, 15456, Note_on_c, 11, 70, 127
2, 15867, Note_off_c, 11, 70, 127
2, 15867, Note_off_c, 7, 67, 127
2, 15867, Note_off_c, 0, 48, 127
2, 15871, Note_on_c, 11, 70, 127
2, 15871, Note_on_c, 7, 67, 127
2, 15871, Note_on_c, 5, 53, 127
2, 16282, Note_off_c, 7, 67, 127
2, 16282, Note_off_c, 11, 70, 127
2, 16285, Note_on_c, 8, 68, 127
2, 16285, Note_on_c, 5, 65, 127
2, 16696, Note_off_c, 5, 53, 127
2, 16700, Note_on_c, 5, 41, 127
2, 16888, Note_off_c, 5, 65, 127
2, 16888, Note_off_c, 8, 68, 127
2, 17114, Note_on_c, 8, 68, 127
2, 17114, Note_on_c, 0, 72, 127
2, 17525, Note_off_c, 0, 72, 127
2, 17525, Note_off_c, 8, 68, 127
2, 17525, Note_off_c, 5, 41, 127
2, 17528, Note_on_c, 0, 72, 127
2, 17528, Note_on_c, 8, 68, 127
2, 17528, Note_on_c, 11, 46, 127
2, 17939, Note_off_c, 8, 68, 127
2, 17939, Note_off_c, 0, 72, 127
2, 17943, Note_on_c, 11, 70, 127
2, 17943, Note_on_c, 1, 73, 127
2, 18353, Note_off_c, 11, 46, 127
2, 18357, Note_on_c, 3, 39, 127
2, 18546, Note_off_c, 1, 73, 127
2, 18546, Note_off_c, 11, 70, 127
2, 18772, Note_on_c, 11, 70, 127
2, 18772, Note_on_c, 7, 67, 127
2, 19182, Note_off_c, 3, 39, 127
2, 19183, Note_off_c, 7, 67, 127
2, 19183, Note_off_c, 11, 70, 127
2, 19186, Note_on_c, 7, 67, 127
2, 19186, Note_on_c, 11, 70, 127
2, 19186, Note_on_c, 8, 44, 127
2, 19597, Note_off_c, 11, 70, 127
2, 19597, Note_off_c, 7, 67, 127
2, 19600, Note_on_c, 0, 72, 127
2, 19600, Note_on_c, 8, 68, 127
2, 20011, Note_off_c, 8, 44, 127
2, 20023, Note_on_c, 8, 56, 127
2, 20203, Note_off_c, 8, 68, 127
2, 20203, Note_off_c, 0, 72, 127
2, 20437, Note_on_c, 3, 75, 127
2, 20437, Note_on_c, 0, 72, 127
2, 20848, Note_off_c, 0, 72, 127
2, 20848, Note_off_c, 3, 75, 127
2, 20848, Note_off_c, 8, 56, 127
2, 20852, Note_on_c, 0, 72, 127
2, 20852, Note_on_c, 3, 75, 127
2, 20852, Note_on_c, 11, 58, 127
2, 21263, Note_off_c, 3, 75, 127
2, 21263, Note_off_c, 0, 72, 127
2, 21266, Note_on_c, 11, 70, 127
2, 21266, Note_on_c, 1, 73, 127
2, 21677, Note_off_c, 11, 58, 127
2, 21681, Note_on_c, 11, 46, 127
2, 21869, Note_off_c, 1, 73, 127
2, 21869, Note_off_c, 11, 70, 127
2, 22095, Note_on_c, 1, 73, 127
2, 22095, Note_on_c, 11, 70, 127
2, 22506, Note_off_c, 11, 70, 127
2, 22506, Note_off_c, 1, 73, 127
2, 22506, Note_off_c, 11, 46, 127
2, 22509, Note_on_c, 11, 70, 127
2, 22509, Note_on_c, 1, 73, 127
2, 22509, Note_on_c, 0, 48, 127
2, 22920, Note_off_c, 1, 73, 127
2, 22920, Note_off_c, 11, 70, 127
2, 22923, Note_on_c, 0, 72, 127
2, 22923, Note_on_c, 8, 68, 127
2, 23334, Note_off_c, 0, 48, 127
2, 23338, Note_on_c, 0, 60, 127
2, 23526, Note_off_c, 8, 68, 127
2, 23526, Note_off_c, 0, 72, 127
2, 23753, Note_on_c, 6, 78, 127
2, 23753, Note_on_c, 3, 75, 127
2, 24163, Note_off_c, 0, 60, 127
2, 24164, Note_off_c, 3, 75, 127
2, 24164, Note_off_c, 6, 78, 127
2, 24167, Note_on_c, 3, 75, 127
2, 24167, Note_on_c, 6, 78, 127
2, 24167, Note_on_c, 1, 61, 127
2, 24578, Note_off_c, 6, 78, 127
2, 24578, Note_off_c, 3, 75, 127
2, 24582, Note_on_c, 5, 77, 127
2, 24582, Note_on_c, 1, 73, 127
2, 24992, Note_off_c, 1, 61, 127
2, 24996, Note_on_c, 2, 62, 127
2, 25185, Note_off_c, 1, 73, 127
2, 25185, Note_off_c, 5, 77, 127
2, 25410, Note_on_c, 0, 72, 127
2, 25410, Note_on_c, 8, 80, 127
2, 25821, Note_off_c, 8, 80, 127
2, 25821, Note_off_c, 0, 72, 127
2, 25821, Note_off_c, 2, 62, 127
2, 25824, Note_on_c, 0, 72, 127
2, 25824, Note_on_c, 8, 80, 127
2, 25824, Note_on_c, 3, 63, 127
2, 26245, Note_off_c, 8, 80, 127
2, 26245, Note_off_c, 0, 72, 127
2, 26245, Note_on_c, 11, 70, 127
2, 26245, Note_on_c, 7, 79, 127
2, 26649, Note_off_c, 3, 63, 127
2, 26685, Note_on_c, 7, 67, 127
2, 26863, Note_off_c, 7, 79, 127
2, 26863, Note_off_c, 11, 70, 127
2, 26893, Note_on_c, 11, 70, 127
2, 27100, Note_on_c, 3, 63, 127
2, 27302, Note_off_c, 11, 70, 127
2, 27306, Note_on_c, 11, 70, 127
2, 27509, Note_off_c, 3, 63, 127
2, 27510, Note_off_c, 11, 70, 127
2, 27510, Note_off_c, 7, 67, 127
2, 27514, Note_on_c, 8, 68, 127
2, 27721, Note_on_c, 0, 72, 127
2, 27928, Note_on_c, 3, 63, 127
2, 28130, Note_off_c, 0, 72, 127
2, 28135, Note_on_c, 0, 72, 127
2, 28337, Note_off_c, 3, 63, 127
2, 28339, Note_off_c, 0, 72, 127
2, 28343, Note_on_c, 5, 65, 127
2, 28463, Note_off_c, 8, 68, 127
2, 28550, Note_on_c, 8, 68, 127
2, 28757, Note_on_c, 3, 63, 127
2, 28959, Note_off_c, 8, 68, 127
2, 28965, Note_on_c, 8, 68, 127
2, 29166, Note_off_c, 3, 63, 127
2, 29168, Note_off_c, 5, 65, 127
2, 29169, Note_off_c, 8, 68, 127
2, 29172, Note_on_c, 7, 67, 127
2, 29379, Note_on_c, 11, 70, 127
2, 29586, Note_on_c, 3, 63, 127
2, 29788, Note_off_c, 11, 70, 127
2, 29794, Note_on_c, 11, 70, 127
2, 29995, Note_off_c, 3, 63, 127
2, 29997, Note_off_c, 7, 67, 127
2, 29998, Note_off_c, 11, 70, 127
2, 30000, Note_on_c, 11, 70, 127
2, 30207, Note_on_c, 1, 73, 127
2, 30415, Note_on_c, 3, 63, 127
2, 30616, Note_off_c, 1, 73, 127
2, 30622, Note_on_c, 1, 73, 127
2, 30824, Note_off_c, 3, 63, 127
2, 30826, Note_off_c, 1, 73, 127
2, 30829, Note_on_c, 8, 68, 127
2, 30905, Note_off_c, 11, 70, 127
2, 31036, Note_on_c, 0, 72, 127
2, 31244, Note_on_c, 3, 63, 127
2, 31445, Note_off_c, 0, 72, 127
2, 31451, Note_on_c, 0, 72, 127
2, 31653, Note_off_c, 3, 63, 127
2, 31654, Note_off_c, 8, 68, 127
2, 31658, Note_on_c, 5, 65, 127
2, 31709, Note_off_c, 0, 72, 127
2, 31865, Note_on_c, 2, 74, 127
2, 32073, Note_on_c, 3, 63, 127
2, 32274, Note_off_c, 2, 74, 127
2, 32280, Note_on_c, 2, 74, 127
2, 32482, Note_off_c, 3, 63, 127
2, 32483, Note_off_c, 5, 65, 127
2, 32484, Note_off_c, 2, 74, 127
2, 32487, Note_on_c, 7, 67, 127
2, 32695, Note_on_c, 3, 75, 127
2, 32901, Note_on_c, 3, 63, 127
2, 33104, Note_off_c, 3, 75, 127
2, 33108, Note_on_c, 3, 75, 127
2, 33310, Note_off_c, 3, 63, 127
2, 33312, Note_off_c, 7, 67, 127
2, 33315, Note_on_c, 6, 66, 127
2, 33315, Note_on_c, 0, 48, 127
2, 33484, Note_off_c, 3, 75, 127
2, 33519, Note_off_c, 6, 66, 127
2, 33523, Note_on_c, 8, 68, 127
2, 33727, Note_off_c, 8, 68, 127
2, 33730, Note_on_c, 0, 72, 127
2, 33730, Note_on_c, 8, 56, 127
2, 33934, Note_off_c, 0, 72, 127
2, 33937, Note_on_c, 3, 75, 127
2, 34134, Note_off_c, 0, 48, 127
2, 34141, Note_off_c, 3, 75, 127
2, 34145, Note_on_c, 3, 75, 127
2, 34145, Note_on_c, 1, 49, 127
2, 34352, Note_on_c, 0, 72, 127
2, 34372, Note_off_c, 3, 75, 127
2, 34549, Note_off_c, 8, 56, 127
2, 34556, Note_off_c, 0, 72, 127
2, 34559, Note_on_c, 8, 68, 127
2, 34559, Note_on_c, 5, 53, 127
2, 34763, Note_off_c, 8, 68, 127
2, 34766, Note_on_c, 5, 65, 127
2, 34964, Note_off_c, 1, 49, 127
2, 34970, Note_off_c, 5, 65, 127
2, 34970, Note_off_c, 5, 53, 127
2, 34974, Note_on_c, 5, 65, 127
2, 34974, Note_on_c, 11, 46, 127
2, 35178, Note_off_c, 5, 65, 127
2, 35181, Note_on_c, 7, 67, 127
2, 35385, Note_off_c, 7, 67, 127
2, 35388, Note_on_c, 11, 70, 127
2, 35388, Note_on_c, 7, 55, 127
2, 35592, Note_off_c, 11, 70, 127
2, 35596, Note_on_c, 1, 73, 127
2, 35793, Note_off_c, 11, 46, 127
2, 35800, Note_off_c, 1, 73, 127
2, 35802, Note_on_c, 1, 73, 127
2, 35802, Note_on_c, 0, 48, 127
2, 36009, Note_on_c, 11, 70, 127
2, 36029, Note_off_c, 1, 73, 127
2, 36207, Note_off_c, 7, 55, 127
2, 36213, Note_off_c, 11, 70, 127
2, 36216, Note_on_c, 7, 67, 127
2, 36216, Note_on_c, 3, 51, 127
2, 36420, Note_off_c, 7, 67, 127
2, 36424, Note_on_c, 3, 63, 127
2, 36621, Note_off_c, 0, 48, 127
2, 36627, Note_off_c, 3, 51, 127
2, 36628, Note_off_c, 3, 63, 127
2, 36631, Note_on_c, 3, 63, 127
2, 36631, Note_on_c, 8, 44, 127
2, 36835, Note_off_c, 3, 63, 127
2, 36838, Note_on_c, 5, 65, 127
2, 37042, Note_off_c, 5, 65, 127
2, 37045, Note_on_c, 8, 68, 127
2, 37045, Note_on_c, 5, 53, 127
2, 37249, Note_off_c, 8, 68, 127
2, 37253, Note_on_c, 0, 72, 127
2, 37450, Note_off_c, 8, 44, 127
2, 37457, Note_off_c, 0, 72, 127
2, 37460, Note_on_c, 0, 72, 127
2, 37460, Note_on_c, 11, 46, 127
2, 37667, Note_on_c, 8, 68, 127
2, 37687, Note_off_c, 0, 72, 127
2, 37864, Note_off_c, 5, 53, 127
2, 37871, Note_off_c, 8, 68, 127
2, 37875, Note_on_c, 5, 65, 127
2, 37875, Note_on_c, 1, 49, 127
2, 38079, Note_off_c, 5, 65, 127
2, 38082, Note_on_c, 1, 61, 127
2, 38279, Note_off_c, 11, 46, 127
2, 38286, Note_off_c, 1, 61, 127
2, 38286, Note_off_c, 1, 49, 127
2, 38289, Note_on_c, 1, 61, 127
2, 38289, Note_on_c, 7, 43, 127
2, 38493, Note_off_c, 1, 61, 127
2, 38496, Note_on_c, 3, 63, 127
2, 38700, Note_off_c, 3, 63, 127
2, 38703, Note_on_c, 7, 67, 127
2, 38703, Note_on_c, 3, 51, 127
2, 38907, Note_off_c, 7, 67, 127
2, 38910, Note_on_c, 11, 70, 127
2, 39108, Note_off_c, 7, 43, 127
2, 39114, Note_off_c, 11, 70, 127
2, 39117, Note_on_c, 11, 70, 127
2, 39117, Note_on_c, 8, 44, 127
2, 39325, Note_on_c, 7, 67, 127
2, 39344, Note_off_c, 11, 70, 127
2, 39522, Note_off_c, 3, 51, 127
2, 39529, Note_off_c, 7, 67, 127
2, 39532, Note_on_c, 3, 63, 127
2, 39532, Note_on_c, 0, 48, 127
2, 39736, Note_off_c, 3, 63, 127
2, 39739, Note_on_c, 0, 60, 127
2, 39953, Note_off_c, 0, 48, 127
2, 39970, Note_on_c, 3, 51, 127
2, 39982, Note_off_c, 8, 44, 127
2, 40103, Note_off_c, 0, 60, 127
2, 40178, Note_on_c, 8, 68, 127
2, 40381, Note_off_c, 3, 51, 127
2, 40385, Note_on_c, 6, 54, 127
2, 40385, Note_on_c, 0, 60, 127
2, 40587, Note_off_c, 8, 68, 127
2, 40592, Note_on_c, 8, 68, 127
2, 40794, Note_off_c, 0, 60, 127
2, 40796, Note_off_c, 8, 68, 127
2, 40796, Note_off_c, 6, 54, 127
2, 40800, Note_on_c, 5, 53, 127
2, 41006, Note_on_c, 8, 68, 127
2, 41211, Note_off_c, 5, 53, 127
2, 41213, Note_on_c, 8, 44, 127
2, 41213, Note_on_c, 1, 61, 127
2, 41415, Note_off_c, 8, 68, 127
2, 41420, Note_on_c, 8, 68, 127
2, 41622, Note_off_c, 1, 61, 127
2, 41624, Note_off_c, 8, 68, 127
2, 41624, Note_off_c, 8, 44, 127
2, 41628, Note_on_c, 6, 42, 127
2, 41835, Note_on_c, 8, 68, 127
2, 42039, Note_off_c, 6, 42, 127
2, 42042, Note_on_c, 3, 51, 127
2, 42042, Note_on_c, 0, 60, 127
2, 42244, Note_off_c, 8, 68, 127
2, 42249, Note_on_c, 8, 68, 127
2, 42451, Note_off_c, 0, 60, 127
2, 42453, Note_off_c, 8, 68, 127
2, 42453, Note_off_c, 3, 51, 127
2, 42457, Note_on_c, 1, 49, 127
2, 42664, Note_on_c, 8, 68, 127
2, 42868, Note_off_c, 1, 49, 127
2, 42871, Note_on_c, 4, 40, 127
2, 42871, Note_on_c, 11, 58, 127
2, 43073, Note_off_c, 8, 68, 127
2, 43079, Note_on_c, 8, 68, 127
2, 43280, Note_off_c, 11, 58, 127
2, 43282, Note_off_c, 4, 40, 127
2, 43283, Note_off_c, 8, 68, 127
2, 43286, Note_on_c, 3, 39, 127
2, 43493, Note_on_c, 8, 68, 127
2, 43697, Note_off_c, 3, 39, 127
2, 43700, Note_on_c, 12, 47, 127
2, 43700, Note_on_c, 8, 56, 127
2, 43902, Note_off_c, 8, 68, 127
2, 43907, Note_on_c, 8, 68, 127
2, 44109, Note_off_c, 8, 56, 127
2, 44111, Note_off_c, 8, 68, 127
2, 44111, Note_off_c, 12, 47, 127
2, 44114, Note_on_c, 2, 38, 127
2, 44114, Note_on_c, 11, 58, 127
2, 44318, Note_off_c, 11, 58, 127
2, 44321, Note_on_c, 8, 68, 127
2, 44525, Note_off_c, 8, 68, 127
2, 44529, Note_on_c, 11, 46, 127
2, 44529, Note_on_c, 4, 64, 127
2, 44733, Note_off_c, 4, 64, 127
2, 44736, Note_on_c, 8, 68, 127
2, 44933, Note_off_c, 2, 38, 127
2, 44940, Note_off_c, 8, 68, 127
2, 44940, Note_off_c, 11, 46, 127
2, 44943, Note_on_c, 3, 51, 127
2, 44943, Note_on_c, 3, 63, 127
2, 45150, Note_on_c, 8, 68, 127
2, 45352, Note_off_c, 3, 63, 127
2, 45358, Note_on_c, 3, 39, 127
2, 45358, Note_on_c, 1, 61, 127
2, 45559, Note_off_c, 8, 68, 127
2, 45565, Note_on_c, 7, 67, 127
2, 45775, Note_off_c, 7, 67, 127
2, 45779, Note_off_c, 1, 61, 127
2, 45779, Note_off_c, 3, 39, 127
2, 45780, Note_on_c, 8, 44, 127
2, 45780, Note_on_c, 7, 67, 127
2, 45780, Note_on_c, 1, 61, 127
2, 46215, Note_off_c, 1, 61, 127
2, 46215, Note_off_c, 7, 67, 127
2, 46226, Note_on_c, 8, 68, 127
2, 46226, Note_on_c, 0, 60, 127
2, 46624, Note_off_c, 3, 51, 127
2, 46661, Note_off_c, 0, 60, 127
2, 46661, Note_off_c, 8, 68, 127
2, 46694, Note_off_c, 8, 44, 127
2, 46696, Note_on_c, 8, 56, 127
2, 47110, Note_on_c, 8, 68, 127
2, 47110, Note_on_c, 0, 72, 127
2, 47521, Note_off_c, 0, 72, 127
2, 47521, Note_off_c, 8, 68, 127
2, 47521, Note_off_c, 8, 56, 127
2, 47524, Note_on_c, 8, 68, 127
2, 47524, Note_on_c, 0, 72, 127
2, 47524, Note_on_c, 3, 63, 127
2, 47935, Note_off_c, 0, 72, 127
2, 47935, Note_off_c, 8, 68, 127
2, 47939, Note_on_c, 11, 70, 127
2, 47939, Note_on_c, 7, 67, 127
2, 48349, Note_off_c, 3, 63, 127
2, 48354, Note_on_c, 3, 51, 127
2, 48542, Note_off_c, 7, 67, 127
2, 48542, Note_off_c, 11, 70, 127
2, 48768, Note_on_c, 11, 70, 127
2, 48768, Note_on_c, 1, 73, 127
2, 49179, Note_off_c, 1, 73, 127
2, 49179, Note_off_c, 11, 70, 127
2, 49179, Note_off_c, 3, 51, 127
2, 49183, Note_on_c, 11, 70, 127
2, 49183, Note_on_c, 1, 73, 127
2, 49183, Note_on_c, 8, 56, 127
2, 49594, Note_off_c, 1, 73, 127
2, 49594, Note_off_c, 11, 70, 127
2, 49597, Note_on_c, 0, 72, 127
2, 49597, Note_on_c, 8, 68, 127
2, 50008, Note_off_c, 8, 56, 127
2, 50011, Note_on_c, 10, 57, 127
2, 50200, Note_off_c, 8, 68, 127
2, 50200, Note_off_c, 0, 72, 127
2, 50425, Note_on_c, 3, 75, 127
2, 50425, Note_on_c, 6, 66, 127
2, 50836, Note_off_c, 6, 66, 127
2, 50836, Note_off_c, 3, 75, 127
2, 50836, Note_off_c, 10, 57, 127
2, 50840, Note_on_c, 3, 75, 127
2, 50840, Note_on_c, 6, 66, 127
2, 50840, Note_on_c, 11, 58, 127
2, 51251, Note_off_c, 6, 66, 127
2, 51251, Note_off_c, 3, 75, 127
2, 51255, Note_on_c, 2, 74, 127
2, 51255, Note_on_c, 5, 65, 127
2, 51665, Note_off_c, 11, 58, 127
2, 51669, Note_on_c, 2, 50, 127
2, 51858, Note_off_c, 5, 65, 127
2, 51858, Note_off_c, 2, 74, 127
2, 52084, Note_on_c, 8, 68, 127
2, 52084, Note_on_c, 5, 77, 127
2, 52494, Note_off_c, 2, 50, 127
2, 52495, Note_off_c, 5, 77, 127
2, 52495, Note_off_c, 8, 68, 127
2, 52498, Note_on_c, 5, 77, 127
2, 52498, Note_on_c, 8, 68, 127
2, 52498, Note_on_c, 3, 51, 127
2, 52909, Note_off_c, 8, 68, 127
2, 52909, Note_off_c, 5, 77, 127
2, 52912, Note_on_c, 3, 75, 127
2, 52912, Note_on_c, 7, 67, 127
2, 53327, Note_off_c, 3, 51, 127
2, 53335, Note_off_c, 7, 67, 127
2, 53342, Note_on_c, 6, 78, 127
2, 53343, Note_off_c, 3, 75, 127
2, 53550, Note_on_c, 10, 69, 127
2, 53757, Note_on_c, 3, 63, 127
2, 53959, Note_off_c, 10, 69, 127
2, 53964, Note_on_c, 10, 69, 127
2, 54166, Note_off_c, 3, 63, 127
2, 54167, Note_off_c, 6, 78, 127
2, 54168, Note_off_c, 10, 69, 127
2, 54171, Note_on_c, 5, 77, 127
2, 54379, Note_on_c, 11, 70, 127
2, 54586, Note_on_c, 1, 61, 127
2, 54788, Note_off_c, 11, 70, 127
2, 54793, Note_on_c, 11, 70, 127
2, 54995, Note_off_c, 1, 61, 127
2, 54996, Note_off_c, 5, 77, 127
2, 54997, Note_off_c, 11, 70, 127
2, 55000, Note_on_c, 3, 75, 127
2, 55000, Note_on_c, 0, 72, 127
2, 55207, Note_on_c, 6, 66, 127
2, 55414, Note_on_c, 10, 57, 127
2, 55616, Note_off_c, 6, 66, 127
2, 55621, Note_on_c, 6, 66, 127
2, 55823, Note_off_c, 10, 57, 127
2, 55825, Note_off_c, 6, 66, 127
2, 55825, Note_off_c, 3, 75, 127
2, 55829, Note_on_c, 1, 73, 127
2, 56036, Note_on_c, 5, 65, 127
2, 56240, Note_off_c, 0, 72, 127
2, 56243, Note_on_c, 11, 58, 127
2, 56243, Note_on_c, 11, 70, 127
2, 56445, Note_off_c, 5, 65, 127
2, 56451, Note_on_c, 5, 65, 127
2, 56648, Note_off_c, 1, 73, 127
2, 56652, Note_off_c, 11, 58, 127
2, 56654, Note_off_c, 11, 70, 127
2, 56655, Note_off_c, 5, 65, 127
2, 56658, Note_on_c, 2, 74, 127
2, 56658, Note_on_c, 12, 71, 127
2, 56865, Note_on_c, 8, 68, 127
2, 57072, Note_on_c, 11, 58, 127
2, 57274, Note_off_c, 8, 68, 127
2, 57280, Note_on_c, 8, 68, 127
2, 57481, Note_off_c, 11, 58, 127
2, 57483, Note_off_c, 12, 71, 127
2, 57483, Note_off_c, 2, 74, 127
2, 57484, Note_off_c, 8, 68, 127
2, 57487, Note_on_c, 11, 70, 127
2, 57487, Note_on_c, 3, 75, 127
2, 57694, Note_on_c, 6, 66, 127
2, 57900, Note_on_c, 0, 60, 127
2, 58103, Note_off_c, 6, 66, 127
2, 58108, Note_on_c, 6, 66, 127
2, 58309, Note_off_c, 0, 60, 127
2, 58312, Note_off_c, 6, 66, 127
2, 58312, Note_off_c, 3, 75, 127
2, 58312, Note_off_c, 11, 70, 127
2, 58315, Note_on_c, 5, 77, 127
2, 58315, Note_on_c, 8, 68, 127
2, 58522, Note_on_c, 5, 65, 127
2, 58730, Note_on_c, 2, 62, 127
2, 58931, Note_off_c, 5, 65, 127
2, 58937, Note_on_c, 5, 65, 127
2, 59139, Note_off_c, 2, 62, 127
2, 59140, Note_off_c, 8, 68, 127
2, 59141, Note_off_c, 5, 65, 127
2, 59144, Note_on_c, 6, 66, 127
2, 59351, Note_on_c, 3, 63, 127
2, 59555, Note_off_c, 3, 63, 127
2, 59555, Note_off_c, 5, 77, 127
2, 59559, Note_on_c, 2, 62, 127
2, 59559, Note_on_c, 3, 75, 127
2, 59763, Note_off_c, 2, 62, 127
2, 59766, Note_on_c, 3, 63, 127
2, 59963, Note_off_c, 6, 66, 127
2, 59968, Note_off_c, 3, 75, 127
2, 59970, Note_off_c, 3, 63, 127
2, 59973, Note_on_c, 0, 60, 127
2, 60181, Note_on_c, 3, 63, 127
2, 60181, Note_on_c, 6, 78, 127
2, 60382, Note_off_c, 0, 60, 127
2, 60385, Note_off_c, 6, 78, 127
2, 60385, Note_off_c, 3, 63, 127
2, 60388, Note_on_c, 1, 61, 127
2, 60388, Note_on_c, 5, 77, 127
2, 60592, Note_off_c, 5, 77, 127
2, 60592, Note_off_c, 1, 61, 127
2, 60595, Note_on_c, 3, 63, 127
2, 60595, Note_on_c, 6, 78, 127
2, 60799, Note_off_c, 6, 78, 127
2, 60799, Note_off_c, 3, 63, 127
2, 60801, Note_on_c, 5, 53, 127
2, 60801, Note_on_c, 11, 70, 127
2, 61009, Note_on_c, 1, 61, 127
2, 61210, Note_off_c, 5, 53, 127
2, 61213, Note_off_c, 1, 61, 127
2, 61216, Note_on_c, 0, 60, 127
2, 61216, Note_on_c, 10, 69, 127
2, 61226, Note_off_c, 11, 70, 127
2, 61420, Note_off_c, 0, 60, 127
2, 61423, Note_on_c, 1, 61, 127
2, 61625, Note_off_c, 10, 69, 127
2, 61627, Note_off_c, 1, 61, 127
2, 61631, Note_on_c, 7, 55, 127
2, 61838, Note_on_c, 0, 60, 127
2, 61838, Note_on_c, 3, 75, 127
2, 62040, Note_off_c, 7, 55, 127
2, 62042, Note_off_c, 3, 75, 127
2, 62042, Note_off_c, 0, 60, 127
2, 62045, Note_on_c, 11, 58, 127
2, 62045, Note_on_c, 1, 73, 127
2, 62249, Note_off_c, 1, 73, 127
2, 62249, Note_off_c, 11, 58, 127
2, 62252, Note_on_c, 0, 60, 127
2, 62252, Note_on_c, 3, 75, 127
2, 62456, Note_off_c, 3, 75, 127
2, 62456, Note_off_c, 0, 60, 127
2, 62460, Note_on_c, 10, 57, 127
2, 62460, Note_on_c, 6, 66, 127
2, 62664, Note_off_c, 10, 57, 127
2, 62667, Note_on_c, 11, 58, 127
2, 62871, Note_off_c, 11, 58, 127
2, 62874, Note_on_c, 10, 57, 127
2, 62874, Note_on_c, 5, 65, 127
2, 62885, Note_off_c, 6, 66, 127
2, 63078, Note_off_c, 10, 57, 127
2, 63081, Note_on_c, 11, 58, 127
2, 63285, Note_off_c, 11, 58, 127
2, 63289, Note_on_c, 1, 49, 127
2, 63492, Note_off_c, 5, 65, 127
2, 63496, Note_on_c, 11, 58, 127
2, 63496, Note_on_c, 1, 73, 127
2, 63698, Note_off_c, 1, 49, 127
2, 63700, Note_off_c, 1, 73, 127
2, 63700, Note_off_c, 11, 58, 127
2, 63702, Note_on_c, 10, 57, 127
2, 63702, Note_on_c, 0, 72, 127
2, 63906, Note_off_c, 0, 72, 127
2, 63906, Note_off_c, 10, 57, 127
2, 63910, Note_on_c, 11, 58, 127
2, 63910, Note_on_c, 1, 73, 127
2, 64114, Note_off_c, 11, 58, 127
2, 64117, Note_on_c, 6, 54, 127
2, 64117, Note_on_c, 3, 63, 127
2, 64319, Note_off_c, 1, 73, 127
2, 64321, Note_off_c, 6, 54, 127
2, 64324, Note_on_c, 5, 53, 127
2, 64324, Note_on_c, 0, 72, 127
2, 64526, Note_off_c, 3, 63, 127
2, 64528, Note_off_c, 0, 72, 127
2, 64528, Note_off_c, 5, 53, 127
2, 64531, Note_on_c, 6, 54, 127
2, 64531, Note_on_c, 11, 70, 127
2, 64735, Note_off_c, 11, 70, 127
2, 64735, Note_off_c, 6, 54, 127
2, 64739, Note_on_c, 3, 51, 127
2, 64739, Note_on_c, 0, 72, 127
2, 64943, Note_off_c, 0, 72, 127
2, 64943, Note_off_c, 3, 51, 127
2, 64946, Note_on_c, 5, 53, 127
2, 64946, Note_on_c, 1, 61, 127
2, 65153, Note_on_c, 11, 70, 127
2, 65355, Note_off_c, 1, 61, 127
2, 65357, Note_off_c, 5, 53, 127
2, 65361, Note_on_c, 5, 41, 127
2, 65361, Note_on_c, 0, 60, 127
2, 65562, Note_off_c, 11, 70, 127
2, 65568, Note_on_c, 10, 69, 127
2, 65770, Note_off_c, 0, 60, 127
2, 65772, Note_off_c, 10, 69, 127
2, 65772, Note_off_c, 5, 41, 127
2, 65775, Note_on_c, 11, 46, 127
2, 65775, Note_on_c, 0, 60, 127
2, 65775, Note_on_c, 10, 69, 127
2, 66195, Note_off_c, 10, 69, 127
2, 66198, Note_off_c, 0, 60, 127
2, 66198, Note_on_c, 11, 70, 127
2, 66198, Note_on_c, 1, 61, 127
2, 66609, Note_off_c, 1, 61, 127
2, 66614, Note_off_c, 11, 46, 127
2, 66635, Note_on_c, 5, 77, 127
2, 66638, Note_off_c, 11, 70, 127
2, 66843, Note_on_c, 1, 61, 127
2, 67046, Note_off_c, 5, 77, 127
2, 67047, Note_off_c, 1, 61, 127
2, 67050, Note_on_c, 0, 60, 127
2, 67050, Note_on_c, 3, 75, 127
2, 67254, Note_off_c, 0, 60, 127
2, 67257, Note_on_c, 1, 61, 127
2, 67461, Note_off_c, 1, 61, 127
2, 67461, Note_off_c, 3, 75, 127
2, 67464, Note_on_c, 11, 58, 127
2, 67464, Note_on_c, 1, 73, 127
2, 67668, Note_off_c, 11, 58, 127
2, 67672, Note_on_c, 1, 61, 127
2, 67875, Note_off_c, 1, 73, 127
2, 67876, Note_off_c, 1, 61, 127
2, 67879, Note_on_c, 8, 56, 127
2, 67879, Note_on_c, 5, 77, 127
2, 68083, Note_off_c, 8, 56, 127
2, 68086, Note_on_c, 1, 61, 127
2, 68290, Note_off_c, 1, 61, 127
2, 68290, Note_off_c, 5, 77, 127
2, 68293, Note_on_c, 7, 55, 127
2, 68293, Note_on_c, 11, 70, 127
2, 68497, Note_off_c, 7, 55, 127
2, 68500, Note_on_c, 1, 61, 127
2, 68704, Note_off_c, 1, 61, 127
2, 68704, Note_off_c, 11, 70, 127
2, 68707, Note_on_c, 5, 53, 127
2, 68707, Note_on_c, 1, 73, 127
2, 68911, Note_off_c, 1, 73, 127
2, 68911, Note_off_c, 5, 53, 127
2, 68914, Note_on_c, 1, 61, 127
2, 68914, Note_on_c, 5, 77, 127
2, 69118, Note_off_c, 5, 77, 127
2, 69118, Note_off_c, 1, 61, 127
2, 69122, Note_on_c, 3, 51, 127
2, 69122, Note_on_c, 8, 80, 127
2, 69326, Note_off_c, 3, 51, 127
2, 69329, Note_on_c, 7, 55, 127
2, 69533, Note_off_c, 7, 55, 127
2, 69536, Note_on_c, 11, 58, 127
2, 69536, Note_on_c, 7, 79, 127
2, 69547, Note_off_c, 8, 80, 127
2, 69740, Note_off_c, 11, 58, 127
2, 69743, Note_on_c, 1, 61, 127
2, 69947, Note_off_c, 1, 61, 127
2, 69951, Note_on_c, 3, 75, 127
2, 69962, Note_off_c, 7, 79, 127
2, 70158, Note_on_c, 0, 60, 127
2, 70362, Note_off_c, 0, 60, 127
2, 70362, Note_off_c, 3, 75, 127
2, 70365, Note_on_c, 11, 58, 127
2, 70365, Note_on_c, 1, 73, 127
2, 70569, Note_off_c, 11, 58, 127
2, 70573, Note_on_c, 0, 60, 127
2, 70776, Note_off_c, 1, 73, 127
2, 70777, Note_off_c, 0, 60, 127
2, 70780, Note_on_c, 8, 56, 127
2, 70780, Note_on_c, 0, 72, 127
2, 70984, Note_off_c, 8, 56, 127
2, 70987, Note_on_c, 0, 60, 127
2, 71191, Note_off_c, 0, 60, 127
2, 71191, Note_off_c, 0, 72, 127
2, 71194, Note_on_c, 6, 54, 127
2, 71194, Note_on_c, 3, 75, 127
2, 71398, Note_off_c, 6, 54, 127
2, 71401, Note_on_c, 0, 60, 127
2, 71605, Note_off_c, 0, 60, 127
2, 71605, Note_off_c, 3, 75, 127
2, 71608, Note_on_c, 5, 53, 127
2, 71608, Note_on_c, 8, 68, 127
2, 71812, Note_off_c, 5, 53, 127
2, 71815, Note_on_c, 0, 60, 127
2, 72019, Note_off_c, 0, 60, 127
2, 72019, Note_off_c, 8, 68, 127
2, 72023, Note_on_c, 3, 51, 127
2, 72023, Note_on_c, 0, 72, 127
2, 72227, Note_off_c, 0, 72, 127
2, 72227, Note_off_c, 3, 51, 127
2, 72230, Note_on_c, 0, 60, 127
2, 72230, Note_on_c, 3, 75, 127
2, 72434, Note_off_c, 3, 75, 127
2, 72434, Note_off_c, 0, 60, 127
2, 72437, Note_on_c, 1, 49, 127
2, 72437, Note_on_c, 6, 78, 127
2, 72641, Note_off_c, 1, 49, 127
2, 72644, Note_on_c, 5, 53, 127
2, 72848, Note_off_c, 5, 53, 127
2, 72852, Note_on_c, 8, 56, 127
2, 72852, Note_on_c, 5, 77, 127
2, 72859, Note_off_c, 6, 78, 127
2, 73056, Note_off_c, 8, 56, 127
2, 73059, Note_on_c, 0, 60, 127
2, 73263, Note_off_c, 0, 60, 127
2, 73263, Note_off_c, 5, 77, 127
2, 73266, Note_on_c, 2, 50, 127
2, 73266, Note_on_c, 8, 68, 127
2, 73470, Note_off_c, 2, 50, 127
2, 73473, Note_on_c, 5, 53, 127
2, 73677, Note_off_c, 5, 53, 127
2, 73677, Note_off_c, 8, 68, 127
2, 73681, Note_on_c, 8, 56, 127
2, 73681, Note_on_c, 5, 77, 127
2, 73885, Note_off_c, 8, 56, 127
2, 73888, Note_on_c, 11, 58, 127
2, 74092, Note_off_c, 11, 58, 127
2, 74092, Note_off_c, 5, 77, 127
2, 74095, Note_on_c, 3, 51, 127
2, 74095, Note_on_c, 11, 70, 127
2, 74195, Note_off_c, 11, 70, 127
2, 74199, Note_on_c, 8, 68, 127
2, 74299, Note_off_c, 8, 68, 127
2, 74299, Note_off_c, 3, 51, 127
2, 74302, Note_on_c, 7, 55, 127
2, 74302, Note_on_c, 11, 70, 127
2, 74402, Note_off_c, 11, 70, 127
2, 74405, Note_on_c, 8, 68, 127
2, 74505, Note_off_c, 8, 68, 127
2, 74506, Note_off_c, 7, 55, 127
2, 74509, Note_on_c, 11, 58, 127
2, 74509, Note_on_c, 7, 67, 127
2, 74713, Note_off_c, 11, 58, 127
2, 74716, Note_on_c, 1, 61, 127
2, 74920, Note_off_c, 1, 61, 127
2, 74920, Note_off_c, 7, 67, 127
2, 74923, Note_on_c, 4, 52, 127
2, 74923, Note_on_c, 11, 70, 127
2, 75127, Note_off_c, 4, 52, 127
2, 75131, Note_on_c, 7, 55, 127
2, 75334, Note_off_c, 11, 70, 127
2, 75335, Note_off_c, 7, 55, 127
2, 75338, Note_on_c, 11, 58, 127
2, 75338, Note_on_c, 7, 79, 127
2, 75542, Note_off_c, 11, 58, 127
2, 75545, Note_on_c, 0, 60, 127
2, 75749, Note_off_c, 0, 60, 127
2, 75749, Note_off_c, 7, 79, 127
2, 75753, Note_on_c, 5, 53, 127
2, 75753, Note_on_c, 11, 70, 127
2, 75957, Note_off_c, 5, 53, 127
2, 75960, Note_on_c, 8, 56, 127
2, 76164, Note_off_c, 8, 56, 127
2, 76164, Note_off_c, 11, 70, 127
2, 76167, Note_on_c, 0, 60, 127
2, 76167, Note_on_c, 8, 68, 127
2, 76371, Note_off_c, 0, 60, 127
2, 76374, Note_on_c, 4, 64, 127
2, 76568, Note_off_c, 8, 68, 127
2, 76587, Note_off_c, 4, 64, 127
2, 76590, Note_on_c, 5, 65, 127
2, 76590, Note_on_c, 0, 72, 127
2, 76797, Note_on_c, 4, 76, 127
2, 76999, Note_off_c, 0, 72, 127
2, 77001, Note_off_c, 4, 76, 127
2, 77001, Note_off_c, 5, 65, 127
2, 77003, Note_on_c, 8, 68, 127
2, 77003, Note_on_c, 5, 77, 127
2, 77207, Note_off_c, 5, 77, 127
2, 77211, Note_on_c, 8, 80, 127
2, 77414, Note_off_c, 8, 68, 127
2, 77418, Note_on_c, 11, 58, 127
2, 77418, Note_on_c, 1, 73, 127
2, 77512, Note_off_c, 8, 80, 127
2, 77625, Note_on_c, 8, 80, 127
2, 77719, Note_off_c, 1, 73, 127
2, 77829, Note_off_c, 11, 58, 127
2, 77832, Note_on_c, 0, 60, 127
2, 77832, Note_on_c, 0, 72, 127
2, 77926, Note_off_c, 8, 80, 127
2, 78040, Note_on_c, 8, 80, 127
2, 78133, Note_off_c, 0, 72, 127
2, 78243, Note_off_c, 0, 60, 127
2, 78247, Note_on_c, 1, 61, 127
2, 78247, Note_on_c, 11, 70, 127
2, 78341, Note_off_c, 8, 80, 127
2, 78454, Note_on_c, 8, 80, 127
2, 78656, Note_off_c, 11, 70, 127
2, 78658, Note_off_c, 8, 80, 127
2, 78658, Note_off_c, 1, 61, 127
2, 78661, Note_on_c, 11, 58, 127
2, 78661, Note_on_c, 7, 79, 127
2, 78865, Note_off_c, 7, 79, 127
2, 78869, Note_on_c, 5, 77, 127
2, 79072, Note_off_c, 11, 58, 127
2, 79073, Note_off_c, 5, 77, 127
2, 79076, Note_on_c, 0, 60, 127
2, 79076, Note_on_c, 5, 77, 127
2, 79283, Note_on_c, 4, 76, 127
2, 79303, Note_off_c, 5, 77, 127
2, 79487, Note_off_c, 4, 76, 127
2, 79487, Note_off_c, 0, 60, 127
2, 79494, Note_on_c, 2, 74, 127
2, 79494, Note_on_c, 0, 48, 127
2, 79706, Note_on_c, 0, 72, 127
2, 79711, Note_off_c, 2, 74, 127
2, 79903, Note_off_c, 0, 48, 127
2, 79934, Note_off_c, 0, 72, 127
2, 79936, Note_on_c, 8, 80, 127
2, 80140, Note_off_c, 8, 80, 127
2, 80143, Note_on_c, 5, 77, 127
2, 80347, Note_off_c, 5, 77, 127
2, 80351, Note_on_c, 8, 56, 127
2, 80351, Note_on_c, 5, 53, 127
2, 80351, Note_on_c, 1, 73, 127
2, 80555, Note_off_c, 1, 73, 127
2, 80558, Note_on_c, 0, 72, 127
2, 80762, Note_off_c, 0, 72, 127
2, 80762, Note_off_c, 5, 53, 127
2, 80762, Note_off_c, 8, 56, 127
2, 80765, Note_on_c, 7, 55, 127
2, 80765, Note_on_c, 5, 53, 127
2, 80765, Note_on_c, 11, 70, 127
2, 80969, Note_off_c, 11, 70, 127
2, 80973, Note_on_c, 8, 68, 127
2, 81176, Note_off_c, 5, 53, 127
2, 81177, Note_off_c, 8, 68, 127
2, 81180, Note_on_c, 4, 52, 127
2, 81180, Note_on_c, 11, 70, 127
2, 81384, Note_off_c, 11, 70, 127
2, 81387, Note_on_c, 1, 73, 127
2, 81584, Note_off_c, 7, 55, 127
2, 81589, Note_off_c, 4, 52, 127
2, 81591, Note_off_c, 1, 73, 127
2, 81594, Note_on_c, 6, 78, 127
2, 81798, Note_off_c, 6, 78, 127
2, 81801, Note_on_c, 3, 75, 127
2, 82005, Note_off_c, 3, 75, 127
2, 82008, Note_on_c, 6, 54, 127
2, 82008, Note_on_c, 3, 51, 127
2, 82008, Note_on_c, 12, 71, 127
2, 82212, Note_off_c, 12, 71, 127
2, 82215, Note_on_c, 11, 70, 127
2, 82419, Note_off_c, 11, 70, 127
2, 82419, Note_off_c, 3, 51, 127
2, 82419, Note_off_c, 6, 54, 127
2, 82423, Note_on_c, 5, 53, 127
2, 82423, Note_on_c, 3, 51, 127
2, 82423, Note_on_c, 10, 69, 127
2, 82627, Note_off_c, 10, 69, 127
2, 82630, Note_on_c, 7, 67, 127
2, 82834, Note_off_c, 7, 67, 127
2, 82834, Note_off_c, 5, 53, 127
2, 82837, Note_on_c, 0, 60, 127
2, 82837, Note_on_c, 10, 69, 127
2, 83041, Note_off_c, 10, 69, 127
2, 83044, Note_on_c, 0, 72, 127
2, 83242, Note_off_c, 3, 51, 127
2, 83246, Note_off_c, 0, 60, 127
2, 83248, Note_off_c, 0, 72, 127
2, 83252, Note_on_c, 5, 77, 127
2, 83456, Note_off_c, 5, 77, 127
2, 83459, Note_on_c, 1, 73, 127
2, 83663, Note_off_c, 1, 73, 127
2, 83666, Note_on_c, 1, 49, 127
2, 83666, Note_on_c, 5, 53, 127
2, 83666, Note_on_c, 11, 70, 127
2, 83870, Note_off_c, 11, 70, 127
2, 83873, Note_on_c, 8, 68, 127
2, 84077, Note_off_c, 8, 68, 127
2, 84077, Note_off_c, 5, 53, 127
2, 84077, Note_off_c, 1, 49, 127
2, 84081, Note_on_c, 3, 51, 127
2, 84081, Note_on_c, 1, 49, 127
2, 84081, Note_on_c, 6, 66, 127
2, 84285, Note_off_c, 6, 66, 127
2, 84288, Note_on_c, 5, 65, 127
2, 84492, Note_off_c, 5, 65, 127
2, 84492, Note_off_c, 1, 49, 127
2, 84495, Note_on_c, 0, 48, 127
2, 84495, Note_on_c, 6, 66, 127
2, 84699, Note_off_c, 6, 66, 127
2, 84702, Note_on_c, 11, 70, 127
2, 84900, Note_off_c, 3, 51, 127
2, 84904, Note_off_c, 0, 48, 127
2, 84906, Note_off_c, 11, 70, 127
2, 84909, Note_on_c, 3, 75, 127
2, 85113, Note_off_c, 3, 75, 127
2, 85116, Note_on_c, 0, 72, 127
2, 85320, Note_off_c, 0, 72, 127
2, 85323, Note_on_c, 1, 49, 127
2, 85323, Note_on_c, 11, 46, 127
2, 85323, Note_on_c, 10, 69, 127
2, 85527, Note_off_c, 10, 69, 127
2, 85531, Note_on_c, 6, 66, 127
2, 85734, Note_off_c, 11, 46, 127
2, 85734, Note_off_c, 1, 49, 127
2, 85735, Note_off_c, 6, 66, 127
2, 85738, Note_on_c, 0, 48, 127
2, 85738, Note_on_c, 11, 46, 127
2, 85738, Note_on_c, 5, 65, 127
2, 85942, Note_off_c, 5, 65, 127
2, 85945, Note_on_c, 4, 64, 127
2, 86149, Note_off_c, 4, 64, 127
2, 86149, Note_off_c, 11, 46, 127
2, 86153, Note_on_c, 10, 45, 127
2, 86153, Note_on_c, 5, 65, 127
2, 86357, Note_off_c, 5, 65, 127
2, 86360, Note_on_c, 3, 75, 127
2, 86557, Note_off_c, 0, 48, 127
2, 86562, Note_off_c, 10, 45, 127
2, 86564, Note_off_c, 3, 75, 127
2, 86567, Note_on_c, 11, 70, 127
2, 86567, Note_on_c, 1, 73, 127
2, 86774, Note_on_c, 11, 58, 127
2, 86978, Note_off_c, 11, 58, 127
2, 86982, Note_on_c, 0, 60, 127
2, 87186, Note_off_c, 0, 60, 127
2, 87189, Note_on_c, 1, 61, 127
2, 87392, Note_off_c, 1, 73, 127
2, 87392, Note_off_c, 11, 70, 127
2, 87396, Note_on_c, 4, 64, 127
2, 87396, Note_on_c, 7, 67, 127
2, 87600, Note_off_c, 1, 61, 127
2, 87603, Note_on_c, 0, 60, 127
2, 87807, Note_off_c, 0, 60, 127
2, 87810, Note_on_c, 11, 58, 127
2, 88014, Note_off_c, 11, 58, 127
2, 88017, Note_on_c, 8, 56, 127
2, 88221, Note_off_c, 7, 67, 127
2, 88221, Note_off_c, 4, 64, 127
2, 88224, Note_on_c, 1, 61, 127
2, 88224, Note_on_c, 11, 70, 127
2, 88428, Note_off_c, 8, 56, 127
2, 88432, Note_on_c, 7, 55, 127
2, 88636, Note_off_c, 7, 55, 127
2, 88639, Note_on_c, 8, 56, 127
2, 88843, Note_off_c, 8, 56, 127
2, 88846, Note_on_c, 11, 58, 127
2, 89049, Note_off_c, 11, 70, 127
2, 89049, Note_off_c, 1, 61, 127
2, 89053, Note_on_c, 4, 64, 127
2, 89053, Note_on_c, 1, 61, 127
2, 89257, Note_off_c, 11, 58, 127
2, 89261, Note_on_c, 8, 56, 127
2, 89465, Note_off_c, 8, 56, 127
2, 89468, Note_on_c, 7, 55, 127
2, 89672, Note_off_c, 7, 55, 127
2, 89675, Note_on_c, 5, 53, 127
2, 89872, Note_off_c, 1, 61, 127
2, 89879, Note_off_c, 5, 53, 127
2, 89883, Note_on_c, 4, 52, 127
2, 90086, Note_off_c, 4, 64, 127
2, 90105, Note_on_c, 7, 67, 127
2, 90312, Note_on_c, 11, 58, 127
2, 90312, Note_on_c, 0, 60, 127
2, 90406, Note_off_c, 7, 67, 127
2, 90519, Note_on_c, 7, 67, 127
2, 90702, Note_off_c, 4, 52, 127
2, 90721, Note_off_c, 11, 58, 127
2, 90723, Note_off_c, 7, 67, 127
2, 90723, Note_off_c, 0, 60, 127
2, 90727, Note_on_c, 8, 56, 127
2, 90727, Note_on_c, 5, 53, 127
2, 90934, Note_on_c, 7, 67, 127
2, 91136, Note_off_c, 8, 56, 127
2, 91141, Note_on_c, 8, 56, 127
2, 91141, Note_on_c, 0, 60, 127
2, 91235, Note_off_c, 7, 67, 127
2, 91349, Note_on_c, 5, 65, 127
2, 91546, Note_off_c, 5, 53, 127
2, 91550, Note_off_c, 8, 56, 127
2, 91552, Note_off_c, 0, 60, 127
2, 91553, Note_off_c, 5, 65, 127
2, 91556, Note_on_c, 8, 56, 127
2, 91556, Note_on_c, 1, 49, 127
2, 91763, Note_on_c, 5, 65, 127
2, 91965, Note_off_c, 8, 56, 127
2, 91967, Note_off_c, 5, 65, 127
2, 91970, Note_on_c, 8, 56, 127
2, 91970, Note_on_c, 12, 59, 127
2, 92178, Note_on_c, 5, 65, 127
2, 92375, Note_off_c, 1, 49, 127
2, 92379, Note_off_c, 8, 56, 127
2, 92381, Note_off_c, 12, 59, 127
2, 92382, Note_off_c, 5, 65, 127
2, 92385, Note_on_c, 8, 56, 127
2, 92385, Note_on_c, 0, 48, 127
2, 92607, Note_on_c, 5, 65, 127
2, 92825, Note_off_c, 8, 56, 127
2, 92833, Note_off_c, 5, 65, 127
2, 92847, Note_on_c, 0, 60, 127
2, 92847, Note_on_c, 4, 64, 127
2, 92847, Note_on_c, 7, 55, 127
2, 93177, Note_off_c, 0, 48, 127
2, 93342, Note_off_c, 7, 55, 127
2, 93381, Note_off_c, 4, 64, 127
2, 93381, Note_off_c, 0, 60, 127
2, 93435, Note_on_c, 5, 53, 127
2, 93850, Note_on_c, 8, 68, 127
2, 93850, Note_on_c, 5, 65, 127
2, 94260, Note_off_c, 5, 53, 127
2, 94261, Note_off_c, 5, 65, 127
2, 94261, Note_off_c, 8, 68, 127
2, 94264, Note_on_c, 11, 58, 127
2, 94264, Note_on_c, 5, 65, 127
2, 94264, Note_on_c, 8, 68, 127
2, 94675, Note_off_c, 8, 68, 127
2, 94675, Note_off_c, 5, 65, 127
2, 94679, Note_on_c, 4, 64, 127
2, 94679, Note_on_c, 7, 67, 127
2, 95089, Note_off_c, 11, 58, 127
2, 95108, Note_on_c, 1, 61, 127
2, 95282, Note_off_c, 7, 67, 127
2, 95282, Note_off_c, 4, 64, 127
2, 95523, Note_on_c, 7, 67, 127
2, 95523, Note_on_c, 4, 64, 127
2, 95727, Note_off_c, 7, 67, 127
2, 95730, Note_on_c, 8, 68, 127
2, 95932, Note_off_c, 4, 64, 127
2, 95933, Note_off_c, 1, 61, 127
2, 95934, Note_off_c, 8, 68, 127
2, 95937, Note_on_c, 4, 64, 127
2, 95937, Note_on_c, 11, 70, 127
2, 95937, Note_on_c, 7, 55, 127
2, 96141, Note_off_c, 11, 70, 127
2, 96145, Note_on_c, 1, 73, 127
2, 96349, Note_off_c, 1, 73, 127
2, 96352, Note_on_c, 0, 72, 127
2, 96756, Note_off_c, 4, 64, 127
2, 96762, Note_off_c, 7, 55, 127
2, 96783, Note_on_c, 8, 56, 127
2, 96955, Note_off_c, 0, 72, 127
2, 97197, Note_on_c, 0, 72, 127
2, 97197, Note_on_c, 5, 65, 127
2, 97608, Note_off_c, 5, 65, 127
2, 97608, Note_off_c, 0, 72, 127
2, 97608, Note_off_c, 8, 56, 127
2, 97611, Note_on_c, 1, 61, 127
2, 97611, Note_on_c, 11, 70, 127
2, 97611, Note_on_c, 5, 65, 127
2, 97815, Note_off_c, 11, 70, 127
2, 97818, Note_on_c, 8, 68, 127
2, 98020, Note_off_c, 5, 65, 127
2, 98022, Note_off_c, 8, 68, 127
2, 98022, Note_off_c, 1, 61, 127
2, 98025, Note_on_c, 11, 58, 127
2, 98025, Note_on_c, 7, 67, 127
2, 98229, Note_off_c, 7, 67, 127
2, 98233, Note_on_c, 5, 65, 127
2, 98436, Note_off_c, 11, 58, 127
2, 98437, Note_off_c, 5, 65, 127
2, 98440, Note_on_c, 0, 60, 127
2, 98440, Note_on_c, 8, 68, 127
2, 98644, Note_off_c, 8, 68, 127
2, 98647, Note_on_c, 7, 67, 127
2, 98851, Note_off_c, 7, 67, 127
2, 98851, Note_off_c, 0, 60, 127
2, 98854, Note_on_c, 0, 48, 127
2, 98854, Note_on_c, 11, 58, 127
2, 98854, Note_on_c, 5, 65, 127
2, 99058, Note_off_c, 5, 65, 127
2, 99062, Note_on_c, 4, 64, 127
2, 99265, Note_off_c, 11, 58, 127
2, 99265, Note_off_c, 0, 48, 127
2, 99266, Note_off_c, 4, 64, 127
2, 99269, Note_on_c, 1, 49, 127
2, 99269, Note_on_c, 8, 56, 127
2, 99269, Note_on_c, 4, 64, 127
2, 99473, Note_off_c, 4, 64, 127
2, 99476, Note_on_c, 5, 65, 127
2, 99680, Note_off_c, 5, 65, 127
2, 99683, Note_on_c, 7, 67, 127
2, 99887, Note_off_c, 7, 67, 127
2, 99891, Note_on_c, 5, 65, 127
2, 100094, Note_off_c, 8, 56, 127
2, 100094, Note_off_c, 1, 49, 127
2, 100095, Note_off_c, 5, 65, 127
2, 100098, Note_on_c, 1, 61, 127
2, 100098, Note_on_c, 4, 64, 127
2, 100302, Note_off_c, 4, 64, 127
2, 100304, Note_on_c, 5, 65, 127
2, 100508, Note_off_c, 5, 65, 127
2, 100509, Note_off_c, 1, 61, 127
2, 100512, Note_on_c, 1, 49, 127
2, 100512, Note_on_c, 11, 70, 127
2, 100719, Note_on_c, 5, 65, 127
2, 100921, Note_off_c, 11, 70, 127
2, 100923, Note_off_c, 5, 65, 127
2, 100923, Note_off_c, 1, 49, 127
2, 100926, Note_on_c, 0, 48, 127
2, 100926, Note_on_c, 4, 64, 127
2, 101130, Note_off_c, 4, 64, 127
2, 101133, Note_on_c, 5, 65, 127
2, 101337, Note_off_c, 5, 65, 127
2, 101337, Note_off_c, 0, 48, 127
2, 101341, Note_on_c, 0, 60, 127
2, 101341, Note_on_c, 8, 68, 127
2, 101548, Note_on_c, 5, 65, 127
2, 101750, Note_off_c, 8, 68, 127
2, 101752, Note_off_c, 5, 65, 127
2, 101752, Note_off_c, 0, 60, 127
2, 101755, Note_on_c, 11, 58, 127
2, 101755, Note_on_c, 4, 64, 127
2, 101959, Note_off_c, 4, 64, 127
2, 101963, Note_on_c, 5, 65, 127
2, 102166, Note_off_c, 11, 58, 127
2, 102167, Note_off_c, 5, 65, 127
2, 102170, Note_on_c, 11, 46, 127
2, 102170, Note_on_c, 1, 73, 127
2, 102377, Note_on_c, 5, 65, 127
2, 102579, Note_off_c, 1, 73, 127
2, 102581, Note_off_c, 5, 65, 127
2, 102581, Note_off_c, 11, 46, 127
2, 102584, Note_on_c, 8, 44, 127
2, 102584, Note_on_c, 4, 64, 127
2, 102788, Note_off_c, 4, 64, 127
2, 102788, Note_off_c, 8, 44, 127
2, 102792, Note_on_c, 0, 48, 127
2, 102792, Note_on_c, 5, 65, 127
2, 102996, Note_off_c, 5, 65, 127
2, 102996, Note_off_c, 0, 48, 127
2, 102999, Note_on_c, 5, 53, 127
2, 102999, Note_on_c, 0, 72, 127
2, 103203, Note_off_c, 5, 53, 127
2, 103205, Note_on_c, 7, 55, 127
2, 103205, Note_on_c, 5, 65, 127
2, 103343, Note_off_c, 0, 72, 127
2, 103409, Note_off_c, 5, 65, 127
2, 103409, Note_off_c, 7, 55, 127
2, 103413, Note_on_c, 10, 57, 127
2, 103413, Note_on_c, 3, 63, 127
2, 103617, Note_off_c, 3, 63, 127
2, 103620, Note_on_c, 5, 65, 127
2, 103824, Note_off_c, 5, 65, 127
2, 103824, Note_off_c, 10, 57, 127
2, 103827, Note_on_c, 5, 53, 127
2, 103827, Note_on_c, 10, 69, 127
2, 104031, Note_off_c, 10, 69, 127
2, 104034, Note_on_c, 0, 72, 127
2, 104238, Note_off_c, 0, 72, 127
2, 104238, Note_off_c, 5, 53, 127
2, 104242, Note_on_c, 11, 46, 127
2, 104242, Note_on_c, 0, 72, 127
2, 104446, Note_off_c, 0, 72, 127
2, 104449, Note_on_c, 10, 69, 127
2, 104653, Note_off_c, 10, 69, 127
2, 104656, Note_on_c, 8, 56, 127
2, 104656, Note_on_c, 5, 65, 127
2, 104860, Note_off_c, 5, 65, 127
2, 104863, Note_on_c, 1, 61, 127
2, 105061, Note_off_c, 11, 46, 127
2, 105067, Note_off_c, 1, 61, 127
2, 105067, Note_off_c, 8, 56, 127
2, 105071, Note_on_c, 7, 55, 127
2, 105071, Note_on_c, 1, 61, 127
2, 105275, Note_off_c, 1, 61, 127
2, 105278, Note_on_c, 3, 63, 127
2, 105482, Note_off_c, 3, 63, 127
2, 105485, Note_on_c, 3, 51, 127
2, 105485, Note_on_c, 7, 67, 127
2, 105689, Note_off_c, 7, 67, 127
2, 105693, Note_on_c, 11, 70, 127
2, 105896, Note_off_c, 3, 51, 127
2, 105897, Note_off_c, 11, 70, 127
2, 105900, Note_on_c, 8, 44, 127
2, 105900, Note_on_c, 11, 70, 127
2, 106104, Note_off_c, 11, 70, 127
2, 106106, Note_on_c, 7, 67, 127
2, 106310, Note_off_c, 7, 67, 127
2, 106311, Note_off_c, 7, 55, 127
2, 106313, Note_on_c, 7, 55, 127
2, 106313, Note_on_c, 3, 63, 127
2, 106517, Note_off_c, 3, 63, 127
2, 106521, Note_on_c, 0, 60, 127
2, 106719, Note_off_c, 8, 44, 127
2, 106724, Note_off_c, 7, 55, 127
2, 106725, Note_off_c, 0, 60, 127
2, 106728, Note_on_c, 5, 53, 127
2, 106728, Note_on_c, 0, 60, 127
2, 106932, Note_off_c, 0, 60, 127
2, 106935, Note_on_c, 1, 61, 127
2, 107139, Note_off_c, 1, 61, 127
2, 107143, Note_on_c, 1, 49, 127
2, 107143, Note_on_c, 5, 65, 127
2, 107347, Note_off_c, 5, 65, 127
2, 107350, Note_on_c, 8, 68, 127
2, 107554, Note_off_c, 8, 68, 127
2, 107554, Note_off_c, 1, 49, 127
2, 107557, Note_on_c, 7, 43, 127
2, 107557, Note_on_c, 8, 68, 127
2, 107761, Note_off_c, 8, 68, 127
2, 107764, Note_on_c, 5, 65, 127
2, 107968, Note_off_c, 5, 65, 127
2, 107968, Note_off_c, 5, 53, 127
2, 107972, Note_on_c, 5, 53, 127
2, 107972, Note_on_c, 1, 61, 127
2, 108176, Note_off_c, 1, 61, 127
2, 108179, Note_on_c, 11, 58, 127
2, 108376, Note_off_c, 7, 43, 127
2, 108383, Note_off_c, 11, 58, 127
2, 108383, Note_off_c, 5, 53, 127
2, 108386, Note_on_c, 4, 52, 127
2, 108386, Note_on_c, 11, 58, 127
2, 108590, Note_off_c, 11, 58, 127
2, 108594, Note_on_c, 0, 60, 127
2, 108798, Note_off_c, 0, 60, 127
2, 108800, Note_on_c, 0, 48, 127
2, 108800, Note_on_c, 4, 64, 127
2, 109004, Note_off_c, 4, 64, 127
2, 109007, Note_on_c, 7, 67, 127
2, 109205, Note_off_c, 4, 52, 127
2, 109211, Note_off_c, 7, 67, 127
2, 109211, Note_off_c, 0, 48, 127
2, 109214, Note_on_c, 5, 41, 127
2, 109214, Note_on_c, 7, 67, 127
2, 109418, Note_off_c, 7, 67, 127
2, 109422, Note_on_c, 4, 64, 127
2, 109625, Note_off_c, 5, 41, 127
2, 109626, Note_off_c, 4, 64, 127
2, 109629, Note_on_c, 8, 44, 127
2, 109629, Note_on_c, 0, 60, 127
2, 109836, Note_on_c, 8, 56, 127
2, 109856, Note_off_c, 0, 60, 127
2, 110059, Note_on_c, 0, 48, 127
2, 110060, Note_off_c, 8, 44, 127
2, 110073, Note_off_c, 8, 56, 127
2, 110267, Note_on_c, 5, 65, 127
2, 110470, Note_off_c, 0, 48, 127
2, 110474, Note_on_c, 10, 57, 127
2, 110474, Note_on_c, 0, 60, 127
2, 110474, Note_on_c, 3, 51, 127
2, 110676, Note_off_c, 5, 65, 127
2, 110681, Note_on_c, 5, 65, 127
2, 110883, Note_off_c, 0, 60, 127
2, 110883, Note_off_c, 10, 57, 127
2, 110885, Note_off_c, 5, 65, 127
2, 110885, Note_off_c, 3, 51, 127
2, 110895, Note_on_c, 1, 49, 127
2, 111096, Note_on_c, 5, 65, 127
2, 111302, Note_on_c, 1, 61, 127
2, 111302, Note_on_c, 11, 58, 127
2, 111302, Note_on_c, 5, 41, 127
2, 111306, Note_off_c, 1, 49, 127
2, 111505, Note_off_c, 5, 65, 127
2, 111509, Note_on_c, 5, 65, 127
2, 111711, Note_off_c, 11, 58, 127
2, 111711, Note_off_c, 1, 61, 127
2, 111713, Note_off_c, 5, 65, 127
2, 111713, Note_off_c, 5, 41, 127
2, 111723, Note_on_c, 3, 39, 127
2, 111924, Note_on_c, 10, 69, 127
2, 112131, Note_on_c, 3, 63, 127
2, 112131, Note_on_c, 6, 66, 127
2, 112131, Note_on_c, 0, 48, 127
2, 112134, Note_off_c, 3, 39, 127
2, 112333, Note_off_c, 10, 69, 127
2, 112339, Note_on_c, 10, 69, 127
2, 112540, Note_off_c, 6, 66, 127
2, 112540, Note_off_c, 3, 63, 127
2, 112542, Note_off_c, 0, 48, 127
2, 112543, Note_off_c, 10, 69, 127
2, 112552, Note_on_c, 11, 46, 127
2, 112753, Note_on_c, 11, 70, 127
2, 112960, Note_on_c, 11, 58, 127
2, 112960, Note_on_c, 5, 65, 127
2, 112960, Note_on_c, 1, 37, 127
2, 112963, Note_off_c, 11, 46, 127
2, 113162, Note_off_c, 11, 70, 127
2, 113168, Note_on_c, 11, 70, 127
2, 113369, Note_off_c, 5, 65, 127
2, 113369, Note_off_c, 11, 58, 127
2, 113371, Note_off_c, 1, 37, 127
2, 113372, Note_off_c, 11, 70, 127
2, 113381, Note_on_c, 0, 36, 127
2, 113582, Note_on_c, 8, 68, 127
2, 113790, Note_on_c, 5, 65, 127
2, 113790, Note_on_c, 0, 60, 127
2, 113790, Note_on_c, 0, 48, 127
2, 113792, Note_off_c, 0, 36, 127
2, 113991, Note_off_c, 8, 68, 127
2, 113997, Note_on_c, 8, 68, 127
2, 114210, Note_off_c, 0, 48, 127
2, 114215, Note_off_c, 0, 60, 127
2, 114215, Note_off_c, 5, 65, 127
2, 114235, Note_on_c, 5, 53, 127
2, 114235, Note_on_c, 12, 47, 127
2, 114235, Note_on_c, 2, 50, 127
2, 114254, Note_off_c, 8, 68, 127
2, 114690, Note_on_c, 5, 65, 127
2, 114690, Note_on_c, 2, 62, 127
2, 114690, Note_on_c, 8, 68, 127
2, 115144, Note_off_c, 2, 50, 127
2, 115144, Note_off_c, 12, 47, 127
2, 115144, Note_off_c, 5, 53, 127
2, 115164, Note_on_c, 0, 48, 127
2, 115399, Note_off_c, 8, 68, 127
2, 115399, Note_off_c, 2, 62, 127
2, 115399, Note_off_c, 5, 65, 127
2, 115401, Note_on_c, 7, 67, 127
2, 115635, Note_off_c, 7, 67, 127
2, 115639, Note_on_c, 11, 58, 127
2, 115639, Note_on_c, 5, 65, 127
2, 115873, Note_off_c, 5, 65, 127
2, 115877, Note_on_c, 4, 64, 127
2, 116102, Note_off_c, 0, 48, 127
2, 116109, Note_off_c, 4, 64, 127
2, 116109, Note_off_c, 11, 58, 127
2, 116111, Note_on_c, 5, 53, 127
2, 116111, Note_on_c, 11, 58, 127
2, 116111, Note_on_c, 4, 64, 127
2, 116719, Note_off_c, 4, 64, 127
2, 116719, Note_off_c, 11, 58, 127
2, 116720, Note_on_c, 8, 56, 127
2, 116720, Note_on_c, 5, 65, 127
2, 119191, Note_off_c, 5, 65, 127
2, 119191, Note_off_c, 8, 56, 127
2, 119191, Note_off_c, 5, 53, 127
2, 119379, Note_on_c, 0, 72, 127
2, 119701, Note_off_c, 0, 72, 127
2, 119704, Note_on_c, 5, 65, 127
2, 120026, Note_off_c, 5, 65, 127
2, 120030, Note_on_c, 5, 65, 127
2, 120352, Note_off_c, 5, 65, 127
2, 120356, Note_on_c, 5, 65, 127
2, 120678, Note_off_c, 5, 65, 127
2, 120682, Note_on_c, 1, 73, 127
2, 120841, Note_off_c, 1, 73, 127
2, 120844, Note_on_c, 11, 70, 127
2, 121003, Note_off_c, 11, 70, 127
2, 121005, Note_on_c, 4, 64, 127
2, 121327, Note_off_c, 4, 64, 127
2, 121331, Note_on_c, 4, 64, 127
2, 121653, Note_off_c, 4, 64, 127
2, 121657, Note_on_c, 4, 64, 127
2, 121816, Note_off_c, 4, 64, 127
2, 121819, Note_on_c, 5, 65, 127
2, 121978, Note_off_c, 5, 65, 127
2, 121981, Note_on_c, 7, 67, 127
2, 122140, Note_off_c, 7, 67, 127
2, 122143, Note_on_c, 8, 68, 127
2, 122302, Note_off_c, 8, 68, 127
2, 122304, Note_on_c, 11, 70, 127
2, 122463, Note_off_c, 11, 70, 127
2, 122467, Note_on_c, 8, 68, 127
2, 122626, Note_off_c, 8, 68, 127
2, 122628, Note_on_c, 7, 67, 127
2, 122787, Note_off_c, 7, 67, 127
2, 122791, Note_on_c, 8, 68, 127
2, 122950, Note_off_c, 8, 68, 127
2, 122953, Note_on_c, 11, 70, 127
2, 123112, Note_off_c, 11, 70, 127
2, 123113, Note_on_c, 1, 73, 127
2, 123272, Note_off_c, 1, 73, 127
2, 123276, Note_on_c, 0, 72, 127
2, 123435, Note_off_c, 0, 72, 127
2, 123437, Note_on_c, 11, 70, 127
2, 123596, Note_off_c, 11, 70, 127
2, 123600, Note_on_c, 8, 68, 127
2, 123759, Note_off_c, 8, 68, 127
2, 123762, Note_on_c, 7, 67, 127
2, 123921, Note_off_c, 7, 67, 127
2, 123923, Note_on_c, 5, 65, 127
2, 124082, Note_off_c, 5, 65, 127
2, 124086, Note_on_c, 7, 67, 127
2, 124245, Note_off_c, 7, 67, 127
2, 124247, Note_on_c, 8, 68, 127
2, 124406, Note_off_c, 8, 68, 127
2, 124409, Note_on_c, 11, 70, 127
2, 124568, Note_off_c, 11, 70, 127
2, 124571, Note_on_c, 0, 72, 127
2, 124571, Note_on_c, 5, 65, 127
2, 124730, Note_off_c, 0, 72, 127
2, 124733, Note_on_c, 2, 74, 127
2, 124891, Note_off_c, 5, 65, 127
2, 124892, Note_off_c, 2, 74, 127
2, 124896, Note_on_c, 3, 75, 127
2, 124896, Note_on_c, 0, 60, 127
2, 125055, Note_off_c, 3, 75, 127
2, 125057, Note_on_c, 2, 74, 127
2, 125216, Note_off_c, 2, 74, 127
2, 125216, Note_off_c, 0, 60, 127
2, 125218, Note_on_c, 0, 72, 127
2, 125218, Note_on_c, 0, 60, 127
2, 125377, Note_off_c, 0, 72, 127
2, 125380, Note_on_c, 2, 74, 127
2, 125538, Note_off_c, 0, 60, 127
2, 125539, Note_off_c, 2, 74, 127
2, 125542, Note_on_c, 3, 75, 127
2, 125542, Note_on_c, 0, 60, 127
2, 125701, Note_off_c, 3, 75, 127
2, 125703, Note_on_c, 7, 79, 127
2, 125862, Note_off_c, 7, 79, 127
2, 125862, Note_off_c, 0, 60, 127
2, 125866, Note_on_c, 5, 77, 127
2, 125866, Note_on_c, 8, 68, 127
2, 126025, Note_off_c, 8, 68, 127
2, 126025, Note_off_c, 5, 77, 127
2, 126028, Note_on_c, 3, 75, 127
2, 126028, Note_on_c, 5, 65, 127
2, 126187, Note_off_c, 5, 65, 127
2, 126187, Note_off_c, 3, 75, 127
2, 126190, Note_on_c, 2, 74, 127
2, 126190, Note_on_c, 12, 59, 127
2, 126349, Note_off_c, 2, 74, 127
2, 126352, Note_on_c, 0, 72, 127
2, 126510, Note_off_c, 12, 59, 127
2, 126511, Note_off_c, 0, 72, 127
2, 126513, Note_on_c, 12, 71, 127
2, 126513, Note_on_c, 12, 59, 127
2, 126672, Note_off_c, 12, 71, 127
2, 126676, Note_on_c, 10, 69, 127
2, 126833, Note_off_c, 12, 59, 127
2, 126835, Note_off_c, 10, 69, 127
2, 126838, Note_on_c, 7, 67, 127
2, 126838, Note_on_c, 12, 59, 127
2, 126997, Note_off_c, 12, 59, 127
2, 126997, Note_off_c, 7, 67, 127
2, 127000, Note_on_c, 10, 69, 127
2, 127000, Note_on_c, 0, 60, 127
2, 127159, Note_off_c, 0, 60, 127
2, 127159, Note_off_c, 10, 69, 127
2, 127161, Note_on_c, 12, 71, 127
2, 127161, Note_on_c, 2, 62, 127
2, 127320, Note_off_c, 2, 62, 127
2, 127320, Note_off_c, 12, 71, 127
2, 127322, Note_on_c, 0, 72, 127
2, 127322, Note_on_c, 3, 63, 127
2, 127481, Note_off_c, 3, 63, 127
2, 127481, Note_off_c, 0, 72, 127
2, 127485, Note_on_c, 2, 74, 127
2, 127485, Note_on_c, 5, 65, 127
2, 127644, Note_off_c, 5, 65, 127
2, 127646, Note_on_c, 3, 63, 127
2, 127805, Note_off_c, 3, 63, 127
2, 127805, Note_off_c, 2, 74, 127
2, 127808, Note_on_c, 5, 77, 127
2, 127808, Note_on_c, 2, 62, 127
2, 127967, Note_off_c, 2, 62, 127
2, 127971, Note_on_c, 3, 63, 127
2, 128128, Note_off_c, 5, 77, 127
2, 128130, Note_off_c, 3, 63, 127
2, 128132, Note_on_c, 8, 80, 127
2, 128132, Note_on_c, 5, 65, 127
2, 128291, Note_off_c, 5, 65, 127
2, 128295, Note_on_c, 8, 68, 127
2, 128452, Note_off_c, 8, 80, 127
2, 128454, Note_off_c, 8, 68, 127
2, 128456, Note_on_c, 12, 71, 127
2, 128456, Note_on_c, 7, 67, 127
2, 128615, Note_off_c, 7, 67, 127
2, 128618, Note_on_c, 5, 65, 127
2, 128776, Note_off_c, 12, 71, 127
2, 128777, Note_off_c, 5, 65, 127
2, 128781, Note_on_c, 0, 72, 127
2, 128781, Note_on_c, 3, 63, 127
2, 128940, Note_off_c, 3, 63, 127
2, 128942, Note_on_c, 2, 62, 127
2, 129101, Note_off_c, 2, 62, 127
2, 129101, Note_off_c, 0, 72, 127
2, 129103, Note_on_c, 3, 75, 127
2, 129103, Note_on_c, 0, 60, 127
2, 129262, Note_off_c, 0, 60, 127
2, 129265, Note_on_c, 2, 62, 127
2, 129423, Note_off_c, 3, 75, 127
2, 129424, Note_off_c, 2, 62, 127
2, 129427, Note_on_c, 7, 79, 127
2, 129427, Note_on_c, 3, 63, 127
2, 129586, Note_off_c, 3, 63, 127
2, 129589, Note_on_c, 5, 65, 127
2, 129747, Note_off_c, 7, 79, 127
2, 129748, Note_off_c, 5, 65, 127
2, 129751, Note_on_c, 0, 84, 127
2, 129751, Note_on_c, 7, 67, 127
2, 129910, Note_off_c, 7, 67, 127
2, 129913, Note_on_c, 10, 69, 127
2, 130071, Note_off_c, 0, 84, 127
2, 130072, Note_off_c, 10, 69, 127
2, 130075, Note_on_c, 1, 73, 127
2, 130075, Note_on_c, 11, 70, 127
2, 130234, Note_off_c, 11, 70, 127
2, 130237, Note_on_c, 8, 68, 127
2, 130395, Note_off_c, 1, 73, 127
2, 130396, Note_off_c, 8, 68, 127
2, 130399, Note_on_c, 0, 84, 127
2, 130399, Note_on_c, 7, 67, 127
2, 130558, Note_off_c, 7, 67, 127
2, 130561, Note_on_c, 5, 65, 127
2, 130719, Note_off_c, 0, 84, 127
2, 130720, Note_off_c, 5, 65, 127
2, 130722, Note_on_c, 11, 82, 127
2, 130722, Note_on_c, 7, 67, 127
2, 130881, Note_off_c, 7, 67, 127
2, 130885, Note_on_c, 11, 70, 127
2, 131042, Note_off_c, 11, 82, 127
2, 131044, Note_off_c, 11, 70, 127
2, 131047, Note_on_c, 1, 73, 127
2, 131047, Note_on_c, 8, 68, 127
2, 131206, Note_off_c, 8, 68, 127
2, 131207, Note_on_c, 7, 67, 127
2, 131366, Note_off_c, 7, 67, 127
2, 131367, Note_off_c, 1, 73, 127
2, 131370, Note_on_c, 0, 72, 127
2, 131370, Note_on_c, 8, 68, 127
2, 131529, Note_off_c, 8, 68, 127
2, 131531, Note_on_c, 11, 70, 127
2, 131690, Note_off_c, 11, 70, 127
2, 131690, Note_off_c, 0, 72, 127
2, 131694, Note_on_c, 3, 75, 127
2, 131694, Note_on_c, 0, 72, 127
2, 131853, Note_off_c, 0, 72, 127
2, 131856, Note_on_c, 11, 70, 127
2, 132014, Note_off_c, 3, 75, 127
2, 132015, Note_off_c, 11, 70, 127
2, 132017, Note_on_c, 8, 80, 127
2, 132017, Note_on_c, 8, 68, 127
2, 132176, Note_off_c, 8, 68, 127
2, 132180, Note_on_c, 7, 67, 127
2, 132337, Note_off_c, 8, 80, 127
2, 132339, Note_off_c, 7, 67, 127
2, 132341, Note_on_c, 0, 72, 127
2, 132341, Note_on_c, 5, 65, 127
2, 132500, Note_off_c, 5, 65, 127
2, 132503, Note_on_c, 3, 63, 127
2, 132661, Note_off_c, 0, 72, 127
2, 132662, Note_off_c, 3, 63, 127
2, 132665, Note_on_c, 11, 70, 127
2, 132665, Note_on_c, 2, 62, 127
2, 132824, Note_off_c, 2, 62, 127
2, 132827, Note_on_c, 5, 65, 127
2, 132985, Note_off_c, 11, 70, 127
2, 132986, Note_off_c, 5, 65, 127
2, 132990, Note_on_c, 8, 80, 127
2, 132990, Note_on_c, 4, 64, 127
2, 133149, Note_off_c, 4, 64, 127
2, 133151, Note_on_c, 2, 62, 127
2, 133310, Note_off_c, 2, 62, 127
2, 133310, Note_off_c, 8, 80, 127
2, 133312, Note_on_c, 7, 79, 127
2, 133312, Note_on_c, 4, 64, 127
2, 133471, Note_off_c, 4, 64, 127
2, 133474, Note_on_c, 7, 67, 127
2, 133632, Note_off_c, 7, 79, 127
2, 133633, Note_off_c, 7, 67, 127
2, 133636, Note_on_c, 11, 70, 127
2, 133636, Note_on_c, 5, 65, 127
2, 133636, Note_on_c, 0, 60, 127
2, 133795, Note_off_c, 5, 65, 127
2, 133798, Note_on_c, 4, 64, 127
2, 133956, Note_off_c, 0, 60, 127
2, 133956, Note_off_c, 11, 70, 127
2, 133957, Note_off_c, 4, 64, 127
2, 133960, Note_on_c, 8, 68, 127
2, 133960, Note_on_c, 5, 65, 127
2, 133960, Note_on_c, 5, 53, 127
2, 134119, Note_off_c, 8, 68, 127
2, 134122, Note_on_c, 0, 72, 127
2, 134280, Note_off_c, 5, 53, 127
2, 134281, Note_off_c, 0, 72, 127
2, 134284, Note_on_c, 5, 77, 127
2, 134284, Note_on_c, 5, 53, 127
2, 134443, Note_off_c, 5, 77, 127
2, 134446, Note_on_c, 3, 75, 127
2, 134600, Note_off_c, 5, 65, 127
2, 134606, Note_off_c, 3, 75, 127
2, 134606, Note_off_c, 5, 53, 127
2, 134610, Note_on_c, 1, 73, 127
2, 134610, Note_on_c, 5, 53, 127
2, 134772, Note_on_c, 0, 72, 127
2, 134930, Note_off_c, 5, 53, 127
2, 134931, Note_off_c, 0, 72, 127
2, 134933, Note_on_c, 11, 70, 127
2, 134933, Note_on_c, 1, 61, 127
2, 135092, Note_off_c, 1, 61, 127
2, 135092, Note_off_c, 11, 70, 127
2, 135095, Note_on_c, 8, 68, 127
2, 135095, Note_on_c, 11, 58, 127
2, 135254, Note_off_c, 11, 58, 127
2, 135254, Note_off_c, 8, 68, 127
2, 135257, Note_on_c, 7, 67, 127
2, 135257, Note_on_c, 4, 52, 127
2, 135415, Note_off_c, 1, 73, 127
2, 135418, Note_on_c, 0, 72, 127
2, 135577, Note_off_c, 0, 72, 127
2, 135577, Note_off_c, 4, 52, 127
2, 135581, Note_on_c, 11, 70, 127
2, 135581, Note_on_c, 4, 52, 127
2, 135740, Note_off_c, 11, 70, 127
2, 135743, Note_on_c, 8, 68, 127
2, 135897, Note_off_c, 7, 67, 127
2, 135903, Note_off_c, 8, 68, 127
2, 135903, Note_off_c, 4, 52, 127
2, 135906, Note_on_c, 7, 67, 127
2, 135906, Note_on_c, 4, 52, 127
2, 136065, Note_off_c, 4, 52, 127
2, 136069, Note_on_c, 5, 65, 127
2, 136069, Note_on_c, 5, 53, 127
2, 136228, Note_off_c, 5, 53, 127
2, 136228, Note_off_c, 5, 65, 127
2, 136231, Note_on_c, 4, 64, 127
2, 136231, Note_on_c, 7, 55, 127
2, 136390, Note_off_c, 7, 55, 127
2, 136390, Note_off_c, 4, 64, 127
2, 136393, Note_on_c, 2, 62, 127
2, 136393, Note_on_c, 8, 56, 127
2, 136552, Note_off_c, 8, 56, 127
2, 136552, Note_off_c, 2, 62, 127
2, 136554, Note_on_c, 4, 64, 127
2, 136554, Note_on_c, 11, 58, 127
2, 136713, Note_off_c, 11, 58, 127
2, 136715, Note_on_c, 8, 56, 127
2, 136874, Note_off_c, 8, 56, 127
2, 136874, Note_off_c, 7, 67, 127
2, 136878, Note_on_c, 1, 73, 127
2, 136878, Note_on_c, 7, 55, 127
2, 137037, Note_off_c, 7, 55, 127
2, 137039, Note_on_c, 8, 56, 127
2, 137198, Note_off_c, 8, 56, 127
2, 137198, Note_off_c, 1, 73, 127
2, 137201, Note_on_c, 0, 72, 127
2, 137201, Note_on_c, 11, 58, 127
2, 137360, Note_off_c, 11, 58, 127
2, 137364, Note_on_c, 1, 61, 127
2, 137522, Note_off_c, 4, 64, 127
2, 137523, Note_off_c, 1, 61, 127
2, 137525, Note_on_c, 4, 64, 127
2, 137525, Note_on_c, 0, 60, 127
2, 137684, Note_off_c, 0, 60, 127
2, 137688, Note_on_c, 11, 58, 127
2, 137845, Note_off_c, 4, 64, 127
2, 137847, Note_off_c, 11, 58, 127
2, 137849, Note_on_c, 5, 65, 127
2, 137849, Note_on_c, 8, 56, 127
2, 138008, Note_off_c, 8, 56, 127
2, 138011, Note_on_c, 7, 55, 127
2, 138169, Note_off_c, 0, 72, 127
2, 138170, Note_off_c, 7, 55, 127
2, 138174, Note_on_c, 1, 73, 127
2, 138174, Note_on_c, 5, 53, 127
2, 138333, Note_off_c, 5, 53, 127
2, 138335, Note_on_c, 7, 55, 127
2, 138494, Note_off_c, 7, 55, 127
2, 138494, Note_off_c, 1, 73, 127
2, 138498, Note_on_c, 0, 72, 127
2, 138498, Note_on_c, 8, 56, 127
2, 138654, Note_off_c, 5, 65, 127
2, 138657, Note_off_c, 8, 56, 127
2, 138658, Note_on_c, 8, 68, 127
2, 138658, Note_on_c, 0, 60, 127
2, 138817, Note_off_c, 0, 60, 127
2, 138817, Note_off_c, 8, 68, 127
2, 138820, Note_on_c, 7, 67, 127
2, 138820, Note_on_c, 11, 58, 127
2, 138979, Note_off_c, 11, 58, 127
2, 138979, Note_off_c, 7, 67, 127
2, 138982, Note_on_c, 5, 65, 127
2, 138982, Note_on_c, 8, 56, 127
2, 139141, Note_off_c, 8, 56, 127
2, 139141, Note_off_c, 5, 65, 127
2, 139144, Note_on_c, 4, 64, 127
2, 139144, Note_on_c, 7, 55, 127
2, 139303, Note_off_c, 7, 55, 127
2, 139303, Note_off_c, 4, 64, 127
2, 139306, Note_on_c, 7, 67, 127
2, 139306, Note_on_c, 5, 53, 127
2, 139465, Note_off_c, 5, 53, 127
2, 139465, Note_off_c, 7, 67, 127
2, 139466, Note_off_c, 0, 72, 127
2, 139468, Note_on_c, 1, 73, 127
2, 139468, Note_on_c, 11, 70, 127
2, 139468, Note_on_c, 4, 52, 127
2, 139627, Note_off_c, 4, 52, 127
2, 139630, Note_on_c, 5, 53, 127
2, 139788, Note_off_c, 1, 73, 127
2, 139789, Note_off_c, 5, 53, 127
2, 139792, Note_on_c, 0, 72, 127
2, 139792, Note_on_c, 7, 55, 127
2, 139950, Note_off_c, 11, 70, 127
2, 139951, Note_off_c, 7, 55, 127
2, 139954, Note_on_c, 7, 67, 127
2, 139954, Note_on_c, 11, 58, 127
2, 140113, Note_off_c, 11, 58, 127
2, 140113, Note_off_c, 7, 67, 127
2, 140115, Note_on_c, 5, 65, 127
2, 140115, Note_on_c, 8, 56, 127
2, 140274, Note_off_c, 8, 56, 127
2, 140274, Note_off_c, 5, 65, 127
2, 140278, Note_on_c, 4, 64, 127
2, 140278, Note_on_c, 7, 55, 127
2, 140437, Note_off_c, 7, 55, 127
2, 140437, Note_off_c, 4, 64, 127
2, 140440, Note_on_c, 8, 68, 127
2, 140440, Note_on_c, 5, 53, 127
2, 140599, Note_off_c, 5, 53, 127
2, 140601, Note_on_c, 8, 56, 127
2, 140760, Note_off_c, 8, 56, 127
2, 140760, Note_off_c, 8, 68, 127
2, 140760, Note_off_c, 0, 72, 127
2, 140763, Note_on_c, 0, 72, 127
2, 140763, Note_on_c, 8, 68, 127
2, 140763, Note_on_c, 0, 60, 127
2, 140922, Note_off_c, 0, 60, 127
2, 140924, Note_on_c, 5, 65, 127
2, 141083, Note_off_c, 5, 65, 127
2, 141083, Note_off_c, 8, 68, 127
2, 141083, Note_off_c, 0, 72, 127
2, 141087, Note_on_c, 0, 72, 127
2, 141087, Note_on_c, 8, 68, 127
2, 141087, Note_on_c, 0, 60, 127
2, 141246, Note_off_c, 0, 60, 127
2, 141249, Note_on_c, 8, 56, 127
2, 141407, Note_off_c, 0, 72, 127
2, 141408, Note_off_c, 8, 56, 127
2, 141410, Note_on_c, 8, 80, 127
2, 141410, Note_on_c, 5, 53, 127
2, 141569, Note_off_c, 5, 53, 127
2, 141573, Note_on_c, 8, 56, 127
2, 141730, Note_off_c, 8, 80, 127
2, 141732, Note_off_c, 8, 56, 127
2, 141734, Note_on_c, 11, 70, 127
2, 141734, Note_on_c, 1, 49, 127
2, 141893, Note_off_c, 11, 70, 127
2, 141897, Note_on_c, 0, 72, 127
2, 142054, Note_off_c, 1, 49, 127
2, 142056, Note_off_c, 0, 72, 127
2, 142058, Note_on_c, 1, 73, 127
2, 142058, Note_on_c, 5, 53, 127
2, 142217, Note_off_c, 1, 73, 127
2, 142220, Note_on_c, 0, 72, 127
2, 142378, Note_off_c, 5, 53, 127
2, 142379, Note_off_c, 0, 72, 127
2, 142383, Note_on_c, 11, 70, 127
2, 142383, Note_on_c, 1, 49, 127
2, 142542, Note_off_c, 11, 70, 127
2, 142544, Note_on_c, 0, 72, 127
2, 142703, Note_off_c, 0, 72, 127
2, 142703, Note_off_c, 1, 49, 127
2, 142705, Note_on_c, 1, 73, 127
2, 142705, Note_on_c, 11, 46, 127
2, 142864, Note_off_c, 1, 73, 127
2, 142867, Note_on_c, 0, 72, 127
2, 143025, Note_off_c, 11, 46, 127
2, 143026, Note_off_c, 0, 72, 127
2, 143026, Note_off_c, 8, 68, 127
2, 143029, Note_on_c, 11, 70, 127
2, 143029, Note_on_c, 7, 67, 127
2, 143029, Note_on_c, 3, 51, 127
2, 143188, Note_off_c, 3, 51, 127
2, 143191, Note_on_c, 7, 55, 127
2, 143349, Note_off_c, 7, 67, 127
2, 143349, Note_off_c, 11, 70, 127
2, 143350, Note_off_c, 7, 55, 127
2, 143353, Note_on_c, 11, 70, 127
2, 143353, Note_on_c, 7, 67, 127
2, 143353, Note_on_c, 11, 58, 127
2, 143512, Note_off_c, 11, 58, 127
2, 143515, Note_on_c, 3, 63, 127
2, 143673, Note_off_c, 7, 67, 127
2, 143673, Note_off_c, 11, 70, 127
2, 143674, Note_off_c, 3, 63, 127
2, 143677, Note_on_c, 11, 70, 127
2, 143677, Note_on_c, 7, 67, 127
2, 143677, Note_on_c, 11, 58, 127
2, 143836, Note_off_c, 11, 58, 127
2, 143839, Note_on_c, 7, 55, 127
2, 143997, Note_off_c, 11, 70, 127
2, 143998, Note_off_c, 7, 55, 127
2, 144000, Note_on_c, 7, 79, 127
2, 144000, Note_on_c, 3, 51, 127
2, 144159, Note_off_c, 3, 51, 127
2, 144163, Note_on_c, 7, 55, 127
2, 144320, Note_off_c, 7, 79, 127
2, 144322, Note_off_c, 7, 55, 127
2, 144325, Note_on_c, 8, 68, 127
2, 144325, Note_on_c, 0, 48, 127
2, 144484, Note_off_c, 8, 68, 127
2, 144487, Note_on_c, 11, 70, 127
2, 144645, Note_off_c, 0, 48, 127
2, 144646, Note_off_c, 11, 70, 127
2, 144648, Note_on_c, 0, 72, 127
2, 144648, Note_on_c, 3, 51, 127
2, 144807, Note_off_c, 0, 72, 127
2, 144809, Note_on_c, 11, 70, 127
2, 144968, Note_off_c, 11, 70, 127
2, 144968, Note_off_c, 3, 51, 127
2, 144972, Note_on_c, 8, 68, 127
2, 144972, Note_on_c, 0, 48, 127
2, 145131, Note_off_c, 8, 68, 127
2, 145133, Note_on_c, 11, 70, 127
2, 145292, Note_off_c, 11, 70, 127
2, 145292, Note_off_c, 0, 48, 127
2, 145296, Note_on_c, 0, 72, 127
2, 145296, Note_on_c, 8, 44, 127
2, 145455, Note_off_c, 0, 72, 127
2, 145458, Note_on_c, 11, 70, 127
2, 145616, Note_off_c, 8, 44, 127
2, 145616, Note_off_c, 7, 67, 127
2, 145617, Note_off_c, 11, 70, 127
2, 145619, Note_on_c, 8, 68, 127
2, 145619, Note_on_c, 5, 65, 127
2, 145619, Note_on_c, 1, 49, 127
2, 145778, Note_off_c, 1, 49, 127
2, 145782, Note_on_c, 3, 51, 127
2, 145939, Note_off_c, 5, 65, 127
2, 145939, Note_off_c, 8, 68, 127
2, 145941, Note_off_c, 3, 51, 127
2, 145943, Note_on_c, 8, 68, 127
2, 145943, Note_on_c, 5, 65, 127
2, 145943, Note_on_c, 5, 53, 127
2, 146102, Note_off_c, 5, 53, 127
2, 146105, Note_on_c, 3, 51, 127
2, 146263, Note_off_c, 5, 65, 127
2, 146263, Note_off_c, 8, 68, 127
2, 146264, Note_off_c, 3, 51, 127
2, 146268, Note_on_c, 8, 68, 127
2, 146268, Note_on_c, 5, 65, 127
2, 146268, Note_on_c, 1, 49, 127
2, 146427, Note_off_c, 1, 49, 127
2, 146429, Note_on_c, 0, 48, 127
2, 146588, Note_off_c, 0, 48, 127
2, 146588, Note_off_c, 8, 68, 127
2, 146592, Note_on_c, 1, 73, 127
2, 146592, Note_on_c, 11, 46, 127
2, 146751, Note_off_c, 11, 46, 127
2, 146752, Note_on_c, 8, 44, 127
2, 146911, Note_off_c, 8, 44, 127
2, 146912, Note_off_c, 5, 65, 127
2, 146914, Note_on_c, 3, 63, 127
2, 146914, Note_on_c, 7, 43, 127
2, 147074, Note_off_c, 1, 73, 127
2, 147076, Note_on_c, 5, 65, 127
2, 147234, Note_off_c, 7, 43, 127
2, 147235, Note_off_c, 5, 65, 127
2, 147238, Note_on_c, 7, 67, 127
2, 147238, Note_on_c, 11, 46, 127
2, 147397, Note_off_c, 7, 67, 127
2, 147400, Note_on_c, 8, 68, 127
2, 147558, Note_off_c, 11, 46, 127
2, 147559, Note_off_c, 8, 68, 127
2, 147562, Note_on_c, 11, 70, 127
2, 147562, Note_on_c, 7, 43, 127
2, 147721, Note_off_c, 11, 70, 127
2, 147724, Note_on_c, 0, 72, 127
2, 147882, Note_off_c, 7, 43, 127
2, 147883, Note_off_c, 0, 72, 127
2, 147886, Note_on_c, 1, 73, 127
2, 147886, Note_on_c, 3, 39, 127
2, 148045, Note_off_c, 1, 73, 127
2, 148048, Note_on_c, 11, 70, 127
2, 148206, Note_off_c, 3, 39, 127
2, 148206, Note_off_c, 3, 63, 127
2, 148207, Note_off_c, 11, 70, 127
2, 148209, Note_on_c, 0, 72, 127
2, 148209, Note_on_c, 8, 44, 127
2, 148368, Note_off_c, 0, 72, 127
2, 148372, Note_on_c, 1, 73, 127
2, 148529, Note_off_c, 8, 44, 127
2, 148531, Note_off_c, 1, 73, 127
2, 148534, Note_on_c, 11, 70, 127
2, 148534, Note_on_c, 7, 43, 127
2, 148693, Note_off_c, 11, 70, 127
2, 148696, Note_on_c, 0, 72, 127
2, 148854, Note_off_c, 7, 43, 127
2, 148855, Note_off_c, 0, 72, 127
2, 148857, Note_on_c, 1, 73, 127
2, 148857, Note_on_c, 5, 41, 127
2, 149016, Note_off_c, 1, 73, 127
2, 149018, Note_on_c, 0, 72, 127
2, 149177, Note_off_c, 0, 72, 127
2, 149177, Note_off_c, 5, 41, 127
2, 149181, Note_on_c, 11, 70, 127
2, 149181, Note_on_c, 2, 50, 127
2, 149340, Note_off_c, 11, 70, 127
2, 149343, Note_on_c, 8, 68, 127
2, 149501, Note_off_c, 2, 50, 127
2, 149502, Note_off_c, 8, 68, 127
2, 149504, Note_on_c, 7, 67, 127
2, 149504, Note_on_c, 3, 51, 127
2, 149663, Note_off_c, 7, 67, 127
2, 149667, Note_on_c, 8, 68, 127
2, 149824, Note_off_c, 3, 51, 127
2, 149826, Note_off_c, 8, 68, 127
2, 149828, Note_on_c, 11, 70, 127
2, 149828, Note_on_c, 3, 39, 127
2, 149987, Note_off_c, 11, 70, 127
2, 149991, Note_on_c, 7, 67, 127
2, 150150, Note_off_c, 7, 67, 127
2, 150152, Note_on_c, 3, 63, 127
2, 150232, Note_off_c, 3, 39, 127
2, 150316, Note_on_c, 1, 61, 127
2, 150474, Note_off_c, 3, 63, 127
2, 150475, Note_off_c, 1, 61, 127
2, 150478, Note_on_c, 3, 75, 127
2, 150478, Note_on_c, 0, 60, 127
2, 150637, Note_off_c, 0, 60, 127
2, 150639, Note_on_c, 11, 58, 127
2, 150798, Note_off_c, 11, 58, 127
2, 150798, Note_off_c, 3, 75, 127
2, 150801, Note_on_c, 8, 68, 127
2, 150801, Note_on_c, 0, 60, 127
2, 150960, Note_off_c, 0, 60, 127
2, 150964, Note_on_c, 3, 63, 127
2, 151121, Note_off_c, 8, 68, 127
2, 151123, Note_off_c, 3, 63, 127
2, 151125, Note_on_c, 8, 68, 127
2, 151125, Note_on_c, 0, 60, 127
2, 151284, Note_off_c, 0, 60, 127
2, 151288, Note_on_c, 8, 56, 127
2, 151445, Note_off_c, 8, 68, 127
2, 151447, Note_off_c, 8, 56, 127
2, 151449, Note_on_c, 8, 68, 127
2, 151449, Note_on_c, 5, 53, 127
2, 151608, Note_off_c, 5, 53, 127
2, 151611, Note_on_c, 3, 63, 127
2, 151769, Note_off_c, 8, 68, 127
2, 151770, Note_off_c, 3, 63, 127
2, 151773, Note_on_c, 5, 77, 127
2, 151773, Note_on_c, 1, 61, 127
2, 151932, Note_off_c, 1, 61, 127
2, 151932, Note_off_c, 5, 77, 127
2, 151935, Note_on_c, 1, 73, 127
2, 151935, Note_on_c, 0, 60, 127
2, 152094, Note_off_c, 0, 60, 127
2, 152094, Note_off_c, 1, 73, 127
2, 152098, Note_on_c, 7, 67, 127
2, 152098, Note_on_c, 11, 58, 127
2, 152257, Note_off_c, 11, 58, 127
2, 152259, Note_on_c, 1, 61, 127
2, 152418, Note_off_c, 1, 61, 127
2, 152418, Note_off_c, 7, 67, 127
2, 152420, Note_on_c, 7, 67, 127
2, 152420, Note_on_c, 11, 58, 127
2, 152579, Note_off_c, 11, 58, 127
2, 152582, Note_on_c, 7, 55, 127
2, 152740, Note_off_c, 7, 67, 127
2, 152741, Note_off_c, 7, 55, 127
2, 152744, Note_on_c, 7, 67, 127
2, 152744, Note_on_c, 3, 51, 127
2, 152903, Note_off_c, 3, 51, 127
2, 152903, Note_off_c, 7, 67, 127
2, 152905, Note_on_c, 8, 68, 127
2, 152905, Note_on_c, 0, 60, 127
2, 153064, Note_off_c, 0, 60, 127
2, 153064, Note_off_c, 8, 68, 127
2, 153068, Note_on_c, 11, 70, 127
2, 153068, Note_on_c, 11, 58, 127
2, 153227, Note_off_c, 11, 58, 127
2, 153227, Note_off_c, 11, 70, 127
2, 153230, Note_on_c, 0, 72, 127
2, 153230, Note_on_c, 8, 56, 127
2, 153389, Note_off_c, 8, 56, 127
2, 153389, Note_off_c, 0, 72, 127
2, 153392, Note_on_c, 1, 73, 127
2, 153392, Note_on_c, 7, 55, 127
2, 153551, Note_off_c, 7, 55, 127
2, 153551, Note_off_c, 1, 73, 127
2, 153554, Note_on_c, 0, 72, 127
2, 153554, Note_on_c, 8, 56, 127
2, 153713, Note_off_c, 8, 56, 127
2, 153713, Note_off_c, 0, 72, 127
2, 153715, Note_on_c, 11, 70, 127
2, 153715, Note_on_c, 7, 55, 127
2, 153874, Note_off_c, 7, 55, 127
2, 153874, Note_off_c, 11, 70, 127
2, 153878, Note_on_c, 0, 72, 127
2, 153878, Note_on_c, 5, 53, 127
2, 154037, Note_off_c, 5, 53, 127
2, 154037, Note_off_c, 0, 72, 127
2, 154040, Note_on_c, 1, 73, 127
2, 154040, Note_on_c, 3, 51, 127
2, 154199, Note_off_c, 3, 51, 127
2, 154199, Note_off_c, 1, 73, 127
2, 154201, Note_on_c, 5, 77, 127
2, 154201, Note_on_c, 1, 49, 127
2, 154360, Note_off_c, 1, 49, 127
2, 154360, Note_off_c, 5, 77, 127
2, 154364, Note_on_c, 3, 75, 127
2, 154364, Note_on_c, 0, 48, 127
2, 154523, Note_off_c, 0, 48, 127
2, 154523, Note_off_c, 3, 75, 127
2, 154524, Note_on_c, 1, 73, 127
2, 154524, Note_on_c, 11, 46, 127
2, 154683, Note_off_c, 11, 46, 127
2, 154683, Note_off_c, 1, 73, 127
2, 154687, Note_on_c, 0, 72, 127
2, 154687, Note_on_c, 8, 44, 127
2, 154846, Note_off_c, 0, 72, 127
2, 154848, Note_on_c, 11, 70, 127
2, 155007, Note_off_c, 11, 70, 127
2, 155007, Note_off_c, 8, 44, 127
2, 155010, Note_on_c, 8, 68, 127
2, 155010, Note_on_c, 8, 56, 127
2, 155169, Note_off_c, 8, 68, 127
2, 155173, Note_on_c, 7, 67, 127
2, 155330, Note_off_c, 8, 56, 127
2, 155332, Note_off_c, 7, 67, 127
2, 155334, Note_on_c, 8, 68, 127
2, 155334, Note_on_c, 7, 55, 127
2, 155493, Note_off_c, 8, 68, 127
2, 155497, Note_on_c, 11, 70, 127
2, 155654, Note_off_c, 7, 55, 127
2, 155656, Note_off_c, 11, 70, 127
2, 155658, Note_on_c, 0, 72, 127
2, 155658, Note_on_c, 8, 68, 127
2, 155658, Note_on_c, 5, 53, 127
2, 155817, Note_off_c, 0, 72, 127
2, 155820, Note_on_c, 2, 74, 127
2, 155978, Note_off_c, 5, 53, 127
2, 155978, Note_off_c, 8, 68, 127
2, 155979, Note_off_c, 2, 74, 127
2, 155982, Note_on_c, 3, 75, 127
2, 155982, Note_on_c, 3, 63, 127
2, 155982, Note_on_c, 0, 60, 127
2, 156141, Note_off_c, 0, 60, 127
2, 156144, Note_on_c, 11, 58, 127
2, 156302, Note_off_c, 3, 63, 127
2, 156303, Note_off_c, 11, 58, 127
2, 156306, Note_on_c, 3, 63, 127
2, 156306, Note_on_c, 0, 60, 127
2, 156465, Note_off_c, 0, 60, 127
2, 156468, Note_on_c, 1, 61, 127
2, 156626, Note_off_c, 3, 63, 127
2, 156627, Note_off_c, 1, 61, 127
2, 156629, Note_on_c, 3, 63, 127
2, 156629, Note_on_c, 0, 60, 127
2, 156788, Note_off_c, 0, 60, 127
2, 156791, Note_on_c, 11, 58, 127
2, 156949, Note_off_c, 3, 63, 127
2, 156950, Note_off_c, 11, 58, 127
2, 156950, Note_off_c, 3, 75, 127
2, 156953, Note_on_c, 3, 75, 127
2, 156953, Note_on_c, 0, 72, 127
2, 156953, Note_on_c, 8, 56, 127
2, 157112, Note_off_c, 8, 56, 127
2, 157112, Note_off_c, 0, 72, 127
2, 157115, Note_on_c, 8, 68, 127
2, 157115, Note_on_c, 7, 55, 127
2, 157273, Note_off_c, 3, 75, 127
2, 157274, Note_off_c, 7, 55, 127
2, 157274, Note_off_c, 8, 68, 127
2, 157277, Note_on_c, 8, 80, 127
2, 157277, Note_on_c, 2, 62, 127
2, 157277, Note_on_c, 5, 53, 127
2, 157436, Note_off_c, 8, 80, 127
2, 157439, Note_on_c, 7, 79, 127
2, 157597, Note_off_c, 2, 62, 127
2, 157598, Note_off_c, 7, 79, 127
2, 157600, Note_on_c, 8, 80, 127
2, 157600, Note_on_c, 2, 62, 127
2, 157759, Note_off_c, 8, 80, 127
2, 157763, Note_on_c, 11, 82, 127
2, 157920, Note_off_c, 2, 62, 127
2, 157921, Note_off_c, 5, 53, 127
2, 157922, Note_off_c, 11, 82, 127
2, 157924, Note_on_c, 8, 80, 127
2, 157924, Note_on_c, 2, 62, 127
2, 157924, Note_on_c, 11, 58, 127
2, 158083, Note_off_c, 2, 62, 127
2, 158083, Note_off_c, 8, 80, 127
2, 158087, Note_on_c, 7, 79, 127
2, 158087, Note_on_c, 3, 63, 127
2, 158246, Note_off_c, 3, 63, 127
2, 158246, Note_off_c, 7, 79, 127
2, 158249, Note_on_c, 5, 77, 127
2, 158249, Note_on_c, 5, 65, 127
2, 158408, Note_off_c, 5, 65, 127
2, 158408, Note_off_c, 5, 77, 127
2, 158410, Note_on_c, 3, 75, 127
2, 158410, Note_on_c, 7, 67, 127
2, 158569, Note_off_c, 7, 67, 127
2, 158569, Note_off_c, 3, 75, 127
2, 158572, Note_on_c, 2, 74, 127
2, 158572, Note_on_c, 8, 68, 127
2, 158731, Note_off_c, 8, 68, 127
2, 158733, Note_on_c, 7, 67, 127
2, 158892, Note_off_c, 7, 67, 127
2, 158892, Note_off_c, 11, 58, 127
2, 158896, Note_on_c, 5, 65, 127
2, 158896, Note_on_c, 8, 56, 127
2, 159055, Note_off_c, 8, 56, 127
2, 159055, Note_off_c, 5, 65, 127
2, 159058, Note_on_c, 7, 67, 127
2, 159058, Note_on_c, 7, 55, 127
2, 159217, Note_off_c, 7, 55, 127
2, 159217, Note_off_c, 7, 67, 127
2, 159219, Note_on_c, 8, 68, 127
2, 159219, Note_on_c, 5, 53, 127
2, 159378, Note_off_c, 5, 53, 127
2, 159378, Note_off_c, 8, 68, 127
2, 159382, Note_on_c, 0, 72, 127
2, 159382, Note_on_c, 3, 51, 127
2, 159541, Note_off_c, 3, 51, 127
2, 159541, Note_off_c, 0, 72, 127
2, 159543, Note_on_c, 11, 70, 127
2, 159543, Note_on_c, 2, 50, 127
2, 159702, Note_off_c, 2, 50, 127
2, 159702, Note_off_c, 11, 70, 127
2, 159705, Note_on_c, 8, 68, 127
2, 159705, Note_on_c, 0, 48, 127
2, 159864, Note_off_c, 0, 48, 127
2, 159864, Note_off_c, 8, 68, 127
2, 159867, Note_on_c, 7, 67, 127
2, 159867, Note_on_c, 12, 47, 127
2, 160026, Note_off_c, 2, 74, 127
2, 160029, Note_on_c, 0, 72, 127
2, 160187, Note_off_c, 12, 47, 127
2, 160188, Note_off_c, 0, 72, 127
2, 160192, Note_on_c, 12, 71, 127
2, 160192, Note_on_c, 2, 50, 127
2, 160351, Note_off_c, 12, 71, 127
2, 160353, Note_on_c, 0, 72, 127
2, 160512, Note_off_c, 0, 72, 127
2, 160512, Note_off_c, 2, 50, 127
2, 160514, Note_on_c, 2, 74, 127
2, 160514, Note_on_c, 12, 47, 127
2, 160673, Note_off_c, 2, 74, 127
2, 160676, Note_on_c, 5, 77, 127
2, 160834, Note_off_c, 12, 47, 127
2, 160835, Note_off_c, 5, 77, 127
2, 160838, Note_on_c, 3, 75, 127
2, 160838, Note_on_c, 7, 43, 127
2, 160997, Note_off_c, 3, 75, 127
2, 161000, Note_on_c, 2, 74, 127
2, 161158, Note_off_c, 7, 43, 127
2, 161159, Note_off_c, 2, 74, 127
2, 161162, Note_on_c, 3, 75, 127
2, 161162, Note_on_c, 0, 48, 127
2, 161321, Note_off_c, 0, 48, 127
2, 161324, Note_on_c, 3, 51, 127
2, 161482, Note_off_c, 3, 75, 127
2, 161482, Note_off_c, 7, 67, 127
2, 161483, Note_off_c, 3, 51, 127
2, 161486, Note_on_c, 3, 75, 127
2, 161486, Note_on_c, 7, 67, 127
2, 161486, Note_on_c, 7, 55, 127
2, 161645, Note_off_c, 7, 55, 127
2, 161648, Note_on_c, 0, 60, 127
2, 161806, Note_off_c, 7, 67, 127
2, 161806, Note_off_c, 3, 75, 127
2, 161807, Note_off_c, 0, 60, 127
2, 161809, Note_on_c, 3, 75, 127
2, 161809, Note_on_c, 7, 67, 127
2, 161809, Note_on_c, 7, 55, 127
2, 161968, Note_off_c, 7, 55, 127
2, 161972, Note_on_c, 3, 51, 127
2, 162129, Note_off_c, 3, 75, 127
2, 162131, Note_off_c, 3, 51, 127
2, 162134, Note_on_c, 3, 75, 127
2, 162134, Note_on_c, 0, 48, 127
2, 162293, Note_off_c, 0, 48, 127
2, 162296, Note_on_c, 3, 51, 127
2, 162453, Note_off_c, 7, 67, 127
2, 162455, Note_off_c, 3, 51, 127
2, 162458, Note_on_c, 5, 65, 127
2, 162458, Note_on_c, 8, 44, 127
2, 162617, Note_off_c, 5, 65, 127
2, 162618, Note_on_c, 7, 67, 127
2, 162777, Note_off_c, 7, 67, 127
2, 162778, Note_off_c, 8, 44, 127
2, 162781, Note_on_c, 8, 68, 127
2, 162781, Note_on_c, 0, 48, 127
2, 162940, Note_off_c, 8, 68, 127
2, 162942, Note_on_c, 7, 67, 127
2, 163101, Note_off_c, 7, 67, 127
2, 163101, Note_off_c, 0, 48, 127
2, 163104, Note_on_c, 5, 65, 127
2, 163104, Note_on_c, 8, 44, 127
2, 163263, Note_off_c, 5, 65, 127
2, 163267, Note_on_c, 7, 67, 127
2, 163424, Note_off_c, 8, 44, 127
2, 163426, Note_off_c, 7, 67, 127
2, 163428, Note_on_c, 8, 68, 127
2, 163428, Note_on_c, 5, 41, 127
2, 163587, Note_off_c, 8, 68, 127
2, 163591, Note_on_c, 7, 67, 127
2, 163748, Note_off_c, 5, 41, 127
2, 163749, Note_off_c, 3, 75, 127
2, 163750, Note_off_c, 7, 67, 127
2, 163752, Note_on_c, 2, 74, 127
2, 163752, Note_on_c, 5, 65, 127
2, 163752, Note_on_c, 11, 46, 127
2, 163911, Note_off_c, 11, 46, 127
2, 163914, Note_on_c, 2, 50, 127
2, 164072, Note_off_c, 5, 65, 127
2, 164072, Note_off_c, 2, 74, 127
2, 164073, Note_off_c, 2, 50, 127
2, 164076, Note_on_c, 2, 74, 127
2, 164076, Note_on_c, 5, 65, 127
2, 164076, Note_on_c, 5, 53, 127
2, 164235, Note_off_c, 5, 53, 127
2, 164238, Note_on_c, 11, 58, 127
2, 164396, Note_off_c, 5, 65, 127
2, 164396, Note_off_c, 2, 74, 127
2, 164397, Note_off_c, 11, 58, 127
2, 164400, Note_on_c, 2, 74, 127
2, 164400, Note_on_c, 5, 65, 127
2, 164400, Note_on_c, 5, 53, 127
2, 164559, Note_off_c, 5, 53, 127
2, 164562, Note_on_c, 2, 50, 127
2, 164720, Note_off_c, 2, 74, 127
2, 164721, Note_off_c, 2, 50, 127
2, 164723, Note_on_c, 2, 74, 127
2, 164723, Note_on_c, 11, 46, 127
2, 164882, Note_off_c, 11, 46, 127
2, 164885, Note_on_c, 2, 50, 127
2, 165044, Note_off_c, 2, 50, 127
2, 165044, Note_off_c, 5, 65, 127
2, 165047, Note_on_c, 3, 63, 127
2, 165047, Note_on_c, 7, 43, 127
2, 165206, Note_off_c, 3, 63, 127
2, 165209, Note_on_c, 5, 65, 127
2, 165367, Note_off_c, 7, 43, 127
2, 165368, Note_off_c, 5, 65, 127
2, 165371, Note_on_c, 7, 67, 127
2, 165371, Note_on_c, 11, 46, 127
2, 165530, Note_off_c, 7, 67, 127
2, 165533, Note_on_c, 5, 65, 127
2, 165691, Note_off_c, 11, 46, 127
2, 165692, Note_off_c, 5, 65, 127
2, 165695, Note_on_c, 3, 63, 127
2, 165695, Note_on_c, 7, 43, 127
2, 165854, Note_off_c, 3, 63, 127
2, 165857, Note_on_c, 5, 65, 127
2, 166015, Note_off_c, 7, 43, 127
2, 166016, Note_off_c, 5, 65, 127
2, 166018, Note_on_c, 7, 67, 127
2, 166018, Note_on_c, 3, 39, 127
2, 166177, Note_off_c, 7, 67, 127
2, 166181, Note_on_c, 5, 65, 127
2, 166338, Note_off_c, 3, 39, 127
2, 166338, Note_off_c, 2, 74, 127
2, 166340, Note_off_c, 5, 65, 127
2, 166343, Note_on_c, 0, 72, 127
2, 166343, Note_on_c, 3, 63, 127
2, 166343, Note_on_c, 8, 44, 127
2, 166502, Note_off_c, 8, 44, 127
2, 166504, Note_on_c, 11, 46, 127
2, 166663, Note_off_c, 11, 46, 127
2, 166663, Note_off_c, 3, 63, 127
2, 166663, Note_off_c, 0, 72, 127
2, 166666, Note_on_c, 0, 72, 127
2, 166666, Note_on_c, 3, 63, 127
2, 166666, Note_on_c, 0, 48, 127
2, 166825, Note_off_c, 0, 48, 127
2, 166827, Note_on_c, 11, 46, 127
2, 166986, Note_off_c, 11, 46, 127
2, 166986, Note_off_c, 3, 63, 127
2, 166986, Note_off_c, 0, 72, 127
2, 166990, Note_on_c, 0, 72, 127
2, 166990, Note_on_c, 3, 63, 127
2, 166990, Note_on_c, 8, 44, 127
2, 167149, Note_off_c, 8, 44, 127
2, 167152, Note_on_c, 7, 43, 127
2, 167310, Note_off_c, 3, 63, 127
2, 167310, Note_off_c, 0, 72, 127
2, 167311, Note_off_c, 7, 43, 127
2, 167313, Note_on_c, 5, 77, 127
2, 167313, Note_on_c, 8, 68, 127
2, 167313, Note_on_c, 5, 41, 127
2, 167472, Note_off_c, 5, 41, 127
2, 167476, Note_on_c, 3, 39, 127
2, 167633, Note_off_c, 5, 77, 127
2, 167635, Note_off_c, 3, 39, 127
2, 167637, Note_on_c, 12, 71, 127
2, 167637, Note_on_c, 2, 38, 127
2, 167796, Note_off_c, 12, 71, 127
2, 167800, Note_on_c, 0, 72, 127
2, 167957, Note_off_c, 2, 38, 127
2, 167959, Note_off_c, 0, 72, 127
2, 167961, Note_on_c, 2, 74, 127
2, 167961, Note_on_c, 0, 48, 127
2, 168118, Note_off_c, 8, 68, 127
2, 168123, Note_on_c, 8, 68, 127
2, 168281, Note_off_c, 0, 48, 127
2, 168282, Note_off_c, 8, 68, 127
2, 168286, Note_on_c, 7, 67, 127
2, 168286, Note_on_c, 12, 47, 127
2, 168445, Note_off_c, 7, 67, 127
2, 168447, Note_on_c, 5, 65, 127
2, 168606, Note_off_c, 5, 65, 127
2, 168606, Note_off_c, 12, 47, 127
2, 168608, Note_on_c, 3, 63, 127
2, 168608, Note_on_c, 7, 43, 127
2, 168767, Note_off_c, 3, 63, 127
2, 168770, Note_on_c, 2, 62, 127
2, 168928, Note_off_c, 7, 43, 127
2, 168929, Note_off_c, 2, 62, 127
2, 168932, Note_on_c, 3, 63, 127
2, 168932, Note_on_c, 0, 48, 127
2, 169090, Note_off_c, 2, 74, 127
2, 169094, Note_on_c, 7, 67, 127
2, 169252, Note_off_c, 0, 48, 127
2, 169253, Note_off_c, 7, 67, 127
2, 169256, Note_on_c, 0, 72, 127
2, 169256, Note_on_c, 8, 44, 127
2, 169414, Note_off_c, 3, 63, 127
2, 169418, Note_on_c, 3, 63, 127
2, 169576, Note_off_c, 8, 44, 127
2, 169577, Note_off_c, 3, 63, 127
2, 169580, Note_on_c, 2, 62, 127
2, 169580, Note_on_c, 5, 41, 127
2, 169738, Note_off_c, 0, 72, 127
2, 169742, Note_on_c, 0, 72, 127
2, 169900, Note_off_c, 5, 41, 127
2, 169900, Note_off_c, 2, 62, 127
2, 169903, Note_on_c, 5, 65, 127
2, 169903, Note_on_c, 7, 43, 127
2, 170062, Note_off_c, 0, 72, 127
2, 170066, Note_on_c, 12, 71, 127
2, 170223, Note_off_c, 7, 43, 127
2, 170225, Note_off_c, 12, 71, 127
2, 170228, Note_on_c, 0, 72, 127
2, 170228, Note_on_c, 0, 36, 127
2, 170385, Note_off_c, 5, 65, 127
2, 170390, Note_on_c, 5, 65, 127
2, 170549, Note_off_c, 5, 65, 127
2, 170552, Note_on_c, 4, 64, 127
2, 170711, Note_off_c, 4, 64, 127
2, 170712, Note_on_c, 2, 62, 127
2, 170871, Note_off_c, 2, 62, 127
2, 170875, Note_on_c, 4, 64, 127
2, 171034, Note_off_c, 4, 64, 127
2, 171036, Note_on_c, 7, 67, 127
2, 171196, Note_off_c, 0, 36, 127
2, 171196, Note_off_c, 0, 72, 127
2, 171199, Note_on_c, 0, 72, 127
2, 171199, Note_on_c, 0, 60, 127
2, 171358, Note_off_c, 0, 72, 127
2, 171361, Note_on_c, 11, 70, 127
2, 171519, Note_off_c, 0, 60, 127
2, 171520, Note_off_c, 11, 70, 127
2, 171522, Note_on_c, 8, 68, 127
2, 171522, Note_on_c, 5, 53, 127
2, 171680, Note_off_c, 7, 67, 127
2, 171685, Note_on_c, 7, 67, 127
2, 171842, Note_off_c, 5, 53, 127
2, 171844, Note_off_c, 7, 67, 127
2, 171846, Note_on_c, 5, 65, 127
2, 171846, Note_on_c, 5, 53, 127
2, 172005, Note_off_c, 5, 65, 127
2, 172008, Note_on_c, 4, 64, 127
2, 172166, Note_off_c, 5, 53, 127
2, 172167, Note_off_c, 4, 64, 127
2, 172170, Note_on_c, 5, 65, 127
2, 172170, Note_on_c, 5, 53, 127
2, 172327, Note_off_c, 8, 68, 127
2, 172332, Note_on_c, 8, 68, 127
2, 172490, Note_off_c, 5, 53, 127
2, 172491, Note_off_c, 8, 68, 127
2, 172495, Note_on_c, 11, 70, 127
2, 172495, Note_on_c, 1, 61, 127
2, 172654, Note_off_c, 1, 61, 127
2, 172654, Note_off_c, 11, 70, 127
2, 172656, Note_on_c, 1, 73, 127
2, 172656, Note_on_c, 11, 58, 127
2, 172814, Note_off_c, 5, 65, 127
2, 172815, Note_off_c, 11, 58, 127
2, 172817, Note_on_c, 7, 67, 127
2, 172817, Note_on_c, 4, 52, 127
2, 172976, Note_off_c, 1, 73, 127
2, 172979, Note_on_c, 1, 73, 127
2, 173137, Note_off_c, 4, 52, 127
2, 173138, Note_off_c, 1, 73, 127
2, 173141, Note_on_c, 0, 72, 127
2, 173141, Note_on_c, 4, 52, 127
2, 173300, Note_off_c, 0, 72, 127
2, 173303, Note_on_c, 11, 70, 127
2, 173461, Note_off_c, 4, 52, 127
2, 173462, Note_off_c, 11, 70, 127
2, 173465, Note_on_c, 7, 79, 127
2, 173465, Note_on_c, 4, 52, 127
2, 173624, Note_off_c, 4, 52, 127
2, 173627, Note_on_c, 5, 53, 127
2, 173785, Note_off_c, 7, 67, 127
2, 173786, Note_off_c, 5, 53, 127
2, 173789, Note_on_c, 4, 76, 127
2, 173789, Note_on_c, 7, 55, 127
2, 173948, Note_off_c, 7, 55, 127
2, 173951, Note_on_c, 8, 56, 127
2, 174109, Note_off_c, 4, 76, 127
2, 174110, Note_off_c, 8, 56, 127
2, 174112, Note_on_c, 1, 73, 127
2, 174112, Note_on_c, 11, 58, 127
2, 174271, Note_off_c, 11, 58, 127
2, 174275, Note_on_c, 8, 56, 127
2, 174432, Note_off_c, 1, 73, 127
2, 174434, Note_off_c, 8, 56, 127
2, 174437, Note_on_c, 11, 70, 127
2, 174437, Note_on_c, 7, 55, 127
2, 174596, Note_off_c, 7, 55, 127
2, 174599, Note_on_c, 8, 56, 127
2, 174757, Note_off_c, 11, 70, 127
2, 174758, Note_off_c, 8, 56, 127
2, 174760, Note_on_c, 7, 67, 127
2, 174760, Note_on_c, 11, 58, 127
2, 174919, Note_off_c, 11, 58, 127
2, 174921, Note_on_c, 1, 61, 127
2, 175080, Note_off_c, 1, 61, 127
2, 175080, Note_off_c, 7, 79, 127
2, 175084, Note_on_c, 4, 76, 127
2, 175084, Note_on_c, 0, 60, 127
2, 175243, Note_off_c, 0, 60, 127
2, 175246, Note_on_c, 11, 58, 127
2, 175404, Note_off_c, 4, 76, 127
2, 175405, Note_off_c, 11, 58, 127
2, 175407, Note_on_c, 5, 77, 127
2, 175407, Note_on_c, 8, 56, 127
2, 175565, Note_off_c, 7, 67, 127
2, 175566, Note_off_c, 8, 56, 127
2, 175570, Note_on_c, 11, 70, 127
2, 175570, Note_on_c, 7, 55, 127
2, 175729, Note_off_c, 7, 55, 127
2, 175729, Note_off_c, 11, 70, 127
2, 175731, Note_on_c, 8, 68, 127
2, 175731, Note_on_c, 5, 53, 127
2, 175890, Note_off_c, 5, 53, 127
2, 175890, Note_off_c, 8, 68, 127
2, 175894, Note_on_c, 7, 67, 127
2, 175894, Note_on_c, 7, 55, 127
2, 176047, Note_off_c, 5, 77, 127
2, 176054, Note_off_c, 7, 55, 127
2, 176054, Note_off_c, 7, 67, 127
2, 176058, Note_on_c, 5, 65, 127
2, 176058, Note_on_c, 8, 56, 127
2, 176217, Note_off_c, 8, 56, 127
2, 176217, Note_off_c, 5, 65, 127
2, 176219, Note_on_c, 7, 67, 127
2, 176219, Note_on_c, 11, 58, 127
2, 176378, Note_off_c, 11, 58, 127
2, 176378, Note_off_c, 7, 67, 127
2, 176381, Note_on_c, 8, 68, 127
2, 176381, Note_on_c, 0, 60, 127
2, 176540, Note_off_c, 0, 60, 127
2, 176540, Note_off_c, 8, 68, 127
2, 176542, Note_on_c, 11, 70, 127
2, 176542, Note_on_c, 1, 61, 127
2, 176701, Note_off_c, 1, 61, 127
2, 176701, Note_off_c, 11, 70, 127
2, 176704, Note_on_c, 0, 72, 127
2, 176704, Note_on_c, 3, 63, 127
2, 176863, Note_off_c, 3, 63, 127
2, 176866, Note_on_c, 1, 61, 127
2, 177024, Note_off_c, 0, 72, 127
2, 177025, Note_off_c, 1, 61, 127
2, 177028, Note_on_c, 3, 75, 127
2, 177028, Note_on_c, 0, 60, 127
2, 177187, Note_off_c, 0, 60, 127
2, 177191, Note_on_c, 1, 61, 127
2, 177348, Note_off_c, 3, 75, 127
2, 177350, Note_off_c, 1, 61, 127
2, 177352, Note_on_c, 6, 78, 127
2, 177352, Note_on_c, 3, 63, 127
2, 177511, Note_off_c, 3, 63, 127
2, 177514, Note_on_c, 6, 66, 127
2, 177673, Note_off_c, 6, 66, 127
2, 177676, Note_on_c, 10, 81, 127
2, 177676, Note_on_c, 5, 65, 127
2, 177835, Note_off_c, 5, 65, 127
2, 177838, Note_on_c, 3, 63, 127
2, 177996, Note_off_c, 10, 81, 127
2, 177997, Note_off_c, 3, 63, 127
2, 178000, Note_on_c, 11, 82, 127
2, 178000, Note_on_c, 1, 61, 127
2, 178159, Note_off_c, 1, 61, 127
2, 178162, Note_on_c, 0, 60, 127
2, 178320, Note_off_c, 11, 82, 127
2, 178320, Note_off_c, 6, 78, 127
2, 178321, Note_off_c, 0, 60, 127
2, 178324, Note_on_c, 3, 75, 127
2, 178324, Note_on_c, 10, 69, 127
2, 178324, Note_on_c, 11, 58, 127
2, 178483, Note_off_c, 11, 58, 127
2, 178485, Note_on_c, 0, 60, 127
2, 178644, Note_off_c, 0, 60, 127
2, 178644, Note_off_c, 10, 69, 127
2, 178644, Note_off_c, 3, 75, 127
2, 178647, Note_on_c, 1, 73, 127
2, 178647, Note_on_c, 11, 70, 127
2, 178647, Note_on_c, 1, 61, 127
2, 178806, Note_off_c, 1, 61, 127
2, 178808, Note_on_c, 3, 63, 127
2, 178967, Note_off_c, 3, 63, 127
2, 178967, Note_off_c, 11, 70, 127
2, 178967, Note_off_c, 1, 73, 127
2, 178971, Note_on_c, 11, 82, 127
2, 178971, Note_on_c, 1, 73, 127
2, 178971, Note_on_c, 5, 65, 127
2, 179130, Note_off_c, 5, 65, 127
2, 179133, Note_on_c, 7, 67, 127
2, 179291, Note_off_c, 1, 73, 127
2, 179292, Note_off_c, 7, 67, 127
2, 179295, Note_on_c, 0, 72, 127
2, 179295, Note_on_c, 8, 68, 127
2, 179454, Note_off_c, 8, 68, 127
2, 179457, Note_on_c, 11, 70, 127
2, 179615, Note_off_c, 11, 82, 127
2, 179616, Note_off_c, 11, 70, 127
2, 179618, Note_on_c, 0, 84, 127
2, 179618, Note_on_c, 8, 68, 127
2, 179777, Note_off_c, 8, 68, 127
2, 179777, Note_off_c, 0, 84, 127
2, 179781, Note_on_c, 11, 82, 127
2, 179781, Note_on_c, 7, 67, 127
2, 179940, Note_off_c, 7, 67, 127
2, 179940, Note_off_c, 11, 82, 127
2, 179943, Note_on_c, 8, 80, 127
2, 179943, Note_on_c, 5, 65, 127
2, 180102, Note_off_c, 5, 65, 127
2, 180102, Note_off_c, 8, 80, 127
2, 180104, Note_on_c, 7, 79, 127
2, 180104, Note_on_c, 3, 63, 127
2, 180263, Note_off_c, 3, 63, 127
2, 180263, Note_off_c, 7, 79, 127
2, 180267, Note_on_c, 5, 77, 127
2, 180267, Note_on_c, 1, 61, 127
2, 180426, Note_off_c, 1, 61, 127
2, 180426, Note_off_c, 5, 77, 127
2, 180428, Note_on_c, 4, 76, 127
2, 180428, Note_on_c, 0, 60, 127
2, 180587, Note_off_c, 0, 60, 127
2, 180587, Note_off_c, 4, 76, 127
2, 180587, Note_off_c, 0, 72, 127
2, 180590, Note_on_c, 5, 77, 127
2, 180590, Note_on_c, 1, 61, 127
2, 180749, Note_off_c, 1, 61, 127
2, 180751, Note_on_c, 3, 63, 127
2, 180910, Note_off_c, 3, 63, 127
2, 180913, Note_on_c, 8, 68, 127
2, 180913, Note_on_c, 1, 61, 127
2, 181072, Note_off_c, 1, 61, 127
2, 181076, Note_on_c, 0, 60, 127
2, 181233, Note_off_c, 8, 68, 127
2, 181235, Note_off_c, 0, 60, 127
2, 181237, Note_on_c, 1, 73, 127
2, 181237, Note_on_c, 11, 58, 127
2, 181396, Note_off_c, 11, 58, 127
2, 181400, Note_on_c, 8, 56, 127
2, 181557, Note_off_c, 1, 73, 127
2, 181559, Note_off_c, 8, 56, 127
2, 181561, Note_on_c, 0, 72, 127
2, 181561, Note_on_c, 7, 55, 127
2, 181720, Note_off_c, 7, 55, 127
2, 181723, Note_on_c, 5, 53, 127
2, 181881, Note_off_c, 0, 72, 127
2, 181882, Note_off_c, 5, 53, 127
2, 181885, Note_on_c, 11, 70, 127
2, 181885, Note_on_c, 7, 55, 127
2, 182044, Note_off_c, 7, 55, 127
2, 182047, Note_on_c, 8, 56, 127
2, 182205, Note_off_c, 5, 77, 127
2, 182206, Note_off_c, 8, 56, 127
2, 182209, Note_on_c, 11, 82, 127
2, 182209, Note_on_c, 7, 55, 127
2, 182368, Note_off_c, 7, 55, 127
2, 182368, Note_off_c, 11, 82, 127
2, 182371, Note_on_c, 8, 80, 127
2, 182371, Note_on_c, 5, 53, 127
2, 182530, Note_off_c, 5, 53, 127
2, 182530, Note_off_c, 8, 80, 127
2, 182532, Note_on_c, 7, 79, 127
2, 182532, Note_on_c, 4, 52, 127
2, 182691, Note_off_c, 4, 52, 127
2, 182691, Note_off_c, 7, 79, 127
2, 182694, Note_on_c, 5, 77, 127
2, 182694, Note_on_c, 2, 50, 127
2, 182853, Note_off_c, 2, 50, 127
2, 182853, Note_off_c, 5, 77, 127
2, 182856, Note_on_c, 4, 76, 127
2, 182856, Note_on_c, 0, 48, 127
2, 183015, Note_off_c, 0, 48, 127
2, 183015, Note_off_c, 4, 76, 127
2, 183018, Note_on_c, 2, 74, 127
2, 183018, Note_on_c, 12, 47, 127
2, 183177, Note_off_c, 12, 47, 127
2, 183177, Note_off_c, 2, 74, 127
2, 183177, Note_off_c, 11, 70, 127
2, 183180, Note_on_c, 4, 76, 127
2, 183180, Note_on_c, 0, 48, 127
2, 183339, Note_off_c, 4, 76, 127
2, 183342, Note_on_c, 5, 77, 127
2, 183500, Note_off_c, 0, 48, 127
2, 183501, Note_off_c, 5, 77, 127
2, 183503, Note_on_c, 4, 76, 127
2, 183503, Note_on_c, 7, 55, 127
2, 183503, Note_on_c, 0, 48, 127
2, 183662, Note_off_c, 7, 55, 127
2, 183662, Note_off_c, 4, 76, 127
2, 183666, Note_on_c, 2, 74, 127
2, 183666, Note_on_c, 8, 56, 127
2, 183823, Note_off_c, 0, 48, 127
2, 183825, Note_off_c, 8, 56, 127
2, 183825, Note_off_c, 2, 74, 127
2, 183827, Note_on_c, 0, 72, 127
2, 183827, Note_on_c, 11, 58, 127
2, 183827, Note_on_c, 0, 48, 127
2, 183986, Note_off_c, 0, 72, 127
2, 183990, Note_on_c, 11, 70, 127
2, 184147, Note_off_c, 11, 58, 127
2, 184149, Note_off_c, 11, 70, 127
2, 184152, Note_on_c, 8, 68, 127
2, 184152, Note_on_c, 0, 60, 127
2, 184311, Note_off_c, 8, 68, 127
2, 184313, Note_on_c, 7, 67, 127
2, 184471, Note_off_c, 0, 48, 127
2, 184472, Note_off_c, 7, 67, 127
2, 184472, Note_off_c, 0, 60, 127
2, 184475, Note_on_c, 8, 68, 127
2, 184475, Note_on_c, 5, 53, 127
2, 184475, Note_on_c, 0, 48, 127
2, 184634, Note_off_c, 8, 68, 127
2, 184636, Note_on_c, 5, 65, 127
2, 184795, Note_off_c, 5, 65, 127
2, 184795, Note_off_c, 0, 48, 127
2, 184795, Note_off_c, 5, 53, 127
2, 184799, Note_on_c, 8, 68, 127
2, 184799, Note_on_c, 5, 53, 127
2, 184799, Note_on_c, 0, 48, 127
2, 184958, Note_off_c, 8, 68, 127
2, 184960, Note_on_c, 0, 72, 127
2, 185119, Note_off_c, 0, 72, 127
2, 185119, Note_off_c, 0, 48, 127
2, 185119, Note_off_c, 5, 53, 127
2, 185122, Note_on_c, 5, 77, 127
2, 185122, Note_on_c, 5, 53, 127
2, 185122, Note_on_c, 0, 48, 127
2, 185285, Note_on_c, 0, 72, 127
2, 185442, Note_off_c, 0, 48, 127
2, 185442, Note_off_c, 5, 77, 127
2, 185444, Note_off_c, 5, 53, 127
2, 185445, Note_off_c, 0, 72, 127
2, 185448, Note_on_c, 11, 70, 127
2, 185448, Note_on_c, 1, 61, 127
2, 185607, Note_off_c, 1, 61, 127
2, 185607, Note_off_c, 11, 70, 127
2, 185610, Note_on_c, 8, 68, 127
2, 185610, Note_on_c, 11, 58, 127
2, 185769, Note_off_c, 11, 58, 127
2, 185769, Note_off_c, 8, 68, 127
2, 185773, Note_on_c, 11, 70, 127
2, 185773, Note_on_c, 4, 52, 127
2, 185773, Note_on_c, 0, 48, 127
2, 185932, Note_off_c, 11, 70, 127
2, 185934, Note_on_c, 7, 67, 127
2, 186093, Note_off_c, 7, 67, 127
2, 186093, Note_off_c, 0, 48, 127
2, 186093, Note_off_c, 4, 52, 127
2, 186097, Note_on_c, 11, 70, 127
2, 186097, Note_on_c, 4, 52, 127
2, 186097, Note_on_c, 0, 48, 127
2, 186256, Note_off_c, 11, 70, 127
2, 186257, Note_on_c, 4, 76, 127
2, 186416, Note_off_c, 4, 76, 127
2, 186417, Note_off_c, 0, 48, 127
2, 186417, Note_off_c, 4, 52, 127
2, 186419, Note_on_c, 7, 79, 127
2, 186419, Note_on_c, 4, 52, 127
2, 186419, Note_on_c, 0, 48, 127
2, 186578, Note_off_c, 4, 52, 127
2, 186578, Note_off_c, 7, 79, 127
2, 186581, Note_on_c, 5, 77, 127
2, 186581, Note_on_c, 5, 53, 127
2, 186739, Note_off_c, 0, 48, 127
2, 186741, Note_off_c, 5, 53, 127
2, 186741, Note_off_c, 5, 77, 127
2, 186745, Note_on_c, 4, 76, 127
2, 186745, Note_on_c, 7, 55, 127
2, 186904, Note_off_c, 7, 55, 127
2, 186904, Note_off_c, 4, 76, 127
2, 186907, Note_on_c, 2, 74, 127
2, 186907, Note_on_c, 8, 56, 127
2, 187066, Note_off_c, 8, 56, 127
2, 187066, Note_off_c, 2, 74, 127
2, 187069, Note_on_c, 4, 76, 127
2, 187069, Note_on_c, 11, 58, 127
2, 187228, Note_off_c, 11, 58, 127
2, 187228, Note_off_c, 4, 76, 127
2, 187231, Note_on_c, 0, 72, 127
2, 187231, Note_on_c, 8, 56, 127
2, 187390, Note_off_c, 8, 56, 127
2, 187390, Note_off_c, 0, 72, 127
2, 187394, Note_on_c, 4, 76, 127
2, 187394, Note_on_c, 7, 55, 127
2, 187553, Note_off_c, 7, 55, 127
2, 187553, Note_off_c, 4, 76, 127
2, 187555, Note_on_c, 7, 79, 127
2, 187555, Note_on_c, 8, 56, 127
2, 187714, Note_off_c, 8, 56, 127
2, 187714, Note_off_c, 7, 79, 127
2, 187717, Note_on_c, 0, 84, 127
2, 187717, Note_on_c, 11, 58, 127
2, 187876, Note_off_c, 11, 58, 127
2, 187876, Note_off_c, 0, 84, 127
2, 187879, Note_on_c, 11, 82, 127
2, 187879, Note_on_c, 1, 61, 127
2, 188038, Note_off_c, 1, 61, 127
2, 188038, Note_off_c, 11, 82, 127
2, 188040, Note_on_c, 8, 80, 127
2, 188040, Note_on_c, 0, 60, 127
2, 188199, Note_off_c, 0, 60, 127
2, 188199, Note_off_c, 8, 80, 127
2, 188201, Note_on_c, 7, 79, 127
2, 188201, Note_on_c, 11, 58, 127
2, 188360, Note_off_c, 11, 58, 127
2, 188360, Note_off_c, 7, 79, 127
2, 188364, Note_on_c, 5, 77, 127
2, 188364, Note_on_c, 8, 56, 127
2, 188364, Note_on_c, 1, 49, 127
2, 188523, Note_off_c, 5, 77, 127
2, 188526, Note_on_c, 6, 78, 127
2, 188684, Note_off_c, 8, 56, 127
2, 188685, Note_off_c, 6, 78, 127
2, 188688, Note_on_c, 5, 77, 127
2, 188688, Note_on_c, 10, 57, 127
2, 188847, Note_off_c, 5, 77, 127
2, 188850, Note_on_c, 3, 75, 127
2, 189008, Note_off_c, 10, 57, 127
2, 189009, Note_off_c, 3, 75, 127
2, 189011, Note_on_c, 1, 73, 127
2, 189011, Note_on_c, 11, 58, 127
2, 189170, Note_off_c, 1, 73, 127
2, 189174, Note_on_c, 0, 72, 127
2, 189331, Note_off_c, 11, 58, 127
2, 189333, Note_off_c, 0, 72, 127
2, 189336, Note_on_c, 11, 70, 127
2, 189336, Note_on_c, 0, 60, 127
2, 189495, Note_off_c, 11, 70, 127
2, 189498, Note_on_c, 10, 69, 127
2, 189656, Note_off_c, 0, 60, 127
2, 189657, Note_off_c, 10, 69, 127
2, 189660, Note_on_c, 11, 70, 127
2, 189660, Note_on_c, 1, 61, 127
2, 189818, Note_off_c, 1, 49, 127
2, 189821, Note_on_c, 3, 51, 127
2, 189980, Note_off_c, 3, 51, 127
2, 189980, Note_off_c, 11, 70, 127
2, 189983, Note_on_c, 5, 65, 127
2, 189983, Note_on_c, 1, 49, 127
2, 190142, Note_off_c, 1, 49, 127
2, 190144, Note_on_c, 0, 48, 127
2, 190303, Note_off_c, 0, 48, 127
2, 190303, Note_off_c, 5, 65, 127
2, 190306, Note_on_c, 1, 73, 127
2, 190306, Note_on_c, 11, 46, 127
2, 190465, Note_off_c, 11, 46, 127
2, 190469, Note_on_c, 8, 44, 127
2, 190628, Note_off_c, 8, 44, 127
2, 190628, Note_off_c, 1, 61, 127
2, 190630, Note_on_c, 11, 70, 127
2, 190630, Note_on_c, 6, 42, 127
2, 190789, Note_off_c, 6, 42, 127
2, 190789, Note_off_c, 11, 70, 127
2, 190793, Note_on_c, 8, 68, 127
2, 190793, Note_on_c, 5, 41, 127
2, 190952, Note_off_c, 5, 41, 127
2, 190952, Note_off_c, 8, 68, 127
2, 190954, Note_on_c, 6, 66, 127
2, 190954, Note_on_c, 3, 39, 127
2, 191111, Note_off_c, 1, 73, 127
2, 191116, Note_on_c, 1, 73, 127
2, 191274, Note_off_c, 3, 39, 127
2, 191274, Note_off_c, 6, 66, 127
2, 191278, Note_on_c, 6, 66, 127
2, 191278, Note_on_c, 3, 39, 127
2, 191437, Note_off_c, 6, 66, 127
2, 191440, Note_on_c, 5, 65, 127
2, 191598, Note_off_c, 3, 39, 127
2, 191599, Note_off_c, 5, 65, 127
2, 191602, Note_on_c, 6, 66, 127
2, 191602, Note_on_c, 3, 39, 127
2, 191760, Note_off_c, 1, 73, 127
2, 191764, Note_on_c, 1, 73, 127
2, 191922, Note_off_c, 3, 39, 127
2, 191922, Note_off_c, 6, 66, 127
2, 191925, Note_on_c, 6, 66, 127
2, 191925, Note_on_c, 3, 51, 127
2, 192084, Note_off_c, 3, 51, 127
2, 192084, Note_off_c, 6, 66, 127
2, 192087, Note_on_c, 5, 65, 127
2, 192087, Note_on_c, 0, 48, 127
2, 192246, Note_off_c, 0, 48, 127
2, 192246, Note_off_c, 5, 65, 127
2, 192249, Note_on_c, 6, 66, 127
2, 192249, Note_on_c, 10, 45, 127
2, 192408, Note_off_c, 1, 73, 127
2, 192411, Note_on_c, 0, 72, 127
2, 192569, Note_off_c, 10, 45, 127
2, 192569, Note_off_c, 6, 66, 127
2, 192573, Note_on_c, 3, 63, 127
2, 192573, Note_on_c, 10, 45, 127
2, 192732, Note_off_c, 3, 63, 127
2, 192735, Note_on_c, 1, 61, 127
2, 192893, Note_off_c, 10, 45, 127
2, 192894, Note_off_c, 1, 61, 127
2, 192897, Note_on_c, 3, 63, 127
2, 192897, Note_on_c, 10, 45, 127
2, 193055, Note_off_c, 0, 72, 127
2, 193059, Note_on_c, 0, 72, 127
2, 193217, Note_off_c, 10, 45, 127
2, 193217, Note_off_c, 3, 63, 127
2, 193220, Note_on_c, 3, 63, 127
2, 193220, Note_on_c, 6, 54, 127
2, 193379, Note_off_c, 6, 54, 127
2, 193379, Note_off_c, 3, 63, 127
2, 193383, Note_on_c, 1, 61, 127
2, 193383, Note_on_c, 3, 51, 127
2, 193542, Note_off_c, 3, 51, 127
2, 193542, Note_off_c, 1, 61, 127
2, 193545, Note_on_c, 3, 63, 127
2, 193545, Note_on_c, 0, 48, 127
2, 193703, Note_off_c, 0, 72, 127
2, 193706, Note_on_c, 11, 70, 127
2, 193865, Note_off_c, 11, 70, 127
2, 193865, Note_off_c, 0, 48, 127
2, 193869, Note_on_c, 10, 69, 127
2, 193869, Note_on_c, 0, 48, 127
2, 194028, Note_off_c, 10, 69, 127
2, 194029, Note_on_c, 7, 67, 127
2, 194188, Note_off_c, 7, 67, 127
2, 194189, Note_off_c, 0, 48, 127
2, 194192, Note_on_c, 10, 69, 127
2, 194192, Note_on_c, 0, 48, 127
2, 194351, Note_off_c, 10, 69, 127
2, 194353, Note_on_c, 11, 70, 127
2, 194512, Note_off_c, 11, 70, 127
2, 194512, Note_off_c, 0, 48, 127
2, 194515, Note_on_c, 0, 72, 127
2, 194515, Note_on_c, 11, 58, 127
2, 194674, Note_off_c, 11, 58, 127
2, 194678, Note_on_c, 10, 57, 127
2, 194837, Note_off_c, 10, 57, 127
2, 194839, Note_on_c, 11, 58, 127
2, 194999, Note_off_c, 3, 63, 127
2, 195001, Note_on_c, 0, 60, 127
2, 195159, Note_off_c, 0, 72, 127
2, 195160, Note_off_c, 0, 60, 127
2, 195163, Note_on_c, 11, 70, 127
2, 195163, Note_on_c, 1, 61, 127
2, 195322, Note_off_c, 1, 61, 127
2, 195322, Note_off_c, 11, 70, 127
2, 195325, Note_on_c, 10, 69, 127
2, 195325, Note_on_c, 5, 65, 127
2, 195484, Note_off_c, 5, 65, 127
2, 195484, Note_off_c, 10, 69, 127
2, 195488, Note_on_c, 11, 70, 127
2, 195488, Note_on_c, 3, 63, 127
2, 195647, Note_off_c, 3, 63, 127
2, 195649, Note_on_c, 1, 61, 127
2, 195808, Note_off_c, 1, 61, 127
2, 195808, Note_off_c, 11, 70, 127
2, 195811, Note_on_c, 1, 73, 127
2, 195811, Note_on_c, 0, 60, 127
2, 195968, Note_off_c, 11, 58, 127
2, 195971, Note_off_c, 0, 60, 127
2, 195974, Note_on_c, 11, 58, 127
2, 196133, Note_off_c, 1, 73, 127
2, 196136, Note_on_c, 11, 70, 127
2, 196136, Note_on_c, 7, 67, 127
2, 196136, Note_on_c, 4, 64, 127
2, 196294, Note_off_c, 11, 58, 127
2, 196300, Note_on_c, 7, 55, 127
2, 196458, Note_off_c, 4, 64, 127
2, 196458, Note_off_c, 7, 67, 127
2, 196458, Note_off_c, 11, 70, 127
2, 196459, Note_off_c, 7, 55, 127
2, 196462, Note_on_c, 0, 72, 127
2, 196462, Note_on_c, 5, 65, 127
2, 196462, Note_on_c, 8, 56, 127
2, 196621, Note_off_c, 8, 56, 127
2, 196621, Note_off_c, 0, 72, 127
2, 196624, Note_on_c, 2, 74, 127
2, 196624, Note_on_c, 0, 60, 127
2, 196782, Note_off_c, 5, 65, 127
2, 196783, Note_off_c, 0, 60, 127
2, 196783, Note_off_c, 2, 74, 127
2, 196787, Note_on_c, 4, 76, 127
2, 196787, Note_on_c, 7, 67, 127
2, 196787, Note_on_c, 11, 58, 127
2, 196946, Note_off_c, 11, 58, 127
2, 196948, Note_on_c, 8, 56, 127
2, 197107, Note_off_c, 8, 56, 127
2, 197107, Note_off_c, 7, 67, 127
2, 197107, Note_off_c, 4, 76, 127
2, 197110, Note_on_c, 5, 77, 127
2, 197110, Note_on_c, 8, 68, 127
2, 197110, Note_on_c, 7, 55, 127
2, 197269, Note_off_c, 7, 55, 127
2, 197272, Note_on_c, 5, 53, 127
2, 197430, Note_off_c, 8, 68, 127
2, 197430, Note_off_c, 5, 77, 127
2, 197431, Note_off_c, 5, 53, 127
2, 197433, Note_on_c, 7, 79, 127
2, 197433, Note_on_c, 11, 70, 127
2, 197433, Note_on_c, 4, 52, 127
2, 197592, Note_off_c, 4, 52, 127
2, 197595, Note_on_c, 5, 53, 127
2, 197753, Note_off_c, 11, 70, 127
2, 197753, Note_off_c, 7, 79, 127
2, 197754, Note_off_c, 5, 53, 127
2, 197757, Note_on_c, 5, 77, 127
2, 197757, Note_on_c, 11, 70, 127
2, 197757, Note_on_c, 7, 55, 127
2, 197916, Note_off_c, 7, 55, 127
2, 197916, Note_off_c, 11, 70, 127
2, 197919, Note_on_c, 8, 68, 127
2, 197919, Note_on_c, 8, 56, 127
2, 198077, Note_off_c, 5, 77, 127
2, 198078, Note_off_c, 8, 56, 127
2, 198078, Note_off_c, 8, 68, 127
2, 198081, Note_on_c, 4, 76, 127
2, 198081, Note_on_c, 11, 70, 127
2, 198081, Note_on_c, 7, 55, 127
2, 198240, Note_off_c, 7, 55, 127
2, 198243, Note_on_c, 5, 53, 127
2, 198401, Note_off_c, 4, 76, 127
2, 198402, Note_off_c, 5, 53, 127
2, 198404, Note_on_c, 5, 77, 127
2, 198404, Note_on_c, 4, 52, 127
2, 198563, Note_off_c, 4, 52, 127
2, 198567, Note_on_c, 2, 50, 127
2, 198724, Note_off_c, 5, 77, 127
2, 198726, Note_off_c, 2, 50, 127
2, 198729, Note_on_c, 7, 79, 127
2, 198729, Note_on_c, 0, 48, 127
2, 198886, Note_off_c, 11, 70, 127
2, 198891, Note_on_c, 4, 76, 127
2, 199049, Note_off_c, 0, 48, 127
2, 199050, Note_off_c, 4, 76, 127
2, 199053, Note_on_c, 1, 73, 127
2, 199053, Note_on_c, 0, 48, 127
2, 199212, Note_off_c, 1, 73, 127
2, 199214, Note_on_c, 0, 72, 127
2, 199373, Note_off_c, 0, 72, 127
2, 199373, Note_off_c, 0, 48, 127
2, 199376, Note_on_c, 11, 70, 127
2, 199376, Note_on_c, 0, 48, 127
2, 199534, Note_off_c, 7, 79, 127
2, 199537, Note_on_c, 5, 77, 127
2, 199696, Note_off_c, 5, 77, 127
2, 199696, Note_off_c, 0, 48, 127
2, 199700, Note_on_c, 4, 76, 127
2, 199700, Note_on_c, 11, 58, 127
2, 199859, Note_off_c, 11, 58, 127
2, 199859, Note_off_c, 4, 76, 127
2, 199862, Note_on_c, 5, 77, 127
2, 199862, Note_on_c, 7, 55, 127
2, 200021, Note_off_c, 7, 55, 127
2, 200021, Note_off_c, 5, 77, 127
2, 200023, Note_on_c, 7, 79, 127
2, 200023, Note_on_c, 4, 52, 127
2, 200181, Note_off_c, 11, 70, 127
2, 200186, Note_on_c, 4, 76, 127
2, 200343, Note_off_c, 4, 52, 127
2, 200345, Note_off_c, 4, 76, 127
2, 200347, Note_on_c, 1, 73, 127
2, 200347, Note_on_c, 4, 52, 127
2, 200506, Note_off_c, 1, 73, 127
2, 200509, Note_on_c, 0, 72, 127
2, 200667, Note_off_c, 4, 52, 127
2, 200668, Note_off_c, 0, 72, 127
2, 200671, Note_on_c, 11, 70, 127
2, 200671, Note_on_c, 4, 52, 127
2, 200828, Note_off_c, 7, 79, 127
2, 200833, Note_on_c, 5, 77, 127
2, 200991, Note_off_c, 4, 52, 127
2, 200992, Note_off_c, 5, 77, 127
2, 200996, Note_on_c, 4, 76, 127
2, 200996, Note_on_c, 1, 61, 127
2, 201155, Note_off_c, 1, 61, 127
2, 201155, Note_off_c, 4, 76, 127
2, 201157, Note_on_c, 5, 77, 127
2, 201157, Note_on_c, 11, 58, 127
2, 201311, Note_off_c, 11, 70, 127
2, 201317, Note_off_c, 11, 58, 127
2, 201317, Note_off_c, 5, 77, 127
2, 201320, Note_on_c, 7, 79, 127
2, 201320, Note_on_c, 7, 55, 127
2, 201479, Note_off_c, 7, 79, 127
2, 201483, Note_on_c, 5, 77, 127
2, 201640, Note_off_c, 7, 55, 127
2, 201642, Note_off_c, 5, 77, 127
2, 201644, Note_on_c, 4, 76, 127
2, 201644, Note_on_c, 7, 55, 127
2, 201803, Note_off_c, 4, 76, 127
2, 201806, Note_on_c, 2, 74, 127
2, 201964, Note_off_c, 7, 55, 127
2, 201965, Note_off_c, 2, 74, 127
2, 201968, Note_on_c, 4, 76, 127
2, 201968, Note_on_c, 7, 55, 127
2, 202127, Note_off_c, 4, 76, 127
2, 202130, Note_on_c, 5, 77, 127
2, 202288, Note_off_c, 7, 55, 127
2, 202289, Note_off_c, 5, 77, 127
2, 202292, Note_on_c, 7, 79, 127
2, 202292, Note_on_c, 1, 73, 127
2, 202292, Note_on_c, 5, 65, 127
2, 202451, Note_off_c, 5, 65, 127
2, 202451, Note_off_c, 1, 73, 127
2, 202454, Note_on_c, 11, 70, 127
2, 202454, Note_on_c, 4, 64, 127
2, 202613, Note_off_c, 4, 64, 127
2, 202616, Note_on_c, 5, 65, 127
2, 202774, Note_off_c, 11, 70, 127
2, 202780, Note_on_c, 8, 68, 127
2, 202938, Note_off_c, 7, 79, 127
2, 202939, Note_off_c, 8, 68, 127
2, 202941, Note_on_c, 5, 77, 127
2, 202941, Note_on_c, 11, 70, 127
2, 203100, Note_off_c, 11, 70, 127
2, 203100, Note_off_c, 5, 77, 127
2, 203103, Note_on_c, 4, 76, 127
2, 203103, Note_on_c, 1, 73, 127
2, 203262, Note_off_c, 1, 73, 127
2, 203262, Note_off_c, 4, 76, 127
2, 203265, Note_on_c, 5, 77, 127
2, 203265, Note_on_c, 0, 72, 127
2, 203424, Note_off_c, 0, 72, 127
2, 203427, Note_on_c, 11, 70, 127
2, 203585, Note_off_c, 5, 77, 127
2, 203586, Note_off_c, 11, 70, 127
2, 203589, Note_on_c, 7, 79, 127
2, 203589, Note_on_c, 8, 68, 127
2, 203748, Note_off_c, 8, 68, 127
2, 203751, Note_on_c, 7, 67, 127
2, 203909, Note_off_c, 7, 79, 127
2, 203910, Note_off_c, 7, 67, 127
2, 203910, Note_off_c, 5, 65, 127
2, 203912, Note_on_c, 8, 80, 127
2, 203912, Note_on_c, 5, 65, 127
2, 204071, Note_off_c, 5, 65, 127
2, 204075, Note_on_c, 4, 64, 127
2, 204232, Note_off_c, 8, 80, 127
2, 204234, Note_off_c, 4, 64, 127
2, 204237, Note_on_c, 8, 80, 127
2, 204237, Note_on_c, 0, 72, 127
2, 204237, Note_on_c, 5, 65, 127
2, 204396, Note_off_c, 5, 65, 127
2, 204399, Note_on_c, 7, 67, 127
2, 204557, Note_off_c, 0, 72, 127
2, 204557, Note_off_c, 8, 80, 127
2, 204558, Note_off_c, 7, 67, 127
2, 204561, Note_on_c, 8, 80, 127
2, 204561, Note_on_c, 0, 72, 127
2, 204561, Note_on_c, 5, 65, 127
2, 204720, Note_off_c, 5, 65, 127
2, 204722, Note_on_c, 3, 63, 127
2, 204881, Note_off_c, 3, 63, 127
2, 204881, Note_off_c, 8, 80, 127
2, 204884, Note_on_c, 8, 80, 127
2, 204884, Note_on_c, 1, 61, 127
2, 205043, Note_off_c, 1, 61, 127
2, 205045, Note_on_c, 0, 60, 127
2, 205204, Note_off_c, 0, 60, 127
2, 205205, Note_off_c, 0, 72, 127
2, 205207, Note_on_c, 11, 70, 127
2, 205207, Note_on_c, 1, 61, 127
2, 205366, Note_off_c, 11, 70, 127
2, 205370, Note_on_c, 0, 72, 127
2, 205527, Note_off_c, 1, 61, 127
2, 205529, Note_off_c, 0, 72, 127
2, 205531, Note_on_c, 1, 73, 127
2, 205531, Note_on_c, 5, 65, 127
2, 205690, Note_off_c, 1, 73, 127
2, 205694, Note_on_c, 0, 72, 127
2, 205851, Note_off_c, 5, 65, 127
2, 205853, Note_off_c, 0, 72, 127
2, 205855, Note_on_c, 11, 70, 127
2, 205855, Note_on_c, 1, 61, 127
2, 206014, Note_off_c, 11, 70, 127
2, 206017, Note_on_c, 0, 72, 127
2, 206175, Note_off_c, 1, 61, 127
2, 206176, Note_off_c, 0, 72, 127
2, 206180, Note_on_c, 1, 73, 127
2, 206180, Note_on_c, 11, 58, 127
2, 206339, Note_off_c, 1, 73, 127
2, 206341, Note_on_c, 0, 72, 127
2, 206499, Note_off_c, 8, 80, 127
2, 206500, Note_off_c, 0, 72, 127
2, 206500, Note_off_c, 11, 58, 127
2, 206503, Note_on_c, 7, 79, 127
2, 206503, Note_on_c, 11, 70, 127
2, 206503, Note_on_c, 3, 63, 127
2, 206662, Note_off_c, 3, 63, 127
2, 206665, Note_on_c, 2, 62, 127
2, 206823, Note_off_c, 11, 70, 127
2, 206823, Note_off_c, 7, 79, 127
2, 206824, Note_off_c, 2, 62, 127
2, 206826, Note_on_c, 7, 79, 127
2, 206826, Note_on_c, 11, 70, 127
2, 206826, Note_on_c, 3, 63, 127
2, 206985, Note_off_c, 3, 63, 127
2, 206988, Note_on_c, 5, 65, 127
2, 207146, Note_off_c, 11, 70, 127
2, 207146, Note_off_c, 7, 79, 127
2, 207147, Note_off_c, 5, 65, 127
2, 207150, Note_on_c, 7, 79, 127
2, 207150, Note_on_c, 11, 70, 127
2, 207150, Note_on_c, 3, 63, 127
2, 207309, Note_off_c, 3, 63, 127
2, 207312, Note_on_c, 1, 61, 127
2, 207470, Note_off_c, 7, 79, 127
2, 207471, Note_off_c, 1, 61, 127
2, 207474, Note_on_c, 7, 79, 127
2, 207474, Note_on_c, 0, 60, 127
2, 207633, Note_off_c, 0, 60, 127
2, 207636, Note_on_c, 11, 58, 127
2, 207794, Note_off_c, 11, 70, 127
2, 207795, Note_off_c, 11, 58, 127
2, 207798, Note_on_c, 8, 68, 127
2, 207798, Note_on_c, 0, 60, 127
2, 207957, Note_off_c, 8, 68, 127
2, 207960, Note_on_c, 11, 70, 127
2, 208118, Note_off_c, 0, 60, 127
2, 208119, Note_off_c, 11, 70, 127
2, 208122, Note_on_c, 0, 72, 127
2, 208122, Note_on_c, 3, 63, 127
2, 208281, Note_off_c, 0, 72, 127
2, 208284, Note_on_c, 11, 70, 127
2, 208442, Note_off_c, 3, 63, 127
2, 208443, Note_off_c, 11, 70, 127
2, 208446, Note_on_c, 8, 68, 127
2, 208446, Note_on_c, 0, 60, 127
2, 208605, Note_off_c, 8, 68, 127
2, 208607, Note_on_c, 11, 70, 127
2, 208766, Note_off_c, 11, 70, 127
2, 208766, Note_off_c, 0, 60, 127
2, 208770, Note_on_c, 0, 72, 127
2, 208770, Note_on_c, 8, 56, 127
2, 208929, Note_off_c, 0, 72, 127
2, 208930, Note_on_c, 11, 70, 127
2, 209089, Note_off_c, 11, 70, 127
2, 209089, Note_off_c, 7, 79, 127
2, 209090, Note_off_c, 8, 56, 127
2, 209093, Note_on_c, 5, 77, 127
2, 209093, Note_on_c, 8, 68, 127
2, 209093, Note_on_c, 1, 61, 127
2, 209252, Note_off_c, 1, 61, 127
2, 209255, Note_on_c, 3, 63, 127
2, 209413, Note_off_c, 8, 68, 127
2, 209414, Note_off_c, 3, 63, 127
2, 209416, Note_on_c, 8, 68, 127
2, 209416, Note_on_c, 1, 61, 127
2, 209575, Note_off_c, 1, 61, 127
2, 209579, Note_on_c, 0, 60, 127
2, 209736, Note_off_c, 8, 68, 127
2, 209738, Note_off_c, 0, 60, 127
2, 209740, Note_on_c, 1, 73, 127
2, 209740, Note_on_c, 11, 58, 127
2, 209899, Note_off_c, 11, 58, 127
2, 209902, Note_on_c, 8, 56, 127
2, 210061, Note_off_c, 8, 56, 127
2, 210061, Note_off_c, 5, 77, 127
2, 210064, Note_on_c, 5, 77, 127
2, 210064, Note_on_c, 7, 55, 127
2, 210223, Note_off_c, 7, 55, 127
2, 210226, Note_on_c, 5, 53, 127
2, 210384, Note_off_c, 5, 77, 127
2, 210385, Note_off_c, 5, 53, 127
2, 210389, Note_on_c, 3, 75, 127
2, 210389, Note_on_c, 7, 55, 127
2, 210548, Note_off_c, 7, 55, 127
2, 210550, Note_on_c, 11, 58, 127
2, 210708, Note_off_c, 1, 73, 127
2, 210709, Note_off_c, 11, 58, 127
2, 210712, Note_on_c, 0, 72, 127
2, 210712, Note_on_c, 10, 57, 127
2, 210871, Note_off_c, 10, 57, 127
2, 210871, Note_off_c, 0, 72, 127
2, 210874, Note_on_c, 11, 70, 127
2, 210874, Note_on_c, 7, 55, 127
2, 211033, Note_off_c, 7, 55, 127
2, 211033, Note_off_c, 11, 70, 127
2, 211035, Note_on_c, 10, 69, 127
2, 211035, Note_on_c, 5, 53, 127
2, 211194, Note_off_c, 5, 53, 127
2, 211198, Note_on_c, 3, 51, 127
2, 211357, Note_off_c, 3, 51, 127
2, 211357, Note_off_c, 3, 75, 127
2, 211359, Note_on_c, 5, 77, 127
2, 211359, Note_on_c, 1, 49, 127
2, 211518, Note_off_c, 1, 49, 127
2, 211521, Note_on_c, 0, 48, 127
2, 211675, Note_off_c, 10, 69, 127
2, 211681, Note_off_c, 0, 48, 127
2, 211681, Note_off_c, 5, 77, 127
2, 211685, Note_on_c, 11, 70, 127
2, 211685, Note_on_c, 1, 49, 127
2, 211847, Note_on_c, 5, 53, 127
2, 212005, Note_off_c, 11, 70, 127
2, 212006, Note_off_c, 5, 53, 127
2, 212009, Note_on_c, 11, 70, 127
2, 212009, Note_on_c, 7, 55, 127
2, 212168, Note_off_c, 7, 55, 127
2, 212171, Note_on_c, 10, 57, 127
2, 212325, Note_off_c, 1, 49, 127
2, 212331, Note_off_c, 10, 57, 127
2, 212331, Note_off_c, 11, 70, 127
2, 212334, Note_on_c, 11, 70, 127
2, 212334, Note_on_c, 11, 58, 127
2, 212497, Note_on_c, 1, 49, 127
2, 212654, Note_off_c, 11, 70, 127
2, 212656, Note_off_c, 1, 49, 127
2, 212658, Note_on_c, 6, 78, 127
2, 212658, Note_on_c, 3, 51, 127
2, 212817, Note_off_c, 3, 51, 127
2, 212817, Note_off_c, 6, 78, 127
2, 212820, Note_on_c, 3, 75, 127
2, 212820, Note_on_c, 5, 53, 127
2, 212974, Note_off_c, 11, 58, 127
2, 212980, Note_off_c, 5, 53, 127
2, 212980, Note_off_c, 3, 75, 127
2, 212984, Note_on_c, 10, 69, 127
2, 212984, Note_on_c, 6, 54, 127
2, 213146, Note_on_c, 0, 60, 127
2, 213304, Note_off_c, 10, 69, 127
2, 213305, Note_off_c, 0, 60, 127
2, 213308, Note_on_c, 10, 69, 127
2, 213308, Note_on_c, 3, 63, 127
2, 213467, Note_off_c, 3, 63, 127
2, 213470, Note_on_c, 1, 61, 127
2, 213628, Note_off_c, 10, 69, 127
2, 213629, Note_off_c, 1, 61, 127
2, 213632, Note_on_c, 10, 69, 127
2, 213632, Note_on_c, 0, 60, 127
2, 213791, Note_off_c, 0, 60, 127
2, 213791, Note_off_c, 10, 69, 127
2, 213791, Note_off_c, 6, 54, 127
2, 213794, Note_on_c, 11, 70, 127
2, 213794, Note_on_c, 11, 58, 127
2, 213953, Note_off_c, 11, 58, 127
2, 213953, Note_off_c, 11, 70, 127
2, 213955, Note_on_c, 0, 72, 127
2, 213955, Note_on_c, 10, 57, 127
2, 214114, Note_off_c, 10, 57, 127
2, 214114, Note_off_c, 0, 72, 127
2, 214117, Note_on_c, 1, 73, 127
2, 214117, Note_on_c, 7, 55, 127
2, 214276, Note_off_c, 7, 55, 127
2, 214276, Note_off_c, 1, 73, 127
2, 214279, Note_on_c, 3, 75, 127
2, 214279, Note_on_c, 5, 53, 127
2, 214438, Note_off_c, 3, 75, 127
2, 214441, Note_on_c, 1, 73, 127
2, 214441, Note_on_c, 11, 58, 127
2, 214600, Note_off_c, 11, 58, 127
2, 214600, Note_off_c, 1, 73, 127
2, 214602, Note_on_c, 0, 72, 127
2, 214602, Note_on_c, 10, 57, 127
2, 214749, Note_off_c, 5, 53, 127
2, 214761, Note_off_c, 10, 57, 127
2, 214761, Note_off_c, 0, 72, 127
2, 214765, Note_on_c, 1, 73, 127
2, 214765, Note_on_c, 7, 55, 127
2, 214924, Note_off_c, 7, 55, 127
2, 214924, Note_off_c, 1, 73, 127
2, 214926, Note_on_c, 3, 75, 127
2, 214926, Note_on_c, 5, 53, 127
2, 215085, Note_off_c, 5, 53, 127
2, 215085, Note_off_c, 3, 75, 127
2, 215089, Note_on_c, 6, 78, 127
2, 215089, Note_on_c, 3, 51, 127
2, 215248, Note_off_c, 3, 51, 127
2, 215248, Note_off_c, 6, 78, 127
2, 215251, Note_on_c, 5, 77, 127
2, 215251, Note_on_c, 0, 72, 127
2, 215251, Note_on_c, 1, 49, 127
2, 215410, Note_off_c, 1, 49, 127
2, 215410, Note_off_c, 5, 77, 127
2, 215412, Note_on_c, 3, 75, 127
2, 215412, Note_on_c, 0, 48, 127
2, 215571, Note_off_c, 0, 48, 127
2, 215571, Note_off_c, 3, 75, 127
2, 215571, Note_off_c, 0, 72, 127
2, 215575, Note_on_c, 1, 73, 127
2, 215575, Note_on_c, 5, 65, 127
2, 215575, Note_on_c, 11, 46, 127
2, 215734, Note_off_c, 11, 46, 127
2, 215736, Note_on_c, 0, 48, 127
2, 215895, Note_off_c, 0, 48, 127
2, 215895, Note_off_c, 5, 65, 127
2, 215895, Note_off_c, 1, 73, 127
2, 215899, Note_on_c, 1, 73, 127
2, 215899, Note_on_c, 5, 65, 127
2, 215899, Note_on_c, 1, 49, 127
2, 216058, Note_off_c, 1, 49, 127
2, 216059, Note_on_c, 0, 48, 127
2, 216218, Note_off_c, 0, 48, 127
2, 216219, Note_off_c, 5, 65, 127
2, 216219, Note_off_c, 1, 73, 127
2, 216221, Note_on_c, 1, 73, 127
2, 216221, Note_on_c, 5, 65, 127
2, 216221, Note_on_c, 11, 46, 127
2, 216380, Note_off_c, 11, 46, 127
2, 216384, Note_on_c, 8, 44, 127
2, 216541, Note_off_c, 1, 73, 127
2, 216543, Note_off_c, 5, 65, 127
2, 216544, Note_off_c, 8, 44, 127
2, 216547, Note_on_c, 1, 73, 127
2, 216547, Note_on_c, 7, 43, 127
2, 216706, Note_off_c, 7, 43, 127
2, 216709, Note_on_c, 11, 70, 127
2, 216709, Note_on_c, 5, 41, 127
2, 216867, Note_off_c, 1, 73, 127
2, 216869, Note_off_c, 5, 41, 127
2, 216869, Note_off_c, 11, 70, 127
2, 216874, Note_on_c, 1, 73, 127
2, 216874, Note_on_c, 4, 64, 127
2, 216874, Note_on_c, 7, 43, 127
2, 217033, Note_off_c, 7, 43, 127
2, 217035, Note_on_c, 8, 44, 127
2, 217194, Note_off_c, 8, 44, 127
2, 217194, Note_off_c, 4, 64, 127
2, 217194, Note_off_c, 1, 73, 127
2, 217198, Note_on_c, 1, 73, 127
2, 217198, Note_on_c, 4, 64, 127
2, 217198, Note_on_c, 11, 46, 127
2, 217357, Note_off_c, 11, 46, 127
2, 217359, Note_on_c, 8, 44, 127
2, 217518, Note_off_c, 8, 44, 127
2, 217518, Note_off_c, 4, 64, 127
2, 217518, Note_off_c, 1, 73, 127
2, 217520, Note_on_c, 1, 73, 127
2, 217520, Note_on_c, 4, 64, 127
2, 217520, Note_on_c, 7, 43, 127
2, 217679, Note_off_c, 7, 43, 127
2, 217679, Note_off_c, 4, 64, 127
2, 217683, Note_on_c, 5, 65, 127
2, 217683, Note_on_c, 5, 41, 127
2, 217842, Note_off_c, 5, 41, 127
2, 217842, Note_off_c, 5, 65, 127
2, 217844, Note_on_c, 7, 67, 127
2, 217844, Note_on_c, 4, 40, 127
2, 217990, Note_off_c, 1, 73, 127
2, 218003, Note_off_c, 4, 40, 127
2, 218003, Note_off_c, 7, 67, 127
2, 218006, Note_on_c, 8, 68, 127
2, 218006, Note_on_c, 2, 38, 127
2, 218165, Note_off_c, 2, 38, 127
2, 218165, Note_off_c, 8, 68, 127
2, 218168, Note_on_c, 4, 64, 127
2, 218168, Note_on_c, 11, 70, 127
2, 218168, Note_on_c, 0, 36, 127
2, 218327, Note_off_c, 11, 70, 127
2, 218330, Note_on_c, 8, 68, 127
2, 218488, Note_off_c, 0, 36, 127
2, 218489, Note_off_c, 8, 68, 127
2, 218493, Note_on_c, 7, 67, 127
2, 218493, Note_on_c, 4, 40, 127
2, 218652, Note_off_c, 7, 67, 127
2, 218654, Note_on_c, 8, 68, 127
2, 218813, Note_off_c, 8, 68, 127
2, 218813, Note_off_c, 4, 40, 127
2, 218816, Note_on_c, 11, 70, 127
2, 218816, Note_on_c, 7, 43, 127
2, 218975, Note_off_c, 11, 70, 127
2, 218978, Note_on_c, 1, 73, 127
2, 219136, Note_off_c, 7, 43, 127
2, 219136, Note_off_c, 4, 64, 127
2, 219137, Note_off_c, 1, 73, 127
2, 219140, Note_on_c, 4, 76, 127
2, 219140, Note_on_c, 0, 72, 127
2, 219140, Note_on_c, 0, 48, 127
2, 219299, Note_off_c, 0, 72, 127
2, 219301, Note_on_c, 11, 70, 127
2, 219460, Note_off_c, 11, 70, 127
2, 219460, Note_off_c, 4, 76, 127
2, 219463, Note_on_c, 5, 77, 127
2, 219463, Note_on_c, 8, 68, 127
2, 219622, Note_off_c, 0, 48, 127
2, 219625, Note_on_c, 5, 41, 127
2, 219783, Note_off_c, 8, 68, 127
2, 219783, Note_off_c, 5, 77, 127
2, 219784, Note_off_c, 5, 41, 127
2, 219787, Note_on_c, 0, 72, 127
2, 219787, Note_on_c, 8, 68, 127
2, 219787, Note_on_c, 8, 44, 127
2, 219946, Note_off_c, 8, 44, 127
2, 219949, Note_on_c, 0, 48, 127
2, 220107, Note_off_c, 8, 68, 127
2, 220107, Note_off_c, 0, 72, 127
2, 220108, Note_off_c, 0, 48, 127
2, 220110, Note_on_c, 0, 72, 127
2, 220110, Note_on_c, 8, 68, 127
2, 220110, Note_on_c, 5, 53, 127
2, 220269, Note_off_c, 5, 53, 127
2, 220273, Note_on_c, 8, 56, 127
2, 220430, Note_off_c, 0, 72, 127
2, 220432, Note_off_c, 8, 56, 127
2, 220434, Note_on_c, 8, 80, 127
2, 220434, Note_on_c, 7, 55, 127
2, 220593, Note_off_c, 7, 55, 127
2, 220597, Note_on_c, 5, 53, 127
2, 220754, Note_off_c, 8, 80, 127
2, 220756, Note_off_c, 5, 53, 127
2, 220759, Note_on_c, 11, 70, 127
2, 220759, Note_on_c, 1, 61, 127
2, 220918, Note_off_c, 11, 70, 127
2, 220920, Note_on_c, 0, 72, 127
2, 221079, Note_off_c, 0, 72, 127
2, 221079, Note_off_c, 1, 61, 127
2, 221083, Note_on_c, 1, 73, 127
2, 221083, Note_on_c, 11, 58, 127
2, 221242, Note_off_c, 1, 73, 127
2, 221244, Note_on_c, 0, 72, 127
2, 221403, Note_off_c, 0, 72, 127
2, 221403, Note_off_c, 11, 58, 127
2, 221405, Note_on_c, 11, 70, 127
2, 221405, Note_on_c, 7, 55, 127
2, 221564, Note_off_c, 11, 70, 127
2, 221568, Note_on_c, 0, 72, 127
2, 221725, Note_off_c, 7, 55, 127
2, 221727, Note_off_c, 0, 72, 127
2, 221729, Note_on_c, 1, 73, 127
2, 221729, Note_on_c, 5, 53, 127
2, 221888, Note_off_c, 1, 73, 127
2, 221892, Note_on_c, 0, 72, 127
2, 222049, Note_off_c, 5, 53, 127
2, 222049, Note_off_c, 8, 68, 127
2, 222051, Note_off_c, 0, 72, 127
2, 222053, Note_on_c, 11, 70, 127
2, 222053, Note_on_c, 7, 67, 127
2, 222053, Note_on_c, 0, 36, 127
2, 222212, Note_off_c, 0, 36, 127
2, 222215, Note_on_c, 4, 40, 127
2, 222373, Note_off_c, 7, 67, 127
2, 222373, Note_off_c, 11, 70, 127
2, 222374, Note_off_c, 4, 40, 127
2, 222377, Note_on_c, 11, 70, 127
2, 222377, Note_on_c, 7, 67, 127
2, 222377, Note_on_c, 7, 43, 127
2, 222536, Note_off_c, 7, 43, 127
2, 222539, Note_on_c, 0, 48, 127
2, 222697, Note_off_c, 7, 67, 127
2, 222697, Note_off_c, 11, 70, 127
2, 222698, Note_off_c, 0, 48, 127
2, 222701, Note_on_c, 11, 70, 127
2, 222701, Note_on_c, 7, 67, 127
2, 222701, Note_on_c, 4, 52, 127
2, 222860, Note_off_c, 4, 52, 127
2, 222863, Note_on_c, 7, 55, 127
2, 223021, Note_off_c, 11, 70, 127
2, 223022, Note_off_c, 7, 55, 127
2, 223025, Note_on_c, 7, 79, 127
2, 223025, Note_on_c, 5, 53, 127
2, 223184, Note_off_c, 5, 53, 127
2, 223187, Note_on_c, 4, 52, 127
2, 223345, Note_off_c, 7, 79, 127
2, 223346, Note_off_c, 4, 52, 127
2, 223349, Note_on_c, 8, 68, 127
2, 223349, Note_on_c, 0, 60, 127
2, 223508, Note_off_c, 8, 68, 127
2, 223510, Note_on_c, 11, 70, 127
2, 223669, Note_off_c, 11, 70, 127
2, 223669, Note_off_c, 0, 60, 127
2, 223672, Note_on_c, 0, 72, 127
2, 223672, Note_on_c, 8, 56, 127
2, 223831, Note_off_c, 0, 72, 127
2, 223834, Note_on_c, 11, 70, 127
2, 223992, Note_off_c, 8, 56, 127
2, 223993, Note_off_c, 11, 70, 127
2, 223996, Note_on_c, 8, 68, 127
2, 223996, Note_on_c, 5, 53, 127
2, 224155, Note_off_c, 8, 68, 127
2, 224158, Note_on_c, 11, 70, 127
2, 224316, Note_off_c, 5, 53, 127
2, 224317, Note_off_c, 11, 70, 127
2, 224319, Note_on_c, 0, 72, 127
2, 224319, Note_on_c, 4, 52, 127
2, 224478, Note_off_c, 0, 72, 127
2, 224482, Note_on_c, 11, 70, 127
2, 224639, Note_off_c, 4, 52, 127
2, 224640, Note_off_c, 7, 67, 127
2, 224641, Note_off_c, 11, 70, 127
2, 224644, Note_on_c, 8, 68, 127
2, 224644, Note_on_c, 5, 65, 127
2, 224644, Note_on_c, 0, 36, 127
2, 224808, Note_off_c, 0, 36, 127
2, 224811, Note_on_c, 5, 41, 127
2, 224975, Note_off_c, 5, 41, 127
2, 224977, Note_off_c, 5, 65, 127
2, 224977, Note_off_c, 8, 68, 127
2, 224980, Note_on_c, 8, 68, 127
2, 224980, Note_on_c, 5, 65, 127
2, 224980, Note_on_c, 8, 44, 127
2, 225144, Note_off_c, 8, 44, 127
2, 225147, Note_on_c, 0, 48, 127
2, 225311, Note_off_c, 0, 48, 127
2, 225313, Note_off_c, 5, 65, 127
2, 225313, Note_off_c, 8, 68, 127
2, 225315, Note_on_c, 8, 68, 127
2, 225315, Note_on_c, 5, 65, 127
2, 225315, Note_on_c, 5, 53, 127
2, 225479, Note_off_c, 5, 53, 127
2, 225483, Note_on_c, 8, 56, 127
2, 225647, Note_off_c, 8, 56, 127
2, 225648, Note_off_c, 8, 68, 127
2, 225651, Note_on_c, 5, 77, 127
2, 225651, Note_on_c, 7, 55, 127
2, 225815, Note_off_c, 7, 55, 127
2, 225818, Note_on_c, 5, 53, 127
2, 225982, Note_off_c, 5, 53, 127
2, 225984, Note_off_c, 5, 77, 127
2, 225987, Note_on_c, 7, 67, 127
2, 225987, Note_on_c, 11, 58, 127
2, 226158, Note_off_c, 7, 67, 127
2, 226160, Note_on_c, 8, 68, 127
2, 226330, Note_off_c, 5, 65, 127
2, 226331, Note_off_c, 8, 68, 127
2, 226332, Note_off_c, 11, 58, 127
2, 226334, Note_on_c, 11, 70, 127
2, 226334, Note_on_c, 4, 64, 127
2, 226334, Note_on_c, 7, 55, 127
2, 226505, Note_off_c, 11, 70, 127
2, 226508, Note_on_c, 8, 68, 127
2, 226679, Note_off_c, 8, 68, 127
2, 226679, Note_off_c, 7, 55, 127
2, 226682, Note_on_c, 7, 67, 127
2, 226682, Note_on_c, 4, 52, 127
2, 226853, Note_off_c, 7, 67, 127
2, 226856, Note_on_c, 1, 73, 127
2, 227027, Note_off_c, 1, 73, 127
2, 227027, Note_off_c, 4, 52, 127
2, 227027, Note_off_c, 4, 64, 127
2, 227029, Note_on_c, 0, 72, 127
2, 227029, Note_on_c, 4, 64, 127
2, 227029, Note_on_c, 0, 48, 127
2, 227200, Note_off_c, 0, 72, 127
2, 227203, Note_on_c, 11, 70, 127
2, 227374, Note_off_c, 11, 70, 127
2, 227374, Note_off_c, 0, 48, 127
2, 227374, Note_off_c, 4, 64, 127
2, 227378, Note_on_c, 8, 68, 127
2, 227378, Note_on_c, 5, 65, 127
2, 227378, Note_on_c, 1, 49, 127
2, 227745, Note_off_c, 1, 49, 127
2, 227747, Note_on_c, 11, 46, 127
2, 227940, Note_off_c, 8, 68, 127
2, 227943, Note_on_c, 7, 67, 127
2, 228136, Note_off_c, 7, 67, 127
2, 228136, Note_off_c, 11, 46, 127
2, 228136, Note_off_c, 5, 65, 127
2, 228138, Note_on_c, 8, 68, 127
2, 228138, Note_on_c, 4, 64, 127
2, 228138, Note_on_c, 0, 48, 127
2, 228242, Note_off_c, 8, 68, 127
2, 228247, Note_on_c, 7, 67, 127
2, 228351, Note_off_c, 7, 67, 127
2, 228355, Note_on_c, 8, 68, 127
2, 228459, Note_off_c, 8, 68, 127
2, 228463, Note_on_c, 7, 67, 127
2, 228566, Note_off_c, 0, 48, 127
2, 228567, Note_off_c, 7, 67, 127
2, 228571, Note_on_c, 8, 68, 127
2, 228571, Note_on_c, 0, 36, 127
2, 228675, Note_off_c, 8, 68, 127
2, 228679, Note_on_c, 7, 67, 127
2, 228783, Note_off_c, 7, 67, 127
2, 228787, Note_on_c, 5, 65, 127
2, 228996, Note_off_c, 4, 64, 127
2, 229007, Note_off_c, 0, 36, 127
2, 229009, Note_off_c, 5, 65, 127
2, 229021, Note_on_c, 5, 65, 127
2, 229021, Note_on_c, 5, 41, 127
2, 232015, Note_off_c, 5, 41, 127
2, 232015, Note_off_c, 5, 65, 127
2, 236544, End_track
3, 0, Start_track
3, 0, Title_t, "MIDI"
3, 1536, End_track
0, 0, End_of_file
