0, 0, Header, 1, 4, 240
1, 0, Start_track
1, 0, Time_signature, 1, 3, 12, 8
1, 0, Tempo, 375000
1, 120, Time_signature, 3, 1, 48, 8
1, 10200, Time_signature, 11, 3, 12, 8
1, 11520, Time_signature, 1, 3, 12, 8
1, 11640, Time_signature, 3, 1, 48, 8
1, 21720, Time_signature, 11, 3, 12, 8
1, 23040, Time_signature, 1, 3, 12, 8
1, 23160, Time_signature, 3, 1, 48, 8
1, 39000, Time_signature, 11, 3, 12, 8
1, 40320, Time_signature, 1, 3, 12, 8
1, 40440, Time_signature, 3, 1, 48, 8
1, 56280, Time_signature, 11, 3, 12, 8
1, 56280, End_track
2, 0, Start_track
2, 0, Title_t, "English Suite 4, 3. Courante"
2, 0, Program_c, 0, 0
2, 0, Note_on_c, 0, 77, 107
2, 96, Note_off_c, 0, 77, 64
2, 120, Note_on_c, 0, 77, 107
2, 408, Note_off_c, 0, 77, 64
2, 480, Note_on_c, 0, 72, 107
2, 576, Note_off_c, 0, 72, 64
2, 600, Note_on_c, 0, 74, 107
2, 888, Note_off_c, 0, 74, 64
2, 960, Note_on_c, 0, 77, 107
2, 1056, Note_off_c, 0, 77, 64
2, 1080, Note_on_c, 0, 72, 107
2, 1272, Note_off_c, 0, 72, 64
2, 1320, Note_on_c, 0, 72, 107
2, 1344, Note_off_c, 0, 72, 64
2, 1350, Note_on_c, 0, 70, 107
2, 1374, Note_off_c, 0, 70, 64
2, 1380, Note_on_c, 0, 72, 107
2, 1404, Note_off_c, 0, 72, 64
2, 1410, Note_on_c, 0, 70, 107
2, 1434, Note_off_c, 0, 70, 64
2, 1440, Note_on_c, 0, 69, 107
2, 1488, Note_off_c, 0, 69, 64
2, 1500, Note_on_c, 0, 70, 107
2, 1548, Note_off_c, 0, 70, 64
2, 1560, Note_on_c, 0, 69, 107
2, 1656, Note_off_c, 0, 69, 64
2, 1680, Note_on_c, 0, 72, 107
2, 1776, Note_off_c, 0, 72, 64
2, 1800, Note_on_c, 0, 74, 107
2, 1896, Note_off_c, 0, 74, 64
2, 1920, Note_on_c, 0, 76, 107
2, 2016, Note_off_c, 0, 76, 64
2, 2040, Note_on_c, 0, 77, 107
2, 2136, Note_off_c, 0, 77, 64
2, 2160, Note_on_c, 0, 81, 107
2, 2256, Note_off_c, 0, 81, 64
2, 2280, Note_on_c, 0, 79, 107
2, 2376, Note_off_c, 0, 79, 64
2, 2400, Note_on_c, 0, 81, 107
2, 2496, Note_off_c, 0, 81, 64
2, 2520, Note_on_c, 0, 82, 107
2, 2616, Note_off_c, 0, 82, 64
2, 2640, Note_on_c, 0, 81, 107
2, 2736, Note_off_c, 0, 81, 64
2, 2760, Note_on_c, 0, 79, 107
2, 2856, Note_off_c, 0, 79, 64
2, 2880, Note_on_c, 0, 77, 107
2, 2976, Note_off_c, 0, 77, 64
2, 3000, Note_on_c, 0, 84, 107
2, 3192, Note_off_c, 0, 84, 64
2, 3240, Note_on_c, 0, 72, 107
2, 3432, Note_off_c, 0, 72, 64
2, 3480, Note_on_c, 0, 74, 107
2, 3768, Note_off_c, 0, 74, 64
2, 3840, Note_on_c, 0, 82, 107
2, 3936, Note_off_c, 0, 82, 64
2, 3960, Note_on_c, 0, 81, 107
2, 4152, Note_off_c, 0, 81, 64
2, 4200, Note_on_c, 0, 81, 107
2, 4224, Note_off_c, 0, 81, 64
2, 4230, Note_on_c, 0, 79, 107
2, 4254, Note_off_c, 0, 79, 64
2, 4260, Note_on_c, 0, 81, 107
2, 4284, Note_off_c, 0, 81, 64
2, 4290, Note_on_c, 0, 79, 107
2, 4368, Note_off_c, 0, 79, 64
2, 4380, Note_on_c, 0, 77, 107
2, 4428, Note_off_c, 0, 77, 64
2, 4440, Note_on_c, 0, 77, 107
2, 4464, Note_off_c, 0, 77, 64
2, 4470, Note_on_c, 0, 76, 107
2, 4494, Note_off_c, 0, 76, 64
2, 4500, Note_on_c, 0, 77, 107
2, 4524, Note_off_c, 0, 77, 64
2, 4530, Note_on_c, 0, 76, 107
2, 4752, Note_off_c, 0, 76, 64
2, 4800, Note_on_c, 0, 77, 107
2, 4896, Note_off_c, 0, 77, 64
2, 4920, Note_on_c, 0, 79, 107
2, 5112, Note_off_c, 0, 79, 64
2, 5160, Note_on_c, 0, 81, 107
2, 5256, Note_off_c, 0, 81, 64
2, 5280, Note_on_c, 0, 82, 107
2, 5376, Note_off_c, 0, 82, 64
2, 5400, Note_on_c, 0, 81, 107
2, 5496, Note_off_c, 0, 81, 64
2, 5520, Note_on_c, 0, 79, 107
2, 5616, Note_off_c, 0, 79, 64
2, 5640, Note_on_c, 0, 77, 107
2, 5736, Note_off_c, 0, 77, 64
2, 5760, Note_on_c, 0, 76, 107
2, 5856, Note_off_c, 0, 76, 64
2, 5880, Note_on_c, 0, 77, 107
2, 5904, Note_off_c, 0, 77, 64
2, 5910, Note_on_c, 0, 76, 107
2, 5934, Note_off_c, 0, 76, 64
2, 5940, Note_on_c, 0, 77, 107
2, 6192, Note_off_c, 0, 77, 64
2, 6240, Note_on_c, 0, 76, 107
2, 6336, Note_off_c, 0, 76, 64
2, 6360, Note_on_c, 0, 74, 107
2, 6552, Note_off_c, 0, 74, 64
2, 6600, Note_on_c, 0, 72, 107
2, 6696, Note_off_c, 0, 72, 64
2, 6720, Note_on_c, 0, 71, 107
2, 6816, Note_off_c, 0, 71, 64
2, 6840, Note_on_c, 0, 72, 107
2, 6864, Note_off_c, 0, 72, 64
2, 6870, Note_on_c, 0, 71, 107
2, 6894, Note_off_c, 0, 71, 64
2, 6900, Note_on_c, 0, 72, 107
2, 7152, Note_off_c, 0, 72, 64
2, 7200, Note_on_c, 0, 74, 107
2, 7296, Note_off_c, 0, 74, 64
2, 7320, Note_on_c, 0, 72, 107
2, 7344, Note_off_c, 0, 72, 64
2, 7350, Note_on_c, 0, 71, 107
2, 7374, Note_off_c, 0, 71, 64
2, 7380, Note_on_c, 0, 72, 107
2, 7404, Note_off_c, 0, 72, 64
2, 7410, Note_on_c, 0, 71, 107
2, 7632, Note_off_c, 0, 71, 64
2, 7680, Note_on_c, 0, 69, 107
2, 7776, Note_off_c, 0, 69, 64
2, 7800, Note_on_c, 0, 67, 107
2, 8088, Note_off_c, 0, 67, 64
2, 8160, Note_on_c, 0, 79, 107
2, 8256, Note_off_c, 0, 79, 64
2, 8280, Note_on_c, 0, 77, 107
2, 8376, Note_off_c, 0, 77, 64
2, 8400, Note_on_c, 0, 76, 107
2, 8496, Note_off_c, 0, 76, 64
2, 8520, Note_on_c, 0, 74, 107
2, 8616, Note_off_c, 0, 74, 64
2, 8640, Note_on_c, 0, 72, 107
2, 8736, Note_off_c, 0, 72, 64
2, 8760, Note_on_c, 0, 81, 107
2, 9048, Note_off_c, 0, 81, 64
2, 9120, Note_on_c, 0, 76, 107
2, 9216, Note_off_c, 0, 76, 64
2, 9240, Note_on_c, 0, 77, 107
2, 9528, Note_off_c, 0, 77, 64
2, 9600, Note_on_c, 0, 79, 107
2, 9696, Note_off_c, 0, 79, 64
2, 9720, Note_on_c, 0, 76, 107
2, 9749, Note_off_c, 0, 76, 64
2, 9750, Note_on_c, 0, 74, 107
2, 9779, Note_off_c, 0, 74, 64
2, 9780, Note_on_c, 0, 76, 107
2, 9809, Note_off_c, 0, 76, 64
2, 9810, Note_on_c, 0, 74, 107
2, 10032, Note_off_c, 0, 74, 64
2, 10080, Note_on_c, 0, 72, 107
2, 10176, Note_off_c, 0, 72, 64
2, 10200, Note_on_c, 0, 72, 107
2, 10920, Note_on_c, 0, 67, 107
2, 10920, Note_on_c, 0, 64, 107
2, 11304, Note_off_c, 0, 64, 64
2, 11304, Note_off_c, 0, 67, 64
2, 11304, Note_off_c, 0, 72, 64
2, 11520, Note_on_c, 0, 77, 107
2, 11616, Note_off_c, 0, 77, 64
2, 11640, Note_on_c, 0, 77, 107
2, 11928, Note_off_c, 0, 77, 64
2, 12000, Note_on_c, 0, 72, 107
2, 12096, Note_off_c, 0, 72, 64
2, 12120, Note_on_c, 0, 74, 107
2, 12408, Note_off_c, 0, 74, 64
2, 12480, Note_on_c, 0, 77, 107
2, 12576, Note_off_c, 0, 77, 64
2, 12600, Note_on_c, 0, 72, 107
2, 12792, Note_off_c, 0, 72, 64
2, 12840, Note_on_c, 0, 72, 107
2, 12864, Note_off_c, 0, 72, 64
2, 12870, Note_on_c, 0, 70, 107
2, 12894, Note_off_c, 0, 70, 64
2, 12900, Note_on_c, 0, 72, 107
2, 12924, Note_off_c, 0, 72, 64
2, 12930, Note_on_c, 0, 70, 107
2, 12954, Note_off_c, 0, 70, 64
2, 12960, Note_on_c, 0, 69, 107
2, 13008, Note_off_c, 0, 69, 64
2, 13020, Note_on_c, 0, 70, 107
2, 13068, Note_off_c, 0, 70, 64
2, 13080, Note_on_c, 0, 69, 107
2, 13176, Note_off_c, 0, 69, 64
2, 13200, Note_on_c, 0, 72, 107
2, 13296, Note_off_c, 0, 72, 64
2, 13320, Note_on_c, 0, 74, 107
2, 13416, Note_off_c, 0, 74, 64
2, 13440, Note_on_c, 0, 76, 107
2, 13536, Note_off_c, 0, 76, 64
2, 13560, Note_on_c, 0, 77, 107
2, 13656, Note_off_c, 0, 77, 64
2, 13680, Note_on_c, 0, 81, 107
2, 13776, Note_off_c, 0, 81, 64
2, 13800, Note_on_c, 0, 79, 107
2, 13896, Note_off_c, 0, 79, 64
2, 13920, Note_on_c, 0, 81, 107
2, 14016, Note_off_c, 0, 81, 64
2, 14040, Note_on_c, 0, 82, 107
2, 14136, Note_off_c, 0, 82, 64
2, 14160, Note_on_c, 0, 81, 107
2, 14256, Note_off_c, 0, 81, 64
2, 14280, Note_on_c, 0, 79, 107
2, 14376, Note_off_c, 0, 79, 64
2, 14400, Note_on_c, 0, 77, 107
2, 14496, Note_off_c, 0, 77, 64
2, 14520, Note_on_c, 0, 84, 107
2, 14712, Note_off_c, 0, 84, 64
2, 14760, Note_on_c, 0, 72, 107
2, 14952, Note_off_c, 0, 72, 64
2, 15000, Note_on_c, 0, 74, 107
2, 15288, Note_off_c, 0, 74, 64
2, 15360, Note_on_c, 0, 82, 107
2, 15456, Note_off_c, 0, 82, 64
2, 15480, Note_on_c, 0, 81, 107
2, 15672, Note_off_c, 0, 81, 64
2, 15720, Note_on_c, 0, 81, 107
2, 15744, Note_off_c, 0, 81, 64
2, 15750, Note_on_c, 0, 79, 107
2, 15774, Note_off_c, 0, 79, 64
2, 15780, Note_on_c, 0, 81, 107
2, 15804, Note_off_c, 0, 81, 64
2, 15810, Note_on_c, 0, 79, 107
2, 15888, Note_off_c, 0, 79, 64
2, 15900, Note_on_c, 0, 77, 107
2, 15948, Note_off_c, 0, 77, 64
2, 15960, Note_on_c, 0, 77, 107
2, 15984, Note_off_c, 0, 77, 64
2, 15990, Note_on_c, 0, 76, 107
2, 16014, Note_off_c, 0, 76, 64
2, 16020, Note_on_c, 0, 77, 107
2, 16044, Note_off_c, 0, 77, 64
2, 16050, Note_on_c, 0, 76, 107
2, 16272, Note_off_c, 0, 76, 64
2, 16320, Note_on_c, 0, 77, 107
2, 16416, Note_off_c, 0, 77, 64
2, 16440, Note_on_c, 0, 79, 107
2, 16632, Note_off_c, 0, 79, 64
2, 16680, Note_on_c, 0, 81, 107
2, 16776, Note_off_c, 0, 81, 64
2, 16800, Note_on_c, 0, 82, 107
2, 16896, Note_off_c, 0, 82, 64
2, 16920, Note_on_c, 0, 81, 107
2, 17016, Note_off_c, 0, 81, 64
2, 17040, Note_on_c, 0, 79, 107
2, 17136, Note_off_c, 0, 79, 64
2, 17160, Note_on_c, 0, 77, 107
2, 17256, Note_off_c, 0, 77, 64
2, 17280, Note_on_c, 0, 76, 107
2, 17376, Note_off_c, 0, 76, 64
2, 17400, Note_on_c, 0, 77, 107
2, 17424, Note_off_c, 0, 77, 64
2, 17430, Note_on_c, 0, 76, 107
2, 17454, Note_off_c, 0, 76, 64
2, 17460, Note_on_c, 0, 77, 107
2, 17712, Note_off_c, 0, 77, 64
2, 17760, Note_on_c, 0, 76, 107
2, 17856, Note_off_c, 0, 76, 64
2, 17880, Note_on_c, 0, 74, 107
2, 18072, Note_off_c, 0, 74, 64
2, 18120, Note_on_c, 0, 72, 107
2, 18216, Note_off_c, 0, 72, 64
2, 18240, Note_on_c, 0, 71, 107
2, 18336, Note_off_c, 0, 71, 64
2, 18360, Note_on_c, 0, 72, 107
2, 18384, Note_off_c, 0, 72, 64
2, 18390, Note_on_c, 0, 71, 107
2, 18414, Note_off_c, 0, 71, 64
2, 18420, Note_on_c, 0, 72, 107
2, 18672, Note_off_c, 0, 72, 64
2, 18720, Note_on_c, 0, 74, 107
2, 18816, Note_off_c, 0, 74, 64
2, 18840, Note_on_c, 0, 72, 107
2, 18864, Note_off_c, 0, 72, 64
2, 18870, Note_on_c, 0, 71, 107
2, 18894, Note_off_c, 0, 71, 64
2, 18900, Note_on_c, 0, 72, 107
2, 18924, Note_off_c, 0, 72, 64
2, 18930, Note_on_c, 0, 71, 107
2, 19152, Note_off_c, 0, 71, 64
2, 19200, Note_on_c, 0, 69, 107
2, 19296, Note_off_c, 0, 69, 64
2, 19320, Note_on_c, 0, 67, 107
2, 19608, Note_off_c, 0, 67, 64
2, 19680, Note_on_c, 0, 79, 107
2, 19776, Note_off_c, 0, 79, 64
2, 19800, Note_on_c, 0, 77, 107
2, 19896, Note_off_c, 0, 77, 64
2, 19920, Note_on_c, 0, 76, 107
2, 20016, Note_off_c, 0, 76, 64
2, 20040, Note_on_c, 0, 74, 107
2, 20136, Note_off_c, 0, 74, 64
2, 20160, Note_on_c, 0, 72, 107
2, 20256, Note_off_c, 0, 72, 64
2, 20280, Note_on_c, 0, 81, 107
2, 20568, Note_off_c, 0, 81, 64
2, 20640, Note_on_c, 0, 76, 107
2, 20736, Note_off_c, 0, 76, 64
2, 20760, Note_on_c, 0, 77, 107
2, 21048, Note_off_c, 0, 77, 64
2, 21120, Note_on_c, 0, 79, 107
2, 21216, Note_off_c, 0, 79, 64
2, 21240, Note_on_c, 0, 76, 107
2, 21269, Note_off_c, 0, 76, 64
2, 21270, Note_on_c, 0, 74, 107
2, 21299, Note_off_c, 0, 74, 64
2, 21300, Note_on_c, 0, 76, 107
2, 21329, Note_off_c, 0, 76, 64
2, 21330, Note_on_c, 0, 74, 107
2, 21552, Note_off_c, 0, 74, 64
2, 21600, Note_on_c, 0, 72, 107
2, 21696, Note_off_c, 0, 72, 64
2, 21720, Note_on_c, 0, 72, 107
2, 22440, Note_on_c, 0, 67, 107
2, 22440, Note_on_c, 0, 64, 107
2, 22824, Note_off_c, 0, 64, 64
2, 22824, Note_off_c, 0, 67, 64
2, 22824, Note_off_c, 0, 72, 64
2, 23040, Note_on_c, 0, 67, 107
2, 23136, Note_off_c, 0, 67, 64
2, 23160, Note_on_c, 0, 67, 107
2, 23448, Note_off_c, 0, 67, 64
2, 23520, Note_on_c, 0, 72, 107
2, 23616, Note_off_c, 0, 72, 64
2, 23640, Note_on_c, 0, 72, 107
2, 23664, Note_off_c, 0, 72, 64
2, 23670, Note_on_c, 0, 70, 107
2, 23694, Note_off_c, 0, 70, 64
2, 23700, Note_on_c, 0, 72, 107
2, 23724, Note_off_c, 0, 72, 64
2, 23730, Note_on_c, 0, 70, 107
2, 23952, Note_off_c, 0, 70, 64
2, 24000, Note_on_c, 0, 69, 107
2, 24096, Note_off_c, 0, 69, 64
2, 24120, Note_on_c, 0, 70, 107
2, 24216, Note_off_c, 0, 70, 64
2, 24240, Note_on_c, 0, 74, 107
2, 24336, Note_off_c, 0, 74, 64
2, 24360, Note_on_c, 0, 72, 107
2, 24552, Note_off_c, 0, 72, 64
2, 24600, Note_on_c, 0, 70, 107
2, 24624, Note_off_c, 0, 70, 64
2, 24630, Note_on_c, 0, 69, 107
2, 24654, Note_off_c, 0, 69, 64
2, 24660, Note_on_c, 0, 70, 107
2, 24684, Note_off_c, 0, 70, 64
2, 24690, Note_on_c, 0, 69, 107
2, 24714, Note_off_c, 0, 69, 64
2, 24720, Note_on_c, 0, 72, 107
2, 24816, Note_off_c, 0, 72, 64
2, 24840, Note_on_c, 0, 74, 107
2, 24936, Note_off_c, 0, 74, 64
2, 24960, Note_on_c, 0, 75, 107
2, 25056, Note_off_c, 0, 75, 64
2, 25080, Note_on_c, 0, 77, 107
2, 25176, Note_off_c, 0, 77, 64
2, 25200, Note_on_c, 0, 69, 107
2, 25296, Note_off_c, 0, 69, 64
2, 25320, Note_on_c, 0, 70, 107
2, 25416, Note_off_c, 0, 70, 64
2, 25440, Note_on_c, 0, 79, 107
2, 25536, Note_off_c, 0, 79, 64
2, 25560, Note_on_c, 0, 72, 107
2, 25656, Note_off_c, 0, 72, 64
2, 25680, Note_on_c, 0, 75, 107
2, 25776, Note_off_c, 0, 75, 64
2, 25800, Note_on_c, 0, 74, 107
2, 25896, Note_off_c, 0, 74, 64
2, 25920, Note_on_c, 0, 75, 107
2, 26016, Note_off_c, 0, 75, 64
2, 26040, Note_on_c, 0, 75, 107
2, 26136, Note_off_c, 0, 75, 64
2, 26160, Note_on_c, 0, 74, 107
2, 26256, Note_off_c, 0, 74, 64
2, 26280, Note_on_c, 0, 72, 107
2, 26376, Note_off_c, 0, 72, 64
2, 26400, Note_on_c, 0, 70, 107
2, 26496, Note_off_c, 0, 70, 64
2, 26520, Note_on_c, 0, 74, 107
2, 26520, Note_on_c, 0, 70, 107
2, 26808, Note_off_c, 0, 74, 64
2, 26880, Note_on_c, 0, 75, 107
2, 26904, Note_off_c, 0, 70, 64
2, 26976, Note_off_c, 0, 75, 64
2, 27000, Note_on_c, 0, 70, 107
2, 27000, Note_on_c, 0, 74, 107
2, 27024, Note_off_c, 0, 74, 64
2, 27030, Note_on_c, 0, 72, 107
2, 27054, Note_off_c, 0, 72, 64
2, 27060, Note_on_c, 0, 74, 107
2, 27084, Note_off_c, 0, 74, 64
2, 27090, Note_on_c, 0, 72, 107
2, 27312, Note_off_c, 0, 72, 64
2, 27360, Note_on_c, 0, 72, 107
2, 27384, Note_off_c, 0, 70, 64
2, 27456, Note_off_c, 0, 72, 64
2, 27480, Note_on_c, 0, 72, 107
2, 27480, Note_on_c, 0, 69, 107
2, 27504, Note_off_c, 0, 72, 64
2, 27510, Note_on_c, 0, 70, 107
2, 27534, Note_off_c, 0, 70, 64
2, 27540, Note_on_c, 0, 72, 107
2, 27792, Note_off_c, 0, 72, 64
2, 27840, Note_on_c, 0, 74, 107
2, 27864, Note_off_c, 0, 69, 64
2, 27936, Note_off_c, 0, 74, 64
2, 27960, Note_on_c, 0, 67, 107
2, 27960, Note_on_c, 0, 72, 107
2, 27984, Note_off_c, 0, 72, 64
2, 27990, Note_on_c, 0, 70, 107
2, 28014, Note_off_c, 0, 70, 64
2, 28020, Note_on_c, 0, 72, 107
2, 28044, Note_off_c, 0, 72, 64
2, 28050, Note_on_c, 0, 70, 107
2, 28272, Note_off_c, 0, 70, 64
2, 28320, Note_on_c, 0, 69, 107
2, 28344, Note_off_c, 0, 67, 64
2, 28416, Note_off_c, 0, 69, 64
2, 28440, Note_on_c, 0, 70, 107
2, 28440, Note_on_c, 0, 66, 107
2, 28464, Note_off_c, 0, 70, 64
2, 28470, Note_on_c, 0, 69, 107
2, 28494, Note_off_c, 0, 69, 64
2, 28500, Note_on_c, 0, 70, 107
2, 28524, Note_off_c, 0, 70, 64
2, 28530, Note_on_c, 0, 69, 107
2, 28752, Note_off_c, 0, 69, 64
2, 28800, Note_on_c, 0, 67, 107
2, 28896, Note_off_c, 0, 67, 64
2, 28920, Note_on_c, 0, 67, 107
2, 28920, Note_on_c, 0, 67, 107
2, 29016, Note_off_c, 0, 66, 64
2, 29496, Note_off_c, 0, 67, 64
2, 29496, Note_off_c, 0, 67, 64
2, 29640, Note_on_c, 0, 79, 107
2, 29832, Note_off_c, 0, 79, 64
2, 29880, Note_on_c, 0, 76, 107
2, 29904, Note_off_c, 0, 76, 64
2, 29910, Note_on_c, 0, 74, 107
2, 29934, Note_off_c, 0, 74, 64
2, 29940, Note_on_c, 0, 76, 107
2, 29964, Note_off_c, 0, 76, 64
2, 29970, Note_on_c, 0, 74, 107
2, 30192, Note_off_c, 0, 74, 64
2, 30240, Note_on_c, 0, 76, 107
2, 30336, Note_off_c, 0, 76, 64
2, 30360, Note_on_c, 0, 77, 107
2, 30384, Note_off_c, 0, 77, 64
2, 30390, Note_on_c, 0, 76, 107
2, 30414, Note_off_c, 0, 76, 64
2, 30420, Note_on_c, 0, 77, 107
2, 30672, Note_off_c, 0, 77, 64
2, 30720, Note_on_c, 0, 76, 107
2, 30816, Note_off_c, 0, 76, 64
2, 30840, Note_on_c, 0, 74, 107
2, 31032, Note_off_c, 0, 74, 64
2, 31080, Note_on_c, 0, 72, 107
2, 31176, Note_off_c, 0, 72, 64
2, 31200, Note_on_c, 0, 70, 107
2, 31296, Note_off_c, 0, 70, 64
2, 31320, Note_on_c, 0, 70, 107
2, 31344, Note_off_c, 0, 70, 64
2, 31350, Note_on_c, 0, 69, 107
2, 31374, Note_off_c, 0, 69, 64
2, 31380, Note_on_c, 0, 70, 107
2, 31404, Note_off_c, 0, 70, 64
2, 31410, Note_on_c, 0, 69, 107
2, 31632, Note_off_c, 0, 69, 64
2, 31680, Note_on_c, 0, 70, 107
2, 31776, Note_off_c, 0, 70, 64
2, 31800, Note_on_c, 0, 72, 107
2, 32088, Note_off_c, 0, 72, 64
2, 32160, Note_on_c, 0, 70, 107
2, 32256, Note_off_c, 0, 70, 64
2, 32280, Note_on_c, 0, 69, 107
2, 32472, Note_off_c, 0, 69, 64
2, 32520, Note_on_c, 0, 67, 107
2, 32616, Note_off_c, 0, 67, 64
2, 32640, Note_on_c, 0, 65, 107
2, 32736, Note_off_c, 0, 65, 64
2, 32760, Note_on_c, 0, 70, 107
2, 32784, Note_off_c, 0, 70, 64
2, 32790, Note_on_c, 0, 69, 107
2, 32814, Note_off_c, 0, 69, 64
2, 32820, Note_on_c, 0, 70, 107
2, 33072, Note_off_c, 0, 70, 64
2, 33120, Note_on_c, 0, 72, 107
2, 33216, Note_off_c, 0, 72, 64
2, 33240, Note_on_c, 0, 74, 107
2, 33264, Note_off_c, 0, 74, 64
2, 33270, Note_on_c, 0, 72, 107
2, 33294, Note_off_c, 0, 72, 64
2, 33300, Note_on_c, 0, 74, 107
2, 33552, Note_off_c, 0, 74, 64
2, 33600, Note_on_c, 0, 72, 107
2, 33696, Note_off_c, 0, 72, 64
2, 33720, Note_on_c, 0, 70, 107
2, 33816, Note_off_c, 0, 70, 64
2, 33840, Note_on_c, 0, 69, 107
2, 33936, Note_off_c, 0, 69, 64
2, 33960, Note_on_c, 0, 67, 107
2, 34056, Note_off_c, 0, 67, 64
2, 34080, Note_on_c, 0, 70, 107
2, 34176, Note_off_c, 0, 70, 64
2, 34200, Note_on_c, 0, 69, 107
2, 34296, Note_off_c, 0, 69, 64
2, 34320, Note_on_c, 0, 67, 107
2, 34416, Note_off_c, 0, 67, 64
2, 34440, Note_on_c, 0, 69, 107
2, 34536, Note_off_c, 0, 69, 64
2, 34560, Note_on_c, 0, 65, 107
2, 34656, Note_off_c, 0, 65, 64
2, 34680, Note_on_c, 0, 64, 107
2, 34968, Note_off_c, 0, 64, 64
2, 35040, Note_on_c, 0, 62, 107
2, 35136, Note_off_c, 0, 62, 64
2, 35160, Note_on_c, 0, 60, 107
2, 35352, Note_off_c, 0, 60, 64
2, 35400, Note_on_c, 0, 72, 107
2, 35592, Note_off_c, 0, 72, 64
2, 35640, Note_on_c, 0, 77, 107
2, 35664, Note_off_c, 0, 77, 64
2, 35670, Note_on_c, 0, 76, 107
2, 35694, Note_off_c, 0, 76, 64
2, 35700, Note_on_c, 0, 77, 107
2, 35952, Note_off_c, 0, 77, 64
2, 36000, Note_on_c, 0, 79, 107
2, 36048, Note_off_c, 0, 79, 64
2, 36060, Note_on_c, 0, 81, 107
2, 36108, Note_off_c, 0, 81, 64
2, 36120, Note_on_c, 0, 81, 107
2, 36312, Note_off_c, 0, 81, 64
2, 36360, Note_on_c, 0, 79, 107
2, 36456, Note_off_c, 0, 79, 64
2, 36480, Note_on_c, 0, 77, 107
2, 36576, Note_off_c, 0, 77, 64
2, 36600, Note_on_c, 0, 76, 107
2, 36696, Note_off_c, 0, 76, 64
2, 36720, Note_on_c, 0, 74, 107
2, 36816, Note_off_c, 0, 74, 64
2, 36840, Note_on_c, 0, 82, 107
2, 37032, Note_off_c, 0, 82, 64
2, 37080, Note_on_c, 0, 77, 107
2, 37104, Note_off_c, 0, 77, 64
2, 37110, Note_on_c, 0, 76, 107
2, 37134, Note_off_c, 0, 76, 64
2, 37140, Note_on_c, 0, 77, 107
2, 37164, Note_off_c, 0, 77, 64
2, 37170, Note_on_c, 0, 76, 107
2, 37392, Note_off_c, 0, 76, 64
2, 37440, Note_on_c, 0, 77, 107
2, 37536, Note_off_c, 0, 77, 64
2, 37560, Note_on_c, 0, 70, 107
2, 37560, Note_on_c, 0, 67, 107
2, 37584, Note_off_c, 0, 70, 64
2, 37590, Note_on_c, 0, 69, 107
2, 37614, Note_off_c, 0, 69, 64
2, 37620, Note_on_c, 0, 70, 107
2, 37872, Note_off_c, 0, 70, 64
2, 37920, Note_on_c, 0, 72, 107
2, 37944, Note_off_c, 0, 67, 64
2, 38016, Note_off_c, 0, 72, 64
2, 38040, Note_on_c, 0, 70, 107
2, 38040, Note_on_c, 0, 65, 107
2, 38064, Note_off_c, 0, 70, 64
2, 38070, Note_on_c, 0, 69, 107
2, 38094, Note_off_c, 0, 69, 64
2, 38100, Note_on_c, 0, 70, 107
2, 38124, Note_off_c, 0, 70, 64
2, 38130, Note_on_c, 0, 69, 107
2, 38352, Note_off_c, 0, 69, 64
2, 38400, Note_on_c, 0, 67, 107
2, 38424, Note_off_c, 0, 65, 64
2, 38496, Note_off_c, 0, 67, 64
2, 38520, Note_on_c, 0, 64, 107
2, 38520, Note_on_c, 0, 69, 107
2, 38544, Note_off_c, 0, 69, 64
2, 38550, Note_on_c, 0, 67, 107
2, 38574, Note_off_c, 0, 67, 64
2, 38580, Note_on_c, 0, 69, 107
2, 38604, Note_off_c, 0, 69, 64
2, 38610, Note_on_c, 0, 67, 107
2, 38832, Note_off_c, 0, 67, 64
2, 38880, Note_on_c, 0, 65, 107
2, 38904, Note_off_c, 0, 64, 64
2, 38976, Note_off_c, 0, 65, 64
2, 39000, Note_on_c, 0, 65, 107
2, 39720, Note_on_c, 0, 60, 107
2, 39720, Note_on_c, 0, 57, 107
2, 40104, Note_off_c, 0, 65, 64
2, 40104, Note_off_c, 0, 57, 64
2, 40104, Note_off_c, 0, 60, 64
2, 40320, Note_on_c, 0, 67, 107
2, 40416, Note_off_c, 0, 67, 64
2, 40440, Note_on_c, 0, 67, 107
2, 40728, Note_off_c, 0, 67, 64
2, 40800, Note_on_c, 0, 72, 107
2, 40896, Note_off_c, 0, 72, 64
2, 40920, Note_on_c, 0, 72, 107
2, 40944, Note_off_c, 0, 72, 64
2, 40950, Note_on_c, 0, 70, 107
2, 40974, Note_off_c, 0, 70, 64
2, 40980, Note_on_c, 0, 72, 107
2, 41004, Note_off_c, 0, 72, 64
2, 41010, Note_on_c, 0, 70, 107
2, 41232, Note_off_c, 0, 70, 64
2, 41280, Note_on_c, 0, 69, 107
2, 41376, Note_off_c, 0, 69, 64
2, 41400, Note_on_c, 0, 70, 107
2, 41496, Note_off_c, 0, 70, 64
2, 41520, Note_on_c, 0, 74, 107
2, 41616, Note_off_c, 0, 74, 64
2, 41640, Note_on_c, 0, 72, 107
2, 41832, Note_off_c, 0, 72, 64
2, 41880, Note_on_c, 0, 70, 107
2, 41904, Note_off_c, 0, 70, 64
2, 41910, Note_on_c, 0, 69, 107
2, 41934, Note_off_c, 0, 69, 64
2, 41940, Note_on_c, 0, 70, 107
2, 41964, Note_off_c, 0, 70, 64
2, 41970, Note_on_c, 0, 69, 107
2, 41994, Note_off_c, 0, 69, 64
2, 42000, Note_on_c, 0, 72, 107
2, 42096, Note_off_c, 0, 72, 64
2, 42120, Note_on_c, 0, 74, 107
2, 42216, Note_off_c, 0, 74, 64
2, 42240, Note_on_c, 0, 75, 107
2, 42336, Note_off_c, 0, 75, 64
2, 42360, Note_on_c, 0, 77, 107
2, 42456, Note_off_c, 0, 77, 64
2, 42480, Note_on_c, 0, 69, 107
2, 42576, Note_off_c, 0, 69, 64
2, 42600, Note_on_c, 0, 70, 107
2, 42696, Note_off_c, 0, 70, 64
2, 42720, Note_on_c, 0, 79, 107
2, 42816, Note_off_c, 0, 79, 64
2, 42840, Note_on_c, 0, 72, 107
2, 42936, Note_off_c, 0, 72, 64
2, 42960, Note_on_c, 0, 75, 107
2, 43056, Note_off_c, 0, 75, 64
2, 43080, Note_on_c, 0, 74, 107
2, 43176, Note_off_c, 0, 74, 64
2, 43200, Note_on_c, 0, 75, 107
2, 43296, Note_off_c, 0, 75, 64
2, 43320, Note_on_c, 0, 75, 107
2, 43416, Note_off_c, 0, 75, 64
2, 43440, Note_on_c, 0, 74, 107
2, 43536, Note_off_c, 0, 74, 64
2, 43560, Note_on_c, 0, 72, 107
2, 43656, Note_off_c, 0, 72, 64
2, 43680, Note_on_c, 0, 70, 107
2, 43776, Note_off_c, 0, 70, 64
2, 43800, Note_on_c, 0, 74, 107
2, 43800, Note_on_c, 0, 70, 107
2, 44088, Note_off_c, 0, 74, 64
2, 44160, Note_on_c, 0, 75, 107
2, 44184, Note_off_c, 0, 70, 64
2, 44256, Note_off_c, 0, 75, 64
2, 44280, Note_on_c, 0, 70, 107
2, 44280, Note_on_c, 0, 74, 107
2, 44304, Note_off_c, 0, 74, 64
2, 44310, Note_on_c, 0, 72, 107
2, 44334, Note_off_c, 0, 72, 64
2, 44340, Note_on_c, 0, 74, 107
2, 44364, Note_off_c, 0, 74, 64
2, 44370, Note_on_c, 0, 72, 107
2, 44592, Note_off_c, 0, 72, 64
2, 44640, Note_on_c, 0, 72, 107
2, 44664, Note_off_c, 0, 70, 64
2, 44736, Note_off_c, 0, 72, 64
2, 44760, Note_on_c, 0, 72, 107
2, 44760, Note_on_c, 0, 69, 107
2, 44784, Note_off_c, 0, 72, 64
2, 44790, Note_on_c, 0, 70, 107
2, 44814, Note_off_c, 0, 70, 64
2, 44820, Note_on_c, 0, 72, 107
2, 45072, Note_off_c, 0, 72, 64
2, 45120, Note_on_c, 0, 74, 107
2, 45144, Note_off_c, 0, 69, 64
2, 45216, Note_off_c, 0, 74, 64
2, 45240, Note_on_c, 0, 67, 107
2, 45240, Note_on_c, 0, 72, 107
2, 45264, Note_off_c, 0, 72, 64
2, 45270, Note_on_c, 0, 70, 107
2, 45294, Note_off_c, 0, 70, 64
2, 45300, Note_on_c, 0, 72, 107
2, 45324, Note_off_c, 0, 72, 64
2, 45330, Note_on_c, 0, 70, 107
2, 45552, Note_off_c, 0, 70, 64
2, 45600, Note_on_c, 0, 69, 107
2, 45624, Note_off_c, 0, 67, 64
2, 45696, Note_off_c, 0, 69, 64
2, 45720, Note_on_c, 0, 70, 107
2, 45720, Note_on_c, 0, 66, 107
2, 45744, Note_off_c, 0, 70, 64
2, 45750, Note_on_c, 0, 69, 107
2, 45774, Note_off_c, 0, 69, 64
2, 45780, Note_on_c, 0, 70, 107
2, 45804, Note_off_c, 0, 70, 64
2, 45810, Note_on_c, 0, 69, 107
2, 46032, Note_off_c, 0, 69, 64
2, 46080, Note_on_c, 0, 67, 107
2, 46176, Note_off_c, 0, 67, 64
2, 46200, Note_on_c, 0, 67, 107
2, 46200, Note_on_c, 0, 67, 107
2, 46296, Note_off_c, 0, 66, 64
2, 46776, Note_off_c, 0, 67, 64
2, 46776, Note_off_c, 0, 67, 64
2, 46920, Note_on_c, 0, 79, 107
2, 47112, Note_off_c, 0, 79, 64
2, 47160, Note_on_c, 0, 76, 107
2, 47184, Note_off_c, 0, 76, 64
2, 47190, Note_on_c, 0, 74, 107
2, 47214, Note_off_c, 0, 74, 64
2, 47220, Note_on_c, 0, 76, 107
2, 47244, Note_off_c, 0, 76, 64
2, 47250, Note_on_c, 0, 74, 107
2, 47472, Note_off_c, 0, 74, 64
2, 47520, Note_on_c, 0, 76, 107
2, 47616, Note_off_c, 0, 76, 64
2, 47640, Note_on_c, 0, 77, 107
2, 47664, Note_off_c, 0, 77, 64
2, 47670, Note_on_c, 0, 76, 107
2, 47694, Note_off_c, 0, 76, 64
2, 47700, Note_on_c, 0, 77, 107
2, 47952, Note_off_c, 0, 77, 64
2, 48000, Note_on_c, 0, 76, 107
2, 48096, Note_off_c, 0, 76, 64
2, 48120, Note_on_c, 0, 74, 107
2, 48312, Note_off_c, 0, 74, 64
2, 48360, Note_on_c, 0, 72, 107
2, 48456, Note_off_c, 0, 72, 64
2, 48480, Note_on_c, 0, 70, 107
2, 48576, Note_off_c, 0, 70, 64
2, 48600, Note_on_c, 0, 70, 107
2, 48624, Note_off_c, 0, 70, 64
2, 48630, Note_on_c, 0, 69, 107
2, 48654, Note_off_c, 0, 69, 64
2, 48660, Note_on_c, 0, 70, 107
2, 48684, Note_off_c, 0, 70, 64
2, 48690, Note_on_c, 0, 69, 107
2, 48912, Note_off_c, 0, 69, 64
2, 48960, Note_on_c, 0, 70, 107
2, 49056, Note_off_c, 0, 70, 64
2, 49080, Note_on_c, 0, 72, 107
2, 49368, Note_off_c, 0, 72, 64
2, 49440, Note_on_c, 0, 70, 107
2, 49536, Note_off_c, 0, 70, 64
2, 49560, Note_on_c, 0, 69, 107
2, 49752, Note_off_c, 0, 69, 64
2, 49800, Note_on_c, 0, 67, 107
2, 49896, Note_off_c, 0, 67, 64
2, 49920, Note_on_c, 0, 65, 107
2, 50016, Note_off_c, 0, 65, 64
2, 50040, Note_on_c, 0, 70, 107
2, 50064, Note_off_c, 0, 70, 64
2, 50070, Note_on_c, 0, 69, 107
2, 50094, Note_off_c, 0, 69, 64
2, 50100, Note_on_c, 0, 70, 107
2, 50352, Note_off_c, 0, 70, 64
2, 50400, Note_on_c, 0, 72, 107
2, 50496, Note_off_c, 0, 72, 64
2, 50520, Note_on_c, 0, 74, 107
2, 50544, Note_off_c, 0, 74, 64
2, 50550, Note_on_c, 0, 72, 107
2, 50574, Note_off_c, 0, 72, 64
2, 50580, Note_on_c, 0, 74, 107
2, 50832, Note_off_c, 0, 74, 64
2, 50880, Note_on_c, 0, 72, 107
2, 50976, Note_off_c, 0, 72, 64
2, 51000, Note_on_c, 0, 70, 107
2, 51096, Note_off_c, 0, 70, 64
2, 51120, Note_on_c, 0, 69, 107
2, 51216, Note_off_c, 0, 69, 64
2, 51240, Note_on_c, 0, 67, 107
2, 51336, Note_off_c, 0, 67, 64
2, 51360, Note_on_c, 0, 70, 107
2, 51456, Note_off_c, 0, 70, 64
2, 51480, Note_on_c, 0, 69, 107
2, 51576, Note_off_c, 0, 69, 64
2, 51600, Note_on_c, 0, 67, 107
2, 51696, Note_off_c, 0, 67, 64
2, 51720, Note_on_c, 0, 69, 107
2, 51816, Note_off_c, 0, 69, 64
2, 51840, Note_on_c, 0, 65, 107
2, 51936, Note_off_c, 0, 65, 64
2, 51960, Note_on_c, 0, 64, 107
2, 52248, Note_off_c, 0, 64, 64
2, 52320, Note_on_c, 0, 62, 107
2, 52416, Note_off_c, 0, 62, 64
2, 52440, Note_on_c, 0, 60, 107
2, 52632, Note_off_c, 0, 60, 64
2, 52680, Note_on_c, 0, 72, 107
2, 52872, Note_off_c, 0, 72, 64
2, 52920, Note_on_c, 0, 77, 107
2, 52944, Note_off_c, 0, 77, 64
2, 52950, Note_on_c, 0, 76, 107
2, 52974, Note_off_c, 0, 76, 64
2, 52980, Note_on_c, 0, 77, 107
2, 53232, Note_off_c, 0, 77, 64
2, 53280, Note_on_c, 0, 79, 107
2, 53328, Note_off_c, 0, 79, 64
2, 53340, Note_on_c, 0, 81, 107
2, 53388, Note_off_c, 0, 81, 64
2, 53400, Note_on_c, 0, 81, 107
2, 53592, Note_off_c, 0, 81, 64
2, 53640, Note_on_c, 0, 79, 107
2, 53736, Note_off_c, 0, 79, 64
2, 53760, Note_on_c, 0, 77, 107
2, 53856, Note_off_c, 0, 77, 64
2, 53880, Note_on_c, 0, 76, 107
2, 53976, Note_off_c, 0, 76, 64
2, 54000, Note_on_c, 0, 74, 107
2, 54096, Note_off_c, 0, 74, 64
2, 54120, Note_on_c, 0, 82, 107
2, 54312, Note_off_c, 0, 82, 64
2, 54360, Note_on_c, 0, 77, 107
2, 54384, Note_off_c, 0, 77, 64
2, 54390, Note_on_c, 0, 76, 107
2, 54414, Note_off_c, 0, 76, 64
2, 54420, Note_on_c, 0, 77, 107
2, 54444, Note_off_c, 0, 77, 64
2, 54450, Note_on_c, 0, 76, 107
2, 54672, Note_off_c, 0, 76, 64
2, 54720, Note_on_c, 0, 77, 107
2, 54816, Note_off_c, 0, 77, 64
2, 54840, Note_on_c, 0, 70, 107
2, 54840, Note_on_c, 0, 67, 107
2, 54864, Note_off_c, 0, 70, 64
2, 54870, Note_on_c, 0, 69, 107
2, 54894, Note_off_c, 0, 69, 64
2, 54900, Note_on_c, 0, 70, 107
2, 55152, Note_off_c, 0, 70, 64
2, 55200, Note_on_c, 0, 72, 107
2, 55224, Note_off_c, 0, 67, 64
2, 55296, Note_off_c, 0, 72, 64
2, 55320, Note_on_c, 0, 70, 107
2, 55320, Note_on_c, 0, 65, 107
2, 55344, Note_off_c, 0, 70, 64
2, 55350, Note_on_c, 0, 69, 107
2, 55374, Note_off_c, 0, 69, 64
2, 55380, Note_on_c, 0, 70, 107
2, 55404, Note_off_c, 0, 70, 64
2, 55410, Note_on_c, 0, 69, 107
2, 55632, Note_off_c, 0, 69, 64
2, 55680, Note_on_c, 0, 67, 107
2, 55704, Note_off_c, 0, 65, 64
2, 55776, Note_off_c, 0, 67, 64
2, 55800, Note_on_c, 0, 64, 107
2, 55800, Note_on_c, 0, 69, 107
2, 55824, Note_off_c, 0, 69, 64
2, 55830, Note_on_c, 0, 67, 107
2, 55854, Note_off_c, 0, 67, 64
2, 55860, Note_on_c, 0, 69, 107
2, 55884, Note_off_c, 0, 69, 64
2, 55890, Note_on_c, 0, 67, 107
2, 56112, Note_off_c, 0, 67, 64
2, 56160, Note_on_c, 0, 65, 107
2, 56184, Note_off_c, 0, 64, 64
2, 56256, Note_off_c, 0, 65, 64
2, 56280, Note_on_c, 0, 65, 107
2, 57000, Note_on_c, 0, 60, 107
2, 57000, Note_on_c, 0, 57, 107
2, 57384, Note_off_c, 0, 65, 64
2, 57384, Note_off_c, 0, 57, 64
2, 57384, Note_off_c, 0, 60, 64
2, 57384, End_track
3, 0, Start_track
3, 0, Title_t, "J.S. Bach, Edition Kalmus"
3, 0, Program_c, 1, 0
3, 120, Note_on_c, 1, 53, 107
3, 240, Note_on_c, 1, 55, 107
3, 336, Note_off_c, 1, 55, 64
3, 360, Note_on_c, 1, 57, 107
3, 552, Note_off_c, 1, 57, 64
3, 600, Note_on_c, 1, 58, 107
3, 792, Note_off_c, 1, 58, 64
3, 840, Note_on_c, 1, 60, 107
3, 888, Note_off_c, 1, 53, 64
3, 1032, Note_off_c, 1, 60, 64
3, 1080, Note_on_c, 1, 62, 107
3, 1272, Note_off_c, 1, 62, 64
3, 1320, Note_on_c, 1, 64, 107
3, 1512, Note_off_c, 1, 64, 64
3, 1560, Note_on_c, 1, 65, 107
3, 1848, Note_off_c, 1, 65, 64
3, 1920, Note_on_c, 1, 60, 107
3, 2016, Note_off_c, 1, 60, 64
3, 2040, Note_on_c, 1, 62, 107
3, 2328, Note_off_c, 1, 62, 64
3, 2400, Note_on_c, 1, 65, 107
3, 2496, Note_off_c, 1, 65, 64
3, 2520, Note_on_c, 1, 60, 107
3, 2712, Note_off_c, 1, 60, 64
3, 2760, Note_on_c, 1, 60, 107
3, 2789, Note_off_c, 1, 60, 64
3, 2790, Note_on_c, 1, 58, 107
3, 2819, Note_off_c, 1, 58, 64
3, 2820, Note_on_c, 1, 60, 107
3, 2849, Note_off_c, 1, 60, 64
3, 2850, Note_on_c, 1, 58, 107
3, 2879, Note_off_c, 1, 58, 64
3, 2880, Note_on_c, 1, 57, 107
3, 2928, Note_off_c, 1, 57, 64
3, 2940, Note_on_c, 1, 58, 107
3, 2988, Note_off_c, 1, 58, 64
3, 3000, Note_on_c, 1, 57, 107
3, 3096, Note_off_c, 1, 57, 64
3, 3120, Note_on_c, 1, 53, 107
3, 3216, Note_off_c, 1, 53, 64
3, 3240, Note_on_c, 1, 55, 107
3, 3336, Note_off_c, 1, 55, 64
3, 3360, Note_on_c, 1, 57, 107
3, 3456, Note_off_c, 1, 57, 64
3, 3480, Note_on_c, 1, 58, 107
3, 3576, Note_off_c, 1, 58, 64
3, 3600, Note_on_c, 1, 60, 107
3, 3696, Note_off_c, 1, 60, 64
3, 3720, Note_on_c, 1, 57, 107
3, 3816, Note_off_c, 1, 57, 64
3, 3840, Note_on_c, 1, 58, 107
3, 3936, Note_off_c, 1, 58, 64
3, 3960, Note_on_c, 1, 60, 107
3, 4056, Note_off_c, 1, 60, 64
3, 4080, Note_on_c, 1, 59, 107
3, 4176, Note_off_c, 1, 59, 64
3, 4200, Note_on_c, 1, 57, 107
3, 4296, Note_off_c, 1, 57, 64
3, 4320, Note_on_c, 1, 55, 107
3, 4416, Note_off_c, 1, 55, 64
3, 4440, Note_on_c, 1, 60, 107
3, 4536, Note_off_c, 1, 60, 64
3, 4560, Note_on_c, 1, 59, 107
3, 4656, Note_off_c, 1, 59, 64
3, 4680, Note_on_c, 1, 60, 107
3, 4776, Note_off_c, 1, 60, 64
3, 4800, Note_on_c, 1, 62, 107
3, 4896, Note_off_c, 1, 62, 64
3, 4920, Note_on_c, 1, 64, 107
3, 5016, Note_off_c, 1, 64, 64
3, 5040, Note_on_c, 1, 67, 107
3, 5136, Note_off_c, 1, 67, 64
3, 5160, Note_on_c, 1, 65, 107
3, 5256, Note_off_c, 1, 65, 64
3, 5280, Note_on_c, 1, 67, 107
3, 5376, Note_off_c, 1, 67, 64
3, 5400, Note_on_c, 1, 61, 107
3, 5592, Note_off_c, 1, 61, 64
3, 5640, Note_on_c, 1, 57, 107
3, 5832, Note_off_c, 1, 57, 64
3, 5880, Note_on_c, 1, 62, 107
3, 6072, Note_off_c, 1, 62, 64
3, 6120, Note_on_c, 1, 50, 107
3, 6216, Note_off_c, 1, 50, 64
3, 6240, Note_on_c, 1, 52, 107
3, 6336, Note_off_c, 1, 52, 64
3, 6360, Note_on_c, 1, 53, 107
3, 6456, Note_off_c, 1, 53, 64
3, 6480, Note_on_c, 1, 55, 107
3, 6576, Note_off_c, 1, 55, 64
3, 6600, Note_on_c, 1, 52, 107
3, 6696, Note_off_c, 1, 52, 64
3, 6720, Note_on_c, 1, 53, 107
3, 6816, Note_off_c, 1, 53, 64
3, 6840, Note_on_c, 1, 55, 107
3, 6936, Note_off_c, 1, 55, 64
3, 6960, Note_on_c, 1, 54, 107
3, 7056, Note_off_c, 1, 54, 64
3, 7080, Note_on_c, 1, 52, 107
3, 7176, Note_off_c, 1, 52, 64
3, 7200, Note_on_c, 1, 50, 107
3, 7296, Note_off_c, 1, 50, 64
3, 7320, Note_on_c, 1, 55, 107
3, 7416, Note_off_c, 1, 55, 64
3, 7440, Note_on_c, 1, 57, 107
3, 7536, Note_off_c, 1, 57, 64
3, 7560, Note_on_c, 1, 55, 107
3, 7656, Note_off_c, 1, 55, 64
3, 7680, Note_on_c, 1, 53, 107
3, 7776, Note_off_c, 1, 53, 64
3, 7800, Note_on_c, 1, 52, 107
3, 7896, Note_off_c, 1, 52, 64
3, 7920, Note_on_c, 1, 55, 107
3, 8016, Note_off_c, 1, 55, 64
3, 8040, Note_on_c, 1, 53, 107
3, 8136, Note_off_c, 1, 53, 64
3, 8160, Note_on_c, 1, 52, 107
3, 8256, Note_off_c, 1, 52, 64
3, 8280, Note_on_c, 1, 50, 107
3, 8376, Note_off_c, 1, 50, 64
3, 8400, Note_on_c, 1, 48, 107
3, 8496, Note_off_c, 1, 48, 64
3, 8520, Note_on_c, 1, 60, 107
3, 8712, Note_off_c, 1, 60, 64
3, 8760, Note_on_c, 1, 53, 107
3, 8856, Note_off_c, 1, 53, 64
3, 8880, Note_on_c, 1, 52, 107
3, 8976, Note_off_c, 1, 52, 64
3, 9000, Note_on_c, 1, 50, 107
3, 9096, Note_off_c, 1, 50, 64
3, 9120, Note_on_c, 1, 48, 107
3, 9216, Note_off_c, 1, 48, 64
3, 9240, Note_on_c, 1, 47, 107
3, 9336, Note_off_c, 1, 47, 64
3, 9360, Note_on_c, 1, 43, 107
3, 9456, Note_off_c, 1, 43, 64
3, 9480, Note_on_c, 1, 48, 107
3, 9672, Note_off_c, 1, 48, 64
3, 9720, Note_on_c, 1, 55, 107
3, 9912, Note_off_c, 1, 55, 64
3, 9960, Note_on_c, 1, 43, 107
3, 10152, Note_off_c, 1, 43, 64
3, 10200, Note_on_c, 1, 48, 107
3, 10440, Note_on_c, 1, 36, 107
3, 10584, Note_off_c, 1, 48, 64
3, 10680, Note_on_c, 1, 43, 107
3, 10872, Note_off_c, 1, 43, 64
3, 10920, Note_on_c, 1, 48, 107
3, 11304, Note_off_c, 1, 36, 64
3, 11304, Note_off_c, 1, 48, 64
3, 11640, Note_on_c, 1, 53, 107
3, 11760, Note_on_c, 1, 55, 107
3, 11856, Note_off_c, 1, 55, 64
3, 11880, Note_on_c, 1, 57, 107
3, 12072, Note_off_c, 1, 57, 64
3, 12120, Note_on_c, 1, 58, 107
3, 12312, Note_off_c, 1, 58, 64
3, 12360, Note_on_c, 1, 60, 107
3, 12408, Note_off_c, 1, 53, 64
3, 12552, Note_off_c, 1, 60, 64
3, 12600, Note_on_c, 1, 62, 107
3, 12792, Note_off_c, 1, 62, 64
3, 12840, Note_on_c, 1, 64, 107
3, 13032, Note_off_c, 1, 64, 64
3, 13080, Note_on_c, 1, 65, 107
3, 13368, Note_off_c, 1, 65, 64
3, 13440, Note_on_c, 1, 60, 107
3, 13536, Note_off_c, 1, 60, 64
3, 13560, Note_on_c, 1, 62, 107
3, 13848, Note_off_c, 1, 62, 64
3, 13920, Note_on_c, 1, 65, 107
3, 14016, Note_off_c, 1, 65, 64
3, 14040, Note_on_c, 1, 60, 107
3, 14232, Note_off_c, 1, 60, 64
3, 14280, Note_on_c, 1, 60, 107
3, 14309, Note_off_c, 1, 60, 64
3, 14310, Note_on_c, 1, 58, 107
3, 14339, Note_off_c, 1, 58, 64
3, 14340, Note_on_c, 1, 60, 107
3, 14369, Note_off_c, 1, 60, 64
3, 14370, Note_on_c, 1, 58, 107
3, 14399, Note_off_c, 1, 58, 64
3, 14400, Note_on_c, 1, 57, 107
3, 14448, Note_off_c, 1, 57, 64
3, 14460, Note_on_c, 1, 58, 107
3, 14508, Note_off_c, 1, 58, 64
3, 14520, Note_on_c, 1, 57, 107
3, 14616, Note_off_c, 1, 57, 64
3, 14640, Note_on_c, 1, 53, 107
3, 14736, Note_off_c, 1, 53, 64
3, 14760, Note_on_c, 1, 55, 107
3, 14856, Note_off_c, 1, 55, 64
3, 14880, Note_on_c, 1, 57, 107
3, 14976, Note_off_c, 1, 57, 64
3, 15000, Note_on_c, 1, 58, 107
3, 15096, Note_off_c, 1, 58, 64
3, 15120, Note_on_c, 1, 60, 107
3, 15216, Note_off_c, 1, 60, 64
3, 15240, Note_on_c, 1, 57, 107
3, 15336, Note_off_c, 1, 57, 64
3, 15360, Note_on_c, 1, 58, 107
3, 15456, Note_off_c, 1, 58, 64
3, 15480, Note_on_c, 1, 60, 107
3, 15576, Note_off_c, 1, 60, 64
3, 15600, Note_on_c, 1, 59, 107
3, 15696, Note_off_c, 1, 59, 64
3, 15720, Note_on_c, 1, 57, 107
3, 15816, Note_off_c, 1, 57, 64
3, 15840, Note_on_c, 1, 55, 107
3, 15936, Note_off_c, 1, 55, 64
3, 15960, Note_on_c, 1, 60, 107
3, 16056, Note_off_c, 1, 60, 64
3, 16080, Note_on_c, 1, 59, 107
3, 16176, Note_off_c, 1, 59, 64
3, 16200, Note_on_c, 1, 60, 107
3, 16296, Note_off_c, 1, 60, 64
3, 16320, Note_on_c, 1, 62, 107
3, 16416, Note_off_c, 1, 62, 64
3, 16440, Note_on_c, 1, 64, 107
3, 16536, Note_off_c, 1, 64, 64
3, 16560, Note_on_c, 1, 67, 107
3, 16656, Note_off_c, 1, 67, 64
3, 16680, Note_on_c, 1, 65, 107
3, 16776, Note_off_c, 1, 65, 64
3, 16800, Note_on_c, 1, 67, 107
3, 16896, Note_off_c, 1, 67, 64
3, 16920, Note_on_c, 1, 61, 107
3, 17112, Note_off_c, 1, 61, 64
3, 17160, Note_on_c, 1, 57, 107
3, 17352, Note_off_c, 1, 57, 64
3, 17400, Note_on_c, 1, 62, 107
3, 17592, Note_off_c, 1, 62, 64
3, 17640, Note_on_c, 1, 50, 107
3, 17736, Note_off_c, 1, 50, 64
3, 17760, Note_on_c, 1, 52, 107
3, 17856, Note_off_c, 1, 52, 64
3, 17880, Note_on_c, 1, 53, 107
3, 17976, Note_off_c, 1, 53, 64
3, 18000, Note_on_c, 1, 55, 107
3, 18096, Note_off_c, 1, 55, 64
3, 18120, Note_on_c, 1, 52, 107
3, 18216, Note_off_c, 1, 52, 64
3, 18240, Note_on_c, 1, 53, 107
3, 18336, Note_off_c, 1, 53, 64
3, 18360, Note_on_c, 1, 55, 107
3, 18456, Note_off_c, 1, 55, 64
3, 18480, Note_on_c, 1, 54, 107
3, 18576, Note_off_c, 1, 54, 64
3, 18600, Note_on_c, 1, 52, 107
3, 18696, Note_off_c, 1, 52, 64
3, 18720, Note_on_c, 1, 50, 107
3, 18816, Note_off_c, 1, 50, 64
3, 18840, Note_on_c, 1, 55, 107
3, 18936, Note_off_c, 1, 55, 64
3, 18960, Note_on_c, 1, 57, 107
3, 19056, Note_off_c, 1, 57, 64
3, 19080, Note_on_c, 1, 55, 107
3, 19176, Note_off_c, 1, 55, 64
3, 19200, Note_on_c, 1, 53, 107
3, 19296, Note_off_c, 1, 53, 64
3, 19320, Note_on_c, 1, 52, 107
3, 19416, Note_off_c, 1, 52, 64
3, 19440, Note_on_c, 1, 55, 107
3, 19536, Note_off_c, 1, 55, 64
3, 19560, Note_on_c, 1, 53, 107
3, 19656, Note_off_c, 1, 53, 64
3, 19680, Note_on_c, 1, 52, 107
3, 19776, Note_off_c, 1, 52, 64
3, 19800, Note_on_c, 1, 50, 107
3, 19896, Note_off_c, 1, 50, 64
3, 19920, Note_on_c, 1, 48, 107
3, 20016, Note_off_c, 1, 48, 64
3, 20040, Note_on_c, 1, 60, 107
3, 20232, Note_off_c, 1, 60, 64
3, 20280, Note_on_c, 1, 53, 107
3, 20376, Note_off_c, 1, 53, 64
3, 20400, Note_on_c, 1, 52, 107
3, 20496, Note_off_c, 1, 52, 64
3, 20520, Note_on_c, 1, 50, 107
3, 20616, Note_off_c, 1, 50, 64
3, 20640, Note_on_c, 1, 48, 107
3, 20736, Note_off_c, 1, 48, 64
3, 20760, Note_on_c, 1, 47, 107
3, 20856, Note_off_c, 1, 47, 64
3, 20880, Note_on_c, 1, 43, 107
3, 20976, Note_off_c, 1, 43, 64
3, 21000, Note_on_c, 1, 48, 107
3, 21192, Note_off_c, 1, 48, 64
3, 21240, Note_on_c, 1, 55, 107
3, 21432, Note_off_c, 1, 55, 64
3, 21480, Note_on_c, 1, 43, 107
3, 21672, Note_off_c, 1, 43, 64
3, 21720, Note_on_c, 1, 48, 107
3, 21960, Note_on_c, 1, 36, 107
3, 22104, Note_off_c, 1, 48, 64
3, 22200, Note_on_c, 1, 43, 107
3, 22392, Note_off_c, 1, 43, 64
3, 22440, Note_on_c, 1, 48, 107
3, 22824, Note_off_c, 1, 36, 64
3, 22824, Note_off_c, 1, 48, 64
3, 23160, Note_on_c, 1, 48, 107
3, 23400, Note_on_c, 1, 50, 107
3, 23592, Note_off_c, 1, 50, 64
3, 23640, Note_on_c, 1, 52, 107
3, 23832, Note_off_c, 1, 52, 64
3, 23880, Note_on_c, 1, 53, 107
3, 24072, Note_off_c, 1, 53, 64
3, 24120, Note_on_c, 1, 55, 107
3, 24312, Note_off_c, 1, 55, 64
3, 24312, Note_off_c, 1, 48, 64
3, 24360, Note_on_c, 1, 52, 107
3, 24552, Note_off_c, 1, 52, 64
3, 24600, Note_on_c, 1, 53, 107
3, 24960, Note_on_c, 1, 65, 107
3, 25056, Note_off_c, 1, 65, 64
3, 25080, Note_on_c, 1, 65, 107
3, 25104, Note_off_c, 1, 65, 64
3, 25110, Note_on_c, 1, 63, 107
3, 25134, Note_off_c, 1, 63, 64
3, 25140, Note_on_c, 1, 65, 107
3, 25164, Note_off_c, 1, 65, 64
3, 25170, Note_on_c, 1, 63, 107
3, 25392, Note_off_c, 1, 63, 64
3, 25440, Note_on_c, 1, 62, 107
3, 25536, Note_off_c, 1, 62, 64
3, 25560, Note_on_c, 1, 63, 107
3, 25656, Note_off_c, 1, 63, 64
3, 25680, Note_on_c, 1, 67, 107
3, 25752, Note_off_c, 1, 53, 64
3, 25776, Note_off_c, 1, 67, 64
3, 25800, Note_on_c, 1, 65, 107
3, 26040, Note_on_c, 1, 58, 107
3, 26136, Note_off_c, 1, 58, 64
3, 26160, Note_on_c, 1, 53, 107
3, 26232, Note_off_c, 1, 65, 64
3, 26256, Note_off_c, 1, 53, 64
3, 26280, Note_on_c, 1, 55, 107
3, 26376, Note_off_c, 1, 55, 64
3, 26400, Note_on_c, 1, 57, 107
3, 26496, Note_off_c, 1, 57, 64
3, 26520, Note_on_c, 1, 58, 107
3, 26616, Note_off_c, 1, 58, 64
3, 26640, Note_on_c, 1, 50, 107
3, 26736, Note_off_c, 1, 50, 64
3, 26760, Note_on_c, 1, 52, 107
3, 26856, Note_off_c, 1, 52, 64
3, 26880, Note_on_c, 1, 60, 107
3, 26976, Note_off_c, 1, 60, 64
3, 27000, Note_on_c, 1, 54, 107
3, 27096, Note_off_c, 1, 54, 64
3, 27120, Note_on_c, 1, 57, 107
3, 27216, Note_off_c, 1, 57, 64
3, 27240, Note_on_c, 1, 55, 107
3, 27336, Note_off_c, 1, 55, 64
3, 27360, Note_on_c, 1, 57, 107
3, 27456, Note_off_c, 1, 57, 64
3, 27480, Note_on_c, 1, 55, 107
3, 27504, Note_off_c, 1, 55, 64
3, 27510, Note_on_c, 1, 54, 107
3, 27534, Note_off_c, 1, 54, 64
3, 27540, Note_on_c, 1, 55, 107
3, 27564, Note_off_c, 1, 55, 64
3, 27570, Note_on_c, 1, 54, 107
3, 27696, Note_off_c, 1, 54, 64
3, 27720, Note_on_c, 1, 50, 107
3, 27912, Note_off_c, 1, 50, 64
3, 27960, Note_on_c, 1, 55, 107
3, 28152, Note_off_c, 1, 55, 64
3, 28200, Note_on_c, 1, 48, 107
3, 28392, Note_off_c, 1, 48, 64
3, 28440, Note_on_c, 1, 50, 107
3, 28632, Note_off_c, 1, 50, 64
3, 28680, Note_on_c, 1, 38, 107
3, 28872, Note_off_c, 1, 38, 64
3, 28920, Note_on_c, 1, 43, 107
3, 29033, Note_off_c, 1, 43, 64
3, 29040, Note_on_c, 1, 50, 107
3, 29153, Note_off_c, 1, 50, 64
3, 29160, Note_on_c, 1, 52, 107
3, 29273, Note_off_c, 1, 52, 64
3, 29280, Note_on_c, 1, 54, 107
3, 29393, Note_off_c, 1, 54, 64
3, 29400, Note_on_c, 1, 55, 107
3, 29513, Note_off_c, 1, 55, 64
3, 29520, Note_on_c, 1, 58, 107
3, 29633, Note_off_c, 1, 58, 64
3, 29640, Note_on_c, 1, 57, 107
3, 29753, Note_off_c, 1, 57, 64
3, 29760, Note_on_c, 1, 58, 107
3, 29873, Note_off_c, 1, 58, 64
3, 29880, Note_on_c, 1, 60, 107
3, 29993, Note_off_c, 1, 60, 64
3, 30000, Note_on_c, 1, 58, 107
3, 30113, Note_off_c, 1, 58, 64
3, 30120, Note_on_c, 1, 57, 107
3, 30233, Note_off_c, 1, 57, 64
3, 30240, Note_on_c, 1, 55, 107
3, 30353, Note_off_c, 1, 55, 64
3, 30360, Note_on_c, 1, 62, 107
3, 30552, Note_off_c, 1, 62, 64
3, 30600, Note_on_c, 1, 50, 107
3, 30888, Note_off_c, 1, 50, 64
3, 30960, Note_on_c, 1, 53, 107
3, 31056, Note_off_c, 1, 53, 64
3, 31080, Note_on_c, 1, 52, 107
3, 31176, Note_off_c, 1, 52, 64
3, 31200, Note_on_c, 1, 53, 107
3, 31296, Note_off_c, 1, 53, 64
3, 31320, Note_on_c, 1, 55, 107
3, 31416, Note_off_c, 1, 55, 64
3, 31440, Note_on_c, 1, 53, 107
3, 31536, Note_off_c, 1, 53, 64
3, 31560, Note_on_c, 1, 52, 107
3, 31656, Note_off_c, 1, 52, 64
3, 31680, Note_on_c, 1, 50, 107
3, 31776, Note_off_c, 1, 50, 64
3, 31800, Note_on_c, 1, 57, 107
3, 31896, Note_off_c, 1, 57, 64
3, 31920, Note_on_c, 1, 58, 107
3, 32016, Note_off_c, 1, 58, 64
3, 32040, Note_on_c, 1, 57, 107
3, 32136, Note_off_c, 1, 57, 64
3, 32160, Note_on_c, 1, 55, 107
3, 32256, Note_off_c, 1, 55, 64
3, 32280, Note_on_c, 1, 53, 107
3, 32376, Note_off_c, 1, 53, 64
3, 32400, Note_on_c, 1, 57, 107
3, 32496, Note_off_c, 1, 57, 64
3, 32520, Note_on_c, 1, 58, 107
3, 32616, Note_off_c, 1, 58, 64
3, 32640, Note_on_c, 1, 60, 107
3, 32736, Note_off_c, 1, 60, 64
3, 32760, Note_on_c, 1, 62, 107
3, 32856, Note_off_c, 1, 62, 64
3, 32880, Note_on_c, 1, 63, 107
3, 32976, Note_off_c, 1, 63, 64
3, 33000, Note_on_c, 1, 62, 107
3, 33096, Note_off_c, 1, 62, 64
3, 33120, Note_on_c, 1, 60, 107
3, 33216, Note_off_c, 1, 60, 64
3, 33240, Note_on_c, 1, 58, 107
3, 33336, Note_off_c, 1, 58, 64
3, 33360, Note_on_c, 1, 62, 107
3, 33456, Note_off_c, 1, 62, 64
3, 33480, Note_on_c, 1, 64, 107
3, 33576, Note_off_c, 1, 64, 64
3, 33600, Note_on_c, 1, 65, 107
3, 33696, Note_off_c, 1, 65, 64
3, 33720, Note_on_c, 1, 67, 107
3, 33912, Note_off_c, 1, 67, 64
3, 33960, Note_on_c, 1, 50, 107
3, 34152, Note_off_c, 1, 50, 64
3, 34200, Note_on_c, 1, 52, 107
3, 34392, Note_off_c, 1, 52, 64
3, 34440, Note_on_c, 1, 53, 107
3, 34632, Note_off_c, 1, 53, 64
3, 34680, Note_on_c, 1, 48, 107
3, 34776, Note_off_c, 1, 48, 64
3, 34800, Note_on_c, 1, 52, 107
3, 34896, Note_off_c, 1, 52, 64
3, 34920, Note_on_c, 1, 50, 107
3, 35016, Note_off_c, 1, 50, 64
3, 35040, Note_on_c, 1, 52, 107
3, 35136, Note_off_c, 1, 52, 64
3, 35160, Note_on_c, 1, 53, 107
3, 35256, Note_off_c, 1, 53, 64
3, 35280, Note_on_c, 1, 52, 107
3, 35376, Note_off_c, 1, 52, 64
3, 35400, Note_on_c, 1, 50, 107
3, 35496, Note_off_c, 1, 50, 64
3, 35520, Note_on_c, 1, 48, 107
3, 35616, Note_off_c, 1, 48, 64
3, 35640, Note_on_c, 1, 46, 107
3, 35736, Note_off_c, 1, 46, 64
3, 35760, Note_on_c, 1, 45, 107
3, 35856, Note_off_c, 1, 45, 64
3, 35880, Note_on_c, 1, 43, 107
3, 35976, Note_off_c, 1, 43, 64
3, 36000, Note_on_c, 1, 41, 107
3, 36096, Note_off_c, 1, 41, 64
3, 36120, Note_on_c, 1, 46, 107
3, 36696, Note_off_c, 1, 46, 64
3, 36720, Note_on_c, 1, 48, 107
3, 36816, Note_off_c, 1, 48, 64
3, 36840, Note_on_c, 1, 50, 107
3, 36936, Note_off_c, 1, 50, 64
3, 36960, Note_on_c, 1, 48, 107
3, 37056, Note_off_c, 1, 48, 64
3, 37080, Note_on_c, 1, 46, 107
3, 37176, Note_off_c, 1, 46, 64
3, 37200, Note_on_c, 1, 45, 107
3, 37296, Note_off_c, 1, 45, 64
3, 37320, Note_on_c, 1, 43, 107
3, 37416, Note_off_c, 1, 43, 64
3, 37440, Note_on_c, 1, 41, 107
3, 37536, Note_off_c, 1, 41, 64
3, 37560, Note_on_c, 1, 40, 107
3, 37656, Note_off_c, 1, 40, 64
3, 37680, Note_on_c, 1, 48, 107
3, 37776, Note_off_c, 1, 48, 64
3, 37800, Note_on_c, 1, 50, 107
3, 37896, Note_off_c, 1, 50, 64
3, 37920, Note_on_c, 1, 52, 107
3, 38016, Note_off_c, 1, 52, 64
3, 38040, Note_on_c, 1, 53, 107
3, 38232, Note_off_c, 1, 53, 64
3, 38280, Note_on_c, 1, 46, 107
3, 38472, Note_off_c, 1, 46, 64
3, 38520, Note_on_c, 1, 48, 107
3, 38712, Note_off_c, 1, 48, 64
3, 38760, Note_on_c, 1, 36, 107
3, 38952, Note_off_c, 1, 36, 64
3, 39000, Note_on_c, 1, 41, 107
3, 39240, Note_on_c, 1, 45, 107
3, 39432, Note_off_c, 1, 45, 64
3, 39480, Note_on_c, 1, 48, 107
3, 39672, Note_off_c, 1, 48, 64
3, 39720, Note_on_c, 1, 53, 107
3, 40104, Note_off_c, 1, 53, 64
3, 40200, Note_off_c, 1, 41, 64
3, 40440, Note_on_c, 1, 48, 107
3, 40680, Note_on_c, 1, 50, 107
3, 40872, Note_off_c, 1, 50, 64
3, 40920, Note_on_c, 1, 52, 107
3, 41112, Note_off_c, 1, 52, 64
3, 41160, Note_on_c, 1, 53, 107
3, 41352, Note_off_c, 1, 53, 64
3, 41400, Note_on_c, 1, 55, 107
3, 41592, Note_off_c, 1, 55, 64
3, 41592, Note_off_c, 1, 48, 64
3, 41640, Note_on_c, 1, 52, 107
3, 41832, Note_off_c, 1, 52, 64
3, 41880, Note_on_c, 1, 53, 107
3, 42240, Note_on_c, 1, 65, 107
3, 42336, Note_off_c, 1, 65, 64
3, 42360, Note_on_c, 1, 65, 107
3, 42384, Note_off_c, 1, 65, 64
3, 42390, Note_on_c, 1, 63, 107
3, 42414, Note_off_c, 1, 63, 64
3, 42420, Note_on_c, 1, 65, 107
3, 42444, Note_off_c, 1, 65, 64
3, 42450, Note_on_c, 1, 63, 107
3, 42672, Note_off_c, 1, 63, 64
3, 42720, Note_on_c, 1, 62, 107
3, 42816, Note_off_c, 1, 62, 64
3, 42840, Note_on_c, 1, 63, 107
3, 42936, Note_off_c, 1, 63, 64
3, 42960, Note_on_c, 1, 67, 107
3, 43032, Note_off_c, 1, 53, 64
3, 43056, Note_off_c, 1, 67, 64
3, 43080, Note_on_c, 1, 65, 107
3, 43320, Note_on_c, 1, 58, 107
3, 43416, Note_off_c, 1, 58, 64
3, 43440, Note_on_c, 1, 53, 107
3, 43512, Note_off_c, 1, 65, 64
3, 43536, Note_off_c, 1, 53, 64
3, 43560, Note_on_c, 1, 55, 107
3, 43656, Note_off_c, 1, 55, 64
3, 43680, Note_on_c, 1, 57, 107
3, 43776, Note_off_c, 1, 57, 64
3, 43800, Note_on_c, 1, 58, 107
3, 43896, Note_off_c, 1, 58, 64
3, 43920, Note_on_c, 1, 50, 107
3, 44016, Note_off_c, 1, 50, 64
3, 44040, Note_on_c, 1, 52, 107
3, 44136, Note_off_c, 1, 52, 64
3, 44160, Note_on_c, 1, 60, 107
3, 44256, Note_off_c, 1, 60, 64
3, 44280, Note_on_c, 1, 54, 107
3, 44376, Note_off_c, 1, 54, 64
3, 44400, Note_on_c, 1, 57, 107
3, 44496, Note_off_c, 1, 57, 64
3, 44520, Note_on_c, 1, 55, 107
3, 44616, Note_off_c, 1, 55, 64
3, 44640, Note_on_c, 1, 57, 107
3, 44736, Note_off_c, 1, 57, 64
3, 44760, Note_on_c, 1, 55, 107
3, 44784, Note_off_c, 1, 55, 64
3, 44790, Note_on_c, 1, 54, 107
3, 44814, Note_off_c, 1, 54, 64
3, 44820, Note_on_c, 1, 55, 107
3, 44844, Note_off_c, 1, 55, 64
3, 44850, Note_on_c, 1, 54, 107
3, 44976, Note_off_c, 1, 54, 64
3, 45000, Note_on_c, 1, 50, 107
3, 45192, Note_off_c, 1, 50, 64
3, 45240, Note_on_c, 1, 55, 107
3, 45432, Note_off_c, 1, 55, 64
3, 45480, Note_on_c, 1, 48, 107
3, 45672, Note_off_c, 1, 48, 64
3, 45720, Note_on_c, 1, 50, 107
3, 45912, Note_off_c, 1, 50, 64
3, 45960, Note_on_c, 1, 38, 107
3, 46152, Note_off_c, 1, 38, 64
3, 46200, Note_on_c, 1, 43, 107
3, 46313, Note_off_c, 1, 43, 64
3, 46320, Note_on_c, 1, 50, 107
3, 46433, Note_off_c, 1, 50, 64
3, 46440, Note_on_c, 1, 52, 107
3, 46553, Note_off_c, 1, 52, 64
3, 46560, Note_on_c, 1, 54, 107
3, 46673, Note_off_c, 1, 54, 64
3, 46680, Note_on_c, 1, 55, 107
3, 46793, Note_off_c, 1, 55, 64
3, 46800, Note_on_c, 1, 58, 107
3, 46913, Note_off_c, 1, 58, 64
3, 46920, Note_on_c, 1, 57, 107
3, 47033, Note_off_c, 1, 57, 64
3, 47040, Note_on_c, 1, 58, 107
3, 47153, Note_off_c, 1, 58, 64
3, 47160, Note_on_c, 1, 60, 107
3, 47273, Note_off_c, 1, 60, 64
3, 47280, Note_on_c, 1, 58, 107
3, 47393, Note_off_c, 1, 58, 64
3, 47400, Note_on_c, 1, 57, 107
3, 47513, Note_off_c, 1, 57, 64
3, 47520, Note_on_c, 1, 55, 107
3, 47633, Note_off_c, 1, 55, 64
3, 47640, Note_on_c, 1, 62, 107
3, 47832, Note_off_c, 1, 62, 64
3, 47880, Note_on_c, 1, 50, 107
3, 48168, Note_off_c, 1, 50, 64
3, 48240, Note_on_c, 1, 53, 107
3, 48336, Note_off_c, 1, 53, 64
3, 48360, Note_on_c, 1, 52, 107
3, 48456, Note_off_c, 1, 52, 64
3, 48480, Note_on_c, 1, 53, 107
3, 48576, Note_off_c, 1, 53, 64
3, 48600, Note_on_c, 1, 55, 107
3, 48696, Note_off_c, 1, 55, 64
3, 48720, Note_on_c, 1, 53, 107
3, 48816, Note_off_c, 1, 53, 64
3, 48840, Note_on_c, 1, 52, 107
3, 48936, Note_off_c, 1, 52, 64
3, 48960, Note_on_c, 1, 50, 107
3, 49056, Note_off_c, 1, 50, 64
3, 49080, Note_on_c, 1, 57, 107
3, 49176, Note_off_c, 1, 57, 64
3, 49200, Note_on_c, 1, 58, 107
3, 49296, Note_off_c, 1, 58, 64
3, 49320, Note_on_c, 1, 57, 107
3, 49416, Note_off_c, 1, 57, 64
3, 49440, Note_on_c, 1, 55, 107
3, 49536, Note_off_c, 1, 55, 64
3, 49560, Note_on_c, 1, 53, 107
3, 49656, Note_off_c, 1, 53, 64
3, 49680, Note_on_c, 1, 57, 107
3, 49776, Note_off_c, 1, 57, 64
3, 49800, Note_on_c, 1, 58, 107
3, 49896, Note_off_c, 1, 58, 64
3, 49920, Note_on_c, 1, 60, 107
3, 50016, Note_off_c, 1, 60, 64
3, 50040, Note_on_c, 1, 62, 107
3, 50136, Note_off_c, 1, 62, 64
3, 50160, Note_on_c, 1, 63, 107
3, 50256, Note_off_c, 1, 63, 64
3, 50280, Note_on_c, 1, 62, 107
3, 50376, Note_off_c, 1, 62, 64
3, 50400, Note_on_c, 1, 60, 107
3, 50496, Note_off_c, 1, 60, 64
3, 50520, Note_on_c, 1, 58, 107
3, 50616, Note_off_c, 1, 58, 64
3, 50640, Note_on_c, 1, 62, 107
3, 50736, Note_off_c, 1, 62, 64
3, 50760, Note_on_c, 1, 64, 107
3, 50856, Note_off_c, 1, 64, 64
3, 50880, Note_on_c, 1, 65, 107
3, 50976, Note_off_c, 1, 65, 64
3, 51000, Note_on_c, 1, 67, 107
3, 51192, Note_off_c, 1, 67, 64
3, 51240, Note_on_c, 1, 50, 107
3, 51432, Note_off_c, 1, 50, 64
3, 51480, Note_on_c, 1, 52, 107
3, 51672, Note_off_c, 1, 52, 64
3, 51720, Note_on_c, 1, 53, 107
3, 51912, Note_off_c, 1, 53, 64
3, 51960, Note_on_c, 1, 48, 107
3, 52056, Note_off_c, 1, 48, 64
3, 52080, Note_on_c, 1, 52, 107
3, 52176, Note_off_c, 1, 52, 64
3, 52200, Note_on_c, 1, 50, 107
3, 52296, Note_off_c, 1, 50, 64
3, 52320, Note_on_c, 1, 52, 107
3, 52416, Note_off_c, 1, 52, 64
3, 52440, Note_on_c, 1, 53, 107
3, 52536, Note_off_c, 1, 53, 64
3, 52560, Note_on_c, 1, 52, 107
3, 52656, Note_off_c, 1, 52, 64
3, 52680, Note_on_c, 1, 50, 107
3, 52776, Note_off_c, 1, 50, 64
3, 52800, Note_on_c, 1, 48, 107
3, 52896, Note_off_c, 1, 48, 64
3, 52920, Note_on_c, 1, 46, 107
3, 53016, Note_off_c, 1, 46, 64
3, 53040, Note_on_c, 1, 45, 107
3, 53136, Note_off_c, 1, 45, 64
3, 53160, Note_on_c, 1, 43, 107
3, 53256, Note_off_c, 1, 43, 64
3, 53280, Note_on_c, 1, 41, 107
3, 53376, Note_off_c, 1, 41, 64
3, 53400, Note_on_c, 1, 46, 107
3, 53976, Note_off_c, 1, 46, 64
3, 54000, Note_on_c, 1, 48, 107
3, 54096, Note_off_c, 1, 48, 64
3, 54120, Note_on_c, 1, 50, 107
3, 54216, Note_off_c, 1, 50, 64
3, 54240, Note_on_c, 1, 48, 107
3, 54336, Note_off_c, 1, 48, 64
3, 54360, Note_on_c, 1, 46, 107
3, 54456, Note_off_c, 1, 46, 64
3, 54480, Note_on_c, 1, 45, 107
3, 54576, Note_off_c, 1, 45, 64
3, 54600, Note_on_c, 1, 43, 107
3, 54696, Note_off_c, 1, 43, 64
3, 54720, Note_on_c, 1, 41, 107
3, 54816, Note_off_c, 1, 41, 64
3, 54840, Note_on_c, 1, 40, 107
3, 54936, Note_off_c, 1, 40, 64
3, 54960, Note_on_c, 1, 48, 107
3, 55056, Note_off_c, 1, 48, 64
3, 55080, Note_on_c, 1, 50, 107
3, 55176, Note_off_c, 1, 50, 64
3, 55200, Note_on_c, 1, 52, 107
3, 55296, Note_off_c, 1, 52, 64
3, 55320, Note_on_c, 1, 53, 107
3, 55512, Note_off_c, 1, 53, 64
3, 55560, Note_on_c, 1, 46, 107
3, 55752, Note_off_c, 1, 46, 64
3, 55800, Note_on_c, 1, 48, 107
3, 55992, Note_off_c, 1, 48, 64
3, 56040, Note_on_c, 1, 36, 107
3, 56232, Note_off_c, 1, 36, 64
3, 56280, Note_on_c, 1, 41, 107
3, 56520, Note_on_c, 1, 45, 107
3, 56712, Note_off_c, 1, 45, 64
3, 56760, Note_on_c, 1, 48, 107
3, 56952, Note_off_c, 1, 48, 64
3, 57000, Note_on_c, 1, 53, 107
3, 57384, Note_off_c, 1, 53, 64
3, 57480, Note_off_c, 1, 41, 64
3, 57480, End_track
4, 0, Start_track
4, 0, Title_t, "Arr. Gary Bricault, (c) 1997"
4, 0, End_track
0, 0, End_of_file
