0, 0, Header, 0, 1, 384
1, 0, Start_track
1, 0, Copyright_t, "(C) John Sankey 1998"
1, 0, Program_c, 0, 6
1, 0, Pitch_bend_c, 0, 8192
1, 0, Program_c, 1, 6
1, 0, Pitch_bend_c, 1, 7792
1, 0, Program_c, 2, 6
1, 0, Pitch_bend_c, 2, 7876
1, 0, Program_c, 3, 6
1, 0, Pitch_bend_c, 3, 7952
1, 0, Program_c, 4, 6
1, 0, Pitch_bend_c, 4, 7792
1, 0, Program_c, 5, 6
1, 0, Pitch_bend_c, 5, 8112
1, 0, Program_c, 6, 6
1, 0, Pitch_bend_c, 6, 7712
1, 0, Program_c, 7, 6
1, 0, Pitch_bend_c, 7, 8037
1, 0, Program_c, 8, 6
1, 0, Pitch_bend_c, 8, 7872
1, 0, Program_c, 10, 6
1, 0, Pitch_bend_c, 10, 7712
1, 0, Program_c, 11, 6
1, 0, Pitch_bend_c, 11, 8032
1, 0, Program_c, 12, 6
1, 0, Pitch_bend_c, 12, 7872
1, 0, Tempo, 500000
1, 48, Note_on_c, 5, 65, 127
1, 648, Note_off_c, 5, 65, 127
1, 671, Note_on_c, 10, 69, 127
1, 1271, Note_off_c, 10, 69, 127
1, 1294, Note_on_c, 0, 72, 127
1, 2226, Note_off_c, 0, 72, 127
1, 2228, Note_on_c, 11, 70, 127
1, 2382, Note_off_c, 11, 70, 127
1, 2384, Note_on_c, 10, 69, 127
1, 2538, Note_off_c, 10, 69, 127
1, 2540, Note_on_c, 11, 70, 127
1, 2850, Note_off_c, 11, 70, 127
1, 2852, Note_on_c, 0, 72, 127
1, 3162, Note_off_c, 0, 72, 127
1, 3164, Note_on_c, 2, 74, 127
1, 3474, Note_off_c, 2, 74, 127
1, 3476, Note_on_c, 4, 76, 127
1, 3786, Note_off_c, 4, 76, 127
1, 3788, Note_on_c, 5, 77, 127
1, 4098, Note_off_c, 5, 77, 127
1, 4100, Note_on_c, 0, 72, 127
1, 4410, Note_off_c, 0, 72, 127
1, 4412, Note_on_c, 5, 77, 127
1, 4722, Note_off_c, 5, 77, 127
1, 4724, Note_on_c, 10, 81, 127
1, 5034, Note_off_c, 10, 81, 127
1, 5036, Note_on_c, 0, 48, 127
1, 5036, Note_on_c, 7, 79, 127
1, 5190, Note_off_c, 7, 79, 127
1, 5192, Note_on_c, 5, 77, 127
1, 5346, Note_off_c, 5, 77, 127
1, 5348, Note_on_c, 4, 76, 127
1, 5502, Note_off_c, 4, 76, 127
1, 5504, Note_on_c, 2, 74, 127
1, 5645, Note_off_c, 0, 48, 127
1, 5658, Note_off_c, 2, 74, 127
1, 5660, Note_on_c, 4, 52, 127
1, 5660, Note_on_c, 0, 72, 127
1, 5814, Note_off_c, 0, 72, 127
1, 5816, Note_on_c, 11, 70, 127
1, 5970, Note_off_c, 11, 70, 127
1, 5972, Note_on_c, 10, 69, 127
1, 6126, Note_off_c, 10, 69, 127
1, 6128, Note_on_c, 7, 67, 127
1, 6269, Note_off_c, 4, 52, 127
1, 6282, Note_off_c, 7, 67, 127
1, 6284, Note_on_c, 5, 53, 127
1, 6284, Note_on_c, 10, 69, 127
1, 6438, Note_off_c, 10, 69, 127
1, 6440, Note_on_c, 0, 72, 127
1, 6594, Note_off_c, 0, 72, 127
1, 6596, Note_on_c, 5, 65, 127
1, 6750, Note_off_c, 5, 65, 127
1, 6752, Note_on_c, 10, 69, 127
1, 6906, Note_off_c, 10, 69, 127
1, 6908, Note_on_c, 2, 74, 127
1, 7202, Note_off_c, 5, 53, 127
1, 7220, Note_on_c, 5, 53, 127
1, 7374, Note_off_c, 5, 53, 127
1, 7376, Note_on_c, 4, 52, 127
1, 7530, Note_off_c, 4, 52, 127
1, 7532, Note_on_c, 5, 53, 127
1, 7842, Note_off_c, 5, 53, 127
1, 7842, Note_off_c, 2, 74, 127
1, 7844, Note_on_c, 7, 55, 127
1, 7844, Note_on_c, 0, 72, 127
1, 7998, Note_off_c, 0, 72, 127
1, 8000, Note_on_c, 12, 71, 127
1, 8154, Note_off_c, 12, 71, 127
1, 8154, Note_off_c, 7, 55, 127
1, 8156, Note_on_c, 10, 57, 127
1, 8156, Note_on_c, 0, 72, 127
1, 8310, Note_off_c, 0, 72, 127
1, 8312, Note_on_c, 4, 76, 127
1, 8466, Note_off_c, 4, 76, 127
1, 8466, Note_off_c, 10, 57, 127
1, 8468, Note_on_c, 12, 59, 127
1, 8468, Note_on_c, 2, 74, 127
1, 8622, Note_off_c, 2, 74, 127
1, 8624, Note_on_c, 5, 77, 127
1, 8778, Note_off_c, 5, 77, 127
1, 8778, Note_off_c, 12, 59, 127
1, 8780, Note_on_c, 0, 60, 127
1, 8780, Note_on_c, 4, 76, 127
1, 8934, Note_off_c, 4, 76, 127
1, 8936, Note_on_c, 2, 74, 127
1, 9090, Note_off_c, 2, 74, 127
1, 9090, Note_off_c, 0, 60, 127
1, 9092, Note_on_c, 7, 55, 127
1, 9092, Note_on_c, 0, 72, 127
1, 9246, Note_off_c, 0, 72, 127
1, 9248, Note_on_c, 12, 71, 127
1, 9402, Note_off_c, 12, 71, 127
1, 9402, Note_off_c, 7, 55, 127
1, 9404, Note_on_c, 0, 60, 127
1, 9404, Note_on_c, 10, 69, 127
1, 9558, Note_off_c, 10, 69, 127
1, 9560, Note_on_c, 0, 72, 127
1, 9714, Note_off_c, 0, 72, 127
1, 9714, Note_off_c, 0, 60, 127
1, 9716, Note_on_c, 4, 64, 127
1, 9716, Note_on_c, 7, 67, 127
1, 9870, Note_off_c, 7, 67, 127
1, 9872, Note_on_c, 0, 72, 127
1, 10026, Note_off_c, 0, 72, 127
1, 10026, Note_off_c, 4, 64, 127
1, 10028, Note_on_c, 2, 62, 127
1, 10028, Note_on_c, 5, 65, 127
1, 10182, Note_off_c, 5, 65, 127
1, 10182, Note_off_c, 2, 62, 127
1, 10184, Note_on_c, 0, 60, 127
1, 10184, Note_on_c, 4, 76, 127
1, 10338, Note_off_c, 4, 76, 127
1, 10338, Note_off_c, 0, 60, 127
1, 10340, Note_on_c, 12, 59, 127
1, 10340, Note_on_c, 2, 74, 127
1, 10494, Note_off_c, 2, 74, 127
1, 10494, Note_off_c, 12, 59, 127
1, 10496, Note_on_c, 10, 57, 127
1, 10496, Note_on_c, 0, 72, 127
1, 10650, Note_off_c, 0, 72, 127
1, 10650, Note_off_c, 10, 57, 127
1, 10652, Note_on_c, 7, 55, 127
1, 10652, Note_on_c, 12, 71, 127
1, 10806, Note_off_c, 12, 71, 127
1, 10806, Note_off_c, 7, 55, 127
1, 10808, Note_on_c, 5, 53, 127
1, 10808, Note_on_c, 2, 74, 127
1, 10962, Note_off_c, 2, 74, 127
1, 10962, Note_off_c, 5, 53, 127
1, 10964, Note_on_c, 4, 52, 127
1, 10964, Note_on_c, 7, 67, 127
1, 11118, Note_off_c, 7, 67, 127
1, 11118, Note_off_c, 4, 52, 127
1, 11120, Note_on_c, 2, 50, 127
1, 11120, Note_on_c, 12, 71, 127
1, 11274, Note_off_c, 12, 71, 127
1, 11274, Note_off_c, 2, 50, 127
1, 11276, Note_on_c, 4, 52, 127
1, 11276, Note_on_c, 0, 72, 127
1, 11430, Note_off_c, 4, 52, 127
1, 11432, Note_on_c, 7, 55, 127
1, 11586, Note_off_c, 7, 55, 127
1, 11588, Note_on_c, 0, 48, 127
1, 11742, Note_off_c, 0, 48, 127
1, 11744, Note_on_c, 4, 52, 127
1, 11893, Note_off_c, 0, 72, 127
1, 11898, Note_off_c, 4, 52, 127
1, 11900, Note_on_c, 10, 57, 127
1, 12056, Note_on_c, 4, 76, 127
1, 12210, Note_off_c, 4, 76, 127
1, 12212, Note_on_c, 10, 69, 127
1, 12366, Note_off_c, 10, 69, 127
1, 12368, Note_on_c, 0, 72, 127
1, 12522, Note_off_c, 0, 72, 127
1, 12524, Note_on_c, 5, 65, 127
1, 12675, Note_off_c, 10, 57, 127
1, 12680, Note_on_c, 0, 60, 127
1, 12834, Note_off_c, 0, 60, 127
1, 12836, Note_on_c, 5, 53, 127
1, 12990, Note_off_c, 5, 53, 127
1, 12992, Note_on_c, 10, 57, 127
1, 13141, Note_off_c, 5, 65, 127
1, 13146, Note_off_c, 10, 57, 127
1, 13148, Note_on_c, 2, 50, 127
1, 13304, Note_on_c, 10, 69, 127
1, 13458, Note_off_c, 10, 69, 127
1, 13460, Note_on_c, 2, 62, 127
1, 13614, Note_off_c, 2, 62, 127
1, 13616, Note_on_c, 5, 65, 127
1, 13770, Note_off_c, 5, 65, 127
1, 13772, Note_on_c, 11, 70, 127
1, 13923, Note_off_c, 2, 50, 127
1, 13928, Note_on_c, 5, 53, 127
1, 14082, Note_off_c, 5, 53, 127
1, 14084, Note_on_c, 11, 46, 127
1, 14238, Note_off_c, 11, 46, 127
1, 14240, Note_on_c, 2, 50, 127
1, 14389, Note_off_c, 11, 70, 127
1, 14394, Note_off_c, 2, 50, 127
1, 14396, Note_on_c, 7, 55, 127
1, 14552, Note_on_c, 2, 74, 127
1, 14706, Note_off_c, 2, 74, 127
1, 14708, Note_on_c, 7, 67, 127
1, 14862, Note_off_c, 7, 67, 127
1, 14864, Note_on_c, 11, 70, 127
1, 15018, Note_off_c, 11, 70, 127
1, 15020, Note_on_c, 4, 64, 127
1, 15171, Note_off_c, 7, 55, 127
1, 15176, Note_on_c, 11, 58, 127
1, 15330, Note_off_c, 11, 58, 127
1, 15332, Note_on_c, 4, 52, 127
1, 15486, Note_off_c, 4, 52, 127
1, 15488, Note_on_c, 7, 55, 127
1, 15642, Note_off_c, 7, 55, 127
1, 15644, Note_on_c, 0, 48, 127
1, 15795, Note_off_c, 4, 64, 127
1, 15800, Note_on_c, 7, 67, 127
1, 15954, Note_off_c, 7, 67, 127
1, 15956, Note_on_c, 0, 60, 127
1, 16110, Note_off_c, 0, 60, 127
1, 16112, Note_on_c, 4, 64, 127
1, 16266, Note_off_c, 4, 64, 127
1, 16268, Note_on_c, 10, 69, 127
1, 16419, Note_off_c, 0, 48, 127
1, 16422, Note_off_c, 10, 69, 127
1, 16424, Note_on_c, 4, 52, 127
1, 16424, Note_on_c, 0, 72, 127
1, 16578, Note_off_c, 0, 72, 127
1, 16578, Note_off_c, 4, 52, 127
1, 16580, Note_on_c, 10, 45, 127
1, 16580, Note_on_c, 5, 65, 127
1, 16734, Note_off_c, 5, 65, 127
1, 16734, Note_off_c, 10, 45, 127
1, 16736, Note_on_c, 0, 48, 127
1, 16736, Note_on_c, 10, 69, 127
1, 16890, Note_off_c, 10, 69, 127
1, 16890, Note_off_c, 0, 48, 127
1, 16892, Note_on_c, 5, 53, 127
1, 16892, Note_on_c, 2, 62, 127
1, 17046, Note_off_c, 2, 62, 127
1, 17046, Note_off_c, 5, 53, 127
1, 17048, Note_on_c, 10, 57, 127
1, 17048, Note_on_c, 5, 65, 127
1, 17202, Note_off_c, 5, 65, 127
1, 17202, Note_off_c, 10, 57, 127
1, 17204, Note_on_c, 2, 50, 127
1, 17204, Note_on_c, 11, 58, 127
1, 17358, Note_off_c, 11, 58, 127
1, 17358, Note_off_c, 2, 50, 127
1, 17360, Note_on_c, 5, 53, 127
1, 17360, Note_on_c, 2, 62, 127
1, 17514, Note_off_c, 2, 62, 127
1, 17514, Note_off_c, 5, 53, 127
1, 17516, Note_on_c, 11, 46, 127
1, 17516, Note_on_c, 7, 67, 127
1, 17670, Note_off_c, 7, 67, 127
1, 17670, Note_off_c, 11, 46, 127
1, 17672, Note_on_c, 2, 50, 127
1, 17672, Note_on_c, 11, 70, 127
1, 17826, Note_off_c, 11, 70, 127
1, 17826, Note_off_c, 2, 50, 127
1, 17828, Note_on_c, 7, 43, 127
1, 17828, Note_on_c, 4, 64, 127
1, 17982, Note_off_c, 4, 64, 127
1, 17982, Note_off_c, 7, 43, 127
1, 17984, Note_on_c, 11, 46, 127
1, 17984, Note_on_c, 7, 67, 127
1, 18138, Note_off_c, 7, 67, 127
1, 18138, Note_off_c, 11, 46, 127
1, 18140, Note_on_c, 4, 52, 127
1, 18140, Note_on_c, 0, 60, 127
1, 18294, Note_off_c, 0, 60, 127
1, 18294, Note_off_c, 4, 52, 127
1, 18296, Note_on_c, 7, 55, 127
1, 18296, Note_on_c, 4, 64, 127
1, 18450, Note_off_c, 4, 64, 127
1, 18450, Note_off_c, 7, 55, 127
1, 18452, Note_on_c, 0, 48, 127
1, 18452, Note_on_c, 10, 57, 127
1, 18606, Note_off_c, 10, 57, 127
1, 18606, Note_off_c, 0, 48, 127
1, 18608, Note_on_c, 4, 52, 127
1, 18608, Note_on_c, 0, 60, 127
1, 18762, Note_off_c, 0, 60, 127
1, 18762, Note_off_c, 4, 52, 127
1, 18764, Note_on_c, 10, 45, 127
1, 18764, Note_on_c, 5, 65, 127
1, 18918, Note_off_c, 5, 65, 127
1, 18918, Note_off_c, 10, 45, 127
1, 18920, Note_on_c, 0, 48, 127
1, 18920, Note_on_c, 10, 69, 127
1, 19074, Note_off_c, 10, 69, 127
1, 19074, Note_off_c, 0, 48, 127
1, 19076, Note_on_c, 5, 41, 127
1, 19076, Note_on_c, 2, 62, 127
1, 19230, Note_off_c, 2, 62, 127
1, 19230, Note_off_c, 5, 41, 127
1, 19232, Note_on_c, 10, 45, 127
1, 19232, Note_on_c, 5, 65, 127
1, 19386, Note_off_c, 5, 65, 127
1, 19386, Note_off_c, 10, 45, 127
1, 19388, Note_on_c, 2, 50, 127
1, 19388, Note_on_c, 11, 70, 127
1, 19542, Note_off_c, 11, 70, 127
1, 19542, Note_off_c, 2, 50, 127
1, 19544, Note_on_c, 5, 53, 127
1, 19544, Note_on_c, 2, 74, 127
1, 19698, Note_off_c, 2, 74, 127
1, 19698, Note_off_c, 5, 53, 127
1, 19700, Note_on_c, 11, 46, 127
1, 19700, Note_on_c, 7, 67, 127
1, 19854, Note_off_c, 7, 67, 127
1, 19854, Note_off_c, 11, 46, 127
1, 19856, Note_on_c, 2, 50, 127
1, 19856, Note_on_c, 11, 70, 127
1, 20010, Note_off_c, 11, 70, 127
1, 20010, Note_off_c, 2, 50, 127
1, 20012, Note_on_c, 4, 52, 127
1, 20012, Note_on_c, 0, 60, 127
1, 20166, Note_off_c, 4, 52, 127
1, 20168, Note_on_c, 7, 55, 127
1, 20322, Note_off_c, 7, 55, 127
1, 20324, Note_on_c, 0, 48, 127
1, 20478, Note_off_c, 0, 48, 127
1, 20480, Note_on_c, 4, 52, 127
1, 20597, Note_off_c, 0, 60, 127
1, 20634, Note_off_c, 4, 52, 127
1, 20636, Note_on_c, 7, 55, 127
1, 20636, Note_on_c, 4, 64, 127
1, 20790, Note_off_c, 7, 55, 127
1, 20792, Note_on_c, 11, 58, 127
1, 20946, Note_off_c, 11, 58, 127
1, 20948, Note_on_c, 4, 52, 127
1, 21102, Note_off_c, 4, 52, 127
1, 21104, Note_on_c, 7, 55, 127
1, 21221, Note_off_c, 4, 64, 127
1, 21258, Note_off_c, 7, 55, 127
1, 21260, Note_on_c, 10, 57, 127
1, 21260, Note_on_c, 5, 65, 127
1, 21414, Note_off_c, 10, 57, 127
1, 21416, Note_on_c, 0, 60, 127
1, 21570, Note_off_c, 0, 60, 127
1, 21572, Note_on_c, 5, 53, 127
1, 21726, Note_off_c, 5, 53, 127
1, 21728, Note_on_c, 10, 57, 127
1, 21882, Note_off_c, 10, 57, 127
1, 21884, Note_on_c, 2, 62, 127
1, 22194, Note_off_c, 5, 65, 127
1, 22196, Note_on_c, 5, 65, 127
1, 22350, Note_off_c, 5, 65, 127
1, 22352, Note_on_c, 4, 64, 127
1, 22506, Note_off_c, 4, 64, 127
1, 22508, Note_on_c, 5, 65, 127
1, 22818, Note_off_c, 5, 65, 127
1, 22818, Note_off_c, 2, 62, 127
1, 22820, Note_on_c, 0, 60, 127
1, 22820, Note_on_c, 7, 67, 127
1, 22974, Note_off_c, 0, 60, 127
1, 22976, Note_on_c, 11, 58, 127
1, 23130, Note_off_c, 11, 58, 127
1, 23130, Note_off_c, 7, 67, 127
1, 23132, Note_on_c, 0, 60, 127
1, 23132, Note_on_c, 10, 69, 127
1, 23286, Note_off_c, 0, 60, 127
1, 23288, Note_on_c, 3, 63, 127
1, 23442, Note_off_c, 3, 63, 127
1, 23442, Note_off_c, 10, 69, 127
1, 23444, Note_on_c, 2, 62, 127
1, 23444, Note_on_c, 11, 70, 127
1, 23598, Note_off_c, 2, 62, 127
1, 23600, Note_on_c, 5, 65, 127
1, 23754, Note_off_c, 5, 65, 127
1, 23754, Note_off_c, 11, 70, 127
1, 23756, Note_on_c, 3, 63, 127
1, 23756, Note_on_c, 0, 72, 127
1, 23910, Note_off_c, 3, 63, 127
1, 23912, Note_on_c, 2, 62, 127
1, 24066, Note_off_c, 2, 62, 127
1, 24066, Note_off_c, 0, 72, 127
1, 24068, Note_on_c, 3, 63, 127
1, 24068, Note_on_c, 5, 65, 127
1, 24222, Note_off_c, 3, 63, 127
1, 24224, Note_on_c, 0, 60, 127
1, 24378, Note_off_c, 0, 60, 127
1, 24378, Note_off_c, 5, 65, 127
1, 24380, Note_on_c, 2, 62, 127
1, 24380, Note_on_c, 11, 70, 127
1, 24534, Note_off_c, 2, 62, 127
1, 24536, Note_on_c, 5, 65, 127
1, 24690, Note_off_c, 5, 65, 127
1, 24690, Note_off_c, 11, 70, 127
1, 24692, Note_on_c, 11, 58, 127
1, 24692, Note_on_c, 2, 74, 127
1, 24846, Note_off_c, 11, 58, 127
1, 24848, Note_on_c, 2, 62, 127
1, 25002, Note_off_c, 2, 62, 127
1, 25002, Note_off_c, 2, 74, 127
1, 25004, Note_on_c, 3, 51, 127
1, 25004, Note_on_c, 0, 72, 127
1, 25158, Note_off_c, 0, 72, 127
1, 25158, Note_off_c, 3, 51, 127
1, 25160, Note_on_c, 2, 62, 127
1, 25160, Note_on_c, 11, 70, 127
1, 25314, Note_off_c, 11, 70, 127
1, 25314, Note_off_c, 2, 62, 127
1, 25316, Note_on_c, 0, 60, 127
1, 25316, Note_on_c, 10, 69, 127
1, 25470, Note_off_c, 10, 69, 127
1, 25470, Note_off_c, 0, 60, 127
1, 25472, Note_on_c, 11, 58, 127
1, 25472, Note_on_c, 7, 67, 127
1, 25626, Note_off_c, 7, 67, 127
1, 25626, Note_off_c, 11, 58, 127
1, 25628, Note_on_c, 10, 57, 127
1, 25628, Note_on_c, 5, 65, 127
1, 25782, Note_off_c, 5, 65, 127
1, 25782, Note_off_c, 10, 57, 127
1, 25784, Note_on_c, 0, 60, 127
1, 25784, Note_on_c, 3, 63, 127
1, 25938, Note_off_c, 3, 63, 127
1, 25938, Note_off_c, 0, 60, 127
1, 25940, Note_on_c, 5, 53, 127
1, 25940, Note_on_c, 2, 62, 127
1, 26094, Note_off_c, 2, 62, 127
1, 26094, Note_off_c, 5, 53, 127
1, 26096, Note_on_c, 10, 57, 127
1, 26096, Note_on_c, 0, 60, 127
1, 26250, Note_off_c, 0, 60, 127
1, 26250, Note_off_c, 10, 57, 127
1, 26252, Note_on_c, 11, 46, 127
1, 26252, Note_on_c, 2, 62, 127
1, 26406, Note_off_c, 2, 62, 127
1, 26408, Note_on_c, 11, 58, 127
1, 26562, Note_off_c, 11, 58, 127
1, 26564, Note_on_c, 5, 65, 127
1, 26718, Note_off_c, 5, 65, 127
1, 26720, Note_on_c, 2, 62, 127
1, 26874, Note_off_c, 2, 62, 127
1, 26876, Note_on_c, 11, 70, 127
1, 26983, Note_off_c, 11, 46, 127
1, 27032, Note_on_c, 7, 43, 127
1, 27186, Note_off_c, 7, 43, 127
1, 27188, Note_on_c, 2, 50, 127
1, 27342, Note_off_c, 2, 50, 127
1, 27344, Note_on_c, 11, 46, 127
1, 27498, Note_off_c, 11, 46, 127
1, 27500, Note_on_c, 7, 55, 127
1, 27651, Note_off_c, 11, 70, 127
1, 27656, Note_on_c, 2, 74, 127
1, 27810, Note_off_c, 2, 74, 127
1, 27812, Note_on_c, 7, 67, 127
1, 27966, Note_off_c, 7, 67, 127
1, 27968, Note_on_c, 11, 70, 127
1, 28122, Note_off_c, 11, 70, 127
1, 28124, Note_on_c, 4, 64, 127
1, 28215, Note_off_c, 7, 55, 127
1, 28280, Note_on_c, 11, 58, 127
1, 28434, Note_off_c, 11, 58, 127
1, 28436, Note_on_c, 4, 52, 127
1, 28590, Note_off_c, 4, 52, 127
1, 28592, Note_on_c, 7, 55, 127
1, 28746, Note_off_c, 7, 55, 127
1, 28748, Note_on_c, 0, 48, 127
1, 28899, Note_off_c, 4, 64, 127
1, 28904, Note_on_c, 0, 60, 127
1, 29058, Note_off_c, 0, 60, 127
1, 29060, Note_on_c, 7, 67, 127
1, 29214, Note_off_c, 7, 67, 127
1, 29216, Note_on_c, 4, 64, 127
1, 29370, Note_off_c, 4, 64, 127
1, 29372, Note_on_c, 0, 72, 127
1, 29479, Note_off_c, 0, 48, 127
1, 29528, Note_on_c, 10, 45, 127
1, 29682, Note_off_c, 10, 45, 127
1, 29684, Note_on_c, 4, 52, 127
1, 29838, Note_off_c, 4, 52, 127
1, 29840, Note_on_c, 0, 48, 127
1, 29994, Note_off_c, 0, 48, 127
1, 29996, Note_on_c, 10, 57, 127
1, 30147, Note_off_c, 0, 72, 127
1, 30152, Note_on_c, 4, 76, 127
1, 30306, Note_off_c, 4, 76, 127
1, 30308, Note_on_c, 10, 69, 127
1, 30462, Note_off_c, 10, 69, 127
1, 30464, Note_on_c, 0, 72, 127
1, 30618, Note_off_c, 0, 72, 127
1, 30620, Note_on_c, 5, 65, 127
1, 30727, Note_off_c, 10, 57, 127
1, 30776, Note_on_c, 0, 60, 127
1, 30930, Note_off_c, 0, 60, 127
1, 30932, Note_on_c, 5, 53, 127
1, 31086, Note_off_c, 5, 53, 127
1, 31088, Note_on_c, 10, 57, 127
1, 31242, Note_off_c, 10, 57, 127
1, 31244, Note_on_c, 2, 50, 127
1, 31395, Note_off_c, 5, 65, 127
1, 31400, Note_on_c, 2, 62, 127
1, 31554, Note_off_c, 2, 62, 127
1, 31556, Note_on_c, 10, 69, 127
1, 31710, Note_off_c, 10, 69, 127
1, 31712, Note_on_c, 5, 65, 127
1, 31866, Note_off_c, 5, 65, 127
1, 31868, Note_on_c, 2, 74, 127
1, 32011, Note_off_c, 2, 50, 127
1, 32022, Note_off_c, 2, 74, 127
1, 32024, Note_on_c, 5, 53, 127
1, 32024, Note_on_c, 10, 69, 127
1, 32178, Note_off_c, 10, 69, 127
1, 32178, Note_off_c, 5, 53, 127
1, 32180, Note_on_c, 2, 50, 127
1, 32180, Note_on_c, 5, 77, 127
1, 32334, Note_off_c, 5, 77, 127
1, 32334, Note_off_c, 2, 50, 127
1, 32336, Note_on_c, 5, 53, 127
1, 32336, Note_on_c, 2, 74, 127
1, 32490, Note_off_c, 2, 74, 127
1, 32490, Note_off_c, 5, 53, 127
1, 32492, Note_on_c, 7, 55, 127
1, 32492, Note_on_c, 11, 70, 127
1, 32646, Note_off_c, 11, 70, 127
1, 32646, Note_off_c, 7, 55, 127
1, 32648, Note_on_c, 11, 58, 127
1, 32648, Note_on_c, 7, 67, 127
1, 32802, Note_off_c, 7, 67, 127
1, 32802, Note_off_c, 11, 58, 127
1, 32804, Note_on_c, 2, 50, 127
1, 32804, Note_on_c, 2, 74, 127
1, 32958, Note_off_c, 2, 74, 127
1, 32958, Note_off_c, 2, 50, 127
1, 32960, Note_on_c, 7, 55, 127
1, 32960, Note_on_c, 11, 70, 127
1, 33114, Note_off_c, 11, 70, 127
1, 33114, Note_off_c, 7, 55, 127
1, 33116, Note_on_c, 11, 46, 127
1, 33116, Note_on_c, 7, 79, 127
1, 33270, Note_off_c, 7, 79, 127
1, 33270, Note_off_c, 11, 46, 127
1, 33272, Note_on_c, 2, 50, 127
1, 33272, Note_on_c, 2, 74, 127
1, 33426, Note_off_c, 2, 74, 127
1, 33426, Note_off_c, 2, 50, 127
1, 33428, Note_on_c, 7, 43, 127
1, 33428, Note_on_c, 11, 82, 127
1, 33582, Note_off_c, 11, 82, 127
1, 33582, Note_off_c, 7, 43, 127
1, 33584, Note_on_c, 11, 46, 127
1, 33584, Note_on_c, 7, 79, 127
1, 33738, Note_off_c, 7, 79, 127
1, 33738, Note_off_c, 11, 46, 127
1, 33740, Note_on_c, 0, 48, 127
1, 33740, Note_on_c, 4, 76, 127
1, 33894, Note_off_c, 4, 76, 127
1, 33894, Note_off_c, 0, 48, 127
1, 33896, Note_on_c, 4, 52, 127
1, 33896, Note_on_c, 0, 72, 127
1, 34050, Note_off_c, 0, 72, 127
1, 34050, Note_off_c, 4, 52, 127
1, 34052, Note_on_c, 7, 43, 127
1, 34052, Note_on_c, 7, 79, 127
1, 34206, Note_off_c, 7, 79, 127
1, 34206, Note_off_c, 7, 43, 127
1, 34208, Note_on_c, 0, 48, 127
1, 34208, Note_on_c, 4, 76, 127
1, 34362, Note_off_c, 4, 76, 127
1, 34362, Note_off_c, 0, 48, 127
1, 34364, Note_on_c, 4, 40, 127
1, 34364, Note_on_c, 11, 82, 127
1, 34518, Note_off_c, 11, 82, 127
1, 34518, Note_off_c, 4, 40, 127
1, 34520, Note_on_c, 7, 43, 127
1, 34520, Note_on_c, 7, 79, 127
1, 34674, Note_off_c, 7, 79, 127
1, 34674, Note_off_c, 7, 43, 127
1, 34676, Note_on_c, 0, 36, 127
1, 34676, Note_on_c, 4, 76, 127
1, 34830, Note_off_c, 4, 76, 127
1, 34830, Note_off_c, 0, 36, 127
1, 34832, Note_on_c, 4, 40, 127
1, 34832, Note_on_c, 0, 84, 127
1, 34986, Note_off_c, 0, 84, 127
1, 34986, Note_off_c, 4, 40, 127
1, 34988, Note_on_c, 5, 41, 127
1, 34988, Note_on_c, 10, 81, 127
1, 35142, Note_off_c, 10, 81, 127
1, 35144, Note_on_c, 0, 84, 127
1, 35298, Note_off_c, 0, 84, 127
1, 35300, Note_on_c, 5, 77, 127
1, 35454, Note_off_c, 5, 77, 127
1, 35456, Note_on_c, 10, 81, 127
1, 35597, Note_off_c, 5, 41, 127
1, 35610, Note_off_c, 10, 81, 127
1, 35612, Note_on_c, 10, 45, 127
1, 35612, Note_on_c, 0, 72, 127
1, 35766, Note_off_c, 0, 72, 127
1, 35768, Note_on_c, 5, 77, 127
1, 35922, Note_off_c, 5, 77, 127
1, 35924, Note_on_c, 3, 75, 127
1, 36078, Note_off_c, 3, 75, 127
1, 36080, Note_on_c, 2, 74, 127
1, 36221, Note_off_c, 10, 45, 127
1, 36234, Note_off_c, 2, 74, 127
1, 36236, Note_on_c, 0, 48, 127
1, 36236, Note_on_c, 3, 75, 127
1, 36390, Note_off_c, 3, 75, 127
1, 36392, Note_on_c, 7, 79, 127
1, 36546, Note_off_c, 7, 79, 127
1, 36548, Note_on_c, 0, 72, 127
1, 36702, Note_off_c, 0, 72, 127
1, 36704, Note_on_c, 3, 75, 127
1, 36858, Note_off_c, 3, 75, 127
1, 36860, Note_on_c, 10, 69, 127
1, 37014, Note_off_c, 10, 69, 127
1, 37016, Note_on_c, 3, 75, 127
1, 37154, Note_off_c, 0, 48, 127
1, 37170, Note_off_c, 3, 75, 127
1, 37172, Note_on_c, 11, 46, 127
1, 37172, Note_on_c, 2, 74, 127
1, 37326, Note_off_c, 2, 74, 127
1, 37326, Note_off_c, 11, 46, 127
1, 37328, Note_on_c, 10, 45, 127
1, 37328, Note_on_c, 0, 72, 127
1, 37482, Note_off_c, 0, 72, 127
1, 37482, Note_off_c, 10, 45, 127
1, 37484, Note_on_c, 11, 46, 127
1, 37484, Note_on_c, 2, 74, 127
1, 37638, Note_off_c, 2, 74, 127
1, 37640, Note_on_c, 11, 70, 127
1, 37794, Note_off_c, 11, 70, 127
1, 37794, Note_off_c, 11, 46, 127
1, 37796, Note_on_c, 0, 48, 127
1, 37796, Note_on_c, 4, 76, 127
1, 37950, Note_off_c, 4, 76, 127
1, 37952, Note_on_c, 11, 70, 127
1, 38106, Note_off_c, 11, 70, 127
1, 38106, Note_off_c, 0, 48, 127
1, 38108, Note_on_c, 2, 50, 127
1, 38108, Note_on_c, 5, 77, 127
1, 38262, Note_off_c, 5, 77, 127
1, 38264, Note_on_c, 11, 70, 127
1, 38418, Note_off_c, 11, 70, 127
1, 38418, Note_off_c, 2, 50, 127
1, 38420, Note_on_c, 4, 52, 127
1, 38420, Note_on_c, 7, 79, 127
1, 38574, Note_off_c, 7, 79, 127
1, 38576, Note_on_c, 11, 70, 127
1, 38730, Note_off_c, 11, 70, 127
1, 38730, Note_off_c, 4, 52, 127
1, 38732, Note_on_c, 5, 53, 127
1, 38732, Note_on_c, 10, 69, 127
1, 38886, Note_off_c, 10, 69, 127
1, 38888, Note_on_c, 7, 79, 127
1, 39042, Note_off_c, 7, 79, 127
1, 39042, Note_off_c, 5, 53, 127
1, 39044, Note_on_c, 0, 48, 127
1, 39044, Note_on_c, 5, 77, 127
1, 39198, Note_off_c, 5, 77, 127
1, 39200, Note_on_c, 4, 76, 127
1, 39354, Note_off_c, 4, 76, 127
1, 39354, Note_off_c, 0, 48, 127
1, 39356, Note_on_c, 5, 53, 127
1, 39356, Note_on_c, 2, 74, 127
1, 39510, Note_off_c, 2, 74, 127
1, 39512, Note_on_c, 5, 77, 127
1, 39666, Note_off_c, 5, 77, 127
1, 39666, Note_off_c, 5, 53, 127
1, 39668, Note_on_c, 10, 57, 127
1, 39668, Note_on_c, 0, 72, 127
1, 39822, Note_off_c, 0, 72, 127
1, 39824, Note_on_c, 5, 77, 127
1, 39978, Note_off_c, 5, 77, 127
1, 39978, Note_off_c, 10, 57, 127
1, 39980, Note_on_c, 7, 55, 127
1, 39980, Note_on_c, 11, 70, 127
1, 40134, Note_off_c, 11, 70, 127
1, 40134, Note_off_c, 7, 55, 127
1, 40136, Note_on_c, 5, 53, 127
1, 40136, Note_on_c, 10, 81, 127
1, 40290, Note_off_c, 10, 81, 127
1, 40290, Note_off_c, 5, 53, 127
1, 40292, Note_on_c, 4, 52, 127
1, 40292, Note_on_c, 7, 79, 127
1, 40446, Note_off_c, 7, 79, 127
1, 40446, Note_off_c, 4, 52, 127
1, 40448, Note_on_c, 2, 50, 127
1, 40448, Note_on_c, 5, 77, 127
1, 40602, Note_off_c, 5, 77, 127
1, 40602, Note_off_c, 2, 50, 127
1, 40604, Note_on_c, 0, 48, 127
1, 40604, Note_on_c, 4, 76, 127
1, 40758, Note_off_c, 4, 76, 127
1, 40758, Note_off_c, 0, 48, 127
1, 40760, Note_on_c, 11, 46, 127
1, 40760, Note_on_c, 7, 79, 127
1, 40914, Note_off_c, 7, 79, 127
1, 40914, Note_off_c, 11, 46, 127
1, 40916, Note_on_c, 10, 45, 127
1, 40916, Note_on_c, 0, 72, 127
1, 41070, Note_off_c, 0, 72, 127
1, 41070, Note_off_c, 10, 45, 127
1, 41072, Note_on_c, 7, 43, 127
1, 41072, Note_on_c, 4, 76, 127
1, 41226, Note_off_c, 4, 76, 127
1, 41226, Note_off_c, 7, 43, 127
1, 41228, Note_on_c, 10, 45, 127
1, 41228, Note_on_c, 5, 77, 127
1, 41382, Note_off_c, 5, 77, 127
1, 41382, Note_off_c, 10, 45, 127
1, 41384, Note_on_c, 0, 48, 127
1, 41384, Note_on_c, 0, 72, 127
1, 41538, Note_off_c, 0, 72, 127
1, 41538, Note_off_c, 0, 48, 127
1, 41540, Note_on_c, 5, 41, 127
1, 41540, Note_on_c, 10, 81, 127
1, 41694, Note_off_c, 10, 81, 127
1, 41694, Note_off_c, 5, 41, 127
1, 41696, Note_on_c, 10, 45, 127
1, 41696, Note_on_c, 5, 77, 127
1, 41850, Note_off_c, 5, 77, 127
1, 41850, Note_off_c, 10, 45, 127
1, 41852, Note_on_c, 0, 48, 127
1, 41852, Note_on_c, 0, 72, 127
1, 42006, Note_off_c, 0, 72, 127
1, 42006, Note_off_c, 0, 48, 127
1, 42008, Note_on_c, 5, 53, 127
1, 42008, Note_on_c, 10, 69, 127
1, 42162, Note_off_c, 10, 69, 127
1, 42162, Note_off_c, 5, 53, 127
1, 42164, Note_on_c, 10, 45, 127
1, 42164, Note_on_c, 5, 77, 127
1, 42318, Note_off_c, 5, 77, 127
1, 42318, Note_off_c, 10, 45, 127
1, 42320, Note_on_c, 0, 48, 127
1, 42320, Note_on_c, 0, 72, 127
1, 42474, Note_off_c, 0, 72, 127
1, 42474, Note_off_c, 0, 48, 127
1, 42476, Note_on_c, 5, 53, 127
1, 42476, Note_on_c, 10, 69, 127
1, 42630, Note_off_c, 10, 69, 127
1, 42630, Note_off_c, 5, 53, 127
1, 42632, Note_on_c, 10, 57, 127
1, 42632, Note_on_c, 5, 65, 127
1, 42786, Note_off_c, 5, 65, 127
1, 42786, Note_off_c, 10, 57, 127
1, 42788, Note_on_c, 0, 48, 127
1, 42788, Note_on_c, 0, 72, 127
1, 42942, Note_off_c, 0, 72, 127
1, 42942, Note_off_c, 0, 48, 127
1, 42944, Note_on_c, 5, 53, 127
1, 42944, Note_on_c, 10, 69, 127
1, 43098, Note_off_c, 10, 69, 127
1, 43098, Note_off_c, 5, 53, 127
1, 43100, Note_on_c, 10, 57, 127
1, 43100, Note_on_c, 5, 65, 127
1, 43254, Note_off_c, 5, 65, 127
1, 43256, Note_on_c, 0, 60, 127
1, 43295, Note_off_c, 10, 57, 127
1, 43410, Note_off_c, 0, 60, 127
1, 43412, Note_on_c, 5, 53, 127
1, 43412, Note_on_c, 10, 69, 127
1, 43566, Note_off_c, 10, 69, 127
1, 43566, Note_off_c, 5, 53, 127
1, 43568, Note_on_c, 10, 57, 127
1, 43568, Note_on_c, 5, 65, 127
1, 43722, Note_off_c, 5, 65, 127
1, 43722, Note_off_c, 10, 57, 127
1, 43724, Note_on_c, 0, 60, 127
1, 44345, Note_off_c, 0, 60, 127
1, 44347, Note_on_c, 0, 48, 127
1, 44347, Note_on_c, 10, 81, 127
1, 44423, Note_off_c, 10, 81, 127
1, 44425, Note_on_c, 7, 79, 127
1, 44501, Note_off_c, 7, 79, 127
1, 44503, Note_on_c, 10, 81, 127
1, 44579, Note_off_c, 10, 81, 127
1, 44581, Note_on_c, 7, 79, 127
1, 44657, Note_off_c, 7, 79, 127
1, 44659, Note_on_c, 10, 81, 127
1, 44735, Note_off_c, 10, 81, 127
1, 44737, Note_on_c, 7, 79, 127
1, 44813, Note_off_c, 7, 79, 127
1, 44815, Note_on_c, 5, 77, 127
1, 44891, Note_off_c, 5, 77, 127
1, 44893, Note_on_c, 7, 79, 127
1, 44969, Note_off_c, 7, 79, 127
1, 44969, Note_off_c, 0, 48, 127
1, 44971, Note_on_c, 5, 53, 127
1, 44971, Note_on_c, 5, 77, 127
1, 45125, Note_off_c, 5, 53, 127
1, 45127, Note_on_c, 0, 48, 127
1, 45281, Note_off_c, 0, 48, 127
1, 45283, Note_on_c, 10, 45, 127
1, 45437, Note_off_c, 10, 45, 127
1, 45439, Note_on_c, 0, 48, 127
1, 45588, Note_off_c, 5, 77, 127
1, 45593, Note_off_c, 0, 48, 127
1, 45595, Note_on_c, 5, 41, 127
1, 45906, Note_on_c, 10, 69, 127
1, 46049, Note_off_c, 5, 41, 127
1, 46206, Note_off_c, 10, 69, 127
1, 46217, Note_on_c, 11, 70, 127
1, 46517, Note_off_c, 11, 70, 127
1, 46528, Note_on_c, 4, 52, 127
1, 46528, Note_on_c, 1, 73, 127
1, 46828, Note_off_c, 1, 73, 127
1, 46828, Note_off_c, 4, 52, 127
1, 46839, Note_on_c, 5, 53, 127
1, 46839, Note_on_c, 2, 74, 127
1, 47139, Note_off_c, 5, 53, 127
1, 47150, Note_on_c, 8, 56, 127
1, 47450, Note_off_c, 8, 56, 127
1, 47461, Note_on_c, 10, 57, 127
1, 47612, Note_off_c, 2, 74, 127
1, 47617, Note_on_c, 1, 73, 127
1, 47771, Note_off_c, 1, 73, 127
1, 47773, Note_on_c, 2, 74, 127
1, 47927, Note_off_c, 2, 74, 127
1, 47929, Note_on_c, 4, 76, 127
1, 48083, Note_off_c, 4, 76, 127
1, 48085, Note_on_c, 5, 77, 127
1, 48236, Note_off_c, 10, 57, 127
1, 48241, Note_on_c, 8, 56, 127
1, 48395, Note_off_c, 8, 56, 127
1, 48397, Note_on_c, 10, 57, 127
1, 48551, Note_off_c, 10, 57, 127
1, 48553, Note_on_c, 12, 59, 127
1, 48707, Note_off_c, 12, 59, 127
1, 48709, Note_on_c, 0, 60, 127
1, 49019, Note_off_c, 5, 77, 127
1, 49021, Note_on_c, 3, 75, 127
1, 49175, Note_off_c, 3, 75, 127
1, 49177, Note_on_c, 2, 74, 127
1, 49331, Note_off_c, 2, 74, 127
1, 49333, Note_on_c, 3, 75, 127
1, 49643, Note_off_c, 3, 75, 127
1, 49643, Note_off_c, 0, 60, 127
1, 49645, Note_on_c, 11, 58, 127
1, 49645, Note_on_c, 6, 66, 127
1, 49799, Note_off_c, 11, 58, 127
1, 49801, Note_on_c, 10, 57, 127
1, 49955, Note_off_c, 10, 57, 127
1, 49955, Note_off_c, 6, 66, 127
1, 49957, Note_on_c, 11, 58, 127
1, 49957, Note_on_c, 7, 67, 127
1, 50267, Note_off_c, 11, 58, 127
1, 50269, Note_on_c, 1, 49, 127
1, 50574, Note_off_c, 7, 67, 127
1, 50579, Note_off_c, 1, 49, 127
1, 50581, Note_on_c, 2, 50, 127
1, 50892, Note_on_c, 5, 65, 127
1, 51192, Note_off_c, 5, 65, 127
1, 51197, Note_off_c, 2, 50, 127
1, 51203, Note_on_c, 8, 68, 127
1, 51503, Note_off_c, 8, 68, 127
1, 51514, Note_on_c, 0, 48, 127
1, 51514, Note_on_c, 10, 69, 127
1, 51824, Note_off_c, 0, 48, 127
1, 51826, Note_on_c, 3, 51, 127
1, 52136, Note_off_c, 3, 51, 127
1, 52136, Note_off_c, 10, 69, 127
1, 52138, Note_on_c, 4, 52, 127
1, 52138, Note_on_c, 7, 67, 127
1, 52292, Note_off_c, 7, 67, 127
1, 52294, Note_on_c, 6, 66, 127
1, 52448, Note_off_c, 6, 66, 127
1, 52450, Note_on_c, 7, 67, 127
1, 52760, Note_off_c, 7, 67, 127
1, 52760, Note_off_c, 4, 52, 127
1, 52762, Note_on_c, 2, 50, 127
1, 52762, Note_on_c, 4, 76, 127
1, 52916, Note_off_c, 4, 76, 127
1, 52916, Note_off_c, 2, 50, 127
1, 52918, Note_on_c, 1, 49, 127
1, 52918, Note_on_c, 7, 67, 127
1, 53072, Note_off_c, 7, 67, 127
1, 53072, Note_off_c, 1, 49, 127
1, 53074, Note_on_c, 2, 50, 127
1, 53074, Note_on_c, 5, 65, 127
1, 53228, Note_off_c, 5, 65, 127
1, 53230, Note_on_c, 4, 64, 127
1, 53384, Note_off_c, 4, 64, 127
1, 53384, Note_off_c, 2, 50, 127
1, 53386, Note_on_c, 12, 59, 127
1, 53386, Note_on_c, 2, 62, 127
1, 53540, Note_off_c, 2, 62, 127
1, 53540, Note_off_c, 12, 59, 127
1, 53542, Note_on_c, 2, 50, 127
1, 53542, Note_on_c, 5, 65, 127
1, 53696, Note_off_c, 5, 65, 127
1, 53696, Note_off_c, 2, 50, 127
1, 53698, Note_on_c, 0, 48, 127
1, 53698, Note_on_c, 4, 64, 127
1, 53852, Note_off_c, 0, 48, 127
1, 53854, Note_on_c, 12, 47, 127
1, 54008, Note_off_c, 12, 47, 127
1, 54008, Note_off_c, 4, 64, 127
1, 54010, Note_on_c, 10, 45, 127
1, 54010, Note_on_c, 10, 69, 127
1, 54164, Note_off_c, 10, 45, 127
1, 54166, Note_on_c, 0, 48, 127
1, 54320, Note_off_c, 0, 48, 127
1, 54320, Note_off_c, 10, 69, 127
1, 54322, Note_on_c, 12, 47, 127
1, 54322, Note_on_c, 2, 74, 127
1, 54476, Note_off_c, 2, 74, 127
1, 54478, Note_on_c, 1, 73, 127
1, 54632, Note_off_c, 1, 73, 127
1, 54632, Note_off_c, 12, 47, 127
1, 54634, Note_on_c, 4, 52, 127
1, 54634, Note_on_c, 2, 74, 127
1, 54944, Note_off_c, 4, 52, 127
1, 54946, Note_on_c, 10, 57, 127
1, 55100, Note_off_c, 10, 57, 127
1, 55102, Note_on_c, 8, 56, 127
1, 55256, Note_off_c, 8, 56, 127
1, 55256, Note_off_c, 2, 74, 127
1, 55258, Note_on_c, 10, 57, 127
1, 55258, Note_on_c, 1, 73, 127
1, 55409, Note_off_c, 1, 73, 127
1, 55414, Note_on_c, 12, 71, 127
1, 55565, Note_off_c, 12, 71, 127
1, 55567, Note_off_c, 10, 57, 127
1, 55570, Note_on_c, 10, 69, 127
1, 55724, Note_off_c, 10, 69, 127
1, 55726, Note_on_c, 7, 67, 127
1, 55880, Note_off_c, 7, 67, 127
1, 55882, Note_on_c, 5, 65, 127
1, 56026, Note_off_c, 5, 65, 127
1, 56038, Note_on_c, 4, 64, 127
1, 56182, Note_off_c, 4, 64, 127
1, 56193, Note_on_c, 2, 62, 127
1, 56801, Note_off_c, 2, 62, 127
1, 56816, Note_on_c, 10, 45, 127
1, 56816, Note_on_c, 5, 65, 127
1, 57424, Note_off_c, 5, 65, 127
1, 57429, Note_off_c, 10, 45, 127
1, 57439, Note_on_c, 1, 49, 127
1, 57439, Note_on_c, 10, 69, 127
1, 58052, Note_off_c, 1, 49, 127
1, 58062, Note_on_c, 4, 52, 127
1, 58372, Note_off_c, 10, 69, 127
1, 58374, Note_on_c, 7, 67, 127
1, 58528, Note_off_c, 7, 67, 127
1, 58530, Note_on_c, 5, 65, 127
1, 58684, Note_off_c, 5, 65, 127
1, 58686, Note_on_c, 7, 67, 127
1, 58980, Note_off_c, 4, 52, 127
1, 58996, Note_off_c, 7, 67, 127
1, 58998, Note_on_c, 2, 50, 127
1, 58998, Note_on_c, 10, 69, 127
1, 59152, Note_off_c, 2, 50, 127
1, 59154, Note_on_c, 1, 49, 127
1, 59308, Note_off_c, 1, 49, 127
1, 59308, Note_off_c, 10, 69, 127
1, 59310, Note_on_c, 2, 50, 127
1, 59310, Note_on_c, 12, 71, 127
1, 59620, Note_off_c, 12, 71, 127
1, 59620, Note_off_c, 2, 50, 127
1, 59622, Note_on_c, 4, 52, 127
1, 59622, Note_on_c, 1, 73, 127
1, 59932, Note_off_c, 1, 73, 127
1, 59932, Note_off_c, 4, 52, 127
1, 59934, Note_on_c, 5, 53, 127
1, 59934, Note_on_c, 2, 74, 127
1, 60244, Note_off_c, 5, 53, 127
1, 60246, Note_on_c, 7, 55, 127
1, 60556, Note_off_c, 7, 55, 127
1, 60558, Note_on_c, 10, 57, 127
1, 60868, Note_off_c, 2, 74, 127
1, 60870, Note_on_c, 1, 73, 127
1, 61024, Note_off_c, 1, 73, 127
1, 61026, Note_on_c, 12, 71, 127
1, 61180, Note_off_c, 12, 71, 127
1, 61182, Note_on_c, 1, 73, 127
1, 61476, Note_off_c, 10, 57, 127
1, 61492, Note_off_c, 1, 73, 127
1, 61494, Note_on_c, 7, 55, 127
1, 61494, Note_on_c, 2, 74, 127
1, 61648, Note_off_c, 7, 55, 127
1, 61650, Note_on_c, 5, 53, 127
1, 61804, Note_off_c, 5, 53, 127
1, 61804, Note_off_c, 2, 74, 127
1, 61806, Note_on_c, 7, 55, 127
1, 61806, Note_on_c, 4, 76, 127
1, 62116, Note_off_c, 4, 76, 127
1, 62116, Note_off_c, 7, 55, 127
1, 62118, Note_on_c, 10, 57, 127
1, 62118, Note_on_c, 5, 77, 127
1, 62428, Note_off_c, 5, 77, 127
1, 62428, Note_off_c, 10, 57, 127
1, 62430, Note_on_c, 12, 59, 127
1, 62430, Note_on_c, 10, 81, 127
1, 62584, Note_off_c, 10, 81, 127
1, 62586, Note_on_c, 7, 79, 127
1, 62740, Note_off_c, 7, 79, 127
1, 62740, Note_off_c, 12, 59, 127
1, 62742, Note_on_c, 1, 61, 127
1, 62742, Note_on_c, 5, 77, 127
1, 62896, Note_off_c, 5, 77, 127
1, 62898, Note_on_c, 4, 76, 127
1, 63052, Note_off_c, 4, 76, 127
1, 63052, Note_off_c, 1, 61, 127
1, 63054, Note_on_c, 2, 62, 127
1, 63054, Note_on_c, 5, 77, 127
1, 63364, Note_off_c, 5, 77, 127
1, 63364, Note_off_c, 2, 62, 127
1, 63366, Note_on_c, 11, 58, 127
1, 63366, Note_on_c, 2, 74, 127
1, 63676, Note_off_c, 2, 74, 127
1, 63676, Note_off_c, 11, 58, 127
1, 63678, Note_on_c, 10, 57, 127
1, 63678, Note_on_c, 4, 76, 127
1, 63754, Note_off_c, 4, 76, 127
1, 63756, Note_on_c, 2, 74, 127
1, 63832, Note_off_c, 2, 74, 127
1, 63832, Note_off_c, 10, 57, 127
1, 63834, Note_on_c, 7, 55, 127
1, 63834, Note_on_c, 4, 76, 127
1, 63988, Note_off_c, 7, 55, 127
1, 63990, Note_on_c, 5, 53, 127
1, 64144, Note_off_c, 5, 53, 127
1, 64146, Note_on_c, 7, 55, 127
1, 64300, Note_off_c, 7, 55, 127
1, 64300, Note_off_c, 4, 76, 127
1, 64302, Note_on_c, 10, 57, 127
1, 64302, Note_on_c, 2, 74, 127
1, 64378, Note_off_c, 2, 74, 127
1, 64380, Note_on_c, 1, 73, 127
1, 64456, Note_off_c, 1, 73, 127
1, 64458, Note_on_c, 2, 74, 127
1, 64534, Note_off_c, 2, 74, 127
1, 64536, Note_on_c, 1, 73, 127
1, 64612, Note_off_c, 1, 73, 127
1, 64612, Note_off_c, 10, 57, 127
1, 64614, Note_on_c, 4, 52, 127
1, 64614, Note_on_c, 2, 74, 127
1, 64690, Note_off_c, 2, 74, 127
1, 64692, Note_on_c, 1, 73, 127
1, 64768, Note_off_c, 1, 73, 127
1, 64770, Note_on_c, 12, 71, 127
1, 64846, Note_off_c, 12, 71, 127
1, 64848, Note_on_c, 1, 73, 127
1, 64924, Note_off_c, 1, 73, 127
1, 64924, Note_off_c, 4, 52, 127
1, 64926, Note_on_c, 5, 53, 127
1, 64926, Note_on_c, 2, 74, 127
1, 65160, Note_off_c, 2, 74, 127
1, 65236, Note_off_c, 5, 53, 127
1, 65238, Note_on_c, 8, 56, 127
1, 65238, Note_on_c, 12, 71, 127
1, 65548, Note_off_c, 12, 71, 127
1, 65548, Note_off_c, 8, 56, 127
1, 65550, Note_on_c, 10, 57, 127
1, 65550, Note_on_c, 0, 72, 127
1, 65860, Note_off_c, 0, 72, 127
1, 65862, Note_on_c, 3, 75, 127
1, 66172, Note_off_c, 3, 75, 127
1, 66174, Note_on_c, 4, 76, 127
1, 66325, Note_off_c, 10, 57, 127
1, 66330, Note_on_c, 8, 56, 127
1, 66484, Note_off_c, 8, 56, 127
1, 66486, Note_on_c, 10, 57, 127
1, 66640, Note_off_c, 10, 57, 127
1, 66642, Note_on_c, 12, 59, 127
1, 66796, Note_off_c, 12, 59, 127
1, 66798, Note_on_c, 0, 60, 127
1, 66949, Note_off_c, 4, 76, 127
1, 66954, Note_on_c, 3, 75, 127
1, 67108, Note_off_c, 3, 75, 127
1, 67110, Note_on_c, 4, 76, 127
1, 67264, Note_off_c, 4, 76, 127
1, 67266, Note_on_c, 6, 78, 127
1, 67420, Note_off_c, 6, 78, 127
1, 67422, Note_on_c, 7, 79, 127
1, 67732, Note_off_c, 0, 60, 127
1, 67734, Note_on_c, 11, 58, 127
1, 67888, Note_off_c, 11, 58, 127
1, 67890, Note_on_c, 10, 57, 127
1, 68044, Note_off_c, 10, 57, 127
1, 68046, Note_on_c, 11, 58, 127
1, 68356, Note_off_c, 11, 58, 127
1, 68356, Note_off_c, 7, 79, 127
1, 68358, Note_on_c, 1, 49, 127
1, 68358, Note_on_c, 5, 77, 127
1, 68512, Note_off_c, 5, 77, 127
1, 68514, Note_on_c, 4, 76, 127
1, 68668, Note_off_c, 4, 76, 127
1, 68668, Note_off_c, 1, 49, 127
1, 68670, Note_on_c, 2, 50, 127
1, 68670, Note_on_c, 5, 77, 127
1, 68980, Note_off_c, 5, 77, 127
1, 68982, Note_on_c, 8, 68, 127
1, 69287, Note_off_c, 2, 50, 127
1, 69292, Note_off_c, 8, 68, 127
1, 69294, Note_on_c, 10, 69, 127
1, 69605, Note_on_c, 0, 48, 127
1, 69910, Note_off_c, 10, 69, 127
1, 69915, Note_off_c, 0, 48, 127
1, 69917, Note_on_c, 3, 51, 127
1, 70227, Note_off_c, 3, 51, 127
1, 70229, Note_on_c, 4, 52, 127
1, 70229, Note_on_c, 7, 67, 127
1, 70539, Note_off_c, 7, 67, 127
1, 70541, Note_on_c, 11, 70, 127
1, 70851, Note_off_c, 11, 70, 127
1, 70851, Note_off_c, 4, 52, 127
1, 70853, Note_on_c, 2, 50, 127
1, 70853, Note_on_c, 12, 71, 127
1, 71007, Note_off_c, 2, 50, 127
1, 71009, Note_on_c, 1, 49, 127
1, 71163, Note_off_c, 1, 49, 127
1, 71165, Note_on_c, 2, 50, 127
1, 71475, Note_off_c, 2, 50, 127
1, 71475, Note_off_c, 12, 71, 127
1, 71477, Note_on_c, 12, 59, 127
1, 71477, Note_on_c, 10, 69, 127
1, 71631, Note_off_c, 10, 69, 127
1, 71631, Note_off_c, 12, 59, 127
1, 71633, Note_on_c, 2, 50, 127
1, 71633, Note_on_c, 8, 68, 127
1, 71787, Note_off_c, 8, 68, 127
1, 71787, Note_off_c, 2, 50, 127
1, 71789, Note_on_c, 0, 48, 127
1, 71789, Note_on_c, 10, 69, 127
1, 71943, Note_off_c, 0, 48, 127
1, 71945, Note_on_c, 12, 47, 127
1, 72099, Note_off_c, 12, 47, 127
1, 72099, Note_off_c, 10, 69, 127
1, 72101, Note_on_c, 10, 45, 127
1, 72101, Note_on_c, 6, 78, 127
1, 72255, Note_off_c, 6, 78, 127
1, 72255, Note_off_c, 10, 45, 127
1, 72257, Note_on_c, 0, 48, 127
1, 72257, Note_on_c, 10, 69, 127
1, 72411, Note_off_c, 10, 69, 127
1, 72411, Note_off_c, 0, 48, 127
1, 72413, Note_on_c, 12, 47, 127
1, 72413, Note_on_c, 7, 67, 127
1, 72567, Note_off_c, 7, 67, 127
1, 72569, Note_on_c, 6, 66, 127
1, 72723, Note_off_c, 6, 66, 127
1, 72723, Note_off_c, 12, 47, 127
1, 72725, Note_on_c, 4, 52, 127
1, 72725, Note_on_c, 4, 64, 127
1, 72879, Note_off_c, 4, 64, 127
1, 72881, Note_on_c, 7, 67, 127
1, 73035, Note_off_c, 7, 67, 127
1, 73035, Note_off_c, 4, 52, 127
1, 73037, Note_on_c, 10, 57, 127
1, 73037, Note_on_c, 6, 66, 127
1, 73191, Note_off_c, 10, 57, 127
1, 73193, Note_on_c, 8, 56, 127
1, 73347, Note_off_c, 8, 56, 127
1, 73347, Note_off_c, 6, 66, 127
1, 73349, Note_on_c, 10, 57, 127
1, 73349, Note_on_c, 3, 75, 127
1, 73659, Note_off_c, 3, 75, 127
1, 73661, Note_on_c, 4, 76, 127
1, 73815, Note_off_c, 4, 76, 127
1, 73817, Note_on_c, 3, 75, 127
1, 73971, Note_off_c, 3, 75, 127
1, 73971, Note_off_c, 10, 57, 127
1, 73973, Note_on_c, 8, 56, 127
1, 73973, Note_on_c, 4, 76, 127
1, 74127, Note_off_c, 8, 56, 127
1, 74129, Note_on_c, 6, 54, 127
1, 74281, Note_off_c, 4, 76, 127
1, 74283, Note_off_c, 6, 54, 127
1, 74285, Note_on_c, 4, 52, 127
1, 74439, Note_off_c, 4, 52, 127
1, 74441, Note_on_c, 2, 50, 127
1, 74595, Note_off_c, 2, 50, 127
1, 74597, Note_on_c, 0, 48, 127
1, 74751, Note_off_c, 0, 48, 127
1, 74753, Note_on_c, 12, 47, 127
1, 74907, Note_off_c, 12, 47, 127
1, 74909, Note_on_c, 10, 45, 127
1, 75530, Note_off_c, 10, 45, 127
1, 75532, Note_on_c, 0, 48, 127
1, 75532, Note_on_c, 4, 64, 127
1, 76153, Note_off_c, 4, 64, 127
1, 76153, Note_off_c, 0, 48, 127
1, 76155, Note_on_c, 4, 52, 127
1, 76155, Note_on_c, 8, 68, 127
1, 76776, Note_off_c, 8, 68, 127
1, 76778, Note_on_c, 12, 71, 127
1, 77088, Note_off_c, 4, 52, 127
1, 77090, Note_on_c, 2, 50, 127
1, 77244, Note_off_c, 2, 50, 127
1, 77246, Note_on_c, 0, 48, 127
1, 77400, Note_off_c, 0, 48, 127
1, 77402, Note_on_c, 2, 50, 127
1, 77712, Note_off_c, 2, 50, 127
1, 77712, Note_off_c, 12, 71, 127
1, 77714, Note_on_c, 4, 52, 127
1, 77714, Note_on_c, 10, 69, 127
1, 77868, Note_off_c, 10, 69, 127
1, 77870, Note_on_c, 8, 68, 127
1, 78024, Note_off_c, 8, 68, 127
1, 78024, Note_off_c, 4, 52, 127
1, 78026, Note_on_c, 6, 54, 127
1, 78026, Note_on_c, 10, 69, 127
1, 78336, Note_off_c, 10, 69, 127
1, 78336, Note_off_c, 6, 54, 127
1, 78338, Note_on_c, 8, 56, 127
1, 78338, Note_on_c, 12, 71, 127
1, 78648, Note_off_c, 12, 71, 127
1, 78648, Note_off_c, 8, 56, 127
1, 78650, Note_on_c, 10, 57, 127
1, 78650, Note_on_c, 0, 72, 127
1, 78960, Note_off_c, 0, 72, 127
1, 78962, Note_on_c, 2, 74, 127
1, 79272, Note_off_c, 2, 74, 127
1, 79274, Note_on_c, 4, 76, 127
1, 79568, Note_off_c, 10, 57, 127
1, 79586, Note_on_c, 8, 56, 127
1, 79740, Note_off_c, 8, 56, 127
1, 79742, Note_on_c, 6, 54, 127
1, 79896, Note_off_c, 6, 54, 127
1, 79898, Note_on_c, 8, 56, 127
1, 80208, Note_off_c, 8, 56, 127
1, 80208, Note_off_c, 4, 76, 127
1, 80210, Note_on_c, 10, 57, 127
1, 80210, Note_on_c, 2, 74, 127
1, 80364, Note_off_c, 2, 74, 127
1, 80366, Note_on_c, 0, 72, 127
1, 80520, Note_off_c, 0, 72, 127
1, 80520, Note_off_c, 10, 57, 127
1, 80522, Note_on_c, 12, 59, 127
1, 80522, Note_on_c, 2, 74, 127
1, 80832, Note_off_c, 2, 74, 127
1, 80832, Note_off_c, 12, 59, 127
1, 80834, Note_on_c, 0, 60, 127
1, 80834, Note_on_c, 4, 76, 127
1, 81144, Note_off_c, 4, 76, 127
1, 81144, Note_off_c, 0, 60, 127
1, 81146, Note_on_c, 4, 64, 127
1, 81146, Note_on_c, 6, 78, 127
1, 81300, Note_off_c, 4, 64, 127
1, 81302, Note_on_c, 2, 62, 127
1, 81456, Note_off_c, 2, 62, 127
1, 81456, Note_off_c, 6, 78, 127
1, 81458, Note_on_c, 0, 60, 127
1, 81458, Note_on_c, 8, 80, 127
1, 81612, Note_off_c, 0, 60, 127
1, 81614, Note_on_c, 12, 59, 127
1, 81768, Note_off_c, 12, 59, 127
1, 81768, Note_off_c, 8, 80, 127
1, 81770, Note_on_c, 0, 60, 127
1, 81770, Note_on_c, 10, 81, 127
1, 82062, Note_off_c, 0, 60, 127
1, 82081, Note_on_c, 5, 65, 127
1, 82373, Note_off_c, 5, 65, 127
1, 82392, Note_on_c, 2, 62, 127
1, 82684, Note_off_c, 2, 62, 127
1, 82702, Note_off_c, 10, 81, 127
1, 82704, Note_on_c, 12, 59, 127
1, 82704, Note_on_c, 8, 80, 127
1, 82858, Note_off_c, 8, 80, 127
1, 82860, Note_on_c, 6, 78, 127
1, 82996, Note_off_c, 12, 59, 127
1, 83014, Note_off_c, 6, 78, 127
1, 83016, Note_on_c, 4, 64, 127
1, 83016, Note_on_c, 4, 76, 127
1, 83170, Note_off_c, 4, 76, 127
1, 83172, Note_on_c, 2, 74, 127
1, 83326, Note_off_c, 2, 74, 127
1, 83326, Note_off_c, 4, 64, 127
1, 83328, Note_on_c, 4, 52, 127
1, 83328, Note_on_c, 0, 72, 127
1, 83482, Note_off_c, 0, 72, 127
1, 83484, Note_on_c, 12, 71, 127
1, 83638, Note_off_c, 12, 71, 127
1, 83638, Note_off_c, 4, 52, 127
1, 83640, Note_on_c, 10, 57, 127
1, 83640, Note_on_c, 10, 69, 127
1, 83794, Note_off_c, 10, 57, 127
1, 83796, Note_on_c, 0, 60, 127
1, 83950, Note_off_c, 0, 60, 127
1, 83952, Note_on_c, 4, 52, 127
1, 84106, Note_off_c, 4, 52, 127
1, 84108, Note_on_c, 10, 57, 127
1, 84262, Note_off_c, 10, 57, 127
1, 84264, Note_on_c, 0, 48, 127
1, 84415, Note_off_c, 10, 69, 127
1, 84418, Note_off_c, 0, 48, 127
1, 84420, Note_on_c, 4, 52, 127
1, 84420, Note_on_c, 4, 64, 127
1, 84574, Note_off_c, 4, 64, 127
1, 84574, Note_off_c, 4, 52, 127
1, 84576, Note_on_c, 10, 45, 127
1, 84576, Note_on_c, 0, 72, 127
1, 84730, Note_off_c, 0, 72, 127
1, 84730, Note_off_c, 10, 45, 127
1, 84732, Note_on_c, 0, 48, 127
1, 84732, Note_on_c, 10, 69, 127
1, 84886, Note_off_c, 10, 69, 127
1, 84886, Note_off_c, 0, 48, 127
1, 84888, Note_on_c, 5, 41, 127
1, 84888, Note_on_c, 5, 77, 127
1, 85042, Note_off_c, 5, 77, 127
1, 85044, Note_on_c, 0, 72, 127
1, 85198, Note_off_c, 0, 72, 127
1, 85200, Note_on_c, 10, 81, 127
1, 85354, Note_off_c, 10, 81, 127
1, 85356, Note_on_c, 5, 77, 127
1, 85510, Note_off_c, 5, 77, 127
1, 85510, Note_off_c, 5, 41, 127
1, 85512, Note_on_c, 10, 45, 127
1, 85512, Note_on_c, 0, 84, 127
1, 85822, Note_off_c, 0, 84, 127
1, 85824, Note_on_c, 5, 77, 127
1, 86116, Note_off_c, 5, 77, 127
1, 86134, Note_off_c, 10, 45, 127
1, 86136, Note_on_c, 0, 48, 127
1, 86136, Note_on_c, 4, 76, 127
1, 86404, Note_off_c, 4, 76, 127
1, 86448, Note_on_c, 3, 75, 127
1, 86716, Note_off_c, 3, 75, 127
1, 86760, Note_on_c, 2, 74, 127
1, 87028, Note_off_c, 2, 74, 127
1, 87062, Note_off_c, 0, 48, 127
1, 87072, Note_on_c, 11, 46, 127
1, 87072, Note_on_c, 1, 73, 127
1, 87226, Note_off_c, 11, 46, 127
1, 87228, Note_on_c, 10, 45, 127
1, 87382, Note_off_c, 10, 45, 127
1, 87384, Note_on_c, 11, 46, 127
1, 87681, Note_off_c, 1, 73, 127
1, 87694, Note_off_c, 11, 46, 127
1, 87696, Note_on_c, 0, 48, 127
1, 87696, Note_on_c, 0, 72, 127
1, 87975, Note_off_c, 0, 72, 127
1, 88006, Note_off_c, 0, 48, 127
1, 88008, Note_on_c, 2, 50, 127
1, 88008, Note_on_c, 12, 71, 127
1, 88287, Note_off_c, 12, 71, 127
1, 88318, Note_off_c, 2, 50, 127
1, 88320, Note_on_c, 4, 52, 127
1, 88320, Note_on_c, 11, 70, 127
1, 88599, Note_off_c, 11, 70, 127
1, 88630, Note_off_c, 4, 52, 127
1, 88632, Note_on_c, 5, 53, 127
1, 88632, Note_on_c, 10, 69, 127
1, 88786, Note_off_c, 10, 69, 127
1, 88788, Note_on_c, 7, 67, 127
1, 88942, Note_off_c, 7, 67, 127
1, 88942, Note_off_c, 5, 53, 127
1, 88944, Note_on_c, 0, 48, 127
1, 88944, Note_on_c, 5, 65, 127
1, 89098, Note_off_c, 5, 65, 127
1, 89100, Note_on_c, 7, 67, 127
1, 89254, Note_off_c, 7, 67, 127
1, 89254, Note_off_c, 0, 48, 127
1, 89256, Note_on_c, 5, 53, 127
1, 89256, Note_on_c, 10, 69, 127
1, 89410, Note_off_c, 10, 69, 127
1, 89412, Note_on_c, 11, 70, 127
1, 89566, Note_off_c, 11, 70, 127
1, 89566, Note_off_c, 5, 53, 127
1, 89568, Note_on_c, 10, 57, 127
1, 89568, Note_on_c, 0, 72, 127
1, 89722, Note_off_c, 0, 72, 127
1, 89724, Note_on_c, 2, 74, 127
1, 89878, Note_off_c, 2, 74, 127
1, 89878, Note_off_c, 10, 57, 127
1, 89880, Note_on_c, 7, 55, 127
1, 89880, Note_on_c, 4, 76, 127
1, 90034, Note_off_c, 4, 76, 127
1, 90034, Note_off_c, 7, 55, 127
1, 90036, Note_on_c, 5, 53, 127
1, 90036, Note_on_c, 2, 74, 127
1, 90190, Note_off_c, 2, 74, 127
1, 90190, Note_off_c, 5, 53, 127
1, 90192, Note_on_c, 4, 52, 127
1, 90192, Note_on_c, 0, 72, 127
1, 90346, Note_off_c, 0, 72, 127
1, 90346, Note_off_c, 4, 52, 127
1, 90348, Note_on_c, 2, 50, 127
1, 90348, Note_on_c, 2, 74, 127
1, 90502, Note_off_c, 2, 74, 127
1, 90502, Note_off_c, 2, 50, 127
1, 90504, Note_on_c, 0, 48, 127
1, 90504, Note_on_c, 4, 76, 127
1, 90658, Note_off_c, 4, 76, 127
1, 90658, Note_off_c, 0, 48, 127
1, 90660, Note_on_c, 11, 46, 127
1, 90660, Note_on_c, 5, 77, 127
1, 90814, Note_off_c, 5, 77, 127
1, 90814, Note_off_c, 11, 46, 127
1, 90816, Note_on_c, 10, 45, 127
1, 90816, Note_on_c, 7, 79, 127
1, 90970, Note_off_c, 10, 45, 127
1, 90972, Note_on_c, 7, 43, 127
1, 91126, Note_off_c, 7, 43, 127
1, 91126, Note_off_c, 7, 79, 127
1, 91128, Note_on_c, 8, 44, 127
1, 91128, Note_on_c, 0, 72, 127
1, 91282, Note_off_c, 8, 44, 127
1, 91284, Note_on_c, 0, 48, 127
1, 91438, Note_off_c, 0, 48, 127
1, 91440, Note_on_c, 5, 41, 127
1, 91594, Note_off_c, 5, 41, 127
1, 91596, Note_on_c, 8, 44, 127
1, 91750, Note_off_c, 8, 44, 127
1, 91750, Note_off_c, 0, 72, 127
1, 91752, Note_on_c, 0, 36, 127
1, 91752, Note_on_c, 8, 68, 127
1, 92062, Note_off_c, 0, 36, 127
1, 92064, Note_on_c, 0, 48, 127
1, 92374, Note_off_c, 0, 48, 127
1, 92374, Note_off_c, 8, 68, 127
1, 92376, Note_on_c, 1, 49, 127
1, 92376, Note_on_c, 5, 65, 127
1, 92676, Note_off_c, 1, 49, 127
1, 92687, Note_on_c, 2, 50, 127
1, 92987, Note_off_c, 2, 50, 127
1, 92998, Note_on_c, 3, 51, 127
1, 93298, Note_off_c, 3, 51, 127
1, 93302, Note_off_c, 5, 65, 127
1, 93310, Note_on_c, 4, 52, 127
1, 93310, Note_on_c, 7, 67, 127
1, 93464, Note_off_c, 7, 67, 127
1, 93466, Note_on_c, 8, 68, 127
1, 93620, Note_off_c, 8, 68, 127
1, 93622, Note_on_c, 7, 67, 127
1, 93924, Note_off_c, 4, 52, 127
1, 93934, Note_on_c, 5, 53, 127
1, 93934, Note_on_c, 5, 65, 127
1, 93940, Note_off_c, 7, 67, 127
1, 94234, Note_off_c, 5, 53, 127
1, 94245, Note_on_c, 6, 54, 127
1, 94245, Note_on_c, 3, 63, 127
1, 94251, Note_off_c, 5, 65, 127
1, 94545, Note_off_c, 6, 54, 127
1, 94556, Note_on_c, 7, 55, 127
1, 94556, Note_on_c, 1, 61, 127
1, 94562, Note_off_c, 3, 63, 127
1, 94856, Note_off_c, 7, 55, 127
1, 94867, Note_on_c, 8, 56, 127
1, 94867, Note_on_c, 0, 60, 127
1, 94873, Note_off_c, 1, 61, 127
1, 95021, Note_off_c, 8, 56, 127
1, 95023, Note_on_c, 11, 58, 127
1, 95177, Note_off_c, 11, 58, 127
1, 95177, Note_off_c, 0, 60, 127
1, 95179, Note_on_c, 0, 60, 127
1, 95179, Note_on_c, 5, 65, 127
1, 95333, Note_off_c, 0, 60, 127
1, 95335, Note_on_c, 11, 58, 127
1, 95489, Note_off_c, 11, 58, 127
1, 95489, Note_off_c, 5, 65, 127
1, 95491, Note_on_c, 8, 56, 127
1, 95491, Note_on_c, 0, 60, 127
1, 95645, Note_off_c, 8, 56, 127
1, 95647, Note_on_c, 7, 55, 127
1, 95801, Note_off_c, 7, 55, 127
1, 95801, Note_off_c, 0, 60, 127
1, 95803, Note_on_c, 5, 53, 127
1, 95803, Note_on_c, 8, 56, 127
1, 95957, Note_off_c, 5, 53, 127
1, 95959, Note_on_c, 3, 51, 127
1, 96113, Note_off_c, 3, 51, 127
1, 96113, Note_off_c, 8, 56, 127
1, 96115, Note_on_c, 1, 49, 127
1, 96115, Note_on_c, 11, 58, 127
1, 96269, Note_off_c, 11, 58, 127
1, 96269, Note_off_c, 1, 49, 127
1, 96271, Note_on_c, 3, 51, 127
1, 96271, Note_on_c, 0, 60, 127
1, 96425, Note_off_c, 0, 60, 127
1, 96425, Note_off_c, 3, 51, 127
1, 96427, Note_on_c, 5, 53, 127
1, 96427, Note_on_c, 1, 61, 127
1, 96581, Note_off_c, 1, 61, 127
1, 96581, Note_off_c, 5, 53, 127
1, 96583, Note_on_c, 3, 51, 127
1, 96583, Note_on_c, 3, 63, 127
1, 96737, Note_off_c, 3, 63, 127
1, 96737, Note_off_c, 3, 51, 127
1, 96739, Note_on_c, 1, 49, 127
1, 96739, Note_on_c, 5, 65, 127
1, 96893, Note_off_c, 5, 65, 127
1, 96893, Note_off_c, 1, 49, 127
1, 96895, Note_on_c, 0, 48, 127
1, 96895, Note_on_c, 7, 67, 127
1, 97049, Note_off_c, 7, 67, 127
1, 97049, Note_off_c, 0, 48, 127
1, 97051, Note_on_c, 11, 46, 127
1, 97051, Note_on_c, 8, 68, 127
1, 97205, Note_off_c, 8, 68, 127
1, 97207, Note_on_c, 11, 70, 127
1, 97361, Note_off_c, 11, 70, 127
1, 97361, Note_off_c, 11, 46, 127
1, 97363, Note_on_c, 4, 52, 127
1, 97363, Note_on_c, 7, 67, 127
1, 97517, Note_off_c, 7, 67, 127
1, 97517, Note_off_c, 4, 52, 127
1, 97519, Note_on_c, 5, 53, 127
1, 97519, Note_on_c, 5, 65, 127
1, 97673, Note_off_c, 5, 65, 127
1, 97673, Note_off_c, 5, 53, 127
1, 97675, Note_on_c, 7, 55, 127
1, 97675, Note_on_c, 4, 64, 127
1, 97829, Note_off_c, 4, 64, 127
1, 97829, Note_off_c, 7, 55, 127
1, 97831, Note_on_c, 5, 53, 127
1, 97831, Note_on_c, 5, 65, 127
1, 97985, Note_off_c, 5, 65, 127
1, 97985, Note_off_c, 5, 53, 127
1, 97987, Note_on_c, 4, 52, 127
1, 97987, Note_on_c, 7, 67, 127
1, 98141, Note_off_c, 7, 67, 127
1, 98141, Note_off_c, 4, 52, 127
1, 98143, Note_on_c, 2, 50, 127
1, 98143, Note_on_c, 8, 68, 127
1, 98297, Note_off_c, 8, 68, 127
1, 98297, Note_off_c, 2, 50, 127
1, 98299, Note_on_c, 0, 48, 127
1, 98299, Note_on_c, 11, 70, 127
1, 98453, Note_off_c, 11, 70, 127
1, 98455, Note_on_c, 0, 72, 127
1, 98609, Note_off_c, 0, 72, 127
1, 98609, Note_off_c, 0, 48, 127
1, 98611, Note_on_c, 5, 53, 127
1, 98611, Note_on_c, 8, 68, 127
1, 98765, Note_off_c, 8, 68, 127
1, 98765, Note_off_c, 5, 53, 127
1, 98767, Note_on_c, 7, 55, 127
1, 98767, Note_on_c, 7, 67, 127
1, 98921, Note_off_c, 7, 67, 127
1, 98921, Note_off_c, 7, 55, 127
1, 98923, Note_on_c, 8, 56, 127
1, 98923, Note_on_c, 5, 65, 127
1, 99077, Note_off_c, 5, 65, 127
1, 99077, Note_off_c, 8, 56, 127
1, 99079, Note_on_c, 7, 55, 127
1, 99079, Note_on_c, 7, 67, 127
1, 99233, Note_off_c, 7, 67, 127
1, 99233, Note_off_c, 7, 55, 127
1, 99235, Note_on_c, 5, 53, 127
1, 99235, Note_on_c, 8, 68, 127
1, 99389, Note_off_c, 8, 68, 127
1, 99389, Note_off_c, 5, 53, 127
1, 99391, Note_on_c, 3, 51, 127
1, 99391, Note_on_c, 11, 70, 127
1, 99545, Note_off_c, 11, 70, 127
1, 99545, Note_off_c, 3, 51, 127
1, 99547, Note_on_c, 1, 49, 127
1, 99547, Note_on_c, 0, 72, 127
1, 99701, Note_off_c, 0, 72, 127
1, 99703, Note_on_c, 1, 73, 127
1, 99857, Note_off_c, 1, 73, 127
1, 99857, Note_off_c, 1, 49, 127
1, 99859, Note_on_c, 0, 48, 127
1, 99859, Note_on_c, 4, 64, 127
1, 100013, Note_off_c, 4, 64, 127
1, 100015, Note_on_c, 1, 73, 127
1, 100169, Note_off_c, 1, 73, 127
1, 100169, Note_off_c, 0, 48, 127
1, 100171, Note_on_c, 0, 36, 127
1, 100171, Note_on_c, 0, 72, 127
1, 100325, Note_off_c, 0, 72, 127
1, 100327, Note_on_c, 11, 70, 127
1, 100479, Note_off_c, 0, 36, 127
1, 100481, Note_off_c, 11, 70, 127
1, 100483, Note_on_c, 8, 68, 127
1, 100637, Note_off_c, 8, 68, 127
1, 100639, Note_on_c, 7, 67, 127
1, 100793, Note_off_c, 7, 67, 127
1, 100795, Note_on_c, 0, 48, 127
1, 100795, Note_on_c, 5, 65, 127
1, 100949, Note_off_c, 5, 65, 127
1, 100951, Note_on_c, 4, 64, 127
1, 101105, Note_off_c, 4, 64, 127
1, 101105, Note_off_c, 0, 48, 127
1, 101107, Note_on_c, 1, 49, 127
1, 101107, Note_on_c, 5, 65, 127
1, 101417, Note_off_c, 5, 65, 127
1, 101417, Note_off_c, 1, 49, 127
1, 101419, Note_on_c, 4, 52, 127
1, 101419, Note_on_c, 7, 67, 127
1, 101729, Note_off_c, 7, 67, 127
1, 101729, Note_off_c, 4, 52, 127
1, 101731, Note_on_c, 5, 53, 127
1, 101731, Note_on_c, 8, 68, 127
1, 102041, Note_off_c, 8, 68, 127
1, 102043, Note_on_c, 12, 71, 127
1, 102353, Note_off_c, 12, 71, 127
1, 102355, Note_on_c, 0, 72, 127
1, 102486, Note_off_c, 5, 53, 127
1, 102510, Note_on_c, 4, 52, 127
1, 102664, Note_off_c, 4, 52, 127
1, 102666, Note_on_c, 5, 53, 127
1, 102820, Note_off_c, 5, 53, 127
1, 102822, Note_on_c, 7, 55, 127
1, 102976, Note_off_c, 7, 55, 127
1, 102978, Note_on_c, 8, 56, 127
1, 103129, Note_off_c, 0, 72, 127
1, 103134, Note_on_c, 12, 71, 127
1, 103288, Note_off_c, 12, 71, 127
1, 103290, Note_on_c, 0, 72, 127
1, 103444, Note_off_c, 0, 72, 127
1, 103446, Note_on_c, 2, 74, 127
1, 103600, Note_off_c, 2, 74, 127
1, 103602, Note_on_c, 3, 75, 127
1, 103896, Note_off_c, 8, 56, 127
1, 103914, Note_on_c, 6, 54, 127
1, 104068, Note_off_c, 6, 54, 127
1, 104070, Note_on_c, 5, 53, 127
1, 104224, Note_off_c, 5, 53, 127
1, 104226, Note_on_c, 6, 54, 127
1, 104536, Note_off_c, 6, 54, 127
1, 104536, Note_off_c, 3, 75, 127
1, 104538, Note_on_c, 10, 45, 127
1, 104538, Note_on_c, 1, 73, 127
1, 104692, Note_off_c, 1, 73, 127
1, 104694, Note_on_c, 0, 72, 127
1, 104848, Note_off_c, 0, 72, 127
1, 104848, Note_off_c, 10, 45, 127
1, 104850, Note_on_c, 11, 46, 127
1, 104850, Note_on_c, 1, 73, 127
1, 105150, Note_off_c, 1, 73, 127
1, 105161, Note_on_c, 4, 64, 127
1, 105461, Note_off_c, 4, 64, 127
1, 105472, Note_on_c, 5, 65, 127
1, 105628, Note_off_c, 11, 46, 127
1, 105784, Note_on_c, 8, 44, 127
1, 106089, Note_off_c, 5, 65, 127
1, 106094, Note_off_c, 8, 44, 127
1, 106096, Note_on_c, 12, 47, 127
1, 106406, Note_off_c, 12, 47, 127
1, 106408, Note_on_c, 0, 48, 127
1, 106408, Note_on_c, 3, 63, 127
1, 106718, Note_off_c, 3, 63, 127
1, 106720, Note_on_c, 6, 66, 127
1, 107030, Note_off_c, 6, 66, 127
1, 107030, Note_off_c, 0, 48, 127
1, 107032, Note_on_c, 11, 46, 127
1, 107032, Note_on_c, 7, 67, 127
1, 107186, Note_off_c, 11, 46, 127
1, 107188, Note_on_c, 10, 45, 127
1, 107342, Note_off_c, 10, 45, 127
1, 107344, Note_on_c, 11, 46, 127
1, 107654, Note_off_c, 11, 46, 127
1, 107654, Note_off_c, 7, 67, 127
1, 107656, Note_on_c, 7, 55, 127
1, 107656, Note_on_c, 5, 65, 127
1, 107810, Note_off_c, 5, 65, 127
1, 107810, Note_off_c, 7, 55, 127
1, 107812, Note_on_c, 11, 46, 127
1, 107812, Note_on_c, 4, 64, 127
1, 107966, Note_off_c, 4, 64, 127
1, 107966, Note_off_c, 11, 46, 127
1, 107968, Note_on_c, 8, 44, 127
1, 107968, Note_on_c, 5, 65, 127
1, 108122, Note_off_c, 8, 44, 127
1, 108124, Note_on_c, 7, 43, 127
1, 108278, Note_off_c, 7, 43, 127
1, 108278, Note_off_c, 5, 65, 127
1, 108280, Note_on_c, 5, 41, 127
1, 108280, Note_on_c, 2, 74, 127
1, 108434, Note_off_c, 2, 74, 127
1, 108434, Note_off_c, 5, 41, 127
1, 108436, Note_on_c, 8, 44, 127
1, 108436, Note_on_c, 5, 65, 127
1, 108590, Note_off_c, 5, 65, 127
1, 108590, Note_off_c, 8, 44, 127
1, 108592, Note_on_c, 7, 43, 127
1, 108592, Note_on_c, 3, 63, 127
1, 108746, Note_off_c, 3, 63, 127
1, 108748, Note_on_c, 2, 62, 127
1, 108902, Note_off_c, 2, 62, 127
1, 108902, Note_off_c, 7, 43, 127
1, 108904, Note_on_c, 0, 48, 127
1, 108904, Note_on_c, 0, 60, 127
1, 109058, Note_off_c, 0, 60, 127
1, 109060, Note_on_c, 3, 63, 127
1, 109214, Note_off_c, 3, 63, 127
1, 109214, Note_off_c, 0, 48, 127
1, 109216, Note_on_c, 5, 53, 127
1, 109216, Note_on_c, 2, 62, 127
1, 109370, Note_off_c, 5, 53, 127
1, 109372, Note_on_c, 4, 52, 127
1, 109526, Note_off_c, 4, 52, 127
1, 109526, Note_off_c, 2, 62, 127
1, 109528, Note_on_c, 5, 53, 127
1, 109528, Note_on_c, 12, 71, 127
1, 109838, Note_off_c, 12, 71, 127
1, 109840, Note_on_c, 0, 72, 127
1, 109994, Note_off_c, 0, 72, 127
1, 109996, Note_on_c, 12, 71, 127
1, 110150, Note_off_c, 12, 71, 127
1, 110150, Note_off_c, 5, 53, 127
1, 110152, Note_on_c, 4, 52, 127
1, 110152, Note_on_c, 0, 72, 127
1, 110306, Note_off_c, 4, 52, 127
1, 110308, Note_on_c, 2, 50, 127
1, 110462, Note_off_c, 2, 50, 127
1, 110464, Note_on_c, 0, 48, 127
1, 110618, Note_off_c, 0, 48, 127
1, 110620, Note_on_c, 11, 46, 127
1, 110769, Note_off_c, 0, 72, 127
1, 110774, Note_off_c, 11, 46, 127
1, 110776, Note_on_c, 8, 44, 127
1, 110930, Note_off_c, 8, 44, 127
1, 110932, Note_on_c, 7, 43, 127
1, 111086, Note_off_c, 7, 43, 127
1, 111088, Note_on_c, 5, 41, 127
1, 111709, Note_off_c, 5, 41, 127
1, 111711, Note_on_c, 8, 44, 127
1, 111711, Note_on_c, 0, 60, 127
1, 112332, Note_off_c, 0, 60, 127
1, 112332, Note_off_c, 8, 44, 127
1, 112334, Note_on_c, 0, 48, 127
1, 112334, Note_on_c, 4, 64, 127
1, 112955, Note_off_c, 4, 64, 127
1, 112957, Note_on_c, 7, 67, 127
1, 113267, Note_off_c, 0, 48, 127
1, 113269, Note_on_c, 11, 46, 127
1, 113423, Note_off_c, 11, 46, 127
1, 113425, Note_on_c, 8, 44, 127
1, 113579, Note_off_c, 8, 44, 127
1, 113581, Note_on_c, 11, 46, 127
1, 113873, Note_off_c, 7, 67, 127
1, 113891, Note_off_c, 11, 46, 127
1, 113893, Note_on_c, 0, 48, 127
1, 113893, Note_on_c, 5, 65, 127
1, 114047, Note_off_c, 5, 65, 127
1, 114049, Note_on_c, 4, 64, 127
1, 114203, Note_off_c, 4, 64, 127
1, 114203, Note_off_c, 0, 48, 127
1, 114205, Note_on_c, 2, 50, 127
1, 114205, Note_on_c, 5, 65, 127
1, 114515, Note_off_c, 5, 65, 127
1, 114515, Note_off_c, 2, 50, 127
1, 114517, Note_on_c, 4, 52, 127
1, 114517, Note_on_c, 7, 67, 127
1, 114827, Note_off_c, 7, 67, 127
1, 114827, Note_off_c, 4, 52, 127
1, 114829, Note_on_c, 5, 53, 127
1, 114829, Note_on_c, 8, 68, 127
1, 115139, Note_off_c, 8, 68, 127
1, 115141, Note_on_c, 11, 70, 127
1, 115451, Note_off_c, 11, 70, 127
1, 115453, Note_on_c, 0, 72, 127
1, 115747, Note_off_c, 5, 53, 127
1, 115765, Note_on_c, 4, 52, 127
1, 115919, Note_off_c, 4, 52, 127
1, 115921, Note_on_c, 2, 50, 127
1, 116075, Note_off_c, 2, 50, 127
1, 116077, Note_on_c, 4, 52, 127
1, 116387, Note_off_c, 4, 52, 127
1, 116387, Note_off_c, 0, 72, 127
1, 116389, Note_on_c, 5, 53, 127
1, 116389, Note_on_c, 11, 70, 127
1, 116543, Note_off_c, 11, 70, 127
1, 116545, Note_on_c, 8, 68, 127
1, 116699, Note_off_c, 8, 68, 127
1, 116699, Note_off_c, 5, 53, 127
1, 116701, Note_on_c, 7, 55, 127
1, 116701, Note_on_c, 11, 70, 127
1, 117011, Note_off_c, 11, 70, 127
1, 117011, Note_off_c, 7, 55, 127
1, 117013, Note_on_c, 8, 56, 127
1, 117013, Note_on_c, 0, 72, 127
1, 117323, Note_off_c, 0, 72, 127
1, 117323, Note_off_c, 8, 56, 127
1, 117325, Note_on_c, 11, 58, 127
1, 117325, Note_on_c, 2, 74, 127
1, 117635, Note_off_c, 2, 74, 127
1, 117635, Note_off_c, 11, 58, 127
1, 117637, Note_on_c, 8, 56, 127
1, 117637, Note_on_c, 4, 76, 127
1, 117791, Note_off_c, 8, 56, 127
1, 117793, Note_on_c, 7, 55, 127
1, 117947, Note_off_c, 7, 55, 127
1, 117947, Note_off_c, 4, 76, 127
1, 117949, Note_on_c, 8, 56, 127
1, 117949, Note_on_c, 5, 77, 127
1, 118259, Note_off_c, 8, 56, 127
1, 118261, Note_on_c, 1, 61, 127
1, 118571, Note_off_c, 1, 61, 127
1, 118573, Note_on_c, 11, 58, 127
1, 118883, Note_off_c, 11, 58, 127
1, 118883, Note_off_c, 5, 77, 127
1, 118885, Note_on_c, 7, 55, 127
1, 118885, Note_on_c, 4, 76, 127
1, 119039, Note_off_c, 4, 76, 127
1, 119041, Note_on_c, 2, 74, 127
1, 119195, Note_off_c, 2, 74, 127
1, 119195, Note_off_c, 7, 55, 127
1, 119197, Note_on_c, 0, 60, 127
1, 119197, Note_on_c, 0, 72, 127
1, 119351, Note_off_c, 0, 72, 127
1, 119353, Note_on_c, 11, 70, 127
1, 119507, Note_off_c, 11, 70, 127
1, 119507, Note_off_c, 0, 60, 127
1, 119509, Note_on_c, 0, 48, 127
1, 119509, Note_on_c, 8, 68, 127
1, 119663, Note_off_c, 8, 68, 127
1, 119665, Note_on_c, 7, 67, 127
1, 119819, Note_off_c, 7, 67, 127
1, 119819, Note_off_c, 0, 48, 127
1, 119821, Note_on_c, 5, 53, 127
1, 119821, Note_on_c, 8, 68, 127
1, 120131, Note_off_c, 8, 68, 127
1, 120131, Note_off_c, 5, 53, 127
1, 120133, Note_on_c, 2, 50, 127
1, 120133, Note_on_c, 12, 71, 127
1, 120443, Note_off_c, 12, 71, 127
1, 120443, Note_off_c, 2, 50, 127
1, 120445, Note_on_c, 3, 51, 127
1, 120445, Note_on_c, 0, 72, 127
1, 120755, Note_off_c, 3, 51, 127
1, 120757, Note_on_c, 6, 54, 127
1, 121067, Note_off_c, 6, 54, 127
1, 121069, Note_on_c, 7, 55, 127
1, 121176, Note_off_c, 0, 72, 127
1, 121225, Note_on_c, 12, 71, 127
1, 121379, Note_off_c, 12, 71, 127
1, 121381, Note_on_c, 0, 72, 127
1, 121535, Note_off_c, 0, 72, 127
1, 121537, Note_on_c, 2, 74, 127
1, 121691, Note_off_c, 2, 74, 127
1, 121693, Note_on_c, 3, 75, 127
1, 121844, Note_off_c, 7, 55, 127
1, 121849, Note_on_c, 6, 54, 127
1, 122003, Note_off_c, 6, 54, 127
1, 122005, Note_on_c, 7, 55, 127
1, 122159, Note_off_c, 7, 55, 127
1, 122161, Note_on_c, 10, 57, 127
1, 122315, Note_off_c, 10, 57, 127
1, 122317, Note_on_c, 11, 58, 127
1, 122602, Note_off_c, 3, 75, 127
1, 122628, Note_on_c, 1, 73, 127
1, 122782, Note_off_c, 1, 73, 127
1, 122784, Note_on_c, 0, 72, 127
1, 122938, Note_off_c, 0, 72, 127
1, 122940, Note_on_c, 1, 73, 127
1, 123250, Note_off_c, 1, 73, 127
1, 123250, Note_off_c, 11, 58, 127
1, 123252, Note_on_c, 8, 56, 127
1, 123252, Note_on_c, 4, 64, 127
1, 123406, Note_off_c, 8, 56, 127
1, 123408, Note_on_c, 7, 55, 127
1, 123562, Note_off_c, 7, 55, 127
1, 123562, Note_off_c, 4, 64, 127
1, 123564, Note_on_c, 8, 56, 127
1, 123564, Note_on_c, 5, 65, 127
1, 123858, Note_off_c, 8, 56, 127
1, 123876, Note_on_c, 12, 47, 127
1, 124170, Note_off_c, 12, 47, 127
1, 124181, Note_off_c, 5, 65, 127
1, 124187, Note_on_c, 0, 48, 127
1, 124498, Note_on_c, 3, 63, 127
1, 124803, Note_off_c, 0, 48, 127
1, 124808, Note_off_c, 3, 63, 127
1, 124810, Note_on_c, 6, 66, 127
1, 125120, Note_off_c, 6, 66, 127
1, 125122, Note_on_c, 11, 46, 127
1, 125122, Note_on_c, 7, 67, 127
1, 125432, Note_off_c, 11, 46, 127
1, 125434, Note_on_c, 1, 49, 127
1, 125744, Note_off_c, 1, 49, 127
1, 125744, Note_off_c, 7, 67, 127
1, 125746, Note_on_c, 2, 50, 127
1, 125746, Note_on_c, 5, 65, 127
1, 125900, Note_off_c, 5, 65, 127
1, 125902, Note_on_c, 4, 64, 127
1, 126056, Note_off_c, 4, 64, 127
1, 126058, Note_on_c, 5, 65, 127
1, 126368, Note_off_c, 5, 65, 127
1, 126368, Note_off_c, 2, 50, 127
1, 126370, Note_on_c, 0, 48, 127
1, 126370, Note_on_c, 2, 74, 127
1, 126524, Note_off_c, 2, 74, 127
1, 126524, Note_off_c, 0, 48, 127
1, 126526, Note_on_c, 12, 47, 127
1, 126526, Note_on_c, 5, 65, 127
1, 126680, Note_off_c, 5, 65, 127
1, 126680, Note_off_c, 12, 47, 127
1, 126682, Note_on_c, 0, 48, 127
1, 126682, Note_on_c, 3, 63, 127
1, 126836, Note_off_c, 3, 63, 127
1, 126838, Note_on_c, 2, 62, 127
1, 126992, Note_off_c, 2, 62, 127
1, 126992, Note_off_c, 0, 48, 127
1, 126994, Note_on_c, 10, 57, 127
1, 126994, Note_on_c, 0, 60, 127
1, 127148, Note_off_c, 0, 60, 127
1, 127148, Note_off_c, 10, 57, 127
1, 127150, Note_on_c, 0, 48, 127
1, 127150, Note_on_c, 3, 63, 127
1, 127304, Note_off_c, 3, 63, 127
1, 127304, Note_off_c, 0, 48, 127
1, 127306, Note_on_c, 11, 46, 127
1, 127306, Note_on_c, 2, 62, 127
1, 127460, Note_off_c, 11, 46, 127
1, 127462, Note_on_c, 10, 45, 127
1, 127616, Note_off_c, 10, 45, 127
1, 127616, Note_off_c, 2, 62, 127
1, 127618, Note_on_c, 7, 43, 127
1, 127618, Note_on_c, 7, 67, 127
1, 127772, Note_off_c, 7, 43, 127
1, 127774, Note_on_c, 11, 46, 127
1, 127928, Note_off_c, 11, 46, 127
1, 127928, Note_off_c, 7, 67, 127
1, 127930, Note_on_c, 10, 45, 127
1, 127930, Note_on_c, 0, 72, 127
1, 128084, Note_off_c, 0, 72, 127
1, 128086, Note_on_c, 12, 71, 127
1, 128240, Note_off_c, 12, 71, 127
1, 128240, Note_off_c, 10, 45, 127
1, 128242, Note_on_c, 2, 50, 127
1, 128242, Note_on_c, 0, 72, 127
1, 128552, Note_off_c, 2, 50, 127
1, 128554, Note_on_c, 7, 55, 127
1, 128708, Note_off_c, 7, 55, 127
1, 128710, Note_on_c, 6, 54, 127
1, 128864, Note_off_c, 6, 54, 127
1, 128864, Note_off_c, 0, 72, 127
1, 128866, Note_on_c, 7, 55, 127
1, 128866, Note_on_c, 12, 71, 127
1, 129020, Note_off_c, 12, 71, 127
1, 129022, Note_on_c, 10, 69, 127
1, 129174, Note_off_c, 7, 55, 127
1, 129176, Note_off_c, 10, 69, 127
1, 129178, Note_on_c, 7, 67, 127
1, 129332, Note_off_c, 7, 67, 127
1, 129334, Note_on_c, 5, 65, 127
1, 129488, Note_off_c, 5, 65, 127
1, 129490, Note_on_c, 3, 63, 127
1, 129644, Note_off_c, 3, 63, 127
1, 129646, Note_on_c, 2, 62, 127
1, 129790, Note_off_c, 2, 62, 127
1, 129801, Note_on_c, 0, 60, 127
1, 130422, Note_off_c, 0, 60, 127
1, 130424, Note_on_c, 7, 43, 127
1, 130424, Note_on_c, 3, 63, 127
1, 131045, Note_off_c, 3, 63, 127
1, 131045, Note_off_c, 7, 43, 127
1, 131047, Note_on_c, 12, 47, 127
1, 131047, Note_on_c, 7, 67, 127
1, 131668, Note_off_c, 12, 47, 127
1, 131670, Note_on_c, 2, 50, 127
1, 131980, Note_off_c, 7, 67, 127
1, 131982, Note_on_c, 5, 65, 127
1, 132136, Note_off_c, 5, 65, 127
1, 132138, Note_on_c, 3, 63, 127
1, 132292, Note_off_c, 3, 63, 127
1, 132294, Note_on_c, 5, 65, 127
1, 132604, Note_off_c, 5, 65, 127
1, 132604, Note_off_c, 2, 50, 127
1, 132606, Note_on_c, 0, 48, 127
1, 132606, Note_on_c, 7, 67, 127
1, 132760, Note_off_c, 0, 48, 127
1, 132762, Note_on_c, 12, 47, 127
1, 132916, Note_off_c, 12, 47, 127
1, 132916, Note_off_c, 7, 67, 127
1, 132918, Note_on_c, 0, 48, 127
1, 132918, Note_on_c, 10, 69, 127
1, 133228, Note_off_c, 10, 69, 127
1, 133228, Note_off_c, 0, 48, 127
1, 133230, Note_on_c, 2, 50, 127
1, 133230, Note_on_c, 12, 71, 127
1, 133540, Note_off_c, 12, 71, 127
1, 133540, Note_off_c, 2, 50, 127
1, 133542, Note_on_c, 3, 51, 127
1, 133542, Note_on_c, 0, 72, 127
1, 133852, Note_off_c, 3, 51, 127
1, 133854, Note_on_c, 5, 53, 127
1, 134164, Note_off_c, 5, 53, 127
1, 134166, Note_on_c, 7, 55, 127
1, 134476, Note_off_c, 0, 72, 127
1, 134478, Note_on_c, 12, 71, 127
1, 134632, Note_off_c, 12, 71, 127
1, 134634, Note_on_c, 10, 69, 127
1, 134788, Note_off_c, 10, 69, 127
1, 134790, Note_on_c, 12, 71, 127
1, 135084, Note_off_c, 7, 55, 127
1, 135100, Note_off_c, 12, 71, 127
1, 135102, Note_on_c, 5, 53, 127
1, 135102, Note_on_c, 0, 72, 127
1, 135256, Note_off_c, 5, 53, 127
1, 135258, Note_on_c, 3, 51, 127
1, 135412, Note_off_c, 3, 51, 127
1, 135412, Note_off_c, 0, 72, 127
1, 135414, Note_on_c, 5, 53, 127
1, 135414, Note_on_c, 2, 74, 127
1, 135724, Note_off_c, 2, 74, 127
1, 135724, Note_off_c, 5, 53, 127
1, 135726, Note_on_c, 7, 55, 127
1, 135726, Note_on_c, 3, 75, 127
1, 136036, Note_off_c, 3, 75, 127
1, 136036, Note_off_c, 7, 55, 127
1, 136038, Note_on_c, 10, 57, 127
1, 136038, Note_on_c, 7, 79, 127
1, 136192, Note_off_c, 7, 79, 127
1, 136194, Note_on_c, 5, 77, 127
1, 136348, Note_off_c, 5, 77, 127
1, 136348, Note_off_c, 10, 57, 127
1, 136350, Note_on_c, 12, 59, 127
1, 136350, Note_on_c, 3, 75, 127
1, 136504, Note_off_c, 3, 75, 127
1, 136506, Note_on_c, 2, 74, 127
1, 136660, Note_off_c, 2, 74, 127
1, 136660, Note_off_c, 12, 59, 127
1, 136662, Note_on_c, 0, 60, 127
1, 136662, Note_on_c, 3, 75, 127
1, 136972, Note_off_c, 3, 75, 127
1, 136972, Note_off_c, 0, 60, 127
1, 136974, Note_on_c, 8, 56, 127
1, 136974, Note_on_c, 0, 72, 127
1, 137284, Note_off_c, 0, 72, 127
1, 137284, Note_off_c, 8, 56, 127
1, 137286, Note_on_c, 7, 55, 127
1, 137286, Note_on_c, 2, 74, 127
1, 137388, Note_off_c, 2, 74, 127
1, 137390, Note_on_c, 0, 72, 127
1, 137440, Note_off_c, 7, 55, 127
1, 137442, Note_on_c, 5, 53, 127
1, 137492, Note_off_c, 0, 72, 127
1, 137494, Note_on_c, 2, 74, 127
1, 137596, Note_off_c, 5, 53, 127
1, 137598, Note_on_c, 3, 51, 127
1, 137752, Note_off_c, 3, 51, 127
1, 137754, Note_on_c, 5, 53, 127
1, 137908, Note_off_c, 5, 53, 127
1, 137908, Note_off_c, 2, 74, 127
1, 137910, Note_on_c, 7, 55, 127
1, 137910, Note_on_c, 0, 72, 127
1, 138064, Note_off_c, 0, 72, 127
1, 138066, Note_on_c, 12, 71, 127
1, 138220, Note_off_c, 12, 71, 127
1, 138220, Note_off_c, 7, 55, 127
1, 138222, Note_on_c, 7, 43, 127
1, 138222, Note_on_c, 10, 69, 127
1, 138376, Note_off_c, 10, 69, 127
1, 138378, Note_on_c, 12, 71, 127
1, 138532, Note_off_c, 12, 71, 127
1, 138532, Note_off_c, 7, 43, 127
1, 138534, Note_on_c, 0, 48, 127
1, 138534, Note_on_c, 0, 72, 127
1, 138688, Note_off_c, 0, 48, 127
1, 138690, Note_on_c, 10, 69, 127
1, 138844, Note_off_c, 10, 69, 127
1, 138846, Note_on_c, 7, 67, 127
1, 139000, Note_off_c, 7, 67, 127
1, 139002, Note_on_c, 5, 65, 127
1, 139151, Note_off_c, 0, 72, 127
1, 139156, Note_off_c, 5, 65, 127
1, 139158, Note_on_c, 4, 64, 127
1, 139312, Note_off_c, 4, 64, 127
1, 139314, Note_on_c, 2, 62, 127
1, 139468, Note_off_c, 2, 62, 127
1, 139470, Note_on_c, 0, 60, 127
1, 139624, Note_off_c, 0, 60, 127
1, 139626, Note_on_c, 11, 58, 127
1, 139780, Note_off_c, 11, 58, 127
1, 139782, Note_on_c, 10, 57, 127
1, 139782, Note_on_c, 5, 65, 127
1, 139933, Note_off_c, 5, 65, 127
1, 139933, Note_off_c, 10, 57, 127
1, 139938, Note_on_c, 5, 65, 127
1, 140094, Note_on_c, 4, 64, 127
1, 140245, Note_off_c, 4, 64, 127
1, 140250, Note_on_c, 2, 62, 127
1, 140389, Note_off_c, 5, 65, 127
1, 140400, Note_off_c, 2, 62, 127
1, 140405, Note_on_c, 0, 60, 127
1, 140405, Note_on_c, 10, 69, 127
1, 140556, Note_off_c, 0, 60, 127
1, 140561, Note_on_c, 11, 58, 127
1, 140712, Note_off_c, 11, 58, 127
1, 140717, Note_on_c, 10, 57, 127
1, 140868, Note_off_c, 10, 57, 127
1, 140873, Note_on_c, 7, 55, 127
1, 141024, Note_off_c, 7, 55, 127
1, 141024, Note_off_c, 10, 69, 127
1, 141029, Note_on_c, 5, 53, 127
1, 141029, Note_on_c, 0, 72, 127
1, 141180, Note_off_c, 5, 53, 127
1, 141185, Note_on_c, 11, 58, 127
1, 141336, Note_off_c, 11, 58, 127
1, 141341, Note_on_c, 10, 57, 127
1, 141492, Note_off_c, 10, 57, 127
1, 141497, Note_on_c, 7, 55, 127
1, 141648, Note_off_c, 7, 55, 127
1, 141653, Note_on_c, 5, 53, 127
1, 141804, Note_off_c, 5, 53, 127
1, 141806, Note_off_c, 0, 72, 127
1, 141809, Note_on_c, 3, 51, 127
1, 141960, Note_off_c, 3, 51, 127
1, 141965, Note_on_c, 2, 50, 127
1, 141965, Note_on_c, 11, 70, 127
1, 142116, Note_off_c, 11, 70, 127
1, 142116, Note_off_c, 2, 50, 127
1, 142121, Note_on_c, 0, 48, 127
1, 142121, Note_on_c, 10, 69, 127
1, 142272, Note_off_c, 10, 69, 127
1, 142272, Note_off_c, 0, 48, 127
1, 142277, Note_on_c, 2, 50, 127
1, 142277, Note_on_c, 11, 70, 127
1, 142428, Note_off_c, 2, 50, 127
1, 142433, Note_on_c, 5, 53, 127
1, 142584, Note_off_c, 5, 53, 127
1, 142584, Note_off_c, 11, 70, 127
1, 142589, Note_on_c, 4, 52, 127
1, 142589, Note_on_c, 0, 72, 127
1, 142740, Note_off_c, 4, 52, 127
1, 142745, Note_on_c, 2, 50, 127
1, 142896, Note_off_c, 2, 50, 127
1, 142896, Note_off_c, 0, 72, 127
1, 142901, Note_on_c, 0, 48, 127
1, 142901, Note_on_c, 2, 74, 127
1, 143052, Note_off_c, 0, 48, 127
1, 143057, Note_on_c, 11, 46, 127
1, 143208, Note_off_c, 11, 46, 127
1, 143208, Note_off_c, 2, 74, 127
1, 143213, Note_on_c, 10, 45, 127
1, 143213, Note_on_c, 4, 76, 127
1, 143364, Note_off_c, 10, 45, 127
1, 143369, Note_on_c, 7, 43, 127
1, 143520, Note_off_c, 7, 43, 127
1, 143520, Note_off_c, 4, 76, 127
1, 143525, Note_on_c, 10, 45, 127
1, 143525, Note_on_c, 5, 77, 127
1, 143831, Note_off_c, 5, 77, 127
1, 143831, Note_off_c, 10, 45, 127
1, 143836, Note_on_c, 5, 41, 127
1, 143836, Note_on_c, 0, 72, 127
1, 144141, Note_off_c, 5, 41, 127
1, 144143, Note_off_c, 0, 72, 127
1, 144148, Note_on_c, 5, 77, 127
1, 144454, Note_off_c, 5, 77, 127
1, 144459, Note_on_c, 10, 81, 127
1, 144765, Note_off_c, 10, 81, 127
1, 144770, Note_on_c, 0, 48, 127
1, 144770, Note_on_c, 7, 79, 127
1, 144921, Note_off_c, 7, 79, 127
1, 144926, Note_on_c, 5, 77, 127
1, 145077, Note_off_c, 5, 77, 127
1, 145082, Note_on_c, 4, 76, 127
1, 145233, Note_off_c, 4, 76, 127
1, 145238, Note_on_c, 2, 74, 127
1, 145389, Note_off_c, 2, 74, 127
1, 145389, Note_off_c, 0, 48, 127
1, 145394, Note_on_c, 4, 52, 127
1, 145394, Note_on_c, 0, 72, 127
1, 145545, Note_off_c, 0, 72, 127
1, 145550, Note_on_c, 11, 70, 127
1, 145701, Note_off_c, 11, 70, 127
1, 145706, Note_on_c, 10, 69, 127
1, 145857, Note_off_c, 10, 69, 127
1, 145862, Note_on_c, 7, 67, 127
1, 146013, Note_off_c, 7, 67, 127
1, 146013, Note_off_c, 4, 52, 127
1, 146018, Note_on_c, 5, 53, 127
1, 146018, Note_on_c, 10, 69, 127
1, 146169, Note_off_c, 10, 69, 127
1, 146174, Note_on_c, 0, 72, 127
1, 146325, Note_off_c, 0, 72, 127
1, 146330, Note_on_c, 5, 65, 127
1, 146481, Note_off_c, 5, 65, 127
1, 146486, Note_on_c, 10, 69, 127
1, 146637, Note_off_c, 10, 69, 127
1, 146642, Note_on_c, 2, 74, 127
1, 146859, Note_off_c, 5, 53, 127
1, 146953, Note_on_c, 5, 53, 127
1, 147104, Note_off_c, 5, 53, 127
1, 147109, Note_on_c, 4, 52, 127
1, 147260, Note_off_c, 4, 52, 127
1, 147265, Note_on_c, 5, 53, 127
1, 147571, Note_off_c, 5, 53, 127
1, 147571, Note_off_c, 2, 74, 127
1, 147576, Note_on_c, 7, 55, 127
1, 147576, Note_on_c, 0, 72, 127
1, 147727, Note_off_c, 0, 72, 127
1, 147732, Note_on_c, 12, 71, 127
1, 147883, Note_off_c, 12, 71, 127
1, 147883, Note_off_c, 7, 55, 127
1, 147888, Note_on_c, 10, 57, 127
1, 147888, Note_on_c, 0, 72, 127
1, 148039, Note_off_c, 0, 72, 127
1, 148044, Note_on_c, 4, 76, 127
1, 148195, Note_off_c, 4, 76, 127
1, 148195, Note_off_c, 10, 57, 127
1, 148200, Note_on_c, 12, 59, 127
1, 148200, Note_on_c, 2, 74, 127
1, 148351, Note_off_c, 2, 74, 127
1, 148356, Note_on_c, 5, 77, 127
1, 148507, Note_off_c, 5, 77, 127
1, 148507, Note_off_c, 12, 59, 127
1, 148512, Note_on_c, 0, 60, 127
1, 148512, Note_on_c, 4, 76, 127
1, 148663, Note_off_c, 4, 76, 127
1, 148668, Note_on_c, 2, 74, 127
1, 148819, Note_off_c, 2, 74, 127
1, 148819, Note_off_c, 0, 60, 127
1, 148824, Note_on_c, 7, 55, 127
1, 148824, Note_on_c, 0, 72, 127
1, 148975, Note_off_c, 0, 72, 127
1, 148980, Note_on_c, 12, 71, 127
1, 149131, Note_off_c, 12, 71, 127
1, 149131, Note_off_c, 7, 55, 127
1, 149136, Note_on_c, 0, 60, 127
1, 149136, Note_on_c, 10, 69, 127
1, 149287, Note_off_c, 10, 69, 127
1, 149292, Note_on_c, 0, 72, 127
1, 149443, Note_off_c, 0, 72, 127
1, 149443, Note_off_c, 0, 60, 127
1, 149448, Note_on_c, 4, 64, 127
1, 149448, Note_on_c, 7, 67, 127
1, 149599, Note_off_c, 7, 67, 127
1, 149604, Note_on_c, 0, 72, 127
1, 149755, Note_off_c, 0, 72, 127
1, 149755, Note_off_c, 4, 64, 127
1, 149760, Note_on_c, 2, 62, 127
1, 149760, Note_on_c, 5, 65, 127
1, 149911, Note_off_c, 5, 65, 127
1, 149911, Note_off_c, 2, 62, 127
1, 149916, Note_on_c, 0, 60, 127
1, 149916, Note_on_c, 4, 76, 127
1, 150067, Note_off_c, 4, 76, 127
1, 150067, Note_off_c, 0, 60, 127
1, 150072, Note_on_c, 12, 59, 127
1, 150072, Note_on_c, 2, 74, 127
1, 150223, Note_off_c, 2, 74, 127
1, 150223, Note_off_c, 12, 59, 127
1, 150228, Note_on_c, 10, 57, 127
1, 150228, Note_on_c, 0, 72, 127
1, 150379, Note_off_c, 0, 72, 127
1, 150379, Note_off_c, 10, 57, 127
1, 150384, Note_on_c, 7, 55, 127
1, 150384, Note_on_c, 12, 71, 127
1, 150535, Note_off_c, 12, 71, 127
1, 150535, Note_off_c, 7, 55, 127
1, 150540, Note_on_c, 5, 53, 127
1, 150540, Note_on_c, 2, 74, 127
1, 150691, Note_off_c, 2, 74, 127
1, 150691, Note_off_c, 5, 53, 127
1, 150696, Note_on_c, 4, 52, 127
1, 150696, Note_on_c, 7, 67, 127
1, 150847, Note_off_c, 7, 67, 127
1, 150847, Note_off_c, 4, 52, 127
1, 150852, Note_on_c, 2, 50, 127
1, 150852, Note_on_c, 12, 71, 127
1, 151003, Note_off_c, 12, 71, 127
1, 151003, Note_off_c, 2, 50, 127
1, 151008, Note_on_c, 4, 52, 127
1, 151008, Note_on_c, 0, 72, 127
1, 151159, Note_off_c, 4, 52, 127
1, 151164, Note_on_c, 7, 55, 127
1, 151315, Note_off_c, 7, 55, 127
1, 151320, Note_on_c, 0, 48, 127
1, 151471, Note_off_c, 0, 48, 127
1, 151476, Note_on_c, 4, 52, 127
1, 151627, Note_off_c, 4, 52, 127
1, 151632, Note_on_c, 10, 57, 127
1, 151720, Note_off_c, 0, 72, 127
1, 151788, Note_on_c, 4, 76, 127
1, 151939, Note_off_c, 4, 76, 127
1, 151944, Note_on_c, 10, 69, 127
1, 152095, Note_off_c, 10, 69, 127
1, 152100, Note_on_c, 0, 72, 127
1, 152251, Note_off_c, 0, 72, 127
1, 152256, Note_on_c, 5, 65, 127
1, 152391, Note_off_c, 10, 57, 127
1, 152412, Note_on_c, 0, 60, 127
1, 152563, Note_off_c, 0, 60, 127
1, 152568, Note_on_c, 5, 53, 127
1, 152719, Note_off_c, 5, 53, 127
1, 152724, Note_on_c, 10, 57, 127
1, 152875, Note_off_c, 10, 57, 127
1, 152880, Note_on_c, 2, 50, 127
1, 152968, Note_off_c, 5, 65, 127
1, 153036, Note_on_c, 10, 69, 127
1, 153187, Note_off_c, 10, 69, 127
1, 153192, Note_on_c, 2, 62, 127
1, 153343, Note_off_c, 2, 62, 127
1, 153348, Note_on_c, 5, 65, 127
1, 153499, Note_off_c, 5, 65, 127
1, 153504, Note_on_c, 11, 70, 127
1, 153639, Note_off_c, 2, 50, 127
1, 153660, Note_on_c, 5, 53, 127
1, 153811, Note_off_c, 5, 53, 127
1, 153816, Note_on_c, 11, 46, 127
1, 153967, Note_off_c, 11, 46, 127
1, 153972, Note_on_c, 2, 50, 127
1, 154123, Note_off_c, 2, 50, 127
1, 154128, Note_on_c, 7, 55, 127
1, 154216, Note_off_c, 11, 70, 127
1, 154284, Note_on_c, 2, 74, 127
1, 154435, Note_off_c, 2, 74, 127
1, 154440, Note_on_c, 7, 67, 127
1, 154591, Note_off_c, 7, 67, 127
1, 154596, Note_on_c, 11, 70, 127
1, 154747, Note_off_c, 11, 70, 127
1, 154752, Note_on_c, 4, 64, 127
1, 154887, Note_off_c, 7, 55, 127
1, 154908, Note_on_c, 11, 58, 127
1, 155059, Note_off_c, 11, 58, 127
1, 155064, Note_on_c, 4, 52, 127
1, 155215, Note_off_c, 4, 52, 127
1, 155220, Note_on_c, 7, 55, 127
1, 155371, Note_off_c, 7, 55, 127
1, 155376, Note_on_c, 0, 48, 127
1, 155464, Note_off_c, 4, 64, 127
1, 155532, Note_on_c, 7, 67, 127
1, 155683, Note_off_c, 7, 67, 127
1, 155688, Note_on_c, 0, 60, 127
1, 155839, Note_off_c, 0, 60, 127
1, 155844, Note_on_c, 4, 64, 127
1, 155995, Note_off_c, 4, 64, 127
1, 156000, Note_on_c, 10, 69, 127
1, 156135, Note_off_c, 0, 48, 127
1, 156151, Note_off_c, 10, 69, 127
1, 156156, Note_on_c, 4, 52, 127
1, 156156, Note_on_c, 0, 72, 127
1, 156307, Note_off_c, 0, 72, 127
1, 156307, Note_off_c, 4, 52, 127
1, 156312, Note_on_c, 10, 45, 127
1, 156312, Note_on_c, 5, 65, 127
1, 156463, Note_off_c, 5, 65, 127
1, 156463, Note_off_c, 10, 45, 127
1, 156468, Note_on_c, 0, 48, 127
1, 156468, Note_on_c, 10, 69, 127
1, 156619, Note_off_c, 10, 69, 127
1, 156619, Note_off_c, 0, 48, 127
1, 156624, Note_on_c, 5, 53, 127
1, 156624, Note_on_c, 2, 62, 127
1, 156775, Note_off_c, 2, 62, 127
1, 156775, Note_off_c, 5, 53, 127
1, 156780, Note_on_c, 10, 57, 127
1, 156780, Note_on_c, 5, 65, 127
1, 156931, Note_off_c, 5, 65, 127
1, 156931, Note_off_c, 10, 57, 127
1, 156936, Note_on_c, 2, 50, 127
1, 156936, Note_on_c, 11, 58, 127
1, 157087, Note_off_c, 11, 58, 127
1, 157087, Note_off_c, 2, 50, 127
1, 157092, Note_on_c, 5, 53, 127
1, 157092, Note_on_c, 2, 62, 127
1, 157243, Note_off_c, 2, 62, 127
1, 157243, Note_off_c, 5, 53, 127
1, 157248, Note_on_c, 11, 46, 127
1, 157248, Note_on_c, 7, 67, 127
1, 157399, Note_off_c, 7, 67, 127
1, 157399, Note_off_c, 11, 46, 127
1, 157404, Note_on_c, 2, 50, 127
1, 157404, Note_on_c, 11, 70, 127
1, 157555, Note_off_c, 11, 70, 127
1, 157555, Note_off_c, 2, 50, 127
1, 157560, Note_on_c, 7, 43, 127
1, 157560, Note_on_c, 4, 64, 127
1, 157711, Note_off_c, 4, 64, 127
1, 157711, Note_off_c, 7, 43, 127
1, 157716, Note_on_c, 11, 46, 127
1, 157716, Note_on_c, 7, 67, 127
1, 157867, Note_off_c, 7, 67, 127
1, 157867, Note_off_c, 11, 46, 127
1, 157872, Note_on_c, 4, 52, 127
1, 157872, Note_on_c, 0, 60, 127
1, 158023, Note_off_c, 0, 60, 127
1, 158023, Note_off_c, 4, 52, 127
1, 158028, Note_on_c, 7, 55, 127
1, 158028, Note_on_c, 4, 64, 127
1, 158179, Note_off_c, 4, 64, 127
1, 158179, Note_off_c, 7, 55, 127
1, 158184, Note_on_c, 0, 48, 127
1, 158184, Note_on_c, 10, 57, 127
1, 158335, Note_off_c, 10, 57, 127
1, 158335, Note_off_c, 0, 48, 127
1, 158340, Note_on_c, 4, 52, 127
1, 158340, Note_on_c, 0, 60, 127
1, 158491, Note_off_c, 0, 60, 127
1, 158491, Note_off_c, 4, 52, 127
1, 158496, Note_on_c, 10, 45, 127
1, 158496, Note_on_c, 5, 65, 127
1, 158647, Note_off_c, 5, 65, 127
1, 158647, Note_off_c, 10, 45, 127
1, 158652, Note_on_c, 0, 48, 127
1, 158652, Note_on_c, 10, 69, 127
1, 158803, Note_off_c, 10, 69, 127
1, 158803, Note_off_c, 0, 48, 127
1, 158808, Note_on_c, 5, 41, 127
1, 158808, Note_on_c, 2, 62, 127
1, 158959, Note_off_c, 2, 62, 127
1, 158959, Note_off_c, 5, 41, 127
1, 158964, Note_on_c, 10, 45, 127
1, 158964, Note_on_c, 5, 65, 127
1, 159115, Note_off_c, 5, 65, 127
1, 159115, Note_off_c, 10, 45, 127
1, 159120, Note_on_c, 2, 50, 127
1, 159120, Note_on_c, 11, 70, 127
1, 159271, Note_off_c, 11, 70, 127
1, 159271, Note_off_c, 2, 50, 127
1, 159276, Note_on_c, 5, 53, 127
1, 159276, Note_on_c, 2, 74, 127
1, 159427, Note_off_c, 2, 74, 127
1, 159427, Note_off_c, 5, 53, 127
1, 159432, Note_on_c, 11, 46, 127
1, 159432, Note_on_c, 7, 67, 127
1, 159583, Note_off_c, 7, 67, 127
1, 159583, Note_off_c, 11, 46, 127
1, 159588, Note_on_c, 2, 50, 127
1, 159588, Note_on_c, 11, 70, 127
1, 159739, Note_off_c, 11, 70, 127
1, 159739, Note_off_c, 2, 50, 127
1, 159744, Note_on_c, 4, 52, 127
1, 159744, Note_on_c, 0, 60, 127
1, 159895, Note_off_c, 4, 52, 127
1, 159900, Note_on_c, 7, 55, 127
1, 160051, Note_off_c, 7, 55, 127
1, 160056, Note_on_c, 0, 48, 127
1, 160207, Note_off_c, 0, 48, 127
1, 160212, Note_on_c, 4, 52, 127
1, 160363, Note_off_c, 4, 52, 127
1, 160363, Note_off_c, 0, 60, 127
1, 160368, Note_on_c, 7, 55, 127
1, 160368, Note_on_c, 4, 64, 127
1, 160519, Note_off_c, 7, 55, 127
1, 160524, Note_on_c, 11, 58, 127
1, 160675, Note_off_c, 11, 58, 127
1, 160680, Note_on_c, 4, 52, 127
1, 160831, Note_off_c, 4, 52, 127
1, 160836, Note_on_c, 7, 55, 127
1, 160987, Note_off_c, 7, 55, 127
1, 160987, Note_off_c, 4, 64, 127
1, 160992, Note_on_c, 10, 57, 127
1, 160992, Note_on_c, 5, 65, 127
1, 161146, Note_off_c, 10, 57, 127
1, 161148, Note_on_c, 0, 60, 127
1, 161302, Note_off_c, 0, 60, 127
1, 161304, Note_on_c, 5, 53, 127
1, 161458, Note_off_c, 5, 53, 127
1, 161460, Note_on_c, 10, 57, 127
1, 161614, Note_off_c, 10, 57, 127
1, 161616, Note_on_c, 2, 62, 127
1, 161772, Note_off_c, 5, 65, 127
1, 161928, Note_on_c, 5, 65, 127
1, 162082, Note_off_c, 5, 65, 127
1, 162084, Note_on_c, 4, 64, 127
1, 162238, Note_off_c, 4, 64, 127
1, 162240, Note_on_c, 5, 65, 127
1, 162525, Note_off_c, 2, 62, 127
1, 162549, Note_off_c, 5, 65, 127
1, 162551, Note_on_c, 0, 60, 127
1, 162551, Note_on_c, 7, 67, 127
1, 162705, Note_off_c, 0, 60, 127
1, 162707, Note_on_c, 11, 58, 127
1, 162861, Note_off_c, 11, 58, 127
1, 162861, Note_off_c, 7, 67, 127
1, 162863, Note_on_c, 0, 60, 127
1, 162863, Note_on_c, 10, 69, 127
1, 163017, Note_off_c, 0, 60, 127
1, 163019, Note_on_c, 3, 63, 127
1, 163173, Note_off_c, 3, 63, 127
1, 163173, Note_off_c, 10, 69, 127
1, 163175, Note_on_c, 2, 62, 127
1, 163175, Note_on_c, 11, 70, 127
1, 163329, Note_off_c, 2, 62, 127
1, 163331, Note_on_c, 5, 65, 127
1, 163485, Note_off_c, 5, 65, 127
1, 163485, Note_off_c, 11, 70, 127
1, 163487, Note_on_c, 3, 63, 127
1, 163487, Note_on_c, 0, 72, 127
1, 163641, Note_off_c, 3, 63, 127
1, 163643, Note_on_c, 2, 62, 127
1, 163797, Note_off_c, 2, 62, 127
1, 163797, Note_off_c, 0, 72, 127
1, 163799, Note_on_c, 3, 63, 127
1, 163799, Note_on_c, 5, 65, 127
1, 163953, Note_off_c, 3, 63, 127
1, 163955, Note_on_c, 0, 60, 127
1, 164109, Note_off_c, 0, 60, 127
1, 164109, Note_off_c, 5, 65, 127
1, 164111, Note_on_c, 2, 62, 127
1, 164111, Note_on_c, 11, 70, 127
1, 164265, Note_off_c, 2, 62, 127
1, 164267, Note_on_c, 5, 65, 127
1, 164421, Note_off_c, 5, 65, 127
1, 164421, Note_off_c, 11, 70, 127
1, 164423, Note_on_c, 11, 58, 127
1, 164423, Note_on_c, 2, 74, 127
1, 164577, Note_off_c, 11, 58, 127
1, 164579, Note_on_c, 2, 62, 127
1, 164733, Note_off_c, 2, 62, 127
1, 164733, Note_off_c, 2, 74, 127
1, 164735, Note_on_c, 3, 51, 127
1, 164735, Note_on_c, 0, 72, 127
1, 164889, Note_off_c, 0, 72, 127
1, 164889, Note_off_c, 3, 51, 127
1, 164891, Note_on_c, 2, 62, 127
1, 164891, Note_on_c, 11, 70, 127
1, 165045, Note_off_c, 11, 70, 127
1, 165045, Note_off_c, 2, 62, 127
1, 165047, Note_on_c, 0, 60, 127
1, 165047, Note_on_c, 10, 69, 127
1, 165201, Note_off_c, 10, 69, 127
1, 165201, Note_off_c, 0, 60, 127
1, 165203, Note_on_c, 11, 58, 127
1, 165203, Note_on_c, 7, 67, 127
1, 165357, Note_off_c, 7, 67, 127
1, 165357, Note_off_c, 11, 58, 127
1, 165359, Note_on_c, 10, 57, 127
1, 165359, Note_on_c, 5, 65, 127
1, 165513, Note_off_c, 5, 65, 127
1, 165513, Note_off_c, 10, 57, 127
1, 165515, Note_on_c, 0, 60, 127
1, 165515, Note_on_c, 3, 63, 127
1, 165669, Note_off_c, 3, 63, 127
1, 165669, Note_off_c, 0, 60, 127
1, 165671, Note_on_c, 5, 53, 127
1, 165671, Note_on_c, 2, 62, 127
1, 165825, Note_off_c, 2, 62, 127
1, 165825, Note_off_c, 5, 53, 127
1, 165827, Note_on_c, 10, 57, 127
1, 165827, Note_on_c, 0, 60, 127
1, 165981, Note_off_c, 0, 60, 127
1, 165981, Note_off_c, 10, 57, 127
1, 165983, Note_on_c, 11, 46, 127
1, 165983, Note_on_c, 2, 62, 127
1, 166137, Note_off_c, 2, 62, 127
1, 166139, Note_on_c, 11, 58, 127
1, 166293, Note_off_c, 11, 58, 127
1, 166295, Note_on_c, 5, 65, 127
1, 166449, Note_off_c, 5, 65, 127
1, 166451, Note_on_c, 2, 62, 127
1, 166605, Note_off_c, 2, 62, 127
1, 166607, Note_on_c, 11, 70, 127
1, 166730, Note_off_c, 11, 46, 127
1, 166762, Note_on_c, 7, 43, 127
1, 166916, Note_off_c, 7, 43, 127
1, 166918, Note_on_c, 2, 50, 127
1, 167072, Note_off_c, 2, 50, 127
1, 167074, Note_on_c, 11, 46, 127
1, 167228, Note_off_c, 11, 46, 127
1, 167230, Note_on_c, 7, 55, 127
1, 167381, Note_off_c, 11, 70, 127
1, 167386, Note_on_c, 2, 74, 127
1, 167540, Note_off_c, 2, 74, 127
1, 167542, Note_on_c, 7, 67, 127
1, 167696, Note_off_c, 7, 67, 127
1, 167698, Note_on_c, 11, 70, 127
1, 167852, Note_off_c, 11, 70, 127
1, 167854, Note_on_c, 4, 64, 127
1, 167977, Note_off_c, 7, 55, 127
1, 168009, Note_on_c, 11, 58, 127
1, 168163, Note_off_c, 11, 58, 127
1, 168165, Note_on_c, 4, 52, 127
1, 168319, Note_off_c, 4, 52, 127
1, 168321, Note_on_c, 7, 55, 127
1, 168475, Note_off_c, 7, 55, 127
1, 168477, Note_on_c, 0, 48, 127
1, 168628, Note_off_c, 4, 64, 127
1, 168633, Note_on_c, 0, 60, 127
1, 168787, Note_off_c, 0, 60, 127
1, 168789, Note_on_c, 7, 67, 127
1, 168943, Note_off_c, 7, 67, 127
1, 168945, Note_on_c, 4, 64, 127
1, 169099, Note_off_c, 4, 64, 127
1, 169101, Note_on_c, 0, 72, 127
1, 169224, Note_off_c, 0, 48, 127
1, 169256, Note_on_c, 10, 45, 127
1, 169410, Note_off_c, 10, 45, 127
1, 169412, Note_on_c, 4, 52, 127
1, 169566, Note_off_c, 4, 52, 127
1, 169568, Note_on_c, 0, 48, 127
1, 169722, Note_off_c, 0, 48, 127
1, 169724, Note_on_c, 10, 57, 127
1, 169875, Note_off_c, 0, 72, 127
1, 169880, Note_on_c, 4, 76, 127
1, 170034, Note_off_c, 4, 76, 127
1, 170036, Note_on_c, 10, 69, 127
1, 170190, Note_off_c, 10, 69, 127
1, 170192, Note_on_c, 0, 72, 127
1, 170346, Note_off_c, 0, 72, 127
1, 170348, Note_on_c, 5, 65, 127
1, 170471, Note_off_c, 10, 57, 127
1, 170503, Note_on_c, 0, 60, 127
1, 170657, Note_off_c, 0, 60, 127
1, 170659, Note_on_c, 5, 53, 127
1, 170813, Note_off_c, 5, 53, 127
1, 170815, Note_on_c, 10, 57, 127
1, 170969, Note_off_c, 10, 57, 127
1, 170971, Note_on_c, 2, 50, 127
1, 171122, Note_off_c, 5, 65, 127
1, 171127, Note_on_c, 2, 62, 127
1, 171281, Note_off_c, 2, 62, 127
1, 171283, Note_on_c, 10, 69, 127
1, 171437, Note_off_c, 10, 69, 127
1, 171439, Note_on_c, 5, 65, 127
1, 171593, Note_off_c, 5, 65, 127
1, 171595, Note_on_c, 2, 74, 127
1, 171734, Note_off_c, 2, 50, 127
1, 171749, Note_off_c, 2, 74, 127
1, 171751, Note_on_c, 5, 53, 127
1, 171751, Note_on_c, 10, 69, 127
1, 171905, Note_off_c, 10, 69, 127
1, 171905, Note_off_c, 5, 53, 127
1, 171907, Note_on_c, 2, 50, 127
1, 171907, Note_on_c, 5, 77, 127
1, 172061, Note_off_c, 5, 77, 127
1, 172061, Note_off_c, 2, 50, 127
1, 172063, Note_on_c, 5, 53, 127
1, 172063, Note_on_c, 2, 74, 127
1, 172217, Note_off_c, 2, 74, 127
1, 172217, Note_off_c, 5, 53, 127
1, 172219, Note_on_c, 7, 55, 127
1, 172219, Note_on_c, 11, 70, 127
1, 172373, Note_off_c, 11, 70, 127
1, 172373, Note_off_c, 7, 55, 127
1, 172375, Note_on_c, 11, 58, 127
1, 172375, Note_on_c, 7, 67, 127
1, 172529, Note_off_c, 7, 67, 127
1, 172529, Note_off_c, 11, 58, 127
1, 172531, Note_on_c, 2, 50, 127
1, 172531, Note_on_c, 2, 74, 127
1, 172685, Note_off_c, 2, 74, 127
1, 172685, Note_off_c, 2, 50, 127
1, 172687, Note_on_c, 7, 55, 127
1, 172687, Note_on_c, 11, 70, 127
1, 172841, Note_off_c, 11, 70, 127
1, 172841, Note_off_c, 7, 55, 127
1, 172843, Note_on_c, 11, 46, 127
1, 172843, Note_on_c, 7, 79, 127
1, 172997, Note_off_c, 7, 79, 127
1, 172997, Note_off_c, 11, 46, 127
1, 172999, Note_on_c, 2, 50, 127
1, 172999, Note_on_c, 2, 74, 127
1, 173153, Note_off_c, 2, 74, 127
1, 173153, Note_off_c, 2, 50, 127
1, 173155, Note_on_c, 7, 43, 127
1, 173155, Note_on_c, 11, 82, 127
1, 173309, Note_off_c, 11, 82, 127
1, 173309, Note_off_c, 7, 43, 127
1, 173311, Note_on_c, 11, 46, 127
1, 173311, Note_on_c, 7, 79, 127
1, 173465, Note_off_c, 7, 79, 127
1, 173465, Note_off_c, 11, 46, 127
1, 173467, Note_on_c, 0, 48, 127
1, 173467, Note_on_c, 4, 76, 127
1, 173621, Note_off_c, 4, 76, 127
1, 173621, Note_off_c, 0, 48, 127
1, 173623, Note_on_c, 4, 52, 127
1, 173623, Note_on_c, 0, 72, 127
1, 173777, Note_off_c, 0, 72, 127
1, 173777, Note_off_c, 4, 52, 127
1, 173779, Note_on_c, 7, 43, 127
1, 173779, Note_on_c, 7, 79, 127
1, 173933, Note_off_c, 7, 79, 127
1, 173933, Note_off_c, 7, 43, 127
1, 173935, Note_on_c, 0, 48, 127
1, 173935, Note_on_c, 4, 76, 127
1, 174089, Note_off_c, 4, 76, 127
1, 174089, Note_off_c, 0, 48, 127
1, 174091, Note_on_c, 4, 40, 127
1, 174091, Note_on_c, 11, 82, 127
1, 174245, Note_off_c, 11, 82, 127
1, 174245, Note_off_c, 4, 40, 127
1, 174247, Note_on_c, 7, 43, 127
1, 174247, Note_on_c, 7, 79, 127
1, 174401, Note_off_c, 7, 79, 127
1, 174401, Note_off_c, 7, 43, 127
1, 174403, Note_on_c, 0, 36, 127
1, 174403, Note_on_c, 4, 76, 127
1, 174557, Note_off_c, 4, 76, 127
1, 174557, Note_off_c, 0, 36, 127
1, 174559, Note_on_c, 4, 40, 127
1, 174559, Note_on_c, 0, 84, 127
1, 174713, Note_off_c, 0, 84, 127
1, 174713, Note_off_c, 4, 40, 127
1, 174715, Note_on_c, 5, 41, 127
1, 174715, Note_on_c, 10, 81, 127
1, 174869, Note_off_c, 10, 81, 127
1, 174871, Note_on_c, 0, 84, 127
1, 175025, Note_off_c, 0, 84, 127
1, 175027, Note_on_c, 5, 77, 127
1, 175181, Note_off_c, 5, 77, 127
1, 175183, Note_on_c, 10, 81, 127
1, 175337, Note_off_c, 10, 81, 127
1, 175337, Note_off_c, 5, 41, 127
1, 175339, Note_on_c, 10, 45, 127
1, 175339, Note_on_c, 0, 72, 127
1, 175493, Note_off_c, 0, 72, 127
1, 175495, Note_on_c, 5, 77, 127
1, 175649, Note_off_c, 5, 77, 127
1, 175651, Note_on_c, 3, 75, 127
1, 175805, Note_off_c, 3, 75, 127
1, 175807, Note_on_c, 2, 74, 127
1, 175961, Note_off_c, 2, 74, 127
1, 175961, Note_off_c, 10, 45, 127
1, 175963, Note_on_c, 0, 48, 127
1, 175963, Note_on_c, 3, 75, 127
1, 176117, Note_off_c, 3, 75, 127
1, 176119, Note_on_c, 7, 79, 127
1, 176273, Note_off_c, 7, 79, 127
1, 176275, Note_on_c, 0, 72, 127
1, 176429, Note_off_c, 0, 72, 127
1, 176431, Note_on_c, 3, 75, 127
1, 176585, Note_off_c, 3, 75, 127
1, 176587, Note_on_c, 10, 69, 127
1, 176741, Note_off_c, 10, 69, 127
1, 176743, Note_on_c, 3, 75, 127
1, 176873, Note_off_c, 0, 48, 127
1, 176897, Note_off_c, 3, 75, 127
1, 176899, Note_on_c, 11, 46, 127
1, 176899, Note_on_c, 2, 74, 127
1, 177053, Note_off_c, 2, 74, 127
1, 177053, Note_off_c, 11, 46, 127
1, 177055, Note_on_c, 10, 45, 127
1, 177055, Note_on_c, 0, 72, 127
1, 177209, Note_off_c, 0, 72, 127
1, 177209, Note_off_c, 10, 45, 127
1, 177211, Note_on_c, 11, 46, 127
1, 177211, Note_on_c, 2, 74, 127
1, 177365, Note_off_c, 2, 74, 127
1, 177367, Note_on_c, 11, 70, 127
1, 177521, Note_off_c, 11, 70, 127
1, 177521, Note_off_c, 11, 46, 127
1, 177523, Note_on_c, 0, 48, 127
1, 177523, Note_on_c, 4, 76, 127
1, 177677, Note_off_c, 4, 76, 127
1, 177679, Note_on_c, 11, 70, 127
1, 177833, Note_off_c, 11, 70, 127
1, 177833, Note_off_c, 0, 48, 127
1, 177835, Note_on_c, 2, 50, 127
1, 177835, Note_on_c, 5, 77, 127
1, 177989, Note_off_c, 5, 77, 127
1, 177991, Note_on_c, 11, 70, 127
1, 178145, Note_off_c, 11, 70, 127
1, 178145, Note_off_c, 2, 50, 127
1, 178147, Note_on_c, 4, 52, 127
1, 178147, Note_on_c, 7, 79, 127
1, 178301, Note_off_c, 7, 79, 127
1, 178303, Note_on_c, 11, 70, 127
1, 178457, Note_off_c, 11, 70, 127
1, 178457, Note_off_c, 4, 52, 127
1, 178459, Note_on_c, 5, 53, 127
1, 178459, Note_on_c, 10, 69, 127
1, 178613, Note_off_c, 10, 69, 127
1, 178615, Note_on_c, 7, 79, 127
1, 178769, Note_off_c, 7, 79, 127
1, 178769, Note_off_c, 5, 53, 127
1, 178771, Note_on_c, 0, 48, 127
1, 178771, Note_on_c, 5, 77, 127
1, 178925, Note_off_c, 5, 77, 127
1, 178927, Note_on_c, 4, 76, 127
1, 179081, Note_off_c, 4, 76, 127
1, 179081, Note_off_c, 0, 48, 127
1, 179083, Note_on_c, 5, 53, 127
1, 179083, Note_on_c, 2, 74, 127
1, 179237, Note_off_c, 2, 74, 127
1, 179239, Note_on_c, 5, 77, 127
1, 179393, Note_off_c, 5, 77, 127
1, 179393, Note_off_c, 5, 53, 127
1, 179395, Note_on_c, 10, 57, 127
1, 179395, Note_on_c, 0, 72, 127
1, 179549, Note_off_c, 0, 72, 127
1, 179551, Note_on_c, 5, 77, 127
1, 179705, Note_off_c, 5, 77, 127
1, 179705, Note_off_c, 10, 57, 127
1, 179707, Note_on_c, 7, 55, 127
1, 179707, Note_on_c, 11, 70, 127
1, 179861, Note_off_c, 11, 70, 127
1, 179861, Note_off_c, 7, 55, 127
1, 179863, Note_on_c, 5, 53, 127
1, 179863, Note_on_c, 10, 81, 127
1, 180017, Note_off_c, 10, 81, 127
1, 180017, Note_off_c, 5, 53, 127
1, 180019, Note_on_c, 4, 52, 127
1, 180019, Note_on_c, 7, 79, 127
1, 180173, Note_off_c, 7, 79, 127
1, 180173, Note_off_c, 4, 52, 127
1, 180175, Note_on_c, 2, 50, 127
1, 180175, Note_on_c, 5, 77, 127
1, 180329, Note_off_c, 5, 77, 127
1, 180329, Note_off_c, 2, 50, 127
1, 180331, Note_on_c, 0, 48, 127
1, 180331, Note_on_c, 4, 76, 127
1, 180485, Note_off_c, 4, 76, 127
1, 180485, Note_off_c, 0, 48, 127
1, 180487, Note_on_c, 11, 46, 127
1, 180487, Note_on_c, 7, 79, 127
1, 180641, Note_off_c, 7, 79, 127
1, 180641, Note_off_c, 11, 46, 127
1, 180643, Note_on_c, 10, 45, 127
1, 180643, Note_on_c, 0, 72, 127
1, 180797, Note_off_c, 0, 72, 127
1, 180797, Note_off_c, 10, 45, 127
1, 180799, Note_on_c, 7, 43, 127
1, 180799, Note_on_c, 4, 76, 127
1, 180953, Note_off_c, 4, 76, 127
1, 180953, Note_off_c, 7, 43, 127
1, 180955, Note_on_c, 10, 45, 127
1, 180955, Note_on_c, 5, 77, 127
1, 181111, Note_off_c, 5, 77, 127
1, 181111, Note_off_c, 10, 45, 127
1, 181113, Note_on_c, 0, 48, 127
1, 181113, Note_on_c, 0, 72, 127
1, 181269, Note_off_c, 0, 72, 127
1, 181269, Note_off_c, 0, 48, 127
1, 181271, Note_on_c, 5, 41, 127
1, 181271, Note_on_c, 10, 81, 127
1, 181427, Note_off_c, 10, 81, 127
1, 181427, Note_off_c, 5, 41, 127
1, 181429, Note_on_c, 10, 45, 127
1, 181429, Note_on_c, 5, 77, 127
1, 181585, Note_off_c, 5, 77, 127
1, 181585, Note_off_c, 10, 45, 127
1, 181587, Note_on_c, 0, 48, 127
1, 181587, Note_on_c, 0, 72, 127
1, 181743, Note_off_c, 0, 72, 127
1, 181743, Note_off_c, 0, 48, 127
1, 181745, Note_on_c, 5, 53, 127
1, 181745, Note_on_c, 10, 69, 127
1, 181901, Note_off_c, 10, 69, 127
1, 181901, Note_off_c, 5, 53, 127
1, 181903, Note_on_c, 10, 45, 127
1, 181903, Note_on_c, 5, 77, 127
1, 182059, Note_off_c, 5, 77, 127
1, 182059, Note_off_c, 10, 45, 127
1, 182061, Note_on_c, 0, 48, 127
1, 182061, Note_on_c, 0, 72, 127
1, 182217, Note_off_c, 0, 72, 127
1, 182217, Note_off_c, 0, 48, 127
1, 182219, Note_on_c, 5, 53, 127
1, 182219, Note_on_c, 10, 69, 127
1, 182375, Note_off_c, 10, 69, 127
1, 182375, Note_off_c, 5, 53, 127
1, 182377, Note_on_c, 10, 57, 127
1, 182377, Note_on_c, 5, 65, 127
1, 182533, Note_off_c, 5, 65, 127
1, 182533, Note_off_c, 10, 57, 127
1, 182535, Note_on_c, 0, 48, 127
1, 182535, Note_on_c, 0, 72, 127
1, 182691, Note_off_c, 0, 72, 127
1, 182691, Note_off_c, 0, 48, 127
1, 182693, Note_on_c, 5, 53, 127
1, 182693, Note_on_c, 10, 69, 127
1, 182849, Note_off_c, 10, 69, 127
1, 182849, Note_off_c, 5, 53, 127
1, 182851, Note_on_c, 10, 57, 127
1, 182851, Note_on_c, 5, 65, 127
1, 183007, Note_off_c, 10, 57, 127
1, 183009, Note_on_c, 0, 60, 127
1, 183131, Note_off_c, 5, 65, 127
1, 183166, Note_off_c, 0, 60, 127
1, 183168, Note_on_c, 5, 53, 127
1, 183168, Note_on_c, 10, 69, 127
1, 183324, Note_off_c, 10, 69, 127
1, 183324, Note_off_c, 5, 53, 127
1, 183326, Note_on_c, 10, 57, 127
1, 183326, Note_on_c, 5, 65, 127
1, 183482, Note_off_c, 5, 65, 127
1, 183482, Note_off_c, 10, 57, 127
1, 183484, Note_on_c, 0, 60, 127
1, 184114, Note_off_c, 0, 60, 127
1, 184116, Note_on_c, 0, 48, 127
1, 184116, Note_on_c, 10, 81, 127
1, 184203, Note_off_c, 10, 81, 127
1, 184205, Note_on_c, 7, 79, 127
1, 184292, Note_off_c, 7, 79, 127
1, 184294, Note_on_c, 10, 81, 127
1, 184381, Note_off_c, 10, 81, 127
1, 184383, Note_on_c, 7, 79, 127
1, 184470, Note_off_c, 7, 79, 127
1, 184472, Note_on_c, 10, 81, 127
1, 184559, Note_off_c, 10, 81, 127
1, 184561, Note_on_c, 7, 79, 127
1, 184648, Note_off_c, 7, 79, 127
1, 184650, Note_on_c, 5, 77, 127
1, 184737, Note_off_c, 5, 77, 127
1, 184739, Note_on_c, 7, 79, 127
1, 184826, Note_off_c, 7, 79, 127
1, 184826, Note_off_c, 0, 48, 127
1, 184828, Note_on_c, 5, 53, 127
1, 184828, Note_on_c, 5, 77, 127
1, 186672, Note_off_c, 5, 77, 127
1, 186672, Note_off_c, 5, 53, 127
1, 192000, End_track
0, 0, End_of_file
