0, 0, Header, 0, 1, 384
1, 0, Start_track
1, 0, Copyright_t, "(C) John Sankey 1998"
1, 0, Program_c, 0, 6
1, 0, Pitch_bend_c, 0, 8192
1, 0, Program_c, 1, 6
1, 0, Pitch_bend_c, 1, 7792
1, 0, Program_c, 2, 6
1, 0, Pitch_bend_c, 2, 7876
1, 0, Program_c, 3, 6
1, 0, Pitch_bend_c, 3, 7952
1, 0, Program_c, 4, 6
1, 0, Pitch_bend_c, 4, 7792
1, 0, Program_c, 5, 6
1, 0, Pitch_bend_c, 5, 8112
1, 0, Program_c, 6, 6
1, 0, Pitch_bend_c, 6, 7712
1, 0, Program_c, 7, 6
1, 0, Pitch_bend_c, 7, 8037
1, 0, Program_c, 8, 6
1, 0, Pitch_bend_c, 8, 7872
1, 0, Program_c, 10, 6
1, 0, Pitch_bend_c, 10, 7712
1, 0, Program_c, 11, 6
1, 0, Pitch_bend_c, 11, 8032
1, 0, Program_c, 12, 6
1, 0, Pitch_bend_c, 12, 7872
1, 0, Tempo, 500000
1, 92, Note_on_c, 10, 57, 127
1, 744, Note_off_c, 10, 57, 127
1, 760, Note_on_c, 0, 60, 127
1, 1412, Note_off_c, 0, 60, 127
1, 1428, Note_on_c, 4, 52, 127
1, 2080, Note_off_c, 4, 52, 127
1, 2096, Note_on_c, 5, 53, 127
1, 2261, Note_off_c, 5, 53, 127
1, 2263, Note_on_c, 4, 52, 127
1, 2428, Note_off_c, 4, 52, 127
1, 2430, Note_on_c, 2, 50, 127
1, 3079, Note_off_c, 2, 50, 127
1, 3098, Note_on_c, 4, 52, 127
1, 3263, Note_off_c, 4, 52, 127
1, 3265, Note_on_c, 6, 54, 127
1, 3430, Note_off_c, 6, 54, 127
1, 3432, Note_on_c, 7, 55, 127
1, 3597, Note_off_c, 7, 55, 127
1, 3599, Note_on_c, 10, 57, 127
1, 3764, Note_off_c, 10, 57, 127
1, 3766, Note_on_c, 11, 58, 127
1, 4418, Note_off_c, 11, 58, 127
1, 4434, Note_on_c, 10, 57, 127
1, 4599, Note_off_c, 10, 57, 127
1, 4601, Note_on_c, 8, 56, 127
1, 4766, Note_off_c, 8, 56, 127
1, 4768, Note_on_c, 10, 57, 127
1, 4933, Note_off_c, 10, 57, 127
1, 4935, Note_on_c, 4, 52, 127
1, 5100, Note_off_c, 4, 52, 127
1, 5102, Note_on_c, 10, 57, 127
1, 5267, Note_off_c, 10, 57, 127
1, 5269, Note_on_c, 12, 59, 127
1, 5434, Note_off_c, 12, 59, 127
1, 5436, Note_on_c, 10, 57, 127
1, 5601, Note_off_c, 10, 57, 127
1, 5603, Note_on_c, 4, 52, 127
1, 5768, Note_off_c, 4, 52, 127
1, 5770, Note_on_c, 10, 57, 127
1, 5935, Note_off_c, 10, 57, 127
1, 5937, Note_on_c, 0, 60, 127
1, 6102, Note_off_c, 0, 60, 127
1, 6104, Note_on_c, 12, 59, 127
1, 6269, Note_off_c, 12, 59, 127
1, 6271, Note_on_c, 4, 52, 127
1, 6436, Note_off_c, 4, 52, 127
1, 6438, Note_on_c, 12, 59, 127
1, 6603, Note_off_c, 12, 59, 127
1, 6605, Note_on_c, 0, 60, 127
1, 6770, Note_off_c, 0, 60, 127
1, 6772, Note_on_c, 12, 59, 127
1, 6937, Note_off_c, 12, 59, 127
1, 6939, Note_on_c, 4, 52, 127
1, 7104, Note_off_c, 4, 52, 127
1, 7106, Note_on_c, 12, 59, 127
1, 7271, Note_off_c, 12, 59, 127
1, 7273, Note_on_c, 2, 62, 127
1, 7438, Note_off_c, 2, 62, 127
1, 7440, Note_on_c, 0, 60, 127
1, 7605, Note_off_c, 0, 60, 127
1, 7607, Note_on_c, 4, 52, 127
1, 7772, Note_off_c, 4, 52, 127
1, 7774, Note_on_c, 0, 60, 127
1, 7939, Note_off_c, 0, 60, 127
1, 7941, Note_on_c, 2, 62, 127
1, 8106, Note_off_c, 2, 62, 127
1, 8108, Note_on_c, 0, 60, 127
1, 8273, Note_off_c, 0, 60, 127
1, 8275, Note_on_c, 4, 52, 127
1, 8440, Note_off_c, 4, 52, 127
1, 8442, Note_on_c, 0, 60, 127
1, 8607, Note_off_c, 0, 60, 127
1, 8609, Note_on_c, 4, 64, 127
1, 8774, Note_off_c, 4, 64, 127
1, 8776, Note_on_c, 12, 59, 127
1, 8941, Note_off_c, 12, 59, 127
1, 8943, Note_on_c, 4, 52, 127
1, 9108, Note_off_c, 4, 52, 127
1, 9110, Note_on_c, 12, 59, 127
1, 9275, Note_off_c, 12, 59, 127
1, 9277, Note_on_c, 0, 60, 127
1, 9442, Note_off_c, 0, 60, 127
1, 9444, Note_on_c, 12, 59, 127
1, 9609, Note_off_c, 12, 59, 127
1, 9611, Note_on_c, 4, 52, 127
1, 9776, Note_off_c, 4, 52, 127
1, 9778, Note_on_c, 12, 59, 127
1, 9943, Note_off_c, 12, 59, 127
1, 9945, Note_on_c, 2, 62, 127
1, 10110, Note_off_c, 2, 62, 127
1, 10112, Note_on_c, 0, 60, 127
1, 10277, Note_off_c, 0, 60, 127
1, 10279, Note_on_c, 12, 59, 127
1, 10444, Note_off_c, 12, 59, 127
1, 10446, Note_on_c, 10, 57, 127
1, 10780, Note_on_c, 4, 76, 127
1, 11112, Note_off_c, 10, 57, 127
1, 11114, Note_on_c, 8, 56, 127
1, 11446, Note_off_c, 8, 56, 127
1, 11446, Note_off_c, 4, 76, 127
1, 11448, Note_on_c, 10, 57, 127
1, 11448, Note_on_c, 5, 77, 127
1, 11613, Note_off_c, 10, 57, 127
1, 11615, Note_on_c, 0, 60, 127
1, 11780, Note_off_c, 0, 60, 127
1, 11782, Note_on_c, 12, 59, 127
1, 11947, Note_off_c, 12, 59, 127
1, 11949, Note_on_c, 2, 62, 127
1, 12114, Note_off_c, 2, 62, 127
1, 12114, Note_off_c, 5, 77, 127
1, 12116, Note_on_c, 0, 60, 127
1, 12116, Note_on_c, 10, 69, 127
1, 12281, Note_off_c, 0, 60, 127
1, 12283, Note_on_c, 12, 59, 127
1, 12448, Note_off_c, 12, 59, 127
1, 12450, Note_on_c, 0, 60, 127
1, 12615, Note_off_c, 0, 60, 127
1, 12617, Note_on_c, 10, 57, 127
1, 12782, Note_off_c, 10, 57, 127
1, 12782, Note_off_c, 10, 69, 127
1, 12784, Note_on_c, 4, 52, 127
1, 12784, Note_on_c, 0, 72, 127
1, 12949, Note_off_c, 0, 72, 127
1, 12951, Note_on_c, 12, 71, 127
1, 13116, Note_off_c, 12, 71, 127
1, 13116, Note_off_c, 4, 52, 127
1, 13118, Note_on_c, 6, 54, 127
1, 13118, Note_on_c, 10, 69, 127
1, 13450, Note_off_c, 6, 54, 127
1, 13452, Note_on_c, 7, 55, 127
1, 13744, Note_off_c, 10, 69, 127
1, 13784, Note_off_c, 7, 55, 127
1, 13786, Note_on_c, 6, 54, 127
1, 13786, Note_on_c, 12, 71, 127
1, 13951, Note_off_c, 12, 71, 127
1, 13951, Note_off_c, 6, 54, 127
1, 13953, Note_on_c, 4, 52, 127
1, 13953, Note_on_c, 1, 73, 127
1, 14118, Note_off_c, 1, 73, 127
1, 14118, Note_off_c, 4, 52, 127
1, 14120, Note_on_c, 6, 54, 127
1, 14120, Note_on_c, 2, 74, 127
1, 14285, Note_off_c, 2, 74, 127
1, 14287, Note_on_c, 4, 76, 127
1, 14452, Note_off_c, 4, 76, 127
1, 14452, Note_off_c, 6, 54, 127
1, 14454, Note_on_c, 8, 56, 127
1, 14454, Note_on_c, 5, 77, 127
1, 14786, Note_off_c, 8, 56, 127
1, 14788, Note_on_c, 10, 57, 127
1, 15080, Note_off_c, 5, 77, 127
1, 15122, Note_on_c, 4, 76, 127
1, 15287, Note_off_c, 4, 76, 127
1, 15289, Note_on_c, 3, 75, 127
1, 15454, Note_off_c, 3, 75, 127
1, 15456, Note_on_c, 4, 76, 127
1, 15621, Note_off_c, 4, 76, 127
1, 15623, Note_on_c, 12, 71, 127
1, 15788, Note_off_c, 12, 71, 127
1, 15788, Note_off_c, 10, 57, 127
1, 15790, Note_on_c, 7, 55, 127
1, 15790, Note_on_c, 4, 76, 127
1, 15955, Note_off_c, 4, 76, 127
1, 15955, Note_off_c, 7, 55, 127
1, 15957, Note_on_c, 6, 54, 127
1, 15957, Note_on_c, 6, 78, 127
1, 16122, Note_off_c, 6, 78, 127
1, 16122, Note_off_c, 6, 54, 127
1, 16124, Note_on_c, 7, 55, 127
1, 16124, Note_on_c, 4, 76, 127
1, 16289, Note_off_c, 4, 76, 127
1, 16291, Note_on_c, 12, 71, 127
1, 16456, Note_off_c, 12, 71, 127
1, 16456, Note_off_c, 7, 55, 127
1, 16458, Note_on_c, 4, 52, 127
1, 16458, Note_on_c, 4, 76, 127
1, 16623, Note_off_c, 4, 76, 127
1, 16625, Note_on_c, 7, 79, 127
1, 16790, Note_off_c, 7, 79, 127
1, 16792, Note_on_c, 6, 78, 127
1, 16957, Note_off_c, 6, 78, 127
1, 16959, Note_on_c, 12, 71, 127
1, 17124, Note_off_c, 12, 71, 127
1, 17124, Note_off_c, 4, 52, 127
1, 17126, Note_on_c, 3, 51, 127
1, 17126, Note_on_c, 6, 78, 127
1, 17291, Note_off_c, 6, 78, 127
1, 17291, Note_off_c, 3, 51, 127
1, 17293, Note_on_c, 1, 49, 127
1, 17293, Note_on_c, 7, 79, 127
1, 17458, Note_off_c, 7, 79, 127
1, 17458, Note_off_c, 1, 49, 127
1, 17460, Note_on_c, 4, 52, 127
1, 17460, Note_on_c, 6, 78, 127
1, 17542, Note_off_c, 4, 52, 127
1, 17544, Note_on_c, 3, 51, 127
1, 17626, Note_off_c, 3, 51, 127
1, 17626, Note_off_c, 6, 78, 127
1, 17628, Note_on_c, 4, 52, 127
1, 17628, Note_on_c, 12, 71, 127
1, 17710, Note_off_c, 4, 52, 127
1, 17712, Note_on_c, 3, 51, 127
1, 17794, Note_off_c, 3, 51, 127
1, 17794, Note_off_c, 12, 71, 127
1, 17796, Note_on_c, 4, 52, 127
1, 17796, Note_on_c, 6, 78, 127
1, 17878, Note_off_c, 4, 52, 127
1, 17880, Note_on_c, 3, 51, 127
1, 17962, Note_off_c, 3, 51, 127
1, 17962, Note_off_c, 6, 78, 127
1, 17964, Note_on_c, 1, 49, 127
1, 17964, Note_on_c, 10, 81, 127
1, 18046, Note_off_c, 1, 49, 127
1, 18048, Note_on_c, 3, 51, 127
1, 18130, Note_off_c, 3, 51, 127
1, 18130, Note_off_c, 10, 81, 127
1, 18132, Note_on_c, 4, 52, 127
1, 18132, Note_on_c, 7, 79, 127
1, 18297, Note_off_c, 7, 79, 127
1, 18299, Note_on_c, 12, 71, 127
1, 18432, Note_off_c, 4, 52, 127
1, 18464, Note_off_c, 12, 71, 127
1, 18466, Note_on_c, 12, 59, 127
1, 18466, Note_on_c, 7, 79, 127
1, 18631, Note_off_c, 7, 79, 127
1, 18633, Note_on_c, 10, 81, 127
1, 18766, Note_off_c, 12, 59, 127
1, 18798, Note_off_c, 10, 81, 127
1, 18800, Note_on_c, 4, 64, 127
1, 18800, Note_on_c, 7, 79, 127
1, 18965, Note_off_c, 7, 79, 127
1, 18967, Note_on_c, 12, 71, 127
1, 19132, Note_off_c, 12, 71, 127
1, 19134, Note_on_c, 7, 79, 127
1, 19299, Note_off_c, 7, 79, 127
1, 19301, Note_on_c, 12, 83, 127
1, 19466, Note_off_c, 12, 83, 127
1, 19468, Note_on_c, 6, 78, 127
1, 19633, Note_off_c, 6, 78, 127
1, 19635, Note_on_c, 12, 71, 127
1, 19800, Note_off_c, 12, 71, 127
1, 19802, Note_on_c, 6, 78, 127
1, 19967, Note_off_c, 6, 78, 127
1, 19969, Note_on_c, 7, 79, 127
1, 20015, Note_off_c, 4, 64, 127
1, 20019, Note_on_c, 3, 63, 127
1, 20135, Note_off_c, 7, 79, 127
1, 20136, Note_off_c, 3, 63, 127
1, 20137, Note_on_c, 6, 78, 127
1, 20137, Note_on_c, 4, 64, 127
1, 20219, Note_off_c, 4, 64, 127
1, 20221, Note_on_c, 3, 63, 127
1, 20303, Note_off_c, 3, 63, 127
1, 20303, Note_off_c, 6, 78, 127
1, 20305, Note_on_c, 12, 71, 127
1, 20305, Note_on_c, 4, 64, 127
1, 20387, Note_off_c, 4, 64, 127
1, 20389, Note_on_c, 3, 63, 127
1, 20471, Note_off_c, 3, 63, 127
1, 20471, Note_off_c, 12, 71, 127
1, 20473, Note_on_c, 6, 78, 127
1, 20473, Note_on_c, 4, 64, 127
1, 20555, Note_off_c, 4, 64, 127
1, 20557, Note_on_c, 3, 63, 127
1, 20639, Note_off_c, 3, 63, 127
1, 20639, Note_off_c, 6, 78, 127
1, 20641, Note_on_c, 10, 81, 127
1, 20641, Note_on_c, 1, 61, 127
1, 20723, Note_off_c, 1, 61, 127
1, 20725, Note_on_c, 3, 63, 127
1, 20807, Note_off_c, 3, 63, 127
1, 20807, Note_off_c, 10, 81, 127
1, 20809, Note_on_c, 4, 64, 127
1, 20809, Note_on_c, 7, 79, 127
1, 20974, Note_off_c, 7, 79, 127
1, 20976, Note_on_c, 6, 78, 127
1, 21141, Note_off_c, 6, 78, 127
1, 21141, Note_off_c, 4, 64, 127
1, 21143, Note_on_c, 4, 52, 127
1, 21143, Note_on_c, 4, 76, 127
1, 21308, Note_off_c, 4, 52, 127
1, 21310, Note_on_c, 6, 54, 127
1, 21475, Note_off_c, 6, 54, 127
1, 21477, Note_on_c, 7, 55, 127
1, 21642, Note_off_c, 7, 55, 127
1, 21644, Note_on_c, 10, 57, 127
1, 21785, Note_off_c, 4, 76, 127
1, 21809, Note_off_c, 10, 57, 127
1, 21811, Note_on_c, 11, 58, 127
1, 21811, Note_on_c, 2, 74, 127
1, 21976, Note_off_c, 11, 58, 127
1, 21978, Note_on_c, 7, 55, 127
1, 22143, Note_off_c, 7, 55, 127
1, 22143, Note_off_c, 2, 74, 127
1, 22145, Note_on_c, 4, 52, 127
1, 22145, Note_on_c, 1, 73, 127
1, 22310, Note_off_c, 4, 52, 127
1, 22312, Note_on_c, 5, 53, 127
1, 22477, Note_off_c, 5, 53, 127
1, 22477, Note_off_c, 1, 73, 127
1, 22479, Note_on_c, 7, 55, 127
1, 22479, Note_on_c, 11, 82, 127
1, 22811, Note_off_c, 11, 82, 127
1, 22813, Note_on_c, 11, 82, 127
1, 22895, Note_off_c, 11, 82, 127
1, 22897, Note_on_c, 10, 81, 127
1, 22967, Note_off_c, 7, 55, 127
1, 22979, Note_off_c, 10, 81, 127
1, 22981, Note_on_c, 5, 53, 127
1, 22981, Note_on_c, 11, 82, 127
1, 23063, Note_off_c, 11, 82, 127
1, 23065, Note_on_c, 10, 81, 127
1, 23147, Note_off_c, 10, 81, 127
1, 23147, Note_off_c, 5, 53, 127
1, 23149, Note_on_c, 4, 52, 127
1, 23149, Note_on_c, 7, 79, 127
1, 23314, Note_off_c, 4, 52, 127
1, 23316, Note_on_c, 2, 50, 127
1, 23481, Note_off_c, 2, 50, 127
1, 23481, Note_off_c, 7, 79, 127
1, 23483, Note_on_c, 1, 49, 127
1, 23483, Note_on_c, 11, 70, 127
1, 23648, Note_off_c, 1, 49, 127
1, 23650, Note_on_c, 2, 50, 127
1, 23815, Note_off_c, 2, 50, 127
1, 23815, Note_off_c, 11, 70, 127
1, 23817, Note_on_c, 4, 52, 127
1, 23817, Note_on_c, 7, 79, 127
1, 24149, Note_off_c, 7, 79, 127
1, 24151, Note_on_c, 7, 79, 127
1, 24233, Note_off_c, 7, 79, 127
1, 24235, Note_on_c, 5, 77, 127
1, 24305, Note_off_c, 4, 52, 127
1, 24317, Note_off_c, 5, 77, 127
1, 24319, Note_on_c, 2, 50, 127
1, 24319, Note_on_c, 7, 79, 127
1, 24401, Note_off_c, 7, 79, 127
1, 24403, Note_on_c, 5, 77, 127
1, 24485, Note_off_c, 5, 77, 127
1, 24485, Note_off_c, 2, 50, 127
1, 24487, Note_on_c, 1, 49, 127
1, 24487, Note_on_c, 4, 76, 127
1, 24652, Note_off_c, 1, 49, 127
1, 24654, Note_on_c, 12, 47, 127
1, 24819, Note_off_c, 12, 47, 127
1, 24819, Note_off_c, 4, 76, 127
1, 24821, Note_on_c, 1, 49, 127
1, 24821, Note_on_c, 7, 67, 127
1, 24986, Note_off_c, 1, 49, 127
1, 24988, Note_on_c, 10, 45, 127
1, 25153, Note_off_c, 10, 45, 127
1, 25153, Note_off_c, 7, 67, 127
1, 25155, Note_on_c, 1, 49, 127
1, 25155, Note_on_c, 4, 76, 127
1, 25320, Note_off_c, 1, 49, 127
1, 25322, Note_on_c, 2, 50, 127
1, 25487, Note_off_c, 2, 50, 127
1, 25487, Note_off_c, 4, 76, 127
1, 25489, Note_on_c, 4, 52, 127
1, 25489, Note_on_c, 4, 76, 127
1, 25571, Note_off_c, 4, 76, 127
1, 25573, Note_on_c, 2, 74, 127
1, 25655, Note_off_c, 2, 74, 127
1, 25655, Note_off_c, 4, 52, 127
1, 25657, Note_on_c, 5, 53, 127
1, 25657, Note_on_c, 4, 76, 127
1, 25739, Note_off_c, 4, 76, 127
1, 25741, Note_on_c, 2, 74, 127
1, 25823, Note_off_c, 2, 74, 127
1, 25823, Note_off_c, 5, 53, 127
1, 25825, Note_on_c, 7, 55, 127
1, 25825, Note_on_c, 1, 73, 127
1, 25990, Note_off_c, 7, 55, 127
1, 25992, Note_on_c, 4, 52, 127
1, 26157, Note_off_c, 4, 52, 127
1, 26157, Note_off_c, 1, 73, 127
1, 26159, Note_on_c, 5, 53, 127
1, 26159, Note_on_c, 2, 74, 127
1, 26324, Note_off_c, 2, 74, 127
1, 26324, Note_off_c, 5, 53, 127
1, 26326, Note_on_c, 4, 52, 127
1, 26326, Note_on_c, 7, 67, 127
1, 26491, Note_off_c, 7, 67, 127
1, 26491, Note_off_c, 4, 52, 127
1, 26493, Note_on_c, 2, 50, 127
1, 26493, Note_on_c, 5, 65, 127
1, 26658, Note_off_c, 5, 65, 127
1, 26658, Note_off_c, 2, 50, 127
1, 26660, Note_on_c, 4, 52, 127
1, 26660, Note_on_c, 4, 64, 127
1, 26825, Note_off_c, 4, 64, 127
1, 26825, Note_off_c, 4, 52, 127
1, 26827, Note_on_c, 5, 53, 127
1, 26827, Note_on_c, 2, 62, 127
1, 26992, Note_off_c, 5, 53, 127
1, 26994, Note_on_c, 7, 55, 127
1, 27140, Note_off_c, 2, 62, 127
1, 27159, Note_off_c, 7, 55, 127
1, 27161, Note_on_c, 8, 56, 127
1, 27161, Note_on_c, 0, 72, 127
1, 27326, Note_off_c, 8, 56, 127
1, 27328, Note_on_c, 5, 53, 127
1, 27474, Note_off_c, 0, 72, 127
1, 27493, Note_off_c, 5, 53, 127
1, 27495, Note_on_c, 2, 50, 127
1, 27495, Note_on_c, 12, 71, 127
1, 27660, Note_off_c, 2, 50, 127
1, 27662, Note_on_c, 4, 52, 127
1, 27827, Note_off_c, 4, 52, 127
1, 27827, Note_off_c, 12, 71, 127
1, 27829, Note_on_c, 5, 53, 127
1, 27829, Note_on_c, 8, 80, 127
1, 28161, Note_off_c, 8, 80, 127
1, 28163, Note_on_c, 8, 80, 127
1, 28245, Note_off_c, 8, 80, 127
1, 28247, Note_on_c, 7, 79, 127
1, 28308, Note_off_c, 5, 53, 127
1, 28329, Note_off_c, 7, 79, 127
1, 28331, Note_on_c, 4, 52, 127
1, 28331, Note_on_c, 8, 80, 127
1, 28413, Note_off_c, 8, 80, 127
1, 28415, Note_on_c, 7, 79, 127
1, 28497, Note_off_c, 7, 79, 127
1, 28497, Note_off_c, 4, 52, 127
1, 28499, Note_on_c, 2, 50, 127
1, 28499, Note_on_c, 5, 77, 127
1, 28664, Note_off_c, 2, 50, 127
1, 28666, Note_on_c, 0, 48, 127
1, 28831, Note_off_c, 0, 48, 127
1, 28831, Note_off_c, 5, 77, 127
1, 28833, Note_on_c, 12, 47, 127
1, 28833, Note_on_c, 8, 68, 127
1, 28998, Note_off_c, 12, 47, 127
1, 29000, Note_on_c, 0, 48, 127
1, 29165, Note_off_c, 0, 48, 127
1, 29165, Note_off_c, 8, 68, 127
1, 29167, Note_on_c, 2, 50, 127
1, 29167, Note_on_c, 5, 77, 127
1, 29499, Note_off_c, 5, 77, 127
1, 29501, Note_on_c, 5, 77, 127
1, 29583, Note_off_c, 5, 77, 127
1, 29585, Note_on_c, 4, 76, 127
1, 29646, Note_off_c, 2, 50, 127
1, 29667, Note_off_c, 4, 76, 127
1, 29669, Note_on_c, 0, 48, 127
1, 29669, Note_on_c, 5, 77, 127
1, 29751, Note_off_c, 5, 77, 127
1, 29753, Note_on_c, 4, 76, 127
1, 29835, Note_off_c, 4, 76, 127
1, 29835, Note_off_c, 0, 48, 127
1, 29837, Note_on_c, 12, 47, 127
1, 29837, Note_on_c, 2, 74, 127
1, 30002, Note_off_c, 12, 47, 127
1, 30004, Note_on_c, 10, 45, 127
1, 30169, Note_off_c, 10, 45, 127
1, 30169, Note_off_c, 2, 74, 127
1, 30171, Note_on_c, 12, 47, 127
1, 30171, Note_on_c, 5, 65, 127
1, 30336, Note_off_c, 12, 47, 127
1, 30338, Note_on_c, 7, 43, 127
1, 30503, Note_off_c, 7, 43, 127
1, 30503, Note_off_c, 5, 65, 127
1, 30505, Note_on_c, 12, 47, 127
1, 30505, Note_on_c, 2, 74, 127
1, 30670, Note_off_c, 12, 47, 127
1, 30672, Note_on_c, 0, 48, 127
1, 30837, Note_off_c, 0, 48, 127
1, 30837, Note_off_c, 2, 74, 127
1, 30839, Note_on_c, 2, 50, 127
1, 30839, Note_on_c, 2, 74, 127
1, 30921, Note_off_c, 2, 74, 127
1, 30923, Note_on_c, 0, 72, 127
1, 31005, Note_off_c, 0, 72, 127
1, 31005, Note_off_c, 2, 50, 127
1, 31007, Note_on_c, 4, 52, 127
1, 31007, Note_on_c, 2, 74, 127
1, 31089, Note_off_c, 2, 74, 127
1, 31091, Note_on_c, 0, 72, 127
1, 31173, Note_off_c, 0, 72, 127
1, 31173, Note_off_c, 4, 52, 127
1, 31175, Note_on_c, 5, 53, 127
1, 31175, Note_on_c, 12, 71, 127
1, 31340, Note_off_c, 5, 53, 127
1, 31342, Note_on_c, 2, 50, 127
1, 31507, Note_off_c, 2, 50, 127
1, 31507, Note_off_c, 12, 71, 127
1, 31509, Note_on_c, 4, 52, 127
1, 31509, Note_on_c, 0, 72, 127
1, 31674, Note_off_c, 0, 72, 127
1, 31674, Note_off_c, 4, 52, 127
1, 31676, Note_on_c, 2, 50, 127
1, 31676, Note_on_c, 5, 65, 127
1, 31841, Note_off_c, 5, 65, 127
1, 31841, Note_off_c, 2, 50, 127
1, 31843, Note_on_c, 0, 48, 127
1, 31843, Note_on_c, 4, 64, 127
1, 32008, Note_off_c, 4, 64, 127
1, 32008, Note_off_c, 0, 48, 127
1, 32010, Note_on_c, 2, 50, 127
1, 32010, Note_on_c, 2, 62, 127
1, 32175, Note_off_c, 2, 62, 127
1, 32175, Note_off_c, 2, 50, 127
1, 32177, Note_on_c, 4, 52, 127
1, 32177, Note_on_c, 0, 60, 127
1, 32342, Note_off_c, 4, 52, 127
1, 32344, Note_on_c, 5, 53, 127
1, 32490, Note_off_c, 0, 60, 127
1, 32509, Note_off_c, 5, 53, 127
1, 32511, Note_on_c, 7, 55, 127
1, 32511, Note_on_c, 11, 70, 127
1, 32676, Note_off_c, 7, 55, 127
1, 32678, Note_on_c, 4, 52, 127
1, 32824, Note_off_c, 11, 70, 127
1, 32843, Note_off_c, 4, 52, 127
1, 32845, Note_on_c, 5, 53, 127
1, 32845, Note_on_c, 10, 69, 127
1, 33010, Note_off_c, 10, 69, 127
1, 33012, Note_on_c, 7, 79, 127
1, 33177, Note_off_c, 7, 79, 127
1, 33177, Note_off_c, 5, 53, 127
1, 33179, Note_on_c, 10, 57, 127
1, 33179, Note_on_c, 5, 77, 127
1, 33344, Note_off_c, 5, 77, 127
1, 33346, Note_on_c, 4, 76, 127
1, 33511, Note_off_c, 4, 76, 127
1, 33511, Note_off_c, 10, 57, 127
1, 33513, Note_on_c, 2, 50, 127
1, 33513, Note_on_c, 5, 77, 127
1, 33678, Note_off_c, 5, 77, 127
1, 33680, Note_on_c, 2, 74, 127
1, 33845, Note_off_c, 2, 74, 127
1, 33845, Note_off_c, 2, 50, 127
1, 33847, Note_on_c, 5, 53, 127
1, 33847, Note_on_c, 10, 69, 127
1, 34179, Note_off_c, 5, 53, 127
1, 34181, Note_on_c, 12, 47, 127
1, 34317, Note_off_c, 10, 69, 127
1, 34348, Note_on_c, 7, 67, 127
1, 34513, Note_off_c, 7, 67, 127
1, 34513, Note_off_c, 12, 47, 127
1, 34515, Note_on_c, 0, 48, 127
1, 34515, Note_on_c, 10, 69, 127
1, 34680, Note_off_c, 10, 69, 127
1, 34680, Note_off_c, 0, 48, 127
1, 34682, Note_on_c, 2, 50, 127
1, 34682, Note_on_c, 12, 71, 127
1, 34847, Note_off_c, 12, 71, 127
1, 34847, Note_off_c, 2, 50, 127
1, 34849, Note_on_c, 4, 52, 127
1, 34849, Note_on_c, 7, 67, 127
1, 35014, Note_off_c, 7, 67, 127
1, 35016, Note_on_c, 0, 72, 127
1, 35181, Note_off_c, 0, 72, 127
1, 35181, Note_off_c, 4, 52, 127
1, 35183, Note_on_c, 0, 48, 127
1, 35183, Note_on_c, 4, 76, 127
1, 35515, Note_off_c, 4, 76, 127
1, 35515, Note_off_c, 0, 48, 127
1, 35517, Note_on_c, 2, 50, 127
1, 35517, Note_on_c, 5, 65, 127
1, 35682, Note_off_c, 5, 65, 127
1, 35684, Note_on_c, 4, 76, 127
1, 35849, Note_off_c, 4, 76, 127
1, 35849, Note_off_c, 2, 50, 127
1, 35851, Note_on_c, 5, 53, 127
1, 35851, Note_on_c, 2, 74, 127
1, 36016, Note_off_c, 2, 74, 127
1, 36018, Note_on_c, 0, 72, 127
1, 36183, Note_off_c, 0, 72, 127
1, 36183, Note_off_c, 5, 53, 127
1, 36185, Note_on_c, 12, 47, 127
1, 36185, Note_on_c, 2, 74, 127
1, 36350, Note_off_c, 2, 74, 127
1, 36352, Note_on_c, 12, 71, 127
1, 36517, Note_off_c, 12, 71, 127
1, 36517, Note_off_c, 12, 47, 127
1, 36519, Note_on_c, 2, 50, 127
1, 36519, Note_on_c, 5, 65, 127
1, 36851, Note_off_c, 2, 50, 127
1, 36853, Note_on_c, 7, 43, 127
1, 36989, Note_off_c, 5, 65, 127
1, 37020, Note_on_c, 4, 64, 127
1, 37185, Note_off_c, 4, 64, 127
1, 37185, Note_off_c, 7, 43, 127
1, 37187, Note_on_c, 10, 45, 127
1, 37187, Note_on_c, 5, 65, 127
1, 37352, Note_off_c, 5, 65, 127
1, 37352, Note_off_c, 10, 45, 127
1, 37354, Note_on_c, 12, 47, 127
1, 37354, Note_on_c, 7, 67, 127
1, 37519, Note_off_c, 7, 67, 127
1, 37519, Note_off_c, 12, 47, 127
1, 37521, Note_on_c, 0, 48, 127
1, 37521, Note_on_c, 4, 64, 127
1, 37686, Note_off_c, 4, 64, 127
1, 37688, Note_on_c, 7, 67, 127
1, 37853, Note_off_c, 7, 67, 127
1, 37853, Note_off_c, 0, 48, 127
1, 37855, Note_on_c, 10, 45, 127
1, 37855, Note_on_c, 0, 72, 127
1, 38187, Note_off_c, 0, 72, 127
1, 38187, Note_off_c, 10, 45, 127
1, 38189, Note_on_c, 12, 47, 127
1, 38189, Note_on_c, 2, 62, 127
1, 38354, Note_off_c, 2, 62, 127
1, 38356, Note_on_c, 0, 72, 127
1, 38521, Note_off_c, 0, 72, 127
1, 38521, Note_off_c, 12, 47, 127
1, 38523, Note_on_c, 2, 50, 127
1, 38523, Note_on_c, 12, 71, 127
1, 38688, Note_off_c, 12, 71, 127
1, 38690, Note_on_c, 10, 69, 127
1, 38855, Note_off_c, 10, 69, 127
1, 38855, Note_off_c, 2, 50, 127
1, 38857, Note_on_c, 8, 44, 127
1, 38857, Note_on_c, 12, 71, 127
1, 39022, Note_off_c, 12, 71, 127
1, 39024, Note_on_c, 8, 68, 127
1, 39189, Note_off_c, 8, 68, 127
1, 39189, Note_off_c, 8, 44, 127
1, 39191, Note_on_c, 12, 47, 127
1, 39191, Note_on_c, 2, 62, 127
1, 39523, Note_off_c, 12, 47, 127
1, 39525, Note_on_c, 4, 40, 127
1, 39669, Note_off_c, 2, 62, 127
1, 39692, Note_on_c, 0, 60, 127
1, 39857, Note_off_c, 0, 60, 127
1, 39857, Note_off_c, 4, 40, 127
1, 39859, Note_on_c, 6, 42, 127
1, 39859, Note_on_c, 2, 62, 127
1, 40024, Note_off_c, 2, 62, 127
1, 40024, Note_off_c, 6, 42, 127
1, 40026, Note_on_c, 8, 44, 127
1, 40026, Note_on_c, 4, 64, 127
1, 40191, Note_off_c, 4, 64, 127
1, 40191, Note_off_c, 8, 44, 127
1, 40193, Note_on_c, 10, 45, 127
1, 40193, Note_on_c, 0, 60, 127
1, 40358, Note_off_c, 0, 60, 127
1, 40360, Note_on_c, 5, 65, 127
1, 40525, Note_off_c, 5, 65, 127
1, 40525, Note_off_c, 10, 45, 127
1, 40527, Note_on_c, 12, 47, 127
1, 40527, Note_on_c, 4, 64, 127
1, 40692, Note_off_c, 4, 64, 127
1, 40694, Note_on_c, 2, 62, 127
1, 40859, Note_off_c, 2, 62, 127
1, 40859, Note_off_c, 12, 47, 127
1, 40861, Note_on_c, 0, 48, 127
1, 40861, Note_on_c, 4, 64, 127
1, 41193, Note_off_c, 4, 64, 127
1, 41195, Note_on_c, 10, 57, 127
1, 41527, Note_off_c, 0, 48, 127
1, 41529, Note_on_c, 4, 40, 127
1, 41861, Note_off_c, 10, 57, 127
1, 41863, Note_on_c, 8, 56, 127
1, 41973, Note_off_c, 8, 56, 127
1, 41975, Note_on_c, 10, 57, 127
1, 42085, Note_off_c, 10, 57, 127
1, 42087, Note_on_c, 8, 56, 127
1, 42197, Note_off_c, 8, 56, 127
1, 42197, Note_off_c, 4, 40, 127
1, 42199, Note_on_c, 5, 41, 127
1, 42199, Note_on_c, 10, 57, 127
1, 42364, Note_off_c, 5, 41, 127
1, 42366, Note_on_c, 4, 40, 127
1, 42531, Note_off_c, 4, 40, 127
1, 42533, Note_on_c, 2, 38, 127
1, 42865, Note_off_c, 10, 57, 127
1, 42867, Note_on_c, 10, 69, 127
1, 43032, Note_off_c, 2, 38, 127
1, 43034, Note_on_c, 4, 40, 127
1, 43199, Note_off_c, 4, 40, 127
1, 43201, Note_on_c, 6, 42, 127
1, 43366, Note_off_c, 6, 42, 127
1, 43368, Note_on_c, 8, 44, 127
1, 43533, Note_off_c, 8, 44, 127
1, 43533, Note_off_c, 10, 69, 127
1, 43535, Note_on_c, 10, 45, 127
1, 43535, Note_on_c, 0, 72, 127
1, 43700, Note_off_c, 10, 45, 127
1, 43702, Note_on_c, 4, 40, 127
1, 43867, Note_off_c, 4, 40, 127
1, 43869, Note_on_c, 10, 45, 127
1, 44201, Note_off_c, 0, 72, 127
1, 44203, Note_on_c, 4, 64, 127
1, 44535, Note_off_c, 10, 45, 127
1, 44537, Note_on_c, 8, 44, 127
1, 44869, Note_off_c, 8, 44, 127
1, 44869, Note_off_c, 4, 64, 127
1, 44871, Note_on_c, 10, 45, 127
1, 44871, Note_on_c, 5, 65, 127
1, 45036, Note_off_c, 5, 65, 127
1, 45038, Note_on_c, 4, 64, 127
1, 45203, Note_off_c, 4, 64, 127
1, 45203, Note_off_c, 10, 45, 127
1, 45205, Note_on_c, 12, 47, 127
1, 45205, Note_on_c, 2, 62, 127
1, 45537, Note_off_c, 12, 47, 127
1, 45539, Note_on_c, 0, 48, 127
1, 45735, Note_off_c, 2, 62, 127
1, 45871, Note_off_c, 0, 48, 127
1, 45873, Note_on_c, 12, 47, 127
1, 45873, Note_on_c, 4, 64, 127
1, 46038, Note_off_c, 4, 64, 127
1, 46038, Note_off_c, 12, 47, 127
1, 46040, Note_on_c, 10, 45, 127
1, 46040, Note_on_c, 6, 66, 127
1, 46205, Note_off_c, 6, 66, 127
1, 46205, Note_off_c, 10, 45, 127
1, 46207, Note_on_c, 12, 47, 127
1, 46207, Note_on_c, 7, 67, 127
1, 46372, Note_off_c, 7, 67, 127
1, 46374, Note_on_c, 10, 69, 127
1, 46539, Note_off_c, 10, 69, 127
1, 46539, Note_off_c, 12, 47, 127
1, 46541, Note_on_c, 1, 49, 127
1, 46541, Note_on_c, 11, 70, 127
1, 46873, Note_off_c, 1, 49, 127
1, 46875, Note_on_c, 2, 50, 127
1, 47191, Note_off_c, 11, 70, 127
1, 47209, Note_on_c, 10, 69, 127
1, 47374, Note_off_c, 10, 69, 127
1, 47376, Note_on_c, 8, 68, 127
1, 47541, Note_off_c, 8, 68, 127
1, 47543, Note_on_c, 10, 69, 127
1, 47708, Note_off_c, 10, 69, 127
1, 47710, Note_on_c, 4, 64, 127
1, 47858, Note_off_c, 2, 50, 127
1, 47875, Note_off_c, 4, 64, 127
1, 47877, Note_on_c, 0, 48, 127
1, 47877, Note_on_c, 10, 69, 127
1, 48042, Note_off_c, 10, 69, 127
1, 48042, Note_off_c, 0, 48, 127
1, 48044, Note_on_c, 12, 47, 127
1, 48044, Note_on_c, 12, 71, 127
1, 48209, Note_off_c, 12, 71, 127
1, 48209, Note_off_c, 12, 47, 127
1, 48211, Note_on_c, 0, 48, 127
1, 48211, Note_on_c, 10, 69, 127
1, 48376, Note_off_c, 10, 69, 127
1, 48378, Note_on_c, 4, 64, 127
1, 48543, Note_off_c, 4, 64, 127
1, 48543, Note_off_c, 0, 48, 127
1, 48545, Note_on_c, 10, 45, 127
1, 48545, Note_on_c, 10, 69, 127
1, 48710, Note_off_c, 10, 69, 127
1, 48712, Note_on_c, 0, 72, 127
1, 48877, Note_off_c, 0, 72, 127
1, 48879, Note_on_c, 12, 71, 127
1, 49044, Note_off_c, 12, 71, 127
1, 49046, Note_on_c, 4, 64, 127
1, 49199, Note_off_c, 10, 45, 127
1, 49211, Note_off_c, 4, 64, 127
1, 49213, Note_on_c, 8, 44, 127
1, 49213, Note_on_c, 12, 71, 127
1, 49378, Note_off_c, 12, 71, 127
1, 49378, Note_off_c, 8, 44, 127
1, 49380, Note_on_c, 6, 42, 127
1, 49380, Note_on_c, 0, 72, 127
1, 49545, Note_off_c, 0, 72, 127
1, 49545, Note_off_c, 6, 42, 127
1, 49547, Note_on_c, 10, 45, 127
1, 49547, Note_on_c, 12, 71, 127
1, 49629, Note_off_c, 10, 45, 127
1, 49631, Note_on_c, 8, 44, 127
1, 49713, Note_off_c, 8, 44, 127
1, 49713, Note_off_c, 12, 71, 127
1, 49715, Note_on_c, 10, 45, 127
1, 49715, Note_on_c, 4, 64, 127
1, 49797, Note_off_c, 10, 45, 127
1, 49799, Note_on_c, 8, 44, 127
1, 49881, Note_off_c, 8, 44, 127
1, 49881, Note_off_c, 4, 64, 127
1, 49883, Note_on_c, 10, 45, 127
1, 49883, Note_on_c, 12, 71, 127
1, 49965, Note_off_c, 10, 45, 127
1, 49967, Note_on_c, 8, 44, 127
1, 50049, Note_off_c, 8, 44, 127
1, 50049, Note_off_c, 12, 71, 127
1, 50051, Note_on_c, 6, 42, 127
1, 50051, Note_on_c, 2, 74, 127
1, 50133, Note_off_c, 6, 42, 127
1, 50135, Note_on_c, 8, 44, 127
1, 50217, Note_off_c, 8, 44, 127
1, 50217, Note_off_c, 2, 74, 127
1, 50219, Note_on_c, 10, 45, 127
1, 50219, Note_on_c, 0, 72, 127
1, 50384, Note_off_c, 0, 72, 127
1, 50386, Note_on_c, 4, 64, 127
1, 50551, Note_off_c, 4, 64, 127
1, 50551, Note_off_c, 10, 45, 127
1, 50553, Note_on_c, 4, 52, 127
1, 50553, Note_on_c, 0, 72, 127
1, 50718, Note_off_c, 0, 72, 127
1, 50720, Note_on_c, 2, 74, 127
1, 50885, Note_off_c, 2, 74, 127
1, 50885, Note_off_c, 4, 52, 127
1, 50887, Note_on_c, 10, 57, 127
1, 50887, Note_on_c, 0, 72, 127
1, 51052, Note_off_c, 0, 72, 127
1, 51054, Note_on_c, 4, 64, 127
1, 51219, Note_off_c, 4, 64, 127
1, 51221, Note_on_c, 0, 72, 127
1, 51386, Note_off_c, 0, 72, 127
1, 51388, Note_on_c, 4, 76, 127
1, 51553, Note_off_c, 4, 76, 127
1, 51555, Note_on_c, 12, 71, 127
1, 51720, Note_off_c, 12, 71, 127
1, 51722, Note_on_c, 4, 64, 127
1, 51887, Note_off_c, 4, 64, 127
1, 51889, Note_on_c, 12, 71, 127
1, 52054, Note_off_c, 12, 71, 127
1, 52056, Note_on_c, 0, 72, 127
1, 52097, Note_off_c, 10, 57, 127
1, 52110, Note_on_c, 8, 56, 127
1, 52220, Note_off_c, 8, 56, 127
1, 52221, Note_off_c, 0, 72, 127
1, 52223, Note_on_c, 10, 57, 127
1, 52223, Note_on_c, 12, 71, 127
1, 52305, Note_off_c, 10, 57, 127
1, 52307, Note_on_c, 8, 56, 127
1, 52389, Note_off_c, 8, 56, 127
1, 52389, Note_off_c, 12, 71, 127
1, 52391, Note_on_c, 10, 57, 127
1, 52391, Note_on_c, 4, 64, 127
1, 52473, Note_off_c, 10, 57, 127
1, 52475, Note_on_c, 8, 56, 127
1, 52557, Note_off_c, 8, 56, 127
1, 52557, Note_off_c, 4, 64, 127
1, 52559, Note_on_c, 10, 57, 127
1, 52559, Note_on_c, 12, 71, 127
1, 52641, Note_off_c, 10, 57, 127
1, 52643, Note_on_c, 8, 56, 127
1, 52725, Note_off_c, 8, 56, 127
1, 52725, Note_off_c, 12, 71, 127
1, 52727, Note_on_c, 6, 54, 127
1, 52727, Note_on_c, 2, 74, 127
1, 52809, Note_off_c, 6, 54, 127
1, 52811, Note_on_c, 8, 56, 127
1, 52893, Note_off_c, 8, 56, 127
1, 52893, Note_off_c, 2, 74, 127
1, 52895, Note_on_c, 10, 57, 127
1, 52895, Note_on_c, 0, 72, 127
1, 53060, Note_off_c, 0, 72, 127
1, 53062, Note_on_c, 12, 71, 127
1, 53227, Note_off_c, 12, 71, 127
1, 53229, Note_on_c, 10, 69, 127
1, 53382, Note_off_c, 10, 57, 127
1, 53563, Note_on_c, 4, 52, 127
1, 53895, Note_off_c, 10, 69, 127
1, 53897, Note_on_c, 8, 68, 127
1, 54229, Note_off_c, 8, 68, 127
1, 54229, Note_off_c, 4, 52, 127
1, 54231, Note_on_c, 5, 53, 127
1, 54231, Note_on_c, 10, 69, 127
1, 54396, Note_off_c, 10, 69, 127
1, 54398, Note_on_c, 0, 72, 127
1, 54563, Note_off_c, 0, 72, 127
1, 54565, Note_on_c, 12, 71, 127
1, 54730, Note_off_c, 12, 71, 127
1, 54732, Note_on_c, 2, 74, 127
1, 54897, Note_off_c, 2, 74, 127
1, 54897, Note_off_c, 5, 53, 127
1, 54899, Note_on_c, 10, 45, 127
1, 54899, Note_on_c, 0, 72, 127
1, 55064, Note_off_c, 0, 72, 127
1, 55066, Note_on_c, 12, 71, 127
1, 55231, Note_off_c, 12, 71, 127
1, 55233, Note_on_c, 0, 72, 127
1, 55398, Note_off_c, 0, 72, 127
1, 55400, Note_on_c, 10, 69, 127
1, 55565, Note_off_c, 10, 69, 127
1, 55565, Note_off_c, 10, 45, 127
1, 55567, Note_on_c, 0, 48, 127
1, 55567, Note_on_c, 4, 64, 127
1, 55732, Note_off_c, 0, 48, 127
1, 55734, Note_on_c, 12, 47, 127
1, 55899, Note_off_c, 12, 47, 127
1, 55899, Note_off_c, 4, 64, 127
1, 55901, Note_on_c, 10, 45, 127
1, 55901, Note_on_c, 6, 66, 127
1, 56233, Note_off_c, 6, 66, 127
1, 56235, Note_on_c, 7, 67, 127
1, 56510, Note_off_c, 10, 45, 127
1, 56567, Note_off_c, 7, 67, 127
1, 56569, Note_on_c, 12, 47, 127
1, 56569, Note_on_c, 6, 66, 127
1, 56734, Note_off_c, 6, 66, 127
1, 56734, Note_off_c, 12, 47, 127
1, 56736, Note_on_c, 1, 49, 127
1, 56736, Note_on_c, 4, 64, 127
1, 56901, Note_off_c, 4, 64, 127
1, 56901, Note_off_c, 1, 49, 127
1, 56903, Note_on_c, 2, 50, 127
1, 56903, Note_on_c, 6, 66, 127
1, 57068, Note_off_c, 2, 50, 127
1, 57070, Note_on_c, 4, 52, 127
1, 57235, Note_off_c, 4, 52, 127
1, 57235, Note_off_c, 6, 66, 127
1, 57237, Note_on_c, 5, 53, 127
1, 57237, Note_on_c, 8, 68, 127
1, 57569, Note_off_c, 8, 68, 127
1, 57571, Note_on_c, 10, 69, 127
1, 57872, Note_off_c, 5, 53, 127
1, 57905, Note_on_c, 4, 52, 127
1, 58070, Note_off_c, 4, 52, 127
1, 58072, Note_on_c, 3, 51, 127
1, 58237, Note_off_c, 3, 51, 127
1, 58239, Note_on_c, 4, 52, 127
1, 58404, Note_off_c, 4, 52, 127
1, 58406, Note_on_c, 12, 47, 127
1, 58571, Note_off_c, 12, 47, 127
1, 58571, Note_off_c, 10, 69, 127
1, 58573, Note_on_c, 4, 52, 127
1, 58573, Note_on_c, 7, 67, 127
1, 58738, Note_off_c, 7, 67, 127
1, 58738, Note_off_c, 4, 52, 127
1, 58740, Note_on_c, 6, 54, 127
1, 58740, Note_on_c, 6, 66, 127
1, 58905, Note_off_c, 6, 66, 127
1, 58905, Note_off_c, 6, 54, 127
1, 58907, Note_on_c, 4, 52, 127
1, 58907, Note_on_c, 7, 67, 127
1, 59072, Note_off_c, 4, 52, 127
1, 59074, Note_on_c, 12, 47, 127
1, 59239, Note_off_c, 12, 47, 127
1, 59239, Note_off_c, 7, 67, 127
1, 59241, Note_on_c, 4, 52, 127
1, 59241, Note_on_c, 4, 64, 127
1, 59406, Note_off_c, 4, 52, 127
1, 59408, Note_on_c, 7, 55, 127
1, 59573, Note_off_c, 7, 55, 127
1, 59575, Note_on_c, 6, 54, 127
1, 59740, Note_off_c, 6, 54, 127
1, 59742, Note_on_c, 12, 47, 127
1, 59907, Note_off_c, 12, 47, 127
1, 59907, Note_off_c, 4, 64, 127
1, 59909, Note_on_c, 6, 54, 127
1, 59909, Note_on_c, 3, 63, 127
1, 60074, Note_off_c, 3, 63, 127
1, 60074, Note_off_c, 6, 54, 127
1, 60076, Note_on_c, 7, 55, 127
1, 60076, Note_on_c, 1, 61, 127
1, 60241, Note_off_c, 1, 61, 127
1, 60241, Note_off_c, 7, 55, 127
1, 60243, Note_on_c, 6, 54, 127
1, 60243, Note_on_c, 4, 64, 127
1, 60325, Note_off_c, 4, 64, 127
1, 60327, Note_on_c, 3, 63, 127
1, 60409, Note_off_c, 3, 63, 127
1, 60409, Note_off_c, 6, 54, 127
1, 60411, Note_on_c, 12, 47, 127
1, 60411, Note_on_c, 4, 64, 127
1, 60493, Note_off_c, 4, 64, 127
1, 60495, Note_on_c, 3, 63, 127
1, 60577, Note_off_c, 3, 63, 127
1, 60577, Note_off_c, 12, 47, 127
1, 60579, Note_on_c, 6, 54, 127
1, 60579, Note_on_c, 4, 64, 127
1, 60661, Note_off_c, 4, 64, 127
1, 60663, Note_on_c, 3, 63, 127
1, 60745, Note_off_c, 3, 63, 127
1, 60745, Note_off_c, 6, 54, 127
1, 60747, Note_on_c, 10, 57, 127
1, 60747, Note_on_c, 1, 61, 127
1, 60829, Note_off_c, 1, 61, 127
1, 60831, Note_on_c, 3, 63, 127
1, 60913, Note_off_c, 3, 63, 127
1, 60913, Note_off_c, 10, 57, 127
1, 60915, Note_on_c, 7, 55, 127
1, 60915, Note_on_c, 4, 64, 127
1, 61080, Note_off_c, 7, 55, 127
1, 61082, Note_on_c, 12, 47, 127
1, 61228, Note_off_c, 4, 64, 127
1, 61247, Note_off_c, 12, 47, 127
1, 61249, Note_on_c, 7, 55, 127
1, 61249, Note_on_c, 12, 71, 127
1, 61414, Note_off_c, 7, 55, 127
1, 61416, Note_on_c, 10, 57, 127
1, 61562, Note_off_c, 12, 71, 127
1, 61581, Note_off_c, 10, 57, 127
1, 61583, Note_on_c, 7, 55, 127
1, 61583, Note_on_c, 4, 76, 127
1, 61748, Note_off_c, 7, 55, 127
1, 61750, Note_on_c, 12, 47, 127
1, 61915, Note_off_c, 12, 47, 127
1, 61917, Note_on_c, 7, 55, 127
1, 62082, Note_off_c, 7, 55, 127
1, 62084, Note_on_c, 12, 59, 127
1, 62249, Note_off_c, 12, 59, 127
1, 62251, Note_on_c, 6, 54, 127
1, 62416, Note_off_c, 6, 54, 127
1, 62418, Note_on_c, 12, 47, 127
1, 62583, Note_off_c, 12, 47, 127
1, 62585, Note_on_c, 6, 54, 127
1, 62750, Note_off_c, 6, 54, 127
1, 62752, Note_on_c, 7, 55, 127
1, 62801, Note_off_c, 4, 76, 127
1, 62811, Note_on_c, 3, 75, 127
1, 62916, Note_off_c, 3, 75, 127
1, 62917, Note_off_c, 7, 55, 127
1, 62919, Note_on_c, 6, 54, 127
1, 62919, Note_on_c, 4, 76, 127
1, 63001, Note_off_c, 4, 76, 127
1, 63003, Note_on_c, 3, 75, 127
1, 63085, Note_off_c, 3, 75, 127
1, 63085, Note_off_c, 6, 54, 127
1, 63087, Note_on_c, 12, 47, 127
1, 63087, Note_on_c, 4, 76, 127
1, 63169, Note_off_c, 4, 76, 127
1, 63171, Note_on_c, 3, 75, 127
1, 63253, Note_off_c, 3, 75, 127
1, 63253, Note_off_c, 12, 47, 127
1, 63255, Note_on_c, 6, 54, 127
1, 63255, Note_on_c, 4, 76, 127
1, 63337, Note_off_c, 4, 76, 127
1, 63339, Note_on_c, 3, 75, 127
1, 63421, Note_off_c, 3, 75, 127
1, 63421, Note_off_c, 6, 54, 127
1, 63423, Note_on_c, 10, 57, 127
1, 63423, Note_on_c, 1, 73, 127
1, 63505, Note_off_c, 1, 73, 127
1, 63507, Note_on_c, 3, 75, 127
1, 63589, Note_off_c, 3, 75, 127
1, 63589, Note_off_c, 10, 57, 127
1, 63591, Note_on_c, 7, 55, 127
1, 63591, Note_on_c, 4, 76, 127
1, 63756, Note_off_c, 7, 55, 127
1, 63758, Note_on_c, 6, 54, 127
1, 63923, Note_off_c, 6, 54, 127
1, 63925, Note_on_c, 4, 52, 127
1, 64053, Note_on_c, 2, 74, 127
1, 64054, Note_off_c, 4, 76, 127
1, 64150, Note_off_c, 2, 74, 127
1, 64155, Note_on_c, 4, 76, 127
1, 64252, Note_off_c, 4, 76, 127
1, 64257, Note_on_c, 5, 77, 127
1, 64422, Note_off_c, 5, 77, 127
1, 64424, Note_on_c, 4, 76, 127
1, 64589, Note_off_c, 4, 76, 127
1, 64589, Note_off_c, 4, 52, 127
1, 64591, Note_on_c, 6, 54, 127
1, 64591, Note_on_c, 2, 74, 127
1, 64756, Note_off_c, 2, 74, 127
1, 64758, Note_on_c, 0, 72, 127
1, 64923, Note_off_c, 0, 72, 127
1, 64923, Note_off_c, 6, 54, 127
1, 64925, Note_on_c, 8, 56, 127
1, 64925, Note_on_c, 12, 71, 127
1, 65090, Note_off_c, 12, 71, 127
1, 65092, Note_on_c, 0, 72, 127
1, 65257, Note_off_c, 0, 72, 127
1, 65257, Note_off_c, 8, 56, 127
1, 65259, Note_on_c, 5, 65, 127
1, 65259, Note_on_c, 2, 74, 127
1, 65591, Note_off_c, 5, 65, 127
1, 65593, Note_on_c, 5, 65, 127
1, 65675, Note_off_c, 5, 65, 127
1, 65677, Note_on_c, 4, 64, 127
1, 65759, Note_off_c, 4, 64, 127
1, 65759, Note_off_c, 2, 74, 127
1, 65761, Note_on_c, 5, 65, 127
1, 65761, Note_on_c, 0, 72, 127
1, 65843, Note_off_c, 5, 65, 127
1, 65845, Note_on_c, 4, 64, 127
1, 65927, Note_off_c, 4, 64, 127
1, 65927, Note_off_c, 0, 72, 127
1, 65929, Note_on_c, 2, 62, 127
1, 65929, Note_on_c, 12, 71, 127
1, 66094, Note_off_c, 12, 71, 127
1, 66096, Note_on_c, 10, 69, 127
1, 66261, Note_off_c, 10, 69, 127
1, 66261, Note_off_c, 2, 62, 127
1, 66263, Note_on_c, 5, 53, 127
1, 66263, Note_on_c, 8, 68, 127
1, 66428, Note_off_c, 8, 68, 127
1, 66430, Note_on_c, 10, 69, 127
1, 66595, Note_off_c, 10, 69, 127
1, 66595, Note_off_c, 5, 53, 127
1, 66597, Note_on_c, 2, 62, 127
1, 66597, Note_on_c, 12, 71, 127
1, 66929, Note_off_c, 2, 62, 127
1, 66931, Note_on_c, 2, 62, 127
1, 67013, Note_off_c, 2, 62, 127
1, 67015, Note_on_c, 0, 60, 127
1, 67097, Note_off_c, 0, 60, 127
1, 67097, Note_off_c, 12, 71, 127
1, 67099, Note_on_c, 2, 62, 127
1, 67099, Note_on_c, 10, 69, 127
1, 67181, Note_off_c, 2, 62, 127
1, 67183, Note_on_c, 0, 60, 127
1, 67265, Note_off_c, 0, 60, 127
1, 67265, Note_off_c, 10, 69, 127
1, 67267, Note_on_c, 12, 59, 127
1, 67267, Note_on_c, 8, 68, 127
1, 67432, Note_off_c, 8, 68, 127
1, 67434, Note_on_c, 6, 66, 127
1, 67599, Note_off_c, 6, 66, 127
1, 67599, Note_off_c, 12, 59, 127
1, 67601, Note_on_c, 2, 50, 127
1, 67601, Note_on_c, 8, 68, 127
1, 67766, Note_off_c, 8, 68, 127
1, 67768, Note_on_c, 4, 64, 127
1, 67933, Note_off_c, 4, 64, 127
1, 67933, Note_off_c, 2, 50, 127
1, 67935, Note_on_c, 12, 59, 127
1, 67935, Note_on_c, 8, 68, 127
1, 68100, Note_off_c, 8, 68, 127
1, 68102, Note_on_c, 10, 69, 127
1, 68267, Note_off_c, 10, 69, 127
1, 68267, Note_off_c, 12, 59, 127
1, 68269, Note_on_c, 12, 59, 127
1, 68269, Note_on_c, 12, 71, 127
1, 68351, Note_off_c, 12, 59, 127
1, 68353, Note_on_c, 10, 57, 127
1, 68435, Note_off_c, 10, 57, 127
1, 68435, Note_off_c, 12, 71, 127
1, 68437, Note_on_c, 12, 59, 127
1, 68437, Note_on_c, 0, 72, 127
1, 68519, Note_off_c, 12, 59, 127
1, 68521, Note_on_c, 10, 57, 127
1, 68603, Note_off_c, 10, 57, 127
1, 68603, Note_off_c, 0, 72, 127
1, 68605, Note_on_c, 8, 56, 127
1, 68605, Note_on_c, 2, 74, 127
1, 68770, Note_off_c, 2, 74, 127
1, 68772, Note_on_c, 12, 71, 127
1, 68937, Note_off_c, 12, 71, 127
1, 68937, Note_off_c, 8, 56, 127
1, 68939, Note_on_c, 10, 57, 127
1, 68939, Note_on_c, 0, 72, 127
1, 69104, Note_off_c, 0, 72, 127
1, 69104, Note_off_c, 10, 57, 127
1, 69106, Note_on_c, 2, 50, 127
1, 69106, Note_on_c, 12, 71, 127
1, 69271, Note_off_c, 12, 71, 127
1, 69271, Note_off_c, 2, 50, 127
1, 69273, Note_on_c, 0, 48, 127
1, 69273, Note_on_c, 10, 69, 127
1, 69438, Note_off_c, 10, 69, 127
1, 69438, Note_off_c, 0, 48, 127
1, 69440, Note_on_c, 12, 47, 127
1, 69440, Note_on_c, 12, 71, 127
1, 69605, Note_off_c, 12, 71, 127
1, 69605, Note_off_c, 12, 47, 127
1, 69607, Note_on_c, 10, 45, 127
1, 69607, Note_on_c, 0, 72, 127
1, 69772, Note_off_c, 0, 72, 127
1, 69774, Note_on_c, 2, 74, 127
1, 69920, Note_off_c, 10, 45, 127
1, 69939, Note_off_c, 2, 74, 127
1, 69941, Note_on_c, 7, 55, 127
1, 69941, Note_on_c, 3, 75, 127
1, 70106, Note_off_c, 3, 75, 127
1, 70108, Note_on_c, 0, 72, 127
1, 70254, Note_off_c, 7, 55, 127
1, 70273, Note_off_c, 0, 72, 127
1, 70275, Note_on_c, 6, 54, 127
1, 70275, Note_on_c, 10, 69, 127
1, 70440, Note_off_c, 10, 69, 127
1, 70442, Note_on_c, 12, 71, 127
1, 70607, Note_off_c, 12, 71, 127
1, 70607, Note_off_c, 6, 54, 127
1, 70609, Note_on_c, 3, 63, 127
1, 70609, Note_on_c, 0, 72, 127
1, 70941, Note_off_c, 3, 63, 127
1, 70943, Note_on_c, 3, 63, 127
1, 71025, Note_off_c, 3, 63, 127
1, 71027, Note_on_c, 2, 62, 127
1, 71109, Note_off_c, 2, 62, 127
1, 71109, Note_off_c, 0, 72, 127
1, 71111, Note_on_c, 3, 63, 127
1, 71111, Note_on_c, 12, 71, 127
1, 71193, Note_off_c, 3, 63, 127
1, 71195, Note_on_c, 2, 62, 127
1, 71277, Note_off_c, 2, 62, 127
1, 71277, Note_off_c, 12, 71, 127
1, 71279, Note_on_c, 0, 60, 127
1, 71279, Note_on_c, 10, 69, 127
1, 71444, Note_off_c, 10, 69, 127
1, 71446, Note_on_c, 7, 67, 127
1, 71611, Note_off_c, 7, 67, 127
1, 71611, Note_off_c, 0, 60, 127
1, 71613, Note_on_c, 3, 51, 127
1, 71613, Note_on_c, 6, 66, 127
1, 71778, Note_off_c, 6, 66, 127
1, 71780, Note_on_c, 7, 67, 127
1, 71945, Note_off_c, 7, 67, 127
1, 71945, Note_off_c, 3, 51, 127
1, 71947, Note_on_c, 0, 60, 127
1, 71947, Note_on_c, 10, 69, 127
1, 72279, Note_off_c, 0, 60, 127
1, 72281, Note_on_c, 0, 60, 127
1, 72363, Note_off_c, 0, 60, 127
1, 72365, Note_on_c, 12, 59, 127
1, 72447, Note_off_c, 12, 59, 127
1, 72447, Note_off_c, 10, 69, 127
1, 72449, Note_on_c, 0, 60, 127
1, 72449, Note_on_c, 7, 67, 127
1, 72531, Note_off_c, 0, 60, 127
1, 72533, Note_on_c, 12, 59, 127
1, 72615, Note_off_c, 12, 59, 127
1, 72615, Note_off_c, 7, 67, 127
1, 72617, Note_on_c, 10, 57, 127
1, 72617, Note_on_c, 6, 66, 127
1, 72782, Note_off_c, 6, 66, 127
1, 72784, Note_on_c, 4, 64, 127
1, 72949, Note_off_c, 4, 64, 127
1, 72949, Note_off_c, 10, 57, 127
1, 72951, Note_on_c, 0, 48, 127
1, 72951, Note_on_c, 6, 66, 127
1, 73116, Note_off_c, 6, 66, 127
1, 73118, Note_on_c, 2, 62, 127
1, 73283, Note_off_c, 2, 62, 127
1, 73283, Note_off_c, 0, 48, 127
1, 73285, Note_on_c, 10, 57, 127
1, 73285, Note_on_c, 6, 66, 127
1, 73450, Note_off_c, 6, 66, 127
1, 73452, Note_on_c, 7, 67, 127
1, 73617, Note_off_c, 7, 67, 127
1, 73617, Note_off_c, 10, 57, 127
1, 73619, Note_on_c, 10, 57, 127
1, 73619, Note_on_c, 10, 69, 127
1, 73701, Note_off_c, 10, 57, 127
1, 73703, Note_on_c, 7, 55, 127
1, 73785, Note_off_c, 7, 55, 127
1, 73785, Note_off_c, 10, 69, 127
1, 73787, Note_on_c, 10, 57, 127
1, 73787, Note_on_c, 12, 71, 127
1, 73869, Note_off_c, 10, 57, 127
1, 73871, Note_on_c, 7, 55, 127
1, 73953, Note_off_c, 7, 55, 127
1, 73953, Note_off_c, 12, 71, 127
1, 73955, Note_on_c, 6, 54, 127
1, 73955, Note_on_c, 0, 72, 127
1, 74120, Note_off_c, 0, 72, 127
1, 74122, Note_on_c, 10, 69, 127
1, 74287, Note_off_c, 10, 69, 127
1, 74287, Note_off_c, 6, 54, 127
1, 74289, Note_on_c, 7, 55, 127
1, 74289, Note_on_c, 12, 71, 127
1, 74454, Note_off_c, 12, 71, 127
1, 74454, Note_off_c, 7, 55, 127
1, 74456, Note_on_c, 0, 48, 127
1, 74456, Note_on_c, 10, 69, 127
1, 74621, Note_off_c, 10, 69, 127
1, 74621, Note_off_c, 0, 48, 127
1, 74623, Note_on_c, 12, 47, 127
1, 74623, Note_on_c, 7, 67, 127
1, 74788, Note_off_c, 7, 67, 127
1, 74788, Note_off_c, 12, 47, 127
1, 74790, Note_on_c, 10, 45, 127
1, 74790, Note_on_c, 10, 69, 127
1, 74955, Note_off_c, 10, 69, 127
1, 74955, Note_off_c, 10, 45, 127
1, 74957, Note_on_c, 7, 43, 127
1, 74957, Note_on_c, 12, 71, 127
1, 75122, Note_off_c, 12, 71, 127
1, 75124, Note_on_c, 0, 72, 127
1, 75289, Note_off_c, 0, 72, 127
1, 75289, Note_off_c, 7, 43, 127
1, 75291, Note_on_c, 5, 53, 127
1, 75291, Note_on_c, 2, 74, 127
1, 75456, Note_off_c, 2, 74, 127
1, 75458, Note_on_c, 12, 71, 127
1, 75623, Note_off_c, 12, 71, 127
1, 75623, Note_off_c, 5, 53, 127
1, 75625, Note_on_c, 4, 52, 127
1, 75625, Note_on_c, 0, 72, 127
1, 75790, Note_off_c, 4, 52, 127
1, 75792, Note_on_c, 2, 62, 127
1, 75957, Note_off_c, 2, 62, 127
1, 75957, Note_off_c, 0, 72, 127
1, 75959, Note_on_c, 0, 60, 127
1, 75959, Note_on_c, 4, 76, 127
1, 76124, Note_off_c, 0, 60, 127
1, 76126, Note_on_c, 12, 59, 127
1, 76291, Note_off_c, 12, 59, 127
1, 76291, Note_off_c, 4, 76, 127
1, 76293, Note_on_c, 0, 60, 127
1, 76293, Note_on_c, 10, 69, 127
1, 76458, Note_off_c, 0, 60, 127
1, 76460, Note_on_c, 10, 57, 127
1, 76625, Note_off_c, 10, 57, 127
1, 76625, Note_off_c, 10, 69, 127
1, 76627, Note_on_c, 4, 52, 127
1, 76627, Note_on_c, 0, 72, 127
1, 76959, Note_off_c, 0, 72, 127
1, 76961, Note_on_c, 6, 66, 127
1, 77107, Note_off_c, 4, 52, 127
1, 77128, Note_on_c, 2, 50, 127
1, 77293, Note_off_c, 2, 50, 127
1, 77293, Note_off_c, 6, 66, 127
1, 77295, Note_on_c, 4, 52, 127
1, 77295, Note_on_c, 7, 67, 127
1, 77460, Note_off_c, 7, 67, 127
1, 77460, Note_off_c, 4, 52, 127
1, 77462, Note_on_c, 6, 54, 127
1, 77462, Note_on_c, 10, 69, 127
1, 77627, Note_off_c, 10, 69, 127
1, 77627, Note_off_c, 6, 54, 127
1, 77629, Note_on_c, 2, 50, 127
1, 77629, Note_on_c, 12, 71, 127
1, 77794, Note_off_c, 2, 50, 127
1, 77796, Note_on_c, 7, 55, 127
1, 77961, Note_off_c, 7, 55, 127
1, 77961, Note_off_c, 12, 71, 127
1, 77963, Note_on_c, 12, 59, 127
1, 77963, Note_on_c, 7, 67, 127
1, 78295, Note_off_c, 7, 67, 127
1, 78295, Note_off_c, 12, 59, 127
1, 78297, Note_on_c, 0, 48, 127
1, 78297, Note_on_c, 10, 69, 127
1, 78462, Note_off_c, 0, 48, 127
1, 78464, Note_on_c, 12, 59, 127
1, 78629, Note_off_c, 12, 59, 127
1, 78629, Note_off_c, 10, 69, 127
1, 78631, Note_on_c, 10, 57, 127
1, 78631, Note_on_c, 0, 72, 127
1, 78796, Note_off_c, 10, 57, 127
1, 78798, Note_on_c, 7, 55, 127
1, 78963, Note_off_c, 7, 55, 127
1, 78963, Note_off_c, 0, 72, 127
1, 78965, Note_on_c, 10, 57, 127
1, 78965, Note_on_c, 6, 66, 127
1, 79130, Note_off_c, 10, 57, 127
1, 79132, Note_on_c, 6, 54, 127
1, 79297, Note_off_c, 6, 54, 127
1, 79297, Note_off_c, 6, 66, 127
1, 79299, Note_on_c, 0, 48, 127
1, 79299, Note_on_c, 10, 69, 127
1, 79631, Note_off_c, 10, 69, 127
1, 79633, Note_on_c, 2, 62, 127
1, 79781, Note_off_c, 0, 48, 127
1, 79800, Note_on_c, 12, 47, 127
1, 79965, Note_off_c, 12, 47, 127
1, 79965, Note_off_c, 2, 62, 127
1, 79967, Note_on_c, 0, 48, 127
1, 79967, Note_on_c, 4, 64, 127
1, 80132, Note_off_c, 4, 64, 127
1, 80132, Note_off_c, 0, 48, 127
1, 80134, Note_on_c, 2, 50, 127
1, 80134, Note_on_c, 6, 66, 127
1, 80299, Note_off_c, 6, 66, 127
1, 80299, Note_off_c, 2, 50, 127
1, 80301, Note_on_c, 12, 47, 127
1, 80301, Note_on_c, 7, 67, 127
1, 80466, Note_off_c, 12, 47, 127
1, 80468, Note_on_c, 2, 50, 127
1, 80633, Note_off_c, 2, 50, 127
1, 80633, Note_off_c, 7, 67, 127
1, 80635, Note_on_c, 7, 55, 127
1, 80635, Note_on_c, 4, 64, 127
1, 80967, Note_off_c, 4, 64, 127
1, 80967, Note_off_c, 7, 55, 127
1, 80969, Note_on_c, 10, 45, 127
1, 80969, Note_on_c, 6, 66, 127
1, 81134, Note_off_c, 10, 45, 127
1, 81136, Note_on_c, 7, 55, 127
1, 81301, Note_off_c, 7, 55, 127
1, 81301, Note_off_c, 6, 66, 127
1, 81303, Note_on_c, 6, 54, 127
1, 81303, Note_on_c, 10, 69, 127
1, 81468, Note_off_c, 6, 54, 127
1, 81470, Note_on_c, 4, 52, 127
1, 81635, Note_off_c, 4, 52, 127
1, 81635, Note_off_c, 10, 69, 127
1, 81637, Note_on_c, 6, 54, 127
1, 81637, Note_on_c, 3, 63, 127
1, 81802, Note_off_c, 6, 54, 127
1, 81804, Note_on_c, 3, 51, 127
1, 81969, Note_off_c, 3, 51, 127
1, 81969, Note_off_c, 3, 63, 127
1, 81971, Note_on_c, 10, 45, 127
1, 81971, Note_on_c, 6, 66, 127
1, 82303, Note_off_c, 6, 66, 127
1, 82305, Note_on_c, 12, 59, 127
1, 82470, Note_off_c, 10, 45, 127
1, 82472, Note_on_c, 7, 43, 127
1, 82637, Note_off_c, 7, 43, 127
1, 82637, Note_off_c, 12, 59, 127
1, 82639, Note_on_c, 10, 45, 127
1, 82639, Note_on_c, 1, 61, 127
1, 82804, Note_off_c, 1, 61, 127
1, 82804, Note_off_c, 10, 45, 127
1, 82806, Note_on_c, 12, 47, 127
1, 82806, Note_on_c, 3, 63, 127
1, 82971, Note_off_c, 3, 63, 127
1, 82971, Note_off_c, 12, 47, 127
1, 82973, Note_on_c, 7, 43, 127
1, 82973, Note_on_c, 4, 64, 127
1, 83138, Note_off_c, 7, 43, 127
1, 83140, Note_on_c, 12, 47, 127
1, 83305, Note_off_c, 12, 47, 127
1, 83307, Note_on_c, 4, 52, 127
1, 83472, Note_off_c, 4, 52, 127
1, 83474, Note_on_c, 7, 55, 127
1, 83639, Note_off_c, 7, 55, 127
1, 83641, Note_on_c, 6, 54, 127
1, 83806, Note_off_c, 6, 54, 127
1, 83808, Note_on_c, 11, 46, 127
1, 83965, Note_off_c, 4, 64, 127
1, 83974, Note_off_c, 11, 46, 127
1, 83976, Note_on_c, 6, 54, 127
1, 83976, Note_on_c, 2, 62, 127
1, 84141, Note_off_c, 2, 62, 127
1, 84141, Note_off_c, 6, 54, 127
1, 84143, Note_on_c, 7, 55, 127
1, 84143, Note_on_c, 1, 61, 127
1, 84308, Note_off_c, 1, 61, 127
1, 84308, Note_off_c, 7, 55, 127
1, 84310, Note_on_c, 6, 54, 127
1, 84310, Note_on_c, 2, 62, 127
1, 84475, Note_off_c, 6, 54, 127
1, 84477, Note_on_c, 12, 47, 127
1, 84642, Note_off_c, 12, 47, 127
1, 84644, Note_on_c, 6, 54, 127
1, 84809, Note_off_c, 6, 54, 127
1, 84811, Note_on_c, 10, 57, 127
1, 84976, Note_off_c, 10, 57, 127
1, 84978, Note_on_c, 8, 56, 127
1, 85143, Note_off_c, 8, 56, 127
1, 85145, Note_on_c, 4, 52, 127
1, 85302, Note_off_c, 2, 62, 127
1, 85311, Note_off_c, 4, 52, 127
1, 85313, Note_on_c, 8, 56, 127
1, 85313, Note_on_c, 4, 64, 127
1, 85478, Note_off_c, 4, 64, 127
1, 85478, Note_off_c, 8, 56, 127
1, 85480, Note_on_c, 11, 58, 127
1, 85480, Note_on_c, 6, 66, 127
1, 85645, Note_off_c, 6, 66, 127
1, 85645, Note_off_c, 11, 58, 127
1, 85647, Note_on_c, 12, 59, 127
1, 85647, Note_on_c, 7, 67, 127
1, 85812, Note_off_c, 12, 59, 127
1, 85814, Note_on_c, 2, 50, 127
1, 85979, Note_off_c, 2, 50, 127
1, 85981, Note_on_c, 7, 55, 127
1, 86146, Note_off_c, 7, 55, 127
1, 86148, Note_on_c, 12, 59, 127
1, 86313, Note_off_c, 12, 59, 127
1, 86315, Note_on_c, 10, 57, 127
1, 86480, Note_off_c, 10, 57, 127
1, 86482, Note_on_c, 1, 49, 127
1, 86639, Note_off_c, 7, 67, 127
1, 86648, Note_off_c, 1, 49, 127
1, 86650, Note_on_c, 10, 57, 127
1, 86650, Note_on_c, 5, 65, 127
1, 86815, Note_off_c, 5, 65, 127
1, 86815, Note_off_c, 10, 57, 127
1, 86817, Note_on_c, 11, 58, 127
1, 86817, Note_on_c, 4, 64, 127
1, 86982, Note_off_c, 4, 64, 127
1, 86982, Note_off_c, 11, 58, 127
1, 86984, Note_on_c, 10, 57, 127
1, 86984, Note_on_c, 5, 65, 127
1, 87149, Note_off_c, 10, 57, 127
1, 87151, Note_on_c, 2, 50, 127
1, 87316, Note_off_c, 2, 50, 127
1, 87318, Note_on_c, 10, 57, 127
1, 87483, Note_off_c, 10, 57, 127
1, 87485, Note_on_c, 0, 60, 127
1, 87650, Note_off_c, 0, 60, 127
1, 87652, Note_on_c, 12, 59, 127
1, 87817, Note_off_c, 12, 59, 127
1, 87819, Note_on_c, 7, 55, 127
1, 87976, Note_off_c, 5, 65, 127
1, 87985, Note_off_c, 7, 55, 127
1, 87987, Note_on_c, 12, 59, 127
1, 87987, Note_on_c, 7, 67, 127
1, 88152, Note_off_c, 7, 67, 127
1, 88152, Note_off_c, 12, 59, 127
1, 88154, Note_on_c, 1, 61, 127
1, 88154, Note_on_c, 10, 69, 127
1, 88319, Note_off_c, 10, 69, 127
1, 88319, Note_off_c, 1, 61, 127
1, 88321, Note_on_c, 2, 62, 127
1, 88321, Note_on_c, 11, 70, 127
1, 88486, Note_off_c, 2, 62, 127
1, 88488, Note_on_c, 5, 53, 127
1, 88653, Note_off_c, 5, 53, 127
1, 88655, Note_on_c, 11, 58, 127
1, 88820, Note_off_c, 11, 58, 127
1, 88822, Note_on_c, 2, 62, 127
1, 88987, Note_off_c, 2, 62, 127
1, 88989, Note_on_c, 0, 60, 127
1, 89154, Note_off_c, 0, 60, 127
1, 89156, Note_on_c, 4, 52, 127
1, 89313, Note_off_c, 11, 70, 127
1, 89322, Note_off_c, 4, 52, 127
1, 89324, Note_on_c, 0, 60, 127
1, 89324, Note_on_c, 10, 69, 127
1, 89489, Note_off_c, 10, 69, 127
1, 89489, Note_off_c, 0, 60, 127
1, 89491, Note_on_c, 2, 62, 127
1, 89491, Note_on_c, 8, 68, 127
1, 89656, Note_off_c, 8, 68, 127
1, 89656, Note_off_c, 2, 62, 127
1, 89658, Note_on_c, 0, 60, 127
1, 89658, Note_on_c, 10, 69, 127
1, 89823, Note_off_c, 0, 60, 127
1, 89825, Note_on_c, 5, 53, 127
1, 89990, Note_off_c, 5, 53, 127
1, 89992, Note_on_c, 10, 57, 127
1, 90157, Note_off_c, 10, 57, 127
1, 90159, Note_on_c, 0, 60, 127
1, 90324, Note_off_c, 0, 60, 127
1, 90326, Note_on_c, 12, 59, 127
1, 90491, Note_off_c, 12, 59, 127
1, 90493, Note_on_c, 2, 50, 127
1, 90658, Note_off_c, 2, 50, 127
1, 90660, Note_on_c, 12, 59, 127
1, 90825, Note_off_c, 12, 59, 127
1, 90827, Note_on_c, 0, 60, 127
1, 90992, Note_off_c, 0, 60, 127
1, 90994, Note_on_c, 12, 59, 127
1, 91024, Note_off_c, 10, 69, 127
1, 91064, Note_on_c, 8, 68, 127
1, 91160, Note_off_c, 8, 68, 127
1, 91160, Note_off_c, 12, 59, 127
1, 91162, Note_on_c, 4, 52, 127
1, 91162, Note_on_c, 10, 69, 127
1, 91244, Note_off_c, 10, 69, 127
1, 91246, Note_on_c, 8, 68, 127
1, 91328, Note_off_c, 8, 68, 127
1, 91328, Note_off_c, 4, 52, 127
1, 91330, Note_on_c, 12, 59, 127
1, 91330, Note_on_c, 10, 69, 127
1, 91412, Note_off_c, 10, 69, 127
1, 91414, Note_on_c, 8, 68, 127
1, 91496, Note_off_c, 8, 68, 127
1, 91496, Note_off_c, 12, 59, 127
1, 91498, Note_on_c, 2, 62, 127
1, 91498, Note_on_c, 6, 66, 127
1, 91580, Note_off_c, 6, 66, 127
1, 91582, Note_on_c, 8, 68, 127
1, 91664, Note_off_c, 8, 68, 127
1, 91664, Note_off_c, 2, 62, 127
1, 91666, Note_on_c, 0, 60, 127
1, 91666, Note_on_c, 10, 69, 127
1, 91831, Note_off_c, 0, 60, 127
1, 91833, Note_on_c, 10, 57, 127
1, 91998, Note_off_c, 10, 57, 127
1, 92000, Note_on_c, 0, 60, 127
1, 92165, Note_off_c, 0, 60, 127
1, 92167, Note_on_c, 4, 64, 127
1, 92332, Note_off_c, 4, 64, 127
1, 92332, Note_off_c, 10, 69, 127
1, 92334, Note_on_c, 0, 60, 127
1, 92334, Note_on_c, 4, 76, 127
1, 92499, Note_off_c, 0, 60, 127
1, 92501, Note_on_c, 10, 57, 127
1, 92666, Note_off_c, 10, 57, 127
1, 92668, Note_on_c, 12, 59, 127
1, 92833, Note_off_c, 12, 59, 127
1, 92835, Note_on_c, 8, 56, 127
1, 93000, Note_off_c, 8, 56, 127
1, 93000, Note_off_c, 4, 76, 127
1, 93002, Note_on_c, 10, 57, 127
1, 93002, Note_on_c, 5, 77, 127
1, 93167, Note_off_c, 10, 57, 127
1, 93169, Note_on_c, 0, 60, 127
1, 93334, Note_off_c, 0, 60, 127
1, 93336, Note_on_c, 12, 59, 127
1, 93501, Note_off_c, 12, 59, 127
1, 93503, Note_on_c, 2, 62, 127
1, 93668, Note_off_c, 2, 62, 127
1, 93668, Note_off_c, 5, 77, 127
1, 93670, Note_on_c, 0, 60, 127
1, 93670, Note_on_c, 10, 69, 127
1, 93835, Note_off_c, 0, 60, 127
1, 93837, Note_on_c, 12, 59, 127
1, 94002, Note_off_c, 12, 59, 127
1, 94004, Note_on_c, 0, 60, 127
1, 94169, Note_off_c, 0, 60, 127
1, 94171, Note_on_c, 10, 57, 127
1, 94336, Note_off_c, 10, 57, 127
1, 94336, Note_off_c, 10, 69, 127
1, 94338, Note_on_c, 4, 52, 127
1, 94338, Note_on_c, 0, 72, 127
1, 94503, Note_off_c, 0, 72, 127
1, 94505, Note_on_c, 12, 71, 127
1, 94670, Note_off_c, 12, 71, 127
1, 94670, Note_off_c, 4, 52, 127
1, 94672, Note_on_c, 6, 54, 127
1, 94672, Note_on_c, 10, 69, 127
1, 95004, Note_off_c, 6, 54, 127
1, 95006, Note_on_c, 7, 55, 127
1, 95281, Note_off_c, 10, 69, 127
1, 95338, Note_off_c, 7, 55, 127
1, 95340, Note_on_c, 6, 54, 127
1, 95340, Note_on_c, 12, 71, 127
1, 95505, Note_off_c, 12, 71, 127
1, 95505, Note_off_c, 6, 54, 127
1, 95507, Note_on_c, 4, 52, 127
1, 95507, Note_on_c, 1, 73, 127
1, 95672, Note_off_c, 1, 73, 127
1, 95672, Note_off_c, 4, 52, 127
1, 95674, Note_on_c, 6, 54, 127
1, 95674, Note_on_c, 2, 74, 127
1, 95839, Note_off_c, 2, 74, 127
1, 95841, Note_on_c, 4, 76, 127
1, 96006, Note_off_c, 4, 76, 127
1, 96006, Note_off_c, 6, 54, 127
1, 96008, Note_on_c, 8, 56, 127
1, 96008, Note_on_c, 5, 77, 127
1, 96340, Note_off_c, 8, 56, 127
1, 96342, Note_on_c, 10, 57, 127
1, 96634, Note_off_c, 5, 77, 127
1, 96676, Note_on_c, 4, 76, 127
1, 96841, Note_off_c, 4, 76, 127
1, 96843, Note_on_c, 3, 75, 127
1, 97008, Note_off_c, 3, 75, 127
1, 97010, Note_on_c, 4, 76, 127
1, 97175, Note_off_c, 4, 76, 127
1, 97177, Note_on_c, 12, 71, 127
1, 97342, Note_off_c, 12, 71, 127
1, 97342, Note_off_c, 10, 57, 127
1, 97344, Note_on_c, 7, 55, 127
1, 97344, Note_on_c, 4, 76, 127
1, 97509, Note_off_c, 4, 76, 127
1, 97509, Note_off_c, 7, 55, 127
1, 97511, Note_on_c, 6, 54, 127
1, 97511, Note_on_c, 6, 78, 127
1, 97676, Note_off_c, 6, 78, 127
1, 97676, Note_off_c, 6, 54, 127
1, 97678, Note_on_c, 7, 55, 127
1, 97678, Note_on_c, 4, 76, 127
1, 97843, Note_off_c, 4, 76, 127
1, 97845, Note_on_c, 12, 71, 127
1, 98010, Note_off_c, 12, 71, 127
1, 98010, Note_off_c, 7, 55, 127
1, 98012, Note_on_c, 4, 52, 127
1, 98012, Note_on_c, 4, 76, 127
1, 98177, Note_off_c, 4, 76, 127
1, 98179, Note_on_c, 7, 79, 127
1, 98344, Note_off_c, 7, 79, 127
1, 98346, Note_on_c, 6, 78, 127
1, 98511, Note_off_c, 6, 78, 127
1, 98513, Note_on_c, 12, 71, 127
1, 98678, Note_off_c, 12, 71, 127
1, 98678, Note_off_c, 4, 52, 127
1, 98680, Note_on_c, 3, 51, 127
1, 98680, Note_on_c, 6, 78, 127
1, 98845, Note_off_c, 6, 78, 127
1, 98845, Note_off_c, 3, 51, 127
1, 98847, Note_on_c, 1, 49, 127
1, 98847, Note_on_c, 7, 79, 127
1, 99012, Note_off_c, 7, 79, 127
1, 99012, Note_off_c, 1, 49, 127
1, 99014, Note_on_c, 4, 52, 127
1, 99014, Note_on_c, 6, 78, 127
1, 99096, Note_off_c, 4, 52, 127
1, 99098, Note_on_c, 3, 51, 127
1, 99180, Note_off_c, 3, 51, 127
1, 99180, Note_off_c, 6, 78, 127
1, 99182, Note_on_c, 4, 52, 127
1, 99182, Note_on_c, 12, 71, 127
1, 99264, Note_off_c, 4, 52, 127
1, 99266, Note_on_c, 3, 51, 127
1, 99348, Note_off_c, 3, 51, 127
1, 99348, Note_off_c, 12, 71, 127
1, 99350, Note_on_c, 4, 52, 127
1, 99350, Note_on_c, 6, 78, 127
1, 99432, Note_off_c, 4, 52, 127
1, 99434, Note_on_c, 3, 51, 127
1, 99516, Note_off_c, 3, 51, 127
1, 99516, Note_off_c, 6, 78, 127
1, 99518, Note_on_c, 1, 49, 127
1, 99518, Note_on_c, 10, 81, 127
1, 99600, Note_off_c, 1, 49, 127
1, 99602, Note_on_c, 3, 51, 127
1, 99684, Note_off_c, 3, 51, 127
1, 99684, Note_off_c, 10, 81, 127
1, 99686, Note_on_c, 4, 52, 127
1, 99686, Note_on_c, 7, 79, 127
1, 99851, Note_off_c, 7, 79, 127
1, 99853, Note_on_c, 12, 71, 127
1, 100004, Note_off_c, 4, 52, 127
1, 100018, Note_off_c, 12, 71, 127
1, 100020, Note_on_c, 12, 59, 127
1, 100020, Note_on_c, 7, 79, 127
1, 100185, Note_off_c, 7, 79, 127
1, 100187, Note_on_c, 10, 81, 127
1, 100338, Note_off_c, 12, 59, 127
1, 100352, Note_off_c, 10, 81, 127
1, 100354, Note_on_c, 4, 64, 127
1, 100354, Note_on_c, 7, 79, 127
1, 100519, Note_off_c, 7, 79, 127
1, 100521, Note_on_c, 12, 71, 127
1, 100686, Note_off_c, 12, 71, 127
1, 100688, Note_on_c, 7, 79, 127
1, 100853, Note_off_c, 7, 79, 127
1, 100855, Note_on_c, 12, 83, 127
1, 101020, Note_off_c, 12, 83, 127
1, 101022, Note_on_c, 6, 78, 127
1, 101187, Note_off_c, 6, 78, 127
1, 101189, Note_on_c, 12, 71, 127
1, 101354, Note_off_c, 12, 71, 127
1, 101356, Note_on_c, 6, 78, 127
1, 101521, Note_off_c, 6, 78, 127
1, 101523, Note_on_c, 7, 79, 127
1, 101593, Note_on_c, 3, 63, 127
1, 101602, Note_off_c, 4, 64, 127
1, 101689, Note_off_c, 3, 63, 127
1, 101689, Note_off_c, 7, 79, 127
1, 101691, Note_on_c, 4, 64, 127
1, 101691, Note_on_c, 6, 78, 127
1, 101773, Note_off_c, 4, 64, 127
1, 101775, Note_on_c, 3, 63, 127
1, 101857, Note_off_c, 3, 63, 127
1, 101857, Note_off_c, 6, 78, 127
1, 101859, Note_on_c, 4, 64, 127
1, 101859, Note_on_c, 12, 71, 127
1, 101941, Note_off_c, 4, 64, 127
1, 101943, Note_on_c, 3, 63, 127
1, 102025, Note_off_c, 3, 63, 127
1, 102025, Note_off_c, 12, 71, 127
1, 102027, Note_on_c, 4, 64, 127
1, 102027, Note_on_c, 6, 78, 127
1, 102109, Note_off_c, 4, 64, 127
1, 102111, Note_on_c, 3, 63, 127
1, 102193, Note_off_c, 3, 63, 127
1, 102193, Note_off_c, 6, 78, 127
1, 102195, Note_on_c, 1, 61, 127
1, 102195, Note_on_c, 10, 81, 127
1, 102277, Note_off_c, 1, 61, 127
1, 102279, Note_on_c, 3, 63, 127
1, 102361, Note_off_c, 3, 63, 127
1, 102361, Note_off_c, 10, 81, 127
1, 102363, Note_on_c, 4, 64, 127
1, 102363, Note_on_c, 7, 79, 127
1, 102528, Note_off_c, 7, 79, 127
1, 102530, Note_on_c, 12, 71, 127
1, 102695, Note_off_c, 12, 71, 127
1, 102697, Note_on_c, 4, 76, 127
1, 102862, Note_off_c, 4, 76, 127
1, 102864, Note_on_c, 6, 78, 127
1, 103024, Note_off_c, 4, 64, 127
1, 103029, Note_off_c, 6, 78, 127
1, 103031, Note_on_c, 7, 79, 127
1, 103196, Note_off_c, 7, 79, 127
1, 103198, Note_on_c, 10, 81, 127
1, 103363, Note_off_c, 10, 81, 127
1, 103365, Note_on_c, 2, 62, 127
1, 103365, Note_on_c, 11, 82, 127
1, 103530, Note_off_c, 11, 82, 127
1, 103532, Note_on_c, 7, 79, 127
1, 103697, Note_off_c, 7, 79, 127
1, 103697, Note_off_c, 2, 62, 127
1, 103699, Note_on_c, 1, 61, 127
1, 103699, Note_on_c, 4, 76, 127
1, 103864, Note_off_c, 4, 76, 127
1, 103866, Note_on_c, 5, 77, 127
1, 104031, Note_off_c, 5, 77, 127
1, 104031, Note_off_c, 1, 61, 127
1, 104033, Note_on_c, 11, 70, 127
1, 104033, Note_on_c, 7, 79, 127
1, 104365, Note_off_c, 11, 70, 127
1, 104367, Note_on_c, 11, 70, 127
1, 104449, Note_off_c, 11, 70, 127
1, 104451, Note_on_c, 10, 69, 127
1, 104533, Note_off_c, 10, 69, 127
1, 104533, Note_off_c, 7, 79, 127
1, 104535, Note_on_c, 11, 70, 127
1, 104535, Note_on_c, 5, 77, 127
1, 104617, Note_off_c, 11, 70, 127
1, 104619, Note_on_c, 10, 69, 127
1, 104701, Note_off_c, 10, 69, 127
1, 104701, Note_off_c, 5, 77, 127
1, 104703, Note_on_c, 7, 67, 127
1, 104703, Note_on_c, 4, 76, 127
1, 104868, Note_off_c, 4, 76, 127
1, 104870, Note_on_c, 2, 74, 127
1, 105035, Note_off_c, 2, 74, 127
1, 105035, Note_off_c, 7, 67, 127
1, 105037, Note_on_c, 11, 58, 127
1, 105037, Note_on_c, 1, 73, 127
1, 105202, Note_off_c, 1, 73, 127
1, 105204, Note_on_c, 2, 74, 127
1, 105369, Note_off_c, 2, 74, 127
1, 105369, Note_off_c, 11, 58, 127
1, 105371, Note_on_c, 7, 67, 127
1, 105371, Note_on_c, 4, 76, 127
1, 105703, Note_off_c, 7, 67, 127
1, 105705, Note_on_c, 7, 67, 127
1, 105787, Note_off_c, 7, 67, 127
1, 105789, Note_on_c, 5, 65, 127
1, 105871, Note_off_c, 5, 65, 127
1, 105871, Note_off_c, 4, 76, 127
1, 105873, Note_on_c, 7, 67, 127
1, 105873, Note_on_c, 2, 74, 127
1, 105955, Note_off_c, 7, 67, 127
1, 105957, Note_on_c, 5, 65, 127
1, 106039, Note_off_c, 5, 65, 127
1, 106039, Note_off_c, 2, 74, 127
1, 106041, Note_on_c, 4, 64, 127
1, 106041, Note_on_c, 1, 73, 127
1, 106206, Note_off_c, 1, 73, 127
1, 106208, Note_on_c, 12, 71, 127
1, 106373, Note_off_c, 12, 71, 127
1, 106373, Note_off_c, 4, 64, 127
1, 106375, Note_on_c, 7, 55, 127
1, 106375, Note_on_c, 1, 73, 127
1, 106540, Note_off_c, 1, 73, 127
1, 106542, Note_on_c, 10, 69, 127
1, 106707, Note_off_c, 10, 69, 127
1, 106707, Note_off_c, 7, 55, 127
1, 106709, Note_on_c, 4, 64, 127
1, 106709, Note_on_c, 1, 73, 127
1, 106874, Note_off_c, 1, 73, 127
1, 106876, Note_on_c, 2, 74, 127
1, 107041, Note_off_c, 2, 74, 127
1, 107041, Note_off_c, 4, 64, 127
1, 107043, Note_on_c, 4, 64, 127
1, 107043, Note_on_c, 4, 76, 127
1, 107125, Note_off_c, 4, 64, 127
1, 107127, Note_on_c, 2, 62, 127
1, 107209, Note_off_c, 2, 62, 127
1, 107209, Note_off_c, 4, 76, 127
1, 107211, Note_on_c, 4, 64, 127
1, 107211, Note_on_c, 5, 77, 127
1, 107293, Note_off_c, 4, 64, 127
1, 107295, Note_on_c, 2, 62, 127
1, 107377, Note_off_c, 2, 62, 127
1, 107377, Note_off_c, 5, 77, 127
1, 107379, Note_on_c, 1, 61, 127
1, 107379, Note_on_c, 7, 79, 127
1, 107544, Note_off_c, 7, 79, 127
1, 107546, Note_on_c, 4, 76, 127
1, 107711, Note_off_c, 4, 76, 127
1, 107711, Note_off_c, 1, 61, 127
1, 107713, Note_on_c, 2, 62, 127
1, 107713, Note_on_c, 5, 77, 127
1, 107878, Note_off_c, 5, 77, 127
1, 107878, Note_off_c, 2, 62, 127
1, 107880, Note_on_c, 10, 57, 127
1, 107880, Note_on_c, 4, 76, 127
1, 108045, Note_off_c, 4, 76, 127
1, 108045, Note_off_c, 10, 57, 127
1, 108047, Note_on_c, 2, 62, 127
1, 108047, Note_on_c, 2, 74, 127
1, 108212, Note_off_c, 2, 74, 127
1, 108212, Note_off_c, 2, 62, 127
1, 108214, Note_on_c, 4, 64, 127
1, 108214, Note_on_c, 1, 73, 127
1, 108379, Note_off_c, 1, 73, 127
1, 108379, Note_off_c, 4, 64, 127
1, 108381, Note_on_c, 5, 65, 127
1, 108381, Note_on_c, 2, 74, 127
1, 108546, Note_off_c, 5, 65, 127
1, 108548, Note_on_c, 7, 67, 127
1, 108699, Note_off_c, 2, 74, 127
1, 108713, Note_off_c, 7, 67, 127
1, 108715, Note_on_c, 8, 68, 127
1, 108715, Note_on_c, 0, 72, 127
1, 108880, Note_off_c, 8, 68, 127
1, 108882, Note_on_c, 5, 65, 127
1, 109033, Note_off_c, 0, 72, 127
1, 109047, Note_off_c, 5, 65, 127
1, 109049, Note_on_c, 2, 62, 127
1, 109049, Note_on_c, 12, 71, 127
1, 109214, Note_off_c, 2, 62, 127
1, 109216, Note_on_c, 4, 64, 127
1, 109381, Note_off_c, 4, 64, 127
1, 109381, Note_off_c, 12, 71, 127
1, 109383, Note_on_c, 5, 65, 127
1, 109383, Note_on_c, 8, 80, 127
1, 109715, Note_off_c, 8, 80, 127
1, 109717, Note_on_c, 8, 80, 127
1, 109799, Note_off_c, 8, 80, 127
1, 109801, Note_on_c, 7, 79, 127
1, 109883, Note_off_c, 7, 79, 127
1, 109883, Note_off_c, 5, 65, 127
1, 109885, Note_on_c, 4, 64, 127
1, 109885, Note_on_c, 8, 80, 127
1, 109967, Note_off_c, 8, 80, 127
1, 109969, Note_on_c, 7, 79, 127
1, 110051, Note_off_c, 7, 79, 127
1, 110051, Note_off_c, 4, 64, 127
1, 110053, Note_on_c, 2, 62, 127
1, 110053, Note_on_c, 5, 77, 127
1, 110218, Note_off_c, 2, 62, 127
1, 110220, Note_on_c, 0, 60, 127
1, 110385, Note_off_c, 0, 60, 127
1, 110385, Note_off_c, 5, 77, 127
1, 110387, Note_on_c, 12, 59, 127
1, 110387, Note_on_c, 8, 68, 127
1, 110552, Note_off_c, 12, 59, 127
1, 110554, Note_on_c, 0, 60, 127
1, 110719, Note_off_c, 0, 60, 127
1, 110719, Note_off_c, 8, 68, 127
1, 110721, Note_on_c, 2, 62, 127
1, 110721, Note_on_c, 5, 77, 127
1, 111053, Note_off_c, 5, 77, 127
1, 111055, Note_on_c, 5, 77, 127
1, 111137, Note_off_c, 5, 77, 127
1, 111139, Note_on_c, 4, 76, 127
1, 111221, Note_off_c, 4, 76, 127
1, 111221, Note_off_c, 2, 62, 127
1, 111223, Note_on_c, 0, 60, 127
1, 111223, Note_on_c, 5, 77, 127
1, 111305, Note_off_c, 5, 77, 127
1, 111307, Note_on_c, 4, 76, 127
1, 111389, Note_off_c, 4, 76, 127
1, 111389, Note_off_c, 0, 60, 127
1, 111391, Note_on_c, 12, 59, 127
1, 111391, Note_on_c, 2, 74, 127
1, 111556, Note_off_c, 12, 59, 127
1, 111558, Note_on_c, 10, 57, 127
1, 111723, Note_off_c, 10, 57, 127
1, 111723, Note_off_c, 2, 74, 127
1, 111725, Note_on_c, 12, 59, 127
1, 111725, Note_on_c, 5, 65, 127
1, 111890, Note_off_c, 12, 59, 127
1, 111892, Note_on_c, 7, 55, 127
1, 112057, Note_off_c, 7, 55, 127
1, 112057, Note_off_c, 5, 65, 127
1, 112059, Note_on_c, 12, 59, 127
1, 112059, Note_on_c, 2, 74, 127
1, 112224, Note_off_c, 12, 59, 127
1, 112226, Note_on_c, 0, 60, 127
1, 112391, Note_off_c, 0, 60, 127
1, 112391, Note_off_c, 2, 74, 127
1, 112393, Note_on_c, 2, 62, 127
1, 112393, Note_on_c, 2, 74, 127
1, 112475, Note_off_c, 2, 74, 127
1, 112477, Note_on_c, 0, 72, 127
1, 112559, Note_off_c, 0, 72, 127
1, 112559, Note_off_c, 2, 62, 127
1, 112561, Note_on_c, 4, 64, 127
1, 112561, Note_on_c, 2, 74, 127
1, 112643, Note_off_c, 2, 74, 127
1, 112645, Note_on_c, 0, 72, 127
1, 112727, Note_off_c, 0, 72, 127
1, 112727, Note_off_c, 4, 64, 127
1, 112729, Note_on_c, 5, 65, 127
1, 112729, Note_on_c, 12, 71, 127
1, 112894, Note_off_c, 5, 65, 127
1, 112896, Note_on_c, 2, 62, 127
1, 113061, Note_off_c, 2, 62, 127
1, 113061, Note_off_c, 12, 71, 127
1, 113063, Note_on_c, 4, 64, 127
1, 113063, Note_on_c, 0, 72, 127
1, 113228, Note_off_c, 0, 72, 127
1, 113230, Note_on_c, 7, 67, 127
1, 113395, Note_off_c, 7, 67, 127
1, 113395, Note_off_c, 4, 64, 127
1, 113397, Note_on_c, 4, 52, 127
1, 113397, Note_on_c, 0, 72, 127
1, 113562, Note_off_c, 0, 72, 127
1, 113564, Note_on_c, 2, 74, 127
1, 113729, Note_off_c, 2, 74, 127
1, 113729, Note_off_c, 4, 52, 127
1, 113731, Note_on_c, 10, 57, 127
1, 113731, Note_on_c, 0, 72, 127
1, 113896, Note_off_c, 0, 72, 127
1, 113898, Note_on_c, 6, 66, 127
1, 114063, Note_off_c, 6, 66, 127
1, 114065, Note_on_c, 10, 69, 127
1, 114230, Note_off_c, 10, 69, 127
1, 114232, Note_on_c, 0, 72, 127
1, 114397, Note_off_c, 0, 72, 127
1, 114399, Note_on_c, 12, 71, 127
1, 114564, Note_off_c, 12, 71, 127
1, 114566, Note_on_c, 3, 63, 127
1, 114723, Note_off_c, 10, 57, 127
1, 114732, Note_off_c, 3, 63, 127
1, 114734, Note_on_c, 7, 55, 127
1, 114734, Note_on_c, 12, 71, 127
1, 114899, Note_off_c, 12, 71, 127
1, 114899, Note_off_c, 7, 55, 127
1, 114901, Note_on_c, 6, 54, 127
1, 114901, Note_on_c, 0, 72, 127
1, 115066, Note_off_c, 0, 72, 127
1, 115066, Note_off_c, 6, 54, 127
1, 115068, Note_on_c, 7, 55, 127
1, 115068, Note_on_c, 12, 71, 127
1, 115233, Note_off_c, 12, 71, 127
1, 115235, Note_on_c, 4, 64, 127
1, 115400, Note_off_c, 4, 64, 127
1, 115402, Note_on_c, 12, 71, 127
1, 115567, Note_off_c, 12, 71, 127
1, 115569, Note_on_c, 2, 74, 127
1, 115734, Note_off_c, 2, 74, 127
1, 115736, Note_on_c, 1, 73, 127
1, 115901, Note_off_c, 1, 73, 127
1, 115903, Note_on_c, 10, 69, 127
1, 116060, Note_off_c, 7, 55, 127
1, 116069, Note_off_c, 10, 69, 127
1, 116071, Note_on_c, 10, 57, 127
1, 116071, Note_on_c, 1, 73, 127
1, 116236, Note_off_c, 1, 73, 127
1, 116236, Note_off_c, 10, 57, 127
1, 116238, Note_on_c, 12, 59, 127
1, 116238, Note_on_c, 3, 75, 127
1, 116403, Note_off_c, 3, 75, 127
1, 116403, Note_off_c, 12, 59, 127
1, 116405, Note_on_c, 0, 60, 127
1, 116405, Note_on_c, 4, 76, 127
1, 116570, Note_off_c, 4, 76, 127
1, 116572, Note_on_c, 7, 67, 127
1, 116737, Note_off_c, 7, 67, 127
1, 116739, Note_on_c, 0, 72, 127
1, 116904, Note_off_c, 0, 72, 127
1, 116906, Note_on_c, 4, 76, 127
1, 117071, Note_off_c, 4, 76, 127
1, 117073, Note_on_c, 2, 74, 127
1, 117238, Note_off_c, 2, 74, 127
1, 117240, Note_on_c, 6, 66, 127
1, 117397, Note_off_c, 0, 60, 127
1, 117406, Note_off_c, 6, 66, 127
1, 117408, Note_on_c, 11, 58, 127
1, 117408, Note_on_c, 2, 74, 127
1, 117573, Note_off_c, 2, 74, 127
1, 117573, Note_off_c, 11, 58, 127
1, 117575, Note_on_c, 10, 57, 127
1, 117575, Note_on_c, 3, 75, 127
1, 117740, Note_off_c, 3, 75, 127
1, 117740, Note_off_c, 10, 57, 127
1, 117742, Note_on_c, 11, 58, 127
1, 117742, Note_on_c, 2, 74, 127
1, 117907, Note_off_c, 2, 74, 127
1, 117909, Note_on_c, 7, 67, 127
1, 118074, Note_off_c, 7, 67, 127
1, 118076, Note_on_c, 2, 74, 127
1, 118241, Note_off_c, 2, 74, 127
1, 118243, Note_on_c, 5, 77, 127
1, 118408, Note_off_c, 5, 77, 127
1, 118410, Note_on_c, 4, 76, 127
1, 118575, Note_off_c, 4, 76, 127
1, 118577, Note_on_c, 0, 72, 127
1, 118734, Note_off_c, 11, 58, 127
1, 118743, Note_off_c, 0, 72, 127
1, 118745, Note_on_c, 0, 60, 127
1, 118745, Note_on_c, 4, 76, 127
1, 118910, Note_off_c, 4, 76, 127
1, 118910, Note_off_c, 0, 60, 127
1, 118912, Note_on_c, 2, 62, 127
1, 118912, Note_on_c, 6, 78, 127
1, 119077, Note_off_c, 6, 78, 127
1, 119077, Note_off_c, 2, 62, 127
1, 119079, Note_on_c, 3, 63, 127
1, 119079, Note_on_c, 7, 79, 127
1, 119244, Note_off_c, 7, 79, 127
1, 119246, Note_on_c, 11, 70, 127
1, 119411, Note_off_c, 11, 70, 127
1, 119413, Note_on_c, 3, 75, 127
1, 119578, Note_off_c, 3, 75, 127
1, 119580, Note_on_c, 7, 79, 127
1, 119745, Note_off_c, 7, 79, 127
1, 119747, Note_on_c, 5, 77, 127
1, 119912, Note_off_c, 5, 77, 127
1, 119914, Note_on_c, 10, 69, 127
1, 120071, Note_off_c, 3, 63, 127
1, 120080, Note_off_c, 10, 69, 127
1, 120082, Note_on_c, 2, 62, 127
1, 120082, Note_on_c, 5, 77, 127
1, 120247, Note_off_c, 5, 77, 127
1, 120247, Note_off_c, 2, 62, 127
1, 120249, Note_on_c, 1, 61, 127
1, 120249, Note_on_c, 7, 79, 127
1, 120414, Note_off_c, 7, 79, 127
1, 120414, Note_off_c, 1, 61, 127
1, 120416, Note_on_c, 2, 62, 127
1, 120416, Note_on_c, 5, 77, 127
1, 120581, Note_off_c, 5, 77, 127
1, 120583, Note_on_c, 11, 70, 127
1, 120748, Note_off_c, 11, 70, 127
1, 120750, Note_on_c, 2, 74, 127
1, 120915, Note_off_c, 2, 74, 127
1, 120917, Note_on_c, 5, 77, 127
1, 121082, Note_off_c, 5, 77, 127
1, 121084, Note_on_c, 4, 76, 127
1, 121249, Note_off_c, 4, 76, 127
1, 121251, Note_on_c, 8, 68, 127
1, 121416, Note_off_c, 8, 68, 127
1, 121418, Note_on_c, 4, 76, 127
1, 121583, Note_off_c, 4, 76, 127
1, 121585, Note_on_c, 5, 77, 127
1, 121750, Note_off_c, 5, 77, 127
1, 121750, Note_off_c, 2, 62, 127
1, 121752, Note_on_c, 4, 76, 127
1, 121813, Note_on_c, 1, 61, 127
1, 121917, Note_off_c, 4, 76, 127
1, 121919, Note_on_c, 2, 62, 127
1, 121919, Note_on_c, 10, 69, 127
1, 121921, Note_off_c, 1, 61, 127
1, 122001, Note_off_c, 2, 62, 127
1, 122003, Note_on_c, 1, 61, 127
1, 122085, Note_off_c, 1, 61, 127
1, 122085, Note_off_c, 10, 69, 127
1, 122087, Note_on_c, 2, 62, 127
1, 122087, Note_on_c, 4, 76, 127
1, 122169, Note_off_c, 2, 62, 127
1, 122171, Note_on_c, 1, 61, 127
1, 122253, Note_off_c, 1, 61, 127
1, 122253, Note_off_c, 4, 76, 127
1, 122255, Note_on_c, 12, 59, 127
1, 122255, Note_on_c, 7, 79, 127
1, 122337, Note_off_c, 12, 59, 127
1, 122339, Note_on_c, 1, 61, 127
1, 122421, Note_off_c, 1, 61, 127
1, 122421, Note_off_c, 7, 79, 127
1, 122423, Note_on_c, 2, 62, 127
1, 122423, Note_on_c, 5, 77, 127
1, 122588, Note_off_c, 5, 77, 127
1, 122590, Note_on_c, 7, 79, 127
1, 122755, Note_off_c, 7, 79, 127
1, 122755, Note_off_c, 2, 62, 127
1, 122757, Note_on_c, 4, 64, 127
1, 122757, Note_on_c, 5, 77, 127
1, 122922, Note_off_c, 5, 77, 127
1, 122924, Note_on_c, 4, 76, 127
1, 123089, Note_off_c, 4, 76, 127
1, 123089, Note_off_c, 4, 64, 127
1, 123091, Note_on_c, 5, 65, 127
1, 123091, Note_on_c, 2, 74, 127
1, 123256, Note_off_c, 2, 74, 127
1, 123258, Note_on_c, 0, 72, 127
1, 123423, Note_off_c, 0, 72, 127
1, 123423, Note_off_c, 5, 65, 127
1, 123425, Note_on_c, 2, 62, 127
1, 123425, Note_on_c, 12, 71, 127
1, 123590, Note_off_c, 12, 71, 127
1, 123592, Note_on_c, 10, 69, 127
1, 123757, Note_off_c, 10, 69, 127
1, 123757, Note_off_c, 2, 62, 127
1, 123759, Note_on_c, 4, 64, 127
1, 123759, Note_on_c, 8, 68, 127
1, 123916, Note_off_c, 4, 64, 127
1, 123926, Note_on_c, 4, 64, 127
1, 123968, Note_off_c, 8, 68, 127
1, 124083, Note_off_c, 4, 64, 127
1, 124093, Note_on_c, 2, 62, 127
1, 124093, Note_on_c, 6, 66, 127
1, 124258, Note_off_c, 6, 66, 127
1, 124260, Note_on_c, 8, 68, 127
1, 124425, Note_off_c, 8, 68, 127
1, 124425, Note_off_c, 2, 62, 127
1, 124427, Note_on_c, 0, 60, 127
1, 124427, Note_on_c, 10, 69, 127
1, 124592, Note_off_c, 10, 69, 127
1, 124594, Note_on_c, 8, 68, 127
1, 124759, Note_off_c, 8, 68, 127
1, 124759, Note_off_c, 0, 60, 127
1, 124761, Note_on_c, 12, 59, 127
1, 124761, Note_on_c, 10, 69, 127
1, 124926, Note_off_c, 10, 69, 127
1, 124928, Note_on_c, 12, 71, 127
1, 125093, Note_off_c, 12, 71, 127
1, 125093, Note_off_c, 12, 59, 127
1, 125095, Note_on_c, 10, 57, 127
1, 125095, Note_on_c, 0, 72, 127
1, 125260, Note_off_c, 10, 57, 127
1, 125262, Note_on_c, 4, 52, 127
1, 125427, Note_off_c, 4, 52, 127
1, 125429, Note_on_c, 10, 57, 127
1, 125739, Note_off_c, 0, 72, 127
1, 125763, Note_on_c, 4, 64, 127
1, 126095, Note_off_c, 10, 57, 127
1, 126097, Note_on_c, 10, 57, 127
1, 126179, Note_off_c, 10, 57, 127
1, 126181, Note_on_c, 8, 56, 127
1, 126263, Note_off_c, 8, 56, 127
1, 126265, Note_on_c, 6, 54, 127
1, 126347, Note_off_c, 6, 54, 127
1, 126349, Note_on_c, 8, 56, 127
1, 126408, Note_off_c, 4, 64, 127
1, 126431, Note_off_c, 8, 56, 127
1, 126433, Note_on_c, 10, 57, 127
1, 126433, Note_on_c, 5, 65, 127
1, 126598, Note_off_c, 5, 65, 127
1, 126600, Note_on_c, 4, 64, 127
1, 126765, Note_off_c, 4, 64, 127
1, 126767, Note_on_c, 2, 62, 127
1, 126920, Note_off_c, 10, 57, 127
1, 126932, Note_off_c, 2, 62, 127
1, 126934, Note_on_c, 1, 61, 127
1, 127099, Note_off_c, 1, 61, 127
1, 127101, Note_on_c, 12, 59, 127
1, 127101, Note_on_c, 2, 62, 127
1, 127266, Note_off_c, 2, 62, 127
1, 127268, Note_on_c, 4, 64, 127
1, 127433, Note_off_c, 4, 64, 127
1, 127435, Note_on_c, 6, 66, 127
1, 127600, Note_off_c, 6, 66, 127
1, 127602, Note_on_c, 8, 68, 127
1, 127767, Note_off_c, 8, 68, 127
1, 127767, Note_off_c, 12, 59, 127
1, 127769, Note_on_c, 0, 60, 127
1, 127769, Note_on_c, 10, 69, 127
1, 127934, Note_off_c, 10, 69, 127
1, 127936, Note_on_c, 4, 64, 127
1, 128101, Note_off_c, 4, 64, 127
1, 128103, Note_on_c, 10, 69, 127
1, 128435, Note_off_c, 0, 60, 127
1, 128437, Note_on_c, 4, 52, 127
1, 128769, Note_off_c, 10, 69, 127
1, 128771, Note_on_c, 8, 68, 127
1, 129103, Note_off_c, 8, 68, 127
1, 129103, Note_off_c, 4, 52, 127
1, 129105, Note_on_c, 5, 53, 127
1, 129105, Note_on_c, 10, 69, 127
1, 129270, Note_off_c, 5, 53, 127
1, 129272, Note_on_c, 4, 52, 127
1, 129437, Note_off_c, 4, 52, 127
1, 129437, Note_off_c, 10, 69, 127
1, 129439, Note_on_c, 2, 50, 127
1, 129439, Note_on_c, 12, 71, 127
1, 129771, Note_off_c, 12, 71, 127
1, 129773, Note_on_c, 0, 72, 127
1, 130083, Note_off_c, 2, 50, 127
1, 130106, Note_off_c, 0, 72, 127
1, 130108, Note_on_c, 4, 52, 127
1, 130108, Note_on_c, 12, 71, 127
1, 130273, Note_off_c, 12, 71, 127
1, 130273, Note_off_c, 4, 52, 127
1, 130275, Note_on_c, 6, 54, 127
1, 130275, Note_on_c, 10, 69, 127
1, 130440, Note_off_c, 10, 69, 127
1, 130440, Note_off_c, 6, 54, 127
1, 130442, Note_on_c, 7, 55, 127
1, 130442, Note_on_c, 12, 71, 127
1, 130607, Note_off_c, 7, 55, 127
1, 130609, Note_on_c, 10, 57, 127
1, 130774, Note_off_c, 10, 57, 127
1, 130774, Note_off_c, 12, 71, 127
1, 130776, Note_on_c, 11, 58, 127
1, 130776, Note_on_c, 1, 73, 127
1, 131108, Note_off_c, 1, 73, 127
1, 131110, Note_on_c, 2, 74, 127
1, 131420, Note_off_c, 11, 58, 127
1, 131444, Note_on_c, 10, 57, 127
1, 131609, Note_off_c, 10, 57, 127
1, 131611, Note_on_c, 8, 56, 127
1, 131776, Note_off_c, 8, 56, 127
1, 131778, Note_on_c, 10, 57, 127
1, 131943, Note_off_c, 10, 57, 127
1, 131945, Note_on_c, 4, 52, 127
1, 132110, Note_off_c, 4, 52, 127
1, 132110, Note_off_c, 2, 74, 127
1, 132112, Note_on_c, 10, 57, 127
1, 132112, Note_on_c, 0, 72, 127
1, 132277, Note_off_c, 0, 72, 127
1, 132277, Note_off_c, 10, 57, 127
1, 132279, Note_on_c, 12, 59, 127
1, 132279, Note_on_c, 12, 71, 127
1, 132444, Note_off_c, 12, 71, 127
1, 132444, Note_off_c, 12, 59, 127
1, 132446, Note_on_c, 10, 57, 127
1, 132446, Note_on_c, 0, 72, 127
1, 132611, Note_off_c, 10, 57, 127
1, 132613, Note_on_c, 4, 52, 127
1, 132778, Note_off_c, 4, 52, 127
1, 132778, Note_off_c, 0, 72, 127
1, 132780, Note_on_c, 10, 57, 127
1, 132780, Note_on_c, 10, 69, 127
1, 132945, Note_off_c, 10, 57, 127
1, 132947, Note_on_c, 0, 60, 127
1, 133112, Note_off_c, 0, 60, 127
1, 133114, Note_on_c, 12, 59, 127
1, 133279, Note_off_c, 12, 59, 127
1, 133281, Note_on_c, 4, 52, 127
1, 133446, Note_off_c, 4, 52, 127
1, 133446, Note_off_c, 10, 69, 127
1, 133448, Note_on_c, 12, 59, 127
1, 133448, Note_on_c, 8, 68, 127
1, 133613, Note_off_c, 8, 68, 127
1, 133613, Note_off_c, 12, 59, 127
1, 133615, Note_on_c, 0, 60, 127
1, 133615, Note_on_c, 6, 66, 127
1, 133780, Note_off_c, 6, 66, 127
1, 133780, Note_off_c, 0, 60, 127
1, 133782, Note_on_c, 12, 59, 127
1, 133782, Note_on_c, 10, 69, 127
1, 133864, Note_off_c, 10, 69, 127
1, 133866, Note_on_c, 8, 68, 127
1, 133948, Note_off_c, 8, 68, 127
1, 133948, Note_off_c, 12, 59, 127
1, 133950, Note_on_c, 4, 52, 127
1, 133950, Note_on_c, 10, 69, 127
1, 134032, Note_off_c, 10, 69, 127
1, 134034, Note_on_c, 8, 68, 127
1, 134116, Note_off_c, 8, 68, 127
1, 134116, Note_off_c, 4, 52, 127
1, 134118, Note_on_c, 12, 59, 127
1, 134118, Note_on_c, 10, 69, 127
1, 134200, Note_off_c, 10, 69, 127
1, 134202, Note_on_c, 8, 68, 127
1, 134284, Note_off_c, 8, 68, 127
1, 134284, Note_off_c, 12, 59, 127
1, 134286, Note_on_c, 2, 62, 127
1, 134286, Note_on_c, 6, 66, 127
1, 134368, Note_off_c, 6, 66, 127
1, 134370, Note_on_c, 8, 68, 127
1, 134452, Note_off_c, 8, 68, 127
1, 134452, Note_off_c, 2, 62, 127
1, 134454, Note_on_c, 0, 60, 127
1, 134454, Note_on_c, 10, 69, 127
1, 134619, Note_off_c, 0, 60, 127
1, 134621, Note_on_c, 4, 52, 127
1, 134786, Note_off_c, 4, 52, 127
1, 134786, Note_off_c, 10, 69, 127
1, 134788, Note_on_c, 0, 60, 127
1, 134788, Note_on_c, 4, 76, 127
1, 134953, Note_off_c, 0, 60, 127
1, 134955, Note_on_c, 2, 62, 127
1, 135120, Note_off_c, 2, 62, 127
1, 135120, Note_off_c, 4, 76, 127
1, 135122, Note_on_c, 0, 60, 127
1, 135122, Note_on_c, 10, 81, 127
1, 135287, Note_off_c, 0, 60, 127
1, 135289, Note_on_c, 4, 52, 127
1, 135454, Note_off_c, 4, 52, 127
1, 135456, Note_on_c, 0, 60, 127
1, 135621, Note_off_c, 0, 60, 127
1, 135623, Note_on_c, 4, 64, 127
1, 135788, Note_off_c, 4, 64, 127
1, 135790, Note_on_c, 12, 59, 127
1, 135955, Note_off_c, 12, 59, 127
1, 135957, Note_on_c, 4, 52, 127
1, 136122, Note_off_c, 4, 52, 127
1, 136124, Note_on_c, 12, 59, 127
1, 136289, Note_off_c, 12, 59, 127
1, 136291, Note_on_c, 0, 60, 127
1, 136456, Note_off_c, 0, 60, 127
1, 136456, Note_off_c, 10, 81, 127
1, 136458, Note_on_c, 12, 59, 127
1, 136458, Note_on_c, 10, 81, 127
1, 136540, Note_off_c, 10, 81, 127
1, 136542, Note_on_c, 8, 80, 127
1, 136624, Note_off_c, 8, 80, 127
1, 136624, Note_off_c, 12, 59, 127
1, 136626, Note_on_c, 4, 52, 127
1, 136626, Note_on_c, 10, 81, 127
1, 136708, Note_off_c, 10, 81, 127
1, 136710, Note_on_c, 8, 80, 127
1, 136792, Note_off_c, 8, 80, 127
1, 136792, Note_off_c, 4, 52, 127
1, 136794, Note_on_c, 12, 59, 127
1, 136794, Note_on_c, 10, 81, 127
1, 136876, Note_off_c, 10, 81, 127
1, 136878, Note_on_c, 8, 80, 127
1, 136960, Note_off_c, 8, 80, 127
1, 136960, Note_off_c, 12, 59, 127
1, 136962, Note_on_c, 2, 62, 127
1, 136962, Note_on_c, 6, 78, 127
1, 137044, Note_off_c, 6, 78, 127
1, 137046, Note_on_c, 8, 80, 127
1, 137128, Note_off_c, 8, 80, 127
1, 137128, Note_off_c, 2, 62, 127
1, 137130, Note_on_c, 0, 60, 127
1, 137130, Note_on_c, 10, 81, 127
1, 137288, Note_off_c, 10, 81, 127
1, 137295, Note_off_c, 0, 60, 127
1, 137297, Note_on_c, 10, 57, 127
1, 137297, Note_on_c, 7, 79, 127
1, 137455, Note_off_c, 7, 79, 127
1, 137462, Note_off_c, 10, 57, 127
1, 137464, Note_on_c, 12, 59, 127
1, 137464, Note_on_c, 5, 77, 127
1, 137629, Note_off_c, 12, 59, 127
1, 137631, Note_on_c, 1, 61, 127
1, 137796, Note_off_c, 1, 61, 127
1, 137798, Note_on_c, 2, 62, 127
1, 137963, Note_off_c, 2, 62, 127
1, 137963, Note_off_c, 5, 77, 127
1, 137965, Note_on_c, 4, 64, 127
1, 137965, Note_on_c, 4, 76, 127
1, 138130, Note_off_c, 4, 76, 127
1, 138130, Note_off_c, 4, 64, 127
1, 138132, Note_on_c, 5, 65, 127
1, 138132, Note_on_c, 2, 74, 127
1, 138297, Note_off_c, 2, 74, 127
1, 138297, Note_off_c, 5, 65, 127
1, 138299, Note_on_c, 7, 67, 127
1, 138299, Note_on_c, 1, 73, 127
1, 138464, Note_off_c, 1, 73, 127
1, 138464, Note_off_c, 7, 67, 127
1, 138466, Note_on_c, 5, 65, 127
1, 138466, Note_on_c, 2, 74, 127
1, 138631, Note_off_c, 2, 74, 127
1, 138631, Note_off_c, 5, 65, 127
1, 138633, Note_on_c, 4, 64, 127
1, 138633, Note_on_c, 0, 72, 127
1, 138798, Note_off_c, 0, 72, 127
1, 138798, Note_off_c, 4, 64, 127
1, 138800, Note_on_c, 2, 62, 127
1, 138800, Note_on_c, 11, 70, 127
1, 138965, Note_off_c, 2, 62, 127
1, 138967, Note_on_c, 1, 61, 127
1, 139132, Note_off_c, 1, 61, 127
1, 139134, Note_on_c, 2, 62, 127
1, 139299, Note_off_c, 11, 70, 127
1, 139301, Note_on_c, 10, 69, 127
1, 139466, Note_off_c, 10, 69, 127
1, 139466, Note_off_c, 2, 62, 127
1, 139468, Note_on_c, 2, 50, 127
1, 139468, Note_on_c, 8, 68, 127
1, 139633, Note_off_c, 8, 68, 127
1, 139635, Note_on_c, 6, 66, 127
1, 139800, Note_off_c, 6, 66, 127
1, 139802, Note_on_c, 8, 68, 127
1, 140134, Note_off_c, 8, 68, 127
1, 140134, Note_off_c, 2, 50, 127
1, 140136, Note_on_c, 0, 48, 127
1, 140136, Note_on_c, 4, 64, 127
1, 140301, Note_off_c, 0, 48, 127
1, 140303, Note_on_c, 12, 47, 127
1, 140468, Note_off_c, 12, 47, 127
1, 140468, Note_off_c, 4, 64, 127
1, 140470, Note_on_c, 0, 48, 127
1, 140470, Note_on_c, 4, 76, 127
1, 140802, Note_off_c, 4, 76, 127
1, 140802, Note_off_c, 0, 48, 127
1, 140804, Note_on_c, 2, 50, 127
1, 140804, Note_on_c, 5, 77, 127
1, 141136, Note_off_c, 5, 77, 127
1, 141136, Note_off_c, 2, 50, 127
1, 141138, Note_on_c, 4, 52, 127
1, 141138, Note_on_c, 2, 74, 127
1, 141485, Note_off_c, 2, 74, 127
1, 141485, Note_off_c, 4, 52, 127
1, 141487, Note_on_c, 2, 50, 127
1, 141487, Note_on_c, 0, 72, 127
1, 141851, Note_off_c, 0, 72, 127
1, 141851, Note_off_c, 2, 50, 127
1, 141853, Note_on_c, 4, 52, 127
1, 141853, Note_on_c, 0, 72, 127
1, 141977, Note_off_c, 0, 72, 127
1, 141977, Note_on_c, 12, 71, 127
1, 142068, Note_on_c, 0, 72, 127
1, 142074, Note_off_c, 12, 71, 127
1, 142159, Note_on_c, 12, 71, 127
1, 142165, Note_off_c, 0, 72, 127
1, 142248, Note_off_c, 4, 52, 127
1, 142250, Note_on_c, 4, 40, 127
1, 142250, Note_on_c, 0, 72, 127
1, 142258, Note_off_c, 12, 71, 127
1, 142368, Note_off_c, 0, 72, 127
1, 142370, Note_on_c, 12, 71, 127
1, 142488, Note_off_c, 12, 71, 127
1, 142490, Note_on_c, 10, 69, 127
1, 142608, Note_off_c, 10, 69, 127
1, 142610, Note_on_c, 12, 71, 127
1, 142728, Note_off_c, 12, 71, 127
1, 142728, Note_off_c, 4, 40, 127
1, 142746, Note_on_c, 10, 69, 127
1, 142746, Note_on_c, 10, 45, 127
1, 145146, Note_off_c, 10, 45, 127
1, 145146, Note_off_c, 10, 69, 127
1, 150528, End_track
0, 0, End_of_file
