0, 0, Header, 1, 4, 240
1, 0, Start_track
1, 0, Time_signature, 6, 3, 36, 8
1, 0, Tempo, 500000
1, 111240, Tempo, 571429
1, 111600, Tempo, 500000
1, 111600, End_track
2, 0, Start_track
2, 0, Title_t, "English Suite 5, 1. Prelude"
2, 0, Program_c, 0, 0
2, 120, Note_on_c, 0, 71, 107
2, 264, Note_off_c, 0, 71, 64
2, 300, Note_on_c, 0, 71, 107
2, 348, Note_off_c, 0, 71, 64
2, 360, Note_on_c, 0, 64, 107
2, 456, Note_off_c, 0, 64, 64
2, 480, Note_on_c, 0, 72, 107
2, 528, Note_off_c, 0, 72, 64
2, 540, Note_on_c, 0, 71, 107
2, 588, Note_off_c, 0, 71, 64
2, 600, Note_on_c, 0, 72, 107
2, 648, Note_off_c, 0, 72, 64
2, 660, Note_on_c, 0, 69, 107
2, 708, Note_off_c, 0, 69, 64
2, 720, Note_on_c, 0, 63, 107
2, 816, Note_off_c, 0, 63, 64
2, 840, Note_on_c, 0, 66, 107
2, 984, Note_off_c, 0, 66, 64
2, 1020, Note_on_c, 0, 66, 107
2, 1068, Note_off_c, 0, 66, 64
2, 1080, Note_on_c, 0, 59, 107
2, 1176, Note_off_c, 0, 59, 64
2, 1200, Note_on_c, 0, 71, 107
2, 1248, Note_off_c, 0, 71, 64
2, 1260, Note_on_c, 0, 69, 107
2, 1308, Note_off_c, 0, 69, 64
2, 1320, Note_on_c, 0, 71, 107
2, 1368, Note_off_c, 0, 71, 64
2, 1380, Note_on_c, 0, 66, 107
2, 1428, Note_off_c, 0, 66, 64
2, 1440, Note_on_c, 0, 67, 107
2, 1488, Note_off_c, 0, 67, 64
2, 1500, Note_on_c, 0, 66, 107
2, 1548, Note_off_c, 0, 66, 64
2, 1560, Note_on_c, 0, 76, 107
2, 1560, Note_on_c, 0, 67, 107
2, 1608, Note_off_c, 0, 67, 64
2, 1620, Note_on_c, 0, 69, 107
2, 1668, Note_off_c, 0, 69, 64
2, 1680, Note_on_c, 0, 67, 107
2, 1704, Note_off_c, 0, 76, 64
2, 1728, Note_off_c, 0, 67, 64
2, 1740, Note_on_c, 0, 66, 107
2, 1740, Note_on_c, 0, 76, 107
2, 1788, Note_off_c, 0, 76, 64
2, 1788, Note_off_c, 0, 66, 64
2, 1800, Note_on_c, 0, 71, 107
2, 1800, Note_on_c, 0, 64, 107
2, 1848, Note_off_c, 0, 64, 64
2, 1860, Note_on_c, 0, 62, 107
2, 1896, Note_off_c, 0, 71, 64
2, 1908, Note_off_c, 0, 62, 64
2, 1920, Note_on_c, 0, 79, 107
2, 1920, Note_on_c, 0, 64, 107
2, 1968, Note_off_c, 0, 64, 64
2, 1968, Note_off_c, 0, 79, 64
2, 1980, Note_on_c, 0, 66, 107
2, 1980, Note_on_c, 0, 78, 107
2, 2028, Note_off_c, 0, 78, 64
2, 2028, Note_off_c, 0, 66, 64
2, 2040, Note_on_c, 0, 64, 107
2, 2040, Note_on_c, 0, 79, 107
2, 2088, Note_off_c, 0, 79, 64
2, 2088, Note_off_c, 0, 64, 64
2, 2100, Note_on_c, 0, 62, 107
2, 2100, Note_on_c, 0, 76, 107
2, 2148, Note_off_c, 0, 76, 64
2, 2148, Note_off_c, 0, 62, 64
2, 2160, Note_on_c, 0, 70, 107
2, 2256, Note_off_c, 0, 70, 64
2, 2280, Note_on_c, 0, 73, 107
2, 2424, Note_off_c, 0, 73, 64
2, 2460, Note_on_c, 0, 73, 107
2, 2508, Note_off_c, 0, 73, 64
2, 2520, Note_on_c, 0, 66, 107
2, 2616, Note_off_c, 0, 66, 64
2, 2640, Note_on_c, 0, 78, 107
2, 2688, Note_off_c, 0, 78, 64
2, 2700, Note_on_c, 0, 76, 107
2, 2748, Note_off_c, 0, 76, 64
2, 2760, Note_on_c, 0, 78, 107
2, 2808, Note_off_c, 0, 78, 64
2, 2820, Note_on_c, 0, 73, 107
2, 2868, Note_off_c, 0, 73, 64
2, 2880, Note_on_c, 0, 74, 107
2, 2880, Note_on_c, 0, 59, 107
2, 2928, Note_off_c, 0, 74, 64
2, 2940, Note_on_c, 0, 73, 107
2, 2976, Note_off_c, 0, 59, 64
2, 2988, Note_off_c, 0, 73, 64
2, 3000, Note_on_c, 0, 71, 107
2, 3000, Note_on_c, 0, 74, 107
2, 3048, Note_off_c, 0, 74, 64
2, 3060, Note_on_c, 0, 76, 107
2, 3108, Note_off_c, 0, 76, 64
2, 3120, Note_on_c, 0, 74, 107
2, 3144, Note_off_c, 0, 71, 64
2, 3168, Note_off_c, 0, 74, 64
2, 3180, Note_on_c, 0, 69, 107
2, 3180, Note_on_c, 0, 72, 107
2, 3228, Note_off_c, 0, 72, 64
2, 3228, Note_off_c, 0, 69, 64
2, 3240, Note_on_c, 0, 71, 107
2, 3240, Note_on_c, 0, 67, 107
2, 3288, Note_off_c, 0, 67, 64
2, 3300, Note_on_c, 0, 66, 107
2, 3336, Note_off_c, 0, 71, 64
2, 3348, Note_off_c, 0, 66, 64
2, 3360, Note_on_c, 0, 67, 107
2, 3360, Note_on_c, 0, 76, 107
2, 3408, Note_off_c, 0, 67, 64
2, 3420, Note_on_c, 0, 69, 107
2, 3468, Note_off_c, 0, 69, 64
2, 3480, Note_on_c, 0, 67, 107
2, 3504, Note_off_c, 0, 76, 64
2, 3528, Note_off_c, 0, 67, 64
2, 3540, Note_on_c, 0, 66, 107
2, 3540, Note_on_c, 0, 74, 107
2, 3588, Note_off_c, 0, 74, 64
2, 3588, Note_off_c, 0, 66, 64
2, 3600, Note_on_c, 0, 72, 107
2, 3600, Note_on_c, 0, 64, 107
2, 3648, Note_off_c, 0, 72, 64
2, 3660, Note_on_c, 0, 71, 107
2, 3696, Note_off_c, 0, 64, 64
2, 3708, Note_off_c, 0, 71, 64
2, 3720, Note_on_c, 0, 72, 107
2, 3720, Note_on_c, 0, 69, 107
2, 3768, Note_off_c, 0, 72, 64
2, 3780, Note_on_c, 0, 74, 107
2, 3828, Note_off_c, 0, 74, 64
2, 3840, Note_on_c, 0, 72, 107
2, 3864, Note_off_c, 0, 69, 64
2, 3888, Note_off_c, 0, 72, 64
2, 3900, Note_on_c, 0, 71, 107
2, 3900, Note_on_c, 0, 67, 107
2, 3948, Note_off_c, 0, 67, 64
2, 3948, Note_off_c, 0, 71, 64
2, 3960, Note_on_c, 0, 66, 107
2, 3960, Note_on_c, 0, 69, 107
2, 4008, Note_off_c, 0, 66, 64
2, 4020, Note_on_c, 0, 64, 107
2, 4056, Note_off_c, 0, 69, 64
2, 4068, Note_off_c, 0, 64, 64
2, 4080, Note_on_c, 0, 66, 107
2, 4080, Note_on_c, 0, 81, 107
2, 4128, Note_off_c, 0, 66, 64
2, 4140, Note_on_c, 0, 67, 107
2, 4188, Note_off_c, 0, 67, 64
2, 4200, Note_on_c, 0, 66, 107
2, 4224, Note_off_c, 0, 81, 64
2, 4248, Note_off_c, 0, 66, 64
2, 4260, Note_on_c, 0, 64, 107
2, 4260, Note_on_c, 0, 81, 107
2, 4308, Note_off_c, 0, 81, 64
2, 4308, Note_off_c, 0, 64, 64
2, 4320, Note_on_c, 0, 63, 107
2, 4320, Note_on_c, 0, 81, 107
2, 4368, Note_off_c, 0, 81, 64
2, 4380, Note_on_c, 0, 79, 107
2, 4416, Note_off_c, 0, 63, 64
2, 4428, Note_off_c, 0, 79, 64
2, 4440, Note_on_c, 0, 81, 107
2, 4440, Note_on_c, 0, 63, 107
2, 4488, Note_off_c, 0, 81, 64
2, 4500, Note_on_c, 0, 84, 107
2, 4548, Note_off_c, 0, 84, 64
2, 4560, Note_on_c, 0, 83, 107
2, 4584, Note_off_c, 0, 63, 64
2, 4608, Note_off_c, 0, 83, 64
2, 4620, Note_on_c, 0, 63, 107
2, 4620, Note_on_c, 0, 81, 107
2, 4668, Note_off_c, 0, 81, 64
2, 4668, Note_off_c, 0, 63, 64
2, 4680, Note_on_c, 0, 64, 107
2, 4680, Note_on_c, 0, 79, 107
2, 4728, Note_off_c, 0, 79, 64
2, 4740, Note_on_c, 0, 78, 107
2, 4776, Note_off_c, 0, 64, 64
2, 4788, Note_off_c, 0, 78, 64
2, 4800, Note_on_c, 0, 79, 107
2, 4848, Note_off_c, 0, 79, 64
2, 4860, Note_on_c, 0, 83, 107
2, 4908, Note_off_c, 0, 83, 64
2, 4920, Note_on_c, 0, 81, 107
2, 4968, Note_off_c, 0, 81, 64
2, 4980, Note_on_c, 0, 79, 107
2, 5028, Note_off_c, 0, 79, 64
2, 5040, Note_on_c, 0, 78, 107
2, 5088, Note_off_c, 0, 78, 64
2, 5100, Note_on_c, 0, 76, 107
2, 5148, Note_off_c, 0, 76, 64
2, 5160, Note_on_c, 0, 78, 107
2, 5208, Note_off_c, 0, 78, 64
2, 5220, Note_on_c, 0, 79, 107
2, 5268, Note_off_c, 0, 79, 64
2, 5280, Note_on_c, 0, 78, 107
2, 5328, Note_off_c, 0, 78, 64
2, 5340, Note_on_c, 0, 76, 107
2, 5388, Note_off_c, 0, 76, 64
2, 5400, Note_on_c, 0, 75, 107
2, 5448, Note_off_c, 0, 75, 64
2, 5460, Note_on_c, 0, 73, 107
2, 5508, Note_off_c, 0, 73, 64
2, 5520, Note_on_c, 0, 75, 107
2, 5568, Note_off_c, 0, 75, 64
2, 5580, Note_on_c, 0, 76, 107
2, 5628, Note_off_c, 0, 76, 64
2, 5640, Note_on_c, 0, 73, 107
2, 5688, Note_off_c, 0, 73, 64
2, 5700, Note_on_c, 0, 75, 107
2, 5748, Note_off_c, 0, 75, 64
2, 5760, Note_on_c, 0, 76, 107
2, 5808, Note_off_c, 0, 76, 64
2, 5820, Note_on_c, 0, 75, 107
2, 5868, Note_off_c, 0, 75, 64
2, 5880, Note_on_c, 0, 76, 107
2, 5928, Note_off_c, 0, 76, 64
2, 5940, Note_on_c, 0, 78, 107
2, 5988, Note_off_c, 0, 78, 64
2, 6000, Note_on_c, 0, 79, 107
2, 6048, Note_off_c, 0, 79, 64
2, 6060, Note_on_c, 0, 76, 107
2, 6108, Note_off_c, 0, 76, 64
2, 6120, Note_on_c, 0, 73, 107
2, 6168, Note_off_c, 0, 73, 64
2, 6180, Note_on_c, 0, 74, 107
2, 6228, Note_off_c, 0, 74, 64
2, 6240, Note_on_c, 0, 73, 107
2, 6288, Note_off_c, 0, 73, 64
2, 6300, Note_on_c, 0, 71, 107
2, 6348, Note_off_c, 0, 71, 64
2, 6360, Note_on_c, 0, 69, 107
2, 6408, Note_off_c, 0, 69, 64
2, 6420, Note_on_c, 0, 73, 107
2, 6468, Note_off_c, 0, 73, 64
2, 6480, Note_on_c, 0, 74, 107
2, 6528, Note_off_c, 0, 74, 64
2, 6540, Note_on_c, 0, 73, 107
2, 6588, Note_off_c, 0, 73, 64
2, 6600, Note_on_c, 0, 74, 107
2, 6648, Note_off_c, 0, 74, 64
2, 6660, Note_on_c, 0, 76, 107
2, 6708, Note_off_c, 0, 76, 64
2, 6720, Note_on_c, 0, 78, 107
2, 6768, Note_off_c, 0, 78, 64
2, 6780, Note_on_c, 0, 74, 107
2, 6828, Note_off_c, 0, 74, 64
2, 6840, Note_on_c, 0, 71, 107
2, 6888, Note_off_c, 0, 71, 64
2, 6900, Note_on_c, 0, 72, 107
2, 6948, Note_off_c, 0, 72, 64
2, 6960, Note_on_c, 0, 71, 107
2, 7008, Note_off_c, 0, 71, 64
2, 7020, Note_on_c, 0, 69, 107
2, 7068, Note_off_c, 0, 69, 64
2, 7080, Note_on_c, 0, 67, 107
2, 7128, Note_off_c, 0, 67, 64
2, 7140, Note_on_c, 0, 71, 107
2, 7188, Note_off_c, 0, 71, 64
2, 7200, Note_on_c, 0, 73, 107
2, 7248, Note_off_c, 0, 73, 64
2, 7260, Note_on_c, 0, 71, 107
2, 7308, Note_off_c, 0, 71, 64
2, 7320, Note_on_c, 0, 73, 107
2, 7368, Note_off_c, 0, 73, 64
2, 7380, Note_on_c, 0, 74, 107
2, 7428, Note_off_c, 0, 74, 64
2, 7440, Note_on_c, 0, 76, 107
2, 7488, Note_off_c, 0, 76, 64
2, 7500, Note_on_c, 0, 73, 107
2, 7548, Note_off_c, 0, 73, 64
2, 7560, Note_on_c, 0, 70, 107
2, 7608, Note_off_c, 0, 70, 64
2, 7620, Note_on_c, 0, 71, 107
2, 7668, Note_off_c, 0, 71, 64
2, 7680, Note_on_c, 0, 70, 107
2, 7728, Note_off_c, 0, 70, 64
2, 7740, Note_on_c, 0, 68, 107
2, 7788, Note_off_c, 0, 68, 64
2, 7800, Note_on_c, 0, 66, 107
2, 7848, Note_off_c, 0, 66, 64
2, 7860, Note_on_c, 0, 70, 107
2, 7908, Note_off_c, 0, 70, 64
2, 7920, Note_on_c, 0, 71, 107
2, 7968, Note_off_c, 0, 71, 64
2, 7980, Note_on_c, 0, 70, 107
2, 8028, Note_off_c, 0, 70, 64
2, 8040, Note_on_c, 0, 71, 107
2, 8040, Note_on_c, 0, 66, 107
2, 8088, Note_off_c, 0, 71, 64
2, 8100, Note_on_c, 0, 73, 107
2, 8148, Note_off_c, 0, 73, 64
2, 8160, Note_on_c, 0, 74, 107
2, 8184, Note_off_c, 0, 66, 64
2, 8208, Note_off_c, 0, 74, 64
2, 8220, Note_on_c, 0, 66, 107
2, 8220, Note_on_c, 0, 71, 107
2, 8268, Note_off_c, 0, 71, 64
2, 8268, Note_off_c, 0, 66, 64
2, 8280, Note_on_c, 0, 71, 107
2, 8280, Note_on_c, 0, 59, 107
2, 8376, Note_off_c, 0, 59, 64
2, 8376, Note_off_c, 0, 71, 64
2, 8400, Note_on_c, 0, 67, 107
2, 8448, Note_off_c, 0, 67, 64
2, 8460, Note_on_c, 0, 66, 107
2, 8508, Note_off_c, 0, 66, 64
2, 8520, Note_on_c, 0, 67, 107
2, 8568, Note_off_c, 0, 67, 64
2, 8580, Note_on_c, 0, 64, 107
2, 8628, Note_off_c, 0, 64, 64
2, 8760, Note_on_c, 0, 64, 107
2, 8904, Note_off_c, 0, 64, 64
2, 8940, Note_on_c, 0, 64, 107
2, 8988, Note_off_c, 0, 64, 64
2, 9000, Note_on_c, 0, 64, 107
2, 9096, Note_off_c, 0, 64, 64
2, 9360, Note_on_c, 0, 62, 107
2, 9420, Note_on_c, 0, 66, 107
2, 9468, Note_off_c, 0, 66, 64
2, 9480, Note_on_c, 0, 71, 107
2, 9504, Note_off_c, 0, 62, 64
2, 9540, Note_on_c, 0, 66, 107
2, 9576, Note_off_c, 0, 71, 64
2, 9588, Note_off_c, 0, 66, 64
2, 9600, Note_on_c, 0, 64, 107
2, 9648, Note_off_c, 0, 64, 64
2, 9660, Note_on_c, 0, 62, 107
2, 9708, Note_off_c, 0, 62, 64
2, 9720, Note_on_c, 0, 64, 107
2, 9780, Note_on_c, 0, 70, 107
2, 9804, Note_off_c, 0, 70, 64
2, 9810, Note_on_c, 0, 71, 107
2, 9834, Note_off_c, 0, 71, 64
2, 9840, Note_on_c, 0, 73, 107
2, 9864, Note_off_c, 0, 64, 64
2, 9900, Note_on_c, 0, 67, 107
2, 9936, Note_off_c, 0, 73, 64
2, 9948, Note_off_c, 0, 67, 64
2, 9960, Note_on_c, 0, 66, 107
2, 10008, Note_off_c, 0, 66, 64
2, 10020, Note_on_c, 0, 64, 107
2, 10068, Note_off_c, 0, 64, 64
2, 10080, Note_on_c, 0, 66, 107
2, 10140, Note_on_c, 0, 71, 107
2, 10164, Note_off_c, 0, 71, 64
2, 10170, Note_on_c, 0, 73, 107
2, 10194, Note_off_c, 0, 73, 64
2, 10200, Note_on_c, 0, 74, 107
2, 10224, Note_off_c, 0, 66, 64
2, 10260, Note_on_c, 0, 69, 107
2, 10296, Note_off_c, 0, 74, 64
2, 10308, Note_off_c, 0, 69, 64
2, 10320, Note_on_c, 0, 67, 107
2, 10368, Note_off_c, 0, 67, 64
2, 10380, Note_on_c, 0, 66, 107
2, 10428, Note_off_c, 0, 66, 64
2, 10440, Note_on_c, 0, 67, 107
2, 10500, Note_on_c, 0, 73, 107
2, 10524, Note_off_c, 0, 73, 64
2, 10530, Note_on_c, 0, 74, 107
2, 10554, Note_off_c, 0, 74, 64
2, 10560, Note_on_c, 0, 76, 107
2, 10584, Note_off_c, 0, 67, 64
2, 10620, Note_on_c, 0, 74, 107
2, 10656, Note_off_c, 0, 76, 64
2, 10668, Note_off_c, 0, 74, 64
2, 10680, Note_on_c, 0, 73, 107
2, 10728, Note_off_c, 0, 73, 64
2, 10740, Note_on_c, 0, 71, 107
2, 10788, Note_off_c, 0, 71, 64
2, 10800, Note_on_c, 0, 70, 107
2, 10860, Note_on_c, 0, 73, 107
2, 10896, Note_off_c, 0, 70, 64
2, 10908, Note_off_c, 0, 73, 64
2, 10920, Note_on_c, 0, 76, 107
2, 10968, Note_off_c, 0, 76, 64
2, 10980, Note_on_c, 0, 79, 107
2, 11028, Note_off_c, 0, 79, 64
2, 11040, Note_on_c, 0, 78, 107
2, 11088, Note_off_c, 0, 78, 64
2, 11100, Note_on_c, 0, 76, 107
2, 11148, Note_off_c, 0, 76, 64
2, 11160, Note_on_c, 0, 74, 107
2, 11220, Note_on_c, 0, 73, 107
2, 11268, Note_off_c, 0, 73, 64
2, 11280, Note_on_c, 0, 71, 107
2, 11328, Note_off_c, 0, 71, 64
2, 11340, Note_on_c, 0, 69, 107
2, 11388, Note_off_c, 0, 69, 64
2, 11400, Note_on_c, 0, 71, 107
2, 11448, Note_off_c, 0, 71, 64
2, 11460, Note_on_c, 0, 66, 107
2, 11508, Note_off_c, 0, 66, 64
2, 11520, Note_on_c, 0, 68, 107
2, 11568, Note_off_c, 0, 74, 64
2, 11580, Note_on_c, 0, 71, 107
2, 11616, Note_off_c, 0, 68, 64
2, 11628, Note_off_c, 0, 71, 64
2, 11640, Note_on_c, 0, 74, 107
2, 11688, Note_off_c, 0, 74, 64
2, 11700, Note_on_c, 0, 77, 107
2, 11748, Note_off_c, 0, 77, 64
2, 11760, Note_on_c, 0, 76, 107
2, 11808, Note_off_c, 0, 76, 64
2, 11820, Note_on_c, 0, 74, 107
2, 11868, Note_off_c, 0, 74, 64
2, 11880, Note_on_c, 0, 72, 107
2, 11940, Note_on_c, 0, 71, 107
2, 11988, Note_off_c, 0, 71, 64
2, 12000, Note_on_c, 0, 69, 107
2, 12048, Note_off_c, 0, 69, 64
2, 12060, Note_on_c, 0, 68, 107
2, 12108, Note_off_c, 0, 68, 64
2, 12120, Note_on_c, 0, 69, 107
2, 12168, Note_off_c, 0, 69, 64
2, 12180, Note_on_c, 0, 64, 107
2, 12228, Note_off_c, 0, 64, 64
2, 12240, Note_on_c, 0, 66, 107
2, 12288, Note_off_c, 0, 72, 64
2, 12300, Note_on_c, 0, 69, 107
2, 12336, Note_off_c, 0, 66, 64
2, 12348, Note_off_c, 0, 69, 64
2, 12360, Note_on_c, 0, 72, 107
2, 12408, Note_off_c, 0, 72, 64
2, 12420, Note_on_c, 0, 76, 107
2, 12468, Note_off_c, 0, 76, 64
2, 12480, Note_on_c, 0, 74, 107
2, 12528, Note_off_c, 0, 74, 64
2, 12540, Note_on_c, 0, 72, 107
2, 12588, Note_off_c, 0, 72, 64
2, 12600, Note_on_c, 0, 71, 107
2, 12660, Note_on_c, 0, 69, 107
2, 12708, Note_off_c, 0, 69, 64
2, 12720, Note_on_c, 0, 67, 107
2, 12768, Note_off_c, 0, 67, 64
2, 12780, Note_on_c, 0, 66, 107
2, 12828, Note_off_c, 0, 66, 64
2, 12840, Note_on_c, 0, 67, 107
2, 12888, Note_off_c, 0, 67, 64
2, 12900, Note_on_c, 0, 63, 107
2, 12948, Note_off_c, 0, 63, 64
2, 12960, Note_on_c, 0, 64, 107
2, 13008, Note_off_c, 0, 71, 64
2, 13020, Note_on_c, 0, 67, 107
2, 13056, Note_off_c, 0, 64, 64
2, 13068, Note_off_c, 0, 67, 64
2, 13080, Note_on_c, 0, 71, 107
2, 13128, Note_off_c, 0, 71, 64
2, 13140, Note_on_c, 0, 74, 107
2, 13188, Note_off_c, 0, 74, 64
2, 13200, Note_on_c, 0, 72, 107
2, 13248, Note_off_c, 0, 72, 64
2, 13260, Note_on_c, 0, 71, 107
2, 13308, Note_off_c, 0, 71, 64
2, 13320, Note_on_c, 0, 69, 107
2, 13380, Note_on_c, 0, 67, 107
2, 13428, Note_off_c, 0, 67, 64
2, 13440, Note_on_c, 0, 66, 107
2, 13488, Note_off_c, 0, 66, 64
2, 13500, Note_on_c, 0, 64, 107
2, 13548, Note_off_c, 0, 64, 64
2, 13560, Note_on_c, 0, 66, 107
2, 13608, Note_off_c, 0, 66, 64
2, 13620, Note_on_c, 0, 61, 107
2, 13668, Note_off_c, 0, 61, 64
2, 13680, Note_on_c, 0, 63, 107
2, 13776, Note_off_c, 0, 63, 64
2, 13776, Note_off_c, 0, 69, 64
2, 13800, Note_on_c, 0, 75, 107
2, 13800, Note_on_c, 0, 83, 107
2, 13800, Note_on_c, 0, 78, 107
2, 13896, Note_off_c, 0, 78, 64
2, 13896, Note_off_c, 0, 75, 64
2, 13944, Note_off_c, 0, 83, 64
2, 13980, Note_on_c, 0, 83, 107
2, 14028, Note_off_c, 0, 83, 64
2, 14040, Note_on_c, 0, 71, 107
2, 14040, Note_on_c, 0, 76, 107
2, 14136, Note_off_c, 0, 76, 64
2, 14136, Note_off_c, 0, 71, 64
2, 14160, Note_on_c, 0, 84, 107
2, 14160, Note_on_c, 0, 81, 107
2, 14160, Note_on_c, 0, 76, 107
2, 14208, Note_off_c, 0, 84, 64
2, 14220, Note_on_c, 0, 83, 107
2, 14256, Note_off_c, 0, 76, 64
2, 14256, Note_off_c, 0, 81, 64
2, 14268, Note_off_c, 0, 83, 64
2, 14280, Note_on_c, 0, 84, 107
2, 14328, Note_off_c, 0, 84, 64
2, 14340, Note_on_c, 0, 81, 107
2, 14388, Note_off_c, 0, 81, 64
2, 14400, Note_on_c, 0, 75, 107
2, 14496, Note_off_c, 0, 75, 64
2, 14520, Note_on_c, 0, 78, 107
2, 14520, Note_on_c, 0, 72, 107
2, 14520, Note_on_c, 0, 69, 107
2, 14616, Note_off_c, 0, 69, 64
2, 14616, Note_off_c, 0, 72, 64
2, 14664, Note_off_c, 0, 78, 64
2, 14700, Note_on_c, 0, 78, 107
2, 14748, Note_off_c, 0, 78, 64
2, 14760, Note_on_c, 0, 71, 107
2, 14856, Note_off_c, 0, 71, 64
2, 14880, Note_on_c, 0, 83, 107
2, 14880, Note_on_c, 0, 71, 107
2, 14880, Note_on_c, 0, 78, 107
2, 14928, Note_off_c, 0, 83, 64
2, 14940, Note_on_c, 0, 81, 107
2, 14976, Note_off_c, 0, 78, 64
2, 14976, Note_off_c, 0, 71, 64
2, 14988, Note_off_c, 0, 81, 64
2, 15000, Note_on_c, 0, 83, 107
2, 15048, Note_off_c, 0, 83, 64
2, 15060, Note_on_c, 0, 78, 107
2, 15108, Note_off_c, 0, 78, 64
2, 15120, Note_on_c, 0, 79, 107
2, 15168, Note_off_c, 0, 79, 64
2, 15180, Note_on_c, 0, 81, 107
2, 15228, Note_off_c, 0, 81, 64
2, 15240, Note_on_c, 0, 79, 107
2, 15288, Note_off_c, 0, 79, 64
2, 15300, Note_on_c, 0, 78, 107
2, 15348, Note_off_c, 0, 78, 64
2, 15360, Note_on_c, 0, 76, 107
2, 15408, Note_off_c, 0, 76, 64
2, 15420, Note_on_c, 0, 79, 107
2, 15468, Note_off_c, 0, 79, 64
2, 15480, Note_on_c, 0, 81, 107
2, 15528, Note_off_c, 0, 81, 64
2, 15540, Note_on_c, 0, 79, 107
2, 15588, Note_off_c, 0, 79, 64
2, 15600, Note_on_c, 0, 81, 107
2, 15648, Note_off_c, 0, 81, 64
2, 15660, Note_on_c, 0, 83, 107
2, 15708, Note_off_c, 0, 83, 64
2, 15720, Note_on_c, 0, 84, 107
2, 15768, Note_off_c, 0, 84, 64
2, 15780, Note_on_c, 0, 81, 107
2, 15828, Note_off_c, 0, 81, 64
2, 15840, Note_on_c, 0, 78, 107
2, 15888, Note_off_c, 0, 78, 64
2, 15900, Note_on_c, 0, 79, 107
2, 15948, Note_off_c, 0, 79, 64
2, 15960, Note_on_c, 0, 78, 107
2, 16008, Note_off_c, 0, 78, 64
2, 16020, Note_on_c, 0, 76, 107
2, 16068, Note_off_c, 0, 76, 64
2, 16080, Note_on_c, 0, 74, 107
2, 16128, Note_off_c, 0, 74, 64
2, 16140, Note_on_c, 0, 78, 107
2, 16188, Note_off_c, 0, 78, 64
2, 16200, Note_on_c, 0, 79, 107
2, 16248, Note_off_c, 0, 79, 64
2, 16260, Note_on_c, 0, 78, 107
2, 16308, Note_off_c, 0, 78, 64
2, 16320, Note_on_c, 0, 79, 107
2, 16368, Note_off_c, 0, 79, 64
2, 16380, Note_on_c, 0, 81, 107
2, 16428, Note_off_c, 0, 81, 64
2, 16440, Note_on_c, 0, 83, 107
2, 16488, Note_off_c, 0, 83, 64
2, 16500, Note_on_c, 0, 79, 107
2, 16548, Note_off_c, 0, 79, 64
2, 16560, Note_on_c, 0, 76, 107
2, 16608, Note_off_c, 0, 76, 64
2, 16620, Note_on_c, 0, 78, 107
2, 16668, Note_off_c, 0, 78, 64
2, 16680, Note_on_c, 0, 76, 107
2, 16728, Note_off_c, 0, 76, 64
2, 16740, Note_on_c, 0, 74, 107
2, 16788, Note_off_c, 0, 74, 64
2, 16800, Note_on_c, 0, 72, 107
2, 16848, Note_off_c, 0, 72, 64
2, 16860, Note_on_c, 0, 76, 107
2, 16908, Note_off_c, 0, 76, 64
2, 16920, Note_on_c, 0, 78, 107
2, 16968, Note_off_c, 0, 78, 64
2, 16980, Note_on_c, 0, 76, 107
2, 17028, Note_off_c, 0, 76, 64
2, 17040, Note_on_c, 0, 78, 107
2, 17088, Note_off_c, 0, 78, 64
2, 17100, Note_on_c, 0, 79, 107
2, 17148, Note_off_c, 0, 79, 64
2, 17160, Note_on_c, 0, 81, 107
2, 17208, Note_off_c, 0, 81, 64
2, 17220, Note_on_c, 0, 78, 107
2, 17268, Note_off_c, 0, 78, 64
2, 17280, Note_on_c, 0, 75, 107
2, 17376, Note_off_c, 0, 75, 64
2, 17400, Note_on_c, 0, 71, 107
2, 17400, Note_on_c, 0, 75, 107
2, 17544, Note_off_c, 0, 75, 64
2, 17544, Note_off_c, 0, 71, 64
2, 17580, Note_on_c, 0, 75, 107
2, 17580, Note_on_c, 0, 71, 107
2, 17628, Note_off_c, 0, 71, 64
2, 17628, Note_off_c, 0, 75, 64
2, 17640, Note_on_c, 0, 64, 107
2, 17640, Note_on_c, 0, 76, 107
2, 17640, Note_on_c, 0, 71, 107
2, 17736, Note_off_c, 0, 71, 64
2, 17736, Note_off_c, 0, 76, 64
2, 17736, Note_off_c, 0, 64, 64
2, 17760, Note_on_c, 0, 72, 107
2, 17808, Note_off_c, 0, 72, 64
2, 17820, Note_on_c, 0, 71, 107
2, 17868, Note_off_c, 0, 71, 64
2, 17880, Note_on_c, 0, 72, 107
2, 17928, Note_off_c, 0, 72, 64
2, 17940, Note_on_c, 0, 69, 107
2, 17988, Note_off_c, 0, 69, 64
2, 18000, Note_on_c, 0, 63, 107
2, 18096, Note_off_c, 0, 63, 64
2, 18120, Note_on_c, 0, 66, 107
2, 18120, Note_on_c, 0, 69, 107
2, 18264, Note_off_c, 0, 69, 64
2, 18264, Note_off_c, 0, 66, 64
2, 18300, Note_on_c, 0, 69, 107
2, 18300, Note_on_c, 0, 66, 107
2, 18348, Note_off_c, 0, 66, 64
2, 18348, Note_off_c, 0, 69, 64
2, 18360, Note_on_c, 0, 59, 107
2, 18360, Note_on_c, 0, 69, 107
2, 18360, Note_on_c, 0, 66, 107
2, 18456, Note_off_c, 0, 66, 64
2, 18456, Note_off_c, 0, 69, 64
2, 18456, Note_off_c, 0, 59, 64
2, 18480, Note_on_c, 0, 71, 107
2, 18528, Note_off_c, 0, 71, 64
2, 18540, Note_on_c, 0, 69, 107
2, 18588, Note_off_c, 0, 69, 64
2, 18600, Note_on_c, 0, 71, 107
2, 18648, Note_off_c, 0, 71, 64
2, 18660, Note_on_c, 0, 66, 107
2, 18708, Note_off_c, 0, 66, 64
2, 18720, Note_on_c, 0, 67, 107
2, 18780, Note_on_c, 0, 71, 107
2, 18828, Note_off_c, 0, 71, 64
2, 18840, Note_on_c, 0, 76, 107
2, 18864, Note_off_c, 0, 67, 64
2, 18900, Note_on_c, 0, 71, 107
2, 18936, Note_off_c, 0, 76, 64
2, 18948, Note_off_c, 0, 71, 64
2, 18960, Note_on_c, 0, 69, 107
2, 19008, Note_off_c, 0, 69, 64
2, 19020, Note_on_c, 0, 67, 107
2, 19068, Note_off_c, 0, 67, 64
2, 19080, Note_on_c, 0, 69, 107
2, 19140, Note_on_c, 0, 75, 107
2, 19164, Note_off_c, 0, 75, 64
2, 19170, Note_on_c, 0, 76, 107
2, 19194, Note_off_c, 0, 76, 64
2, 19200, Note_on_c, 0, 78, 107
2, 19224, Note_off_c, 0, 69, 64
2, 19260, Note_on_c, 0, 72, 107
2, 19296, Note_off_c, 0, 78, 64
2, 19308, Note_off_c, 0, 72, 64
2, 19320, Note_on_c, 0, 71, 107
2, 19368, Note_off_c, 0, 71, 64
2, 19380, Note_on_c, 0, 69, 107
2, 19428, Note_off_c, 0, 69, 64
2, 19440, Note_on_c, 0, 71, 107
2, 19500, Note_on_c, 0, 76, 107
2, 19524, Note_off_c, 0, 76, 64
2, 19530, Note_on_c, 0, 78, 107
2, 19554, Note_off_c, 0, 78, 64
2, 19560, Note_on_c, 0, 79, 107
2, 19584, Note_off_c, 0, 71, 64
2, 19620, Note_on_c, 0, 74, 107
2, 19656, Note_off_c, 0, 79, 64
2, 19668, Note_off_c, 0, 74, 64
2, 19680, Note_on_c, 0, 72, 107
2, 19728, Note_off_c, 0, 72, 64
2, 19740, Note_on_c, 0, 71, 107
2, 19788, Note_off_c, 0, 71, 64
2, 19800, Note_on_c, 0, 72, 107
2, 19860, Note_on_c, 0, 78, 107
2, 19884, Note_off_c, 0, 78, 64
2, 19890, Note_on_c, 0, 79, 107
2, 19914, Note_off_c, 0, 79, 64
2, 19920, Note_on_c, 0, 81, 107
2, 19944, Note_off_c, 0, 72, 64
2, 19980, Note_on_c, 0, 79, 107
2, 20016, Note_off_c, 0, 81, 64
2, 20028, Note_off_c, 0, 79, 64
2, 20040, Note_on_c, 0, 78, 107
2, 20088, Note_off_c, 0, 78, 64
2, 20100, Note_on_c, 0, 76, 107
2, 20148, Note_off_c, 0, 76, 64
2, 20160, Note_on_c, 0, 75, 107
2, 20220, Note_on_c, 0, 78, 107
2, 20268, Note_off_c, 0, 78, 64
2, 20280, Note_on_c, 0, 81, 107
2, 20328, Note_off_c, 0, 81, 64
2, 20340, Note_on_c, 0, 84, 107
2, 20352, Note_off_c, 0, 75, 64
2, 20388, Note_off_c, 0, 84, 64
2, 20400, Note_on_c, 0, 83, 107
2, 20448, Note_off_c, 0, 83, 64
2, 20460, Note_on_c, 0, 81, 107
2, 20508, Note_off_c, 0, 81, 64
2, 20520, Note_on_c, 0, 79, 107
2, 20568, Note_off_c, 0, 79, 64
2, 20580, Note_on_c, 0, 78, 107
2, 20628, Note_off_c, 0, 78, 64
2, 20640, Note_on_c, 0, 76, 107
2, 20688, Note_off_c, 0, 76, 64
2, 20700, Note_on_c, 0, 75, 107
2, 20748, Note_off_c, 0, 75, 64
2, 20760, Note_on_c, 0, 76, 107
2, 20808, Note_off_c, 0, 76, 64
2, 20820, Note_on_c, 0, 71, 107
2, 20868, Note_off_c, 0, 71, 64
2, 20880, Note_on_c, 0, 72, 107
2, 20940, Note_on_c, 0, 64, 107
2, 20988, Note_off_c, 0, 64, 64
2, 21000, Note_on_c, 0, 67, 107
2, 21048, Note_off_c, 0, 67, 64
2, 21060, Note_on_c, 0, 71, 107
2, 21108, Note_off_c, 0, 71, 64
2, 21120, Note_on_c, 0, 69, 107
2, 21168, Note_off_c, 0, 69, 64
2, 21180, Note_on_c, 0, 67, 107
2, 21228, Note_off_c, 0, 67, 64
2, 21240, Note_on_c, 0, 66, 107
2, 21288, Note_off_c, 0, 72, 64
2, 21300, Note_on_c, 0, 76, 107
2, 21348, Note_off_c, 0, 76, 64
2, 21360, Note_on_c, 0, 74, 107
2, 21408, Note_off_c, 0, 74, 64
2, 21420, Note_on_c, 0, 72, 107
2, 21468, Note_off_c, 0, 72, 64
2, 21480, Note_on_c, 0, 74, 107
2, 21528, Note_off_c, 0, 74, 64
2, 21540, Note_on_c, 0, 69, 107
2, 21588, Note_off_c, 0, 69, 64
2, 21600, Note_on_c, 0, 71, 107
2, 21648, Note_off_c, 0, 66, 64
2, 21660, Note_on_c, 0, 62, 107
2, 21708, Note_off_c, 0, 62, 64
2, 21720, Note_on_c, 0, 66, 107
2, 21768, Note_off_c, 0, 66, 64
2, 21780, Note_on_c, 0, 69, 107
2, 21828, Note_off_c, 0, 69, 64
2, 21840, Note_on_c, 0, 67, 107
2, 21888, Note_off_c, 0, 67, 64
2, 21900, Note_on_c, 0, 66, 107
2, 21948, Note_off_c, 0, 66, 64
2, 21960, Note_on_c, 0, 64, 107
2, 22008, Note_off_c, 0, 71, 64
2, 22020, Note_on_c, 0, 74, 107
2, 22068, Note_off_c, 0, 74, 64
2, 22080, Note_on_c, 0, 72, 107
2, 22128, Note_off_c, 0, 72, 64
2, 22140, Note_on_c, 0, 71, 107
2, 22188, Note_off_c, 0, 71, 64
2, 22200, Note_on_c, 0, 72, 107
2, 22248, Note_off_c, 0, 72, 64
2, 22260, Note_on_c, 0, 67, 107
2, 22308, Note_off_c, 0, 67, 64
2, 22320, Note_on_c, 0, 69, 107
2, 22368, Note_off_c, 0, 64, 64
2, 22380, Note_on_c, 0, 63, 107
2, 22428, Note_off_c, 0, 63, 64
2, 22440, Note_on_c, 0, 64, 107
2, 22488, Note_off_c, 0, 64, 64
2, 22500, Note_on_c, 0, 67, 107
2, 22548, Note_off_c, 0, 67, 64
2, 22560, Note_on_c, 0, 66, 107
2, 22608, Note_off_c, 0, 66, 64
2, 22620, Note_on_c, 0, 64, 107
2, 22668, Note_off_c, 0, 64, 64
2, 22680, Note_on_c, 0, 63, 107
2, 22728, Note_off_c, 0, 69, 64
2, 22740, Note_on_c, 0, 72, 107
2, 22776, Note_off_c, 0, 63, 64
2, 22788, Note_off_c, 0, 72, 64
2, 22800, Note_on_c, 0, 71, 107
2, 22848, Note_off_c, 0, 71, 64
2, 22860, Note_on_c, 0, 69, 107
2, 22908, Note_off_c, 0, 69, 64
2, 22920, Note_on_c, 0, 71, 107
2, 22968, Note_off_c, 0, 71, 64
2, 22980, Note_on_c, 0, 66, 107
2, 23028, Note_off_c, 0, 66, 64
2, 23040, Note_on_c, 0, 67, 107
2, 23100, Note_on_c, 0, 66, 107
2, 23148, Note_off_c, 0, 66, 64
2, 23160, Note_on_c, 0, 64, 107
2, 23208, Note_off_c, 0, 64, 64
2, 23220, Note_on_c, 0, 63, 107
2, 23268, Note_off_c, 0, 63, 64
2, 23280, Note_on_c, 0, 64, 107
2, 23328, Note_off_c, 0, 64, 64
2, 23340, Note_on_c, 0, 61, 107
2, 23388, Note_off_c, 0, 61, 64
2, 23400, Note_on_c, 0, 58, 107
2, 23448, Note_off_c, 0, 67, 64
2, 23460, Note_on_c, 0, 67, 107
2, 23496, Note_off_c, 0, 58, 64
2, 23508, Note_off_c, 0, 67, 64
2, 23520, Note_on_c, 0, 66, 107
2, 23568, Note_off_c, 0, 66, 64
2, 23580, Note_on_c, 0, 64, 107
2, 23628, Note_off_c, 0, 64, 64
2, 23640, Note_on_c, 0, 66, 107
2, 23688, Note_off_c, 0, 66, 64
2, 23700, Note_on_c, 0, 61, 107
2, 23748, Note_off_c, 0, 61, 64
2, 23760, Note_on_c, 0, 63, 107
2, 23820, Note_on_c, 0, 60, 107
2, 23868, Note_off_c, 0, 60, 64
2, 23880, Note_on_c, 0, 59, 107
2, 23928, Note_off_c, 0, 59, 64
2, 23940, Note_on_c, 0, 57, 107
2, 23988, Note_off_c, 0, 57, 64
2, 24000, Note_on_c, 0, 60, 107
2, 24048, Note_off_c, 0, 60, 64
2, 24060, Note_on_c, 0, 57, 107
2, 24108, Note_off_c, 0, 57, 64
2, 24168, Note_off_c, 0, 63, 64
2, 24180, Note_on_c, 0, 59, 107
2, 24228, Note_off_c, 0, 59, 64
2, 24240, Note_on_c, 0, 64, 107
2, 24288, Note_off_c, 0, 64, 64
2, 24300, Note_on_c, 0, 66, 107
2, 24348, Note_off_c, 0, 66, 64
2, 24360, Note_on_c, 0, 67, 107
2, 24360, Note_on_c, 0, 67, 107
2, 24408, Note_off_c, 0, 67, 64
2, 24420, Note_on_c, 0, 61, 107
2, 24468, Note_off_c, 0, 61, 64
2, 24480, Note_on_c, 0, 64, 107
2, 24480, Note_on_c, 0, 64, 107
2, 24528, Note_off_c, 0, 64, 64
2, 24540, Note_on_c, 0, 58, 107
2, 24600, Note_on_c, 0, 61, 107
2, 24936, Note_off_c, 0, 67, 64
2, 24936, Note_off_c, 0, 58, 64
2, 24936, Note_off_c, 0, 61, 64
2, 24936, Note_off_c, 0, 64, 64
2, 24960, Note_on_c, 0, 61, 107
2, 24960, Note_on_c, 0, 61, 107
2, 25008, Note_off_c, 0, 61, 64
2, 25020, Note_on_c, 0, 64, 107
2, 25020, Note_on_c, 0, 64, 107
2, 25068, Note_off_c, 0, 64, 64
2, 25080, Note_on_c, 0, 67, 107
2, 25080, Note_on_c, 0, 67, 107
2, 25116, Note_off_c, 0, 64, 64
2, 25128, Note_off_c, 0, 67, 64
2, 25140, Note_on_c, 0, 70, 107
2, 25152, Note_off_c, 0, 61, 64
2, 25176, Note_off_c, 0, 67, 64
2, 25188, Note_off_c, 0, 70, 64
2, 25200, Note_on_c, 0, 66, 107
2, 25200, Note_on_c, 0, 71, 107
2, 25200, Note_on_c, 0, 63, 107
2, 25248, Note_off_c, 0, 71, 64
2, 25260, Note_on_c, 0, 59, 107
2, 25296, Note_off_c, 0, 63, 64
2, 25296, Note_off_c, 0, 66, 64
2, 25308, Note_off_c, 0, 59, 64
2, 25320, Note_on_c, 0, 61, 107
2, 25368, Note_off_c, 0, 61, 64
2, 25380, Note_on_c, 0, 63, 107
2, 25428, Note_off_c, 0, 63, 64
2, 25440, Note_on_c, 0, 64, 107
2, 25488, Note_off_c, 0, 64, 64
2, 25500, Note_on_c, 0, 66, 107
2, 25548, Note_off_c, 0, 66, 64
2, 25560, Note_on_c, 0, 67, 107
2, 25608, Note_off_c, 0, 67, 64
2, 25620, Note_on_c, 0, 64, 107
2, 25668, Note_off_c, 0, 64, 64
2, 25680, Note_on_c, 0, 66, 107
2, 25728, Note_off_c, 0, 66, 64
2, 25740, Note_on_c, 0, 67, 107
2, 25788, Note_off_c, 0, 67, 64
2, 25800, Note_on_c, 0, 69, 107
2, 25848, Note_off_c, 0, 69, 64
2, 25860, Note_on_c, 0, 71, 107
2, 25908, Note_off_c, 0, 71, 64
2, 25920, Note_on_c, 0, 72, 107
2, 25980, Note_on_c, 0, 71, 107
2, 26028, Note_off_c, 0, 71, 64
2, 26040, Note_on_c, 0, 69, 107
2, 26088, Note_off_c, 0, 69, 64
2, 26100, Note_on_c, 0, 67, 107
2, 26148, Note_off_c, 0, 67, 64
2, 26160, Note_on_c, 0, 66, 107
2, 26208, Note_off_c, 0, 66, 64
2, 26220, Note_on_c, 0, 64, 107
2, 26268, Note_off_c, 0, 64, 64
2, 26280, Note_on_c, 0, 63, 107
2, 26328, Note_off_c, 0, 72, 64
2, 26340, Note_on_c, 0, 66, 107
2, 26376, Note_off_c, 0, 63, 64
2, 26388, Note_off_c, 0, 66, 64
2, 26400, Note_on_c, 0, 69, 107
2, 26448, Note_off_c, 0, 69, 64
2, 26460, Note_on_c, 0, 72, 107
2, 26508, Note_off_c, 0, 72, 64
2, 26520, Note_on_c, 0, 63, 107
2, 26568, Note_off_c, 0, 63, 64
2, 26580, Note_on_c, 0, 66, 107
2, 26628, Note_off_c, 0, 66, 64
2, 26640, Note_on_c, 0, 64, 107
2, 26688, Note_off_c, 0, 64, 64
2, 26700, Note_on_c, 0, 67, 107
2, 26748, Note_off_c, 0, 67, 64
2, 26760, Note_on_c, 0, 71, 107
2, 26808, Note_off_c, 0, 71, 64
2, 26820, Note_on_c, 0, 76, 107
2, 26868, Note_off_c, 0, 76, 64
2, 26880, Note_on_c, 0, 64, 107
2, 26928, Note_off_c, 0, 64, 64
2, 26940, Note_on_c, 0, 74, 107
2, 26988, Note_off_c, 0, 74, 64
2, 27000, Note_on_c, 0, 72, 107
2, 27060, Note_on_c, 0, 76, 107
2, 27108, Note_off_c, 0, 76, 64
2, 27120, Note_on_c, 0, 81, 107
2, 27168, Note_off_c, 0, 81, 64
2, 27180, Note_on_c, 0, 84, 107
2, 27192, Note_off_c, 0, 72, 64
2, 27228, Note_off_c, 0, 84, 64
2, 27240, Note_on_c, 0, 78, 107
2, 27288, Note_off_c, 0, 78, 64
2, 27300, Note_on_c, 0, 81, 107
2, 27348, Note_off_c, 0, 81, 64
2, 27360, Note_on_c, 0, 75, 107
2, 27408, Note_off_c, 0, 75, 64
2, 27420, Note_on_c, 0, 78, 107
2, 27468, Note_off_c, 0, 78, 64
2, 27480, Note_on_c, 0, 71, 107
2, 27528, Note_off_c, 0, 71, 64
2, 27540, Note_on_c, 0, 75, 107
2, 27588, Note_off_c, 0, 75, 64
2, 27600, Note_on_c, 0, 76, 107
2, 27660, Note_on_c, 0, 69, 107
2, 27708, Note_off_c, 0, 69, 64
2, 27720, Note_on_c, 0, 67, 107
2, 27768, Note_off_c, 0, 67, 64
2, 27768, Note_off_c, 0, 76, 64
2, 27780, Note_on_c, 0, 76, 107
2, 27780, Note_on_c, 0, 78, 107
2, 27828, Note_off_c, 0, 78, 64
2, 27828, Note_off_c, 0, 76, 64
2, 27840, Note_on_c, 0, 75, 107
2, 27840, Note_on_c, 0, 79, 107
2, 27864, Note_off_c, 0, 79, 64
2, 27870, Note_on_c, 0, 78, 107
2, 27894, Note_off_c, 0, 78, 64
2, 27900, Note_on_c, 0, 79, 107
2, 27924, Note_off_c, 0, 79, 64
2, 27930, Note_on_c, 0, 78, 107
2, 27954, Note_off_c, 0, 78, 64
2, 27960, Note_on_c, 0, 79, 107
2, 27984, Note_off_c, 0, 79, 64
2, 27990, Note_on_c, 0, 78, 107
2, 28014, Note_off_c, 0, 78, 64
2, 28020, Note_on_c, 0, 76, 107
2, 28032, Note_off_c, 0, 75, 64
2, 28068, Note_off_c, 0, 76, 64
2, 28080, Note_on_c, 0, 76, 107
2, 28128, Note_off_c, 0, 76, 64
2, 28140, Note_on_c, 0, 75, 107
2, 28188, Note_off_c, 0, 75, 64
2, 28200, Note_on_c, 0, 76, 107
2, 28248, Note_off_c, 0, 76, 64
2, 28260, Note_on_c, 0, 79, 107
2, 28308, Note_off_c, 0, 79, 64
2, 28320, Note_on_c, 0, 83, 107
2, 28368, Note_off_c, 0, 83, 64
2, 28380, Note_on_c, 0, 79, 107
2, 28428, Note_off_c, 0, 79, 64
2, 28440, Note_on_c, 0, 76, 107
2, 28488, Note_off_c, 0, 76, 64
2, 28500, Note_on_c, 0, 83, 107
2, 28548, Note_off_c, 0, 83, 64
2, 28560, Note_on_c, 0, 79, 107
2, 28608, Note_off_c, 0, 79, 64
2, 28620, Note_on_c, 0, 76, 107
2, 28668, Note_off_c, 0, 76, 64
2, 28680, Note_on_c, 0, 71, 107
2, 28728, Note_off_c, 0, 71, 64
2, 28740, Note_on_c, 0, 72, 107
2, 28788, Note_off_c, 0, 72, 64
2, 28800, Note_on_c, 0, 74, 107
2, 28848, Note_off_c, 0, 74, 64
2, 28860, Note_on_c, 0, 72, 107
2, 28908, Note_off_c, 0, 72, 64
2, 28920, Note_on_c, 0, 74, 107
2, 28968, Note_off_c, 0, 74, 64
2, 28980, Note_on_c, 0, 77, 107
2, 29028, Note_off_c, 0, 77, 64
2, 29040, Note_on_c, 0, 83, 107
2, 29088, Note_off_c, 0, 83, 64
2, 29100, Note_on_c, 0, 77, 107
2, 29148, Note_off_c, 0, 77, 64
2, 29160, Note_on_c, 0, 74, 107
2, 29208, Note_off_c, 0, 74, 64
2, 29220, Note_on_c, 0, 83, 107
2, 29268, Note_off_c, 0, 83, 64
2, 29280, Note_on_c, 0, 77, 107
2, 29328, Note_off_c, 0, 77, 64
2, 29340, Note_on_c, 0, 74, 107
2, 29388, Note_off_c, 0, 74, 64
2, 29400, Note_on_c, 0, 71, 107
2, 29448, Note_off_c, 0, 71, 64
2, 29460, Note_on_c, 0, 74, 107
2, 29508, Note_off_c, 0, 74, 64
2, 29520, Note_on_c, 0, 69, 107
2, 29520, Note_on_c, 0, 72, 107
2, 29616, Note_off_c, 0, 72, 64
2, 29616, Note_off_c, 0, 69, 64
2, 30000, Note_on_c, 0, 69, 107
2, 30000, Note_on_c, 0, 64, 107
2, 30096, Note_off_c, 0, 64, 64
2, 30096, Note_off_c, 0, 69, 64
2, 30120, Note_on_c, 0, 68, 107
2, 30120, Note_on_c, 0, 71, 107
2, 30120, Note_on_c, 0, 64, 107
2, 30216, Note_off_c, 0, 64, 64
2, 30216, Note_off_c, 0, 71, 64
2, 30216, Note_off_c, 0, 68, 64
2, 30240, Note_on_c, 0, 73, 107
2, 30240, Note_on_c, 0, 64, 107
2, 30240, Note_on_c, 0, 69, 107
2, 30336, Note_off_c, 0, 69, 64
2, 30336, Note_off_c, 0, 64, 64
2, 30336, Note_off_c, 0, 73, 64
2, 30720, Note_on_c, 0, 76, 107
2, 30720, Note_on_c, 0, 64, 107
2, 30720, Note_on_c, 0, 67, 107
2, 30720, Note_on_c, 0, 73, 107
2, 30816, Note_off_c, 0, 73, 64
2, 30816, Note_off_c, 0, 67, 64
2, 30816, Note_off_c, 0, 64, 64
2, 30816, Note_off_c, 0, 76, 64
2, 30840, Note_on_c, 0, 67, 107
2, 30840, Note_on_c, 0, 69, 107
2, 30840, Note_on_c, 0, 73, 107
2, 30840, Note_on_c, 0, 62, 107
2, 30936, Note_off_c, 0, 62, 64
2, 30936, Note_off_c, 0, 73, 64
2, 30936, Note_off_c, 0, 69, 64
2, 30936, Note_off_c, 0, 67, 64
2, 30960, Note_on_c, 0, 74, 107
2, 31008, Note_off_c, 0, 74, 64
2, 31020, Note_on_c, 0, 73, 107
2, 31068, Note_off_c, 0, 73, 64
2, 31080, Note_on_c, 0, 74, 107
2, 31128, Note_off_c, 0, 74, 64
2, 31140, Note_on_c, 0, 78, 107
2, 31188, Note_off_c, 0, 78, 64
2, 31200, Note_on_c, 0, 81, 107
2, 31248, Note_off_c, 0, 81, 64
2, 31260, Note_on_c, 0, 78, 107
2, 31308, Note_off_c, 0, 78, 64
2, 31320, Note_on_c, 0, 74, 107
2, 31368, Note_off_c, 0, 74, 64
2, 31380, Note_on_c, 0, 81, 107
2, 31428, Note_off_c, 0, 81, 64
2, 31440, Note_on_c, 0, 78, 107
2, 31488, Note_off_c, 0, 78, 64
2, 31500, Note_on_c, 0, 74, 107
2, 31548, Note_off_c, 0, 74, 64
2, 31560, Note_on_c, 0, 69, 107
2, 31608, Note_off_c, 0, 69, 64
2, 31620, Note_on_c, 0, 71, 107
2, 31668, Note_off_c, 0, 71, 64
2, 31680, Note_on_c, 0, 72, 107
2, 31728, Note_off_c, 0, 72, 64
2, 31740, Note_on_c, 0, 71, 107
2, 31788, Note_off_c, 0, 71, 64
2, 31800, Note_on_c, 0, 72, 107
2, 31848, Note_off_c, 0, 72, 64
2, 31860, Note_on_c, 0, 75, 107
2, 31908, Note_off_c, 0, 75, 64
2, 31920, Note_on_c, 0, 81, 107
2, 31968, Note_off_c, 0, 81, 64
2, 31980, Note_on_c, 0, 75, 107
2, 32028, Note_off_c, 0, 75, 64
2, 32040, Note_on_c, 0, 72, 107
2, 32088, Note_off_c, 0, 72, 64
2, 32100, Note_on_c, 0, 81, 107
2, 32148, Note_off_c, 0, 81, 64
2, 32160, Note_on_c, 0, 75, 107
2, 32208, Note_off_c, 0, 75, 64
2, 32220, Note_on_c, 0, 72, 107
2, 32268, Note_off_c, 0, 72, 64
2, 32280, Note_on_c, 0, 69, 107
2, 32328, Note_off_c, 0, 69, 64
2, 32340, Note_on_c, 0, 72, 107
2, 32388, Note_off_c, 0, 72, 64
2, 32400, Note_on_c, 0, 71, 107
2, 32400, Note_on_c, 0, 67, 107
2, 32496, Note_off_c, 0, 67, 64
2, 32496, Note_off_c, 0, 71, 64
2, 32880, Note_on_c, 0, 67, 107
2, 32880, Note_on_c, 0, 62, 107
2, 32976, Note_off_c, 0, 62, 64
2, 32976, Note_off_c, 0, 67, 64
2, 33000, Note_on_c, 0, 62, 107
2, 33000, Note_on_c, 0, 66, 107
2, 33000, Note_on_c, 0, 69, 107
2, 33096, Note_off_c, 0, 69, 64
2, 33096, Note_off_c, 0, 66, 64
2, 33096, Note_off_c, 0, 62, 64
2, 33120, Note_on_c, 0, 62, 107
2, 33120, Note_on_c, 0, 67, 107
2, 33120, Note_on_c, 0, 71, 107
2, 33216, Note_off_c, 0, 71, 64
2, 33216, Note_off_c, 0, 67, 64
2, 33216, Note_off_c, 0, 62, 64
2, 33600, Note_on_c, 0, 74, 107
2, 33600, Note_on_c, 0, 62, 107
2, 33600, Note_on_c, 0, 65, 107
2, 33600, Note_on_c, 0, 71, 107
2, 33696, Note_off_c, 0, 71, 64
2, 33696, Note_off_c, 0, 65, 64
2, 33696, Note_off_c, 0, 62, 64
2, 33696, Note_off_c, 0, 74, 64
2, 33720, Note_on_c, 0, 65, 107
2, 33720, Note_on_c, 0, 62, 107
2, 33720, Note_on_c, 0, 71, 107
2, 33720, Note_on_c, 0, 67, 107
2, 33816, Note_off_c, 0, 67, 64
2, 33816, Note_off_c, 0, 71, 64
2, 33816, Note_off_c, 0, 62, 64
2, 33816, Note_off_c, 0, 65, 64
2, 33840, Note_on_c, 0, 72, 107
2, 33840, Note_on_c, 0, 67, 107
2, 33888, Note_off_c, 0, 72, 64
2, 33900, Note_on_c, 0, 76, 107
2, 33936, Note_off_c, 0, 67, 64
2, 33948, Note_off_c, 0, 76, 64
2, 33960, Note_on_c, 0, 67, 107
2, 34008, Note_off_c, 0, 67, 64
2, 34020, Note_on_c, 0, 71, 107
2, 34068, Note_off_c, 0, 71, 64
2, 34080, Note_on_c, 0, 72, 107
2, 34128, Note_off_c, 0, 72, 64
2, 34140, Note_on_c, 0, 76, 107
2, 34188, Note_off_c, 0, 76, 64
2, 34200, Note_on_c, 0, 72, 107
2, 34248, Note_off_c, 0, 72, 64
2, 34260, Note_on_c, 0, 76, 107
2, 34308, Note_off_c, 0, 76, 64
2, 34320, Note_on_c, 0, 67, 107
2, 34368, Note_off_c, 0, 67, 64
2, 34380, Note_on_c, 0, 71, 107
2, 34428, Note_off_c, 0, 71, 64
2, 34440, Note_on_c, 0, 72, 107
2, 34488, Note_off_c, 0, 72, 64
2, 34500, Note_on_c, 0, 76, 107
2, 34548, Note_off_c, 0, 76, 64
2, 34560, Note_on_c, 0, 72, 107
2, 34608, Note_off_c, 0, 72, 64
2, 34620, Note_on_c, 0, 78, 107
2, 34668, Note_off_c, 0, 78, 64
2, 34680, Note_on_c, 0, 69, 107
2, 34728, Note_off_c, 0, 69, 64
2, 34740, Note_on_c, 0, 71, 107
2, 34788, Note_off_c, 0, 71, 64
2, 34800, Note_on_c, 0, 72, 107
2, 34848, Note_off_c, 0, 72, 64
2, 34860, Note_on_c, 0, 78, 107
2, 34908, Note_off_c, 0, 78, 64
2, 34920, Note_on_c, 0, 72, 107
2, 34968, Note_off_c, 0, 72, 64
2, 34980, Note_on_c, 0, 78, 107
2, 35028, Note_off_c, 0, 78, 64
2, 35040, Note_on_c, 0, 69, 107
2, 35088, Note_off_c, 0, 69, 64
2, 35100, Note_on_c, 0, 71, 107
2, 35148, Note_off_c, 0, 71, 64
2, 35160, Note_on_c, 0, 72, 107
2, 35208, Note_off_c, 0, 72, 64
2, 35220, Note_on_c, 0, 78, 107
2, 35268, Note_off_c, 0, 78, 64
2, 35280, Note_on_c, 0, 74, 107
2, 35328, Note_off_c, 0, 74, 64
2, 35340, Note_on_c, 0, 79, 107
2, 35388, Note_off_c, 0, 79, 64
2, 35400, Note_on_c, 0, 71, 107
2, 35448, Note_off_c, 0, 71, 64
2, 35460, Note_on_c, 0, 72, 107
2, 35508, Note_off_c, 0, 72, 64
2, 35520, Note_on_c, 0, 74, 107
2, 35568, Note_off_c, 0, 74, 64
2, 35580, Note_on_c, 0, 79, 107
2, 35628, Note_off_c, 0, 79, 64
2, 35640, Note_on_c, 0, 74, 107
2, 35688, Note_off_c, 0, 74, 64
2, 35700, Note_on_c, 0, 79, 107
2, 35748, Note_off_c, 0, 79, 64
2, 35760, Note_on_c, 0, 71, 107
2, 35808, Note_off_c, 0, 71, 64
2, 35820, Note_on_c, 0, 72, 107
2, 35868, Note_off_c, 0, 72, 64
2, 35880, Note_on_c, 0, 74, 107
2, 35928, Note_off_c, 0, 74, 64
2, 35940, Note_on_c, 0, 79, 107
2, 35988, Note_off_c, 0, 79, 64
2, 36000, Note_on_c, 0, 76, 107
2, 36048, Note_off_c, 0, 76, 64
2, 36060, Note_on_c, 0, 79, 107
2, 36108, Note_off_c, 0, 79, 64
2, 36120, Note_on_c, 0, 73, 107
2, 36168, Note_off_c, 0, 73, 64
2, 36180, Note_on_c, 0, 74, 107
2, 36228, Note_off_c, 0, 74, 64
2, 36240, Note_on_c, 0, 76, 107
2, 36288, Note_off_c, 0, 76, 64
2, 36300, Note_on_c, 0, 79, 107
2, 36348, Note_off_c, 0, 79, 64
2, 36360, Note_on_c, 0, 76, 107
2, 36408, Note_off_c, 0, 76, 64
2, 36420, Note_on_c, 0, 79, 107
2, 36468, Note_off_c, 0, 79, 64
2, 36480, Note_on_c, 0, 73, 107
2, 36528, Note_off_c, 0, 73, 64
2, 36540, Note_on_c, 0, 74, 107
2, 36588, Note_off_c, 0, 74, 64
2, 36600, Note_on_c, 0, 76, 107
2, 36648, Note_off_c, 0, 76, 64
2, 36660, Note_on_c, 0, 79, 107
2, 36708, Note_off_c, 0, 79, 64
2, 36720, Note_on_c, 0, 78, 107
2, 36720, Note_on_c, 0, 74, 107
2, 36816, Note_off_c, 0, 74, 64
2, 36816, Note_off_c, 0, 78, 64
2, 36840, Note_on_c, 0, 69, 107
2, 36840, Note_on_c, 0, 66, 107
2, 36840, Note_on_c, 0, 74, 107
2, 36984, Note_off_c, 0, 74, 64
2, 36984, Note_off_c, 0, 66, 64
2, 36984, Note_off_c, 0, 69, 64
2, 37020, Note_on_c, 0, 66, 107
2, 37020, Note_on_c, 0, 69, 107
2, 37020, Note_on_c, 0, 74, 107
2, 37068, Note_off_c, 0, 74, 64
2, 37068, Note_off_c, 0, 69, 64
2, 37068, Note_off_c, 0, 66, 64
2, 37080, Note_on_c, 0, 67, 107
2, 37080, Note_on_c, 0, 62, 107
2, 37176, Note_off_c, 0, 62, 64
2, 37176, Note_off_c, 0, 67, 64
2, 37200, Note_on_c, 0, 76, 107
2, 37200, Note_on_c, 0, 67, 107
2, 37248, Note_off_c, 0, 76, 64
2, 37260, Note_on_c, 0, 74, 107
2, 37296, Note_off_c, 0, 67, 64
2, 37308, Note_off_c, 0, 74, 64
2, 37320, Note_on_c, 0, 76, 107
2, 37368, Note_off_c, 0, 76, 64
2, 37380, Note_on_c, 0, 72, 107
2, 37428, Note_off_c, 0, 72, 64
2, 37440, Note_on_c, 0, 66, 107
2, 37536, Note_off_c, 0, 66, 64
2, 37560, Note_on_c, 0, 69, 107
2, 37560, Note_on_c, 0, 66, 107
2, 37560, Note_on_c, 0, 60, 107
2, 37656, Note_off_c, 0, 60, 64
2, 37656, Note_off_c, 0, 66, 64
2, 37704, Note_off_c, 0, 69, 64
2, 37740, Note_on_c, 0, 66, 107
2, 37740, Note_on_c, 0, 69, 107
2, 37740, Note_on_c, 0, 60, 107
2, 37788, Note_off_c, 0, 60, 64
2, 37788, Note_off_c, 0, 69, 64
2, 37788, Note_off_c, 0, 66, 64
2, 37800, Note_on_c, 0, 62, 107
2, 37800, Note_on_c, 0, 60, 107
2, 37896, Note_off_c, 0, 60, 64
2, 37896, Note_off_c, 0, 62, 64
2, 37920, Note_on_c, 0, 74, 107
2, 37968, Note_off_c, 0, 74, 64
2, 37980, Note_on_c, 0, 72, 107
2, 38028, Note_off_c, 0, 72, 64
2, 38040, Note_on_c, 0, 74, 107
2, 38088, Note_off_c, 0, 74, 64
2, 38100, Note_on_c, 0, 69, 107
2, 38148, Note_off_c, 0, 69, 64
2, 38160, Note_on_c, 0, 71, 107
2, 38208, Note_off_c, 0, 71, 64
2, 38220, Note_on_c, 0, 69, 107
2, 38268, Note_off_c, 0, 69, 64
2, 38280, Note_on_c, 0, 67, 107
2, 38328, Note_off_c, 0, 67, 64
2, 38340, Note_on_c, 0, 69, 107
2, 38388, Note_off_c, 0, 69, 64
2, 38400, Note_on_c, 0, 71, 107
2, 38448, Note_off_c, 0, 71, 64
2, 38460, Note_on_c, 0, 73, 107
2, 38508, Note_off_c, 0, 73, 64
2, 38520, Note_on_c, 0, 74, 107
2, 38568, Note_off_c, 0, 74, 64
2, 38580, Note_on_c, 0, 76, 107
2, 38628, Note_off_c, 0, 76, 64
2, 38640, Note_on_c, 0, 78, 107
2, 38688, Note_off_c, 0, 78, 64
2, 38700, Note_on_c, 0, 81, 107
2, 38748, Note_off_c, 0, 81, 64
2, 38760, Note_on_c, 0, 79, 107
2, 38808, Note_off_c, 0, 79, 64
2, 38820, Note_on_c, 0, 78, 107
2, 38868, Note_off_c, 0, 78, 64
2, 38880, Note_on_c, 0, 76, 107
2, 38928, Note_off_c, 0, 76, 64
2, 38940, Note_on_c, 0, 74, 107
2, 38988, Note_off_c, 0, 74, 64
2, 39000, Note_on_c, 0, 73, 107
2, 39048, Note_off_c, 0, 73, 64
2, 39060, Note_on_c, 0, 71, 107
2, 39108, Note_off_c, 0, 71, 64
2, 39120, Note_on_c, 0, 69, 107
2, 39168, Note_off_c, 0, 69, 64
2, 39180, Note_on_c, 0, 71, 107
2, 39228, Note_off_c, 0, 71, 64
2, 39240, Note_on_c, 0, 73, 107
2, 39288, Note_off_c, 0, 73, 64
2, 39300, Note_on_c, 0, 74, 107
2, 39348, Note_off_c, 0, 74, 64
2, 39360, Note_on_c, 0, 76, 107
2, 39408, Note_off_c, 0, 76, 64
2, 39420, Note_on_c, 0, 79, 107
2, 39468, Note_off_c, 0, 79, 64
2, 39480, Note_on_c, 0, 78, 107
2, 39528, Note_off_c, 0, 78, 64
2, 39540, Note_on_c, 0, 76, 107
2, 39588, Note_off_c, 0, 76, 64
2, 39600, Note_on_c, 0, 81, 107
2, 39648, Note_off_c, 0, 81, 64
2, 39660, Note_on_c, 0, 78, 107
2, 39708, Note_off_c, 0, 78, 64
2, 39720, Note_on_c, 0, 74, 107
2, 39768, Note_off_c, 0, 74, 64
2, 39780, Note_on_c, 0, 69, 107
2, 39828, Note_off_c, 0, 69, 64
2, 39840, Note_on_c, 0, 72, 107
2, 40008, Note_off_c, 0, 72, 64
2, 40020, Note_on_c, 0, 76, 107
2, 40068, Note_off_c, 0, 76, 64
2, 40080, Note_on_c, 0, 74, 107
2, 40128, Note_off_c, 0, 74, 64
2, 40140, Note_on_c, 0, 72, 107
2, 40188, Note_off_c, 0, 72, 64
2, 40200, Note_on_c, 0, 71, 107
2, 40248, Note_off_c, 0, 71, 64
2, 40260, Note_on_c, 0, 69, 107
2, 40308, Note_off_c, 0, 69, 64
2, 40320, Note_on_c, 0, 71, 107
2, 40416, Note_off_c, 0, 71, 64
2, 40500, Note_on_c, 0, 67, 107
2, 40548, Note_off_c, 0, 67, 64
2, 40560, Note_on_c, 0, 69, 107
2, 40608, Note_off_c, 0, 69, 64
2, 40620, Note_on_c, 0, 71, 107
2, 40668, Note_off_c, 0, 71, 64
2, 40680, Note_on_c, 0, 72, 107
2, 40728, Note_off_c, 0, 72, 64
2, 40740, Note_on_c, 0, 71, 107
2, 40788, Note_off_c, 0, 71, 64
2, 40800, Note_on_c, 0, 72, 107
2, 40848, Note_off_c, 0, 72, 64
2, 40860, Note_on_c, 0, 74, 107
2, 40908, Note_off_c, 0, 74, 64
2, 40920, Note_on_c, 0, 76, 107
2, 40968, Note_off_c, 0, 76, 64
2, 40980, Note_on_c, 0, 77, 107
2, 41028, Note_off_c, 0, 77, 64
2, 41040, Note_on_c, 0, 79, 107
2, 41088, Note_off_c, 0, 79, 64
2, 41100, Note_on_c, 0, 76, 107
2, 41148, Note_off_c, 0, 76, 64
2, 41160, Note_on_c, 0, 72, 107
2, 41208, Note_off_c, 0, 72, 64
2, 41220, Note_on_c, 0, 67, 107
2, 41268, Note_off_c, 0, 67, 64
2, 41280, Note_on_c, 0, 70, 107
2, 41448, Note_off_c, 0, 70, 64
2, 41460, Note_on_c, 0, 69, 107
2, 41508, Note_off_c, 0, 69, 64
2, 41520, Note_on_c, 0, 67, 107
2, 41568, Note_off_c, 0, 67, 64
2, 41580, Note_on_c, 0, 70, 107
2, 41628, Note_off_c, 0, 70, 64
2, 41640, Note_on_c, 0, 69, 107
2, 41688, Note_off_c, 0, 69, 64
2, 41700, Note_on_c, 0, 67, 107
2, 41748, Note_off_c, 0, 67, 64
2, 41760, Note_on_c, 0, 66, 107
2, 41808, Note_off_c, 0, 66, 64
2, 41820, Note_on_c, 0, 64, 107
2, 41868, Note_off_c, 0, 64, 64
2, 41880, Note_on_c, 0, 62, 107
2, 41928, Note_off_c, 0, 62, 64
2, 41940, Note_on_c, 0, 64, 107
2, 41988, Note_off_c, 0, 64, 64
2, 42000, Note_on_c, 0, 66, 107
2, 42048, Note_off_c, 0, 66, 64
2, 42060, Note_on_c, 0, 67, 107
2, 42108, Note_off_c, 0, 67, 64
2, 42120, Note_on_c, 0, 69, 107
2, 42168, Note_off_c, 0, 69, 64
2, 42180, Note_on_c, 0, 71, 107
2, 42228, Note_off_c, 0, 71, 64
2, 42240, Note_on_c, 0, 72, 107
2, 42288, Note_off_c, 0, 72, 64
2, 42300, Note_on_c, 0, 74, 107
2, 42348, Note_off_c, 0, 74, 64
2, 42360, Note_on_c, 0, 76, 107
2, 42408, Note_off_c, 0, 76, 64
2, 42420, Note_on_c, 0, 78, 107
2, 42468, Note_off_c, 0, 78, 64
2, 42480, Note_on_c, 0, 79, 107
2, 42480, Note_on_c, 0, 59, 107
2, 42528, Note_off_c, 0, 59, 64
2, 42540, Note_on_c, 0, 62, 107
2, 42576, Note_off_c, 0, 79, 64
2, 42588, Note_off_c, 0, 62, 64
2, 42600, Note_on_c, 0, 67, 107
2, 42600, Note_on_c, 0, 67, 107
2, 42648, Note_off_c, 0, 67, 64
2, 42660, Note_on_c, 0, 62, 107
2, 42696, Note_off_c, 0, 67, 64
2, 42708, Note_off_c, 0, 62, 64
2, 42720, Note_on_c, 0, 60, 107
2, 42720, Note_on_c, 0, 79, 107
2, 42768, Note_off_c, 0, 60, 64
2, 42780, Note_on_c, 0, 59, 107
2, 42810, Note_off_c, 0, 79, 64
2, 42828, Note_off_c, 0, 59, 64
2, 42840, Note_on_c, 0, 79, 107
2, 42840, Note_on_c, 0, 60, 107
2, 42888, Note_off_c, 0, 60, 64
2, 42900, Note_on_c, 0, 64, 107
2, 42936, Note_off_c, 0, 79, 64
2, 42948, Note_off_c, 0, 64, 64
2, 42960, Note_on_c, 0, 69, 107
2, 42960, Note_on_c, 0, 69, 107
2, 43008, Note_off_c, 0, 69, 64
2, 43020, Note_on_c, 0, 64, 107
2, 43056, Note_off_c, 0, 69, 64
2, 43068, Note_off_c, 0, 64, 64
2, 43080, Note_on_c, 0, 79, 107
2, 43080, Note_on_c, 0, 62, 107
2, 43128, Note_off_c, 0, 62, 64
2, 43140, Note_on_c, 0, 60, 107
2, 43170, Note_off_c, 0, 79, 64
2, 43188, Note_off_c, 0, 60, 64
2, 43200, Note_on_c, 0, 79, 107
2, 43200, Note_on_c, 0, 62, 107
2, 43248, Note_off_c, 0, 62, 64
2, 43260, Note_on_c, 0, 65, 107
2, 43296, Note_off_c, 0, 79, 64
2, 43308, Note_off_c, 0, 65, 64
2, 43320, Note_on_c, 0, 71, 107
2, 43320, Note_on_c, 0, 71, 107
2, 43368, Note_off_c, 0, 71, 64
2, 43380, Note_on_c, 0, 65, 107
2, 43416, Note_off_c, 0, 71, 64
2, 43428, Note_off_c, 0, 65, 64
2, 43440, Note_on_c, 0, 64, 107
2, 43440, Note_on_c, 0, 79, 107
2, 43488, Note_off_c, 0, 64, 64
2, 43500, Note_on_c, 0, 62, 107
2, 43530, Note_off_c, 0, 79, 64
2, 43548, Note_off_c, 0, 62, 64
2, 43560, Note_on_c, 0, 79, 107
2, 43560, Note_on_c, 0, 64, 107
2, 43608, Note_off_c, 0, 64, 64
2, 43620, Note_on_c, 0, 67, 107
2, 43656, Note_off_c, 0, 79, 64
2, 43668, Note_off_c, 0, 67, 64
2, 43680, Note_on_c, 0, 76, 107
2, 43680, Note_on_c, 0, 72, 107
2, 43728, Note_off_c, 0, 72, 64
2, 43740, Note_on_c, 0, 71, 107
2, 43776, Note_off_c, 0, 76, 64
2, 43788, Note_off_c, 0, 71, 64
2, 43800, Note_on_c, 0, 79, 107
2, 43800, Note_on_c, 0, 69, 107
2, 43848, Note_off_c, 0, 69, 64
2, 43860, Note_on_c, 0, 67, 107
2, 43890, Note_off_c, 0, 79, 64
2, 43908, Note_off_c, 0, 67, 64
2, 43920, Note_on_c, 0, 81, 107
2, 43920, Note_on_c, 0, 66, 107
2, 43968, Note_off_c, 0, 66, 64
2, 43968, Note_off_c, 0, 81, 64
2, 43980, Note_on_c, 0, 69, 107
2, 43980, Note_on_c, 0, 84, 107
2, 44028, Note_off_c, 0, 84, 64
2, 44028, Note_off_c, 0, 69, 64
2, 44040, Note_on_c, 0, 81, 107
2, 44040, Note_on_c, 0, 72, 107
2, 44088, Note_off_c, 0, 72, 64
2, 44088, Note_off_c, 0, 81, 64
2, 44100, Note_on_c, 0, 76, 107
2, 44100, Note_on_c, 0, 79, 107
2, 44148, Note_off_c, 0, 79, 64
2, 44148, Note_off_c, 0, 76, 64
2, 44160, Note_on_c, 0, 74, 107
2, 44160, Note_on_c, 0, 78, 107
2, 44208, Note_off_c, 0, 78, 64
2, 44208, Note_off_c, 0, 74, 64
2, 44220, Note_on_c, 0, 76, 107
2, 44220, Note_on_c, 0, 72, 107
2, 44268, Note_off_c, 0, 72, 64
2, 44268, Note_off_c, 0, 76, 64
2, 44280, Note_on_c, 0, 74, 107
2, 44280, Note_on_c, 0, 71, 107
2, 44328, Note_off_c, 0, 71, 64
2, 44340, Note_on_c, 0, 72, 107
2, 44376, Note_off_c, 0, 74, 64
2, 44388, Note_off_c, 0, 72, 64
2, 44400, Note_on_c, 0, 79, 107
2, 44400, Note_on_c, 0, 71, 107
2, 44448, Note_off_c, 0, 71, 64
2, 44460, Note_on_c, 0, 69, 107
2, 44496, Note_off_c, 0, 79, 64
2, 44508, Note_off_c, 0, 69, 64
2, 44520, Note_on_c, 0, 83, 107
2, 44520, Note_on_c, 0, 67, 107
2, 44568, Note_off_c, 0, 67, 64
2, 44580, Note_on_c, 0, 66, 107
2, 44616, Note_off_c, 0, 83, 64
2, 44628, Note_off_c, 0, 66, 64
2, 44640, Note_on_c, 0, 72, 107
2, 44640, Note_on_c, 0, 64, 107
2, 44688, Note_off_c, 0, 64, 64
2, 44700, Note_on_c, 0, 67, 107
2, 44736, Note_off_c, 0, 72, 64
2, 44748, Note_off_c, 0, 67, 64
2, 44760, Note_on_c, 0, 71, 107
2, 44760, Note_on_c, 0, 79, 107
2, 44808, Note_off_c, 0, 71, 64
2, 44820, Note_on_c, 0, 74, 107
2, 44856, Note_off_c, 0, 79, 64
2, 44868, Note_off_c, 0, 74, 64
2, 44880, Note_on_c, 0, 72, 107
2, 44880, Note_on_c, 0, 83, 107
2, 44928, Note_off_c, 0, 72, 64
2, 44940, Note_on_c, 0, 71, 107
2, 44976, Note_off_c, 0, 83, 64
2, 44988, Note_off_c, 0, 71, 64
2, 45000, Note_on_c, 0, 72, 107
2, 45000, Note_on_c, 0, 69, 107
2, 45048, Note_off_c, 0, 69, 64
2, 45060, Note_on_c, 0, 71, 107
2, 45096, Note_off_c, 0, 72, 64
2, 45108, Note_off_c, 0, 71, 64
2, 45120, Note_on_c, 0, 78, 107
2, 45120, Note_on_c, 0, 69, 107
2, 45168, Note_off_c, 0, 69, 64
2, 45180, Note_on_c, 0, 67, 107
2, 45216, Note_off_c, 0, 78, 64
2, 45228, Note_off_c, 0, 67, 64
2, 45240, Note_on_c, 0, 81, 107
2, 45240, Note_on_c, 0, 66, 107
2, 45288, Note_off_c, 0, 66, 64
2, 45300, Note_on_c, 0, 64, 107
2, 45336, Note_off_c, 0, 81, 64
2, 45348, Note_off_c, 0, 64, 64
2, 45360, Note_on_c, 0, 71, 107
2, 45360, Note_on_c, 0, 62, 107
2, 45408, Note_off_c, 0, 62, 64
2, 45420, Note_on_c, 0, 66, 107
2, 45456, Note_off_c, 0, 71, 64
2, 45468, Note_off_c, 0, 66, 64
2, 45480, Note_on_c, 0, 69, 107
2, 45480, Note_on_c, 0, 78, 107
2, 45528, Note_off_c, 0, 69, 64
2, 45540, Note_on_c, 0, 72, 107
2, 45576, Note_off_c, 0, 78, 64
2, 45588, Note_off_c, 0, 72, 64
2, 45600, Note_on_c, 0, 71, 107
2, 45600, Note_on_c, 0, 81, 107
2, 45648, Note_off_c, 0, 71, 64
2, 45660, Note_on_c, 0, 69, 107
2, 45696, Note_off_c, 0, 81, 64
2, 45708, Note_off_c, 0, 69, 64
2, 45720, Note_on_c, 0, 71, 107
2, 45720, Note_on_c, 0, 67, 107
2, 45768, Note_off_c, 0, 67, 64
2, 45780, Note_on_c, 0, 69, 107
2, 45816, Note_off_c, 0, 71, 64
2, 45828, Note_off_c, 0, 69, 64
2, 45840, Note_on_c, 0, 76, 107
2, 45840, Note_on_c, 0, 67, 107
2, 45888, Note_off_c, 0, 67, 64
2, 45900, Note_on_c, 0, 66, 107
2, 45936, Note_off_c, 0, 76, 64
2, 45948, Note_off_c, 0, 66, 64
2, 45960, Note_on_c, 0, 79, 107
2, 45960, Note_on_c, 0, 64, 107
2, 46008, Note_off_c, 0, 64, 64
2, 46020, Note_on_c, 0, 62, 107
2, 46056, Note_off_c, 0, 79, 64
2, 46068, Note_off_c, 0, 62, 64
2, 46080, Note_on_c, 0, 69, 107
2, 46080, Note_on_c, 0, 60, 107
2, 46128, Note_off_c, 0, 60, 64
2, 46140, Note_on_c, 0, 64, 107
2, 46176, Note_off_c, 0, 69, 64
2, 46188, Note_off_c, 0, 64, 64
2, 46200, Note_on_c, 0, 67, 107
2, 46200, Note_on_c, 0, 76, 107
2, 46248, Note_off_c, 0, 67, 64
2, 46260, Note_on_c, 0, 71, 107
2, 46296, Note_off_c, 0, 76, 64
2, 46308, Note_off_c, 0, 71, 64
2, 46320, Note_on_c, 0, 69, 107
2, 46320, Note_on_c, 0, 79, 107
2, 46368, Note_off_c, 0, 69, 64
2, 46380, Note_on_c, 0, 67, 107
2, 46416, Note_off_c, 0, 79, 64
2, 46428, Note_off_c, 0, 67, 64
2, 46440, Note_on_c, 0, 69, 107
2, 46440, Note_on_c, 0, 66, 107
2, 46488, Note_off_c, 0, 66, 64
2, 46500, Note_on_c, 0, 67, 107
2, 46536, Note_off_c, 0, 69, 64
2, 46548, Note_off_c, 0, 67, 64
2, 46560, Note_on_c, 0, 74, 107
2, 46560, Note_on_c, 0, 66, 107
2, 46608, Note_off_c, 0, 66, 64
2, 46620, Note_on_c, 0, 64, 107
2, 46656, Note_off_c, 0, 74, 64
2, 46668, Note_off_c, 0, 64, 64
2, 46680, Note_on_c, 0, 78, 107
2, 46680, Note_on_c, 0, 62, 107
2, 46728, Note_off_c, 0, 62, 64
2, 46740, Note_on_c, 0, 60, 107
2, 46776, Note_off_c, 0, 78, 64
2, 46788, Note_off_c, 0, 60, 64
2, 46800, Note_on_c, 0, 79, 107
2, 46860, Note_on_c, 0, 71, 107
2, 46908, Note_off_c, 0, 71, 64
2, 46920, Note_on_c, 0, 69, 107
2, 46944, Note_off_c, 0, 79, 64
2, 46980, Note_on_c, 0, 78, 107
2, 47016, Note_off_c, 0, 69, 64
2, 47028, Note_off_c, 0, 78, 64
2, 47040, Note_on_c, 0, 79, 107
2, 47088, Note_off_c, 0, 79, 64
2, 47100, Note_on_c, 0, 81, 107
2, 47148, Note_off_c, 0, 81, 64
2, 47160, Note_on_c, 0, 83, 107
2, 47220, Note_on_c, 0, 81, 107
2, 47268, Note_off_c, 0, 81, 64
2, 47280, Note_on_c, 0, 79, 107
2, 47328, Note_off_c, 0, 79, 64
2, 47340, Note_on_c, 0, 78, 107
2, 47388, Note_off_c, 0, 78, 64
2, 47400, Note_on_c, 0, 79, 107
2, 47448, Note_off_c, 0, 79, 64
2, 47448, Note_off_c, 0, 83, 64
2, 47460, Note_on_c, 0, 76, 107
2, 47508, Note_off_c, 0, 76, 64
2, 47520, Note_on_c, 0, 81, 107
2, 47520, Note_on_c, 0, 76, 107
2, 47568, Note_off_c, 0, 81, 64
2, 47580, Note_on_c, 0, 79, 107
2, 47628, Note_off_c, 0, 79, 64
2, 47640, Note_on_c, 0, 78, 107
2, 47664, Note_off_c, 0, 76, 64
2, 47700, Note_on_c, 0, 76, 107
2, 47748, Note_off_c, 0, 76, 64
2, 47760, Note_on_c, 0, 74, 107
2, 47784, Note_off_c, 0, 78, 64
2, 47820, Note_on_c, 0, 78, 107
2, 47868, Note_off_c, 0, 78, 64
2, 47880, Note_on_c, 0, 79, 107
2, 47928, Note_off_c, 0, 74, 64
2, 47940, Note_on_c, 0, 78, 107
2, 47988, Note_off_c, 0, 78, 64
2, 48000, Note_on_c, 0, 76, 107
2, 48048, Note_off_c, 0, 76, 64
2, 48060, Note_on_c, 0, 74, 107
2, 48072, Note_off_c, 0, 79, 64
2, 48108, Note_off_c, 0, 74, 64
2, 48120, Note_on_c, 0, 76, 107
2, 48168, Note_off_c, 0, 76, 64
2, 48180, Note_on_c, 0, 72, 107
2, 48240, Note_on_c, 0, 78, 107
2, 48288, Note_off_c, 0, 78, 64
2, 48300, Note_on_c, 0, 76, 107
2, 48348, Note_off_c, 0, 76, 64
2, 48360, Note_on_c, 0, 74, 107
2, 48384, Note_off_c, 0, 72, 64
2, 48420, Note_on_c, 0, 72, 107
2, 48468, Note_off_c, 0, 72, 64
2, 48480, Note_on_c, 0, 71, 107
2, 48504, Note_off_c, 0, 74, 64
2, 48540, Note_on_c, 0, 77, 107
2, 48588, Note_off_c, 0, 77, 64
2, 48600, Note_on_c, 0, 76, 107
2, 48648, Note_off_c, 0, 71, 64
2, 48660, Note_on_c, 0, 74, 107
2, 48708, Note_off_c, 0, 74, 64
2, 48720, Note_on_c, 0, 72, 107
2, 48768, Note_off_c, 0, 72, 64
2, 48780, Note_on_c, 0, 71, 107
2, 48828, Note_off_c, 0, 71, 64
2, 48840, Note_on_c, 0, 72, 107
2, 48888, Note_off_c, 0, 72, 64
2, 48888, Note_off_c, 0, 76, 64
2, 48900, Note_on_c, 0, 69, 107
2, 48960, Note_on_c, 0, 74, 107
2, 49008, Note_off_c, 0, 74, 64
2, 49020, Note_on_c, 0, 72, 107
2, 49068, Note_off_c, 0, 72, 64
2, 49080, Note_on_c, 0, 71, 107
2, 49104, Note_off_c, 0, 69, 64
2, 49140, Note_on_c, 0, 69, 107
2, 49188, Note_off_c, 0, 69, 64
2, 49200, Note_on_c, 0, 67, 107
2, 49224, Note_off_c, 0, 71, 64
2, 49260, Note_on_c, 0, 74, 107
2, 49308, Note_off_c, 0, 74, 64
2, 49320, Note_on_c, 0, 72, 107
2, 49368, Note_off_c, 0, 67, 64
2, 49380, Note_on_c, 0, 71, 107
2, 49428, Note_off_c, 0, 71, 64
2, 49440, Note_on_c, 0, 69, 107
2, 49488, Note_off_c, 0, 69, 64
2, 49500, Note_on_c, 0, 67, 107
2, 49548, Note_off_c, 0, 67, 64
2, 49560, Note_on_c, 0, 69, 107
2, 49608, Note_off_c, 0, 69, 64
2, 49620, Note_on_c, 0, 66, 107
2, 49668, Note_off_c, 0, 66, 64
2, 49680, Note_on_c, 0, 62, 107
2, 49728, Note_off_c, 0, 72, 64
2, 49740, Note_on_c, 0, 72, 107
2, 49788, Note_off_c, 0, 72, 64
2, 49800, Note_on_c, 0, 71, 107
2, 49848, Note_off_c, 0, 71, 64
2, 49860, Note_on_c, 0, 69, 107
2, 49908, Note_off_c, 0, 69, 64
2, 49920, Note_on_c, 0, 67, 107
2, 49968, Note_off_c, 0, 67, 64
2, 49968, Note_off_c, 0, 62, 64
2, 49980, Note_on_c, 0, 66, 107
2, 50028, Note_off_c, 0, 66, 64
2, 50040, Note_on_c, 0, 67, 107
2, 50040, Note_on_c, 0, 62, 107
2, 50088, Note_off_c, 0, 67, 64
2, 50100, Note_on_c, 0, 69, 107
2, 50136, Note_off_c, 0, 62, 64
2, 50148, Note_off_c, 0, 69, 64
2, 50160, Note_on_c, 0, 66, 107
2, 50160, Note_on_c, 0, 71, 107
2, 50184, Note_off_c, 0, 71, 64
2, 50190, Note_on_c, 0, 69, 107
2, 50214, Note_off_c, 0, 69, 64
2, 50220, Note_on_c, 0, 71, 107
2, 50244, Note_off_c, 0, 71, 64
2, 50250, Note_on_c, 0, 69, 107
2, 50274, Note_off_c, 0, 69, 64
2, 50280, Note_on_c, 0, 71, 107
2, 50304, Note_off_c, 0, 71, 64
2, 50310, Note_on_c, 0, 69, 107
2, 50334, Note_off_c, 0, 69, 64
2, 50340, Note_on_c, 0, 67, 107
2, 50352, Note_off_c, 0, 66, 64
2, 50364, Note_off_c, 0, 67, 64
2, 50370, Note_on_c, 0, 69, 107
2, 50394, Note_off_c, 0, 69, 64
2, 50400, Note_on_c, 0, 71, 107
2, 50460, Note_on_c, 0, 66, 107
2, 50508, Note_off_c, 0, 66, 64
2, 50520, Note_on_c, 0, 67, 107
2, 50568, Note_off_c, 0, 67, 64
2, 50580, Note_on_c, 0, 63, 107
2, 50628, Note_off_c, 0, 63, 64
2, 50640, Note_on_c, 0, 64, 107
2, 50688, Note_off_c, 0, 71, 64
2, 50700, Note_on_c, 0, 70, 107
2, 50736, Note_off_c, 0, 64, 64
2, 50748, Note_off_c, 0, 70, 64
2, 50760, Note_on_c, 0, 71, 107
2, 50808, Note_off_c, 0, 71, 64
2, 50820, Note_on_c, 0, 73, 107
2, 50868, Note_off_c, 0, 73, 64
2, 50880, Note_on_c, 0, 70, 107
2, 50880, Note_on_c, 0, 74, 107
2, 50904, Note_off_c, 0, 74, 64
2, 50910, Note_on_c, 0, 73, 107
2, 50934, Note_off_c, 0, 73, 64
2, 50940, Note_on_c, 0, 74, 107
2, 50964, Note_off_c, 0, 74, 64
2, 50970, Note_on_c, 0, 73, 107
2, 50994, Note_off_c, 0, 73, 64
2, 51000, Note_on_c, 0, 74, 107
2, 51024, Note_off_c, 0, 74, 64
2, 51030, Note_on_c, 0, 73, 107
2, 51054, Note_off_c, 0, 73, 64
2, 51060, Note_on_c, 0, 71, 107
2, 51072, Note_off_c, 0, 70, 64
2, 51084, Note_off_c, 0, 71, 64
2, 51090, Note_on_c, 0, 73, 107
2, 51114, Note_off_c, 0, 73, 64
2, 51120, Note_on_c, 0, 74, 107
2, 51180, Note_on_c, 0, 70, 107
2, 51228, Note_off_c, 0, 70, 64
2, 51240, Note_on_c, 0, 71, 107
2, 51288, Note_off_c, 0, 71, 64
2, 51300, Note_on_c, 0, 66, 107
2, 51348, Note_off_c, 0, 66, 64
2, 51360, Note_on_c, 0, 67, 107
2, 51408, Note_off_c, 0, 74, 64
2, 51420, Note_on_c, 0, 73, 107
2, 51456, Note_off_c, 0, 67, 64
2, 51468, Note_off_c, 0, 73, 64
2, 51480, Note_on_c, 0, 74, 107
2, 51528, Note_off_c, 0, 74, 64
2, 51540, Note_on_c, 0, 76, 107
2, 51588, Note_off_c, 0, 76, 64
2, 51600, Note_on_c, 0, 73, 107
2, 51600, Note_on_c, 0, 78, 107
2, 51624, Note_off_c, 0, 78, 64
2, 51630, Note_on_c, 0, 76, 107
2, 51654, Note_off_c, 0, 76, 64
2, 51660, Note_on_c, 0, 78, 107
2, 51684, Note_off_c, 0, 78, 64
2, 51690, Note_on_c, 0, 76, 107
2, 51714, Note_off_c, 0, 76, 64
2, 51720, Note_on_c, 0, 78, 107
2, 51744, Note_off_c, 0, 78, 64
2, 51750, Note_on_c, 0, 76, 107
2, 51774, Note_off_c, 0, 76, 64
2, 51780, Note_on_c, 0, 74, 107
2, 51804, Note_off_c, 0, 74, 64
2, 51810, Note_on_c, 0, 76, 107
2, 51834, Note_off_c, 0, 76, 64
2, 51840, Note_on_c, 0, 78, 107
2, 51888, Note_off_c, 0, 73, 64
2, 51900, Note_on_c, 0, 73, 107
2, 51948, Note_off_c, 0, 73, 64
2, 51960, Note_on_c, 0, 74, 107
2, 52008, Note_off_c, 0, 74, 64
2, 52020, Note_on_c, 0, 70, 107
2, 52068, Note_off_c, 0, 70, 64
2, 52080, Note_on_c, 0, 71, 107
2, 52128, Note_off_c, 0, 78, 64
2, 52140, Note_on_c, 0, 74, 107
2, 52176, Note_off_c, 0, 71, 64
2, 52188, Note_off_c, 0, 74, 64
2, 52200, Note_on_c, 0, 73, 107
2, 52200, Note_on_c, 0, 71, 107
2, 52248, Note_off_c, 0, 73, 64
2, 52260, Note_on_c, 0, 74, 107
2, 52296, Note_off_c, 0, 71, 64
2, 52308, Note_off_c, 0, 74, 64
2, 52320, Note_on_c, 0, 71, 107
2, 52320, Note_on_c, 0, 76, 107
2, 52368, Note_off_c, 0, 71, 64
2, 52380, Note_on_c, 0, 74, 107
2, 52428, Note_off_c, 0, 74, 64
2, 52440, Note_on_c, 0, 73, 107
2, 52488, Note_off_c, 0, 73, 64
2, 52500, Note_on_c, 0, 71, 107
2, 52512, Note_off_c, 0, 76, 64
2, 52548, Note_off_c, 0, 71, 64
2, 52560, Note_on_c, 0, 76, 107
2, 52560, Note_on_c, 0, 70, 107
2, 52608, Note_off_c, 0, 76, 64
2, 52620, Note_on_c, 0, 73, 107
2, 52644, Note_off_c, 0, 73, 64
2, 52650, Note_on_c, 0, 74, 107
2, 52674, Note_off_c, 0, 74, 64
2, 52680, Note_on_c, 0, 76, 107
2, 52704, Note_off_c, 0, 70, 64
2, 52740, Note_on_c, 0, 73, 107
2, 52776, Note_off_c, 0, 76, 64
2, 52788, Note_off_c, 0, 73, 64
2, 52800, Note_on_c, 0, 71, 107
2, 52848, Note_off_c, 0, 71, 64
2, 52860, Note_on_c, 0, 70, 107
2, 52908, Note_off_c, 0, 70, 64
2, 52920, Note_on_c, 0, 71, 107
2, 52980, Note_on_c, 0, 74, 107
2, 53004, Note_off_c, 0, 74, 64
2, 53010, Note_on_c, 0, 76, 107
2, 53034, Note_off_c, 0, 76, 64
2, 53040, Note_on_c, 0, 78, 107
2, 53064, Note_off_c, 0, 71, 64
2, 53100, Note_on_c, 0, 74, 107
2, 53136, Note_off_c, 0, 78, 64
2, 53148, Note_off_c, 0, 74, 64
2, 53160, Note_on_c, 0, 73, 107
2, 53208, Note_off_c, 0, 73, 64
2, 53220, Note_on_c, 0, 71, 107
2, 53268, Note_off_c, 0, 71, 64
2, 53280, Note_on_c, 0, 73, 107
2, 53340, Note_on_c, 0, 76, 107
2, 53388, Note_off_c, 0, 76, 64
2, 53400, Note_on_c, 0, 82, 107
2, 53424, Note_off_c, 0, 73, 64
2, 53460, Note_on_c, 0, 76, 107
2, 53496, Note_off_c, 0, 82, 64
2, 53508, Note_off_c, 0, 76, 64
2, 53520, Note_on_c, 0, 74, 107
2, 53568, Note_off_c, 0, 74, 64
2, 53580, Note_on_c, 0, 73, 107
2, 53628, Note_off_c, 0, 73, 64
2, 53640, Note_on_c, 0, 74, 107
2, 53700, Note_on_c, 0, 78, 107
2, 53748, Note_off_c, 0, 78, 64
2, 53760, Note_on_c, 0, 83, 107
2, 53784, Note_off_c, 0, 74, 64
2, 53820, Note_on_c, 0, 81, 107
2, 53856, Note_off_c, 0, 83, 64
2, 53868, Note_off_c, 0, 81, 64
2, 53880, Note_on_c, 0, 80, 107
2, 53928, Note_off_c, 0, 80, 64
2, 53940, Note_on_c, 0, 78, 107
2, 53988, Note_off_c, 0, 78, 64
2, 54000, Note_on_c, 0, 77, 107
2, 54048, Note_off_c, 0, 77, 64
2, 54060, Note_on_c, 0, 80, 107
2, 54108, Note_off_c, 0, 80, 64
2, 54120, Note_on_c, 0, 71, 107
2, 54168, Note_off_c, 0, 71, 64
2, 54180, Note_on_c, 0, 74, 107
2, 54228, Note_off_c, 0, 74, 64
2, 54240, Note_on_c, 0, 73, 107
2, 54288, Note_off_c, 0, 73, 64
2, 54300, Note_on_c, 0, 71, 107
2, 54348, Note_off_c, 0, 71, 64
2, 54360, Note_on_c, 0, 70, 107
2, 54408, Note_off_c, 0, 70, 64
2, 54420, Note_on_c, 0, 73, 107
2, 54468, Note_off_c, 0, 73, 64
2, 54480, Note_on_c, 0, 76, 107
2, 54528, Note_off_c, 0, 76, 64
2, 54540, Note_on_c, 0, 79, 107
2, 54588, Note_off_c, 0, 79, 64
2, 54600, Note_on_c, 0, 78, 107
2, 54648, Note_off_c, 0, 78, 64
2, 54660, Note_on_c, 0, 76, 107
2, 54708, Note_off_c, 0, 76, 64
2, 54720, Note_on_c, 0, 74, 107
2, 54780, Note_on_c, 0, 78, 107
2, 54828, Note_off_c, 0, 78, 64
2, 54840, Note_on_c, 0, 81, 107
2, 54888, Note_off_c, 0, 81, 64
2, 54900, Note_on_c, 0, 84, 107
2, 54948, Note_off_c, 0, 84, 64
2, 54960, Note_on_c, 0, 83, 107
2, 55008, Note_off_c, 0, 83, 64
2, 55020, Note_on_c, 0, 81, 107
2, 55068, Note_off_c, 0, 81, 64
2, 55080, Note_on_c, 0, 79, 107
2, 55128, Note_off_c, 0, 74, 64
2, 55140, Note_on_c, 0, 78, 107
2, 55188, Note_off_c, 0, 78, 64
2, 55200, Note_on_c, 0, 76, 107
2, 55248, Note_off_c, 0, 76, 64
2, 55260, Note_on_c, 0, 74, 107
2, 55308, Note_off_c, 0, 74, 64
2, 55320, Note_on_c, 0, 76, 107
2, 55368, Note_off_c, 0, 76, 64
2, 55380, Note_on_c, 0, 71, 107
2, 55428, Note_off_c, 0, 71, 64
2, 55440, Note_on_c, 0, 73, 107
2, 55488, Note_off_c, 0, 79, 64
2, 55500, Note_on_c, 0, 76, 107
2, 55548, Note_off_c, 0, 76, 64
2, 55560, Note_on_c, 0, 79, 107
2, 55608, Note_off_c, 0, 79, 64
2, 55620, Note_on_c, 0, 83, 107
2, 55668, Note_off_c, 0, 83, 64
2, 55680, Note_on_c, 0, 81, 107
2, 55728, Note_off_c, 0, 81, 64
2, 55740, Note_on_c, 0, 79, 107
2, 55788, Note_off_c, 0, 79, 64
2, 55800, Note_on_c, 0, 78, 107
2, 55848, Note_off_c, 0, 73, 64
2, 55860, Note_on_c, 0, 76, 107
2, 55908, Note_off_c, 0, 76, 64
2, 55920, Note_on_c, 0, 74, 107
2, 55968, Note_off_c, 0, 74, 64
2, 55980, Note_on_c, 0, 73, 107
2, 56028, Note_off_c, 0, 73, 64
2, 56040, Note_on_c, 0, 74, 107
2, 56088, Note_off_c, 0, 74, 64
2, 56100, Note_on_c, 0, 70, 107
2, 56148, Note_off_c, 0, 70, 64
2, 56160, Note_on_c, 0, 71, 107
2, 56208, Note_off_c, 0, 78, 64
2, 56220, Note_on_c, 0, 74, 107
2, 56268, Note_off_c, 0, 74, 64
2, 56280, Note_on_c, 0, 78, 107
2, 56328, Note_off_c, 0, 78, 64
2, 56340, Note_on_c, 0, 81, 107
2, 56388, Note_off_c, 0, 81, 64
2, 56400, Note_on_c, 0, 79, 107
2, 56448, Note_off_c, 0, 79, 64
2, 56460, Note_on_c, 0, 78, 107
2, 56508, Note_off_c, 0, 78, 64
2, 56520, Note_on_c, 0, 76, 107
2, 56568, Note_off_c, 0, 71, 64
2, 56580, Note_on_c, 0, 74, 107
2, 56628, Note_off_c, 0, 74, 64
2, 56640, Note_on_c, 0, 73, 107
2, 56688, Note_off_c, 0, 73, 64
2, 56700, Note_on_c, 0, 71, 107
2, 56748, Note_off_c, 0, 71, 64
2, 56760, Note_on_c, 0, 70, 107
2, 56808, Note_off_c, 0, 70, 64
2, 56820, Note_on_c, 0, 71, 107
2, 56868, Note_off_c, 0, 71, 64
2, 56880, Note_on_c, 0, 70, 107
2, 56976, Note_off_c, 0, 76, 64
2, 56976, Note_off_c, 0, 70, 64
2, 57000, Note_on_c, 0, 76, 107
2, 57000, Note_on_c, 0, 79, 107
2, 57090, Note_off_c, 0, 79, 64
2, 57096, Note_off_c, 0, 76, 64
2, 57120, Note_on_c, 0, 73, 107
2, 57120, Note_on_c, 0, 76, 107
2, 57210, Note_off_c, 0, 76, 64
2, 57216, Note_off_c, 0, 73, 64
2, 57240, Note_on_c, 0, 73, 107
2, 57240, Note_on_c, 0, 70, 107
2, 57330, Note_off_c, 0, 73, 64
2, 57336, Note_off_c, 0, 70, 64
2, 57360, Note_on_c, 0, 76, 107
2, 57360, Note_on_c, 0, 73, 107
2, 57450, Note_off_c, 0, 76, 64
2, 57456, Note_off_c, 0, 73, 64
2, 57480, Note_on_c, 0, 73, 107
2, 57480, Note_on_c, 0, 70, 107
2, 57570, Note_off_c, 0, 73, 64
2, 57576, Note_off_c, 0, 70, 64
2, 57600, Note_on_c, 0, 66, 107
2, 57600, Note_on_c, 0, 70, 107
2, 57690, Note_off_c, 0, 70, 64
2, 57696, Note_off_c, 0, 66, 64
2, 58080, Note_on_c, 0, 73, 107
2, 58080, Note_on_c, 0, 64, 107
2, 58080, Note_on_c, 0, 67, 107
2, 58080, Note_on_c, 0, 61, 107
2, 58170, Note_off_c, 0, 73, 64
2, 58176, Note_off_c, 0, 61, 64
2, 58176, Note_off_c, 0, 67, 64
2, 58176, Note_off_c, 0, 64, 64
2, 58200, Note_on_c, 0, 70, 107
2, 58200, Note_on_c, 0, 64, 107
2, 58200, Note_on_c, 0, 61, 107
2, 58200, Note_on_c, 0, 66, 107
2, 58290, Note_off_c, 0, 70, 64
2, 58296, Note_off_c, 0, 66, 64
2, 58296, Note_off_c, 0, 61, 64
2, 58296, Note_off_c, 0, 64, 64
2, 58320, Note_on_c, 0, 71, 107
2, 58368, Note_off_c, 0, 71, 64
2, 58380, Note_on_c, 0, 70, 107
2, 58428, Note_off_c, 0, 70, 64
2, 58440, Note_on_c, 0, 71, 107
2, 58488, Note_off_c, 0, 71, 64
2, 58500, Note_on_c, 0, 74, 107
2, 58548, Note_off_c, 0, 74, 64
2, 58560, Note_on_c, 0, 78, 107
2, 58608, Note_off_c, 0, 78, 64
2, 58620, Note_on_c, 0, 74, 107
2, 58668, Note_off_c, 0, 74, 64
2, 58680, Note_on_c, 0, 71, 107
2, 58728, Note_off_c, 0, 71, 64
2, 58740, Note_on_c, 0, 78, 107
2, 58788, Note_off_c, 0, 78, 64
2, 58800, Note_on_c, 0, 74, 107
2, 58848, Note_off_c, 0, 74, 64
2, 58860, Note_on_c, 0, 71, 107
2, 58908, Note_off_c, 0, 71, 64
2, 58920, Note_on_c, 0, 66, 107
2, 58968, Note_off_c, 0, 66, 64
2, 58980, Note_on_c, 0, 67, 107
2, 59028, Note_off_c, 0, 67, 64
2, 59040, Note_on_c, 0, 69, 107
2, 59088, Note_off_c, 0, 69, 64
2, 59100, Note_on_c, 0, 67, 107
2, 59148, Note_off_c, 0, 67, 64
2, 59160, Note_on_c, 0, 69, 107
2, 59208, Note_off_c, 0, 69, 64
2, 59220, Note_on_c, 0, 72, 107
2, 59268, Note_off_c, 0, 72, 64
2, 59280, Note_on_c, 0, 78, 107
2, 59328, Note_off_c, 0, 78, 64
2, 59340, Note_on_c, 0, 72, 107
2, 59388, Note_off_c, 0, 72, 64
2, 59400, Note_on_c, 0, 69, 107
2, 59448, Note_off_c, 0, 69, 64
2, 59460, Note_on_c, 0, 78, 107
2, 59508, Note_off_c, 0, 78, 64
2, 59520, Note_on_c, 0, 72, 107
2, 59568, Note_off_c, 0, 72, 64
2, 59580, Note_on_c, 0, 69, 107
2, 59628, Note_off_c, 0, 69, 64
2, 59640, Note_on_c, 0, 66, 107
2, 59688, Note_off_c, 0, 66, 64
2, 59700, Note_on_c, 0, 69, 107
2, 59748, Note_off_c, 0, 69, 64
2, 59760, Note_on_c, 0, 67, 107
2, 59760, Note_on_c, 0, 64, 107
2, 59856, Note_off_c, 0, 64, 64
2, 59856, Note_off_c, 0, 67, 64
2, 60240, Note_on_c, 0, 64, 107
2, 60240, Note_on_c, 0, 59, 107
2, 60330, Note_off_c, 0, 64, 64
2, 60336, Note_off_c, 0, 59, 64
2, 60360, Note_on_c, 0, 66, 107
2, 60360, Note_on_c, 0, 63, 107
2, 60360, Note_on_c, 0, 59, 107
2, 60450, Note_off_c, 0, 66, 64
2, 60456, Note_off_c, 0, 59, 64
2, 60456, Note_off_c, 0, 63, 64
2, 60480, Note_on_c, 0, 59, 107
2, 60480, Note_on_c, 0, 64, 107
2, 60480, Note_on_c, 0, 68, 107
2, 60570, Note_off_c, 0, 68, 64
2, 60576, Note_off_c, 0, 64, 64
2, 60576, Note_off_c, 0, 59, 64
2, 60960, Note_on_c, 0, 71, 107
2, 60960, Note_on_c, 0, 59, 107
2, 60960, Note_on_c, 0, 62, 107
2, 60960, Note_on_c, 0, 65, 107
2, 61050, Note_off_c, 0, 71, 64
2, 61056, Note_off_c, 0, 65, 64
2, 61056, Note_off_c, 0, 62, 64
2, 61056, Note_off_c, 0, 59, 64
2, 61080, Note_on_c, 0, 68, 107
2, 61080, Note_on_c, 0, 59, 107
2, 61080, Note_on_c, 0, 64, 107
2, 61080, Note_on_c, 0, 62, 107
2, 61170, Note_off_c, 0, 68, 64
2, 61176, Note_off_c, 0, 62, 64
2, 61176, Note_off_c, 0, 64, 64
2, 61176, Note_off_c, 0, 59, 64
2, 61200, Note_on_c, 0, 69, 107
2, 61248, Note_off_c, 0, 69, 64
2, 61260, Note_on_c, 0, 68, 107
2, 61308, Note_off_c, 0, 68, 64
2, 61320, Note_on_c, 0, 69, 107
2, 61368, Note_off_c, 0, 69, 64
2, 61380, Note_on_c, 0, 73, 107
2, 61428, Note_off_c, 0, 73, 64
2, 61440, Note_on_c, 0, 76, 107
2, 61488, Note_off_c, 0, 76, 64
2, 61500, Note_on_c, 0, 73, 107
2, 61548, Note_off_c, 0, 73, 64
2, 61560, Note_on_c, 0, 69, 107
2, 61608, Note_off_c, 0, 69, 64
2, 61620, Note_on_c, 0, 76, 107
2, 61668, Note_off_c, 0, 76, 64
2, 61680, Note_on_c, 0, 73, 107
2, 61728, Note_off_c, 0, 73, 64
2, 61740, Note_on_c, 0, 69, 107
2, 61788, Note_off_c, 0, 69, 64
2, 61800, Note_on_c, 0, 64, 107
2, 61848, Note_off_c, 0, 64, 64
2, 61860, Note_on_c, 0, 66, 107
2, 61908, Note_off_c, 0, 66, 64
2, 61920, Note_on_c, 0, 67, 107
2, 61968, Note_off_c, 0, 67, 64
2, 61980, Note_on_c, 0, 66, 107
2, 62028, Note_off_c, 0, 66, 64
2, 62040, Note_on_c, 0, 67, 107
2, 62088, Note_off_c, 0, 67, 64
2, 62100, Note_on_c, 0, 70, 107
2, 62148, Note_off_c, 0, 70, 64
2, 62160, Note_on_c, 0, 76, 107
2, 62208, Note_off_c, 0, 76, 64
2, 62220, Note_on_c, 0, 70, 107
2, 62268, Note_off_c, 0, 70, 64
2, 62280, Note_on_c, 0, 67, 107
2, 62328, Note_off_c, 0, 67, 64
2, 62340, Note_on_c, 0, 76, 107
2, 62388, Note_off_c, 0, 76, 64
2, 62400, Note_on_c, 0, 70, 107
2, 62448, Note_off_c, 0, 70, 64
2, 62460, Note_on_c, 0, 67, 107
2, 62508, Note_off_c, 0, 67, 64
2, 62520, Note_on_c, 0, 64, 107
2, 62568, Note_off_c, 0, 64, 64
2, 62580, Note_on_c, 0, 67, 107
2, 62628, Note_off_c, 0, 67, 64
2, 62640, Note_on_c, 0, 66, 107
2, 62688, Note_off_c, 0, 66, 64
2, 62700, Note_on_c, 0, 69, 107
2, 62748, Note_off_c, 0, 69, 64
2, 62760, Note_on_c, 0, 62, 107
2, 62808, Note_off_c, 0, 62, 64
2, 62820, Note_on_c, 0, 64, 107
2, 62868, Note_off_c, 0, 64, 64
2, 62880, Note_on_c, 0, 66, 107
2, 62928, Note_off_c, 0, 66, 64
2, 62940, Note_on_c, 0, 69, 107
2, 62988, Note_off_c, 0, 69, 64
2, 63000, Note_on_c, 0, 66, 107
2, 63048, Note_off_c, 0, 66, 64
2, 63060, Note_on_c, 0, 69, 107
2, 63108, Note_off_c, 0, 69, 64
2, 63120, Note_on_c, 0, 62, 107
2, 63168, Note_off_c, 0, 62, 64
2, 63180, Note_on_c, 0, 64, 107
2, 63228, Note_off_c, 0, 64, 64
2, 63240, Note_on_c, 0, 66, 107
2, 63288, Note_off_c, 0, 66, 64
2, 63300, Note_on_c, 0, 69, 107
2, 63348, Note_off_c, 0, 69, 64
2, 63360, Note_on_c, 0, 66, 107
2, 63408, Note_off_c, 0, 66, 64
2, 63420, Note_on_c, 0, 69, 107
2, 63468, Note_off_c, 0, 69, 64
2, 63480, Note_on_c, 0, 63, 107
2, 63528, Note_off_c, 0, 63, 64
2, 63540, Note_on_c, 0, 64, 107
2, 63588, Note_off_c, 0, 64, 64
2, 63600, Note_on_c, 0, 66, 107
2, 63648, Note_off_c, 0, 66, 64
2, 63660, Note_on_c, 0, 69, 107
2, 63708, Note_off_c, 0, 69, 64
2, 63720, Note_on_c, 0, 66, 107
2, 63768, Note_off_c, 0, 66, 64
2, 63780, Note_on_c, 0, 69, 107
2, 63828, Note_off_c, 0, 69, 64
2, 63840, Note_on_c, 0, 63, 107
2, 63888, Note_off_c, 0, 63, 64
2, 63900, Note_on_c, 0, 64, 107
2, 63948, Note_off_c, 0, 64, 64
2, 63960, Note_on_c, 0, 66, 107
2, 64008, Note_off_c, 0, 66, 64
2, 64020, Note_on_c, 0, 69, 107
2, 64068, Note_off_c, 0, 69, 64
2, 64080, Note_on_c, 0, 67, 107
2, 64128, Note_off_c, 0, 67, 64
2, 64140, Note_on_c, 0, 71, 107
2, 64188, Note_off_c, 0, 71, 64
2, 64200, Note_on_c, 0, 64, 107
2, 64248, Note_off_c, 0, 64, 64
2, 64260, Note_on_c, 0, 66, 107
2, 64308, Note_off_c, 0, 66, 64
2, 64320, Note_on_c, 0, 67, 107
2, 64368, Note_off_c, 0, 67, 64
2, 64380, Note_on_c, 0, 71, 107
2, 64428, Note_off_c, 0, 71, 64
2, 64440, Note_on_c, 0, 67, 107
2, 64488, Note_off_c, 0, 67, 64
2, 64500, Note_on_c, 0, 71, 107
2, 64548, Note_off_c, 0, 71, 64
2, 64560, Note_on_c, 0, 64, 107
2, 64608, Note_off_c, 0, 64, 64
2, 64620, Note_on_c, 0, 66, 107
2, 64668, Note_off_c, 0, 66, 64
2, 64680, Note_on_c, 0, 67, 107
2, 64728, Note_off_c, 0, 67, 64
2, 64740, Note_on_c, 0, 71, 107
2, 64788, Note_off_c, 0, 71, 64
2, 64800, Note_on_c, 0, 68, 107
2, 64848, Note_off_c, 0, 68, 64
2, 64860, Note_on_c, 0, 71, 107
2, 64908, Note_off_c, 0, 71, 64
2, 64920, Note_on_c, 0, 64, 107
2, 64968, Note_off_c, 0, 64, 64
2, 64980, Note_on_c, 0, 66, 107
2, 65028, Note_off_c, 0, 66, 64
2, 65040, Note_on_c, 0, 68, 107
2, 65088, Note_off_c, 0, 68, 64
2, 65100, Note_on_c, 0, 71, 107
2, 65148, Note_off_c, 0, 71, 64
2, 65160, Note_on_c, 0, 68, 107
2, 65208, Note_off_c, 0, 68, 64
2, 65220, Note_on_c, 0, 71, 107
2, 65268, Note_off_c, 0, 71, 64
2, 65280, Note_on_c, 0, 64, 107
2, 65328, Note_off_c, 0, 64, 64
2, 65340, Note_on_c, 0, 66, 107
2, 65388, Note_off_c, 0, 66, 64
2, 65400, Note_on_c, 0, 68, 107
2, 65448, Note_off_c, 0, 68, 64
2, 65460, Note_on_c, 0, 71, 107
2, 65508, Note_off_c, 0, 71, 64
2, 65520, Note_on_c, 0, 69, 107
2, 65616, Note_off_c, 0, 69, 64
2, 65640, Note_on_c, 0, 69, 107
2, 65640, Note_on_c, 0, 72, 107
2, 65640, Note_on_c, 0, 64, 107
2, 65640, Note_on_c, 0, 76, 107
2, 65784, Note_off_c, 0, 76, 64
2, 65784, Note_off_c, 0, 64, 64
2, 65784, Note_off_c, 0, 72, 64
2, 65784, Note_off_c, 0, 69, 64
2, 65820, Note_on_c, 0, 76, 107
2, 65868, Note_off_c, 0, 76, 64
2, 65880, Note_on_c, 0, 69, 107
2, 65976, Note_off_c, 0, 69, 64
2, 66000, Note_on_c, 0, 77, 107
2, 66048, Note_off_c, 0, 77, 64
2, 66060, Note_on_c, 0, 76, 107
2, 66108, Note_off_c, 0, 76, 64
2, 66120, Note_on_c, 0, 77, 107
2, 66168, Note_off_c, 0, 77, 64
2, 66180, Note_on_c, 0, 74, 107
2, 66228, Note_off_c, 0, 74, 64
2, 66240, Note_on_c, 0, 68, 107
2, 66336, Note_off_c, 0, 68, 64
2, 66360, Note_on_c, 0, 71, 107
2, 66504, Note_off_c, 0, 71, 64
2, 66540, Note_on_c, 0, 71, 107
2, 66588, Note_off_c, 0, 71, 64
2, 66600, Note_on_c, 0, 64, 107
2, 66696, Note_off_c, 0, 64, 64
2, 66720, Note_on_c, 0, 76, 107
2, 66768, Note_off_c, 0, 76, 64
2, 66780, Note_on_c, 0, 74, 107
2, 66828, Note_off_c, 0, 74, 64
2, 66840, Note_on_c, 0, 76, 107
2, 66888, Note_off_c, 0, 76, 64
2, 66900, Note_on_c, 0, 71, 107
2, 66948, Note_off_c, 0, 71, 64
2, 66960, Note_on_c, 0, 72, 107
2, 67008, Note_off_c, 0, 72, 64
2, 67020, Note_on_c, 0, 76, 107
2, 67068, Note_off_c, 0, 76, 64
2, 67080, Note_on_c, 0, 69, 107
2, 67128, Note_off_c, 0, 69, 64
2, 67140, Note_on_c, 0, 71, 107
2, 67188, Note_off_c, 0, 71, 64
2, 67200, Note_on_c, 0, 72, 107
2, 67248, Note_off_c, 0, 72, 64
2, 67260, Note_on_c, 0, 76, 107
2, 67308, Note_off_c, 0, 76, 64
2, 67320, Note_on_c, 0, 72, 107
2, 67368, Note_off_c, 0, 72, 64
2, 67380, Note_on_c, 0, 76, 107
2, 67428, Note_off_c, 0, 76, 64
2, 67440, Note_on_c, 0, 66, 107
2, 67488, Note_off_c, 0, 66, 64
2, 67500, Note_on_c, 0, 67, 107
2, 67548, Note_off_c, 0, 67, 64
2, 67560, Note_on_c, 0, 69, 107
2, 67608, Note_off_c, 0, 69, 64
2, 67620, Note_on_c, 0, 72, 107
2, 67668, Note_off_c, 0, 72, 64
2, 67680, Note_on_c, 0, 69, 107
2, 67728, Note_off_c, 0, 69, 64
2, 67740, Note_on_c, 0, 72, 107
2, 67788, Note_off_c, 0, 72, 64
2, 67800, Note_on_c, 0, 63, 107
2, 67848, Note_off_c, 0, 63, 64
2, 67860, Note_on_c, 0, 64, 107
2, 67908, Note_off_c, 0, 64, 64
2, 67920, Note_on_c, 0, 66, 107
2, 67968, Note_off_c, 0, 66, 64
2, 67980, Note_on_c, 0, 69, 107
2, 68028, Note_off_c, 0, 69, 64
2, 68040, Note_on_c, 0, 66, 107
2, 68088, Note_off_c, 0, 66, 64
2, 68100, Note_on_c, 0, 69, 107
2, 68148, Note_off_c, 0, 69, 64
2, 68160, Note_on_c, 0, 63, 107
2, 68208, Note_off_c, 0, 63, 64
2, 68220, Note_on_c, 0, 66, 107
2, 68268, Note_off_c, 0, 66, 64
2, 68280, Note_on_c, 0, 67, 107
2, 68328, Note_off_c, 0, 67, 64
2, 68340, Note_on_c, 0, 69, 107
2, 68388, Note_off_c, 0, 69, 64
2, 68400, Note_on_c, 0, 71, 107
2, 68448, Note_off_c, 0, 71, 64
2, 68460, Note_on_c, 0, 68, 107
2, 68508, Note_off_c, 0, 68, 64
2, 68520, Note_on_c, 0, 64, 107
2, 68568, Note_off_c, 0, 64, 64
2, 68580, Note_on_c, 0, 59, 107
2, 68628, Note_off_c, 0, 59, 64
2, 68640, Note_on_c, 0, 62, 107
2, 68808, Note_off_c, 0, 62, 64
2, 68820, Note_on_c, 0, 65, 107
2, 68868, Note_off_c, 0, 65, 64
2, 68880, Note_on_c, 0, 64, 107
2, 68928, Note_off_c, 0, 64, 64
2, 68940, Note_on_c, 0, 62, 107
2, 68988, Note_off_c, 0, 62, 64
2, 69000, Note_on_c, 0, 60, 107
2, 69048, Note_off_c, 0, 60, 64
2, 69060, Note_on_c, 0, 59, 107
2, 69108, Note_off_c, 0, 59, 64
2, 69120, Note_on_c, 0, 60, 107
2, 69216, Note_off_c, 0, 60, 64
2, 69300, Note_on_c, 0, 60, 107
2, 69348, Note_off_c, 0, 60, 64
2, 69360, Note_on_c, 0, 59, 107
2, 69408, Note_off_c, 0, 59, 64
2, 69420, Note_on_c, 0, 57, 107
2, 69468, Note_off_c, 0, 57, 64
2, 69480, Note_on_c, 0, 66, 107
2, 69576, Note_off_c, 0, 66, 64
2, 69660, Note_on_c, 0, 66, 107
2, 69708, Note_off_c, 0, 66, 64
2, 69720, Note_on_c, 0, 64, 107
2, 69768, Note_off_c, 0, 64, 64
2, 69780, Note_on_c, 0, 63, 107
2, 69828, Note_off_c, 0, 63, 64
2, 69840, Note_on_c, 0, 71, 107
2, 69936, Note_off_c, 0, 71, 64
2, 70020, Note_on_c, 0, 69, 107
2, 70068, Note_off_c, 0, 69, 64
2, 70080, Note_on_c, 0, 67, 107
2, 70128, Note_off_c, 0, 67, 64
2, 70140, Note_on_c, 0, 66, 107
2, 70188, Note_off_c, 0, 66, 64
2, 70200, Note_on_c, 0, 64, 107
2, 70248, Note_off_c, 0, 64, 64
2, 70260, Note_on_c, 0, 67, 107
2, 70308, Note_off_c, 0, 67, 64
2, 70320, Note_on_c, 0, 71, 107
2, 70368, Note_off_c, 0, 71, 64
2, 70380, Note_on_c, 0, 76, 107
2, 70428, Note_off_c, 0, 76, 64
2, 70440, Note_on_c, 0, 70, 107
2, 70608, Note_off_c, 0, 70, 64
2, 70620, Note_on_c, 0, 66, 107
2, 70668, Note_off_c, 0, 66, 64
2, 70680, Note_on_c, 0, 68, 107
2, 70728, Note_off_c, 0, 68, 64
2, 70740, Note_on_c, 0, 70, 107
2, 70788, Note_off_c, 0, 70, 64
2, 70800, Note_on_c, 0, 71, 107
2, 70848, Note_off_c, 0, 71, 64
2, 70860, Note_on_c, 0, 73, 107
2, 70908, Note_off_c, 0, 73, 64
2, 70920, Note_on_c, 0, 75, 107
2, 70968, Note_off_c, 0, 75, 64
2, 70980, Note_on_c, 0, 71, 107
2, 71028, Note_off_c, 0, 71, 64
2, 71040, Note_on_c, 0, 73, 107
2, 71088, Note_off_c, 0, 73, 64
2, 71100, Note_on_c, 0, 75, 107
2, 71148, Note_off_c, 0, 75, 64
2, 71160, Note_on_c, 0, 76, 107
2, 71208, Note_off_c, 0, 76, 64
2, 71220, Note_on_c, 0, 78, 107
2, 71268, Note_off_c, 0, 78, 64
2, 71280, Note_on_c, 0, 79, 107
2, 71328, Note_off_c, 0, 79, 64
2, 71340, Note_on_c, 0, 76, 107
2, 71388, Note_off_c, 0, 76, 64
2, 71400, Note_on_c, 0, 78, 107
2, 71448, Note_off_c, 0, 78, 64
2, 71460, Note_on_c, 0, 79, 107
2, 71508, Note_off_c, 0, 79, 64
2, 71520, Note_on_c, 0, 81, 107
2, 71568, Note_off_c, 0, 81, 64
2, 71580, Note_on_c, 0, 83, 107
2, 71628, Note_off_c, 0, 83, 64
2, 71640, Note_on_c, 0, 84, 107
2, 71700, Note_on_c, 0, 83, 107
2, 71748, Note_off_c, 0, 83, 64
2, 71760, Note_on_c, 0, 81, 107
2, 71808, Note_off_c, 0, 81, 64
2, 71820, Note_on_c, 0, 79, 107
2, 71832, Note_off_c, 0, 84, 64
2, 71868, Note_off_c, 0, 79, 64
2, 71880, Note_on_c, 0, 81, 107
2, 71928, Note_off_c, 0, 81, 64
2, 71940, Note_on_c, 0, 78, 107
2, 72000, Note_on_c, 0, 83, 107
2, 72048, Note_off_c, 0, 83, 64
2, 72060, Note_on_c, 0, 81, 107
2, 72096, Note_off_c, 0, 78, 64
2, 72108, Note_off_c, 0, 81, 64
2, 72120, Note_on_c, 0, 79, 107
2, 72180, Note_on_c, 0, 78, 107
2, 72228, Note_off_c, 0, 78, 64
2, 72240, Note_on_c, 0, 76, 107
2, 72264, Note_off_c, 0, 79, 64
2, 72300, Note_on_c, 0, 83, 107
2, 72348, Note_off_c, 0, 83, 64
2, 72360, Note_on_c, 0, 81, 107
2, 72408, Note_off_c, 0, 76, 64
2, 72420, Note_on_c, 0, 79, 107
2, 72468, Note_off_c, 0, 79, 64
2, 72480, Note_on_c, 0, 78, 107
2, 72528, Note_off_c, 0, 78, 64
2, 72540, Note_on_c, 0, 76, 107
2, 72588, Note_off_c, 0, 76, 64
2, 72600, Note_on_c, 0, 78, 107
2, 72648, Note_off_c, 0, 78, 64
2, 72648, Note_off_c, 0, 81, 64
2, 72660, Note_on_c, 0, 74, 107
2, 72720, Note_on_c, 0, 79, 107
2, 72768, Note_off_c, 0, 79, 64
2, 72780, Note_on_c, 0, 78, 107
2, 72828, Note_off_c, 0, 78, 64
2, 72840, Note_on_c, 0, 76, 107
2, 72864, Note_off_c, 0, 74, 64
2, 72900, Note_on_c, 0, 74, 107
2, 72948, Note_off_c, 0, 74, 64
2, 72960, Note_on_c, 0, 72, 107
2, 72984, Note_off_c, 0, 76, 64
2, 73020, Note_on_c, 0, 79, 107
2, 73068, Note_off_c, 0, 79, 64
2, 73080, Note_on_c, 0, 78, 107
2, 73128, Note_off_c, 0, 72, 64
2, 73140, Note_on_c, 0, 76, 107
2, 73188, Note_off_c, 0, 76, 64
2, 73200, Note_on_c, 0, 74, 107
2, 73248, Note_off_c, 0, 74, 64
2, 73260, Note_on_c, 0, 72, 107
2, 73308, Note_off_c, 0, 72, 64
2, 73320, Note_on_c, 0, 74, 107
2, 73368, Note_off_c, 0, 74, 64
2, 73368, Note_off_c, 0, 78, 64
2, 73380, Note_on_c, 0, 71, 107
2, 73440, Note_on_c, 0, 76, 107
2, 73488, Note_off_c, 0, 76, 64
2, 73500, Note_on_c, 0, 74, 107
2, 73548, Note_off_c, 0, 74, 64
2, 73560, Note_on_c, 0, 73, 107
2, 73584, Note_off_c, 0, 71, 64
2, 73620, Note_on_c, 0, 71, 107
2, 73668, Note_off_c, 0, 71, 64
2, 73680, Note_on_c, 0, 69, 107
2, 73704, Note_off_c, 0, 73, 64
2, 73740, Note_on_c, 0, 76, 107
2, 73788, Note_off_c, 0, 76, 64
2, 73800, Note_on_c, 0, 75, 107
2, 73848, Note_off_c, 0, 69, 64
2, 73860, Note_on_c, 0, 72, 107
2, 73896, Note_off_c, 0, 75, 64
2, 73908, Note_off_c, 0, 72, 64
2, 73920, Note_on_c, 0, 71, 107
2, 73920, Note_on_c, 0, 74, 107
2, 73968, Note_off_c, 0, 71, 64
2, 73980, Note_on_c, 0, 69, 107
2, 74028, Note_off_c, 0, 69, 64
2, 74040, Note_on_c, 0, 71, 107
2, 74088, Note_off_c, 0, 71, 64
2, 74100, Note_on_c, 0, 68, 107
2, 74148, Note_off_c, 0, 68, 64
2, 74160, Note_on_c, 0, 64, 107
2, 74208, Note_off_c, 0, 74, 64
2, 74220, Note_on_c, 0, 74, 107
2, 74268, Note_off_c, 0, 74, 64
2, 74280, Note_on_c, 0, 72, 107
2, 74328, Note_off_c, 0, 72, 64
2, 74340, Note_on_c, 0, 71, 107
2, 74388, Note_off_c, 0, 71, 64
2, 74400, Note_on_c, 0, 69, 107
2, 74448, Note_off_c, 0, 69, 64
2, 74460, Note_on_c, 0, 68, 107
2, 74508, Note_off_c, 0, 68, 64
2, 74520, Note_on_c, 0, 69, 107
2, 74568, Note_off_c, 0, 69, 64
2, 74580, Note_on_c, 0, 71, 107
2, 74616, Note_off_c, 0, 64, 64
2, 74628, Note_off_c, 0, 71, 64
2, 74640, Note_on_c, 0, 68, 107
2, 74640, Note_on_c, 0, 72, 107
2, 74664, Note_off_c, 0, 72, 64
2, 74670, Note_on_c, 0, 71, 107
2, 74694, Note_off_c, 0, 71, 64
2, 74700, Note_on_c, 0, 72, 107
2, 74724, Note_off_c, 0, 72, 64
2, 74730, Note_on_c, 0, 71, 107
2, 74754, Note_off_c, 0, 71, 64
2, 74760, Note_on_c, 0, 72, 107
2, 74784, Note_off_c, 0, 72, 64
2, 74790, Note_on_c, 0, 71, 107
2, 74814, Note_off_c, 0, 71, 64
2, 74820, Note_on_c, 0, 69, 107
2, 74832, Note_off_c, 0, 68, 64
2, 74844, Note_off_c, 0, 69, 64
2, 74850, Note_on_c, 0, 71, 107
2, 74874, Note_off_c, 0, 71, 64
2, 74880, Note_on_c, 0, 72, 107
2, 74940, Note_on_c, 0, 68, 107
2, 74988, Note_off_c, 0, 68, 64
2, 75000, Note_on_c, 0, 69, 107
2, 75048, Note_off_c, 0, 69, 64
2, 75060, Note_on_c, 0, 64, 107
2, 75072, Note_off_c, 0, 72, 64
2, 75108, Note_off_c, 0, 64, 64
2, 75120, Note_on_c, 0, 67, 107
2, 75180, Note_on_c, 0, 73, 107
2, 75216, Note_off_c, 0, 67, 64
2, 75228, Note_off_c, 0, 73, 64
2, 75240, Note_on_c, 0, 74, 107
2, 75288, Note_off_c, 0, 74, 64
2, 75300, Note_on_c, 0, 76, 107
2, 75348, Note_off_c, 0, 76, 64
2, 75360, Note_on_c, 0, 78, 107
2, 75360, Note_on_c, 0, 73, 107
2, 75384, Note_off_c, 0, 78, 64
2, 75390, Note_on_c, 0, 76, 107
2, 75414, Note_off_c, 0, 76, 64
2, 75420, Note_on_c, 0, 78, 107
2, 75444, Note_off_c, 0, 78, 64
2, 75450, Note_on_c, 0, 76, 107
2, 75474, Note_off_c, 0, 76, 64
2, 75480, Note_on_c, 0, 78, 107
2, 75504, Note_off_c, 0, 78, 64
2, 75510, Note_on_c, 0, 76, 107
2, 75534, Note_off_c, 0, 76, 64
2, 75540, Note_on_c, 0, 74, 107
2, 75552, Note_off_c, 0, 73, 64
2, 75564, Note_off_c, 0, 74, 64
2, 75570, Note_on_c, 0, 76, 107
2, 75594, Note_off_c, 0, 76, 64
2, 75600, Note_on_c, 0, 78, 107
2, 75660, Note_on_c, 0, 73, 107
2, 75708, Note_off_c, 0, 73, 64
2, 75720, Note_on_c, 0, 74, 107
2, 75768, Note_off_c, 0, 74, 64
2, 75780, Note_on_c, 0, 69, 107
2, 75792, Note_off_c, 0, 78, 64
2, 75828, Note_off_c, 0, 69, 64
2, 75840, Note_on_c, 0, 72, 107
2, 75900, Note_on_c, 0, 78, 107
2, 75936, Note_off_c, 0, 72, 64
2, 75948, Note_off_c, 0, 78, 64
2, 75960, Note_on_c, 0, 79, 107
2, 76008, Note_off_c, 0, 79, 64
2, 76020, Note_on_c, 0, 81, 107
2, 76068, Note_off_c, 0, 81, 64
2, 76080, Note_on_c, 0, 83, 107
2, 76080, Note_on_c, 0, 78, 107
2, 76104, Note_off_c, 0, 83, 64
2, 76110, Note_on_c, 0, 81, 107
2, 76134, Note_off_c, 0, 81, 64
2, 76140, Note_on_c, 0, 83, 107
2, 76164, Note_off_c, 0, 83, 64
2, 76170, Note_on_c, 0, 81, 107
2, 76194, Note_off_c, 0, 81, 64
2, 76200, Note_on_c, 0, 83, 107
2, 76224, Note_off_c, 0, 83, 64
2, 76230, Note_on_c, 0, 81, 107
2, 76254, Note_off_c, 0, 81, 64
2, 76260, Note_on_c, 0, 79, 107
2, 76272, Note_off_c, 0, 78, 64
2, 76284, Note_off_c, 0, 79, 64
2, 76290, Note_on_c, 0, 81, 107
2, 76314, Note_off_c, 0, 81, 64
2, 76320, Note_on_c, 0, 83, 107
2, 76368, Note_off_c, 0, 83, 64
2, 76380, Note_on_c, 0, 78, 107
2, 76428, Note_off_c, 0, 78, 64
2, 76440, Note_on_c, 0, 79, 107
2, 76488, Note_off_c, 0, 79, 64
2, 76500, Note_on_c, 0, 75, 107
2, 76548, Note_off_c, 0, 75, 64
2, 76560, Note_on_c, 0, 76, 107
2, 76608, Note_off_c, 0, 76, 64
2, 76620, Note_on_c, 0, 79, 107
2, 76668, Note_off_c, 0, 79, 64
2, 76680, Note_on_c, 0, 69, 107
2, 76728, Note_off_c, 0, 69, 64
2, 76740, Note_on_c, 0, 72, 107
2, 76788, Note_off_c, 0, 72, 64
2, 76800, Note_on_c, 0, 74, 107
2, 76848, Note_off_c, 0, 74, 64
2, 76860, Note_on_c, 0, 76, 107
2, 76908, Note_off_c, 0, 76, 64
2, 76920, Note_on_c, 0, 78, 107
2, 76968, Note_off_c, 0, 78, 64
2, 76980, Note_on_c, 0, 79, 107
2, 77028, Note_off_c, 0, 79, 64
2, 77040, Note_on_c, 0, 81, 107
2, 77136, Note_off_c, 0, 81, 64
2, 77160, Note_on_c, 0, 71, 107
2, 77256, Note_off_c, 0, 71, 64
2, 77280, Note_on_c, 0, 81, 107
2, 77370, Note_off_c, 0, 81, 64
2, 77400, Note_on_c, 0, 79, 107
2, 77496, Note_off_c, 0, 79, 64
2, 77520, Note_on_c, 0, 71, 107
2, 77616, Note_off_c, 0, 71, 64
2, 77640, Note_on_c, 0, 79, 107
2, 77730, Note_off_c, 0, 79, 64
2, 77760, Note_on_c, 0, 78, 107
2, 77856, Note_off_c, 0, 78, 64
2, 77880, Note_on_c, 0, 69, 107
2, 77976, Note_off_c, 0, 69, 64
2, 78000, Note_on_c, 0, 78, 107
2, 78090, Note_off_c, 0, 78, 64
2, 78120, Note_on_c, 0, 76, 107
2, 78216, Note_off_c, 0, 76, 64
2, 78240, Note_on_c, 0, 67, 107
2, 78336, Note_off_c, 0, 67, 64
2, 78360, Note_on_c, 0, 76, 107
2, 78450, Note_off_c, 0, 76, 64
2, 78480, Note_on_c, 0, 66, 107
2, 78480, Note_on_c, 0, 58, 107
2, 78528, Note_off_c, 0, 58, 64
2, 78528, Note_off_c, 0, 66, 64
2, 78540, Note_on_c, 0, 70, 107
2, 78540, Note_on_c, 0, 61, 107
2, 78588, Note_off_c, 0, 61, 64
2, 78588, Note_off_c, 0, 70, 64
2, 78600, Note_on_c, 0, 64, 107
2, 78600, Note_on_c, 0, 73, 107
2, 78648, Note_off_c, 0, 73, 64
2, 78648, Note_off_c, 0, 64, 64
2, 78660, Note_on_c, 0, 76, 107
2, 78660, Note_on_c, 0, 67, 107
2, 78708, Note_off_c, 0, 67, 64
2, 78708, Note_off_c, 0, 76, 64
2, 78720, Note_on_c, 0, 75, 107
2, 78720, Note_on_c, 0, 66, 107
2, 78768, Note_off_c, 0, 66, 64
2, 78768, Note_off_c, 0, 75, 64
2, 78780, Note_on_c, 0, 64, 107
2, 78780, Note_on_c, 0, 73, 107
2, 78828, Note_off_c, 0, 73, 64
2, 78828, Note_off_c, 0, 64, 64
2, 78840, Note_on_c, 0, 71, 107
2, 78840, Note_on_c, 0, 63, 107
2, 78888, Note_off_c, 0, 63, 64
2, 78888, Note_off_c, 0, 71, 64
2, 78900, Note_on_c, 0, 66, 107
2, 78900, Note_on_c, 0, 75, 107
2, 78948, Note_off_c, 0, 75, 64
2, 78948, Note_off_c, 0, 66, 64
2, 78960, Note_on_c, 0, 78, 107
2, 78960, Note_on_c, 0, 69, 107
2, 79008, Note_off_c, 0, 69, 64
2, 79008, Note_off_c, 0, 78, 64
2, 79020, Note_on_c, 0, 81, 107
2, 79020, Note_on_c, 0, 72, 107
2, 79068, Note_off_c, 0, 72, 64
2, 79068, Note_off_c, 0, 81, 64
2, 79080, Note_on_c, 0, 79, 107
2, 79080, Note_on_c, 0, 71, 107
2, 79128, Note_off_c, 0, 71, 64
2, 79128, Note_off_c, 0, 79, 64
2, 79140, Note_on_c, 0, 78, 107
2, 79140, Note_on_c, 0, 69, 107
2, 79188, Note_off_c, 0, 69, 64
2, 79188, Note_off_c, 0, 78, 64
2, 79200, Note_on_c, 0, 83, 107
2, 79248, Note_off_c, 0, 83, 64
2, 79260, Note_on_c, 0, 81, 107
2, 79308, Note_off_c, 0, 81, 64
2, 79320, Note_on_c, 0, 79, 107
2, 79368, Note_off_c, 0, 79, 64
2, 79380, Note_on_c, 0, 78, 107
2, 79428, Note_off_c, 0, 78, 64
2, 79440, Note_on_c, 0, 76, 107
2, 79488, Note_off_c, 0, 76, 64
2, 79500, Note_on_c, 0, 74, 107
2, 79548, Note_off_c, 0, 74, 64
2, 79560, Note_on_c, 0, 72, 107
2, 79608, Note_off_c, 0, 72, 64
2, 79620, Note_on_c, 0, 71, 107
2, 79668, Note_off_c, 0, 71, 64
2, 79680, Note_on_c, 0, 69, 107
2, 79728, Note_off_c, 0, 69, 64
2, 79740, Note_on_c, 0, 67, 107
2, 79788, Note_off_c, 0, 67, 64
2, 79800, Note_on_c, 0, 66, 107
2, 79848, Note_off_c, 0, 66, 64
2, 79860, Note_on_c, 0, 64, 107
2, 79908, Note_off_c, 0, 64, 64
2, 79920, Note_on_c, 0, 63, 107
2, 79968, Note_off_c, 0, 63, 64
2, 79980, Note_on_c, 0, 66, 107
2, 80028, Note_off_c, 0, 66, 64
2, 80040, Note_on_c, 0, 59, 107
2, 80088, Note_off_c, 0, 59, 64
2, 80100, Note_on_c, 0, 61, 107
2, 80148, Note_off_c, 0, 61, 64
2, 80160, Note_on_c, 0, 63, 107
2, 80208, Note_off_c, 0, 63, 64
2, 80220, Note_on_c, 0, 66, 107
2, 80268, Note_off_c, 0, 66, 64
2, 80280, Note_on_c, 0, 63, 107
2, 80328, Note_off_c, 0, 63, 64
2, 80340, Note_on_c, 0, 66, 107
2, 80388, Note_off_c, 0, 66, 64
2, 80400, Note_on_c, 0, 59, 107
2, 80448, Note_off_c, 0, 59, 64
2, 80460, Note_on_c, 0, 61, 107
2, 80508, Note_off_c, 0, 61, 64
2, 80520, Note_on_c, 0, 63, 107
2, 80568, Note_off_c, 0, 63, 64
2, 80580, Note_on_c, 0, 66, 107
2, 80628, Note_off_c, 0, 66, 64
2, 80640, Note_on_c, 0, 64, 107
2, 80688, Note_off_c, 0, 64, 64
2, 80700, Note_on_c, 0, 67, 107
2, 80748, Note_off_c, 0, 67, 64
2, 80760, Note_on_c, 0, 59, 107
2, 80808, Note_off_c, 0, 59, 64
2, 80820, Note_on_c, 0, 63, 107
2, 80868, Note_off_c, 0, 63, 64
2, 80880, Note_on_c, 0, 64, 107
2, 80928, Note_off_c, 0, 64, 64
2, 80940, Note_on_c, 0, 67, 107
2, 80988, Note_off_c, 0, 67, 64
2, 81000, Note_on_c, 0, 64, 107
2, 81048, Note_off_c, 0, 64, 64
2, 81060, Note_on_c, 0, 67, 107
2, 81108, Note_off_c, 0, 67, 64
2, 81120, Note_on_c, 0, 59, 107
2, 81168, Note_off_c, 0, 59, 64
2, 81180, Note_on_c, 0, 63, 107
2, 81228, Note_off_c, 0, 63, 64
2, 81240, Note_on_c, 0, 64, 107
2, 81288, Note_off_c, 0, 64, 64
2, 81300, Note_on_c, 0, 67, 107
2, 81348, Note_off_c, 0, 67, 64
2, 81360, Note_on_c, 0, 66, 107
2, 81408, Note_off_c, 0, 66, 64
2, 81420, Note_on_c, 0, 69, 107
2, 81468, Note_off_c, 0, 69, 64
2, 81480, Note_on_c, 0, 63, 107
2, 81528, Note_off_c, 0, 63, 64
2, 81540, Note_on_c, 0, 64, 107
2, 81588, Note_off_c, 0, 64, 64
2, 81600, Note_on_c, 0, 66, 107
2, 81648, Note_off_c, 0, 66, 64
2, 81660, Note_on_c, 0, 69, 107
2, 81708, Note_off_c, 0, 69, 64
2, 81720, Note_on_c, 0, 66, 107
2, 81768, Note_off_c, 0, 66, 64
2, 81780, Note_on_c, 0, 69, 107
2, 81828, Note_off_c, 0, 69, 64
2, 81840, Note_on_c, 0, 63, 107
2, 81888, Note_off_c, 0, 63, 64
2, 81900, Note_on_c, 0, 64, 107
2, 81948, Note_off_c, 0, 64, 64
2, 81960, Note_on_c, 0, 66, 107
2, 82008, Note_off_c, 0, 66, 64
2, 82020, Note_on_c, 0, 69, 107
2, 82068, Note_off_c, 0, 69, 64
2, 82080, Note_on_c, 0, 67, 107
2, 82128, Note_off_c, 0, 67, 64
2, 82140, Note_on_c, 0, 71, 107
2, 82188, Note_off_c, 0, 71, 64
2, 82200, Note_on_c, 0, 64, 107
2, 82248, Note_off_c, 0, 64, 64
2, 82260, Note_on_c, 0, 66, 107
2, 82308, Note_off_c, 0, 66, 64
2, 82320, Note_on_c, 0, 67, 107
2, 82368, Note_off_c, 0, 67, 64
2, 82380, Note_on_c, 0, 71, 107
2, 82428, Note_off_c, 0, 71, 64
2, 82440, Note_on_c, 0, 67, 107
2, 82488, Note_off_c, 0, 67, 64
2, 82500, Note_on_c, 0, 71, 107
2, 82548, Note_off_c, 0, 71, 64
2, 82560, Note_on_c, 0, 64, 107
2, 82608, Note_off_c, 0, 64, 64
2, 82620, Note_on_c, 0, 66, 107
2, 82668, Note_off_c, 0, 66, 64
2, 82680, Note_on_c, 0, 67, 107
2, 82728, Note_off_c, 0, 67, 64
2, 82740, Note_on_c, 0, 71, 107
2, 82788, Note_off_c, 0, 71, 64
2, 82800, Note_on_c, 0, 67, 107
2, 82848, Note_off_c, 0, 67, 64
2, 82860, Note_on_c, 0, 70, 107
2, 82908, Note_off_c, 0, 70, 64
2, 82920, Note_on_c, 0, 64, 107
2, 82968, Note_off_c, 0, 64, 64
2, 82980, Note_on_c, 0, 66, 107
2, 83028, Note_off_c, 0, 66, 64
2, 83040, Note_on_c, 0, 67, 107
2, 83088, Note_off_c, 0, 67, 64
2, 83100, Note_on_c, 0, 70, 107
2, 83148, Note_off_c, 0, 70, 64
2, 83160, Note_on_c, 0, 67, 107
2, 83208, Note_off_c, 0, 67, 64
2, 83220, Note_on_c, 0, 70, 107
2, 83268, Note_off_c, 0, 70, 64
2, 83280, Note_on_c, 0, 64, 107
2, 83328, Note_off_c, 0, 64, 64
2, 83340, Note_on_c, 0, 66, 107
2, 83388, Note_off_c, 0, 66, 64
2, 83400, Note_on_c, 0, 67, 107
2, 83448, Note_off_c, 0, 67, 64
2, 83460, Note_on_c, 0, 70, 107
2, 83508, Note_off_c, 0, 70, 64
2, 83520, Note_on_c, 0, 71, 107
2, 83616, Note_off_c, 0, 71, 64
2, 83640, Note_on_c, 0, 71, 107
2, 83640, Note_on_c, 0, 66, 107
2, 83640, Note_on_c, 0, 63, 107
2, 83736, Note_off_c, 0, 63, 64
2, 83736, Note_off_c, 0, 66, 64
2, 83784, Note_off_c, 0, 71, 64
2, 83820, Note_on_c, 0, 71, 107
2, 83868, Note_off_c, 0, 71, 64
2, 83880, Note_on_c, 0, 64, 107
2, 83976, Note_off_c, 0, 64, 64
2, 84000, Note_on_c, 0, 72, 107
2, 84048, Note_off_c, 0, 72, 64
2, 84060, Note_on_c, 0, 71, 107
2, 84108, Note_off_c, 0, 71, 64
2, 84120, Note_on_c, 0, 72, 107
2, 84168, Note_off_c, 0, 72, 64
2, 84180, Note_on_c, 0, 69, 107
2, 84228, Note_off_c, 0, 69, 64
2, 84240, Note_on_c, 0, 63, 107
2, 84336, Note_off_c, 0, 63, 64
2, 84360, Note_on_c, 0, 66, 107
2, 84504, Note_off_c, 0, 66, 64
2, 84540, Note_on_c, 0, 66, 107
2, 84588, Note_off_c, 0, 66, 64
2, 84600, Note_on_c, 0, 59, 107
2, 84696, Note_off_c, 0, 59, 64
2, 84720, Note_on_c, 0, 71, 107
2, 84768, Note_off_c, 0, 71, 64
2, 84780, Note_on_c, 0, 69, 107
2, 84828, Note_off_c, 0, 69, 64
2, 84840, Note_on_c, 0, 71, 107
2, 84888, Note_off_c, 0, 71, 64
2, 84900, Note_on_c, 0, 66, 107
2, 84948, Note_off_c, 0, 66, 64
2, 84960, Note_on_c, 0, 67, 107
2, 85008, Note_off_c, 0, 67, 64
2, 85020, Note_on_c, 0, 66, 107
2, 85068, Note_off_c, 0, 66, 64
2, 85080, Note_on_c, 0, 76, 107
2, 85080, Note_on_c, 0, 67, 107
2, 85128, Note_off_c, 0, 67, 64
2, 85140, Note_on_c, 0, 69, 107
2, 85188, Note_off_c, 0, 69, 64
2, 85200, Note_on_c, 0, 67, 107
2, 85224, Note_off_c, 0, 76, 64
2, 85248, Note_off_c, 0, 67, 64
2, 85260, Note_on_c, 0, 66, 107
2, 85260, Note_on_c, 0, 76, 107
2, 85308, Note_off_c, 0, 76, 64
2, 85308, Note_off_c, 0, 66, 64
2, 85320, Note_on_c, 0, 71, 107
2, 85320, Note_on_c, 0, 64, 107
2, 85368, Note_off_c, 0, 64, 64
2, 85380, Note_on_c, 0, 62, 107
2, 85416, Note_off_c, 0, 71, 64
2, 85428, Note_off_c, 0, 62, 64
2, 85440, Note_on_c, 0, 64, 107
2, 85440, Note_on_c, 0, 79, 107
2, 85488, Note_off_c, 0, 79, 64
2, 85488, Note_off_c, 0, 64, 64
2, 85500, Note_on_c, 0, 78, 107
2, 85500, Note_on_c, 0, 66, 107
2, 85548, Note_off_c, 0, 66, 64
2, 85548, Note_off_c, 0, 78, 64
2, 85560, Note_on_c, 0, 79, 107
2, 85560, Note_on_c, 0, 64, 107
2, 85608, Note_off_c, 0, 64, 64
2, 85608, Note_off_c, 0, 79, 64
2, 85620, Note_on_c, 0, 76, 107
2, 85620, Note_on_c, 0, 62, 107
2, 85668, Note_off_c, 0, 62, 64
2, 85668, Note_off_c, 0, 76, 64
2, 85680, Note_on_c, 0, 70, 107
2, 85776, Note_off_c, 0, 70, 64
2, 85800, Note_on_c, 0, 73, 107
2, 85944, Note_off_c, 0, 73, 64
2, 85980, Note_on_c, 0, 73, 107
2, 86028, Note_off_c, 0, 73, 64
2, 86040, Note_on_c, 0, 66, 107
2, 86136, Note_off_c, 0, 66, 64
2, 86160, Note_on_c, 0, 78, 107
2, 86208, Note_off_c, 0, 78, 64
2, 86220, Note_on_c, 0, 76, 107
2, 86268, Note_off_c, 0, 76, 64
2, 86280, Note_on_c, 0, 78, 107
2, 86328, Note_off_c, 0, 78, 64
2, 86340, Note_on_c, 0, 73, 107
2, 86388, Note_off_c, 0, 73, 64
2, 86400, Note_on_c, 0, 74, 107
2, 86400, Note_on_c, 0, 59, 107
2, 86448, Note_off_c, 0, 74, 64
2, 86460, Note_on_c, 0, 73, 107
2, 86496, Note_off_c, 0, 59, 64
2, 86508, Note_off_c, 0, 73, 64
2, 86520, Note_on_c, 0, 74, 107
2, 86520, Note_on_c, 0, 71, 107
2, 86568, Note_off_c, 0, 74, 64
2, 86580, Note_on_c, 0, 76, 107
2, 86628, Note_off_c, 0, 76, 64
2, 86640, Note_on_c, 0, 74, 107
2, 86664, Note_off_c, 0, 71, 64
2, 86688, Note_off_c, 0, 74, 64
2, 86700, Note_on_c, 0, 72, 107
2, 86700, Note_on_c, 0, 69, 107
2, 86748, Note_off_c, 0, 69, 64
2, 86748, Note_off_c, 0, 72, 64
2, 86760, Note_on_c, 0, 71, 107
2, 86760, Note_on_c, 0, 67, 107
2, 86808, Note_off_c, 0, 67, 64
2, 86820, Note_on_c, 0, 66, 107
2, 86856, Note_off_c, 0, 71, 64
2, 86868, Note_off_c, 0, 66, 64
2, 86880, Note_on_c, 0, 76, 107
2, 86880, Note_on_c, 0, 67, 107
2, 86928, Note_off_c, 0, 67, 64
2, 86940, Note_on_c, 0, 69, 107
2, 86988, Note_off_c, 0, 69, 64
2, 87000, Note_on_c, 0, 67, 107
2, 87024, Note_off_c, 0, 76, 64
2, 87048, Note_off_c, 0, 67, 64
2, 87060, Note_on_c, 0, 74, 107
2, 87060, Note_on_c, 0, 66, 107
2, 87108, Note_off_c, 0, 66, 64
2, 87108, Note_off_c, 0, 74, 64
2, 87120, Note_on_c, 0, 72, 107
2, 87120, Note_on_c, 0, 64, 107
2, 87168, Note_off_c, 0, 72, 64
2, 87180, Note_on_c, 0, 71, 107
2, 87216, Note_off_c, 0, 64, 64
2, 87228, Note_off_c, 0, 71, 64
2, 87240, Note_on_c, 0, 72, 107
2, 87240, Note_on_c, 0, 69, 107
2, 87288, Note_off_c, 0, 72, 64
2, 87300, Note_on_c, 0, 74, 107
2, 87348, Note_off_c, 0, 74, 64
2, 87360, Note_on_c, 0, 72, 107
2, 87384, Note_off_c, 0, 69, 64
2, 87408, Note_off_c, 0, 72, 64
2, 87420, Note_on_c, 0, 71, 107
2, 87420, Note_on_c, 0, 67, 107
2, 87468, Note_off_c, 0, 67, 64
2, 87468, Note_off_c, 0, 71, 64
2, 87480, Note_on_c, 0, 69, 107
2, 87480, Note_on_c, 0, 66, 107
2, 87528, Note_off_c, 0, 66, 64
2, 87540, Note_on_c, 0, 64, 107
2, 87576, Note_off_c, 0, 69, 64
2, 87588, Note_off_c, 0, 64, 64
2, 87600, Note_on_c, 0, 81, 107
2, 87600, Note_on_c, 0, 66, 107
2, 87648, Note_off_c, 0, 66, 64
2, 87660, Note_on_c, 0, 67, 107
2, 87708, Note_off_c, 0, 67, 64
2, 87720, Note_on_c, 0, 66, 107
2, 87744, Note_off_c, 0, 81, 64
2, 87768, Note_off_c, 0, 66, 64
2, 87780, Note_on_c, 0, 81, 107
2, 87780, Note_on_c, 0, 64, 107
2, 87828, Note_off_c, 0, 64, 64
2, 87828, Note_off_c, 0, 81, 64
2, 87840, Note_on_c, 0, 81, 107
2, 87840, Note_on_c, 0, 63, 107
2, 87888, Note_off_c, 0, 81, 64
2, 87900, Note_on_c, 0, 79, 107
2, 87936, Note_off_c, 0, 63, 64
2, 87948, Note_off_c, 0, 79, 64
2, 87960, Note_on_c, 0, 81, 107
2, 87960, Note_on_c, 0, 63, 107
2, 88008, Note_off_c, 0, 81, 64
2, 88020, Note_on_c, 0, 84, 107
2, 88068, Note_off_c, 0, 84, 64
2, 88080, Note_on_c, 0, 83, 107
2, 88104, Note_off_c, 0, 63, 64
2, 88128, Note_off_c, 0, 83, 64
2, 88140, Note_on_c, 0, 81, 107
2, 88140, Note_on_c, 0, 63, 107
2, 88188, Note_off_c, 0, 63, 64
2, 88188, Note_off_c, 0, 81, 64
2, 88200, Note_on_c, 0, 64, 107
2, 88200, Note_on_c, 0, 79, 107
2, 88248, Note_off_c, 0, 79, 64
2, 88260, Note_on_c, 0, 78, 107
2, 88296, Note_off_c, 0, 64, 64
2, 88308, Note_off_c, 0, 78, 64
2, 88320, Note_on_c, 0, 79, 107
2, 88368, Note_off_c, 0, 79, 64
2, 88380, Note_on_c, 0, 83, 107
2, 88428, Note_off_c, 0, 83, 64
2, 88440, Note_on_c, 0, 81, 107
2, 88488, Note_off_c, 0, 81, 64
2, 88500, Note_on_c, 0, 79, 107
2, 88548, Note_off_c, 0, 79, 64
2, 88560, Note_on_c, 0, 78, 107
2, 88608, Note_off_c, 0, 78, 64
2, 88620, Note_on_c, 0, 76, 107
2, 88668, Note_off_c, 0, 76, 64
2, 88680, Note_on_c, 0, 78, 107
2, 88728, Note_off_c, 0, 78, 64
2, 88740, Note_on_c, 0, 79, 107
2, 88788, Note_off_c, 0, 79, 64
2, 88800, Note_on_c, 0, 78, 107
2, 88848, Note_off_c, 0, 78, 64
2, 88860, Note_on_c, 0, 76, 107
2, 88908, Note_off_c, 0, 76, 64
2, 88920, Note_on_c, 0, 75, 107
2, 88968, Note_off_c, 0, 75, 64
2, 88980, Note_on_c, 0, 73, 107
2, 89028, Note_off_c, 0, 73, 64
2, 89040, Note_on_c, 0, 75, 107
2, 89088, Note_off_c, 0, 75, 64
2, 89100, Note_on_c, 0, 76, 107
2, 89148, Note_off_c, 0, 76, 64
2, 89160, Note_on_c, 0, 73, 107
2, 89208, Note_off_c, 0, 73, 64
2, 89220, Note_on_c, 0, 75, 107
2, 89268, Note_off_c, 0, 75, 64
2, 89280, Note_on_c, 0, 76, 107
2, 89328, Note_off_c, 0, 76, 64
2, 89340, Note_on_c, 0, 75, 107
2, 89388, Note_off_c, 0, 75, 64
2, 89400, Note_on_c, 0, 76, 107
2, 89448, Note_off_c, 0, 76, 64
2, 89460, Note_on_c, 0, 78, 107
2, 89508, Note_off_c, 0, 78, 64
2, 89520, Note_on_c, 0, 79, 107
2, 89568, Note_off_c, 0, 79, 64
2, 89580, Note_on_c, 0, 76, 107
2, 89628, Note_off_c, 0, 76, 64
2, 89640, Note_on_c, 0, 73, 107
2, 89688, Note_off_c, 0, 73, 64
2, 89700, Note_on_c, 0, 74, 107
2, 89748, Note_off_c, 0, 74, 64
2, 89760, Note_on_c, 0, 73, 107
2, 89808, Note_off_c, 0, 73, 64
2, 89820, Note_on_c, 0, 71, 107
2, 89868, Note_off_c, 0, 71, 64
2, 89880, Note_on_c, 0, 69, 107
2, 89928, Note_off_c, 0, 69, 64
2, 89940, Note_on_c, 0, 73, 107
2, 89988, Note_off_c, 0, 73, 64
2, 90000, Note_on_c, 0, 74, 107
2, 90048, Note_off_c, 0, 74, 64
2, 90060, Note_on_c, 0, 73, 107
2, 90108, Note_off_c, 0, 73, 64
2, 90120, Note_on_c, 0, 74, 107
2, 90168, Note_off_c, 0, 74, 64
2, 90180, Note_on_c, 0, 76, 107
2, 90228, Note_off_c, 0, 76, 64
2, 90240, Note_on_c, 0, 78, 107
2, 90288, Note_off_c, 0, 78, 64
2, 90300, Note_on_c, 0, 74, 107
2, 90348, Note_off_c, 0, 74, 64
2, 90360, Note_on_c, 0, 71, 107
2, 90408, Note_off_c, 0, 71, 64
2, 90420, Note_on_c, 0, 72, 107
2, 90468, Note_off_c, 0, 72, 64
2, 90480, Note_on_c, 0, 71, 107
2, 90528, Note_off_c, 0, 71, 64
2, 90540, Note_on_c, 0, 69, 107
2, 90588, Note_off_c, 0, 69, 64
2, 90600, Note_on_c, 0, 67, 107
2, 90648, Note_off_c, 0, 67, 64
2, 90660, Note_on_c, 0, 71, 107
2, 90708, Note_off_c, 0, 71, 64
2, 90720, Note_on_c, 0, 73, 107
2, 90768, Note_off_c, 0, 73, 64
2, 90780, Note_on_c, 0, 71, 107
2, 90828, Note_off_c, 0, 71, 64
2, 90840, Note_on_c, 0, 73, 107
2, 90888, Note_off_c, 0, 73, 64
2, 90900, Note_on_c, 0, 74, 107
2, 90948, Note_off_c, 0, 74, 64
2, 90960, Note_on_c, 0, 76, 107
2, 91008, Note_off_c, 0, 76, 64
2, 91020, Note_on_c, 0, 73, 107
2, 91068, Note_off_c, 0, 73, 64
2, 91080, Note_on_c, 0, 70, 107
2, 91128, Note_off_c, 0, 70, 64
2, 91140, Note_on_c, 0, 71, 107
2, 91188, Note_off_c, 0, 71, 64
2, 91200, Note_on_c, 0, 70, 107
2, 91248, Note_off_c, 0, 70, 64
2, 91260, Note_on_c, 0, 68, 107
2, 91308, Note_off_c, 0, 68, 64
2, 91320, Note_on_c, 0, 66, 107
2, 91368, Note_off_c, 0, 66, 64
2, 91380, Note_on_c, 0, 68, 107
2, 91428, Note_off_c, 0, 68, 64
2, 91440, Note_on_c, 0, 71, 107
2, 91488, Note_off_c, 0, 71, 64
2, 91500, Note_on_c, 0, 70, 107
2, 91548, Note_off_c, 0, 70, 64
2, 91560, Note_on_c, 0, 66, 107
2, 91560, Note_on_c, 0, 71, 107
2, 91608, Note_off_c, 0, 71, 64
2, 91620, Note_on_c, 0, 73, 107
2, 91668, Note_off_c, 0, 73, 64
2, 91680, Note_on_c, 0, 74, 107
2, 91704, Note_off_c, 0, 66, 64
2, 91728, Note_off_c, 0, 74, 64
2, 91740, Note_on_c, 0, 71, 107
2, 91740, Note_on_c, 0, 66, 107
2, 91788, Note_off_c, 0, 66, 64
2, 91788, Note_off_c, 0, 71, 64
2, 91800, Note_on_c, 0, 66, 107
2, 91800, Note_on_c, 0, 59, 107
2, 91896, Note_off_c, 0, 59, 64
2, 91896, Note_off_c, 0, 66, 64
2, 91920, Note_on_c, 0, 67, 107
2, 91968, Note_off_c, 0, 67, 64
2, 91980, Note_on_c, 0, 66, 107
2, 92028, Note_off_c, 0, 66, 64
2, 92040, Note_on_c, 0, 67, 107
2, 92088, Note_off_c, 0, 67, 64
2, 92100, Note_on_c, 0, 64, 107
2, 92148, Note_off_c, 0, 64, 64
2, 92280, Note_on_c, 0, 64, 107
2, 92424, Note_off_c, 0, 64, 64
2, 92460, Note_on_c, 0, 64, 107
2, 92508, Note_off_c, 0, 64, 64
2, 92520, Note_on_c, 0, 64, 107
2, 92616, Note_off_c, 0, 64, 64
2, 92640, Note_on_c, 0, 66, 107
2, 92688, Note_off_c, 0, 66, 64
2, 92700, Note_on_c, 0, 64, 107
2, 92748, Note_off_c, 0, 64, 64
2, 92760, Note_on_c, 0, 66, 107
2, 92808, Note_off_c, 0, 66, 64
2, 92820, Note_on_c, 0, 61, 107
2, 92868, Note_off_c, 0, 61, 64
2, 92880, Note_on_c, 0, 62, 107
2, 92940, Note_on_c, 0, 66, 107
2, 92988, Note_off_c, 0, 66, 64
2, 93000, Note_on_c, 0, 71, 107
2, 93024, Note_off_c, 0, 62, 64
2, 93060, Note_on_c, 0, 66, 107
2, 93096, Note_off_c, 0, 71, 64
2, 93108, Note_off_c, 0, 66, 64
2, 93120, Note_on_c, 0, 64, 107
2, 93168, Note_off_c, 0, 64, 64
2, 93180, Note_on_c, 0, 62, 107
2, 93228, Note_off_c, 0, 62, 64
2, 93240, Note_on_c, 0, 64, 107
2, 93300, Note_on_c, 0, 70, 107
2, 93324, Note_off_c, 0, 70, 64
2, 93330, Note_on_c, 0, 71, 107
2, 93354, Note_off_c, 0, 71, 64
2, 93360, Note_on_c, 0, 73, 107
2, 93384, Note_off_c, 0, 64, 64
2, 93420, Note_on_c, 0, 67, 107
2, 93456, Note_off_c, 0, 73, 64
2, 93468, Note_off_c, 0, 67, 64
2, 93480, Note_on_c, 0, 66, 107
2, 93528, Note_off_c, 0, 66, 64
2, 93540, Note_on_c, 0, 64, 107
2, 93588, Note_off_c, 0, 64, 64
2, 93600, Note_on_c, 0, 66, 107
2, 93660, Note_on_c, 0, 71, 107
2, 93684, Note_off_c, 0, 71, 64
2, 93690, Note_on_c, 0, 73, 107
2, 93714, Note_off_c, 0, 73, 64
2, 93720, Note_on_c, 0, 74, 107
2, 93744, Note_off_c, 0, 66, 64
2, 93780, Note_on_c, 0, 69, 107
2, 93816, Note_off_c, 0, 74, 64
2, 93828, Note_off_c, 0, 69, 64
2, 93840, Note_on_c, 0, 67, 107
2, 93888, Note_off_c, 0, 67, 64
2, 93900, Note_on_c, 0, 66, 107
2, 93948, Note_off_c, 0, 66, 64
2, 93960, Note_on_c, 0, 67, 107
2, 94020, Note_on_c, 0, 73, 107
2, 94050, Note_off_c, 0, 73, 64
2, 94050, Note_on_c, 0, 74, 107
2, 94080, Note_off_c, 0, 74, 64
2, 94080, Note_on_c, 0, 76, 107
2, 94104, Note_off_c, 0, 67, 64
2, 94140, Note_on_c, 0, 74, 107
2, 94188, Note_off_c, 0, 74, 64
2, 94200, Note_off_c, 0, 76, 64
2, 94200, Note_on_c, 0, 73, 107
2, 94248, Note_off_c, 0, 73, 64
2, 94260, Note_on_c, 0, 71, 107
2, 94308, Note_off_c, 0, 71, 64
2, 94320, Note_on_c, 0, 70, 107
2, 94380, Note_on_c, 0, 73, 107
2, 94416, Note_off_c, 0, 70, 64
2, 94428, Note_off_c, 0, 73, 64
2, 94440, Note_on_c, 0, 76, 107
2, 94488, Note_off_c, 0, 76, 64
2, 94500, Note_on_c, 0, 79, 107
2, 94548, Note_off_c, 0, 79, 64
2, 94560, Note_on_c, 0, 78, 107
2, 94608, Note_off_c, 0, 78, 64
2, 94620, Note_on_c, 0, 76, 107
2, 94668, Note_off_c, 0, 76, 64
2, 94680, Note_on_c, 0, 74, 107
2, 94740, Note_on_c, 0, 73, 107
2, 94788, Note_off_c, 0, 73, 64
2, 94800, Note_on_c, 0, 71, 107
2, 94848, Note_off_c, 0, 71, 64
2, 94860, Note_on_c, 0, 69, 107
2, 94908, Note_off_c, 0, 69, 64
2, 94920, Note_on_c, 0, 71, 107
2, 94968, Note_off_c, 0, 71, 64
2, 94980, Note_on_c, 0, 66, 107
2, 95028, Note_off_c, 0, 66, 64
2, 95040, Note_on_c, 0, 68, 107
2, 95088, Note_off_c, 0, 74, 64
2, 95100, Note_on_c, 0, 71, 107
2, 95136, Note_off_c, 0, 68, 64
2, 95148, Note_off_c, 0, 71, 64
2, 95160, Note_on_c, 0, 74, 107
2, 95208, Note_off_c, 0, 74, 64
2, 95220, Note_on_c, 0, 77, 107
2, 95268, Note_off_c, 0, 77, 64
2, 95280, Note_on_c, 0, 76, 107
2, 95328, Note_off_c, 0, 76, 64
2, 95340, Note_on_c, 0, 74, 107
2, 95388, Note_off_c, 0, 74, 64
2, 95400, Note_on_c, 0, 72, 107
2, 95460, Note_on_c, 0, 71, 107
2, 95508, Note_off_c, 0, 71, 64
2, 95520, Note_on_c, 0, 69, 107
2, 95568, Note_off_c, 0, 69, 64
2, 95580, Note_on_c, 0, 68, 107
2, 95628, Note_off_c, 0, 68, 64
2, 95640, Note_on_c, 0, 69, 107
2, 95688, Note_off_c, 0, 69, 64
2, 95700, Note_on_c, 0, 64, 107
2, 95748, Note_off_c, 0, 64, 64
2, 95760, Note_on_c, 0, 66, 107
2, 95808, Note_off_c, 0, 72, 64
2, 95820, Note_on_c, 0, 69, 107
2, 95856, Note_off_c, 0, 66, 64
2, 95868, Note_off_c, 0, 69, 64
2, 95880, Note_on_c, 0, 72, 107
2, 95928, Note_off_c, 0, 72, 64
2, 95940, Note_on_c, 0, 76, 107
2, 95988, Note_off_c, 0, 76, 64
2, 96000, Note_on_c, 0, 74, 107
2, 96048, Note_off_c, 0, 74, 64
2, 96060, Note_on_c, 0, 72, 107
2, 96108, Note_off_c, 0, 72, 64
2, 96120, Note_on_c, 0, 71, 107
2, 96180, Note_on_c, 0, 69, 107
2, 96228, Note_off_c, 0, 69, 64
2, 96240, Note_on_c, 0, 67, 107
2, 96288, Note_off_c, 0, 67, 64
2, 96300, Note_on_c, 0, 66, 107
2, 96348, Note_off_c, 0, 66, 64
2, 96360, Note_on_c, 0, 67, 107
2, 96408, Note_off_c, 0, 67, 64
2, 96420, Note_on_c, 0, 63, 107
2, 96468, Note_off_c, 0, 63, 64
2, 96480, Note_on_c, 0, 64, 107
2, 96528, Note_off_c, 0, 71, 64
2, 96540, Note_on_c, 0, 67, 107
2, 96576, Note_off_c, 0, 64, 64
2, 96588, Note_off_c, 0, 67, 64
2, 96600, Note_on_c, 0, 71, 107
2, 96648, Note_off_c, 0, 71, 64
2, 96660, Note_on_c, 0, 74, 107
2, 96708, Note_off_c, 0, 74, 64
2, 96720, Note_on_c, 0, 72, 107
2, 96768, Note_off_c, 0, 72, 64
2, 96780, Note_on_c, 0, 71, 107
2, 96828, Note_off_c, 0, 71, 64
2, 96840, Note_on_c, 0, 69, 107
2, 96900, Note_on_c, 0, 67, 107
2, 96948, Note_off_c, 0, 67, 64
2, 96960, Note_on_c, 0, 66, 107
2, 97008, Note_off_c, 0, 66, 64
2, 97020, Note_on_c, 0, 64, 107
2, 97068, Note_off_c, 0, 64, 64
2, 97080, Note_on_c, 0, 66, 107
2, 97128, Note_off_c, 0, 66, 64
2, 97140, Note_on_c, 0, 61, 107
2, 97188, Note_off_c, 0, 61, 64
2, 97200, Note_on_c, 0, 63, 107
2, 97296, Note_off_c, 0, 63, 64
2, 97296, Note_off_c, 0, 69, 64
2, 97320, Note_on_c, 0, 83, 107
2, 97320, Note_on_c, 0, 78, 107
2, 97320, Note_on_c, 0, 75, 107
2, 97416, Note_off_c, 0, 75, 64
2, 97416, Note_off_c, 0, 78, 64
2, 97464, Note_off_c, 0, 83, 64
2, 97500, Note_on_c, 0, 83, 107
2, 97548, Note_off_c, 0, 83, 64
2, 97560, Note_on_c, 0, 71, 107
2, 97560, Note_on_c, 0, 76, 107
2, 97656, Note_off_c, 0, 76, 64
2, 97656, Note_off_c, 0, 71, 64
2, 97680, Note_on_c, 0, 84, 107
2, 97680, Note_on_c, 0, 76, 107
2, 97680, Note_on_c, 0, 81, 107
2, 97728, Note_off_c, 0, 84, 64
2, 97740, Note_on_c, 0, 83, 107
2, 97776, Note_off_c, 0, 81, 64
2, 97776, Note_off_c, 0, 76, 64
2, 97788, Note_off_c, 0, 83, 64
2, 97800, Note_on_c, 0, 84, 107
2, 97848, Note_off_c, 0, 84, 64
2, 97860, Note_on_c, 0, 81, 107
2, 97908, Note_off_c, 0, 81, 64
2, 97920, Note_on_c, 0, 75, 107
2, 98016, Note_off_c, 0, 75, 64
2, 98040, Note_on_c, 0, 72, 107
2, 98040, Note_on_c, 0, 69, 107
2, 98040, Note_on_c, 0, 78, 107
2, 98136, Note_off_c, 0, 69, 64
2, 98136, Note_off_c, 0, 72, 64
2, 98184, Note_off_c, 0, 78, 64
2, 98220, Note_on_c, 0, 78, 107
2, 98268, Note_off_c, 0, 78, 64
2, 98280, Note_on_c, 0, 71, 107
2, 98376, Note_off_c, 0, 71, 64
2, 98400, Note_on_c, 0, 83, 107
2, 98400, Note_on_c, 0, 71, 107
2, 98400, Note_on_c, 0, 78, 107
2, 98448, Note_off_c, 0, 83, 64
2, 98460, Note_on_c, 0, 81, 107
2, 98496, Note_off_c, 0, 78, 64
2, 98496, Note_off_c, 0, 71, 64
2, 98508, Note_off_c, 0, 81, 64
2, 98520, Note_on_c, 0, 83, 107
2, 98568, Note_off_c, 0, 83, 64
2, 98580, Note_on_c, 0, 78, 107
2, 98628, Note_off_c, 0, 78, 64
2, 98640, Note_on_c, 0, 79, 107
2, 98688, Note_off_c, 0, 79, 64
2, 98700, Note_on_c, 0, 81, 107
2, 98748, Note_off_c, 0, 81, 64
2, 98760, Note_on_c, 0, 79, 107
2, 98808, Note_off_c, 0, 79, 64
2, 98820, Note_on_c, 0, 78, 107
2, 98868, Note_off_c, 0, 78, 64
2, 98880, Note_on_c, 0, 76, 107
2, 98928, Note_off_c, 0, 76, 64
2, 98940, Note_on_c, 0, 79, 107
2, 98988, Note_off_c, 0, 79, 64
2, 99000, Note_on_c, 0, 81, 107
2, 99048, Note_off_c, 0, 81, 64
2, 99060, Note_on_c, 0, 79, 107
2, 99108, Note_off_c, 0, 79, 64
2, 99120, Note_on_c, 0, 81, 107
2, 99168, Note_off_c, 0, 81, 64
2, 99180, Note_on_c, 0, 83, 107
2, 99228, Note_off_c, 0, 83, 64
2, 99240, Note_on_c, 0, 84, 107
2, 99288, Note_off_c, 0, 84, 64
2, 99300, Note_on_c, 0, 81, 107
2, 99348, Note_off_c, 0, 81, 64
2, 99360, Note_on_c, 0, 78, 107
2, 99408, Note_off_c, 0, 78, 64
2, 99420, Note_on_c, 0, 79, 107
2, 99468, Note_off_c, 0, 79, 64
2, 99480, Note_on_c, 0, 78, 107
2, 99528, Note_off_c, 0, 78, 64
2, 99540, Note_on_c, 0, 76, 107
2, 99588, Note_off_c, 0, 76, 64
2, 99600, Note_on_c, 0, 74, 107
2, 99648, Note_off_c, 0, 74, 64
2, 99660, Note_on_c, 0, 78, 107
2, 99708, Note_off_c, 0, 78, 64
2, 99720, Note_on_c, 0, 79, 107
2, 99768, Note_off_c, 0, 79, 64
2, 99780, Note_on_c, 0, 78, 107
2, 99828, Note_off_c, 0, 78, 64
2, 99840, Note_on_c, 0, 79, 107
2, 99888, Note_off_c, 0, 79, 64
2, 99900, Note_on_c, 0, 81, 107
2, 99948, Note_off_c, 0, 81, 64
2, 99960, Note_on_c, 0, 83, 107
2, 100008, Note_off_c, 0, 83, 64
2, 100020, Note_on_c, 0, 79, 107
2, 100068, Note_off_c, 0, 79, 64
2, 100080, Note_on_c, 0, 76, 107
2, 100128, Note_off_c, 0, 76, 64
2, 100140, Note_on_c, 0, 78, 107
2, 100188, Note_off_c, 0, 78, 64
2, 100200, Note_on_c, 0, 76, 107
2, 100248, Note_off_c, 0, 76, 64
2, 100260, Note_on_c, 0, 74, 107
2, 100308, Note_off_c, 0, 74, 64
2, 100320, Note_on_c, 0, 72, 107
2, 100368, Note_off_c, 0, 72, 64
2, 100380, Note_on_c, 0, 76, 107
2, 100428, Note_off_c, 0, 76, 64
2, 100440, Note_on_c, 0, 78, 107
2, 100488, Note_off_c, 0, 78, 64
2, 100500, Note_on_c, 0, 76, 107
2, 100548, Note_off_c, 0, 76, 64
2, 100560, Note_on_c, 0, 78, 107
2, 100608, Note_off_c, 0, 78, 64
2, 100620, Note_on_c, 0, 79, 107
2, 100668, Note_off_c, 0, 79, 64
2, 100680, Note_on_c, 0, 81, 107
2, 100728, Note_off_c, 0, 81, 64
2, 100740, Note_on_c, 0, 78, 107
2, 100788, Note_off_c, 0, 78, 64
2, 100800, Note_on_c, 0, 75, 107
2, 100896, Note_off_c, 0, 75, 64
2, 100920, Note_on_c, 0, 75, 107
2, 100920, Note_on_c, 0, 71, 107
2, 101064, Note_off_c, 0, 71, 64
2, 101064, Note_off_c, 0, 75, 64
2, 101100, Note_on_c, 0, 71, 107
2, 101100, Note_on_c, 0, 75, 107
2, 101148, Note_off_c, 0, 75, 64
2, 101148, Note_off_c, 0, 71, 64
2, 101160, Note_on_c, 0, 64, 107
2, 101160, Note_on_c, 0, 76, 107
2, 101160, Note_on_c, 0, 71, 107
2, 101256, Note_off_c, 0, 71, 64
2, 101256, Note_off_c, 0, 76, 64
2, 101256, Note_off_c, 0, 64, 64
2, 101280, Note_on_c, 0, 72, 107
2, 101328, Note_off_c, 0, 72, 64
2, 101340, Note_on_c, 0, 71, 107
2, 101388, Note_off_c, 0, 71, 64
2, 101400, Note_on_c, 0, 72, 107
2, 101448, Note_off_c, 0, 72, 64
2, 101460, Note_on_c, 0, 69, 107
2, 101508, Note_off_c, 0, 69, 64
2, 101520, Note_on_c, 0, 63, 107
2, 101616, Note_off_c, 0, 63, 64
2, 101640, Note_on_c, 0, 69, 107
2, 101640, Note_on_c, 0, 66, 107
2, 101784, Note_off_c, 0, 66, 64
2, 101784, Note_off_c, 0, 69, 64
2, 101820, Note_on_c, 0, 66, 107
2, 101820, Note_on_c, 0, 69, 107
2, 101868, Note_off_c, 0, 69, 64
2, 101868, Note_off_c, 0, 66, 64
2, 101880, Note_on_c, 0, 59, 107
2, 101880, Note_on_c, 0, 66, 107
2, 101880, Note_on_c, 0, 69, 107
2, 101976, Note_off_c, 0, 69, 64
2, 101976, Note_off_c, 0, 66, 64
2, 101976, Note_off_c, 0, 59, 64
2, 102000, Note_on_c, 0, 71, 107
2, 102048, Note_off_c, 0, 71, 64
2, 102060, Note_on_c, 0, 69, 107
2, 102108, Note_off_c, 0, 69, 64
2, 102120, Note_on_c, 0, 71, 107
2, 102168, Note_off_c, 0, 71, 64
2, 102180, Note_on_c, 0, 66, 107
2, 102228, Note_off_c, 0, 66, 64
2, 102240, Note_on_c, 0, 67, 107
2, 102300, Note_on_c, 0, 71, 107
2, 102348, Note_off_c, 0, 71, 64
2, 102360, Note_on_c, 0, 76, 107
2, 102384, Note_off_c, 0, 67, 64
2, 102420, Note_on_c, 0, 71, 107
2, 102456, Note_off_c, 0, 76, 64
2, 102468, Note_off_c, 0, 71, 64
2, 102480, Note_on_c, 0, 69, 107
2, 102528, Note_off_c, 0, 69, 64
2, 102540, Note_on_c, 0, 67, 107
2, 102588, Note_off_c, 0, 67, 64
2, 102600, Note_on_c, 0, 69, 107
2, 102660, Note_on_c, 0, 75, 107
2, 102684, Note_off_c, 0, 75, 64
2, 102690, Note_on_c, 0, 76, 107
2, 102714, Note_off_c, 0, 76, 64
2, 102720, Note_on_c, 0, 78, 107
2, 102744, Note_off_c, 0, 69, 64
2, 102780, Note_on_c, 0, 72, 107
2, 102816, Note_off_c, 0, 78, 64
2, 102828, Note_off_c, 0, 72, 64
2, 102840, Note_on_c, 0, 71, 107
2, 102888, Note_off_c, 0, 71, 64
2, 102900, Note_on_c, 0, 69, 107
2, 102948, Note_off_c, 0, 69, 64
2, 102960, Note_on_c, 0, 71, 107
2, 103020, Note_on_c, 0, 76, 107
2, 103044, Note_off_c, 0, 76, 64
2, 103050, Note_on_c, 0, 78, 107
2, 103074, Note_off_c, 0, 78, 64
2, 103080, Note_on_c, 0, 79, 107
2, 103104, Note_off_c, 0, 71, 64
2, 103140, Note_on_c, 0, 74, 107
2, 103176, Note_off_c, 0, 79, 64
2, 103188, Note_off_c, 0, 74, 64
2, 103200, Note_on_c, 0, 72, 107
2, 103248, Note_off_c, 0, 72, 64
2, 103260, Note_on_c, 0, 71, 107
2, 103308, Note_off_c, 0, 71, 64
2, 103320, Note_on_c, 0, 72, 107
2, 103380, Note_on_c, 0, 78, 107
2, 103404, Note_off_c, 0, 78, 64
2, 103410, Note_on_c, 0, 79, 107
2, 103434, Note_off_c, 0, 79, 64
2, 103440, Note_on_c, 0, 81, 107
2, 103464, Note_off_c, 0, 72, 64
2, 103500, Note_on_c, 0, 79, 107
2, 103536, Note_off_c, 0, 81, 64
2, 103548, Note_off_c, 0, 79, 64
2, 103560, Note_on_c, 0, 78, 107
2, 103608, Note_off_c, 0, 78, 64
2, 103620, Note_on_c, 0, 76, 107
2, 103668, Note_off_c, 0, 76, 64
2, 103680, Note_on_c, 0, 75, 107
2, 103740, Note_on_c, 0, 78, 107
2, 103797, Note_off_c, 0, 78, 64
2, 103800, Note_on_c, 0, 81, 107
2, 103857, Note_off_c, 0, 81, 64
2, 103860, Note_on_c, 0, 84, 107
2, 103872, Note_off_c, 0, 75, 64
2, 103917, Note_off_c, 0, 84, 64
2, 103920, Note_on_c, 0, 83, 107
2, 103968, Note_off_c, 0, 83, 64
2, 103980, Note_on_c, 0, 81, 107
2, 104028, Note_off_c, 0, 81, 64
2, 104040, Note_on_c, 0, 79, 107
2, 104088, Note_off_c, 0, 79, 64
2, 104100, Note_on_c, 0, 78, 107
2, 104148, Note_off_c, 0, 78, 64
2, 104160, Note_on_c, 0, 76, 107
2, 104208, Note_off_c, 0, 76, 64
2, 104220, Note_on_c, 0, 75, 107
2, 104268, Note_off_c, 0, 75, 64
2, 104280, Note_on_c, 0, 76, 107
2, 104328, Note_off_c, 0, 76, 64
2, 104340, Note_on_c, 0, 71, 107
2, 104388, Note_off_c, 0, 71, 64
2, 104400, Note_on_c, 0, 72, 107
2, 104460, Note_on_c, 0, 64, 107
2, 104508, Note_off_c, 0, 64, 64
2, 104520, Note_on_c, 0, 67, 107
2, 104568, Note_off_c, 0, 67, 64
2, 104580, Note_on_c, 0, 71, 107
2, 104628, Note_off_c, 0, 71, 64
2, 104640, Note_on_c, 0, 69, 107
2, 104688, Note_off_c, 0, 69, 64
2, 104700, Note_on_c, 0, 67, 107
2, 104748, Note_off_c, 0, 67, 64
2, 104760, Note_on_c, 0, 66, 107
2, 104808, Note_off_c, 0, 72, 64
2, 104820, Note_on_c, 0, 76, 107
2, 104868, Note_off_c, 0, 76, 64
2, 104880, Note_on_c, 0, 74, 107
2, 104928, Note_off_c, 0, 74, 64
2, 104940, Note_on_c, 0, 72, 107
2, 104988, Note_off_c, 0, 72, 64
2, 105000, Note_on_c, 0, 74, 107
2, 105048, Note_off_c, 0, 74, 64
2, 105048, Note_off_c, 0, 66, 64
2, 105060, Note_on_c, 0, 69, 107
2, 105108, Note_off_c, 0, 69, 64
2, 105120, Note_on_c, 0, 66, 107
2, 105120, Note_on_c, 0, 71, 107
2, 105168, Note_off_c, 0, 66, 64
2, 105180, Note_on_c, 0, 62, 107
2, 105228, Note_off_c, 0, 62, 64
2, 105240, Note_on_c, 0, 65, 107
2, 105288, Note_off_c, 0, 65, 64
2, 105300, Note_on_c, 0, 69, 107
2, 105348, Note_off_c, 0, 69, 64
2, 105360, Note_on_c, 0, 67, 107
2, 105408, Note_off_c, 0, 67, 64
2, 105420, Note_on_c, 0, 65, 107
2, 105468, Note_off_c, 0, 65, 64
2, 105480, Note_on_c, 0, 64, 107
2, 105528, Note_off_c, 0, 71, 64
2, 105540, Note_on_c, 0, 74, 107
2, 105588, Note_off_c, 0, 74, 64
2, 105600, Note_on_c, 0, 72, 107
2, 105648, Note_off_c, 0, 72, 64
2, 105660, Note_on_c, 0, 71, 107
2, 105708, Note_off_c, 0, 71, 64
2, 105720, Note_on_c, 0, 72, 107
2, 105768, Note_off_c, 0, 72, 64
2, 105768, Note_off_c, 0, 64, 64
2, 105780, Note_on_c, 0, 67, 107
2, 105828, Note_off_c, 0, 67, 64
2, 105840, Note_on_c, 0, 69, 107
2, 105888, Note_off_c, 0, 64, 64
2, 105900, Note_on_c, 0, 63, 107
2, 105948, Note_off_c, 0, 63, 64
2, 105960, Note_on_c, 0, 64, 107
2, 106008, Note_off_c, 0, 64, 64
2, 106020, Note_on_c, 0, 67, 107
2, 106068, Note_off_c, 0, 67, 64
2, 106080, Note_on_c, 0, 66, 107
2, 106128, Note_off_c, 0, 66, 64
2, 106140, Note_on_c, 0, 64, 107
2, 106188, Note_off_c, 0, 64, 64
2, 106200, Note_on_c, 0, 63, 107
2, 106248, Note_off_c, 0, 69, 64
2, 106260, Note_on_c, 0, 72, 107
2, 106296, Note_off_c, 0, 63, 64
2, 106308, Note_off_c, 0, 72, 64
2, 106320, Note_on_c, 0, 71, 107
2, 106368, Note_off_c, 0, 71, 64
2, 106380, Note_on_c, 0, 69, 107
2, 106428, Note_off_c, 0, 69, 64
2, 106440, Note_on_c, 0, 71, 107
2, 106488, Note_off_c, 0, 71, 64
2, 106500, Note_on_c, 0, 66, 107
2, 106548, Note_off_c, 0, 66, 64
2, 106560, Note_on_c, 0, 67, 107
2, 106620, Note_on_c, 0, 66, 107
2, 106668, Note_off_c, 0, 66, 64
2, 106680, Note_on_c, 0, 64, 107
2, 106728, Note_off_c, 0, 64, 64
2, 106740, Note_on_c, 0, 63, 107
2, 106788, Note_off_c, 0, 63, 64
2, 106800, Note_on_c, 0, 64, 107
2, 106848, Note_off_c, 0, 64, 64
2, 106860, Note_on_c, 0, 61, 107
2, 106908, Note_off_c, 0, 61, 64
2, 106920, Note_on_c, 0, 58, 107
2, 106968, Note_off_c, 0, 67, 64
2, 106980, Note_on_c, 0, 67, 107
2, 107016, Note_off_c, 0, 58, 64
2, 107028, Note_off_c, 0, 67, 64
2, 107040, Note_on_c, 0, 66, 107
2, 107088, Note_off_c, 0, 66, 64
2, 107100, Note_on_c, 0, 64, 107
2, 107148, Note_off_c, 0, 64, 64
2, 107160, Note_on_c, 0, 66, 107
2, 107208, Note_off_c, 0, 66, 64
2, 107220, Note_on_c, 0, 61, 107
2, 107268, Note_off_c, 0, 61, 64
2, 107280, Note_on_c, 0, 63, 107
2, 107340, Note_on_c, 0, 60, 107
2, 107388, Note_off_c, 0, 60, 64
2, 107400, Note_on_c, 0, 59, 107
2, 107448, Note_off_c, 0, 59, 64
2, 107460, Note_on_c, 0, 57, 107
2, 107508, Note_off_c, 0, 57, 64
2, 107520, Note_on_c, 0, 60, 107
2, 107568, Note_off_c, 0, 60, 64
2, 107580, Note_on_c, 0, 57, 107
2, 107628, Note_off_c, 0, 57, 64
2, 107688, Note_off_c, 0, 63, 64
2, 107700, Note_on_c, 0, 59, 107
2, 107748, Note_off_c, 0, 59, 64
2, 107760, Note_on_c, 0, 64, 107
2, 107808, Note_off_c, 0, 64, 64
2, 107820, Note_on_c, 0, 66, 107
2, 107868, Note_off_c, 0, 66, 64
2, 107880, Note_on_c, 0, 67, 107
2, 107880, Note_on_c, 0, 67, 107
2, 107928, Note_off_c, 0, 67, 64
2, 107940, Note_on_c, 0, 61, 107
2, 107988, Note_off_c, 0, 61, 64
2, 108000, Note_on_c, 0, 64, 107
2, 108000, Note_on_c, 0, 64, 107
2, 108048, Note_off_c, 0, 64, 64
2, 108060, Note_on_c, 0, 58, 107
2, 108120, Note_on_c, 0, 61, 107
2, 108456, Note_off_c, 0, 58, 64
2, 108456, Note_off_c, 0, 61, 64
2, 108456, Note_off_c, 0, 64, 64
2, 108456, Note_off_c, 0, 67, 64
2, 108480, Note_on_c, 0, 61, 107
2, 108480, Note_on_c, 0, 61, 107
2, 108528, Note_off_c, 0, 61, 64
2, 108540, Note_on_c, 0, 64, 107
2, 108540, Note_on_c, 0, 64, 107
2, 108588, Note_off_c, 0, 64, 64
2, 108600, Note_on_c, 0, 67, 107
2, 108600, Note_on_c, 0, 67, 107
2, 108636, Note_off_c, 0, 64, 64
2, 108648, Note_off_c, 0, 67, 64
2, 108660, Note_on_c, 0, 70, 107
2, 108672, Note_off_c, 0, 61, 64
2, 108696, Note_off_c, 0, 67, 64
2, 108708, Note_off_c, 0, 70, 64
2, 108720, Note_on_c, 0, 71, 107
2, 108720, Note_on_c, 0, 63, 107
2, 108720, Note_on_c, 0, 66, 107
2, 108768, Note_off_c, 0, 71, 64
2, 108780, Note_on_c, 0, 59, 107
2, 108816, Note_off_c, 0, 66, 64
2, 108816, Note_off_c, 0, 63, 64
2, 108828, Note_off_c, 0, 59, 64
2, 108840, Note_on_c, 0, 61, 107
2, 108888, Note_off_c, 0, 61, 64
2, 108900, Note_on_c, 0, 63, 107
2, 108948, Note_off_c, 0, 63, 64
2, 108960, Note_on_c, 0, 64, 107
2, 109008, Note_off_c, 0, 64, 64
2, 109020, Note_on_c, 0, 66, 107
2, 109068, Note_off_c, 0, 66, 64
2, 109080, Note_on_c, 0, 67, 107
2, 109128, Note_off_c, 0, 67, 64
2, 109140, Note_on_c, 0, 64, 107
2, 109188, Note_off_c, 0, 64, 64
2, 109200, Note_on_c, 0, 66, 107
2, 109248, Note_off_c, 0, 66, 64
2, 109260, Note_on_c, 0, 67, 107
2, 109308, Note_off_c, 0, 67, 64
2, 109320, Note_on_c, 0, 69, 107
2, 109368, Note_off_c, 0, 69, 64
2, 109380, Note_on_c, 0, 71, 107
2, 109428, Note_off_c, 0, 71, 64
2, 109440, Note_on_c, 0, 72, 107
2, 109500, Note_on_c, 0, 71, 107
2, 109548, Note_off_c, 0, 71, 64
2, 109560, Note_on_c, 0, 69, 107
2, 109608, Note_off_c, 0, 69, 64
2, 109620, Note_on_c, 0, 67, 107
2, 109668, Note_off_c, 0, 67, 64
2, 109680, Note_on_c, 0, 66, 107
2, 109728, Note_off_c, 0, 66, 64
2, 109740, Note_on_c, 0, 64, 107
2, 109788, Note_off_c, 0, 64, 64
2, 109800, Note_on_c, 0, 63, 107
2, 109848, Note_off_c, 0, 72, 64
2, 109860, Note_on_c, 0, 66, 107
2, 109896, Note_off_c, 0, 63, 64
2, 109908, Note_off_c, 0, 66, 64
2, 109920, Note_on_c, 0, 69, 107
2, 109968, Note_off_c, 0, 69, 64
2, 109980, Note_on_c, 0, 72, 107
2, 110028, Note_off_c, 0, 72, 64
2, 110040, Note_on_c, 0, 63, 107
2, 110088, Note_off_c, 0, 63, 64
2, 110100, Note_on_c, 0, 66, 107
2, 110148, Note_off_c, 0, 66, 64
2, 110160, Note_on_c, 0, 64, 107
2, 110208, Note_off_c, 0, 64, 64
2, 110220, Note_on_c, 0, 67, 107
2, 110268, Note_off_c, 0, 67, 64
2, 110280, Note_on_c, 0, 71, 107
2, 110328, Note_off_c, 0, 71, 64
2, 110340, Note_on_c, 0, 76, 107
2, 110388, Note_off_c, 0, 76, 64
2, 110400, Note_on_c, 0, 64, 107
2, 110448, Note_off_c, 0, 64, 64
2, 110460, Note_on_c, 0, 74, 107
2, 110508, Note_off_c, 0, 74, 64
2, 110520, Note_on_c, 0, 72, 107
2, 110580, Note_on_c, 0, 76, 107
2, 110628, Note_off_c, 0, 76, 64
2, 110640, Note_on_c, 0, 81, 107
2, 110688, Note_off_c, 0, 81, 64
2, 110700, Note_on_c, 0, 84, 107
2, 110712, Note_off_c, 0, 72, 64
2, 110748, Note_off_c, 0, 84, 64
2, 110760, Note_on_c, 0, 78, 107
2, 110808, Note_off_c, 0, 78, 64
2, 110820, Note_on_c, 0, 81, 107
2, 110868, Note_off_c, 0, 81, 64
2, 110880, Note_on_c, 0, 75, 107
2, 110928, Note_off_c, 0, 75, 64
2, 110940, Note_on_c, 0, 78, 107
2, 110988, Note_off_c, 0, 78, 64
2, 111000, Note_on_c, 0, 71, 107
2, 111048, Note_off_c, 0, 71, 64
2, 111060, Note_on_c, 0, 75, 107
2, 111108, Note_off_c, 0, 75, 64
2, 111120, Note_on_c, 0, 76, 107
2, 111180, Note_on_c, 0, 69, 107
2, 111228, Note_off_c, 0, 69, 64
2, 111240, Note_on_c, 0, 67, 107
2, 111288, Note_off_c, 0, 67, 64
2, 111288, Note_off_c, 0, 76, 64
2, 111300, Note_on_c, 0, 76, 107
2, 111300, Note_on_c, 0, 78, 107
2, 111348, Note_off_c, 0, 78, 64
2, 111348, Note_off_c, 0, 76, 64
2, 111360, Note_on_c, 0, 75, 107
2, 111360, Note_on_c, 0, 79, 107
2, 111384, Note_off_c, 0, 79, 64
2, 111390, Note_on_c, 0, 78, 107
2, 111414, Note_off_c, 0, 78, 64
2, 111420, Note_on_c, 0, 79, 107
2, 111444, Note_off_c, 0, 79, 64
2, 111450, Note_on_c, 0, 78, 107
2, 111474, Note_off_c, 0, 78, 64
2, 111480, Note_on_c, 0, 79, 107
2, 111504, Note_off_c, 0, 79, 64
2, 111510, Note_on_c, 0, 78, 107
2, 111534, Note_off_c, 0, 78, 64
2, 111540, Note_on_c, 0, 76, 107
2, 111552, Note_off_c, 0, 75, 64
2, 111588, Note_off_c, 0, 76, 64
2, 111600, Note_on_c, 0, 76, 107
2, 112176, Note_off_c, 0, 76, 64
2, 112176, End_track
3, 0, Start_track
3, 0, Title_t, "J.S. Bach, Edition Kalmus"
3, 0, Program_c, 1, 0
3, 2160, Note_on_c, 1, 61, 107
3, 2208, Note_off_c, 1, 61, 64
3, 2220, Note_on_c, 1, 59, 107
3, 2268, Note_off_c, 1, 59, 64
3, 2280, Note_on_c, 1, 61, 107
3, 2328, Note_off_c, 1, 61, 64
3, 2340, Note_on_c, 1, 62, 107
3, 2388, Note_off_c, 1, 62, 64
3, 2400, Note_on_c, 1, 61, 107
3, 2448, Note_off_c, 1, 61, 64
3, 2460, Note_on_c, 1, 59, 107
3, 2508, Note_off_c, 1, 59, 64
3, 2520, Note_on_c, 1, 58, 107
3, 2568, Note_off_c, 1, 58, 64
3, 2580, Note_on_c, 1, 56, 107
3, 2628, Note_off_c, 1, 56, 64
3, 2640, Note_on_c, 1, 58, 107
3, 2688, Note_off_c, 1, 58, 64
3, 2700, Note_on_c, 1, 59, 107
3, 2748, Note_off_c, 1, 59, 64
3, 2760, Note_on_c, 1, 56, 107
3, 2808, Note_off_c, 1, 56, 64
3, 2820, Note_on_c, 1, 58, 107
3, 2868, Note_off_c, 1, 58, 64
3, 4440, Note_on_c, 1, 59, 107
3, 4584, Note_off_c, 1, 59, 64
3, 4620, Note_on_c, 1, 59, 107
3, 4668, Note_off_c, 1, 59, 64
3, 4680, Note_on_c, 1, 52, 107
3, 4776, Note_off_c, 1, 52, 64
3, 4800, Note_on_c, 1, 60, 107
3, 4848, Note_off_c, 1, 60, 64
3, 4860, Note_on_c, 1, 59, 107
3, 4908, Note_off_c, 1, 59, 64
3, 4920, Note_on_c, 1, 60, 107
3, 4968, Note_off_c, 1, 60, 64
3, 4980, Note_on_c, 1, 57, 107
3, 5028, Note_off_c, 1, 57, 64
3, 5040, Note_on_c, 1, 51, 107
3, 5136, Note_off_c, 1, 51, 64
3, 5160, Note_on_c, 1, 54, 107
3, 5160, Note_on_c, 1, 57, 107
3, 5304, Note_off_c, 1, 57, 64
3, 5304, Note_off_c, 1, 54, 64
3, 5340, Note_on_c, 1, 57, 107
3, 5340, Note_on_c, 1, 54, 107
3, 5388, Note_off_c, 1, 54, 64
3, 5388, Note_off_c, 1, 57, 64
3, 5400, Note_on_c, 1, 47, 107
3, 5400, Note_on_c, 1, 57, 107
3, 5400, Note_on_c, 1, 54, 107
3, 5496, Note_off_c, 1, 54, 64
3, 5496, Note_off_c, 1, 57, 64
3, 5496, Note_off_c, 1, 47, 64
3, 5520, Note_on_c, 1, 59, 107
3, 5568, Note_off_c, 1, 59, 64
3, 5580, Note_on_c, 1, 57, 107
3, 5628, Note_off_c, 1, 57, 64
3, 5640, Note_on_c, 1, 59, 107
3, 5688, Note_off_c, 1, 59, 64
3, 5700, Note_on_c, 1, 54, 107
3, 5748, Note_off_c, 1, 54, 64
3, 5760, Note_on_c, 1, 55, 107
3, 5808, Note_off_c, 1, 55, 64
3, 5820, Note_on_c, 1, 57, 107
3, 5868, Note_off_c, 1, 57, 64
3, 5880, Note_on_c, 1, 55, 107
3, 5928, Note_off_c, 1, 55, 64
3, 5940, Note_on_c, 1, 54, 107
3, 5988, Note_off_c, 1, 54, 64
3, 6000, Note_on_c, 1, 52, 107
3, 6048, Note_off_c, 1, 52, 64
3, 6060, Note_on_c, 1, 55, 107
3, 6108, Note_off_c, 1, 55, 64
3, 6120, Note_on_c, 1, 57, 107
3, 6168, Note_off_c, 1, 57, 64
3, 6180, Note_on_c, 1, 56, 107
3, 6228, Note_off_c, 1, 56, 64
3, 6240, Note_on_c, 1, 57, 107
3, 6288, Note_off_c, 1, 57, 64
3, 6300, Note_on_c, 1, 59, 107
3, 6348, Note_off_c, 1, 59, 64
3, 6360, Note_on_c, 1, 61, 107
3, 6408, Note_off_c, 1, 61, 64
3, 6420, Note_on_c, 1, 57, 107
3, 6468, Note_off_c, 1, 57, 64
3, 6480, Note_on_c, 1, 54, 107
3, 6528, Note_off_c, 1, 54, 64
3, 6540, Note_on_c, 1, 55, 107
3, 6588, Note_off_c, 1, 55, 64
3, 6600, Note_on_c, 1, 54, 107
3, 6648, Note_off_c, 1, 54, 64
3, 6660, Note_on_c, 1, 52, 107
3, 6708, Note_off_c, 1, 52, 64
3, 6720, Note_on_c, 1, 50, 107
3, 6768, Note_off_c, 1, 50, 64
3, 6780, Note_on_c, 1, 54, 107
3, 6828, Note_off_c, 1, 54, 64
3, 6840, Note_on_c, 1, 55, 107
3, 6888, Note_off_c, 1, 55, 64
3, 6900, Note_on_c, 1, 54, 107
3, 6948, Note_off_c, 1, 54, 64
3, 6960, Note_on_c, 1, 55, 107
3, 7008, Note_off_c, 1, 55, 64
3, 7020, Note_on_c, 1, 57, 107
3, 7068, Note_off_c, 1, 57, 64
3, 7080, Note_on_c, 1, 59, 107
3, 7128, Note_off_c, 1, 59, 64
3, 7140, Note_on_c, 1, 55, 107
3, 7188, Note_off_c, 1, 55, 64
3, 7200, Note_on_c, 1, 52, 107
3, 7248, Note_off_c, 1, 52, 64
3, 7260, Note_on_c, 1, 54, 107
3, 7308, Note_off_c, 1, 54, 64
3, 7320, Note_on_c, 1, 52, 107
3, 7368, Note_off_c, 1, 52, 64
3, 7380, Note_on_c, 1, 50, 107
3, 7428, Note_off_c, 1, 50, 64
3, 7440, Note_on_c, 1, 49, 107
3, 7488, Note_off_c, 1, 49, 64
3, 7500, Note_on_c, 1, 52, 107
3, 7548, Note_off_c, 1, 52, 64
3, 7560, Note_on_c, 1, 54, 107
3, 7608, Note_off_c, 1, 54, 64
3, 7620, Note_on_c, 1, 55, 107
3, 7668, Note_off_c, 1, 55, 64
3, 7680, Note_on_c, 1, 54, 107
3, 7728, Note_off_c, 1, 54, 64
3, 7740, Note_on_c, 1, 52, 107
3, 7788, Note_off_c, 1, 52, 64
3, 7800, Note_on_c, 1, 50, 107
3, 7848, Note_off_c, 1, 50, 64
3, 7860, Note_on_c, 1, 49, 107
3, 7908, Note_off_c, 1, 49, 64
3, 7920, Note_on_c, 1, 50, 107
3, 7968, Note_off_c, 1, 50, 64
3, 7980, Note_on_c, 1, 52, 107
3, 8028, Note_off_c, 1, 52, 64
3, 8040, Note_on_c, 1, 50, 107
3, 8088, Note_off_c, 1, 50, 64
3, 8100, Note_on_c, 1, 49, 107
3, 8148, Note_off_c, 1, 49, 64
3, 8160, Note_on_c, 1, 47, 107
3, 8208, Note_off_c, 1, 47, 64
3, 8220, Note_on_c, 1, 50, 107
3, 8268, Note_off_c, 1, 50, 64
3, 8280, Note_on_c, 1, 52, 107
3, 8328, Note_off_c, 1, 52, 64
3, 8340, Note_on_c, 1, 50, 107
3, 8388, Note_off_c, 1, 50, 64
3, 8400, Note_on_c, 1, 52, 107
3, 8448, Note_off_c, 1, 52, 64
3, 8460, Note_on_c, 1, 54, 107
3, 8508, Note_off_c, 1, 54, 64
3, 8520, Note_on_c, 1, 52, 107
3, 8568, Note_off_c, 1, 52, 64
3, 8580, Note_on_c, 1, 50, 107
3, 8628, Note_off_c, 1, 50, 64
3, 8640, Note_on_c, 1, 58, 107
3, 8640, Note_on_c, 1, 49, 107
3, 8688, Note_off_c, 1, 49, 64
3, 8700, Note_on_c, 1, 47, 107
3, 8736, Note_off_c, 1, 58, 64
3, 8748, Note_off_c, 1, 47, 64
3, 8760, Note_on_c, 1, 61, 107
3, 8760, Note_on_c, 1, 49, 107
3, 8808, Note_off_c, 1, 49, 64
3, 8820, Note_on_c, 1, 50, 107
3, 8868, Note_off_c, 1, 50, 64
3, 8880, Note_on_c, 1, 49, 107
3, 8904, Note_off_c, 1, 61, 64
3, 8928, Note_off_c, 1, 49, 64
3, 8940, Note_on_c, 1, 47, 107
3, 8940, Note_on_c, 1, 61, 107
3, 8988, Note_off_c, 1, 61, 64
3, 8988, Note_off_c, 1, 47, 64
3, 9000, Note_on_c, 1, 54, 107
3, 9000, Note_on_c, 1, 61, 107
3, 9000, Note_on_c, 1, 46, 107
3, 9048, Note_off_c, 1, 46, 64
3, 9060, Note_on_c, 1, 44, 107
3, 9096, Note_off_c, 1, 61, 64
3, 9096, Note_off_c, 1, 54, 64
3, 9108, Note_off_c, 1, 44, 64
3, 9120, Note_on_c, 1, 66, 107
3, 9120, Note_on_c, 1, 46, 107
3, 9168, Note_off_c, 1, 46, 64
3, 9168, Note_off_c, 1, 66, 64
3, 9180, Note_on_c, 1, 47, 107
3, 9180, Note_on_c, 1, 64, 107
3, 9228, Note_off_c, 1, 64, 64
3, 9228, Note_off_c, 1, 47, 64
3, 9240, Note_on_c, 1, 66, 107
3, 9240, Note_on_c, 1, 44, 107
3, 9288, Note_off_c, 1, 44, 64
3, 9288, Note_off_c, 1, 66, 64
3, 9300, Note_on_c, 1, 61, 107
3, 9300, Note_on_c, 1, 46, 107
3, 9348, Note_off_c, 1, 46, 64
3, 9348, Note_off_c, 1, 61, 64
3, 9360, Note_on_c, 1, 47, 107
3, 9450, Note_off_c, 1, 47, 64
3, 9480, Note_on_c, 1, 59, 107
3, 9570, Note_off_c, 1, 59, 64
3, 9600, Note_on_c, 1, 47, 107
3, 9690, Note_off_c, 1, 47, 64
3, 9720, Note_on_c, 1, 47, 107
3, 9810, Note_off_c, 1, 47, 64
3, 9840, Note_on_c, 1, 59, 107
3, 9930, Note_off_c, 1, 59, 64
3, 9960, Note_on_c, 1, 47, 107
3, 10050, Note_off_c, 1, 47, 64
3, 10080, Note_on_c, 1, 47, 107
3, 10170, Note_off_c, 1, 47, 64
3, 10200, Note_on_c, 1, 59, 107
3, 10290, Note_off_c, 1, 59, 64
3, 10320, Note_on_c, 1, 47, 107
3, 10410, Note_off_c, 1, 47, 64
3, 10440, Note_on_c, 1, 47, 107
3, 10530, Note_off_c, 1, 47, 64
3, 10560, Note_on_c, 1, 59, 107
3, 10650, Note_off_c, 1, 59, 64
3, 10680, Note_on_c, 1, 47, 107
3, 10770, Note_off_c, 1, 47, 64
3, 10800, Note_on_c, 1, 47, 107
3, 10890, Note_off_c, 1, 47, 64
3, 10920, Note_on_c, 1, 59, 107
3, 11010, Note_off_c, 1, 59, 64
3, 11040, Note_on_c, 1, 47, 107
3, 11130, Note_off_c, 1, 47, 64
3, 11160, Note_on_c, 1, 59, 107
3, 11208, Note_off_c, 1, 59, 64
3, 11220, Note_on_c, 1, 58, 107
3, 11268, Note_off_c, 1, 58, 64
3, 11280, Note_on_c, 1, 59, 107
3, 11328, Note_off_c, 1, 59, 64
3, 11340, Note_on_c, 1, 61, 107
3, 11388, Note_off_c, 1, 61, 64
3, 11400, Note_on_c, 1, 62, 107
3, 11448, Note_off_c, 1, 62, 64
3, 11460, Note_on_c, 1, 59, 107
3, 11508, Note_off_c, 1, 59, 64
3, 11520, Note_on_c, 1, 64, 107
3, 11568, Note_off_c, 1, 64, 64
3, 11580, Note_on_c, 1, 65, 107
3, 11628, Note_off_c, 1, 65, 64
3, 11640, Note_on_c, 1, 64, 107
3, 11688, Note_off_c, 1, 64, 64
3, 11700, Note_on_c, 1, 62, 107
3, 11748, Note_off_c, 1, 62, 64
3, 11760, Note_on_c, 1, 60, 107
3, 11808, Note_off_c, 1, 60, 64
3, 11820, Note_on_c, 1, 59, 107
3, 11868, Note_off_c, 1, 59, 64
3, 11880, Note_on_c, 1, 57, 107
3, 11928, Note_off_c, 1, 57, 64
3, 11940, Note_on_c, 1, 56, 107
3, 11988, Note_off_c, 1, 56, 64
3, 12000, Note_on_c, 1, 57, 107
3, 12048, Note_off_c, 1, 57, 64
3, 12060, Note_on_c, 1, 59, 107
3, 12108, Note_off_c, 1, 59, 64
3, 12120, Note_on_c, 1, 60, 107
3, 12168, Note_off_c, 1, 60, 64
3, 12180, Note_on_c, 1, 57, 107
3, 12228, Note_off_c, 1, 57, 64
3, 12240, Note_on_c, 1, 62, 107
3, 12288, Note_off_c, 1, 62, 64
3, 12300, Note_on_c, 1, 64, 107
3, 12348, Note_off_c, 1, 64, 64
3, 12360, Note_on_c, 1, 62, 107
3, 12408, Note_off_c, 1, 62, 64
3, 12420, Note_on_c, 1, 60, 107
3, 12468, Note_off_c, 1, 60, 64
3, 12480, Note_on_c, 1, 59, 107
3, 12528, Note_off_c, 1, 59, 64
3, 12540, Note_on_c, 1, 57, 107
3, 12588, Note_off_c, 1, 57, 64
3, 12600, Note_on_c, 1, 55, 107
3, 12648, Note_off_c, 1, 55, 64
3, 12660, Note_on_c, 1, 54, 107
3, 12708, Note_off_c, 1, 54, 64
3, 12720, Note_on_c, 1, 55, 107
3, 12768, Note_off_c, 1, 55, 64
3, 12780, Note_on_c, 1, 57, 107
3, 12828, Note_off_c, 1, 57, 64
3, 12840, Note_on_c, 1, 59, 107
3, 12888, Note_off_c, 1, 59, 64
3, 12900, Note_on_c, 1, 55, 107
3, 12948, Note_off_c, 1, 55, 64
3, 12960, Note_on_c, 1, 60, 107
3, 13008, Note_off_c, 1, 60, 64
3, 13020, Note_on_c, 1, 62, 107
3, 13068, Note_off_c, 1, 62, 64
3, 13080, Note_on_c, 1, 60, 107
3, 13128, Note_off_c, 1, 60, 64
3, 13140, Note_on_c, 1, 59, 107
3, 13188, Note_off_c, 1, 59, 64
3, 13200, Note_on_c, 1, 57, 107
3, 13248, Note_off_c, 1, 57, 64
3, 13260, Note_on_c, 1, 55, 107
3, 13308, Note_off_c, 1, 55, 64
3, 13320, Note_on_c, 1, 54, 107
3, 13368, Note_off_c, 1, 54, 64
3, 13380, Note_on_c, 1, 52, 107
3, 13428, Note_off_c, 1, 52, 64
3, 13440, Note_on_c, 1, 54, 107
3, 13488, Note_off_c, 1, 54, 64
3, 13500, Note_on_c, 1, 55, 107
3, 13548, Note_off_c, 1, 55, 64
3, 13560, Note_on_c, 1, 57, 107
3, 13608, Note_off_c, 1, 57, 64
3, 13620, Note_on_c, 1, 54, 107
3, 13668, Note_off_c, 1, 54, 64
3, 13680, Note_on_c, 1, 59, 107
3, 13728, Note_off_c, 1, 59, 64
3, 13740, Note_on_c, 1, 54, 107
3, 13788, Note_off_c, 1, 54, 64
3, 13800, Note_on_c, 1, 57, 107
3, 13848, Note_off_c, 1, 57, 64
3, 13860, Note_on_c, 1, 60, 107
3, 13908, Note_off_c, 1, 60, 64
3, 13920, Note_on_c, 1, 59, 107
3, 13968, Note_off_c, 1, 59, 64
3, 13980, Note_on_c, 1, 57, 107
3, 14028, Note_off_c, 1, 57, 64
3, 14040, Note_on_c, 1, 55, 107
3, 14088, Note_off_c, 1, 55, 64
3, 14100, Note_on_c, 1, 54, 107
3, 14148, Note_off_c, 1, 54, 64
3, 14160, Note_on_c, 1, 55, 107
3, 14208, Note_off_c, 1, 55, 64
3, 14220, Note_on_c, 1, 59, 107
3, 14268, Note_off_c, 1, 59, 64
3, 14280, Note_on_c, 1, 57, 107
3, 14328, Note_off_c, 1, 57, 64
3, 14340, Note_on_c, 1, 55, 107
3, 14388, Note_off_c, 1, 55, 64
3, 14400, Note_on_c, 1, 54, 107
3, 14448, Note_off_c, 1, 54, 64
3, 14460, Note_on_c, 1, 52, 107
3, 14508, Note_off_c, 1, 52, 64
3, 14520, Note_on_c, 1, 54, 107
3, 14568, Note_off_c, 1, 54, 64
3, 14580, Note_on_c, 1, 55, 107
3, 14628, Note_off_c, 1, 55, 64
3, 14640, Note_on_c, 1, 54, 107
3, 14688, Note_off_c, 1, 54, 64
3, 14700, Note_on_c, 1, 52, 107
3, 14748, Note_off_c, 1, 52, 64
3, 14760, Note_on_c, 1, 51, 107
3, 14808, Note_off_c, 1, 51, 64
3, 14820, Note_on_c, 1, 49, 107
3, 14868, Note_off_c, 1, 49, 64
3, 14880, Note_on_c, 1, 51, 107
3, 14928, Note_off_c, 1, 51, 64
3, 14940, Note_on_c, 1, 52, 107
3, 14988, Note_off_c, 1, 52, 64
3, 15000, Note_on_c, 1, 49, 107
3, 15048, Note_off_c, 1, 49, 64
3, 15060, Note_on_c, 1, 51, 107
3, 15108, Note_off_c, 1, 51, 64
3, 15120, Note_on_c, 1, 52, 107
3, 15168, Note_off_c, 1, 52, 64
3, 15180, Note_on_c, 1, 47, 107
3, 15228, Note_off_c, 1, 47, 64
3, 15240, Note_on_c, 1, 52, 107
3, 15288, Note_off_c, 1, 52, 64
3, 15300, Note_on_c, 1, 54, 107
3, 15348, Note_off_c, 1, 54, 64
3, 15360, Note_on_c, 1, 55, 107
3, 15408, Note_off_c, 1, 55, 64
3, 15420, Note_on_c, 1, 52, 107
3, 15468, Note_off_c, 1, 52, 64
3, 15480, Note_on_c, 1, 48, 107
3, 15528, Note_off_c, 1, 48, 64
3, 15540, Note_on_c, 1, 50, 107
3, 15588, Note_off_c, 1, 50, 64
3, 15600, Note_on_c, 1, 48, 107
3, 15648, Note_off_c, 1, 48, 64
3, 15660, Note_on_c, 1, 47, 107
3, 15708, Note_off_c, 1, 47, 64
3, 15720, Note_on_c, 1, 45, 107
3, 15768, Note_off_c, 1, 45, 64
3, 15780, Note_on_c, 1, 48, 107
3, 15828, Note_off_c, 1, 48, 64
3, 15840, Note_on_c, 1, 50, 107
3, 15888, Note_off_c, 1, 50, 64
3, 15900, Note_on_c, 1, 45, 107
3, 15948, Note_off_c, 1, 45, 64
3, 15960, Note_on_c, 1, 50, 107
3, 16008, Note_off_c, 1, 50, 64
3, 16020, Note_on_c, 1, 52, 107
3, 16068, Note_off_c, 1, 52, 64
3, 16080, Note_on_c, 1, 54, 107
3, 16128, Note_off_c, 1, 54, 64
3, 16140, Note_on_c, 1, 50, 107
3, 16188, Note_off_c, 1, 50, 64
3, 16200, Note_on_c, 1, 47, 107
3, 16248, Note_off_c, 1, 47, 64
3, 16260, Note_on_c, 1, 48, 107
3, 16308, Note_off_c, 1, 48, 64
3, 16320, Note_on_c, 1, 47, 107
3, 16368, Note_off_c, 1, 47, 64
3, 16380, Note_on_c, 1, 45, 107
3, 16428, Note_off_c, 1, 45, 64
3, 16440, Note_on_c, 1, 43, 107
3, 16488, Note_off_c, 1, 43, 64
3, 16500, Note_on_c, 1, 47, 107
3, 16548, Note_off_c, 1, 47, 64
3, 16560, Note_on_c, 1, 48, 107
3, 16608, Note_off_c, 1, 48, 64
3, 16620, Note_on_c, 1, 43, 107
3, 16668, Note_off_c, 1, 43, 64
3, 16680, Note_on_c, 1, 48, 107
3, 16728, Note_off_c, 1, 48, 64
3, 16740, Note_on_c, 1, 50, 107
3, 16788, Note_off_c, 1, 50, 64
3, 16800, Note_on_c, 1, 52, 107
3, 16848, Note_off_c, 1, 52, 64
3, 16860, Note_on_c, 1, 48, 107
3, 16908, Note_off_c, 1, 48, 64
3, 16920, Note_on_c, 1, 45, 107
3, 16968, Note_off_c, 1, 45, 64
3, 16980, Note_on_c, 1, 47, 107
3, 17028, Note_off_c, 1, 47, 64
3, 17040, Note_on_c, 1, 45, 107
3, 17088, Note_off_c, 1, 45, 64
3, 17100, Note_on_c, 1, 43, 107
3, 17148, Note_off_c, 1, 43, 64
3, 17160, Note_on_c, 1, 42, 107
3, 17208, Note_off_c, 1, 42, 64
3, 17220, Note_on_c, 1, 45, 107
3, 17268, Note_off_c, 1, 45, 64
3, 17280, Note_on_c, 1, 47, 107
3, 17328, Note_off_c, 1, 47, 64
3, 17340, Note_on_c, 1, 42, 107
3, 17388, Note_off_c, 1, 42, 64
3, 17400, Note_on_c, 1, 45, 107
3, 17448, Note_off_c, 1, 45, 64
3, 17460, Note_on_c, 1, 48, 107
3, 17508, Note_off_c, 1, 48, 64
3, 17520, Note_on_c, 1, 47, 107
3, 17568, Note_off_c, 1, 47, 64
3, 17580, Note_on_c, 1, 45, 107
3, 17628, Note_off_c, 1, 45, 64
3, 17640, Note_on_c, 1, 43, 107
3, 17688, Note_off_c, 1, 43, 64
3, 17700, Note_on_c, 1, 42, 107
3, 17748, Note_off_c, 1, 42, 64
3, 17760, Note_on_c, 1, 43, 107
3, 17808, Note_off_c, 1, 43, 64
3, 17820, Note_on_c, 1, 47, 107
3, 17868, Note_off_c, 1, 47, 64
3, 17880, Note_on_c, 1, 45, 107
3, 17928, Note_off_c, 1, 45, 64
3, 17940, Note_on_c, 1, 43, 107
3, 17988, Note_off_c, 1, 43, 64
3, 18000, Note_on_c, 1, 42, 107
3, 18048, Note_off_c, 1, 42, 64
3, 18060, Note_on_c, 1, 40, 107
3, 18108, Note_off_c, 1, 40, 64
3, 18120, Note_on_c, 1, 42, 107
3, 18168, Note_off_c, 1, 42, 64
3, 18180, Note_on_c, 1, 43, 107
3, 18228, Note_off_c, 1, 43, 64
3, 18240, Note_on_c, 1, 42, 107
3, 18288, Note_off_c, 1, 42, 64
3, 18300, Note_on_c, 1, 40, 107
3, 18348, Note_off_c, 1, 40, 64
3, 18360, Note_on_c, 1, 39, 107
3, 18408, Note_off_c, 1, 39, 64
3, 18420, Note_on_c, 1, 37, 107
3, 18468, Note_off_c, 1, 37, 64
3, 18480, Note_on_c, 1, 39, 107
3, 18528, Note_off_c, 1, 39, 64
3, 18540, Note_on_c, 1, 40, 107
3, 18588, Note_off_c, 1, 40, 64
3, 18600, Note_on_c, 1, 37, 107
3, 18648, Note_off_c, 1, 37, 64
3, 18660, Note_on_c, 1, 39, 107
3, 18708, Note_off_c, 1, 39, 64
3, 18720, Note_on_c, 1, 40, 107
3, 18810, Note_off_c, 1, 40, 64
3, 18840, Note_on_c, 1, 52, 107
3, 18930, Note_off_c, 1, 52, 64
3, 18960, Note_on_c, 1, 40, 107
3, 19050, Note_off_c, 1, 40, 64
3, 19080, Note_on_c, 1, 40, 107
3, 19170, Note_off_c, 1, 40, 64
3, 19200, Note_on_c, 1, 52, 107
3, 19290, Note_off_c, 1, 52, 64
3, 19320, Note_on_c, 1, 40, 107
3, 19410, Note_off_c, 1, 40, 64
3, 19440, Note_on_c, 1, 40, 107
3, 19530, Note_off_c, 1, 40, 64
3, 19560, Note_on_c, 1, 52, 107
3, 19650, Note_off_c, 1, 52, 64
3, 19680, Note_on_c, 1, 40, 107
3, 19770, Note_off_c, 1, 40, 64
3, 19800, Note_on_c, 1, 40, 107
3, 19890, Note_off_c, 1, 40, 64
3, 19920, Note_on_c, 1, 52, 107
3, 20010, Note_off_c, 1, 52, 64
3, 20040, Note_on_c, 1, 40, 107
3, 20130, Note_off_c, 1, 40, 64
3, 20160, Note_on_c, 1, 40, 107
3, 20250, Note_off_c, 1, 40, 64
3, 20280, Note_on_c, 1, 52, 107
3, 20370, Note_off_c, 1, 52, 64
3, 20400, Note_on_c, 1, 40, 107
3, 20490, Note_off_c, 1, 40, 64
3, 20520, Note_on_c, 1, 52, 107
3, 20568, Note_off_c, 1, 52, 64
3, 20580, Note_on_c, 1, 51, 107
3, 20628, Note_off_c, 1, 51, 64
3, 20640, Note_on_c, 1, 52, 107
3, 20688, Note_off_c, 1, 52, 64
3, 20700, Note_on_c, 1, 54, 107
3, 20748, Note_off_c, 1, 54, 64
3, 20760, Note_on_c, 1, 55, 107
3, 20808, Note_off_c, 1, 55, 64
3, 20820, Note_on_c, 1, 52, 107
3, 20868, Note_off_c, 1, 52, 64
3, 20880, Note_on_c, 1, 57, 107
3, 20928, Note_off_c, 1, 57, 64
3, 20940, Note_on_c, 1, 59, 107
3, 20988, Note_off_c, 1, 59, 64
3, 21000, Note_on_c, 1, 57, 107
3, 21048, Note_off_c, 1, 57, 64
3, 21060, Note_on_c, 1, 55, 107
3, 21108, Note_off_c, 1, 55, 64
3, 21120, Note_on_c, 1, 54, 107
3, 21168, Note_off_c, 1, 54, 64
3, 21180, Note_on_c, 1, 52, 107
3, 21228, Note_off_c, 1, 52, 64
3, 21240, Note_on_c, 1, 50, 107
3, 21288, Note_off_c, 1, 50, 64
3, 21300, Note_on_c, 1, 48, 107
3, 21348, Note_off_c, 1, 48, 64
3, 21360, Note_on_c, 1, 50, 107
3, 21408, Note_off_c, 1, 50, 64
3, 21420, Note_on_c, 1, 52, 107
3, 21468, Note_off_c, 1, 52, 64
3, 21480, Note_on_c, 1, 54, 107
3, 21528, Note_off_c, 1, 54, 64
3, 21540, Note_on_c, 1, 50, 107
3, 21588, Note_off_c, 1, 50, 64
3, 21600, Note_on_c, 1, 55, 107
3, 21648, Note_off_c, 1, 55, 64
3, 21660, Note_on_c, 1, 57, 107
3, 21708, Note_off_c, 1, 57, 64
3, 21720, Note_on_c, 1, 55, 107
3, 21768, Note_off_c, 1, 55, 64
3, 21780, Note_on_c, 1, 53, 107
3, 21828, Note_off_c, 1, 53, 64
3, 21840, Note_on_c, 1, 52, 107
3, 21888, Note_off_c, 1, 52, 64
3, 21900, Note_on_c, 1, 50, 107
3, 21948, Note_off_c, 1, 50, 64
3, 21960, Note_on_c, 1, 48, 107
3, 22008, Note_off_c, 1, 48, 64
3, 22020, Note_on_c, 1, 47, 107
3, 22068, Note_off_c, 1, 47, 64
3, 22080, Note_on_c, 1, 48, 107
3, 22128, Note_off_c, 1, 48, 64
3, 22140, Note_on_c, 1, 50, 107
3, 22188, Note_off_c, 1, 50, 64
3, 22200, Note_on_c, 1, 52, 107
3, 22248, Note_off_c, 1, 52, 64
3, 22260, Note_on_c, 1, 48, 107
3, 22308, Note_off_c, 1, 48, 64
3, 22320, Note_on_c, 1, 54, 107
3, 22368, Note_off_c, 1, 54, 64
3, 22380, Note_on_c, 1, 55, 107
3, 22428, Note_off_c, 1, 55, 64
3, 22440, Note_on_c, 1, 54, 107
3, 22488, Note_off_c, 1, 54, 64
3, 22500, Note_on_c, 1, 52, 107
3, 22548, Note_off_c, 1, 52, 64
3, 22560, Note_on_c, 1, 51, 107
3, 22608, Note_off_c, 1, 51, 64
3, 22620, Note_on_c, 1, 49, 107
3, 22668, Note_off_c, 1, 49, 64
3, 22680, Note_on_c, 1, 47, 107
3, 22770, Note_off_c, 1, 47, 64
3, 22800, Note_on_c, 1, 59, 107
3, 22890, Note_off_c, 1, 59, 64
3, 22920, Note_on_c, 1, 47, 107
3, 23010, Note_off_c, 1, 47, 64
3, 23040, Note_on_c, 1, 47, 107
3, 23130, Note_off_c, 1, 47, 64
3, 23160, Note_on_c, 1, 59, 107
3, 23250, Note_off_c, 1, 59, 64
3, 23280, Note_on_c, 1, 47, 107
3, 23370, Note_off_c, 1, 47, 64
3, 23400, Note_on_c, 1, 47, 107
3, 23490, Note_off_c, 1, 47, 64
3, 23520, Note_on_c, 1, 58, 107
3, 23610, Note_off_c, 1, 58, 64
3, 23640, Note_on_c, 1, 47, 107
3, 23730, Note_off_c, 1, 47, 64
3, 23760, Note_on_c, 1, 47, 107
3, 24120, Note_on_c, 1, 55, 107
3, 24624, Note_off_c, 1, 55, 64
3, 24660, Note_on_c, 1, 52, 107
3, 24708, Note_off_c, 1, 52, 64
3, 24720, Note_on_c, 1, 55, 107
3, 24768, Note_off_c, 1, 55, 64
3, 24780, Note_on_c, 1, 49, 107
3, 24828, Note_off_c, 1, 49, 64
3, 24840, Note_on_c, 1, 52, 107
3, 24888, Note_off_c, 1, 52, 64
3, 24900, Note_on_c, 1, 55, 107
3, 25152, Note_off_c, 1, 55, 64
3, 25200, Note_on_c, 1, 54, 107
3, 25296, Note_off_c, 1, 54, 64
3, 25296, Note_off_c, 1, 47, 64
3, 25320, Note_on_c, 1, 59, 107
3, 25464, Note_off_c, 1, 59, 64
3, 25500, Note_on_c, 1, 59, 107
3, 25548, Note_off_c, 1, 59, 64
3, 25560, Note_on_c, 1, 52, 107
3, 25656, Note_off_c, 1, 52, 64
3, 25680, Note_on_c, 1, 60, 107
3, 25728, Note_off_c, 1, 60, 64
3, 25740, Note_on_c, 1, 59, 107
3, 25788, Note_off_c, 1, 59, 64
3, 25800, Note_on_c, 1, 60, 107
3, 25848, Note_off_c, 1, 60, 64
3, 25860, Note_on_c, 1, 57, 107
3, 25908, Note_off_c, 1, 57, 64
3, 25920, Note_on_c, 1, 51, 107
3, 26016, Note_off_c, 1, 51, 64
3, 26040, Note_on_c, 1, 54, 107
3, 26184, Note_off_c, 1, 54, 64
3, 26220, Note_on_c, 1, 54, 107
3, 26268, Note_off_c, 1, 54, 64
3, 26280, Note_on_c, 1, 47, 107
3, 26376, Note_off_c, 1, 47, 64
3, 26400, Note_on_c, 1, 59, 107
3, 26448, Note_off_c, 1, 59, 64
3, 26460, Note_on_c, 1, 57, 107
3, 26508, Note_off_c, 1, 57, 64
3, 26520, Note_on_c, 1, 59, 107
3, 26568, Note_off_c, 1, 59, 64
3, 26580, Note_on_c, 1, 54, 107
3, 26628, Note_off_c, 1, 54, 64
3, 26640, Note_on_c, 1, 55, 107
3, 26736, Note_off_c, 1, 55, 64
3, 26760, Note_on_c, 1, 57, 107
3, 26784, Note_off_c, 1, 57, 64
3, 26790, Note_on_c, 1, 56, 107
3, 26814, Note_off_c, 1, 56, 64
3, 26820, Note_on_c, 1, 57, 107
3, 26844, Note_off_c, 1, 57, 64
3, 26850, Note_on_c, 1, 56, 107
3, 26874, Note_off_c, 1, 56, 64
3, 26880, Note_on_c, 1, 57, 107
3, 26904, Note_off_c, 1, 57, 64
3, 26910, Note_on_c, 1, 56, 107
3, 26934, Note_off_c, 1, 56, 64
3, 26940, Note_on_c, 1, 56, 107
3, 26988, Note_off_c, 1, 56, 64
3, 27000, Note_on_c, 1, 57, 107
3, 27096, Note_off_c, 1, 57, 64
3, 27120, Note_on_c, 1, 60, 107
3, 27264, Note_off_c, 1, 60, 64
3, 27300, Note_on_c, 1, 60, 107
3, 27348, Note_off_c, 1, 60, 64
3, 27360, Note_on_c, 1, 59, 107
3, 27408, Note_off_c, 1, 59, 64
3, 27420, Note_on_c, 1, 60, 107
3, 27468, Note_off_c, 1, 60, 64
3, 27480, Note_on_c, 1, 59, 107
3, 27528, Note_off_c, 1, 59, 64
3, 27540, Note_on_c, 1, 57, 107
3, 27588, Note_off_c, 1, 57, 64
3, 27600, Note_on_c, 1, 55, 107
3, 27648, Note_off_c, 1, 55, 64
3, 27660, Note_on_c, 1, 54, 107
3, 27708, Note_off_c, 1, 54, 64
3, 27720, Note_on_c, 1, 52, 107
3, 27768, Note_off_c, 1, 52, 64
3, 27780, Note_on_c, 1, 57, 107
3, 27828, Note_off_c, 1, 57, 64
3, 27840, Note_on_c, 1, 59, 107
3, 27930, Note_off_c, 1, 59, 64
3, 27960, Note_on_c, 1, 47, 107
3, 28050, Note_off_c, 1, 47, 64
3, 28080, Note_on_c, 1, 40, 107
3, 28170, Note_off_c, 1, 40, 64
3, 28560, Note_on_c, 1, 55, 107
3, 28560, Note_on_c, 1, 52, 107
3, 28650, Note_off_c, 1, 55, 64
3, 28656, Note_off_c, 1, 52, 64
3, 28680, Note_on_c, 1, 57, 107
3, 28680, Note_on_c, 1, 54, 107
3, 28770, Note_off_c, 1, 57, 64
3, 28776, Note_off_c, 1, 54, 64
3, 28800, Note_on_c, 1, 56, 107
3, 28800, Note_on_c, 1, 59, 107
3, 28890, Note_off_c, 1, 59, 64
3, 28896, Note_off_c, 1, 56, 64
3, 29280, Note_on_c, 1, 59, 107
3, 29280, Note_on_c, 1, 56, 107
3, 29370, Note_off_c, 1, 59, 64
3, 29376, Note_off_c, 1, 56, 64
3, 29400, Note_on_c, 1, 56, 107
3, 29400, Note_on_c, 1, 52, 107
3, 29490, Note_off_c, 1, 56, 64
3, 29496, Note_off_c, 1, 52, 64
3, 29520, Note_on_c, 1, 57, 107
3, 29568, Note_off_c, 1, 57, 64
3, 29580, Note_on_c, 1, 56, 107
3, 29628, Note_off_c, 1, 56, 64
3, 29640, Note_on_c, 1, 57, 107
3, 29688, Note_off_c, 1, 57, 64
3, 29700, Note_on_c, 1, 60, 107
3, 29748, Note_off_c, 1, 60, 64
3, 29760, Note_on_c, 1, 64, 107
3, 29808, Note_off_c, 1, 64, 64
3, 29820, Note_on_c, 1, 60, 107
3, 29868, Note_off_c, 1, 60, 64
3, 29880, Note_on_c, 1, 57, 107
3, 29928, Note_off_c, 1, 57, 64
3, 29940, Note_on_c, 1, 64, 107
3, 29988, Note_off_c, 1, 64, 64
3, 30000, Note_on_c, 1, 60, 107
3, 30048, Note_off_c, 1, 60, 64
3, 30060, Note_on_c, 1, 57, 107
3, 30108, Note_off_c, 1, 57, 64
3, 30120, Note_on_c, 1, 52, 107
3, 30168, Note_off_c, 1, 52, 64
3, 30180, Note_on_c, 1, 54, 107
3, 30228, Note_off_c, 1, 54, 64
3, 30240, Note_on_c, 1, 55, 107
3, 30288, Note_off_c, 1, 55, 64
3, 30300, Note_on_c, 1, 54, 107
3, 30348, Note_off_c, 1, 54, 64
3, 30360, Note_on_c, 1, 55, 107
3, 30408, Note_off_c, 1, 55, 64
3, 30420, Note_on_c, 1, 58, 107
3, 30468, Note_off_c, 1, 58, 64
3, 30480, Note_on_c, 1, 64, 107
3, 30528, Note_off_c, 1, 64, 64
3, 30540, Note_on_c, 1, 58, 107
3, 30588, Note_off_c, 1, 58, 64
3, 30600, Note_on_c, 1, 55, 107
3, 30648, Note_off_c, 1, 55, 64
3, 30660, Note_on_c, 1, 64, 107
3, 30708, Note_off_c, 1, 64, 64
3, 30720, Note_on_c, 1, 58, 107
3, 30768, Note_off_c, 1, 58, 64
3, 30780, Note_on_c, 1, 55, 107
3, 30828, Note_off_c, 1, 55, 64
3, 30840, Note_on_c, 1, 52, 107
3, 30888, Note_off_c, 1, 52, 64
3, 30900, Note_on_c, 1, 55, 107
3, 30948, Note_off_c, 1, 55, 64
3, 30960, Note_on_c, 1, 54, 107
3, 30960, Note_on_c, 1, 62, 107
3, 30960, Note_on_c, 1, 57, 107
3, 31056, Note_off_c, 1, 57, 64
3, 31056, Note_off_c, 1, 62, 64
3, 31056, Note_off_c, 1, 54, 64
3, 31440, Note_on_c, 1, 50, 107
3, 31440, Note_on_c, 1, 54, 107
3, 31530, Note_off_c, 1, 54, 64
3, 31536, Note_off_c, 1, 50, 64
3, 31560, Note_on_c, 1, 55, 107
3, 31560, Note_on_c, 1, 52, 107
3, 31650, Note_off_c, 1, 55, 64
3, 31656, Note_off_c, 1, 52, 64
3, 31680, Note_on_c, 1, 54, 107
3, 31680, Note_on_c, 1, 57, 107
3, 31770, Note_off_c, 1, 57, 64
3, 31776, Note_off_c, 1, 54, 64
3, 32160, Note_on_c, 1, 57, 107
3, 32160, Note_on_c, 1, 54, 107
3, 32250, Note_off_c, 1, 57, 64
3, 32256, Note_off_c, 1, 54, 64
3, 32280, Note_on_c, 1, 54, 107
3, 32280, Note_on_c, 1, 50, 107
3, 32370, Note_off_c, 1, 54, 64
3, 32376, Note_off_c, 1, 50, 64
3, 32400, Note_on_c, 1, 55, 107
3, 32448, Note_off_c, 1, 55, 64
3, 32460, Note_on_c, 1, 54, 107
3, 32508, Note_off_c, 1, 54, 64
3, 32520, Note_on_c, 1, 55, 107
3, 32568, Note_off_c, 1, 55, 64
3, 32580, Note_on_c, 1, 59, 107
3, 32628, Note_off_c, 1, 59, 64
3, 32640, Note_on_c, 1, 62, 107
3, 32688, Note_off_c, 1, 62, 64
3, 32700, Note_on_c, 1, 59, 107
3, 32748, Note_off_c, 1, 59, 64
3, 32760, Note_on_c, 1, 55, 107
3, 32808, Note_off_c, 1, 55, 64
3, 32820, Note_on_c, 1, 62, 107
3, 32868, Note_off_c, 1, 62, 64
3, 32880, Note_on_c, 1, 59, 107
3, 32928, Note_off_c, 1, 59, 64
3, 32940, Note_on_c, 1, 55, 107
3, 32988, Note_off_c, 1, 55, 64
3, 33000, Note_on_c, 1, 50, 107
3, 33048, Note_off_c, 1, 50, 64
3, 33060, Note_on_c, 1, 52, 107
3, 33108, Note_off_c, 1, 52, 64
3, 33120, Note_on_c, 1, 53, 107
3, 33168, Note_off_c, 1, 53, 64
3, 33180, Note_on_c, 1, 52, 107
3, 33228, Note_off_c, 1, 52, 64
3, 33240, Note_on_c, 1, 53, 107
3, 33288, Note_off_c, 1, 53, 64
3, 33300, Note_on_c, 1, 56, 107
3, 33348, Note_off_c, 1, 56, 64
3, 33360, Note_on_c, 1, 62, 107
3, 33408, Note_off_c, 1, 62, 64
3, 33420, Note_on_c, 1, 56, 107
3, 33468, Note_off_c, 1, 56, 64
3, 33480, Note_on_c, 1, 53, 107
3, 33528, Note_off_c, 1, 53, 64
3, 33540, Note_on_c, 1, 62, 107
3, 33588, Note_off_c, 1, 62, 64
3, 33600, Note_on_c, 1, 56, 107
3, 33648, Note_off_c, 1, 56, 64
3, 33660, Note_on_c, 1, 53, 107
3, 33708, Note_off_c, 1, 53, 64
3, 33720, Note_on_c, 1, 50, 107
3, 33768, Note_off_c, 1, 50, 64
3, 33780, Note_on_c, 1, 53, 107
3, 33828, Note_off_c, 1, 53, 64
3, 33840, Note_on_c, 1, 55, 107
3, 33840, Note_on_c, 1, 52, 107
3, 33840, Note_on_c, 1, 60, 107
3, 33936, Note_off_c, 1, 60, 64
3, 33936, Note_off_c, 1, 52, 64
3, 33936, Note_off_c, 1, 55, 64
3, 34320, Note_on_c, 1, 52, 107
3, 34320, Note_on_c, 1, 60, 107
3, 34320, Note_on_c, 1, 55, 107
3, 34416, Note_off_c, 1, 55, 64
3, 34416, Note_off_c, 1, 60, 64
3, 34416, Note_off_c, 1, 52, 64
3, 34440, Note_on_c, 1, 52, 107
3, 34440, Note_on_c, 1, 55, 107
3, 34440, Note_on_c, 1, 60, 107
3, 34536, Note_off_c, 1, 60, 64
3, 34536, Note_off_c, 1, 55, 64
3, 34536, Note_off_c, 1, 52, 64
3, 34560, Note_on_c, 1, 57, 107
3, 34560, Note_on_c, 1, 60, 107
3, 34560, Note_on_c, 1, 51, 107
3, 34656, Note_off_c, 1, 51, 64
3, 34656, Note_off_c, 1, 60, 64
3, 34656, Note_off_c, 1, 57, 64
3, 35040, Note_on_c, 1, 57, 107
3, 35040, Note_on_c, 1, 51, 107
3, 35040, Note_on_c, 1, 60, 107
3, 35136, Note_off_c, 1, 60, 64
3, 35136, Note_off_c, 1, 51, 64
3, 35136, Note_off_c, 1, 57, 64
3, 35160, Note_on_c, 1, 60, 107
3, 35160, Note_on_c, 1, 51, 107
3, 35160, Note_on_c, 1, 57, 107
3, 35256, Note_off_c, 1, 57, 64
3, 35256, Note_off_c, 1, 51, 64
3, 35256, Note_off_c, 1, 60, 64
3, 35280, Note_on_c, 1, 50, 107
3, 35280, Note_on_c, 1, 59, 107
3, 35280, Note_on_c, 1, 55, 107
3, 35376, Note_off_c, 1, 55, 64
3, 35376, Note_off_c, 1, 59, 64
3, 35376, Note_off_c, 1, 50, 64
3, 35760, Note_on_c, 1, 50, 107
3, 35760, Note_on_c, 1, 55, 107
3, 35760, Note_on_c, 1, 59, 107
3, 35856, Note_off_c, 1, 59, 64
3, 35856, Note_off_c, 1, 55, 64
3, 35856, Note_off_c, 1, 50, 64
3, 35880, Note_on_c, 1, 59, 107
3, 35880, Note_on_c, 1, 50, 107
3, 35880, Note_on_c, 1, 55, 107
3, 35976, Note_off_c, 1, 55, 64
3, 35976, Note_off_c, 1, 50, 64
3, 35976, Note_off_c, 1, 59, 64
3, 36000, Note_on_c, 1, 49, 107
3, 36000, Note_on_c, 1, 55, 107
3, 36000, Note_on_c, 1, 58, 107
3, 36096, Note_off_c, 1, 58, 64
3, 36096, Note_off_c, 1, 55, 64
3, 36096, Note_off_c, 1, 49, 64
3, 36480, Note_on_c, 1, 57, 107
3, 36480, Note_on_c, 1, 52, 107
3, 36480, Note_on_c, 1, 49, 107
3, 36576, Note_off_c, 1, 49, 64
3, 36576, Note_off_c, 1, 52, 64
3, 36576, Note_off_c, 1, 57, 64
3, 36600, Note_on_c, 1, 52, 107
3, 36600, Note_on_c, 1, 57, 107
3, 36600, Note_on_c, 1, 45, 107
3, 36600, Note_on_c, 1, 49, 107
3, 36696, Note_off_c, 1, 49, 64
3, 36696, Note_off_c, 1, 45, 64
3, 36696, Note_off_c, 1, 57, 64
3, 36696, Note_off_c, 1, 52, 64
3, 36720, Note_on_c, 1, 50, 107
3, 36720, Note_on_c, 1, 57, 107
3, 36768, Note_off_c, 1, 50, 64
3, 36780, Note_on_c, 1, 49, 107
3, 36816, Note_off_c, 1, 57, 64
3, 36828, Note_off_c, 1, 49, 64
3, 36840, Note_on_c, 1, 50, 107
3, 36888, Note_off_c, 1, 50, 64
3, 36900, Note_on_c, 1, 52, 107
3, 36948, Note_off_c, 1, 52, 64
3, 36960, Note_on_c, 1, 50, 107
3, 37008, Note_off_c, 1, 50, 64
3, 37020, Note_on_c, 1, 48, 107
3, 37068, Note_off_c, 1, 48, 64
3, 37080, Note_on_c, 1, 47, 107
3, 37128, Note_off_c, 1, 47, 64
3, 37140, Note_on_c, 1, 45, 107
3, 37188, Note_off_c, 1, 45, 64
3, 37200, Note_on_c, 1, 47, 107
3, 37248, Note_off_c, 1, 47, 64
3, 37260, Note_on_c, 1, 50, 107
3, 37308, Note_off_c, 1, 50, 64
3, 37320, Note_on_c, 1, 48, 107
3, 37368, Note_off_c, 1, 48, 64
3, 37380, Note_on_c, 1, 47, 107
3, 37428, Note_off_c, 1, 47, 64
3, 37440, Note_on_c, 1, 45, 107
3, 37488, Note_off_c, 1, 45, 64
3, 37500, Note_on_c, 1, 43, 107
3, 37548, Note_off_c, 1, 43, 64
3, 37560, Note_on_c, 1, 45, 107
3, 37608, Note_off_c, 1, 45, 64
3, 37620, Note_on_c, 1, 47, 107
3, 37668, Note_off_c, 1, 47, 64
3, 37680, Note_on_c, 1, 45, 107
3, 37728, Note_off_c, 1, 45, 64
3, 37740, Note_on_c, 1, 43, 107
3, 37788, Note_off_c, 1, 43, 64
3, 37800, Note_on_c, 1, 42, 107
3, 37848, Note_off_c, 1, 42, 64
3, 37860, Note_on_c, 1, 40, 107
3, 37908, Note_off_c, 1, 40, 64
3, 37920, Note_on_c, 1, 42, 107
3, 37968, Note_off_c, 1, 42, 64
3, 37980, Note_on_c, 1, 43, 107
3, 38028, Note_off_c, 1, 43, 64
3, 38040, Note_on_c, 1, 40, 107
3, 38088, Note_off_c, 1, 40, 64
3, 38100, Note_on_c, 1, 42, 107
3, 38148, Note_off_c, 1, 42, 64
3, 38160, Note_on_c, 1, 43, 107
3, 38256, Note_off_c, 1, 43, 64
3, 38280, Note_on_c, 1, 55, 107
3, 38424, Note_off_c, 1, 55, 64
3, 38460, Note_on_c, 1, 55, 107
3, 38508, Note_off_c, 1, 55, 64
3, 38520, Note_on_c, 1, 50, 107
3, 38616, Note_off_c, 1, 50, 64
3, 38640, Note_on_c, 1, 59, 107
3, 38688, Note_off_c, 1, 59, 64
3, 38700, Note_on_c, 1, 57, 107
3, 38748, Note_off_c, 1, 57, 64
3, 38760, Note_on_c, 1, 59, 107
3, 38808, Note_off_c, 1, 59, 64
3, 38820, Note_on_c, 1, 55, 107
3, 38868, Note_off_c, 1, 55, 64
3, 38880, Note_on_c, 1, 49, 107
3, 38976, Note_off_c, 1, 49, 64
3, 39000, Note_on_c, 1, 52, 107
3, 39144, Note_off_c, 1, 52, 64
3, 39180, Note_on_c, 1, 52, 107
3, 39228, Note_off_c, 1, 52, 64
3, 39240, Note_on_c, 1, 45, 107
3, 39336, Note_off_c, 1, 45, 64
3, 39360, Note_on_c, 1, 57, 107
3, 39408, Note_off_c, 1, 57, 64
3, 39420, Note_on_c, 1, 55, 107
3, 39468, Note_off_c, 1, 55, 64
3, 39480, Note_on_c, 1, 57, 107
3, 39528, Note_off_c, 1, 57, 64
3, 39540, Note_on_c, 1, 52, 107
3, 39588, Note_off_c, 1, 52, 64
3, 39600, Note_on_c, 1, 54, 107
3, 39696, Note_off_c, 1, 54, 64
3, 39780, Note_on_c, 1, 50, 107
3, 39828, Note_off_c, 1, 50, 64
3, 39840, Note_on_c, 1, 52, 107
3, 39888, Note_off_c, 1, 52, 64
3, 39900, Note_on_c, 1, 54, 107
3, 39948, Note_off_c, 1, 54, 64
3, 39960, Note_on_c, 1, 55, 107
3, 40008, Note_off_c, 1, 55, 64
3, 40020, Note_on_c, 1, 54, 107
3, 40068, Note_off_c, 1, 54, 64
3, 40080, Note_on_c, 1, 55, 107
3, 40128, Note_off_c, 1, 55, 64
3, 40140, Note_on_c, 1, 57, 107
3, 40188, Note_off_c, 1, 57, 64
3, 40200, Note_on_c, 1, 59, 107
3, 40248, Note_off_c, 1, 59, 64
3, 40260, Note_on_c, 1, 60, 107
3, 40308, Note_off_c, 1, 60, 64
3, 40320, Note_on_c, 1, 62, 107
3, 40368, Note_off_c, 1, 62, 64
3, 40380, Note_on_c, 1, 59, 107
3, 40428, Note_off_c, 1, 59, 64
3, 40440, Note_on_c, 1, 55, 107
3, 40488, Note_off_c, 1, 55, 64
3, 40500, Note_on_c, 1, 50, 107
3, 40548, Note_off_c, 1, 50, 64
3, 40560, Note_on_c, 1, 53, 107
3, 40728, Note_off_c, 1, 53, 64
3, 40740, Note_on_c, 1, 57, 107
3, 40788, Note_off_c, 1, 57, 64
3, 40800, Note_on_c, 1, 55, 107
3, 40848, Note_off_c, 1, 55, 64
3, 40860, Note_on_c, 1, 53, 107
3, 40908, Note_off_c, 1, 53, 64
3, 40920, Note_on_c, 1, 52, 107
3, 40968, Note_off_c, 1, 52, 64
3, 40980, Note_on_c, 1, 50, 107
3, 41028, Note_off_c, 1, 50, 64
3, 41040, Note_on_c, 1, 52, 107
3, 41136, Note_off_c, 1, 52, 64
3, 41220, Note_on_c, 1, 53, 107
3, 41268, Note_off_c, 1, 53, 64
3, 41280, Note_on_c, 1, 52, 107
3, 41328, Note_off_c, 1, 52, 64
3, 41340, Note_on_c, 1, 50, 107
3, 41388, Note_off_c, 1, 50, 64
3, 41400, Note_on_c, 1, 49, 107
3, 41448, Note_off_c, 1, 49, 64
3, 41460, Note_on_c, 1, 50, 107
3, 41508, Note_off_c, 1, 50, 64
3, 41520, Note_on_c, 1, 52, 107
3, 41568, Note_off_c, 1, 52, 64
3, 41580, Note_on_c, 1, 54, 107
3, 41628, Note_off_c, 1, 54, 64
3, 41640, Note_on_c, 1, 55, 107
3, 41688, Note_off_c, 1, 55, 64
3, 41700, Note_on_c, 1, 57, 107
3, 41748, Note_off_c, 1, 57, 64
3, 41760, Note_on_c, 1, 50, 107
3, 41808, Note_off_c, 1, 50, 64
3, 41820, Note_on_c, 1, 57, 107
3, 41868, Note_off_c, 1, 57, 64
3, 41880, Note_on_c, 1, 54, 107
3, 41928, Note_off_c, 1, 54, 64
3, 41940, Note_on_c, 1, 50, 107
3, 41988, Note_off_c, 1, 50, 64
3, 42000, Note_on_c, 1, 60, 107
3, 42168, Note_off_c, 1, 60, 64
3, 42180, Note_on_c, 1, 64, 107
3, 42228, Note_off_c, 1, 64, 64
3, 42240, Note_on_c, 1, 62, 107
3, 42288, Note_off_c, 1, 62, 64
3, 42300, Note_on_c, 1, 60, 107
3, 42348, Note_off_c, 1, 60, 64
3, 42360, Note_on_c, 1, 59, 107
3, 42408, Note_off_c, 1, 59, 64
3, 42420, Note_on_c, 1, 57, 107
3, 42468, Note_off_c, 1, 57, 64
3, 46800, Note_on_c, 1, 59, 107
3, 46848, Note_off_c, 1, 59, 64
3, 46860, Note_on_c, 1, 60, 107
3, 46908, Note_off_c, 1, 60, 64
3, 46920, Note_on_c, 1, 62, 107
3, 47064, Note_off_c, 1, 62, 64
3, 47100, Note_on_c, 1, 62, 107
3, 47148, Note_off_c, 1, 62, 64
3, 47160, Note_on_c, 1, 55, 107
3, 47256, Note_off_c, 1, 55, 64
3, 47280, Note_on_c, 1, 64, 107
3, 47328, Note_off_c, 1, 64, 64
3, 47340, Note_on_c, 1, 62, 107
3, 47388, Note_off_c, 1, 62, 64
3, 47400, Note_on_c, 1, 64, 107
3, 47448, Note_off_c, 1, 64, 64
3, 47460, Note_on_c, 1, 60, 107
3, 47508, Note_off_c, 1, 60, 64
3, 47520, Note_on_c, 1, 54, 107
3, 47616, Note_off_c, 1, 54, 64
3, 47640, Note_on_c, 1, 59, 107
3, 47664, Note_off_c, 1, 59, 64
3, 47670, Note_on_c, 1, 58, 107
3, 47694, Note_off_c, 1, 58, 64
3, 47700, Note_on_c, 1, 59, 107
3, 47796, Note_off_c, 1, 59, 64
3, 47820, Note_on_c, 1, 59, 107
3, 47868, Note_off_c, 1, 59, 64
3, 47880, Note_on_c, 1, 52, 107
3, 47976, Note_off_c, 1, 52, 64
3, 48000, Note_on_c, 1, 60, 107
3, 48048, Note_off_c, 1, 60, 64
3, 48060, Note_on_c, 1, 59, 107
3, 48108, Note_off_c, 1, 59, 64
3, 48120, Note_on_c, 1, 60, 107
3, 48168, Note_off_c, 1, 60, 64
3, 48180, Note_on_c, 1, 57, 107
3, 48228, Note_off_c, 1, 57, 64
3, 48240, Note_on_c, 1, 50, 107
3, 48336, Note_off_c, 1, 50, 64
3, 48360, Note_on_c, 1, 55, 107
3, 48504, Note_off_c, 1, 55, 64
3, 48540, Note_on_c, 1, 55, 107
3, 48588, Note_off_c, 1, 55, 64
3, 48600, Note_on_c, 1, 48, 107
3, 48696, Note_off_c, 1, 48, 64
3, 48720, Note_on_c, 1, 57, 107
3, 48768, Note_off_c, 1, 57, 64
3, 48780, Note_on_c, 1, 56, 107
3, 48828, Note_off_c, 1, 56, 64
3, 48840, Note_on_c, 1, 57, 107
3, 48888, Note_off_c, 1, 57, 64
3, 48900, Note_on_c, 1, 54, 107
3, 48948, Note_off_c, 1, 54, 64
3, 48960, Note_on_c, 1, 47, 107
3, 49073, Note_off_c, 1, 47, 64
3, 49080, Note_on_c, 1, 52, 107
3, 49224, Note_off_c, 1, 52, 64
3, 49260, Note_on_c, 1, 52, 107
3, 49308, Note_off_c, 1, 52, 64
3, 49320, Note_on_c, 1, 45, 107
3, 49416, Note_off_c, 1, 45, 64
3, 49440, Note_on_c, 1, 54, 107
3, 49488, Note_off_c, 1, 54, 64
3, 49500, Note_on_c, 1, 52, 107
3, 49548, Note_off_c, 1, 52, 64
3, 49560, Note_on_c, 1, 54, 107
3, 49608, Note_off_c, 1, 54, 64
3, 49620, Note_on_c, 1, 50, 107
3, 49668, Note_off_c, 1, 50, 64
3, 49680, Note_on_c, 1, 43, 107
3, 49824, Note_off_c, 1, 43, 64
3, 49860, Note_on_c, 1, 45, 107
3, 49908, Note_off_c, 1, 45, 64
3, 49920, Note_on_c, 1, 47, 107
3, 50088, Note_off_c, 1, 47, 64
3, 50100, Note_on_c, 1, 48, 107
3, 50148, Note_off_c, 1, 48, 64
3, 50160, Note_on_c, 1, 50, 107
3, 50208, Note_off_c, 1, 50, 64
3, 50220, Note_on_c, 1, 48, 107
3, 50268, Note_off_c, 1, 48, 64
3, 50280, Note_on_c, 1, 50, 107
3, 50328, Note_off_c, 1, 50, 64
3, 50340, Note_on_c, 1, 38, 107
3, 50388, Note_off_c, 1, 38, 64
3, 50400, Note_on_c, 1, 43, 107
3, 50496, Note_off_c, 1, 43, 64
3, 50520, Note_on_c, 1, 55, 107
3, 50664, Note_off_c, 1, 55, 64
3, 50700, Note_on_c, 1, 54, 107
3, 50748, Note_off_c, 1, 54, 64
3, 50760, Note_on_c, 1, 55, 107
3, 50808, Note_off_c, 1, 55, 64
3, 50820, Note_on_c, 1, 52, 107
3, 50868, Note_off_c, 1, 52, 64
3, 50880, Note_on_c, 1, 54, 107
3, 50928, Note_off_c, 1, 54, 64
3, 50940, Note_on_c, 1, 52, 107
3, 50988, Note_off_c, 1, 52, 64
3, 51000, Note_on_c, 1, 54, 107
3, 51048, Note_off_c, 1, 54, 64
3, 51060, Note_on_c, 1, 42, 107
3, 51108, Note_off_c, 1, 42, 64
3, 51120, Note_on_c, 1, 47, 107
3, 51216, Note_off_c, 1, 47, 64
3, 51240, Note_on_c, 1, 59, 107
3, 51384, Note_off_c, 1, 59, 64
3, 51420, Note_on_c, 1, 57, 107
3, 51468, Note_off_c, 1, 57, 64
3, 51480, Note_on_c, 1, 59, 107
3, 51528, Note_off_c, 1, 59, 64
3, 51540, Note_on_c, 1, 55, 107
3, 51588, Note_off_c, 1, 55, 64
3, 51600, Note_on_c, 1, 57, 107
3, 51648, Note_off_c, 1, 57, 64
3, 51660, Note_on_c, 1, 55, 107
3, 51708, Note_off_c, 1, 55, 64
3, 51720, Note_on_c, 1, 57, 107
3, 51768, Note_off_c, 1, 57, 64
3, 51780, Note_on_c, 1, 45, 107
3, 51828, Note_off_c, 1, 45, 64
3, 51840, Note_on_c, 1, 50, 107
3, 51936, Note_off_c, 1, 50, 64
3, 51960, Note_on_c, 1, 62, 107
3, 52104, Note_off_c, 1, 62, 64
3, 52140, Note_on_c, 1, 59, 107
3, 52188, Note_off_c, 1, 59, 64
3, 52200, Note_on_c, 1, 67, 107
3, 52344, Note_off_c, 1, 67, 64
3, 52380, Note_on_c, 1, 67, 107
3, 52428, Note_off_c, 1, 67, 64
3, 52440, Note_on_c, 1, 64, 107
3, 52488, Note_off_c, 1, 64, 64
3, 52500, Note_on_c, 1, 61, 107
3, 52548, Note_off_c, 1, 61, 64
3, 52560, Note_on_c, 1, 66, 107
3, 52656, Note_off_c, 1, 66, 64
3, 52680, Note_on_c, 1, 54, 107
3, 52776, Note_off_c, 1, 54, 64
3, 52800, Note_on_c, 1, 66, 107
3, 52890, Note_off_c, 1, 66, 64
3, 52920, Note_on_c, 1, 66, 107
3, 53016, Note_off_c, 1, 66, 64
3, 53040, Note_on_c, 1, 54, 107
3, 53136, Note_off_c, 1, 54, 64
3, 53160, Note_on_c, 1, 66, 107
3, 53256, Note_off_c, 1, 66, 64
3, 53280, Note_on_c, 1, 66, 107
3, 53376, Note_off_c, 1, 66, 64
3, 53400, Note_on_c, 1, 54, 107
3, 53496, Note_off_c, 1, 54, 64
3, 53520, Note_on_c, 1, 66, 107
3, 53610, Note_off_c, 1, 66, 64
3, 53640, Note_on_c, 1, 66, 107
3, 53736, Note_off_c, 1, 66, 64
3, 53760, Note_on_c, 1, 54, 107
3, 53856, Note_off_c, 1, 54, 64
3, 53880, Note_on_c, 1, 66, 107
3, 53970, Note_off_c, 1, 66, 64
3, 54000, Note_on_c, 1, 66, 107
3, 54096, Note_off_c, 1, 66, 64
3, 54120, Note_on_c, 1, 54, 107
3, 54216, Note_off_c, 1, 54, 64
3, 54240, Note_on_c, 1, 66, 107
3, 54330, Note_off_c, 1, 66, 64
3, 54360, Note_on_c, 1, 66, 107
3, 54408, Note_off_c, 1, 66, 64
3, 54420, Note_on_c, 1, 67, 107
3, 54468, Note_off_c, 1, 67, 64
3, 54480, Note_on_c, 1, 66, 107
3, 54528, Note_off_c, 1, 66, 64
3, 54540, Note_on_c, 1, 64, 107
3, 54588, Note_off_c, 1, 64, 64
3, 54600, Note_on_c, 1, 62, 107
3, 54648, Note_off_c, 1, 62, 64
3, 54660, Note_on_c, 1, 61, 107
3, 54708, Note_off_c, 1, 61, 64
3, 54720, Note_on_c, 1, 59, 107
3, 54768, Note_off_c, 1, 59, 64
3, 54780, Note_on_c, 1, 61, 107
3, 54828, Note_off_c, 1, 61, 64
3, 54840, Note_on_c, 1, 59, 107
3, 54888, Note_off_c, 1, 59, 64
3, 54900, Note_on_c, 1, 57, 107
3, 54948, Note_off_c, 1, 57, 64
3, 54960, Note_on_c, 1, 55, 107
3, 55008, Note_off_c, 1, 55, 64
3, 55020, Note_on_c, 1, 54, 107
3, 55068, Note_off_c, 1, 54, 64
3, 55080, Note_on_c, 1, 52, 107
3, 55128, Note_off_c, 1, 52, 64
3, 55140, Note_on_c, 1, 50, 107
3, 55188, Note_off_c, 1, 50, 64
3, 55200, Note_on_c, 1, 52, 107
3, 55248, Note_off_c, 1, 52, 64
3, 55260, Note_on_c, 1, 54, 107
3, 55308, Note_off_c, 1, 54, 64
3, 55320, Note_on_c, 1, 55, 107
3, 55368, Note_off_c, 1, 55, 64
3, 55380, Note_on_c, 1, 52, 107
3, 55428, Note_off_c, 1, 52, 64
3, 55440, Note_on_c, 1, 57, 107
3, 55488, Note_off_c, 1, 57, 64
3, 55500, Note_on_c, 1, 59, 107
3, 55548, Note_off_c, 1, 59, 64
3, 55560, Note_on_c, 1, 57, 107
3, 55608, Note_off_c, 1, 57, 64
3, 55620, Note_on_c, 1, 55, 107
3, 55668, Note_off_c, 1, 55, 64
3, 55680, Note_on_c, 1, 54, 107
3, 55728, Note_off_c, 1, 54, 64
3, 55740, Note_on_c, 1, 52, 107
3, 55788, Note_off_c, 1, 52, 64
3, 55800, Note_on_c, 1, 50, 107
3, 55848, Note_off_c, 1, 50, 64
3, 55860, Note_on_c, 1, 49, 107
3, 55908, Note_off_c, 1, 49, 64
3, 55920, Note_on_c, 1, 50, 107
3, 55968, Note_off_c, 1, 50, 64
3, 55980, Note_on_c, 1, 52, 107
3, 56028, Note_off_c, 1, 52, 64
3, 56040, Note_on_c, 1, 54, 107
3, 56088, Note_off_c, 1, 54, 64
3, 56100, Note_on_c, 1, 50, 107
3, 56148, Note_off_c, 1, 50, 64
3, 56160, Note_on_c, 1, 55, 107
3, 56208, Note_off_c, 1, 55, 64
3, 56220, Note_on_c, 1, 57, 107
3, 56268, Note_off_c, 1, 57, 64
3, 56280, Note_on_c, 1, 55, 107
3, 56328, Note_off_c, 1, 55, 64
3, 56340, Note_on_c, 1, 54, 107
3, 56388, Note_off_c, 1, 54, 64
3, 56400, Note_on_c, 1, 52, 107
3, 56448, Note_off_c, 1, 52, 64
3, 56460, Note_on_c, 1, 50, 107
3, 56508, Note_off_c, 1, 50, 64
3, 56520, Note_on_c, 1, 49, 107
3, 56568, Note_off_c, 1, 49, 64
3, 56580, Note_on_c, 1, 47, 107
3, 56628, Note_off_c, 1, 47, 64
3, 56640, Note_on_c, 1, 49, 107
3, 56688, Note_off_c, 1, 49, 64
3, 56700, Note_on_c, 1, 50, 107
3, 56748, Note_off_c, 1, 50, 64
3, 56760, Note_on_c, 1, 52, 107
3, 56808, Note_off_c, 1, 52, 64
3, 56820, Note_on_c, 1, 49, 107
3, 56868, Note_off_c, 1, 49, 64
3, 56880, Note_on_c, 1, 54, 107
3, 56928, Note_off_c, 1, 54, 64
3, 56940, Note_on_c, 1, 52, 107
3, 56988, Note_off_c, 1, 52, 64
3, 57000, Note_on_c, 1, 54, 107
3, 57048, Note_off_c, 1, 54, 64
3, 57060, Note_on_c, 1, 58, 107
3, 57108, Note_off_c, 1, 58, 64
3, 57120, Note_on_c, 1, 61, 107
3, 57168, Note_off_c, 1, 61, 64
3, 57180, Note_on_c, 1, 58, 107
3, 57228, Note_off_c, 1, 58, 64
3, 57240, Note_on_c, 1, 54, 107
3, 57288, Note_off_c, 1, 54, 64
3, 57300, Note_on_c, 1, 61, 107
3, 57348, Note_off_c, 1, 61, 64
3, 57360, Note_on_c, 1, 58, 107
3, 57408, Note_off_c, 1, 58, 64
3, 57420, Note_on_c, 1, 54, 107
3, 57468, Note_off_c, 1, 54, 64
3, 57480, Note_on_c, 1, 49, 107
3, 57528, Note_off_c, 1, 49, 64
3, 57540, Note_on_c, 1, 50, 107
3, 57588, Note_off_c, 1, 50, 64
3, 57600, Note_on_c, 1, 52, 107
3, 57648, Note_off_c, 1, 52, 64
3, 57660, Note_on_c, 1, 50, 107
3, 57708, Note_off_c, 1, 50, 64
3, 57720, Note_on_c, 1, 52, 107
3, 57768, Note_off_c, 1, 52, 64
3, 57780, Note_on_c, 1, 55, 107
3, 57828, Note_off_c, 1, 55, 64
3, 57840, Note_on_c, 1, 61, 107
3, 57888, Note_off_c, 1, 61, 64
3, 57900, Note_on_c, 1, 55, 107
3, 57948, Note_off_c, 1, 55, 64
3, 57960, Note_on_c, 1, 52, 107
3, 58008, Note_off_c, 1, 52, 64
3, 58020, Note_on_c, 1, 61, 107
3, 58068, Note_off_c, 1, 61, 64
3, 58080, Note_on_c, 1, 55, 107
3, 58128, Note_off_c, 1, 55, 64
3, 58140, Note_on_c, 1, 52, 107
3, 58188, Note_off_c, 1, 52, 64
3, 58200, Note_on_c, 1, 49, 107
3, 58248, Note_off_c, 1, 49, 64
3, 58260, Note_on_c, 1, 52, 107
3, 58308, Note_off_c, 1, 52, 64
3, 58320, Note_on_c, 1, 50, 107
3, 58320, Note_on_c, 1, 59, 107
3, 58320, Note_on_c, 1, 54, 107
3, 58416, Note_off_c, 1, 54, 64
3, 58416, Note_off_c, 1, 59, 64
3, 58416, Note_off_c, 1, 50, 64
3, 58800, Note_on_c, 1, 47, 107
3, 58800, Note_on_c, 1, 50, 107
3, 58890, Note_off_c, 1, 47, 64
3, 58896, Note_off_c, 1, 50, 64
3, 58920, Note_on_c, 1, 49, 107
3, 58920, Note_on_c, 1, 52, 107
3, 59010, Note_off_c, 1, 49, 64
3, 59016, Note_off_c, 1, 52, 64
3, 59040, Note_on_c, 1, 51, 107
3, 59040, Note_on_c, 1, 54, 107
3, 59130, Note_off_c, 1, 54, 64
3, 59136, Note_off_c, 1, 51, 64
3, 59520, Note_on_c, 1, 54, 107
3, 59520, Note_on_c, 1, 51, 107
3, 59610, Note_off_c, 1, 54, 64
3, 59616, Note_off_c, 1, 51, 64
3, 59640, Note_on_c, 1, 51, 107
3, 59640, Note_on_c, 1, 47, 107
3, 59730, Note_off_c, 1, 51, 64
3, 59736, Note_off_c, 1, 47, 64
3, 59760, Note_on_c, 1, 52, 107
3, 59808, Note_off_c, 1, 52, 64
3, 59820, Note_on_c, 1, 51, 107
3, 59868, Note_off_c, 1, 51, 64
3, 59880, Note_on_c, 1, 52, 107
3, 59928, Note_off_c, 1, 52, 64
3, 59940, Note_on_c, 1, 55, 107
3, 59988, Note_off_c, 1, 55, 64
3, 60000, Note_on_c, 1, 59, 107
3, 60048, Note_off_c, 1, 59, 64
3, 60060, Note_on_c, 1, 55, 107
3, 60108, Note_off_c, 1, 55, 64
3, 60120, Note_on_c, 1, 52, 107
3, 60168, Note_off_c, 1, 52, 64
3, 60180, Note_on_c, 1, 59, 107
3, 60228, Note_off_c, 1, 59, 64
3, 60240, Note_on_c, 1, 55, 107
3, 60288, Note_off_c, 1, 55, 64
3, 60300, Note_on_c, 1, 52, 107
3, 60348, Note_off_c, 1, 52, 64
3, 60360, Note_on_c, 1, 47, 107
3, 60408, Note_off_c, 1, 47, 64
3, 60420, Note_on_c, 1, 48, 107
3, 60468, Note_off_c, 1, 48, 64
3, 60480, Note_on_c, 1, 50, 107
3, 60528, Note_off_c, 1, 50, 64
3, 60540, Note_on_c, 1, 49, 107
3, 60588, Note_off_c, 1, 49, 64
3, 60600, Note_on_c, 1, 50, 107
3, 60648, Note_off_c, 1, 50, 64
3, 60660, Note_on_c, 1, 53, 107
3, 60708, Note_off_c, 1, 53, 64
3, 60720, Note_on_c, 1, 59, 107
3, 60768, Note_off_c, 1, 59, 64
3, 60780, Note_on_c, 1, 53, 107
3, 60828, Note_off_c, 1, 53, 64
3, 60840, Note_on_c, 1, 50, 107
3, 60888, Note_off_c, 1, 50, 64
3, 60900, Note_on_c, 1, 59, 107
3, 60948, Note_off_c, 1, 59, 64
3, 60960, Note_on_c, 1, 53, 107
3, 61008, Note_off_c, 1, 53, 64
3, 61020, Note_on_c, 1, 50, 107
3, 61068, Note_off_c, 1, 50, 64
3, 61080, Note_on_c, 1, 47, 107
3, 61128, Note_off_c, 1, 47, 64
3, 61140, Note_on_c, 1, 50, 107
3, 61188, Note_off_c, 1, 50, 64
3, 61200, Note_on_c, 1, 49, 107
3, 61200, Note_on_c, 1, 52, 107
3, 61200, Note_on_c, 1, 57, 107
3, 61296, Note_off_c, 1, 57, 64
3, 61296, Note_off_c, 1, 52, 64
3, 61296, Note_off_c, 1, 49, 64
3, 61680, Note_on_c, 1, 45, 107
3, 61680, Note_on_c, 1, 49, 107
3, 61770, Note_off_c, 1, 45, 64
3, 61776, Note_off_c, 1, 49, 64
3, 61800, Note_on_c, 1, 47, 107
3, 61800, Note_on_c, 1, 50, 107
3, 61890, Note_off_c, 1, 47, 64
3, 61896, Note_off_c, 1, 50, 64
3, 61920, Note_on_c, 1, 52, 107
3, 61920, Note_on_c, 1, 49, 107
3, 62010, Note_off_c, 1, 49, 64
3, 62016, Note_off_c, 1, 52, 64
3, 62400, Note_on_c, 1, 49, 107
3, 62400, Note_on_c, 1, 52, 107
3, 62490, Note_off_c, 1, 49, 64
3, 62496, Note_off_c, 1, 52, 64
3, 62520, Note_on_c, 1, 45, 107
3, 62520, Note_on_c, 1, 49, 107
3, 62610, Note_off_c, 1, 45, 64
3, 62616, Note_off_c, 1, 49, 64
3, 62640, Note_on_c, 1, 50, 107
3, 62688, Note_off_c, 1, 50, 64
3, 62700, Note_on_c, 1, 54, 107
3, 62748, Note_off_c, 1, 54, 64
3, 62760, Note_on_c, 1, 45, 107
3, 62808, Note_off_c, 1, 45, 64
3, 62820, Note_on_c, 1, 49, 107
3, 62868, Note_off_c, 1, 49, 64
3, 62880, Note_on_c, 1, 50, 107
3, 62928, Note_off_c, 1, 50, 64
3, 62940, Note_on_c, 1, 54, 107
3, 62988, Note_off_c, 1, 54, 64
3, 63000, Note_on_c, 1, 50, 107
3, 63048, Note_off_c, 1, 50, 64
3, 63060, Note_on_c, 1, 54, 107
3, 63108, Note_off_c, 1, 54, 64
3, 63120, Note_on_c, 1, 45, 107
3, 63168, Note_off_c, 1, 45, 64
3, 63180, Note_on_c, 1, 49, 107
3, 63228, Note_off_c, 1, 49, 64
3, 63240, Note_on_c, 1, 50, 107
3, 63288, Note_off_c, 1, 50, 64
3, 63300, Note_on_c, 1, 54, 107
3, 63348, Note_off_c, 1, 54, 64
3, 63360, Note_on_c, 1, 51, 107
3, 63408, Note_off_c, 1, 51, 64
3, 63420, Note_on_c, 1, 54, 107
3, 63468, Note_off_c, 1, 54, 64
3, 63480, Note_on_c, 1, 47, 107
3, 63528, Note_off_c, 1, 47, 64
3, 63540, Note_on_c, 1, 49, 107
3, 63588, Note_off_c, 1, 49, 64
3, 63600, Note_on_c, 1, 51, 107
3, 63648, Note_off_c, 1, 51, 64
3, 63660, Note_on_c, 1, 54, 107
3, 63708, Note_off_c, 1, 54, 64
3, 63720, Note_on_c, 1, 51, 107
3, 63768, Note_off_c, 1, 51, 64
3, 63780, Note_on_c, 1, 54, 107
3, 63828, Note_off_c, 1, 54, 64
3, 63840, Note_on_c, 1, 47, 107
3, 63888, Note_off_c, 1, 47, 64
3, 63900, Note_on_c, 1, 49, 107
3, 63948, Note_off_c, 1, 49, 64
3, 63960, Note_on_c, 1, 51, 107
3, 64008, Note_off_c, 1, 51, 64
3, 64020, Note_on_c, 1, 54, 107
3, 64068, Note_off_c, 1, 54, 64
3, 64080, Note_on_c, 1, 52, 107
3, 64128, Note_off_c, 1, 52, 64
3, 64140, Note_on_c, 1, 55, 107
3, 64188, Note_off_c, 1, 55, 64
3, 64200, Note_on_c, 1, 47, 107
3, 64248, Note_off_c, 1, 47, 64
3, 64260, Note_on_c, 1, 51, 107
3, 64308, Note_off_c, 1, 51, 64
3, 64320, Note_on_c, 1, 52, 107
3, 64368, Note_off_c, 1, 52, 64
3, 64380, Note_on_c, 1, 55, 107
3, 64428, Note_off_c, 1, 55, 64
3, 64440, Note_on_c, 1, 52, 107
3, 64488, Note_off_c, 1, 52, 64
3, 64500, Note_on_c, 1, 55, 107
3, 64548, Note_off_c, 1, 55, 64
3, 64560, Note_on_c, 1, 47, 107
3, 64608, Note_off_c, 1, 47, 64
3, 64620, Note_on_c, 1, 51, 107
3, 64668, Note_off_c, 1, 51, 64
3, 64680, Note_on_c, 1, 52, 107
3, 64728, Note_off_c, 1, 52, 64
3, 64740, Note_on_c, 1, 55, 107
3, 64788, Note_off_c, 1, 55, 64
3, 64800, Note_on_c, 1, 50, 107
3, 64848, Note_off_c, 1, 50, 64
3, 64860, Note_on_c, 1, 53, 107
3, 64908, Note_off_c, 1, 53, 64
3, 64920, Note_on_c, 1, 44, 107
3, 64968, Note_off_c, 1, 44, 64
3, 64980, Note_on_c, 1, 45, 107
3, 65028, Note_off_c, 1, 45, 64
3, 65040, Note_on_c, 1, 47, 107
3, 65088, Note_off_c, 1, 47, 64
3, 65100, Note_on_c, 1, 50, 107
3, 65148, Note_off_c, 1, 50, 64
3, 65160, Note_on_c, 1, 47, 107
3, 65208, Note_off_c, 1, 47, 64
3, 65220, Note_on_c, 1, 50, 107
3, 65268, Note_off_c, 1, 50, 64
3, 65280, Note_on_c, 1, 44, 107
3, 65328, Note_off_c, 1, 44, 64
3, 65340, Note_on_c, 1, 45, 107
3, 65388, Note_off_c, 1, 45, 64
3, 65400, Note_on_c, 1, 47, 107
3, 65448, Note_off_c, 1, 47, 64
3, 65460, Note_on_c, 1, 50, 107
3, 65508, Note_off_c, 1, 50, 64
3, 65520, Note_on_c, 1, 48, 107
3, 65568, Note_off_c, 1, 48, 64
3, 65580, Note_on_c, 1, 52, 107
3, 65628, Note_off_c, 1, 52, 64
3, 65640, Note_on_c, 1, 45, 107
3, 65688, Note_off_c, 1, 45, 64
3, 65700, Note_on_c, 1, 47, 107
3, 65748, Note_off_c, 1, 47, 64
3, 65760, Note_on_c, 1, 48, 107
3, 65808, Note_off_c, 1, 48, 64
3, 65820, Note_on_c, 1, 52, 107
3, 65868, Note_off_c, 1, 52, 64
3, 65880, Note_on_c, 1, 48, 107
3, 65928, Note_off_c, 1, 48, 64
3, 65940, Note_on_c, 1, 53, 107
3, 65988, Note_off_c, 1, 53, 64
3, 66000, Note_on_c, 1, 45, 107
3, 66048, Note_off_c, 1, 45, 64
3, 66060, Note_on_c, 1, 47, 107
3, 66108, Note_off_c, 1, 47, 64
3, 66120, Note_on_c, 1, 48, 107
3, 66168, Note_off_c, 1, 48, 64
3, 66180, Note_on_c, 1, 53, 107
3, 66228, Note_off_c, 1, 53, 64
3, 66240, Note_on_c, 1, 50, 107
3, 66288, Note_off_c, 1, 50, 64
3, 66300, Note_on_c, 1, 53, 107
3, 66348, Note_off_c, 1, 53, 64
3, 66360, Note_on_c, 1, 47, 107
3, 66408, Note_off_c, 1, 47, 64
3, 66420, Note_on_c, 1, 48, 107
3, 66468, Note_off_c, 1, 48, 64
3, 66480, Note_on_c, 1, 50, 107
3, 66528, Note_off_c, 1, 50, 64
3, 66540, Note_on_c, 1, 53, 107
3, 66588, Note_off_c, 1, 53, 64
3, 66600, Note_on_c, 1, 56, 107
3, 66648, Note_off_c, 1, 56, 64
3, 66660, Note_on_c, 1, 59, 107
3, 66708, Note_off_c, 1, 59, 64
3, 66720, Note_on_c, 1, 52, 107
3, 66768, Note_off_c, 1, 52, 64
3, 66780, Note_on_c, 1, 54, 107
3, 66828, Note_off_c, 1, 54, 64
3, 66840, Note_on_c, 1, 56, 107
3, 66888, Note_off_c, 1, 56, 64
3, 66900, Note_on_c, 1, 52, 107
3, 66948, Note_off_c, 1, 52, 64
3, 66960, Note_on_c, 1, 57, 107
3, 67056, Note_off_c, 1, 57, 64
3, 67080, Note_on_c, 1, 57, 107
3, 67224, Note_off_c, 1, 57, 64
3, 67260, Note_on_c, 1, 57, 107
3, 67308, Note_off_c, 1, 57, 64
3, 67320, Note_on_c, 1, 52, 107
3, 67416, Note_off_c, 1, 52, 64
3, 67440, Note_on_c, 1, 60, 107
3, 67488, Note_off_c, 1, 60, 64
3, 67500, Note_on_c, 1, 59, 107
3, 67548, Note_off_c, 1, 59, 64
3, 67560, Note_on_c, 1, 60, 107
3, 67608, Note_off_c, 1, 60, 64
3, 67620, Note_on_c, 1, 57, 107
3, 67668, Note_off_c, 1, 57, 64
3, 67680, Note_on_c, 1, 51, 107
3, 67776, Note_off_c, 1, 51, 64
3, 67800, Note_on_c, 1, 54, 107
3, 67944, Note_off_c, 1, 54, 64
3, 67980, Note_on_c, 1, 54, 107
3, 68028, Note_off_c, 1, 54, 64
3, 68040, Note_on_c, 1, 47, 107
3, 68136, Note_off_c, 1, 47, 64
3, 68160, Note_on_c, 1, 59, 107
3, 68208, Note_off_c, 1, 59, 64
3, 68220, Note_on_c, 1, 57, 107
3, 68268, Note_off_c, 1, 57, 64
3, 68280, Note_on_c, 1, 59, 107
3, 68328, Note_off_c, 1, 59, 64
3, 68340, Note_on_c, 1, 54, 107
3, 68388, Note_off_c, 1, 54, 64
3, 68400, Note_on_c, 1, 56, 107
3, 68496, Note_off_c, 1, 56, 64
3, 68580, Note_on_c, 1, 57, 107
3, 68628, Note_off_c, 1, 57, 64
3, 68640, Note_on_c, 1, 56, 107
3, 68688, Note_off_c, 1, 56, 64
3, 68700, Note_on_c, 1, 54, 107
3, 68748, Note_off_c, 1, 54, 64
3, 68760, Note_on_c, 1, 52, 107
3, 68808, Note_off_c, 1, 52, 64
3, 68820, Note_on_c, 1, 50, 107
3, 68868, Note_off_c, 1, 50, 64
3, 68880, Note_on_c, 1, 48, 107
3, 68928, Note_off_c, 1, 48, 64
3, 68940, Note_on_c, 1, 47, 107
3, 68988, Note_off_c, 1, 47, 64
3, 69000, Note_on_c, 1, 45, 107
3, 69048, Note_off_c, 1, 45, 64
3, 69060, Note_on_c, 1, 44, 107
3, 69108, Note_off_c, 1, 44, 64
3, 69120, Note_on_c, 1, 45, 107
3, 69168, Note_off_c, 1, 45, 64
3, 69180, Note_on_c, 1, 48, 107
3, 69228, Note_off_c, 1, 48, 64
3, 69240, Note_on_c, 1, 52, 107
3, 69288, Note_off_c, 1, 52, 64
3, 69300, Note_on_c, 1, 57, 107
3, 69348, Note_off_c, 1, 57, 64
3, 69360, Note_on_c, 1, 51, 107
3, 69528, Note_off_c, 1, 51, 64
3, 69540, Note_on_c, 1, 47, 107
3, 69588, Note_off_c, 1, 47, 64
3, 69600, Note_on_c, 1, 49, 107
3, 69648, Note_off_c, 1, 49, 64
3, 69660, Note_on_c, 1, 51, 107
3, 69708, Note_off_c, 1, 51, 64
3, 69720, Note_on_c, 1, 52, 107
3, 69768, Note_off_c, 1, 52, 64
3, 69780, Note_on_c, 1, 54, 107
3, 69828, Note_off_c, 1, 54, 64
3, 69840, Note_on_c, 1, 55, 107
3, 69888, Note_off_c, 1, 55, 64
3, 69900, Note_on_c, 1, 52, 107
3, 69948, Note_off_c, 1, 52, 64
3, 69960, Note_on_c, 1, 54, 107
3, 70008, Note_off_c, 1, 54, 64
3, 70020, Note_on_c, 1, 55, 107
3, 70068, Note_off_c, 1, 55, 64
3, 70080, Note_on_c, 1, 57, 107
3, 70128, Note_off_c, 1, 57, 64
3, 70140, Note_on_c, 1, 59, 107
3, 70188, Note_off_c, 1, 59, 64
3, 70200, Note_on_c, 1, 60, 107
3, 70344, Note_off_c, 1, 60, 64
3, 70380, Note_on_c, 1, 61, 107
3, 70428, Note_off_c, 1, 61, 64
3, 70440, Note_on_c, 1, 62, 107
3, 70488, Note_off_c, 1, 62, 64
3, 70500, Note_on_c, 1, 64, 107
3, 70548, Note_off_c, 1, 64, 64
3, 70560, Note_on_c, 1, 54, 107
3, 70656, Note_off_c, 1, 54, 64
3, 70740, Note_on_c, 1, 54, 107
3, 70788, Note_off_c, 1, 54, 64
3, 70800, Note_on_c, 1, 56, 107
3, 70848, Note_off_c, 1, 56, 64
3, 70860, Note_on_c, 1, 58, 107
3, 70908, Note_off_c, 1, 58, 64
3, 70920, Note_on_c, 1, 47, 107
3, 71016, Note_off_c, 1, 47, 64
3, 71100, Note_on_c, 1, 47, 107
3, 71148, Note_off_c, 1, 47, 64
3, 71160, Note_on_c, 1, 49, 107
3, 71208, Note_off_c, 1, 49, 64
3, 71220, Note_on_c, 1, 51, 107
3, 71268, Note_off_c, 1, 51, 64
3, 71280, Note_on_c, 1, 40, 107
3, 71376, Note_off_c, 1, 40, 64
3, 71400, Note_on_c, 1, 64, 107
3, 71544, Note_off_c, 1, 64, 64
3, 71580, Note_on_c, 1, 64, 107
3, 71628, Note_off_c, 1, 64, 64
3, 71640, Note_on_c, 1, 57, 107
3, 71736, Note_off_c, 1, 57, 64
3, 71760, Note_on_c, 1, 66, 107
3, 71808, Note_off_c, 1, 66, 64
3, 71820, Note_on_c, 1, 64, 107
3, 71868, Note_off_c, 1, 64, 64
3, 71880, Note_on_c, 1, 66, 107
3, 71928, Note_off_c, 1, 66, 64
3, 71940, Note_on_c, 1, 62, 107
3, 71988, Note_off_c, 1, 62, 64
3, 72000, Note_on_c, 1, 55, 107
3, 72096, Note_off_c, 1, 55, 64
3, 72120, Note_on_c, 1, 60, 107
3, 72264, Note_off_c, 1, 60, 64
3, 72300, Note_on_c, 1, 60, 107
3, 72348, Note_off_c, 1, 60, 64
3, 72360, Note_on_c, 1, 54, 107
3, 72456, Note_off_c, 1, 54, 64
3, 72480, Note_on_c, 1, 62, 107
3, 72528, Note_off_c, 1, 62, 64
3, 72540, Note_on_c, 1, 60, 107
3, 72588, Note_off_c, 1, 60, 64
3, 72600, Note_on_c, 1, 62, 107
3, 72648, Note_off_c, 1, 62, 64
3, 72660, Note_on_c, 1, 59, 107
3, 72708, Note_off_c, 1, 59, 64
3, 72720, Note_on_c, 1, 52, 107
3, 72816, Note_off_c, 1, 52, 64
3, 72840, Note_on_c, 1, 57, 107
3, 72984, Note_off_c, 1, 57, 64
3, 73020, Note_on_c, 1, 57, 107
3, 73068, Note_off_c, 1, 57, 64
3, 73080, Note_on_c, 1, 50, 107
3, 73176, Note_off_c, 1, 50, 64
3, 73200, Note_on_c, 1, 59, 107
3, 73248, Note_off_c, 1, 59, 64
3, 73260, Note_on_c, 1, 57, 107
3, 73308, Note_off_c, 1, 57, 64
3, 73320, Note_on_c, 1, 59, 107
3, 73368, Note_off_c, 1, 59, 64
3, 73380, Note_on_c, 1, 55, 107
3, 73428, Note_off_c, 1, 55, 64
3, 73440, Note_on_c, 1, 49, 107
3, 73536, Note_off_c, 1, 49, 64
3, 73560, Note_on_c, 1, 54, 107
3, 73704, Note_off_c, 1, 54, 64
3, 73740, Note_on_c, 1, 54, 107
3, 73788, Note_off_c, 1, 54, 64
3, 73800, Note_on_c, 1, 47, 107
3, 73896, Note_off_c, 1, 47, 64
3, 73920, Note_on_c, 1, 56, 107
3, 73968, Note_off_c, 1, 56, 64
3, 73980, Note_on_c, 1, 54, 107
3, 74028, Note_off_c, 1, 54, 64
3, 74040, Note_on_c, 1, 56, 107
3, 74088, Note_off_c, 1, 56, 64
3, 74100, Note_on_c, 1, 52, 107
3, 74148, Note_off_c, 1, 52, 64
3, 74160, Note_on_c, 1, 45, 107
3, 74304, Note_off_c, 1, 45, 64
3, 74340, Note_on_c, 1, 47, 107
3, 74388, Note_off_c, 1, 47, 64
3, 74400, Note_on_c, 1, 49, 107
3, 74496, Note_off_c, 1, 49, 64
3, 74520, Note_on_c, 1, 49, 107
3, 74568, Note_off_c, 1, 49, 64
3, 74580, Note_on_c, 1, 50, 107
3, 74628, Note_off_c, 1, 50, 64
3, 74640, Note_on_c, 1, 52, 107
3, 74688, Note_off_c, 1, 52, 64
3, 74700, Note_on_c, 1, 50, 107
3, 74748, Note_off_c, 1, 50, 64
3, 74760, Note_on_c, 1, 52, 107
3, 74808, Note_off_c, 1, 52, 64
3, 74820, Note_on_c, 1, 40, 107
3, 74868, Note_off_c, 1, 40, 64
3, 74880, Note_on_c, 1, 45, 107
3, 74976, Note_off_c, 1, 45, 64
3, 75000, Note_on_c, 1, 57, 107
3, 75144, Note_off_c, 1, 57, 64
3, 75180, Note_on_c, 1, 55, 107
3, 75228, Note_off_c, 1, 55, 64
3, 75240, Note_on_c, 1, 54, 107
3, 75288, Note_off_c, 1, 54, 64
3, 75300, Note_on_c, 1, 55, 107
3, 75348, Note_off_c, 1, 55, 64
3, 75360, Note_on_c, 1, 57, 107
3, 75408, Note_off_c, 1, 57, 64
3, 75420, Note_on_c, 1, 55, 107
3, 75468, Note_off_c, 1, 55, 64
3, 75480, Note_on_c, 1, 57, 107
3, 75528, Note_off_c, 1, 57, 64
3, 75540, Note_on_c, 1, 45, 107
3, 75588, Note_off_c, 1, 45, 64
3, 75600, Note_on_c, 1, 50, 107
3, 75696, Note_off_c, 1, 50, 64
3, 75720, Note_on_c, 1, 62, 107
3, 75864, Note_off_c, 1, 62, 64
3, 75900, Note_on_c, 1, 60, 107
3, 75948, Note_off_c, 1, 60, 64
3, 75960, Note_on_c, 1, 59, 107
3, 76008, Note_off_c, 1, 59, 64
3, 76020, Note_on_c, 1, 60, 107
3, 76068, Note_off_c, 1, 60, 64
3, 76080, Note_on_c, 1, 62, 107
3, 76128, Note_off_c, 1, 62, 64
3, 76140, Note_on_c, 1, 60, 107
3, 76188, Note_off_c, 1, 60, 64
3, 76200, Note_on_c, 1, 62, 107
3, 76248, Note_off_c, 1, 62, 64
3, 76260, Note_on_c, 1, 50, 107
3, 76308, Note_off_c, 1, 50, 64
3, 76320, Note_on_c, 1, 55, 107
3, 76368, Note_off_c, 1, 55, 64
3, 76380, Note_on_c, 1, 57, 107
3, 76428, Note_off_c, 1, 57, 64
3, 76440, Note_on_c, 1, 59, 107
3, 76488, Note_off_c, 1, 59, 64
3, 76500, Note_on_c, 1, 54, 107
3, 76548, Note_off_c, 1, 54, 64
3, 76560, Note_on_c, 1, 55, 107
3, 76608, Note_off_c, 1, 55, 64
3, 76620, Note_on_c, 1, 52, 107
3, 76668, Note_off_c, 1, 52, 64
3, 76680, Note_on_c, 1, 60, 107
3, 76824, Note_off_c, 1, 60, 64
3, 76860, Note_on_c, 1, 60, 107
3, 76908, Note_off_c, 1, 60, 64
3, 76920, Note_on_c, 1, 57, 107
3, 76968, Note_off_c, 1, 57, 64
3, 76980, Note_on_c, 1, 54, 107
3, 77028, Note_off_c, 1, 54, 64
3, 77040, Note_on_c, 1, 51, 107
3, 77088, Note_off_c, 1, 51, 64
3, 77100, Note_on_c, 1, 54, 107
3, 77148, Note_off_c, 1, 54, 64
3, 77160, Note_on_c, 1, 59, 107
3, 77208, Note_off_c, 1, 59, 64
3, 77220, Note_on_c, 1, 54, 107
3, 77268, Note_off_c, 1, 54, 64
3, 77280, Note_on_c, 1, 52, 107
3, 77328, Note_off_c, 1, 52, 64
3, 77340, Note_on_c, 1, 51, 107
3, 77388, Note_off_c, 1, 51, 64
3, 77400, Note_on_c, 1, 52, 107
3, 77448, Note_off_c, 1, 52, 64
3, 77460, Note_on_c, 1, 55, 107
3, 77508, Note_off_c, 1, 55, 64
3, 77520, Note_on_c, 1, 61, 107
3, 77568, Note_off_c, 1, 61, 64
3, 77580, Note_on_c, 1, 55, 107
3, 77628, Note_off_c, 1, 55, 64
3, 77640, Note_on_c, 1, 54, 107
3, 77688, Note_off_c, 1, 54, 64
3, 77700, Note_on_c, 1, 52, 107
3, 77748, Note_off_c, 1, 52, 64
3, 77760, Note_on_c, 1, 54, 107
3, 77808, Note_off_c, 1, 54, 64
3, 77820, Note_on_c, 1, 57, 107
3, 77868, Note_off_c, 1, 57, 64
3, 77880, Note_on_c, 1, 63, 107
3, 77928, Note_off_c, 1, 63, 64
3, 77940, Note_on_c, 1, 57, 107
3, 77988, Note_off_c, 1, 57, 64
3, 78000, Note_on_c, 1, 55, 107
3, 78048, Note_off_c, 1, 55, 64
3, 78060, Note_on_c, 1, 54, 107
3, 78108, Note_off_c, 1, 54, 64
3, 78120, Note_on_c, 1, 55, 107
3, 78168, Note_off_c, 1, 55, 64
3, 78180, Note_on_c, 1, 59, 107
3, 78228, Note_off_c, 1, 59, 64
3, 78240, Note_on_c, 1, 64, 107
3, 78288, Note_off_c, 1, 64, 64
3, 78300, Note_on_c, 1, 62, 107
3, 78348, Note_off_c, 1, 62, 64
3, 78360, Note_on_c, 1, 61, 107
3, 78408, Note_off_c, 1, 61, 64
3, 78420, Note_on_c, 1, 59, 107
3, 78468, Note_off_c, 1, 59, 64
3, 79200, Note_on_c, 1, 67, 107
3, 79248, Note_off_c, 1, 67, 64
3, 79260, Note_on_c, 1, 66, 107
3, 79308, Note_off_c, 1, 66, 64
3, 79320, Note_on_c, 1, 64, 107
3, 79368, Note_off_c, 1, 64, 64
3, 79380, Note_on_c, 1, 62, 107
3, 79428, Note_off_c, 1, 62, 64
3, 79440, Note_on_c, 1, 60, 107
3, 79488, Note_off_c, 1, 60, 64
3, 79500, Note_on_c, 1, 59, 107
3, 79548, Note_off_c, 1, 59, 64
3, 79560, Note_on_c, 1, 57, 107
3, 79608, Note_off_c, 1, 57, 64
3, 79620, Note_on_c, 1, 55, 107
3, 79668, Note_off_c, 1, 55, 64
3, 79680, Note_on_c, 1, 54, 107
3, 79728, Note_off_c, 1, 54, 64
3, 79740, Note_on_c, 1, 52, 107
3, 79788, Note_off_c, 1, 52, 64
3, 79800, Note_on_c, 1, 51, 107
3, 79848, Note_off_c, 1, 51, 64
3, 79860, Note_on_c, 1, 49, 107
3, 79908, Note_off_c, 1, 49, 64
3, 79920, Note_on_c, 1, 47, 107
3, 80010, Note_off_c, 1, 47, 64
3, 80040, Note_on_c, 1, 51, 107
3, 80130, Note_off_c, 1, 51, 64
3, 80160, Note_on_c, 1, 54, 107
3, 80250, Note_off_c, 1, 54, 64
3, 80280, Note_on_c, 1, 57, 107
3, 80370, Note_off_c, 1, 57, 64
3, 80400, Note_on_c, 1, 54, 107
3, 80490, Note_off_c, 1, 54, 64
3, 80520, Note_on_c, 1, 51, 107
3, 80610, Note_off_c, 1, 51, 64
3, 80640, Note_on_c, 1, 47, 107
3, 80730, Note_off_c, 1, 47, 64
3, 80760, Note_on_c, 1, 52, 107
3, 80850, Note_off_c, 1, 52, 64
3, 80880, Note_on_c, 1, 55, 107
3, 80970, Note_off_c, 1, 55, 64
3, 81000, Note_on_c, 1, 59, 107
3, 81090, Note_off_c, 1, 59, 64
3, 81120, Note_on_c, 1, 55, 107
3, 81210, Note_off_c, 1, 55, 64
3, 81240, Note_on_c, 1, 52, 107
3, 81330, Note_off_c, 1, 52, 64
3, 81360, Note_on_c, 1, 57, 107
3, 81450, Note_off_c, 1, 57, 64
3, 81480, Note_on_c, 1, 54, 107
3, 81570, Note_off_c, 1, 54, 64
3, 81600, Note_on_c, 1, 51, 107
3, 81690, Note_off_c, 1, 51, 64
3, 81720, Note_on_c, 1, 47, 107
3, 81810, Note_off_c, 1, 47, 64
3, 81840, Note_on_c, 1, 57, 107
3, 81930, Note_off_c, 1, 57, 64
3, 81960, Note_on_c, 1, 54, 107
3, 82050, Note_off_c, 1, 54, 64
3, 82080, Note_on_c, 1, 59, 107
3, 82170, Note_off_c, 1, 59, 64
3, 82200, Note_on_c, 1, 55, 107
3, 82290, Note_off_c, 1, 55, 64
3, 82320, Note_on_c, 1, 52, 107
3, 82410, Note_off_c, 1, 52, 64
3, 82440, Note_on_c, 1, 47, 107
3, 82530, Note_off_c, 1, 47, 64
3, 82560, Note_on_c, 1, 55, 107
3, 82650, Note_off_c, 1, 55, 64
3, 82680, Note_on_c, 1, 52, 107
3, 82770, Note_off_c, 1, 52, 64
3, 82800, Note_on_c, 1, 58, 107
3, 82848, Note_off_c, 1, 58, 64
3, 82860, Note_on_c, 1, 52, 107
3, 82908, Note_off_c, 1, 52, 64
3, 82920, Note_on_c, 1, 55, 107
3, 82968, Note_off_c, 1, 55, 64
3, 82980, Note_on_c, 1, 54, 107
3, 83028, Note_off_c, 1, 54, 64
3, 83040, Note_on_c, 1, 52, 107
3, 83088, Note_off_c, 1, 52, 64
3, 83100, Note_on_c, 1, 50, 107
3, 83148, Note_off_c, 1, 50, 64
3, 83160, Note_on_c, 1, 49, 107
3, 83208, Note_off_c, 1, 49, 64
3, 83220, Note_on_c, 1, 55, 107
3, 83268, Note_off_c, 1, 55, 64
3, 83280, Note_on_c, 1, 54, 107
3, 83328, Note_off_c, 1, 54, 64
3, 83340, Note_on_c, 1, 52, 107
3, 83388, Note_off_c, 1, 52, 64
3, 83400, Note_on_c, 1, 51, 107
3, 83448, Note_off_c, 1, 51, 64
3, 83460, Note_on_c, 1, 49, 107
3, 83508, Note_off_c, 1, 49, 64
3, 83520, Note_on_c, 1, 51, 107
3, 83568, Note_off_c, 1, 51, 64
3, 83580, Note_on_c, 1, 54, 107
3, 83628, Note_off_c, 1, 54, 64
3, 83640, Note_on_c, 1, 57, 107
3, 83688, Note_off_c, 1, 57, 64
3, 83700, Note_on_c, 1, 60, 107
3, 83748, Note_off_c, 1, 60, 64
3, 83760, Note_on_c, 1, 59, 107
3, 83808, Note_off_c, 1, 59, 64
3, 83820, Note_on_c, 1, 57, 107
3, 83868, Note_off_c, 1, 57, 64
3, 83880, Note_on_c, 1, 55, 107
3, 83928, Note_off_c, 1, 55, 64
3, 83940, Note_on_c, 1, 59, 107
3, 83988, Note_off_c, 1, 59, 64
3, 84000, Note_on_c, 1, 57, 107
3, 84048, Note_off_c, 1, 57, 64
3, 84060, Note_on_c, 1, 55, 107
3, 84108, Note_off_c, 1, 55, 64
3, 84120, Note_on_c, 1, 54, 107
3, 84168, Note_off_c, 1, 54, 64
3, 84180, Note_on_c, 1, 52, 107
3, 84228, Note_off_c, 1, 52, 64
3, 84240, Note_on_c, 1, 60, 107
3, 84288, Note_off_c, 1, 60, 64
3, 84300, Note_on_c, 1, 59, 107
3, 84348, Note_off_c, 1, 59, 64
3, 84360, Note_on_c, 1, 57, 107
3, 84408, Note_off_c, 1, 57, 64
3, 84420, Note_on_c, 1, 55, 107
3, 84468, Note_off_c, 1, 55, 64
3, 84480, Note_on_c, 1, 54, 107
3, 84528, Note_off_c, 1, 54, 64
3, 84540, Note_on_c, 1, 52, 107
3, 84588, Note_off_c, 1, 52, 64
3, 84600, Note_on_c, 1, 51, 107
3, 84648, Note_off_c, 1, 51, 64
3, 84660, Note_on_c, 1, 49, 107
3, 84708, Note_off_c, 1, 49, 64
3, 84720, Note_on_c, 1, 47, 107
3, 84816, Note_off_c, 1, 47, 64
3, 85680, Note_on_c, 1, 61, 107
3, 85728, Note_off_c, 1, 61, 64
3, 85740, Note_on_c, 1, 59, 107
3, 85788, Note_off_c, 1, 59, 64
3, 85800, Note_on_c, 1, 61, 107
3, 85848, Note_off_c, 1, 61, 64
3, 85860, Note_on_c, 1, 62, 107
3, 85908, Note_off_c, 1, 62, 64
3, 85920, Note_on_c, 1, 61, 107
3, 85968, Note_off_c, 1, 61, 64
3, 85980, Note_on_c, 1, 59, 107
3, 86028, Note_off_c, 1, 59, 64
3, 86040, Note_on_c, 1, 58, 107
3, 86088, Note_off_c, 1, 58, 64
3, 86100, Note_on_c, 1, 56, 107
3, 86148, Note_off_c, 1, 56, 64
3, 86160, Note_on_c, 1, 58, 107
3, 86208, Note_off_c, 1, 58, 64
3, 86220, Note_on_c, 1, 59, 107
3, 86268, Note_off_c, 1, 59, 64
3, 86280, Note_on_c, 1, 56, 107
3, 86328, Note_off_c, 1, 56, 64
3, 86340, Note_on_c, 1, 58, 107
3, 86388, Note_off_c, 1, 58, 64
3, 87960, Note_on_c, 1, 59, 107
3, 88104, Note_off_c, 1, 59, 64
3, 88140, Note_on_c, 1, 59, 107
3, 88188, Note_off_c, 1, 59, 64
3, 88200, Note_on_c, 1, 52, 107
3, 88296, Note_off_c, 1, 52, 64
3, 88320, Note_on_c, 1, 60, 107
3, 88368, Note_off_c, 1, 60, 64
3, 88380, Note_on_c, 1, 59, 107
3, 88428, Note_off_c, 1, 59, 64
3, 88440, Note_on_c, 1, 60, 107
3, 88488, Note_off_c, 1, 60, 64
3, 88500, Note_on_c, 1, 57, 107
3, 88548, Note_off_c, 1, 57, 64
3, 88560, Note_on_c, 1, 51, 107
3, 88656, Note_off_c, 1, 51, 64
3, 88680, Note_on_c, 1, 54, 107
3, 88824, Note_off_c, 1, 54, 64
3, 88860, Note_on_c, 1, 54, 107
3, 88908, Note_off_c, 1, 54, 64
3, 88920, Note_on_c, 1, 47, 107
3, 89016, Note_off_c, 1, 47, 64
3, 89040, Note_on_c, 1, 59, 107
3, 89088, Note_off_c, 1, 59, 64
3, 89100, Note_on_c, 1, 57, 107
3, 89148, Note_off_c, 1, 57, 64
3, 89160, Note_on_c, 1, 59, 107
3, 89208, Note_off_c, 1, 59, 64
3, 89220, Note_on_c, 1, 54, 107
3, 89268, Note_off_c, 1, 54, 64
3, 89280, Note_on_c, 1, 55, 107
3, 89328, Note_off_c, 1, 55, 64
3, 89340, Note_on_c, 1, 57, 107
3, 89388, Note_off_c, 1, 57, 64
3, 89400, Note_on_c, 1, 55, 107
3, 89448, Note_off_c, 1, 55, 64
3, 89460, Note_on_c, 1, 54, 107
3, 89508, Note_off_c, 1, 54, 64
3, 89520, Note_on_c, 1, 52, 107
3, 89568, Note_off_c, 1, 52, 64
3, 89580, Note_on_c, 1, 55, 107
3, 89628, Note_off_c, 1, 55, 64
3, 89640, Note_on_c, 1, 57, 107
3, 89688, Note_off_c, 1, 57, 64
3, 89700, Note_on_c, 1, 56, 107
3, 89748, Note_off_c, 1, 56, 64
3, 89760, Note_on_c, 1, 57, 107
3, 89808, Note_off_c, 1, 57, 64
3, 89820, Note_on_c, 1, 59, 107
3, 89868, Note_off_c, 1, 59, 64
3, 89880, Note_on_c, 1, 61, 107
3, 89928, Note_off_c, 1, 61, 64
3, 89940, Note_on_c, 1, 57, 107
3, 89988, Note_off_c, 1, 57, 64
3, 90000, Note_on_c, 1, 54, 107
3, 90048, Note_off_c, 1, 54, 64
3, 90060, Note_on_c, 1, 55, 107
3, 90108, Note_off_c, 1, 55, 64
3, 90120, Note_on_c, 1, 54, 107
3, 90168, Note_off_c, 1, 54, 64
3, 90180, Note_on_c, 1, 52, 107
3, 90228, Note_off_c, 1, 52, 64
3, 90240, Note_on_c, 1, 50, 107
3, 90288, Note_off_c, 1, 50, 64
3, 90300, Note_on_c, 1, 54, 107
3, 90348, Note_off_c, 1, 54, 64
3, 90360, Note_on_c, 1, 55, 107
3, 90408, Note_off_c, 1, 55, 64
3, 90420, Note_on_c, 1, 54, 107
3, 90468, Note_off_c, 1, 54, 64
3, 90480, Note_on_c, 1, 55, 107
3, 90528, Note_off_c, 1, 55, 64
3, 90540, Note_on_c, 1, 57, 107
3, 90588, Note_off_c, 1, 57, 64
3, 90600, Note_on_c, 1, 59, 107
3, 90648, Note_off_c, 1, 59, 64
3, 90660, Note_on_c, 1, 55, 107
3, 90708, Note_off_c, 1, 55, 64
3, 90720, Note_on_c, 1, 52, 107
3, 90768, Note_off_c, 1, 52, 64
3, 90780, Note_on_c, 1, 54, 107
3, 90828, Note_off_c, 1, 54, 64
3, 90840, Note_on_c, 1, 52, 107
3, 90888, Note_off_c, 1, 52, 64
3, 90900, Note_on_c, 1, 50, 107
3, 90948, Note_off_c, 1, 50, 64
3, 90960, Note_on_c, 1, 49, 107
3, 91008, Note_off_c, 1, 49, 64
3, 91020, Note_on_c, 1, 52, 107
3, 91068, Note_off_c, 1, 52, 64
3, 91080, Note_on_c, 1, 54, 107
3, 91128, Note_off_c, 1, 54, 64
3, 91140, Note_on_c, 1, 55, 107
3, 91188, Note_off_c, 1, 55, 64
3, 91200, Note_on_c, 1, 54, 107
3, 91248, Note_off_c, 1, 54, 64
3, 91260, Note_on_c, 1, 52, 107
3, 91308, Note_off_c, 1, 52, 64
3, 91320, Note_on_c, 1, 50, 107
3, 91368, Note_off_c, 1, 50, 64
3, 91380, Note_on_c, 1, 49, 107
3, 91428, Note_off_c, 1, 49, 64
3, 91440, Note_on_c, 1, 50, 107
3, 91488, Note_off_c, 1, 50, 64
3, 91500, Note_on_c, 1, 52, 107
3, 91548, Note_off_c, 1, 52, 64
3, 91560, Note_on_c, 1, 50, 107
3, 91608, Note_off_c, 1, 50, 64
3, 91620, Note_on_c, 1, 49, 107
3, 91668, Note_off_c, 1, 49, 64
3, 91680, Note_on_c, 1, 47, 107
3, 91728, Note_off_c, 1, 47, 64
3, 91740, Note_on_c, 1, 50, 107
3, 91788, Note_off_c, 1, 50, 64
3, 91800, Note_on_c, 1, 52, 107
3, 91848, Note_off_c, 1, 52, 64
3, 91860, Note_on_c, 1, 50, 107
3, 91908, Note_off_c, 1, 50, 64
3, 91920, Note_on_c, 1, 52, 107
3, 91968, Note_off_c, 1, 52, 64
3, 91980, Note_on_c, 1, 54, 107
3, 92028, Note_off_c, 1, 54, 64
3, 92040, Note_on_c, 1, 52, 107
3, 92088, Note_off_c, 1, 52, 64
3, 92100, Note_on_c, 1, 50, 107
3, 92148, Note_off_c, 1, 50, 64
3, 92160, Note_on_c, 1, 58, 107
3, 92160, Note_on_c, 1, 49, 107
3, 92208, Note_off_c, 1, 49, 64
3, 92220, Note_on_c, 1, 47, 107
3, 92256, Note_off_c, 1, 58, 64
3, 92268, Note_off_c, 1, 47, 64
3, 92280, Note_on_c, 1, 61, 107
3, 92280, Note_on_c, 1, 49, 107
3, 92328, Note_off_c, 1, 49, 64
3, 92340, Note_on_c, 1, 50, 107
3, 92388, Note_off_c, 1, 50, 64
3, 92400, Note_on_c, 1, 49, 107
3, 92424, Note_off_c, 1, 61, 64
3, 92448, Note_off_c, 1, 49, 64
3, 92460, Note_on_c, 1, 47, 107
3, 92460, Note_on_c, 1, 61, 107
3, 92508, Note_off_c, 1, 61, 64
3, 92508, Note_off_c, 1, 47, 64
3, 92520, Note_on_c, 1, 61, 107
3, 92520, Note_on_c, 1, 54, 107
3, 92520, Note_on_c, 1, 46, 107
3, 92568, Note_off_c, 1, 46, 64
3, 92580, Note_on_c, 1, 44, 107
3, 92616, Note_off_c, 1, 54, 64
3, 92616, Note_off_c, 1, 61, 64
3, 92628, Note_off_c, 1, 44, 64
3, 92640, Note_on_c, 1, 46, 107
3, 92688, Note_off_c, 1, 46, 64
3, 92700, Note_on_c, 1, 47, 107
3, 92748, Note_off_c, 1, 47, 64
3, 92760, Note_on_c, 1, 44, 107
3, 92808, Note_off_c, 1, 44, 64
3, 92820, Note_on_c, 1, 46, 107
3, 92868, Note_off_c, 1, 46, 64
3, 92880, Note_on_c, 1, 47, 107
3, 92970, Note_off_c, 1, 47, 64
3, 93000, Note_on_c, 1, 59, 107
3, 93090, Note_off_c, 1, 59, 64
3, 93120, Note_on_c, 1, 47, 107
3, 93210, Note_off_c, 1, 47, 64
3, 93240, Note_on_c, 1, 47, 107
3, 93330, Note_off_c, 1, 47, 64
3, 93360, Note_on_c, 1, 59, 107
3, 93450, Note_off_c, 1, 59, 64
3, 93480, Note_on_c, 1, 47, 107
3, 93570, Note_off_c, 1, 47, 64
3, 93600, Note_on_c, 1, 47, 107
3, 93690, Note_off_c, 1, 47, 64
3, 93720, Note_on_c, 1, 59, 107
3, 93810, Note_off_c, 1, 59, 64
3, 93840, Note_on_c, 1, 47, 107
3, 93930, Note_off_c, 1, 47, 64
3, 93960, Note_on_c, 1, 47, 107
3, 94050, Note_off_c, 1, 47, 64
3, 94080, Note_on_c, 1, 59, 107
3, 94170, Note_off_c, 1, 59, 64
3, 94200, Note_on_c, 1, 47, 107
3, 94290, Note_off_c, 1, 47, 64
3, 94320, Note_on_c, 1, 47, 107
3, 94410, Note_off_c, 1, 47, 64
3, 94440, Note_on_c, 1, 59, 107
3, 94530, Note_off_c, 1, 59, 64
3, 94560, Note_on_c, 1, 47, 107
3, 94650, Note_off_c, 1, 47, 64
3, 94680, Note_on_c, 1, 59, 107
3, 94728, Note_off_c, 1, 59, 64
3, 94740, Note_on_c, 1, 58, 107
3, 94788, Note_off_c, 1, 58, 64
3, 94800, Note_on_c, 1, 59, 107
3, 94848, Note_off_c, 1, 59, 64
3, 94860, Note_on_c, 1, 61, 107
3, 94908, Note_off_c, 1, 61, 64
3, 94920, Note_on_c, 1, 62, 107
3, 94968, Note_off_c, 1, 62, 64
3, 94980, Note_on_c, 1, 59, 107
3, 95028, Note_off_c, 1, 59, 64
3, 95040, Note_on_c, 1, 64, 107
3, 95088, Note_off_c, 1, 64, 64
3, 95100, Note_on_c, 1, 65, 107
3, 95148, Note_off_c, 1, 65, 64
3, 95160, Note_on_c, 1, 64, 107
3, 95208, Note_off_c, 1, 64, 64
3, 95220, Note_on_c, 1, 62, 107
3, 95268, Note_off_c, 1, 62, 64
3, 95280, Note_on_c, 1, 60, 107
3, 95328, Note_off_c, 1, 60, 64
3, 95340, Note_on_c, 1, 59, 107
3, 95388, Note_off_c, 1, 59, 64
3, 95400, Note_on_c, 1, 57, 107
3, 95448, Note_off_c, 1, 57, 64
3, 95460, Note_on_c, 1, 56, 107
3, 95508, Note_off_c, 1, 56, 64
3, 95520, Note_on_c, 1, 57, 107
3, 95568, Note_off_c, 1, 57, 64
3, 95580, Note_on_c, 1, 59, 107
3, 95628, Note_off_c, 1, 59, 64
3, 95640, Note_on_c, 1, 60, 107
3, 95688, Note_off_c, 1, 60, 64
3, 95700, Note_on_c, 1, 57, 107
3, 95748, Note_off_c, 1, 57, 64
3, 95760, Note_on_c, 1, 62, 107
3, 95808, Note_off_c, 1, 62, 64
3, 95820, Note_on_c, 1, 64, 107
3, 95868, Note_off_c, 1, 64, 64
3, 95880, Note_on_c, 1, 62, 107
3, 95928, Note_off_c, 1, 62, 64
3, 95940, Note_on_c, 1, 60, 107
3, 95988, Note_off_c, 1, 60, 64
3, 96000, Note_on_c, 1, 59, 107
3, 96048, Note_off_c, 1, 59, 64
3, 96060, Note_on_c, 1, 57, 107
3, 96108, Note_off_c, 1, 57, 64
3, 96120, Note_on_c, 1, 55, 107
3, 96168, Note_off_c, 1, 55, 64
3, 96180, Note_on_c, 1, 54, 107
3, 96228, Note_off_c, 1, 54, 64
3, 96240, Note_on_c, 1, 55, 107
3, 96288, Note_off_c, 1, 55, 64
3, 96300, Note_on_c, 1, 57, 107
3, 96348, Note_off_c, 1, 57, 64
3, 96360, Note_on_c, 1, 59, 107
3, 96408, Note_off_c, 1, 59, 64
3, 96420, Note_on_c, 1, 55, 107
3, 96468, Note_off_c, 1, 55, 64
3, 96480, Note_on_c, 1, 60, 107
3, 96528, Note_off_c, 1, 60, 64
3, 96540, Note_on_c, 1, 62, 107
3, 96588, Note_off_c, 1, 62, 64
3, 96600, Note_on_c, 1, 60, 107
3, 96648, Note_off_c, 1, 60, 64
3, 96660, Note_on_c, 1, 59, 107
3, 96708, Note_off_c, 1, 59, 64
3, 96720, Note_on_c, 1, 57, 107
3, 96768, Note_off_c, 1, 57, 64
3, 96780, Note_on_c, 1, 55, 107
3, 96828, Note_off_c, 1, 55, 64
3, 96840, Note_on_c, 1, 54, 107
3, 96888, Note_off_c, 1, 54, 64
3, 96900, Note_on_c, 1, 52, 107
3, 96948, Note_off_c, 1, 52, 64
3, 96960, Note_on_c, 1, 54, 107
3, 97008, Note_off_c, 1, 54, 64
3, 97020, Note_on_c, 1, 55, 107
3, 97068, Note_off_c, 1, 55, 64
3, 97080, Note_on_c, 1, 57, 107
3, 97128, Note_off_c, 1, 57, 64
3, 97140, Note_on_c, 1, 54, 107
3, 97188, Note_off_c, 1, 54, 64
3, 97200, Note_on_c, 1, 59, 107
3, 97248, Note_off_c, 1, 59, 64
3, 97260, Note_on_c, 1, 54, 107
3, 97308, Note_off_c, 1, 54, 64
3, 97320, Note_on_c, 1, 57, 107
3, 97368, Note_off_c, 1, 57, 64
3, 97380, Note_on_c, 1, 60, 107
3, 97428, Note_off_c, 1, 60, 64
3, 97440, Note_on_c, 1, 59, 107
3, 97488, Note_off_c, 1, 59, 64
3, 97500, Note_on_c, 1, 57, 107
3, 97548, Note_off_c, 1, 57, 64
3, 97560, Note_on_c, 1, 55, 107
3, 97608, Note_off_c, 1, 55, 64
3, 97620, Note_on_c, 1, 54, 107
3, 97668, Note_off_c, 1, 54, 64
3, 97680, Note_on_c, 1, 55, 107
3, 97728, Note_off_c, 1, 55, 64
3, 97740, Note_on_c, 1, 59, 107
3, 97788, Note_off_c, 1, 59, 64
3, 97800, Note_on_c, 1, 57, 107
3, 97848, Note_off_c, 1, 57, 64
3, 97860, Note_on_c, 1, 55, 107
3, 97908, Note_off_c, 1, 55, 64
3, 97920, Note_on_c, 1, 54, 107
3, 97968, Note_off_c, 1, 54, 64
3, 97980, Note_on_c, 1, 52, 107
3, 98028, Note_off_c, 1, 52, 64
3, 98040, Note_on_c, 1, 54, 107
3, 98088, Note_off_c, 1, 54, 64
3, 98100, Note_on_c, 1, 55, 107
3, 98148, Note_off_c, 1, 55, 64
3, 98160, Note_on_c, 1, 54, 107
3, 98208, Note_off_c, 1, 54, 64
3, 98220, Note_on_c, 1, 52, 107
3, 98268, Note_off_c, 1, 52, 64
3, 98280, Note_on_c, 1, 51, 107
3, 98328, Note_off_c, 1, 51, 64
3, 98340, Note_on_c, 1, 49, 107
3, 98388, Note_off_c, 1, 49, 64
3, 98400, Note_on_c, 1, 51, 107
3, 98448, Note_off_c, 1, 51, 64
3, 98460, Note_on_c, 1, 52, 107
3, 98508, Note_off_c, 1, 52, 64
3, 98520, Note_on_c, 1, 49, 107
3, 98568, Note_off_c, 1, 49, 64
3, 98580, Note_on_c, 1, 51, 107
3, 98628, Note_off_c, 1, 51, 64
3, 98640, Note_on_c, 1, 52, 107
3, 98688, Note_off_c, 1, 52, 64
3, 98700, Note_on_c, 1, 47, 107
3, 98748, Note_off_c, 1, 47, 64
3, 98760, Note_on_c, 1, 52, 107
3, 98808, Note_off_c, 1, 52, 64
3, 98820, Note_on_c, 1, 54, 107
3, 98868, Note_off_c, 1, 54, 64
3, 98880, Note_on_c, 1, 55, 107
3, 98928, Note_off_c, 1, 55, 64
3, 98940, Note_on_c, 1, 52, 107
3, 98988, Note_off_c, 1, 52, 64
3, 99000, Note_on_c, 1, 48, 107
3, 99048, Note_off_c, 1, 48, 64
3, 99060, Note_on_c, 1, 50, 107
3, 99108, Note_off_c, 1, 50, 64
3, 99120, Note_on_c, 1, 48, 107
3, 99168, Note_off_c, 1, 48, 64
3, 99180, Note_on_c, 1, 47, 107
3, 99228, Note_off_c, 1, 47, 64
3, 99240, Note_on_c, 1, 45, 107
3, 99288, Note_off_c, 1, 45, 64
3, 99300, Note_on_c, 1, 48, 107
3, 99348, Note_off_c, 1, 48, 64
3, 99360, Note_on_c, 1, 50, 107
3, 99408, Note_off_c, 1, 50, 64
3, 99420, Note_on_c, 1, 45, 107
3, 99468, Note_off_c, 1, 45, 64
3, 99480, Note_on_c, 1, 50, 107
3, 99528, Note_off_c, 1, 50, 64
3, 99540, Note_on_c, 1, 52, 107
3, 99588, Note_off_c, 1, 52, 64
3, 99600, Note_on_c, 1, 54, 107
3, 99648, Note_off_c, 1, 54, 64
3, 99660, Note_on_c, 1, 50, 107
3, 99708, Note_off_c, 1, 50, 64
3, 99720, Note_on_c, 1, 47, 107
3, 99768, Note_off_c, 1, 47, 64
3, 99780, Note_on_c, 1, 48, 107
3, 99828, Note_off_c, 1, 48, 64
3, 99840, Note_on_c, 1, 47, 107
3, 99888, Note_off_c, 1, 47, 64
3, 99900, Note_on_c, 1, 45, 107
3, 99948, Note_off_c, 1, 45, 64
3, 99960, Note_on_c, 1, 43, 107
3, 100008, Note_off_c, 1, 43, 64
3, 100020, Note_on_c, 1, 47, 107
3, 100068, Note_off_c, 1, 47, 64
3, 100080, Note_on_c, 1, 48, 107
3, 100128, Note_off_c, 1, 48, 64
3, 100140, Note_on_c, 1, 43, 107
3, 100188, Note_off_c, 1, 43, 64
3, 100200, Note_on_c, 1, 48, 107
3, 100248, Note_off_c, 1, 48, 64
3, 100260, Note_on_c, 1, 50, 107
3, 100308, Note_off_c, 1, 50, 64
3, 100320, Note_on_c, 1, 52, 107
3, 100368, Note_off_c, 1, 52, 64
3, 100380, Note_on_c, 1, 48, 107
3, 100428, Note_off_c, 1, 48, 64
3, 100440, Note_on_c, 1, 45, 107
3, 100488, Note_off_c, 1, 45, 64
3, 100500, Note_on_c, 1, 47, 107
3, 100548, Note_off_c, 1, 47, 64
3, 100560, Note_on_c, 1, 45, 107
3, 100608, Note_off_c, 1, 45, 64
3, 100620, Note_on_c, 1, 43, 107
3, 100668, Note_off_c, 1, 43, 64
3, 100680, Note_on_c, 1, 42, 107
3, 100728, Note_off_c, 1, 42, 64
3, 100740, Note_on_c, 1, 45, 107
3, 100788, Note_off_c, 1, 45, 64
3, 100800, Note_on_c, 1, 47, 107
3, 100848, Note_off_c, 1, 47, 64
3, 100860, Note_on_c, 1, 42, 107
3, 100908, Note_off_c, 1, 42, 64
3, 100920, Note_on_c, 1, 45, 107
3, 100968, Note_off_c, 1, 45, 64
3, 100980, Note_on_c, 1, 48, 107
3, 101028, Note_off_c, 1, 48, 64
3, 101040, Note_on_c, 1, 47, 107
3, 101088, Note_off_c, 1, 47, 64
3, 101100, Note_on_c, 1, 45, 107
3, 101148, Note_off_c, 1, 45, 64
3, 101160, Note_on_c, 1, 43, 107
3, 101208, Note_off_c, 1, 43, 64
3, 101220, Note_on_c, 1, 42, 107
3, 101268, Note_off_c, 1, 42, 64
3, 101280, Note_on_c, 1, 43, 107
3, 101328, Note_off_c, 1, 43, 64
3, 101340, Note_on_c, 1, 47, 107
3, 101388, Note_off_c, 1, 47, 64
3, 101400, Note_on_c, 1, 45, 107
3, 101448, Note_off_c, 1, 45, 64
3, 101460, Note_on_c, 1, 43, 107
3, 101508, Note_off_c, 1, 43, 64
3, 101520, Note_on_c, 1, 42, 107
3, 101568, Note_off_c, 1, 42, 64
3, 101580, Note_on_c, 1, 40, 107
3, 101628, Note_off_c, 1, 40, 64
3, 101640, Note_on_c, 1, 42, 107
3, 101688, Note_off_c, 1, 42, 64
3, 101700, Note_on_c, 1, 43, 107
3, 101748, Note_off_c, 1, 43, 64
3, 101760, Note_on_c, 1, 42, 107
3, 101808, Note_off_c, 1, 42, 64
3, 101820, Note_on_c, 1, 40, 107
3, 101868, Note_off_c, 1, 40, 64
3, 101880, Note_on_c, 1, 39, 107
3, 101928, Note_off_c, 1, 39, 64
3, 101940, Note_on_c, 1, 37, 107
3, 101988, Note_off_c, 1, 37, 64
3, 102000, Note_on_c, 1, 39, 107
3, 102048, Note_off_c, 1, 39, 64
3, 102060, Note_on_c, 1, 40, 107
3, 102108, Note_off_c, 1, 40, 64
3, 102120, Note_on_c, 1, 37, 107
3, 102168, Note_off_c, 1, 37, 64
3, 102180, Note_on_c, 1, 39, 107
3, 102228, Note_off_c, 1, 39, 64
3, 102240, Note_on_c, 1, 40, 107
3, 102330, Note_off_c, 1, 40, 64
3, 102360, Note_on_c, 1, 52, 107
3, 102450, Note_off_c, 1, 52, 64
3, 102480, Note_on_c, 1, 40, 107
3, 102570, Note_off_c, 1, 40, 64
3, 102600, Note_on_c, 1, 40, 107
3, 102690, Note_off_c, 1, 40, 64
3, 102720, Note_on_c, 1, 52, 107
3, 102810, Note_off_c, 1, 52, 64
3, 102840, Note_on_c, 1, 40, 107
3, 102930, Note_off_c, 1, 40, 64
3, 102960, Note_on_c, 1, 40, 107
3, 103050, Note_off_c, 1, 40, 64
3, 103080, Note_on_c, 1, 52, 107
3, 103170, Note_off_c, 1, 52, 64
3, 103200, Note_on_c, 1, 40, 107
3, 103290, Note_off_c, 1, 40, 64
3, 103320, Note_on_c, 1, 40, 107
3, 103410, Note_off_c, 1, 40, 64
3, 103440, Note_on_c, 1, 52, 107
3, 103530, Note_off_c, 1, 52, 64
3, 103560, Note_on_c, 1, 40, 107
3, 103650, Note_off_c, 1, 40, 64
3, 103680, Note_on_c, 1, 40, 107
3, 103770, Note_off_c, 1, 40, 64
3, 103800, Note_on_c, 1, 52, 107
3, 103890, Note_off_c, 1, 52, 64
3, 103920, Note_on_c, 1, 40, 107
3, 104010, Note_off_c, 1, 40, 64
3, 104040, Note_on_c, 1, 52, 107
3, 104088, Note_off_c, 1, 52, 64
3, 104100, Note_on_c, 1, 51, 107
3, 104148, Note_off_c, 1, 51, 64
3, 104160, Note_on_c, 1, 52, 107
3, 104208, Note_off_c, 1, 52, 64
3, 104220, Note_on_c, 1, 54, 107
3, 104268, Note_off_c, 1, 54, 64
3, 104280, Note_on_c, 1, 55, 107
3, 104328, Note_off_c, 1, 55, 64
3, 104340, Note_on_c, 1, 52, 107
3, 104388, Note_off_c, 1, 52, 64
3, 104400, Note_on_c, 1, 57, 107
3, 104448, Note_off_c, 1, 57, 64
3, 104460, Note_on_c, 1, 59, 107
3, 104508, Note_off_c, 1, 59, 64
3, 104520, Note_on_c, 1, 57, 107
3, 104568, Note_off_c, 1, 57, 64
3, 104580, Note_on_c, 1, 55, 107
3, 104628, Note_off_c, 1, 55, 64
3, 104640, Note_on_c, 1, 54, 107
3, 104688, Note_off_c, 1, 54, 64
3, 104700, Note_on_c, 1, 52, 107
3, 104748, Note_off_c, 1, 52, 64
3, 104760, Note_on_c, 1, 50, 107
3, 104808, Note_off_c, 1, 50, 64
3, 104820, Note_on_c, 1, 48, 107
3, 104868, Note_off_c, 1, 48, 64
3, 104880, Note_on_c, 1, 50, 107
3, 104928, Note_off_c, 1, 50, 64
3, 104940, Note_on_c, 1, 52, 107
3, 104988, Note_off_c, 1, 52, 64
3, 105000, Note_on_c, 1, 54, 107
3, 105048, Note_off_c, 1, 54, 64
3, 105060, Note_on_c, 1, 50, 107
3, 105108, Note_off_c, 1, 50, 64
3, 105120, Note_on_c, 1, 55, 107
3, 105168, Note_off_c, 1, 55, 64
3, 105180, Note_on_c, 1, 57, 107
3, 105228, Note_off_c, 1, 57, 64
3, 105240, Note_on_c, 1, 55, 107
3, 105288, Note_off_c, 1, 55, 64
3, 105300, Note_on_c, 1, 53, 107
3, 105348, Note_off_c, 1, 53, 64
3, 105360, Note_on_c, 1, 52, 107
3, 105408, Note_off_c, 1, 52, 64
3, 105420, Note_on_c, 1, 50, 107
3, 105468, Note_off_c, 1, 50, 64
3, 105480, Note_on_c, 1, 48, 107
3, 105528, Note_off_c, 1, 48, 64
3, 105540, Note_on_c, 1, 47, 107
3, 105588, Note_off_c, 1, 47, 64
3, 105600, Note_on_c, 1, 48, 107
3, 105648, Note_off_c, 1, 48, 64
3, 105660, Note_on_c, 1, 50, 107
3, 105708, Note_off_c, 1, 50, 64
3, 105720, Note_on_c, 1, 52, 107
3, 105768, Note_off_c, 1, 52, 64
3, 105780, Note_on_c, 1, 48, 107
3, 105828, Note_off_c, 1, 48, 64
3, 105840, Note_on_c, 1, 54, 107
3, 105888, Note_off_c, 1, 54, 64
3, 105900, Note_on_c, 1, 55, 107
3, 105948, Note_off_c, 1, 55, 64
3, 105960, Note_on_c, 1, 54, 107
3, 106008, Note_off_c, 1, 54, 64
3, 106020, Note_on_c, 1, 52, 107
3, 106068, Note_off_c, 1, 52, 64
3, 106080, Note_on_c, 1, 51, 107
3, 106128, Note_off_c, 1, 51, 64
3, 106140, Note_on_c, 1, 49, 107
3, 106188, Note_off_c, 1, 49, 64
3, 106200, Note_on_c, 1, 47, 107
3, 106290, Note_off_c, 1, 47, 64
3, 106320, Note_on_c, 1, 59, 107
3, 106410, Note_off_c, 1, 59, 64
3, 106440, Note_on_c, 1, 47, 107
3, 106530, Note_off_c, 1, 47, 64
3, 106560, Note_on_c, 1, 47, 107
3, 106650, Note_off_c, 1, 47, 64
3, 106680, Note_on_c, 1, 59, 107
3, 106770, Note_off_c, 1, 59, 64
3, 106800, Note_on_c, 1, 47, 107
3, 106890, Note_off_c, 1, 47, 64
3, 106920, Note_on_c, 1, 47, 107
3, 107010, Note_off_c, 1, 47, 64
3, 107040, Note_on_c, 1, 58, 107
3, 107130, Note_off_c, 1, 58, 64
3, 107160, Note_on_c, 1, 47, 107
3, 107250, Note_off_c, 1, 47, 64
3, 107280, Note_on_c, 1, 47, 107
3, 107640, Note_on_c, 1, 55, 107
3, 108144, Note_off_c, 1, 55, 64
3, 108180, Note_on_c, 1, 52, 107
3, 108228, Note_off_c, 1, 52, 64
3, 108240, Note_on_c, 1, 55, 107
3, 108288, Note_off_c, 1, 55, 64
3, 108300, Note_on_c, 1, 49, 107
3, 108348, Note_off_c, 1, 49, 64
3, 108360, Note_on_c, 1, 52, 107
3, 108408, Note_off_c, 1, 52, 64
3, 108420, Note_on_c, 1, 55, 107
3, 108672, Note_off_c, 1, 55, 64
3, 108720, Note_on_c, 1, 54, 107
3, 108816, Note_off_c, 1, 47, 64
3, 108816, Note_off_c, 1, 54, 64
3, 108840, Note_on_c, 1, 59, 107
3, 108984, Note_off_c, 1, 59, 64
3, 109020, Note_on_c, 1, 59, 107
3, 109068, Note_off_c, 1, 59, 64
3, 109080, Note_on_c, 1, 52, 107
3, 109176, Note_off_c, 1, 52, 64
3, 109200, Note_on_c, 1, 60, 107
3, 109248, Note_off_c, 1, 60, 64
3, 109260, Note_on_c, 1, 59, 107
3, 109308, Note_off_c, 1, 59, 64
3, 109320, Note_on_c, 1, 60, 107
3, 109368, Note_off_c, 1, 60, 64
3, 109380, Note_on_c, 1, 57, 107
3, 109428, Note_off_c, 1, 57, 64
3, 109440, Note_on_c, 1, 51, 107
3, 109536, Note_off_c, 1, 51, 64
3, 109560, Note_on_c, 1, 54, 107
3, 109704, Note_off_c, 1, 54, 64
3, 109740, Note_on_c, 1, 54, 107
3, 109788, Note_off_c, 1, 54, 64
3, 109800, Note_on_c, 1, 47, 107
3, 109896, Note_off_c, 1, 47, 64
3, 109920, Note_on_c, 1, 59, 107
3, 109968, Note_off_c, 1, 59, 64
3, 109980, Note_on_c, 1, 57, 107
3, 110028, Note_off_c, 1, 57, 64
3, 110040, Note_on_c, 1, 59, 107
3, 110088, Note_off_c, 1, 59, 64
3, 110100, Note_on_c, 1, 54, 107
3, 110148, Note_off_c, 1, 54, 64
3, 110160, Note_on_c, 1, 55, 107
3, 110256, Note_off_c, 1, 55, 64
3, 110280, Note_on_c, 1, 57, 107
3, 110304, Note_off_c, 1, 57, 64
3, 110310, Note_on_c, 1, 56, 107
3, 110334, Note_off_c, 1, 56, 64
3, 110340, Note_on_c, 1, 57, 107
3, 110364, Note_off_c, 1, 57, 64
3, 110370, Note_on_c, 1, 56, 107
3, 110394, Note_off_c, 1, 56, 64
3, 110400, Note_on_c, 1, 57, 107
3, 110424, Note_off_c, 1, 57, 64
3, 110430, Note_on_c, 1, 56, 107
3, 110454, Note_off_c, 1, 56, 64
3, 110460, Note_on_c, 1, 56, 107
3, 110508, Note_off_c, 1, 56, 64
3, 110520, Note_on_c, 1, 57, 107
3, 110616, Note_off_c, 1, 57, 64
3, 110640, Note_on_c, 1, 60, 107
3, 110784, Note_off_c, 1, 60, 64
3, 110820, Note_on_c, 1, 60, 107
3, 110868, Note_off_c, 1, 60, 64
3, 110880, Note_on_c, 1, 59, 107
3, 110928, Note_off_c, 1, 59, 64
3, 110940, Note_on_c, 1, 60, 107
3, 110988, Note_off_c, 1, 60, 64
3, 111000, Note_on_c, 1, 59, 107
3, 111048, Note_off_c, 1, 59, 64
3, 111060, Note_on_c, 1, 57, 107
3, 111108, Note_off_c, 1, 57, 64
3, 111120, Note_on_c, 1, 55, 107
3, 111168, Note_off_c, 1, 55, 64
3, 111180, Note_on_c, 1, 54, 107
3, 111228, Note_off_c, 1, 54, 64
3, 111240, Note_on_c, 1, 52, 107
3, 111288, Note_off_c, 1, 52, 64
3, 111300, Note_on_c, 1, 57, 107
3, 111348, Note_off_c, 1, 57, 64
3, 111360, Note_on_c, 1, 59, 107
3, 111450, Note_off_c, 1, 59, 64
3, 111480, Note_on_c, 1, 47, 107
3, 111570, Note_off_c, 1, 47, 64
3, 111600, Note_on_c, 1, 40, 107
3, 112176, Note_off_c, 1, 40, 64
3, 112176, End_track
4, 0, Start_track
4, 0, Title_t, "Arr. Gary Bricault, (c) 1997"
4, 0, End_track
0, 0, End_of_file
