0, 0, Header, 1, 3, 384
1, 0, Start_track
1, 0, Time_signature, 4, 2, 24, 8
1, 0, Tempo, 500000
1, 264192, End_track
2, 0, Start_track
2, 0, Text_t, "harpsichord: John Sankey"
2, 0, Program_c, 0, 6
2, 0, Pitch_bend_c, 0, 8192
2, 0, Program_c, 1, 6
2, 0, Pitch_bend_c, 1, 7792
2, 0, Program_c, 2, 6
2, 0, Pitch_bend_c, 2, 7876
2, 0, Program_c, 3, 6
2, 0, Pitch_bend_c, 3, 7952
2, 0, Program_c, 4, 6
2, 0, Pitch_bend_c, 4, 7792
2, 0, Program_c, 5, 6
2, 0, Pitch_bend_c, 5, 8112
2, 0, Program_c, 6, 6
2, 0, Pitch_bend_c, 6, 7712
2, 0, Program_c, 7, 6
2, 0, Pitch_bend_c, 7, 8037
2, 0, Program_c, 8, 6
2, 0, Pitch_bend_c, 8, 7872
2, 0, Program_c, 10, 6
2, 0, Pitch_bend_c, 10, 7712
2, 0, Program_c, 11, 6
2, 0, Pitch_bend_c, 11, 8032
2, 0, Program_c, 12, 6
2, 0, Pitch_bend_c, 12, 7872
2, 0, Title_t, "Track 1"
2, 32, Note_on_c, 4, 52, 127
2, 209, Note_on_c, 7, 67, 127
2, 384, Note_off_c, 7, 67, 127
2, 384, Note_off_c, 4, 52, 127
2, 386, Note_on_c, 10, 69, 127
2, 386, Note_on_c, 4, 40, 127
2, 561, Note_off_c, 10, 69, 127
2, 564, Note_on_c, 12, 71, 127
2, 739, Note_off_c, 12, 71, 127
2, 741, Note_on_c, 0, 72, 127
2, 916, Note_off_c, 0, 72, 127
2, 921, Note_on_c, 10, 69, 127
2, 1088, Note_off_c, 4, 40, 127
2, 1096, Note_off_c, 10, 69, 127
2, 1098, Note_on_c, 12, 71, 127
2, 1273, Note_off_c, 12, 71, 127
2, 1276, Note_on_c, 7, 67, 127
2, 1451, Note_off_c, 7, 67, 127
2, 1453, Note_on_c, 6, 66, 127
2, 1628, Note_off_c, 6, 66, 127
2, 1631, Note_on_c, 4, 64, 127
2, 1806, Note_off_c, 4, 64, 127
2, 1810, Note_on_c, 3, 63, 127
2, 1985, Note_off_c, 3, 63, 127
2, 1987, Note_on_c, 10, 69, 127
2, 2162, Note_off_c, 10, 69, 127
2, 2165, Note_on_c, 7, 67, 127
2, 2251, Note_off_c, 7, 67, 127
2, 2254, Note_on_c, 6, 66, 127
2, 2340, Note_off_c, 6, 66, 127
2, 2342, Note_on_c, 4, 64, 127
2, 2342, Note_on_c, 7, 55, 127
2, 2517, Note_off_c, 7, 55, 127
2, 2517, Note_off_c, 4, 64, 127
2, 2521, Note_on_c, 4, 76, 127
2, 2521, Note_on_c, 10, 57, 127
2, 2696, Note_off_c, 10, 57, 127
2, 2699, Note_on_c, 12, 59, 127
2, 2874, Note_off_c, 12, 59, 127
2, 2877, Note_on_c, 0, 60, 127
2, 3038, Note_off_c, 4, 76, 127
2, 3052, Note_off_c, 0, 60, 127
2, 3054, Note_on_c, 10, 57, 127
2, 3229, Note_off_c, 10, 57, 127
2, 3232, Note_on_c, 3, 75, 127
2, 3232, Note_on_c, 12, 59, 127
2, 3318, Note_off_c, 3, 75, 127
2, 3321, Note_on_c, 1, 73, 127
2, 3407, Note_off_c, 1, 73, 127
2, 3407, Note_off_c, 12, 59, 127
2, 3410, Note_on_c, 12, 71, 127
2, 3410, Note_on_c, 7, 55, 127
2, 3585, Note_off_c, 7, 55, 127
2, 3585, Note_off_c, 12, 71, 127
2, 3588, Note_on_c, 10, 81, 127
2, 3588, Note_on_c, 6, 54, 127
2, 3763, Note_off_c, 6, 54, 127
2, 3766, Note_on_c, 4, 52, 127
2, 3939, Note_off_c, 10, 81, 127
2, 3941, Note_off_c, 4, 52, 127
2, 3943, Note_on_c, 3, 51, 127
2, 4118, Note_off_c, 3, 51, 127
2, 4122, Note_on_c, 10, 57, 127
2, 4297, Note_off_c, 10, 57, 127
2, 4299, Note_on_c, 7, 55, 127
2, 4474, Note_off_c, 7, 55, 127
2, 4478, Note_on_c, 7, 67, 127
2, 4478, Note_on_c, 4, 52, 127
2, 4653, Note_off_c, 4, 52, 127
2, 4653, Note_off_c, 7, 67, 127
2, 4655, Note_on_c, 10, 69, 127
2, 4655, Note_on_c, 6, 54, 127
2, 4830, Note_off_c, 6, 54, 127
2, 4830, Note_off_c, 10, 69, 127
2, 4832, Note_on_c, 12, 71, 127
2, 4832, Note_on_c, 7, 55, 127
2, 5007, Note_off_c, 7, 55, 127
2, 5007, Note_off_c, 12, 71, 127
2, 5011, Note_on_c, 0, 72, 127
2, 5011, Note_on_c, 10, 57, 127
2, 5186, Note_off_c, 10, 57, 127
2, 5186, Note_off_c, 0, 72, 127
2, 5188, Note_on_c, 10, 69, 127
2, 5188, Note_on_c, 6, 54, 127
2, 5363, Note_off_c, 6, 54, 127
2, 5363, Note_off_c, 10, 69, 127
2, 5367, Note_on_c, 12, 71, 127
2, 5367, Note_on_c, 7, 55, 127
2, 5544, Note_on_c, 7, 67, 127
2, 5718, Note_off_c, 12, 71, 127
2, 5719, Note_off_c, 7, 67, 127
2, 5719, Note_off_c, 7, 55, 127
2, 5723, Note_on_c, 6, 66, 127
2, 5723, Note_on_c, 10, 57, 127
2, 5898, Note_off_c, 6, 66, 127
2, 5900, Note_on_c, 4, 64, 127
2, 6075, Note_off_c, 4, 64, 127
2, 6075, Note_off_c, 10, 57, 127
2, 6077, Note_on_c, 3, 63, 127
2, 6077, Note_on_c, 12, 59, 127
2, 6252, Note_off_c, 3, 63, 127
2, 6256, Note_on_c, 10, 69, 127
2, 6429, Note_off_c, 12, 59, 127
2, 6431, Note_off_c, 10, 69, 127
2, 6433, Note_on_c, 7, 67, 127
2, 6433, Note_on_c, 4, 52, 127
2, 6608, Note_off_c, 7, 67, 127
2, 6612, Note_on_c, 12, 71, 127
2, 6785, Note_off_c, 4, 52, 127
2, 6787, Note_off_c, 12, 71, 127
2, 6789, Note_on_c, 0, 72, 127
2, 6789, Note_on_c, 2, 50, 127
2, 6964, Note_off_c, 0, 72, 127
2, 6967, Note_on_c, 2, 74, 127
2, 7141, Note_off_c, 2, 50, 127
2, 7142, Note_off_c, 2, 74, 127
2, 7145, Note_on_c, 4, 76, 127
2, 7145, Note_on_c, 0, 48, 127
2, 7320, Note_off_c, 4, 76, 127
2, 7324, Note_on_c, 0, 72, 127
2, 7497, Note_off_c, 0, 48, 127
2, 7499, Note_off_c, 0, 72, 127
2, 7501, Note_on_c, 2, 74, 127
2, 7501, Note_on_c, 12, 47, 127
2, 7678, Note_on_c, 12, 71, 127
2, 7852, Note_off_c, 2, 74, 127
2, 7853, Note_off_c, 12, 71, 127
2, 7853, Note_off_c, 12, 47, 127
2, 7856, Note_on_c, 10, 69, 127
2, 7856, Note_on_c, 0, 48, 127
2, 8031, Note_off_c, 10, 69, 127
2, 8034, Note_on_c, 7, 67, 127
2, 8208, Note_off_c, 0, 48, 127
2, 8209, Note_off_c, 7, 67, 127
2, 8213, Note_on_c, 6, 66, 127
2, 8213, Note_on_c, 2, 50, 127
2, 8388, Note_off_c, 6, 66, 127
2, 8390, Note_on_c, 0, 72, 127
2, 8565, Note_off_c, 0, 72, 127
2, 8565, Note_off_c, 2, 50, 127
2, 8568, Note_on_c, 12, 71, 127
2, 8568, Note_on_c, 7, 43, 127
2, 8743, Note_off_c, 12, 71, 127
2, 8745, Note_on_c, 2, 74, 127
2, 8920, Note_off_c, 2, 74, 127
2, 8920, Note_off_c, 7, 43, 127
2, 8925, Note_on_c, 4, 76, 127
2, 8925, Note_on_c, 6, 42, 127
2, 9100, Note_off_c, 4, 76, 127
2, 9102, Note_on_c, 6, 78, 127
2, 9277, Note_off_c, 6, 78, 127
2, 9277, Note_off_c, 6, 42, 127
2, 9279, Note_on_c, 7, 79, 127
2, 9279, Note_on_c, 4, 40, 127
2, 9454, Note_off_c, 7, 79, 127
2, 9457, Note_on_c, 4, 76, 127
2, 9631, Note_off_c, 4, 40, 127
2, 9632, Note_off_c, 4, 76, 127
2, 9635, Note_on_c, 6, 78, 127
2, 9635, Note_on_c, 2, 38, 127
2, 9814, Note_on_c, 2, 74, 127
2, 9986, Note_off_c, 6, 78, 127
2, 9987, Note_off_c, 2, 38, 127
2, 9989, Note_off_c, 2, 74, 127
2, 9991, Note_on_c, 1, 73, 127
2, 9991, Note_on_c, 4, 40, 127
2, 10166, Note_off_c, 1, 73, 127
2, 10169, Note_on_c, 12, 71, 127
2, 10343, Note_off_c, 4, 40, 127
2, 10344, Note_off_c, 12, 71, 127
2, 10346, Note_on_c, 11, 70, 127
2, 10346, Note_on_c, 6, 42, 127
2, 10521, Note_off_c, 11, 70, 127
2, 10525, Note_on_c, 4, 76, 127
2, 10698, Note_off_c, 6, 42, 127
2, 10700, Note_off_c, 4, 76, 127
2, 10703, Note_on_c, 2, 74, 127
2, 10703, Note_on_c, 12, 47, 127
2, 10878, Note_off_c, 12, 47, 127
2, 10878, Note_off_c, 2, 74, 127
2, 10880, Note_on_c, 6, 78, 127
2, 10880, Note_on_c, 2, 50, 127
2, 11055, Note_off_c, 2, 50, 127
2, 11055, Note_off_c, 6, 78, 127
2, 11058, Note_on_c, 4, 76, 127
2, 11058, Note_on_c, 4, 52, 127
2, 11233, Note_off_c, 4, 52, 127
2, 11233, Note_off_c, 4, 76, 127
2, 11235, Note_on_c, 2, 74, 127
2, 11235, Note_on_c, 6, 54, 127
2, 11410, Note_off_c, 6, 54, 127
2, 11410, Note_off_c, 2, 74, 127
2, 11415, Note_on_c, 1, 73, 127
2, 11415, Note_on_c, 7, 55, 127
2, 11590, Note_off_c, 7, 55, 127
2, 11590, Note_off_c, 1, 73, 127
2, 11592, Note_on_c, 12, 71, 127
2, 11592, Note_on_c, 4, 52, 127
2, 11767, Note_off_c, 4, 52, 127
2, 11767, Note_off_c, 12, 71, 127
2, 11770, Note_on_c, 11, 70, 127
2, 11770, Note_on_c, 6, 54, 127
2, 11856, Note_off_c, 11, 70, 127
2, 11858, Note_on_c, 8, 68, 127
2, 11944, Note_off_c, 8, 68, 127
2, 11945, Note_off_c, 6, 54, 127
2, 11947, Note_on_c, 6, 66, 127
2, 11947, Note_on_c, 2, 50, 127
2, 12122, Note_off_c, 2, 50, 127
2, 12122, Note_off_c, 6, 66, 127
2, 12125, Note_on_c, 4, 76, 127
2, 12125, Note_on_c, 1, 49, 127
2, 12300, Note_off_c, 1, 49, 127
2, 12304, Note_on_c, 12, 47, 127
2, 12479, Note_off_c, 12, 47, 127
2, 12481, Note_on_c, 11, 46, 127
2, 12642, Note_off_c, 4, 76, 127
2, 12656, Note_off_c, 11, 46, 127
2, 12659, Note_on_c, 4, 52, 127
2, 12834, Note_off_c, 4, 52, 127
2, 12836, Note_on_c, 2, 50, 127
2, 13011, Note_off_c, 2, 50, 127
2, 13015, Note_on_c, 2, 74, 127
2, 13015, Note_on_c, 12, 47, 127
2, 13190, Note_off_c, 12, 47, 127
2, 13190, Note_off_c, 2, 74, 127
2, 13193, Note_on_c, 4, 76, 127
2, 13193, Note_on_c, 1, 49, 127
2, 13368, Note_off_c, 1, 49, 127
2, 13368, Note_off_c, 4, 76, 127
2, 13371, Note_on_c, 6, 78, 127
2, 13371, Note_on_c, 2, 50, 127
2, 13546, Note_off_c, 2, 50, 127
2, 13546, Note_off_c, 6, 78, 127
2, 13548, Note_on_c, 7, 79, 127
2, 13548, Note_on_c, 4, 52, 127
2, 13723, Note_off_c, 4, 52, 127
2, 13723, Note_off_c, 7, 79, 127
2, 13726, Note_on_c, 4, 76, 127
2, 13726, Note_on_c, 1, 49, 127
2, 13901, Note_off_c, 1, 49, 127
2, 13901, Note_off_c, 4, 76, 127
2, 13904, Note_on_c, 6, 78, 127
2, 13904, Note_on_c, 2, 50, 127
2, 14082, Note_on_c, 2, 74, 127
2, 14255, Note_off_c, 6, 78, 127
2, 14256, Note_off_c, 2, 50, 127
2, 14257, Note_off_c, 2, 74, 127
2, 14260, Note_on_c, 1, 73, 127
2, 14260, Note_on_c, 4, 52, 127
2, 14435, Note_off_c, 1, 73, 127
2, 14437, Note_on_c, 12, 71, 127
2, 14612, Note_off_c, 12, 71, 127
2, 14612, Note_off_c, 4, 52, 127
2, 14616, Note_on_c, 11, 70, 127
2, 14616, Note_on_c, 6, 54, 127
2, 14791, Note_off_c, 11, 70, 127
2, 14793, Note_on_c, 4, 76, 127
2, 14968, Note_off_c, 4, 76, 127
2, 14968, Note_off_c, 6, 54, 127
2, 14971, Note_on_c, 2, 74, 127
2, 14971, Note_on_c, 12, 47, 127
2, 15146, Note_off_c, 2, 74, 127
2, 15149, Note_on_c, 12, 71, 127
2, 15323, Note_off_c, 12, 47, 127
2, 15324, Note_off_c, 12, 71, 127
2, 15327, Note_on_c, 1, 73, 127
2, 15327, Note_on_c, 12, 59, 127
2, 15502, Note_off_c, 1, 73, 127
2, 15505, Note_on_c, 2, 74, 127
2, 15679, Note_off_c, 12, 59, 127
2, 15680, Note_off_c, 2, 74, 127
2, 15682, Note_on_c, 4, 76, 127
2, 15682, Note_on_c, 11, 58, 127
2, 15857, Note_off_c, 4, 76, 127
2, 15861, Note_on_c, 1, 73, 127
2, 16034, Note_off_c, 11, 58, 127
2, 16036, Note_off_c, 1, 73, 127
2, 16038, Note_on_c, 2, 74, 127
2, 16038, Note_on_c, 12, 59, 127
2, 16217, Note_on_c, 12, 71, 127
2, 16389, Note_off_c, 2, 74, 127
2, 16390, Note_off_c, 12, 59, 127
2, 16392, Note_off_c, 12, 71, 127
2, 16394, Note_on_c, 10, 69, 127
2, 16394, Note_on_c, 6, 54, 127
2, 16569, Note_off_c, 10, 69, 127
2, 16571, Note_on_c, 7, 67, 127
2, 16746, Note_off_c, 7, 67, 127
2, 16746, Note_off_c, 6, 54, 127
2, 16750, Note_on_c, 6, 66, 127
2, 16750, Note_on_c, 2, 50, 127
2, 16928, Note_on_c, 0, 72, 127
2, 16951, Note_off_c, 6, 66, 127
2, 17102, Note_off_c, 2, 50, 127
2, 17103, Note_off_c, 0, 72, 127
2, 17106, Note_on_c, 12, 71, 127
2, 17106, Note_on_c, 7, 55, 127
2, 17281, Note_off_c, 7, 55, 127
2, 17281, Note_off_c, 12, 71, 127
2, 17283, Note_on_c, 7, 67, 127
2, 17283, Note_on_c, 12, 59, 127
2, 17458, Note_off_c, 12, 59, 127
2, 17458, Note_off_c, 7, 67, 127
2, 17461, Note_on_c, 4, 76, 127
2, 17461, Note_on_c, 0, 60, 127
2, 17636, Note_off_c, 0, 60, 127
2, 17636, Note_off_c, 4, 76, 127
2, 17639, Note_on_c, 12, 71, 127
2, 17639, Note_on_c, 2, 62, 127
2, 17814, Note_off_c, 2, 62, 127
2, 17814, Note_off_c, 12, 71, 127
2, 17818, Note_on_c, 0, 72, 127
2, 17818, Note_on_c, 4, 64, 127
2, 17993, Note_off_c, 4, 64, 127
2, 17993, Note_off_c, 0, 72, 127
2, 17995, Note_on_c, 10, 81, 127
2, 17995, Note_on_c, 0, 60, 127
2, 18170, Note_off_c, 0, 60, 127
2, 18170, Note_off_c, 10, 81, 127
2, 18172, Note_on_c, 12, 71, 127
2, 18172, Note_on_c, 2, 62, 127
2, 18347, Note_off_c, 2, 62, 127
2, 18350, Note_on_c, 2, 74, 127
2, 18350, Note_on_c, 12, 59, 127
2, 18523, Note_off_c, 12, 71, 127
2, 18525, Note_off_c, 12, 59, 127
2, 18525, Note_off_c, 2, 74, 127
2, 18529, Note_on_c, 7, 79, 127
2, 18529, Note_on_c, 10, 57, 127
2, 18704, Note_off_c, 10, 57, 127
2, 18707, Note_on_c, 7, 55, 127
2, 18825, Note_off_c, 7, 79, 127
2, 18882, Note_off_c, 7, 55, 127
2, 18884, Note_on_c, 12, 71, 127
2, 18884, Note_on_c, 6, 54, 127
2, 18970, Note_off_c, 12, 71, 127
2, 18973, Note_on_c, 10, 69, 127
2, 19059, Note_off_c, 10, 69, 127
2, 19059, Note_off_c, 6, 54, 127
2, 19062, Note_on_c, 7, 67, 127
2, 19062, Note_on_c, 0, 60, 127
2, 19148, Note_off_c, 7, 67, 127
2, 19150, Note_on_c, 10, 69, 127
2, 19236, Note_off_c, 10, 69, 127
2, 19237, Note_off_c, 0, 60, 127
2, 19239, Note_on_c, 7, 67, 127
2, 19239, Note_on_c, 12, 59, 127
2, 19414, Note_off_c, 12, 59, 127
2, 19414, Note_off_c, 7, 67, 127
2, 19418, Note_on_c, 4, 64, 127
2, 19418, Note_on_c, 7, 55, 127
2, 19593, Note_off_c, 7, 55, 127
2, 19593, Note_off_c, 4, 64, 127
2, 19596, Note_on_c, 0, 72, 127
2, 19596, Note_on_c, 10, 57, 127
2, 19771, Note_off_c, 10, 57, 127
2, 19771, Note_off_c, 0, 72, 127
2, 19773, Note_on_c, 7, 67, 127
2, 19773, Note_on_c, 12, 59, 127
2, 19948, Note_off_c, 12, 59, 127
2, 19948, Note_off_c, 7, 67, 127
2, 19951, Note_on_c, 10, 69, 127
2, 19951, Note_on_c, 0, 60, 127
2, 20126, Note_off_c, 0, 60, 127
2, 20126, Note_off_c, 10, 69, 127
2, 20130, Note_on_c, 6, 78, 127
2, 20130, Note_on_c, 10, 57, 127
2, 20305, Note_off_c, 10, 57, 127
2, 20305, Note_off_c, 6, 78, 127
2, 20308, Note_on_c, 7, 67, 127
2, 20308, Note_on_c, 12, 59, 127
2, 20483, Note_off_c, 12, 59, 127
2, 20485, Note_on_c, 12, 71, 127
2, 20485, Note_on_c, 7, 55, 127
2, 20659, Note_off_c, 7, 67, 127
2, 20660, Note_off_c, 7, 55, 127
2, 20660, Note_off_c, 12, 71, 127
2, 20663, Note_on_c, 4, 76, 127
2, 20663, Note_on_c, 6, 54, 127
2, 20838, Note_off_c, 6, 54, 127
2, 20840, Note_on_c, 4, 52, 127
2, 20976, Note_off_c, 4, 76, 127
2, 21015, Note_off_c, 4, 52, 127
2, 21019, Note_on_c, 7, 67, 127
2, 21019, Note_on_c, 3, 51, 127
2, 21105, Note_off_c, 7, 67, 127
2, 21108, Note_on_c, 6, 66, 127
2, 21194, Note_off_c, 6, 66, 127
2, 21194, Note_off_c, 3, 51, 127
2, 21197, Note_on_c, 4, 64, 127
2, 21197, Note_on_c, 10, 57, 127
2, 21283, Note_off_c, 4, 64, 127
2, 21286, Note_on_c, 6, 66, 127
2, 21372, Note_off_c, 6, 66, 127
2, 21372, Note_off_c, 10, 57, 127
2, 21374, Note_on_c, 4, 64, 127
2, 21374, Note_on_c, 7, 55, 127
2, 21549, Note_off_c, 7, 55, 127
2, 21549, Note_off_c, 4, 64, 127
2, 21552, Note_on_c, 7, 67, 127
2, 21552, Note_on_c, 4, 52, 127
2, 21727, Note_off_c, 4, 52, 127
2, 21727, Note_off_c, 7, 67, 127
2, 21730, Note_on_c, 10, 69, 127
2, 21730, Note_on_c, 6, 54, 127
2, 21905, Note_off_c, 6, 54, 127
2, 21905, Note_off_c, 10, 69, 127
2, 21909, Note_on_c, 12, 71, 127
2, 21909, Note_on_c, 7, 55, 127
2, 22084, Note_off_c, 7, 55, 127
2, 22084, Note_off_c, 12, 71, 127
2, 22086, Note_on_c, 0, 72, 127
2, 22086, Note_on_c, 10, 57, 127
2, 22261, Note_off_c, 10, 57, 127
2, 22261, Note_off_c, 0, 72, 127
2, 22264, Note_on_c, 10, 69, 127
2, 22264, Note_on_c, 6, 54, 127
2, 22439, Note_off_c, 6, 54, 127
2, 22439, Note_off_c, 10, 69, 127
2, 22441, Note_on_c, 12, 71, 127
2, 22441, Note_on_c, 7, 55, 127
2, 22527, Note_off_c, 12, 71, 127
2, 22531, Note_on_c, 10, 69, 127
2, 22616, Note_off_c, 7, 55, 127
2, 22617, Note_off_c, 10, 69, 127
2, 22619, Note_on_c, 7, 67, 127
2, 22619, Note_on_c, 4, 52, 127
2, 22794, Note_off_c, 4, 52, 127
2, 22794, Note_off_c, 7, 67, 127
2, 22798, Note_on_c, 5, 77, 127
2, 22798, Note_on_c, 2, 50, 127
2, 22973, Note_off_c, 2, 50, 127
2, 22975, Note_on_c, 0, 48, 127
2, 23150, Note_off_c, 0, 48, 127
2, 23153, Note_on_c, 12, 47, 127
2, 23315, Note_off_c, 5, 77, 127
2, 23328, Note_off_c, 12, 47, 127
2, 23331, Note_on_c, 5, 53, 127
2, 23506, Note_off_c, 5, 53, 127
2, 23509, Note_on_c, 4, 52, 127
2, 23684, Note_off_c, 4, 52, 127
2, 23687, Note_on_c, 4, 64, 127
2, 23687, Note_on_c, 7, 43, 127
2, 23862, Note_off_c, 7, 43, 127
2, 23862, Note_off_c, 4, 64, 127
2, 23864, Note_on_c, 6, 66, 127
2, 23864, Note_on_c, 10, 45, 127
2, 24039, Note_off_c, 10, 45, 127
2, 24039, Note_off_c, 6, 66, 127
2, 24042, Note_on_c, 7, 67, 127
2, 24042, Note_on_c, 12, 47, 127
2, 24217, Note_off_c, 12, 47, 127
2, 24217, Note_off_c, 7, 67, 127
2, 24220, Note_on_c, 10, 69, 127
2, 24220, Note_on_c, 0, 48, 127
2, 24395, Note_off_c, 10, 69, 127
2, 24398, Note_on_c, 6, 66, 127
2, 24573, Note_off_c, 6, 66, 127
2, 24576, Note_on_c, 7, 67, 127
2, 24701, Note_off_c, 0, 48, 127
2, 24754, Note_on_c, 2, 62, 127
2, 24754, Note_on_c, 12, 47, 127
2, 24761, Note_off_c, 7, 67, 127
2, 24929, Note_off_c, 12, 47, 127
2, 24929, Note_off_c, 2, 62, 127
2, 24932, Note_on_c, 4, 64, 127
2, 24932, Note_on_c, 1, 49, 127
2, 25107, Note_off_c, 1, 49, 127
2, 25107, Note_off_c, 4, 64, 127
2, 25110, Note_on_c, 6, 66, 127
2, 25110, Note_on_c, 2, 50, 127
2, 25285, Note_off_c, 2, 50, 127
2, 25285, Note_off_c, 6, 66, 127
2, 25287, Note_on_c, 7, 67, 127
2, 25287, Note_on_c, 4, 52, 127
2, 25462, Note_off_c, 4, 52, 127
2, 25465, Note_on_c, 1, 49, 127
2, 25640, Note_off_c, 1, 49, 127
2, 25643, Note_on_c, 2, 50, 127
2, 25768, Note_off_c, 7, 67, 127
2, 25821, Note_on_c, 6, 66, 127
2, 25821, Note_on_c, 10, 45, 127
2, 25829, Note_off_c, 2, 50, 127
2, 25996, Note_off_c, 10, 45, 127
2, 25996, Note_off_c, 6, 66, 127
2, 25999, Note_on_c, 8, 68, 127
2, 25999, Note_on_c, 12, 47, 127
2, 26174, Note_off_c, 12, 47, 127
2, 26174, Note_off_c, 8, 68, 127
2, 26176, Note_on_c, 10, 69, 127
2, 26176, Note_on_c, 0, 48, 127
2, 26351, Note_off_c, 0, 48, 127
2, 26351, Note_off_c, 10, 69, 127
2, 26355, Note_on_c, 12, 71, 127
2, 26355, Note_on_c, 2, 50, 127
2, 26530, Note_off_c, 12, 71, 127
2, 26532, Note_on_c, 8, 68, 127
2, 26707, Note_off_c, 8, 68, 127
2, 26711, Note_on_c, 10, 69, 127
2, 26836, Note_off_c, 2, 50, 127
2, 26888, Note_on_c, 4, 64, 127
2, 26888, Note_on_c, 1, 49, 127
2, 26911, Note_off_c, 10, 69, 127
2, 27063, Note_off_c, 1, 49, 127
2, 27063, Note_off_c, 4, 64, 127
2, 27065, Note_on_c, 6, 66, 127
2, 27065, Note_on_c, 3, 51, 127
2, 27240, Note_off_c, 3, 51, 127
2, 27240, Note_off_c, 6, 66, 127
2, 27244, Note_on_c, 7, 67, 127
2, 27244, Note_on_c, 4, 52, 127
2, 27419, Note_off_c, 4, 52, 127
2, 27419, Note_off_c, 7, 67, 127
2, 27422, Note_on_c, 10, 69, 127
2, 27422, Note_on_c, 6, 54, 127
2, 27597, Note_off_c, 6, 54, 127
2, 27600, Note_on_c, 3, 51, 127
2, 27775, Note_off_c, 3, 51, 127
2, 27777, Note_on_c, 4, 52, 127
2, 27921, Note_off_c, 10, 69, 127
2, 27955, Note_on_c, 8, 68, 127
2, 27955, Note_on_c, 12, 47, 127
2, 27958, Note_off_c, 4, 52, 127
2, 28130, Note_off_c, 12, 47, 127
2, 28130, Note_off_c, 8, 68, 127
2, 28133, Note_on_c, 11, 70, 127
2, 28133, Note_on_c, 1, 49, 127
2, 28308, Note_off_c, 1, 49, 127
2, 28308, Note_off_c, 11, 70, 127
2, 28311, Note_on_c, 12, 71, 127
2, 28311, Note_on_c, 2, 50, 127
2, 28486, Note_off_c, 2, 50, 127
2, 28486, Note_off_c, 12, 71, 127
2, 28489, Note_on_c, 1, 73, 127
2, 28489, Note_on_c, 4, 52, 127
2, 28664, Note_off_c, 1, 73, 127
2, 28666, Note_on_c, 11, 70, 127
2, 28841, Note_off_c, 11, 70, 127
2, 28844, Note_on_c, 12, 71, 127
2, 29015, Note_off_c, 4, 52, 127
2, 29019, Note_off_c, 12, 71, 127
2, 29023, Note_on_c, 6, 66, 127
2, 29023, Note_on_c, 2, 50, 127
2, 29198, Note_off_c, 2, 50, 127
2, 29198, Note_off_c, 6, 66, 127
2, 29201, Note_on_c, 8, 68, 127
2, 29201, Note_on_c, 4, 52, 127
2, 29376, Note_off_c, 4, 52, 127
2, 29376, Note_off_c, 8, 68, 127
2, 29378, Note_on_c, 11, 70, 127
2, 29378, Note_on_c, 6, 54, 127
2, 29553, Note_off_c, 6, 54, 127
2, 29553, Note_off_c, 11, 70, 127
2, 29556, Note_on_c, 12, 71, 127
2, 29556, Note_on_c, 7, 55, 127
2, 29731, Note_off_c, 7, 55, 127
2, 29734, Note_on_c, 4, 52, 127
2, 29909, Note_off_c, 4, 52, 127
2, 29912, Note_on_c, 7, 55, 127
2, 30024, Note_on_c, 6, 54, 127
2, 30049, Note_off_c, 7, 55, 127
2, 30090, Note_on_c, 11, 70, 127
2, 30097, Note_on_c, 7, 55, 127
2, 30103, Note_off_c, 12, 71, 127
2, 30110, Note_off_c, 6, 54, 127
2, 30171, Note_on_c, 6, 54, 127
2, 30183, Note_off_c, 7, 55, 127
2, 30247, Note_on_c, 7, 55, 127
2, 30257, Note_off_c, 6, 54, 127
2, 30265, Note_off_c, 11, 70, 127
2, 30267, Note_on_c, 12, 71, 127
2, 30322, Note_on_c, 6, 54, 127
2, 30333, Note_off_c, 7, 55, 127
2, 30398, Note_on_c, 7, 55, 127
2, 30408, Note_off_c, 6, 54, 127
2, 30442, Note_off_c, 12, 71, 127
2, 30445, Note_on_c, 1, 73, 127
2, 30471, Note_on_c, 6, 54, 127
2, 30484, Note_off_c, 7, 55, 127
2, 30545, Note_on_c, 7, 55, 127
2, 30557, Note_off_c, 6, 54, 127
2, 30620, Note_off_c, 1, 73, 127
2, 30620, Note_on_c, 6, 54, 127
2, 30624, Note_on_c, 2, 74, 127
2, 30631, Note_off_c, 7, 55, 127
2, 30696, Note_on_c, 7, 55, 127
2, 30706, Note_off_c, 6, 54, 127
2, 30771, Note_on_c, 6, 54, 127
2, 30782, Note_off_c, 7, 55, 127
2, 30799, Note_off_c, 2, 74, 127
2, 30802, Note_on_c, 12, 71, 127
2, 30845, Note_on_c, 7, 55, 127
2, 30857, Note_off_c, 6, 54, 127
2, 30921, Note_on_c, 6, 54, 127
2, 30931, Note_off_c, 7, 55, 127
2, 30977, Note_off_c, 12, 71, 127
2, 30979, Note_on_c, 1, 73, 127
2, 30994, Note_on_c, 7, 55, 127
2, 31007, Note_off_c, 6, 54, 127
2, 31068, Note_on_c, 6, 54, 127
2, 31080, Note_off_c, 7, 55, 127
2, 31143, Note_on_c, 7, 55, 127
2, 31154, Note_off_c, 6, 54, 127
2, 31154, Note_off_c, 1, 73, 127
2, 31157, Note_on_c, 12, 71, 127
2, 31219, Note_on_c, 6, 54, 127
2, 31229, Note_off_c, 7, 55, 127
2, 31294, Note_on_c, 7, 55, 127
2, 31305, Note_off_c, 6, 54, 127
2, 31332, Note_off_c, 12, 71, 127
2, 31334, Note_on_c, 11, 70, 127
2, 31368, Note_on_c, 6, 54, 127
2, 31380, Note_off_c, 7, 55, 127
2, 31442, Note_on_c, 7, 55, 127
2, 31454, Note_off_c, 6, 54, 127
2, 31509, Note_off_c, 11, 70, 127
2, 31513, Note_on_c, 8, 68, 127
2, 31518, Note_on_c, 6, 54, 127
2, 31528, Note_off_c, 7, 55, 127
2, 31593, Note_on_c, 7, 55, 127
2, 31604, Note_off_c, 6, 54, 127
2, 31666, Note_on_c, 6, 54, 127
2, 31679, Note_off_c, 7, 55, 127
2, 31688, Note_off_c, 8, 68, 127
2, 31691, Note_on_c, 6, 66, 127
2, 31742, Note_on_c, 7, 55, 127
2, 31752, Note_off_c, 6, 54, 127
2, 31816, Note_on_c, 6, 54, 127
2, 31828, Note_off_c, 7, 55, 127
2, 31866, Note_off_c, 6, 66, 127
2, 31868, Note_on_c, 4, 64, 127
2, 31893, Note_on_c, 7, 55, 127
2, 31902, Note_off_c, 6, 54, 127
2, 31966, Note_on_c, 6, 54, 127
2, 31979, Note_off_c, 7, 55, 127
2, 32040, Note_on_c, 7, 55, 127
2, 32043, Note_off_c, 4, 64, 127
2, 32046, Note_on_c, 2, 62, 127
2, 32052, Note_off_c, 6, 54, 127
2, 32115, Note_on_c, 6, 54, 127
2, 32126, Note_off_c, 7, 55, 127
2, 32189, Note_on_c, 7, 55, 127
2, 32201, Note_off_c, 6, 54, 127
2, 32221, Note_off_c, 2, 62, 127
2, 32224, Note_on_c, 6, 66, 127
2, 32265, Note_on_c, 6, 54, 127
2, 32275, Note_off_c, 7, 55, 127
2, 32340, Note_on_c, 7, 55, 127
2, 32351, Note_off_c, 6, 54, 127
2, 32399, Note_off_c, 6, 66, 127
2, 32403, Note_on_c, 8, 68, 127
2, 32415, Note_on_c, 6, 54, 127
2, 32426, Note_off_c, 7, 55, 127
2, 32489, Note_on_c, 7, 55, 127
2, 32501, Note_off_c, 6, 54, 127
2, 32563, Note_on_c, 6, 54, 127
2, 32575, Note_off_c, 7, 55, 127
2, 32578, Note_off_c, 8, 68, 127
2, 32580, Note_on_c, 11, 70, 127
2, 32637, Note_on_c, 7, 55, 127
2, 32649, Note_off_c, 6, 54, 127
2, 32713, Note_on_c, 6, 54, 127
2, 32723, Note_off_c, 7, 55, 127
2, 32755, Note_off_c, 11, 70, 127
2, 32757, Note_on_c, 12, 71, 127
2, 32790, Note_on_c, 7, 55, 127
2, 32799, Note_off_c, 6, 54, 127
2, 32863, Note_on_c, 6, 54, 127
2, 32876, Note_off_c, 7, 55, 127
2, 32932, Note_off_c, 12, 71, 127
2, 32935, Note_on_c, 8, 68, 127
2, 32937, Note_on_c, 7, 55, 127
2, 32949, Note_off_c, 6, 54, 127
2, 33011, Note_on_c, 6, 54, 127
2, 33023, Note_off_c, 7, 55, 127
2, 33088, Note_on_c, 7, 55, 127
2, 33097, Note_off_c, 6, 54, 127
2, 33110, Note_off_c, 8, 68, 127
2, 33113, Note_on_c, 11, 70, 127
2, 33161, Note_on_c, 6, 54, 127
2, 33174, Note_off_c, 7, 55, 127
2, 33235, Note_on_c, 7, 55, 127
2, 33247, Note_off_c, 6, 54, 127
2, 33288, Note_off_c, 11, 70, 127
2, 33292, Note_on_c, 8, 68, 127
2, 33310, Note_on_c, 6, 54, 127
2, 33321, Note_off_c, 7, 55, 127
2, 33386, Note_on_c, 7, 55, 127
2, 33396, Note_off_c, 6, 54, 127
2, 33462, Note_on_c, 6, 54, 127
2, 33467, Note_off_c, 8, 68, 127
2, 33469, Note_on_c, 6, 66, 127
2, 33472, Note_off_c, 7, 55, 127
2, 33535, Note_on_c, 7, 55, 127
2, 33548, Note_off_c, 6, 54, 127
2, 33610, Note_on_c, 6, 54, 127
2, 33621, Note_off_c, 7, 55, 127
2, 33644, Note_off_c, 6, 66, 127
2, 33647, Note_on_c, 4, 64, 127
2, 33684, Note_on_c, 7, 55, 127
2, 33696, Note_off_c, 6, 54, 127
2, 33758, Note_on_c, 6, 54, 127
2, 33770, Note_off_c, 7, 55, 127
2, 33822, Note_off_c, 4, 64, 127
2, 33825, Note_on_c, 2, 62, 127
2, 33835, Note_on_c, 7, 55, 127
2, 33844, Note_off_c, 6, 54, 127
2, 33910, Note_on_c, 6, 54, 127
2, 33921, Note_off_c, 7, 55, 127
2, 33985, Note_on_c, 7, 55, 127
2, 33996, Note_off_c, 6, 54, 127
2, 34000, Note_off_c, 2, 62, 127
2, 34003, Note_on_c, 1, 61, 127
2, 34058, Note_on_c, 6, 54, 127
2, 34071, Note_off_c, 7, 55, 127
2, 34178, Note_off_c, 1, 61, 127
2, 34181, Note_on_c, 1, 61, 127
2, 34293, Note_on_c, 12, 59, 127
2, 34316, Note_off_c, 6, 54, 127
2, 34320, Note_off_c, 1, 61, 127
2, 34358, Note_on_c, 3, 51, 127
2, 34364, Note_on_c, 1, 61, 127
2, 34379, Note_off_c, 12, 59, 127
2, 34434, Note_on_c, 12, 59, 127
2, 34450, Note_off_c, 1, 61, 127
2, 34507, Note_on_c, 1, 61, 127
2, 34520, Note_off_c, 12, 59, 127
2, 34533, Note_off_c, 3, 51, 127
2, 34536, Note_on_c, 4, 52, 127
2, 34577, Note_on_c, 12, 59, 127
2, 34593, Note_off_c, 1, 61, 127
2, 34647, Note_on_c, 1, 61, 127
2, 34663, Note_off_c, 12, 59, 127
2, 34711, Note_off_c, 4, 52, 127
2, 34714, Note_on_c, 6, 54, 127
2, 34718, Note_on_c, 12, 59, 127
2, 34733, Note_off_c, 1, 61, 127
2, 34788, Note_on_c, 1, 61, 127
2, 34804, Note_off_c, 12, 59, 127
2, 34859, Note_on_c, 12, 59, 127
2, 34874, Note_off_c, 1, 61, 127
2, 34889, Note_off_c, 6, 54, 127
2, 34892, Note_on_c, 7, 55, 127
2, 34931, Note_on_c, 1, 61, 127
2, 34945, Note_off_c, 12, 59, 127
2, 35001, Note_on_c, 12, 59, 127
2, 35017, Note_off_c, 1, 61, 127
2, 35067, Note_off_c, 7, 55, 127
2, 35070, Note_on_c, 4, 52, 127
2, 35072, Note_on_c, 1, 61, 127
2, 35087, Note_off_c, 12, 59, 127
2, 35142, Note_on_c, 12, 59, 127
2, 35158, Note_off_c, 1, 61, 127
2, 35213, Note_on_c, 1, 61, 127
2, 35228, Note_off_c, 12, 59, 127
2, 35245, Note_off_c, 4, 52, 127
2, 35248, Note_on_c, 6, 54, 127
2, 35283, Note_on_c, 12, 59, 127
2, 35299, Note_off_c, 1, 61, 127
2, 35353, Note_on_c, 1, 61, 127
2, 35369, Note_off_c, 12, 59, 127
2, 35423, Note_off_c, 6, 54, 127
2, 35424, Note_on_c, 12, 59, 127
2, 35426, Note_on_c, 4, 52, 127
2, 35439, Note_off_c, 1, 61, 127
2, 35496, Note_on_c, 1, 61, 127
2, 35510, Note_off_c, 12, 59, 127
2, 35567, Note_on_c, 12, 59, 127
2, 35582, Note_off_c, 1, 61, 127
2, 35601, Note_off_c, 4, 52, 127
2, 35604, Note_on_c, 3, 51, 127
2, 35637, Note_on_c, 1, 61, 127
2, 35653, Note_off_c, 12, 59, 127
2, 35707, Note_on_c, 12, 59, 127
2, 35723, Note_off_c, 1, 61, 127
2, 35775, Note_on_c, 1, 61, 127
2, 35779, Note_off_c, 3, 51, 127
2, 35781, Note_on_c, 1, 49, 127
2, 35793, Note_off_c, 12, 59, 127
2, 35846, Note_on_c, 12, 59, 127
2, 35861, Note_off_c, 1, 61, 127
2, 35919, Note_on_c, 1, 61, 127
2, 35932, Note_off_c, 12, 59, 127
2, 35956, Note_off_c, 1, 49, 127
2, 35959, Note_on_c, 12, 47, 127
2, 35989, Note_on_c, 12, 59, 127
2, 36005, Note_off_c, 1, 61, 127
2, 36059, Note_on_c, 1, 61, 127
2, 36075, Note_off_c, 12, 59, 127
2, 36130, Note_on_c, 12, 59, 127
2, 36134, Note_off_c, 12, 47, 127
2, 36137, Note_on_c, 10, 45, 127
2, 36145, Note_off_c, 1, 61, 127
2, 36200, Note_on_c, 1, 61, 127
2, 36216, Note_off_c, 12, 59, 127
2, 36270, Note_on_c, 12, 59, 127
2, 36286, Note_off_c, 1, 61, 127
2, 36312, Note_off_c, 10, 45, 127
2, 36315, Note_on_c, 7, 43, 127
2, 36341, Note_on_c, 1, 61, 127
2, 36356, Note_off_c, 12, 59, 127
2, 36412, Note_on_c, 12, 59, 127
2, 36427, Note_off_c, 1, 61, 127
2, 36483, Note_on_c, 1, 61, 127
2, 36490, Note_off_c, 7, 43, 127
2, 36493, Note_on_c, 12, 47, 127
2, 36498, Note_off_c, 12, 59, 127
2, 36554, Note_on_c, 12, 59, 127
2, 36569, Note_off_c, 1, 61, 127
2, 36625, Note_on_c, 1, 61, 127
2, 36640, Note_off_c, 12, 59, 127
2, 36668, Note_off_c, 12, 47, 127
2, 36670, Note_on_c, 1, 49, 127
2, 36695, Note_on_c, 12, 59, 127
2, 36711, Note_off_c, 1, 61, 127
2, 36765, Note_on_c, 1, 61, 127
2, 36781, Note_off_c, 12, 59, 127
2, 36835, Note_on_c, 12, 59, 127
2, 36845, Note_off_c, 1, 49, 127
2, 36849, Note_on_c, 3, 51, 127
2, 36851, Note_off_c, 1, 61, 127
2, 36908, Note_on_c, 1, 61, 127
2, 36921, Note_off_c, 12, 59, 127
2, 36978, Note_on_c, 12, 59, 127
2, 36994, Note_off_c, 1, 61, 127
2, 37024, Note_off_c, 3, 51, 127
2, 37027, Note_on_c, 4, 52, 127
2, 37049, Note_on_c, 1, 61, 127
2, 37064, Note_off_c, 12, 59, 127
2, 37120, Note_on_c, 12, 59, 127
2, 37135, Note_off_c, 1, 61, 127
2, 37189, Note_on_c, 1, 61, 127
2, 37202, Note_off_c, 4, 52, 127
2, 37204, Note_on_c, 1, 49, 127
2, 37206, Note_off_c, 12, 59, 127
2, 37258, Note_on_c, 12, 59, 127
2, 37275, Note_off_c, 1, 61, 127
2, 37329, Note_on_c, 1, 61, 127
2, 37344, Note_off_c, 12, 59, 127
2, 37379, Note_off_c, 1, 49, 127
2, 37382, Note_on_c, 3, 51, 127
2, 37399, Note_on_c, 12, 59, 127
2, 37415, Note_off_c, 1, 61, 127
2, 37471, Note_on_c, 1, 61, 127
2, 37485, Note_off_c, 12, 59, 127
2, 37541, Note_on_c, 12, 59, 127
2, 37557, Note_off_c, 1, 61, 127
2, 37557, Note_off_c, 3, 51, 127
2, 37559, Note_on_c, 1, 49, 127
2, 37612, Note_on_c, 1, 61, 127
2, 37627, Note_off_c, 12, 59, 127
2, 37682, Note_on_c, 12, 59, 127
2, 37698, Note_off_c, 1, 61, 127
2, 37734, Note_off_c, 1, 49, 127
2, 37738, Note_on_c, 12, 47, 127
2, 37753, Note_on_c, 1, 61, 127
2, 37768, Note_off_c, 12, 59, 127
2, 37824, Note_on_c, 12, 59, 127
2, 37839, Note_off_c, 1, 61, 127
2, 37895, Note_on_c, 1, 61, 127
2, 37910, Note_off_c, 12, 59, 127
2, 37913, Note_off_c, 12, 47, 127
2, 37916, Note_on_c, 10, 45, 127
2, 37965, Note_on_c, 12, 59, 127
2, 37981, Note_off_c, 1, 61, 127
2, 38036, Note_on_c, 1, 61, 127
2, 38051, Note_off_c, 12, 59, 127
2, 38091, Note_off_c, 10, 45, 127
2, 38094, Note_on_c, 7, 43, 127
2, 38109, Note_on_c, 12, 59, 127
2, 38122, Note_off_c, 1, 61, 127
2, 38182, Note_on_c, 1, 61, 127
2, 38195, Note_off_c, 12, 59, 127
2, 38260, Note_on_c, 12, 59, 127
2, 38268, Note_off_c, 1, 61, 127
2, 38269, Note_off_c, 7, 43, 127
2, 38271, Note_on_c, 6, 42, 127
2, 38324, Note_on_c, 1, 61, 127
2, 38346, Note_off_c, 12, 59, 127
2, 38400, Note_on_c, 12, 59, 127
2, 38410, Note_off_c, 1, 61, 127
2, 38446, Note_off_c, 6, 42, 127
2, 38449, Note_on_c, 4, 40, 127
2, 38594, Note_off_c, 12, 59, 127
2, 38624, Note_off_c, 4, 40, 127
2, 38628, Note_on_c, 2, 50, 127
2, 38803, Note_off_c, 2, 50, 127
2, 38805, Note_on_c, 4, 64, 127
2, 38805, Note_on_c, 1, 49, 127
2, 38891, Note_off_c, 4, 64, 127
2, 38894, Note_on_c, 2, 62, 127
2, 38980, Note_off_c, 2, 62, 127
2, 38980, Note_off_c, 1, 49, 127
2, 38983, Note_on_c, 4, 64, 127
2, 38983, Note_on_c, 12, 47, 127
2, 39158, Note_off_c, 12, 47, 127
2, 39160, Note_on_c, 11, 46, 127
2, 39335, Note_off_c, 11, 46, 127
2, 39338, Note_on_c, 1, 49, 127
2, 39513, Note_off_c, 1, 49, 127
2, 39517, Note_on_c, 6, 42, 127
2, 39690, Note_off_c, 4, 64, 127
2, 39695, Note_on_c, 6, 66, 127
2, 39830, Note_off_c, 6, 42, 127
2, 39870, Note_off_c, 6, 66, 127
2, 39872, Note_on_c, 4, 64, 127
2, 39872, Note_on_c, 7, 55, 127
2, 39958, Note_off_c, 7, 55, 127
2, 39961, Note_on_c, 6, 54, 127
2, 40047, Note_off_c, 6, 54, 127
2, 40047, Note_off_c, 4, 64, 127
2, 40050, Note_on_c, 2, 62, 127
2, 40050, Note_on_c, 7, 55, 127
2, 40225, Note_off_c, 2, 62, 127
2, 40229, Note_on_c, 1, 61, 127
2, 40404, Note_off_c, 1, 61, 127
2, 40406, Note_on_c, 4, 64, 127
2, 40581, Note_off_c, 4, 64, 127
2, 40584, Note_on_c, 11, 58, 127
2, 40757, Note_off_c, 7, 55, 127
2, 40761, Note_on_c, 6, 54, 127
2, 40861, Note_off_c, 11, 58, 127
2, 40936, Note_off_c, 6, 54, 127
2, 40939, Note_on_c, 1, 73, 127
2, 40939, Note_on_c, 4, 52, 127
2, 41025, Note_off_c, 1, 73, 127
2, 41028, Note_on_c, 12, 71, 127
2, 41114, Note_off_c, 12, 71, 127
2, 41114, Note_off_c, 4, 52, 127
2, 41118, Note_on_c, 1, 73, 127
2, 41118, Note_on_c, 2, 50, 127
2, 41293, Note_off_c, 2, 50, 127
2, 41296, Note_on_c, 1, 49, 127
2, 41471, Note_off_c, 1, 49, 127
2, 41473, Note_on_c, 4, 52, 127
2, 41648, Note_off_c, 4, 52, 127
2, 41650, Note_on_c, 11, 46, 127
2, 41825, Note_off_c, 1, 73, 127
2, 41829, Note_on_c, 2, 74, 127
2, 41963, Note_off_c, 11, 46, 127
2, 42004, Note_off_c, 2, 74, 127
2, 42007, Note_on_c, 1, 73, 127
2, 42007, Note_on_c, 4, 64, 127
2, 42093, Note_off_c, 4, 64, 127
2, 42096, Note_on_c, 2, 62, 127
2, 42182, Note_off_c, 2, 62, 127
2, 42182, Note_off_c, 1, 73, 127
2, 42185, Note_on_c, 12, 71, 127
2, 42185, Note_on_c, 4, 64, 127
2, 42360, Note_off_c, 12, 71, 127
2, 42362, Note_on_c, 11, 70, 127
2, 42537, Note_off_c, 11, 70, 127
2, 42540, Note_on_c, 1, 73, 127
2, 42715, Note_off_c, 1, 73, 127
2, 42718, Note_on_c, 6, 66, 127
2, 42892, Note_off_c, 4, 64, 127
2, 42897, Note_on_c, 2, 62, 127
2, 42995, Note_off_c, 6, 66, 127
2, 43072, Note_off_c, 2, 62, 127
2, 43074, Note_on_c, 7, 79, 127
2, 43074, Note_on_c, 1, 61, 127
2, 43160, Note_off_c, 7, 79, 127
2, 43163, Note_on_c, 6, 78, 127
2, 43249, Note_off_c, 6, 78, 127
2, 43249, Note_off_c, 1, 61, 127
2, 43251, Note_on_c, 7, 79, 127
2, 43251, Note_on_c, 12, 59, 127
2, 43426, Note_off_c, 12, 59, 127
2, 43430, Note_on_c, 11, 58, 127
2, 43605, Note_off_c, 11, 58, 127
2, 43607, Note_on_c, 1, 61, 127
2, 43782, Note_off_c, 1, 61, 127
2, 43786, Note_on_c, 6, 54, 127
2, 43958, Note_off_c, 7, 79, 127
2, 43963, Note_on_c, 6, 78, 127
2, 44138, Note_off_c, 6, 78, 127
2, 44138, Note_off_c, 6, 54, 127
2, 44141, Note_on_c, 4, 76, 127
2, 44141, Note_on_c, 8, 56, 127
2, 44316, Note_off_c, 4, 76, 127
2, 44319, Note_on_c, 2, 74, 127
2, 44493, Note_off_c, 8, 56, 127
2, 44494, Note_off_c, 2, 74, 127
2, 44497, Note_on_c, 1, 73, 127
2, 44497, Note_on_c, 11, 58, 127
2, 44672, Note_off_c, 1, 73, 127
2, 44675, Note_on_c, 4, 76, 127
2, 44849, Note_off_c, 11, 58, 127
2, 44850, Note_off_c, 4, 76, 127
2, 44852, Note_on_c, 2, 74, 127
2, 44852, Note_on_c, 12, 59, 127
2, 44938, Note_off_c, 2, 74, 127
2, 44941, Note_on_c, 1, 73, 127
2, 45027, Note_off_c, 1, 73, 127
2, 45027, Note_off_c, 12, 59, 127
2, 45031, Note_on_c, 12, 71, 127
2, 45031, Note_on_c, 11, 58, 127
2, 45117, Note_off_c, 12, 71, 127
2, 45120, Note_on_c, 1, 73, 127
2, 45206, Note_off_c, 1, 73, 127
2, 45206, Note_off_c, 11, 58, 127
2, 45208, Note_on_c, 2, 74, 127
2, 45208, Note_on_c, 12, 59, 127
2, 45383, Note_off_c, 12, 59, 127
2, 45386, Note_on_c, 1, 61, 127
2, 45561, Note_off_c, 1, 61, 127
2, 45564, Note_on_c, 2, 62, 127
2, 45739, Note_off_c, 2, 62, 127
2, 45742, Note_on_c, 12, 59, 127
2, 45917, Note_off_c, 12, 59, 127
2, 45920, Note_on_c, 5, 53, 127
2, 46095, Note_off_c, 5, 53, 127
2, 46095, Note_off_c, 2, 74, 127
2, 46097, Note_on_c, 1, 73, 127
2, 46097, Note_on_c, 6, 54, 127
2, 46272, Note_off_c, 6, 54, 127
2, 46272, Note_off_c, 1, 73, 127
2, 46275, Note_on_c, 12, 71, 127
2, 46275, Note_on_c, 8, 56, 127
2, 46450, Note_off_c, 8, 56, 127
2, 46450, Note_off_c, 12, 71, 127
2, 46453, Note_on_c, 10, 69, 127
2, 46453, Note_on_c, 10, 57, 127
2, 46628, Note_off_c, 10, 57, 127
2, 46628, Note_off_c, 10, 69, 127
2, 46632, Note_on_c, 8, 68, 127
2, 46632, Note_on_c, 12, 59, 127
2, 46807, Note_off_c, 12, 59, 127
2, 46807, Note_off_c, 8, 68, 127
2, 46809, Note_on_c, 12, 71, 127
2, 46809, Note_on_c, 8, 56, 127
2, 46984, Note_off_c, 8, 56, 127
2, 46984, Note_off_c, 12, 71, 127
2, 46987, Note_on_c, 5, 65, 127
2, 46987, Note_on_c, 1, 49, 127
2, 47162, Note_off_c, 5, 65, 127
2, 47164, Note_on_c, 2, 74, 127
2, 47339, Note_off_c, 2, 74, 127
2, 47339, Note_off_c, 1, 49, 127
2, 47343, Note_on_c, 1, 73, 127
2, 47343, Note_on_c, 5, 53, 127
2, 47518, Note_off_c, 1, 73, 127
2, 47521, Note_on_c, 12, 71, 127
2, 47695, Note_off_c, 5, 53, 127
2, 47696, Note_off_c, 12, 71, 127
2, 47698, Note_on_c, 11, 70, 127
2, 47698, Note_on_c, 6, 54, 127
2, 47873, Note_off_c, 11, 70, 127
2, 47876, Note_on_c, 1, 73, 127
2, 48050, Note_off_c, 6, 54, 127
2, 48051, Note_off_c, 1, 73, 127
2, 48053, Note_on_c, 4, 76, 127
2, 48053, Note_on_c, 7, 55, 127
2, 48228, Note_off_c, 4, 76, 127
2, 48232, Note_on_c, 7, 79, 127
2, 48405, Note_off_c, 7, 55, 127
2, 48407, Note_off_c, 7, 79, 127
2, 48410, Note_on_c, 6, 78, 127
2, 48410, Note_on_c, 11, 46, 127
2, 48585, Note_off_c, 6, 78, 127
2, 48588, Note_on_c, 4, 76, 127
2, 48762, Note_off_c, 11, 46, 127
2, 48763, Note_off_c, 4, 76, 127
2, 48765, Note_on_c, 2, 74, 127
2, 48765, Note_on_c, 12, 47, 127
2, 48940, Note_off_c, 2, 74, 127
2, 48943, Note_on_c, 6, 78, 127
2, 49117, Note_off_c, 12, 47, 127
2, 49118, Note_off_c, 6, 78, 127
2, 49122, Note_on_c, 12, 71, 127
2, 49122, Note_on_c, 7, 43, 127
2, 49454, Note_off_c, 12, 71, 127
2, 49474, Note_off_c, 7, 43, 127
2, 49477, Note_on_c, 1, 73, 127
2, 49477, Note_on_c, 4, 40, 127
2, 49809, Note_off_c, 1, 73, 127
2, 49829, Note_off_c, 4, 40, 127
2, 49833, Note_on_c, 12, 71, 127
2, 49833, Note_on_c, 6, 42, 127
2, 49919, Note_off_c, 12, 71, 127
2, 49922, Note_on_c, 11, 70, 127
2, 50008, Note_off_c, 11, 70, 127
2, 50011, Note_on_c, 8, 68, 127
2, 50097, Note_off_c, 8, 68, 127
2, 50100, Note_on_c, 11, 70, 127
2, 50185, Note_off_c, 6, 42, 127
2, 50186, Note_off_c, 11, 70, 127
2, 50189, Note_on_c, 12, 71, 127
2, 50189, Note_on_c, 12, 47, 127
2, 51253, Note_off_c, 12, 47, 127
2, 51253, Note_off_c, 12, 71, 127
2, 51255, Note_on_c, 6, 78, 127
2, 51433, Note_on_c, 12, 59, 127
2, 51608, Note_off_c, 12, 59, 127
2, 51612, Note_on_c, 10, 57, 127
2, 51787, Note_off_c, 10, 57, 127
2, 51790, Note_on_c, 7, 55, 127
2, 51965, Note_off_c, 7, 55, 127
2, 51967, Note_on_c, 6, 54, 127
2, 52142, Note_off_c, 6, 54, 127
2, 52144, Note_on_c, 10, 57, 127
2, 52319, Note_off_c, 10, 57, 127
2, 52323, Note_on_c, 7, 55, 127
2, 52498, Note_off_c, 7, 55, 127
2, 52501, Note_on_c, 12, 59, 127
2, 52674, Note_off_c, 6, 78, 127
2, 52676, Note_off_c, 12, 59, 127
2, 52679, Note_on_c, 4, 76, 127
2, 52679, Note_on_c, 1, 61, 127
2, 52854, Note_off_c, 1, 61, 127
2, 52854, Note_off_c, 4, 76, 127
2, 52856, Note_on_c, 6, 78, 127
2, 52856, Note_on_c, 3, 63, 127
2, 53031, Note_off_c, 3, 63, 127
2, 53031, Note_off_c, 6, 78, 127
2, 53034, Note_on_c, 7, 79, 127
2, 53034, Note_on_c, 4, 64, 127
2, 53209, Note_off_c, 4, 64, 127
2, 53212, Note_on_c, 10, 57, 127
2, 53356, Note_off_c, 7, 79, 127
2, 53387, Note_off_c, 10, 57, 127
2, 53391, Note_on_c, 6, 78, 127
2, 53391, Note_on_c, 2, 62, 127
2, 53566, Note_off_c, 2, 62, 127
2, 53568, Note_on_c, 7, 55, 127
2, 53743, Note_off_c, 7, 55, 127
2, 53743, Note_off_c, 6, 78, 127
2, 53745, Note_on_c, 4, 76, 127
2, 53745, Note_on_c, 10, 57, 127
2, 53831, Note_off_c, 4, 76, 127
2, 53834, Note_on_c, 6, 78, 127
2, 53920, Note_off_c, 6, 78, 127
2, 53920, Note_off_c, 10, 57, 127
2, 53924, Note_on_c, 4, 76, 127
2, 53924, Note_on_c, 12, 59, 127
2, 54099, Note_off_c, 12, 59, 127
2, 54099, Note_off_c, 4, 76, 127
2, 54101, Note_on_c, 10, 69, 127
2, 54101, Note_on_c, 0, 60, 127
2, 54276, Note_off_c, 0, 60, 127
2, 54280, Note_on_c, 6, 54, 127
2, 54423, Note_off_c, 10, 69, 127
2, 54455, Note_off_c, 6, 54, 127
2, 54457, Note_on_c, 2, 74, 127
2, 54457, Note_on_c, 12, 59, 127
2, 54632, Note_off_c, 12, 59, 127
2, 54635, Note_on_c, 4, 52, 127
2, 54809, Note_off_c, 2, 74, 127
2, 54810, Note_off_c, 4, 52, 127
2, 54813, Note_on_c, 0, 72, 127
2, 54813, Note_on_c, 6, 54, 127
2, 54899, Note_off_c, 0, 72, 127
2, 54902, Note_on_c, 2, 74, 127
2, 54988, Note_off_c, 2, 74, 127
2, 54988, Note_off_c, 6, 54, 127
2, 54990, Note_on_c, 0, 72, 127
2, 54990, Note_on_c, 7, 55, 127
2, 55076, Note_off_c, 0, 72, 127
2, 55080, Note_on_c, 12, 71, 127
2, 55165, Note_off_c, 7, 55, 127
2, 55166, Note_off_c, 12, 71, 127
2, 55169, Note_on_c, 0, 72, 127
2, 55169, Note_on_c, 10, 57, 127
2, 55344, Note_off_c, 10, 57, 127
2, 55346, Note_on_c, 3, 51, 127
2, 55521, Note_off_c, 3, 51, 127
2, 55525, Note_on_c, 7, 55, 127
2, 55699, Note_off_c, 0, 72, 127
2, 55702, Note_on_c, 12, 71, 127
2, 55877, Note_off_c, 12, 71, 127
2, 55877, Note_off_c, 7, 55, 127
2, 55880, Note_on_c, 10, 69, 127
2, 55880, Note_on_c, 10, 57, 127
2, 56055, Note_off_c, 10, 69, 127
2, 56058, Note_on_c, 7, 67, 127
2, 56232, Note_off_c, 10, 57, 127
2, 56233, Note_off_c, 7, 67, 127
2, 56236, Note_on_c, 6, 66, 127
2, 56236, Note_on_c, 12, 59, 127
2, 56411, Note_off_c, 6, 66, 127
2, 56414, Note_on_c, 10, 69, 127
2, 56588, Note_off_c, 12, 59, 127
2, 56589, Note_off_c, 10, 69, 127
2, 56591, Note_on_c, 7, 67, 127
2, 56591, Note_on_c, 4, 52, 127
2, 56769, Note_on_c, 12, 71, 127
2, 56942, Note_off_c, 7, 67, 127
2, 56943, Note_off_c, 4, 52, 127
2, 56944, Note_off_c, 12, 71, 127
2, 56947, Note_on_c, 0, 72, 127
2, 56947, Note_on_c, 2, 50, 127
2, 57122, Note_off_c, 0, 72, 127
2, 57126, Note_on_c, 2, 74, 127
2, 57299, Note_off_c, 2, 50, 127
2, 57301, Note_off_c, 2, 74, 127
2, 57303, Note_on_c, 4, 76, 127
2, 57303, Note_on_c, 0, 48, 127
2, 57481, Note_on_c, 10, 69, 127
2, 57569, Note_off_c, 4, 76, 127
2, 57655, Note_off_c, 0, 48, 127
2, 57656, Note_off_c, 10, 69, 127
2, 57658, Note_on_c, 2, 74, 127
2, 57658, Note_on_c, 12, 47, 127
2, 57837, Note_on_c, 8, 68, 127
2, 58009, Note_off_c, 2, 74, 127
2, 58010, Note_off_c, 12, 47, 127
2, 58012, Note_off_c, 8, 68, 127
2, 58015, Note_on_c, 10, 69, 127
2, 58015, Note_on_c, 4, 40, 127
2, 58190, Note_off_c, 10, 69, 127
2, 58192, Note_on_c, 12, 71, 127
2, 58367, Note_off_c, 12, 71, 127
2, 58367, Note_off_c, 4, 40, 127
2, 58370, Note_on_c, 0, 72, 127
2, 58370, Note_on_c, 10, 45, 127
2, 58547, Note_on_c, 6, 66, 127
2, 58636, Note_off_c, 0, 72, 127
2, 58722, Note_off_c, 6, 66, 127
2, 58722, Note_off_c, 10, 45, 127
2, 58727, Note_on_c, 12, 71, 127
2, 58727, Note_on_c, 2, 38, 127
2, 58902, Note_off_c, 2, 38, 127
2, 58904, Note_on_c, 4, 64, 127
2, 58904, Note_on_c, 0, 36, 127
2, 59078, Note_off_c, 12, 71, 127
2, 59079, Note_off_c, 0, 36, 127
2, 59079, Note_off_c, 4, 64, 127
2, 59082, Note_on_c, 6, 66, 127
2, 59082, Note_on_c, 2, 38, 127
2, 59257, Note_off_c, 2, 38, 127
2, 59257, Note_off_c, 6, 66, 127
2, 59259, Note_on_c, 8, 68, 127
2, 59259, Note_on_c, 4, 40, 127
2, 59434, Note_off_c, 4, 40, 127
2, 59434, Note_off_c, 8, 68, 127
2, 59437, Note_on_c, 10, 69, 127
2, 59437, Note_on_c, 5, 41, 127
2, 59616, Note_on_c, 3, 63, 127
2, 59703, Note_off_c, 10, 69, 127
2, 59789, Note_off_c, 5, 41, 127
2, 59791, Note_off_c, 3, 63, 127
2, 59793, Note_on_c, 8, 68, 127
2, 59793, Note_on_c, 4, 40, 127
2, 59968, Note_off_c, 4, 40, 127
2, 59971, Note_on_c, 4, 52, 127
2, 60145, Note_off_c, 8, 68, 127
2, 60146, Note_off_c, 4, 52, 127
2, 60148, Note_on_c, 12, 71, 127
2, 60148, Note_on_c, 2, 50, 127
2, 60234, Note_off_c, 12, 71, 127
2, 60237, Note_on_c, 10, 69, 127
2, 60323, Note_off_c, 10, 69, 127
2, 60323, Note_off_c, 2, 50, 127
2, 60328, Note_on_c, 8, 68, 127
2, 60328, Note_on_c, 0, 48, 127
2, 60414, Note_off_c, 8, 68, 127
2, 60416, Note_on_c, 10, 69, 127
2, 60502, Note_off_c, 10, 69, 127
2, 60503, Note_off_c, 0, 48, 127
2, 60505, Note_on_c, 12, 71, 127
2, 60505, Note_on_c, 12, 47, 127
2, 60683, Note_on_c, 2, 50, 127
2, 60685, Note_off_c, 12, 47, 127
2, 60848, Note_off_c, 12, 71, 127
2, 60858, Note_off_c, 2, 50, 127
2, 60860, Note_on_c, 4, 64, 127
2, 60860, Note_on_c, 0, 48, 127
2, 61037, Note_on_c, 4, 76, 127
2, 61211, Note_off_c, 4, 64, 127
2, 61212, Note_off_c, 4, 76, 127
2, 61212, Note_off_c, 0, 48, 127
2, 61217, Note_on_c, 2, 74, 127
2, 61217, Note_on_c, 4, 52, 127
2, 61303, Note_off_c, 4, 52, 127
2, 61306, Note_on_c, 2, 50, 127
2, 61392, Note_off_c, 2, 50, 127
2, 61392, Note_off_c, 2, 74, 127
2, 61394, Note_on_c, 0, 72, 127
2, 61394, Note_on_c, 0, 48, 127
2, 61480, Note_off_c, 0, 48, 127
2, 61483, Note_on_c, 2, 50, 127
2, 61569, Note_off_c, 2, 50, 127
2, 61569, Note_off_c, 0, 72, 127
2, 61572, Note_on_c, 12, 71, 127
2, 61572, Note_on_c, 4, 52, 127
2, 61747, Note_off_c, 12, 71, 127
2, 61749, Note_on_c, 2, 74, 127
2, 61924, Note_off_c, 4, 52, 127
2, 61928, Note_on_c, 0, 72, 127
2, 61928, Note_on_c, 10, 45, 127
2, 61939, Note_off_c, 2, 74, 127
2, 62103, Note_off_c, 10, 45, 127
2, 62106, Note_on_c, 10, 57, 127
2, 62280, Note_off_c, 0, 72, 127
2, 62281, Note_off_c, 10, 57, 127
2, 62284, Note_on_c, 4, 76, 127
2, 62284, Note_on_c, 7, 55, 127
2, 62370, Note_off_c, 4, 76, 127
2, 62372, Note_on_c, 2, 74, 127
2, 62458, Note_off_c, 2, 74, 127
2, 62459, Note_off_c, 7, 55, 127
2, 62461, Note_on_c, 0, 72, 127
2, 62461, Note_on_c, 5, 53, 127
2, 62547, Note_off_c, 0, 72, 127
2, 62550, Note_on_c, 2, 74, 127
2, 62636, Note_off_c, 2, 74, 127
2, 62636, Note_off_c, 5, 53, 127
2, 62638, Note_on_c, 4, 76, 127
2, 62638, Note_on_c, 4, 52, 127
2, 62813, Note_off_c, 4, 52, 127
2, 62817, Note_on_c, 7, 55, 127
2, 62990, Note_off_c, 4, 76, 127
2, 62995, Note_on_c, 10, 69, 127
2, 62995, Note_on_c, 5, 53, 127
2, 63000, Note_off_c, 7, 55, 127
2, 63173, Note_on_c, 10, 81, 127
2, 63346, Note_off_c, 10, 69, 127
2, 63347, Note_off_c, 5, 53, 127
2, 63348, Note_off_c, 10, 81, 127
2, 63350, Note_on_c, 7, 79, 127
2, 63350, Note_on_c, 7, 55, 127
2, 63525, Note_off_c, 7, 79, 127
2, 63529, Note_on_c, 5, 77, 127
2, 63702, Note_off_c, 7, 55, 127
2, 63704, Note_off_c, 5, 77, 127
2, 63706, Note_on_c, 4, 76, 127
2, 63706, Note_on_c, 10, 57, 127
2, 63881, Note_off_c, 4, 76, 127
2, 63884, Note_on_c, 7, 79, 127
2, 64058, Note_off_c, 10, 57, 127
2, 64059, Note_off_c, 7, 79, 127
2, 64062, Note_on_c, 5, 77, 127
2, 64062, Note_on_c, 2, 50, 127
2, 64237, Note_off_c, 2, 50, 127
2, 64239, Note_on_c, 2, 62, 127
2, 64414, Note_off_c, 2, 62, 127
2, 64414, Note_off_c, 5, 77, 127
2, 64418, Note_on_c, 10, 81, 127
2, 64418, Note_on_c, 0, 60, 127
2, 64504, Note_off_c, 10, 81, 127
2, 64507, Note_on_c, 7, 79, 127
2, 64593, Note_off_c, 7, 79, 127
2, 64593, Note_off_c, 0, 60, 127
2, 64595, Note_on_c, 5, 77, 127
2, 64595, Note_on_c, 12, 59, 127
2, 64681, Note_off_c, 5, 77, 127
2, 64685, Note_on_c, 7, 79, 127
2, 64770, Note_off_c, 12, 59, 127
2, 64771, Note_off_c, 7, 79, 127
2, 64774, Note_on_c, 10, 81, 127
2, 64774, Note_on_c, 10, 57, 127
2, 64949, Note_off_c, 10, 57, 127
2, 64951, Note_on_c, 0, 60, 127
2, 65126, Note_off_c, 0, 60, 127
2, 65130, Note_on_c, 12, 59, 127
2, 65304, Note_off_c, 10, 81, 127
2, 65307, Note_on_c, 2, 74, 127
2, 65482, Note_off_c, 2, 74, 127
2, 65482, Note_off_c, 12, 59, 127
2, 65484, Note_on_c, 0, 72, 127
2, 65484, Note_on_c, 0, 60, 127
2, 65659, Note_off_c, 0, 72, 127
2, 65663, Note_on_c, 12, 71, 127
2, 65836, Note_off_c, 0, 60, 127
2, 65838, Note_off_c, 12, 71, 127
2, 65840, Note_on_c, 10, 69, 127
2, 65840, Note_on_c, 2, 62, 127
2, 66015, Note_off_c, 10, 69, 127
2, 66019, Note_on_c, 0, 72, 127
2, 66194, Note_off_c, 0, 72, 127
2, 66196, Note_on_c, 12, 71, 127
2, 66320, Note_off_c, 2, 62, 127
2, 66374, Note_on_c, 7, 55, 127
2, 66548, Note_off_c, 12, 71, 127
2, 66549, Note_off_c, 7, 55, 127
2, 66552, Note_on_c, 0, 72, 127
2, 66552, Note_on_c, 5, 53, 127
2, 66727, Note_off_c, 5, 53, 127
2, 66731, Note_on_c, 4, 52, 127
2, 66904, Note_off_c, 0, 72, 127
2, 66906, Note_off_c, 4, 52, 127
2, 66908, Note_on_c, 2, 74, 127
2, 66908, Note_on_c, 2, 50, 127
2, 67083, Note_off_c, 2, 50, 127
2, 67085, Note_on_c, 5, 53, 127
2, 67260, Note_off_c, 5, 53, 127
2, 67263, Note_on_c, 7, 43, 127
2, 67438, Note_off_c, 7, 43, 127
2, 67438, Note_off_c, 2, 74, 127
2, 67441, Note_on_c, 7, 67, 127
2, 67441, Note_on_c, 5, 53, 127
2, 67616, Note_off_c, 5, 53, 127
2, 67616, Note_off_c, 7, 67, 127
2, 67620, Note_on_c, 0, 72, 127
2, 67620, Note_on_c, 4, 52, 127
2, 67795, Note_off_c, 4, 52, 127
2, 67795, Note_off_c, 0, 72, 127
2, 67797, Note_on_c, 2, 74, 127
2, 67797, Note_on_c, 2, 50, 127
2, 67972, Note_off_c, 2, 50, 127
2, 67972, Note_off_c, 2, 74, 127
2, 67975, Note_on_c, 4, 76, 127
2, 67975, Note_on_c, 0, 48, 127
2, 68150, Note_off_c, 0, 48, 127
2, 68152, Note_on_c, 4, 52, 127
2, 68327, Note_off_c, 4, 52, 127
2, 68331, Note_on_c, 7, 43, 127
2, 68505, Note_off_c, 4, 76, 127
2, 68506, Note_off_c, 7, 43, 127
2, 68509, Note_on_c, 0, 72, 127
2, 68509, Note_on_c, 4, 52, 127
2, 68684, Note_off_c, 4, 52, 127
2, 68684, Note_off_c, 0, 72, 127
2, 68686, Note_on_c, 2, 74, 127
2, 68686, Note_on_c, 2, 50, 127
2, 68861, Note_off_c, 2, 50, 127
2, 68861, Note_off_c, 2, 74, 127
2, 68864, Note_on_c, 4, 76, 127
2, 68864, Note_on_c, 0, 48, 127
2, 69039, Note_off_c, 0, 48, 127
2, 69039, Note_off_c, 4, 76, 127
2, 69041, Note_on_c, 5, 77, 127
2, 69041, Note_on_c, 12, 47, 127
2, 69216, Note_off_c, 12, 47, 127
2, 69221, Note_on_c, 2, 50, 127
2, 69396, Note_off_c, 2, 50, 127
2, 69398, Note_on_c, 7, 43, 127
2, 69571, Note_off_c, 5, 77, 127
2, 69576, Note_on_c, 7, 79, 127
2, 69750, Note_off_c, 7, 43, 127
2, 69751, Note_off_c, 7, 79, 127
2, 69753, Note_on_c, 5, 77, 127
2, 69753, Note_on_c, 10, 45, 127
2, 69928, Note_off_c, 5, 77, 127
2, 69932, Note_on_c, 4, 76, 127
2, 70105, Note_off_c, 10, 45, 127
2, 70107, Note_off_c, 4, 76, 127
2, 70110, Note_on_c, 2, 74, 127
2, 70110, Note_on_c, 12, 47, 127
2, 70287, Note_on_c, 5, 77, 127
2, 70311, Note_off_c, 2, 74, 127
2, 70462, Note_off_c, 5, 77, 127
2, 70462, Note_off_c, 12, 47, 127
2, 70465, Note_on_c, 4, 76, 127
2, 70465, Note_on_c, 0, 48, 127
2, 70640, Note_off_c, 0, 48, 127
2, 70642, Note_on_c, 4, 64, 127
2, 70642, Note_on_c, 2, 62, 127
2, 70816, Note_off_c, 4, 76, 127
2, 70817, Note_off_c, 2, 62, 127
2, 70817, Note_off_c, 4, 64, 127
2, 70822, Note_on_c, 6, 66, 127
2, 70822, Note_on_c, 0, 60, 127
2, 70997, Note_off_c, 0, 60, 127
2, 70997, Note_off_c, 6, 66, 127
2, 70999, Note_on_c, 8, 68, 127
2, 70999, Note_on_c, 12, 59, 127
2, 71174, Note_off_c, 12, 59, 127
2, 71174, Note_off_c, 8, 68, 127
2, 71177, Note_on_c, 10, 69, 127
2, 71177, Note_on_c, 10, 57, 127
2, 71352, Note_off_c, 10, 57, 127
2, 71352, Note_off_c, 10, 69, 127
2, 71354, Note_on_c, 6, 66, 127
2, 71354, Note_on_c, 0, 60, 127
2, 71529, Note_off_c, 0, 60, 127
2, 71529, Note_off_c, 6, 66, 127
2, 71532, Note_on_c, 2, 74, 127
2, 71532, Note_on_c, 12, 47, 127
2, 71707, Note_off_c, 12, 47, 127
2, 71711, Note_on_c, 6, 66, 127
2, 71711, Note_on_c, 0, 60, 127
2, 71883, Note_off_c, 2, 74, 127
2, 71886, Note_off_c, 0, 60, 127
2, 71886, Note_off_c, 6, 66, 127
2, 71888, Note_on_c, 8, 68, 127
2, 71888, Note_on_c, 12, 59, 127
2, 72063, Note_off_c, 12, 59, 127
2, 72063, Note_off_c, 8, 68, 127
2, 72066, Note_on_c, 10, 69, 127
2, 72066, Note_on_c, 10, 57, 127
2, 72241, Note_off_c, 10, 57, 127
2, 72241, Note_off_c, 10, 69, 127
2, 72243, Note_on_c, 12, 71, 127
2, 72243, Note_on_c, 8, 56, 127
2, 72418, Note_off_c, 8, 56, 127
2, 72418, Note_off_c, 12, 71, 127
2, 72422, Note_on_c, 8, 68, 127
2, 72422, Note_on_c, 12, 59, 127
2, 72597, Note_off_c, 12, 59, 127
2, 72597, Note_off_c, 8, 68, 127
2, 72600, Note_on_c, 0, 72, 127
2, 72600, Note_on_c, 10, 45, 127
2, 72775, Note_off_c, 10, 45, 127
2, 72777, Note_on_c, 8, 68, 127
2, 72777, Note_on_c, 12, 59, 127
2, 72866, Note_off_c, 0, 72, 127
2, 72952, Note_off_c, 12, 59, 127
2, 72952, Note_off_c, 8, 68, 127
2, 72955, Note_on_c, 10, 69, 127
2, 72955, Note_on_c, 10, 57, 127
2, 73130, Note_off_c, 10, 57, 127
2, 73130, Note_off_c, 10, 69, 127
2, 73132, Note_on_c, 12, 71, 127
2, 73132, Note_on_c, 8, 56, 127
2, 73307, Note_off_c, 8, 56, 127
2, 73307, Note_off_c, 12, 71, 127
2, 73311, Note_on_c, 0, 72, 127
2, 73311, Note_on_c, 6, 54, 127
2, 73486, Note_off_c, 6, 54, 127
2, 73486, Note_off_c, 0, 72, 127
2, 73496, Note_on_c, 10, 69, 127
2, 73496, Note_on_c, 10, 57, 127
2, 73671, Note_off_c, 10, 57, 127
2, 73671, Note_off_c, 10, 69, 127
2, 73683, Note_on_c, 3, 51, 127
2, 73683, Note_on_c, 0, 72, 127
2, 73858, Note_off_c, 0, 72, 127
2, 73860, Note_on_c, 12, 71, 127
2, 74035, Note_off_c, 12, 71, 127
2, 74035, Note_off_c, 3, 51, 127
2, 74039, Note_on_c, 4, 52, 127
2, 74039, Note_on_c, 10, 69, 127
2, 74214, Note_off_c, 10, 69, 127
2, 74216, Note_on_c, 8, 68, 127
2, 74391, Note_off_c, 8, 68, 127
2, 74391, Note_off_c, 4, 52, 127
2, 74394, Note_on_c, 5, 53, 127
2, 74394, Note_on_c, 10, 69, 127
2, 74746, Note_off_c, 5, 53, 127
2, 74749, Note_on_c, 4, 52, 127
2, 74924, Note_off_c, 4, 52, 127
2, 74924, Note_off_c, 10, 69, 127
2, 74928, Note_on_c, 2, 50, 127
2, 74928, Note_on_c, 12, 71, 127
2, 75103, Note_off_c, 12, 71, 127
2, 75103, Note_off_c, 2, 50, 127
2, 75105, Note_on_c, 4, 52, 127
2, 75105, Note_on_c, 0, 72, 127
2, 75250, Note_on_c, 12, 71, 127
2, 75254, Note_off_c, 0, 72, 127
2, 75320, Note_on_c, 0, 72, 127
2, 75336, Note_off_c, 12, 71, 127
2, 75391, Note_on_c, 12, 71, 127
2, 75406, Note_off_c, 0, 72, 127
2, 75457, Note_off_c, 4, 52, 127
2, 75461, Note_on_c, 4, 40, 127
2, 75461, Note_on_c, 0, 72, 127
2, 75477, Note_off_c, 12, 71, 127
2, 75532, Note_on_c, 12, 71, 127
2, 75547, Note_off_c, 0, 72, 127
2, 75633, Note_off_c, 12, 71, 127
2, 75640, Note_on_c, 10, 69, 127
2, 75813, Note_off_c, 4, 40, 127
2, 75815, Note_off_c, 10, 69, 127
2, 75817, Note_on_c, 10, 45, 127
2, 75817, Note_on_c, 10, 69, 127
2, 75992, Note_off_c, 10, 45, 127
2, 75994, Note_on_c, 10, 57, 127
2, 76169, Note_off_c, 10, 57, 127
2, 76173, Note_on_c, 7, 55, 127
2, 76348, Note_off_c, 7, 55, 127
2, 76350, Note_on_c, 6, 54, 127
2, 76525, Note_off_c, 6, 54, 127
2, 76529, Note_on_c, 4, 52, 127
2, 76704, Note_off_c, 4, 52, 127
2, 76706, Note_on_c, 7, 55, 127
2, 76881, Note_off_c, 7, 55, 127
2, 76881, Note_off_c, 10, 69, 127
2, 76884, Note_on_c, 6, 54, 127
2, 77062, Note_on_c, 2, 74, 127
2, 77236, Note_off_c, 6, 54, 127
2, 77237, Note_off_c, 2, 74, 127
2, 77240, Note_on_c, 2, 50, 127
2, 77240, Note_on_c, 0, 72, 127
2, 77415, Note_off_c, 0, 72, 127
2, 77418, Note_on_c, 12, 71, 127
2, 77592, Note_off_c, 2, 50, 127
2, 77593, Note_off_c, 12, 71, 127
2, 77595, Note_on_c, 6, 54, 127
2, 77595, Note_on_c, 10, 69, 127
2, 77770, Note_off_c, 10, 69, 127
2, 77773, Note_on_c, 0, 72, 127
2, 77947, Note_off_c, 6, 54, 127
2, 77948, Note_off_c, 0, 72, 127
2, 77951, Note_on_c, 7, 55, 127
2, 77951, Note_on_c, 12, 71, 127
2, 78126, Note_off_c, 12, 71, 127
2, 78130, Note_on_c, 2, 74, 127
2, 78303, Note_off_c, 7, 55, 127
2, 78305, Note_off_c, 2, 74, 127
2, 78307, Note_on_c, 6, 54, 127
2, 78307, Note_on_c, 4, 76, 127
2, 78482, Note_off_c, 4, 76, 127
2, 78485, Note_on_c, 6, 78, 127
2, 78659, Note_off_c, 6, 54, 127
2, 78660, Note_off_c, 6, 78, 127
2, 78662, Note_on_c, 4, 52, 127
2, 78662, Note_on_c, 7, 79, 127
2, 78841, Note_on_c, 1, 73, 127
2, 78928, Note_off_c, 7, 79, 127
2, 79014, Note_off_c, 4, 52, 127
2, 79016, Note_off_c, 1, 73, 127
2, 79019, Note_on_c, 2, 50, 127
2, 79019, Note_on_c, 6, 78, 127
2, 79194, Note_off_c, 2, 50, 127
2, 79196, Note_on_c, 7, 55, 127
2, 79196, Note_on_c, 12, 71, 127
2, 79370, Note_off_c, 6, 78, 127
2, 79371, Note_off_c, 12, 71, 127
2, 79371, Note_off_c, 7, 55, 127
2, 79374, Note_on_c, 10, 57, 127
2, 79374, Note_on_c, 0, 72, 127
2, 79549, Note_off_c, 0, 72, 127
2, 79549, Note_off_c, 10, 57, 127
2, 79552, Note_on_c, 12, 59, 127
2, 79552, Note_on_c, 2, 74, 127
2, 79727, Note_off_c, 2, 74, 127
2, 79727, Note_off_c, 12, 59, 127
2, 79731, Note_on_c, 0, 60, 127
2, 79731, Note_on_c, 4, 76, 127
2, 79908, Note_on_c, 10, 69, 127
2, 79997, Note_off_c, 4, 76, 127
2, 80083, Note_off_c, 10, 69, 127
2, 80086, Note_on_c, 2, 74, 127
2, 80261, Note_off_c, 0, 60, 127
2, 80263, Note_on_c, 12, 59, 127
2, 80263, Note_on_c, 7, 67, 127
2, 80437, Note_off_c, 2, 74, 127
2, 80438, Note_off_c, 7, 67, 127
2, 80438, Note_off_c, 12, 59, 127
2, 80442, Note_on_c, 10, 57, 127
2, 80442, Note_on_c, 10, 69, 127
2, 80617, Note_off_c, 10, 69, 127
2, 80617, Note_off_c, 10, 57, 127
2, 80620, Note_on_c, 7, 55, 127
2, 80620, Note_on_c, 12, 71, 127
2, 80795, Note_off_c, 12, 71, 127
2, 80795, Note_off_c, 7, 55, 127
2, 80797, Note_on_c, 10, 57, 127
2, 80797, Note_on_c, 0, 72, 127
2, 80975, Note_on_c, 6, 66, 127
2, 81063, Note_off_c, 0, 72, 127
2, 81150, Note_off_c, 6, 66, 127
2, 81152, Note_on_c, 12, 71, 127
2, 81327, Note_off_c, 10, 57, 127
2, 81332, Note_on_c, 12, 59, 127
2, 81504, Note_off_c, 12, 71, 127
2, 81507, Note_off_c, 12, 59, 127
2, 81509, Note_on_c, 10, 57, 127
2, 81509, Note_on_c, 4, 76, 127
2, 81635, Note_off_c, 4, 76, 127
2, 81638, Note_on_c, 3, 75, 127
2, 81684, Note_off_c, 10, 57, 127
2, 81686, Note_on_c, 7, 55, 127
2, 81717, Note_on_c, 4, 76, 127
2, 81724, Note_off_c, 3, 75, 127
2, 81794, Note_on_c, 3, 75, 127
2, 81803, Note_off_c, 4, 76, 127
2, 81861, Note_off_c, 7, 55, 127
2, 81864, Note_on_c, 6, 54, 127
2, 81871, Note_on_c, 4, 76, 127
2, 81880, Note_off_c, 3, 75, 127
2, 81949, Note_on_c, 3, 75, 127
2, 81957, Note_off_c, 4, 76, 127
2, 82028, Note_on_c, 1, 73, 127
2, 82035, Note_off_c, 3, 75, 127
2, 82039, Note_off_c, 6, 54, 127
2, 82042, Note_on_c, 10, 57, 127
2, 82125, Note_on_c, 3, 75, 127
2, 82126, Note_off_c, 1, 73, 127
2, 82217, Note_off_c, 10, 57, 127
2, 82221, Note_on_c, 7, 55, 127
2, 82221, Note_on_c, 4, 76, 127
2, 82224, Note_off_c, 3, 75, 127
2, 82396, Note_off_c, 7, 55, 127
2, 82398, Note_on_c, 12, 59, 127
2, 82573, Note_off_c, 12, 59, 127
2, 82573, Note_off_c, 4, 76, 127
2, 82576, Note_on_c, 1, 61, 127
2, 82576, Note_on_c, 7, 79, 127
2, 82662, Note_off_c, 7, 79, 127
2, 82664, Note_on_c, 6, 78, 127
2, 82750, Note_off_c, 6, 78, 127
2, 82751, Note_off_c, 1, 61, 127
2, 82753, Note_on_c, 3, 63, 127
2, 82753, Note_on_c, 4, 76, 127
2, 82839, Note_off_c, 4, 76, 127
2, 82843, Note_on_c, 6, 78, 127
2, 82928, Note_off_c, 3, 63, 127
2, 82929, Note_off_c, 6, 78, 127
2, 82932, Note_on_c, 4, 64, 127
2, 82932, Note_on_c, 7, 79, 127
2, 83107, Note_off_c, 4, 64, 127
2, 83110, Note_on_c, 10, 57, 127
2, 83285, Note_off_c, 10, 57, 127
2, 83287, Note_on_c, 2, 62, 127
2, 83462, Note_off_c, 2, 62, 127
2, 83462, Note_off_c, 7, 79, 127
2, 83465, Note_on_c, 7, 55, 127
2, 83465, Note_on_c, 6, 78, 127
2, 83640, Note_off_c, 6, 78, 127
2, 83640, Note_off_c, 7, 55, 127
2, 83643, Note_on_c, 10, 57, 127
2, 83643, Note_on_c, 4, 76, 127
2, 83818, Note_off_c, 4, 76, 127
2, 83818, Note_off_c, 10, 57, 127
2, 83821, Note_on_c, 12, 59, 127
2, 83821, Note_on_c, 3, 75, 127
2, 83996, Note_off_c, 3, 75, 127
2, 83996, Note_off_c, 12, 59, 127
2, 83999, Note_on_c, 0, 60, 127
2, 83999, Note_on_c, 4, 76, 127
2, 84174, Note_off_c, 0, 60, 127
2, 84177, Note_on_c, 6, 54, 127
2, 84352, Note_off_c, 6, 54, 127
2, 84354, Note_on_c, 12, 59, 127
2, 84529, Note_off_c, 12, 59, 127
2, 84529, Note_off_c, 4, 76, 127
2, 84533, Note_on_c, 4, 52, 127
2, 84533, Note_on_c, 2, 74, 127
2, 84708, Note_off_c, 2, 74, 127
2, 84708, Note_off_c, 4, 52, 127
2, 84710, Note_on_c, 6, 54, 127
2, 84710, Note_on_c, 0, 72, 127
2, 84885, Note_off_c, 0, 72, 127
2, 84885, Note_off_c, 6, 54, 127
2, 84888, Note_on_c, 7, 55, 127
2, 84888, Note_on_c, 12, 71, 127
2, 85063, Note_off_c, 12, 71, 127
2, 85063, Note_off_c, 7, 55, 127
2, 85066, Note_on_c, 10, 57, 127
2, 85066, Note_on_c, 0, 72, 127
2, 85241, Note_off_c, 10, 57, 127
2, 85244, Note_on_c, 2, 50, 127
2, 85244, Note_on_c, 10, 81, 127
2, 85332, Note_off_c, 0, 72, 127
2, 85419, Note_off_c, 10, 81, 127
2, 85419, Note_off_c, 2, 50, 127
2, 85422, Note_on_c, 7, 55, 127
2, 85422, Note_on_c, 12, 71, 127
2, 85597, Note_off_c, 12, 71, 127
2, 85597, Note_off_c, 7, 55, 127
2, 85599, Note_on_c, 6, 54, 127
2, 85599, Note_on_c, 2, 62, 127
2, 85774, Note_off_c, 2, 62, 127
2, 85774, Note_off_c, 6, 54, 127
2, 85778, Note_on_c, 7, 55, 127
2, 85778, Note_on_c, 4, 64, 127
2, 85953, Note_off_c, 4, 64, 127
2, 85953, Note_off_c, 7, 55, 127
2, 85955, Note_on_c, 10, 57, 127
2, 85955, Note_on_c, 6, 66, 127
2, 86130, Note_off_c, 6, 66, 127
2, 86130, Note_off_c, 10, 57, 127
2, 86133, Note_on_c, 12, 59, 127
2, 86133, Note_on_c, 7, 67, 127
2, 86308, Note_off_c, 12, 59, 127
2, 86311, Note_on_c, 1, 61, 127
2, 86486, Note_off_c, 1, 61, 127
2, 86488, Note_on_c, 2, 62, 127
2, 86538, Note_off_c, 7, 67, 127
2, 86663, Note_off_c, 2, 62, 127
2, 86667, Note_on_c, 10, 57, 127
2, 86667, Note_on_c, 6, 66, 127
2, 86842, Note_off_c, 6, 66, 127
2, 86842, Note_off_c, 10, 57, 127
2, 86845, Note_on_c, 12, 59, 127
2, 86845, Note_on_c, 8, 68, 127
2, 87020, Note_off_c, 8, 68, 127
2, 87020, Note_off_c, 12, 59, 127
2, 87023, Note_on_c, 0, 60, 127
2, 87023, Note_on_c, 10, 69, 127
2, 87198, Note_off_c, 10, 69, 127
2, 87198, Note_off_c, 0, 60, 127
2, 87200, Note_on_c, 2, 62, 127
2, 87200, Note_on_c, 12, 71, 127
2, 87375, Note_off_c, 12, 71, 127
2, 87378, Note_on_c, 8, 68, 127
2, 87553, Note_off_c, 8, 68, 127
2, 87556, Note_on_c, 10, 69, 127
2, 87643, Note_off_c, 2, 62, 127
2, 87731, Note_off_c, 10, 69, 127
2, 87734, Note_on_c, 1, 61, 127
2, 87734, Note_on_c, 4, 64, 127
2, 87909, Note_off_c, 4, 64, 127
2, 87909, Note_off_c, 1, 61, 127
2, 87912, Note_on_c, 3, 63, 127
2, 87912, Note_on_c, 6, 66, 127
2, 88087, Note_off_c, 6, 66, 127
2, 88087, Note_off_c, 3, 63, 127
2, 88089, Note_on_c, 4, 64, 127
2, 88089, Note_on_c, 7, 67, 127
2, 88264, Note_off_c, 7, 67, 127
2, 88264, Note_off_c, 4, 64, 127
2, 88267, Note_on_c, 6, 66, 127
2, 88267, Note_on_c, 10, 69, 127
2, 88442, Note_off_c, 6, 66, 127
2, 88446, Note_on_c, 3, 63, 127
2, 88621, Note_off_c, 3, 63, 127
2, 88624, Note_on_c, 4, 64, 127
2, 88710, Note_off_c, 10, 69, 127
2, 88799, Note_off_c, 4, 64, 127
2, 88801, Note_on_c, 4, 52, 127
2, 88801, Note_on_c, 7, 67, 127
2, 88976, Note_off_c, 7, 67, 127
2, 88976, Note_off_c, 4, 52, 127
2, 88979, Note_on_c, 6, 54, 127
2, 88979, Note_on_c, 10, 69, 127
2, 89154, Note_off_c, 10, 69, 127
2, 89154, Note_off_c, 6, 54, 127
2, 89156, Note_on_c, 7, 55, 127
2, 89156, Note_on_c, 12, 71, 127
2, 89331, Note_off_c, 12, 71, 127
2, 89331, Note_off_c, 7, 55, 127
2, 89335, Note_on_c, 10, 57, 127
2, 89335, Note_on_c, 0, 72, 127
2, 89510, Note_off_c, 0, 72, 127
2, 89510, Note_off_c, 10, 57, 127
2, 89513, Note_on_c, 6, 54, 127
2, 89513, Note_on_c, 10, 69, 127
2, 89688, Note_off_c, 10, 69, 127
2, 89688, Note_off_c, 6, 54, 127
2, 89690, Note_on_c, 7, 55, 127
2, 89690, Note_on_c, 12, 71, 127
2, 89865, Note_off_c, 12, 71, 127
2, 89868, Note_on_c, 3, 75, 127
2, 90042, Note_off_c, 7, 55, 127
2, 90043, Note_off_c, 3, 75, 127
2, 90047, Note_on_c, 6, 54, 127
2, 90047, Note_on_c, 4, 76, 127
2, 90222, Note_off_c, 4, 76, 127
2, 90225, Note_on_c, 6, 78, 127
2, 90399, Note_off_c, 6, 54, 127
2, 90400, Note_off_c, 6, 78, 127
2, 90402, Note_on_c, 4, 52, 127
2, 90402, Note_on_c, 7, 79, 127
2, 90577, Note_off_c, 7, 79, 127
2, 90579, Note_on_c, 4, 76, 127
2, 90754, Note_off_c, 4, 76, 127
2, 90754, Note_off_c, 4, 52, 127
2, 90757, Note_on_c, 6, 78, 127
2, 90757, Note_on_c, 0, 60, 127
2, 90868, Note_on_c, 12, 59, 127
2, 90894, Note_off_c, 0, 60, 127
2, 90932, Note_off_c, 6, 78, 127
2, 90936, Note_on_c, 4, 76, 127
2, 90943, Note_on_c, 0, 60, 127
2, 90954, Note_off_c, 12, 59, 127
2, 91018, Note_on_c, 12, 59, 127
2, 91029, Note_off_c, 0, 60, 127
2, 91093, Note_on_c, 0, 60, 127
2, 91104, Note_off_c, 12, 59, 127
2, 91111, Note_off_c, 4, 76, 127
2, 91114, Note_on_c, 3, 75, 127
2, 91167, Note_on_c, 12, 59, 127
2, 91179, Note_off_c, 0, 60, 127
2, 91243, Note_on_c, 0, 60, 127
2, 91253, Note_off_c, 12, 59, 127
2, 91289, Note_off_c, 3, 75, 127
2, 91291, Note_on_c, 1, 73, 127
2, 91318, Note_on_c, 12, 59, 127
2, 91329, Note_off_c, 0, 60, 127
2, 91391, Note_on_c, 0, 60, 127
2, 91404, Note_off_c, 12, 59, 127
2, 91465, Note_on_c, 12, 59, 127
2, 91466, Note_off_c, 1, 73, 127
2, 91469, Note_on_c, 12, 71, 127
2, 91477, Note_off_c, 0, 60, 127
2, 91541, Note_on_c, 0, 60, 127
2, 91551, Note_off_c, 12, 59, 127
2, 91618, Note_on_c, 12, 59, 127
2, 91627, Note_off_c, 0, 60, 127
2, 91644, Note_off_c, 12, 71, 127
2, 91647, Note_on_c, 10, 69, 127
2, 91691, Note_on_c, 0, 60, 127
2, 91704, Note_off_c, 12, 59, 127
2, 91765, Note_on_c, 12, 59, 127
2, 91777, Note_off_c, 0, 60, 127
2, 91822, Note_off_c, 10, 69, 127
2, 91826, Note_on_c, 7, 67, 127
2, 91840, Note_on_c, 0, 60, 127
2, 91851, Note_off_c, 12, 59, 127
2, 91914, Note_on_c, 12, 59, 127
2, 91926, Note_off_c, 0, 60, 127
2, 91990, Note_on_c, 0, 60, 127
2, 92000, Note_off_c, 12, 59, 127
2, 92001, Note_off_c, 7, 67, 127
2, 92003, Note_on_c, 12, 71, 127
2, 92063, Note_on_c, 12, 59, 127
2, 92076, Note_off_c, 0, 60, 127
2, 92140, Note_on_c, 0, 60, 127
2, 92149, Note_off_c, 12, 59, 127
2, 92178, Note_off_c, 12, 71, 127
2, 92180, Note_on_c, 1, 73, 127
2, 92214, Note_on_c, 12, 59, 127
2, 92226, Note_off_c, 0, 60, 127
2, 92288, Note_on_c, 0, 60, 127
2, 92300, Note_off_c, 12, 59, 127
2, 92355, Note_off_c, 1, 73, 127
2, 92358, Note_on_c, 3, 75, 127
2, 92364, Note_on_c, 12, 59, 127
2, 92374, Note_off_c, 0, 60, 127
2, 92438, Note_on_c, 0, 60, 127
2, 92450, Note_off_c, 12, 59, 127
2, 92513, Note_on_c, 12, 59, 127
2, 92524, Note_off_c, 0, 60, 127
2, 92533, Note_off_c, 3, 75, 127
2, 92536, Note_on_c, 4, 76, 127
2, 92588, Note_on_c, 0, 60, 127
2, 92599, Note_off_c, 12, 59, 127
2, 92662, Note_on_c, 12, 59, 127
2, 92674, Note_off_c, 0, 60, 127
2, 92711, Note_off_c, 4, 76, 127
2, 92715, Note_on_c, 1, 73, 127
2, 92738, Note_on_c, 0, 60, 127
2, 92748, Note_off_c, 12, 59, 127
2, 92813, Note_on_c, 12, 59, 127
2, 92824, Note_off_c, 0, 60, 127
2, 92887, Note_on_c, 0, 60, 127
2, 92890, Note_off_c, 1, 73, 127
2, 92892, Note_on_c, 3, 75, 127
2, 92899, Note_off_c, 12, 59, 127
2, 92960, Note_on_c, 12, 59, 127
2, 92973, Note_off_c, 0, 60, 127
2, 93035, Note_on_c, 0, 60, 127
2, 93046, Note_off_c, 12, 59, 127
2, 93067, Note_off_c, 3, 75, 127
2, 93070, Note_on_c, 1, 73, 127
2, 93111, Note_on_c, 12, 59, 127
2, 93121, Note_off_c, 0, 60, 127
2, 93187, Note_on_c, 0, 60, 127
2, 93197, Note_off_c, 12, 59, 127
2, 93245, Note_off_c, 1, 73, 127
2, 93248, Note_on_c, 12, 71, 127
2, 93260, Note_on_c, 12, 59, 127
2, 93273, Note_off_c, 0, 60, 127
2, 93335, Note_on_c, 0, 60, 127
2, 93346, Note_off_c, 12, 59, 127
2, 93409, Note_on_c, 12, 59, 127
2, 93421, Note_off_c, 0, 60, 127
2, 93423, Note_off_c, 12, 71, 127
2, 93426, Note_on_c, 10, 69, 127
2, 93483, Note_on_c, 0, 60, 127
2, 93495, Note_off_c, 12, 59, 127
2, 93559, Note_on_c, 12, 59, 127
2, 93569, Note_off_c, 0, 60, 127
2, 93601, Note_off_c, 10, 69, 127
2, 93604, Note_on_c, 7, 67, 127
2, 93635, Note_on_c, 0, 60, 127
2, 93645, Note_off_c, 12, 59, 127
2, 93710, Note_on_c, 12, 59, 127
2, 93721, Note_off_c, 0, 60, 127
2, 93779, Note_off_c, 7, 67, 127
2, 93781, Note_on_c, 6, 66, 127
2, 93783, Note_on_c, 0, 60, 127
2, 93796, Note_off_c, 12, 59, 127
2, 93857, Note_on_c, 12, 59, 127
2, 93869, Note_off_c, 0, 60, 127
2, 93948, Note_off_c, 6, 66, 127
2, 93959, Note_on_c, 6, 66, 127
2, 94059, Note_on_c, 4, 64, 127
2, 94077, Note_off_c, 12, 59, 127
2, 94096, Note_off_c, 6, 66, 127
2, 94130, Note_on_c, 6, 66, 127
2, 94137, Note_on_c, 8, 56, 127
2, 94145, Note_off_c, 4, 64, 127
2, 94197, Note_on_c, 4, 64, 127
2, 94216, Note_off_c, 6, 66, 127
2, 94267, Note_on_c, 6, 66, 127
2, 94283, Note_off_c, 4, 64, 127
2, 94312, Note_off_c, 8, 56, 127
2, 94315, Note_on_c, 10, 57, 127
2, 94334, Note_on_c, 4, 64, 127
2, 94353, Note_off_c, 6, 66, 127
2, 94405, Note_on_c, 6, 66, 127
2, 94420, Note_off_c, 4, 64, 127
2, 94474, Note_on_c, 4, 64, 127
2, 94490, Note_off_c, 10, 57, 127
2, 94491, Note_off_c, 6, 66, 127
2, 94493, Note_on_c, 12, 59, 127
2, 94543, Note_on_c, 6, 66, 127
2, 94560, Note_off_c, 4, 64, 127
2, 94609, Note_on_c, 4, 64, 127
2, 94629, Note_off_c, 6, 66, 127
2, 94668, Note_off_c, 12, 59, 127
2, 94671, Note_on_c, 0, 60, 127
2, 94680, Note_on_c, 6, 66, 127
2, 94695, Note_off_c, 4, 64, 127
2, 94752, Note_on_c, 4, 64, 127
2, 94766, Note_off_c, 6, 66, 127
2, 94821, Note_on_c, 6, 66, 127
2, 94838, Note_off_c, 4, 64, 127
2, 94846, Note_off_c, 0, 60, 127
2, 94848, Note_on_c, 10, 57, 127
2, 94888, Note_on_c, 4, 64, 127
2, 94907, Note_off_c, 6, 66, 127
2, 94954, Note_on_c, 6, 66, 127
2, 94974, Note_off_c, 4, 64, 127
2, 95023, Note_off_c, 10, 57, 127
2, 95025, Note_on_c, 4, 64, 127
2, 95026, Note_on_c, 12, 59, 127
2, 95040, Note_off_c, 6, 66, 127
2, 95095, Note_on_c, 6, 66, 127
2, 95111, Note_off_c, 4, 64, 127
2, 95163, Note_on_c, 4, 64, 127
2, 95181, Note_off_c, 6, 66, 127
2, 95201, Note_off_c, 12, 59, 127
2, 95204, Note_on_c, 10, 57, 127
2, 95234, Note_on_c, 6, 66, 127
2, 95249, Note_off_c, 4, 64, 127
2, 95304, Note_on_c, 4, 64, 127
2, 95320, Note_off_c, 6, 66, 127
2, 95371, Note_on_c, 6, 66, 127
2, 95379, Note_off_c, 10, 57, 127
2, 95382, Note_on_c, 8, 56, 127
2, 95390, Note_off_c, 4, 64, 127
2, 95442, Note_on_c, 4, 64, 127
2, 95457, Note_off_c, 6, 66, 127
2, 95508, Note_on_c, 6, 66, 127
2, 95528, Note_off_c, 4, 64, 127
2, 95557, Note_off_c, 8, 56, 127
2, 95560, Note_on_c, 6, 54, 127
2, 95577, Note_on_c, 4, 64, 127
2, 95594, Note_off_c, 6, 66, 127
2, 95649, Note_on_c, 6, 66, 127
2, 95663, Note_off_c, 4, 64, 127
2, 95717, Note_on_c, 4, 64, 127
2, 95735, Note_off_c, 6, 66, 127
2, 95735, Note_off_c, 6, 54, 127
2, 95738, Note_on_c, 4, 52, 127
2, 95786, Note_on_c, 6, 66, 127
2, 95803, Note_off_c, 4, 64, 127
2, 95854, Note_on_c, 4, 64, 127
2, 95872, Note_off_c, 6, 66, 127
2, 95913, Note_off_c, 4, 52, 127
2, 95916, Note_on_c, 2, 50, 127
2, 95936, Note_on_c, 6, 66, 127
2, 95940, Note_off_c, 4, 64, 127
2, 96004, Note_on_c, 4, 64, 127
2, 96022, Note_off_c, 6, 66, 127
2, 96073, Note_on_c, 6, 66, 127
2, 96090, Note_off_c, 4, 64, 127
2, 96091, Note_off_c, 2, 50, 127
2, 96093, Note_on_c, 0, 48, 127
2, 96142, Note_on_c, 4, 64, 127
2, 96159, Note_off_c, 6, 66, 127
2, 96212, Note_on_c, 6, 66, 127
2, 96228, Note_off_c, 4, 64, 127
2, 96268, Note_off_c, 0, 48, 127
2, 96272, Note_on_c, 4, 52, 127
2, 96283, Note_on_c, 4, 64, 127
2, 96298, Note_off_c, 6, 66, 127
2, 96351, Note_on_c, 6, 66, 127
2, 96369, Note_off_c, 4, 64, 127
2, 96420, Note_on_c, 4, 64, 127
2, 96437, Note_off_c, 6, 66, 127
2, 96447, Note_off_c, 4, 52, 127
2, 96449, Note_on_c, 6, 54, 127
2, 96486, Note_on_c, 6, 66, 127
2, 96506, Note_off_c, 4, 64, 127
2, 96557, Note_on_c, 4, 64, 127
2, 96572, Note_off_c, 6, 66, 127
2, 96624, Note_off_c, 6, 54, 127
2, 96627, Note_on_c, 8, 56, 127
2, 96627, Note_on_c, 6, 66, 127
2, 96643, Note_off_c, 4, 64, 127
2, 96695, Note_on_c, 4, 64, 127
2, 96713, Note_off_c, 6, 66, 127
2, 96764, Note_on_c, 6, 66, 127
2, 96781, Note_off_c, 4, 64, 127
2, 96802, Note_off_c, 8, 56, 127
2, 96805, Note_on_c, 10, 57, 127
2, 96835, Note_on_c, 4, 64, 127
2, 96850, Note_off_c, 6, 66, 127
2, 96901, Note_on_c, 6, 66, 127
2, 96921, Note_off_c, 4, 64, 127
2, 96968, Note_on_c, 4, 64, 127
2, 96980, Note_off_c, 10, 57, 127
2, 96982, Note_on_c, 6, 54, 127
2, 96987, Note_off_c, 6, 66, 127
2, 97035, Note_on_c, 6, 66, 127
2, 97054, Note_off_c, 4, 64, 127
2, 97101, Note_on_c, 4, 64, 127
2, 97121, Note_off_c, 6, 66, 127
2, 97157, Note_off_c, 6, 54, 127
2, 97161, Note_on_c, 8, 56, 127
2, 97168, Note_on_c, 6, 66, 127
2, 97187, Note_off_c, 4, 64, 127
2, 97235, Note_on_c, 4, 64, 127
2, 97254, Note_off_c, 6, 66, 127
2, 97336, Note_off_c, 8, 56, 127
2, 97339, Note_on_c, 6, 54, 127
2, 97412, Note_off_c, 4, 64, 127
2, 97514, Note_off_c, 6, 54, 127
2, 97517, Note_on_c, 4, 52, 127
2, 97517, Note_on_c, 2, 74, 127
2, 97603, Note_off_c, 2, 74, 127
2, 97605, Note_on_c, 0, 72, 127
2, 97691, Note_off_c, 0, 72, 127
2, 97692, Note_off_c, 4, 52, 127
2, 97694, Note_on_c, 2, 50, 127
2, 97694, Note_on_c, 2, 74, 127
2, 97869, Note_off_c, 2, 50, 127
2, 97872, Note_on_c, 0, 48, 127
2, 98047, Note_off_c, 0, 48, 127
2, 98050, Note_on_c, 12, 47, 127
2, 98225, Note_off_c, 12, 47, 127
2, 98228, Note_on_c, 10, 45, 127
2, 98401, Note_off_c, 2, 74, 127
2, 98406, Note_on_c, 4, 76, 127
2, 98567, Note_off_c, 10, 45, 127
2, 98581, Note_off_c, 4, 76, 127
2, 98583, Note_on_c, 4, 52, 127
2, 98583, Note_on_c, 2, 74, 127
2, 98758, Note_off_c, 2, 74, 127
2, 98761, Note_on_c, 0, 72, 127
2, 98922, Note_off_c, 4, 52, 127
2, 98936, Note_off_c, 0, 72, 127
2, 98940, Note_on_c, 8, 56, 127
2, 98940, Note_on_c, 12, 71, 127
2, 99115, Note_off_c, 12, 71, 127
2, 99118, Note_on_c, 2, 74, 127
2, 99279, Note_off_c, 8, 56, 127
2, 99293, Note_off_c, 2, 74, 127
2, 99295, Note_on_c, 10, 57, 127
2, 99295, Note_on_c, 0, 72, 127
2, 99470, Note_off_c, 10, 57, 127
2, 99472, Note_on_c, 12, 59, 127
2, 99617, Note_off_c, 0, 72, 127
2, 99647, Note_off_c, 12, 59, 127
2, 99651, Note_on_c, 10, 57, 127
2, 99651, Note_on_c, 4, 76, 127
2, 99826, Note_off_c, 10, 57, 127
2, 99829, Note_on_c, 7, 55, 127
2, 99973, Note_off_c, 4, 76, 127
2, 100004, Note_off_c, 7, 55, 127
2, 100007, Note_on_c, 6, 54, 127
2, 100007, Note_on_c, 10, 81, 127
2, 100182, Note_off_c, 6, 54, 127
2, 100184, Note_on_c, 10, 57, 127
2, 100359, Note_off_c, 10, 57, 127
2, 100362, Note_on_c, 3, 51, 127
2, 100537, Note_off_c, 10, 81, 127
2, 100541, Note_on_c, 12, 83, 127
2, 100658, Note_off_c, 3, 51, 127
2, 100716, Note_off_c, 12, 83, 127
2, 100719, Note_on_c, 0, 60, 127
2, 100719, Note_on_c, 10, 81, 127
2, 100805, Note_off_c, 0, 60, 127
2, 100807, Note_on_c, 12, 59, 127
2, 100893, Note_off_c, 12, 59, 127
2, 100894, Note_off_c, 10, 81, 127
2, 100896, Note_on_c, 0, 60, 127
2, 100896, Note_on_c, 7, 79, 127
2, 101071, Note_off_c, 7, 79, 127
2, 101073, Note_on_c, 6, 78, 127
2, 101248, Note_off_c, 6, 78, 127
2, 101251, Note_on_c, 10, 81, 127
2, 101426, Note_off_c, 10, 81, 127
2, 101430, Note_on_c, 3, 75, 127
2, 101603, Note_off_c, 0, 60, 127
2, 101608, Note_on_c, 10, 57, 127
2, 101743, Note_off_c, 3, 75, 127
2, 101783, Note_off_c, 10, 57, 127
2, 101785, Note_on_c, 6, 54, 127
2, 101785, Note_on_c, 0, 84, 127
2, 101871, Note_off_c, 0, 84, 127
2, 101874, Note_on_c, 12, 83, 127
2, 101960, Note_off_c, 12, 83, 127
2, 101960, Note_off_c, 6, 54, 127
2, 101963, Note_on_c, 10, 57, 127
2, 101963, Note_on_c, 0, 84, 127
2, 102138, Note_off_c, 10, 57, 127
2, 102141, Note_on_c, 3, 51, 127
2, 102316, Note_off_c, 3, 51, 127
2, 102320, Note_on_c, 6, 54, 127
2, 102495, Note_off_c, 6, 54, 127
2, 102497, Note_on_c, 12, 47, 127
2, 102670, Note_off_c, 0, 84, 127
2, 102674, Note_on_c, 12, 83, 127
2, 102819, Note_off_c, 12, 47, 127
2, 102849, Note_off_c, 12, 83, 127
2, 102852, Note_on_c, 4, 64, 127
2, 102852, Note_on_c, 10, 81, 127
2, 102938, Note_off_c, 4, 64, 127
2, 102942, Note_on_c, 3, 63, 127
2, 103027, Note_off_c, 10, 81, 127
2, 103028, Note_off_c, 3, 63, 127
2, 103030, Note_on_c, 4, 64, 127
2, 103030, Note_on_c, 7, 79, 127
2, 103116, Note_off_c, 4, 64, 127
2, 103119, Note_on_c, 3, 63, 127
2, 103205, Note_off_c, 3, 63, 127
2, 103205, Note_off_c, 7, 79, 127
2, 103209, Note_on_c, 4, 64, 127
2, 103209, Note_on_c, 6, 78, 127
2, 103295, Note_off_c, 4, 64, 127
2, 103297, Note_on_c, 3, 63, 127
2, 103383, Note_off_c, 3, 63, 127
2, 103384, Note_off_c, 6, 78, 127
2, 103386, Note_on_c, 1, 61, 127
2, 103386, Note_on_c, 10, 81, 127
2, 103472, Note_off_c, 1, 61, 127
2, 103475, Note_on_c, 3, 63, 127
2, 103561, Note_off_c, 3, 63, 127
2, 103561, Note_off_c, 10, 81, 127
2, 103564, Note_on_c, 4, 64, 127
2, 103564, Note_on_c, 7, 79, 127
2, 103739, Note_off_c, 4, 64, 127
2, 103742, Note_on_c, 3, 63, 127
2, 103917, Note_off_c, 3, 63, 127
2, 103919, Note_on_c, 4, 64, 127
2, 104094, Note_off_c, 4, 64, 127
2, 104098, Note_on_c, 6, 66, 127
2, 104273, Note_off_c, 6, 66, 127
2, 104275, Note_on_c, 7, 67, 127
2, 104450, Note_off_c, 7, 67, 127
2, 104453, Note_on_c, 4, 64, 127
2, 104628, Note_off_c, 4, 64, 127
2, 104631, Note_on_c, 11, 58, 127
2, 104806, Note_off_c, 11, 58, 127
2, 104806, Note_off_c, 7, 79, 127
2, 104809, Note_on_c, 12, 59, 127
2, 104809, Note_on_c, 6, 78, 127
2, 104984, Note_off_c, 6, 78, 127
2, 104984, Note_off_c, 12, 59, 127
2, 104987, Note_on_c, 1, 61, 127
2, 104987, Note_on_c, 4, 76, 127
2, 105162, Note_off_c, 4, 76, 127
2, 105162, Note_off_c, 1, 61, 127
2, 105165, Note_on_c, 2, 62, 127
2, 105165, Note_on_c, 2, 74, 127
2, 105340, Note_off_c, 2, 74, 127
2, 105340, Note_off_c, 2, 62, 127
2, 105343, Note_on_c, 4, 64, 127
2, 105343, Note_on_c, 1, 73, 127
2, 105518, Note_off_c, 1, 73, 127
2, 105518, Note_off_c, 4, 64, 127
2, 105520, Note_on_c, 1, 61, 127
2, 105520, Note_on_c, 4, 76, 127
2, 105695, Note_off_c, 4, 76, 127
2, 105695, Note_off_c, 1, 61, 127
2, 105698, Note_on_c, 6, 54, 127
2, 105698, Note_on_c, 11, 70, 127
2, 105873, Note_off_c, 11, 70, 127
2, 105876, Note_on_c, 7, 79, 127
2, 106050, Note_off_c, 6, 54, 127
2, 106051, Note_off_c, 7, 79, 127
2, 106054, Note_on_c, 11, 58, 127
2, 106054, Note_on_c, 6, 78, 127
2, 106229, Note_off_c, 6, 78, 127
2, 106232, Note_on_c, 4, 76, 127
2, 106406, Note_off_c, 11, 58, 127
2, 106407, Note_off_c, 4, 76, 127
2, 106410, Note_on_c, 12, 59, 127
2, 106410, Note_on_c, 3, 75, 127
2, 106585, Note_off_c, 3, 75, 127
2, 106587, Note_on_c, 6, 78, 127
2, 106762, Note_off_c, 6, 78, 127
2, 106762, Note_off_c, 12, 59, 127
2, 106766, Note_on_c, 0, 60, 127
2, 106766, Note_on_c, 10, 69, 127
2, 106941, Note_off_c, 10, 69, 127
2, 106944, Note_on_c, 0, 72, 127
2, 107118, Note_off_c, 0, 60, 127
2, 107119, Note_off_c, 0, 72, 127
2, 107121, Note_on_c, 3, 51, 127
2, 107121, Note_on_c, 12, 71, 127
2, 107296, Note_off_c, 12, 71, 127
2, 107299, Note_on_c, 10, 69, 127
2, 107473, Note_off_c, 3, 51, 127
2, 107474, Note_off_c, 10, 69, 127
2, 107476, Note_on_c, 4, 52, 127
2, 107476, Note_on_c, 7, 67, 127
2, 107651, Note_off_c, 7, 67, 127
2, 107655, Note_on_c, 12, 71, 127
2, 107837, Note_off_c, 4, 52, 127
2, 107840, Note_off_c, 12, 71, 127
2, 107846, Note_on_c, 0, 48, 127
2, 107846, Note_on_c, 4, 64, 127
2, 108198, Note_off_c, 4, 64, 127
2, 108198, Note_off_c, 0, 48, 127
2, 108204, Note_on_c, 6, 66, 127
2, 108204, Note_on_c, 10, 45, 127
2, 108279, Note_on_c, 4, 64, 127
2, 108290, Note_off_c, 6, 66, 127
2, 108353, Note_on_c, 6, 66, 127
2, 108365, Note_off_c, 4, 64, 127
2, 108552, Note_off_c, 6, 66, 127
2, 108556, Note_off_c, 10, 45, 127
2, 108561, Note_on_c, 4, 64, 127
2, 108561, Note_on_c, 12, 47, 127
2, 108646, Note_on_c, 3, 63, 127
2, 108647, Note_off_c, 4, 64, 127
2, 108731, Note_on_c, 1, 61, 127
2, 108732, Note_off_c, 3, 63, 127
2, 108816, Note_on_c, 3, 63, 127
2, 108817, Note_off_c, 1, 61, 127
2, 108902, Note_off_c, 3, 63, 127
2, 108913, Note_off_c, 12, 47, 127
2, 108916, Note_on_c, 4, 64, 127
2, 108916, Note_on_c, 0, 36, 127
2, 109095, Note_off_c, 0, 36, 127
2, 109095, Note_off_c, 4, 64, 127
2, 109097, Note_on_c, 8, 68, 127
2, 109097, Note_on_c, 4, 40, 127
2, 109276, Note_off_c, 4, 40, 127
2, 109276, Note_off_c, 8, 68, 127
2, 109278, Note_on_c, 10, 69, 127
2, 109278, Note_on_c, 6, 42, 127
2, 109457, Note_off_c, 6, 42, 127
2, 109457, Note_off_c, 10, 69, 127
2, 109461, Note_on_c, 12, 71, 127
2, 109461, Note_on_c, 8, 44, 127
2, 109640, Note_off_c, 8, 44, 127
2, 109640, Note_off_c, 12, 71, 127
2, 109643, Note_on_c, 0, 72, 127
2, 109643, Note_on_c, 10, 45, 127
2, 109822, Note_off_c, 10, 45, 127
2, 109822, Note_off_c, 0, 72, 127
2, 109824, Note_on_c, 10, 69, 127
2, 109824, Note_on_c, 6, 42, 127
2, 110003, Note_off_c, 6, 42, 127
2, 110003, Note_off_c, 10, 69, 127
2, 110005, Note_on_c, 12, 71, 127
2, 110005, Note_on_c, 8, 44, 127
2, 110184, Note_off_c, 8, 44, 127
2, 110184, Note_off_c, 12, 71, 127
2, 110186, Note_on_c, 10, 69, 127
2, 110186, Note_on_c, 12, 47, 127
2, 110365, Note_off_c, 12, 47, 127
2, 110365, Note_off_c, 10, 69, 127
2, 110368, Note_on_c, 8, 68, 127
2, 110368, Note_on_c, 0, 48, 127
2, 110547, Note_off_c, 0, 48, 127
2, 110547, Note_off_c, 8, 68, 127
2, 110551, Note_on_c, 6, 66, 127
2, 110551, Note_on_c, 2, 50, 127
2, 110730, Note_off_c, 2, 50, 127
2, 110730, Note_off_c, 6, 66, 127
2, 110732, Note_on_c, 4, 64, 127
2, 110732, Note_on_c, 4, 52, 127
2, 110911, Note_off_c, 4, 52, 127
2, 110911, Note_off_c, 4, 64, 127
2, 110913, Note_on_c, 2, 74, 127
2, 110913, Note_on_c, 6, 54, 127
2, 111092, Note_off_c, 6, 54, 127
2, 111092, Note_off_c, 2, 74, 127
2, 111094, Note_on_c, 1, 73, 127
2, 111094, Note_on_c, 7, 55, 127
2, 111275, Note_off_c, 1, 73, 127
2, 111278, Note_on_c, 3, 75, 127
2, 111458, Note_off_c, 7, 55, 127
2, 111459, Note_off_c, 3, 75, 127
2, 111462, Note_on_c, 4, 76, 127
2, 111462, Note_on_c, 6, 54, 127
2, 111643, Note_off_c, 4, 76, 127
2, 111646, Note_on_c, 6, 78, 127
2, 111826, Note_off_c, 6, 54, 127
2, 111827, Note_off_c, 6, 78, 127
2, 111829, Note_on_c, 7, 79, 127
2, 111829, Note_on_c, 4, 52, 127
2, 112010, Note_off_c, 7, 79, 127
2, 112012, Note_on_c, 4, 76, 127
2, 112193, Note_off_c, 4, 76, 127
2, 112193, Note_off_c, 4, 52, 127
2, 112195, Note_on_c, 6, 78, 127
2, 112195, Note_on_c, 3, 51, 127
2, 112376, Note_off_c, 6, 78, 127
2, 112378, Note_on_c, 4, 76, 127
2, 112559, Note_off_c, 4, 76, 127
2, 112559, Note_off_c, 3, 51, 127
2, 112562, Note_on_c, 3, 75, 127
2, 112562, Note_on_c, 12, 47, 127
2, 112743, Note_off_c, 3, 75, 127
2, 112745, Note_on_c, 1, 73, 127
2, 112926, Note_off_c, 1, 73, 127
2, 112926, Note_off_c, 12, 47, 127
2, 112930, Note_on_c, 12, 71, 127
2, 112930, Note_on_c, 3, 51, 127
2, 113111, Note_off_c, 12, 71, 127
2, 113113, Note_on_c, 10, 69, 127
2, 113294, Note_off_c, 10, 69, 127
2, 113294, Note_off_c, 3, 51, 127
2, 113296, Note_on_c, 7, 67, 127
2, 113296, Note_on_c, 4, 52, 127
2, 113658, Note_off_c, 7, 67, 127
2, 113681, Note_off_c, 4, 52, 127
2, 113683, Note_on_c, 10, 69, 127
2, 113683, Note_on_c, 10, 45, 127
2, 113754, Note_on_c, 7, 67, 127
2, 113777, Note_off_c, 10, 69, 127
2, 113824, Note_on_c, 10, 69, 127
2, 113848, Note_off_c, 7, 67, 127
2, 114041, Note_off_c, 10, 69, 127
2, 114066, Note_off_c, 10, 45, 127
2, 114068, Note_on_c, 7, 67, 127
2, 114068, Note_on_c, 12, 47, 127
2, 114170, Note_on_c, 6, 66, 127
2, 114175, Note_off_c, 7, 67, 127
2, 114274, Note_on_c, 4, 64, 127
2, 114279, Note_off_c, 6, 66, 127
2, 114378, Note_on_c, 6, 66, 127
2, 114383, Note_off_c, 4, 64, 127
2, 114485, Note_off_c, 6, 66, 127
2, 114513, Note_off_c, 12, 47, 127
2, 114517, Note_on_c, 4, 64, 127
2, 114517, Note_on_c, 4, 40, 127
2, 116317, Note_off_c, 4, 40, 127
2, 116317, Note_off_c, 4, 64, 127
2, 116592, Note_on_c, 4, 64, 127
2, 116720, Note_off_c, 4, 64, 127
2, 116725, Note_on_c, 6, 66, 127
2, 116853, Note_off_c, 6, 66, 127
2, 116856, Note_on_c, 7, 67, 127
2, 117235, Note_off_c, 7, 67, 127
2, 117246, Note_on_c, 10, 69, 127
2, 117342, Note_off_c, 10, 69, 127
2, 117344, Note_on_c, 7, 67, 127
2, 117440, Note_off_c, 7, 67, 127
2, 117442, Note_on_c, 6, 66, 127
2, 117538, Note_off_c, 6, 66, 127
2, 117540, Note_on_c, 7, 67, 127
2, 117636, Note_off_c, 7, 67, 127
2, 117638, Note_on_c, 10, 69, 127
2, 118017, Note_off_c, 10, 69, 127
2, 118027, Note_on_c, 12, 71, 127
2, 118123, Note_off_c, 12, 71, 127
2, 118125, Note_on_c, 10, 69, 127
2, 118221, Note_off_c, 10, 69, 127
2, 118224, Note_on_c, 7, 67, 127
2, 118320, Note_off_c, 7, 67, 127
2, 118322, Note_on_c, 10, 69, 127
2, 118418, Note_off_c, 10, 69, 127
2, 118420, Note_on_c, 12, 71, 127
2, 118784, Note_off_c, 12, 71, 127
2, 118809, Note_on_c, 7, 67, 127
2, 119173, Note_off_c, 7, 67, 127
2, 119198, Note_on_c, 4, 64, 127
2, 119562, Note_off_c, 4, 64, 127
2, 119587, Note_on_c, 0, 72, 127
2, 120366, Note_on_c, 12, 71, 127
2, 120374, Note_off_c, 0, 72, 127
2, 120607, Note_off_c, 12, 71, 127
2, 120627, Note_on_c, 3, 75, 127
2, 120755, Note_off_c, 3, 75, 127
2, 120757, Note_on_c, 4, 76, 127
2, 121136, Note_off_c, 4, 76, 127
2, 121147, Note_on_c, 10, 69, 127
2, 121928, Note_on_c, 7, 67, 127
2, 121934, Note_off_c, 10, 69, 127
2, 122169, Note_off_c, 7, 67, 127
2, 122186, Note_on_c, 3, 75, 127
2, 122314, Note_off_c, 3, 75, 127
2, 122318, Note_on_c, 4, 76, 127
2, 122697, Note_off_c, 4, 76, 127
2, 122707, Note_on_c, 6, 66, 127
2, 123224, Note_off_c, 6, 66, 127
2, 123227, Note_on_c, 7, 67, 127
2, 123355, Note_off_c, 7, 67, 127
2, 123359, Note_on_c, 10, 69, 127
2, 123487, Note_off_c, 10, 69, 127
2, 123491, Note_on_c, 7, 67, 127
2, 123619, Note_off_c, 7, 67, 127
2, 123622, Note_on_c, 6, 66, 127
2, 123750, Note_off_c, 6, 66, 127
2, 123754, Note_on_c, 4, 64, 127
2, 123882, Note_off_c, 4, 64, 127
2, 123885, Note_on_c, 3, 63, 127
2, 124013, Note_off_c, 3, 63, 127
2, 124018, Note_on_c, 0, 72, 127
2, 124146, Note_off_c, 0, 72, 127
2, 124149, Note_on_c, 12, 71, 127
2, 124277, Note_off_c, 12, 71, 127
2, 124280, Note_on_c, 10, 69, 127
2, 124408, Note_off_c, 10, 69, 127
2, 124412, Note_on_c, 7, 67, 127
2, 124540, Note_off_c, 7, 67, 127
2, 124543, Note_on_c, 6, 66, 127
2, 124671, Note_off_c, 6, 66, 127
2, 124675, Note_on_c, 7, 67, 127
2, 124803, Note_off_c, 7, 67, 127
2, 124807, Note_on_c, 10, 69, 127
2, 124935, Note_off_c, 10, 69, 127
2, 124938, Note_on_c, 12, 71, 127
2, 125066, Note_off_c, 12, 71, 127
2, 125069, Note_on_c, 10, 69, 127
2, 125197, Note_off_c, 10, 69, 127
2, 125201, Note_on_c, 7, 67, 127
2, 125329, Note_off_c, 7, 67, 127
2, 125333, Note_on_c, 6, 66, 127
2, 125461, Note_off_c, 6, 66, 127
2, 125464, Note_on_c, 4, 64, 127
2, 125592, Note_off_c, 4, 64, 127
2, 125596, Note_on_c, 4, 76, 127
2, 125724, Note_off_c, 4, 76, 127
2, 125727, Note_on_c, 2, 74, 127
2, 125855, Note_off_c, 2, 74, 127
2, 125858, Note_on_c, 1, 73, 127
2, 125986, Note_off_c, 1, 73, 127
2, 125990, Note_on_c, 12, 59, 127
2, 125990, Note_on_c, 12, 71, 127
2, 126118, Note_off_c, 12, 71, 127
2, 126118, Note_off_c, 12, 59, 127
2, 126122, Note_on_c, 1, 61, 127
2, 126122, Note_on_c, 11, 70, 127
2, 126250, Note_off_c, 11, 70, 127
2, 126250, Note_off_c, 1, 61, 127
2, 126254, Note_on_c, 2, 62, 127
2, 126254, Note_on_c, 12, 71, 127
2, 126382, Note_off_c, 12, 71, 127
2, 126385, Note_on_c, 2, 74, 127
2, 126513, Note_off_c, 2, 74, 127
2, 126516, Note_on_c, 6, 78, 127
2, 126637, Note_off_c, 2, 62, 127
2, 126642, Note_off_c, 6, 78, 127
2, 126647, Note_on_c, 4, 64, 127
2, 126647, Note_on_c, 8, 80, 127
2, 126743, Note_off_c, 4, 64, 127
2, 126745, Note_on_c, 2, 62, 127
2, 126841, Note_off_c, 2, 62, 127
2, 126843, Note_on_c, 1, 61, 127
2, 126939, Note_off_c, 1, 61, 127
2, 126941, Note_on_c, 2, 62, 127
2, 127037, Note_off_c, 2, 62, 127
2, 127037, Note_off_c, 8, 80, 127
2, 127039, Note_on_c, 4, 64, 127
2, 127039, Note_on_c, 1, 73, 127
2, 127167, Note_off_c, 1, 73, 127
2, 127170, Note_on_c, 4, 76, 127
2, 127298, Note_off_c, 4, 76, 127
2, 127302, Note_on_c, 7, 79, 127
2, 127422, Note_off_c, 4, 64, 127
2, 127430, Note_off_c, 7, 79, 127
2, 127434, Note_on_c, 6, 66, 127
2, 127434, Note_on_c, 11, 82, 127
2, 127530, Note_off_c, 6, 66, 127
2, 127532, Note_on_c, 4, 64, 127
2, 127628, Note_off_c, 4, 64, 127
2, 127630, Note_on_c, 2, 62, 127
2, 127726, Note_off_c, 2, 62, 127
2, 127728, Note_on_c, 4, 64, 127
2, 127824, Note_off_c, 4, 64, 127
2, 127824, Note_off_c, 11, 82, 127
2, 127826, Note_on_c, 6, 66, 127
2, 127826, Note_on_c, 2, 74, 127
2, 127954, Note_off_c, 2, 74, 127
2, 127958, Note_on_c, 6, 78, 127
2, 128086, Note_off_c, 6, 78, 127
2, 128089, Note_on_c, 11, 82, 127
2, 128209, Note_off_c, 6, 66, 127
2, 128215, Note_off_c, 11, 82, 127
2, 128219, Note_on_c, 2, 62, 127
2, 128219, Note_on_c, 12, 83, 127
2, 128598, Note_off_c, 2, 62, 127
2, 128608, Note_on_c, 12, 59, 127
2, 128736, Note_off_c, 12, 83, 127
2, 128740, Note_on_c, 10, 81, 127
2, 128868, Note_off_c, 10, 81, 127
2, 128870, Note_on_c, 7, 79, 127
2, 128991, Note_off_c, 12, 59, 127
2, 128996, Note_off_c, 7, 79, 127
2, 129001, Note_on_c, 7, 67, 127
2, 129001, Note_on_c, 6, 78, 127
2, 129129, Note_off_c, 6, 78, 127
2, 129133, Note_on_c, 4, 76, 127
2, 129261, Note_off_c, 4, 76, 127
2, 129264, Note_on_c, 3, 75, 127
2, 129392, Note_off_c, 3, 75, 127
2, 129395, Note_on_c, 4, 76, 127
2, 129784, Note_off_c, 7, 67, 127
2, 129786, Note_on_c, 6, 66, 127
2, 130044, Note_off_c, 6, 66, 127
2, 130049, Note_on_c, 11, 70, 127
2, 130176, Note_off_c, 4, 76, 127
2, 130177, Note_off_c, 11, 70, 127
2, 130179, Note_on_c, 12, 71, 127
2, 130179, Note_on_c, 2, 74, 127
2, 130567, Note_off_c, 12, 71, 127
2, 130570, Note_on_c, 4, 64, 127
2, 130958, Note_off_c, 2, 74, 127
2, 130960, Note_on_c, 1, 73, 127
2, 131349, Note_off_c, 4, 64, 127
2, 131352, Note_on_c, 2, 62, 127
2, 131610, Note_off_c, 2, 62, 127
2, 131614, Note_on_c, 11, 70, 127
2, 131741, Note_off_c, 1, 73, 127
2, 131742, Note_off_c, 11, 70, 127
2, 131745, Note_on_c, 12, 71, 127
2, 132135, Note_on_c, 1, 61, 127
2, 132522, Note_off_c, 12, 71, 127
2, 132525, Note_on_c, 11, 70, 127
2, 132654, Note_off_c, 1, 61, 127
2, 132656, Note_on_c, 2, 62, 127
2, 132784, Note_off_c, 2, 62, 127
2, 132788, Note_on_c, 4, 64, 127
2, 132916, Note_off_c, 4, 64, 127
2, 132917, Note_off_c, 11, 70, 127
2, 132920, Note_on_c, 2, 62, 127
2, 132920, Note_on_c, 12, 71, 127
2, 133048, Note_off_c, 2, 62, 127
2, 133051, Note_on_c, 1, 61, 127
2, 133179, Note_off_c, 1, 61, 127
2, 133182, Note_on_c, 12, 59, 127
2, 133310, Note_off_c, 12, 59, 127
2, 133312, Note_off_c, 12, 71, 127
2, 133315, Note_on_c, 11, 58, 127
2, 133315, Note_on_c, 1, 73, 127
2, 133443, Note_off_c, 11, 58, 127
2, 133446, Note_on_c, 7, 67, 127
2, 133574, Note_off_c, 7, 67, 127
2, 133577, Note_on_c, 6, 66, 127
2, 133705, Note_off_c, 6, 66, 127
2, 133709, Note_on_c, 4, 64, 127
2, 133837, Note_off_c, 4, 64, 127
2, 133840, Note_on_c, 2, 62, 127
2, 133968, Note_off_c, 2, 62, 127
2, 133972, Note_on_c, 1, 61, 127
2, 134100, Note_off_c, 1, 61, 127
2, 134104, Note_on_c, 2, 62, 127
2, 134232, Note_off_c, 2, 62, 127
2, 134235, Note_on_c, 4, 64, 127
2, 134363, Note_off_c, 4, 64, 127
2, 134366, Note_on_c, 6, 66, 127
2, 134494, Note_off_c, 6, 66, 127
2, 134496, Note_off_c, 1, 73, 127
2, 134498, Note_on_c, 4, 64, 127
2, 134498, Note_on_c, 6, 78, 127
2, 134626, Note_off_c, 4, 64, 127
2, 134630, Note_on_c, 2, 62, 127
2, 134758, Note_off_c, 2, 62, 127
2, 134758, Note_off_c, 6, 78, 127
2, 134761, Note_on_c, 1, 61, 127
2, 134761, Note_on_c, 11, 70, 127
2, 134889, Note_off_c, 11, 70, 127
2, 134889, Note_off_c, 1, 61, 127
2, 134893, Note_on_c, 12, 59, 127
2, 134893, Note_on_c, 12, 71, 127
2, 135021, Note_off_c, 12, 59, 127
2, 135024, Note_on_c, 10, 69, 127
2, 135152, Note_off_c, 10, 69, 127
2, 135156, Note_on_c, 7, 67, 127
2, 135284, Note_off_c, 7, 67, 127
2, 135287, Note_on_c, 6, 66, 127
2, 135415, Note_off_c, 6, 66, 127
2, 135419, Note_on_c, 4, 52, 127
2, 135419, Note_on_c, 4, 64, 127
2, 135547, Note_off_c, 4, 64, 127
2, 135547, Note_off_c, 4, 52, 127
2, 135551, Note_on_c, 6, 54, 127
2, 135551, Note_on_c, 3, 63, 127
2, 135679, Note_off_c, 3, 63, 127
2, 135679, Note_off_c, 6, 54, 127
2, 135682, Note_on_c, 7, 55, 127
2, 135682, Note_on_c, 4, 64, 127
2, 135810, Note_off_c, 12, 71, 127
2, 135813, Note_on_c, 7, 67, 127
2, 135941, Note_off_c, 7, 67, 127
2, 135945, Note_on_c, 12, 71, 127
2, 136073, Note_off_c, 12, 71, 127
2, 136074, Note_off_c, 7, 55, 127
2, 136077, Note_on_c, 10, 57, 127
2, 136077, Note_on_c, 1, 73, 127
2, 136173, Note_off_c, 10, 57, 127
2, 136175, Note_on_c, 7, 55, 127
2, 136271, Note_off_c, 7, 55, 127
2, 136273, Note_on_c, 6, 54, 127
2, 136369, Note_off_c, 6, 54, 127
2, 136371, Note_on_c, 7, 55, 127
2, 136467, Note_off_c, 7, 55, 127
2, 136467, Note_off_c, 4, 64, 127
2, 136469, Note_on_c, 10, 57, 127
2, 136469, Note_on_c, 6, 66, 127
2, 136597, Note_off_c, 1, 73, 127
2, 136600, Note_on_c, 10, 69, 127
2, 136728, Note_off_c, 10, 69, 127
2, 136733, Note_on_c, 0, 72, 127
2, 136861, Note_off_c, 0, 72, 127
2, 136861, Note_off_c, 10, 57, 127
2, 136864, Note_on_c, 12, 59, 127
2, 136864, Note_on_c, 3, 75, 127
2, 136960, Note_off_c, 12, 59, 127
2, 136962, Note_on_c, 10, 57, 127
2, 137058, Note_off_c, 10, 57, 127
2, 137060, Note_on_c, 7, 55, 127
2, 137156, Note_off_c, 7, 55, 127
2, 137158, Note_on_c, 10, 57, 127
2, 137254, Note_off_c, 10, 57, 127
2, 137254, Note_off_c, 6, 66, 127
2, 137257, Note_on_c, 12, 59, 127
2, 137257, Note_on_c, 7, 67, 127
2, 137384, Note_off_c, 3, 75, 127
2, 137388, Note_on_c, 12, 71, 127
2, 137516, Note_off_c, 12, 71, 127
2, 137520, Note_on_c, 3, 75, 127
2, 137648, Note_off_c, 3, 75, 127
2, 137649, Note_off_c, 12, 59, 127
2, 137652, Note_on_c, 7, 55, 127
2, 137652, Note_on_c, 4, 76, 127
2, 138040, Note_off_c, 7, 55, 127
2, 138040, Note_off_c, 7, 67, 127
2, 138043, Note_on_c, 4, 52, 127
2, 138043, Note_on_c, 8, 68, 127
2, 138171, Note_off_c, 8, 68, 127
2, 138174, Note_on_c, 2, 74, 127
2, 138302, Note_off_c, 2, 74, 127
2, 138305, Note_on_c, 0, 72, 127
2, 138433, Note_off_c, 0, 72, 127
2, 138435, Note_off_c, 4, 52, 127
2, 138437, Note_on_c, 0, 60, 127
2, 138437, Note_on_c, 12, 71, 127
2, 138565, Note_off_c, 12, 71, 127
2, 138569, Note_on_c, 10, 69, 127
2, 138697, Note_off_c, 10, 69, 127
2, 138700, Note_on_c, 8, 68, 127
2, 138828, Note_off_c, 8, 68, 127
2, 138832, Note_on_c, 10, 69, 127
2, 138960, Note_off_c, 4, 76, 127
2, 138963, Note_on_c, 3, 75, 127
2, 139091, Note_off_c, 3, 75, 127
2, 139094, Note_on_c, 4, 76, 127
2, 139222, Note_off_c, 4, 76, 127
2, 139224, Note_off_c, 0, 60, 127
2, 139227, Note_on_c, 12, 59, 127
2, 139227, Note_on_c, 6, 78, 127
2, 139485, Note_off_c, 12, 59, 127
2, 139487, Note_on_c, 3, 63, 127
2, 139615, Note_off_c, 3, 63, 127
2, 139617, Note_off_c, 10, 69, 127
2, 139619, Note_on_c, 4, 64, 127
2, 139619, Note_on_c, 7, 67, 127
2, 139747, Note_off_c, 6, 78, 127
2, 139751, Note_on_c, 4, 76, 127
2, 139879, Note_off_c, 4, 76, 127
2, 139882, Note_on_c, 2, 74, 127
2, 140010, Note_off_c, 2, 74, 127
2, 140011, Note_off_c, 4, 64, 127
2, 140014, Note_on_c, 10, 57, 127
2, 140014, Note_on_c, 1, 73, 127
2, 140142, Note_off_c, 1, 73, 127
2, 140146, Note_on_c, 3, 75, 127
2, 140274, Note_off_c, 3, 75, 127
2, 140276, Note_on_c, 4, 76, 127
2, 140404, Note_off_c, 4, 76, 127
2, 140406, Note_off_c, 7, 67, 127
2, 140408, Note_on_c, 6, 66, 127
2, 140408, Note_on_c, 3, 75, 127
2, 140536, Note_off_c, 3, 75, 127
2, 140541, Note_on_c, 4, 76, 127
2, 140669, Note_off_c, 4, 76, 127
2, 140671, Note_on_c, 6, 78, 127
2, 140799, Note_off_c, 6, 78, 127
2, 140801, Note_off_c, 10, 57, 127
2, 140803, Note_on_c, 7, 55, 127
2, 140803, Note_on_c, 12, 71, 127
2, 141061, Note_off_c, 7, 55, 127
2, 141064, Note_on_c, 3, 63, 127
2, 141192, Note_off_c, 3, 63, 127
2, 141193, Note_off_c, 6, 66, 127
2, 141196, Note_on_c, 4, 64, 127
2, 141323, Note_off_c, 12, 71, 127
2, 141328, Note_on_c, 10, 69, 127
2, 141456, Note_off_c, 10, 69, 127
2, 141458, Note_on_c, 7, 67, 127
2, 141586, Note_off_c, 7, 67, 127
2, 141590, Note_on_c, 6, 54, 127
2, 141590, Note_on_c, 10, 69, 127
2, 141718, Note_off_c, 10, 69, 127
2, 141722, Note_on_c, 12, 71, 127
2, 141850, Note_off_c, 12, 71, 127
2, 141854, Note_on_c, 0, 72, 127
2, 141983, Note_off_c, 4, 64, 127
2, 141985, Note_on_c, 3, 63, 127
2, 142112, Note_off_c, 6, 54, 127
2, 142117, Note_on_c, 7, 55, 127
2, 142245, Note_off_c, 7, 55, 127
2, 142248, Note_on_c, 10, 57, 127
2, 142376, Note_off_c, 10, 57, 127
2, 142376, Note_off_c, 0, 72, 127
2, 142377, Note_off_c, 3, 63, 127
2, 142379, Note_on_c, 7, 55, 127
2, 142379, Note_on_c, 4, 64, 127
2, 142379, Note_on_c, 12, 71, 127
2, 142507, Note_off_c, 12, 71, 127
2, 142507, Note_off_c, 7, 55, 127
2, 142512, Note_on_c, 6, 54, 127
2, 142512, Note_on_c, 10, 69, 127
2, 142640, Note_off_c, 10, 69, 127
2, 142640, Note_off_c, 6, 54, 127
2, 142643, Note_on_c, 4, 52, 127
2, 142643, Note_on_c, 7, 67, 127
2, 142771, Note_off_c, 7, 67, 127
2, 142771, Note_off_c, 4, 52, 127
2, 142771, Note_off_c, 4, 64, 127
2, 142774, Note_on_c, 3, 51, 127
2, 142774, Note_on_c, 6, 66, 127
2, 142774, Note_on_c, 10, 69, 127
2, 142902, Note_off_c, 3, 51, 127
2, 142906, Note_on_c, 0, 60, 127
2, 143034, Note_off_c, 0, 60, 127
2, 143037, Note_on_c, 12, 59, 127
2, 143165, Note_off_c, 12, 59, 127
2, 143166, Note_off_c, 10, 69, 127
2, 143169, Note_on_c, 10, 57, 127
2, 143169, Note_on_c, 3, 63, 127
2, 143297, Note_off_c, 10, 57, 127
2, 143301, Note_on_c, 7, 55, 127
2, 143429, Note_off_c, 7, 55, 127
2, 143432, Note_on_c, 6, 54, 127
2, 143560, Note_off_c, 6, 54, 127
2, 143561, Note_off_c, 3, 63, 127
2, 143563, Note_on_c, 7, 55, 127
2, 143563, Note_on_c, 12, 71, 127
2, 143691, Note_off_c, 7, 55, 127
2, 143695, Note_on_c, 10, 57, 127
2, 143823, Note_off_c, 10, 57, 127
2, 143823, Note_off_c, 6, 66, 127
2, 143826, Note_on_c, 12, 59, 127
2, 143826, Note_on_c, 3, 63, 127
2, 143954, Note_off_c, 3, 63, 127
2, 143954, Note_off_c, 12, 59, 127
2, 143958, Note_on_c, 10, 57, 127
2, 143958, Note_on_c, 4, 64, 127
2, 144086, Note_off_c, 10, 57, 127
2, 144090, Note_on_c, 7, 55, 127
2, 144218, Note_off_c, 7, 55, 127
2, 144218, Note_off_c, 4, 64, 127
2, 144221, Note_on_c, 6, 54, 127
2, 144221, Note_on_c, 6, 66, 127
2, 144349, Note_off_c, 6, 66, 127
2, 144349, Note_off_c, 6, 54, 127
2, 144353, Note_on_c, 4, 52, 127
2, 144353, Note_on_c, 7, 67, 127
2, 144481, Note_off_c, 4, 52, 127
2, 144484, Note_on_c, 2, 62, 127
2, 144612, Note_off_c, 2, 62, 127
2, 144612, Note_off_c, 12, 71, 127
2, 144616, Note_on_c, 0, 60, 127
2, 144616, Note_on_c, 4, 64, 127
2, 144744, Note_off_c, 4, 64, 127
2, 144744, Note_off_c, 0, 60, 127
2, 144748, Note_on_c, 12, 59, 127
2, 144748, Note_on_c, 3, 63, 127
2, 144876, Note_off_c, 12, 59, 127
2, 144879, Note_on_c, 10, 57, 127
2, 145007, Note_off_c, 10, 57, 127
2, 145008, Note_off_c, 3, 63, 127
2, 145010, Note_on_c, 7, 55, 127
2, 145010, Note_on_c, 4, 64, 127
2, 145138, Note_off_c, 4, 64, 127
2, 145138, Note_off_c, 7, 55, 127
2, 145142, Note_on_c, 10, 57, 127
2, 145142, Note_on_c, 0, 72, 127
2, 145270, Note_off_c, 10, 57, 127
2, 145274, Note_on_c, 12, 59, 127
2, 145402, Note_off_c, 12, 59, 127
2, 145402, Note_off_c, 7, 67, 127
2, 145405, Note_on_c, 0, 60, 127
2, 145405, Note_on_c, 4, 64, 127
2, 145533, Note_off_c, 4, 64, 127
2, 145533, Note_off_c, 0, 60, 127
2, 145537, Note_on_c, 12, 59, 127
2, 145537, Note_on_c, 6, 66, 127
2, 145665, Note_off_c, 12, 59, 127
2, 145668, Note_on_c, 10, 57, 127
2, 145796, Note_off_c, 10, 57, 127
2, 145797, Note_off_c, 6, 66, 127
2, 145800, Note_on_c, 7, 55, 127
2, 145800, Note_on_c, 7, 67, 127
2, 145928, Note_off_c, 7, 67, 127
2, 145928, Note_off_c, 7, 55, 127
2, 145932, Note_on_c, 6, 54, 127
2, 145932, Note_on_c, 10, 69, 127
2, 146060, Note_off_c, 6, 54, 127
2, 146063, Note_on_c, 4, 64, 127
2, 146191, Note_off_c, 4, 64, 127
2, 146191, Note_off_c, 0, 72, 127
2, 146195, Note_on_c, 2, 62, 127
2, 146195, Note_on_c, 6, 66, 127
2, 146323, Note_off_c, 6, 66, 127
2, 146323, Note_off_c, 2, 62, 127
2, 146326, Note_on_c, 0, 60, 127
2, 146326, Note_on_c, 4, 64, 127
2, 146454, Note_off_c, 0, 60, 127
2, 146457, Note_on_c, 12, 59, 127
2, 146585, Note_off_c, 12, 59, 127
2, 146586, Note_off_c, 4, 64, 127
2, 146589, Note_on_c, 10, 57, 127
2, 146589, Note_on_c, 6, 66, 127
2, 146717, Note_off_c, 6, 66, 127
2, 146717, Note_off_c, 10, 57, 127
2, 146721, Note_on_c, 12, 59, 127
2, 146721, Note_on_c, 2, 74, 127
2, 146849, Note_off_c, 12, 59, 127
2, 146853, Note_on_c, 0, 60, 127
2, 146981, Note_off_c, 0, 60, 127
2, 146981, Note_off_c, 10, 69, 127
2, 146984, Note_on_c, 2, 62, 127
2, 146984, Note_on_c, 6, 66, 127
2, 147112, Note_off_c, 6, 66, 127
2, 147112, Note_off_c, 2, 62, 127
2, 147115, Note_on_c, 0, 60, 127
2, 147115, Note_on_c, 7, 67, 127
2, 147243, Note_off_c, 0, 60, 127
2, 147247, Note_on_c, 12, 59, 127
2, 147375, Note_off_c, 12, 59, 127
2, 147375, Note_off_c, 7, 67, 127
2, 147379, Note_on_c, 10, 57, 127
2, 147379, Note_on_c, 10, 69, 127
2, 147507, Note_off_c, 10, 69, 127
2, 147507, Note_off_c, 10, 57, 127
2, 147510, Note_on_c, 7, 55, 127
2, 147510, Note_on_c, 12, 71, 127
2, 147638, Note_off_c, 7, 55, 127
2, 147638, Note_off_c, 2, 74, 127
2, 147642, Note_on_c, 12, 59, 127
2, 147642, Note_on_c, 7, 67, 127
2, 147770, Note_off_c, 7, 67, 127
2, 147770, Note_off_c, 12, 59, 127
2, 147770, Note_off_c, 12, 71, 127
2, 147773, Note_on_c, 2, 62, 127
2, 147773, Note_on_c, 10, 69, 127
2, 147901, Note_off_c, 10, 69, 127
2, 147901, Note_off_c, 2, 62, 127
2, 147904, Note_on_c, 7, 67, 127
2, 147904, Note_on_c, 12, 71, 127
2, 148032, Note_off_c, 12, 71, 127
2, 148037, Note_on_c, 0, 72, 127
2, 148165, Note_off_c, 0, 72, 127
2, 148168, Note_on_c, 2, 74, 127
2, 148296, Note_off_c, 2, 74, 127
2, 148296, Note_off_c, 7, 67, 127
2, 148299, Note_on_c, 0, 60, 127
2, 148299, Note_on_c, 4, 76, 127
2, 148429, Note_on_c, 2, 74, 127
2, 148557, Note_off_c, 2, 74, 127
2, 148560, Note_on_c, 0, 72, 127
2, 148688, Note_off_c, 0, 72, 127
2, 148689, Note_off_c, 0, 60, 127
2, 148692, Note_on_c, 4, 64, 127
2, 148692, Note_on_c, 12, 71, 127
2, 148820, Note_off_c, 12, 71, 127
2, 148824, Note_on_c, 10, 69, 127
2, 148952, Note_off_c, 10, 69, 127
2, 148956, Note_on_c, 7, 67, 127
2, 149084, Note_off_c, 7, 67, 127
2, 149084, Note_off_c, 4, 64, 127
2, 149086, Note_on_c, 6, 54, 127
2, 149086, Note_on_c, 10, 69, 127
2, 149214, Note_off_c, 6, 54, 127
2, 149214, Note_off_c, 4, 76, 127
2, 149218, Note_on_c, 10, 57, 127
2, 149218, Note_on_c, 6, 66, 127
2, 149346, Note_off_c, 6, 66, 127
2, 149346, Note_off_c, 10, 57, 127
2, 149346, Note_off_c, 10, 69, 127
2, 149351, Note_on_c, 0, 60, 127
2, 149351, Note_on_c, 7, 67, 127
2, 149479, Note_off_c, 7, 67, 127
2, 149479, Note_off_c, 0, 60, 127
2, 149481, Note_on_c, 6, 66, 127
2, 149481, Note_on_c, 10, 69, 127
2, 149609, Note_off_c, 10, 69, 127
2, 149613, Note_on_c, 12, 71, 127
2, 149741, Note_off_c, 12, 71, 127
2, 149745, Note_on_c, 0, 72, 127
2, 149873, Note_off_c, 0, 72, 127
2, 149873, Note_off_c, 6, 66, 127
2, 149875, Note_on_c, 12, 59, 127
2, 149875, Note_on_c, 2, 74, 127
2, 150006, Note_on_c, 0, 72, 127
2, 150134, Note_off_c, 0, 72, 127
2, 150138, Note_on_c, 12, 71, 127
2, 150265, Note_off_c, 12, 59, 127
2, 150266, Note_off_c, 12, 71, 127
2, 150268, Note_on_c, 2, 62, 127
2, 150268, Note_on_c, 10, 69, 127
2, 150396, Note_off_c, 10, 69, 127
2, 150400, Note_on_c, 7, 67, 127
2, 150528, Note_off_c, 7, 67, 127
2, 150532, Note_on_c, 6, 66, 127
2, 150660, Note_off_c, 6, 66, 127
2, 150660, Note_off_c, 2, 62, 127
2, 150663, Note_on_c, 4, 52, 127
2, 150663, Note_on_c, 7, 67, 127
2, 150790, Note_off_c, 2, 74, 127
2, 150791, Note_off_c, 4, 52, 127
2, 150795, Note_on_c, 7, 55, 127
2, 150795, Note_on_c, 4, 64, 127
2, 150923, Note_off_c, 4, 64, 127
2, 150923, Note_off_c, 7, 55, 127
2, 150923, Note_off_c, 7, 67, 127
2, 150927, Note_on_c, 12, 59, 127
2, 150927, Note_on_c, 6, 66, 127
2, 151055, Note_off_c, 6, 66, 127
2, 151055, Note_off_c, 12, 59, 127
2, 151057, Note_on_c, 4, 64, 127
2, 151057, Note_on_c, 7, 67, 127
2, 151185, Note_off_c, 7, 67, 127
2, 151189, Note_on_c, 10, 69, 127
2, 151317, Note_off_c, 10, 69, 127
2, 151322, Note_on_c, 12, 71, 127
2, 151449, Note_off_c, 4, 64, 127
2, 151450, Note_off_c, 12, 71, 127
2, 151453, Note_on_c, 10, 57, 127
2, 151453, Note_on_c, 0, 72, 127
2, 151582, Note_on_c, 12, 71, 127
2, 151710, Note_off_c, 12, 71, 127
2, 151714, Note_on_c, 10, 69, 127
2, 151842, Note_off_c, 10, 69, 127
2, 151843, Note_off_c, 10, 57, 127
2, 151845, Note_on_c, 0, 60, 127
2, 151845, Note_on_c, 7, 67, 127
2, 151973, Note_off_c, 7, 67, 127
2, 151977, Note_on_c, 6, 66, 127
2, 152105, Note_off_c, 6, 66, 127
2, 152109, Note_on_c, 4, 64, 127
2, 152237, Note_off_c, 4, 64, 127
2, 152237, Note_off_c, 0, 60, 127
2, 152240, Note_on_c, 2, 50, 127
2, 152240, Note_on_c, 6, 66, 127
2, 152368, Note_off_c, 2, 50, 127
2, 152368, Note_off_c, 0, 72, 127
2, 152371, Note_on_c, 6, 54, 127
2, 152371, Note_on_c, 2, 62, 127
2, 152499, Note_off_c, 2, 62, 127
2, 152499, Note_off_c, 6, 54, 127
2, 152500, Note_off_c, 6, 66, 127
2, 152503, Note_on_c, 10, 57, 127
2, 152503, Note_on_c, 4, 64, 127
2, 152631, Note_off_c, 4, 64, 127
2, 152631, Note_off_c, 10, 57, 127
2, 152635, Note_on_c, 2, 62, 127
2, 152635, Note_on_c, 6, 66, 127
2, 152763, Note_off_c, 6, 66, 127
2, 152766, Note_on_c, 7, 67, 127
2, 152894, Note_off_c, 7, 67, 127
2, 152898, Note_on_c, 10, 69, 127
2, 153026, Note_off_c, 10, 69, 127
2, 153027, Note_off_c, 2, 62, 127
2, 153029, Note_on_c, 7, 55, 127
2, 153029, Note_on_c, 12, 71, 127
2, 153158, Note_on_c, 12, 59, 127
2, 153286, Note_off_c, 12, 59, 127
2, 153291, Note_on_c, 2, 62, 127
2, 153419, Note_off_c, 2, 62, 127
2, 153419, Note_off_c, 12, 71, 127
2, 153423, Note_on_c, 4, 64, 127
2, 153423, Note_on_c, 0, 72, 127
2, 153519, Note_off_c, 0, 72, 127
2, 153521, Note_on_c, 12, 71, 127
2, 153617, Note_off_c, 12, 71, 127
2, 153619, Note_on_c, 10, 69, 127
2, 153715, Note_off_c, 10, 69, 127
2, 153717, Note_on_c, 12, 71, 127
2, 153812, Note_off_c, 7, 55, 127
2, 153813, Note_off_c, 12, 71, 127
2, 153815, Note_on_c, 10, 57, 127
2, 153815, Note_on_c, 0, 72, 127
2, 153943, Note_off_c, 4, 64, 127
2, 153947, Note_on_c, 0, 60, 127
2, 154075, Note_off_c, 0, 60, 127
2, 154078, Note_on_c, 4, 64, 127
2, 154206, Note_off_c, 4, 64, 127
2, 154207, Note_off_c, 0, 72, 127
2, 154210, Note_on_c, 6, 66, 127
2, 154210, Note_on_c, 2, 74, 127
2, 154306, Note_off_c, 2, 74, 127
2, 154308, Note_on_c, 0, 72, 127
2, 154404, Note_off_c, 0, 72, 127
2, 154406, Note_on_c, 12, 71, 127
2, 154502, Note_off_c, 12, 71, 127
2, 154505, Note_on_c, 0, 72, 127
2, 154600, Note_off_c, 10, 57, 127
2, 154601, Note_off_c, 0, 72, 127
2, 154603, Note_on_c, 12, 59, 127
2, 154603, Note_on_c, 2, 74, 127
2, 154730, Note_off_c, 6, 66, 127
2, 154734, Note_on_c, 2, 62, 127
2, 154862, Note_off_c, 2, 62, 127
2, 154865, Note_on_c, 6, 66, 127
2, 154993, Note_off_c, 6, 66, 127
2, 154995, Note_off_c, 2, 74, 127
2, 154997, Note_on_c, 7, 67, 127
2, 154997, Note_on_c, 12, 71, 127
2, 155125, Note_off_c, 7, 67, 127
2, 155127, Note_off_c, 12, 59, 127
2, 155128, Note_on_c, 7, 55, 127
2, 155256, Note_off_c, 7, 55, 127
2, 155260, Note_on_c, 12, 59, 127
2, 155388, Note_off_c, 12, 59, 127
2, 155389, Note_off_c, 12, 71, 127
2, 155392, Note_on_c, 7, 67, 127
2, 155392, Note_on_c, 7, 55, 127
2, 155520, Note_off_c, 7, 55, 127
2, 155523, Note_on_c, 4, 52, 127
2, 155651, Note_off_c, 4, 52, 127
2, 155655, Note_on_c, 6, 54, 127
2, 155783, Note_off_c, 6, 54, 127
2, 155784, Note_off_c, 7, 67, 127
2, 155786, Note_on_c, 7, 55, 127
2, 155786, Note_on_c, 4, 76, 127
2, 155914, Note_off_c, 7, 55, 127
2, 155918, Note_on_c, 10, 57, 127
2, 156046, Note_off_c, 10, 57, 127
2, 156050, Note_on_c, 12, 59, 127
2, 156178, Note_off_c, 12, 59, 127
2, 156181, Note_on_c, 0, 60, 127
2, 156310, Note_on_c, 10, 57, 127
2, 156438, Note_off_c, 10, 57, 127
2, 156443, Note_on_c, 7, 55, 127
2, 156571, Note_off_c, 7, 55, 127
2, 156571, Note_off_c, 4, 76, 127
2, 156574, Note_on_c, 6, 54, 127
2, 156574, Note_on_c, 2, 74, 127
2, 156702, Note_off_c, 6, 54, 127
2, 156705, Note_on_c, 7, 55, 127
2, 156833, Note_off_c, 7, 55, 127
2, 156834, Note_off_c, 2, 74, 127
2, 156837, Note_on_c, 10, 57, 127
2, 156837, Note_on_c, 6, 78, 127
2, 156965, Note_off_c, 6, 78, 127
2, 156965, Note_off_c, 10, 57, 127
2, 156966, Note_off_c, 0, 60, 127
2, 156968, Note_on_c, 12, 59, 127
2, 156968, Note_on_c, 7, 79, 127
2, 157098, Note_on_c, 7, 55, 127
2, 157226, Note_off_c, 7, 55, 127
2, 157230, Note_on_c, 6, 54, 127
2, 157358, Note_off_c, 6, 54, 127
2, 157358, Note_off_c, 7, 79, 127
2, 157361, Note_on_c, 4, 52, 127
2, 157361, Note_on_c, 0, 72, 127
2, 157489, Note_off_c, 4, 52, 127
2, 157492, Note_on_c, 6, 54, 127
2, 157620, Note_off_c, 6, 54, 127
2, 157624, Note_on_c, 7, 55, 127
2, 157752, Note_off_c, 7, 55, 127
2, 157753, Note_off_c, 12, 59, 127
2, 157756, Note_on_c, 10, 57, 127
2, 157885, Note_on_c, 6, 54, 127
2, 158013, Note_off_c, 6, 54, 127
2, 158017, Note_on_c, 4, 52, 127
2, 158145, Note_off_c, 4, 52, 127
2, 158146, Note_off_c, 0, 72, 127
2, 158149, Note_on_c, 2, 50, 127
2, 158149, Note_on_c, 12, 71, 127
2, 158277, Note_off_c, 2, 50, 127
2, 158279, Note_on_c, 4, 52, 127
2, 158407, Note_off_c, 4, 52, 127
2, 158409, Note_off_c, 12, 71, 127
2, 158412, Note_on_c, 0, 48, 127
2, 158412, Note_on_c, 6, 78, 127
2, 158540, Note_off_c, 6, 78, 127
2, 158540, Note_off_c, 0, 48, 127
2, 158541, Note_off_c, 10, 57, 127
2, 158544, Note_on_c, 12, 47, 127
2, 158544, Note_on_c, 7, 79, 127
2, 158672, Note_on_c, 2, 50, 127
2, 158800, Note_off_c, 2, 50, 127
2, 158804, Note_on_c, 7, 55, 127
2, 158934, Note_off_c, 7, 79, 127
2, 158934, Note_off_c, 12, 47, 127
2, 158936, Note_on_c, 1, 49, 127
2, 158936, Note_on_c, 10, 69, 127
2, 159064, Note_off_c, 7, 55, 127
2, 159067, Note_on_c, 6, 54, 127
2, 159195, Note_off_c, 6, 54, 127
2, 159199, Note_on_c, 7, 55, 127
2, 159327, Note_off_c, 7, 55, 127
2, 159328, Note_off_c, 1, 49, 127
2, 159331, Note_on_c, 2, 50, 127
2, 159331, Note_on_c, 6, 54, 127
2, 159458, Note_off_c, 10, 69, 127
2, 159462, Note_on_c, 12, 71, 127
2, 159590, Note_off_c, 12, 71, 127
2, 159593, Note_on_c, 0, 72, 127
2, 159721, Note_off_c, 0, 72, 127
2, 159723, Note_off_c, 6, 54, 127
2, 159726, Note_on_c, 7, 55, 127
2, 159726, Note_on_c, 12, 71, 127
2, 159854, Note_off_c, 12, 71, 127
2, 159857, Note_on_c, 10, 69, 127
2, 159985, Note_off_c, 10, 69, 127
2, 159988, Note_on_c, 7, 67, 127
2, 160116, Note_off_c, 7, 67, 127
2, 160118, Note_off_c, 7, 55, 127
2, 160120, Note_on_c, 10, 57, 127
2, 160120, Note_on_c, 6, 66, 127
2, 160248, Note_off_c, 6, 66, 127
2, 160252, Note_on_c, 4, 76, 127
2, 160380, Note_off_c, 4, 76, 127
2, 160383, Note_on_c, 2, 74, 127
2, 160511, Note_off_c, 2, 74, 127
2, 160512, Note_off_c, 10, 57, 127
2, 160512, Note_off_c, 2, 50, 127
2, 160515, Note_on_c, 2, 50, 127
2, 160515, Note_on_c, 6, 54, 127
2, 160515, Note_on_c, 0, 72, 127
2, 160643, Note_off_c, 0, 72, 127
2, 160647, Note_on_c, 12, 71, 127
2, 160775, Note_off_c, 12, 71, 127
2, 160777, Note_on_c, 10, 69, 127
2, 160905, Note_off_c, 10, 69, 127
2, 160907, Note_off_c, 6, 54, 127
2, 160907, Note_off_c, 2, 50, 127
2, 160909, Note_on_c, 7, 55, 127
2, 160909, Note_on_c, 12, 71, 127
2, 161037, Note_off_c, 12, 71, 127
2, 161041, Note_on_c, 0, 72, 127
2, 161169, Note_off_c, 0, 72, 127
2, 161172, Note_on_c, 12, 59, 127
2, 161172, Note_on_c, 2, 74, 127
2, 161300, Note_off_c, 2, 74, 127
2, 161300, Note_off_c, 12, 59, 127
2, 161304, Note_on_c, 2, 62, 127
2, 161304, Note_on_c, 0, 72, 127
2, 161432, Note_off_c, 0, 72, 127
2, 161436, Note_on_c, 12, 71, 127
2, 161564, Note_off_c, 12, 71, 127
2, 161564, Note_off_c, 7, 55, 127
2, 161566, Note_on_c, 6, 54, 127
2, 161566, Note_on_c, 10, 69, 127
2, 161694, Note_off_c, 10, 69, 127
2, 161694, Note_off_c, 6, 54, 127
2, 161698, Note_on_c, 4, 52, 127
2, 161698, Note_on_c, 7, 67, 127
2, 161826, Note_off_c, 7, 67, 127
2, 161831, Note_on_c, 7, 79, 127
2, 161959, Note_off_c, 7, 79, 127
2, 161961, Note_on_c, 6, 78, 127
2, 162089, Note_off_c, 6, 78, 127
2, 162090, Note_off_c, 4, 52, 127
2, 162091, Note_off_c, 2, 62, 127
2, 162093, Note_on_c, 10, 57, 127
2, 162093, Note_on_c, 1, 61, 127
2, 162093, Note_on_c, 4, 76, 127
2, 162221, Note_off_c, 4, 76, 127
2, 162221, Note_off_c, 1, 61, 127
2, 162225, Note_on_c, 2, 62, 127
2, 162225, Note_on_c, 2, 74, 127
2, 162353, Note_off_c, 2, 74, 127
2, 162353, Note_off_c, 2, 62, 127
2, 162356, Note_on_c, 4, 64, 127
2, 162356, Note_on_c, 1, 73, 127
2, 162484, Note_off_c, 1, 73, 127
2, 162484, Note_off_c, 4, 64, 127
2, 162485, Note_off_c, 10, 57, 127
2, 162488, Note_on_c, 2, 50, 127
2, 162488, Note_on_c, 6, 66, 127
2, 162488, Note_on_c, 2, 74, 127
2, 162616, Note_off_c, 2, 50, 127
2, 162620, Note_on_c, 6, 54, 127
2, 162748, Note_off_c, 6, 54, 127
2, 162751, Note_on_c, 10, 57, 127
2, 162879, Note_off_c, 10, 57, 127
2, 162880, Note_off_c, 6, 66, 127
2, 162882, Note_on_c, 12, 59, 127
2, 162882, Note_on_c, 7, 67, 127
2, 162978, Note_off_c, 7, 67, 127
2, 162980, Note_on_c, 6, 66, 127
2, 163076, Note_off_c, 6, 66, 127
2, 163077, Note_off_c, 2, 74, 127
2, 163078, Note_on_c, 4, 64, 127
2, 163174, Note_off_c, 4, 64, 127
2, 163177, Note_on_c, 6, 66, 127
2, 163272, Note_off_c, 12, 59, 127
2, 163273, Note_off_c, 6, 66, 127
2, 163275, Note_on_c, 4, 52, 127
2, 163275, Note_on_c, 7, 67, 127
2, 163275, Note_on_c, 1, 73, 127
2, 163403, Note_off_c, 4, 52, 127
2, 163407, Note_on_c, 7, 55, 127
2, 163535, Note_off_c, 7, 55, 127
2, 163538, Note_on_c, 10, 57, 127
2, 163666, Note_off_c, 10, 57, 127
2, 163667, Note_off_c, 7, 67, 127
2, 163669, Note_on_c, 1, 61, 127
2, 163669, Note_on_c, 10, 69, 127
2, 163765, Note_off_c, 10, 69, 127
2, 163768, Note_on_c, 7, 67, 127
2, 163864, Note_off_c, 7, 67, 127
2, 163864, Note_off_c, 1, 73, 127
2, 163866, Note_on_c, 6, 66, 127
2, 163962, Note_off_c, 6, 66, 127
2, 163964, Note_on_c, 7, 67, 127
2, 164059, Note_off_c, 1, 61, 127
2, 164060, Note_off_c, 7, 67, 127
2, 164062, Note_on_c, 6, 54, 127
2, 164062, Note_on_c, 10, 69, 127
2, 164062, Note_on_c, 0, 72, 127
2, 164190, Note_off_c, 6, 54, 127
2, 164194, Note_on_c, 7, 55, 127
2, 164322, Note_off_c, 7, 55, 127
2, 164325, Note_on_c, 10, 57, 127
2, 164453, Note_off_c, 10, 57, 127
2, 164454, Note_off_c, 10, 69, 127
2, 164457, Note_on_c, 2, 62, 127
2, 164457, Note_on_c, 6, 66, 127
2, 164651, Note_off_c, 0, 72, 127
2, 164844, Note_off_c, 2, 62, 127
2, 164847, Note_off_c, 6, 66, 127
2, 164850, Note_on_c, 2, 62, 127
2, 164850, Note_on_c, 12, 71, 127
2, 164980, Note_on_c, 0, 60, 127
2, 165108, Note_off_c, 0, 60, 127
2, 165111, Note_on_c, 12, 59, 127
2, 165239, Note_off_c, 12, 59, 127
2, 165240, Note_off_c, 12, 71, 127
2, 165240, Note_off_c, 2, 62, 127
2, 165243, Note_on_c, 10, 57, 127
2, 165243, Note_on_c, 12, 71, 127
2, 165243, Note_on_c, 2, 74, 127
2, 165371, Note_off_c, 10, 57, 127
2, 165374, Note_on_c, 7, 55, 127
2, 165502, Note_off_c, 7, 55, 127
2, 165505, Note_on_c, 6, 54, 127
2, 165633, Note_off_c, 6, 54, 127
2, 165635, Note_off_c, 2, 74, 127
2, 165638, Note_on_c, 4, 52, 127
2, 165638, Note_on_c, 7, 79, 127
2, 165766, Note_off_c, 4, 52, 127
2, 165769, Note_on_c, 7, 55, 127
2, 165897, Note_off_c, 7, 55, 127
2, 165900, Note_on_c, 12, 59, 127
2, 166028, Note_off_c, 12, 59, 127
2, 166030, Note_off_c, 12, 71, 127
2, 166032, Note_on_c, 1, 61, 127
2, 166032, Note_on_c, 10, 69, 127
2, 166160, Note_off_c, 1, 61, 127
2, 166163, Note_on_c, 4, 64, 127
2, 166291, Note_off_c, 4, 64, 127
2, 166292, Note_off_c, 10, 69, 127
2, 166295, Note_on_c, 10, 57, 127
2, 166295, Note_on_c, 1, 73, 127
2, 166423, Note_off_c, 1, 73, 127
2, 166423, Note_off_c, 10, 57, 127
2, 166425, Note_off_c, 7, 79, 127
2, 166427, Note_on_c, 2, 50, 127
2, 166427, Note_on_c, 2, 74, 127
2, 166427, Note_on_c, 6, 78, 127
2, 166555, Note_off_c, 2, 50, 127
2, 166558, Note_on_c, 2, 62, 127
2, 166686, Note_off_c, 2, 62, 127
2, 166690, Note_on_c, 0, 60, 127
2, 166818, Note_off_c, 0, 60, 127
2, 166819, Note_off_c, 2, 74, 127
2, 166821, Note_on_c, 12, 59, 127
2, 166821, Note_on_c, 7, 67, 127
2, 166949, Note_off_c, 12, 59, 127
2, 166953, Note_on_c, 10, 57, 127
2, 167081, Note_off_c, 10, 57, 127
2, 167085, Note_on_c, 7, 55, 127
2, 167213, Note_off_c, 7, 55, 127
2, 167214, Note_off_c, 6, 78, 127
2, 167216, Note_on_c, 1, 49, 127
2, 167216, Note_on_c, 4, 76, 127
2, 167344, Note_off_c, 1, 49, 127
2, 167348, Note_on_c, 4, 52, 127
2, 167476, Note_off_c, 4, 52, 127
2, 167479, Note_on_c, 7, 55, 127
2, 167607, Note_off_c, 7, 55, 127
2, 167608, Note_off_c, 7, 67, 127
2, 167610, Note_on_c, 10, 57, 127
2, 167610, Note_on_c, 6, 66, 127
2, 167738, Note_off_c, 10, 57, 127
2, 167743, Note_on_c, 1, 61, 127
2, 167870, Note_off_c, 6, 66, 127
2, 167871, Note_off_c, 1, 61, 127
2, 167874, Note_on_c, 6, 54, 127
2, 167874, Note_on_c, 1, 73, 127
2, 168002, Note_off_c, 1, 73, 127
2, 168002, Note_off_c, 6, 54, 127
2, 168003, Note_off_c, 4, 76, 127
2, 168005, Note_on_c, 12, 47, 127
2, 168005, Note_on_c, 2, 74, 127
2, 168133, Note_off_c, 12, 47, 127
2, 168137, Note_on_c, 12, 59, 127
2, 168265, Note_off_c, 12, 59, 127
2, 168268, Note_on_c, 10, 57, 127
2, 168396, Note_off_c, 10, 57, 127
2, 168400, Note_on_c, 7, 55, 127
2, 168400, Note_on_c, 4, 64, 127
2, 168528, Note_off_c, 7, 55, 127
2, 168532, Note_on_c, 6, 54, 127
2, 168660, Note_off_c, 6, 54, 127
2, 168663, Note_on_c, 4, 52, 127
2, 168791, Note_off_c, 4, 52, 127
2, 168792, Note_off_c, 2, 74, 127
2, 168794, Note_on_c, 10, 57, 127
2, 168794, Note_on_c, 1, 73, 127
2, 168922, Note_off_c, 4, 64, 127
2, 168926, Note_on_c, 6, 66, 127
2, 169054, Note_off_c, 6, 66, 127
2, 169058, Note_on_c, 7, 67, 127
2, 169186, Note_off_c, 7, 67, 127
2, 169186, Note_off_c, 1, 73, 127
2, 169189, Note_on_c, 6, 66, 127
2, 169189, Note_on_c, 2, 74, 127
2, 169317, Note_off_c, 6, 66, 127
2, 169321, Note_on_c, 4, 64, 127
2, 169449, Note_off_c, 4, 64, 127
2, 169453, Note_on_c, 2, 62, 127
2, 169581, Note_off_c, 2, 62, 127
2, 169581, Note_off_c, 2, 74, 127
2, 169581, Note_off_c, 10, 57, 127
2, 169583, Note_on_c, 1, 61, 127
2, 169583, Note_on_c, 4, 76, 127
2, 169711, Note_off_c, 1, 61, 127
2, 169715, Note_on_c, 12, 71, 127
2, 169843, Note_off_c, 12, 71, 127
2, 169848, Note_on_c, 10, 69, 127
2, 169976, Note_off_c, 10, 69, 127
2, 169978, Note_on_c, 1, 61, 127
2, 169978, Note_on_c, 7, 67, 127
2, 170106, Note_off_c, 7, 67, 127
2, 170110, Note_on_c, 6, 66, 127
2, 170238, Note_off_c, 6, 66, 127
2, 170242, Note_on_c, 4, 64, 127
2, 170370, Note_off_c, 4, 64, 127
2, 170370, Note_off_c, 1, 61, 127
2, 170372, Note_on_c, 2, 62, 127
2, 170372, Note_on_c, 6, 66, 127
2, 170500, Note_off_c, 6, 66, 127
2, 170505, Note_on_c, 7, 67, 127
2, 170632, Note_off_c, 4, 76, 127
2, 170633, Note_off_c, 7, 67, 127
2, 170637, Note_on_c, 10, 69, 127
2, 170637, Note_on_c, 1, 73, 127
2, 170765, Note_off_c, 1, 73, 127
2, 170765, Note_off_c, 10, 69, 127
2, 170767, Note_on_c, 7, 67, 127
2, 170767, Note_on_c, 2, 74, 127
2, 170895, Note_off_c, 7, 67, 127
2, 170899, Note_on_c, 6, 66, 127
2, 171027, Note_off_c, 6, 66, 127
2, 171027, Note_off_c, 2, 74, 127
2, 171031, Note_on_c, 4, 64, 127
2, 171031, Note_on_c, 4, 76, 127
2, 171159, Note_off_c, 4, 76, 127
2, 171159, Note_off_c, 4, 64, 127
2, 171159, Note_off_c, 2, 62, 127
2, 171162, Note_on_c, 2, 62, 127
2, 171162, Note_on_c, 6, 78, 127
2, 171290, Note_off_c, 2, 62, 127
2, 171294, Note_on_c, 0, 72, 127
2, 171422, Note_off_c, 0, 72, 127
2, 171426, Note_on_c, 12, 71, 127
2, 171554, Note_off_c, 12, 71, 127
2, 171556, Note_on_c, 3, 63, 127
2, 171556, Note_on_c, 10, 69, 127
2, 171684, Note_off_c, 10, 69, 127
2, 171688, Note_on_c, 7, 67, 127
2, 171816, Note_off_c, 7, 67, 127
2, 171821, Note_on_c, 6, 66, 127
2, 171948, Note_off_c, 3, 63, 127
2, 171949, Note_off_c, 6, 66, 127
2, 171952, Note_on_c, 4, 64, 127
2, 171952, Note_on_c, 7, 67, 127
2, 172080, Note_off_c, 7, 67, 127
2, 172083, Note_on_c, 10, 69, 127
2, 172211, Note_off_c, 10, 69, 127
2, 172211, Note_off_c, 6, 78, 127
2, 172215, Note_on_c, 12, 71, 127
2, 172215, Note_on_c, 3, 75, 127
2, 172343, Note_off_c, 3, 75, 127
2, 172343, Note_off_c, 12, 71, 127
2, 172346, Note_on_c, 10, 69, 127
2, 172346, Note_on_c, 4, 76, 127
2, 172474, Note_off_c, 10, 69, 127
2, 172477, Note_on_c, 7, 67, 127
2, 172605, Note_off_c, 7, 67, 127
2, 172606, Note_off_c, 4, 76, 127
2, 172610, Note_on_c, 6, 66, 127
2, 172610, Note_on_c, 6, 78, 127
2, 172738, Note_off_c, 6, 78, 127
2, 172738, Note_off_c, 6, 66, 127
2, 172739, Note_off_c, 4, 64, 127
2, 172741, Note_on_c, 4, 64, 127
2, 172741, Note_on_c, 7, 79, 127
2, 172869, Note_off_c, 4, 64, 127
2, 172872, Note_on_c, 2, 74, 127
2, 173000, Note_off_c, 2, 74, 127
2, 173004, Note_on_c, 1, 73, 127
2, 173132, Note_off_c, 1, 73, 127
2, 173133, Note_off_c, 7, 79, 127
2, 173135, Note_on_c, 5, 65, 127
2, 173135, Note_on_c, 12, 71, 127
2, 173135, Note_on_c, 1, 73, 127
2, 173263, Note_off_c, 12, 71, 127
2, 173267, Note_on_c, 11, 70, 127
2, 173395, Note_off_c, 11, 70, 127
2, 173399, Note_on_c, 8, 68, 127
2, 173527, Note_off_c, 8, 68, 127
2, 173527, Note_off_c, 5, 65, 127
2, 173530, Note_on_c, 6, 66, 127
2, 173530, Note_on_c, 11, 70, 127
2, 173657, Note_off_c, 1, 73, 127
2, 173661, Note_on_c, 2, 74, 127
2, 173789, Note_off_c, 2, 74, 127
2, 173793, Note_on_c, 4, 76, 127
2, 173921, Note_off_c, 4, 76, 127
2, 173922, Note_off_c, 11, 70, 127
2, 173925, Note_on_c, 12, 71, 127
2, 173925, Note_on_c, 2, 74, 127
2, 174053, Note_off_c, 2, 74, 127
2, 174056, Note_on_c, 1, 73, 127
2, 174183, Note_off_c, 12, 71, 127
2, 174184, Note_off_c, 1, 73, 127
2, 174188, Note_on_c, 12, 71, 127
2, 174316, Note_off_c, 12, 71, 127
2, 174319, Note_on_c, 1, 73, 127
2, 174319, Note_on_c, 11, 82, 127
2, 174447, Note_off_c, 6, 66, 127
2, 174451, Note_on_c, 7, 67, 127
2, 174579, Note_off_c, 7, 67, 127
2, 174582, Note_on_c, 6, 66, 127
2, 174707, Note_off_c, 1, 73, 127
2, 174710, Note_off_c, 6, 66, 127
2, 174711, Note_off_c, 11, 82, 127
2, 174714, Note_on_c, 4, 64, 127
2, 174714, Note_on_c, 2, 74, 127
2, 174809, Note_on_c, 1, 73, 127
2, 174810, Note_off_c, 2, 74, 127
2, 174842, Note_off_c, 4, 64, 127
2, 174846, Note_on_c, 2, 62, 127
2, 174906, Note_on_c, 12, 71, 127
2, 174907, Note_off_c, 1, 73, 127
2, 174976, Note_off_c, 2, 62, 127
2, 174979, Note_on_c, 1, 61, 127
2, 175001, Note_on_c, 1, 73, 127
2, 175004, Note_off_c, 12, 71, 127
2, 175103, Note_off_c, 1, 73, 127
2, 175107, Note_off_c, 1, 61, 127
2, 175110, Note_on_c, 2, 62, 127
2, 175110, Note_on_c, 6, 78, 127
2, 175240, Note_on_c, 4, 76, 127
2, 175368, Note_off_c, 4, 76, 127
2, 175372, Note_on_c, 2, 74, 127
2, 175500, Note_off_c, 2, 74, 127
2, 175503, Note_on_c, 1, 73, 127
2, 175631, Note_off_c, 1, 73, 127
2, 175635, Note_on_c, 12, 71, 127
2, 175763, Note_off_c, 12, 71, 127
2, 175766, Note_on_c, 11, 70, 127
2, 175894, Note_off_c, 11, 70, 127
2, 175898, Note_on_c, 12, 71, 127
2, 176025, Note_off_c, 2, 62, 127
2, 176030, Note_on_c, 4, 64, 127
2, 176158, Note_off_c, 4, 64, 127
2, 176161, Note_on_c, 2, 62, 127
2, 176289, Note_off_c, 2, 62, 127
2, 176289, Note_off_c, 6, 78, 127
2, 176290, Note_off_c, 12, 71, 127
2, 176293, Note_on_c, 1, 61, 127
2, 176293, Note_on_c, 1, 73, 127
2, 176293, Note_on_c, 4, 76, 127
2, 176421, Note_off_c, 1, 61, 127
2, 176424, Note_on_c, 12, 59, 127
2, 176552, Note_off_c, 12, 59, 127
2, 176556, Note_on_c, 11, 58, 127
2, 176684, Note_off_c, 11, 58, 127
2, 176685, Note_off_c, 1, 73, 127
2, 176688, Note_on_c, 12, 59, 127
2, 176688, Note_on_c, 6, 66, 127
2, 176815, Note_off_c, 4, 76, 127
2, 176819, Note_on_c, 6, 78, 127
2, 176947, Note_off_c, 6, 78, 127
2, 176951, Note_on_c, 4, 76, 127
2, 177079, Note_off_c, 4, 76, 127
2, 177082, Note_on_c, 2, 74, 127
2, 177210, Note_off_c, 2, 74, 127
2, 177213, Note_on_c, 1, 73, 127
2, 177341, Note_off_c, 1, 73, 127
2, 177345, Note_on_c, 12, 71, 127
2, 177473, Note_off_c, 12, 71, 127
2, 177475, Note_off_c, 6, 66, 127
2, 177477, Note_on_c, 6, 78, 127
2, 177605, Note_off_c, 12, 59, 127
2, 177608, Note_on_c, 0, 60, 127
2, 177736, Note_off_c, 0, 60, 127
2, 177740, Note_on_c, 12, 59, 127
2, 177868, Note_off_c, 12, 59, 127
2, 177871, Note_on_c, 10, 57, 127
2, 177871, Note_on_c, 6, 66, 127
2, 177999, Note_off_c, 10, 57, 127
2, 178002, Note_on_c, 7, 55, 127
2, 178130, Note_off_c, 7, 55, 127
2, 178135, Note_on_c, 6, 54, 127
2, 178263, Note_off_c, 6, 54, 127
2, 178263, Note_off_c, 6, 66, 127
2, 178266, Note_on_c, 7, 55, 127
2, 178266, Note_on_c, 12, 71, 127
2, 178394, Note_off_c, 6, 78, 127
2, 178397, Note_on_c, 7, 79, 127
2, 178525, Note_off_c, 7, 79, 127
2, 178529, Note_on_c, 6, 78, 127
2, 178657, Note_off_c, 6, 78, 127
2, 178660, Note_on_c, 4, 76, 127
2, 178788, Note_off_c, 4, 76, 127
2, 178792, Note_on_c, 3, 75, 127
2, 178920, Note_off_c, 3, 75, 127
2, 178924, Note_on_c, 1, 73, 127
2, 179052, Note_off_c, 1, 73, 127
2, 179053, Note_off_c, 12, 71, 127
2, 179056, Note_on_c, 10, 81, 127
2, 179183, Note_off_c, 7, 55, 127
2, 179186, Note_on_c, 10, 57, 127
2, 179314, Note_off_c, 10, 57, 127
2, 179318, Note_on_c, 7, 55, 127
2, 179446, Note_off_c, 7, 55, 127
2, 179451, Note_on_c, 6, 54, 127
2, 179451, Note_on_c, 3, 75, 127
2, 179579, Note_off_c, 3, 75, 127
2, 179579, Note_off_c, 6, 54, 127
2, 179581, Note_on_c, 4, 52, 127
2, 179581, Note_on_c, 4, 76, 127
2, 179709, Note_off_c, 4, 76, 127
2, 179709, Note_off_c, 4, 52, 127
2, 179713, Note_on_c, 3, 51, 127
2, 179713, Note_on_c, 6, 78, 127
2, 179841, Note_off_c, 6, 78, 127
2, 179841, Note_off_c, 3, 51, 127
2, 179845, Note_on_c, 4, 52, 127
2, 179845, Note_on_c, 12, 71, 127
2, 179973, Note_off_c, 4, 52, 127
2, 179975, Note_on_c, 6, 54, 127
2, 180103, Note_off_c, 6, 54, 127
2, 180107, Note_on_c, 4, 52, 127
2, 180235, Note_off_c, 4, 52, 127
2, 180237, Note_off_c, 12, 71, 127
2, 180237, Note_off_c, 10, 81, 127
2, 180240, Note_on_c, 2, 50, 127
2, 180240, Note_on_c, 4, 76, 127
2, 180240, Note_on_c, 7, 79, 127
2, 180368, Note_off_c, 2, 50, 127
2, 180370, Note_on_c, 1, 49, 127
2, 180498, Note_off_c, 1, 49, 127
2, 180502, Note_on_c, 12, 47, 127
2, 180630, Note_off_c, 12, 47, 127
2, 180632, Note_off_c, 7, 79, 127
2, 180634, Note_on_c, 11, 46, 127
2, 180634, Note_on_c, 6, 78, 127
2, 180762, Note_off_c, 11, 46, 127
2, 180762, Note_off_c, 4, 76, 127
2, 180764, Note_on_c, 6, 42, 127
2, 180764, Note_on_c, 4, 76, 127
2, 180892, Note_off_c, 4, 76, 127
2, 180892, Note_off_c, 6, 42, 127
2, 180897, Note_on_c, 8, 44, 127
2, 180897, Note_on_c, 2, 74, 127
2, 181025, Note_off_c, 2, 74, 127
2, 181025, Note_off_c, 8, 44, 127
2, 181029, Note_on_c, 11, 46, 127
2, 181029, Note_on_c, 1, 73, 127
2, 181157, Note_off_c, 1, 73, 127
2, 181157, Note_off_c, 11, 46, 127
2, 181159, Note_on_c, 12, 47, 127
2, 181159, Note_on_c, 12, 71, 127
2, 181287, Note_off_c, 12, 71, 127
2, 181287, Note_off_c, 12, 47, 127
2, 181291, Note_on_c, 1, 49, 127
2, 181291, Note_on_c, 11, 70, 127
2, 181419, Note_off_c, 11, 70, 127
2, 181419, Note_off_c, 1, 49, 127
2, 181423, Note_on_c, 2, 50, 127
2, 181423, Note_on_c, 12, 71, 127
2, 181551, Note_off_c, 12, 71, 127
2, 181555, Note_on_c, 2, 74, 127
2, 181683, Note_off_c, 2, 74, 127
2, 181686, Note_on_c, 12, 71, 127
2, 181814, Note_off_c, 12, 71, 127
2, 181815, Note_off_c, 2, 50, 127
2, 181818, Note_on_c, 4, 52, 127
2, 181818, Note_on_c, 8, 68, 127
2, 181914, Note_off_c, 4, 52, 127
2, 181916, Note_on_c, 2, 50, 127
2, 182012, Note_off_c, 2, 50, 127
2, 182014, Note_on_c, 1, 49, 127
2, 182110, Note_off_c, 1, 49, 127
2, 182112, Note_on_c, 2, 50, 127
2, 182208, Note_off_c, 2, 50, 127
2, 182208, Note_off_c, 6, 78, 127
2, 182211, Note_on_c, 4, 52, 127
2, 182211, Note_on_c, 1, 73, 127
2, 182338, Note_off_c, 8, 68, 127
2, 182342, Note_on_c, 4, 76, 127
2, 182470, Note_off_c, 4, 76, 127
2, 182473, Note_on_c, 8, 68, 127
2, 182601, Note_off_c, 8, 68, 127
2, 182603, Note_off_c, 4, 52, 127
2, 182605, Note_on_c, 6, 54, 127
2, 182605, Note_on_c, 11, 70, 127
2, 182701, Note_off_c, 6, 54, 127
2, 182703, Note_on_c, 4, 52, 127
2, 182799, Note_off_c, 4, 52, 127
2, 182802, Note_on_c, 2, 50, 127
2, 182898, Note_off_c, 2, 50, 127
2, 182900, Note_on_c, 4, 52, 127
2, 182996, Note_off_c, 4, 52, 127
2, 182996, Note_off_c, 1, 73, 127
2, 182998, Note_on_c, 6, 54, 127
2, 182998, Note_on_c, 2, 74, 127
2, 183126, Note_off_c, 2, 74, 127
2, 183129, Note_on_c, 6, 78, 127
2, 183252, Note_off_c, 11, 70, 127
2, 183255, Note_off_c, 6, 78, 127
2, 183258, Note_on_c, 11, 70, 127
2, 183386, Note_off_c, 11, 70, 127
2, 183388, Note_off_c, 6, 54, 127
2, 183391, Note_on_c, 2, 50, 127
2, 183391, Note_on_c, 12, 71, 127
2, 183779, Note_off_c, 2, 50, 127
2, 183781, Note_on_c, 12, 47, 127
2, 183912, Note_on_c, 10, 69, 127
2, 184040, Note_off_c, 10, 69, 127
2, 184043, Note_on_c, 7, 67, 127
2, 184171, Note_off_c, 7, 67, 127
2, 184171, Note_off_c, 12, 47, 127
2, 184174, Note_on_c, 7, 55, 127
2, 184174, Note_on_c, 6, 66, 127
2, 184302, Note_off_c, 6, 66, 127
2, 184306, Note_on_c, 4, 64, 127
2, 184434, Note_off_c, 4, 64, 127
2, 184437, Note_on_c, 3, 63, 127
2, 184565, Note_off_c, 3, 63, 127
2, 184569, Note_on_c, 4, 64, 127
2, 184697, Note_off_c, 12, 71, 127
2, 184701, Note_on_c, 1, 73, 127
2, 184829, Note_off_c, 1, 73, 127
2, 184832, Note_on_c, 12, 71, 127
2, 184960, Note_off_c, 12, 71, 127
2, 184961, Note_off_c, 7, 55, 127
2, 184963, Note_on_c, 6, 54, 127
2, 184963, Note_on_c, 11, 70, 127
2, 185091, Note_off_c, 11, 70, 127
2, 185095, Note_on_c, 8, 68, 127
2, 185223, Note_off_c, 8, 68, 127
2, 185223, Note_off_c, 6, 54, 127
2, 185227, Note_on_c, 11, 58, 127
2, 185227, Note_on_c, 6, 66, 127
2, 185355, Note_off_c, 11, 58, 127
2, 185356, Note_off_c, 4, 64, 127
2, 185358, Note_on_c, 12, 59, 127
2, 185358, Note_on_c, 2, 62, 127
2, 185487, Note_off_c, 6, 66, 127
2, 185490, Note_on_c, 12, 71, 127
2, 185618, Note_off_c, 12, 71, 127
2, 185621, Note_on_c, 10, 69, 127
2, 185749, Note_off_c, 10, 69, 127
2, 185750, Note_off_c, 12, 59, 127
2, 185753, Note_on_c, 4, 52, 127
2, 185753, Note_on_c, 7, 67, 127
2, 185881, Note_off_c, 7, 67, 127
2, 185884, Note_on_c, 6, 66, 127
2, 186012, Note_off_c, 6, 66, 127
2, 186016, Note_on_c, 4, 64, 127
2, 186144, Note_off_c, 4, 64, 127
2, 186145, Note_off_c, 2, 62, 127
2, 186148, Note_on_c, 1, 61, 127
2, 186148, Note_on_c, 11, 70, 127
2, 186276, Note_off_c, 11, 70, 127
2, 186279, Note_on_c, 6, 66, 127
2, 186407, Note_off_c, 6, 66, 127
2, 186410, Note_on_c, 8, 68, 127
2, 186538, Note_off_c, 8, 68, 127
2, 186540, Note_off_c, 4, 52, 127
2, 186542, Note_on_c, 2, 50, 127
2, 186542, Note_on_c, 11, 70, 127
2, 186670, Note_off_c, 11, 70, 127
2, 186674, Note_on_c, 12, 71, 127
2, 186802, Note_off_c, 12, 71, 127
2, 186802, Note_off_c, 2, 50, 127
2, 186805, Note_on_c, 11, 58, 127
2, 186805, Note_on_c, 1, 73, 127
2, 186933, Note_off_c, 1, 73, 127
2, 186933, Note_off_c, 11, 58, 127
2, 186935, Note_off_c, 1, 61, 127
2, 186937, Note_on_c, 12, 59, 127
2, 186937, Note_on_c, 2, 74, 127
2, 187065, Note_off_c, 2, 74, 127
2, 187068, Note_on_c, 1, 61, 127
2, 187196, Note_off_c, 1, 61, 127
2, 187199, Note_on_c, 2, 62, 127
2, 187327, Note_off_c, 2, 62, 127
2, 187332, Note_on_c, 1, 49, 127
2, 187332, Note_on_c, 4, 64, 127
2, 187460, Note_off_c, 4, 64, 127
2, 187463, Note_on_c, 6, 66, 127
2, 187591, Note_off_c, 6, 66, 127
2, 187594, Note_on_c, 7, 67, 127
2, 187724, Note_off_c, 12, 59, 127
2, 187726, Note_on_c, 11, 58, 127
2, 187854, Note_off_c, 1, 49, 127
2, 187857, Note_on_c, 2, 50, 127
2, 187985, Note_off_c, 2, 50, 127
2, 187989, Note_on_c, 4, 52, 127
2, 188116, Note_off_c, 7, 67, 127
2, 188117, Note_off_c, 4, 52, 127
2, 188118, Note_off_c, 11, 58, 127
2, 188121, Note_on_c, 2, 50, 127
2, 188121, Note_on_c, 12, 59, 127
2, 188121, Note_on_c, 6, 66, 127
2, 188249, Note_off_c, 6, 66, 127
2, 188249, Note_off_c, 2, 50, 127
2, 188253, Note_on_c, 1, 49, 127
2, 188253, Note_on_c, 4, 64, 127
2, 188381, Note_off_c, 4, 64, 127
2, 188381, Note_off_c, 1, 49, 127
2, 188383, Note_on_c, 12, 47, 127
2, 188383, Note_on_c, 2, 62, 127
2, 188511, Note_off_c, 2, 62, 127
2, 188511, Note_off_c, 12, 47, 127
2, 188513, Note_off_c, 12, 59, 127
2, 188515, Note_on_c, 11, 46, 127
2, 188515, Note_on_c, 1, 61, 127
2, 188515, Note_on_c, 4, 64, 127
2, 188643, Note_off_c, 11, 46, 127
2, 188647, Note_on_c, 7, 55, 127
2, 188775, Note_off_c, 7, 55, 127
2, 188778, Note_on_c, 6, 54, 127
2, 188906, Note_off_c, 6, 54, 127
2, 188907, Note_off_c, 4, 64, 127
2, 188910, Note_on_c, 4, 52, 127
2, 188910, Note_on_c, 11, 58, 127
2, 189038, Note_off_c, 4, 52, 127
2, 189042, Note_on_c, 2, 50, 127
2, 189170, Note_off_c, 2, 50, 127
2, 189172, Note_on_c, 1, 49, 127
2, 189300, Note_off_c, 1, 49, 127
2, 189302, Note_off_c, 11, 58, 127
2, 189304, Note_on_c, 2, 50, 127
2, 189304, Note_on_c, 6, 66, 127
2, 189432, Note_off_c, 2, 50, 127
2, 189437, Note_on_c, 4, 52, 127
2, 189564, Note_off_c, 1, 61, 127
2, 189565, Note_off_c, 4, 52, 127
2, 189567, Note_on_c, 6, 54, 127
2, 189567, Note_on_c, 11, 58, 127
2, 189695, Note_off_c, 11, 58, 127
2, 189695, Note_off_c, 6, 54, 127
2, 189699, Note_on_c, 4, 52, 127
2, 189699, Note_on_c, 12, 59, 127
2, 189827, Note_off_c, 4, 52, 127
2, 189831, Note_on_c, 2, 50, 127
2, 189959, Note_off_c, 2, 50, 127
2, 189959, Note_off_c, 12, 59, 127
2, 189961, Note_on_c, 1, 49, 127
2, 189961, Note_on_c, 1, 61, 127
2, 190089, Note_off_c, 1, 61, 127
2, 190089, Note_off_c, 1, 49, 127
2, 190094, Note_on_c, 12, 47, 127
2, 190094, Note_on_c, 2, 62, 127
2, 190222, Note_off_c, 12, 47, 127
2, 190226, Note_on_c, 10, 57, 127
2, 190353, Note_off_c, 6, 66, 127
2, 190354, Note_off_c, 10, 57, 127
2, 190356, Note_on_c, 7, 55, 127
2, 190356, Note_on_c, 12, 59, 127
2, 190484, Note_off_c, 12, 59, 127
2, 190484, Note_off_c, 7, 55, 127
2, 190488, Note_on_c, 6, 54, 127
2, 190488, Note_on_c, 11, 58, 127
2, 190616, Note_off_c, 6, 54, 127
2, 190620, Note_on_c, 4, 52, 127
2, 190748, Note_off_c, 4, 52, 127
2, 190748, Note_off_c, 11, 58, 127
2, 190752, Note_on_c, 2, 50, 127
2, 190752, Note_on_c, 12, 59, 127
2, 190880, Note_off_c, 12, 59, 127
2, 190880, Note_off_c, 2, 50, 127
2, 190883, Note_on_c, 4, 52, 127
2, 190883, Note_on_c, 7, 67, 127
2, 191011, Note_off_c, 4, 52, 127
2, 191015, Note_on_c, 6, 54, 127
2, 191143, Note_off_c, 6, 54, 127
2, 191143, Note_off_c, 2, 62, 127
2, 191147, Note_on_c, 7, 55, 127
2, 191147, Note_on_c, 12, 59, 127
2, 191275, Note_off_c, 12, 59, 127
2, 191275, Note_off_c, 7, 55, 127
2, 191277, Note_on_c, 6, 54, 127
2, 191277, Note_on_c, 1, 61, 127
2, 191405, Note_off_c, 6, 54, 127
2, 191409, Note_on_c, 4, 52, 127
2, 191537, Note_off_c, 4, 52, 127
2, 191537, Note_off_c, 1, 61, 127
2, 191542, Note_on_c, 2, 50, 127
2, 191542, Note_on_c, 2, 62, 127
2, 191670, Note_off_c, 2, 62, 127
2, 191670, Note_off_c, 2, 50, 127
2, 191672, Note_on_c, 1, 49, 127
2, 191672, Note_on_c, 4, 64, 127
2, 191800, Note_off_c, 1, 49, 127
2, 191804, Note_on_c, 12, 59, 127
2, 191932, Note_off_c, 12, 59, 127
2, 191932, Note_off_c, 7, 67, 127
2, 191936, Note_on_c, 10, 57, 127
2, 191936, Note_on_c, 1, 61, 127
2, 192064, Note_off_c, 1, 61, 127
2, 192064, Note_off_c, 10, 57, 127
2, 192066, Note_on_c, 7, 55, 127
2, 192066, Note_on_c, 12, 59, 127
2, 192194, Note_off_c, 7, 55, 127
2, 192199, Note_on_c, 6, 54, 127
2, 192326, Note_off_c, 12, 59, 127
2, 192327, Note_off_c, 6, 54, 127
2, 192331, Note_on_c, 4, 52, 127
2, 192331, Note_on_c, 1, 61, 127
2, 192459, Note_off_c, 1, 61, 127
2, 192459, Note_off_c, 4, 52, 127
2, 192461, Note_on_c, 6, 54, 127
2, 192461, Note_on_c, 10, 69, 127
2, 192589, Note_off_c, 6, 54, 127
2, 192593, Note_on_c, 7, 55, 127
2, 192721, Note_off_c, 7, 55, 127
2, 192721, Note_off_c, 4, 64, 127
2, 192725, Note_on_c, 10, 57, 127
2, 192725, Note_on_c, 1, 61, 127
2, 192853, Note_off_c, 1, 61, 127
2, 192853, Note_off_c, 10, 57, 127
2, 192856, Note_on_c, 7, 55, 127
2, 192856, Note_on_c, 3, 63, 127
2, 192984, Note_off_c, 7, 55, 127
2, 192988, Note_on_c, 6, 54, 127
2, 193116, Note_off_c, 6, 54, 127
2, 193116, Note_off_c, 3, 63, 127
2, 193120, Note_on_c, 4, 52, 127
2, 193120, Note_on_c, 4, 64, 127
2, 193248, Note_off_c, 4, 64, 127
2, 193248, Note_off_c, 4, 52, 127
2, 193251, Note_on_c, 3, 51, 127
2, 193251, Note_on_c, 6, 66, 127
2, 193379, Note_off_c, 3, 51, 127
2, 193382, Note_on_c, 0, 60, 127
2, 193510, Note_off_c, 0, 60, 127
2, 193510, Note_off_c, 10, 69, 127
2, 193515, Note_on_c, 12, 59, 127
2, 193515, Note_on_c, 4, 64, 127
2, 193643, Note_off_c, 4, 64, 127
2, 193643, Note_off_c, 12, 59, 127
2, 193643, Note_off_c, 6, 66, 127
2, 193646, Note_on_c, 10, 57, 127
2, 193646, Note_on_c, 3, 63, 127
2, 193646, Note_on_c, 6, 66, 127
2, 193774, Note_off_c, 6, 66, 127
2, 193774, Note_off_c, 10, 57, 127
2, 193777, Note_on_c, 7, 55, 127
2, 193777, Note_on_c, 4, 64, 127
2, 193905, Note_off_c, 4, 64, 127
2, 193905, Note_off_c, 7, 55, 127
2, 193909, Note_on_c, 6, 54, 127
2, 193909, Note_on_c, 6, 66, 127
2, 194037, Note_off_c, 6, 66, 127
2, 194037, Note_off_c, 6, 54, 127
2, 194038, Note_off_c, 3, 63, 127
2, 194040, Note_on_c, 4, 52, 127
2, 194040, Note_on_c, 4, 64, 127
2, 194040, Note_on_c, 7, 67, 127
2, 194168, Note_off_c, 4, 52, 127
2, 194171, Note_on_c, 7, 55, 127
2, 194299, Note_off_c, 7, 55, 127
2, 194304, Note_on_c, 12, 59, 127
2, 194428, Note_off_c, 7, 67, 127
2, 194432, Note_off_c, 12, 59, 127
2, 194432, Note_off_c, 4, 64, 127
2, 194435, Note_on_c, 1, 61, 127
2, 194435, Note_on_c, 10, 69, 127
2, 194531, Note_off_c, 10, 69, 127
2, 194533, Note_on_c, 7, 67, 127
2, 194629, Note_off_c, 7, 67, 127
2, 194631, Note_on_c, 6, 66, 127
2, 194727, Note_off_c, 6, 66, 127
2, 194729, Note_on_c, 7, 67, 127
2, 194825, Note_off_c, 7, 67, 127
2, 194825, Note_off_c, 1, 61, 127
2, 194828, Note_on_c, 6, 54, 127
2, 194828, Note_on_c, 10, 69, 127
2, 194828, Note_on_c, 0, 72, 127
2, 194956, Note_off_c, 6, 54, 127
2, 194959, Note_on_c, 10, 57, 127
2, 195087, Note_off_c, 10, 57, 127
2, 195091, Note_on_c, 0, 60, 127
2, 195219, Note_off_c, 0, 60, 127
2, 195220, Note_off_c, 10, 69, 127
2, 195222, Note_on_c, 3, 63, 127
2, 195222, Note_on_c, 12, 71, 127
2, 195318, Note_off_c, 12, 71, 127
2, 195320, Note_on_c, 10, 69, 127
2, 195416, Note_off_c, 10, 69, 127
2, 195417, Note_off_c, 0, 72, 127
2, 195418, Note_on_c, 7, 67, 127
2, 195514, Note_off_c, 7, 67, 127
2, 195517, Note_on_c, 10, 69, 127
2, 195612, Note_off_c, 3, 63, 127
2, 195613, Note_off_c, 10, 69, 127
2, 195615, Note_on_c, 7, 55, 127
2, 195615, Note_on_c, 12, 71, 127
2, 195743, Note_off_c, 7, 55, 127
2, 195747, Note_on_c, 12, 59, 127
2, 195875, Note_off_c, 12, 59, 127
2, 195878, Note_on_c, 3, 63, 127
2, 196006, Note_off_c, 3, 63, 127
2, 196009, Note_on_c, 4, 64, 127
2, 196009, Note_on_c, 7, 67, 127
2, 196137, Note_off_c, 12, 71, 127
2, 196142, Note_on_c, 4, 76, 127
2, 196270, Note_off_c, 4, 76, 127
2, 196273, Note_on_c, 2, 74, 127
2, 196401, Note_off_c, 2, 74, 127
2, 196401, Note_off_c, 7, 67, 127
2, 196401, Note_off_c, 4, 64, 127
2, 196404, Note_on_c, 4, 52, 127
2, 196404, Note_on_c, 4, 64, 127
2, 196404, Note_on_c, 0, 72, 127
2, 196532, Note_off_c, 0, 72, 127
2, 196532, Note_off_c, 4, 52, 127
2, 196536, Note_on_c, 2, 62, 127
2, 196536, Note_on_c, 12, 71, 127
2, 196664, Note_off_c, 12, 71, 127
2, 196664, Note_off_c, 2, 62, 127
2, 196667, Note_on_c, 0, 60, 127
2, 196667, Note_on_c, 10, 69, 127
2, 196795, Note_off_c, 10, 69, 127
2, 196795, Note_off_c, 0, 60, 127
2, 196796, Note_off_c, 4, 64, 127
2, 196798, Note_on_c, 12, 59, 127
2, 196798, Note_on_c, 0, 72, 127
2, 196798, Note_on_c, 8, 68, 127
2, 196926, Note_off_c, 8, 68, 127
2, 196926, Note_off_c, 12, 59, 127
2, 196931, Note_on_c, 10, 57, 127
2, 196931, Note_on_c, 10, 69, 127
2, 197059, Note_off_c, 10, 69, 127
2, 197059, Note_off_c, 10, 57, 127
2, 197062, Note_on_c, 8, 56, 127
2, 197062, Note_on_c, 12, 71, 127
2, 197190, Note_off_c, 12, 71, 127
2, 197190, Note_off_c, 8, 56, 127
2, 197190, Note_off_c, 0, 72, 127
2, 197193, Note_on_c, 10, 57, 127
2, 197193, Note_on_c, 4, 64, 127
2, 197193, Note_on_c, 0, 72, 127
2, 197321, Note_off_c, 4, 64, 127
2, 197325, Note_on_c, 6, 66, 127
2, 197453, Note_off_c, 6, 66, 127
2, 197456, Note_on_c, 4, 64, 127
2, 197584, Note_off_c, 4, 64, 127
2, 197585, Note_off_c, 0, 72, 127
2, 197588, Note_on_c, 3, 63, 127
2, 197588, Note_on_c, 12, 71, 127
2, 197716, Note_off_c, 3, 63, 127
2, 197720, Note_on_c, 4, 64, 127
2, 197848, Note_off_c, 4, 64, 127
2, 197848, Note_off_c, 12, 71, 127
2, 197852, Note_on_c, 6, 66, 127
2, 197852, Note_on_c, 3, 75, 127
2, 197980, Note_off_c, 3, 75, 127
2, 197980, Note_off_c, 6, 66, 127
2, 197980, Note_off_c, 10, 57, 127
2, 197982, Note_on_c, 7, 55, 127
2, 197982, Note_on_c, 12, 59, 127
2, 197982, Note_on_c, 4, 76, 127
2, 198110, Note_off_c, 12, 59, 127
2, 198114, Note_on_c, 4, 64, 127
2, 198242, Note_off_c, 4, 64, 127
2, 198247, Note_on_c, 2, 62, 127
2, 198374, Note_off_c, 4, 76, 127
2, 198375, Note_off_c, 2, 62, 127
2, 198377, Note_on_c, 1, 61, 127
2, 198377, Note_on_c, 10, 69, 127
2, 198505, Note_off_c, 1, 61, 127
2, 198509, Note_on_c, 2, 62, 127
2, 198637, Note_off_c, 2, 62, 127
2, 198641, Note_on_c, 4, 64, 127
2, 198769, Note_off_c, 4, 64, 127
2, 198769, Note_off_c, 7, 55, 127
2, 198771, Note_on_c, 6, 54, 127
2, 198771, Note_on_c, 3, 63, 127
2, 198899, Note_off_c, 3, 63, 127
2, 198904, Note_on_c, 4, 64, 127
2, 199032, Note_off_c, 4, 64, 127
2, 199036, Note_on_c, 6, 66, 127
2, 199164, Note_off_c, 6, 66, 127
2, 199164, Note_off_c, 10, 69, 127
2, 199166, Note_on_c, 12, 59, 127
2, 199166, Note_on_c, 7, 67, 127
2, 199294, Note_off_c, 12, 59, 127
2, 199298, Note_on_c, 0, 60, 127
2, 199426, Note_off_c, 0, 60, 127
2, 199426, Note_off_c, 7, 67, 127
2, 199430, Note_on_c, 10, 57, 127
2, 199430, Note_on_c, 3, 75, 127
2, 199558, Note_off_c, 3, 75, 127
2, 199558, Note_off_c, 10, 57, 127
2, 199558, Note_off_c, 6, 54, 127
2, 199561, Note_on_c, 4, 52, 127
2, 199561, Note_on_c, 7, 55, 127
2, 199561, Note_on_c, 4, 76, 127
2, 199689, Note_off_c, 7, 55, 127
2, 199693, Note_on_c, 10, 57, 127
2, 199821, Note_off_c, 10, 57, 127
2, 199825, Note_on_c, 12, 59, 127
2, 199953, Note_off_c, 12, 59, 127
2, 199953, Note_off_c, 4, 76, 127
2, 199956, Note_on_c, 0, 60, 127
2, 199956, Note_on_c, 6, 66, 127
2, 200084, Note_off_c, 0, 60, 127
2, 200087, Note_on_c, 12, 59, 127
2, 200215, Note_off_c, 12, 59, 127
2, 200219, Note_on_c, 10, 57, 127
2, 200347, Note_off_c, 10, 57, 127
2, 200348, Note_off_c, 4, 52, 127
2, 200352, Note_on_c, 3, 51, 127
2, 200352, Note_on_c, 12, 59, 127
2, 200478, Note_off_c, 6, 66, 127
2, 200482, Note_on_c, 7, 67, 127
2, 200610, Note_off_c, 7, 67, 127
2, 200614, Note_on_c, 10, 69, 127
2, 200742, Note_off_c, 10, 69, 127
2, 200744, Note_off_c, 3, 51, 127
2, 200746, Note_on_c, 4, 52, 127
2, 200746, Note_on_c, 7, 67, 127
2, 200874, Note_off_c, 7, 67, 127
2, 200876, Note_on_c, 6, 66, 127
2, 201004, Note_off_c, 6, 66, 127
2, 201009, Note_on_c, 4, 64, 127
2, 201137, Note_off_c, 4, 64, 127
2, 201138, Note_off_c, 4, 52, 127
2, 201139, Note_off_c, 12, 59, 127
2, 201141, Note_on_c, 6, 54, 127
2, 201141, Note_on_c, 3, 63, 127
2, 201269, Note_off_c, 3, 63, 127
2, 201271, Note_on_c, 0, 72, 127
2, 201399, Note_off_c, 0, 72, 127
2, 201403, Note_on_c, 12, 71, 127
2, 201531, Note_off_c, 12, 71, 127
2, 201533, Note_off_c, 6, 54, 127
2, 201535, Note_on_c, 12, 47, 127
2, 201535, Note_on_c, 10, 69, 127
2, 201535, Note_on_c, 3, 75, 127
2, 201663, Note_off_c, 10, 69, 127
2, 201666, Note_on_c, 7, 67, 127
2, 201794, Note_off_c, 7, 67, 127
2, 201798, Note_on_c, 6, 66, 127
2, 201926, Note_off_c, 6, 66, 127
2, 201927, Note_off_c, 3, 75, 127
2, 201927, Note_off_c, 12, 47, 127
2, 201930, Note_on_c, 4, 52, 127
2, 201930, Note_on_c, 7, 67, 127
2, 201930, Note_on_c, 4, 76, 127
2, 202058, Note_off_c, 7, 67, 127
2, 202060, Note_on_c, 10, 69, 127
2, 202188, Note_off_c, 10, 69, 127
2, 202192, Note_on_c, 12, 71, 127
2, 202320, Note_off_c, 12, 71, 127
2, 202322, Note_off_c, 4, 52, 127
2, 202324, Note_on_c, 6, 54, 127
2, 202324, Note_on_c, 10, 69, 127
2, 202452, Note_off_c, 10, 69, 127
2, 202456, Note_on_c, 7, 67, 127
2, 202584, Note_off_c, 7, 67, 127
2, 202587, Note_on_c, 6, 66, 127
2, 202715, Note_off_c, 6, 66, 127
2, 202716, Note_off_c, 6, 54, 127
2, 202719, Note_on_c, 7, 55, 127
2, 202719, Note_on_c, 4, 64, 127
2, 202847, Note_off_c, 4, 76, 127
2, 202850, Note_on_c, 5, 77, 127
2, 202978, Note_off_c, 5, 77, 127
2, 202981, Note_on_c, 4, 76, 127
2, 203109, Note_off_c, 4, 76, 127
2, 203111, Note_off_c, 7, 55, 127
2, 203114, Note_on_c, 8, 56, 127
2, 203114, Note_on_c, 2, 74, 127
2, 203242, Note_off_c, 2, 74, 127
2, 203245, Note_on_c, 0, 72, 127
2, 203373, Note_off_c, 0, 72, 127
2, 203376, Note_on_c, 12, 71, 127
2, 203504, Note_off_c, 12, 71, 127
2, 203506, Note_off_c, 8, 56, 127
2, 203508, Note_on_c, 10, 57, 127
2, 203508, Note_on_c, 0, 72, 127
2, 203636, Note_off_c, 0, 72, 127
2, 203639, Note_on_c, 2, 74, 127
2, 203767, Note_off_c, 2, 74, 127
2, 203768, Note_off_c, 4, 64, 127
2, 203771, Note_on_c, 6, 66, 127
2, 203771, Note_on_c, 4, 76, 127
2, 203899, Note_off_c, 4, 76, 127
2, 203900, Note_off_c, 10, 57, 127
2, 203903, Note_on_c, 12, 59, 127
2, 203903, Note_on_c, 2, 74, 127
2, 204031, Note_off_c, 2, 74, 127
2, 204034, Note_on_c, 0, 72, 127
2, 204162, Note_off_c, 0, 72, 127
2, 204163, Note_off_c, 6, 66, 127
2, 204165, Note_on_c, 8, 68, 127
2, 204165, Note_on_c, 12, 71, 127
2, 204293, Note_off_c, 12, 71, 127
2, 204293, Note_off_c, 8, 68, 127
2, 204295, Note_off_c, 12, 59, 127
2, 204297, Note_on_c, 0, 60, 127
2, 204297, Note_on_c, 10, 69, 127
2, 204427, Note_on_c, 12, 83, 127
2, 204555, Note_off_c, 12, 83, 127
2, 204558, Note_on_c, 10, 81, 127
2, 204677, Note_off_c, 0, 60, 127
2, 204686, Note_off_c, 10, 81, 127
2, 204687, Note_off_c, 10, 69, 127
2, 204690, Note_on_c, 1, 61, 127
2, 204690, Note_on_c, 4, 64, 127
2, 204690, Note_on_c, 7, 79, 127
2, 204818, Note_off_c, 7, 79, 127
2, 204821, Note_on_c, 6, 78, 127
2, 204949, Note_off_c, 6, 78, 127
2, 204953, Note_on_c, 4, 76, 127
2, 205070, Note_off_c, 1, 61, 127
2, 205078, Note_off_c, 4, 64, 127
2, 205081, Note_off_c, 4, 76, 127
2, 205085, Note_on_c, 2, 50, 127
2, 205085, Note_on_c, 6, 78, 127
2, 205213, Note_off_c, 6, 78, 127
2, 205216, Note_on_c, 7, 79, 127
2, 205344, Note_off_c, 7, 79, 127
2, 205348, Note_on_c, 2, 62, 127
2, 205348, Note_on_c, 10, 81, 127
2, 205476, Note_off_c, 10, 81, 127
2, 205477, Note_off_c, 2, 50, 127
2, 205479, Note_on_c, 4, 52, 127
2, 205479, Note_on_c, 7, 79, 127
2, 205607, Note_off_c, 7, 79, 127
2, 205610, Note_on_c, 6, 78, 127
2, 205738, Note_off_c, 6, 78, 127
2, 205740, Note_off_c, 2, 62, 127
2, 205743, Note_on_c, 1, 61, 127
2, 205743, Note_on_c, 4, 76, 127
2, 205871, Note_off_c, 4, 76, 127
2, 205871, Note_off_c, 1, 61, 127
2, 205871, Note_off_c, 4, 52, 127
2, 205874, Note_on_c, 6, 54, 127
2, 205874, Note_on_c, 2, 62, 127
2, 205874, Note_on_c, 2, 74, 127
2, 206002, Note_off_c, 2, 74, 127
2, 206005, Note_on_c, 4, 76, 127
2, 206133, Note_off_c, 4, 76, 127
2, 206137, Note_on_c, 2, 74, 127
2, 206254, Note_off_c, 6, 54, 127
2, 206265, Note_off_c, 2, 74, 127
2, 206268, Note_on_c, 2, 50, 127
2, 206268, Note_on_c, 0, 72, 127
2, 206396, Note_off_c, 0, 72, 127
2, 206399, Note_on_c, 12, 71, 127
2, 206527, Note_off_c, 12, 71, 127
2, 206532, Note_on_c, 10, 69, 127
2, 206648, Note_off_c, 2, 50, 127
2, 206660, Note_off_c, 10, 69, 127
2, 206663, Note_on_c, 7, 55, 127
2, 206663, Note_on_c, 12, 71, 127
2, 206791, Note_off_c, 12, 71, 127
2, 206794, Note_on_c, 0, 72, 127
2, 206922, Note_off_c, 0, 72, 127
2, 206923, Note_off_c, 2, 62, 127
2, 206926, Note_on_c, 4, 64, 127
2, 206926, Note_on_c, 2, 74, 127
2, 207054, Note_off_c, 2, 74, 127
2, 207055, Note_off_c, 7, 55, 127
2, 207057, Note_on_c, 10, 57, 127
2, 207057, Note_on_c, 0, 72, 127
2, 207185, Note_off_c, 0, 72, 127
2, 207189, Note_on_c, 12, 71, 127
2, 207317, Note_off_c, 12, 71, 127
2, 207318, Note_off_c, 4, 64, 127
2, 207321, Note_on_c, 6, 66, 127
2, 207321, Note_on_c, 10, 69, 127
2, 207449, Note_off_c, 10, 69, 127
2, 207449, Note_off_c, 6, 66, 127
2, 207449, Note_off_c, 10, 57, 127
2, 207453, Note_on_c, 12, 59, 127
2, 207453, Note_on_c, 7, 67, 127
2, 207581, Note_off_c, 7, 67, 127
2, 207583, Note_on_c, 10, 69, 127
2, 207711, Note_off_c, 10, 69, 127
2, 207715, Note_on_c, 7, 67, 127
2, 207833, Note_off_c, 12, 59, 127
2, 207843, Note_off_c, 7, 67, 127
2, 207848, Note_on_c, 7, 55, 127
2, 207848, Note_on_c, 5, 65, 127
2, 207976, Note_off_c, 5, 65, 127
2, 207978, Note_on_c, 4, 64, 127
2, 208106, Note_off_c, 4, 64, 127
2, 208110, Note_on_c, 2, 62, 127
2, 208228, Note_off_c, 7, 55, 127
2, 208238, Note_off_c, 2, 62, 127
2, 208242, Note_on_c, 0, 48, 127
2, 208242, Note_on_c, 4, 64, 127
2, 208370, Note_off_c, 4, 64, 127
2, 208370, Note_off_c, 0, 48, 127
2, 208373, Note_on_c, 2, 50, 127
2, 208373, Note_on_c, 5, 65, 127
2, 208501, Note_off_c, 5, 65, 127
2, 208501, Note_off_c, 2, 50, 127
2, 208505, Note_on_c, 4, 52, 127
2, 208505, Note_on_c, 7, 67, 127
2, 208633, Note_off_c, 7, 67, 127
2, 208633, Note_off_c, 4, 52, 127
2, 208637, Note_on_c, 2, 50, 127
2, 208637, Note_on_c, 5, 65, 127
2, 208765, Note_off_c, 5, 65, 127
2, 208765, Note_off_c, 2, 50, 127
2, 208768, Note_on_c, 4, 52, 127
2, 208768, Note_on_c, 4, 64, 127
2, 208896, Note_off_c, 4, 64, 127
2, 208896, Note_off_c, 4, 52, 127
2, 208899, Note_on_c, 5, 53, 127
2, 208899, Note_on_c, 2, 62, 127
2, 209027, Note_off_c, 2, 62, 127
2, 209027, Note_off_c, 5, 53, 127
2, 209031, Note_on_c, 4, 52, 127
2, 209031, Note_on_c, 0, 60, 127
2, 209159, Note_off_c, 0, 60, 127
2, 209159, Note_off_c, 4, 52, 127
2, 209162, Note_on_c, 8, 56, 127
2, 209162, Note_on_c, 2, 62, 127
2, 209290, Note_off_c, 2, 62, 127
2, 209290, Note_off_c, 8, 56, 127
2, 209294, Note_on_c, 10, 57, 127
2, 209294, Note_on_c, 0, 60, 127
2, 209422, Note_off_c, 0, 60, 127
2, 209422, Note_off_c, 10, 57, 127
2, 209426, Note_on_c, 2, 50, 127
2, 209426, Note_on_c, 12, 59, 127
2, 209554, Note_off_c, 12, 59, 127
2, 209557, Note_on_c, 10, 57, 127
2, 209557, Note_on_c, 10, 69, 127
2, 209685, Note_off_c, 10, 69, 127
2, 209685, Note_off_c, 10, 57, 127
2, 209688, Note_on_c, 8, 56, 127
2, 209688, Note_on_c, 12, 71, 127
2, 209816, Note_off_c, 12, 71, 127
2, 209816, Note_off_c, 8, 56, 127
2, 209818, Note_off_c, 2, 50, 127
2, 209820, Note_on_c, 0, 48, 127
2, 209820, Note_on_c, 10, 57, 127
2, 209820, Note_on_c, 0, 72, 127
2, 209948, Note_off_c, 0, 48, 127
2, 209953, Note_on_c, 2, 50, 127
2, 210081, Note_off_c, 2, 50, 127
2, 210083, Note_on_c, 4, 52, 127
2, 210211, Note_off_c, 4, 52, 127
2, 210212, Note_off_c, 0, 72, 127
2, 210215, Note_on_c, 5, 53, 127
2, 210215, Note_on_c, 2, 74, 127
2, 210311, Note_off_c, 2, 74, 127
2, 210313, Note_on_c, 0, 72, 127
2, 210409, Note_off_c, 0, 72, 127
2, 210411, Note_on_c, 12, 71, 127
2, 210507, Note_off_c, 12, 71, 127
2, 210509, Note_on_c, 0, 72, 127
2, 210605, Note_off_c, 0, 72, 127
2, 210605, Note_off_c, 5, 53, 127
2, 210608, Note_on_c, 12, 47, 127
2, 210608, Note_on_c, 2, 74, 127
2, 210735, Note_off_c, 10, 57, 127
2, 210740, Note_on_c, 2, 50, 127
2, 210868, Note_off_c, 2, 50, 127
2, 210870, Note_on_c, 5, 53, 127
2, 210998, Note_off_c, 5, 53, 127
2, 211000, Note_off_c, 2, 74, 127
2, 211002, Note_on_c, 8, 56, 127
2, 211002, Note_on_c, 4, 76, 127
2, 211098, Note_off_c, 4, 76, 127
2, 211100, Note_on_c, 2, 74, 127
2, 211196, Note_off_c, 2, 74, 127
2, 211199, Note_on_c, 0, 72, 127
2, 211295, Note_off_c, 0, 72, 127
2, 211297, Note_on_c, 2, 74, 127
2, 211389, Note_off_c, 8, 56, 127
2, 211393, Note_off_c, 2, 74, 127
2, 211393, Note_off_c, 12, 47, 127
2, 211395, Note_on_c, 10, 45, 127
2, 211395, Note_on_c, 4, 76, 127
2, 211525, Note_on_c, 0, 48, 127
2, 211653, Note_off_c, 0, 48, 127
2, 211656, Note_on_c, 2, 50, 127
2, 211784, Note_off_c, 2, 50, 127
2, 211785, Note_off_c, 4, 76, 127
2, 211788, Note_on_c, 4, 52, 127
2, 211788, Note_on_c, 0, 72, 127
2, 211916, Note_off_c, 4, 52, 127
2, 211920, Note_on_c, 6, 54, 127
2, 212048, Note_off_c, 6, 54, 127
2, 212051, Note_on_c, 8, 56, 127
2, 212179, Note_off_c, 8, 56, 127
2, 212180, Note_off_c, 0, 72, 127
2, 212182, Note_on_c, 10, 57, 127
2, 212182, Note_on_c, 10, 69, 127
2, 212310, Note_off_c, 10, 57, 127
2, 212313, Note_off_c, 10, 45, 127
2, 212314, Note_on_c, 12, 59, 127
2, 212442, Note_off_c, 12, 59, 127
2, 212446, Note_on_c, 0, 60, 127
2, 212574, Note_off_c, 0, 60, 127
2, 212574, Note_off_c, 10, 69, 127
2, 212577, Note_on_c, 2, 62, 127
2, 212577, Note_on_c, 5, 77, 127
2, 212705, Note_off_c, 2, 62, 127
2, 212709, Note_on_c, 4, 64, 127
2, 212837, Note_off_c, 4, 64, 127
2, 212840, Note_on_c, 5, 65, 127
2, 212968, Note_off_c, 5, 65, 127
2, 212971, Note_on_c, 2, 74, 127
2, 212971, Note_on_c, 8, 56, 127
2, 213099, Note_off_c, 8, 56, 127
2, 213103, Note_on_c, 10, 57, 127
2, 213231, Note_off_c, 10, 57, 127
2, 213235, Note_on_c, 12, 59, 127
2, 213363, Note_off_c, 12, 59, 127
2, 213364, Note_off_c, 5, 77, 127
2, 213366, Note_on_c, 0, 60, 127
2, 213366, Note_on_c, 4, 76, 127
2, 213494, Note_off_c, 0, 60, 127
2, 213498, Note_on_c, 2, 62, 127
2, 213626, Note_off_c, 2, 62, 127
2, 213626, Note_off_c, 4, 76, 127
2, 213629, Note_on_c, 4, 64, 127
2, 213629, Note_on_c, 8, 80, 127
2, 213757, Note_off_c, 8, 80, 127
2, 213757, Note_off_c, 4, 64, 127
2, 213758, Note_off_c, 2, 74, 127
2, 213760, Note_on_c, 0, 72, 127
2, 213760, Note_on_c, 6, 54, 127
2, 213760, Note_on_c, 10, 81, 127
2, 213888, Note_off_c, 6, 54, 127
2, 213893, Note_on_c, 8, 56, 127
2, 214021, Note_off_c, 8, 56, 127
2, 214024, Note_on_c, 10, 57, 127
2, 214152, Note_off_c, 10, 57, 127
2, 214152, Note_off_c, 10, 81, 127
2, 214156, Note_on_c, 12, 59, 127
2, 214156, Note_on_c, 2, 74, 127
2, 214284, Note_off_c, 12, 59, 127
2, 214287, Note_on_c, 0, 60, 127
2, 214415, Note_off_c, 0, 60, 127
2, 214418, Note_on_c, 10, 57, 127
2, 214546, Note_off_c, 10, 57, 127
2, 214547, Note_off_c, 0, 72, 127
2, 214551, Note_on_c, 12, 71, 127
2, 214551, Note_on_c, 8, 56, 127
2, 214679, Note_off_c, 8, 56, 127
2, 214682, Note_on_c, 6, 54, 127
2, 214810, Note_off_c, 6, 54, 127
2, 214813, Note_on_c, 4, 52, 127
2, 214941, Note_off_c, 4, 52, 127
2, 214943, Note_off_c, 2, 74, 127
2, 214945, Note_on_c, 10, 57, 127
2, 214945, Note_on_c, 0, 72, 127
2, 215073, Note_off_c, 10, 57, 127
2, 215076, Note_on_c, 12, 59, 127
2, 215204, Note_off_c, 12, 59, 127
2, 215205, Note_off_c, 0, 72, 127
2, 215208, Note_on_c, 0, 60, 127
2, 215208, Note_on_c, 8, 80, 127
2, 215336, Note_off_c, 8, 80, 127
2, 215336, Note_off_c, 0, 60, 127
2, 215338, Note_off_c, 12, 71, 127
2, 215340, Note_on_c, 10, 69, 127
2, 215340, Note_on_c, 5, 53, 127
2, 215340, Note_on_c, 10, 81, 127
2, 215468, Note_off_c, 5, 53, 127
2, 215471, Note_on_c, 10, 57, 127
2, 215599, Note_off_c, 10, 57, 127
2, 215602, Note_on_c, 7, 55, 127
2, 215730, Note_off_c, 7, 55, 127
2, 215732, Note_off_c, 10, 81, 127
2, 215734, Note_on_c, 5, 53, 127
2, 215734, Note_on_c, 12, 71, 127
2, 215862, Note_off_c, 5, 53, 127
2, 215865, Note_on_c, 7, 55, 127
2, 215993, Note_off_c, 7, 55, 127
2, 215998, Note_on_c, 4, 52, 127
2, 216126, Note_off_c, 4, 52, 127
2, 216127, Note_off_c, 10, 69, 127
2, 216129, Note_on_c, 8, 68, 127
2, 216129, Note_on_c, 2, 50, 127
2, 216256, Note_off_c, 12, 71, 127
2, 216260, Note_on_c, 0, 72, 127
2, 216388, Note_off_c, 0, 72, 127
2, 216389, Note_off_c, 2, 50, 127
2, 216389, Note_off_c, 8, 68, 127
2, 216392, Note_on_c, 5, 53, 127
2, 216392, Note_on_c, 8, 56, 127
2, 216392, Note_on_c, 2, 74, 127
2, 216520, Note_off_c, 2, 74, 127
2, 216520, Note_off_c, 8, 56, 127
2, 216520, Note_off_c, 5, 53, 127
2, 216523, Note_on_c, 4, 52, 127
2, 216523, Note_on_c, 10, 57, 127
2, 216523, Note_on_c, 0, 72, 127
2, 216651, Note_off_c, 0, 72, 127
2, 216656, Note_on_c, 12, 71, 127
2, 216783, Note_off_c, 10, 57, 127
2, 216783, Note_off_c, 4, 52, 127
2, 216784, Note_off_c, 12, 71, 127
2, 216787, Note_on_c, 3, 51, 127
2, 216787, Note_on_c, 0, 60, 127
2, 216787, Note_on_c, 10, 69, 127
2, 216915, Note_off_c, 10, 69, 127
2, 216915, Note_off_c, 0, 60, 127
2, 216915, Note_off_c, 3, 51, 127
2, 216918, Note_on_c, 4, 52, 127
2, 216918, Note_on_c, 12, 59, 127
2, 216918, Note_on_c, 8, 68, 127
2, 217046, Note_off_c, 8, 68, 127
2, 217046, Note_off_c, 12, 59, 127
2, 217050, Note_on_c, 2, 62, 127
2, 217050, Note_on_c, 5, 77, 127
2, 217178, Note_off_c, 5, 77, 127
2, 217178, Note_off_c, 2, 62, 127
2, 217181, Note_on_c, 0, 60, 127
2, 217181, Note_on_c, 4, 76, 127
2, 217309, Note_off_c, 4, 76, 127
2, 217309, Note_off_c, 0, 60, 127
2, 217313, Note_on_c, 12, 59, 127
2, 217313, Note_on_c, 2, 74, 127
2, 217441, Note_off_c, 2, 74, 127
2, 217441, Note_off_c, 12, 59, 127
2, 217445, Note_on_c, 10, 57, 127
2, 217445, Note_on_c, 0, 72, 127
2, 217573, Note_off_c, 0, 72, 127
2, 217573, Note_off_c, 10, 57, 127
2, 217576, Note_on_c, 8, 56, 127
2, 217576, Note_on_c, 12, 71, 127
2, 217704, Note_off_c, 12, 71, 127
2, 217704, Note_off_c, 8, 56, 127
2, 217705, Note_off_c, 4, 52, 127
2, 217707, Note_on_c, 10, 45, 127
2, 217707, Note_on_c, 10, 57, 127
2, 217707, Note_on_c, 0, 72, 127
2, 217835, Note_off_c, 0, 72, 127
2, 217839, Note_on_c, 2, 74, 127
2, 217967, Note_off_c, 2, 74, 127
2, 217967, Note_off_c, 10, 45, 127
2, 217971, Note_on_c, 4, 52, 127
2, 217971, Note_on_c, 4, 76, 127
2, 218095, Note_off_c, 10, 57, 127
2, 218099, Note_off_c, 4, 76, 127
2, 218099, Note_off_c, 4, 52, 127
2, 218102, Note_on_c, 10, 57, 127
2, 218102, Note_on_c, 2, 74, 127
2, 218230, Note_off_c, 2, 74, 127
2, 218234, Note_on_c, 0, 72, 127
2, 218362, Note_off_c, 0, 72, 127
2, 218362, Note_off_c, 10, 57, 127
2, 218365, Note_on_c, 12, 59, 127
2, 218365, Note_on_c, 12, 71, 127
2, 218493, Note_off_c, 12, 71, 127
2, 218493, Note_off_c, 12, 59, 127
2, 218496, Note_on_c, 0, 60, 127
2, 218496, Note_on_c, 10, 69, 127
2, 218627, Note_on_c, 7, 67, 127
2, 218754, Note_off_c, 0, 60, 127
2, 218755, Note_off_c, 7, 67, 127
2, 218758, Note_on_c, 10, 57, 127
2, 218758, Note_on_c, 6, 66, 127
2, 218886, Note_off_c, 6, 66, 127
2, 218886, Note_off_c, 10, 57, 127
2, 218889, Note_on_c, 6, 54, 127
2, 218889, Note_on_c, 4, 64, 127
2, 219017, Note_off_c, 4, 64, 127
2, 219021, Note_on_c, 3, 63, 127
2, 219149, Note_off_c, 3, 63, 127
2, 219149, Note_off_c, 6, 54, 127
2, 219153, Note_on_c, 10, 57, 127
2, 219153, Note_on_c, 1, 61, 127
2, 219281, Note_off_c, 1, 61, 127
2, 219281, Note_off_c, 10, 57, 127
2, 219284, Note_on_c, 12, 47, 127
2, 219284, Note_on_c, 3, 63, 127
2, 219412, Note_off_c, 3, 63, 127
2, 219412, Note_off_c, 12, 47, 127
2, 219416, Note_on_c, 1, 49, 127
2, 219416, Note_on_c, 4, 64, 127
2, 219544, Note_off_c, 4, 64, 127
2, 219544, Note_off_c, 1, 49, 127
2, 219548, Note_on_c, 3, 51, 127
2, 219548, Note_on_c, 6, 66, 127
2, 219676, Note_off_c, 6, 66, 127
2, 219676, Note_off_c, 3, 51, 127
2, 219678, Note_on_c, 1, 49, 127
2, 219678, Note_on_c, 4, 64, 127
2, 219806, Note_off_c, 4, 64, 127
2, 219806, Note_off_c, 1, 49, 127
2, 219810, Note_on_c, 6, 54, 127
2, 219810, Note_on_c, 3, 63, 127
2, 219938, Note_off_c, 3, 63, 127
2, 219938, Note_off_c, 6, 54, 127
2, 219942, Note_on_c, 4, 52, 127
2, 219942, Note_on_c, 1, 61, 127
2, 220070, Note_off_c, 1, 61, 127
2, 220070, Note_off_c, 4, 52, 127
2, 220073, Note_on_c, 3, 51, 127
2, 220073, Note_on_c, 12, 59, 127
2, 220200, Note_off_c, 10, 69, 127
2, 220201, Note_off_c, 3, 51, 127
2, 220205, Note_on_c, 10, 57, 127
2, 220205, Note_on_c, 3, 63, 127
2, 220333, Note_off_c, 3, 63, 127
2, 220333, Note_off_c, 10, 57, 127
2, 220337, Note_on_c, 7, 55, 127
2, 220337, Note_on_c, 4, 64, 127
2, 220465, Note_off_c, 4, 64, 127
2, 220465, Note_off_c, 7, 55, 127
2, 220467, Note_on_c, 6, 54, 127
2, 220467, Note_on_c, 6, 66, 127
2, 220595, Note_off_c, 6, 66, 127
2, 220595, Note_off_c, 6, 54, 127
2, 220599, Note_on_c, 4, 52, 127
2, 220599, Note_on_c, 7, 67, 127
2, 220727, Note_off_c, 7, 67, 127
2, 220727, Note_off_c, 4, 52, 127
2, 220732, Note_on_c, 3, 51, 127
2, 220732, Note_on_c, 10, 69, 127
2, 220860, Note_off_c, 10, 69, 127
2, 220860, Note_off_c, 3, 51, 127
2, 220862, Note_on_c, 4, 52, 127
2, 220862, Note_on_c, 7, 67, 127
2, 220992, Note_off_c, 4, 52, 127
2, 220996, Note_on_c, 6, 54, 127
2, 221126, Note_off_c, 6, 54, 127
2, 221126, Note_off_c, 12, 59, 127
2, 221130, Note_on_c, 7, 55, 127
2, 221130, Note_on_c, 12, 59, 127
2, 221260, Note_off_c, 12, 59, 127
2, 221260, Note_off_c, 7, 55, 127
2, 221262, Note_on_c, 6, 54, 127
2, 221262, Note_on_c, 0, 60, 127
2, 221392, Note_off_c, 6, 54, 127
2, 221396, Note_on_c, 4, 52, 127
2, 221526, Note_off_c, 4, 52, 127
2, 221526, Note_off_c, 0, 60, 127
2, 221530, Note_on_c, 2, 50, 127
2, 221530, Note_on_c, 12, 59, 127
2, 221660, Note_off_c, 12, 59, 127
2, 221660, Note_off_c, 2, 50, 127
2, 221662, Note_on_c, 1, 49, 127
2, 221662, Note_on_c, 11, 58, 127
2, 221792, Note_off_c, 7, 67, 127
2, 221796, Note_on_c, 3, 63, 127
2, 221926, Note_off_c, 3, 63, 127
2, 221930, Note_on_c, 4, 64, 127
2, 222059, Note_off_c, 11, 58, 127
2, 222059, Note_off_c, 1, 49, 127
2, 222060, Note_off_c, 4, 64, 127
2, 222063, Note_on_c, 0, 48, 127
2, 222063, Note_on_c, 10, 57, 127
2, 222063, Note_on_c, 7, 67, 127
2, 222193, Note_off_c, 7, 67, 127
2, 222197, Note_on_c, 6, 66, 127
2, 222327, Note_off_c, 6, 66, 127
2, 222331, Note_on_c, 10, 69, 127
2, 222460, Note_off_c, 0, 48, 127
2, 222461, Note_off_c, 10, 69, 127
2, 222463, Note_on_c, 12, 47, 127
2, 222463, Note_on_c, 3, 63, 127
2, 222597, Note_off_c, 10, 57, 127
2, 222601, Note_on_c, 0, 60, 127
2, 222734, Note_off_c, 0, 60, 127
2, 222734, Note_off_c, 3, 63, 127
2, 222737, Note_on_c, 12, 59, 127
2, 222737, Note_on_c, 4, 64, 127
2, 222870, Note_off_c, 4, 64, 127
2, 222870, Note_off_c, 12, 59, 127
2, 222874, Note_on_c, 10, 57, 127
2, 222874, Note_on_c, 6, 66, 127
2, 223007, Note_off_c, 10, 57, 127
2, 223012, Note_on_c, 7, 55, 127
2, 223145, Note_off_c, 7, 55, 127
2, 223149, Note_on_c, 6, 54, 127
2, 223282, Note_off_c, 6, 54, 127
2, 223286, Note_on_c, 7, 55, 127
2, 223419, Note_off_c, 6, 66, 127
2, 223440, Note_on_c, 12, 59, 127
2, 223573, Note_off_c, 12, 59, 127
2, 223576, Note_on_c, 3, 63, 127
2, 223709, Note_off_c, 3, 63, 127
2, 223714, Note_on_c, 6, 66, 127
2, 223847, Note_off_c, 6, 66, 127
2, 223850, Note_on_c, 12, 71, 127
2, 223983, Note_off_c, 12, 71, 127
2, 223987, Note_on_c, 3, 63, 127
2, 224120, Note_off_c, 3, 63, 127
2, 224125, Note_on_c, 4, 64, 127
2, 224246, Note_off_c, 12, 47, 127
2, 224282, Note_on_c, 1, 49, 127
2, 224419, Note_off_c, 1, 49, 127
2, 224422, Note_on_c, 3, 51, 127
2, 224559, Note_off_c, 3, 51, 127
2, 224563, Note_on_c, 4, 52, 127
2, 224671, Note_off_c, 7, 55, 127
2, 224700, Note_off_c, 4, 52, 127
2, 224704, Note_on_c, 6, 54, 127
2, 224841, Note_off_c, 6, 54, 127
2, 224844, Note_on_c, 7, 55, 127
2, 224981, Note_off_c, 7, 55, 127
2, 224986, Note_on_c, 11, 46, 127
2, 224986, Note_on_c, 7, 55, 127
2, 225108, Note_off_c, 4, 64, 127
2, 225127, Note_on_c, 7, 67, 127
2, 225264, Note_off_c, 7, 67, 127
2, 225267, Note_on_c, 11, 70, 127
2, 225404, Note_off_c, 11, 70, 127
2, 225408, Note_on_c, 1, 73, 127
2, 225545, Note_off_c, 1, 73, 127
2, 225546, Note_off_c, 7, 55, 127
2, 225548, Note_on_c, 6, 54, 127
2, 225548, Note_on_c, 3, 75, 127
2, 225685, Note_off_c, 3, 75, 127
2, 225685, Note_off_c, 6, 54, 127
2, 225689, Note_on_c, 7, 55, 127
2, 225689, Note_on_c, 4, 76, 127
2, 225835, Note_off_c, 7, 55, 127
2, 225836, Note_off_c, 4, 76, 127
2, 225838, Note_off_c, 11, 46, 127
2, 225863, Note_on_c, 12, 47, 127
2, 225863, Note_on_c, 7, 55, 127
2, 225863, Note_on_c, 4, 64, 127
2, 226353, Note_off_c, 4, 64, 127
2, 226353, Note_off_c, 7, 55, 127
2, 226367, Note_on_c, 6, 54, 127
2, 226367, Note_on_c, 3, 63, 127
2, 226833, Note_off_c, 3, 63, 127
2, 226833, Note_off_c, 6, 54, 127
2, 227005, Note_off_c, 12, 47, 127
2, 227017, Note_on_c, 0, 48, 127
2, 227145, Note_off_c, 0, 48, 127
2, 227148, Note_on_c, 12, 47, 127
2, 227276, Note_off_c, 12, 47, 127
2, 227280, Note_on_c, 10, 45, 127
2, 227408, Note_off_c, 10, 45, 127
2, 227412, Note_on_c, 7, 43, 127
2, 227540, Note_off_c, 7, 43, 127
2, 227543, Note_on_c, 6, 42, 127
2, 227671, Note_off_c, 6, 42, 127
2, 227675, Note_on_c, 7, 43, 127
2, 227803, Note_off_c, 7, 43, 127
2, 227806, Note_on_c, 12, 59, 127
2, 227806, Note_on_c, 10, 45, 127
2, 227934, Note_off_c, 10, 45, 127
2, 227934, Note_off_c, 12, 59, 127
2, 227937, Note_on_c, 1, 61, 127
2, 227937, Note_on_c, 7, 43, 127
2, 228065, Note_off_c, 7, 43, 127
2, 228065, Note_off_c, 1, 61, 127
2, 228069, Note_on_c, 3, 63, 127
2, 228069, Note_on_c, 6, 42, 127
2, 228197, Note_off_c, 6, 42, 127
2, 228197, Note_off_c, 3, 63, 127
2, 228201, Note_on_c, 4, 64, 127
2, 228201, Note_on_c, 4, 40, 127
2, 228329, Note_off_c, 4, 40, 127
2, 228329, Note_off_c, 4, 64, 127
2, 228332, Note_on_c, 6, 66, 127
2, 228332, Note_on_c, 3, 39, 127
2, 228460, Note_off_c, 3, 39, 127
2, 228460, Note_off_c, 6, 66, 127
2, 228464, Note_on_c, 7, 67, 127
2, 228464, Note_on_c, 4, 40, 127
2, 228592, Note_off_c, 7, 67, 127
2, 228596, Note_on_c, 0, 72, 127
2, 228724, Note_off_c, 0, 72, 127
2, 228726, Note_on_c, 12, 71, 127
2, 228854, Note_off_c, 12, 71, 127
2, 228859, Note_on_c, 10, 69, 127
2, 228986, Note_off_c, 4, 40, 127
2, 228987, Note_off_c, 10, 69, 127
2, 228991, Note_on_c, 7, 67, 127
2, 228991, Note_on_c, 4, 40, 127
2, 229119, Note_off_c, 4, 40, 127
2, 229119, Note_off_c, 7, 67, 127
2, 229121, Note_on_c, 6, 66, 127
2, 229121, Note_on_c, 6, 42, 127
2, 229249, Note_off_c, 6, 42, 127
2, 229249, Note_off_c, 6, 66, 127
2, 229253, Note_on_c, 4, 64, 127
2, 229253, Note_on_c, 7, 43, 127
2, 229381, Note_off_c, 4, 64, 127
2, 229385, Note_on_c, 7, 79, 127
2, 229513, Note_off_c, 7, 79, 127
2, 229516, Note_on_c, 4, 76, 127
2, 229644, Note_off_c, 4, 76, 127
2, 229645, Note_off_c, 7, 43, 127
2, 229648, Note_on_c, 1, 73, 127
2, 229648, Note_on_c, 10, 45, 127
2, 229744, Note_off_c, 10, 45, 127
2, 229746, Note_on_c, 7, 43, 127
2, 229842, Note_off_c, 7, 43, 127
2, 229844, Note_on_c, 6, 42, 127
2, 229940, Note_off_c, 6, 42, 127
2, 229942, Note_on_c, 7, 43, 127
2, 230038, Note_off_c, 7, 43, 127
2, 230038, Note_off_c, 1, 73, 127
2, 230040, Note_on_c, 6, 66, 127
2, 230040, Note_on_c, 10, 45, 127
2, 230168, Note_off_c, 6, 66, 127
2, 230173, Note_on_c, 10, 81, 127
2, 230301, Note_off_c, 10, 81, 127
2, 230303, Note_on_c, 6, 78, 127
2, 230431, Note_off_c, 6, 78, 127
2, 230432, Note_off_c, 10, 45, 127
2, 230435, Note_on_c, 3, 75, 127
2, 230435, Note_on_c, 12, 47, 127
2, 230531, Note_off_c, 12, 47, 127
2, 230533, Note_on_c, 10, 45, 127
2, 230629, Note_off_c, 10, 45, 127
2, 230631, Note_on_c, 7, 43, 127
2, 230727, Note_off_c, 7, 43, 127
2, 230730, Note_on_c, 10, 45, 127
2, 230825, Note_off_c, 3, 75, 127
2, 230826, Note_off_c, 10, 45, 127
2, 230828, Note_on_c, 7, 67, 127
2, 230828, Note_on_c, 12, 47, 127
2, 230956, Note_off_c, 7, 67, 127
2, 230960, Note_on_c, 12, 83, 127
2, 231088, Note_off_c, 12, 83, 127
2, 231092, Note_on_c, 7, 79, 127
2, 231220, Note_off_c, 7, 79, 127
2, 231220, Note_off_c, 12, 47, 127
2, 231222, Note_on_c, 4, 76, 127
2, 231222, Note_on_c, 7, 43, 127
2, 231350, Note_off_c, 4, 76, 127
2, 231354, Note_on_c, 2, 74, 127
2, 231482, Note_off_c, 2, 74, 127
2, 231487, Note_on_c, 1, 73, 127
2, 231614, Note_off_c, 7, 43, 127
2, 231615, Note_off_c, 1, 73, 127
2, 231617, Note_on_c, 2, 74, 127
2, 231617, Note_on_c, 12, 71, 127
2, 231617, Note_on_c, 4, 40, 127
2, 231745, Note_off_c, 12, 71, 127
2, 231749, Note_on_c, 12, 71, 127
2, 231877, Note_off_c, 12, 71, 127
2, 231881, Note_on_c, 8, 68, 127
2, 232009, Note_off_c, 8, 68, 127
2, 232009, Note_off_c, 4, 40, 127
2, 232011, Note_on_c, 4, 64, 127
2, 232011, Note_on_c, 0, 48, 127
2, 232139, Note_off_c, 4, 64, 127
2, 232144, Note_on_c, 6, 66, 127
2, 232272, Note_off_c, 6, 66, 127
2, 232276, Note_on_c, 8, 68, 127
2, 232404, Note_off_c, 8, 68, 127
2, 232404, Note_off_c, 2, 74, 127
2, 232406, Note_on_c, 0, 72, 127
2, 232406, Note_on_c, 10, 69, 127
2, 232534, Note_off_c, 0, 72, 127
2, 232538, Note_on_c, 6, 66, 127
2, 232666, Note_off_c, 6, 66, 127
2, 232670, Note_on_c, 4, 64, 127
2, 232798, Note_off_c, 4, 64, 127
2, 232798, Note_off_c, 0, 48, 127
2, 232801, Note_on_c, 3, 63, 127
2, 232801, Note_on_c, 12, 47, 127
2, 232929, Note_off_c, 3, 63, 127
2, 232933, Note_on_c, 4, 64, 127
2, 233061, Note_off_c, 4, 64, 127
2, 233061, Note_off_c, 12, 47, 127
2, 233065, Note_on_c, 6, 66, 127
2, 233065, Note_on_c, 3, 51, 127
2, 233193, Note_off_c, 3, 51, 127
2, 233193, Note_off_c, 6, 66, 127
2, 233193, Note_off_c, 10, 69, 127
2, 233196, Note_on_c, 7, 67, 127
2, 233196, Note_on_c, 4, 52, 127
2, 233325, Note_on_c, 10, 69, 127
2, 233453, Note_off_c, 10, 69, 127
2, 233458, Note_on_c, 12, 71, 127
2, 233586, Note_off_c, 12, 71, 127
2, 233586, Note_off_c, 4, 52, 127
2, 233589, Note_on_c, 0, 72, 127
2, 233589, Note_on_c, 10, 45, 127
2, 233717, Note_off_c, 0, 72, 127
2, 233720, Note_on_c, 12, 71, 127
2, 233848, Note_off_c, 12, 71, 127
2, 233852, Note_on_c, 10, 69, 127
2, 233980, Note_off_c, 10, 69, 127
2, 233981, Note_off_c, 7, 67, 127
2, 233983, Note_on_c, 3, 75, 127
2, 233983, Note_on_c, 6, 66, 127
2, 234111, Note_off_c, 3, 75, 127
2, 234115, Note_on_c, 4, 76, 127
2, 234243, Note_off_c, 4, 76, 127
2, 234247, Note_on_c, 6, 78, 127
2, 234375, Note_off_c, 6, 78, 127
2, 234376, Note_off_c, 10, 45, 127
2, 234378, Note_on_c, 12, 71, 127
2, 234378, Note_on_c, 7, 43, 127
2, 234506, Note_off_c, 12, 71, 127
2, 234509, Note_on_c, 0, 72, 127
2, 234637, Note_off_c, 0, 72, 127
2, 234638, Note_off_c, 7, 43, 127
2, 234641, Note_on_c, 10, 69, 127
2, 234641, Note_on_c, 3, 51, 127
2, 234769, Note_off_c, 3, 51, 127
2, 234769, Note_off_c, 10, 69, 127
2, 234770, Note_off_c, 6, 66, 127
2, 234773, Note_on_c, 7, 67, 127
2, 234773, Note_on_c, 4, 64, 127
2, 234773, Note_on_c, 4, 52, 127
2, 234901, Note_off_c, 7, 67, 127
2, 234904, Note_on_c, 6, 66, 127
2, 235032, Note_off_c, 6, 66, 127
2, 235036, Note_on_c, 7, 67, 127
2, 235164, Note_off_c, 7, 67, 127
2, 235165, Note_off_c, 4, 52, 127
2, 235167, Note_on_c, 10, 69, 127
2, 235167, Note_on_c, 6, 42, 127
2, 235295, Note_off_c, 10, 69, 127
2, 235299, Note_on_c, 12, 71, 127
2, 235427, Note_off_c, 12, 71, 127
2, 235430, Note_on_c, 0, 72, 127
2, 235560, Note_off_c, 4, 64, 127
2, 235562, Note_on_c, 3, 63, 127
2, 235689, Note_off_c, 6, 42, 127
2, 235694, Note_on_c, 7, 43, 127
2, 235822, Note_off_c, 7, 43, 127
2, 235825, Note_on_c, 10, 45, 127
2, 235952, Note_off_c, 0, 72, 127
2, 235953, Note_off_c, 10, 45, 127
2, 235954, Note_off_c, 3, 63, 127
2, 235956, Note_on_c, 12, 71, 127
2, 235956, Note_on_c, 4, 64, 127
2, 235956, Note_on_c, 7, 43, 127
2, 236084, Note_off_c, 7, 43, 127
2, 236084, Note_off_c, 12, 71, 127
2, 236088, Note_on_c, 10, 69, 127
2, 236088, Note_on_c, 6, 42, 127
2, 236216, Note_off_c, 6, 42, 127
2, 236216, Note_off_c, 10, 69, 127
2, 236220, Note_on_c, 7, 67, 127
2, 236220, Note_on_c, 4, 40, 127
2, 236348, Note_off_c, 4, 40, 127
2, 236348, Note_off_c, 7, 67, 127
2, 236348, Note_off_c, 4, 64, 127
2, 236351, Note_on_c, 10, 69, 127
2, 236351, Note_on_c, 6, 66, 127
2, 236351, Note_on_c, 3, 39, 127
2, 236479, Note_off_c, 3, 39, 127
2, 236483, Note_on_c, 0, 48, 127
2, 236611, Note_off_c, 0, 48, 127
2, 236614, Note_on_c, 12, 47, 127
2, 236742, Note_off_c, 12, 47, 127
2, 236745, Note_on_c, 10, 45, 127
2, 236873, Note_off_c, 10, 45, 127
2, 236878, Note_on_c, 7, 43, 127
2, 237006, Note_off_c, 7, 43, 127
2, 237009, Note_on_c, 6, 42, 127
2, 237137, Note_off_c, 6, 42, 127
2, 237140, Note_on_c, 7, 43, 127
2, 237268, Note_off_c, 7, 43, 127
2, 237272, Note_on_c, 10, 45, 127
2, 237400, Note_off_c, 10, 45, 127
2, 237400, Note_off_c, 6, 66, 127
2, 237400, Note_off_c, 10, 69, 127
2, 237403, Note_on_c, 6, 66, 127
2, 237403, Note_on_c, 3, 63, 127
2, 237403, Note_on_c, 12, 47, 127
2, 237531, Note_off_c, 12, 47, 127
2, 237531, Note_off_c, 3, 63, 127
2, 237531, Note_off_c, 6, 66, 127
2, 237534, Note_on_c, 12, 71, 127
2, 237534, Note_on_c, 12, 59, 127
2, 237534, Note_on_c, 10, 45, 127
2, 237662, Note_off_c, 10, 45, 127
2, 237667, Note_on_c, 7, 43, 127
2, 237794, Note_off_c, 12, 59, 127
2, 237794, Note_off_c, 12, 71, 127
2, 237795, Note_off_c, 7, 43, 127
2, 237799, Note_on_c, 10, 69, 127
2, 237799, Note_on_c, 3, 63, 127
2, 237799, Note_on_c, 6, 42, 127
2, 237927, Note_off_c, 6, 42, 127
2, 237927, Note_off_c, 3, 63, 127
2, 237927, Note_off_c, 10, 69, 127
2, 237929, Note_on_c, 7, 67, 127
2, 237929, Note_on_c, 4, 64, 127
2, 237929, Note_on_c, 4, 40, 127
2, 238057, Note_off_c, 4, 40, 127
2, 238061, Note_on_c, 4, 52, 127
2, 238189, Note_off_c, 4, 52, 127
2, 238193, Note_on_c, 2, 50, 127
2, 238321, Note_off_c, 2, 50, 127
2, 238324, Note_on_c, 0, 48, 127
2, 238452, Note_off_c, 0, 48, 127
2, 238456, Note_on_c, 12, 47, 127
2, 238584, Note_off_c, 12, 47, 127
2, 238588, Note_on_c, 11, 46, 127
2, 238716, Note_off_c, 11, 46, 127
2, 238718, Note_on_c, 12, 47, 127
2, 238846, Note_off_c, 7, 67, 127
2, 238866, Note_on_c, 12, 71, 127
2, 238994, Note_off_c, 12, 71, 127
2, 238999, Note_on_c, 10, 69, 127
2, 239110, Note_off_c, 4, 64, 127
2, 239129, Note_off_c, 10, 69, 127
2, 239131, Note_on_c, 7, 67, 127
2, 239259, Note_off_c, 7, 67, 127
2, 239263, Note_on_c, 6, 66, 127
2, 239391, Note_off_c, 6, 66, 127
2, 239395, Note_on_c, 4, 64, 127
2, 239523, Note_off_c, 4, 64, 127
2, 239525, Note_on_c, 3, 63, 127
2, 239653, Note_off_c, 3, 63, 127
2, 239657, Note_on_c, 3, 51, 127
2, 239657, Note_on_c, 0, 72, 127
2, 239785, Note_off_c, 3, 51, 127
2, 239790, Note_on_c, 4, 52, 127
2, 239918, Note_off_c, 4, 52, 127
2, 239920, Note_on_c, 6, 54, 127
2, 240059, Note_off_c, 6, 54, 127
2, 240068, Note_on_c, 4, 64, 127
2, 240068, Note_on_c, 7, 55, 127
2, 240071, Note_off_c, 0, 72, 127
2, 240200, Note_on_c, 3, 63, 127
2, 240200, Note_on_c, 10, 57, 127
2, 240205, Note_off_c, 4, 64, 127
2, 240207, Note_off_c, 7, 55, 127
2, 240296, Note_off_c, 12, 47, 127
2, 240328, Note_off_c, 10, 57, 127
2, 240328, Note_off_c, 3, 63, 127
2, 240332, Note_on_c, 7, 67, 127
2, 240332, Note_on_c, 7, 55, 127
2, 240332, Note_on_c, 12, 47, 127
2, 240462, Note_off_c, 7, 67, 127
2, 240480, Note_on_c, 4, 64, 127
2, 240613, Note_on_c, 7, 67, 127
2, 240745, Note_on_c, 1, 73, 127
2, 240858, Note_off_c, 7, 55, 127
2, 240877, Note_on_c, 11, 58, 127
2, 241006, Note_off_c, 4, 64, 127
2, 241007, Note_off_c, 11, 58, 127
2, 241011, Note_on_c, 12, 59, 127
2, 241125, Note_off_c, 12, 47, 127
2, 241141, Note_off_c, 7, 67, 127
2, 241144, Note_on_c, 12, 47, 127
2, 241275, Note_off_c, 1, 73, 127
2, 241277, Note_on_c, 6, 66, 127
2, 241409, Note_on_c, 10, 69, 127
2, 241541, Note_on_c, 3, 75, 127
2, 241605, Note_off_c, 12, 59, 127
2, 241672, Note_on_c, 11, 58, 127
2, 241801, Note_off_c, 6, 66, 127
2, 241802, Note_off_c, 11, 58, 127
2, 241806, Note_on_c, 12, 59, 127
2, 241935, Note_off_c, 10, 69, 127
2, 241936, Note_off_c, 12, 47, 127
2, 241939, Note_on_c, 12, 47, 127
2, 242069, Note_off_c, 3, 75, 127
2, 242088, Note_on_c, 7, 67, 127
2, 242222, Note_on_c, 12, 71, 127
2, 242355, Note_on_c, 4, 76, 127
2, 242403, Note_off_c, 12, 59, 127
2, 242488, Note_on_c, 11, 58, 127
2, 242618, Note_off_c, 11, 58, 127
2, 242618, Note_off_c, 7, 67, 127
2, 242622, Note_on_c, 12, 59, 127
2, 242736, Note_off_c, 12, 47, 127
2, 242752, Note_off_c, 12, 71, 127
2, 242755, Note_on_c, 12, 47, 127
2, 242885, Note_off_c, 4, 76, 127
2, 242904, Note_on_c, 10, 69, 127
2, 243039, Note_on_c, 3, 75, 127
2, 243091, Note_off_c, 3, 75, 127
2, 243172, Note_on_c, 6, 78, 127
2, 243219, Note_off_c, 12, 59, 127
2, 243305, Note_on_c, 11, 58, 127
2, 243434, Note_off_c, 10, 69, 127
2, 243435, Note_off_c, 11, 58, 127
2, 243439, Note_on_c, 12, 59, 127
2, 243552, Note_off_c, 12, 47, 127
2, 243572, Note_on_c, 12, 47, 127
2, 243704, Note_off_c, 6, 78, 127
2, 243723, Note_on_c, 12, 71, 127
2, 243836, Note_off_c, 12, 59, 127
2, 243857, Note_on_c, 4, 76, 127
2, 243992, Note_on_c, 7, 79, 127
2, 244119, Note_off_c, 12, 47, 127
2, 244138, Note_on_c, 11, 58, 127
2, 244281, Note_off_c, 11, 58, 127
2, 244284, Note_on_c, 12, 59, 127
2, 244427, Note_off_c, 12, 59, 127
2, 244431, Note_on_c, 6, 54, 127
2, 244574, Note_off_c, 6, 54, 127
2, 244577, Note_on_c, 7, 55, 127
2, 244720, Note_off_c, 7, 55, 127
2, 244723, Note_on_c, 3, 51, 127
2, 244725, Note_off_c, 12, 71, 127
2, 244866, Note_off_c, 3, 51, 127
2, 244870, Note_on_c, 4, 52, 127
2, 245013, Note_off_c, 4, 52, 127
2, 245016, Note_on_c, 12, 47, 127
2, 245102, Note_off_c, 4, 76, 127
2, 245159, Note_off_c, 12, 47, 127
2, 245162, Note_on_c, 0, 48, 127
2, 245305, Note_off_c, 0, 48, 127
2, 245309, Note_on_c, 3, 39, 127
2, 245464, Note_off_c, 7, 79, 127
2, 245482, Note_on_c, 0, 72, 127
2, 245640, Note_on_c, 6, 78, 127
2, 245798, Note_on_c, 10, 81, 127
2, 245948, Note_off_c, 0, 72, 127
2, 245951, Note_off_c, 6, 78, 127
2, 245952, Note_off_c, 10, 81, 127
2, 245955, Note_on_c, 3, 75, 127
2, 246109, Note_off_c, 3, 75, 127
2, 246112, Note_on_c, 6, 78, 127
2, 246266, Note_off_c, 6, 78, 127
2, 246270, Note_on_c, 0, 72, 127
2, 246424, Note_off_c, 0, 72, 127
2, 246427, Note_on_c, 12, 71, 127
2, 246585, Note_on_c, 3, 75, 127
2, 246743, Note_on_c, 6, 78, 127
2, 246893, Note_off_c, 12, 71, 127
2, 246896, Note_off_c, 3, 75, 127
2, 246897, Note_off_c, 6, 78, 127
2, 246900, Note_on_c, 10, 69, 127
2, 247054, Note_off_c, 10, 69, 127
2, 247057, Note_on_c, 0, 72, 127
2, 247211, Note_off_c, 0, 72, 127
2, 247214, Note_on_c, 7, 67, 127
2, 247368, Note_off_c, 7, 67, 127
2, 247372, Note_on_c, 6, 66, 127
2, 247530, Note_on_c, 10, 69, 127
2, 247687, Note_on_c, 0, 72, 127
2, 247851, Note_off_c, 6, 66, 127
2, 247854, Note_off_c, 0, 72, 127
2, 247854, Note_off_c, 10, 69, 127
2, 247857, Note_on_c, 6, 66, 127
2, 248024, Note_off_c, 6, 66, 127
2, 248028, Note_on_c, 10, 69, 127
2, 248180, Note_off_c, 3, 39, 127
2, 248195, Note_off_c, 10, 69, 127
2, 248199, Note_on_c, 6, 54, 127
2, 248199, Note_on_c, 10, 45, 127
2, 248199, Note_on_c, 12, 59, 127
2, 248199, Note_on_c, 4, 64, 127
2, 248818, Note_off_c, 4, 64, 127
2, 248821, Note_on_c, 3, 63, 127
2, 249441, Note_off_c, 12, 59, 127
2, 249441, Note_off_c, 10, 45, 127
2, 249441, Note_off_c, 6, 54, 127
2, 249738, Note_off_c, 3, 63, 127
2, 249765, Note_on_c, 4, 76, 127
2, 249838, Note_off_c, 4, 76, 127
2, 249842, Note_on_c, 3, 75, 127
2, 249915, Note_off_c, 3, 75, 127
2, 249918, Note_on_c, 1, 73, 127
2, 249991, Note_off_c, 1, 73, 127
2, 249994, Note_on_c, 3, 75, 127
2, 250067, Note_off_c, 3, 75, 127
2, 250069, Note_on_c, 4, 76, 127
2, 250368, Note_on_c, 6, 66, 127
2, 250368, Note_on_c, 11, 58, 127
2, 250515, Note_off_c, 11, 58, 127
2, 250515, Note_off_c, 6, 66, 127
2, 250519, Note_on_c, 7, 67, 127
2, 250519, Note_on_c, 12, 59, 127
2, 250664, Note_off_c, 4, 76, 127
2, 250668, Note_on_c, 2, 74, 127
2, 250815, Note_off_c, 2, 74, 127
2, 250819, Note_on_c, 0, 72, 127
2, 250966, Note_off_c, 0, 72, 127
2, 250968, Note_on_c, 12, 71, 127
2, 251115, Note_off_c, 12, 71, 127
2, 251116, Note_off_c, 7, 67, 127
2, 251119, Note_on_c, 10, 69, 127
2, 251119, Note_on_c, 6, 66, 127
2, 251266, Note_off_c, 6, 66, 127
2, 251266, Note_off_c, 10, 69, 127
2, 251268, Note_on_c, 7, 67, 127
2, 251268, Note_on_c, 4, 64, 127
2, 251418, Note_off_c, 4, 64, 127
2, 251418, Note_off_c, 7, 67, 127
2, 251423, Note_on_c, 10, 69, 127
2, 251423, Note_on_c, 3, 63, 127
2, 251573, Note_off_c, 10, 69, 127
2, 251576, Note_on_c, 6, 66, 127
2, 251726, Note_off_c, 6, 66, 127
2, 251726, Note_off_c, 3, 63, 127
2, 251730, Note_on_c, 7, 67, 127
2, 251730, Note_on_c, 4, 64, 127
2, 251880, Note_off_c, 4, 64, 127
2, 251880, Note_off_c, 7, 67, 127
2, 251884, Note_on_c, 10, 69, 127
2, 251884, Note_on_c, 6, 66, 127
2, 252034, Note_off_c, 10, 69, 127
2, 252037, Note_on_c, 12, 71, 127
2, 252187, Note_off_c, 12, 71, 127
2, 252187, Note_off_c, 6, 66, 127
2, 252191, Note_on_c, 0, 72, 127
2, 252191, Note_on_c, 4, 64, 127
2, 252349, Note_off_c, 4, 64, 127
2, 252352, Note_on_c, 3, 63, 127
2, 252509, Note_off_c, 0, 72, 127
2, 252510, Note_off_c, 3, 63, 127
2, 252514, Note_on_c, 12, 71, 127
2, 252514, Note_on_c, 1, 61, 127
2, 252672, Note_off_c, 1, 61, 127
2, 252672, Note_off_c, 12, 71, 127
2, 252675, Note_on_c, 10, 69, 127
2, 252675, Note_on_c, 3, 63, 127
2, 252833, Note_off_c, 3, 63, 127
2, 252833, Note_off_c, 10, 69, 127
2, 252836, Note_on_c, 7, 67, 127
2, 252836, Note_on_c, 4, 64, 127
2, 252994, Note_off_c, 4, 64, 127
2, 252994, Note_off_c, 7, 67, 127
2, 252998, Note_on_c, 3, 63, 127
2, 252998, Note_on_c, 6, 54, 127
2, 253156, Note_off_c, 6, 54, 127
2, 253156, Note_off_c, 3, 63, 127
2, 253156, Note_off_c, 12, 59, 127
2, 253158, Note_on_c, 4, 64, 127
2, 253158, Note_on_c, 7, 55, 127
2, 253158, Note_on_c, 11, 46, 127
2, 253322, Note_off_c, 11, 46, 127
2, 253322, Note_off_c, 7, 55, 127
2, 253325, Note_on_c, 6, 54, 127
2, 253325, Note_on_c, 12, 47, 127
2, 253488, Note_off_c, 4, 64, 127
2, 253492, Note_on_c, 6, 66, 127
2, 253580, Note_off_c, 6, 66, 127
2, 253583, Note_on_c, 10, 69, 127
2, 253695, Note_off_c, 10, 69, 127
2, 253700, Note_on_c, 0, 72, 127
2, 253848, Note_on_c, 3, 63, 127
2, 253859, Note_off_c, 0, 72, 127
2, 254005, Note_off_c, 6, 54, 127
2, 254015, Note_on_c, 7, 55, 127
2, 254198, Note_off_c, 3, 63, 127
2, 254200, Note_off_c, 7, 55, 127
2, 254205, Note_on_c, 4, 64, 127
2, 254205, Note_on_c, 10, 57, 127
2, 254380, Note_off_c, 4, 64, 127
2, 254393, Note_off_c, 12, 47, 127
2, 254400, Note_on_c, 4, 52, 127
2, 254400, Note_on_c, 4, 64, 127
2, 254557, Note_off_c, 10, 57, 127
2, 254585, Note_on_c, 8, 56, 127
2, 254585, Note_on_c, 12, 59, 127
2, 254760, Note_off_c, 12, 59, 127
2, 254760, Note_off_c, 8, 56, 127
2, 254763, Note_on_c, 2, 62, 127
2, 254938, Note_off_c, 2, 62, 127
2, 254940, Note_on_c, 0, 60, 127
2, 255115, Note_off_c, 0, 60, 127
2, 255118, Note_on_c, 8, 56, 127
2, 255293, Note_off_c, 8, 56, 127
2, 255296, Note_on_c, 10, 57, 127
2, 255505, Note_off_c, 10, 57, 127
2, 255509, Note_on_c, 12, 59, 127
2, 255712, Note_off_c, 4, 52, 127
2, 255722, Note_on_c, 3, 51, 127
2, 255931, Note_off_c, 3, 51, 127
2, 255935, Note_on_c, 4, 52, 127
2, 256199, Note_off_c, 4, 52, 127
2, 256221, Note_on_c, 8, 56, 127
2, 256221, Note_on_c, 4, 40, 127
2, 258739, Note_off_c, 4, 64, 127
2, 258745, Note_off_c, 12, 59, 127
2, 258818, Note_off_c, 4, 40, 127
2, 258818, Note_off_c, 8, 56, 127
2, 264192, End_track
3, 0, Start_track
3, 0, Title_t, "MIDI"
3, 1536, End_track
0, 0, End_of_file
