0, 0, Header, 1, 3, 384
1, 0, Start_track
1, 0, Time_signature, 4, 2, 24, 8
1, 0, Tempo, 500000
1, 175104, End_track
2, 0, Start_track
2, 0, Text_t, "harpsichord: John Sankey"
2, 0, Program_c, 0, 6
2, 0, Pitch_bend_c, 0, 8192
2, 0, Program_c, 1, 6
2, 0, Pitch_bend_c, 1, 7792
2, 0, Program_c, 2, 6
2, 0, Pitch_bend_c, 2, 7876
2, 0, Program_c, 3, 6
2, 0, Pitch_bend_c, 3, 7952
2, 0, Program_c, 4, 6
2, 0, Pitch_bend_c, 4, 7792
2, 0, Program_c, 5, 6
2, 0, Pitch_bend_c, 5, 8112
2, 0, Program_c, 6, 6
2, 0, Pitch_bend_c, 6, 7712
2, 0, Program_c, 7, 6
2, 0, Pitch_bend_c, 7, 8037
2, 0, Program_c, 8, 6
2, 0, Pitch_bend_c, 8, 7872
2, 0, Program_c, 10, 6
2, 0, Pitch_bend_c, 10, 7712
2, 0, Program_c, 11, 6
2, 0, Pitch_bend_c, 11, 8032
2, 0, Program_c, 12, 6
2, 0, Pitch_bend_c, 12, 7872
2, 0, Title_t, "Track 1"
2, 31, Note_on_c, 0, 48, 127
2, 212, Note_on_c, 7, 67, 127
2, 391, Note_off_c, 7, 67, 127
2, 394, Note_on_c, 0, 60, 127
2, 394, Note_on_c, 5, 65, 127
2, 516, Note_off_c, 0, 48, 127
2, 573, Note_off_c, 5, 65, 127
2, 575, Note_on_c, 7, 67, 127
2, 754, Note_off_c, 7, 67, 127
2, 757, Note_on_c, 5, 53, 127
2, 757, Note_on_c, 8, 68, 127
2, 936, Note_off_c, 8, 68, 127
2, 939, Note_on_c, 5, 65, 127
2, 1113, Note_off_c, 0, 60, 127
2, 1118, Note_off_c, 5, 65, 127
2, 1118, Note_off_c, 5, 53, 127
2, 1121, Note_on_c, 0, 60, 127
2, 1121, Note_on_c, 3, 63, 127
2, 1300, Note_off_c, 3, 63, 127
2, 1302, Note_on_c, 5, 65, 127
2, 1481, Note_off_c, 5, 65, 127
2, 1484, Note_on_c, 3, 51, 127
2, 1484, Note_on_c, 7, 67, 127
2, 1663, Note_off_c, 7, 67, 127
2, 1666, Note_on_c, 3, 63, 127
2, 1840, Note_off_c, 0, 60, 127
2, 1845, Note_off_c, 3, 63, 127
2, 1845, Note_off_c, 3, 51, 127
2, 1848, Note_on_c, 0, 60, 127
2, 1848, Note_on_c, 2, 62, 127
2, 2027, Note_off_c, 2, 62, 127
2, 2030, Note_on_c, 3, 63, 127
2, 2209, Note_off_c, 3, 63, 127
2, 2211, Note_on_c, 2, 50, 127
2, 2211, Note_on_c, 5, 65, 127
2, 2390, Note_off_c, 5, 65, 127
2, 2393, Note_on_c, 2, 62, 127
2, 2567, Note_off_c, 0, 60, 127
2, 2572, Note_off_c, 2, 62, 127
2, 2572, Note_off_c, 2, 50, 127
2, 2574, Note_on_c, 12, 59, 127
2, 2574, Note_on_c, 0, 60, 127
2, 2753, Note_off_c, 0, 60, 127
2, 2757, Note_on_c, 2, 62, 127
2, 2935, Note_off_c, 12, 59, 127
2, 2936, Note_off_c, 2, 62, 127
2, 2938, Note_on_c, 0, 48, 127
2, 2938, Note_on_c, 3, 63, 127
2, 3117, Note_off_c, 0, 48, 127
2, 3120, Note_on_c, 7, 55, 127
2, 3299, Note_off_c, 7, 55, 127
2, 3301, Note_on_c, 5, 53, 127
2, 3301, Note_on_c, 0, 72, 127
2, 3480, Note_off_c, 5, 53, 127
2, 3483, Note_on_c, 7, 55, 127
2, 3657, Note_off_c, 3, 63, 127
2, 3662, Note_off_c, 7, 55, 127
2, 3666, Note_on_c, 8, 56, 127
2, 3666, Note_on_c, 5, 65, 127
2, 3845, Note_off_c, 8, 56, 127
2, 3847, Note_on_c, 5, 53, 127
2, 4020, Note_off_c, 0, 72, 127
2, 4026, Note_off_c, 5, 53, 127
2, 4029, Note_on_c, 3, 51, 127
2, 4029, Note_on_c, 0, 72, 127
2, 4208, Note_off_c, 3, 51, 127
2, 4210, Note_on_c, 5, 53, 127
2, 4385, Note_off_c, 5, 65, 127
2, 4389, Note_off_c, 5, 53, 127
2, 4392, Note_on_c, 7, 55, 127
2, 4392, Note_on_c, 3, 63, 127
2, 4571, Note_off_c, 7, 55, 127
2, 4574, Note_on_c, 3, 51, 127
2, 4748, Note_off_c, 0, 72, 127
2, 4753, Note_off_c, 3, 51, 127
2, 4756, Note_on_c, 2, 50, 127
2, 4756, Note_on_c, 0, 72, 127
2, 4935, Note_off_c, 2, 50, 127
2, 4937, Note_on_c, 3, 51, 127
2, 5111, Note_off_c, 3, 63, 127
2, 5116, Note_off_c, 3, 51, 127
2, 5119, Note_on_c, 5, 53, 127
2, 5119, Note_on_c, 2, 62, 127
2, 5298, Note_off_c, 5, 53, 127
2, 5300, Note_on_c, 2, 50, 127
2, 5475, Note_off_c, 0, 72, 127
2, 5479, Note_off_c, 2, 50, 127
2, 5483, Note_on_c, 0, 48, 127
2, 5483, Note_on_c, 12, 71, 127
2, 5649, Note_off_c, 2, 62, 127
2, 5662, Note_off_c, 0, 48, 127
2, 5665, Note_on_c, 2, 50, 127
2, 5844, Note_off_c, 2, 50, 127
2, 5844, Note_off_c, 12, 71, 127
2, 5846, Note_on_c, 3, 51, 127
2, 5846, Note_on_c, 0, 60, 127
2, 6028, Note_on_c, 3, 63, 127
2, 6207, Note_off_c, 3, 63, 127
2, 6207, Note_off_c, 3, 51, 127
2, 6209, Note_on_c, 0, 48, 127
2, 6209, Note_on_c, 7, 67, 127
2, 6388, Note_off_c, 7, 67, 127
2, 6392, Note_on_c, 0, 72, 127
2, 6565, Note_off_c, 0, 60, 127
2, 6570, Note_off_c, 0, 48, 127
2, 6573, Note_on_c, 5, 53, 127
2, 6573, Note_on_c, 2, 62, 127
2, 6751, Note_off_c, 0, 72, 127
2, 6755, Note_on_c, 0, 72, 127
2, 6934, Note_off_c, 0, 72, 127
2, 6934, Note_off_c, 5, 53, 127
2, 6936, Note_on_c, 2, 50, 127
2, 6936, Note_on_c, 12, 71, 127
2, 7115, Note_off_c, 12, 71, 127
2, 7118, Note_on_c, 10, 69, 127
2, 7292, Note_off_c, 2, 62, 127
2, 7297, Note_off_c, 10, 69, 127
2, 7297, Note_off_c, 2, 50, 127
2, 7300, Note_on_c, 7, 55, 127
2, 7300, Note_on_c, 2, 62, 127
2, 7482, Note_on_c, 7, 67, 127
2, 7661, Note_off_c, 7, 67, 127
2, 7661, Note_off_c, 7, 55, 127
2, 7664, Note_on_c, 5, 53, 127
2, 7664, Note_on_c, 12, 71, 127
2, 7843, Note_off_c, 12, 71, 127
2, 7845, Note_on_c, 2, 74, 127
2, 8019, Note_off_c, 2, 62, 127
2, 8025, Note_off_c, 5, 53, 127
2, 8027, Note_on_c, 7, 55, 127
2, 8027, Note_on_c, 3, 63, 127
2, 8204, Note_off_c, 2, 74, 127
2, 8209, Note_on_c, 2, 74, 127
2, 8388, Note_off_c, 2, 74, 127
2, 8388, Note_off_c, 7, 55, 127
2, 8391, Note_on_c, 3, 51, 127
2, 8391, Note_on_c, 0, 72, 127
2, 8570, Note_off_c, 0, 72, 127
2, 8572, Note_on_c, 12, 71, 127
2, 8746, Note_off_c, 3, 63, 127
2, 8751, Note_off_c, 12, 71, 127
2, 8752, Note_off_c, 3, 51, 127
2, 8754, Note_on_c, 8, 56, 127
2, 8754, Note_on_c, 3, 63, 127
2, 8935, Note_on_c, 8, 68, 127
2, 9114, Note_off_c, 8, 68, 127
2, 9115, Note_off_c, 8, 56, 127
2, 9118, Note_on_c, 7, 55, 127
2, 9118, Note_on_c, 0, 72, 127
2, 9297, Note_off_c, 0, 72, 127
2, 9300, Note_on_c, 3, 75, 127
2, 9473, Note_off_c, 3, 63, 127
2, 9479, Note_off_c, 7, 55, 127
2, 9481, Note_on_c, 10, 57, 127
2, 9481, Note_on_c, 5, 65, 127
2, 9659, Note_off_c, 3, 75, 127
2, 9663, Note_on_c, 3, 75, 127
2, 9842, Note_off_c, 3, 75, 127
2, 9842, Note_off_c, 10, 57, 127
2, 9844, Note_on_c, 5, 53, 127
2, 9844, Note_on_c, 2, 74, 127
2, 10023, Note_off_c, 2, 74, 127
2, 10027, Note_on_c, 0, 72, 127
2, 10200, Note_off_c, 5, 65, 127
2, 10205, Note_off_c, 5, 53, 127
2, 10206, Note_off_c, 0, 72, 127
2, 10208, Note_on_c, 11, 58, 127
2, 10208, Note_on_c, 5, 65, 127
2, 10390, Note_on_c, 11, 70, 127
2, 10569, Note_off_c, 11, 70, 127
2, 10569, Note_off_c, 11, 58, 127
2, 10571, Note_on_c, 10, 57, 127
2, 10571, Note_on_c, 2, 74, 127
2, 10750, Note_off_c, 2, 74, 127
2, 10753, Note_on_c, 5, 77, 127
2, 10927, Note_off_c, 5, 65, 127
2, 10932, Note_off_c, 10, 57, 127
2, 10935, Note_on_c, 12, 59, 127
2, 10935, Note_on_c, 7, 67, 127
2, 11112, Note_off_c, 5, 77, 127
2, 11117, Note_on_c, 5, 77, 127
2, 11296, Note_off_c, 5, 77, 127
2, 11296, Note_off_c, 12, 59, 127
2, 11299, Note_on_c, 7, 55, 127
2, 11299, Note_on_c, 3, 75, 127
2, 11478, Note_off_c, 3, 75, 127
2, 11480, Note_on_c, 2, 74, 127
2, 11654, Note_off_c, 7, 67, 127
2, 11659, Note_off_c, 2, 74, 127
2, 11660, Note_off_c, 7, 55, 127
2, 11662, Note_on_c, 0, 60, 127
2, 11662, Note_on_c, 3, 75, 127
2, 11841, Note_off_c, 3, 75, 127
2, 11844, Note_on_c, 8, 68, 127
2, 11844, Note_on_c, 0, 72, 127
2, 11895, Note_off_c, 0, 60, 127
2, 12023, Note_off_c, 0, 72, 127
2, 12023, Note_off_c, 8, 68, 127
2, 12026, Note_on_c, 7, 67, 127
2, 12026, Note_on_c, 11, 70, 127
2, 12205, Note_off_c, 11, 70, 127
2, 12205, Note_off_c, 7, 67, 127
2, 12207, Note_on_c, 8, 68, 127
2, 12207, Note_on_c, 0, 72, 127
2, 12386, Note_off_c, 0, 72, 127
2, 12386, Note_off_c, 8, 68, 127
2, 12389, Note_on_c, 11, 58, 127
2, 12389, Note_on_c, 2, 74, 127
2, 12568, Note_off_c, 2, 74, 127
2, 12570, Note_on_c, 7, 67, 127
2, 12570, Note_on_c, 11, 70, 127
2, 12622, Note_off_c, 11, 58, 127
2, 12749, Note_off_c, 11, 70, 127
2, 12749, Note_off_c, 7, 67, 127
2, 12753, Note_on_c, 5, 65, 127
2, 12753, Note_on_c, 8, 68, 127
2, 12932, Note_off_c, 8, 68, 127
2, 12932, Note_off_c, 5, 65, 127
2, 12934, Note_on_c, 7, 67, 127
2, 12934, Note_on_c, 11, 70, 127
2, 13113, Note_off_c, 11, 70, 127
2, 13113, Note_off_c, 7, 67, 127
2, 13116, Note_on_c, 8, 56, 127
2, 13116, Note_on_c, 0, 72, 127
2, 13298, Note_on_c, 11, 70, 127
2, 13475, Note_off_c, 0, 72, 127
2, 13477, Note_off_c, 11, 70, 127
2, 13479, Note_on_c, 8, 68, 127
2, 13658, Note_off_c, 8, 68, 127
2, 13662, Note_on_c, 7, 67, 127
2, 13835, Note_off_c, 8, 56, 127
2, 13841, Note_off_c, 7, 67, 127
2, 13843, Note_on_c, 5, 65, 127
2, 14025, Note_on_c, 3, 63, 127
2, 14204, Note_off_c, 3, 63, 127
2, 14206, Note_on_c, 2, 62, 127
2, 14385, Note_off_c, 2, 62, 127
2, 14387, Note_off_c, 5, 65, 127
2, 14388, Note_on_c, 0, 60, 127
2, 14567, Note_off_c, 0, 60, 127
2, 14570, Note_on_c, 11, 58, 127
2, 14570, Note_on_c, 2, 74, 127
2, 14749, Note_off_c, 2, 74, 127
2, 14752, Note_on_c, 7, 67, 127
2, 14752, Note_on_c, 11, 70, 127
2, 14803, Note_off_c, 11, 58, 127
2, 14931, Note_off_c, 11, 70, 127
2, 14931, Note_off_c, 7, 67, 127
2, 14933, Note_on_c, 5, 65, 127
2, 14933, Note_on_c, 8, 68, 127
2, 15112, Note_off_c, 8, 68, 127
2, 15112, Note_off_c, 5, 65, 127
2, 15115, Note_on_c, 7, 67, 127
2, 15115, Note_on_c, 11, 70, 127
2, 15294, Note_off_c, 11, 70, 127
2, 15294, Note_off_c, 7, 67, 127
2, 15297, Note_on_c, 8, 56, 127
2, 15297, Note_on_c, 0, 72, 127
2, 15476, Note_off_c, 0, 72, 127
2, 15479, Note_on_c, 5, 65, 127
2, 15479, Note_on_c, 8, 68, 127
2, 15530, Note_off_c, 8, 56, 127
2, 15658, Note_off_c, 8, 68, 127
2, 15658, Note_off_c, 5, 65, 127
2, 15661, Note_on_c, 3, 63, 127
2, 15661, Note_on_c, 7, 67, 127
2, 15840, Note_off_c, 7, 67, 127
2, 15840, Note_off_c, 3, 63, 127
2, 15842, Note_on_c, 5, 65, 127
2, 15842, Note_on_c, 8, 68, 127
2, 16021, Note_off_c, 8, 68, 127
2, 16021, Note_off_c, 5, 65, 127
2, 16024, Note_on_c, 7, 55, 127
2, 16024, Note_on_c, 11, 70, 127
2, 16205, Note_on_c, 8, 68, 127
2, 16383, Note_off_c, 11, 70, 127
2, 16384, Note_off_c, 8, 68, 127
2, 16388, Note_on_c, 7, 67, 127
2, 16567, Note_off_c, 7, 67, 127
2, 16569, Note_on_c, 5, 65, 127
2, 16743, Note_off_c, 7, 55, 127
2, 16748, Note_off_c, 5, 65, 127
2, 16751, Note_on_c, 3, 63, 127
2, 16933, Note_on_c, 1, 61, 127
2, 17112, Note_off_c, 1, 61, 127
2, 17114, Note_on_c, 0, 60, 127
2, 17293, Note_off_c, 0, 60, 127
2, 17295, Note_off_c, 3, 63, 127
2, 17297, Note_on_c, 11, 58, 127
2, 17476, Note_off_c, 11, 58, 127
2, 17478, Note_on_c, 8, 56, 127
2, 17478, Note_on_c, 0, 72, 127
2, 17657, Note_off_c, 0, 72, 127
2, 17660, Note_on_c, 5, 65, 127
2, 17660, Note_on_c, 8, 68, 127
2, 17711, Note_off_c, 8, 56, 127
2, 17839, Note_off_c, 8, 68, 127
2, 17839, Note_off_c, 5, 65, 127
2, 17841, Note_on_c, 3, 63, 127
2, 17841, Note_on_c, 7, 67, 127
2, 18020, Note_off_c, 7, 67, 127
2, 18020, Note_off_c, 3, 63, 127
2, 18023, Note_on_c, 5, 65, 127
2, 18023, Note_on_c, 8, 68, 127
2, 18202, Note_off_c, 8, 68, 127
2, 18202, Note_off_c, 5, 65, 127
2, 18205, Note_on_c, 7, 55, 127
2, 18205, Note_on_c, 11, 70, 127
2, 18384, Note_off_c, 11, 70, 127
2, 18387, Note_on_c, 3, 63, 127
2, 18387, Note_on_c, 7, 67, 127
2, 18438, Note_off_c, 7, 55, 127
2, 18566, Note_off_c, 7, 67, 127
2, 18566, Note_off_c, 3, 63, 127
2, 18568, Note_on_c, 2, 62, 127
2, 18568, Note_on_c, 5, 65, 127
2, 18747, Note_off_c, 5, 65, 127
2, 18747, Note_off_c, 2, 62, 127
2, 18750, Note_on_c, 3, 63, 127
2, 18750, Note_on_c, 7, 67, 127
2, 18929, Note_off_c, 7, 67, 127
2, 18929, Note_off_c, 3, 63, 127
2, 18932, Note_on_c, 5, 53, 127
2, 18932, Note_on_c, 8, 68, 127
2, 19111, Note_off_c, 8, 68, 127
2, 19114, Note_on_c, 2, 62, 127
2, 19114, Note_on_c, 5, 65, 127
2, 19165, Note_off_c, 5, 53, 127
2, 19293, Note_off_c, 5, 65, 127
2, 19293, Note_off_c, 2, 62, 127
2, 19296, Note_on_c, 0, 60, 127
2, 19296, Note_on_c, 3, 63, 127
2, 19475, Note_off_c, 3, 63, 127
2, 19475, Note_off_c, 0, 60, 127
2, 19477, Note_on_c, 2, 62, 127
2, 19477, Note_on_c, 5, 65, 127
2, 19656, Note_off_c, 5, 65, 127
2, 19656, Note_off_c, 2, 62, 127
2, 19659, Note_on_c, 3, 51, 127
2, 19659, Note_on_c, 8, 68, 127
2, 19747, Note_off_c, 8, 68, 127
2, 19750, Note_on_c, 7, 67, 127
2, 19838, Note_off_c, 7, 67, 127
2, 19840, Note_on_c, 0, 60, 127
2, 19840, Note_on_c, 8, 68, 127
2, 19892, Note_off_c, 3, 51, 127
2, 20019, Note_off_c, 8, 68, 127
2, 20019, Note_off_c, 0, 60, 127
2, 20023, Note_on_c, 11, 58, 127
2, 20023, Note_on_c, 8, 68, 127
2, 20202, Note_off_c, 11, 58, 127
2, 20204, Note_on_c, 0, 60, 127
2, 20383, Note_off_c, 0, 60, 127
2, 20384, Note_off_c, 8, 68, 127
2, 20386, Note_on_c, 2, 50, 127
2, 20386, Note_on_c, 8, 68, 127
2, 20565, Note_off_c, 8, 68, 127
2, 20567, Note_on_c, 11, 58, 127
2, 20567, Note_on_c, 7, 67, 127
2, 20619, Note_off_c, 2, 50, 127
2, 20746, Note_off_c, 7, 67, 127
2, 20746, Note_off_c, 11, 58, 127
2, 20749, Note_on_c, 8, 56, 127
2, 20749, Note_on_c, 5, 65, 127
2, 20928, Note_off_c, 5, 65, 127
2, 20928, Note_off_c, 8, 56, 127
2, 20932, Note_on_c, 11, 58, 127
2, 20932, Note_on_c, 7, 67, 127
2, 21111, Note_off_c, 7, 67, 127
2, 21111, Note_off_c, 11, 58, 127
2, 21113, Note_on_c, 0, 48, 127
2, 21113, Note_on_c, 8, 68, 127
2, 21201, Note_off_c, 8, 68, 127
2, 21203, Note_on_c, 7, 67, 127
2, 21291, Note_off_c, 7, 67, 127
2, 21295, Note_on_c, 8, 56, 127
2, 21295, Note_on_c, 8, 68, 127
2, 21346, Note_off_c, 0, 48, 127
2, 21474, Note_off_c, 8, 68, 127
2, 21474, Note_off_c, 8, 56, 127
2, 21476, Note_on_c, 7, 55, 127
2, 21476, Note_on_c, 8, 68, 127
2, 21655, Note_off_c, 7, 55, 127
2, 21658, Note_on_c, 8, 56, 127
2, 21837, Note_off_c, 8, 56, 127
2, 21837, Note_off_c, 8, 68, 127
2, 21840, Note_on_c, 11, 46, 127
2, 21840, Note_on_c, 8, 68, 127
2, 22022, Note_on_c, 2, 74, 127
2, 22201, Note_off_c, 2, 74, 127
2, 22203, Note_on_c, 11, 58, 127
2, 22203, Note_on_c, 5, 77, 127
2, 22267, Note_off_c, 11, 46, 127
2, 22370, Note_off_c, 8, 68, 127
2, 22382, Note_off_c, 5, 77, 127
2, 22385, Note_on_c, 3, 75, 127
2, 22564, Note_off_c, 3, 75, 127
2, 22566, Note_on_c, 2, 74, 127
2, 22745, Note_off_c, 2, 74, 127
2, 22747, Note_off_c, 11, 58, 127
2, 22749, Note_on_c, 0, 72, 127
2, 22928, Note_off_c, 0, 72, 127
2, 22931, Note_on_c, 2, 50, 127
2, 22931, Note_on_c, 11, 70, 127
2, 23110, Note_off_c, 11, 70, 127
2, 23112, Note_on_c, 8, 68, 127
2, 23291, Note_off_c, 8, 68, 127
2, 23292, Note_off_c, 2, 50, 127
2, 23294, Note_on_c, 3, 51, 127
2, 23294, Note_on_c, 7, 67, 127
2, 23475, Note_on_c, 11, 70, 127
2, 23654, Note_off_c, 11, 70, 127
2, 23655, Note_off_c, 3, 51, 127
2, 23658, Note_on_c, 0, 48, 127
2, 23658, Note_on_c, 3, 75, 127
2, 23824, Note_off_c, 7, 67, 127
2, 23839, Note_on_c, 7, 67, 127
2, 24017, Note_off_c, 3, 75, 127
2, 24018, Note_off_c, 7, 67, 127
2, 24019, Note_off_c, 0, 48, 127
2, 24021, Note_on_c, 8, 44, 127
2, 24021, Note_on_c, 5, 65, 127
2, 24202, Note_on_c, 3, 75, 127
2, 24380, Note_off_c, 5, 65, 127
2, 24382, Note_off_c, 8, 44, 127
2, 24384, Note_on_c, 11, 46, 127
2, 24384, Note_on_c, 5, 65, 127
2, 24561, Note_off_c, 3, 75, 127
2, 24566, Note_on_c, 2, 74, 127
2, 24743, Note_off_c, 5, 65, 127
2, 24745, Note_off_c, 2, 74, 127
2, 24745, Note_off_c, 11, 46, 127
2, 24748, Note_on_c, 3, 39, 127
2, 24748, Note_on_c, 3, 75, 127
2, 24930, Note_on_c, 11, 70, 127
2, 25109, Note_off_c, 11, 70, 127
2, 25109, Note_off_c, 3, 39, 127
2, 25111, Note_on_c, 3, 51, 127
2, 25111, Note_on_c, 8, 68, 127
2, 25278, Note_off_c, 3, 75, 127
2, 25290, Note_off_c, 8, 68, 127
2, 25293, Note_on_c, 11, 70, 127
2, 25472, Note_off_c, 11, 70, 127
2, 25472, Note_off_c, 3, 51, 127
2, 25475, Note_on_c, 8, 44, 127
2, 25475, Note_on_c, 0, 72, 127
2, 25657, Note_on_c, 8, 68, 127
2, 25836, Note_off_c, 8, 68, 127
2, 25836, Note_off_c, 8, 44, 127
2, 25838, Note_on_c, 3, 51, 127
2, 25838, Note_on_c, 7, 67, 127
2, 26005, Note_off_c, 0, 72, 127
2, 26017, Note_off_c, 7, 67, 127
2, 26020, Note_on_c, 8, 68, 127
2, 26199, Note_off_c, 8, 68, 127
2, 26199, Note_off_c, 3, 51, 127
2, 26201, Note_on_c, 7, 43, 127
2, 26201, Note_on_c, 11, 70, 127
2, 26384, Note_on_c, 7, 67, 127
2, 26562, Note_off_c, 7, 43, 127
2, 26563, Note_off_c, 7, 67, 127
2, 26566, Note_on_c, 3, 51, 127
2, 26566, Note_on_c, 5, 65, 127
2, 26731, Note_off_c, 11, 70, 127
2, 26745, Note_off_c, 5, 65, 127
2, 26747, Note_on_c, 7, 67, 127
2, 26926, Note_off_c, 7, 67, 127
2, 26927, Note_off_c, 3, 51, 127
2, 26929, Note_on_c, 5, 41, 127
2, 26929, Note_on_c, 8, 68, 127
2, 27110, Note_on_c, 5, 65, 127
2, 27289, Note_off_c, 5, 65, 127
2, 27290, Note_off_c, 5, 41, 127
2, 27293, Note_on_c, 2, 50, 127
2, 27293, Note_on_c, 3, 63, 127
2, 27459, Note_off_c, 8, 68, 127
2, 27472, Note_off_c, 3, 63, 127
2, 27474, Note_on_c, 5, 65, 127
2, 27653, Note_off_c, 5, 65, 127
2, 27654, Note_off_c, 2, 50, 127
2, 27656, Note_on_c, 3, 51, 127
2, 27656, Note_on_c, 7, 67, 127
2, 27835, Note_off_c, 3, 51, 127
2, 27837, Note_on_c, 7, 55, 127
2, 27837, Note_on_c, 3, 63, 127
2, 28016, Note_off_c, 3, 63, 127
2, 28016, Note_off_c, 7, 55, 127
2, 28019, Note_on_c, 5, 53, 127
2, 28019, Note_on_c, 2, 62, 127
2, 28186, Note_off_c, 7, 67, 127
2, 28198, Note_off_c, 2, 62, 127
2, 28198, Note_off_c, 5, 53, 127
2, 28201, Note_on_c, 7, 55, 127
2, 28201, Note_on_c, 3, 63, 127
2, 28380, Note_off_c, 3, 63, 127
2, 28380, Note_off_c, 7, 55, 127
2, 28383, Note_on_c, 8, 56, 127
2, 28383, Note_on_c, 0, 60, 127
2, 28562, Note_off_c, 8, 56, 127
2, 28565, Note_on_c, 5, 53, 127
2, 28744, Note_off_c, 5, 53, 127
2, 28746, Note_on_c, 3, 51, 127
2, 28746, Note_on_c, 8, 68, 127
2, 28925, Note_off_c, 3, 51, 127
2, 28928, Note_on_c, 5, 53, 127
2, 29102, Note_off_c, 0, 60, 127
2, 29107, Note_off_c, 5, 53, 127
2, 29110, Note_on_c, 7, 55, 127
2, 29110, Note_on_c, 11, 58, 127
2, 29289, Note_off_c, 7, 55, 127
2, 29292, Note_on_c, 3, 51, 127
2, 29465, Note_off_c, 8, 68, 127
2, 29471, Note_off_c, 3, 51, 127
2, 29473, Note_on_c, 2, 50, 127
2, 29473, Note_on_c, 7, 67, 127
2, 29652, Note_off_c, 2, 50, 127
2, 29655, Note_on_c, 3, 51, 127
2, 29829, Note_off_c, 11, 58, 127
2, 29834, Note_off_c, 3, 51, 127
2, 29836, Note_on_c, 5, 53, 127
2, 29836, Note_on_c, 8, 56, 127
2, 30015, Note_off_c, 5, 53, 127
2, 30019, Note_on_c, 2, 50, 127
2, 30192, Note_off_c, 7, 67, 127
2, 30198, Note_off_c, 2, 50, 127
2, 30200, Note_on_c, 0, 48, 127
2, 30200, Note_on_c, 5, 65, 127
2, 30379, Note_off_c, 0, 48, 127
2, 30382, Note_on_c, 2, 50, 127
2, 30555, Note_off_c, 8, 56, 127
2, 30561, Note_off_c, 2, 50, 127
2, 30561, Note_off_c, 5, 65, 127
2, 30564, Note_on_c, 3, 51, 127
2, 30564, Note_on_c, 7, 55, 127
2, 30743, Note_off_c, 7, 55, 127
2, 30745, Note_on_c, 11, 58, 127
2, 30924, Note_off_c, 11, 58, 127
2, 30925, Note_off_c, 3, 51, 127
2, 30928, Note_on_c, 7, 55, 127
2, 30928, Note_on_c, 3, 63, 127
2, 31107, Note_off_c, 3, 63, 127
2, 31109, Note_on_c, 7, 67, 127
2, 31289, Note_off_c, 7, 55, 127
2, 31291, Note_on_c, 8, 56, 127
2, 31470, Note_off_c, 7, 67, 127
2, 31472, Note_on_c, 5, 65, 127
2, 31651, Note_off_c, 5, 65, 127
2, 31652, Note_off_c, 8, 56, 127
2, 31654, Note_on_c, 11, 58, 127
2, 31654, Note_on_c, 3, 63, 127
2, 31833, Note_off_c, 3, 63, 127
2, 31836, Note_on_c, 2, 62, 127
2, 32015, Note_off_c, 2, 62, 127
2, 32015, Note_off_c, 11, 58, 127
2, 32018, Note_on_c, 0, 60, 127
2, 32018, Note_on_c, 3, 63, 127
2, 32200, Note_on_c, 7, 67, 127
2, 32379, Note_off_c, 7, 67, 127
2, 32379, Note_off_c, 0, 60, 127
2, 32381, Note_on_c, 8, 56, 127
2, 32381, Note_on_c, 0, 72, 127
2, 32563, Note_on_c, 5, 65, 127
2, 32737, Note_off_c, 3, 63, 127
2, 32740, Note_off_c, 0, 72, 127
2, 32742, Note_off_c, 5, 65, 127
2, 32742, Note_off_c, 8, 56, 127
2, 32745, Note_on_c, 11, 58, 127
2, 32745, Note_on_c, 7, 67, 127
2, 32745, Note_on_c, 11, 70, 127
2, 32927, Note_on_c, 3, 63, 127
2, 33104, Note_off_c, 11, 70, 127
2, 33104, Note_off_c, 7, 67, 127
2, 33106, Note_off_c, 3, 63, 127
2, 33106, Note_off_c, 11, 58, 127
2, 33108, Note_on_c, 11, 46, 127
2, 33108, Note_on_c, 8, 68, 127
2, 33108, Note_on_c, 5, 65, 127
2, 33290, Note_on_c, 2, 62, 127
2, 33467, Note_off_c, 5, 65, 127
2, 33467, Note_off_c, 8, 68, 127
2, 33467, Note_off_c, 11, 46, 127
2, 33469, Note_off_c, 2, 62, 127
2, 33471, Note_on_c, 11, 58, 127
2, 33563, Note_on_c, 3, 63, 127
2, 33654, Note_on_c, 3, 51, 127
2, 33654, Note_on_c, 7, 67, 127
2, 33833, Note_off_c, 3, 51, 127
2, 33835, Note_on_c, 11, 46, 127
2, 34014, Note_off_c, 11, 46, 127
2, 34017, Note_on_c, 7, 43, 127
2, 34196, Note_off_c, 7, 43, 127
2, 34199, Note_on_c, 3, 39, 127
2, 34558, Note_off_c, 3, 39, 127
2, 34563, Note_on_c, 7, 43, 127
2, 34742, Note_off_c, 7, 43, 127
2, 34744, Note_on_c, 11, 46, 127
2, 34922, Note_off_c, 11, 58, 127
2, 34923, Note_off_c, 11, 46, 127
2, 34926, Note_off_c, 3, 63, 127
2, 34926, Note_on_c, 3, 51, 127
2, 34935, Note_off_c, 7, 67, 127
2, 35107, Note_on_c, 11, 70, 127
2, 35286, Note_off_c, 11, 70, 127
2, 35287, Note_off_c, 3, 51, 127
2, 35289, Note_on_c, 5, 53, 127
2, 35289, Note_on_c, 10, 69, 127
2, 35468, Note_off_c, 10, 69, 127
2, 35471, Note_on_c, 11, 70, 127
2, 35650, Note_off_c, 11, 70, 127
2, 35650, Note_off_c, 5, 53, 127
2, 35653, Note_on_c, 7, 55, 127
2, 35653, Note_on_c, 3, 75, 127
2, 35834, Note_on_c, 11, 70, 127
2, 36013, Note_off_c, 11, 70, 127
2, 36014, Note_off_c, 7, 55, 127
2, 36016, Note_on_c, 3, 51, 127
2, 36016, Note_on_c, 10, 69, 127
2, 36183, Note_off_c, 3, 75, 127
2, 36195, Note_off_c, 10, 69, 127
2, 36198, Note_on_c, 11, 70, 127
2, 36377, Note_off_c, 11, 70, 127
2, 36377, Note_off_c, 3, 51, 127
2, 36380, Note_on_c, 2, 50, 127
2, 36380, Note_on_c, 5, 77, 127
2, 36562, Note_on_c, 11, 70, 127
2, 36741, Note_off_c, 11, 70, 127
2, 36741, Note_off_c, 2, 50, 127
2, 36743, Note_on_c, 0, 48, 127
2, 36743, Note_on_c, 10, 69, 127
2, 36910, Note_off_c, 5, 77, 127
2, 36922, Note_off_c, 10, 69, 127
2, 36925, Note_on_c, 11, 70, 127
2, 37104, Note_off_c, 11, 70, 127
2, 37104, Note_off_c, 0, 48, 127
2, 37106, Note_on_c, 2, 50, 127
2, 37106, Note_on_c, 8, 80, 127
2, 37289, Note_on_c, 11, 70, 127
2, 37467, Note_off_c, 2, 50, 127
2, 37468, Note_off_c, 11, 70, 127
2, 37470, Note_on_c, 11, 46, 127
2, 37470, Note_on_c, 10, 69, 127
2, 37636, Note_off_c, 8, 80, 127
2, 37649, Note_off_c, 10, 69, 127
2, 37652, Note_on_c, 11, 70, 127
2, 37831, Note_off_c, 11, 70, 127
2, 37831, Note_off_c, 11, 46, 127
2, 37833, Note_on_c, 3, 51, 127
2, 37833, Note_on_c, 7, 79, 127
2, 38012, Note_off_c, 3, 51, 127
2, 38015, Note_on_c, 7, 55, 127
2, 38194, Note_off_c, 7, 55, 127
2, 38194, Note_off_c, 7, 79, 127
2, 38198, Note_on_c, 8, 56, 127
2, 38198, Note_on_c, 3, 75, 127
2, 38377, Note_off_c, 8, 56, 127
2, 38379, Note_on_c, 7, 55, 127
2, 38559, Note_off_c, 3, 75, 127
2, 38561, Note_on_c, 8, 44, 127
2, 38561, Note_on_c, 2, 74, 127
2, 38606, Note_off_c, 7, 55, 127
2, 38649, Note_off_c, 2, 74, 127
2, 38652, Note_on_c, 0, 72, 127
2, 38740, Note_off_c, 0, 72, 127
2, 38740, Note_off_c, 8, 44, 127
2, 38742, Note_on_c, 7, 55, 127
2, 38742, Note_on_c, 12, 71, 127
2, 38921, Note_off_c, 12, 71, 127
2, 38921, Note_off_c, 7, 55, 127
2, 38924, Note_on_c, 8, 56, 127
2, 38924, Note_on_c, 0, 72, 127
2, 39103, Note_off_c, 8, 56, 127
2, 39106, Note_on_c, 7, 55, 127
2, 39244, Note_off_c, 0, 72, 127
2, 39285, Note_off_c, 7, 55, 127
2, 39288, Note_on_c, 2, 50, 127
2, 39288, Note_on_c, 5, 77, 127
2, 39467, Note_off_c, 2, 50, 127
2, 39469, Note_on_c, 5, 53, 127
2, 39648, Note_off_c, 5, 53, 127
2, 39649, Note_off_c, 5, 77, 127
2, 39651, Note_on_c, 7, 55, 127
2, 39651, Note_on_c, 2, 74, 127
2, 39830, Note_off_c, 7, 55, 127
2, 39833, Note_on_c, 5, 53, 127
2, 40012, Note_off_c, 2, 74, 127
2, 40015, Note_on_c, 7, 43, 127
2, 40015, Note_on_c, 0, 72, 127
2, 40060, Note_off_c, 5, 53, 127
2, 40103, Note_off_c, 0, 72, 127
2, 40105, Note_on_c, 12, 71, 127
2, 40193, Note_off_c, 12, 71, 127
2, 40194, Note_off_c, 7, 43, 127
2, 40197, Note_on_c, 5, 53, 127
2, 40197, Note_on_c, 10, 69, 127
2, 40376, Note_off_c, 10, 69, 127
2, 40376, Note_off_c, 5, 53, 127
2, 40378, Note_on_c, 7, 55, 127
2, 40378, Note_on_c, 12, 71, 127
2, 40557, Note_off_c, 7, 55, 127
2, 40560, Note_on_c, 5, 53, 127
2, 40669, Note_off_c, 12, 71, 127
2, 40739, Note_off_c, 5, 53, 127
2, 40741, Note_on_c, 0, 48, 127
2, 40741, Note_on_c, 3, 75, 127
2, 40924, Note_on_c, 3, 63, 127
2, 41102, Note_off_c, 0, 48, 127
2, 41103, Note_off_c, 3, 63, 127
2, 41105, Note_on_c, 0, 60, 127
2, 41105, Note_on_c, 2, 62, 127
2, 41271, Note_off_c, 3, 75, 127
2, 41284, Note_off_c, 2, 62, 127
2, 41287, Note_on_c, 3, 63, 127
2, 41466, Note_off_c, 3, 63, 127
2, 41466, Note_off_c, 0, 60, 127
2, 41468, Note_on_c, 11, 58, 127
2, 41468, Note_on_c, 7, 67, 127
2, 41650, Note_on_c, 3, 63, 127
2, 41829, Note_off_c, 3, 63, 127
2, 41829, Note_off_c, 11, 58, 127
2, 41833, Note_on_c, 8, 56, 127
2, 41833, Note_on_c, 2, 62, 127
2, 41998, Note_off_c, 7, 67, 127
2, 42012, Note_off_c, 2, 62, 127
2, 42014, Note_on_c, 3, 63, 127
2, 42193, Note_off_c, 3, 63, 127
2, 42194, Note_off_c, 8, 56, 127
2, 42196, Note_on_c, 7, 55, 127
2, 42196, Note_on_c, 11, 70, 127
2, 42377, Note_on_c, 3, 63, 127
2, 42556, Note_off_c, 3, 63, 127
2, 42557, Note_off_c, 7, 55, 127
2, 42559, Note_on_c, 5, 53, 127
2, 42559, Note_on_c, 2, 62, 127
2, 42726, Note_off_c, 11, 70, 127
2, 42738, Note_off_c, 2, 62, 127
2, 42741, Note_on_c, 3, 63, 127
2, 42920, Note_off_c, 3, 63, 127
2, 42920, Note_off_c, 5, 53, 127
2, 42923, Note_on_c, 7, 55, 127
2, 42923, Note_on_c, 1, 73, 127
2, 43104, Note_on_c, 3, 63, 127
2, 43283, Note_off_c, 3, 63, 127
2, 43284, Note_off_c, 7, 55, 127
2, 43286, Note_on_c, 3, 51, 127
2, 43286, Note_on_c, 2, 62, 127
2, 43453, Note_off_c, 1, 73, 127
2, 43465, Note_off_c, 2, 62, 127
2, 43467, Note_on_c, 3, 63, 127
2, 43646, Note_off_c, 3, 63, 127
2, 43647, Note_off_c, 3, 51, 127
2, 43650, Note_on_c, 8, 56, 127
2, 43650, Note_on_c, 0, 72, 127
2, 43829, Note_off_c, 8, 56, 127
2, 43832, Note_on_c, 0, 60, 127
2, 44011, Note_off_c, 0, 60, 127
2, 44011, Note_off_c, 0, 72, 127
2, 44013, Note_on_c, 1, 61, 127
2, 44013, Note_on_c, 8, 68, 127
2, 44192, Note_off_c, 1, 61, 127
2, 44195, Note_on_c, 0, 60, 127
2, 44374, Note_off_c, 8, 68, 127
2, 44376, Note_on_c, 1, 49, 127
2, 44376, Note_on_c, 7, 67, 127
2, 44422, Note_off_c, 0, 60, 127
2, 44464, Note_off_c, 7, 67, 127
2, 44467, Note_on_c, 5, 65, 127
2, 44555, Note_off_c, 5, 65, 127
2, 44555, Note_off_c, 1, 49, 127
2, 44559, Note_on_c, 0, 60, 127
2, 44559, Note_on_c, 4, 64, 127
2, 44738, Note_off_c, 4, 64, 127
2, 44738, Note_off_c, 0, 60, 127
2, 44740, Note_on_c, 1, 61, 127
2, 44740, Note_on_c, 5, 65, 127
2, 44919, Note_off_c, 1, 61, 127
2, 44922, Note_on_c, 0, 60, 127
2, 45060, Note_off_c, 5, 65, 127
2, 45101, Note_off_c, 0, 60, 127
2, 45103, Note_on_c, 7, 55, 127
2, 45103, Note_on_c, 11, 70, 127
2, 45282, Note_off_c, 7, 55, 127
2, 45285, Note_on_c, 11, 58, 127
2, 45464, Note_off_c, 11, 58, 127
2, 45464, Note_off_c, 11, 70, 127
2, 45467, Note_on_c, 0, 60, 127
2, 45467, Note_on_c, 7, 67, 127
2, 45646, Note_off_c, 0, 60, 127
2, 45649, Note_on_c, 11, 58, 127
2, 45828, Note_off_c, 7, 67, 127
2, 45831, Note_on_c, 0, 48, 127
2, 45831, Note_on_c, 5, 65, 127
2, 45876, Note_off_c, 11, 58, 127
2, 45919, Note_off_c, 5, 65, 127
2, 45922, Note_on_c, 4, 64, 127
2, 46010, Note_off_c, 4, 64, 127
2, 46010, Note_off_c, 0, 48, 127
2, 46012, Note_on_c, 11, 58, 127
2, 46012, Note_on_c, 2, 62, 127
2, 46191, Note_off_c, 2, 62, 127
2, 46191, Note_off_c, 11, 58, 127
2, 46194, Note_on_c, 0, 60, 127
2, 46194, Note_on_c, 4, 64, 127
2, 46373, Note_off_c, 0, 60, 127
2, 46376, Note_on_c, 11, 58, 127
2, 46485, Note_off_c, 4, 64, 127
2, 46555, Note_off_c, 11, 58, 127
2, 46558, Note_on_c, 5, 53, 127
2, 46558, Note_on_c, 8, 68, 127
2, 46739, Note_on_c, 0, 72, 127
2, 46918, Note_off_c, 0, 72, 127
2, 46919, Note_off_c, 5, 53, 127
2, 46921, Note_on_c, 8, 56, 127
2, 46921, Note_on_c, 12, 71, 127
2, 47088, Note_off_c, 8, 68, 127
2, 47100, Note_off_c, 12, 71, 127
2, 47102, Note_on_c, 0, 72, 127
2, 47281, Note_off_c, 0, 72, 127
2, 47282, Note_off_c, 8, 56, 127
2, 47285, Note_on_c, 5, 53, 127
2, 47285, Note_on_c, 1, 73, 127
2, 47464, Note_off_c, 1, 73, 127
2, 47466, Note_on_c, 0, 72, 127
2, 47645, Note_off_c, 0, 72, 127
2, 47646, Note_off_c, 5, 53, 127
2, 47648, Note_on_c, 1, 61, 127
2, 47648, Note_on_c, 12, 71, 127
2, 47827, Note_off_c, 12, 71, 127
2, 47830, Note_on_c, 0, 72, 127
2, 48009, Note_off_c, 0, 72, 127
2, 48009, Note_off_c, 1, 61, 127
2, 48011, Note_on_c, 4, 52, 127
2, 48011, Note_on_c, 7, 67, 127
2, 48194, Note_on_c, 0, 72, 127
2, 48372, Note_off_c, 4, 52, 127
2, 48373, Note_off_c, 0, 72, 127
2, 48375, Note_on_c, 7, 55, 127
2, 48375, Note_on_c, 12, 71, 127
2, 48541, Note_off_c, 7, 67, 127
2, 48554, Note_off_c, 12, 71, 127
2, 48557, Note_on_c, 0, 72, 127
2, 48736, Note_off_c, 0, 72, 127
2, 48736, Note_off_c, 7, 55, 127
2, 48738, Note_on_c, 3, 51, 127
2, 48738, Note_on_c, 1, 73, 127
2, 48917, Note_off_c, 1, 73, 127
2, 48920, Note_on_c, 0, 72, 127
2, 49099, Note_off_c, 0, 72, 127
2, 49099, Note_off_c, 3, 51, 127
2, 49102, Note_on_c, 0, 60, 127
2, 49102, Note_on_c, 12, 71, 127
2, 49281, Note_off_c, 12, 71, 127
2, 49284, Note_on_c, 0, 72, 127
2, 49463, Note_off_c, 0, 72, 127
2, 49463, Note_off_c, 0, 60, 127
2, 49466, Note_on_c, 2, 50, 127
2, 49466, Note_on_c, 5, 65, 127
2, 49647, Note_on_c, 0, 72, 127
2, 49826, Note_off_c, 0, 72, 127
2, 49827, Note_off_c, 2, 50, 127
2, 49829, Note_on_c, 5, 53, 127
2, 49829, Note_on_c, 2, 74, 127
2, 49996, Note_off_c, 5, 65, 127
2, 50008, Note_off_c, 2, 74, 127
2, 50011, Note_on_c, 4, 76, 127
2, 50190, Note_off_c, 4, 76, 127
2, 50190, Note_off_c, 5, 53, 127
2, 50193, Note_on_c, 1, 49, 127
2, 50193, Note_on_c, 5, 77, 127
2, 50374, Note_on_c, 11, 70, 127
2, 50553, Note_off_c, 11, 70, 127
2, 50554, Note_off_c, 1, 49, 127
2, 50556, Note_on_c, 11, 58, 127
2, 50556, Note_on_c, 10, 69, 127
2, 50735, Note_off_c, 10, 69, 127
2, 50737, Note_on_c, 11, 70, 127
2, 50912, Note_off_c, 5, 77, 127
2, 50917, Note_off_c, 11, 58, 127
2, 50920, Note_on_c, 0, 48, 127
2, 50920, Note_on_c, 7, 79, 127
2, 51096, Note_off_c, 11, 70, 127
2, 51099, Note_off_c, 7, 79, 127
2, 51101, Note_on_c, 5, 77, 127
2, 51280, Note_off_c, 5, 77, 127
2, 51281, Note_off_c, 0, 48, 127
2, 51283, Note_on_c, 2, 50, 127
2, 51283, Note_on_c, 4, 76, 127
2, 51462, Note_off_c, 4, 76, 127
2, 51465, Note_on_c, 2, 74, 127
2, 51644, Note_off_c, 2, 74, 127
2, 51644, Note_off_c, 2, 50, 127
2, 51646, Note_on_c, 4, 52, 127
2, 51646, Note_on_c, 0, 72, 127
2, 51829, Note_on_c, 11, 70, 127
2, 52005, Note_off_c, 0, 72, 127
2, 52007, Note_off_c, 4, 52, 127
2, 52008, Note_off_c, 11, 70, 127
2, 52010, Note_on_c, 0, 48, 127
2, 52010, Note_on_c, 8, 68, 127
2, 52189, Note_off_c, 8, 68, 127
2, 52192, Note_on_c, 7, 67, 127
2, 52371, Note_off_c, 7, 67, 127
2, 52371, Note_off_c, 0, 48, 127
2, 52373, Note_on_c, 5, 53, 127
2, 52373, Note_on_c, 8, 68, 127
2, 52552, Note_off_c, 5, 53, 127
2, 52555, Note_on_c, 8, 56, 127
2, 52555, Note_on_c, 5, 65, 127
2, 52734, Note_off_c, 5, 65, 127
2, 52734, Note_off_c, 8, 56, 127
2, 52737, Note_on_c, 7, 55, 127
2, 52737, Note_on_c, 4, 64, 127
2, 52903, Note_off_c, 8, 68, 127
2, 52916, Note_off_c, 4, 64, 127
2, 52916, Note_off_c, 7, 55, 127
2, 52919, Note_on_c, 8, 56, 127
2, 52919, Note_on_c, 5, 65, 127
2, 53098, Note_off_c, 5, 65, 127
2, 53098, Note_off_c, 8, 56, 127
2, 53100, Note_on_c, 3, 51, 127
2, 53100, Note_on_c, 0, 72, 127
2, 53279, Note_off_c, 3, 51, 127
2, 53282, Note_on_c, 0, 60, 127
2, 53282, Note_on_c, 8, 68, 127
2, 53461, Note_off_c, 8, 68, 127
2, 53461, Note_off_c, 0, 60, 127
2, 53464, Note_on_c, 11, 58, 127
2, 53464, Note_on_c, 7, 67, 127
2, 53630, Note_off_c, 0, 72, 127
2, 53643, Note_off_c, 7, 67, 127
2, 53643, Note_off_c, 11, 58, 127
2, 53646, Note_on_c, 0, 60, 127
2, 53646, Note_on_c, 8, 68, 127
2, 53825, Note_off_c, 8, 68, 127
2, 53825, Note_off_c, 0, 60, 127
2, 53828, Note_on_c, 1, 49, 127
2, 53828, Note_on_c, 5, 77, 127
2, 54007, Note_off_c, 5, 77, 127
2, 54009, Note_on_c, 3, 75, 127
2, 54188, Note_off_c, 3, 75, 127
2, 54189, Note_off_c, 1, 49, 127
2, 54191, Note_on_c, 5, 53, 127
2, 54191, Note_on_c, 1, 73, 127
2, 54370, Note_off_c, 1, 73, 127
2, 54372, Note_on_c, 0, 72, 127
2, 54551, Note_off_c, 0, 72, 127
2, 54552, Note_off_c, 5, 53, 127
2, 54555, Note_on_c, 11, 58, 127
2, 54555, Note_on_c, 11, 70, 127
2, 54734, Note_off_c, 11, 70, 127
2, 54736, Note_on_c, 8, 68, 127
2, 54915, Note_off_c, 8, 68, 127
2, 54916, Note_off_c, 11, 58, 127
2, 54918, Note_on_c, 1, 61, 127
2, 54918, Note_on_c, 7, 67, 127
2, 55097, Note_off_c, 7, 67, 127
2, 55100, Note_on_c, 5, 65, 127
2, 55279, Note_off_c, 5, 65, 127
2, 55279, Note_off_c, 1, 61, 127
2, 55281, Note_on_c, 3, 51, 127
2, 55281, Note_on_c, 7, 67, 127
2, 55460, Note_off_c, 3, 51, 127
2, 55464, Note_on_c, 7, 55, 127
2, 55464, Note_on_c, 3, 63, 127
2, 55643, Note_off_c, 3, 63, 127
2, 55643, Note_off_c, 7, 55, 127
2, 55645, Note_on_c, 5, 53, 127
2, 55645, Note_on_c, 2, 62, 127
2, 55811, Note_off_c, 7, 67, 127
2, 55824, Note_off_c, 2, 62, 127
2, 55824, Note_off_c, 5, 53, 127
2, 55827, Note_on_c, 7, 55, 127
2, 55827, Note_on_c, 3, 63, 127
2, 56006, Note_off_c, 3, 63, 127
2, 56006, Note_off_c, 7, 55, 127
2, 56008, Note_on_c, 1, 49, 127
2, 56008, Note_on_c, 11, 70, 127
2, 56187, Note_off_c, 1, 49, 127
2, 56190, Note_on_c, 11, 58, 127
2, 56190, Note_on_c, 7, 67, 127
2, 56369, Note_off_c, 7, 67, 127
2, 56369, Note_off_c, 11, 58, 127
2, 56372, Note_on_c, 8, 56, 127
2, 56372, Note_on_c, 5, 65, 127
2, 56538, Note_off_c, 11, 70, 127
2, 56551, Note_off_c, 5, 65, 127
2, 56551, Note_off_c, 8, 56, 127
2, 56554, Note_on_c, 11, 58, 127
2, 56554, Note_on_c, 7, 67, 127
2, 56733, Note_off_c, 7, 67, 127
2, 56733, Note_off_c, 11, 58, 127
2, 56735, Note_on_c, 0, 48, 127
2, 56735, Note_on_c, 3, 75, 127
2, 56914, Note_off_c, 3, 75, 127
2, 56917, Note_on_c, 1, 73, 127
2, 57096, Note_off_c, 1, 73, 127
2, 57096, Note_off_c, 0, 48, 127
2, 57099, Note_on_c, 3, 51, 127
2, 57099, Note_on_c, 0, 72, 127
2, 57278, Note_off_c, 0, 72, 127
2, 57281, Note_on_c, 11, 70, 127
2, 57460, Note_off_c, 11, 70, 127
2, 57460, Note_off_c, 3, 51, 127
2, 57463, Note_on_c, 8, 56, 127
2, 57463, Note_on_c, 8, 68, 127
2, 57642, Note_off_c, 8, 68, 127
2, 57644, Note_on_c, 7, 67, 127
2, 57823, Note_off_c, 7, 67, 127
2, 57824, Note_off_c, 8, 56, 127
2, 57826, Note_on_c, 0, 60, 127
2, 57826, Note_on_c, 5, 65, 127
2, 58005, Note_off_c, 5, 65, 127
2, 58007, Note_on_c, 4, 64, 127
2, 58186, Note_off_c, 4, 64, 127
2, 58187, Note_off_c, 0, 60, 127
2, 58190, Note_on_c, 1, 49, 127
2, 58190, Note_on_c, 5, 65, 127
2, 58369, Note_off_c, 1, 49, 127
2, 58371, Note_on_c, 5, 53, 127
2, 58550, Note_off_c, 5, 53, 127
2, 58551, Note_off_c, 5, 65, 127
2, 58553, Note_on_c, 3, 51, 127
2, 58553, Note_on_c, 10, 69, 127
2, 58732, Note_off_c, 3, 51, 127
2, 58734, Note_on_c, 5, 53, 127
2, 58913, Note_off_c, 5, 53, 127
2, 58914, Note_off_c, 10, 69, 127
2, 58916, Note_on_c, 6, 54, 127
2, 58916, Note_on_c, 11, 70, 127
2, 59095, Note_off_c, 6, 54, 127
2, 59099, Note_on_c, 5, 53, 127
2, 59277, Note_off_c, 11, 70, 127
2, 59278, Note_off_c, 5, 53, 127
2, 59280, Note_on_c, 3, 51, 127
2, 59280, Note_on_c, 0, 72, 127
2, 59459, Note_off_c, 3, 51, 127
2, 59462, Note_on_c, 5, 53, 127
2, 59641, Note_off_c, 5, 53, 127
2, 59641, Note_off_c, 0, 72, 127
2, 59643, Note_on_c, 11, 46, 127
2, 59643, Note_on_c, 1, 73, 127
2, 59822, Note_off_c, 11, 46, 127
2, 59825, Note_on_c, 5, 53, 127
2, 60004, Note_off_c, 5, 53, 127
2, 60004, Note_off_c, 1, 73, 127
2, 60007, Note_on_c, 7, 55, 127
2, 60007, Note_on_c, 4, 76, 127
2, 60186, Note_off_c, 7, 55, 127
2, 60189, Note_on_c, 8, 56, 127
2, 60368, Note_off_c, 8, 56, 127
2, 60368, Note_off_c, 4, 76, 127
2, 60370, Note_on_c, 7, 55, 127
2, 60370, Note_on_c, 5, 77, 127
2, 60549, Note_off_c, 7, 55, 127
2, 60552, Note_on_c, 5, 53, 127
2, 60731, Note_off_c, 5, 53, 127
2, 60731, Note_off_c, 5, 77, 127
2, 60733, Note_on_c, 4, 52, 127
2, 60733, Note_on_c, 7, 79, 127
2, 60912, Note_off_c, 4, 52, 127
2, 60916, Note_on_c, 5, 53, 127
2, 61095, Note_off_c, 5, 53, 127
2, 61098, Note_on_c, 8, 44, 127
2, 61098, Note_on_c, 0, 72, 127
2, 61263, Note_off_c, 7, 79, 127
2, 61279, Note_on_c, 4, 76, 127
2, 61458, Note_off_c, 4, 76, 127
2, 61459, Note_off_c, 8, 44, 127
2, 61461, Note_on_c, 5, 41, 127
2, 61461, Note_on_c, 5, 77, 127
2, 61640, Note_off_c, 5, 77, 127
2, 61642, Note_on_c, 8, 80, 127
2, 61817, Note_off_c, 0, 72, 127
2, 61822, Note_off_c, 5, 41, 127
2, 61825, Note_on_c, 0, 48, 127
2, 61825, Note_on_c, 11, 70, 127
2, 62001, Note_off_c, 8, 80, 127
2, 62006, Note_on_c, 7, 79, 127
2, 62185, Note_off_c, 7, 79, 127
2, 62186, Note_off_c, 0, 48, 127
2, 62188, Note_on_c, 0, 36, 127
2, 62188, Note_on_c, 5, 77, 127
2, 62367, Note_off_c, 5, 77, 127
2, 62369, Note_on_c, 4, 76, 127
2, 62544, Note_off_c, 11, 70, 127
2, 62548, Note_off_c, 4, 76, 127
2, 62549, Note_off_c, 0, 36, 127
2, 62551, Note_on_c, 5, 41, 127
2, 62551, Note_on_c, 8, 68, 127
2, 62733, Note_on_c, 0, 72, 127
2, 62912, Note_off_c, 0, 72, 127
2, 62912, Note_off_c, 5, 41, 127
2, 62915, Note_on_c, 8, 44, 127
2, 62915, Note_on_c, 4, 76, 127
2, 63094, Note_off_c, 4, 76, 127
2, 63097, Note_on_c, 5, 77, 127
2, 63270, Note_off_c, 8, 68, 127
2, 63276, Note_off_c, 8, 44, 127
2, 63278, Note_on_c, 11, 46, 127
2, 63278, Note_on_c, 7, 67, 127
2, 63324, Note_off_c, 5, 77, 127
2, 63460, Note_on_c, 1, 73, 127
2, 63639, Note_off_c, 1, 73, 127
2, 63639, Note_off_c, 11, 46, 127
2, 63642, Note_on_c, 0, 48, 127
2, 63642, Note_on_c, 0, 72, 127
2, 63808, Note_off_c, 7, 67, 127
2, 63821, Note_off_c, 0, 72, 127
2, 63824, Note_on_c, 11, 70, 127
2, 64003, Note_off_c, 11, 70, 127
2, 64003, Note_off_c, 0, 48, 127
2, 64005, Note_on_c, 5, 53, 127
2, 64005, Note_on_c, 8, 68, 127
2, 64184, Note_off_c, 8, 68, 127
2, 64187, Note_on_c, 7, 67, 127
2, 64366, Note_off_c, 7, 67, 127
2, 64366, Note_off_c, 5, 53, 127
2, 64368, Note_on_c, 7, 55, 127
2, 64368, Note_on_c, 5, 65, 127
2, 64547, Note_off_c, 5, 65, 127
2, 64551, Note_on_c, 4, 64, 127
2, 64729, Note_off_c, 7, 55, 127
2, 64730, Note_off_c, 4, 64, 127
2, 64733, Note_on_c, 8, 56, 127
2, 64733, Note_on_c, 5, 65, 127
2, 64914, Note_on_c, 8, 68, 127
2, 65092, Note_off_c, 5, 65, 127
2, 65094, Note_off_c, 8, 56, 127
2, 65096, Note_on_c, 5, 53, 127
2, 65096, Note_on_c, 0, 60, 127
2, 65275, Note_off_c, 0, 60, 127
2, 65277, Note_on_c, 3, 63, 127
2, 65444, Note_off_c, 8, 68, 127
2, 65456, Note_off_c, 3, 63, 127
2, 65457, Note_off_c, 5, 53, 127
2, 65460, Note_on_c, 11, 58, 127
2, 65460, Note_on_c, 2, 62, 127
2, 65641, Note_on_c, 8, 68, 127
2, 65820, Note_off_c, 8, 68, 127
2, 65821, Note_off_c, 11, 58, 127
2, 65823, Note_on_c, 11, 46, 127
2, 65823, Note_on_c, 5, 65, 127
2, 65990, Note_off_c, 2, 62, 127
2, 66002, Note_off_c, 5, 65, 127
2, 66004, Note_on_c, 2, 62, 127
2, 66183, Note_off_c, 2, 62, 127
2, 66186, Note_on_c, 11, 58, 127
2, 66365, Note_off_c, 11, 46, 127
2, 66368, Note_on_c, 8, 56, 127
2, 66547, Note_off_c, 8, 56, 127
2, 66550, Note_on_c, 7, 55, 127
2, 66729, Note_off_c, 7, 55, 127
2, 66730, Note_off_c, 11, 58, 127
2, 66732, Note_on_c, 5, 53, 127
2, 66911, Note_off_c, 5, 53, 127
2, 66913, Note_on_c, 3, 51, 127
2, 66913, Note_on_c, 7, 67, 127
2, 67092, Note_off_c, 7, 67, 127
2, 67095, Note_on_c, 5, 65, 127
2, 67274, Note_off_c, 5, 65, 127
2, 67274, Note_off_c, 3, 51, 127
2, 67277, Note_on_c, 5, 53, 127
2, 67277, Note_on_c, 3, 63, 127
2, 67456, Note_off_c, 3, 63, 127
2, 67459, Note_on_c, 2, 62, 127
2, 67638, Note_off_c, 2, 62, 127
2, 67638, Note_off_c, 5, 53, 127
2, 67640, Note_on_c, 7, 55, 127
2, 67640, Note_on_c, 3, 63, 127
2, 67822, Note_on_c, 7, 67, 127
2, 67999, Note_off_c, 3, 63, 127
2, 68001, Note_off_c, 7, 55, 127
2, 68003, Note_on_c, 3, 51, 127
2, 68003, Note_on_c, 12, 59, 127
2, 68182, Note_off_c, 12, 59, 127
2, 68186, Note_on_c, 2, 62, 127
2, 68352, Note_off_c, 7, 67, 127
2, 68364, Note_off_c, 3, 51, 127
2, 68365, Note_off_c, 2, 62, 127
2, 68367, Note_on_c, 8, 56, 127
2, 68367, Note_on_c, 0, 60, 127
2, 68549, Note_on_c, 7, 67, 127
2, 68728, Note_off_c, 7, 67, 127
2, 68728, Note_off_c, 8, 56, 127
2, 68731, Note_on_c, 8, 44, 127
2, 68731, Note_on_c, 3, 63, 127
2, 68897, Note_off_c, 0, 60, 127
2, 68910, Note_off_c, 3, 63, 127
2, 68912, Note_on_c, 0, 60, 127
2, 69091, Note_off_c, 0, 60, 127
2, 69095, Note_on_c, 8, 56, 127
2, 69273, Note_off_c, 8, 44, 127
2, 69276, Note_on_c, 7, 55, 127
2, 69455, Note_off_c, 7, 55, 127
2, 69458, Note_on_c, 5, 53, 127
2, 69637, Note_off_c, 5, 53, 127
2, 69639, Note_off_c, 8, 56, 127
2, 69639, Note_on_c, 3, 51, 127
2, 69818, Note_off_c, 3, 51, 127
2, 69821, Note_on_c, 2, 50, 127
2, 69821, Note_on_c, 5, 65, 127
2, 70000, Note_off_c, 5, 65, 127
2, 70003, Note_on_c, 3, 63, 127
2, 70182, Note_off_c, 3, 63, 127
2, 70182, Note_off_c, 2, 50, 127
2, 70185, Note_on_c, 3, 51, 127
2, 70185, Note_on_c, 2, 62, 127
2, 70364, Note_off_c, 2, 62, 127
2, 70366, Note_on_c, 0, 60, 127
2, 70545, Note_off_c, 0, 60, 127
2, 70546, Note_off_c, 3, 51, 127
2, 70548, Note_on_c, 5, 53, 127
2, 70548, Note_on_c, 2, 62, 127
2, 70730, Note_on_c, 5, 65, 127
2, 70909, Note_off_c, 5, 65, 127
2, 70909, Note_off_c, 5, 53, 127
2, 70912, Note_on_c, 2, 50, 127
2, 70912, Note_on_c, 8, 68, 127
2, 71078, Note_off_c, 2, 62, 127
2, 71094, Note_on_c, 0, 60, 127
2, 71273, Note_off_c, 0, 60, 127
2, 71273, Note_off_c, 2, 50, 127
2, 71275, Note_on_c, 7, 55, 127
2, 71275, Note_on_c, 12, 59, 127
2, 71442, Note_off_c, 8, 68, 127
2, 71454, Note_off_c, 12, 59, 127
2, 71457, Note_on_c, 5, 65, 127
2, 71636, Note_off_c, 5, 65, 127
2, 71636, Note_off_c, 7, 55, 127
2, 71638, Note_on_c, 7, 43, 127
2, 71638, Note_on_c, 2, 62, 127
2, 71817, Note_off_c, 2, 62, 127
2, 71821, Note_on_c, 12, 59, 127
2, 72000, Note_off_c, 12, 59, 127
2, 72002, Note_on_c, 7, 55, 127
2, 72180, Note_off_c, 7, 43, 127
2, 72181, Note_off_c, 7, 55, 127
2, 72184, Note_on_c, 5, 53, 127
2, 72184, Note_on_c, 12, 59, 127
2, 72363, Note_off_c, 12, 59, 127
2, 72363, Note_off_c, 5, 53, 127
2, 72366, Note_on_c, 3, 51, 127
2, 72366, Note_on_c, 0, 60, 127
2, 72545, Note_off_c, 0, 60, 127
2, 72545, Note_off_c, 3, 51, 127
2, 72547, Note_on_c, 2, 50, 127
2, 72547, Note_on_c, 2, 62, 127
2, 72726, Note_off_c, 2, 62, 127
2, 72726, Note_off_c, 2, 50, 127
2, 72730, Note_on_c, 0, 48, 127
2, 72730, Note_on_c, 3, 63, 127
2, 72909, Note_off_c, 0, 48, 127
2, 72911, Note_on_c, 2, 50, 127
2, 73090, Note_off_c, 2, 50, 127
2, 73093, Note_on_c, 3, 51, 127
2, 73093, Note_on_c, 7, 67, 127
2, 73272, Note_off_c, 3, 51, 127
2, 73274, Note_on_c, 0, 48, 127
2, 73453, Note_off_c, 0, 48, 127
2, 73454, Note_off_c, 7, 67, 127
2, 73456, Note_on_c, 8, 44, 127
2, 73456, Note_on_c, 0, 72, 127
2, 73635, Note_off_c, 8, 44, 127
2, 73638, Note_off_c, 3, 63, 127
2, 73638, Note_on_c, 7, 55, 127
2, 73638, Note_on_c, 11, 70, 127
2, 73817, Note_off_c, 11, 70, 127
2, 73817, Note_off_c, 7, 55, 127
2, 73820, Note_on_c, 5, 53, 127
2, 73820, Note_on_c, 8, 68, 127
2, 73999, Note_off_c, 8, 68, 127
2, 73999, Note_off_c, 5, 53, 127
2, 74001, Note_on_c, 3, 51, 127
2, 74001, Note_on_c, 7, 67, 127
2, 74180, Note_off_c, 7, 67, 127
2, 74180, Note_off_c, 3, 51, 127
2, 74183, Note_on_c, 2, 50, 127
2, 74183, Note_on_c, 5, 65, 127
2, 74362, Note_off_c, 5, 65, 127
2, 74362, Note_off_c, 2, 50, 127
2, 74365, Note_on_c, 3, 51, 127
2, 74365, Note_on_c, 7, 67, 127
2, 74544, Note_off_c, 7, 67, 127
2, 74544, Note_off_c, 3, 51, 127
2, 74547, Note_on_c, 5, 53, 127
2, 74547, Note_on_c, 8, 68, 127
2, 74726, Note_off_c, 8, 68, 127
2, 74726, Note_off_c, 5, 53, 127
2, 74729, Note_on_c, 2, 50, 127
2, 74729, Note_on_c, 5, 65, 127
2, 74908, Note_off_c, 5, 65, 127
2, 74908, Note_off_c, 2, 50, 127
2, 74910, Note_on_c, 11, 46, 127
2, 74910, Note_on_c, 2, 62, 127
2, 75084, Note_off_c, 0, 72, 127
2, 75089, Note_off_c, 2, 62, 127
2, 75089, Note_off_c, 11, 46, 127
2, 75092, Note_on_c, 8, 56, 127
2, 75092, Note_on_c, 0, 72, 127
2, 75271, Note_off_c, 0, 72, 127
2, 75271, Note_off_c, 8, 56, 127
2, 75273, Note_on_c, 7, 55, 127
2, 75273, Note_on_c, 11, 70, 127
2, 75452, Note_off_c, 11, 70, 127
2, 75452, Note_off_c, 7, 55, 127
2, 75456, Note_on_c, 5, 53, 127
2, 75456, Note_on_c, 8, 68, 127
2, 75635, Note_off_c, 8, 68, 127
2, 75635, Note_off_c, 5, 53, 127
2, 75637, Note_on_c, 3, 51, 127
2, 75637, Note_on_c, 7, 67, 127
2, 75816, Note_off_c, 7, 67, 127
2, 75819, Note_on_c, 8, 68, 127
2, 75998, Note_off_c, 8, 68, 127
2, 75998, Note_off_c, 3, 51, 127
2, 76000, Note_on_c, 2, 50, 127
2, 76000, Note_on_c, 11, 70, 127
2, 76182, Note_on_c, 7, 67, 127
2, 76361, Note_off_c, 7, 67, 127
2, 76361, Note_off_c, 2, 50, 127
2, 76365, Note_on_c, 3, 51, 127
2, 76365, Note_on_c, 0, 60, 127
2, 76530, Note_off_c, 11, 70, 127
2, 76546, Note_on_c, 1, 73, 127
2, 76724, Note_off_c, 0, 60, 127
2, 76725, Note_off_c, 1, 73, 127
2, 76726, Note_off_c, 3, 51, 127
2, 76728, Note_on_c, 4, 52, 127
2, 76728, Note_on_c, 0, 72, 127
2, 76907, Note_off_c, 0, 72, 127
2, 76909, Note_on_c, 11, 70, 127
2, 77088, Note_off_c, 11, 70, 127
2, 77089, Note_off_c, 4, 52, 127
2, 77091, Note_on_c, 5, 53, 127
2, 77091, Note_on_c, 8, 68, 127
2, 77270, Note_off_c, 8, 68, 127
2, 77273, Note_on_c, 11, 70, 127
2, 77452, Note_off_c, 11, 70, 127
2, 77452, Note_off_c, 5, 53, 127
2, 77455, Note_on_c, 4, 52, 127
2, 77455, Note_on_c, 0, 72, 127
2, 77636, Note_on_c, 8, 68, 127
2, 77815, Note_off_c, 8, 68, 127
2, 77816, Note_off_c, 4, 52, 127
2, 77818, Note_on_c, 5, 53, 127
2, 77818, Note_on_c, 2, 62, 127
2, 77986, Note_off_c, 0, 72, 127
2, 78001, Note_on_c, 3, 75, 127
2, 78183, Note_off_c, 2, 62, 127
2, 78184, Note_off_c, 3, 75, 127
2, 78184, Note_off_c, 5, 53, 127
2, 78187, Note_on_c, 6, 54, 127
2, 78187, Note_on_c, 2, 74, 127
2, 78370, Note_off_c, 2, 74, 127
2, 78372, Note_on_c, 0, 72, 127
2, 78555, Note_off_c, 0, 72, 127
2, 78555, Note_off_c, 6, 54, 127
2, 78559, Note_on_c, 7, 55, 127
2, 78559, Note_on_c, 12, 71, 127
2, 78742, Note_off_c, 7, 55, 127
2, 78744, Note_on_c, 5, 53, 127
2, 78744, Note_on_c, 7, 67, 127
2, 78925, Note_off_c, 12, 71, 127
2, 78927, Note_off_c, 5, 53, 127
2, 78930, Note_on_c, 3, 51, 127
2, 78930, Note_on_c, 0, 72, 127
2, 79113, Note_off_c, 3, 51, 127
2, 79115, Note_on_c, 5, 53, 127
2, 79115, Note_on_c, 2, 74, 127
2, 79298, Note_off_c, 2, 74, 127
2, 79298, Note_off_c, 5, 53, 127
2, 79300, Note_on_c, 7, 55, 127
2, 79300, Note_on_c, 3, 75, 127
2, 79485, Note_off_c, 7, 67, 127
2, 79494, Note_on_c, 7, 67, 127
2, 79679, Note_off_c, 0, 72, 127
2, 79681, Note_off_c, 3, 75, 127
2, 79683, Note_off_c, 7, 55, 127
2, 79687, Note_on_c, 7, 43, 127
2, 79687, Note_on_c, 12, 71, 127
2, 79687, Note_on_c, 2, 74, 127
2, 79887, Note_off_c, 7, 67, 127
2, 79891, Note_on_c, 5, 65, 127
2, 80091, Note_off_c, 2, 74, 127
2, 80091, Note_off_c, 12, 71, 127
2, 80091, Note_off_c, 7, 43, 127
2, 80092, Note_off_c, 5, 65, 127
2, 80096, Note_on_c, 3, 63, 127
2, 80179, Note_on_c, 7, 67, 127
2, 80263, Note_on_c, 0, 72, 127
2, 80263, Note_on_c, 0, 48, 127
2, 80510, Note_on_c, 3, 51, 127
2, 80758, Note_on_c, 7, 55, 127
2, 81006, Note_on_c, 0, 60, 127
2, 83324, Note_off_c, 0, 60, 127
2, 83408, Note_off_c, 7, 55, 127
2, 83491, Note_off_c, 3, 51, 127
2, 83575, Note_off_c, 0, 72, 127
2, 83741, Note_off_c, 7, 67, 127
2, 83741, Note_off_c, 3, 63, 127
2, 83742, Note_off_c, 0, 48, 127
2, 84480, Note_on_c, 7, 67, 127
2, 84846, Note_off_c, 7, 67, 127
2, 84849, Note_on_c, 3, 63, 127
2, 85215, Note_off_c, 3, 63, 127
2, 85219, Note_on_c, 5, 65, 127
2, 85585, Note_off_c, 5, 65, 127
2, 85588, Note_on_c, 7, 67, 127
2, 85954, Note_off_c, 7, 67, 127
2, 85957, Note_on_c, 0, 60, 127
2, 86323, Note_off_c, 0, 60, 127
2, 86326, Note_on_c, 5, 65, 127
2, 86692, Note_off_c, 5, 65, 127
2, 86696, Note_on_c, 3, 63, 127
2, 86879, Note_off_c, 3, 63, 127
2, 86881, Note_on_c, 2, 62, 127
2, 87064, Note_off_c, 2, 62, 127
2, 87066, Note_on_c, 3, 63, 127
2, 87435, Note_on_c, 0, 72, 127
2, 87796, Note_off_c, 3, 63, 127
2, 87801, Note_off_c, 0, 72, 127
2, 87804, Note_on_c, 2, 62, 127
2, 87804, Note_on_c, 11, 70, 127
2, 88170, Note_off_c, 11, 70, 127
2, 88170, Note_off_c, 2, 62, 127
2, 88174, Note_on_c, 0, 72, 127
2, 88174, Note_on_c, 0, 60, 127
2, 88540, Note_off_c, 0, 60, 127
2, 88540, Note_off_c, 0, 72, 127
2, 88543, Note_on_c, 2, 74, 127
2, 88543, Note_on_c, 11, 58, 127
2, 88909, Note_off_c, 2, 74, 127
2, 88912, Note_on_c, 7, 67, 127
2, 89273, Note_off_c, 11, 58, 127
2, 89278, Note_off_c, 7, 67, 127
2, 89281, Note_on_c, 10, 57, 127
2, 89281, Note_on_c, 0, 72, 127
2, 89647, Note_off_c, 0, 72, 127
2, 89651, Note_on_c, 0, 72, 127
2, 89741, Note_off_c, 0, 72, 127
2, 89743, Note_on_c, 11, 70, 127
2, 89833, Note_off_c, 11, 70, 127
2, 89836, Note_on_c, 10, 69, 127
2, 90013, Note_off_c, 10, 57, 127
2, 90019, Note_off_c, 10, 69, 127
2, 90022, Note_on_c, 11, 70, 127
2, 90022, Note_on_c, 7, 55, 127
2, 90388, Note_off_c, 7, 55, 127
2, 90391, Note_on_c, 7, 67, 127
2, 90752, Note_off_c, 11, 70, 127
2, 90760, Note_on_c, 8, 68, 127
2, 91121, Note_off_c, 7, 67, 127
2, 91130, Note_on_c, 5, 65, 127
2, 91490, Note_off_c, 8, 68, 127
2, 91499, Note_on_c, 7, 67, 127
2, 91860, Note_off_c, 5, 65, 127
2, 91865, Note_off_c, 7, 67, 127
2, 91867, Note_on_c, 3, 63, 127
2, 91867, Note_on_c, 0, 72, 127
2, 92233, Note_off_c, 0, 72, 127
2, 92236, Note_on_c, 5, 65, 127
2, 92597, Note_off_c, 3, 63, 127
2, 92606, Note_on_c, 2, 62, 127
2, 92789, Note_off_c, 2, 62, 127
2, 92792, Note_on_c, 0, 60, 127
2, 92975, Note_off_c, 0, 60, 127
2, 92977, Note_on_c, 12, 59, 127
2, 93342, Note_off_c, 5, 65, 127
2, 93346, Note_on_c, 7, 55, 127
2, 93346, Note_on_c, 3, 63, 127
2, 93529, Note_off_c, 3, 63, 127
2, 93532, Note_on_c, 2, 62, 127
2, 93709, Note_off_c, 12, 59, 127
2, 93714, Note_off_c, 7, 55, 127
2, 93715, Note_off_c, 2, 62, 127
2, 93717, Note_on_c, 3, 51, 127
2, 93717, Note_on_c, 7, 67, 127
2, 93717, Note_on_c, 0, 60, 127
2, 94083, Note_off_c, 7, 67, 127
2, 94083, Note_off_c, 3, 51, 127
2, 94086, Note_on_c, 5, 53, 127
2, 94086, Note_on_c, 5, 65, 127
2, 94452, Note_off_c, 5, 65, 127
2, 94452, Note_off_c, 5, 53, 127
2, 94456, Note_on_c, 7, 55, 127
2, 94456, Note_on_c, 3, 63, 127
2, 94822, Note_off_c, 7, 55, 127
2, 94825, Note_on_c, 0, 48, 127
2, 94905, Note_off_c, 0, 60, 127
2, 94915, Note_off_c, 3, 63, 127
2, 94918, Note_on_c, 2, 62, 127
2, 95008, Note_off_c, 2, 62, 127
2, 95010, Note_on_c, 0, 60, 127
2, 95100, Note_off_c, 0, 60, 127
2, 95103, Note_on_c, 2, 62, 127
2, 95193, Note_off_c, 2, 62, 127
2, 95193, Note_off_c, 0, 48, 127
2, 95196, Note_on_c, 5, 53, 127
2, 95196, Note_on_c, 12, 59, 127
2, 95196, Note_on_c, 3, 63, 127
2, 95286, Note_off_c, 3, 63, 127
2, 95289, Note_on_c, 2, 62, 127
2, 95379, Note_off_c, 2, 62, 127
2, 95381, Note_on_c, 3, 63, 127
2, 95471, Note_off_c, 3, 63, 127
2, 95474, Note_on_c, 2, 62, 127
2, 95564, Note_off_c, 2, 62, 127
2, 95564, Note_off_c, 5, 53, 127
2, 95566, Note_on_c, 3, 51, 127
2, 95566, Note_on_c, 3, 63, 127
2, 95656, Note_off_c, 3, 63, 127
2, 95660, Note_on_c, 2, 62, 127
2, 95749, Note_off_c, 3, 51, 127
2, 95750, Note_off_c, 2, 62, 127
2, 95752, Note_on_c, 2, 50, 127
2, 95752, Note_on_c, 0, 60, 127
2, 95842, Note_off_c, 0, 60, 127
2, 95845, Note_on_c, 2, 62, 127
2, 95929, Note_off_c, 12, 59, 127
2, 95935, Note_off_c, 2, 62, 127
2, 95935, Note_off_c, 2, 50, 127
2, 95938, Note_on_c, 3, 51, 127
2, 95938, Note_on_c, 0, 60, 127
2, 96121, Note_off_c, 3, 51, 127
2, 96124, Note_on_c, 7, 55, 127
2, 96307, Note_off_c, 7, 55, 127
2, 96309, Note_on_c, 0, 48, 127
2, 96309, Note_on_c, 7, 67, 127
2, 96492, Note_off_c, 0, 48, 127
2, 96495, Note_on_c, 2, 50, 127
2, 96671, Note_off_c, 0, 60, 127
2, 96677, Note_off_c, 7, 67, 127
2, 96678, Note_off_c, 2, 50, 127
2, 96680, Note_on_c, 3, 51, 127
2, 96680, Note_on_c, 0, 72, 127
2, 96863, Note_off_c, 3, 51, 127
2, 96866, Note_on_c, 5, 53, 127
2, 97049, Note_off_c, 5, 53, 127
2, 97051, Note_on_c, 7, 55, 127
2, 97051, Note_on_c, 3, 63, 127
2, 97234, Note_off_c, 7, 55, 127
2, 97236, Note_on_c, 10, 57, 127
2, 97419, Note_off_c, 10, 57, 127
2, 97419, Note_off_c, 3, 63, 127
2, 97422, Note_on_c, 11, 58, 127
2, 97422, Note_on_c, 2, 62, 127
2, 97605, Note_off_c, 2, 62, 127
2, 97605, Note_off_c, 11, 58, 127
2, 97607, Note_on_c, 2, 62, 127
2, 97607, Note_on_c, 6, 66, 127
2, 97790, Note_off_c, 6, 66, 127
2, 97790, Note_off_c, 2, 62, 127
2, 97790, Note_off_c, 0, 72, 127
2, 97794, Note_on_c, 7, 55, 127
2, 97794, Note_on_c, 7, 67, 127
2, 97794, Note_on_c, 11, 70, 127
2, 97977, Note_off_c, 11, 70, 127
2, 97977, Note_off_c, 7, 55, 127
2, 97979, Note_on_c, 10, 57, 127
2, 97979, Note_on_c, 0, 72, 127
2, 98162, Note_off_c, 0, 72, 127
2, 98162, Note_off_c, 10, 57, 127
2, 98165, Note_on_c, 11, 58, 127
2, 98165, Note_on_c, 2, 74, 127
2, 98332, Note_off_c, 7, 67, 127
2, 98346, Note_off_c, 2, 74, 127
2, 98346, Note_off_c, 11, 58, 127
2, 98348, Note_on_c, 0, 60, 127
2, 98348, Note_on_c, 4, 76, 127
2, 98531, Note_off_c, 4, 76, 127
2, 98531, Note_off_c, 0, 60, 127
2, 98533, Note_on_c, 2, 62, 127
2, 98533, Note_on_c, 5, 77, 127
2, 98716, Note_off_c, 5, 77, 127
2, 98716, Note_off_c, 2, 62, 127
2, 98719, Note_on_c, 4, 64, 127
2, 98719, Note_on_c, 7, 79, 127
2, 98902, Note_off_c, 7, 79, 127
2, 98902, Note_off_c, 4, 64, 127
2, 98904, Note_on_c, 5, 65, 127
2, 98904, Note_on_c, 8, 80, 127
2, 99087, Note_off_c, 8, 80, 127
2, 99090, Note_on_c, 5, 77, 127
2, 99272, Note_off_c, 5, 65, 127
2, 99273, Note_off_c, 5, 77, 127
2, 99275, Note_on_c, 8, 56, 127
2, 99275, Note_on_c, 0, 84, 127
2, 99458, Note_off_c, 0, 84, 127
2, 99462, Note_on_c, 11, 82, 127
2, 99643, Note_off_c, 8, 56, 127
2, 99645, Note_off_c, 11, 82, 127
2, 99647, Note_on_c, 5, 53, 127
2, 99647, Note_on_c, 8, 80, 127
2, 99830, Note_off_c, 8, 80, 127
2, 99833, Note_on_c, 7, 79, 127
2, 100015, Note_off_c, 5, 53, 127
2, 100016, Note_off_c, 7, 79, 127
2, 100018, Note_on_c, 8, 56, 127
2, 100018, Note_on_c, 5, 77, 127
2, 100201, Note_off_c, 5, 77, 127
2, 100203, Note_on_c, 3, 75, 127
2, 100386, Note_off_c, 3, 75, 127
2, 100386, Note_off_c, 8, 56, 127
2, 100389, Note_on_c, 11, 58, 127
2, 100389, Note_on_c, 2, 74, 127
2, 100572, Note_off_c, 2, 74, 127
2, 100574, Note_on_c, 11, 70, 127
2, 100757, Note_off_c, 11, 70, 127
2, 100757, Note_off_c, 11, 58, 127
2, 100760, Note_on_c, 2, 62, 127
2, 100760, Note_on_c, 5, 77, 127
2, 100943, Note_off_c, 5, 77, 127
2, 100945, Note_on_c, 3, 75, 127
2, 101128, Note_off_c, 3, 75, 127
2, 101128, Note_off_c, 2, 62, 127
2, 101131, Note_on_c, 11, 58, 127
2, 101131, Note_on_c, 2, 74, 127
2, 101314, Note_off_c, 2, 74, 127
2, 101317, Note_on_c, 0, 72, 127
2, 101499, Note_off_c, 11, 58, 127
2, 101500, Note_off_c, 0, 72, 127
2, 101502, Note_on_c, 2, 62, 127
2, 101502, Note_on_c, 11, 70, 127
2, 101685, Note_off_c, 11, 70, 127
2, 101688, Note_on_c, 8, 68, 127
2, 101870, Note_off_c, 2, 62, 127
2, 101871, Note_off_c, 8, 68, 127
2, 101873, Note_on_c, 3, 63, 127
2, 101873, Note_on_c, 7, 67, 127
2, 102059, Note_on_c, 0, 60, 127
2, 102239, Note_off_c, 7, 67, 127
2, 102241, Note_off_c, 3, 63, 127
2, 102242, Note_off_c, 0, 60, 127
2, 102244, Note_on_c, 0, 48, 127
2, 102244, Note_on_c, 8, 68, 127
2, 102427, Note_off_c, 8, 68, 127
2, 102430, Note_on_c, 7, 67, 127
2, 102612, Note_off_c, 0, 48, 127
2, 102613, Note_off_c, 7, 67, 127
2, 102615, Note_on_c, 12, 47, 127
2, 102615, Note_on_c, 5, 65, 127
2, 102798, Note_off_c, 5, 65, 127
2, 102800, Note_on_c, 3, 63, 127
2, 102983, Note_off_c, 3, 63, 127
2, 102983, Note_off_c, 12, 47, 127
2, 102986, Note_on_c, 0, 48, 127
2, 102986, Note_on_c, 2, 62, 127
2, 103169, Note_off_c, 2, 62, 127
2, 103172, Note_on_c, 0, 60, 127
2, 103354, Note_off_c, 0, 48, 127
2, 103355, Note_off_c, 0, 60, 127
2, 103358, Note_on_c, 2, 50, 127
2, 103358, Note_on_c, 12, 59, 127
2, 103543, Note_on_c, 5, 65, 127
2, 103724, Note_off_c, 12, 59, 127
2, 103726, Note_off_c, 5, 65, 127
2, 103726, Note_off_c, 2, 50, 127
2, 103729, Note_on_c, 7, 43, 127
2, 103729, Note_on_c, 3, 63, 127
2, 103912, Note_off_c, 3, 63, 127
2, 103914, Note_on_c, 2, 62, 127
2, 104097, Note_off_c, 2, 62, 127
2, 104097, Note_off_c, 7, 43, 127
2, 104100, Note_on_c, 0, 48, 127
2, 104100, Note_on_c, 3, 63, 127
2, 104285, Note_on_c, 8, 68, 127
2, 104466, Note_off_c, 3, 63, 127
2, 104468, Note_off_c, 8, 68, 127
2, 104468, Note_off_c, 0, 48, 127
2, 104470, Note_on_c, 12, 47, 127
2, 104470, Note_on_c, 7, 67, 127
2, 104653, Note_off_c, 7, 67, 127
2, 104653, Note_off_c, 12, 47, 127
2, 104656, Note_on_c, 10, 45, 127
2, 104656, Note_on_c, 5, 65, 127
2, 104839, Note_off_c, 5, 65, 127
2, 104839, Note_off_c, 10, 45, 127
2, 104841, Note_on_c, 12, 47, 127
2, 104841, Note_on_c, 2, 74, 127
2, 105024, Note_off_c, 2, 74, 127
2, 105028, Note_on_c, 0, 72, 127
2, 105209, Note_off_c, 12, 47, 127
2, 105211, Note_off_c, 0, 72, 127
2, 105213, Note_on_c, 7, 43, 127
2, 105213, Note_on_c, 2, 74, 127
2, 105399, Note_on_c, 7, 79, 127
2, 105581, Note_off_c, 7, 43, 127
2, 105582, Note_off_c, 7, 79, 127
2, 105584, Note_on_c, 0, 48, 127
2, 105584, Note_on_c, 3, 75, 127
2, 105751, Note_off_c, 2, 74, 127
2, 105767, Note_on_c, 12, 71, 127
2, 105950, Note_off_c, 12, 71, 127
2, 105950, Note_off_c, 0, 48, 127
2, 105953, Note_on_c, 8, 44, 127
2, 105953, Note_on_c, 0, 72, 127
2, 106120, Note_off_c, 3, 75, 127
2, 106136, Note_on_c, 5, 77, 127
2, 106319, Note_off_c, 5, 77, 127
2, 106319, Note_off_c, 8, 44, 127
2, 106322, Note_on_c, 3, 39, 127
2, 106322, Note_on_c, 7, 79, 127
2, 106489, Note_off_c, 0, 72, 127
2, 106505, Note_on_c, 12, 71, 127
2, 106687, Note_off_c, 7, 79, 127
2, 106688, Note_off_c, 12, 71, 127
2, 106692, Note_on_c, 0, 72, 127
2, 106874, Note_off_c, 3, 39, 127
2, 106877, Note_on_c, 8, 56, 127
2, 107060, Note_off_c, 8, 56, 127
2, 107063, Note_on_c, 2, 50, 127
2, 107063, Note_on_c, 5, 77, 127
2, 107230, Note_off_c, 0, 72, 127
2, 107246, Note_on_c, 12, 71, 127
2, 107428, Note_off_c, 5, 77, 127
2, 107429, Note_off_c, 2, 50, 127
2, 107432, Note_on_c, 7, 55, 127
2, 107432, Note_on_c, 3, 75, 127
2, 107615, Note_off_c, 3, 75, 127
2, 107617, Note_on_c, 2, 74, 127
2, 107784, Note_off_c, 12, 71, 127
2, 107798, Note_off_c, 2, 74, 127
2, 107798, Note_off_c, 7, 55, 127
2, 107800, Note_on_c, 0, 48, 127
2, 107800, Note_on_c, 3, 75, 127
2, 107800, Note_on_c, 0, 72, 127
2, 107983, Note_off_c, 0, 72, 127
2, 107986, Note_on_c, 7, 67, 127
2, 108166, Note_off_c, 3, 75, 127
2, 108169, Note_off_c, 7, 67, 127
2, 108171, Note_on_c, 8, 68, 127
2, 108354, Note_off_c, 0, 48, 127
2, 108358, Note_on_c, 5, 53, 127
2, 108541, Note_off_c, 5, 53, 127
2, 108543, Note_on_c, 11, 46, 127
2, 108543, Note_on_c, 1, 73, 127
2, 108709, Note_off_c, 8, 68, 127
2, 108727, Note_on_c, 7, 67, 127
2, 108908, Note_off_c, 1, 73, 127
2, 108909, Note_off_c, 11, 46, 127
2, 108912, Note_on_c, 3, 51, 127
2, 108912, Note_on_c, 0, 72, 127
2, 109095, Note_off_c, 0, 72, 127
2, 109098, Note_on_c, 11, 70, 127
2, 109280, Note_off_c, 3, 51, 127
2, 109281, Note_off_c, 11, 70, 127
2, 109283, Note_on_c, 8, 44, 127
2, 109283, Note_on_c, 0, 72, 127
2, 109460, Note_off_c, 7, 67, 127
2, 109468, Note_on_c, 4, 64, 127
2, 109649, Note_off_c, 0, 72, 127
2, 109651, Note_off_c, 4, 64, 127
2, 109654, Note_on_c, 5, 65, 127
2, 109837, Note_off_c, 8, 44, 127
2, 109839, Note_on_c, 1, 49, 127
2, 110022, Note_off_c, 1, 49, 127
2, 110026, Note_on_c, 7, 43, 127
2, 110026, Note_on_c, 11, 70, 127
2, 110192, Note_off_c, 5, 65, 127
2, 110209, Note_on_c, 4, 64, 127
2, 110391, Note_off_c, 11, 70, 127
2, 110392, Note_off_c, 7, 43, 127
2, 110395, Note_on_c, 0, 48, 127
2, 110395, Note_on_c, 8, 68, 127
2, 110578, Note_off_c, 8, 68, 127
2, 110580, Note_on_c, 7, 67, 127
2, 110747, Note_off_c, 4, 64, 127
2, 110761, Note_off_c, 7, 67, 127
2, 110761, Note_off_c, 0, 48, 127
2, 110764, Note_on_c, 5, 41, 127
2, 110764, Note_on_c, 5, 65, 127
2, 110764, Note_on_c, 8, 68, 127
2, 110947, Note_off_c, 5, 41, 127
2, 110949, Note_on_c, 0, 48, 127
2, 111132, Note_off_c, 0, 48, 127
2, 111132, Note_off_c, 5, 65, 127
2, 111134, Note_on_c, 5, 53, 127
2, 111134, Note_on_c, 0, 60, 127
2, 111302, Note_off_c, 8, 68, 127
2, 111318, Note_on_c, 8, 68, 127
2, 111499, Note_off_c, 0, 60, 127
2, 111501, Note_off_c, 8, 68, 127
2, 111503, Note_on_c, 2, 62, 127
2, 111503, Note_on_c, 12, 59, 127
2, 111686, Note_off_c, 5, 53, 127
2, 111690, Note_on_c, 3, 51, 127
2, 111871, Note_off_c, 12, 59, 127
2, 111871, Note_off_c, 2, 62, 127
2, 111873, Note_off_c, 3, 51, 127
2, 111875, Note_on_c, 2, 50, 127
2, 111875, Note_on_c, 3, 63, 127
2, 111875, Note_on_c, 0, 60, 127
2, 112058, Note_off_c, 2, 50, 127
2, 112061, Note_on_c, 0, 48, 127
2, 112243, Note_off_c, 0, 60, 127
2, 112243, Note_off_c, 3, 63, 127
2, 112244, Note_off_c, 0, 48, 127
2, 112246, Note_on_c, 12, 47, 127
2, 112246, Note_on_c, 2, 62, 127
2, 112246, Note_on_c, 5, 65, 127
2, 112429, Note_off_c, 12, 47, 127
2, 112432, Note_on_c, 7, 43, 127
2, 112614, Note_off_c, 5, 65, 127
2, 112614, Note_off_c, 2, 62, 127
2, 112615, Note_off_c, 7, 43, 127
2, 112617, Note_on_c, 0, 48, 127
2, 112617, Note_on_c, 3, 63, 127
2, 112617, Note_on_c, 7, 55, 127
2, 112800, Note_off_c, 0, 48, 127
2, 112802, Note_on_c, 11, 46, 127
2, 112985, Note_off_c, 11, 46, 127
2, 112985, Note_off_c, 7, 55, 127
2, 112988, Note_on_c, 8, 44, 127
2, 112988, Note_on_c, 0, 60, 127
2, 113171, Note_off_c, 8, 44, 127
2, 113173, Note_on_c, 0, 48, 127
2, 113350, Note_off_c, 3, 63, 127
2, 113356, Note_off_c, 0, 48, 127
2, 113356, Note_off_c, 0, 60, 127
2, 113359, Note_on_c, 2, 38, 127
2, 113359, Note_on_c, 5, 65, 127
2, 113359, Note_on_c, 12, 59, 127
2, 113542, Note_off_c, 12, 59, 127
2, 113545, Note_on_c, 10, 57, 127
2, 113727, Note_off_c, 2, 38, 127
2, 113728, Note_off_c, 10, 57, 127
2, 113731, Note_on_c, 3, 39, 127
2, 113731, Note_on_c, 7, 55, 127
2, 113914, Note_off_c, 7, 55, 127
2, 113916, Note_on_c, 12, 59, 127
2, 114092, Note_off_c, 5, 65, 127
2, 114099, Note_off_c, 12, 59, 127
2, 114101, Note_on_c, 0, 60, 127
2, 114101, Note_on_c, 3, 63, 127
2, 114285, Note_off_c, 3, 39, 127
2, 114287, Note_on_c, 0, 36, 127
2, 114469, Note_off_c, 3, 63, 127
2, 114470, Note_off_c, 0, 36, 127
2, 114472, Note_on_c, 5, 41, 127
2, 114472, Note_on_c, 8, 68, 127
2, 114639, Note_off_c, 0, 60, 127
2, 114656, Note_on_c, 0, 60, 127
2, 114838, Note_off_c, 5, 41, 127
2, 114839, Note_off_c, 0, 60, 127
2, 114841, Note_on_c, 11, 46, 127
2, 114841, Note_on_c, 2, 62, 127
2, 115008, Note_off_c, 8, 68, 127
2, 115025, Note_on_c, 8, 68, 127
2, 115207, Note_off_c, 11, 46, 127
2, 115208, Note_off_c, 8, 68, 127
2, 115211, Note_on_c, 12, 47, 127
2, 115211, Note_on_c, 7, 67, 127
2, 115377, Note_off_c, 2, 62, 127
2, 115395, Note_on_c, 2, 62, 127
2, 115577, Note_off_c, 12, 47, 127
2, 115578, Note_off_c, 2, 62, 127
2, 115580, Note_on_c, 0, 48, 127
2, 115580, Note_on_c, 3, 63, 127
2, 115706, Note_off_c, 7, 67, 127
2, 115764, Note_on_c, 7, 67, 127
2, 115946, Note_off_c, 0, 48, 127
2, 115947, Note_off_c, 7, 67, 127
2, 115949, Note_on_c, 8, 44, 127
2, 115949, Note_on_c, 0, 72, 127
2, 116116, Note_off_c, 3, 63, 127
2, 116133, Note_on_c, 5, 65, 127
2, 116315, Note_off_c, 8, 44, 127
2, 116316, Note_off_c, 5, 65, 127
2, 116318, Note_on_c, 11, 46, 127
2, 116318, Note_on_c, 6, 66, 127
2, 116485, Note_off_c, 0, 72, 127
2, 116501, Note_on_c, 11, 70, 127
2, 116683, Note_off_c, 6, 66, 127
2, 116684, Note_off_c, 11, 46, 127
2, 116688, Note_on_c, 0, 48, 127
2, 116688, Note_on_c, 4, 64, 127
2, 116867, Note_off_c, 11, 70, 127
2, 116873, Note_on_c, 11, 70, 127
2, 117054, Note_off_c, 4, 64, 127
2, 117056, Note_off_c, 11, 70, 127
2, 117056, Note_off_c, 0, 48, 127
2, 117059, Note_on_c, 5, 41, 127
2, 117059, Note_on_c, 8, 68, 127
2, 117244, Note_on_c, 5, 65, 127
2, 117427, Note_off_c, 5, 65, 127
2, 117427, Note_off_c, 5, 41, 127
2, 117430, Note_on_c, 11, 46, 127
2, 117430, Note_on_c, 1, 61, 127
2, 117597, Note_off_c, 8, 68, 127
2, 117613, Note_on_c, 7, 67, 127
2, 117796, Note_off_c, 7, 67, 127
2, 117796, Note_off_c, 11, 46, 127
2, 117799, Note_on_c, 8, 44, 127
2, 117799, Note_on_c, 8, 68, 127
2, 117982, Note_off_c, 8, 68, 127
2, 117982, Note_off_c, 8, 44, 127
2, 117984, Note_on_c, 7, 43, 127
2, 117984, Note_on_c, 11, 70, 127
2, 118167, Note_off_c, 11, 70, 127
2, 118167, Note_off_c, 7, 43, 127
2, 118169, Note_on_c, 8, 44, 127
2, 118169, Note_on_c, 4, 64, 127
2, 118355, Note_off_c, 1, 61, 127
2, 118356, Note_on_c, 0, 60, 127
2, 118535, Note_off_c, 4, 64, 127
2, 118537, Note_off_c, 8, 44, 127
2, 118539, Note_off_c, 0, 60, 127
2, 118541, Note_on_c, 8, 56, 127
2, 118541, Note_on_c, 5, 65, 127
2, 118724, Note_off_c, 8, 56, 127
2, 118727, Note_on_c, 5, 53, 127
2, 118727, Note_on_c, 8, 68, 127
2, 118910, Note_off_c, 8, 68, 127
2, 118910, Note_off_c, 5, 53, 127
2, 118912, Note_on_c, 11, 58, 127
2, 118912, Note_on_c, 1, 73, 127
2, 119079, Note_off_c, 5, 65, 127
2, 119096, Note_on_c, 7, 67, 127
2, 119278, Note_off_c, 11, 58, 127
2, 119279, Note_off_c, 7, 67, 127
2, 119281, Note_on_c, 0, 60, 127
2, 119281, Note_on_c, 8, 68, 127
2, 119448, Note_off_c, 1, 73, 127
2, 119465, Note_on_c, 0, 72, 127
2, 119646, Note_off_c, 8, 68, 127
2, 119647, Note_off_c, 0, 60, 127
2, 119650, Note_on_c, 2, 50, 127
2, 119650, Note_on_c, 6, 66, 127
2, 119831, Note_off_c, 0, 72, 127
2, 119835, Note_on_c, 0, 72, 127
2, 120016, Note_off_c, 6, 66, 127
2, 120018, Note_off_c, 0, 72, 127
2, 120018, Note_off_c, 2, 50, 127
2, 120022, Note_on_c, 7, 55, 127
2, 120022, Note_on_c, 11, 70, 127
2, 120207, Note_on_c, 7, 67, 127
2, 120390, Note_off_c, 7, 67, 127
2, 120390, Note_off_c, 7, 55, 127
2, 120393, Note_on_c, 0, 48, 127
2, 120393, Note_on_c, 3, 63, 127
2, 120521, Note_off_c, 11, 70, 127
2, 120576, Note_on_c, 10, 69, 127
2, 120759, Note_off_c, 10, 69, 127
2, 120759, Note_off_c, 0, 48, 127
2, 120762, Note_on_c, 11, 46, 127
2, 120762, Note_on_c, 11, 70, 127
2, 120945, Note_off_c, 11, 70, 127
2, 120945, Note_off_c, 11, 46, 127
2, 120947, Note_on_c, 10, 45, 127
2, 120947, Note_on_c, 0, 72, 127
2, 121130, Note_off_c, 0, 72, 127
2, 121130, Note_off_c, 10, 45, 127
2, 121133, Note_on_c, 11, 46, 127
2, 121133, Note_on_c, 6, 66, 127
2, 121318, Note_off_c, 3, 63, 127
2, 121318, Note_on_c, 2, 62, 127
2, 121499, Note_off_c, 6, 66, 127
2, 121501, Note_off_c, 11, 46, 127
2, 121503, Note_on_c, 3, 51, 127
2, 121503, Note_on_c, 7, 67, 127
2, 121684, Note_off_c, 2, 62, 127
2, 121689, Note_on_c, 0, 60, 127
2, 121871, Note_off_c, 3, 51, 127
2, 121872, Note_off_c, 0, 60, 127
2, 121875, Note_on_c, 0, 48, 127
2, 121875, Note_on_c, 11, 58, 127
2, 122041, Note_off_c, 7, 67, 127
2, 122059, Note_on_c, 7, 67, 127
2, 122240, Note_off_c, 11, 58, 127
2, 122241, Note_off_c, 0, 48, 127
2, 122244, Note_on_c, 2, 50, 127
2, 122244, Note_on_c, 10, 57, 127
2, 122425, Note_off_c, 7, 67, 127
2, 122430, Note_on_c, 6, 66, 127
2, 122610, Note_off_c, 10, 57, 127
2, 122612, Note_off_c, 2, 50, 127
2, 122613, Note_off_c, 6, 66, 127
2, 122615, Note_on_c, 7, 43, 127
2, 122615, Note_on_c, 7, 55, 127
2, 122615, Note_on_c, 7, 67, 127
2, 122981, Note_off_c, 7, 55, 127
2, 122984, Note_on_c, 7, 79, 127
2, 123345, Note_off_c, 7, 67, 127
2, 123350, Note_off_c, 7, 79, 127
2, 123350, Note_off_c, 7, 43, 127
2, 123354, Note_on_c, 7, 67, 127
2, 123354, Note_on_c, 3, 75, 127
2, 123720, Note_off_c, 3, 75, 127
2, 123723, Note_on_c, 5, 77, 127
2, 124089, Note_off_c, 5, 77, 127
2, 124089, Note_off_c, 7, 67, 127
2, 124092, Note_on_c, 3, 63, 127
2, 124092, Note_on_c, 7, 79, 127
2, 124458, Note_off_c, 7, 79, 127
2, 124461, Note_on_c, 0, 72, 127
2, 124827, Note_off_c, 0, 72, 127
2, 124827, Note_off_c, 3, 63, 127
2, 124831, Note_on_c, 5, 65, 127
2, 124831, Note_on_c, 5, 77, 127
2, 125197, Note_off_c, 5, 77, 127
2, 125200, Note_on_c, 5, 77, 127
2, 125290, Note_off_c, 5, 77, 127
2, 125292, Note_on_c, 3, 75, 127
2, 125382, Note_off_c, 3, 75, 127
2, 125385, Note_on_c, 2, 74, 127
2, 125568, Note_off_c, 2, 74, 127
2, 125568, Note_off_c, 5, 65, 127
2, 125570, Note_on_c, 7, 67, 127
2, 125570, Note_on_c, 3, 75, 127
2, 125753, Note_off_c, 3, 75, 127
2, 125756, Note_on_c, 2, 74, 127
2, 125939, Note_off_c, 2, 74, 127
2, 125941, Note_on_c, 7, 55, 127
2, 125941, Note_on_c, 0, 72, 127
2, 126124, Note_off_c, 0, 72, 127
2, 126127, Note_on_c, 12, 71, 127
2, 126303, Note_off_c, 7, 67, 127
2, 126309, Note_off_c, 7, 55, 127
2, 126310, Note_off_c, 12, 71, 127
2, 126312, Note_on_c, 8, 56, 127
2, 126312, Note_on_c, 0, 60, 127
2, 126312, Note_on_c, 0, 72, 127
2, 126495, Note_off_c, 0, 72, 127
2, 126498, Note_on_c, 3, 75, 127
2, 126680, Note_off_c, 8, 56, 127
2, 126681, Note_off_c, 3, 75, 127
2, 126684, Note_on_c, 7, 55, 127
2, 126684, Note_on_c, 5, 77, 127
2, 126867, Note_off_c, 5, 77, 127
2, 126869, Note_on_c, 7, 79, 127
2, 127045, Note_off_c, 0, 60, 127
2, 127052, Note_off_c, 7, 79, 127
2, 127052, Note_off_c, 7, 55, 127
2, 127055, Note_on_c, 5, 53, 127
2, 127055, Note_on_c, 5, 65, 127
2, 127055, Note_on_c, 8, 80, 127
2, 127238, Note_off_c, 8, 80, 127
2, 127240, Note_on_c, 0, 72, 127
2, 127423, Note_off_c, 0, 72, 127
2, 127423, Note_off_c, 5, 53, 127
2, 127426, Note_on_c, 2, 62, 127
2, 127426, Note_on_c, 12, 71, 127
2, 127609, Note_off_c, 12, 71, 127
2, 127611, Note_on_c, 10, 69, 127
2, 127794, Note_off_c, 10, 69, 127
2, 127794, Note_off_c, 2, 62, 127
2, 127797, Note_on_c, 7, 55, 127
2, 127797, Note_on_c, 12, 71, 127
2, 127980, Note_off_c, 12, 71, 127
2, 127982, Note_off_c, 5, 65, 127
2, 127982, Note_on_c, 3, 63, 127
2, 127982, Note_on_c, 7, 79, 127
2, 128163, Note_off_c, 7, 55, 127
2, 128165, Note_off_c, 7, 79, 127
2, 128165, Note_off_c, 3, 63, 127
2, 128167, Note_on_c, 2, 62, 127
2, 128167, Note_on_c, 10, 57, 127
2, 128167, Note_on_c, 5, 77, 127
2, 128350, Note_off_c, 5, 77, 127
2, 128350, Note_off_c, 10, 57, 127
2, 128353, Note_on_c, 12, 59, 127
2, 128353, Note_on_c, 7, 79, 127
2, 128533, Note_off_c, 2, 62, 127
2, 128536, Note_off_c, 7, 79, 127
2, 128536, Note_off_c, 12, 59, 127
2, 128539, Note_on_c, 0, 60, 127
2, 128539, Note_on_c, 3, 75, 127
2, 128722, Note_off_c, 0, 60, 127
2, 128725, Note_on_c, 2, 62, 127
2, 128907, Note_off_c, 3, 75, 127
2, 128908, Note_off_c, 2, 62, 127
2, 128910, Note_on_c, 3, 63, 127
2, 128910, Note_on_c, 0, 72, 127
2, 129093, Note_off_c, 3, 63, 127
2, 129096, Note_on_c, 5, 65, 127
2, 129278, Note_off_c, 0, 72, 127
2, 129279, Note_off_c, 5, 65, 127
2, 129281, Note_on_c, 7, 67, 127
2, 129281, Note_on_c, 11, 70, 127
2, 129464, Note_off_c, 7, 67, 127
2, 129466, Note_on_c, 3, 63, 127
2, 129649, Note_off_c, 3, 63, 127
2, 129649, Note_off_c, 11, 70, 127
2, 129652, Note_on_c, 2, 62, 127
2, 129652, Note_on_c, 0, 72, 127
2, 129835, Note_off_c, 2, 62, 127
2, 129837, Note_on_c, 0, 60, 127
2, 130020, Note_off_c, 0, 60, 127
2, 130020, Note_off_c, 0, 72, 127
2, 130023, Note_on_c, 11, 58, 127
2, 130023, Note_on_c, 2, 74, 127
2, 130206, Note_off_c, 11, 58, 127
2, 130208, Note_on_c, 10, 57, 127
2, 130391, Note_off_c, 10, 57, 127
2, 130391, Note_off_c, 2, 74, 127
2, 130395, Note_on_c, 11, 58, 127
2, 130395, Note_on_c, 7, 79, 127
2, 130395, Note_on_c, 7, 67, 127
2, 130761, Note_off_c, 7, 67, 127
2, 130761, Note_off_c, 7, 79, 127
2, 130764, Note_on_c, 4, 76, 127
2, 130764, Note_on_c, 0, 72, 127
2, 130947, Note_off_c, 11, 58, 127
2, 130949, Note_on_c, 10, 57, 127
2, 131132, Note_off_c, 10, 57, 127
2, 131132, Note_off_c, 0, 72, 127
2, 131132, Note_off_c, 4, 76, 127
2, 131134, Note_on_c, 2, 62, 127
2, 131134, Note_on_c, 11, 70, 127
2, 131134, Note_on_c, 6, 78, 127
2, 131317, Note_off_c, 11, 70, 127
2, 131317, Note_off_c, 2, 62, 127
2, 131320, Note_on_c, 0, 60, 127
2, 131320, Note_on_c, 10, 69, 127
2, 131500, Note_off_c, 6, 78, 127
2, 131503, Note_off_c, 10, 69, 127
2, 131503, Note_off_c, 0, 60, 127
2, 131505, Note_on_c, 11, 58, 127
2, 131505, Note_on_c, 7, 79, 127
2, 131505, Note_on_c, 11, 70, 127
2, 131688, Note_off_c, 11, 58, 127
2, 131691, Note_on_c, 7, 55, 127
2, 131873, Note_off_c, 11, 70, 127
2, 131873, Note_off_c, 7, 79, 127
2, 131874, Note_off_c, 7, 55, 127
2, 131876, Note_on_c, 0, 60, 127
2, 131876, Note_on_c, 8, 68, 127
2, 131876, Note_on_c, 0, 72, 127
2, 132059, Note_off_c, 8, 68, 127
2, 132063, Note_on_c, 7, 67, 127
2, 132242, Note_off_c, 0, 72, 127
2, 132244, Note_off_c, 0, 60, 127
2, 132246, Note_off_c, 7, 67, 127
2, 132248, Note_on_c, 10, 57, 127
2, 132248, Note_on_c, 0, 72, 127
2, 132248, Note_on_c, 5, 77, 127
2, 132433, Note_on_c, 0, 60, 127
2, 132614, Note_off_c, 10, 57, 127
2, 132616, Note_off_c, 0, 60, 127
2, 132616, Note_off_c, 5, 77, 127
2, 132616, Note_off_c, 0, 72, 127
2, 132619, Note_on_c, 12, 59, 127
2, 132619, Note_on_c, 3, 75, 127
2, 132619, Note_on_c, 7, 67, 127
2, 132802, Note_off_c, 3, 75, 127
2, 132804, Note_on_c, 2, 74, 127
2, 132987, Note_off_c, 2, 74, 127
2, 132987, Note_off_c, 12, 59, 127
2, 132990, Note_on_c, 0, 60, 127
2, 132990, Note_on_c, 3, 75, 127
2, 133157, Note_off_c, 7, 67, 127
2, 133173, Note_on_c, 7, 67, 127
2, 133356, Note_off_c, 7, 67, 127
2, 133356, Note_off_c, 0, 60, 127
2, 133359, Note_on_c, 5, 53, 127
2, 133359, Note_on_c, 10, 69, 127
2, 133526, Note_off_c, 3, 75, 127
2, 133542, Note_on_c, 3, 75, 127
2, 133724, Note_off_c, 10, 69, 127
2, 133725, Note_off_c, 3, 75, 127
2, 133725, Note_off_c, 5, 53, 127
2, 133729, Note_on_c, 11, 58, 127
2, 133729, Note_on_c, 11, 70, 127
2, 133729, Note_on_c, 2, 74, 127
2, 133912, Note_off_c, 11, 70, 127
2, 133914, Note_on_c, 0, 72, 127
2, 134095, Note_off_c, 2, 74, 127
2, 134097, Note_off_c, 0, 72, 127
2, 134097, Note_off_c, 11, 58, 127
2, 134100, Note_on_c, 8, 56, 127
2, 134100, Note_on_c, 1, 73, 127
2, 134100, Note_on_c, 4, 76, 127
2, 134283, Note_off_c, 8, 56, 127
2, 134285, Note_on_c, 7, 55, 127
2, 134468, Note_off_c, 7, 55, 127
2, 134468, Note_off_c, 4, 76, 127
2, 134468, Note_off_c, 1, 73, 127
2, 134470, Note_on_c, 10, 57, 127
2, 134470, Note_on_c, 5, 77, 127
2, 134656, Note_on_c, 0, 72, 127
2, 134836, Note_off_c, 5, 77, 127
2, 134838, Note_off_c, 10, 57, 127
2, 134839, Note_off_c, 0, 72, 127
2, 134841, Note_on_c, 2, 62, 127
2, 134841, Note_on_c, 11, 70, 127
2, 135027, Note_on_c, 8, 68, 127
2, 135207, Note_off_c, 11, 70, 127
2, 135210, Note_off_c, 8, 68, 127
2, 135212, Note_on_c, 3, 75, 127
2, 135212, Note_on_c, 7, 67, 127
2, 135395, Note_off_c, 2, 62, 127
2, 135398, Note_on_c, 0, 60, 127
2, 135580, Note_off_c, 7, 67, 127
2, 135580, Note_off_c, 3, 75, 127
2, 135581, Note_off_c, 0, 60, 127
2, 135584, Note_on_c, 5, 65, 127
2, 135584, Note_on_c, 10, 69, 127
2, 135584, Note_on_c, 2, 74, 127
2, 135767, Note_off_c, 2, 74, 127
2, 135767, Note_off_c, 5, 65, 127
2, 135769, Note_on_c, 3, 63, 127
2, 135769, Note_on_c, 0, 72, 127
2, 135950, Note_off_c, 10, 69, 127
2, 135952, Note_off_c, 0, 72, 127
2, 135952, Note_off_c, 3, 63, 127
2, 135955, Note_on_c, 2, 62, 127
2, 135955, Note_on_c, 2, 74, 127
2, 135955, Note_on_c, 11, 70, 127
2, 136138, Note_off_c, 2, 62, 127
2, 136140, Note_on_c, 0, 60, 127
2, 136323, Note_off_c, 0, 60, 127
2, 136323, Note_off_c, 11, 70, 127
2, 136323, Note_off_c, 2, 74, 127
2, 136326, Note_on_c, 1, 61, 127
2, 136326, Note_on_c, 7, 67, 127
2, 136326, Note_on_c, 3, 63, 127
2, 136692, Note_off_c, 3, 63, 127
2, 136692, Note_off_c, 7, 67, 127
2, 136695, Note_on_c, 3, 75, 127
2, 136695, Note_on_c, 8, 68, 127
2, 136878, Note_off_c, 1, 61, 127
2, 136880, Note_on_c, 0, 60, 127
2, 137063, Note_off_c, 0, 60, 127
2, 137063, Note_off_c, 8, 68, 127
2, 137066, Note_on_c, 11, 58, 127
2, 137066, Note_on_c, 7, 67, 127
2, 137249, Note_off_c, 7, 67, 127
2, 137249, Note_off_c, 11, 58, 127
2, 137251, Note_on_c, 8, 56, 127
2, 137251, Note_on_c, 5, 65, 127
2, 137434, Note_off_c, 5, 65, 127
2, 137434, Note_off_c, 8, 56, 127
2, 137437, Note_on_c, 11, 58, 127
2, 137437, Note_on_c, 7, 67, 127
2, 137622, Note_off_c, 3, 75, 127
2, 137623, Note_on_c, 3, 75, 127
2, 137805, Note_off_c, 11, 58, 127
2, 137806, Note_off_c, 3, 75, 127
2, 137808, Note_on_c, 12, 59, 127
2, 137808, Note_on_c, 2, 74, 127
2, 137975, Note_off_c, 7, 67, 127
2, 137992, Note_on_c, 5, 65, 127
2, 138174, Note_off_c, 12, 59, 127
2, 138175, Note_off_c, 5, 65, 127
2, 138177, Note_on_c, 7, 55, 127
2, 138177, Note_on_c, 0, 60, 127
2, 138177, Note_on_c, 3, 63, 127
2, 138344, Note_off_c, 2, 74, 127
2, 138361, Note_on_c, 0, 72, 127
2, 138542, Note_off_c, 3, 63, 127
2, 138543, Note_off_c, 0, 60, 127
2, 138546, Note_on_c, 2, 62, 127
2, 138727, Note_off_c, 0, 72, 127
2, 138732, Note_on_c, 12, 71, 127
2, 138909, Note_off_c, 7, 55, 127
2, 138912, Note_off_c, 2, 62, 127
2, 138915, Note_off_c, 12, 71, 127
2, 138917, Note_on_c, 3, 51, 127
2, 138917, Note_on_c, 7, 55, 127
2, 138917, Note_on_c, 0, 60, 127
2, 138917, Note_on_c, 0, 72, 127
2, 139100, Note_off_c, 0, 60, 127
2, 139100, Note_off_c, 7, 55, 127
2, 139103, Note_on_c, 0, 60, 127
2, 139285, Note_off_c, 0, 72, 127
2, 139286, Note_off_c, 0, 60, 127
2, 139289, Note_on_c, 12, 59, 127
2, 139289, Note_on_c, 3, 75, 127
2, 139289, Note_on_c, 7, 79, 127
2, 139472, Note_off_c, 12, 59, 127
2, 139474, Note_on_c, 0, 60, 127
2, 139650, Note_off_c, 3, 51, 127
2, 139657, Note_off_c, 7, 79, 127
2, 139657, Note_off_c, 3, 75, 127
2, 139660, Note_on_c, 5, 53, 127
2, 139660, Note_on_c, 2, 74, 127
2, 139660, Note_on_c, 8, 68, 127
2, 139840, Note_off_c, 0, 60, 127
2, 139845, Note_on_c, 12, 59, 127
2, 140028, Note_off_c, 12, 59, 127
2, 140028, Note_off_c, 2, 74, 127
2, 140031, Note_on_c, 0, 60, 127
2, 140031, Note_on_c, 3, 75, 127
2, 140214, Note_off_c, 3, 75, 127
2, 140216, Note_on_c, 5, 77, 127
2, 140393, Note_off_c, 8, 68, 127
2, 140393, Note_off_c, 5, 53, 127
2, 140399, Note_off_c, 5, 77, 127
2, 140401, Note_on_c, 7, 55, 127
2, 140401, Note_on_c, 3, 75, 127
2, 140587, Note_on_c, 7, 67, 127
2, 140764, Note_off_c, 0, 60, 127
2, 140767, Note_off_c, 3, 75, 127
2, 140772, Note_on_c, 12, 59, 127
2, 140772, Note_on_c, 2, 74, 127
2, 140953, Note_off_c, 7, 67, 127
2, 140959, Note_on_c, 5, 65, 127
2, 141134, Note_off_c, 7, 55, 127
2, 141138, Note_off_c, 2, 74, 127
2, 141140, Note_off_c, 12, 59, 127
2, 141142, Note_off_c, 5, 65, 127
2, 141144, Note_on_c, 0, 48, 127
2, 141144, Note_on_c, 0, 60, 127
2, 141144, Note_on_c, 3, 63, 127
2, 141330, Note_on_c, 0, 72, 127
2, 141510, Note_off_c, 3, 63, 127
2, 141515, Note_on_c, 4, 64, 127
2, 141696, Note_off_c, 0, 72, 127
2, 141700, Note_on_c, 11, 70, 127
2, 141881, Note_off_c, 4, 64, 127
2, 141883, Note_off_c, 11, 70, 127
2, 141883, Note_off_c, 0, 48, 127
2, 141886, Note_on_c, 5, 53, 127
2, 141886, Note_on_c, 8, 68, 127
2, 142071, Note_on_c, 5, 65, 127
2, 142254, Note_off_c, 5, 65, 127
2, 142254, Note_off_c, 0, 60, 127
2, 142257, Note_on_c, 12, 59, 127
2, 142257, Note_on_c, 2, 62, 127
2, 142424, Note_off_c, 8, 68, 127
2, 142440, Note_on_c, 8, 68, 127
2, 142618, Note_off_c, 5, 53, 127
2, 142622, Note_off_c, 2, 62, 127
2, 142623, Note_off_c, 8, 68, 127
2, 142623, Note_off_c, 12, 59, 127
2, 142627, Note_on_c, 3, 51, 127
2, 142627, Note_on_c, 0, 60, 127
2, 142627, Note_on_c, 7, 67, 127
2, 142812, Note_on_c, 3, 63, 127
2, 142993, Note_off_c, 7, 67, 127
2, 142995, Note_off_c, 3, 63, 127
2, 142995, Note_off_c, 3, 51, 127
2, 142998, Note_on_c, 2, 50, 127
2, 142998, Note_on_c, 5, 65, 127
2, 143165, Note_off_c, 0, 60, 127
2, 143181, Note_on_c, 12, 59, 127
2, 143363, Note_off_c, 5, 65, 127
2, 143363, Note_off_c, 2, 50, 127
2, 143364, Note_off_c, 12, 59, 127
2, 143366, Note_on_c, 3, 51, 127
2, 143366, Note_on_c, 7, 67, 127
2, 143552, Note_on_c, 7, 55, 127
2, 143735, Note_off_c, 7, 55, 127
2, 143737, Note_on_c, 0, 60, 127
2, 143737, Note_on_c, 3, 63, 127
2, 143904, Note_off_c, 7, 67, 127
2, 143904, Note_off_c, 3, 51, 127
2, 143921, Note_on_c, 7, 55, 127
2, 144104, Note_off_c, 7, 55, 127
2, 144106, Note_on_c, 8, 56, 127
2, 144106, Note_on_c, 0, 72, 127
2, 144273, Note_off_c, 3, 63, 127
2, 144291, Note_on_c, 4, 64, 127
2, 144467, Note_off_c, 0, 60, 127
2, 144472, Note_off_c, 8, 56, 127
2, 144474, Note_off_c, 4, 64, 127
2, 144476, Note_on_c, 7, 55, 127
2, 144476, Note_on_c, 11, 58, 127
2, 144476, Note_on_c, 5, 65, 127
2, 144659, Note_off_c, 5, 65, 127
2, 144662, Note_on_c, 7, 67, 127
2, 144844, Note_off_c, 11, 58, 127
2, 144844, Note_off_c, 7, 55, 127
2, 144845, Note_off_c, 7, 67, 127
2, 144847, Note_on_c, 5, 53, 127
2, 144847, Note_on_c, 8, 56, 127
2, 144847, Note_on_c, 8, 68, 127
2, 145030, Note_off_c, 8, 68, 127
2, 145030, Note_off_c, 8, 56, 127
2, 145033, Note_on_c, 7, 67, 127
2, 145216, Note_off_c, 7, 67, 127
2, 145218, Note_on_c, 2, 62, 127
2, 145218, Note_on_c, 5, 65, 127
2, 145401, Note_off_c, 5, 65, 127
2, 145403, Note_on_c, 3, 63, 127
2, 145580, Note_off_c, 5, 53, 127
2, 145584, Note_off_c, 2, 62, 127
2, 145586, Note_off_c, 3, 63, 127
2, 145589, Note_on_c, 7, 55, 127
2, 145589, Note_on_c, 2, 62, 127
2, 145589, Note_on_c, 7, 67, 127
2, 145766, Note_off_c, 0, 72, 127
2, 145774, Note_on_c, 12, 71, 127
2, 145955, Note_off_c, 7, 67, 127
2, 145957, Note_off_c, 12, 71, 127
2, 145957, Note_off_c, 7, 55, 127
2, 145960, Note_on_c, 10, 57, 127
2, 145960, Note_on_c, 5, 65, 127
2, 145960, Note_on_c, 0, 72, 127
2, 146143, Note_off_c, 0, 72, 127
2, 146143, Note_off_c, 10, 57, 127
2, 146146, Note_on_c, 12, 59, 127
2, 146146, Note_on_c, 2, 74, 127
2, 146322, Note_off_c, 2, 62, 127
2, 146329, Note_off_c, 2, 74, 127
2, 146329, Note_off_c, 12, 59, 127
2, 146332, Note_on_c, 0, 60, 127
2, 146332, Note_on_c, 7, 67, 127
2, 146502, Note_off_c, 5, 65, 127
2, 146519, Note_on_c, 3, 63, 127
2, 146702, Note_off_c, 7, 67, 127
2, 146704, Note_off_c, 0, 60, 127
2, 146706, Note_on_c, 8, 68, 127
2, 146706, Note_on_c, 0, 60, 127
2, 146706, Note_on_c, 0, 48, 127
2, 146889, Note_off_c, 3, 63, 127
2, 146894, Note_on_c, 5, 65, 127
2, 147076, Note_off_c, 8, 68, 127
2, 147078, Note_off_c, 0, 48, 127
2, 147078, Note_off_c, 0, 60, 127
2, 147081, Note_on_c, 7, 67, 127
2, 147081, Note_on_c, 12, 47, 127
2, 147081, Note_on_c, 2, 62, 127
2, 147264, Note_off_c, 5, 65, 127
2, 147268, Note_on_c, 5, 65, 127
2, 147453, Note_off_c, 5, 65, 127
2, 147453, Note_off_c, 2, 62, 127
2, 147453, Note_off_c, 12, 47, 127
2, 147456, Note_on_c, 3, 63, 127
2, 147456, Note_on_c, 0, 48, 127
2, 147456, Note_on_c, 0, 60, 127
2, 147627, Note_off_c, 7, 67, 127
2, 147643, Note_on_c, 10, 69, 127
2, 147826, Note_off_c, 3, 63, 127
2, 147828, Note_off_c, 10, 69, 127
2, 147828, Note_off_c, 0, 60, 127
2, 147828, Note_off_c, 0, 48, 127
2, 147831, Note_on_c, 11, 70, 127
2, 147831, Note_on_c, 2, 50, 127
2, 147831, Note_on_c, 5, 53, 127
2, 148018, Note_on_c, 5, 65, 127
2, 148201, Note_off_c, 11, 70, 127
2, 148203, Note_off_c, 5, 65, 127
2, 148203, Note_off_c, 5, 53, 127
2, 148203, Note_off_c, 2, 50, 127
2, 148205, Note_on_c, 12, 71, 127
2, 148205, Note_on_c, 3, 63, 127
2, 148205, Note_on_c, 7, 43, 127
2, 148205, Note_on_c, 7, 55, 127
2, 148390, Note_off_c, 3, 63, 127
2, 148393, Note_on_c, 2, 62, 127
2, 148575, Note_off_c, 12, 71, 127
2, 148577, Note_off_c, 7, 43, 127
2, 148578, Note_off_c, 2, 62, 127
2, 148580, Note_on_c, 3, 63, 127
2, 148580, Note_on_c, 0, 48, 127
2, 148767, Note_on_c, 7, 67, 127
2, 148946, Note_off_c, 7, 55, 127
2, 148952, Note_off_c, 7, 67, 127
2, 148952, Note_off_c, 0, 48, 127
2, 148955, Note_on_c, 0, 72, 127
2, 148955, Note_on_c, 12, 47, 127
2, 148955, Note_on_c, 10, 57, 127
2, 149126, Note_off_c, 3, 63, 127
2, 149140, Note_off_c, 12, 47, 127
2, 149140, Note_off_c, 0, 72, 127
2, 149142, Note_on_c, 6, 66, 127
2, 149142, Note_on_c, 10, 45, 127
2, 149325, Note_off_c, 10, 57, 127
2, 149327, Note_off_c, 10, 45, 127
2, 149327, Note_off_c, 6, 66, 127
2, 149330, Note_on_c, 7, 67, 127
2, 149330, Note_on_c, 7, 55, 127
2, 149330, Note_on_c, 12, 47, 127
2, 149518, Note_on_c, 2, 62, 127
2, 149700, Note_off_c, 7, 67, 127
2, 149702, Note_off_c, 12, 47, 127
2, 149705, Note_on_c, 3, 63, 127
2, 149705, Note_on_c, 0, 48, 127
2, 149888, Note_off_c, 2, 62, 127
2, 149893, Note_on_c, 0, 60, 127
2, 150071, Note_off_c, 7, 55, 127
2, 150075, Note_off_c, 3, 63, 127
2, 150077, Note_off_c, 0, 48, 127
2, 150080, Note_on_c, 2, 62, 127
2, 150080, Note_on_c, 5, 41, 127
2, 150267, Note_off_c, 0, 60, 127
2, 150271, Note_on_c, 10, 57, 127
2, 150459, Note_off_c, 5, 41, 127
2, 150460, Note_off_c, 10, 57, 127
2, 150463, Note_on_c, 12, 59, 127
2, 150463, Note_on_c, 7, 43, 127
2, 150654, Note_on_c, 5, 53, 127
2, 150837, Note_off_c, 2, 62, 127
2, 150841, Note_off_c, 12, 59, 127
2, 150842, Note_off_c, 7, 43, 127
2, 150843, Note_off_c, 5, 53, 127
2, 150844, Note_on_c, 3, 51, 127
2, 150844, Note_on_c, 0, 60, 127
2, 150844, Note_on_c, 0, 36, 127
2, 151216, Note_off_c, 0, 60, 127
2, 151216, Note_off_c, 3, 51, 127
2, 151243, Note_on_c, 7, 67, 127
2, 151615, Note_off_c, 7, 67, 127
2, 151618, Note_on_c, 3, 63, 127
2, 151966, Note_off_c, 0, 36, 127
2, 151990, Note_off_c, 3, 63, 127
2, 151993, Note_on_c, 0, 72, 127
2, 151993, Note_on_c, 5, 65, 127
2, 152365, Note_off_c, 5, 65, 127
2, 152365, Note_off_c, 0, 72, 127
2, 152367, Note_on_c, 7, 67, 127
2, 152367, Note_on_c, 12, 71, 127
2, 152739, Note_off_c, 12, 71, 127
2, 152739, Note_off_c, 7, 67, 127
2, 152742, Note_on_c, 3, 63, 127
2, 152742, Note_on_c, 0, 72, 127
2, 152742, Note_on_c, 0, 60, 127
2, 153114, Note_off_c, 0, 60, 127
2, 153114, Note_off_c, 0, 72, 127
2, 153114, Note_off_c, 3, 63, 127
2, 153117, Note_on_c, 12, 59, 127
2, 153117, Note_on_c, 2, 74, 127
2, 153117, Note_on_c, 5, 65, 127
2, 153489, Note_off_c, 5, 65, 127
2, 153489, Note_off_c, 2, 74, 127
2, 153489, Note_off_c, 12, 59, 127
2, 153492, Note_on_c, 0, 60, 127
2, 153492, Note_on_c, 7, 67, 127
2, 153492, Note_on_c, 3, 63, 127
2, 153677, Note_off_c, 3, 63, 127
2, 153679, Note_on_c, 2, 62, 127
2, 153862, Note_off_c, 7, 67, 127
2, 153864, Note_off_c, 2, 62, 127
2, 153864, Note_off_c, 0, 60, 127
2, 153866, Note_on_c, 7, 55, 127
2, 153866, Note_on_c, 0, 48, 127
2, 153866, Note_on_c, 0, 72, 127
2, 153866, Note_on_c, 4, 64, 127
2, 154238, Note_off_c, 4, 64, 127
2, 154238, Note_off_c, 0, 72, 127
2, 154241, Note_on_c, 5, 65, 127
2, 154241, Note_on_c, 11, 70, 127
2, 154426, Note_off_c, 11, 70, 127
2, 154429, Note_on_c, 8, 68, 127
2, 154611, Note_off_c, 5, 65, 127
2, 154614, Note_off_c, 8, 68, 127
2, 154616, Note_on_c, 11, 70, 127
2, 154616, Note_on_c, 7, 67, 127
2, 154988, Note_off_c, 7, 67, 127
2, 154988, Note_off_c, 11, 70, 127
2, 154988, Note_off_c, 7, 55, 127
2, 154992, Note_on_c, 0, 72, 127
2, 154992, Note_on_c, 5, 65, 127
2, 155177, Note_off_c, 5, 65, 127
2, 155179, Note_on_c, 4, 64, 127
2, 155362, Note_off_c, 0, 72, 127
2, 155363, Note_off_c, 0, 48, 127
2, 155364, Note_off_c, 4, 64, 127
2, 155366, Note_on_c, 5, 65, 127
2, 155366, Note_on_c, 8, 68, 127
2, 155738, Note_off_c, 8, 68, 127
2, 155738, Note_off_c, 5, 65, 127
2, 155741, Note_on_c, 1, 61, 127
2, 155741, Note_on_c, 7, 67, 127
2, 155741, Note_on_c, 11, 70, 127
2, 156113, Note_off_c, 11, 70, 127
2, 156113, Note_off_c, 7, 67, 127
2, 156113, Note_off_c, 1, 61, 127
2, 156116, Note_on_c, 7, 55, 127
2, 156116, Note_on_c, 0, 72, 127
2, 156116, Note_on_c, 4, 64, 127
2, 156488, Note_off_c, 4, 64, 127
2, 156488, Note_off_c, 7, 55, 127
2, 156491, Note_on_c, 8, 56, 127
2, 156491, Note_on_c, 5, 65, 127
2, 156857, Note_off_c, 0, 72, 127
2, 156863, Note_off_c, 5, 65, 127
2, 156863, Note_off_c, 8, 56, 127
2, 156866, Note_on_c, 4, 52, 127
2, 156866, Note_on_c, 0, 48, 127
2, 156866, Note_on_c, 7, 67, 127
2, 156866, Note_on_c, 11, 70, 127
2, 157238, Note_off_c, 11, 70, 127
2, 157238, Note_off_c, 7, 67, 127
2, 157238, Note_off_c, 4, 52, 127
2, 157240, Note_on_c, 0, 60, 127
2, 157240, Note_on_c, 5, 65, 127
2, 157240, Note_on_c, 8, 68, 127
2, 157425, Note_off_c, 8, 68, 127
2, 157425, Note_off_c, 5, 65, 127
2, 157428, Note_on_c, 7, 67, 127
2, 157428, Note_on_c, 4, 64, 127
2, 157612, Note_off_c, 0, 60, 127
2, 157613, Note_off_c, 4, 64, 127
2, 157613, Note_off_c, 7, 67, 127
2, 157615, Note_on_c, 8, 56, 127
2, 157615, Note_on_c, 5, 65, 127
2, 157615, Note_on_c, 8, 68, 127
2, 157994, Note_off_c, 8, 68, 127
2, 157994, Note_off_c, 5, 65, 127
2, 157994, Note_off_c, 8, 56, 127
2, 157998, Note_on_c, 11, 58, 127
2, 157998, Note_on_c, 7, 67, 127
2, 157998, Note_on_c, 4, 64, 127
2, 158187, Note_off_c, 4, 64, 127
2, 158189, Note_on_c, 2, 62, 127
2, 158377, Note_off_c, 11, 58, 127
2, 158378, Note_off_c, 2, 62, 127
2, 158378, Note_off_c, 0, 48, 127
2, 158380, Note_on_c, 0, 60, 127
2, 158380, Note_on_c, 4, 64, 127
2, 158765, Note_off_c, 7, 67, 127
2, 158771, Note_off_c, 4, 64, 127
2, 158771, Note_off_c, 0, 60, 127
2, 158774, Note_on_c, 0, 48, 127
2, 158774, Note_on_c, 5, 53, 127
2, 158774, Note_on_c, 10, 69, 127
2, 158774, Note_on_c, 3, 63, 127
2, 158968, Note_off_c, 10, 69, 127
2, 158970, Note_on_c, 11, 70, 127
2, 159066, Note_off_c, 11, 70, 127
2, 159069, Note_on_c, 0, 72, 127
2, 159163, Note_off_c, 3, 63, 127
2, 159165, Note_off_c, 0, 72, 127
2, 159165, Note_off_c, 5, 53, 127
2, 159165, Note_off_c, 0, 48, 127
2, 159167, Note_on_c, 1, 49, 127
2, 159167, Note_on_c, 11, 58, 127
2, 159167, Note_on_c, 5, 65, 127
2, 159167, Note_on_c, 1, 61, 127
2, 159560, Note_off_c, 1, 61, 127
2, 159560, Note_off_c, 5, 65, 127
2, 159560, Note_off_c, 11, 58, 127
2, 159560, Note_off_c, 1, 49, 127
2, 159564, Note_on_c, 8, 56, 127
2, 159564, Note_on_c, 0, 48, 127
2, 159564, Note_on_c, 3, 63, 127
2, 159564, Note_on_c, 0, 72, 127
2, 159758, Note_off_c, 8, 56, 127
2, 159761, Note_on_c, 7, 55, 127
2, 159953, Note_off_c, 0, 48, 127
2, 159955, Note_off_c, 7, 55, 127
2, 159955, Note_off_c, 0, 72, 127
2, 159955, Note_off_c, 3, 63, 127
2, 159957, Note_on_c, 8, 56, 127
2, 159957, Note_on_c, 12, 47, 127
2, 159957, Note_on_c, 5, 65, 127
2, 159957, Note_on_c, 2, 74, 127
2, 160350, Note_off_c, 2, 74, 127
2, 160350, Note_off_c, 5, 65, 127
2, 160350, Note_off_c, 12, 47, 127
2, 160350, Note_off_c, 8, 56, 127
2, 160353, Note_on_c, 7, 55, 127
2, 160353, Note_on_c, 5, 53, 127
2, 160353, Note_on_c, 3, 63, 127
2, 160353, Note_on_c, 0, 72, 127
2, 160547, Note_off_c, 0, 72, 127
2, 160547, Note_off_c, 3, 63, 127
2, 160550, Note_on_c, 12, 71, 127
2, 160550, Note_on_c, 2, 62, 127
2, 160744, Note_off_c, 2, 62, 127
2, 160744, Note_off_c, 12, 71, 127
2, 160744, Note_off_c, 5, 53, 127
2, 160744, Note_off_c, 7, 55, 127
2, 160747, Note_on_c, 3, 51, 127
2, 160747, Note_on_c, 7, 55, 127
2, 160747, Note_on_c, 3, 63, 127
2, 160747, Note_on_c, 0, 72, 127
2, 160941, Note_off_c, 3, 51, 127
2, 160943, Note_on_c, 2, 50, 127
2, 161136, Note_off_c, 7, 55, 127
2, 161137, Note_off_c, 2, 50, 127
2, 161138, Note_off_c, 3, 63, 127
2, 161140, Note_on_c, 0, 48, 127
2, 161140, Note_on_c, 7, 67, 127
2, 161140, Note_on_c, 3, 63, 127
2, 161334, Note_off_c, 0, 48, 127
2, 161337, Note_on_c, 2, 50, 127
2, 161433, Note_off_c, 2, 50, 127
2, 161435, Note_on_c, 3, 51, 127
2, 161526, Note_off_c, 0, 72, 127
2, 161531, Note_off_c, 3, 51, 127
2, 161545, Note_on_c, 6, 42, 127
2, 161736, Note_off_c, 3, 63, 127
2, 161736, Note_off_c, 7, 67, 127
2, 161754, Note_on_c, 2, 74, 127
2, 161955, Note_off_c, 2, 74, 127
2, 161959, Note_on_c, 3, 75, 127
2, 162160, Note_off_c, 3, 75, 127
2, 162164, Note_on_c, 12, 71, 127
2, 162365, Note_off_c, 12, 71, 127
2, 162367, Note_on_c, 0, 72, 127
2, 162572, Note_on_c, 10, 69, 127
2, 162776, Note_on_c, 6, 66, 127
2, 162981, Note_on_c, 2, 62, 127
2, 163178, Note_off_c, 6, 42, 127
2, 163182, Note_off_c, 2, 62, 127
2, 163186, Note_on_c, 3, 63, 127
2, 163390, Note_on_c, 12, 59, 127
2, 163591, Note_off_c, 12, 59, 127
2, 163595, Note_on_c, 0, 60, 127
2, 163796, Note_off_c, 0, 60, 127
2, 163799, Note_on_c, 6, 54, 127
2, 164000, Note_off_c, 6, 54, 127
2, 164003, Note_on_c, 7, 55, 127
2, 164045, Note_off_c, 3, 63, 127
2, 164064, Note_off_c, 6, 66, 127
2, 164074, Note_off_c, 10, 69, 127
2, 164083, Note_off_c, 0, 72, 127
2, 164982, Note_on_c, 5, 65, 127
2, 164982, Note_on_c, 7, 67, 127
2, 164982, Note_on_c, 2, 62, 127
2, 164982, Note_on_c, 12, 71, 127
2, 164982, Note_on_c, 7, 43, 127
2, 165958, Note_off_c, 12, 71, 127
2, 165958, Note_off_c, 2, 62, 127
2, 165958, Note_off_c, 7, 67, 127
2, 165958, Note_off_c, 5, 65, 127
2, 165958, Note_off_c, 7, 55, 127
2, 165961, Note_on_c, 0, 72, 127
2, 165961, Note_on_c, 0, 60, 127
2, 165961, Note_on_c, 7, 67, 127
2, 165961, Note_on_c, 3, 63, 127
2, 165961, Note_on_c, 0, 48, 127
2, 165961, Note_on_c, 0, 36, 127
2, 169700, Note_off_c, 0, 36, 127
2, 169700, Note_off_c, 0, 48, 127
2, 169700, Note_off_c, 3, 63, 127
2, 169700, Note_off_c, 7, 67, 127
2, 169700, Note_off_c, 0, 60, 127
2, 169700, Note_off_c, 0, 72, 127
2, 169700, Note_off_c, 7, 43, 127
2, 175104, End_track
3, 0, Start_track
3, 0, Title_t, "MIDI"
3, 1536, End_track
0, 0, End_of_file
