0, 0, Header, 0, 1, 384
1, 0, Start_track
1, 0, Copyright_t, "(C) John Sankey 1998"
1, 0, Program_c, 0, 6
1, 0, Pitch_bend_c, 0, 8192
1, 0, Program_c, 1, 6
1, 0, Pitch_bend_c, 1, 7792
1, 0, Program_c, 2, 6
1, 0, Pitch_bend_c, 2, 7876
1, 0, Program_c, 3, 6
1, 0, Pitch_bend_c, 3, 7952
1, 0, Program_c, 4, 6
1, 0, Pitch_bend_c, 4, 7792
1, 0, Program_c, 5, 6
1, 0, Pitch_bend_c, 5, 8112
1, 0, Program_c, 6, 6
1, 0, Pitch_bend_c, 6, 7712
1, 0, Program_c, 7, 6
1, 0, Pitch_bend_c, 7, 8037
1, 0, Program_c, 8, 6
1, 0, Pitch_bend_c, 8, 7872
1, 0, Program_c, 10, 6
1, 0, Pitch_bend_c, 10, 7712
1, 0, Program_c, 11, 6
1, 0, Pitch_bend_c, 11, 8032
1, 0, Program_c, 12, 6
1, 0, Pitch_bend_c, 12, 7872
1, 0, Tempo, 500000
1, 68, Note_on_c, 10, 69, 127
1, 292, Note_off_c, 10, 69, 127
1, 294, Note_on_c, 12, 71, 127
1, 518, Note_off_c, 12, 71, 127
1, 520, Note_on_c, 0, 72, 127
1, 744, Note_off_c, 0, 72, 127
1, 746, Note_on_c, 4, 76, 127
1, 970, Note_off_c, 4, 76, 127
1, 972, Note_on_c, 2, 74, 127
1, 1196, Note_off_c, 2, 74, 127
1, 1198, Note_on_c, 12, 71, 127
1, 1422, Note_off_c, 12, 71, 127
1, 1424, Note_on_c, 0, 72, 127
1, 1873, Note_off_c, 0, 72, 127
1, 1875, Note_on_c, 10, 57, 127
1, 1875, Note_on_c, 4, 76, 127
1, 1875, Note_on_c, 0, 72, 127
1, 1875, Note_on_c, 10, 69, 127
1, 2099, Note_off_c, 10, 57, 127
1, 2101, Note_on_c, 12, 59, 127
1, 2325, Note_off_c, 12, 59, 127
1, 2325, Note_off_c, 10, 69, 127
1, 2325, Note_off_c, 0, 72, 127
1, 2325, Note_off_c, 4, 76, 127
1, 2327, Note_on_c, 0, 60, 127
1, 2327, Note_on_c, 10, 81, 127
1, 2327, Note_on_c, 4, 76, 127
1, 2327, Note_on_c, 10, 69, 127
1, 2551, Note_off_c, 0, 60, 127
1, 2553, Note_on_c, 4, 64, 127
1, 2777, Note_off_c, 4, 64, 127
1, 2777, Note_off_c, 10, 69, 127
1, 2777, Note_off_c, 4, 76, 127
1, 2777, Note_off_c, 10, 81, 127
1, 2779, Note_on_c, 2, 62, 127
1, 2779, Note_on_c, 4, 76, 127
1, 2779, Note_on_c, 12, 71, 127
1, 2779, Note_on_c, 8, 80, 127
1, 3003, Note_off_c, 2, 62, 127
1, 3005, Note_on_c, 12, 59, 127
1, 3229, Note_off_c, 12, 59, 127
1, 3229, Note_off_c, 8, 80, 127
1, 3229, Note_off_c, 12, 71, 127
1, 3229, Note_off_c, 4, 76, 127
1, 3231, Note_on_c, 0, 60, 127
1, 3231, Note_on_c, 4, 76, 127
1, 3231, Note_on_c, 10, 69, 127
1, 3231, Note_on_c, 10, 81, 127
1, 3680, Note_off_c, 10, 81, 127
1, 3680, Note_off_c, 10, 69, 127
1, 3680, Note_off_c, 4, 76, 127
1, 3680, Note_off_c, 0, 60, 127
1, 3682, Note_on_c, 0, 60, 127
1, 3682, Note_on_c, 10, 57, 127
1, 3682, Note_on_c, 4, 76, 127
1, 3830, Note_off_c, 4, 76, 127
1, 3832, Note_on_c, 5, 77, 127
1, 3980, Note_off_c, 5, 77, 127
1, 3982, Note_on_c, 7, 79, 127
1, 4130, Note_off_c, 7, 79, 127
1, 4130, Note_off_c, 10, 57, 127
1, 4130, Note_off_c, 0, 60, 127
1, 4132, Note_on_c, 12, 59, 127
1, 4132, Note_on_c, 2, 62, 127
1, 4132, Note_on_c, 7, 79, 127
1, 4280, Note_off_c, 7, 79, 127
1, 4282, Note_on_c, 10, 81, 127
1, 4430, Note_off_c, 10, 81, 127
1, 4432, Note_on_c, 11, 82, 127
1, 4580, Note_off_c, 11, 82, 127
1, 4580, Note_off_c, 2, 62, 127
1, 4580, Note_off_c, 12, 59, 127
1, 4582, Note_on_c, 1, 61, 127
1, 4582, Note_on_c, 4, 64, 127
1, 4582, Note_on_c, 11, 82, 127
1, 4730, Note_off_c, 11, 82, 127
1, 4732, Note_on_c, 10, 81, 127
1, 4880, Note_off_c, 10, 81, 127
1, 4882, Note_on_c, 7, 79, 127
1, 5030, Note_off_c, 7, 79, 127
1, 5030, Note_off_c, 4, 64, 127
1, 5030, Note_off_c, 1, 61, 127
1, 5032, Note_on_c, 2, 62, 127
1, 5032, Note_on_c, 5, 65, 127
1, 5032, Note_on_c, 5, 77, 127
1, 5180, Note_off_c, 5, 77, 127
1, 5182, Note_on_c, 4, 76, 127
1, 5330, Note_off_c, 4, 76, 127
1, 5332, Note_on_c, 2, 74, 127
1, 5480, Note_off_c, 2, 74, 127
1, 5480, Note_off_c, 5, 65, 127
1, 5480, Note_off_c, 2, 62, 127
1, 5482, Note_on_c, 0, 60, 127
1, 5482, Note_on_c, 10, 69, 127
1, 5482, Note_on_c, 2, 74, 127
1, 5630, Note_off_c, 2, 74, 127
1, 5632, Note_on_c, 4, 76, 127
1, 5780, Note_off_c, 4, 76, 127
1, 5782, Note_on_c, 5, 77, 127
1, 5930, Note_off_c, 5, 77, 127
1, 5930, Note_off_c, 10, 69, 127
1, 5930, Note_off_c, 0, 60, 127
1, 5932, Note_on_c, 12, 59, 127
1, 5932, Note_on_c, 2, 62, 127
1, 5932, Note_on_c, 5, 77, 127
1, 6080, Note_off_c, 5, 77, 127
1, 6082, Note_on_c, 7, 79, 127
1, 6230, Note_off_c, 7, 79, 127
1, 6232, Note_on_c, 10, 81, 127
1, 6380, Note_off_c, 10, 81, 127
1, 6380, Note_off_c, 2, 62, 127
1, 6380, Note_off_c, 12, 59, 127
1, 6382, Note_on_c, 12, 59, 127
1, 6382, Note_on_c, 7, 55, 127
1, 6382, Note_on_c, 10, 81, 127
1, 6530, Note_off_c, 10, 81, 127
1, 6532, Note_on_c, 7, 79, 127
1, 6680, Note_off_c, 7, 79, 127
1, 6682, Note_on_c, 5, 77, 127
1, 6830, Note_off_c, 5, 77, 127
1, 6830, Note_off_c, 7, 55, 127
1, 6830, Note_off_c, 12, 59, 127
1, 6832, Note_on_c, 0, 60, 127
1, 6832, Note_on_c, 4, 76, 127
1, 6980, Note_off_c, 4, 76, 127
1, 6982, Note_on_c, 2, 74, 127
1, 7130, Note_off_c, 2, 74, 127
1, 7132, Note_on_c, 0, 72, 127
1, 7280, Note_off_c, 0, 72, 127
1, 7280, Note_off_c, 0, 60, 127
1, 7282, Note_on_c, 5, 53, 127
1, 7282, Note_on_c, 10, 57, 127
1, 7282, Note_on_c, 0, 60, 127
1, 7282, Note_on_c, 10, 81, 127
1, 7430, Note_off_c, 10, 81, 127
1, 7432, Note_on_c, 7, 79, 127
1, 7580, Note_off_c, 7, 79, 127
1, 7582, Note_on_c, 10, 81, 127
1, 7730, Note_off_c, 10, 81, 127
1, 7730, Note_off_c, 0, 60, 127
1, 7730, Note_off_c, 10, 57, 127
1, 7732, Note_on_c, 7, 55, 127
1, 7732, Note_on_c, 2, 62, 127
1, 7732, Note_on_c, 12, 71, 127
1, 7880, Note_off_c, 12, 71, 127
1, 7882, Note_on_c, 0, 72, 127
1, 8030, Note_off_c, 0, 72, 127
1, 8032, Note_on_c, 2, 74, 127
1, 8173, Note_off_c, 5, 53, 127
1, 8180, Note_off_c, 2, 74, 127
1, 8180, Note_off_c, 2, 62, 127
1, 8180, Note_off_c, 7, 55, 127
1, 8182, Note_on_c, 4, 52, 127
1, 8182, Note_on_c, 0, 60, 127
1, 8182, Note_on_c, 7, 55, 127
1, 8182, Note_on_c, 7, 79, 127
1, 8330, Note_off_c, 7, 79, 127
1, 8332, Note_on_c, 5, 77, 127
1, 8480, Note_off_c, 5, 77, 127
1, 8482, Note_on_c, 7, 79, 127
1, 8630, Note_off_c, 7, 79, 127
1, 8630, Note_off_c, 7, 55, 127
1, 8632, Note_on_c, 5, 53, 127
1, 8632, Note_on_c, 10, 69, 127
1, 8780, Note_off_c, 10, 69, 127
1, 8782, Note_on_c, 12, 71, 127
1, 8930, Note_off_c, 12, 71, 127
1, 8932, Note_on_c, 0, 72, 127
1, 9073, Note_off_c, 0, 60, 127
1, 9073, Note_off_c, 4, 52, 127
1, 9080, Note_off_c, 0, 72, 127
1, 9080, Note_off_c, 5, 53, 127
1, 9082, Note_on_c, 5, 53, 127
1, 9082, Note_on_c, 2, 50, 127
1, 9082, Note_on_c, 12, 59, 127
1, 9082, Note_on_c, 5, 77, 127
1, 9230, Note_off_c, 5, 77, 127
1, 9232, Note_on_c, 4, 76, 127
1, 9380, Note_off_c, 4, 76, 127
1, 9382, Note_on_c, 5, 77, 127
1, 9530, Note_off_c, 5, 77, 127
1, 9530, Note_off_c, 5, 53, 127
1, 9532, Note_on_c, 4, 52, 127
1, 9532, Note_on_c, 8, 68, 127
1, 9680, Note_off_c, 8, 68, 127
1, 9682, Note_on_c, 10, 69, 127
1, 9830, Note_off_c, 10, 69, 127
1, 9832, Note_on_c, 12, 71, 127
1, 9973, Note_off_c, 12, 59, 127
1, 9973, Note_off_c, 2, 50, 127
1, 9980, Note_off_c, 12, 71, 127
1, 9980, Note_off_c, 4, 52, 127
1, 9982, Note_on_c, 0, 48, 127
1, 9982, Note_on_c, 10, 57, 127
1, 9982, Note_on_c, 4, 52, 127
1, 9982, Note_on_c, 4, 76, 127
1, 10130, Note_off_c, 4, 76, 127
1, 10132, Note_on_c, 2, 74, 127
1, 10280, Note_off_c, 2, 74, 127
1, 10282, Note_on_c, 4, 76, 127
1, 10430, Note_off_c, 4, 76, 127
1, 10430, Note_off_c, 4, 52, 127
1, 10432, Note_on_c, 2, 50, 127
1, 10432, Note_on_c, 6, 66, 127
1, 10583, Note_on_c, 4, 76, 127
1, 10731, Note_off_c, 4, 76, 127
1, 10733, Note_on_c, 2, 74, 127
1, 10874, Note_off_c, 10, 57, 127
1, 10874, Note_off_c, 0, 48, 127
1, 10879, Note_off_c, 6, 66, 127
1, 10881, Note_off_c, 2, 74, 127
1, 10881, Note_off_c, 2, 50, 127
1, 10883, Note_on_c, 2, 50, 127
1, 10883, Note_on_c, 12, 47, 127
1, 10883, Note_on_c, 12, 59, 127
1, 10883, Note_on_c, 8, 68, 127
1, 11034, Note_on_c, 4, 76, 127
1, 11182, Note_off_c, 4, 76, 127
1, 11184, Note_on_c, 2, 74, 127
1, 11330, Note_off_c, 8, 68, 127
1, 11332, Note_off_c, 2, 74, 127
1, 11332, Note_off_c, 12, 59, 127
1, 11332, Note_off_c, 12, 47, 127
1, 11332, Note_off_c, 2, 50, 127
1, 11334, Note_on_c, 0, 48, 127
1, 11334, Note_on_c, 4, 52, 127
1, 11334, Note_on_c, 10, 57, 127
1, 11334, Note_on_c, 10, 69, 127
1, 11485, Note_on_c, 4, 76, 127
1, 11633, Note_off_c, 4, 76, 127
1, 11635, Note_on_c, 2, 74, 127
1, 11781, Note_off_c, 10, 69, 127
1, 11783, Note_off_c, 2, 74, 127
1, 11783, Note_off_c, 10, 57, 127
1, 11783, Note_off_c, 4, 52, 127
1, 11783, Note_off_c, 0, 48, 127
1, 11785, Note_on_c, 12, 47, 127
1, 11785, Note_on_c, 8, 44, 127
1, 11785, Note_on_c, 4, 52, 127
1, 11785, Note_on_c, 12, 71, 127
1, 11936, Note_on_c, 4, 76, 127
1, 12068, Note_off_c, 12, 71, 127
1, 12084, Note_off_c, 4, 76, 127
1, 12086, Note_on_c, 2, 74, 127
1, 12234, Note_off_c, 2, 74, 127
1, 12234, Note_off_c, 4, 52, 127
1, 12234, Note_off_c, 8, 44, 127
1, 12234, Note_off_c, 12, 47, 127
1, 12236, Note_on_c, 10, 45, 127
1, 12236, Note_on_c, 4, 52, 127
1, 12236, Note_on_c, 0, 72, 127
1, 12384, Note_off_c, 0, 72, 127
1, 12386, Note_on_c, 12, 71, 127
1, 12534, Note_off_c, 12, 71, 127
1, 12536, Note_on_c, 10, 69, 127
1, 12684, Note_off_c, 10, 69, 127
1, 12684, Note_off_c, 4, 52, 127
1, 12684, Note_off_c, 10, 45, 127
1, 12686, Note_on_c, 12, 47, 127
1, 12686, Note_on_c, 7, 55, 127
1, 12686, Note_on_c, 7, 43, 127
1, 12686, Note_on_c, 5, 77, 127
1, 12834, Note_off_c, 5, 77, 127
1, 12836, Note_on_c, 7, 79, 127
1, 12984, Note_off_c, 7, 79, 127
1, 12986, Note_on_c, 4, 76, 127
1, 13134, Note_off_c, 4, 76, 127
1, 13134, Note_off_c, 7, 43, 127
1, 13134, Note_off_c, 7, 55, 127
1, 13134, Note_off_c, 12, 47, 127
1, 13136, Note_on_c, 5, 41, 127
1, 13136, Note_on_c, 4, 76, 127
1, 13136, Note_on_c, 10, 69, 127
1, 13360, Note_off_c, 4, 76, 127
1, 13362, Note_on_c, 2, 74, 127
1, 13418, Note_on_c, 4, 76, 127
1, 13423, Note_off_c, 2, 74, 127
1, 13475, Note_on_c, 2, 74, 127
1, 13480, Note_off_c, 4, 76, 127
1, 13532, Note_on_c, 4, 76, 127
1, 13537, Note_off_c, 2, 74, 127
1, 13589, Note_on_c, 5, 53, 127
1, 13589, Note_on_c, 2, 74, 127
1, 13594, Note_off_c, 4, 76, 127
1, 13813, Note_off_c, 2, 74, 127
1, 13815, Note_on_c, 4, 76, 127
1, 14031, Note_off_c, 10, 69, 127
1, 14031, Note_off_c, 5, 41, 127
1, 14038, Note_off_c, 4, 76, 127
1, 14038, Note_off_c, 5, 53, 127
1, 14040, Note_on_c, 4, 40, 127
1, 14040, Note_on_c, 12, 47, 127
1, 14040, Note_on_c, 4, 76, 127
1, 14040, Note_on_c, 8, 68, 127
1, 14487, Note_off_c, 12, 47, 127
1, 14489, Note_off_c, 8, 68, 127
1, 14507, Note_on_c, 4, 64, 127
1, 14520, Note_off_c, 4, 76, 127
1, 14698, Note_off_c, 4, 40, 127
1, 14730, Note_off_c, 4, 64, 127
1, 14732, Note_on_c, 6, 66, 127
1, 14956, Note_off_c, 6, 66, 127
1, 14958, Note_on_c, 7, 67, 127
1, 15182, Note_off_c, 7, 67, 127
1, 15184, Note_on_c, 12, 71, 127
1, 15408, Note_off_c, 12, 71, 127
1, 15410, Note_on_c, 10, 69, 127
1, 15634, Note_off_c, 10, 69, 127
1, 15636, Note_on_c, 6, 66, 127
1, 15860, Note_off_c, 6, 66, 127
1, 15862, Note_on_c, 7, 67, 127
1, 16311, Note_off_c, 7, 67, 127
1, 16313, Note_on_c, 7, 67, 127
1, 16313, Note_on_c, 4, 64, 127
1, 16313, Note_on_c, 12, 71, 127
1, 16313, Note_on_c, 4, 52, 127
1, 16537, Note_off_c, 4, 52, 127
1, 16539, Note_on_c, 6, 54, 127
1, 16763, Note_off_c, 6, 54, 127
1, 16763, Note_off_c, 12, 71, 127
1, 16763, Note_off_c, 4, 64, 127
1, 16763, Note_off_c, 7, 67, 127
1, 16765, Note_on_c, 4, 64, 127
1, 16765, Note_on_c, 12, 71, 127
1, 16765, Note_on_c, 4, 76, 127
1, 16765, Note_on_c, 7, 55, 127
1, 16989, Note_off_c, 7, 55, 127
1, 16991, Note_on_c, 12, 59, 127
1, 17215, Note_off_c, 12, 59, 127
1, 17215, Note_off_c, 4, 76, 127
1, 17215, Note_off_c, 12, 71, 127
1, 17215, Note_off_c, 4, 64, 127
1, 17217, Note_on_c, 3, 75, 127
1, 17217, Note_on_c, 6, 66, 127
1, 17217, Note_on_c, 12, 71, 127
1, 17217, Note_on_c, 10, 57, 127
1, 17441, Note_off_c, 10, 57, 127
1, 17443, Note_on_c, 6, 54, 127
1, 17667, Note_off_c, 6, 54, 127
1, 17667, Note_off_c, 12, 71, 127
1, 17667, Note_off_c, 6, 66, 127
1, 17667, Note_off_c, 3, 75, 127
1, 17669, Note_on_c, 12, 71, 127
1, 17669, Note_on_c, 4, 76, 127
1, 17669, Note_on_c, 4, 64, 127
1, 17669, Note_on_c, 7, 55, 127
1, 17817, Note_off_c, 7, 55, 127
1, 17819, Note_on_c, 6, 54, 127
1, 17967, Note_off_c, 6, 54, 127
1, 17969, Note_on_c, 4, 52, 127
1, 18117, Note_off_c, 4, 52, 127
1, 18117, Note_off_c, 4, 64, 127
1, 18117, Note_off_c, 4, 76, 127
1, 18117, Note_off_c, 12, 71, 127
1, 18119, Note_on_c, 7, 79, 127
1, 18119, Note_on_c, 2, 74, 127
1, 18119, Note_on_c, 12, 71, 127
1, 18119, Note_on_c, 12, 59, 127
1, 18267, Note_off_c, 12, 59, 127
1, 18269, Note_on_c, 0, 60, 127
1, 18417, Note_off_c, 0, 60, 127
1, 18419, Note_on_c, 2, 62, 127
1, 18567, Note_off_c, 2, 62, 127
1, 18567, Note_off_c, 12, 71, 127
1, 18567, Note_off_c, 2, 74, 127
1, 18567, Note_off_c, 7, 79, 127
1, 18569, Note_on_c, 10, 69, 127
1, 18569, Note_on_c, 2, 74, 127
1, 18569, Note_on_c, 6, 78, 127
1, 18569, Note_on_c, 2, 62, 127
1, 18717, Note_off_c, 2, 62, 127
1, 18719, Note_on_c, 4, 64, 127
1, 18867, Note_off_c, 4, 64, 127
1, 18869, Note_on_c, 5, 65, 127
1, 19017, Note_off_c, 5, 65, 127
1, 19017, Note_off_c, 6, 78, 127
1, 19017, Note_off_c, 2, 74, 127
1, 19017, Note_off_c, 10, 69, 127
1, 19019, Note_on_c, 8, 80, 127
1, 19019, Note_on_c, 12, 71, 127
1, 19019, Note_on_c, 2, 74, 127
1, 19019, Note_on_c, 5, 65, 127
1, 19167, Note_off_c, 5, 65, 127
1, 19169, Note_on_c, 4, 64, 127
1, 19317, Note_off_c, 4, 64, 127
1, 19319, Note_on_c, 2, 62, 127
1, 19467, Note_off_c, 2, 62, 127
1, 19467, Note_off_c, 2, 74, 127
1, 19467, Note_off_c, 12, 71, 127
1, 19467, Note_off_c, 8, 80, 127
1, 19469, Note_on_c, 4, 76, 127
1, 19469, Note_on_c, 10, 81, 127
1, 19469, Note_on_c, 0, 72, 127
1, 19469, Note_on_c, 0, 60, 127
1, 19617, Note_off_c, 0, 60, 127
1, 19619, Note_on_c, 12, 59, 127
1, 19767, Note_off_c, 12, 59, 127
1, 19769, Note_on_c, 10, 57, 127
1, 19917, Note_off_c, 10, 57, 127
1, 19917, Note_off_c, 0, 72, 127
1, 19917, Note_off_c, 10, 81, 127
1, 19917, Note_off_c, 4, 76, 127
1, 19919, Note_on_c, 0, 72, 127
1, 19919, Note_on_c, 4, 76, 127
1, 19919, Note_on_c, 10, 81, 127
1, 19919, Note_on_c, 10, 57, 127
1, 20067, Note_off_c, 10, 57, 127
1, 20069, Note_on_c, 12, 59, 127
1, 20217, Note_off_c, 12, 59, 127
1, 20219, Note_on_c, 0, 60, 127
1, 20367, Note_off_c, 0, 60, 127
1, 20367, Note_off_c, 10, 81, 127
1, 20367, Note_off_c, 4, 76, 127
1, 20367, Note_off_c, 0, 72, 127
1, 20369, Note_on_c, 0, 72, 127
1, 20369, Note_on_c, 4, 76, 127
1, 20369, Note_on_c, 7, 67, 127
1, 20369, Note_on_c, 0, 60, 127
1, 20517, Note_off_c, 0, 60, 127
1, 20519, Note_on_c, 2, 62, 127
1, 20667, Note_off_c, 2, 62, 127
1, 20669, Note_on_c, 4, 64, 127
1, 20817, Note_off_c, 4, 64, 127
1, 20817, Note_off_c, 7, 67, 127
1, 20817, Note_off_c, 4, 76, 127
1, 20817, Note_off_c, 0, 72, 127
1, 20819, Note_on_c, 10, 69, 127
1, 20819, Note_on_c, 0, 72, 127
1, 20819, Note_on_c, 6, 78, 127
1, 20819, Note_on_c, 4, 64, 127
1, 20967, Note_off_c, 4, 64, 127
1, 20969, Note_on_c, 2, 62, 127
1, 21117, Note_off_c, 2, 62, 127
1, 21119, Note_on_c, 0, 60, 127
1, 21267, Note_off_c, 0, 60, 127
1, 21267, Note_off_c, 6, 78, 127
1, 21267, Note_off_c, 0, 72, 127
1, 21267, Note_off_c, 10, 69, 127
1, 21269, Note_on_c, 12, 71, 127
1, 21269, Note_on_c, 7, 79, 127
1, 21269, Note_on_c, 2, 74, 127
1, 21269, Note_on_c, 12, 59, 127
1, 21417, Note_off_c, 12, 59, 127
1, 21420, Note_on_c, 10, 57, 127
1, 21568, Note_off_c, 10, 57, 127
1, 21571, Note_on_c, 7, 55, 127
1, 21717, Note_off_c, 2, 74, 127
1, 21717, Note_off_c, 12, 71, 127
1, 21719, Note_off_c, 7, 55, 127
1, 21727, Note_on_c, 0, 72, 127
1, 21727, Note_on_c, 4, 64, 127
1, 21756, Note_off_c, 7, 79, 127
1, 21868, Note_on_c, 12, 71, 127
1, 21868, Note_on_c, 2, 62, 127
1, 21875, Note_off_c, 4, 64, 127
1, 21875, Note_off_c, 0, 72, 127
1, 22016, Note_off_c, 2, 62, 127
1, 22016, Note_off_c, 12, 71, 127
1, 22025, Note_on_c, 0, 72, 127
1, 22025, Note_on_c, 4, 64, 127
1, 22173, Note_off_c, 4, 64, 127
1, 22173, Note_off_c, 0, 72, 127
1, 22185, Note_on_c, 10, 81, 127
1, 22185, Note_on_c, 6, 54, 127
1, 22333, Note_off_c, 6, 54, 127
1, 22335, Note_on_c, 7, 55, 127
1, 22483, Note_off_c, 7, 55, 127
1, 22485, Note_on_c, 10, 57, 127
1, 22633, Note_off_c, 10, 57, 127
1, 22635, Note_on_c, 12, 71, 127
1, 22635, Note_on_c, 2, 62, 127
1, 22783, Note_off_c, 2, 62, 127
1, 22783, Note_off_c, 12, 71, 127
1, 22783, Note_off_c, 10, 81, 127
1, 22785, Note_on_c, 10, 69, 127
1, 22785, Note_on_c, 0, 60, 127
1, 22933, Note_off_c, 0, 60, 127
1, 22933, Note_off_c, 10, 69, 127
1, 22935, Note_on_c, 12, 71, 127
1, 22935, Note_on_c, 2, 62, 127
1, 23083, Note_off_c, 2, 62, 127
1, 23083, Note_off_c, 12, 71, 127
1, 23085, Note_on_c, 7, 79, 127
1, 23085, Note_on_c, 4, 52, 127
1, 23233, Note_off_c, 4, 52, 127
1, 23235, Note_on_c, 6, 54, 127
1, 23383, Note_off_c, 6, 54, 127
1, 23385, Note_on_c, 7, 55, 127
1, 23533, Note_off_c, 7, 55, 127
1, 23535, Note_on_c, 10, 69, 127
1, 23535, Note_on_c, 0, 60, 127
1, 23683, Note_off_c, 0, 60, 127
1, 23683, Note_off_c, 10, 69, 127
1, 23683, Note_off_c, 7, 79, 127
1, 23685, Note_on_c, 7, 67, 127
1, 23685, Note_on_c, 12, 59, 127
1, 23833, Note_off_c, 12, 59, 127
1, 23833, Note_off_c, 7, 67, 127
1, 23835, Note_on_c, 10, 69, 127
1, 23835, Note_on_c, 0, 60, 127
1, 23983, Note_off_c, 0, 60, 127
1, 23983, Note_off_c, 10, 69, 127
1, 23985, Note_on_c, 6, 78, 127
1, 23985, Note_on_c, 3, 51, 127
1, 24133, Note_off_c, 3, 51, 127
1, 24135, Note_on_c, 4, 52, 127
1, 24283, Note_off_c, 4, 52, 127
1, 24285, Note_on_c, 6, 54, 127
1, 24433, Note_off_c, 6, 54, 127
1, 24435, Note_on_c, 7, 67, 127
1, 24435, Note_on_c, 12, 59, 127
1, 24583, Note_off_c, 12, 59, 127
1, 24583, Note_off_c, 7, 67, 127
1, 24585, Note_on_c, 6, 66, 127
1, 24585, Note_on_c, 10, 57, 127
1, 24733, Note_off_c, 10, 57, 127
1, 24733, Note_off_c, 6, 66, 127
1, 24735, Note_off_c, 6, 78, 127
1, 24735, Note_on_c, 7, 67, 127
1, 24735, Note_on_c, 12, 59, 127
1, 24883, Note_off_c, 12, 59, 127
1, 24883, Note_off_c, 7, 67, 127
1, 24885, Note_on_c, 4, 76, 127
1, 24885, Note_on_c, 1, 49, 127
1, 25033, Note_off_c, 1, 49, 127
1, 25033, Note_off_c, 4, 76, 127
1, 25035, Note_on_c, 3, 75, 127
1, 25035, Note_on_c, 12, 59, 127
1, 25183, Note_off_c, 12, 59, 127
1, 25183, Note_off_c, 3, 75, 127
1, 25185, Note_on_c, 1, 73, 127
1, 25185, Note_on_c, 10, 57, 127
1, 25333, Note_off_c, 10, 57, 127
1, 25333, Note_off_c, 1, 73, 127
1, 25335, Note_on_c, 6, 78, 127
1, 25335, Note_on_c, 3, 51, 127
1, 25483, Note_off_c, 3, 51, 127
1, 25483, Note_off_c, 6, 78, 127
1, 25485, Note_on_c, 3, 75, 127
1, 25485, Note_on_c, 12, 59, 127
1, 25633, Note_off_c, 12, 59, 127
1, 25633, Note_off_c, 3, 75, 127
1, 25635, Note_on_c, 12, 71, 127
1, 25635, Note_on_c, 10, 57, 127
1, 25783, Note_off_c, 10, 57, 127
1, 25783, Note_off_c, 12, 71, 127
1, 25785, Note_on_c, 7, 79, 127
1, 25785, Note_on_c, 4, 52, 127
1, 25933, Note_off_c, 4, 52, 127
1, 25933, Note_off_c, 7, 79, 127
1, 25935, Note_on_c, 4, 76, 127
1, 25935, Note_on_c, 12, 59, 127
1, 26083, Note_off_c, 12, 59, 127
1, 26083, Note_off_c, 4, 76, 127
1, 26085, Note_on_c, 1, 73, 127
1, 26085, Note_on_c, 10, 57, 127
1, 26233, Note_off_c, 10, 57, 127
1, 26233, Note_off_c, 1, 73, 127
1, 26235, Note_on_c, 10, 81, 127
1, 26235, Note_on_c, 6, 54, 127
1, 26383, Note_off_c, 6, 54, 127
1, 26383, Note_off_c, 10, 81, 127
1, 26385, Note_on_c, 6, 78, 127
1, 26385, Note_on_c, 12, 59, 127
1, 26533, Note_off_c, 12, 59, 127
1, 26533, Note_off_c, 6, 78, 127
1, 26535, Note_on_c, 3, 75, 127
1, 26535, Note_on_c, 10, 57, 127
1, 26683, Note_off_c, 10, 57, 127
1, 26683, Note_off_c, 3, 75, 127
1, 26685, Note_on_c, 12, 83, 127
1, 26685, Note_on_c, 7, 55, 127
1, 26833, Note_off_c, 7, 55, 127
1, 26833, Note_off_c, 12, 83, 127
1, 26835, Note_on_c, 10, 81, 127
1, 26835, Note_on_c, 6, 54, 127
1, 26983, Note_off_c, 6, 54, 127
1, 26983, Note_off_c, 10, 81, 127
1, 26985, Note_on_c, 7, 79, 127
1, 26985, Note_on_c, 4, 52, 127
1, 27133, Note_off_c, 4, 52, 127
1, 27133, Note_off_c, 7, 79, 127
1, 27135, Note_on_c, 10, 81, 127
1, 27135, Note_on_c, 0, 60, 127
1, 27283, Note_off_c, 0, 60, 127
1, 27283, Note_off_c, 10, 81, 127
1, 27285, Note_on_c, 12, 83, 127
1, 27285, Note_on_c, 12, 59, 127
1, 27433, Note_off_c, 12, 59, 127
1, 27433, Note_off_c, 12, 83, 127
1, 27435, Note_on_c, 0, 84, 127
1, 27435, Note_on_c, 10, 57, 127
1, 27583, Note_off_c, 10, 57, 127
1, 27583, Note_off_c, 0, 84, 127
1, 27585, Note_on_c, 3, 75, 127
1, 27585, Note_on_c, 7, 79, 127
1, 27585, Note_on_c, 12, 59, 127
1, 27790, Note_off_c, 7, 79, 127
1, 27792, Note_on_c, 6, 78, 127
1, 27853, Note_off_c, 6, 78, 127
1, 27853, Note_on_c, 7, 79, 127
1, 27914, Note_off_c, 7, 79, 127
1, 27914, Note_on_c, 6, 78, 127
1, 27975, Note_off_c, 6, 78, 127
1, 27975, Note_on_c, 7, 79, 127
1, 28036, Note_off_c, 7, 79, 127
1, 28036, Note_on_c, 6, 78, 127
1, 28036, Note_on_c, 12, 47, 127
1, 28260, Note_off_c, 6, 78, 127
1, 28262, Note_on_c, 4, 76, 127
1, 28478, Note_off_c, 12, 59, 127
1, 28478, Note_off_c, 3, 75, 127
1, 28485, Note_off_c, 4, 76, 127
1, 28485, Note_off_c, 12, 47, 127
1, 28487, Note_on_c, 4, 76, 127
1, 28487, Note_on_c, 4, 52, 127
1, 28635, Note_off_c, 4, 76, 127
1, 28637, Note_on_c, 12, 83, 127
1, 28785, Note_off_c, 12, 83, 127
1, 28787, Note_on_c, 10, 81, 127
1, 28933, Note_off_c, 4, 52, 127
1, 28935, Note_off_c, 10, 81, 127
1, 28937, Note_on_c, 7, 79, 127
1, 29088, Note_on_c, 10, 81, 127
1, 29102, Note_off_c, 7, 79, 127
1, 29236, Note_off_c, 10, 81, 127
1, 29238, Note_on_c, 12, 83, 127
1, 29386, Note_off_c, 12, 83, 127
1, 29388, Note_on_c, 4, 76, 127
1, 29539, Note_on_c, 5, 77, 127
1, 29577, Note_off_c, 4, 76, 127
1, 29688, Note_off_c, 5, 77, 127
1, 29690, Note_on_c, 7, 79, 127
1, 29838, Note_off_c, 7, 79, 127
1, 29840, Note_on_c, 1, 73, 127
1, 29991, Note_on_c, 2, 74, 127
1, 30052, Note_off_c, 1, 73, 127
1, 30139, Note_off_c, 2, 74, 127
1, 30141, Note_on_c, 4, 76, 127
1, 30289, Note_off_c, 4, 76, 127
1, 30291, Note_on_c, 10, 69, 127
1, 30442, Note_on_c, 12, 71, 127
1, 30590, Note_off_c, 12, 71, 127
1, 30592, Note_on_c, 1, 73, 127
1, 30738, Note_off_c, 10, 69, 127
1, 30740, Note_off_c, 1, 73, 127
1, 30742, Note_on_c, 1, 73, 127
1, 30742, Note_on_c, 4, 76, 127
1, 30742, Note_on_c, 10, 69, 127
1, 30742, Note_on_c, 7, 79, 127
1, 30742, Note_on_c, 4, 64, 127
1, 30890, Note_off_c, 4, 64, 127
1, 30892, Note_on_c, 5, 65, 127
1, 31040, Note_off_c, 5, 65, 127
1, 31042, Note_on_c, 7, 67, 127
1, 31190, Note_off_c, 7, 67, 127
1, 31190, Note_off_c, 7, 79, 127
1, 31190, Note_off_c, 10, 69, 127
1, 31190, Note_off_c, 4, 76, 127
1, 31190, Note_off_c, 1, 73, 127
1, 31192, Note_on_c, 7, 79, 127
1, 31192, Note_on_c, 10, 69, 127
1, 31192, Note_on_c, 1, 73, 127
1, 31192, Note_on_c, 4, 76, 127
1, 31192, Note_on_c, 1, 61, 127
1, 31340, Note_off_c, 1, 61, 127
1, 31342, Note_on_c, 2, 62, 127
1, 31490, Note_off_c, 2, 62, 127
1, 31492, Note_on_c, 4, 64, 127
1, 31640, Note_off_c, 4, 64, 127
1, 31640, Note_off_c, 4, 76, 127
1, 31640, Note_off_c, 1, 73, 127
1, 31640, Note_off_c, 10, 69, 127
1, 31640, Note_off_c, 7, 79, 127
1, 31642, Note_on_c, 10, 69, 127
1, 31642, Note_on_c, 7, 79, 127
1, 31642, Note_on_c, 1, 73, 127
1, 31642, Note_on_c, 4, 76, 127
1, 31642, Note_on_c, 10, 57, 127
1, 31790, Note_off_c, 10, 57, 127
1, 31792, Note_on_c, 12, 59, 127
1, 31940, Note_off_c, 12, 59, 127
1, 31942, Note_on_c, 1, 61, 127
1, 32090, Note_off_c, 1, 61, 127
1, 32090, Note_off_c, 4, 76, 127
1, 32090, Note_off_c, 1, 73, 127
1, 32090, Note_off_c, 7, 79, 127
1, 32090, Note_off_c, 10, 69, 127
1, 32092, Note_on_c, 10, 69, 127
1, 32092, Note_on_c, 5, 77, 127
1, 32092, Note_on_c, 2, 74, 127
1, 32092, Note_on_c, 2, 50, 127
1, 32240, Note_off_c, 5, 77, 127
1, 32242, Note_on_c, 10, 81, 127
1, 32374, Note_off_c, 2, 74, 127
1, 32374, Note_off_c, 10, 69, 127
1, 32390, Note_off_c, 10, 81, 127
1, 32392, Note_on_c, 7, 79, 127
1, 32538, Note_off_c, 2, 50, 127
1, 32540, Note_off_c, 7, 79, 127
1, 32542, Note_on_c, 5, 77, 127
1, 32693, Note_on_c, 7, 79, 127
1, 32719, Note_off_c, 5, 77, 127
1, 32841, Note_off_c, 7, 79, 127
1, 32843, Note_on_c, 10, 81, 127
1, 32991, Note_off_c, 10, 81, 127
1, 32993, Note_on_c, 2, 74, 127
1, 33144, Note_on_c, 4, 76, 127
1, 33177, Note_off_c, 2, 74, 127
1, 33292, Note_off_c, 4, 76, 127
1, 33294, Note_on_c, 5, 77, 127
1, 33442, Note_off_c, 5, 77, 127
1, 33444, Note_on_c, 12, 71, 127
1, 33595, Note_on_c, 0, 72, 127
1, 33644, Note_off_c, 12, 71, 127
1, 33743, Note_off_c, 0, 72, 127
1, 33745, Note_on_c, 2, 74, 127
1, 33893, Note_off_c, 2, 74, 127
1, 33895, Note_on_c, 7, 67, 127
1, 34046, Note_on_c, 10, 69, 127
1, 34194, Note_off_c, 10, 69, 127
1, 34196, Note_on_c, 12, 71, 127
1, 34342, Note_off_c, 7, 67, 127
1, 34344, Note_off_c, 12, 71, 127
1, 34346, Note_on_c, 12, 71, 127
1, 34346, Note_on_c, 5, 77, 127
1, 34346, Note_on_c, 7, 67, 127
1, 34346, Note_on_c, 2, 74, 127
1, 34346, Note_on_c, 2, 62, 127
1, 34494, Note_off_c, 2, 62, 127
1, 34496, Note_on_c, 4, 64, 127
1, 34644, Note_off_c, 4, 64, 127
1, 34646, Note_on_c, 5, 65, 127
1, 34794, Note_off_c, 5, 65, 127
1, 34794, Note_off_c, 2, 74, 127
1, 34794, Note_off_c, 7, 67, 127
1, 34794, Note_off_c, 5, 77, 127
1, 34794, Note_off_c, 12, 71, 127
1, 34796, Note_on_c, 2, 74, 127
1, 34796, Note_on_c, 5, 77, 127
1, 34796, Note_on_c, 7, 67, 127
1, 34796, Note_on_c, 12, 71, 127
1, 34796, Note_on_c, 12, 59, 127
1, 34944, Note_off_c, 12, 59, 127
1, 34946, Note_on_c, 0, 60, 127
1, 35094, Note_off_c, 0, 60, 127
1, 35096, Note_on_c, 2, 62, 127
1, 35244, Note_off_c, 2, 62, 127
1, 35244, Note_off_c, 12, 71, 127
1, 35244, Note_off_c, 7, 67, 127
1, 35244, Note_off_c, 5, 77, 127
1, 35244, Note_off_c, 2, 74, 127
1, 35246, Note_on_c, 5, 77, 127
1, 35246, Note_on_c, 7, 67, 127
1, 35246, Note_on_c, 12, 71, 127
1, 35246, Note_on_c, 2, 74, 127
1, 35246, Note_on_c, 7, 55, 127
1, 35394, Note_off_c, 7, 55, 127
1, 35396, Note_on_c, 10, 57, 127
1, 35544, Note_off_c, 10, 57, 127
1, 35546, Note_on_c, 12, 59, 127
1, 35694, Note_off_c, 12, 59, 127
1, 35694, Note_off_c, 2, 74, 127
1, 35694, Note_off_c, 12, 71, 127
1, 35694, Note_off_c, 7, 67, 127
1, 35694, Note_off_c, 5, 77, 127
1, 35696, Note_on_c, 4, 76, 127
1, 35696, Note_on_c, 7, 67, 127
1, 35696, Note_on_c, 0, 72, 127
1, 35696, Note_on_c, 0, 48, 127
1, 35844, Note_off_c, 7, 67, 127
1, 35846, Note_on_c, 7, 67, 127
1, 35994, Note_off_c, 7, 67, 127
1, 35996, Note_on_c, 10, 69, 127
1, 36142, Note_off_c, 0, 72, 127
1, 36142, Note_off_c, 4, 76, 127
1, 36144, Note_off_c, 10, 69, 127
1, 36146, Note_on_c, 12, 71, 127
1, 36294, Note_off_c, 12, 71, 127
1, 36296, Note_on_c, 0, 72, 127
1, 36444, Note_off_c, 0, 72, 127
1, 36446, Note_on_c, 2, 74, 127
1, 36594, Note_off_c, 2, 74, 127
1, 36596, Note_on_c, 4, 76, 127
1, 36744, Note_off_c, 4, 76, 127
1, 36746, Note_on_c, 5, 77, 127
1, 36821, Note_off_c, 0, 48, 127
1, 36894, Note_off_c, 5, 77, 127
1, 36896, Note_on_c, 7, 79, 127
1, 37044, Note_off_c, 7, 79, 127
1, 37046, Note_on_c, 5, 77, 127
1, 37046, Note_on_c, 5, 53, 127
1, 37046, Note_on_c, 12, 59, 127
1, 37046, Note_on_c, 7, 55, 127
1, 37046, Note_on_c, 0, 48, 127
1, 37046, Note_on_c, 2, 50, 127
1, 37194, Note_off_c, 5, 77, 127
1, 37196, Note_on_c, 4, 76, 127
1, 37344, Note_off_c, 4, 76, 127
1, 37346, Note_on_c, 2, 74, 127
1, 37480, Note_off_c, 2, 50, 127
1, 37480, Note_off_c, 0, 48, 127
1, 37480, Note_off_c, 7, 55, 127
1, 37480, Note_off_c, 12, 59, 127
1, 37480, Note_off_c, 5, 53, 127
1, 37494, Note_off_c, 2, 74, 127
1, 37496, Note_on_c, 4, 76, 127
1, 37496, Note_on_c, 0, 60, 127
1, 37496, Note_on_c, 7, 55, 127
1, 37496, Note_on_c, 0, 48, 127
1, 37496, Note_on_c, 4, 52, 127
1, 37644, Note_off_c, 4, 76, 127
1, 37646, Note_on_c, 2, 74, 127
1, 37794, Note_off_c, 2, 74, 127
1, 37796, Note_on_c, 0, 72, 127
1, 37944, Note_off_c, 0, 72, 127
1, 37946, Note_on_c, 2, 74, 127
1, 38094, Note_off_c, 2, 74, 127
1, 38096, Note_on_c, 4, 76, 127
1, 38244, Note_off_c, 4, 76, 127
1, 38246, Note_on_c, 5, 77, 127
1, 38394, Note_off_c, 5, 77, 127
1, 38396, Note_on_c, 4, 76, 127
1, 38544, Note_off_c, 4, 76, 127
1, 38546, Note_on_c, 2, 74, 127
1, 38694, Note_off_c, 2, 74, 127
1, 38696, Note_on_c, 0, 72, 127
1, 38832, Note_off_c, 4, 52, 127
1, 38832, Note_off_c, 0, 48, 127
1, 38832, Note_off_c, 7, 55, 127
1, 38832, Note_off_c, 0, 60, 127
1, 38844, Note_off_c, 0, 72, 127
1, 38846, Note_on_c, 2, 74, 127
1, 38846, Note_on_c, 12, 59, 127
1, 38846, Note_on_c, 0, 48, 127
1, 38846, Note_on_c, 2, 50, 127
1, 38846, Note_on_c, 5, 53, 127
1, 38846, Note_on_c, 7, 55, 127
1, 38994, Note_off_c, 2, 74, 127
1, 38996, Note_on_c, 0, 72, 127
1, 39144, Note_off_c, 0, 72, 127
1, 39146, Note_on_c, 12, 71, 127
1, 39280, Note_off_c, 7, 55, 127
1, 39280, Note_off_c, 5, 53, 127
1, 39280, Note_off_c, 2, 50, 127
1, 39280, Note_off_c, 0, 48, 127
1, 39280, Note_off_c, 12, 59, 127
1, 39294, Note_off_c, 12, 71, 127
1, 39296, Note_on_c, 0, 72, 127
1, 39296, Note_on_c, 0, 48, 127
1, 39296, Note_on_c, 4, 52, 127
1, 39296, Note_on_c, 10, 57, 127
1, 39444, Note_off_c, 0, 72, 127
1, 39446, Note_on_c, 2, 74, 127
1, 39594, Note_off_c, 2, 74, 127
1, 39596, Note_on_c, 4, 76, 127
1, 39744, Note_off_c, 4, 76, 127
1, 39746, Note_on_c, 2, 74, 127
1, 39894, Note_off_c, 2, 74, 127
1, 39896, Note_on_c, 0, 72, 127
1, 40044, Note_off_c, 0, 72, 127
1, 40046, Note_on_c, 12, 71, 127
1, 40194, Note_off_c, 12, 71, 127
1, 40196, Note_on_c, 0, 72, 127
1, 40344, Note_off_c, 0, 72, 127
1, 40346, Note_on_c, 12, 71, 127
1, 40494, Note_off_c, 12, 71, 127
1, 40496, Note_on_c, 10, 69, 127
1, 40632, Note_off_c, 10, 57, 127
1, 40632, Note_off_c, 4, 52, 127
1, 40632, Note_off_c, 0, 48, 127
1, 40644, Note_off_c, 10, 69, 127
1, 40646, Note_on_c, 12, 71, 127
1, 40646, Note_on_c, 2, 50, 127
1, 40646, Note_on_c, 0, 48, 127
1, 40646, Note_on_c, 8, 56, 127
1, 40646, Note_on_c, 5, 53, 127
1, 40794, Note_off_c, 12, 71, 127
1, 40796, Note_on_c, 0, 72, 127
1, 40944, Note_off_c, 0, 72, 127
1, 40946, Note_on_c, 2, 74, 127
1, 41080, Note_off_c, 5, 53, 127
1, 41080, Note_off_c, 8, 56, 127
1, 41080, Note_off_c, 0, 48, 127
1, 41080, Note_off_c, 2, 50, 127
1, 41094, Note_off_c, 2, 74, 127
1, 41096, Note_on_c, 0, 72, 127
1, 41096, Note_on_c, 10, 57, 127
1, 41096, Note_on_c, 4, 52, 127
1, 41096, Note_on_c, 0, 48, 127
1, 41244, Note_off_c, 0, 72, 127
1, 41246, Note_on_c, 12, 71, 127
1, 41394, Note_off_c, 12, 71, 127
1, 41396, Note_on_c, 10, 69, 127
1, 41544, Note_off_c, 10, 69, 127
1, 41546, Note_on_c, 12, 71, 127
1, 41694, Note_off_c, 12, 71, 127
1, 41696, Note_on_c, 10, 69, 127
1, 41844, Note_off_c, 10, 69, 127
1, 41846, Note_on_c, 8, 68, 127
1, 41994, Note_off_c, 8, 68, 127
1, 41996, Note_on_c, 10, 69, 127
1, 42144, Note_off_c, 10, 69, 127
1, 42146, Note_on_c, 8, 68, 127
1, 42294, Note_off_c, 8, 68, 127
1, 42296, Note_on_c, 6, 66, 127
1, 42444, Note_off_c, 6, 66, 127
1, 42444, Note_off_c, 0, 48, 127
1, 42444, Note_off_c, 4, 52, 127
1, 42444, Note_off_c, 10, 57, 127
1, 42446, Note_on_c, 2, 74, 127
1, 42519, Note_off_c, 2, 74, 127
1, 42521, Note_on_c, 0, 72, 127
1, 42594, Note_off_c, 0, 72, 127
1, 42596, Note_on_c, 2, 74, 127
1, 42744, Note_off_c, 2, 74, 127
1, 42746, Note_on_c, 2, 74, 127
1, 42894, Note_off_c, 2, 74, 127
1, 42896, Note_on_c, 4, 64, 127
1, 42896, Note_on_c, 12, 71, 127
1, 42896, Note_on_c, 2, 74, 127
1, 42896, Note_on_c, 8, 68, 127
1, 42896, Note_on_c, 12, 47, 127
1, 43044, Note_off_c, 12, 47, 127
1, 43046, Note_on_c, 0, 48, 127
1, 43194, Note_off_c, 0, 48, 127
1, 43196, Note_on_c, 2, 50, 127
1, 43344, Note_off_c, 2, 50, 127
1, 43346, Note_on_c, 0, 48, 127
1, 43494, Note_off_c, 0, 48, 127
1, 43496, Note_on_c, 12, 47, 127
1, 43644, Note_off_c, 12, 47, 127
1, 43646, Note_on_c, 10, 45, 127
1, 43794, Note_off_c, 10, 45, 127
1, 43796, Note_on_c, 12, 47, 127
1, 43944, Note_off_c, 12, 47, 127
1, 43946, Note_on_c, 10, 45, 127
1, 44094, Note_off_c, 10, 45, 127
1, 44096, Note_on_c, 8, 44, 127
1, 44244, Note_off_c, 8, 44, 127
1, 44244, Note_off_c, 8, 68, 127
1, 44244, Note_off_c, 2, 74, 127
1, 44244, Note_off_c, 12, 71, 127
1, 44244, Note_off_c, 4, 64, 127
1, 44246, Note_on_c, 2, 74, 127
1, 44246, Note_on_c, 10, 69, 127
1, 44246, Note_on_c, 5, 65, 127
1, 44246, Note_on_c, 2, 62, 127
1, 44246, Note_on_c, 10, 45, 127
1, 44394, Note_off_c, 10, 45, 127
1, 44396, Note_on_c, 12, 47, 127
1, 44544, Note_off_c, 12, 47, 127
1, 44544, Note_off_c, 2, 74, 127
1, 44546, Note_on_c, 2, 74, 127
1, 44546, Note_on_c, 0, 48, 127
1, 44692, Note_off_c, 2, 62, 127
1, 44692, Note_off_c, 5, 65, 127
1, 44692, Note_off_c, 10, 69, 127
1, 44694, Note_off_c, 0, 48, 127
1, 44694, Note_off_c, 2, 74, 127
1, 44696, Note_on_c, 12, 71, 127
1, 44696, Note_on_c, 8, 68, 127
1, 44696, Note_on_c, 2, 74, 127
1, 44696, Note_on_c, 4, 64, 127
1, 44696, Note_on_c, 12, 47, 127
1, 44844, Note_off_c, 12, 47, 127
1, 44846, Note_on_c, 10, 45, 127
1, 44994, Note_off_c, 10, 45, 127
1, 44996, Note_on_c, 8, 44, 127
1, 45144, Note_off_c, 8, 44, 127
1, 45146, Note_on_c, 10, 45, 127
1, 45294, Note_off_c, 10, 45, 127
1, 45296, Note_on_c, 8, 44, 127
1, 45444, Note_off_c, 8, 44, 127
1, 45446, Note_on_c, 6, 42, 127
1, 45594, Note_off_c, 6, 42, 127
1, 45596, Note_on_c, 8, 44, 127
1, 45744, Note_off_c, 8, 44, 127
1, 45746, Note_on_c, 10, 45, 127
1, 45894, Note_off_c, 10, 45, 127
1, 45896, Note_on_c, 12, 47, 127
1, 46044, Note_off_c, 12, 47, 127
1, 46044, Note_off_c, 4, 64, 127
1, 46044, Note_off_c, 2, 74, 127
1, 46044, Note_off_c, 8, 68, 127
1, 46044, Note_off_c, 12, 71, 127
1, 46046, Note_on_c, 2, 74, 127
1, 46046, Note_on_c, 5, 65, 127
1, 46046, Note_on_c, 10, 69, 127
1, 46046, Note_on_c, 2, 62, 127
1, 46046, Note_on_c, 10, 45, 127
1, 46194, Note_off_c, 10, 45, 127
1, 46196, Note_on_c, 8, 44, 127
1, 46344, Note_off_c, 8, 44, 127
1, 46344, Note_off_c, 2, 74, 127
1, 46346, Note_on_c, 2, 74, 127
1, 46346, Note_on_c, 6, 42, 127
1, 46492, Note_off_c, 2, 62, 127
1, 46492, Note_off_c, 10, 69, 127
1, 46492, Note_off_c, 5, 65, 127
1, 46494, Note_off_c, 6, 42, 127
1, 46494, Note_off_c, 2, 74, 127
1, 46496, Note_on_c, 4, 64, 127
1, 46496, Note_on_c, 8, 68, 127
1, 46496, Note_on_c, 12, 71, 127
1, 46496, Note_on_c, 2, 74, 127
1, 46496, Note_on_c, 8, 44, 127
1, 46644, Note_off_c, 8, 44, 127
1, 46644, Note_off_c, 2, 74, 127
1, 46644, Note_off_c, 12, 71, 127
1, 46644, Note_off_c, 8, 68, 127
1, 46644, Note_off_c, 4, 64, 127
1, 46646, Note_on_c, 4, 64, 127
1, 46646, Note_on_c, 6, 42, 127
1, 46794, Note_off_c, 6, 42, 127
1, 46794, Note_off_c, 4, 64, 127
1, 46796, Note_on_c, 6, 66, 127
1, 46796, Note_on_c, 4, 40, 127
1, 46944, Note_off_c, 4, 40, 127
1, 46944, Note_off_c, 6, 66, 127
1, 46946, Note_on_c, 8, 68, 127
1, 46946, Note_on_c, 12, 47, 127
1, 47094, Note_off_c, 12, 47, 127
1, 47094, Note_off_c, 8, 68, 127
1, 47096, Note_on_c, 10, 69, 127
1, 47096, Note_on_c, 10, 45, 127
1, 47244, Note_off_c, 10, 45, 127
1, 47244, Note_off_c, 10, 69, 127
1, 47246, Note_on_c, 12, 71, 127
1, 47246, Note_on_c, 8, 44, 127
1, 47394, Note_off_c, 8, 44, 127
1, 47394, Note_off_c, 12, 71, 127
1, 47396, Note_on_c, 12, 71, 127
1, 47396, Note_on_c, 2, 50, 127
1, 47544, Note_off_c, 2, 50, 127
1, 47544, Note_off_c, 12, 71, 127
1, 47546, Note_on_c, 0, 72, 127
1, 47546, Note_on_c, 0, 48, 127
1, 47694, Note_off_c, 0, 48, 127
1, 47694, Note_off_c, 0, 72, 127
1, 47696, Note_on_c, 2, 74, 127
1, 47696, Note_on_c, 12, 47, 127
1, 47844, Note_off_c, 12, 47, 127
1, 47844, Note_off_c, 2, 74, 127
1, 47846, Note_on_c, 2, 74, 127
1, 47846, Note_on_c, 5, 53, 127
1, 47994, Note_off_c, 5, 53, 127
1, 47994, Note_off_c, 2, 74, 127
1, 47996, Note_on_c, 4, 76, 127
1, 47996, Note_on_c, 4, 52, 127
1, 48144, Note_off_c, 4, 52, 127
1, 48144, Note_off_c, 4, 76, 127
1, 48146, Note_on_c, 5, 77, 127
1, 48146, Note_on_c, 2, 50, 127
1, 48294, Note_off_c, 2, 50, 127
1, 48294, Note_off_c, 5, 77, 127
1, 48296, Note_on_c, 5, 77, 127
1, 48296, Note_on_c, 8, 56, 127
1, 48444, Note_off_c, 5, 77, 127
1, 48446, Note_on_c, 4, 76, 127
1, 48594, Note_off_c, 4, 76, 127
1, 48594, Note_off_c, 8, 56, 127
1, 48596, Note_on_c, 2, 74, 127
1, 48596, Note_on_c, 4, 52, 127
1, 48744, Note_off_c, 4, 52, 127
1, 48744, Note_off_c, 2, 74, 127
1, 48746, Note_on_c, 4, 76, 127
1, 48746, Note_on_c, 10, 57, 127
1, 48819, Note_off_c, 4, 76, 127
1, 48821, Note_on_c, 2, 74, 127
1, 48894, Note_off_c, 2, 74, 127
1, 48896, Note_on_c, 4, 76, 127
1, 49044, Note_off_c, 4, 76, 127
1, 49044, Note_off_c, 10, 57, 127
1, 49046, Note_on_c, 5, 77, 127
1, 49046, Note_on_c, 2, 50, 127
1, 49194, Note_off_c, 2, 50, 127
1, 49194, Note_off_c, 5, 77, 127
1, 49196, Note_on_c, 8, 68, 127
1, 49196, Note_on_c, 0, 72, 127
1, 49196, Note_on_c, 4, 52, 127
1, 49420, Note_off_c, 0, 72, 127
1, 49422, Note_on_c, 12, 71, 127
1, 49478, Note_on_c, 0, 72, 127
1, 49483, Note_off_c, 12, 71, 127
1, 49535, Note_on_c, 12, 71, 127
1, 49540, Note_off_c, 0, 72, 127
1, 49592, Note_on_c, 0, 72, 127
1, 49597, Note_off_c, 12, 71, 127
1, 49649, Note_on_c, 12, 71, 127
1, 49649, Note_on_c, 4, 40, 127
1, 49654, Note_off_c, 0, 72, 127
1, 49932, Note_on_c, 10, 69, 127
1, 49937, Note_off_c, 12, 71, 127
1, 50092, Note_off_c, 4, 52, 127
1, 50092, Note_off_c, 8, 68, 127
1, 50097, Note_off_c, 10, 69, 127
1, 50099, Note_off_c, 4, 40, 127
1, 50101, Note_on_c, 10, 69, 127
1, 50101, Note_on_c, 5, 41, 127
1, 50249, Note_off_c, 10, 69, 127
1, 50251, Note_on_c, 12, 71, 127
1, 50399, Note_off_c, 12, 71, 127
1, 50401, Note_on_c, 0, 72, 127
1, 50549, Note_off_c, 0, 72, 127
1, 50551, Note_on_c, 12, 71, 127
1, 50699, Note_off_c, 12, 71, 127
1, 50701, Note_on_c, 10, 69, 127
1, 50849, Note_off_c, 10, 69, 127
1, 50851, Note_on_c, 8, 68, 127
1, 50992, Note_off_c, 5, 41, 127
1, 50999, Note_off_c, 8, 68, 127
1, 51001, Note_on_c, 10, 69, 127
1, 51152, Note_on_c, 7, 67, 127
1, 51300, Note_off_c, 7, 67, 127
1, 51302, Note_on_c, 5, 65, 127
1, 51450, Note_off_c, 5, 65, 127
1, 51452, Note_on_c, 7, 67, 127
1, 51452, Note_on_c, 1, 49, 127
1, 51600, Note_off_c, 7, 67, 127
1, 51602, Note_on_c, 5, 65, 127
1, 51750, Note_off_c, 5, 65, 127
1, 51752, Note_on_c, 4, 64, 127
1, 51900, Note_off_c, 4, 64, 127
1, 51900, Note_off_c, 1, 49, 127
1, 51902, Note_on_c, 5, 65, 127
1, 51902, Note_on_c, 2, 50, 127
1, 52050, Note_off_c, 2, 50, 127
1, 52050, Note_off_c, 5, 65, 127
1, 52052, Note_on_c, 7, 67, 127
1, 52052, Note_on_c, 4, 52, 127
1, 52127, Note_off_c, 10, 69, 127
1, 52200, Note_off_c, 4, 52, 127
1, 52200, Note_off_c, 7, 67, 127
1, 52202, Note_on_c, 10, 69, 127
1, 52202, Note_on_c, 5, 53, 127
1, 52350, Note_off_c, 5, 53, 127
1, 52350, Note_off_c, 10, 69, 127
1, 52352, Note_on_c, 7, 67, 127
1, 52352, Note_on_c, 4, 52, 127
1, 52500, Note_off_c, 4, 52, 127
1, 52500, Note_off_c, 7, 67, 127
1, 52502, Note_on_c, 5, 65, 127
1, 52502, Note_on_c, 2, 50, 127
1, 52650, Note_off_c, 2, 50, 127
1, 52650, Note_off_c, 5, 65, 127
1, 52652, Note_on_c, 4, 64, 127
1, 52652, Note_on_c, 1, 49, 127
1, 52800, Note_off_c, 1, 49, 127
1, 52800, Note_off_c, 4, 64, 127
1, 52802, Note_on_c, 5, 65, 127
1, 52802, Note_on_c, 2, 50, 127
1, 52950, Note_off_c, 2, 50, 127
1, 52950, Note_off_c, 5, 65, 127
1, 52952, Note_on_c, 4, 64, 127
1, 52952, Note_on_c, 0, 48, 127
1, 53100, Note_off_c, 0, 48, 127
1, 53100, Note_off_c, 4, 64, 127
1, 53102, Note_on_c, 2, 62, 127
1, 53102, Note_on_c, 12, 47, 127
1, 53250, Note_off_c, 12, 47, 127
1, 53250, Note_off_c, 2, 62, 127
1, 53252, Note_on_c, 4, 64, 127
1, 53252, Note_on_c, 0, 48, 127
1, 53400, Note_off_c, 0, 48, 127
1, 53400, Note_off_c, 4, 64, 127
1, 53402, Note_on_c, 2, 62, 127
1, 53402, Note_on_c, 12, 47, 127
1, 53550, Note_off_c, 12, 47, 127
1, 53550, Note_off_c, 2, 62, 127
1, 53552, Note_on_c, 0, 60, 127
1, 53552, Note_on_c, 10, 45, 127
1, 53700, Note_off_c, 10, 45, 127
1, 53700, Note_off_c, 0, 60, 127
1, 53702, Note_on_c, 2, 62, 127
1, 53702, Note_on_c, 12, 47, 127
1, 53850, Note_off_c, 2, 62, 127
1, 53852, Note_on_c, 4, 64, 127
1, 54000, Note_off_c, 4, 64, 127
1, 54002, Note_on_c, 5, 65, 127
1, 54150, Note_off_c, 5, 65, 127
1, 54150, Note_off_c, 12, 47, 127
1, 54152, Note_on_c, 8, 68, 127
1, 54152, Note_on_c, 0, 48, 127
1, 54303, Note_on_c, 5, 65, 127
1, 54341, Note_off_c, 8, 68, 127
1, 54452, Note_off_c, 5, 65, 127
1, 54454, Note_on_c, 4, 64, 127
1, 54602, Note_off_c, 4, 64, 127
1, 54602, Note_off_c, 0, 48, 127
1, 54604, Note_on_c, 2, 62, 127
1, 54604, Note_on_c, 12, 47, 127
1, 54755, Note_on_c, 4, 64, 127
1, 54769, Note_off_c, 2, 62, 127
1, 54903, Note_off_c, 4, 64, 127
1, 54905, Note_on_c, 5, 65, 127
1, 55053, Note_off_c, 5, 65, 127
1, 55053, Note_off_c, 12, 47, 127
1, 55055, Note_on_c, 10, 69, 127
1, 55055, Note_on_c, 10, 45, 127
1, 55206, Note_on_c, 5, 65, 127
1, 55267, Note_off_c, 10, 69, 127
1, 55354, Note_off_c, 5, 65, 127
1, 55356, Note_on_c, 4, 64, 127
1, 55504, Note_off_c, 4, 64, 127
1, 55504, Note_off_c, 10, 45, 127
1, 55506, Note_on_c, 2, 62, 127
1, 55506, Note_on_c, 8, 44, 127
1, 55657, Note_on_c, 4, 64, 127
1, 55683, Note_off_c, 2, 62, 127
1, 55805, Note_off_c, 4, 64, 127
1, 55807, Note_on_c, 5, 65, 127
1, 55955, Note_off_c, 5, 65, 127
1, 55955, Note_off_c, 8, 44, 127
1, 55957, Note_on_c, 12, 71, 127
1, 55957, Note_on_c, 10, 45, 127
1, 56108, Note_on_c, 5, 65, 127
1, 56240, Note_off_c, 12, 71, 127
1, 56256, Note_off_c, 5, 65, 127
1, 56258, Note_on_c, 4, 64, 127
1, 56406, Note_off_c, 4, 64, 127
1, 56406, Note_off_c, 10, 45, 127
1, 56408, Note_on_c, 2, 62, 127
1, 56408, Note_on_c, 12, 47, 127
1, 56559, Note_on_c, 4, 64, 127
1, 56620, Note_off_c, 2, 62, 127
1, 56707, Note_off_c, 4, 64, 127
1, 56709, Note_on_c, 5, 65, 127
1, 56857, Note_off_c, 5, 65, 127
1, 56857, Note_off_c, 12, 47, 127
1, 56859, Note_on_c, 2, 74, 127
1, 56859, Note_on_c, 8, 44, 127
1, 57010, Note_on_c, 5, 65, 127
1, 57158, Note_off_c, 5, 65, 127
1, 57160, Note_on_c, 4, 64, 127
1, 57306, Note_off_c, 2, 74, 127
1, 57308, Note_off_c, 4, 64, 127
1, 57308, Note_off_c, 8, 44, 127
1, 57310, Note_on_c, 2, 62, 127
1, 57310, Note_on_c, 4, 40, 127
1, 57458, Note_off_c, 2, 62, 127
1, 57460, Note_on_c, 5, 65, 127
1, 57608, Note_off_c, 5, 65, 127
1, 57610, Note_on_c, 8, 68, 127
1, 57758, Note_off_c, 8, 68, 127
1, 57760, Note_on_c, 12, 71, 127
1, 57908, Note_off_c, 12, 71, 127
1, 57910, Note_on_c, 2, 74, 127
1, 58061, Note_on_c, 12, 71, 127
1, 58193, Note_off_c, 2, 74, 127
1, 58202, Note_off_c, 4, 40, 127
1, 58209, Note_off_c, 12, 71, 127
1, 58211, Note_on_c, 8, 68, 127
1, 58359, Note_off_c, 8, 68, 127
1, 58361, Note_on_c, 12, 71, 127
1, 58509, Note_off_c, 12, 71, 127
1, 58511, Note_on_c, 2, 74, 127
1, 58659, Note_off_c, 2, 74, 127
1, 58661, Note_on_c, 5, 77, 127
1, 58661, Note_on_c, 8, 56, 127
1, 58661, Note_on_c, 2, 50, 127
1, 58809, Note_off_c, 5, 77, 127
1, 58811, Note_on_c, 4, 76, 127
1, 58959, Note_off_c, 4, 76, 127
1, 58961, Note_on_c, 2, 74, 127
1, 59109, Note_off_c, 2, 74, 127
1, 59109, Note_off_c, 2, 50, 127
1, 59111, Note_on_c, 4, 76, 127
1, 59111, Note_on_c, 0, 48, 127
1, 59186, Note_on_c, 2, 74, 127
1, 59205, Note_off_c, 4, 76, 127
1, 59259, Note_off_c, 8, 56, 127
1, 59261, Note_off_c, 2, 74, 127
1, 59261, Note_on_c, 4, 76, 127
1, 59261, Note_on_c, 6, 54, 127
1, 59409, Note_off_c, 6, 54, 127
1, 59411, Note_on_c, 4, 52, 127
1, 59559, Note_off_c, 4, 52, 127
1, 59561, Note_on_c, 10, 57, 127
1, 59768, Note_off_c, 0, 48, 127
1, 59787, Note_on_c, 5, 77, 127
1, 59787, Note_on_c, 2, 50, 127
1, 59796, Note_off_c, 4, 76, 127
1, 60008, Note_off_c, 10, 57, 127
1, 60010, Note_off_c, 2, 50, 127
1, 60010, Note_off_c, 5, 77, 127
1, 60012, Note_on_c, 0, 72, 127
1, 60012, Note_on_c, 8, 68, 127
1, 60012, Note_on_c, 4, 52, 127
1, 60236, Note_off_c, 0, 72, 127
1, 60238, Note_on_c, 12, 71, 127
1, 60311, Note_off_c, 12, 71, 127
1, 60313, Note_on_c, 0, 72, 127
1, 60386, Note_off_c, 0, 72, 127
1, 60388, Note_on_c, 12, 71, 127
1, 60461, Note_off_c, 12, 71, 127
1, 60463, Note_on_c, 0, 72, 127
1, 60463, Note_on_c, 4, 40, 127
1, 60536, Note_off_c, 0, 72, 127
1, 60538, Note_on_c, 12, 71, 127
1, 60611, Note_off_c, 12, 71, 127
1, 60613, Note_on_c, 0, 72, 127
1, 60686, Note_off_c, 0, 72, 127
1, 60688, Note_on_c, 12, 71, 127
1, 60761, Note_off_c, 12, 71, 127
1, 60763, Note_on_c, 10, 69, 127
1, 60904, Note_off_c, 8, 68, 127
1, 60911, Note_off_c, 10, 69, 127
1, 60911, Note_off_c, 4, 40, 127
1, 60913, Note_on_c, 0, 60, 127
1, 60913, Note_on_c, 4, 64, 127
1, 60913, Note_on_c, 10, 69, 127
1, 60913, Note_on_c, 10, 45, 127
1, 61360, Note_off_c, 10, 69, 127
1, 61360, Note_off_c, 4, 64, 127
1, 61360, Note_off_c, 0, 60, 127
1, 61362, Note_off_c, 10, 45, 127
1, 61362, Note_off_c, 4, 52, 127
1, 61380, Note_on_c, 10, 57, 127
1, 61604, Note_off_c, 10, 57, 127
1, 61606, Note_on_c, 12, 59, 127
1, 61830, Note_off_c, 12, 59, 127
1, 61832, Note_on_c, 0, 60, 127
1, 62056, Note_off_c, 0, 60, 127
1, 62058, Note_on_c, 4, 64, 127
1, 62282, Note_off_c, 4, 64, 127
1, 62284, Note_on_c, 2, 62, 127
1, 62508, Note_off_c, 2, 62, 127
1, 62510, Note_on_c, 12, 59, 127
1, 62734, Note_off_c, 12, 59, 127
1, 62736, Note_on_c, 0, 60, 127
1, 62960, Note_off_c, 0, 60, 127
1, 62962, Note_on_c, 10, 57, 127
1, 63186, Note_off_c, 10, 57, 127
1, 63188, Note_on_c, 0, 60, 127
1, 63188, Note_on_c, 4, 64, 127
1, 63412, Note_off_c, 4, 64, 127
1, 63414, Note_on_c, 6, 66, 127
1, 63619, Note_off_c, 0, 60, 127
1, 63638, Note_off_c, 6, 66, 127
1, 63640, Note_on_c, 1, 61, 127
1, 63640, Note_on_c, 7, 67, 127
1, 63864, Note_off_c, 7, 67, 127
1, 63866, Note_on_c, 12, 71, 127
1, 64071, Note_off_c, 1, 61, 127
1, 64090, Note_off_c, 12, 71, 127
1, 64092, Note_on_c, 3, 63, 127
1, 64092, Note_on_c, 10, 69, 127
1, 64316, Note_off_c, 10, 69, 127
1, 64318, Note_on_c, 6, 66, 127
1, 64523, Note_off_c, 3, 63, 127
1, 64542, Note_off_c, 6, 66, 127
1, 64544, Note_on_c, 4, 64, 127
1, 64544, Note_on_c, 7, 67, 127
1, 64765, Note_off_c, 4, 64, 127
1, 64767, Note_off_c, 7, 67, 127
1, 64769, Note_on_c, 4, 64, 127
1, 64993, Note_off_c, 4, 64, 127
1, 64995, Note_on_c, 10, 45, 127
1, 64995, Note_on_c, 0, 60, 127
1, 64995, Note_on_c, 5, 65, 127
1, 65219, Note_off_c, 10, 45, 127
1, 65221, Note_on_c, 12, 47, 127
1, 65430, Note_off_c, 5, 65, 127
1, 65430, Note_off_c, 0, 60, 127
1, 65444, Note_off_c, 12, 47, 127
1, 65446, Note_on_c, 0, 48, 127
1, 65446, Note_on_c, 10, 57, 127
1, 65446, Note_on_c, 6, 66, 127
1, 65670, Note_off_c, 0, 48, 127
1, 65672, Note_on_c, 4, 52, 127
1, 65881, Note_off_c, 6, 66, 127
1, 65881, Note_off_c, 10, 57, 127
1, 65895, Note_off_c, 4, 52, 127
1, 65897, Note_on_c, 2, 50, 127
1, 65897, Note_on_c, 8, 68, 127
1, 65897, Note_on_c, 12, 59, 127
1, 66121, Note_off_c, 2, 50, 127
1, 66123, Note_on_c, 12, 47, 127
1, 66332, Note_off_c, 12, 59, 127
1, 66332, Note_off_c, 8, 68, 127
1, 66346, Note_off_c, 12, 47, 127
1, 66348, Note_on_c, 0, 48, 127
1, 66348, Note_on_c, 10, 69, 127
1, 66348, Note_on_c, 4, 64, 127
1, 66572, Note_off_c, 0, 48, 127
1, 66574, Note_on_c, 10, 45, 127
1, 66783, Note_off_c, 10, 69, 127
1, 66797, Note_off_c, 10, 45, 127
1, 66799, Note_on_c, 0, 48, 127
1, 66799, Note_on_c, 4, 52, 127
1, 66799, Note_on_c, 10, 69, 127
1, 66865, Note_off_c, 4, 64, 127
1, 67023, Note_off_c, 4, 52, 127
1, 67025, Note_on_c, 6, 54, 127
1, 67234, Note_off_c, 10, 69, 127
1, 67234, Note_off_c, 0, 48, 127
1, 67248, Note_off_c, 6, 54, 127
1, 67250, Note_on_c, 7, 55, 127
1, 67250, Note_on_c, 1, 49, 127
1, 67250, Note_on_c, 4, 64, 127
1, 67474, Note_off_c, 7, 55, 127
1, 67476, Note_on_c, 12, 59, 127
1, 67685, Note_off_c, 4, 64, 127
1, 67685, Note_off_c, 1, 49, 127
1, 67699, Note_off_c, 12, 59, 127
1, 67701, Note_on_c, 10, 57, 127
1, 67701, Note_on_c, 3, 51, 127
1, 67701, Note_on_c, 6, 66, 127
1, 67925, Note_off_c, 10, 57, 127
1, 67927, Note_on_c, 6, 54, 127
1, 68136, Note_off_c, 3, 51, 127
1, 68150, Note_off_c, 6, 54, 127
1, 68152, Note_on_c, 4, 52, 127
1, 68152, Note_on_c, 7, 55, 127
1, 68300, Note_off_c, 6, 66, 127
1, 68302, Note_on_c, 4, 64, 127
1, 68450, Note_off_c, 4, 64, 127
1, 68452, Note_on_c, 3, 63, 127
1, 68600, Note_off_c, 3, 63, 127
1, 68600, Note_off_c, 7, 55, 127
1, 68600, Note_off_c, 4, 52, 127
1, 68602, Note_on_c, 12, 59, 127
1, 68602, Note_on_c, 7, 55, 127
1, 68602, Note_on_c, 4, 64, 127
1, 68750, Note_off_c, 4, 64, 127
1, 68752, Note_on_c, 6, 66, 127
1, 68900, Note_off_c, 6, 66, 127
1, 68902, Note_on_c, 7, 67, 127
1, 69050, Note_off_c, 7, 67, 127
1, 69050, Note_off_c, 12, 59, 127
1, 69052, Note_on_c, 1, 61, 127
1, 69052, Note_on_c, 10, 69, 127
1, 69200, Note_off_c, 10, 69, 127
1, 69202, Note_on_c, 12, 71, 127
1, 69350, Note_off_c, 12, 71, 127
1, 69352, Note_on_c, 0, 72, 127
1, 69493, Note_off_c, 7, 55, 127
1, 69500, Note_off_c, 0, 72, 127
1, 69500, Note_off_c, 1, 61, 127
1, 69502, Note_on_c, 3, 63, 127
1, 69502, Note_on_c, 6, 54, 127
1, 69502, Note_on_c, 12, 71, 127
1, 69650, Note_off_c, 12, 71, 127
1, 69652, Note_on_c, 0, 72, 127
1, 69800, Note_off_c, 0, 72, 127
1, 69802, Note_on_c, 10, 69, 127
1, 69950, Note_off_c, 10, 69, 127
1, 69950, Note_off_c, 6, 54, 127
1, 69950, Note_off_c, 3, 63, 127
1, 69952, Note_on_c, 4, 52, 127
1, 69952, Note_on_c, 4, 64, 127
1, 69952, Note_on_c, 7, 67, 127
1, 70100, Note_off_c, 7, 67, 127
1, 70102, Note_on_c, 6, 66, 127
1, 70248, Note_off_c, 4, 64, 127
1, 70250, Note_off_c, 6, 66, 127
1, 70252, Note_on_c, 4, 64, 127
1, 70400, Note_off_c, 4, 64, 127
1, 70402, Note_on_c, 6, 66, 127
1, 70550, Note_off_c, 6, 66, 127
1, 70552, Note_on_c, 7, 67, 127
1, 70608, Note_off_c, 4, 52, 127
1, 70700, Note_off_c, 7, 67, 127
1, 70702, Note_on_c, 10, 69, 127
1, 70850, Note_off_c, 10, 69, 127
1, 70852, Note_on_c, 12, 71, 127
1, 71000, Note_off_c, 12, 71, 127
1, 71002, Note_on_c, 0, 72, 127
1, 71150, Note_off_c, 0, 72, 127
1, 71152, Note_on_c, 2, 74, 127
1, 71300, Note_off_c, 2, 74, 127
1, 71302, Note_on_c, 8, 56, 127
1, 71302, Note_on_c, 4, 64, 127
1, 71302, Note_on_c, 4, 52, 127
1, 71302, Note_on_c, 0, 72, 127
1, 71450, Note_off_c, 0, 72, 127
1, 71452, Note_on_c, 2, 74, 127
1, 71600, Note_off_c, 2, 74, 127
1, 71602, Note_on_c, 12, 71, 127
1, 71750, Note_off_c, 12, 71, 127
1, 71750, Note_off_c, 4, 52, 127
1, 71750, Note_off_c, 4, 64, 127
1, 71750, Note_off_c, 8, 56, 127
1, 71752, Note_on_c, 6, 54, 127
1, 71752, Note_on_c, 10, 57, 127
1, 71752, Note_on_c, 4, 64, 127
1, 71752, Note_on_c, 10, 69, 127
1, 71900, Note_off_c, 10, 69, 127
1, 71902, Note_on_c, 8, 68, 127
1, 72050, Note_off_c, 8, 68, 127
1, 72052, Note_on_c, 6, 66, 127
1, 72200, Note_off_c, 6, 66, 127
1, 72202, Note_on_c, 8, 68, 127
1, 72350, Note_off_c, 8, 68, 127
1, 72352, Note_on_c, 10, 69, 127
1, 72500, Note_off_c, 10, 69, 127
1, 72502, Note_on_c, 12, 71, 127
1, 72643, Note_off_c, 4, 64, 127
1, 72643, Note_off_c, 10, 57, 127
1, 72643, Note_off_c, 6, 54, 127
1, 72650, Note_off_c, 12, 71, 127
1, 72652, Note_on_c, 0, 72, 127
1, 72800, Note_off_c, 0, 72, 127
1, 72802, Note_on_c, 2, 74, 127
1, 72950, Note_off_c, 2, 74, 127
1, 72952, Note_on_c, 4, 76, 127
1, 73100, Note_off_c, 4, 76, 127
1, 73102, Note_on_c, 2, 62, 127
1, 73102, Note_on_c, 10, 57, 127
1, 73102, Note_on_c, 6, 54, 127
1, 73102, Note_on_c, 2, 74, 127
1, 73250, Note_off_c, 2, 74, 127
1, 73252, Note_on_c, 4, 76, 127
1, 73400, Note_off_c, 4, 76, 127
1, 73402, Note_on_c, 0, 72, 127
1, 73550, Note_off_c, 0, 72, 127
1, 73550, Note_off_c, 6, 54, 127
1, 73550, Note_off_c, 10, 57, 127
1, 73550, Note_off_c, 2, 62, 127
1, 73552, Note_on_c, 8, 56, 127
1, 73552, Note_on_c, 2, 62, 127
1, 73552, Note_on_c, 12, 59, 127
1, 73552, Note_on_c, 12, 71, 127
1, 73700, Note_off_c, 12, 71, 127
1, 73702, Note_on_c, 10, 69, 127
1, 73850, Note_off_c, 10, 69, 127
1, 73852, Note_on_c, 8, 68, 127
1, 74000, Note_off_c, 8, 68, 127
1, 74002, Note_on_c, 10, 69, 127
1, 74150, Note_off_c, 10, 69, 127
1, 74152, Note_on_c, 12, 71, 127
1, 74300, Note_off_c, 12, 71, 127
1, 74302, Note_on_c, 0, 72, 127
1, 74443, Note_off_c, 12, 59, 127
1, 74443, Note_off_c, 2, 62, 127
1, 74443, Note_off_c, 8, 56, 127
1, 74450, Note_off_c, 0, 72, 127
1, 74452, Note_on_c, 2, 74, 127
1, 74600, Note_off_c, 2, 74, 127
1, 74602, Note_on_c, 4, 76, 127
1, 74750, Note_off_c, 4, 76, 127
1, 74752, Note_on_c, 5, 77, 127
1, 74900, Note_off_c, 5, 77, 127
1, 74902, Note_on_c, 8, 56, 127
1, 74902, Note_on_c, 4, 64, 127
1, 74902, Note_on_c, 12, 59, 127
1, 74902, Note_on_c, 4, 76, 127
1, 75050, Note_off_c, 4, 76, 127
1, 75052, Note_on_c, 5, 77, 127
1, 75200, Note_off_c, 5, 77, 127
1, 75202, Note_on_c, 2, 74, 127
1, 75350, Note_off_c, 2, 74, 127
1, 75350, Note_off_c, 12, 59, 127
1, 75350, Note_off_c, 4, 64, 127
1, 75350, Note_off_c, 8, 56, 127
1, 75352, Note_on_c, 4, 64, 127
1, 75352, Note_on_c, 10, 57, 127
1, 75352, Note_on_c, 0, 72, 127
1, 75500, Note_off_c, 0, 72, 127
1, 75502, Note_on_c, 2, 74, 127
1, 75650, Note_off_c, 2, 74, 127
1, 75652, Note_on_c, 4, 76, 127
1, 75800, Note_off_c, 4, 76, 127
1, 75800, Note_off_c, 10, 57, 127
1, 75800, Note_off_c, 4, 64, 127
1, 75802, Note_on_c, 5, 65, 127
1, 75802, Note_on_c, 10, 81, 127
1, 75950, Note_off_c, 10, 81, 127
1, 75952, Note_on_c, 7, 79, 127
1, 76100, Note_off_c, 7, 79, 127
1, 76102, Note_on_c, 10, 81, 127
1, 76250, Note_off_c, 10, 81, 127
1, 76250, Note_off_c, 5, 65, 127
1, 76252, Note_on_c, 7, 55, 127
1, 76252, Note_on_c, 12, 71, 127
1, 76400, Note_off_c, 7, 55, 127
1, 76402, Note_on_c, 10, 57, 127
1, 76550, Note_off_c, 10, 57, 127
1, 76552, Note_on_c, 12, 59, 127
1, 76700, Note_off_c, 12, 59, 127
1, 76700, Note_off_c, 12, 71, 127
1, 76702, Note_on_c, 4, 64, 127
1, 76702, Note_on_c, 7, 79, 127
1, 76850, Note_off_c, 4, 64, 127
1, 76852, Note_on_c, 2, 62, 127
1, 77000, Note_off_c, 2, 62, 127
1, 77002, Note_on_c, 4, 64, 127
1, 77150, Note_off_c, 4, 64, 127
1, 77150, Note_off_c, 7, 79, 127
1, 77152, Note_on_c, 5, 53, 127
1, 77152, Note_on_c, 10, 69, 127
1, 77300, Note_off_c, 10, 69, 127
1, 77302, Note_on_c, 12, 71, 127
1, 77450, Note_off_c, 12, 71, 127
1, 77452, Note_on_c, 0, 72, 127
1, 77600, Note_off_c, 0, 72, 127
1, 77600, Note_off_c, 5, 53, 127
1, 77602, Note_on_c, 2, 62, 127
1, 77602, Note_on_c, 5, 77, 127
1, 77750, Note_off_c, 5, 77, 127
1, 77752, Note_on_c, 4, 76, 127
1, 77900, Note_off_c, 4, 76, 127
1, 77902, Note_on_c, 5, 77, 127
1, 78050, Note_off_c, 5, 77, 127
1, 78050, Note_off_c, 2, 62, 127
1, 78052, Note_on_c, 4, 52, 127
1, 78052, Note_on_c, 7, 67, 127
1, 78200, Note_off_c, 4, 52, 127
1, 78202, Note_on_c, 5, 53, 127
1, 78350, Note_off_c, 5, 53, 127
1, 78352, Note_on_c, 7, 55, 127
1, 78500, Note_off_c, 7, 55, 127
1, 78500, Note_off_c, 7, 67, 127
1, 78502, Note_on_c, 0, 60, 127
1, 78502, Note_on_c, 4, 76, 127
1, 78650, Note_off_c, 0, 60, 127
1, 78652, Note_on_c, 12, 59, 127
1, 78800, Note_off_c, 12, 59, 127
1, 78802, Note_on_c, 0, 60, 127
1, 78950, Note_off_c, 0, 60, 127
1, 78950, Note_off_c, 4, 76, 127
1, 78952, Note_on_c, 2, 50, 127
1, 78952, Note_on_c, 5, 65, 127
1, 79100, Note_off_c, 5, 65, 127
1, 79102, Note_on_c, 7, 67, 127
1, 79250, Note_off_c, 7, 67, 127
1, 79252, Note_on_c, 10, 69, 127
1, 79400, Note_off_c, 10, 69, 127
1, 79400, Note_off_c, 2, 50, 127
1, 79402, Note_on_c, 12, 59, 127
1, 79402, Note_on_c, 2, 74, 127
1, 79550, Note_off_c, 2, 74, 127
1, 79552, Note_on_c, 0, 72, 127
1, 79700, Note_off_c, 0, 72, 127
1, 79702, Note_on_c, 2, 74, 127
1, 79850, Note_off_c, 2, 74, 127
1, 79850, Note_off_c, 12, 59, 127
1, 79852, Note_on_c, 0, 48, 127
1, 79852, Note_on_c, 4, 64, 127
1, 80000, Note_off_c, 0, 48, 127
1, 80002, Note_on_c, 2, 50, 127
1, 80150, Note_off_c, 2, 50, 127
1, 80152, Note_on_c, 4, 52, 127
1, 80300, Note_off_c, 4, 52, 127
1, 80300, Note_off_c, 4, 64, 127
1, 80302, Note_on_c, 6, 54, 127
1, 80302, Note_on_c, 0, 72, 127
1, 80450, Note_off_c, 6, 54, 127
1, 80452, Note_on_c, 7, 55, 127
1, 80600, Note_off_c, 7, 55, 127
1, 80602, Note_on_c, 10, 57, 127
1, 80750, Note_off_c, 0, 72, 127
1, 80758, Note_off_c, 10, 57, 127
1, 80760, Note_on_c, 7, 43, 127
1, 80760, Note_on_c, 2, 62, 127
1, 80908, Note_off_c, 2, 62, 127
1, 80910, Note_on_c, 4, 64, 127
1, 81058, Note_off_c, 4, 64, 127
1, 81060, Note_on_c, 5, 65, 127
1, 81206, Note_off_c, 7, 43, 127
1, 81208, Note_off_c, 5, 65, 127
1, 81210, Note_on_c, 7, 55, 127
1, 81210, Note_on_c, 12, 71, 127
1, 81358, Note_off_c, 12, 71, 127
1, 81360, Note_on_c, 10, 69, 127
1, 81508, Note_off_c, 10, 69, 127
1, 81510, Note_on_c, 12, 71, 127
1, 81658, Note_off_c, 12, 71, 127
1, 81660, Note_on_c, 7, 43, 127
1, 81660, Note_on_c, 4, 64, 127
1, 81808, Note_off_c, 4, 64, 127
1, 81810, Note_on_c, 5, 65, 127
1, 81958, Note_off_c, 5, 65, 127
1, 81960, Note_on_c, 7, 67, 127
1, 82101, Note_off_c, 7, 55, 127
1, 82106, Note_off_c, 7, 43, 127
1, 82108, Note_off_c, 7, 67, 127
1, 82110, Note_on_c, 7, 55, 127
1, 82110, Note_on_c, 0, 72, 127
1, 82258, Note_off_c, 0, 72, 127
1, 82260, Note_on_c, 12, 71, 127
1, 82408, Note_off_c, 12, 71, 127
1, 82410, Note_on_c, 0, 72, 127
1, 82558, Note_off_c, 0, 72, 127
1, 82560, Note_on_c, 7, 43, 127
1, 82560, Note_on_c, 5, 65, 127
1, 82708, Note_off_c, 5, 65, 127
1, 82710, Note_on_c, 7, 67, 127
1, 82858, Note_off_c, 7, 67, 127
1, 82860, Note_on_c, 10, 69, 127
1, 83001, Note_off_c, 7, 55, 127
1, 83006, Note_off_c, 7, 43, 127
1, 83008, Note_off_c, 10, 69, 127
1, 83010, Note_on_c, 7, 55, 127
1, 83010, Note_on_c, 2, 74, 127
1, 83158, Note_off_c, 2, 74, 127
1, 83160, Note_on_c, 0, 72, 127
1, 83308, Note_off_c, 0, 72, 127
1, 83310, Note_on_c, 2, 74, 127
1, 83458, Note_off_c, 2, 74, 127
1, 83460, Note_on_c, 7, 43, 127
1, 83460, Note_on_c, 7, 67, 127
1, 83608, Note_off_c, 7, 67, 127
1, 83610, Note_on_c, 10, 69, 127
1, 83758, Note_off_c, 10, 69, 127
1, 83760, Note_on_c, 12, 71, 127
1, 83901, Note_off_c, 7, 55, 127
1, 83906, Note_off_c, 7, 43, 127
1, 83908, Note_off_c, 12, 71, 127
1, 83910, Note_on_c, 7, 55, 127
1, 83910, Note_on_c, 4, 76, 127
1, 84058, Note_off_c, 4, 76, 127
1, 84060, Note_on_c, 2, 74, 127
1, 84208, Note_off_c, 2, 74, 127
1, 84210, Note_on_c, 4, 76, 127
1, 84358, Note_off_c, 4, 76, 127
1, 84360, Note_on_c, 7, 43, 127
1, 84360, Note_on_c, 10, 69, 127
1, 84508, Note_off_c, 10, 69, 127
1, 84510, Note_on_c, 12, 71, 127
1, 84658, Note_off_c, 12, 71, 127
1, 84660, Note_on_c, 0, 72, 127
1, 84801, Note_off_c, 7, 55, 127
1, 84806, Note_off_c, 7, 43, 127
1, 84808, Note_off_c, 0, 72, 127
1, 84810, Note_on_c, 7, 55, 127
1, 84810, Note_on_c, 5, 77, 127
1, 84958, Note_off_c, 5, 77, 127
1, 84960, Note_on_c, 4, 76, 127
1, 85108, Note_off_c, 4, 76, 127
1, 85110, Note_on_c, 5, 77, 127
1, 85258, Note_off_c, 5, 77, 127
1, 85260, Note_on_c, 7, 43, 127
1, 85260, Note_on_c, 12, 71, 127
1, 85408, Note_off_c, 12, 71, 127
1, 85410, Note_on_c, 0, 72, 127
1, 85558, Note_off_c, 0, 72, 127
1, 85560, Note_on_c, 2, 74, 127
1, 85701, Note_off_c, 7, 55, 127
1, 85706, Note_off_c, 7, 43, 127
1, 85708, Note_off_c, 2, 74, 127
1, 85710, Note_on_c, 7, 55, 127
1, 85710, Note_on_c, 7, 79, 127
1, 85858, Note_off_c, 7, 79, 127
1, 85860, Note_on_c, 5, 77, 127
1, 86008, Note_off_c, 5, 77, 127
1, 86010, Note_on_c, 7, 79, 127
1, 86158, Note_off_c, 7, 79, 127
1, 86158, Note_off_c, 7, 55, 127
1, 86160, Note_on_c, 0, 48, 127
1, 86160, Note_on_c, 0, 72, 127
1, 86160, Note_on_c, 4, 76, 127
1, 86308, Note_off_c, 0, 48, 127
1, 86310, Note_on_c, 10, 57, 127
1, 86458, Note_off_c, 10, 57, 127
1, 86460, Note_on_c, 7, 55, 127
1, 86608, Note_off_c, 7, 55, 127
1, 86608, Note_off_c, 4, 76, 127
1, 86608, Note_off_c, 0, 72, 127
1, 86610, Note_on_c, 12, 47, 127
1, 86610, Note_on_c, 2, 74, 127
1, 86610, Note_on_c, 5, 77, 127
1, 86758, Note_off_c, 12, 47, 127
1, 86760, Note_on_c, 10, 57, 127
1, 86908, Note_off_c, 10, 57, 127
1, 86910, Note_on_c, 7, 55, 127
1, 87058, Note_off_c, 7, 55, 127
1, 87058, Note_off_c, 5, 77, 127
1, 87058, Note_off_c, 2, 74, 127
1, 87060, Note_on_c, 0, 48, 127
1, 87060, Note_on_c, 4, 76, 127
1, 87060, Note_on_c, 0, 72, 127
1, 87208, Note_off_c, 0, 48, 127
1, 87210, Note_on_c, 10, 57, 127
1, 87358, Note_off_c, 10, 57, 127
1, 87360, Note_on_c, 7, 55, 127
1, 87508, Note_off_c, 7, 55, 127
1, 87508, Note_off_c, 0, 72, 127
1, 87508, Note_off_c, 4, 76, 127
1, 87510, Note_on_c, 2, 50, 127
1, 87510, Note_on_c, 12, 71, 127
1, 87510, Note_on_c, 2, 74, 127
1, 87658, Note_off_c, 2, 50, 127
1, 87660, Note_on_c, 10, 57, 127
1, 87808, Note_off_c, 10, 57, 127
1, 87810, Note_on_c, 7, 55, 127
1, 87958, Note_off_c, 7, 55, 127
1, 87958, Note_off_c, 2, 74, 127
1, 87958, Note_off_c, 12, 71, 127
1, 87960, Note_on_c, 4, 52, 127
1, 87960, Note_on_c, 0, 72, 127
1, 88108, Note_off_c, 4, 52, 127
1, 88110, Note_on_c, 10, 57, 127
1, 88258, Note_off_c, 10, 57, 127
1, 88260, Note_on_c, 7, 55, 127
1, 88408, Note_off_c, 7, 55, 127
1, 88408, Note_off_c, 0, 72, 127
1, 88410, Note_on_c, 12, 47, 127
1, 88410, Note_on_c, 10, 81, 127
1, 88410, Note_on_c, 5, 77, 127
1, 88558, Note_off_c, 12, 47, 127
1, 88560, Note_on_c, 10, 57, 127
1, 88635, Note_on_c, 2, 74, 127
1, 88708, Note_off_c, 10, 57, 127
1, 88710, Note_on_c, 7, 55, 127
1, 88748, Note_off_c, 5, 77, 127
1, 88748, Note_off_c, 10, 81, 127
1, 88859, Note_off_c, 7, 55, 127
1, 88859, Note_off_c, 2, 74, 127
1, 88861, Note_on_c, 0, 48, 127
1, 88861, Note_on_c, 7, 79, 127
1, 88861, Note_on_c, 4, 76, 127
1, 89009, Note_off_c, 0, 48, 127
1, 89011, Note_on_c, 10, 57, 127
1, 89086, Note_on_c, 0, 72, 127
1, 89159, Note_off_c, 10, 57, 127
1, 89161, Note_on_c, 7, 55, 127
1, 89199, Note_off_c, 4, 76, 127
1, 89199, Note_off_c, 7, 79, 127
1, 89310, Note_off_c, 7, 55, 127
1, 89310, Note_off_c, 0, 72, 127
1, 89312, Note_on_c, 2, 50, 127
1, 89312, Note_on_c, 5, 77, 127
1, 89312, Note_on_c, 2, 74, 127
1, 89460, Note_off_c, 2, 50, 127
1, 89462, Note_on_c, 10, 57, 127
1, 89537, Note_on_c, 12, 71, 127
1, 89610, Note_off_c, 10, 57, 127
1, 89612, Note_on_c, 7, 55, 127
1, 89650, Note_off_c, 2, 74, 127
1, 89650, Note_off_c, 5, 77, 127
1, 89761, Note_off_c, 7, 55, 127
1, 89761, Note_off_c, 12, 71, 127
1, 89763, Note_on_c, 4, 52, 127
1, 89763, Note_on_c, 0, 72, 127
1, 89763, Note_on_c, 7, 67, 127
1, 89763, Note_on_c, 4, 76, 127
1, 89911, Note_off_c, 4, 52, 127
1, 89913, Note_on_c, 10, 57, 127
1, 90061, Note_off_c, 10, 57, 127
1, 90063, Note_on_c, 7, 55, 127
1, 90211, Note_off_c, 7, 55, 127
1, 90211, Note_off_c, 4, 76, 127
1, 90211, Note_off_c, 7, 67, 127
1, 90211, Note_off_c, 0, 72, 127
1, 90213, Note_on_c, 5, 53, 127
1, 90213, Note_on_c, 7, 67, 127
1, 90213, Note_on_c, 2, 74, 127
1, 90213, Note_on_c, 12, 71, 127
1, 90361, Note_off_c, 5, 53, 127
1, 90363, Note_on_c, 7, 55, 127
1, 90436, Note_off_c, 12, 71, 127
1, 90436, Note_off_c, 2, 74, 127
1, 90438, Note_on_c, 4, 76, 127
1, 90438, Note_on_c, 0, 72, 127
1, 90511, Note_off_c, 7, 55, 127
1, 90513, Note_on_c, 4, 52, 127
1, 90659, Note_off_c, 7, 67, 127
1, 90661, Note_off_c, 4, 52, 127
1, 90661, Note_off_c, 0, 72, 127
1, 90661, Note_off_c, 4, 76, 127
1, 90663, Note_on_c, 2, 50, 127
1, 90663, Note_on_c, 10, 69, 127
1, 90663, Note_on_c, 5, 77, 127
1, 90663, Note_on_c, 2, 74, 127
1, 90811, Note_off_c, 2, 50, 127
1, 90813, Note_on_c, 4, 52, 127
1, 90961, Note_off_c, 4, 52, 127
1, 90963, Note_on_c, 5, 53, 127
1, 91111, Note_off_c, 5, 53, 127
1, 91111, Note_off_c, 2, 74, 127
1, 91111, Note_off_c, 5, 77, 127
1, 91111, Note_off_c, 10, 69, 127
1, 91113, Note_on_c, 12, 47, 127
1, 91113, Note_on_c, 2, 74, 127
1, 91113, Note_on_c, 10, 69, 127
1, 91113, Note_on_c, 5, 77, 127
1, 91261, Note_off_c, 12, 47, 127
1, 91263, Note_on_c, 0, 48, 127
1, 91411, Note_off_c, 0, 48, 127
1, 91413, Note_on_c, 2, 50, 127
1, 91561, Note_off_c, 2, 50, 127
1, 91561, Note_off_c, 5, 77, 127
1, 91561, Note_off_c, 10, 69, 127
1, 91561, Note_off_c, 2, 74, 127
1, 91563, Note_on_c, 7, 43, 127
1, 91563, Note_on_c, 5, 77, 127
1, 91563, Note_on_c, 2, 74, 127
1, 91563, Note_on_c, 12, 71, 127
1, 91711, Note_off_c, 7, 43, 127
1, 91713, Note_on_c, 10, 45, 127
1, 91861, Note_off_c, 10, 45, 127
1, 91863, Note_on_c, 12, 47, 127
1, 92011, Note_off_c, 12, 47, 127
1, 92011, Note_off_c, 12, 71, 127
1, 92011, Note_off_c, 2, 74, 127
1, 92011, Note_off_c, 5, 77, 127
1, 92013, Note_on_c, 0, 48, 127
1, 92013, Note_on_c, 4, 76, 127
1, 92013, Note_on_c, 7, 67, 127
1, 92013, Note_on_c, 0, 72, 127
1, 92161, Note_off_c, 0, 48, 127
1, 92163, Note_on_c, 12, 47, 127
1, 92311, Note_off_c, 12, 47, 127
1, 92313, Note_on_c, 0, 48, 127
1, 92461, Note_off_c, 0, 48, 127
1, 92461, Note_off_c, 0, 72, 127
1, 92461, Note_off_c, 7, 67, 127
1, 92461, Note_off_c, 4, 76, 127
1, 92463, Note_on_c, 5, 41, 127
1, 92463, Note_on_c, 2, 74, 127
1, 92463, Note_on_c, 0, 72, 127
1, 92463, Note_on_c, 10, 69, 127
1, 92611, Note_off_c, 5, 41, 127
1, 92613, Note_on_c, 7, 43, 127
1, 92761, Note_off_c, 7, 43, 127
1, 92763, Note_on_c, 10, 45, 127
1, 92911, Note_off_c, 10, 45, 127
1, 92911, Note_off_c, 10, 69, 127
1, 92911, Note_off_c, 0, 72, 127
1, 92911, Note_off_c, 2, 74, 127
1, 92913, Note_on_c, 7, 43, 127
1, 92913, Note_on_c, 12, 71, 127
1, 92913, Note_on_c, 2, 62, 127
1, 92913, Note_on_c, 2, 74, 127
1, 93061, Note_off_c, 7, 43, 127
1, 93063, Note_on_c, 5, 41, 127
1, 93211, Note_off_c, 5, 41, 127
1, 93213, Note_on_c, 7, 43, 127
1, 93361, Note_off_c, 7, 43, 127
1, 93361, Note_off_c, 2, 74, 127
1, 93361, Note_off_c, 2, 62, 127
1, 93361, Note_off_c, 12, 71, 127
1, 93363, Note_on_c, 0, 36, 127
1, 93363, Note_on_c, 0, 72, 127
1, 93363, Note_on_c, 7, 67, 127
1, 93363, Note_on_c, 4, 64, 127
1, 93810, Note_off_c, 0, 36, 127
1, 93812, Note_off_c, 4, 64, 127
1, 93812, Note_off_c, 7, 67, 127
1, 93812, Note_off_c, 0, 72, 127
1, 93814, Note_on_c, 0, 60, 127
1, 94038, Note_off_c, 0, 60, 127
1, 94040, Note_on_c, 2, 62, 127
1, 94264, Note_off_c, 2, 62, 127
1, 94266, Note_on_c, 4, 64, 127
1, 94490, Note_off_c, 4, 64, 127
1, 94492, Note_on_c, 7, 67, 127
1, 94716, Note_off_c, 7, 67, 127
1, 94718, Note_on_c, 5, 65, 127
1, 94942, Note_off_c, 5, 65, 127
1, 94944, Note_on_c, 2, 62, 127
1, 95168, Note_off_c, 2, 62, 127
1, 95170, Note_on_c, 4, 64, 127
1, 95619, Note_off_c, 4, 64, 127
1, 95621, Note_on_c, 0, 48, 127
1, 95621, Note_on_c, 4, 64, 127
1, 95621, Note_on_c, 7, 67, 127
1, 95621, Note_on_c, 0, 60, 127
1, 95845, Note_off_c, 0, 48, 127
1, 95847, Note_on_c, 2, 50, 127
1, 96071, Note_off_c, 2, 50, 127
1, 96071, Note_off_c, 0, 60, 127
1, 96071, Note_off_c, 7, 67, 127
1, 96071, Note_off_c, 4, 64, 127
1, 96073, Note_on_c, 4, 52, 127
1, 96073, Note_on_c, 0, 60, 127
1, 96073, Note_on_c, 0, 72, 127
1, 96073, Note_on_c, 7, 67, 127
1, 96297, Note_off_c, 4, 52, 127
1, 96299, Note_on_c, 7, 55, 127
1, 96523, Note_off_c, 7, 55, 127
1, 96523, Note_off_c, 7, 67, 127
1, 96523, Note_off_c, 0, 72, 127
1, 96523, Note_off_c, 0, 60, 127
1, 96525, Note_on_c, 5, 53, 127
1, 96525, Note_on_c, 7, 67, 127
1, 96525, Note_on_c, 2, 62, 127
1, 96525, Note_on_c, 12, 71, 127
1, 96749, Note_off_c, 5, 53, 127
1, 96751, Note_on_c, 2, 50, 127
1, 96975, Note_off_c, 2, 50, 127
1, 96975, Note_off_c, 12, 71, 127
1, 96975, Note_off_c, 2, 62, 127
1, 96975, Note_off_c, 7, 67, 127
1, 96977, Note_on_c, 4, 52, 127
1, 96977, Note_on_c, 0, 60, 127
1, 96977, Note_on_c, 7, 67, 127
1, 96977, Note_on_c, 0, 72, 127
1, 97426, Note_off_c, 0, 72, 127
1, 97426, Note_off_c, 7, 67, 127
1, 97426, Note_off_c, 0, 60, 127
1, 97426, Note_off_c, 4, 52, 127
1, 97428, Note_on_c, 4, 52, 127
1, 97428, Note_on_c, 0, 48, 127
1, 97428, Note_on_c, 7, 67, 127
1, 97576, Note_off_c, 7, 67, 127
1, 97578, Note_on_c, 10, 69, 127
1, 97726, Note_off_c, 10, 69, 127
1, 97728, Note_on_c, 11, 70, 127
1, 97876, Note_off_c, 11, 70, 127
1, 97876, Note_off_c, 0, 48, 127
1, 97876, Note_off_c, 4, 52, 127
1, 97878, Note_on_c, 5, 53, 127
1, 97878, Note_on_c, 2, 50, 127
1, 97878, Note_on_c, 11, 70, 127
1, 98026, Note_off_c, 11, 70, 127
1, 98028, Note_on_c, 0, 72, 127
1, 98176, Note_off_c, 0, 72, 127
1, 98178, Note_on_c, 2, 74, 127
1, 98326, Note_off_c, 2, 74, 127
1, 98326, Note_off_c, 2, 50, 127
1, 98326, Note_off_c, 5, 53, 127
1, 98328, Note_on_c, 4, 52, 127
1, 98328, Note_on_c, 7, 55, 127
1, 98328, Note_on_c, 2, 74, 127
1, 98476, Note_off_c, 2, 74, 127
1, 98478, Note_on_c, 0, 72, 127
1, 98626, Note_off_c, 0, 72, 127
1, 98628, Note_on_c, 11, 70, 127
1, 98776, Note_off_c, 11, 70, 127
1, 98776, Note_off_c, 7, 55, 127
1, 98776, Note_off_c, 4, 52, 127
1, 98778, Note_on_c, 5, 53, 127
1, 98778, Note_on_c, 10, 57, 127
1, 98778, Note_on_c, 10, 69, 127
1, 98926, Note_off_c, 10, 69, 127
1, 98928, Note_on_c, 5, 65, 127
1, 99076, Note_off_c, 5, 65, 127
1, 99078, Note_on_c, 7, 67, 127
1, 99226, Note_off_c, 7, 67, 127
1, 99226, Note_off_c, 10, 57, 127
1, 99226, Note_off_c, 5, 53, 127
1, 99228, Note_on_c, 5, 53, 127
1, 99228, Note_on_c, 2, 50, 127
1, 99228, Note_on_c, 10, 69, 127
1, 99376, Note_off_c, 10, 69, 127
1, 99378, Note_on_c, 12, 71, 127
1, 99526, Note_off_c, 12, 71, 127
1, 99528, Note_on_c, 0, 72, 127
1, 99676, Note_off_c, 0, 72, 127
1, 99676, Note_off_c, 2, 50, 127
1, 99676, Note_off_c, 5, 53, 127
1, 99678, Note_on_c, 7, 55, 127
1, 99678, Note_on_c, 4, 52, 127
1, 99678, Note_on_c, 0, 72, 127
1, 99826, Note_off_c, 0, 72, 127
1, 99828, Note_on_c, 2, 74, 127
1, 99976, Note_off_c, 2, 74, 127
1, 99978, Note_on_c, 4, 76, 127
1, 100126, Note_off_c, 4, 76, 127
1, 100126, Note_off_c, 4, 52, 127
1, 100126, Note_off_c, 7, 55, 127
1, 100128, Note_on_c, 10, 57, 127
1, 100128, Note_on_c, 6, 54, 127
1, 100128, Note_on_c, 4, 76, 127
1, 100276, Note_off_c, 4, 76, 127
1, 100278, Note_on_c, 2, 74, 127
1, 100426, Note_off_c, 2, 74, 127
1, 100428, Note_on_c, 0, 72, 127
1, 100576, Note_off_c, 0, 72, 127
1, 100576, Note_off_c, 6, 54, 127
1, 100576, Note_off_c, 10, 57, 127
1, 100578, Note_on_c, 12, 59, 127
1, 100578, Note_on_c, 7, 55, 127
1, 100578, Note_on_c, 12, 71, 127
1, 100726, Note_off_c, 12, 71, 127
1, 100728, Note_on_c, 7, 67, 127
1, 100876, Note_off_c, 7, 67, 127
1, 100878, Note_on_c, 10, 69, 127
1, 101026, Note_off_c, 10, 69, 127
1, 101026, Note_off_c, 7, 55, 127
1, 101026, Note_off_c, 12, 59, 127
1, 101028, Note_on_c, 7, 55, 127
1, 101028, Note_on_c, 4, 52, 127
1, 101028, Note_on_c, 12, 71, 127
1, 101176, Note_off_c, 12, 71, 127
1, 101178, Note_on_c, 0, 72, 127
1, 101326, Note_off_c, 0, 72, 127
1, 101328, Note_on_c, 2, 74, 127
1, 101476, Note_off_c, 2, 74, 127
1, 101476, Note_off_c, 4, 52, 127
1, 101476, Note_off_c, 7, 55, 127
1, 101478, Note_on_c, 6, 54, 127
1, 101478, Note_on_c, 10, 57, 127
1, 101478, Note_on_c, 2, 74, 127
1, 101626, Note_off_c, 2, 74, 127
1, 101628, Note_on_c, 4, 76, 127
1, 101776, Note_off_c, 4, 76, 127
1, 101778, Note_on_c, 5, 77, 127
1, 101926, Note_off_c, 5, 77, 127
1, 101926, Note_off_c, 10, 57, 127
1, 101926, Note_off_c, 6, 54, 127
1, 101928, Note_on_c, 12, 59, 127
1, 101928, Note_on_c, 8, 56, 127
1, 101928, Note_on_c, 5, 77, 127
1, 102076, Note_off_c, 5, 77, 127
1, 102078, Note_on_c, 4, 76, 127
1, 102226, Note_off_c, 4, 76, 127
1, 102228, Note_on_c, 2, 74, 127
1, 102376, Note_off_c, 2, 74, 127
1, 102376, Note_off_c, 8, 56, 127
1, 102376, Note_off_c, 12, 59, 127
1, 102378, Note_on_c, 10, 57, 127
1, 102378, Note_on_c, 0, 72, 127
1, 102526, Note_off_c, 0, 72, 127
1, 102526, Note_off_c, 10, 57, 127
1, 102528, Note_on_c, 12, 59, 127
1, 102528, Note_on_c, 12, 71, 127
1, 102676, Note_off_c, 12, 71, 127
1, 102676, Note_off_c, 12, 59, 127
1, 102678, Note_on_c, 0, 60, 127
1, 102678, Note_on_c, 10, 69, 127
1, 102826, Note_off_c, 10, 69, 127
1, 102826, Note_off_c, 0, 60, 127
1, 102828, Note_on_c, 2, 62, 127
1, 102828, Note_on_c, 5, 77, 127
1, 102976, Note_off_c, 5, 77, 127
1, 102976, Note_off_c, 2, 62, 127
1, 102978, Note_on_c, 0, 60, 127
1, 102978, Note_on_c, 4, 76, 127
1, 103126, Note_off_c, 4, 76, 127
1, 103126, Note_off_c, 0, 60, 127
1, 103128, Note_on_c, 2, 62, 127
1, 103128, Note_on_c, 5, 77, 127
1, 103276, Note_off_c, 5, 77, 127
1, 103276, Note_off_c, 2, 62, 127
1, 103278, Note_on_c, 12, 59, 127
1, 103278, Note_on_c, 7, 67, 127
1, 103426, Note_off_c, 7, 67, 127
1, 103426, Note_off_c, 12, 59, 127
1, 103428, Note_on_c, 10, 57, 127
1, 103428, Note_on_c, 10, 69, 127
1, 103576, Note_off_c, 10, 69, 127
1, 103576, Note_off_c, 10, 57, 127
1, 103578, Note_on_c, 7, 55, 127
1, 103578, Note_on_c, 12, 71, 127
1, 103726, Note_off_c, 12, 71, 127
1, 103726, Note_off_c, 7, 55, 127
1, 103728, Note_on_c, 0, 60, 127
1, 103728, Note_on_c, 4, 76, 127
1, 103876, Note_off_c, 4, 76, 127
1, 103876, Note_off_c, 0, 60, 127
1, 103878, Note_on_c, 12, 59, 127
1, 103878, Note_on_c, 2, 74, 127
1, 104026, Note_off_c, 2, 74, 127
1, 104026, Note_off_c, 12, 59, 127
1, 104028, Note_on_c, 0, 60, 127
1, 104028, Note_on_c, 4, 76, 127
1, 104176, Note_off_c, 4, 76, 127
1, 104176, Note_off_c, 0, 60, 127
1, 104178, Note_on_c, 10, 57, 127
1, 104178, Note_on_c, 5, 65, 127
1, 104326, Note_off_c, 5, 65, 127
1, 104326, Note_off_c, 10, 57, 127
1, 104328, Note_on_c, 7, 55, 127
1, 104328, Note_on_c, 7, 67, 127
1, 104476, Note_off_c, 7, 67, 127
1, 104476, Note_off_c, 7, 55, 127
1, 104478, Note_on_c, 5, 53, 127
1, 104478, Note_on_c, 10, 69, 127
1, 104626, Note_off_c, 10, 69, 127
1, 104626, Note_off_c, 5, 53, 127
1, 104628, Note_on_c, 12, 59, 127
1, 104628, Note_on_c, 2, 74, 127
1, 104776, Note_off_c, 2, 74, 127
1, 104776, Note_off_c, 12, 59, 127
1, 104778, Note_on_c, 10, 57, 127
1, 104778, Note_on_c, 0, 72, 127
1, 104926, Note_off_c, 0, 72, 127
1, 104926, Note_off_c, 10, 57, 127
1, 104928, Note_on_c, 12, 59, 127
1, 104928, Note_on_c, 2, 74, 127
1, 105076, Note_off_c, 2, 74, 127
1, 105076, Note_off_c, 12, 59, 127
1, 105078, Note_on_c, 7, 55, 127
1, 105078, Note_on_c, 4, 64, 127
1, 105226, Note_off_c, 4, 64, 127
1, 105226, Note_off_c, 7, 55, 127
1, 105228, Note_on_c, 5, 53, 127
1, 105228, Note_on_c, 5, 65, 127
1, 105376, Note_off_c, 5, 65, 127
1, 105376, Note_off_c, 5, 53, 127
1, 105378, Note_on_c, 4, 52, 127
1, 105378, Note_on_c, 7, 67, 127
1, 105526, Note_off_c, 7, 67, 127
1, 105526, Note_off_c, 4, 52, 127
1, 105528, Note_on_c, 10, 57, 127
1, 105528, Note_on_c, 0, 72, 127
1, 105676, Note_off_c, 0, 72, 127
1, 105676, Note_off_c, 10, 57, 127
1, 105678, Note_on_c, 7, 55, 127
1, 105678, Note_on_c, 12, 71, 127
1, 105826, Note_off_c, 12, 71, 127
1, 105826, Note_off_c, 7, 55, 127
1, 105828, Note_on_c, 10, 57, 127
1, 105828, Note_on_c, 0, 72, 127
1, 105976, Note_off_c, 0, 72, 127
1, 105976, Note_off_c, 10, 57, 127
1, 105978, Note_on_c, 5, 53, 127
1, 105978, Note_on_c, 2, 62, 127
1, 106126, Note_off_c, 5, 53, 127
1, 106128, Note_on_c, 4, 52, 127
1, 106128, Note_on_c, 0, 72, 127
1, 106276, Note_off_c, 0, 72, 127
1, 106276, Note_off_c, 4, 52, 127
1, 106276, Note_off_c, 2, 62, 127
1, 106278, Note_on_c, 2, 50, 127
1, 106278, Note_on_c, 12, 71, 127
1, 106426, Note_off_c, 12, 71, 127
1, 106426, Note_off_c, 2, 50, 127
1, 106428, Note_on_c, 7, 55, 127
1, 106428, Note_on_c, 4, 64, 127
1, 106576, Note_off_c, 7, 55, 127
1, 106578, Note_on_c, 4, 52, 127
1, 106578, Note_on_c, 0, 72, 127
1, 106726, Note_off_c, 0, 72, 127
1, 106726, Note_off_c, 4, 52, 127
1, 106726, Note_off_c, 4, 64, 127
1, 106728, Note_on_c, 0, 48, 127
1, 106728, Note_on_c, 12, 71, 127
1, 106876, Note_off_c, 12, 71, 127
1, 106876, Note_off_c, 0, 48, 127
1, 106878, Note_on_c, 10, 57, 127
1, 106878, Note_on_c, 5, 65, 127
1, 107026, Note_off_c, 5, 65, 127
1, 107028, Note_on_c, 0, 72, 127
1, 107176, Note_off_c, 0, 72, 127
1, 107176, Note_off_c, 10, 57, 127
1, 107178, Note_on_c, 0, 48, 127
1, 107178, Note_on_c, 12, 71, 127
1, 107326, Note_off_c, 12, 71, 127
1, 107326, Note_off_c, 0, 48, 127
1, 107328, Note_on_c, 4, 52, 127
1, 107328, Note_on_c, 7, 67, 127
1, 107476, Note_off_c, 7, 67, 127
1, 107478, Note_on_c, 0, 72, 127
1, 107626, Note_off_c, 0, 72, 127
1, 107626, Note_off_c, 4, 52, 127
1, 107628, Note_on_c, 0, 48, 127
1, 107628, Note_on_c, 11, 70, 127
1, 107776, Note_off_c, 11, 70, 127
1, 107776, Note_off_c, 0, 48, 127
1, 107778, Note_on_c, 5, 53, 127
1, 107778, Note_on_c, 10, 69, 127
1, 107926, Note_off_c, 10, 69, 127
1, 107926, Note_off_c, 5, 53, 127
1, 107928, Note_on_c, 7, 55, 127
1, 107928, Note_on_c, 7, 67, 127
1, 108076, Note_off_c, 7, 67, 127
1, 108076, Note_off_c, 7, 55, 127
1, 108078, Note_on_c, 10, 57, 127
1, 108078, Note_on_c, 5, 65, 127
1, 108226, Note_off_c, 5, 65, 127
1, 108226, Note_off_c, 10, 57, 127
1, 108228, Note_on_c, 6, 54, 127
1, 108228, Note_on_c, 2, 74, 127
1, 108376, Note_off_c, 2, 74, 127
1, 108376, Note_off_c, 6, 54, 127
1, 108378, Note_on_c, 7, 55, 127
1, 108378, Note_on_c, 4, 76, 127
1, 108526, Note_off_c, 4, 76, 127
1, 108526, Note_off_c, 7, 55, 127
1, 108528, Note_on_c, 10, 57, 127
1, 108528, Note_on_c, 0, 72, 127
1, 108676, Note_off_c, 0, 72, 127
1, 108676, Note_off_c, 10, 57, 127
1, 108678, Note_on_c, 7, 55, 127
1, 108678, Note_on_c, 12, 71, 127
1, 108826, Note_off_c, 12, 71, 127
1, 108826, Note_off_c, 7, 55, 127
1, 108828, Note_on_c, 10, 57, 127
1, 108828, Note_on_c, 10, 69, 127
1, 108976, Note_off_c, 10, 69, 127
1, 108976, Note_off_c, 10, 57, 127
1, 108978, Note_on_c, 12, 59, 127
1, 108978, Note_on_c, 7, 67, 127
1, 109126, Note_off_c, 7, 67, 127
1, 109126, Note_off_c, 12, 59, 127
1, 109128, Note_on_c, 8, 56, 127
1, 109128, Note_on_c, 4, 76, 127
1, 109276, Note_off_c, 4, 76, 127
1, 109276, Note_off_c, 8, 56, 127
1, 109278, Note_on_c, 10, 57, 127
1, 109278, Note_on_c, 5, 77, 127
1, 109426, Note_off_c, 5, 77, 127
1, 109426, Note_off_c, 10, 57, 127
1, 109428, Note_on_c, 12, 59, 127
1, 109428, Note_on_c, 2, 74, 127
1, 109576, Note_off_c, 2, 74, 127
1, 109576, Note_off_c, 12, 59, 127
1, 109578, Note_on_c, 10, 57, 127
1, 109578, Note_on_c, 0, 72, 127
1, 109726, Note_off_c, 0, 72, 127
1, 109726, Note_off_c, 10, 57, 127
1, 109728, Note_on_c, 12, 59, 127
1, 109728, Note_on_c, 12, 71, 127
1, 109876, Note_off_c, 12, 71, 127
1, 109876, Note_off_c, 12, 59, 127
1, 109878, Note_on_c, 0, 60, 127
1, 109878, Note_on_c, 10, 69, 127
1, 110026, Note_off_c, 10, 69, 127
1, 110026, Note_off_c, 0, 60, 127
1, 110028, Note_on_c, 10, 57, 127
1, 110028, Note_on_c, 5, 77, 127
1, 110176, Note_off_c, 5, 77, 127
1, 110176, Note_off_c, 10, 57, 127
1, 110178, Note_on_c, 12, 59, 127
1, 110178, Note_on_c, 7, 79, 127
1, 110326, Note_off_c, 7, 79, 127
1, 110326, Note_off_c, 12, 59, 127
1, 110328, Note_on_c, 0, 60, 127
1, 110328, Note_on_c, 4, 76, 127
1, 110476, Note_off_c, 4, 76, 127
1, 110476, Note_off_c, 0, 60, 127
1, 110478, Note_on_c, 12, 59, 127
1, 110478, Note_on_c, 2, 74, 127
1, 110626, Note_off_c, 2, 74, 127
1, 110626, Note_off_c, 12, 59, 127
1, 110628, Note_on_c, 0, 60, 127
1, 110628, Note_on_c, 0, 72, 127
1, 110776, Note_off_c, 0, 72, 127
1, 110776, Note_off_c, 0, 60, 127
1, 110778, Note_on_c, 2, 62, 127
1, 110778, Note_on_c, 12, 71, 127
1, 110926, Note_off_c, 12, 71, 127
1, 110926, Note_off_c, 2, 62, 127
1, 110928, Note_on_c, 12, 59, 127
1, 110928, Note_on_c, 7, 79, 127
1, 111076, Note_off_c, 7, 79, 127
1, 111076, Note_off_c, 12, 59, 127
1, 111078, Note_on_c, 0, 60, 127
1, 111078, Note_on_c, 10, 81, 127
1, 111226, Note_off_c, 10, 81, 127
1, 111226, Note_off_c, 0, 60, 127
1, 111228, Note_on_c, 2, 62, 127
1, 111228, Note_on_c, 5, 77, 127
1, 111376, Note_off_c, 5, 77, 127
1, 111376, Note_off_c, 2, 62, 127
1, 111378, Note_on_c, 0, 60, 127
1, 111378, Note_on_c, 4, 76, 127
1, 111526, Note_off_c, 4, 76, 127
1, 111526, Note_off_c, 0, 60, 127
1, 111528, Note_on_c, 2, 62, 127
1, 111528, Note_on_c, 2, 74, 127
1, 111676, Note_off_c, 2, 74, 127
1, 111676, Note_off_c, 2, 62, 127
1, 111678, Note_on_c, 4, 64, 127
1, 111678, Note_on_c, 0, 72, 127
1, 111826, Note_off_c, 0, 72, 127
1, 111826, Note_off_c, 4, 64, 127
1, 111828, Note_on_c, 6, 66, 127
1, 111828, Note_on_c, 0, 72, 127
1, 111828, Note_on_c, 10, 81, 127
1, 111976, Note_off_c, 6, 66, 127
1, 111978, Note_on_c, 4, 64, 127
1, 112126, Note_off_c, 4, 64, 127
1, 112126, Note_off_c, 10, 81, 127
1, 112126, Note_off_c, 0, 72, 127
1, 112128, Note_on_c, 6, 66, 127
1, 112128, Note_on_c, 0, 72, 127
1, 112128, Note_on_c, 10, 81, 127
1, 112276, Note_off_c, 0, 72, 127
1, 112276, Note_off_c, 6, 66, 127
1, 112278, Note_on_c, 3, 63, 127
1, 112278, Note_on_c, 12, 71, 127
1, 112426, Note_off_c, 3, 63, 127
1, 112426, Note_off_c, 10, 81, 127
1, 112428, Note_on_c, 1, 61, 127
1, 112576, Note_off_c, 1, 61, 127
1, 112576, Note_off_c, 12, 71, 127
1, 112578, Note_on_c, 12, 59, 127
1, 112578, Note_on_c, 10, 81, 127
1, 112726, Note_off_c, 12, 59, 127
1, 112728, Note_on_c, 4, 64, 127
1, 112728, Note_on_c, 12, 71, 127
1, 112876, Note_off_c, 4, 64, 127
1, 112876, Note_off_c, 10, 81, 127
1, 112878, Note_on_c, 2, 62, 127
1, 113026, Note_off_c, 2, 62, 127
1, 113026, Note_off_c, 12, 71, 127
1, 113028, Note_on_c, 4, 64, 127
1, 113028, Note_on_c, 7, 79, 127
1, 113176, Note_off_c, 7, 79, 127
1, 113176, Note_off_c, 4, 64, 127
1, 113178, Note_on_c, 1, 61, 127
1, 113178, Note_on_c, 4, 76, 127
1, 113178, Note_on_c, 7, 79, 127
1, 113178, Note_on_c, 10, 69, 127
1, 113326, Note_off_c, 1, 61, 127
1, 113328, Note_on_c, 12, 59, 127
1, 113476, Note_off_c, 12, 59, 127
1, 113478, Note_on_c, 10, 57, 127
1, 113626, Note_off_c, 10, 57, 127
1, 113626, Note_off_c, 10, 69, 127
1, 113626, Note_off_c, 7, 79, 127
1, 113626, Note_off_c, 4, 76, 127
1, 113628, Note_on_c, 2, 62, 127
1, 113628, Note_on_c, 6, 78, 127
1, 113628, Note_on_c, 10, 69, 127
1, 113628, Note_on_c, 2, 74, 127
1, 113776, Note_off_c, 2, 62, 127
1, 113778, Note_on_c, 0, 60, 127
1, 113926, Note_off_c, 0, 60, 127
1, 113926, Note_off_c, 2, 74, 127
1, 113926, Note_off_c, 10, 69, 127
1, 113926, Note_off_c, 6, 78, 127
1, 113928, Note_on_c, 2, 62, 127
1, 113928, Note_on_c, 2, 74, 127
1, 113928, Note_on_c, 10, 69, 127
1, 113928, Note_on_c, 6, 78, 127
1, 114076, Note_off_c, 6, 78, 127
1, 114076, Note_off_c, 10, 69, 127
1, 114076, Note_off_c, 2, 74, 127
1, 114076, Note_off_c, 2, 62, 127
1, 114078, Note_on_c, 12, 59, 127
1, 114078, Note_on_c, 7, 67, 127
1, 114226, Note_off_c, 12, 59, 127
1, 114228, Note_on_c, 10, 57, 127
1, 114376, Note_off_c, 10, 57, 127
1, 114376, Note_off_c, 7, 67, 127
1, 114378, Note_on_c, 7, 55, 127
1, 114378, Note_on_c, 5, 77, 127
1, 114526, Note_off_c, 7, 55, 127
1, 114528, Note_on_c, 0, 60, 127
1, 114528, Note_on_c, 7, 67, 127
1, 114676, Note_off_c, 0, 60, 127
1, 114676, Note_off_c, 5, 77, 127
1, 114678, Note_on_c, 12, 59, 127
1, 114826, Note_off_c, 12, 59, 127
1, 114826, Note_off_c, 7, 67, 127
1, 114828, Note_on_c, 0, 60, 127
1, 114828, Note_on_c, 4, 76, 127
1, 114976, Note_off_c, 4, 76, 127
1, 114976, Note_off_c, 0, 60, 127
1, 114978, Note_on_c, 10, 57, 127
1, 114978, Note_on_c, 4, 76, 127
1, 114978, Note_on_c, 6, 66, 127
1, 114978, Note_on_c, 0, 72, 127
1, 115126, Note_off_c, 10, 57, 127
1, 115128, Note_on_c, 7, 55, 127
1, 115276, Note_off_c, 7, 55, 127
1, 115278, Note_on_c, 6, 54, 127
1, 115426, Note_off_c, 6, 54, 127
1, 115426, Note_off_c, 0, 72, 127
1, 115426, Note_off_c, 6, 66, 127
1, 115426, Note_off_c, 4, 76, 127
1, 115428, Note_on_c, 12, 59, 127
1, 115428, Note_on_c, 3, 75, 127
1, 115576, Note_off_c, 3, 75, 127
1, 115578, Note_on_c, 1, 73, 127
1, 115726, Note_off_c, 1, 73, 127
1, 115726, Note_off_c, 12, 59, 127
1, 115728, Note_on_c, 10, 57, 127
1, 115728, Note_on_c, 12, 71, 127
1, 115876, Note_off_c, 12, 71, 127
1, 115876, Note_off_c, 10, 57, 127
1, 115878, Note_on_c, 7, 55, 127
1, 115878, Note_on_c, 4, 76, 127
1, 116026, Note_off_c, 4, 76, 127
1, 116026, Note_off_c, 7, 55, 127
1, 116028, Note_on_c, 4, 52, 127
1, 116028, Note_on_c, 2, 74, 127
1, 116176, Note_off_c, 2, 74, 127
1, 116176, Note_off_c, 4, 52, 127
1, 116178, Note_on_c, 6, 54, 127
1, 116178, Note_on_c, 0, 72, 127
1, 116326, Note_off_c, 0, 72, 127
1, 116326, Note_off_c, 6, 54, 127
1, 116328, Note_on_c, 8, 56, 127
1, 116328, Note_on_c, 12, 71, 127
1, 116476, Note_off_c, 12, 71, 127
1, 116476, Note_off_c, 8, 56, 127
1, 116478, Note_on_c, 10, 57, 127
1, 116478, Note_on_c, 0, 72, 127
1, 116626, Note_off_c, 0, 72, 127
1, 116626, Note_off_c, 10, 57, 127
1, 116628, Note_on_c, 12, 59, 127
1, 116628, Note_on_c, 2, 74, 127
1, 116776, Note_off_c, 2, 74, 127
1, 116776, Note_off_c, 12, 59, 127
1, 116778, Note_on_c, 10, 57, 127
1, 116778, Note_on_c, 0, 72, 127
1, 116926, Note_off_c, 0, 72, 127
1, 116926, Note_off_c, 10, 57, 127
1, 116928, Note_on_c, 12, 59, 127
1, 116928, Note_on_c, 12, 71, 127
1, 117076, Note_off_c, 12, 71, 127
1, 117076, Note_off_c, 12, 59, 127
1, 117078, Note_on_c, 0, 60, 127
1, 117078, Note_on_c, 10, 69, 127
1, 117226, Note_off_c, 10, 69, 127
1, 117226, Note_off_c, 0, 60, 127
1, 117228, Note_on_c, 2, 62, 127
1, 117228, Note_on_c, 12, 71, 127
1, 117376, Note_off_c, 12, 71, 127
1, 117376, Note_off_c, 2, 62, 127
1, 117378, Note_on_c, 0, 60, 127
1, 117378, Note_on_c, 10, 69, 127
1, 117526, Note_off_c, 10, 69, 127
1, 117526, Note_off_c, 0, 60, 127
1, 117528, Note_on_c, 12, 59, 127
1, 117528, Note_on_c, 8, 68, 127
1, 117676, Note_off_c, 8, 68, 127
1, 117676, Note_off_c, 12, 59, 127
1, 117678, Note_on_c, 0, 60, 127
1, 117678, Note_on_c, 10, 69, 127
1, 117826, Note_off_c, 10, 69, 127
1, 117826, Note_off_c, 0, 60, 127
1, 117828, Note_on_c, 12, 59, 127
1, 117828, Note_on_c, 12, 71, 127
1, 117976, Note_off_c, 12, 71, 127
1, 117976, Note_off_c, 12, 59, 127
1, 117978, Note_on_c, 10, 57, 127
1, 117978, Note_on_c, 0, 72, 127
1, 118126, Note_off_c, 0, 72, 127
1, 118126, Note_off_c, 10, 57, 127
1, 118128, Note_on_c, 7, 55, 127
1, 118128, Note_on_c, 12, 71, 127
1, 118276, Note_off_c, 12, 71, 127
1, 118276, Note_off_c, 7, 55, 127
1, 118278, Note_on_c, 10, 57, 127
1, 118278, Note_on_c, 10, 69, 127
1, 118426, Note_off_c, 10, 69, 127
1, 118426, Note_off_c, 10, 57, 127
1, 118428, Note_on_c, 12, 59, 127
1, 118428, Note_on_c, 7, 67, 127
1, 118576, Note_off_c, 7, 67, 127
1, 118576, Note_off_c, 12, 59, 127
1, 118578, Note_on_c, 0, 60, 127
1, 118578, Note_on_c, 10, 69, 127
1, 118726, Note_off_c, 10, 69, 127
1, 118726, Note_off_c, 0, 60, 127
1, 118728, Note_on_c, 12, 59, 127
1, 118728, Note_on_c, 7, 67, 127
1, 118876, Note_off_c, 7, 67, 127
1, 118876, Note_off_c, 12, 59, 127
1, 118878, Note_on_c, 10, 57, 127
1, 118878, Note_on_c, 6, 66, 127
1, 119026, Note_off_c, 6, 66, 127
1, 119026, Note_off_c, 10, 57, 127
1, 119028, Note_on_c, 12, 59, 127
1, 119028, Note_on_c, 7, 67, 127
1, 119176, Note_off_c, 7, 67, 127
1, 119176, Note_off_c, 12, 59, 127
1, 119178, Note_on_c, 10, 57, 127
1, 119178, Note_on_c, 10, 69, 127
1, 119326, Note_off_c, 10, 69, 127
1, 119326, Note_off_c, 10, 57, 127
1, 119328, Note_on_c, 7, 55, 127
1, 119328, Note_on_c, 12, 71, 127
1, 119476, Note_off_c, 12, 71, 127
1, 119476, Note_off_c, 7, 55, 127
1, 119478, Note_on_c, 6, 54, 127
1, 119478, Note_on_c, 10, 69, 127
1, 119626, Note_off_c, 10, 69, 127
1, 119626, Note_off_c, 6, 54, 127
1, 119628, Note_on_c, 7, 55, 127
1, 119628, Note_on_c, 7, 67, 127
1, 119776, Note_off_c, 7, 67, 127
1, 119776, Note_off_c, 7, 55, 127
1, 119778, Note_on_c, 10, 57, 127
1, 119778, Note_on_c, 6, 66, 127
1, 119926, Note_off_c, 6, 66, 127
1, 119926, Note_off_c, 10, 57, 127
1, 119928, Note_on_c, 12, 59, 127
1, 119928, Note_on_c, 7, 67, 127
1, 120076, Note_off_c, 7, 67, 127
1, 120076, Note_off_c, 12, 59, 127
1, 120078, Note_on_c, 10, 57, 127
1, 120078, Note_on_c, 6, 66, 127
1, 120226, Note_off_c, 6, 66, 127
1, 120226, Note_off_c, 10, 57, 127
1, 120228, Note_on_c, 7, 55, 127
1, 120228, Note_on_c, 4, 64, 127
1, 120376, Note_off_c, 4, 64, 127
1, 120376, Note_off_c, 7, 55, 127
1, 120378, Note_on_c, 10, 57, 127
1, 120378, Note_on_c, 6, 66, 127
1, 120526, Note_off_c, 6, 66, 127
1, 120526, Note_off_c, 10, 57, 127
1, 120528, Note_on_c, 7, 55, 127
1, 120528, Note_on_c, 7, 67, 127
1, 120676, Note_off_c, 7, 67, 127
1, 120676, Note_off_c, 7, 55, 127
1, 120678, Note_on_c, 6, 54, 127
1, 120678, Note_on_c, 10, 69, 127
1, 120826, Note_off_c, 10, 69, 127
1, 120826, Note_off_c, 6, 54, 127
1, 120828, Note_on_c, 4, 52, 127
1, 120828, Note_on_c, 7, 67, 127
1, 120976, Note_off_c, 7, 67, 127
1, 120976, Note_off_c, 4, 52, 127
1, 120978, Note_on_c, 6, 54, 127
1, 120978, Note_on_c, 6, 66, 127
1, 121126, Note_off_c, 6, 66, 127
1, 121126, Note_off_c, 6, 54, 127
1, 121128, Note_on_c, 7, 55, 127
1, 121128, Note_on_c, 4, 64, 127
1, 121276, Note_off_c, 4, 64, 127
1, 121276, Note_off_c, 7, 55, 127
1, 121278, Note_on_c, 10, 57, 127
1, 121278, Note_on_c, 6, 66, 127
1, 121426, Note_off_c, 10, 57, 127
1, 121428, Note_on_c, 7, 55, 127
1, 121428, Note_on_c, 4, 64, 127
1, 121576, Note_off_c, 4, 64, 127
1, 121576, Note_off_c, 7, 55, 127
1, 121578, Note_on_c, 6, 54, 127
1, 121578, Note_on_c, 3, 63, 127
1, 121724, Note_off_c, 6, 66, 127
1, 121726, Note_off_c, 6, 54, 127
1, 121728, Note_on_c, 7, 55, 127
1, 121728, Note_on_c, 0, 72, 127
1, 121876, Note_off_c, 7, 55, 127
1, 121878, Note_on_c, 6, 54, 127
1, 122026, Note_off_c, 6, 54, 127
1, 122026, Note_off_c, 0, 72, 127
1, 122028, Note_on_c, 4, 52, 127
1, 122028, Note_on_c, 0, 72, 127
1, 122176, Note_off_c, 0, 72, 127
1, 122176, Note_off_c, 4, 52, 127
1, 122176, Note_off_c, 3, 63, 127
1, 122178, Note_on_c, 6, 54, 127
1, 122178, Note_on_c, 0, 72, 127
1, 122178, Note_on_c, 10, 69, 127
1, 122178, Note_on_c, 6, 66, 127
1, 122178, Note_on_c, 3, 63, 127
1, 122326, Note_off_c, 6, 54, 127
1, 122328, Note_on_c, 7, 55, 127
1, 122476, Note_off_c, 7, 55, 127
1, 122478, Note_on_c, 10, 57, 127
1, 122626, Note_off_c, 10, 57, 127
1, 122628, Note_on_c, 7, 55, 127
1, 122776, Note_off_c, 7, 55, 127
1, 122778, Note_on_c, 6, 54, 127
1, 122926, Note_off_c, 6, 54, 127
1, 122928, Note_on_c, 4, 52, 127
1, 123076, Note_off_c, 4, 52, 127
1, 123078, Note_on_c, 6, 54, 127
1, 123226, Note_off_c, 6, 54, 127
1, 123228, Note_on_c, 4, 52, 127
1, 123303, Note_off_c, 3, 63, 127
1, 123303, Note_off_c, 6, 66, 127
1, 123303, Note_off_c, 10, 69, 127
1, 123303, Note_off_c, 0, 72, 127
1, 123376, Note_off_c, 4, 52, 127
1, 123378, Note_on_c, 3, 51, 127
1, 123526, Note_off_c, 3, 51, 127
1, 123528, Note_on_c, 4, 52, 127
1, 123528, Note_on_c, 12, 71, 127
1, 123528, Note_on_c, 7, 67, 127
1, 123528, Note_on_c, 4, 64, 127
1, 123676, Note_off_c, 4, 52, 127
1, 123678, Note_on_c, 6, 54, 127
1, 123826, Note_off_c, 6, 54, 127
1, 123826, Note_off_c, 12, 71, 127
1, 123828, Note_on_c, 7, 55, 127
1, 123828, Note_on_c, 12, 71, 127
1, 123974, Note_off_c, 4, 64, 127
1, 123974, Note_off_c, 7, 67, 127
1, 123976, Note_off_c, 12, 71, 127
1, 123976, Note_off_c, 7, 55, 127
1, 123978, Note_on_c, 6, 54, 127
1, 123978, Note_on_c, 3, 75, 127
1, 123978, Note_on_c, 10, 69, 127
1, 123978, Note_on_c, 6, 66, 127
1, 124126, Note_off_c, 6, 54, 127
1, 124128, Note_on_c, 4, 52, 127
1, 124276, Note_off_c, 4, 52, 127
1, 124278, Note_on_c, 3, 51, 127
1, 124426, Note_off_c, 3, 51, 127
1, 124428, Note_on_c, 4, 52, 127
1, 124576, Note_off_c, 4, 52, 127
1, 124578, Note_on_c, 3, 51, 127
1, 124726, Note_off_c, 3, 51, 127
1, 124728, Note_on_c, 1, 49, 127
1, 124876, Note_off_c, 1, 49, 127
1, 124878, Note_on_c, 3, 51, 127
1, 125026, Note_off_c, 3, 51, 127
1, 125028, Note_on_c, 4, 52, 127
1, 125176, Note_off_c, 4, 52, 127
1, 125178, Note_on_c, 6, 54, 127
1, 125326, Note_off_c, 6, 54, 127
1, 125326, Note_off_c, 6, 66, 127
1, 125326, Note_off_c, 10, 69, 127
1, 125326, Note_off_c, 3, 75, 127
1, 125328, Note_on_c, 4, 52, 127
1, 125328, Note_on_c, 10, 81, 127
1, 125328, Note_on_c, 0, 72, 127
1, 125328, Note_on_c, 6, 78, 127
1, 125476, Note_off_c, 4, 52, 127
1, 125478, Note_on_c, 3, 51, 127
1, 125626, Note_off_c, 3, 51, 127
1, 125626, Note_off_c, 6, 78, 127
1, 125626, Note_off_c, 0, 72, 127
1, 125626, Note_off_c, 10, 81, 127
1, 125628, Note_on_c, 1, 49, 127
1, 125628, Note_on_c, 10, 69, 127
1, 125628, Note_on_c, 6, 78, 127
1, 125628, Note_on_c, 10, 81, 127
1, 125776, Note_off_c, 10, 81, 127
1, 125776, Note_off_c, 6, 78, 127
1, 125776, Note_off_c, 10, 69, 127
1, 125776, Note_off_c, 1, 49, 127
1, 125778, Note_on_c, 3, 51, 127
1, 125778, Note_on_c, 6, 78, 127
1, 125778, Note_on_c, 12, 71, 127
1, 125778, Note_on_c, 10, 81, 127
1, 125926, Note_off_c, 12, 71, 127
1, 125926, Note_off_c, 3, 51, 127
1, 125928, Note_on_c, 1, 49, 127
1, 125928, Note_on_c, 12, 71, 127
1, 126076, Note_off_c, 12, 71, 127
1, 126076, Note_off_c, 1, 49, 127
1, 126076, Note_off_c, 10, 81, 127
1, 126076, Note_off_c, 6, 78, 127
1, 126078, Note_on_c, 12, 47, 127
1, 126078, Note_on_c, 1, 73, 127
1, 126226, Note_off_c, 1, 73, 127
1, 126226, Note_off_c, 12, 47, 127
1, 126228, Note_on_c, 6, 54, 127
1, 126228, Note_on_c, 3, 75, 127
1, 126376, Note_off_c, 3, 75, 127
1, 126376, Note_off_c, 6, 54, 127
1, 126378, Note_on_c, 4, 52, 127
1, 126378, Note_on_c, 4, 76, 127
1, 126526, Note_off_c, 4, 76, 127
1, 126526, Note_off_c, 4, 52, 127
1, 126528, Note_on_c, 3, 51, 127
1, 126528, Note_on_c, 6, 78, 127
1, 126676, Note_off_c, 6, 78, 127
1, 126676, Note_off_c, 3, 51, 127
1, 126678, Note_on_c, 10, 57, 127
1, 126678, Note_on_c, 6, 78, 127
1, 126826, Note_off_c, 6, 78, 127
1, 126826, Note_off_c, 10, 57, 127
1, 126828, Note_on_c, 7, 55, 127
1, 126828, Note_on_c, 7, 79, 127
1, 126976, Note_off_c, 7, 79, 127
1, 126976, Note_off_c, 7, 55, 127
1, 126978, Note_on_c, 6, 54, 127
1, 126978, Note_on_c, 10, 81, 127
1, 127126, Note_off_c, 10, 81, 127
1, 127126, Note_off_c, 6, 54, 127
1, 127128, Note_on_c, 0, 60, 127
1, 127128, Note_on_c, 10, 81, 127
1, 127276, Note_off_c, 10, 81, 127
1, 127276, Note_off_c, 0, 60, 127
1, 127278, Note_on_c, 12, 59, 127
1, 127278, Note_on_c, 12, 83, 127
1, 127426, Note_off_c, 12, 83, 127
1, 127426, Note_off_c, 12, 59, 127
1, 127428, Note_on_c, 10, 57, 127
1, 127428, Note_on_c, 0, 84, 127
1, 127576, Note_off_c, 0, 84, 127
1, 127576, Note_off_c, 10, 57, 127
1, 127578, Note_on_c, 3, 63, 127
1, 127578, Note_on_c, 0, 84, 127
1, 127726, Note_off_c, 0, 84, 127
1, 127728, Note_on_c, 12, 83, 127
1, 127876, Note_off_c, 12, 83, 127
1, 127876, Note_off_c, 3, 63, 127
1, 127878, Note_on_c, 12, 59, 127
1, 127878, Note_on_c, 10, 81, 127
1, 128026, Note_off_c, 10, 81, 127
1, 128026, Note_off_c, 12, 59, 127
1, 128028, Note_on_c, 4, 64, 127
1, 128028, Note_on_c, 7, 55, 127
1, 128028, Note_on_c, 12, 83, 127
1, 128327, Note_off_c, 12, 83, 127
1, 128327, Note_off_c, 7, 55, 127
1, 128327, Note_off_c, 4, 64, 127
1, 128329, Note_on_c, 10, 57, 127
1, 128329, Note_on_c, 0, 84, 127
1, 128477, Note_off_c, 0, 84, 127
1, 128477, Note_off_c, 10, 57, 127
1, 128479, Note_on_c, 12, 59, 127
1, 128479, Note_on_c, 3, 75, 127
1, 128479, Note_on_c, 7, 79, 127
1, 128703, Note_off_c, 7, 79, 127
1, 128705, Note_on_c, 6, 78, 127
1, 128761, Note_on_c, 7, 79, 127
1, 128777, Note_off_c, 6, 78, 127
1, 128817, Note_on_c, 6, 78, 127
1, 128833, Note_off_c, 7, 79, 127
1, 128873, Note_on_c, 7, 79, 127
1, 128889, Note_off_c, 6, 78, 127
1, 128927, Note_off_c, 12, 59, 127
1, 128929, Note_on_c, 12, 47, 127
1, 128929, Note_on_c, 6, 78, 127
1, 128945, Note_off_c, 7, 79, 127
1, 129300, Note_on_c, 4, 76, 127
1, 129305, Note_off_c, 6, 78, 127
1, 129371, Note_off_c, 3, 75, 127
1, 129373, Note_off_c, 4, 76, 127
1, 129378, Note_off_c, 12, 47, 127
1, 129380, Note_on_c, 4, 64, 127
1, 129380, Note_on_c, 6, 78, 127
1, 129528, Note_off_c, 4, 64, 127
1, 129530, Note_on_c, 6, 66, 127
1, 129603, Note_off_c, 6, 78, 127
1, 129605, Note_on_c, 4, 76, 127
1, 129673, Note_on_c, 6, 78, 127
1, 129678, Note_off_c, 4, 76, 127
1, 129678, Note_off_c, 6, 66, 127
1, 129680, Note_on_c, 7, 67, 127
1, 129741, Note_on_c, 4, 76, 127
1, 129746, Note_off_c, 6, 78, 127
1, 129810, Note_on_c, 6, 78, 127
1, 129815, Note_off_c, 4, 76, 127
1, 129829, Note_off_c, 7, 67, 127
1, 129831, Note_on_c, 6, 66, 127
1, 129878, Note_on_c, 4, 76, 127
1, 129883, Note_off_c, 6, 78, 127
1, 129947, Note_on_c, 6, 78, 127
1, 129952, Note_off_c, 4, 76, 127
1, 129980, Note_off_c, 6, 66, 127
1, 129982, Note_on_c, 4, 64, 127
1, 130015, Note_on_c, 4, 76, 127
1, 130020, Note_off_c, 6, 78, 127
1, 130084, Note_on_c, 6, 78, 127
1, 130089, Note_off_c, 4, 76, 127
1, 130131, Note_off_c, 4, 64, 127
1, 130133, Note_on_c, 3, 63, 127
1, 130152, Note_on_c, 4, 76, 127
1, 130157, Note_off_c, 6, 78, 127
1, 130221, Note_on_c, 6, 78, 127
1, 130226, Note_off_c, 4, 76, 127
1, 130282, Note_off_c, 3, 63, 127
1, 130284, Note_on_c, 4, 64, 127
1, 130286, Note_on_c, 4, 76, 127
1, 130293, Note_off_c, 6, 78, 127
1, 130354, Note_on_c, 6, 78, 127
1, 130359, Note_off_c, 4, 76, 127
1, 130423, Note_on_c, 4, 76, 127
1, 130428, Note_off_c, 6, 78, 127
1, 130433, Note_off_c, 4, 64, 127
1, 130435, Note_on_c, 2, 62, 127
1, 130583, Note_off_c, 2, 62, 127
1, 130585, Note_on_c, 0, 60, 127
1, 130733, Note_off_c, 0, 60, 127
1, 130735, Note_on_c, 2, 62, 127
1, 130879, Note_off_c, 4, 76, 127
1, 130884, Note_off_c, 2, 62, 127
1, 130886, Note_on_c, 0, 60, 127
1, 130886, Note_on_c, 6, 78, 127
1, 131034, Note_off_c, 6, 78, 127
1, 131034, Note_off_c, 0, 60, 127
1, 131036, Note_on_c, 12, 59, 127
1, 131036, Note_on_c, 8, 80, 127
1, 131184, Note_off_c, 8, 80, 127
1, 131184, Note_off_c, 12, 59, 127
1, 131186, Note_on_c, 0, 60, 127
1, 131186, Note_on_c, 10, 81, 127
1, 131334, Note_off_c, 10, 81, 127
1, 131334, Note_off_c, 0, 60, 127
1, 131336, Note_on_c, 2, 62, 127
1, 131336, Note_on_c, 12, 83, 127
1, 131484, Note_off_c, 12, 83, 127
1, 131484, Note_off_c, 2, 62, 127
1, 131486, Note_on_c, 4, 64, 127
1, 131486, Note_on_c, 0, 84, 127
1, 131634, Note_off_c, 0, 84, 127
1, 131634, Note_off_c, 4, 64, 127
1, 131636, Note_on_c, 2, 62, 127
1, 131636, Note_on_c, 12, 83, 127
1, 131784, Note_off_c, 12, 83, 127
1, 131784, Note_off_c, 2, 62, 127
1, 131786, Note_on_c, 0, 60, 127
1, 131786, Note_on_c, 10, 81, 127
1, 131934, Note_off_c, 10, 81, 127
1, 131934, Note_off_c, 0, 60, 127
1, 131936, Note_on_c, 12, 59, 127
1, 131936, Note_on_c, 7, 79, 127
1, 132084, Note_off_c, 7, 79, 127
1, 132084, Note_off_c, 12, 59, 127
1, 132086, Note_on_c, 0, 60, 127
1, 132086, Note_on_c, 10, 81, 127
1, 132234, Note_off_c, 10, 81, 127
1, 132234, Note_off_c, 0, 60, 127
1, 132236, Note_on_c, 12, 59, 127
1, 132236, Note_on_c, 7, 79, 127
1, 132384, Note_off_c, 7, 79, 127
1, 132384, Note_off_c, 12, 59, 127
1, 132386, Note_on_c, 10, 57, 127
1, 132386, Note_on_c, 6, 78, 127
1, 132534, Note_off_c, 6, 78, 127
1, 132534, Note_off_c, 10, 57, 127
1, 132536, Note_on_c, 12, 59, 127
1, 132536, Note_on_c, 7, 79, 127
1, 132684, Note_off_c, 7, 79, 127
1, 132684, Note_off_c, 12, 59, 127
1, 132686, Note_on_c, 10, 57, 127
1, 132686, Note_on_c, 6, 78, 127
1, 132834, Note_off_c, 6, 78, 127
1, 132834, Note_off_c, 10, 57, 127
1, 132836, Note_on_c, 7, 55, 127
1, 132836, Note_on_c, 4, 76, 127
1, 132984, Note_off_c, 4, 76, 127
1, 132984, Note_off_c, 7, 55, 127
1, 132986, Note_on_c, 10, 57, 127
1, 132986, Note_on_c, 6, 78, 127
1, 133134, Note_off_c, 10, 57, 127
1, 133136, Note_on_c, 12, 59, 127
1, 133284, Note_off_c, 12, 59, 127
1, 133286, Note_on_c, 0, 60, 127
1, 133434, Note_off_c, 0, 60, 127
1, 133434, Note_off_c, 6, 78, 127
1, 133436, Note_on_c, 3, 51, 127
1, 133436, Note_on_c, 10, 81, 127
1, 133584, Note_off_c, 3, 51, 127
1, 133586, Note_on_c, 0, 60, 127
1, 133734, Note_off_c, 0, 60, 127
1, 133734, Note_off_c, 10, 81, 127
1, 133736, Note_on_c, 12, 59, 127
1, 133736, Note_on_c, 7, 79, 127
1, 133884, Note_off_c, 7, 79, 127
1, 133884, Note_off_c, 12, 59, 127
1, 133886, Note_on_c, 10, 57, 127
1, 133886, Note_on_c, 7, 79, 127
1, 133952, Note_on_c, 6, 78, 127
1, 133959, Note_off_c, 7, 79, 127
1, 134018, Note_on_c, 7, 79, 127
1, 134025, Note_off_c, 6, 78, 127
1, 134034, Note_off_c, 10, 57, 127
1, 134036, Note_on_c, 12, 59, 127
1, 134083, Note_on_c, 6, 78, 127
1, 134090, Note_off_c, 7, 79, 127
1, 134149, Note_on_c, 7, 79, 127
1, 134156, Note_off_c, 6, 78, 127
1, 134184, Note_off_c, 12, 59, 127
1, 134186, Note_on_c, 0, 60, 127
1, 134214, Note_on_c, 6, 78, 127
1, 134221, Note_off_c, 7, 79, 127
1, 134334, Note_off_c, 0, 60, 127
1, 134336, Note_on_c, 4, 52, 127
1, 134336, Note_on_c, 4, 76, 127
1, 134343, Note_off_c, 6, 78, 127
1, 134484, Note_off_c, 4, 52, 127
1, 134486, Note_on_c, 0, 60, 127
1, 134634, Note_off_c, 0, 60, 127
1, 134636, Note_on_c, 12, 59, 127
1, 134784, Note_off_c, 12, 59, 127
1, 134784, Note_off_c, 4, 76, 127
1, 134786, Note_on_c, 10, 57, 127
1, 134786, Note_on_c, 3, 75, 127
1, 134934, Note_off_c, 10, 57, 127
1, 134936, Note_on_c, 12, 59, 127
1, 135084, Note_off_c, 12, 59, 127
1, 135086, Note_on_c, 0, 60, 127
1, 135234, Note_off_c, 0, 60, 127
1, 135234, Note_off_c, 3, 75, 127
1, 135236, Note_on_c, 6, 54, 127
1, 135236, Note_on_c, 6, 78, 127
1, 135384, Note_off_c, 6, 54, 127
1, 135386, Note_on_c, 0, 60, 127
1, 135534, Note_off_c, 0, 60, 127
1, 135534, Note_off_c, 6, 78, 127
1, 135536, Note_on_c, 12, 59, 127
1, 135536, Note_on_c, 4, 76, 127
1, 135684, Note_off_c, 4, 76, 127
1, 135684, Note_off_c, 12, 59, 127
1, 135686, Note_on_c, 10, 57, 127
1, 135686, Note_on_c, 3, 75, 127
1, 135834, Note_off_c, 10, 57, 127
1, 135836, Note_on_c, 0, 60, 127
1, 135984, Note_off_c, 0, 60, 127
1, 135986, Note_on_c, 12, 59, 127
1, 136134, Note_off_c, 12, 59, 127
1, 136134, Note_off_c, 3, 75, 127
1, 136136, Note_on_c, 7, 55, 127
1, 136136, Note_on_c, 4, 76, 127
1, 136284, Note_off_c, 7, 55, 127
1, 136286, Note_on_c, 0, 60, 127
1, 136434, Note_off_c, 0, 60, 127
1, 136434, Note_off_c, 4, 76, 127
1, 136436, Note_on_c, 12, 59, 127
1, 136436, Note_on_c, 6, 78, 127
1, 136584, Note_off_c, 6, 78, 127
1, 136584, Note_off_c, 12, 59, 127
1, 136586, Note_on_c, 10, 57, 127
1, 136586, Note_on_c, 0, 72, 127
1, 136718, Note_on_c, 12, 71, 127
1, 136727, Note_off_c, 0, 72, 127
1, 136734, Note_off_c, 10, 57, 127
1, 136736, Note_on_c, 12, 59, 127
1, 136788, Note_on_c, 0, 72, 127
1, 136790, Note_off_c, 12, 71, 127
1, 136858, Note_on_c, 12, 71, 127
1, 136860, Note_off_c, 0, 72, 127
1, 136884, Note_off_c, 12, 59, 127
1, 136886, Note_on_c, 3, 63, 127
1, 136928, Note_on_c, 0, 72, 127
1, 136930, Note_off_c, 12, 71, 127
1, 136996, Note_on_c, 12, 71, 127
1, 137001, Note_off_c, 0, 72, 127
1, 137034, Note_off_c, 3, 63, 127
1, 137036, Note_on_c, 6, 66, 127
1, 137067, Note_on_c, 0, 72, 127
1, 137069, Note_off_c, 12, 71, 127
1, 137133, Note_on_c, 12, 71, 127
1, 137140, Note_off_c, 0, 72, 127
1, 137185, Note_off_c, 6, 66, 127
1, 137187, Note_on_c, 10, 69, 127
1, 137201, Note_on_c, 0, 72, 127
1, 137206, Note_off_c, 12, 71, 127
1, 137267, Note_on_c, 12, 71, 127
1, 137274, Note_off_c, 0, 72, 127
1, 137333, Note_on_c, 0, 72, 127
1, 137335, Note_off_c, 10, 69, 127
1, 137337, Note_on_c, 6, 66, 127
1, 137339, Note_off_c, 12, 71, 127
1, 137398, Note_on_c, 12, 71, 127
1, 137405, Note_off_c, 0, 72, 127
1, 137464, Note_on_c, 0, 72, 127
1, 137471, Note_off_c, 12, 71, 127
1, 137485, Note_off_c, 6, 66, 127
1, 137487, Note_on_c, 3, 63, 127
1, 137532, Note_on_c, 12, 71, 127
1, 137537, Note_off_c, 0, 72, 127
1, 137598, Note_on_c, 0, 72, 127
1, 137605, Note_off_c, 12, 71, 127
1, 137636, Note_off_c, 3, 63, 127
1, 137638, Note_on_c, 6, 66, 127
1, 137664, Note_on_c, 12, 71, 127
1, 137671, Note_off_c, 0, 72, 127
1, 137730, Note_on_c, 0, 72, 127
1, 137737, Note_off_c, 12, 71, 127
1, 137786, Note_off_c, 6, 66, 127
1, 137788, Note_on_c, 3, 63, 127
1, 137795, Note_on_c, 12, 71, 127
1, 137802, Note_off_c, 0, 72, 127
1, 137861, Note_on_c, 0, 72, 127
1, 137868, Note_off_c, 12, 71, 127
1, 137927, Note_on_c, 12, 71, 127
1, 137936, Note_off_c, 0, 72, 127
1, 137936, Note_off_c, 3, 63, 127
1, 137938, Note_on_c, 12, 59, 127
1, 137992, Note_on_c, 0, 72, 127
1, 137999, Note_off_c, 12, 71, 127
1, 138058, Note_on_c, 12, 71, 127
1, 138065, Note_off_c, 0, 72, 127
1, 138086, Note_off_c, 12, 59, 127
1, 138088, Note_on_c, 3, 63, 127
1, 138123, Note_on_c, 0, 72, 127
1, 138130, Note_off_c, 12, 71, 127
1, 138189, Note_on_c, 12, 71, 127
1, 138196, Note_off_c, 0, 72, 127
1, 138236, Note_off_c, 3, 63, 127
1, 138238, Note_on_c, 12, 59, 127
1, 138386, Note_off_c, 12, 59, 127
1, 138388, Note_on_c, 7, 55, 127
1, 138503, Note_off_c, 12, 71, 127
1, 138536, Note_off_c, 7, 55, 127
1, 138538, Note_on_c, 12, 59, 127
1, 138538, Note_on_c, 4, 76, 127
1, 138686, Note_off_c, 4, 76, 127
1, 138686, Note_off_c, 12, 59, 127
1, 138688, Note_on_c, 7, 55, 127
1, 138688, Note_on_c, 3, 75, 127
1, 138836, Note_off_c, 3, 75, 127
1, 138836, Note_off_c, 7, 55, 127
1, 138838, Note_on_c, 4, 52, 127
1, 138838, Note_on_c, 4, 76, 127
1, 138986, Note_off_c, 4, 76, 127
1, 138986, Note_off_c, 4, 52, 127
1, 138988, Note_on_c, 7, 55, 127
1, 138988, Note_on_c, 12, 71, 127
1, 139136, Note_off_c, 12, 71, 127
1, 139136, Note_off_c, 7, 55, 127
1, 139138, Note_on_c, 4, 52, 127
1, 139138, Note_on_c, 0, 72, 127
1, 139286, Note_off_c, 0, 72, 127
1, 139286, Note_off_c, 4, 52, 127
1, 139288, Note_on_c, 12, 59, 127
1, 139288, Note_on_c, 7, 67, 127
1, 139288, Note_on_c, 3, 63, 127
1, 139512, Note_off_c, 7, 67, 127
1, 139514, Note_on_c, 6, 66, 127
1, 139570, Note_on_c, 7, 67, 127
1, 139586, Note_off_c, 6, 66, 127
1, 139626, Note_on_c, 6, 66, 127
1, 139642, Note_off_c, 7, 67, 127
1, 139682, Note_on_c, 7, 67, 127
1, 139698, Note_off_c, 6, 66, 127
1, 139736, Note_off_c, 12, 59, 127
1, 139738, Note_on_c, 12, 47, 127
1, 139738, Note_on_c, 6, 66, 127
1, 139754, Note_off_c, 7, 67, 127
1, 140036, Note_off_c, 6, 66, 127
1, 140038, Note_on_c, 4, 64, 127
1, 140179, Note_off_c, 3, 63, 127
1, 140186, Note_off_c, 4, 64, 127
1, 140186, Note_off_c, 12, 47, 127
1, 140188, Note_on_c, 4, 40, 127
1, 140188, Note_on_c, 4, 64, 127
1, 140635, Note_off_c, 4, 64, 127
1, 140637, Note_off_c, 4, 40, 127
1, 140639, Note_on_c, 4, 52, 127
1, 140863, Note_off_c, 4, 52, 127
1, 140865, Note_on_c, 6, 54, 127
1, 141089, Note_off_c, 6, 54, 127
1, 141091, Note_on_c, 7, 55, 127
1, 141315, Note_off_c, 7, 55, 127
1, 141317, Note_on_c, 12, 59, 127
1, 141541, Note_off_c, 12, 59, 127
1, 141543, Note_on_c, 10, 57, 127
1, 141767, Note_off_c, 10, 57, 127
1, 141769, Note_on_c, 6, 54, 127
1, 141993, Note_off_c, 6, 54, 127
1, 141995, Note_on_c, 7, 55, 127
1, 142135, Note_off_c, 7, 55, 127
1, 142145, Note_on_c, 6, 54, 127
1, 142285, Note_off_c, 6, 54, 127
1, 142295, Note_on_c, 4, 52, 127
1, 142435, Note_off_c, 4, 52, 127
1, 142445, Note_on_c, 0, 60, 127
1, 142445, Note_on_c, 4, 64, 127
1, 142669, Note_off_c, 4, 64, 127
1, 142671, Note_on_c, 6, 66, 127
1, 142869, Note_off_c, 0, 60, 127
1, 142895, Note_off_c, 6, 66, 127
1, 142897, Note_on_c, 1, 61, 127
1, 142897, Note_on_c, 7, 67, 127
1, 143121, Note_off_c, 7, 67, 127
1, 143123, Note_on_c, 12, 71, 127
1, 143321, Note_off_c, 1, 61, 127
1, 143347, Note_off_c, 12, 71, 127
1, 143349, Note_on_c, 3, 63, 127
1, 143349, Note_on_c, 10, 69, 127
1, 143573, Note_off_c, 10, 69, 127
1, 143575, Note_on_c, 6, 66, 127
1, 143773, Note_off_c, 3, 63, 127
1, 143799, Note_off_c, 6, 66, 127
1, 143801, Note_on_c, 4, 64, 127
1, 143801, Note_on_c, 7, 67, 127
1, 143941, Note_off_c, 7, 67, 127
1, 143951, Note_on_c, 6, 66, 127
1, 144091, Note_off_c, 6, 66, 127
1, 144097, Note_off_c, 4, 64, 127
1, 144101, Note_on_c, 4, 64, 127
1, 144241, Note_off_c, 4, 64, 127
1, 144251, Note_on_c, 10, 45, 127
1, 144251, Note_on_c, 0, 72, 127
1, 144251, Note_on_c, 4, 64, 127
1, 144475, Note_off_c, 10, 45, 127
1, 144477, Note_on_c, 12, 47, 127
1, 144701, Note_off_c, 12, 47, 127
1, 144701, Note_off_c, 4, 64, 127
1, 144701, Note_off_c, 0, 72, 127
1, 144703, Note_on_c, 0, 48, 127
1, 144703, Note_on_c, 0, 60, 127
1, 144703, Note_on_c, 6, 66, 127
1, 144927, Note_off_c, 0, 48, 127
1, 144929, Note_on_c, 4, 52, 127
1, 145153, Note_off_c, 4, 52, 127
1, 145153, Note_off_c, 6, 66, 127
1, 145153, Note_off_c, 0, 60, 127
1, 145155, Note_on_c, 2, 50, 127
1, 145155, Note_on_c, 8, 68, 127
1, 145155, Note_on_c, 12, 59, 127
1, 145379, Note_off_c, 2, 50, 127
1, 145381, Note_on_c, 12, 47, 127
1, 145605, Note_off_c, 12, 47, 127
1, 145605, Note_off_c, 12, 59, 127
1, 145605, Note_off_c, 8, 68, 127
1, 145607, Note_on_c, 0, 48, 127
1, 145607, Note_on_c, 4, 52, 127
1, 145607, Note_on_c, 10, 69, 127
1, 145747, Note_off_c, 0, 48, 127
1, 145757, Note_on_c, 12, 47, 127
1, 145897, Note_off_c, 12, 47, 127
1, 145907, Note_on_c, 10, 45, 127
1, 146047, Note_off_c, 10, 45, 127
1, 146053, Note_off_c, 4, 52, 127
1, 146055, Note_off_c, 10, 69, 127
1, 146057, Note_on_c, 5, 53, 127
1, 146057, Note_on_c, 2, 50, 127
1, 146057, Note_on_c, 10, 69, 127
1, 146281, Note_off_c, 10, 69, 127
1, 146283, Note_on_c, 12, 71, 127
1, 146507, Note_off_c, 12, 71, 127
1, 146507, Note_off_c, 2, 50, 127
1, 146507, Note_off_c, 5, 53, 127
1, 146509, Note_on_c, 6, 54, 127
1, 146509, Note_on_c, 0, 48, 127
1, 146509, Note_on_c, 0, 72, 127
1, 146733, Note_off_c, 0, 72, 127
1, 146735, Note_on_c, 4, 76, 127
1, 146959, Note_off_c, 4, 76, 127
1, 146959, Note_off_c, 0, 48, 127
1, 146959, Note_off_c, 6, 54, 127
1, 146961, Note_on_c, 12, 47, 127
1, 146961, Note_on_c, 8, 56, 127
1, 146961, Note_on_c, 2, 74, 127
1, 147185, Note_off_c, 2, 74, 127
1, 147187, Note_on_c, 12, 71, 127
1, 147411, Note_off_c, 12, 71, 127
1, 147411, Note_off_c, 8, 56, 127
1, 147411, Note_off_c, 12, 47, 127
1, 147413, Note_on_c, 10, 45, 127
1, 147413, Note_on_c, 10, 57, 127
1, 147413, Note_on_c, 0, 72, 127
1, 147561, Note_off_c, 0, 72, 127
1, 147563, Note_on_c, 12, 71, 127
1, 147711, Note_off_c, 12, 71, 127
1, 147713, Note_on_c, 10, 69, 127
1, 147861, Note_off_c, 10, 69, 127
1, 147861, Note_off_c, 10, 57, 127
1, 147861, Note_off_c, 10, 45, 127
1, 147863, Note_on_c, 10, 57, 127
1, 147863, Note_on_c, 5, 53, 127
1, 147863, Note_on_c, 10, 81, 127
1, 148162, Note_off_c, 10, 81, 127
1, 148164, Note_on_c, 7, 79, 127
1, 148312, Note_off_c, 7, 79, 127
1, 148312, Note_off_c, 5, 53, 127
1, 148312, Note_off_c, 10, 57, 127
1, 148314, Note_on_c, 12, 59, 127
1, 148314, Note_on_c, 7, 55, 127
1, 148314, Note_on_c, 5, 77, 127
1, 148462, Note_off_c, 5, 77, 127
1, 148464, Note_on_c, 4, 76, 127
1, 148612, Note_off_c, 4, 76, 127
1, 148614, Note_on_c, 2, 74, 127
1, 148762, Note_off_c, 2, 74, 127
1, 148762, Note_off_c, 7, 55, 127
1, 148762, Note_off_c, 12, 59, 127
1, 148764, Note_on_c, 1, 49, 127
1, 148764, Note_on_c, 11, 58, 127
1, 148764, Note_on_c, 4, 76, 127
1, 148912, Note_off_c, 4, 76, 127
1, 148914, Note_on_c, 5, 77, 127
1, 149062, Note_off_c, 5, 77, 127
1, 149064, Note_on_c, 7, 79, 127
1, 149212, Note_off_c, 7, 79, 127
1, 149212, Note_off_c, 11, 58, 127
1, 149212, Note_off_c, 1, 49, 127
1, 149214, Note_on_c, 10, 57, 127
1, 149214, Note_on_c, 2, 50, 127
1, 149214, Note_on_c, 5, 77, 127
1, 149362, Note_off_c, 5, 77, 127
1, 149364, Note_on_c, 4, 76, 127
1, 149512, Note_off_c, 4, 76, 127
1, 149514, Note_on_c, 2, 74, 127
1, 149662, Note_off_c, 2, 74, 127
1, 149662, Note_off_c, 2, 50, 127
1, 149662, Note_off_c, 10, 57, 127
1, 149664, Note_on_c, 7, 55, 127
1, 149664, Note_on_c, 4, 52, 127
1, 149664, Note_on_c, 7, 79, 127
1, 149963, Note_off_c, 7, 79, 127
1, 149965, Note_on_c, 5, 77, 127
1, 150113, Note_off_c, 5, 77, 127
1, 150113, Note_off_c, 4, 52, 127
1, 150113, Note_off_c, 7, 55, 127
1, 150115, Note_on_c, 5, 53, 127
1, 150115, Note_on_c, 10, 57, 127
1, 150115, Note_on_c, 4, 76, 127
1, 150263, Note_off_c, 4, 76, 127
1, 150265, Note_on_c, 2, 74, 127
1, 150413, Note_off_c, 2, 74, 127
1, 150415, Note_on_c, 0, 72, 127
1, 150563, Note_off_c, 0, 72, 127
1, 150563, Note_off_c, 10, 57, 127
1, 150563, Note_off_c, 5, 53, 127
1, 150565, Note_on_c, 12, 47, 127
1, 150565, Note_on_c, 8, 56, 127
1, 150565, Note_on_c, 2, 74, 127
1, 150713, Note_off_c, 2, 74, 127
1, 150715, Note_on_c, 4, 76, 127
1, 150863, Note_off_c, 4, 76, 127
1, 150865, Note_on_c, 5, 77, 127
1, 151013, Note_off_c, 5, 77, 127
1, 151013, Note_off_c, 8, 56, 127
1, 151013, Note_off_c, 12, 47, 127
1, 151015, Note_on_c, 7, 55, 127
1, 151015, Note_on_c, 0, 48, 127
1, 151015, Note_on_c, 4, 76, 127
1, 151163, Note_off_c, 4, 76, 127
1, 151165, Note_on_c, 2, 74, 127
1, 151313, Note_off_c, 2, 74, 127
1, 151315, Note_on_c, 0, 72, 127
1, 151463, Note_off_c, 0, 72, 127
1, 151463, Note_off_c, 0, 48, 127
1, 151463, Note_off_c, 7, 55, 127
1, 151465, Note_on_c, 0, 60, 127
1, 151465, Note_on_c, 4, 76, 127
1, 151613, Note_off_c, 4, 76, 127
1, 151615, Note_on_c, 5, 77, 127
1, 151763, Note_off_c, 5, 77, 127
1, 151763, Note_off_c, 0, 60, 127
1, 151765, Note_on_c, 11, 58, 127
1, 151765, Note_on_c, 7, 79, 127
1, 151913, Note_off_c, 7, 79, 127
1, 151913, Note_off_c, 11, 58, 127
1, 151915, Note_on_c, 10, 57, 127
1, 151915, Note_on_c, 5, 77, 127
1, 152063, Note_off_c, 5, 77, 127
1, 152063, Note_off_c, 10, 57, 127
1, 152065, Note_on_c, 7, 55, 127
1, 152065, Note_on_c, 7, 79, 127
1, 152213, Note_off_c, 7, 79, 127
1, 152213, Note_off_c, 7, 55, 127
1, 152215, Note_on_c, 5, 53, 127
1, 152215, Note_on_c, 10, 81, 127
1, 152363, Note_off_c, 10, 81, 127
1, 152363, Note_off_c, 5, 53, 127
1, 152365, Note_on_c, 7, 55, 127
1, 152365, Note_on_c, 4, 76, 127
1, 152513, Note_off_c, 4, 76, 127
1, 152513, Note_off_c, 7, 55, 127
1, 152515, Note_on_c, 10, 57, 127
1, 152515, Note_on_c, 5, 77, 127
1, 152663, Note_off_c, 5, 77, 127
1, 152663, Note_off_c, 10, 57, 127
1, 152665, Note_on_c, 11, 58, 127
1, 152665, Note_on_c, 7, 79, 127
1, 152813, Note_off_c, 7, 79, 127
1, 152813, Note_off_c, 11, 58, 127
1, 152815, Note_on_c, 10, 57, 127
1, 152815, Note_on_c, 5, 77, 127
1, 152963, Note_off_c, 5, 77, 127
1, 152963, Note_off_c, 10, 57, 127
1, 152965, Note_on_c, 7, 55, 127
1, 152965, Note_on_c, 7, 79, 127
1, 153113, Note_off_c, 7, 79, 127
1, 153113, Note_off_c, 7, 55, 127
1, 153115, Note_on_c, 5, 53, 127
1, 153115, Note_on_c, 10, 81, 127
1, 153263, Note_off_c, 10, 81, 127
1, 153263, Note_off_c, 5, 53, 127
1, 153265, Note_on_c, 11, 58, 127
1, 153265, Note_on_c, 2, 74, 127
1, 153413, Note_off_c, 2, 74, 127
1, 153415, Note_on_c, 4, 76, 127
1, 153563, Note_off_c, 4, 76, 127
1, 153563, Note_off_c, 11, 58, 127
1, 153565, Note_on_c, 10, 57, 127
1, 153565, Note_on_c, 5, 77, 127
1, 153713, Note_off_c, 5, 77, 127
1, 153713, Note_off_c, 10, 57, 127
1, 153715, Note_on_c, 7, 55, 127
1, 153715, Note_on_c, 4, 76, 127
1, 153863, Note_off_c, 4, 76, 127
1, 153863, Note_off_c, 7, 55, 127
1, 153865, Note_on_c, 5, 53, 127
1, 153865, Note_on_c, 5, 77, 127
1, 154013, Note_off_c, 5, 77, 127
1, 154013, Note_off_c, 5, 53, 127
1, 154015, Note_on_c, 4, 52, 127
1, 154015, Note_on_c, 7, 79, 127
1, 154163, Note_off_c, 7, 79, 127
1, 154163, Note_off_c, 4, 52, 127
1, 154165, Note_on_c, 5, 53, 127
1, 154165, Note_on_c, 2, 74, 127
1, 154313, Note_off_c, 2, 74, 127
1, 154313, Note_off_c, 5, 53, 127
1, 154315, Note_on_c, 7, 55, 127
1, 154315, Note_on_c, 4, 76, 127
1, 154463, Note_off_c, 4, 76, 127
1, 154463, Note_off_c, 7, 55, 127
1, 154465, Note_on_c, 10, 57, 127
1, 154465, Note_on_c, 5, 77, 127
1, 154613, Note_off_c, 5, 77, 127
1, 154613, Note_off_c, 10, 57, 127
1, 154615, Note_on_c, 7, 55, 127
1, 154615, Note_on_c, 4, 76, 127
1, 154763, Note_off_c, 4, 76, 127
1, 154763, Note_off_c, 7, 55, 127
1, 154765, Note_on_c, 5, 53, 127
1, 154765, Note_on_c, 5, 77, 127
1, 154913, Note_off_c, 5, 77, 127
1, 154913, Note_off_c, 5, 53, 127
1, 154915, Note_on_c, 4, 52, 127
1, 154915, Note_on_c, 7, 79, 127
1, 155063, Note_off_c, 7, 79, 127
1, 155063, Note_off_c, 4, 52, 127
1, 155065, Note_on_c, 10, 57, 127
1, 155065, Note_on_c, 1, 73, 127
1, 155213, Note_off_c, 1, 73, 127
1, 155215, Note_on_c, 2, 74, 127
1, 155363, Note_off_c, 2, 74, 127
1, 155363, Note_off_c, 10, 57, 127
1, 155365, Note_on_c, 7, 55, 127
1, 155365, Note_on_c, 4, 76, 127
1, 155513, Note_off_c, 4, 76, 127
1, 155513, Note_off_c, 7, 55, 127
1, 155515, Note_on_c, 5, 53, 127
1, 155515, Note_on_c, 2, 74, 127
1, 155663, Note_off_c, 2, 74, 127
1, 155663, Note_off_c, 5, 53, 127
1, 155665, Note_on_c, 4, 52, 127
1, 155665, Note_on_c, 4, 76, 127
1, 155813, Note_off_c, 4, 76, 127
1, 155813, Note_off_c, 4, 52, 127
1, 155815, Note_on_c, 2, 50, 127
1, 155815, Note_on_c, 5, 77, 127
1, 155963, Note_off_c, 5, 77, 127
1, 155963, Note_off_c, 2, 50, 127
1, 155965, Note_on_c, 4, 52, 127
1, 155965, Note_on_c, 1, 73, 127
1, 156113, Note_off_c, 1, 73, 127
1, 156113, Note_off_c, 4, 52, 127
1, 156115, Note_on_c, 5, 53, 127
1, 156115, Note_on_c, 2, 74, 127
1, 156263, Note_off_c, 2, 74, 127
1, 156263, Note_off_c, 5, 53, 127
1, 156265, Note_on_c, 7, 55, 127
1, 156265, Note_on_c, 4, 76, 127
1, 156413, Note_off_c, 4, 76, 127
1, 156413, Note_off_c, 7, 55, 127
1, 156415, Note_on_c, 5, 53, 127
1, 156415, Note_on_c, 2, 74, 127
1, 156563, Note_off_c, 5, 53, 127
1, 156565, Note_on_c, 4, 52, 127
1, 156713, Note_off_c, 4, 52, 127
1, 156715, Note_on_c, 2, 50, 127
1, 156863, Note_off_c, 2, 50, 127
1, 156863, Note_off_c, 2, 74, 127
1, 156865, Note_on_c, 11, 58, 127
1, 156865, Note_on_c, 2, 62, 127
1, 157013, Note_off_c, 11, 58, 127
1, 157015, Note_on_c, 10, 57, 127
1, 157090, Note_on_c, 4, 64, 127
1, 157163, Note_off_c, 10, 57, 127
1, 157165, Note_on_c, 7, 55, 127
1, 157313, Note_off_c, 7, 55, 127
1, 157313, Note_off_c, 4, 64, 127
1, 157315, Note_on_c, 10, 57, 127
1, 157315, Note_on_c, 5, 65, 127
1, 157539, Note_off_c, 5, 65, 127
1, 157541, Note_on_c, 10, 69, 127
1, 157757, Note_off_c, 2, 62, 127
1, 157764, Note_off_c, 10, 69, 127
1, 157764, Note_off_c, 10, 57, 127
1, 157766, Note_on_c, 10, 45, 127
1, 157766, Note_on_c, 1, 61, 127
1, 157766, Note_on_c, 7, 67, 127
1, 157990, Note_off_c, 7, 67, 127
1, 157992, Note_on_c, 4, 64, 127
1, 158213, Note_off_c, 1, 61, 127
1, 158215, Note_off_c, 4, 64, 127
1, 158215, Note_off_c, 10, 45, 127
1, 158217, Note_on_c, 2, 50, 127
1, 158217, Note_on_c, 5, 65, 127
1, 158217, Note_on_c, 2, 62, 127
1, 158441, Note_off_c, 5, 65, 127
1, 158443, Note_on_c, 10, 69, 127
1, 158664, Note_off_c, 2, 62, 127
1, 158664, Note_off_c, 2, 50, 127
1, 158666, Note_off_c, 10, 69, 127
1, 158668, Note_on_c, 11, 70, 127
1, 158668, Note_on_c, 2, 74, 127
1, 158892, Note_off_c, 2, 74, 127
1, 158894, Note_on_c, 4, 76, 127
1, 159092, Note_off_c, 11, 70, 127
1, 159118, Note_off_c, 4, 76, 127
1, 159120, Note_on_c, 5, 77, 127
1, 159120, Note_on_c, 12, 71, 127
1, 159344, Note_off_c, 5, 77, 127
1, 159346, Note_on_c, 10, 81, 127
1, 159544, Note_off_c, 12, 71, 127
1, 159570, Note_off_c, 10, 81, 127
1, 159572, Note_on_c, 1, 73, 127
1, 159572, Note_on_c, 7, 79, 127
1, 159796, Note_off_c, 7, 79, 127
1, 159798, Note_on_c, 4, 76, 127
1, 159996, Note_off_c, 1, 73, 127
1, 160022, Note_off_c, 4, 76, 127
1, 160024, Note_on_c, 5, 77, 127
1, 160024, Note_on_c, 2, 74, 127
1, 160473, Note_off_c, 2, 74, 127
1, 160473, Note_off_c, 5, 77, 127
1, 160475, Note_on_c, 2, 50, 127
1, 160475, Note_on_c, 5, 65, 127
1, 160475, Note_on_c, 2, 74, 127
1, 160699, Note_off_c, 2, 50, 127
1, 160701, Note_on_c, 4, 52, 127
1, 160925, Note_off_c, 4, 52, 127
1, 160925, Note_off_c, 2, 74, 127
1, 160925, Note_off_c, 5, 65, 127
1, 160927, Note_on_c, 5, 53, 127
1, 160927, Note_on_c, 12, 71, 127
1, 160927, Note_on_c, 2, 62, 127
1, 161151, Note_off_c, 5, 53, 127
1, 161153, Note_on_c, 10, 57, 127
1, 161377, Note_off_c, 10, 57, 127
1, 161377, Note_off_c, 2, 62, 127
1, 161377, Note_off_c, 12, 71, 127
1, 161379, Note_on_c, 7, 55, 127
1, 161379, Note_on_c, 1, 73, 127
1, 161379, Note_on_c, 4, 64, 127
1, 161603, Note_off_c, 7, 55, 127
1, 161605, Note_on_c, 4, 52, 127
1, 161829, Note_off_c, 4, 52, 127
1, 161829, Note_off_c, 4, 64, 127
1, 161829, Note_off_c, 1, 73, 127
1, 161831, Note_on_c, 5, 53, 127
1, 161831, Note_on_c, 10, 69, 127
1, 161831, Note_on_c, 2, 74, 127
1, 162283, Note_on_c, 10, 57, 127
1, 162507, Note_off_c, 10, 57, 127
1, 162509, Note_on_c, 11, 58, 127
1, 162725, Note_off_c, 2, 74, 127
1, 162725, Note_off_c, 10, 69, 127
1, 162725, Note_off_c, 5, 53, 127
1, 162732, Note_off_c, 11, 58, 127
1, 162734, Note_on_c, 0, 60, 127
1, 162958, Note_off_c, 0, 60, 127
1, 162960, Note_on_c, 3, 63, 127
1, 163184, Note_off_c, 3, 63, 127
1, 163186, Note_on_c, 6, 54, 127
1, 163186, Note_on_c, 2, 62, 127
1, 163186, Note_on_c, 10, 69, 127
1, 163186, Note_on_c, 2, 74, 127
1, 163410, Note_off_c, 2, 62, 127
1, 163412, Note_on_c, 10, 57, 127
1, 163633, Note_off_c, 6, 54, 127
1, 163635, Note_off_c, 10, 57, 127
1, 163635, Note_off_c, 10, 69, 127
1, 163637, Note_on_c, 11, 58, 127
1, 163637, Note_on_c, 7, 55, 127
1, 163637, Note_on_c, 7, 67, 127
1, 163844, Note_off_c, 2, 74, 127
1, 163863, Note_on_c, 1, 73, 127
1, 164087, Note_off_c, 1, 73, 127
1, 164089, Note_on_c, 2, 74, 127
1, 164313, Note_off_c, 2, 74, 127
1, 164315, Note_on_c, 4, 76, 127
1, 164531, Note_off_c, 7, 67, 127
1, 164531, Note_off_c, 7, 55, 127
1, 164531, Note_off_c, 11, 58, 127
1, 164538, Note_off_c, 4, 76, 127
1, 164540, Note_on_c, 5, 77, 127
1, 164764, Note_off_c, 5, 77, 127
1, 164766, Note_on_c, 10, 81, 127
1, 164990, Note_off_c, 10, 81, 127
1, 164992, Note_on_c, 11, 58, 127
1, 164992, Note_on_c, 7, 55, 127
1, 164992, Note_on_c, 7, 79, 127
1, 165218, Note_on_c, 2, 74, 127
1, 165439, Note_off_c, 7, 79, 127
1, 165441, Note_off_c, 2, 74, 127
1, 165441, Note_off_c, 7, 55, 127
1, 165441, Note_off_c, 11, 58, 127
1, 165443, Note_on_c, 10, 57, 127
1, 165443, Note_on_c, 1, 49, 127
1, 165443, Note_on_c, 4, 76, 127
1, 165895, Note_on_c, 4, 64, 127
1, 166119, Note_off_c, 4, 64, 127
1, 166121, Note_on_c, 5, 65, 127
1, 166337, Note_off_c, 4, 76, 127
1, 166337, Note_off_c, 1, 49, 127
1, 166337, Note_off_c, 10, 57, 127
1, 166344, Note_off_c, 5, 65, 127
1, 166346, Note_on_c, 7, 67, 127
1, 166570, Note_off_c, 7, 67, 127
1, 166572, Note_on_c, 11, 70, 127
1, 166796, Note_off_c, 11, 70, 127
1, 166798, Note_on_c, 1, 49, 127
1, 166798, Note_on_c, 10, 57, 127
1, 166798, Note_on_c, 10, 69, 127
1, 167022, Note_off_c, 10, 69, 127
1, 167024, Note_on_c, 4, 64, 127
1, 167248, Note_off_c, 4, 64, 127
1, 167248, Note_off_c, 10, 57, 127
1, 167248, Note_off_c, 1, 49, 127
1, 167250, Note_on_c, 10, 57, 127
1, 167250, Note_on_c, 2, 50, 127
1, 167250, Note_on_c, 5, 65, 127
1, 167401, Note_on_c, 4, 76, 127
1, 167533, Note_off_c, 5, 65, 127
1, 167549, Note_off_c, 4, 76, 127
1, 167551, Note_on_c, 2, 74, 127
1, 167699, Note_off_c, 2, 74, 127
1, 167699, Note_off_c, 2, 50, 127
1, 167699, Note_off_c, 10, 57, 127
1, 167701, Note_on_c, 2, 50, 127
1, 167701, Note_on_c, 0, 48, 127
1, 167701, Note_on_c, 6, 66, 127
1, 167852, Note_on_c, 3, 75, 127
1, 168000, Note_off_c, 3, 75, 127
1, 168002, Note_on_c, 2, 74, 127
1, 168124, Note_off_c, 6, 66, 127
1, 168150, Note_off_c, 2, 74, 127
1, 168150, Note_off_c, 0, 48, 127
1, 168150, Note_off_c, 2, 50, 127
1, 168152, Note_on_c, 4, 52, 127
1, 168152, Note_on_c, 11, 46, 127
1, 168152, Note_on_c, 7, 67, 127
1, 168303, Note_on_c, 3, 75, 127
1, 168451, Note_off_c, 3, 75, 127
1, 168453, Note_on_c, 2, 74, 127
1, 168575, Note_off_c, 7, 67, 127
1, 168601, Note_off_c, 2, 74, 127
1, 168601, Note_off_c, 11, 46, 127
1, 168601, Note_off_c, 4, 52, 127
1, 168603, Note_on_c, 10, 45, 127
1, 168603, Note_on_c, 6, 54, 127
1, 168603, Note_on_c, 10, 69, 127
1, 168754, Note_on_c, 3, 75, 127
1, 168902, Note_off_c, 3, 75, 127
1, 168904, Note_on_c, 2, 74, 127
1, 169026, Note_off_c, 10, 69, 127
1, 169052, Note_off_c, 2, 74, 127
1, 169052, Note_off_c, 6, 54, 127
1, 169052, Note_off_c, 10, 45, 127
1, 169054, Note_on_c, 7, 55, 127
1, 169054, Note_on_c, 7, 43, 127
1, 169054, Note_on_c, 11, 70, 127
1, 169205, Note_on_c, 3, 75, 127
1, 169353, Note_off_c, 3, 75, 127
1, 169355, Note_on_c, 2, 74, 127
1, 169477, Note_off_c, 11, 70, 127
1, 169503, Note_off_c, 2, 74, 127
1, 169503, Note_off_c, 7, 43, 127
1, 169503, Note_off_c, 7, 55, 127
1, 169505, Note_on_c, 0, 48, 127
1, 169505, Note_on_c, 2, 50, 127
1, 169505, Note_on_c, 6, 66, 127
1, 169656, Note_on_c, 3, 75, 127
1, 169788, Note_off_c, 6, 66, 127
1, 169804, Note_off_c, 3, 75, 127
1, 169806, Note_on_c, 2, 74, 127
1, 169954, Note_off_c, 2, 74, 127
1, 169954, Note_off_c, 2, 50, 127
1, 169954, Note_off_c, 0, 48, 127
1, 169956, Note_on_c, 11, 46, 127
1, 169956, Note_on_c, 4, 52, 127
1, 169956, Note_on_c, 7, 67, 127
1, 170107, Note_on_c, 3, 75, 127
1, 170239, Note_off_c, 7, 67, 127
1, 170255, Note_off_c, 3, 75, 127
1, 170257, Note_on_c, 2, 74, 127
1, 170405, Note_off_c, 2, 74, 127
1, 170405, Note_off_c, 4, 52, 127
1, 170405, Note_off_c, 11, 46, 127
1, 170407, Note_on_c, 6, 54, 127
1, 170407, Note_on_c, 10, 45, 127
1, 170407, Note_on_c, 10, 69, 127
1, 170558, Note_on_c, 3, 75, 127
1, 170690, Note_off_c, 10, 69, 127
1, 170706, Note_off_c, 3, 75, 127
1, 170708, Note_on_c, 2, 74, 127
1, 170856, Note_off_c, 2, 74, 127
1, 170856, Note_off_c, 10, 45, 127
1, 170856, Note_off_c, 6, 54, 127
1, 170858, Note_on_c, 7, 43, 127
1, 170858, Note_on_c, 7, 55, 127
1, 170858, Note_on_c, 11, 70, 127
1, 171009, Note_on_c, 3, 75, 127
1, 171141, Note_off_c, 11, 70, 127
1, 171157, Note_off_c, 3, 75, 127
1, 171159, Note_on_c, 2, 74, 127
1, 171307, Note_off_c, 2, 74, 127
1, 171307, Note_off_c, 7, 55, 127
1, 171307, Note_off_c, 7, 43, 127
1, 171309, Note_on_c, 8, 44, 127
1, 171309, Note_on_c, 2, 74, 127
1, 171309, Note_on_c, 4, 76, 127
1, 171457, Note_off_c, 8, 44, 127
1, 171459, Note_on_c, 5, 53, 127
1, 171607, Note_off_c, 5, 53, 127
1, 171609, Note_on_c, 4, 52, 127
1, 171757, Note_off_c, 4, 52, 127
1, 171757, Note_off_c, 4, 76, 127
1, 171757, Note_off_c, 2, 74, 127
1, 171759, Note_on_c, 10, 45, 127
1, 171759, Note_on_c, 0, 72, 127
1, 171759, Note_on_c, 6, 78, 127
1, 171907, Note_off_c, 10, 45, 127
1, 171909, Note_on_c, 5, 53, 127
1, 172057, Note_off_c, 5, 53, 127
1, 172059, Note_on_c, 4, 52, 127
1, 172207, Note_off_c, 4, 52, 127
1, 172207, Note_off_c, 6, 78, 127
1, 172207, Note_off_c, 0, 72, 127
1, 172209, Note_on_c, 12, 47, 127
1, 172209, Note_on_c, 8, 80, 127
1, 172209, Note_on_c, 12, 71, 127
1, 172357, Note_off_c, 12, 47, 127
1, 172359, Note_on_c, 5, 53, 127
1, 172507, Note_off_c, 5, 53, 127
1, 172509, Note_on_c, 4, 52, 127
1, 172657, Note_off_c, 4, 52, 127
1, 172657, Note_off_c, 12, 71, 127
1, 172657, Note_off_c, 8, 80, 127
1, 172659, Note_on_c, 0, 48, 127
1, 172659, Note_on_c, 10, 81, 127
1, 172659, Note_on_c, 10, 69, 127
1, 172807, Note_off_c, 0, 48, 127
1, 172809, Note_on_c, 5, 53, 127
1, 172957, Note_off_c, 5, 53, 127
1, 172959, Note_on_c, 4, 52, 127
1, 173107, Note_off_c, 4, 52, 127
1, 173107, Note_off_c, 10, 69, 127
1, 173107, Note_off_c, 10, 81, 127
1, 173109, Note_on_c, 8, 44, 127
1, 173109, Note_on_c, 2, 74, 127
1, 173109, Note_on_c, 4, 76, 127
1, 173257, Note_off_c, 8, 44, 127
1, 173259, Note_on_c, 5, 53, 127
1, 173407, Note_off_c, 5, 53, 127
1, 173409, Note_on_c, 4, 52, 127
1, 173557, Note_off_c, 4, 52, 127
1, 173557, Note_off_c, 4, 76, 127
1, 173557, Note_off_c, 2, 74, 127
1, 173559, Note_on_c, 10, 45, 127
1, 173559, Note_on_c, 6, 78, 127
1, 173559, Note_on_c, 0, 72, 127
1, 173707, Note_off_c, 10, 45, 127
1, 173709, Note_on_c, 5, 53, 127
1, 173857, Note_off_c, 5, 53, 127
1, 173859, Note_on_c, 4, 52, 127
1, 174007, Note_off_c, 4, 52, 127
1, 174007, Note_off_c, 0, 72, 127
1, 174007, Note_off_c, 6, 78, 127
1, 174009, Note_on_c, 12, 47, 127
1, 174009, Note_on_c, 8, 80, 127
1, 174009, Note_on_c, 12, 71, 127
1, 174157, Note_off_c, 12, 47, 127
1, 174159, Note_on_c, 5, 53, 127
1, 174307, Note_off_c, 5, 53, 127
1, 174309, Note_on_c, 4, 52, 127
1, 174457, Note_off_c, 4, 52, 127
1, 174457, Note_off_c, 12, 71, 127
1, 174457, Note_off_c, 8, 80, 127
1, 174459, Note_on_c, 0, 48, 127
1, 174459, Note_on_c, 10, 81, 127
1, 174459, Note_on_c, 10, 69, 127
1, 174607, Note_off_c, 0, 48, 127
1, 174609, Note_on_c, 5, 53, 127
1, 174757, Note_off_c, 5, 53, 127
1, 174759, Note_on_c, 4, 52, 127
1, 174907, Note_off_c, 4, 52, 127
1, 174907, Note_off_c, 10, 69, 127
1, 174907, Note_off_c, 10, 81, 127
1, 174909, Note_on_c, 7, 55, 127
1, 174909, Note_on_c, 10, 45, 127
1, 174909, Note_on_c, 1, 73, 127
1, 175060, Note_on_c, 11, 82, 127
1, 175208, Note_off_c, 11, 82, 127
1, 175210, Note_on_c, 10, 81, 127
1, 175332, Note_off_c, 1, 73, 127
1, 175358, Note_off_c, 10, 81, 127
1, 175358, Note_off_c, 10, 45, 127
1, 175358, Note_off_c, 7, 55, 127
1, 175360, Note_on_c, 12, 47, 127
1, 175360, Note_on_c, 5, 53, 127
1, 175360, Note_on_c, 2, 74, 127
1, 175511, Note_on_c, 11, 82, 127
1, 175659, Note_off_c, 11, 82, 127
1, 175661, Note_on_c, 10, 81, 127
1, 175783, Note_off_c, 2, 74, 127
1, 175809, Note_off_c, 10, 81, 127
1, 175809, Note_off_c, 5, 53, 127
1, 175809, Note_off_c, 12, 47, 127
1, 175811, Note_on_c, 1, 49, 127
1, 175811, Note_on_c, 4, 52, 127
1, 175811, Note_on_c, 4, 76, 127
1, 175962, Note_on_c, 11, 82, 127
1, 176110, Note_off_c, 11, 82, 127
1, 176112, Note_on_c, 10, 81, 127
1, 176234, Note_off_c, 4, 76, 127
1, 176260, Note_off_c, 10, 81, 127
1, 176260, Note_off_c, 4, 52, 127
1, 176260, Note_off_c, 1, 49, 127
1, 176262, Note_on_c, 2, 50, 127
1, 176262, Note_on_c, 5, 77, 127
1, 176413, Note_on_c, 11, 82, 127
1, 176561, Note_off_c, 11, 82, 127
1, 176563, Note_on_c, 10, 81, 127
1, 176685, Note_off_c, 5, 77, 127
1, 176711, Note_off_c, 10, 81, 127
1, 176711, Note_off_c, 2, 50, 127
1, 176713, Note_on_c, 7, 55, 127
1, 176713, Note_on_c, 10, 45, 127
1, 176713, Note_on_c, 1, 73, 127
1, 176864, Note_on_c, 11, 82, 127
1, 176996, Note_off_c, 1, 73, 127
1, 177012, Note_off_c, 11, 82, 127
1, 177014, Note_on_c, 10, 81, 127
1, 177162, Note_off_c, 10, 81, 127
1, 177162, Note_off_c, 10, 45, 127
1, 177162, Note_off_c, 7, 55, 127
1, 177164, Note_on_c, 5, 53, 127
1, 177164, Note_on_c, 12, 47, 127
1, 177164, Note_on_c, 2, 74, 127
1, 177315, Note_on_c, 11, 82, 127
1, 177447, Note_off_c, 2, 74, 127
1, 177463, Note_off_c, 11, 82, 127
1, 177465, Note_on_c, 10, 81, 127
1, 177613, Note_off_c, 10, 81, 127
1, 177613, Note_off_c, 12, 47, 127
1, 177613, Note_off_c, 5, 53, 127
1, 177615, Note_on_c, 1, 49, 127
1, 177615, Note_on_c, 4, 52, 127
1, 177615, Note_on_c, 4, 76, 127
1, 177766, Note_on_c, 11, 82, 127
1, 177898, Note_off_c, 4, 76, 127
1, 177914, Note_off_c, 11, 82, 127
1, 177916, Note_on_c, 10, 81, 127
1, 178064, Note_off_c, 10, 81, 127
1, 178064, Note_off_c, 4, 52, 127
1, 178064, Note_off_c, 1, 49, 127
1, 178066, Note_on_c, 2, 50, 127
1, 178066, Note_on_c, 5, 77, 127
1, 178217, Note_on_c, 11, 82, 127
1, 178349, Note_off_c, 5, 77, 127
1, 178365, Note_off_c, 11, 82, 127
1, 178367, Note_on_c, 10, 81, 127
1, 178515, Note_off_c, 10, 81, 127
1, 178515, Note_off_c, 2, 50, 127
1, 178517, Note_on_c, 1, 49, 127
1, 178517, Note_on_c, 4, 76, 127
1, 178517, Note_on_c, 7, 79, 127
1, 178665, Note_off_c, 1, 49, 127
1, 178667, Note_on_c, 11, 58, 127
1, 178815, Note_off_c, 11, 58, 127
1, 178817, Note_on_c, 10, 57, 127
1, 178965, Note_off_c, 10, 57, 127
1, 178965, Note_off_c, 7, 79, 127
1, 178965, Note_off_c, 4, 76, 127
1, 178967, Note_on_c, 2, 50, 127
1, 178967, Note_on_c, 5, 77, 127
1, 178967, Note_on_c, 2, 74, 127
1, 179115, Note_off_c, 2, 50, 127
1, 179117, Note_on_c, 11, 58, 127
1, 179265, Note_off_c, 11, 58, 127
1, 179267, Note_on_c, 10, 57, 127
1, 179415, Note_off_c, 10, 57, 127
1, 179415, Note_off_c, 2, 74, 127
1, 179415, Note_off_c, 5, 77, 127
1, 179417, Note_on_c, 4, 52, 127
1, 179417, Note_on_c, 4, 76, 127
1, 179417, Note_on_c, 1, 73, 127
1, 179565, Note_off_c, 4, 52, 127
1, 179567, Note_on_c, 11, 58, 127
1, 179715, Note_off_c, 11, 58, 127
1, 179717, Note_on_c, 10, 57, 127
1, 179865, Note_off_c, 10, 57, 127
1, 179865, Note_off_c, 1, 73, 127
1, 179865, Note_off_c, 4, 76, 127
1, 179867, Note_on_c, 5, 53, 127
1, 179867, Note_on_c, 2, 74, 127
1, 180015, Note_off_c, 5, 53, 127
1, 180017, Note_on_c, 11, 58, 127
1, 180165, Note_off_c, 11, 58, 127
1, 180167, Note_on_c, 10, 57, 127
1, 180315, Note_off_c, 10, 57, 127
1, 180315, Note_off_c, 2, 74, 127
1, 180317, Note_on_c, 1, 49, 127
1, 180317, Note_on_c, 11, 82, 127
1, 180317, Note_on_c, 7, 79, 127
1, 180465, Note_off_c, 1, 49, 127
1, 180467, Note_on_c, 11, 58, 127
1, 180542, Note_on_c, 4, 76, 127
1, 180615, Note_off_c, 11, 58, 127
1, 180617, Note_on_c, 10, 57, 127
1, 180655, Note_off_c, 7, 79, 127
1, 180655, Note_off_c, 11, 82, 127
1, 180766, Note_off_c, 10, 57, 127
1, 180766, Note_off_c, 4, 76, 127
1, 180768, Note_on_c, 2, 50, 127
1, 180768, Note_on_c, 5, 77, 127
1, 180768, Note_on_c, 10, 81, 127
1, 180916, Note_off_c, 2, 50, 127
1, 180918, Note_on_c, 11, 58, 127
1, 180993, Note_on_c, 2, 74, 127
1, 181066, Note_off_c, 11, 58, 127
1, 181068, Note_on_c, 10, 57, 127
1, 181106, Note_off_c, 10, 81, 127
1, 181106, Note_off_c, 5, 77, 127
1, 181217, Note_off_c, 10, 57, 127
1, 181217, Note_off_c, 2, 74, 127
1, 181219, Note_on_c, 4, 52, 127
1, 181219, Note_on_c, 7, 79, 127
1, 181219, Note_on_c, 4, 76, 127
1, 181367, Note_off_c, 4, 52, 127
1, 181369, Note_on_c, 11, 58, 127
1, 181444, Note_on_c, 1, 73, 127
1, 181517, Note_off_c, 11, 58, 127
1, 181519, Note_on_c, 10, 57, 127
1, 181557, Note_off_c, 4, 76, 127
1, 181557, Note_off_c, 7, 79, 127
1, 181668, Note_off_c, 10, 57, 127
1, 181668, Note_off_c, 1, 73, 127
1, 181670, Note_on_c, 5, 53, 127
1, 181670, Note_on_c, 10, 81, 127
1, 181670, Note_on_c, 2, 74, 127
1, 181670, Note_on_c, 10, 69, 127
1, 181818, Note_off_c, 5, 53, 127
1, 181820, Note_on_c, 7, 55, 127
1, 181968, Note_off_c, 7, 55, 127
1, 181970, Note_on_c, 10, 57, 127
1, 182118, Note_off_c, 10, 57, 127
1, 182118, Note_off_c, 10, 69, 127
1, 182118, Note_off_c, 2, 74, 127
1, 182118, Note_off_c, 10, 81, 127
1, 182120, Note_on_c, 2, 62, 127
1, 182120, Note_on_c, 11, 70, 127
1, 182268, Note_off_c, 11, 70, 127
1, 182268, Note_off_c, 2, 62, 127
1, 182270, Note_on_c, 0, 60, 127
1, 182270, Note_on_c, 10, 69, 127
1, 182418, Note_off_c, 10, 69, 127
1, 182418, Note_off_c, 0, 60, 127
1, 182420, Note_on_c, 2, 62, 127
1, 182420, Note_on_c, 11, 70, 127
1, 182568, Note_off_c, 11, 70, 127
1, 182568, Note_off_c, 2, 62, 127
1, 182570, Note_on_c, 4, 52, 127
1, 182570, Note_on_c, 7, 79, 127
1, 182718, Note_off_c, 4, 52, 127
1, 182720, Note_on_c, 5, 53, 127
1, 182868, Note_off_c, 5, 53, 127
1, 182870, Note_on_c, 7, 55, 127
1, 183018, Note_off_c, 7, 55, 127
1, 183018, Note_off_c, 7, 79, 127
1, 183020, Note_on_c, 0, 60, 127
1, 183020, Note_on_c, 10, 69, 127
1, 183168, Note_off_c, 10, 69, 127
1, 183168, Note_off_c, 0, 60, 127
1, 183170, Note_on_c, 11, 58, 127
1, 183170, Note_on_c, 7, 67, 127
1, 183318, Note_off_c, 7, 67, 127
1, 183318, Note_off_c, 11, 58, 127
1, 183320, Note_on_c, 0, 60, 127
1, 183320, Note_on_c, 10, 69, 127
1, 183468, Note_off_c, 10, 69, 127
1, 183468, Note_off_c, 0, 60, 127
1, 183470, Note_on_c, 2, 50, 127
1, 183470, Note_on_c, 5, 77, 127
1, 183618, Note_off_c, 2, 50, 127
1, 183620, Note_on_c, 4, 52, 127
1, 183768, Note_off_c, 4, 52, 127
1, 183770, Note_on_c, 5, 53, 127
1, 183918, Note_off_c, 5, 53, 127
1, 183918, Note_off_c, 5, 77, 127
1, 183920, Note_on_c, 11, 58, 127
1, 183920, Note_on_c, 7, 67, 127
1, 184068, Note_off_c, 7, 67, 127
1, 184068, Note_off_c, 11, 58, 127
1, 184070, Note_on_c, 10, 57, 127
1, 184070, Note_on_c, 5, 65, 127
1, 184218, Note_off_c, 5, 65, 127
1, 184218, Note_off_c, 10, 57, 127
1, 184220, Note_on_c, 11, 58, 127
1, 184220, Note_on_c, 7, 67, 127
1, 184368, Note_off_c, 7, 67, 127
1, 184368, Note_off_c, 11, 58, 127
1, 184370, Note_on_c, 0, 48, 127
1, 184370, Note_on_c, 4, 76, 127
1, 184518, Note_off_c, 0, 48, 127
1, 184520, Note_on_c, 2, 50, 127
1, 184668, Note_off_c, 2, 50, 127
1, 184670, Note_on_c, 4, 52, 127
1, 184818, Note_off_c, 4, 52, 127
1, 184818, Note_off_c, 4, 76, 127
1, 184820, Note_on_c, 10, 57, 127
1, 184820, Note_on_c, 5, 65, 127
1, 184968, Note_off_c, 5, 65, 127
1, 184968, Note_off_c, 10, 57, 127
1, 184970, Note_on_c, 7, 55, 127
1, 184970, Note_on_c, 4, 64, 127
1, 185118, Note_off_c, 4, 64, 127
1, 185118, Note_off_c, 7, 55, 127
1, 185120, Note_on_c, 10, 57, 127
1, 185120, Note_on_c, 5, 65, 127
1, 185268, Note_off_c, 5, 65, 127
1, 185268, Note_off_c, 10, 57, 127
1, 185270, Note_on_c, 12, 47, 127
1, 185270, Note_on_c, 2, 74, 127
1, 185418, Note_off_c, 2, 74, 127
1, 185418, Note_off_c, 12, 47, 127
1, 185420, Note_on_c, 10, 57, 127
1, 185420, Note_on_c, 1, 73, 127
1, 185568, Note_off_c, 1, 73, 127
1, 185568, Note_off_c, 10, 57, 127
1, 185570, Note_on_c, 7, 55, 127
1, 185570, Note_on_c, 12, 71, 127
1, 185718, Note_off_c, 12, 71, 127
1, 185718, Note_off_c, 7, 55, 127
1, 185720, Note_on_c, 1, 49, 127
1, 185720, Note_on_c, 4, 76, 127
1, 185868, Note_off_c, 4, 76, 127
1, 185868, Note_off_c, 1, 49, 127
1, 185870, Note_on_c, 10, 57, 127
1, 185870, Note_on_c, 1, 73, 127
1, 186018, Note_off_c, 1, 73, 127
1, 186018, Note_off_c, 10, 57, 127
1, 186020, Note_on_c, 7, 55, 127
1, 186020, Note_on_c, 10, 69, 127
1, 186168, Note_off_c, 10, 69, 127
1, 186168, Note_off_c, 7, 55, 127
1, 186170, Note_on_c, 2, 50, 127
1, 186170, Note_on_c, 5, 77, 127
1, 186318, Note_off_c, 5, 77, 127
1, 186318, Note_off_c, 2, 50, 127
1, 186320, Note_on_c, 10, 57, 127
1, 186320, Note_on_c, 2, 74, 127
1, 186468, Note_off_c, 2, 74, 127
1, 186468, Note_off_c, 10, 57, 127
1, 186470, Note_on_c, 7, 55, 127
1, 186470, Note_on_c, 12, 71, 127
1, 186618, Note_off_c, 12, 71, 127
1, 186618, Note_off_c, 7, 55, 127
1, 186620, Note_on_c, 4, 52, 127
1, 186620, Note_on_c, 7, 79, 127
1, 186768, Note_off_c, 7, 79, 127
1, 186768, Note_off_c, 4, 52, 127
1, 186770, Note_on_c, 10, 57, 127
1, 186770, Note_on_c, 4, 76, 127
1, 186918, Note_off_c, 4, 76, 127
1, 186918, Note_off_c, 10, 57, 127
1, 186920, Note_on_c, 7, 55, 127
1, 186920, Note_on_c, 1, 73, 127
1, 187068, Note_off_c, 1, 73, 127
1, 187068, Note_off_c, 7, 55, 127
1, 187070, Note_on_c, 5, 53, 127
1, 187070, Note_on_c, 10, 81, 127
1, 187218, Note_off_c, 10, 81, 127
1, 187218, Note_off_c, 5, 53, 127
1, 187220, Note_on_c, 4, 52, 127
1, 187220, Note_on_c, 7, 79, 127
1, 187368, Note_off_c, 7, 79, 127
1, 187368, Note_off_c, 4, 52, 127
1, 187370, Note_on_c, 2, 50, 127
1, 187370, Note_on_c, 5, 77, 127
1, 187518, Note_off_c, 5, 77, 127
1, 187518, Note_off_c, 2, 50, 127
1, 187520, Note_on_c, 11, 58, 127
1, 187520, Note_on_c, 4, 76, 127
1, 187668, Note_off_c, 4, 76, 127
1, 187668, Note_off_c, 11, 58, 127
1, 187670, Note_on_c, 10, 57, 127
1, 187670, Note_on_c, 5, 77, 127
1, 187818, Note_off_c, 5, 77, 127
1, 187818, Note_off_c, 10, 57, 127
1, 187820, Note_on_c, 7, 55, 127
1, 187820, Note_on_c, 7, 79, 127
1, 187968, Note_off_c, 7, 79, 127
1, 187968, Note_off_c, 7, 55, 127
1, 187970, Note_on_c, 10, 57, 127
1, 187970, Note_on_c, 2, 74, 127
1, 188194, Note_off_c, 2, 74, 127
1, 188196, Note_on_c, 1, 73, 127
1, 188269, Note_off_c, 1, 73, 127
1, 188271, Note_on_c, 2, 74, 127
1, 188344, Note_off_c, 2, 74, 127
1, 188346, Note_on_c, 1, 73, 127
1, 188419, Note_off_c, 1, 73, 127
1, 188421, Note_on_c, 10, 45, 127
1, 188421, Note_on_c, 2, 74, 127
1, 188494, Note_off_c, 2, 74, 127
1, 188496, Note_on_c, 1, 73, 127
1, 188720, Note_off_c, 1, 73, 127
1, 188732, Note_on_c, 2, 74, 127
1, 188862, Note_off_c, 2, 74, 127
1, 188863, Note_off_c, 10, 57, 127
1, 188870, Note_off_c, 10, 45, 127
1, 188872, Note_on_c, 2, 50, 127
1, 188872, Note_on_c, 2, 74, 127
1, 189168, Note_off_c, 2, 74, 127
1, 189192, Note_on_c, 0, 72, 127
1, 189280, Note_off_c, 0, 72, 127
1, 189283, Note_on_c, 11, 70, 127
1, 189371, Note_off_c, 11, 70, 127
1, 189375, Note_on_c, 10, 69, 127
1, 189463, Note_off_c, 10, 69, 127
1, 189466, Note_on_c, 7, 67, 127
1, 189554, Note_off_c, 7, 67, 127
1, 189557, Note_on_c, 5, 65, 127
1, 189645, Note_off_c, 5, 65, 127
1, 189649, Note_on_c, 4, 64, 127
1, 189737, Note_off_c, 4, 64, 127
1, 189740, Note_on_c, 2, 62, 127
1, 189828, Note_off_c, 2, 62, 127
1, 189831, Note_on_c, 10, 69, 127
1, 189864, Note_off_c, 2, 50, 127
1, 189919, Note_off_c, 10, 69, 127
1, 189922, Note_on_c, 5, 65, 127
1, 190010, Note_off_c, 5, 65, 127
1, 190014, Note_on_c, 2, 62, 127
1, 190105, Note_on_c, 10, 57, 127
1, 190188, Note_off_c, 2, 62, 127
1, 190193, Note_off_c, 10, 57, 127
1, 190196, Note_on_c, 5, 53, 127
1, 190284, Note_off_c, 5, 53, 127
1, 190288, Note_on_c, 2, 50, 127
1, 190376, Note_off_c, 2, 50, 127
1, 190379, Note_on_c, 5, 53, 127
1, 190467, Note_off_c, 5, 53, 127
1, 190467, Note_on_c, 8, 44, 127
1, 190618, Note_off_c, 8, 44, 127
1, 190620, Note_on_c, 12, 47, 127
1, 190718, Note_off_c, 12, 47, 127
1, 190718, Note_on_c, 2, 50, 127
1, 190816, Note_off_c, 2, 50, 127
1, 190816, Note_on_c, 5, 53, 127
1, 190914, Note_off_c, 5, 53, 127
1, 190914, Note_on_c, 12, 59, 127
1, 191011, Note_on_c, 2, 62, 127
1, 191012, Note_off_c, 12, 59, 127
1, 191116, Note_off_c, 2, 62, 127
1, 191120, Note_on_c, 12, 59, 127
1, 191225, Note_off_c, 12, 59, 127
1, 191229, Note_on_c, 8, 56, 127
1, 191334, Note_off_c, 8, 56, 127
1, 191338, Note_on_c, 4, 52, 127
1, 191475, Note_off_c, 4, 52, 127
1, 191478, Note_on_c, 6, 54, 127
1, 191579, Note_on_c, 8, 56, 127
1, 191580, Note_off_c, 6, 54, 127
1, 191680, Note_on_c, 10, 57, 127
1, 191681, Note_off_c, 8, 56, 127
1, 191781, Note_on_c, 12, 59, 127
1, 191782, Note_off_c, 10, 57, 127
1, 191883, Note_off_c, 12, 59, 127
1, 191887, Note_on_c, 0, 60, 127
1, 191989, Note_off_c, 0, 60, 127
1, 191993, Note_on_c, 2, 62, 127
1, 192095, Note_off_c, 2, 62, 127
1, 192099, Note_on_c, 4, 64, 127
1, 192201, Note_off_c, 4, 64, 127
1, 192205, Note_on_c, 5, 65, 127
1, 192307, Note_off_c, 5, 65, 127
1, 192312, Note_on_c, 2, 62, 127
1, 192414, Note_off_c, 2, 62, 127
1, 192418, Note_on_c, 4, 64, 127
1, 192520, Note_off_c, 4, 64, 127
1, 192524, Note_on_c, 5, 65, 127
1, 192626, Note_off_c, 5, 65, 127
1, 192630, Note_on_c, 12, 59, 127
1, 192765, Note_on_c, 0, 60, 127
1, 192768, Note_off_c, 12, 59, 127
1, 192870, Note_on_c, 2, 62, 127
1, 192872, Note_off_c, 0, 60, 127
1, 192977, Note_off_c, 2, 62, 127
1, 192977, Note_on_c, 4, 64, 127
1, 193083, Note_on_c, 6, 66, 127
1, 193084, Note_off_c, 4, 64, 127
1, 193195, Note_off_c, 6, 66, 127
1, 193198, Note_on_c, 8, 68, 127
1, 193310, Note_off_c, 8, 68, 127
1, 193315, Note_on_c, 10, 69, 127
1, 193429, Note_off_c, 10, 69, 127
1, 193432, Note_on_c, 12, 71, 127
1, 193548, Note_off_c, 12, 71, 127
1, 193548, Note_on_c, 0, 72, 127
1, 193664, Note_on_c, 2, 74, 127
1, 193666, Note_off_c, 0, 72, 127
1, 193784, Note_off_c, 2, 74, 127
1, 193792, Note_on_c, 4, 76, 127
1, 193972, Note_off_c, 4, 76, 127
1, 193980, Note_on_c, 12, 71, 127
1, 194160, Note_off_c, 12, 71, 127
1, 194179, Note_on_c, 10, 69, 127
1, 194179, Note_on_c, 4, 64, 127
1, 194179, Note_on_c, 0, 72, 127
1, 194179, Note_on_c, 10, 45, 127
1, 194685, Note_on_c, 10, 57, 127
1, 194729, Note_off_c, 10, 45, 127
1, 194909, Note_off_c, 10, 57, 127
1, 194911, Note_on_c, 12, 59, 127
1, 195134, Note_off_c, 12, 59, 127
1, 195136, Note_on_c, 0, 60, 127
1, 195179, Note_off_c, 4, 64, 127
1, 195360, Note_off_c, 0, 60, 127
1, 195362, Note_on_c, 4, 64, 127
1, 195531, Note_off_c, 0, 72, 127
1, 195531, Note_off_c, 10, 69, 127
1, 195586, Note_off_c, 4, 64, 127
1, 195588, Note_on_c, 2, 62, 127
1, 195812, Note_off_c, 2, 62, 127
1, 195814, Note_on_c, 12, 59, 127
1, 196038, Note_off_c, 12, 59, 127
1, 196040, Note_on_c, 0, 60, 127
1, 196489, Note_off_c, 0, 60, 127
1, 196491, Note_on_c, 10, 45, 127
1, 196491, Note_on_c, 4, 52, 127
1, 196715, Note_off_c, 10, 45, 127
1, 196717, Note_on_c, 12, 47, 127
1, 196938, Note_off_c, 4, 52, 127
1, 196940, Note_off_c, 12, 47, 127
1, 196942, Note_on_c, 0, 48, 127
1, 196942, Note_on_c, 6, 54, 127
1, 197166, Note_off_c, 0, 48, 127
1, 197168, Note_on_c, 4, 52, 127
1, 197389, Note_off_c, 6, 54, 127
1, 197391, Note_off_c, 4, 52, 127
1, 197393, Note_on_c, 8, 56, 127
1, 197393, Note_on_c, 2, 50, 127
1, 197617, Note_off_c, 2, 50, 127
1, 197619, Note_on_c, 12, 47, 127
1, 197840, Note_off_c, 8, 56, 127
1, 197842, Note_off_c, 12, 47, 127
1, 197844, Note_on_c, 0, 48, 127
1, 197844, Note_on_c, 10, 57, 127
1, 198293, Note_off_c, 10, 57, 127
1, 198293, Note_off_c, 0, 48, 127
1, 198295, Note_on_c, 10, 69, 127
1, 198295, Note_on_c, 5, 53, 127
1, 198295, Note_on_c, 0, 60, 127
1, 198521, Note_on_c, 12, 71, 127
1, 198745, Note_off_c, 12, 71, 127
1, 198745, Note_off_c, 0, 60, 127
1, 198745, Note_off_c, 5, 53, 127
1, 198747, Note_on_c, 0, 72, 127
1, 198747, Note_on_c, 2, 62, 127
1, 198747, Note_on_c, 2, 50, 127
1, 198971, Note_off_c, 0, 72, 127
1, 198973, Note_on_c, 4, 76, 127
1, 199189, Note_off_c, 10, 69, 127
1, 199196, Note_off_c, 4, 76, 127
1, 199196, Note_off_c, 2, 50, 127
1, 199196, Note_off_c, 2, 62, 127
1, 199198, Note_on_c, 2, 74, 127
1, 199198, Note_on_c, 8, 68, 127
1, 199198, Note_on_c, 12, 59, 127
1, 199198, Note_on_c, 4, 52, 127
1, 199422, Note_off_c, 2, 74, 127
1, 199424, Note_on_c, 12, 71, 127
1, 199645, Note_off_c, 8, 68, 127
1, 199656, Note_off_c, 12, 71, 127
1, 199657, Note_off_c, 4, 52, 127
1, 199657, Note_off_c, 12, 59, 127
1, 199665, Note_on_c, 0, 72, 127
1, 199665, Note_on_c, 10, 57, 127
1, 199665, Note_on_c, 10, 45, 127
1, 199830, Note_on_c, 10, 69, 127
1, 199832, Note_off_c, 0, 72, 127
1, 199929, Note_off_c, 10, 69, 127
1, 199931, Note_on_c, 7, 67, 127
1, 200030, Note_off_c, 7, 67, 127
1, 200032, Note_on_c, 5, 65, 127
1, 200131, Note_off_c, 5, 65, 127
1, 200133, Note_on_c, 4, 64, 127
1, 200232, Note_off_c, 4, 64, 127
1, 200234, Note_on_c, 2, 62, 127
1, 200254, Note_off_c, 10, 57, 127
1, 200333, Note_off_c, 2, 62, 127
1, 200335, Note_on_c, 0, 60, 127
1, 200434, Note_off_c, 0, 60, 127
1, 200436, Note_on_c, 12, 59, 127
1, 200465, Note_off_c, 10, 45, 127
1, 200535, Note_off_c, 12, 59, 127
1, 200537, Note_on_c, 10, 57, 127
1, 200636, Note_off_c, 10, 57, 127
1, 200638, Note_on_c, 4, 64, 127
1, 200737, Note_off_c, 4, 64, 127
1, 200739, Note_on_c, 0, 60, 127
1, 200838, Note_off_c, 0, 60, 127
1, 200840, Note_on_c, 10, 57, 127
1, 200939, Note_off_c, 10, 57, 127
1, 200941, Note_on_c, 4, 52, 127
1, 201040, Note_off_c, 4, 52, 127
1, 201042, Note_on_c, 0, 48, 127
1, 201141, Note_off_c, 0, 48, 127
1, 201143, Note_on_c, 10, 45, 127
1, 201242, Note_off_c, 10, 45, 127
1, 201244, Note_on_c, 0, 48, 127
1, 201343, Note_off_c, 0, 48, 127
1, 201345, Note_on_c, 3, 39, 127
1, 201464, Note_on_c, 6, 42, 127
1, 201472, Note_off_c, 3, 39, 127
1, 201555, Note_on_c, 10, 45, 127
1, 201560, Note_off_c, 6, 42, 127
1, 201646, Note_on_c, 0, 48, 127
1, 201651, Note_off_c, 10, 45, 127
1, 201737, Note_on_c, 6, 54, 127
1, 201742, Note_off_c, 0, 48, 127
1, 201833, Note_off_c, 6, 54, 127
1, 201835, Note_on_c, 10, 57, 127
1, 201931, Note_off_c, 10, 57, 127
1, 201933, Note_on_c, 6, 54, 127
1, 202029, Note_off_c, 6, 54, 127
1, 202031, Note_on_c, 3, 51, 127
1, 202127, Note_off_c, 3, 51, 127
1, 202129, Note_on_c, 12, 47, 127
1, 202234, Note_on_c, 1, 49, 127
1, 202247, Note_off_c, 12, 47, 127
1, 202321, Note_off_c, 1, 49, 127
1, 202323, Note_on_c, 3, 51, 127
1, 202410, Note_off_c, 3, 51, 127
1, 202412, Note_on_c, 4, 52, 127
1, 202499, Note_off_c, 4, 52, 127
1, 202501, Note_on_c, 6, 54, 127
1, 202588, Note_off_c, 6, 54, 127
1, 202590, Note_on_c, 7, 55, 127
1, 202677, Note_off_c, 7, 55, 127
1, 202679, Note_on_c, 10, 57, 127
1, 202766, Note_off_c, 10, 57, 127
1, 202768, Note_on_c, 12, 59, 127
1, 202855, Note_off_c, 12, 59, 127
1, 202857, Note_on_c, 0, 60, 127
1, 202944, Note_off_c, 0, 60, 127
1, 202946, Note_on_c, 10, 57, 127
1, 203033, Note_off_c, 10, 57, 127
1, 203035, Note_on_c, 12, 59, 127
1, 203122, Note_off_c, 12, 59, 127
1, 203124, Note_on_c, 0, 60, 127
1, 203211, Note_off_c, 0, 60, 127
1, 203213, Note_on_c, 6, 54, 127
1, 203306, Note_off_c, 6, 54, 127
1, 203310, Note_on_c, 7, 55, 127
1, 203397, Note_off_c, 7, 55, 127
1, 203399, Note_on_c, 10, 57, 127
1, 203486, Note_off_c, 10, 57, 127
1, 203488, Note_on_c, 12, 59, 127
1, 203575, Note_off_c, 12, 59, 127
1, 203577, Note_on_c, 1, 61, 127
1, 203664, Note_off_c, 1, 61, 127
1, 203666, Note_on_c, 3, 63, 127
1, 203753, Note_off_c, 3, 63, 127
1, 203755, Note_on_c, 4, 64, 127
1, 203842, Note_off_c, 4, 64, 127
1, 203844, Note_on_c, 6, 66, 127
1, 203931, Note_off_c, 6, 66, 127
1, 203933, Note_on_c, 7, 67, 127
1, 204020, Note_off_c, 7, 67, 127
1, 204022, Note_on_c, 10, 69, 127
1, 204109, Note_off_c, 10, 69, 127
1, 204111, Note_on_c, 12, 71, 127
1, 204279, Note_off_c, 12, 71, 127
1, 204282, Note_on_c, 6, 66, 127
1, 204410, Note_off_c, 6, 66, 127
1, 204429, Note_on_c, 4, 40, 127
1, 204429, Note_on_c, 12, 59, 127
1, 204429, Note_on_c, 4, 64, 127
1, 204429, Note_on_c, 7, 67, 127
1, 204929, Note_off_c, 12, 59, 127
1, 204976, Note_on_c, 4, 76, 127
1, 204979, Note_off_c, 7, 67, 127
1, 204979, Note_off_c, 4, 64, 127
1, 205200, Note_off_c, 4, 76, 127
1, 205202, Note_on_c, 6, 78, 127
1, 205322, Note_off_c, 4, 40, 127
1, 205425, Note_off_c, 6, 78, 127
1, 205427, Note_on_c, 7, 79, 127
1, 205651, Note_off_c, 7, 79, 127
1, 205653, Note_on_c, 12, 83, 127
1, 205877, Note_off_c, 12, 83, 127
1, 205879, Note_on_c, 10, 81, 127
1, 206103, Note_off_c, 10, 81, 127
1, 206105, Note_on_c, 6, 78, 127
1, 206329, Note_off_c, 6, 78, 127
1, 206331, Note_on_c, 7, 79, 127
1, 206780, Note_off_c, 7, 79, 127
1, 206782, Note_on_c, 4, 64, 127
1, 206782, Note_on_c, 12, 71, 127
1, 207006, Note_off_c, 4, 64, 127
1, 207008, Note_on_c, 6, 66, 127
1, 207229, Note_off_c, 12, 71, 127
1, 207231, Note_off_c, 6, 66, 127
1, 207233, Note_on_c, 7, 67, 127
1, 207233, Note_on_c, 1, 73, 127
1, 207457, Note_off_c, 7, 67, 127
1, 207459, Note_on_c, 12, 71, 127
1, 207680, Note_off_c, 1, 73, 127
1, 207682, Note_off_c, 12, 71, 127
1, 207684, Note_on_c, 3, 75, 127
1, 207684, Note_on_c, 10, 69, 127
1, 207908, Note_off_c, 10, 69, 127
1, 207910, Note_on_c, 6, 66, 127
1, 208131, Note_off_c, 3, 75, 127
1, 208133, Note_off_c, 6, 66, 127
1, 208135, Note_on_c, 4, 76, 127
1, 208135, Note_on_c, 7, 67, 127
1, 208584, Note_off_c, 7, 67, 127
1, 208584, Note_off_c, 4, 76, 127
1, 208586, Note_on_c, 4, 64, 127
1, 208586, Note_on_c, 8, 68, 127
1, 208586, Note_on_c, 4, 76, 127
1, 208885, Note_off_c, 4, 64, 127
1, 208887, Note_on_c, 2, 62, 127
1, 209035, Note_off_c, 2, 62, 127
1, 209035, Note_off_c, 4, 76, 127
1, 209035, Note_off_c, 8, 68, 127
1, 209037, Note_on_c, 0, 60, 127
1, 209037, Note_on_c, 10, 69, 127
1, 209037, Note_on_c, 6, 78, 127
1, 209185, Note_off_c, 0, 60, 127
1, 209187, Note_on_c, 12, 59, 127
1, 209335, Note_off_c, 12, 59, 127
1, 209337, Note_on_c, 10, 57, 127
1, 209485, Note_off_c, 10, 57, 127
1, 209485, Note_off_c, 6, 78, 127
1, 209485, Note_off_c, 10, 69, 127
1, 209487, Note_on_c, 12, 59, 127
1, 209487, Note_on_c, 12, 71, 127
1, 209487, Note_on_c, 2, 74, 127
1, 209487, Note_on_c, 8, 80, 127
1, 209635, Note_off_c, 12, 59, 127
1, 209637, Note_on_c, 0, 60, 127
1, 209785, Note_off_c, 0, 60, 127
1, 209787, Note_on_c, 2, 62, 127
1, 209935, Note_off_c, 2, 62, 127
1, 209935, Note_off_c, 8, 80, 127
1, 209935, Note_off_c, 2, 74, 127
1, 209935, Note_off_c, 12, 71, 127
1, 209937, Note_on_c, 0, 60, 127
1, 209937, Note_on_c, 10, 81, 127
1, 209937, Note_on_c, 4, 76, 127
1, 209937, Note_on_c, 10, 69, 127
1, 210085, Note_off_c, 0, 60, 127
1, 210087, Note_on_c, 12, 59, 127
1, 210235, Note_off_c, 12, 59, 127
1, 210237, Note_on_c, 10, 57, 127
1, 210359, Note_off_c, 4, 76, 127
1, 210359, Note_off_c, 10, 81, 127
1, 210385, Note_off_c, 10, 57, 127
1, 210385, Note_off_c, 10, 69, 127
1, 210387, Note_on_c, 2, 62, 127
1, 210387, Note_on_c, 10, 69, 127
1, 210387, Note_on_c, 6, 78, 127
1, 210686, Note_off_c, 2, 62, 127
1, 210688, Note_on_c, 0, 60, 127
1, 210836, Note_off_c, 0, 60, 127
1, 210836, Note_off_c, 6, 78, 127
1, 210836, Note_off_c, 10, 69, 127
1, 210838, Note_on_c, 12, 59, 127
1, 210838, Note_on_c, 2, 74, 127
1, 210838, Note_on_c, 7, 79, 127
1, 210986, Note_off_c, 12, 59, 127
1, 210988, Note_on_c, 10, 57, 127
1, 211136, Note_off_c, 10, 57, 127
1, 211138, Note_on_c, 7, 55, 127
1, 211237, Note_off_c, 7, 79, 127
1, 211261, Note_off_c, 2, 74, 127
1, 211287, Note_off_c, 7, 55, 127
1, 211289, Note_on_c, 10, 57, 127
1, 211289, Note_on_c, 0, 72, 127
1, 211289, Note_on_c, 5, 77, 127
1, 211437, Note_off_c, 10, 57, 127
1, 211439, Note_on_c, 12, 59, 127
1, 211587, Note_off_c, 12, 59, 127
1, 211589, Note_on_c, 0, 60, 127
1, 211737, Note_off_c, 0, 60, 127
1, 211737, Note_off_c, 0, 72, 127
1, 211739, Note_on_c, 12, 59, 127
1, 211739, Note_on_c, 7, 67, 127
1, 211887, Note_off_c, 12, 59, 127
1, 211889, Note_on_c, 10, 57, 127
1, 212037, Note_off_c, 10, 57, 127
1, 212039, Note_on_c, 7, 55, 127
1, 212180, Note_off_c, 5, 77, 127
1, 212187, Note_off_c, 7, 55, 127
1, 212189, Note_on_c, 0, 60, 127
1, 212189, Note_on_c, 4, 76, 127
1, 212337, Note_off_c, 0, 60, 127
1, 212339, Note_on_c, 2, 62, 127
1, 212487, Note_off_c, 2, 62, 127
1, 212489, Note_on_c, 4, 64, 127
1, 212630, Note_off_c, 7, 67, 127
1, 212637, Note_off_c, 4, 64, 127
1, 212639, Note_on_c, 10, 57, 127
1, 212639, Note_on_c, 6, 66, 127
1, 212787, Note_off_c, 10, 57, 127
1, 212789, Note_on_c, 7, 55, 127
1, 212937, Note_off_c, 7, 55, 127
1, 212939, Note_on_c, 6, 54, 127
1, 213080, Note_off_c, 4, 76, 127
1, 213087, Note_off_c, 6, 54, 127
1, 213089, Note_on_c, 12, 59, 127
1, 213089, Note_on_c, 2, 74, 127
1, 213237, Note_off_c, 12, 59, 127
1, 213239, Note_on_c, 0, 60, 127
1, 213387, Note_off_c, 0, 60, 127
1, 213389, Note_on_c, 2, 62, 127
1, 213530, Note_off_c, 6, 66, 127
1, 213537, Note_off_c, 2, 62, 127
1, 213539, Note_on_c, 8, 56, 127
1, 213539, Note_on_c, 4, 64, 127
1, 213687, Note_off_c, 8, 56, 127
1, 213689, Note_on_c, 6, 54, 127
1, 213837, Note_off_c, 6, 54, 127
1, 213839, Note_on_c, 4, 52, 127
1, 213980, Note_off_c, 2, 74, 127
1, 213987, Note_off_c, 4, 52, 127
1, 213989, Note_on_c, 10, 57, 127
1, 213989, Note_on_c, 0, 72, 127
1, 214137, Note_off_c, 10, 57, 127
1, 214139, Note_on_c, 12, 59, 127
1, 214287, Note_off_c, 12, 59, 127
1, 214289, Note_on_c, 0, 60, 127
1, 214430, Note_off_c, 4, 64, 127
1, 214437, Note_off_c, 0, 60, 127
1, 214439, Note_on_c, 6, 54, 127
1, 214439, Note_on_c, 2, 62, 127
1, 214587, Note_off_c, 6, 54, 127
1, 214589, Note_on_c, 4, 52, 127
1, 214737, Note_off_c, 4, 52, 127
1, 214739, Note_on_c, 2, 50, 127
1, 214880, Note_off_c, 0, 72, 127
1, 214887, Note_off_c, 2, 50, 127
1, 214889, Note_on_c, 7, 55, 127
1, 214889, Note_on_c, 12, 71, 127
1, 215037, Note_off_c, 7, 55, 127
1, 215039, Note_on_c, 10, 57, 127
1, 215187, Note_off_c, 10, 57, 127
1, 215189, Note_on_c, 12, 59, 127
1, 215330, Note_off_c, 2, 62, 127
1, 215337, Note_off_c, 12, 59, 127
1, 215339, Note_on_c, 1, 49, 127
1, 215339, Note_on_c, 4, 64, 127
1, 215528, Note_on_c, 4, 52, 127
1, 215557, Note_off_c, 1, 49, 127
1, 215627, Note_off_c, 4, 52, 127
1, 215629, Note_on_c, 7, 55, 127
1, 215728, Note_off_c, 7, 55, 127
1, 215730, Note_on_c, 1, 61, 127
1, 215733, Note_off_c, 4, 64, 127
1, 215735, Note_off_c, 12, 71, 127
1, 215829, Note_off_c, 1, 61, 127
1, 215831, Note_on_c, 4, 64, 127
1, 215930, Note_off_c, 4, 64, 127
1, 215932, Note_on_c, 7, 67, 127
1, 216031, Note_off_c, 7, 67, 127
1, 216033, Note_on_c, 4, 64, 127
1, 216132, Note_off_c, 4, 64, 127
1, 216134, Note_on_c, 1, 61, 127
1, 216233, Note_off_c, 1, 61, 127
1, 216235, Note_on_c, 10, 57, 127
1, 216357, Note_on_c, 12, 59, 127
1, 216363, Note_off_c, 10, 57, 127
1, 216455, Note_on_c, 1, 61, 127
1, 216456, Note_off_c, 12, 59, 127
1, 216553, Note_on_c, 2, 62, 127
1, 216554, Note_off_c, 1, 61, 127
1, 216651, Note_on_c, 4, 64, 127
1, 216652, Note_off_c, 2, 62, 127
1, 216749, Note_on_c, 6, 66, 127
1, 216750, Note_off_c, 4, 64, 127
1, 216847, Note_on_c, 7, 67, 127
1, 216848, Note_off_c, 6, 66, 127
1, 216945, Note_on_c, 10, 69, 127
1, 216946, Note_off_c, 7, 67, 127
1, 217043, Note_on_c, 7, 67, 127
1, 217044, Note_off_c, 10, 69, 127
1, 217130, Note_off_c, 7, 67, 127
1, 217132, Note_on_c, 4, 64, 127
1, 217219, Note_off_c, 4, 64, 127
1, 217221, Note_on_c, 6, 66, 127
1, 217308, Note_off_c, 6, 66, 127
1, 217310, Note_on_c, 7, 67, 127
1, 217397, Note_off_c, 7, 67, 127
1, 217399, Note_on_c, 1, 61, 127
1, 217486, Note_off_c, 1, 61, 127
1, 217488, Note_on_c, 2, 62, 127
1, 217575, Note_off_c, 2, 62, 127
1, 217577, Note_on_c, 4, 64, 127
1, 217664, Note_off_c, 4, 64, 127
1, 217666, Note_on_c, 6, 66, 127
1, 217753, Note_off_c, 6, 66, 127
1, 217755, Note_on_c, 7, 67, 127
1, 217842, Note_off_c, 7, 67, 127
1, 217844, Note_on_c, 10, 69, 127
1, 217931, Note_off_c, 10, 69, 127
1, 217933, Note_on_c, 12, 71, 127
1, 218020, Note_off_c, 12, 71, 127
1, 218022, Note_on_c, 1, 73, 127
1, 218109, Note_off_c, 1, 73, 127
1, 218111, Note_on_c, 2, 74, 127
1, 218198, Note_off_c, 2, 74, 127
1, 218200, Note_on_c, 4, 76, 127
1, 218287, Note_off_c, 4, 76, 127
1, 218289, Note_on_c, 6, 78, 127
1, 218376, Note_off_c, 6, 78, 127
1, 218378, Note_on_c, 7, 79, 127
1, 218465, Note_off_c, 7, 79, 127
1, 218467, Note_on_c, 10, 81, 127
1, 218467, Note_on_c, 0, 48, 127
1, 218467, Note_on_c, 2, 50, 127
1, 218467, Note_on_c, 6, 54, 127
1, 218467, Note_on_c, 10, 57, 127
1, 218629, Note_on_c, 6, 78, 127
1, 218646, Note_off_c, 10, 81, 127
1, 218725, Note_off_c, 6, 78, 127
1, 218727, Note_on_c, 7, 79, 127
1, 218823, Note_off_c, 7, 79, 127
1, 218825, Note_on_c, 10, 81, 127
1, 218921, Note_off_c, 10, 81, 127
1, 218923, Note_on_c, 2, 74, 127
1, 219019, Note_off_c, 2, 74, 127
1, 219021, Note_on_c, 4, 76, 127
1, 219117, Note_off_c, 4, 76, 127
1, 219119, Note_on_c, 6, 78, 127
1, 219215, Note_off_c, 6, 78, 127
1, 219217, Note_on_c, 2, 74, 127
1, 219313, Note_off_c, 2, 74, 127
1, 219315, Note_on_c, 10, 69, 127
1, 219411, Note_off_c, 10, 69, 127
1, 219413, Note_on_c, 2, 74, 127
1, 219509, Note_off_c, 2, 74, 127
1, 219511, Note_on_c, 1, 73, 127
1, 219607, Note_off_c, 1, 73, 127
1, 219609, Note_on_c, 12, 71, 127
1, 219705, Note_off_c, 12, 71, 127
1, 219707, Note_on_c, 10, 69, 127
1, 219803, Note_off_c, 10, 69, 127
1, 219805, Note_on_c, 7, 67, 127
1, 219901, Note_off_c, 7, 67, 127
1, 219903, Note_on_c, 6, 66, 127
1, 219999, Note_off_c, 6, 66, 127
1, 220001, Note_on_c, 4, 64, 127
1, 220033, Note_off_c, 10, 57, 127
1, 220033, Note_off_c, 6, 54, 127
1, 220033, Note_off_c, 2, 50, 127
1, 220033, Note_off_c, 0, 48, 127
1, 220097, Note_off_c, 4, 64, 127
1, 220099, Note_on_c, 2, 62, 127
1, 220195, Note_off_c, 2, 62, 127
1, 220197, Note_on_c, 4, 64, 127
1, 220293, Note_off_c, 4, 64, 127
1, 220295, Note_on_c, 6, 66, 127
1, 220391, Note_off_c, 6, 66, 127
1, 220393, Note_on_c, 1, 61, 127
1, 220489, Note_off_c, 1, 61, 127
1, 220491, Note_on_c, 2, 62, 127
1, 220587, Note_off_c, 2, 62, 127
1, 220589, Note_on_c, 10, 57, 127
1, 220685, Note_off_c, 10, 57, 127
1, 220687, Note_on_c, 6, 54, 127
1, 220783, Note_off_c, 6, 54, 127
1, 220785, Note_on_c, 10, 57, 127
1, 220881, Note_off_c, 10, 57, 127
1, 220883, Note_on_c, 2, 50, 127
1, 220979, Note_off_c, 2, 50, 127
1, 220981, Note_on_c, 6, 54, 127
1, 221077, Note_off_c, 6, 54, 127
1, 221079, Note_on_c, 10, 57, 127
1, 221175, Note_off_c, 10, 57, 127
1, 221177, Note_on_c, 2, 62, 127
1, 221273, Note_off_c, 2, 62, 127
1, 221275, Note_on_c, 10, 57, 127
1, 221371, Note_off_c, 10, 57, 127
1, 221373, Note_on_c, 6, 54, 127
1, 221469, Note_off_c, 6, 54, 127
1, 221471, Note_on_c, 2, 50, 127
1, 221591, Note_off_c, 2, 50, 127
1, 221593, Note_on_c, 0, 48, 127
1, 221713, Note_off_c, 0, 48, 127
1, 221723, Note_on_c, 12, 47, 127
1, 222175, Note_on_c, 7, 67, 127
1, 222382, Note_off_c, 12, 47, 127
1, 222398, Note_off_c, 7, 67, 127
1, 222400, Note_on_c, 10, 69, 127
1, 222624, Note_off_c, 10, 69, 127
1, 222626, Note_on_c, 12, 71, 127
1, 222850, Note_off_c, 12, 71, 127
1, 222852, Note_on_c, 2, 74, 127
1, 223076, Note_off_c, 2, 74, 127
1, 223078, Note_on_c, 0, 72, 127
1, 223078, Note_on_c, 6, 54, 127
1, 223078, Note_on_c, 0, 48, 127
1, 223078, Note_on_c, 10, 45, 127
1, 223302, Note_off_c, 0, 72, 127
1, 223304, Note_on_c, 10, 69, 127
1, 223528, Note_off_c, 10, 69, 127
1, 223528, Note_off_c, 10, 45, 127
1, 223528, Note_off_c, 0, 48, 127
1, 223528, Note_off_c, 6, 54, 127
1, 223530, Note_on_c, 12, 71, 127
1, 223530, Note_on_c, 7, 55, 127
1, 223530, Note_on_c, 2, 50, 127
1, 223530, Note_on_c, 7, 43, 127
1, 223979, Note_off_c, 7, 43, 127
1, 223979, Note_off_c, 2, 50, 127
1, 223979, Note_off_c, 7, 55, 127
1, 223981, Note_on_c, 7, 55, 127
1, 224205, Note_off_c, 7, 55, 127
1, 224207, Note_on_c, 10, 57, 127
1, 224423, Note_off_c, 12, 71, 127
1, 224430, Note_off_c, 10, 57, 127
1, 224432, Note_on_c, 12, 59, 127
1, 224656, Note_off_c, 12, 59, 127
1, 224658, Note_on_c, 2, 62, 127
1, 224882, Note_off_c, 2, 62, 127
1, 224884, Note_on_c, 2, 38, 127
1, 224884, Note_on_c, 6, 66, 127
1, 224884, Note_on_c, 0, 60, 127
1, 225108, Note_off_c, 0, 60, 127
1, 225110, Note_on_c, 10, 57, 127
1, 225334, Note_off_c, 10, 57, 127
1, 225334, Note_off_c, 6, 66, 127
1, 225334, Note_off_c, 2, 38, 127
1, 225336, Note_on_c, 2, 50, 127
1, 225336, Note_on_c, 7, 67, 127
1, 225336, Note_on_c, 12, 59, 127
1, 225484, Note_off_c, 12, 59, 127
1, 225486, Note_on_c, 0, 60, 127
1, 225634, Note_off_c, 0, 60, 127
1, 225636, Note_on_c, 2, 62, 127
1, 225784, Note_off_c, 2, 62, 127
1, 225784, Note_off_c, 7, 67, 127
1, 225786, Note_on_c, 2, 38, 127
1, 225786, Note_on_c, 6, 66, 127
1, 225786, Note_on_c, 0, 60, 127
1, 225934, Note_off_c, 0, 60, 127
1, 225936, Note_on_c, 12, 59, 127
1, 226084, Note_off_c, 12, 59, 127
1, 226086, Note_on_c, 10, 57, 127
1, 226227, Note_off_c, 2, 50, 127
1, 226234, Note_off_c, 10, 57, 127
1, 226234, Note_off_c, 6, 66, 127
1, 226234, Note_off_c, 2, 38, 127
1, 226236, Note_on_c, 2, 50, 127
1, 226236, Note_on_c, 7, 67, 127
1, 226236, Note_on_c, 12, 59, 127
1, 226384, Note_off_c, 12, 59, 127
1, 226386, Note_on_c, 0, 60, 127
1, 226534, Note_off_c, 0, 60, 127
1, 226536, Note_on_c, 2, 62, 127
1, 226684, Note_off_c, 2, 62, 127
1, 226684, Note_off_c, 7, 67, 127
1, 226686, Note_on_c, 2, 38, 127
1, 226686, Note_on_c, 6, 66, 127
1, 226686, Note_on_c, 0, 60, 127
1, 226834, Note_off_c, 0, 60, 127
1, 226836, Note_on_c, 12, 59, 127
1, 226984, Note_off_c, 12, 59, 127
1, 226986, Note_on_c, 10, 57, 127
1, 227080, Note_off_c, 2, 50, 127
1, 227108, Note_off_c, 2, 38, 127
1, 227134, Note_off_c, 10, 57, 127
1, 227134, Note_off_c, 6, 66, 127
1, 227136, Note_on_c, 4, 52, 127
1, 227136, Note_on_c, 7, 67, 127
1, 227136, Note_on_c, 7, 55, 127
1, 227284, Note_off_c, 7, 55, 127
1, 227286, Note_on_c, 10, 57, 127
1, 227434, Note_off_c, 10, 57, 127
1, 227436, Note_on_c, 12, 59, 127
1, 227584, Note_off_c, 12, 59, 127
1, 227584, Note_off_c, 7, 67, 127
1, 227584, Note_off_c, 4, 52, 127
1, 227586, Note_on_c, 0, 48, 127
1, 227586, Note_on_c, 0, 60, 127
1, 227734, Note_off_c, 0, 60, 127
1, 227736, Note_on_c, 2, 62, 127
1, 227884, Note_off_c, 2, 62, 127
1, 227886, Note_on_c, 4, 64, 127
1, 228034, Note_off_c, 4, 64, 127
1, 228034, Note_off_c, 0, 48, 127
1, 228036, Note_on_c, 2, 50, 127
1, 228036, Note_on_c, 2, 62, 127
1, 228184, Note_off_c, 2, 62, 127
1, 228186, Note_on_c, 0, 60, 127
1, 228334, Note_off_c, 0, 60, 127
1, 228336, Note_on_c, 12, 59, 127
1, 228484, Note_off_c, 12, 59, 127
1, 228484, Note_off_c, 2, 50, 127
1, 228486, Note_on_c, 2, 38, 127
1, 228486, Note_on_c, 10, 57, 127
1, 228637, Note_on_c, 7, 67, 127
1, 228785, Note_off_c, 7, 67, 127
1, 228787, Note_on_c, 6, 66, 127
1, 228874, Note_off_c, 2, 38, 127
1, 228935, Note_off_c, 6, 66, 127
1, 228935, Note_off_c, 10, 57, 127
1, 228941, Note_on_c, 12, 59, 127
1, 228941, Note_on_c, 7, 55, 127
1, 229089, Note_off_c, 12, 59, 127
1, 229095, Note_on_c, 0, 60, 127
1, 229243, Note_off_c, 0, 60, 127
1, 229245, Note_on_c, 2, 62, 127
1, 229393, Note_off_c, 2, 62, 127
1, 229395, Note_on_c, 7, 67, 127
1, 229395, Note_on_c, 7, 43, 127
1, 229543, Note_off_c, 7, 67, 127
1, 229545, Note_on_c, 6, 66, 127
1, 229693, Note_off_c, 6, 66, 127
1, 229695, Note_on_c, 7, 67, 127
1, 229843, Note_off_c, 7, 67, 127
1, 229845, Note_on_c, 0, 60, 127
1, 229993, Note_off_c, 0, 60, 127
1, 229995, Note_on_c, 2, 62, 127
1, 230143, Note_off_c, 2, 62, 127
1, 230145, Note_on_c, 4, 64, 127
1, 230289, Note_off_c, 7, 55, 127
1, 230293, Note_off_c, 4, 64, 127
1, 230293, Note_off_c, 7, 43, 127
1, 230295, Note_on_c, 10, 69, 127
1, 230295, Note_on_c, 7, 55, 127
1, 230443, Note_off_c, 10, 69, 127
1, 230445, Note_on_c, 7, 67, 127
1, 230593, Note_off_c, 7, 67, 127
1, 230595, Note_on_c, 10, 69, 127
1, 230743, Note_off_c, 10, 69, 127
1, 230743, Note_off_c, 7, 55, 127
1, 230745, Note_on_c, 2, 62, 127
1, 230745, Note_on_c, 7, 55, 127
1, 230893, Note_off_c, 2, 62, 127
1, 230895, Note_on_c, 4, 64, 127
1, 231043, Note_off_c, 4, 64, 127
1, 231045, Note_on_c, 5, 65, 127
1, 231193, Note_off_c, 5, 65, 127
1, 231195, Note_on_c, 12, 71, 127
1, 231195, Note_on_c, 7, 43, 127
1, 231343, Note_off_c, 12, 71, 127
1, 231345, Note_on_c, 10, 69, 127
1, 231493, Note_off_c, 10, 69, 127
1, 231495, Note_on_c, 12, 71, 127
1, 231643, Note_off_c, 12, 71, 127
1, 231645, Note_on_c, 4, 64, 127
1, 231793, Note_off_c, 4, 64, 127
1, 231795, Note_on_c, 5, 65, 127
1, 231943, Note_off_c, 5, 65, 127
1, 231945, Note_on_c, 7, 67, 127
1, 232093, Note_off_c, 7, 67, 127
1, 232093, Note_off_c, 7, 43, 127
1, 232093, Note_off_c, 7, 55, 127
1, 232095, Note_on_c, 0, 72, 127
1, 232095, Note_on_c, 7, 55, 127
1, 232243, Note_off_c, 0, 72, 127
1, 232245, Note_on_c, 12, 71, 127
1, 232393, Note_off_c, 12, 71, 127
1, 232395, Note_on_c, 0, 72, 127
1, 232543, Note_off_c, 0, 72, 127
1, 232543, Note_off_c, 7, 55, 127
1, 232545, Note_on_c, 6, 66, 127
1, 232545, Note_on_c, 7, 55, 127
1, 232693, Note_off_c, 6, 66, 127
1, 232695, Note_on_c, 7, 67, 127
1, 232843, Note_off_c, 7, 67, 127
1, 232845, Note_on_c, 10, 69, 127
1, 232993, Note_off_c, 10, 69, 127
1, 232995, Note_on_c, 0, 72, 127
1, 232995, Note_on_c, 7, 43, 127
1, 233143, Note_off_c, 0, 72, 127
1, 233145, Note_on_c, 12, 71, 127
1, 233293, Note_off_c, 12, 71, 127
1, 233295, Note_on_c, 0, 72, 127
1, 233443, Note_off_c, 0, 72, 127
1, 233445, Note_on_c, 6, 66, 127
1, 233593, Note_off_c, 6, 66, 127
1, 233595, Note_on_c, 10, 69, 127
1, 233743, Note_off_c, 10, 69, 127
1, 233745, Note_on_c, 0, 72, 127
1, 233893, Note_off_c, 0, 72, 127
1, 233893, Note_off_c, 7, 43, 127
1, 233893, Note_off_c, 7, 55, 127
1, 233895, Note_on_c, 4, 76, 127
1, 233895, Note_on_c, 7, 55, 127
1, 234043, Note_off_c, 4, 76, 127
1, 234045, Note_on_c, 2, 74, 127
1, 234193, Note_off_c, 2, 74, 127
1, 234195, Note_on_c, 0, 72, 127
1, 234343, Note_off_c, 0, 72, 127
1, 234343, Note_off_c, 7, 55, 127
1, 234345, Note_on_c, 12, 71, 127
1, 234345, Note_on_c, 7, 55, 127
1, 234493, Note_off_c, 12, 71, 127
1, 234495, Note_on_c, 10, 69, 127
1, 234643, Note_off_c, 10, 69, 127
1, 234645, Note_on_c, 7, 67, 127
1, 234793, Note_off_c, 7, 67, 127
1, 234795, Note_on_c, 2, 74, 127
1, 234795, Note_on_c, 7, 43, 127
1, 234943, Note_off_c, 2, 74, 127
1, 234945, Note_on_c, 0, 72, 127
1, 235093, Note_off_c, 0, 72, 127
1, 235095, Note_on_c, 12, 71, 127
1, 235236, Note_off_c, 7, 55, 127
1, 235243, Note_off_c, 12, 71, 127
1, 235243, Note_off_c, 7, 43, 127
1, 235245, Note_on_c, 5, 77, 127
1, 235245, Note_on_c, 7, 55, 127
1, 235393, Note_off_c, 5, 77, 127
1, 235395, Note_on_c, 4, 76, 127
1, 235543, Note_off_c, 4, 76, 127
1, 235545, Note_on_c, 2, 74, 127
1, 235693, Note_off_c, 2, 74, 127
1, 235695, Note_on_c, 8, 80, 127
1, 235695, Note_on_c, 7, 43, 127
1, 235843, Note_off_c, 8, 80, 127
1, 235845, Note_on_c, 7, 79, 127
1, 235993, Note_off_c, 7, 79, 127
1, 235995, Note_on_c, 5, 77, 127
1, 236136, Note_off_c, 7, 55, 127
1, 236143, Note_off_c, 5, 77, 127
1, 236143, Note_off_c, 7, 43, 127
1, 236145, Note_on_c, 12, 83, 127
1, 236145, Note_on_c, 7, 55, 127
1, 236597, Note_on_c, 2, 74, 127
1, 236821, Note_off_c, 2, 74, 127
1, 236823, Note_on_c, 4, 76, 127
1, 237039, Note_off_c, 7, 55, 127
1, 237039, Note_off_c, 12, 83, 127
1, 237046, Note_off_c, 4, 76, 127
1, 237048, Note_on_c, 5, 77, 127
1, 237272, Note_off_c, 5, 77, 127
1, 237274, Note_on_c, 10, 81, 127
1, 237498, Note_off_c, 10, 81, 127
1, 237500, Note_on_c, 7, 79, 127
1, 237724, Note_off_c, 7, 79, 127
1, 237726, Note_on_c, 2, 74, 127
1, 237950, Note_off_c, 2, 74, 127
1, 237952, Note_on_c, 4, 76, 127
1, 237952, Note_on_c, 11, 82, 127
1, 237952, Note_on_c, 0, 48, 127
1, 238404, Note_on_c, 7, 55, 127
1, 238628, Note_off_c, 7, 55, 127
1, 238630, Note_on_c, 10, 57, 127
1, 238846, Note_off_c, 0, 48, 127
1, 238846, Note_off_c, 11, 82, 127
1, 238846, Note_off_c, 4, 76, 127
1, 238853, Note_off_c, 10, 57, 127
1, 238855, Note_on_c, 11, 58, 127
1, 239079, Note_off_c, 11, 58, 127
1, 239081, Note_on_c, 2, 62, 127
1, 239305, Note_off_c, 2, 62, 127
1, 239307, Note_on_c, 0, 60, 127
1, 239531, Note_off_c, 0, 60, 127
1, 239533, Note_on_c, 7, 55, 127
1, 239757, Note_off_c, 7, 55, 127
1, 239759, Note_on_c, 10, 81, 127
1, 239759, Note_on_c, 10, 57, 127
1, 239759, Note_on_c, 1, 49, 127
1, 239985, Note_on_c, 10, 69, 127
1, 240209, Note_off_c, 10, 69, 127
1, 240211, Note_on_c, 4, 76, 127
1, 240435, Note_off_c, 4, 76, 127
1, 240437, Note_on_c, 5, 77, 127
1, 240653, Note_off_c, 1, 49, 127
1, 240653, Note_off_c, 10, 57, 127
1, 240653, Note_off_c, 10, 81, 127
1, 240660, Note_off_c, 5, 77, 127
1, 240662, Note_on_c, 7, 79, 127
1, 240886, Note_off_c, 7, 79, 127
1, 240888, Note_on_c, 11, 82, 127
1, 241112, Note_off_c, 11, 82, 127
1, 241114, Note_on_c, 10, 81, 127
1, 241338, Note_off_c, 10, 81, 127
1, 241340, Note_on_c, 4, 76, 127
1, 241564, Note_off_c, 4, 76, 127
1, 241566, Note_on_c, 2, 74, 127
1, 241566, Note_on_c, 5, 77, 127
1, 241566, Note_on_c, 10, 69, 127
1, 241566, Note_on_c, 2, 50, 127
1, 242018, Note_on_c, 10, 57, 127
1, 242242, Note_off_c, 10, 57, 127
1, 242244, Note_on_c, 12, 59, 127
1, 242460, Note_off_c, 2, 50, 127
1, 242460, Note_off_c, 10, 69, 127
1, 242460, Note_off_c, 5, 77, 127
1, 242460, Note_off_c, 2, 74, 127
1, 242467, Note_off_c, 12, 59, 127
1, 242469, Note_on_c, 0, 60, 127
1, 242693, Note_off_c, 0, 60, 127
1, 242695, Note_on_c, 4, 64, 127
1, 242919, Note_off_c, 4, 64, 127
1, 242921, Note_on_c, 2, 62, 127
1, 243145, Note_off_c, 2, 62, 127
1, 243147, Note_on_c, 10, 57, 127
1, 243371, Note_off_c, 10, 57, 127
1, 243373, Note_on_c, 12, 59, 127
1, 243373, Note_on_c, 8, 56, 127
1, 243599, Note_on_c, 4, 64, 127
1, 243823, Note_off_c, 4, 64, 127
1, 243825, Note_on_c, 12, 71, 127
1, 244049, Note_off_c, 12, 71, 127
1, 244051, Note_on_c, 0, 72, 127
1, 244267, Note_off_c, 8, 56, 127
1, 244267, Note_off_c, 12, 59, 127
1, 244274, Note_off_c, 0, 72, 127
1, 244276, Note_on_c, 2, 74, 127
1, 244500, Note_off_c, 2, 74, 127
1, 244502, Note_on_c, 5, 77, 127
1, 244726, Note_off_c, 5, 77, 127
1, 244728, Note_on_c, 4, 76, 127
1, 244952, Note_off_c, 4, 76, 127
1, 244954, Note_on_c, 12, 71, 127
1, 245178, Note_off_c, 12, 71, 127
1, 245180, Note_on_c, 0, 72, 127
1, 245180, Note_on_c, 4, 64, 127
1, 245180, Note_on_c, 10, 57, 127
1, 245328, Note_off_c, 0, 72, 127
1, 245330, Note_on_c, 2, 74, 127
1, 245478, Note_off_c, 2, 74, 127
1, 245480, Note_on_c, 4, 76, 127
1, 245628, Note_off_c, 4, 76, 127
1, 245628, Note_off_c, 10, 57, 127
1, 245628, Note_off_c, 4, 64, 127
1, 245630, Note_on_c, 10, 81, 127
1, 245630, Note_on_c, 10, 57, 127
1, 245630, Note_on_c, 2, 62, 127
1, 245630, Note_on_c, 5, 53, 127
1, 245778, Note_off_c, 10, 81, 127
1, 245780, Note_on_c, 7, 79, 127
1, 245928, Note_off_c, 7, 79, 127
1, 245930, Note_on_c, 10, 81, 127
1, 246078, Note_off_c, 10, 81, 127
1, 246078, Note_off_c, 10, 57, 127
1, 246080, Note_on_c, 12, 71, 127
1, 246080, Note_on_c, 7, 55, 127
1, 246228, Note_off_c, 12, 71, 127
1, 246230, Note_on_c, 0, 72, 127
1, 246378, Note_off_c, 0, 72, 127
1, 246380, Note_on_c, 2, 74, 127
1, 246521, Note_off_c, 5, 53, 127
1, 246521, Note_off_c, 2, 62, 127
1, 246528, Note_off_c, 2, 74, 127
1, 246528, Note_off_c, 7, 55, 127
1, 246530, Note_on_c, 7, 79, 127
1, 246530, Note_on_c, 0, 60, 127
1, 246530, Note_on_c, 4, 52, 127
1, 246530, Note_on_c, 7, 55, 127
1, 246678, Note_off_c, 7, 79, 127
1, 246680, Note_on_c, 5, 77, 127
1, 246828, Note_off_c, 5, 77, 127
1, 246830, Note_on_c, 7, 79, 127
1, 246978, Note_off_c, 7, 79, 127
1, 246978, Note_off_c, 7, 55, 127
1, 246980, Note_on_c, 10, 69, 127
1, 246980, Note_on_c, 5, 53, 127
1, 247128, Note_off_c, 10, 69, 127
1, 247130, Note_on_c, 12, 71, 127
1, 247278, Note_off_c, 12, 71, 127
1, 247280, Note_on_c, 0, 72, 127
1, 247421, Note_off_c, 4, 52, 127
1, 247421, Note_off_c, 0, 60, 127
1, 247428, Note_off_c, 0, 72, 127
1, 247428, Note_off_c, 5, 53, 127
1, 247430, Note_on_c, 5, 77, 127
1, 247430, Note_on_c, 12, 59, 127
1, 247430, Note_on_c, 2, 50, 127
1, 247430, Note_on_c, 5, 53, 127
1, 247578, Note_off_c, 5, 77, 127
1, 247580, Note_on_c, 4, 76, 127
1, 247728, Note_off_c, 4, 76, 127
1, 247730, Note_on_c, 5, 77, 127
1, 247878, Note_off_c, 5, 77, 127
1, 247878, Note_off_c, 5, 53, 127
1, 247880, Note_on_c, 8, 68, 127
1, 247880, Note_on_c, 4, 52, 127
1, 248028, Note_off_c, 8, 68, 127
1, 248030, Note_on_c, 10, 69, 127
1, 248178, Note_off_c, 10, 69, 127
1, 248180, Note_on_c, 12, 71, 127
1, 248321, Note_off_c, 2, 50, 127
1, 248321, Note_off_c, 12, 59, 127
1, 248328, Note_off_c, 12, 71, 127
1, 248328, Note_off_c, 4, 52, 127
1, 248330, Note_on_c, 4, 76, 127
1, 248330, Note_on_c, 10, 57, 127
1, 248330, Note_on_c, 0, 48, 127
1, 248330, Note_on_c, 4, 52, 127
1, 248478, Note_off_c, 4, 76, 127
1, 248480, Note_on_c, 2, 74, 127
1, 248628, Note_off_c, 2, 74, 127
1, 248630, Note_on_c, 4, 76, 127
1, 248778, Note_off_c, 4, 76, 127
1, 248778, Note_off_c, 4, 52, 127
1, 248780, Note_on_c, 6, 66, 127
1, 248780, Note_on_c, 2, 50, 127
1, 248928, Note_off_c, 6, 66, 127
1, 248930, Note_on_c, 8, 68, 127
1, 249078, Note_off_c, 8, 68, 127
1, 249080, Note_on_c, 10, 69, 127
1, 249221, Note_off_c, 0, 48, 127
1, 249221, Note_off_c, 10, 57, 127
1, 249228, Note_off_c, 10, 69, 127
1, 249228, Note_off_c, 2, 50, 127
1, 249230, Note_on_c, 2, 74, 127
1, 249230, Note_on_c, 0, 60, 127
1, 249378, Note_off_c, 2, 74, 127
1, 249380, Note_on_c, 0, 72, 127
1, 249528, Note_off_c, 0, 72, 127
1, 249530, Note_on_c, 2, 74, 127
1, 249678, Note_off_c, 2, 74, 127
1, 249678, Note_off_c, 0, 60, 127
1, 249680, Note_on_c, 5, 65, 127
1, 249680, Note_on_c, 12, 59, 127
1, 249828, Note_off_c, 5, 65, 127
1, 249830, Note_on_c, 8, 68, 127
1, 249978, Note_off_c, 8, 68, 127
1, 249980, Note_on_c, 12, 71, 127
1, 250128, Note_off_c, 12, 71, 127
1, 250128, Note_off_c, 12, 59, 127
1, 250130, Note_on_c, 2, 74, 127
1, 250130, Note_on_c, 10, 57, 127
1, 250278, Note_off_c, 2, 74, 127
1, 250280, Note_on_c, 0, 72, 127
1, 250428, Note_off_c, 0, 72, 127
1, 250430, Note_on_c, 2, 74, 127
1, 250578, Note_off_c, 2, 74, 127
1, 250578, Note_off_c, 10, 57, 127
1, 250580, Note_on_c, 4, 64, 127
1, 250580, Note_on_c, 8, 56, 127
1, 250728, Note_off_c, 8, 56, 127
1, 250730, Note_on_c, 10, 57, 127
1, 250878, Note_off_c, 10, 57, 127
1, 250880, Note_on_c, 12, 59, 127
1, 251028, Note_off_c, 12, 59, 127
1, 251028, Note_off_c, 4, 64, 127
1, 251038, Note_on_c, 8, 68, 127
1, 251038, Note_on_c, 4, 52, 127
1, 251186, Note_off_c, 8, 68, 127
1, 251188, Note_on_c, 10, 69, 127
1, 251336, Note_off_c, 10, 69, 127
1, 251338, Note_on_c, 12, 71, 127
1, 251486, Note_off_c, 12, 71, 127
1, 251486, Note_off_c, 4, 52, 127
1, 251488, Note_on_c, 4, 76, 127
1, 251488, Note_on_c, 0, 60, 127
1, 251636, Note_off_c, 0, 60, 127
1, 251638, Note_on_c, 2, 62, 127
1, 251786, Note_off_c, 2, 62, 127
1, 251788, Note_on_c, 4, 64, 127
1, 251936, Note_off_c, 4, 64, 127
1, 251936, Note_off_c, 4, 76, 127
1, 251938, Note_on_c, 0, 72, 127
1, 251938, Note_on_c, 10, 57, 127
1, 252086, Note_off_c, 0, 72, 127
1, 252088, Note_on_c, 2, 74, 127
1, 252236, Note_off_c, 2, 74, 127
1, 252238, Note_on_c, 4, 76, 127
1, 252386, Note_off_c, 4, 76, 127
1, 252386, Note_off_c, 10, 57, 127
1, 252388, Note_on_c, 10, 81, 127
1, 252388, Note_on_c, 6, 54, 127
1, 252536, Note_off_c, 6, 54, 127
1, 252538, Note_on_c, 7, 55, 127
1, 252686, Note_off_c, 7, 55, 127
1, 252688, Note_on_c, 10, 57, 127
1, 252836, Note_off_c, 10, 57, 127
1, 252836, Note_off_c, 10, 81, 127
1, 252838, Note_on_c, 6, 66, 127
1, 252838, Note_on_c, 3, 51, 127
1, 252986, Note_off_c, 3, 51, 127
1, 252986, Note_off_c, 6, 66, 127
1, 252988, Note_on_c, 7, 67, 127
1, 252988, Note_on_c, 4, 52, 127
1, 253136, Note_off_c, 4, 52, 127
1, 253136, Note_off_c, 7, 67, 127
1, 253138, Note_on_c, 10, 69, 127
1, 253138, Note_on_c, 6, 54, 127
1, 253286, Note_off_c, 6, 54, 127
1, 253286, Note_off_c, 10, 69, 127
1, 253288, Note_on_c, 3, 63, 127
1, 253288, Note_on_c, 12, 47, 127
1, 253436, Note_off_c, 12, 47, 127
1, 253436, Note_off_c, 3, 63, 127
1, 253438, Note_on_c, 4, 64, 127
1, 253438, Note_on_c, 1, 49, 127
1, 253586, Note_off_c, 1, 49, 127
1, 253586, Note_off_c, 4, 64, 127
1, 253588, Note_on_c, 6, 66, 127
1, 253588, Note_on_c, 3, 51, 127
1, 253736, Note_off_c, 3, 51, 127
1, 253736, Note_off_c, 6, 66, 127
1, 253738, Note_on_c, 12, 59, 127
1, 253738, Note_on_c, 8, 44, 127
1, 253886, Note_off_c, 8, 44, 127
1, 253886, Note_off_c, 12, 59, 127
1, 253888, Note_on_c, 0, 60, 127
1, 253888, Note_on_c, 10, 45, 127
1, 254036, Note_off_c, 10, 45, 127
1, 254036, Note_off_c, 0, 60, 127
1, 254038, Note_on_c, 2, 62, 127
1, 254038, Note_on_c, 12, 47, 127
1, 254186, Note_off_c, 12, 47, 127
1, 254186, Note_off_c, 2, 62, 127
1, 254188, Note_on_c, 8, 56, 127
1, 254188, Note_on_c, 4, 40, 127
1, 254336, Note_off_c, 8, 56, 127
1, 254338, Note_on_c, 10, 57, 127
1, 254486, Note_off_c, 10, 57, 127
1, 254488, Note_on_c, 12, 59, 127
1, 254636, Note_off_c, 12, 59, 127
1, 254636, Note_off_c, 4, 40, 127
1, 254638, Note_on_c, 4, 52, 127
1, 254638, Note_on_c, 8, 44, 127
1, 254786, Note_off_c, 8, 44, 127
1, 254788, Note_on_c, 10, 45, 127
1, 254936, Note_off_c, 10, 45, 127
1, 254938, Note_on_c, 12, 47, 127
1, 255037, Note_off_c, 4, 52, 127
1, 255086, Note_off_c, 12, 47, 127
1, 255096, Note_on_c, 10, 57, 127
1, 255096, Note_on_c, 0, 36, 127
1, 255244, Note_off_c, 10, 57, 127
1, 255246, Note_on_c, 12, 59, 127
1, 255394, Note_off_c, 12, 59, 127
1, 255396, Note_on_c, 0, 60, 127
1, 255544, Note_off_c, 0, 60, 127
1, 255544, Note_off_c, 0, 36, 127
1, 255546, Note_on_c, 6, 54, 127
1, 255546, Note_on_c, 10, 45, 127
1, 255694, Note_off_c, 10, 45, 127
1, 255696, Note_on_c, 12, 47, 127
1, 255844, Note_off_c, 12, 47, 127
1, 255846, Note_on_c, 0, 48, 127
1, 255945, Note_off_c, 6, 54, 127
1, 255994, Note_off_c, 0, 48, 127
1, 255996, Note_on_c, 12, 59, 127
1, 255996, Note_on_c, 2, 38, 127
1, 256144, Note_off_c, 12, 59, 127
1, 256146, Note_on_c, 0, 60, 127
1, 256294, Note_off_c, 0, 60, 127
1, 256296, Note_on_c, 2, 62, 127
1, 256444, Note_off_c, 2, 62, 127
1, 256444, Note_off_c, 2, 38, 127
1, 256446, Note_on_c, 8, 56, 127
1, 256446, Note_on_c, 12, 47, 127
1, 256594, Note_off_c, 12, 47, 127
1, 256596, Note_on_c, 0, 48, 127
1, 256744, Note_off_c, 0, 48, 127
1, 256746, Note_on_c, 2, 50, 127
1, 256845, Note_off_c, 8, 56, 127
1, 256894, Note_off_c, 2, 50, 127
1, 256896, Note_on_c, 0, 60, 127
1, 256896, Note_on_c, 4, 40, 127
1, 257044, Note_off_c, 0, 60, 127
1, 257046, Note_on_c, 2, 62, 127
1, 257194, Note_off_c, 2, 62, 127
1, 257196, Note_on_c, 4, 64, 127
1, 257344, Note_off_c, 4, 64, 127
1, 257344, Note_off_c, 4, 40, 127
1, 257346, Note_on_c, 10, 57, 127
1, 257346, Note_on_c, 0, 48, 127
1, 257494, Note_off_c, 0, 48, 127
1, 257496, Note_on_c, 2, 50, 127
1, 257644, Note_off_c, 2, 50, 127
1, 257646, Note_on_c, 4, 52, 127
1, 257745, Note_off_c, 10, 57, 127
1, 257794, Note_off_c, 4, 52, 127
1, 257796, Note_on_c, 2, 62, 127
1, 257796, Note_on_c, 5, 41, 127
1, 257944, Note_off_c, 2, 62, 127
1, 257946, Note_on_c, 4, 64, 127
1, 258094, Note_off_c, 4, 64, 127
1, 258096, Note_on_c, 5, 65, 127
1, 258244, Note_off_c, 5, 65, 127
1, 258244, Note_off_c, 5, 41, 127
1, 258246, Note_on_c, 12, 59, 127
1, 258246, Note_on_c, 2, 50, 127
1, 258394, Note_off_c, 2, 50, 127
1, 258396, Note_on_c, 4, 52, 127
1, 258544, Note_off_c, 4, 52, 127
1, 258546, Note_on_c, 5, 53, 127
1, 258668, Note_off_c, 12, 59, 127
1, 258694, Note_off_c, 5, 53, 127
1, 258696, Note_on_c, 12, 71, 127
1, 258696, Note_on_c, 8, 44, 127
1, 258844, Note_off_c, 12, 71, 127
1, 258846, Note_on_c, 0, 72, 127
1, 258994, Note_off_c, 0, 72, 127
1, 258996, Note_on_c, 2, 74, 127
1, 259144, Note_off_c, 2, 74, 127
1, 259144, Note_off_c, 8, 44, 127
1, 259146, Note_on_c, 8, 68, 127
1, 259146, Note_on_c, 2, 62, 127
1, 259294, Note_off_c, 2, 62, 127
1, 259296, Note_on_c, 4, 64, 127
1, 259444, Note_off_c, 4, 64, 127
1, 259446, Note_on_c, 5, 65, 127
1, 259594, Note_off_c, 5, 65, 127
1, 259594, Note_off_c, 8, 68, 127
1, 259596, Note_on_c, 2, 74, 127
1, 259596, Note_on_c, 12, 59, 127
1, 259744, Note_off_c, 12, 59, 127
1, 259744, Note_off_c, 2, 74, 127
1, 259746, Note_on_c, 4, 76, 127
1, 259746, Note_on_c, 0, 60, 127
1, 259894, Note_off_c, 0, 60, 127
1, 259894, Note_off_c, 4, 76, 127
1, 259896, Note_on_c, 5, 77, 127
1, 259896, Note_on_c, 2, 62, 127
1, 260044, Note_off_c, 2, 62, 127
1, 260044, Note_off_c, 5, 77, 127
1, 260046, Note_on_c, 12, 71, 127
1, 260046, Note_on_c, 8, 56, 127
1, 260194, Note_off_c, 8, 56, 127
1, 260196, Note_on_c, 10, 57, 127
1, 260344, Note_off_c, 10, 57, 127
1, 260346, Note_on_c, 12, 59, 127
1, 260494, Note_off_c, 12, 59, 127
1, 260494, Note_off_c, 12, 71, 127
1, 260496, Note_on_c, 8, 80, 127
1, 260496, Note_on_c, 4, 52, 127
1, 260644, Note_off_c, 4, 52, 127
1, 260644, Note_off_c, 8, 80, 127
1, 260646, Note_on_c, 10, 81, 127
1, 260646, Note_on_c, 6, 54, 127
1, 260794, Note_off_c, 6, 54, 127
1, 260794, Note_off_c, 10, 81, 127
1, 260796, Note_on_c, 12, 83, 127
1, 260796, Note_on_c, 8, 56, 127
1, 260944, Note_off_c, 8, 56, 127
1, 260944, Note_off_c, 12, 83, 127
1, 260946, Note_on_c, 2, 74, 127
1, 260946, Note_on_c, 6, 54, 127
1, 261094, Note_off_c, 6, 54, 127
1, 261096, Note_on_c, 8, 56, 127
1, 261244, Note_off_c, 8, 56, 127
1, 261244, Note_off_c, 2, 74, 127
1, 261246, Note_on_c, 2, 74, 127
1, 261246, Note_on_c, 10, 57, 127
1, 261394, Note_off_c, 10, 57, 127
1, 261394, Note_off_c, 2, 74, 127
1, 261396, Note_on_c, 4, 76, 127
1, 261396, Note_on_c, 8, 56, 127
1, 261544, Note_off_c, 8, 56, 127
1, 261544, Note_off_c, 4, 76, 127
1, 261546, Note_on_c, 2, 74, 127
1, 261546, Note_on_c, 10, 57, 127
1, 261612, Note_on_c, 4, 76, 127
1, 261619, Note_off_c, 2, 74, 127
1, 261678, Note_on_c, 2, 74, 127
1, 261685, Note_off_c, 4, 76, 127
1, 261694, Note_off_c, 10, 57, 127
1, 261696, Note_on_c, 12, 59, 127
1, 261743, Note_on_c, 4, 76, 127
1, 261750, Note_off_c, 2, 74, 127
1, 261809, Note_on_c, 2, 74, 127
1, 261816, Note_off_c, 4, 76, 127
1, 261844, Note_off_c, 12, 59, 127
1, 261846, Note_on_c, 4, 64, 127
1, 261872, Note_on_c, 4, 76, 127
1, 261881, Note_off_c, 2, 74, 127
1, 261937, Note_on_c, 2, 74, 127
1, 261944, Note_off_c, 4, 76, 127
1, 261993, Note_off_c, 4, 64, 127
1, 261995, Note_on_c, 2, 62, 127
1, 262002, Note_on_c, 4, 76, 127
1, 262009, Note_off_c, 2, 74, 127
1, 262068, Note_on_c, 2, 74, 127
1, 262075, Note_off_c, 4, 76, 127
1, 262134, Note_on_c, 4, 76, 127
1, 262141, Note_off_c, 2, 74, 127
1, 262143, Note_off_c, 2, 62, 127
1, 262145, Note_on_c, 4, 64, 127
1, 262199, Note_on_c, 2, 74, 127
1, 262206, Note_off_c, 4, 76, 127
1, 262262, Note_on_c, 4, 76, 127
1, 262271, Note_off_c, 2, 74, 127
1, 262292, Note_off_c, 4, 64, 127
1, 262294, Note_on_c, 10, 57, 127
1, 262327, Note_on_c, 2, 74, 127
1, 262334, Note_off_c, 4, 76, 127
1, 262393, Note_on_c, 4, 76, 127
1, 262400, Note_off_c, 2, 74, 127
1, 262442, Note_off_c, 10, 57, 127
1, 262444, Note_on_c, 12, 59, 127
1, 262458, Note_on_c, 2, 74, 127
1, 262465, Note_off_c, 4, 76, 127
1, 262524, Note_on_c, 4, 76, 127
1, 262531, Note_off_c, 2, 74, 127
1, 262590, Note_on_c, 2, 74, 127
1, 262592, Note_off_c, 12, 59, 127
1, 262594, Note_on_c, 0, 60, 127
1, 262596, Note_off_c, 4, 76, 127
1, 262652, Note_on_c, 4, 76, 127
1, 262661, Note_off_c, 2, 74, 127
1, 262717, Note_on_c, 2, 74, 127
1, 262724, Note_off_c, 4, 76, 127
1, 262740, Note_off_c, 0, 60, 127
1, 262742, Note_on_c, 6, 66, 127
1, 262782, Note_on_c, 4, 76, 127
1, 262789, Note_off_c, 2, 74, 127
1, 262848, Note_on_c, 2, 74, 127
1, 262855, Note_off_c, 4, 76, 127
1, 262890, Note_off_c, 6, 66, 127
1, 262892, Note_on_c, 4, 64, 127
1, 262913, Note_on_c, 4, 76, 127
1, 262920, Note_off_c, 2, 74, 127
1, 262979, Note_on_c, 2, 74, 127
1, 262986, Note_off_c, 4, 76, 127
1, 263040, Note_off_c, 4, 64, 127
1, 263042, Note_on_c, 4, 76, 127
1, 263042, Note_on_c, 6, 66, 127
1, 263051, Note_off_c, 2, 74, 127
1, 263107, Note_on_c, 2, 74, 127
1, 263114, Note_off_c, 4, 76, 127
1, 263173, Note_on_c, 4, 76, 127
1, 263180, Note_off_c, 2, 74, 127
1, 263189, Note_off_c, 6, 66, 127
1, 263191, Note_on_c, 12, 59, 127
1, 263238, Note_on_c, 2, 74, 127
1, 263245, Note_off_c, 4, 76, 127
1, 263304, Note_on_c, 4, 76, 127
1, 263311, Note_off_c, 2, 74, 127
1, 263339, Note_off_c, 12, 59, 127
1, 263341, Note_on_c, 0, 60, 127
1, 263367, Note_on_c, 2, 74, 127
1, 263376, Note_off_c, 4, 76, 127
1, 263432, Note_on_c, 4, 76, 127
1, 263439, Note_off_c, 2, 74, 127
1, 263488, Note_off_c, 0, 60, 127
1, 263490, Note_on_c, 2, 62, 127
1, 263497, Note_on_c, 2, 74, 127
1, 263504, Note_off_c, 4, 76, 127
1, 263563, Note_on_c, 4, 76, 127
1, 263570, Note_off_c, 2, 74, 127
1, 263629, Note_on_c, 2, 74, 127
1, 263636, Note_off_c, 4, 76, 127
1, 263638, Note_off_c, 2, 62, 127
1, 263640, Note_on_c, 8, 68, 127
1, 263694, Note_on_c, 4, 76, 127
1, 263701, Note_off_c, 2, 74, 127
1, 263757, Note_on_c, 2, 74, 127
1, 263766, Note_off_c, 4, 76, 127
1, 263787, Note_off_c, 8, 68, 127
1, 263789, Note_on_c, 6, 66, 127
1, 263822, Note_on_c, 4, 76, 127
1, 263829, Note_off_c, 2, 74, 127
1, 263888, Note_on_c, 2, 74, 127
1, 263895, Note_off_c, 4, 76, 127
1, 263937, Note_off_c, 6, 66, 127
1, 263939, Note_on_c, 8, 68, 127
1, 263953, Note_on_c, 4, 76, 127
1, 263960, Note_off_c, 2, 74, 127
1, 264019, Note_on_c, 2, 74, 127
1, 264026, Note_off_c, 4, 76, 127
1, 264085, Note_on_c, 4, 76, 127
1, 264087, Note_off_c, 8, 68, 127
1, 264089, Note_on_c, 0, 60, 127
1, 264091, Note_off_c, 2, 74, 127
1, 264147, Note_on_c, 2, 74, 127
1, 264156, Note_off_c, 4, 76, 127
1, 264212, Note_on_c, 4, 76, 127
1, 264219, Note_off_c, 2, 74, 127
1, 264235, Note_off_c, 0, 60, 127
1, 264237, Note_on_c, 2, 62, 127
1, 264277, Note_on_c, 2, 74, 127
1, 264284, Note_off_c, 4, 76, 127
1, 264343, Note_on_c, 4, 76, 127
1, 264350, Note_off_c, 2, 74, 127
1, 264385, Note_off_c, 2, 62, 127
1, 264387, Note_on_c, 4, 64, 127
1, 264408, Note_on_c, 2, 74, 127
1, 264415, Note_off_c, 4, 76, 127
1, 264474, Note_on_c, 4, 76, 127
1, 264481, Note_off_c, 2, 74, 127
1, 264535, Note_off_c, 4, 64, 127
1, 264537, Note_on_c, 2, 74, 127
1, 264537, Note_on_c, 10, 69, 127
1, 264546, Note_off_c, 4, 76, 127
1, 264602, Note_on_c, 4, 76, 127
1, 264609, Note_off_c, 2, 74, 127
1, 264668, Note_on_c, 2, 74, 127
1, 264675, Note_off_c, 4, 76, 127
1, 264684, Note_off_c, 10, 69, 127
1, 264686, Note_on_c, 8, 68, 127
1, 264733, Note_on_c, 4, 76, 127
1, 264740, Note_off_c, 2, 74, 127
1, 264799, Note_on_c, 2, 74, 127
1, 264806, Note_off_c, 4, 76, 127
1, 264834, Note_off_c, 8, 68, 127
1, 264836, Note_on_c, 10, 69, 127
1, 264862, Note_on_c, 4, 76, 127
1, 264871, Note_off_c, 2, 74, 127
1, 264927, Note_on_c, 2, 74, 127
1, 264934, Note_off_c, 4, 76, 127
1, 264983, Note_off_c, 10, 69, 127
1, 264985, Note_on_c, 2, 62, 127
1, 264992, Note_on_c, 4, 76, 127
1, 264999, Note_off_c, 2, 74, 127
1, 265058, Note_on_c, 2, 74, 127
1, 265065, Note_off_c, 4, 76, 127
1, 265124, Note_on_c, 4, 76, 127
1, 265131, Note_off_c, 2, 74, 127
1, 265133, Note_off_c, 2, 62, 127
1, 265135, Note_on_c, 4, 64, 127
1, 265189, Note_on_c, 2, 74, 127
1, 265196, Note_off_c, 4, 76, 127
1, 265252, Note_on_c, 4, 76, 127
1, 265261, Note_off_c, 2, 74, 127
1, 265282, Note_off_c, 4, 64, 127
1, 265284, Note_on_c, 5, 65, 127
1, 265317, Note_on_c, 2, 74, 127
1, 265324, Note_off_c, 4, 76, 127
1, 265383, Note_on_c, 4, 76, 127
1, 265390, Note_off_c, 2, 74, 127
1, 265432, Note_off_c, 5, 65, 127
1, 265434, Note_on_c, 12, 71, 127
1, 265448, Note_on_c, 2, 74, 127
1, 265455, Note_off_c, 4, 76, 127
1, 265514, Note_on_c, 4, 76, 127
1, 265521, Note_off_c, 2, 74, 127
1, 265580, Note_on_c, 2, 74, 127
1, 265582, Note_off_c, 12, 71, 127
1, 265584, Note_on_c, 10, 69, 127
1, 265586, Note_off_c, 4, 76, 127
1, 265642, Note_on_c, 4, 76, 127
1, 265651, Note_off_c, 2, 74, 127
1, 265707, Note_on_c, 2, 74, 127
1, 265714, Note_off_c, 4, 76, 127
1, 265730, Note_off_c, 10, 69, 127
1, 265732, Note_on_c, 12, 71, 127
1, 265772, Note_on_c, 4, 76, 127
1, 265779, Note_off_c, 2, 74, 127
1, 265838, Note_on_c, 2, 74, 127
1, 265845, Note_off_c, 4, 76, 127
1, 265880, Note_off_c, 12, 71, 127
1, 265882, Note_on_c, 0, 60, 127
1, 265903, Note_on_c, 4, 76, 127
1, 265910, Note_off_c, 2, 74, 127
1, 265969, Note_on_c, 2, 74, 127
1, 265976, Note_off_c, 4, 76, 127
1, 266030, Note_off_c, 0, 60, 127
1, 266032, Note_on_c, 4, 76, 127
1, 266032, Note_on_c, 2, 62, 127
1, 266041, Note_off_c, 2, 74, 127
1, 266097, Note_on_c, 2, 74, 127
1, 266104, Note_off_c, 4, 76, 127
1, 266163, Note_on_c, 4, 76, 127
1, 266170, Note_off_c, 2, 74, 127
1, 266179, Note_off_c, 2, 62, 127
1, 266181, Note_on_c, 4, 64, 127
1, 266228, Note_on_c, 2, 74, 127
1, 266235, Note_off_c, 4, 76, 127
1, 266291, Note_on_c, 4, 76, 127
1, 266300, Note_off_c, 2, 74, 127
1, 266328, Note_off_c, 4, 64, 127
1, 266330, Note_on_c, 10, 69, 127
1, 266356, Note_on_c, 2, 74, 127
1, 266363, Note_off_c, 4, 76, 127
1, 266422, Note_on_c, 4, 76, 127
1, 266429, Note_off_c, 2, 74, 127
1, 266478, Note_off_c, 10, 69, 127
1, 266480, Note_on_c, 8, 68, 127
1, 266487, Note_on_c, 2, 74, 127
1, 266494, Note_off_c, 4, 76, 127
1, 266553, Note_on_c, 4, 76, 127
1, 266560, Note_off_c, 2, 74, 127
1, 266619, Note_on_c, 2, 74, 127
1, 266626, Note_off_c, 4, 76, 127
1, 266628, Note_off_c, 8, 68, 127
1, 266630, Note_on_c, 10, 69, 127
1, 266682, Note_on_c, 4, 76, 127
1, 266691, Note_off_c, 2, 74, 127
1, 266745, Note_on_c, 2, 74, 127
1, 266754, Note_off_c, 4, 76, 127
1, 266778, Note_off_c, 10, 69, 127
1, 266780, Note_on_c, 12, 59, 127
1, 266928, Note_off_c, 12, 59, 127
1, 266928, Note_off_c, 2, 74, 127
1, 266930, Note_on_c, 4, 76, 127
1, 266930, Note_on_c, 0, 60, 127
1, 267078, Note_off_c, 0, 60, 127
1, 267078, Note_off_c, 4, 76, 127
1, 267080, Note_on_c, 5, 77, 127
1, 267080, Note_on_c, 2, 62, 127
1, 267228, Note_off_c, 2, 62, 127
1, 267228, Note_off_c, 5, 77, 127
1, 267230, Note_on_c, 12, 83, 127
1, 267230, Note_on_c, 8, 68, 127
1, 267378, Note_off_c, 8, 68, 127
1, 267378, Note_off_c, 12, 83, 127
1, 267380, Note_on_c, 10, 81, 127
1, 267380, Note_on_c, 6, 66, 127
1, 267528, Note_off_c, 6, 66, 127
1, 267528, Note_off_c, 10, 81, 127
1, 267530, Note_on_c, 12, 83, 127
1, 267530, Note_on_c, 8, 68, 127
1, 267678, Note_off_c, 8, 68, 127
1, 267678, Note_off_c, 12, 83, 127
1, 267680, Note_on_c, 0, 72, 127
1, 267680, Note_on_c, 10, 57, 127
1, 267828, Note_off_c, 10, 57, 127
1, 267828, Note_off_c, 0, 72, 127
1, 267830, Note_on_c, 2, 74, 127
1, 267830, Note_on_c, 12, 59, 127
1, 267978, Note_off_c, 12, 59, 127
1, 267978, Note_off_c, 2, 74, 127
1, 267980, Note_on_c, 4, 76, 127
1, 267980, Note_on_c, 0, 60, 127
1, 268128, Note_off_c, 0, 60, 127
1, 268128, Note_off_c, 4, 76, 127
1, 268130, Note_on_c, 10, 81, 127
1, 268130, Note_on_c, 5, 65, 127
1, 268278, Note_off_c, 5, 65, 127
1, 268278, Note_off_c, 10, 81, 127
1, 268280, Note_on_c, 7, 79, 127
1, 268280, Note_on_c, 4, 64, 127
1, 268428, Note_off_c, 4, 64, 127
1, 268428, Note_off_c, 7, 79, 127
1, 268430, Note_on_c, 10, 81, 127
1, 268430, Note_on_c, 5, 65, 127
1, 268578, Note_off_c, 5, 65, 127
1, 268578, Note_off_c, 10, 81, 127
1, 268580, Note_on_c, 12, 71, 127
1, 268580, Note_on_c, 7, 55, 127
1, 268728, Note_off_c, 7, 55, 127
1, 268728, Note_off_c, 12, 71, 127
1, 268730, Note_on_c, 0, 72, 127
1, 268730, Note_on_c, 10, 57, 127
1, 268878, Note_off_c, 10, 57, 127
1, 268878, Note_off_c, 0, 72, 127
1, 268880, Note_on_c, 2, 74, 127
1, 268880, Note_on_c, 12, 59, 127
1, 269028, Note_off_c, 12, 59, 127
1, 269028, Note_off_c, 2, 74, 127
1, 269030, Note_on_c, 7, 79, 127
1, 269030, Note_on_c, 4, 64, 127
1, 269178, Note_off_c, 4, 64, 127
1, 269178, Note_off_c, 7, 79, 127
1, 269180, Note_on_c, 5, 77, 127
1, 269180, Note_on_c, 2, 62, 127
1, 269328, Note_off_c, 2, 62, 127
1, 269328, Note_off_c, 5, 77, 127
1, 269330, Note_on_c, 7, 79, 127
1, 269330, Note_on_c, 4, 64, 127
1, 269478, Note_off_c, 4, 64, 127
1, 269478, Note_off_c, 7, 79, 127
1, 269480, Note_on_c, 10, 69, 127
1, 269480, Note_on_c, 5, 53, 127
1, 269628, Note_off_c, 5, 53, 127
1, 269628, Note_off_c, 10, 69, 127
1, 269630, Note_on_c, 12, 71, 127
1, 269630, Note_on_c, 7, 55, 127
1, 269778, Note_off_c, 7, 55, 127
1, 269778, Note_off_c, 12, 71, 127
1, 269780, Note_on_c, 0, 72, 127
1, 269780, Note_on_c, 10, 57, 127
1, 269928, Note_off_c, 10, 57, 127
1, 269928, Note_off_c, 0, 72, 127
1, 269930, Note_on_c, 5, 77, 127
1, 269930, Note_on_c, 2, 62, 127
1, 270078, Note_off_c, 2, 62, 127
1, 270078, Note_off_c, 5, 77, 127
1, 270080, Note_on_c, 4, 76, 127
1, 270080, Note_on_c, 0, 60, 127
1, 270228, Note_off_c, 0, 60, 127
1, 270228, Note_off_c, 4, 76, 127
1, 270230, Note_on_c, 5, 77, 127
1, 270230, Note_on_c, 2, 62, 127
1, 270378, Note_off_c, 2, 62, 127
1, 270378, Note_off_c, 5, 77, 127
1, 270380, Note_on_c, 7, 67, 127
1, 270380, Note_on_c, 4, 52, 127
1, 270528, Note_off_c, 4, 52, 127
1, 270528, Note_off_c, 7, 67, 127
1, 270530, Note_on_c, 10, 69, 127
1, 270530, Note_on_c, 5, 53, 127
1, 270678, Note_off_c, 5, 53, 127
1, 270678, Note_off_c, 10, 69, 127
1, 270680, Note_on_c, 11, 70, 127
1, 270680, Note_on_c, 7, 55, 127
1, 270828, Note_off_c, 7, 55, 127
1, 270828, Note_off_c, 11, 70, 127
1, 270830, Note_on_c, 4, 76, 127
1, 270830, Note_on_c, 1, 61, 127
1, 270978, Note_off_c, 1, 61, 127
1, 270978, Note_off_c, 4, 76, 127
1, 270980, Note_on_c, 2, 74, 127
1, 270980, Note_on_c, 12, 59, 127
1, 271128, Note_off_c, 12, 59, 127
1, 271128, Note_off_c, 2, 74, 127
1, 271130, Note_on_c, 4, 76, 127
1, 271130, Note_on_c, 1, 61, 127
1, 271278, Note_off_c, 1, 61, 127
1, 271278, Note_off_c, 4, 76, 127
1, 271280, Note_on_c, 5, 65, 127
1, 271280, Note_on_c, 2, 50, 127
1, 271428, Note_off_c, 2, 50, 127
1, 271428, Note_off_c, 5, 65, 127
1, 271430, Note_on_c, 7, 67, 127
1, 271430, Note_on_c, 4, 52, 127
1, 271578, Note_off_c, 4, 52, 127
1, 271578, Note_off_c, 7, 67, 127
1, 271580, Note_on_c, 10, 69, 127
1, 271580, Note_on_c, 5, 53, 127
1, 271728, Note_off_c, 5, 53, 127
1, 271728, Note_off_c, 10, 69, 127
1, 271730, Note_on_c, 2, 74, 127
1, 271730, Note_on_c, 11, 58, 127
1, 271878, Note_off_c, 11, 58, 127
1, 271878, Note_off_c, 2, 74, 127
1, 271880, Note_on_c, 1, 73, 127
1, 271880, Note_on_c, 10, 57, 127
1, 272028, Note_off_c, 10, 57, 127
1, 272028, Note_off_c, 1, 73, 127
1, 272030, Note_on_c, 2, 74, 127
1, 272030, Note_on_c, 11, 58, 127
1, 272178, Note_off_c, 11, 58, 127
1, 272178, Note_off_c, 2, 74, 127
1, 272180, Note_on_c, 8, 68, 127
1, 272180, Note_on_c, 4, 52, 127
1, 272328, Note_off_c, 4, 52, 127
1, 272328, Note_off_c, 8, 68, 127
1, 272330, Note_on_c, 10, 69, 127
1, 272330, Note_on_c, 6, 54, 127
1, 272478, Note_off_c, 6, 54, 127
1, 272478, Note_off_c, 10, 69, 127
1, 272480, Note_on_c, 12, 71, 127
1, 272480, Note_on_c, 8, 56, 127
1, 272628, Note_off_c, 8, 56, 127
1, 272628, Note_off_c, 12, 71, 127
1, 272630, Note_on_c, 2, 74, 127
1, 272630, Note_on_c, 12, 59, 127
1, 272778, Note_off_c, 12, 59, 127
1, 272778, Note_off_c, 2, 74, 127
1, 272780, Note_on_c, 0, 72, 127
1, 272780, Note_on_c, 10, 57, 127
1, 272928, Note_off_c, 10, 57, 127
1, 272928, Note_off_c, 0, 72, 127
1, 272930, Note_on_c, 2, 74, 127
1, 272930, Note_on_c, 12, 59, 127
1, 273078, Note_off_c, 12, 59, 127
1, 273078, Note_off_c, 2, 74, 127
1, 273080, Note_on_c, 10, 69, 127
1, 273080, Note_on_c, 5, 53, 127
1, 273228, Note_off_c, 5, 53, 127
1, 273228, Note_off_c, 10, 69, 127
1, 273230, Note_on_c, 12, 71, 127
1, 273230, Note_on_c, 7, 55, 127
1, 273378, Note_off_c, 7, 55, 127
1, 273378, Note_off_c, 12, 71, 127
1, 273380, Note_on_c, 0, 72, 127
1, 273380, Note_on_c, 10, 57, 127
1, 273528, Note_off_c, 10, 57, 127
1, 273528, Note_off_c, 0, 72, 127
1, 273530, Note_on_c, 2, 74, 127
1, 273530, Note_on_c, 12, 59, 127
1, 273678, Note_off_c, 12, 59, 127
1, 273678, Note_off_c, 2, 74, 127
1, 273680, Note_on_c, 0, 72, 127
1, 273680, Note_on_c, 10, 57, 127
1, 273828, Note_off_c, 10, 57, 127
1, 273828, Note_off_c, 0, 72, 127
1, 273830, Note_on_c, 2, 74, 127
1, 273830, Note_on_c, 12, 59, 127
1, 273978, Note_off_c, 12, 59, 127
1, 273978, Note_off_c, 2, 74, 127
1, 273998, Note_on_c, 8, 56, 127
1, 273998, Note_on_c, 2, 74, 127
1, 274098, Note_on_c, 10, 57, 127
1, 274188, Note_off_c, 10, 57, 127
1, 274192, Note_on_c, 12, 59, 127
1, 274282, Note_off_c, 12, 59, 127
1, 274286, Note_on_c, 0, 60, 127
1, 274370, Note_off_c, 2, 74, 127
1, 274376, Note_off_c, 0, 60, 127
1, 274380, Note_on_c, 2, 62, 127
1, 274470, Note_off_c, 2, 62, 127
1, 274474, Note_on_c, 4, 64, 127
1, 274564, Note_off_c, 4, 64, 127
1, 274568, Note_on_c, 5, 65, 127
1, 274658, Note_off_c, 5, 65, 127
1, 274662, Note_on_c, 2, 62, 127
1, 274752, Note_off_c, 2, 62, 127
1, 274756, Note_on_c, 12, 71, 127
1, 274850, Note_on_c, 8, 68, 127
1, 274940, Note_off_c, 8, 68, 127
1, 274944, Note_on_c, 5, 65, 127
1, 275034, Note_off_c, 5, 65, 127
1, 275038, Note_on_c, 4, 64, 127
1, 275128, Note_off_c, 4, 64, 127
1, 275132, Note_on_c, 2, 62, 127
1, 275222, Note_off_c, 2, 62, 127
1, 275226, Note_on_c, 0, 60, 127
1, 275316, Note_off_c, 0, 60, 127
1, 275320, Note_on_c, 12, 59, 127
1, 275410, Note_off_c, 12, 59, 127
1, 275414, Note_on_c, 10, 57, 127
1, 275500, Note_off_c, 8, 56, 127
1, 275504, Note_off_c, 10, 57, 127
1, 275508, Note_on_c, 8, 56, 127
1, 275602, Note_on_c, 10, 57, 127
1, 275692, Note_off_c, 10, 57, 127
1, 275696, Note_on_c, 12, 59, 127
1, 275786, Note_off_c, 12, 59, 127
1, 275790, Note_on_c, 0, 60, 127
1, 275880, Note_off_c, 0, 60, 127
1, 275884, Note_on_c, 2, 62, 127
1, 275974, Note_off_c, 2, 62, 127
1, 275978, Note_on_c, 4, 64, 127
1, 276068, Note_off_c, 4, 64, 127
1, 276072, Note_on_c, 5, 65, 127
1, 276162, Note_off_c, 5, 65, 127
1, 276166, Note_on_c, 2, 62, 127
1, 276256, Note_off_c, 2, 62, 127
1, 276258, Note_off_c, 12, 71, 127
1, 276260, Note_on_c, 12, 71, 127
1, 276354, Note_on_c, 5, 65, 127
1, 276444, Note_off_c, 5, 65, 127
1, 276448, Note_on_c, 4, 64, 127
1, 276538, Note_off_c, 4, 64, 127
1, 276542, Note_on_c, 2, 62, 127
1, 276633, Note_off_c, 2, 62, 127
1, 276636, Note_on_c, 0, 60, 127
1, 276727, Note_off_c, 0, 60, 127
1, 276730, Note_on_c, 12, 59, 127
1, 276809, Note_off_c, 12, 71, 127
1, 276818, Note_off_c, 8, 56, 127
1, 276823, Note_off_c, 12, 59, 127
1, 276825, Note_on_c, 10, 57, 127
1, 276918, Note_off_c, 10, 57, 127
1, 276920, Note_on_c, 8, 56, 127
1, 277011, Note_off_c, 8, 56, 127
1, 277014, Note_on_c, 10, 57, 127
1, 277108, Note_on_c, 12, 59, 127
1, 277199, Note_off_c, 12, 59, 127
1, 277202, Note_on_c, 0, 60, 127
1, 277293, Note_off_c, 0, 60, 127
1, 277296, Note_on_c, 2, 62, 127
1, 277387, Note_off_c, 2, 62, 127
1, 277390, Note_on_c, 4, 64, 127
1, 277481, Note_off_c, 4, 64, 127
1, 277484, Note_on_c, 6, 66, 127
1, 277575, Note_off_c, 6, 66, 127
1, 277578, Note_on_c, 8, 68, 127
1, 277669, Note_off_c, 8, 68, 127
1, 277672, Note_on_c, 4, 64, 127
1, 277763, Note_off_c, 4, 64, 127
1, 277766, Note_on_c, 0, 72, 127
1, 277860, Note_on_c, 10, 69, 127
1, 277951, Note_off_c, 10, 69, 127
1, 277954, Note_on_c, 7, 67, 127
1, 278045, Note_off_c, 7, 67, 127
1, 278048, Note_on_c, 5, 65, 127
1, 278139, Note_off_c, 5, 65, 127
1, 278142, Note_on_c, 4, 64, 127
1, 278233, Note_off_c, 4, 64, 127
1, 278236, Note_on_c, 2, 62, 127
1, 278327, Note_off_c, 2, 62, 127
1, 278330, Note_on_c, 0, 60, 127
1, 278421, Note_off_c, 0, 60, 127
1, 278424, Note_on_c, 12, 59, 127
1, 278515, Note_off_c, 12, 59, 127
1, 278516, Note_off_c, 10, 57, 127
1, 278518, Note_on_c, 10, 57, 127
1, 278612, Note_on_c, 12, 59, 127
1, 278703, Note_off_c, 12, 59, 127
1, 278706, Note_on_c, 0, 60, 127
1, 278797, Note_off_c, 0, 60, 127
1, 278800, Note_on_c, 2, 62, 127
1, 278891, Note_off_c, 2, 62, 127
1, 278894, Note_on_c, 4, 64, 127
1, 278985, Note_off_c, 4, 64, 127
1, 278988, Note_on_c, 6, 66, 127
1, 279079, Note_off_c, 6, 66, 127
1, 279082, Note_on_c, 8, 68, 127
1, 279173, Note_off_c, 8, 68, 127
1, 279176, Note_on_c, 4, 64, 127
1, 279267, Note_off_c, 4, 64, 127
1, 279268, Note_off_c, 0, 72, 127
1, 279270, Note_on_c, 0, 72, 127
1, 279364, Note_on_c, 10, 69, 127
1, 279455, Note_off_c, 10, 69, 127
1, 279458, Note_on_c, 7, 67, 127
1, 279549, Note_off_c, 7, 67, 127
1, 279552, Note_on_c, 5, 65, 127
1, 279643, Note_off_c, 5, 65, 127
1, 279646, Note_on_c, 4, 64, 127
1, 279738, Note_off_c, 4, 64, 127
1, 279740, Note_on_c, 2, 62, 127
1, 279819, Note_off_c, 0, 72, 127
1, 279833, Note_off_c, 2, 62, 127
1, 279835, Note_on_c, 0, 60, 127
1, 279918, Note_off_c, 10, 57, 127
1, 279927, Note_off_c, 0, 60, 127
1, 279929, Note_on_c, 12, 59, 127
1, 280021, Note_off_c, 12, 59, 127
1, 280023, Note_on_c, 11, 58, 127
1, 280117, Note_on_c, 4, 64, 127
1, 280209, Note_off_c, 4, 64, 127
1, 280211, Note_on_c, 1, 61, 127
1, 280303, Note_off_c, 1, 61, 127
1, 280305, Note_on_c, 2, 62, 127
1, 280397, Note_off_c, 2, 62, 127
1, 280399, Note_on_c, 4, 64, 127
1, 280491, Note_off_c, 4, 64, 127
1, 280493, Note_on_c, 5, 65, 127
1, 280585, Note_off_c, 5, 65, 127
1, 280587, Note_on_c, 7, 67, 127
1, 280679, Note_off_c, 7, 67, 127
1, 280681, Note_on_c, 4, 64, 127
1, 280773, Note_off_c, 4, 64, 127
1, 280775, Note_on_c, 1, 73, 127
1, 280869, Note_on_c, 11, 70, 127
1, 280961, Note_off_c, 11, 70, 127
1, 280963, Note_on_c, 7, 67, 127
1, 281055, Note_off_c, 7, 67, 127
1, 281057, Note_on_c, 5, 65, 127
1, 281149, Note_off_c, 5, 65, 127
1, 281151, Note_on_c, 4, 64, 127
1, 281243, Note_off_c, 4, 64, 127
1, 281245, Note_on_c, 2, 62, 127
1, 281337, Note_off_c, 2, 62, 127
1, 281339, Note_on_c, 1, 61, 127
1, 281431, Note_off_c, 1, 61, 127
1, 281433, Note_on_c, 4, 64, 127
1, 281525, Note_off_c, 4, 64, 127
1, 281525, Note_off_c, 11, 58, 127
1, 281527, Note_on_c, 11, 58, 127
1, 281621, Note_on_c, 4, 64, 127
1, 281713, Note_off_c, 4, 64, 127
1, 281715, Note_on_c, 1, 61, 127
1, 281807, Note_off_c, 1, 61, 127
1, 281809, Note_on_c, 2, 62, 127
1, 281901, Note_off_c, 2, 62, 127
1, 281903, Note_on_c, 4, 64, 127
1, 281995, Note_off_c, 4, 64, 127
1, 281997, Note_on_c, 5, 65, 127
1, 282089, Note_off_c, 5, 65, 127
1, 282091, Note_on_c, 7, 67, 127
1, 282183, Note_off_c, 7, 67, 127
1, 282185, Note_on_c, 4, 64, 127
1, 282277, Note_off_c, 4, 64, 127
1, 282277, Note_off_c, 1, 73, 127
1, 282279, Note_on_c, 1, 73, 127
1, 282373, Note_on_c, 11, 70, 127
1, 282465, Note_off_c, 11, 70, 127
1, 282467, Note_on_c, 7, 67, 127
1, 282559, Note_off_c, 7, 67, 127
1, 282561, Note_on_c, 5, 65, 127
1, 282653, Note_off_c, 5, 65, 127
1, 282655, Note_on_c, 4, 64, 127
1, 282747, Note_off_c, 4, 64, 127
1, 282749, Note_on_c, 2, 62, 127
1, 282828, Note_off_c, 1, 73, 127
1, 282842, Note_off_c, 2, 62, 127
1, 282844, Note_on_c, 1, 61, 127
1, 282927, Note_off_c, 11, 58, 127
1, 282936, Note_off_c, 1, 61, 127
1, 282938, Note_on_c, 4, 64, 127
1, 283030, Note_off_c, 4, 64, 127
1, 283032, Note_on_c, 10, 57, 127
1, 283126, Note_on_c, 1, 61, 127
1, 283218, Note_off_c, 1, 61, 127
1, 283220, Note_on_c, 2, 62, 127
1, 283312, Note_off_c, 2, 62, 127
1, 283314, Note_on_c, 4, 64, 127
1, 283406, Note_off_c, 4, 64, 127
1, 283408, Note_on_c, 5, 65, 127
1, 283502, Note_on_c, 7, 67, 127
1, 283594, Note_off_c, 7, 67, 127
1, 283596, Note_on_c, 10, 69, 127
1, 283688, Note_off_c, 10, 69, 127
1, 283690, Note_off_c, 5, 65, 127
1, 283690, Note_on_c, 5, 65, 127
1, 283782, Note_off_c, 5, 65, 127
1, 283784, Note_on_c, 2, 74, 127
1, 283878, Note_on_c, 10, 69, 127
1, 283970, Note_off_c, 10, 69, 127
1, 283972, Note_on_c, 7, 67, 127
1, 284064, Note_off_c, 7, 67, 127
1, 284066, Note_on_c, 5, 65, 127
1, 284158, Note_off_c, 5, 65, 127
1, 284160, Note_on_c, 4, 64, 127
1, 284252, Note_off_c, 4, 64, 127
1, 284254, Note_on_c, 2, 62, 127
1, 284346, Note_off_c, 2, 62, 127
1, 284348, Note_on_c, 1, 61, 127
1, 284440, Note_off_c, 1, 61, 127
1, 284442, Note_on_c, 12, 59, 127
1, 284534, Note_off_c, 12, 59, 127
1, 284534, Note_off_c, 10, 57, 127
1, 284536, Note_on_c, 10, 57, 127
1, 284630, Note_on_c, 1, 61, 127
1, 284722, Note_off_c, 1, 61, 127
1, 284724, Note_on_c, 2, 62, 127
1, 284816, Note_off_c, 2, 62, 127
1, 284818, Note_on_c, 4, 64, 127
1, 284910, Note_off_c, 4, 64, 127
1, 284912, Note_on_c, 5, 65, 127
1, 285006, Note_on_c, 7, 67, 127
1, 285098, Note_off_c, 7, 67, 127
1, 285100, Note_on_c, 10, 69, 127
1, 285192, Note_off_c, 10, 69, 127
1, 285194, Note_off_c, 5, 65, 127
1, 285194, Note_on_c, 5, 65, 127
1, 285286, Note_off_c, 5, 65, 127
1, 285286, Note_off_c, 2, 74, 127
1, 285288, Note_on_c, 2, 74, 127
1, 285382, Note_on_c, 10, 69, 127
1, 285474, Note_off_c, 10, 69, 127
1, 285476, Note_on_c, 7, 67, 127
1, 285568, Note_off_c, 7, 67, 127
1, 285570, Note_on_c, 5, 65, 127
1, 285662, Note_off_c, 5, 65, 127
1, 285664, Note_on_c, 4, 64, 127
1, 285756, Note_off_c, 4, 64, 127
1, 285758, Note_on_c, 2, 62, 127
1, 285837, Note_off_c, 2, 74, 127
1, 285851, Note_off_c, 2, 62, 127
1, 285853, Note_on_c, 1, 61, 127
1, 285936, Note_off_c, 10, 57, 127
1, 285947, Note_off_c, 1, 61, 127
1, 285947, Note_on_c, 2, 62, 127
1, 286041, Note_off_c, 2, 62, 127
1, 286041, Note_on_c, 8, 56, 127
1, 286135, Note_on_c, 10, 57, 127
1, 286229, Note_off_c, 10, 57, 127
1, 286229, Note_on_c, 12, 59, 127
1, 286323, Note_off_c, 12, 59, 127
1, 286323, Note_on_c, 0, 60, 127
1, 286417, Note_off_c, 0, 60, 127
1, 286417, Note_on_c, 2, 62, 127
1, 286511, Note_on_c, 4, 64, 127
1, 286605, Note_off_c, 4, 64, 127
1, 286605, Note_on_c, 5, 65, 127
1, 286699, Note_off_c, 5, 65, 127
1, 286699, Note_off_c, 2, 62, 127
1, 286699, Note_on_c, 2, 62, 127
1, 286793, Note_off_c, 2, 62, 127
1, 286793, Note_on_c, 12, 71, 127
1, 286887, Note_on_c, 5, 65, 127
1, 286981, Note_off_c, 5, 65, 127
1, 286981, Note_on_c, 2, 62, 127
1, 287075, Note_off_c, 2, 62, 127
1, 287075, Note_on_c, 0, 60, 127
1, 287169, Note_off_c, 0, 60, 127
1, 287169, Note_on_c, 12, 59, 127
1, 287263, Note_off_c, 12, 59, 127
1, 287263, Note_on_c, 10, 57, 127
1, 287345, Note_off_c, 8, 56, 127
1, 287357, Note_off_c, 10, 57, 127
1, 287357, Note_on_c, 8, 56, 127
1, 287451, Note_on_c, 12, 59, 127
1, 287543, Note_off_c, 8, 56, 127
1, 287545, Note_off_c, 12, 59, 127
1, 287545, Note_on_c, 8, 56, 127
1, 287639, Note_on_c, 10, 57, 127
1, 287733, Note_off_c, 10, 57, 127
1, 287733, Note_on_c, 12, 59, 127
1, 287827, Note_off_c, 12, 59, 127
1, 287827, Note_on_c, 0, 60, 127
1, 287921, Note_off_c, 0, 60, 127
1, 287921, Note_on_c, 2, 62, 127
1, 288015, Note_on_c, 4, 64, 127
1, 288109, Note_off_c, 4, 64, 127
1, 288109, Note_on_c, 5, 65, 127
1, 288203, Note_off_c, 5, 65, 127
1, 288203, Note_off_c, 2, 62, 127
1, 288203, Note_on_c, 2, 62, 127
1, 288295, Note_off_c, 12, 71, 127
1, 288297, Note_off_c, 2, 62, 127
1, 288297, Note_on_c, 12, 71, 127
1, 288391, Note_on_c, 5, 65, 127
1, 288485, Note_off_c, 5, 65, 127
1, 288485, Note_on_c, 2, 62, 127
1, 288579, Note_off_c, 2, 62, 127
1, 288579, Note_on_c, 0, 60, 127
1, 288673, Note_off_c, 0, 60, 127
1, 288673, Note_on_c, 12, 59, 127
1, 288767, Note_off_c, 12, 59, 127
1, 288767, Note_on_c, 10, 57, 127
1, 288849, Note_off_c, 8, 56, 127
1, 288861, Note_off_c, 10, 57, 127
1, 288861, Note_on_c, 8, 56, 127
1, 288955, Note_on_c, 12, 59, 127
1, 288957, Note_off_c, 8, 56, 127
1, 289042, Note_off_c, 12, 71, 127
1, 289048, Note_off_c, 12, 59, 127
1, 289050, Note_on_c, 4, 52, 127
1, 289144, Note_on_c, 6, 54, 127
1, 289238, Note_on_c, 8, 56, 127
1, 289240, Note_off_c, 6, 54, 127
1, 289332, Note_on_c, 10, 57, 127
1, 289334, Note_off_c, 8, 56, 127
1, 289426, Note_on_c, 12, 59, 127
1, 289428, Note_off_c, 10, 57, 127
1, 289520, Note_on_c, 0, 60, 127
1, 289614, Note_on_c, 2, 62, 127
1, 289616, Note_off_c, 0, 60, 127
1, 289708, Note_off_c, 12, 59, 127
1, 289708, Note_on_c, 12, 59, 127
1, 289710, Note_off_c, 2, 62, 127
1, 289802, Note_on_c, 8, 68, 127
1, 289804, Note_off_c, 12, 59, 127
1, 289896, Note_on_c, 5, 65, 127
1, 289990, Note_on_c, 2, 62, 127
1, 289992, Note_off_c, 5, 65, 127
1, 290084, Note_on_c, 0, 60, 127
1, 290086, Note_off_c, 2, 62, 127
1, 290178, Note_on_c, 12, 59, 127
1, 290180, Note_off_c, 0, 60, 127
1, 290272, Note_on_c, 10, 57, 127
1, 290274, Note_off_c, 12, 59, 127
1, 290366, Note_on_c, 8, 56, 127
1, 290368, Note_off_c, 10, 57, 127
1, 290460, Note_on_c, 12, 59, 127
1, 290462, Note_off_c, 8, 56, 127
1, 290552, Note_off_c, 4, 52, 127
1, 290554, Note_on_c, 4, 52, 127
1, 290556, Note_off_c, 12, 59, 127
1, 290648, Note_on_c, 6, 54, 127
1, 290742, Note_on_c, 8, 56, 127
1, 290744, Note_off_c, 6, 54, 127
1, 290836, Note_on_c, 10, 57, 127
1, 290838, Note_off_c, 8, 56, 127
1, 290930, Note_on_c, 12, 59, 127
1, 290932, Note_off_c, 10, 57, 127
1, 291024, Note_on_c, 0, 60, 127
1, 291118, Note_on_c, 2, 62, 127
1, 291120, Note_off_c, 0, 60, 127
1, 291212, Note_off_c, 12, 59, 127
1, 291212, Note_on_c, 12, 59, 127
1, 291214, Note_off_c, 2, 62, 127
1, 291304, Note_off_c, 8, 68, 127
1, 291306, Note_on_c, 8, 68, 127
1, 291308, Note_off_c, 12, 59, 127
1, 291400, Note_on_c, 5, 65, 127
1, 291494, Note_on_c, 2, 62, 127
1, 291496, Note_off_c, 5, 65, 127
1, 291588, Note_on_c, 0, 60, 127
1, 291590, Note_off_c, 2, 62, 127
1, 291682, Note_on_c, 12, 59, 127
1, 291684, Note_off_c, 0, 60, 127
1, 291776, Note_on_c, 10, 57, 127
1, 291778, Note_off_c, 12, 59, 127
1, 291855, Note_off_c, 8, 68, 127
1, 291869, Note_off_c, 10, 57, 127
1, 291871, Note_on_c, 8, 56, 127
1, 291954, Note_off_c, 4, 52, 127
1, 291965, Note_on_c, 12, 59, 127
1, 291967, Note_off_c, 8, 56, 127
1, 292059, Note_on_c, 3, 51, 127
1, 292061, Note_off_c, 12, 59, 127
1, 292153, Note_on_c, 4, 52, 127
1, 292247, Note_on_c, 6, 54, 127
1, 292249, Note_off_c, 4, 52, 127
1, 292341, Note_on_c, 8, 56, 127
1, 292343, Note_off_c, 6, 54, 127
1, 292435, Note_on_c, 10, 57, 127
1, 292437, Note_off_c, 8, 56, 127
1, 292529, Note_on_c, 12, 59, 127
1, 292623, Note_on_c, 0, 60, 127
1, 292625, Note_off_c, 12, 59, 127
1, 292717, Note_off_c, 10, 57, 127
1, 292717, Note_on_c, 10, 57, 127
1, 292719, Note_off_c, 0, 60, 127
1, 292811, Note_on_c, 10, 69, 127
1, 292813, Note_off_c, 10, 57, 127
1, 292905, Note_on_c, 6, 66, 127
1, 292999, Note_on_c, 3, 63, 127
1, 293001, Note_off_c, 6, 66, 127
1, 293093, Note_on_c, 0, 60, 127
1, 293095, Note_off_c, 3, 63, 127
1, 293187, Note_on_c, 12, 59, 127
1, 293189, Note_off_c, 0, 60, 127
1, 293281, Note_on_c, 10, 57, 127
1, 293283, Note_off_c, 12, 59, 127
1, 293375, Note_on_c, 8, 56, 127
1, 293377, Note_off_c, 10, 57, 127
1, 293469, Note_on_c, 10, 57, 127
1, 293471, Note_off_c, 8, 56, 127
1, 293561, Note_off_c, 3, 51, 127
1, 293563, Note_on_c, 3, 51, 127
1, 293565, Note_off_c, 10, 57, 127
1, 293657, Note_on_c, 4, 52, 127
1, 293751, Note_on_c, 6, 54, 127
1, 293753, Note_off_c, 4, 52, 127
1, 293845, Note_on_c, 8, 56, 127
1, 293847, Note_off_c, 6, 54, 127
1, 293939, Note_on_c, 10, 57, 127
1, 293941, Note_off_c, 8, 56, 127
1, 294033, Note_on_c, 12, 59, 127
1, 294127, Note_on_c, 0, 60, 127
1, 294129, Note_off_c, 12, 59, 127
1, 294221, Note_off_c, 10, 57, 127
1, 294221, Note_on_c, 10, 57, 127
1, 294223, Note_off_c, 0, 60, 127
1, 294313, Note_off_c, 10, 69, 127
1, 294315, Note_on_c, 10, 69, 127
1, 294317, Note_off_c, 10, 57, 127
1, 294409, Note_on_c, 6, 66, 127
1, 294503, Note_on_c, 3, 63, 127
1, 294505, Note_off_c, 6, 66, 127
1, 294597, Note_on_c, 0, 60, 127
1, 294599, Note_off_c, 3, 63, 127
1, 294691, Note_on_c, 12, 59, 127
1, 294693, Note_off_c, 0, 60, 127
1, 294785, Note_on_c, 10, 57, 127
1, 294787, Note_off_c, 12, 59, 127
1, 294864, Note_off_c, 10, 69, 127
1, 294878, Note_off_c, 10, 57, 127
1, 294880, Note_on_c, 8, 56, 127
1, 294963, Note_off_c, 3, 51, 127
1, 294974, Note_on_c, 10, 57, 127
1, 294976, Note_off_c, 8, 56, 127
1, 295068, Note_on_c, 4, 52, 127
1, 295072, Note_off_c, 10, 57, 127
1, 295162, Note_on_c, 8, 56, 127
1, 295256, Note_on_c, 10, 57, 127
1, 295260, Note_off_c, 8, 56, 127
1, 295350, Note_on_c, 12, 59, 127
1, 295354, Note_off_c, 10, 57, 127
1, 295444, Note_on_c, 0, 60, 127
1, 295448, Note_off_c, 12, 59, 127
1, 295538, Note_on_c, 2, 62, 127
1, 295632, Note_on_c, 4, 64, 127
1, 295636, Note_off_c, 2, 62, 127
1, 295726, Note_off_c, 0, 60, 127
1, 295726, Note_on_c, 0, 60, 127
1, 295730, Note_off_c, 4, 64, 127
1, 295820, Note_on_c, 10, 69, 127
1, 295824, Note_off_c, 0, 60, 127
1, 295914, Note_on_c, 4, 64, 127
1, 296008, Note_on_c, 2, 62, 127
1, 296012, Note_off_c, 4, 64, 127
1, 296102, Note_on_c, 0, 60, 127
1, 296106, Note_off_c, 2, 62, 127
1, 296196, Note_on_c, 12, 59, 127
1, 296200, Note_off_c, 0, 60, 127
1, 296290, Note_on_c, 10, 57, 127
1, 296294, Note_off_c, 12, 59, 127
1, 296384, Note_on_c, 8, 56, 127
1, 296388, Note_off_c, 10, 57, 127
1, 296478, Note_on_c, 10, 57, 127
1, 296482, Note_off_c, 8, 56, 127
1, 296570, Note_off_c, 4, 52, 127
1, 296572, Note_on_c, 4, 52, 127
1, 296576, Note_off_c, 10, 57, 127
1, 296666, Note_on_c, 8, 56, 127
1, 296760, Note_on_c, 10, 57, 127
1, 296764, Note_off_c, 8, 56, 127
1, 296854, Note_on_c, 12, 59, 127
1, 296858, Note_off_c, 10, 57, 127
1, 296948, Note_on_c, 0, 60, 127
1, 296952, Note_off_c, 12, 59, 127
1, 297042, Note_on_c, 2, 62, 127
1, 297136, Note_on_c, 4, 64, 127
1, 297140, Note_off_c, 2, 62, 127
1, 297230, Note_off_c, 0, 60, 127
1, 297230, Note_on_c, 0, 60, 127
1, 297234, Note_off_c, 4, 64, 127
1, 297322, Note_off_c, 10, 69, 127
1, 297324, Note_on_c, 10, 69, 127
1, 297328, Note_off_c, 0, 60, 127
1, 297418, Note_on_c, 4, 64, 127
1, 297512, Note_on_c, 2, 62, 127
1, 297516, Note_off_c, 4, 64, 127
1, 297606, Note_on_c, 0, 60, 127
1, 297610, Note_off_c, 2, 62, 127
1, 297700, Note_on_c, 12, 59, 127
1, 297704, Note_off_c, 0, 60, 127
1, 297794, Note_on_c, 10, 57, 127
1, 297798, Note_off_c, 12, 59, 127
1, 297873, Note_off_c, 10, 69, 127
1, 297887, Note_off_c, 10, 57, 127
1, 297889, Note_on_c, 8, 56, 127
1, 297983, Note_on_c, 10, 57, 127
1, 297987, Note_off_c, 8, 56, 127
1, 298075, Note_off_c, 4, 52, 127
1, 298077, Note_on_c, 4, 52, 127
1, 298081, Note_off_c, 10, 57, 127
1, 298181, Note_on_c, 6, 54, 127
1, 298280, Note_off_c, 6, 54, 127
1, 298280, Note_on_c, 8, 56, 127
1, 298379, Note_off_c, 8, 56, 127
1, 298379, Note_on_c, 10, 57, 127
1, 298478, Note_off_c, 10, 57, 127
1, 298478, Note_on_c, 12, 59, 127
1, 298583, Note_on_c, 0, 60, 127
1, 298687, Note_off_c, 0, 60, 127
1, 298687, Note_on_c, 2, 62, 127
1, 298787, Note_off_c, 12, 59, 127
1, 298791, Note_off_c, 2, 62, 127
1, 298791, Note_on_c, 12, 59, 127
1, 298896, Note_on_c, 8, 68, 127
1, 299009, Note_off_c, 12, 59, 127
1, 299009, Note_on_c, 5, 65, 127
1, 299120, Note_off_c, 5, 65, 127
1, 299122, Note_on_c, 4, 64, 127
1, 299233, Note_off_c, 4, 64, 127
1, 299235, Note_on_c, 2, 62, 127
1, 299346, Note_off_c, 2, 62, 127
1, 299348, Note_on_c, 0, 60, 127
1, 299459, Note_off_c, 0, 60, 127
1, 299461, Note_on_c, 12, 59, 127
1, 299555, Note_off_c, 8, 68, 127
1, 299571, Note_off_c, 12, 59, 127
1, 299573, Note_on_c, 10, 57, 127
1, 299693, Note_off_c, 10, 57, 127
1, 299696, Note_on_c, 8, 56, 127
1, 299816, Note_off_c, 8, 56, 127
1, 299829, Note_off_c, 4, 52, 127
1, 299847, Note_on_c, 10, 57, 127
1, 299847, Note_on_c, 10, 45, 127
1, 300331, Note_on_c, 10, 69, 127
1, 300555, Note_off_c, 10, 69, 127
1, 300557, Note_on_c, 12, 71, 127
1, 300741, Note_off_c, 10, 45, 127
1, 300741, Note_off_c, 10, 57, 127
1, 300780, Note_off_c, 12, 71, 127
1, 300782, Note_on_c, 0, 72, 127
1, 301006, Note_off_c, 0, 72, 127
1, 301008, Note_on_c, 4, 76, 127
1, 301232, Note_off_c, 4, 76, 127
1, 301234, Note_on_c, 2, 74, 127
1, 301458, Note_off_c, 2, 74, 127
1, 301460, Note_on_c, 12, 71, 127
1, 301684, Note_off_c, 12, 71, 127
1, 301686, Note_on_c, 0, 72, 127
1, 302135, Note_off_c, 0, 72, 127
1, 302137, Note_on_c, 0, 72, 127
1, 302137, Note_on_c, 10, 69, 127
1, 302137, Note_on_c, 4, 76, 127
1, 302137, Note_on_c, 10, 57, 127
1, 302361, Note_off_c, 10, 57, 127
1, 302363, Note_on_c, 12, 59, 127
1, 302561, Note_off_c, 4, 76, 127
1, 302561, Note_off_c, 10, 69, 127
1, 302561, Note_off_c, 0, 72, 127
1, 302587, Note_off_c, 12, 59, 127
1, 302589, Note_on_c, 10, 81, 127
1, 302589, Note_on_c, 4, 76, 127
1, 302589, Note_on_c, 10, 69, 127
1, 302589, Note_on_c, 0, 60, 127
1, 302813, Note_off_c, 0, 60, 127
1, 302815, Note_on_c, 4, 64, 127
1, 303013, Note_off_c, 10, 69, 127
1, 303013, Note_off_c, 4, 76, 127
1, 303013, Note_off_c, 10, 81, 127
1, 303039, Note_off_c, 4, 64, 127
1, 303041, Note_on_c, 12, 71, 127
1, 303041, Note_on_c, 4, 76, 127
1, 303041, Note_on_c, 8, 80, 127
1, 303041, Note_on_c, 2, 62, 127
1, 303265, Note_off_c, 2, 62, 127
1, 303267, Note_on_c, 12, 59, 127
1, 303465, Note_off_c, 8, 80, 127
1, 303465, Note_off_c, 4, 76, 127
1, 303465, Note_off_c, 12, 71, 127
1, 303491, Note_off_c, 12, 59, 127
1, 303493, Note_on_c, 10, 69, 127
1, 303493, Note_on_c, 10, 81, 127
1, 303493, Note_on_c, 4, 76, 127
1, 303493, Note_on_c, 0, 60, 127
1, 303641, Note_off_c, 0, 60, 127
1, 303659, Note_on_c, 4, 52, 127
1, 303807, Note_off_c, 4, 52, 127
1, 303809, Note_on_c, 6, 54, 127
1, 303939, Note_off_c, 4, 76, 127
1, 303939, Note_off_c, 10, 81, 127
1, 303939, Note_off_c, 10, 69, 127
1, 303957, Note_off_c, 6, 54, 127
1, 303959, Note_on_c, 8, 56, 127
1, 304107, Note_off_c, 8, 56, 127
1, 304109, Note_on_c, 10, 57, 127
1, 304257, Note_off_c, 10, 57, 127
1, 304259, Note_on_c, 12, 59, 127
1, 304407, Note_off_c, 12, 59, 127
1, 304409, Note_on_c, 0, 60, 127
1, 304557, Note_off_c, 0, 60, 127
1, 304559, Note_on_c, 12, 59, 127
1, 304707, Note_off_c, 12, 59, 127
1, 304709, Note_on_c, 10, 57, 127
1, 304857, Note_off_c, 10, 57, 127
1, 304859, Note_on_c, 4, 64, 127
1, 305007, Note_off_c, 4, 64, 127
1, 305009, Note_on_c, 2, 62, 127
1, 305157, Note_off_c, 2, 62, 127
1, 305159, Note_on_c, 0, 60, 127
1, 305307, Note_off_c, 0, 60, 127
1, 305309, Note_on_c, 7, 67, 127
1, 305465, Note_off_c, 7, 67, 127
1, 305467, Note_on_c, 5, 65, 127
1, 305615, Note_off_c, 5, 65, 127
1, 305617, Note_on_c, 4, 64, 127
1, 305765, Note_off_c, 4, 64, 127
1, 305767, Note_on_c, 10, 57, 127
1, 305767, Note_on_c, 7, 67, 127
1, 305767, Note_on_c, 4, 64, 127
1, 305767, Note_on_c, 1, 61, 127
1, 305767, Note_on_c, 11, 70, 127
1, 305915, Note_off_c, 11, 70, 127
1, 305917, Note_on_c, 10, 69, 127
1, 306063, Note_off_c, 7, 67, 127
1, 306065, Note_off_c, 10, 69, 127
1, 306067, Note_on_c, 7, 67, 127
1, 306215, Note_off_c, 7, 67, 127
1, 306215, Note_off_c, 1, 61, 127
1, 306215, Note_off_c, 4, 64, 127
1, 306215, Note_off_c, 10, 57, 127
1, 306217, Note_on_c, 10, 57, 127
1, 306217, Note_on_c, 7, 67, 127
1, 306217, Note_on_c, 4, 64, 127
1, 306217, Note_on_c, 1, 61, 127
1, 306217, Note_on_c, 1, 73, 127
1, 306365, Note_off_c, 1, 73, 127
1, 306367, Note_on_c, 12, 71, 127
1, 306515, Note_off_c, 12, 71, 127
1, 306517, Note_on_c, 10, 69, 127
1, 306665, Note_off_c, 10, 69, 127
1, 306665, Note_off_c, 1, 61, 127
1, 306665, Note_off_c, 4, 64, 127
1, 306665, Note_off_c, 7, 67, 127
1, 306665, Note_off_c, 10, 57, 127
1, 306667, Note_on_c, 1, 61, 127
1, 306667, Note_on_c, 10, 57, 127
1, 306667, Note_on_c, 4, 64, 127
1, 306667, Note_on_c, 7, 67, 127
1, 306667, Note_on_c, 4, 76, 127
1, 306815, Note_off_c, 4, 76, 127
1, 306817, Note_on_c, 2, 74, 127
1, 306965, Note_off_c, 2, 74, 127
1, 306967, Note_on_c, 1, 73, 127
1, 307115, Note_off_c, 1, 73, 127
1, 307115, Note_off_c, 7, 67, 127
1, 307115, Note_off_c, 4, 64, 127
1, 307115, Note_off_c, 10, 57, 127
1, 307115, Note_off_c, 1, 61, 127
1, 307117, Note_on_c, 2, 50, 127
1, 307117, Note_on_c, 2, 62, 127
1, 307117, Note_on_c, 5, 77, 127
1, 307117, Note_on_c, 10, 69, 127
1, 307117, Note_on_c, 2, 74, 127
1, 307285, Note_off_c, 2, 62, 127
1, 307288, Note_on_c, 0, 60, 127
1, 307293, Note_off_c, 2, 50, 127
1, 307436, Note_off_c, 0, 60, 127
1, 307441, Note_on_c, 12, 59, 127
1, 307563, Note_off_c, 2, 74, 127
1, 307563, Note_off_c, 10, 69, 127
1, 307563, Note_off_c, 5, 77, 127
1, 307589, Note_off_c, 12, 59, 127
1, 307591, Note_on_c, 10, 57, 127
1, 307739, Note_off_c, 10, 57, 127
1, 307741, Note_on_c, 12, 59, 127
1, 307889, Note_off_c, 12, 59, 127
1, 307891, Note_on_c, 0, 60, 127
1, 308039, Note_off_c, 0, 60, 127
1, 308041, Note_on_c, 12, 59, 127
1, 308189, Note_off_c, 12, 59, 127
1, 308191, Note_on_c, 10, 57, 127
1, 308339, Note_off_c, 10, 57, 127
1, 308341, Note_on_c, 7, 55, 127
1, 308489, Note_off_c, 7, 55, 127
1, 308491, Note_on_c, 2, 62, 127
1, 308639, Note_off_c, 2, 62, 127
1, 308641, Note_on_c, 0, 60, 127
1, 308789, Note_off_c, 0, 60, 127
1, 308791, Note_on_c, 12, 59, 127
1, 308939, Note_off_c, 12, 59, 127
1, 308941, Note_on_c, 5, 65, 127
1, 309089, Note_off_c, 5, 65, 127
1, 309091, Note_on_c, 4, 64, 127
1, 309239, Note_off_c, 4, 64, 127
1, 309241, Note_on_c, 2, 62, 127
1, 309389, Note_off_c, 2, 62, 127
1, 309391, Note_on_c, 8, 68, 127
1, 309391, Note_on_c, 5, 65, 127
1, 309391, Note_on_c, 12, 59, 127
1, 309391, Note_on_c, 2, 62, 127
1, 309391, Note_on_c, 7, 55, 127
1, 309539, Note_off_c, 8, 68, 127
1, 309541, Note_on_c, 7, 67, 127
1, 309687, Note_off_c, 5, 65, 127
1, 309689, Note_off_c, 7, 67, 127
1, 309691, Note_on_c, 5, 65, 127
1, 309839, Note_off_c, 5, 65, 127
1, 309839, Note_off_c, 7, 55, 127
1, 309839, Note_off_c, 2, 62, 127
1, 309839, Note_off_c, 12, 59, 127
1, 309841, Note_on_c, 12, 71, 127
1, 309841, Note_on_c, 2, 62, 127
1, 309841, Note_on_c, 5, 65, 127
1, 309841, Note_on_c, 7, 55, 127
1, 309841, Note_on_c, 12, 59, 127
1, 309989, Note_off_c, 12, 71, 127
1, 309991, Note_on_c, 10, 69, 127
1, 310139, Note_off_c, 10, 69, 127
1, 310141, Note_on_c, 7, 67, 127
1, 310289, Note_off_c, 7, 67, 127
1, 310289, Note_off_c, 12, 59, 127
1, 310289, Note_off_c, 7, 55, 127
1, 310289, Note_off_c, 5, 65, 127
1, 310289, Note_off_c, 2, 62, 127
1, 310291, Note_on_c, 2, 74, 127
1, 310291, Note_on_c, 2, 62, 127
1, 310291, Note_on_c, 5, 65, 127
1, 310291, Note_on_c, 7, 55, 127
1, 310291, Note_on_c, 12, 59, 127
1, 310439, Note_off_c, 2, 74, 127
1, 310441, Note_on_c, 0, 72, 127
1, 310589, Note_off_c, 0, 72, 127
1, 310591, Note_on_c, 12, 71, 127
1, 310739, Note_off_c, 12, 71, 127
1, 310739, Note_off_c, 12, 59, 127
1, 310739, Note_off_c, 7, 55, 127
1, 310739, Note_off_c, 5, 65, 127
1, 310739, Note_off_c, 2, 62, 127
1, 310741, Note_on_c, 7, 67, 127
1, 310741, Note_on_c, 0, 72, 127
1, 310741, Note_on_c, 4, 76, 127
1, 310741, Note_on_c, 0, 60, 127
1, 310741, Note_on_c, 0, 48, 127
1, 310889, Note_off_c, 0, 60, 127
1, 310907, Note_on_c, 12, 59, 127
1, 311055, Note_off_c, 12, 59, 127
1, 311057, Note_on_c, 10, 57, 127
1, 311187, Note_off_c, 0, 48, 127
1, 311187, Note_off_c, 4, 76, 127
1, 311187, Note_off_c, 0, 72, 127
1, 311187, Note_off_c, 7, 67, 127
1, 311205, Note_off_c, 10, 57, 127
1, 311207, Note_on_c, 8, 56, 127
1, 311355, Note_off_c, 8, 56, 127
1, 311357, Note_on_c, 10, 57, 127
1, 311505, Note_off_c, 10, 57, 127
1, 311507, Note_on_c, 12, 59, 127
1, 311655, Note_off_c, 12, 59, 127
1, 311657, Note_on_c, 10, 57, 127
1, 311805, Note_off_c, 10, 57, 127
1, 311807, Note_on_c, 7, 55, 127
1, 311955, Note_off_c, 7, 55, 127
1, 311957, Note_on_c, 5, 53, 127
1, 312105, Note_off_c, 5, 53, 127
1, 312107, Note_on_c, 4, 52, 127
1, 312107, Note_on_c, 4, 76, 127
1, 312255, Note_off_c, 4, 52, 127
1, 312257, Note_on_c, 5, 53, 127
1, 312405, Note_off_c, 5, 53, 127
1, 312407, Note_on_c, 7, 55, 127
1, 312555, Note_off_c, 7, 55, 127
1, 312555, Note_off_c, 4, 76, 127
1, 312557, Note_on_c, 5, 53, 127
1, 312557, Note_on_c, 10, 81, 127
1, 312705, Note_off_c, 10, 81, 127
1, 312705, Note_off_c, 5, 53, 127
1, 312707, Note_on_c, 4, 52, 127
1, 312707, Note_on_c, 7, 79, 127
1, 312855, Note_off_c, 7, 79, 127
1, 312855, Note_off_c, 4, 52, 127
1, 312857, Note_on_c, 2, 50, 127
1, 312857, Note_on_c, 5, 77, 127
1, 313005, Note_off_c, 5, 77, 127
1, 313005, Note_off_c, 2, 50, 127
1, 313007, Note_on_c, 1, 49, 127
1, 313007, Note_on_c, 4, 76, 127
1, 313155, Note_off_c, 4, 76, 127
1, 313155, Note_off_c, 1, 49, 127
1, 313157, Note_on_c, 2, 50, 127
1, 313157, Note_on_c, 5, 77, 127
1, 313305, Note_off_c, 5, 77, 127
1, 313305, Note_off_c, 2, 50, 127
1, 313307, Note_on_c, 4, 52, 127
1, 313307, Note_on_c, 7, 79, 127
1, 313455, Note_off_c, 7, 79, 127
1, 313455, Note_off_c, 4, 52, 127
1, 313457, Note_on_c, 2, 50, 127
1, 313457, Note_on_c, 5, 77, 127
1, 313605, Note_off_c, 5, 77, 127
1, 313605, Note_off_c, 2, 50, 127
1, 313607, Note_on_c, 0, 48, 127
1, 313607, Note_on_c, 4, 76, 127
1, 313755, Note_off_c, 4, 76, 127
1, 313755, Note_off_c, 0, 48, 127
1, 313757, Note_on_c, 12, 47, 127
1, 313757, Note_on_c, 2, 74, 127
1, 313905, Note_off_c, 2, 74, 127
1, 313905, Note_off_c, 12, 47, 127
1, 313907, Note_on_c, 10, 45, 127
1, 313907, Note_on_c, 0, 72, 127
1, 314055, Note_off_c, 0, 72, 127
1, 314055, Note_off_c, 10, 45, 127
1, 314057, Note_on_c, 12, 47, 127
1, 314057, Note_on_c, 2, 74, 127
1, 314205, Note_off_c, 2, 74, 127
1, 314205, Note_off_c, 12, 47, 127
1, 314207, Note_on_c, 0, 48, 127
1, 314207, Note_on_c, 4, 76, 127
1, 314355, Note_off_c, 4, 76, 127
1, 314355, Note_off_c, 0, 48, 127
1, 314357, Note_on_c, 4, 40, 127
1, 314357, Note_on_c, 8, 44, 127
1, 314357, Note_on_c, 4, 52, 127
1, 314357, Note_on_c, 12, 47, 127
1, 314357, Note_on_c, 2, 74, 127
1, 314505, Note_off_c, 2, 74, 127
1, 314507, Note_on_c, 4, 76, 127
1, 314655, Note_off_c, 4, 76, 127
1, 314657, Note_on_c, 5, 77, 127
1, 314805, Note_off_c, 5, 77, 127
1, 314807, Note_on_c, 4, 76, 127
1, 314955, Note_off_c, 4, 76, 127
1, 314957, Note_on_c, 2, 74, 127
1, 315105, Note_off_c, 2, 74, 127
1, 315107, Note_on_c, 0, 72, 127
1, 315255, Note_off_c, 0, 72, 127
1, 315257, Note_on_c, 2, 74, 127
1, 315405, Note_off_c, 2, 74, 127
1, 315407, Note_on_c, 0, 72, 127
1, 315555, Note_off_c, 0, 72, 127
1, 315557, Note_on_c, 12, 71, 127
1, 315705, Note_off_c, 12, 71, 127
1, 315705, Note_off_c, 12, 47, 127
1, 315705, Note_off_c, 4, 52, 127
1, 315705, Note_off_c, 8, 44, 127
1, 315705, Note_off_c, 4, 40, 127
1, 315707, Note_on_c, 10, 45, 127
1, 315707, Note_on_c, 4, 40, 127
1, 315707, Note_on_c, 4, 52, 127
1, 315707, Note_on_c, 0, 48, 127
1, 315707, Note_on_c, 0, 72, 127
1, 315855, Note_off_c, 0, 72, 127
1, 315857, Note_on_c, 2, 74, 127
1, 316005, Note_off_c, 2, 74, 127
1, 316005, Note_off_c, 4, 52, 127
1, 316007, Note_on_c, 4, 52, 127
1, 316007, Note_on_c, 4, 76, 127
1, 316153, Note_off_c, 0, 48, 127
1, 316153, Note_off_c, 4, 40, 127
1, 316153, Note_off_c, 10, 45, 127
1, 316155, Note_off_c, 4, 76, 127
1, 316155, Note_off_c, 4, 52, 127
1, 316157, Note_on_c, 8, 44, 127
1, 316157, Note_on_c, 4, 40, 127
1, 316157, Note_on_c, 4, 52, 127
1, 316157, Note_on_c, 12, 47, 127
1, 316157, Note_on_c, 2, 74, 127
1, 316305, Note_off_c, 2, 74, 127
1, 316307, Note_on_c, 0, 72, 127
1, 316455, Note_off_c, 0, 72, 127
1, 316457, Note_on_c, 12, 71, 127
1, 316605, Note_off_c, 12, 71, 127
1, 316607, Note_on_c, 0, 72, 127
1, 316755, Note_off_c, 0, 72, 127
1, 316757, Note_on_c, 12, 71, 127
1, 316905, Note_off_c, 12, 71, 127
1, 316907, Note_on_c, 10, 69, 127
1, 317055, Note_off_c, 10, 69, 127
1, 317057, Note_on_c, 12, 71, 127
1, 317205, Note_off_c, 12, 71, 127
1, 317207, Note_on_c, 0, 72, 127
1, 317355, Note_off_c, 0, 72, 127
1, 317357, Note_on_c, 2, 74, 127
1, 317505, Note_off_c, 2, 74, 127
1, 317505, Note_off_c, 12, 47, 127
1, 317505, Note_off_c, 4, 52, 127
1, 317505, Note_off_c, 4, 40, 127
1, 317505, Note_off_c, 8, 44, 127
1, 317507, Note_on_c, 4, 40, 127
1, 317507, Note_on_c, 4, 52, 127
1, 317507, Note_on_c, 0, 48, 127
1, 317507, Note_on_c, 10, 45, 127
1, 317507, Note_on_c, 0, 72, 127
1, 317655, Note_off_c, 0, 72, 127
1, 317657, Note_on_c, 12, 71, 127
1, 317805, Note_off_c, 12, 71, 127
1, 317805, Note_off_c, 4, 52, 127
1, 317807, Note_on_c, 4, 52, 127
1, 317807, Note_on_c, 10, 69, 127
1, 317953, Note_off_c, 10, 45, 127
1, 317953, Note_off_c, 0, 48, 127
1, 317953, Note_off_c, 4, 40, 127
1, 317955, Note_off_c, 10, 69, 127
1, 317955, Note_off_c, 4, 52, 127
1, 317957, Note_on_c, 8, 44, 127
1, 317957, Note_on_c, 4, 40, 127
1, 317957, Note_on_c, 4, 52, 127
1, 317957, Note_on_c, 12, 47, 127
1, 317957, Note_on_c, 12, 71, 127
1, 318105, Note_off_c, 12, 71, 127
1, 318107, Note_on_c, 10, 69, 127
1, 318255, Note_off_c, 10, 69, 127
1, 318257, Note_on_c, 8, 68, 127
1, 318405, Note_off_c, 8, 68, 127
1, 318407, Note_on_c, 10, 69, 127
1, 318555, Note_off_c, 10, 69, 127
1, 318557, Note_on_c, 12, 71, 127
1, 318705, Note_off_c, 12, 71, 127
1, 318707, Note_on_c, 0, 72, 127
1, 318855, Note_off_c, 0, 72, 127
1, 318857, Note_on_c, 12, 71, 127
1, 319005, Note_off_c, 12, 71, 127
1, 319007, Note_on_c, 10, 69, 127
1, 319155, Note_off_c, 10, 69, 127
1, 319157, Note_on_c, 8, 68, 127
1, 319305, Note_off_c, 8, 68, 127
1, 319305, Note_off_c, 12, 47, 127
1, 319305, Note_off_c, 4, 52, 127
1, 319305, Note_off_c, 4, 40, 127
1, 319305, Note_off_c, 8, 44, 127
1, 319307, Note_on_c, 4, 40, 127
1, 319307, Note_on_c, 3, 51, 127
1, 319307, Note_on_c, 10, 45, 127
1, 319307, Note_on_c, 0, 48, 127
1, 319307, Note_on_c, 10, 69, 127
1, 319455, Note_off_c, 10, 69, 127
1, 319457, Note_on_c, 8, 68, 127
1, 319605, Note_off_c, 8, 68, 127
1, 319605, Note_off_c, 3, 51, 127
1, 319607, Note_on_c, 3, 51, 127
1, 319607, Note_on_c, 6, 66, 127
1, 319753, Note_off_c, 0, 48, 127
1, 319753, Note_off_c, 10, 45, 127
1, 319753, Note_off_c, 4, 40, 127
1, 319755, Note_off_c, 6, 66, 127
1, 319755, Note_off_c, 3, 51, 127
1, 319757, Note_on_c, 4, 40, 127
1, 319757, Note_on_c, 8, 44, 127
1, 319757, Note_on_c, 12, 47, 127
1, 319757, Note_on_c, 4, 52, 127
1, 319757, Note_on_c, 8, 68, 127
1, 319905, Note_off_c, 8, 68, 127
1, 319907, Note_on_c, 10, 69, 127
1, 320055, Note_off_c, 10, 69, 127
1, 320057, Note_on_c, 12, 71, 127
1, 320205, Note_off_c, 12, 71, 127
1, 320207, Note_on_c, 10, 69, 127
1, 320355, Note_off_c, 10, 69, 127
1, 320357, Note_on_c, 8, 68, 127
1, 320505, Note_off_c, 8, 68, 127
1, 320507, Note_on_c, 6, 66, 127
1, 320655, Note_off_c, 6, 66, 127
1, 320657, Note_on_c, 8, 68, 127
1, 320805, Note_off_c, 8, 68, 127
1, 320807, Note_on_c, 6, 66, 127
1, 320955, Note_off_c, 6, 66, 127
1, 320957, Note_on_c, 4, 64, 127
1, 321105, Note_off_c, 4, 64, 127
1, 321105, Note_off_c, 4, 52, 127
1, 321105, Note_off_c, 12, 47, 127
1, 321105, Note_off_c, 8, 44, 127
1, 321105, Note_off_c, 4, 40, 127
1, 321107, Note_on_c, 2, 74, 127
1, 321180, Note_off_c, 2, 74, 127
1, 321182, Note_on_c, 0, 72, 127
1, 321255, Note_off_c, 0, 72, 127
1, 321257, Note_on_c, 2, 74, 127
1, 321405, Note_off_c, 2, 74, 127
1, 321407, Note_on_c, 2, 74, 127
1, 321555, Note_off_c, 2, 74, 127
1, 321557, Note_on_c, 12, 59, 127
1, 321557, Note_on_c, 4, 64, 127
1, 321557, Note_on_c, 2, 74, 127
1, 321557, Note_on_c, 8, 68, 127
1, 321557, Note_on_c, 12, 71, 127
1, 321705, Note_off_c, 12, 59, 127
1, 321707, Note_on_c, 0, 60, 127
1, 321855, Note_off_c, 0, 60, 127
1, 321857, Note_on_c, 2, 62, 127
1, 322005, Note_off_c, 2, 62, 127
1, 322007, Note_on_c, 0, 60, 127
1, 322155, Note_off_c, 0, 60, 127
1, 322157, Note_on_c, 12, 59, 127
1, 322305, Note_off_c, 12, 59, 127
1, 322307, Note_on_c, 10, 57, 127
1, 322455, Note_off_c, 10, 57, 127
1, 322457, Note_on_c, 12, 59, 127
1, 322605, Note_off_c, 12, 59, 127
1, 322607, Note_on_c, 10, 57, 127
1, 322755, Note_off_c, 10, 57, 127
1, 322757, Note_on_c, 8, 56, 127
1, 322905, Note_off_c, 8, 56, 127
1, 322905, Note_off_c, 12, 71, 127
1, 322905, Note_off_c, 8, 68, 127
1, 322905, Note_off_c, 2, 74, 127
1, 322905, Note_off_c, 4, 64, 127
1, 322907, Note_on_c, 10, 57, 127
1, 322907, Note_on_c, 2, 62, 127
1, 322907, Note_on_c, 2, 74, 127
1, 322907, Note_on_c, 10, 69, 127
1, 322907, Note_on_c, 5, 65, 127
1, 323055, Note_off_c, 10, 57, 127
1, 323057, Note_on_c, 12, 59, 127
1, 323205, Note_off_c, 12, 59, 127
1, 323205, Note_off_c, 2, 74, 127
1, 323207, Note_on_c, 0, 60, 127
1, 323207, Note_on_c, 2, 74, 127
1, 323353, Note_off_c, 5, 65, 127
1, 323353, Note_off_c, 10, 69, 127
1, 323353, Note_off_c, 2, 62, 127
1, 323355, Note_off_c, 2, 74, 127
1, 323355, Note_off_c, 0, 60, 127
1, 323357, Note_on_c, 12, 59, 127
1, 323357, Note_on_c, 4, 64, 127
1, 323357, Note_on_c, 12, 71, 127
1, 323357, Note_on_c, 2, 74, 127
1, 323357, Note_on_c, 8, 68, 127
1, 323505, Note_off_c, 12, 59, 127
1, 323507, Note_on_c, 10, 57, 127
1, 323655, Note_off_c, 10, 57, 127
1, 323657, Note_on_c, 8, 56, 127
1, 323805, Note_off_c, 8, 56, 127
1, 323807, Note_on_c, 10, 57, 127
1, 323955, Note_off_c, 10, 57, 127
1, 323957, Note_on_c, 8, 56, 127
1, 324105, Note_off_c, 8, 56, 127
1, 324107, Note_on_c, 6, 54, 127
1, 324255, Note_off_c, 6, 54, 127
1, 324257, Note_on_c, 8, 56, 127
1, 324405, Note_off_c, 8, 56, 127
1, 324407, Note_on_c, 10, 57, 127
1, 324555, Note_off_c, 10, 57, 127
1, 324557, Note_on_c, 12, 59, 127
1, 324705, Note_off_c, 12, 59, 127
1, 324705, Note_off_c, 8, 68, 127
1, 324705, Note_off_c, 2, 74, 127
1, 324705, Note_off_c, 12, 71, 127
1, 324705, Note_off_c, 4, 64, 127
1, 324707, Note_on_c, 10, 57, 127
1, 324707, Note_on_c, 5, 65, 127
1, 324707, Note_on_c, 10, 69, 127
1, 324707, Note_on_c, 2, 74, 127
1, 324707, Note_on_c, 2, 62, 127
1, 324855, Note_off_c, 10, 57, 127
1, 324857, Note_on_c, 8, 56, 127
1, 325005, Note_off_c, 8, 56, 127
1, 325005, Note_off_c, 2, 74, 127
1, 325007, Note_on_c, 6, 54, 127
1, 325007, Note_on_c, 2, 74, 127
1, 325153, Note_off_c, 2, 62, 127
1, 325153, Note_off_c, 10, 69, 127
1, 325153, Note_off_c, 5, 65, 127
1, 325155, Note_off_c, 2, 74, 127
1, 325155, Note_off_c, 6, 54, 127
1, 325157, Note_on_c, 8, 56, 127
1, 325157, Note_on_c, 8, 68, 127
1, 325157, Note_on_c, 12, 71, 127
1, 325157, Note_on_c, 2, 74, 127
1, 325157, Note_on_c, 4, 64, 127
1, 325305, Note_off_c, 8, 56, 127
1, 325307, Note_on_c, 6, 54, 127
1, 325455, Note_off_c, 6, 54, 127
1, 325457, Note_on_c, 4, 52, 127
1, 325605, Note_off_c, 4, 52, 127
1, 325605, Note_off_c, 4, 64, 127
1, 325605, Note_off_c, 2, 74, 127
1, 325605, Note_off_c, 12, 71, 127
1, 325605, Note_off_c, 8, 68, 127
1, 325607, Note_on_c, 2, 50, 127
1, 325607, Note_on_c, 12, 71, 127
1, 325755, Note_off_c, 12, 71, 127
1, 325755, Note_off_c, 2, 50, 127
1, 325757, Note_on_c, 4, 52, 127
1, 325757, Note_on_c, 10, 69, 127
1, 325905, Note_off_c, 10, 69, 127
1, 325905, Note_off_c, 4, 52, 127
1, 325907, Note_on_c, 5, 53, 127
1, 325907, Note_on_c, 8, 68, 127
1, 326055, Note_off_c, 8, 68, 127
1, 326055, Note_off_c, 5, 53, 127
1, 326057, Note_on_c, 12, 47, 127
1, 326057, Note_on_c, 2, 74, 127
1, 326205, Note_off_c, 12, 47, 127
1, 326207, Note_on_c, 0, 48, 127
1, 326207, Note_on_c, 0, 72, 127
1, 326339, Note_off_c, 2, 74, 127
1, 326355, Note_off_c, 0, 72, 127
1, 326355, Note_off_c, 0, 48, 127
1, 326357, Note_on_c, 2, 50, 127
1, 326357, Note_on_c, 12, 71, 127
1, 326505, Note_off_c, 12, 71, 127
1, 326505, Note_off_c, 2, 50, 127
1, 326507, Note_on_c, 8, 44, 127
1, 326507, Note_on_c, 5, 77, 127
1, 326655, Note_off_c, 8, 44, 127
1, 326657, Note_on_c, 10, 45, 127
1, 326657, Note_on_c, 4, 76, 127
1, 326789, Note_off_c, 5, 77, 127
1, 326805, Note_off_c, 4, 76, 127
1, 326805, Note_off_c, 10, 45, 127
1, 326807, Note_on_c, 12, 47, 127
1, 326807, Note_on_c, 2, 74, 127
1, 326955, Note_off_c, 2, 74, 127
1, 326955, Note_off_c, 12, 47, 127
1, 326957, Note_on_c, 0, 36, 127
1, 326957, Note_on_c, 12, 83, 127
1, 327105, Note_off_c, 12, 83, 127
1, 327107, Note_on_c, 10, 81, 127
1, 327255, Note_off_c, 10, 81, 127
1, 327255, Note_off_c, 0, 36, 127
1, 327257, Note_on_c, 0, 48, 127
1, 327257, Note_on_c, 8, 80, 127
1, 327405, Note_off_c, 8, 80, 127
1, 327405, Note_off_c, 0, 48, 127
1, 327407, Note_on_c, 5, 53, 127
1, 327407, Note_on_c, 10, 81, 127
1, 327706, Note_off_c, 10, 81, 127
1, 327706, Note_off_c, 5, 53, 127
1, 327708, Note_on_c, 2, 50, 127
1, 327708, Note_on_c, 2, 74, 127
1, 327856, Note_off_c, 2, 74, 127
1, 327856, Note_off_c, 2, 50, 127
1, 327858, Note_on_c, 4, 52, 127
1, 327858, Note_on_c, 0, 72, 127
1, 328307, Note_off_c, 0, 72, 127
1, 328309, Note_on_c, 4, 40, 127
1, 328309, Note_on_c, 12, 71, 127
1, 328394, Note_on_c, 0, 72, 127
1, 328399, Note_off_c, 12, 71, 127
1, 328479, Note_on_c, 12, 71, 127
1, 328484, Note_off_c, 0, 72, 127
1, 328609, Note_on_c, 10, 69, 127
1, 328627, Note_off_c, 12, 71, 127
1, 328757, Note_off_c, 10, 69, 127
1, 328757, Note_off_c, 4, 40, 127
1, 328758, Note_off_c, 4, 52, 127
1, 328759, Note_on_c, 1, 49, 127
1, 328759, Note_on_c, 10, 69, 127
1, 328907, Note_off_c, 10, 69, 127
1, 328909, Note_on_c, 7, 67, 127
1, 329057, Note_off_c, 7, 67, 127
1, 329059, Note_on_c, 10, 69, 127
1, 329207, Note_off_c, 10, 69, 127
1, 329209, Note_on_c, 11, 70, 127
1, 329357, Note_off_c, 11, 70, 127
1, 329359, Note_on_c, 10, 69, 127
1, 329507, Note_off_c, 10, 69, 127
1, 329509, Note_on_c, 7, 67, 127
1, 329650, Note_off_c, 1, 49, 127
1, 329657, Note_off_c, 7, 67, 127
1, 329659, Note_on_c, 10, 69, 127
1, 329810, Note_on_c, 7, 67, 127
1, 329958, Note_off_c, 7, 67, 127
1, 329960, Note_on_c, 5, 65, 127
1, 330108, Note_off_c, 5, 65, 127
1, 330110, Note_on_c, 10, 45, 127
1, 330110, Note_on_c, 7, 67, 127
1, 330258, Note_off_c, 7, 67, 127
1, 330260, Note_on_c, 5, 65, 127
1, 330408, Note_off_c, 5, 65, 127
1, 330410, Note_on_c, 4, 64, 127
1, 330551, Note_off_c, 10, 69, 127
1, 330558, Note_off_c, 4, 64, 127
1, 330558, Note_off_c, 10, 45, 127
1, 330560, Note_on_c, 2, 50, 127
1, 330560, Note_on_c, 5, 65, 127
1, 330708, Note_off_c, 5, 65, 127
1, 330708, Note_off_c, 2, 50, 127
1, 330710, Note_on_c, 4, 52, 127
1, 330710, Note_on_c, 7, 67, 127
1, 330858, Note_off_c, 7, 67, 127
1, 330858, Note_off_c, 4, 52, 127
1, 330860, Note_on_c, 5, 53, 127
1, 330860, Note_on_c, 10, 69, 127
1, 331008, Note_off_c, 10, 69, 127
1, 331008, Note_off_c, 5, 53, 127
1, 331010, Note_on_c, 4, 52, 127
1, 331010, Note_on_c, 7, 67, 127
1, 331158, Note_off_c, 7, 67, 127
1, 331158, Note_off_c, 4, 52, 127
1, 331160, Note_on_c, 2, 50, 127
1, 331160, Note_on_c, 5, 65, 127
1, 331308, Note_off_c, 5, 65, 127
1, 331308, Note_off_c, 2, 50, 127
1, 331310, Note_on_c, 1, 49, 127
1, 331310, Note_on_c, 4, 64, 127
1, 331458, Note_off_c, 4, 64, 127
1, 331458, Note_off_c, 1, 49, 127
1, 331460, Note_on_c, 2, 50, 127
1, 331460, Note_on_c, 5, 65, 127
1, 331608, Note_off_c, 5, 65, 127
1, 331608, Note_off_c, 2, 50, 127
1, 331610, Note_on_c, 0, 48, 127
1, 331610, Note_on_c, 4, 64, 127
1, 331758, Note_off_c, 4, 64, 127
1, 331758, Note_off_c, 0, 48, 127
1, 331760, Note_on_c, 12, 47, 127
1, 331760, Note_on_c, 2, 62, 127
1, 331908, Note_off_c, 2, 62, 127
1, 331908, Note_off_c, 12, 47, 127
1, 331910, Note_on_c, 0, 48, 127
1, 331910, Note_on_c, 4, 64, 127
1, 332058, Note_off_c, 4, 64, 127
1, 332058, Note_off_c, 0, 48, 127
1, 332060, Note_on_c, 12, 47, 127
1, 332060, Note_on_c, 2, 62, 127
1, 332208, Note_off_c, 2, 62, 127
1, 332208, Note_off_c, 12, 47, 127
1, 332210, Note_on_c, 10, 45, 127
1, 332210, Note_on_c, 0, 60, 127
1, 332358, Note_off_c, 0, 60, 127
1, 332358, Note_off_c, 10, 45, 127
1, 332360, Note_on_c, 5, 53, 127
1, 332360, Note_on_c, 2, 62, 127
1, 332508, Note_off_c, 2, 62, 127
1, 332508, Note_off_c, 5, 53, 127
1, 332510, Note_on_c, 4, 52, 127
1, 332510, Note_on_c, 4, 64, 127
1, 332658, Note_off_c, 4, 64, 127
1, 332658, Note_off_c, 4, 52, 127
1, 332660, Note_on_c, 2, 50, 127
1, 332660, Note_on_c, 5, 65, 127
1, 332808, Note_off_c, 5, 65, 127
1, 332808, Note_off_c, 2, 50, 127
1, 332810, Note_on_c, 12, 47, 127
1, 332810, Note_on_c, 8, 68, 127
1, 332958, Note_off_c, 12, 47, 127
1, 332960, Note_on_c, 2, 50, 127
1, 332960, Note_on_c, 6, 66, 127
1, 333092, Note_off_c, 8, 68, 127
1, 333108, Note_off_c, 6, 66, 127
1, 333108, Note_off_c, 2, 50, 127
1, 333110, Note_on_c, 4, 52, 127
1, 333110, Note_on_c, 4, 64, 127
1, 333258, Note_off_c, 4, 64, 127
1, 333258, Note_off_c, 4, 52, 127
1, 333260, Note_on_c, 5, 53, 127
1, 333260, Note_on_c, 2, 62, 127
1, 333408, Note_off_c, 2, 62, 127
1, 333408, Note_off_c, 5, 53, 127
1, 333410, Note_on_c, 4, 52, 127
1, 333410, Note_on_c, 4, 64, 127
1, 333558, Note_off_c, 4, 64, 127
1, 333558, Note_off_c, 4, 52, 127
1, 333560, Note_on_c, 2, 50, 127
1, 333560, Note_on_c, 5, 65, 127
1, 333708, Note_off_c, 5, 65, 127
1, 333708, Note_off_c, 2, 50, 127
1, 333710, Note_on_c, 10, 45, 127
1, 333710, Note_on_c, 10, 69, 127
1, 333858, Note_off_c, 10, 45, 127
1, 333860, Note_on_c, 2, 50, 127
1, 333860, Note_on_c, 5, 65, 127
1, 333992, Note_off_c, 10, 69, 127
1, 334008, Note_off_c, 5, 65, 127
1, 334008, Note_off_c, 2, 50, 127
1, 334010, Note_on_c, 4, 52, 127
1, 334010, Note_on_c, 4, 64, 127
1, 334158, Note_off_c, 4, 64, 127
1, 334158, Note_off_c, 4, 52, 127
1, 334160, Note_on_c, 5, 53, 127
1, 334160, Note_on_c, 2, 62, 127
1, 334308, Note_off_c, 2, 62, 127
1, 334308, Note_off_c, 5, 53, 127
1, 334310, Note_on_c, 4, 52, 127
1, 334310, Note_on_c, 4, 64, 127
1, 334458, Note_off_c, 4, 64, 127
1, 334458, Note_off_c, 4, 52, 127
1, 334460, Note_on_c, 2, 50, 127
1, 334460, Note_on_c, 5, 65, 127
1, 334608, Note_off_c, 5, 65, 127
1, 334608, Note_off_c, 2, 50, 127
1, 334610, Note_on_c, 8, 44, 127
1, 334610, Note_on_c, 12, 71, 127
1, 334758, Note_off_c, 8, 44, 127
1, 334760, Note_on_c, 2, 50, 127
1, 334760, Note_on_c, 5, 65, 127
1, 334892, Note_off_c, 12, 71, 127
1, 334908, Note_off_c, 5, 65, 127
1, 334908, Note_off_c, 2, 50, 127
1, 334910, Note_on_c, 4, 52, 127
1, 334910, Note_on_c, 4, 64, 127
1, 335058, Note_off_c, 4, 64, 127
1, 335058, Note_off_c, 4, 52, 127
1, 335060, Note_on_c, 5, 53, 127
1, 335060, Note_on_c, 2, 62, 127
1, 335208, Note_off_c, 2, 62, 127
1, 335208, Note_off_c, 5, 53, 127
1, 335210, Note_on_c, 4, 52, 127
1, 335210, Note_on_c, 4, 64, 127
1, 335358, Note_off_c, 4, 64, 127
1, 335358, Note_off_c, 4, 52, 127
1, 335360, Note_on_c, 2, 50, 127
1, 335360, Note_on_c, 5, 65, 127
1, 335508, Note_off_c, 5, 65, 127
1, 335508, Note_off_c, 2, 50, 127
1, 335510, Note_on_c, 10, 45, 127
1, 335510, Note_on_c, 10, 69, 127
1, 335658, Note_off_c, 10, 45, 127
1, 335660, Note_on_c, 2, 50, 127
1, 335660, Note_on_c, 5, 65, 127
1, 335792, Note_off_c, 10, 69, 127
1, 335808, Note_off_c, 5, 65, 127
1, 335808, Note_off_c, 2, 50, 127
1, 335810, Note_on_c, 4, 52, 127
1, 335810, Note_on_c, 4, 64, 127
1, 335958, Note_off_c, 4, 64, 127
1, 335958, Note_off_c, 4, 52, 127
1, 335960, Note_on_c, 5, 53, 127
1, 335960, Note_on_c, 2, 62, 127
1, 336108, Note_off_c, 5, 53, 127
1, 336110, Note_on_c, 4, 52, 127
1, 336110, Note_on_c, 4, 64, 127
1, 336160, Note_off_c, 2, 62, 127
1, 336259, Note_off_c, 4, 64, 127
1, 336259, Note_off_c, 4, 52, 127
1, 336261, Note_on_c, 2, 50, 127
1, 336261, Note_on_c, 5, 65, 127
1, 336409, Note_off_c, 5, 65, 127
1, 336409, Note_off_c, 2, 50, 127
1, 336411, Note_on_c, 12, 47, 127
1, 336411, Note_on_c, 8, 68, 127
1, 336559, Note_off_c, 12, 47, 127
1, 336561, Note_on_c, 2, 50, 127
1, 336561, Note_on_c, 5, 65, 127
1, 336709, Note_off_c, 5, 65, 127
1, 336709, Note_off_c, 2, 50, 127
1, 336711, Note_on_c, 4, 52, 127
1, 336711, Note_on_c, 4, 64, 127
1, 336857, Note_off_c, 8, 68, 127
1, 336859, Note_off_c, 4, 64, 127
1, 336859, Note_off_c, 4, 52, 127
1, 336861, Note_on_c, 5, 53, 127
1, 336861, Note_on_c, 2, 62, 127
1, 337009, Note_off_c, 5, 53, 127
1, 337011, Note_on_c, 4, 52, 127
1, 337011, Note_on_c, 4, 64, 127
1, 337061, Note_off_c, 2, 62, 127
1, 337160, Note_off_c, 4, 64, 127
1, 337160, Note_off_c, 4, 52, 127
1, 337162, Note_on_c, 2, 50, 127
1, 337162, Note_on_c, 5, 65, 127
1, 337310, Note_off_c, 5, 65, 127
1, 337310, Note_off_c, 2, 50, 127
1, 337312, Note_on_c, 10, 45, 127
1, 337312, Note_on_c, 10, 69, 127
1, 337460, Note_off_c, 10, 45, 127
1, 337462, Note_on_c, 2, 50, 127
1, 337462, Note_on_c, 5, 65, 127
1, 337610, Note_off_c, 5, 65, 127
1, 337610, Note_off_c, 2, 50, 127
1, 337612, Note_on_c, 4, 52, 127
1, 337612, Note_on_c, 4, 64, 127
1, 337758, Note_off_c, 10, 69, 127
1, 337760, Note_off_c, 4, 64, 127
1, 337760, Note_off_c, 4, 52, 127
1, 337762, Note_on_c, 5, 53, 127
1, 337762, Note_on_c, 2, 62, 127
1, 337910, Note_off_c, 5, 53, 127
1, 337912, Note_on_c, 4, 52, 127
1, 337912, Note_on_c, 4, 64, 127
1, 337982, Note_off_c, 2, 62, 127
1, 338061, Note_off_c, 4, 64, 127
1, 338061, Note_off_c, 4, 52, 127
1, 338063, Note_on_c, 2, 50, 127
1, 338063, Note_on_c, 5, 65, 127
1, 338211, Note_off_c, 5, 65, 127
1, 338211, Note_off_c, 2, 50, 127
1, 338213, Note_on_c, 8, 44, 127
1, 338213, Note_on_c, 12, 71, 127
1, 338361, Note_off_c, 8, 44, 127
1, 338363, Note_on_c, 2, 50, 127
1, 338363, Note_on_c, 5, 65, 127
1, 338511, Note_off_c, 5, 65, 127
1, 338511, Note_off_c, 2, 50, 127
1, 338513, Note_on_c, 4, 52, 127
1, 338513, Note_on_c, 4, 64, 127
1, 338659, Note_off_c, 12, 71, 127
1, 338661, Note_off_c, 4, 64, 127
1, 338661, Note_off_c, 4, 52, 127
1, 338663, Note_on_c, 5, 53, 127
1, 338663, Note_on_c, 2, 62, 127
1, 338811, Note_off_c, 5, 53, 127
1, 338813, Note_on_c, 4, 52, 127
1, 338813, Note_on_c, 4, 64, 127
1, 338883, Note_off_c, 2, 62, 127
1, 338962, Note_off_c, 4, 64, 127
1, 338962, Note_off_c, 4, 52, 127
1, 338964, Note_on_c, 2, 50, 127
1, 338964, Note_on_c, 5, 65, 127
1, 339112, Note_off_c, 5, 65, 127
1, 339112, Note_off_c, 2, 50, 127
1, 339114, Note_on_c, 10, 45, 127
1, 339114, Note_on_c, 10, 69, 127
1, 339262, Note_off_c, 10, 45, 127
1, 339264, Note_on_c, 2, 50, 127
1, 339264, Note_on_c, 5, 65, 127
1, 339396, Note_off_c, 10, 69, 127
1, 339412, Note_off_c, 5, 65, 127
1, 339412, Note_off_c, 2, 50, 127
1, 339414, Note_on_c, 4, 52, 127
1, 339414, Note_on_c, 4, 64, 127
1, 339562, Note_off_c, 4, 64, 127
1, 339562, Note_off_c, 4, 52, 127
1, 339564, Note_on_c, 5, 53, 127
1, 339564, Note_on_c, 2, 62, 127
1, 339712, Note_off_c, 5, 53, 127
1, 339714, Note_on_c, 2, 50, 127
1, 339714, Note_on_c, 5, 65, 127
1, 339862, Note_off_c, 2, 50, 127
1, 339864, Note_on_c, 12, 47, 127
1, 339864, Note_on_c, 8, 68, 127
1, 340012, Note_off_c, 12, 47, 127
1, 340014, Note_on_c, 8, 44, 127
1, 340014, Note_on_c, 12, 71, 127
1, 340162, Note_off_c, 8, 44, 127
1, 340164, Note_on_c, 12, 47, 127
1, 340164, Note_on_c, 2, 74, 127
1, 340308, Note_off_c, 12, 71, 127
1, 340313, Note_off_c, 2, 74, 127
1, 340313, Note_off_c, 12, 47, 127
1, 340315, Note_on_c, 8, 44, 127
1, 340315, Note_on_c, 12, 71, 127
1, 340456, Note_off_c, 2, 62, 127
1, 340463, Note_off_c, 12, 71, 127
1, 340463, Note_off_c, 8, 44, 127
1, 340463, Note_off_c, 8, 68, 127
1, 340465, Note_off_c, 5, 65, 127
1, 340465, Note_on_c, 4, 40, 127
1, 340465, Note_on_c, 8, 68, 127
1, 340616, Note_on_c, 12, 71, 127
1, 340767, Note_on_c, 2, 74, 127
1, 340915, Note_off_c, 4, 40, 127
1, 340925, Note_on_c, 2, 50, 127
1, 340925, Note_on_c, 8, 56, 127
1, 340925, Note_on_c, 5, 77, 127
1, 341063, Note_off_c, 2, 74, 127
1, 341073, Note_off_c, 5, 77, 127
1, 341075, Note_on_c, 4, 76, 127
1, 341223, Note_off_c, 4, 76, 127
1, 341225, Note_on_c, 2, 74, 127
1, 341358, Note_off_c, 8, 68, 127
1, 341373, Note_off_c, 2, 74, 127
1, 341373, Note_off_c, 2, 50, 127
1, 341375, Note_on_c, 0, 48, 127
1, 341375, Note_on_c, 4, 76, 127
1, 341536, Note_off_c, 8, 56, 127
1, 341539, Note_on_c, 6, 54, 127
1, 341700, Note_off_c, 6, 54, 127
1, 341703, Note_on_c, 4, 52, 127
1, 341841, Note_off_c, 12, 71, 127
1, 341864, Note_off_c, 4, 52, 127
1, 341867, Note_on_c, 10, 57, 127
1, 341867, Note_on_c, 0, 72, 127
1, 341867, Note_on_c, 10, 69, 127
1, 342092, Note_off_c, 4, 76, 127
1, 342092, Note_off_c, 0, 48, 127
1, 342112, Note_on_c, 10, 45, 127
1, 342112, Note_on_c, 10, 81, 127
1, 342352, Note_off_c, 10, 69, 127
1, 342352, Note_off_c, 0, 72, 127
1, 342352, Note_off_c, 10, 57, 127
1, 342355, Note_off_c, 10, 45, 127
1, 342358, Note_on_c, 4, 52, 127
1, 342358, Note_on_c, 12, 71, 127
1, 342358, Note_on_c, 2, 74, 127
1, 342655, Note_off_c, 10, 81, 127
1, 342661, Note_on_c, 10, 81, 127
1, 342961, Note_off_c, 2, 74, 127
1, 342961, Note_off_c, 12, 71, 127
1, 342964, Note_on_c, 4, 40, 127
1, 342964, Note_on_c, 12, 71, 127
1, 342964, Note_on_c, 2, 74, 127
1, 343264, Note_off_c, 10, 81, 127
1, 343267, Note_on_c, 8, 80, 127
1, 343558, Note_off_c, 4, 52, 127
1, 343564, Note_off_c, 2, 74, 127
1, 343564, Note_off_c, 12, 71, 127
1, 343567, Note_off_c, 8, 80, 127
1, 343567, Note_off_c, 4, 40, 127
1, 343570, Note_on_c, 10, 45, 127
1, 343570, Note_on_c, 10, 57, 127
1, 343570, Note_on_c, 4, 52, 127
1, 343570, Note_on_c, 10, 81, 127
1, 343570, Note_on_c, 10, 69, 127
1, 343570, Note_on_c, 1, 73, 127
1, 343570, Note_on_c, 4, 76, 127
1, 347570, Note_off_c, 4, 76, 127
1, 347570, Note_off_c, 1, 73, 127
1, 347570, Note_off_c, 10, 69, 127
1, 347570, Note_off_c, 10, 81, 127
1, 347570, Note_off_c, 4, 52, 127
1, 347570, Note_off_c, 10, 57, 127
1, 347570, Note_off_c, 10, 45, 127
1, 348855, Note_on_c, 10, 57, 127
1, 349000, Note_off_c, 10, 57, 127
1, 349006, Note_on_c, 0, 60, 127
1, 349151, Note_off_c, 0, 60, 127
1, 349157, Note_on_c, 4, 64, 127
1, 349302, Note_off_c, 4, 64, 127
1, 349308, Note_on_c, 8, 56, 127
1, 349453, Note_off_c, 8, 56, 127
1, 349459, Note_on_c, 2, 62, 127
1, 349604, Note_off_c, 2, 62, 127
1, 349610, Note_on_c, 5, 65, 127
1, 349755, Note_off_c, 5, 65, 127
1, 349761, Note_on_c, 10, 57, 127
1, 349906, Note_off_c, 10, 57, 127
1, 349912, Note_on_c, 0, 60, 127
1, 350057, Note_off_c, 0, 60, 127
1, 350063, Note_on_c, 4, 64, 127
1, 350208, Note_off_c, 4, 64, 127
1, 350214, Note_on_c, 4, 52, 127
1, 350359, Note_off_c, 4, 52, 127
1, 350365, Note_on_c, 12, 59, 127
1, 350510, Note_off_c, 12, 59, 127
1, 350516, Note_on_c, 2, 62, 127
1, 350661, Note_off_c, 2, 62, 127
1, 350667, Note_on_c, 10, 57, 127
1, 350812, Note_off_c, 10, 57, 127
1, 350818, Note_on_c, 12, 59, 127
1, 350963, Note_off_c, 12, 59, 127
1, 350969, Note_on_c, 0, 60, 127
1, 351114, Note_off_c, 0, 60, 127
1, 351120, Note_on_c, 2, 62, 127
1, 351265, Note_off_c, 2, 62, 127
1, 351271, Note_on_c, 4, 64, 127
1, 351416, Note_off_c, 4, 64, 127
1, 351422, Note_on_c, 5, 65, 127
1, 351567, Note_off_c, 5, 65, 127
1, 351573, Note_on_c, 7, 55, 127
1, 351718, Note_off_c, 7, 55, 127
1, 351724, Note_on_c, 10, 57, 127
1, 351869, Note_off_c, 10, 57, 127
1, 351875, Note_on_c, 12, 59, 127
1, 352020, Note_off_c, 12, 59, 127
1, 352026, Note_on_c, 0, 60, 127
1, 352171, Note_off_c, 0, 60, 127
1, 352177, Note_on_c, 2, 62, 127
1, 352322, Note_off_c, 2, 62, 127
1, 352328, Note_on_c, 4, 64, 127
1, 352473, Note_off_c, 4, 64, 127
1, 352479, Note_on_c, 5, 53, 127
1, 352624, Note_off_c, 5, 53, 127
1, 352630, Note_on_c, 7, 55, 127
1, 352775, Note_off_c, 7, 55, 127
1, 352781, Note_on_c, 10, 57, 127
1, 352926, Note_off_c, 10, 57, 127
1, 352932, Note_on_c, 12, 59, 127
1, 353077, Note_off_c, 12, 59, 127
1, 353083, Note_on_c, 0, 60, 127
1, 353228, Note_off_c, 0, 60, 127
1, 353234, Note_on_c, 2, 62, 127
1, 353379, Note_off_c, 2, 62, 127
1, 353385, Note_on_c, 4, 52, 127
1, 353530, Note_off_c, 4, 52, 127
1, 353536, Note_on_c, 8, 56, 127
1, 353681, Note_off_c, 8, 56, 127
1, 353687, Note_on_c, 12, 59, 127
1, 353832, Note_off_c, 12, 59, 127
1, 353838, Note_on_c, 2, 62, 127
1, 353983, Note_off_c, 2, 62, 127
1, 353989, Note_on_c, 12, 59, 127
1, 354134, Note_off_c, 12, 59, 127
1, 354140, Note_on_c, 8, 56, 127
1, 354285, Note_off_c, 8, 56, 127
1, 354291, Note_on_c, 4, 52, 127
1, 354436, Note_off_c, 4, 52, 127
1, 354442, Note_on_c, 10, 57, 127
1, 354587, Note_off_c, 10, 57, 127
1, 354593, Note_on_c, 12, 59, 127
1, 354738, Note_off_c, 12, 59, 127
1, 354744, Note_on_c, 0, 60, 127
1, 354889, Note_off_c, 0, 60, 127
1, 354895, Note_on_c, 12, 59, 127
1, 355040, Note_off_c, 12, 59, 127
1, 355046, Note_on_c, 10, 57, 127
1, 355191, Note_off_c, 10, 57, 127
1, 355197, Note_on_c, 3, 63, 127
1, 355342, Note_off_c, 3, 63, 127
1, 355348, Note_on_c, 0, 60, 127
1, 355493, Note_off_c, 0, 60, 127
1, 355499, Note_on_c, 12, 59, 127
1, 355644, Note_off_c, 12, 59, 127
1, 355650, Note_on_c, 10, 57, 127
1, 355795, Note_off_c, 10, 57, 127
1, 355801, Note_on_c, 7, 55, 127
1, 355949, Note_off_c, 7, 55, 127
1, 355952, Note_on_c, 6, 54, 127
1, 356100, Note_off_c, 6, 54, 127
1, 356103, Note_on_c, 7, 55, 127
1, 356103, Note_on_c, 4, 64, 127
1, 356251, Note_off_c, 4, 64, 127
1, 356254, Note_on_c, 7, 67, 127
1, 356399, Note_off_c, 7, 55, 127
1, 356402, Note_off_c, 7, 67, 127
1, 356404, Note_on_c, 12, 71, 127
1, 356552, Note_off_c, 12, 71, 127
1, 356555, Note_on_c, 6, 54, 127
1, 356555, Note_on_c, 3, 63, 127
1, 356703, Note_off_c, 3, 63, 127
1, 356706, Note_on_c, 10, 69, 127
1, 356851, Note_off_c, 6, 54, 127
1, 356854, Note_off_c, 10, 69, 127
1, 356856, Note_on_c, 0, 72, 127
1, 357004, Note_off_c, 0, 72, 127
1, 357007, Note_on_c, 7, 55, 127
1, 357007, Note_on_c, 4, 64, 127
1, 357155, Note_off_c, 4, 64, 127
1, 357158, Note_on_c, 7, 67, 127
1, 357303, Note_off_c, 7, 55, 127
1, 357306, Note_off_c, 7, 67, 127
1, 357308, Note_on_c, 12, 71, 127
1, 357456, Note_off_c, 12, 71, 127
1, 357459, Note_on_c, 3, 51, 127
1, 357459, Note_on_c, 12, 59, 127
1, 357607, Note_off_c, 12, 59, 127
1, 357610, Note_on_c, 6, 66, 127
1, 357755, Note_off_c, 3, 51, 127
1, 357758, Note_off_c, 6, 66, 127
1, 357760, Note_on_c, 10, 69, 127
1, 357908, Note_off_c, 10, 69, 127
1, 357911, Note_on_c, 7, 55, 127
1, 357911, Note_on_c, 4, 64, 127
1, 358059, Note_off_c, 4, 64, 127
1, 358059, Note_off_c, 7, 55, 127
1, 358062, Note_on_c, 6, 54, 127
1, 358062, Note_on_c, 6, 66, 127
1, 358210, Note_off_c, 6, 66, 127
1, 358210, Note_off_c, 6, 54, 127
1, 358213, Note_on_c, 4, 52, 127
1, 358213, Note_on_c, 7, 67, 127
1, 358361, Note_off_c, 7, 67, 127
1, 358361, Note_off_c, 4, 52, 127
1, 358364, Note_on_c, 0, 60, 127
1, 358364, Note_on_c, 10, 69, 127
1, 358512, Note_off_c, 10, 69, 127
1, 358515, Note_on_c, 12, 71, 127
1, 358663, Note_off_c, 12, 71, 127
1, 358666, Note_on_c, 0, 72, 127
1, 358814, Note_off_c, 0, 72, 127
1, 358817, Note_on_c, 2, 62, 127
1, 358965, Note_off_c, 2, 62, 127
1, 358968, Note_on_c, 4, 64, 127
1, 359116, Note_off_c, 4, 64, 127
1, 359119, Note_on_c, 6, 66, 127
1, 359132, Note_off_c, 0, 60, 127
1, 359267, Note_off_c, 6, 66, 127
1, 359269, Note_on_c, 12, 59, 127
1, 359269, Note_on_c, 7, 67, 127
1, 359417, Note_off_c, 7, 67, 127
1, 359420, Note_on_c, 10, 69, 127
1, 359568, Note_off_c, 10, 69, 127
1, 359571, Note_on_c, 12, 71, 127
1, 359719, Note_off_c, 12, 71, 127
1, 359722, Note_on_c, 0, 60, 127
1, 359870, Note_off_c, 0, 60, 127
1, 359873, Note_on_c, 2, 62, 127
1, 360021, Note_off_c, 2, 62, 127
1, 360024, Note_on_c, 4, 64, 127
1, 360037, Note_off_c, 12, 59, 127
1, 360172, Note_off_c, 4, 64, 127
1, 360174, Note_on_c, 10, 57, 127
1, 360174, Note_on_c, 6, 66, 127
1, 360322, Note_off_c, 6, 66, 127
1, 360325, Note_on_c, 7, 67, 127
1, 360473, Note_off_c, 7, 67, 127
1, 360476, Note_on_c, 10, 69, 127
1, 360624, Note_off_c, 10, 69, 127
1, 360627, Note_on_c, 12, 59, 127
1, 360775, Note_off_c, 12, 59, 127
1, 360778, Note_on_c, 3, 63, 127
1, 360926, Note_off_c, 3, 63, 127
1, 360929, Note_on_c, 6, 66, 127
1, 360942, Note_off_c, 10, 57, 127
1, 361077, Note_off_c, 6, 66, 127
1, 361079, Note_on_c, 6, 54, 127
1, 361079, Note_on_c, 10, 69, 127
1, 361227, Note_off_c, 10, 69, 127
1, 361230, Note_on_c, 6, 66, 127
1, 361375, Note_off_c, 6, 54, 127
1, 361378, Note_off_c, 6, 66, 127
1, 361380, Note_on_c, 3, 63, 127
1, 361528, Note_off_c, 3, 63, 127
1, 361531, Note_on_c, 7, 55, 127
1, 361531, Note_on_c, 12, 59, 127
1, 361679, Note_off_c, 12, 59, 127
1, 361682, Note_on_c, 4, 64, 127
1, 361827, Note_off_c, 7, 55, 127
1, 361830, Note_off_c, 4, 64, 127
1, 361832, Note_on_c, 6, 66, 127
1, 361980, Note_off_c, 6, 66, 127
1, 361983, Note_on_c, 4, 52, 127
1, 361983, Note_on_c, 7, 67, 127
1, 362131, Note_off_c, 7, 67, 127
1, 362134, Note_on_c, 6, 66, 127
1, 362279, Note_off_c, 4, 52, 127
1, 362282, Note_off_c, 6, 66, 127
1, 362284, Note_on_c, 4, 64, 127
1, 362432, Note_off_c, 4, 64, 127
1, 362435, Note_on_c, 12, 47, 127
1, 362435, Note_on_c, 8, 68, 127
1, 362583, Note_off_c, 8, 68, 127
1, 362583, Note_off_c, 12, 47, 127
1, 362586, Note_on_c, 0, 48, 127
1, 362586, Note_on_c, 5, 65, 127
1, 362734, Note_off_c, 5, 65, 127
1, 362734, Note_off_c, 0, 48, 127
1, 362737, Note_on_c, 2, 50, 127
1, 362737, Note_on_c, 4, 64, 127
1, 362885, Note_off_c, 4, 64, 127
1, 362885, Note_off_c, 2, 50, 127
1, 362888, Note_on_c, 4, 52, 127
1, 362888, Note_on_c, 2, 62, 127
1, 363036, Note_off_c, 2, 62, 127
1, 363036, Note_off_c, 4, 52, 127
1, 363039, Note_on_c, 6, 54, 127
1, 363039, Note_on_c, 0, 60, 127
1, 363187, Note_off_c, 0, 60, 127
1, 363187, Note_off_c, 6, 54, 127
1, 363190, Note_on_c, 8, 56, 127
1, 363190, Note_on_c, 12, 59, 127
1, 363338, Note_off_c, 12, 59, 127
1, 363338, Note_off_c, 8, 56, 127
1, 363341, Note_on_c, 0, 60, 127
1, 363341, Note_on_c, 10, 57, 127
1, 363341, Note_on_c, 10, 69, 127
1, 363489, Note_off_c, 10, 69, 127
1, 363492, Note_on_c, 0, 72, 127
1, 363637, Note_off_c, 10, 57, 127
1, 363637, Note_off_c, 0, 60, 127
1, 363640, Note_off_c, 0, 72, 127
1, 363642, Note_on_c, 4, 76, 127
1, 363790, Note_off_c, 4, 76, 127
1, 363793, Note_on_c, 4, 52, 127
1, 363793, Note_on_c, 12, 59, 127
1, 363793, Note_on_c, 8, 68, 127
1, 363941, Note_off_c, 8, 68, 127
1, 363944, Note_on_c, 2, 74, 127
1, 364089, Note_off_c, 12, 59, 127
1, 364089, Note_off_c, 4, 52, 127
1, 364092, Note_off_c, 2, 74, 127
1, 364094, Note_on_c, 5, 77, 127
1, 364242, Note_off_c, 5, 77, 127
1, 364245, Note_on_c, 0, 48, 127
1, 364245, Note_on_c, 0, 60, 127
1, 364245, Note_on_c, 10, 69, 127
1, 364393, Note_off_c, 10, 69, 127
1, 364396, Note_on_c, 0, 72, 127
1, 364541, Note_off_c, 0, 60, 127
1, 364541, Note_off_c, 0, 48, 127
1, 364544, Note_off_c, 0, 72, 127
1, 364546, Note_on_c, 4, 76, 127
1, 364694, Note_off_c, 4, 76, 127
1, 364697, Note_on_c, 8, 56, 127
1, 364697, Note_on_c, 4, 52, 127
1, 364697, Note_on_c, 4, 64, 127
1, 364845, Note_off_c, 4, 64, 127
1, 364848, Note_on_c, 12, 71, 127
1, 364993, Note_off_c, 4, 52, 127
1, 364993, Note_off_c, 8, 56, 127
1, 364996, Note_off_c, 12, 71, 127
1, 364998, Note_on_c, 2, 74, 127
1, 365146, Note_off_c, 2, 74, 127
1, 365149, Note_on_c, 0, 60, 127
1, 365149, Note_on_c, 10, 57, 127
1, 365149, Note_on_c, 10, 69, 127
1, 365297, Note_off_c, 10, 69, 127
1, 365297, Note_off_c, 0, 60, 127
1, 365300, Note_on_c, 12, 59, 127
1, 365300, Note_on_c, 12, 71, 127
1, 365445, Note_off_c, 10, 57, 127
1, 365448, Note_off_c, 12, 71, 127
1, 365448, Note_off_c, 12, 59, 127
1, 365450, Note_on_c, 10, 57, 127
1, 365450, Note_on_c, 0, 72, 127
1, 365598, Note_off_c, 0, 72, 127
1, 365598, Note_off_c, 10, 57, 127
1, 365601, Note_on_c, 5, 65, 127
1, 365601, Note_on_c, 12, 59, 127
1, 365601, Note_on_c, 2, 74, 127
1, 365749, Note_off_c, 2, 74, 127
1, 365752, Note_on_c, 4, 76, 127
1, 365897, Note_off_c, 12, 59, 127
1, 365900, Note_off_c, 4, 76, 127
1, 365902, Note_on_c, 5, 77, 127
1, 366050, Note_off_c, 5, 77, 127
1, 366053, Note_on_c, 0, 60, 127
1, 366053, Note_on_c, 7, 67, 127
1, 366201, Note_off_c, 7, 67, 127
1, 366204, Note_on_c, 10, 69, 127
1, 366352, Note_off_c, 10, 69, 127
1, 366355, Note_on_c, 12, 71, 127
1, 366493, Note_off_c, 5, 65, 127
1, 366503, Note_off_c, 12, 71, 127
1, 366506, Note_on_c, 4, 64, 127
1, 366506, Note_on_c, 0, 72, 127
1, 366654, Note_off_c, 0, 72, 127
1, 366657, Note_on_c, 2, 74, 127
1, 366805, Note_off_c, 2, 74, 127
1, 366808, Note_on_c, 12, 59, 127
1, 366808, Note_on_c, 4, 76, 127
1, 366821, Note_off_c, 0, 60, 127
1, 366956, Note_off_c, 4, 76, 127
1, 366956, Note_off_c, 12, 59, 127
1, 366958, Note_on_c, 10, 57, 127
1, 366958, Note_on_c, 5, 65, 127
1, 367106, Note_off_c, 5, 65, 127
1, 367109, Note_on_c, 7, 67, 127
1, 367257, Note_off_c, 7, 67, 127
1, 367260, Note_on_c, 10, 69, 127
1, 367398, Note_off_c, 4, 64, 127
1, 367408, Note_off_c, 10, 69, 127
1, 367411, Note_on_c, 2, 62, 127
1, 367411, Note_on_c, 12, 71, 127
1, 367556, Note_off_c, 10, 57, 127
1, 367559, Note_off_c, 12, 71, 127
1, 367561, Note_on_c, 8, 56, 127
1, 367561, Note_on_c, 0, 72, 127
1, 367709, Note_off_c, 0, 72, 127
1, 367709, Note_off_c, 8, 56, 127
1, 367712, Note_on_c, 6, 54, 127
1, 367712, Note_on_c, 2, 74, 127
1, 367860, Note_off_c, 2, 74, 127
1, 367860, Note_off_c, 6, 54, 127
1, 367863, Note_on_c, 8, 56, 127
1, 367863, Note_on_c, 4, 64, 127
1, 368011, Note_off_c, 4, 64, 127
1, 368014, Note_on_c, 8, 68, 127
1, 368162, Note_off_c, 8, 68, 127
1, 368165, Note_on_c, 12, 71, 127
1, 368303, Note_off_c, 2, 62, 127
1, 368313, Note_off_c, 12, 71, 127
1, 368316, Note_on_c, 12, 59, 127
1, 368316, Note_on_c, 2, 74, 127
1, 368464, Note_off_c, 2, 74, 127
1, 368467, Note_on_c, 12, 71, 127
1, 368615, Note_off_c, 12, 71, 127
1, 368615, Note_off_c, 8, 56, 127
1, 368618, Note_on_c, 4, 52, 127
1, 368618, Note_on_c, 8, 68, 127
1, 368761, Note_off_c, 12, 59, 127
1, 368766, Note_off_c, 8, 68, 127
1, 368766, Note_off_c, 4, 52, 127
1, 368769, Note_on_c, 0, 60, 127
1, 368769, Note_on_c, 10, 57, 127
1, 368769, Note_on_c, 4, 64, 127
1, 368917, Note_off_c, 4, 64, 127
1, 368920, Note_on_c, 10, 69, 127
1, 369068, Note_off_c, 10, 69, 127
1, 369071, Note_on_c, 12, 71, 127
1, 369120, Note_off_c, 10, 57, 127
1, 369120, Note_off_c, 0, 60, 127
1, 369219, Note_off_c, 12, 71, 127
1, 369222, Note_on_c, 10, 57, 127
1, 369222, Note_on_c, 6, 54, 127
1, 369222, Note_on_c, 0, 72, 127
1, 369370, Note_off_c, 0, 72, 127
1, 369373, Note_on_c, 12, 71, 127
1, 369518, Note_off_c, 6, 54, 127
1, 369518, Note_off_c, 10, 57, 127
1, 369521, Note_off_c, 12, 71, 127
1, 369523, Note_on_c, 10, 69, 127
1, 369671, Note_off_c, 10, 69, 127
1, 369674, Note_on_c, 12, 47, 127
1, 369674, Note_on_c, 6, 54, 127
1, 369674, Note_on_c, 3, 75, 127
1, 369822, Note_off_c, 3, 75, 127
1, 369822, Note_off_c, 6, 54, 127
1, 369825, Note_on_c, 7, 55, 127
1, 369825, Note_on_c, 0, 72, 127
1, 369970, Note_off_c, 12, 47, 127
1, 369973, Note_off_c, 0, 72, 127
1, 369973, Note_off_c, 7, 55, 127
1, 369975, Note_on_c, 10, 57, 127
1, 369975, Note_on_c, 12, 71, 127
1, 370123, Note_off_c, 12, 71, 127
1, 370123, Note_off_c, 10, 57, 127
1, 370126, Note_on_c, 12, 59, 127
1, 370126, Note_on_c, 10, 69, 127
1, 370274, Note_off_c, 10, 69, 127
1, 370274, Note_off_c, 12, 59, 127
1, 370277, Note_on_c, 1, 61, 127
1, 370277, Note_on_c, 7, 67, 127
1, 370425, Note_off_c, 7, 67, 127
1, 370425, Note_off_c, 1, 61, 127
1, 370428, Note_on_c, 3, 63, 127
1, 370428, Note_on_c, 6, 66, 127
1, 370576, Note_off_c, 6, 66, 127
1, 370576, Note_off_c, 3, 63, 127
1, 370579, Note_on_c, 7, 67, 127
1, 370579, Note_on_c, 4, 64, 127
1, 370729, Note_on_c, 12, 59, 127
1, 370877, Note_off_c, 12, 59, 127
1, 370880, Note_on_c, 10, 57, 127
1, 371028, Note_off_c, 10, 57, 127
1, 371031, Note_on_c, 7, 55, 127
1, 371179, Note_off_c, 7, 55, 127
1, 371182, Note_on_c, 6, 54, 127
1, 371235, Note_off_c, 4, 64, 127
1, 371235, Note_off_c, 7, 67, 127
1, 371330, Note_off_c, 6, 54, 127
1, 371332, Note_on_c, 4, 52, 127
1, 371480, Note_off_c, 4, 52, 127
1, 371483, Note_on_c, 11, 58, 127
1, 371483, Note_on_c, 1, 61, 127
1, 371483, Note_on_c, 7, 67, 127
1, 371483, Note_on_c, 4, 64, 127
1, 371631, Note_off_c, 11, 58, 127
1, 371634, Note_on_c, 7, 55, 127
1, 371782, Note_off_c, 7, 55, 127
1, 371785, Note_on_c, 5, 53, 127
1, 371933, Note_off_c, 5, 53, 127
1, 371936, Note_on_c, 4, 52, 127
1, 372084, Note_off_c, 4, 52, 127
1, 372087, Note_on_c, 2, 50, 127
1, 372140, Note_off_c, 4, 64, 127
1, 372140, Note_off_c, 7, 67, 127
1, 372140, Note_off_c, 1, 61, 127
1, 372235, Note_off_c, 2, 50, 127
1, 372237, Note_on_c, 1, 49, 127
1, 372385, Note_off_c, 1, 49, 127
1, 372388, Note_on_c, 7, 55, 127
1, 372388, Note_on_c, 4, 64, 127
1, 372388, Note_on_c, 11, 70, 127
1, 372388, Note_on_c, 1, 61, 127
1, 372536, Note_off_c, 7, 55, 127
1, 372539, Note_on_c, 4, 52, 127
1, 372687, Note_off_c, 4, 52, 127
1, 372690, Note_on_c, 2, 50, 127
1, 372838, Note_off_c, 2, 50, 127
1, 372841, Note_on_c, 1, 49, 127
1, 372989, Note_off_c, 1, 49, 127
1, 372992, Note_on_c, 12, 47, 127
1, 373045, Note_off_c, 1, 61, 127
1, 373045, Note_off_c, 11, 70, 127
1, 373045, Note_off_c, 4, 64, 127
1, 373140, Note_off_c, 12, 47, 127
1, 373142, Note_on_c, 10, 45, 127
1, 373292, Note_on_c, 4, 52, 127
1, 373292, Note_on_c, 1, 73, 127
1, 373440, Note_off_c, 1, 73, 127
1, 373440, Note_off_c, 4, 52, 127
1, 373443, Note_on_c, 5, 53, 127
1, 373443, Note_on_c, 11, 70, 127
1, 373586, Note_off_c, 10, 45, 127
1, 373591, Note_off_c, 11, 70, 127
1, 373591, Note_off_c, 5, 53, 127
1, 373594, Note_on_c, 7, 55, 127
1, 373594, Note_on_c, 10, 69, 127
1, 373742, Note_off_c, 10, 69, 127
1, 373742, Note_off_c, 7, 55, 127
1, 373745, Note_on_c, 10, 57, 127
1, 373745, Note_on_c, 7, 67, 127
1, 373893, Note_off_c, 7, 67, 127
1, 373893, Note_off_c, 10, 57, 127
1, 373896, Note_on_c, 12, 59, 127
1, 373896, Note_on_c, 5, 65, 127
1, 374044, Note_off_c, 5, 65, 127
1, 374044, Note_off_c, 12, 59, 127
1, 374047, Note_on_c, 1, 61, 127
1, 374047, Note_on_c, 4, 64, 127
1, 374195, Note_off_c, 4, 64, 127
1, 374195, Note_off_c, 1, 61, 127
1, 374198, Note_on_c, 2, 62, 127
1, 374198, Note_on_c, 5, 65, 127
1, 374348, Note_on_c, 10, 57, 127
1, 374496, Note_off_c, 10, 57, 127
1, 374499, Note_on_c, 7, 55, 127
1, 374647, Note_off_c, 7, 55, 127
1, 374650, Note_on_c, 5, 53, 127
1, 374798, Note_off_c, 5, 53, 127
1, 374801, Note_on_c, 4, 52, 127
1, 374854, Note_off_c, 5, 65, 127
1, 374854, Note_off_c, 2, 62, 127
1, 374949, Note_off_c, 4, 52, 127
1, 374951, Note_on_c, 2, 50, 127
1, 375099, Note_off_c, 2, 50, 127
1, 375102, Note_on_c, 8, 56, 127
1, 375102, Note_on_c, 2, 62, 127
1, 375102, Note_on_c, 12, 59, 127
1, 375102, Note_on_c, 5, 65, 127
1, 375250, Note_off_c, 8, 56, 127
1, 375253, Note_on_c, 5, 53, 127
1, 375401, Note_off_c, 5, 53, 127
1, 375404, Note_on_c, 4, 52, 127
1, 375552, Note_off_c, 4, 52, 127
1, 375555, Note_on_c, 2, 50, 127
1, 375703, Note_off_c, 2, 50, 127
1, 375706, Note_on_c, 0, 48, 127
1, 375759, Note_off_c, 5, 65, 127
1, 375759, Note_off_c, 12, 59, 127
1, 375759, Note_off_c, 2, 62, 127
1, 375854, Note_off_c, 0, 48, 127
1, 375856, Note_on_c, 12, 47, 127
1, 376004, Note_off_c, 12, 47, 127
1, 376007, Note_on_c, 5, 53, 127
1, 376007, Note_on_c, 12, 59, 127
1, 376007, Note_on_c, 8, 68, 127
1, 376007, Note_on_c, 2, 62, 127
1, 376155, Note_off_c, 5, 53, 127
1, 376158, Note_on_c, 2, 50, 127
1, 376306, Note_off_c, 2, 50, 127
1, 376309, Note_on_c, 0, 48, 127
1, 376457, Note_off_c, 0, 48, 127
1, 376460, Note_on_c, 12, 47, 127
1, 376608, Note_off_c, 12, 47, 127
1, 376611, Note_on_c, 10, 45, 127
1, 376664, Note_off_c, 2, 62, 127
1, 376664, Note_off_c, 8, 68, 127
1, 376664, Note_off_c, 12, 59, 127
1, 376759, Note_off_c, 10, 45, 127
1, 376761, Note_on_c, 7, 43, 127
1, 376909, Note_off_c, 7, 43, 127
1, 376912, Note_on_c, 2, 50, 127
1, 376912, Note_on_c, 12, 71, 127
1, 377060, Note_off_c, 12, 71, 127
1, 377060, Note_off_c, 2, 50, 127
1, 377063, Note_on_c, 4, 52, 127
1, 377063, Note_on_c, 8, 68, 127
1, 377211, Note_off_c, 8, 68, 127
1, 377211, Note_off_c, 4, 52, 127
1, 377214, Note_on_c, 5, 53, 127
1, 377214, Note_on_c, 7, 67, 127
1, 377362, Note_off_c, 7, 67, 127
1, 377362, Note_off_c, 5, 53, 127
1, 377365, Note_on_c, 7, 55, 127
1, 377365, Note_on_c, 5, 65, 127
1, 377513, Note_off_c, 5, 65, 127
1, 377513, Note_off_c, 7, 55, 127
1, 377516, Note_on_c, 10, 57, 127
1, 377516, Note_on_c, 4, 64, 127
1, 377664, Note_off_c, 4, 64, 127
1, 377664, Note_off_c, 10, 57, 127
1, 377667, Note_on_c, 12, 59, 127
1, 377667, Note_on_c, 2, 62, 127
1, 377815, Note_off_c, 2, 62, 127
1, 377815, Note_off_c, 12, 59, 127
1, 377818, Note_on_c, 0, 60, 127
1, 377818, Note_on_c, 4, 64, 127
1, 377966, Note_off_c, 4, 64, 127
1, 377966, Note_off_c, 0, 60, 127
1, 377969, Note_on_c, 7, 55, 127
1, 377969, Note_on_c, 7, 67, 127
1, 378117, Note_off_c, 7, 67, 127
1, 378117, Note_off_c, 7, 55, 127
1, 378120, Note_on_c, 4, 52, 127
1, 378120, Note_on_c, 0, 72, 127
1, 378268, Note_off_c, 0, 72, 127
1, 378268, Note_off_c, 4, 52, 127
1, 378271, Note_on_c, 10, 57, 127
1, 378271, Note_on_c, 5, 65, 127
1, 378419, Note_off_c, 5, 65, 127
1, 378419, Note_off_c, 10, 57, 127
1, 378422, Note_on_c, 5, 53, 127
1, 378422, Note_on_c, 10, 69, 127
1, 378570, Note_off_c, 10, 69, 127
1, 378570, Note_off_c, 5, 53, 127
1, 378573, Note_on_c, 2, 50, 127
1, 378573, Note_on_c, 0, 72, 127
1, 378721, Note_off_c, 0, 72, 127
1, 378721, Note_off_c, 2, 50, 127
1, 378724, Note_on_c, 7, 55, 127
1, 378724, Note_on_c, 4, 64, 127
1, 378872, Note_off_c, 4, 64, 127
1, 378872, Note_off_c, 7, 55, 127
1, 378875, Note_on_c, 4, 52, 127
1, 378875, Note_on_c, 7, 67, 127
1, 379023, Note_off_c, 7, 67, 127
1, 379023, Note_off_c, 4, 52, 127
1, 379026, Note_on_c, 0, 48, 127
1, 379026, Note_on_c, 0, 72, 127
1, 379174, Note_off_c, 0, 72, 127
1, 379174, Note_off_c, 0, 48, 127
1, 379177, Note_on_c, 5, 53, 127
1, 379177, Note_on_c, 2, 62, 127
1, 379325, Note_off_c, 2, 62, 127
1, 379325, Note_off_c, 5, 53, 127
1, 379328, Note_on_c, 2, 50, 127
1, 379328, Note_on_c, 5, 65, 127
1, 379476, Note_off_c, 5, 65, 127
1, 379476, Note_off_c, 2, 50, 127
1, 379479, Note_on_c, 7, 43, 127
1, 379479, Note_on_c, 12, 71, 127
1, 379627, Note_off_c, 12, 71, 127
1, 379627, Note_off_c, 7, 43, 127
1, 379630, Note_on_c, 0, 48, 127
1, 379630, Note_on_c, 4, 64, 127
1, 379778, Note_off_c, 4, 64, 127
1, 379778, Note_off_c, 0, 48, 127
1, 379781, Note_on_c, 4, 52, 127
1, 379781, Note_on_c, 7, 67, 127
1, 379929, Note_off_c, 7, 67, 127
1, 379929, Note_off_c, 4, 52, 127
1, 379932, Note_on_c, 7, 55, 127
1, 379932, Note_on_c, 0, 72, 127
1, 380080, Note_off_c, 0, 72, 127
1, 380080, Note_off_c, 7, 55, 127
1, 380083, Note_on_c, 5, 53, 127
1, 380083, Note_on_c, 10, 69, 127
1, 380231, Note_off_c, 10, 69, 127
1, 380231, Note_off_c, 5, 53, 127
1, 380234, Note_on_c, 10, 57, 127
1, 380234, Note_on_c, 7, 67, 127
1, 380382, Note_off_c, 7, 67, 127
1, 380382, Note_off_c, 10, 57, 127
1, 380385, Note_on_c, 0, 60, 127
1, 380385, Note_on_c, 5, 65, 127
1, 380533, Note_off_c, 5, 65, 127
1, 380533, Note_off_c, 0, 60, 127
1, 380536, Note_on_c, 4, 52, 127
1, 380536, Note_on_c, 7, 67, 127
1, 380684, Note_off_c, 7, 67, 127
1, 380684, Note_off_c, 4, 52, 127
1, 380687, Note_on_c, 7, 55, 127
1, 380687, Note_on_c, 5, 65, 127
1, 380835, Note_off_c, 5, 65, 127
1, 380835, Note_off_c, 7, 55, 127
1, 380838, Note_on_c, 0, 60, 127
1, 380838, Note_on_c, 4, 64, 127
1, 380986, Note_off_c, 4, 64, 127
1, 380986, Note_off_c, 0, 60, 127
1, 380989, Note_on_c, 2, 50, 127
1, 380989, Note_on_c, 5, 65, 127
1, 381137, Note_off_c, 5, 65, 127
1, 381137, Note_off_c, 2, 50, 127
1, 381140, Note_on_c, 5, 53, 127
1, 381140, Note_on_c, 4, 64, 127
1, 381288, Note_off_c, 4, 64, 127
1, 381288, Note_off_c, 5, 53, 127
1, 381291, Note_on_c, 12, 59, 127
1, 381291, Note_on_c, 2, 62, 127
1, 381439, Note_off_c, 2, 62, 127
1, 381439, Note_off_c, 12, 59, 127
1, 381442, Note_on_c, 0, 48, 127
1, 381442, Note_on_c, 4, 64, 127
1, 381590, Note_off_c, 4, 64, 127
1, 381593, Note_on_c, 5, 65, 127
1, 381741, Note_off_c, 5, 65, 127
1, 381744, Note_on_c, 7, 67, 127
1, 381887, Note_off_c, 0, 48, 127
1, 381892, Note_off_c, 7, 67, 127
1, 381895, Note_on_c, 0, 60, 127
1, 381895, Note_on_c, 10, 69, 127
1, 382043, Note_off_c, 10, 69, 127
1, 382046, Note_on_c, 12, 71, 127
1, 382194, Note_off_c, 12, 71, 127
1, 382197, Note_on_c, 0, 72, 127
1, 382345, Note_off_c, 0, 72, 127
1, 382348, Note_on_c, 2, 62, 127
1, 382496, Note_off_c, 2, 62, 127
1, 382499, Note_on_c, 4, 64, 127
1, 382647, Note_off_c, 4, 64, 127
1, 382650, Note_on_c, 6, 66, 127
1, 382793, Note_off_c, 0, 60, 127
1, 382798, Note_off_c, 6, 66, 127
1, 382801, Note_on_c, 12, 59, 127
1, 382801, Note_on_c, 7, 67, 127
1, 382949, Note_off_c, 7, 67, 127
1, 382949, Note_off_c, 12, 59, 127
1, 382952, Note_on_c, 0, 60, 127
1, 382952, Note_on_c, 10, 69, 127
1, 383100, Note_off_c, 10, 69, 127
1, 383100, Note_off_c, 0, 60, 127
1, 383103, Note_on_c, 2, 62, 127
1, 383103, Note_on_c, 12, 71, 127
1, 383251, Note_off_c, 12, 71, 127
1, 383251, Note_off_c, 2, 62, 127
1, 383254, Note_on_c, 4, 64, 127
1, 383254, Note_on_c, 0, 72, 127
1, 383402, Note_off_c, 0, 72, 127
1, 383402, Note_off_c, 4, 64, 127
1, 383405, Note_on_c, 6, 66, 127
1, 383405, Note_on_c, 2, 74, 127
1, 383553, Note_off_c, 2, 74, 127
1, 383553, Note_off_c, 6, 66, 127
1, 383556, Note_on_c, 7, 67, 127
1, 383556, Note_on_c, 4, 76, 127
1, 383704, Note_off_c, 4, 76, 127
1, 383704, Note_off_c, 7, 67, 127
1, 383707, Note_on_c, 6, 66, 127
1, 383707, Note_on_c, 2, 74, 127
1, 383855, Note_off_c, 2, 74, 127
1, 383855, Note_off_c, 6, 66, 127
1, 383858, Note_on_c, 7, 67, 127
1, 383858, Note_on_c, 4, 76, 127
1, 384006, Note_off_c, 4, 76, 127
1, 384006, Note_off_c, 7, 67, 127
1, 384009, Note_on_c, 10, 69, 127
1, 384009, Note_on_c, 0, 72, 127
1, 384157, Note_off_c, 0, 72, 127
1, 384157, Note_off_c, 10, 69, 127
1, 384160, Note_on_c, 7, 55, 127
1, 384160, Note_on_c, 12, 71, 127
1, 384160, Note_on_c, 7, 67, 127
1, 384308, Note_off_c, 7, 55, 127
1, 384311, Note_on_c, 12, 59, 127
1, 384456, Note_off_c, 7, 67, 127
1, 384456, Note_off_c, 12, 71, 127
1, 384459, Note_off_c, 12, 59, 127
1, 384461, Note_on_c, 2, 62, 127
1, 384609, Note_off_c, 2, 62, 127
1, 384612, Note_on_c, 6, 54, 127
1, 384612, Note_on_c, 0, 72, 127
1, 384612, Note_on_c, 10, 69, 127
1, 384760, Note_off_c, 6, 54, 127
1, 384763, Note_on_c, 0, 60, 127
1, 384908, Note_off_c, 10, 69, 127
1, 384908, Note_off_c, 0, 72, 127
1, 384911, Note_off_c, 0, 60, 127
1, 384913, Note_on_c, 4, 64, 127
1, 385061, Note_off_c, 4, 64, 127
1, 385064, Note_on_c, 7, 55, 127
1, 385064, Note_on_c, 12, 71, 127
1, 385064, Note_on_c, 7, 67, 127
1, 385212, Note_off_c, 7, 55, 127
1, 385215, Note_on_c, 12, 59, 127
1, 385360, Note_off_c, 7, 67, 127
1, 385360, Note_off_c, 12, 71, 127
1, 385363, Note_off_c, 12, 59, 127
1, 385365, Note_on_c, 2, 62, 127
1, 385513, Note_off_c, 2, 62, 127
1, 385516, Note_on_c, 2, 50, 127
1, 385516, Note_on_c, 10, 69, 127
1, 385516, Note_on_c, 6, 66, 127
1, 385664, Note_off_c, 2, 50, 127
1, 385667, Note_on_c, 10, 57, 127
1, 385812, Note_off_c, 6, 66, 127
1, 385812, Note_off_c, 10, 69, 127
1, 385815, Note_off_c, 10, 57, 127
1, 385817, Note_on_c, 0, 60, 127
1, 385965, Note_off_c, 0, 60, 127
1, 385968, Note_on_c, 12, 59, 127
1, 385968, Note_on_c, 7, 67, 127
1, 385968, Note_on_c, 2, 62, 127
1, 386116, Note_off_c, 7, 67, 127
1, 386119, Note_on_c, 12, 71, 127
1, 386264, Note_off_c, 2, 62, 127
1, 386264, Note_off_c, 12, 59, 127
1, 386267, Note_off_c, 12, 71, 127
1, 386269, Note_on_c, 2, 74, 127
1, 386417, Note_off_c, 2, 74, 127
1, 386420, Note_on_c, 0, 60, 127
1, 386420, Note_on_c, 10, 57, 127
1, 386420, Note_on_c, 6, 66, 127
1, 386568, Note_off_c, 6, 66, 127
1, 386571, Note_on_c, 0, 72, 127
1, 386716, Note_off_c, 10, 57, 127
1, 386716, Note_off_c, 0, 60, 127
1, 386719, Note_off_c, 0, 72, 127
1, 386721, Note_on_c, 4, 76, 127
1, 386869, Note_off_c, 4, 76, 127
1, 386872, Note_on_c, 12, 59, 127
1, 386872, Note_on_c, 2, 62, 127
1, 386872, Note_on_c, 7, 67, 127
1, 387020, Note_off_c, 7, 67, 127
1, 387023, Note_on_c, 12, 71, 127
1, 387168, Note_off_c, 2, 62, 127
1, 387168, Note_off_c, 12, 59, 127
1, 387171, Note_off_c, 12, 71, 127
1, 387173, Note_on_c, 2, 74, 127
1, 387321, Note_off_c, 2, 74, 127
1, 387324, Note_on_c, 6, 54, 127
1, 387324, Note_on_c, 10, 57, 127
1, 387324, Note_on_c, 2, 62, 127
1, 387472, Note_off_c, 2, 62, 127
1, 387475, Note_on_c, 10, 69, 127
1, 387620, Note_off_c, 10, 57, 127
1, 387620, Note_off_c, 6, 54, 127
1, 387623, Note_off_c, 10, 69, 127
1, 387625, Note_on_c, 0, 72, 127
1, 387773, Note_off_c, 0, 72, 127
1, 387776, Note_on_c, 7, 55, 127
1, 387776, Note_on_c, 12, 59, 127
1, 387776, Note_on_c, 2, 62, 127
1, 387924, Note_off_c, 2, 62, 127
1, 387927, Note_on_c, 7, 67, 127
1, 388075, Note_off_c, 7, 67, 127
1, 388078, Note_on_c, 12, 71, 127
1, 388103, Note_off_c, 12, 59, 127
1, 388103, Note_off_c, 7, 55, 127
1, 388226, Note_off_c, 12, 71, 127
1, 388228, Note_on_c, 6, 54, 127
1, 388228, Note_on_c, 10, 57, 127
1, 388228, Note_on_c, 3, 63, 127
1, 388376, Note_off_c, 3, 63, 127
1, 388379, Note_on_c, 10, 69, 127
1, 388527, Note_off_c, 10, 69, 127
1, 388530, Note_on_c, 0, 72, 127
1, 388555, Note_off_c, 10, 57, 127
1, 388555, Note_off_c, 6, 54, 127
1, 388678, Note_off_c, 0, 72, 127
1, 388680, Note_on_c, 7, 55, 127
1, 388680, Note_on_c, 12, 59, 127
1, 388680, Note_on_c, 4, 64, 127
1, 388828, Note_off_c, 4, 64, 127
1, 388831, Note_on_c, 7, 67, 127
1, 388979, Note_off_c, 7, 67, 127
1, 388982, Note_on_c, 12, 71, 127
1, 389007, Note_off_c, 12, 59, 127
1, 389007, Note_off_c, 7, 55, 127
1, 389130, Note_off_c, 12, 71, 127
1, 389132, Note_on_c, 3, 51, 127
1, 389132, Note_on_c, 6, 54, 127
1, 389132, Note_on_c, 12, 59, 127
1, 389280, Note_off_c, 12, 59, 127
1, 389283, Note_on_c, 6, 66, 127
1, 389431, Note_off_c, 6, 66, 127
1, 389434, Note_on_c, 10, 69, 127
1, 389436, Note_off_c, 6, 54, 127
1, 389436, Note_off_c, 3, 51, 127
1, 389582, Note_off_c, 10, 69, 127
1, 389585, Note_on_c, 4, 52, 127
1, 389585, Note_on_c, 7, 67, 127
1, 389585, Note_on_c, 4, 64, 127
1, 389733, Note_off_c, 4, 52, 127
1, 389736, Note_on_c, 7, 55, 127
1, 389881, Note_off_c, 4, 64, 127
1, 389881, Note_off_c, 7, 67, 127
1, 389884, Note_off_c, 7, 55, 127
1, 389886, Note_on_c, 12, 59, 127
1, 390034, Note_off_c, 12, 59, 127
1, 390037, Note_on_c, 3, 51, 127
1, 390037, Note_on_c, 10, 69, 127
1, 390037, Note_on_c, 6, 66, 127
1, 390185, Note_off_c, 3, 51, 127
1, 390188, Note_on_c, 10, 57, 127
1, 390333, Note_off_c, 6, 66, 127
1, 390333, Note_off_c, 10, 69, 127
1, 390336, Note_off_c, 10, 57, 127
1, 390338, Note_on_c, 0, 60, 127
1, 390486, Note_off_c, 0, 60, 127
1, 390489, Note_on_c, 4, 52, 127
1, 390489, Note_on_c, 7, 67, 127
1, 390489, Note_on_c, 4, 64, 127
1, 390637, Note_off_c, 4, 52, 127
1, 390640, Note_on_c, 7, 55, 127
1, 390785, Note_off_c, 4, 64, 127
1, 390785, Note_off_c, 7, 67, 127
1, 390788, Note_off_c, 7, 55, 127
1, 390790, Note_on_c, 12, 59, 127
1, 390938, Note_off_c, 12, 59, 127
1, 390941, Note_on_c, 12, 47, 127
1, 390941, Note_on_c, 3, 63, 127
1, 390941, Note_on_c, 6, 66, 127
1, 391089, Note_off_c, 12, 47, 127
1, 391092, Note_on_c, 6, 54, 127
1, 391237, Note_off_c, 6, 66, 127
1, 391237, Note_off_c, 3, 63, 127
1, 391240, Note_off_c, 6, 54, 127
1, 391242, Note_on_c, 10, 57, 127
1, 391390, Note_off_c, 10, 57, 127
1, 391393, Note_on_c, 4, 64, 127
1, 391393, Note_on_c, 12, 59, 127
1, 391393, Note_on_c, 7, 55, 127
1, 391393, Note_on_c, 4, 76, 127
1, 391541, Note_off_c, 4, 76, 127
1, 391544, Note_on_c, 7, 79, 127
1, 391692, Note_off_c, 7, 79, 127
1, 391695, Note_on_c, 12, 83, 127
1, 391755, Note_off_c, 7, 55, 127
1, 391755, Note_off_c, 12, 59, 127
1, 391755, Note_off_c, 4, 64, 127
1, 391843, Note_off_c, 12, 83, 127
1, 391845, Note_on_c, 0, 60, 127
1, 391845, Note_on_c, 10, 57, 127
1, 391845, Note_on_c, 6, 66, 127
1, 391845, Note_on_c, 3, 75, 127
1, 391993, Note_off_c, 3, 75, 127
1, 391996, Note_on_c, 10, 81, 127
1, 392144, Note_off_c, 10, 81, 127
1, 392147, Note_on_c, 0, 84, 127
1, 392231, Note_off_c, 6, 66, 127
1, 392231, Note_off_c, 10, 57, 127
1, 392231, Note_off_c, 0, 60, 127
1, 392295, Note_off_c, 0, 84, 127
1, 392298, Note_on_c, 7, 67, 127
1, 392298, Note_on_c, 12, 59, 127
1, 392298, Note_on_c, 4, 76, 127
1, 392446, Note_off_c, 4, 76, 127
1, 392449, Note_on_c, 7, 79, 127
1, 392597, Note_off_c, 7, 79, 127
1, 392600, Note_on_c, 12, 83, 127
1, 392707, Note_off_c, 12, 59, 127
1, 392707, Note_off_c, 7, 67, 127
1, 392748, Note_off_c, 12, 83, 127
1, 392750, Note_on_c, 12, 59, 127
1, 392750, Note_on_c, 3, 63, 127
1, 392750, Note_on_c, 12, 71, 127
1, 392898, Note_off_c, 12, 71, 127
1, 392901, Note_on_c, 6, 78, 127
1, 393049, Note_off_c, 6, 78, 127
1, 393052, Note_on_c, 10, 81, 127
1, 393183, Note_off_c, 3, 63, 127
1, 393183, Note_off_c, 12, 59, 127
1, 393200, Note_off_c, 10, 81, 127
1, 393203, Note_on_c, 7, 55, 127
1, 393203, Note_on_c, 12, 59, 127
1, 393203, Note_on_c, 4, 76, 127
1, 393351, Note_off_c, 4, 76, 127
1, 393351, Note_off_c, 12, 59, 127
1, 393354, Note_on_c, 10, 57, 127
1, 393354, Note_on_c, 6, 78, 127
1, 393502, Note_off_c, 6, 78, 127
1, 393502, Note_off_c, 10, 57, 127
1, 393505, Note_on_c, 12, 59, 127
1, 393505, Note_on_c, 7, 79, 127
1, 393653, Note_off_c, 7, 79, 127
1, 393653, Note_off_c, 12, 59, 127
1, 393656, Note_on_c, 0, 60, 127
1, 393656, Note_on_c, 10, 81, 127
1, 393742, Note_off_c, 7, 55, 127
1, 393804, Note_off_c, 10, 81, 127
1, 393806, Note_on_c, 6, 54, 127
1, 393806, Note_on_c, 12, 83, 127
1, 393954, Note_off_c, 12, 83, 127
1, 393954, Note_off_c, 6, 54, 127
1, 393957, Note_on_c, 4, 52, 127
1, 393957, Note_on_c, 0, 84, 127
1, 394105, Note_off_c, 0, 84, 127
1, 394105, Note_off_c, 4, 52, 127
1, 394108, Note_on_c, 6, 54, 127
1, 394108, Note_on_c, 2, 74, 127
1, 394194, Note_off_c, 0, 60, 127
1, 394256, Note_off_c, 2, 74, 127
1, 394258, Note_on_c, 12, 59, 127
1, 394258, Note_on_c, 4, 76, 127
1, 394406, Note_off_c, 4, 76, 127
1, 394406, Note_off_c, 12, 59, 127
1, 394409, Note_on_c, 10, 57, 127
1, 394409, Note_on_c, 6, 78, 127
1, 394557, Note_off_c, 6, 78, 127
1, 394557, Note_off_c, 10, 57, 127
1, 394560, Note_on_c, 12, 59, 127
1, 394560, Note_on_c, 7, 79, 127
1, 394646, Note_off_c, 6, 54, 127
1, 394708, Note_off_c, 7, 79, 127
1, 394710, Note_on_c, 4, 52, 127
1, 394710, Note_on_c, 10, 81, 127
1, 394858, Note_off_c, 10, 81, 127
1, 394858, Note_off_c, 4, 52, 127
1, 394861, Note_on_c, 2, 50, 127
1, 394861, Note_on_c, 12, 83, 127
1, 395009, Note_off_c, 12, 83, 127
1, 395009, Note_off_c, 2, 50, 127
1, 395012, Note_on_c, 4, 52, 127
1, 395012, Note_on_c, 0, 72, 127
1, 395098, Note_off_c, 12, 59, 127
1, 395160, Note_off_c, 0, 72, 127
1, 395162, Note_on_c, 10, 57, 127
1, 395162, Note_on_c, 2, 74, 127
1, 395310, Note_off_c, 2, 74, 127
1, 395310, Note_off_c, 10, 57, 127
1, 395313, Note_on_c, 7, 55, 127
1, 395313, Note_on_c, 4, 76, 127
1, 395461, Note_off_c, 4, 76, 127
1, 395461, Note_off_c, 7, 55, 127
1, 395464, Note_on_c, 10, 57, 127
1, 395464, Note_on_c, 6, 78, 127
1, 395550, Note_off_c, 4, 52, 127
1, 395612, Note_off_c, 6, 78, 127
1, 395614, Note_on_c, 3, 51, 127
1, 395614, Note_on_c, 7, 79, 127
1, 395762, Note_off_c, 7, 79, 127
1, 395762, Note_off_c, 3, 51, 127
1, 395765, Note_on_c, 1, 49, 127
1, 395765, Note_on_c, 10, 81, 127
1, 395913, Note_off_c, 10, 81, 127
1, 395913, Note_off_c, 1, 49, 127
1, 395916, Note_on_c, 3, 51, 127
1, 395916, Note_on_c, 12, 71, 127
1, 396002, Note_off_c, 10, 57, 127
1, 396064, Note_off_c, 12, 71, 127
1, 396064, Note_off_c, 3, 51, 127
1, 396066, Note_on_c, 12, 47, 127
1, 396066, Note_on_c, 3, 75, 127
1, 396214, Note_off_c, 3, 75, 127
1, 396214, Note_off_c, 12, 47, 127
1, 396217, Note_on_c, 3, 51, 127
1, 396217, Note_on_c, 6, 78, 127
1, 396365, Note_off_c, 6, 78, 127
1, 396365, Note_off_c, 3, 51, 127
1, 396368, Note_on_c, 6, 54, 127
1, 396368, Note_on_c, 10, 81, 127
1, 396516, Note_off_c, 10, 81, 127
1, 396516, Note_off_c, 6, 54, 127
1, 396519, Note_on_c, 3, 51, 127
1, 396519, Note_on_c, 6, 78, 127
1, 396667, Note_off_c, 6, 78, 127
1, 396667, Note_off_c, 3, 51, 127
1, 396670, Note_on_c, 6, 54, 127
1, 396670, Note_on_c, 3, 75, 127
1, 396818, Note_off_c, 3, 75, 127
1, 396818, Note_off_c, 6, 54, 127
1, 396821, Note_on_c, 7, 55, 127
1, 396821, Note_on_c, 12, 71, 127
1, 396969, Note_off_c, 12, 71, 127
1, 396969, Note_off_c, 7, 55, 127
1, 396972, Note_on_c, 12, 59, 127
1, 396972, Note_on_c, 4, 76, 127
1, 397120, Note_off_c, 4, 76, 127
1, 397120, Note_off_c, 12, 59, 127
1, 397123, Note_on_c, 10, 57, 127
1, 397123, Note_on_c, 6, 78, 127
1, 397271, Note_off_c, 6, 78, 127
1, 397271, Note_off_c, 10, 57, 127
1, 397274, Note_on_c, 12, 59, 127
1, 397274, Note_on_c, 7, 79, 127
1, 397422, Note_off_c, 7, 79, 127
1, 397422, Note_off_c, 12, 59, 127
1, 397425, Note_on_c, 10, 57, 127
1, 397425, Note_on_c, 6, 78, 127
1, 397573, Note_off_c, 6, 78, 127
1, 397573, Note_off_c, 10, 57, 127
1, 397576, Note_on_c, 7, 55, 127
1, 397576, Note_on_c, 4, 76, 127
1, 397724, Note_off_c, 4, 76, 127
1, 397724, Note_off_c, 7, 55, 127
1, 397727, Note_on_c, 6, 54, 127
1, 397727, Note_on_c, 12, 71, 127
1, 397875, Note_off_c, 12, 71, 127
1, 397875, Note_off_c, 6, 54, 127
1, 397878, Note_on_c, 10, 57, 127
1, 397878, Note_on_c, 3, 75, 127
1, 398026, Note_off_c, 3, 75, 127
1, 398026, Note_off_c, 10, 57, 127
1, 398029, Note_on_c, 7, 55, 127
1, 398029, Note_on_c, 4, 76, 127
1, 398177, Note_off_c, 4, 76, 127
1, 398177, Note_off_c, 7, 55, 127
1, 398180, Note_on_c, 10, 57, 127
1, 398180, Note_on_c, 6, 78, 127
1, 398328, Note_off_c, 6, 78, 127
1, 398328, Note_off_c, 10, 57, 127
1, 398331, Note_on_c, 7, 55, 127
1, 398331, Note_on_c, 4, 76, 127
1, 398479, Note_off_c, 4, 76, 127
1, 398479, Note_off_c, 7, 55, 127
1, 398482, Note_on_c, 6, 54, 127
1, 398482, Note_on_c, 3, 75, 127
1, 398630, Note_off_c, 3, 75, 127
1, 398630, Note_off_c, 6, 54, 127
1, 398633, Note_on_c, 4, 52, 127
1, 398633, Note_on_c, 7, 67, 127
1, 398781, Note_off_c, 7, 67, 127
1, 398781, Note_off_c, 4, 52, 127
1, 398784, Note_on_c, 6, 54, 127
1, 398784, Note_on_c, 12, 71, 127
1, 398932, Note_off_c, 12, 71, 127
1, 398932, Note_off_c, 6, 54, 127
1, 398935, Note_on_c, 7, 55, 127
1, 398935, Note_on_c, 4, 76, 127
1, 399083, Note_off_c, 4, 76, 127
1, 399083, Note_off_c, 7, 55, 127
1, 399086, Note_on_c, 10, 57, 127
1, 399086, Note_on_c, 6, 66, 127
1, 399234, Note_off_c, 6, 66, 127
1, 399234, Note_off_c, 10, 57, 127
1, 399237, Note_on_c, 12, 59, 127
1, 399237, Note_on_c, 12, 71, 127
1, 399385, Note_off_c, 12, 71, 127
1, 399385, Note_off_c, 12, 59, 127
1, 399388, Note_on_c, 10, 57, 127
1, 399388, Note_on_c, 3, 75, 127
1, 399536, Note_off_c, 3, 75, 127
1, 399536, Note_off_c, 10, 57, 127
1, 399539, Note_on_c, 8, 56, 127
1, 399539, Note_on_c, 4, 64, 127
1, 399687, Note_off_c, 4, 64, 127
1, 399690, Note_on_c, 12, 71, 127
1, 399838, Note_off_c, 12, 71, 127
1, 399841, Note_on_c, 0, 72, 127
1, 399989, Note_off_c, 0, 72, 127
1, 399992, Note_on_c, 2, 74, 127
1, 400140, Note_off_c, 2, 74, 127
1, 400143, Note_on_c, 0, 72, 127
1, 400196, Note_off_c, 8, 56, 127
1, 400291, Note_off_c, 0, 72, 127
1, 400293, Note_on_c, 12, 71, 127
1, 400441, Note_off_c, 12, 71, 127
1, 400444, Note_on_c, 10, 57, 127
1, 400444, Note_on_c, 4, 64, 127
1, 400592, Note_off_c, 4, 64, 127
1, 400595, Note_on_c, 10, 69, 127
1, 400743, Note_off_c, 10, 69, 127
1, 400746, Note_on_c, 12, 71, 127
1, 400894, Note_off_c, 12, 71, 127
1, 400897, Note_on_c, 0, 72, 127
1, 401045, Note_off_c, 0, 72, 127
1, 401048, Note_on_c, 12, 71, 127
1, 401101, Note_off_c, 10, 57, 127
1, 401196, Note_off_c, 12, 71, 127
1, 401198, Note_on_c, 10, 69, 127
1, 401346, Note_off_c, 10, 69, 127
1, 401349, Note_on_c, 2, 50, 127
1, 401349, Note_on_c, 12, 71, 127
1, 401497, Note_off_c, 12, 71, 127
1, 401500, Note_on_c, 2, 62, 127
1, 401648, Note_off_c, 2, 62, 127
1, 401651, Note_on_c, 4, 64, 127
1, 401723, Note_off_c, 2, 50, 127
1, 401799, Note_off_c, 4, 64, 127
1, 401801, Note_on_c, 12, 47, 127
1, 401801, Note_on_c, 5, 65, 127
1, 401949, Note_off_c, 5, 65, 127
1, 401952, Note_on_c, 4, 64, 127
1, 402100, Note_off_c, 4, 64, 127
1, 402103, Note_on_c, 2, 62, 127
1, 402175, Note_off_c, 12, 47, 127
1, 402251, Note_off_c, 2, 62, 127
1, 402253, Note_on_c, 0, 48, 127
1, 402253, Note_on_c, 10, 69, 127
1, 402401, Note_off_c, 10, 69, 127
1, 402404, Note_on_c, 0, 60, 127
1, 402552, Note_off_c, 0, 60, 127
1, 402555, Note_on_c, 2, 62, 127
1, 402627, Note_off_c, 0, 48, 127
1, 402703, Note_off_c, 2, 62, 127
1, 402705, Note_on_c, 10, 45, 127
1, 402705, Note_on_c, 4, 64, 127
1, 402853, Note_off_c, 4, 64, 127
1, 402856, Note_on_c, 2, 62, 127
1, 403004, Note_off_c, 2, 62, 127
1, 403007, Note_on_c, 0, 60, 127
1, 403079, Note_off_c, 10, 45, 127
1, 403155, Note_off_c, 0, 60, 127
1, 403157, Note_on_c, 12, 47, 127
1, 403157, Note_on_c, 8, 68, 127
1, 403305, Note_off_c, 8, 68, 127
1, 403308, Note_on_c, 12, 59, 127
1, 403456, Note_off_c, 12, 59, 127
1, 403459, Note_on_c, 0, 60, 127
1, 403555, Note_off_c, 12, 47, 127
1, 403607, Note_off_c, 0, 60, 127
1, 403610, Note_on_c, 4, 40, 127
1, 403610, Note_on_c, 2, 62, 127
1, 403758, Note_off_c, 2, 62, 127
1, 403761, Note_on_c, 0, 60, 127
1, 403909, Note_off_c, 0, 60, 127
1, 403912, Note_on_c, 12, 59, 127
1, 404031, Note_off_c, 4, 40, 127
1, 404060, Note_off_c, 12, 59, 127
1, 404062, Note_on_c, 10, 45, 127
1, 404062, Note_on_c, 0, 60, 127
1, 404210, Note_off_c, 0, 60, 127
1, 404213, Note_on_c, 4, 64, 127
1, 404361, Note_off_c, 4, 64, 127
1, 404364, Note_on_c, 10, 69, 127
1, 404512, Note_off_c, 10, 69, 127
1, 404515, Note_on_c, 2, 62, 127
1, 404663, Note_off_c, 2, 62, 127
1, 404666, Note_on_c, 8, 68, 127
1, 404814, Note_off_c, 8, 68, 127
1, 404817, Note_on_c, 12, 71, 127
1, 404955, Note_off_c, 10, 45, 127
1, 404965, Note_off_c, 12, 71, 127
1, 404968, Note_on_c, 10, 45, 127
1, 404968, Note_on_c, 4, 64, 127
1, 405116, Note_off_c, 4, 64, 127
1, 405119, Note_on_c, 10, 69, 127
1, 405267, Note_off_c, 10, 69, 127
1, 405270, Note_on_c, 0, 72, 127
1, 405401, Note_off_c, 10, 45, 127
1, 405418, Note_off_c, 0, 72, 127
1, 405421, Note_on_c, 12, 47, 127
1, 405421, Note_on_c, 8, 68, 127
1, 405569, Note_off_c, 8, 68, 127
1, 405572, Note_on_c, 12, 71, 127
1, 405720, Note_off_c, 12, 71, 127
1, 405723, Note_on_c, 2, 74, 127
1, 405854, Note_off_c, 12, 47, 127
1, 405871, Note_off_c, 2, 74, 127
1, 405874, Note_on_c, 0, 48, 127
1, 405874, Note_on_c, 10, 69, 127
1, 406022, Note_off_c, 10, 69, 127
1, 406025, Note_on_c, 0, 72, 127
1, 406173, Note_off_c, 0, 72, 127
1, 406176, Note_on_c, 2, 74, 127
1, 406324, Note_off_c, 2, 74, 127
1, 406327, Note_on_c, 4, 76, 127
1, 406475, Note_off_c, 4, 76, 127
1, 406478, Note_on_c, 2, 74, 127
1, 406626, Note_off_c, 2, 74, 127
1, 406629, Note_on_c, 0, 72, 127
1, 406642, Note_off_c, 0, 48, 127
1, 406777, Note_off_c, 0, 72, 127
1, 406779, Note_on_c, 2, 50, 127
1, 406779, Note_on_c, 5, 77, 127
1, 406927, Note_off_c, 5, 77, 127
1, 406930, Note_on_c, 4, 76, 127
1, 407078, Note_off_c, 4, 76, 127
1, 407081, Note_on_c, 2, 74, 127
1, 407229, Note_off_c, 2, 74, 127
1, 407232, Note_on_c, 0, 72, 127
1, 407380, Note_off_c, 0, 72, 127
1, 407383, Note_on_c, 12, 71, 127
1, 407531, Note_off_c, 12, 71, 127
1, 407534, Note_on_c, 10, 69, 127
1, 407547, Note_off_c, 2, 50, 127
1, 407682, Note_off_c, 10, 69, 127
1, 407684, Note_on_c, 4, 52, 127
1, 407684, Note_on_c, 8, 80, 127
1, 407832, Note_off_c, 8, 80, 127
1, 407835, Note_on_c, 5, 77, 127
1, 407983, Note_off_c, 5, 77, 127
1, 407986, Note_on_c, 4, 76, 127
1, 408134, Note_off_c, 4, 76, 127
1, 408137, Note_on_c, 2, 74, 127
1, 408285, Note_off_c, 2, 74, 127
1, 408288, Note_on_c, 0, 72, 127
1, 408341, Note_off_c, 4, 52, 127
1, 408436, Note_off_c, 0, 72, 127
1, 408438, Note_on_c, 12, 71, 127
1, 408586, Note_off_c, 12, 71, 127
1, 408589, Note_on_c, 6, 54, 127
1, 408589, Note_on_c, 10, 81, 127
1, 408737, Note_off_c, 10, 81, 127
1, 408740, Note_on_c, 5, 77, 127
1, 408888, Note_off_c, 5, 77, 127
1, 408891, Note_on_c, 4, 76, 127
1, 409039, Note_off_c, 4, 76, 127
1, 409042, Note_on_c, 2, 74, 127
1, 409190, Note_off_c, 2, 74, 127
1, 409193, Note_on_c, 0, 72, 127
1, 409246, Note_off_c, 6, 54, 127
1, 409341, Note_off_c, 0, 72, 127
1, 409343, Note_on_c, 12, 71, 127
1, 409491, Note_off_c, 12, 71, 127
1, 409494, Note_on_c, 8, 56, 127
1, 409494, Note_on_c, 12, 83, 127
1, 409642, Note_off_c, 12, 83, 127
1, 409645, Note_on_c, 5, 77, 127
1, 409793, Note_off_c, 5, 77, 127
1, 409796, Note_on_c, 4, 76, 127
1, 409944, Note_off_c, 4, 76, 127
1, 409947, Note_on_c, 2, 74, 127
1, 410095, Note_off_c, 2, 74, 127
1, 410098, Note_on_c, 0, 72, 127
1, 410151, Note_off_c, 8, 56, 127
1, 410246, Note_off_c, 0, 72, 127
1, 410248, Note_on_c, 12, 71, 127
1, 410396, Note_off_c, 12, 71, 127
1, 410399, Note_on_c, 10, 57, 127
1, 410399, Note_on_c, 10, 69, 127
1, 410399, Note_on_c, 0, 84, 127
1, 410547, Note_off_c, 10, 69, 127
1, 410550, Note_on_c, 0, 72, 127
1, 410695, Note_off_c, 0, 84, 127
1, 410695, Note_off_c, 10, 57, 127
1, 410698, Note_off_c, 0, 72, 127
1, 410700, Note_on_c, 4, 76, 127
1, 410848, Note_off_c, 4, 76, 127
1, 410851, Note_on_c, 2, 62, 127
1, 410851, Note_on_c, 8, 68, 127
1, 410851, Note_on_c, 12, 83, 127
1, 410999, Note_off_c, 8, 68, 127
1, 411002, Note_on_c, 2, 74, 127
1, 411147, Note_off_c, 12, 83, 127
1, 411147, Note_off_c, 2, 62, 127
1, 411150, Note_off_c, 2, 74, 127
1, 411152, Note_on_c, 5, 77, 127
1, 411300, Note_off_c, 5, 77, 127
1, 411303, Note_on_c, 0, 60, 127
1, 411303, Note_on_c, 10, 69, 127
1, 411303, Note_on_c, 10, 81, 127
1, 411451, Note_off_c, 10, 69, 127
1, 411454, Note_on_c, 0, 72, 127
1, 411599, Note_off_c, 10, 81, 127
1, 411599, Note_off_c, 0, 60, 127
1, 411602, Note_off_c, 0, 72, 127
1, 411604, Note_on_c, 4, 76, 127
1, 411752, Note_off_c, 4, 76, 127
1, 411755, Note_on_c, 12, 59, 127
1, 411755, Note_on_c, 4, 64, 127
1, 411755, Note_on_c, 8, 80, 127
1, 411903, Note_off_c, 4, 64, 127
1, 411906, Note_on_c, 12, 71, 127
1, 412051, Note_off_c, 8, 80, 127
1, 412051, Note_off_c, 12, 59, 127
1, 412054, Note_off_c, 12, 71, 127
1, 412056, Note_on_c, 2, 74, 127
1, 412204, Note_off_c, 2, 74, 127
1, 412207, Note_on_c, 0, 60, 127
1, 412207, Note_on_c, 10, 69, 127
1, 412207, Note_on_c, 10, 81, 127
1, 412355, Note_off_c, 10, 69, 127
1, 412358, Note_on_c, 12, 71, 127
1, 412506, Note_off_c, 12, 71, 127
1, 412509, Note_on_c, 0, 72, 127
1, 412581, Note_off_c, 0, 60, 127
1, 412657, Note_off_c, 0, 72, 127
1, 412659, Note_on_c, 5, 65, 127
1, 412659, Note_on_c, 2, 74, 127
1, 412807, Note_off_c, 2, 74, 127
1, 412810, Note_on_c, 4, 76, 127
1, 412958, Note_off_c, 4, 76, 127
1, 412961, Note_on_c, 5, 77, 127
1, 413104, Note_off_c, 10, 81, 127
1, 413109, Note_off_c, 5, 77, 127
1, 413112, Note_on_c, 7, 67, 127
1, 413112, Note_on_c, 12, 71, 127
1, 413260, Note_off_c, 12, 71, 127
1, 413260, Note_off_c, 7, 67, 127
1, 413263, Note_on_c, 10, 69, 127
1, 413263, Note_on_c, 0, 72, 127
1, 413411, Note_off_c, 0, 72, 127
1, 413411, Note_off_c, 10, 69, 127
1, 413414, Note_on_c, 12, 71, 127
1, 413414, Note_on_c, 2, 74, 127
1, 413528, Note_off_c, 5, 65, 127
1, 413562, Note_off_c, 2, 74, 127
1, 413562, Note_off_c, 12, 71, 127
1, 413564, Note_on_c, 4, 64, 127
1, 413564, Note_on_c, 0, 72, 127
1, 413564, Note_on_c, 4, 76, 127
1, 413712, Note_off_c, 4, 76, 127
1, 413712, Note_off_c, 0, 72, 127
1, 413715, Note_on_c, 2, 74, 127
1, 413715, Note_on_c, 5, 77, 127
1, 413863, Note_off_c, 5, 77, 127
1, 413863, Note_off_c, 2, 74, 127
1, 413866, Note_on_c, 4, 76, 127
1, 413866, Note_on_c, 7, 79, 127
1, 414014, Note_off_c, 7, 79, 127
1, 414014, Note_off_c, 4, 76, 127
1, 414017, Note_on_c, 5, 65, 127
1, 414017, Note_on_c, 10, 69, 127
1, 414165, Note_off_c, 10, 69, 127
1, 414165, Note_off_c, 5, 65, 127
1, 414168, Note_on_c, 7, 67, 127
1, 414168, Note_on_c, 12, 71, 127
1, 414316, Note_off_c, 12, 71, 127
1, 414316, Note_off_c, 7, 67, 127
1, 414319, Note_on_c, 10, 69, 127
1, 414319, Note_on_c, 0, 72, 127
1, 414410, Note_off_c, 4, 64, 127
1, 414467, Note_off_c, 0, 72, 127
1, 414467, Note_off_c, 10, 69, 127
1, 414470, Note_on_c, 2, 62, 127
1, 414470, Note_on_c, 12, 71, 127
1, 414470, Note_on_c, 2, 74, 127
1, 414618, Note_off_c, 2, 74, 127
1, 414618, Note_off_c, 12, 71, 127
1, 414621, Note_on_c, 0, 72, 127
1, 414621, Note_on_c, 4, 76, 127
1, 414769, Note_off_c, 4, 76, 127
1, 414769, Note_off_c, 0, 72, 127
1, 414772, Note_on_c, 2, 74, 127
1, 414772, Note_on_c, 5, 77, 127
1, 414920, Note_off_c, 5, 77, 127
1, 414920, Note_off_c, 2, 74, 127
1, 414923, Note_on_c, 4, 64, 127
1, 414923, Note_on_c, 4, 76, 127
1, 415066, Note_off_c, 2, 62, 127
1, 415071, Note_off_c, 4, 64, 127
1, 415074, Note_on_c, 12, 59, 127
1, 415074, Note_on_c, 8, 68, 127
1, 415222, Note_off_c, 8, 68, 127
1, 415222, Note_off_c, 12, 59, 127
1, 415225, Note_on_c, 8, 56, 127
1, 415225, Note_on_c, 12, 71, 127
1, 415373, Note_off_c, 12, 71, 127
1, 415373, Note_off_c, 8, 56, 127
1, 415376, Note_on_c, 4, 52, 127
1, 415376, Note_on_c, 2, 74, 127
1, 415524, Note_off_c, 2, 74, 127
1, 415524, Note_off_c, 4, 52, 127
1, 415527, Note_on_c, 8, 56, 127
1, 415527, Note_on_c, 12, 71, 127
1, 415675, Note_off_c, 12, 71, 127
1, 415675, Note_off_c, 8, 56, 127
1, 415678, Note_on_c, 12, 59, 127
1, 415678, Note_on_c, 8, 68, 127
1, 415826, Note_off_c, 8, 68, 127
1, 415826, Note_off_c, 12, 59, 127
1, 415829, Note_on_c, 0, 60, 127
1, 415829, Note_on_c, 4, 64, 127
1, 415977, Note_off_c, 4, 64, 127
1, 415980, Note_on_c, 10, 69, 127
1, 416125, Note_off_c, 0, 60, 127
1, 416128, Note_off_c, 10, 69, 127
1, 416130, Note_on_c, 12, 71, 127
1, 416278, Note_off_c, 12, 71, 127
1, 416281, Note_on_c, 10, 57, 127
1, 416281, Note_on_c, 0, 72, 127
1, 416429, Note_off_c, 0, 72, 127
1, 416432, Note_on_c, 12, 71, 127
1, 416577, Note_off_c, 10, 57, 127
1, 416580, Note_off_c, 12, 71, 127
1, 416582, Note_on_c, 10, 69, 127
1, 416730, Note_off_c, 10, 69, 127
1, 416733, Note_on_c, 7, 55, 127
1, 416733, Note_on_c, 1, 73, 127
1, 416883, Note_on_c, 11, 70, 127
1, 417031, Note_off_c, 11, 70, 127
1, 417034, Note_on_c, 10, 69, 127
1, 417130, Note_off_c, 7, 55, 127
1, 417182, Note_off_c, 10, 69, 127
1, 417185, Note_on_c, 1, 49, 127
1, 417185, Note_on_c, 7, 67, 127
1, 417330, Note_off_c, 1, 73, 127
1, 417333, Note_off_c, 7, 67, 127
1, 417335, Note_on_c, 5, 65, 127
1, 417483, Note_off_c, 5, 65, 127
1, 417486, Note_on_c, 4, 64, 127
1, 417535, Note_off_c, 1, 49, 127
1, 417629, Note_off_c, 4, 76, 127
1, 417634, Note_off_c, 4, 64, 127
1, 417637, Note_on_c, 2, 62, 127
1, 417637, Note_on_c, 5, 65, 127
1, 417637, Note_on_c, 2, 74, 127
1, 417785, Note_off_c, 5, 65, 127
1, 417785, Note_off_c, 2, 62, 127
1, 417788, Note_on_c, 5, 65, 127
1, 417933, Note_off_c, 2, 74, 127
1, 417936, Note_off_c, 5, 65, 127
1, 417938, Note_on_c, 10, 69, 127
1, 418086, Note_off_c, 10, 69, 127
1, 418089, Note_on_c, 1, 61, 127
1, 418089, Note_on_c, 7, 79, 127
1, 418089, Note_on_c, 4, 76, 127
1, 418237, Note_off_c, 1, 61, 127
1, 418240, Note_on_c, 7, 67, 127
1, 418385, Note_off_c, 4, 76, 127
1, 418385, Note_off_c, 7, 79, 127
1, 418388, Note_off_c, 7, 67, 127
1, 418390, Note_on_c, 11, 70, 127
1, 418538, Note_off_c, 11, 70, 127
1, 418541, Note_on_c, 2, 62, 127
1, 418541, Note_on_c, 5, 77, 127
1, 418541, Note_on_c, 2, 74, 127
1, 418689, Note_off_c, 2, 62, 127
1, 418692, Note_on_c, 5, 65, 127
1, 418837, Note_off_c, 2, 74, 127
1, 418837, Note_off_c, 5, 77, 127
1, 418840, Note_off_c, 5, 65, 127
1, 418842, Note_on_c, 10, 69, 127
1, 418990, Note_off_c, 10, 69, 127
1, 418993, Note_on_c, 10, 57, 127
1, 418993, Note_on_c, 4, 76, 127
1, 418993, Note_on_c, 1, 73, 127
1, 419141, Note_off_c, 10, 57, 127
1, 419144, Note_on_c, 4, 64, 127
1, 419289, Note_off_c, 1, 73, 127
1, 419289, Note_off_c, 4, 76, 127
1, 419292, Note_off_c, 4, 64, 127
1, 419294, Note_on_c, 7, 67, 127
1, 419442, Note_off_c, 7, 67, 127
1, 419445, Note_on_c, 2, 62, 127
1, 419445, Note_on_c, 2, 74, 127
1, 419445, Note_on_c, 5, 77, 127
1, 419593, Note_off_c, 2, 62, 127
1, 419596, Note_on_c, 4, 64, 127
1, 419744, Note_off_c, 4, 64, 127
1, 419747, Note_on_c, 5, 65, 127
1, 419843, Note_off_c, 5, 77, 127
1, 419843, Note_off_c, 2, 74, 127
1, 419895, Note_off_c, 5, 65, 127
1, 419898, Note_on_c, 7, 67, 127
1, 419898, Note_on_c, 11, 82, 127
1, 420046, Note_off_c, 7, 67, 127
1, 420049, Note_on_c, 10, 69, 127
1, 420049, Note_on_c, 4, 76, 127
1, 420197, Note_off_c, 4, 76, 127
1, 420197, Note_off_c, 10, 69, 127
1, 420200, Note_on_c, 11, 70, 127
1, 420200, Note_on_c, 2, 74, 127
1, 420348, Note_off_c, 2, 74, 127
1, 420348, Note_off_c, 11, 70, 127
1, 420351, Note_on_c, 0, 60, 127
1, 420351, Note_on_c, 4, 76, 127
1, 420494, Note_off_c, 11, 82, 127
1, 420499, Note_off_c, 0, 60, 127
1, 420502, Note_on_c, 2, 62, 127
1, 420502, Note_on_c, 10, 81, 127
1, 420650, Note_off_c, 10, 81, 127
1, 420650, Note_off_c, 2, 62, 127
1, 420653, Note_on_c, 4, 64, 127
1, 420653, Note_on_c, 7, 79, 127
1, 420801, Note_off_c, 7, 79, 127
1, 420801, Note_off_c, 4, 64, 127
1, 420804, Note_on_c, 5, 65, 127
1, 420804, Note_on_c, 10, 81, 127
1, 420947, Note_off_c, 4, 76, 127
1, 420952, Note_off_c, 5, 65, 127
1, 420955, Note_on_c, 7, 67, 127
1, 420955, Note_on_c, 2, 74, 127
1, 421103, Note_off_c, 2, 74, 127
1, 421103, Note_off_c, 7, 67, 127
1, 421106, Note_on_c, 10, 69, 127
1, 421106, Note_on_c, 1, 73, 127
1, 421254, Note_off_c, 1, 73, 127
1, 421254, Note_off_c, 10, 69, 127
1, 421257, Note_on_c, 11, 58, 127
1, 421257, Note_on_c, 2, 74, 127
1, 421400, Note_off_c, 10, 81, 127
1, 421405, Note_off_c, 11, 58, 127
1, 421408, Note_on_c, 0, 60, 127
1, 421408, Note_on_c, 7, 79, 127
1, 421556, Note_off_c, 7, 79, 127
1, 421556, Note_off_c, 0, 60, 127
1, 421559, Note_on_c, 2, 62, 127
1, 421559, Note_on_c, 5, 77, 127
1, 421707, Note_off_c, 5, 77, 127
1, 421707, Note_off_c, 2, 62, 127
1, 421710, Note_on_c, 4, 64, 127
1, 421710, Note_on_c, 7, 79, 127
1, 421853, Note_off_c, 2, 74, 127
1, 421858, Note_off_c, 4, 64, 127
1, 421861, Note_on_c, 5, 65, 127
1, 421861, Note_on_c, 1, 73, 127
1, 422009, Note_off_c, 1, 73, 127
1, 422009, Note_off_c, 5, 65, 127
1, 422012, Note_on_c, 7, 67, 127
1, 422012, Note_on_c, 12, 71, 127
1, 422160, Note_off_c, 12, 71, 127
1, 422160, Note_off_c, 7, 67, 127
1, 422163, Note_on_c, 10, 57, 127
1, 422163, Note_on_c, 1, 73, 127
1, 422311, Note_off_c, 10, 57, 127
1, 422314, Note_on_c, 1, 61, 127
1, 422462, Note_off_c, 1, 61, 127
1, 422465, Note_on_c, 4, 64, 127
1, 422608, Note_off_c, 1, 73, 127
1, 422608, Note_off_c, 7, 79, 127
1, 422613, Note_off_c, 4, 64, 127
1, 422616, Note_on_c, 7, 67, 127
1, 422616, Note_on_c, 4, 76, 127
1, 422616, Note_on_c, 1, 73, 127
1, 422764, Note_off_c, 7, 67, 127
1, 422767, Note_on_c, 4, 64, 127
1, 422915, Note_off_c, 4, 64, 127
1, 422918, Note_on_c, 1, 61, 127
1, 423061, Note_off_c, 1, 73, 127
1, 423061, Note_off_c, 4, 76, 127
1, 423066, Note_off_c, 1, 61, 127
1, 423069, Note_on_c, 10, 57, 127
1, 423069, Note_on_c, 2, 74, 127
1, 423069, Note_on_c, 5, 77, 127
1, 423217, Note_off_c, 10, 57, 127
1, 423220, Note_on_c, 2, 62, 127
1, 423368, Note_off_c, 2, 62, 127
1, 423371, Note_on_c, 4, 64, 127
1, 423514, Note_off_c, 5, 77, 127
1, 423514, Note_off_c, 2, 74, 127
1, 423519, Note_off_c, 4, 64, 127
1, 423522, Note_on_c, 5, 65, 127
1, 423522, Note_on_c, 2, 74, 127
1, 423522, Note_on_c, 10, 69, 127
1, 423670, Note_off_c, 5, 65, 127
1, 423673, Note_on_c, 4, 64, 127
1, 423821, Note_off_c, 4, 64, 127
1, 423824, Note_on_c, 2, 62, 127
1, 423920, Note_off_c, 10, 69, 127
1, 423967, Note_off_c, 2, 74, 127
1, 423972, Note_off_c, 2, 62, 127
1, 423975, Note_on_c, 8, 68, 127
1, 423975, Note_on_c, 2, 74, 127
1, 423975, Note_on_c, 12, 71, 127
1, 424123, Note_off_c, 8, 68, 127
1, 424126, Note_on_c, 5, 65, 127
1, 424274, Note_off_c, 5, 65, 127
1, 424277, Note_on_c, 4, 64, 127
1, 424425, Note_off_c, 4, 64, 127
1, 424428, Note_on_c, 2, 62, 127
1, 424576, Note_off_c, 2, 62, 127
1, 424579, Note_on_c, 0, 60, 127
1, 424727, Note_off_c, 0, 60, 127
1, 424730, Note_on_c, 12, 59, 127
1, 424878, Note_off_c, 12, 59, 127
1, 424881, Note_on_c, 0, 60, 127
1, 425010, Note_off_c, 12, 71, 127
1, 425032, Note_on_c, 12, 71, 127
1, 425180, Note_off_c, 12, 71, 127
1, 425183, Note_on_c, 10, 69, 127
1, 425331, Note_off_c, 10, 69, 127
1, 425334, Note_on_c, 8, 68, 127
1, 425482, Note_off_c, 8, 68, 127
1, 425485, Note_on_c, 6, 66, 127
1, 425633, Note_off_c, 6, 66, 127
1, 425636, Note_on_c, 4, 64, 127
1, 425784, Note_off_c, 4, 64, 127
1, 425787, Note_on_c, 10, 69, 127
1, 425930, Note_off_c, 2, 74, 127
1, 425938, Note_on_c, 4, 76, 127
1, 426086, Note_off_c, 4, 76, 127
1, 426089, Note_on_c, 2, 74, 127
1, 426237, Note_off_c, 2, 74, 127
1, 426240, Note_on_c, 0, 72, 127
1, 426390, Note_on_c, 12, 71, 127
1, 426526, Note_off_c, 10, 69, 127
1, 426538, Note_off_c, 12, 71, 127
1, 426541, Note_on_c, 10, 69, 127
1, 426689, Note_off_c, 10, 69, 127
1, 426692, Note_on_c, 6, 78, 127
1, 426835, Note_off_c, 0, 60, 127
1, 426843, Note_on_c, 10, 57, 127
1, 426991, Note_off_c, 10, 57, 127
1, 426994, Note_on_c, 7, 55, 127
1, 427142, Note_off_c, 7, 55, 127
1, 427145, Note_on_c, 6, 54, 127
1, 427293, Note_off_c, 6, 54, 127
1, 427296, Note_on_c, 4, 52, 127
1, 427444, Note_off_c, 4, 52, 127
1, 427447, Note_on_c, 3, 51, 127
1, 427595, Note_off_c, 3, 51, 127
1, 427598, Note_on_c, 7, 55, 127
1, 427741, Note_off_c, 6, 78, 127
1, 427749, Note_on_c, 6, 78, 127
1, 427897, Note_off_c, 6, 78, 127
1, 427900, Note_on_c, 4, 76, 127
1, 428045, Note_off_c, 0, 72, 127
1, 428048, Note_off_c, 4, 76, 127
1, 428050, Note_on_c, 3, 75, 127
1, 428200, Note_on_c, 1, 73, 127
1, 428348, Note_off_c, 1, 73, 127
1, 428351, Note_on_c, 12, 71, 127
1, 428494, Note_off_c, 3, 75, 127
1, 428502, Note_on_c, 4, 76, 127
1, 428645, Note_off_c, 12, 71, 127
1, 428653, Note_on_c, 12, 71, 127
1, 428801, Note_off_c, 12, 71, 127
1, 428804, Note_on_c, 10, 69, 127
1, 428952, Note_off_c, 10, 69, 127
1, 428955, Note_on_c, 7, 67, 127
1, 429103, Note_off_c, 7, 67, 127
1, 429106, Note_on_c, 6, 66, 127
1, 429254, Note_off_c, 6, 66, 127
1, 429257, Note_on_c, 4, 64, 127
1, 429405, Note_off_c, 4, 64, 127
1, 429408, Note_on_c, 11, 70, 127
1, 429551, Note_off_c, 7, 55, 127
1, 429559, Note_on_c, 11, 58, 127
1, 429707, Note_off_c, 11, 58, 127
1, 429710, Note_on_c, 10, 57, 127
1, 429858, Note_off_c, 10, 57, 127
1, 429861, Note_on_c, 7, 55, 127
1, 430009, Note_off_c, 7, 55, 127
1, 430012, Note_on_c, 5, 53, 127
1, 430160, Note_off_c, 5, 53, 127
1, 430163, Note_on_c, 4, 52, 127
1, 430311, Note_off_c, 4, 52, 127
1, 430314, Note_on_c, 1, 61, 127
1, 430457, Note_off_c, 11, 70, 127
1, 430465, Note_on_c, 11, 70, 127
1, 430613, Note_off_c, 11, 70, 127
1, 430616, Note_on_c, 10, 69, 127
1, 430764, Note_off_c, 10, 69, 127
1, 430767, Note_on_c, 7, 67, 127
1, 430915, Note_off_c, 7, 67, 127
1, 430918, Note_on_c, 5, 65, 127
1, 431066, Note_off_c, 5, 65, 127
1, 431069, Note_on_c, 4, 64, 127
1, 431217, Note_off_c, 4, 64, 127
1, 431220, Note_on_c, 10, 69, 127
1, 431363, Note_off_c, 4, 76, 127
1, 431371, Note_on_c, 4, 76, 127
1, 431519, Note_off_c, 4, 76, 127
1, 431522, Note_on_c, 2, 74, 127
1, 431670, Note_off_c, 2, 74, 127
1, 431673, Note_on_c, 1, 73, 127
1, 431821, Note_off_c, 1, 73, 127
1, 431824, Note_on_c, 12, 71, 127
1, 431967, Note_off_c, 10, 69, 127
1, 431972, Note_off_c, 12, 71, 127
1, 431975, Note_on_c, 10, 69, 127
1, 432125, Note_on_c, 7, 79, 127
1, 432268, Note_off_c, 1, 61, 127
1, 432276, Note_on_c, 4, 64, 127
1, 432424, Note_off_c, 4, 64, 127
1, 432427, Note_on_c, 2, 62, 127
1, 432575, Note_off_c, 2, 62, 127
1, 432578, Note_on_c, 1, 61, 127
1, 432726, Note_off_c, 1, 61, 127
1, 432729, Note_on_c, 12, 59, 127
1, 432877, Note_off_c, 12, 59, 127
1, 432880, Note_on_c, 10, 57, 127
1, 433028, Note_off_c, 10, 57, 127
1, 433031, Note_on_c, 2, 62, 127
1, 433174, Note_off_c, 7, 79, 127
1, 433182, Note_on_c, 10, 81, 127
1, 433330, Note_off_c, 10, 81, 127
1, 433333, Note_on_c, 7, 79, 127
1, 433481, Note_off_c, 7, 79, 127
1, 433484, Note_on_c, 5, 77, 127
1, 433632, Note_off_c, 5, 77, 127
1, 433635, Note_on_c, 4, 76, 127
1, 433780, Note_off_c, 10, 69, 127
1, 433783, Note_off_c, 4, 76, 127
1, 433785, Note_on_c, 2, 74, 127
1, 433933, Note_off_c, 2, 74, 127
1, 433936, Note_on_c, 8, 68, 127
1, 433936, Note_on_c, 4, 76, 127
1, 434079, Note_off_c, 2, 62, 127
1, 434087, Note_on_c, 4, 64, 127
1, 434235, Note_off_c, 4, 64, 127
1, 434238, Note_on_c, 2, 62, 127
1, 434381, Note_off_c, 8, 68, 127
1, 434386, Note_off_c, 2, 62, 127
1, 434389, Note_on_c, 0, 60, 127
1, 434389, Note_on_c, 10, 69, 127
1, 434537, Note_off_c, 0, 60, 127
1, 434540, Note_on_c, 12, 59, 127
1, 434688, Note_off_c, 12, 59, 127
1, 434691, Note_on_c, 10, 57, 127
1, 434839, Note_off_c, 10, 57, 127
1, 434842, Note_on_c, 5, 65, 127
1, 434985, Note_off_c, 4, 76, 127
1, 434993, Note_on_c, 5, 77, 127
1, 435141, Note_off_c, 5, 77, 127
1, 435144, Note_on_c, 4, 76, 127
1, 435292, Note_off_c, 4, 76, 127
1, 435295, Note_on_c, 2, 74, 127
1, 435443, Note_off_c, 2, 74, 127
1, 435446, Note_on_c, 0, 72, 127
1, 435594, Note_off_c, 0, 72, 127
1, 435597, Note_on_c, 12, 71, 127
1, 435740, Note_off_c, 5, 65, 127
1, 435745, Note_off_c, 12, 71, 127
1, 435748, Note_on_c, 4, 64, 127
1, 435748, Note_on_c, 0, 72, 127
1, 435896, Note_off_c, 4, 64, 127
1, 435899, Note_on_c, 5, 65, 127
1, 436037, Note_off_c, 10, 69, 127
1, 436047, Note_off_c, 5, 65, 127
1, 436050, Note_on_c, 4, 64, 127
1, 436193, Note_off_c, 0, 72, 127
1, 436198, Note_off_c, 4, 64, 127
1, 436201, Note_on_c, 2, 62, 127
1, 436201, Note_on_c, 8, 68, 127
1, 436201, Note_on_c, 12, 71, 127
1, 436349, Note_off_c, 2, 62, 127
1, 436352, Note_on_c, 0, 60, 127
1, 436500, Note_off_c, 0, 60, 127
1, 436503, Note_on_c, 12, 59, 127
1, 436599, Note_off_c, 12, 71, 127
1, 436599, Note_off_c, 8, 68, 127
1, 436651, Note_off_c, 12, 59, 127
1, 436654, Note_on_c, 0, 60, 127
1, 436654, Note_on_c, 4, 76, 127
1, 436654, Note_on_c, 10, 69, 127
1, 436802, Note_off_c, 0, 60, 127
1, 436805, Note_on_c, 2, 62, 127
1, 436948, Note_off_c, 10, 69, 127
1, 436948, Note_off_c, 4, 76, 127
1, 436953, Note_off_c, 2, 62, 127
1, 436956, Note_on_c, 0, 60, 127
1, 436956, Note_on_c, 10, 81, 127
1, 437104, Note_off_c, 10, 81, 127
1, 437104, Note_off_c, 0, 60, 127
1, 437107, Note_on_c, 12, 59, 127
1, 437107, Note_on_c, 2, 74, 127
1, 437255, Note_off_c, 12, 59, 127
1, 437258, Note_on_c, 10, 57, 127
1, 437401, Note_off_c, 2, 74, 127
1, 437406, Note_off_c, 10, 57, 127
1, 437409, Note_on_c, 7, 55, 127
1, 437409, Note_on_c, 7, 79, 127
1, 437557, Note_off_c, 7, 79, 127
1, 437557, Note_off_c, 7, 55, 127
1, 437560, Note_on_c, 10, 57, 127
1, 437560, Note_on_c, 0, 72, 127
1, 437708, Note_off_c, 10, 57, 127
1, 437711, Note_on_c, 12, 59, 127
1, 437854, Note_off_c, 0, 72, 127
1, 437859, Note_off_c, 12, 59, 127
1, 437862, Note_on_c, 10, 57, 127
1, 437862, Note_on_c, 5, 77, 127
1, 438010, Note_off_c, 5, 77, 127
1, 438010, Note_off_c, 10, 57, 127
1, 438013, Note_on_c, 7, 55, 127
1, 438013, Note_on_c, 12, 71, 127
1, 438161, Note_off_c, 7, 55, 127
1, 438164, Note_on_c, 5, 53, 127
1, 438307, Note_off_c, 12, 71, 127
1, 438312, Note_off_c, 5, 53, 127
1, 438315, Note_on_c, 4, 52, 127
1, 438315, Note_on_c, 4, 76, 127
1, 438463, Note_off_c, 4, 76, 127
1, 438463, Note_off_c, 4, 52, 127
1, 438466, Note_on_c, 5, 53, 127
1, 438466, Note_on_c, 10, 69, 127
1, 438614, Note_off_c, 5, 53, 127
1, 438617, Note_on_c, 7, 55, 127
1, 438760, Note_off_c, 10, 69, 127
1, 438765, Note_off_c, 7, 55, 127
1, 438768, Note_on_c, 5, 53, 127
1, 438768, Note_on_c, 2, 74, 127
1, 438916, Note_off_c, 2, 74, 127
1, 438916, Note_off_c, 5, 53, 127
1, 438919, Note_on_c, 4, 52, 127
1, 438919, Note_on_c, 7, 67, 127
1, 439067, Note_off_c, 4, 52, 127
1, 439070, Note_on_c, 2, 50, 127
1, 439213, Note_off_c, 7, 67, 127
1, 439218, Note_off_c, 2, 50, 127
1, 439221, Note_on_c, 0, 48, 127
1, 439221, Note_on_c, 0, 72, 127
1, 439369, Note_off_c, 0, 72, 127
1, 439369, Note_off_c, 0, 48, 127
1, 439372, Note_on_c, 2, 50, 127
1, 439372, Note_on_c, 5, 65, 127
1, 439520, Note_off_c, 2, 50, 127
1, 439523, Note_on_c, 4, 52, 127
1, 439666, Note_off_c, 5, 65, 127
1, 439671, Note_off_c, 4, 52, 127
1, 439674, Note_on_c, 2, 50, 127
1, 439674, Note_on_c, 11, 70, 127
1, 439822, Note_off_c, 11, 70, 127
1, 439822, Note_off_c, 2, 50, 127
1, 439825, Note_on_c, 0, 48, 127
1, 439825, Note_on_c, 4, 64, 127
1, 439973, Note_off_c, 0, 48, 127
1, 439976, Note_on_c, 12, 47, 127
1, 440119, Note_off_c, 4, 64, 127
1, 440124, Note_off_c, 12, 47, 127
1, 440127, Note_on_c, 10, 45, 127
1, 440127, Note_on_c, 10, 69, 127
1, 440275, Note_off_c, 10, 69, 127
1, 440275, Note_off_c, 10, 45, 127
1, 440278, Note_on_c, 12, 47, 127
1, 440278, Note_on_c, 2, 62, 127
1, 440426, Note_off_c, 2, 62, 127
1, 440429, Note_on_c, 8, 68, 127
1, 440572, Note_off_c, 12, 47, 127
1, 440577, Note_off_c, 8, 68, 127
1, 440580, Note_on_c, 0, 48, 127
1, 440580, Note_on_c, 10, 69, 127
1, 440728, Note_off_c, 10, 69, 127
1, 440728, Note_off_c, 0, 48, 127
1, 440731, Note_on_c, 2, 50, 127
1, 440731, Note_on_c, 12, 71, 127
1, 440879, Note_off_c, 12, 71, 127
1, 440879, Note_off_c, 2, 50, 127
1, 440882, Note_on_c, 4, 52, 127
1, 440882, Note_on_c, 10, 69, 127
1, 441030, Note_off_c, 10, 69, 127
1, 441030, Note_off_c, 4, 52, 127
1, 441033, Note_on_c, 5, 53, 127
1, 441033, Note_on_c, 8, 68, 127
1, 441181, Note_off_c, 8, 68, 127
1, 441181, Note_off_c, 5, 53, 127
1, 441184, Note_on_c, 8, 44, 127
1, 441184, Note_on_c, 2, 74, 127
1, 441334, Note_on_c, 4, 64, 127
1, 441482, Note_off_c, 4, 64, 127
1, 441485, Note_on_c, 6, 66, 127
1, 441633, Note_off_c, 6, 66, 127
1, 441636, Note_on_c, 8, 68, 127
1, 441784, Note_off_c, 8, 68, 127
1, 441787, Note_on_c, 6, 66, 127
1, 441840, Note_off_c, 8, 44, 127
1, 441935, Note_off_c, 6, 66, 127
1, 441937, Note_on_c, 4, 64, 127
1, 442085, Note_off_c, 4, 64, 127
1, 442088, Note_on_c, 8, 56, 127
1, 442088, Note_on_c, 12, 71, 127
1, 442236, Note_off_c, 8, 56, 127
1, 442239, Note_on_c, 5, 53, 127
1, 442387, Note_off_c, 5, 53, 127
1, 442390, Note_on_c, 4, 52, 127
1, 442538, Note_off_c, 4, 52, 127
1, 442541, Note_on_c, 2, 50, 127
1, 442689, Note_off_c, 2, 50, 127
1, 442692, Note_on_c, 0, 48, 127
1, 442840, Note_off_c, 0, 48, 127
1, 442843, Note_on_c, 12, 47, 127
1, 442991, Note_off_c, 12, 47, 127
1, 442994, Note_on_c, 10, 45, 127
1, 443137, Note_off_c, 12, 71, 127
1, 443145, Note_on_c, 12, 71, 127
1, 443293, Note_off_c, 12, 71, 127
1, 443296, Note_on_c, 10, 69, 127
1, 443444, Note_off_c, 10, 69, 127
1, 443447, Note_on_c, 8, 68, 127
1, 443595, Note_off_c, 8, 68, 127
1, 443598, Note_on_c, 6, 66, 127
1, 443651, Note_off_c, 10, 45, 127
1, 443746, Note_off_c, 6, 66, 127
1, 443748, Note_on_c, 4, 64, 127
1, 443896, Note_off_c, 4, 64, 127
1, 443899, Note_on_c, 10, 69, 127
1, 444042, Note_off_c, 2, 74, 127
1, 444050, Note_on_c, 5, 77, 127
1, 444198, Note_off_c, 5, 77, 127
1, 444201, Note_on_c, 4, 76, 127
1, 444349, Note_off_c, 4, 76, 127
1, 444352, Note_on_c, 2, 74, 127
1, 444500, Note_off_c, 2, 74, 127
1, 444503, Note_on_c, 0, 72, 127
1, 444651, Note_off_c, 0, 72, 127
1, 444654, Note_on_c, 12, 71, 127
1, 444802, Note_off_c, 12, 71, 127
1, 444805, Note_on_c, 10, 45, 127
1, 444805, Note_on_c, 0, 72, 127
1, 444953, Note_off_c, 10, 45, 127
1, 444956, Note_on_c, 0, 48, 127
1, 445099, Note_off_c, 10, 69, 127
1, 445104, Note_off_c, 0, 48, 127
1, 445107, Note_on_c, 4, 52, 127
1, 445107, Note_on_c, 10, 69, 127
1, 445255, Note_off_c, 10, 69, 127
1, 445255, Note_off_c, 4, 52, 127
1, 445258, Note_on_c, 8, 44, 127
1, 445258, Note_on_c, 2, 62, 127
1, 445406, Note_off_c, 8, 44, 127
1, 445409, Note_on_c, 2, 50, 127
1, 445552, Note_off_c, 0, 72, 127
1, 445557, Note_off_c, 2, 50, 127
1, 445560, Note_on_c, 5, 53, 127
1, 445560, Note_on_c, 12, 71, 127
1, 445703, Note_off_c, 2, 62, 127
1, 445708, Note_off_c, 5, 53, 127
1, 445711, Note_on_c, 10, 45, 127
1, 445711, Note_on_c, 0, 60, 127
1, 445859, Note_off_c, 10, 45, 127
1, 445862, Note_on_c, 0, 48, 127
1, 446005, Note_off_c, 12, 71, 127
1, 446010, Note_off_c, 0, 48, 127
1, 446013, Note_on_c, 4, 52, 127
1, 446013, Note_on_c, 10, 69, 127
1, 446156, Note_off_c, 0, 60, 127
1, 446161, Note_off_c, 4, 52, 127
1, 446164, Note_on_c, 4, 40, 127
1, 446164, Note_on_c, 12, 59, 127
1, 446312, Note_off_c, 4, 40, 127
1, 446315, Note_on_c, 12, 47, 127
1, 446458, Note_off_c, 10, 69, 127
1, 446463, Note_off_c, 12, 47, 127
1, 446466, Note_on_c, 2, 50, 127
1, 446466, Note_on_c, 8, 68, 127
1, 446609, Note_off_c, 12, 59, 127
1, 446614, Note_off_c, 8, 68, 127
1, 446614, Note_off_c, 2, 50, 127
1, 446617, Note_on_c, 10, 45, 127
1, 446617, Note_on_c, 0, 60, 127
1, 446617, Note_on_c, 10, 69, 127
1, 446765, Note_off_c, 10, 45, 127
1, 446768, Note_on_c, 12, 47, 127
1, 446916, Note_off_c, 12, 47, 127
1, 446919, Note_on_c, 0, 48, 127
1, 447062, Note_off_c, 10, 69, 127
1, 447062, Note_off_c, 0, 60, 127
1, 447067, Note_off_c, 0, 48, 127
1, 447070, Note_on_c, 2, 50, 127
1, 447070, Note_on_c, 5, 53, 127
1, 447218, Note_off_c, 5, 53, 127
1, 447218, Note_off_c, 2, 50, 127
1, 447221, Note_on_c, 4, 52, 127
1, 447221, Note_on_c, 7, 55, 127
1, 447369, Note_off_c, 7, 55, 127
1, 447369, Note_off_c, 4, 52, 127
1, 447372, Note_on_c, 5, 53, 127
1, 447372, Note_on_c, 10, 57, 127
1, 447520, Note_off_c, 10, 57, 127
1, 447520, Note_off_c, 5, 53, 127
1, 447523, Note_on_c, 7, 43, 127
1, 447523, Note_on_c, 12, 59, 127
1, 447671, Note_off_c, 12, 59, 127
1, 447671, Note_off_c, 7, 43, 127
1, 447674, Note_on_c, 10, 45, 127
1, 447674, Note_on_c, 0, 60, 127
1, 447822, Note_off_c, 0, 60, 127
1, 447822, Note_off_c, 10, 45, 127
1, 447825, Note_on_c, 12, 47, 127
1, 447825, Note_on_c, 2, 62, 127
1, 447973, Note_off_c, 2, 62, 127
1, 447973, Note_off_c, 12, 47, 127
1, 447976, Note_on_c, 0, 48, 127
1, 447976, Note_on_c, 4, 64, 127
1, 448124, Note_off_c, 4, 64, 127
1, 448124, Note_off_c, 0, 48, 127
1, 448127, Note_on_c, 2, 50, 127
1, 448127, Note_on_c, 5, 65, 127
1, 448275, Note_off_c, 5, 65, 127
1, 448275, Note_off_c, 2, 50, 127
1, 448278, Note_on_c, 4, 52, 127
1, 448278, Note_on_c, 7, 67, 127
1, 448426, Note_off_c, 7, 67, 127
1, 448426, Note_off_c, 4, 52, 127
1, 448429, Note_on_c, 5, 41, 127
1, 448429, Note_on_c, 10, 69, 127
1, 448577, Note_off_c, 10, 69, 127
1, 448577, Note_off_c, 5, 41, 127
1, 448580, Note_on_c, 7, 43, 127
1, 448580, Note_on_c, 12, 71, 127
1, 448728, Note_off_c, 12, 71, 127
1, 448728, Note_off_c, 7, 43, 127
1, 448731, Note_on_c, 10, 45, 127
1, 448731, Note_on_c, 0, 72, 127
1, 448879, Note_off_c, 0, 72, 127
1, 448879, Note_off_c, 10, 45, 127
1, 448882, Note_on_c, 12, 47, 127
1, 448882, Note_on_c, 2, 74, 127
1, 449030, Note_off_c, 2, 74, 127
1, 449030, Note_off_c, 12, 47, 127
1, 449033, Note_on_c, 0, 48, 127
1, 449033, Note_on_c, 4, 76, 127
1, 449181, Note_off_c, 4, 76, 127
1, 449181, Note_off_c, 0, 48, 127
1, 449184, Note_on_c, 2, 50, 127
1, 449184, Note_on_c, 5, 77, 127
1, 449332, Note_off_c, 5, 77, 127
1, 449332, Note_off_c, 2, 50, 127
1, 449335, Note_on_c, 4, 40, 127
1, 449335, Note_on_c, 8, 68, 127
1, 449483, Note_off_c, 8, 68, 127
1, 449483, Note_off_c, 4, 40, 127
1, 449486, Note_on_c, 8, 44, 127
1, 449486, Note_on_c, 12, 71, 127
1, 449634, Note_off_c, 12, 71, 127
1, 449634, Note_off_c, 8, 44, 127
1, 449637, Note_on_c, 12, 47, 127
1, 449637, Note_on_c, 2, 74, 127
1, 449785, Note_off_c, 2, 74, 127
1, 449785, Note_off_c, 12, 47, 127
1, 449788, Note_on_c, 2, 50, 127
1, 449788, Note_on_c, 4, 64, 127
1, 449936, Note_off_c, 4, 64, 127
1, 449936, Note_off_c, 2, 50, 127
1, 449939, Note_on_c, 12, 47, 127
1, 449939, Note_on_c, 8, 68, 127
1, 450087, Note_off_c, 8, 68, 127
1, 450087, Note_off_c, 12, 47, 127
1, 450090, Note_on_c, 8, 44, 127
1, 450090, Note_on_c, 12, 71, 127
1, 450238, Note_off_c, 12, 71, 127
1, 450238, Note_off_c, 8, 44, 127
1, 450241, Note_on_c, 4, 40, 127
1, 450241, Note_on_c, 0, 60, 127
1, 450389, Note_off_c, 0, 60, 127
1, 450389, Note_off_c, 4, 40, 127
1, 450392, Note_on_c, 10, 45, 127
1, 450392, Note_on_c, 4, 64, 127
1, 450540, Note_off_c, 4, 64, 127
1, 450540, Note_off_c, 10, 45, 127
1, 450543, Note_on_c, 12, 47, 127
1, 450543, Note_on_c, 8, 56, 127
1, 450691, Note_off_c, 8, 56, 127
1, 450691, Note_off_c, 12, 47, 127
1, 450694, Note_on_c, 0, 48, 127
1, 450694, Note_on_c, 10, 57, 127
1, 450842, Note_off_c, 10, 57, 127
1, 450842, Note_off_c, 0, 48, 127
1, 450845, Note_on_c, 12, 47, 127
1, 450845, Note_on_c, 12, 59, 127
1, 450993, Note_off_c, 12, 59, 127
1, 450993, Note_off_c, 12, 47, 127
1, 450996, Note_on_c, 10, 45, 127
1, 450996, Note_on_c, 0, 60, 127
1, 451144, Note_off_c, 0, 60, 127
1, 451144, Note_off_c, 10, 45, 127
1, 451147, Note_on_c, 3, 51, 127
1, 451147, Note_on_c, 6, 54, 127
1, 451295, Note_off_c, 6, 54, 127
1, 451295, Note_off_c, 3, 51, 127
1, 451298, Note_on_c, 0, 48, 127
1, 451298, Note_on_c, 10, 57, 127
1, 451446, Note_off_c, 10, 57, 127
1, 451446, Note_off_c, 0, 48, 127
1, 451449, Note_on_c, 12, 47, 127
1, 451449, Note_on_c, 7, 55, 127
1, 451597, Note_off_c, 7, 55, 127
1, 451597, Note_off_c, 12, 47, 127
1, 451600, Note_on_c, 10, 45, 127
1, 451600, Note_on_c, 6, 54, 127
1, 451748, Note_off_c, 6, 54, 127
1, 451748, Note_off_c, 10, 45, 127
1, 451751, Note_on_c, 7, 43, 127
1, 451751, Note_on_c, 12, 59, 127
1, 451899, Note_off_c, 12, 59, 127
1, 451899, Note_off_c, 7, 43, 127
1, 451902, Note_on_c, 6, 42, 127
1, 451902, Note_on_c, 3, 51, 127
1, 452050, Note_off_c, 3, 51, 127
1, 452050, Note_off_c, 6, 42, 127
1, 452053, Note_on_c, 7, 43, 127
1, 452053, Note_on_c, 4, 52, 127
1, 452201, Note_off_c, 4, 52, 127
1, 452204, Note_on_c, 7, 55, 127
1, 452349, Note_off_c, 7, 43, 127
1, 452352, Note_off_c, 7, 55, 127
1, 452354, Note_on_c, 12, 59, 127
1, 452502, Note_off_c, 12, 59, 127
1, 452505, Note_on_c, 6, 42, 127
1, 452505, Note_on_c, 3, 51, 127
1, 452653, Note_off_c, 3, 51, 127
1, 452656, Note_on_c, 10, 57, 127
1, 452801, Note_off_c, 6, 42, 127
1, 452804, Note_off_c, 10, 57, 127
1, 452806, Note_on_c, 0, 60, 127
1, 452954, Note_off_c, 0, 60, 127
1, 452957, Note_on_c, 7, 43, 127
1, 452957, Note_on_c, 4, 52, 127
1, 453105, Note_off_c, 4, 52, 127
1, 453108, Note_on_c, 7, 55, 127
1, 453253, Note_off_c, 7, 43, 127
1, 453256, Note_off_c, 7, 55, 127
1, 453258, Note_on_c, 12, 59, 127
1, 453406, Note_off_c, 12, 59, 127
1, 453409, Note_on_c, 3, 39, 127
1, 453409, Note_on_c, 12, 47, 127
1, 453557, Note_off_c, 12, 47, 127
1, 453560, Note_on_c, 6, 54, 127
1, 453705, Note_off_c, 3, 39, 127
1, 453708, Note_off_c, 6, 54, 127
1, 453710, Note_on_c, 10, 57, 127
1, 453858, Note_off_c, 10, 57, 127
1, 453861, Note_on_c, 7, 43, 127
1, 453861, Note_on_c, 4, 52, 127
1, 453990, Note_off_c, 7, 43, 127
1, 454009, Note_off_c, 4, 52, 127
1, 454012, Note_on_c, 6, 42, 127
1, 454012, Note_on_c, 6, 54, 127
1, 454122, Note_off_c, 6, 42, 127
1, 454160, Note_off_c, 6, 54, 127
1, 454163, Note_on_c, 4, 40, 127
1, 454163, Note_on_c, 7, 55, 127
1, 454273, Note_off_c, 4, 40, 127
1, 454311, Note_off_c, 7, 55, 127
1, 454314, Note_on_c, 0, 48, 127
1, 454314, Note_on_c, 10, 57, 127
1, 454462, Note_off_c, 10, 57, 127
1, 454465, Note_on_c, 12, 59, 127
1, 454610, Note_off_c, 0, 48, 127
1, 454613, Note_off_c, 12, 59, 127
1, 454615, Note_on_c, 0, 60, 127
1, 454763, Note_off_c, 0, 60, 127
1, 454766, Note_on_c, 6, 42, 127
1, 454766, Note_on_c, 2, 50, 127
1, 454892, Note_off_c, 6, 42, 127
1, 454914, Note_off_c, 2, 50, 127
1, 454916, Note_on_c, 4, 40, 127
1, 454916, Note_on_c, 4, 52, 127
1, 455042, Note_off_c, 4, 40, 127
1, 455064, Note_off_c, 4, 52, 127
1, 455066, Note_on_c, 2, 38, 127
1, 455066, Note_on_c, 6, 54, 127
1, 455192, Note_off_c, 2, 38, 127
1, 455214, Note_off_c, 6, 54, 127
1, 455216, Note_on_c, 12, 47, 127
1, 455216, Note_on_c, 7, 55, 127
1, 455364, Note_off_c, 7, 55, 127
1, 455367, Note_on_c, 10, 57, 127
1, 455512, Note_off_c, 12, 47, 127
1, 455515, Note_off_c, 10, 57, 127
1, 455517, Note_on_c, 12, 59, 127
1, 455665, Note_off_c, 12, 59, 127
1, 455668, Note_on_c, 4, 40, 127
1, 455668, Note_on_c, 0, 48, 127
1, 455801, Note_off_c, 4, 40, 127
1, 455816, Note_off_c, 0, 48, 127
1, 455818, Note_on_c, 2, 38, 127
1, 455818, Note_on_c, 2, 50, 127
1, 455947, Note_off_c, 2, 38, 127
1, 455966, Note_off_c, 2, 50, 127
1, 455969, Note_on_c, 0, 36, 127
1, 455969, Note_on_c, 4, 52, 127
1, 456098, Note_off_c, 0, 36, 127
1, 456117, Note_off_c, 4, 52, 127
1, 456120, Note_on_c, 10, 45, 127
1, 456120, Note_on_c, 6, 54, 127
1, 456268, Note_off_c, 6, 54, 127
1, 456271, Note_on_c, 7, 55, 127
1, 456419, Note_off_c, 7, 55, 127
1, 456422, Note_on_c, 10, 57, 127
1, 456494, Note_off_c, 10, 45, 127
1, 456570, Note_off_c, 10, 57, 127
1, 456572, Note_on_c, 3, 39, 127
1, 456572, Note_on_c, 12, 47, 127
1, 456720, Note_off_c, 12, 47, 127
1, 456723, Note_on_c, 3, 51, 127
1, 456828, Note_off_c, 3, 39, 127
1, 456871, Note_off_c, 3, 51, 127
1, 456874, Note_on_c, 10, 45, 127
1, 456874, Note_on_c, 6, 54, 127
1, 457022, Note_off_c, 6, 54, 127
1, 457022, Note_off_c, 10, 45, 127
1, 457025, Note_on_c, 3, 39, 127
1, 457025, Note_on_c, 10, 57, 127
1, 457173, Note_off_c, 10, 57, 127
1, 457176, Note_on_c, 6, 54, 127
1, 457281, Note_off_c, 3, 39, 127
1, 457324, Note_off_c, 6, 54, 127
1, 457327, Note_on_c, 10, 45, 127
1, 457327, Note_on_c, 3, 51, 127
1, 457475, Note_off_c, 3, 51, 127
1, 457475, Note_off_c, 10, 45, 127
1, 457478, Note_on_c, 4, 40, 127
1, 457478, Note_on_c, 12, 47, 127
1, 457626, Note_off_c, 12, 47, 127
1, 457629, Note_on_c, 4, 52, 127
1, 457734, Note_off_c, 4, 40, 127
1, 457777, Note_off_c, 4, 52, 127
1, 457780, Note_on_c, 10, 45, 127
1, 457780, Note_on_c, 6, 54, 127
1, 457928, Note_off_c, 6, 54, 127
1, 457928, Note_off_c, 10, 45, 127
1, 457931, Note_on_c, 4, 40, 127
1, 457931, Note_on_c, 7, 55, 127
1, 458079, Note_off_c, 7, 55, 127
1, 458082, Note_on_c, 6, 54, 127
1, 458187, Note_off_c, 4, 40, 127
1, 458230, Note_off_c, 6, 54, 127
1, 458233, Note_on_c, 7, 43, 127
1, 458233, Note_on_c, 4, 52, 127
1, 458381, Note_off_c, 4, 52, 127
1, 458381, Note_off_c, 7, 43, 127
1, 458384, Note_on_c, 2, 38, 127
1, 458384, Note_on_c, 8, 56, 127
1, 458532, Note_off_c, 8, 56, 127
1, 458535, Note_on_c, 2, 50, 127
1, 458535, Note_on_c, 5, 53, 127
1, 458680, Note_off_c, 2, 38, 127
1, 458683, Note_off_c, 5, 53, 127
1, 458683, Note_off_c, 2, 50, 127
1, 458685, Note_on_c, 0, 48, 127
1, 458685, Note_on_c, 4, 52, 127
1, 458833, Note_off_c, 4, 52, 127
1, 458833, Note_off_c, 0, 48, 127
1, 458836, Note_on_c, 12, 47, 127
1, 458836, Note_on_c, 2, 50, 127
1, 458984, Note_off_c, 2, 50, 127
1, 458984, Note_off_c, 12, 47, 127
1, 458987, Note_on_c, 10, 45, 127
1, 458987, Note_on_c, 0, 48, 127
1, 459135, Note_off_c, 0, 48, 127
1, 459135, Note_off_c, 10, 45, 127
1, 459138, Note_on_c, 8, 44, 127
1, 459138, Note_on_c, 12, 47, 127
1, 459286, Note_off_c, 12, 47, 127
1, 459286, Note_off_c, 8, 44, 127
1, 459289, Note_on_c, 4, 40, 127
1, 459289, Note_on_c, 10, 57, 127
1, 459437, Note_off_c, 10, 57, 127
1, 459440, Note_on_c, 4, 52, 127
1, 459588, Note_off_c, 4, 52, 127
1, 459591, Note_on_c, 2, 50, 127
1, 459734, Note_off_c, 4, 40, 127
1, 459739, Note_off_c, 2, 50, 127
1, 459742, Note_on_c, 0, 48, 127
1, 459890, Note_off_c, 0, 48, 127
1, 459893, Note_on_c, 12, 47, 127
1, 460041, Note_off_c, 12, 47, 127
1, 460044, Note_on_c, 10, 45, 127
1, 460192, Note_off_c, 10, 45, 127
1, 460195, Note_on_c, 4, 40, 127
1, 460195, Note_on_c, 11, 58, 127
1, 460343, Note_off_c, 11, 58, 127
1, 460346, Note_on_c, 4, 52, 127
1, 460346, Note_on_c, 7, 55, 127
1, 460491, Note_off_c, 4, 40, 127
1, 460494, Note_off_c, 7, 55, 127
1, 460494, Note_off_c, 4, 52, 127
1, 460496, Note_on_c, 2, 50, 127
1, 460496, Note_on_c, 5, 53, 127
1, 460644, Note_off_c, 5, 53, 127
1, 460644, Note_off_c, 2, 50, 127
1, 460647, Note_on_c, 1, 49, 127
1, 460647, Note_on_c, 4, 52, 127
1, 460795, Note_off_c, 4, 52, 127
1, 460795, Note_off_c, 1, 49, 127
1, 460798, Note_on_c, 12, 47, 127
1, 460798, Note_on_c, 2, 50, 127
1, 460946, Note_off_c, 2, 50, 127
1, 460946, Note_off_c, 12, 47, 127
1, 460949, Note_on_c, 11, 46, 127
1, 460949, Note_on_c, 1, 49, 127
1, 461097, Note_off_c, 1, 49, 127
1, 461097, Note_off_c, 11, 46, 127
1, 461100, Note_on_c, 2, 38, 127
1, 461100, Note_on_c, 12, 59, 127
1, 461248, Note_off_c, 12, 59, 127
1, 461251, Note_on_c, 6, 54, 127
1, 461399, Note_off_c, 6, 54, 127
1, 461402, Note_on_c, 4, 52, 127
1, 461550, Note_off_c, 4, 52, 127
1, 461553, Note_on_c, 2, 50, 127
1, 461698, Note_off_c, 2, 38, 127
1, 461701, Note_off_c, 2, 50, 127
1, 461703, Note_on_c, 1, 49, 127
1, 461851, Note_off_c, 1, 49, 127
1, 461854, Note_on_c, 12, 47, 127
1, 462002, Note_off_c, 12, 47, 127
1, 462005, Note_on_c, 4, 40, 127
1, 462005, Note_on_c, 0, 48, 127
1, 462153, Note_off_c, 0, 48, 127
1, 462156, Note_on_c, 11, 58, 127
1, 462304, Note_off_c, 11, 58, 127
1, 462307, Note_on_c, 12, 59, 127
1, 462455, Note_off_c, 12, 59, 127
1, 462458, Note_on_c, 1, 61, 127
1, 462606, Note_off_c, 1, 61, 127
1, 462609, Note_on_c, 2, 62, 127
1, 462662, Note_off_c, 4, 40, 127
1, 462757, Note_off_c, 2, 62, 127
1, 462759, Note_on_c, 4, 64, 127
1, 462907, Note_off_c, 4, 64, 127
1, 462910, Note_on_c, 6, 42, 127
1, 462910, Note_on_c, 6, 54, 127
1, 463058, Note_off_c, 6, 54, 127
1, 463061, Note_on_c, 12, 59, 127
1, 463209, Note_off_c, 12, 59, 127
1, 463212, Note_on_c, 1, 61, 127
1, 463360, Note_off_c, 1, 61, 127
1, 463363, Note_on_c, 2, 62, 127
1, 463511, Note_off_c, 2, 62, 127
1, 463514, Note_on_c, 4, 64, 127
1, 463614, Note_off_c, 6, 42, 127
1, 463662, Note_off_c, 4, 64, 127
1, 463664, Note_on_c, 6, 66, 127
1, 463812, Note_off_c, 6, 66, 127
1, 463815, Note_on_c, 7, 43, 127
1, 463815, Note_on_c, 4, 52, 127
1, 463963, Note_off_c, 4, 52, 127
1, 463966, Note_on_c, 1, 61, 127
1, 464114, Note_off_c, 1, 61, 127
1, 464117, Note_on_c, 2, 62, 127
1, 464265, Note_off_c, 2, 62, 127
1, 464268, Note_on_c, 4, 64, 127
1, 464416, Note_off_c, 4, 64, 127
1, 464419, Note_on_c, 6, 66, 127
1, 464567, Note_off_c, 6, 66, 127
1, 464567, Note_off_c, 7, 43, 127
1, 464570, Note_on_c, 7, 67, 127
1, 464718, Note_off_c, 7, 67, 127
1, 464721, Note_on_c, 6, 42, 127
1, 464721, Note_on_c, 2, 50, 127
1, 464721, Note_on_c, 12, 59, 127
1, 464869, Note_off_c, 12, 59, 127
1, 464872, Note_on_c, 2, 62, 127
1, 465017, Note_off_c, 2, 50, 127
1, 465017, Note_off_c, 6, 42, 127
1, 465020, Note_off_c, 2, 62, 127
1, 465022, Note_on_c, 6, 66, 127
1, 465170, Note_off_c, 6, 66, 127
1, 465173, Note_on_c, 6, 42, 127
1, 465173, Note_on_c, 1, 49, 127
1, 465173, Note_on_c, 11, 58, 127
1, 465321, Note_off_c, 11, 58, 127
1, 465324, Note_on_c, 4, 64, 127
1, 465469, Note_off_c, 1, 49, 127
1, 465469, Note_off_c, 6, 42, 127
1, 465472, Note_off_c, 4, 64, 127
1, 465474, Note_on_c, 7, 67, 127
1, 465622, Note_off_c, 7, 67, 127
1, 465625, Note_on_c, 2, 50, 127
1, 465625, Note_on_c, 6, 42, 127
1, 465625, Note_on_c, 12, 59, 127
1, 465773, Note_off_c, 12, 59, 127
1, 465776, Note_on_c, 2, 62, 127
1, 465921, Note_off_c, 6, 42, 127
1, 465921, Note_off_c, 2, 50, 127
1, 465924, Note_off_c, 2, 62, 127
1, 465926, Note_on_c, 6, 66, 127
1, 466074, Note_off_c, 6, 66, 127
1, 466077, Note_on_c, 6, 42, 127
1, 466077, Note_on_c, 11, 46, 127
1, 466077, Note_on_c, 6, 54, 127
1, 466225, Note_off_c, 6, 54, 127
1, 466228, Note_on_c, 1, 61, 127
1, 466373, Note_off_c, 11, 46, 127
1, 466373, Note_off_c, 6, 42, 127
1, 466376, Note_off_c, 1, 61, 127
1, 466378, Note_on_c, 4, 64, 127
1, 466526, Note_off_c, 4, 64, 127
1, 466529, Note_on_c, 12, 47, 127
1, 466529, Note_on_c, 2, 50, 127
1, 466529, Note_on_c, 12, 59, 127
1, 466677, Note_off_c, 12, 59, 127
1, 466677, Note_off_c, 2, 50, 127
1, 466680, Note_on_c, 4, 52, 127
1, 466680, Note_on_c, 1, 61, 127
1, 466828, Note_off_c, 1, 61, 127
1, 466828, Note_off_c, 4, 52, 127
1, 466831, Note_on_c, 6, 54, 127
1, 466831, Note_on_c, 2, 62, 127
1, 466974, Note_off_c, 12, 47, 127
1, 466979, Note_off_c, 2, 62, 127
1, 466979, Note_off_c, 6, 54, 127
1, 466982, Note_on_c, 7, 55, 127
1, 466982, Note_on_c, 4, 64, 127
1, 467130, Note_off_c, 4, 64, 127
1, 467130, Note_off_c, 7, 55, 127
1, 467133, Note_on_c, 10, 57, 127
1, 467133, Note_on_c, 6, 66, 127
1, 467281, Note_off_c, 6, 66, 127
1, 467281, Note_off_c, 10, 57, 127
1, 467284, Note_on_c, 12, 59, 127
1, 467284, Note_on_c, 7, 67, 127
1, 467432, Note_off_c, 7, 67, 127
1, 467432, Note_off_c, 12, 59, 127
1, 467435, Note_on_c, 6, 42, 127
1, 467435, Note_on_c, 1, 49, 127
1, 467435, Note_on_c, 10, 57, 127
1, 467583, Note_off_c, 10, 57, 127
1, 467583, Note_off_c, 1, 49, 127
1, 467586, Note_on_c, 2, 50, 127
1, 467586, Note_on_c, 12, 59, 127
1, 467734, Note_off_c, 12, 59, 127
1, 467734, Note_off_c, 2, 50, 127
1, 467737, Note_on_c, 4, 52, 127
1, 467737, Note_on_c, 1, 61, 127
1, 467880, Note_off_c, 6, 42, 127
1, 467885, Note_off_c, 1, 61, 127
1, 467885, Note_off_c, 4, 52, 127
1, 467888, Note_on_c, 6, 54, 127
1, 467888, Note_on_c, 2, 62, 127
1, 468036, Note_off_c, 2, 62, 127
1, 468036, Note_off_c, 6, 54, 127
1, 468039, Note_on_c, 7, 55, 127
1, 468039, Note_on_c, 4, 64, 127
1, 468187, Note_off_c, 4, 64, 127
1, 468187, Note_off_c, 7, 55, 127
1, 468190, Note_on_c, 10, 57, 127
1, 468190, Note_on_c, 6, 66, 127
1, 468338, Note_off_c, 6, 66, 127
1, 468338, Note_off_c, 10, 57, 127
1, 468341, Note_on_c, 12, 47, 127
1, 468341, Note_on_c, 7, 43, 127
1, 468341, Note_on_c, 7, 55, 127
1, 468489, Note_off_c, 7, 55, 127
1, 468489, Note_off_c, 12, 47, 127
1, 468492, Note_on_c, 1, 49, 127
1, 468492, Note_on_c, 10, 57, 127
1, 468640, Note_off_c, 10, 57, 127
1, 468640, Note_off_c, 1, 49, 127
1, 468643, Note_on_c, 2, 50, 127
1, 468643, Note_on_c, 12, 59, 127
1, 468786, Note_off_c, 7, 43, 127
1, 468791, Note_off_c, 12, 59, 127
1, 468791, Note_off_c, 2, 50, 127
1, 468794, Note_on_c, 4, 52, 127
1, 468794, Note_on_c, 1, 61, 127
1, 468942, Note_off_c, 1, 61, 127
1, 468942, Note_off_c, 4, 52, 127
1, 468945, Note_on_c, 6, 54, 127
1, 468945, Note_on_c, 2, 62, 127
1, 469093, Note_off_c, 2, 62, 127
1, 469093, Note_off_c, 6, 54, 127
1, 469096, Note_on_c, 7, 55, 127
1, 469096, Note_on_c, 4, 64, 127
1, 469244, Note_off_c, 4, 64, 127
1, 469244, Note_off_c, 7, 55, 127
1, 469247, Note_on_c, 1, 49, 127
1, 469247, Note_on_c, 6, 42, 127
1, 469247, Note_on_c, 11, 46, 127
1, 469247, Note_on_c, 6, 54, 127
1, 469395, Note_off_c, 6, 54, 127
1, 469398, Note_on_c, 11, 58, 127
1, 469546, Note_off_c, 11, 58, 127
1, 469549, Note_on_c, 1, 61, 127
1, 469697, Note_off_c, 1, 61, 127
1, 469700, Note_on_c, 4, 64, 127
1, 469848, Note_off_c, 4, 64, 127
1, 469851, Note_on_c, 1, 61, 127
1, 469904, Note_off_c, 11, 46, 127
1, 469904, Note_off_c, 6, 42, 127
1, 469904, Note_off_c, 1, 49, 127
1, 469999, Note_off_c, 1, 61, 127
1, 470001, Note_on_c, 11, 58, 127
1, 470149, Note_off_c, 11, 58, 127
1, 470152, Note_on_c, 6, 42, 127
1, 470152, Note_on_c, 2, 50, 127
1, 470152, Note_on_c, 12, 47, 127
1, 470152, Note_on_c, 6, 54, 127
1, 470300, Note_off_c, 6, 54, 127
1, 470303, Note_on_c, 12, 59, 127
1, 470451, Note_off_c, 12, 59, 127
1, 470454, Note_on_c, 1, 61, 127
1, 470602, Note_off_c, 1, 61, 127
1, 470605, Note_on_c, 2, 62, 127
1, 470753, Note_off_c, 2, 62, 127
1, 470756, Note_on_c, 1, 61, 127
1, 470809, Note_off_c, 12, 47, 127
1, 470809, Note_off_c, 2, 50, 127
1, 470809, Note_off_c, 6, 42, 127
1, 470904, Note_off_c, 1, 61, 127
1, 470906, Note_on_c, 12, 59, 127
1, 471054, Note_off_c, 12, 59, 127
1, 471057, Note_on_c, 10, 45, 127
1, 471057, Note_on_c, 6, 42, 127
1, 471057, Note_on_c, 6, 54, 127
1, 471057, Note_on_c, 3, 63, 127
1, 471205, Note_off_c, 3, 63, 127
1, 471208, Note_on_c, 0, 60, 127
1, 471356, Note_off_c, 0, 60, 127
1, 471359, Note_on_c, 12, 59, 127
1, 471507, Note_off_c, 12, 59, 127
1, 471510, Note_on_c, 10, 57, 127
1, 471658, Note_off_c, 10, 57, 127
1, 471661, Note_on_c, 7, 55, 127
1, 471714, Note_off_c, 6, 54, 127
1, 471714, Note_off_c, 6, 42, 127
1, 471714, Note_off_c, 10, 45, 127
1, 471809, Note_off_c, 7, 55, 127
1, 471811, Note_on_c, 6, 54, 127
1, 471959, Note_off_c, 6, 54, 127
1, 471962, Note_on_c, 4, 52, 127
1, 471962, Note_on_c, 12, 47, 127
1, 471962, Note_on_c, 7, 43, 127
1, 471962, Note_on_c, 12, 59, 127
1, 472110, Note_off_c, 12, 59, 127
1, 472113, Note_on_c, 4, 64, 127
1, 472261, Note_off_c, 4, 64, 127
1, 472264, Note_on_c, 6, 66, 127
1, 472412, Note_off_c, 6, 66, 127
1, 472415, Note_on_c, 7, 67, 127
1, 472563, Note_off_c, 7, 67, 127
1, 472566, Note_on_c, 6, 66, 127
1, 472619, Note_off_c, 7, 43, 127
1, 472619, Note_off_c, 12, 47, 127
1, 472619, Note_off_c, 4, 52, 127
1, 472714, Note_off_c, 6, 66, 127
1, 472716, Note_on_c, 4, 64, 127
1, 472864, Note_off_c, 4, 64, 127
1, 472867, Note_on_c, 8, 44, 127
1, 472867, Note_on_c, 5, 53, 127
1, 472867, Note_on_c, 12, 47, 127
1, 472867, Note_on_c, 2, 62, 127
1, 473015, Note_off_c, 2, 62, 127
1, 473018, Note_on_c, 5, 65, 127
1, 473166, Note_off_c, 5, 65, 127
1, 473169, Note_on_c, 4, 64, 127
1, 473317, Note_off_c, 4, 64, 127
1, 473320, Note_on_c, 2, 62, 127
1, 473468, Note_off_c, 2, 62, 127
1, 473471, Note_on_c, 0, 60, 127
1, 473524, Note_off_c, 12, 47, 127
1, 473524, Note_off_c, 5, 53, 127
1, 473524, Note_off_c, 8, 44, 127
1, 473619, Note_off_c, 0, 60, 127
1, 473621, Note_on_c, 12, 59, 127
1, 473769, Note_off_c, 12, 59, 127
1, 473772, Note_on_c, 4, 40, 127
1, 473772, Note_on_c, 12, 47, 127
1, 473772, Note_on_c, 4, 52, 127
1, 473772, Note_on_c, 8, 68, 127
1, 473920, Note_off_c, 8, 68, 127
1, 473923, Note_on_c, 5, 65, 127
1, 474071, Note_off_c, 5, 65, 127
1, 474074, Note_on_c, 4, 64, 127
1, 474222, Note_off_c, 4, 64, 127
1, 474225, Note_on_c, 2, 62, 127
1, 474373, Note_off_c, 2, 62, 127
1, 474376, Note_on_c, 0, 60, 127
1, 474429, Note_off_c, 4, 52, 127
1, 474429, Note_off_c, 12, 47, 127
1, 474429, Note_off_c, 4, 40, 127
1, 474524, Note_off_c, 0, 60, 127
1, 474526, Note_on_c, 12, 59, 127
1, 474674, Note_off_c, 12, 59, 127
1, 474677, Note_on_c, 0, 48, 127
1, 474677, Note_on_c, 4, 52, 127
1, 474677, Note_on_c, 10, 45, 127
1, 474677, Note_on_c, 0, 60, 127
1, 474825, Note_off_c, 0, 60, 127
1, 474828, Note_on_c, 10, 69, 127
1, 474976, Note_off_c, 10, 69, 127
1, 474979, Note_on_c, 12, 71, 127
1, 475127, Note_off_c, 12, 71, 127
1, 475130, Note_on_c, 0, 72, 127
1, 475278, Note_off_c, 0, 72, 127
1, 475281, Note_on_c, 12, 71, 127
1, 475334, Note_off_c, 10, 45, 127
1, 475334, Note_off_c, 4, 52, 127
1, 475334, Note_off_c, 0, 48, 127
1, 475429, Note_off_c, 12, 71, 127
1, 475431, Note_on_c, 10, 69, 127
1, 475579, Note_off_c, 10, 69, 127
1, 475582, Note_on_c, 12, 47, 127
1, 475582, Note_on_c, 2, 50, 127
1, 475582, Note_on_c, 8, 56, 127
1, 475582, Note_on_c, 2, 62, 127
1, 475730, Note_off_c, 2, 62, 127
1, 475733, Note_on_c, 10, 69, 127
1, 475881, Note_off_c, 10, 69, 127
1, 475884, Note_on_c, 12, 71, 127
1, 476032, Note_off_c, 12, 71, 127
1, 476035, Note_on_c, 0, 72, 127
1, 476183, Note_off_c, 0, 72, 127
1, 476186, Note_on_c, 12, 71, 127
1, 476239, Note_off_c, 8, 56, 127
1, 476239, Note_off_c, 2, 50, 127
1, 476239, Note_off_c, 12, 47, 127
1, 476334, Note_off_c, 12, 71, 127
1, 476336, Note_on_c, 10, 69, 127
1, 476484, Note_off_c, 10, 69, 127
1, 476487, Note_on_c, 0, 48, 127
1, 476487, Note_on_c, 4, 52, 127
1, 476487, Note_on_c, 10, 57, 127
1, 476487, Note_on_c, 4, 64, 127
1, 476635, Note_off_c, 4, 64, 127
1, 476638, Note_on_c, 10, 69, 127
1, 476786, Note_off_c, 10, 69, 127
1, 476789, Note_on_c, 12, 71, 127
1, 476937, Note_off_c, 12, 71, 127
1, 476940, Note_on_c, 0, 72, 127
1, 477088, Note_off_c, 0, 72, 127
1, 477091, Note_on_c, 12, 71, 127
1, 477144, Note_off_c, 10, 57, 127
1, 477144, Note_off_c, 4, 52, 127
1, 477144, Note_off_c, 0, 48, 127
1, 477239, Note_off_c, 12, 71, 127
1, 477241, Note_on_c, 10, 69, 127
1, 477389, Note_off_c, 10, 69, 127
1, 477392, Note_on_c, 0, 48, 127
1, 477392, Note_on_c, 6, 54, 127
1, 477392, Note_on_c, 10, 57, 127
1, 477392, Note_on_c, 3, 75, 127
1, 477540, Note_off_c, 3, 75, 127
1, 477543, Note_on_c, 10, 69, 127
1, 477691, Note_off_c, 10, 69, 127
1, 477694, Note_on_c, 12, 71, 127
1, 477842, Note_off_c, 12, 71, 127
1, 477845, Note_on_c, 0, 72, 127
1, 477993, Note_off_c, 0, 72, 127
1, 477996, Note_on_c, 12, 71, 127
1, 478049, Note_off_c, 10, 57, 127
1, 478049, Note_off_c, 6, 54, 127
1, 478049, Note_off_c, 0, 48, 127
1, 478144, Note_off_c, 12, 71, 127
1, 478146, Note_on_c, 10, 69, 127
1, 478294, Note_off_c, 10, 69, 127
1, 478297, Note_on_c, 4, 52, 127
1, 478297, Note_on_c, 1, 49, 127
1, 478297, Note_on_c, 10, 57, 127
1, 478297, Note_on_c, 4, 76, 127
1, 478445, Note_off_c, 4, 76, 127
1, 478448, Note_on_c, 10, 69, 127
1, 478596, Note_off_c, 10, 69, 127
1, 478599, Note_on_c, 12, 71, 127
1, 478747, Note_off_c, 12, 71, 127
1, 478750, Note_on_c, 0, 72, 127
1, 478898, Note_off_c, 0, 72, 127
1, 478901, Note_on_c, 12, 71, 127
1, 478954, Note_off_c, 10, 57, 127
1, 478954, Note_off_c, 1, 49, 127
1, 478954, Note_off_c, 4, 52, 127
1, 479049, Note_off_c, 12, 71, 127
1, 479051, Note_on_c, 10, 69, 127
1, 479199, Note_off_c, 10, 69, 127
1, 479202, Note_on_c, 3, 51, 127
1, 479202, Note_on_c, 6, 54, 127
1, 479202, Note_on_c, 10, 57, 127
1, 479202, Note_on_c, 6, 78, 127
1, 479350, Note_off_c, 6, 78, 127
1, 479353, Note_on_c, 10, 69, 127
1, 479501, Note_off_c, 10, 69, 127
1, 479504, Note_on_c, 12, 71, 127
1, 479652, Note_off_c, 12, 71, 127
1, 479655, Note_on_c, 0, 72, 127
1, 479803, Note_off_c, 0, 72, 127
1, 479806, Note_on_c, 12, 71, 127
1, 479859, Note_off_c, 10, 57, 127
1, 479859, Note_off_c, 6, 54, 127
1, 479859, Note_off_c, 3, 51, 127
1, 479954, Note_off_c, 12, 71, 127
1, 479956, Note_on_c, 10, 69, 127
1, 480104, Note_off_c, 10, 69, 127
1, 480107, Note_on_c, 6, 54, 127
1, 480107, Note_on_c, 12, 47, 127
1, 480107, Note_on_c, 12, 59, 127
1, 480107, Note_on_c, 3, 75, 127
1, 480255, Note_off_c, 3, 75, 127
1, 480258, Note_on_c, 0, 72, 127
1, 480406, Note_off_c, 0, 72, 127
1, 480409, Note_on_c, 12, 71, 127
1, 480557, Note_off_c, 12, 71, 127
1, 480560, Note_on_c, 10, 69, 127
1, 480708, Note_off_c, 10, 69, 127
1, 480711, Note_on_c, 7, 67, 127
1, 480764, Note_off_c, 12, 59, 127
1, 480764, Note_off_c, 12, 47, 127
1, 480764, Note_off_c, 6, 54, 127
1, 480859, Note_off_c, 7, 67, 127
1, 480861, Note_on_c, 6, 66, 127
1, 481009, Note_off_c, 6, 66, 127
1, 481012, Note_on_c, 4, 52, 127
1, 481012, Note_on_c, 7, 67, 127
1, 481160, Note_off_c, 4, 52, 127
1, 481163, Note_on_c, 7, 55, 127
1, 481308, Note_off_c, 7, 67, 127
1, 481311, Note_off_c, 7, 55, 127
1, 481313, Note_on_c, 12, 59, 127
1, 481461, Note_off_c, 12, 59, 127
1, 481464, Note_on_c, 1, 49, 127
1, 481464, Note_on_c, 4, 76, 127
1, 481612, Note_off_c, 1, 49, 127
1, 481615, Note_on_c, 7, 55, 127
1, 481758, Note_off_c, 4, 76, 127
1, 481763, Note_off_c, 7, 55, 127
1, 481766, Note_on_c, 11, 58, 127
1, 481766, Note_on_c, 7, 67, 127
1, 481914, Note_off_c, 7, 67, 127
1, 481914, Note_off_c, 11, 58, 127
1, 481917, Note_on_c, 2, 50, 127
1, 481917, Note_on_c, 6, 66, 127
1, 482065, Note_off_c, 2, 50, 127
1, 482068, Note_on_c, 6, 54, 127
1, 482213, Note_off_c, 6, 66, 127
1, 482216, Note_off_c, 6, 54, 127
1, 482218, Note_on_c, 10, 57, 127
1, 482366, Note_off_c, 10, 57, 127
1, 482369, Note_on_c, 12, 47, 127
1, 482369, Note_on_c, 2, 74, 127
1, 482517, Note_off_c, 12, 47, 127
1, 482520, Note_on_c, 5, 53, 127
1, 482663, Note_off_c, 2, 74, 127
1, 482668, Note_off_c, 5, 53, 127
1, 482671, Note_on_c, 10, 57, 127
1, 482671, Note_on_c, 5, 65, 127
1, 482819, Note_off_c, 5, 65, 127
1, 482819, Note_off_c, 10, 57, 127
1, 482822, Note_on_c, 0, 48, 127
1, 482822, Note_on_c, 4, 64, 127
1, 482970, Note_off_c, 0, 48, 127
1, 482973, Note_on_c, 4, 52, 127
1, 483118, Note_off_c, 4, 64, 127
1, 483121, Note_off_c, 4, 52, 127
1, 483123, Note_on_c, 7, 55, 127
1, 483271, Note_off_c, 7, 55, 127
1, 483274, Note_on_c, 10, 45, 127
1, 483274, Note_on_c, 0, 72, 127
1, 483422, Note_off_c, 10, 45, 127
1, 483425, Note_on_c, 0, 48, 127
1, 483568, Note_off_c, 0, 72, 127
1, 483573, Note_off_c, 0, 48, 127
1, 483576, Note_on_c, 5, 53, 127
1, 483576, Note_on_c, 4, 64, 127
1, 483724, Note_off_c, 4, 64, 127
1, 483724, Note_off_c, 5, 53, 127
1, 483727, Note_on_c, 12, 47, 127
1, 483727, Note_on_c, 2, 62, 127
1, 483875, Note_off_c, 12, 47, 127
1, 483878, Note_on_c, 2, 50, 127
1, 484021, Note_off_c, 2, 62, 127
1, 484026, Note_off_c, 2, 50, 127
1, 484029, Note_on_c, 5, 53, 127
1, 484029, Note_on_c, 0, 72, 127
1, 484177, Note_off_c, 0, 72, 127
1, 484177, Note_off_c, 5, 53, 127
1, 484180, Note_on_c, 8, 44, 127
1, 484180, Note_on_c, 12, 71, 127
1, 484328, Note_off_c, 8, 44, 127
1, 484331, Note_on_c, 12, 47, 127
1, 484474, Note_off_c, 12, 71, 127
1, 484479, Note_off_c, 12, 47, 127
1, 484482, Note_on_c, 4, 52, 127
1, 484482, Note_on_c, 2, 62, 127
1, 484630, Note_off_c, 2, 62, 127
1, 484630, Note_off_c, 4, 52, 127
1, 484633, Note_on_c, 10, 45, 127
1, 484633, Note_on_c, 0, 60, 127
1, 484781, Note_off_c, 10, 45, 127
1, 484784, Note_on_c, 0, 48, 127
1, 484929, Note_off_c, 0, 60, 127
1, 484932, Note_off_c, 0, 48, 127
1, 484934, Note_on_c, 4, 52, 127
1, 485082, Note_off_c, 4, 52, 127
1, 485085, Note_on_c, 8, 44, 127
1, 485085, Note_on_c, 12, 59, 127
1, 485233, Note_off_c, 8, 44, 127
1, 485236, Note_on_c, 2, 50, 127
1, 485381, Note_off_c, 12, 59, 127
1, 485384, Note_off_c, 2, 50, 127
1, 485386, Note_on_c, 5, 53, 127
1, 485534, Note_off_c, 5, 53, 127
1, 485537, Note_on_c, 10, 45, 127
1, 485537, Note_on_c, 0, 60, 127
1, 485685, Note_off_c, 10, 45, 127
1, 485688, Note_on_c, 0, 48, 127
1, 485833, Note_off_c, 0, 60, 127
1, 485836, Note_off_c, 0, 48, 127
1, 485838, Note_on_c, 4, 52, 127
1, 485986, Note_off_c, 4, 52, 127
1, 485989, Note_on_c, 4, 40, 127
1, 485989, Note_on_c, 8, 56, 127
1, 486137, Note_off_c, 4, 40, 127
1, 486140, Note_on_c, 12, 47, 127
1, 486285, Note_off_c, 8, 56, 127
1, 486288, Note_off_c, 12, 47, 127
1, 486290, Note_on_c, 2, 50, 127
1, 486438, Note_off_c, 2, 50, 127
1, 486441, Note_on_c, 0, 48, 127
1, 486441, Note_on_c, 10, 57, 127
1, 486589, Note_off_c, 10, 57, 127
1, 486592, Note_on_c, 0, 60, 127
1, 486737, Note_off_c, 0, 48, 127
1, 486740, Note_off_c, 0, 60, 127
1, 486742, Note_on_c, 4, 64, 127
1, 486890, Note_off_c, 4, 64, 127
1, 486893, Note_on_c, 12, 47, 127
1, 486893, Note_on_c, 8, 56, 127
1, 487041, Note_off_c, 8, 56, 127
1, 487044, Note_on_c, 2, 62, 127
1, 487189, Note_off_c, 12, 47, 127
1, 487192, Note_off_c, 2, 62, 127
1, 487194, Note_on_c, 5, 65, 127
1, 487342, Note_off_c, 5, 65, 127
1, 487345, Note_on_c, 0, 48, 127
1, 487345, Note_on_c, 10, 57, 127
1, 487493, Note_off_c, 10, 57, 127
1, 487496, Note_on_c, 0, 60, 127
1, 487641, Note_off_c, 0, 48, 127
1, 487644, Note_off_c, 0, 60, 127
1, 487646, Note_on_c, 4, 64, 127
1, 487796, Note_on_c, 4, 52, 127
1, 487946, Note_on_c, 12, 59, 127
1, 488089, Note_off_c, 4, 64, 127
1, 488091, Note_off_c, 4, 52, 127
1, 488094, Note_off_c, 12, 59, 127
1, 488096, Note_on_c, 2, 62, 127
1, 488244, Note_off_c, 2, 62, 127
1, 488247, Note_on_c, 0, 60, 127
1, 488247, Note_on_c, 10, 57, 127
1, 488247, Note_on_c, 10, 69, 127
1, 488397, Note_on_c, 0, 72, 127
1, 488542, Note_off_c, 10, 69, 127
1, 488542, Note_off_c, 10, 57, 127
1, 488542, Note_off_c, 0, 60, 127
1, 488545, Note_off_c, 0, 72, 127
1, 488547, Note_on_c, 4, 76, 127
1, 488695, Note_off_c, 4, 76, 127
1, 488698, Note_on_c, 12, 59, 127
1, 488698, Note_on_c, 4, 52, 127
1, 488698, Note_on_c, 8, 68, 127
1, 488848, Note_on_c, 2, 74, 127
1, 488993, Note_off_c, 8, 68, 127
1, 488993, Note_off_c, 4, 52, 127
1, 488993, Note_off_c, 12, 59, 127
1, 488996, Note_off_c, 2, 74, 127
1, 488998, Note_on_c, 5, 77, 127
1, 489146, Note_off_c, 5, 77, 127
1, 489149, Note_on_c, 0, 48, 127
1, 489149, Note_on_c, 0, 60, 127
1, 489149, Note_on_c, 10, 69, 127
1, 489299, Note_on_c, 0, 72, 127
1, 489444, Note_off_c, 10, 69, 127
1, 489444, Note_off_c, 0, 60, 127
1, 489444, Note_off_c, 0, 48, 127
1, 489447, Note_off_c, 0, 72, 127
1, 489449, Note_on_c, 4, 76, 127
1, 489597, Note_off_c, 4, 76, 127
1, 489600, Note_on_c, 8, 56, 127
1, 489600, Note_on_c, 4, 52, 127
1, 489600, Note_on_c, 4, 64, 127
1, 489750, Note_on_c, 12, 71, 127
1, 489895, Note_off_c, 4, 64, 127
1, 489895, Note_off_c, 4, 52, 127
1, 489895, Note_off_c, 8, 56, 127
1, 489898, Note_off_c, 12, 71, 127
1, 489900, Note_on_c, 2, 74, 127
1, 490048, Note_off_c, 2, 74, 127
1, 490051, Note_on_c, 10, 57, 127
1, 490051, Note_on_c, 5, 53, 127
1, 490051, Note_on_c, 10, 69, 127
1, 490199, Note_off_c, 10, 69, 127
1, 490202, Note_on_c, 12, 71, 127
1, 490350, Note_off_c, 12, 71, 127
1, 490353, Note_on_c, 0, 72, 127
1, 490501, Note_off_c, 0, 72, 127
1, 490504, Note_on_c, 2, 74, 127
1, 490647, Note_off_c, 5, 53, 127
1, 490647, Note_off_c, 10, 57, 127
1, 490652, Note_off_c, 2, 74, 127
1, 490655, Note_on_c, 7, 55, 127
1, 490655, Note_on_c, 4, 76, 127
1, 490803, Note_off_c, 4, 76, 127
1, 490803, Note_off_c, 7, 55, 127
1, 490806, Note_on_c, 10, 57, 127
1, 490806, Note_on_c, 5, 77, 127
1, 490954, Note_off_c, 5, 77, 127
1, 490954, Note_off_c, 10, 57, 127
1, 490957, Note_on_c, 12, 47, 127
1, 490957, Note_on_c, 7, 67, 127
1, 491105, Note_off_c, 7, 67, 127
1, 491105, Note_off_c, 12, 47, 127
1, 491108, Note_on_c, 0, 48, 127
1, 491108, Note_on_c, 10, 69, 127
1, 491256, Note_off_c, 10, 69, 127
1, 491256, Note_off_c, 0, 48, 127
1, 491259, Note_on_c, 2, 50, 127
1, 491259, Note_on_c, 12, 71, 127
1, 491407, Note_off_c, 12, 71, 127
1, 491407, Note_off_c, 2, 50, 127
1, 491410, Note_on_c, 4, 52, 127
1, 491410, Note_on_c, 0, 72, 127
1, 491558, Note_off_c, 0, 72, 127
1, 491558, Note_off_c, 4, 52, 127
1, 491561, Note_on_c, 5, 53, 127
1, 491561, Note_on_c, 2, 74, 127
1, 491709, Note_off_c, 2, 74, 127
1, 491709, Note_off_c, 5, 53, 127
1, 491712, Note_on_c, 7, 55, 127
1, 491712, Note_on_c, 4, 76, 127
1, 491860, Note_off_c, 4, 76, 127
1, 491860, Note_off_c, 7, 55, 127
1, 491863, Note_on_c, 10, 57, 127
1, 491863, Note_on_c, 5, 65, 127
1, 492011, Note_off_c, 5, 65, 127
1, 492011, Note_off_c, 10, 57, 127
1, 492014, Note_on_c, 12, 59, 127
1, 492014, Note_on_c, 7, 67, 127
1, 492162, Note_off_c, 7, 67, 127
1, 492162, Note_off_c, 12, 59, 127
1, 492165, Note_on_c, 0, 60, 127
1, 492165, Note_on_c, 10, 69, 127
1, 492313, Note_off_c, 10, 69, 127
1, 492313, Note_off_c, 0, 60, 127
1, 492316, Note_on_c, 2, 62, 127
1, 492316, Note_on_c, 12, 71, 127
1, 492464, Note_off_c, 12, 71, 127
1, 492464, Note_off_c, 2, 62, 127
1, 492467, Note_on_c, 4, 64, 127
1, 492467, Note_on_c, 0, 72, 127
1, 492615, Note_off_c, 0, 72, 127
1, 492615, Note_off_c, 4, 64, 127
1, 492618, Note_on_c, 5, 65, 127
1, 492618, Note_on_c, 2, 74, 127
1, 492766, Note_off_c, 2, 74, 127
1, 492766, Note_off_c, 5, 65, 127
1, 492769, Note_on_c, 8, 56, 127
1, 492769, Note_on_c, 4, 64, 127
1, 492917, Note_off_c, 4, 64, 127
1, 492920, Note_on_c, 8, 68, 127
1, 493068, Note_off_c, 8, 68, 127
1, 493071, Note_on_c, 12, 71, 127
1, 493214, Note_off_c, 8, 56, 127
1, 493219, Note_off_c, 12, 71, 127
1, 493222, Note_on_c, 4, 52, 127
1, 493222, Note_on_c, 2, 74, 127
1, 493370, Note_off_c, 2, 74, 127
1, 493373, Note_on_c, 8, 56, 127
1, 493373, Note_on_c, 12, 71, 127
1, 493518, Note_off_c, 4, 52, 127
1, 493521, Note_off_c, 12, 71, 127
1, 493521, Note_off_c, 8, 56, 127
1, 493523, Note_on_c, 12, 59, 127
1, 493523, Note_on_c, 8, 68, 127
1, 493671, Note_off_c, 8, 68, 127
1, 493671, Note_off_c, 12, 59, 127
1, 493674, Note_on_c, 0, 60, 127
1, 493674, Note_on_c, 4, 64, 127
1, 493822, Note_off_c, 4, 64, 127
1, 493825, Note_on_c, 10, 69, 127
1, 493973, Note_off_c, 10, 69, 127
1, 493976, Note_on_c, 12, 71, 127
1, 494124, Note_off_c, 12, 71, 127
1, 494127, Note_on_c, 10, 57, 127
1, 494127, Note_on_c, 0, 72, 127
1, 494272, Note_off_c, 0, 60, 127
1, 494275, Note_off_c, 0, 72, 127
1, 494275, Note_off_c, 10, 57, 127
1, 494277, Note_on_c, 12, 59, 127
1, 494277, Note_on_c, 12, 71, 127
1, 494425, Note_off_c, 12, 71, 127
1, 494425, Note_off_c, 12, 59, 127
1, 494428, Note_on_c, 0, 60, 127
1, 494428, Note_on_c, 10, 69, 127
1, 494576, Note_off_c, 10, 69, 127
1, 494576, Note_off_c, 0, 60, 127
1, 494579, Note_on_c, 7, 55, 127
1, 494579, Note_on_c, 1, 73, 127
1, 494727, Note_off_c, 1, 73, 127
1, 494727, Note_off_c, 7, 55, 127
1, 494730, Note_on_c, 7, 67, 127
1, 494730, Note_on_c, 11, 70, 127
1, 494878, Note_off_c, 11, 70, 127
1, 494878, Note_off_c, 7, 67, 127
1, 494881, Note_on_c, 5, 65, 127
1, 494881, Note_on_c, 10, 69, 127
1, 495029, Note_off_c, 10, 69, 127
1, 495029, Note_off_c, 5, 65, 127
1, 495032, Note_on_c, 4, 64, 127
1, 495032, Note_on_c, 7, 67, 127
1, 495180, Note_off_c, 7, 67, 127
1, 495180, Note_off_c, 4, 64, 127
1, 495183, Note_on_c, 2, 62, 127
1, 495183, Note_on_c, 5, 65, 127
1, 495331, Note_off_c, 5, 65, 127
1, 495331, Note_off_c, 2, 62, 127
1, 495334, Note_on_c, 1, 61, 127
1, 495334, Note_on_c, 4, 64, 127
1, 495482, Note_off_c, 4, 64, 127
1, 495482, Note_off_c, 1, 61, 127
1, 495485, Note_on_c, 5, 53, 127
1, 495485, Note_on_c, 2, 74, 127
1, 495633, Note_off_c, 2, 74, 127
1, 495636, Note_on_c, 10, 69, 127
1, 495784, Note_off_c, 10, 69, 127
1, 495787, Note_on_c, 7, 67, 127
1, 495935, Note_off_c, 7, 67, 127
1, 495938, Note_on_c, 5, 65, 127
1, 496086, Note_off_c, 5, 65, 127
1, 496089, Note_on_c, 4, 64, 127
1, 496237, Note_off_c, 4, 64, 127
1, 496240, Note_on_c, 2, 62, 127
1, 496260, Note_off_c, 5, 53, 127
1, 496388, Note_off_c, 2, 62, 127
1, 496390, Note_on_c, 6, 54, 127
1, 496390, Note_on_c, 3, 75, 127
1, 496538, Note_off_c, 3, 75, 127
1, 496538, Note_off_c, 6, 54, 127
1, 496541, Note_on_c, 10, 69, 127
1, 496541, Note_on_c, 0, 72, 127
1, 496689, Note_off_c, 0, 72, 127
1, 496689, Note_off_c, 10, 69, 127
1, 496692, Note_on_c, 7, 67, 127
1, 496692, Note_on_c, 12, 71, 127
1, 496840, Note_off_c, 12, 71, 127
1, 496840, Note_off_c, 7, 67, 127
1, 496843, Note_on_c, 6, 66, 127
1, 496843, Note_on_c, 10, 69, 127
1, 496991, Note_off_c, 10, 69, 127
1, 496991, Note_off_c, 6, 66, 127
1, 496994, Note_on_c, 4, 64, 127
1, 496994, Note_on_c, 7, 67, 127
1, 497142, Note_off_c, 7, 67, 127
1, 497142, Note_off_c, 4, 64, 127
1, 497145, Note_on_c, 3, 63, 127
1, 497145, Note_on_c, 6, 66, 127
1, 497293, Note_off_c, 6, 66, 127
1, 497293, Note_off_c, 3, 63, 127
1, 497296, Note_on_c, 4, 52, 127
1, 497296, Note_on_c, 4, 76, 127
1, 497444, Note_off_c, 4, 76, 127
1, 497447, Note_on_c, 12, 71, 127
1, 497595, Note_off_c, 12, 71, 127
1, 497598, Note_on_c, 10, 69, 127
1, 497746, Note_off_c, 10, 69, 127
1, 497749, Note_on_c, 7, 67, 127
1, 497894, Note_off_c, 4, 52, 127
1, 497897, Note_off_c, 7, 67, 127
1, 497899, Note_on_c, 6, 66, 127
1, 498047, Note_off_c, 6, 66, 127
1, 498050, Note_on_c, 4, 64, 127
1, 498198, Note_off_c, 4, 64, 127
1, 498201, Note_on_c, 8, 56, 127
1, 498201, Note_on_c, 5, 77, 127
1, 498349, Note_off_c, 5, 77, 127
1, 498349, Note_off_c, 8, 56, 127
1, 498352, Note_on_c, 12, 59, 127
1, 498352, Note_on_c, 2, 74, 127
1, 498500, Note_off_c, 2, 74, 127
1, 498500, Note_off_c, 12, 59, 127
1, 498503, Note_on_c, 0, 60, 127
1, 498503, Note_on_c, 0, 72, 127
1, 498651, Note_off_c, 0, 72, 127
1, 498651, Note_off_c, 0, 60, 127
1, 498654, Note_on_c, 2, 62, 127
1, 498654, Note_on_c, 12, 71, 127
1, 498802, Note_off_c, 12, 71, 127
1, 498802, Note_off_c, 2, 62, 127
1, 498805, Note_on_c, 4, 64, 127
1, 498805, Note_on_c, 10, 69, 127
1, 498953, Note_off_c, 10, 69, 127
1, 498953, Note_off_c, 4, 64, 127
1, 498956, Note_on_c, 5, 65, 127
1, 498956, Note_on_c, 8, 68, 127
1, 499104, Note_off_c, 8, 68, 127
1, 499104, Note_off_c, 5, 65, 127
1, 499107, Note_on_c, 0, 60, 127
1, 499107, Note_on_c, 4, 76, 127
1, 499255, Note_off_c, 4, 76, 127
1, 499255, Note_off_c, 0, 60, 127
1, 499258, Note_on_c, 2, 62, 127
1, 499258, Note_on_c, 2, 74, 127
1, 499406, Note_off_c, 2, 74, 127
1, 499406, Note_off_c, 2, 62, 127
1, 499409, Note_on_c, 4, 64, 127
1, 499409, Note_on_c, 0, 72, 127
1, 499557, Note_off_c, 0, 72, 127
1, 499557, Note_off_c, 4, 64, 127
1, 499560, Note_on_c, 5, 53, 127
1, 499560, Note_on_c, 10, 81, 127
1, 499708, Note_off_c, 5, 53, 127
1, 499711, Note_on_c, 7, 55, 127
1, 499856, Note_off_c, 10, 81, 127
1, 499859, Note_off_c, 7, 55, 127
1, 499861, Note_on_c, 10, 57, 127
1, 500009, Note_off_c, 10, 57, 127
1, 500012, Note_on_c, 12, 59, 127
1, 500012, Note_on_c, 2, 74, 127
1, 500160, Note_off_c, 2, 74, 127
1, 500160, Note_off_c, 12, 59, 127
1, 500163, Note_on_c, 0, 60, 127
1, 500163, Note_on_c, 0, 72, 127
1, 500311, Note_off_c, 0, 72, 127
1, 500311, Note_off_c, 0, 60, 127
1, 500314, Note_on_c, 2, 62, 127
1, 500314, Note_on_c, 12, 71, 127
1, 500462, Note_off_c, 12, 71, 127
1, 500462, Note_off_c, 2, 62, 127
1, 500465, Note_on_c, 4, 52, 127
1, 500465, Note_on_c, 7, 79, 127
1, 500613, Note_off_c, 4, 52, 127
1, 500616, Note_on_c, 5, 53, 127
1, 500761, Note_off_c, 7, 79, 127
1, 500764, Note_off_c, 5, 53, 127
1, 500766, Note_on_c, 7, 55, 127
1, 500914, Note_off_c, 7, 55, 127
1, 500917, Note_on_c, 10, 57, 127
1, 500917, Note_on_c, 0, 72, 127
1, 501065, Note_off_c, 0, 72, 127
1, 501065, Note_off_c, 10, 57, 127
1, 501068, Note_on_c, 12, 59, 127
1, 501068, Note_on_c, 12, 71, 127
1, 501216, Note_off_c, 12, 71, 127
1, 501216, Note_off_c, 12, 59, 127
1, 501219, Note_on_c, 0, 60, 127
1, 501219, Note_on_c, 10, 69, 127
1, 501367, Note_off_c, 10, 69, 127
1, 501367, Note_off_c, 0, 60, 127
1, 501370, Note_on_c, 2, 50, 127
1, 501370, Note_on_c, 5, 77, 127
1, 501518, Note_off_c, 2, 50, 127
1, 501521, Note_on_c, 4, 52, 127
1, 501666, Note_off_c, 5, 77, 127
1, 501669, Note_off_c, 4, 52, 127
1, 501671, Note_on_c, 5, 53, 127
1, 501819, Note_off_c, 5, 53, 127
1, 501822, Note_on_c, 7, 55, 127
1, 501822, Note_on_c, 12, 71, 127
1, 501970, Note_off_c, 12, 71, 127
1, 501970, Note_off_c, 7, 55, 127
1, 501973, Note_on_c, 10, 57, 127
1, 501973, Note_on_c, 10, 69, 127
1, 502121, Note_off_c, 10, 69, 127
1, 502121, Note_off_c, 10, 57, 127
1, 502124, Note_on_c, 12, 59, 127
1, 502124, Note_on_c, 7, 67, 127
1, 502272, Note_off_c, 7, 67, 127
1, 502272, Note_off_c, 12, 59, 127
1, 502275, Note_on_c, 0, 48, 127
1, 502275, Note_on_c, 4, 76, 127
1, 502423, Note_off_c, 0, 48, 127
1, 502426, Note_on_c, 2, 50, 127
1, 502571, Note_off_c, 4, 76, 127
1, 502574, Note_off_c, 2, 50, 127
1, 502576, Note_on_c, 4, 52, 127
1, 502724, Note_off_c, 4, 52, 127
1, 502727, Note_on_c, 6, 42, 127
1, 502727, Note_on_c, 3, 75, 127
1, 502877, Note_on_c, 10, 69, 127
1, 503022, Note_off_c, 3, 75, 127
1, 503025, Note_off_c, 10, 69, 127
1, 503027, Note_on_c, 12, 71, 127
1, 503175, Note_off_c, 12, 71, 127
1, 503178, Note_on_c, 0, 72, 127
1, 503323, Note_off_c, 6, 42, 127
1, 503326, Note_off_c, 0, 72, 127
1, 503328, Note_on_c, 12, 71, 127
1, 503476, Note_off_c, 12, 71, 127
1, 503479, Note_on_c, 10, 69, 127
1, 503627, Note_off_c, 10, 69, 127
1, 503630, Note_on_c, 0, 48, 127
1, 503630, Note_on_c, 7, 43, 127
1, 503630, Note_on_c, 3, 51, 127
1, 503630, Note_on_c, 7, 67, 127
1, 503778, Note_off_c, 7, 67, 127
1, 503781, Note_on_c, 0, 72, 127
1, 503929, Note_off_c, 0, 72, 127
1, 503932, Note_on_c, 2, 74, 127
1, 504080, Note_off_c, 2, 74, 127
1, 504083, Note_on_c, 3, 75, 127
1, 504231, Note_off_c, 3, 75, 127
1, 504234, Note_on_c, 2, 74, 127
1, 504287, Note_off_c, 3, 51, 127
1, 504287, Note_off_c, 7, 43, 127
1, 504287, Note_off_c, 0, 48, 127
1, 504382, Note_off_c, 2, 74, 127
1, 504384, Note_on_c, 0, 72, 127
1, 504532, Note_off_c, 0, 72, 127
1, 504535, Note_on_c, 12, 47, 127
1, 504535, Note_on_c, 5, 53, 127
1, 504535, Note_on_c, 8, 44, 127
1, 504535, Note_on_c, 2, 74, 127
1, 504683, Note_off_c, 2, 74, 127
1, 504686, Note_on_c, 5, 65, 127
1, 504834, Note_off_c, 5, 65, 127
1, 504837, Note_on_c, 7, 67, 127
1, 504985, Note_off_c, 7, 67, 127
1, 504988, Note_on_c, 8, 68, 127
1, 505136, Note_off_c, 8, 68, 127
1, 505139, Note_on_c, 7, 67, 127
1, 505192, Note_off_c, 8, 44, 127
1, 505192, Note_off_c, 5, 53, 127
1, 505192, Note_off_c, 12, 47, 127
1, 505287, Note_off_c, 7, 67, 127
1, 505289, Note_on_c, 5, 65, 127
1, 505437, Note_off_c, 5, 65, 127
1, 505440, Note_on_c, 10, 45, 127
1, 505440, Note_on_c, 0, 48, 127
1, 505440, Note_on_c, 6, 54, 127
1, 505440, Note_on_c, 3, 63, 127
1, 505588, Note_off_c, 3, 63, 127
1, 505591, Note_on_c, 10, 69, 127
1, 505739, Note_off_c, 10, 69, 127
1, 505742, Note_on_c, 12, 71, 127
1, 505890, Note_off_c, 12, 71, 127
1, 505893, Note_on_c, 0, 72, 127
1, 506041, Note_off_c, 0, 72, 127
1, 506044, Note_on_c, 12, 71, 127
1, 506097, Note_off_c, 6, 54, 127
1, 506097, Note_off_c, 0, 48, 127
1, 506097, Note_off_c, 10, 45, 127
1, 506192, Note_off_c, 12, 71, 127
1, 506194, Note_on_c, 10, 69, 127
1, 506342, Note_off_c, 10, 69, 127
1, 506345, Note_on_c, 7, 55, 127
1, 506345, Note_on_c, 2, 50, 127
1, 506345, Note_on_c, 7, 43, 127
1, 506345, Note_on_c, 12, 71, 127
1, 506493, Note_off_c, 12, 71, 127
1, 506496, Note_on_c, 7, 67, 127
1, 506644, Note_off_c, 7, 67, 127
1, 506647, Note_on_c, 10, 69, 127
1, 506795, Note_off_c, 10, 69, 127
1, 506798, Note_on_c, 12, 71, 127
1, 506946, Note_off_c, 12, 71, 127
1, 506949, Note_on_c, 0, 72, 127
1, 507097, Note_off_c, 0, 72, 127
1, 507100, Note_on_c, 2, 74, 127
1, 507238, Note_off_c, 7, 43, 127
1, 507238, Note_off_c, 2, 50, 127
1, 507238, Note_off_c, 7, 55, 127
1, 507248, Note_off_c, 2, 74, 127
1, 507251, Note_on_c, 4, 76, 127
1, 507399, Note_off_c, 4, 76, 127
1, 507402, Note_on_c, 5, 77, 127
1, 507550, Note_off_c, 5, 77, 127
1, 507553, Note_on_c, 7, 79, 127
1, 507701, Note_off_c, 7, 79, 127
1, 507704, Note_on_c, 8, 80, 127
1, 507852, Note_off_c, 8, 80, 127
1, 507855, Note_on_c, 5, 77, 127
1, 508003, Note_off_c, 5, 77, 127
1, 508006, Note_on_c, 2, 74, 127
1, 508154, Note_off_c, 2, 74, 127
1, 508157, Note_on_c, 7, 55, 127
1, 508157, Note_on_c, 12, 83, 127
1, 508305, Note_off_c, 7, 55, 127
1, 508308, Note_on_c, 12, 59, 127
1, 508451, Note_off_c, 12, 83, 127
1, 508456, Note_off_c, 12, 59, 127
1, 508459, Note_on_c, 2, 62, 127
1, 508459, Note_on_c, 7, 79, 127
1, 508607, Note_off_c, 7, 79, 127
1, 508607, Note_off_c, 2, 62, 127
1, 508610, Note_on_c, 6, 54, 127
1, 508610, Note_on_c, 0, 84, 127
1, 508758, Note_off_c, 6, 54, 127
1, 508761, Note_on_c, 0, 60, 127
1, 508909, Note_off_c, 0, 60, 127
1, 508912, Note_on_c, 3, 63, 127
1, 509060, Note_off_c, 3, 63, 127
1, 509063, Note_on_c, 7, 55, 127
1, 509213, Note_on_c, 2, 62, 127
1, 509361, Note_off_c, 2, 62, 127
1, 509364, Note_on_c, 4, 64, 127
1, 509507, Note_off_c, 0, 84, 127
1, 509512, Note_off_c, 4, 64, 127
1, 509515, Note_on_c, 5, 65, 127
1, 509515, Note_on_c, 0, 84, 127
1, 509582, Note_off_c, 0, 84, 127
1, 509590, Note_on_c, 12, 83, 127
1, 509657, Note_off_c, 12, 83, 127
1, 509663, Note_off_c, 5, 65, 127
1, 509665, Note_on_c, 4, 64, 127
1, 509665, Note_on_c, 0, 84, 127
1, 509732, Note_off_c, 0, 84, 127
1, 509740, Note_on_c, 12, 83, 127
1, 509807, Note_off_c, 12, 83, 127
1, 509813, Note_off_c, 4, 64, 127
1, 509815, Note_on_c, 2, 62, 127
1, 509815, Note_on_c, 10, 81, 127
1, 509882, Note_off_c, 10, 81, 127
1, 509890, Note_on_c, 12, 83, 127
1, 509953, Note_off_c, 7, 55, 127
1, 509958, Note_off_c, 12, 83, 127
1, 509963, Note_off_c, 2, 62, 127
1, 509966, Note_on_c, 0, 60, 127
1, 509966, Note_on_c, 4, 64, 127
1, 509966, Note_on_c, 0, 84, 127
1, 510114, Note_off_c, 0, 84, 127
1, 510117, Note_on_c, 7, 79, 127
1, 510265, Note_off_c, 7, 79, 127
1, 510268, Note_on_c, 4, 76, 127
1, 510416, Note_off_c, 4, 76, 127
1, 510419, Note_on_c, 0, 72, 127
1, 510567, Note_off_c, 0, 72, 127
1, 510570, Note_on_c, 4, 76, 127
1, 510623, Note_off_c, 4, 64, 127
1, 510623, Note_off_c, 0, 60, 127
1, 510718, Note_off_c, 4, 76, 127
1, 510720, Note_on_c, 7, 79, 127
1, 510868, Note_off_c, 7, 79, 127
1, 510871, Note_on_c, 5, 65, 127
1, 510871, Note_on_c, 10, 81, 127
1, 511019, Note_off_c, 10, 81, 127
1, 511022, Note_on_c, 5, 77, 127
1, 511167, Note_off_c, 5, 65, 127
1, 511170, Note_off_c, 5, 77, 127
1, 511172, Note_on_c, 2, 74, 127
1, 511320, Note_off_c, 2, 74, 127
1, 511323, Note_on_c, 2, 62, 127
1, 511323, Note_on_c, 12, 71, 127
1, 511471, Note_off_c, 12, 71, 127
1, 511474, Note_on_c, 2, 74, 127
1, 511619, Note_off_c, 2, 62, 127
1, 511622, Note_off_c, 2, 74, 127
1, 511624, Note_on_c, 5, 77, 127
1, 511772, Note_off_c, 5, 77, 127
1, 511775, Note_on_c, 4, 64, 127
1, 511775, Note_on_c, 7, 79, 127
1, 511923, Note_off_c, 7, 79, 127
1, 511926, Note_on_c, 4, 76, 127
1, 512071, Note_off_c, 4, 64, 127
1, 512074, Note_off_c, 4, 76, 127
1, 512076, Note_on_c, 0, 72, 127
1, 512224, Note_off_c, 0, 72, 127
1, 512227, Note_on_c, 0, 60, 127
1, 512227, Note_on_c, 10, 69, 127
1, 512375, Note_off_c, 10, 69, 127
1, 512378, Note_on_c, 0, 72, 127
1, 512523, Note_off_c, 0, 60, 127
1, 512526, Note_off_c, 0, 72, 127
1, 512528, Note_on_c, 4, 76, 127
1, 512676, Note_off_c, 4, 76, 127
1, 512679, Note_on_c, 2, 62, 127
1, 512679, Note_on_c, 5, 77, 127
1, 512827, Note_off_c, 5, 77, 127
1, 512830, Note_on_c, 2, 74, 127
1, 512975, Note_off_c, 2, 62, 127
1, 512978, Note_off_c, 2, 74, 127
1, 512980, Note_on_c, 12, 71, 127
1, 513128, Note_off_c, 12, 71, 127
1, 513131, Note_on_c, 12, 59, 127
1, 513131, Note_on_c, 7, 67, 127
1, 513279, Note_off_c, 7, 67, 127
1, 513282, Note_on_c, 12, 71, 127
1, 513427, Note_off_c, 12, 59, 127
1, 513430, Note_off_c, 12, 71, 127
1, 513432, Note_on_c, 2, 74, 127
1, 513580, Note_off_c, 2, 74, 127
1, 513583, Note_on_c, 0, 60, 127
1, 513583, Note_on_c, 4, 76, 127
1, 513731, Note_off_c, 0, 60, 127
1, 513734, Note_on_c, 4, 64, 127
1, 513879, Note_off_c, 4, 76, 127
1, 513882, Note_off_c, 4, 64, 127
1, 513884, Note_on_c, 7, 67, 127
1, 514032, Note_off_c, 7, 67, 127
1, 514035, Note_on_c, 12, 59, 127
1, 514035, Note_on_c, 2, 74, 127
1, 514183, Note_off_c, 12, 59, 127
1, 514186, Note_on_c, 5, 65, 127
1, 514331, Note_off_c, 2, 74, 127
1, 514334, Note_off_c, 5, 65, 127
1, 514336, Note_on_c, 10, 69, 127
1, 514484, Note_off_c, 10, 69, 127
1, 514487, Note_on_c, 0, 60, 127
1, 514487, Note_on_c, 4, 76, 127
1, 514635, Note_off_c, 0, 60, 127
1, 514638, Note_on_c, 4, 64, 127
1, 514783, Note_off_c, 4, 76, 127
1, 514786, Note_off_c, 4, 64, 127
1, 514788, Note_on_c, 7, 67, 127
1, 514936, Note_off_c, 7, 67, 127
1, 514939, Note_on_c, 7, 55, 127
1, 514939, Note_on_c, 12, 71, 127
1, 515087, Note_off_c, 7, 55, 127
1, 515090, Note_on_c, 2, 62, 127
1, 515235, Note_off_c, 12, 71, 127
1, 515238, Note_off_c, 2, 62, 127
1, 515240, Note_on_c, 5, 65, 127
1, 515388, Note_off_c, 5, 65, 127
1, 515391, Note_on_c, 10, 57, 127
1, 515391, Note_on_c, 0, 72, 127
1, 515539, Note_off_c, 10, 57, 127
1, 515542, Note_on_c, 0, 60, 127
1, 515687, Note_off_c, 0, 72, 127
1, 515690, Note_off_c, 0, 60, 127
1, 515692, Note_on_c, 4, 64, 127
1, 515840, Note_off_c, 4, 64, 127
1, 515843, Note_on_c, 8, 56, 127
1, 515843, Note_on_c, 12, 71, 127
1, 515991, Note_off_c, 8, 56, 127
1, 515994, Note_on_c, 2, 62, 127
1, 516139, Note_off_c, 12, 71, 127
1, 516142, Note_off_c, 2, 62, 127
1, 516144, Note_on_c, 5, 65, 127
1, 516292, Note_off_c, 5, 65, 127
1, 516295, Note_on_c, 10, 57, 127
1, 516295, Note_on_c, 0, 72, 127
1, 516443, Note_off_c, 10, 57, 127
1, 516446, Note_on_c, 0, 60, 127
1, 516591, Note_off_c, 0, 72, 127
1, 516594, Note_off_c, 0, 60, 127
1, 516596, Note_on_c, 4, 64, 127
1, 516744, Note_off_c, 4, 64, 127
1, 516747, Note_on_c, 4, 52, 127
1, 516747, Note_on_c, 8, 68, 127
1, 516895, Note_off_c, 4, 52, 127
1, 516898, Note_on_c, 12, 59, 127
1, 517043, Note_off_c, 8, 68, 127
1, 517046, Note_off_c, 12, 59, 127
1, 517048, Note_on_c, 2, 62, 127
1, 517196, Note_off_c, 2, 62, 127
1, 517199, Note_on_c, 5, 53, 127
1, 517199, Note_on_c, 10, 69, 127
1, 517347, Note_off_c, 5, 53, 127
1, 517350, Note_on_c, 10, 57, 127
1, 517495, Note_off_c, 10, 69, 127
1, 517498, Note_off_c, 10, 57, 127
1, 517500, Note_on_c, 0, 60, 127
1, 517648, Note_off_c, 0, 60, 127
1, 517651, Note_on_c, 4, 52, 127
1, 517651, Note_on_c, 8, 68, 127
1, 517799, Note_off_c, 4, 52, 127
1, 517802, Note_on_c, 12, 59, 127
1, 517947, Note_off_c, 8, 68, 127
1, 517950, Note_off_c, 12, 59, 127
1, 517952, Note_on_c, 2, 62, 127
1, 518100, Note_off_c, 2, 62, 127
1, 518103, Note_on_c, 5, 53, 127
1, 518103, Note_on_c, 10, 69, 127
1, 518251, Note_off_c, 5, 53, 127
1, 518254, Note_on_c, 10, 57, 127
1, 518399, Note_off_c, 10, 69, 127
1, 518402, Note_off_c, 10, 57, 127
1, 518404, Note_on_c, 0, 60, 127
1, 518552, Note_off_c, 0, 60, 127
1, 518555, Note_on_c, 1, 49, 127
1, 518555, Note_on_c, 4, 64, 127
1, 518703, Note_off_c, 1, 49, 127
1, 518706, Note_on_c, 7, 55, 127
1, 518851, Note_off_c, 4, 64, 127
1, 518854, Note_off_c, 7, 55, 127
1, 518856, Note_on_c, 11, 58, 127
1, 519004, Note_off_c, 11, 58, 127
1, 519007, Note_on_c, 2, 50, 127
1, 519007, Note_on_c, 5, 65, 127
1, 519155, Note_off_c, 2, 50, 127
1, 519158, Note_on_c, 5, 53, 127
1, 519301, Note_off_c, 5, 65, 127
1, 519306, Note_off_c, 5, 53, 127
1, 519309, Note_on_c, 10, 57, 127
1, 519309, Note_on_c, 2, 74, 127
1, 519457, Note_off_c, 2, 74, 127
1, 519457, Note_off_c, 10, 57, 127
1, 519460, Note_on_c, 1, 49, 127
1, 519460, Note_on_c, 7, 67, 127
1, 519608, Note_off_c, 1, 49, 127
1, 519611, Note_on_c, 7, 55, 127
1, 519754, Note_off_c, 7, 67, 127
1, 519759, Note_off_c, 7, 55, 127
1, 519762, Note_on_c, 11, 58, 127
1, 519762, Note_on_c, 4, 76, 127
1, 519910, Note_off_c, 4, 76, 127
1, 519910, Note_off_c, 11, 58, 127
1, 519913, Note_on_c, 2, 50, 127
1, 519913, Note_on_c, 5, 65, 127
1, 520061, Note_off_c, 2, 50, 127
1, 520064, Note_on_c, 5, 53, 127
1, 520207, Note_off_c, 5, 65, 127
1, 520212, Note_off_c, 5, 53, 127
1, 520215, Note_on_c, 10, 57, 127
1, 520215, Note_on_c, 2, 74, 127
1, 520363, Note_off_c, 2, 74, 127
1, 520363, Note_off_c, 10, 57, 127
1, 520366, Note_on_c, 10, 45, 127
1, 520366, Note_on_c, 4, 64, 127
1, 520514, Note_off_c, 10, 45, 127
1, 520517, Note_on_c, 4, 52, 127
1, 520660, Note_off_c, 4, 64, 127
1, 520665, Note_off_c, 4, 52, 127
1, 520668, Note_on_c, 7, 55, 127
1, 520668, Note_on_c, 1, 73, 127
1, 520816, Note_off_c, 1, 73, 127
1, 520816, Note_off_c, 7, 55, 127
1, 520819, Note_on_c, 5, 53, 127
1, 520819, Note_on_c, 2, 74, 127
1, 520967, Note_off_c, 2, 74, 127
1, 520970, Note_on_c, 5, 77, 127
1, 521118, Note_off_c, 5, 77, 127
1, 521121, Note_on_c, 10, 81, 127
1, 521170, Note_off_c, 5, 53, 127
1, 521269, Note_off_c, 10, 81, 127
1, 521272, Note_on_c, 4, 52, 127
1, 521272, Note_on_c, 1, 73, 127
1, 521420, Note_off_c, 1, 73, 127
1, 521423, Note_on_c, 7, 79, 127
1, 521571, Note_off_c, 7, 79, 127
1, 521574, Note_on_c, 11, 82, 127
1, 521623, Note_off_c, 4, 52, 127
1, 521722, Note_off_c, 11, 82, 127
1, 521725, Note_on_c, 5, 53, 127
1, 521725, Note_on_c, 2, 74, 127
1, 521873, Note_off_c, 2, 74, 127
1, 521876, Note_on_c, 5, 77, 127
1, 522024, Note_off_c, 5, 77, 127
1, 522027, Note_on_c, 10, 81, 127
1, 522076, Note_off_c, 5, 53, 127
1, 522175, Note_off_c, 10, 81, 127
1, 522178, Note_on_c, 1, 49, 127
1, 522178, Note_on_c, 10, 69, 127
1, 522326, Note_off_c, 10, 69, 127
1, 522329, Note_on_c, 4, 76, 127
1, 522477, Note_off_c, 4, 76, 127
1, 522480, Note_on_c, 7, 79, 127
1, 522529, Note_off_c, 1, 49, 127
1, 522628, Note_off_c, 7, 79, 127
1, 522631, Note_on_c, 2, 50, 127
1, 522631, Note_on_c, 2, 62, 127
1, 522631, Note_on_c, 5, 77, 127
1, 522779, Note_off_c, 2, 62, 127
1, 522782, Note_on_c, 5, 65, 127
1, 522927, Note_off_c, 5, 77, 127
1, 522927, Note_off_c, 2, 50, 127
1, 522930, Note_off_c, 5, 65, 127
1, 522932, Note_on_c, 10, 69, 127
1, 523080, Note_off_c, 10, 69, 127
1, 523083, Note_on_c, 7, 55, 127
1, 523083, Note_on_c, 1, 61, 127
1, 523083, Note_on_c, 4, 76, 127
1, 523231, Note_off_c, 1, 61, 127
1, 523234, Note_on_c, 7, 67, 127
1, 523379, Note_off_c, 4, 76, 127
1, 523379, Note_off_c, 7, 55, 127
1, 523382, Note_off_c, 7, 67, 127
1, 523384, Note_on_c, 11, 70, 127
1, 523532, Note_off_c, 11, 70, 127
1, 523535, Note_on_c, 5, 53, 127
1, 523535, Note_on_c, 2, 62, 127
1, 523535, Note_on_c, 2, 74, 127
1, 523683, Note_off_c, 2, 62, 127
1, 523686, Note_on_c, 5, 65, 127
1, 523831, Note_off_c, 2, 74, 127
1, 523831, Note_off_c, 5, 53, 127
1, 523834, Note_off_c, 5, 65, 127
1, 523836, Note_on_c, 10, 69, 127
1, 523984, Note_off_c, 10, 69, 127
1, 523987, Note_on_c, 4, 52, 127
1, 523987, Note_on_c, 10, 57, 127
1, 523987, Note_on_c, 1, 73, 127
1, 524135, Note_off_c, 10, 57, 127
1, 524138, Note_on_c, 4, 64, 127
1, 524283, Note_off_c, 1, 73, 127
1, 524283, Note_off_c, 4, 52, 127
1, 524286, Note_off_c, 4, 64, 127
1, 524288, Note_on_c, 7, 67, 127
1, 524436, Note_off_c, 7, 67, 127
1, 524439, Note_on_c, 5, 53, 127
1, 524439, Note_on_c, 2, 62, 127
1, 524439, Note_on_c, 2, 74, 127
1, 524587, Note_off_c, 2, 62, 127
1, 524590, Note_on_c, 4, 64, 127
1, 524738, Note_off_c, 4, 64, 127
1, 524741, Note_on_c, 5, 65, 127
1, 524860, Note_off_c, 5, 53, 127
1, 524883, Note_off_c, 2, 74, 127
1, 524889, Note_off_c, 5, 65, 127
1, 524891, Note_on_c, 11, 58, 127
1, 524891, Note_on_c, 7, 67, 127
1, 525039, Note_off_c, 7, 67, 127
1, 525042, Note_on_c, 10, 69, 127
1, 525190, Note_off_c, 10, 69, 127
1, 525193, Note_on_c, 11, 70, 127
1, 525341, Note_off_c, 11, 70, 127
1, 525344, Note_on_c, 0, 60, 127
1, 525344, Note_on_c, 4, 76, 127
1, 525492, Note_off_c, 4, 76, 127
1, 525492, Note_off_c, 0, 60, 127
1, 525495, Note_on_c, 2, 62, 127
1, 525495, Note_on_c, 5, 77, 127
1, 525643, Note_off_c, 5, 77, 127
1, 525643, Note_off_c, 2, 62, 127
1, 525646, Note_on_c, 4, 64, 127
1, 525646, Note_on_c, 7, 79, 127
1, 525760, Note_off_c, 11, 58, 127
1, 525794, Note_off_c, 7, 79, 127
1, 525794, Note_off_c, 4, 64, 127
1, 525796, Note_on_c, 10, 57, 127
1, 525796, Note_on_c, 5, 65, 127
1, 525796, Note_on_c, 10, 81, 127
1, 525944, Note_off_c, 10, 81, 127
1, 525944, Note_off_c, 5, 65, 127
1, 525947, Note_on_c, 7, 67, 127
1, 525947, Note_on_c, 11, 82, 127
1, 526095, Note_off_c, 11, 82, 127
1, 526095, Note_off_c, 7, 67, 127
1, 526098, Note_on_c, 10, 69, 127
1, 526098, Note_on_c, 0, 84, 127
1, 526246, Note_off_c, 0, 84, 127
1, 526246, Note_off_c, 10, 69, 127
1, 526249, Note_on_c, 11, 58, 127
1, 526249, Note_on_c, 2, 74, 127
1, 526397, Note_off_c, 2, 74, 127
1, 526397, Note_off_c, 11, 58, 127
1, 526400, Note_on_c, 0, 60, 127
1, 526400, Note_on_c, 4, 76, 127
1, 526548, Note_off_c, 4, 76, 127
1, 526548, Note_off_c, 0, 60, 127
1, 526551, Note_on_c, 2, 62, 127
1, 526551, Note_on_c, 5, 77, 127
1, 526654, Note_off_c, 10, 57, 127
1, 526699, Note_off_c, 5, 77, 127
1, 526699, Note_off_c, 2, 62, 127
1, 526702, Note_on_c, 7, 55, 127
1, 526702, Note_on_c, 4, 64, 127
1, 526702, Note_on_c, 7, 79, 127
1, 526850, Note_off_c, 7, 79, 127
1, 526850, Note_off_c, 4, 64, 127
1, 526853, Note_on_c, 5, 65, 127
1, 526853, Note_on_c, 10, 81, 127
1, 527001, Note_off_c, 10, 81, 127
1, 527001, Note_off_c, 5, 65, 127
1, 527004, Note_on_c, 7, 67, 127
1, 527004, Note_on_c, 11, 82, 127
1, 527152, Note_off_c, 11, 82, 127
1, 527152, Note_off_c, 7, 67, 127
1, 527155, Note_on_c, 10, 57, 127
1, 527155, Note_on_c, 10, 81, 127
1, 527303, Note_off_c, 10, 57, 127
1, 527306, Note_on_c, 1, 61, 127
1, 527454, Note_off_c, 1, 61, 127
1, 527457, Note_on_c, 4, 64, 127
1, 527605, Note_off_c, 4, 64, 127
1, 527608, Note_on_c, 7, 67, 127
1, 527756, Note_off_c, 7, 67, 127
1, 527759, Note_on_c, 4, 64, 127
1, 527907, Note_off_c, 4, 64, 127
1, 527910, Note_on_c, 1, 61, 127
1, 527996, Note_off_c, 7, 55, 127
1, 528058, Note_off_c, 1, 61, 127
1, 528060, Note_on_c, 5, 53, 127
1, 528060, Note_on_c, 10, 57, 127
1, 528208, Note_off_c, 10, 57, 127
1, 528211, Note_on_c, 2, 62, 127
1, 528356, Note_off_c, 5, 53, 127
1, 528359, Note_off_c, 2, 62, 127
1, 528361, Note_on_c, 4, 64, 127
1, 528504, Note_off_c, 10, 81, 127
1, 528509, Note_off_c, 4, 64, 127
1, 528512, Note_on_c, 2, 50, 127
1, 528512, Note_on_c, 5, 65, 127
1, 528512, Note_on_c, 10, 69, 127
1, 528660, Note_off_c, 5, 65, 127
1, 528663, Note_on_c, 4, 64, 127
1, 528808, Note_off_c, 2, 50, 127
1, 528811, Note_off_c, 4, 64, 127
1, 528813, Note_on_c, 2, 62, 127
1, 528961, Note_off_c, 2, 62, 127
1, 528964, Note_on_c, 0, 48, 127
1, 528964, Note_on_c, 6, 66, 127
1, 529112, Note_off_c, 6, 66, 127
1, 529115, Note_on_c, 3, 63, 127
1, 529260, Note_off_c, 0, 48, 127
1, 529263, Note_off_c, 3, 63, 127
1, 529265, Note_on_c, 2, 62, 127
1, 529413, Note_off_c, 2, 62, 127
1, 529416, Note_on_c, 6, 42, 127
1, 529416, Note_on_c, 0, 60, 127
1, 529564, Note_off_c, 0, 60, 127
1, 529567, Note_on_c, 11, 58, 127
1, 529712, Note_off_c, 6, 42, 127
1, 529715, Note_off_c, 11, 58, 127
1, 529717, Note_on_c, 10, 57, 127
1, 529860, Note_off_c, 10, 69, 127
1, 529865, Note_off_c, 10, 57, 127
1, 529868, Note_on_c, 7, 55, 127
1, 529868, Note_on_c, 11, 58, 127
1, 529868, Note_on_c, 7, 67, 127
1, 530016, Note_off_c, 11, 58, 127
1, 530016, Note_off_c, 7, 55, 127
1, 530019, Note_on_c, 11, 58, 127
1, 530167, Note_off_c, 11, 58, 127
1, 530170, Note_on_c, 2, 62, 127
1, 530313, Note_off_c, 7, 67, 127
1, 530318, Note_off_c, 2, 62, 127
1, 530321, Note_on_c, 6, 54, 127
1, 530321, Note_on_c, 0, 72, 127
1, 530321, Note_on_c, 10, 81, 127
1, 530469, Note_off_c, 6, 54, 127
1, 530472, Note_on_c, 0, 60, 127
1, 530617, Note_off_c, 10, 81, 127
1, 530617, Note_off_c, 0, 72, 127
1, 530620, Note_off_c, 0, 60, 127
1, 530622, Note_on_c, 3, 63, 127
1, 530770, Note_off_c, 3, 63, 127
1, 530773, Note_on_c, 7, 55, 127
1, 530773, Note_on_c, 7, 79, 127
1, 530773, Note_on_c, 11, 70, 127
1, 530921, Note_off_c, 7, 55, 127
1, 530924, Note_on_c, 11, 58, 127
1, 531069, Note_off_c, 11, 70, 127
1, 531069, Note_off_c, 7, 79, 127
1, 531072, Note_off_c, 11, 58, 127
1, 531074, Note_on_c, 2, 62, 127
1, 531222, Note_off_c, 2, 62, 127
1, 531225, Note_on_c, 2, 50, 127
1, 531225, Note_on_c, 10, 69, 127
1, 531225, Note_on_c, 6, 78, 127
1, 531373, Note_off_c, 2, 50, 127
1, 531376, Note_on_c, 10, 57, 127
1, 531521, Note_off_c, 6, 78, 127
1, 531521, Note_off_c, 10, 69, 127
1, 531524, Note_off_c, 10, 57, 127
1, 531526, Note_on_c, 0, 60, 127
1, 531674, Note_off_c, 0, 60, 127
1, 531677, Note_on_c, 7, 55, 127
1, 531677, Note_on_c, 7, 79, 127
1, 531677, Note_on_c, 11, 70, 127
1, 531825, Note_off_c, 7, 55, 127
1, 531828, Note_on_c, 10, 57, 127
1, 531973, Note_off_c, 7, 79, 127
1, 531976, Note_off_c, 10, 57, 127
1, 531978, Note_on_c, 11, 58, 127
1, 532126, Note_off_c, 11, 58, 127
1, 532129, Note_on_c, 0, 60, 127
1, 532129, Note_on_c, 3, 75, 127
1, 532239, Note_off_c, 11, 70, 127
1, 532277, Note_off_c, 0, 60, 127
1, 532280, Note_on_c, 2, 62, 127
1, 532280, Note_on_c, 10, 69, 127
1, 532428, Note_off_c, 10, 69, 127
1, 532428, Note_off_c, 2, 62, 127
1, 532431, Note_on_c, 3, 63, 127
1, 532431, Note_on_c, 7, 67, 127
1, 532579, Note_off_c, 7, 67, 127
1, 532579, Note_off_c, 3, 63, 127
1, 532582, Note_on_c, 5, 53, 127
1, 532582, Note_on_c, 10, 69, 127
1, 532725, Note_off_c, 3, 75, 127
1, 532730, Note_off_c, 5, 53, 127
1, 532733, Note_on_c, 7, 55, 127
1, 532733, Note_on_c, 2, 74, 127
1, 532881, Note_off_c, 2, 74, 127
1, 532881, Note_off_c, 7, 55, 127
1, 532884, Note_on_c, 10, 57, 127
1, 532884, Note_on_c, 0, 72, 127
1, 533032, Note_off_c, 0, 72, 127
1, 533032, Note_off_c, 10, 57, 127
1, 533035, Note_on_c, 11, 58, 127
1, 533035, Note_on_c, 2, 74, 127
1, 533145, Note_off_c, 10, 69, 127
1, 533183, Note_off_c, 11, 58, 127
1, 533186, Note_on_c, 0, 60, 127
1, 533186, Note_on_c, 7, 67, 127
1, 533334, Note_off_c, 7, 67, 127
1, 533334, Note_off_c, 0, 60, 127
1, 533337, Note_on_c, 2, 62, 127
1, 533337, Note_on_c, 5, 65, 127
1, 533485, Note_off_c, 5, 65, 127
1, 533485, Note_off_c, 2, 62, 127
1, 533488, Note_on_c, 4, 52, 127
1, 533488, Note_on_c, 7, 67, 127
1, 533631, Note_off_c, 2, 74, 127
1, 533636, Note_off_c, 4, 52, 127
1, 533639, Note_on_c, 6, 54, 127
1, 533639, Note_on_c, 0, 72, 127
1, 533787, Note_off_c, 0, 72, 127
1, 533787, Note_off_c, 6, 54, 127
1, 533790, Note_on_c, 7, 55, 127
1, 533790, Note_on_c, 11, 70, 127
1, 533938, Note_off_c, 11, 70, 127
1, 533938, Note_off_c, 7, 55, 127
1, 533941, Note_on_c, 10, 57, 127
1, 533941, Note_on_c, 0, 72, 127
1, 534051, Note_off_c, 7, 67, 127
1, 534089, Note_off_c, 10, 57, 127
1, 534092, Note_on_c, 11, 58, 127
1, 534092, Note_on_c, 6, 66, 127
1, 534240, Note_off_c, 6, 66, 127
1, 534240, Note_off_c, 11, 58, 127
1, 534243, Note_on_c, 0, 60, 127
1, 534243, Note_on_c, 4, 64, 127
1, 534391, Note_off_c, 4, 64, 127
1, 534391, Note_off_c, 0, 60, 127
1, 534394, Note_on_c, 2, 50, 127
1, 534394, Note_on_c, 6, 66, 127
1, 534542, Note_off_c, 2, 50, 127
1, 534545, Note_on_c, 6, 54, 127
1, 534693, Note_off_c, 6, 54, 127
1, 534693, Note_off_c, 0, 72, 127
1, 534696, Note_on_c, 10, 57, 127
1, 534745, Note_off_c, 6, 66, 127
1, 534844, Note_off_c, 10, 57, 127
1, 534847, Note_on_c, 0, 60, 127
1, 534847, Note_on_c, 6, 66, 127
1, 534847, Note_on_c, 10, 69, 127
1, 534995, Note_off_c, 0, 60, 127
1, 534998, Note_on_c, 10, 57, 127
1, 535146, Note_off_c, 10, 57, 127
1, 535149, Note_on_c, 6, 54, 127
1, 535198, Note_off_c, 10, 69, 127
1, 535198, Note_off_c, 6, 66, 127
1, 535297, Note_off_c, 6, 54, 127
1, 535300, Note_on_c, 2, 50, 127
1, 535300, Note_on_c, 7, 67, 127
1, 535300, Note_on_c, 11, 70, 127
1, 535448, Note_off_c, 2, 50, 127
1, 535451, Note_on_c, 7, 55, 127
1, 535599, Note_off_c, 7, 55, 127
1, 535602, Note_on_c, 10, 57, 127
1, 535651, Note_off_c, 11, 70, 127
1, 535651, Note_off_c, 7, 67, 127
1, 535750, Note_off_c, 10, 57, 127
1, 535753, Note_on_c, 11, 58, 127
1, 535753, Note_on_c, 7, 67, 127
1, 535753, Note_on_c, 2, 74, 127
1, 535901, Note_off_c, 11, 58, 127
1, 535904, Note_on_c, 10, 57, 127
1, 536052, Note_off_c, 10, 57, 127
1, 536055, Note_on_c, 7, 55, 127
1, 536104, Note_off_c, 2, 74, 127
1, 536104, Note_off_c, 7, 67, 127
1, 536203, Note_off_c, 7, 55, 127
1, 536206, Note_on_c, 1, 61, 127
1, 536206, Note_on_c, 7, 67, 127
1, 536206, Note_on_c, 4, 76, 127
1, 536354, Note_off_c, 1, 61, 127
1, 536357, Note_on_c, 11, 58, 127
1, 536505, Note_off_c, 11, 58, 127
1, 536508, Note_on_c, 10, 57, 127
1, 536656, Note_off_c, 10, 57, 127
1, 536659, Note_on_c, 7, 55, 127
1, 536807, Note_off_c, 7, 55, 127
1, 536810, Note_on_c, 5, 53, 127
1, 536958, Note_off_c, 5, 53, 127
1, 536961, Note_on_c, 4, 52, 127
1, 537099, Note_off_c, 7, 67, 127
1, 537109, Note_off_c, 4, 52, 127
1, 537112, Note_on_c, 5, 53, 127
1, 537255, Note_off_c, 4, 76, 127
1, 537263, Note_on_c, 4, 76, 127
1, 537411, Note_off_c, 4, 76, 127
1, 537414, Note_on_c, 2, 74, 127
1, 537562, Note_off_c, 2, 74, 127
1, 537565, Note_on_c, 1, 73, 127
1, 537715, Note_on_c, 12, 71, 127
1, 537750, Note_off_c, 1, 73, 127
1, 537863, Note_off_c, 12, 71, 127
1, 537866, Note_on_c, 10, 69, 127
1, 538014, Note_off_c, 10, 69, 127
1, 538017, Note_on_c, 2, 74, 127
1, 538167, Note_on_c, 10, 69, 127
1, 538315, Note_off_c, 10, 69, 127
1, 538318, Note_on_c, 7, 67, 127
1, 538466, Note_off_c, 7, 67, 127
1, 538469, Note_on_c, 5, 65, 127
1, 538617, Note_off_c, 5, 65, 127
1, 538620, Note_on_c, 4, 64, 127
1, 538768, Note_off_c, 4, 64, 127
1, 538771, Note_on_c, 2, 62, 127
1, 538916, Note_off_c, 5, 53, 127
1, 538919, Note_off_c, 2, 62, 127
1, 538921, Note_on_c, 12, 71, 127
1, 539071, Note_on_c, 2, 50, 127
1, 539219, Note_off_c, 2, 50, 127
1, 539222, Note_on_c, 0, 48, 127
1, 539370, Note_off_c, 0, 48, 127
1, 539373, Note_on_c, 12, 47, 127
1, 539521, Note_off_c, 12, 47, 127
1, 539524, Note_on_c, 10, 45, 127
1, 539672, Note_off_c, 10, 45, 127
1, 539675, Note_on_c, 8, 44, 127
1, 539823, Note_off_c, 8, 44, 127
1, 539826, Note_on_c, 0, 48, 127
1, 539969, Note_off_c, 12, 71, 127
1, 539977, Note_on_c, 12, 71, 127
1, 540125, Note_off_c, 12, 71, 127
1, 540128, Note_on_c, 10, 69, 127
1, 540276, Note_off_c, 10, 69, 127
1, 540279, Note_on_c, 8, 68, 127
1, 540427, Note_off_c, 8, 68, 127
1, 540430, Note_on_c, 6, 66, 127
1, 540578, Note_off_c, 6, 66, 127
1, 540581, Note_on_c, 4, 64, 127
1, 540724, Note_off_c, 2, 74, 127
1, 540729, Note_off_c, 4, 64, 127
1, 540732, Note_on_c, 10, 69, 127
1, 540882, Note_on_c, 4, 76, 127
1, 541030, Note_off_c, 4, 76, 127
1, 541033, Note_on_c, 2, 74, 127
1, 541181, Note_off_c, 2, 74, 127
1, 541184, Note_on_c, 0, 72, 127
1, 541332, Note_off_c, 0, 72, 127
1, 541335, Note_on_c, 12, 71, 127
1, 541468, Note_off_c, 10, 69, 127
1, 541483, Note_off_c, 12, 71, 127
1, 541485, Note_on_c, 10, 69, 127
1, 541630, Note_off_c, 0, 48, 127
1, 541635, Note_on_c, 3, 75, 127
1, 541785, Note_on_c, 3, 51, 127
1, 541933, Note_off_c, 3, 51, 127
1, 541936, Note_on_c, 2, 50, 127
1, 542084, Note_off_c, 2, 50, 127
1, 542087, Note_on_c, 0, 48, 127
1, 542235, Note_off_c, 0, 48, 127
1, 542238, Note_on_c, 11, 46, 127
1, 542386, Note_off_c, 11, 46, 127
1, 542389, Note_on_c, 10, 45, 127
1, 542537, Note_off_c, 10, 45, 127
1, 542540, Note_on_c, 6, 54, 127
1, 542683, Note_off_c, 3, 75, 127
1, 542691, Note_on_c, 3, 75, 127
1, 542839, Note_off_c, 3, 75, 127
1, 542842, Note_on_c, 2, 74, 127
1, 542990, Note_off_c, 2, 74, 127
1, 542993, Note_on_c, 0, 72, 127
1, 543126, Note_off_c, 10, 69, 127
1, 543141, Note_off_c, 0, 72, 127
1, 543143, Note_on_c, 11, 70, 127
1, 543291, Note_off_c, 11, 70, 127
1, 543294, Note_on_c, 10, 69, 127
1, 543442, Note_off_c, 10, 69, 127
1, 543445, Note_on_c, 2, 74, 127
1, 543595, Note_on_c, 10, 69, 127
1, 543743, Note_off_c, 10, 69, 127
1, 543746, Note_on_c, 7, 67, 127
1, 543894, Note_off_c, 7, 67, 127
1, 543897, Note_on_c, 6, 66, 127
1, 544045, Note_off_c, 6, 66, 127
1, 544048, Note_on_c, 4, 64, 127
1, 544196, Note_off_c, 4, 64, 127
1, 544199, Note_on_c, 2, 62, 127
1, 544347, Note_off_c, 2, 62, 127
1, 544350, Note_on_c, 0, 72, 127
1, 544493, Note_off_c, 6, 54, 127
1, 544501, Note_on_c, 10, 57, 127
1, 544649, Note_off_c, 10, 57, 127
1, 544652, Note_on_c, 7, 55, 127
1, 544800, Note_off_c, 7, 55, 127
1, 544803, Note_on_c, 6, 54, 127
1, 544951, Note_off_c, 6, 54, 127
1, 544954, Note_on_c, 4, 52, 127
1, 545102, Note_off_c, 4, 52, 127
1, 545105, Note_on_c, 2, 50, 127
1, 545250, Note_off_c, 2, 74, 127
1, 545253, Note_off_c, 2, 50, 127
1, 545255, Note_on_c, 7, 55, 127
1, 545398, Note_off_c, 0, 72, 127
1, 545406, Note_on_c, 2, 74, 127
1, 545554, Note_off_c, 2, 74, 127
1, 545557, Note_on_c, 0, 72, 127
1, 545705, Note_off_c, 0, 72, 127
1, 545708, Note_on_c, 11, 70, 127
1, 545856, Note_off_c, 11, 70, 127
1, 545859, Note_on_c, 10, 69, 127
1, 546007, Note_off_c, 10, 69, 127
1, 546010, Note_on_c, 7, 67, 127
1, 546158, Note_off_c, 7, 67, 127
1, 546161, Note_on_c, 10, 69, 127
1, 546161, Note_on_c, 1, 73, 127
1, 546304, Note_off_c, 7, 55, 127
1, 546312, Note_on_c, 10, 57, 127
1, 546460, Note_off_c, 10, 57, 127
1, 546463, Note_on_c, 7, 55, 127
1, 546606, Note_off_c, 1, 73, 127
1, 546611, Note_off_c, 7, 55, 127
1, 546614, Note_on_c, 5, 53, 127
1, 546614, Note_on_c, 2, 74, 127
1, 546762, Note_off_c, 5, 53, 127
1, 546765, Note_on_c, 4, 52, 127
1, 546913, Note_off_c, 4, 52, 127
1, 546916, Note_on_c, 2, 50, 127
1, 547064, Note_off_c, 2, 50, 127
1, 547067, Note_on_c, 11, 58, 127
1, 547210, Note_off_c, 10, 69, 127
1, 547218, Note_on_c, 11, 70, 127
1, 547366, Note_off_c, 11, 70, 127
1, 547369, Note_on_c, 10, 69, 127
1, 547517, Note_off_c, 10, 69, 127
1, 547520, Note_on_c, 7, 67, 127
1, 547668, Note_off_c, 7, 67, 127
1, 547671, Note_on_c, 5, 65, 127
1, 547819, Note_off_c, 5, 65, 127
1, 547822, Note_on_c, 4, 64, 127
1, 547965, Note_off_c, 11, 58, 127
1, 547970, Note_off_c, 4, 64, 127
1, 547973, Note_on_c, 10, 57, 127
1, 547973, Note_on_c, 5, 65, 127
1, 548121, Note_off_c, 10, 57, 127
1, 548124, Note_on_c, 11, 58, 127
1, 548272, Note_off_c, 11, 58, 127
1, 548275, Note_on_c, 10, 57, 127
1, 548310, Note_off_c, 2, 74, 127
1, 548371, Note_off_c, 5, 65, 127
1, 548423, Note_off_c, 10, 57, 127
1, 548426, Note_on_c, 7, 55, 127
1, 548426, Note_on_c, 4, 64, 127
1, 548426, Note_on_c, 1, 73, 127
1, 548574, Note_off_c, 7, 55, 127
1, 548577, Note_on_c, 5, 53, 127
1, 548725, Note_off_c, 5, 53, 127
1, 548728, Note_on_c, 4, 52, 127
1, 548763, Note_off_c, 1, 73, 127
1, 548763, Note_off_c, 4, 64, 127
1, 548876, Note_off_c, 4, 52, 127
1, 548879, Note_on_c, 5, 53, 127
1, 548879, Note_on_c, 10, 81, 127
1, 549027, Note_off_c, 10, 81, 127
1, 549027, Note_off_c, 5, 53, 127
1, 549030, Note_on_c, 7, 55, 127
1, 549030, Note_on_c, 11, 82, 127
1, 549178, Note_off_c, 11, 82, 127
1, 549178, Note_off_c, 7, 55, 127
1, 549181, Note_on_c, 5, 53, 127
1, 549181, Note_on_c, 10, 81, 127
1, 549329, Note_off_c, 10, 81, 127
1, 549329, Note_off_c, 5, 53, 127
1, 549332, Note_on_c, 4, 52, 127
1, 549332, Note_on_c, 7, 79, 127
1, 549480, Note_off_c, 7, 79, 127
1, 549480, Note_off_c, 4, 52, 127
1, 549483, Note_on_c, 2, 50, 127
1, 549483, Note_on_c, 5, 77, 127
1, 549631, Note_off_c, 5, 77, 127
1, 549631, Note_off_c, 2, 50, 127
1, 549634, Note_on_c, 1, 49, 127
1, 549634, Note_on_c, 4, 76, 127
1, 549782, Note_off_c, 4, 76, 127
1, 549782, Note_off_c, 1, 49, 127
1, 549785, Note_on_c, 2, 50, 127
1, 549785, Note_on_c, 5, 77, 127
1, 549933, Note_off_c, 5, 77, 127
1, 549936, Note_on_c, 7, 79, 127
1, 550079, Note_off_c, 2, 50, 127
1, 550084, Note_off_c, 7, 79, 127
1, 550087, Note_on_c, 11, 58, 127
1, 550087, Note_on_c, 5, 77, 127
1, 550235, Note_off_c, 5, 77, 127
1, 550235, Note_off_c, 11, 58, 127
1, 550238, Note_on_c, 0, 48, 127
1, 550238, Note_on_c, 4, 76, 127
1, 550386, Note_off_c, 4, 76, 127
1, 550389, Note_on_c, 2, 74, 127
1, 550532, Note_off_c, 0, 48, 127
1, 550537, Note_off_c, 2, 74, 127
1, 550540, Note_on_c, 10, 57, 127
1, 550540, Note_on_c, 0, 72, 127
1, 550688, Note_off_c, 0, 72, 127
1, 550688, Note_off_c, 10, 57, 127
1, 550691, Note_on_c, 11, 46, 127
1, 550691, Note_on_c, 2, 74, 127
1, 550839, Note_off_c, 2, 74, 127
1, 550842, Note_on_c, 3, 75, 127
1, 550985, Note_off_c, 11, 46, 127
1, 550990, Note_off_c, 3, 75, 127
1, 550993, Note_on_c, 7, 55, 127
1, 550993, Note_on_c, 2, 74, 127
1, 551141, Note_off_c, 2, 74, 127
1, 551141, Note_off_c, 7, 55, 127
1, 551144, Note_on_c, 10, 45, 127
1, 551144, Note_on_c, 0, 72, 127
1, 551292, Note_off_c, 0, 72, 127
1, 551295, Note_on_c, 11, 70, 127
1, 551438, Note_off_c, 10, 45, 127
1, 551443, Note_off_c, 11, 70, 127
1, 551446, Note_on_c, 5, 53, 127
1, 551446, Note_on_c, 10, 69, 127
1, 551594, Note_off_c, 10, 69, 127
1, 551594, Note_off_c, 5, 53, 127
1, 551597, Note_on_c, 7, 43, 127
1, 551597, Note_on_c, 11, 70, 127
1, 551745, Note_off_c, 11, 70, 127
1, 551748, Note_on_c, 0, 72, 127
1, 551891, Note_off_c, 7, 43, 127
1, 551896, Note_off_c, 0, 72, 127
1, 551899, Note_on_c, 4, 52, 127
1, 551899, Note_on_c, 11, 70, 127
1, 552047, Note_off_c, 11, 70, 127
1, 552047, Note_off_c, 4, 52, 127
1, 552050, Note_on_c, 5, 41, 127
1, 552050, Note_on_c, 10, 69, 127
1, 552198, Note_off_c, 10, 69, 127
1, 552201, Note_on_c, 0, 72, 127
1, 552344, Note_off_c, 5, 41, 127
1, 552349, Note_off_c, 0, 72, 127
1, 552352, Note_on_c, 5, 53, 127
1, 552352, Note_on_c, 5, 77, 127
1, 552500, Note_off_c, 5, 77, 127
1, 552500, Note_off_c, 5, 53, 127
1, 552503, Note_on_c, 0, 48, 127
1, 552503, Note_on_c, 7, 67, 127
1, 552651, Note_off_c, 7, 67, 127
1, 552651, Note_off_c, 0, 48, 127
1, 552654, Note_on_c, 4, 52, 127
1, 552654, Note_on_c, 0, 72, 127
1, 552802, Note_off_c, 0, 72, 127
1, 552802, Note_off_c, 4, 52, 127
1, 552805, Note_on_c, 5, 53, 127
1, 552805, Note_on_c, 2, 74, 127
1, 552953, Note_off_c, 2, 74, 127
1, 552953, Note_off_c, 5, 53, 127
1, 552956, Note_on_c, 7, 55, 127
1, 552956, Note_on_c, 4, 76, 127
1, 553104, Note_off_c, 4, 76, 127
1, 553104, Note_off_c, 7, 55, 127
1, 553107, Note_on_c, 10, 57, 127
1, 553107, Note_on_c, 5, 77, 127
1, 553255, Note_off_c, 5, 77, 127
1, 553255, Note_off_c, 10, 57, 127
1, 553258, Note_on_c, 11, 58, 127
1, 553258, Note_on_c, 7, 79, 127
1, 553406, Note_off_c, 7, 79, 127
1, 553406, Note_off_c, 11, 58, 127
1, 553409, Note_on_c, 12, 47, 127
1, 553409, Note_on_c, 8, 80, 127
1, 553557, Note_off_c, 8, 80, 127
1, 553560, Note_on_c, 2, 74, 127
1, 553708, Note_off_c, 2, 74, 127
1, 553711, Note_on_c, 4, 76, 127
1, 553859, Note_off_c, 4, 76, 127
1, 553862, Note_on_c, 5, 77, 127
1, 554010, Note_off_c, 5, 77, 127
1, 554013, Note_on_c, 4, 76, 127
1, 554066, Note_off_c, 12, 47, 127
1, 554161, Note_off_c, 4, 76, 127
1, 554163, Note_on_c, 2, 74, 127
1, 554311, Note_off_c, 2, 74, 127
1, 554314, Note_on_c, 5, 53, 127
1, 554314, Note_on_c, 0, 48, 127
1, 554314, Note_on_c, 8, 56, 127
1, 554314, Note_on_c, 0, 72, 127
1, 554464, Note_on_c, 5, 77, 127
1, 554612, Note_off_c, 5, 77, 127
1, 554615, Note_on_c, 7, 79, 127
1, 554763, Note_off_c, 7, 79, 127
1, 554766, Note_on_c, 8, 80, 127
1, 554914, Note_off_c, 8, 80, 127
1, 554917, Note_on_c, 7, 79, 127
1, 554970, Note_off_c, 0, 72, 127
1, 554970, Note_off_c, 8, 56, 127
1, 554970, Note_off_c, 0, 48, 127
1, 554970, Note_off_c, 5, 53, 127
1, 555065, Note_off_c, 7, 79, 127
1, 555067, Note_on_c, 5, 77, 127
1, 555215, Note_off_c, 5, 77, 127
1, 555218, Note_on_c, 1, 49, 127
1, 555218, Note_on_c, 4, 52, 127
1, 555218, Note_on_c, 11, 58, 127
1, 555218, Note_on_c, 7, 79, 127
1, 555368, Note_on_c, 11, 70, 127
1, 555516, Note_off_c, 11, 70, 127
1, 555519, Note_on_c, 0, 72, 127
1, 555667, Note_off_c, 0, 72, 127
1, 555670, Note_on_c, 1, 73, 127
1, 555818, Note_off_c, 1, 73, 127
1, 555821, Note_on_c, 0, 72, 127
1, 555874, Note_off_c, 7, 79, 127
1, 555874, Note_off_c, 11, 58, 127
1, 555874, Note_off_c, 4, 52, 127
1, 555874, Note_off_c, 1, 49, 127
1, 555969, Note_off_c, 0, 72, 127
1, 555971, Note_on_c, 11, 70, 127
1, 556119, Note_off_c, 11, 70, 127
1, 556122, Note_on_c, 12, 59, 127
1, 556122, Note_on_c, 5, 53, 127
1, 556122, Note_on_c, 2, 50, 127
1, 556122, Note_on_c, 8, 68, 127
1, 556272, Note_on_c, 2, 74, 127
1, 556420, Note_off_c, 2, 74, 127
1, 556423, Note_on_c, 4, 76, 127
1, 556571, Note_off_c, 4, 76, 127
1, 556574, Note_on_c, 5, 77, 127
1, 556722, Note_off_c, 5, 77, 127
1, 556725, Note_on_c, 4, 76, 127
1, 556778, Note_off_c, 8, 68, 127
1, 556778, Note_off_c, 2, 50, 127
1, 556778, Note_off_c, 5, 53, 127
1, 556778, Note_off_c, 12, 59, 127
1, 556873, Note_off_c, 4, 76, 127
1, 556875, Note_on_c, 2, 74, 127
1, 557023, Note_off_c, 2, 74, 127
1, 557026, Note_on_c, 7, 55, 127
1, 557026, Note_on_c, 0, 48, 127
1, 557026, Note_on_c, 0, 60, 127
1, 557026, Note_on_c, 4, 76, 127
1, 557176, Note_on_c, 7, 67, 127
1, 557324, Note_off_c, 7, 67, 127
1, 557327, Note_on_c, 8, 68, 127
1, 557475, Note_off_c, 8, 68, 127
1, 557478, Note_on_c, 11, 70, 127
1, 557626, Note_off_c, 11, 70, 127
1, 557629, Note_on_c, 8, 68, 127
1, 557682, Note_off_c, 4, 76, 127
1, 557682, Note_off_c, 0, 60, 127
1, 557682, Note_off_c, 0, 48, 127
1, 557682, Note_off_c, 7, 55, 127
1, 557777, Note_off_c, 8, 68, 127
1, 557779, Note_on_c, 7, 67, 127
1, 557927, Note_off_c, 7, 67, 127
1, 557930, Note_on_c, 1, 73, 127
1, 558078, Note_off_c, 1, 73, 127
1, 558081, Note_on_c, 11, 70, 127
1, 558229, Note_off_c, 11, 70, 127
1, 558232, Note_on_c, 7, 67, 127
1, 558380, Note_off_c, 7, 67, 127
1, 558383, Note_on_c, 4, 64, 127
1, 558531, Note_off_c, 4, 64, 127
1, 558534, Note_on_c, 7, 67, 127
1, 558682, Note_off_c, 7, 67, 127
1, 558685, Note_on_c, 4, 64, 127
1, 558833, Note_off_c, 4, 64, 127
1, 558836, Note_on_c, 0, 60, 127
1, 558984, Note_off_c, 0, 60, 127
1, 558987, Note_on_c, 4, 64, 127
1, 559135, Note_off_c, 4, 64, 127
1, 559138, Note_on_c, 0, 60, 127
1, 559286, Note_off_c, 0, 60, 127
1, 559289, Note_on_c, 7, 55, 127
1, 559437, Note_off_c, 7, 55, 127
1, 559440, Note_on_c, 0, 60, 127
1, 559588, Note_off_c, 0, 60, 127
1, 559591, Note_on_c, 7, 55, 127
1, 559739, Note_off_c, 7, 55, 127
1, 559742, Note_on_c, 4, 52, 127
1, 559890, Note_off_c, 4, 52, 127
1, 559893, Note_on_c, 7, 55, 127
1, 560041, Note_off_c, 7, 55, 127
1, 560044, Note_on_c, 4, 52, 127
1, 560192, Note_off_c, 4, 52, 127
1, 560195, Note_on_c, 0, 48, 127
1, 560343, Note_off_c, 0, 48, 127
1, 560346, Note_on_c, 4, 52, 127
1, 560494, Note_off_c, 4, 52, 127
1, 560497, Note_on_c, 0, 48, 127
1, 560645, Note_off_c, 0, 48, 127
1, 560648, Note_on_c, 10, 45, 127
1, 560648, Note_on_c, 5, 65, 127
1, 560796, Note_off_c, 5, 65, 127
1, 560799, Note_on_c, 10, 69, 127
1, 560944, Note_off_c, 10, 45, 127
1, 560947, Note_off_c, 10, 69, 127
1, 560949, Note_on_c, 0, 72, 127
1, 561097, Note_off_c, 0, 72, 127
1, 561100, Note_on_c, 7, 43, 127
1, 561100, Note_on_c, 4, 64, 127
1, 561248, Note_off_c, 4, 64, 127
1, 561251, Note_on_c, 11, 70, 127
1, 561396, Note_off_c, 7, 43, 127
1, 561399, Note_off_c, 11, 70, 127
1, 561401, Note_on_c, 2, 74, 127
1, 561549, Note_off_c, 2, 74, 127
1, 561552, Note_on_c, 10, 45, 127
1, 561552, Note_on_c, 5, 65, 127
1, 561700, Note_off_c, 5, 65, 127
1, 561703, Note_on_c, 10, 69, 127
1, 561848, Note_off_c, 10, 45, 127
1, 561851, Note_off_c, 10, 69, 127
1, 561853, Note_on_c, 0, 72, 127
1, 562001, Note_off_c, 0, 72, 127
1, 562004, Note_on_c, 4, 40, 127
1, 562004, Note_on_c, 0, 60, 127
1, 562152, Note_off_c, 0, 60, 127
1, 562155, Note_on_c, 7, 67, 127
1, 562300, Note_off_c, 4, 40, 127
1, 562303, Note_off_c, 7, 67, 127
1, 562305, Note_on_c, 11, 70, 127
1, 562453, Note_off_c, 11, 70, 127
1, 562456, Note_on_c, 5, 53, 127
1, 562456, Note_on_c, 10, 69, 127
1, 562604, Note_off_c, 5, 53, 127
1, 562607, Note_on_c, 10, 57, 127
1, 562752, Note_off_c, 10, 69, 127
1, 562755, Note_off_c, 10, 57, 127
1, 562757, Note_on_c, 0, 60, 127
1, 562905, Note_off_c, 0, 60, 127
1, 562908, Note_on_c, 4, 52, 127
1, 562908, Note_on_c, 7, 67, 127
1, 563056, Note_off_c, 4, 52, 127
1, 563059, Note_on_c, 11, 58, 127
1, 563204, Note_off_c, 7, 67, 127
1, 563207, Note_off_c, 11, 58, 127
1, 563209, Note_on_c, 2, 62, 127
1, 563357, Note_off_c, 2, 62, 127
1, 563360, Note_on_c, 5, 53, 127
1, 563360, Note_on_c, 10, 69, 127
1, 563508, Note_off_c, 5, 53, 127
1, 563511, Note_on_c, 10, 57, 127
1, 563656, Note_off_c, 10, 69, 127
1, 563659, Note_off_c, 10, 57, 127
1, 563661, Note_on_c, 0, 60, 127
1, 563809, Note_off_c, 0, 60, 127
1, 563812, Note_on_c, 0, 48, 127
1, 563812, Note_on_c, 4, 64, 127
1, 563960, Note_off_c, 0, 48, 127
1, 563963, Note_on_c, 7, 55, 127
1, 564108, Note_off_c, 4, 64, 127
1, 564111, Note_off_c, 7, 55, 127
1, 564113, Note_on_c, 11, 58, 127
1, 564261, Note_off_c, 11, 58, 127
1, 564264, Note_on_c, 2, 50, 127
1, 564264, Note_on_c, 2, 74, 127
1, 564264, Note_on_c, 5, 65, 127
1, 564412, Note_off_c, 2, 50, 127
1, 564415, Note_on_c, 5, 53, 127
1, 564563, Note_off_c, 5, 53, 127
1, 564566, Note_on_c, 10, 57, 127
1, 564591, Note_off_c, 5, 65, 127
1, 564591, Note_off_c, 2, 74, 127
1, 564714, Note_off_c, 10, 57, 127
1, 564716, Note_on_c, 1, 49, 127
1, 564716, Note_on_c, 4, 76, 127
1, 564716, Note_on_c, 7, 67, 127
1, 564864, Note_off_c, 1, 49, 127
1, 564867, Note_on_c, 7, 55, 127
1, 565015, Note_off_c, 7, 55, 127
1, 565018, Note_on_c, 11, 58, 127
1, 565043, Note_off_c, 7, 67, 127
1, 565043, Note_off_c, 4, 76, 127
1, 565166, Note_off_c, 11, 58, 127
1, 565168, Note_on_c, 2, 50, 127
1, 565168, Note_on_c, 5, 65, 127
1, 565168, Note_on_c, 2, 74, 127
1, 565316, Note_off_c, 2, 50, 127
1, 565319, Note_on_c, 5, 53, 127
1, 565467, Note_off_c, 5, 53, 127
1, 565470, Note_on_c, 10, 57, 127
1, 565495, Note_off_c, 2, 74, 127
1, 565495, Note_off_c, 5, 65, 127
1, 565618, Note_off_c, 10, 57, 127
1, 565620, Note_on_c, 10, 45, 127
1, 565620, Note_on_c, 4, 64, 127
1, 565620, Note_on_c, 1, 73, 127
1, 565768, Note_off_c, 10, 45, 127
1, 565771, Note_on_c, 4, 52, 127
1, 565919, Note_off_c, 4, 52, 127
1, 565922, Note_on_c, 7, 55, 127
1, 565947, Note_off_c, 1, 73, 127
1, 565947, Note_off_c, 4, 64, 127
1, 566070, Note_off_c, 7, 55, 127
1, 566072, Note_on_c, 11, 46, 127
1, 566072, Note_on_c, 2, 62, 127
1, 566220, Note_off_c, 11, 46, 127
1, 566223, Note_on_c, 2, 50, 127
1, 566223, Note_on_c, 5, 65, 127
1, 566371, Note_off_c, 5, 65, 127
1, 566371, Note_off_c, 2, 50, 127
1, 566374, Note_on_c, 5, 53, 127
1, 566374, Note_on_c, 10, 69, 127
1, 566522, Note_off_c, 10, 69, 127
1, 566522, Note_off_c, 5, 53, 127
1, 566525, Note_on_c, 12, 47, 127
1, 566525, Note_on_c, 2, 74, 127
1, 566670, Note_off_c, 2, 62, 127
1, 566673, Note_off_c, 2, 74, 127
1, 566673, Note_off_c, 12, 47, 127
1, 566675, Note_on_c, 2, 50, 127
1, 566675, Note_on_c, 7, 67, 127
1, 566823, Note_off_c, 7, 67, 127
1, 566823, Note_off_c, 2, 50, 127
1, 566826, Note_on_c, 7, 55, 127
1, 566826, Note_on_c, 5, 65, 127
1, 566974, Note_off_c, 5, 65, 127
1, 566974, Note_off_c, 7, 55, 127
1, 566977, Note_on_c, 0, 48, 127
1, 566977, Note_on_c, 4, 64, 127
1, 567125, Note_off_c, 0, 48, 127
1, 567128, Note_on_c, 4, 52, 127
1, 567128, Note_on_c, 7, 67, 127
1, 567276, Note_off_c, 7, 67, 127
1, 567276, Note_off_c, 4, 52, 127
1, 567279, Note_on_c, 7, 55, 127
1, 567279, Note_on_c, 11, 70, 127
1, 567427, Note_off_c, 11, 70, 127
1, 567427, Note_off_c, 7, 55, 127
1, 567430, Note_on_c, 1, 49, 127
1, 567430, Note_on_c, 4, 76, 127
1, 567575, Note_off_c, 4, 64, 127
1, 567578, Note_off_c, 4, 76, 127
1, 567578, Note_off_c, 1, 49, 127
1, 567580, Note_on_c, 4, 52, 127
1, 567580, Note_on_c, 10, 69, 127
1, 567728, Note_off_c, 10, 69, 127
1, 567728, Note_off_c, 4, 52, 127
1, 567731, Note_on_c, 10, 57, 127
1, 567731, Note_on_c, 7, 67, 127
1, 567879, Note_off_c, 7, 67, 127
1, 567879, Note_off_c, 10, 57, 127
1, 567882, Note_on_c, 2, 50, 127
1, 567882, Note_on_c, 5, 65, 127
1, 568030, Note_off_c, 2, 50, 127
1, 568033, Note_on_c, 5, 53, 127
1, 568033, Note_on_c, 10, 69, 127
1, 568181, Note_off_c, 10, 69, 127
1, 568181, Note_off_c, 5, 53, 127
1, 568184, Note_on_c, 10, 57, 127
1, 568184, Note_on_c, 0, 72, 127
1, 568332, Note_off_c, 0, 72, 127
1, 568332, Note_off_c, 10, 57, 127
1, 568335, Note_on_c, 2, 50, 127
1, 568335, Note_on_c, 5, 77, 127
1, 568480, Note_off_c, 5, 65, 127
1, 568483, Note_off_c, 5, 77, 127
1, 568483, Note_off_c, 2, 50, 127
1, 568485, Note_on_c, 5, 53, 127
1, 568485, Note_on_c, 11, 70, 127
1, 568633, Note_off_c, 11, 70, 127
1, 568633, Note_off_c, 5, 53, 127
1, 568636, Note_on_c, 11, 58, 127
1, 568636, Note_on_c, 10, 69, 127
1, 568784, Note_off_c, 10, 69, 127
1, 568784, Note_off_c, 11, 58, 127
1, 568787, Note_on_c, 4, 52, 127
1, 568787, Note_on_c, 7, 67, 127
1, 568935, Note_off_c, 4, 52, 127
1, 568938, Note_on_c, 7, 55, 127
1, 568938, Note_on_c, 11, 70, 127
1, 569086, Note_off_c, 11, 70, 127
1, 569086, Note_off_c, 7, 55, 127
1, 569089, Note_on_c, 11, 58, 127
1, 569089, Note_on_c, 2, 74, 127
1, 569237, Note_off_c, 2, 74, 127
1, 569237, Note_off_c, 11, 58, 127
1, 569240, Note_on_c, 4, 52, 127
1, 569240, Note_on_c, 7, 79, 127
1, 569385, Note_off_c, 7, 67, 127
1, 569388, Note_off_c, 7, 79, 127
1, 569388, Note_off_c, 4, 52, 127
1, 569390, Note_on_c, 7, 55, 127
1, 569390, Note_on_c, 1, 73, 127
1, 569538, Note_off_c, 1, 73, 127
1, 569538, Note_off_c, 7, 55, 127
1, 569541, Note_on_c, 1, 61, 127
1, 569541, Note_on_c, 11, 70, 127
1, 569689, Note_off_c, 11, 70, 127
1, 569689, Note_off_c, 1, 61, 127
1, 569692, Note_on_c, 5, 53, 127
1, 569692, Note_on_c, 10, 69, 127
1, 569840, Note_off_c, 5, 53, 127
1, 569843, Note_on_c, 10, 57, 127
1, 569843, Note_on_c, 2, 74, 127
1, 569991, Note_off_c, 2, 74, 127
1, 569991, Note_off_c, 10, 57, 127
1, 569994, Note_on_c, 2, 62, 127
1, 569994, Note_on_c, 5, 77, 127
1, 570142, Note_off_c, 5, 77, 127
1, 570142, Note_off_c, 2, 62, 127
1, 570145, Note_on_c, 6, 54, 127
1, 570145, Note_on_c, 10, 81, 127
1, 570290, Note_off_c, 10, 69, 127
1, 570293, Note_off_c, 10, 81, 127
1, 570293, Note_off_c, 6, 54, 127
1, 570295, Note_on_c, 10, 57, 127
1, 570295, Note_on_c, 2, 74, 127
1, 570443, Note_off_c, 2, 74, 127
1, 570443, Note_off_c, 10, 57, 127
1, 570446, Note_on_c, 2, 62, 127
1, 570446, Note_on_c, 0, 72, 127
1, 570594, Note_off_c, 0, 72, 127
1, 570594, Note_off_c, 2, 62, 127
1, 570597, Note_on_c, 7, 55, 127
1, 570597, Note_on_c, 11, 70, 127
1, 570745, Note_off_c, 11, 70, 127
1, 570748, Note_on_c, 1, 73, 127
1, 570896, Note_off_c, 1, 73, 127
1, 570899, Note_on_c, 2, 74, 127
1, 571047, Note_off_c, 2, 74, 127
1, 571050, Note_on_c, 4, 76, 127
1, 571198, Note_off_c, 4, 76, 127
1, 571201, Note_on_c, 5, 77, 127
1, 571254, Note_off_c, 7, 55, 127
1, 571349, Note_off_c, 5, 77, 127
1, 571351, Note_on_c, 7, 79, 127
1, 571499, Note_off_c, 7, 79, 127
1, 571502, Note_on_c, 5, 53, 127
1, 571502, Note_on_c, 10, 69, 127
1, 571650, Note_off_c, 10, 69, 127
1, 571653, Note_on_c, 12, 71, 127
1, 571801, Note_off_c, 12, 71, 127
1, 571804, Note_on_c, 1, 73, 127
1, 571952, Note_off_c, 1, 73, 127
1, 571955, Note_on_c, 2, 74, 127
1, 572103, Note_off_c, 2, 74, 127
1, 572106, Note_on_c, 4, 76, 127
1, 572159, Note_off_c, 5, 53, 127
1, 572254, Note_off_c, 4, 76, 127
1, 572256, Note_on_c, 5, 77, 127
1, 572404, Note_off_c, 5, 77, 127
1, 572407, Note_on_c, 4, 52, 127
1, 572407, Note_on_c, 7, 67, 127
1, 572555, Note_off_c, 7, 67, 127
1, 572558, Note_on_c, 10, 69, 127
1, 572706, Note_off_c, 10, 69, 127
1, 572709, Note_on_c, 11, 70, 127
1, 572828, Note_off_c, 4, 52, 127
1, 572857, Note_off_c, 11, 70, 127
1, 572859, Note_on_c, 10, 57, 127
1, 572859, Note_on_c, 1, 73, 127
1, 573007, Note_off_c, 1, 73, 127
1, 573010, Note_on_c, 10, 69, 127
1, 573158, Note_off_c, 10, 69, 127
1, 573161, Note_on_c, 7, 67, 127
1, 573280, Note_off_c, 10, 57, 127
1, 573309, Note_off_c, 7, 67, 127
1, 573311, Note_on_c, 2, 50, 127
1, 573311, Note_on_c, 5, 65, 127
1, 573459, Note_off_c, 5, 65, 127
1, 573459, Note_off_c, 2, 50, 127
1, 573462, Note_on_c, 4, 52, 127
1, 573462, Note_on_c, 4, 64, 127
1, 573610, Note_off_c, 4, 64, 127
1, 573610, Note_off_c, 4, 52, 127
1, 573613, Note_on_c, 5, 53, 127
1, 573613, Note_on_c, 2, 62, 127
1, 573761, Note_off_c, 2, 62, 127
1, 573761, Note_off_c, 5, 53, 127
1, 573764, Note_on_c, 8, 56, 127
1, 573764, Note_on_c, 12, 71, 127
1, 573912, Note_off_c, 8, 56, 127
1, 573915, Note_on_c, 4, 52, 127
1, 574063, Note_off_c, 4, 52, 127
1, 574066, Note_on_c, 2, 50, 127
1, 574214, Note_off_c, 2, 50, 127
1, 574217, Note_on_c, 0, 48, 127
1, 574280, Note_off_c, 12, 71, 127
1, 574368, Note_on_c, 0, 72, 127
1, 574516, Note_off_c, 0, 72, 127
1, 574519, Note_on_c, 2, 74, 127
1, 574662, Note_off_c, 0, 48, 127
1, 574667, Note_off_c, 2, 74, 127
1, 574670, Note_on_c, 0, 60, 127
1, 574670, Note_on_c, 4, 76, 127
1, 574818, Note_off_c, 4, 76, 127
1, 574821, Note_on_c, 0, 72, 127
1, 574969, Note_off_c, 0, 72, 127
1, 574972, Note_on_c, 12, 71, 127
1, 575120, Note_off_c, 12, 71, 127
1, 575123, Note_on_c, 10, 69, 127
1, 575233, Note_off_c, 0, 60, 127
1, 575274, Note_on_c, 2, 62, 127
1, 575422, Note_off_c, 2, 62, 127
1, 575425, Note_on_c, 4, 64, 127
1, 575568, Note_off_c, 10, 69, 127
1, 575573, Note_off_c, 4, 64, 127
1, 575576, Note_on_c, 5, 65, 127
1, 575576, Note_on_c, 5, 77, 127
1, 575576, Note_on_c, 0, 72, 127
1, 575576, Note_on_c, 10, 81, 127
1, 575724, Note_off_c, 5, 65, 127
1, 575727, Note_on_c, 2, 62, 127
1, 575875, Note_off_c, 2, 62, 127
1, 575878, Note_on_c, 0, 60, 127
1, 576021, Note_off_c, 0, 72, 127
1, 576026, Note_off_c, 0, 60, 127
1, 576029, Note_on_c, 12, 59, 127
1, 576029, Note_on_c, 2, 74, 127
1, 576177, Note_off_c, 12, 59, 127
1, 576180, Note_on_c, 0, 60, 127
1, 576328, Note_off_c, 0, 60, 127
1, 576331, Note_on_c, 2, 62, 127
1, 576469, Note_off_c, 10, 81, 127
1, 576469, Note_off_c, 5, 77, 127
1, 576479, Note_off_c, 2, 62, 127
1, 576482, Note_on_c, 4, 64, 127
1, 576482, Note_on_c, 4, 76, 127
1, 576482, Note_on_c, 7, 79, 127
1, 576630, Note_off_c, 4, 64, 127
1, 576633, Note_on_c, 0, 60, 127
1, 576781, Note_off_c, 0, 60, 127
1, 576784, Note_on_c, 12, 59, 127
1, 576922, Note_off_c, 2, 74, 127
1, 576932, Note_off_c, 12, 59, 127
1, 576935, Note_on_c, 10, 57, 127
1, 576935, Note_on_c, 0, 72, 127
1, 577083, Note_off_c, 10, 57, 127
1, 577086, Note_on_c, 12, 59, 127
1, 577234, Note_off_c, 12, 59, 127
1, 577237, Note_on_c, 0, 60, 127
1, 577375, Note_off_c, 7, 79, 127
1, 577375, Note_off_c, 4, 76, 127
1, 577385, Note_off_c, 0, 60, 127
1, 577388, Note_on_c, 2, 62, 127
1, 577388, Note_on_c, 5, 77, 127
1, 577388, Note_on_c, 2, 74, 127
1, 577536, Note_off_c, 2, 62, 127
1, 577539, Note_on_c, 12, 59, 127
1, 577687, Note_off_c, 12, 59, 127
1, 577690, Note_on_c, 10, 57, 127
1, 577828, Note_off_c, 0, 72, 127
1, 577838, Note_off_c, 10, 57, 127
1, 577841, Note_on_c, 8, 56, 127
1, 577841, Note_on_c, 12, 71, 127
1, 577989, Note_off_c, 8, 56, 127
1, 577992, Note_on_c, 12, 59, 127
1, 578140, Note_off_c, 12, 59, 127
1, 578143, Note_on_c, 2, 62, 127
1, 578281, Note_off_c, 2, 74, 127
1, 578281, Note_off_c, 5, 77, 127
1, 578286, Note_off_c, 12, 71, 127
1, 578291, Note_off_c, 2, 62, 127
1, 578294, Note_on_c, 5, 65, 127
1, 578442, Note_off_c, 5, 65, 127
1, 578445, Note_on_c, 2, 62, 127
1, 578593, Note_off_c, 2, 62, 127
1, 578596, Note_on_c, 12, 59, 127
1, 578744, Note_off_c, 12, 59, 127
1, 578747, Note_on_c, 8, 56, 127
1, 578747, Note_on_c, 12, 71, 127
1, 578747, Note_on_c, 4, 76, 127
1, 578747, Note_on_c, 2, 74, 127
1, 578895, Note_off_c, 8, 56, 127
1, 578898, Note_on_c, 12, 59, 127
1, 579046, Note_off_c, 12, 59, 127
1, 579049, Note_on_c, 8, 56, 127
1, 579197, Note_off_c, 8, 56, 127
1, 579200, Note_on_c, 4, 52, 127
1, 579348, Note_off_c, 4, 52, 127
1, 579351, Note_on_c, 8, 56, 127
1, 579404, Note_off_c, 2, 74, 127
1, 579404, Note_off_c, 4, 76, 127
1, 579404, Note_off_c, 12, 71, 127
1, 579499, Note_off_c, 8, 56, 127
1, 579501, Note_on_c, 4, 52, 127
1, 579649, Note_off_c, 4, 52, 127
1, 579652, Note_on_c, 0, 48, 127
1, 579802, Note_on_c, 12, 83, 127
1, 579950, Note_off_c, 12, 83, 127
1, 579953, Note_on_c, 10, 81, 127
1, 580101, Note_off_c, 10, 81, 127
1, 580104, Note_on_c, 8, 80, 127
1, 580252, Note_off_c, 8, 80, 127
1, 580255, Note_on_c, 6, 78, 127
1, 580403, Note_off_c, 6, 78, 127
1, 580406, Note_on_c, 4, 76, 127
1, 580554, Note_off_c, 4, 76, 127
1, 580557, Note_on_c, 10, 81, 127
1, 580700, Note_off_c, 0, 48, 127
1, 580705, Note_off_c, 10, 81, 127
1, 580708, Note_on_c, 2, 50, 127
1, 580708, Note_on_c, 12, 83, 127
1, 580856, Note_off_c, 12, 83, 127
1, 580856, Note_off_c, 2, 50, 127
1, 580859, Note_on_c, 4, 52, 127
1, 580859, Note_on_c, 0, 84, 127
1, 581007, Note_off_c, 0, 84, 127
1, 581007, Note_off_c, 4, 52, 127
1, 581010, Note_on_c, 5, 53, 127
1, 581010, Note_on_c, 10, 81, 127
1, 581158, Note_off_c, 10, 81, 127
1, 581158, Note_off_c, 5, 53, 127
1, 581161, Note_on_c, 7, 55, 127
1, 581161, Note_on_c, 12, 83, 127
1, 581309, Note_off_c, 12, 83, 127
1, 581309, Note_off_c, 7, 55, 127
1, 581312, Note_on_c, 10, 57, 127
1, 581312, Note_on_c, 0, 84, 127
1, 581460, Note_off_c, 0, 84, 127
1, 581460, Note_off_c, 10, 57, 127
1, 581463, Note_on_c, 12, 59, 127
1, 581463, Note_on_c, 8, 80, 127
1, 581611, Note_off_c, 12, 59, 127
1, 581614, Note_on_c, 0, 60, 127
1, 581614, Note_on_c, 10, 81, 127
1, 581649, Note_off_c, 8, 80, 127
1, 581762, Note_off_c, 10, 81, 127
1, 581762, Note_off_c, 0, 60, 127
1, 581765, Note_on_c, 2, 62, 127
1, 581765, Note_on_c, 12, 83, 127
1, 581913, Note_off_c, 12, 83, 127
1, 581913, Note_off_c, 2, 62, 127
1, 581916, Note_on_c, 4, 64, 127
1, 581916, Note_on_c, 7, 79, 127
1, 582064, Note_off_c, 4, 64, 127
1, 582067, Note_on_c, 5, 65, 127
1, 582067, Note_on_c, 10, 81, 127
1, 582102, Note_off_c, 7, 79, 127
1, 582215, Note_off_c, 10, 81, 127
1, 582215, Note_off_c, 5, 65, 127
1, 582218, Note_on_c, 7, 67, 127
1, 582218, Note_on_c, 12, 83, 127
1, 582366, Note_off_c, 12, 83, 127
1, 582366, Note_off_c, 7, 67, 127
1, 582369, Note_on_c, 10, 69, 127
1, 582369, Note_on_c, 6, 78, 127
1, 582517, Note_off_c, 10, 69, 127
1, 582520, Note_on_c, 12, 71, 127
1, 582520, Note_on_c, 7, 79, 127
1, 582555, Note_off_c, 6, 78, 127
1, 582668, Note_off_c, 7, 79, 127
1, 582668, Note_off_c, 12, 71, 127
1, 582671, Note_on_c, 1, 73, 127
1, 582671, Note_on_c, 10, 81, 127
1, 582819, Note_off_c, 10, 81, 127
1, 582819, Note_off_c, 1, 73, 127
1, 582822, Note_on_c, 2, 74, 127
1, 582822, Note_on_c, 5, 77, 127
1, 582970, Note_off_c, 2, 74, 127
1, 582973, Note_on_c, 4, 76, 127
1, 582973, Note_on_c, 7, 79, 127
1, 583008, Note_off_c, 5, 77, 127
1, 583121, Note_off_c, 7, 79, 127
1, 583121, Note_off_c, 4, 76, 127
1, 583124, Note_on_c, 5, 77, 127
1, 583124, Note_on_c, 10, 81, 127
1, 583272, Note_off_c, 10, 81, 127
1, 583272, Note_off_c, 5, 77, 127
1, 583275, Note_on_c, 8, 68, 127
1, 583275, Note_on_c, 12, 83, 127
1, 583423, Note_off_c, 8, 68, 127
1, 583426, Note_on_c, 12, 71, 127
1, 583426, Note_on_c, 2, 74, 127
1, 583571, Note_off_c, 12, 83, 127
1, 583574, Note_off_c, 2, 74, 127
1, 583574, Note_off_c, 12, 71, 127
1, 583576, Note_on_c, 0, 72, 127
1, 583576, Note_on_c, 4, 76, 127
1, 583724, Note_off_c, 4, 76, 127
1, 583724, Note_off_c, 0, 72, 127
1, 583727, Note_on_c, 2, 74, 127
1, 583727, Note_on_c, 5, 77, 127
1, 583875, Note_off_c, 5, 77, 127
1, 583875, Note_off_c, 2, 74, 127
1, 583878, Note_on_c, 0, 72, 127
1, 583878, Note_on_c, 4, 76, 127
1, 584026, Note_off_c, 4, 76, 127
1, 584026, Note_off_c, 0, 72, 127
1, 584029, Note_on_c, 12, 71, 127
1, 584029, Note_on_c, 2, 74, 127
1, 584177, Note_off_c, 2, 74, 127
1, 584177, Note_off_c, 12, 71, 127
1, 584180, Note_on_c, 0, 72, 127
1, 584180, Note_on_c, 4, 76, 127
1, 584328, Note_off_c, 4, 76, 127
1, 584328, Note_off_c, 0, 72, 127
1, 584331, Note_on_c, 10, 69, 127
1, 584331, Note_on_c, 6, 78, 127
1, 584479, Note_off_c, 6, 78, 127
1, 584479, Note_off_c, 10, 69, 127
1, 584482, Note_on_c, 12, 71, 127
1, 584482, Note_on_c, 8, 80, 127
1, 584630, Note_off_c, 8, 80, 127
1, 584630, Note_off_c, 12, 71, 127
1, 584633, Note_on_c, 0, 72, 127
1, 584633, Note_on_c, 10, 81, 127
1, 584781, Note_off_c, 10, 81, 127
1, 584781, Note_off_c, 0, 72, 127
1, 584784, Note_on_c, 12, 71, 127
1, 584784, Note_on_c, 8, 80, 127
1, 584932, Note_off_c, 8, 80, 127
1, 584932, Note_off_c, 12, 71, 127
1, 584935, Note_on_c, 10, 69, 127
1, 584935, Note_on_c, 6, 78, 127
1, 585083, Note_off_c, 6, 78, 127
1, 585083, Note_off_c, 10, 69, 127
1, 585086, Note_on_c, 12, 71, 127
1, 585086, Note_on_c, 8, 80, 127
1, 585234, Note_off_c, 8, 80, 127
1, 585234, Note_off_c, 12, 71, 127
1, 585237, Note_on_c, 8, 68, 127
1, 585237, Note_on_c, 12, 71, 127
1, 585385, Note_off_c, 12, 71, 127
1, 585385, Note_off_c, 8, 68, 127
1, 585388, Note_on_c, 10, 69, 127
1, 585388, Note_on_c, 0, 72, 127
1, 585536, Note_off_c, 0, 72, 127
1, 585536, Note_off_c, 10, 69, 127
1, 585539, Note_on_c, 12, 71, 127
1, 585539, Note_on_c, 2, 74, 127
1, 585687, Note_off_c, 2, 74, 127
1, 585687, Note_off_c, 12, 71, 127
1, 585690, Note_on_c, 10, 69, 127
1, 585690, Note_on_c, 0, 72, 127
1, 585838, Note_off_c, 0, 72, 127
1, 585838, Note_off_c, 10, 69, 127
1, 585841, Note_on_c, 8, 68, 127
1, 585841, Note_on_c, 12, 71, 127
1, 585989, Note_off_c, 12, 71, 127
1, 585989, Note_off_c, 8, 68, 127
1, 585992, Note_on_c, 10, 69, 127
1, 585992, Note_on_c, 0, 72, 127
1, 586140, Note_off_c, 0, 72, 127
1, 586140, Note_off_c, 10, 69, 127
1, 586143, Note_on_c, 6, 66, 127
1, 586143, Note_on_c, 3, 75, 127
1, 586291, Note_off_c, 3, 75, 127
1, 586291, Note_off_c, 6, 66, 127
1, 586294, Note_on_c, 8, 68, 127
1, 586294, Note_on_c, 4, 76, 127
1, 586442, Note_off_c, 4, 76, 127
1, 586442, Note_off_c, 8, 68, 127
1, 586445, Note_on_c, 10, 69, 127
1, 586445, Note_on_c, 6, 78, 127
1, 586593, Note_off_c, 6, 78, 127
1, 586593, Note_off_c, 10, 69, 127
1, 586596, Note_on_c, 8, 68, 127
1, 586596, Note_on_c, 4, 76, 127
1, 586744, Note_off_c, 4, 76, 127
1, 586744, Note_off_c, 8, 68, 127
1, 586747, Note_on_c, 6, 66, 127
1, 586747, Note_on_c, 3, 75, 127
1, 586895, Note_off_c, 3, 75, 127
1, 586895, Note_off_c, 6, 66, 127
1, 586898, Note_on_c, 8, 68, 127
1, 586898, Note_on_c, 4, 76, 127
1, 587046, Note_off_c, 8, 68, 127
1, 587049, Note_on_c, 4, 64, 127
1, 587049, Note_on_c, 8, 68, 127
1, 587197, Note_off_c, 8, 68, 127
1, 587197, Note_off_c, 4, 64, 127
1, 587200, Note_on_c, 6, 66, 127
1, 587200, Note_on_c, 10, 69, 127
1, 587348, Note_off_c, 10, 69, 127
1, 587348, Note_off_c, 6, 66, 127
1, 587351, Note_on_c, 8, 68, 127
1, 587351, Note_on_c, 12, 71, 127
1, 587496, Note_off_c, 4, 76, 127
1, 587499, Note_off_c, 12, 71, 127
1, 587499, Note_off_c, 8, 68, 127
1, 587501, Note_on_c, 10, 69, 127
1, 587501, Note_on_c, 0, 72, 127
1, 587649, Note_off_c, 0, 72, 127
1, 587649, Note_off_c, 10, 69, 127
1, 587652, Note_on_c, 12, 71, 127
1, 587652, Note_on_c, 2, 74, 127
1, 587800, Note_off_c, 12, 71, 127
1, 587803, Note_on_c, 0, 60, 127
1, 587803, Note_on_c, 4, 64, 127
1, 587951, Note_off_c, 4, 64, 127
1, 587951, Note_off_c, 0, 60, 127
1, 587954, Note_on_c, 2, 62, 127
1, 587954, Note_on_c, 6, 66, 127
1, 588102, Note_off_c, 6, 66, 127
1, 588102, Note_off_c, 2, 62, 127
1, 588105, Note_on_c, 4, 64, 127
1, 588105, Note_on_c, 8, 68, 127
1, 588248, Note_off_c, 2, 74, 127
1, 588253, Note_off_c, 8, 68, 127
1, 588253, Note_off_c, 4, 64, 127
1, 588256, Note_on_c, 10, 57, 127
1, 588256, Note_on_c, 10, 69, 127
1, 588256, Note_on_c, 0, 72, 127
1, 588404, Note_off_c, 10, 57, 127
1, 588407, Note_on_c, 12, 59, 127
1, 588555, Note_off_c, 12, 59, 127
1, 588558, Note_on_c, 0, 60, 127
1, 588706, Note_off_c, 0, 60, 127
1, 588709, Note_on_c, 5, 53, 127
1, 588852, Note_off_c, 0, 72, 127
1, 588857, Note_off_c, 5, 53, 127
1, 588860, Note_on_c, 7, 55, 127
1, 588860, Note_on_c, 12, 71, 127
1, 589008, Note_off_c, 12, 71, 127
1, 589008, Note_off_c, 7, 55, 127
1, 589011, Note_on_c, 10, 57, 127
1, 589011, Note_on_c, 0, 72, 127
1, 589154, Note_off_c, 10, 69, 127
1, 589159, Note_off_c, 0, 72, 127
1, 589159, Note_off_c, 10, 57, 127
1, 589162, Note_on_c, 2, 50, 127
1, 589162, Note_on_c, 10, 69, 127
1, 589162, Note_on_c, 5, 77, 127
1, 589310, Note_off_c, 2, 50, 127
1, 589313, Note_on_c, 4, 52, 127
1, 589461, Note_off_c, 4, 52, 127
1, 589464, Note_on_c, 5, 53, 127
1, 589612, Note_off_c, 5, 53, 127
1, 589615, Note_on_c, 11, 46, 127
1, 589758, Note_off_c, 5, 77, 127
1, 589766, Note_on_c, 1, 73, 127
1, 589914, Note_off_c, 1, 73, 127
1, 589917, Note_on_c, 2, 74, 127
1, 590060, Note_off_c, 10, 69, 127
1, 590068, Note_on_c, 10, 69, 127
1, 590211, Note_off_c, 2, 74, 127
1, 590211, Note_off_c, 11, 46, 127
1, 590219, Note_on_c, 5, 53, 127
1, 590219, Note_on_c, 1, 73, 127
1, 590367, Note_off_c, 1, 73, 127
1, 590367, Note_off_c, 5, 53, 127
1, 590370, Note_on_c, 2, 50, 127
1, 590370, Note_on_c, 2, 74, 127
1, 590518, Note_off_c, 2, 50, 127
1, 590521, Note_on_c, 11, 46, 127
1, 590664, Note_off_c, 2, 74, 127
1, 590672, Note_on_c, 1, 73, 127
1, 590820, Note_off_c, 1, 73, 127
1, 590823, Note_on_c, 2, 74, 127
1, 590966, Note_off_c, 10, 69, 127
1, 590971, Note_off_c, 2, 74, 127
1, 590974, Note_on_c, 10, 69, 127
1, 591117, Note_off_c, 11, 46, 127
1, 591125, Note_on_c, 5, 53, 127
1, 591125, Note_on_c, 1, 73, 127
1, 591273, Note_off_c, 1, 73, 127
1, 591273, Note_off_c, 5, 53, 127
1, 591276, Note_on_c, 2, 50, 127
1, 591276, Note_on_c, 2, 74, 127
1, 591424, Note_off_c, 2, 74, 127
1, 591424, Note_off_c, 2, 50, 127
1, 591427, Note_on_c, 12, 47, 127
1, 591427, Note_on_c, 5, 77, 127
1, 591575, Note_off_c, 5, 77, 127
1, 591578, Note_on_c, 1, 73, 127
1, 591726, Note_off_c, 1, 73, 127
1, 591729, Note_on_c, 2, 74, 127
1, 591872, Note_off_c, 10, 69, 127
1, 591877, Note_off_c, 2, 74, 127
1, 591880, Note_on_c, 8, 68, 127
1, 592023, Note_off_c, 12, 47, 127
1, 592031, Note_on_c, 5, 53, 127
1, 592031, Note_on_c, 1, 73, 127
1, 592179, Note_off_c, 1, 73, 127
1, 592179, Note_off_c, 5, 53, 127
1, 592182, Note_on_c, 2, 50, 127
1, 592182, Note_on_c, 2, 74, 127
1, 592330, Note_off_c, 2, 74, 127
1, 592330, Note_off_c, 2, 50, 127
1, 592333, Note_on_c, 12, 47, 127
1, 592333, Note_on_c, 5, 77, 127
1, 592481, Note_off_c, 5, 77, 127
1, 592484, Note_on_c, 1, 73, 127
1, 592632, Note_off_c, 1, 73, 127
1, 592635, Note_on_c, 2, 74, 127
1, 592778, Note_off_c, 8, 68, 127
1, 592783, Note_off_c, 2, 74, 127
1, 592786, Note_on_c, 8, 68, 127
1, 592929, Note_off_c, 12, 47, 127
1, 592937, Note_on_c, 5, 53, 127
1, 592937, Note_on_c, 1, 73, 127
1, 593085, Note_off_c, 1, 73, 127
1, 593085, Note_off_c, 5, 53, 127
1, 593088, Note_on_c, 2, 50, 127
1, 593088, Note_on_c, 2, 74, 127
1, 593236, Note_off_c, 2, 74, 127
1, 593236, Note_off_c, 2, 50, 127
1, 593239, Note_on_c, 4, 40, 127
1, 593239, Note_on_c, 5, 77, 127
1, 593387, Note_off_c, 5, 77, 127
1, 593390, Note_on_c, 1, 73, 127
1, 593538, Note_off_c, 1, 73, 127
1, 593541, Note_on_c, 2, 74, 127
1, 593684, Note_off_c, 8, 68, 127
1, 593689, Note_off_c, 2, 74, 127
1, 593692, Note_on_c, 8, 68, 127
1, 593692, Note_on_c, 5, 77, 127
1, 593840, Note_off_c, 5, 77, 127
1, 593843, Note_on_c, 1, 73, 127
1, 593991, Note_off_c, 1, 73, 127
1, 593994, Note_on_c, 2, 74, 127
1, 594137, Note_off_c, 8, 68, 127
1, 594142, Note_off_c, 2, 74, 127
1, 594145, Note_on_c, 10, 69, 127
1, 594145, Note_on_c, 4, 76, 127
1, 594293, Note_off_c, 4, 76, 127
1, 594296, Note_on_c, 12, 71, 127
1, 594444, Note_off_c, 12, 71, 127
1, 594447, Note_on_c, 0, 72, 127
1, 594590, Note_off_c, 10, 69, 127
1, 594595, Note_off_c, 0, 72, 127
1, 594598, Note_on_c, 8, 68, 127
1, 594598, Note_on_c, 2, 74, 127
1, 594746, Note_off_c, 2, 74, 127
1, 594749, Note_on_c, 10, 69, 127
1, 594892, Note_off_c, 4, 40, 127
1, 594897, Note_off_c, 10, 69, 127
1, 594900, Note_on_c, 4, 40, 127
1, 594900, Note_on_c, 12, 71, 127
1, 595043, Note_off_c, 8, 68, 127
1, 595048, Note_off_c, 12, 71, 127
1, 595048, Note_off_c, 4, 40, 127
1, 595051, Note_on_c, 10, 45, 127
1, 595051, Note_on_c, 10, 69, 127
1, 595051, Note_on_c, 0, 72, 127
1, 595199, Note_off_c, 10, 69, 127
1, 595202, Note_on_c, 4, 64, 127
1, 595347, Note_off_c, 0, 72, 127
1, 595350, Note_off_c, 4, 64, 127
1, 595352, Note_on_c, 5, 65, 127
1, 595500, Note_off_c, 5, 65, 127
1, 595503, Note_on_c, 7, 67, 127
1, 595503, Note_on_c, 12, 71, 127
1, 595651, Note_off_c, 7, 67, 127
1, 595654, Note_on_c, 2, 62, 127
1, 595799, Note_off_c, 12, 71, 127
1, 595802, Note_off_c, 2, 62, 127
1, 595804, Note_on_c, 4, 64, 127
1, 595952, Note_off_c, 4, 64, 127
1, 595955, Note_on_c, 5, 65, 127
1, 595955, Note_on_c, 10, 69, 127
1, 596103, Note_off_c, 5, 65, 127
1, 596106, Note_on_c, 1, 61, 127
1, 596251, Note_off_c, 10, 69, 127
1, 596254, Note_off_c, 1, 61, 127
1, 596256, Note_on_c, 2, 62, 127
1, 596404, Note_off_c, 2, 62, 127
1, 596407, Note_on_c, 4, 64, 127
1, 596407, Note_on_c, 7, 67, 127
1, 596555, Note_off_c, 4, 64, 127
1, 596558, Note_on_c, 12, 59, 127
1, 596649, Note_off_c, 10, 45, 127
1, 596703, Note_off_c, 7, 67, 127
1, 596706, Note_off_c, 12, 59, 127
1, 596708, Note_on_c, 10, 45, 127
1, 596708, Note_on_c, 1, 61, 127
1, 596856, Note_off_c, 1, 61, 127
1, 596856, Note_off_c, 10, 45, 127
1, 596859, Note_on_c, 2, 38, 127
1, 596859, Note_on_c, 2, 62, 127
1, 596859, Note_on_c, 5, 65, 127
1, 597007, Note_off_c, 2, 38, 127
1, 597010, Note_on_c, 5, 41, 127
1, 597158, Note_off_c, 5, 41, 127
1, 597161, Note_on_c, 10, 45, 127
1, 597304, Note_off_c, 5, 65, 127
1, 597304, Note_off_c, 2, 62, 127
1, 597309, Note_off_c, 10, 45, 127
1, 597312, Note_on_c, 2, 50, 127
1, 597460, Note_off_c, 2, 50, 127
1, 597463, Note_on_c, 5, 53, 127
1, 597463, Note_on_c, 10, 57, 127
1, 597611, Note_off_c, 10, 57, 127
1, 597611, Note_off_c, 5, 53, 127
1, 597614, Note_on_c, 2, 50, 127
1, 597614, Note_on_c, 2, 62, 127
1, 597762, Note_off_c, 2, 62, 127
1, 597762, Note_off_c, 2, 50, 127
1, 597765, Note_on_c, 2, 38, 127
1, 597765, Note_on_c, 5, 65, 127
1, 597913, Note_off_c, 5, 65, 127
1, 597913, Note_off_c, 2, 38, 127
1, 597916, Note_on_c, 5, 41, 127
1, 597916, Note_on_c, 2, 62, 127
1, 598064, Note_off_c, 2, 62, 127
1, 598064, Note_off_c, 5, 41, 127
1, 598067, Note_on_c, 10, 45, 127
1, 598067, Note_on_c, 5, 65, 127
1, 598215, Note_off_c, 5, 65, 127
1, 598215, Note_off_c, 10, 45, 127
1, 598218, Note_on_c, 2, 50, 127
1, 598218, Note_on_c, 10, 69, 127
1, 598366, Note_off_c, 10, 69, 127
1, 598366, Note_off_c, 2, 50, 127
1, 598369, Note_on_c, 5, 53, 127
1, 598369, Note_on_c, 5, 65, 127
1, 598517, Note_off_c, 5, 65, 127
1, 598517, Note_off_c, 5, 53, 127
1, 598520, Note_on_c, 2, 50, 127
1, 598520, Note_on_c, 10, 69, 127
1, 598668, Note_off_c, 10, 69, 127
1, 598668, Note_off_c, 2, 50, 127
1, 598671, Note_on_c, 2, 38, 127
1, 598671, Note_on_c, 2, 74, 127
1, 598819, Note_off_c, 2, 74, 127
1, 598819, Note_off_c, 2, 38, 127
1, 598822, Note_on_c, 5, 41, 127
1, 598822, Note_on_c, 10, 69, 127
1, 598970, Note_off_c, 10, 69, 127
1, 598970, Note_off_c, 5, 41, 127
1, 598973, Note_on_c, 10, 45, 127
1, 598973, Note_on_c, 2, 74, 127
1, 599121, Note_off_c, 2, 74, 127
1, 599121, Note_off_c, 10, 45, 127
1, 599124, Note_on_c, 2, 50, 127
1, 599124, Note_on_c, 5, 77, 127
1, 599272, Note_off_c, 5, 77, 127
1, 599272, Note_off_c, 2, 50, 127
1, 599275, Note_on_c, 5, 53, 127
1, 599275, Note_on_c, 2, 74, 127
1, 599423, Note_off_c, 2, 74, 127
1, 599423, Note_off_c, 5, 53, 127
1, 599426, Note_on_c, 2, 50, 127
1, 599426, Note_on_c, 5, 77, 127
1, 599574, Note_off_c, 5, 77, 127
1, 599574, Note_off_c, 2, 50, 127
1, 599577, Note_on_c, 8, 44, 127
1, 599577, Note_on_c, 12, 83, 127
1, 599725, Note_off_c, 12, 83, 127
1, 599728, Note_on_c, 5, 77, 127
1, 599876, Note_off_c, 5, 77, 127
1, 599879, Note_on_c, 4, 76, 127
1, 600027, Note_off_c, 4, 76, 127
1, 600030, Note_on_c, 2, 74, 127
1, 600178, Note_off_c, 2, 74, 127
1, 600181, Note_on_c, 0, 72, 127
1, 600234, Note_off_c, 8, 44, 127
1, 600329, Note_off_c, 0, 72, 127
1, 600331, Note_on_c, 12, 71, 127
1, 600479, Note_off_c, 12, 71, 127
1, 600482, Note_on_c, 10, 45, 127
1, 600482, Note_on_c, 0, 72, 127
1, 600630, Note_off_c, 0, 72, 127
1, 600630, Note_off_c, 10, 45, 127
1, 600633, Note_on_c, 0, 48, 127
1, 600633, Note_on_c, 10, 69, 127
1, 600781, Note_off_c, 10, 69, 127
1, 600781, Note_off_c, 0, 48, 127
1, 600784, Note_on_c, 4, 52, 127
1, 600784, Note_on_c, 0, 72, 127
1, 600932, Note_off_c, 0, 72, 127
1, 600932, Note_off_c, 4, 52, 127
1, 600935, Note_on_c, 10, 57, 127
1, 600935, Note_on_c, 4, 76, 127
1, 601083, Note_off_c, 4, 76, 127
1, 601083, Note_off_c, 10, 57, 127
1, 601086, Note_on_c, 0, 60, 127
1, 601086, Note_on_c, 0, 72, 127
1, 601234, Note_off_c, 0, 72, 127
1, 601234, Note_off_c, 0, 60, 127
1, 601237, Note_on_c, 10, 57, 127
1, 601237, Note_on_c, 4, 76, 127
1, 601385, Note_off_c, 4, 76, 127
1, 601385, Note_off_c, 10, 57, 127
1, 601388, Note_on_c, 1, 49, 127
1, 601388, Note_on_c, 7, 79, 127
1, 601536, Note_off_c, 7, 79, 127
1, 601539, Note_on_c, 11, 82, 127
1, 601687, Note_off_c, 11, 82, 127
1, 601690, Note_on_c, 10, 81, 127
1, 601838, Note_off_c, 10, 81, 127
1, 601841, Note_on_c, 7, 79, 127
1, 601989, Note_off_c, 7, 79, 127
1, 601992, Note_on_c, 5, 77, 127
1, 602045, Note_off_c, 1, 49, 127
1, 602140, Note_off_c, 5, 77, 127
1, 602142, Note_on_c, 4, 76, 127
1, 602290, Note_off_c, 4, 76, 127
1, 602293, Note_on_c, 2, 50, 127
1, 602293, Note_on_c, 5, 77, 127
1, 602441, Note_off_c, 5, 77, 127
1, 602441, Note_off_c, 2, 50, 127
1, 602444, Note_on_c, 5, 53, 127
1, 602444, Note_on_c, 2, 74, 127
1, 602592, Note_off_c, 2, 74, 127
1, 602592, Note_off_c, 5, 53, 127
1, 602595, Note_on_c, 10, 57, 127
1, 602595, Note_on_c, 5, 77, 127
1, 602743, Note_off_c, 5, 77, 127
1, 602743, Note_off_c, 10, 57, 127
1, 602746, Note_on_c, 2, 62, 127
1, 602746, Note_on_c, 10, 81, 127
1, 602894, Note_off_c, 10, 81, 127
1, 602894, Note_off_c, 2, 62, 127
1, 602897, Note_on_c, 5, 65, 127
1, 602897, Note_on_c, 5, 77, 127
1, 603045, Note_off_c, 5, 77, 127
1, 603045, Note_off_c, 5, 65, 127
1, 603048, Note_on_c, 2, 62, 127
1, 603048, Note_on_c, 10, 81, 127
1, 603196, Note_off_c, 10, 81, 127
1, 603196, Note_off_c, 2, 62, 127
1, 603199, Note_on_c, 3, 51, 127
1, 603199, Note_on_c, 0, 84, 127
1, 603347, Note_off_c, 0, 84, 127
1, 603350, Note_on_c, 12, 83, 127
1, 603498, Note_off_c, 12, 83, 127
1, 603501, Note_on_c, 10, 81, 127
1, 603649, Note_off_c, 10, 81, 127
1, 603652, Note_on_c, 8, 80, 127
1, 603800, Note_off_c, 8, 80, 127
1, 603803, Note_on_c, 10, 81, 127
1, 603856, Note_off_c, 3, 51, 127
1, 603951, Note_off_c, 10, 81, 127
1, 603953, Note_on_c, 6, 78, 127
1, 604101, Note_off_c, 6, 78, 127
1, 604104, Note_on_c, 4, 52, 127
1, 604104, Note_on_c, 8, 80, 127
1, 604252, Note_off_c, 4, 52, 127
1, 604255, Note_on_c, 4, 64, 127
1, 604255, Note_on_c, 4, 76, 127
1, 604400, Note_off_c, 8, 80, 127
1, 604403, Note_off_c, 4, 76, 127
1, 604403, Note_off_c, 4, 64, 127
1, 604405, Note_on_c, 2, 62, 127
1, 604405, Note_on_c, 8, 80, 127
1, 604553, Note_off_c, 8, 80, 127
1, 604553, Note_off_c, 2, 62, 127
1, 604556, Note_on_c, 0, 60, 127
1, 604556, Note_on_c, 10, 81, 127
1, 604704, Note_off_c, 0, 60, 127
1, 604707, Note_on_c, 12, 59, 127
1, 604855, Note_off_c, 12, 59, 127
1, 604858, Note_on_c, 10, 57, 127
1, 604858, Note_on_c, 0, 72, 127
1, 605006, Note_off_c, 0, 72, 127
1, 605006, Note_off_c, 10, 57, 127
1, 605009, Note_on_c, 4, 64, 127
1, 605009, Note_on_c, 12, 71, 127
1, 605157, Note_off_c, 12, 71, 127
1, 605160, Note_on_c, 2, 74, 127
1, 605305, Note_off_c, 4, 64, 127
1, 605307, Note_off_c, 10, 81, 127
1, 605308, Note_off_c, 2, 74, 127
1, 605310, Note_on_c, 10, 81, 127
1, 605460, Note_on_c, 4, 52, 127
1, 605460, Note_on_c, 12, 71, 127
1, 605605, Note_off_c, 10, 81, 127
1, 605610, Note_on_c, 2, 74, 127
1, 605755, Note_off_c, 12, 71, 127
1, 605755, Note_off_c, 4, 52, 127
1, 605758, Note_off_c, 2, 74, 127
1, 605760, Note_on_c, 8, 80, 127
1, 605908, Note_off_c, 8, 80, 127
1, 605911, Note_on_c, 10, 57, 127
1, 605911, Note_on_c, 10, 81, 127
1, 606059, Note_off_c, 10, 81, 127
1, 606062, Note_on_c, 4, 76, 127
1, 606210, Note_off_c, 4, 76, 127
1, 606213, Note_on_c, 0, 72, 127
1, 606361, Note_off_c, 0, 72, 127
1, 606364, Note_on_c, 5, 77, 127
1, 606512, Note_off_c, 5, 77, 127
1, 606515, Note_on_c, 2, 74, 127
1, 606663, Note_off_c, 2, 74, 127
1, 606666, Note_on_c, 12, 71, 127
1, 606804, Note_off_c, 10, 57, 127
1, 606814, Note_off_c, 12, 71, 127
1, 606817, Note_on_c, 4, 76, 127
1, 606965, Note_off_c, 4, 76, 127
1, 606968, Note_on_c, 0, 72, 127
1, 607116, Note_off_c, 0, 72, 127
1, 607119, Note_on_c, 10, 69, 127
1, 607267, Note_off_c, 10, 69, 127
1, 607270, Note_on_c, 2, 74, 127
1, 607418, Note_off_c, 2, 74, 127
1, 607421, Note_on_c, 12, 71, 127
1, 607569, Note_off_c, 12, 71, 127
1, 607572, Note_on_c, 8, 68, 127
1, 607720, Note_off_c, 8, 68, 127
1, 607723, Note_on_c, 10, 69, 127
1, 607723, Note_on_c, 0, 72, 127
1, 607871, Note_off_c, 10, 69, 127
1, 607874, Note_on_c, 4, 64, 127
1, 608019, Note_off_c, 0, 72, 127
1, 608022, Note_off_c, 4, 64, 127
1, 608024, Note_on_c, 0, 60, 127
1, 608172, Note_off_c, 0, 60, 127
1, 608175, Note_on_c, 5, 65, 127
1, 608175, Note_on_c, 2, 74, 127
1, 608323, Note_off_c, 5, 65, 127
1, 608326, Note_on_c, 2, 62, 127
1, 608471, Note_off_c, 2, 74, 127
1, 608474, Note_off_c, 2, 62, 127
1, 608476, Note_on_c, 12, 59, 127
1, 608624, Note_off_c, 12, 59, 127
1, 608627, Note_on_c, 4, 64, 127
1, 608627, Note_on_c, 0, 72, 127
1, 608775, Note_off_c, 4, 64, 127
1, 608778, Note_on_c, 0, 60, 127
1, 608923, Note_off_c, 0, 72, 127
1, 608926, Note_off_c, 0, 60, 127
1, 608928, Note_on_c, 10, 57, 127
1, 609076, Note_off_c, 10, 57, 127
1, 609079, Note_on_c, 2, 62, 127
1, 609079, Note_on_c, 12, 71, 127
1, 609227, Note_off_c, 2, 62, 127
1, 609230, Note_on_c, 12, 59, 127
1, 609375, Note_off_c, 12, 71, 127
1, 609378, Note_off_c, 12, 59, 127
1, 609380, Note_on_c, 8, 56, 127
1, 609528, Note_off_c, 8, 56, 127
1, 609531, Note_on_c, 0, 60, 127
1, 609531, Note_on_c, 10, 69, 127
1, 609679, Note_off_c, 10, 69, 127
1, 609682, Note_on_c, 0, 72, 127
1, 609827, Note_off_c, 0, 60, 127
1, 609830, Note_off_c, 0, 72, 127
1, 609832, Note_on_c, 4, 76, 127
1, 609980, Note_off_c, 4, 76, 127
1, 609983, Note_on_c, 12, 59, 127
1, 609983, Note_on_c, 8, 68, 127
1, 610131, Note_off_c, 8, 68, 127
1, 610134, Note_on_c, 2, 74, 127
1, 610279, Note_off_c, 12, 59, 127
1, 610282, Note_off_c, 2, 74, 127
1, 610284, Note_on_c, 5, 77, 127
1, 610432, Note_off_c, 5, 77, 127
1, 610435, Note_on_c, 0, 60, 127
1, 610435, Note_on_c, 10, 69, 127
1, 610583, Note_off_c, 10, 69, 127
1, 610586, Note_on_c, 0, 72, 127
1, 610731, Note_off_c, 0, 60, 127
1, 610734, Note_off_c, 0, 72, 127
1, 610736, Note_on_c, 4, 76, 127
1, 610884, Note_off_c, 4, 76, 127
1, 610887, Note_on_c, 8, 56, 127
1, 610887, Note_on_c, 4, 64, 127
1, 611035, Note_off_c, 4, 64, 127
1, 611038, Note_on_c, 12, 71, 127
1, 611183, Note_off_c, 8, 56, 127
1, 611186, Note_off_c, 12, 71, 127
1, 611188, Note_on_c, 2, 74, 127
1, 611336, Note_off_c, 2, 74, 127
1, 611339, Note_on_c, 10, 57, 127
1, 611339, Note_on_c, 0, 72, 127
1, 611487, Note_off_c, 10, 57, 127
1, 611490, Note_on_c, 0, 60, 127
1, 611635, Note_off_c, 0, 72, 127
1, 611638, Note_off_c, 0, 60, 127
1, 611640, Note_on_c, 4, 64, 127
1, 611788, Note_off_c, 4, 64, 127
1, 611791, Note_on_c, 8, 56, 127
1, 611791, Note_on_c, 12, 71, 127
1, 611939, Note_off_c, 8, 56, 127
1, 611942, Note_on_c, 2, 62, 127
1, 612087, Note_off_c, 12, 71, 127
1, 612090, Note_off_c, 2, 62, 127
1, 612092, Note_on_c, 5, 65, 127
1, 612240, Note_off_c, 5, 65, 127
1, 612243, Note_on_c, 10, 57, 127
1, 612243, Note_on_c, 0, 72, 127
1, 612391, Note_off_c, 10, 57, 127
1, 612394, Note_on_c, 0, 60, 127
1, 612539, Note_off_c, 0, 72, 127
1, 612542, Note_off_c, 0, 60, 127
1, 612544, Note_on_c, 4, 64, 127
1, 612692, Note_off_c, 4, 64, 127
1, 612695, Note_on_c, 4, 52, 127
1, 612695, Note_on_c, 8, 68, 127
1, 612843, Note_off_c, 4, 52, 127
1, 612846, Note_on_c, 12, 59, 127
1, 612991, Note_off_c, 8, 68, 127
1, 612994, Note_off_c, 12, 59, 127
1, 612996, Note_on_c, 2, 62, 127
1, 613144, Note_off_c, 2, 62, 127
1, 613147, Note_on_c, 0, 60, 127
1, 613147, Note_on_c, 10, 69, 127
1, 613295, Note_off_c, 10, 69, 127
1, 613298, Note_on_c, 4, 64, 127
1, 613443, Note_off_c, 0, 60, 127
1, 613446, Note_off_c, 4, 64, 127
1, 613448, Note_on_c, 0, 60, 127
1, 613596, Note_off_c, 0, 60, 127
1, 613599, Note_on_c, 2, 62, 127
1, 613599, Note_on_c, 5, 65, 127
1, 613747, Note_off_c, 5, 65, 127
1, 613747, Note_off_c, 2, 62, 127
1, 613750, Note_on_c, 2, 62, 127
1, 613900, Note_on_c, 12, 59, 127
1, 614045, Note_off_c, 2, 62, 127
1, 614048, Note_off_c, 12, 59, 127
1, 614050, Note_on_c, 0, 60, 127
1, 614050, Note_on_c, 4, 64, 127
1, 614198, Note_off_c, 4, 64, 127
1, 614198, Note_off_c, 0, 60, 127
1, 614201, Note_on_c, 0, 60, 127
1, 614351, Note_on_c, 10, 57, 127
1, 614496, Note_off_c, 0, 60, 127
1, 614499, Note_off_c, 10, 57, 127
1, 614501, Note_on_c, 12, 59, 127
1, 614501, Note_on_c, 2, 62, 127
1, 614649, Note_off_c, 2, 62, 127
1, 614649, Note_off_c, 12, 59, 127
1, 614652, Note_on_c, 12, 59, 127
1, 614802, Note_on_c, 8, 56, 127
1, 614947, Note_off_c, 12, 59, 127
1, 614950, Note_off_c, 8, 56, 127
1, 614952, Note_on_c, 10, 57, 127
1, 614952, Note_on_c, 0, 60, 127
1, 615100, Note_off_c, 10, 57, 127
1, 615103, Note_on_c, 4, 52, 127
1, 615248, Note_off_c, 0, 60, 127
1, 615251, Note_off_c, 4, 52, 127
1, 615253, Note_on_c, 0, 48, 127
1, 615401, Note_off_c, 0, 48, 127
1, 615404, Note_on_c, 5, 53, 127
1, 615404, Note_on_c, 2, 62, 127
1, 615552, Note_off_c, 5, 53, 127
1, 615555, Note_on_c, 2, 50, 127
1, 615700, Note_off_c, 2, 62, 127
1, 615703, Note_off_c, 2, 50, 127
1, 615705, Note_on_c, 12, 47, 127
1, 615853, Note_off_c, 12, 47, 127
1, 615856, Note_on_c, 4, 52, 127
1, 615856, Note_on_c, 0, 60, 127
1, 616004, Note_off_c, 4, 52, 127
1, 616007, Note_on_c, 0, 48, 127
1, 616152, Note_off_c, 0, 60, 127
1, 616155, Note_off_c, 0, 48, 127
1, 616157, Note_on_c, 10, 45, 127
1, 616305, Note_off_c, 10, 45, 127
1, 616308, Note_on_c, 2, 50, 127
1, 616308, Note_on_c, 12, 59, 127
1, 616456, Note_off_c, 2, 50, 127
1, 616459, Note_on_c, 12, 47, 127
1, 616604, Note_off_c, 12, 59, 127
1, 616607, Note_off_c, 12, 47, 127
1, 616609, Note_on_c, 8, 44, 127
1, 616757, Note_off_c, 8, 44, 127
1, 616760, Note_on_c, 0, 48, 127
1, 616760, Note_on_c, 10, 57, 127
1, 616908, Note_off_c, 10, 57, 127
1, 616911, Note_on_c, 0, 60, 127
1, 617056, Note_off_c, 0, 48, 127
1, 617059, Note_off_c, 0, 60, 127
1, 617061, Note_on_c, 4, 64, 127
1, 617209, Note_off_c, 4, 64, 127
1, 617212, Note_on_c, 12, 47, 127
1, 617212, Note_on_c, 8, 56, 127
1, 617360, Note_off_c, 8, 56, 127
1, 617363, Note_on_c, 2, 62, 127
1, 617508, Note_off_c, 12, 47, 127
1, 617511, Note_off_c, 2, 62, 127
1, 617513, Note_on_c, 5, 65, 127
1, 617661, Note_off_c, 5, 65, 127
1, 617664, Note_on_c, 0, 48, 127
1, 617664, Note_on_c, 10, 57, 127
1, 617812, Note_off_c, 10, 57, 127
1, 617815, Note_on_c, 0, 60, 127
1, 617960, Note_off_c, 0, 48, 127
1, 617963, Note_off_c, 0, 60, 127
1, 617965, Note_on_c, 4, 64, 127
1, 618113, Note_off_c, 4, 64, 127
1, 618116, Note_on_c, 8, 44, 127
1, 618116, Note_on_c, 4, 52, 127
1, 618264, Note_off_c, 4, 52, 127
1, 618267, Note_on_c, 12, 59, 127
1, 618412, Note_off_c, 8, 44, 127
1, 618415, Note_off_c, 12, 59, 127
1, 618417, Note_on_c, 2, 62, 127
1, 618565, Note_off_c, 2, 62, 127
1, 618568, Note_on_c, 10, 45, 127
1, 618568, Note_on_c, 0, 60, 127
1, 618715, Note_off_c, 0, 60, 127
1, 618715, Note_off_c, 10, 45, 127
1, 618723, Note_on_c, 0, 48, 127
1, 618723, Note_on_c, 4, 64, 127
1, 618870, Note_off_c, 4, 64, 127
1, 618870, Note_off_c, 0, 48, 127
1, 618878, Note_on_c, 4, 52, 127
1, 618878, Note_on_c, 10, 69, 127
1, 619025, Note_off_c, 10, 69, 127
1, 619025, Note_off_c, 4, 52, 127
1, 619033, Note_on_c, 8, 44, 127
1, 619033, Note_on_c, 2, 62, 127
1, 619180, Note_off_c, 2, 62, 127
1, 619180, Note_off_c, 8, 44, 127
1, 619188, Note_on_c, 2, 50, 127
1, 619188, Note_on_c, 5, 65, 127
1, 619335, Note_off_c, 5, 65, 127
1, 619335, Note_off_c, 2, 50, 127
1, 619343, Note_on_c, 5, 53, 127
1, 619343, Note_on_c, 12, 71, 127
1, 619490, Note_off_c, 12, 71, 127
1, 619490, Note_off_c, 5, 53, 127
1, 619498, Note_on_c, 10, 45, 127
1, 619498, Note_on_c, 0, 60, 127
1, 619645, Note_off_c, 0, 60, 127
1, 619645, Note_off_c, 10, 45, 127
1, 619653, Note_on_c, 0, 48, 127
1, 619653, Note_on_c, 4, 64, 127
1, 619800, Note_off_c, 4, 64, 127
1, 619800, Note_off_c, 0, 48, 127
1, 619808, Note_on_c, 4, 52, 127
1, 619808, Note_on_c, 10, 69, 127
1, 619955, Note_off_c, 10, 69, 127
1, 619955, Note_off_c, 4, 52, 127
1, 619963, Note_on_c, 4, 40, 127
1, 619963, Note_on_c, 12, 59, 127
1, 620110, Note_off_c, 12, 59, 127
1, 620110, Note_off_c, 4, 40, 127
1, 620118, Note_on_c, 12, 47, 127
1, 620118, Note_on_c, 2, 62, 127
1, 620265, Note_off_c, 2, 62, 127
1, 620265, Note_off_c, 12, 47, 127
1, 620273, Note_on_c, 2, 50, 127
1, 620273, Note_on_c, 8, 68, 127
1, 620420, Note_off_c, 8, 68, 127
1, 620420, Note_off_c, 2, 50, 127
1, 620428, Note_on_c, 10, 45, 127
1, 620428, Note_on_c, 0, 60, 127
1, 620575, Note_off_c, 0, 60, 127
1, 620575, Note_off_c, 10, 45, 127
1, 620583, Note_on_c, 12, 47, 127
1, 620583, Note_on_c, 2, 62, 127
1, 620730, Note_off_c, 2, 62, 127
1, 620730, Note_off_c, 12, 47, 127
1, 620738, Note_on_c, 0, 48, 127
1, 620738, Note_on_c, 4, 64, 127
1, 620885, Note_off_c, 4, 64, 127
1, 620885, Note_off_c, 0, 48, 127
1, 620893, Note_on_c, 2, 50, 127
1, 620893, Note_on_c, 5, 65, 127
1, 621040, Note_off_c, 5, 65, 127
1, 621040, Note_off_c, 2, 50, 127
1, 621048, Note_on_c, 4, 52, 127
1, 621048, Note_on_c, 7, 67, 127
1, 621195, Note_off_c, 7, 67, 127
1, 621195, Note_off_c, 4, 52, 127
1, 621203, Note_on_c, 5, 53, 127
1, 621203, Note_on_c, 10, 69, 127
1, 621350, Note_off_c, 10, 69, 127
1, 621350, Note_off_c, 5, 53, 127
1, 621358, Note_on_c, 7, 43, 127
1, 621358, Note_on_c, 12, 71, 127
1, 621505, Note_off_c, 12, 71, 127
1, 621505, Note_off_c, 7, 43, 127
1, 621513, Note_on_c, 10, 45, 127
1, 621513, Note_on_c, 0, 72, 127
1, 621660, Note_off_c, 0, 72, 127
1, 621660, Note_off_c, 10, 45, 127
1, 621668, Note_on_c, 12, 47, 127
1, 621668, Note_on_c, 2, 74, 127
1, 621815, Note_off_c, 2, 74, 127
1, 621815, Note_off_c, 12, 47, 127
1, 621823, Note_on_c, 0, 48, 127
1, 621823, Note_on_c, 4, 76, 127
1, 621970, Note_off_c, 4, 76, 127
1, 621970, Note_off_c, 0, 48, 127
1, 621978, Note_on_c, 2, 50, 127
1, 621978, Note_on_c, 5, 77, 127
1, 622125, Note_off_c, 5, 77, 127
1, 622125, Note_off_c, 2, 50, 127
1, 622133, Note_on_c, 4, 52, 127
1, 622133, Note_on_c, 7, 79, 127
1, 622280, Note_off_c, 7, 79, 127
1, 622280, Note_off_c, 4, 52, 127
1, 622288, Note_on_c, 5, 41, 127
1, 622288, Note_on_c, 10, 81, 127
1, 622435, Note_off_c, 10, 81, 127
1, 622435, Note_off_c, 5, 41, 127
1, 622443, Note_on_c, 7, 43, 127
1, 622443, Note_on_c, 12, 83, 127
1, 622590, Note_off_c, 12, 83, 127
1, 622590, Note_off_c, 7, 43, 127
1, 622598, Note_on_c, 10, 45, 127
1, 622598, Note_on_c, 0, 84, 127
1, 622745, Note_off_c, 0, 84, 127
1, 622745, Note_off_c, 10, 45, 127
1, 622753, Note_on_c, 12, 47, 127
1, 622753, Note_on_c, 2, 86, 127
1, 622900, Note_off_c, 12, 47, 127
1, 622908, Note_on_c, 0, 48, 127
1, 623055, Note_off_c, 0, 48, 127
1, 623063, Note_on_c, 2, 50, 127
1, 623210, Note_off_c, 2, 50, 127
1, 623210, Note_off_c, 2, 86, 127
1, 623218, Note_on_c, 4, 40, 127
1, 623552, Note_on_c, 8, 68, 127
1, 623711, Note_off_c, 8, 68, 127
1, 623711, Note_off_c, 4, 40, 127
1, 623719, Note_on_c, 10, 57, 127
1, 623719, Note_on_c, 3, 51, 127
1, 623719, Note_on_c, 12, 59, 127
1, 623719, Note_on_c, 10, 69, 127
1, 624053, Note_on_c, 6, 66, 127
1, 624212, Note_off_c, 6, 66, 127
1, 624212, Note_off_c, 12, 59, 127
1, 624212, Note_off_c, 3, 51, 127
1, 624212, Note_off_c, 10, 57, 127
1, 624220, Note_on_c, 4, 52, 127
1, 624220, Note_on_c, 0, 60, 127
1, 624220, Note_on_c, 10, 57, 127
1, 624220, Note_on_c, 4, 64, 127
1, 624381, Note_off_c, 10, 69, 127
1, 624387, Note_on_c, 12, 71, 127
1, 624546, Note_off_c, 12, 71, 127
1, 624554, Note_on_c, 0, 72, 127
1, 624713, Note_off_c, 0, 72, 127
1, 624713, Note_off_c, 4, 64, 127
1, 624713, Note_off_c, 10, 57, 127
1, 624713, Note_off_c, 0, 60, 127
1, 624713, Note_off_c, 4, 52, 127
1, 624721, Note_on_c, 4, 40, 127
1, 624721, Note_on_c, 4, 52, 127
1, 624721, Note_on_c, 12, 59, 127
1, 624721, Note_on_c, 2, 62, 127
1, 624721, Note_on_c, 4, 64, 127
1, 624914, Note_off_c, 4, 64, 127
1, 624923, Note_on_c, 10, 69, 127
1, 625116, Note_off_c, 10, 69, 127
1, 625125, Note_on_c, 8, 68, 127
1, 625318, Note_off_c, 8, 68, 127
1, 625318, Note_off_c, 2, 62, 127
1, 625318, Note_off_c, 12, 59, 127
1, 625318, Note_off_c, 4, 52, 127
1, 625318, Note_off_c, 4, 40, 127
1, 625359, Note_on_c, 4, 52, 127
1, 625359, Note_on_c, 10, 45, 127
1, 625359, Note_on_c, 1, 61, 127
1, 625359, Note_on_c, 4, 64, 127
1, 625359, Note_on_c, 10, 69, 127
1, 625359, Note_on_c, 10, 57, 127
1, 628198, Note_off_c, 10, 57, 127
1, 628198, Note_off_c, 10, 69, 127
1, 628198, Note_off_c, 4, 64, 127
1, 628198, Note_off_c, 1, 61, 127
1, 628198, Note_off_c, 10, 45, 127
1, 628198, Note_off_c, 4, 52, 127
1, 635056, End_track
0, 0, End_of_file
