0, 0, Header, 1, 7, 384
1, 0, Start_track
1, 0, Time_signature, 2, 1, 96, 8
1, 0, Sequencer_specific, 3, 0, 0, 65
1, 0, Sequencer_specific, 5, 0, 0, 119, 14, 0
1, 0, Tempo, 300000
1, 158208, Tempo, 300000
1, 158512, Tempo, 303030
1, 158816, Tempo, 306122
1, 159120, Tempo, 309278
1, 159432, Tempo, 312500
1, 159736, Tempo, 315789
1, 160040, Tempo, 319148
1, 160352, Tempo, 322580
1, 160656, Tempo, 326086
1, 160960, Tempo, 329670
1, 161272, Tempo, 333333
1, 161280, Tempo, 333333
1, 161408, Tempo, 337078
1, 161536, Tempo, 340909
1, 161672, Tempo, 344827
1, 161800, Tempo, 348837
1, 161936, Tempo, 352941
1, 162064, Tempo, 357142
1, 162200, Tempo, 361445
1, 162328, Tempo, 365853
1, 162456, Tempo, 370370
1, 162592, Tempo, 375000
1, 162720, Tempo, 379746
1, 162856, Tempo, 384615
1, 162984, Tempo, 389610
1, 163120, Tempo, 394736
1, 163248, Tempo, 400000
1, 163376, Tempo, 405405
1, 163512, Tempo, 410958
1, 163640, Tempo, 416666
1, 163776, Tempo, 422535
1, 163904, Tempo, 428571
1, 164040, Tempo, 434782
1, 164168, Tempo, 441176
1, 164296, Tempo, 447761
1, 164432, Tempo, 454545
1, 164560, Tempo, 461538
1, 164696, Tempo, 468750
1, 164824, Tempo, 476190
1, 164960, Tempo, 483870
1, 165088, Tempo, 491803
1, 165216, Tempo, 500000
1, 165352, Tempo, 508474
1, 165480, Tempo, 517241
1, 165616, Tempo, 526315
1, 165744, Tempo, 535714
1, 165880, Tempo, 545454
1, 165880, End_track
2, 0, Start_track
2, 0, Title_t, "RH"
2, 0, Control_c, 0, 0, 0
2, 0, Program_c, 0, 0
2, 0, Control_c, 0, 7, 99
2, 0, Control_c, 0, 10, 49
2, 0, Control_c, 0, 93, 0
2, 0, Control_c, 0, 121, 0
2, 13056, Note_on_c, 0, 76, 100
2, 13816, Note_off_c, 0, 76, 100
2, 13824, Note_on_c, 0, 77, 100
2, 14584, Note_off_c, 0, 77, 100
2, 14592, Note_on_c, 0, 69, 100
2, 15352, Note_off_c, 0, 69, 100
2, 15360, Note_on_c, 0, 72, 100
2, 15544, Note_off_c, 0, 72, 100
2, 15552, Note_on_c, 0, 71, 100
2, 15736, Note_off_c, 0, 71, 100
2, 15744, Note_on_c, 0, 69, 108
2, 16504, Note_off_c, 0, 69, 100
2, 16512, Note_on_c, 0, 71, 100
2, 16696, Note_off_c, 0, 71, 100
2, 16704, Note_on_c, 0, 72, 100
2, 16888, Note_off_c, 0, 72, 100
2, 16896, Note_on_c, 0, 74, 100
2, 17080, Note_off_c, 0, 74, 100
2, 17088, Note_on_c, 0, 76, 100
2, 17272, Note_off_c, 0, 76, 100
2, 17280, Note_on_c, 0, 77, 111
2, 18040, Note_off_c, 0, 77, 100
2, 18048, Note_on_c, 0, 76, 100
2, 18232, Note_off_c, 0, 76, 100
2, 18240, Note_on_c, 0, 75, 100
2, 18424, Note_off_c, 0, 75, 100
2, 18432, Note_on_c, 0, 76, 100
2, 18616, Note_off_c, 0, 76, 100
2, 18624, Note_on_c, 0, 71, 100
2, 18808, Note_off_c, 0, 71, 100
2, 18816, Note_on_c, 0, 76, 100
2, 19000, Note_off_c, 0, 76, 100
2, 19008, Note_on_c, 0, 78, 100
2, 19192, Note_off_c, 0, 78, 100
2, 19200, Note_on_c, 0, 76, 100
2, 19384, Note_off_c, 0, 76, 100
2, 19392, Note_on_c, 0, 71, 100
2, 19576, Note_off_c, 0, 71, 100
2, 19584, Note_on_c, 0, 76, 100
2, 19768, Note_off_c, 0, 76, 100
2, 19776, Note_on_c, 0, 79, 100
2, 19960, Note_off_c, 0, 79, 100
2, 19968, Note_on_c, 0, 78, 100
2, 20152, Note_off_c, 0, 78, 100
2, 20160, Note_on_c, 0, 71, 100
2, 20344, Note_off_c, 0, 71, 100
2, 20352, Note_on_c, 0, 78, 100
2, 20536, Note_off_c, 0, 78, 100
2, 20544, Note_on_c, 0, 79, 100
2, 20728, Note_off_c, 0, 79, 100
2, 20736, Note_on_c, 0, 78, 100
2, 20920, Note_off_c, 0, 78, 100
2, 20928, Note_on_c, 0, 71, 100
2, 21112, Note_off_c, 0, 71, 100
2, 21120, Note_on_c, 0, 78, 100
2, 21304, Note_off_c, 0, 78, 100
2, 21312, Note_on_c, 0, 81, 100
2, 21496, Note_off_c, 0, 81, 100
2, 21504, Note_on_c, 0, 79, 100
2, 21688, Note_off_c, 0, 79, 100
2, 21696, Note_on_c, 0, 71, 100
2, 21880, Note_off_c, 0, 71, 100
2, 21888, Note_on_c, 0, 79, 100
2, 22072, Note_off_c, 0, 79, 100
2, 22080, Note_on_c, 0, 81, 100
2, 22264, Note_off_c, 0, 81, 100
2, 22272, Note_on_c, 0, 79, 100
2, 22456, Note_off_c, 0, 79, 100
2, 22464, Note_on_c, 0, 71, 100
2, 22648, Note_off_c, 0, 71, 100
2, 22656, Note_on_c, 0, 79, 100
2, 22840, Note_off_c, 0, 79, 100
2, 22848, Note_on_c, 0, 83, 100
2, 23032, Note_off_c, 0, 83, 100
2, 23040, Note_on_c, 0, 78, 100
2, 23224, Note_off_c, 0, 78, 100
2, 23232, Note_on_c, 0, 71, 100
2, 23416, Note_off_c, 0, 71, 100
2, 23424, Note_on_c, 0, 78, 100
2, 23608, Note_off_c, 0, 78, 100
2, 23616, Note_on_c, 0, 79, 100
2, 23800, Note_off_c, 0, 79, 100
2, 23808, Note_on_c, 0, 78, 100
2, 23992, Note_off_c, 0, 78, 100
2, 24000, Note_on_c, 0, 71, 100
2, 24184, Note_off_c, 0, 71, 100
2, 24192, Note_on_c, 0, 78, 100
2, 24376, Note_off_c, 0, 78, 100
2, 24384, Note_on_c, 0, 81, 100
2, 24568, Note_off_c, 0, 81, 100
2, 24576, Note_on_c, 0, 79, 100
2, 24760, Note_off_c, 0, 79, 100
2, 24768, Note_on_c, 0, 78, 99
2, 24952, Note_off_c, 0, 78, 100
2, 24960, Note_on_c, 0, 76, 98
2, 25528, Note_off_c, 0, 76, 100
2, 25728, Note_on_c, 0, 74, 88
2, 25912, Note_off_c, 0, 74, 100
2, 26112, Note_on_c, 0, 73, 85
2, 26296, Note_off_c, 0, 73, 100
2, 26496, Note_on_c, 0, 82, 85
2, 26872, Note_off_c, 0, 82, 100
2, 26880, Note_on_c, 0, 81, 85
2, 26968, Note_off_c, 0, 81, 100
2, 26976, Note_on_c, 0, 82, 85
2, 27064, Note_off_c, 0, 82, 100
2, 27072, Note_on_c, 0, 81, 85
2, 27256, Note_off_c, 0, 81, 100
2, 27264, Note_on_c, 0, 79, 85
2, 27448, Note_off_c, 0, 79, 100
2, 27648, Note_on_c, 0, 70, 85
2, 27832, Note_off_c, 0, 70, 100
2, 28032, Note_on_c, 0, 79, 85
2, 28408, Note_off_c, 0, 79, 100
2, 28416, Note_on_c, 0, 77, 85
2, 28504, Note_off_c, 0, 77, 100
2, 28512, Note_on_c, 0, 79, 85
2, 28600, Note_off_c, 0, 79, 100
2, 28608, Note_on_c, 0, 77, 85
2, 28792, Note_off_c, 0, 77, 100
2, 28800, Note_on_c, 0, 76, 85
2, 28984, Note_off_c, 0, 76, 100
2, 29184, Note_on_c, 0, 67, 85
2, 29368, Note_off_c, 0, 67, 100
2, 29568, Note_on_c, 0, 76, 85
2, 29944, Note_off_c, 0, 76, 100
2, 29952, Note_on_c, 0, 74, 85
2, 30040, Note_off_c, 0, 74, 100
2, 30048, Note_on_c, 0, 76, 85
2, 30136, Note_off_c, 0, 76, 100
2, 30144, Note_on_c, 0, 74, 85
2, 30328, Note_off_c, 0, 74, 100
2, 30336, Note_on_c, 0, 73, 85
2, 30520, Note_off_c, 0, 73, 100
2, 30720, Note_on_c, 0, 74, 85
2, 30904, Note_off_c, 0, 74, 100
2, 30912, Note_on_c, 0, 67, 85
2, 31096, Note_off_c, 0, 67, 100
2, 31104, Note_on_c, 0, 65, 85
2, 31288, Note_off_c, 0, 65, 100
2, 31296, Note_on_c, 0, 64, 85
2, 31480, Note_off_c, 0, 64, 100
2, 31488, Note_on_c, 0, 62, 85
2, 31672, Note_off_c, 0, 62, 100
2, 31872, Note_on_c, 0, 72, 85
2, 32056, Note_off_c, 0, 72, 100
2, 32256, Note_on_c, 0, 71, 85
2, 32440, Note_off_c, 0, 71, 100
2, 32640, Note_on_c, 0, 80, 85
2, 33016, Note_off_c, 0, 80, 100
2, 33024, Note_on_c, 0, 79, 85
2, 33112, Note_off_c, 0, 79, 100
2, 33120, Note_on_c, 0, 80, 85
2, 33208, Note_off_c, 0, 80, 100
2, 33216, Note_on_c, 0, 79, 85
2, 33400, Note_off_c, 0, 79, 100
2, 33408, Note_on_c, 0, 77, 85
2, 33592, Note_off_c, 0, 77, 100
2, 33792, Note_on_c, 0, 68, 85
2, 33976, Note_off_c, 0, 68, 100
2, 34176, Note_on_c, 0, 77, 85
2, 34552, Note_off_c, 0, 77, 100
2, 34560, Note_on_c, 0, 76, 85
2, 34648, Note_off_c, 0, 76, 100
2, 34656, Note_on_c, 0, 77, 85
2, 34744, Note_off_c, 0, 77, 100
2, 34752, Note_on_c, 0, 76, 85
2, 34936, Note_off_c, 0, 76, 100
2, 34944, Note_on_c, 0, 74, 85
2, 35128, Note_off_c, 0, 74, 100
2, 35328, Note_on_c, 0, 65, 85
2, 35512, Note_off_c, 0, 65, 100
2, 35712, Note_on_c, 0, 74, 85
2, 36088, Note_off_c, 0, 74, 100
2, 36096, Note_on_c, 0, 72, 85
2, 36184, Note_off_c, 0, 72, 100
2, 36192, Note_on_c, 0, 74, 85
2, 36280, Note_off_c, 0, 74, 100
2, 36288, Note_on_c, 0, 72, 85
2, 36472, Note_off_c, 0, 72, 100
2, 36480, Note_on_c, 0, 71, 85
2, 36664, Note_off_c, 0, 71, 100
2, 36864, Note_on_c, 0, 72, 85
2, 37048, Note_off_c, 0, 72, 100
2, 37056, Note_on_c, 0, 65, 85
2, 37240, Note_off_c, 0, 65, 100
2, 37248, Note_on_c, 0, 64, 85
2, 37432, Note_off_c, 0, 64, 100
2, 37440, Note_on_c, 0, 62, 85
2, 37624, Note_off_c, 0, 62, 100
2, 37632, Note_on_c, 0, 60, 85
2, 37816, Note_off_c, 0, 60, 100
2, 38016, Note_on_c, 0, 70, 85
2, 38296, Note_off_c, 0, 70, 100
2, 38400, Note_on_c, 0, 69, 100
2, 38584, Note_off_c, 0, 69, 100
2, 38592, Note_on_c, 0, 79, 100
2, 38776, Note_off_c, 0, 79, 100
2, 38784, Note_on_c, 0, 77, 100
2, 38968, Note_off_c, 0, 77, 100
2, 38976, Note_on_c, 0, 76, 100
2, 39160, Note_off_c, 0, 76, 100
2, 39168, Note_on_c, 0, 77, 100
2, 39352, Note_off_c, 0, 77, 100
2, 39360, Note_on_c, 0, 74, 100
2, 39544, Note_off_c, 0, 74, 100
2, 39552, Note_on_c, 0, 69, 100
2, 40120, Note_off_c, 0, 69, 100
2, 40128, Note_on_c, 0, 67, 100
2, 40312, Note_off_c, 0, 67, 100
2, 40320, Note_on_c, 0, 69, 100
2, 40504, Note_off_c, 0, 69, 100
2, 40512, Note_on_c, 0, 71, 100
2, 40696, Note_off_c, 0, 71, 100
2, 40704, Note_on_c, 0, 67, 100
2, 40888, Note_off_c, 0, 67, 100
2, 40896, Note_on_c, 0, 72, 100
2, 41080, Note_off_c, 0, 72, 100
2, 41088, Note_on_c, 0, 76, 100
2, 41272, Note_off_c, 0, 76, 100
2, 41472, Note_on_c, 0, 65, 100
2, 41656, Note_off_c, 0, 65, 100
2, 41664, Note_on_c, 0, 76, 100
2, 41848, Note_off_c, 0, 76, 100
2, 41856, Note_on_c, 0, 74, 100
2, 42040, Note_off_c, 0, 74, 100
2, 42048, Note_on_c, 0, 72, 100
2, 42232, Note_off_c, 0, 72, 100
2, 42240, Note_on_c, 0, 74, 100
2, 42424, Note_off_c, 0, 74, 100
2, 42432, Note_on_c, 0, 71, 100
2, 42616, Note_off_c, 0, 71, 100
2, 42624, Note_on_c, 0, 65, 100
2, 43192, Note_off_c, 0, 65, 100
2, 43200, Note_on_c, 0, 64, 100
2, 43384, Note_off_c, 0, 64, 100
2, 43392, Note_on_c, 0, 65, 100
2, 43576, Note_off_c, 0, 65, 100
2, 43584, Note_on_c, 0, 67, 100
2, 43768, Note_off_c, 0, 67, 100
2, 43776, Note_on_c, 0, 64, 100
2, 43960, Note_off_c, 0, 64, 100
2, 43968, Note_on_c, 0, 67, 100
2, 44152, Note_off_c, 0, 67, 100
2, 44160, Note_on_c, 0, 72, 100
2, 44344, Note_off_c, 0, 72, 100
2, 44544, Note_on_c, 0, 62, 100
2, 44728, Note_off_c, 0, 62, 100
2, 44736, Note_on_c, 0, 72, 99
2, 44920, Note_off_c, 0, 72, 100
2, 44928, Note_on_c, 0, 71, 98
2, 45112, Note_off_c, 0, 71, 100
2, 45120, Note_on_c, 0, 69, 97
2, 45304, Note_off_c, 0, 69, 100
2, 45312, Note_on_c, 0, 71, 95
2, 45496, Note_off_c, 0, 71, 100
2, 45504, Note_on_c, 0, 68, 94
2, 45688, Note_off_c, 0, 68, 100
2, 45696, Note_on_c, 0, 62, 93
2, 46264, Note_off_c, 0, 62, 100
2, 46272, Note_on_c, 0, 60, 89
2, 46456, Note_off_c, 0, 60, 100
2, 46464, Note_on_c, 0, 62, 88
2, 46648, Note_off_c, 0, 62, 100
2, 46656, Note_on_c, 0, 64, 87
2, 46840, Note_off_c, 0, 64, 100
2, 46848, Note_on_c, 0, 60, 85
2, 47032, Note_off_c, 0, 60, 100
2, 47040, Note_on_c, 0, 65, 84
2, 47224, Note_off_c, 0, 65, 100
2, 47232, Note_on_c, 0, 64, 83
2, 47416, Note_off_c, 0, 64, 100
2, 47424, Note_on_c, 0, 62, 82
2, 47608, Note_off_c, 0, 62, 100
2, 47616, Note_on_c, 0, 64, 83
2, 47992, Note_off_c, 0, 64, 100
2, 48000, Note_on_c, 0, 57, 83
2, 48760, Note_off_c, 0, 57, 100
2, 48768, Note_on_c, 0, 56, 83
2, 49144, Note_off_c, 0, 56, 100
2, 49152, Note_on_c, 0, 57, 83
2, 49528, Note_off_c, 0, 57, 100
2, 49920, Note_on_c, 0, 69, 83
2, 50680, Note_off_c, 0, 69, 100
2, 50688, Note_on_c, 0, 72, 83
2, 51448, Note_off_c, 0, 72, 100
2, 51456, Note_on_c, 0, 64, 83
2, 52216, Note_off_c, 0, 64, 100
2, 52224, Note_on_c, 0, 65, 83
2, 52408, Note_off_c, 0, 65, 100
2, 52416, Note_on_c, 0, 64, 83
2, 52600, Note_off_c, 0, 64, 100
2, 52608, Note_on_c, 0, 62, 83
2, 53368, Note_off_c, 0, 62, 100
2, 53376, Note_on_c, 0, 64, 83
2, 53560, Note_off_c, 0, 64, 100
2, 53568, Note_on_c, 0, 66, 83
2, 53752, Note_off_c, 0, 66, 100
2, 53760, Note_on_c, 0, 67, 83
2, 53944, Note_off_c, 0, 67, 100
2, 53952, Note_on_c, 0, 69, 83
2, 54136, Note_off_c, 0, 69, 100
2, 54144, Note_on_c, 0, 70, 83
2, 54824, Note_off_c, 0, 70, 100
2, 54912, Note_on_c, 0, 69, 92
2, 55096, Note_off_c, 0, 69, 100
2, 55104, Note_on_c, 0, 68, 98
2, 55288, Note_off_c, 0, 68, 100
2, 55296, Note_on_c, 0, 69, 100
2, 55480, Note_off_c, 0, 69, 100
2, 55488, Note_on_c, 0, 64, 100
2, 55672, Note_off_c, 0, 64, 100
2, 55680, Note_on_c, 0, 69, 100
2, 55864, Note_off_c, 0, 69, 100
2, 55872, Note_on_c, 0, 71, 100
2, 56056, Note_off_c, 0, 71, 100
2, 56064, Note_on_c, 0, 69, 100
2, 56248, Note_off_c, 0, 69, 100
2, 56256, Note_on_c, 0, 64, 100
2, 56440, Note_off_c, 0, 64, 100
2, 56448, Note_on_c, 0, 69, 100
2, 56632, Note_off_c, 0, 69, 100
2, 56640, Note_on_c, 0, 72, 100
2, 56824, Note_off_c, 0, 72, 100
2, 56832, Note_on_c, 0, 71, 100
2, 57016, Note_off_c, 0, 71, 100
2, 57024, Note_on_c, 0, 64, 100
2, 57208, Note_off_c, 0, 64, 100
2, 57216, Note_on_c, 0, 71, 100
2, 57400, Note_off_c, 0, 71, 100
2, 57408, Note_on_c, 0, 72, 100
2, 57592, Note_off_c, 0, 72, 100
2, 57600, Note_on_c, 0, 71, 100
2, 57784, Note_off_c, 0, 71, 100
2, 57792, Note_on_c, 0, 64, 100
2, 57976, Note_off_c, 0, 64, 100
2, 57984, Note_on_c, 0, 71, 100
2, 58168, Note_off_c, 0, 71, 100
2, 58176, Note_on_c, 0, 74, 100
2, 58360, Note_off_c, 0, 74, 100
2, 58368, Note_on_c, 0, 72, 100
2, 58552, Note_off_c, 0, 72, 100
2, 58560, Note_on_c, 0, 64, 100
2, 58744, Note_off_c, 0, 64, 100
2, 58752, Note_on_c, 0, 72, 100
2, 58936, Note_off_c, 0, 72, 100
2, 58944, Note_on_c, 0, 74, 100
2, 59128, Note_off_c, 0, 74, 100
2, 59136, Note_on_c, 0, 72, 100
2, 59320, Note_off_c, 0, 72, 100
2, 59328, Note_on_c, 0, 64, 100
2, 59512, Note_off_c, 0, 64, 100
2, 59520, Note_on_c, 0, 72, 100
2, 59704, Note_off_c, 0, 72, 100
2, 59712, Note_on_c, 0, 76, 100
2, 59896, Note_off_c, 0, 76, 100
2, 59904, Note_on_c, 0, 71, 100
2, 60088, Note_off_c, 0, 71, 100
2, 60096, Note_on_c, 0, 64, 100
2, 60280, Note_off_c, 0, 64, 100
2, 60288, Note_on_c, 0, 71, 100
2, 60472, Note_off_c, 0, 71, 100
2, 60480, Note_on_c, 0, 72, 100
2, 60664, Note_off_c, 0, 72, 100
2, 60672, Note_on_c, 0, 71, 100
2, 60856, Note_off_c, 0, 71, 100
2, 60864, Note_on_c, 0, 64, 100
2, 61048, Note_off_c, 0, 64, 100
2, 61056, Note_on_c, 0, 71, 100
2, 61240, Note_off_c, 0, 71, 100
2, 61248, Note_on_c, 0, 74, 100
2, 61432, Note_off_c, 0, 74, 100
2, 61440, Note_on_c, 0, 72, 100
2, 61624, Note_off_c, 0, 72, 100
2, 61632, Note_on_c, 0, 71, 100
2, 61816, Note_off_c, 0, 71, 100
2, 61824, Note_on_c, 0, 69, 100
2, 62392, Note_off_c, 0, 69, 100
2, 62592, Note_on_c, 0, 68, 100
2, 62968, Note_off_c, 0, 68, 100
2, 62976, Note_on_c, 0, 69, 100
2, 63160, Note_off_c, 0, 69, 100
2, 63168, Note_on_c, 0, 72, 100
2, 63352, Note_off_c, 0, 72, 100
2, 63360, Note_on_c, 0, 71, 100
2, 63544, Note_off_c, 0, 71, 100
2, 63552, Note_on_c, 0, 74, 100
2, 63736, Note_off_c, 0, 74, 100
2, 63744, Note_on_c, 0, 72, 100
2, 63928, Note_off_c, 0, 72, 100
2, 63936, Note_on_c, 0, 71, 100
2, 64120, Note_off_c, 0, 71, 100
2, 64128, Note_on_c, 0, 72, 100
2, 64312, Note_off_c, 0, 72, 100
2, 64320, Note_on_c, 0, 69, 100
2, 64504, Note_off_c, 0, 69, 100
2, 64512, Note_on_c, 0, 64, 100
2, 64888, Note_off_c, 0, 64, 100
2, 64896, Note_on_c, 0, 66, 100
2, 65272, Note_off_c, 0, 66, 100
2, 65280, Note_on_c, 0, 67, 100
2, 65656, Note_off_c, 0, 67, 100
2, 65664, Note_on_c, 0, 66, 100
2, 65848, Note_off_c, 0, 66, 100
2, 65856, Note_on_c, 0, 64, 100
2, 66040, Note_off_c, 0, 64, 100
2, 66048, Note_on_c, 0, 66, 100
2, 66424, Note_off_c, 0, 66, 100
2, 66432, Note_on_c, 0, 68, 100
2, 66808, Note_off_c, 0, 68, 100
2, 66816, Note_on_c, 0, 69, 100
2, 67960, Note_off_c, 0, 69, 100
2, 67968, Note_on_c, 0, 67, 86
2, 68152, Note_off_c, 0, 67, 100
2, 68160, Note_on_c, 0, 66, 87
2, 68344, Note_off_c, 0, 66, 100
2, 68352, Note_on_c, 0, 67, 87
2, 68728, Note_off_c, 0, 67, 100
2, 68736, Note_on_c, 0, 64, 89
2, 69496, Note_off_c, 0, 64, 100
2, 69504, Note_on_c, 0, 63, 91
2, 69688, Note_off_c, 0, 63, 100
2, 69696, Note_on_c, 0, 61, 92
2, 69880, Note_off_c, 0, 61, 100
2, 69888, Note_on_c, 0, 64, 93
2, 69976, Note_off_c, 0, 64, 100
2, 69984, Note_on_c, 0, 63, 93
2, 70072, Note_off_c, 0, 63, 100
2, 70080, Note_on_c, 0, 64, 93
2, 70168, Note_off_c, 0, 64, 100
2, 70176, Note_on_c, 0, 63, 94
2, 70264, Note_off_c, 0, 63, 100
2, 70272, Note_on_c, 0, 64, 94
2, 70360, Note_off_c, 0, 64, 100
2, 70368, Note_on_c, 0, 63, 94
2, 70456, Note_off_c, 0, 63, 100
2, 70464, Note_on_c, 0, 61, 95
2, 70552, Note_off_c, 0, 61, 100
2, 70560, Note_on_c, 0, 63, 95
2, 70648, Note_off_c, 0, 63, 100
2, 70656, Note_on_c, 0, 64, 96
2, 70840, Note_off_c, 0, 64, 100
2, 71040, Note_on_c, 0, 71, 97
2, 71416, Note_off_c, 0, 71, 100
2, 71424, Note_on_c, 0, 76, 98
2, 72920, Note_off_c, 0, 76, 100
2, 72960, Note_on_c, 0, 76, 104
2, 73048, Note_off_c, 0, 76, 100
2, 73056, Note_on_c, 0, 75, 104
2, 73144, Note_off_c, 0, 75, 100
2, 73152, Note_on_c, 0, 76, 104
2, 73240, Note_off_c, 0, 76, 100
2, 73248, Note_on_c, 0, 75, 105
2, 73336, Note_off_c, 0, 75, 100
2, 73344, Note_on_c, 0, 76, 105
2, 73432, Note_off_c, 0, 76, 100
2, 73440, Note_on_c, 0, 75, 105
2, 73528, Note_off_c, 0, 75, 100
2, 73536, Note_on_c, 0, 73, 106
2, 73624, Note_off_c, 0, 73, 100
2, 73632, Note_on_c, 0, 75, 106
2, 73720, Note_off_c, 0, 75, 100
2, 73728, Note_on_c, 0, 76, 100
2, 74104, Note_off_c, 0, 76, 100
2, 74304, Note_on_c, 0, 74, 100
2, 74392, Note_off_c, 0, 74, 100
2, 74400, Note_on_c, 0, 76, 100
2, 74488, Note_off_c, 0, 76, 100
2, 74496, Note_on_c, 0, 77, 100
2, 74680, Note_off_c, 0, 77, 100
2, 74688, Note_on_c, 0, 76, 100
2, 74872, Note_off_c, 0, 76, 100
2, 74880, Note_on_c, 0, 74, 100
2, 75064, Note_off_c, 0, 74, 100
2, 75072, Note_on_c, 0, 72, 100
2, 75256, Note_off_c, 0, 72, 100
2, 75264, Note_on_c, 0, 71, 100
2, 75448, Note_off_c, 0, 71, 100
2, 75456, Note_on_c, 0, 72, 100
2, 75640, Note_off_c, 0, 72, 100
2, 75648, Note_on_c, 0, 74, 100
2, 76216, Note_off_c, 0, 74, 100
2, 76224, Note_on_c, 0, 72, 100
2, 76408, Note_off_c, 0, 72, 100
2, 76416, Note_on_c, 0, 71, 100
2, 76600, Note_off_c, 0, 71, 100
2, 76608, Note_on_c, 0, 69, 100
2, 76792, Note_off_c, 0, 69, 100
2, 76800, Note_on_c, 0, 68, 100
2, 76984, Note_off_c, 0, 68, 100
2, 76992, Note_on_c, 0, 69, 100
2, 77176, Note_off_c, 0, 69, 100
2, 77184, Note_on_c, 0, 71, 100
2, 77752, Note_off_c, 0, 71, 100
2, 77760, Note_on_c, 0, 69, 100
2, 77944, Note_off_c, 0, 69, 100
2, 77952, Note_on_c, 0, 68, 100
2, 78136, Note_off_c, 0, 68, 100
2, 78144, Note_on_c, 0, 66, 100
2, 78328, Note_off_c, 0, 66, 100
2, 78336, Note_on_c, 0, 68, 100
2, 78520, Note_off_c, 0, 68, 100
2, 78528, Note_on_c, 0, 64, 100
2, 78712, Note_off_c, 0, 64, 100
2, 78720, Note_on_c, 0, 68, 100
2, 78904, Note_off_c, 0, 68, 100
2, 78912, Note_on_c, 0, 69, 100
2, 79096, Note_off_c, 0, 69, 100
2, 79104, Note_on_c, 0, 71, 100
2, 79288, Note_off_c, 0, 71, 100
2, 79296, Note_on_c, 0, 72, 100
2, 79480, Note_off_c, 0, 72, 100
2, 79488, Note_on_c, 0, 74, 100
2, 79672, Note_off_c, 0, 74, 100
2, 79680, Note_on_c, 0, 71, 100
2, 79864, Note_off_c, 0, 71, 100
2, 79872, Note_on_c, 0, 72, 100
2, 80056, Note_off_c, 0, 72, 100
2, 80064, Note_on_c, 0, 71, 100
2, 80248, Note_off_c, 0, 71, 100
2, 80256, Note_on_c, 0, 69, 100
2, 80440, Note_off_c, 0, 69, 100
2, 80448, Note_on_c, 0, 71, 100
2, 80632, Note_off_c, 0, 71, 100
2, 80640, Note_on_c, 0, 72, 100
2, 80824, Note_off_c, 0, 72, 100
2, 80832, Note_on_c, 0, 74, 100
2, 81016, Note_off_c, 0, 74, 100
2, 81024, Note_on_c, 0, 75, 100
2, 81208, Note_off_c, 0, 75, 100
2, 81216, Note_on_c, 0, 72, 100
2, 81400, Note_off_c, 0, 72, 100
2, 81408, Note_on_c, 0, 69, 100
2, 81592, Note_off_c, 0, 69, 100
2, 81600, Note_on_c, 0, 71, 100
2, 81784, Note_off_c, 0, 71, 100
2, 81792, Note_on_c, 0, 72, 100
2, 82360, Note_off_c, 0, 72, 100
2, 82368, Note_on_c, 0, 71, 100
2, 82552, Note_off_c, 0, 71, 100
2, 82560, Note_on_c, 0, 69, 100
2, 82744, Note_off_c, 0, 69, 100
2, 82752, Note_on_c, 0, 67, 100
2, 82936, Note_off_c, 0, 67, 100
2, 82944, Note_on_c, 0, 66, 100
2, 83128, Note_off_c, 0, 66, 100
2, 83136, Note_on_c, 0, 67, 100
2, 83320, Note_off_c, 0, 67, 100
2, 83328, Note_on_c, 0, 69, 100
2, 83896, Note_off_c, 0, 69, 100
2, 83904, Note_on_c, 0, 67, 100
2, 84088, Note_off_c, 0, 67, 100
2, 84096, Note_on_c, 0, 66, 100
2, 84280, Note_off_c, 0, 66, 100
2, 84288, Note_on_c, 0, 64, 100
2, 84472, Note_off_c, 0, 64, 100
2, 84480, Note_on_c, 0, 66, 100
2, 84664, Note_off_c, 0, 66, 100
2, 84672, Note_on_c, 0, 62, 100
2, 84856, Note_off_c, 0, 62, 100
2, 84864, Note_on_c, 0, 66, 100
2, 85048, Note_off_c, 0, 66, 100
2, 85056, Note_on_c, 0, 67, 100
2, 85240, Note_off_c, 0, 67, 100
2, 85248, Note_on_c, 0, 69, 100
2, 85432, Note_off_c, 0, 69, 100
2, 85440, Note_on_c, 0, 71, 100
2, 85624, Note_off_c, 0, 71, 100
2, 85632, Note_on_c, 0, 72, 100
2, 85816, Note_off_c, 0, 72, 100
2, 85824, Note_on_c, 0, 69, 100
2, 86008, Note_off_c, 0, 69, 100
2, 86016, Note_on_c, 0, 71, 100
2, 86200, Note_off_c, 0, 71, 100
2, 86208, Note_on_c, 0, 69, 100
2, 86392, Note_off_c, 0, 69, 100
2, 86400, Note_on_c, 0, 67, 100
2, 86584, Note_off_c, 0, 67, 100
2, 86592, Note_on_c, 0, 69, 100
2, 86776, Note_off_c, 0, 69, 100
2, 86784, Note_on_c, 0, 71, 100
2, 86968, Note_off_c, 0, 71, 100
2, 86976, Note_on_c, 0, 72, 100
2, 87160, Note_off_c, 0, 72, 100
2, 87168, Note_on_c, 0, 74, 100
2, 87352, Note_off_c, 0, 74, 100
2, 87360, Note_on_c, 0, 71, 100
2, 87544, Note_off_c, 0, 71, 100
2, 87552, Note_on_c, 0, 72, 100
2, 87736, Note_off_c, 0, 72, 100
2, 87936, Note_on_c, 0, 76, 100
2, 88120, Note_off_c, 0, 76, 100
2, 88320, Note_on_c, 0, 69, 99
2, 88504, Note_off_c, 0, 69, 100
2, 88704, Note_on_c, 0, 72, 98
2, 88888, Note_off_c, 0, 72, 100
2, 89088, Note_on_c, 0, 66, 97
2, 89464, Note_off_c, 0, 66, 100
2, 89472, Note_on_c, 0, 67, 96
2, 89656, Note_off_c, 0, 67, 100
2, 89664, Note_on_c, 0, 69, 96
2, 89848, Note_off_c, 0, 69, 100
2, 89856, Note_on_c, 0, 71, 95
2, 90232, Note_off_c, 0, 71, 100
2, 90240, Note_on_c, 0, 67, 95
2, 90616, Note_off_c, 0, 67, 100
2, 90624, Note_on_c, 0, 69, 94
2, 90808, Note_off_c, 0, 69, 100
2, 91008, Note_on_c, 0, 72, 93
2, 91192, Note_off_c, 0, 72, 100
2, 91392, Note_on_c, 0, 66, 92
2, 91576, Note_off_c, 0, 66, 100
2, 91776, Note_on_c, 0, 69, 91
2, 91960, Note_off_c, 0, 69, 100
2, 92160, Note_on_c, 0, 62, 90
2, 92536, Note_off_c, 0, 62, 100
2, 92544, Note_on_c, 0, 64, 90
2, 92728, Note_off_c, 0, 64, 100
2, 92736, Note_on_c, 0, 66, 89
2, 92920, Note_off_c, 0, 66, 100
2, 92928, Note_on_c, 0, 67, 89
2, 93304, Note_off_c, 0, 67, 100
2, 93312, Note_on_c, 0, 64, 88
2, 93688, Note_off_c, 0, 64, 100
2, 93696, Note_on_c, 0, 66, 87
2, 93880, Note_off_c, 0, 66, 100
2, 94080, Note_on_c, 0, 69, 86
2, 94264, Note_off_c, 0, 69, 100
2, 94464, Note_on_c, 0, 63, 85
2, 94648, Note_off_c, 0, 63, 100
2, 94848, Note_on_c, 0, 66, 85
2, 95032, Note_off_c, 0, 66, 100
2, 95232, Note_on_c, 0, 59, 84
2, 95608, Note_off_c, 0, 59, 100
2, 95616, Note_on_c, 0, 61, 83
2, 95800, Note_off_c, 0, 61, 100
2, 95808, Note_on_c, 0, 63, 83
2, 95992, Note_off_c, 0, 63, 100
2, 96000, Note_on_c, 0, 64, 82
2, 97144, Note_off_c, 0, 64, 100
2, 97152, Note_on_c, 0, 62, 76
2, 97336, Note_off_c, 0, 62, 100
2, 97344, Note_on_c, 0, 61, 76
2, 97528, Note_off_c, 0, 61, 100
2, 97536, Note_on_c, 0, 62, 77
2, 98680, Note_off_c, 0, 62, 100
2, 98688, Note_on_c, 0, 64, 80
2, 98872, Note_off_c, 0, 64, 100
2, 98880, Note_on_c, 0, 66, 80
2, 99064, Note_off_c, 0, 66, 100
2, 99072, Note_on_c, 0, 67, 81
2, 100216, Note_off_c, 0, 67, 100
2, 100224, Note_on_c, 0, 65, 84
2, 100408, Note_off_c, 0, 65, 100
2, 100416, Note_on_c, 0, 64, 84
2, 100600, Note_off_c, 0, 64, 100
2, 100608, Note_on_c, 0, 65, 85
2, 101752, Note_off_c, 0, 65, 100
2, 101760, Note_on_c, 0, 67, 88
2, 101944, Note_off_c, 0, 67, 100
2, 101952, Note_on_c, 0, 69, 89
2, 102136, Note_off_c, 0, 69, 100
2, 102144, Note_on_c, 0, 70, 89
2, 103288, Note_off_c, 0, 70, 100
2, 103296, Note_on_c, 0, 69, 92
2, 103480, Note_off_c, 0, 69, 100
2, 103488, Note_on_c, 0, 68, 93
2, 103672, Note_off_c, 0, 68, 100
2, 103680, Note_on_c, 0, 69, 93
2, 105008, Note_off_c, 0, 69, 100
2, 105216, Note_on_c, 0, 69, 97
2, 105304, Note_off_c, 0, 69, 100
2, 105312, Note_on_c, 0, 68, 98
2, 105400, Note_off_c, 0, 68, 100
2, 105408, Note_on_c, 0, 69, 98
2, 105496, Note_off_c, 0, 69, 100
2, 105504, Note_on_c, 0, 68, 98
2, 105592, Note_off_c, 0, 68, 100
2, 105600, Note_on_c, 0, 69, 98
2, 105688, Note_off_c, 0, 69, 100
2, 105696, Note_on_c, 0, 68, 99
2, 105784, Note_off_c, 0, 68, 100
2, 105792, Note_on_c, 0, 66, 99
2, 105880, Note_off_c, 0, 66, 100
2, 105888, Note_on_c, 0, 68, 99
2, 105976, Note_off_c, 0, 68, 100
2, 105984, Note_on_c, 0, 69, 100
2, 106552, Note_off_c, 0, 69, 100
2, 106752, Note_on_c, 0, 76, 100
2, 107512, Note_off_c, 0, 76, 100
2, 107520, Note_on_c, 0, 77, 100
2, 108280, Note_off_c, 0, 77, 100
2, 108288, Note_on_c, 0, 69, 100
2, 109048, Note_off_c, 0, 69, 100
2, 109056, Note_on_c, 0, 72, 100
2, 109240, Note_off_c, 0, 72, 100
2, 109248, Note_on_c, 0, 71, 100
2, 109432, Note_off_c, 0, 71, 100
2, 109440, Note_on_c, 0, 69, 100
2, 110200, Note_off_c, 0, 69, 100
2, 110208, Note_on_c, 0, 71, 100
2, 110392, Note_off_c, 0, 71, 100
2, 110400, Note_on_c, 0, 72, 100
2, 110584, Note_off_c, 0, 72, 100
2, 110592, Note_on_c, 0, 74, 100
2, 110776, Note_off_c, 0, 74, 100
2, 110784, Note_on_c, 0, 76, 100
2, 110968, Note_off_c, 0, 76, 100
2, 110976, Note_on_c, 0, 77, 100
2, 111736, Note_off_c, 0, 77, 100
2, 111744, Note_on_c, 0, 76, 100
2, 111928, Note_off_c, 0, 76, 100
2, 111936, Note_on_c, 0, 75, 100
2, 112120, Note_off_c, 0, 75, 100
2, 112128, Note_on_c, 0, 76, 100
2, 112312, Note_off_c, 0, 76, 100
2, 112320, Note_on_c, 0, 71, 100
2, 112504, Note_off_c, 0, 71, 100
2, 112512, Note_on_c, 0, 76, 100
2, 112696, Note_off_c, 0, 76, 100
2, 112704, Note_on_c, 0, 78, 100
2, 112888, Note_off_c, 0, 78, 100
2, 112896, Note_on_c, 0, 76, 100
2, 113080, Note_off_c, 0, 76, 100
2, 113088, Note_on_c, 0, 71, 100
2, 113272, Note_off_c, 0, 71, 100
2, 113280, Note_on_c, 0, 76, 100
2, 113464, Note_off_c, 0, 76, 100
2, 113472, Note_on_c, 0, 79, 100
2, 113656, Note_off_c, 0, 79, 100
2, 113664, Note_on_c, 0, 78, 100
2, 113848, Note_off_c, 0, 78, 100
2, 113856, Note_on_c, 0, 71, 100
2, 114040, Note_off_c, 0, 71, 100
2, 114048, Note_on_c, 0, 78, 100
2, 114232, Note_off_c, 0, 78, 100
2, 114240, Note_on_c, 0, 79, 100
2, 114424, Note_off_c, 0, 79, 100
2, 114432, Note_on_c, 0, 78, 100
2, 114616, Note_off_c, 0, 78, 100
2, 114624, Note_on_c, 0, 71, 100
2, 114808, Note_off_c, 0, 71, 100
2, 114816, Note_on_c, 0, 78, 100
2, 115000, Note_off_c, 0, 78, 100
2, 115008, Note_on_c, 0, 81, 100
2, 115192, Note_off_c, 0, 81, 100
2, 115200, Note_on_c, 0, 79, 100
2, 115384, Note_off_c, 0, 79, 100
2, 115392, Note_on_c, 0, 71, 100
2, 115576, Note_off_c, 0, 71, 100
2, 115584, Note_on_c, 0, 79, 100
2, 115768, Note_off_c, 0, 79, 100
2, 115776, Note_on_c, 0, 81, 100
2, 115960, Note_off_c, 0, 81, 100
2, 115968, Note_on_c, 0, 79, 100
2, 116152, Note_off_c, 0, 79, 100
2, 116160, Note_on_c, 0, 71, 100
2, 116344, Note_off_c, 0, 71, 100
2, 116352, Note_on_c, 0, 79, 100
2, 116536, Note_off_c, 0, 79, 100
2, 116544, Note_on_c, 0, 83, 100
2, 116728, Note_off_c, 0, 83, 100
2, 116736, Note_on_c, 0, 78, 100
2, 116920, Note_off_c, 0, 78, 100
2, 116928, Note_on_c, 0, 71, 100
2, 117112, Note_off_c, 0, 71, 100
2, 117120, Note_on_c, 0, 78, 100
2, 117304, Note_off_c, 0, 78, 100
2, 117312, Note_on_c, 0, 79, 100
2, 117496, Note_off_c, 0, 79, 100
2, 117504, Note_on_c, 0, 78, 100
2, 117688, Note_off_c, 0, 78, 100
2, 117696, Note_on_c, 0, 71, 100
2, 117880, Note_off_c, 0, 71, 100
2, 117888, Note_on_c, 0, 78, 100
2, 118072, Note_off_c, 0, 78, 100
2, 118080, Note_on_c, 0, 81, 100
2, 118264, Note_off_c, 0, 81, 100
2, 118272, Note_on_c, 0, 79, 100
2, 118456, Note_off_c, 0, 79, 100
2, 118464, Note_on_c, 0, 71, 83
2, 118648, Note_off_c, 0, 71, 100
2, 118656, Note_on_c, 0, 76, 83
2, 118840, Note_off_c, 0, 76, 100
2, 118848, Note_on_c, 0, 78, 83
2, 119032, Note_off_c, 0, 78, 100
2, 119040, Note_on_c, 0, 79, 83
2, 119224, Note_off_c, 0, 79, 100
2, 119232, Note_on_c, 0, 81, 83
2, 119416, Note_off_c, 0, 81, 100
2, 119424, Note_on_c, 0, 82, 83
2, 119608, Note_off_c, 0, 82, 100
2, 119616, Note_on_c, 0, 79, 83
2, 119800, Note_off_c, 0, 79, 100
2, 119808, Note_on_c, 0, 76, 83
2, 119992, Note_off_c, 0, 76, 100
2, 120000, Note_on_c, 0, 77, 83
2, 120184, Note_off_c, 0, 77, 100
2, 120192, Note_on_c, 0, 79, 83
2, 120760, Note_off_c, 0, 79, 100
2, 120768, Note_on_c, 0, 77, 83
2, 120952, Note_off_c, 0, 77, 100
2, 120960, Note_on_c, 0, 76, 83
2, 121144, Note_off_c, 0, 76, 100
2, 121152, Note_on_c, 0, 74, 83
2, 121336, Note_off_c, 0, 74, 100
2, 121344, Note_on_c, 0, 73, 83
2, 121528, Note_off_c, 0, 73, 100
2, 121536, Note_on_c, 0, 74, 83
2, 121720, Note_off_c, 0, 74, 100
2, 121728, Note_on_c, 0, 76, 83
2, 122296, Note_off_c, 0, 76, 100
2, 122304, Note_on_c, 0, 74, 83
2, 122488, Note_off_c, 0, 74, 100
2, 122496, Note_on_c, 0, 73, 83
2, 122680, Note_off_c, 0, 73, 100
2, 122688, Note_on_c, 0, 71, 83
2, 122872, Note_off_c, 0, 71, 100
2, 122880, Note_on_c, 0, 73, 83
2, 123064, Note_off_c, 0, 73, 100
2, 123072, Note_on_c, 0, 69, 83
2, 123256, Note_off_c, 0, 69, 100
2, 123264, Note_on_c, 0, 73, 83
2, 123448, Note_off_c, 0, 73, 100
2, 123456, Note_on_c, 0, 74, 83
2, 123640, Note_off_c, 0, 74, 100
2, 123648, Note_on_c, 0, 76, 83
2, 123832, Note_off_c, 0, 76, 100
2, 123840, Note_on_c, 0, 77, 83
2, 124024, Note_off_c, 0, 77, 100
2, 124032, Note_on_c, 0, 79, 83
2, 124216, Note_off_c, 0, 79, 100
2, 124224, Note_on_c, 0, 76, 83
2, 124408, Note_off_c, 0, 76, 100
2, 124416, Note_on_c, 0, 77, 83
2, 124600, Note_off_c, 0, 77, 100
2, 124608, Note_on_c, 0, 76, 83
2, 124792, Note_off_c, 0, 76, 100
2, 124800, Note_on_c, 0, 74, 83
2, 124984, Note_off_c, 0, 74, 100
2, 124992, Note_on_c, 0, 73, 83
2, 125176, Note_off_c, 0, 73, 100
2, 125184, Note_on_c, 0, 74, 83
2, 125368, Note_off_c, 0, 74, 100
2, 125568, Note_on_c, 0, 72, 83
2, 125752, Note_off_c, 0, 72, 100
2, 125952, Note_on_c, 0, 71, 83
2, 126136, Note_off_c, 0, 71, 100
2, 126336, Note_on_c, 0, 80, 83
2, 126712, Note_off_c, 0, 80, 100
2, 126720, Note_on_c, 0, 79, 83
2, 126808, Note_off_c, 0, 79, 100
2, 126816, Note_on_c, 0, 80, 83
2, 126904, Note_off_c, 0, 80, 100
2, 126912, Note_on_c, 0, 79, 83
2, 127096, Note_off_c, 0, 79, 100
2, 127104, Note_on_c, 0, 77, 83
2, 127288, Note_off_c, 0, 77, 100
2, 127488, Note_on_c, 0, 68, 83
2, 127672, Note_off_c, 0, 68, 100
2, 127872, Note_on_c, 0, 77, 83
2, 128248, Note_off_c, 0, 77, 100
2, 128256, Note_on_c, 0, 76, 83
2, 128344, Note_off_c, 0, 76, 100
2, 128352, Note_on_c, 0, 77, 83
2, 128440, Note_off_c, 0, 77, 100
2, 128448, Note_on_c, 0, 76, 83
2, 128632, Note_off_c, 0, 76, 100
2, 128640, Note_on_c, 0, 74, 83
2, 128824, Note_off_c, 0, 74, 100
2, 129024, Note_on_c, 0, 65, 83
2, 129208, Note_off_c, 0, 65, 100
2, 129408, Note_on_c, 0, 74, 83
2, 129784, Note_off_c, 0, 74, 100
2, 129792, Note_on_c, 0, 72, 83
2, 129880, Note_off_c, 0, 72, 100
2, 129888, Note_on_c, 0, 74, 83
2, 129976, Note_off_c, 0, 74, 100
2, 129984, Note_on_c, 0, 72, 83
2, 130168, Note_off_c, 0, 72, 100
2, 130176, Note_on_c, 0, 71, 83
2, 130360, Note_off_c, 0, 71, 100
2, 130560, Note_on_c, 0, 72, 100
2, 130744, Note_off_c, 0, 72, 100
2, 130752, Note_on_c, 0, 67, 100
2, 130936, Note_off_c, 0, 67, 100
2, 130944, Note_on_c, 0, 72, 100
2, 131128, Note_off_c, 0, 72, 100
2, 131136, Note_on_c, 0, 74, 100
2, 131320, Note_off_c, 0, 74, 100
2, 131328, Note_on_c, 0, 76, 100
2, 131512, Note_off_c, 0, 76, 100
2, 131520, Note_on_c, 0, 66, 100
2, 131704, Note_off_c, 0, 66, 100
2, 131712, Note_on_c, 0, 69, 100
2, 131896, Note_off_c, 0, 69, 100
2, 131904, Note_on_c, 0, 72, 100
2, 132088, Note_off_c, 0, 72, 100
2, 132096, Note_on_c, 0, 71, 100
2, 132280, Note_off_c, 0, 71, 100
2, 132288, Note_on_c, 0, 63, 100
2, 132472, Note_off_c, 0, 63, 100
2, 132480, Note_on_c, 0, 71, 100
2, 132664, Note_off_c, 0, 71, 100
2, 132672, Note_on_c, 0, 72, 100
2, 132856, Note_off_c, 0, 72, 100
2, 132864, Note_on_c, 0, 71, 100
2, 133048, Note_off_c, 0, 71, 100
2, 133056, Note_on_c, 0, 64, 100
2, 133240, Note_off_c, 0, 64, 100
2, 133248, Note_on_c, 0, 71, 100
2, 133432, Note_off_c, 0, 71, 100
2, 133440, Note_on_c, 0, 74, 100
2, 133624, Note_off_c, 0, 74, 100
2, 133632, Note_on_c, 0, 73, 100
2, 133816, Note_off_c, 0, 73, 100
2, 133824, Note_on_c, 0, 69, 100
2, 134008, Note_off_c, 0, 69, 100
2, 134016, Note_on_c, 0, 73, 100
2, 134200, Note_off_c, 0, 73, 100
2, 134208, Note_on_c, 0, 75, 100
2, 134392, Note_off_c, 0, 75, 100
2, 134400, Note_on_c, 0, 76, 100
2, 134584, Note_off_c, 0, 76, 100
2, 134592, Note_on_c, 0, 67, 100
2, 134776, Note_off_c, 0, 67, 100
2, 134784, Note_on_c, 0, 72, 100
2, 134968, Note_off_c, 0, 72, 100
2, 134976, Note_on_c, 0, 76, 100
2, 135160, Note_off_c, 0, 76, 100
2, 135168, Note_on_c, 0, 74, 100
2, 135352, Note_off_c, 0, 74, 100
2, 135360, Note_on_c, 0, 66, 100
2, 135544, Note_off_c, 0, 66, 100
2, 135552, Note_on_c, 0, 74, 100
2, 135736, Note_off_c, 0, 74, 100
2, 135744, Note_on_c, 0, 75, 100
2, 135928, Note_off_c, 0, 75, 100
2, 135936, Note_on_c, 0, 74, 100
2, 136120, Note_off_c, 0, 74, 100
2, 136128, Note_on_c, 0, 67, 100
2, 136312, Note_off_c, 0, 67, 100
2, 136320, Note_on_c, 0, 74, 100
2, 136504, Note_off_c, 0, 74, 100
2, 136512, Note_on_c, 0, 77, 100
2, 136696, Note_off_c, 0, 77, 100
2, 136704, Note_on_c, 0, 76, 100
2, 136888, Note_off_c, 0, 76, 100
2, 136896, Note_on_c, 0, 72, 100
2, 137080, Note_off_c, 0, 72, 100
2, 137088, Note_on_c, 0, 76, 100
2, 137272, Note_off_c, 0, 76, 100
2, 137280, Note_on_c, 0, 78, 100
2, 137464, Note_off_c, 0, 78, 100
2, 137472, Note_on_c, 0, 79, 100
2, 137656, Note_off_c, 0, 79, 100
2, 137664, Note_on_c, 0, 70, 100
2, 137848, Note_off_c, 0, 70, 100
2, 137856, Note_on_c, 0, 75, 100
2, 138040, Note_off_c, 0, 75, 100
2, 138048, Note_on_c, 0, 79, 100
2, 138232, Note_off_c, 0, 79, 100
2, 138240, Note_on_c, 0, 77, 100
2, 138424, Note_off_c, 0, 77, 100
2, 138432, Note_on_c, 0, 69, 100
2, 138616, Note_off_c, 0, 69, 100
2, 138624, Note_on_c, 0, 77, 100
2, 138808, Note_off_c, 0, 77, 100
2, 138816, Note_on_c, 0, 79, 100
2, 139000, Note_off_c, 0, 79, 100
2, 139008, Note_on_c, 0, 77, 100
2, 139192, Note_off_c, 0, 77, 100
2, 139200, Note_on_c, 0, 70, 100
2, 139384, Note_off_c, 0, 70, 100
2, 139392, Note_on_c, 0, 74, 100
2, 139576, Note_off_c, 0, 74, 100
2, 139584, Note_on_c, 0, 77, 100
2, 139768, Note_off_c, 0, 77, 100
2, 139776, Note_on_c, 0, 76, 100
2, 139960, Note_off_c, 0, 76, 100
2, 139968, Note_on_c, 0, 68, 100
2, 140152, Note_off_c, 0, 68, 100
2, 140160, Note_on_c, 0, 76, 100
2, 140344, Note_off_c, 0, 76, 100
2, 140352, Note_on_c, 0, 77, 100
2, 140536, Note_off_c, 0, 77, 100
2, 140544, Note_on_c, 0, 76, 100
2, 140728, Note_off_c, 0, 76, 100
2, 140736, Note_on_c, 0, 69, 100
2, 140920, Note_off_c, 0, 69, 100
2, 140928, Note_on_c, 0, 76, 100
2, 141112, Note_off_c, 0, 76, 100
2, 141120, Note_on_c, 0, 79, 100
2, 141304, Note_off_c, 0, 79, 100
2, 141312, Note_on_c, 0, 77, 95
2, 141496, Note_off_c, 0, 77, 100
2, 141504, Note_on_c, 0, 79, 96
2, 141688, Note_off_c, 0, 79, 100
2, 141696, Note_on_c, 0, 77, 97
2, 141880, Note_off_c, 0, 77, 100
2, 141888, Note_on_c, 0, 76, 98
2, 142072, Note_off_c, 0, 76, 100
2, 142080, Note_on_c, 0, 74, 99
2, 142264, Note_off_c, 0, 74, 100
2, 142272, Note_on_c, 0, 72, 100
2, 142456, Note_off_c, 0, 72, 100
2, 142464, Note_on_c, 0, 71, 101
2, 142648, Note_off_c, 0, 71, 100
2, 142656, Note_on_c, 0, 69, 102
2, 142840, Note_off_c, 0, 69, 100
2, 142848, Note_on_c, 0, 68, 103
2, 143032, Note_off_c, 0, 68, 100
2, 143040, Note_on_c, 0, 64, 104
2, 143224, Note_off_c, 0, 64, 100
2, 143232, Note_on_c, 0, 66, 105
2, 143416, Note_off_c, 0, 66, 100
2, 143424, Note_on_c, 0, 68, 106
2, 143608, Note_off_c, 0, 68, 100
2, 143616, Note_on_c, 0, 69, 107
2, 143800, Note_off_c, 0, 69, 100
2, 143808, Note_on_c, 0, 68, 108
2, 143992, Note_off_c, 0, 68, 100
2, 144000, Note_on_c, 0, 69, 109
2, 144184, Note_off_c, 0, 69, 100
2, 144192, Note_on_c, 0, 71, 110
2, 144376, Note_off_c, 0, 71, 100
2, 144384, Note_on_c, 0, 72, 100
2, 144952, Note_off_c, 0, 72, 100
2, 145152, Note_on_c, 0, 64, 100
2, 145912, Note_off_c, 0, 64, 100
2, 145920, Note_on_c, 0, 65, 100
2, 146104, Note_off_c, 0, 65, 100
2, 146112, Note_on_c, 0, 64, 100
2, 146296, Note_off_c, 0, 64, 100
2, 146304, Note_on_c, 0, 62, 100
2, 146488, Note_off_c, 0, 62, 100
2, 146496, Note_on_c, 0, 61, 100
2, 146680, Note_off_c, 0, 61, 100
2, 146688, Note_on_c, 0, 62, 100
2, 146872, Note_off_c, 0, 62, 100
2, 146880, Note_on_c, 0, 64, 100
2, 147064, Note_off_c, 0, 64, 100
2, 147072, Note_on_c, 0, 66, 100
2, 147256, Note_off_c, 0, 66, 100
2, 147264, Note_on_c, 0, 68, 100
2, 147448, Note_off_c, 0, 68, 100
2, 147456, Note_on_c, 0, 69, 100
2, 147640, Note_off_c, 0, 69, 100
2, 147648, Note_on_c, 0, 64, 100
2, 147832, Note_off_c, 0, 64, 100
2, 147840, Note_on_c, 0, 69, 100
2, 148600, Note_off_c, 0, 69, 100
2, 148608, Note_on_c, 0, 68, 100
2, 148984, Note_off_c, 0, 68, 100
2, 148992, Note_on_c, 0, 69, 100
2, 149368, Note_off_c, 0, 69, 100
2, 149376, Note_on_c, 0, 71, 100
2, 149752, Note_off_c, 0, 71, 100
2, 149760, Note_on_c, 0, 72, 100
2, 150136, Note_off_c, 0, 72, 100
2, 150144, Note_on_c, 0, 71, 100
2, 150328, Note_off_c, 0, 71, 100
2, 150336, Note_on_c, 0, 69, 100
2, 150520, Note_off_c, 0, 69, 100
2, 150528, Note_on_c, 0, 71, 100
2, 150904, Note_off_c, 0, 71, 100
2, 150912, Note_on_c, 0, 73, 100
2, 151288, Note_off_c, 0, 73, 100
2, 151296, Note_on_c, 0, 74, 100
2, 152344, Note_off_c, 0, 74, 100
2, 152448, Note_on_c, 0, 72, 96
2, 152632, Note_off_c, 0, 72, 100
2, 152640, Note_on_c, 0, 71, 96
2, 152824, Note_off_c, 0, 71, 100
2, 152832, Note_on_c, 0, 72, 97
2, 153016, Note_off_c, 0, 72, 100
2, 153216, Note_on_c, 0, 69, 98
2, 153976, Note_off_c, 0, 69, 100
2, 153984, Note_on_c, 0, 68, 100
2, 154168, Note_off_c, 0, 68, 100
2, 154176, Note_on_c, 0, 66, 100
2, 154360, Note_off_c, 0, 66, 100
2, 154368, Note_on_c, 0, 69, 101
2, 154456, Note_off_c, 0, 69, 100
2, 154464, Note_on_c, 0, 68, 101
2, 154552, Note_off_c, 0, 68, 100
2, 154560, Note_on_c, 0, 69, 101
2, 154648, Note_off_c, 0, 69, 100
2, 154656, Note_on_c, 0, 68, 101
2, 154744, Note_off_c, 0, 68, 100
2, 154752, Note_on_c, 0, 69, 102
2, 154840, Note_off_c, 0, 69, 100
2, 154848, Note_on_c, 0, 68, 102
2, 154936, Note_off_c, 0, 68, 100
2, 154944, Note_on_c, 0, 66, 102
2, 155032, Note_off_c, 0, 66, 100
2, 155040, Note_on_c, 0, 68, 102
2, 155128, Note_off_c, 0, 68, 100
2, 155136, Note_on_c, 0, 69, 103
2, 155320, Note_off_c, 0, 69, 100
2, 155520, Note_on_c, 0, 76, 104
2, 155704, Note_off_c, 0, 76, 100
2, 155904, Note_on_c, 0, 81, 105
2, 157256, Note_off_c, 0, 81, 100
2, 157440, Note_on_c, 0, 81, 109
2, 157528, Note_off_c, 0, 81, 100
2, 157536, Note_on_c, 0, 80, 109
2, 157624, Note_off_c, 0, 80, 100
2, 157632, Note_on_c, 0, 81, 109
2, 157720, Note_off_c, 0, 81, 100
2, 157728, Note_on_c, 0, 80, 109
2, 157816, Note_off_c, 0, 80, 100
2, 157824, Note_on_c, 0, 81, 110
2, 157912, Note_off_c, 0, 81, 100
2, 157920, Note_on_c, 0, 80, 110
2, 158008, Note_off_c, 0, 80, 100
2, 158016, Note_on_c, 0, 78, 110
2, 158104, Note_off_c, 0, 78, 100
2, 158112, Note_on_c, 0, 80, 110
2, 158200, Note_off_c, 0, 80, 100
2, 158208, Note_on_c, 0, 81, 115
2, 158392, Note_off_c, 0, 81, 100
2, 158400, Note_on_c, 0, 79, 100
2, 158584, Note_off_c, 0, 79, 100
2, 158592, Note_on_c, 0, 77, 100
2, 159160, Note_off_c, 0, 77, 100
2, 159168, Note_on_c, 0, 76, 100
2, 159352, Note_off_c, 0, 76, 100
2, 159360, Note_on_c, 0, 74, 100
2, 159544, Note_off_c, 0, 74, 100
2, 159552, Note_on_c, 0, 73, 100
2, 159736, Note_off_c, 0, 73, 100
2, 159744, Note_on_c, 0, 74, 100
2, 159928, Note_off_c, 0, 74, 100
2, 159936, Note_on_c, 0, 72, 100
2, 160120, Note_off_c, 0, 72, 100
2, 160128, Note_on_c, 0, 70, 100
2, 160696, Note_off_c, 0, 70, 100
2, 160704, Note_on_c, 0, 69, 100
2, 160888, Note_off_c, 0, 69, 100
2, 160896, Note_on_c, 0, 68, 100
2, 161080, Note_off_c, 0, 68, 100
2, 161088, Note_on_c, 0, 66, 100
2, 161272, Note_off_c, 0, 66, 100
2, 161280, Note_on_c, 0, 68, 100
2, 161656, Note_off_c, 0, 68, 100
2, 161664, Note_on_c, 0, 64, 100
2, 161848, Note_off_c, 0, 64, 100
2, 162048, Note_on_c, 0, 76, 100
2, 162424, Note_off_c, 0, 76, 100
2, 162432, Note_on_c, 0, 77, 100
2, 162808, Note_off_c, 0, 77, 100
2, 162816, Note_on_c, 0, 74, 100
2, 163000, Note_off_c, 0, 74, 100
2, 163008, Note_on_c, 0, 72, 100
2, 163384, Note_off_c, 0, 72, 100
2, 163616, Note_on_c, 0, 72, 97
2, 163712, Note_on_c, 0, 71, 91
2, 163728, Note_off_c, 0, 72, 0
2, 163800, Note_off_c, 0, 71, 0
2, 163800, Note_on_c, 0, 72, 91
2, 163864, Note_on_c, 0, 71, 94
2, 163872, Note_off_c, 0, 72, 0
2, 163952, Note_off_c, 0, 71, 0
2, 163952, Note_on_c, 0, 72, 89
2, 164016, Note_off_c, 0, 72, 0
2, 164016, Note_on_c, 0, 71, 96
2, 164088, Note_off_c, 0, 71, 0
2, 164088, Note_on_c, 0, 69, 91
2, 164144, Note_off_c, 0, 69, 0
2, 164160, Note_on_c, 0, 71, 103
2, 164352, Note_on_c, 0, 69, 100
2, 164440, Note_off_c, 0, 71, 0
2, 165880, Note_off_c, 0, 69, 100
2, 165880, Control_c, 0, 121, 0
2, 165880, End_track
3, 0, Start_track
3, 0, Title_t, "LH"
3, 0, Control_c, 1, 0, 0
3, 0, Program_c, 1, 0
3, 0, Control_c, 1, 7, 100
3, 0, Control_c, 1, 10, 84
3, 768, Note_on_c, 1, 57, 100
3, 1528, Note_off_c, 1, 57, 100
3, 1536, Note_on_c, 1, 60, 100
3, 2296, Note_off_c, 1, 60, 100
3, 2304, Note_on_c, 1, 52, 100
3, 3064, Note_off_c, 1, 52, 100
3, 3072, Note_on_c, 1, 53, 100
3, 3256, Note_off_c, 1, 53, 100
3, 3264, Note_on_c, 1, 52, 100
3, 3448, Note_off_c, 1, 52, 100
3, 3456, Note_on_c, 1, 50, 113
3, 4216, Note_off_c, 1, 50, 100
3, 4224, Note_on_c, 1, 52, 100
3, 4408, Note_off_c, 1, 52, 100
3, 4416, Note_on_c, 1, 54, 100
3, 4600, Note_off_c, 1, 54, 100
3, 4608, Note_on_c, 1, 55, 100
3, 4792, Note_off_c, 1, 55, 100
3, 4800, Note_on_c, 1, 57, 100
3, 4984, Note_off_c, 1, 57, 100
3, 4992, Note_on_c, 1, 58, 111
3, 5672, Note_off_c, 1, 58, 100
3, 5760, Note_on_c, 1, 57, 90
3, 5944, Note_off_c, 1, 57, 100
3, 5952, Note_on_c, 1, 56, 90
3, 6136, Note_off_c, 1, 56, 100
3, 6144, Note_on_c, 1, 57, 86
3, 6328, Note_off_c, 1, 57, 100
3, 6336, Note_on_c, 1, 52, 86
3, 6520, Note_off_c, 1, 52, 100
3, 6528, Note_on_c, 1, 57, 87
3, 6712, Note_off_c, 1, 57, 100
3, 6720, Note_on_c, 1, 59, 87
3, 6904, Note_off_c, 1, 59, 100
3, 6912, Note_on_c, 1, 57, 88
3, 7096, Note_off_c, 1, 57, 100
3, 7104, Note_on_c, 1, 52, 89
3, 7288, Note_off_c, 1, 52, 100
3, 7296, Note_on_c, 1, 57, 89
3, 7480, Note_off_c, 1, 57, 100
3, 7488, Note_on_c, 1, 60, 90
3, 7672, Note_off_c, 1, 60, 100
3, 7680, Note_on_c, 1, 59, 90
3, 7864, Note_off_c, 1, 59, 100
3, 7872, Note_on_c, 1, 52, 91
3, 8056, Note_off_c, 1, 52, 100
3, 8064, Note_on_c, 1, 59, 92
3, 8248, Note_off_c, 1, 59, 100
3, 8256, Note_on_c, 1, 60, 92
3, 8440, Note_off_c, 1, 60, 100
3, 8448, Note_on_c, 1, 59, 93
3, 8632, Note_off_c, 1, 59, 100
3, 8640, Note_on_c, 1, 52, 93
3, 8824, Note_off_c, 1, 52, 100
3, 8832, Note_on_c, 1, 59, 94
3, 9016, Note_off_c, 1, 59, 100
3, 9024, Note_on_c, 1, 62, 95
3, 9208, Note_off_c, 1, 62, 100
3, 9216, Note_on_c, 1, 60, 95
3, 9400, Note_off_c, 1, 60, 100
3, 9408, Note_on_c, 1, 52, 96
3, 9592, Note_off_c, 1, 52, 100
3, 9600, Note_on_c, 1, 60, 96
3, 9784, Note_off_c, 1, 60, 100
3, 9792, Note_on_c, 1, 62, 97
3, 9976, Note_off_c, 1, 62, 100
3, 9984, Note_on_c, 1, 60, 97
3, 10168, Note_off_c, 1, 60, 100
3, 10176, Note_on_c, 1, 52, 98
3, 10360, Note_off_c, 1, 52, 100
3, 10368, Note_on_c, 1, 60, 99
3, 10552, Note_off_c, 1, 60, 100
3, 10560, Note_on_c, 1, 64, 99
3, 10744, Note_off_c, 1, 64, 100
3, 10752, Note_on_c, 1, 59, 100
3, 10936, Note_off_c, 1, 59, 100
3, 10944, Note_on_c, 1, 52, 100
3, 11128, Note_off_c, 1, 52, 100
3, 11136, Note_on_c, 1, 59, 101
3, 11320, Note_off_c, 1, 59, 100
3, 11328, Note_on_c, 1, 60, 102
3, 11512, Note_off_c, 1, 60, 100
3, 11520, Note_on_c, 1, 59, 102
3, 11704, Note_off_c, 1, 59, 100
3, 11712, Note_on_c, 1, 52, 103
3, 11896, Note_off_c, 1, 52, 100
3, 11904, Note_on_c, 1, 59, 103
3, 12088, Note_off_c, 1, 59, 100
3, 12096, Note_on_c, 1, 62, 104
3, 12280, Note_off_c, 1, 62, 100
3, 12288, Note_on_c, 1, 60, 100
3, 12472, Note_off_c, 1, 60, 100
3, 12480, Note_on_c, 1, 59, 100
3, 12664, Note_off_c, 1, 59, 100
3, 12672, Note_on_c, 1, 57, 100
3, 13240, Note_off_c, 1, 57, 100
3, 13440, Note_on_c, 1, 56, 100
3, 13816, Note_off_c, 1, 56, 100
3, 13824, Note_on_c, 1, 57, 100
3, 14008, Note_off_c, 1, 57, 100
3, 14016, Note_on_c, 1, 60, 100
3, 14200, Note_off_c, 1, 60, 100
3, 14208, Note_on_c, 1, 59, 100
3, 14392, Note_off_c, 1, 59, 100
3, 14400, Note_on_c, 1, 62, 100
3, 14584, Note_off_c, 1, 62, 100
3, 14592, Note_on_c, 1, 60, 100
3, 14776, Note_off_c, 1, 60, 100
3, 14784, Note_on_c, 1, 59, 100
3, 14968, Note_off_c, 1, 59, 100
3, 14976, Note_on_c, 1, 60, 100
3, 15160, Note_off_c, 1, 60, 100
3, 15168, Note_on_c, 1, 57, 100
3, 15352, Note_off_c, 1, 57, 100
3, 15360, Note_on_c, 1, 52, 100
3, 15736, Note_off_c, 1, 52, 100
3, 15744, Note_on_c, 1, 54, 100
3, 16120, Note_off_c, 1, 54, 100
3, 16128, Note_on_c, 1, 55, 100
3, 16504, Note_off_c, 1, 55, 100
3, 16512, Note_on_c, 1, 54, 100
3, 16696, Note_off_c, 1, 54, 100
3, 16704, Note_on_c, 1, 52, 100
3, 16888, Note_off_c, 1, 52, 100
3, 16896, Note_on_c, 1, 54, 100
3, 17272, Note_off_c, 1, 54, 100
3, 17280, Note_on_c, 1, 56, 100
3, 17656, Note_off_c, 1, 56, 100
3, 17664, Note_on_c, 1, 57, 100
3, 18808, Note_off_c, 1, 57, 100
3, 18816, Note_on_c, 1, 55, 100
3, 19000, Note_off_c, 1, 55, 100
3, 19008, Note_on_c, 1, 54, 100
3, 19192, Note_off_c, 1, 54, 100
3, 19200, Note_on_c, 1, 55, 100
3, 19576, Note_off_c, 1, 55, 100
3, 19584, Note_on_c, 1, 52, 100
3, 20344, Note_off_c, 1, 52, 100
3, 20352, Note_on_c, 1, 51, 100
3, 20536, Note_off_c, 1, 51, 100
3, 20544, Note_on_c, 1, 49, 100
3, 20728, Note_off_c, 1, 49, 100
3, 20736, Note_on_c, 1, 52, 100
3, 20824, Note_off_c, 1, 52, 100
3, 20832, Note_on_c, 1, 51, 100
3, 20920, Note_off_c, 1, 51, 100
3, 20928, Note_on_c, 1, 52, 100
3, 21016, Note_off_c, 1, 52, 100
3, 21024, Note_on_c, 1, 51, 100
3, 21112, Note_off_c, 1, 51, 100
3, 21120, Note_on_c, 1, 52, 100
3, 21208, Note_off_c, 1, 52, 100
3, 21216, Note_on_c, 1, 51, 100
3, 21304, Note_off_c, 1, 51, 100
3, 21312, Note_on_c, 1, 49, 100
3, 21400, Note_off_c, 1, 49, 100
3, 21408, Note_on_c, 1, 51, 100
3, 21496, Note_off_c, 1, 51, 100
3, 21504, Note_on_c, 1, 52, 100
3, 21688, Note_off_c, 1, 52, 100
3, 21888, Note_on_c, 1, 59, 100
3, 22264, Note_off_c, 1, 59, 100
3, 22272, Note_on_c, 1, 64, 100
3, 23768, Note_off_c, 1, 64, 100
3, 23808, Note_on_c, 1, 64, 100
3, 23896, Note_off_c, 1, 64, 100
3, 23904, Note_on_c, 1, 63, 100
3, 23992, Note_off_c, 1, 63, 100
3, 24000, Note_on_c, 1, 64, 100
3, 24088, Note_off_c, 1, 64, 100
3, 24096, Note_on_c, 1, 63, 100
3, 24184, Note_off_c, 1, 63, 100
3, 24192, Note_on_c, 1, 64, 100
3, 24280, Note_off_c, 1, 64, 100
3, 24288, Note_on_c, 1, 63, 100
3, 24376, Note_off_c, 1, 63, 100
3, 24384, Note_on_c, 1, 61, 100
3, 24472, Note_off_c, 1, 61, 100
3, 24480, Note_on_c, 1, 63, 100
3, 24568, Note_off_c, 1, 63, 100
3, 24576, Note_on_c, 1, 64, 100
3, 24952, Note_off_c, 1, 64, 100
3, 24960, Note_on_c, 1, 52, 96
3, 25144, Note_off_c, 1, 52, 100
3, 25152, Note_on_c, 1, 54, 93
3, 25336, Note_off_c, 1, 54, 100
3, 25344, Note_on_c, 1, 55, 90
3, 25528, Note_off_c, 1, 55, 100
3, 25536, Note_on_c, 1, 57, 88
3, 25720, Note_off_c, 1, 57, 100
3, 25728, Note_on_c, 1, 58, 87
3, 25912, Note_off_c, 1, 58, 100
3, 25920, Note_on_c, 1, 55, 85
3, 26104, Note_off_c, 1, 55, 100
3, 26112, Note_on_c, 1, 52, 83
3, 26296, Note_off_c, 1, 52, 100
3, 26304, Note_on_c, 1, 53, 83
3, 26488, Note_off_c, 1, 53, 100
3, 26496, Note_on_c, 1, 55, 83
3, 27064, Note_off_c, 1, 55, 100
3, 27072, Note_on_c, 1, 53, 83
3, 27256, Note_off_c, 1, 53, 100
3, 27264, Note_on_c, 1, 52, 83
3, 27448, Note_off_c, 1, 52, 100
3, 27456, Note_on_c, 1, 50, 83
3, 27640, Note_off_c, 1, 50, 100
3, 27648, Note_on_c, 1, 49, 83
3, 27832, Note_off_c, 1, 49, 100
3, 27840, Note_on_c, 1, 50, 83
3, 28024, Note_off_c, 1, 50, 100
3, 28032, Note_on_c, 1, 52, 83
3, 28600, Note_off_c, 1, 52, 100
3, 28608, Note_on_c, 1, 50, 83
3, 28792, Note_off_c, 1, 50, 100
3, 28800, Note_on_c, 1, 49, 83
3, 28984, Note_off_c, 1, 49, 100
3, 28992, Note_on_c, 1, 47, 83
3, 29176, Note_off_c, 1, 47, 100
3, 29184, Note_on_c, 1, 49, 83
3, 29368, Note_off_c, 1, 49, 100
3, 29376, Note_on_c, 1, 45, 83
3, 29560, Note_off_c, 1, 45, 100
3, 29568, Note_on_c, 1, 49, 83
3, 29752, Note_off_c, 1, 49, 100
3, 29760, Note_on_c, 1, 50, 83
3, 29944, Note_off_c, 1, 50, 100
3, 29952, Note_on_c, 1, 52, 83
3, 30136, Note_off_c, 1, 52, 100
3, 30144, Note_on_c, 1, 53, 83
3, 30328, Note_off_c, 1, 53, 100
3, 30336, Note_on_c, 1, 55, 83
3, 30520, Note_off_c, 1, 55, 100
3, 30528, Note_on_c, 1, 52, 83
3, 30712, Note_off_c, 1, 52, 100
3, 30720, Note_on_c, 1, 53, 83
3, 30904, Note_off_c, 1, 53, 100
3, 30912, Note_on_c, 1, 52, 83
3, 31096, Note_off_c, 1, 52, 100
3, 31104, Note_on_c, 1, 50, 83
3, 31288, Note_off_c, 1, 50, 100
3, 31296, Note_on_c, 1, 52, 83
3, 31480, Note_off_c, 1, 52, 100
3, 31488, Note_on_c, 1, 53, 83
3, 31672, Note_off_c, 1, 53, 100
3, 31680, Note_on_c, 1, 55, 83
3, 31864, Note_off_c, 1, 55, 100
3, 31872, Note_on_c, 1, 56, 83
3, 32056, Note_off_c, 1, 56, 100
3, 32064, Note_on_c, 1, 53, 83
3, 32248, Note_off_c, 1, 53, 100
3, 32256, Note_on_c, 1, 50, 83
3, 32440, Note_off_c, 1, 50, 100
3, 32448, Note_on_c, 1, 52, 83
3, 32632, Note_off_c, 1, 52, 100
3, 32640, Note_on_c, 1, 53, 83
3, 33208, Note_off_c, 1, 53, 100
3, 33216, Note_on_c, 1, 52, 83
3, 33400, Note_off_c, 1, 52, 100
3, 33408, Note_on_c, 1, 50, 83
3, 33592, Note_off_c, 1, 50, 100
3, 33600, Note_on_c, 1, 48, 83
3, 33784, Note_off_c, 1, 48, 100
3, 33792, Note_on_c, 1, 47, 83
3, 33976, Note_off_c, 1, 47, 100
3, 33984, Note_on_c, 1, 48, 83
3, 34168, Note_off_c, 1, 48, 100
3, 34176, Note_on_c, 1, 50, 83
3, 34744, Note_off_c, 1, 50, 100
3, 34752, Note_on_c, 1, 48, 83
3, 34936, Note_off_c, 1, 48, 100
3, 34944, Note_on_c, 1, 47, 83
3, 35128, Note_off_c, 1, 47, 100
3, 35136, Note_on_c, 1, 45, 83
3, 35320, Note_off_c, 1, 45, 100
3, 35328, Note_on_c, 1, 47, 83
3, 35512, Note_off_c, 1, 47, 100
3, 35520, Note_on_c, 1, 43, 83
3, 35704, Note_off_c, 1, 43, 100
3, 35712, Note_on_c, 1, 47, 83
3, 35896, Note_off_c, 1, 47, 100
3, 35904, Note_on_c, 1, 48, 83
3, 36088, Note_off_c, 1, 48, 100
3, 36096, Note_on_c, 1, 50, 83
3, 36280, Note_off_c, 1, 50, 100
3, 36288, Note_on_c, 1, 52, 83
3, 36472, Note_off_c, 1, 52, 100
3, 36480, Note_on_c, 1, 53, 83
3, 36664, Note_off_c, 1, 53, 100
3, 36672, Note_on_c, 1, 50, 83
3, 36856, Note_off_c, 1, 50, 100
3, 36864, Note_on_c, 1, 52, 83
3, 37048, Note_off_c, 1, 52, 100
3, 37056, Note_on_c, 1, 50, 83
3, 37240, Note_off_c, 1, 50, 100
3, 37248, Note_on_c, 1, 48, 83
3, 37432, Note_off_c, 1, 48, 100
3, 37440, Note_on_c, 1, 50, 83
3, 37624, Note_off_c, 1, 50, 100
3, 37632, Note_on_c, 1, 52, 83
3, 37816, Note_off_c, 1, 52, 100
3, 37824, Note_on_c, 1, 53, 83
3, 38008, Note_off_c, 1, 53, 100
3, 38016, Note_on_c, 1, 55, 83
3, 38200, Note_off_c, 1, 55, 100
3, 38208, Note_on_c, 1, 52, 83
3, 38392, Note_off_c, 1, 52, 100
3, 38400, Note_on_c, 1, 53, 100
3, 38680, Note_off_c, 1, 53, 100
3, 38784, Note_on_c, 1, 57, 100
3, 39064, Note_off_c, 1, 57, 100
3, 39168, Note_on_c, 1, 50, 100
3, 39448, Note_off_c, 1, 50, 100
3, 39552, Note_on_c, 1, 53, 100
3, 39832, Note_off_c, 1, 53, 100
3, 39936, Note_on_c, 1, 47, 100
3, 40312, Note_off_c, 1, 47, 100
3, 40320, Note_on_c, 1, 48, 100
3, 40504, Note_off_c, 1, 48, 100
3, 40512, Note_on_c, 1, 50, 100
3, 40696, Note_off_c, 1, 50, 100
3, 40704, Note_on_c, 1, 52, 100
3, 40888, Note_off_c, 1, 52, 100
3, 41088, Note_on_c, 1, 48, 100
3, 41464, Note_off_c, 1, 48, 100
3, 41472, Note_on_c, 1, 50, 100
3, 41752, Note_off_c, 1, 50, 100
3, 41856, Note_on_c, 1, 53, 100
3, 42136, Note_off_c, 1, 53, 100
3, 42240, Note_on_c, 1, 47, 100
3, 42520, Note_off_c, 1, 47, 100
3, 42624, Note_on_c, 1, 50, 100
3, 42904, Note_off_c, 1, 50, 100
3, 43008, Note_on_c, 1, 43, 100
3, 43384, Note_off_c, 1, 43, 100
3, 43392, Note_on_c, 1, 45, 100
3, 43576, Note_off_c, 1, 45, 100
3, 43584, Note_on_c, 1, 47, 100
3, 43768, Note_off_c, 1, 47, 100
3, 43776, Note_on_c, 1, 48, 100
3, 43960, Note_off_c, 1, 48, 100
3, 44160, Note_on_c, 1, 45, 100
3, 44536, Note_off_c, 1, 45, 100
3, 44544, Note_on_c, 1, 47, 100
3, 44824, Note_off_c, 1, 47, 100
3, 44928, Note_on_c, 1, 50, 98
3, 45208, Note_off_c, 1, 50, 100
3, 45312, Note_on_c, 1, 44, 95
3, 45592, Note_off_c, 1, 44, 100
3, 45696, Note_on_c, 1, 47, 93
3, 45976, Note_off_c, 1, 47, 100
3, 46080, Note_on_c, 1, 40, 90
3, 46456, Note_off_c, 1, 40, 100
3, 46464, Note_on_c, 1, 42, 88
3, 46648, Note_off_c, 1, 42, 100
3, 46656, Note_on_c, 1, 44, 87
3, 46840, Note_off_c, 1, 44, 100
3, 46848, Note_on_c, 1, 45, 85
3, 47032, Note_off_c, 1, 45, 100
3, 47232, Note_on_c, 1, 47, 83
3, 47416, Note_off_c, 1, 47, 100
3, 47616, Note_on_c, 1, 48, 83
3, 48376, Note_off_c, 1, 48, 100
3, 48384, Note_on_c, 1, 40, 83
3, 49144, Note_off_c, 1, 40, 100
3, 49152, Note_on_c, 1, 41, 83
3, 49336, Note_off_c, 1, 41, 100
3, 49344, Note_on_c, 1, 40, 83
3, 49528, Note_off_c, 1, 40, 100
3, 49536, Note_on_c, 1, 38, 83
3, 50104, Note_off_c, 1, 38, 100
3, 50112, Note_on_c, 1, 40, 83
3, 50296, Note_off_c, 1, 40, 100
3, 50304, Note_on_c, 1, 42, 83
3, 50488, Note_off_c, 1, 42, 100
3, 50496, Note_on_c, 1, 44, 83
3, 50680, Note_off_c, 1, 44, 100
3, 50688, Note_on_c, 1, 45, 83
3, 50872, Note_off_c, 1, 45, 100
3, 50880, Note_on_c, 1, 40, 83
3, 51064, Note_off_c, 1, 40, 100
3, 51072, Note_on_c, 1, 45, 83
3, 51832, Note_off_c, 1, 45, 100
3, 51840, Note_on_c, 1, 44, 83
3, 52216, Note_off_c, 1, 44, 100
3, 52224, Note_on_c, 1, 45, 83
3, 52600, Note_off_c, 1, 45, 100
3, 52608, Note_on_c, 1, 47, 83
3, 52984, Note_off_c, 1, 47, 100
3, 52992, Note_on_c, 1, 48, 83
3, 53368, Note_off_c, 1, 48, 100
3, 53376, Note_on_c, 1, 47, 83
3, 53560, Note_off_c, 1, 47, 100
3, 53568, Note_on_c, 1, 45, 83
3, 53752, Note_off_c, 1, 45, 100
3, 53760, Note_on_c, 1, 47, 83
3, 54136, Note_off_c, 1, 47, 100
3, 54144, Note_on_c, 1, 49, 83
3, 54520, Note_off_c, 1, 49, 100
3, 54528, Note_on_c, 1, 50, 83
3, 55672, Note_off_c, 1, 50, 100
3, 55680, Note_on_c, 1, 48, 100
3, 55864, Note_off_c, 1, 48, 100
3, 55872, Note_on_c, 1, 47, 100
3, 56056, Note_off_c, 1, 47, 100
3, 56064, Note_on_c, 1, 48, 100
3, 56248, Note_off_c, 1, 48, 100
3, 56448, Note_on_c, 1, 45, 100
3, 57208, Note_off_c, 1, 45, 100
3, 57216, Note_on_c, 1, 44, 100
3, 57400, Note_off_c, 1, 44, 100
3, 57408, Note_on_c, 1, 42, 100
3, 57592, Note_off_c, 1, 42, 100
3, 57600, Note_on_c, 1, 45, 100
3, 57688, Note_off_c, 1, 45, 100
3, 57696, Note_on_c, 1, 44, 100
3, 57784, Note_off_c, 1, 44, 100
3, 57792, Note_on_c, 1, 45, 100
3, 57880, Note_off_c, 1, 45, 100
3, 57888, Note_on_c, 1, 44, 100
3, 57976, Note_off_c, 1, 44, 100
3, 57984, Note_on_c, 1, 45, 100
3, 58072, Note_off_c, 1, 45, 100
3, 58080, Note_on_c, 1, 44, 100
3, 58168, Note_off_c, 1, 44, 100
3, 58176, Note_on_c, 1, 42, 100
3, 58264, Note_off_c, 1, 42, 100
3, 58272, Note_on_c, 1, 44, 100
3, 58360, Note_off_c, 1, 44, 100
3, 58368, Note_on_c, 1, 45, 100
3, 58552, Note_off_c, 1, 45, 100
3, 58752, Note_on_c, 1, 52, 100
3, 59128, Note_off_c, 1, 52, 100
3, 59136, Note_on_c, 1, 57, 100
3, 60280, Note_off_c, 1, 57, 100
3, 60672, Note_on_c, 1, 57, 100
3, 60760, Note_off_c, 1, 57, 100
3, 60768, Note_on_c, 1, 56, 100
3, 60856, Note_off_c, 1, 56, 100
3, 60864, Note_on_c, 1, 57, 100
3, 60952, Note_off_c, 1, 57, 100
3, 60960, Note_on_c, 1, 56, 100
3, 61048, Note_off_c, 1, 56, 100
3, 61056, Note_on_c, 1, 57, 100
3, 61144, Note_off_c, 1, 57, 100
3, 61152, Note_on_c, 1, 56, 100
3, 61240, Note_off_c, 1, 56, 100
3, 61248, Note_on_c, 1, 54, 100
3, 61336, Note_off_c, 1, 54, 100
3, 61344, Note_on_c, 1, 56, 100
3, 61432, Note_off_c, 1, 56, 100
3, 61440, Note_on_c, 1, 57, 100
3, 61816, Note_off_c, 1, 57, 100
3, 62208, Note_on_c, 1, 52, 100
3, 62968, Note_off_c, 1, 52, 100
3, 62976, Note_on_c, 1, 53, 100
3, 63736, Note_off_c, 1, 53, 100
3, 63744, Note_on_c, 1, 45, 100
3, 64504, Note_off_c, 1, 45, 100
3, 64512, Note_on_c, 1, 48, 100
3, 64696, Note_off_c, 1, 48, 100
3, 64704, Note_on_c, 1, 47, 100
3, 64888, Note_off_c, 1, 47, 100
3, 64896, Note_on_c, 1, 45, 100
3, 65656, Note_off_c, 1, 45, 100
3, 65664, Note_on_c, 1, 47, 100
3, 65848, Note_off_c, 1, 47, 100
3, 65856, Note_on_c, 1, 48, 100
3, 66040, Note_off_c, 1, 48, 100
3, 66048, Note_on_c, 1, 50, 100
3, 66232, Note_off_c, 1, 50, 100
3, 66240, Note_on_c, 1, 52, 100
3, 66424, Note_off_c, 1, 52, 100
3, 66432, Note_on_c, 1, 53, 100
3, 67192, Note_off_c, 1, 53, 100
3, 67200, Note_on_c, 1, 52, 100
3, 67384, Note_off_c, 1, 52, 100
3, 67392, Note_on_c, 1, 51, 100
3, 67576, Note_off_c, 1, 51, 100
3, 67584, Note_on_c, 1, 52, 85
3, 67768, Note_off_c, 1, 52, 100
3, 67776, Note_on_c, 1, 47, 85
3, 67960, Note_off_c, 1, 47, 100
3, 67968, Note_on_c, 1, 52, 86
3, 68152, Note_off_c, 1, 52, 100
3, 68160, Note_on_c, 1, 54, 87
3, 68344, Note_off_c, 1, 54, 100
3, 68352, Note_on_c, 1, 52, 87
3, 68536, Note_off_c, 1, 52, 100
3, 68544, Note_on_c, 1, 47, 88
3, 68728, Note_off_c, 1, 47, 100
3, 68736, Note_on_c, 1, 52, 89
3, 68920, Note_off_c, 1, 52, 100
3, 68928, Note_on_c, 1, 55, 89
3, 69112, Note_off_c, 1, 55, 100
3, 69120, Note_on_c, 1, 54, 90
3, 69304, Note_off_c, 1, 54, 100
3, 69312, Note_on_c, 1, 47, 91
3, 69496, Note_off_c, 1, 47, 100
3, 69504, Note_on_c, 1, 54, 91
3, 69688, Note_off_c, 1, 54, 100
3, 69696, Note_on_c, 1, 55, 92
3, 69880, Note_off_c, 1, 55, 100
3, 69888, Note_on_c, 1, 54, 93
3, 70072, Note_off_c, 1, 54, 100
3, 70080, Note_on_c, 1, 47, 93
3, 70264, Note_off_c, 1, 47, 100
3, 70272, Note_on_c, 1, 54, 94
3, 70456, Note_off_c, 1, 54, 100
3, 70464, Note_on_c, 1, 57, 95
3, 70648, Note_off_c, 1, 57, 100
3, 70656, Note_on_c, 1, 55, 96
3, 70840, Note_off_c, 1, 55, 100
3, 70848, Note_on_c, 1, 47, 96
3, 71032, Note_off_c, 1, 47, 100
3, 71040, Note_on_c, 1, 55, 97
3, 71224, Note_off_c, 1, 55, 100
3, 71232, Note_on_c, 1, 57, 98
3, 71416, Note_off_c, 1, 57, 100
3, 71424, Note_on_c, 1, 55, 98
3, 71608, Note_off_c, 1, 55, 100
3, 71616, Note_on_c, 1, 47, 99
3, 71800, Note_off_c, 1, 47, 100
3, 71808, Note_on_c, 1, 55, 100
3, 71992, Note_off_c, 1, 55, 100
3, 72000, Note_on_c, 1, 59, 100
3, 72184, Note_off_c, 1, 59, 100
3, 72192, Note_on_c, 1, 54, 101
3, 72376, Note_off_c, 1, 54, 100
3, 72384, Note_on_c, 1, 47, 102
3, 72568, Note_off_c, 1, 47, 100
3, 72576, Note_on_c, 1, 54, 102
3, 72760, Note_off_c, 1, 54, 100
3, 72768, Note_on_c, 1, 55, 103
3, 72952, Note_off_c, 1, 55, 100
3, 72960, Note_on_c, 1, 54, 104
3, 73144, Note_off_c, 1, 54, 100
3, 73152, Note_on_c, 1, 47, 104
3, 73336, Note_off_c, 1, 47, 100
3, 73344, Note_on_c, 1, 54, 105
3, 73528, Note_off_c, 1, 54, 100
3, 73536, Note_on_c, 1, 57, 106
3, 73720, Note_off_c, 1, 57, 100
3, 73728, Note_on_c, 1, 55, 100
3, 73912, Note_off_c, 1, 55, 100
3, 73920, Note_on_c, 1, 54, 100
3, 74104, Note_off_c, 1, 54, 100
3, 74112, Note_on_c, 1, 52, 100
3, 74680, Note_off_c, 1, 52, 100
3, 74880, Note_on_c, 1, 54, 100
3, 75064, Note_off_c, 1, 54, 100
3, 75264, Note_on_c, 1, 56, 100
3, 75448, Note_off_c, 1, 56, 100
3, 75648, Note_on_c, 1, 65, 100
3, 76024, Note_off_c, 1, 65, 100
3, 76032, Note_on_c, 1, 64, 100
3, 76120, Note_off_c, 1, 64, 100
3, 76128, Note_on_c, 1, 65, 100
3, 76216, Note_off_c, 1, 65, 100
3, 76224, Note_on_c, 1, 64, 100
3, 76408, Note_off_c, 1, 64, 100
3, 76416, Note_on_c, 1, 62, 100
3, 76600, Note_off_c, 1, 62, 100
3, 76800, Note_on_c, 1, 53, 100
3, 76984, Note_off_c, 1, 53, 100
3, 77184, Note_on_c, 1, 62, 100
3, 77560, Note_off_c, 1, 62, 100
3, 77568, Note_on_c, 1, 60, 100
3, 77656, Note_off_c, 1, 60, 100
3, 77664, Note_on_c, 1, 62, 100
3, 77752, Note_off_c, 1, 62, 100
3, 77760, Note_on_c, 1, 60, 100
3, 77944, Note_off_c, 1, 60, 100
3, 77952, Note_on_c, 1, 59, 100
3, 78136, Note_off_c, 1, 59, 100
3, 78336, Note_on_c, 1, 50, 100
3, 78520, Note_off_c, 1, 50, 100
3, 78720, Note_on_c, 1, 59, 100
3, 79096, Note_off_c, 1, 59, 100
3, 79104, Note_on_c, 1, 57, 100
3, 79192, Note_off_c, 1, 57, 100
3, 79200, Note_on_c, 1, 59, 100
3, 79288, Note_off_c, 1, 59, 100
3, 79296, Note_on_c, 1, 57, 100
3, 79480, Note_off_c, 1, 57, 100
3, 79488, Note_on_c, 1, 56, 100
3, 79672, Note_off_c, 1, 56, 100
3, 79872, Note_on_c, 1, 57, 100
3, 80056, Note_off_c, 1, 57, 100
3, 80064, Note_on_c, 1, 50, 100
3, 80248, Note_off_c, 1, 50, 100
3, 80256, Note_on_c, 1, 48, 100
3, 80440, Note_off_c, 1, 48, 100
3, 80448, Note_on_c, 1, 47, 100
3, 80632, Note_off_c, 1, 47, 100
3, 80640, Note_on_c, 1, 45, 100
3, 80824, Note_off_c, 1, 45, 100
3, 81024, Note_on_c, 1, 55, 100
3, 81208, Note_off_c, 1, 55, 100
3, 81408, Note_on_c, 1, 54, 100
3, 81592, Note_off_c, 1, 54, 100
3, 81792, Note_on_c, 1, 63, 100
3, 82168, Note_off_c, 1, 63, 100
3, 82176, Note_on_c, 1, 62, 100
3, 82264, Note_off_c, 1, 62, 100
3, 82272, Note_on_c, 1, 63, 100
3, 82360, Note_off_c, 1, 63, 100
3, 82368, Note_on_c, 1, 62, 100
3, 82552, Note_off_c, 1, 62, 100
3, 82560, Note_on_c, 1, 60, 100
3, 82744, Note_off_c, 1, 60, 100
3, 82944, Note_on_c, 1, 51, 100
3, 83128, Note_off_c, 1, 51, 100
3, 83328, Note_on_c, 1, 60, 100
3, 83704, Note_off_c, 1, 60, 100
3, 83712, Note_on_c, 1, 59, 100
3, 83800, Note_off_c, 1, 59, 100
3, 83808, Note_on_c, 1, 60, 100
3, 83896, Note_off_c, 1, 60, 100
3, 83904, Note_on_c, 1, 59, 100
3, 84088, Note_off_c, 1, 59, 100
3, 84096, Note_on_c, 1, 57, 100
3, 84280, Note_off_c, 1, 57, 100
3, 84480, Note_on_c, 1, 48, 100
3, 84664, Note_off_c, 1, 48, 100
3, 84864, Note_on_c, 1, 57, 100
3, 85240, Note_off_c, 1, 57, 100
3, 85248, Note_on_c, 1, 55, 100
3, 85336, Note_off_c, 1, 55, 100
3, 85344, Note_on_c, 1, 57, 100
3, 85432, Note_off_c, 1, 57, 100
3, 85440, Note_on_c, 1, 55, 100
3, 85624, Note_off_c, 1, 55, 100
3, 85632, Note_on_c, 1, 54, 100
3, 85816, Note_off_c, 1, 54, 100
3, 86016, Note_on_c, 1, 55, 100
3, 86200, Note_off_c, 1, 55, 100
3, 86208, Note_on_c, 1, 48, 100
3, 86392, Note_off_c, 1, 48, 100
3, 86400, Note_on_c, 1, 47, 100
3, 86584, Note_off_c, 1, 47, 100
3, 86592, Note_on_c, 1, 45, 100
3, 86776, Note_off_c, 1, 45, 100
3, 86784, Note_on_c, 1, 43, 100
3, 86968, Note_off_c, 1, 43, 100
3, 87168, Note_on_c, 1, 53, 100
3, 87448, Note_off_c, 1, 53, 100
3, 87552, Note_on_c, 1, 52, 100
3, 87736, Note_off_c, 1, 52, 100
3, 87744, Note_on_c, 1, 62, 100
3, 87928, Note_off_c, 1, 62, 100
3, 87936, Note_on_c, 1, 60, 100
3, 88120, Note_off_c, 1, 60, 100
3, 88128, Note_on_c, 1, 59, 99
3, 88312, Note_off_c, 1, 59, 100
3, 88320, Note_on_c, 1, 60, 99
3, 88504, Note_off_c, 1, 60, 100
3, 88512, Note_on_c, 1, 57, 98
3, 88696, Note_off_c, 1, 57, 100
3, 88704, Note_on_c, 1, 52, 98
3, 89272, Note_off_c, 1, 52, 100
3, 89280, Note_on_c, 1, 50, 97
3, 89464, Note_off_c, 1, 50, 100
3, 89472, Note_on_c, 1, 52, 96
3, 89656, Note_off_c, 1, 52, 100
3, 89664, Note_on_c, 1, 54, 96
3, 89848, Note_off_c, 1, 54, 100
3, 89856, Note_on_c, 1, 50, 95
3, 90040, Note_off_c, 1, 50, 100
3, 90048, Note_on_c, 1, 55, 95
3, 90232, Note_off_c, 1, 55, 100
3, 90240, Note_on_c, 1, 59, 95
3, 90616, Note_off_c, 1, 59, 100
3, 90624, Note_on_c, 1, 48, 94
3, 90808, Note_off_c, 1, 48, 100
3, 90816, Note_on_c, 1, 59, 93
3, 91000, Note_off_c, 1, 59, 100
3, 91008, Note_on_c, 1, 57, 93
3, 91192, Note_off_c, 1, 57, 100
3, 91200, Note_on_c, 1, 55, 93
3, 91384, Note_off_c, 1, 55, 100
3, 91392, Note_on_c, 1, 57, 92
3, 91576, Note_off_c, 1, 57, 100
3, 91584, Note_on_c, 1, 54, 92
3, 91768, Note_off_c, 1, 54, 100
3, 91776, Note_on_c, 1, 48, 91
3, 92344, Note_off_c, 1, 48, 100
3, 92352, Note_on_c, 1, 47, 90
3, 92536, Note_off_c, 1, 47, 100
3, 92544, Note_on_c, 1, 48, 90
3, 92728, Note_off_c, 1, 48, 100
3, 92736, Note_on_c, 1, 50, 89
3, 92920, Note_off_c, 1, 50, 100
3, 92928, Note_on_c, 1, 47, 89
3, 93112, Note_off_c, 1, 47, 100
3, 93120, Note_on_c, 1, 50, 88
3, 93304, Note_off_c, 1, 50, 100
3, 93312, Note_on_c, 1, 55, 88
3, 93688, Note_off_c, 1, 55, 100
3, 93696, Note_on_c, 1, 45, 87
3, 93880, Note_off_c, 1, 45, 100
3, 93888, Note_on_c, 1, 55, 87
3, 94072, Note_off_c, 1, 55, 100
3, 94080, Note_on_c, 1, 54, 86
3, 94264, Note_off_c, 1, 54, 100
3, 94272, Note_on_c, 1, 52, 86
3, 94456, Note_off_c, 1, 52, 100
3, 94464, Note_on_c, 1, 54, 85
3, 94648, Note_off_c, 1, 54, 100
3, 94656, Note_on_c, 1, 51, 85
3, 94840, Note_off_c, 1, 51, 100
3, 94848, Note_on_c, 1, 45, 85
3, 95416, Note_off_c, 1, 45, 100
3, 95424, Note_on_c, 1, 43, 83
3, 95608, Note_off_c, 1, 43, 100
3, 95616, Note_on_c, 1, 45, 83
3, 95800, Note_off_c, 1, 45, 100
3, 95808, Note_on_c, 1, 47, 83
3, 95992, Note_off_c, 1, 47, 100
3, 96000, Note_on_c, 1, 43, 82
3, 96184, Note_off_c, 1, 43, 100
3, 96192, Note_on_c, 1, 47, 82
3, 96376, Note_off_c, 1, 47, 100
3, 96384, Note_on_c, 1, 52, 81
3, 96568, Note_off_c, 1, 52, 100
3, 96576, Note_on_c, 1, 55, 81
3, 96760, Note_off_c, 1, 55, 100
3, 96768, Note_on_c, 1, 54, 75
3, 96952, Note_off_c, 1, 54, 100
3, 96960, Note_on_c, 1, 46, 75
3, 97144, Note_off_c, 1, 46, 100
3, 97152, Note_on_c, 1, 54, 76
3, 97336, Note_off_c, 1, 54, 100
3, 97344, Note_on_c, 1, 55, 76
3, 97528, Note_off_c, 1, 55, 100
3, 97536, Note_on_c, 1, 54, 77
3, 97720, Note_off_c, 1, 54, 100
3, 97728, Note_on_c, 1, 47, 77
3, 97912, Note_off_c, 1, 47, 100
3, 97920, Note_on_c, 1, 54, 78
3, 98104, Note_off_c, 1, 54, 100
3, 98112, Note_on_c, 1, 57, 78
3, 98296, Note_off_c, 1, 57, 100
3, 98304, Note_on_c, 1, 56, 79
3, 98488, Note_off_c, 1, 56, 100
3, 98496, Note_on_c, 1, 52, 79
3, 98680, Note_off_c, 1, 52, 100
3, 98688, Note_on_c, 1, 56, 80
3, 98872, Note_off_c, 1, 56, 100
3, 98880, Note_on_c, 1, 58, 80
3, 99064, Note_off_c, 1, 58, 100
3, 99072, Note_on_c, 1, 59, 81
3, 99256, Note_off_c, 1, 59, 100
3, 99264, Note_on_c, 1, 50, 81
3, 99448, Note_off_c, 1, 50, 100
3, 99456, Note_on_c, 1, 55, 82
3, 99640, Note_off_c, 1, 55, 100
3, 99648, Note_on_c, 1, 59, 82
3, 99832, Note_off_c, 1, 59, 100
3, 99840, Note_on_c, 1, 57, 83
3, 100024, Note_off_c, 1, 57, 100
3, 100032, Note_on_c, 1, 49, 83
3, 100216, Note_off_c, 1, 49, 100
3, 100224, Note_on_c, 1, 57, 84
3, 100408, Note_off_c, 1, 57, 100
3, 100416, Note_on_c, 1, 58, 84
3, 100600, Note_off_c, 1, 58, 100
3, 100608, Note_on_c, 1, 57, 85
3, 100792, Note_off_c, 1, 57, 100
3, 100800, Note_on_c, 1, 50, 85
3, 100984, Note_off_c, 1, 50, 100
3, 100992, Note_on_c, 1, 57, 86
3, 101176, Note_off_c, 1, 57, 100
3, 101184, Note_on_c, 1, 60, 86
3, 101368, Note_off_c, 1, 60, 100
3, 101376, Note_on_c, 1, 59, 87
3, 101560, Note_off_c, 1, 59, 100
3, 101568, Note_on_c, 1, 55, 88
3, 101752, Note_off_c, 1, 55, 100
3, 101760, Note_on_c, 1, 59, 88
3, 101944, Note_off_c, 1, 59, 100
3, 101952, Note_on_c, 1, 61, 89
3, 102136, Note_off_c, 1, 61, 100
3, 102144, Note_on_c, 1, 62, 89
3, 102328, Note_off_c, 1, 62, 100
3, 102336, Note_on_c, 1, 53, 90
3, 102520, Note_off_c, 1, 53, 100
3, 102528, Note_on_c, 1, 58, 90
3, 102712, Note_off_c, 1, 58, 100
3, 102720, Note_on_c, 1, 62, 91
3, 102904, Note_off_c, 1, 62, 100
3, 102912, Note_on_c, 1, 60, 91
3, 103096, Note_off_c, 1, 60, 100
3, 103104, Note_on_c, 1, 52, 92
3, 103288, Note_off_c, 1, 52, 100
3, 103296, Note_on_c, 1, 60, 92
3, 103480, Note_off_c, 1, 60, 100
3, 103488, Note_on_c, 1, 62, 93
3, 103672, Note_off_c, 1, 62, 100
3, 103680, Note_on_c, 1, 60, 93
3, 103864, Note_off_c, 1, 60, 100
3, 103872, Note_on_c, 1, 53, 94
3, 104056, Note_off_c, 1, 53, 100
3, 104064, Note_on_c, 1, 57, 94
3, 104248, Note_off_c, 1, 57, 100
3, 104256, Note_on_c, 1, 60, 95
3, 104440, Note_off_c, 1, 60, 100
3, 104448, Note_on_c, 1, 59, 95
3, 104632, Note_off_c, 1, 59, 100
3, 104640, Note_on_c, 1, 50, 96
3, 104824, Note_off_c, 1, 50, 100
3, 104832, Note_on_c, 1, 59, 96
3, 105016, Note_off_c, 1, 59, 100
3, 105024, Note_on_c, 1, 60, 97
3, 105208, Note_off_c, 1, 60, 100
3, 105216, Note_on_c, 1, 59, 97
3, 105400, Note_off_c, 1, 59, 100
3, 105408, Note_on_c, 1, 52, 98
3, 105592, Note_off_c, 1, 52, 100
3, 105600, Note_on_c, 1, 59, 98
3, 105784, Note_off_c, 1, 59, 100
3, 105792, Note_on_c, 1, 62, 99
3, 105976, Note_off_c, 1, 62, 100
3, 105984, Note_on_c, 1, 60, 100
3, 106168, Note_off_c, 1, 60, 100
3, 106176, Note_on_c, 1, 57, 100
3, 106360, Note_off_c, 1, 57, 100
3, 106368, Note_on_c, 1, 60, 100
3, 106552, Note_off_c, 1, 60, 100
3, 106560, Note_on_c, 1, 64, 100
3, 106744, Note_off_c, 1, 64, 100
3, 106752, Note_on_c, 1, 60, 100
3, 106936, Note_off_c, 1, 60, 100
3, 106944, Note_on_c, 1, 57, 100
3, 107128, Note_off_c, 1, 57, 100
3, 107136, Note_on_c, 1, 59, 100
3, 107320, Note_off_c, 1, 59, 100
3, 107328, Note_on_c, 1, 56, 100
3, 107512, Note_off_c, 1, 56, 100
3, 107520, Note_on_c, 1, 57, 100
3, 107704, Note_off_c, 1, 57, 100
3, 107712, Note_on_c, 1, 60, 100
3, 107896, Note_off_c, 1, 60, 100
3, 107904, Note_on_c, 1, 59, 100
3, 108088, Note_off_c, 1, 59, 100
3, 108096, Note_on_c, 1, 62, 100
3, 108280, Note_off_c, 1, 62, 100
3, 108288, Note_on_c, 1, 60, 100
3, 108472, Note_off_c, 1, 60, 100
3, 108480, Note_on_c, 1, 59, 100
3, 108664, Note_off_c, 1, 59, 100
3, 108672, Note_on_c, 1, 60, 100
3, 108856, Note_off_c, 1, 60, 100
3, 108864, Note_on_c, 1, 57, 100
3, 109048, Note_off_c, 1, 57, 100
3, 109056, Note_on_c, 1, 52, 100
3, 109432, Note_off_c, 1, 52, 100
3, 109440, Note_on_c, 1, 54, 100
3, 109816, Note_off_c, 1, 54, 100
3, 109824, Note_on_c, 1, 55, 100
3, 110200, Note_off_c, 1, 55, 100
3, 110208, Note_on_c, 1, 54, 100
3, 110392, Note_off_c, 1, 54, 100
3, 110400, Note_on_c, 1, 52, 100
3, 110584, Note_off_c, 1, 52, 100
3, 110592, Note_on_c, 1, 54, 100
3, 110968, Note_off_c, 1, 54, 100
3, 110976, Note_on_c, 1, 56, 100
3, 111352, Note_off_c, 1, 56, 100
3, 111360, Note_on_c, 1, 57, 100
3, 112504, Note_off_c, 1, 57, 100
3, 112512, Note_on_c, 1, 55, 100
3, 112696, Note_off_c, 1, 55, 100
3, 112704, Note_on_c, 1, 54, 100
3, 112888, Note_off_c, 1, 54, 100
3, 112896, Note_on_c, 1, 55, 100
3, 113272, Note_off_c, 1, 55, 100
3, 113280, Note_on_c, 1, 52, 100
3, 114040, Note_off_c, 1, 52, 100
3, 114048, Note_on_c, 1, 51, 100
3, 114232, Note_off_c, 1, 51, 100
3, 114240, Note_on_c, 1, 49, 100
3, 114424, Note_off_c, 1, 49, 100
3, 114432, Note_on_c, 1, 52, 100
3, 114520, Note_off_c, 1, 52, 100
3, 114528, Note_on_c, 1, 51, 100
3, 114616, Note_off_c, 1, 51, 100
3, 114624, Note_on_c, 1, 52, 100
3, 114712, Note_off_c, 1, 52, 100
3, 114720, Note_on_c, 1, 51, 100
3, 114808, Note_off_c, 1, 51, 100
3, 114816, Note_on_c, 1, 52, 100
3, 114904, Note_off_c, 1, 52, 100
3, 114912, Note_on_c, 1, 51, 100
3, 115000, Note_off_c, 1, 51, 100
3, 115008, Note_on_c, 1, 49, 100
3, 115096, Note_off_c, 1, 49, 100
3, 115104, Note_on_c, 1, 51, 100
3, 115192, Note_off_c, 1, 51, 100
3, 115200, Note_on_c, 1, 52, 100
3, 115384, Note_off_c, 1, 52, 100
3, 115584, Note_on_c, 1, 59, 100
3, 115960, Note_off_c, 1, 59, 100
3, 115968, Note_on_c, 1, 64, 100
3, 117464, Note_off_c, 1, 64, 100
3, 117504, Note_on_c, 1, 64, 100
3, 117592, Note_off_c, 1, 64, 100
3, 117600, Note_on_c, 1, 63, 100
3, 117688, Note_off_c, 1, 63, 100
3, 117696, Note_on_c, 1, 64, 100
3, 117784, Note_off_c, 1, 64, 100
3, 117792, Note_on_c, 1, 63, 100
3, 117880, Note_off_c, 1, 63, 100
3, 117888, Note_on_c, 1, 64, 100
3, 117976, Note_off_c, 1, 64, 100
3, 117984, Note_on_c, 1, 63, 100
3, 118072, Note_off_c, 1, 63, 100
3, 118080, Note_on_c, 1, 61, 100
3, 118168, Note_off_c, 1, 61, 100
3, 118176, Note_on_c, 1, 63, 100
3, 118264, Note_off_c, 1, 63, 100
3, 118272, Note_on_c, 1, 64, 100
3, 119032, Note_off_c, 1, 64, 100
3, 119424, Note_on_c, 1, 62, 83
3, 119608, Note_off_c, 1, 62, 100
3, 119808, Note_on_c, 1, 61, 83
3, 119992, Note_off_c, 1, 61, 100
3, 120192, Note_on_c, 1, 70, 83
3, 120568, Note_off_c, 1, 70, 100
3, 120576, Note_on_c, 1, 69, 83
3, 120664, Note_off_c, 1, 69, 100
3, 120672, Note_on_c, 1, 70, 83
3, 120760, Note_off_c, 1, 70, 100
3, 120768, Note_on_c, 1, 69, 83
3, 120952, Note_off_c, 1, 69, 100
3, 120960, Note_on_c, 1, 67, 83
3, 121144, Note_off_c, 1, 67, 100
3, 121344, Note_on_c, 1, 58, 83
3, 121528, Note_off_c, 1, 58, 100
3, 121728, Note_on_c, 1, 67, 83
3, 122104, Note_off_c, 1, 67, 100
3, 122112, Note_on_c, 1, 65, 83
3, 122200, Note_off_c, 1, 65, 100
3, 122208, Note_on_c, 1, 67, 83
3, 122296, Note_off_c, 1, 67, 100
3, 122304, Note_on_c, 1, 65, 83
3, 122488, Note_off_c, 1, 65, 100
3, 122496, Note_on_c, 1, 64, 83
3, 122680, Note_off_c, 1, 64, 100
3, 122880, Note_on_c, 1, 55, 83
3, 123064, Note_off_c, 1, 55, 100
3, 123264, Note_on_c, 1, 64, 83
3, 123640, Note_off_c, 1, 64, 100
3, 123648, Note_on_c, 1, 62, 83
3, 123736, Note_off_c, 1, 62, 100
3, 123744, Note_on_c, 1, 64, 83
3, 123832, Note_off_c, 1, 64, 100
3, 123840, Note_on_c, 1, 62, 83
3, 124024, Note_off_c, 1, 62, 100
3, 124032, Note_on_c, 1, 61, 83
3, 124216, Note_off_c, 1, 61, 100
3, 124416, Note_on_c, 1, 62, 83
3, 124600, Note_off_c, 1, 62, 100
3, 124608, Note_on_c, 1, 57, 83
3, 124792, Note_off_c, 1, 57, 100
3, 124800, Note_on_c, 1, 62, 83
3, 124984, Note_off_c, 1, 62, 100
3, 124992, Note_on_c, 1, 64, 83
3, 125176, Note_off_c, 1, 64, 100
3, 125184, Note_on_c, 1, 65, 83
3, 125368, Note_off_c, 1, 65, 100
3, 125376, Note_on_c, 1, 67, 83
3, 125560, Note_off_c, 1, 67, 100
3, 125568, Note_on_c, 1, 68, 83
3, 125752, Note_off_c, 1, 68, 100
3, 125760, Note_on_c, 1, 65, 83
3, 125944, Note_off_c, 1, 65, 100
3, 125952, Note_on_c, 1, 62, 83
3, 126136, Note_off_c, 1, 62, 100
3, 126144, Note_on_c, 1, 64, 83
3, 126328, Note_off_c, 1, 64, 100
3, 126336, Note_on_c, 1, 65, 83
3, 126904, Note_off_c, 1, 65, 100
3, 126912, Note_on_c, 1, 64, 83
3, 127096, Note_off_c, 1, 64, 100
3, 127104, Note_on_c, 1, 62, 83
3, 127288, Note_off_c, 1, 62, 100
3, 127296, Note_on_c, 1, 60, 83
3, 127480, Note_off_c, 1, 60, 100
3, 127488, Note_on_c, 1, 59, 83
3, 127672, Note_off_c, 1, 59, 100
3, 127680, Note_on_c, 1, 60, 83
3, 127864, Note_off_c, 1, 60, 100
3, 127872, Note_on_c, 1, 62, 83
3, 128440, Note_off_c, 1, 62, 100
3, 128448, Note_on_c, 1, 60, 83
3, 128632, Note_off_c, 1, 60, 100
3, 128640, Note_on_c, 1, 59, 83
3, 128824, Note_off_c, 1, 59, 100
3, 128832, Note_on_c, 1, 57, 83
3, 129016, Note_off_c, 1, 57, 100
3, 129024, Note_on_c, 1, 59, 83
3, 129208, Note_off_c, 1, 59, 100
3, 129216, Note_on_c, 1, 55, 83
3, 129400, Note_off_c, 1, 55, 100
3, 129408, Note_on_c, 1, 59, 83
3, 129592, Note_off_c, 1, 59, 100
3, 129600, Note_on_c, 1, 60, 83
3, 129784, Note_off_c, 1, 60, 100
3, 129792, Note_on_c, 1, 62, 83
3, 129976, Note_off_c, 1, 62, 100
3, 129984, Note_on_c, 1, 64, 83
3, 130168, Note_off_c, 1, 64, 100
3, 130176, Note_on_c, 1, 65, 83
3, 130360, Note_off_c, 1, 65, 100
3, 130368, Note_on_c, 1, 62, 83
3, 130552, Note_off_c, 1, 62, 100
3, 130560, Note_on_c, 1, 64, 100
3, 130744, Note_off_c, 1, 64, 100
3, 130944, Note_on_c, 1, 52, 100
3, 131320, Note_off_c, 1, 52, 100
3, 131328, Note_on_c, 1, 57, 100
3, 132472, Note_off_c, 1, 57, 100
3, 132480, Note_on_c, 1, 55, 100
3, 132664, Note_off_c, 1, 55, 100
3, 132672, Note_on_c, 1, 54, 100
3, 132856, Note_off_c, 1, 54, 100
3, 132864, Note_on_c, 1, 55, 100
3, 134008, Note_off_c, 1, 55, 100
3, 134016, Note_on_c, 1, 57, 100
3, 134200, Note_off_c, 1, 57, 100
3, 134208, Note_on_c, 1, 59, 100
3, 134392, Note_off_c, 1, 59, 100
3, 134400, Note_on_c, 1, 60, 100
3, 135544, Note_off_c, 1, 60, 100
3, 135552, Note_on_c, 1, 58, 100
3, 135736, Note_off_c, 1, 58, 100
3, 135744, Note_on_c, 1, 57, 100
3, 135928, Note_off_c, 1, 57, 100
3, 135936, Note_on_c, 1, 58, 100
3, 137080, Note_off_c, 1, 58, 100
3, 137088, Note_on_c, 1, 60, 100
3, 137272, Note_off_c, 1, 60, 100
3, 137280, Note_on_c, 1, 62, 100
3, 137464, Note_off_c, 1, 62, 100
3, 137472, Note_on_c, 1, 63, 100
3, 138616, Note_off_c, 1, 63, 100
3, 138624, Note_on_c, 1, 62, 100
3, 138808, Note_off_c, 1, 62, 100
3, 138816, Note_on_c, 1, 61, 100
3, 139000, Note_off_c, 1, 61, 100
3, 139008, Note_on_c, 1, 62, 100
3, 140288, Note_off_c, 1, 62, 100
3, 140544, Note_on_c, 1, 62, 100
3, 140632, Note_off_c, 1, 62, 100
3, 140640, Note_on_c, 1, 61, 100
3, 140728, Note_off_c, 1, 61, 100
3, 140736, Note_on_c, 1, 62, 100
3, 140824, Note_off_c, 1, 62, 100
3, 140832, Note_on_c, 1, 61, 100
3, 140920, Note_off_c, 1, 61, 100
3, 140928, Note_on_c, 1, 62, 100
3, 141016, Note_off_c, 1, 62, 100
3, 141024, Note_on_c, 1, 61, 100
3, 141112, Note_off_c, 1, 61, 100
3, 141120, Note_on_c, 1, 59, 100
3, 141208, Note_off_c, 1, 59, 100
3, 141216, Note_on_c, 1, 61, 100
3, 141304, Note_off_c, 1, 61, 100
3, 141312, Note_on_c, 1, 62, 95
3, 141496, Note_off_c, 1, 62, 100
3, 141696, Note_on_c, 1, 64, 97
3, 142072, Note_off_c, 1, 64, 100
3, 142080, Note_on_c, 1, 65, 99
3, 142456, Note_off_c, 1, 65, 100
3, 142464, Note_on_c, 1, 62, 101
3, 142840, Note_off_c, 1, 62, 100
3, 142848, Note_on_c, 1, 64, 103
3, 143224, Note_off_c, 1, 64, 100
3, 143232, Note_on_c, 1, 62, 105
3, 143608, Note_off_c, 1, 62, 100
3, 143616, Note_on_c, 1, 60, 107
3, 143992, Note_off_c, 1, 60, 100
3, 144000, Note_on_c, 1, 59, 109
3, 144376, Note_off_c, 1, 59, 100
3, 144384, Note_on_c, 1, 57, 100
3, 144568, Note_off_c, 1, 57, 100
3, 144576, Note_on_c, 1, 52, 100
3, 144760, Note_off_c, 1, 52, 100
3, 144768, Note_on_c, 1, 57, 100
3, 145528, Note_off_c, 1, 57, 100
3, 145536, Note_on_c, 1, 56, 100
3, 145624, Note_off_c, 1, 56, 100
3, 145632, Note_on_c, 1, 57, 100
3, 145720, Note_off_c, 1, 57, 100
3, 145728, Note_on_c, 1, 56, 100
3, 145912, Note_off_c, 1, 56, 100
3, 145920, Note_on_c, 1, 57, 100
3, 146680, Note_off_c, 1, 57, 100
3, 146688, Note_on_c, 1, 59, 100
3, 147448, Note_off_c, 1, 59, 100
3, 147456, Note_on_c, 1, 60, 100
3, 148216, Note_off_c, 1, 60, 100
3, 148224, Note_on_c, 1, 52, 100
3, 148984, Note_off_c, 1, 52, 100
3, 148992, Note_on_c, 1, 53, 100
3, 149176, Note_off_c, 1, 53, 100
3, 149184, Note_on_c, 1, 52, 100
3, 149368, Note_off_c, 1, 52, 100
3, 149376, Note_on_c, 1, 50, 100
3, 150136, Note_off_c, 1, 50, 100
3, 150144, Note_on_c, 1, 52, 100
3, 150328, Note_off_c, 1, 52, 100
3, 150336, Note_on_c, 1, 54, 100
3, 150520, Note_off_c, 1, 54, 100
3, 150528, Note_on_c, 1, 55, 100
3, 150712, Note_off_c, 1, 55, 100
3, 150720, Note_on_c, 1, 57, 100
3, 150904, Note_off_c, 1, 57, 100
3, 150912, Note_on_c, 1, 58, 100
3, 151672, Note_off_c, 1, 58, 100
3, 151680, Note_on_c, 1, 57, 100
3, 151864, Note_off_c, 1, 57, 100
3, 151872, Note_on_c, 1, 56, 100
3, 152056, Note_off_c, 1, 56, 100
3, 152064, Note_on_c, 1, 57, 95
3, 152248, Note_off_c, 1, 57, 100
3, 152256, Note_on_c, 1, 52, 95
3, 152440, Note_off_c, 1, 52, 100
3, 152448, Note_on_c, 1, 57, 96
3, 152632, Note_off_c, 1, 57, 100
3, 152640, Note_on_c, 1, 59, 96
3, 152824, Note_off_c, 1, 59, 100
3, 152832, Note_on_c, 1, 57, 97
3, 153016, Note_off_c, 1, 57, 100
3, 153024, Note_on_c, 1, 52, 97
3, 153208, Note_off_c, 1, 52, 100
3, 153216, Note_on_c, 1, 57, 98
3, 153400, Note_off_c, 1, 57, 100
3, 153408, Note_on_c, 1, 60, 98
3, 153592, Note_off_c, 1, 60, 100
3, 153600, Note_on_c, 1, 59, 99
3, 153784, Note_off_c, 1, 59, 100
3, 153792, Note_on_c, 1, 52, 99
3, 153976, Note_off_c, 1, 52, 100
3, 153984, Note_on_c, 1, 59, 100
3, 154168, Note_off_c, 1, 59, 100
3, 154176, Note_on_c, 1, 60, 100
3, 154360, Note_off_c, 1, 60, 100
3, 154368, Note_on_c, 1, 59, 101
3, 154552, Note_off_c, 1, 59, 100
3, 154560, Note_on_c, 1, 52, 101
3, 154744, Note_off_c, 1, 52, 100
3, 154752, Note_on_c, 1, 59, 102
3, 154936, Note_off_c, 1, 59, 100
3, 154944, Note_on_c, 1, 62, 102
3, 155128, Note_off_c, 1, 62, 100
3, 155136, Note_on_c, 1, 60, 103
3, 155320, Note_off_c, 1, 60, 100
3, 155328, Note_on_c, 1, 52, 103
3, 155512, Note_off_c, 1, 52, 100
3, 155520, Note_on_c, 1, 60, 104
3, 155704, Note_off_c, 1, 60, 100
3, 155712, Note_on_c, 1, 62, 104
3, 155896, Note_off_c, 1, 62, 100
3, 155904, Note_on_c, 1, 60, 105
3, 156088, Note_off_c, 1, 60, 100
3, 156096, Note_on_c, 1, 52, 105
3, 156280, Note_off_c, 1, 52, 100
3, 156288, Note_on_c, 1, 60, 106
3, 156472, Note_off_c, 1, 60, 100
3, 156480, Note_on_c, 1, 64, 106
3, 156664, Note_off_c, 1, 64, 100
3, 156672, Note_on_c, 1, 59, 107
3, 156856, Note_off_c, 1, 59, 100
3, 156864, Note_on_c, 1, 52, 107
3, 157048, Note_off_c, 1, 52, 100
3, 157056, Note_on_c, 1, 59, 108
3, 157240, Note_off_c, 1, 59, 100
3, 157248, Note_on_c, 1, 60, 108
3, 157432, Note_off_c, 1, 60, 100
3, 157440, Note_on_c, 1, 59, 109
3, 157624, Note_off_c, 1, 59, 100
3, 157632, Note_on_c, 1, 52, 109
3, 157816, Note_off_c, 1, 52, 100
3, 157824, Note_on_c, 1, 59, 110
3, 158008, Note_off_c, 1, 59, 100
3, 158016, Note_on_c, 1, 62, 110
3, 158200, Note_off_c, 1, 62, 100
3, 158208, Note_on_c, 1, 60, 100
3, 158392, Note_off_c, 1, 60, 100
3, 158400, Note_on_c, 1, 57, 100
3, 158584, Note_off_c, 1, 57, 100
3, 158592, Note_on_c, 1, 59, 100
3, 158776, Note_off_c, 1, 59, 100
3, 158784, Note_on_c, 1, 61, 100
3, 158968, Note_off_c, 1, 61, 100
3, 158976, Note_on_c, 1, 62, 100
3, 159160, Note_off_c, 1, 62, 100
3, 159168, Note_on_c, 1, 64, 100
3, 159352, Note_off_c, 1, 64, 100
3, 159360, Note_on_c, 1, 65, 100
3, 159544, Note_off_c, 1, 65, 100
3, 159552, Note_on_c, 1, 67, 100
3, 159736, Note_off_c, 1, 67, 100
3, 159744, Note_on_c, 1, 65, 100
3, 159928, Note_off_c, 1, 65, 100
3, 159936, Note_on_c, 1, 64, 100
3, 160120, Note_off_c, 1, 64, 100
3, 160128, Note_on_c, 1, 62, 100
3, 160312, Note_off_c, 1, 62, 100
3, 160320, Note_on_c, 1, 61, 100
3, 160504, Note_off_c, 1, 61, 100
3, 160512, Note_on_c, 1, 62, 100
3, 160696, Note_off_c, 1, 62, 100
3, 160896, Note_on_c, 1, 50, 100
3, 161656, Note_off_c, 1, 50, 100
3, 161664, Note_on_c, 1, 48, 100
3, 161848, Note_off_c, 1, 48, 100
3, 161856, Note_on_c, 1, 47, 100
3, 162040, Note_off_c, 1, 47, 100
3, 162048, Note_on_c, 1, 48, 100
3, 162424, Note_off_c, 1, 48, 100
3, 162432, Note_on_c, 1, 50, 100
3, 162808, Note_off_c, 1, 50, 100
3, 162816, Note_on_c, 1, 52, 100
3, 163192, Note_off_c, 1, 52, 100
3, 163200, Note_on_c, 1, 50, 100
3, 163576, Note_off_c, 1, 50, 100
3, 163584, Note_on_c, 1, 52, 100
3, 163960, Note_off_c, 1, 52, 100
3, 163968, Note_on_c, 1, 40, 100
3, 164344, Note_off_c, 1, 40, 100
3, 164352, Note_on_c, 1, 45, 100
3, 165880, Note_off_c, 1, 45, 100
3, 165880, End_track
4, 0, Start_track
4, 0, Title_t, """Duetto IV,"" BWV 805, by J.S. Bach"
4, 0, Control_c, 2, 7, 100
4, 0, End_track
5, 0, Start_track
5, 0, Title_t, "Sequenced by T.L. Hubeart Jr."
5, 0, Control_c, 3, 7, 100
5, 0, End_track
6, 0, Start_track
6, 0, Title_t, "(C) 1996 by T.L. Hubeart Jr."
6, 0, Control_c, 4, 7, 100
6, 0, End_track
7, 0, Start_track
7, 0, Title_t, "http://members.aol.com/basfawlty"
7, 0, Control_c, 5, 7, 100
7, 0, End_track
0, 0, End_of_file
