0, 0, Header, 1, 4, 240
1, 0, Start_track
1, 0, Time_signature, 3, 2, 24, 8
1, 0, Tempo, 454545
1, 5760, Time_signature, 3, 2, 24, 8
1, 5760, End_track
2, 0, Start_track
2, 0, Title_t, "English Suite 4, 6. Minuet 2"
2, 0, Program_c, 0, 0
2, 0, Note_on_c, 0, 77, 100
2, 192, Note_off_c, 0, 77, 64
2, 240, Note_on_c, 0, 76, 100
2, 432, Note_off_c, 0, 76, 64
2, 480, Note_on_c, 0, 74, 100
2, 672, Note_off_c, 0, 74, 64
2, 720, Note_on_c, 0, 74, 100
2, 744, Note_off_c, 0, 74, 64
2, 750, Note_on_c, 0, 73, 100
2, 774, Note_off_c, 0, 73, 64
2, 780, Note_on_c, 0, 74, 100
2, 804, Note_off_c, 0, 74, 64
2, 810, Note_on_c, 0, 73, 100
2, 936, Note_off_c, 0, 73, 64
2, 960, Note_on_c, 0, 73, 80
2, 1020, Note_off_c, 0, 73, 64
2, 1080, Note_on_c, 0, 74, 100
2, 1440, Note_on_c, 0, 69, 100
2, 1464, Note_off_c, 0, 74, 64
2, 1632, Note_off_c, 0, 69, 64
2, 1680, Note_on_c, 0, 70, 100
2, 1776, Note_off_c, 0, 70, 64
2, 1800, Note_on_c, 0, 69, 100
2, 1896, Note_off_c, 0, 69, 64
2, 1920, Note_on_c, 0, 67, 100
2, 2016, Note_off_c, 0, 67, 64
2, 2040, Note_on_c, 0, 70, 100
2, 2136, Note_off_c, 0, 70, 64
2, 2160, Note_on_c, 0, 69, 100
2, 2352, Note_off_c, 0, 69, 64
2, 2400, Note_on_c, 0, 67, 100
2, 2496, Note_off_c, 0, 67, 64
2, 2520, Note_on_c, 0, 65, 100
2, 2616, Note_off_c, 0, 65, 64
2, 2640, Note_on_c, 0, 64, 100
2, 2736, Note_off_c, 0, 64, 64
2, 2760, Note_on_c, 0, 62, 100
2, 2856, Note_off_c, 0, 62, 64
2, 2880, Note_on_c, 0, 77, 100
2, 3072, Note_off_c, 0, 77, 64
2, 3120, Note_on_c, 0, 76, 100
2, 3312, Note_off_c, 0, 76, 64
2, 3360, Note_on_c, 0, 74, 100
2, 3552, Note_off_c, 0, 74, 64
2, 3600, Note_on_c, 0, 82, 100
2, 3792, Note_off_c, 0, 82, 64
2, 3840, Note_on_c, 0, 81, 100
2, 4512, Note_off_c, 0, 81, 64
2, 4560, Note_on_c, 0, 79, 100
2, 4656, Note_off_c, 0, 79, 64
2, 4680, Note_on_c, 0, 77, 100
2, 4776, Note_off_c, 0, 77, 64
2, 4800, Note_on_c, 0, 76, 100
2, 4896, Note_off_c, 0, 76, 64
2, 4920, Note_on_c, 0, 74, 100
2, 5016, Note_off_c, 0, 74, 64
2, 5040, Note_on_c, 0, 74, 100
2, 5040, Note_on_c, 0, 69, 100
2, 5064, Note_off_c, 0, 74, 64
2, 5070, Note_on_c, 0, 73, 100
2, 5094, Note_off_c, 0, 73, 64
2, 5100, Note_on_c, 0, 74, 100
2, 5124, Note_off_c, 0, 74, 64
2, 5130, Note_on_c, 0, 73, 100
2, 5616, Note_off_c, 0, 69, 64
2, 5724, Note_off_c, 0, 73, 64
2, 5760, Note_on_c, 0, 77, 100
2, 5952, Note_off_c, 0, 77, 64
2, 6000, Note_on_c, 0, 76, 100
2, 6192, Note_off_c, 0, 76, 64
2, 6240, Note_on_c, 0, 74, 100
2, 6432, Note_off_c, 0, 74, 64
2, 6480, Note_on_c, 0, 74, 100
2, 6504, Note_off_c, 0, 74, 64
2, 6510, Note_on_c, 0, 73, 100
2, 6534, Note_off_c, 0, 73, 64
2, 6540, Note_on_c, 0, 74, 100
2, 6564, Note_off_c, 0, 74, 64
2, 6570, Note_on_c, 0, 73, 100
2, 6696, Note_off_c, 0, 73, 64
2, 6720, Note_on_c, 0, 73, 80
2, 6780, Note_off_c, 0, 73, 64
2, 6840, Note_on_c, 0, 74, 100
2, 7200, Note_on_c, 0, 69, 100
2, 7224, Note_off_c, 0, 74, 64
2, 7392, Note_off_c, 0, 69, 64
2, 7440, Note_on_c, 0, 70, 100
2, 7536, Note_off_c, 0, 70, 64
2, 7560, Note_on_c, 0, 69, 100
2, 7656, Note_off_c, 0, 69, 64
2, 7680, Note_on_c, 0, 67, 100
2, 7776, Note_off_c, 0, 67, 64
2, 7800, Note_on_c, 0, 70, 100
2, 7896, Note_off_c, 0, 70, 64
2, 7920, Note_on_c, 0, 69, 100
2, 8112, Note_off_c, 0, 69, 64
2, 8160, Note_on_c, 0, 67, 100
2, 8256, Note_off_c, 0, 67, 64
2, 8280, Note_on_c, 0, 65, 100
2, 8376, Note_off_c, 0, 65, 64
2, 8400, Note_on_c, 0, 64, 100
2, 8496, Note_off_c, 0, 64, 64
2, 8520, Note_on_c, 0, 62, 100
2, 8616, Note_off_c, 0, 62, 64
2, 8640, Note_on_c, 0, 77, 100
2, 8832, Note_off_c, 0, 77, 64
2, 8880, Note_on_c, 0, 76, 100
2, 9072, Note_off_c, 0, 76, 64
2, 9120, Note_on_c, 0, 74, 100
2, 9312, Note_off_c, 0, 74, 64
2, 9360, Note_on_c, 0, 82, 100
2, 9552, Note_off_c, 0, 82, 64
2, 9600, Note_on_c, 0, 81, 100
2, 10272, Note_off_c, 0, 81, 64
2, 10320, Note_on_c, 0, 79, 100
2, 10416, Note_off_c, 0, 79, 64
2, 10440, Note_on_c, 0, 77, 100
2, 10536, Note_off_c, 0, 77, 64
2, 10560, Note_on_c, 0, 76, 100
2, 10656, Note_off_c, 0, 76, 64
2, 10680, Note_on_c, 0, 74, 100
2, 10776, Note_off_c, 0, 74, 64
2, 10800, Note_on_c, 0, 69, 100
2, 10800, Note_on_c, 0, 74, 100
2, 10824, Note_off_c, 0, 74, 64
2, 10830, Note_on_c, 0, 73, 100
2, 10854, Note_off_c, 0, 73, 64
2, 10860, Note_on_c, 0, 74, 100
2, 10884, Note_off_c, 0, 74, 64
2, 10890, Note_on_c, 0, 73, 100
2, 11376, Note_off_c, 0, 69, 64
2, 11484, Note_off_c, 0, 73, 64
2, 11520, Note_on_c, 0, 76, 100
2, 11520, Note_on_c, 0, 73, 100
2, 11712, Note_off_c, 0, 76, 64
2, 11760, Note_on_c, 0, 77, 100
2, 11856, Note_off_c, 0, 77, 64
2, 11880, Note_on_c, 0, 76, 100
2, 11976, Note_off_c, 0, 76, 64
2, 12000, Note_on_c, 0, 74, 100
2, 12096, Note_off_c, 0, 74, 64
2, 12096, Note_off_c, 0, 73, 64
2, 12120, Note_on_c, 0, 76, 100
2, 12216, Note_off_c, 0, 76, 64
2, 12240, Note_on_c, 0, 77, 100
2, 12432, Note_off_c, 0, 77, 64
2, 12480, Note_on_c, 0, 70, 100
2, 13152, Note_off_c, 0, 70, 64
2, 13200, Note_on_c, 0, 69, 100
2, 13296, Note_off_c, 0, 69, 64
2, 13320, Note_on_c, 0, 67, 100
2, 13416, Note_off_c, 0, 67, 64
2, 13440, Note_on_c, 0, 69, 100
2, 13536, Note_off_c, 0, 69, 64
2, 13560, Note_on_c, 0, 65, 100
2, 13656, Note_off_c, 0, 65, 64
2, 13680, Note_on_c, 0, 67, 100
2, 13872, Note_off_c, 0, 67, 64
2, 13920, Note_on_c, 0, 60, 100
2, 14112, Note_off_c, 0, 60, 64
2, 14160, Note_on_c, 0, 72, 100
2, 14592, Note_off_c, 0, 72, 64
2, 14640, Note_on_c, 0, 70, 100
2, 14736, Note_off_c, 0, 70, 64
2, 14760, Note_on_c, 0, 69, 100
2, 14856, Note_off_c, 0, 69, 64
2, 14880, Note_on_c, 0, 67, 100
2, 14976, Note_off_c, 0, 67, 64
2, 15000, Note_on_c, 0, 65, 100
2, 15096, Note_off_c, 0, 65, 64
2, 15120, Note_on_c, 0, 75, 100
2, 15312, Note_off_c, 0, 75, 64
2, 15360, Note_on_c, 0, 75, 100
2, 15384, Note_off_c, 0, 75, 64
2, 15390, Note_on_c, 0, 74, 100
2, 15414, Note_off_c, 0, 74, 64
2, 15420, Note_on_c, 0, 75, 100
2, 15444, Note_off_c, 0, 75, 64
2, 15450, Note_on_c, 0, 74, 100
2, 16032, Note_off_c, 0, 74, 64
2, 16080, Note_on_c, 0, 72, 100
2, 16176, Note_off_c, 0, 72, 64
2, 16200, Note_on_c, 0, 71, 100
2, 16296, Note_off_c, 0, 71, 64
2, 16320, Note_on_c, 0, 69, 100
2, 16416, Note_off_c, 0, 69, 64
2, 16440, Note_on_c, 0, 67, 100
2, 16536, Note_off_c, 0, 67, 64
2, 16560, Note_on_c, 0, 77, 100
2, 16752, Note_off_c, 0, 77, 64
2, 16800, Note_on_c, 0, 77, 100
2, 16824, Note_off_c, 0, 77, 64
2, 16830, Note_on_c, 0, 76, 100
2, 16854, Note_off_c, 0, 76, 64
2, 16860, Note_on_c, 0, 77, 100
2, 16884, Note_off_c, 0, 77, 64
2, 16890, Note_on_c, 0, 76, 100
2, 17376, Note_off_c, 0, 76, 64
2, 17400, Note_on_c, 0, 79, 100
2, 17496, Note_off_c, 0, 79, 64
2, 17520, Note_on_c, 0, 77, 100
2, 17616, Note_off_c, 0, 77, 64
2, 17640, Note_on_c, 0, 76, 100
2, 17736, Note_off_c, 0, 76, 64
2, 17760, Note_on_c, 0, 74, 100
2, 17856, Note_off_c, 0, 74, 64
2, 17880, Note_on_c, 0, 72, 100
2, 17976, Note_off_c, 0, 72, 64
2, 18000, Note_on_c, 0, 82, 100
2, 18192, Note_off_c, 0, 82, 64
2, 18240, Note_on_c, 0, 81, 100
2, 18336, Note_off_c, 0, 81, 64
2, 18360, Note_on_c, 0, 79, 100
2, 18456, Note_off_c, 0, 79, 64
2, 18480, Note_on_c, 0, 81, 100
2, 18576, Note_off_c, 0, 81, 64
2, 18600, Note_on_c, 0, 77, 100
2, 18696, Note_off_c, 0, 77, 64
2, 18720, Note_on_c, 0, 74, 100
2, 18912, Note_off_c, 0, 74, 64
2, 18960, Note_on_c, 0, 79, 100
2, 18960, Note_on_c, 0, 70, 100
2, 19152, Note_off_c, 0, 70, 64
2, 19152, Note_off_c, 0, 79, 64
2, 19200, Note_on_c, 0, 76, 100
2, 19200, Note_on_c, 0, 67, 100
2, 19392, Note_off_c, 0, 67, 64
2, 19392, Note_off_c, 0, 76, 64
2, 19440, Note_on_c, 0, 77, 100
2, 19440, Note_on_c, 0, 69, 100
2, 20016, Note_off_c, 0, 69, 64
2, 20016, Note_off_c, 0, 77, 64
2, 20160, Note_on_c, 0, 69, 100
2, 20352, Note_off_c, 0, 69, 64
2, 20400, Note_on_c, 0, 72, 100
2, 20424, Note_off_c, 0, 72, 64
2, 20430, Note_on_c, 0, 71, 100
2, 20454, Note_off_c, 0, 71, 64
2, 20460, Note_on_c, 0, 72, 100
2, 20484, Note_off_c, 0, 72, 64
2, 20490, Note_on_c, 0, 71, 100
2, 20616, Note_off_c, 0, 71, 64
2, 20640, Note_on_c, 0, 72, 100
2, 20832, Note_off_c, 0, 72, 64
2, 20880, Note_on_c, 0, 71, 100
2, 21072, Note_off_c, 0, 71, 64
2, 21120, Note_on_c, 0, 79, 100
2, 21792, Note_off_c, 0, 79, 64
2, 21840, Note_on_c, 0, 77, 100
2, 21936, Note_off_c, 0, 77, 64
2, 21960, Note_on_c, 0, 76, 100
2, 22056, Note_off_c, 0, 76, 64
2, 22080, Note_on_c, 0, 77, 100
2, 22176, Note_off_c, 0, 77, 64
2, 22200, Note_on_c, 0, 74, 100
2, 22296, Note_off_c, 0, 74, 64
2, 22320, Note_on_c, 0, 76, 100
2, 22512, Note_off_c, 0, 76, 64
2, 22560, Note_on_c, 0, 74, 100
2, 22656, Note_off_c, 0, 74, 64
2, 22680, Note_on_c, 0, 73, 100
2, 22776, Note_off_c, 0, 73, 64
2, 22800, Note_on_c, 0, 71, 100
2, 22896, Note_off_c, 0, 71, 64
2, 22920, Note_on_c, 0, 69, 100
2, 23016, Note_off_c, 0, 69, 64
2, 23040, Note_on_c, 0, 77, 100
2, 23232, Note_off_c, 0, 77, 64
2, 23280, Note_on_c, 0, 76, 100
2, 23472, Note_off_c, 0, 76, 64
2, 23520, Note_on_c, 0, 74, 100
2, 23712, Note_off_c, 0, 74, 64
2, 23760, Note_on_c, 0, 74, 100
2, 23784, Note_off_c, 0, 74, 64
2, 23790, Note_on_c, 0, 73, 100
2, 23814, Note_off_c, 0, 73, 64
2, 23820, Note_on_c, 0, 74, 100
2, 23844, Note_off_c, 0, 74, 64
2, 23850, Note_on_c, 0, 73, 100
2, 23976, Note_off_c, 0, 73, 64
2, 24000, Note_on_c, 0, 74, 100
2, 24384, Note_off_c, 0, 74, 64
2, 24480, Note_on_c, 0, 69, 100
2, 24672, Note_off_c, 0, 69, 64
2, 24720, Note_on_c, 0, 70, 100
2, 24816, Note_off_c, 0, 70, 64
2, 24840, Note_on_c, 0, 69, 100
2, 24936, Note_off_c, 0, 69, 64
2, 24960, Note_on_c, 0, 67, 100
2, 25056, Note_off_c, 0, 67, 64
2, 25080, Note_on_c, 0, 70, 100
2, 25176, Note_off_c, 0, 70, 64
2, 25200, Note_on_c, 0, 69, 100
2, 25392, Note_off_c, 0, 69, 64
2, 25440, Note_on_c, 0, 67, 100
2, 25536, Note_off_c, 0, 67, 64
2, 25560, Note_on_c, 0, 65, 100
2, 25656, Note_off_c, 0, 65, 64
2, 25680, Note_on_c, 0, 64, 100
2, 25776, Note_off_c, 0, 64, 64
2, 25800, Note_on_c, 0, 62, 100
2, 25896, Note_off_c, 0, 62, 64
2, 25920, Note_on_c, 0, 70, 100
2, 26112, Note_off_c, 0, 70, 64
2, 26160, Note_on_c, 0, 69, 100
2, 26352, Note_off_c, 0, 69, 64
2, 26400, Note_on_c, 0, 67, 100
2, 26592, Note_off_c, 0, 67, 64
2, 26640, Note_on_c, 0, 75, 100
2, 26832, Note_off_c, 0, 75, 64
2, 26880, Note_on_c, 0, 74, 100
2, 26976, Note_off_c, 0, 74, 64
2, 27000, Note_on_c, 0, 73, 100
2, 27096, Note_off_c, 0, 73, 64
2, 27120, Note_on_c, 0, 74, 100
2, 27456, Note_off_c, 0, 74, 64
2, 27480, Note_on_c, 0, 76, 100
2, 27576, Note_off_c, 0, 76, 64
2, 27600, Note_on_c, 0, 76, 100
2, 27600, Note_on_c, 0, 73, 100
2, 27888, Note_off_c, 0, 76, 64
2, 27960, Note_on_c, 0, 74, 100
2, 28056, Note_off_c, 0, 74, 64
2, 28080, Note_on_c, 0, 74, 100
2, 28320, Note_off_c, 0, 73, 64
2, 28656, Note_off_c, 0, 74, 64
2, 28800, Note_on_c, 0, 76, 100
2, 28800, Note_on_c, 0, 73, 100
2, 28992, Note_off_c, 0, 76, 64
2, 29040, Note_on_c, 0, 77, 100
2, 29136, Note_off_c, 0, 77, 64
2, 29160, Note_on_c, 0, 76, 100
2, 29256, Note_off_c, 0, 76, 64
2, 29280, Note_on_c, 0, 74, 100
2, 29376, Note_off_c, 0, 74, 64
2, 29376, Note_off_c, 0, 73, 64
2, 29400, Note_on_c, 0, 76, 100
2, 29496, Note_off_c, 0, 76, 64
2, 29520, Note_on_c, 0, 77, 100
2, 29712, Note_off_c, 0, 77, 64
2, 29760, Note_on_c, 0, 70, 100
2, 30432, Note_off_c, 0, 70, 64
2, 30480, Note_on_c, 0, 69, 100
2, 30576, Note_off_c, 0, 69, 64
2, 30600, Note_on_c, 0, 67, 100
2, 30696, Note_off_c, 0, 67, 64
2, 30720, Note_on_c, 0, 69, 100
2, 30816, Note_off_c, 0, 69, 64
2, 30840, Note_on_c, 0, 65, 100
2, 30936, Note_off_c, 0, 65, 64
2, 30960, Note_on_c, 0, 67, 100
2, 31152, Note_off_c, 0, 67, 64
2, 31200, Note_on_c, 0, 60, 100
2, 31392, Note_off_c, 0, 60, 64
2, 31440, Note_on_c, 0, 72, 100
2, 31872, Note_off_c, 0, 72, 64
2, 31920, Note_on_c, 0, 70, 100
2, 32016, Note_off_c, 0, 70, 64
2, 32040, Note_on_c, 0, 69, 100
2, 32136, Note_off_c, 0, 69, 64
2, 32160, Note_on_c, 0, 67, 100
2, 32256, Note_off_c, 0, 67, 64
2, 32280, Note_on_c, 0, 65, 100
2, 32376, Note_off_c, 0, 65, 64
2, 32400, Note_on_c, 0, 75, 100
2, 32592, Note_off_c, 0, 75, 64
2, 32640, Note_on_c, 0, 75, 100
2, 32664, Note_off_c, 0, 75, 64
2, 32670, Note_on_c, 0, 74, 100
2, 32694, Note_off_c, 0, 74, 64
2, 32700, Note_on_c, 0, 75, 100
2, 32724, Note_off_c, 0, 75, 64
2, 32730, Note_on_c, 0, 74, 100
2, 33312, Note_off_c, 0, 74, 64
2, 33360, Note_on_c, 0, 72, 100
2, 33456, Note_off_c, 0, 72, 64
2, 33480, Note_on_c, 0, 71, 100
2, 33576, Note_off_c, 0, 71, 64
2, 33600, Note_on_c, 0, 69, 100
2, 33696, Note_off_c, 0, 69, 64
2, 33720, Note_on_c, 0, 67, 100
2, 33816, Note_off_c, 0, 67, 64
2, 33840, Note_on_c, 0, 77, 100
2, 34032, Note_off_c, 0, 77, 64
2, 34080, Note_on_c, 0, 77, 100
2, 34104, Note_off_c, 0, 77, 64
2, 34110, Note_on_c, 0, 76, 100
2, 34134, Note_off_c, 0, 76, 64
2, 34140, Note_on_c, 0, 77, 100
2, 34164, Note_off_c, 0, 77, 64
2, 34170, Note_on_c, 0, 76, 100
2, 34656, Note_off_c, 0, 76, 64
2, 34680, Note_on_c, 0, 79, 100
2, 34776, Note_off_c, 0, 79, 64
2, 34800, Note_on_c, 0, 77, 100
2, 34896, Note_off_c, 0, 77, 64
2, 34920, Note_on_c, 0, 76, 100
2, 35016, Note_off_c, 0, 76, 64
2, 35040, Note_on_c, 0, 74, 100
2, 35136, Note_off_c, 0, 74, 64
2, 35160, Note_on_c, 0, 72, 100
2, 35256, Note_off_c, 0, 72, 64
2, 35280, Note_on_c, 0, 82, 100
2, 35472, Note_off_c, 0, 82, 64
2, 35520, Note_on_c, 0, 81, 100
2, 35616, Note_off_c, 0, 81, 64
2, 35640, Note_on_c, 0, 79, 100
2, 35736, Note_off_c, 0, 79, 64
2, 35760, Note_on_c, 0, 81, 100
2, 35856, Note_off_c, 0, 81, 64
2, 35880, Note_on_c, 0, 77, 100
2, 35976, Note_off_c, 0, 77, 64
2, 36000, Note_on_c, 0, 74, 100
2, 36192, Note_off_c, 0, 74, 64
2, 36240, Note_on_c, 0, 79, 100
2, 36240, Note_on_c, 0, 70, 100
2, 36432, Note_off_c, 0, 70, 64
2, 36432, Note_off_c, 0, 79, 64
2, 36480, Note_on_c, 0, 76, 100
2, 36480, Note_on_c, 0, 67, 100
2, 36672, Note_off_c, 0, 67, 64
2, 36672, Note_off_c, 0, 76, 64
2, 36720, Note_on_c, 0, 77, 100
2, 36720, Note_on_c, 0, 69, 100
2, 37296, Note_off_c, 0, 69, 64
2, 37296, Note_off_c, 0, 77, 64
2, 37440, Note_on_c, 0, 69, 100
2, 37632, Note_off_c, 0, 69, 64
2, 37680, Note_on_c, 0, 72, 100
2, 37704, Note_off_c, 0, 72, 64
2, 37710, Note_on_c, 0, 71, 100
2, 37734, Note_off_c, 0, 71, 64
2, 37740, Note_on_c, 0, 72, 100
2, 37764, Note_off_c, 0, 72, 64
2, 37770, Note_on_c, 0, 71, 100
2, 37896, Note_off_c, 0, 71, 64
2, 37920, Note_on_c, 0, 72, 100
2, 38112, Note_off_c, 0, 72, 64
2, 38160, Note_on_c, 0, 71, 100
2, 38352, Note_off_c, 0, 71, 64
2, 38400, Note_on_c, 0, 79, 100
2, 39072, Note_off_c, 0, 79, 64
2, 39120, Note_on_c, 0, 77, 100
2, 39216, Note_off_c, 0, 77, 64
2, 39240, Note_on_c, 0, 76, 100
2, 39336, Note_off_c, 0, 76, 64
2, 39360, Note_on_c, 0, 77, 100
2, 39456, Note_off_c, 0, 77, 64
2, 39480, Note_on_c, 0, 74, 100
2, 39576, Note_off_c, 0, 74, 64
2, 39600, Note_on_c, 0, 76, 100
2, 39792, Note_off_c, 0, 76, 64
2, 39840, Note_on_c, 0, 74, 100
2, 39936, Note_off_c, 0, 74, 64
2, 39960, Note_on_c, 0, 73, 100
2, 40056, Note_off_c, 0, 73, 64
2, 40080, Note_on_c, 0, 71, 100
2, 40176, Note_off_c, 0, 71, 64
2, 40200, Note_on_c, 0, 69, 100
2, 40296, Note_off_c, 0, 69, 64
2, 40320, Note_on_c, 0, 77, 100
2, 40512, Note_off_c, 0, 77, 64
2, 40560, Note_on_c, 0, 76, 100
2, 40752, Note_off_c, 0, 76, 64
2, 40800, Note_on_c, 0, 74, 100
2, 40992, Note_off_c, 0, 74, 64
2, 41040, Note_on_c, 0, 74, 100
2, 41064, Note_off_c, 0, 74, 64
2, 41070, Note_on_c, 0, 73, 100
2, 41094, Note_off_c, 0, 73, 64
2, 41100, Note_on_c, 0, 74, 100
2, 41124, Note_off_c, 0, 74, 64
2, 41130, Note_on_c, 0, 73, 100
2, 41256, Note_off_c, 0, 73, 64
2, 41280, Note_on_c, 0, 74, 100
2, 41664, Note_off_c, 0, 74, 64
2, 41760, Note_on_c, 0, 69, 100
2, 41952, Note_off_c, 0, 69, 64
2, 42000, Note_on_c, 0, 70, 100
2, 42096, Note_off_c, 0, 70, 64
2, 42120, Note_on_c, 0, 69, 100
2, 42216, Note_off_c, 0, 69, 64
2, 42240, Note_on_c, 0, 67, 100
2, 42336, Note_off_c, 0, 67, 64
2, 42360, Note_on_c, 0, 70, 100
2, 42456, Note_off_c, 0, 70, 64
2, 42480, Note_on_c, 0, 69, 100
2, 42672, Note_off_c, 0, 69, 64
2, 42720, Note_on_c, 0, 67, 100
2, 42816, Note_off_c, 0, 67, 64
2, 42840, Note_on_c, 0, 65, 100
2, 42936, Note_off_c, 0, 65, 64
2, 42960, Note_on_c, 0, 64, 100
2, 43056, Note_off_c, 0, 64, 64
2, 43080, Note_on_c, 0, 62, 100
2, 43176, Note_off_c, 0, 62, 64
2, 43200, Note_on_c, 0, 70, 100
2, 43392, Note_off_c, 0, 70, 64
2, 43440, Note_on_c, 0, 69, 100
2, 43632, Note_off_c, 0, 69, 64
2, 43680, Note_on_c, 0, 67, 100
2, 43872, Note_off_c, 0, 67, 64
2, 43920, Note_on_c, 0, 75, 100
2, 44112, Note_off_c, 0, 75, 64
2, 44160, Note_on_c, 0, 74, 100
2, 44256, Note_off_c, 0, 74, 64
2, 44280, Note_on_c, 0, 73, 100
2, 44376, Note_off_c, 0, 73, 64
2, 44400, Note_on_c, 0, 74, 100
2, 44736, Note_off_c, 0, 74, 64
2, 44760, Note_on_c, 0, 76, 100
2, 44856, Note_off_c, 0, 76, 64
2, 44880, Note_on_c, 0, 76, 100
2, 44880, Note_on_c, 0, 73, 100
2, 45168, Note_off_c, 0, 76, 64
2, 45240, Note_on_c, 0, 74, 100
2, 45336, Note_off_c, 0, 74, 64
2, 45360, Note_on_c, 0, 74, 100
2, 45600, Note_off_c, 0, 73, 64
2, 45936, Note_off_c, 0, 74, 64
2, 45936, End_track
3, 0, Start_track
3, 0, Title_t, "J.S. Bach, Edition Kalmus"
3, 0, Program_c, 1, 0
3, 0, Note_on_c, 1, 50, 100
3, 96, Note_off_c, 1, 50, 64
3, 120, Note_on_c, 1, 57, 100
3, 216, Note_off_c, 1, 57, 64
3, 240, Note_on_c, 1, 52, 100
3, 336, Note_off_c, 1, 52, 64
3, 360, Note_on_c, 1, 57, 100
3, 456, Note_off_c, 1, 57, 64
3, 480, Note_on_c, 1, 53, 100
3, 576, Note_off_c, 1, 53, 64
3, 600, Note_on_c, 1, 57, 100
3, 696, Note_off_c, 1, 57, 64
3, 720, Note_on_c, 1, 55, 100
3, 816, Note_off_c, 1, 55, 64
3, 840, Note_on_c, 1, 57, 100
3, 936, Note_off_c, 1, 57, 64
3, 960, Note_on_c, 1, 53, 100
3, 1056, Note_off_c, 1, 53, 64
3, 1080, Note_on_c, 1, 57, 100
3, 1176, Note_off_c, 1, 57, 64
3, 1200, Note_on_c, 1, 52, 100
3, 1296, Note_off_c, 1, 52, 64
3, 1320, Note_on_c, 1, 57, 100
3, 1416, Note_off_c, 1, 57, 64
3, 1440, Note_on_c, 1, 53, 100
3, 1536, Note_off_c, 1, 53, 64
3, 1560, Note_on_c, 1, 57, 100
3, 1656, Note_off_c, 1, 57, 64
3, 1680, Note_on_c, 1, 55, 100
3, 1776, Note_off_c, 1, 55, 64
3, 1800, Note_on_c, 1, 53, 100
3, 1896, Note_off_c, 1, 53, 64
3, 1920, Note_on_c, 1, 52, 100
3, 2016, Note_off_c, 1, 52, 64
3, 2040, Note_on_c, 1, 50, 100
3, 2136, Note_off_c, 1, 50, 64
3, 2160, Note_on_c, 1, 50, 100
3, 2184, Note_off_c, 1, 50, 64
3, 2190, Note_on_c, 1, 49, 100
3, 2214, Note_off_c, 1, 49, 64
3, 2220, Note_on_c, 1, 50, 100
3, 2244, Note_off_c, 1, 50, 64
3, 2250, Note_on_c, 1, 49, 100
3, 2376, Note_off_c, 1, 49, 64
3, 2400, Note_on_c, 1, 50, 100
3, 2784, Note_off_c, 1, 50, 64
3, 2880, Note_on_c, 1, 50, 100
3, 2976, Note_off_c, 1, 50, 64
3, 3000, Note_on_c, 1, 62, 100
3, 3096, Note_off_c, 1, 62, 64
3, 3120, Note_on_c, 1, 52, 100
3, 3216, Note_off_c, 1, 52, 64
3, 3240, Note_on_c, 1, 62, 100
3, 3336, Note_off_c, 1, 62, 64
3, 3360, Note_on_c, 1, 53, 100
3, 3456, Note_off_c, 1, 53, 64
3, 3480, Note_on_c, 1, 62, 100
3, 3576, Note_off_c, 1, 62, 64
3, 3600, Note_on_c, 1, 55, 100
3, 3720, Note_on_c, 1, 62, 100
3, 3816, Note_off_c, 1, 62, 64
3, 3840, Note_on_c, 1, 61, 100
3, 3936, Note_off_c, 1, 61, 64
3, 3960, Note_on_c, 1, 57, 100
3, 3984, Note_off_c, 1, 55, 64
3, 4056, Note_off_c, 1, 57, 64
3, 4080, Note_on_c, 1, 62, 100
3, 4200, Note_on_c, 1, 53, 100
3, 4272, Note_off_c, 1, 62, 64
3, 4296, Note_off_c, 1, 53, 64
3, 4320, Note_on_c, 1, 58, 100
3, 4440, Note_on_c, 1, 61, 100
3, 4536, Note_off_c, 1, 61, 64
3, 4560, Note_on_c, 1, 62, 100
3, 4656, Note_off_c, 1, 62, 64
3, 4680, Note_on_c, 1, 64, 100
3, 4776, Note_off_c, 1, 64, 64
3, 4800, Note_on_c, 1, 65, 100
3, 4896, Note_off_c, 1, 65, 64
3, 4896, Note_off_c, 1, 58, 64
3, 4920, Note_on_c, 1, 67, 100
3, 5016, Note_off_c, 1, 67, 64
3, 5160, Note_on_c, 1, 58, 100
3, 5256, Note_off_c, 1, 58, 64
3, 5280, Note_on_c, 1, 57, 100
3, 5376, Note_off_c, 1, 57, 64
3, 5400, Note_on_c, 1, 55, 100
3, 5496, Note_off_c, 1, 55, 64
3, 5520, Note_on_c, 1, 53, 100
3, 5616, Note_off_c, 1, 53, 64
3, 5640, Note_on_c, 1, 52, 100
3, 5736, Note_off_c, 1, 52, 64
3, 5760, Note_on_c, 1, 50, 100
3, 5856, Note_off_c, 1, 50, 64
3, 5880, Note_on_c, 1, 57, 100
3, 5976, Note_off_c, 1, 57, 64
3, 6000, Note_on_c, 1, 52, 100
3, 6096, Note_off_c, 1, 52, 64
3, 6120, Note_on_c, 1, 57, 100
3, 6216, Note_off_c, 1, 57, 64
3, 6240, Note_on_c, 1, 53, 100
3, 6336, Note_off_c, 1, 53, 64
3, 6360, Note_on_c, 1, 57, 100
3, 6456, Note_off_c, 1, 57, 64
3, 6480, Note_on_c, 1, 55, 100
3, 6576, Note_off_c, 1, 55, 64
3, 6600, Note_on_c, 1, 57, 100
3, 6696, Note_off_c, 1, 57, 64
3, 6720, Note_on_c, 1, 53, 100
3, 6816, Note_off_c, 1, 53, 64
3, 6840, Note_on_c, 1, 57, 100
3, 6936, Note_off_c, 1, 57, 64
3, 6960, Note_on_c, 1, 52, 100
3, 7056, Note_off_c, 1, 52, 64
3, 7080, Note_on_c, 1, 57, 100
3, 7176, Note_off_c, 1, 57, 64
3, 7200, Note_on_c, 1, 53, 100
3, 7296, Note_off_c, 1, 53, 64
3, 7320, Note_on_c, 1, 57, 100
3, 7416, Note_off_c, 1, 57, 64
3, 7440, Note_on_c, 1, 55, 100
3, 7536, Note_off_c, 1, 55, 64
3, 7560, Note_on_c, 1, 53, 100
3, 7656, Note_off_c, 1, 53, 64
3, 7680, Note_on_c, 1, 52, 100
3, 7776, Note_off_c, 1, 52, 64
3, 7800, Note_on_c, 1, 50, 100
3, 7896, Note_off_c, 1, 50, 64
3, 7920, Note_on_c, 1, 50, 100
3, 7944, Note_off_c, 1, 50, 64
3, 7950, Note_on_c, 1, 49, 100
3, 7974, Note_off_c, 1, 49, 64
3, 7980, Note_on_c, 1, 50, 100
3, 8004, Note_off_c, 1, 50, 64
3, 8010, Note_on_c, 1, 49, 100
3, 8136, Note_off_c, 1, 49, 64
3, 8160, Note_on_c, 1, 50, 100
3, 8544, Note_off_c, 1, 50, 64
3, 8640, Note_on_c, 1, 50, 100
3, 8736, Note_off_c, 1, 50, 64
3, 8760, Note_on_c, 1, 62, 100
3, 8856, Note_off_c, 1, 62, 64
3, 8880, Note_on_c, 1, 52, 100
3, 8976, Note_off_c, 1, 52, 64
3, 9000, Note_on_c, 1, 62, 100
3, 9096, Note_off_c, 1, 62, 64
3, 9120, Note_on_c, 1, 53, 100
3, 9216, Note_off_c, 1, 53, 64
3, 9240, Note_on_c, 1, 62, 100
3, 9336, Note_off_c, 1, 62, 64
3, 9360, Note_on_c, 1, 55, 100
3, 9480, Note_on_c, 1, 62, 100
3, 9576, Note_off_c, 1, 62, 64
3, 9600, Note_on_c, 1, 61, 100
3, 9696, Note_off_c, 1, 61, 64
3, 9720, Note_on_c, 1, 57, 100
3, 9744, Note_off_c, 1, 55, 64
3, 9816, Note_off_c, 1, 57, 64
3, 9840, Note_on_c, 1, 62, 100
3, 9960, Note_on_c, 1, 53, 100
3, 10032, Note_off_c, 1, 62, 64
3, 10056, Note_off_c, 1, 53, 64
3, 10080, Note_on_c, 1, 58, 100
3, 10200, Note_on_c, 1, 61, 100
3, 10296, Note_off_c, 1, 61, 64
3, 10320, Note_on_c, 1, 62, 100
3, 10416, Note_off_c, 1, 62, 64
3, 10440, Note_on_c, 1, 64, 100
3, 10536, Note_off_c, 1, 64, 64
3, 10560, Note_on_c, 1, 65, 100
3, 10656, Note_off_c, 1, 65, 64
3, 10656, Note_off_c, 1, 58, 64
3, 10680, Note_on_c, 1, 67, 100
3, 10776, Note_off_c, 1, 67, 64
3, 10920, Note_on_c, 1, 65, 100
3, 11016, Note_off_c, 1, 65, 64
3, 11040, Note_on_c, 1, 64, 100
3, 11136, Note_off_c, 1, 64, 64
3, 11160, Note_on_c, 1, 62, 100
3, 11256, Note_off_c, 1, 62, 64
3, 11280, Note_on_c, 1, 61, 100
3, 11376, Note_off_c, 1, 61, 64
3, 11400, Note_on_c, 1, 59, 100
3, 11496, Note_off_c, 1, 59, 64
3, 11520, Note_on_c, 1, 57, 100
3, 11616, Note_off_c, 1, 57, 64
3, 11640, Note_on_c, 1, 58, 100
3, 11736, Note_off_c, 1, 58, 64
3, 11760, Note_on_c, 1, 57, 100
3, 11856, Note_off_c, 1, 57, 64
3, 11880, Note_on_c, 1, 55, 100
3, 11976, Note_off_c, 1, 55, 64
3, 12000, Note_on_c, 1, 53, 100
3, 12096, Note_off_c, 1, 53, 64
3, 12120, Note_on_c, 1, 52, 100
3, 12216, Note_off_c, 1, 52, 64
3, 12240, Note_on_c, 1, 50, 100
3, 12360, Note_on_c, 1, 52, 100
3, 12456, Note_off_c, 1, 52, 64
3, 12480, Note_on_c, 1, 53, 100
3, 12576, Note_off_c, 1, 53, 64
3, 12600, Note_on_c, 1, 55, 100
3, 12696, Note_off_c, 1, 55, 64
3, 12720, Note_on_c, 1, 57, 100
3, 12816, Note_off_c, 1, 57, 64
3, 12816, Note_off_c, 1, 50, 64
3, 12840, Note_on_c, 1, 58, 100
3, 12936, Note_off_c, 1, 58, 64
3, 12960, Note_on_c, 1, 60, 100
3, 13080, Note_on_c, 1, 52, 100
3, 13176, Note_off_c, 1, 52, 64
3, 13200, Note_on_c, 1, 53, 100
3, 13296, Note_off_c, 1, 53, 64
3, 13320, Note_on_c, 1, 52, 100
3, 13416, Note_off_c, 1, 52, 64
3, 13440, Note_on_c, 1, 53, 100
3, 13536, Note_off_c, 1, 53, 64
3, 13536, Note_off_c, 1, 60, 64
3, 13560, Note_on_c, 1, 50, 100
3, 13656, Note_off_c, 1, 50, 64
3, 13680, Note_on_c, 1, 52, 100
3, 13776, Note_off_c, 1, 52, 64
3, 13800, Note_on_c, 1, 53, 100
3, 13896, Note_off_c, 1, 53, 64
3, 13920, Note_on_c, 1, 52, 100
3, 14016, Note_off_c, 1, 52, 64
3, 14040, Note_on_c, 1, 50, 100
3, 14136, Note_off_c, 1, 50, 64
3, 14160, Note_on_c, 1, 48, 100
3, 14256, Note_off_c, 1, 48, 64
3, 14280, Note_on_c, 1, 46, 100
3, 14376, Note_off_c, 1, 46, 64
3, 14400, Note_on_c, 1, 45, 100
3, 14520, Note_on_c, 1, 46, 100
3, 14616, Note_off_c, 1, 46, 64
3, 14640, Note_on_c, 1, 48, 100
3, 14832, Note_off_c, 1, 48, 64
3, 14880, Note_on_c, 1, 53, 100
3, 14976, Note_off_c, 1, 45, 64
3, 15120, Note_on_c, 1, 46, 100
3, 15216, Note_off_c, 1, 53, 64
3, 15240, Note_on_c, 1, 55, 100
3, 15336, Note_off_c, 1, 55, 64
3, 15360, Note_on_c, 1, 53, 100
3, 15456, Note_off_c, 1, 53, 64
3, 15480, Note_on_c, 1, 51, 100
3, 15576, Note_off_c, 1, 51, 64
3, 15600, Note_on_c, 1, 50, 100
3, 15696, Note_off_c, 1, 50, 64
3, 15696, Note_off_c, 1, 46, 64
3, 15720, Note_on_c, 1, 48, 100
3, 15816, Note_off_c, 1, 48, 64
3, 15840, Note_on_c, 1, 47, 100
3, 15960, Note_on_c, 1, 48, 100
3, 16056, Note_off_c, 1, 48, 64
3, 16080, Note_on_c, 1, 50, 100
3, 16305, Note_off_c, 1, 50, 64
3, 16320, Note_on_c, 1, 55, 100
3, 16416, Note_off_c, 1, 47, 64
3, 16560, Note_on_c, 1, 48, 100
3, 16656, Note_off_c, 1, 55, 64
3, 16680, Note_on_c, 1, 57, 100
3, 16776, Note_off_c, 1, 57, 64
3, 16800, Note_on_c, 1, 55, 100
3, 16896, Note_off_c, 1, 55, 64
3, 16920, Note_on_c, 1, 53, 100
3, 17016, Note_off_c, 1, 53, 64
3, 17040, Note_on_c, 1, 52, 100
3, 17136, Note_off_c, 1, 52, 64
3, 17136, Note_off_c, 1, 48, 64
3, 17160, Note_on_c, 1, 50, 100
3, 17256, Note_off_c, 1, 50, 64
3, 17280, Note_on_c, 1, 48, 100
3, 17376, Note_off_c, 1, 48, 64
3, 17400, Note_on_c, 1, 52, 100
3, 17496, Note_off_c, 1, 52, 64
3, 17520, Note_on_c, 1, 50, 100
3, 17616, Note_off_c, 1, 50, 64
3, 17640, Note_on_c, 1, 48, 100
3, 17736, Note_off_c, 1, 48, 64
3, 17760, Note_on_c, 1, 46, 100
3, 17856, Note_off_c, 1, 46, 64
3, 17880, Note_on_c, 1, 45, 100
3, 17976, Note_off_c, 1, 45, 64
3, 18000, Note_on_c, 1, 43, 100
3, 18096, Note_off_c, 1, 43, 64
3, 18120, Note_on_c, 1, 50, 100
3, 18216, Note_off_c, 1, 50, 64
3, 18240, Note_on_c, 1, 52, 100
3, 18336, Note_off_c, 1, 52, 64
3, 18360, Note_on_c, 1, 48, 100
3, 18456, Note_off_c, 1, 48, 64
3, 18480, Note_on_c, 1, 53, 100
3, 18576, Note_off_c, 1, 53, 64
3, 18600, Note_on_c, 1, 45, 100
3, 18696, Note_off_c, 1, 45, 64
3, 18720, Note_on_c, 1, 46, 100
3, 18816, Note_off_c, 1, 46, 64
3, 18840, Note_on_c, 1, 50, 100
3, 18936, Note_off_c, 1, 50, 64
3, 18960, Note_on_c, 1, 43, 100
3, 19056, Note_off_c, 1, 43, 64
3, 19080, Note_on_c, 1, 46, 100
3, 19176, Note_off_c, 1, 46, 64
3, 19200, Note_on_c, 1, 48, 100
3, 19296, Note_off_c, 1, 48, 64
3, 19320, Note_on_c, 1, 36, 100
3, 19416, Note_off_c, 1, 36, 64
3, 19440, Note_on_c, 1, 41, 100
3, 19536, Note_off_c, 1, 41, 64
3, 19560, Note_on_c, 1, 45, 100
3, 19656, Note_off_c, 1, 45, 64
3, 19680, Note_on_c, 1, 46, 100
3, 19776, Note_off_c, 1, 46, 64
3, 19800, Note_on_c, 1, 48, 100
3, 19896, Note_off_c, 1, 48, 64
3, 19920, Note_on_c, 1, 50, 100
3, 20016, Note_off_c, 1, 50, 64
3, 20040, Note_on_c, 1, 52, 100
3, 20136, Note_off_c, 1, 52, 64
3, 20160, Note_on_c, 1, 53, 100
3, 20256, Note_off_c, 1, 53, 64
3, 20280, Note_on_c, 1, 57, 100
3, 20376, Note_off_c, 1, 57, 64
3, 20400, Note_on_c, 1, 55, 100
3, 20496, Note_off_c, 1, 55, 64
3, 20520, Note_on_c, 1, 53, 100
3, 20616, Note_off_c, 1, 53, 64
3, 20640, Note_on_c, 1, 52, 100
3, 20736, Note_off_c, 1, 52, 64
3, 20760, Note_on_c, 1, 50, 100
3, 20856, Note_off_c, 1, 50, 64
3, 20880, Note_on_c, 1, 55, 100
3, 20976, Note_off_c, 1, 55, 64
3, 21000, Note_on_c, 1, 53, 100
3, 21096, Note_off_c, 1, 53, 64
3, 21120, Note_on_c, 1, 52, 100
3, 21216, Note_off_c, 1, 52, 64
3, 21240, Note_on_c, 1, 50, 100
3, 21336, Note_off_c, 1, 50, 64
3, 21360, Note_on_c, 1, 49, 100
3, 21456, Note_off_c, 1, 49, 64
3, 21480, Note_on_c, 1, 47, 100
3, 21576, Note_off_c, 1, 47, 64
3, 21600, Note_on_c, 1, 49, 100
3, 21720, Note_on_c, 1, 52, 100
3, 21792, Note_off_c, 1, 49, 64
3, 21816, Note_off_c, 1, 52, 64
3, 21840, Note_on_c, 1, 50, 100
3, 21840, Note_on_c, 1, 57, 100
3, 22032, Note_off_c, 1, 57, 64
3, 22032, Note_off_c, 1, 50, 64
3, 22080, Note_on_c, 1, 55, 100
3, 22080, Note_on_c, 1, 46, 100
3, 22272, Note_off_c, 1, 46, 64
3, 22272, Note_off_c, 1, 55, 64
3, 22320, Note_on_c, 1, 45, 100
3, 22416, Note_off_c, 1, 45, 64
3, 22440, Note_on_c, 1, 57, 100
3, 22536, Note_off_c, 1, 57, 64
3, 22560, Note_on_c, 1, 47, 100
3, 22656, Note_off_c, 1, 47, 64
3, 22680, Note_on_c, 1, 57, 100
3, 22776, Note_off_c, 1, 57, 64
3, 22800, Note_on_c, 1, 49, 100
3, 22896, Note_off_c, 1, 49, 64
3, 22920, Note_on_c, 1, 57, 100
3, 23016, Note_off_c, 1, 57, 64
3, 23040, Note_on_c, 1, 50, 100
3, 23136, Note_off_c, 1, 50, 64
3, 23160, Note_on_c, 1, 57, 100
3, 23256, Note_off_c, 1, 57, 64
3, 23280, Note_on_c, 1, 52, 100
3, 23376, Note_off_c, 1, 52, 64
3, 23400, Note_on_c, 1, 57, 100
3, 23496, Note_off_c, 1, 57, 64
3, 23520, Note_on_c, 1, 53, 100
3, 23616, Note_off_c, 1, 53, 64
3, 23640, Note_on_c, 1, 57, 100
3, 23736, Note_off_c, 1, 57, 64
3, 23760, Note_on_c, 1, 55, 100
3, 23856, Note_off_c, 1, 55, 64
3, 23880, Note_on_c, 1, 57, 100
3, 23976, Note_off_c, 1, 57, 64
3, 24000, Note_on_c, 1, 53, 100
3, 24096, Note_off_c, 1, 53, 64
3, 24120, Note_on_c, 1, 57, 100
3, 24216, Note_off_c, 1, 57, 64
3, 24240, Note_on_c, 1, 52, 100
3, 24336, Note_off_c, 1, 52, 64
3, 24360, Note_on_c, 1, 57, 100
3, 24456, Note_off_c, 1, 57, 64
3, 24480, Note_on_c, 1, 53, 100
3, 24576, Note_off_c, 1, 53, 64
3, 24600, Note_on_c, 1, 57, 100
3, 24696, Note_off_c, 1, 57, 64
3, 24720, Note_on_c, 1, 55, 100
3, 24816, Note_off_c, 1, 55, 64
3, 24840, Note_on_c, 1, 53, 100
3, 24936, Note_off_c, 1, 53, 64
3, 24960, Note_on_c, 1, 52, 100
3, 25056, Note_off_c, 1, 52, 64
3, 25080, Note_on_c, 1, 50, 100
3, 25176, Note_off_c, 1, 50, 64
3, 25200, Note_on_c, 1, 50, 100
3, 25224, Note_off_c, 1, 50, 64
3, 25230, Note_on_c, 1, 49, 100
3, 25254, Note_off_c, 1, 49, 64
3, 25260, Note_on_c, 1, 50, 100
3, 25284, Note_off_c, 1, 50, 64
3, 25290, Note_on_c, 1, 49, 100
3, 25416, Note_off_c, 1, 49, 64
3, 25440, Note_on_c, 1, 50, 100
3, 25824, Note_off_c, 1, 50, 64
3, 25920, Note_on_c, 1, 55, 100
3, 26040, Note_on_c, 1, 62, 100
3, 26136, Note_off_c, 1, 62, 64
3, 26160, Note_on_c, 1, 63, 100
3, 26256, Note_off_c, 1, 63, 64
3, 26280, Note_on_c, 1, 62, 100
3, 26376, Note_off_c, 1, 62, 64
3, 26400, Note_on_c, 1, 61, 100
3, 26496, Note_off_c, 1, 61, 64
3, 26496, Note_off_c, 1, 55, 64
3, 26520, Note_on_c, 1, 62, 100
3, 26616, Note_off_c, 1, 62, 64
3, 26640, Note_on_c, 1, 55, 100
3, 26736, Note_off_c, 1, 55, 64
3, 26760, Note_on_c, 1, 58, 100
3, 26856, Note_off_c, 1, 58, 64
3, 26880, Note_on_c, 1, 57, 100
3, 26976, Note_off_c, 1, 57, 64
3, 27000, Note_on_c, 1, 55, 100
3, 27096, Note_off_c, 1, 55, 64
3, 27120, Note_on_c, 1, 53, 100
3, 27216, Note_off_c, 1, 53, 64
3, 27240, Note_on_c, 1, 52, 100
3, 27336, Note_off_c, 1, 52, 64
3, 27360, Note_on_c, 1, 50, 100
3, 27456, Note_off_c, 1, 50, 64
3, 27480, Note_on_c, 1, 55, 100
3, 27576, Note_off_c, 1, 55, 64
3, 27600, Note_on_c, 1, 57, 100
3, 27792, Note_off_c, 1, 57, 64
3, 27840, Note_on_c, 1, 45, 100
3, 28032, Note_off_c, 1, 45, 64
3, 28080, Note_on_c, 1, 50, 100
3, 28176, Note_off_c, 1, 50, 64
3, 28200, Note_on_c, 1, 65, 100
3, 28296, Note_off_c, 1, 65, 64
3, 28320, Note_on_c, 1, 64, 100
3, 28416, Note_off_c, 1, 64, 64
3, 28440, Note_on_c, 1, 62, 100
3, 28536, Note_off_c, 1, 62, 64
3, 28560, Note_on_c, 1, 61, 100
3, 28656, Note_off_c, 1, 61, 64
3, 28680, Note_on_c, 1, 59, 100
3, 28776, Note_off_c, 1, 59, 64
3, 28800, Note_on_c, 1, 57, 100
3, 28896, Note_off_c, 1, 57, 64
3, 28920, Note_on_c, 1, 58, 100
3, 29016, Note_off_c, 1, 58, 64
3, 29040, Note_on_c, 1, 57, 100
3, 29136, Note_off_c, 1, 57, 64
3, 29160, Note_on_c, 1, 55, 100
3, 29256, Note_off_c, 1, 55, 64
3, 29280, Note_on_c, 1, 53, 100
3, 29376, Note_off_c, 1, 53, 64
3, 29400, Note_on_c, 1, 52, 100
3, 29496, Note_off_c, 1, 52, 64
3, 29520, Note_on_c, 1, 50, 100
3, 29640, Note_on_c, 1, 52, 100
3, 29736, Note_off_c, 1, 52, 64
3, 29760, Note_on_c, 1, 53, 100
3, 29856, Note_off_c, 1, 53, 64
3, 29880, Note_on_c, 1, 55, 100
3, 29976, Note_off_c, 1, 55, 64
3, 30000, Note_on_c, 1, 57, 100
3, 30096, Note_off_c, 1, 57, 64
3, 30096, Note_off_c, 1, 50, 64
3, 30120, Note_on_c, 1, 58, 100
3, 30216, Note_off_c, 1, 58, 64
3, 30240, Note_on_c, 1, 60, 100
3, 30360, Note_on_c, 1, 52, 100
3, 30456, Note_off_c, 1, 52, 64
3, 30480, Note_on_c, 1, 53, 100
3, 30576, Note_off_c, 1, 53, 64
3, 30600, Note_on_c, 1, 52, 100
3, 30696, Note_off_c, 1, 52, 64
3, 30720, Note_on_c, 1, 53, 100
3, 30816, Note_off_c, 1, 53, 64
3, 30816, Note_off_c, 1, 60, 64
3, 30840, Note_on_c, 1, 50, 100
3, 30936, Note_off_c, 1, 50, 64
3, 30960, Note_on_c, 1, 52, 100
3, 31056, Note_off_c, 1, 52, 64
3, 31080, Note_on_c, 1, 53, 100
3, 31176, Note_off_c, 1, 53, 64
3, 31200, Note_on_c, 1, 52, 100
3, 31296, Note_off_c, 1, 52, 64
3, 31320, Note_on_c, 1, 50, 100
3, 31416, Note_off_c, 1, 50, 64
3, 31440, Note_on_c, 1, 48, 100
3, 31536, Note_off_c, 1, 48, 64
3, 31560, Note_on_c, 1, 46, 100
3, 31656, Note_off_c, 1, 46, 64
3, 31680, Note_on_c, 1, 45, 100
3, 31800, Note_on_c, 1, 46, 100
3, 31896, Note_off_c, 1, 46, 64
3, 31920, Note_on_c, 1, 48, 100
3, 32112, Note_off_c, 1, 48, 64
3, 32160, Note_on_c, 1, 53, 100
3, 32256, Note_off_c, 1, 45, 64
3, 32400, Note_on_c, 1, 46, 100
3, 32496, Note_off_c, 1, 53, 64
3, 32520, Note_on_c, 1, 55, 100
3, 32616, Note_off_c, 1, 55, 64
3, 32640, Note_on_c, 1, 53, 100
3, 32736, Note_off_c, 1, 53, 64
3, 32760, Note_on_c, 1, 51, 100
3, 32856, Note_off_c, 1, 51, 64
3, 32880, Note_on_c, 1, 50, 100
3, 32976, Note_off_c, 1, 50, 64
3, 32976, Note_off_c, 1, 46, 64
3, 33000, Note_on_c, 1, 48, 100
3, 33096, Note_off_c, 1, 48, 64
3, 33120, Note_on_c, 1, 47, 100
3, 33240, Note_on_c, 1, 48, 100
3, 33336, Note_off_c, 1, 48, 64
3, 33360, Note_on_c, 1, 50, 100
3, 33585, Note_off_c, 1, 50, 64
3, 33600, Note_on_c, 1, 55, 100
3, 33696, Note_off_c, 1, 47, 64
3, 33840, Note_on_c, 1, 48, 100
3, 33936, Note_off_c, 1, 55, 64
3, 33960, Note_on_c, 1, 57, 100
3, 34056, Note_off_c, 1, 57, 64
3, 34080, Note_on_c, 1, 55, 100
3, 34176, Note_off_c, 1, 55, 64
3, 34200, Note_on_c, 1, 53, 100
3, 34296, Note_off_c, 1, 53, 64
3, 34320, Note_on_c, 1, 52, 100
3, 34416, Note_off_c, 1, 52, 64
3, 34416, Note_off_c, 1, 48, 64
3, 34440, Note_on_c, 1, 50, 100
3, 34536, Note_off_c, 1, 50, 64
3, 34560, Note_on_c, 1, 48, 100
3, 34656, Note_off_c, 1, 48, 64
3, 34680, Note_on_c, 1, 52, 100
3, 34776, Note_off_c, 1, 52, 64
3, 34800, Note_on_c, 1, 50, 100
3, 34896, Note_off_c, 1, 50, 64
3, 34920, Note_on_c, 1, 48, 100
3, 35016, Note_off_c, 1, 48, 64
3, 35040, Note_on_c, 1, 46, 100
3, 35136, Note_off_c, 1, 46, 64
3, 35160, Note_on_c, 1, 45, 100
3, 35256, Note_off_c, 1, 45, 64
3, 35280, Note_on_c, 1, 43, 100
3, 35376, Note_off_c, 1, 43, 64
3, 35400, Note_on_c, 1, 50, 100
3, 35496, Note_off_c, 1, 50, 64
3, 35520, Note_on_c, 1, 52, 100
3, 35616, Note_off_c, 1, 52, 64
3, 35640, Note_on_c, 1, 48, 100
3, 35736, Note_off_c, 1, 48, 64
3, 35760, Note_on_c, 1, 53, 100
3, 35856, Note_off_c, 1, 53, 64
3, 35880, Note_on_c, 1, 45, 100
3, 35976, Note_off_c, 1, 45, 64
3, 36000, Note_on_c, 1, 46, 100
3, 36096, Note_off_c, 1, 46, 64
3, 36120, Note_on_c, 1, 50, 100
3, 36216, Note_off_c, 1, 50, 64
3, 36240, Note_on_c, 1, 43, 100
3, 36336, Note_off_c, 1, 43, 64
3, 36360, Note_on_c, 1, 46, 100
3, 36456, Note_off_c, 1, 46, 64
3, 36480, Note_on_c, 1, 48, 100
3, 36576, Note_off_c, 1, 48, 64
3, 36600, Note_on_c, 1, 36, 100
3, 36696, Note_off_c, 1, 36, 64
3, 36720, Note_on_c, 1, 41, 100
3, 36816, Note_off_c, 1, 41, 64
3, 36840, Note_on_c, 1, 45, 100
3, 36936, Note_off_c, 1, 45, 64
3, 36960, Note_on_c, 1, 46, 100
3, 37056, Note_off_c, 1, 46, 64
3, 37080, Note_on_c, 1, 48, 100
3, 37176, Note_off_c, 1, 48, 64
3, 37200, Note_on_c, 1, 50, 100
3, 37296, Note_off_c, 1, 50, 64
3, 37320, Note_on_c, 1, 52, 100
3, 37416, Note_off_c, 1, 52, 64
3, 37440, Note_on_c, 1, 53, 100
3, 37536, Note_off_c, 1, 53, 64
3, 37560, Note_on_c, 1, 57, 100
3, 37656, Note_off_c, 1, 57, 64
3, 37680, Note_on_c, 1, 55, 100
3, 37776, Note_off_c, 1, 55, 64
3, 37800, Note_on_c, 1, 53, 100
3, 37896, Note_off_c, 1, 53, 64
3, 37920, Note_on_c, 1, 52, 100
3, 38016, Note_off_c, 1, 52, 64
3, 38040, Note_on_c, 1, 50, 100
3, 38136, Note_off_c, 1, 50, 64
3, 38160, Note_on_c, 1, 55, 100
3, 38256, Note_off_c, 1, 55, 64
3, 38280, Note_on_c, 1, 53, 100
3, 38376, Note_off_c, 1, 53, 64
3, 38400, Note_on_c, 1, 52, 100
3, 38496, Note_off_c, 1, 52, 64
3, 38520, Note_on_c, 1, 50, 100
3, 38616, Note_off_c, 1, 50, 64
3, 38640, Note_on_c, 1, 49, 100
3, 38736, Note_off_c, 1, 49, 64
3, 38760, Note_on_c, 1, 47, 100
3, 38856, Note_off_c, 1, 47, 64
3, 38880, Note_on_c, 1, 49, 100
3, 39000, Note_on_c, 1, 52, 100
3, 39072, Note_off_c, 1, 49, 64
3, 39096, Note_off_c, 1, 52, 64
3, 39120, Note_on_c, 1, 50, 100
3, 39120, Note_on_c, 1, 57, 100
3, 39312, Note_off_c, 1, 57, 64
3, 39312, Note_off_c, 1, 50, 64
3, 39360, Note_on_c, 1, 55, 100
3, 39360, Note_on_c, 1, 46, 100
3, 39552, Note_off_c, 1, 46, 64
3, 39552, Note_off_c, 1, 55, 64
3, 39600, Note_on_c, 1, 45, 100
3, 39696, Note_off_c, 1, 45, 64
3, 39720, Note_on_c, 1, 57, 100
3, 39816, Note_off_c, 1, 57, 64
3, 39840, Note_on_c, 1, 47, 100
3, 39936, Note_off_c, 1, 47, 64
3, 39960, Note_on_c, 1, 57, 100
3, 40056, Note_off_c, 1, 57, 64
3, 40080, Note_on_c, 1, 49, 100
3, 40176, Note_off_c, 1, 49, 64
3, 40200, Note_on_c, 1, 57, 100
3, 40296, Note_off_c, 1, 57, 64
3, 40320, Note_on_c, 1, 50, 100
3, 40416, Note_off_c, 1, 50, 64
3, 40440, Note_on_c, 1, 57, 100
3, 40536, Note_off_c, 1, 57, 64
3, 40560, Note_on_c, 1, 52, 100
3, 40656, Note_off_c, 1, 52, 64
3, 40680, Note_on_c, 1, 57, 100
3, 40776, Note_off_c, 1, 57, 64
3, 40800, Note_on_c, 1, 53, 100
3, 40896, Note_off_c, 1, 53, 64
3, 40920, Note_on_c, 1, 57, 100
3, 41016, Note_off_c, 1, 57, 64
3, 41040, Note_on_c, 1, 55, 100
3, 41136, Note_off_c, 1, 55, 64
3, 41160, Note_on_c, 1, 57, 100
3, 41256, Note_off_c, 1, 57, 64
3, 41280, Note_on_c, 1, 53, 100
3, 41376, Note_off_c, 1, 53, 64
3, 41400, Note_on_c, 1, 57, 100
3, 41496, Note_off_c, 1, 57, 64
3, 41520, Note_on_c, 1, 52, 100
3, 41616, Note_off_c, 1, 52, 64
3, 41640, Note_on_c, 1, 57, 100
3, 41736, Note_off_c, 1, 57, 64
3, 41760, Note_on_c, 1, 53, 100
3, 41856, Note_off_c, 1, 53, 64
3, 41880, Note_on_c, 1, 57, 100
3, 41976, Note_off_c, 1, 57, 64
3, 42000, Note_on_c, 1, 55, 100
3, 42096, Note_off_c, 1, 55, 64
3, 42120, Note_on_c, 1, 53, 100
3, 42216, Note_off_c, 1, 53, 64
3, 42240, Note_on_c, 1, 52, 100
3, 42336, Note_off_c, 1, 52, 64
3, 42360, Note_on_c, 1, 50, 100
3, 42456, Note_off_c, 1, 50, 64
3, 42480, Note_on_c, 1, 50, 100
3, 42504, Note_off_c, 1, 50, 64
3, 42510, Note_on_c, 1, 49, 100
3, 42534, Note_off_c, 1, 49, 64
3, 42540, Note_on_c, 1, 50, 100
3, 42564, Note_off_c, 1, 50, 64
3, 42570, Note_on_c, 1, 49, 100
3, 42696, Note_off_c, 1, 49, 64
3, 42720, Note_on_c, 1, 50, 100
3, 43104, Note_off_c, 1, 50, 64
3, 43200, Note_on_c, 1, 55, 100
3, 43320, Note_on_c, 1, 62, 100
3, 43416, Note_off_c, 1, 62, 64
3, 43440, Note_on_c, 1, 63, 100
3, 43536, Note_off_c, 1, 63, 64
3, 43560, Note_on_c, 1, 62, 100
3, 43656, Note_off_c, 1, 62, 64
3, 43680, Note_on_c, 1, 61, 100
3, 43776, Note_off_c, 1, 61, 64
3, 43776, Note_off_c, 1, 55, 64
3, 43800, Note_on_c, 1, 62, 100
3, 43896, Note_off_c, 1, 62, 64
3, 43920, Note_on_c, 1, 55, 100
3, 44016, Note_off_c, 1, 55, 64
3, 44040, Note_on_c, 1, 58, 100
3, 44136, Note_off_c, 1, 58, 64
3, 44160, Note_on_c, 1, 57, 100
3, 44256, Note_off_c, 1, 57, 64
3, 44280, Note_on_c, 1, 55, 100
3, 44376, Note_off_c, 1, 55, 64
3, 44400, Note_on_c, 1, 53, 100
3, 44496, Note_off_c, 1, 53, 64
3, 44520, Note_on_c, 1, 52, 100
3, 44616, Note_off_c, 1, 52, 64
3, 44640, Note_on_c, 1, 50, 100
3, 44736, Note_off_c, 1, 50, 64
3, 44760, Note_on_c, 1, 55, 100
3, 44856, Note_off_c, 1, 55, 64
3, 44880, Note_on_c, 1, 57, 100
3, 45072, Note_off_c, 1, 57, 64
3, 45120, Note_on_c, 1, 45, 100
3, 45312, Note_off_c, 1, 45, 64
3, 45360, Note_on_c, 1, 50, 100
3, 45552, Note_off_c, 1, 50, 64
3, 45600, Note_on_c, 1, 45, 100
3, 45792, Note_off_c, 1, 45, 64
3, 45840, Note_on_c, 1, 38, 100
3, 46032, Note_off_c, 1, 38, 64
3, 46032, End_track
4, 0, Start_track
4, 0, Title_t, "Arr. Gary Bricault, (c) 1997"
4, 0, End_track
0, 0, End_of_file
