0, 0, Header, 1, 4, 240
1, 0, Start_track
1, 0, Time_signature, 3, 1, 48, 8
1, 0, Tempo, 375000
1, 11520, Time_signature, 3, 1, 48, 8
1, 11520, End_track
2, 0, Start_track
2, 0, Title_t, "English Suite 6, 5. Double"
2, 0, Program_c, 0, 0
2, 0, Note_on_c, 0, 69, 127
2, 0, Note_on_c, 0, 77, 127
2, 120, Note_on_c, 0, 73, 127
2, 240, Note_off_c, 0, 73, 64
2, 240, Note_on_c, 0, 74, 127
2, 288, Note_off_c, 0, 69, 64
2, 360, Note_on_c, 0, 69, 127
2, 384, Note_off_c, 0, 77, 64
2, 456, Note_off_c, 0, 69, 64
2, 480, Note_off_c, 0, 74, 64
2, 480, Note_on_c, 0, 70, 127
2, 480, Note_on_c, 0, 76, 127
2, 1056, Note_off_c, 0, 76, 64
2, 1080, Note_on_c, 0, 79, 127
2, 1176, Note_off_c, 0, 79, 64
2, 1200, Note_on_c, 0, 77, 127
2, 1296, Note_off_c, 0, 77, 64
2, 1320, Note_on_c, 0, 81, 127
2, 1344, Note_off_c, 0, 70, 64
2, 1416, Note_off_c, 0, 81, 64
2, 1440, Note_on_c, 0, 79, 127
2, 1536, Note_off_c, 0, 79, 64
2, 1560, Note_on_c, 0, 82, 127
2, 1656, Note_off_c, 0, 82, 64
2, 1680, Note_on_c, 0, 81, 127
2, 1776, Note_off_c, 0, 81, 64
2, 1800, Note_on_c, 0, 79, 127
2, 1896, Note_off_c, 0, 79, 64
2, 1920, Note_on_c, 0, 78, 127
2, 2040, Note_on_c, 0, 62, 127
2, 2040, Note_on_c, 0, 62, 127
2, 2136, Note_off_c, 0, 62, 64
2, 2160, Note_on_c, 0, 66, 127
2, 2160, Note_on_c, 0, 66, 127
2, 2256, Note_off_c, 0, 66, 64
2, 2280, Note_on_c, 0, 67, 127
2, 2304, Note_off_c, 0, 78, 64
2, 2376, Note_off_c, 0, 67, 64
2, 2400, Note_on_c, 0, 69, 127
2, 2520, Note_on_c, 0, 72, 127
2, 2616, Note_off_c, 0, 72, 64
2, 2640, Note_on_c, 0, 74, 127
2, 2736, Note_off_c, 0, 74, 64
2, 2760, Note_on_c, 0, 78, 127
2, 2784, Note_off_c, 0, 66, 64
2, 2784, Note_off_c, 0, 69, 64
2, 2856, Note_off_c, 0, 78, 64
2, 2880, Note_on_c, 0, 79, 127
2, 3000, Note_on_c, 0, 73, 127
2, 3096, Note_off_c, 0, 73, 64
2, 3120, Note_on_c, 0, 74, 127
2, 3216, Note_off_c, 0, 74, 64
2, 3240, Note_on_c, 0, 69, 127
2, 3264, Note_off_c, 0, 62, 64
2, 3264, Note_off_c, 0, 79, 64
2, 3336, Note_off_c, 0, 69, 64
2, 3360, Note_on_c, 0, 76, 127
2, 3360, Note_on_c, 0, 70, 127
2, 3480, Note_on_c, 0, 66, 127
2, 3576, Note_off_c, 0, 66, 64
2, 3600, Note_on_c, 0, 67, 127
2, 3696, Note_off_c, 0, 67, 64
2, 3720, Note_on_c, 0, 58, 127
2, 3744, Note_off_c, 0, 70, 64
2, 3816, Note_off_c, 0, 58, 64
2, 3840, Note_on_c, 0, 71, 127
2, 3936, Note_off_c, 0, 76, 64
2, 3960, Note_on_c, 0, 74, 127
2, 4056, Note_off_c, 0, 74, 64
2, 4080, Note_on_c, 0, 73, 127
2, 4176, Note_off_c, 0, 73, 64
2, 4200, Note_on_c, 0, 74, 127
2, 4224, Note_off_c, 0, 71, 64
2, 4296, Note_off_c, 0, 74, 64
2, 4320, Note_on_c, 0, 73, 127
2, 4320, Note_on_c, 0, 69, 127
2, 4416, Note_off_c, 0, 73, 64
2, 4440, Note_on_c, 0, 76, 127
2, 4536, Note_off_c, 0, 76, 64
2, 4560, Note_on_c, 0, 74, 127
2, 4656, Note_off_c, 0, 74, 64
2, 4680, Note_on_c, 0, 71, 127
2, 4776, Note_off_c, 0, 71, 64
2, 4800, Note_on_c, 0, 73, 127
2, 4896, Note_off_c, 0, 73, 64
2, 4920, Note_on_c, 0, 69, 127
2, 5016, Note_off_c, 0, 69, 64
2, 5040, Note_on_c, 0, 68, 127
2, 5088, Note_off_c, 0, 69, 64
2, 5136, Note_off_c, 0, 68, 64
2, 5160, Note_on_c, 0, 71, 127
2, 5256, Note_off_c, 0, 71, 64
2, 5280, Note_on_c, 0, 69, 127
2, 5376, Note_off_c, 0, 69, 64
2, 5400, Note_on_c, 0, 73, 127
2, 5496, Note_off_c, 0, 73, 64
2, 5520, Note_on_c, 0, 71, 127
2, 5616, Note_off_c, 0, 71, 64
2, 5640, Note_on_c, 0, 74, 127
2, 5688, Note_off_c, 0, 74, 64
2, 5700, Note_on_c, 0, 73, 127
2, 5748, Note_off_c, 0, 73, 64
2, 5760, Note_on_c, 0, 72, 127
2, 5784, Note_off_c, 0, 72, 64
2, 5790, Note_on_c, 0, 71, 127
2, 5814, Note_off_c, 0, 71, 64
2, 5820, Note_on_c, 0, 72, 127
2, 5868, Note_off_c, 0, 72, 64
2, 5880, Note_on_c, 0, 75, 127
2, 5976, Note_off_c, 0, 75, 64
2, 6000, Note_on_c, 0, 74, 127
2, 6096, Note_off_c, 0, 74, 64
2, 6120, Note_on_c, 0, 72, 127
2, 6216, Note_off_c, 0, 72, 64
2, 6240, Note_on_c, 0, 71, 127
2, 6720, Note_on_c, 0, 67, 127
2, 6816, Note_off_c, 0, 71, 64
2, 6840, Note_on_c, 0, 69, 127
2, 6936, Note_off_c, 0, 69, 64
2, 6960, Note_on_c, 0, 71, 127
2, 7056, Note_off_c, 0, 71, 64
2, 7080, Note_on_c, 0, 73, 127
2, 7104, Note_off_c, 0, 67, 64
2, 7176, Note_off_c, 0, 73, 64
2, 7200, Note_on_c, 0, 74, 127
2, 7200, Note_on_c, 0, 68, 127
2, 7296, Note_off_c, 0, 74, 64
2, 7320, Note_on_c, 0, 77, 127
2, 7416, Note_off_c, 0, 77, 64
2, 7440, Note_on_c, 0, 76, 127
2, 7536, Note_off_c, 0, 76, 64
2, 7560, Note_on_c, 0, 74, 127
2, 7584, Note_off_c, 0, 68, 64
2, 7656, Note_off_c, 0, 74, 64
2, 7680, Note_on_c, 0, 73, 127
2, 7800, Note_on_c, 0, 70, 127
2, 7800, Note_on_c, 0, 70, 127
2, 7896, Note_off_c, 0, 70, 64
2, 7920, Note_on_c, 0, 67, 127
2, 7920, Note_on_c, 0, 67, 127
2, 8016, Note_off_c, 0, 67, 64
2, 8040, Note_on_c, 0, 64, 127
2, 8088, Note_off_c, 0, 70, 64
2, 8112, Note_off_c, 0, 67, 64
2, 8136, Note_off_c, 0, 64, 64
2, 8256, Note_off_c, 0, 73, 64
2, 8280, Note_on_c, 0, 74, 127
2, 8376, Note_off_c, 0, 74, 64
2, 8400, Note_on_c, 0, 73, 127
2, 8496, Note_off_c, 0, 73, 64
2, 8520, Note_on_c, 0, 74, 127
2, 8616, Note_off_c, 0, 74, 64
2, 8640, Note_on_c, 0, 76, 127
2, 8736, Note_off_c, 0, 76, 64
2, 8760, Note_on_c, 0, 77, 127
2, 8856, Note_off_c, 0, 77, 64
2, 8880, Note_on_c, 0, 76, 127
2, 8976, Note_off_c, 0, 76, 64
2, 9000, Note_on_c, 0, 77, 127
2, 9096, Note_off_c, 0, 77, 64
2, 9120, Note_on_c, 0, 79, 127
2, 9144, Note_off_c, 0, 79, 64
2, 9150, Note_on_c, 0, 77, 127
2, 9174, Note_off_c, 0, 77, 64
2, 9180, Note_on_c, 0, 79, 127
2, 9204, Note_off_c, 0, 79, 64
2, 9210, Note_on_c, 0, 77, 127
2, 9600, Note_on_c, 0, 65, 127
2, 9696, Note_off_c, 0, 65, 64
2, 9720, Note_on_c, 0, 69, 127
2, 9744, Note_off_c, 0, 77, 64
2, 9816, Note_off_c, 0, 69, 64
2, 9840, Note_on_c, 0, 77, 127
2, 9840, Note_on_c, 0, 74, 127
2, 9936, Note_off_c, 0, 74, 64
2, 9960, Note_on_c, 0, 68, 127
2, 10032, Note_off_c, 0, 77, 64
2, 10056, Note_off_c, 0, 68, 64
2, 10080, Note_on_c, 0, 76, 127
2, 10200, Note_on_c, 0, 68, 127
2, 10296, Note_off_c, 0, 68, 64
2, 10320, Note_on_c, 0, 69, 127
2, 10416, Note_off_c, 0, 69, 64
2, 10440, Note_on_c, 0, 71, 127
2, 10464, Note_off_c, 0, 76, 64
2, 10536, Note_off_c, 0, 71, 64
2, 10560, Note_on_c, 0, 73, 127
2, 10680, Note_on_c, 0, 76, 127
2, 10776, Note_off_c, 0, 76, 64
2, 10800, Note_on_c, 0, 81, 127
2, 10896, Note_off_c, 0, 81, 64
2, 10920, Note_on_c, 0, 80, 127
2, 11016, Note_off_c, 0, 80, 64
2, 11040, Note_on_c, 0, 81, 127
2, 11328, Note_off_c, 0, 81, 64
2, 11400, Note_on_c, 0, 79, 127
2, 11424, Note_off_c, 0, 73, 64
2, 11496, Note_off_c, 0, 79, 64
2, 11520, Note_on_c, 0, 69, 127
2, 11520, Note_on_c, 0, 77, 127
2, 11640, Note_on_c, 0, 73, 127
2, 11760, Note_off_c, 0, 73, 64
2, 11760, Note_on_c, 0, 74, 127
2, 11808, Note_off_c, 0, 69, 64
2, 11880, Note_on_c, 0, 69, 127
2, 11904, Note_off_c, 0, 77, 64
2, 11976, Note_off_c, 0, 69, 64
2, 12000, Note_off_c, 0, 74, 64
2, 12000, Note_on_c, 0, 70, 127
2, 12000, Note_on_c, 0, 76, 127
2, 12576, Note_off_c, 0, 76, 64
2, 12600, Note_on_c, 0, 79, 127
2, 12696, Note_off_c, 0, 79, 64
2, 12720, Note_on_c, 0, 77, 127
2, 12816, Note_off_c, 0, 77, 64
2, 12840, Note_on_c, 0, 81, 127
2, 12864, Note_off_c, 0, 70, 64
2, 12936, Note_off_c, 0, 81, 64
2, 12960, Note_on_c, 0, 79, 127
2, 13056, Note_off_c, 0, 79, 64
2, 13080, Note_on_c, 0, 82, 127
2, 13176, Note_off_c, 0, 82, 64
2, 13200, Note_on_c, 0, 81, 127
2, 13296, Note_off_c, 0, 81, 64
2, 13320, Note_on_c, 0, 79, 127
2, 13416, Note_off_c, 0, 79, 64
2, 13440, Note_on_c, 0, 78, 127
2, 13560, Note_on_c, 0, 62, 127
2, 13560, Note_on_c, 0, 62, 127
2, 13656, Note_off_c, 0, 62, 64
2, 13680, Note_on_c, 0, 66, 127
2, 13680, Note_on_c, 0, 66, 127
2, 13776, Note_off_c, 0, 66, 64
2, 13800, Note_on_c, 0, 67, 127
2, 13824, Note_off_c, 0, 78, 64
2, 13896, Note_off_c, 0, 67, 64
2, 13920, Note_on_c, 0, 69, 127
2, 14040, Note_on_c, 0, 72, 127
2, 14136, Note_off_c, 0, 72, 64
2, 14160, Note_on_c, 0, 74, 127
2, 14256, Note_off_c, 0, 74, 64
2, 14280, Note_on_c, 0, 78, 127
2, 14304, Note_off_c, 0, 66, 64
2, 14304, Note_off_c, 0, 69, 64
2, 14376, Note_off_c, 0, 78, 64
2, 14400, Note_on_c, 0, 79, 127
2, 14520, Note_on_c, 0, 73, 127
2, 14616, Note_off_c, 0, 73, 64
2, 14640, Note_on_c, 0, 74, 127
2, 14736, Note_off_c, 0, 74, 64
2, 14760, Note_on_c, 0, 69, 127
2, 14784, Note_off_c, 0, 62, 64
2, 14784, Note_off_c, 0, 79, 64
2, 14856, Note_off_c, 0, 69, 64
2, 14880, Note_on_c, 0, 76, 127
2, 14880, Note_on_c, 0, 70, 127
2, 15000, Note_on_c, 0, 66, 127
2, 15096, Note_off_c, 0, 66, 64
2, 15120, Note_on_c, 0, 67, 127
2, 15216, Note_off_c, 0, 67, 64
2, 15240, Note_on_c, 0, 58, 127
2, 15264, Note_off_c, 0, 70, 64
2, 15336, Note_off_c, 0, 58, 64
2, 15360, Note_on_c, 0, 71, 127
2, 15456, Note_off_c, 0, 76, 64
2, 15480, Note_on_c, 0, 74, 127
2, 15576, Note_off_c, 0, 74, 64
2, 15600, Note_on_c, 0, 73, 127
2, 15696, Note_off_c, 0, 73, 64
2, 15720, Note_on_c, 0, 74, 127
2, 15744, Note_off_c, 0, 71, 64
2, 15816, Note_off_c, 0, 74, 64
2, 15840, Note_on_c, 0, 73, 127
2, 15840, Note_on_c, 0, 69, 127
2, 15936, Note_off_c, 0, 73, 64
2, 15960, Note_on_c, 0, 76, 127
2, 16056, Note_off_c, 0, 76, 64
2, 16080, Note_on_c, 0, 74, 127
2, 16176, Note_off_c, 0, 74, 64
2, 16200, Note_on_c, 0, 71, 127
2, 16296, Note_off_c, 0, 71, 64
2, 16320, Note_on_c, 0, 73, 127
2, 16416, Note_off_c, 0, 73, 64
2, 16440, Note_on_c, 0, 69, 127
2, 16536, Note_off_c, 0, 69, 64
2, 16560, Note_on_c, 0, 68, 127
2, 16608, Note_off_c, 0, 69, 64
2, 16656, Note_off_c, 0, 68, 64
2, 16680, Note_on_c, 0, 71, 127
2, 16776, Note_off_c, 0, 71, 64
2, 16800, Note_on_c, 0, 69, 127
2, 16896, Note_off_c, 0, 69, 64
2, 16920, Note_on_c, 0, 73, 127
2, 17016, Note_off_c, 0, 73, 64
2, 17040, Note_on_c, 0, 71, 127
2, 17136, Note_off_c, 0, 71, 64
2, 17160, Note_on_c, 0, 74, 127
2, 17208, Note_off_c, 0, 74, 64
2, 17220, Note_on_c, 0, 73, 127
2, 17268, Note_off_c, 0, 73, 64
2, 17280, Note_on_c, 0, 72, 127
2, 17304, Note_off_c, 0, 72, 64
2, 17310, Note_on_c, 0, 71, 127
2, 17334, Note_off_c, 0, 71, 64
2, 17340, Note_on_c, 0, 72, 127
2, 17388, Note_off_c, 0, 72, 64
2, 17400, Note_on_c, 0, 75, 127
2, 17496, Note_off_c, 0, 75, 64
2, 17520, Note_on_c, 0, 74, 127
2, 17616, Note_off_c, 0, 74, 64
2, 17640, Note_on_c, 0, 72, 127
2, 17736, Note_off_c, 0, 72, 64
2, 17760, Note_on_c, 0, 71, 127
2, 18240, Note_on_c, 0, 67, 127
2, 18336, Note_off_c, 0, 71, 64
2, 18360, Note_on_c, 0, 69, 127
2, 18456, Note_off_c, 0, 69, 64
2, 18480, Note_on_c, 0, 71, 127
2, 18576, Note_off_c, 0, 71, 64
2, 18600, Note_on_c, 0, 73, 127
2, 18624, Note_off_c, 0, 67, 64
2, 18696, Note_off_c, 0, 73, 64
2, 18720, Note_on_c, 0, 74, 127
2, 18720, Note_on_c, 0, 68, 127
2, 18816, Note_off_c, 0, 74, 64
2, 18840, Note_on_c, 0, 77, 127
2, 18936, Note_off_c, 0, 77, 64
2, 18960, Note_on_c, 0, 76, 127
2, 19056, Note_off_c, 0, 76, 64
2, 19080, Note_on_c, 0, 74, 127
2, 19104, Note_off_c, 0, 68, 64
2, 19176, Note_off_c, 0, 74, 64
2, 19200, Note_on_c, 0, 73, 127
2, 19320, Note_on_c, 0, 70, 127
2, 19320, Note_on_c, 0, 70, 127
2, 19416, Note_off_c, 0, 70, 64
2, 19440, Note_on_c, 0, 67, 127
2, 19440, Note_on_c, 0, 67, 127
2, 19536, Note_off_c, 0, 67, 64
2, 19560, Note_on_c, 0, 64, 127
2, 19608, Note_off_c, 0, 70, 64
2, 19632, Note_off_c, 0, 67, 64
2, 19656, Note_off_c, 0, 64, 64
2, 19776, Note_off_c, 0, 73, 64
2, 19800, Note_on_c, 0, 74, 127
2, 19896, Note_off_c, 0, 74, 64
2, 19920, Note_on_c, 0, 73, 127
2, 20016, Note_off_c, 0, 73, 64
2, 20040, Note_on_c, 0, 74, 127
2, 20136, Note_off_c, 0, 74, 64
2, 20160, Note_on_c, 0, 76, 127
2, 20256, Note_off_c, 0, 76, 64
2, 20280, Note_on_c, 0, 77, 127
2, 20376, Note_off_c, 0, 77, 64
2, 20400, Note_on_c, 0, 76, 127
2, 20496, Note_off_c, 0, 76, 64
2, 20520, Note_on_c, 0, 77, 127
2, 20616, Note_off_c, 0, 77, 64
2, 20640, Note_on_c, 0, 79, 127
2, 20664, Note_off_c, 0, 79, 64
2, 20670, Note_on_c, 0, 77, 127
2, 20694, Note_off_c, 0, 77, 64
2, 20700, Note_on_c, 0, 79, 127
2, 20724, Note_off_c, 0, 79, 64
2, 20730, Note_on_c, 0, 77, 127
2, 21120, Note_on_c, 0, 65, 127
2, 21216, Note_off_c, 0, 65, 64
2, 21240, Note_on_c, 0, 69, 127
2, 21264, Note_off_c, 0, 77, 64
2, 21336, Note_off_c, 0, 69, 64
2, 21360, Note_on_c, 0, 77, 127
2, 21360, Note_on_c, 0, 74, 127
2, 21456, Note_off_c, 0, 74, 64
2, 21480, Note_on_c, 0, 68, 127
2, 21552, Note_off_c, 0, 77, 64
2, 21576, Note_off_c, 0, 68, 64
2, 21600, Note_on_c, 0, 76, 127
2, 21720, Note_on_c, 0, 68, 127
2, 21816, Note_off_c, 0, 68, 64
2, 21840, Note_on_c, 0, 69, 127
2, 21936, Note_off_c, 0, 69, 64
2, 21960, Note_on_c, 0, 71, 127
2, 21984, Note_off_c, 0, 76, 64
2, 22056, Note_off_c, 0, 71, 64
2, 22080, Note_on_c, 0, 73, 127
2, 22200, Note_on_c, 0, 76, 127
2, 22296, Note_off_c, 0, 76, 64
2, 22320, Note_on_c, 0, 81, 127
2, 22416, Note_off_c, 0, 81, 64
2, 22440, Note_on_c, 0, 80, 127
2, 22536, Note_off_c, 0, 80, 64
2, 22560, Note_on_c, 0, 81, 127
2, 22944, Note_off_c, 0, 73, 64
2, 23010, Note_off_c, 0, 81, 64
2, 23040, Note_on_c, 0, 76, 127
2, 23400, Note_on_c, 0, 65, 127
2, 23424, Note_off_c, 0, 76, 64
2, 23496, Note_off_c, 0, 65, 64
2, 23520, Note_on_c, 0, 76, 127
2, 23520, Note_on_c, 0, 64, 127
2, 23616, Note_off_c, 0, 64, 64
2, 23640, Note_on_c, 0, 69, 127
2, 23736, Note_off_c, 0, 69, 64
2, 23760, Note_on_c, 0, 67, 127
2, 23856, Note_off_c, 0, 67, 64
2, 23880, Note_on_c, 0, 70, 127
2, 23976, Note_off_c, 0, 70, 64
2, 24000, Note_on_c, 0, 69, 127
2, 24288, Note_off_c, 0, 76, 64
2, 24384, Note_off_c, 0, 69, 64
2, 24480, Note_on_c, 0, 67, 127
2, 24480, Note_on_c, 0, 76, 127
2, 24864, Note_off_c, 0, 76, 64
2, 24864, Note_off_c, 0, 67, 64
2, 24960, Note_on_c, 0, 75, 127
2, 25080, Note_on_c, 0, 72, 127
2, 25080, Note_on_c, 0, 72, 127
2, 25176, Note_off_c, 0, 72, 64
2, 25200, Note_on_c, 0, 69, 127
2, 25296, Note_off_c, 0, 69, 64
2, 25320, Note_on_c, 0, 67, 127
2, 25416, Note_off_c, 0, 67, 64
2, 25440, Note_on_c, 0, 65, 127
2, 25728, Note_off_c, 0, 75, 64
2, 25824, Note_off_c, 0, 65, 64
2, 25824, Note_off_c, 0, 72, 64
2, 25920, Note_on_c, 0, 74, 127
2, 25920, Note_on_c, 0, 65, 127
2, 26016, Note_off_c, 0, 65, 64
2, 26040, Note_on_c, 0, 69, 127
2, 26136, Note_off_c, 0, 69, 64
2, 26160, Note_on_c, 0, 70, 127
2, 26256, Note_off_c, 0, 70, 64
2, 26280, Note_on_c, 0, 65, 127
2, 26376, Note_off_c, 0, 65, 64
2, 26400, Note_on_c, 0, 67, 127
2, 26496, Note_off_c, 0, 74, 64
2, 26520, Note_on_c, 0, 70, 127
2, 26616, Note_off_c, 0, 70, 64
2, 26640, Note_on_c, 0, 74, 127
2, 26736, Note_off_c, 0, 74, 64
2, 26760, Note_on_c, 0, 76, 127
2, 26784, Note_off_c, 0, 67, 64
2, 26856, Note_off_c, 0, 76, 64
2, 26880, Note_on_c, 0, 77, 127
2, 26880, Note_on_c, 0, 69, 127
2, 26976, Note_off_c, 0, 77, 64
2, 27000, Note_on_c, 0, 76, 127
2, 27096, Note_off_c, 0, 76, 64
2, 27120, Note_on_c, 0, 77, 127
2, 27216, Note_off_c, 0, 77, 64
2, 27240, Note_on_c, 0, 74, 127
2, 27264, Note_off_c, 0, 69, 64
2, 27336, Note_off_c, 0, 74, 64
2, 27360, Note_on_c, 0, 67, 127
2, 27360, Note_on_c, 0, 76, 127
2, 27456, Note_off_c, 0, 76, 64
2, 27480, Note_on_c, 0, 79, 127
2, 27576, Note_off_c, 0, 79, 64
2, 27600, Note_on_c, 0, 77, 127
2, 27696, Note_off_c, 0, 77, 64
2, 27720, Note_on_c, 0, 74, 127
2, 27816, Note_off_c, 0, 74, 64
2, 27840, Note_on_c, 0, 76, 127
2, 27936, Note_off_c, 0, 76, 64
2, 27936, Note_off_c, 0, 67, 64
2, 27960, Note_on_c, 0, 72, 127
2, 28056, Note_off_c, 0, 72, 64
2, 28080, Note_on_c, 0, 71, 127
2, 28080, Note_on_c, 0, 65, 127
2, 28176, Note_off_c, 0, 71, 64
2, 28200, Note_on_c, 0, 74, 127
2, 28272, Note_off_c, 0, 65, 64
2, 28296, Note_off_c, 0, 74, 64
2, 28320, Note_on_c, 0, 64, 127
2, 28320, Note_on_c, 0, 72, 127
2, 28416, Note_off_c, 0, 72, 64
2, 28440, Note_on_c, 0, 76, 127
2, 28536, Note_off_c, 0, 76, 64
2, 28560, Note_on_c, 0, 74, 127
2, 28656, Note_off_c, 0, 74, 64
2, 28680, Note_on_c, 0, 77, 127
2, 28704, Note_off_c, 0, 64, 64
2, 28728, Note_off_c, 0, 77, 64
2, 28740, Note_on_c, 0, 76, 127
2, 28788, Note_off_c, 0, 76, 64
2, 28800, Note_on_c, 0, 77, 127
2, 29184, Note_off_c, 0, 77, 64
2, 29280, Note_on_c, 0, 69, 127
2, 29400, Note_on_c, 0, 72, 127
2, 29496, Note_off_c, 0, 72, 64
2, 29520, Note_on_c, 0, 77, 127
2, 29616, Note_off_c, 0, 77, 64
2, 29640, Note_on_c, 0, 79, 127
2, 29664, Note_off_c, 0, 69, 64
2, 29736, Note_off_c, 0, 79, 64
2, 29760, Note_on_c, 0, 81, 127
2, 29880, Note_on_c, 0, 76, 127
2, 29976, Note_off_c, 0, 76, 64
2, 30000, Note_on_c, 0, 77, 127
2, 30096, Note_off_c, 0, 77, 64
2, 30120, Note_on_c, 0, 72, 127
2, 30216, Note_off_c, 0, 72, 64
2, 30240, Note_on_c, 0, 74, 127
2, 30432, Note_off_c, 0, 81, 64
2, 30480, Note_on_c, 0, 79, 127
2, 30624, Note_off_c, 0, 74, 64
2, 30672, Note_off_c, 0, 79, 64
2, 30720, Note_on_c, 0, 70, 127
2, 30840, Note_on_c, 0, 74, 127
2, 30936, Note_off_c, 0, 74, 64
2, 30960, Note_on_c, 0, 79, 127
2, 31056, Note_off_c, 0, 79, 64
2, 31080, Note_on_c, 0, 81, 127
2, 31104, Note_off_c, 0, 70, 64
2, 31176, Note_off_c, 0, 81, 64
2, 31200, Note_on_c, 0, 82, 127
2, 31296, Note_off_c, 0, 82, 64
2, 31320, Note_on_c, 0, 77, 127
2, 31416, Note_off_c, 0, 77, 64
2, 31440, Note_on_c, 0, 79, 127
2, 31536, Note_off_c, 0, 79, 64
2, 31560, Note_on_c, 0, 76, 127
2, 31656, Note_off_c, 0, 76, 64
2, 31680, Note_on_c, 0, 77, 127
2, 31800, Note_on_c, 0, 72, 127
2, 31896, Note_off_c, 0, 72, 64
2, 31920, Note_on_c, 0, 74, 127
2, 32016, Note_off_c, 0, 74, 64
2, 32040, Note_on_c, 0, 70, 127
2, 32064, Note_off_c, 0, 77, 64
2, 32136, Note_off_c, 0, 70, 64
2, 32160, Note_on_c, 0, 69, 127
2, 32280, Note_on_c, 0, 72, 127
2, 32376, Note_off_c, 0, 72, 64
2, 32400, Note_on_c, 0, 76, 127
2, 32496, Note_off_c, 0, 76, 64
2, 32520, Note_on_c, 0, 77, 127
2, 32544, Note_off_c, 0, 69, 64
2, 32616, Note_off_c, 0, 77, 64
2, 32640, Note_on_c, 0, 79, 127
2, 32736, Note_off_c, 0, 79, 64
2, 32760, Note_on_c, 0, 74, 127
2, 32856, Note_off_c, 0, 74, 64
2, 32880, Note_on_c, 0, 76, 127
2, 33000, Note_on_c, 0, 70, 127
2, 33072, Note_off_c, 0, 76, 64
2, 33096, Note_off_c, 0, 70, 64
2, 33120, Note_on_c, 0, 70, 127
2, 33144, Note_off_c, 0, 70, 64
2, 33150, Note_on_c, 0, 69, 127
2, 33174, Note_off_c, 0, 69, 64
2, 33180, Note_on_c, 0, 70, 127
2, 33204, Note_off_c, 0, 70, 64
2, 33210, Note_on_c, 0, 69, 127
2, 33234, Note_off_c, 0, 69, 64
2, 33240, Note_on_c, 0, 67, 127
2, 33336, Note_off_c, 0, 67, 64
2, 33360, Note_on_c, 0, 69, 127
2, 33456, Note_off_c, 0, 69, 64
2, 33480, Note_on_c, 0, 72, 127
2, 33576, Note_off_c, 0, 72, 64
2, 33600, Note_on_c, 0, 77, 127
2, 33720, Note_on_c, 0, 72, 127
2, 33720, Note_on_c, 0, 72, 127
2, 33816, Note_off_c, 0, 72, 64
2, 33840, Note_on_c, 0, 69, 127
2, 33840, Note_on_c, 0, 69, 127
2, 33936, Note_off_c, 0, 69, 64
2, 33960, Note_on_c, 0, 65, 127
2, 34464, Note_off_c, 0, 69, 64
2, 34464, Note_off_c, 0, 72, 64
2, 34464, Note_off_c, 0, 65, 64
2, 34464, Note_off_c, 0, 77, 64
2, 35040, Note_on_c, 0, 69, 127
2, 35160, Note_on_c, 0, 74, 127
2, 35160, Note_on_c, 0, 74, 127
2, 35256, Note_off_c, 0, 74, 64
2, 35280, Note_on_c, 0, 78, 127
2, 35280, Note_on_c, 0, 78, 127
2, 35376, Note_off_c, 0, 78, 64
2, 35400, Note_on_c, 0, 79, 127
2, 35424, Note_off_c, 0, 69, 64
2, 35448, Note_off_c, 0, 74, 64
2, 35472, Note_off_c, 0, 78, 64
2, 35496, Note_off_c, 0, 79, 64
2, 35520, Note_on_c, 0, 81, 127
2, 35616, Note_off_c, 0, 81, 64
2, 35640, Note_on_c, 0, 82, 127
2, 35736, Note_off_c, 0, 82, 64
2, 35760, Note_on_c, 0, 84, 127
2, 35856, Note_off_c, 0, 84, 64
2, 35880, Note_on_c, 0, 81, 127
2, 35976, Note_off_c, 0, 81, 64
2, 36000, Note_on_c, 0, 82, 127
2, 36096, Note_off_c, 0, 82, 64
2, 36120, Note_on_c, 0, 79, 127
2, 36216, Note_off_c, 0, 79, 64
2, 36240, Note_on_c, 0, 76, 127
2, 36336, Note_off_c, 0, 76, 64
2, 36360, Note_on_c, 0, 79, 127
2, 36456, Note_off_c, 0, 79, 64
2, 36480, Note_on_c, 0, 73, 127
2, 36576, Note_off_c, 0, 73, 64
2, 36600, Note_on_c, 0, 77, 127
2, 36696, Note_off_c, 0, 77, 64
2, 36720, Note_on_c, 0, 76, 127
2, 36816, Note_off_c, 0, 76, 64
2, 36840, Note_on_c, 0, 81, 127
2, 36936, Note_off_c, 0, 81, 64
2, 36960, Note_on_c, 0, 79, 127
2, 37056, Note_off_c, 0, 79, 64
2, 37080, Note_on_c, 0, 77, 127
2, 37176, Note_off_c, 0, 77, 64
2, 37200, Note_on_c, 0, 76, 127
2, 37296, Note_off_c, 0, 76, 64
2, 37320, Note_on_c, 0, 77, 127
2, 37416, Note_off_c, 0, 77, 64
2, 37440, Note_on_c, 0, 79, 127
2, 37536, Note_off_c, 0, 79, 64
2, 37560, Note_on_c, 0, 76, 127
2, 37656, Note_off_c, 0, 76, 64
2, 37680, Note_on_c, 0, 73, 127
2, 37776, Note_off_c, 0, 73, 64
2, 37800, Note_on_c, 0, 76, 127
2, 37896, Note_off_c, 0, 76, 64
2, 37920, Note_on_c, 0, 69, 127
2, 38016, Note_off_c, 0, 69, 64
2, 38040, Note_on_c, 0, 74, 127
2, 38136, Note_off_c, 0, 74, 64
2, 38160, Note_on_c, 0, 73, 127
2, 38256, Note_off_c, 0, 73, 64
2, 38280, Note_on_c, 0, 77, 127
2, 38376, Note_off_c, 0, 77, 64
2, 38400, Note_on_c, 0, 76, 127
2, 38496, Note_off_c, 0, 76, 64
2, 38520, Note_on_c, 0, 74, 127
2, 38616, Note_off_c, 0, 74, 64
2, 38640, Note_on_c, 0, 73, 127
2, 38736, Note_off_c, 0, 73, 64
2, 38760, Note_on_c, 0, 74, 127
2, 38856, Note_off_c, 0, 74, 64
2, 38880, Note_on_c, 0, 76, 127
2, 38976, Note_off_c, 0, 76, 64
2, 39000, Note_on_c, 0, 73, 127
2, 39096, Note_off_c, 0, 73, 64
2, 39120, Note_on_c, 0, 69, 127
2, 39216, Note_off_c, 0, 69, 64
2, 39240, Note_on_c, 0, 73, 127
2, 39336, Note_off_c, 0, 73, 64
2, 39360, Note_on_c, 0, 64, 127
2, 39456, Note_off_c, 0, 64, 64
2, 39480, Note_on_c, 0, 69, 127
2, 39576, Note_off_c, 0, 69, 64
2, 39600, Note_on_c, 0, 67, 127
2, 39696, Note_off_c, 0, 67, 64
2, 39720, Note_on_c, 0, 70, 127
2, 39816, Note_off_c, 0, 70, 64
2, 39840, Note_on_c, 0, 69, 127
2, 39936, Note_off_c, 0, 69, 64
2, 39960, Note_on_c, 0, 67, 127
2, 40056, Note_off_c, 0, 67, 64
2, 40080, Note_on_c, 0, 66, 127
2, 40176, Note_off_c, 0, 66, 64
2, 40200, Note_on_c, 0, 67, 127
2, 40296, Note_off_c, 0, 67, 64
2, 40320, Note_on_c, 0, 69, 127
2, 40704, Note_off_c, 0, 69, 64
2, 40800, Note_on_c, 0, 62, 127
2, 40920, Note_on_c, 0, 66, 127
2, 41016, Note_off_c, 0, 66, 64
2, 41040, Note_on_c, 0, 67, 127
2, 41136, Note_off_c, 0, 67, 64
2, 41160, Note_on_c, 0, 69, 127
2, 41184, Note_off_c, 0, 62, 64
2, 41256, Note_off_c, 0, 69, 64
2, 41760, Note_on_c, 0, 62, 127
2, 41880, Note_on_c, 0, 67, 127
2, 41976, Note_off_c, 0, 67, 64
2, 42000, Note_on_c, 0, 69, 127
2, 42096, Note_off_c, 0, 69, 64
2, 42120, Note_on_c, 0, 71, 127
2, 42144, Note_off_c, 0, 62, 64
2, 42216, Note_off_c, 0, 71, 64
2, 42720, Note_on_c, 0, 64, 127
2, 42840, Note_on_c, 0, 67, 127
2, 42840, Note_on_c, 0, 67, 127
2, 42936, Note_off_c, 0, 67, 64
2, 42960, Note_on_c, 0, 70, 127
2, 42960, Note_on_c, 0, 70, 127
2, 43056, Note_off_c, 0, 70, 64
2, 43080, Note_on_c, 0, 73, 127
2, 43104, Note_off_c, 0, 64, 64
2, 43128, Note_off_c, 0, 67, 64
2, 43152, Note_off_c, 0, 70, 64
2, 43176, Note_off_c, 0, 73, 64
2, 43200, Note_on_c, 0, 74, 127
2, 43320, Note_on_c, 0, 69, 127
2, 43416, Note_off_c, 0, 69, 64
2, 43440, Note_on_c, 0, 70, 127
2, 43440, Note_on_c, 0, 70, 127
2, 43536, Note_off_c, 0, 70, 64
2, 43560, Note_on_c, 0, 64, 127
2, 43584, Note_off_c, 0, 74, 64
2, 43632, Note_off_c, 0, 70, 64
2, 43656, Note_off_c, 0, 64, 64
2, 43680, Note_on_c, 0, 65, 127
2, 43680, Note_on_c, 0, 74, 127
2, 44256, Note_off_c, 0, 65, 64
2, 44280, Note_on_c, 0, 64, 127
2, 44448, Note_off_c, 0, 74, 64
2, 44520, Note_on_c, 0, 73, 127
2, 44568, Note_off_c, 0, 64, 64
2, 44616, Note_off_c, 0, 73, 64
2, 44640, Note_on_c, 0, 74, 127
2, 44760, Note_on_c, 0, 67, 127
2, 44856, Note_off_c, 0, 67, 64
2, 44880, Note_on_c, 0, 65, 127
2, 44976, Note_off_c, 0, 65, 64
2, 45000, Note_on_c, 0, 64, 127
2, 45024, Note_off_c, 0, 74, 64
2, 45096, Note_off_c, 0, 64, 64
2, 45120, Note_on_c, 0, 65, 127
2, 45240, Note_on_c, 0, 69, 127
2, 45336, Note_off_c, 0, 69, 64
2, 45360, Note_on_c, 0, 74, 127
2, 45456, Note_off_c, 0, 74, 64
2, 45480, Note_on_c, 0, 73, 127
2, 45576, Note_off_c, 0, 73, 64
2, 45600, Note_on_c, 0, 74, 127
2, 45696, Note_off_c, 0, 74, 64
2, 45720, Note_on_c, 0, 77, 127
2, 45816, Note_off_c, 0, 77, 64
2, 45840, Note_on_c, 0, 76, 127
2, 45888, Note_off_c, 0, 65, 64
2, 45936, Note_off_c, 0, 76, 64
2, 45960, Note_on_c, 0, 74, 127
2, 46056, Note_off_c, 0, 74, 64
2, 46080, Note_on_c, 0, 76, 127
2, 46440, Note_on_c, 0, 65, 127
2, 46464, Note_off_c, 0, 76, 64
2, 46536, Note_off_c, 0, 65, 64
2, 46560, Note_on_c, 0, 76, 127
2, 46560, Note_on_c, 0, 64, 127
2, 46656, Note_off_c, 0, 64, 64
2, 46680, Note_on_c, 0, 69, 127
2, 46776, Note_off_c, 0, 69, 64
2, 46800, Note_on_c, 0, 67, 127
2, 46896, Note_off_c, 0, 67, 64
2, 46920, Note_on_c, 0, 70, 127
2, 47016, Note_off_c, 0, 70, 64
2, 47040, Note_on_c, 0, 69, 127
2, 47328, Note_off_c, 0, 76, 64
2, 47424, Note_off_c, 0, 69, 64
2, 47520, Note_on_c, 0, 67, 127
2, 47520, Note_on_c, 0, 76, 127
2, 47904, Note_off_c, 0, 76, 64
2, 47904, Note_off_c, 0, 67, 64
2, 48000, Note_on_c, 0, 75, 127
2, 48120, Note_on_c, 0, 72, 127
2, 48120, Note_on_c, 0, 72, 127
2, 48216, Note_off_c, 0, 72, 64
2, 48240, Note_on_c, 0, 69, 127
2, 48336, Note_off_c, 0, 69, 64
2, 48360, Note_on_c, 0, 67, 127
2, 48456, Note_off_c, 0, 67, 64
2, 48480, Note_on_c, 0, 65, 127
2, 48768, Note_off_c, 0, 75, 64
2, 48864, Note_off_c, 0, 65, 64
2, 48864, Note_off_c, 0, 72, 64
2, 48960, Note_on_c, 0, 74, 127
2, 48960, Note_on_c, 0, 65, 127
2, 49056, Note_off_c, 0, 65, 64
2, 49080, Note_on_c, 0, 69, 127
2, 49176, Note_off_c, 0, 69, 64
2, 49200, Note_on_c, 0, 70, 127
2, 49296, Note_off_c, 0, 70, 64
2, 49320, Note_on_c, 0, 65, 127
2, 49416, Note_off_c, 0, 65, 64
2, 49440, Note_on_c, 0, 67, 127
2, 49536, Note_off_c, 0, 74, 64
2, 49560, Note_on_c, 0, 70, 127
2, 49656, Note_off_c, 0, 70, 64
2, 49680, Note_on_c, 0, 74, 127
2, 49776, Note_off_c, 0, 74, 64
2, 49800, Note_on_c, 0, 76, 127
2, 49824, Note_off_c, 0, 67, 64
2, 49896, Note_off_c, 0, 76, 64
2, 49920, Note_on_c, 0, 77, 127
2, 49920, Note_on_c, 0, 69, 127
2, 50016, Note_off_c, 0, 77, 64
2, 50040, Note_on_c, 0, 76, 127
2, 50136, Note_off_c, 0, 76, 64
2, 50160, Note_on_c, 0, 77, 127
2, 50256, Note_off_c, 0, 77, 64
2, 50280, Note_on_c, 0, 74, 127
2, 50304, Note_off_c, 0, 69, 64
2, 50376, Note_off_c, 0, 74, 64
2, 50400, Note_on_c, 0, 67, 127
2, 50400, Note_on_c, 0, 76, 127
2, 50496, Note_off_c, 0, 76, 64
2, 50520, Note_on_c, 0, 79, 127
2, 50616, Note_off_c, 0, 79, 64
2, 50640, Note_on_c, 0, 77, 127
2, 50736, Note_off_c, 0, 77, 64
2, 50760, Note_on_c, 0, 74, 127
2, 50856, Note_off_c, 0, 74, 64
2, 50880, Note_on_c, 0, 76, 127
2, 50976, Note_off_c, 0, 76, 64
2, 50976, Note_off_c, 0, 67, 64
2, 51000, Note_on_c, 0, 72, 127
2, 51096, Note_off_c, 0, 72, 64
2, 51120, Note_on_c, 0, 71, 127
2, 51120, Note_on_c, 0, 65, 127
2, 51216, Note_off_c, 0, 71, 64
2, 51240, Note_on_c, 0, 74, 127
2, 51312, Note_off_c, 0, 65, 64
2, 51336, Note_off_c, 0, 74, 64
2, 51360, Note_on_c, 0, 64, 127
2, 51360, Note_on_c, 0, 72, 127
2, 51456, Note_off_c, 0, 72, 64
2, 51480, Note_on_c, 0, 76, 127
2, 51576, Note_off_c, 0, 76, 64
2, 51600, Note_on_c, 0, 74, 127
2, 51696, Note_off_c, 0, 74, 64
2, 51720, Note_on_c, 0, 77, 127
2, 51744, Note_off_c, 0, 64, 64
2, 51768, Note_off_c, 0, 77, 64
2, 51780, Note_on_c, 0, 76, 127
2, 51828, Note_off_c, 0, 76, 64
2, 51840, Note_on_c, 0, 77, 127
2, 52224, Note_off_c, 0, 77, 64
2, 52320, Note_on_c, 0, 69, 127
2, 52440, Note_on_c, 0, 72, 127
2, 52536, Note_off_c, 0, 72, 64
2, 52560, Note_on_c, 0, 77, 127
2, 52656, Note_off_c, 0, 77, 64
2, 52680, Note_on_c, 0, 79, 127
2, 52704, Note_off_c, 0, 69, 64
2, 52776, Note_off_c, 0, 79, 64
2, 52800, Note_on_c, 0, 81, 127
2, 52920, Note_on_c, 0, 76, 127
2, 53016, Note_off_c, 0, 76, 64
2, 53040, Note_on_c, 0, 77, 127
2, 53136, Note_off_c, 0, 77, 64
2, 53160, Note_on_c, 0, 72, 127
2, 53256, Note_off_c, 0, 72, 64
2, 53280, Note_on_c, 0, 74, 127
2, 53472, Note_off_c, 0, 81, 64
2, 53520, Note_on_c, 0, 79, 127
2, 53664, Note_off_c, 0, 74, 64
2, 53712, Note_off_c, 0, 79, 64
2, 53760, Note_on_c, 0, 70, 127
2, 53880, Note_on_c, 0, 74, 127
2, 53976, Note_off_c, 0, 74, 64
2, 54000, Note_on_c, 0, 79, 127
2, 54096, Note_off_c, 0, 79, 64
2, 54120, Note_on_c, 0, 81, 127
2, 54144, Note_off_c, 0, 70, 64
2, 54216, Note_off_c, 0, 81, 64
2, 54240, Note_on_c, 0, 82, 127
2, 54336, Note_off_c, 0, 82, 64
2, 54360, Note_on_c, 0, 77, 127
2, 54456, Note_off_c, 0, 77, 64
2, 54480, Note_on_c, 0, 79, 127
2, 54576, Note_off_c, 0, 79, 64
2, 54600, Note_on_c, 0, 76, 127
2, 54696, Note_off_c, 0, 76, 64
2, 54720, Note_on_c, 0, 77, 127
2, 54840, Note_on_c, 0, 72, 127
2, 54936, Note_off_c, 0, 72, 64
2, 54960, Note_on_c, 0, 74, 127
2, 55056, Note_off_c, 0, 74, 64
2, 55080, Note_on_c, 0, 70, 127
2, 55104, Note_off_c, 0, 77, 64
2, 55176, Note_off_c, 0, 70, 64
2, 55200, Note_on_c, 0, 69, 127
2, 55320, Note_on_c, 0, 72, 127
2, 55416, Note_off_c, 0, 72, 64
2, 55440, Note_on_c, 0, 76, 127
2, 55536, Note_off_c, 0, 76, 64
2, 55560, Note_on_c, 0, 77, 127
2, 55584, Note_off_c, 0, 69, 64
2, 55656, Note_off_c, 0, 77, 64
2, 55680, Note_on_c, 0, 79, 127
2, 55776, Note_off_c, 0, 79, 64
2, 55800, Note_on_c, 0, 74, 127
2, 55896, Note_off_c, 0, 74, 64
2, 55920, Note_on_c, 0, 76, 127
2, 56040, Note_on_c, 0, 70, 127
2, 56112, Note_off_c, 0, 76, 64
2, 56136, Note_off_c, 0, 70, 64
2, 56160, Note_on_c, 0, 70, 127
2, 56184, Note_off_c, 0, 70, 64
2, 56190, Note_on_c, 0, 69, 127
2, 56214, Note_off_c, 0, 69, 64
2, 56220, Note_on_c, 0, 70, 127
2, 56244, Note_off_c, 0, 70, 64
2, 56250, Note_on_c, 0, 69, 127
2, 56274, Note_off_c, 0, 69, 64
2, 56280, Note_on_c, 0, 67, 127
2, 56376, Note_off_c, 0, 67, 64
2, 56400, Note_on_c, 0, 69, 127
2, 56496, Note_off_c, 0, 69, 64
2, 56520, Note_on_c, 0, 72, 127
2, 56616, Note_off_c, 0, 72, 64
2, 56640, Note_on_c, 0, 77, 127
2, 56760, Note_on_c, 0, 72, 127
2, 56760, Note_on_c, 0, 72, 127
2, 56856, Note_off_c, 0, 72, 64
2, 56880, Note_on_c, 0, 69, 127
2, 56880, Note_on_c, 0, 69, 127
2, 56976, Note_off_c, 0, 69, 64
2, 57000, Note_on_c, 0, 65, 127
2, 57504, Note_off_c, 0, 69, 64
2, 57504, Note_off_c, 0, 72, 64
2, 57504, Note_off_c, 0, 65, 64
2, 57504, Note_off_c, 0, 77, 64
2, 58080, Note_on_c, 0, 69, 127
2, 58200, Note_on_c, 0, 74, 127
2, 58200, Note_on_c, 0, 74, 127
2, 58296, Note_off_c, 0, 74, 64
2, 58320, Note_on_c, 0, 78, 127
2, 58320, Note_on_c, 0, 78, 127
2, 58416, Note_off_c, 0, 78, 64
2, 58440, Note_on_c, 0, 79, 127
2, 58464, Note_off_c, 0, 69, 64
2, 58488, Note_off_c, 0, 74, 64
2, 58512, Note_off_c, 0, 78, 64
2, 58536, Note_off_c, 0, 79, 64
2, 58560, Note_on_c, 0, 81, 127
2, 58656, Note_off_c, 0, 81, 64
2, 58680, Note_on_c, 0, 82, 127
2, 58776, Note_off_c, 0, 82, 64
2, 58800, Note_on_c, 0, 84, 127
2, 58896, Note_off_c, 0, 84, 64
2, 58920, Note_on_c, 0, 81, 127
2, 59016, Note_off_c, 0, 81, 64
2, 59040, Note_on_c, 0, 82, 127
2, 59136, Note_off_c, 0, 82, 64
2, 59160, Note_on_c, 0, 79, 127
2, 59256, Note_off_c, 0, 79, 64
2, 59280, Note_on_c, 0, 76, 127
2, 59376, Note_off_c, 0, 76, 64
2, 59400, Note_on_c, 0, 79, 127
2, 59496, Note_off_c, 0, 79, 64
2, 59520, Note_on_c, 0, 73, 127
2, 59616, Note_off_c, 0, 73, 64
2, 59640, Note_on_c, 0, 77, 127
2, 59736, Note_off_c, 0, 77, 64
2, 59760, Note_on_c, 0, 76, 127
2, 59856, Note_off_c, 0, 76, 64
2, 59880, Note_on_c, 0, 81, 127
2, 59976, Note_off_c, 0, 81, 64
2, 60000, Note_on_c, 0, 79, 127
2, 60096, Note_off_c, 0, 79, 64
2, 60120, Note_on_c, 0, 77, 127
2, 60216, Note_off_c, 0, 77, 64
2, 60240, Note_on_c, 0, 76, 127
2, 60336, Note_off_c, 0, 76, 64
2, 60360, Note_on_c, 0, 77, 127
2, 60456, Note_off_c, 0, 77, 64
2, 60480, Note_on_c, 0, 79, 127
2, 60576, Note_off_c, 0, 79, 64
2, 60600, Note_on_c, 0, 76, 127
2, 60696, Note_off_c, 0, 76, 64
2, 60720, Note_on_c, 0, 73, 127
2, 60816, Note_off_c, 0, 73, 64
2, 60840, Note_on_c, 0, 76, 127
2, 60936, Note_off_c, 0, 76, 64
2, 60960, Note_on_c, 0, 69, 127
2, 61056, Note_off_c, 0, 69, 64
2, 61080, Note_on_c, 0, 74, 127
2, 61176, Note_off_c, 0, 74, 64
2, 61200, Note_on_c, 0, 73, 127
2, 61296, Note_off_c, 0, 73, 64
2, 61320, Note_on_c, 0, 77, 127
2, 61416, Note_off_c, 0, 77, 64
2, 61440, Note_on_c, 0, 76, 127
2, 61536, Note_off_c, 0, 76, 64
2, 61560, Note_on_c, 0, 74, 127
2, 61656, Note_off_c, 0, 74, 64
2, 61680, Note_on_c, 0, 73, 127
2, 61776, Note_off_c, 0, 73, 64
2, 61800, Note_on_c, 0, 74, 127
2, 61896, Note_off_c, 0, 74, 64
2, 61920, Note_on_c, 0, 76, 127
2, 62016, Note_off_c, 0, 76, 64
2, 62040, Note_on_c, 0, 73, 127
2, 62136, Note_off_c, 0, 73, 64
2, 62160, Note_on_c, 0, 69, 127
2, 62256, Note_off_c, 0, 69, 64
2, 62280, Note_on_c, 0, 73, 127
2, 62376, Note_off_c, 0, 73, 64
2, 62400, Note_on_c, 0, 64, 127
2, 62496, Note_off_c, 0, 64, 64
2, 62520, Note_on_c, 0, 69, 127
2, 62616, Note_off_c, 0, 69, 64
2, 62640, Note_on_c, 0, 67, 127
2, 62736, Note_off_c, 0, 67, 64
2, 62760, Note_on_c, 0, 70, 127
2, 62856, Note_off_c, 0, 70, 64
2, 62880, Note_on_c, 0, 69, 127
2, 62976, Note_off_c, 0, 69, 64
2, 63000, Note_on_c, 0, 67, 127
2, 63096, Note_off_c, 0, 67, 64
2, 63120, Note_on_c, 0, 66, 127
2, 63216, Note_off_c, 0, 66, 64
2, 63240, Note_on_c, 0, 67, 127
2, 63336, Note_off_c, 0, 67, 64
2, 63360, Note_on_c, 0, 69, 127
2, 63744, Note_off_c, 0, 69, 64
2, 63840, Note_on_c, 0, 62, 127
2, 63960, Note_on_c, 0, 66, 127
2, 64056, Note_off_c, 0, 66, 64
2, 64080, Note_on_c, 0, 67, 127
2, 64176, Note_off_c, 0, 67, 64
2, 64200, Note_on_c, 0, 69, 127
2, 64224, Note_off_c, 0, 62, 64
2, 64296, Note_off_c, 0, 69, 64
2, 64800, Note_on_c, 0, 62, 127
2, 64920, Note_on_c, 0, 67, 127
2, 65016, Note_off_c, 0, 67, 64
2, 65040, Note_on_c, 0, 69, 127
2, 65136, Note_off_c, 0, 69, 64
2, 65160, Note_on_c, 0, 71, 127
2, 65184, Note_off_c, 0, 62, 64
2, 65256, Note_off_c, 0, 71, 64
2, 65760, Note_on_c, 0, 64, 127
2, 65880, Note_on_c, 0, 67, 127
2, 65880, Note_on_c, 0, 67, 127
2, 65976, Note_off_c, 0, 67, 64
2, 66000, Note_on_c, 0, 70, 127
2, 66000, Note_on_c, 0, 70, 127
2, 66096, Note_off_c, 0, 70, 64
2, 66120, Note_on_c, 0, 73, 127
2, 66144, Note_off_c, 0, 64, 64
2, 66168, Note_off_c, 0, 67, 64
2, 66192, Note_off_c, 0, 70, 64
2, 66216, Note_off_c, 0, 73, 64
2, 66240, Note_on_c, 0, 74, 127
2, 66360, Note_on_c, 0, 69, 127
2, 66456, Note_off_c, 0, 69, 64
2, 66480, Note_on_c, 0, 70, 127
2, 66480, Note_on_c, 0, 70, 127
2, 66576, Note_off_c, 0, 70, 64
2, 66600, Note_on_c, 0, 64, 127
2, 66624, Note_off_c, 0, 74, 64
2, 66672, Note_off_c, 0, 70, 64
2, 66696, Note_off_c, 0, 64, 64
2, 66720, Note_on_c, 0, 65, 127
2, 66720, Note_on_c, 0, 74, 127
2, 67296, Note_off_c, 0, 65, 64
2, 67320, Note_on_c, 0, 64, 127
2, 67488, Note_off_c, 0, 74, 64
2, 67560, Note_on_c, 0, 73, 127
2, 67608, Note_off_c, 0, 64, 64
2, 67656, Note_off_c, 0, 73, 64
2, 67680, Note_on_c, 0, 74, 127
2, 67800, Note_on_c, 0, 67, 127
2, 67896, Note_off_c, 0, 67, 64
2, 67920, Note_on_c, 0, 66, 127
2, 68016, Note_off_c, 0, 66, 64
2, 68040, Note_on_c, 0, 64, 127
2, 68064, Note_off_c, 0, 74, 64
2, 68136, Note_off_c, 0, 64, 64
2, 68160, Note_on_c, 0, 66, 127
2, 68280, Note_on_c, 0, 69, 127
2, 68376, Note_off_c, 0, 69, 64
2, 68400, Note_on_c, 0, 74, 127
2, 68496, Note_off_c, 0, 74, 64
2, 68520, Note_on_c, 0, 73, 127
2, 68616, Note_off_c, 0, 73, 64
2, 68640, Note_on_c, 0, 74, 127
2, 69024, Note_off_c, 0, 74, 64
2, 69060, Note_off_c, 0, 66, 64
2, 69060, End_track
3, 0, Start_track
3, 0, Title_t, "J.S. Bach, Edition Kalmus"
3, 0, Program_c, 1, 0
3, 0, Note_on_c, 1, 50, 127
3, 0, Note_on_c, 1, 62, 127
3, 384, Note_off_c, 1, 62, 64
3, 384, Note_off_c, 1, 50, 64
3, 480, Note_on_c, 1, 62, 127
3, 600, Note_on_c, 1, 65, 127
3, 696, Note_off_c, 1, 65, 64
3, 720, Note_on_c, 1, 67, 127
3, 720, Note_on_c, 1, 67, 127
3, 816, Note_off_c, 1, 67, 64
3, 840, Note_on_c, 1, 62, 127
3, 912, Note_off_c, 1, 67, 64
3, 936, Note_off_c, 1, 62, 64
3, 960, Note_on_c, 1, 67, 127
3, 960, Note_on_c, 1, 64, 127
3, 1248, Note_off_c, 1, 62, 64
3, 1344, Note_off_c, 1, 64, 64
3, 1344, Note_off_c, 1, 67, 64
3, 1440, Note_on_c, 1, 61, 127
3, 1440, Note_on_c, 1, 64, 127
3, 1440, Note_on_c, 1, 69, 127
3, 1824, Note_off_c, 1, 69, 64
3, 1824, Note_off_c, 1, 64, 64
3, 1824, Note_off_c, 1, 61, 64
3, 1920, Note_on_c, 1, 60, 127
3, 2688, Note_off_c, 1, 60, 64
3, 2880, Note_on_c, 1, 58, 127
3, 3264, Note_off_c, 1, 58, 64
3, 3360, Note_on_c, 1, 55, 127
3, 3744, Note_off_c, 1, 55, 64
3, 3840, Note_on_c, 1, 56, 127
3, 3840, Note_on_c, 1, 64, 127
3, 4224, Note_off_c, 1, 64, 64
3, 4224, Note_off_c, 1, 56, 64
3, 4320, Note_on_c, 1, 57, 127
3, 4320, Note_on_c, 1, 64, 127
3, 4896, Note_off_c, 1, 64, 64
3, 5040, Note_on_c, 1, 62, 127
3, 5088, Note_off_c, 1, 57, 64
3, 5232, Note_off_c, 1, 62, 64
3, 5280, Note_on_c, 1, 64, 127
3, 5280, Note_on_c, 1, 61, 127
3, 5280, Note_on_c, 1, 55, 127
3, 5664, Note_off_c, 1, 55, 64
3, 5664, Note_off_c, 1, 61, 64
3, 5664, Note_off_c, 1, 64, 64
3, 5760, Note_on_c, 1, 57, 127
3, 5760, Note_on_c, 1, 54, 127
3, 5760, Note_on_c, 1, 62, 127
3, 6144, Note_off_c, 1, 62, 64
3, 6144, Note_off_c, 1, 54, 64
3, 6144, Note_off_c, 1, 57, 64
3, 6240, Note_on_c, 1, 53, 127
3, 6360, Note_on_c, 1, 55, 127
3, 6360, Note_on_c, 1, 55, 127
3, 6456, Note_off_c, 1, 55, 64
3, 6480, Note_on_c, 1, 59, 127
3, 6480, Note_on_c, 1, 59, 127
3, 6576, Note_off_c, 1, 59, 64
3, 6600, Note_on_c, 1, 62, 127
3, 6648, Note_off_c, 1, 55, 64
3, 6696, Note_off_c, 1, 62, 64
3, 6720, Note_on_c, 1, 62, 127
3, 7008, Note_off_c, 1, 53, 64
3, 7104, Note_off_c, 1, 59, 64
3, 7104, Note_off_c, 1, 62, 64
3, 7200, Note_on_c, 1, 59, 127
3, 7200, Note_on_c, 1, 64, 127
3, 7200, Note_on_c, 1, 52, 127
3, 7584, Note_off_c, 1, 52, 64
3, 7584, Note_off_c, 1, 64, 64
3, 7584, Note_off_c, 1, 59, 64
3, 7680, Note_on_c, 1, 55, 127
3, 8064, Note_off_c, 1, 55, 64
3, 8160, Note_on_c, 1, 61, 127
3, 8256, Note_off_c, 1, 61, 64
3, 8280, Note_on_c, 1, 58, 127
3, 8376, Note_off_c, 1, 58, 64
3, 8400, Note_on_c, 1, 55, 127
3, 8496, Note_off_c, 1, 55, 64
3, 8520, Note_on_c, 1, 52, 127
3, 8616, Note_off_c, 1, 52, 64
3, 8640, Note_on_c, 1, 49, 127
3, 8736, Note_off_c, 1, 49, 64
3, 8760, Note_on_c, 1, 52, 127
3, 8856, Note_off_c, 1, 52, 64
3, 8880, Note_on_c, 1, 49, 127
3, 8976, Note_off_c, 1, 49, 64
3, 9000, Note_on_c, 1, 45, 127
3, 9096, Note_off_c, 1, 45, 64
3, 9120, Note_on_c, 1, 50, 127
3, 9240, Note_on_c, 1, 53, 127
3, 9240, Note_on_c, 1, 53, 127
3, 9336, Note_off_c, 1, 53, 64
3, 9360, Note_on_c, 1, 57, 127
3, 9360, Note_on_c, 1, 57, 127
3, 9456, Note_off_c, 1, 57, 64
3, 9480, Note_on_c, 1, 62, 127
3, 9552, Note_off_c, 1, 57, 64
3, 9600, Note_off_c, 1, 53, 64
3, 9792, Note_off_c, 1, 62, 64
3, 9840, Note_on_c, 1, 59, 127
3, 9888, Note_off_c, 1, 50, 64
3, 10032, Note_off_c, 1, 59, 64
3, 10080, Note_on_c, 1, 57, 127
3, 10200, Note_on_c, 1, 59, 127
3, 10296, Note_off_c, 1, 59, 64
3, 10320, Note_on_c, 1, 61, 127
3, 10416, Note_off_c, 1, 61, 64
3, 10440, Note_on_c, 1, 62, 127
3, 10536, Note_off_c, 1, 62, 64
3, 10560, Note_on_c, 1, 64, 127
3, 11136, Note_off_c, 1, 57, 64
3, 11160, Note_on_c, 1, 55, 127
3, 11256, Note_off_c, 1, 55, 64
3, 11280, Note_on_c, 1, 53, 127
3, 11376, Note_off_c, 1, 53, 64
3, 11400, Note_on_c, 1, 52, 127
3, 11424, Note_off_c, 1, 64, 64
3, 11496, Note_off_c, 1, 52, 64
3, 11520, Note_on_c, 1, 50, 127
3, 11520, Note_on_c, 1, 62, 127
3, 11904, Note_off_c, 1, 62, 64
3, 11904, Note_off_c, 1, 50, 64
3, 12000, Note_on_c, 1, 62, 127
3, 12120, Note_on_c, 1, 65, 127
3, 12216, Note_off_c, 1, 65, 64
3, 12240, Note_on_c, 1, 67, 127
3, 12240, Note_on_c, 1, 67, 127
3, 12336, Note_off_c, 1, 67, 64
3, 12360, Note_on_c, 1, 62, 127
3, 12432, Note_off_c, 1, 67, 64
3, 12456, Note_off_c, 1, 62, 64
3, 12480, Note_on_c, 1, 67, 127
3, 12480, Note_on_c, 1, 64, 127
3, 12768, Note_off_c, 1, 62, 64
3, 12864, Note_off_c, 1, 64, 64
3, 12864, Note_off_c, 1, 67, 64
3, 12960, Note_on_c, 1, 61, 127
3, 12960, Note_on_c, 1, 64, 127
3, 12960, Note_on_c, 1, 69, 127
3, 13344, Note_off_c, 1, 69, 64
3, 13344, Note_off_c, 1, 64, 64
3, 13344, Note_off_c, 1, 61, 64
3, 13440, Note_on_c, 1, 60, 127
3, 14208, Note_off_c, 1, 60, 64
3, 14400, Note_on_c, 1, 58, 127
3, 14784, Note_off_c, 1, 58, 64
3, 14880, Note_on_c, 1, 55, 127
3, 15264, Note_off_c, 1, 55, 64
3, 15360, Note_on_c, 1, 56, 127
3, 15360, Note_on_c, 1, 64, 127
3, 15744, Note_off_c, 1, 64, 64
3, 15744, Note_off_c, 1, 56, 64
3, 15840, Note_on_c, 1, 57, 127
3, 15840, Note_on_c, 1, 64, 127
3, 16416, Note_off_c, 1, 64, 64
3, 16560, Note_on_c, 1, 62, 127
3, 16608, Note_off_c, 1, 57, 64
3, 16752, Note_off_c, 1, 62, 64
3, 16800, Note_on_c, 1, 64, 127
3, 16800, Note_on_c, 1, 61, 127
3, 16800, Note_on_c, 1, 55, 127
3, 17184, Note_off_c, 1, 55, 64
3, 17184, Note_off_c, 1, 61, 64
3, 17184, Note_off_c, 1, 64, 64
3, 17280, Note_on_c, 1, 57, 127
3, 17280, Note_on_c, 1, 54, 127
3, 17280, Note_on_c, 1, 62, 127
3, 17664, Note_off_c, 1, 62, 64
3, 17664, Note_off_c, 1, 54, 64
3, 17664, Note_off_c, 1, 57, 64
3, 17760, Note_on_c, 1, 53, 127
3, 17880, Note_on_c, 1, 55, 127
3, 17880, Note_on_c, 1, 55, 127
3, 17976, Note_off_c, 1, 55, 64
3, 18000, Note_on_c, 1, 59, 127
3, 18000, Note_on_c, 1, 59, 127
3, 18096, Note_off_c, 1, 59, 64
3, 18120, Note_on_c, 1, 62, 127
3, 18168, Note_off_c, 1, 55, 64
3, 18216, Note_off_c, 1, 62, 64
3, 18240, Note_on_c, 1, 62, 127
3, 18528, Note_off_c, 1, 53, 64
3, 18624, Note_off_c, 1, 59, 64
3, 18624, Note_off_c, 1, 62, 64
3, 18720, Note_on_c, 1, 59, 127
3, 18720, Note_on_c, 1, 64, 127
3, 18720, Note_on_c, 1, 52, 127
3, 19104, Note_off_c, 1, 52, 64
3, 19104, Note_off_c, 1, 64, 64
3, 19104, Note_off_c, 1, 59, 64
3, 19200, Note_on_c, 1, 55, 127
3, 19584, Note_off_c, 1, 55, 64
3, 19680, Note_on_c, 1, 61, 127
3, 19776, Note_off_c, 1, 61, 64
3, 19800, Note_on_c, 1, 58, 127
3, 19896, Note_off_c, 1, 58, 64
3, 19920, Note_on_c, 1, 55, 127
3, 20016, Note_off_c, 1, 55, 64
3, 20040, Note_on_c, 1, 52, 127
3, 20136, Note_off_c, 1, 52, 64
3, 20160, Note_on_c, 1, 49, 127
3, 20256, Note_off_c, 1, 49, 64
3, 20280, Note_on_c, 1, 52, 127
3, 20376, Note_off_c, 1, 52, 64
3, 20400, Note_on_c, 1, 49, 127
3, 20496, Note_off_c, 1, 49, 64
3, 20520, Note_on_c, 1, 45, 127
3, 20616, Note_off_c, 1, 45, 64
3, 20640, Note_on_c, 1, 50, 127
3, 20760, Note_on_c, 1, 53, 127
3, 20760, Note_on_c, 1, 53, 127
3, 20856, Note_off_c, 1, 53, 64
3, 20880, Note_on_c, 1, 57, 127
3, 20880, Note_on_c, 1, 57, 127
3, 20976, Note_off_c, 1, 57, 64
3, 21000, Note_on_c, 1, 62, 127
3, 21072, Note_off_c, 1, 57, 64
3, 21120, Note_off_c, 1, 53, 64
3, 21312, Note_off_c, 1, 62, 64
3, 21360, Note_on_c, 1, 59, 127
3, 21408, Note_off_c, 1, 50, 64
3, 21552, Note_off_c, 1, 59, 64
3, 21600, Note_on_c, 1, 57, 127
3, 21720, Note_on_c, 1, 59, 127
3, 21816, Note_off_c, 1, 59, 64
3, 21840, Note_on_c, 1, 61, 127
3, 21936, Note_off_c, 1, 61, 64
3, 21960, Note_on_c, 1, 62, 127
3, 22056, Note_off_c, 1, 62, 64
3, 22080, Note_on_c, 1, 64, 127
3, 22944, Note_off_c, 1, 64, 64
3, 23010, Note_off_c, 1, 57, 64
3, 23040, Note_on_c, 1, 57, 127
3, 23160, Note_on_c, 1, 62, 127
3, 23256, Note_off_c, 1, 62, 64
3, 23280, Note_on_c, 1, 61, 127
3, 23424, Note_off_c, 1, 57, 64
3, 23520, Note_on_c, 1, 55, 127
3, 24096, Note_off_c, 1, 55, 64
3, 24120, Note_on_c, 1, 58, 127
3, 24216, Note_off_c, 1, 58, 64
3, 24240, Note_on_c, 1, 57, 127
3, 24336, Note_off_c, 1, 57, 64
3, 24360, Note_on_c, 1, 60, 127
3, 24456, Note_off_c, 1, 60, 64
3, 24480, Note_on_c, 1, 58, 127
3, 24576, Note_off_c, 1, 58, 64
3, 24600, Note_on_c, 1, 55, 127
3, 24696, Note_off_c, 1, 55, 64
3, 24720, Note_on_c, 1, 57, 127
3, 24816, Note_off_c, 1, 57, 64
3, 24840, Note_on_c, 1, 58, 127
3, 24864, Note_off_c, 1, 61, 64
3, 24936, Note_off_c, 1, 58, 64
3, 24960, Note_on_c, 1, 57, 127
3, 24960, Note_on_c, 1, 60, 127
3, 25344, Note_off_c, 1, 60, 64
3, 25560, Note_on_c, 1, 63, 127
3, 25656, Note_off_c, 1, 63, 64
3, 25680, Note_on_c, 1, 62, 127
3, 25728, Note_off_c, 1, 57, 64
3, 25776, Note_off_c, 1, 62, 64
3, 25800, Note_on_c, 1, 60, 127
3, 25896, Note_off_c, 1, 60, 64
3, 25920, Note_on_c, 1, 58, 127
3, 25920, Note_on_c, 1, 58, 127
3, 26112, Note_off_c, 1, 58, 64
3, 26160, Note_on_c, 1, 57, 127
3, 26304, Note_off_c, 1, 58, 64
3, 26352, Note_off_c, 1, 57, 64
3, 26400, Note_on_c, 1, 55, 127
3, 26400, Note_on_c, 1, 58, 127
3, 26784, Note_off_c, 1, 58, 64
3, 26784, Note_off_c, 1, 55, 64
3, 26880, Note_on_c, 1, 53, 127
3, 27000, Note_on_c, 1, 60, 127
3, 27096, Note_off_c, 1, 60, 64
3, 27120, Note_on_c, 1, 62, 127
3, 27216, Note_off_c, 1, 62, 64
3, 27240, Note_on_c, 1, 59, 127
3, 27264, Note_off_c, 1, 53, 64
3, 27336, Note_off_c, 1, 59, 64
3, 27360, Note_on_c, 1, 60, 127
3, 27600, Note_on_c, 1, 55, 127
3, 27792, Note_off_c, 1, 55, 64
3, 27840, Note_on_c, 1, 52, 127
3, 28032, Note_off_c, 1, 52, 64
3, 28080, Note_on_c, 1, 55, 127
3, 28128, Note_off_c, 1, 60, 64
3, 28272, Note_off_c, 1, 55, 64
3, 28320, Note_on_c, 1, 60, 127
3, 28320, Note_on_c, 1, 58, 127
3, 28704, Note_off_c, 1, 58, 64
3, 28704, Note_off_c, 1, 60, 64
3, 28800, Note_on_c, 1, 57, 127
3, 28920, Note_on_c, 1, 60, 127
3, 29016, Note_off_c, 1, 60, 64
3, 29040, Note_on_c, 1, 65, 127
3, 29136, Note_off_c, 1, 65, 64
3, 29160, Note_on_c, 1, 67, 127
3, 29256, Note_off_c, 1, 67, 64
3, 29376, Note_off_c, 1, 57, 64
3, 29520, Note_on_c, 1, 55, 127
3, 29712, Note_off_c, 1, 55, 64
3, 29760, Note_on_c, 1, 53, 127
3, 29952, Note_off_c, 1, 53, 64
3, 30000, Note_on_c, 1, 57, 127
3, 30192, Note_off_c, 1, 57, 64
3, 30240, Note_on_c, 1, 58, 127
3, 30360, Note_on_c, 1, 62, 127
3, 30456, Note_off_c, 1, 62, 64
3, 30480, Note_on_c, 1, 67, 127
3, 30576, Note_off_c, 1, 67, 64
3, 30600, Note_on_c, 1, 69, 127
3, 30696, Note_off_c, 1, 69, 64
3, 30816, Note_off_c, 1, 58, 64
3, 30960, Note_on_c, 1, 57, 127
3, 31152, Note_off_c, 1, 57, 64
3, 31200, Note_on_c, 1, 55, 127
3, 31392, Note_off_c, 1, 55, 64
3, 31440, Note_on_c, 1, 58, 127
3, 31440, Note_on_c, 1, 67, 127
3, 31440, Note_on_c, 1, 60, 127
3, 31632, Note_off_c, 1, 67, 64
3, 31632, Note_off_c, 1, 58, 64
3, 31680, Note_on_c, 1, 57, 127
3, 31872, Note_off_c, 1, 60, 64
3, 31872, Note_off_c, 1, 57, 64
3, 31920, Note_on_c, 1, 58, 127
3, 31920, Note_on_c, 1, 65, 127
3, 32112, Note_off_c, 1, 58, 64
3, 32160, Note_on_c, 1, 60, 127
3, 32352, Note_off_c, 1, 65, 64
3, 32400, Note_on_c, 1, 64, 127
3, 32496, Note_off_c, 1, 64, 64
3, 32520, Note_on_c, 1, 62, 127
3, 32616, Note_off_c, 1, 62, 64
3, 32640, Note_on_c, 1, 60, 127
3, 32736, Note_off_c, 1, 60, 64
3, 32880, Note_on_c, 1, 48, 127
3, 33024, Note_off_c, 1, 60, 64
3, 33072, Note_off_c, 1, 48, 64
3, 33120, Note_on_c, 1, 53, 127
3, 33888, Note_off_c, 1, 53, 64
3, 34080, Note_on_c, 1, 60, 127
3, 34200, Note_on_c, 1, 58, 127
3, 34296, Note_off_c, 1, 58, 64
3, 34320, Note_on_c, 1, 57, 127
3, 34416, Note_off_c, 1, 57, 64
3, 34440, Note_on_c, 1, 55, 127
3, 34464, Note_off_c, 1, 60, 64
3, 34536, Note_off_c, 1, 55, 64
3, 34560, Note_on_c, 1, 54, 127
3, 34680, Note_on_c, 1, 57, 127
3, 34680, Note_on_c, 1, 57, 127
3, 34776, Note_off_c, 1, 57, 64
3, 34800, Note_on_c, 1, 62, 127
3, 34800, Note_on_c, 1, 62, 127
3, 34896, Note_off_c, 1, 62, 64
3, 34920, Note_on_c, 1, 66, 127
3, 34968, Note_off_c, 1, 57, 64
3, 34992, Note_off_c, 1, 62, 64
3, 35016, Note_off_c, 1, 66, 64
3, 35136, Note_off_c, 1, 54, 64
3, 35160, Note_on_c, 1, 55, 127
3, 35256, Note_off_c, 1, 55, 64
3, 35280, Note_on_c, 1, 57, 127
3, 35376, Note_off_c, 1, 57, 64
3, 35400, Note_on_c, 1, 58, 127
3, 35496, Note_off_c, 1, 58, 64
3, 35520, Note_on_c, 1, 60, 127
3, 35616, Note_off_c, 1, 60, 64
3, 35640, Note_on_c, 1, 62, 127
3, 35736, Note_off_c, 1, 62, 64
3, 35760, Note_on_c, 1, 64, 127
3, 35856, Note_off_c, 1, 64, 64
3, 35880, Note_on_c, 1, 66, 127
3, 35976, Note_off_c, 1, 66, 64
3, 36000, Note_on_c, 1, 67, 127
3, 36240, Note_on_c, 1, 55, 127
3, 36432, Note_off_c, 1, 55, 64
3, 36480, Note_on_c, 1, 57, 127
3, 36576, Note_off_c, 1, 67, 64
3, 36720, Note_on_c, 1, 61, 127
3, 36864, Note_off_c, 1, 57, 64
3, 36912, Note_off_c, 1, 61, 64
3, 36960, Note_on_c, 1, 58, 127
3, 37200, Note_on_c, 1, 62, 127
3, 37344, Note_off_c, 1, 58, 64
3, 37392, Note_off_c, 1, 62, 64
3, 37440, Note_on_c, 1, 52, 127
3, 37680, Note_on_c, 1, 55, 127
3, 37824, Note_off_c, 1, 52, 64
3, 37872, Note_off_c, 1, 55, 64
3, 37920, Note_on_c, 1, 53, 127
3, 38160, Note_on_c, 1, 57, 127
3, 38304, Note_off_c, 1, 53, 64
3, 38352, Note_off_c, 1, 57, 64
3, 38400, Note_on_c, 1, 55, 127
3, 38640, Note_on_c, 1, 58, 127
3, 38784, Note_off_c, 1, 55, 64
3, 38832, Note_off_c, 1, 58, 64
3, 38880, Note_on_c, 1, 49, 127
3, 39120, Note_on_c, 1, 52, 127
3, 39312, Note_off_c, 1, 52, 64
3, 39360, Note_on_c, 1, 57, 127
3, 39552, Note_off_c, 1, 57, 64
3, 39600, Note_on_c, 1, 52, 127
3, 39648, Note_off_c, 1, 49, 64
3, 39792, Note_off_c, 1, 52, 64
3, 39840, Note_on_c, 1, 49, 127
3, 40032, Note_off_c, 1, 49, 64
3, 40080, Note_on_c, 1, 45, 127
3, 40272, Note_off_c, 1, 45, 64
3, 40320, Note_on_c, 1, 48, 127
3, 40440, Note_on_c, 1, 50, 127
3, 40440, Note_on_c, 1, 50, 127
3, 40536, Note_off_c, 1, 50, 64
3, 40560, Note_on_c, 1, 54, 127
3, 40560, Note_on_c, 1, 54, 127
3, 40656, Note_off_c, 1, 54, 64
3, 40680, Note_on_c, 1, 57, 127
3, 41088, Note_off_c, 1, 48, 64
3, 41184, Note_off_c, 1, 57, 64
3, 41184, Note_off_c, 1, 54, 64
3, 41184, Note_off_c, 1, 50, 64
3, 41280, Note_on_c, 1, 47, 127
3, 41400, Note_on_c, 1, 50, 127
3, 41400, Note_on_c, 1, 50, 127
3, 41496, Note_off_c, 1, 50, 64
3, 41520, Note_on_c, 1, 55, 127
3, 41520, Note_on_c, 1, 55, 127
3, 41616, Note_off_c, 1, 55, 64
3, 41640, Note_on_c, 1, 59, 127
3, 42144, Note_off_c, 1, 50, 64
3, 42144, Note_off_c, 1, 55, 64
3, 42144, Note_off_c, 1, 47, 64
3, 42144, Note_off_c, 1, 59, 64
3, 42240, Note_on_c, 1, 46, 127
3, 42360, Note_on_c, 1, 52, 127
3, 42360, Note_on_c, 1, 52, 127
3, 42456, Note_off_c, 1, 52, 64
3, 42480, Note_on_c, 1, 55, 127
3, 42480, Note_on_c, 1, 55, 127
3, 42576, Note_off_c, 1, 55, 64
3, 42600, Note_on_c, 1, 61, 127
3, 42696, Note_off_c, 1, 61, 64
3, 43008, Note_off_c, 1, 46, 64
3, 43104, Note_off_c, 1, 52, 64
3, 43104, Note_off_c, 1, 55, 64
3, 43200, Note_on_c, 1, 53, 127
3, 43200, Note_on_c, 1, 45, 127
3, 43392, Note_off_c, 1, 45, 64
3, 43392, Note_off_c, 1, 53, 64
3, 43440, Note_on_c, 1, 52, 127
3, 43440, Note_on_c, 1, 43, 127
3, 43632, Note_off_c, 1, 43, 64
3, 43632, Note_off_c, 1, 52, 64
3, 43680, Note_on_c, 1, 45, 127
3, 43776, Note_off_c, 1, 45, 64
3, 43800, Note_on_c, 1, 61, 127
3, 43896, Note_off_c, 1, 61, 64
3, 43920, Note_on_c, 1, 62, 127
3, 43920, Note_on_c, 1, 62, 127
3, 44016, Note_off_c, 1, 62, 64
3, 44040, Note_on_c, 1, 56, 127
3, 44112, Note_off_c, 1, 62, 64
3, 44136, Note_off_c, 1, 56, 64
3, 44160, Note_on_c, 1, 57, 127
3, 44400, Note_on_c, 1, 45, 127
3, 44544, Note_off_c, 1, 57, 64
3, 44592, Note_off_c, 1, 45, 64
3, 44640, Note_on_c, 1, 50, 127
3, 44760, Note_on_c, 1, 58, 127
3, 44856, Note_off_c, 1, 58, 64
3, 44880, Note_on_c, 1, 57, 127
3, 44976, Note_off_c, 1, 57, 64
3, 45000, Note_on_c, 1, 55, 127
3, 45096, Note_off_c, 1, 55, 64
3, 45120, Note_on_c, 1, 57, 127
3, 45696, Note_off_c, 1, 50, 64
3, 45720, Note_on_c, 1, 62, 127
3, 45816, Note_off_c, 1, 62, 64
3, 45840, Note_on_c, 1, 61, 127
3, 45888, Note_off_c, 1, 57, 64
3, 45936, Note_off_c, 1, 61, 64
3, 45960, Note_on_c, 1, 59, 127
3, 46056, Note_off_c, 1, 59, 64
3, 46080, Note_on_c, 1, 57, 127
3, 46200, Note_on_c, 1, 62, 127
3, 46296, Note_off_c, 1, 62, 64
3, 46320, Note_on_c, 1, 61, 127
3, 46464, Note_off_c, 1, 57, 64
3, 46560, Note_on_c, 1, 55, 127
3, 47136, Note_off_c, 1, 55, 64
3, 47160, Note_on_c, 1, 58, 127
3, 47256, Note_off_c, 1, 58, 64
3, 47280, Note_on_c, 1, 57, 127
3, 47376, Note_off_c, 1, 57, 64
3, 47400, Note_on_c, 1, 60, 127
3, 47496, Note_off_c, 1, 60, 64
3, 47520, Note_on_c, 1, 58, 127
3, 47616, Note_off_c, 1, 58, 64
3, 47640, Note_on_c, 1, 55, 127
3, 47736, Note_off_c, 1, 55, 64
3, 47760, Note_on_c, 1, 57, 127
3, 47856, Note_off_c, 1, 57, 64
3, 47880, Note_on_c, 1, 58, 127
3, 47904, Note_off_c, 1, 61, 64
3, 47976, Note_off_c, 1, 58, 64
3, 48000, Note_on_c, 1, 57, 127
3, 48000, Note_on_c, 1, 60, 127
3, 48384, Note_off_c, 1, 60, 64
3, 48600, Note_on_c, 1, 63, 127
3, 48696, Note_off_c, 1, 63, 64
3, 48720, Note_on_c, 1, 62, 127
3, 48768, Note_off_c, 1, 57, 64
3, 48816, Note_off_c, 1, 62, 64
3, 48840, Note_on_c, 1, 60, 127
3, 48936, Note_off_c, 1, 60, 64
3, 48960, Note_on_c, 1, 58, 127
3, 48960, Note_on_c, 1, 58, 127
3, 49152, Note_off_c, 1, 58, 64
3, 49200, Note_on_c, 1, 57, 127
3, 49344, Note_off_c, 1, 58, 64
3, 49392, Note_off_c, 1, 57, 64
3, 49440, Note_on_c, 1, 55, 127
3, 49440, Note_on_c, 1, 58, 127
3, 49824, Note_off_c, 1, 58, 64
3, 49824, Note_off_c, 1, 55, 64
3, 49920, Note_on_c, 1, 53, 127
3, 50040, Note_on_c, 1, 60, 127
3, 50136, Note_off_c, 1, 60, 64
3, 50160, Note_on_c, 1, 62, 127
3, 50256, Note_off_c, 1, 62, 64
3, 50280, Note_on_c, 1, 59, 127
3, 50304, Note_off_c, 1, 53, 64
3, 50376, Note_off_c, 1, 59, 64
3, 50400, Note_on_c, 1, 60, 127
3, 50640, Note_on_c, 1, 55, 127
3, 50832, Note_off_c, 1, 55, 64
3, 50880, Note_on_c, 1, 52, 127
3, 51072, Note_off_c, 1, 52, 64
3, 51120, Note_on_c, 1, 55, 127
3, 51168, Note_off_c, 1, 60, 64
3, 51312, Note_off_c, 1, 55, 64
3, 51360, Note_on_c, 1, 60, 127
3, 51360, Note_on_c, 1, 58, 127
3, 51744, Note_off_c, 1, 58, 64
3, 51744, Note_off_c, 1, 60, 64
3, 51840, Note_on_c, 1, 57, 127
3, 51960, Note_on_c, 1, 60, 127
3, 52056, Note_off_c, 1, 60, 64
3, 52080, Note_on_c, 1, 65, 127
3, 52176, Note_off_c, 1, 65, 64
3, 52200, Note_on_c, 1, 67, 127
3, 52296, Note_off_c, 1, 67, 64
3, 52416, Note_off_c, 1, 57, 64
3, 52560, Note_on_c, 1, 55, 127
3, 52752, Note_off_c, 1, 55, 64
3, 52800, Note_on_c, 1, 53, 127
3, 52992, Note_off_c, 1, 53, 64
3, 53040, Note_on_c, 1, 57, 127
3, 53232, Note_off_c, 1, 57, 64
3, 53280, Note_on_c, 1, 58, 127
3, 53400, Note_on_c, 1, 62, 127
3, 53496, Note_off_c, 1, 62, 64
3, 53520, Note_on_c, 1, 67, 127
3, 53616, Note_off_c, 1, 67, 64
3, 53640, Note_on_c, 1, 69, 127
3, 53736, Note_off_c, 1, 69, 64
3, 53856, Note_off_c, 1, 58, 64
3, 54000, Note_on_c, 1, 57, 127
3, 54192, Note_off_c, 1, 57, 64
3, 54240, Note_on_c, 1, 55, 127
3, 54432, Note_off_c, 1, 55, 64
3, 54480, Note_on_c, 1, 58, 127
3, 54480, Note_on_c, 1, 67, 127
3, 54480, Note_on_c, 1, 60, 127
3, 54672, Note_off_c, 1, 67, 64
3, 54672, Note_off_c, 1, 58, 64
3, 54720, Note_on_c, 1, 57, 127
3, 54912, Note_off_c, 1, 60, 64
3, 54912, Note_off_c, 1, 57, 64
3, 54960, Note_on_c, 1, 58, 127
3, 54960, Note_on_c, 1, 65, 127
3, 55152, Note_off_c, 1, 58, 64
3, 55200, Note_on_c, 1, 60, 127
3, 55392, Note_off_c, 1, 65, 64
3, 55440, Note_on_c, 1, 64, 127
3, 55536, Note_off_c, 1, 64, 64
3, 55560, Note_on_c, 1, 62, 127
3, 55656, Note_off_c, 1, 62, 64
3, 55680, Note_on_c, 1, 60, 127
3, 55776, Note_off_c, 1, 60, 64
3, 55920, Note_on_c, 1, 48, 127
3, 56064, Note_off_c, 1, 60, 64
3, 56112, Note_off_c, 1, 48, 64
3, 56160, Note_on_c, 1, 53, 127
3, 56928, Note_off_c, 1, 53, 64
3, 57120, Note_on_c, 1, 60, 127
3, 57240, Note_on_c, 1, 58, 127
3, 57336, Note_off_c, 1, 58, 64
3, 57360, Note_on_c, 1, 57, 127
3, 57456, Note_off_c, 1, 57, 64
3, 57480, Note_on_c, 1, 55, 127
3, 57504, Note_off_c, 1, 60, 64
3, 57576, Note_off_c, 1, 55, 64
3, 57600, Note_on_c, 1, 54, 127
3, 57720, Note_on_c, 1, 57, 127
3, 57720, Note_on_c, 1, 57, 127
3, 57816, Note_off_c, 1, 57, 64
3, 57840, Note_on_c, 1, 62, 127
3, 57840, Note_on_c, 1, 62, 127
3, 57936, Note_off_c, 1, 62, 64
3, 57960, Note_on_c, 1, 66, 127
3, 58008, Note_off_c, 1, 57, 64
3, 58032, Note_off_c, 1, 62, 64
3, 58056, Note_off_c, 1, 66, 64
3, 58176, Note_off_c, 1, 54, 64
3, 58200, Note_on_c, 1, 55, 127
3, 58296, Note_off_c, 1, 55, 64
3, 58320, Note_on_c, 1, 57, 127
3, 58416, Note_off_c, 1, 57, 64
3, 58440, Note_on_c, 1, 58, 127
3, 58536, Note_off_c, 1, 58, 64
3, 58560, Note_on_c, 1, 60, 127
3, 58656, Note_off_c, 1, 60, 64
3, 58680, Note_on_c, 1, 62, 127
3, 58776, Note_off_c, 1, 62, 64
3, 58800, Note_on_c, 1, 64, 127
3, 58896, Note_off_c, 1, 64, 64
3, 58920, Note_on_c, 1, 66, 127
3, 59016, Note_off_c, 1, 66, 64
3, 59040, Note_on_c, 1, 67, 127
3, 59280, Note_on_c, 1, 55, 127
3, 59472, Note_off_c, 1, 55, 64
3, 59520, Note_on_c, 1, 57, 127
3, 59616, Note_off_c, 1, 67, 64
3, 59760, Note_on_c, 1, 61, 127
3, 59904, Note_off_c, 1, 57, 64
3, 59952, Note_off_c, 1, 61, 64
3, 60000, Note_on_c, 1, 58, 127
3, 60240, Note_on_c, 1, 62, 127
3, 60384, Note_off_c, 1, 58, 64
3, 60432, Note_off_c, 1, 62, 64
3, 60480, Note_on_c, 1, 52, 127
3, 60720, Note_on_c, 1, 55, 127
3, 60864, Note_off_c, 1, 52, 64
3, 60912, Note_off_c, 1, 55, 64
3, 60960, Note_on_c, 1, 53, 127
3, 61200, Note_on_c, 1, 57, 127
3, 61344, Note_off_c, 1, 53, 64
3, 61392, Note_off_c, 1, 57, 64
3, 61440, Note_on_c, 1, 55, 127
3, 61680, Note_on_c, 1, 58, 127
3, 61824, Note_off_c, 1, 55, 64
3, 61872, Note_off_c, 1, 58, 64
3, 61920, Note_on_c, 1, 49, 127
3, 62160, Note_on_c, 1, 52, 127
3, 62352, Note_off_c, 1, 52, 64
3, 62400, Note_on_c, 1, 57, 127
3, 62592, Note_off_c, 1, 57, 64
3, 62640, Note_on_c, 1, 52, 127
3, 62688, Note_off_c, 1, 49, 64
3, 62832, Note_off_c, 1, 52, 64
3, 62880, Note_on_c, 1, 49, 127
3, 63072, Note_off_c, 1, 49, 64
3, 63120, Note_on_c, 1, 45, 127
3, 63312, Note_off_c, 1, 45, 64
3, 63360, Note_on_c, 1, 48, 127
3, 63480, Note_on_c, 1, 50, 127
3, 63480, Note_on_c, 1, 50, 127
3, 63576, Note_off_c, 1, 50, 64
3, 63600, Note_on_c, 1, 54, 127
3, 63600, Note_on_c, 1, 54, 127
3, 63696, Note_off_c, 1, 54, 64
3, 63720, Note_on_c, 1, 57, 127
3, 64128, Note_off_c, 1, 48, 64
3, 64224, Note_off_c, 1, 57, 64
3, 64224, Note_off_c, 1, 54, 64
3, 64224, Note_off_c, 1, 50, 64
3, 64320, Note_on_c, 1, 47, 127
3, 64440, Note_on_c, 1, 50, 127
3, 64440, Note_on_c, 1, 50, 127
3, 64536, Note_off_c, 1, 50, 64
3, 64560, Note_on_c, 1, 55, 127
3, 64560, Note_on_c, 1, 55, 127
3, 64656, Note_off_c, 1, 55, 64
3, 64680, Note_on_c, 1, 59, 127
3, 65184, Note_off_c, 1, 50, 64
3, 65184, Note_off_c, 1, 55, 64
3, 65184, Note_off_c, 1, 47, 64
3, 65184, Note_off_c, 1, 59, 64
3, 65280, Note_on_c, 1, 46, 127
3, 65400, Note_on_c, 1, 52, 127
3, 65400, Note_on_c, 1, 52, 127
3, 65496, Note_off_c, 1, 52, 64
3, 65520, Note_on_c, 1, 55, 127
3, 65520, Note_on_c, 1, 55, 127
3, 65616, Note_off_c, 1, 55, 64
3, 65640, Note_on_c, 1, 61, 127
3, 65736, Note_off_c, 1, 61, 64
3, 66048, Note_off_c, 1, 46, 64
3, 66144, Note_off_c, 1, 52, 64
3, 66144, Note_off_c, 1, 55, 64
3, 66240, Note_on_c, 1, 53, 127
3, 66240, Note_on_c, 1, 45, 127
3, 66432, Note_off_c, 1, 45, 64
3, 66432, Note_off_c, 1, 53, 64
3, 66480, Note_on_c, 1, 52, 127
3, 66480, Note_on_c, 1, 43, 127
3, 66672, Note_off_c, 1, 43, 64
3, 66672, Note_off_c, 1, 52, 64
3, 66720, Note_on_c, 1, 45, 127
3, 66816, Note_off_c, 1, 45, 64
3, 66840, Note_on_c, 1, 61, 127
3, 66936, Note_off_c, 1, 61, 64
3, 66960, Note_on_c, 1, 62, 127
3, 66960, Note_on_c, 1, 62, 127
3, 67056, Note_off_c, 1, 62, 64
3, 67080, Note_on_c, 1, 56, 127
3, 67152, Note_off_c, 1, 62, 64
3, 67176, Note_off_c, 1, 56, 64
3, 67200, Note_on_c, 1, 57, 127
3, 67440, Note_on_c, 1, 45, 127
3, 67584, Note_off_c, 1, 57, 64
3, 67632, Note_off_c, 1, 45, 64
3, 67680, Note_on_c, 1, 50, 127
3, 67800, Note_on_c, 1, 58, 127
3, 67896, Note_off_c, 1, 58, 64
3, 67920, Note_on_c, 1, 57, 127
3, 68016, Note_off_c, 1, 57, 64
3, 68040, Note_on_c, 1, 55, 127
3, 68136, Note_off_c, 1, 55, 64
3, 68160, Note_on_c, 1, 57, 127
3, 68832, Note_off_c, 1, 50, 64
3, 68928, Note_off_c, 1, 57, 64
3, 68928, End_track
4, 0, Start_track
4, 0, Title_t, "Arr. Gary Bricault, (c) 1997"
4, 0, End_track
0, 0, End_of_file
