0, 0, Header, 1, 9, 192
1, 0, Start_track
1, 0, Title_t, "untitled"
1, 0, SMPTE_offset, 96, 0, 3, 0, 0
1, 0, Time_signature, 2, 2, 24, 8
1, 0, Key_signature, -1, "major"
1, 0, Tempo, 545455
1, 13632, Tempo, 666667
1, 13824, Tempo, 545455
1, 56640, Tempo, 666667
1, 56832, Tempo, 1200000
1, 56832, End_track
2, 0, Start_track
2, 0, MIDI_port, 0
2, 0, Title_t, "R.H."
2, 0, Program_c, 0, 0
2, 0, Control_c, 0, 7, 127
2, 0, Control_c, 0, 10, 64
2, 0, Note_on_c, 0, 65, 110
2, 160, Note_on_c, 0, 65, 0
2, 192, Note_on_c, 0, 69, 110
2, 352, Note_on_c, 0, 69, 0
2, 384, Note_on_c, 0, 72, 110
2, 640, Note_on_c, 0, 72, 0
2, 672, Note_on_c, 0, 70, 110
2, 718, Note_on_c, 0, 70, 0
2, 720, Note_on_c, 0, 69, 110
2, 766, Note_on_c, 0, 69, 0
2, 768, Note_on_c, 0, 70, 110
2, 800, Note_on_c, 0, 70, 0
2, 864, Note_on_c, 0, 72, 110
2, 896, Note_on_c, 0, 72, 0
2, 960, Note_on_c, 0, 74, 110
2, 992, Note_on_c, 0, 74, 0
2, 1056, Note_on_c, 0, 76, 110
2, 1088, Note_on_c, 0, 76, 0
2, 1152, Note_on_c, 0, 77, 110
2, 1184, Note_on_c, 0, 77, 0
2, 1248, Note_on_c, 0, 72, 110
2, 1344, Note_on_c, 0, 72, 0
2, 1344, Note_on_c, 0, 77, 110
2, 1440, Note_on_c, 0, 77, 0
2, 1440, Note_on_c, 0, 81, 110
2, 1536, Note_on_c, 0, 81, 0
2, 1536, Note_on_c, 0, 79, 110
2, 1582, Note_on_c, 0, 79, 0
2, 1584, Note_on_c, 0, 77, 110
2, 1630, Note_on_c, 0, 77, 0
2, 1632, Note_on_c, 0, 76, 110
2, 1678, Note_on_c, 0, 76, 0
2, 1680, Note_on_c, 0, 74, 110
2, 1726, Note_on_c, 0, 74, 0
2, 1728, Note_on_c, 0, 72, 110
2, 1774, Note_on_c, 0, 72, 0
2, 1776, Note_on_c, 0, 70, 110
2, 1822, Note_on_c, 0, 70, 0
2, 1824, Note_on_c, 0, 69, 110
2, 1870, Note_on_c, 0, 69, 0
2, 1872, Note_on_c, 0, 67, 110
2, 1918, Note_on_c, 0, 67, 0
2, 1920, Note_on_c, 0, 69, 110
2, 1966, Note_on_c, 0, 69, 0
2, 1968, Note_on_c, 0, 72, 110
2, 2014, Note_on_c, 0, 72, 0
2, 2016, Note_on_c, 0, 65, 110
2, 2062, Note_on_c, 0, 65, 0
2, 2064, Note_on_c, 0, 69, 110
2, 2110, Note_on_c, 0, 69, 0
2, 2112, Note_on_c, 0, 74, 110
2, 2398, Note_on_c, 0, 74, 0
2, 2400, Note_on_c, 0, 74, 110
2, 2410, Note_on_c, 0, 74, 0
2, 2412, Note_on_c, 0, 72, 110
2, 2422, Note_on_c, 0, 72, 0
2, 2424, Note_on_c, 0, 74, 110
2, 2434, Note_on_c, 0, 74, 0
2, 2436, Note_on_c, 0, 72, 110
2, 2446, Note_on_c, 0, 72, 0
2, 2448, Note_on_c, 0, 71, 110
2, 2494, Note_on_c, 0, 71, 0
2, 2496, Note_on_c, 0, 72, 110
2, 2542, Note_on_c, 0, 72, 0
2, 2544, Note_on_c, 0, 76, 110
2, 2590, Note_on_c, 0, 76, 0
2, 2592, Note_on_c, 0, 74, 110
2, 2638, Note_on_c, 0, 74, 0
2, 2640, Note_on_c, 0, 77, 110
2, 2686, Note_on_c, 0, 77, 0
2, 2688, Note_on_c, 0, 76, 110
2, 2734, Note_on_c, 0, 76, 0
2, 2736, Note_on_c, 0, 74, 110
2, 2782, Note_on_c, 0, 74, 0
2, 2784, Note_on_c, 0, 72, 110
2, 2830, Note_on_c, 0, 72, 0
2, 2832, Note_on_c, 0, 71, 110
2, 2878, Note_on_c, 0, 71, 0
2, 2880, Note_on_c, 0, 69, 110
2, 2926, Note_on_c, 0, 69, 0
2, 2928, Note_on_c, 0, 72, 110
2, 2974, Note_on_c, 0, 72, 0
2, 2976, Note_on_c, 0, 67, 110
2, 3022, Note_on_c, 0, 67, 0
2, 3024, Note_on_c, 0, 72, 110
2, 3070, Note_on_c, 0, 72, 0
2, 3072, Note_on_c, 0, 65, 110
2, 3118, Note_on_c, 0, 65, 0
2, 3120, Note_on_c, 0, 76, 110
2, 3166, Note_on_c, 0, 76, 0
2, 3168, Note_on_c, 0, 74, 110
2, 3214, Note_on_c, 0, 74, 0
2, 3216, Note_on_c, 0, 72, 110
2, 3262, Note_on_c, 0, 72, 0
2, 3264, Note_on_c, 0, 71, 110
2, 3310, Note_on_c, 0, 71, 0
2, 3312, Note_on_c, 0, 74, 110
2, 3358, Note_on_c, 0, 74, 0
2, 3360, Note_on_c, 0, 67, 110
2, 3406, Note_on_c, 0, 67, 0
2, 3408, Note_on_c, 0, 71, 110
2, 3454, Note_on_c, 0, 71, 0
2, 3456, Note_on_c, 0, 72, 110
2, 3694, Note_on_c, 0, 72, 0
2, 3696, Note_on_c, 0, 76, 110
2, 3742, Note_on_c, 0, 76, 0
2, 3744, Note_on_c, 0, 69, 110
2, 3790, Note_on_c, 0, 69, 0
2, 3792, Note_on_c, 0, 72, 110
2, 3838, Note_on_c, 0, 72, 0
2, 3840, Note_on_c, 0, 65, 110
2, 4078, Note_on_c, 0, 65, 0
2, 4080, Note_on_c, 0, 69, 110
2, 4126, Note_on_c, 0, 69, 0
2, 4128, Note_on_c, 0, 62, 110
2, 4174, Note_on_c, 0, 62, 0
2, 4176, Note_on_c, 0, 65, 110
2, 4222, Note_on_c, 0, 65, 0
2, 4224, Note_on_c, 0, 70, 110
2, 4462, Note_on_c, 0, 70, 0
2, 4464, Note_on_c, 0, 74, 110
2, 4510, Note_on_c, 0, 74, 0
2, 4512, Note_on_c, 0, 67, 110
2, 4558, Note_on_c, 0, 67, 0
2, 4560, Note_on_c, 0, 70, 110
2, 4606, Note_on_c, 0, 70, 0
2, 4608, Note_on_c, 0, 64, 110
2, 4846, Note_on_c, 0, 64, 0
2, 4848, Note_on_c, 0, 67, 110
2, 4894, Note_on_c, 0, 67, 0
2, 4896, Note_on_c, 0, 60, 110
2, 4942, Note_on_c, 0, 60, 0
2, 4944, Note_on_c, 0, 64, 110
2, 4990, Note_on_c, 0, 64, 0
2, 4992, Note_on_c, 0, 69, 110
2, 5038, Note_on_c, 0, 69, 0
2, 5040, Note_on_c, 0, 72, 110
2, 5086, Note_on_c, 0, 72, 0
2, 5088, Note_on_c, 0, 65, 110
2, 5134, Note_on_c, 0, 65, 0
2, 5136, Note_on_c, 0, 69, 110
2, 5182, Note_on_c, 0, 69, 0
2, 5184, Note_on_c, 0, 62, 110
2, 5230, Note_on_c, 0, 62, 0
2, 5232, Note_on_c, 0, 65, 110
2, 5278, Note_on_c, 0, 65, 0
2, 5280, Note_on_c, 0, 58, 110
2, 5326, Note_on_c, 0, 58, 0
2, 5328, Note_on_c, 0, 62, 110
2, 5374, Note_on_c, 0, 62, 0
2, 5376, Note_on_c, 0, 67, 110
2, 5422, Note_on_c, 0, 67, 0
2, 5424, Note_on_c, 0, 70, 110
2, 5470, Note_on_c, 0, 70, 0
2, 5472, Note_on_c, 0, 64, 110
2, 5518, Note_on_c, 0, 64, 0
2, 5520, Note_on_c, 0, 67, 110
2, 5566, Note_on_c, 0, 67, 0
2, 5568, Note_on_c, 0, 60, 110
2, 5614, Note_on_c, 0, 60, 0
2, 5616, Note_on_c, 0, 64, 110
2, 5662, Note_on_c, 0, 64, 0
2, 5664, Note_on_c, 0, 57, 110
2, 5710, Note_on_c, 0, 57, 0
2, 5712, Note_on_c, 0, 60, 110
2, 5758, Note_on_c, 0, 60, 0
2, 5760, Note_on_c, 0, 65, 110
2, 5806, Note_on_c, 0, 65, 0
2, 5808, Note_on_c, 0, 69, 110
2, 5854, Note_on_c, 0, 69, 0
2, 5856, Note_on_c, 0, 62, 110
2, 5902, Note_on_c, 0, 62, 0
2, 5904, Note_on_c, 0, 65, 110
2, 5950, Note_on_c, 0, 65, 0
2, 5952, Note_on_c, 0, 70, 110
2, 5998, Note_on_c, 0, 70, 0
2, 6000, Note_on_c, 0, 74, 110
2, 6046, Note_on_c, 0, 74, 0
2, 6048, Note_on_c, 0, 67, 110
2, 6094, Note_on_c, 0, 67, 0
2, 6096, Note_on_c, 0, 70, 110
2, 6142, Note_on_c, 0, 70, 0
2, 6144, Note_on_c, 0, 60, 110
2, 6304, Note_on_c, 0, 60, 0
2, 6336, Note_on_c, 0, 64, 110
2, 6496, Note_on_c, 0, 64, 0
2, 6528, Note_on_c, 0, 65, 110
2, 6784, Note_on_c, 0, 65, 0
2, 6816, Note_on_c, 0, 65, 110
2, 6862, Note_on_c, 0, 65, 0
2, 6864, Note_on_c, 0, 64, 110
2, 6910, Note_on_c, 0, 64, 0
2, 6912, Note_on_c, 0, 65, 110
2, 6944, Note_on_c, 0, 65, 0
2, 7008, Note_on_c, 0, 67, 110
2, 7040, Note_on_c, 0, 67, 0
2, 7104, Note_on_c, 0, 69, 110
2, 7136, Note_on_c, 0, 69, 0
2, 7200, Note_on_c, 0, 70, 110
2, 7232, Note_on_c, 0, 70, 0
2, 7296, Note_on_c, 0, 72, 110
2, 7328, Note_on_c, 0, 72, 0
2, 7392, Note_on_c, 0, 65, 110
2, 7488, Note_on_c, 0, 65, 0
2, 7488, Note_on_c, 0, 70, 110
2, 7584, Note_on_c, 0, 70, 0
2, 7584, Note_on_c, 0, 74, 110
2, 7680, Note_on_c, 0, 74, 0
2, 7680, Note_on_c, 0, 72, 110
2, 7726, Note_on_c, 0, 72, 0
2, 7728, Note_on_c, 0, 70, 110
2, 7774, Note_on_c, 0, 70, 0
2, 7776, Note_on_c, 0, 69, 110
2, 7822, Note_on_c, 0, 69, 0
2, 7824, Note_on_c, 0, 67, 110
2, 7870, Note_on_c, 0, 67, 0
2, 7872, Note_on_c, 0, 65, 110
2, 7918, Note_on_c, 0, 65, 0
2, 7920, Note_on_c, 0, 63, 110
2, 7966, Note_on_c, 0, 63, 0
2, 7968, Note_on_c, 0, 62, 110
2, 8014, Note_on_c, 0, 62, 0
2, 8016, Note_on_c, 0, 60, 110
2, 8062, Note_on_c, 0, 60, 0
2, 8064, Note_on_c, 0, 62, 110
2, 8110, Note_on_c, 0, 62, 0
2, 8112, Note_on_c, 0, 58, 110
2, 8158, Note_on_c, 0, 58, 0
2, 8160, Note_on_c, 0, 65, 110
2, 8206, Note_on_c, 0, 65, 0
2, 8208, Note_on_c, 0, 62, 110
2, 8254, Note_on_c, 0, 62, 0
2, 8256, Note_on_c, 0, 70, 110
2, 8494, Note_on_c, 0, 70, 0
2, 8496, Note_on_c, 0, 74, 110
2, 8542, Note_on_c, 0, 74, 0
2, 8544, Note_on_c, 0, 67, 110
2, 8590, Note_on_c, 0, 67, 0
2, 8592, Note_on_c, 0, 70, 110
2, 8638, Note_on_c, 0, 70, 0
2, 8640, Note_on_c, 0, 64, 110
2, 8878, Note_on_c, 0, 64, 0
2, 8880, Note_on_c, 0, 60, 110
2, 8926, Note_on_c, 0, 60, 0
2, 8928, Note_on_c, 0, 67, 110
2, 8974, Note_on_c, 0, 67, 0
2, 8976, Note_on_c, 0, 64, 110
2, 9022, Note_on_c, 0, 64, 0
2, 9024, Note_on_c, 0, 72, 110
2, 9262, Note_on_c, 0, 72, 0
2, 9264, Note_on_c, 0, 76, 110
2, 9310, Note_on_c, 0, 76, 0
2, 9312, Note_on_c, 0, 69, 110
2, 9358, Note_on_c, 0, 69, 0
2, 9360, Note_on_c, 0, 72, 110
2, 9406, Note_on_c, 0, 72, 0
2, 9408, Note_on_c, 0, 65, 110
2, 9646, Note_on_c, 0, 65, 0
2, 9648, Note_on_c, 0, 62, 110
2, 9694, Note_on_c, 0, 62, 0
2, 9696, Note_on_c, 0, 69, 110
2, 9742, Note_on_c, 0, 69, 0
2, 9744, Note_on_c, 0, 65, 110
2, 9790, Note_on_c, 0, 65, 0
2, 9792, Note_on_c, 0, 74, 110
2, 9838, Note_on_c, 0, 74, 0
2, 9840, Note_on_c, 0, 69, 110
2, 9886, Note_on_c, 0, 69, 0
2, 9888, Note_on_c, 0, 77, 110
2, 9934, Note_on_c, 0, 77, 0
2, 9936, Note_on_c, 0, 74, 110
2, 9982, Note_on_c, 0, 74, 0
2, 9984, Note_on_c, 0, 70, 110
2, 10030, Note_on_c, 0, 70, 0
2, 10032, Note_on_c, 0, 67, 110
2, 10078, Note_on_c, 0, 67, 0
2, 10080, Note_on_c, 0, 74, 110
2, 10126, Note_on_c, 0, 74, 0
2, 10128, Note_on_c, 0, 70, 110
2, 10174, Note_on_c, 0, 70, 0
2, 10176, Note_on_c, 0, 79, 110
2, 10222, Note_on_c, 0, 79, 0
2, 10224, Note_on_c, 0, 74, 110
2, 10270, Note_on_c, 0, 74, 0
2, 10272, Note_on_c, 0, 82, 110
2, 10318, Note_on_c, 0, 82, 0
2, 10320, Note_on_c, 0, 79, 110
2, 10366, Note_on_c, 0, 79, 0
2, 10368, Note_on_c, 0, 76, 110
2, 10414, Note_on_c, 0, 76, 0
2, 10416, Note_on_c, 0, 72, 110
2, 10462, Note_on_c, 0, 72, 0
2, 10464, Note_on_c, 0, 79, 110
2, 10510, Note_on_c, 0, 79, 0
2, 10512, Note_on_c, 0, 76, 110
2, 10558, Note_on_c, 0, 76, 0
2, 10560, Note_on_c, 0, 82, 110
2, 10606, Note_on_c, 0, 82, 0
2, 10608, Note_on_c, 0, 79, 110
2, 10654, Note_on_c, 0, 79, 0
2, 10656, Note_on_c, 0, 76, 110
2, 10702, Note_on_c, 0, 76, 0
2, 10704, Note_on_c, 0, 84, 110
2, 10750, Note_on_c, 0, 84, 0
2, 10752, Note_on_c, 0, 81, 110
2, 10798, Note_on_c, 0, 81, 0
2, 10800, Note_on_c, 0, 84, 110
2, 10846, Note_on_c, 0, 84, 0
2, 10848, Note_on_c, 0, 77, 110
2, 10894, Note_on_c, 0, 77, 0
2, 10896, Note_on_c, 0, 81, 110
2, 10942, Note_on_c, 0, 81, 0
2, 10944, Note_on_c, 0, 72, 110
2, 10990, Note_on_c, 0, 72, 0
2, 10992, Note_on_c, 0, 77, 110
2, 11038, Note_on_c, 0, 77, 0
2, 11040, Note_on_c, 0, 75, 110
2, 11086, Note_on_c, 0, 75, 0
2, 11088, Note_on_c, 0, 74, 110
2, 11134, Note_on_c, 0, 74, 0
2, 11136, Note_on_c, 0, 75, 110
2, 11182, Note_on_c, 0, 75, 0
2, 11184, Note_on_c, 0, 79, 110
2, 11230, Note_on_c, 0, 79, 0
2, 11232, Note_on_c, 0, 72, 110
2, 11278, Note_on_c, 0, 72, 0
2, 11280, Note_on_c, 0, 75, 110
2, 11326, Note_on_c, 0, 75, 0
2, 11328, Note_on_c, 0, 69, 110
2, 11374, Note_on_c, 0, 69, 0
2, 11376, Note_on_c, 0, 75, 110
2, 11422, Note_on_c, 0, 75, 0
2, 11424, Note_on_c, 0, 74, 110
2, 11470, Note_on_c, 0, 74, 0
2, 11472, Note_on_c, 0, 72, 110
2, 11518, Note_on_c, 0, 72, 0
2, 11520, Note_on_c, 0, 74, 110
2, 11566, Note_on_c, 0, 74, 0
2, 11568, Note_on_c, 0, 70, 110
2, 11614, Note_on_c, 0, 70, 0
2, 11616, Note_on_c, 0, 76, 110
2, 11662, Note_on_c, 0, 76, 0
2, 11664, Note_on_c, 0, 70, 110
2, 11710, Note_on_c, 0, 70, 0
2, 11712, Note_on_c, 0, 77, 110
2, 11758, Note_on_c, 0, 77, 0
2, 11760, Note_on_c, 0, 70, 110
2, 11806, Note_on_c, 0, 70, 0
2, 11808, Note_on_c, 0, 79, 110
2, 11854, Note_on_c, 0, 79, 0
2, 11856, Note_on_c, 0, 70, 110
2, 11902, Note_on_c, 0, 70, 0
2, 11904, Note_on_c, 0, 69, 110
2, 11950, Note_on_c, 0, 69, 0
2, 11952, Note_on_c, 0, 79, 110
2, 11998, Note_on_c, 0, 79, 0
2, 12000, Note_on_c, 0, 77, 110
2, 12046, Note_on_c, 0, 77, 0
2, 12048, Note_on_c, 0, 76, 110
2, 12094, Note_on_c, 0, 76, 0
2, 12096, Note_on_c, 0, 74, 110
2, 12142, Note_on_c, 0, 74, 0
2, 12144, Note_on_c, 0, 77, 110
2, 12190, Note_on_c, 0, 77, 0
2, 12192, Note_on_c, 0, 72, 110
2, 12238, Note_on_c, 0, 72, 0
2, 12240, Note_on_c, 0, 77, 110
2, 12286, Note_on_c, 0, 77, 0
2, 12288, Note_on_c, 0, 70, 110
2, 12334, Note_on_c, 0, 70, 0
2, 12336, Note_on_c, 0, 81, 110
2, 12382, Note_on_c, 0, 81, 0
2, 12384, Note_on_c, 0, 79, 110
2, 12430, Note_on_c, 0, 79, 0
2, 12432, Note_on_c, 0, 77, 110
2, 12478, Note_on_c, 0, 77, 0
2, 12480, Note_on_c, 0, 76, 110
2, 12526, Note_on_c, 0, 76, 0
2, 12528, Note_on_c, 0, 79, 110
2, 12574, Note_on_c, 0, 79, 0
2, 12576, Note_on_c, 0, 72, 110
2, 12622, Note_on_c, 0, 72, 0
2, 12624, Note_on_c, 0, 76, 110
2, 12670, Note_on_c, 0, 76, 0
2, 12672, Note_on_c, 0, 77, 110
2, 12718, Note_on_c, 0, 77, 0
2, 12720, Note_on_c, 0, 72, 110
2, 12766, Note_on_c, 0, 72, 0
2, 12768, Note_on_c, 0, 81, 110
2, 12814, Note_on_c, 0, 81, 0
2, 12816, Note_on_c, 0, 77, 110
2, 12862, Note_on_c, 0, 77, 0
2, 12864, Note_on_c, 0, 72, 110
2, 12910, Note_on_c, 0, 72, 0
2, 12912, Note_on_c, 0, 69, 110
2, 12958, Note_on_c, 0, 69, 0
2, 12960, Note_on_c, 0, 77, 110
2, 13006, Note_on_c, 0, 77, 0
2, 13008, Note_on_c, 0, 72, 110
2, 13054, Note_on_c, 0, 72, 0
2, 13056, Note_on_c, 0, 69, 110
2, 13102, Note_on_c, 0, 69, 0
2, 13104, Note_on_c, 0, 65, 110
2, 13150, Note_on_c, 0, 65, 0
2, 13152, Note_on_c, 0, 72, 110
2, 13198, Note_on_c, 0, 72, 0
2, 13200, Note_on_c, 0, 69, 110
2, 13246, Note_on_c, 0, 69, 0
2, 13248, Note_on_c, 0, 65, 110
2, 13294, Note_on_c, 0, 65, 0
2, 13296, Note_on_c, 0, 60, 110
2, 13342, Note_on_c, 0, 60, 0
2, 13344, Note_on_c, 0, 69, 110
2, 13390, Note_on_c, 0, 69, 0
2, 13392, Note_on_c, 0, 65, 110
2, 13438, Note_on_c, 0, 65, 0
2, 13440, Note_on_c, 0, 60, 110
2, 13600, Note_on_c, 0, 60, 0
2, 13632, Note_on_c, 0, 81, 110
2, 13646, Note_on_c, 0, 81, 0
2, 13648, Note_on_c, 0, 79, 110
2, 13662, Note_on_c, 0, 79, 0
2, 13664, Note_on_c, 0, 77, 110
2, 13678, Note_on_c, 0, 77, 0
2, 13680, Note_on_c, 0, 79, 110
2, 13694, Note_on_c, 0, 79, 0
2, 13696, Note_on_c, 0, 81, 110
2, 13710, Note_on_c, 0, 81, 0
2, 13712, Note_on_c, 0, 79, 110
2, 13726, Note_on_c, 0, 79, 0
2, 13728, Note_on_c, 0, 81, 110
2, 13742, Note_on_c, 0, 81, 0
2, 13744, Note_on_c, 0, 79, 110
2, 13758, Note_on_c, 0, 79, 0
2, 13760, Note_on_c, 0, 81, 110
2, 13774, Note_on_c, 0, 81, 0
2, 13776, Note_on_c, 0, 79, 110
2, 13790, Note_on_c, 0, 79, 0
2, 13792, Note_on_c, 0, 77, 110
2, 13806, Note_on_c, 0, 77, 0
2, 13808, Note_on_c, 0, 79, 110
2, 13822, Note_on_c, 0, 79, 0
2, 13824, Note_on_c, 0, 77, 110
2, 13984, Note_on_c, 0, 77, 0
2, 14112, Note_on_c, 0, 69, 110
2, 14208, Note_on_c, 0, 69, 0
2, 14208, Note_on_c, 0, 70, 110
2, 14304, Note_on_c, 0, 70, 0
2, 14304, Note_on_c, 0, 73, 110
2, 14398, Note_on_c, 0, 73, 0
2, 14400, Note_on_c, 0, 74, 110
2, 14638, Note_on_c, 0, 74, 0
2, 14640, Note_on_c, 0, 73, 110
2, 14686, Note_on_c, 0, 73, 0
2, 14688, Note_on_c, 0, 74, 110
2, 14734, Note_on_c, 0, 74, 0
2, 14736, Note_on_c, 0, 76, 110
2, 14782, Note_on_c, 0, 76, 0
2, 14784, Note_on_c, 0, 77, 110
2, 15070, Note_on_c, 0, 77, 0
2, 15072, Note_on_c, 0, 75, 110
2, 15118, Note_on_c, 0, 75, 0
2, 15120, Note_on_c, 0, 74, 110
2, 15166, Note_on_c, 0, 74, 0
2, 15168, Note_on_c, 0, 75, 110
2, 15200, Note_on_c, 0, 75, 0
2, 15264, Note_on_c, 0, 66, 110
2, 15296, Note_on_c, 0, 66, 0
2, 15360, Note_on_c, 0, 67, 110
2, 15520, Note_on_c, 0, 67, 0
2, 15648, Note_on_c, 0, 65, 110
2, 15742, Note_on_c, 0, 65, 0
2, 15744, Note_on_c, 0, 68, 110
2, 15838, Note_on_c, 0, 68, 0
2, 15840, Note_on_c, 0, 69, 110
2, 16030, Note_on_c, 0, 69, 0
2, 16032, Note_on_c, 0, 67, 110
2, 16078, Note_on_c, 0, 67, 0
2, 16080, Note_on_c, 0, 66, 110
2, 16126, Note_on_c, 0, 66, 0
2, 16128, Note_on_c, 0, 67, 110
2, 16160, Note_on_c, 0, 67, 0
2, 16224, Note_on_c, 0, 76, 110
2, 16270, Note_on_c, 0, 76, 0
2, 16272, Note_on_c, 0, 67, 110
2, 16318, Note_on_c, 0, 67, 0
2, 16320, Note_on_c, 0, 65, 110
2, 16366, Note_on_c, 0, 65, 0
2, 16368, Note_on_c, 0, 64, 110
2, 16414, Note_on_c, 0, 64, 0
2, 16416, Note_on_c, 0, 62, 110
2, 16462, Note_on_c, 0, 62, 0
2, 16464, Note_on_c, 0, 65, 110
2, 16510, Note_on_c, 0, 65, 0
2, 16512, Note_on_c, 0, 64, 110
2, 16544, Note_on_c, 0, 64, 0
2, 16608, Note_on_c, 0, 69, 110
2, 16640, Note_on_c, 0, 69, 0
2, 16704, Note_on_c, 0, 76, 110
2, 16714, Note_on_c, 0, 76, 0
2, 16716, Note_on_c, 0, 74, 110
2, 16726, Note_on_c, 0, 74, 0
2, 16728, Note_on_c, 0, 76, 110
2, 16738, Note_on_c, 0, 76, 0
2, 16740, Note_on_c, 0, 74, 110
2, 16750, Note_on_c, 0, 74, 0
2, 16752, Note_on_c, 0, 73, 110
2, 16798, Note_on_c, 0, 73, 0
2, 16800, Note_on_c, 0, 74, 110
2, 16990, Note_on_c, 0, 74, 0
2, 16992, Note_on_c, 0, 73, 110
2, 17038, Note_on_c, 0, 73, 0
2, 17040, Note_on_c, 0, 71, 110
2, 17086, Note_on_c, 0, 71, 0
2, 17088, Note_on_c, 0, 69, 110
2, 17134, Note_on_c, 0, 69, 0
2, 17136, Note_on_c, 0, 67, 110
2, 17182, Note_on_c, 0, 67, 0
2, 17184, Note_on_c, 0, 65, 110
2, 17230, Note_on_c, 0, 65, 0
2, 17232, Note_on_c, 0, 64, 110
2, 17278, Note_on_c, 0, 64, 0
2, 17280, Note_on_c, 0, 62, 110
2, 17440, Note_on_c, 0, 62, 0
2, 17472, Note_on_c, 0, 65, 110
2, 17632, Note_on_c, 0, 65, 0
2, 17664, Note_on_c, 0, 69, 110
2, 17920, Note_on_c, 0, 69, 0
2, 17952, Note_on_c, 0, 67, 110
2, 17998, Note_on_c, 0, 67, 0
2, 18000, Note_on_c, 0, 65, 110
2, 18046, Note_on_c, 0, 65, 0
2, 18048, Note_on_c, 0, 67, 110
2, 18080, Note_on_c, 0, 67, 0
2, 18144, Note_on_c, 0, 69, 110
2, 18176, Note_on_c, 0, 69, 0
2, 18240, Note_on_c, 0, 71, 110
2, 18272, Note_on_c, 0, 71, 0
2, 18336, Note_on_c, 0, 73, 110
2, 18368, Note_on_c, 0, 73, 0
2, 18432, Note_on_c, 0, 74, 110
2, 18688, Note_on_c, 0, 74, 0
2, 18720, Note_on_c, 0, 73, 110
2, 18766, Note_on_c, 0, 73, 0
2, 18768, Note_on_c, 0, 71, 110
2, 18814, Note_on_c, 0, 71, 0
2, 18816, Note_on_c, 0, 73, 110
2, 18848, Note_on_c, 0, 73, 0
2, 18912, Note_on_c, 0, 74, 110
2, 18944, Note_on_c, 0, 74, 0
2, 19008, Note_on_c, 0, 76, 110
2, 19040, Note_on_c, 0, 76, 0
2, 19104, Note_on_c, 0, 77, 110
2, 19136, Note_on_c, 0, 77, 0
2, 19200, Note_on_c, 0, 81, 110
2, 19246, Note_on_c, 0, 81, 0
2, 19248, Note_on_c, 0, 79, 110
2, 19294, Note_on_c, 0, 79, 0
2, 19296, Note_on_c, 0, 77, 110
2, 19342, Note_on_c, 0, 77, 0
2, 19344, Note_on_c, 0, 76, 110
2, 19390, Note_on_c, 0, 76, 0
2, 19392, Note_on_c, 0, 77, 110
2, 19486, Note_on_c, 0, 77, 0
2, 19488, Note_on_c, 0, 74, 110
2, 19582, Note_on_c, 0, 74, 0
2, 19584, Note_on_c, 0, 76, 110
2, 19744, Note_on_c, 0, 76, 0
2, 19776, Note_on_c, 0, 74, 110
2, 19798, Note_on_c, 0, 74, 0
2, 19800, Note_on_c, 0, 73, 110
2, 19822, Note_on_c, 0, 73, 0
2, 19824, Note_on_c, 0, 74, 110
2, 19846, Note_on_c, 0, 74, 0
2, 19848, Note_on_c, 0, 73, 110
2, 19870, Note_on_c, 0, 73, 0
2, 19872, Note_on_c, 0, 74, 110
2, 19894, Note_on_c, 0, 74, 0
2, 19896, Note_on_c, 0, 73, 110
2, 19918, Note_on_c, 0, 73, 0
2, 19920, Note_on_c, 0, 71, 110
2, 19942, Note_on_c, 0, 71, 0
2, 19944, Note_on_c, 0, 73, 110
2, 19966, Note_on_c, 0, 73, 0
2, 19968, Note_on_c, 0, 74, 110
2, 20000, Note_on_c, 0, 74, 0
2, 20064, Note_on_c, 0, 71, 110
2, 20160, Note_on_c, 0, 71, 0
2, 20160, Note_on_c, 0, 72, 110
2, 20256, Note_on_c, 0, 72, 0
2, 20256, Note_on_c, 0, 75, 110
2, 20352, Note_on_c, 0, 75, 0
2, 20352, Note_on_c, 0, 76, 110
2, 20590, Note_on_c, 0, 76, 0
2, 20592, Note_on_c, 0, 75, 110
2, 20638, Note_on_c, 0, 75, 0
2, 20640, Note_on_c, 0, 76, 110
2, 20686, Note_on_c, 0, 76, 0
2, 20688, Note_on_c, 0, 78, 110
2, 20734, Note_on_c, 0, 78, 0
2, 20736, Note_on_c, 0, 79, 110
2, 20992, Note_on_c, 0, 79, 0
2, 21024, Note_on_c, 0, 77, 110
2, 21070, Note_on_c, 0, 77, 0
2, 21072, Note_on_c, 0, 76, 110
2, 21118, Note_on_c, 0, 76, 0
2, 21120, Note_on_c, 0, 77, 110
2, 21152, Note_on_c, 0, 77, 0
2, 21216, Note_on_c, 0, 68, 110
2, 21248, Note_on_c, 0, 68, 0
2, 21312, Note_on_c, 0, 69, 110
2, 21472, Note_on_c, 0, 69, 0
2, 21600, Note_on_c, 0, 67, 110
2, 21696, Note_on_c, 0, 67, 0
2, 21696, Note_on_c, 0, 70, 110
2, 21792, Note_on_c, 0, 70, 0
2, 21792, Note_on_c, 0, 71, 110
2, 21982, Note_on_c, 0, 70, 0
2, 21982, Note_on_c, 0, 70, 0
2, 21982, Note_on_c, 0, 70, 0
2, 21982, Note_on_c, 0, 70, 0
2, 21982, Note_on_c, 0, 70, 0
2, 21982, Note_on_c, 0, 70, 0
2, 21982, Note_on_c, 0, 70, 0
2, 21982, Note_on_c, 0, 70, 0
2, 21982, Note_on_c, 0, 70, 0
2, 21982, Note_on_c, 0, 70, 0
2, 21982, Note_on_c, 0, 70, 0
2, 21982, Note_on_c, 0, 70, 0
2, 21982, Note_on_c, 0, 70, 0
2, 21982, Note_on_c, 0, 70, 0
2, 21982, Note_on_c, 0, 70, 0
2, 21982, Note_on_c, 0, 70, 0
2, 21984, Note_on_c, 0, 69, 110
2, 22030, Note_on_c, 0, 69, 0
2, 22032, Note_on_c, 0, 68, 110
2, 22078, Note_on_c, 0, 68, 0
2, 22080, Note_on_c, 0, 69, 110
2, 22112, Note_on_c, 0, 69, 0
2, 22176, Note_on_c, 0, 78, 110
2, 22222, Note_on_c, 0, 78, 0
2, 22224, Note_on_c, 0, 69, 110
2, 22270, Note_on_c, 0, 69, 0
2, 22272, Note_on_c, 0, 67, 110
2, 22318, Note_on_c, 0, 67, 0
2, 22320, Note_on_c, 0, 66, 110
2, 22366, Note_on_c, 0, 66, 0
2, 22368, Note_on_c, 0, 64, 110
2, 22414, Note_on_c, 0, 64, 0
2, 22416, Note_on_c, 0, 67, 110
2, 22462, Note_on_c, 0, 67, 0
2, 22464, Note_on_c, 0, 66, 110
2, 22496, Note_on_c, 0, 66, 0
2, 22560, Note_on_c, 0, 75, 110
2, 22592, Note_on_c, 0, 75, 0
2, 22656, Note_on_c, 0, 77, 110
2, 22666, Note_on_c, 0, 77, 0
2, 22668, Note_on_c, 0, 76, 110
2, 22678, Note_on_c, 0, 76, 0
2, 22680, Note_on_c, 0, 77, 110
2, 22690, Note_on_c, 0, 77, 0
2, 22692, Note_on_c, 0, 76, 110
2, 22702, Note_on_c, 0, 76, 0
2, 22704, Note_on_c, 0, 75, 110
2, 22750, Note_on_c, 0, 75, 0
2, 22752, Note_on_c, 0, 76, 110
2, 22846, Note_on_c, 0, 76, 0
2, 23232, Note_on_c, 0, 64, 110
2, 23392, Note_on_c, 0, 64, 0
2, 23424, Note_on_c, 0, 68, 110
2, 23584, Note_on_c, 0, 68, 0
2, 23616, Note_on_c, 0, 71, 110
2, 23902, Note_on_c, 0, 71, 0
2, 23904, Note_on_c, 0, 69, 110
2, 23950, Note_on_c, 0, 69, 0
2, 23952, Note_on_c, 0, 68, 110
2, 23998, Note_on_c, 0, 68, 0
2, 24000, Note_on_c, 0, 69, 110
2, 24032, Note_on_c, 0, 69, 0
2, 24096, Note_on_c, 0, 71, 110
2, 24128, Note_on_c, 0, 71, 0
2, 24192, Note_on_c, 0, 72, 110
2, 24224, Note_on_c, 0, 72, 0
2, 24288, Note_on_c, 0, 74, 110
2, 24320, Note_on_c, 0, 74, 0
2, 24384, Note_on_c, 0, 76, 110
2, 24670, Note_on_c, 0, 76, 0
2, 24672, Note_on_c, 0, 74, 110
2, 24718, Note_on_c, 0, 74, 0
2, 24720, Note_on_c, 0, 72, 110
2, 24766, Note_on_c, 0, 72, 0
2, 24768, Note_on_c, 0, 74, 110
2, 24800, Note_on_c, 0, 74, 0
2, 24864, Note_on_c, 0, 76, 110
2, 24896, Note_on_c, 0, 76, 0
2, 24960, Note_on_c, 0, 78, 110
2, 24992, Note_on_c, 0, 78, 0
2, 25056, Note_on_c, 0, 80, 110
2, 25088, Note_on_c, 0, 80, 0
2, 25152, Note_on_c, 0, 81, 110
2, 25438, Note_on_c, 0, 81, 0
2, 25440, Note_on_c, 0, 80, 110
2, 25486, Note_on_c, 0, 80, 0
2, 25488, Note_on_c, 0, 78, 110
2, 25534, Note_on_c, 0, 78, 0
2, 25536, Note_on_c, 0, 76, 110
2, 25582, Note_on_c, 0, 76, 0
2, 25584, Note_on_c, 0, 74, 110
2, 25630, Note_on_c, 0, 74, 0
2, 25632, Note_on_c, 0, 72, 110
2, 25678, Note_on_c, 0, 72, 0
2, 25680, Note_on_c, 0, 71, 110
2, 25726, Note_on_c, 0, 71, 0
2, 25728, Note_on_c, 0, 69, 110
2, 25966, Note_on_c, 0, 69, 0
2, 25968, Note_on_c, 0, 64, 110
2, 26014, Note_on_c, 0, 64, 0
2, 26016, Note_on_c, 0, 72, 110
2, 26062, Note_on_c, 0, 72, 0
2, 26064, Note_on_c, 0, 69, 110
2, 26110, Note_on_c, 0, 69, 0
2, 26112, Note_on_c, 0, 77, 110
2, 26158, Note_on_c, 0, 77, 0
2, 26160, Note_on_c, 0, 72, 110
2, 26206, Note_on_c, 0, 72, 0
2, 26208, Note_on_c, 0, 81, 110
2, 26254, Note_on_c, 0, 81, 0
2, 26256, Note_on_c, 0, 77, 110
2, 26302, Note_on_c, 0, 77, 0
2, 26304, Note_on_c, 0, 84, 110
2, 26336, Note_on_c, 0, 84, 0
2, 26400, Note_on_c, 0, 77, 110
2, 26432, Note_on_c, 0, 77, 0
2, 26496, Note_on_c, 0, 76, 110
2, 26528, Note_on_c, 0, 76, 0
2, 26592, Note_on_c, 0, 75, 110
2, 26624, Note_on_c, 0, 75, 0
2, 26688, Note_on_c, 0, 74, 110
2, 26720, Note_on_c, 0, 74, 0
2, 26784, Note_on_c, 0, 73, 110
2, 26974, Note_on_c, 0, 74, 0
2, 26974, Note_on_c, 0, 74, 0
2, 26974, Note_on_c, 0, 74, 0
2, 26974, Note_on_c, 0, 74, 0
2, 26974, Note_on_c, 0, 74, 0
2, 26974, Note_on_c, 0, 74, 0
2, 26974, Note_on_c, 0, 74, 0
2, 26974, Note_on_c, 0, 74, 0
2, 26974, Note_on_c, 0, 74, 0
2, 26974, Note_on_c, 0, 74, 0
2, 26974, Note_on_c, 0, 74, 0
2, 26974, Note_on_c, 0, 74, 0
2, 26974, Note_on_c, 0, 74, 0
2, 26974, Note_on_c, 0, 74, 0
2, 26974, Note_on_c, 0, 74, 0
2, 26974, Note_on_c, 0, 74, 0
2, 26976, Note_on_c, 0, 72, 110
2, 27008, Note_on_c, 0, 72, 0
2, 27072, Note_on_c, 0, 71, 110
2, 27104, Note_on_c, 0, 71, 0
2, 27168, Note_on_c, 0, 70, 110
2, 27200, Note_on_c, 0, 70, 0
2, 27264, Note_on_c, 0, 69, 110
2, 27310, Note_on_c, 0, 69, 0
2, 27312, Note_on_c, 0, 67, 110
2, 27358, Note_on_c, 0, 67, 0
2, 27360, Note_on_c, 0, 65, 110
2, 27406, Note_on_c, 0, 65, 0
2, 27408, Note_on_c, 0, 67, 110
2, 27454, Note_on_c, 0, 67, 0
2, 27456, Note_on_c, 0, 69, 110
2, 27502, Note_on_c, 0, 69, 0
2, 27504, Note_on_c, 0, 70, 110
2, 27550, Note_on_c, 0, 70, 0
2, 27552, Note_on_c, 0, 72, 110
2, 27598, Note_on_c, 0, 72, 0
2, 27600, Note_on_c, 0, 74, 110
2, 27646, Note_on_c, 0, 74, 0
2, 27648, Note_on_c, 0, 76, 110
2, 27694, Note_on_c, 0, 76, 0
2, 27696, Note_on_c, 0, 74, 110
2, 27742, Note_on_c, 0, 74, 0
2, 27744, Note_on_c, 0, 72, 110
2, 27790, Note_on_c, 0, 72, 0
2, 27792, Note_on_c, 0, 74, 110
2, 27838, Note_on_c, 0, 74, 0
2, 27840, Note_on_c, 0, 76, 110
2, 27886, Note_on_c, 0, 76, 0
2, 27888, Note_on_c, 0, 77, 110
2, 27934, Note_on_c, 0, 77, 0
2, 27936, Note_on_c, 0, 79, 110
2, 27968, Note_on_c, 0, 79, 0
2, 28032, Note_on_c, 0, 72, 110
2, 28192, Note_on_c, 0, 72, 0
2, 28224, Note_on_c, 0, 68, 110
2, 28384, Note_on_c, 0, 68, 0
2, 28416, Note_on_c, 0, 65, 110
2, 28672, Note_on_c, 0, 65, 0
2, 28704, Note_on_c, 0, 67, 110
2, 28750, Note_on_c, 0, 67, 0
2, 28752, Note_on_c, 0, 68, 110
2, 28798, Note_on_c, 0, 68, 0
2, 28800, Note_on_c, 0, 67, 110
2, 28832, Note_on_c, 0, 67, 0
2, 28896, Note_on_c, 0, 65, 110
2, 28928, Note_on_c, 0, 65, 0
2, 28992, Note_on_c, 0, 63, 110
2, 29024, Note_on_c, 0, 63, 0
2, 29088, Note_on_c, 0, 61, 110
2, 29120, Note_on_c, 0, 61, 0
2, 29184, Note_on_c, 0, 60, 110
2, 29216, Note_on_c, 0, 60, 0
2, 29280, Note_on_c, 0, 65, 110
2, 29376, Note_on_c, 0, 65, 0
2, 29376, Note_on_c, 0, 60, 110
2, 29472, Note_on_c, 0, 60, 0
2, 29472, Note_on_c, 0, 56, 110
2, 29568, Note_on_c, 0, 56, 0
2, 29568, Note_on_c, 0, 58, 110
2, 29614, Note_on_c, 0, 58, 0
2, 29616, Note_on_c, 0, 60, 110
2, 29662, Note_on_c, 0, 60, 0
2, 29664, Note_on_c, 0, 61, 110
2, 29710, Note_on_c, 0, 61, 0
2, 29712, Note_on_c, 0, 63, 110
2, 29758, Note_on_c, 0, 63, 0
2, 29760, Note_on_c, 0, 65, 110
2, 29806, Note_on_c, 0, 65, 0
2, 29808, Note_on_c, 0, 67, 110
2, 29854, Note_on_c, 0, 67, 0
2, 29856, Note_on_c, 0, 68, 110
2, 29902, Note_on_c, 0, 68, 0
2, 29904, Note_on_c, 0, 70, 110
2, 29950, Note_on_c, 0, 70, 0
2, 29952, Note_on_c, 0, 67, 110
2, 29998, Note_on_c, 0, 67, 0
2, 30000, Note_on_c, 0, 65, 110
2, 30046, Note_on_c, 0, 65, 0
2, 30048, Note_on_c, 0, 64, 110
2, 30094, Note_on_c, 0, 64, 0
2, 30096, Note_on_c, 0, 65, 110
2, 30142, Note_on_c, 0, 65, 0
2, 30144, Note_on_c, 0, 67, 110
2, 30190, Note_on_c, 0, 67, 0
2, 30192, Note_on_c, 0, 68, 110
2, 30238, Note_on_c, 0, 68, 0
2, 30240, Note_on_c, 0, 70, 110
2, 30286, Note_on_c, 0, 70, 0
2, 30288, Note_on_c, 0, 72, 110
2, 30334, Note_on_c, 0, 72, 0
2, 30336, Note_on_c, 0, 68, 110
2, 30382, Note_on_c, 0, 68, 0
2, 30384, Note_on_c, 0, 67, 110
2, 30430, Note_on_c, 0, 67, 0
2, 30432, Note_on_c, 0, 65, 110
2, 30478, Note_on_c, 0, 65, 0
2, 30480, Note_on_c, 0, 67, 110
2, 30526, Note_on_c, 0, 67, 0
2, 30528, Note_on_c, 0, 68, 110
2, 30574, Note_on_c, 0, 68, 0
2, 30576, Note_on_c, 0, 70, 110
2, 30622, Note_on_c, 0, 70, 0
2, 30624, Note_on_c, 0, 72, 110
2, 30670, Note_on_c, 0, 72, 0
2, 30672, Note_on_c, 0, 73, 110
2, 30718, Note_on_c, 0, 73, 0
2, 30720, Note_on_c, 0, 64, 110
2, 30766, Note_on_c, 0, 64, 0
2, 30768, Note_on_c, 0, 73, 110
2, 30814, Note_on_c, 0, 73, 0
2, 30816, Note_on_c, 0, 72, 110
2, 30862, Note_on_c, 0, 72, 0
2, 30864, Note_on_c, 0, 70, 110
2, 30910, Note_on_c, 0, 70, 0
2, 30912, Note_on_c, 0, 68, 110
2, 30958, Note_on_c, 0, 68, 0
2, 30960, Note_on_c, 0, 67, 110
2, 31006, Note_on_c, 0, 67, 0
2, 31008, Note_on_c, 0, 65, 110
2, 31054, Note_on_c, 0, 65, 0
2, 31056, Note_on_c, 0, 64, 110
2, 31102, Note_on_c, 0, 64, 0
2, 31104, Note_on_c, 0, 65, 110
2, 31136, Note_on_c, 0, 65, 0
2, 31200, Note_on_c, 0, 67, 110
2, 31296, Note_on_c, 0, 67, 0
2, 31296, Note_on_c, 0, 68, 110
2, 31392, Note_on_c, 0, 68, 0
2, 31392, Note_on_c, 0, 71, 110
2, 31488, Note_on_c, 0, 71, 0
2, 31488, Note_on_c, 0, 72, 110
2, 31726, Note_on_c, 0, 72, 0
2, 31728, Note_on_c, 0, 71, 110
2, 31774, Note_on_c, 0, 71, 0
2, 31776, Note_on_c, 0, 72, 110
2, 31822, Note_on_c, 0, 72, 0
2, 31824, Note_on_c, 0, 74, 110
2, 31870, Note_on_c, 0, 74, 0
2, 31872, Note_on_c, 0, 75, 110
2, 32128, Note_on_c, 0, 75, 0
2, 32160, Note_on_c, 0, 73, 110
2, 32206, Note_on_c, 0, 73, 0
2, 32208, Note_on_c, 0, 72, 110
2, 32254, Note_on_c, 0, 72, 0
2, 32256, Note_on_c, 0, 73, 110
2, 32288, Note_on_c, 0, 73, 0
2, 32352, Note_on_c, 0, 64, 110
2, 32384, Note_on_c, 0, 64, 0
2, 32448, Note_on_c, 0, 65, 110
2, 32608, Note_on_c, 0, 65, 0
2, 32736, Note_on_c, 0, 63, 110
2, 32832, Note_on_c, 0, 63, 0
2, 32832, Note_on_c, 0, 66, 110
2, 32928, Note_on_c, 0, 66, 0
2, 32928, Note_on_c, 0, 67, 110
2, 33118, Note_on_c, 0, 67, 0
2, 33120, Note_on_c, 0, 65, 110
2, 33166, Note_on_c, 0, 65, 0
2, 33168, Note_on_c, 0, 64, 110
2, 33214, Note_on_c, 0, 64, 0
2, 33216, Note_on_c, 0, 65, 110
2, 33248, Note_on_c, 0, 65, 0
2, 33312, Note_on_c, 0, 74, 110
2, 33358, Note_on_c, 0, 74, 0
2, 33360, Note_on_c, 0, 65, 110
2, 33406, Note_on_c, 0, 65, 0
2, 33408, Note_on_c, 0, 63, 110
2, 33454, Note_on_c, 0, 63, 0
2, 33456, Note_on_c, 0, 62, 110
2, 33502, Note_on_c, 0, 62, 0
2, 33504, Note_on_c, 0, 60, 110
2, 33550, Note_on_c, 0, 60, 0
2, 33552, Note_on_c, 0, 63, 110
2, 33598, Note_on_c, 0, 63, 0
2, 33600, Note_on_c, 0, 62, 110
2, 33632, Note_on_c, 0, 62, 0
2, 33696, Note_on_c, 0, 71, 110
2, 33728, Note_on_c, 0, 71, 0
2, 33792, Note_on_c, 0, 74, 110
2, 33802, Note_on_c, 0, 74, 0
2, 33804, Note_on_c, 0, 72, 110
2, 33814, Note_on_c, 0, 72, 0
2, 33816, Note_on_c, 0, 74, 110
2, 33826, Note_on_c, 0, 74, 0
2, 33828, Note_on_c, 0, 72, 110
2, 33838, Note_on_c, 0, 72, 0
2, 33840, Note_on_c, 0, 71, 110
2, 33886, Note_on_c, 0, 71, 0
2, 33888, Note_on_c, 0, 72, 110
2, 33982, Note_on_c, 0, 72, 0
2, 34368, Note_on_c, 0, 60, 110
2, 34528, Note_on_c, 0, 60, 0
2, 34560, Note_on_c, 0, 64, 110
2, 34720, Note_on_c, 0, 64, 0
2, 34752, Note_on_c, 0, 67, 110
2, 35038, Note_on_c, 0, 67, 0
2, 35040, Note_on_c, 0, 65, 110
2, 35086, Note_on_c, 0, 65, 0
2, 35088, Note_on_c, 0, 64, 110
2, 35134, Note_on_c, 0, 64, 0
2, 35136, Note_on_c, 0, 65, 110
2, 35168, Note_on_c, 0, 65, 0
2, 35232, Note_on_c, 0, 67, 110
2, 35264, Note_on_c, 0, 67, 0
2, 35328, Note_on_c, 0, 68, 110
2, 35360, Note_on_c, 0, 68, 0
2, 35424, Note_on_c, 0, 70, 110
2, 35456, Note_on_c, 0, 70, 0
2, 35520, Note_on_c, 0, 72, 110
2, 35806, Note_on_c, 0, 72, 0
2, 35808, Note_on_c, 0, 70, 110
2, 35854, Note_on_c, 0, 70, 0
2, 35856, Note_on_c, 0, 68, 110
2, 35902, Note_on_c, 0, 68, 0
2, 35904, Note_on_c, 0, 70, 110
2, 35936, Note_on_c, 0, 70, 0
2, 36000, Note_on_c, 0, 72, 110
2, 36032, Note_on_c, 0, 72, 0
2, 36096, Note_on_c, 0, 74, 110
2, 36128, Note_on_c, 0, 74, 0
2, 36192, Note_on_c, 0, 76, 110
2, 36224, Note_on_c, 0, 76, 0
2, 36288, Note_on_c, 0, 77, 110
2, 36574, Note_on_c, 0, 77, 0
2, 36576, Note_on_c, 0, 76, 110
2, 36622, Note_on_c, 0, 76, 0
2, 36624, Note_on_c, 0, 74, 110
2, 36670, Note_on_c, 0, 74, 0
2, 36672, Note_on_c, 0, 72, 110
2, 36718, Note_on_c, 0, 72, 0
2, 36720, Note_on_c, 0, 70, 110
2, 36766, Note_on_c, 0, 70, 0
2, 36768, Note_on_c, 0, 68, 110
2, 36814, Note_on_c, 0, 68, 0
2, 36816, Note_on_c, 0, 67, 110
2, 36862, Note_on_c, 0, 67, 0
2, 36864, Note_on_c, 0, 68, 110
2, 36960, Note_on_c, 0, 68, 0
2, 36960, Note_on_c, 0, 71, 110
2, 37056, Note_on_c, 0, 71, 0
2, 37056, Note_on_c, 0, 72, 110
2, 37294, Note_on_c, 0, 72, 0
2, 37296, Note_on_c, 0, 71, 110
2, 37342, Note_on_c, 0, 71, 0
2, 37344, Note_on_c, 0, 72, 110
2, 37390, Note_on_c, 0, 72, 0
2, 37392, Note_on_c, 0, 74, 110
2, 37438, Note_on_c, 0, 74, 0
2, 37440, Note_on_c, 0, 75, 110
2, 37726, Note_on_c, 0, 76, 0
2, 37726, Note_on_c, 0, 76, 0
2, 37726, Note_on_c, 0, 76, 0
2, 37726, Note_on_c, 0, 76, 0
2, 37726, Note_on_c, 0, 76, 0
2, 37726, Note_on_c, 0, 76, 0
2, 37726, Note_on_c, 0, 76, 0
2, 37726, Note_on_c, 0, 76, 0
2, 37726, Note_on_c, 0, 76, 0
2, 37726, Note_on_c, 0, 76, 0
2, 37726, Note_on_c, 0, 76, 0
2, 37726, Note_on_c, 0, 76, 0
2, 37726, Note_on_c, 0, 76, 0
2, 37726, Note_on_c, 0, 76, 0
2, 37726, Note_on_c, 0, 76, 0
2, 37726, Note_on_c, 0, 76, 0
2, 37728, Note_on_c, 0, 73, 110
2, 37774, Note_on_c, 0, 73, 0
2, 37776, Note_on_c, 0, 72, 110
2, 37822, Note_on_c, 0, 72, 0
2, 37824, Note_on_c, 0, 73, 110
2, 37856, Note_on_c, 0, 73, 0
2, 37920, Note_on_c, 0, 64, 110
2, 37952, Note_on_c, 0, 64, 0
2, 38016, Note_on_c, 0, 65, 110
2, 38176, Note_on_c, 0, 65, 0
2, 38304, Note_on_c, 0, 63, 110
2, 38400, Note_on_c, 0, 63, 0
2, 38400, Note_on_c, 0, 66, 110
2, 38496, Note_on_c, 0, 66, 0
2, 38496, Note_on_c, 0, 67, 110
2, 38686, Note_on_c, 0, 67, 0
2, 38688, Note_on_c, 0, 65, 110
2, 38734, Note_on_c, 0, 65, 0
2, 38736, Note_on_c, 0, 64, 110
2, 38782, Note_on_c, 0, 64, 0
2, 38784, Note_on_c, 0, 65, 110
2, 38816, Note_on_c, 0, 65, 0
2, 38880, Note_on_c, 0, 74, 110
2, 38926, Note_on_c, 0, 74, 0
2, 38928, Note_on_c, 0, 65, 110
2, 38974, Note_on_c, 0, 65, 0
2, 38976, Note_on_c, 0, 63, 110
2, 39022, Note_on_c, 0, 63, 0
2, 39024, Note_on_c, 0, 62, 110
2, 39070, Note_on_c, 0, 62, 0
2, 39072, Note_on_c, 0, 60, 110
2, 39118, Note_on_c, 0, 60, 0
2, 39120, Note_on_c, 0, 63, 110
2, 39166, Note_on_c, 0, 63, 0
2, 39168, Note_on_c, 0, 62, 110
2, 39200, Note_on_c, 0, 62, 0
2, 39264, Note_on_c, 0, 67, 110
2, 39296, Note_on_c, 0, 67, 0
2, 39360, Note_on_c, 0, 74, 110
2, 39370, Note_on_c, 0, 74, 0
2, 39372, Note_on_c, 0, 72, 110
2, 39382, Note_on_c, 0, 72, 0
2, 39384, Note_on_c, 0, 74, 110
2, 39394, Note_on_c, 0, 74, 0
2, 39396, Note_on_c, 0, 72, 110
2, 39406, Note_on_c, 0, 72, 0
2, 39408, Note_on_c, 0, 71, 110
2, 39454, Note_on_c, 0, 71, 0
2, 39456, Note_on_c, 0, 72, 110
2, 39646, Note_on_c, 0, 72, 0
2, 39648, Note_on_c, 0, 71, 110
2, 39694, Note_on_c, 0, 71, 0
2, 39696, Note_on_c, 0, 69, 110
2, 39742, Note_on_c, 0, 69, 0
2, 39744, Note_on_c, 0, 67, 110
2, 39790, Note_on_c, 0, 67, 0
2, 39792, Note_on_c, 0, 65, 110
2, 39838, Note_on_c, 0, 65, 0
2, 39840, Note_on_c, 0, 63, 110
2, 39886, Note_on_c, 0, 63, 0
2, 39888, Note_on_c, 0, 62, 110
2, 39934, Note_on_c, 0, 62, 0
2, 39936, Note_on_c, 0, 60, 110
2, 40096, Note_on_c, 0, 60, 0
2, 40128, Note_on_c, 0, 63, 110
2, 40288, Note_on_c, 0, 63, 0
2, 40320, Note_on_c, 0, 67, 110
2, 40576, Note_on_c, 0, 67, 0
2, 40608, Note_on_c, 0, 65, 110
2, 40654, Note_on_c, 0, 65, 0
2, 40656, Note_on_c, 0, 63, 110
2, 40702, Note_on_c, 0, 63, 0
2, 40704, Note_on_c, 0, 65, 110
2, 40736, Note_on_c, 0, 65, 0
2, 40800, Note_on_c, 0, 67, 110
2, 40832, Note_on_c, 0, 67, 0
2, 40896, Note_on_c, 0, 69, 110
2, 40928, Note_on_c, 0, 69, 0
2, 40992, Note_on_c, 0, 71, 110
2, 41024, Note_on_c, 0, 71, 0
2, 41088, Note_on_c, 0, 72, 110
2, 41344, Note_on_c, 0, 72, 0
2, 41376, Note_on_c, 0, 71, 110
2, 41422, Note_on_c, 0, 71, 0
2, 41424, Note_on_c, 0, 69, 110
2, 41470, Note_on_c, 0, 69, 0
2, 41472, Note_on_c, 0, 71, 110
2, 41504, Note_on_c, 0, 71, 0
2, 41568, Note_on_c, 0, 72, 110
2, 41600, Note_on_c, 0, 72, 0
2, 41664, Note_on_c, 0, 74, 110
2, 41696, Note_on_c, 0, 74, 0
2, 41760, Note_on_c, 0, 75, 110
2, 41792, Note_on_c, 0, 75, 0
2, 41856, Note_on_c, 0, 79, 110
2, 41902, Note_on_c, 0, 79, 0
2, 41904, Note_on_c, 0, 77, 110
2, 41950, Note_on_c, 0, 77, 0
2, 41952, Note_on_c, 0, 75, 110
2, 41998, Note_on_c, 0, 75, 0
2, 42000, Note_on_c, 0, 74, 110
2, 42046, Note_on_c, 0, 74, 0
2, 42048, Note_on_c, 0, 75, 110
2, 42080, Note_on_c, 0, 75, 0
2, 42144, Note_on_c, 0, 72, 110
2, 42176, Note_on_c, 0, 72, 0
2, 42240, Note_on_c, 0, 74, 110
2, 42250, Note_on_c, 0, 74, 0
2, 42252, Note_on_c, 0, 72, 110
2, 42262, Note_on_c, 0, 72, 0
2, 42264, Note_on_c, 0, 74, 110
2, 42430, Note_on_c, 0, 74, 0
2, 42432, Note_on_c, 0, 72, 110
2, 42454, Note_on_c, 0, 72, 0
2, 42456, Note_on_c, 0, 71, 110
2, 42478, Note_on_c, 0, 71, 0
2, 42480, Note_on_c, 0, 72, 110
2, 42502, Note_on_c, 0, 72, 0
2, 42504, Note_on_c, 0, 71, 110
2, 42526, Note_on_c, 0, 71, 0
2, 42528, Note_on_c, 0, 72, 110
2, 42550, Note_on_c, 0, 72, 0
2, 42552, Note_on_c, 0, 71, 110
2, 42574, Note_on_c, 0, 71, 0
2, 42576, Note_on_c, 0, 69, 110
2, 42598, Note_on_c, 0, 69, 0
2, 42600, Note_on_c, 0, 71, 110
2, 42622, Note_on_c, 0, 71, 0
2, 42624, Note_on_c, 0, 72, 110
2, 42784, Note_on_c, 0, 72, 0
2, 43008, Note_on_c, 0, 65, 110
2, 43168, Note_on_c, 0, 65, 0
2, 43200, Note_on_c, 0, 69, 110
2, 43360, Note_on_c, 0, 69, 0
2, 43392, Note_on_c, 0, 72, 110
2, 43648, Note_on_c, 0, 72, 0
2, 43680, Note_on_c, 0, 70, 110
2, 43726, Note_on_c, 0, 70, 0
2, 43728, Note_on_c, 0, 69, 110
2, 43774, Note_on_c, 0, 69, 0
2, 43776, Note_on_c, 0, 70, 110
2, 43808, Note_on_c, 0, 70, 0
2, 43872, Note_on_c, 0, 72, 110
2, 43904, Note_on_c, 0, 72, 0
2, 43968, Note_on_c, 0, 74, 110
2, 44000, Note_on_c, 0, 74, 0
2, 44064, Note_on_c, 0, 76, 110
2, 44096, Note_on_c, 0, 76, 0
2, 44160, Note_on_c, 0, 77, 110
2, 44192, Note_on_c, 0, 77, 0
2, 44256, Note_on_c, 0, 72, 110
2, 44352, Note_on_c, 0, 72, 0
2, 44352, Note_on_c, 0, 77, 110
2, 44448, Note_on_c, 0, 77, 0
2, 44448, Note_on_c, 0, 81, 110
2, 44544, Note_on_c, 0, 81, 0
2, 44544, Note_on_c, 0, 79, 110
2, 44590, Note_on_c, 0, 79, 0
2, 44592, Note_on_c, 0, 77, 110
2, 44638, Note_on_c, 0, 77, 0
2, 44640, Note_on_c, 0, 76, 110
2, 44686, Note_on_c, 0, 76, 0
2, 44688, Note_on_c, 0, 74, 110
2, 44734, Note_on_c, 0, 74, 0
2, 44736, Note_on_c, 0, 72, 110
2, 44782, Note_on_c, 0, 72, 0
2, 44784, Note_on_c, 0, 70, 110
2, 44830, Note_on_c, 0, 70, 0
2, 44832, Note_on_c, 0, 69, 110
2, 44878, Note_on_c, 0, 69, 0
2, 44880, Note_on_c, 0, 67, 110
2, 44926, Note_on_c, 0, 67, 0
2, 44928, Note_on_c, 0, 69, 110
2, 44974, Note_on_c, 0, 69, 0
2, 44976, Note_on_c, 0, 72, 110
2, 45022, Note_on_c, 0, 72, 0
2, 45024, Note_on_c, 0, 65, 110
2, 45070, Note_on_c, 0, 65, 0
2, 45072, Note_on_c, 0, 69, 110
2, 45118, Note_on_c, 0, 69, 0
2, 45120, Note_on_c, 0, 74, 110
2, 45406, Note_on_c, 0, 74, 0
2, 45408, Note_on_c, 0, 74, 110
2, 45418, Note_on_c, 0, 74, 0
2, 45420, Note_on_c, 0, 72, 110
2, 45430, Note_on_c, 0, 72, 0
2, 45432, Note_on_c, 0, 74, 110
2, 45442, Note_on_c, 0, 74, 0
2, 45444, Note_on_c, 0, 72, 110
2, 45454, Note_on_c, 0, 72, 0
2, 45456, Note_on_c, 0, 71, 110
2, 45502, Note_on_c, 0, 71, 0
2, 45504, Note_on_c, 0, 72, 110
2, 45550, Note_on_c, 0, 72, 0
2, 45552, Note_on_c, 0, 76, 110
2, 45598, Note_on_c, 0, 76, 0
2, 45600, Note_on_c, 0, 74, 110
2, 45646, Note_on_c, 0, 74, 0
2, 45648, Note_on_c, 0, 77, 110
2, 45694, Note_on_c, 0, 77, 0
2, 45696, Note_on_c, 0, 76, 110
2, 45742, Note_on_c, 0, 76, 0
2, 45744, Note_on_c, 0, 74, 110
2, 45790, Note_on_c, 0, 74, 0
2, 45792, Note_on_c, 0, 72, 110
2, 45838, Note_on_c, 0, 72, 0
2, 45840, Note_on_c, 0, 71, 110
2, 45886, Note_on_c, 0, 71, 0
2, 45888, Note_on_c, 0, 69, 110
2, 45934, Note_on_c, 0, 69, 0
2, 45936, Note_on_c, 0, 72, 110
2, 45982, Note_on_c, 0, 72, 0
2, 45984, Note_on_c, 0, 67, 110
2, 46030, Note_on_c, 0, 67, 0
2, 46032, Note_on_c, 0, 72, 110
2, 46078, Note_on_c, 0, 72, 0
2, 46080, Note_on_c, 0, 65, 110
2, 46126, Note_on_c, 0, 65, 0
2, 46128, Note_on_c, 0, 76, 110
2, 46174, Note_on_c, 0, 76, 0
2, 46176, Note_on_c, 0, 74, 110
2, 46222, Note_on_c, 0, 74, 0
2, 46224, Note_on_c, 0, 72, 110
2, 46270, Note_on_c, 0, 72, 0
2, 46272, Note_on_c, 0, 71, 110
2, 46318, Note_on_c, 0, 71, 0
2, 46320, Note_on_c, 0, 74, 110
2, 46366, Note_on_c, 0, 74, 0
2, 46368, Note_on_c, 0, 67, 110
2, 46414, Note_on_c, 0, 67, 0
2, 46416, Note_on_c, 0, 71, 110
2, 46462, Note_on_c, 0, 71, 0
2, 46464, Note_on_c, 0, 72, 110
2, 46702, Note_on_c, 0, 72, 0
2, 46704, Note_on_c, 0, 76, 110
2, 46750, Note_on_c, 0, 76, 0
2, 46752, Note_on_c, 0, 69, 110
2, 46798, Note_on_c, 0, 69, 0
2, 46800, Note_on_c, 0, 72, 110
2, 46846, Note_on_c, 0, 72, 0
2, 46848, Note_on_c, 0, 65, 110
2, 47086, Note_on_c, 0, 65, 0
2, 47088, Note_on_c, 0, 69, 110
2, 47134, Note_on_c, 0, 69, 0
2, 47136, Note_on_c, 0, 62, 110
2, 47182, Note_on_c, 0, 62, 0
2, 47184, Note_on_c, 0, 65, 110
2, 47230, Note_on_c, 0, 65, 0
2, 47232, Note_on_c, 0, 70, 110
2, 47470, Note_on_c, 0, 70, 0
2, 47472, Note_on_c, 0, 74, 110
2, 47518, Note_on_c, 0, 74, 0
2, 47520, Note_on_c, 0, 67, 110
2, 47566, Note_on_c, 0, 67, 0
2, 47568, Note_on_c, 0, 70, 110
2, 47614, Note_on_c, 0, 70, 0
2, 47616, Note_on_c, 0, 64, 110
2, 47854, Note_on_c, 0, 64, 0
2, 47856, Note_on_c, 0, 67, 110
2, 47902, Note_on_c, 0, 67, 0
2, 47904, Note_on_c, 0, 60, 110
2, 47950, Note_on_c, 0, 60, 0
2, 47952, Note_on_c, 0, 64, 110
2, 47998, Note_on_c, 0, 64, 0
2, 48000, Note_on_c, 0, 69, 110
2, 48046, Note_on_c, 0, 69, 0
2, 48048, Note_on_c, 0, 72, 110
2, 48094, Note_on_c, 0, 72, 0
2, 48096, Note_on_c, 0, 65, 110
2, 48142, Note_on_c, 0, 65, 0
2, 48144, Note_on_c, 0, 69, 110
2, 48190, Note_on_c, 0, 69, 0
2, 48192, Note_on_c, 0, 62, 110
2, 48238, Note_on_c, 0, 62, 0
2, 48240, Note_on_c, 0, 65, 110
2, 48286, Note_on_c, 0, 65, 0
2, 48288, Note_on_c, 0, 58, 110
2, 48334, Note_on_c, 0, 58, 0
2, 48336, Note_on_c, 0, 62, 110
2, 48382, Note_on_c, 0, 62, 0
2, 48384, Note_on_c, 0, 67, 110
2, 48430, Note_on_c, 0, 67, 0
2, 48432, Note_on_c, 0, 70, 110
2, 48478, Note_on_c, 0, 70, 0
2, 48480, Note_on_c, 0, 64, 110
2, 48526, Note_on_c, 0, 64, 0
2, 48528, Note_on_c, 0, 67, 110
2, 48574, Note_on_c, 0, 67, 0
2, 48576, Note_on_c, 0, 60, 110
2, 48622, Note_on_c, 0, 60, 0
2, 48624, Note_on_c, 0, 64, 110
2, 48670, Note_on_c, 0, 64, 0
2, 48672, Note_on_c, 0, 57, 110
2, 48718, Note_on_c, 0, 57, 0
2, 48720, Note_on_c, 0, 60, 110
2, 48766, Note_on_c, 0, 60, 0
2, 48768, Note_on_c, 0, 65, 110
2, 48814, Note_on_c, 0, 65, 0
2, 48816, Note_on_c, 0, 69, 110
2, 48862, Note_on_c, 0, 69, 0
2, 48864, Note_on_c, 0, 62, 110
2, 48910, Note_on_c, 0, 62, 0
2, 48912, Note_on_c, 0, 65, 110
2, 48958, Note_on_c, 0, 65, 0
2, 48960, Note_on_c, 0, 70, 110
2, 49006, Note_on_c, 0, 70, 0
2, 49008, Note_on_c, 0, 74, 110
2, 49054, Note_on_c, 0, 74, 0
2, 49056, Note_on_c, 0, 67, 110
2, 49102, Note_on_c, 0, 67, 0
2, 49104, Note_on_c, 0, 70, 110
2, 49150, Note_on_c, 0, 70, 0
2, 49152, Note_on_c, 0, 60, 110
2, 49312, Note_on_c, 0, 60, 0
2, 49344, Note_on_c, 0, 64, 110
2, 49504, Note_on_c, 0, 64, 0
2, 49536, Note_on_c, 0, 65, 110
2, 49792, Note_on_c, 0, 65, 0
2, 49824, Note_on_c, 0, 65, 110
2, 49870, Note_on_c, 0, 65, 0
2, 49872, Note_on_c, 0, 64, 110
2, 49918, Note_on_c, 0, 64, 0
2, 49920, Note_on_c, 0, 65, 110
2, 49952, Note_on_c, 0, 65, 0
2, 50016, Note_on_c, 0, 67, 110
2, 50048, Note_on_c, 0, 67, 0
2, 50112, Note_on_c, 0, 69, 110
2, 50144, Note_on_c, 0, 69, 0
2, 50208, Note_on_c, 0, 70, 110
2, 50240, Note_on_c, 0, 70, 0
2, 50304, Note_on_c, 0, 72, 110
2, 50336, Note_on_c, 0, 72, 0
2, 50400, Note_on_c, 0, 65, 110
2, 50496, Note_on_c, 0, 65, 0
2, 50496, Note_on_c, 0, 70, 110
2, 50592, Note_on_c, 0, 70, 0
2, 50592, Note_on_c, 0, 74, 110
2, 50688, Note_on_c, 0, 74, 0
2, 50688, Note_on_c, 0, 72, 110
2, 50734, Note_on_c, 0, 72, 0
2, 50736, Note_on_c, 0, 70, 110
2, 50782, Note_on_c, 0, 70, 0
2, 50784, Note_on_c, 0, 69, 110
2, 50830, Note_on_c, 0, 69, 0
2, 50832, Note_on_c, 0, 67, 110
2, 50878, Note_on_c, 0, 67, 0
2, 50880, Note_on_c, 0, 65, 110
2, 50926, Note_on_c, 0, 65, 0
2, 50928, Note_on_c, 0, 63, 110
2, 50974, Note_on_c, 0, 63, 0
2, 50976, Note_on_c, 0, 62, 110
2, 51022, Note_on_c, 0, 62, 0
2, 51024, Note_on_c, 0, 60, 110
2, 51070, Note_on_c, 0, 60, 0
2, 51072, Note_on_c, 0, 62, 110
2, 51118, Note_on_c, 0, 62, 0
2, 51120, Note_on_c, 0, 58, 110
2, 51166, Note_on_c, 0, 58, 0
2, 51168, Note_on_c, 0, 65, 110
2, 51214, Note_on_c, 0, 65, 0
2, 51216, Note_on_c, 0, 62, 110
2, 51262, Note_on_c, 0, 62, 0
2, 51264, Note_on_c, 0, 70, 110
2, 51502, Note_on_c, 0, 70, 0
2, 51504, Note_on_c, 0, 74, 110
2, 51550, Note_on_c, 0, 74, 0
2, 51552, Note_on_c, 0, 67, 110
2, 51598, Note_on_c, 0, 67, 0
2, 51600, Note_on_c, 0, 70, 110
2, 51646, Note_on_c, 0, 70, 0
2, 51648, Note_on_c, 0, 64, 110
2, 51886, Note_on_c, 0, 64, 0
2, 51888, Note_on_c, 0, 60, 110
2, 51934, Note_on_c, 0, 60, 0
2, 51936, Note_on_c, 0, 67, 110
2, 51982, Note_on_c, 0, 67, 0
2, 51984, Note_on_c, 0, 64, 110
2, 52030, Note_on_c, 0, 64, 0
2, 52032, Note_on_c, 0, 72, 110
2, 52270, Note_on_c, 0, 72, 0
2, 52272, Note_on_c, 0, 76, 110
2, 52318, Note_on_c, 0, 76, 0
2, 52320, Note_on_c, 0, 69, 110
2, 52366, Note_on_c, 0, 69, 0
2, 52368, Note_on_c, 0, 72, 110
2, 52414, Note_on_c, 0, 72, 0
2, 52416, Note_on_c, 0, 65, 110
2, 52654, Note_on_c, 0, 65, 0
2, 52656, Note_on_c, 0, 62, 110
2, 52702, Note_on_c, 0, 62, 0
2, 52704, Note_on_c, 0, 69, 110
2, 52750, Note_on_c, 0, 69, 0
2, 52752, Note_on_c, 0, 65, 110
2, 52798, Note_on_c, 0, 65, 0
2, 52800, Note_on_c, 0, 74, 110
2, 52846, Note_on_c, 0, 74, 0
2, 52848, Note_on_c, 0, 69, 110
2, 52894, Note_on_c, 0, 69, 0
2, 52896, Note_on_c, 0, 77, 110
2, 52942, Note_on_c, 0, 77, 0
2, 52944, Note_on_c, 0, 74, 110
2, 52990, Note_on_c, 0, 74, 0
2, 52992, Note_on_c, 0, 70, 110
2, 53038, Note_on_c, 0, 70, 0
2, 53040, Note_on_c, 0, 67, 110
2, 53086, Note_on_c, 0, 67, 0
2, 53088, Note_on_c, 0, 74, 110
2, 53134, Note_on_c, 0, 74, 0
2, 53136, Note_on_c, 0, 70, 110
2, 53182, Note_on_c, 0, 70, 0
2, 53184, Note_on_c, 0, 79, 110
2, 53230, Note_on_c, 0, 79, 0
2, 53232, Note_on_c, 0, 74, 110
2, 53278, Note_on_c, 0, 74, 0
2, 53280, Note_on_c, 0, 82, 110
2, 53326, Note_on_c, 0, 82, 0
2, 53328, Note_on_c, 0, 79, 110
2, 53374, Note_on_c, 0, 79, 0
2, 53376, Note_on_c, 0, 76, 110
2, 53422, Note_on_c, 0, 76, 0
2, 53424, Note_on_c, 0, 72, 110
2, 53470, Note_on_c, 0, 72, 0
2, 53472, Note_on_c, 0, 79, 110
2, 53518, Note_on_c, 0, 79, 0
2, 53520, Note_on_c, 0, 76, 110
2, 53566, Note_on_c, 0, 76, 0
2, 53568, Note_on_c, 0, 82, 110
2, 53614, Note_on_c, 0, 82, 0
2, 53616, Note_on_c, 0, 79, 110
2, 53662, Note_on_c, 0, 79, 0
2, 53664, Note_on_c, 0, 76, 110
2, 53710, Note_on_c, 0, 76, 0
2, 53712, Note_on_c, 0, 84, 110
2, 53758, Note_on_c, 0, 84, 0
2, 53760, Note_on_c, 0, 81, 110
2, 53806, Note_on_c, 0, 81, 0
2, 53808, Note_on_c, 0, 84, 110
2, 53854, Note_on_c, 0, 84, 0
2, 53856, Note_on_c, 0, 77, 110
2, 53902, Note_on_c, 0, 77, 0
2, 53904, Note_on_c, 0, 81, 110
2, 53950, Note_on_c, 0, 81, 0
2, 53952, Note_on_c, 0, 72, 110
2, 53998, Note_on_c, 0, 72, 0
2, 54000, Note_on_c, 0, 77, 110
2, 54046, Note_on_c, 0, 77, 0
2, 54048, Note_on_c, 0, 75, 110
2, 54094, Note_on_c, 0, 75, 0
2, 54096, Note_on_c, 0, 74, 110
2, 54142, Note_on_c, 0, 74, 0
2, 54144, Note_on_c, 0, 75, 110
2, 54190, Note_on_c, 0, 75, 0
2, 54192, Note_on_c, 0, 79, 110
2, 54238, Note_on_c, 0, 79, 0
2, 54240, Note_on_c, 0, 72, 110
2, 54286, Note_on_c, 0, 72, 0
2, 54288, Note_on_c, 0, 75, 110
2, 54334, Note_on_c, 0, 75, 0
2, 54336, Note_on_c, 0, 69, 110
2, 54382, Note_on_c, 0, 69, 0
2, 54384, Note_on_c, 0, 75, 110
2, 54430, Note_on_c, 0, 75, 0
2, 54432, Note_on_c, 0, 74, 110
2, 54478, Note_on_c, 0, 74, 0
2, 54480, Note_on_c, 0, 72, 110
2, 54526, Note_on_c, 0, 72, 0
2, 54528, Note_on_c, 0, 74, 110
2, 54574, Note_on_c, 0, 74, 0
2, 54576, Note_on_c, 0, 70, 110
2, 54622, Note_on_c, 0, 70, 0
2, 54624, Note_on_c, 0, 76, 110
2, 54670, Note_on_c, 0, 76, 0
2, 54672, Note_on_c, 0, 70, 110
2, 54718, Note_on_c, 0, 70, 0
2, 54720, Note_on_c, 0, 77, 110
2, 54766, Note_on_c, 0, 77, 0
2, 54768, Note_on_c, 0, 70, 110
2, 54814, Note_on_c, 0, 70, 0
2, 54816, Note_on_c, 0, 79, 110
2, 54862, Note_on_c, 0, 79, 0
2, 54864, Note_on_c, 0, 70, 110
2, 54910, Note_on_c, 0, 70, 0
2, 54912, Note_on_c, 0, 69, 110
2, 54958, Note_on_c, 0, 69, 0
2, 54960, Note_on_c, 0, 79, 110
2, 55006, Note_on_c, 0, 79, 0
2, 55008, Note_on_c, 0, 77, 110
2, 55054, Note_on_c, 0, 77, 0
2, 55056, Note_on_c, 0, 76, 110
2, 55102, Note_on_c, 0, 76, 0
2, 55104, Note_on_c, 0, 74, 110
2, 55150, Note_on_c, 0, 74, 0
2, 55152, Note_on_c, 0, 77, 110
2, 55198, Note_on_c, 0, 77, 0
2, 55200, Note_on_c, 0, 72, 110
2, 55246, Note_on_c, 0, 72, 0
2, 55248, Note_on_c, 0, 77, 110
2, 55294, Note_on_c, 0, 77, 0
2, 55296, Note_on_c, 0, 70, 110
2, 55342, Note_on_c, 0, 70, 0
2, 55344, Note_on_c, 0, 81, 110
2, 55390, Note_on_c, 0, 81, 0
2, 55392, Note_on_c, 0, 79, 110
2, 55438, Note_on_c, 0, 79, 0
2, 55440, Note_on_c, 0, 77, 110
2, 55486, Note_on_c, 0, 77, 0
2, 55488, Note_on_c, 0, 76, 110
2, 55534, Note_on_c, 0, 76, 0
2, 55536, Note_on_c, 0, 79, 110
2, 55582, Note_on_c, 0, 79, 0
2, 55584, Note_on_c, 0, 72, 110
2, 55630, Note_on_c, 0, 72, 0
2, 55632, Note_on_c, 0, 76, 110
2, 55678, Note_on_c, 0, 76, 0
2, 55680, Note_on_c, 0, 77, 110
2, 55726, Note_on_c, 0, 77, 0
2, 55728, Note_on_c, 0, 72, 110
2, 55774, Note_on_c, 0, 72, 0
2, 55776, Note_on_c, 0, 81, 110
2, 55822, Note_on_c, 0, 81, 0
2, 55824, Note_on_c, 0, 77, 110
2, 55870, Note_on_c, 0, 77, 0
2, 55872, Note_on_c, 0, 72, 110
2, 55918, Note_on_c, 0, 72, 0
2, 55920, Note_on_c, 0, 69, 110
2, 55966, Note_on_c, 0, 69, 0
2, 55968, Note_on_c, 0, 77, 110
2, 56014, Note_on_c, 0, 77, 0
2, 56016, Note_on_c, 0, 72, 110
2, 56062, Note_on_c, 0, 72, 0
2, 56064, Note_on_c, 0, 69, 110
2, 56110, Note_on_c, 0, 69, 0
2, 56112, Note_on_c, 0, 65, 110
2, 56158, Note_on_c, 0, 65, 0
2, 56160, Note_on_c, 0, 72, 110
2, 56206, Note_on_c, 0, 72, 0
2, 56208, Note_on_c, 0, 69, 110
2, 56254, Note_on_c, 0, 69, 0
2, 56256, Note_on_c, 0, 65, 110
2, 56302, Note_on_c, 0, 65, 0
2, 56304, Note_on_c, 0, 60, 110
2, 56350, Note_on_c, 0, 60, 0
2, 56352, Note_on_c, 0, 69, 110
2, 56398, Note_on_c, 0, 69, 0
2, 56400, Note_on_c, 0, 65, 110
2, 56446, Note_on_c, 0, 65, 0
2, 56448, Note_on_c, 0, 60, 110
2, 56608, Note_on_c, 0, 60, 0
2, 56640, Note_on_c, 0, 81, 110
2, 56654, Note_on_c, 0, 81, 0
2, 56656, Note_on_c, 0, 79, 110
2, 56670, Note_on_c, 0, 79, 0
2, 56672, Note_on_c, 0, 77, 110
2, 56686, Note_on_c, 0, 77, 0
2, 56688, Note_on_c, 0, 79, 110
2, 56702, Note_on_c, 0, 79, 0
2, 56704, Note_on_c, 0, 81, 110
2, 56718, Note_on_c, 0, 81, 0
2, 56720, Note_on_c, 0, 79, 110
2, 56734, Note_on_c, 0, 79, 0
2, 56736, Note_on_c, 0, 81, 110
2, 56750, Note_on_c, 0, 81, 0
2, 56752, Note_on_c, 0, 79, 110
2, 56766, Note_on_c, 0, 79, 0
2, 56768, Note_on_c, 0, 81, 110
2, 56782, Note_on_c, 0, 81, 0
2, 56784, Note_on_c, 0, 79, 110
2, 56798, Note_on_c, 0, 79, 0
2, 56800, Note_on_c, 0, 77, 110
2, 56814, Note_on_c, 0, 77, 0
2, 56816, Note_on_c, 0, 79, 110
2, 56830, Note_on_c, 0, 79, 0
2, 56832, Note_on_c, 0, 77, 110
2, 57088, Note_on_c, 0, 77, 0
2, 57088, Note_on_c, 0, 71, 0
2, 57088, Note_on_c, 0, 73, 0
2, 57088, Note_on_c, 0, 75, 0
2, 57088, End_track
3, 0, Start_track
3, 0, MIDI_port, 0
3, 0, Title_t, "L.H."
3, 0, Program_c, 1, 0
3, 0, Control_c, 1, 7, 127
3, 0, Control_c, 1, 10, 64
3, 1536, Note_on_c, 1, 48, 110
3, 1696, Note_on_c, 1, 48, 0
3, 1728, Note_on_c, 1, 52, 110
3, 1888, Note_on_c, 1, 52, 0
3, 1920, Note_on_c, 1, 53, 110
3, 2176, Note_on_c, 1, 53, 0
3, 2208, Note_on_c, 1, 53, 110
3, 2254, Note_on_c, 1, 53, 0
3, 2256, Note_on_c, 1, 52, 110
3, 2302, Note_on_c, 1, 52, 0
3, 2304, Note_on_c, 1, 53, 110
3, 2336, Note_on_c, 1, 53, 0
3, 2400, Note_on_c, 1, 55, 110
3, 2432, Note_on_c, 1, 55, 0
3, 2496, Note_on_c, 1, 57, 110
3, 2528, Note_on_c, 1, 57, 0
3, 2592, Note_on_c, 1, 59, 110
3, 2624, Note_on_c, 1, 59, 0
3, 2688, Note_on_c, 1, 60, 110
3, 2720, Note_on_c, 1, 60, 0
3, 2784, Note_on_c, 1, 55, 110
3, 2880, Note_on_c, 1, 55, 0
3, 2880, Note_on_c, 1, 60, 110
3, 2976, Note_on_c, 1, 60, 0
3, 2976, Note_on_c, 1, 64, 110
3, 3072, Note_on_c, 1, 64, 0
3, 3072, Note_on_c, 1, 62, 110
3, 3118, Note_on_c, 1, 62, 0
3, 3120, Note_on_c, 1, 60, 110
3, 3166, Note_on_c, 1, 60, 0
3, 3168, Note_on_c, 1, 59, 110
3, 3214, Note_on_c, 1, 59, 0
3, 3216, Note_on_c, 1, 57, 110
3, 3262, Note_on_c, 1, 57, 0
3, 3264, Note_on_c, 1, 55, 110
3, 3310, Note_on_c, 1, 55, 0
3, 3312, Note_on_c, 1, 53, 110
3, 3358, Note_on_c, 1, 53, 0
3, 3360, Note_on_c, 1, 52, 110
3, 3406, Note_on_c, 1, 52, 0
3, 3408, Note_on_c, 1, 50, 110
3, 3454, Note_on_c, 1, 50, 0
3, 3456, Note_on_c, 1, 52, 110
3, 3502, Note_on_c, 1, 52, 0
3, 3504, Note_on_c, 1, 55, 110
3, 3550, Note_on_c, 1, 55, 0
3, 3552, Note_on_c, 1, 48, 110
3, 3598, Note_on_c, 1, 48, 0
3, 3600, Note_on_c, 1, 52, 110
3, 3646, Note_on_c, 1, 52, 0
3, 3648, Note_on_c, 1, 57, 110
3, 3886, Note_on_c, 1, 57, 0
3, 3888, Note_on_c, 1, 60, 110
3, 3934, Note_on_c, 1, 60, 0
3, 3936, Note_on_c, 1, 53, 110
3, 3982, Note_on_c, 1, 53, 0
3, 3984, Note_on_c, 1, 57, 110
3, 4030, Note_on_c, 1, 57, 0
3, 4032, Note_on_c, 1, 50, 110
3, 4270, Note_on_c, 1, 50, 0
3, 4272, Note_on_c, 1, 53, 110
3, 4318, Note_on_c, 1, 53, 0
3, 4320, Note_on_c, 1, 46, 110
3, 4366, Note_on_c, 1, 46, 0
3, 4368, Note_on_c, 1, 50, 110
3, 4414, Note_on_c, 1, 50, 0
3, 4416, Note_on_c, 1, 55, 110
3, 4654, Note_on_c, 1, 55, 0
3, 4656, Note_on_c, 1, 58, 110
3, 4702, Note_on_c, 1, 58, 0
3, 4704, Note_on_c, 1, 52, 110
3, 4750, Note_on_c, 1, 52, 0
3, 4752, Note_on_c, 1, 55, 110
3, 4798, Note_on_c, 1, 55, 0
3, 4800, Note_on_c, 1, 48, 110
3, 5038, Note_on_c, 1, 48, 0
3, 5040, Note_on_c, 1, 52, 110
3, 5086, Note_on_c, 1, 52, 0
3, 5088, Note_on_c, 1, 45, 110
3, 5134, Note_on_c, 1, 45, 0
3, 5136, Note_on_c, 1, 48, 110
3, 5182, Note_on_c, 1, 48, 0
3, 5184, Note_on_c, 1, 53, 110
3, 5230, Note_on_c, 1, 53, 0
3, 5232, Note_on_c, 1, 57, 110
3, 5278, Note_on_c, 1, 57, 0
3, 5280, Note_on_c, 1, 50, 110
3, 5326, Note_on_c, 1, 50, 0
3, 5328, Note_on_c, 1, 53, 110
3, 5374, Note_on_c, 1, 53, 0
3, 5376, Note_on_c, 1, 46, 110
3, 5422, Note_on_c, 1, 46, 0
3, 5424, Note_on_c, 1, 50, 110
3, 5470, Note_on_c, 1, 50, 0
3, 5472, Note_on_c, 1, 43, 110
3, 5518, Note_on_c, 1, 43, 0
3, 5520, Note_on_c, 1, 46, 110
3, 5566, Note_on_c, 1, 46, 0
3, 5568, Note_on_c, 1, 52, 110
3, 5614, Note_on_c, 1, 52, 0
3, 5616, Note_on_c, 1, 55, 110
3, 5662, Note_on_c, 1, 55, 0
3, 5664, Note_on_c, 1, 48, 110
3, 5710, Note_on_c, 1, 48, 0
3, 5712, Note_on_c, 1, 52, 110
3, 5758, Note_on_c, 1, 52, 0
3, 5760, Note_on_c, 1, 45, 110
3, 5806, Note_on_c, 1, 45, 0
3, 5808, Note_on_c, 1, 48, 110
3, 5854, Note_on_c, 1, 48, 0
3, 5856, Note_on_c, 1, 41, 110
3, 5902, Note_on_c, 1, 41, 0
3, 5904, Note_on_c, 1, 45, 110
3, 5950, Note_on_c, 1, 45, 0
3, 5952, Note_on_c, 1, 50, 110
3, 5998, Note_on_c, 1, 50, 0
3, 6000, Note_on_c, 1, 53, 110
3, 6046, Note_on_c, 1, 53, 0
3, 6048, Note_on_c, 1, 46, 110
3, 6094, Note_on_c, 1, 46, 0
3, 6096, Note_on_c, 1, 50, 110
3, 6142, Note_on_c, 1, 50, 0
3, 6144, Note_on_c, 1, 52, 110
3, 6190, Note_on_c, 1, 52, 0
3, 6192, Note_on_c, 1, 55, 110
3, 6238, Note_on_c, 1, 55, 0
3, 6240, Note_on_c, 1, 48, 110
3, 6286, Note_on_c, 1, 48, 0
3, 6288, Note_on_c, 1, 52, 110
3, 6334, Note_on_c, 1, 52, 0
3, 6336, Note_on_c, 1, 55, 110
3, 6382, Note_on_c, 1, 55, 0
3, 6384, Note_on_c, 1, 58, 110
3, 6430, Note_on_c, 1, 58, 0
3, 6432, Note_on_c, 1, 52, 110
3, 6478, Note_on_c, 1, 52, 0
3, 6480, Note_on_c, 1, 55, 110
3, 6526, Note_on_c, 1, 55, 0
3, 6528, Note_on_c, 1, 57, 110
3, 6574, Note_on_c, 1, 57, 0
3, 6576, Note_on_c, 1, 60, 110
3, 6622, Note_on_c, 1, 60, 0
3, 6624, Note_on_c, 1, 53, 110
3, 6670, Note_on_c, 1, 53, 0
3, 6672, Note_on_c, 1, 57, 110
3, 6718, Note_on_c, 1, 57, 0
3, 6720, Note_on_c, 1, 62, 110
3, 7006, Note_on_c, 1, 62, 0
3, 7008, Note_on_c, 1, 60, 110
3, 7054, Note_on_c, 1, 60, 0
3, 7056, Note_on_c, 1, 58, 110
3, 7102, Note_on_c, 1, 58, 0
3, 7104, Note_on_c, 1, 60, 110
3, 7150, Note_on_c, 1, 60, 0
3, 7152, Note_on_c, 1, 63, 110
3, 7198, Note_on_c, 1, 63, 0
3, 7200, Note_on_c, 1, 62, 110
3, 7246, Note_on_c, 1, 62, 0
3, 7248, Note_on_c, 1, 65, 110
3, 7294, Note_on_c, 1, 65, 0
3, 7296, Note_on_c, 1, 63, 110
3, 7342, Note_on_c, 1, 63, 0
3, 7344, Note_on_c, 1, 62, 110
3, 7390, Note_on_c, 1, 62, 0
3, 7392, Note_on_c, 1, 63, 110
3, 7438, Note_on_c, 1, 63, 0
3, 7440, Note_on_c, 1, 60, 110
3, 7486, Note_on_c, 1, 60, 0
3, 7488, Note_on_c, 1, 62, 110
3, 7534, Note_on_c, 1, 62, 0
3, 7536, Note_on_c, 1, 65, 110
3, 7582, Note_on_c, 1, 65, 0
3, 7584, Note_on_c, 1, 58, 110
3, 7630, Note_on_c, 1, 58, 0
3, 7632, Note_on_c, 1, 62, 110
3, 7678, Note_on_c, 1, 62, 0
3, 7680, Note_on_c, 1, 51, 110
3, 7726, Note_on_c, 1, 51, 0
3, 7728, Note_on_c, 1, 62, 110
3, 7774, Note_on_c, 1, 62, 0
3, 7776, Note_on_c, 1, 60, 110
3, 7822, Note_on_c, 1, 60, 0
3, 7824, Note_on_c, 1, 58, 110
3, 7870, Note_on_c, 1, 58, 0
3, 7872, Note_on_c, 1, 57, 110
3, 7918, Note_on_c, 1, 57, 0
3, 7920, Note_on_c, 1, 60, 110
3, 7966, Note_on_c, 1, 60, 0
3, 7968, Note_on_c, 1, 53, 110
3, 8014, Note_on_c, 1, 53, 0
3, 8016, Note_on_c, 1, 57, 110
3, 8062, Note_on_c, 1, 57, 0
3, 8064, Note_on_c, 1, 46, 110
3, 8302, Note_on_c, 1, 46, 0
3, 8304, Note_on_c, 1, 43, 110
3, 8350, Note_on_c, 1, 43, 0
3, 8352, Note_on_c, 1, 50, 110
3, 8398, Note_on_c, 1, 50, 0
3, 8400, Note_on_c, 1, 46, 110
3, 8446, Note_on_c, 1, 46, 0
3, 8448, Note_on_c, 1, 55, 110
3, 8686, Note_on_c, 1, 55, 0
3, 8688, Note_on_c, 1, 58, 110
3, 8734, Note_on_c, 1, 58, 0
3, 8736, Note_on_c, 1, 52, 110
3, 8782, Note_on_c, 1, 52, 0
3, 8784, Note_on_c, 1, 55, 110
3, 8830, Note_on_c, 1, 55, 0
3, 8832, Note_on_c, 1, 48, 110
3, 9070, Note_on_c, 1, 48, 0
3, 9072, Note_on_c, 1, 45, 110
3, 9118, Note_on_c, 1, 45, 0
3, 9120, Note_on_c, 1, 52, 110
3, 9166, Note_on_c, 1, 52, 0
3, 9168, Note_on_c, 1, 48, 110
3, 9214, Note_on_c, 1, 48, 0
3, 9216, Note_on_c, 1, 57, 110
3, 9454, Note_on_c, 1, 57, 0
3, 9456, Note_on_c, 1, 60, 110
3, 9502, Note_on_c, 1, 60, 0
3, 9504, Note_on_c, 1, 53, 110
3, 9550, Note_on_c, 1, 53, 0
3, 9552, Note_on_c, 1, 57, 110
3, 9598, Note_on_c, 1, 57, 0
3, 9600, Note_on_c, 1, 50, 110
3, 9838, Note_on_c, 1, 50, 0
3, 9840, Note_on_c, 1, 53, 110
3, 9886, Note_on_c, 1, 53, 0
3, 9888, Note_on_c, 1, 50, 110
3, 9934, Note_on_c, 1, 50, 0
3, 9936, Note_on_c, 1, 53, 110
3, 9982, Note_on_c, 1, 53, 0
3, 9984, Note_on_c, 1, 55, 110
3, 10030, Note_on_c, 1, 55, 0
3, 10032, Note_on_c, 1, 58, 110
3, 10078, Note_on_c, 1, 58, 0
3, 10080, Note_on_c, 1, 50, 110
3, 10126, Note_on_c, 1, 50, 0
3, 10128, Note_on_c, 1, 55, 110
3, 10174, Note_on_c, 1, 55, 0
3, 10176, Note_on_c, 1, 46, 110
3, 10222, Note_on_c, 1, 46, 0
3, 10224, Note_on_c, 1, 50, 110
3, 10270, Note_on_c, 1, 50, 0
3, 10272, Note_on_c, 1, 43, 110
3, 10318, Note_on_c, 1, 43, 0
3, 10320, Note_on_c, 1, 46, 110
3, 10366, Note_on_c, 1, 46, 0
3, 10368, Note_on_c, 1, 48, 110
3, 10414, Note_on_c, 1, 48, 0
3, 10416, Note_on_c, 1, 52, 110
3, 10462, Note_on_c, 1, 52, 0
3, 10464, Note_on_c, 1, 43, 110
3, 10510, Note_on_c, 1, 43, 0
3, 10512, Note_on_c, 1, 48, 110
3, 10558, Note_on_c, 1, 48, 0
3, 10560, Note_on_c, 1, 40, 110
3, 10606, Note_on_c, 1, 40, 0
3, 10608, Note_on_c, 1, 43, 110
3, 10654, Note_on_c, 1, 43, 0
3, 10656, Note_on_c, 1, 36, 110
3, 10702, Note_on_c, 1, 36, 0
3, 10704, Note_on_c, 1, 40, 110
3, 10750, Note_on_c, 1, 40, 0
3, 10752, Note_on_c, 1, 41, 110
3, 10912, Note_on_c, 1, 41, 0
3, 10944, Note_on_c, 1, 45, 110
3, 11104, Note_on_c, 1, 45, 0
3, 11136, Note_on_c, 1, 48, 110
3, 11392, Note_on_c, 1, 48, 0
3, 11424, Note_on_c, 1, 46, 110
3, 11470, Note_on_c, 1, 46, 0
3, 11472, Note_on_c, 1, 45, 110
3, 11518, Note_on_c, 1, 45, 0
3, 11520, Note_on_c, 1, 46, 110
3, 11552, Note_on_c, 1, 46, 0
3, 11616, Note_on_c, 1, 48, 110
3, 11648, Note_on_c, 1, 48, 0
3, 11712, Note_on_c, 1, 50, 110
3, 11744, Note_on_c, 1, 50, 0
3, 11808, Note_on_c, 1, 52, 110
3, 11840, Note_on_c, 1, 52, 0
3, 11904, Note_on_c, 1, 53, 110
3, 11936, Note_on_c, 1, 53, 0
3, 12000, Note_on_c, 1, 48, 110
3, 12096, Note_on_c, 1, 48, 0
3, 12096, Note_on_c, 1, 53, 110
3, 12192, Note_on_c, 1, 53, 0
3, 12192, Note_on_c, 1, 57, 110
3, 12288, Note_on_c, 1, 57, 0
3, 12288, Note_on_c, 1, 55, 110
3, 12334, Note_on_c, 1, 55, 0
3, 12336, Note_on_c, 1, 53, 110
3, 12382, Note_on_c, 1, 53, 0
3, 12384, Note_on_c, 1, 52, 110
3, 12430, Note_on_c, 1, 52, 0
3, 12432, Note_on_c, 1, 50, 110
3, 12478, Note_on_c, 1, 50, 0
3, 12480, Note_on_c, 1, 48, 110
3, 12526, Note_on_c, 1, 48, 0
3, 12528, Note_on_c, 1, 46, 110
3, 12574, Note_on_c, 1, 46, 0
3, 12576, Note_on_c, 1, 45, 110
3, 12622, Note_on_c, 1, 45, 0
3, 12624, Note_on_c, 1, 43, 110
3, 12670, Note_on_c, 1, 43, 0
3, 12672, Note_on_c, 1, 45, 110
3, 12718, Note_on_c, 1, 45, 0
3, 12720, Note_on_c, 1, 48, 110
3, 12766, Note_on_c, 1, 48, 0
3, 12768, Note_on_c, 1, 41, 110
3, 12814, Note_on_c, 1, 41, 0
3, 12816, Note_on_c, 1, 45, 110
3, 12862, Note_on_c, 1, 45, 0
3, 12864, Note_on_c, 1, 48, 110
3, 12910, Note_on_c, 1, 48, 0
3, 12912, Note_on_c, 1, 53, 110
3, 12958, Note_on_c, 1, 53, 0
3, 12960, Note_on_c, 1, 45, 110
3, 13006, Note_on_c, 1, 45, 0
3, 13008, Note_on_c, 1, 48, 110
3, 13054, Note_on_c, 1, 48, 0
3, 13056, Note_on_c, 1, 53, 110
3, 13102, Note_on_c, 1, 53, 0
3, 13104, Note_on_c, 1, 57, 110
3, 13150, Note_on_c, 1, 57, 0
3, 13152, Note_on_c, 1, 48, 110
3, 13198, Note_on_c, 1, 48, 0
3, 13200, Note_on_c, 1, 53, 110
3, 13246, Note_on_c, 1, 53, 0
3, 13248, Note_on_c, 1, 57, 110
3, 13294, Note_on_c, 1, 57, 0
3, 13296, Note_on_c, 1, 60, 110
3, 13342, Note_on_c, 1, 60, 0
3, 13344, Note_on_c, 1, 53, 110
3, 13390, Note_on_c, 1, 53, 0
3, 13392, Note_on_c, 1, 57, 110
3, 13438, Note_on_c, 1, 57, 0
3, 13440, Note_on_c, 1, 60, 110
3, 13600, Note_on_c, 1, 60, 0
3, 13632, Note_on_c, 1, 48, 110
3, 13792, Note_on_c, 1, 48, 0
3, 13824, Note_on_c, 1, 53, 110
3, 13870, Note_on_c, 1, 53, 0
3, 13872, Note_on_c, 1, 48, 110
3, 13918, Note_on_c, 1, 48, 0
3, 13920, Note_on_c, 1, 45, 110
3, 13966, Note_on_c, 1, 45, 0
3, 13968, Note_on_c, 1, 48, 110
3, 14014, Note_on_c, 1, 48, 0
3, 14016, Note_on_c, 1, 41, 110
3, 14110, Note_on_c, 1, 41, 0
3, 14304, Note_on_c, 1, 52, 110
3, 14400, Note_on_c, 1, 52, 0
3, 14400, Note_on_c, 1, 53, 110
3, 14496, Note_on_c, 1, 53, 0
3, 14496, Note_on_c, 1, 56, 110
3, 14592, Note_on_c, 1, 56, 0
3, 14592, Note_on_c, 1, 57, 110
3, 14830, Note_on_c, 1, 57, 0
3, 14832, Note_on_c, 1, 56, 110
3, 14878, Note_on_c, 1, 56, 0
3, 14880, Note_on_c, 1, 57, 110
3, 14926, Note_on_c, 1, 57, 0
3, 14928, Note_on_c, 1, 59, 110
3, 14974, Note_on_c, 1, 59, 0
3, 14976, Note_on_c, 1, 60, 110
3, 15232, Note_on_c, 1, 60, 0
3, 15264, Note_on_c, 1, 58, 110
3, 15310, Note_on_c, 1, 58, 0
3, 15312, Note_on_c, 1, 57, 110
3, 15358, Note_on_c, 1, 57, 0
3, 15360, Note_on_c, 1, 58, 110
3, 15392, Note_on_c, 1, 58, 0
3, 15456, Note_on_c, 1, 49, 110
3, 15488, Note_on_c, 1, 49, 0
3, 15552, Note_on_c, 1, 50, 110
3, 15712, Note_on_c, 1, 50, 0
3, 15840, Note_on_c, 1, 48, 110
3, 15936, Note_on_c, 1, 48, 0
3, 15936, Note_on_c, 1, 51, 110
3, 16032, Note_on_c, 1, 51, 0
3, 16032, Note_on_c, 1, 52, 110
3, 16222, Note_on_c, 1, 52, 0
3, 16224, Note_on_c, 1, 50, 110
3, 16270, Note_on_c, 1, 50, 0
3, 16272, Note_on_c, 1, 49, 110
3, 16318, Note_on_c, 1, 49, 0
3, 16320, Note_on_c, 1, 50, 110
3, 16352, Note_on_c, 1, 50, 0
3, 16416, Note_on_c, 1, 59, 110
3, 16462, Note_on_c, 1, 59, 0
3, 16464, Note_on_c, 1, 50, 110
3, 16510, Note_on_c, 1, 50, 0
3, 16512, Note_on_c, 1, 48, 110
3, 16558, Note_on_c, 1, 48, 0
3, 16560, Note_on_c, 1, 47, 110
3, 16606, Note_on_c, 1, 47, 0
3, 16608, Note_on_c, 1, 45, 110
3, 16654, Note_on_c, 1, 45, 0
3, 16656, Note_on_c, 1, 48, 110
3, 16702, Note_on_c, 1, 48, 0
3, 16704, Note_on_c, 1, 47, 110
3, 16736, Note_on_c, 1, 47, 0
3, 16800, Note_on_c, 1, 52, 110
3, 16832, Note_on_c, 1, 52, 0
3, 16896, Note_on_c, 1, 59, 110
3, 16906, Note_on_c, 1, 59, 0
3, 16908, Note_on_c, 1, 57, 110
3, 16918, Note_on_c, 1, 57, 0
3, 16920, Note_on_c, 1, 59, 110
3, 16930, Note_on_c, 1, 59, 0
3, 16932, Note_on_c, 1, 57, 110
3, 16942, Note_on_c, 1, 57, 0
3, 16944, Note_on_c, 1, 56, 110
3, 16990, Note_on_c, 1, 56, 0
3, 16992, Note_on_c, 1, 57, 110
3, 17086, Note_on_c, 1, 57, 0
3, 17472, Note_on_c, 1, 45, 110
3, 17632, Note_on_c, 1, 45, 0
3, 17664, Note_on_c, 1, 49, 110
3, 17824, Note_on_c, 1, 49, 0
3, 17856, Note_on_c, 1, 52, 110
3, 18142, Note_on_c, 1, 52, 0
3, 18144, Note_on_c, 1, 50, 110
3, 18190, Note_on_c, 1, 50, 0
3, 18192, Note_on_c, 1, 49, 110
3, 18238, Note_on_c, 1, 49, 0
3, 18240, Note_on_c, 1, 50, 110
3, 18272, Note_on_c, 1, 50, 0
3, 18336, Note_on_c, 1, 52, 110
3, 18368, Note_on_c, 1, 52, 0
3, 18432, Note_on_c, 1, 53, 110
3, 18464, Note_on_c, 1, 53, 0
3, 18528, Note_on_c, 1, 55, 110
3, 18560, Note_on_c, 1, 55, 0
3, 18624, Note_on_c, 1, 57, 110
3, 18910, Note_on_c, 1, 57, 0
3, 18912, Note_on_c, 1, 55, 110
3, 18958, Note_on_c, 1, 55, 0
3, 18960, Note_on_c, 1, 53, 110
3, 19006, Note_on_c, 1, 53, 0
3, 19008, Note_on_c, 1, 55, 110
3, 19040, Note_on_c, 1, 55, 0
3, 19104, Note_on_c, 1, 57, 110
3, 19136, Note_on_c, 1, 57, 0
3, 19200, Note_on_c, 1, 59, 110
3, 19232, Note_on_c, 1, 59, 0
3, 19296, Note_on_c, 1, 61, 110
3, 19328, Note_on_c, 1, 61, 0
3, 19392, Note_on_c, 1, 62, 110
3, 19424, Note_on_c, 1, 62, 0
3, 19488, Note_on_c, 1, 58, 110
3, 19520, Note_on_c, 1, 58, 0
3, 19584, Note_on_c, 1, 57, 110
3, 19630, Note_on_c, 1, 57, 0
3, 19632, Note_on_c, 1, 55, 110
3, 19678, Note_on_c, 1, 55, 0
3, 19680, Note_on_c, 1, 53, 110
3, 19726, Note_on_c, 1, 53, 0
3, 19728, Note_on_c, 1, 55, 110
3, 19774, Note_on_c, 1, 55, 0
3, 19776, Note_on_c, 1, 57, 110
3, 19808, Note_on_c, 1, 57, 0
3, 19872, Note_on_c, 1, 52, 110
3, 19968, Note_on_c, 1, 52, 0
3, 19968, Note_on_c, 1, 53, 110
3, 20064, Note_on_c, 1, 53, 0
3, 20064, Note_on_c, 1, 56, 110
3, 20160, Note_on_c, 1, 56, 0
3, 20160, Note_on_c, 1, 57, 110
3, 20398, Note_on_c, 1, 57, 0
3, 20400, Note_on_c, 1, 56, 110
3, 20446, Note_on_c, 1, 56, 0
3, 20448, Note_on_c, 1, 57, 110
3, 20494, Note_on_c, 1, 57, 0
3, 20496, Note_on_c, 1, 59, 110
3, 20542, Note_on_c, 1, 59, 0
3, 20544, Note_on_c, 1, 60, 110
3, 20830, Note_on_c, 1, 60, 0
3, 20832, Note_on_c, 1, 58, 110
3, 20878, Note_on_c, 1, 58, 0
3, 20880, Note_on_c, 1, 57, 110
3, 20926, Note_on_c, 1, 57, 0
3, 20928, Note_on_c, 1, 58, 110
3, 20960, Note_on_c, 1, 58, 0
3, 21024, Note_on_c, 1, 49, 110
3, 21056, Note_on_c, 1, 49, 0
3, 21120, Note_on_c, 1, 50, 110
3, 21280, Note_on_c, 1, 50, 0
3, 21408, Note_on_c, 1, 48, 110
3, 21504, Note_on_c, 1, 48, 0
3, 21504, Note_on_c, 1, 51, 110
3, 21600, Note_on_c, 1, 51, 0
3, 21600, Note_on_c, 1, 52, 110
3, 21760, Note_on_c, 1, 52, 0
3, 21792, Note_on_c, 1, 50, 110
3, 21838, Note_on_c, 1, 50, 0
3, 21840, Note_on_c, 1, 49, 110
3, 21886, Note_on_c, 1, 49, 0
3, 21888, Note_on_c, 1, 50, 110
3, 21920, Note_on_c, 1, 50, 0
3, 21984, Note_on_c, 1, 59, 110
3, 22030, Note_on_c, 1, 59, 0
3, 22032, Note_on_c, 1, 50, 110
3, 22078, Note_on_c, 1, 50, 0
3, 22080, Note_on_c, 1, 48, 110
3, 22126, Note_on_c, 1, 48, 0
3, 22128, Note_on_c, 1, 47, 110
3, 22174, Note_on_c, 1, 47, 0
3, 22176, Note_on_c, 1, 45, 110
3, 22222, Note_on_c, 1, 45, 0
3, 22224, Note_on_c, 1, 48, 110
3, 22270, Note_on_c, 1, 48, 0
3, 22272, Note_on_c, 1, 47, 110
3, 22304, Note_on_c, 1, 47, 0
3, 22368, Note_on_c, 1, 52, 110
3, 22400, Note_on_c, 1, 52, 0
3, 22464, Note_on_c, 1, 59, 110
3, 22474, Note_on_c, 1, 59, 0
3, 22476, Note_on_c, 1, 57, 110
3, 22486, Note_on_c, 1, 57, 0
3, 22488, Note_on_c, 1, 59, 110
3, 22498, Note_on_c, 1, 59, 0
3, 22500, Note_on_c, 1, 57, 110
3, 22510, Note_on_c, 1, 57, 0
3, 22512, Note_on_c, 1, 56, 110
3, 22558, Note_on_c, 1, 56, 0
3, 22560, Note_on_c, 1, 57, 110
3, 22750, Note_on_c, 1, 57, 0
3, 22752, Note_on_c, 1, 56, 110
3, 22798, Note_on_c, 1, 56, 0
3, 22800, Note_on_c, 1, 54, 110
3, 22846, Note_on_c, 1, 54, 0
3, 22848, Note_on_c, 1, 52, 110
3, 22894, Note_on_c, 1, 52, 0
3, 22896, Note_on_c, 1, 50, 110
3, 22942, Note_on_c, 1, 50, 0
3, 22944, Note_on_c, 1, 48, 110
3, 22990, Note_on_c, 1, 48, 0
3, 22992, Note_on_c, 1, 47, 110
3, 23038, Note_on_c, 1, 47, 0
3, 23040, Note_on_c, 1, 45, 110
3, 23200, Note_on_c, 1, 45, 0
3, 23232, Note_on_c, 1, 48, 110
3, 23392, Note_on_c, 1, 48, 0
3, 23424, Note_on_c, 1, 52, 110
3, 23680, Note_on_c, 1, 52, 0
3, 23712, Note_on_c, 1, 50, 110
3, 23758, Note_on_c, 1, 50, 0
3, 23760, Note_on_c, 1, 48, 110
3, 23806, Note_on_c, 1, 48, 0
3, 23808, Note_on_c, 1, 50, 110
3, 23840, Note_on_c, 1, 50, 0
3, 23904, Note_on_c, 1, 52, 110
3, 23936, Note_on_c, 1, 52, 0
3, 24000, Note_on_c, 1, 54, 110
3, 24032, Note_on_c, 1, 54, 0
3, 24096, Note_on_c, 1, 56, 110
3, 24128, Note_on_c, 1, 56, 0
3, 24192, Note_on_c, 1, 57, 110
3, 24448, Note_on_c, 1, 57, 0
3, 24480, Note_on_c, 1, 56, 110
3, 24526, Note_on_c, 1, 56, 0
3, 24528, Note_on_c, 1, 54, 110
3, 24574, Note_on_c, 1, 54, 0
3, 24576, Note_on_c, 1, 56, 110
3, 24608, Note_on_c, 1, 56, 0
3, 24672, Note_on_c, 1, 57, 110
3, 24704, Note_on_c, 1, 57, 0
3, 24768, Note_on_c, 1, 59, 110
3, 24800, Note_on_c, 1, 59, 0
3, 24864, Note_on_c, 1, 60, 110
3, 24896, Note_on_c, 1, 60, 0
3, 24960, Note_on_c, 1, 64, 110
3, 25006, Note_on_c, 1, 64, 0
3, 25008, Note_on_c, 1, 62, 110
3, 25054, Note_on_c, 1, 62, 0
3, 25056, Note_on_c, 1, 60, 110
3, 25102, Note_on_c, 1, 60, 0
3, 25104, Note_on_c, 1, 59, 110
3, 25150, Note_on_c, 1, 59, 0
3, 25152, Note_on_c, 1, 60, 110
3, 25184, Note_on_c, 1, 60, 0
3, 25248, Note_on_c, 1, 65, 110
3, 25280, Note_on_c, 1, 65, 0
3, 25344, Note_on_c, 1, 62, 110
3, 25376, Note_on_c, 1, 62, 0
3, 25440, Note_on_c, 1, 59, 110
3, 25472, Note_on_c, 1, 59, 0
3, 25536, Note_on_c, 1, 64, 110
3, 25568, Note_on_c, 1, 64, 0
3, 25632, Note_on_c, 1, 52, 110
3, 25664, Note_on_c, 1, 52, 0
3, 25728, Note_on_c, 1, 57, 110
3, 25774, Note_on_c, 1, 57, 0
3, 25776, Note_on_c, 1, 60, 110
3, 25822, Note_on_c, 1, 60, 0
3, 25824, Note_on_c, 1, 52, 110
3, 25870, Note_on_c, 1, 52, 0
3, 25872, Note_on_c, 1, 57, 110
3, 25918, Note_on_c, 1, 57, 0
3, 25920, Note_on_c, 1, 48, 110
3, 25966, Note_on_c, 1, 48, 0
3, 25968, Note_on_c, 1, 52, 110
3, 26014, Note_on_c, 1, 52, 0
3, 26016, Note_on_c, 1, 45, 110
3, 26062, Note_on_c, 1, 45, 0
3, 26064, Note_on_c, 1, 48, 110
3, 26110, Note_on_c, 1, 48, 0
3, 26112, Note_on_c, 1, 41, 110
3, 26272, Note_on_c, 1, 41, 0
3, 26304, Note_on_c, 1, 45, 110
3, 26464, Note_on_c, 1, 45, 0
3, 26496, Note_on_c, 1, 48, 110
3, 26752, Note_on_c, 1, 48, 0
3, 26784, Note_on_c, 1, 46, 110
3, 26830, Note_on_c, 1, 46, 0
3, 26832, Note_on_c, 1, 45, 110
3, 26878, Note_on_c, 1, 45, 0
3, 26880, Note_on_c, 1, 46, 110
3, 26912, Note_on_c, 1, 46, 0
3, 26976, Note_on_c, 1, 48, 110
3, 27008, Note_on_c, 1, 48, 0
3, 27072, Note_on_c, 1, 50, 110
3, 27104, Note_on_c, 1, 50, 0
3, 27168, Note_on_c, 1, 52, 110
3, 27200, Note_on_c, 1, 52, 0
3, 27264, Note_on_c, 1, 53, 110
3, 27296, Note_on_c, 1, 53, 0
3, 27360, Note_on_c, 1, 48, 110
3, 27456, Note_on_c, 1, 48, 0
3, 27456, Note_on_c, 1, 53, 110
3, 27552, Note_on_c, 1, 53, 0
3, 27552, Note_on_c, 1, 57, 110
3, 27648, Note_on_c, 1, 57, 0
3, 27648, Note_on_c, 1, 55, 110
3, 27694, Note_on_c, 1, 55, 0
3, 27696, Note_on_c, 1, 53, 110
3, 27742, Note_on_c, 1, 53, 0
3, 27744, Note_on_c, 1, 52, 110
3, 27790, Note_on_c, 1, 52, 0
3, 27792, Note_on_c, 1, 50, 110
3, 27838, Note_on_c, 1, 50, 0
3, 27840, Note_on_c, 1, 48, 110
3, 27886, Note_on_c, 1, 48, 0
3, 27888, Note_on_c, 1, 46, 110
3, 27934, Note_on_c, 1, 46, 0
3, 27936, Note_on_c, 1, 45, 110
3, 27982, Note_on_c, 1, 45, 0
3, 27984, Note_on_c, 1, 43, 110
3, 28030, Note_on_c, 1, 43, 0
3, 28032, Note_on_c, 1, 44, 110
3, 28078, Note_on_c, 1, 44, 0
3, 28080, Note_on_c, 1, 48, 110
3, 28126, Note_on_c, 1, 48, 0
3, 28128, Note_on_c, 1, 41, 110
3, 28174, Note_on_c, 1, 41, 0
3, 28176, Note_on_c, 1, 44, 110
3, 28222, Note_on_c, 1, 44, 0
3, 28224, Note_on_c, 1, 36, 110
3, 28256, Note_on_c, 1, 36, 0
3, 28320, Note_on_c, 1, 48, 110
3, 28352, Note_on_c, 1, 48, 0
3, 28416, Note_on_c, 1, 49, 110
3, 28448, Note_on_c, 1, 49, 0
3, 28512, Note_on_c, 1, 50, 110
3, 28544, Note_on_c, 1, 50, 0
3, 28608, Note_on_c, 1, 51, 110
3, 28640, Note_on_c, 1, 51, 0
3, 28704, Note_on_c, 1, 52, 110
3, 28894, Note_on_c, 1, 52, 0
3, 28896, Note_on_c, 1, 53, 110
3, 28928, Note_on_c, 1, 53, 0
3, 28992, Note_on_c, 1, 54, 110
3, 29024, Note_on_c, 1, 54, 0
3, 29088, Note_on_c, 1, 55, 110
3, 29120, Note_on_c, 1, 55, 0
3, 29184, Note_on_c, 1, 56, 110
3, 29230, Note_on_c, 1, 56, 0
3, 29232, Note_on_c, 1, 58, 110
3, 29278, Note_on_c, 1, 58, 0
3, 29280, Note_on_c, 1, 60, 110
3, 29326, Note_on_c, 1, 60, 0
3, 29328, Note_on_c, 1, 58, 110
3, 29374, Note_on_c, 1, 58, 0
3, 29376, Note_on_c, 1, 56, 110
3, 29422, Note_on_c, 1, 56, 0
3, 29424, Note_on_c, 1, 55, 110
3, 29470, Note_on_c, 1, 55, 0
3, 29472, Note_on_c, 1, 53, 110
3, 29518, Note_on_c, 1, 53, 0
3, 29520, Note_on_c, 1, 51, 110
3, 29566, Note_on_c, 1, 51, 0
3, 29568, Note_on_c, 1, 49, 110
3, 29614, Note_on_c, 1, 49, 0
3, 29616, Note_on_c, 1, 51, 110
3, 29662, Note_on_c, 1, 51, 0
3, 29664, Note_on_c, 1, 53, 110
3, 29710, Note_on_c, 1, 53, 0
3, 29712, Note_on_c, 1, 51, 110
3, 29758, Note_on_c, 1, 51, 0
3, 29760, Note_on_c, 1, 49, 110
3, 29806, Note_on_c, 1, 49, 0
3, 29808, Note_on_c, 1, 48, 110
3, 29854, Note_on_c, 1, 48, 0
3, 29856, Note_on_c, 1, 46, 110
3, 29888, Note_on_c, 1, 46, 0
3, 29952, Note_on_c, 1, 52, 110
3, 29998, Note_on_c, 1, 52, 0
3, 30000, Note_on_c, 1, 53, 110
3, 30046, Note_on_c, 1, 53, 0
3, 30048, Note_on_c, 1, 55, 110
3, 30094, Note_on_c, 1, 55, 0
3, 30096, Note_on_c, 1, 53, 110
3, 30142, Note_on_c, 1, 53, 0
3, 30144, Note_on_c, 1, 52, 110
3, 30190, Note_on_c, 1, 52, 0
3, 30192, Note_on_c, 1, 50, 110
3, 30238, Note_on_c, 1, 50, 0
3, 30240, Note_on_c, 1, 48, 110
3, 30272, Note_on_c, 1, 48, 0
3, 30336, Note_on_c, 1, 53, 110
3, 30382, Note_on_c, 1, 53, 0
3, 30384, Note_on_c, 1, 55, 110
3, 30430, Note_on_c, 1, 55, 0
3, 30432, Note_on_c, 1, 56, 110
3, 30478, Note_on_c, 1, 56, 0
3, 30480, Note_on_c, 1, 55, 110
3, 30526, Note_on_c, 1, 55, 0
3, 30528, Note_on_c, 1, 53, 110
3, 30574, Note_on_c, 1, 53, 0
3, 30576, Note_on_c, 1, 51, 110
3, 30622, Note_on_c, 1, 51, 0
3, 30624, Note_on_c, 1, 49, 110
3, 30656, Note_on_c, 1, 49, 0
3, 30720, Note_on_c, 1, 48, 110
3, 30752, Note_on_c, 1, 48, 0
3, 30816, Note_on_c, 1, 36, 110
3, 30848, Note_on_c, 1, 36, 0
3, 31008, Note_on_c, 1, 48, 110
3, 31104, Note_on_c, 1, 48, 0
3, 31104, Note_on_c, 1, 49, 110
3, 31200, Note_on_c, 1, 49, 0
3, 31200, Note_on_c, 1, 52, 110
3, 31296, Note_on_c, 1, 52, 0
3, 31296, Note_on_c, 1, 53, 110
3, 31534, Note_on_c, 1, 53, 0
3, 31536, Note_on_c, 1, 52, 110
3, 31582, Note_on_c, 1, 52, 0
3, 31584, Note_on_c, 1, 53, 110
3, 31630, Note_on_c, 1, 53, 0
3, 31632, Note_on_c, 1, 55, 110
3, 31678, Note_on_c, 1, 55, 0
3, 31680, Note_on_c, 1, 56, 110
3, 31966, Note_on_c, 1, 57, 0
3, 31966, Note_on_c, 1, 57, 0
3, 31966, Note_on_c, 1, 57, 0
3, 31966, Note_on_c, 1, 57, 0
3, 31966, Note_on_c, 1, 57, 0
3, 31966, Note_on_c, 1, 57, 0
3, 31966, Note_on_c, 1, 57, 0
3, 31966, Note_on_c, 1, 57, 0
3, 31966, Note_on_c, 1, 57, 0
3, 31966, Note_on_c, 1, 57, 0
3, 31966, Note_on_c, 1, 57, 0
3, 31966, Note_on_c, 1, 57, 0
3, 31966, Note_on_c, 1, 57, 0
3, 31966, Note_on_c, 1, 57, 0
3, 31966, Note_on_c, 1, 57, 0
3, 31966, Note_on_c, 1, 57, 0
3, 31968, Note_on_c, 1, 54, 110
3, 32014, Note_on_c, 1, 54, 0
3, 32016, Note_on_c, 1, 53, 110
3, 32062, Note_on_c, 1, 53, 0
3, 32064, Note_on_c, 1, 54, 110
3, 32096, Note_on_c, 1, 54, 0
3, 32160, Note_on_c, 1, 45, 110
3, 32192, Note_on_c, 1, 45, 0
3, 32256, Note_on_c, 1, 46, 110
3, 32512, Note_on_c, 1, 46, 0
3, 32544, Note_on_c, 1, 44, 110
3, 32640, Note_on_c, 1, 44, 0
3, 32640, Note_on_c, 1, 47, 110
3, 32736, Note_on_c, 1, 47, 0
3, 32736, Note_on_c, 1, 48, 110
3, 32896, Note_on_c, 1, 48, 0
3, 32928, Note_on_c, 1, 46, 110
3, 32974, Note_on_c, 1, 46, 0
3, 32976, Note_on_c, 1, 45, 110
3, 33022, Note_on_c, 1, 45, 0
3, 33024, Note_on_c, 1, 46, 110
3, 33056, Note_on_c, 1, 46, 0
3, 33120, Note_on_c, 1, 55, 110
3, 33166, Note_on_c, 1, 55, 0
3, 33168, Note_on_c, 1, 46, 110
3, 33214, Note_on_c, 1, 46, 0
3, 33216, Note_on_c, 1, 44, 110
3, 33262, Note_on_c, 1, 44, 0
3, 33264, Note_on_c, 1, 43, 110
3, 33310, Note_on_c, 1, 43, 0
3, 33312, Note_on_c, 1, 41, 110
3, 33358, Note_on_c, 1, 41, 0
3, 33360, Note_on_c, 1, 44, 110
3, 33406, Note_on_c, 1, 44, 0
3, 33408, Note_on_c, 1, 43, 110
3, 33440, Note_on_c, 1, 43, 0
3, 33504, Note_on_c, 1, 48, 110
3, 33536, Note_on_c, 1, 48, 0
3, 33600, Note_on_c, 1, 55, 110
3, 33610, Note_on_c, 1, 55, 0
3, 33612, Note_on_c, 1, 53, 110
3, 33622, Note_on_c, 1, 53, 0
3, 33624, Note_on_c, 1, 55, 110
3, 33634, Note_on_c, 1, 55, 0
3, 33636, Note_on_c, 1, 53, 110
3, 33646, Note_on_c, 1, 53, 0
3, 33648, Note_on_c, 1, 52, 110
3, 33694, Note_on_c, 1, 52, 0
3, 33696, Note_on_c, 1, 53, 110
3, 33886, Note_on_c, 1, 53, 0
3, 33888, Note_on_c, 1, 52, 110
3, 33934, Note_on_c, 1, 52, 0
3, 33936, Note_on_c, 1, 50, 110
3, 33982, Note_on_c, 1, 50, 0
3, 33984, Note_on_c, 1, 48, 110
3, 34030, Note_on_c, 1, 48, 0
3, 34032, Note_on_c, 1, 46, 110
3, 34078, Note_on_c, 1, 46, 0
3, 34080, Note_on_c, 1, 44, 110
3, 34126, Note_on_c, 1, 44, 0
3, 34128, Note_on_c, 1, 43, 110
3, 34174, Note_on_c, 1, 43, 0
3, 34176, Note_on_c, 1, 41, 110
3, 34336, Note_on_c, 1, 41, 0
3, 34368, Note_on_c, 1, 44, 110
3, 34528, Note_on_c, 1, 44, 0
3, 34560, Note_on_c, 1, 48, 110
3, 34816, Note_on_c, 1, 48, 0
3, 34848, Note_on_c, 1, 46, 110
3, 34894, Note_on_c, 1, 46, 0
3, 34896, Note_on_c, 1, 44, 110
3, 34942, Note_on_c, 1, 44, 0
3, 34944, Note_on_c, 1, 46, 110
3, 34976, Note_on_c, 1, 46, 0
3, 35040, Note_on_c, 1, 48, 110
3, 35072, Note_on_c, 1, 48, 0
3, 35136, Note_on_c, 1, 50, 110
3, 35168, Note_on_c, 1, 50, 0
3, 35232, Note_on_c, 1, 52, 110
3, 35264, Note_on_c, 1, 52, 0
3, 35328, Note_on_c, 1, 53, 110
3, 35584, Note_on_c, 1, 53, 0
3, 35616, Note_on_c, 1, 52, 110
3, 35662, Note_on_c, 1, 52, 0
3, 35664, Note_on_c, 1, 50, 110
3, 35710, Note_on_c, 1, 50, 0
3, 35712, Note_on_c, 1, 52, 110
3, 35744, Note_on_c, 1, 52, 0
3, 35808, Note_on_c, 1, 53, 110
3, 35840, Note_on_c, 1, 53, 0
3, 35904, Note_on_c, 1, 55, 110
3, 35936, Note_on_c, 1, 55, 0
3, 36000, Note_on_c, 1, 56, 110
3, 36032, Note_on_c, 1, 56, 0
3, 36096, Note_on_c, 1, 60, 110
3, 36142, Note_on_c, 1, 60, 0
3, 36144, Note_on_c, 1, 58, 110
3, 36190, Note_on_c, 1, 58, 0
3, 36192, Note_on_c, 1, 56, 110
3, 36238, Note_on_c, 1, 56, 0
3, 36240, Note_on_c, 1, 55, 110
3, 36286, Note_on_c, 1, 55, 0
3, 36288, Note_on_c, 1, 56, 110
3, 36320, Note_on_c, 1, 56, 0
3, 36384, Note_on_c, 1, 61, 110
3, 36416, Note_on_c, 1, 61, 0
3, 36480, Note_on_c, 1, 58, 110
3, 36512, Note_on_c, 1, 58, 0
3, 36576, Note_on_c, 1, 55, 110
3, 36608, Note_on_c, 1, 55, 0
3, 36672, Note_on_c, 1, 60, 110
3, 36704, Note_on_c, 1, 60, 0
3, 36768, Note_on_c, 1, 48, 110
3, 36800, Note_on_c, 1, 48, 0
3, 36864, Note_on_c, 1, 53, 110
3, 36896, Note_on_c, 1, 53, 0
3, 36960, Note_on_c, 1, 50, 110
3, 37056, Note_on_c, 1, 50, 0
3, 37056, Note_on_c, 1, 51, 110
3, 37152, Note_on_c, 1, 51, 0
3, 37152, Note_on_c, 1, 54, 110
3, 37248, Note_on_c, 1, 54, 0
3, 37248, Note_on_c, 1, 55, 110
3, 37486, Note_on_c, 1, 55, 0
3, 37488, Note_on_c, 1, 54, 110
3, 37534, Note_on_c, 1, 54, 0
3, 37536, Note_on_c, 1, 55, 110
3, 37582, Note_on_c, 1, 55, 0
3, 37584, Note_on_c, 1, 57, 110
3, 37630, Note_on_c, 1, 57, 0
3, 37632, Note_on_c, 1, 58, 110
3, 37888, Note_on_c, 1, 58, 0
3, 37920, Note_on_c, 1, 56, 110
3, 37966, Note_on_c, 1, 56, 0
3, 37968, Note_on_c, 1, 55, 110
3, 38014, Note_on_c, 1, 55, 0
3, 38016, Note_on_c, 1, 56, 110
3, 38048, Note_on_c, 1, 56, 0
3, 38112, Note_on_c, 1, 47, 110
3, 38144, Note_on_c, 1, 47, 0
3, 38208, Note_on_c, 1, 48, 110
3, 38368, Note_on_c, 1, 48, 0
3, 38496, Note_on_c, 1, 46, 110
3, 38592, Note_on_c, 1, 46, 0
3, 38592, Note_on_c, 1, 49, 110
3, 38688, Note_on_c, 1, 49, 0
3, 38688, Note_on_c, 1, 50, 110
3, 38878, Note_on_c, 1, 50, 0
3, 38880, Note_on_c, 1, 48, 110
3, 38926, Note_on_c, 1, 48, 0
3, 38928, Note_on_c, 1, 47, 110
3, 38974, Note_on_c, 1, 47, 0
3, 38976, Note_on_c, 1, 48, 110
3, 39008, Note_on_c, 1, 48, 0
3, 39072, Note_on_c, 1, 57, 110
3, 39118, Note_on_c, 1, 57, 0
3, 39120, Note_on_c, 1, 48, 110
3, 39166, Note_on_c, 1, 48, 0
3, 39168, Note_on_c, 1, 46, 110
3, 39214, Note_on_c, 1, 46, 0
3, 39216, Note_on_c, 1, 45, 110
3, 39262, Note_on_c, 1, 45, 0
3, 39264, Note_on_c, 1, 43, 110
3, 39310, Note_on_c, 1, 43, 0
3, 39312, Note_on_c, 1, 46, 110
3, 39358, Note_on_c, 1, 46, 0
3, 39360, Note_on_c, 1, 45, 110
3, 39392, Note_on_c, 1, 45, 0
3, 39456, Note_on_c, 1, 50, 110
3, 39488, Note_on_c, 1, 50, 0
3, 39552, Note_on_c, 1, 57, 110
3, 39562, Note_on_c, 1, 57, 0
3, 39564, Note_on_c, 1, 55, 110
3, 39574, Note_on_c, 1, 55, 0
3, 39576, Note_on_c, 1, 57, 110
3, 39586, Note_on_c, 1, 57, 0
3, 39588, Note_on_c, 1, 55, 110
3, 39598, Note_on_c, 1, 55, 0
3, 39600, Note_on_c, 1, 54, 110
3, 39646, Note_on_c, 1, 54, 0
3, 39648, Note_on_c, 1, 55, 110
3, 39742, Note_on_c, 1, 55, 0
3, 40128, Note_on_c, 1, 43, 110
3, 40288, Note_on_c, 1, 43, 0
3, 40320, Note_on_c, 1, 47, 110
3, 40480, Note_on_c, 1, 47, 0
3, 40512, Note_on_c, 1, 50, 110
3, 40798, Note_on_c, 1, 50, 0
3, 40800, Note_on_c, 1, 48, 110
3, 40846, Note_on_c, 1, 48, 0
3, 40848, Note_on_c, 1, 47, 110
3, 40894, Note_on_c, 1, 47, 0
3, 40896, Note_on_c, 1, 48, 110
3, 40928, Note_on_c, 1, 48, 0
3, 40992, Note_on_c, 1, 50, 110
3, 41024, Note_on_c, 1, 50, 0
3, 41088, Note_on_c, 1, 51, 110
3, 41120, Note_on_c, 1, 51, 0
3, 41184, Note_on_c, 1, 53, 110
3, 41216, Note_on_c, 1, 53, 0
3, 41280, Note_on_c, 1, 55, 110
3, 41566, Note_on_c, 1, 55, 0
3, 41568, Note_on_c, 1, 53, 110
3, 41614, Note_on_c, 1, 53, 0
3, 41616, Note_on_c, 1, 52, 110
3, 41662, Note_on_c, 1, 52, 0
3, 41664, Note_on_c, 1, 53, 110
3, 41696, Note_on_c, 1, 53, 0
3, 41760, Note_on_c, 1, 55, 110
3, 41792, Note_on_c, 1, 55, 0
3, 41856, Note_on_c, 1, 57, 110
3, 41888, Note_on_c, 1, 57, 0
3, 41952, Note_on_c, 1, 59, 110
3, 41984, Note_on_c, 1, 59, 0
3, 42048, Note_on_c, 1, 60, 110
3, 42080, Note_on_c, 1, 60, 0
3, 42144, Note_on_c, 1, 56, 110
3, 42176, Note_on_c, 1, 56, 0
3, 42240, Note_on_c, 1, 55, 110
3, 42286, Note_on_c, 1, 55, 0
3, 42288, Note_on_c, 1, 53, 110
3, 42334, Note_on_c, 1, 53, 0
3, 42336, Note_on_c, 1, 51, 110
3, 42382, Note_on_c, 1, 51, 0
3, 42384, Note_on_c, 1, 53, 110
3, 42430, Note_on_c, 1, 53, 0
3, 42432, Note_on_c, 1, 55, 110
3, 42464, Note_on_c, 1, 55, 0
3, 42528, Note_on_c, 1, 43, 110
3, 42560, Note_on_c, 1, 43, 0
3, 42624, Note_on_c, 1, 48, 110
3, 42670, Note_on_c, 1, 48, 0
3, 42672, Note_on_c, 1, 69, 110
3, 42718, Note_on_c, 1, 69, 0
3, 42720, Note_on_c, 1, 67, 110
3, 42766, Note_on_c, 1, 67, 0
3, 42768, Note_on_c, 1, 65, 110
3, 42814, Note_on_c, 1, 65, 0
3, 42816, Note_on_c, 1, 64, 110
3, 42862, Note_on_c, 1, 64, 0
3, 42864, Note_on_c, 1, 62, 110
3, 42910, Note_on_c, 1, 62, 0
3, 42912, Note_on_c, 1, 60, 110
3, 42958, Note_on_c, 1, 60, 0
3, 42960, Note_on_c, 1, 58, 110
3, 43006, Note_on_c, 1, 58, 0
3, 43008, Note_on_c, 1, 57, 110
3, 43054, Note_on_c, 1, 57, 0
3, 43056, Note_on_c, 1, 65, 110
3, 43102, Note_on_c, 1, 65, 0
3, 43104, Note_on_c, 1, 64, 110
3, 43150, Note_on_c, 1, 64, 0
3, 43152, Note_on_c, 1, 62, 110
3, 43198, Note_on_c, 1, 62, 0
3, 43200, Note_on_c, 1, 60, 110
3, 43246, Note_on_c, 1, 60, 0
3, 43248, Note_on_c, 1, 58, 110
3, 43294, Note_on_c, 1, 58, 0
3, 43296, Note_on_c, 1, 57, 110
3, 43342, Note_on_c, 1, 57, 0
3, 43344, Note_on_c, 1, 55, 110
3, 43390, Note_on_c, 1, 55, 0
3, 43392, Note_on_c, 1, 53, 110
3, 43438, Note_on_c, 1, 53, 0
3, 43440, Note_on_c, 1, 58, 110
3, 43486, Note_on_c, 1, 58, 0
3, 43488, Note_on_c, 1, 57, 110
3, 43534, Note_on_c, 1, 57, 0
3, 43536, Note_on_c, 1, 55, 110
3, 43582, Note_on_c, 1, 55, 0
3, 43584, Note_on_c, 1, 53, 110
3, 43630, Note_on_c, 1, 53, 0
3, 43632, Note_on_c, 1, 51, 110
3, 43678, Note_on_c, 1, 51, 0
3, 43680, Note_on_c, 1, 50, 110
3, 43726, Note_on_c, 1, 50, 0
3, 43728, Note_on_c, 1, 48, 110
3, 43774, Note_on_c, 1, 48, 0
3, 43776, Note_on_c, 1, 50, 110
3, 43822, Note_on_c, 1, 50, 0
3, 43824, Note_on_c, 1, 53, 110
3, 43870, Note_on_c, 1, 53, 0
3, 43872, Note_on_c, 1, 52, 110
3, 43918, Note_on_c, 1, 52, 0
3, 43920, Note_on_c, 1, 50, 110
3, 43966, Note_on_c, 1, 50, 0
3, 43968, Note_on_c, 1, 48, 110
3, 44014, Note_on_c, 1, 48, 0
3, 44016, Note_on_c, 1, 46, 110
3, 44062, Note_on_c, 1, 46, 0
3, 44064, Note_on_c, 1, 45, 110
3, 44110, Note_on_c, 1, 45, 0
3, 44112, Note_on_c, 1, 43, 110
3, 44158, Note_on_c, 1, 43, 0
3, 44160, Note_on_c, 1, 45, 110
3, 44192, Note_on_c, 1, 45, 0
3, 44256, Note_on_c, 1, 41, 110
3, 44288, Note_on_c, 1, 41, 0
3, 44544, Note_on_c, 1, 48, 110
3, 44704, Note_on_c, 1, 48, 0
3, 44736, Note_on_c, 1, 52, 110
3, 44896, Note_on_c, 1, 52, 0
3, 44928, Note_on_c, 1, 53, 110
3, 45184, Note_on_c, 1, 53, 0
3, 45216, Note_on_c, 1, 53, 110
3, 45262, Note_on_c, 1, 53, 0
3, 45264, Note_on_c, 1, 52, 110
3, 45310, Note_on_c, 1, 52, 0
3, 45312, Note_on_c, 1, 53, 110
3, 45344, Note_on_c, 1, 53, 0
3, 45408, Note_on_c, 1, 55, 110
3, 45440, Note_on_c, 1, 55, 0
3, 45504, Note_on_c, 1, 57, 110
3, 45536, Note_on_c, 1, 57, 0
3, 45600, Note_on_c, 1, 59, 110
3, 45632, Note_on_c, 1, 59, 0
3, 45696, Note_on_c, 1, 60, 110
3, 45728, Note_on_c, 1, 60, 0
3, 45792, Note_on_c, 1, 55, 110
3, 45888, Note_on_c, 1, 55, 0
3, 45888, Note_on_c, 1, 60, 110
3, 45984, Note_on_c, 1, 60, 0
3, 45984, Note_on_c, 1, 64, 110
3, 46080, Note_on_c, 1, 64, 0
3, 46080, Note_on_c, 1, 62, 110
3, 46126, Note_on_c, 1, 62, 0
3, 46128, Note_on_c, 1, 60, 110
3, 46174, Note_on_c, 1, 60, 0
3, 46176, Note_on_c, 1, 59, 110
3, 46222, Note_on_c, 1, 59, 0
3, 46224, Note_on_c, 1, 57, 110
3, 46270, Note_on_c, 1, 57, 0
3, 46272, Note_on_c, 1, 55, 110
3, 46318, Note_on_c, 1, 55, 0
3, 46320, Note_on_c, 1, 53, 110
3, 46366, Note_on_c, 1, 53, 0
3, 46368, Note_on_c, 1, 52, 110
3, 46414, Note_on_c, 1, 52, 0
3, 46416, Note_on_c, 1, 50, 110
3, 46462, Note_on_c, 1, 50, 0
3, 46464, Note_on_c, 1, 52, 110
3, 46510, Note_on_c, 1, 52, 0
3, 46512, Note_on_c, 1, 55, 110
3, 46558, Note_on_c, 1, 55, 0
3, 46560, Note_on_c, 1, 48, 110
3, 46606, Note_on_c, 1, 48, 0
3, 46608, Note_on_c, 1, 52, 110
3, 46654, Note_on_c, 1, 52, 0
3, 46656, Note_on_c, 1, 57, 110
3, 46894, Note_on_c, 1, 57, 0
3, 46896, Note_on_c, 1, 60, 110
3, 46942, Note_on_c, 1, 60, 0
3, 46944, Note_on_c, 1, 53, 110
3, 46990, Note_on_c, 1, 53, 0
3, 46992, Note_on_c, 1, 57, 110
3, 47038, Note_on_c, 1, 57, 0
3, 47040, Note_on_c, 1, 50, 110
3, 47278, Note_on_c, 1, 50, 0
3, 47280, Note_on_c, 1, 53, 110
3, 47326, Note_on_c, 1, 53, 0
3, 47328, Note_on_c, 1, 46, 110
3, 47374, Note_on_c, 1, 46, 0
3, 47376, Note_on_c, 1, 50, 110
3, 47422, Note_on_c, 1, 50, 0
3, 47424, Note_on_c, 1, 55, 110
3, 47662, Note_on_c, 1, 55, 0
3, 47664, Note_on_c, 1, 58, 110
3, 47710, Note_on_c, 1, 58, 0
3, 47712, Note_on_c, 1, 52, 110
3, 47758, Note_on_c, 1, 52, 0
3, 47760, Note_on_c, 1, 55, 110
3, 47806, Note_on_c, 1, 55, 0
3, 47808, Note_on_c, 1, 48, 110
3, 48046, Note_on_c, 1, 48, 0
3, 48048, Note_on_c, 1, 52, 110
3, 48094, Note_on_c, 1, 52, 0
3, 48096, Note_on_c, 1, 45, 110
3, 48142, Note_on_c, 1, 45, 0
3, 48144, Note_on_c, 1, 48, 110
3, 48190, Note_on_c, 1, 48, 0
3, 48192, Note_on_c, 1, 53, 110
3, 48238, Note_on_c, 1, 53, 0
3, 48240, Note_on_c, 1, 57, 110
3, 48286, Note_on_c, 1, 57, 0
3, 48288, Note_on_c, 1, 50, 110
3, 48334, Note_on_c, 1, 50, 0
3, 48336, Note_on_c, 1, 53, 110
3, 48382, Note_on_c, 1, 53, 0
3, 48384, Note_on_c, 1, 46, 110
3, 48430, Note_on_c, 1, 46, 0
3, 48432, Note_on_c, 1, 50, 110
3, 48478, Note_on_c, 1, 50, 0
3, 48480, Note_on_c, 1, 43, 110
3, 48526, Note_on_c, 1, 43, 0
3, 48528, Note_on_c, 1, 46, 110
3, 48574, Note_on_c, 1, 46, 0
3, 48576, Note_on_c, 1, 52, 110
3, 48622, Note_on_c, 1, 52, 0
3, 48624, Note_on_c, 1, 55, 110
3, 48670, Note_on_c, 1, 55, 0
3, 48672, Note_on_c, 1, 48, 110
3, 48718, Note_on_c, 1, 48, 0
3, 48720, Note_on_c, 1, 52, 110
3, 48766, Note_on_c, 1, 52, 0
3, 48768, Note_on_c, 1, 45, 110
3, 48814, Note_on_c, 1, 45, 0
3, 48816, Note_on_c, 1, 48, 110
3, 48862, Note_on_c, 1, 48, 0
3, 48864, Note_on_c, 1, 41, 110
3, 48910, Note_on_c, 1, 41, 0
3, 48912, Note_on_c, 1, 45, 110
3, 48958, Note_on_c, 1, 45, 0
3, 48960, Note_on_c, 1, 50, 110
3, 49006, Note_on_c, 1, 50, 0
3, 49008, Note_on_c, 1, 53, 110
3, 49054, Note_on_c, 1, 53, 0
3, 49056, Note_on_c, 1, 46, 110
3, 49102, Note_on_c, 1, 46, 0
3, 49104, Note_on_c, 1, 50, 110
3, 49150, Note_on_c, 1, 50, 0
3, 49152, Note_on_c, 1, 52, 110
3, 49198, Note_on_c, 1, 52, 0
3, 49200, Note_on_c, 1, 55, 110
3, 49246, Note_on_c, 1, 55, 0
3, 49248, Note_on_c, 1, 48, 110
3, 49294, Note_on_c, 1, 48, 0
3, 49296, Note_on_c, 1, 52, 110
3, 49342, Note_on_c, 1, 52, 0
3, 49344, Note_on_c, 1, 55, 110
3, 49390, Note_on_c, 1, 55, 0
3, 49392, Note_on_c, 1, 58, 110
3, 49438, Note_on_c, 1, 58, 0
3, 49440, Note_on_c, 1, 52, 110
3, 49486, Note_on_c, 1, 52, 0
3, 49488, Note_on_c, 1, 55, 110
3, 49534, Note_on_c, 1, 55, 0
3, 49536, Note_on_c, 1, 57, 110
3, 49582, Note_on_c, 1, 57, 0
3, 49584, Note_on_c, 1, 60, 110
3, 49630, Note_on_c, 1, 60, 0
3, 49632, Note_on_c, 1, 53, 110
3, 49678, Note_on_c, 1, 53, 0
3, 49680, Note_on_c, 1, 57, 110
3, 49726, Note_on_c, 1, 57, 0
3, 49728, Note_on_c, 1, 62, 110
3, 50014, Note_on_c, 1, 62, 0
3, 50016, Note_on_c, 1, 60, 110
3, 50062, Note_on_c, 1, 60, 0
3, 50064, Note_on_c, 1, 58, 110
3, 50110, Note_on_c, 1, 58, 0
3, 50112, Note_on_c, 1, 60, 110
3, 50158, Note_on_c, 1, 60, 0
3, 50160, Note_on_c, 1, 63, 110
3, 50206, Note_on_c, 1, 63, 0
3, 50208, Note_on_c, 1, 62, 110
3, 50254, Note_on_c, 1, 62, 0
3, 50256, Note_on_c, 1, 65, 110
3, 50302, Note_on_c, 1, 65, 0
3, 50304, Note_on_c, 1, 63, 110
3, 50350, Note_on_c, 1, 63, 0
3, 50352, Note_on_c, 1, 62, 110
3, 50398, Note_on_c, 1, 62, 0
3, 50400, Note_on_c, 1, 63, 110
3, 50446, Note_on_c, 1, 63, 0
3, 50448, Note_on_c, 1, 60, 110
3, 50494, Note_on_c, 1, 60, 0
3, 50496, Note_on_c, 1, 62, 110
3, 50542, Note_on_c, 1, 62, 0
3, 50544, Note_on_c, 1, 65, 110
3, 50590, Note_on_c, 1, 65, 0
3, 50592, Note_on_c, 1, 58, 110
3, 50638, Note_on_c, 1, 58, 0
3, 50640, Note_on_c, 1, 62, 110
3, 50686, Note_on_c, 1, 62, 0
3, 50688, Note_on_c, 1, 51, 110
3, 50734, Note_on_c, 1, 51, 0
3, 50736, Note_on_c, 1, 62, 110
3, 50782, Note_on_c, 1, 62, 0
3, 50784, Note_on_c, 1, 60, 110
3, 50830, Note_on_c, 1, 60, 0
3, 50832, Note_on_c, 1, 58, 110
3, 50878, Note_on_c, 1, 58, 0
3, 50880, Note_on_c, 1, 57, 110
3, 50926, Note_on_c, 1, 57, 0
3, 50928, Note_on_c, 1, 60, 110
3, 50974, Note_on_c, 1, 60, 0
3, 50976, Note_on_c, 1, 53, 110
3, 51022, Note_on_c, 1, 53, 0
3, 51024, Note_on_c, 1, 57, 110
3, 51070, Note_on_c, 1, 57, 0
3, 51072, Note_on_c, 1, 46, 110
3, 51310, Note_on_c, 1, 46, 0
3, 51312, Note_on_c, 1, 43, 110
3, 51358, Note_on_c, 1, 43, 0
3, 51360, Note_on_c, 1, 50, 110
3, 51406, Note_on_c, 1, 50, 0
3, 51408, Note_on_c, 1, 46, 110
3, 51454, Note_on_c, 1, 46, 0
3, 51456, Note_on_c, 1, 55, 110
3, 51694, Note_on_c, 1, 55, 0
3, 51696, Note_on_c, 1, 58, 110
3, 51742, Note_on_c, 1, 58, 0
3, 51744, Note_on_c, 1, 52, 110
3, 51790, Note_on_c, 1, 52, 0
3, 51792, Note_on_c, 1, 55, 110
3, 51838, Note_on_c, 1, 55, 0
3, 51840, Note_on_c, 1, 48, 110
3, 52078, Note_on_c, 1, 48, 0
3, 52080, Note_on_c, 1, 45, 110
3, 52126, Note_on_c, 1, 45, 0
3, 52128, Note_on_c, 1, 52, 110
3, 52174, Note_on_c, 1, 52, 0
3, 52176, Note_on_c, 1, 48, 110
3, 52222, Note_on_c, 1, 48, 0
3, 52224, Note_on_c, 1, 57, 110
3, 52462, Note_on_c, 1, 57, 0
3, 52464, Note_on_c, 1, 60, 110
3, 52510, Note_on_c, 1, 60, 0
3, 52512, Note_on_c, 1, 53, 110
3, 52558, Note_on_c, 1, 53, 0
3, 52560, Note_on_c, 1, 57, 110
3, 52606, Note_on_c, 1, 57, 0
3, 52608, Note_on_c, 1, 50, 110
3, 52846, Note_on_c, 1, 50, 0
3, 52848, Note_on_c, 1, 53, 110
3, 52894, Note_on_c, 1, 53, 0
3, 52896, Note_on_c, 1, 50, 110
3, 52942, Note_on_c, 1, 50, 0
3, 52944, Note_on_c, 1, 53, 110
3, 52990, Note_on_c, 1, 53, 0
3, 52992, Note_on_c, 1, 55, 110
3, 53038, Note_on_c, 1, 55, 0
3, 53040, Note_on_c, 1, 58, 110
3, 53086, Note_on_c, 1, 58, 0
3, 53088, Note_on_c, 1, 50, 110
3, 53134, Note_on_c, 1, 50, 0
3, 53136, Note_on_c, 1, 55, 110
3, 53182, Note_on_c, 1, 55, 0
3, 53184, Note_on_c, 1, 46, 110
3, 53230, Note_on_c, 1, 46, 0
3, 53232, Note_on_c, 1, 50, 110
3, 53278, Note_on_c, 1, 50, 0
3, 53280, Note_on_c, 1, 43, 110
3, 53326, Note_on_c, 1, 43, 0
3, 53328, Note_on_c, 1, 46, 110
3, 53374, Note_on_c, 1, 46, 0
3, 53376, Note_on_c, 1, 48, 110
3, 53422, Note_on_c, 1, 48, 0
3, 53424, Note_on_c, 1, 52, 110
3, 53470, Note_on_c, 1, 52, 0
3, 53472, Note_on_c, 1, 43, 110
3, 53518, Note_on_c, 1, 43, 0
3, 53520, Note_on_c, 1, 48, 110
3, 53566, Note_on_c, 1, 48, 0
3, 53568, Note_on_c, 1, 40, 110
3, 53614, Note_on_c, 1, 40, 0
3, 53616, Note_on_c, 1, 43, 110
3, 53662, Note_on_c, 1, 43, 0
3, 53664, Note_on_c, 1, 36, 110
3, 53710, Note_on_c, 1, 36, 0
3, 53712, Note_on_c, 1, 40, 110
3, 53758, Note_on_c, 1, 40, 0
3, 53760, Note_on_c, 1, 41, 110
3, 53920, Note_on_c, 1, 41, 0
3, 53952, Note_on_c, 1, 45, 110
3, 54112, Note_on_c, 1, 45, 0
3, 54144, Note_on_c, 1, 48, 110
3, 54400, Note_on_c, 1, 48, 0
3, 54432, Note_on_c, 1, 46, 110
3, 54478, Note_on_c, 1, 46, 0
3, 54480, Note_on_c, 1, 45, 110
3, 54526, Note_on_c, 1, 45, 0
3, 54528, Note_on_c, 1, 46, 110
3, 54560, Note_on_c, 1, 46, 0
3, 54624, Note_on_c, 1, 48, 110
3, 54656, Note_on_c, 1, 48, 0
3, 54720, Note_on_c, 1, 50, 110
3, 54752, Note_on_c, 1, 50, 0
3, 54816, Note_on_c, 1, 52, 110
3, 54848, Note_on_c, 1, 52, 0
3, 54912, Note_on_c, 1, 53, 110
3, 54944, Note_on_c, 1, 53, 0
3, 55008, Note_on_c, 1, 48, 110
3, 55104, Note_on_c, 1, 48, 0
3, 55104, Note_on_c, 1, 53, 110
3, 55200, Note_on_c, 1, 53, 0
3, 55200, Note_on_c, 1, 57, 110
3, 55296, Note_on_c, 1, 57, 0
3, 55296, Note_on_c, 1, 55, 110
3, 55342, Note_on_c, 1, 55, 0
3, 55344, Note_on_c, 1, 53, 110
3, 55390, Note_on_c, 1, 53, 0
3, 55392, Note_on_c, 1, 52, 110
3, 55438, Note_on_c, 1, 52, 0
3, 55440, Note_on_c, 1, 50, 110
3, 55486, Note_on_c, 1, 50, 0
3, 55488, Note_on_c, 1, 48, 110
3, 55534, Note_on_c, 1, 48, 0
3, 55536, Note_on_c, 1, 46, 110
3, 55582, Note_on_c, 1, 46, 0
3, 55584, Note_on_c, 1, 45, 110
3, 55630, Note_on_c, 1, 45, 0
3, 55632, Note_on_c, 1, 43, 110
3, 55678, Note_on_c, 1, 43, 0
3, 55680, Note_on_c, 1, 45, 110
3, 55726, Note_on_c, 1, 45, 0
3, 55728, Note_on_c, 1, 48, 110
3, 55774, Note_on_c, 1, 48, 0
3, 55776, Note_on_c, 1, 41, 110
3, 55822, Note_on_c, 1, 41, 0
3, 55824, Note_on_c, 1, 45, 110
3, 55870, Note_on_c, 1, 45, 0
3, 55872, Note_on_c, 1, 48, 110
3, 55918, Note_on_c, 1, 48, 0
3, 55920, Note_on_c, 1, 53, 110
3, 55966, Note_on_c, 1, 53, 0
3, 55968, Note_on_c, 1, 45, 110
3, 56014, Note_on_c, 1, 45, 0
3, 56016, Note_on_c, 1, 48, 110
3, 56062, Note_on_c, 1, 48, 0
3, 56064, Note_on_c, 1, 53, 110
3, 56110, Note_on_c, 1, 53, 0
3, 56112, Note_on_c, 1, 57, 110
3, 56158, Note_on_c, 1, 57, 0
3, 56160, Note_on_c, 1, 48, 110
3, 56206, Note_on_c, 1, 48, 0
3, 56208, Note_on_c, 1, 53, 110
3, 56254, Note_on_c, 1, 53, 0
3, 56256, Note_on_c, 1, 57, 110
3, 56302, Note_on_c, 1, 57, 0
3, 56304, Note_on_c, 1, 60, 110
3, 56350, Note_on_c, 1, 60, 0
3, 56352, Note_on_c, 1, 53, 110
3, 56398, Note_on_c, 1, 53, 0
3, 56400, Note_on_c, 1, 57, 110
3, 56446, Note_on_c, 1, 57, 0
3, 56448, Note_on_c, 1, 60, 110
3, 56608, Note_on_c, 1, 60, 0
3, 56640, Note_on_c, 1, 48, 110
3, 56800, Note_on_c, 1, 48, 0
3, 56832, Note_on_c, 1, 41, 110
3, 57088, Note_on_c, 1, 41, 0
3, 57088, Note_on_c, 1, 56, 0
3, 57088, End_track
4, 0, Start_track
4, 0, MIDI_port, 0
4, 0, Title_t, "Johann Sebastian Bach  (1685-1750)"
4, 0, End_track
5, 0, Start_track
5, 0, MIDI_port, 0
5, 0, Title_t, "Clavierubung Part III - Four Duets"
5, 0, End_track
6, 0, Start_track
6, 0, MIDI_port, 0
6, 0, Title_t, "Duet No. 2 in F major - BWV 803"
6, 0, End_track
7, 0, Start_track
7, 0, MIDI_port, 0
7, 0, End_track
8, 0, Start_track
8, 0, MIDI_port, 0
8, 0, Title_t, "Sequenced by David Jao "
8, 0, End_track
9, 0, Start_track
9, 0, MIDI_port, 0
9, 0, Title_t, "with NoteWorthy Composer"
9, 0, End_track
0, 0, End_of_file
