0, 0, Header, 1, 4, 240
1, 0, Start_track
1, 0, Time_signature, 1, 4, 6, 8
1, 0, Tempo, 750000
1, 60, Time_signature, 4, 2, 24, 8
1, 22140, Time_signature, 15, 4, 6, 8
1, 23040, Time_signature, 1, 4, 6, 8
1, 23100, Time_signature, 4, 2, 24, 8
1, 33660, Time_signature, 15, 4, 6, 8
1, 34560, Time_signature, 1, 4, 6, 8
1, 34620, Time_signature, 4, 2, 24, 8
1, 45180, Time_signature, 15, 4, 6, 8
1, 45180, End_track
2, 0, Start_track
2, 0, Title_t, "English Suite 5 2. Allemande"
2, 0, Program_c, 0, 0
2, 0, Note_on_c, 0, 76, 93
2, 48, Note_off_c, 0, 76, 64
2, 60, Note_on_c, 0, 76, 93
2, 204, Note_off_c, 0, 76, 64
2, 240, Note_on_c, 0, 74, 93
2, 288, Note_off_c, 0, 74, 64
2, 300, Note_on_c, 0, 72, 93
2, 348, Note_off_c, 0, 72, 64
2, 360, Note_on_c, 0, 71, 93
2, 408, Note_off_c, 0, 71, 64
2, 420, Note_on_c, 0, 69, 93
2, 468, Note_off_c, 0, 69, 64
2, 480, Note_on_c, 0, 67, 93
2, 528, Note_off_c, 0, 67, 64
2, 540, Note_on_c, 0, 66, 93
2, 588, Note_off_c, 0, 66, 64
2, 600, Note_on_c, 0, 76, 93
2, 648, Note_off_c, 0, 76, 64
2, 660, Note_on_c, 0, 75, 93
2, 708, Note_off_c, 0, 75, 64
2, 720, Note_on_c, 0, 81, 93
2, 768, Note_off_c, 0, 81, 64
2, 780, Note_on_c, 0, 81, 93
2, 828, Note_off_c, 0, 81, 64
2, 840, Note_on_c, 0, 79, 93
2, 888, Note_off_c, 0, 79, 64
2, 900, Note_on_c, 0, 81, 93
2, 948, Note_off_c, 0, 81, 64
2, 960, Note_on_c, 0, 78, 93
2, 1008, Note_off_c, 0, 78, 64
2, 1020, Note_on_c, 0, 79, 93
2, 1068, Note_off_c, 0, 79, 64
2, 1080, Note_on_c, 0, 78, 93
2, 1128, Note_off_c, 0, 78, 64
2, 1140, Note_on_c, 0, 76, 93
2, 1236, Note_off_c, 0, 76, 64
2, 1320, Note_on_c, 0, 76, 93
2, 1368, Note_off_c, 0, 76, 64
2, 1380, Note_on_c, 0, 78, 93
2, 1428, Note_off_c, 0, 78, 64
2, 1440, Note_on_c, 0, 79, 93
2, 1488, Note_off_c, 0, 79, 64
2, 1500, Note_on_c, 0, 81, 93
2, 1548, Note_off_c, 0, 81, 64
2, 1560, Note_on_c, 0, 83, 93
2, 1584, Note_off_c, 0, 83, 64
2, 1590, Note_on_c, 0, 84, 93
2, 1614, Note_off_c, 0, 84, 64
2, 1620, Note_on_c, 0, 83, 93
2, 1668, Note_off_c, 0, 83, 64
2, 1680, Note_on_c, 0, 76, 93
2, 1728, Note_off_c, 0, 76, 64
2, 1740, Note_on_c, 0, 75, 93
2, 1884, Note_off_c, 0, 75, 64
2, 1920, Note_on_c, 0, 76, 93
2, 1968, Note_off_c, 0, 76, 64
2, 1980, Note_on_c, 0, 76, 93
2, 2124, Note_off_c, 0, 76, 64
2, 2160, Note_on_c, 0, 84, 93
2, 2208, Note_off_c, 0, 84, 64
2, 2220, Note_on_c, 0, 74, 93
2, 2268, Note_off_c, 0, 74, 64
2, 2280, Note_on_c, 0, 84, 93
2, 2328, Note_off_c, 0, 84, 64
2, 2340, Note_on_c, 0, 74, 93
2, 2388, Note_off_c, 0, 74, 64
2, 2400, Note_on_c, 0, 83, 93
2, 2448, Note_off_c, 0, 83, 64
2, 2460, Note_on_c, 0, 74, 93
2, 2472, Note_off_c, 0, 74, 64
2, 2475, Note_on_c, 0, 72, 93
2, 2487, Note_off_c, 0, 72, 64
2, 2490, Note_on_c, 0, 74, 93
2, 2502, Note_off_c, 0, 74, 64
2, 2505, Note_on_c, 0, 72, 93
2, 2517, Note_off_c, 0, 72, 64
2, 2520, Note_on_c, 0, 71, 93
2, 2568, Note_off_c, 0, 71, 64
2, 2580, Note_on_c, 0, 72, 93
2, 2628, Note_off_c, 0, 72, 64
2, 2640, Note_on_c, 0, 81, 93
2, 2688, Note_off_c, 0, 81, 64
2, 2700, Note_on_c, 0, 71, 93
2, 2748, Note_off_c, 0, 71, 64
2, 2760, Note_on_c, 0, 81, 93
2, 2808, Note_off_c, 0, 81, 64
2, 2820, Note_on_c, 0, 71, 93
2, 2868, Note_off_c, 0, 71, 64
2, 2880, Note_on_c, 0, 79, 93
2, 2928, Note_off_c, 0, 79, 64
2, 2940, Note_on_c, 0, 71, 93
2, 2952, Note_off_c, 0, 71, 64
2, 2955, Note_on_c, 0, 69, 93
2, 2967, Note_off_c, 0, 69, 64
2, 2970, Note_on_c, 0, 71, 93
2, 2982, Note_off_c, 0, 71, 64
2, 2985, Note_on_c, 0, 69, 93
2, 2997, Note_off_c, 0, 69, 64
2, 3000, Note_on_c, 0, 67, 93
2, 3048, Note_off_c, 0, 67, 64
2, 3060, Note_on_c, 0, 69, 93
2, 3108, Note_off_c, 0, 69, 64
2, 3120, Note_on_c, 0, 78, 93
2, 3168, Note_off_c, 0, 78, 64
2, 3180, Note_on_c, 0, 67, 93
2, 3228, Note_off_c, 0, 67, 64
2, 3240, Note_on_c, 0, 78, 93
2, 3288, Note_off_c, 0, 78, 64
2, 3300, Note_on_c, 0, 67, 93
2, 3348, Note_off_c, 0, 67, 64
2, 3360, Note_on_c, 0, 76, 93
2, 3408, Note_off_c, 0, 76, 64
2, 3420, Note_on_c, 0, 66, 93
2, 3420, Note_on_c, 0, 66, 93
2, 3468, Note_off_c, 0, 66, 64
2, 3480, Note_on_c, 0, 76, 93
2, 3528, Note_off_c, 0, 76, 64
2, 3540, Note_on_c, 0, 75, 93
2, 3636, Note_off_c, 0, 75, 64
2, 3660, Note_off_c, 0, 66, 64
2, 3660, Note_on_c, 0, 76, 93
2, 3720, Note_on_c, 0, 74, 93
2, 3768, Note_off_c, 0, 74, 64
2, 3780, Note_on_c, 0, 73, 93
2, 3828, Note_off_c, 0, 73, 64
2, 3840, Note_on_c, 0, 71, 93
2, 3888, Note_off_c, 0, 71, 64
2, 3900, Note_on_c, 0, 70, 93
2, 3948, Note_off_c, 0, 76, 64
2, 3960, Note_on_c, 0, 79, 93
2, 4008, Note_off_c, 0, 79, 64
2, 4020, Note_on_c, 0, 78, 93
2, 4044, Note_off_c, 0, 70, 64
2, 4068, Note_off_c, 0, 78, 64
2, 4080, Note_on_c, 0, 73, 93
2, 4080, Note_on_c, 0, 76, 93
2, 4128, Note_off_c, 0, 76, 64
2, 4128, Note_off_c, 0, 73, 64
2, 4140, Note_on_c, 0, 71, 93
2, 4140, Note_on_c, 0, 74, 93
2, 4236, Note_off_c, 0, 74, 64
2, 4236, Note_off_c, 0, 71, 64
2, 4260, Note_on_c, 0, 70, 93
2, 4260, Note_on_c, 0, 73, 93
2, 4308, Note_off_c, 0, 73, 64
2, 4320, Note_on_c, 0, 71, 93
2, 4356, Note_off_c, 0, 70, 64
2, 4368, Note_off_c, 0, 71, 64
2, 4380, Note_on_c, 0, 71, 93
2, 4524, Note_off_c, 0, 71, 64
2, 4560, Note_on_c, 0, 69, 93
2, 4608, Note_off_c, 0, 69, 64
2, 4620, Note_on_c, 0, 67, 93
2, 4668, Note_off_c, 0, 67, 64
2, 4680, Note_on_c, 0, 66, 93
2, 4728, Note_off_c, 0, 66, 64
2, 4740, Note_on_c, 0, 64, 93
2, 4788, Note_off_c, 0, 64, 64
2, 4800, Note_on_c, 0, 62, 93
2, 4848, Note_off_c, 0, 62, 64
2, 4860, Note_on_c, 0, 61, 93
2, 4908, Note_off_c, 0, 61, 64
2, 4920, Note_on_c, 0, 71, 93
2, 4968, Note_off_c, 0, 71, 64
2, 4980, Note_on_c, 0, 70, 93
2, 5028, Note_off_c, 0, 70, 64
2, 5040, Note_on_c, 0, 76, 93
2, 5088, Note_off_c, 0, 76, 64
2, 5100, Note_on_c, 0, 76, 93
2, 5148, Note_off_c, 0, 76, 64
2, 5160, Note_on_c, 0, 74, 93
2, 5208, Note_off_c, 0, 74, 64
2, 5220, Note_on_c, 0, 76, 93
2, 5268, Note_off_c, 0, 76, 64
2, 5280, Note_on_c, 0, 73, 93
2, 5328, Note_off_c, 0, 73, 64
2, 5340, Note_on_c, 0, 74, 93
2, 5388, Note_off_c, 0, 74, 64
2, 5400, Note_on_c, 0, 73, 93
2, 5448, Note_off_c, 0, 73, 64
2, 5460, Note_on_c, 0, 71, 93
2, 5556, Note_off_c, 0, 71, 64
2, 5580, Note_on_c, 0, 73, 93
2, 5604, Note_off_c, 0, 73, 64
2, 5610, Note_on_c, 0, 74, 93
2, 5634, Note_off_c, 0, 74, 64
2, 5640, Note_on_c, 0, 73, 93
2, 5664, Note_off_c, 0, 73, 64
2, 5670, Note_on_c, 0, 74, 93
2, 5694, Note_off_c, 0, 74, 64
2, 5700, Note_on_c, 0, 76, 93
2, 5712, Note_off_c, 0, 76, 64
2, 5715, Note_on_c, 0, 75, 93
2, 5727, Note_off_c, 0, 75, 64
2, 5730, Note_on_c, 0, 76, 93
2, 5742, Note_off_c, 0, 76, 64
2, 5745, Note_on_c, 0, 75, 93
2, 5757, Note_off_c, 0, 75, 64
2, 5760, Note_on_c, 0, 73, 93
2, 5784, Note_off_c, 0, 73, 64
2, 5790, Note_on_c, 0, 75, 93
2, 5814, Note_off_c, 0, 75, 64
2, 5820, Note_on_c, 0, 76, 93
2, 5868, Note_off_c, 0, 76, 64
2, 5880, Note_on_c, 0, 74, 93
2, 5928, Note_off_c, 0, 74, 64
2, 5940, Note_on_c, 0, 73, 93
2, 5988, Note_off_c, 0, 73, 64
2, 6000, Note_on_c, 0, 71, 93
2, 6048, Note_off_c, 0, 71, 64
2, 6060, Note_on_c, 0, 71, 93
2, 6072, Note_off_c, 0, 71, 64
2, 6075, Note_on_c, 0, 70, 93
2, 6087, Note_off_c, 0, 70, 64
2, 6090, Note_on_c, 0, 71, 93
2, 6102, Note_off_c, 0, 71, 64
2, 6105, Note_on_c, 0, 70, 93
2, 6168, Note_off_c, 0, 70, 64
2, 6180, Note_on_c, 0, 71, 93
2, 6276, Note_off_c, 0, 71, 64
2, 6300, Note_on_c, 0, 79, 93
2, 6324, Note_off_c, 0, 79, 64
2, 6330, Note_on_c, 0, 78, 93
2, 6354, Note_off_c, 0, 78, 64
2, 6360, Note_on_c, 0, 79, 93
2, 6456, Note_off_c, 0, 79, 64
2, 6480, Note_on_c, 0, 81, 93
2, 6528, Note_off_c, 0, 81, 64
2, 6540, Note_on_c, 0, 78, 93
2, 6588, Note_off_c, 0, 78, 64
2, 6600, Note_on_c, 0, 82, 93
2, 6648, Note_off_c, 0, 82, 64
2, 6660, Note_on_c, 0, 83, 93
2, 6708, Note_off_c, 0, 83, 64
2, 6720, Note_on_c, 0, 79, 93
2, 6768, Note_off_c, 0, 79, 64
2, 6780, Note_on_c, 0, 78, 93
2, 6792, Note_off_c, 0, 78, 64
2, 6795, Note_on_c, 0, 76, 93
2, 6807, Note_off_c, 0, 76, 64
2, 6810, Note_on_c, 0, 78, 93
2, 6822, Note_off_c, 0, 78, 64
2, 6825, Note_on_c, 0, 76, 93
2, 6936, Note_off_c, 0, 76, 64
2, 6960, Note_on_c, 0, 79, 93
2, 7008, Note_off_c, 0, 79, 64
2, 7020, Note_on_c, 0, 78, 93
2, 7068, Note_off_c, 0, 78, 64
2, 7080, Note_on_c, 0, 76, 93
2, 7128, Note_off_c, 0, 76, 64
2, 7140, Note_on_c, 0, 78, 93
2, 7188, Note_off_c, 0, 78, 64
2, 7200, Note_on_c, 0, 79, 93
2, 7248, Note_off_c, 0, 79, 64
2, 7260, Note_on_c, 0, 74, 93
2, 7272, Note_off_c, 0, 74, 64
2, 7275, Note_on_c, 0, 73, 93
2, 7287, Note_off_c, 0, 73, 64
2, 7290, Note_on_c, 0, 74, 93
2, 7302, Note_off_c, 0, 74, 64
2, 7305, Note_on_c, 0, 73, 93
2, 7416, Note_off_c, 0, 73, 64
2, 7440, Note_on_c, 0, 74, 93
2, 7488, Note_off_c, 0, 74, 64
2, 7500, Note_on_c, 0, 73, 93
2, 7548, Note_off_c, 0, 73, 64
2, 7560, Note_on_c, 0, 71, 93
2, 7608, Note_off_c, 0, 71, 64
2, 7620, Note_on_c, 0, 73, 93
2, 7668, Note_off_c, 0, 73, 64
2, 7680, Note_on_c, 0, 76, 93
2, 7728, Note_off_c, 0, 76, 64
2, 7740, Note_on_c, 0, 71, 93
2, 7752, Note_off_c, 0, 71, 64
2, 7755, Note_on_c, 0, 70, 93
2, 7767, Note_off_c, 0, 70, 64
2, 7770, Note_on_c, 0, 71, 93
2, 7782, Note_off_c, 0, 71, 64
2, 7785, Note_on_c, 0, 70, 93
2, 7896, Note_off_c, 0, 70, 64
2, 7920, Note_on_c, 0, 71, 93
2, 7968, Note_off_c, 0, 71, 64
2, 7980, Note_on_c, 0, 73, 93
2, 8028, Note_off_c, 0, 73, 64
2, 8040, Note_on_c, 0, 74, 93
2, 8088, Note_off_c, 0, 74, 64
2, 8100, Note_on_c, 0, 73, 93
2, 8148, Note_off_c, 0, 73, 64
2, 8160, Note_on_c, 0, 74, 93
2, 8208, Note_off_c, 0, 74, 64
2, 8220, Note_on_c, 0, 76, 93
2, 8268, Note_off_c, 0, 76, 64
2, 8280, Note_on_c, 0, 79, 93
2, 8328, Note_off_c, 0, 79, 64
2, 8340, Note_on_c, 0, 78, 93
2, 8388, Note_off_c, 0, 78, 64
2, 8400, Note_on_c, 0, 76, 93
2, 8448, Note_off_c, 0, 76, 64
2, 8460, Note_on_c, 0, 74, 93
2, 8508, Note_off_c, 0, 74, 64
2, 8520, Note_on_c, 0, 73, 93
2, 8568, Note_off_c, 0, 73, 64
2, 8580, Note_on_c, 0, 71, 93
2, 8628, Note_off_c, 0, 71, 64
2, 8640, Note_on_c, 0, 69, 93
2, 8688, Note_off_c, 0, 69, 64
2, 8700, Note_on_c, 0, 68, 93
2, 8748, Note_off_c, 0, 68, 64
2, 8760, Note_on_c, 0, 78, 93
2, 8808, Note_off_c, 0, 78, 64
2, 8820, Note_on_c, 0, 77, 93
2, 8868, Note_off_c, 0, 77, 64
2, 8880, Note_on_c, 0, 83, 93
2, 8928, Note_off_c, 0, 83, 64
2, 8940, Note_on_c, 0, 83, 93
2, 8988, Note_off_c, 0, 83, 64
2, 9000, Note_on_c, 0, 82, 93
2, 9048, Note_off_c, 0, 82, 64
2, 9060, Note_on_c, 0, 83, 93
2, 9108, Note_off_c, 0, 83, 64
2, 9120, Note_on_c, 0, 80, 93
2, 9168, Note_off_c, 0, 80, 64
2, 9180, Note_on_c, 0, 83, 93
2, 9228, Note_off_c, 0, 83, 64
2, 9240, Note_on_c, 0, 82, 93
2, 9288, Note_off_c, 0, 82, 64
2, 9300, Note_on_c, 0, 80, 93
2, 9348, Note_off_c, 0, 80, 64
2, 9360, Note_on_c, 0, 78, 93
2, 9408, Note_off_c, 0, 78, 64
2, 9420, Note_on_c, 0, 83, 93
2, 9468, Note_off_c, 0, 83, 64
2, 9480, Note_on_c, 0, 81, 93
2, 9528, Note_off_c, 0, 81, 64
2, 9540, Note_on_c, 0, 79, 93
2, 9588, Note_off_c, 0, 79, 64
2, 9600, Note_on_c, 0, 78, 93
2, 9648, Note_off_c, 0, 78, 64
2, 9660, Note_on_c, 0, 76, 93
2, 9660, Note_on_c, 0, 76, 93
2, 9708, Note_off_c, 0, 76, 64
2, 9708, Note_off_c, 0, 76, 64
2, 9720, Note_on_c, 0, 74, 93
2, 9720, Note_on_c, 0, 74, 93
2, 9768, Note_off_c, 0, 74, 64
2, 9768, Note_off_c, 0, 74, 64
2, 9780, Note_on_c, 0, 73, 93
2, 9780, Note_on_c, 0, 73, 93
2, 9828, Note_off_c, 0, 73, 64
2, 9840, Note_on_c, 0, 74, 93
2, 9888, Note_off_c, 0, 74, 64
2, 9900, Note_on_c, 0, 76, 93
2, 9924, Note_off_c, 0, 76, 64
2, 9930, Note_on_c, 0, 75, 93
2, 9954, Note_off_c, 0, 75, 64
2, 9960, Note_on_c, 0, 76, 93
2, 10044, Note_off_c, 0, 73, 64
2, 10056, Note_off_c, 0, 76, 64
2, 10080, Note_on_c, 0, 73, 93
2, 10080, Note_on_c, 0, 76, 93
2, 10128, Note_off_c, 0, 76, 64
2, 10128, Note_off_c, 0, 73, 64
2, 10140, Note_on_c, 0, 73, 93
2, 10140, Note_on_c, 0, 76, 93
2, 10188, Note_off_c, 0, 76, 64
2, 10200, Note_on_c, 0, 78, 93
2, 10224, Note_off_c, 0, 78, 64
2, 10230, Note_on_c, 0, 76, 93
2, 10236, Note_off_c, 0, 73, 64
2, 10254, Note_off_c, 0, 76, 64
2, 10260, Note_on_c, 0, 71, 93
2, 10260, Note_on_c, 0, 74, 93
2, 10284, Note_off_c, 0, 74, 64
2, 10290, Note_on_c, 0, 76, 93
2, 10314, Note_off_c, 0, 76, 64
2, 10320, Note_on_c, 0, 78, 93
2, 10356, Note_off_c, 0, 71, 64
2, 10368, Note_off_c, 0, 78, 64
2, 10380, Note_on_c, 0, 74, 93
2, 10380, Note_on_c, 0, 70, 93
2, 10392, Note_off_c, 0, 74, 64
2, 10395, Note_on_c, 0, 73, 93
2, 10407, Note_off_c, 0, 73, 64
2, 10410, Note_on_c, 0, 74, 93
2, 10422, Note_off_c, 0, 74, 64
2, 10425, Note_on_c, 0, 73, 93
2, 10536, Note_off_c, 0, 73, 64
2, 10560, Note_on_c, 0, 71, 93
2, 10572, Note_off_c, 0, 70, 64
2, 10608, Note_off_c, 0, 71, 64
2, 10620, Note_on_c, 0, 71, 93
2, 10800, Note_on_c, 0, 69, 93
2, 10848, Note_off_c, 0, 69, 64
2, 10860, Note_on_c, 0, 67, 93
2, 10908, Note_off_c, 0, 67, 64
2, 10920, Note_on_c, 0, 66, 93
2, 10968, Note_off_c, 0, 66, 64
2, 10980, Note_on_c, 0, 64, 93
2, 11004, Note_off_c, 0, 71, 64
2, 11028, Note_off_c, 0, 64, 64
2, 11040, Note_on_c, 0, 62, 93
2, 11088, Note_off_c, 0, 62, 64
2, 11100, Note_on_c, 0, 61, 93
2, 11100, Note_on_c, 0, 61, 93
2, 11148, Note_off_c, 0, 61, 64
2, 11160, Note_on_c, 0, 64, 93
2, 11160, Note_on_c, 0, 64, 92
2, 11208, Note_off_c, 0, 64, 64
2, 11220, Note_on_c, 0, 71, 93
2, 11268, Note_off_c, 0, 71, 64
2, 11280, Note_on_c, 0, 70, 93
2, 11292, Note_off_c, 0, 61, 64
2, 11304, Note_off_c, 0, 64, 64
2, 11328, Note_off_c, 0, 70, 64
2, 11340, Note_on_c, 0, 63, 93
2, 11340, Note_on_c, 0, 71, 93
2, 11340, Note_on_c, 0, 66, 93
2, 11484, Note_off_c, 0, 66, 64
2, 11484, Note_off_c, 0, 71, 64
2, 11484, Note_off_c, 0, 63, 64
2, 11520, Note_on_c, 0, 76, 93
2, 11568, Note_off_c, 0, 76, 64
2, 11580, Note_on_c, 0, 76, 93
2, 11724, Note_off_c, 0, 76, 64
2, 11760, Note_on_c, 0, 74, 93
2, 11808, Note_off_c, 0, 74, 64
2, 11820, Note_on_c, 0, 72, 93
2, 11868, Note_off_c, 0, 72, 64
2, 11880, Note_on_c, 0, 71, 93
2, 11928, Note_off_c, 0, 71, 64
2, 11940, Note_on_c, 0, 69, 93
2, 11988, Note_off_c, 0, 69, 64
2, 12000, Note_on_c, 0, 67, 93
2, 12048, Note_off_c, 0, 67, 64
2, 12060, Note_on_c, 0, 66, 93
2, 12108, Note_off_c, 0, 66, 64
2, 12120, Note_on_c, 0, 76, 93
2, 12168, Note_off_c, 0, 76, 64
2, 12180, Note_on_c, 0, 75, 93
2, 12228, Note_off_c, 0, 75, 64
2, 12240, Note_on_c, 0, 81, 93
2, 12288, Note_off_c, 0, 81, 64
2, 12300, Note_on_c, 0, 81, 93
2, 12348, Note_off_c, 0, 81, 64
2, 12360, Note_on_c, 0, 79, 93
2, 12408, Note_off_c, 0, 79, 64
2, 12420, Note_on_c, 0, 81, 93
2, 12468, Note_off_c, 0, 81, 64
2, 12480, Note_on_c, 0, 78, 93
2, 12528, Note_off_c, 0, 78, 64
2, 12540, Note_on_c, 0, 79, 93
2, 12588, Note_off_c, 0, 79, 64
2, 12600, Note_on_c, 0, 78, 93
2, 12648, Note_off_c, 0, 78, 64
2, 12660, Note_on_c, 0, 76, 93
2, 12756, Note_off_c, 0, 76, 64
2, 12840, Note_on_c, 0, 76, 93
2, 12888, Note_off_c, 0, 76, 64
2, 12900, Note_on_c, 0, 78, 93
2, 12948, Note_off_c, 0, 78, 64
2, 12960, Note_on_c, 0, 79, 93
2, 13008, Note_off_c, 0, 79, 64
2, 13020, Note_on_c, 0, 81, 93
2, 13068, Note_off_c, 0, 81, 64
2, 13080, Note_on_c, 0, 83, 93
2, 13104, Note_off_c, 0, 83, 64
2, 13110, Note_on_c, 0, 84, 93
2, 13134, Note_off_c, 0, 84, 64
2, 13140, Note_on_c, 0, 83, 93
2, 13188, Note_off_c, 0, 83, 64
2, 13200, Note_on_c, 0, 76, 93
2, 13248, Note_off_c, 0, 76, 64
2, 13260, Note_on_c, 0, 75, 93
2, 13404, Note_off_c, 0, 75, 64
2, 13440, Note_on_c, 0, 76, 93
2, 13488, Note_off_c, 0, 76, 64
2, 13500, Note_on_c, 0, 76, 93
2, 13644, Note_off_c, 0, 76, 64
2, 13680, Note_on_c, 0, 84, 93
2, 13728, Note_off_c, 0, 84, 64
2, 13740, Note_on_c, 0, 74, 93
2, 13788, Note_off_c, 0, 74, 64
2, 13800, Note_on_c, 0, 84, 93
2, 13848, Note_off_c, 0, 84, 64
2, 13860, Note_on_c, 0, 74, 93
2, 13908, Note_off_c, 0, 74, 64
2, 13920, Note_on_c, 0, 83, 93
2, 13968, Note_off_c, 0, 83, 64
2, 13980, Note_on_c, 0, 74, 93
2, 13992, Note_off_c, 0, 74, 64
2, 13995, Note_on_c, 0, 72, 93
2, 14007, Note_off_c, 0, 72, 64
2, 14010, Note_on_c, 0, 74, 93
2, 14022, Note_off_c, 0, 74, 64
2, 14025, Note_on_c, 0, 72, 93
2, 14037, Note_off_c, 0, 72, 64
2, 14040, Note_on_c, 0, 71, 93
2, 14088, Note_off_c, 0, 71, 64
2, 14100, Note_on_c, 0, 72, 93
2, 14148, Note_off_c, 0, 72, 64
2, 14160, Note_on_c, 0, 81, 93
2, 14208, Note_off_c, 0, 81, 64
2, 14220, Note_on_c, 0, 71, 93
2, 14268, Note_off_c, 0, 71, 64
2, 14280, Note_on_c, 0, 81, 93
2, 14328, Note_off_c, 0, 81, 64
2, 14340, Note_on_c, 0, 71, 93
2, 14388, Note_off_c, 0, 71, 64
2, 14400, Note_on_c, 0, 79, 93
2, 14448, Note_off_c, 0, 79, 64
2, 14460, Note_on_c, 0, 71, 93
2, 14472, Note_off_c, 0, 71, 64
2, 14475, Note_on_c, 0, 69, 93
2, 14487, Note_off_c, 0, 69, 64
2, 14490, Note_on_c, 0, 71, 93
2, 14502, Note_off_c, 0, 71, 64
2, 14505, Note_on_c, 0, 69, 93
2, 14517, Note_off_c, 0, 69, 64
2, 14520, Note_on_c, 0, 67, 93
2, 14568, Note_off_c, 0, 67, 64
2, 14580, Note_on_c, 0, 69, 93
2, 14628, Note_off_c, 0, 69, 64
2, 14640, Note_on_c, 0, 78, 93
2, 14688, Note_off_c, 0, 78, 64
2, 14700, Note_on_c, 0, 67, 93
2, 14748, Note_off_c, 0, 67, 64
2, 14760, Note_on_c, 0, 78, 93
2, 14808, Note_off_c, 0, 78, 64
2, 14820, Note_on_c, 0, 67, 93
2, 14868, Note_off_c, 0, 67, 64
2, 14880, Note_on_c, 0, 76, 93
2, 14928, Note_off_c, 0, 76, 64
2, 14940, Note_on_c, 0, 66, 93
2, 14940, Note_on_c, 0, 66, 93
2, 14988, Note_off_c, 0, 66, 64
2, 15000, Note_on_c, 0, 76, 93
2, 15048, Note_off_c, 0, 76, 64
2, 15060, Note_on_c, 0, 75, 93
2, 15156, Note_off_c, 0, 75, 64
2, 15180, Note_off_c, 0, 66, 64
2, 15180, Note_on_c, 0, 76, 93
2, 15240, Note_on_c, 0, 74, 93
2, 15288, Note_off_c, 0, 74, 64
2, 15300, Note_on_c, 0, 73, 93
2, 15348, Note_off_c, 0, 73, 64
2, 15360, Note_on_c, 0, 71, 93
2, 15408, Note_off_c, 0, 71, 64
2, 15420, Note_on_c, 0, 70, 93
2, 15468, Note_off_c, 0, 76, 64
2, 15480, Note_on_c, 0, 79, 93
2, 15528, Note_off_c, 0, 79, 64
2, 15540, Note_on_c, 0, 78, 93
2, 15564, Note_off_c, 0, 70, 64
2, 15588, Note_off_c, 0, 78, 64
2, 15600, Note_on_c, 0, 73, 93
2, 15600, Note_on_c, 0, 76, 93
2, 15648, Note_off_c, 0, 76, 64
2, 15648, Note_off_c, 0, 73, 64
2, 15660, Note_on_c, 0, 71, 93
2, 15660, Note_on_c, 0, 74, 93
2, 15756, Note_off_c, 0, 74, 64
2, 15756, Note_off_c, 0, 71, 64
2, 15780, Note_on_c, 0, 70, 93
2, 15780, Note_on_c, 0, 73, 93
2, 15828, Note_off_c, 0, 73, 64
2, 15840, Note_on_c, 0, 71, 93
2, 15876, Note_off_c, 0, 70, 64
2, 15888, Note_off_c, 0, 71, 64
2, 15900, Note_on_c, 0, 71, 93
2, 16044, Note_off_c, 0, 71, 64
2, 16080, Note_on_c, 0, 69, 93
2, 16128, Note_off_c, 0, 69, 64
2, 16140, Note_on_c, 0, 67, 93
2, 16188, Note_off_c, 0, 67, 64
2, 16200, Note_on_c, 0, 66, 93
2, 16248, Note_off_c, 0, 66, 64
2, 16260, Note_on_c, 0, 64, 93
2, 16308, Note_off_c, 0, 64, 64
2, 16320, Note_on_c, 0, 62, 93
2, 16368, Note_off_c, 0, 62, 64
2, 16380, Note_on_c, 0, 61, 93
2, 16428, Note_off_c, 0, 61, 64
2, 16440, Note_on_c, 0, 71, 93
2, 16488, Note_off_c, 0, 71, 64
2, 16500, Note_on_c, 0, 70, 93
2, 16548, Note_off_c, 0, 70, 64
2, 16560, Note_on_c, 0, 76, 93
2, 16608, Note_off_c, 0, 76, 64
2, 16620, Note_on_c, 0, 76, 93
2, 16668, Note_off_c, 0, 76, 64
2, 16680, Note_on_c, 0, 74, 93
2, 16728, Note_off_c, 0, 74, 64
2, 16740, Note_on_c, 0, 76, 93
2, 16788, Note_off_c, 0, 76, 64
2, 16800, Note_on_c, 0, 73, 93
2, 16848, Note_off_c, 0, 73, 64
2, 16860, Note_on_c, 0, 74, 93
2, 16908, Note_off_c, 0, 74, 64
2, 16920, Note_on_c, 0, 73, 93
2, 16968, Note_off_c, 0, 73, 64
2, 16980, Note_on_c, 0, 71, 93
2, 17076, Note_off_c, 0, 71, 64
2, 17100, Note_on_c, 0, 73, 93
2, 17124, Note_off_c, 0, 73, 64
2, 17130, Note_on_c, 0, 74, 93
2, 17154, Note_off_c, 0, 74, 64
2, 17160, Note_on_c, 0, 73, 93
2, 17184, Note_off_c, 0, 73, 64
2, 17190, Note_on_c, 0, 74, 93
2, 17214, Note_off_c, 0, 74, 64
2, 17220, Note_on_c, 0, 76, 93
2, 17232, Note_off_c, 0, 76, 64
2, 17235, Note_on_c, 0, 75, 93
2, 17247, Note_off_c, 0, 75, 64
2, 17250, Note_on_c, 0, 76, 93
2, 17262, Note_off_c, 0, 76, 64
2, 17265, Note_on_c, 0, 75, 93
2, 17277, Note_off_c, 0, 75, 64
2, 17280, Note_on_c, 0, 73, 93
2, 17304, Note_off_c, 0, 73, 64
2, 17310, Note_on_c, 0, 75, 93
2, 17334, Note_off_c, 0, 75, 64
2, 17340, Note_on_c, 0, 76, 93
2, 17388, Note_off_c, 0, 76, 64
2, 17400, Note_on_c, 0, 74, 93
2, 17448, Note_off_c, 0, 74, 64
2, 17460, Note_on_c, 0, 73, 93
2, 17508, Note_off_c, 0, 73, 64
2, 17520, Note_on_c, 0, 71, 93
2, 17568, Note_off_c, 0, 71, 64
2, 17580, Note_on_c, 0, 71, 93
2, 17592, Note_off_c, 0, 71, 64
2, 17595, Note_on_c, 0, 70, 93
2, 17607, Note_off_c, 0, 70, 64
2, 17610, Note_on_c, 0, 71, 93
2, 17622, Note_off_c, 0, 71, 64
2, 17625, Note_on_c, 0, 70, 93
2, 17688, Note_off_c, 0, 70, 64
2, 17700, Note_on_c, 0, 71, 93
2, 17796, Note_off_c, 0, 71, 64
2, 17820, Note_on_c, 0, 79, 93
2, 17844, Note_off_c, 0, 79, 64
2, 17850, Note_on_c, 0, 78, 93
2, 17874, Note_off_c, 0, 78, 64
2, 17880, Note_on_c, 0, 79, 93
2, 17976, Note_off_c, 0, 79, 64
2, 18000, Note_on_c, 0, 81, 93
2, 18048, Note_off_c, 0, 81, 64
2, 18060, Note_on_c, 0, 78, 93
2, 18108, Note_off_c, 0, 78, 64
2, 18120, Note_on_c, 0, 82, 93
2, 18168, Note_off_c, 0, 82, 64
2, 18180, Note_on_c, 0, 83, 93
2, 18228, Note_off_c, 0, 83, 64
2, 18240, Note_on_c, 0, 79, 93
2, 18288, Note_off_c, 0, 79, 64
2, 18300, Note_on_c, 0, 78, 93
2, 18312, Note_off_c, 0, 78, 64
2, 18315, Note_on_c, 0, 76, 93
2, 18327, Note_off_c, 0, 76, 64
2, 18330, Note_on_c, 0, 78, 93
2, 18342, Note_off_c, 0, 78, 64
2, 18345, Note_on_c, 0, 76, 93
2, 18456, Note_off_c, 0, 76, 64
2, 18480, Note_on_c, 0, 79, 93
2, 18528, Note_off_c, 0, 79, 64
2, 18540, Note_on_c, 0, 78, 93
2, 18588, Note_off_c, 0, 78, 64
2, 18600, Note_on_c, 0, 76, 93
2, 18648, Note_off_c, 0, 76, 64
2, 18660, Note_on_c, 0, 78, 93
2, 18708, Note_off_c, 0, 78, 64
2, 18720, Note_on_c, 0, 79, 93
2, 18768, Note_off_c, 0, 79, 64
2, 18780, Note_on_c, 0, 74, 93
2, 18792, Note_off_c, 0, 74, 64
2, 18795, Note_on_c, 0, 73, 93
2, 18807, Note_off_c, 0, 73, 64
2, 18810, Note_on_c, 0, 74, 93
2, 18822, Note_off_c, 0, 74, 64
2, 18825, Note_on_c, 0, 73, 93
2, 18936, Note_off_c, 0, 73, 64
2, 18960, Note_on_c, 0, 74, 93
2, 19008, Note_off_c, 0, 74, 64
2, 19020, Note_on_c, 0, 73, 93
2, 19068, Note_off_c, 0, 73, 64
2, 19080, Note_on_c, 0, 71, 93
2, 19128, Note_off_c, 0, 71, 64
2, 19140, Note_on_c, 0, 73, 93
2, 19188, Note_off_c, 0, 73, 64
2, 19200, Note_on_c, 0, 76, 93
2, 19248, Note_off_c, 0, 76, 64
2, 19260, Note_on_c, 0, 71, 93
2, 19272, Note_off_c, 0, 71, 64
2, 19275, Note_on_c, 0, 70, 93
2, 19287, Note_off_c, 0, 70, 64
2, 19290, Note_on_c, 0, 71, 93
2, 19302, Note_off_c, 0, 71, 64
2, 19305, Note_on_c, 0, 70, 93
2, 19416, Note_off_c, 0, 70, 64
2, 19440, Note_on_c, 0, 71, 93
2, 19488, Note_off_c, 0, 71, 64
2, 19500, Note_on_c, 0, 73, 93
2, 19548, Note_off_c, 0, 73, 64
2, 19560, Note_on_c, 0, 74, 93
2, 19608, Note_off_c, 0, 74, 64
2, 19620, Note_on_c, 0, 73, 93
2, 19668, Note_off_c, 0, 73, 64
2, 19680, Note_on_c, 0, 74, 93
2, 19728, Note_off_c, 0, 74, 64
2, 19740, Note_on_c, 0, 76, 93
2, 19788, Note_off_c, 0, 76, 64
2, 19800, Note_on_c, 0, 79, 93
2, 19848, Note_off_c, 0, 79, 64
2, 19860, Note_on_c, 0, 78, 93
2, 19908, Note_off_c, 0, 78, 64
2, 19920, Note_on_c, 0, 76, 93
2, 19968, Note_off_c, 0, 76, 64
2, 19980, Note_on_c, 0, 74, 93
2, 20028, Note_off_c, 0, 74, 64
2, 20040, Note_on_c, 0, 73, 93
2, 20088, Note_off_c, 0, 73, 64
2, 20100, Note_on_c, 0, 71, 93
2, 20148, Note_off_c, 0, 71, 64
2, 20160, Note_on_c, 0, 69, 93
2, 20208, Note_off_c, 0, 69, 64
2, 20220, Note_on_c, 0, 68, 93
2, 20268, Note_off_c, 0, 68, 64
2, 20280, Note_on_c, 0, 78, 93
2, 20328, Note_off_c, 0, 78, 64
2, 20340, Note_on_c, 0, 77, 93
2, 20388, Note_off_c, 0, 77, 64
2, 20400, Note_on_c, 0, 83, 93
2, 20448, Note_off_c, 0, 83, 64
2, 20460, Note_on_c, 0, 83, 93
2, 20508, Note_off_c, 0, 83, 64
2, 20520, Note_on_c, 0, 82, 93
2, 20568, Note_off_c, 0, 82, 64
2, 20580, Note_on_c, 0, 83, 93
2, 20628, Note_off_c, 0, 83, 64
2, 20640, Note_on_c, 0, 80, 93
2, 20688, Note_off_c, 0, 80, 64
2, 20700, Note_on_c, 0, 83, 93
2, 20748, Note_off_c, 0, 83, 64
2, 20760, Note_on_c, 0, 82, 93
2, 20808, Note_off_c, 0, 82, 64
2, 20820, Note_on_c, 0, 80, 93
2, 20868, Note_off_c, 0, 80, 64
2, 20880, Note_on_c, 0, 78, 93
2, 20928, Note_off_c, 0, 78, 64
2, 20940, Note_on_c, 0, 83, 93
2, 20988, Note_off_c, 0, 83, 64
2, 21000, Note_on_c, 0, 81, 93
2, 21048, Note_off_c, 0, 81, 64
2, 21060, Note_on_c, 0, 79, 93
2, 21108, Note_off_c, 0, 79, 64
2, 21120, Note_on_c, 0, 78, 93
2, 21168, Note_off_c, 0, 78, 64
2, 21180, Note_on_c, 0, 76, 93
2, 21180, Note_on_c, 0, 76, 93
2, 21228, Note_off_c, 0, 76, 64
2, 21228, Note_off_c, 0, 76, 64
2, 21240, Note_on_c, 0, 74, 93
2, 21240, Note_on_c, 0, 74, 93
2, 21288, Note_off_c, 0, 74, 64
2, 21288, Note_off_c, 0, 74, 64
2, 21300, Note_on_c, 0, 73, 93
2, 21300, Note_on_c, 0, 73, 93
2, 21348, Note_off_c, 0, 73, 64
2, 21360, Note_on_c, 0, 74, 93
2, 21408, Note_off_c, 0, 74, 64
2, 21420, Note_on_c, 0, 76, 93
2, 21444, Note_off_c, 0, 76, 64
2, 21450, Note_on_c, 0, 75, 93
2, 21474, Note_off_c, 0, 75, 64
2, 21480, Note_on_c, 0, 76, 93
2, 21564, Note_off_c, 0, 73, 64
2, 21576, Note_off_c, 0, 76, 64
2, 21600, Note_on_c, 0, 73, 93
2, 21600, Note_on_c, 0, 76, 93
2, 21648, Note_off_c, 0, 76, 64
2, 21648, Note_off_c, 0, 73, 64
2, 21660, Note_on_c, 0, 73, 93
2, 21660, Note_on_c, 0, 76, 93
2, 21708, Note_off_c, 0, 76, 64
2, 21720, Note_on_c, 0, 78, 93
2, 21744, Note_off_c, 0, 78, 64
2, 21750, Note_on_c, 0, 76, 93
2, 21756, Note_off_c, 0, 73, 64
2, 21774, Note_off_c, 0, 76, 64
2, 21780, Note_on_c, 0, 71, 93
2, 21780, Note_on_c, 0, 74, 93
2, 21804, Note_off_c, 0, 74, 64
2, 21810, Note_on_c, 0, 76, 93
2, 21834, Note_off_c, 0, 76, 64
2, 21840, Note_on_c, 0, 78, 93
2, 21876, Note_off_c, 0, 71, 64
2, 21888, Note_off_c, 0, 78, 64
2, 21900, Note_on_c, 0, 74, 93
2, 21900, Note_on_c, 0, 70, 93
2, 21912, Note_off_c, 0, 74, 64
2, 21915, Note_on_c, 0, 73, 93
2, 21927, Note_off_c, 0, 73, 64
2, 21930, Note_on_c, 0, 74, 93
2, 21942, Note_off_c, 0, 74, 64
2, 21945, Note_on_c, 0, 73, 93
2, 22056, Note_off_c, 0, 73, 64
2, 22080, Note_on_c, 0, 71, 93
2, 22092, Note_off_c, 0, 70, 64
2, 22128, Note_off_c, 0, 71, 64
2, 22140, Note_on_c, 0, 71, 93
2, 22320, Note_on_c, 0, 69, 93
2, 22368, Note_off_c, 0, 69, 64
2, 22380, Note_on_c, 0, 67, 93
2, 22428, Note_off_c, 0, 67, 64
2, 22440, Note_on_c, 0, 66, 93
2, 22488, Note_off_c, 0, 66, 64
2, 22500, Note_on_c, 0, 64, 93
2, 22524, Note_off_c, 0, 71, 64
2, 22548, Note_off_c, 0, 64, 64
2, 22560, Note_on_c, 0, 62, 93
2, 22608, Note_off_c, 0, 62, 64
2, 22620, Note_on_c, 0, 61, 93
2, 22620, Note_on_c, 0, 61, 93
2, 22668, Note_off_c, 0, 61, 64
2, 22680, Note_on_c, 0, 64, 93
2, 22680, Note_on_c, 0, 64, 92
2, 22728, Note_off_c, 0, 64, 64
2, 22740, Note_on_c, 0, 71, 93
2, 22788, Note_off_c, 0, 71, 64
2, 22800, Note_on_c, 0, 70, 93
2, 22812, Note_off_c, 0, 61, 64
2, 22824, Note_off_c, 0, 64, 64
2, 22848, Note_off_c, 0, 70, 64
2, 22860, Note_on_c, 0, 63, 93
2, 22860, Note_on_c, 0, 71, 93
2, 22860, Note_on_c, 0, 66, 93
2, 23004, Note_off_c, 0, 66, 64
2, 23004, Note_off_c, 0, 71, 64
2, 23004, Note_off_c, 0, 63, 64
2, 23040, Note_on_c, 0, 78, 93
2, 23088, Note_off_c, 0, 78, 64
2, 23100, Note_on_c, 0, 78, 96
2, 23160, Note_on_c, 0, 75, 96
2, 23160, Note_on_c, 0, 75, 96
2, 23208, Note_off_c, 0, 75, 64
2, 23220, Note_on_c, 0, 71, 96
2, 23256, Note_off_c, 0, 75, 64
2, 23292, Note_off_c, 0, 78, 64
2, 23316, Note_off_c, 0, 71, 64
2, 23400, Note_on_c, 0, 79, 96
2, 23448, Note_off_c, 0, 79, 64
2, 23460, Note_on_c, 0, 78, 96
2, 23508, Note_off_c, 0, 78, 64
2, 23520, Note_on_c, 0, 76, 96
2, 23568, Note_off_c, 0, 76, 64
2, 23580, Note_on_c, 0, 75, 96
2, 23724, Note_off_c, 0, 75, 64
2, 23760, Note_on_c, 0, 76, 96
2, 23808, Note_off_c, 0, 76, 64
2, 23820, Note_on_c, 0, 78, 96
2, 23868, Note_off_c, 0, 78, 64
2, 23880, Note_on_c, 0, 79, 96
2, 23904, Note_off_c, 0, 79, 64
2, 23910, Note_on_c, 0, 81, 96
2, 23934, Note_off_c, 0, 81, 64
2, 23940, Note_on_c, 0, 79, 96
2, 23988, Note_off_c, 0, 79, 64
2, 24000, Note_on_c, 0, 78, 96
2, 24048, Note_off_c, 0, 78, 64
2, 24060, Note_on_c, 0, 79, 96
2, 24108, Note_off_c, 0, 79, 64
2, 24120, Note_on_c, 0, 78, 96
2, 24168, Note_off_c, 0, 78, 64
2, 24180, Note_on_c, 0, 76, 96
2, 24240, Note_on_c, 0, 66, 96
2, 24288, Note_off_c, 0, 66, 64
2, 24300, Note_on_c, 0, 67, 96
2, 24348, Note_off_c, 0, 76, 64
2, 24348, Note_off_c, 0, 67, 64
2, 24360, Note_on_c, 0, 69, 96
2, 24360, Note_on_c, 0, 84, 96
2, 24408, Note_off_c, 0, 84, 64
2, 24408, Note_off_c, 0, 69, 64
2, 24420, Note_on_c, 0, 71, 96
2, 24420, Note_on_c, 0, 83, 96
2, 24468, Note_off_c, 0, 83, 64
2, 24468, Note_off_c, 0, 71, 64
2, 24480, Note_on_c, 0, 81, 96
2, 24480, Note_on_c, 0, 72, 96
2, 24528, Note_off_c, 0, 72, 64
2, 24528, Note_off_c, 0, 81, 64
2, 24540, Note_on_c, 0, 80, 96
2, 24540, Note_on_c, 0, 74, 96
2, 24588, Note_off_c, 0, 74, 64
2, 24588, Note_off_c, 0, 80, 64
2, 24600, Note_on_c, 0, 83, 96
2, 24648, Note_off_c, 0, 83, 64
2, 24660, Note_on_c, 0, 80, 96
2, 24708, Note_off_c, 0, 80, 64
2, 24720, Note_on_c, 0, 76, 96
2, 24768, Note_off_c, 0, 76, 64
2, 24780, Note_on_c, 0, 77, 96
2, 24828, Note_off_c, 0, 77, 64
2, 24840, Note_on_c, 0, 76, 96
2, 24888, Note_off_c, 0, 76, 64
2, 24900, Note_on_c, 0, 81, 96
2, 24948, Note_off_c, 0, 81, 64
2, 24960, Note_on_c, 0, 80, 96
2, 25008, Note_off_c, 0, 80, 64
2, 25020, Note_on_c, 0, 81, 96
2, 25164, Note_off_c, 0, 81, 64
2, 25200, Note_on_c, 0, 79, 96
2, 25248, Note_off_c, 0, 79, 64
2, 25260, Note_on_c, 0, 77, 96
2, 25308, Note_off_c, 0, 77, 64
2, 25320, Note_on_c, 0, 76, 96
2, 25368, Note_off_c, 0, 76, 64
2, 25380, Note_on_c, 0, 79, 96
2, 25428, Note_off_c, 0, 79, 64
2, 25440, Note_on_c, 0, 77, 96
2, 25488, Note_off_c, 0, 77, 64
2, 25500, Note_on_c, 0, 77, 96
2, 25644, Note_off_c, 0, 77, 64
2, 25680, Note_on_c, 0, 76, 96
2, 25728, Note_off_c, 0, 76, 64
2, 25740, Note_on_c, 0, 74, 96
2, 25788, Note_off_c, 0, 74, 64
2, 25800, Note_on_c, 0, 72, 96
2, 25848, Note_off_c, 0, 72, 64
2, 25860, Note_on_c, 0, 70, 96
2, 25908, Note_off_c, 0, 70, 64
2, 25920, Note_on_c, 0, 69, 96
2, 25968, Note_off_c, 0, 69, 64
2, 25980, Note_on_c, 0, 68, 96
2, 26124, Note_off_c, 0, 68, 64
2, 26160, Note_on_c, 0, 69, 96
2, 26184, Note_off_c, 0, 69, 64
2, 26190, Note_on_c, 0, 71, 96
2, 26214, Note_off_c, 0, 71, 64
2, 26220, Note_on_c, 0, 69, 96
2, 26268, Note_off_c, 0, 69, 64
2, 26280, Note_on_c, 0, 71, 96
2, 26304, Note_off_c, 0, 71, 64
2, 26310, Note_on_c, 0, 72, 96
2, 26334, Note_off_c, 0, 72, 64
2, 26340, Note_on_c, 0, 71, 96
2, 26388, Note_off_c, 0, 71, 64
2, 26400, Note_on_c, 0, 72, 96
2, 26424, Note_off_c, 0, 72, 64
2, 26430, Note_on_c, 0, 74, 96
2, 26454, Note_off_c, 0, 74, 64
2, 26460, Note_on_c, 0, 72, 96
2, 26508, Note_off_c, 0, 72, 64
2, 26520, Note_on_c, 0, 71, 96
2, 26544, Note_off_c, 0, 71, 64
2, 26550, Note_on_c, 0, 69, 96
2, 26574, Note_off_c, 0, 69, 64
2, 26580, Note_on_c, 0, 77, 96
2, 26628, Note_off_c, 0, 77, 64
2, 26640, Note_on_c, 0, 76, 96
2, 26688, Note_off_c, 0, 76, 64
2, 26700, Note_on_c, 0, 74, 96
2, 26748, Note_off_c, 0, 74, 64
2, 26760, Note_on_c, 0, 72, 96
2, 26808, Note_off_c, 0, 72, 64
2, 26820, Note_on_c, 0, 71, 96
2, 26868, Note_off_c, 0, 71, 64
2, 26880, Note_on_c, 0, 69, 96
2, 26928, Note_off_c, 0, 69, 64
2, 26940, Note_on_c, 0, 60, 96
2, 26940, Note_on_c, 0, 69, 96
2, 26940, Note_on_c, 0, 64, 96
2, 27036, Note_off_c, 0, 64, 64
2, 27036, Note_off_c, 0, 69, 64
2, 27084, Note_off_c, 0, 60, 64
2, 27120, Note_on_c, 0, 59, 96
2, 27168, Note_off_c, 0, 59, 64
2, 27180, Note_on_c, 0, 61, 96
2, 27228, Note_off_c, 0, 61, 64
2, 27240, Note_on_c, 0, 62, 96
2, 27288, Note_off_c, 0, 62, 64
2, 27300, Note_on_c, 0, 64, 96
2, 27348, Note_off_c, 0, 64, 64
2, 27360, Note_on_c, 0, 66, 96
2, 27408, Note_off_c, 0, 66, 64
2, 27420, Note_on_c, 0, 67, 96
2, 27468, Note_off_c, 0, 67, 64
2, 27480, Note_on_c, 0, 64, 96
2, 27528, Note_off_c, 0, 64, 64
2, 27540, Note_on_c, 0, 67, 96
2, 27588, Note_off_c, 0, 67, 64
2, 27600, Note_on_c, 0, 69, 96
2, 27648, Note_off_c, 0, 69, 64
2, 27660, Note_on_c, 0, 73, 96
2, 27708, Note_off_c, 0, 73, 64
2, 27720, Note_on_c, 0, 76, 96
2, 27768, Note_off_c, 0, 76, 64
2, 27780, Note_on_c, 0, 79, 96
2, 27828, Note_off_c, 0, 79, 64
2, 27840, Note_on_c, 0, 78, 96
2, 27888, Note_off_c, 0, 78, 64
2, 27900, Note_on_c, 0, 78, 92
2, 27948, Note_off_c, 0, 78, 64
2, 27960, Note_on_c, 0, 76, 92
2, 28008, Note_off_c, 0, 76, 64
2, 28020, Note_on_c, 0, 74, 96
2, 28188, Note_off_c, 0, 74, 64
2, 28200, Note_on_c, 0, 76, 96
2, 28248, Note_off_c, 0, 76, 64
2, 28260, Note_on_c, 0, 78, 96
2, 28308, Note_off_c, 0, 78, 64
2, 28320, Note_on_c, 0, 79, 96
2, 28368, Note_off_c, 0, 79, 64
2, 28380, Note_on_c, 0, 81, 96
2, 28428, Note_off_c, 0, 81, 64
2, 28440, Note_on_c, 0, 83, 96
2, 28464, Note_off_c, 0, 83, 64
2, 28470, Note_on_c, 0, 84, 96
2, 28494, Note_off_c, 0, 84, 64
2, 28500, Note_on_c, 0, 78, 96
2, 28548, Note_off_c, 0, 78, 64
2, 28560, Note_on_c, 0, 79, 96
2, 28584, Note_off_c, 0, 79, 64
2, 28590, Note_on_c, 0, 81, 96
2, 28614, Note_off_c, 0, 81, 64
2, 28620, Note_on_c, 0, 74, 96
2, 28716, Note_off_c, 0, 74, 64
2, 28740, Note_on_c, 0, 74, 96
2, 28752, Note_off_c, 0, 74, 64
2, 28755, Note_on_c, 0, 72, 96
2, 28767, Note_off_c, 0, 72, 64
2, 28770, Note_on_c, 0, 74, 96
2, 28782, Note_off_c, 0, 74, 64
2, 28785, Note_on_c, 0, 72, 96
2, 28797, Note_off_c, 0, 72, 64
2, 28800, Note_on_c, 0, 71, 96
2, 28824, Note_off_c, 0, 71, 64
2, 28830, Note_on_c, 0, 72, 96
2, 28854, Note_off_c, 0, 72, 64
2, 28860, Note_on_c, 0, 71, 96
2, 28908, Note_off_c, 0, 71, 64
2, 28920, Note_on_c, 0, 74, 96
2, 28968, Note_off_c, 0, 74, 64
2, 28980, Note_on_c, 0, 76, 96
2, 29028, Note_off_c, 0, 76, 64
2, 29040, Note_on_c, 0, 78, 96
2, 29088, Note_off_c, 0, 78, 64
2, 29100, Note_on_c, 0, 79, 96
2, 29244, Note_off_c, 0, 79, 64
2, 29280, Note_on_c, 0, 79, 96
2, 29328, Note_off_c, 0, 79, 64
2, 29340, Note_on_c, 0, 79, 96
2, 29388, Note_off_c, 0, 79, 64
2, 29400, Note_on_c, 0, 78, 96
2, 29448, Note_off_c, 0, 78, 64
2, 29460, Note_on_c, 0, 81, 96
2, 29508, Note_off_c, 0, 81, 64
2, 29520, Note_on_c, 0, 79, 96
2, 29568, Note_off_c, 0, 79, 64
2, 29580, Note_on_c, 0, 78, 96
2, 29628, Note_off_c, 0, 78, 64
2, 29640, Note_on_c, 0, 76, 96
2, 29688, Note_off_c, 0, 76, 64
2, 29700, Note_on_c, 0, 75, 96
2, 29748, Note_off_c, 0, 75, 64
2, 29760, Note_on_c, 0, 76, 96
2, 29808, Note_off_c, 0, 76, 64
2, 29820, Note_on_c, 0, 67, 96
2, 29832, Note_off_c, 0, 67, 64
2, 29835, Note_on_c, 0, 66, 96
2, 29847, Note_off_c, 0, 66, 64
2, 29850, Note_on_c, 0, 67, 96
2, 29862, Note_off_c, 0, 67, 64
2, 29865, Note_on_c, 0, 66, 96
2, 29877, Note_off_c, 0, 66, 64
2, 29880, Note_on_c, 0, 64, 96
2, 29928, Note_off_c, 0, 64, 64
2, 29940, Note_on_c, 0, 66, 96
2, 29988, Note_off_c, 0, 66, 64
2, 30000, Note_on_c, 0, 76, 96
2, 30048, Note_off_c, 0, 76, 64
2, 30060, Note_on_c, 0, 75, 96
2, 30108, Note_off_c, 0, 75, 64
2, 30120, Note_on_c, 0, 73, 96
2, 30168, Note_off_c, 0, 73, 64
2, 30180, Note_on_c, 0, 75, 96
2, 30228, Note_off_c, 0, 75, 64
2, 30240, Note_on_c, 0, 78, 96
2, 30288, Note_off_c, 0, 78, 64
2, 30300, Note_on_c, 0, 71, 96
2, 30312, Note_off_c, 0, 71, 64
2, 30315, Note_on_c, 0, 69, 96
2, 30327, Note_off_c, 0, 69, 64
2, 30330, Note_on_c, 0, 71, 96
2, 30342, Note_off_c, 0, 71, 64
2, 30345, Note_on_c, 0, 69, 96
2, 30357, Note_off_c, 0, 69, 64
2, 30360, Note_on_c, 0, 67, 96
2, 30408, Note_off_c, 0, 67, 64
2, 30420, Note_on_c, 0, 69, 96
2, 30468, Note_off_c, 0, 69, 64
2, 30480, Note_on_c, 0, 76, 96
2, 30528, Note_off_c, 0, 76, 64
2, 30540, Note_on_c, 0, 75, 96
2, 30588, Note_off_c, 0, 75, 64
2, 30600, Note_on_c, 0, 73, 96
2, 30648, Note_off_c, 0, 73, 64
2, 30660, Note_on_c, 0, 75, 96
2, 30708, Note_off_c, 0, 75, 64
2, 30720, Note_on_c, 0, 78, 96
2, 30768, Note_off_c, 0, 78, 64
2, 30780, Note_on_c, 0, 74, 96
2, 30792, Note_off_c, 0, 74, 64
2, 30795, Note_on_c, 0, 72, 96
2, 30807, Note_off_c, 0, 72, 64
2, 30810, Note_on_c, 0, 74, 96
2, 30822, Note_off_c, 0, 74, 64
2, 30825, Note_on_c, 0, 72, 96
2, 30837, Note_off_c, 0, 72, 64
2, 30840, Note_on_c, 0, 71, 96
2, 30888, Note_off_c, 0, 71, 64
2, 30900, Note_on_c, 0, 72, 96
2, 30948, Note_off_c, 0, 72, 64
2, 30960, Note_on_c, 0, 76, 96
2, 31008, Note_off_c, 0, 76, 64
2, 31020, Note_on_c, 0, 75, 96
2, 31068, Note_off_c, 0, 75, 64
2, 31080, Note_on_c, 0, 73, 96
2, 31128, Note_off_c, 0, 73, 64
2, 31140, Note_on_c, 0, 75, 96
2, 31188, Note_off_c, 0, 75, 64
2, 31200, Note_on_c, 0, 78, 96
2, 31248, Note_off_c, 0, 78, 64
2, 31260, Note_on_c, 0, 71, 96
2, 31260, Note_on_c, 0, 71, 96
2, 31404, Note_off_c, 0, 71, 64
2, 31440, Note_on_c, 0, 75, 96
2, 31488, Note_off_c, 0, 75, 64
2, 31500, Note_on_c, 0, 76, 96
2, 31548, Note_off_c, 0, 76, 64
2, 31560, Note_on_c, 0, 78, 96
2, 31608, Note_off_c, 0, 78, 64
2, 31620, Note_on_c, 0, 79, 96
2, 31644, Note_off_c, 0, 71, 64
2, 31680, Note_on_c, 0, 71, 96
2, 31728, Note_off_c, 0, 71, 64
2, 31740, Note_on_c, 0, 76, 96
2, 31788, Note_off_c, 0, 79, 64
2, 31800, Note_on_c, 0, 78, 96
2, 31848, Note_off_c, 0, 78, 64
2, 31860, Note_on_c, 0, 79, 96
2, 31884, Note_off_c, 0, 76, 64
2, 31908, Note_off_c, 0, 79, 64
2, 31920, Note_on_c, 0, 74, 96
2, 31920, Note_on_c, 0, 76, 96
2, 31968, Note_off_c, 0, 76, 64
2, 31968, Note_off_c, 0, 74, 64
2, 31980, Note_on_c, 0, 78, 96
2, 31980, Note_on_c, 0, 81, 96
2, 31980, Note_on_c, 0, 72, 96
2, 32124, Note_off_c, 0, 72, 64
2, 32124, Note_off_c, 0, 81, 64
2, 32124, Note_off_c, 0, 78, 64
2, 32160, Note_on_c, 0, 81, 96
2, 32208, Note_off_c, 0, 81, 64
2, 32220, Note_on_c, 0, 71, 96
2, 32220, Note_on_c, 0, 81, 96
2, 32220, Note_on_c, 0, 78, 96
2, 32268, Note_off_c, 0, 78, 64
2, 32268, Note_off_c, 0, 81, 64
2, 32268, Note_off_c, 0, 71, 64
2, 32280, Note_on_c, 0, 84, 96
2, 32328, Note_off_c, 0, 84, 64
2, 32340, Note_on_c, 0, 83, 96
2, 32388, Note_off_c, 0, 83, 64
2, 32400, Note_on_c, 0, 81, 96
2, 32448, Note_off_c, 0, 81, 64
2, 32460, Note_on_c, 0, 79, 96
2, 32508, Note_off_c, 0, 79, 64
2, 32520, Note_on_c, 0, 78, 96
2, 32568, Note_off_c, 0, 78, 64
2, 32580, Note_on_c, 0, 76, 96
2, 32628, Note_off_c, 0, 76, 64
2, 32640, Note_on_c, 0, 74, 96
2, 32688, Note_off_c, 0, 74, 64
2, 32700, Note_on_c, 0, 72, 96
2, 32748, Note_off_c, 0, 72, 64
2, 32760, Note_on_c, 0, 83, 96
2, 32808, Note_off_c, 0, 83, 64
2, 32820, Note_on_c, 0, 81, 96
2, 32868, Note_off_c, 0, 81, 64
2, 32880, Note_on_c, 0, 84, 96
2, 32928, Note_off_c, 0, 84, 64
2, 32940, Note_on_c, 0, 76, 96
2, 32988, Note_off_c, 0, 76, 64
2, 33000, Note_on_c, 0, 75, 96
2, 33048, Note_off_c, 0, 75, 64
2, 33060, Note_on_c, 0, 73, 96
2, 33108, Note_off_c, 0, 73, 64
2, 33120, Note_on_c, 0, 71, 96
2, 33168, Note_off_c, 0, 71, 64
2, 33180, Note_on_c, 0, 76, 96
2, 33180, Note_on_c, 0, 71, 96
2, 33180, Note_on_c, 0, 79, 96
2, 33276, Note_off_c, 0, 71, 64
2, 33276, Note_off_c, 0, 76, 64
2, 33324, Note_off_c, 0, 79, 64
2, 33360, Note_on_c, 0, 81, 96
2, 33417, Note_off_c, 0, 81, 64
2, 33420, Note_on_c, 0, 79, 96
2, 33420, Note_on_c, 0, 75, 96
2, 33432, Note_off_c, 0, 79, 64
2, 33435, Note_on_c, 0, 78, 96
2, 33447, Note_off_c, 0, 78, 64
2, 33450, Note_on_c, 0, 79, 96
2, 33462, Note_off_c, 0, 79, 64
2, 33465, Note_on_c, 0, 78, 96
2, 33576, Note_off_c, 0, 78, 64
2, 33600, Note_on_c, 0, 76, 96
2, 33612, Note_off_c, 0, 75, 64
2, 33648, Note_off_c, 0, 76, 64
2, 33660, Note_on_c, 0, 76, 93
2, 33840, Note_on_c, 0, 74, 93
2, 33888, Note_off_c, 0, 74, 64
2, 33900, Note_on_c, 0, 72, 93
2, 33948, Note_off_c, 0, 72, 64
2, 33960, Note_on_c, 0, 71, 93
2, 34008, Note_off_c, 0, 71, 64
2, 34020, Note_on_c, 0, 69, 93
2, 34044, Note_off_c, 0, 76, 64
2, 34068, Note_off_c, 0, 69, 64
2, 34080, Note_on_c, 0, 67, 93
2, 34128, Note_off_c, 0, 67, 64
2, 34140, Note_on_c, 0, 66, 93
2, 34140, Note_on_c, 0, 66, 93
2, 34188, Note_off_c, 0, 66, 64
2, 34200, Note_on_c, 0, 69, 93
2, 34200, Note_on_c, 0, 69, 92
2, 34248, Note_off_c, 0, 69, 64
2, 34260, Note_on_c, 0, 76, 93
2, 34308, Note_off_c, 0, 76, 64
2, 34320, Note_on_c, 0, 75, 93
2, 34332, Note_off_c, 0, 66, 64
2, 34344, Note_off_c, 0, 69, 64
2, 34368, Note_off_c, 0, 75, 64
2, 34380, Note_on_c, 0, 68, 93
2, 34380, Note_on_c, 0, 71, 93
2, 34380, Note_on_c, 0, 76, 93
2, 34524, Note_off_c, 0, 76, 64
2, 34524, Note_off_c, 0, 71, 64
2, 34524, Note_off_c, 0, 68, 64
2, 34560, Note_on_c, 0, 78, 93
2, 34608, Note_off_c, 0, 78, 64
2, 34620, Note_on_c, 0, 78, 96
2, 34680, Note_on_c, 0, 75, 96
2, 34680, Note_on_c, 0, 75, 96
2, 34728, Note_off_c, 0, 75, 64
2, 34740, Note_on_c, 0, 71, 96
2, 34776, Note_off_c, 0, 75, 64
2, 34812, Note_off_c, 0, 78, 64
2, 34836, Note_off_c, 0, 71, 64
2, 34920, Note_on_c, 0, 79, 96
2, 34968, Note_off_c, 0, 79, 64
2, 34980, Note_on_c, 0, 78, 96
2, 35028, Note_off_c, 0, 78, 64
2, 35040, Note_on_c, 0, 76, 96
2, 35088, Note_off_c, 0, 76, 64
2, 35100, Note_on_c, 0, 75, 96
2, 35244, Note_off_c, 0, 75, 64
2, 35280, Note_on_c, 0, 76, 96
2, 35328, Note_off_c, 0, 76, 64
2, 35340, Note_on_c, 0, 78, 96
2, 35388, Note_off_c, 0, 78, 64
2, 35400, Note_on_c, 0, 79, 96
2, 35424, Note_off_c, 0, 79, 64
2, 35430, Note_on_c, 0, 81, 96
2, 35454, Note_off_c, 0, 81, 64
2, 35460, Note_on_c, 0, 79, 96
2, 35508, Note_off_c, 0, 79, 64
2, 35520, Note_on_c, 0, 78, 96
2, 35568, Note_off_c, 0, 78, 64
2, 35580, Note_on_c, 0, 79, 96
2, 35628, Note_off_c, 0, 79, 64
2, 35640, Note_on_c, 0, 78, 96
2, 35688, Note_off_c, 0, 78, 64
2, 35700, Note_on_c, 0, 76, 96
2, 35760, Note_on_c, 0, 66, 96
2, 35808, Note_off_c, 0, 66, 64
2, 35820, Note_on_c, 0, 67, 96
2, 35868, Note_off_c, 0, 76, 64
2, 35868, Note_off_c, 0, 67, 64
2, 35880, Note_on_c, 0, 69, 96
2, 35880, Note_on_c, 0, 84, 96
2, 35928, Note_off_c, 0, 84, 64
2, 35928, Note_off_c, 0, 69, 64
2, 35940, Note_on_c, 0, 71, 96
2, 35940, Note_on_c, 0, 83, 96
2, 35988, Note_off_c, 0, 83, 64
2, 35988, Note_off_c, 0, 71, 64
2, 36000, Note_on_c, 0, 81, 96
2, 36000, Note_on_c, 0, 72, 96
2, 36048, Note_off_c, 0, 72, 64
2, 36048, Note_off_c, 0, 81, 64
2, 36060, Note_on_c, 0, 80, 96
2, 36060, Note_on_c, 0, 74, 96
2, 36108, Note_off_c, 0, 74, 64
2, 36108, Note_off_c, 0, 80, 64
2, 36120, Note_on_c, 0, 83, 96
2, 36168, Note_off_c, 0, 83, 64
2, 36180, Note_on_c, 0, 80, 96
2, 36228, Note_off_c, 0, 80, 64
2, 36240, Note_on_c, 0, 76, 96
2, 36288, Note_off_c, 0, 76, 64
2, 36300, Note_on_c, 0, 77, 96
2, 36348, Note_off_c, 0, 77, 64
2, 36360, Note_on_c, 0, 76, 96
2, 36408, Note_off_c, 0, 76, 64
2, 36420, Note_on_c, 0, 81, 96
2, 36468, Note_off_c, 0, 81, 64
2, 36480, Note_on_c, 0, 80, 96
2, 36528, Note_off_c, 0, 80, 64
2, 36540, Note_on_c, 0, 81, 96
2, 36684, Note_off_c, 0, 81, 64
2, 36720, Note_on_c, 0, 79, 96
2, 36768, Note_off_c, 0, 79, 64
2, 36780, Note_on_c, 0, 77, 96
2, 36828, Note_off_c, 0, 77, 64
2, 36840, Note_on_c, 0, 76, 96
2, 36888, Note_off_c, 0, 76, 64
2, 36900, Note_on_c, 0, 79, 96
2, 36948, Note_off_c, 0, 79, 64
2, 36960, Note_on_c, 0, 77, 96
2, 37008, Note_off_c, 0, 77, 64
2, 37020, Note_on_c, 0, 77, 96
2, 37164, Note_off_c, 0, 77, 64
2, 37200, Note_on_c, 0, 76, 96
2, 37248, Note_off_c, 0, 76, 64
2, 37260, Note_on_c, 0, 74, 96
2, 37308, Note_off_c, 0, 74, 64
2, 37320, Note_on_c, 0, 72, 96
2, 37368, Note_off_c, 0, 72, 64
2, 37380, Note_on_c, 0, 70, 96
2, 37428, Note_off_c, 0, 70, 64
2, 37440, Note_on_c, 0, 69, 96
2, 37488, Note_off_c, 0, 69, 64
2, 37500, Note_on_c, 0, 68, 96
2, 37644, Note_off_c, 0, 68, 64
2, 37680, Note_on_c, 0, 69, 96
2, 37704, Note_off_c, 0, 69, 64
2, 37710, Note_on_c, 0, 71, 96
2, 37734, Note_off_c, 0, 71, 64
2, 37740, Note_on_c, 0, 69, 96
2, 37788, Note_off_c, 0, 69, 64
2, 37800, Note_on_c, 0, 71, 96
2, 37824, Note_off_c, 0, 71, 64
2, 37830, Note_on_c, 0, 72, 96
2, 37854, Note_off_c, 0, 72, 64
2, 37860, Note_on_c, 0, 71, 96
2, 37908, Note_off_c, 0, 71, 64
2, 37920, Note_on_c, 0, 72, 96
2, 37944, Note_off_c, 0, 72, 64
2, 37950, Note_on_c, 0, 74, 96
2, 37974, Note_off_c, 0, 74, 64
2, 37980, Note_on_c, 0, 72, 96
2, 38028, Note_off_c, 0, 72, 64
2, 38040, Note_on_c, 0, 71, 96
2, 38064, Note_off_c, 0, 71, 64
2, 38070, Note_on_c, 0, 69, 96
2, 38094, Note_off_c, 0, 69, 64
2, 38100, Note_on_c, 0, 77, 96
2, 38148, Note_off_c, 0, 77, 64
2, 38160, Note_on_c, 0, 76, 96
2, 38208, Note_off_c, 0, 76, 64
2, 38220, Note_on_c, 0, 74, 96
2, 38268, Note_off_c, 0, 74, 64
2, 38280, Note_on_c, 0, 72, 96
2, 38328, Note_off_c, 0, 72, 64
2, 38340, Note_on_c, 0, 71, 96
2, 38388, Note_off_c, 0, 71, 64
2, 38400, Note_on_c, 0, 69, 96
2, 38448, Note_off_c, 0, 69, 64
2, 38460, Note_on_c, 0, 60, 96
2, 38460, Note_on_c, 0, 69, 96
2, 38460, Note_on_c, 0, 64, 96
2, 38556, Note_off_c, 0, 64, 64
2, 38556, Note_off_c, 0, 69, 64
2, 38604, Note_off_c, 0, 60, 64
2, 38640, Note_on_c, 0, 59, 96
2, 38688, Note_off_c, 0, 59, 64
2, 38700, Note_on_c, 0, 61, 96
2, 38748, Note_off_c, 0, 61, 64
2, 38760, Note_on_c, 0, 62, 96
2, 38808, Note_off_c, 0, 62, 64
2, 38820, Note_on_c, 0, 64, 96
2, 38868, Note_off_c, 0, 64, 64
2, 38880, Note_on_c, 0, 66, 96
2, 38928, Note_off_c, 0, 66, 64
2, 38940, Note_on_c, 0, 67, 96
2, 38988, Note_off_c, 0, 67, 64
2, 39000, Note_on_c, 0, 64, 96
2, 39048, Note_off_c, 0, 64, 64
2, 39060, Note_on_c, 0, 67, 96
2, 39108, Note_off_c, 0, 67, 64
2, 39120, Note_on_c, 0, 69, 96
2, 39168, Note_off_c, 0, 69, 64
2, 39180, Note_on_c, 0, 73, 96
2, 39228, Note_off_c, 0, 73, 64
2, 39240, Note_on_c, 0, 76, 96
2, 39288, Note_off_c, 0, 76, 64
2, 39300, Note_on_c, 0, 79, 96
2, 39348, Note_off_c, 0, 79, 64
2, 39360, Note_on_c, 0, 78, 96
2, 39408, Note_off_c, 0, 78, 64
2, 39420, Note_on_c, 0, 78, 92
2, 39468, Note_off_c, 0, 78, 64
2, 39480, Note_on_c, 0, 76, 92
2, 39528, Note_off_c, 0, 76, 64
2, 39540, Note_on_c, 0, 74, 96
2, 39708, Note_off_c, 0, 74, 64
2, 39720, Note_on_c, 0, 76, 96
2, 39768, Note_off_c, 0, 76, 64
2, 39780, Note_on_c, 0, 78, 96
2, 39828, Note_off_c, 0, 78, 64
2, 39840, Note_on_c, 0, 79, 96
2, 39888, Note_off_c, 0, 79, 64
2, 39900, Note_on_c, 0, 81, 96
2, 39948, Note_off_c, 0, 81, 64
2, 39960, Note_on_c, 0, 83, 96
2, 39984, Note_off_c, 0, 83, 64
2, 39990, Note_on_c, 0, 84, 96
2, 40014, Note_off_c, 0, 84, 64
2, 40020, Note_on_c, 0, 78, 96
2, 40068, Note_off_c, 0, 78, 64
2, 40080, Note_on_c, 0, 79, 96
2, 40104, Note_off_c, 0, 79, 64
2, 40110, Note_on_c, 0, 81, 96
2, 40134, Note_off_c, 0, 81, 64
2, 40140, Note_on_c, 0, 74, 96
2, 40236, Note_off_c, 0, 74, 64
2, 40260, Note_on_c, 0, 74, 96
2, 40272, Note_off_c, 0, 74, 64
2, 40275, Note_on_c, 0, 72, 96
2, 40287, Note_off_c, 0, 72, 64
2, 40290, Note_on_c, 0, 74, 96
2, 40302, Note_off_c, 0, 74, 64
2, 40305, Note_on_c, 0, 72, 96
2, 40317, Note_off_c, 0, 72, 64
2, 40320, Note_on_c, 0, 71, 96
2, 40344, Note_off_c, 0, 71, 64
2, 40350, Note_on_c, 0, 72, 96
2, 40374, Note_off_c, 0, 72, 64
2, 40380, Note_on_c, 0, 71, 96
2, 40428, Note_off_c, 0, 71, 64
2, 40440, Note_on_c, 0, 74, 96
2, 40488, Note_off_c, 0, 74, 64
2, 40500, Note_on_c, 0, 76, 96
2, 40548, Note_off_c, 0, 76, 64
2, 40560, Note_on_c, 0, 78, 96
2, 40608, Note_off_c, 0, 78, 64
2, 40620, Note_on_c, 0, 79, 96
2, 40764, Note_off_c, 0, 79, 64
2, 40800, Note_on_c, 0, 79, 96
2, 40848, Note_off_c, 0, 79, 64
2, 40860, Note_on_c, 0, 79, 96
2, 40908, Note_off_c, 0, 79, 64
2, 40920, Note_on_c, 0, 78, 96
2, 40968, Note_off_c, 0, 78, 64
2, 40980, Note_on_c, 0, 81, 96
2, 41028, Note_off_c, 0, 81, 64
2, 41040, Note_on_c, 0, 79, 96
2, 41088, Note_off_c, 0, 79, 64
2, 41100, Note_on_c, 0, 78, 96
2, 41148, Note_off_c, 0, 78, 64
2, 41160, Note_on_c, 0, 76, 96
2, 41208, Note_off_c, 0, 76, 64
2, 41220, Note_on_c, 0, 75, 96
2, 41268, Note_off_c, 0, 75, 64
2, 41280, Note_on_c, 0, 76, 96
2, 41328, Note_off_c, 0, 76, 64
2, 41340, Note_on_c, 0, 67, 96
2, 41352, Note_off_c, 0, 67, 64
2, 41355, Note_on_c, 0, 66, 96
2, 41367, Note_off_c, 0, 66, 64
2, 41370, Note_on_c, 0, 67, 96
2, 41382, Note_off_c, 0, 67, 64
2, 41385, Note_on_c, 0, 66, 96
2, 41397, Note_off_c, 0, 66, 64
2, 41400, Note_on_c, 0, 64, 96
2, 41448, Note_off_c, 0, 64, 64
2, 41460, Note_on_c, 0, 66, 96
2, 41508, Note_off_c, 0, 66, 64
2, 41520, Note_on_c, 0, 76, 96
2, 41568, Note_off_c, 0, 76, 64
2, 41580, Note_on_c, 0, 75, 96
2, 41628, Note_off_c, 0, 75, 64
2, 41640, Note_on_c, 0, 73, 96
2, 41688, Note_off_c, 0, 73, 64
2, 41700, Note_on_c, 0, 75, 96
2, 41748, Note_off_c, 0, 75, 64
2, 41760, Note_on_c, 0, 78, 96
2, 41808, Note_off_c, 0, 78, 64
2, 41820, Note_on_c, 0, 71, 96
2, 41832, Note_off_c, 0, 71, 64
2, 41835, Note_on_c, 0, 69, 96
2, 41847, Note_off_c, 0, 69, 64
2, 41850, Note_on_c, 0, 71, 96
2, 41862, Note_off_c, 0, 71, 64
2, 41865, Note_on_c, 0, 69, 96
2, 41877, Note_off_c, 0, 69, 64
2, 41880, Note_on_c, 0, 67, 96
2, 41928, Note_off_c, 0, 67, 64
2, 41940, Note_on_c, 0, 69, 96
2, 41988, Note_off_c, 0, 69, 64
2, 42000, Note_on_c, 0, 76, 96
2, 42048, Note_off_c, 0, 76, 64
2, 42060, Note_on_c, 0, 75, 96
2, 42108, Note_off_c, 0, 75, 64
2, 42120, Note_on_c, 0, 73, 96
2, 42168, Note_off_c, 0, 73, 64
2, 42180, Note_on_c, 0, 75, 96
2, 42228, Note_off_c, 0, 75, 64
2, 42240, Note_on_c, 0, 78, 96
2, 42288, Note_off_c, 0, 78, 64
2, 42300, Note_on_c, 0, 74, 96
2, 42312, Note_off_c, 0, 74, 64
2, 42315, Note_on_c, 0, 72, 96
2, 42327, Note_off_c, 0, 72, 64
2, 42330, Note_on_c, 0, 74, 96
2, 42342, Note_off_c, 0, 74, 64
2, 42345, Note_on_c, 0, 72, 96
2, 42357, Note_off_c, 0, 72, 64
2, 42360, Note_on_c, 0, 71, 96
2, 42408, Note_off_c, 0, 71, 64
2, 42420, Note_on_c, 0, 72, 96
2, 42468, Note_off_c, 0, 72, 64
2, 42480, Note_on_c, 0, 76, 96
2, 42528, Note_off_c, 0, 76, 64
2, 42540, Note_on_c, 0, 75, 96
2, 42588, Note_off_c, 0, 75, 64
2, 42600, Note_on_c, 0, 73, 96
2, 42648, Note_off_c, 0, 73, 64
2, 42660, Note_on_c, 0, 75, 96
2, 42708, Note_off_c, 0, 75, 64
2, 42720, Note_on_c, 0, 78, 96
2, 42768, Note_off_c, 0, 78, 64
2, 42780, Note_on_c, 0, 71, 96
2, 42780, Note_on_c, 0, 71, 96
2, 42924, Note_off_c, 0, 71, 64
2, 42960, Note_on_c, 0, 75, 96
2, 43008, Note_off_c, 0, 75, 64
2, 43020, Note_on_c, 0, 76, 96
2, 43068, Note_off_c, 0, 76, 64
2, 43080, Note_on_c, 0, 78, 96
2, 43128, Note_off_c, 0, 78, 64
2, 43140, Note_on_c, 0, 79, 96
2, 43164, Note_off_c, 0, 71, 64
2, 43200, Note_on_c, 0, 71, 96
2, 43248, Note_off_c, 0, 71, 64
2, 43260, Note_on_c, 0, 76, 96
2, 43308, Note_off_c, 0, 79, 64
2, 43320, Note_on_c, 0, 78, 96
2, 43368, Note_off_c, 0, 78, 64
2, 43380, Note_on_c, 0, 79, 96
2, 43404, Note_off_c, 0, 76, 64
2, 43428, Note_off_c, 0, 79, 64
2, 43440, Note_on_c, 0, 74, 96
2, 43440, Note_on_c, 0, 76, 96
2, 43488, Note_off_c, 0, 76, 64
2, 43488, Note_off_c, 0, 74, 64
2, 43500, Note_on_c, 0, 78, 96
2, 43500, Note_on_c, 0, 81, 96
2, 43500, Note_on_c, 0, 72, 96
2, 43644, Note_off_c, 0, 72, 64
2, 43644, Note_off_c, 0, 81, 64
2, 43644, Note_off_c, 0, 78, 64
2, 43680, Note_on_c, 0, 81, 96
2, 43728, Note_off_c, 0, 81, 64
2, 43740, Note_on_c, 0, 71, 96
2, 43740, Note_on_c, 0, 81, 96
2, 43740, Note_on_c, 0, 78, 96
2, 43788, Note_off_c, 0, 78, 64
2, 43788, Note_off_c, 0, 81, 64
2, 43788, Note_off_c, 0, 71, 64
2, 43800, Note_on_c, 0, 84, 96
2, 43848, Note_off_c, 0, 84, 64
2, 43860, Note_on_c, 0, 83, 96
2, 43908, Note_off_c, 0, 83, 64
2, 43920, Note_on_c, 0, 81, 96
2, 43968, Note_off_c, 0, 81, 64
2, 43980, Note_on_c, 0, 79, 96
2, 44028, Note_off_c, 0, 79, 64
2, 44040, Note_on_c, 0, 78, 96
2, 44088, Note_off_c, 0, 78, 64
2, 44100, Note_on_c, 0, 76, 96
2, 44148, Note_off_c, 0, 76, 64
2, 44160, Note_on_c, 0, 74, 96
2, 44208, Note_off_c, 0, 74, 64
2, 44220, Note_on_c, 0, 72, 96
2, 44268, Note_off_c, 0, 72, 64
2, 44280, Note_on_c, 0, 83, 96
2, 44328, Note_off_c, 0, 83, 64
2, 44340, Note_on_c, 0, 81, 96
2, 44388, Note_off_c, 0, 81, 64
2, 44400, Note_on_c, 0, 84, 96
2, 44448, Note_off_c, 0, 84, 64
2, 44460, Note_on_c, 0, 76, 96
2, 44508, Note_off_c, 0, 76, 64
2, 44520, Note_on_c, 0, 75, 96
2, 44568, Note_off_c, 0, 75, 64
2, 44580, Note_on_c, 0, 73, 96
2, 44628, Note_off_c, 0, 73, 64
2, 44640, Note_on_c, 0, 71, 96
2, 44688, Note_off_c, 0, 71, 64
2, 44700, Note_on_c, 0, 76, 96
2, 44700, Note_on_c, 0, 71, 96
2, 44700, Note_on_c, 0, 79, 96
2, 44796, Note_off_c, 0, 71, 64
2, 44796, Note_off_c, 0, 76, 64
2, 44844, Note_off_c, 0, 79, 64
2, 44880, Note_on_c, 0, 81, 96
2, 44937, Note_off_c, 0, 81, 64
2, 44940, Note_on_c, 0, 79, 96
2, 44940, Note_on_c, 0, 75, 96
2, 44952, Note_off_c, 0, 79, 64
2, 44955, Note_on_c, 0, 78, 96
2, 44967, Note_off_c, 0, 78, 64
2, 44970, Note_on_c, 0, 79, 96
2, 44982, Note_off_c, 0, 79, 64
2, 44985, Note_on_c, 0, 78, 96
2, 45096, Note_off_c, 0, 78, 64
2, 45120, Note_on_c, 0, 76, 96
2, 45132, Note_off_c, 0, 75, 64
2, 45168, Note_off_c, 0, 76, 64
2, 45180, Note_on_c, 0, 76, 93
2, 45360, Note_on_c, 0, 74, 93
2, 45408, Note_off_c, 0, 74, 64
2, 45420, Note_on_c, 0, 72, 93
2, 45468, Note_off_c, 0, 72, 64
2, 45480, Note_on_c, 0, 71, 93
2, 45528, Note_off_c, 0, 71, 64
2, 45540, Note_on_c, 0, 69, 93
2, 45564, Note_off_c, 0, 76, 64
2, 45588, Note_off_c, 0, 69, 64
2, 45600, Note_on_c, 0, 67, 93
2, 45648, Note_off_c, 0, 67, 64
2, 45660, Note_on_c, 0, 66, 93
2, 45660, Note_on_c, 0, 66, 93
2, 45708, Note_off_c, 0, 66, 64
2, 45720, Note_on_c, 0, 69, 93
2, 45720, Note_on_c, 0, 69, 92
2, 45768, Note_off_c, 0, 69, 64
2, 45780, Note_on_c, 0, 76, 93
2, 45828, Note_off_c, 0, 76, 64
2, 45840, Note_on_c, 0, 75, 93
2, 45852, Note_off_c, 0, 66, 64
2, 45864, Note_off_c, 0, 69, 64
2, 45888, Note_off_c, 0, 75, 64
2, 45900, Note_on_c, 0, 68, 93
2, 45900, Note_on_c, 0, 71, 93
2, 45900, Note_on_c, 0, 76, 93
2, 46044, Note_off_c, 0, 76, 64
2, 46044, Note_off_c, 0, 71, 64
2, 46044, Note_off_c, 0, 68, 64
2, 46044, End_track
3, 0, Start_track
3, 0, Title_t, "J.S. Bach, Edition Kalmus"
3, 0, Program_c, 1, 0
3, 60, Note_on_c, 1, 52, 96
3, 156, Note_off_c, 1, 52, 64
3, 180, Note_on_c, 1, 40, 96
3, 276, Note_off_c, 1, 40, 64
3, 360, Note_on_c, 1, 52, 96
3, 408, Note_off_c, 1, 52, 64
3, 420, Note_on_c, 1, 54, 96
3, 468, Note_off_c, 1, 54, 64
3, 480, Note_on_c, 1, 55, 96
3, 528, Note_off_c, 1, 55, 64
3, 540, Note_on_c, 1, 57, 96
3, 636, Note_off_c, 1, 57, 64
3, 660, Note_on_c, 1, 54, 96
3, 756, Note_off_c, 1, 54, 64
3, 780, Note_on_c, 1, 59, 96
3, 876, Note_off_c, 1, 59, 64
3, 900, Note_on_c, 1, 47, 96
3, 996, Note_off_c, 1, 47, 64
3, 1020, Note_on_c, 1, 52, 96
3, 1020, Note_on_c, 1, 64, 96
3, 1020, Note_on_c, 1, 55, 96
3, 1020, Note_on_c, 1, 59, 96
3, 1164, Note_off_c, 1, 59, 64
3, 1164, Note_off_c, 1, 55, 64
3, 1164, Note_off_c, 1, 64, 64
3, 1164, Note_off_c, 1, 52, 64
3, 1200, Note_on_c, 1, 62, 96
3, 1248, Note_off_c, 1, 62, 64
3, 1260, Note_on_c, 1, 60, 96
3, 1308, Note_off_c, 1, 60, 64
3, 1320, Note_on_c, 1, 59, 96
3, 1368, Note_off_c, 1, 59, 64
3, 1380, Note_on_c, 1, 57, 96
3, 1428, Note_off_c, 1, 57, 64
3, 1440, Note_on_c, 1, 55, 96
3, 1488, Note_off_c, 1, 55, 64
3, 1500, Note_on_c, 1, 54, 96
3, 1548, Note_off_c, 1, 54, 64
3, 1560, Note_on_c, 1, 64, 96
3, 1608, Note_off_c, 1, 64, 64
3, 1620, Note_on_c, 1, 63, 96
3, 1668, Note_off_c, 1, 63, 64
3, 1680, Note_on_c, 1, 69, 96
3, 1728, Note_off_c, 1, 69, 64
3, 1740, Note_on_c, 1, 69, 96
3, 1788, Note_off_c, 1, 69, 64
3, 1800, Note_on_c, 1, 67, 96
3, 1848, Note_off_c, 1, 67, 64
3, 1860, Note_on_c, 1, 69, 96
3, 1908, Note_off_c, 1, 69, 64
3, 1920, Note_on_c, 1, 66, 96
3, 1968, Note_off_c, 1, 66, 64
3, 1980, Note_on_c, 1, 67, 96
3, 2028, Note_off_c, 1, 67, 64
3, 2040, Note_on_c, 1, 66, 96
3, 2088, Note_off_c, 1, 66, 64
3, 2100, Note_on_c, 1, 64, 96
3, 2196, Note_off_c, 1, 64, 64
3, 2220, Note_on_c, 1, 66, 96
3, 2316, Note_off_c, 1, 66, 64
3, 2340, Note_on_c, 1, 68, 96
3, 2436, Note_off_c, 1, 68, 64
3, 2460, Note_on_c, 1, 69, 96
3, 2508, Note_off_c, 1, 69, 64
3, 2520, Note_on_c, 1, 67, 96
3, 2568, Note_off_c, 1, 67, 64
3, 2580, Note_on_c, 1, 66, 96
3, 2628, Note_off_c, 1, 66, 64
3, 2640, Note_on_c, 1, 64, 96
3, 2688, Note_off_c, 1, 64, 64
3, 2700, Note_on_c, 1, 63, 96
3, 2796, Note_off_c, 1, 63, 64
3, 2820, Note_on_c, 1, 64, 96
3, 3036, Note_off_c, 1, 64, 64
3, 3060, Note_on_c, 1, 63, 96
3, 3156, Note_off_c, 1, 63, 64
3, 3180, Note_on_c, 1, 64, 96
3, 3276, Note_off_c, 1, 64, 64
3, 3300, Note_on_c, 1, 52, 96
3, 3396, Note_off_c, 1, 52, 64
3, 3420, Note_on_c, 1, 59, 96
3, 3564, Note_off_c, 1, 59, 64
3, 3600, Note_on_c, 1, 57, 96
3, 3648, Note_off_c, 1, 57, 64
3, 3660, Note_on_c, 1, 55, 96
3, 3708, Note_off_c, 1, 55, 64
3, 3720, Note_on_c, 1, 54, 96
3, 3768, Note_off_c, 1, 54, 64
3, 3780, Note_on_c, 1, 52, 96
3, 3828, Note_off_c, 1, 52, 64
3, 3840, Note_on_c, 1, 50, 96
3, 3888, Note_off_c, 1, 50, 64
3, 3900, Note_on_c, 1, 49, 96
3, 3948, Note_off_c, 1, 49, 64
3, 3960, Note_on_c, 1, 59, 96
3, 4008, Note_off_c, 1, 59, 64
3, 4020, Note_on_c, 1, 58, 96
3, 4068, Note_off_c, 1, 58, 64
3, 4080, Note_on_c, 1, 64, 96
3, 4128, Note_off_c, 1, 64, 64
3, 4140, Note_on_c, 1, 64, 96
3, 4188, Note_off_c, 1, 64, 64
3, 4200, Note_on_c, 1, 62, 96
3, 4248, Note_off_c, 1, 62, 64
3, 4260, Note_on_c, 1, 64, 96
3, 4308, Note_off_c, 1, 64, 64
3, 4320, Note_on_c, 1, 61, 96
3, 4368, Note_off_c, 1, 61, 64
3, 4380, Note_on_c, 1, 62, 96
3, 4428, Note_off_c, 1, 62, 64
3, 4440, Note_on_c, 1, 59, 96
3, 4488, Note_off_c, 1, 59, 64
3, 4500, Note_on_c, 1, 61, 96
3, 4548, Note_off_c, 1, 61, 64
3, 4560, Note_on_c, 1, 62, 96
3, 4608, Note_off_c, 1, 62, 64
3, 4620, Note_on_c, 1, 64, 96
3, 4908, Note_off_c, 1, 64, 64
3, 4920, Note_on_c, 1, 62, 96
3, 4968, Note_off_c, 1, 62, 64
3, 4980, Note_on_c, 1, 61, 96
3, 5028, Note_off_c, 1, 61, 64
3, 5040, Note_on_c, 1, 59, 96
3, 5088, Note_off_c, 1, 59, 64
3, 5100, Note_on_c, 1, 59, 96
3, 5112, Note_off_c, 1, 59, 64
3, 5115, Note_on_c, 1, 58, 96
3, 5127, Note_off_c, 1, 58, 64
3, 5130, Note_on_c, 1, 59, 96
3, 5142, Note_off_c, 1, 59, 64
3, 5145, Note_on_c, 1, 58, 96
3, 5256, Note_off_c, 1, 58, 64
3, 5280, Note_on_c, 1, 58, 96
3, 5328, Note_off_c, 1, 58, 64
3, 5340, Note_on_c, 1, 59, 96
3, 5484, Note_off_c, 1, 59, 64
3, 5520, Note_on_c, 1, 67, 96
3, 5568, Note_off_c, 1, 67, 64
3, 5580, Note_on_c, 1, 57, 96
3, 5628, Note_off_c, 1, 57, 64
3, 5640, Note_on_c, 1, 67, 96
3, 5688, Note_off_c, 1, 67, 64
3, 5700, Note_on_c, 1, 57, 96
3, 5748, Note_off_c, 1, 57, 64
3, 5760, Note_on_c, 1, 66, 96
3, 5808, Note_off_c, 1, 66, 64
3, 5820, Note_on_c, 1, 55, 96
3, 5868, Note_off_c, 1, 55, 64
3, 5880, Note_on_c, 1, 54, 96
3, 5928, Note_off_c, 1, 54, 64
3, 5940, Note_on_c, 1, 55, 96
3, 5988, Note_off_c, 1, 55, 64
3, 6000, Note_on_c, 1, 64, 96
3, 6048, Note_off_c, 1, 64, 64
3, 6060, Note_on_c, 1, 54, 96
3, 6108, Note_off_c, 1, 54, 64
3, 6120, Note_on_c, 1, 64, 96
3, 6168, Note_off_c, 1, 64, 64
3, 6180, Note_on_c, 1, 54, 96
3, 6228, Note_off_c, 1, 54, 64
3, 6240, Note_on_c, 1, 62, 96
3, 6288, Note_off_c, 1, 62, 64
3, 6300, Note_on_c, 1, 52, 96
3, 6348, Note_off_c, 1, 52, 64
3, 6360, Note_on_c, 1, 50, 96
3, 6408, Note_off_c, 1, 50, 64
3, 6420, Note_on_c, 1, 52, 96
3, 6468, Note_off_c, 1, 52, 64
3, 6480, Note_on_c, 1, 61, 96
3, 6528, Note_off_c, 1, 61, 64
3, 6540, Note_on_c, 1, 50, 96
3, 6588, Note_off_c, 1, 50, 64
3, 6600, Note_on_c, 1, 61, 96
3, 6648, Note_off_c, 1, 61, 64
3, 6660, Note_on_c, 1, 50, 96
3, 6708, Note_off_c, 1, 50, 64
3, 6720, Note_on_c, 1, 59, 96
3, 6768, Note_off_c, 1, 59, 64
3, 6780, Note_on_c, 1, 49, 96
3, 6828, Note_off_c, 1, 49, 64
3, 6840, Note_on_c, 1, 47, 96
3, 6888, Note_off_c, 1, 47, 64
3, 6900, Note_on_c, 1, 49, 96
3, 6948, Note_off_c, 1, 49, 64
3, 6960, Note_on_c, 1, 59, 96
3, 7008, Note_off_c, 1, 59, 64
3, 7020, Note_on_c, 1, 58, 96
3, 7068, Note_off_c, 1, 58, 64
3, 7080, Note_on_c, 1, 56, 96
3, 7128, Note_off_c, 1, 56, 64
3, 7140, Note_on_c, 1, 58, 96
3, 7188, Note_off_c, 1, 58, 64
3, 7200, Note_on_c, 1, 61, 96
3, 7248, Note_off_c, 1, 61, 64
3, 7260, Note_on_c, 1, 52, 96
3, 7308, Note_off_c, 1, 52, 64
3, 7320, Note_on_c, 1, 50, 96
3, 7368, Note_off_c, 1, 50, 64
3, 7380, Note_on_c, 1, 52, 96
3, 7428, Note_off_c, 1, 52, 64
3, 7440, Note_on_c, 1, 59, 96
3, 7488, Note_off_c, 1, 59, 64
3, 7500, Note_on_c, 1, 58, 96
3, 7548, Note_off_c, 1, 58, 64
3, 7560, Note_on_c, 1, 56, 96
3, 7608, Note_off_c, 1, 56, 64
3, 7620, Note_on_c, 1, 58, 96
3, 7668, Note_off_c, 1, 58, 64
3, 7680, Note_on_c, 1, 61, 96
3, 7728, Note_off_c, 1, 61, 64
3, 7740, Note_on_c, 1, 55, 96
3, 7788, Note_off_c, 1, 55, 64
3, 7800, Note_on_c, 1, 54, 96
3, 7848, Note_off_c, 1, 54, 64
3, 7860, Note_on_c, 1, 55, 96
3, 7908, Note_off_c, 1, 55, 64
3, 7920, Note_on_c, 1, 59, 96
3, 7968, Note_off_c, 1, 59, 64
3, 7980, Note_on_c, 1, 58, 96
3, 8028, Note_off_c, 1, 58, 64
3, 8040, Note_on_c, 1, 56, 96
3, 8088, Note_off_c, 1, 56, 64
3, 8100, Note_on_c, 1, 58, 96
3, 8148, Note_off_c, 1, 58, 64
3, 8160, Note_on_c, 1, 61, 96
3, 8208, Note_off_c, 1, 61, 64
3, 8220, Note_on_c, 1, 54, 96
3, 8340, Note_on_c, 1, 58, 96
3, 8436, Note_off_c, 1, 58, 64
3, 8460, Note_on_c, 1, 59, 96
3, 8556, Note_off_c, 1, 59, 64
3, 8580, Note_on_c, 1, 62, 96
3, 8676, Note_off_c, 1, 62, 64
3, 8700, Note_on_c, 1, 59, 96
3, 8796, Note_off_c, 1, 59, 64
3, 8820, Note_on_c, 1, 56, 96
3, 8916, Note_off_c, 1, 56, 64
3, 8940, Note_on_c, 1, 66, 96
3, 9036, Note_off_c, 1, 66, 64
3, 9060, Note_on_c, 1, 65, 96
3, 9156, Note_off_c, 1, 65, 64
3, 9180, Note_on_c, 1, 66, 96
3, 9276, Note_off_c, 1, 66, 64
3, 9324, Note_off_c, 1, 54, 64
3, 9360, Note_on_c, 1, 52, 96
3, 9408, Note_off_c, 1, 52, 64
3, 9420, Note_on_c, 1, 50, 96
3, 9468, Note_off_c, 1, 50, 64
3, 9480, Note_on_c, 1, 49, 96
3, 9528, Note_off_c, 1, 49, 64
3, 9540, Note_on_c, 1, 47, 96
3, 9588, Note_off_c, 1, 47, 64
3, 9600, Note_on_c, 1, 45, 96
3, 9648, Note_off_c, 1, 45, 64
3, 9660, Note_on_c, 1, 43, 96
3, 9708, Note_off_c, 1, 43, 64
3, 9720, Note_on_c, 1, 54, 96
3, 9768, Note_off_c, 1, 54, 64
3, 9780, Note_on_c, 1, 52, 96
3, 9828, Note_off_c, 1, 52, 64
3, 9840, Note_on_c, 1, 59, 96
3, 9888, Note_off_c, 1, 59, 64
3, 9900, Note_on_c, 1, 59, 96
3, 9948, Note_off_c, 1, 59, 64
3, 9960, Note_on_c, 1, 58, 96
3, 10008, Note_off_c, 1, 58, 64
3, 10020, Note_on_c, 1, 59, 96
3, 10068, Note_off_c, 1, 59, 64
3, 10080, Note_on_c, 1, 56, 96
3, 10128, Note_off_c, 1, 56, 64
3, 10140, Note_on_c, 1, 58, 96
3, 10236, Note_off_c, 1, 58, 64
3, 10260, Note_on_c, 1, 59, 96
3, 10308, Note_off_c, 1, 59, 64
3, 10320, Note_on_c, 1, 52, 96
3, 10368, Note_off_c, 1, 52, 64
3, 10380, Note_on_c, 1, 54, 96
3, 10476, Note_off_c, 1, 54, 64
3, 10500, Note_on_c, 1, 42, 96
3, 10596, Note_off_c, 1, 42, 64
3, 10620, Note_on_c, 1, 47, 96
3, 10680, Note_on_c, 1, 49, 96
3, 10728, Note_off_c, 1, 49, 64
3, 10740, Note_on_c, 1, 51, 96
3, 10836, Note_off_c, 1, 51, 64
3, 10860, Note_on_c, 1, 52, 96
3, 10956, Note_off_c, 1, 52, 64
3, 10980, Note_on_c, 1, 54, 96
3, 11076, Note_off_c, 1, 54, 64
3, 11100, Note_on_c, 1, 55, 96
3, 11196, Note_off_c, 1, 55, 64
3, 11220, Note_on_c, 1, 52, 96
3, 11316, Note_off_c, 1, 52, 64
3, 11340, Note_on_c, 1, 54, 96
3, 11388, Note_off_c, 1, 54, 64
3, 11400, Note_on_c, 1, 57, 96
3, 11448, Note_off_c, 1, 57, 64
3, 11460, Note_on_c, 1, 55, 96
3, 11484, Note_off_c, 1, 47, 64
3, 11508, Note_off_c, 1, 55, 64
3, 11520, Note_on_c, 1, 54, 96
3, 11568, Note_off_c, 1, 54, 64
3, 11580, Note_on_c, 1, 52, 96
3, 11676, Note_off_c, 1, 52, 64
3, 11700, Note_on_c, 1, 40, 96
3, 11796, Note_off_c, 1, 40, 64
3, 11880, Note_on_c, 1, 52, 96
3, 11928, Note_off_c, 1, 52, 64
3, 11940, Note_on_c, 1, 54, 96
3, 11988, Note_off_c, 1, 54, 64
3, 12000, Note_on_c, 1, 55, 96
3, 12048, Note_off_c, 1, 55, 64
3, 12060, Note_on_c, 1, 57, 96
3, 12156, Note_off_c, 1, 57, 64
3, 12180, Note_on_c, 1, 54, 96
3, 12276, Note_off_c, 1, 54, 64
3, 12300, Note_on_c, 1, 59, 96
3, 12396, Note_off_c, 1, 59, 64
3, 12420, Note_on_c, 1, 47, 96
3, 12516, Note_off_c, 1, 47, 64
3, 12540, Note_on_c, 1, 52, 96
3, 12540, Note_on_c, 1, 64, 96
3, 12540, Note_on_c, 1, 55, 96
3, 12540, Note_on_c, 1, 59, 96
3, 12684, Note_off_c, 1, 59, 64
3, 12684, Note_off_c, 1, 55, 64
3, 12684, Note_off_c, 1, 64, 64
3, 12684, Note_off_c, 1, 52, 64
3, 12720, Note_on_c, 1, 62, 96
3, 12768, Note_off_c, 1, 62, 64
3, 12780, Note_on_c, 1, 60, 96
3, 12828, Note_off_c, 1, 60, 64
3, 12840, Note_on_c, 1, 59, 96
3, 12888, Note_off_c, 1, 59, 64
3, 12900, Note_on_c, 1, 57, 96
3, 12948, Note_off_c, 1, 57, 64
3, 12960, Note_on_c, 1, 55, 96
3, 13008, Note_off_c, 1, 55, 64
3, 13020, Note_on_c, 1, 54, 96
3, 13068, Note_off_c, 1, 54, 64
3, 13080, Note_on_c, 1, 64, 96
3, 13128, Note_off_c, 1, 64, 64
3, 13140, Note_on_c, 1, 63, 96
3, 13188, Note_off_c, 1, 63, 64
3, 13200, Note_on_c, 1, 69, 96
3, 13248, Note_off_c, 1, 69, 64
3, 13260, Note_on_c, 1, 69, 96
3, 13308, Note_off_c, 1, 69, 64
3, 13320, Note_on_c, 1, 67, 96
3, 13368, Note_off_c, 1, 67, 64
3, 13380, Note_on_c, 1, 69, 96
3, 13428, Note_off_c, 1, 69, 64
3, 13440, Note_on_c, 1, 66, 96
3, 13488, Note_off_c, 1, 66, 64
3, 13500, Note_on_c, 1, 67, 96
3, 13548, Note_off_c, 1, 67, 64
3, 13560, Note_on_c, 1, 66, 96
3, 13608, Note_off_c, 1, 66, 64
3, 13620, Note_on_c, 1, 64, 96
3, 13716, Note_off_c, 1, 64, 64
3, 13740, Note_on_c, 1, 66, 96
3, 13836, Note_off_c, 1, 66, 64
3, 13860, Note_on_c, 1, 68, 96
3, 13956, Note_off_c, 1, 68, 64
3, 13980, Note_on_c, 1, 69, 96
3, 14028, Note_off_c, 1, 69, 64
3, 14040, Note_on_c, 1, 67, 96
3, 14088, Note_off_c, 1, 67, 64
3, 14100, Note_on_c, 1, 66, 96
3, 14148, Note_off_c, 1, 66, 64
3, 14160, Note_on_c, 1, 64, 96
3, 14208, Note_off_c, 1, 64, 64
3, 14220, Note_on_c, 1, 63, 96
3, 14316, Note_off_c, 1, 63, 64
3, 14340, Note_on_c, 1, 64, 96
3, 14556, Note_off_c, 1, 64, 64
3, 14580, Note_on_c, 1, 63, 96
3, 14676, Note_off_c, 1, 63, 64
3, 14700, Note_on_c, 1, 64, 96
3, 14796, Note_off_c, 1, 64, 64
3, 14820, Note_on_c, 1, 52, 96
3, 14916, Note_off_c, 1, 52, 64
3, 14940, Note_on_c, 1, 59, 96
3, 15084, Note_off_c, 1, 59, 64
3, 15120, Note_on_c, 1, 57, 96
3, 15168, Note_off_c, 1, 57, 64
3, 15180, Note_on_c, 1, 55, 96
3, 15228, Note_off_c, 1, 55, 64
3, 15240, Note_on_c, 1, 54, 96
3, 15288, Note_off_c, 1, 54, 64
3, 15300, Note_on_c, 1, 52, 96
3, 15348, Note_off_c, 1, 52, 64
3, 15360, Note_on_c, 1, 50, 96
3, 15408, Note_off_c, 1, 50, 64
3, 15420, Note_on_c, 1, 49, 96
3, 15468, Note_off_c, 1, 49, 64
3, 15480, Note_on_c, 1, 59, 96
3, 15528, Note_off_c, 1, 59, 64
3, 15540, Note_on_c, 1, 58, 96
3, 15588, Note_off_c, 1, 58, 64
3, 15600, Note_on_c, 1, 64, 96
3, 15648, Note_off_c, 1, 64, 64
3, 15660, Note_on_c, 1, 64, 96
3, 15708, Note_off_c, 1, 64, 64
3, 15720, Note_on_c, 1, 62, 96
3, 15768, Note_off_c, 1, 62, 64
3, 15780, Note_on_c, 1, 64, 96
3, 15828, Note_off_c, 1, 64, 64
3, 15840, Note_on_c, 1, 61, 96
3, 15888, Note_off_c, 1, 61, 64
3, 15900, Note_on_c, 1, 62, 96
3, 15948, Note_off_c, 1, 62, 64
3, 15960, Note_on_c, 1, 59, 96
3, 16008, Note_off_c, 1, 59, 64
3, 16020, Note_on_c, 1, 61, 96
3, 16068, Note_off_c, 1, 61, 64
3, 16080, Note_on_c, 1, 62, 96
3, 16128, Note_off_c, 1, 62, 64
3, 16140, Note_on_c, 1, 64, 96
3, 16428, Note_off_c, 1, 64, 64
3, 16440, Note_on_c, 1, 62, 96
3, 16488, Note_off_c, 1, 62, 64
3, 16500, Note_on_c, 1, 61, 96
3, 16548, Note_off_c, 1, 61, 64
3, 16560, Note_on_c, 1, 59, 96
3, 16608, Note_off_c, 1, 59, 64
3, 16620, Note_on_c, 1, 59, 96
3, 16632, Note_off_c, 1, 59, 64
3, 16635, Note_on_c, 1, 58, 96
3, 16647, Note_off_c, 1, 58, 64
3, 16650, Note_on_c, 1, 59, 96
3, 16662, Note_off_c, 1, 59, 64
3, 16665, Note_on_c, 1, 58, 96
3, 16776, Note_off_c, 1, 58, 64
3, 16800, Note_on_c, 1, 58, 96
3, 16848, Note_off_c, 1, 58, 64
3, 16860, Note_on_c, 1, 59, 96
3, 17004, Note_off_c, 1, 59, 64
3, 17040, Note_on_c, 1, 67, 96
3, 17088, Note_off_c, 1, 67, 64
3, 17100, Note_on_c, 1, 57, 96
3, 17148, Note_off_c, 1, 57, 64
3, 17160, Note_on_c, 1, 67, 96
3, 17208, Note_off_c, 1, 67, 64
3, 17220, Note_on_c, 1, 57, 96
3, 17268, Note_off_c, 1, 57, 64
3, 17280, Note_on_c, 1, 66, 96
3, 17328, Note_off_c, 1, 66, 64
3, 17340, Note_on_c, 1, 55, 96
3, 17388, Note_off_c, 1, 55, 64
3, 17400, Note_on_c, 1, 54, 96
3, 17448, Note_off_c, 1, 54, 64
3, 17460, Note_on_c, 1, 55, 96
3, 17508, Note_off_c, 1, 55, 64
3, 17520, Note_on_c, 1, 64, 96
3, 17568, Note_off_c, 1, 64, 64
3, 17580, Note_on_c, 1, 54, 96
3, 17628, Note_off_c, 1, 54, 64
3, 17640, Note_on_c, 1, 64, 96
3, 17688, Note_off_c, 1, 64, 64
3, 17700, Note_on_c, 1, 54, 96
3, 17748, Note_off_c, 1, 54, 64
3, 17760, Note_on_c, 1, 62, 96
3, 17808, Note_off_c, 1, 62, 64
3, 17820, Note_on_c, 1, 52, 96
3, 17868, Note_off_c, 1, 52, 64
3, 17880, Note_on_c, 1, 50, 96
3, 17928, Note_off_c, 1, 50, 64
3, 17940, Note_on_c, 1, 52, 96
3, 17988, Note_off_c, 1, 52, 64
3, 18000, Note_on_c, 1, 61, 96
3, 18048, Note_off_c, 1, 61, 64
3, 18060, Note_on_c, 1, 50, 96
3, 18108, Note_off_c, 1, 50, 64
3, 18120, Note_on_c, 1, 61, 96
3, 18168, Note_off_c, 1, 61, 64
3, 18180, Note_on_c, 1, 50, 96
3, 18228, Note_off_c, 1, 50, 64
3, 18240, Note_on_c, 1, 59, 96
3, 18288, Note_off_c, 1, 59, 64
3, 18300, Note_on_c, 1, 49, 96
3, 18348, Note_off_c, 1, 49, 64
3, 18360, Note_on_c, 1, 47, 96
3, 18408, Note_off_c, 1, 47, 64
3, 18420, Note_on_c, 1, 49, 96
3, 18468, Note_off_c, 1, 49, 64
3, 18480, Note_on_c, 1, 59, 96
3, 18528, Note_off_c, 1, 59, 64
3, 18540, Note_on_c, 1, 58, 96
3, 18588, Note_off_c, 1, 58, 64
3, 18600, Note_on_c, 1, 56, 96
3, 18648, Note_off_c, 1, 56, 64
3, 18660, Note_on_c, 1, 58, 96
3, 18708, Note_off_c, 1, 58, 64
3, 18720, Note_on_c, 1, 61, 96
3, 18768, Note_off_c, 1, 61, 64
3, 18780, Note_on_c, 1, 52, 96
3, 18828, Note_off_c, 1, 52, 64
3, 18840, Note_on_c, 1, 50, 96
3, 18888, Note_off_c, 1, 50, 64
3, 18900, Note_on_c, 1, 52, 96
3, 18948, Note_off_c, 1, 52, 64
3, 18960, Note_on_c, 1, 59, 96
3, 19008, Note_off_c, 1, 59, 64
3, 19020, Note_on_c, 1, 58, 96
3, 19068, Note_off_c, 1, 58, 64
3, 19080, Note_on_c, 1, 56, 96
3, 19128, Note_off_c, 1, 56, 64
3, 19140, Note_on_c, 1, 58, 96
3, 19188, Note_off_c, 1, 58, 64
3, 19200, Note_on_c, 1, 61, 96
3, 19248, Note_off_c, 1, 61, 64
3, 19260, Note_on_c, 1, 55, 96
3, 19308, Note_off_c, 1, 55, 64
3, 19320, Note_on_c, 1, 54, 96
3, 19368, Note_off_c, 1, 54, 64
3, 19380, Note_on_c, 1, 55, 96
3, 19428, Note_off_c, 1, 55, 64
3, 19440, Note_on_c, 1, 59, 96
3, 19488, Note_off_c, 1, 59, 64
3, 19500, Note_on_c, 1, 58, 96
3, 19548, Note_off_c, 1, 58, 64
3, 19560, Note_on_c, 1, 56, 96
3, 19608, Note_off_c, 1, 56, 64
3, 19620, Note_on_c, 1, 58, 96
3, 19668, Note_off_c, 1, 58, 64
3, 19680, Note_on_c, 1, 61, 96
3, 19728, Note_off_c, 1, 61, 64
3, 19740, Note_on_c, 1, 54, 96
3, 19860, Note_on_c, 1, 58, 96
3, 19956, Note_off_c, 1, 58, 64
3, 19980, Note_on_c, 1, 59, 96
3, 20076, Note_off_c, 1, 59, 64
3, 20100, Note_on_c, 1, 62, 96
3, 20196, Note_off_c, 1, 62, 64
3, 20220, Note_on_c, 1, 59, 96
3, 20316, Note_off_c, 1, 59, 64
3, 20340, Note_on_c, 1, 56, 96
3, 20436, Note_off_c, 1, 56, 64
3, 20460, Note_on_c, 1, 66, 96
3, 20556, Note_off_c, 1, 66, 64
3, 20580, Note_on_c, 1, 65, 96
3, 20676, Note_off_c, 1, 65, 64
3, 20700, Note_on_c, 1, 66, 96
3, 20796, Note_off_c, 1, 66, 64
3, 20844, Note_off_c, 1, 54, 64
3, 20880, Note_on_c, 1, 52, 96
3, 20928, Note_off_c, 1, 52, 64
3, 20940, Note_on_c, 1, 50, 96
3, 20988, Note_off_c, 1, 50, 64
3, 21000, Note_on_c, 1, 49, 96
3, 21048, Note_off_c, 1, 49, 64
3, 21060, Note_on_c, 1, 47, 96
3, 21108, Note_off_c, 1, 47, 64
3, 21120, Note_on_c, 1, 45, 96
3, 21168, Note_off_c, 1, 45, 64
3, 21180, Note_on_c, 1, 43, 96
3, 21228, Note_off_c, 1, 43, 64
3, 21240, Note_on_c, 1, 54, 96
3, 21288, Note_off_c, 1, 54, 64
3, 21300, Note_on_c, 1, 52, 96
3, 21348, Note_off_c, 1, 52, 64
3, 21360, Note_on_c, 1, 59, 96
3, 21408, Note_off_c, 1, 59, 64
3, 21420, Note_on_c, 1, 59, 96
3, 21468, Note_off_c, 1, 59, 64
3, 21480, Note_on_c, 1, 58, 96
3, 21528, Note_off_c, 1, 58, 64
3, 21540, Note_on_c, 1, 59, 96
3, 21588, Note_off_c, 1, 59, 64
3, 21600, Note_on_c, 1, 56, 96
3, 21648, Note_off_c, 1, 56, 64
3, 21660, Note_on_c, 1, 58, 96
3, 21756, Note_off_c, 1, 58, 64
3, 21780, Note_on_c, 1, 59, 96
3, 21828, Note_off_c, 1, 59, 64
3, 21840, Note_on_c, 1, 52, 96
3, 21888, Note_off_c, 1, 52, 64
3, 21900, Note_on_c, 1, 54, 96
3, 21996, Note_off_c, 1, 54, 64
3, 22020, Note_on_c, 1, 42, 96
3, 22116, Note_off_c, 1, 42, 64
3, 22140, Note_on_c, 1, 47, 96
3, 22200, Note_on_c, 1, 49, 96
3, 22248, Note_off_c, 1, 49, 64
3, 22260, Note_on_c, 1, 51, 96
3, 22356, Note_off_c, 1, 51, 64
3, 22380, Note_on_c, 1, 52, 96
3, 22476, Note_off_c, 1, 52, 64
3, 22500, Note_on_c, 1, 54, 96
3, 22596, Note_off_c, 1, 54, 64
3, 22620, Note_on_c, 1, 55, 96
3, 22716, Note_off_c, 1, 55, 64
3, 22740, Note_on_c, 1, 52, 96
3, 22836, Note_off_c, 1, 52, 64
3, 22860, Note_on_c, 1, 54, 96
3, 22973, Note_off_c, 1, 54, 64
3, 23004, Note_off_c, 1, 47, 64
3, 23100, Note_on_c, 1, 47, 96
3, 23244, Note_off_c, 1, 47, 64
3, 23280, Note_on_c, 1, 49, 96
3, 23328, Note_off_c, 1, 49, 64
3, 23340, Note_on_c, 1, 51, 96
3, 23388, Note_off_c, 1, 51, 64
3, 23400, Note_on_c, 1, 52, 96
3, 23448, Note_off_c, 1, 52, 64
3, 23460, Note_on_c, 1, 54, 96
3, 23508, Note_off_c, 1, 54, 64
3, 23520, Note_on_c, 1, 55, 96
3, 23568, Note_off_c, 1, 55, 64
3, 23580, Note_on_c, 1, 57, 96
3, 23628, Note_off_c, 1, 57, 64
3, 23640, Note_on_c, 1, 51, 96
3, 23688, Note_off_c, 1, 51, 64
3, 23700, Note_on_c, 1, 54, 96
3, 23748, Note_off_c, 1, 54, 64
3, 23760, Note_on_c, 1, 57, 96
3, 23808, Note_off_c, 1, 57, 64
3, 23820, Note_on_c, 1, 60, 96
3, 23868, Note_off_c, 1, 60, 64
3, 23880, Note_on_c, 1, 59, 96
3, 23928, Note_off_c, 1, 59, 64
3, 23940, Note_on_c, 1, 64, 96
3, 23988, Note_off_c, 1, 64, 64
3, 24000, Note_on_c, 1, 63, 96
3, 24048, Note_off_c, 1, 63, 64
3, 24060, Note_on_c, 1, 64, 96
3, 24684, Note_off_c, 1, 64, 64
3, 24720, Note_on_c, 1, 64, 96
3, 24768, Note_off_c, 1, 64, 64
3, 24780, Note_on_c, 1, 59, 96
3, 24828, Note_off_c, 1, 59, 64
3, 24840, Note_on_c, 1, 60, 96
3, 24864, Note_off_c, 1, 60, 64
3, 24870, Note_on_c, 1, 62, 96
3, 24894, Note_off_c, 1, 62, 64
3, 24900, Note_on_c, 1, 60, 96
3, 24948, Note_off_c, 1, 60, 64
3, 24960, Note_on_c, 1, 59, 96
3, 25008, Note_off_c, 1, 59, 64
3, 25020, Note_on_c, 1, 60, 96
3, 25068, Note_off_c, 1, 60, 64
3, 25080, Note_on_c, 1, 59, 96
3, 25128, Note_off_c, 1, 59, 64
3, 25140, Note_on_c, 1, 57, 96
3, 25188, Note_off_c, 1, 57, 64
3, 25200, Note_on_c, 1, 45, 96
3, 25248, Note_off_c, 1, 45, 64
3, 25260, Note_on_c, 1, 57, 96
3, 25308, Note_off_c, 1, 57, 64
3, 25320, Note_on_c, 1, 47, 96
3, 25368, Note_off_c, 1, 47, 64
3, 25380, Note_on_c, 1, 57, 96
3, 25428, Note_off_c, 1, 57, 64
3, 25440, Note_on_c, 1, 49, 96
3, 25488, Note_off_c, 1, 49, 64
3, 25500, Note_on_c, 1, 58, 96
3, 25548, Note_off_c, 1, 58, 64
3, 25560, Note_on_c, 1, 60, 96
3, 25608, Note_off_c, 1, 60, 64
3, 25620, Note_on_c, 1, 58, 96
3, 25668, Note_off_c, 1, 58, 64
3, 25680, Note_on_c, 1, 49, 96
3, 25728, Note_off_c, 1, 49, 64
3, 25740, Note_on_c, 1, 58, 96
3, 25788, Note_off_c, 1, 58, 64
3, 25800, Note_on_c, 1, 50, 96
3, 25848, Note_off_c, 1, 50, 64
3, 25860, Note_on_c, 1, 61, 96
3, 25908, Note_off_c, 1, 61, 64
3, 25920, Note_on_c, 1, 52, 96
3, 25968, Note_off_c, 1, 52, 64
3, 25980, Note_on_c, 1, 62, 96
3, 26028, Note_off_c, 1, 62, 64
3, 26040, Note_on_c, 1, 64, 96
3, 26088, Note_off_c, 1, 64, 64
3, 26100, Note_on_c, 1, 62, 96
3, 26148, Note_off_c, 1, 62, 64
3, 26160, Note_on_c, 1, 52, 96
3, 26208, Note_off_c, 1, 52, 64
3, 26220, Note_on_c, 1, 62, 96
3, 26268, Note_off_c, 1, 62, 64
3, 26280, Note_on_c, 1, 54, 96
3, 26328, Note_off_c, 1, 54, 64
3, 26340, Note_on_c, 1, 62, 96
3, 26388, Note_off_c, 1, 62, 64
3, 26400, Note_on_c, 1, 56, 96
3, 26448, Note_off_c, 1, 56, 64
3, 26460, Note_on_c, 1, 57, 96
3, 26556, Note_off_c, 1, 57, 64
3, 26580, Note_on_c, 1, 50, 96
3, 26676, Note_off_c, 1, 50, 64
3, 26700, Note_on_c, 1, 52, 96
3, 26796, Note_off_c, 1, 52, 64
3, 26820, Note_on_c, 1, 40, 96
3, 26916, Note_off_c, 1, 40, 64
3, 26940, Note_on_c, 1, 45, 96
3, 26988, Note_off_c, 1, 45, 64
3, 27000, Note_on_c, 1, 52, 96
3, 27048, Note_off_c, 1, 52, 64
3, 27060, Note_on_c, 1, 57, 96
3, 27228, Note_off_c, 1, 57, 64
3, 27240, Note_on_c, 1, 57, 96
3, 27288, Note_off_c, 1, 57, 64
3, 27300, Note_on_c, 1, 55, 96
3, 27348, Note_off_c, 1, 55, 64
3, 27360, Note_on_c, 1, 54, 96
3, 27408, Note_off_c, 1, 54, 64
3, 27420, Note_on_c, 1, 52, 96
3, 27468, Note_off_c, 1, 52, 64
3, 27480, Note_on_c, 1, 55, 96
3, 27528, Note_off_c, 1, 55, 64
3, 27540, Note_on_c, 1, 52, 96
3, 27588, Note_off_c, 1, 52, 64
3, 27600, Note_on_c, 1, 49, 96
3, 27648, Note_off_c, 1, 49, 64
3, 27660, Note_on_c, 1, 45, 96
3, 27708, Note_off_c, 1, 45, 64
3, 27720, Note_on_c, 1, 49, 96
3, 27768, Note_off_c, 1, 49, 64
3, 27780, Note_on_c, 1, 47, 96
3, 27828, Note_off_c, 1, 47, 64
3, 27840, Note_on_c, 1, 45, 96
3, 27888, Note_off_c, 1, 45, 64
3, 27900, Note_on_c, 1, 50, 96
3, 28044, Note_off_c, 1, 50, 64
3, 28080, Note_on_c, 1, 52, 96
3, 28128, Note_off_c, 1, 52, 64
3, 28140, Note_on_c, 1, 54, 96
3, 28188, Note_off_c, 1, 54, 64
3, 28200, Note_on_c, 1, 55, 96
3, 28248, Note_off_c, 1, 55, 64
3, 28260, Note_on_c, 1, 57, 96
3, 28308, Note_off_c, 1, 57, 64
3, 28320, Note_on_c, 1, 59, 96
3, 28368, Note_off_c, 1, 59, 64
3, 28380, Note_on_c, 1, 60, 96
3, 28428, Note_off_c, 1, 60, 64
3, 28440, Note_on_c, 1, 54, 96
3, 28488, Note_off_c, 1, 54, 64
3, 28500, Note_on_c, 1, 57, 96
3, 28548, Note_off_c, 1, 57, 64
3, 28560, Note_on_c, 1, 60, 96
3, 28608, Note_off_c, 1, 60, 64
3, 28620, Note_on_c, 1, 64, 96
3, 28668, Note_off_c, 1, 64, 64
3, 28680, Note_on_c, 1, 62, 96
3, 28728, Note_off_c, 1, 62, 64
3, 28740, Note_on_c, 1, 67, 96
3, 28788, Note_off_c, 1, 67, 64
3, 28800, Note_on_c, 1, 66, 96
3, 28848, Note_off_c, 1, 66, 64
3, 28860, Note_on_c, 1, 67, 96
3, 29004, Note_off_c, 1, 67, 64
3, 29040, Note_on_c, 1, 66, 96
3, 29088, Note_off_c, 1, 66, 64
3, 29100, Note_on_c, 1, 64, 96
3, 29148, Note_off_c, 1, 64, 64
3, 29160, Note_on_c, 1, 62, 96
3, 29208, Note_off_c, 1, 62, 64
3, 29220, Note_on_c, 1, 60, 96
3, 29268, Note_off_c, 1, 60, 64
3, 29280, Note_on_c, 1, 59, 96
3, 29328, Note_off_c, 1, 59, 64
3, 29340, Note_on_c, 1, 57, 96
3, 29388, Note_off_c, 1, 57, 64
3, 29400, Note_on_c, 1, 59, 96
3, 29448, Note_off_c, 1, 59, 64
3, 29460, Note_on_c, 1, 60, 96
3, 29508, Note_off_c, 1, 60, 64
3, 29520, Note_on_c, 1, 59, 96
3, 29568, Note_off_c, 1, 59, 64
3, 29580, Note_on_c, 1, 57, 96
3, 29628, Note_off_c, 1, 57, 64
3, 29640, Note_on_c, 1, 55, 96
3, 29688, Note_off_c, 1, 55, 64
3, 29700, Note_on_c, 1, 54, 96
3, 29748, Note_off_c, 1, 54, 64
3, 29760, Note_on_c, 1, 52, 96
3, 29808, Note_off_c, 1, 52, 64
3, 29820, Note_on_c, 1, 59, 96
3, 29964, Note_off_c, 1, 59, 64
3, 30000, Note_on_c, 1, 60, 96
3, 30048, Note_off_c, 1, 60, 64
3, 30060, Note_on_c, 1, 59, 96
3, 30108, Note_off_c, 1, 59, 64
3, 30120, Note_on_c, 1, 57, 96
3, 30168, Note_off_c, 1, 57, 64
3, 30180, Note_on_c, 1, 59, 96
3, 30228, Note_off_c, 1, 59, 64
3, 30240, Note_on_c, 1, 60, 96
3, 30288, Note_off_c, 1, 60, 64
3, 30300, Note_on_c, 1, 54, 96
3, 30444, Note_off_c, 1, 54, 64
3, 30480, Note_on_c, 1, 55, 96
3, 30528, Note_off_c, 1, 55, 64
3, 30540, Note_on_c, 1, 54, 96
3, 30588, Note_off_c, 1, 54, 64
3, 30600, Note_on_c, 1, 52, 96
3, 30648, Note_off_c, 1, 52, 64
3, 30660, Note_on_c, 1, 54, 96
3, 30708, Note_off_c, 1, 54, 64
3, 30720, Note_on_c, 1, 57, 96
3, 30777, Note_off_c, 1, 57, 64
3, 30780, Note_on_c, 1, 51, 96
3, 30924, Note_off_c, 1, 51, 64
3, 30960, Note_on_c, 1, 52, 96
3, 31008, Note_off_c, 1, 52, 64
3, 31020, Note_on_c, 1, 54, 96
3, 31068, Note_off_c, 1, 54, 64
3, 31080, Note_on_c, 1, 55, 96
3, 31128, Note_off_c, 1, 55, 64
3, 31140, Note_on_c, 1, 54, 96
3, 31188, Note_off_c, 1, 54, 64
3, 31200, Note_on_c, 1, 55, 96
3, 31248, Note_off_c, 1, 55, 64
3, 31260, Note_on_c, 1, 57, 96
3, 31308, Note_off_c, 1, 57, 64
3, 31320, Note_on_c, 1, 60, 96
3, 31368, Note_off_c, 1, 60, 64
3, 31380, Note_on_c, 1, 59, 96
3, 31428, Note_off_c, 1, 59, 64
3, 31440, Note_on_c, 1, 57, 96
3, 31488, Note_off_c, 1, 57, 64
3, 31500, Note_on_c, 1, 55, 96
3, 31548, Note_off_c, 1, 55, 64
3, 31560, Note_on_c, 1, 54, 96
3, 31608, Note_off_c, 1, 54, 64
3, 31620, Note_on_c, 1, 52, 96
3, 31668, Note_off_c, 1, 52, 64
3, 31680, Note_on_c, 1, 50, 96
3, 31728, Note_off_c, 1, 50, 64
3, 31740, Note_on_c, 1, 49, 96
3, 31788, Note_off_c, 1, 49, 64
3, 31800, Note_on_c, 1, 59, 96
3, 31848, Note_off_c, 1, 59, 64
3, 31860, Note_on_c, 1, 58, 96
3, 31908, Note_off_c, 1, 58, 64
3, 31920, Note_on_c, 1, 64, 96
3, 31968, Note_off_c, 1, 64, 64
3, 31980, Note_on_c, 1, 64, 96
3, 32028, Note_off_c, 1, 64, 64
3, 32040, Note_on_c, 1, 63, 96
3, 32088, Note_off_c, 1, 63, 64
3, 32100, Note_on_c, 1, 64, 96
3, 32148, Note_off_c, 1, 64, 64
3, 32160, Note_on_c, 1, 61, 96
3, 32208, Note_off_c, 1, 61, 64
3, 32220, Note_on_c, 1, 63, 96
3, 32316, Note_off_c, 1, 63, 64
3, 32340, Note_on_c, 1, 59, 96
3, 32436, Note_off_c, 1, 59, 64
3, 32520, Note_on_c, 1, 64, 96
3, 32568, Note_off_c, 1, 64, 64
3, 32580, Note_on_c, 1, 66, 96
3, 32628, Note_off_c, 1, 66, 64
3, 32640, Note_on_c, 1, 67, 96
3, 32688, Note_off_c, 1, 67, 64
3, 32700, Note_on_c, 1, 69, 96
3, 32844, Note_off_c, 1, 69, 64
3, 32880, Note_on_c, 1, 67, 96
3, 32928, Note_off_c, 1, 67, 64
3, 32940, Note_on_c, 1, 66, 96
3, 32988, Note_off_c, 1, 66, 64
3, 33000, Note_on_c, 1, 59, 96
3, 33048, Note_off_c, 1, 59, 64
3, 33060, Note_on_c, 1, 61, 96
3, 33108, Note_off_c, 1, 61, 64
3, 33120, Note_on_c, 1, 63, 96
3, 33168, Note_off_c, 1, 63, 64
3, 33180, Note_on_c, 1, 64, 96
3, 33180, Note_on_c, 1, 64, 96
3, 33276, Note_off_c, 1, 64, 64
3, 33300, Note_on_c, 1, 57, 96
3, 33372, Note_off_c, 1, 64, 64
3, 33396, Note_off_c, 1, 57, 64
3, 33420, Note_on_c, 1, 59, 96
3, 33420, Note_on_c, 1, 59, 96
3, 33516, Note_off_c, 1, 59, 64
3, 33540, Note_on_c, 1, 47, 96
3, 33612, Note_off_c, 1, 59, 64
3, 33636, Note_off_c, 1, 47, 64
3, 33660, Note_on_c, 1, 52, 96
3, 33720, Note_on_c, 1, 54, 96
3, 33768, Note_off_c, 1, 54, 64
3, 33780, Note_on_c, 1, 56, 96
3, 33876, Note_off_c, 1, 56, 64
3, 33900, Note_on_c, 1, 57, 96
3, 33996, Note_off_c, 1, 57, 64
3, 34020, Note_on_c, 1, 59, 96
3, 34116, Note_off_c, 1, 59, 64
3, 34140, Note_on_c, 1, 60, 96
3, 34236, Note_off_c, 1, 60, 64
3, 34260, Note_on_c, 1, 57, 96
3, 34356, Note_off_c, 1, 57, 64
3, 34380, Note_on_c, 1, 59, 96
3, 34493, Note_off_c, 1, 59, 64
3, 34524, Note_off_c, 1, 52, 64
3, 34620, Note_on_c, 1, 47, 96
3, 34764, Note_off_c, 1, 47, 64
3, 34800, Note_on_c, 1, 49, 96
3, 34848, Note_off_c, 1, 49, 64
3, 34860, Note_on_c, 1, 51, 96
3, 34908, Note_off_c, 1, 51, 64
3, 34920, Note_on_c, 1, 52, 96
3, 34968, Note_off_c, 1, 52, 64
3, 34980, Note_on_c, 1, 54, 96
3, 35028, Note_off_c, 1, 54, 64
3, 35040, Note_on_c, 1, 55, 96
3, 35088, Note_off_c, 1, 55, 64
3, 35100, Note_on_c, 1, 57, 96
3, 35148, Note_off_c, 1, 57, 64
3, 35160, Note_on_c, 1, 51, 96
3, 35208, Note_off_c, 1, 51, 64
3, 35220, Note_on_c, 1, 54, 96
3, 35268, Note_off_c, 1, 54, 64
3, 35280, Note_on_c, 1, 57, 96
3, 35328, Note_off_c, 1, 57, 64
3, 35340, Note_on_c, 1, 60, 96
3, 35388, Note_off_c, 1, 60, 64
3, 35400, Note_on_c, 1, 59, 96
3, 35448, Note_off_c, 1, 59, 64
3, 35460, Note_on_c, 1, 64, 96
3, 35508, Note_off_c, 1, 64, 64
3, 35520, Note_on_c, 1, 63, 96
3, 35568, Note_off_c, 1, 63, 64
3, 35580, Note_on_c, 1, 64, 96
3, 36204, Note_off_c, 1, 64, 64
3, 36240, Note_on_c, 1, 64, 96
3, 36288, Note_off_c, 1, 64, 64
3, 36300, Note_on_c, 1, 59, 96
3, 36348, Note_off_c, 1, 59, 64
3, 36360, Note_on_c, 1, 60, 96
3, 36384, Note_off_c, 1, 60, 64
3, 36390, Note_on_c, 1, 62, 96
3, 36414, Note_off_c, 1, 62, 64
3, 36420, Note_on_c, 1, 60, 96
3, 36468, Note_off_c, 1, 60, 64
3, 36480, Note_on_c, 1, 59, 96
3, 36528, Note_off_c, 1, 59, 64
3, 36540, Note_on_c, 1, 60, 96
3, 36588, Note_off_c, 1, 60, 64
3, 36600, Note_on_c, 1, 59, 96
3, 36648, Note_off_c, 1, 59, 64
3, 36660, Note_on_c, 1, 57, 96
3, 36708, Note_off_c, 1, 57, 64
3, 36720, Note_on_c, 1, 45, 96
3, 36768, Note_off_c, 1, 45, 64
3, 36780, Note_on_c, 1, 57, 96
3, 36828, Note_off_c, 1, 57, 64
3, 36840, Note_on_c, 1, 47, 96
3, 36888, Note_off_c, 1, 47, 64
3, 36900, Note_on_c, 1, 57, 96
3, 36948, Note_off_c, 1, 57, 64
3, 36960, Note_on_c, 1, 49, 96
3, 37008, Note_off_c, 1, 49, 64
3, 37020, Note_on_c, 1, 58, 96
3, 37068, Note_off_c, 1, 58, 64
3, 37080, Note_on_c, 1, 60, 96
3, 37128, Note_off_c, 1, 60, 64
3, 37140, Note_on_c, 1, 58, 96
3, 37188, Note_off_c, 1, 58, 64
3, 37200, Note_on_c, 1, 49, 96
3, 37248, Note_off_c, 1, 49, 64
3, 37260, Note_on_c, 1, 58, 96
3, 37308, Note_off_c, 1, 58, 64
3, 37320, Note_on_c, 1, 50, 96
3, 37368, Note_off_c, 1, 50, 64
3, 37380, Note_on_c, 1, 61, 96
3, 37428, Note_off_c, 1, 61, 64
3, 37440, Note_on_c, 1, 52, 96
3, 37488, Note_off_c, 1, 52, 64
3, 37500, Note_on_c, 1, 62, 96
3, 37548, Note_off_c, 1, 62, 64
3, 37560, Note_on_c, 1, 64, 96
3, 37608, Note_off_c, 1, 64, 64
3, 37620, Note_on_c, 1, 62, 96
3, 37668, Note_off_c, 1, 62, 64
3, 37680, Note_on_c, 1, 52, 96
3, 37728, Note_off_c, 1, 52, 64
3, 37740, Note_on_c, 1, 62, 96
3, 37788, Note_off_c, 1, 62, 64
3, 37800, Note_on_c, 1, 54, 96
3, 37848, Note_off_c, 1, 54, 64
3, 37860, Note_on_c, 1, 62, 96
3, 37908, Note_off_c, 1, 62, 64
3, 37920, Note_on_c, 1, 56, 96
3, 37968, Note_off_c, 1, 56, 64
3, 37980, Note_on_c, 1, 57, 96
3, 38076, Note_off_c, 1, 57, 64
3, 38100, Note_on_c, 1, 50, 96
3, 38196, Note_off_c, 1, 50, 64
3, 38220, Note_on_c, 1, 52, 96
3, 38316, Note_off_c, 1, 52, 64
3, 38340, Note_on_c, 1, 40, 96
3, 38436, Note_off_c, 1, 40, 64
3, 38460, Note_on_c, 1, 45, 96
3, 38508, Note_off_c, 1, 45, 64
3, 38520, Note_on_c, 1, 52, 96
3, 38568, Note_off_c, 1, 52, 64
3, 38580, Note_on_c, 1, 57, 96
3, 38748, Note_off_c, 1, 57, 64
3, 38760, Note_on_c, 1, 57, 96
3, 38808, Note_off_c, 1, 57, 64
3, 38820, Note_on_c, 1, 55, 96
3, 38868, Note_off_c, 1, 55, 64
3, 38880, Note_on_c, 1, 54, 96
3, 38928, Note_off_c, 1, 54, 64
3, 38940, Note_on_c, 1, 52, 96
3, 38988, Note_off_c, 1, 52, 64
3, 39000, Note_on_c, 1, 55, 96
3, 39048, Note_off_c, 1, 55, 64
3, 39060, Note_on_c, 1, 52, 96
3, 39108, Note_off_c, 1, 52, 64
3, 39120, Note_on_c, 1, 49, 96
3, 39168, Note_off_c, 1, 49, 64
3, 39180, Note_on_c, 1, 45, 96
3, 39228, Note_off_c, 1, 45, 64
3, 39240, Note_on_c, 1, 49, 96
3, 39288, Note_off_c, 1, 49, 64
3, 39300, Note_on_c, 1, 47, 96
3, 39348, Note_off_c, 1, 47, 64
3, 39360, Note_on_c, 1, 45, 96
3, 39408, Note_off_c, 1, 45, 64
3, 39420, Note_on_c, 1, 50, 96
3, 39564, Note_off_c, 1, 50, 64
3, 39600, Note_on_c, 1, 52, 96
3, 39648, Note_off_c, 1, 52, 64
3, 39660, Note_on_c, 1, 54, 96
3, 39708, Note_off_c, 1, 54, 64
3, 39720, Note_on_c, 1, 55, 96
3, 39768, Note_off_c, 1, 55, 64
3, 39780, Note_on_c, 1, 57, 96
3, 39828, Note_off_c, 1, 57, 64
3, 39840, Note_on_c, 1, 59, 96
3, 39888, Note_off_c, 1, 59, 64
3, 39900, Note_on_c, 1, 60, 96
3, 39948, Note_off_c, 1, 60, 64
3, 39960, Note_on_c, 1, 54, 96
3, 40008, Note_off_c, 1, 54, 64
3, 40020, Note_on_c, 1, 57, 96
3, 40068, Note_off_c, 1, 57, 64
3, 40080, Note_on_c, 1, 60, 96
3, 40128, Note_off_c, 1, 60, 64
3, 40140, Note_on_c, 1, 64, 96
3, 40188, Note_off_c, 1, 64, 64
3, 40200, Note_on_c, 1, 62, 96
3, 40248, Note_off_c, 1, 62, 64
3, 40260, Note_on_c, 1, 67, 96
3, 40308, Note_off_c, 1, 67, 64
3, 40320, Note_on_c, 1, 66, 96
3, 40368, Note_off_c, 1, 66, 64
3, 40380, Note_on_c, 1, 67, 96
3, 40524, Note_off_c, 1, 67, 64
3, 40560, Note_on_c, 1, 66, 96
3, 40608, Note_off_c, 1, 66, 64
3, 40620, Note_on_c, 1, 64, 96
3, 40668, Note_off_c, 1, 64, 64
3, 40680, Note_on_c, 1, 62, 96
3, 40728, Note_off_c, 1, 62, 64
3, 40740, Note_on_c, 1, 60, 96
3, 40788, Note_off_c, 1, 60, 64
3, 40800, Note_on_c, 1, 59, 96
3, 40848, Note_off_c, 1, 59, 64
3, 40860, Note_on_c, 1, 57, 96
3, 40908, Note_off_c, 1, 57, 64
3, 40920, Note_on_c, 1, 59, 96
3, 40968, Note_off_c, 1, 59, 64
3, 40980, Note_on_c, 1, 60, 96
3, 41028, Note_off_c, 1, 60, 64
3, 41040, Note_on_c, 1, 59, 96
3, 41088, Note_off_c, 1, 59, 64
3, 41100, Note_on_c, 1, 57, 96
3, 41148, Note_off_c, 1, 57, 64
3, 41160, Note_on_c, 1, 55, 96
3, 41208, Note_off_c, 1, 55, 64
3, 41220, Note_on_c, 1, 54, 96
3, 41268, Note_off_c, 1, 54, 64
3, 41280, Note_on_c, 1, 52, 96
3, 41328, Note_off_c, 1, 52, 64
3, 41340, Note_on_c, 1, 59, 96
3, 41484, Note_off_c, 1, 59, 64
3, 41520, Note_on_c, 1, 60, 96
3, 41568, Note_off_c, 1, 60, 64
3, 41580, Note_on_c, 1, 59, 96
3, 41628, Note_off_c, 1, 59, 64
3, 41640, Note_on_c, 1, 57, 96
3, 41688, Note_off_c, 1, 57, 64
3, 41700, Note_on_c, 1, 59, 96
3, 41748, Note_off_c, 1, 59, 64
3, 41760, Note_on_c, 1, 60, 96
3, 41808, Note_off_c, 1, 60, 64
3, 41820, Note_on_c, 1, 54, 96
3, 41964, Note_off_c, 1, 54, 64
3, 42000, Note_on_c, 1, 55, 96
3, 42048, Note_off_c, 1, 55, 64
3, 42060, Note_on_c, 1, 54, 96
3, 42108, Note_off_c, 1, 54, 64
3, 42120, Note_on_c, 1, 52, 96
3, 42168, Note_off_c, 1, 52, 64
3, 42180, Note_on_c, 1, 54, 96
3, 42228, Note_off_c, 1, 54, 64
3, 42240, Note_on_c, 1, 57, 96
3, 42297, Note_off_c, 1, 57, 64
3, 42300, Note_on_c, 1, 51, 96
3, 42444, Note_off_c, 1, 51, 64
3, 42480, Note_on_c, 1, 52, 96
3, 42528, Note_off_c, 1, 52, 64
3, 42540, Note_on_c, 1, 54, 96
3, 42588, Note_off_c, 1, 54, 64
3, 42600, Note_on_c, 1, 55, 96
3, 42648, Note_off_c, 1, 55, 64
3, 42660, Note_on_c, 1, 54, 96
3, 42708, Note_off_c, 1, 54, 64
3, 42720, Note_on_c, 1, 55, 96
3, 42768, Note_off_c, 1, 55, 64
3, 42780, Note_on_c, 1, 57, 96
3, 42828, Note_off_c, 1, 57, 64
3, 42840, Note_on_c, 1, 60, 96
3, 42888, Note_off_c, 1, 60, 64
3, 42900, Note_on_c, 1, 59, 96
3, 42948, Note_off_c, 1, 59, 64
3, 42960, Note_on_c, 1, 57, 96
3, 43008, Note_off_c, 1, 57, 64
3, 43020, Note_on_c, 1, 55, 96
3, 43068, Note_off_c, 1, 55, 64
3, 43080, Note_on_c, 1, 54, 96
3, 43128, Note_off_c, 1, 54, 64
3, 43140, Note_on_c, 1, 52, 96
3, 43188, Note_off_c, 1, 52, 64
3, 43200, Note_on_c, 1, 50, 96
3, 43248, Note_off_c, 1, 50, 64
3, 43260, Note_on_c, 1, 49, 96
3, 43308, Note_off_c, 1, 49, 64
3, 43320, Note_on_c, 1, 59, 96
3, 43368, Note_off_c, 1, 59, 64
3, 43380, Note_on_c, 1, 58, 96
3, 43428, Note_off_c, 1, 58, 64
3, 43440, Note_on_c, 1, 64, 96
3, 43488, Note_off_c, 1, 64, 64
3, 43500, Note_on_c, 1, 64, 96
3, 43548, Note_off_c, 1, 64, 64
3, 43560, Note_on_c, 1, 63, 96
3, 43608, Note_off_c, 1, 63, 64
3, 43620, Note_on_c, 1, 64, 96
3, 43668, Note_off_c, 1, 64, 64
3, 43680, Note_on_c, 1, 61, 96
3, 43728, Note_off_c, 1, 61, 64
3, 43740, Note_on_c, 1, 63, 96
3, 43836, Note_off_c, 1, 63, 64
3, 43860, Note_on_c, 1, 59, 96
3, 43956, Note_off_c, 1, 59, 64
3, 44040, Note_on_c, 1, 64, 96
3, 44088, Note_off_c, 1, 64, 64
3, 44100, Note_on_c, 1, 66, 96
3, 44148, Note_off_c, 1, 66, 64
3, 44160, Note_on_c, 1, 67, 96
3, 44208, Note_off_c, 1, 67, 64
3, 44220, Note_on_c, 1, 69, 96
3, 44364, Note_off_c, 1, 69, 64
3, 44400, Note_on_c, 1, 67, 96
3, 44448, Note_off_c, 1, 67, 64
3, 44460, Note_on_c, 1, 66, 96
3, 44508, Note_off_c, 1, 66, 64
3, 44520, Note_on_c, 1, 59, 96
3, 44568, Note_off_c, 1, 59, 64
3, 44580, Note_on_c, 1, 61, 96
3, 44628, Note_off_c, 1, 61, 64
3, 44640, Note_on_c, 1, 63, 96
3, 44688, Note_off_c, 1, 63, 64
3, 44700, Note_on_c, 1, 64, 96
3, 44700, Note_on_c, 1, 64, 96
3, 44796, Note_off_c, 1, 64, 64
3, 44820, Note_on_c, 1, 57, 96
3, 44892, Note_off_c, 1, 64, 64
3, 44916, Note_off_c, 1, 57, 64
3, 44940, Note_on_c, 1, 59, 96
3, 44940, Note_on_c, 1, 59, 96
3, 45036, Note_off_c, 1, 59, 64
3, 45060, Note_on_c, 1, 47, 96
3, 45132, Note_off_c, 1, 59, 64
3, 45156, Note_off_c, 1, 47, 64
3, 45180, Note_on_c, 1, 52, 96
3, 45240, Note_on_c, 1, 54, 96
3, 45288, Note_off_c, 1, 54, 64
3, 45300, Note_on_c, 1, 56, 96
3, 45396, Note_off_c, 1, 56, 64
3, 45420, Note_on_c, 1, 57, 96
3, 45516, Note_off_c, 1, 57, 64
3, 45540, Note_on_c, 1, 59, 96
3, 45636, Note_off_c, 1, 59, 64
3, 45660, Note_on_c, 1, 60, 96
3, 45756, Note_off_c, 1, 60, 64
3, 45780, Note_on_c, 1, 57, 96
3, 45876, Note_off_c, 1, 57, 64
3, 45900, Note_on_c, 1, 59, 96
3, 46013, Note_off_c, 1, 59, 64
3, 46044, Note_off_c, 1, 52, 64
3, 46044, End_track
4, 0, Start_track
4, 0, Title_t, "Arr. Gary Bricault, (c) 1997"
4, 0, End_track
0, 0, End_of_file
