0, 0, Header, 1, 3, 384
1, 0, Start_track
1, 0, Time_signature, 4, 2, 24, 8
1, 0, Tempo, 500000
1, 228864, End_track
2, 0, Start_track
2, 0, Text_t, "harpsichord: John Sankey"
2, 0, Program_c, 0, 6
2, 0, Pitch_bend_c, 0, 8192
2, 0, Program_c, 1, 6
2, 0, Pitch_bend_c, 1, 7792
2, 0, Program_c, 2, 6
2, 0, Pitch_bend_c, 2, 7876
2, 0, Program_c, 3, 6
2, 0, Pitch_bend_c, 3, 7952
2, 0, Program_c, 4, 6
2, 0, Pitch_bend_c, 4, 7792
2, 0, Program_c, 5, 6
2, 0, Pitch_bend_c, 5, 8112
2, 0, Program_c, 6, 6
2, 0, Pitch_bend_c, 6, 7712
2, 0, Program_c, 7, 6
2, 0, Pitch_bend_c, 7, 8037
2, 0, Program_c, 8, 6
2, 0, Pitch_bend_c, 8, 7872
2, 0, Program_c, 10, 6
2, 0, Pitch_bend_c, 10, 7712
2, 0, Program_c, 11, 6
2, 0, Pitch_bend_c, 11, 8032
2, 0, Program_c, 12, 6
2, 0, Pitch_bend_c, 12, 7872
2, 0, Title_t, "Track 1"
2, 58, Note_on_c, 5, 41, 127
2, 213, Note_on_c, 4, 76, 127
2, 367, Note_off_c, 4, 76, 127
2, 369, Note_on_c, 5, 77, 127
2, 523, Note_off_c, 5, 77, 127
2, 525, Note_on_c, 7, 79, 127
2, 679, Note_off_c, 7, 79, 127
2, 680, Note_on_c, 5, 53, 127
2, 680, Note_on_c, 5, 77, 127
2, 834, Note_off_c, 5, 77, 127
2, 837, Note_on_c, 4, 76, 127
2, 990, Note_off_c, 5, 41, 127
2, 991, Note_off_c, 4, 76, 127
2, 992, Note_on_c, 2, 74, 127
2, 1146, Note_off_c, 2, 74, 127
2, 1149, Note_on_c, 0, 72, 127
2, 1303, Note_off_c, 0, 72, 127
2, 1304, Note_on_c, 10, 57, 127
2, 1304, Note_on_c, 2, 74, 127
2, 1458, Note_off_c, 2, 74, 127
2, 1460, Note_on_c, 0, 72, 127
2, 1614, Note_off_c, 0, 72, 127
2, 1616, Note_on_c, 11, 70, 127
2, 1770, Note_off_c, 11, 70, 127
2, 1771, Note_on_c, 10, 69, 127
2, 1925, Note_off_c, 10, 69, 127
2, 1925, Note_off_c, 10, 57, 127
2, 1928, Note_on_c, 2, 62, 127
2, 1928, Note_on_c, 11, 70, 127
2, 2083, Note_on_c, 10, 69, 127
2, 2237, Note_off_c, 10, 69, 127
2, 2240, Note_on_c, 7, 67, 127
2, 2394, Note_off_c, 7, 67, 127
2, 2395, Note_on_c, 5, 65, 127
2, 2549, Note_off_c, 5, 65, 127
2, 2549, Note_off_c, 2, 62, 127
2, 2550, Note_on_c, 11, 58, 127
2, 2550, Note_on_c, 7, 67, 127
2, 2707, Note_on_c, 5, 65, 127
2, 2861, Note_off_c, 5, 65, 127
2, 2862, Note_on_c, 4, 64, 127
2, 3016, Note_off_c, 4, 64, 127
2, 3019, Note_on_c, 2, 62, 127
2, 3171, Note_off_c, 11, 58, 127
2, 3173, Note_off_c, 2, 62, 127
2, 3174, Note_on_c, 7, 55, 127
2, 3174, Note_on_c, 4, 64, 127
2, 3328, Note_off_c, 7, 55, 127
2, 3330, Note_on_c, 11, 58, 127
2, 3484, Note_off_c, 11, 58, 127
2, 3486, Note_on_c, 0, 60, 127
2, 3640, Note_off_c, 0, 60, 127
2, 3641, Note_on_c, 2, 62, 127
2, 3795, Note_off_c, 2, 62, 127
2, 3798, Note_on_c, 0, 60, 127
2, 3952, Note_off_c, 0, 60, 127
2, 3953, Note_on_c, 11, 58, 127
2, 4107, Note_off_c, 11, 58, 127
2, 4110, Note_on_c, 10, 57, 127
2, 4259, Note_off_c, 5, 53, 127
2, 4264, Note_off_c, 10, 57, 127
2, 4265, Note_on_c, 7, 55, 127
2, 4416, Note_off_c, 7, 67, 127
2, 4417, Note_off_c, 11, 70, 127
2, 4419, Note_off_c, 7, 55, 127
2, 4419, Note_off_c, 4, 64, 127
2, 4421, Note_on_c, 10, 57, 127
2, 4421, Note_on_c, 0, 60, 127
2, 4499, Note_on_c, 5, 65, 127
2, 4577, Note_on_c, 7, 55, 127
2, 4577, Note_on_c, 10, 69, 127
2, 4731, Note_off_c, 7, 55, 127
2, 4732, Note_on_c, 5, 53, 127
2, 4886, Note_off_c, 5, 53, 127
2, 4889, Note_on_c, 4, 52, 127
2, 5042, Note_off_c, 5, 65, 127
2, 5042, Note_off_c, 0, 60, 127
2, 5042, Note_off_c, 10, 57, 127
2, 5043, Note_off_c, 4, 52, 127
2, 5043, Note_off_c, 10, 69, 127
2, 5044, Note_on_c, 5, 53, 127
2, 5044, Note_on_c, 5, 65, 127
2, 5044, Note_on_c, 2, 62, 127
2, 5044, Note_on_c, 8, 68, 127
2, 5200, Note_on_c, 2, 50, 127
2, 5354, Note_off_c, 2, 50, 127
2, 5356, Note_on_c, 0, 48, 127
2, 5510, Note_off_c, 0, 48, 127
2, 5512, Note_on_c, 12, 47, 127
2, 5665, Note_off_c, 2, 62, 127
2, 5666, Note_off_c, 12, 47, 127
2, 5668, Note_on_c, 0, 48, 127
2, 5668, Note_on_c, 0, 60, 127
2, 5822, Note_off_c, 8, 68, 127
2, 5822, Note_off_c, 5, 65, 127
2, 5823, Note_off_c, 5, 53, 127
2, 5823, Note_on_c, 5, 53, 127
2, 5823, Note_on_c, 8, 68, 127
2, 5976, Note_off_c, 0, 60, 127
2, 5977, Note_off_c, 8, 68, 127
2, 5977, Note_off_c, 5, 53, 127
2, 5980, Note_on_c, 4, 52, 127
2, 5980, Note_on_c, 7, 67, 127
2, 6134, Note_off_c, 7, 67, 127
2, 6134, Note_off_c, 4, 52, 127
2, 6135, Note_on_c, 2, 50, 127
2, 6135, Note_on_c, 5, 65, 127
2, 6289, Note_off_c, 5, 65, 127
2, 6289, Note_off_c, 2, 50, 127
2, 6291, Note_on_c, 4, 52, 127
2, 6291, Note_on_c, 7, 67, 127
2, 6447, Note_on_c, 5, 65, 127
2, 6601, Note_off_c, 5, 65, 127
2, 6601, Note_off_c, 4, 52, 127
2, 6603, Note_on_c, 7, 55, 127
2, 6603, Note_on_c, 4, 64, 127
2, 6757, Note_off_c, 4, 64, 127
2, 6759, Note_on_c, 2, 62, 127
2, 6913, Note_off_c, 2, 62, 127
2, 6913, Note_off_c, 7, 55, 127
2, 6914, Note_on_c, 0, 60, 127
2, 6914, Note_on_c, 4, 64, 127
2, 7070, Note_on_c, 2, 50, 127
2, 7071, Note_off_c, 0, 48, 127
2, 7222, Note_off_c, 0, 60, 127
2, 7224, Note_off_c, 2, 50, 127
2, 7226, Note_on_c, 7, 55, 127
2, 7226, Note_on_c, 0, 48, 127
2, 7380, Note_off_c, 0, 48, 127
2, 7382, Note_on_c, 11, 46, 127
2, 7532, Note_off_c, 7, 67, 127
2, 7535, Note_off_c, 4, 64, 127
2, 7536, Note_off_c, 11, 46, 127
2, 7538, Note_on_c, 10, 45, 127
2, 7694, Note_on_c, 0, 60, 127
2, 7745, Note_off_c, 7, 55, 127
2, 7848, Note_off_c, 0, 60, 127
2, 7850, Note_on_c, 7, 55, 127
2, 7850, Note_on_c, 2, 62, 127
2, 8004, Note_off_c, 2, 62, 127
2, 8005, Note_on_c, 3, 63, 127
2, 8159, Note_off_c, 3, 63, 127
2, 8159, Note_off_c, 10, 45, 127
2, 8160, Note_off_c, 7, 55, 127
2, 8161, Note_on_c, 6, 54, 127
2, 8161, Note_on_c, 2, 50, 127
2, 8161, Note_on_c, 2, 62, 127
2, 8317, Note_on_c, 4, 64, 127
2, 8471, Note_off_c, 4, 64, 127
2, 8471, Note_off_c, 6, 54, 127
2, 8473, Note_on_c, 11, 58, 127
2, 8473, Note_on_c, 6, 66, 127
2, 8627, Note_off_c, 6, 66, 127
2, 8629, Note_on_c, 7, 67, 127
2, 8783, Note_off_c, 7, 67, 127
2, 8783, Note_off_c, 11, 58, 127
2, 8785, Note_on_c, 10, 57, 127
2, 8785, Note_on_c, 6, 66, 127
2, 8940, Note_on_c, 10, 69, 127
2, 9094, Note_off_c, 10, 69, 127
2, 9096, Note_on_c, 11, 70, 127
2, 9250, Note_off_c, 11, 70, 127
2, 9252, Note_on_c, 0, 72, 127
2, 9402, Note_off_c, 2, 50, 127
2, 9408, Note_on_c, 7, 43, 127
2, 9434, Note_off_c, 10, 57, 127
2, 9564, Note_off_c, 6, 66, 127
2, 9564, Note_on_c, 10, 69, 127
2, 9718, Note_off_c, 10, 69, 127
2, 9720, Note_on_c, 2, 50, 127
2, 9720, Note_on_c, 7, 67, 127
2, 9874, Note_off_c, 7, 67, 127
2, 9876, Note_on_c, 6, 66, 127
2, 10027, Note_off_c, 2, 62, 127
2, 10029, Note_off_c, 7, 43, 127
2, 10030, Note_off_c, 6, 66, 127
2, 10031, Note_on_c, 11, 46, 127
2, 10031, Note_on_c, 7, 67, 127
2, 10185, Note_off_c, 0, 72, 127
2, 10187, Note_on_c, 10, 69, 127
2, 10341, Note_off_c, 10, 69, 127
2, 10341, Note_off_c, 2, 50, 127
2, 10343, Note_on_c, 7, 55, 127
2, 10343, Note_on_c, 11, 70, 127
2, 10497, Note_off_c, 7, 67, 127
2, 10499, Note_on_c, 7, 67, 127
2, 10652, Note_off_c, 11, 46, 127
2, 10653, Note_off_c, 7, 67, 127
2, 10655, Note_on_c, 7, 43, 127
2, 10655, Note_on_c, 2, 62, 127
2, 10809, Note_off_c, 2, 62, 127
2, 10810, Note_on_c, 5, 65, 127
2, 10964, Note_off_c, 5, 65, 127
2, 10964, Note_off_c, 7, 55, 127
2, 10967, Note_on_c, 7, 55, 127
2, 10967, Note_on_c, 4, 64, 127
2, 11121, Note_off_c, 4, 64, 127
2, 11122, Note_on_c, 2, 62, 127
2, 11276, Note_off_c, 2, 62, 127
2, 11276, Note_off_c, 7, 43, 127
2, 11278, Note_on_c, 0, 48, 127
2, 11278, Note_on_c, 4, 64, 127
2, 11433, Note_off_c, 7, 55, 127
2, 11434, Note_on_c, 11, 58, 127
2, 11588, Note_off_c, 11, 58, 127
2, 11590, Note_on_c, 0, 60, 127
2, 11744, Note_off_c, 0, 60, 127
2, 11746, Note_on_c, 1, 61, 127
2, 11899, Note_off_c, 4, 64, 127
2, 11899, Note_off_c, 0, 48, 127
2, 11900, Note_off_c, 1, 61, 127
2, 11901, Note_on_c, 4, 52, 127
2, 11901, Note_on_c, 0, 60, 127
2, 12058, Note_on_c, 2, 62, 127
2, 12212, Note_off_c, 2, 62, 127
2, 12213, Note_on_c, 4, 64, 127
2, 12367, Note_off_c, 4, 64, 127
2, 12369, Note_on_c, 5, 65, 127
2, 12522, Note_off_c, 4, 52, 127
2, 12523, Note_off_c, 5, 65, 127
2, 12525, Note_on_c, 0, 48, 127
2, 12525, Note_on_c, 4, 64, 127
2, 12680, Note_off_c, 11, 70, 127
2, 12680, Note_on_c, 7, 67, 127
2, 12834, Note_off_c, 7, 67, 127
2, 12837, Note_on_c, 10, 69, 127
2, 12991, Note_off_c, 10, 69, 127
2, 12992, Note_on_c, 11, 70, 127
2, 13146, Note_off_c, 0, 48, 127
2, 13149, Note_on_c, 5, 53, 127
2, 13165, Note_off_c, 4, 64, 127
2, 13304, Note_on_c, 7, 67, 127
2, 13458, Note_off_c, 7, 67, 127
2, 13460, Note_on_c, 5, 65, 127
2, 13614, Note_off_c, 5, 65, 127
2, 13616, Note_on_c, 4, 64, 127
2, 13770, Note_off_c, 4, 64, 127
2, 13770, Note_off_c, 5, 53, 127
2, 13771, Note_on_c, 10, 57, 127
2, 13771, Note_on_c, 5, 65, 127
2, 13924, Note_off_c, 11, 70, 127
2, 13928, Note_on_c, 7, 67, 127
2, 14082, Note_off_c, 7, 67, 127
2, 14083, Note_on_c, 10, 69, 127
2, 14237, Note_off_c, 5, 65, 127
2, 14240, Note_on_c, 5, 65, 127
2, 14384, Note_off_c, 0, 60, 127
2, 14392, Note_off_c, 10, 57, 127
2, 14395, Note_on_c, 5, 53, 127
2, 14395, Note_on_c, 0, 60, 127
2, 14550, Note_on_c, 3, 63, 127
2, 14622, Note_off_c, 0, 60, 127
2, 14704, Note_off_c, 3, 63, 127
2, 14707, Note_on_c, 2, 62, 127
2, 14861, Note_off_c, 2, 62, 127
2, 14862, Note_on_c, 0, 60, 127
2, 15016, Note_off_c, 0, 60, 127
2, 15016, Note_off_c, 5, 53, 127
2, 15019, Note_on_c, 11, 58, 127
2, 15019, Note_on_c, 2, 62, 127
2, 15170, Note_off_c, 10, 69, 127
2, 15173, Note_off_c, 5, 65, 127
2, 15174, Note_on_c, 0, 72, 127
2, 15328, Note_off_c, 0, 72, 127
2, 15329, Note_off_c, 11, 58, 127
2, 15330, Note_on_c, 10, 57, 127
2, 15330, Note_on_c, 2, 74, 127
2, 15484, Note_off_c, 2, 74, 127
2, 15486, Note_on_c, 3, 75, 127
2, 15640, Note_off_c, 3, 75, 127
2, 15640, Note_off_c, 10, 57, 127
2, 15640, Note_off_c, 2, 62, 127
2, 15641, Note_on_c, 11, 58, 127
2, 15641, Note_on_c, 2, 74, 127
2, 15798, Note_on_c, 0, 72, 127
2, 15952, Note_off_c, 0, 72, 127
2, 15953, Note_on_c, 2, 62, 127
2, 15953, Note_on_c, 7, 67, 127
2, 15953, Note_on_c, 11, 70, 127
2, 16107, Note_off_c, 11, 70, 127
2, 16110, Note_on_c, 10, 69, 127
2, 16264, Note_off_c, 10, 69, 127
2, 16265, Note_on_c, 11, 70, 127
2, 16419, Note_off_c, 7, 67, 127
2, 16421, Note_on_c, 10, 69, 127
2, 16575, Note_off_c, 10, 69, 127
2, 16577, Note_on_c, 7, 67, 127
2, 16731, Note_off_c, 7, 67, 127
2, 16732, Note_on_c, 5, 65, 127
2, 16881, Note_off_c, 11, 70, 127
2, 16885, Note_off_c, 2, 62, 127
2, 16886, Note_off_c, 5, 65, 127
2, 16889, Note_on_c, 0, 60, 127
2, 16889, Note_on_c, 7, 67, 127
2, 16939, Note_off_c, 2, 74, 127
2, 16967, Note_on_c, 0, 72, 127
2, 17035, Note_off_c, 11, 58, 127
2, 17044, Note_on_c, 11, 58, 127
2, 17044, Note_on_c, 4, 76, 127
2, 17197, Note_off_c, 0, 60, 127
2, 17198, Note_off_c, 11, 58, 127
2, 17200, Note_on_c, 0, 60, 127
2, 17354, Note_off_c, 0, 60, 127
2, 17356, Note_on_c, 2, 62, 127
2, 17510, Note_off_c, 2, 62, 127
2, 17512, Note_on_c, 0, 60, 127
2, 17666, Note_off_c, 0, 60, 127
2, 17668, Note_on_c, 11, 58, 127
2, 17822, Note_off_c, 11, 58, 127
2, 17823, Note_on_c, 10, 57, 127
2, 17977, Note_off_c, 10, 57, 127
2, 17980, Note_on_c, 7, 55, 127
2, 18130, Note_off_c, 7, 67, 127
2, 18134, Note_off_c, 7, 55, 127
2, 18134, Note_off_c, 4, 76, 127
2, 18135, Note_on_c, 10, 57, 127
2, 18135, Note_on_c, 5, 77, 127
2, 18136, Note_on_c, 5, 65, 127
2, 18289, Note_off_c, 10, 57, 127
2, 18291, Note_on_c, 7, 55, 127
2, 18445, Note_off_c, 7, 55, 127
2, 18447, Note_on_c, 5, 53, 127
2, 18601, Note_off_c, 5, 53, 127
2, 18603, Note_on_c, 4, 52, 127
2, 18752, Note_off_c, 0, 72, 127
2, 18757, Note_off_c, 4, 52, 127
2, 18757, Note_off_c, 5, 65, 127
2, 18759, Note_on_c, 2, 50, 127
2, 18913, Note_off_c, 5, 77, 127
2, 18914, Note_on_c, 4, 76, 127
2, 19068, Note_off_c, 4, 76, 127
2, 19070, Note_on_c, 10, 57, 127
2, 19070, Note_on_c, 5, 77, 127
2, 19224, Note_off_c, 5, 77, 127
2, 19226, Note_on_c, 7, 79, 127
2, 19380, Note_off_c, 7, 79, 127
2, 19382, Note_on_c, 2, 62, 127
2, 19382, Note_on_c, 5, 77, 127
2, 19536, Note_off_c, 5, 77, 127
2, 19538, Note_on_c, 4, 76, 127
2, 19691, Note_off_c, 2, 50, 127
2, 19692, Note_off_c, 4, 76, 127
2, 19694, Note_on_c, 4, 52, 127
2, 19694, Note_on_c, 2, 74, 127
2, 19848, Note_off_c, 2, 74, 127
2, 19850, Note_on_c, 0, 72, 127
2, 20004, Note_off_c, 0, 72, 127
2, 20004, Note_off_c, 4, 52, 127
2, 20005, Note_on_c, 5, 53, 127
2, 20005, Note_on_c, 2, 74, 127
2, 20159, Note_off_c, 2, 74, 127
2, 20161, Note_on_c, 0, 72, 127
2, 20315, Note_off_c, 0, 72, 127
2, 20317, Note_on_c, 12, 71, 127
2, 20471, Note_off_c, 12, 71, 127
2, 20473, Note_on_c, 10, 69, 127
2, 20627, Note_off_c, 10, 69, 127
2, 20628, Note_off_c, 10, 57, 127
2, 20629, Note_on_c, 7, 55, 127
2, 20629, Note_on_c, 12, 71, 127
2, 20785, Note_on_c, 10, 69, 127
2, 20939, Note_off_c, 10, 69, 127
2, 20940, Note_on_c, 7, 67, 127
2, 21094, Note_off_c, 7, 67, 127
2, 21096, Note_on_c, 5, 65, 127
2, 21250, Note_off_c, 5, 65, 127
2, 21252, Note_on_c, 7, 67, 127
2, 21402, Note_off_c, 2, 62, 127
2, 21408, Note_on_c, 5, 65, 127
2, 21562, Note_off_c, 5, 65, 127
2, 21564, Note_on_c, 4, 64, 127
2, 21718, Note_off_c, 4, 64, 127
2, 21720, Note_on_c, 2, 62, 127
2, 21870, Note_off_c, 7, 55, 127
2, 21871, Note_off_c, 5, 53, 127
2, 21874, Note_off_c, 2, 62, 127
2, 21876, Note_on_c, 4, 52, 127
2, 21876, Note_on_c, 4, 64, 127
2, 21949, Note_off_c, 7, 67, 127
2, 21951, Note_off_c, 12, 71, 127
2, 21953, Note_on_c, 7, 67, 127
2, 22031, Note_on_c, 12, 59, 127
2, 22031, Note_on_c, 0, 72, 127
2, 22185, Note_off_c, 12, 59, 127
2, 22187, Note_on_c, 0, 60, 127
2, 22341, Note_off_c, 0, 60, 127
2, 22343, Note_on_c, 2, 62, 127
2, 22497, Note_off_c, 2, 62, 127
2, 22499, Note_on_c, 0, 60, 127
2, 22653, Note_off_c, 0, 60, 127
2, 22655, Note_on_c, 12, 59, 127
2, 22809, Note_off_c, 12, 59, 127
2, 22810, Note_on_c, 10, 57, 127
2, 22964, Note_off_c, 10, 57, 127
2, 22967, Note_on_c, 7, 55, 127
2, 23117, Note_off_c, 4, 64, 127
2, 23121, Note_off_c, 7, 55, 127
2, 23122, Note_on_c, 10, 57, 127
2, 23122, Note_on_c, 5, 65, 127
2, 23198, Note_off_c, 7, 67, 127
2, 23198, Note_off_c, 4, 52, 127
2, 23278, Note_on_c, 7, 55, 127
2, 23426, Note_off_c, 0, 72, 127
2, 23432, Note_off_c, 7, 55, 127
2, 23434, Note_on_c, 5, 53, 127
2, 23434, Note_on_c, 0, 72, 127
2, 23588, Note_off_c, 5, 53, 127
2, 23590, Note_on_c, 4, 52, 127
2, 23744, Note_off_c, 4, 52, 127
2, 23744, Note_off_c, 0, 72, 127
2, 23746, Note_on_c, 5, 53, 127
2, 23746, Note_on_c, 2, 74, 127
2, 23900, Note_off_c, 5, 53, 127
2, 23901, Note_on_c, 4, 52, 127
2, 24055, Note_off_c, 4, 52, 127
2, 24056, Note_off_c, 2, 74, 127
2, 24058, Note_on_c, 2, 50, 127
2, 24058, Note_on_c, 5, 77, 127
2, 24212, Note_off_c, 2, 50, 127
2, 24213, Note_on_c, 0, 48, 127
2, 24367, Note_off_c, 0, 48, 127
2, 24368, Note_off_c, 5, 77, 127
2, 24369, Note_on_c, 2, 50, 127
2, 24369, Note_on_c, 12, 71, 127
2, 24523, Note_off_c, 2, 50, 127
2, 24525, Note_on_c, 0, 48, 127
2, 24679, Note_off_c, 0, 48, 127
2, 24679, Note_off_c, 12, 71, 127
2, 24680, Note_on_c, 12, 47, 127
2, 24680, Note_on_c, 0, 72, 127
2, 24834, Note_off_c, 12, 47, 127
2, 24837, Note_on_c, 10, 45, 127
2, 24988, Note_off_c, 10, 57, 127
2, 24990, Note_off_c, 0, 72, 127
2, 24991, Note_off_c, 10, 45, 127
2, 24992, Note_on_c, 12, 47, 127
2, 24992, Note_on_c, 7, 55, 127
2, 24992, Note_on_c, 2, 74, 127
2, 25142, Note_off_c, 5, 65, 127
2, 25149, Note_on_c, 5, 65, 127
2, 25302, Note_off_c, 12, 47, 127
2, 25303, Note_off_c, 5, 65, 127
2, 25304, Note_on_c, 7, 43, 127
2, 25304, Note_on_c, 4, 64, 127
2, 25458, Note_off_c, 4, 64, 127
2, 25460, Note_on_c, 2, 62, 127
2, 25614, Note_off_c, 2, 62, 127
2, 25614, Note_off_c, 7, 43, 127
2, 25616, Note_on_c, 0, 48, 127
2, 25616, Note_on_c, 4, 64, 127
2, 25771, Note_off_c, 2, 74, 127
2, 25771, Note_on_c, 7, 67, 127
2, 25925, Note_off_c, 7, 67, 127
2, 25926, Note_off_c, 0, 48, 127
2, 25928, Note_on_c, 12, 47, 127
2, 25928, Note_on_c, 10, 69, 127
2, 26082, Note_off_c, 10, 69, 127
2, 26083, Note_on_c, 12, 71, 127
2, 26233, Note_off_c, 7, 55, 127
2, 26237, Note_off_c, 12, 71, 127
2, 26238, Note_off_c, 12, 47, 127
2, 26240, Note_on_c, 10, 45, 127
2, 26240, Note_on_c, 10, 57, 127
2, 26240, Note_on_c, 0, 72, 127
2, 26395, Note_off_c, 4, 64, 127
2, 26395, Note_on_c, 4, 64, 127
2, 26549, Note_off_c, 4, 64, 127
2, 26550, Note_off_c, 10, 57, 127
2, 26550, Note_off_c, 10, 45, 127
2, 26550, Note_on_c, 7, 43, 127
2, 26550, Note_on_c, 5, 65, 127
2, 26704, Note_off_c, 5, 65, 127
2, 26707, Note_on_c, 7, 67, 127
2, 26860, Note_off_c, 7, 43, 127
2, 26861, Note_off_c, 7, 67, 127
2, 26862, Note_on_c, 5, 41, 127
2, 26862, Note_on_c, 10, 69, 127
2, 27019, Note_on_c, 7, 67, 127
2, 27172, Note_off_c, 5, 41, 127
2, 27173, Note_off_c, 7, 67, 127
2, 27174, Note_on_c, 2, 38, 127
2, 27174, Note_on_c, 5, 65, 127
2, 27328, Note_off_c, 5, 65, 127
2, 27330, Note_on_c, 4, 64, 127
2, 27483, Note_off_c, 10, 69, 127
2, 27484, Note_off_c, 4, 64, 127
2, 27484, Note_off_c, 2, 38, 127
2, 27486, Note_on_c, 7, 43, 127
2, 27486, Note_on_c, 2, 62, 127
2, 27641, Note_on_c, 5, 65, 127
2, 27798, Note_off_c, 0, 72, 127
2, 27798, Note_on_c, 7, 55, 127
2, 27798, Note_on_c, 0, 72, 127
2, 27952, Note_off_c, 0, 72, 127
2, 27953, Note_on_c, 12, 71, 127
2, 28107, Note_off_c, 12, 71, 127
2, 28107, Note_off_c, 2, 62, 127
2, 28107, Note_off_c, 7, 43, 127
2, 28110, Note_on_c, 0, 48, 127
2, 28110, Note_on_c, 0, 60, 127
2, 28110, Note_on_c, 0, 72, 127
2, 28262, Note_off_c, 5, 65, 127
2, 28265, Note_on_c, 5, 65, 127
2, 28419, Note_off_c, 5, 65, 127
2, 28421, Note_on_c, 7, 67, 127
2, 28575, Note_off_c, 7, 67, 127
2, 28577, Note_on_c, 10, 69, 127
2, 28730, Note_off_c, 7, 55, 127
2, 28731, Note_off_c, 10, 69, 127
2, 28731, Note_off_c, 0, 60, 127
2, 28732, Note_on_c, 7, 67, 127
2, 28889, Note_on_c, 5, 65, 127
2, 29043, Note_off_c, 5, 65, 127
2, 29044, Note_on_c, 4, 64, 127
2, 29198, Note_off_c, 4, 64, 127
2, 29200, Note_on_c, 2, 62, 127
2, 29354, Note_off_c, 2, 62, 127
2, 29356, Note_on_c, 4, 64, 127
2, 29512, Note_on_c, 2, 62, 127
2, 29666, Note_off_c, 2, 62, 127
2, 29668, Note_on_c, 0, 60, 127
2, 29822, Note_off_c, 0, 60, 127
2, 29823, Note_on_c, 12, 59, 127
2, 29973, Note_off_c, 7, 67, 127
2, 29976, Note_off_c, 0, 48, 127
2, 29977, Note_off_c, 12, 59, 127
2, 29980, Note_on_c, 0, 60, 127
2, 30130, Note_off_c, 0, 72, 127
2, 30135, Note_on_c, 12, 71, 127
2, 30289, Note_off_c, 12, 71, 127
2, 30291, Note_on_c, 7, 55, 127
2, 30291, Note_on_c, 0, 72, 127
2, 30445, Note_off_c, 0, 72, 127
2, 30447, Note_on_c, 2, 74, 127
2, 30597, Note_off_c, 4, 64, 127
2, 30601, Note_off_c, 2, 74, 127
2, 30601, Note_off_c, 7, 55, 127
2, 30601, Note_off_c, 0, 60, 127
2, 30603, Note_on_c, 10, 57, 127
2, 30603, Note_on_c, 0, 48, 127
2, 30603, Note_on_c, 0, 72, 127
2, 30757, Note_off_c, 0, 72, 127
2, 30759, Note_on_c, 12, 71, 127
2, 30913, Note_off_c, 12, 71, 127
2, 30913, Note_off_c, 10, 57, 127
2, 30914, Note_on_c, 4, 52, 127
2, 30914, Note_on_c, 10, 69, 127
2, 31068, Note_off_c, 10, 69, 127
2, 31070, Note_on_c, 7, 67, 127
2, 31224, Note_off_c, 7, 67, 127
2, 31224, Note_off_c, 4, 52, 127
2, 31226, Note_on_c, 5, 53, 127
2, 31226, Note_on_c, 10, 69, 127
2, 31380, Note_off_c, 10, 69, 127
2, 31382, Note_on_c, 7, 67, 127
2, 31536, Note_off_c, 7, 67, 127
2, 31536, Note_off_c, 5, 53, 127
2, 31538, Note_on_c, 10, 57, 127
2, 31538, Note_on_c, 5, 65, 127
2, 31692, Note_off_c, 5, 65, 127
2, 31694, Note_on_c, 4, 64, 127
2, 31848, Note_off_c, 4, 64, 127
2, 31848, Note_off_c, 10, 57, 127
2, 31850, Note_on_c, 2, 50, 127
2, 31850, Note_on_c, 5, 65, 127
2, 32005, Note_on_c, 4, 64, 127
2, 32159, Note_off_c, 4, 64, 127
2, 32160, Note_off_c, 2, 50, 127
2, 32161, Note_on_c, 4, 52, 127
2, 32161, Note_on_c, 2, 62, 127
2, 32315, Note_off_c, 2, 62, 127
2, 32317, Note_on_c, 0, 60, 127
2, 32471, Note_off_c, 0, 60, 127
2, 32471, Note_off_c, 4, 52, 127
2, 32473, Note_on_c, 5, 53, 127
2, 32473, Note_on_c, 2, 62, 127
2, 32629, Note_on_c, 0, 60, 127
2, 32783, Note_off_c, 0, 60, 127
2, 32785, Note_on_c, 12, 59, 127
2, 32939, Note_off_c, 12, 59, 127
2, 32940, Note_on_c, 10, 57, 127
2, 33094, Note_off_c, 10, 57, 127
2, 33096, Note_on_c, 12, 59, 127
2, 33251, Note_off_c, 5, 53, 127
2, 33252, Note_on_c, 5, 53, 127
2, 33406, Note_off_c, 5, 53, 127
2, 33408, Note_on_c, 7, 55, 127
2, 33562, Note_off_c, 7, 55, 127
2, 33564, Note_on_c, 10, 57, 127
2, 33718, Note_off_c, 10, 57, 127
2, 33720, Note_on_c, 7, 55, 127
2, 33874, Note_off_c, 7, 55, 127
2, 33876, Note_on_c, 5, 53, 127
2, 34030, Note_off_c, 5, 53, 127
2, 34031, Note_on_c, 4, 52, 127
2, 34183, Note_off_c, 0, 48, 127
2, 34185, Note_off_c, 4, 52, 127
2, 34187, Note_on_c, 2, 50, 127
2, 34339, Note_off_c, 2, 62, 127
2, 34339, Note_off_c, 5, 65, 127
2, 34341, Note_off_c, 2, 50, 127
2, 34341, Note_off_c, 12, 59, 127
2, 34343, Note_on_c, 4, 52, 127
2, 34343, Note_on_c, 7, 55, 127
2, 34400, Note_on_c, 0, 60, 127
2, 34457, Note_on_c, 4, 64, 127
2, 34499, Note_on_c, 2, 50, 127
2, 34653, Note_off_c, 2, 50, 127
2, 34655, Note_on_c, 0, 48, 127
2, 34809, Note_off_c, 0, 48, 127
2, 34810, Note_on_c, 12, 47, 127
2, 34959, Note_off_c, 4, 64, 127
2, 34964, Note_off_c, 12, 47, 127
2, 34964, Note_off_c, 7, 55, 127
2, 34964, Note_off_c, 4, 52, 127
2, 34965, Note_off_c, 0, 60, 127
2, 34967, Note_on_c, 0, 48, 127
2, 34967, Note_on_c, 0, 60, 127
2, 34967, Note_on_c, 10, 57, 127
2, 34967, Note_on_c, 3, 63, 127
2, 35122, Note_on_c, 10, 45, 127
2, 35276, Note_off_c, 10, 45, 127
2, 35278, Note_on_c, 7, 43, 127
2, 35432, Note_off_c, 7, 43, 127
2, 35434, Note_on_c, 6, 42, 127
2, 35588, Note_off_c, 6, 42, 127
2, 35588, Note_off_c, 10, 57, 127
2, 35590, Note_on_c, 7, 43, 127
2, 35590, Note_on_c, 7, 55, 127
2, 35744, Note_off_c, 7, 55, 127
2, 35746, Note_off_c, 3, 63, 127
2, 35746, Note_off_c, 0, 60, 127
2, 35746, Note_off_c, 0, 48, 127
2, 35746, Note_on_c, 0, 48, 127
2, 35746, Note_on_c, 3, 63, 127
2, 35900, Note_off_c, 3, 63, 127
2, 35900, Note_off_c, 0, 48, 127
2, 35901, Note_on_c, 12, 47, 127
2, 35901, Note_on_c, 2, 62, 127
2, 36055, Note_off_c, 2, 62, 127
2, 36055, Note_off_c, 12, 47, 127
2, 36058, Note_on_c, 10, 45, 127
2, 36058, Note_on_c, 0, 60, 127
2, 36212, Note_off_c, 0, 60, 127
2, 36212, Note_off_c, 10, 45, 127
2, 36213, Note_on_c, 12, 47, 127
2, 36213, Note_on_c, 2, 62, 127
2, 36369, Note_on_c, 0, 60, 127
2, 36523, Note_off_c, 0, 60, 127
2, 36523, Note_off_c, 12, 47, 127
2, 36525, Note_on_c, 2, 50, 127
2, 36525, Note_on_c, 12, 59, 127
2, 36679, Note_off_c, 12, 59, 127
2, 36680, Note_on_c, 10, 57, 127
2, 36834, Note_off_c, 10, 57, 127
2, 36835, Note_off_c, 2, 50, 127
2, 36837, Note_on_c, 7, 55, 127
2, 36837, Note_on_c, 12, 59, 127
2, 36992, Note_on_c, 10, 45, 127
2, 36993, Note_off_c, 7, 43, 127
2, 37145, Note_off_c, 7, 55, 127
2, 37146, Note_off_c, 10, 45, 127
2, 37149, Note_on_c, 7, 43, 127
2, 37149, Note_on_c, 2, 50, 127
2, 37303, Note_off_c, 7, 43, 127
2, 37304, Note_on_c, 5, 41, 127
2, 37454, Note_off_c, 2, 62, 127
2, 37458, Note_off_c, 5, 41, 127
2, 37458, Note_off_c, 12, 59, 127
2, 37460, Note_on_c, 4, 40, 127
2, 37616, Note_on_c, 7, 55, 127
2, 37770, Note_off_c, 7, 55, 127
2, 37771, Note_on_c, 10, 57, 127
2, 37925, Note_off_c, 10, 57, 127
2, 37928, Note_on_c, 11, 58, 127
2, 38081, Note_off_c, 4, 40, 127
2, 38081, Note_off_c, 2, 50, 127
2, 38082, Note_off_c, 11, 58, 127
2, 38083, Note_on_c, 1, 49, 127
2, 38083, Note_on_c, 10, 45, 127
2, 38083, Note_on_c, 10, 57, 127
2, 38240, Note_on_c, 12, 59, 127
2, 38393, Note_off_c, 1, 49, 127
2, 38394, Note_off_c, 12, 59, 127
2, 38395, Note_on_c, 5, 53, 127
2, 38395, Note_on_c, 1, 61, 127
2, 38549, Note_off_c, 1, 61, 127
2, 38550, Note_on_c, 2, 62, 127
2, 38704, Note_off_c, 2, 62, 127
2, 38705, Note_off_c, 5, 53, 127
2, 38707, Note_on_c, 4, 52, 127
2, 38707, Note_on_c, 1, 61, 127
2, 38862, Note_on_c, 4, 64, 127
2, 39016, Note_off_c, 4, 64, 127
2, 39019, Note_on_c, 5, 65, 127
2, 39173, Note_off_c, 5, 65, 127
2, 39174, Note_on_c, 7, 67, 127
2, 39324, Note_off_c, 10, 45, 127
2, 39330, Note_on_c, 2, 38, 127
2, 39356, Note_off_c, 4, 52, 127
2, 39486, Note_off_c, 1, 61, 127
2, 39486, Note_on_c, 4, 64, 127
2, 39640, Note_off_c, 4, 64, 127
2, 39641, Note_on_c, 10, 45, 127
2, 39641, Note_on_c, 2, 62, 127
2, 39795, Note_off_c, 2, 62, 127
2, 39798, Note_on_c, 1, 61, 127
2, 39949, Note_off_c, 10, 57, 127
2, 39951, Note_off_c, 2, 38, 127
2, 39952, Note_off_c, 1, 61, 127
2, 39953, Note_on_c, 5, 41, 127
2, 39953, Note_on_c, 2, 62, 127
2, 40106, Note_off_c, 7, 67, 127
2, 40110, Note_on_c, 4, 64, 127
2, 40262, Note_off_c, 10, 45, 127
2, 40264, Note_off_c, 4, 64, 127
2, 40265, Note_on_c, 2, 50, 127
2, 40265, Note_on_c, 5, 65, 127
2, 40419, Note_off_c, 2, 62, 127
2, 40421, Note_on_c, 2, 62, 127
2, 40574, Note_off_c, 5, 41, 127
2, 40575, Note_off_c, 2, 62, 127
2, 40577, Note_on_c, 2, 38, 127
2, 40577, Note_on_c, 10, 57, 127
2, 40731, Note_off_c, 10, 57, 127
2, 40732, Note_on_c, 0, 60, 127
2, 40886, Note_off_c, 0, 60, 127
2, 40886, Note_off_c, 2, 50, 127
2, 40889, Note_on_c, 2, 50, 127
2, 40889, Note_on_c, 12, 59, 127
2, 41043, Note_off_c, 12, 59, 127
2, 41044, Note_on_c, 10, 57, 127
2, 41198, Note_off_c, 10, 57, 127
2, 41198, Note_off_c, 2, 38, 127
2, 41200, Note_on_c, 7, 43, 127
2, 41200, Note_on_c, 12, 59, 127
2, 41355, Note_off_c, 2, 50, 127
2, 41356, Note_on_c, 5, 53, 127
2, 41510, Note_off_c, 5, 53, 127
2, 41512, Note_on_c, 7, 55, 127
2, 41666, Note_off_c, 7, 55, 127
2, 41668, Note_on_c, 8, 56, 127
2, 41821, Note_off_c, 12, 59, 127
2, 41821, Note_off_c, 7, 43, 127
2, 41822, Note_off_c, 8, 56, 127
2, 41823, Note_on_c, 7, 55, 127
2, 41823, Note_on_c, 12, 47, 127
2, 41980, Note_on_c, 10, 57, 127
2, 42134, Note_off_c, 10, 57, 127
2, 42135, Note_on_c, 12, 59, 127
2, 42289, Note_off_c, 12, 59, 127
2, 42291, Note_on_c, 0, 60, 127
2, 42444, Note_off_c, 12, 47, 127
2, 42445, Note_off_c, 0, 60, 127
2, 42447, Note_on_c, 7, 43, 127
2, 42447, Note_on_c, 12, 59, 127
2, 42603, Note_on_c, 2, 62, 127
2, 42755, Note_off_c, 5, 65, 127
2, 42757, Note_off_c, 2, 62, 127
2, 42759, Note_on_c, 4, 64, 127
2, 42913, Note_off_c, 4, 64, 127
2, 42914, Note_on_c, 5, 65, 127
2, 43068, Note_off_c, 7, 43, 127
2, 43070, Note_on_c, 0, 48, 127
2, 43144, Note_off_c, 12, 59, 127
2, 43226, Note_on_c, 2, 62, 127
2, 43380, Note_off_c, 2, 62, 127
2, 43382, Note_on_c, 0, 60, 127
2, 43536, Note_off_c, 0, 60, 127
2, 43538, Note_on_c, 12, 59, 127
2, 43691, Note_off_c, 0, 48, 127
2, 43692, Note_off_c, 12, 59, 127
2, 43694, Note_on_c, 4, 52, 127
2, 43694, Note_on_c, 0, 60, 127
2, 43846, Note_off_c, 5, 65, 127
2, 43850, Note_on_c, 2, 62, 127
2, 44004, Note_off_c, 2, 62, 127
2, 44005, Note_on_c, 4, 64, 127
2, 44160, Note_off_c, 0, 60, 127
2, 44161, Note_on_c, 0, 60, 127
2, 44315, Note_off_c, 4, 52, 127
2, 44317, Note_on_c, 0, 48, 127
2, 44467, Note_off_c, 7, 55, 127
2, 44473, Note_on_c, 11, 58, 127
2, 44627, Note_off_c, 11, 58, 127
2, 44629, Note_on_c, 10, 57, 127
2, 44783, Note_off_c, 10, 57, 127
2, 44785, Note_on_c, 7, 55, 127
2, 44938, Note_off_c, 0, 48, 127
2, 44939, Note_off_c, 7, 55, 127
2, 44940, Note_on_c, 5, 53, 127
2, 44940, Note_on_c, 10, 57, 127
2, 45092, Note_off_c, 4, 64, 127
2, 45094, Note_off_c, 0, 60, 127
2, 45096, Note_on_c, 7, 67, 127
2, 45250, Note_off_c, 7, 67, 127
2, 45250, Note_off_c, 5, 53, 127
2, 45252, Note_on_c, 4, 52, 127
2, 45252, Note_on_c, 10, 69, 127
2, 45406, Note_off_c, 10, 69, 127
2, 45408, Note_on_c, 11, 70, 127
2, 45561, Note_off_c, 10, 57, 127
2, 45562, Note_off_c, 11, 70, 127
2, 45562, Note_off_c, 4, 52, 127
2, 45564, Note_on_c, 5, 53, 127
2, 45564, Note_on_c, 10, 69, 127
2, 45720, Note_on_c, 7, 67, 127
2, 45874, Note_off_c, 7, 67, 127
2, 45876, Note_on_c, 10, 57, 127
2, 45876, Note_on_c, 5, 65, 127
2, 45876, Note_on_c, 2, 62, 127
2, 46030, Note_off_c, 5, 65, 127
2, 46031, Note_on_c, 4, 64, 127
2, 46185, Note_off_c, 4, 64, 127
2, 46187, Note_on_c, 5, 65, 127
2, 46342, Note_off_c, 2, 62, 127
2, 46343, Note_on_c, 4, 64, 127
2, 46497, Note_off_c, 4, 64, 127
2, 46499, Note_on_c, 2, 62, 127
2, 46653, Note_off_c, 2, 62, 127
2, 46655, Note_on_c, 0, 60, 127
2, 46805, Note_off_c, 10, 69, 127
2, 46808, Note_off_c, 5, 65, 127
2, 46808, Note_off_c, 10, 57, 127
2, 46809, Note_off_c, 0, 60, 127
2, 46810, Note_on_c, 7, 55, 127
2, 46810, Note_on_c, 2, 62, 127
2, 46889, Note_on_c, 7, 67, 127
2, 46959, Note_off_c, 5, 53, 127
2, 46967, Note_on_c, 5, 53, 127
2, 46967, Note_on_c, 12, 71, 127
2, 47118, Note_off_c, 7, 55, 127
2, 47121, Note_off_c, 5, 53, 127
2, 47122, Note_on_c, 7, 55, 127
2, 47276, Note_off_c, 7, 55, 127
2, 47278, Note_on_c, 10, 57, 127
2, 47432, Note_off_c, 10, 57, 127
2, 47434, Note_on_c, 7, 55, 127
2, 47588, Note_off_c, 7, 55, 127
2, 47590, Note_on_c, 5, 53, 127
2, 47744, Note_off_c, 5, 53, 127
2, 47746, Note_on_c, 4, 52, 127
2, 47900, Note_off_c, 4, 52, 127
2, 47901, Note_on_c, 2, 50, 127
2, 48046, Note_off_c, 12, 71, 127
2, 48051, Note_off_c, 2, 62, 127
2, 48055, Note_off_c, 2, 50, 127
2, 48058, Note_on_c, 4, 52, 127
2, 48058, Note_on_c, 0, 72, 127
2, 48058, Note_on_c, 0, 60, 127
2, 48212, Note_off_c, 4, 52, 127
2, 48213, Note_on_c, 2, 50, 127
2, 48367, Note_off_c, 2, 50, 127
2, 48369, Note_on_c, 0, 48, 127
2, 48523, Note_off_c, 0, 48, 127
2, 48525, Note_on_c, 11, 46, 127
2, 48674, Note_off_c, 7, 67, 127
2, 48679, Note_off_c, 11, 46, 127
2, 48680, Note_on_c, 10, 45, 127
2, 48680, Note_on_c, 5, 65, 127
2, 48834, Note_off_c, 10, 45, 127
2, 48837, Note_off_c, 0, 72, 127
2, 48837, Note_on_c, 4, 52, 127
2, 48837, Note_on_c, 0, 72, 127
2, 48988, Note_off_c, 5, 65, 127
2, 48990, Note_off_c, 0, 60, 127
2, 48991, Note_off_c, 0, 72, 127
2, 48991, Note_off_c, 4, 52, 127
2, 48992, Note_on_c, 5, 53, 127
2, 48992, Note_on_c, 2, 74, 127
2, 49146, Note_off_c, 2, 74, 127
2, 49146, Note_off_c, 5, 53, 127
2, 49149, Note_on_c, 7, 55, 127
2, 49149, Note_on_c, 3, 75, 127
2, 49303, Note_off_c, 3, 75, 127
2, 49303, Note_off_c, 7, 55, 127
2, 49304, Note_on_c, 5, 53, 127
2, 49304, Note_on_c, 2, 74, 127
2, 49458, Note_off_c, 5, 53, 127
2, 49460, Note_on_c, 4, 52, 127
2, 49460, Note_on_c, 0, 72, 127
2, 49614, Note_off_c, 0, 72, 127
2, 49614, Note_off_c, 4, 52, 127
2, 49616, Note_on_c, 2, 50, 127
2, 49616, Note_on_c, 11, 70, 127
2, 49770, Note_off_c, 11, 70, 127
2, 49770, Note_off_c, 2, 50, 127
2, 49771, Note_on_c, 0, 48, 127
2, 49771, Note_on_c, 10, 69, 127
2, 49925, Note_off_c, 10, 69, 127
2, 49925, Note_off_c, 0, 48, 127
2, 49928, Note_on_c, 2, 50, 127
2, 49928, Note_on_c, 11, 70, 127
2, 50082, Note_off_c, 2, 50, 127
2, 50083, Note_on_c, 0, 48, 127
2, 50083, Note_on_c, 10, 69, 127
2, 50237, Note_off_c, 10, 69, 127
2, 50237, Note_off_c, 0, 48, 127
2, 50240, Note_on_c, 11, 46, 127
2, 50240, Note_on_c, 7, 67, 127
2, 50394, Note_off_c, 7, 67, 127
2, 50394, Note_off_c, 11, 46, 127
2, 50395, Note_on_c, 10, 45, 127
2, 50395, Note_on_c, 5, 65, 127
2, 50545, Note_off_c, 2, 74, 127
2, 50549, Note_off_c, 5, 65, 127
2, 50549, Note_off_c, 10, 45, 127
2, 50549, Note_off_c, 11, 70, 127
2, 50550, Note_on_c, 7, 43, 127
2, 50550, Note_on_c, 7, 67, 127
2, 50629, Note_on_c, 11, 70, 127
2, 50704, Note_off_c, 7, 43, 127
2, 50707, Note_on_c, 11, 58, 127
2, 50707, Note_on_c, 4, 76, 127
2, 50861, Note_off_c, 11, 58, 127
2, 50862, Note_on_c, 0, 60, 127
2, 51016, Note_off_c, 0, 60, 127
2, 51019, Note_on_c, 2, 62, 127
2, 51173, Note_off_c, 2, 62, 127
2, 51174, Note_on_c, 0, 60, 127
2, 51328, Note_off_c, 0, 60, 127
2, 51330, Note_on_c, 11, 58, 127
2, 51484, Note_off_c, 11, 58, 127
2, 51486, Note_on_c, 10, 57, 127
2, 51640, Note_off_c, 10, 57, 127
2, 51641, Note_on_c, 7, 55, 127
2, 51791, Note_off_c, 7, 67, 127
2, 51795, Note_off_c, 7, 55, 127
2, 51797, Note_off_c, 4, 76, 127
2, 51797, Note_off_c, 11, 70, 127
2, 51798, Note_on_c, 10, 57, 127
2, 51798, Note_on_c, 5, 65, 127
2, 51798, Note_on_c, 5, 77, 127
2, 51798, Note_on_c, 0, 72, 127
2, 51952, Note_off_c, 10, 57, 127
2, 51953, Note_on_c, 7, 55, 127
2, 52106, Note_off_c, 0, 72, 127
2, 52106, Note_off_c, 5, 65, 127
2, 52107, Note_off_c, 7, 55, 127
2, 52110, Note_on_c, 5, 53, 127
2, 52264, Note_off_c, 5, 53, 127
2, 52265, Note_on_c, 4, 52, 127
2, 52419, Note_off_c, 4, 52, 127
2, 52421, Note_on_c, 2, 50, 127
2, 52575, Note_off_c, 2, 50, 127
2, 52576, Note_off_c, 5, 77, 127
2, 52577, Note_on_c, 10, 57, 127
2, 52577, Note_on_c, 5, 77, 127
2, 52731, Note_off_c, 5, 77, 127
2, 52731, Note_off_c, 10, 57, 127
2, 52732, Note_on_c, 11, 58, 127
2, 52732, Note_on_c, 7, 79, 127
2, 52886, Note_off_c, 7, 79, 127
2, 52886, Note_off_c, 11, 58, 127
2, 52889, Note_on_c, 0, 60, 127
2, 52889, Note_on_c, 10, 81, 127
2, 53043, Note_off_c, 10, 81, 127
2, 53043, Note_off_c, 0, 60, 127
2, 53044, Note_on_c, 11, 58, 127
2, 53044, Note_on_c, 7, 79, 127
2, 53198, Note_off_c, 7, 79, 127
2, 53198, Note_off_c, 11, 58, 127
2, 53200, Note_on_c, 10, 57, 127
2, 53200, Note_on_c, 5, 77, 127
2, 53354, Note_off_c, 5, 77, 127
2, 53354, Note_off_c, 10, 57, 127
2, 53356, Note_on_c, 7, 55, 127
2, 53356, Note_on_c, 4, 76, 127
2, 53510, Note_off_c, 4, 76, 127
2, 53510, Note_off_c, 7, 55, 127
2, 53512, Note_on_c, 5, 53, 127
2, 53512, Note_on_c, 2, 74, 127
2, 53666, Note_off_c, 2, 74, 127
2, 53666, Note_off_c, 5, 53, 127
2, 53668, Note_on_c, 7, 55, 127
2, 53668, Note_on_c, 4, 76, 127
2, 53822, Note_off_c, 4, 76, 127
2, 53823, Note_on_c, 5, 65, 127
2, 53823, Note_on_c, 2, 74, 127
2, 53977, Note_off_c, 2, 74, 127
2, 53977, Note_off_c, 5, 65, 127
2, 53980, Note_on_c, 4, 64, 127
2, 53980, Note_on_c, 1, 73, 127
2, 54134, Note_off_c, 1, 73, 127
2, 54134, Note_off_c, 4, 64, 127
2, 54135, Note_on_c, 2, 62, 127
2, 54135, Note_on_c, 12, 71, 127
2, 54289, Note_off_c, 12, 71, 127
2, 54289, Note_off_c, 2, 62, 127
2, 54291, Note_on_c, 4, 64, 127
2, 54291, Note_on_c, 1, 73, 127
2, 54447, Note_on_c, 11, 70, 127
2, 54601, Note_off_c, 11, 70, 127
2, 54603, Note_on_c, 10, 69, 127
2, 54757, Note_off_c, 10, 69, 127
2, 54759, Note_on_c, 7, 67, 127
2, 54912, Note_off_c, 4, 64, 127
2, 54913, Note_off_c, 7, 67, 127
2, 54914, Note_on_c, 10, 69, 127
2, 55070, Note_on_c, 7, 67, 127
2, 55224, Note_off_c, 7, 67, 127
2, 55226, Note_on_c, 5, 65, 127
2, 55380, Note_off_c, 5, 65, 127
2, 55382, Note_on_c, 4, 64, 127
2, 55532, Note_off_c, 1, 73, 127
2, 55534, Note_off_c, 7, 55, 127
2, 55536, Note_off_c, 4, 64, 127
2, 55538, Note_on_c, 5, 53, 127
2, 55538, Note_on_c, 5, 65, 127
2, 55538, Note_on_c, 2, 74, 127
2, 55694, Note_on_c, 1, 61, 127
2, 55848, Note_off_c, 1, 61, 127
2, 55850, Note_on_c, 2, 62, 127
2, 56004, Note_off_c, 2, 62, 127
2, 56005, Note_on_c, 4, 64, 127
2, 56159, Note_off_c, 4, 64, 127
2, 56161, Note_on_c, 2, 62, 127
2, 56315, Note_off_c, 2, 62, 127
2, 56317, Note_on_c, 0, 60, 127
2, 56470, Note_off_c, 2, 74, 127
2, 56470, Note_off_c, 5, 65, 127
2, 56471, Note_off_c, 0, 60, 127
2, 56472, Note_off_c, 10, 69, 127
2, 56473, Note_on_c, 11, 58, 127
2, 56473, Note_on_c, 5, 77, 127
2, 56473, Note_on_c, 10, 69, 127
2, 56627, Note_off_c, 11, 58, 127
2, 56629, Note_on_c, 10, 57, 127
2, 56779, Note_off_c, 5, 53, 127
2, 56783, Note_off_c, 10, 57, 127
2, 56783, Note_off_c, 10, 69, 127
2, 56783, Note_off_c, 5, 77, 127
2, 56785, Note_on_c, 11, 58, 127
2, 56785, Note_on_c, 7, 67, 127
2, 56785, Note_on_c, 4, 76, 127
2, 56940, Note_on_c, 10, 57, 127
2, 57094, Note_off_c, 10, 57, 127
2, 57095, Note_off_c, 4, 76, 127
2, 57095, Note_off_c, 7, 67, 127
2, 57096, Note_on_c, 7, 55, 127
2, 57096, Note_on_c, 11, 70, 127
2, 57096, Note_on_c, 7, 79, 127
2, 57250, Note_off_c, 7, 55, 127
2, 57252, Note_on_c, 5, 53, 127
2, 57406, Note_off_c, 5, 53, 127
2, 57406, Note_off_c, 7, 79, 127
2, 57406, Note_off_c, 11, 70, 127
2, 57406, Note_off_c, 11, 58, 127
2, 57408, Note_on_c, 10, 57, 127
2, 57408, Note_on_c, 4, 64, 127
2, 57408, Note_on_c, 1, 73, 127
2, 57564, Note_on_c, 7, 55, 127
2, 57718, Note_off_c, 7, 55, 127
2, 57718, Note_off_c, 1, 73, 127
2, 57718, Note_off_c, 4, 64, 127
2, 57720, Note_on_c, 5, 53, 127
2, 57720, Note_on_c, 2, 74, 127
2, 57720, Note_on_c, 5, 65, 127
2, 57874, Note_off_c, 5, 53, 127
2, 57876, Note_on_c, 4, 52, 127
2, 58029, Note_off_c, 10, 57, 127
2, 58030, Note_off_c, 4, 52, 127
2, 58031, Note_on_c, 10, 57, 127
2, 58186, Note_off_c, 5, 65, 127
2, 58186, Note_off_c, 2, 74, 127
2, 58187, Note_on_c, 5, 65, 127
2, 58187, Note_on_c, 2, 74, 127
2, 58341, Note_off_c, 2, 74, 127
2, 58341, Note_off_c, 5, 65, 127
2, 58343, Note_on_c, 10, 45, 127
2, 58343, Note_on_c, 4, 64, 127
2, 58343, Note_on_c, 1, 73, 127
2, 58497, Note_off_c, 1, 73, 127
2, 58497, Note_off_c, 4, 64, 127
2, 58499, Note_on_c, 2, 62, 127
2, 58499, Note_on_c, 12, 71, 127
2, 58653, Note_off_c, 12, 71, 127
2, 58653, Note_off_c, 2, 62, 127
2, 58655, Note_on_c, 4, 64, 127
2, 58732, Note_on_c, 10, 69, 127
2, 58777, Note_off_c, 10, 57, 127
2, 58810, Note_on_c, 7, 55, 127
2, 58810, Note_on_c, 1, 73, 127
2, 58964, Note_off_c, 7, 55, 127
2, 58964, Note_off_c, 10, 45, 127
2, 58967, Note_on_c, 10, 57, 127
2, 59121, Note_off_c, 10, 57, 127
2, 59122, Note_on_c, 11, 58, 127
2, 59276, Note_off_c, 11, 58, 127
2, 59278, Note_on_c, 10, 57, 127
2, 59432, Note_off_c, 10, 57, 127
2, 59434, Note_on_c, 7, 55, 127
2, 59588, Note_off_c, 7, 55, 127
2, 59590, Note_on_c, 5, 53, 127
2, 59744, Note_off_c, 5, 53, 127
2, 59746, Note_on_c, 4, 52, 127
2, 59889, Note_off_c, 1, 73, 127
2, 59892, Note_off_c, 10, 69, 127
2, 59896, Note_off_c, 4, 64, 127
2, 59900, Note_off_c, 4, 52, 127
2, 59901, Note_on_c, 5, 53, 127
2, 60058, Note_on_c, 1, 73, 127
2, 60212, Note_off_c, 1, 73, 127
2, 60213, Note_on_c, 2, 74, 127
2, 60367, Note_off_c, 2, 74, 127
2, 60369, Note_on_c, 4, 76, 127
2, 60523, Note_off_c, 4, 76, 127
2, 60525, Note_on_c, 10, 57, 127
2, 60525, Note_on_c, 2, 74, 127
2, 60679, Note_off_c, 2, 74, 127
2, 60680, Note_on_c, 0, 72, 127
2, 60834, Note_off_c, 0, 72, 127
2, 60837, Note_on_c, 11, 70, 127
2, 60991, Note_off_c, 11, 70, 127
2, 60992, Note_on_c, 10, 69, 127
2, 61146, Note_off_c, 10, 69, 127
2, 61146, Note_off_c, 10, 57, 127
2, 61149, Note_on_c, 2, 62, 127
2, 61149, Note_on_c, 11, 70, 127
2, 61303, Note_off_c, 11, 70, 127
2, 61304, Note_on_c, 10, 69, 127
2, 61458, Note_off_c, 10, 69, 127
2, 61460, Note_on_c, 7, 67, 127
2, 61614, Note_off_c, 7, 67, 127
2, 61616, Note_on_c, 5, 65, 127
2, 61767, Note_off_c, 5, 53, 127
2, 61770, Note_off_c, 5, 65, 127
2, 61771, Note_on_c, 4, 52, 127
2, 61771, Note_on_c, 7, 67, 127
2, 61928, Note_on_c, 5, 65, 127
2, 62081, Note_off_c, 2, 62, 127
2, 62082, Note_off_c, 5, 65, 127
2, 62083, Note_on_c, 4, 64, 127
2, 62237, Note_off_c, 4, 64, 127
2, 62240, Note_on_c, 2, 62, 127
2, 62394, Note_off_c, 2, 62, 127
2, 62395, Note_on_c, 4, 64, 127
2, 62550, Note_on_c, 2, 62, 127
2, 62704, Note_off_c, 2, 62, 127
2, 62707, Note_on_c, 1, 61, 127
2, 62861, Note_off_c, 1, 61, 127
2, 62862, Note_on_c, 12, 59, 127
2, 63012, Note_off_c, 4, 52, 127
2, 63016, Note_off_c, 12, 59, 127
2, 63019, Note_on_c, 1, 61, 127
2, 63174, Note_on_c, 7, 55, 127
2, 63328, Note_off_c, 7, 55, 127
2, 63330, Note_on_c, 10, 57, 127
2, 63484, Note_off_c, 10, 57, 127
2, 63486, Note_on_c, 11, 58, 127
2, 63640, Note_off_c, 11, 58, 127
2, 63641, Note_on_c, 10, 57, 127
2, 63795, Note_off_c, 10, 57, 127
2, 63798, Note_on_c, 7, 55, 127
2, 63952, Note_off_c, 7, 55, 127
2, 63953, Note_on_c, 5, 53, 127
2, 64107, Note_off_c, 5, 53, 127
2, 64110, Note_on_c, 4, 52, 127
2, 64261, Note_off_c, 4, 64, 127
2, 64261, Note_off_c, 7, 67, 127
2, 64264, Note_off_c, 4, 52, 127
2, 64264, Note_off_c, 1, 61, 127
2, 64265, Note_on_c, 5, 53, 127
2, 64265, Note_on_c, 10, 57, 127
2, 64343, Note_on_c, 2, 62, 127
2, 64419, Note_off_c, 5, 53, 127
2, 64421, Note_on_c, 4, 52, 127
2, 64421, Note_on_c, 5, 65, 127
2, 64575, Note_off_c, 4, 52, 127
2, 64577, Note_on_c, 2, 50, 127
2, 64731, Note_off_c, 2, 50, 127
2, 64732, Note_on_c, 1, 49, 127
2, 64886, Note_off_c, 1, 49, 127
2, 64889, Note_on_c, 2, 50, 127
2, 65043, Note_off_c, 2, 50, 127
2, 65044, Note_on_c, 0, 48, 127
2, 65198, Note_off_c, 0, 48, 127
2, 65200, Note_on_c, 12, 47, 127
2, 65354, Note_off_c, 12, 47, 127
2, 65356, Note_on_c, 10, 45, 127
2, 65510, Note_off_c, 10, 45, 127
2, 65512, Note_on_c, 12, 47, 127
2, 65660, Note_off_c, 10, 57, 127
2, 65668, Note_on_c, 0, 60, 127
2, 65822, Note_off_c, 0, 60, 127
2, 65823, Note_on_c, 12, 59, 127
2, 65977, Note_off_c, 12, 59, 127
2, 65980, Note_on_c, 10, 57, 127
2, 66134, Note_off_c, 10, 57, 127
2, 66135, Note_on_c, 8, 56, 127
2, 66290, Note_off_c, 12, 47, 127
2, 66291, Note_on_c, 0, 48, 127
2, 66445, Note_off_c, 0, 48, 127
2, 66445, Note_off_c, 8, 56, 127
2, 66447, Note_on_c, 2, 50, 127
2, 66447, Note_on_c, 10, 57, 127
2, 66601, Note_off_c, 2, 50, 127
2, 66603, Note_on_c, 4, 52, 127
2, 66757, Note_off_c, 4, 52, 127
2, 66757, Note_off_c, 10, 57, 127
2, 66759, Note_on_c, 2, 50, 127
2, 66759, Note_on_c, 12, 59, 127
2, 66913, Note_off_c, 2, 50, 127
2, 66914, Note_on_c, 0, 48, 127
2, 67068, Note_off_c, 0, 48, 127
2, 67070, Note_on_c, 12, 47, 127
2, 67224, Note_off_c, 12, 47, 127
2, 67226, Note_on_c, 10, 45, 127
2, 67380, Note_off_c, 10, 45, 127
2, 67382, Note_on_c, 8, 44, 127
2, 67538, Note_off_c, 12, 59, 127
2, 67538, Note_on_c, 2, 50, 127
2, 67692, Note_off_c, 2, 50, 127
2, 67694, Note_on_c, 4, 52, 127
2, 67848, Note_off_c, 4, 52, 127
2, 67850, Note_on_c, 5, 53, 127
2, 67998, Note_off_c, 5, 65, 127
2, 68004, Note_off_c, 5, 53, 127
2, 68005, Note_on_c, 4, 52, 127
2, 68076, Note_off_c, 2, 62, 127
2, 68161, Note_on_c, 10, 57, 127
2, 68315, Note_off_c, 10, 57, 127
2, 68317, Note_on_c, 12, 59, 127
2, 68471, Note_off_c, 12, 59, 127
2, 68473, Note_on_c, 0, 60, 127
2, 68627, Note_off_c, 0, 60, 127
2, 68629, Note_on_c, 12, 59, 127
2, 68785, Note_on_c, 1, 61, 127
2, 68939, Note_off_c, 1, 61, 127
2, 68940, Note_on_c, 2, 62, 127
2, 69094, Note_off_c, 2, 62, 127
2, 69096, Note_on_c, 4, 64, 127
2, 69248, Note_off_c, 8, 44, 127
2, 69250, Note_off_c, 4, 64, 127
2, 69250, Note_off_c, 12, 59, 127
2, 69252, Note_on_c, 7, 43, 127
2, 69252, Note_on_c, 10, 57, 127
2, 69252, Note_on_c, 1, 61, 127
2, 69406, Note_off_c, 1, 61, 127
2, 69408, Note_on_c, 4, 64, 127
2, 69562, Note_off_c, 4, 64, 127
2, 69564, Note_on_c, 5, 65, 127
2, 69718, Note_off_c, 5, 65, 127
2, 69720, Note_on_c, 7, 67, 127
2, 69874, Note_off_c, 7, 67, 127
2, 69876, Note_on_c, 10, 69, 127
2, 70025, Note_off_c, 4, 52, 127
2, 70031, Note_off_c, 10, 57, 127
2, 70031, Note_on_c, 5, 53, 127
2, 70031, Note_on_c, 12, 59, 127
2, 70185, Note_off_c, 12, 59, 127
2, 70185, Note_off_c, 5, 53, 127
2, 70187, Note_on_c, 4, 52, 127
2, 70187, Note_on_c, 1, 61, 127
2, 70341, Note_off_c, 1, 61, 127
2, 70341, Note_off_c, 4, 52, 127
2, 70343, Note_on_c, 2, 50, 127
2, 70343, Note_on_c, 2, 62, 127
2, 70497, Note_off_c, 2, 62, 127
2, 70497, Note_off_c, 2, 50, 127
2, 70499, Note_on_c, 1, 49, 127
2, 70499, Note_on_c, 4, 64, 127
2, 70647, Note_off_c, 7, 43, 127
2, 70655, Note_on_c, 11, 46, 127
2, 70809, Note_off_c, 11, 46, 127
2, 70810, Note_on_c, 10, 45, 127
2, 70964, Note_off_c, 10, 45, 127
2, 70967, Note_on_c, 7, 43, 127
2, 71121, Note_off_c, 7, 43, 127
2, 71122, Note_on_c, 5, 41, 127
2, 71271, Note_off_c, 10, 69, 127
2, 71278, Note_on_c, 7, 67, 127
2, 71431, Note_off_c, 4, 64, 127
2, 71431, Note_off_c, 1, 49, 127
2, 71432, Note_off_c, 7, 67, 127
2, 71434, Note_on_c, 2, 50, 127
2, 71434, Note_on_c, 11, 70, 127
2, 71434, Note_on_c, 2, 62, 127
2, 71588, Note_off_c, 11, 70, 127
2, 71590, Note_on_c, 10, 69, 127
2, 71743, Note_off_c, 5, 41, 127
2, 71744, Note_off_c, 10, 69, 127
2, 71744, Note_off_c, 2, 50, 127
2, 71746, Note_on_c, 4, 52, 127
2, 71746, Note_on_c, 7, 43, 127
2, 71746, Note_on_c, 7, 67, 127
2, 71900, Note_off_c, 7, 67, 127
2, 71901, Note_on_c, 5, 65, 127
2, 72055, Note_off_c, 5, 65, 127
2, 72056, Note_off_c, 4, 52, 127
2, 72058, Note_on_c, 5, 53, 127
2, 72058, Note_on_c, 4, 64, 127
2, 72213, Note_off_c, 2, 62, 127
2, 72213, Note_on_c, 2, 62, 127
2, 72367, Note_off_c, 2, 62, 127
2, 72367, Note_off_c, 7, 43, 127
2, 72368, Note_off_c, 5, 53, 127
2, 72369, Note_on_c, 10, 45, 127
2, 72369, Note_on_c, 7, 55, 127
2, 72369, Note_on_c, 1, 61, 127
2, 72524, Note_off_c, 4, 64, 127
2, 72525, Note_on_c, 4, 64, 127
2, 72679, Note_off_c, 4, 64, 127
2, 72679, Note_off_c, 7, 55, 127
2, 72680, Note_on_c, 10, 57, 127
2, 72680, Note_on_c, 5, 65, 127
2, 72834, Note_off_c, 5, 65, 127
2, 72837, Note_on_c, 7, 67, 127
2, 72990, Note_off_c, 10, 57, 127
2, 72990, Note_off_c, 1, 61, 127
2, 72990, Note_off_c, 10, 45, 127
2, 72992, Note_on_c, 11, 58, 127
2, 72992, Note_on_c, 2, 50, 127
2, 72992, Note_on_c, 2, 62, 127
2, 73145, Note_off_c, 7, 67, 127
2, 73149, Note_on_c, 7, 67, 127
2, 73302, Note_off_c, 11, 58, 127
2, 73303, Note_off_c, 7, 67, 127
2, 73304, Note_on_c, 10, 57, 127
2, 73304, Note_on_c, 5, 65, 127
2, 73458, Note_off_c, 5, 65, 127
2, 73458, Note_off_c, 10, 57, 127
2, 73460, Note_on_c, 7, 55, 127
2, 73460, Note_on_c, 4, 64, 127
2, 73614, Note_off_c, 4, 64, 127
2, 73614, Note_off_c, 7, 55, 127
2, 73616, Note_on_c, 10, 57, 127
2, 73616, Note_on_c, 5, 65, 127
2, 73771, Note_off_c, 2, 62, 127
2, 73771, Note_on_c, 4, 64, 127
2, 73925, Note_off_c, 4, 64, 127
2, 73928, Note_on_c, 2, 62, 127
2, 74082, Note_off_c, 2, 62, 127
2, 74083, Note_on_c, 1, 61, 127
2, 74237, Note_off_c, 1, 61, 127
2, 74240, Note_on_c, 2, 62, 127
2, 74394, Note_off_c, 10, 57, 127
2, 74395, Note_on_c, 0, 60, 127
2, 74549, Note_off_c, 0, 60, 127
2, 74550, Note_on_c, 11, 58, 127
2, 74704, Note_off_c, 11, 58, 127
2, 74707, Note_on_c, 10, 57, 127
2, 74861, Note_off_c, 10, 57, 127
2, 74862, Note_on_c, 11, 58, 127
2, 75011, Note_off_c, 5, 65, 127
2, 75012, Note_off_c, 2, 50, 127
2, 75019, Note_on_c, 2, 50, 127
2, 75019, Note_on_c, 5, 65, 127
2, 75173, Note_off_c, 5, 65, 127
2, 75173, Note_off_c, 2, 50, 127
2, 75174, Note_on_c, 4, 52, 127
2, 75174, Note_on_c, 7, 67, 127
2, 75328, Note_off_c, 7, 67, 127
2, 75328, Note_off_c, 4, 52, 127
2, 75330, Note_on_c, 5, 53, 127
2, 75330, Note_on_c, 10, 69, 127
2, 75484, Note_off_c, 10, 69, 127
2, 75484, Note_off_c, 5, 53, 127
2, 75486, Note_on_c, 7, 55, 127
2, 75486, Note_on_c, 11, 70, 127
2, 75635, Note_off_c, 2, 62, 127
2, 75641, Note_on_c, 2, 62, 127
2, 75794, Note_off_c, 11, 58, 127
2, 75795, Note_off_c, 2, 62, 127
2, 75796, Note_off_c, 7, 55, 127
2, 75798, Note_on_c, 5, 53, 127
2, 75798, Note_on_c, 10, 57, 127
2, 75798, Note_on_c, 4, 64, 127
2, 75952, Note_off_c, 4, 64, 127
2, 75953, Note_on_c, 5, 65, 127
2, 76107, Note_off_c, 5, 65, 127
2, 76108, Note_off_c, 10, 57, 127
2, 76110, Note_on_c, 7, 55, 127
2, 76110, Note_on_c, 7, 67, 127
2, 76264, Note_off_c, 5, 53, 127
2, 76265, Note_on_c, 4, 52, 127
2, 76419, Note_off_c, 4, 52, 127
2, 76420, Note_off_c, 7, 67, 127
2, 76421, Note_on_c, 2, 50, 127
2, 76421, Note_on_c, 4, 64, 127
2, 76575, Note_off_c, 2, 50, 127
2, 76577, Note_on_c, 0, 48, 127
2, 76731, Note_off_c, 0, 48, 127
2, 76731, Note_off_c, 4, 64, 127
2, 76732, Note_on_c, 5, 53, 127
2, 76732, Note_on_c, 0, 60, 127
2, 76881, Note_off_c, 11, 70, 127
2, 76889, Note_on_c, 11, 70, 127
2, 77042, Note_off_c, 5, 53, 127
2, 77042, Note_off_c, 7, 55, 127
2, 77043, Note_off_c, 11, 70, 127
2, 77044, Note_on_c, 5, 41, 127
2, 77044, Note_on_c, 5, 53, 127
2, 77044, Note_on_c, 10, 69, 127
2, 77198, Note_off_c, 10, 69, 127
2, 77198, Note_off_c, 5, 53, 127
2, 77200, Note_on_c, 4, 52, 127
2, 77200, Note_on_c, 7, 67, 127
2, 77352, Note_off_c, 5, 41, 127
2, 77354, Note_off_c, 7, 67, 127
2, 77354, Note_off_c, 4, 52, 127
2, 77356, Note_on_c, 5, 53, 127
2, 77356, Note_on_c, 10, 69, 127
2, 77511, Note_off_c, 0, 60, 127
2, 77512, Note_on_c, 7, 67, 127
2, 77666, Note_off_c, 7, 67, 127
2, 77668, Note_on_c, 10, 57, 127
2, 77668, Note_on_c, 5, 65, 127
2, 77822, Note_off_c, 5, 65, 127
2, 77823, Note_on_c, 4, 64, 127
2, 77977, Note_off_c, 4, 64, 127
2, 77980, Note_on_c, 5, 65, 127
2, 78134, Note_off_c, 10, 57, 127
2, 78135, Note_on_c, 4, 64, 127
2, 78289, Note_off_c, 4, 64, 127
2, 78291, Note_on_c, 2, 62, 127
2, 78445, Note_off_c, 2, 62, 127
2, 78447, Note_on_c, 1, 61, 127
2, 78601, Note_off_c, 1, 61, 127
2, 78603, Note_on_c, 2, 62, 127
2, 78751, Note_off_c, 10, 69, 127
2, 78751, Note_off_c, 5, 53, 127
2, 78759, Note_on_c, 5, 53, 127
2, 78759, Note_on_c, 10, 69, 127
2, 78913, Note_off_c, 10, 69, 127
2, 78913, Note_off_c, 5, 53, 127
2, 78914, Note_on_c, 7, 55, 127
2, 78914, Note_on_c, 11, 70, 127
2, 79068, Note_off_c, 11, 70, 127
2, 79068, Note_off_c, 7, 55, 127
2, 79070, Note_on_c, 10, 57, 127
2, 79070, Note_on_c, 0, 72, 127
2, 79224, Note_off_c, 0, 72, 127
2, 79224, Note_off_c, 10, 57, 127
2, 79226, Note_on_c, 11, 58, 127
2, 79226, Note_on_c, 2, 74, 127
2, 79375, Note_off_c, 5, 65, 127
2, 79382, Note_on_c, 5, 65, 127
2, 79535, Note_off_c, 2, 62, 127
2, 79536, Note_off_c, 5, 65, 127
2, 79536, Note_off_c, 11, 58, 127
2, 79538, Note_on_c, 10, 57, 127
2, 79538, Note_on_c, 0, 60, 127
2, 79538, Note_on_c, 7, 67, 127
2, 79692, Note_off_c, 7, 67, 127
2, 79694, Note_on_c, 10, 69, 127
2, 79848, Note_off_c, 10, 69, 127
2, 79848, Note_off_c, 0, 60, 127
2, 79850, Note_on_c, 11, 58, 127
2, 79850, Note_on_c, 11, 70, 127
2, 80004, Note_off_c, 10, 57, 127
2, 80005, Note_on_c, 7, 55, 127
2, 80159, Note_off_c, 7, 55, 127
2, 80160, Note_off_c, 11, 70, 127
2, 80161, Note_on_c, 5, 53, 127
2, 80161, Note_on_c, 7, 67, 127
2, 80315, Note_off_c, 5, 53, 127
2, 80317, Note_on_c, 4, 52, 127
2, 80471, Note_off_c, 4, 52, 127
2, 80471, Note_off_c, 7, 67, 127
2, 80471, Note_off_c, 11, 58, 127
2, 80473, Note_on_c, 10, 57, 127
2, 80473, Note_on_c, 4, 64, 127
2, 80621, Note_off_c, 2, 74, 127
2, 80629, Note_on_c, 2, 74, 127
2, 80783, Note_off_c, 2, 74, 127
2, 80783, Note_off_c, 10, 57, 127
2, 80785, Note_on_c, 10, 45, 127
2, 80785, Note_on_c, 10, 57, 127
2, 80785, Note_on_c, 0, 72, 127
2, 80939, Note_off_c, 0, 72, 127
2, 80939, Note_off_c, 10, 57, 127
2, 80940, Note_on_c, 7, 55, 127
2, 80940, Note_on_c, 11, 70, 127
2, 81093, Note_off_c, 10, 45, 127
2, 81094, Note_off_c, 11, 70, 127
2, 81094, Note_off_c, 7, 55, 127
2, 81096, Note_on_c, 10, 57, 127
2, 81096, Note_on_c, 0, 72, 127
2, 81252, Note_off_c, 4, 64, 127
2, 81252, Note_on_c, 11, 70, 127
2, 81406, Note_off_c, 11, 70, 127
2, 81408, Note_on_c, 0, 60, 127
2, 81408, Note_on_c, 10, 69, 127
2, 81562, Note_off_c, 10, 69, 127
2, 81564, Note_on_c, 7, 67, 127
2, 81718, Note_off_c, 7, 67, 127
2, 81720, Note_on_c, 10, 69, 127
2, 81874, Note_off_c, 0, 60, 127
2, 81876, Note_on_c, 7, 67, 127
2, 82030, Note_off_c, 7, 67, 127
2, 82031, Note_on_c, 5, 65, 127
2, 82185, Note_off_c, 5, 65, 127
2, 82187, Note_on_c, 4, 64, 127
2, 82341, Note_off_c, 4, 64, 127
2, 82343, Note_on_c, 5, 65, 127
2, 82491, Note_off_c, 0, 72, 127
2, 82491, Note_off_c, 10, 57, 127
2, 82499, Note_on_c, 10, 57, 127
2, 82499, Note_on_c, 0, 72, 127
2, 82653, Note_off_c, 0, 72, 127
2, 82653, Note_off_c, 10, 57, 127
2, 82655, Note_on_c, 12, 59, 127
2, 82655, Note_on_c, 2, 74, 127
2, 82809, Note_off_c, 2, 74, 127
2, 82809, Note_off_c, 12, 59, 127
2, 82810, Note_on_c, 0, 60, 127
2, 82810, Note_on_c, 4, 76, 127
2, 82964, Note_off_c, 4, 76, 127
2, 82964, Note_off_c, 0, 60, 127
2, 82967, Note_on_c, 2, 62, 127
2, 82967, Note_on_c, 5, 77, 127
2, 83115, Note_off_c, 10, 69, 127
2, 83122, Note_on_c, 10, 69, 127
2, 83275, Note_off_c, 5, 65, 127
2, 83276, Note_off_c, 10, 69, 127
2, 83277, Note_off_c, 2, 62, 127
2, 83278, Note_on_c, 0, 60, 127
2, 83278, Note_on_c, 4, 64, 127
2, 83278, Note_on_c, 12, 71, 127
2, 83432, Note_off_c, 12, 71, 127
2, 83434, Note_on_c, 0, 72, 127
2, 83588, Note_off_c, 0, 72, 127
2, 83588, Note_off_c, 4, 64, 127
2, 83590, Note_on_c, 2, 62, 127
2, 83590, Note_on_c, 2, 74, 127
2, 83744, Note_off_c, 0, 60, 127
2, 83746, Note_on_c, 12, 59, 127
2, 83900, Note_off_c, 12, 59, 127
2, 83900, Note_off_c, 2, 74, 127
2, 83901, Note_on_c, 10, 57, 127
2, 83901, Note_on_c, 12, 71, 127
2, 84055, Note_off_c, 10, 57, 127
2, 84058, Note_on_c, 7, 55, 127
2, 84211, Note_off_c, 12, 71, 127
2, 84211, Note_off_c, 2, 62, 127
2, 84212, Note_off_c, 7, 55, 127
2, 84213, Note_on_c, 0, 60, 127
2, 84213, Note_on_c, 7, 67, 127
2, 84362, Note_off_c, 5, 77, 127
2, 84369, Note_on_c, 5, 77, 127
2, 84523, Note_off_c, 5, 77, 127
2, 84523, Note_off_c, 0, 60, 127
2, 84525, Note_on_c, 0, 48, 127
2, 84525, Note_on_c, 0, 60, 127
2, 84525, Note_on_c, 4, 76, 127
2, 84679, Note_off_c, 4, 76, 127
2, 84679, Note_off_c, 0, 60, 127
2, 84680, Note_on_c, 12, 59, 127
2, 84680, Note_on_c, 2, 74, 127
2, 84833, Note_off_c, 0, 48, 127
2, 84834, Note_off_c, 2, 74, 127
2, 84834, Note_off_c, 12, 59, 127
2, 84837, Note_on_c, 0, 60, 127
2, 84837, Note_on_c, 4, 76, 127
2, 84992, Note_off_c, 7, 67, 127
2, 84992, Note_on_c, 2, 74, 127
2, 85146, Note_off_c, 2, 74, 127
2, 85149, Note_on_c, 0, 72, 127
2, 85303, Note_off_c, 0, 72, 127
2, 85304, Note_on_c, 12, 71, 127
2, 85458, Note_off_c, 12, 71, 127
2, 85460, Note_on_c, 0, 72, 127
2, 85616, Note_on_c, 12, 71, 127
2, 85770, Note_off_c, 12, 71, 127
2, 85771, Note_on_c, 10, 69, 127
2, 85925, Note_off_c, 10, 69, 127
2, 85928, Note_on_c, 8, 68, 127
2, 86082, Note_off_c, 8, 68, 127
2, 86083, Note_on_c, 10, 69, 127
2, 86237, Note_off_c, 0, 60, 127
2, 86240, Note_on_c, 4, 64, 127
2, 86394, Note_off_c, 4, 64, 127
2, 86395, Note_on_c, 5, 65, 127
2, 86549, Note_off_c, 5, 65, 127
2, 86550, Note_on_c, 7, 67, 127
2, 86701, Note_off_c, 0, 72, 127
2, 86703, Note_off_c, 4, 76, 127
2, 86704, Note_off_c, 7, 67, 127
2, 86704, Note_off_c, 10, 69, 127
2, 86707, Note_on_c, 5, 65, 127
2, 86707, Note_on_c, 10, 69, 127
2, 86785, Note_on_c, 12, 71, 127
2, 86861, Note_off_c, 5, 65, 127
2, 86862, Note_on_c, 4, 64, 127
2, 86862, Note_on_c, 2, 74, 127
2, 87016, Note_off_c, 4, 64, 127
2, 87019, Note_on_c, 2, 62, 127
2, 87173, Note_off_c, 2, 62, 127
2, 87174, Note_on_c, 0, 60, 127
2, 87328, Note_off_c, 0, 60, 127
2, 87330, Note_on_c, 2, 62, 127
2, 87484, Note_off_c, 2, 62, 127
2, 87486, Note_on_c, 0, 60, 127
2, 87640, Note_off_c, 0, 60, 127
2, 87641, Note_on_c, 12, 59, 127
2, 87795, Note_off_c, 12, 59, 127
2, 87798, Note_on_c, 10, 57, 127
2, 87952, Note_off_c, 10, 57, 127
2, 87952, Note_off_c, 10, 69, 127
2, 87953, Note_on_c, 12, 59, 127
2, 87953, Note_on_c, 8, 68, 127
2, 88107, Note_off_c, 12, 59, 127
2, 88110, Note_on_c, 10, 57, 127
2, 88264, Note_off_c, 10, 57, 127
2, 88265, Note_on_c, 8, 56, 127
2, 88419, Note_off_c, 8, 56, 127
2, 88421, Note_on_c, 6, 54, 127
2, 88575, Note_off_c, 6, 54, 127
2, 88577, Note_on_c, 8, 56, 127
2, 88577, Note_on_c, 4, 64, 127
2, 88731, Note_off_c, 8, 56, 127
2, 88732, Note_on_c, 2, 50, 127
2, 88886, Note_off_c, 2, 50, 127
2, 88889, Note_on_c, 4, 52, 127
2, 89043, Note_off_c, 4, 52, 127
2, 89044, Note_on_c, 5, 53, 127
2, 89198, Note_off_c, 5, 53, 127
2, 89200, Note_on_c, 4, 52, 127
2, 89354, Note_off_c, 4, 52, 127
2, 89356, Note_on_c, 2, 50, 127
2, 89510, Note_off_c, 2, 50, 127
2, 89512, Note_on_c, 0, 48, 127
2, 89666, Note_off_c, 0, 48, 127
2, 89668, Note_on_c, 12, 47, 127
2, 89822, Note_off_c, 12, 47, 127
2, 89823, Note_on_c, 0, 48, 127
2, 89975, Note_off_c, 12, 71, 127
2, 89977, Note_off_c, 4, 64, 127
2, 89978, Note_off_c, 2, 74, 127
2, 89980, Note_on_c, 2, 74, 127
2, 89982, Note_off_c, 8, 68, 127
2, 90134, Note_off_c, 2, 74, 127
2, 90135, Note_on_c, 4, 52, 127
2, 90135, Note_on_c, 4, 76, 127
2, 90289, Note_off_c, 4, 76, 127
2, 90291, Note_on_c, 5, 77, 127
2, 90445, Note_off_c, 5, 77, 127
2, 90445, Note_off_c, 4, 52, 127
2, 90447, Note_on_c, 6, 54, 127
2, 90447, Note_on_c, 4, 76, 127
2, 90601, Note_off_c, 4, 76, 127
2, 90603, Note_on_c, 2, 74, 127
2, 90757, Note_off_c, 2, 74, 127
2, 90757, Note_off_c, 6, 54, 127
2, 90759, Note_on_c, 8, 56, 127
2, 90759, Note_on_c, 0, 72, 127
2, 90913, Note_off_c, 0, 72, 127
2, 90914, Note_on_c, 12, 71, 127
2, 91068, Note_off_c, 12, 71, 127
2, 91069, Note_off_c, 8, 56, 127
2, 91070, Note_on_c, 10, 57, 127
2, 91070, Note_on_c, 0, 72, 127
2, 91224, Note_off_c, 0, 72, 127
2, 91226, Note_on_c, 12, 71, 127
2, 91380, Note_off_c, 12, 71, 127
2, 91380, Note_off_c, 10, 57, 127
2, 91382, Note_on_c, 12, 59, 127
2, 91382, Note_on_c, 10, 69, 127
2, 91536, Note_off_c, 10, 69, 127
2, 91538, Note_on_c, 8, 68, 127
2, 91692, Note_off_c, 8, 68, 127
2, 91692, Note_off_c, 12, 59, 127
2, 91694, Note_on_c, 0, 60, 127
2, 91694, Note_on_c, 10, 69, 127
2, 91850, Note_on_c, 7, 67, 127
2, 91997, Note_off_c, 0, 48, 127
2, 92004, Note_off_c, 7, 67, 127
2, 92004, Note_off_c, 0, 60, 127
2, 92005, Note_on_c, 1, 49, 127
2, 92005, Note_on_c, 10, 57, 127
2, 92005, Note_on_c, 5, 65, 127
2, 92159, Note_off_c, 5, 65, 127
2, 92161, Note_on_c, 4, 64, 127
2, 92315, Note_off_c, 4, 64, 127
2, 92315, Note_off_c, 1, 49, 127
2, 92317, Note_on_c, 2, 50, 127
2, 92317, Note_on_c, 5, 65, 127
2, 92471, Note_off_c, 5, 65, 127
2, 92473, Note_on_c, 4, 64, 127
2, 92626, Note_off_c, 10, 57, 127
2, 92627, Note_off_c, 4, 64, 127
2, 92627, Note_off_c, 2, 50, 127
2, 92629, Note_on_c, 4, 52, 127
2, 92629, Note_on_c, 1, 61, 127
2, 92629, Note_on_c, 5, 65, 127
2, 92783, Note_off_c, 5, 65, 127
2, 92785, Note_on_c, 7, 67, 127
2, 92939, Note_off_c, 7, 67, 127
2, 92939, Note_off_c, 1, 61, 127
2, 92939, Note_off_c, 4, 52, 127
2, 92940, Note_on_c, 5, 53, 127
2, 92940, Note_on_c, 2, 62, 127
2, 92940, Note_on_c, 5, 65, 127
2, 93094, Note_off_c, 5, 65, 127
2, 93096, Note_on_c, 4, 64, 127
2, 93250, Note_off_c, 4, 64, 127
2, 93250, Note_off_c, 2, 62, 127
2, 93250, Note_off_c, 5, 53, 127
2, 93252, Note_on_c, 7, 55, 127
2, 93252, Note_on_c, 10, 57, 127
2, 93252, Note_on_c, 2, 62, 127
2, 93406, Note_off_c, 2, 62, 127
2, 93408, Note_on_c, 1, 61, 127
2, 93562, Note_off_c, 1, 61, 127
2, 93562, Note_off_c, 7, 55, 127
2, 93564, Note_on_c, 5, 53, 127
2, 93564, Note_on_c, 2, 62, 127
2, 93714, Note_off_c, 10, 69, 127
2, 93718, Note_off_c, 2, 62, 127
2, 93720, Note_on_c, 7, 79, 127
2, 93873, Note_off_c, 10, 57, 127
2, 93874, Note_off_c, 7, 79, 127
2, 93876, Note_on_c, 10, 57, 127
2, 93876, Note_on_c, 10, 81, 127
2, 94030, Note_off_c, 10, 81, 127
2, 94031, Note_on_c, 11, 82, 127
2, 94185, Note_off_c, 11, 82, 127
2, 94186, Note_off_c, 10, 57, 127
2, 94187, Note_on_c, 12, 59, 127
2, 94187, Note_on_c, 10, 81, 127
2, 94341, Note_off_c, 10, 81, 127
2, 94343, Note_on_c, 7, 79, 127
2, 94497, Note_off_c, 7, 79, 127
2, 94497, Note_off_c, 12, 59, 127
2, 94499, Note_on_c, 1, 61, 127
2, 94499, Note_on_c, 5, 77, 127
2, 94653, Note_off_c, 5, 77, 127
2, 94655, Note_on_c, 4, 76, 127
2, 94809, Note_off_c, 4, 76, 127
2, 94809, Note_off_c, 1, 61, 127
2, 94810, Note_on_c, 2, 62, 127
2, 94810, Note_on_c, 5, 77, 127
2, 94964, Note_off_c, 5, 77, 127
2, 94967, Note_on_c, 4, 76, 127
2, 95120, Note_off_c, 2, 62, 127
2, 95121, Note_off_c, 4, 76, 127
2, 95122, Note_on_c, 4, 64, 127
2, 95122, Note_on_c, 2, 74, 127
2, 95276, Note_off_c, 2, 74, 127
2, 95278, Note_on_c, 1, 73, 127
2, 95432, Note_off_c, 1, 73, 127
2, 95432, Note_off_c, 4, 64, 127
2, 95434, Note_on_c, 5, 65, 127
2, 95434, Note_on_c, 2, 74, 127
2, 95588, Note_off_c, 2, 74, 127
2, 95588, Note_off_c, 5, 65, 127
2, 95590, Note_on_c, 7, 55, 127
2, 95590, Note_on_c, 4, 76, 127
2, 95665, Note_off_c, 5, 53, 127
2, 95744, Note_off_c, 4, 76, 127
2, 95744, Note_off_c, 7, 55, 127
2, 95746, Note_on_c, 10, 57, 127
2, 95746, Note_on_c, 5, 77, 127
2, 95900, Note_off_c, 5, 77, 127
2, 95900, Note_off_c, 10, 57, 127
2, 95901, Note_on_c, 11, 58, 127
2, 95901, Note_on_c, 7, 79, 127
2, 96055, Note_off_c, 7, 79, 127
2, 96055, Note_off_c, 11, 58, 127
2, 96058, Note_on_c, 10, 57, 127
2, 96058, Note_on_c, 5, 77, 127
2, 96212, Note_off_c, 5, 77, 127
2, 96212, Note_off_c, 10, 57, 127
2, 96213, Note_on_c, 7, 55, 127
2, 96213, Note_on_c, 4, 76, 127
2, 96367, Note_off_c, 4, 76, 127
2, 96367, Note_off_c, 7, 55, 127
2, 96369, Note_on_c, 5, 53, 127
2, 96369, Note_on_c, 2, 74, 127
2, 96523, Note_off_c, 2, 74, 127
2, 96523, Note_off_c, 5, 53, 127
2, 96525, Note_on_c, 4, 52, 127
2, 96525, Note_on_c, 1, 73, 127
2, 96679, Note_off_c, 1, 73, 127
2, 96679, Note_off_c, 4, 52, 127
2, 96680, Note_on_c, 5, 53, 127
2, 96680, Note_on_c, 2, 74, 127
2, 96834, Note_off_c, 2, 74, 127
2, 96834, Note_off_c, 5, 53, 127
2, 96837, Note_on_c, 4, 52, 127
2, 96837, Note_on_c, 0, 72, 127
2, 96991, Note_off_c, 0, 72, 127
2, 96991, Note_off_c, 4, 52, 127
2, 96992, Note_on_c, 2, 50, 127
2, 96992, Note_on_c, 11, 70, 127
2, 97146, Note_off_c, 11, 70, 127
2, 97146, Note_off_c, 2, 50, 127
2, 97149, Note_on_c, 1, 49, 127
2, 97149, Note_on_c, 10, 69, 127
2, 97303, Note_off_c, 10, 69, 127
2, 97303, Note_off_c, 1, 49, 127
2, 97304, Note_on_c, 2, 50, 127
2, 97304, Note_on_c, 11, 70, 127
2, 97458, Note_off_c, 11, 70, 127
2, 97460, Note_on_c, 0, 72, 127
2, 97614, Note_off_c, 0, 72, 127
2, 97616, Note_on_c, 5, 53, 127
2, 97616, Note_on_c, 2, 74, 127
2, 97770, Note_off_c, 2, 74, 127
2, 97771, Note_on_c, 3, 75, 127
2, 97925, Note_off_c, 3, 75, 127
2, 97926, Note_off_c, 5, 53, 127
2, 97928, Note_on_c, 11, 58, 127
2, 97928, Note_on_c, 2, 74, 127
2, 98082, Note_off_c, 2, 74, 127
2, 98083, Note_on_c, 0, 72, 127
2, 98237, Note_off_c, 0, 72, 127
2, 98238, Note_off_c, 11, 58, 127
2, 98240, Note_on_c, 0, 60, 127
2, 98240, Note_on_c, 11, 70, 127
2, 98394, Note_off_c, 11, 70, 127
2, 98395, Note_on_c, 10, 69, 127
2, 98549, Note_off_c, 10, 69, 127
2, 98550, Note_off_c, 0, 60, 127
2, 98550, Note_on_c, 2, 62, 127
2, 98550, Note_on_c, 11, 70, 127
2, 98704, Note_off_c, 11, 70, 127
2, 98707, Note_on_c, 10, 69, 127
2, 98860, Note_off_c, 2, 62, 127
2, 98861, Note_off_c, 10, 69, 127
2, 98862, Note_on_c, 0, 60, 127
2, 98862, Note_on_c, 8, 68, 127
2, 99016, Note_off_c, 8, 68, 127
2, 99019, Note_on_c, 6, 66, 127
2, 99172, Note_off_c, 0, 60, 127
2, 99173, Note_off_c, 6, 66, 127
2, 99174, Note_on_c, 12, 59, 127
2, 99174, Note_on_c, 8, 68, 127
2, 99324, Note_off_c, 2, 50, 127
2, 99328, Note_off_c, 12, 59, 127
2, 99330, Note_on_c, 2, 50, 127
2, 99484, Note_off_c, 2, 50, 127
2, 99486, Note_on_c, 4, 52, 127
2, 99486, Note_on_c, 4, 64, 127
2, 99640, Note_off_c, 4, 52, 127
2, 99641, Note_on_c, 5, 53, 127
2, 99795, Note_off_c, 5, 53, 127
2, 99795, Note_off_c, 8, 68, 127
2, 99798, Note_on_c, 4, 52, 127
2, 99798, Note_on_c, 8, 68, 127
2, 99952, Note_off_c, 4, 52, 127
2, 99953, Note_on_c, 2, 50, 127
2, 100107, Note_off_c, 2, 50, 127
2, 100110, Note_on_c, 0, 48, 127
2, 100110, Note_on_c, 12, 71, 127
2, 100264, Note_off_c, 0, 48, 127
2, 100265, Note_on_c, 12, 47, 127
2, 100419, Note_off_c, 12, 47, 127
2, 100421, Note_on_c, 0, 48, 127
2, 100421, Note_on_c, 2, 74, 127
2, 100575, Note_off_c, 0, 48, 127
2, 100577, Note_on_c, 12, 47, 127
2, 100731, Note_off_c, 12, 47, 127
2, 100732, Note_on_c, 10, 45, 127
2, 100886, Note_off_c, 10, 45, 127
2, 100889, Note_on_c, 8, 44, 127
2, 101043, Note_off_c, 8, 44, 127
2, 101044, Note_on_c, 10, 45, 127
2, 101198, Note_off_c, 10, 45, 127
2, 101200, Note_on_c, 5, 41, 127
2, 101351, Note_off_c, 12, 71, 127
2, 101352, Note_off_c, 4, 64, 127
2, 101353, Note_off_c, 2, 74, 127
2, 101354, Note_off_c, 5, 41, 127
2, 101356, Note_off_c, 8, 68, 127
2, 101356, Note_on_c, 4, 40, 127
2, 101356, Note_on_c, 6, 66, 127
2, 101397, Note_on_c, 10, 69, 127
2, 101437, Note_on_c, 0, 72, 127
2, 101510, Note_off_c, 4, 40, 127
2, 101512, Note_on_c, 3, 39, 127
2, 101666, Note_off_c, 3, 39, 127
2, 101666, Note_off_c, 6, 66, 127
2, 101668, Note_on_c, 4, 40, 127
2, 101668, Note_on_c, 4, 64, 127
2, 101817, Note_off_c, 0, 72, 127
2, 101823, Note_on_c, 10, 45, 127
2, 101823, Note_on_c, 0, 72, 127
2, 101977, Note_off_c, 0, 72, 127
2, 101977, Note_off_c, 10, 45, 127
2, 101978, Note_off_c, 10, 69, 127
2, 101980, Note_on_c, 12, 47, 127
2, 101980, Note_on_c, 12, 71, 127
2, 102134, Note_off_c, 12, 71, 127
2, 102134, Note_off_c, 12, 47, 127
2, 102135, Note_on_c, 0, 48, 127
2, 102135, Note_on_c, 10, 69, 127
2, 102289, Note_off_c, 10, 69, 127
2, 102289, Note_off_c, 0, 48, 127
2, 102291, Note_on_c, 2, 50, 127
2, 102291, Note_on_c, 12, 71, 127
2, 102447, Note_on_c, 6, 66, 127
2, 102601, Note_off_c, 6, 66, 127
2, 102601, Note_off_c, 2, 50, 127
2, 102603, Note_on_c, 4, 52, 127
2, 102603, Note_on_c, 8, 68, 127
2, 102751, Note_off_c, 4, 64, 127
2, 102759, Note_on_c, 2, 62, 127
2, 102909, Note_off_c, 4, 40, 127
2, 102911, Note_off_c, 8, 68, 127
2, 102912, Note_off_c, 12, 71, 127
2, 102913, Note_off_c, 4, 52, 127
2, 102914, Note_on_c, 10, 45, 127
2, 102914, Note_on_c, 5, 53, 127
2, 102914, Note_on_c, 10, 69, 127
2, 103067, Note_off_c, 2, 62, 127
2, 103070, Note_on_c, 2, 62, 127
2, 103224, Note_off_c, 2, 62, 127
2, 103224, Note_off_c, 5, 53, 127
2, 103226, Note_on_c, 2, 50, 127
2, 103226, Note_on_c, 4, 64, 127
2, 103380, Note_off_c, 4, 64, 127
2, 103382, Note_on_c, 5, 65, 127
2, 103536, Note_off_c, 5, 65, 127
2, 103536, Note_off_c, 2, 50, 127
2, 103538, Note_on_c, 5, 53, 127
2, 103538, Note_on_c, 4, 64, 127
2, 103692, Note_off_c, 4, 64, 127
2, 103694, Note_on_c, 2, 62, 127
2, 103848, Note_off_c, 2, 62, 127
2, 103850, Note_on_c, 8, 56, 127
2, 103850, Note_on_c, 1, 61, 127
2, 104004, Note_off_c, 1, 61, 127
2, 104005, Note_on_c, 12, 59, 127
2, 104159, Note_off_c, 12, 59, 127
2, 104159, Note_off_c, 5, 53, 127
2, 104160, Note_off_c, 8, 56, 127
2, 104161, Note_on_c, 4, 52, 127
2, 104161, Note_on_c, 10, 57, 127
2, 104161, Note_on_c, 1, 61, 127
2, 104309, Note_off_c, 10, 45, 127
2, 104317, Note_on_c, 11, 46, 127
2, 104471, Note_off_c, 11, 46, 127
2, 104473, Note_on_c, 10, 45, 127
2, 104627, Note_off_c, 10, 45, 127
2, 104627, Note_off_c, 1, 61, 127
2, 104627, Note_off_c, 4, 52, 127
2, 104629, Note_on_c, 7, 43, 127
2, 104780, Note_off_c, 10, 69, 127
2, 104782, Note_off_c, 10, 57, 127
2, 104783, Note_off_c, 7, 43, 127
2, 104785, Note_on_c, 5, 41, 127
2, 104940, Note_on_c, 4, 76, 127
2, 105094, Note_off_c, 4, 76, 127
2, 105096, Note_on_c, 5, 77, 127
2, 105250, Note_off_c, 5, 77, 127
2, 105252, Note_on_c, 7, 79, 127
2, 105406, Note_off_c, 7, 79, 127
2, 105408, Note_on_c, 5, 53, 127
2, 105408, Note_on_c, 5, 77, 127
2, 105562, Note_off_c, 5, 77, 127
2, 105564, Note_on_c, 4, 76, 127
2, 105717, Note_off_c, 5, 41, 127
2, 105718, Note_off_c, 4, 76, 127
2, 105720, Note_on_c, 2, 74, 127
2, 105874, Note_off_c, 2, 74, 127
2, 105876, Note_on_c, 0, 72, 127
2, 106030, Note_off_c, 0, 72, 127
2, 106031, Note_on_c, 10, 57, 127
2, 106031, Note_on_c, 2, 74, 127
2, 106185, Note_off_c, 2, 74, 127
2, 106187, Note_on_c, 0, 72, 127
2, 106341, Note_off_c, 0, 72, 127
2, 106343, Note_on_c, 11, 70, 127
2, 106497, Note_off_c, 11, 70, 127
2, 106499, Note_on_c, 10, 69, 127
2, 106652, Note_off_c, 10, 57, 127
2, 106653, Note_off_c, 10, 69, 127
2, 106655, Note_on_c, 2, 62, 127
2, 106655, Note_on_c, 11, 70, 127
2, 106810, Note_on_c, 10, 69, 127
2, 106964, Note_off_c, 10, 69, 127
2, 106967, Note_on_c, 7, 67, 127
2, 107121, Note_off_c, 7, 67, 127
2, 107122, Note_on_c, 5, 65, 127
2, 107276, Note_off_c, 5, 65, 127
2, 107276, Note_off_c, 2, 62, 127
2, 107278, Note_on_c, 11, 58, 127
2, 107278, Note_on_c, 7, 67, 127
2, 107434, Note_on_c, 5, 65, 127
2, 107588, Note_off_c, 5, 65, 127
2, 107590, Note_on_c, 4, 64, 127
2, 107744, Note_off_c, 4, 64, 127
2, 107746, Note_on_c, 2, 62, 127
2, 107899, Note_off_c, 11, 58, 127
2, 107900, Note_off_c, 2, 62, 127
2, 107901, Note_on_c, 7, 55, 127
2, 107901, Note_on_c, 4, 64, 127
2, 108055, Note_off_c, 7, 55, 127
2, 108058, Note_on_c, 11, 58, 127
2, 108212, Note_off_c, 11, 58, 127
2, 108213, Note_on_c, 0, 60, 127
2, 108367, Note_off_c, 0, 60, 127
2, 108369, Note_on_c, 2, 62, 127
2, 108523, Note_off_c, 2, 62, 127
2, 108525, Note_on_c, 0, 60, 127
2, 108679, Note_off_c, 0, 60, 127
2, 108680, Note_on_c, 11, 58, 127
2, 108834, Note_off_c, 11, 58, 127
2, 108837, Note_on_c, 10, 57, 127
2, 108988, Note_off_c, 5, 53, 127
2, 108991, Note_off_c, 10, 57, 127
2, 108992, Note_on_c, 7, 55, 127
2, 109144, Note_off_c, 7, 67, 127
2, 109144, Note_off_c, 11, 70, 127
2, 109146, Note_off_c, 7, 55, 127
2, 109146, Note_off_c, 4, 64, 127
2, 109149, Note_on_c, 10, 57, 127
2, 109149, Note_on_c, 10, 69, 127
2, 109149, Note_on_c, 0, 60, 127
2, 109149, Note_on_c, 5, 65, 127
2, 109304, Note_on_c, 7, 55, 127
2, 109458, Note_off_c, 7, 55, 127
2, 109460, Note_on_c, 5, 53, 127
2, 109614, Note_off_c, 5, 53, 127
2, 109616, Note_on_c, 4, 52, 127
2, 109770, Note_off_c, 4, 52, 127
2, 109770, Note_off_c, 5, 65, 127
2, 109770, Note_off_c, 0, 60, 127
2, 109770, Note_off_c, 10, 69, 127
2, 109770, Note_off_c, 10, 57, 127
2, 109771, Note_on_c, 5, 53, 127
2, 109771, Note_on_c, 2, 62, 127
2, 109771, Note_on_c, 8, 68, 127
2, 109771, Note_on_c, 5, 65, 127
2, 109928, Note_on_c, 2, 50, 127
2, 110082, Note_off_c, 2, 50, 127
2, 110083, Note_on_c, 0, 48, 127
2, 110237, Note_off_c, 0, 48, 127
2, 110240, Note_on_c, 12, 47, 127
2, 110392, Note_off_c, 2, 62, 127
2, 110394, Note_off_c, 12, 47, 127
2, 110395, Note_on_c, 0, 48, 127
2, 110395, Note_on_c, 0, 60, 127
2, 110549, Note_off_c, 5, 65, 127
2, 110549, Note_off_c, 8, 68, 127
2, 110550, Note_off_c, 5, 53, 127
2, 110550, Note_on_c, 5, 53, 127
2, 110550, Note_on_c, 8, 68, 127
2, 110703, Note_off_c, 0, 60, 127
2, 110704, Note_off_c, 8, 68, 127
2, 110704, Note_off_c, 5, 53, 127
2, 110707, Note_on_c, 4, 52, 127
2, 110707, Note_on_c, 7, 67, 127
2, 110861, Note_off_c, 7, 67, 127
2, 110861, Note_off_c, 4, 52, 127
2, 110862, Note_on_c, 2, 50, 127
2, 110862, Note_on_c, 5, 65, 127
2, 111016, Note_off_c, 5, 65, 127
2, 111016, Note_off_c, 2, 50, 127
2, 111019, Note_on_c, 4, 52, 127
2, 111019, Note_on_c, 7, 67, 127
2, 111174, Note_on_c, 5, 65, 127
2, 111328, Note_off_c, 5, 65, 127
2, 111329, Note_off_c, 4, 52, 127
2, 111330, Note_on_c, 7, 55, 127
2, 111330, Note_on_c, 4, 64, 127
2, 111484, Note_off_c, 4, 64, 127
2, 111486, Note_on_c, 2, 62, 127
2, 111640, Note_off_c, 2, 62, 127
2, 111640, Note_off_c, 7, 55, 127
2, 111641, Note_on_c, 0, 60, 127
2, 111641, Note_on_c, 4, 64, 127
2, 111790, Note_off_c, 0, 48, 127
2, 111798, Note_on_c, 2, 50, 127
2, 111949, Note_off_c, 0, 60, 127
2, 111952, Note_off_c, 2, 50, 127
2, 111953, Note_on_c, 0, 48, 127
2, 111953, Note_on_c, 7, 55, 127
2, 112107, Note_off_c, 0, 48, 127
2, 112110, Note_on_c, 11, 46, 127
2, 112260, Note_off_c, 7, 67, 127
2, 112262, Note_off_c, 4, 64, 127
2, 112264, Note_off_c, 11, 46, 127
2, 112265, Note_on_c, 10, 45, 127
2, 112421, Note_on_c, 0, 60, 127
2, 112574, Note_off_c, 7, 55, 127
2, 112575, Note_off_c, 0, 60, 127
2, 112577, Note_on_c, 7, 55, 127
2, 112577, Note_on_c, 2, 62, 127
2, 112731, Note_off_c, 2, 62, 127
2, 112732, Note_on_c, 3, 63, 127
2, 112886, Note_off_c, 3, 63, 127
2, 112886, Note_off_c, 10, 45, 127
2, 112887, Note_off_c, 7, 55, 127
2, 112889, Note_on_c, 6, 54, 127
2, 112889, Note_on_c, 2, 50, 127
2, 112889, Note_on_c, 2, 62, 127
2, 113044, Note_on_c, 4, 64, 127
2, 113198, Note_off_c, 4, 64, 127
2, 113199, Note_off_c, 6, 54, 127
2, 113200, Note_on_c, 11, 58, 127
2, 113200, Note_on_c, 6, 66, 127
2, 113354, Note_off_c, 6, 66, 127
2, 113356, Note_on_c, 7, 67, 127
2, 113510, Note_off_c, 7, 67, 127
2, 113510, Note_off_c, 11, 58, 127
2, 113512, Note_on_c, 10, 57, 127
2, 113512, Note_on_c, 6, 66, 127
2, 113668, Note_on_c, 10, 69, 127
2, 113822, Note_off_c, 10, 69, 127
2, 113823, Note_on_c, 11, 70, 127
2, 113977, Note_off_c, 11, 70, 127
2, 113980, Note_on_c, 0, 72, 127
2, 114130, Note_off_c, 2, 50, 127
2, 114135, Note_on_c, 7, 43, 127
2, 114291, Note_off_c, 6, 66, 127
2, 114291, Note_on_c, 10, 69, 127
2, 114444, Note_off_c, 10, 57, 127
2, 114445, Note_off_c, 10, 69, 127
2, 114447, Note_on_c, 2, 50, 127
2, 114447, Note_on_c, 7, 67, 127
2, 114601, Note_off_c, 7, 67, 127
2, 114603, Note_on_c, 6, 66, 127
2, 114756, Note_off_c, 7, 43, 127
2, 114757, Note_off_c, 6, 66, 127
2, 114759, Note_off_c, 0, 72, 127
2, 114759, Note_on_c, 11, 46, 127
2, 114759, Note_on_c, 7, 67, 127
2, 114914, Note_on_c, 10, 69, 127
2, 115068, Note_off_c, 10, 69, 127
2, 115068, Note_off_c, 2, 50, 127
2, 115070, Note_on_c, 7, 55, 127
2, 115070, Note_on_c, 11, 70, 127
2, 115225, Note_off_c, 7, 67, 127
2, 115226, Note_on_c, 7, 67, 127
2, 115372, Note_off_c, 2, 62, 127
2, 115380, Note_off_c, 11, 46, 127
2, 115382, Note_on_c, 2, 50, 127
2, 115382, Note_on_c, 2, 62, 127
2, 115536, Note_off_c, 7, 55, 127
2, 115538, Note_on_c, 6, 54, 127
2, 115692, Note_off_c, 6, 54, 127
2, 115694, Note_on_c, 7, 55, 127
2, 115848, Note_off_c, 7, 55, 127
2, 115850, Note_on_c, 10, 57, 127
2, 116003, Note_off_c, 2, 50, 127
2, 116004, Note_off_c, 10, 57, 127
2, 116005, Note_on_c, 7, 55, 127
2, 116005, Note_on_c, 11, 58, 127
2, 116154, Note_off_c, 11, 70, 127
2, 116158, Note_off_c, 7, 67, 127
2, 116160, Note_off_c, 2, 62, 127
2, 116161, Note_on_c, 7, 67, 127
2, 116313, Note_off_c, 11, 58, 127
2, 116315, Note_off_c, 7, 67, 127
2, 116317, Note_on_c, 10, 69, 127
2, 116471, Note_off_c, 10, 69, 127
2, 116473, Note_on_c, 11, 70, 127
2, 116626, Note_off_c, 7, 55, 127
2, 116627, Note_off_c, 11, 70, 127
2, 116629, Note_on_c, 10, 57, 127
2, 116629, Note_on_c, 0, 72, 127
2, 116785, Note_on_c, 2, 74, 127
2, 116939, Note_off_c, 2, 74, 127
2, 116940, Note_on_c, 3, 75, 127
2, 117096, Note_on_c, 11, 70, 127
2, 117250, Note_off_c, 11, 70, 127
2, 117250, Note_off_c, 10, 57, 127
2, 117252, Note_on_c, 5, 53, 127
2, 117252, Note_on_c, 10, 69, 127
2, 117408, Note_on_c, 7, 67, 127
2, 117562, Note_off_c, 7, 67, 127
2, 117564, Note_on_c, 5, 65, 127
2, 117718, Note_off_c, 5, 65, 127
2, 117720, Note_on_c, 3, 63, 127
2, 117873, Note_off_c, 5, 53, 127
2, 117874, Note_off_c, 3, 63, 127
2, 117876, Note_on_c, 2, 62, 127
2, 118030, Note_off_c, 2, 62, 127
2, 118031, Note_on_c, 0, 60, 127
2, 118185, Note_off_c, 0, 60, 127
2, 118187, Note_on_c, 11, 58, 127
2, 118341, Note_off_c, 11, 58, 127
2, 118343, Note_on_c, 10, 57, 127
2, 118495, Note_off_c, 0, 72, 127
2, 118497, Note_off_c, 10, 57, 127
2, 118497, Note_off_c, 10, 69, 127
2, 118498, Note_off_c, 3, 75, 127
2, 118499, Note_on_c, 11, 58, 127
2, 118499, Note_on_c, 11, 70, 127
2, 118499, Note_on_c, 5, 65, 127
2, 118499, Note_on_c, 2, 74, 127
2, 118653, Note_off_c, 11, 58, 127
2, 118655, Note_on_c, 2, 50, 127
2, 118809, Note_off_c, 2, 50, 127
2, 118809, Note_off_c, 2, 74, 127
2, 118809, Note_off_c, 11, 70, 127
2, 118810, Note_on_c, 3, 51, 127
2, 118810, Note_on_c, 0, 72, 127
2, 118810, Note_on_c, 10, 69, 127
2, 118964, Note_off_c, 3, 51, 127
2, 118967, Note_on_c, 5, 53, 127
2, 119120, Note_off_c, 10, 69, 127
2, 119120, Note_off_c, 0, 72, 127
2, 119121, Note_off_c, 5, 53, 127
2, 119122, Note_on_c, 3, 51, 127
2, 119122, Note_on_c, 2, 74, 127
2, 119122, Note_on_c, 11, 70, 127
2, 119276, Note_off_c, 3, 51, 127
2, 119278, Note_on_c, 2, 50, 127
2, 119432, Note_off_c, 2, 50, 127
2, 119432, Note_off_c, 11, 70, 127
2, 119434, Note_on_c, 0, 48, 127
2, 119434, Note_on_c, 8, 68, 127
2, 119588, Note_off_c, 0, 48, 127
2, 119590, Note_on_c, 11, 46, 127
2, 119744, Note_off_c, 11, 46, 127
2, 119746, Note_on_c, 3, 51, 127
2, 119894, Note_off_c, 5, 65, 127
2, 119900, Note_off_c, 8, 68, 127
2, 119901, Note_on_c, 5, 65, 127
2, 120055, Note_off_c, 5, 65, 127
2, 120056, Note_off_c, 3, 51, 127
2, 120058, Note_on_c, 2, 50, 127
2, 120058, Note_on_c, 7, 67, 127
2, 120212, Note_off_c, 7, 67, 127
2, 120213, Note_on_c, 8, 68, 127
2, 120363, Note_off_c, 2, 74, 127
2, 120367, Note_off_c, 8, 68, 127
2, 120368, Note_off_c, 2, 50, 127
2, 120369, Note_on_c, 3, 51, 127
2, 120369, Note_on_c, 7, 67, 127
2, 120369, Note_on_c, 0, 72, 127
2, 120525, Note_on_c, 5, 65, 127
2, 120679, Note_off_c, 5, 65, 127
2, 120680, Note_on_c, 3, 63, 127
2, 120834, Note_off_c, 3, 63, 127
2, 120837, Note_on_c, 2, 62, 127
2, 120991, Note_off_c, 2, 62, 127
2, 120992, Note_on_c, 3, 63, 127
2, 121146, Note_off_c, 3, 63, 127
2, 121149, Note_on_c, 2, 62, 127
2, 121301, Note_off_c, 0, 72, 127
2, 121303, Note_off_c, 2, 62, 127
2, 121304, Note_on_c, 0, 60, 127
2, 121304, Note_on_c, 2, 74, 127
2, 121458, Note_off_c, 2, 74, 127
2, 121458, Note_off_c, 0, 60, 127
2, 121460, Note_on_c, 11, 58, 127
2, 121460, Note_on_c, 3, 75, 127
2, 121610, Note_off_c, 7, 67, 127
2, 121614, Note_off_c, 3, 75, 127
2, 121614, Note_off_c, 11, 58, 127
2, 121616, Note_on_c, 0, 60, 127
2, 121616, Note_on_c, 5, 65, 127
2, 121616, Note_on_c, 10, 69, 127
2, 121764, Note_off_c, 3, 51, 127
2, 121771, Note_on_c, 3, 51, 127
2, 121925, Note_off_c, 3, 51, 127
2, 121928, Note_on_c, 5, 53, 127
2, 122082, Note_off_c, 5, 53, 127
2, 122083, Note_on_c, 7, 55, 127
2, 122237, Note_off_c, 7, 55, 127
2, 122240, Note_on_c, 5, 53, 127
2, 122394, Note_off_c, 5, 53, 127
2, 122395, Note_on_c, 3, 51, 127
2, 122549, Note_off_c, 3, 51, 127
2, 122550, Note_on_c, 2, 50, 127
2, 122704, Note_off_c, 2, 50, 127
2, 122707, Note_on_c, 0, 48, 127
2, 122861, Note_off_c, 0, 48, 127
2, 122861, Note_off_c, 10, 69, 127
2, 122861, Note_off_c, 0, 60, 127
2, 122862, Note_on_c, 2, 50, 127
2, 122862, Note_on_c, 11, 70, 127
2, 122862, Note_on_c, 11, 58, 127
2, 123016, Note_off_c, 2, 50, 127
2, 123019, Note_on_c, 0, 48, 127
2, 123170, Note_off_c, 11, 58, 127
2, 123173, Note_off_c, 0, 48, 127
2, 123174, Note_off_c, 5, 65, 127
2, 123174, Note_on_c, 11, 46, 127
2, 123328, Note_off_c, 11, 46, 127
2, 123330, Note_on_c, 10, 45, 127
2, 123484, Note_off_c, 10, 45, 127
2, 123486, Note_on_c, 7, 43, 127
2, 123640, Note_off_c, 11, 70, 127
2, 123641, Note_on_c, 10, 69, 127
2, 123795, Note_off_c, 10, 69, 127
2, 123798, Note_on_c, 2, 50, 127
2, 123798, Note_on_c, 11, 70, 127
2, 123952, Note_off_c, 11, 70, 127
2, 123953, Note_on_c, 0, 72, 127
2, 124107, Note_off_c, 0, 72, 127
2, 124108, Note_off_c, 2, 50, 127
2, 124110, Note_on_c, 7, 55, 127
2, 124110, Note_on_c, 11, 70, 127
2, 124264, Note_off_c, 11, 70, 127
2, 124265, Note_on_c, 10, 69, 127
2, 124418, Note_off_c, 7, 43, 127
2, 124419, Note_off_c, 10, 69, 127
2, 124421, Note_on_c, 10, 45, 127
2, 124421, Note_on_c, 7, 67, 127
2, 124575, Note_off_c, 7, 67, 127
2, 124577, Note_on_c, 5, 65, 127
2, 124731, Note_off_c, 5, 65, 127
2, 124731, Note_off_c, 10, 45, 127
2, 124732, Note_on_c, 11, 46, 127
2, 124732, Note_on_c, 7, 67, 127
2, 124886, Note_off_c, 7, 67, 127
2, 124889, Note_on_c, 5, 65, 127
2, 125043, Note_off_c, 5, 65, 127
2, 125044, Note_on_c, 4, 64, 127
2, 125198, Note_off_c, 4, 64, 127
2, 125200, Note_on_c, 2, 62, 127
2, 125354, Note_off_c, 2, 62, 127
2, 125356, Note_on_c, 4, 64, 127
2, 125512, Note_on_c, 2, 62, 127
2, 125666, Note_off_c, 2, 62, 127
2, 125668, Note_off_c, 7, 55, 127
2, 125668, Note_on_c, 0, 60, 127
2, 125822, Note_off_c, 0, 60, 127
2, 125823, Note_on_c, 11, 58, 127
2, 125977, Note_off_c, 11, 58, 127
2, 125980, Note_on_c, 0, 60, 127
2, 126135, Note_on_c, 11, 58, 127
2, 126289, Note_off_c, 11, 58, 127
2, 126291, Note_on_c, 10, 57, 127
2, 126445, Note_off_c, 10, 57, 127
2, 126447, Note_on_c, 7, 55, 127
2, 126597, Note_off_c, 4, 64, 127
2, 126598, Note_off_c, 11, 46, 127
2, 126601, Note_off_c, 7, 55, 127
2, 126603, Note_on_c, 10, 45, 127
2, 126603, Note_on_c, 5, 65, 127
2, 126603, Note_on_c, 10, 57, 127
2, 126759, Note_on_c, 4, 52, 127
2, 126913, Note_off_c, 4, 52, 127
2, 126914, Note_on_c, 5, 53, 127
2, 127068, Note_off_c, 5, 53, 127
2, 127070, Note_on_c, 7, 55, 127
2, 127224, Note_off_c, 7, 55, 127
2, 127226, Note_on_c, 5, 53, 127
2, 127380, Note_off_c, 5, 53, 127
2, 127382, Note_on_c, 4, 52, 127
2, 127536, Note_off_c, 4, 52, 127
2, 127538, Note_on_c, 2, 50, 127
2, 127692, Note_off_c, 2, 50, 127
2, 127694, Note_on_c, 0, 48, 127
2, 127846, Note_off_c, 0, 60, 127
2, 127848, Note_off_c, 0, 48, 127
2, 127848, Note_off_c, 10, 57, 127
2, 127850, Note_on_c, 2, 50, 127
2, 127850, Note_on_c, 11, 58, 127
2, 127998, Note_off_c, 10, 45, 127
2, 128005, Note_on_c, 0, 48, 127
2, 128159, Note_off_c, 0, 48, 127
2, 128161, Note_off_c, 5, 65, 127
2, 128161, Note_on_c, 11, 46, 127
2, 128161, Note_on_c, 5, 65, 127
2, 128315, Note_off_c, 11, 46, 127
2, 128317, Note_on_c, 10, 45, 127
2, 128471, Note_off_c, 10, 45, 127
2, 128471, Note_off_c, 5, 65, 127
2, 128473, Note_on_c, 11, 46, 127
2, 128473, Note_on_c, 7, 67, 127
2, 128627, Note_off_c, 11, 46, 127
2, 128629, Note_on_c, 10, 45, 127
2, 128783, Note_off_c, 10, 45, 127
2, 128783, Note_off_c, 7, 67, 127
2, 128785, Note_on_c, 7, 43, 127
2, 128785, Note_on_c, 10, 69, 127
2, 128939, Note_off_c, 10, 69, 127
2, 128939, Note_off_c, 7, 43, 127
2, 128940, Note_on_c, 5, 41, 127
2, 128940, Note_on_c, 11, 70, 127
2, 129094, Note_off_c, 11, 70, 127
2, 129094, Note_off_c, 5, 41, 127
2, 129096, Note_on_c, 7, 43, 127
2, 129096, Note_on_c, 4, 64, 127
2, 129250, Note_off_c, 7, 43, 127
2, 129252, Note_on_c, 5, 41, 127
2, 129406, Note_off_c, 5, 41, 127
2, 129406, Note_off_c, 4, 64, 127
2, 129408, Note_on_c, 4, 40, 127
2, 129408, Note_on_c, 5, 65, 127
2, 129562, Note_off_c, 4, 40, 127
2, 129564, Note_on_c, 2, 38, 127
2, 129716, Note_off_c, 2, 50, 127
2, 129718, Note_off_c, 2, 38, 127
2, 129718, Note_off_c, 5, 65, 127
2, 129720, Note_on_c, 4, 40, 127
2, 129720, Note_on_c, 0, 48, 127
2, 129720, Note_on_c, 7, 67, 127
2, 129870, Note_off_c, 11, 58, 127
2, 129876, Note_on_c, 11, 58, 127
2, 130030, Note_off_c, 11, 58, 127
2, 130030, Note_off_c, 4, 40, 127
2, 130031, Note_on_c, 0, 36, 127
2, 130031, Note_on_c, 10, 57, 127
2, 130185, Note_off_c, 10, 57, 127
2, 130187, Note_on_c, 7, 55, 127
2, 130341, Note_off_c, 7, 55, 127
2, 130341, Note_off_c, 0, 36, 127
2, 130343, Note_on_c, 5, 41, 127
2, 130343, Note_on_c, 10, 57, 127
2, 130499, Note_off_c, 7, 67, 127
2, 130499, Note_on_c, 0, 60, 127
2, 130653, Note_off_c, 0, 60, 127
2, 130653, Note_off_c, 5, 41, 127
2, 130655, Note_on_c, 4, 40, 127
2, 130655, Note_on_c, 2, 62, 127
2, 130809, Note_off_c, 2, 62, 127
2, 130810, Note_on_c, 4, 64, 127
2, 130961, Note_off_c, 0, 48, 127
2, 130964, Note_off_c, 4, 64, 127
2, 130965, Note_off_c, 4, 40, 127
2, 130967, Note_on_c, 2, 38, 127
2, 130967, Note_on_c, 5, 65, 127
2, 131122, Note_off_c, 10, 57, 127
2, 131122, Note_on_c, 10, 57, 127
2, 131275, Note_off_c, 2, 38, 127
2, 131276, Note_off_c, 10, 57, 127
2, 131278, Note_on_c, 0, 48, 127
2, 131278, Note_on_c, 11, 58, 127
2, 131432, Note_off_c, 11, 58, 127
2, 131434, Note_on_c, 0, 60, 127
2, 131588, Note_off_c, 0, 60, 127
2, 131588, Note_off_c, 0, 48, 127
2, 131590, Note_on_c, 11, 46, 127
2, 131590, Note_on_c, 2, 62, 127
2, 131744, Note_off_c, 2, 62, 127
2, 131746, Note_on_c, 0, 60, 127
2, 131898, Note_off_c, 11, 46, 127
2, 131900, Note_off_c, 0, 60, 127
2, 131901, Note_on_c, 7, 43, 127
2, 131901, Note_on_c, 11, 58, 127
2, 132055, Note_off_c, 11, 58, 127
2, 132058, Note_on_c, 10, 57, 127
2, 132211, Note_off_c, 7, 43, 127
2, 132212, Note_off_c, 10, 57, 127
2, 132213, Note_on_c, 0, 48, 127
2, 132213, Note_on_c, 7, 55, 127
2, 132369, Note_on_c, 11, 58, 127
2, 132525, Note_off_c, 5, 65, 127
2, 132525, Note_on_c, 0, 36, 127
2, 132525, Note_on_c, 5, 65, 127
2, 132679, Note_off_c, 5, 65, 127
2, 132680, Note_on_c, 4, 64, 127
2, 132834, Note_off_c, 4, 64, 127
2, 132834, Note_off_c, 7, 55, 127
2, 132835, Note_off_c, 0, 36, 127
2, 132837, Note_on_c, 5, 41, 127
2, 132837, Note_on_c, 5, 53, 127
2, 132837, Note_on_c, 5, 65, 127
2, 133005, Note_off_c, 11, 58, 127
2, 133006, Note_on_c, 11, 58, 127
2, 133174, Note_off_c, 11, 58, 127
2, 133176, Note_on_c, 10, 57, 127
2, 133344, Note_off_c, 10, 57, 127
2, 133345, Note_on_c, 7, 55, 127
2, 133513, Note_off_c, 7, 55, 127
2, 133515, Note_on_c, 10, 57, 127
2, 133707, Note_off_c, 5, 53, 127
2, 133707, Note_on_c, 7, 55, 127
2, 133896, Note_off_c, 7, 55, 127
2, 133898, Note_on_c, 5, 53, 127
2, 134087, Note_off_c, 5, 53, 127
2, 134088, Note_on_c, 4, 52, 127
2, 134277, Note_off_c, 4, 52, 127
2, 134279, Note_on_c, 5, 53, 127
2, 135504, Note_off_c, 0, 48, 127
2, 136203, Note_off_c, 10, 57, 127
2, 136290, Note_off_c, 5, 41, 127
2, 136378, Note_off_c, 5, 53, 127
2, 137687, Note_off_c, 5, 65, 127
2, 137855, Note_on_c, 5, 65, 127
2, 137990, Note_off_c, 5, 65, 127
2, 137995, Note_on_c, 4, 64, 127
2, 138130, Note_off_c, 4, 64, 127
2, 138136, Note_on_c, 5, 65, 127
2, 138271, Note_off_c, 5, 65, 127
2, 138276, Note_on_c, 0, 72, 127
2, 138619, Note_off_c, 0, 72, 127
2, 138697, Note_on_c, 10, 69, 127
2, 138832, Note_off_c, 10, 69, 127
2, 138837, Note_on_c, 7, 67, 127
2, 138972, Note_off_c, 7, 67, 127
2, 138977, Note_on_c, 10, 69, 127
2, 139112, Note_off_c, 10, 69, 127
2, 139117, Note_on_c, 2, 74, 127
2, 139460, Note_off_c, 2, 74, 127
2, 139539, Note_on_c, 0, 72, 127
2, 139674, Note_off_c, 0, 72, 127
2, 139679, Note_on_c, 2, 74, 127
2, 139814, Note_off_c, 2, 74, 127
2, 139818, Note_on_c, 4, 76, 127
2, 139953, Note_off_c, 4, 76, 127
2, 139959, Note_on_c, 5, 77, 127
2, 140094, Note_off_c, 5, 77, 127
2, 140099, Note_on_c, 4, 76, 127
2, 140234, Note_off_c, 4, 76, 127
2, 140239, Note_on_c, 2, 74, 127
2, 140374, Note_off_c, 2, 74, 127
2, 140380, Note_on_c, 0, 72, 127
2, 140515, Note_off_c, 0, 72, 127
2, 140520, Note_on_c, 2, 74, 127
2, 140655, Note_off_c, 2, 74, 127
2, 140661, Note_on_c, 11, 70, 127
2, 140796, Note_off_c, 11, 70, 127
2, 140800, Note_on_c, 10, 69, 127
2, 140935, Note_off_c, 10, 69, 127
2, 140940, Note_on_c, 7, 67, 127
2, 141075, Note_off_c, 7, 67, 127
2, 141081, Note_on_c, 5, 65, 127
2, 141216, Note_off_c, 5, 65, 127
2, 141221, Note_on_c, 0, 60, 127
2, 141221, Note_on_c, 4, 64, 127
2, 141356, Note_off_c, 0, 60, 127
2, 141362, Note_on_c, 11, 58, 127
2, 141491, Note_off_c, 4, 64, 127
2, 141497, Note_off_c, 11, 58, 127
2, 141502, Note_on_c, 0, 60, 127
2, 141502, Note_on_c, 11, 70, 127
2, 141637, Note_off_c, 11, 70, 127
2, 141637, Note_off_c, 0, 60, 127
2, 141642, Note_on_c, 5, 65, 127
2, 141642, Note_on_c, 10, 69, 127
2, 141912, Note_off_c, 10, 69, 127
2, 141922, Note_on_c, 2, 74, 127
2, 141985, Note_off_c, 5, 65, 127
2, 142055, Note_off_c, 2, 74, 127
2, 142061, Note_on_c, 4, 64, 127
2, 142061, Note_on_c, 7, 67, 127
2, 142196, Note_off_c, 4, 64, 127
2, 142202, Note_on_c, 2, 62, 127
2, 142331, Note_off_c, 7, 67, 127
2, 142337, Note_off_c, 2, 62, 127
2, 142342, Note_on_c, 4, 64, 127
2, 142342, Note_on_c, 2, 74, 127
2, 142477, Note_off_c, 2, 74, 127
2, 142477, Note_off_c, 4, 64, 127
2, 142483, Note_on_c, 10, 69, 127
2, 142483, Note_on_c, 0, 72, 127
2, 142753, Note_off_c, 0, 72, 127
2, 142763, Note_on_c, 5, 77, 127
2, 142826, Note_off_c, 10, 69, 127
2, 142896, Note_off_c, 5, 77, 127
2, 142903, Note_on_c, 7, 67, 127
2, 142903, Note_on_c, 12, 71, 127
2, 143038, Note_off_c, 7, 67, 127
2, 143042, Note_on_c, 10, 69, 127
2, 143173, Note_off_c, 12, 71, 127
2, 143177, Note_off_c, 10, 69, 127
2, 143182, Note_on_c, 12, 71, 127
2, 143182, Note_on_c, 5, 77, 127
2, 143317, Note_off_c, 5, 77, 127
2, 143317, Note_off_c, 12, 71, 127
2, 143323, Note_on_c, 0, 72, 127
2, 143323, Note_on_c, 4, 76, 127
2, 143458, Note_off_c, 4, 76, 127
2, 143458, Note_off_c, 0, 72, 127
2, 143463, Note_on_c, 12, 71, 127
2, 143463, Note_on_c, 2, 74, 127
2, 143598, Note_off_c, 2, 74, 127
2, 143598, Note_off_c, 12, 71, 127
2, 143604, Note_on_c, 10, 69, 127
2, 143604, Note_on_c, 0, 72, 127
2, 143739, Note_off_c, 0, 72, 127
2, 143739, Note_off_c, 10, 69, 127
2, 143744, Note_on_c, 7, 67, 127
2, 143744, Note_on_c, 7, 79, 127
2, 143879, Note_off_c, 7, 67, 127
2, 143884, Note_on_c, 10, 69, 127
2, 144014, Note_off_c, 7, 79, 127
2, 144019, Note_off_c, 10, 69, 127
2, 144024, Note_on_c, 5, 65, 127
2, 144024, Note_on_c, 12, 71, 127
2, 144159, Note_off_c, 12, 71, 127
2, 144159, Note_off_c, 5, 65, 127
2, 144164, Note_on_c, 4, 64, 127
2, 144164, Note_on_c, 0, 72, 127
2, 144299, Note_off_c, 4, 64, 127
2, 144305, Note_on_c, 2, 62, 127
2, 144440, Note_off_c, 2, 62, 127
2, 144445, Note_on_c, 0, 60, 127
2, 144580, Note_off_c, 0, 60, 127
2, 144585, Note_on_c, 2, 62, 127
2, 144714, Note_off_c, 0, 72, 127
2, 144720, Note_off_c, 2, 62, 127
2, 144726, Note_on_c, 4, 64, 127
2, 144726, Note_on_c, 11, 70, 127
2, 144861, Note_off_c, 11, 70, 127
2, 144861, Note_off_c, 4, 64, 127
2, 144866, Note_on_c, 6, 66, 127
2, 144866, Note_on_c, 10, 69, 127
2, 145001, Note_off_c, 10, 69, 127
2, 145001, Note_off_c, 6, 66, 127
2, 145005, Note_on_c, 7, 67, 127
2, 145005, Note_on_c, 11, 70, 127
2, 145140, Note_off_c, 11, 70, 127
2, 145146, Note_on_c, 0, 72, 127
2, 145281, Note_off_c, 0, 72, 127
2, 145286, Note_on_c, 2, 74, 127
2, 145421, Note_off_c, 2, 74, 127
2, 145427, Note_on_c, 3, 75, 127
2, 145555, Note_off_c, 7, 67, 127
2, 145567, Note_on_c, 5, 65, 127
2, 145702, Note_off_c, 5, 65, 127
2, 145707, Note_on_c, 3, 63, 127
2, 145842, Note_off_c, 3, 63, 127
2, 145848, Note_on_c, 5, 65, 127
2, 145977, Note_off_c, 3, 75, 127
2, 145983, Note_off_c, 5, 65, 127
2, 145987, Note_on_c, 7, 67, 127
2, 145987, Note_on_c, 2, 74, 127
2, 146122, Note_off_c, 2, 74, 127
2, 146122, Note_off_c, 7, 67, 127
2, 146128, Note_on_c, 10, 69, 127
2, 146128, Note_on_c, 0, 72, 127
2, 146263, Note_off_c, 0, 72, 127
2, 146263, Note_off_c, 10, 69, 127
2, 146268, Note_on_c, 11, 70, 127
2, 146268, Note_on_c, 2, 74, 127
2, 146403, Note_off_c, 2, 74, 127
2, 146408, Note_on_c, 4, 76, 127
2, 146543, Note_off_c, 4, 76, 127
2, 146549, Note_on_c, 5, 77, 127
2, 146684, Note_off_c, 5, 77, 127
2, 146689, Note_on_c, 7, 79, 127
2, 146818, Note_off_c, 11, 70, 127
2, 146830, Note_on_c, 10, 69, 127
2, 146965, Note_off_c, 10, 69, 127
2, 146970, Note_on_c, 7, 67, 127
2, 147105, Note_off_c, 7, 67, 127
2, 147110, Note_on_c, 10, 69, 127
2, 147239, Note_off_c, 7, 79, 127
2, 147245, Note_off_c, 10, 69, 127
2, 147251, Note_on_c, 12, 71, 127
2, 147251, Note_on_c, 5, 77, 127
2, 147386, Note_off_c, 5, 77, 127
2, 147386, Note_off_c, 12, 71, 127
2, 147391, Note_on_c, 1, 73, 127
2, 147391, Note_on_c, 4, 76, 127
2, 147526, Note_off_c, 4, 76, 127
2, 147526, Note_off_c, 1, 73, 127
2, 147532, Note_on_c, 2, 74, 127
2, 147532, Note_on_c, 5, 77, 127
2, 147667, Note_off_c, 5, 77, 127
2, 147672, Note_on_c, 7, 79, 127
2, 147807, Note_off_c, 7, 79, 127
2, 147812, Note_on_c, 10, 81, 127
2, 147947, Note_off_c, 10, 81, 127
2, 147952, Note_on_c, 11, 82, 127
2, 148082, Note_off_c, 2, 74, 127
2, 148092, Note_on_c, 0, 72, 127
2, 148227, Note_off_c, 0, 72, 127
2, 148233, Note_on_c, 11, 70, 127
2, 148368, Note_off_c, 11, 70, 127
2, 148373, Note_on_c, 0, 72, 127
2, 148502, Note_off_c, 11, 82, 127
2, 148508, Note_off_c, 0, 72, 127
2, 148513, Note_on_c, 2, 74, 127
2, 148513, Note_on_c, 10, 81, 127
2, 148648, Note_off_c, 10, 81, 127
2, 148648, Note_off_c, 2, 74, 127
2, 148654, Note_on_c, 4, 76, 127
2, 148654, Note_on_c, 7, 79, 127
2, 148789, Note_off_c, 7, 79, 127
2, 148789, Note_off_c, 4, 76, 127
2, 148794, Note_on_c, 5, 53, 127
2, 148794, Note_on_c, 5, 77, 127
2, 148794, Note_on_c, 10, 81, 127
2, 148929, Note_off_c, 10, 81, 127
2, 148929, Note_off_c, 5, 53, 127
2, 148933, Note_on_c, 4, 52, 127
2, 148933, Note_on_c, 11, 82, 127
2, 149068, Note_off_c, 11, 82, 127
2, 149068, Note_off_c, 4, 52, 127
2, 149074, Note_on_c, 5, 53, 127
2, 149074, Note_on_c, 10, 81, 127
2, 149209, Note_off_c, 10, 81, 127
2, 149209, Note_off_c, 5, 53, 127
2, 149214, Note_on_c, 0, 60, 127
2, 149214, Note_on_c, 7, 79, 127
2, 149344, Note_off_c, 5, 77, 127
2, 149355, Note_on_c, 4, 76, 127
2, 149490, Note_off_c, 4, 76, 127
2, 149495, Note_on_c, 2, 74, 127
2, 149580, Note_off_c, 0, 60, 127
2, 149631, Note_off_c, 2, 74, 127
2, 149637, Note_on_c, 10, 57, 127
2, 149637, Note_on_c, 0, 72, 127
2, 149765, Note_off_c, 7, 79, 127
2, 149772, Note_off_c, 10, 57, 127
2, 149776, Note_on_c, 7, 55, 127
2, 149776, Note_on_c, 0, 84, 127
2, 149911, Note_off_c, 0, 84, 127
2, 149911, Note_off_c, 7, 55, 127
2, 149916, Note_on_c, 10, 57, 127
2, 149916, Note_on_c, 4, 76, 127
2, 150051, Note_off_c, 4, 76, 127
2, 150051, Note_off_c, 10, 57, 127
2, 150057, Note_on_c, 2, 62, 127
2, 150057, Note_on_c, 5, 77, 127
2, 150187, Note_off_c, 0, 72, 127
2, 150197, Note_on_c, 10, 69, 127
2, 150332, Note_off_c, 10, 69, 127
2, 150337, Note_on_c, 11, 70, 127
2, 150423, Note_off_c, 2, 62, 127
2, 150467, Note_off_c, 5, 77, 127
2, 150478, Note_on_c, 0, 60, 127
2, 150478, Note_on_c, 4, 76, 127
2, 150613, Note_off_c, 4, 76, 127
2, 150613, Note_off_c, 0, 60, 127
2, 150618, Note_on_c, 2, 62, 127
2, 150618, Note_on_c, 5, 77, 127
2, 150753, Note_off_c, 5, 77, 127
2, 150753, Note_off_c, 2, 62, 127
2, 150758, Note_on_c, 4, 64, 127
2, 150758, Note_on_c, 7, 79, 127
2, 150887, Note_off_c, 11, 70, 127
2, 150893, Note_off_c, 7, 79, 127
2, 150893, Note_off_c, 4, 64, 127
2, 150898, Note_on_c, 5, 65, 127
2, 150898, Note_on_c, 10, 69, 127
2, 150898, Note_on_c, 0, 72, 127
2, 151033, Note_off_c, 5, 65, 127
2, 151038, Note_on_c, 4, 64, 127
2, 151168, Note_off_c, 0, 72, 127
2, 151168, Note_off_c, 10, 69, 127
2, 151173, Note_off_c, 4, 64, 127
2, 151179, Note_on_c, 2, 62, 127
2, 151179, Note_on_c, 11, 70, 127
2, 151179, Note_on_c, 5, 77, 127
2, 151314, Note_off_c, 5, 77, 127
2, 151314, Note_off_c, 11, 70, 127
2, 151314, Note_off_c, 2, 62, 127
2, 151319, Note_on_c, 0, 60, 127
2, 151319, Note_on_c, 10, 69, 127
2, 151319, Note_on_c, 5, 77, 127
2, 151454, Note_off_c, 0, 60, 127
2, 151460, Note_on_c, 2, 62, 127
2, 151589, Note_off_c, 5, 77, 127
2, 151589, Note_off_c, 10, 69, 127
2, 151595, Note_off_c, 2, 62, 127
2, 151600, Note_on_c, 11, 58, 127
2, 151600, Note_on_c, 7, 67, 127
2, 151600, Note_on_c, 4, 76, 127
2, 151735, Note_off_c, 4, 76, 127
2, 151735, Note_off_c, 7, 67, 127
2, 151735, Note_off_c, 11, 58, 127
2, 151739, Note_on_c, 10, 57, 127
2, 151739, Note_on_c, 0, 72, 127
2, 151739, Note_on_c, 5, 77, 127
2, 151874, Note_off_c, 0, 72, 127
2, 151874, Note_off_c, 10, 57, 127
2, 151880, Note_on_c, 7, 55, 127
2, 151880, Note_on_c, 11, 70, 127
2, 152015, Note_off_c, 11, 70, 127
2, 152015, Note_off_c, 7, 55, 127
2, 152020, Note_on_c, 5, 53, 127
2, 152020, Note_on_c, 10, 69, 127
2, 152148, Note_off_c, 5, 77, 127
2, 152156, Note_off_c, 10, 69, 127
2, 152156, Note_off_c, 5, 53, 127
2, 152162, Note_on_c, 11, 58, 127
2, 152162, Note_on_c, 7, 67, 127
2, 152297, Note_off_c, 7, 67, 127
2, 152302, Note_on_c, 10, 69, 127
2, 152437, Note_off_c, 10, 69, 127
2, 152442, Note_on_c, 5, 65, 127
2, 152577, Note_off_c, 5, 65, 127
2, 152582, Note_on_c, 4, 64, 127
2, 152582, Note_on_c, 7, 79, 127
2, 152717, Note_off_c, 7, 79, 127
2, 152717, Note_off_c, 4, 64, 127
2, 152722, Note_on_c, 2, 62, 127
2, 152722, Note_on_c, 5, 77, 127
2, 152857, Note_off_c, 5, 77, 127
2, 152857, Note_off_c, 2, 62, 127
2, 152862, Note_on_c, 0, 60, 127
2, 152862, Note_on_c, 4, 76, 127
2, 152993, Note_off_c, 11, 58, 127
2, 152997, Note_off_c, 4, 76, 127
2, 152997, Note_off_c, 0, 60, 127
2, 153003, Note_on_c, 10, 57, 127
2, 153003, Note_on_c, 6, 66, 127
2, 153003, Note_on_c, 2, 74, 127
2, 153138, Note_off_c, 2, 74, 127
2, 153143, Note_on_c, 3, 75, 127
2, 153278, Note_off_c, 3, 75, 127
2, 153284, Note_on_c, 0, 72, 127
2, 153413, Note_off_c, 6, 66, 127
2, 153413, Note_off_c, 10, 57, 127
2, 153419, Note_off_c, 0, 72, 127
2, 153424, Note_on_c, 7, 55, 127
2, 153424, Note_on_c, 7, 67, 127
2, 153424, Note_on_c, 11, 70, 127
2, 153559, Note_off_c, 11, 70, 127
2, 153559, Note_off_c, 7, 55, 127
2, 153563, Note_on_c, 5, 53, 127
2, 153563, Note_on_c, 10, 69, 127
2, 153694, Note_off_c, 7, 67, 127
2, 153699, Note_off_c, 10, 69, 127
2, 153699, Note_off_c, 5, 53, 127
2, 153705, Note_on_c, 4, 52, 127
2, 153705, Note_on_c, 7, 67, 127
2, 153840, Note_off_c, 7, 67, 127
2, 153840, Note_off_c, 4, 52, 127
2, 153845, Note_on_c, 2, 50, 127
2, 153845, Note_on_c, 5, 65, 127
2, 153845, Note_on_c, 10, 69, 127
2, 153980, Note_off_c, 2, 50, 127
2, 153986, Note_on_c, 4, 52, 127
2, 154115, Note_off_c, 10, 69, 127
2, 154121, Note_off_c, 4, 52, 127
2, 154126, Note_on_c, 0, 48, 127
2, 154126, Note_on_c, 2, 74, 127
2, 154261, Note_off_c, 2, 74, 127
2, 154261, Note_off_c, 0, 48, 127
2, 154266, Note_on_c, 12, 47, 127
2, 154266, Note_on_c, 7, 67, 127
2, 154401, Note_off_c, 12, 47, 127
2, 154406, Note_on_c, 10, 45, 127
2, 154536, Note_off_c, 7, 67, 127
2, 154541, Note_off_c, 10, 45, 127
2, 154546, Note_on_c, 7, 43, 127
2, 154546, Note_on_c, 2, 74, 127
2, 154676, Note_off_c, 5, 65, 127
2, 154681, Note_off_c, 2, 74, 127
2, 154681, Note_off_c, 7, 43, 127
2, 154687, Note_on_c, 0, 48, 127
2, 154687, Note_on_c, 4, 64, 127
2, 154687, Note_on_c, 7, 67, 127
2, 154822, Note_off_c, 0, 48, 127
2, 154827, Note_on_c, 12, 47, 127
2, 154957, Note_off_c, 7, 67, 127
2, 154962, Note_off_c, 12, 47, 127
2, 154967, Note_on_c, 0, 48, 127
2, 154967, Note_on_c, 4, 76, 127
2, 155097, Note_off_c, 4, 64, 127
2, 155102, Note_off_c, 0, 48, 127
2, 155108, Note_on_c, 5, 53, 127
2, 155108, Note_on_c, 10, 69, 127
2, 155237, Note_off_c, 4, 76, 127
2, 155248, Note_on_c, 1, 73, 127
2, 155383, Note_off_c, 1, 73, 127
2, 155388, Note_on_c, 2, 74, 127
2, 155474, Note_off_c, 5, 53, 127
2, 155518, Note_off_c, 10, 69, 127
2, 155528, Note_on_c, 4, 52, 127
2, 155528, Note_on_c, 7, 67, 127
2, 155658, Note_off_c, 2, 74, 127
2, 155663, Note_off_c, 4, 52, 127
2, 155668, Note_on_c, 2, 50, 127
2, 155668, Note_on_c, 12, 71, 127
2, 155803, Note_off_c, 12, 71, 127
2, 155803, Note_off_c, 2, 50, 127
2, 155809, Note_on_c, 4, 52, 127
2, 155809, Note_on_c, 0, 72, 127
2, 155938, Note_off_c, 7, 67, 127
2, 155944, Note_off_c, 4, 52, 127
2, 155949, Note_on_c, 10, 57, 127
2, 155949, Note_on_c, 5, 65, 127
2, 156079, Note_off_c, 0, 72, 127
2, 156090, Note_on_c, 4, 76, 127
2, 156225, Note_off_c, 4, 76, 127
2, 156230, Note_on_c, 5, 77, 127
2, 156315, Note_off_c, 10, 57, 127
2, 156366, Note_off_c, 5, 77, 127
2, 156370, Note_on_c, 7, 55, 127
2, 156370, Note_on_c, 12, 71, 127
2, 156505, Note_off_c, 12, 71, 127
2, 156505, Note_off_c, 7, 55, 127
2, 156511, Note_on_c, 10, 57, 127
2, 156511, Note_on_c, 0, 72, 127
2, 156646, Note_off_c, 0, 72, 127
2, 156646, Note_off_c, 10, 57, 127
2, 156651, Note_on_c, 12, 59, 127
2, 156651, Note_on_c, 2, 74, 127
2, 156786, Note_off_c, 2, 74, 127
2, 156786, Note_off_c, 12, 59, 127
2, 156792, Note_on_c, 0, 60, 127
2, 156792, Note_on_c, 7, 67, 127
2, 156921, Note_off_c, 5, 65, 127
2, 156927, Note_off_c, 0, 60, 127
2, 156932, Note_on_c, 12, 59, 127
2, 156932, Note_on_c, 4, 64, 127
2, 157062, Note_off_c, 7, 67, 127
2, 157067, Note_off_c, 4, 64, 127
2, 157067, Note_off_c, 12, 59, 127
2, 157072, Note_on_c, 10, 57, 127
2, 157072, Note_on_c, 5, 65, 127
2, 157072, Note_on_c, 0, 72, 127
2, 157207, Note_off_c, 0, 72, 127
2, 157207, Note_off_c, 5, 65, 127
2, 157207, Note_off_c, 10, 57, 127
2, 157213, Note_on_c, 7, 55, 127
2, 157213, Note_on_c, 4, 64, 127
2, 157213, Note_on_c, 0, 72, 127
2, 157348, Note_off_c, 7, 55, 127
2, 157352, Note_on_c, 10, 57, 127
2, 157483, Note_off_c, 0, 72, 127
2, 157483, Note_off_c, 4, 64, 127
2, 157487, Note_off_c, 10, 57, 127
2, 157492, Note_on_c, 5, 53, 127
2, 157492, Note_on_c, 2, 62, 127
2, 157492, Note_on_c, 12, 71, 127
2, 157627, Note_off_c, 12, 71, 127
2, 157627, Note_off_c, 2, 62, 127
2, 157627, Note_off_c, 5, 53, 127
2, 157633, Note_on_c, 4, 52, 127
2, 157633, Note_on_c, 0, 60, 127
2, 157633, Note_on_c, 0, 72, 127
2, 157768, Note_off_c, 4, 52, 127
2, 157773, Note_on_c, 5, 53, 127
2, 157903, Note_off_c, 0, 72, 127
2, 157908, Note_off_c, 5, 53, 127
2, 157914, Note_on_c, 2, 50, 127
2, 157914, Note_on_c, 7, 67, 127
2, 158049, Note_off_c, 7, 67, 127
2, 158049, Note_off_c, 2, 50, 127
2, 158054, Note_on_c, 0, 48, 127
2, 158054, Note_on_c, 11, 70, 127
2, 158189, Note_off_c, 0, 48, 127
2, 158194, Note_on_c, 2, 50, 127
2, 158324, Note_off_c, 0, 60, 127
2, 158329, Note_off_c, 2, 50, 127
2, 158334, Note_on_c, 4, 52, 127
2, 158334, Note_on_c, 7, 67, 127
2, 158464, Note_off_c, 11, 70, 127
2, 158469, Note_off_c, 4, 52, 127
2, 158474, Note_on_c, 5, 53, 127
2, 158474, Note_on_c, 10, 69, 127
2, 158609, Note_off_c, 5, 53, 127
2, 158615, Note_on_c, 7, 55, 127
2, 158744, Note_off_c, 7, 67, 127
2, 158750, Note_off_c, 7, 55, 127
2, 158755, Note_on_c, 4, 52, 127
2, 158755, Note_on_c, 0, 60, 127
2, 158890, Note_off_c, 0, 60, 127
2, 158890, Note_off_c, 4, 52, 127
2, 158895, Note_on_c, 2, 50, 127
2, 158895, Note_on_c, 5, 65, 127
2, 159030, Note_off_c, 2, 50, 127
2, 159036, Note_on_c, 4, 52, 127
2, 159165, Note_off_c, 10, 69, 127
2, 159171, Note_off_c, 4, 52, 127
2, 159176, Note_on_c, 5, 53, 127
2, 159176, Note_on_c, 2, 74, 127
2, 159311, Note_off_c, 2, 74, 127
2, 159311, Note_off_c, 5, 53, 127
2, 159315, Note_on_c, 7, 55, 127
2, 159315, Note_on_c, 7, 67, 127
2, 159450, Note_off_c, 7, 55, 127
2, 159456, Note_on_c, 10, 57, 127
2, 159586, Note_off_c, 5, 65, 127
2, 159591, Note_off_c, 10, 57, 127
2, 159596, Note_on_c, 5, 53, 127
2, 159596, Note_on_c, 12, 59, 127
2, 159731, Note_off_c, 12, 59, 127
2, 159731, Note_off_c, 5, 53, 127
2, 159737, Note_on_c, 4, 52, 127
2, 159737, Note_on_c, 0, 60, 127
2, 159872, Note_off_c, 0, 60, 127
2, 159872, Note_off_c, 4, 52, 127
2, 159877, Note_on_c, 5, 53, 127
2, 159877, Note_on_c, 2, 62, 127
2, 160006, Note_off_c, 7, 67, 127
2, 160012, Note_off_c, 2, 62, 127
2, 160012, Note_off_c, 5, 53, 127
2, 160017, Note_on_c, 7, 55, 127
2, 160017, Note_on_c, 4, 64, 127
2, 160017, Note_on_c, 7, 67, 127
2, 160152, Note_off_c, 7, 67, 127
2, 160152, Note_off_c, 4, 64, 127
2, 160152, Note_off_c, 7, 55, 127
2, 160158, Note_on_c, 10, 57, 127
2, 160158, Note_on_c, 5, 65, 127
2, 160158, Note_on_c, 0, 72, 127
2, 160293, Note_off_c, 5, 65, 127
2, 160293, Note_off_c, 10, 57, 127
2, 160297, Note_on_c, 7, 55, 127
2, 160297, Note_on_c, 7, 67, 127
2, 160432, Note_off_c, 7, 67, 127
2, 160432, Note_off_c, 7, 55, 127
2, 160438, Note_on_c, 5, 53, 127
2, 160438, Note_on_c, 10, 69, 127
2, 160573, Note_off_c, 10, 69, 127
2, 160573, Note_off_c, 5, 53, 127
2, 160578, Note_on_c, 7, 55, 127
2, 160578, Note_on_c, 2, 62, 127
2, 160708, Note_off_c, 0, 72, 127
2, 160718, Note_on_c, 0, 72, 127
2, 160848, Note_off_c, 7, 55, 127
2, 160853, Note_off_c, 0, 72, 127
2, 160859, Note_on_c, 7, 43, 127
2, 160859, Note_on_c, 12, 71, 127
2, 160988, Note_off_c, 2, 62, 127
2, 160994, Note_off_c, 12, 71, 127
2, 160994, Note_off_c, 7, 43, 127
2, 160999, Note_on_c, 0, 60, 127
2, 160999, Note_on_c, 4, 64, 127
2, 160999, Note_on_c, 0, 72, 127
2, 161134, Note_off_c, 4, 64, 127
2, 161134, Note_off_c, 0, 60, 127
2, 161140, Note_on_c, 12, 59, 127
2, 161140, Note_on_c, 7, 67, 127
2, 161275, Note_off_c, 7, 67, 127
2, 161275, Note_off_c, 12, 59, 127
2, 161280, Note_on_c, 10, 57, 127
2, 161280, Note_on_c, 5, 65, 127
2, 161408, Note_off_c, 0, 72, 127
2, 161416, Note_off_c, 5, 65, 127
2, 161416, Note_off_c, 10, 57, 127
2, 161420, Note_on_c, 7, 55, 127
2, 161420, Note_on_c, 4, 64, 127
2, 161555, Note_off_c, 4, 64, 127
2, 161555, Note_off_c, 7, 55, 127
2, 161561, Note_on_c, 10, 57, 127
2, 161561, Note_on_c, 5, 65, 127
2, 161696, Note_off_c, 5, 65, 127
2, 161696, Note_off_c, 10, 57, 127
2, 161701, Note_on_c, 5, 53, 127
2, 161701, Note_on_c, 2, 62, 127
2, 161836, Note_off_c, 2, 62, 127
2, 161836, Note_off_c, 5, 53, 127
2, 161842, Note_on_c, 4, 52, 127
2, 161842, Note_on_c, 0, 60, 127
2, 161842, Note_on_c, 7, 79, 127
2, 161977, Note_off_c, 7, 79, 127
2, 161977, Note_off_c, 4, 52, 127
2, 161982, Note_on_c, 2, 50, 127
2, 161982, Note_on_c, 5, 77, 127
2, 162117, Note_off_c, 5, 77, 127
2, 162117, Note_off_c, 2, 50, 127
2, 162122, Note_on_c, 0, 48, 127
2, 162122, Note_on_c, 4, 76, 127
2, 162251, Note_off_c, 0, 60, 127
2, 162258, Note_off_c, 4, 76, 127
2, 162258, Note_off_c, 0, 48, 127
2, 162263, Note_on_c, 5, 53, 127
2, 162263, Note_on_c, 2, 74, 127
2, 162398, Note_off_c, 2, 74, 127
2, 162403, Note_on_c, 4, 76, 127
2, 162538, Note_off_c, 4, 76, 127
2, 162544, Note_on_c, 0, 72, 127
2, 162679, Note_off_c, 0, 72, 127
2, 162684, Note_on_c, 2, 62, 127
2, 162684, Note_on_c, 12, 71, 127
2, 162819, Note_off_c, 12, 71, 127
2, 162819, Note_off_c, 2, 62, 127
2, 162824, Note_on_c, 0, 60, 127
2, 162824, Note_on_c, 10, 69, 127
2, 162959, Note_off_c, 10, 69, 127
2, 162959, Note_off_c, 0, 60, 127
2, 162965, Note_on_c, 12, 59, 127
2, 162965, Note_on_c, 7, 67, 127
2, 163094, Note_off_c, 5, 53, 127
2, 163100, Note_off_c, 7, 67, 127
2, 163100, Note_off_c, 12, 59, 127
2, 163105, Note_on_c, 4, 52, 127
2, 163105, Note_on_c, 10, 57, 127
2, 163105, Note_on_c, 1, 73, 127
2, 163240, Note_off_c, 10, 57, 127
2, 163246, Note_on_c, 11, 58, 127
2, 163381, Note_off_c, 11, 58, 127
2, 163386, Note_on_c, 7, 55, 127
2, 163448, Note_off_c, 1, 73, 127
2, 163515, Note_off_c, 4, 52, 127
2, 163521, Note_off_c, 7, 55, 127
2, 163526, Note_on_c, 2, 50, 127
2, 163526, Note_on_c, 5, 53, 127
2, 163526, Note_on_c, 10, 81, 127
2, 163661, Note_off_c, 10, 81, 127
2, 163661, Note_off_c, 5, 53, 127
2, 163667, Note_on_c, 4, 52, 127
2, 163667, Note_on_c, 7, 79, 127
2, 163796, Note_off_c, 2, 50, 127
2, 163803, Note_off_c, 7, 79, 127
2, 163803, Note_off_c, 4, 52, 127
2, 163807, Note_on_c, 2, 50, 127
2, 163807, Note_on_c, 5, 77, 127
2, 163942, Note_off_c, 5, 77, 127
2, 163942, Note_off_c, 2, 50, 127
2, 163948, Note_on_c, 11, 46, 127
2, 163948, Note_on_c, 7, 55, 127
2, 163948, Note_on_c, 4, 76, 127
2, 164083, Note_off_c, 4, 76, 127
2, 164088, Note_on_c, 5, 77, 127
2, 164223, Note_off_c, 5, 77, 127
2, 164228, Note_on_c, 2, 74, 127
2, 164358, Note_off_c, 11, 46, 127
2, 164363, Note_off_c, 2, 74, 127
2, 164369, Note_on_c, 10, 45, 127
2, 164369, Note_on_c, 1, 73, 127
2, 164504, Note_off_c, 1, 73, 127
2, 164509, Note_on_c, 12, 71, 127
2, 164644, Note_off_c, 12, 71, 127
2, 164650, Note_on_c, 10, 69, 127
2, 164779, Note_off_c, 7, 55, 127
2, 164785, Note_off_c, 10, 69, 127
2, 164789, Note_on_c, 5, 53, 127
2, 164789, Note_on_c, 2, 74, 127
2, 164924, Note_off_c, 5, 53, 127
2, 164929, Note_on_c, 4, 52, 127
2, 165064, Note_off_c, 4, 52, 127
2, 165070, Note_on_c, 2, 50, 127
2, 165205, Note_off_c, 2, 50, 127
2, 165210, Note_on_c, 4, 52, 127
2, 165339, Note_off_c, 2, 74, 127
2, 165345, Note_off_c, 4, 52, 127
2, 165351, Note_on_c, 6, 54, 127
2, 165351, Note_on_c, 0, 72, 127
2, 165486, Note_off_c, 0, 72, 127
2, 165486, Note_off_c, 6, 54, 127
2, 165491, Note_on_c, 8, 56, 127
2, 165491, Note_on_c, 12, 71, 127
2, 165626, Note_off_c, 12, 71, 127
2, 165626, Note_off_c, 8, 56, 127
2, 165631, Note_on_c, 10, 57, 127
2, 165631, Note_on_c, 0, 72, 127
2, 165762, Note_off_c, 10, 45, 127
2, 165771, Note_on_c, 11, 46, 127
2, 165906, Note_off_c, 11, 46, 127
2, 165911, Note_on_c, 0, 48, 127
2, 166040, Note_off_c, 10, 57, 127
2, 166047, Note_off_c, 0, 48, 127
2, 166053, Note_on_c, 2, 50, 127
2, 166182, Note_off_c, 0, 72, 127
2, 166188, Note_off_c, 2, 50, 127
2, 166193, Note_on_c, 4, 52, 127
2, 166193, Note_on_c, 11, 70, 127
2, 166328, Note_off_c, 11, 70, 127
2, 166328, Note_off_c, 4, 52, 127
2, 166333, Note_on_c, 6, 54, 127
2, 166333, Note_on_c, 10, 69, 127
2, 166468, Note_off_c, 10, 69, 127
2, 166468, Note_off_c, 6, 54, 127
2, 166474, Note_on_c, 7, 55, 127
2, 166474, Note_on_c, 11, 70, 127
2, 166614, Note_on_c, 10, 57, 127
2, 166744, Note_off_c, 7, 55, 127
2, 166749, Note_off_c, 10, 57, 127
2, 166753, Note_on_c, 5, 53, 127
2, 166753, Note_on_c, 11, 58, 127
2, 166888, Note_off_c, 11, 58, 127
2, 166888, Note_off_c, 5, 53, 127
2, 166894, Note_on_c, 4, 52, 127
2, 166894, Note_on_c, 0, 60, 127
2, 167024, Note_off_c, 11, 70, 127
2, 167034, Note_on_c, 0, 72, 127
2, 167169, Note_off_c, 0, 72, 127
2, 167175, Note_on_c, 11, 70, 127
2, 167304, Note_off_c, 4, 52, 127
2, 167310, Note_off_c, 11, 70, 127
2, 167315, Note_on_c, 3, 51, 127
2, 167315, Note_on_c, 10, 69, 127
2, 167450, Note_off_c, 10, 69, 127
2, 167455, Note_on_c, 11, 70, 127
2, 167590, Note_off_c, 11, 70, 127
2, 167596, Note_on_c, 7, 67, 127
2, 167725, Note_off_c, 3, 51, 127
2, 167731, Note_off_c, 7, 67, 127
2, 167735, Note_on_c, 2, 50, 127
2, 167735, Note_on_c, 6, 66, 127
2, 167870, Note_off_c, 6, 66, 127
2, 167876, Note_on_c, 4, 64, 127
2, 168011, Note_off_c, 4, 64, 127
2, 168016, Note_on_c, 2, 62, 127
2, 168146, Note_off_c, 0, 60, 127
2, 168151, Note_off_c, 2, 62, 127
2, 168156, Note_on_c, 11, 58, 127
2, 168156, Note_on_c, 7, 67, 127
2, 168291, Note_off_c, 11, 58, 127
2, 168297, Note_on_c, 10, 57, 127
2, 168432, Note_off_c, 10, 57, 127
2, 168437, Note_on_c, 7, 55, 127
2, 168572, Note_off_c, 7, 55, 127
2, 168578, Note_on_c, 10, 57, 127
2, 168706, Note_off_c, 7, 67, 127
2, 168713, Note_off_c, 10, 57, 127
2, 168717, Note_on_c, 12, 59, 127
2, 168717, Note_on_c, 5, 65, 127
2, 168852, Note_off_c, 5, 65, 127
2, 168852, Note_off_c, 12, 59, 127
2, 168857, Note_on_c, 1, 61, 127
2, 168857, Note_on_c, 4, 64, 127
2, 168992, Note_off_c, 4, 64, 127
2, 168992, Note_off_c, 1, 61, 127
2, 168998, Note_on_c, 2, 62, 127
2, 168998, Note_on_c, 5, 65, 127
2, 169128, Note_off_c, 2, 50, 127
2, 169133, Note_off_c, 5, 65, 127
2, 169138, Note_on_c, 4, 52, 127
2, 169138, Note_on_c, 7, 67, 127
2, 169273, Note_off_c, 7, 67, 127
2, 169273, Note_off_c, 4, 52, 127
2, 169278, Note_on_c, 5, 53, 127
2, 169278, Note_on_c, 10, 69, 127
2, 169413, Note_off_c, 10, 69, 127
2, 169413, Note_off_c, 5, 53, 127
2, 169419, Note_on_c, 7, 55, 127
2, 169419, Note_on_c, 11, 70, 127
2, 169548, Note_off_c, 2, 62, 127
2, 169559, Note_on_c, 0, 60, 127
2, 169694, Note_off_c, 0, 60, 127
2, 169699, Note_on_c, 11, 58, 127
2, 169762, Note_off_c, 7, 55, 127
2, 169832, Note_off_c, 11, 58, 127
2, 169838, Note_on_c, 4, 52, 127
2, 169838, Note_on_c, 0, 60, 127
2, 169969, Note_off_c, 11, 70, 127
2, 169978, Note_on_c, 10, 69, 127
2, 170113, Note_off_c, 10, 69, 127
2, 170119, Note_on_c, 7, 67, 127
2, 170181, Note_off_c, 4, 52, 127
2, 170252, Note_off_c, 7, 67, 127
2, 170258, Note_on_c, 5, 53, 127
2, 170258, Note_on_c, 10, 69, 127
2, 170388, Note_off_c, 0, 60, 127
2, 170398, Note_on_c, 2, 62, 127
2, 170533, Note_off_c, 2, 62, 127
2, 170539, Note_on_c, 4, 64, 127
2, 170674, Note_off_c, 4, 64, 127
2, 170679, Note_on_c, 5, 65, 127
2, 170808, Note_off_c, 10, 69, 127
2, 170808, Note_off_c, 5, 53, 127
2, 170819, Note_on_c, 7, 55, 127
2, 170819, Note_on_c, 11, 70, 127
2, 170954, Note_off_c, 11, 70, 127
2, 170954, Note_off_c, 7, 55, 127
2, 170959, Note_on_c, 10, 57, 127
2, 170959, Note_on_c, 0, 72, 127
2, 171094, Note_off_c, 0, 72, 127
2, 171094, Note_off_c, 10, 57, 127
2, 171099, Note_on_c, 11, 58, 127
2, 171099, Note_on_c, 2, 74, 127
2, 171229, Note_off_c, 5, 65, 127
2, 171240, Note_on_c, 4, 64, 127
2, 171375, Note_off_c, 4, 64, 127
2, 171380, Note_on_c, 2, 62, 127
2, 171442, Note_off_c, 11, 58, 127
2, 171513, Note_off_c, 2, 62, 127
2, 171519, Note_on_c, 7, 55, 127
2, 171519, Note_on_c, 4, 64, 127
2, 171649, Note_off_c, 2, 74, 127
2, 171660, Note_on_c, 0, 72, 127
2, 171795, Note_off_c, 0, 72, 127
2, 171800, Note_on_c, 11, 70, 127
2, 171862, Note_off_c, 7, 55, 127
2, 171933, Note_off_c, 11, 70, 127
2, 171940, Note_on_c, 10, 57, 127
2, 171940, Note_on_c, 0, 72, 127
2, 172069, Note_off_c, 4, 64, 127
2, 172080, Note_on_c, 5, 65, 127
2, 172215, Note_off_c, 5, 65, 127
2, 172220, Note_on_c, 7, 67, 127
2, 172355, Note_off_c, 7, 67, 127
2, 172361, Note_on_c, 10, 69, 127
2, 172490, Note_off_c, 0, 72, 127
2, 172490, Note_off_c, 10, 57, 127
2, 172501, Note_on_c, 11, 58, 127
2, 172501, Note_on_c, 2, 74, 127
2, 172636, Note_off_c, 2, 74, 127
2, 172636, Note_off_c, 11, 58, 127
2, 172642, Note_on_c, 0, 60, 127
2, 172642, Note_on_c, 4, 76, 127
2, 172777, Note_off_c, 4, 76, 127
2, 172777, Note_off_c, 0, 60, 127
2, 172782, Note_on_c, 2, 62, 127
2, 172782, Note_on_c, 5, 77, 127
2, 172911, Note_off_c, 10, 69, 127
2, 172922, Note_on_c, 7, 67, 127
2, 173057, Note_off_c, 7, 67, 127
2, 173062, Note_on_c, 5, 65, 127
2, 173148, Note_off_c, 2, 62, 127
2, 173198, Note_off_c, 5, 65, 127
2, 173203, Note_on_c, 12, 59, 127
2, 173203, Note_on_c, 7, 67, 127
2, 173333, Note_off_c, 5, 77, 127
2, 173344, Note_on_c, 4, 76, 127
2, 173479, Note_off_c, 4, 76, 127
2, 173484, Note_on_c, 2, 74, 127
2, 173569, Note_off_c, 12, 59, 127
2, 173620, Note_off_c, 2, 74, 127
2, 173624, Note_on_c, 0, 60, 127
2, 173624, Note_on_c, 4, 76, 127
2, 173754, Note_off_c, 7, 67, 127
2, 173765, Note_on_c, 10, 69, 127
2, 173900, Note_off_c, 10, 69, 127
2, 173905, Note_on_c, 12, 71, 127
2, 174040, Note_off_c, 12, 71, 127
2, 174046, Note_on_c, 0, 72, 127
2, 174174, Note_off_c, 4, 76, 127
2, 174174, Note_off_c, 0, 60, 127
2, 174186, Note_on_c, 2, 62, 127
2, 174186, Note_on_c, 5, 77, 127
2, 174321, Note_off_c, 5, 77, 127
2, 174321, Note_off_c, 2, 62, 127
2, 174326, Note_on_c, 4, 64, 127
2, 174326, Note_on_c, 7, 79, 127
2, 174455, Note_off_c, 0, 72, 127
2, 174462, Note_off_c, 7, 79, 127
2, 174462, Note_off_c, 4, 64, 127
2, 174467, Note_on_c, 5, 65, 127
2, 174467, Note_on_c, 10, 81, 127
2, 174602, Note_off_c, 10, 81, 127
2, 174602, Note_off_c, 5, 65, 127
2, 174607, Note_on_c, 4, 64, 127
2, 174607, Note_on_c, 7, 79, 127
2, 174742, Note_off_c, 7, 79, 127
2, 174742, Note_off_c, 4, 64, 127
2, 174748, Note_on_c, 2, 62, 127
2, 174748, Note_on_c, 5, 77, 127
2, 174883, Note_off_c, 5, 77, 127
2, 174883, Note_off_c, 2, 62, 127
2, 174888, Note_on_c, 0, 60, 127
2, 174888, Note_on_c, 4, 76, 127
2, 175023, Note_off_c, 4, 76, 127
2, 175023, Note_off_c, 0, 60, 127
2, 175028, Note_on_c, 2, 62, 127
2, 175028, Note_on_c, 5, 77, 127
2, 175092, Note_off_c, 5, 77, 127
2, 175098, Note_on_c, 4, 76, 127
2, 175162, Note_off_c, 4, 76, 127
2, 175163, Note_off_c, 2, 62, 127
2, 175169, Note_on_c, 11, 58, 127
2, 175169, Note_on_c, 2, 74, 127
2, 175233, Note_off_c, 2, 74, 127
2, 175238, Note_on_c, 0, 72, 127
2, 175302, Note_off_c, 0, 72, 127
2, 175304, Note_off_c, 11, 58, 127
2, 175309, Note_on_c, 10, 57, 127
2, 175309, Note_on_c, 5, 77, 127
2, 175444, Note_off_c, 10, 57, 127
2, 175450, Note_on_c, 7, 55, 127
2, 175585, Note_off_c, 7, 55, 127
2, 175589, Note_on_c, 5, 53, 127
2, 175589, Note_on_c, 2, 74, 127
2, 175724, Note_off_c, 2, 74, 127
2, 175724, Note_off_c, 5, 53, 127
2, 175729, Note_on_c, 7, 55, 127
2, 175729, Note_on_c, 12, 71, 127
2, 175864, Note_off_c, 7, 55, 127
2, 175870, Note_on_c, 10, 57, 127
2, 175999, Note_off_c, 12, 71, 127
2, 176005, Note_off_c, 10, 57, 127
2, 176010, Note_on_c, 12, 59, 127
2, 176010, Note_on_c, 7, 67, 127
2, 176140, Note_off_c, 5, 77, 127
2, 176145, Note_off_c, 12, 59, 127
2, 176151, Note_on_c, 0, 60, 127
2, 176151, Note_on_c, 3, 75, 127
2, 176286, Note_off_c, 3, 75, 127
2, 176286, Note_off_c, 0, 60, 127
2, 176291, Note_on_c, 12, 59, 127
2, 176291, Note_on_c, 7, 79, 127
2, 176420, Note_off_c, 7, 67, 127
2, 176426, Note_off_c, 7, 79, 127
2, 176426, Note_off_c, 12, 59, 127
2, 176431, Note_on_c, 10, 57, 127
2, 176431, Note_on_c, 0, 72, 127
2, 176431, Note_on_c, 6, 78, 127
2, 176566, Note_off_c, 6, 78, 127
2, 176566, Note_off_c, 0, 72, 127
2, 176566, Note_off_c, 10, 57, 127
2, 176571, Note_on_c, 7, 55, 127
2, 176571, Note_on_c, 12, 71, 127
2, 176571, Note_on_c, 7, 79, 127
2, 176706, Note_off_c, 12, 71, 127
2, 176706, Note_off_c, 7, 55, 127
2, 176711, Note_on_c, 8, 56, 127
2, 176711, Note_on_c, 0, 72, 127
2, 176846, Note_off_c, 0, 72, 127
2, 176846, Note_off_c, 8, 56, 127
2, 176851, Note_on_c, 5, 53, 127
2, 176851, Note_on_c, 2, 74, 127
2, 176986, Note_off_c, 2, 74, 127
2, 176986, Note_off_c, 5, 53, 127
2, 176992, Note_on_c, 3, 51, 127
2, 176992, Note_on_c, 0, 72, 127
2, 177127, Note_off_c, 0, 72, 127
2, 177127, Note_off_c, 3, 51, 127
2, 177132, Note_on_c, 2, 50, 127
2, 177132, Note_on_c, 2, 74, 127
2, 177267, Note_off_c, 2, 74, 127
2, 177267, Note_off_c, 2, 50, 127
2, 177273, Note_on_c, 0, 48, 127
2, 177273, Note_on_c, 3, 75, 127
2, 177402, Note_off_c, 7, 79, 127
2, 177408, Note_off_c, 3, 75, 127
2, 177408, Note_off_c, 0, 48, 127
2, 177413, Note_on_c, 2, 50, 127
2, 177413, Note_on_c, 10, 69, 127
2, 177413, Note_on_c, 6, 78, 127
2, 177548, Note_off_c, 6, 78, 127
2, 177548, Note_off_c, 2, 50, 127
2, 177552, Note_on_c, 4, 52, 127
2, 177552, Note_on_c, 7, 79, 127
2, 177687, Note_off_c, 7, 79, 127
2, 177687, Note_off_c, 4, 52, 127
2, 177693, Note_on_c, 6, 54, 127
2, 177693, Note_on_c, 10, 81, 127
2, 177823, Note_off_c, 10, 69, 127
2, 177828, Note_off_c, 10, 81, 127
2, 177828, Note_off_c, 6, 54, 127
2, 177833, Note_on_c, 7, 55, 127
2, 177833, Note_on_c, 0, 72, 127
2, 177968, Note_off_c, 7, 55, 127
2, 177974, Note_on_c, 5, 53, 127
2, 177974, Note_on_c, 2, 74, 127
2, 178103, Note_off_c, 0, 72, 127
2, 178109, Note_off_c, 2, 74, 127
2, 178109, Note_off_c, 5, 53, 127
2, 178114, Note_on_c, 3, 51, 127
2, 178114, Note_on_c, 7, 67, 127
2, 178114, Note_on_c, 0, 72, 127
2, 178249, Note_off_c, 0, 72, 127
2, 178249, Note_off_c, 7, 67, 127
2, 178249, Note_off_c, 3, 51, 127
2, 178254, Note_on_c, 2, 50, 127
2, 178254, Note_on_c, 7, 67, 127
2, 178254, Note_on_c, 11, 70, 127
2, 178389, Note_off_c, 11, 70, 127
2, 178389, Note_off_c, 2, 50, 127
2, 178395, Note_on_c, 3, 51, 127
2, 178395, Note_on_c, 0, 72, 127
2, 178524, Note_off_c, 7, 67, 127
2, 178530, Note_off_c, 0, 72, 127
2, 178530, Note_off_c, 3, 51, 127
2, 178534, Note_on_c, 0, 48, 127
2, 178534, Note_on_c, 6, 66, 127
2, 178534, Note_on_c, 10, 69, 127
2, 178669, Note_off_c, 10, 69, 127
2, 178669, Note_off_c, 6, 66, 127
2, 178669, Note_off_c, 0, 48, 127
2, 178674, Note_on_c, 11, 46, 127
2, 178674, Note_on_c, 7, 67, 127
2, 178809, Note_off_c, 11, 46, 127
2, 178815, Note_on_c, 10, 45, 127
2, 178950, Note_off_c, 10, 45, 127
2, 178955, Note_on_c, 7, 43, 127
2, 178955, Note_on_c, 3, 75, 127
2, 179090, Note_off_c, 3, 75, 127
2, 179090, Note_off_c, 7, 43, 127
2, 179096, Note_on_c, 10, 45, 127
2, 179096, Note_on_c, 1, 73, 127
2, 179231, Note_off_c, 10, 45, 127
2, 179236, Note_on_c, 12, 47, 127
2, 179366, Note_off_c, 1, 73, 127
2, 179371, Note_off_c, 12, 47, 127
2, 179376, Note_on_c, 1, 49, 127
2, 179376, Note_on_c, 10, 69, 127
2, 179505, Note_off_c, 7, 67, 127
2, 179511, Note_off_c, 1, 49, 127
2, 179516, Note_on_c, 2, 50, 127
2, 179516, Note_on_c, 5, 65, 127
2, 179646, Note_off_c, 10, 69, 127
2, 179651, Note_off_c, 2, 50, 127
2, 179656, Note_on_c, 0, 48, 127
2, 179656, Note_on_c, 10, 69, 127
2, 179786, Note_off_c, 5, 65, 127
2, 179791, Note_off_c, 10, 69, 127
2, 179791, Note_off_c, 0, 48, 127
2, 179797, Note_on_c, 11, 46, 127
2, 179797, Note_on_c, 7, 67, 127
2, 179797, Note_on_c, 2, 74, 127
2, 179932, Note_off_c, 2, 74, 127
2, 179932, Note_off_c, 7, 67, 127
2, 179932, Note_off_c, 11, 46, 127
2, 179937, Note_on_c, 10, 45, 127
2, 179937, Note_on_c, 10, 69, 127
2, 179937, Note_on_c, 1, 73, 127
2, 180072, Note_off_c, 1, 73, 127
2, 180072, Note_off_c, 10, 45, 127
2, 180077, Note_on_c, 11, 46, 127
2, 180077, Note_on_c, 2, 74, 127
2, 180212, Note_off_c, 2, 74, 127
2, 180212, Note_off_c, 11, 46, 127
2, 180218, Note_on_c, 7, 43, 127
2, 180218, Note_on_c, 4, 76, 127
2, 180346, Note_off_c, 10, 69, 127
2, 180354, Note_off_c, 4, 76, 127
2, 180354, Note_off_c, 7, 43, 127
2, 180359, Note_on_c, 5, 41, 127
2, 180359, Note_on_c, 2, 74, 127
2, 180494, Note_off_c, 2, 74, 127
2, 180494, Note_off_c, 5, 41, 127
2, 180499, Note_on_c, 4, 40, 127
2, 180499, Note_on_c, 4, 76, 127
2, 180634, Note_off_c, 4, 76, 127
2, 180634, Note_off_c, 4, 40, 127
2, 180639, Note_on_c, 2, 38, 127
2, 180639, Note_on_c, 5, 77, 127
2, 180774, Note_off_c, 5, 77, 127
2, 180774, Note_off_c, 2, 38, 127
2, 180779, Note_on_c, 2, 50, 127
2, 180779, Note_on_c, 5, 53, 127
2, 180779, Note_on_c, 11, 70, 127
2, 180914, Note_off_c, 5, 53, 127
2, 180920, Note_on_c, 4, 52, 127
2, 181055, Note_off_c, 4, 52, 127
2, 181060, Note_on_c, 5, 53, 127
2, 181189, Note_off_c, 2, 50, 127
2, 181195, Note_off_c, 5, 53, 127
2, 181201, Note_on_c, 4, 52, 127
2, 181201, Note_on_c, 0, 60, 127
2, 181329, Note_off_c, 11, 70, 127
2, 181341, Note_on_c, 4, 76, 127
2, 181476, Note_off_c, 4, 76, 127
2, 181480, Note_on_c, 7, 79, 127
2, 181544, Note_off_c, 0, 60, 127
2, 181611, Note_off_c, 4, 52, 127
2, 181615, Note_off_c, 7, 79, 127
2, 181621, Note_on_c, 3, 51, 127
2, 181621, Note_on_c, 10, 57, 127
2, 181621, Note_on_c, 0, 72, 127
2, 181756, Note_off_c, 10, 57, 127
2, 181761, Note_on_c, 7, 55, 127
2, 181896, Note_off_c, 7, 55, 127
2, 181902, Note_on_c, 10, 57, 127
2, 182031, Note_off_c, 3, 51, 127
2, 182037, Note_off_c, 10, 57, 127
2, 182042, Note_on_c, 2, 50, 127
2, 182042, Note_on_c, 2, 62, 127
2, 182171, Note_off_c, 0, 72, 127
2, 182177, Note_off_c, 2, 50, 127
2, 182182, Note_on_c, 4, 52, 127
2, 182182, Note_on_c, 11, 70, 127
2, 182317, Note_off_c, 11, 70, 127
2, 182317, Note_off_c, 4, 52, 127
2, 182323, Note_on_c, 5, 53, 127
2, 182323, Note_on_c, 10, 69, 127
2, 182385, Note_off_c, 2, 62, 127
2, 182456, Note_off_c, 10, 69, 127
2, 182456, Note_off_c, 5, 53, 127
2, 182461, Note_on_c, 4, 52, 127
2, 182461, Note_on_c, 0, 60, 127
2, 182461, Note_on_c, 11, 70, 127
2, 182596, Note_off_c, 0, 60, 127
2, 182596, Note_off_c, 4, 52, 127
2, 182601, Note_on_c, 5, 53, 127
2, 182601, Note_on_c, 2, 62, 127
2, 182736, Note_off_c, 2, 62, 127
2, 182736, Note_off_c, 5, 53, 127
2, 182742, Note_on_c, 7, 55, 127
2, 182742, Note_on_c, 4, 64, 127
2, 182877, Note_off_c, 4, 64, 127
2, 182877, Note_off_c, 7, 55, 127
2, 182882, Note_on_c, 10, 45, 127
2, 182882, Note_on_c, 5, 65, 127
2, 183017, Note_off_c, 5, 65, 127
2, 183023, Note_on_c, 4, 64, 127
2, 183152, Note_off_c, 10, 45, 127
2, 183152, Note_off_c, 11, 70, 127
2, 183158, Note_off_c, 4, 64, 127
2, 183163, Note_on_c, 11, 46, 127
2, 183163, Note_on_c, 2, 62, 127
2, 183163, Note_on_c, 11, 70, 127
2, 183298, Note_off_c, 11, 70, 127
2, 183298, Note_off_c, 2, 62, 127
2, 183298, Note_off_c, 11, 46, 127
2, 183303, Note_on_c, 0, 48, 127
2, 183303, Note_on_c, 0, 60, 127
2, 183303, Note_on_c, 10, 69, 127
2, 183438, Note_off_c, 0, 60, 127
2, 183443, Note_on_c, 2, 62, 127
2, 183573, Note_off_c, 10, 69, 127
2, 183573, Note_off_c, 0, 48, 127
2, 183578, Note_off_c, 2, 62, 127
2, 183583, Note_on_c, 1, 49, 127
2, 183583, Note_on_c, 11, 58, 127
2, 183583, Note_on_c, 7, 67, 127
2, 183718, Note_off_c, 7, 67, 127
2, 183718, Note_off_c, 11, 58, 127
2, 183718, Note_off_c, 1, 49, 127
2, 183723, Note_on_c, 2, 50, 127
2, 183723, Note_on_c, 10, 57, 127
2, 183723, Note_on_c, 5, 65, 127
2, 183858, Note_off_c, 10, 57, 127
2, 183864, Note_on_c, 7, 55, 127
2, 183999, Note_off_c, 7, 55, 127
2, 184004, Note_on_c, 5, 53, 127
2, 184139, Note_off_c, 5, 53, 127
2, 184145, Note_on_c, 11, 58, 127
2, 184273, Note_off_c, 5, 65, 127
2, 184273, Note_off_c, 2, 50, 127
2, 184285, Note_on_c, 0, 48, 127
2, 184285, Note_on_c, 3, 63, 127
2, 184420, Note_off_c, 3, 63, 127
2, 184420, Note_off_c, 0, 48, 127
2, 184424, Note_on_c, 11, 46, 127
2, 184424, Note_on_c, 2, 62, 127
2, 184559, Note_off_c, 2, 62, 127
2, 184559, Note_off_c, 11, 46, 127
2, 184565, Note_on_c, 5, 53, 127
2, 184565, Note_on_c, 0, 60, 127
2, 184695, Note_off_c, 11, 58, 127
2, 184705, Note_on_c, 10, 57, 127
2, 184840, Note_off_c, 10, 57, 127
2, 184846, Note_on_c, 7, 55, 127
2, 184981, Note_off_c, 7, 55, 127
2, 184986, Note_on_c, 10, 57, 127
2, 185115, Note_off_c, 0, 60, 127
2, 185126, Note_on_c, 2, 62, 127
2, 185256, Note_off_c, 5, 53, 127
2, 185261, Note_off_c, 2, 62, 127
2, 185267, Note_on_c, 3, 51, 127
2, 185267, Note_on_c, 3, 63, 127
2, 185402, Note_off_c, 3, 63, 127
2, 185402, Note_off_c, 3, 51, 127
2, 185407, Note_on_c, 2, 50, 127
2, 185407, Note_on_c, 5, 65, 127
2, 185536, Note_off_c, 10, 57, 127
2, 185548, Note_on_c, 11, 58, 127
2, 185677, Note_off_c, 2, 50, 127
2, 185683, Note_off_c, 11, 58, 127
2, 185688, Note_on_c, 0, 48, 127
2, 185688, Note_on_c, 0, 60, 127
2, 185823, Note_off_c, 0, 60, 127
2, 185823, Note_off_c, 0, 48, 127
2, 185828, Note_on_c, 11, 46, 127
2, 185828, Note_on_c, 2, 62, 127
2, 185957, Note_off_c, 5, 65, 127
2, 185969, Note_on_c, 7, 67, 127
2, 186098, Note_off_c, 11, 46, 127
2, 186104, Note_off_c, 7, 67, 127
2, 186109, Note_on_c, 10, 45, 127
2, 186109, Note_on_c, 10, 69, 127
2, 186244, Note_off_c, 10, 69, 127
2, 186244, Note_off_c, 10, 45, 127
2, 186250, Note_on_c, 7, 43, 127
2, 186250, Note_on_c, 11, 70, 127
2, 186378, Note_off_c, 2, 62, 127
2, 186389, Note_on_c, 3, 63, 127
2, 186520, Note_off_c, 7, 43, 127
2, 186524, Note_off_c, 3, 63, 127
2, 186529, Note_on_c, 5, 41, 127
2, 186529, Note_on_c, 5, 65, 127
2, 186664, Note_off_c, 5, 65, 127
2, 186664, Note_off_c, 5, 41, 127
2, 186670, Note_on_c, 3, 39, 127
2, 186670, Note_on_c, 7, 67, 127
2, 186800, Note_off_c, 11, 70, 127
2, 186810, Note_on_c, 0, 72, 127
2, 186940, Note_off_c, 3, 39, 127
2, 186945, Note_off_c, 0, 72, 127
2, 186951, Note_on_c, 2, 38, 127
2, 186951, Note_on_c, 2, 74, 127
2, 187086, Note_off_c, 2, 74, 127
2, 187086, Note_off_c, 2, 38, 127
2, 187091, Note_on_c, 0, 36, 127
2, 187091, Note_on_c, 3, 75, 127
2, 187220, Note_off_c, 7, 67, 127
2, 187231, Note_on_c, 10, 69, 127
2, 187366, Note_off_c, 10, 69, 127
2, 187371, Note_on_c, 11, 70, 127
2, 187506, Note_off_c, 11, 70, 127
2, 187511, Note_on_c, 0, 72, 127
2, 187641, Note_off_c, 0, 36, 127
2, 187651, Note_on_c, 2, 38, 127
2, 187781, Note_off_c, 0, 72, 127
2, 187786, Note_off_c, 2, 38, 127
2, 187792, Note_on_c, 3, 39, 127
2, 187792, Note_on_c, 11, 70, 127
2, 187927, Note_off_c, 11, 70, 127
2, 187927, Note_off_c, 3, 39, 127
2, 187932, Note_on_c, 5, 41, 127
2, 187932, Note_on_c, 10, 69, 127
2, 188063, Note_off_c, 3, 75, 127
2, 188073, Note_on_c, 2, 74, 127
2, 188208, Note_off_c, 2, 74, 127
2, 188213, Note_on_c, 0, 72, 127
2, 188342, Note_off_c, 10, 69, 127
2, 188348, Note_off_c, 0, 72, 127
2, 188352, Note_on_c, 11, 70, 127
2, 188352, Note_on_c, 2, 74, 127
2, 188487, Note_off_c, 2, 74, 127
2, 188493, Note_on_c, 3, 75, 127
2, 188628, Note_off_c, 3, 75, 127
2, 188633, Note_on_c, 2, 74, 127
2, 188768, Note_off_c, 2, 74, 127
2, 188774, Note_on_c, 0, 72, 127
2, 188902, Note_off_c, 11, 70, 127
2, 188914, Note_on_c, 10, 69, 127
2, 189049, Note_off_c, 10, 69, 127
2, 189054, Note_on_c, 7, 67, 127
2, 189189, Note_off_c, 7, 67, 127
2, 189195, Note_on_c, 10, 69, 127
2, 189292, Note_off_c, 0, 72, 127
2, 189334, Note_on_c, 0, 72, 127
2, 189469, Note_off_c, 0, 72, 127
2, 189474, Note_on_c, 5, 77, 127
2, 189609, Note_off_c, 5, 77, 127
2, 189615, Note_on_c, 11, 70, 127
2, 189713, Note_off_c, 10, 69, 127
2, 189755, Note_on_c, 7, 67, 127
2, 189890, Note_off_c, 7, 67, 127
2, 189896, Note_on_c, 5, 65, 127
2, 190031, Note_off_c, 5, 65, 127
2, 190036, Note_on_c, 7, 67, 127
2, 190133, Note_off_c, 11, 70, 127
2, 190176, Note_on_c, 11, 70, 127
2, 190311, Note_off_c, 11, 70, 127
2, 190316, Note_on_c, 3, 75, 127
2, 190451, Note_off_c, 3, 75, 127
2, 190456, Note_on_c, 10, 69, 127
2, 190554, Note_off_c, 7, 67, 127
2, 190597, Note_on_c, 5, 65, 127
2, 190732, Note_off_c, 5, 65, 127
2, 190737, Note_on_c, 4, 64, 127
2, 190872, Note_off_c, 4, 64, 127
2, 190877, Note_on_c, 5, 65, 127
2, 190974, Note_off_c, 10, 69, 127
2, 191018, Note_on_c, 10, 69, 127
2, 191153, Note_off_c, 10, 69, 127
2, 191158, Note_on_c, 2, 74, 127
2, 191293, Note_off_c, 2, 74, 127
2, 191298, Note_on_c, 7, 67, 127
2, 191395, Note_off_c, 5, 65, 127
2, 191438, Note_on_c, 3, 63, 127
2, 191573, Note_off_c, 3, 63, 127
2, 191578, Note_on_c, 2, 62, 127
2, 191713, Note_off_c, 2, 62, 127
2, 191719, Note_on_c, 3, 63, 127
2, 191816, Note_off_c, 7, 67, 127
2, 191859, Note_on_c, 7, 67, 127
2, 191994, Note_off_c, 7, 67, 127
2, 192000, Note_on_c, 0, 72, 127
2, 192135, Note_off_c, 0, 72, 127
2, 192140, Note_on_c, 5, 65, 127
2, 192269, Note_off_c, 3, 63, 127
2, 192279, Note_on_c, 2, 62, 127
2, 192414, Note_off_c, 2, 62, 127
2, 192420, Note_on_c, 0, 60, 127
2, 192551, Note_off_c, 5, 41, 127
2, 192555, Note_off_c, 0, 60, 127
2, 192560, Note_on_c, 11, 46, 127
2, 192560, Note_on_c, 2, 62, 127
2, 192695, Note_off_c, 11, 46, 127
2, 192700, Note_on_c, 10, 45, 127
2, 192831, Note_off_c, 5, 65, 127
2, 192835, Note_off_c, 10, 45, 127
2, 192841, Note_on_c, 11, 46, 127
2, 192841, Note_on_c, 11, 70, 127
2, 192970, Note_off_c, 2, 62, 127
2, 192976, Note_off_c, 11, 46, 127
2, 192981, Note_on_c, 5, 53, 127
2, 192981, Note_on_c, 0, 60, 127
2, 193111, Note_off_c, 11, 70, 127
2, 193122, Note_on_c, 7, 67, 127
2, 193257, Note_off_c, 7, 67, 127
2, 193261, Note_on_c, 10, 69, 127
2, 193347, Note_off_c, 5, 53, 127
2, 193391, Note_off_c, 0, 60, 127
2, 193401, Note_on_c, 2, 50, 127
2, 193401, Note_on_c, 5, 65, 127
2, 193536, Note_off_c, 2, 50, 127
2, 193542, Note_on_c, 0, 48, 127
2, 193671, Note_off_c, 10, 69, 127
2, 193677, Note_off_c, 0, 48, 127
2, 193682, Note_on_c, 2, 50, 127
2, 193682, Note_on_c, 2, 74, 127
2, 193817, Note_off_c, 2, 74, 127
2, 193817, Note_off_c, 2, 50, 127
2, 193823, Note_on_c, 7, 55, 127
2, 193823, Note_on_c, 11, 70, 127
2, 193951, Note_off_c, 5, 65, 127
2, 193963, Note_on_c, 2, 62, 127
2, 194098, Note_off_c, 2, 62, 127
2, 194103, Note_on_c, 3, 63, 127
2, 194189, Note_off_c, 7, 55, 127
2, 194233, Note_off_c, 11, 70, 127
2, 194238, Note_off_c, 3, 63, 127
2, 194243, Note_on_c, 5, 53, 127
2, 194243, Note_on_c, 10, 69, 127
2, 194378, Note_off_c, 10, 69, 127
2, 194378, Note_off_c, 5, 53, 127
2, 194383, Note_on_c, 7, 55, 127
2, 194383, Note_on_c, 11, 70, 127
2, 194518, Note_off_c, 11, 70, 127
2, 194518, Note_off_c, 7, 55, 127
2, 194523, Note_on_c, 10, 57, 127
2, 194523, Note_on_c, 0, 72, 127
2, 194658, Note_off_c, 0, 72, 127
2, 194658, Note_off_c, 10, 57, 127
2, 194664, Note_on_c, 11, 58, 127
2, 194664, Note_on_c, 2, 74, 127
2, 194799, Note_off_c, 2, 74, 127
2, 194799, Note_off_c, 11, 58, 127
2, 194804, Note_on_c, 10, 57, 127
2, 194804, Note_on_c, 0, 72, 127
2, 194939, Note_off_c, 0, 72, 127
2, 194939, Note_off_c, 10, 57, 127
2, 194945, Note_on_c, 7, 55, 127
2, 194945, Note_on_c, 3, 75, 127
2, 195080, Note_off_c, 3, 75, 127
2, 195080, Note_off_c, 7, 55, 127
2, 195085, Note_on_c, 5, 53, 127
2, 195085, Note_on_c, 2, 74, 127
2, 195220, Note_off_c, 2, 74, 127
2, 195220, Note_off_c, 5, 53, 127
2, 195224, Note_on_c, 7, 55, 127
2, 195224, Note_on_c, 3, 75, 127
2, 195359, Note_off_c, 3, 75, 127
2, 195359, Note_off_c, 7, 55, 127
2, 195365, Note_on_c, 3, 51, 127
2, 195365, Note_on_c, 0, 72, 127
2, 195500, Note_off_c, 0, 72, 127
2, 195500, Note_off_c, 3, 51, 127
2, 195505, Note_on_c, 2, 50, 127
2, 195505, Note_on_c, 11, 70, 127
2, 195640, Note_off_c, 2, 50, 127
2, 195646, Note_on_c, 0, 48, 127
2, 195781, Note_off_c, 0, 48, 127
2, 195786, Note_on_c, 11, 46, 127
2, 195921, Note_off_c, 11, 46, 127
2, 195926, Note_on_c, 11, 58, 127
2, 195926, Note_on_c, 2, 62, 127
2, 196061, Note_off_c, 2, 62, 127
2, 196061, Note_off_c, 11, 58, 127
2, 196067, Note_on_c, 0, 60, 127
2, 196067, Note_on_c, 3, 63, 127
2, 196202, Note_off_c, 3, 63, 127
2, 196202, Note_off_c, 0, 60, 127
2, 196207, Note_on_c, 2, 62, 127
2, 196207, Note_on_c, 5, 65, 127
2, 196342, Note_off_c, 5, 65, 127
2, 196342, Note_off_c, 2, 62, 127
2, 196348, Note_on_c, 3, 63, 127
2, 196348, Note_on_c, 7, 67, 127
2, 196483, Note_off_c, 7, 67, 127
2, 196483, Note_off_c, 3, 63, 127
2, 196488, Note_on_c, 2, 62, 127
2, 196488, Note_on_c, 5, 65, 127
2, 196623, Note_off_c, 5, 65, 127
2, 196623, Note_off_c, 2, 62, 127
2, 196628, Note_on_c, 0, 60, 127
2, 196628, Note_on_c, 8, 68, 127
2, 196763, Note_off_c, 8, 68, 127
2, 196763, Note_off_c, 0, 60, 127
2, 196769, Note_on_c, 11, 58, 127
2, 196769, Note_on_c, 7, 67, 127
2, 196904, Note_off_c, 7, 67, 127
2, 196904, Note_off_c, 11, 58, 127
2, 196909, Note_on_c, 0, 60, 127
2, 196909, Note_on_c, 8, 68, 127
2, 197044, Note_off_c, 8, 68, 127
2, 197044, Note_off_c, 0, 60, 127
2, 197050, Note_on_c, 8, 56, 127
2, 197050, Note_on_c, 5, 65, 127
2, 197185, Note_off_c, 5, 65, 127
2, 197185, Note_off_c, 8, 56, 127
2, 197189, Note_on_c, 7, 55, 127
2, 197189, Note_on_c, 4, 64, 127
2, 197324, Note_off_c, 4, 64, 127
2, 197329, Note_on_c, 5, 65, 127
2, 197459, Note_off_c, 7, 55, 127
2, 197464, Note_off_c, 5, 65, 127
2, 197470, Note_on_c, 5, 53, 127
2, 197470, Note_on_c, 7, 67, 127
2, 197605, Note_off_c, 7, 67, 127
2, 197605, Note_off_c, 5, 53, 127
2, 197610, Note_on_c, 4, 52, 127
2, 197610, Note_on_c, 0, 60, 127
2, 197739, Note_off_c, 11, 70, 127
2, 197751, Note_on_c, 7, 67, 127
2, 197880, Note_off_c, 4, 52, 127
2, 197886, Note_off_c, 7, 67, 127
2, 197891, Note_on_c, 0, 48, 127
2, 197891, Note_on_c, 8, 68, 127
2, 198026, Note_off_c, 0, 48, 127
2, 198031, Note_on_c, 5, 53, 127
2, 198160, Note_off_c, 0, 60, 127
2, 198171, Note_on_c, 8, 56, 127
2, 198306, Note_off_c, 8, 56, 127
2, 198311, Note_on_c, 11, 58, 127
2, 198441, Note_off_c, 5, 53, 127
2, 198446, Note_off_c, 11, 58, 127
2, 198451, Note_on_c, 2, 50, 127
2, 198451, Note_on_c, 11, 58, 127
2, 198582, Note_off_c, 8, 68, 127
2, 198592, Note_on_c, 5, 65, 127
2, 198727, Note_off_c, 5, 65, 127
2, 198732, Note_on_c, 7, 67, 127
2, 198861, Note_off_c, 2, 50, 127
2, 198867, Note_off_c, 7, 67, 127
2, 198873, Note_on_c, 4, 52, 127
2, 198873, Note_on_c, 7, 67, 127
2, 199001, Note_off_c, 11, 58, 127
2, 199013, Note_on_c, 7, 55, 127
2, 199148, Note_off_c, 7, 55, 127
2, 199152, Note_on_c, 8, 56, 127
2, 199283, Note_off_c, 4, 52, 127
2, 199287, Note_off_c, 8, 56, 127
2, 199293, Note_on_c, 5, 53, 127
2, 199293, Note_on_c, 8, 56, 127
2, 199423, Note_off_c, 7, 67, 127
2, 199433, Note_on_c, 4, 64, 127
2, 199568, Note_off_c, 4, 64, 127
2, 199574, Note_on_c, 5, 65, 127
2, 199703, Note_off_c, 5, 53, 127
2, 199709, Note_off_c, 5, 65, 127
2, 199714, Note_on_c, 1, 49, 127
2, 199714, Note_on_c, 5, 65, 127
2, 199843, Note_off_c, 8, 56, 127
2, 199854, Note_on_c, 5, 53, 127
2, 199989, Note_off_c, 5, 53, 127
2, 199995, Note_on_c, 7, 55, 127
2, 200124, Note_off_c, 1, 49, 127
2, 200130, Note_off_c, 7, 55, 127
2, 200134, Note_on_c, 12, 47, 127
2, 200134, Note_on_c, 7, 55, 127
2, 200264, Note_off_c, 5, 65, 127
2, 200274, Note_on_c, 2, 62, 127
2, 200409, Note_off_c, 2, 62, 127
2, 200415, Note_on_c, 4, 64, 127
2, 200544, Note_off_c, 12, 47, 127
2, 200550, Note_off_c, 4, 64, 127
2, 200555, Note_on_c, 0, 48, 127
2, 200555, Note_on_c, 4, 64, 127
2, 200684, Note_off_c, 7, 55, 127
2, 200696, Note_on_c, 12, 59, 127
2, 200831, Note_off_c, 12, 59, 127
2, 200836, Note_on_c, 0, 60, 127
2, 200965, Note_off_c, 4, 64, 127
2, 200976, Note_on_c, 8, 68, 127
2, 201106, Note_off_c, 0, 60, 127
2, 201116, Note_on_c, 4, 64, 127
2, 201251, Note_off_c, 4, 64, 127
2, 201256, Note_on_c, 5, 65, 127
2, 201391, Note_off_c, 5, 65, 127
2, 201397, Note_on_c, 11, 58, 127
2, 201526, Note_off_c, 8, 68, 127
2, 201537, Note_on_c, 7, 67, 127
2, 201672, Note_off_c, 7, 67, 127
2, 201677, Note_on_c, 5, 65, 127
2, 201812, Note_off_c, 5, 65, 127
2, 201818, Note_on_c, 7, 67, 127
2, 201947, Note_off_c, 11, 58, 127
2, 201958, Note_on_c, 4, 52, 127
2, 202093, Note_off_c, 4, 52, 127
2, 202098, Note_on_c, 7, 55, 127
2, 202233, Note_off_c, 7, 55, 127
2, 202238, Note_on_c, 8, 56, 127
2, 202368, Note_off_c, 7, 67, 127
2, 202378, Note_on_c, 5, 65, 127
2, 202513, Note_off_c, 5, 65, 127
2, 202519, Note_on_c, 4, 64, 127
2, 202654, Note_off_c, 4, 64, 127
2, 202659, Note_on_c, 5, 65, 127
2, 202794, Note_off_c, 5, 65, 127
2, 202800, Note_on_c, 0, 72, 127
2, 202935, Note_off_c, 0, 72, 127
2, 202940, Note_on_c, 5, 77, 127
2, 203075, Note_off_c, 5, 77, 127
2, 203079, Note_on_c, 11, 70, 127
2, 203210, Note_off_c, 8, 56, 127
2, 203220, Note_on_c, 7, 55, 127
2, 203355, Note_off_c, 7, 55, 127
2, 203360, Note_on_c, 5, 53, 127
2, 203495, Note_off_c, 5, 53, 127
2, 203500, Note_on_c, 4, 52, 127
2, 203629, Note_off_c, 11, 70, 127
2, 203635, Note_off_c, 4, 52, 127
2, 203641, Note_on_c, 7, 55, 127
2, 203641, Note_on_c, 4, 76, 127
2, 203776, Note_off_c, 4, 76, 127
2, 203776, Note_off_c, 7, 55, 127
2, 203781, Note_on_c, 11, 58, 127
2, 203781, Note_on_c, 7, 79, 127
2, 203916, Note_off_c, 7, 79, 127
2, 203922, Note_on_c, 0, 72, 127
2, 204051, Note_off_c, 11, 58, 127
2, 204061, Note_on_c, 8, 56, 127
2, 204196, Note_off_c, 8, 56, 127
2, 204201, Note_on_c, 7, 55, 127
2, 204336, Note_off_c, 7, 55, 127
2, 204342, Note_on_c, 5, 53, 127
2, 204472, Note_off_c, 0, 72, 127
2, 204477, Note_off_c, 5, 53, 127
2, 204482, Note_on_c, 8, 56, 127
2, 204482, Note_on_c, 5, 77, 127
2, 204617, Note_off_c, 5, 77, 127
2, 204617, Note_off_c, 8, 56, 127
2, 204623, Note_on_c, 0, 60, 127
2, 204623, Note_on_c, 8, 80, 127
2, 204758, Note_off_c, 8, 80, 127
2, 204763, Note_on_c, 1, 73, 127
2, 204893, Note_off_c, 0, 60, 127
2, 204903, Note_on_c, 11, 58, 127
2, 205033, Note_off_c, 1, 73, 127
2, 205038, Note_off_c, 11, 58, 127
2, 205043, Note_on_c, 8, 56, 127
2, 205043, Note_on_c, 5, 77, 127
2, 205178, Note_off_c, 5, 77, 127
2, 205178, Note_off_c, 8, 56, 127
2, 205183, Note_on_c, 7, 55, 127
2, 205183, Note_on_c, 11, 82, 127
2, 205318, Note_off_c, 7, 55, 127
2, 205323, Note_on_c, 8, 56, 127
2, 205453, Note_off_c, 11, 82, 127
2, 205458, Note_off_c, 8, 56, 127
2, 205464, Note_on_c, 5, 53, 127
2, 205464, Note_on_c, 1, 73, 127
2, 205599, Note_off_c, 1, 73, 127
2, 205599, Note_off_c, 5, 53, 127
2, 205604, Note_on_c, 4, 52, 127
2, 205604, Note_on_c, 0, 72, 127
2, 205734, Note_off_c, 0, 48, 127
2, 205739, Note_off_c, 4, 52, 127
2, 205745, Note_on_c, 2, 50, 127
2, 205874, Note_off_c, 0, 72, 127
2, 205880, Note_off_c, 2, 50, 127
2, 205885, Note_on_c, 4, 52, 127
2, 205885, Note_on_c, 11, 82, 127
2, 206020, Note_off_c, 11, 82, 127
2, 206020, Note_off_c, 4, 52, 127
2, 206024, Note_on_c, 5, 53, 127
2, 206024, Note_on_c, 8, 80, 127
2, 206159, Note_off_c, 5, 53, 127
2, 206165, Note_on_c, 7, 55, 127
2, 206294, Note_off_c, 8, 80, 127
2, 206300, Note_off_c, 7, 55, 127
2, 206305, Note_on_c, 8, 56, 127
2, 206305, Note_on_c, 5, 77, 127
2, 206440, Note_off_c, 5, 77, 127
2, 206440, Note_off_c, 8, 56, 127
2, 206446, Note_on_c, 2, 38, 127
2, 206446, Note_on_c, 12, 71, 127
2, 206582, Note_off_c, 12, 71, 127
2, 206587, Note_on_c, 5, 77, 127
2, 206723, Note_off_c, 5, 77, 127
2, 206729, Note_on_c, 7, 79, 127
2, 206865, Note_off_c, 7, 79, 127
2, 206869, Note_on_c, 12, 47, 127
2, 206869, Note_on_c, 8, 80, 127
2, 207005, Note_off_c, 8, 80, 127
2, 207010, Note_on_c, 7, 79, 127
2, 207146, Note_off_c, 7, 79, 127
2, 207152, Note_on_c, 5, 77, 127
2, 207277, Note_off_c, 2, 38, 127
2, 207283, Note_off_c, 12, 47, 127
2, 207293, Note_on_c, 0, 48, 127
2, 207293, Note_on_c, 0, 36, 127
2, 207427, Note_off_c, 5, 77, 127
2, 207437, Note_on_c, 4, 76, 127
2, 207569, Note_off_c, 0, 36, 127
2, 207569, Note_off_c, 0, 48, 127
2, 207575, Note_off_c, 4, 76, 127
2, 207580, Note_on_c, 2, 50, 127
2, 207580, Note_on_c, 1, 73, 127
2, 207718, Note_off_c, 2, 50, 127
2, 207722, Note_on_c, 4, 52, 127
2, 207856, Note_off_c, 1, 73, 127
2, 207866, Note_on_c, 0, 72, 127
2, 207998, Note_off_c, 4, 52, 127
2, 208004, Note_off_c, 0, 72, 127
2, 208008, Note_on_c, 0, 48, 127
2, 208008, Note_on_c, 11, 70, 127
2, 208152, Note_on_c, 5, 53, 127
2, 208284, Note_off_c, 11, 70, 127
2, 208293, Note_on_c, 8, 68, 127
2, 208424, Note_off_c, 0, 48, 127
2, 208428, Note_off_c, 5, 53, 127
2, 208431, Note_off_c, 8, 68, 127
2, 208437, Note_on_c, 7, 55, 127
2, 208437, Note_on_c, 7, 67, 127
2, 208575, Note_off_c, 7, 67, 127
2, 208575, Note_off_c, 7, 55, 127
2, 208580, Note_on_c, 8, 56, 127
2, 208580, Note_on_c, 5, 65, 127
2, 208720, Note_off_c, 5, 65, 127
2, 208724, Note_on_c, 0, 60, 127
2, 208724, Note_on_c, 4, 64, 127
2, 208864, Note_off_c, 4, 64, 127
2, 208864, Note_off_c, 0, 60, 127
2, 208871, Note_on_c, 12, 59, 127
2, 208871, Note_on_c, 5, 65, 127
2, 209006, Note_off_c, 8, 56, 127
2, 209011, Note_off_c, 5, 65, 127
2, 209011, Note_off_c, 12, 59, 127
2, 209016, Note_on_c, 0, 48, 127
2, 209016, Note_on_c, 0, 60, 127
2, 209016, Note_on_c, 7, 55, 127
2, 209016, Note_on_c, 0, 72, 127
2, 209156, Note_off_c, 0, 60, 127
2, 209162, Note_on_c, 4, 64, 127
2, 209302, Note_off_c, 4, 64, 127
2, 209308, Note_on_c, 4, 64, 127
2, 209440, Note_off_c, 7, 55, 127
2, 209442, Note_off_c, 0, 72, 127
2, 209442, Note_off_c, 0, 48, 127
2, 209448, Note_off_c, 4, 64, 127
2, 209453, Note_on_c, 0, 48, 127
2, 209453, Note_on_c, 5, 53, 127
2, 209453, Note_on_c, 0, 60, 127
2, 209453, Note_on_c, 3, 63, 127
2, 209453, Note_on_c, 10, 69, 127
2, 209593, Note_off_c, 10, 69, 127
2, 209599, Note_on_c, 7, 67, 127
2, 209739, Note_off_c, 7, 67, 127
2, 209744, Note_on_c, 10, 69, 127
2, 209879, Note_off_c, 3, 63, 127
2, 209879, Note_off_c, 0, 60, 127
2, 209879, Note_off_c, 5, 53, 127
2, 209879, Note_off_c, 0, 48, 127
2, 209884, Note_off_c, 10, 69, 127
2, 209890, Note_on_c, 11, 46, 127
2, 209890, Note_on_c, 11, 58, 127
2, 209890, Note_on_c, 1, 61, 127
2, 209890, Note_on_c, 5, 65, 127
2, 209890, Note_on_c, 1, 73, 127
2, 209890, Note_on_c, 11, 70, 127
2, 210030, Note_off_c, 11, 46, 127
2, 210034, Note_on_c, 1, 49, 127
2, 210174, Note_off_c, 1, 49, 127
2, 210181, Note_on_c, 5, 53, 127
2, 210314, Note_off_c, 5, 65, 127
2, 210314, Note_off_c, 1, 61, 127
2, 210314, Note_off_c, 11, 58, 127
2, 210316, Note_off_c, 11, 70, 127
2, 210316, Note_off_c, 1, 73, 127
2, 210321, Note_off_c, 5, 53, 127
2, 210326, Note_on_c, 11, 58, 127
2, 210326, Note_on_c, 0, 72, 127
2, 210466, Note_off_c, 0, 72, 127
2, 210466, Note_off_c, 11, 58, 127
2, 210472, Note_on_c, 10, 57, 127
2, 210472, Note_on_c, 2, 74, 127
2, 210612, Note_off_c, 2, 74, 127
2, 210612, Note_off_c, 10, 57, 127
2, 210617, Note_on_c, 7, 55, 127
2, 210617, Note_on_c, 4, 76, 127
2, 210757, Note_off_c, 4, 76, 127
2, 210757, Note_off_c, 7, 55, 127
2, 210762, Note_on_c, 10, 57, 127
2, 210762, Note_on_c, 5, 77, 127
2, 210902, Note_off_c, 5, 77, 127
2, 210908, Note_on_c, 4, 76, 127
2, 211042, Note_off_c, 10, 57, 127
2, 211048, Note_off_c, 4, 76, 127
2, 211054, Note_on_c, 11, 58, 127
2, 211054, Note_on_c, 11, 70, 127
2, 211054, Note_on_c, 2, 74, 127
2, 211194, Note_off_c, 2, 74, 127
2, 211194, Note_off_c, 11, 70, 127
2, 211194, Note_off_c, 11, 58, 127
2, 211199, Note_on_c, 0, 60, 127
2, 211199, Note_on_c, 10, 69, 127
2, 211199, Note_on_c, 0, 72, 127
2, 211339, Note_off_c, 0, 72, 127
2, 211344, Note_on_c, 2, 74, 127
2, 211479, Note_off_c, 10, 69, 127
2, 211479, Note_off_c, 0, 60, 127
2, 211484, Note_off_c, 2, 74, 127
2, 211490, Note_on_c, 0, 48, 127
2, 211490, Note_on_c, 7, 67, 127
2, 211490, Note_on_c, 11, 70, 127
2, 211630, Note_off_c, 11, 70, 127
2, 211630, Note_off_c, 7, 67, 127
2, 211630, Note_off_c, 0, 48, 127
2, 211636, Note_on_c, 5, 53, 127
2, 211636, Note_on_c, 5, 65, 127
2, 211636, Note_on_c, 10, 69, 127
2, 211778, Note_off_c, 10, 69, 127
2, 211778, Note_off_c, 5, 65, 127
2, 211784, Note_on_c, 5, 65, 127
2, 211859, Note_on_c, 7, 67, 127
2, 211927, Note_off_c, 7, 67, 127
2, 211932, Note_on_c, 10, 69, 127
2, 212000, Note_off_c, 10, 69, 127
2, 212007, Note_on_c, 11, 70, 127
2, 212069, Note_off_c, 5, 53, 127
2, 212075, Note_off_c, 11, 70, 127
2, 212080, Note_on_c, 5, 41, 127
2, 212080, Note_on_c, 0, 72, 127
2, 212216, Note_off_c, 5, 65, 127
2, 212222, Note_off_c, 5, 41, 127
2, 212227, Note_on_c, 4, 40, 127
2, 212227, Note_on_c, 10, 69, 127
2, 212369, Note_off_c, 10, 69, 127
2, 212369, Note_off_c, 4, 40, 127
2, 212375, Note_on_c, 5, 41, 127
2, 212375, Note_on_c, 3, 63, 127
2, 212517, Note_off_c, 3, 63, 127
2, 212517, Note_off_c, 5, 41, 127
2, 212524, Note_on_c, 11, 46, 127
2, 212524, Note_on_c, 3, 63, 127
2, 212666, Note_off_c, 3, 63, 127
2, 212672, Note_on_c, 2, 62, 127
2, 212740, Note_off_c, 2, 62, 127
2, 212745, Note_on_c, 5, 65, 127
2, 212813, Note_off_c, 5, 65, 127
2, 212819, Note_on_c, 7, 67, 127
2, 212887, Note_off_c, 7, 67, 127
2, 212893, Note_on_c, 10, 69, 127
2, 212956, Note_off_c, 11, 46, 127
2, 212956, Note_off_c, 0, 72, 127
2, 212961, Note_off_c, 10, 69, 127
2, 212967, Note_on_c, 7, 43, 127
2, 212967, Note_on_c, 11, 70, 127
2, 213109, Note_off_c, 7, 43, 127
2, 213115, Note_on_c, 5, 41, 127
2, 213115, Note_on_c, 2, 62, 127
2, 213257, Note_off_c, 2, 62, 127
2, 213257, Note_off_c, 5, 41, 127
2, 213263, Note_on_c, 7, 43, 127
2, 213263, Note_on_c, 5, 65, 127
2, 213405, Note_off_c, 5, 65, 127
2, 213405, Note_off_c, 7, 43, 127
2, 213412, Note_on_c, 0, 48, 127
2, 213412, Note_on_c, 5, 65, 127
2, 213554, Note_off_c, 5, 65, 127
2, 213560, Note_on_c, 4, 64, 127
2, 213623, Note_off_c, 11, 70, 127
2, 213634, Note_on_c, 7, 67, 127
2, 213702, Note_off_c, 7, 67, 127
2, 213708, Note_on_c, 10, 69, 127
2, 213776, Note_off_c, 10, 69, 127
2, 213781, Note_on_c, 11, 70, 127
2, 213845, Note_off_c, 0, 48, 127
2, 213849, Note_off_c, 11, 70, 127
2, 213854, Note_on_c, 10, 45, 127
2, 213854, Note_on_c, 0, 72, 127
2, 213993, Note_off_c, 4, 64, 127
2, 213996, Note_off_c, 10, 45, 127
2, 214002, Note_on_c, 7, 43, 127
2, 214002, Note_on_c, 4, 64, 127
2, 214144, Note_off_c, 4, 64, 127
2, 214144, Note_off_c, 7, 43, 127
2, 214150, Note_on_c, 10, 45, 127
2, 214150, Note_on_c, 7, 67, 127
2, 214292, Note_off_c, 7, 67, 127
2, 214292, Note_off_c, 10, 45, 127
2, 214298, Note_on_c, 2, 50, 127
2, 214298, Note_on_c, 7, 67, 127
2, 214440, Note_off_c, 7, 67, 127
2, 214447, Note_on_c, 5, 65, 127
2, 214510, Note_off_c, 0, 72, 127
2, 214522, Note_on_c, 10, 69, 127
2, 214590, Note_off_c, 10, 69, 127
2, 214595, Note_on_c, 11, 70, 127
2, 214663, Note_off_c, 11, 70, 127
2, 214669, Note_on_c, 0, 72, 127
2, 214731, Note_off_c, 2, 50, 127
2, 214737, Note_off_c, 0, 72, 127
2, 214742, Note_on_c, 11, 46, 127
2, 214742, Note_on_c, 2, 74, 127
2, 214805, Note_off_c, 5, 65, 127
2, 214817, Note_on_c, 0, 72, 127
2, 214884, Note_off_c, 11, 46, 127
2, 214885, Note_off_c, 0, 72, 127
2, 214891, Note_on_c, 10, 45, 127
2, 214891, Note_on_c, 11, 70, 127
2, 214959, Note_off_c, 11, 70, 127
2, 214965, Note_on_c, 10, 69, 127
2, 215032, Note_off_c, 10, 45, 127
2, 215033, Note_off_c, 10, 69, 127
2, 215038, Note_on_c, 11, 46, 127
2, 215038, Note_on_c, 7, 67, 127
2, 215106, Note_off_c, 7, 67, 127
2, 215112, Note_on_c, 5, 65, 127
2, 215179, Note_off_c, 11, 46, 127
2, 215180, Note_off_c, 5, 65, 127
2, 215185, Note_on_c, 4, 52, 127
2, 215185, Note_on_c, 7, 67, 127
2, 215248, Note_off_c, 2, 74, 127
2, 215259, Note_on_c, 11, 70, 127
2, 215327, Note_off_c, 11, 70, 127
2, 215334, Note_on_c, 0, 72, 127
2, 215399, Note_off_c, 7, 67, 127
2, 215403, Note_off_c, 0, 72, 127
2, 215409, Note_on_c, 2, 74, 127
2, 215477, Note_off_c, 2, 74, 127
2, 215482, Note_on_c, 4, 76, 127
2, 215550, Note_off_c, 4, 76, 127
2, 215555, Note_on_c, 5, 77, 127
2, 215618, Note_off_c, 4, 52, 127
2, 215623, Note_off_c, 5, 77, 127
2, 215629, Note_on_c, 0, 48, 127
2, 215629, Note_on_c, 7, 79, 127
2, 215697, Note_off_c, 7, 79, 127
2, 215702, Note_on_c, 5, 77, 127
2, 215770, Note_off_c, 5, 77, 127
2, 215770, Note_off_c, 0, 48, 127
2, 215777, Note_on_c, 2, 50, 127
2, 215777, Note_on_c, 4, 76, 127
2, 215845, Note_off_c, 4, 76, 127
2, 215850, Note_on_c, 2, 74, 127
2, 215918, Note_off_c, 2, 74, 127
2, 215918, Note_off_c, 2, 50, 127
2, 215924, Note_on_c, 4, 52, 127
2, 215924, Note_on_c, 0, 72, 127
2, 215992, Note_off_c, 0, 72, 127
2, 215997, Note_on_c, 11, 70, 127
2, 216065, Note_off_c, 11, 70, 127
2, 216065, Note_off_c, 4, 52, 127
2, 216071, Note_on_c, 5, 53, 127
2, 216071, Note_on_c, 10, 69, 127
2, 216215, Note_off_c, 10, 69, 127
2, 216215, Note_off_c, 5, 53, 127
2, 216220, Note_on_c, 4, 52, 127
2, 216220, Note_on_c, 0, 72, 127
2, 216364, Note_off_c, 0, 72, 127
2, 216364, Note_off_c, 4, 52, 127
2, 216371, Note_on_c, 2, 50, 127
2, 216371, Note_on_c, 11, 70, 127
2, 216515, Note_off_c, 11, 70, 127
2, 216515, Note_off_c, 2, 50, 127
2, 216521, Note_on_c, 0, 48, 127
2, 216521, Note_on_c, 0, 72, 127
2, 216665, Note_off_c, 0, 48, 127
2, 216670, Note_on_c, 2, 50, 127
2, 216814, Note_off_c, 2, 50, 127
2, 216820, Note_on_c, 11, 46, 127
2, 216820, Note_on_c, 4, 64, 127
2, 216964, Note_off_c, 4, 64, 127
2, 216964, Note_off_c, 11, 46, 127
2, 216970, Note_on_c, 10, 45, 127
2, 216970, Note_on_c, 5, 65, 127
2, 217114, Note_off_c, 10, 45, 127
2, 217119, Note_on_c, 11, 46, 127
2, 217259, Note_off_c, 5, 65, 127
2, 217259, Note_off_c, 0, 72, 127
2, 217262, Note_off_c, 11, 46, 127
2, 217268, Note_on_c, 7, 43, 127
2, 217268, Note_on_c, 11, 70, 127
2, 217268, Note_on_c, 2, 74, 127
2, 217412, Note_off_c, 2, 74, 127
2, 217412, Note_off_c, 11, 70, 127
2, 217412, Note_off_c, 7, 43, 127
2, 217418, Note_on_c, 5, 41, 127
2, 217418, Note_on_c, 10, 69, 127
2, 217418, Note_on_c, 3, 75, 127
2, 217562, Note_off_c, 10, 69, 127
2, 217562, Note_off_c, 5, 41, 127
2, 217570, Note_on_c, 7, 43, 127
2, 217570, Note_on_c, 11, 70, 127
2, 217714, Note_off_c, 11, 70, 127
2, 217714, Note_off_c, 7, 43, 127
2, 217719, Note_on_c, 10, 45, 127
2, 217719, Note_on_c, 0, 72, 127
2, 217857, Note_off_c, 3, 75, 127
2, 217862, Note_off_c, 10, 45, 127
2, 217868, Note_on_c, 11, 46, 127
2, 217868, Note_on_c, 2, 74, 127
2, 218013, Note_off_c, 11, 46, 127
2, 218019, Note_on_c, 0, 48, 127
2, 218160, Note_off_c, 0, 72, 127
2, 218164, Note_off_c, 0, 48, 127
2, 218169, Note_on_c, 10, 45, 127
2, 218169, Note_on_c, 5, 65, 127
2, 218314, Note_off_c, 5, 65, 127
2, 218314, Note_off_c, 10, 45, 127
2, 218320, Note_on_c, 7, 43, 127
2, 218320, Note_on_c, 11, 70, 127
2, 218465, Note_off_c, 7, 43, 127
2, 218470, Note_on_c, 10, 45, 127
2, 218612, Note_off_c, 2, 74, 127
2, 218615, Note_off_c, 10, 45, 127
2, 218622, Note_on_c, 11, 46, 127
2, 218622, Note_on_c, 7, 79, 127
2, 218767, Note_off_c, 7, 79, 127
2, 218767, Note_off_c, 11, 46, 127
2, 218773, Note_on_c, 0, 48, 127
2, 218773, Note_on_c, 4, 76, 127
2, 218922, Note_off_c, 0, 48, 127
2, 218928, Note_on_c, 2, 50, 127
2, 219071, Note_off_c, 11, 70, 127
2, 219077, Note_off_c, 2, 50, 127
2, 219083, Note_on_c, 11, 46, 127
2, 219083, Note_on_c, 7, 67, 127
2, 219232, Note_off_c, 7, 67, 127
2, 219232, Note_off_c, 11, 46, 127
2, 219238, Note_on_c, 10, 45, 127
2, 219238, Note_on_c, 0, 72, 127
2, 219387, Note_off_c, 10, 45, 127
2, 219394, Note_on_c, 11, 46, 127
2, 219537, Note_off_c, 4, 76, 127
2, 219543, Note_off_c, 11, 46, 127
2, 219548, Note_on_c, 0, 48, 127
2, 219548, Note_on_c, 10, 81, 127
2, 219697, Note_off_c, 10, 81, 127
2, 219697, Note_off_c, 0, 48, 127
2, 219704, Note_on_c, 2, 50, 127
2, 219704, Note_on_c, 5, 77, 127
2, 219866, Note_off_c, 0, 72, 127
2, 219873, Note_off_c, 2, 50, 127
2, 219879, Note_on_c, 0, 48, 127
2, 219879, Note_on_c, 10, 69, 127
2, 220043, Note_off_c, 5, 77, 127
2, 220048, Note_off_c, 10, 69, 127
2, 220048, Note_off_c, 0, 48, 127
2, 220054, Note_on_c, 11, 46, 127
2, 220054, Note_on_c, 11, 70, 127
2, 220054, Note_on_c, 2, 74, 127
2, 220224, Note_off_c, 2, 74, 127
2, 220224, Note_off_c, 11, 70, 127
2, 220224, Note_off_c, 11, 46, 127
2, 220230, Note_on_c, 0, 48, 127
2, 220230, Note_on_c, 5, 65, 127
2, 220230, Note_on_c, 10, 69, 127
2, 220400, Note_off_c, 10, 69, 127
2, 220407, Note_on_c, 11, 70, 127
2, 220570, Note_off_c, 5, 65, 127
2, 220570, Note_off_c, 0, 48, 127
2, 220576, Note_off_c, 11, 70, 127
2, 220582, Note_on_c, 0, 36, 127
2, 220582, Note_on_c, 4, 64, 127
2, 220582, Note_on_c, 7, 67, 127
2, 220777, Note_off_c, 7, 67, 127
2, 220777, Note_off_c, 4, 64, 127
2, 220777, Note_off_c, 0, 36, 127
2, 220831, Note_on_c, 5, 65, 127
2, 220831, Note_on_c, 5, 41, 127
2, 223347, Note_off_c, 5, 41, 127
2, 223347, Note_off_c, 5, 65, 127
2, 228864, End_track
3, 0, Start_track
3, 0, Title_t, "MIDI"
3, 1536, End_track
0, 0, End_of_file
