0, 0, Header, 1, 4, 240
1, 0, Start_track
1, 0, Time_signature, 1, 3, 12, 8
1, 0, Tempo, 375000
1, 120, Time_signature, 3, 1, 48, 8
1, 21720, Time_signature, 11, 3, 12, 8
1, 23040, Time_signature, 1, 3, 12, 8
1, 23160, Time_signature, 3, 1, 48, 8
1, 44760, Time_signature, 11, 3, 12, 8
1, 46080, Time_signature, 1, 3, 12, 8
1, 46200, Time_signature, 3, 1, 48, 8
1, 67800, Time_signature, 11, 3, 12, 8
1, 69120, Time_signature, 1, 3, 12, 8
1, 69240, Time_signature, 3, 1, 48, 8
1, 90840, Time_signature, 11, 3, 12, 8
1, 90840, End_track
2, 0, Start_track
2, 0, Title_t, "English Suite 6, 3. Courante"
2, 0, Program_c, 0, 0
2, 0, Note_on_c, 0, 74, 110
2, 96, Note_off_c, 0, 74, 64
2, 120, Note_on_c, 0, 74, 110
2, 120, Note_on_c, 0, 65, 110
2, 120, Note_on_c, 0, 69, 110
2, 408, Note_off_c, 0, 69, 64
2, 408, Note_off_c, 0, 65, 64
2, 408, Note_off_c, 0, 74, 64
2, 480, Note_on_c, 0, 72, 110
2, 576, Note_off_c, 0, 72, 64
2, 600, Note_on_c, 0, 70, 110
2, 696, Note_off_c, 0, 70, 64
2, 720, Note_on_c, 0, 69, 110
2, 816, Note_off_c, 0, 69, 64
2, 840, Note_on_c, 0, 70, 110
2, 1032, Note_off_c, 0, 70, 64
2, 1080, Note_on_c, 0, 69, 110
2, 1104, Note_off_c, 0, 69, 64
2, 1110, Note_on_c, 0, 67, 110
2, 1134, Note_off_c, 0, 67, 64
2, 1140, Note_on_c, 0, 69, 110
2, 1164, Note_off_c, 0, 69, 64
2, 1170, Note_on_c, 0, 67, 110
2, 1392, Note_off_c, 0, 67, 64
2, 1440, Note_on_c, 0, 67, 110
2, 1536, Note_off_c, 0, 67, 64
2, 1560, Note_on_c, 0, 76, 110
2, 1848, Note_off_c, 0, 76, 64
2, 1920, Note_on_c, 0, 77, 110
2, 2016, Note_off_c, 0, 77, 64
2, 2040, Note_on_c, 0, 77, 110
2, 2136, Note_off_c, 0, 77, 64
2, 2160, Note_on_c, 0, 76, 110
2, 2256, Note_off_c, 0, 76, 64
2, 2280, Note_on_c, 0, 74, 110
2, 2376, Note_off_c, 0, 74, 64
2, 2400, Note_on_c, 0, 73, 110
2, 2496, Note_off_c, 0, 73, 64
2, 2520, Note_on_c, 0, 74, 110
2, 2808, Note_off_c, 0, 74, 64
2, 2880, Note_on_c, 0, 76, 110
2, 2976, Note_off_c, 0, 76, 64
2, 3000, Note_on_c, 0, 73, 110
2, 3192, Note_off_c, 0, 73, 64
2, 3240, Note_on_c, 0, 71, 110
2, 3336, Note_off_c, 0, 71, 64
2, 3360, Note_on_c, 0, 69, 110
2, 3456, Note_off_c, 0, 69, 64
2, 3480, Note_on_c, 0, 71, 110
2, 3576, Note_off_c, 0, 71, 64
2, 3600, Note_on_c, 0, 73, 110
2, 3696, Note_off_c, 0, 73, 64
2, 3720, Note_on_c, 0, 74, 110
2, 3816, Note_off_c, 0, 74, 64
2, 3840, Note_on_c, 0, 76, 110
2, 3936, Note_off_c, 0, 76, 64
2, 3960, Note_on_c, 0, 77, 110
2, 3984, Note_off_c, 0, 77, 64
2, 3990, Note_on_c, 0, 76, 110
2, 4014, Note_off_c, 0, 76, 64
2, 4020, Note_on_c, 0, 77, 110
2, 4044, Note_off_c, 0, 77, 64
2, 4050, Note_on_c, 0, 76, 110
2, 4272, Note_off_c, 0, 76, 64
2, 4320, Note_on_c, 0, 74, 110
2, 4368, Note_off_c, 0, 74, 64
2, 4380, Note_on_c, 0, 76, 110
2, 4428, Note_off_c, 0, 76, 64
2, 4440, Note_on_c, 0, 77, 110
2, 4728, Note_off_c, 0, 77, 64
2, 4800, Note_on_c, 0, 76, 110
2, 4896, Note_off_c, 0, 76, 64
2, 4920, Note_on_c, 0, 74, 110
2, 5112, Note_off_c, 0, 74, 64
2, 5160, Note_on_c, 0, 72, 110
2, 5352, Note_off_c, 0, 72, 64
2, 5400, Note_on_c, 0, 72, 110
2, 5496, Note_off_c, 0, 72, 64
2, 5520, Note_on_c, 0, 70, 110
2, 5616, Note_off_c, 0, 70, 64
2, 5640, Note_on_c, 0, 72, 110
2, 5736, Note_off_c, 0, 72, 64
2, 5760, Note_on_c, 0, 69, 110
2, 5856, Note_off_c, 0, 69, 64
2, 5880, Note_on_c, 0, 70, 110
2, 6168, Note_off_c, 0, 70, 64
2, 6240, Note_on_c, 0, 69, 110
2, 6336, Note_off_c, 0, 69, 64
2, 6360, Note_on_c, 0, 67, 110
2, 6552, Note_off_c, 0, 67, 64
2, 6600, Note_on_c, 0, 65, 110
2, 6696, Note_off_c, 0, 65, 64
2, 6720, Note_on_c, 0, 64, 110
2, 6816, Note_off_c, 0, 64, 64
2, 6840, Note_on_c, 0, 65, 110
2, 6936, Note_off_c, 0, 65, 64
2, 6960, Note_on_c, 0, 69, 110
2, 7056, Note_off_c, 0, 69, 64
2, 7080, Note_on_c, 0, 67, 110
2, 7176, Note_off_c, 0, 67, 64
2, 7200, Note_on_c, 0, 65, 110
2, 7296, Note_off_c, 0, 65, 64
2, 7320, Note_on_c, 0, 64, 110
2, 7608, Note_off_c, 0, 64, 64
2, 7680, Note_on_c, 0, 62, 110
2, 7776, Note_off_c, 0, 62, 64
2, 7800, Note_on_c, 0, 60, 110
2, 7992, Note_off_c, 0, 60, 64
2, 8040, Note_on_c, 0, 72, 110
2, 8232, Note_off_c, 0, 72, 64
2, 8280, Note_on_c, 0, 70, 110
2, 8376, Note_off_c, 0, 70, 64
2, 8400, Note_on_c, 0, 69, 110
2, 8496, Note_off_c, 0, 69, 64
2, 8520, Note_on_c, 0, 67, 110
2, 8616, Note_off_c, 0, 67, 64
2, 8640, Note_on_c, 0, 65, 110
2, 8736, Note_off_c, 0, 65, 64
2, 8760, Note_on_c, 0, 74, 110
2, 9048, Note_off_c, 0, 74, 64
2, 9120, Note_on_c, 0, 75, 110
2, 9216, Note_off_c, 0, 75, 64
2, 9240, Note_on_c, 0, 74, 110
2, 9432, Note_off_c, 0, 74, 64
2, 9480, Note_on_c, 0, 72, 110
2, 9576, Note_off_c, 0, 72, 64
2, 9600, Note_on_c, 0, 70, 110
2, 9696, Note_off_c, 0, 70, 64
2, 9720, Note_on_c, 0, 69, 110
2, 9816, Note_off_c, 0, 69, 64
2, 9840, Note_on_c, 0, 67, 110
2, 9936, Note_off_c, 0, 67, 64
2, 9960, Note_on_c, 0, 77, 110
2, 10152, Note_off_c, 0, 77, 64
2, 10200, Note_on_c, 0, 77, 110
2, 10224, Note_off_c, 0, 77, 64
2, 10230, Note_on_c, 0, 76, 110
2, 10254, Note_off_c, 0, 76, 64
2, 10260, Note_on_c, 0, 77, 110
2, 10284, Note_off_c, 0, 77, 64
2, 10290, Note_on_c, 0, 76, 110
2, 10512, Note_off_c, 0, 76, 64
2, 10560, Note_on_c, 0, 74, 110
2, 10656, Note_off_c, 0, 74, 64
2, 10680, Note_on_c, 0, 72, 110
2, 10776, Note_off_c, 0, 72, 64
2, 10800, Note_on_c, 0, 70, 110
2, 10896, Note_off_c, 0, 70, 64
2, 10920, Note_on_c, 0, 69, 110
2, 11112, Note_off_c, 0, 69, 64
2, 11160, Note_on_c, 0, 70, 110
2, 11189, Note_off_c, 0, 70, 64
2, 11190, Note_on_c, 0, 69, 110
2, 11219, Note_off_c, 0, 69, 64
2, 11220, Note_on_c, 0, 70, 110
2, 11472, Note_off_c, 0, 70, 64
2, 11520, Note_on_c, 0, 72, 110
2, 11616, Note_off_c, 0, 72, 64
2, 11640, Note_on_c, 0, 65, 110
2, 11664, Note_off_c, 0, 65, 64
2, 11670, Note_on_c, 0, 64, 110
2, 11694, Note_off_c, 0, 64, 64
2, 11700, Note_on_c, 0, 65, 110
2, 11724, Note_off_c, 0, 65, 64
2, 11730, Note_on_c, 0, 64, 110
2, 11952, Note_off_c, 0, 64, 64
2, 12000, Note_on_c, 0, 65, 110
2, 12096, Note_off_c, 0, 65, 64
2, 12120, Note_on_c, 0, 67, 110
2, 12216, Note_off_c, 0, 67, 64
2, 12240, Note_on_c, 0, 70, 110
2, 12336, Note_off_c, 0, 70, 64
2, 12360, Note_on_c, 0, 69, 110
2, 12456, Note_off_c, 0, 69, 64
2, 12480, Note_on_c, 0, 67, 110
2, 12576, Note_off_c, 0, 67, 64
2, 12600, Note_on_c, 0, 69, 110
2, 12600, Note_on_c, 0, 64, 110
2, 12624, Note_off_c, 0, 69, 64
2, 12630, Note_on_c, 0, 67, 110
2, 12654, Note_off_c, 0, 67, 64
2, 12660, Note_on_c, 0, 69, 110
2, 12684, Note_off_c, 0, 69, 64
2, 12690, Note_on_c, 0, 67, 110
2, 12912, Note_off_c, 0, 67, 64
2, 12960, Note_on_c, 0, 65, 110
2, 12984, Note_off_c, 0, 64, 64
2, 13056, Note_off_c, 0, 65, 64
2, 13080, Note_on_c, 0, 57, 110
2, 13080, Note_on_c, 0, 65, 110
2, 13080, Note_on_c, 0, 60, 110
2, 13656, Note_off_c, 0, 60, 64
2, 13656, Note_off_c, 0, 65, 64
2, 13656, Note_off_c, 0, 57, 64
2, 13800, Note_on_c, 0, 77, 110
2, 13992, Note_off_c, 0, 77, 64
2, 14040, Note_on_c, 0, 77, 110
2, 14136, Note_off_c, 0, 77, 64
2, 14160, Note_on_c, 0, 76, 110
2, 14256, Note_off_c, 0, 76, 64
2, 14280, Note_on_c, 0, 74, 110
2, 14376, Note_off_c, 0, 74, 64
2, 14400, Note_on_c, 0, 73, 110
2, 14496, Note_off_c, 0, 73, 64
2, 14520, Note_on_c, 0, 74, 110
2, 14544, Note_off_c, 0, 74, 64
2, 14550, Note_on_c, 0, 73, 110
2, 14574, Note_off_c, 0, 73, 64
2, 14580, Note_on_c, 0, 74, 110
2, 14832, Note_off_c, 0, 74, 64
2, 14880, Note_on_c, 0, 76, 110
2, 14976, Note_off_c, 0, 76, 64
2, 15000, Note_on_c, 0, 74, 110
2, 15192, Note_off_c, 0, 74, 64
2, 15240, Note_on_c, 0, 72, 110
2, 15336, Note_off_c, 0, 72, 64
2, 15360, Note_on_c, 0, 71, 110
2, 15456, Note_off_c, 0, 71, 64
2, 15480, Note_on_c, 0, 72, 110
2, 15576, Note_off_c, 0, 72, 64
2, 15600, Note_on_c, 0, 76, 110
2, 15696, Note_off_c, 0, 76, 64
2, 15720, Note_on_c, 0, 74, 110
2, 15912, Note_off_c, 0, 74, 64
2, 15960, Note_on_c, 0, 76, 110
2, 15984, Note_off_c, 0, 76, 64
2, 15990, Note_on_c, 0, 75, 110
2, 16014, Note_off_c, 0, 75, 64
2, 16020, Note_on_c, 0, 76, 110
2, 16272, Note_off_c, 0, 76, 64
2, 16320, Note_on_c, 0, 64, 110
2, 16416, Note_off_c, 0, 64, 64
2, 16440, Note_on_c, 0, 67, 110
2, 16536, Note_off_c, 0, 67, 64
2, 16560, Note_on_c, 0, 66, 110
2, 16656, Note_off_c, 0, 66, 64
2, 16680, Note_on_c, 0, 69, 110
2, 16872, Note_off_c, 0, 69, 64
2, 16920, Note_on_c, 0, 69, 110
2, 16944, Note_off_c, 0, 69, 64
2, 16950, Note_on_c, 0, 68, 110
2, 16974, Note_off_c, 0, 68, 64
2, 16980, Note_on_c, 0, 69, 110
2, 17004, Note_off_c, 0, 69, 64
2, 17010, Note_on_c, 0, 68, 110
2, 17232, Note_off_c, 0, 68, 64
2, 17280, Note_on_c, 0, 69, 110
2, 17328, Note_off_c, 0, 69, 64
2, 17340, Note_on_c, 0, 71, 110
2, 17388, Note_off_c, 0, 71, 64
2, 17400, Note_on_c, 0, 72, 110
2, 17424, Note_off_c, 0, 72, 64
2, 17430, Note_on_c, 0, 71, 110
2, 17454, Note_off_c, 0, 71, 64
2, 17460, Note_on_c, 0, 72, 110
2, 17484, Note_off_c, 0, 72, 64
2, 17490, Note_on_c, 0, 71, 110
2, 17712, Note_off_c, 0, 71, 64
2, 17760, Note_on_c, 0, 69, 110
2, 17808, Note_off_c, 0, 69, 64
2, 17820, Note_on_c, 0, 71, 110
2, 17868, Note_off_c, 0, 71, 64
2, 17880, Note_on_c, 0, 72, 110
2, 17976, Note_off_c, 0, 72, 64
2, 18000, Note_on_c, 0, 71, 110
2, 18096, Note_off_c, 0, 71, 64
2, 18120, Note_on_c, 0, 74, 110
2, 18312, Note_off_c, 0, 74, 64
2, 18360, Note_on_c, 0, 74, 110
2, 18384, Note_off_c, 0, 74, 64
2, 18390, Note_on_c, 0, 73, 110
2, 18414, Note_off_c, 0, 73, 64
2, 18420, Note_on_c, 0, 74, 110
2, 18444, Note_off_c, 0, 74, 64
2, 18450, Note_on_c, 0, 73, 110
2, 18672, Note_off_c, 0, 73, 64
2, 18720, Note_on_c, 0, 74, 110
2, 18768, Note_off_c, 0, 74, 64
2, 18780, Note_on_c, 0, 76, 110
2, 18828, Note_off_c, 0, 76, 64
2, 18840, Note_on_c, 0, 77, 110
2, 18864, Note_off_c, 0, 77, 64
2, 18870, Note_on_c, 0, 76, 110
2, 18894, Note_off_c, 0, 76, 64
2, 18900, Note_on_c, 0, 77, 110
2, 18924, Note_off_c, 0, 77, 64
2, 18930, Note_on_c, 0, 76, 110
2, 19152, Note_off_c, 0, 76, 64
2, 19200, Note_on_c, 0, 74, 110
2, 19248, Note_off_c, 0, 74, 64
2, 19260, Note_on_c, 0, 76, 110
2, 19308, Note_off_c, 0, 76, 64
2, 19320, Note_on_c, 0, 77, 110
2, 19416, Note_off_c, 0, 77, 64
2, 19440, Note_on_c, 0, 76, 110
2, 19536, Note_off_c, 0, 76, 64
2, 19560, Note_on_c, 0, 79, 110
2, 19752, Note_off_c, 0, 79, 64
2, 19800, Note_on_c, 0, 79, 110
2, 19824, Note_off_c, 0, 79, 64
2, 19830, Note_on_c, 0, 78, 110
2, 19854, Note_off_c, 0, 78, 64
2, 19860, Note_on_c, 0, 79, 110
2, 19884, Note_off_c, 0, 79, 64
2, 19890, Note_on_c, 0, 78, 110
2, 20112, Note_off_c, 0, 78, 64
2, 20160, Note_on_c, 0, 80, 110
2, 20208, Note_off_c, 0, 80, 64
2, 20220, Note_on_c, 0, 81, 110
2, 20268, Note_off_c, 0, 81, 64
2, 20280, Note_on_c, 0, 81, 110
2, 20304, Note_off_c, 0, 81, 64
2, 20310, Note_on_c, 0, 80, 110
2, 20334, Note_off_c, 0, 80, 64
2, 20340, Note_on_c, 0, 81, 110
2, 20364, Note_off_c, 0, 81, 64
2, 20370, Note_on_c, 0, 80, 110
2, 20592, Note_off_c, 0, 80, 64
2, 20640, Note_on_c, 0, 78, 110
2, 20688, Note_off_c, 0, 78, 64
2, 20700, Note_on_c, 0, 80, 110
2, 20748, Note_off_c, 0, 80, 64
2, 20760, Note_on_c, 0, 81, 110
2, 20856, Note_off_c, 0, 81, 64
2, 20880, Note_on_c, 0, 74, 110
2, 20976, Note_off_c, 0, 74, 64
2, 21000, Note_on_c, 0, 76, 110
2, 21096, Note_off_c, 0, 76, 64
2, 21120, Note_on_c, 0, 77, 110
2, 21216, Note_off_c, 0, 77, 64
2, 21240, Note_on_c, 0, 71, 110
2, 21240, Note_on_c, 0, 68, 110
2, 21528, Note_off_c, 0, 71, 64
2, 21600, Note_on_c, 0, 69, 110
2, 21624, Note_off_c, 0, 68, 64
2, 21696, Note_off_c, 0, 69, 64
2, 21720, Note_on_c, 0, 69, 110
2, 22440, Note_on_c, 0, 61, 110
2, 22440, Note_on_c, 0, 64, 110
2, 22824, Note_off_c, 0, 69, 64
2, 22824, Note_off_c, 0, 64, 64
2, 22824, Note_off_c, 0, 61, 64
2, 23040, Note_on_c, 0, 74, 110
2, 23136, Note_off_c, 0, 74, 64
2, 23160, Note_on_c, 0, 74, 110
2, 23160, Note_on_c, 0, 65, 110
2, 23160, Note_on_c, 0, 69, 110
2, 23448, Note_off_c, 0, 69, 64
2, 23448, Note_off_c, 0, 65, 64
2, 23448, Note_off_c, 0, 74, 64
2, 23520, Note_on_c, 0, 72, 110
2, 23616, Note_off_c, 0, 72, 64
2, 23640, Note_on_c, 0, 70, 110
2, 23736, Note_off_c, 0, 70, 64
2, 23760, Note_on_c, 0, 69, 110
2, 23856, Note_off_c, 0, 69, 64
2, 23880, Note_on_c, 0, 70, 110
2, 24072, Note_off_c, 0, 70, 64
2, 24120, Note_on_c, 0, 69, 110
2, 24144, Note_off_c, 0, 69, 64
2, 24150, Note_on_c, 0, 67, 110
2, 24174, Note_off_c, 0, 67, 64
2, 24180, Note_on_c, 0, 69, 110
2, 24204, Note_off_c, 0, 69, 64
2, 24210, Note_on_c, 0, 67, 110
2, 24432, Note_off_c, 0, 67, 64
2, 24480, Note_on_c, 0, 67, 110
2, 24576, Note_off_c, 0, 67, 64
2, 24600, Note_on_c, 0, 76, 110
2, 24888, Note_off_c, 0, 76, 64
2, 24960, Note_on_c, 0, 77, 110
2, 25056, Note_off_c, 0, 77, 64
2, 25080, Note_on_c, 0, 77, 110
2, 25176, Note_off_c, 0, 77, 64
2, 25200, Note_on_c, 0, 76, 110
2, 25296, Note_off_c, 0, 76, 64
2, 25320, Note_on_c, 0, 74, 110
2, 25416, Note_off_c, 0, 74, 64
2, 25440, Note_on_c, 0, 73, 110
2, 25536, Note_off_c, 0, 73, 64
2, 25560, Note_on_c, 0, 74, 110
2, 25848, Note_off_c, 0, 74, 64
2, 25920, Note_on_c, 0, 76, 110
2, 26016, Note_off_c, 0, 76, 64
2, 26040, Note_on_c, 0, 73, 110
2, 26232, Note_off_c, 0, 73, 64
2, 26280, Note_on_c, 0, 71, 110
2, 26376, Note_off_c, 0, 71, 64
2, 26400, Note_on_c, 0, 69, 110
2, 26496, Note_off_c, 0, 69, 64
2, 26520, Note_on_c, 0, 71, 110
2, 26616, Note_off_c, 0, 71, 64
2, 26640, Note_on_c, 0, 73, 110
2, 26736, Note_off_c, 0, 73, 64
2, 26760, Note_on_c, 0, 74, 110
2, 26856, Note_off_c, 0, 74, 64
2, 26880, Note_on_c, 0, 76, 110
2, 26976, Note_off_c, 0, 76, 64
2, 27000, Note_on_c, 0, 77, 110
2, 27024, Note_off_c, 0, 77, 64
2, 27030, Note_on_c, 0, 76, 110
2, 27054, Note_off_c, 0, 76, 64
2, 27060, Note_on_c, 0, 77, 110
2, 27084, Note_off_c, 0, 77, 64
2, 27090, Note_on_c, 0, 76, 110
2, 27312, Note_off_c, 0, 76, 64
2, 27360, Note_on_c, 0, 74, 110
2, 27408, Note_off_c, 0, 74, 64
2, 27420, Note_on_c, 0, 76, 110
2, 27468, Note_off_c, 0, 76, 64
2, 27480, Note_on_c, 0, 77, 110
2, 27768, Note_off_c, 0, 77, 64
2, 27840, Note_on_c, 0, 76, 110
2, 27936, Note_off_c, 0, 76, 64
2, 27960, Note_on_c, 0, 74, 110
2, 28152, Note_off_c, 0, 74, 64
2, 28200, Note_on_c, 0, 72, 110
2, 28392, Note_off_c, 0, 72, 64
2, 28440, Note_on_c, 0, 72, 110
2, 28536, Note_off_c, 0, 72, 64
2, 28560, Note_on_c, 0, 70, 110
2, 28656, Note_off_c, 0, 70, 64
2, 28680, Note_on_c, 0, 72, 110
2, 28776, Note_off_c, 0, 72, 64
2, 28800, Note_on_c, 0, 69, 110
2, 28896, Note_off_c, 0, 69, 64
2, 28920, Note_on_c, 0, 70, 110
2, 29208, Note_off_c, 0, 70, 64
2, 29280, Note_on_c, 0, 69, 110
2, 29376, Note_off_c, 0, 69, 64
2, 29400, Note_on_c, 0, 67, 110
2, 29592, Note_off_c, 0, 67, 64
2, 29640, Note_on_c, 0, 65, 110
2, 29736, Note_off_c, 0, 65, 64
2, 29760, Note_on_c, 0, 64, 110
2, 29856, Note_off_c, 0, 64, 64
2, 29880, Note_on_c, 0, 65, 110
2, 29976, Note_off_c, 0, 65, 64
2, 30000, Note_on_c, 0, 69, 110
2, 30096, Note_off_c, 0, 69, 64
2, 30120, Note_on_c, 0, 67, 110
2, 30216, Note_off_c, 0, 67, 64
2, 30240, Note_on_c, 0, 65, 110
2, 30336, Note_off_c, 0, 65, 64
2, 30360, Note_on_c, 0, 64, 110
2, 30648, Note_off_c, 0, 64, 64
2, 30720, Note_on_c, 0, 62, 110
2, 30816, Note_off_c, 0, 62, 64
2, 30840, Note_on_c, 0, 60, 110
2, 31032, Note_off_c, 0, 60, 64
2, 31080, Note_on_c, 0, 72, 110
2, 31272, Note_off_c, 0, 72, 64
2, 31320, Note_on_c, 0, 70, 110
2, 31416, Note_off_c, 0, 70, 64
2, 31440, Note_on_c, 0, 69, 110
2, 31536, Note_off_c, 0, 69, 64
2, 31560, Note_on_c, 0, 67, 110
2, 31656, Note_off_c, 0, 67, 64
2, 31680, Note_on_c, 0, 65, 110
2, 31776, Note_off_c, 0, 65, 64
2, 31800, Note_on_c, 0, 74, 110
2, 32088, Note_off_c, 0, 74, 64
2, 32160, Note_on_c, 0, 75, 110
2, 32256, Note_off_c, 0, 75, 64
2, 32280, Note_on_c, 0, 74, 110
2, 32472, Note_off_c, 0, 74, 64
2, 32520, Note_on_c, 0, 72, 110
2, 32616, Note_off_c, 0, 72, 64
2, 32640, Note_on_c, 0, 70, 110
2, 32736, Note_off_c, 0, 70, 64
2, 32760, Note_on_c, 0, 69, 110
2, 32856, Note_off_c, 0, 69, 64
2, 32880, Note_on_c, 0, 67, 110
2, 32976, Note_off_c, 0, 67, 64
2, 33000, Note_on_c, 0, 77, 110
2, 33192, Note_off_c, 0, 77, 64
2, 33240, Note_on_c, 0, 77, 110
2, 33264, Note_off_c, 0, 77, 64
2, 33270, Note_on_c, 0, 76, 110
2, 33294, Note_off_c, 0, 76, 64
2, 33300, Note_on_c, 0, 77, 110
2, 33324, Note_off_c, 0, 77, 64
2, 33330, Note_on_c, 0, 76, 110
2, 33552, Note_off_c, 0, 76, 64
2, 33600, Note_on_c, 0, 74, 110
2, 33696, Note_off_c, 0, 74, 64
2, 33720, Note_on_c, 0, 72, 110
2, 33816, Note_off_c, 0, 72, 64
2, 33840, Note_on_c, 0, 70, 110
2, 33936, Note_off_c, 0, 70, 64
2, 33960, Note_on_c, 0, 69, 110
2, 34152, Note_off_c, 0, 69, 64
2, 34200, Note_on_c, 0, 70, 110
2, 34229, Note_off_c, 0, 70, 64
2, 34230, Note_on_c, 0, 69, 110
2, 34259, Note_off_c, 0, 69, 64
2, 34260, Note_on_c, 0, 70, 110
2, 34512, Note_off_c, 0, 70, 64
2, 34560, Note_on_c, 0, 72, 110
2, 34656, Note_off_c, 0, 72, 64
2, 34680, Note_on_c, 0, 65, 110
2, 34704, Note_off_c, 0, 65, 64
2, 34710, Note_on_c, 0, 64, 110
2, 34734, Note_off_c, 0, 64, 64
2, 34740, Note_on_c, 0, 65, 110
2, 34764, Note_off_c, 0, 65, 64
2, 34770, Note_on_c, 0, 64, 110
2, 34992, Note_off_c, 0, 64, 64
2, 35040, Note_on_c, 0, 65, 110
2, 35136, Note_off_c, 0, 65, 64
2, 35160, Note_on_c, 0, 67, 110
2, 35256, Note_off_c, 0, 67, 64
2, 35280, Note_on_c, 0, 70, 110
2, 35376, Note_off_c, 0, 70, 64
2, 35400, Note_on_c, 0, 69, 110
2, 35496, Note_off_c, 0, 69, 64
2, 35520, Note_on_c, 0, 67, 110
2, 35616, Note_off_c, 0, 67, 64
2, 35640, Note_on_c, 0, 69, 110
2, 35640, Note_on_c, 0, 64, 110
2, 35664, Note_off_c, 0, 69, 64
2, 35670, Note_on_c, 0, 67, 110
2, 35694, Note_off_c, 0, 67, 64
2, 35700, Note_on_c, 0, 69, 110
2, 35724, Note_off_c, 0, 69, 64
2, 35730, Note_on_c, 0, 67, 110
2, 35952, Note_off_c, 0, 67, 64
2, 36000, Note_on_c, 0, 65, 110
2, 36024, Note_off_c, 0, 64, 64
2, 36096, Note_off_c, 0, 65, 64
2, 36120, Note_on_c, 0, 57, 110
2, 36120, Note_on_c, 0, 65, 110
2, 36120, Note_on_c, 0, 60, 110
2, 36696, Note_off_c, 0, 60, 64
2, 36696, Note_off_c, 0, 65, 64
2, 36696, Note_off_c, 0, 57, 64
2, 36840, Note_on_c, 0, 77, 110
2, 37032, Note_off_c, 0, 77, 64
2, 37080, Note_on_c, 0, 77, 110
2, 37176, Note_off_c, 0, 77, 64
2, 37200, Note_on_c, 0, 76, 110
2, 37296, Note_off_c, 0, 76, 64
2, 37320, Note_on_c, 0, 74, 110
2, 37416, Note_off_c, 0, 74, 64
2, 37440, Note_on_c, 0, 73, 110
2, 37536, Note_off_c, 0, 73, 64
2, 37560, Note_on_c, 0, 74, 110
2, 37584, Note_off_c, 0, 74, 64
2, 37590, Note_on_c, 0, 73, 110
2, 37614, Note_off_c, 0, 73, 64
2, 37620, Note_on_c, 0, 74, 110
2, 37872, Note_off_c, 0, 74, 64
2, 37920, Note_on_c, 0, 76, 110
2, 38016, Note_off_c, 0, 76, 64
2, 38040, Note_on_c, 0, 74, 110
2, 38232, Note_off_c, 0, 74, 64
2, 38280, Note_on_c, 0, 72, 110
2, 38376, Note_off_c, 0, 72, 64
2, 38400, Note_on_c, 0, 71, 110
2, 38496, Note_off_c, 0, 71, 64
2, 38520, Note_on_c, 0, 72, 110
2, 38616, Note_off_c, 0, 72, 64
2, 38640, Note_on_c, 0, 76, 110
2, 38736, Note_off_c, 0, 76, 64
2, 38760, Note_on_c, 0, 74, 110
2, 38952, Note_off_c, 0, 74, 64
2, 39000, Note_on_c, 0, 76, 110
2, 39024, Note_off_c, 0, 76, 64
2, 39030, Note_on_c, 0, 75, 110
2, 39054, Note_off_c, 0, 75, 64
2, 39060, Note_on_c, 0, 76, 110
2, 39312, Note_off_c, 0, 76, 64
2, 39360, Note_on_c, 0, 64, 110
2, 39456, Note_off_c, 0, 64, 64
2, 39480, Note_on_c, 0, 67, 110
2, 39576, Note_off_c, 0, 67, 64
2, 39600, Note_on_c, 0, 66, 110
2, 39696, Note_off_c, 0, 66, 64
2, 39720, Note_on_c, 0, 69, 110
2, 39912, Note_off_c, 0, 69, 64
2, 39960, Note_on_c, 0, 69, 110
2, 39984, Note_off_c, 0, 69, 64
2, 39990, Note_on_c, 0, 68, 110
2, 40014, Note_off_c, 0, 68, 64
2, 40020, Note_on_c, 0, 69, 110
2, 40044, Note_off_c, 0, 69, 64
2, 40050, Note_on_c, 0, 68, 110
2, 40272, Note_off_c, 0, 68, 64
2, 40320, Note_on_c, 0, 69, 110
2, 40368, Note_off_c, 0, 69, 64
2, 40380, Note_on_c, 0, 71, 110
2, 40428, Note_off_c, 0, 71, 64
2, 40440, Note_on_c, 0, 72, 110
2, 40464, Note_off_c, 0, 72, 64
2, 40470, Note_on_c, 0, 71, 110
2, 40494, Note_off_c, 0, 71, 64
2, 40500, Note_on_c, 0, 72, 110
2, 40524, Note_off_c, 0, 72, 64
2, 40530, Note_on_c, 0, 71, 110
2, 40752, Note_off_c, 0, 71, 64
2, 40800, Note_on_c, 0, 69, 110
2, 40848, Note_off_c, 0, 69, 64
2, 40860, Note_on_c, 0, 71, 110
2, 40908, Note_off_c, 0, 71, 64
2, 40920, Note_on_c, 0, 72, 110
2, 41016, Note_off_c, 0, 72, 64
2, 41040, Note_on_c, 0, 71, 110
2, 41136, Note_off_c, 0, 71, 64
2, 41160, Note_on_c, 0, 74, 110
2, 41352, Note_off_c, 0, 74, 64
2, 41400, Note_on_c, 0, 74, 110
2, 41424, Note_off_c, 0, 74, 64
2, 41430, Note_on_c, 0, 73, 110
2, 41454, Note_off_c, 0, 73, 64
2, 41460, Note_on_c, 0, 74, 110
2, 41484, Note_off_c, 0, 74, 64
2, 41490, Note_on_c, 0, 73, 110
2, 41712, Note_off_c, 0, 73, 64
2, 41760, Note_on_c, 0, 74, 110
2, 41808, Note_off_c, 0, 74, 64
2, 41820, Note_on_c, 0, 76, 110
2, 41868, Note_off_c, 0, 76, 64
2, 41880, Note_on_c, 0, 77, 110
2, 41904, Note_off_c, 0, 77, 64
2, 41910, Note_on_c, 0, 76, 110
2, 41934, Note_off_c, 0, 76, 64
2, 41940, Note_on_c, 0, 77, 110
2, 41964, Note_off_c, 0, 77, 64
2, 41970, Note_on_c, 0, 76, 110
2, 42192, Note_off_c, 0, 76, 64
2, 42240, Note_on_c, 0, 74, 110
2, 42288, Note_off_c, 0, 74, 64
2, 42300, Note_on_c, 0, 76, 110
2, 42348, Note_off_c, 0, 76, 64
2, 42360, Note_on_c, 0, 77, 110
2, 42456, Note_off_c, 0, 77, 64
2, 42480, Note_on_c, 0, 76, 110
2, 42576, Note_off_c, 0, 76, 64
2, 42600, Note_on_c, 0, 79, 110
2, 42792, Note_off_c, 0, 79, 64
2, 42840, Note_on_c, 0, 79, 110
2, 42864, Note_off_c, 0, 79, 64
2, 42870, Note_on_c, 0, 78, 110
2, 42894, Note_off_c, 0, 78, 64
2, 42900, Note_on_c, 0, 79, 110
2, 42924, Note_off_c, 0, 79, 64
2, 42930, Note_on_c, 0, 78, 110
2, 43152, Note_off_c, 0, 78, 64
2, 43200, Note_on_c, 0, 80, 110
2, 43248, Note_off_c, 0, 80, 64
2, 43260, Note_on_c, 0, 81, 110
2, 43308, Note_off_c, 0, 81, 64
2, 43320, Note_on_c, 0, 81, 110
2, 43344, Note_off_c, 0, 81, 64
2, 43350, Note_on_c, 0, 80, 110
2, 43374, Note_off_c, 0, 80, 64
2, 43380, Note_on_c, 0, 81, 110
2, 43404, Note_off_c, 0, 81, 64
2, 43410, Note_on_c, 0, 80, 110
2, 43632, Note_off_c, 0, 80, 64
2, 43680, Note_on_c, 0, 78, 110
2, 43728, Note_off_c, 0, 78, 64
2, 43740, Note_on_c, 0, 80, 110
2, 43788, Note_off_c, 0, 80, 64
2, 43800, Note_on_c, 0, 81, 110
2, 43896, Note_off_c, 0, 81, 64
2, 43920, Note_on_c, 0, 74, 110
2, 44016, Note_off_c, 0, 74, 64
2, 44040, Note_on_c, 0, 76, 110
2, 44136, Note_off_c, 0, 76, 64
2, 44160, Note_on_c, 0, 77, 110
2, 44256, Note_off_c, 0, 77, 64
2, 44280, Note_on_c, 0, 71, 110
2, 44280, Note_on_c, 0, 68, 110
2, 44568, Note_off_c, 0, 71, 64
2, 44640, Note_on_c, 0, 69, 110
2, 44664, Note_off_c, 0, 68, 64
2, 44736, Note_off_c, 0, 69, 64
2, 44760, Note_on_c, 0, 69, 110
2, 45480, Note_on_c, 0, 61, 110
2, 45480, Note_on_c, 0, 64, 110
2, 45864, Note_off_c, 0, 69, 64
2, 45864, Note_off_c, 0, 64, 64
2, 45864, Note_off_c, 0, 61, 64
2, 46080, Note_on_c, 0, 76, 110
2, 46176, Note_off_c, 0, 76, 64
2, 46200, Note_on_c, 0, 69, 110
2, 46200, Note_on_c, 0, 73, 110
2, 46200, Note_on_c, 0, 76, 110
2, 46488, Note_off_c, 0, 76, 64
2, 46488, Note_off_c, 0, 73, 64
2, 46488, Note_off_c, 0, 69, 64
2, 46560, Note_on_c, 0, 77, 110
2, 46656, Note_off_c, 0, 77, 64
2, 46680, Note_on_c, 0, 79, 110
2, 46872, Note_off_c, 0, 79, 64
2, 46920, Note_on_c, 0, 77, 110
2, 47016, Note_off_c, 0, 77, 64
2, 47040, Note_on_c, 0, 76, 110
2, 47136, Note_off_c, 0, 76, 64
2, 47160, Note_on_c, 0, 74, 110
2, 47256, Note_off_c, 0, 74, 64
2, 47280, Note_on_c, 0, 73, 110
2, 47376, Note_off_c, 0, 73, 64
2, 47400, Note_on_c, 0, 74, 110
2, 47496, Note_off_c, 0, 74, 64
2, 47520, Note_on_c, 0, 76, 110
2, 47616, Note_off_c, 0, 76, 64
2, 47640, Note_on_c, 0, 77, 110
2, 47664, Note_off_c, 0, 77, 64
2, 47670, Note_on_c, 0, 76, 110
2, 47694, Note_off_c, 0, 76, 64
2, 47700, Note_on_c, 0, 77, 110
2, 47952, Note_off_c, 0, 77, 64
2, 48000, Note_on_c, 0, 76, 110
2, 48096, Note_off_c, 0, 76, 64
2, 48120, Note_on_c, 0, 74, 110
2, 48312, Note_off_c, 0, 74, 64
2, 48360, Note_on_c, 0, 82, 110
2, 48552, Note_off_c, 0, 82, 64
2, 48600, Note_on_c, 0, 82, 110
2, 48696, Note_off_c, 0, 82, 64
2, 48720, Note_on_c, 0, 81, 110
2, 48816, Note_off_c, 0, 81, 64
2, 48840, Note_on_c, 0, 79, 110
2, 48936, Note_off_c, 0, 79, 64
2, 48960, Note_on_c, 0, 78, 110
2, 49056, Note_off_c, 0, 78, 64
2, 49080, Note_on_c, 0, 79, 110
2, 49368, Note_off_c, 0, 79, 64
2, 49440, Note_on_c, 0, 81, 110
2, 49536, Note_off_c, 0, 81, 64
2, 49560, Note_on_c, 0, 82, 110
2, 49656, Note_off_c, 0, 82, 64
2, 49680, Note_on_c, 0, 81, 110
2, 49776, Note_off_c, 0, 81, 64
2, 49800, Note_on_c, 0, 84, 110
2, 49992, Note_off_c, 0, 84, 64
2, 50040, Note_on_c, 0, 82, 110
2, 50064, Note_off_c, 0, 82, 64
2, 50070, Note_on_c, 0, 81, 110
2, 50094, Note_off_c, 0, 81, 64
2, 50100, Note_on_c, 0, 82, 110
2, 50124, Note_off_c, 0, 82, 64
2, 50130, Note_on_c, 0, 81, 110
2, 50352, Note_off_c, 0, 81, 64
2, 50400, Note_on_c, 0, 79, 110
2, 50448, Note_off_c, 0, 79, 64
2, 50460, Note_on_c, 0, 81, 110
2, 50508, Note_off_c, 0, 81, 64
2, 50520, Note_on_c, 0, 82, 110
2, 50808, Note_off_c, 0, 82, 64
2, 50880, Note_on_c, 0, 81, 110
2, 50976, Note_off_c, 0, 81, 64
2, 51000, Note_on_c, 0, 79, 110
2, 51096, Note_off_c, 0, 79, 64
2, 51120, Note_on_c, 0, 78, 110
2, 51216, Note_off_c, 0, 78, 64
2, 51240, Note_on_c, 0, 79, 110
2, 51336, Note_off_c, 0, 79, 64
2, 51360, Note_on_c, 0, 81, 110
2, 51456, Note_off_c, 0, 81, 64
2, 51480, Note_on_c, 0, 78, 110
2, 51480, Note_on_c, 0, 82, 110
2, 51504, Note_off_c, 0, 82, 64
2, 51510, Note_on_c, 0, 81, 110
2, 51534, Note_off_c, 0, 81, 64
2, 51540, Note_on_c, 0, 82, 110
2, 51564, Note_off_c, 0, 82, 64
2, 51570, Note_on_c, 0, 81, 110
2, 51594, Note_off_c, 0, 81, 64
2, 51600, Note_on_c, 0, 82, 110
2, 51624, Note_off_c, 0, 82, 64
2, 51630, Note_on_c, 0, 81, 110
2, 51654, Note_off_c, 0, 81, 64
2, 51660, Note_on_c, 0, 82, 110
2, 51684, Note_off_c, 0, 82, 64
2, 51690, Note_on_c, 0, 81, 110
2, 51714, Note_off_c, 0, 81, 64
2, 51720, Note_on_c, 0, 82, 110
2, 51744, Note_off_c, 0, 82, 64
2, 51750, Note_on_c, 0, 81, 110
2, 51774, Note_off_c, 0, 81, 64
2, 51780, Note_on_c, 0, 82, 110
2, 51804, Note_off_c, 0, 82, 64
2, 51810, Note_on_c, 0, 81, 110
2, 51834, Note_off_c, 0, 81, 64
2, 51840, Note_on_c, 0, 79, 110
2, 51864, Note_off_c, 0, 78, 64
2, 51936, Note_off_c, 0, 79, 64
2, 51960, Note_on_c, 0, 79, 110
2, 51960, Note_on_c, 0, 70, 110
2, 51960, Note_on_c, 0, 74, 110
2, 52344, Note_off_c, 0, 74, 64
2, 52344, Note_off_c, 0, 70, 64
2, 52536, Note_off_c, 0, 79, 64
2, 52560, Note_on_c, 0, 81, 110
2, 52656, Note_off_c, 0, 81, 64
2, 52680, Note_on_c, 0, 82, 110
2, 52776, Note_off_c, 0, 82, 64
2, 52800, Note_on_c, 0, 81, 110
2, 52896, Note_off_c, 0, 81, 64
2, 52920, Note_on_c, 0, 79, 110
2, 53016, Note_off_c, 0, 79, 64
2, 53040, Note_on_c, 0, 77, 110
2, 53136, Note_off_c, 0, 77, 64
2, 53160, Note_on_c, 0, 76, 110
2, 53256, Note_off_c, 0, 76, 64
2, 53280, Note_on_c, 0, 77, 110
2, 53376, Note_off_c, 0, 77, 64
2, 53400, Note_on_c, 0, 77, 110
2, 53424, Note_off_c, 0, 77, 64
2, 53430, Note_on_c, 0, 76, 110
2, 53454, Note_off_c, 0, 76, 64
2, 53460, Note_on_c, 0, 77, 110
2, 53484, Note_off_c, 0, 77, 64
2, 53490, Note_on_c, 0, 76, 110
2, 53712, Note_off_c, 0, 76, 64
2, 53760, Note_on_c, 0, 74, 110
2, 53856, Note_off_c, 0, 74, 64
2, 53880, Note_on_c, 0, 72, 110
2, 54072, Note_off_c, 0, 72, 64
2, 54120, Note_on_c, 0, 84, 110
2, 54312, Note_off_c, 0, 84, 64
2, 54360, Note_on_c, 0, 82, 110
2, 54456, Note_off_c, 0, 82, 64
2, 54480, Note_on_c, 0, 81, 110
2, 54576, Note_off_c, 0, 81, 64
2, 54600, Note_on_c, 0, 79, 110
2, 54696, Note_off_c, 0, 79, 64
2, 54720, Note_on_c, 0, 77, 110
2, 54816, Note_off_c, 0, 77, 64
2, 54840, Note_on_c, 0, 75, 110
2, 54960, Note_on_c, 0, 74, 110
2, 54984, Note_off_c, 0, 75, 64
2, 55185, Note_off_c, 0, 74, 64
2, 55200, Note_on_c, 0, 75, 110
2, 55296, Note_off_c, 0, 75, 64
2, 55320, Note_on_c, 0, 77, 110
2, 55416, Note_off_c, 0, 77, 64
2, 55440, Note_on_c, 0, 75, 110
2, 55536, Note_off_c, 0, 75, 64
2, 55560, Note_on_c, 0, 79, 110
2, 55656, Note_off_c, 0, 79, 64
2, 55680, Note_on_c, 0, 77, 110
2, 55776, Note_off_c, 0, 77, 64
2, 55800, Note_on_c, 0, 75, 110
2, 55896, Note_off_c, 0, 75, 64
2, 55920, Note_on_c, 0, 74, 110
2, 56016, Note_off_c, 0, 74, 64
2, 56040, Note_on_c, 0, 72, 110
2, 56136, Note_off_c, 0, 72, 64
2, 56160, Note_on_c, 0, 70, 110
2, 56256, Note_off_c, 0, 70, 64
2, 56280, Note_on_c, 0, 70, 110
2, 56376, Note_off_c, 0, 70, 64
2, 56400, Note_on_c, 0, 69, 110
2, 56496, Note_off_c, 0, 69, 64
2, 56520, Note_on_c, 0, 67, 110
2, 56616, Note_off_c, 0, 67, 64
2, 56640, Note_on_c, 0, 65, 110
2, 56736, Note_off_c, 0, 65, 64
2, 56760, Note_on_c, 0, 67, 110
2, 56856, Note_off_c, 0, 67, 64
2, 56880, Note_on_c, 0, 69, 110
2, 56976, Note_off_c, 0, 69, 64
2, 57000, Note_on_c, 0, 70, 110
2, 57096, Note_off_c, 0, 70, 64
2, 57120, Note_on_c, 0, 72, 110
2, 57216, Note_off_c, 0, 72, 64
2, 57240, Note_on_c, 0, 74, 110
2, 57336, Note_off_c, 0, 74, 64
2, 57360, Note_on_c, 0, 75, 110
2, 57456, Note_off_c, 0, 75, 64
2, 57480, Note_on_c, 0, 77, 110
2, 57576, Note_off_c, 0, 77, 64
2, 57600, Note_on_c, 0, 74, 110
2, 57696, Note_off_c, 0, 74, 64
2, 57720, Note_on_c, 0, 79, 110
2, 57816, Note_off_c, 0, 79, 64
2, 57840, Note_on_c, 0, 77, 110
2, 57936, Note_off_c, 0, 77, 64
2, 57960, Note_on_c, 0, 82, 110
2, 58152, Note_off_c, 0, 82, 64
2, 58200, Note_on_c, 0, 75, 110
2, 58224, Note_off_c, 0, 75, 64
2, 58230, Note_on_c, 0, 74, 110
2, 58254, Note_off_c, 0, 74, 64
2, 58260, Note_on_c, 0, 75, 110
2, 58284, Note_off_c, 0, 75, 64
2, 58290, Note_on_c, 0, 74, 110
2, 58512, Note_off_c, 0, 74, 64
2, 58560, Note_on_c, 0, 72, 110
2, 58656, Note_off_c, 0, 72, 64
2, 58680, Note_on_c, 0, 74, 110
2, 58680, Note_on_c, 0, 69, 110
2, 58704, Note_off_c, 0, 74, 64
2, 58710, Note_on_c, 0, 72, 110
2, 58734, Note_off_c, 0, 72, 64
2, 58740, Note_on_c, 0, 74, 110
2, 58764, Note_off_c, 0, 74, 64
2, 58770, Note_on_c, 0, 72, 110
2, 58992, Note_off_c, 0, 72, 64
2, 59040, Note_on_c, 0, 70, 110
2, 59064, Note_off_c, 0, 69, 64
2, 59136, Note_off_c, 0, 70, 64
2, 59160, Note_on_c, 0, 70, 110
2, 59160, Note_on_c, 0, 65, 110
2, 59160, Note_on_c, 0, 62, 110
2, 59736, Note_off_c, 0, 62, 64
2, 59736, Note_off_c, 0, 65, 64
2, 59736, Note_off_c, 0, 70, 64
2, 59880, Note_on_c, 0, 74, 110
2, 60072, Note_off_c, 0, 74, 64
2, 60120, Note_on_c, 0, 72, 110
2, 60216, Note_off_c, 0, 72, 64
2, 60240, Note_on_c, 0, 70, 110
2, 60336, Note_off_c, 0, 70, 64
2, 60360, Note_on_c, 0, 69, 110
2, 60456, Note_off_c, 0, 69, 64
2, 60480, Note_on_c, 0, 70, 110
2, 60576, Note_off_c, 0, 70, 64
2, 60600, Note_on_c, 0, 72, 110
2, 60696, Note_off_c, 0, 72, 64
2, 60720, Note_on_c, 0, 70, 110
2, 60816, Note_off_c, 0, 70, 64
2, 60840, Note_on_c, 0, 69, 110
2, 60936, Note_off_c, 0, 69, 64
2, 60960, Note_on_c, 0, 67, 110
2, 61056, Note_off_c, 0, 67, 64
2, 61080, Note_on_c, 0, 79, 110
2, 61368, Note_off_c, 0, 79, 64
2, 61440, Note_on_c, 0, 77, 110
2, 61536, Note_off_c, 0, 77, 64
2, 61560, Note_on_c, 0, 76, 110
2, 61656, Note_off_c, 0, 76, 64
2, 61680, Note_on_c, 0, 74, 110
2, 61776, Note_off_c, 0, 74, 64
2, 61800, Note_on_c, 0, 73, 110
2, 61896, Note_off_c, 0, 73, 64
2, 61920, Note_on_c, 0, 74, 110
2, 62016, Note_off_c, 0, 74, 64
2, 62040, Note_on_c, 0, 73, 110
2, 62136, Note_off_c, 0, 73, 64
2, 62160, Note_on_c, 0, 76, 110
2, 62256, Note_off_c, 0, 76, 64
2, 62280, Note_on_c, 0, 69, 110
2, 62376, Note_off_c, 0, 69, 64
2, 62400, Note_on_c, 0, 71, 110
2, 62496, Note_off_c, 0, 71, 64
2, 62520, Note_on_c, 0, 72, 110
2, 62616, Note_off_c, 0, 72, 64
2, 62640, Note_on_c, 0, 71, 110
2, 62736, Note_off_c, 0, 71, 64
2, 62760, Note_on_c, 0, 74, 110
2, 62952, Note_off_c, 0, 74, 64
2, 63000, Note_on_c, 0, 74, 110
2, 63024, Note_off_c, 0, 74, 64
2, 63030, Note_on_c, 0, 73, 110
2, 63054, Note_off_c, 0, 73, 64
2, 63060, Note_on_c, 0, 74, 110
2, 63084, Note_off_c, 0, 74, 64
2, 63090, Note_on_c, 0, 73, 110
2, 63312, Note_off_c, 0, 73, 64
2, 63360, Note_on_c, 0, 74, 110
2, 63408, Note_off_c, 0, 74, 64
2, 63420, Note_on_c, 0, 76, 110
2, 63468, Note_off_c, 0, 76, 64
2, 63480, Note_on_c, 0, 77, 110
2, 63504, Note_off_c, 0, 77, 64
2, 63510, Note_on_c, 0, 76, 110
2, 63534, Note_off_c, 0, 76, 64
2, 63540, Note_on_c, 0, 77, 110
2, 63564, Note_off_c, 0, 77, 64
2, 63570, Note_on_c, 0, 76, 110
2, 63792, Note_off_c, 0, 76, 64
2, 63840, Note_on_c, 0, 74, 110
2, 63888, Note_off_c, 0, 74, 64
2, 63900, Note_on_c, 0, 76, 110
2, 63948, Note_off_c, 0, 76, 64
2, 63960, Note_on_c, 0, 77, 110
2, 64056, Note_off_c, 0, 77, 64
2, 64080, Note_on_c, 0, 76, 110
2, 64176, Note_off_c, 0, 76, 64
2, 64200, Note_on_c, 0, 79, 110
2, 64392, Note_off_c, 0, 79, 64
2, 64440, Note_on_c, 0, 79, 110
2, 64464, Note_off_c, 0, 79, 64
2, 64470, Note_on_c, 0, 78, 110
2, 64494, Note_off_c, 0, 78, 64
2, 64500, Note_on_c, 0, 79, 110
2, 64524, Note_off_c, 0, 79, 64
2, 64530, Note_on_c, 0, 78, 110
2, 64752, Note_off_c, 0, 78, 64
2, 64800, Note_on_c, 0, 79, 110
2, 64848, Note_off_c, 0, 79, 64
2, 64860, Note_on_c, 0, 81, 110
2, 64908, Note_off_c, 0, 81, 64
2, 64920, Note_on_c, 0, 82, 110
2, 64944, Note_off_c, 0, 82, 64
2, 64950, Note_on_c, 0, 81, 110
2, 64974, Note_off_c, 0, 81, 64
2, 64980, Note_on_c, 0, 82, 110
2, 65004, Note_off_c, 0, 82, 64
2, 65010, Note_on_c, 0, 81, 110
2, 65232, Note_off_c, 0, 81, 64
2, 65280, Note_on_c, 0, 79, 110
2, 65328, Note_off_c, 0, 79, 64
2, 65340, Note_on_c, 0, 81, 110
2, 65388, Note_off_c, 0, 81, 64
2, 65400, Note_on_c, 0, 82, 110
2, 65496, Note_off_c, 0, 82, 64
2, 65520, Note_on_c, 0, 81, 110
2, 65616, Note_off_c, 0, 81, 64
2, 65640, Note_on_c, 0, 79, 110
2, 65736, Note_off_c, 0, 79, 64
2, 65760, Note_on_c, 0, 77, 110
2, 65856, Note_off_c, 0, 77, 64
2, 65880, Note_on_c, 0, 76, 110
2, 65976, Note_off_c, 0, 76, 64
2, 66000, Note_on_c, 0, 74, 110
2, 66096, Note_off_c, 0, 74, 64
2, 66120, Note_on_c, 0, 73, 110
2, 66216, Note_off_c, 0, 73, 64
2, 66240, Note_on_c, 0, 74, 110
2, 66336, Note_off_c, 0, 74, 64
2, 66360, Note_on_c, 0, 67, 110
2, 66456, Note_off_c, 0, 67, 64
2, 66480, Note_on_c, 0, 70, 110
2, 66576, Note_off_c, 0, 70, 64
2, 66600, Note_on_c, 0, 69, 110
2, 66696, Note_off_c, 0, 69, 64
2, 66720, Note_on_c, 0, 73, 110
2, 66816, Note_off_c, 0, 73, 64
2, 66840, Note_on_c, 0, 74, 110
2, 67128, Note_off_c, 0, 74, 64
2, 67200, Note_on_c, 0, 76, 110
2, 67296, Note_off_c, 0, 76, 64
2, 67320, Note_on_c, 0, 77, 110
2, 67320, Note_on_c, 0, 73, 110
2, 67344, Note_off_c, 0, 77, 64
2, 67350, Note_on_c, 0, 76, 110
2, 67374, Note_off_c, 0, 76, 64
2, 67380, Note_on_c, 0, 77, 110
2, 67404, Note_off_c, 0, 77, 64
2, 67410, Note_on_c, 0, 76, 110
2, 67434, Note_off_c, 0, 76, 64
2, 67440, Note_on_c, 0, 77, 110
2, 67464, Note_off_c, 0, 77, 64
2, 67470, Note_on_c, 0, 76, 110
2, 67494, Note_off_c, 0, 76, 64
2, 67500, Note_on_c, 0, 77, 110
2, 67524, Note_off_c, 0, 77, 64
2, 67530, Note_on_c, 0, 76, 110
2, 67554, Note_off_c, 0, 76, 64
2, 67560, Note_on_c, 0, 77, 110
2, 67584, Note_off_c, 0, 77, 64
2, 67590, Note_on_c, 0, 76, 110
2, 67614, Note_off_c, 0, 76, 64
2, 67620, Note_on_c, 0, 77, 110
2, 67644, Note_off_c, 0, 77, 64
2, 67650, Note_on_c, 0, 76, 110
2, 67674, Note_off_c, 0, 76, 64
2, 67680, Note_on_c, 0, 74, 110
2, 67704, Note_off_c, 0, 73, 64
2, 67776, Note_off_c, 0, 74, 64
2, 67800, Note_on_c, 0, 74, 110
2, 68520, Note_on_c, 0, 69, 110
2, 68520, Note_on_c, 0, 65, 110
2, 68904, Note_off_c, 0, 74, 64
2, 68904, Note_off_c, 0, 65, 64
2, 68904, Note_off_c, 0, 69, 64
2, 69120, Note_on_c, 0, 76, 110
2, 69216, Note_off_c, 0, 76, 64
2, 69240, Note_on_c, 0, 69, 110
2, 69240, Note_on_c, 0, 73, 110
2, 69240, Note_on_c, 0, 76, 110
2, 69528, Note_off_c, 0, 76, 64
2, 69528, Note_off_c, 0, 73, 64
2, 69528, Note_off_c, 0, 69, 64
2, 69600, Note_on_c, 0, 77, 110
2, 69696, Note_off_c, 0, 77, 64
2, 69720, Note_on_c, 0, 79, 110
2, 69912, Note_off_c, 0, 79, 64
2, 69960, Note_on_c, 0, 77, 110
2, 70056, Note_off_c, 0, 77, 64
2, 70080, Note_on_c, 0, 76, 110
2, 70176, Note_off_c, 0, 76, 64
2, 70200, Note_on_c, 0, 74, 110
2, 70296, Note_off_c, 0, 74, 64
2, 70320, Note_on_c, 0, 73, 110
2, 70416, Note_off_c, 0, 73, 64
2, 70440, Note_on_c, 0, 74, 110
2, 70536, Note_off_c, 0, 74, 64
2, 70560, Note_on_c, 0, 76, 110
2, 70656, Note_off_c, 0, 76, 64
2, 70680, Note_on_c, 0, 77, 110
2, 70704, Note_off_c, 0, 77, 64
2, 70710, Note_on_c, 0, 76, 110
2, 70734, Note_off_c, 0, 76, 64
2, 70740, Note_on_c, 0, 77, 110
2, 70992, Note_off_c, 0, 77, 64
2, 71040, Note_on_c, 0, 76, 110
2, 71136, Note_off_c, 0, 76, 64
2, 71160, Note_on_c, 0, 74, 110
2, 71352, Note_off_c, 0, 74, 64
2, 71400, Note_on_c, 0, 82, 110
2, 71592, Note_off_c, 0, 82, 64
2, 71640, Note_on_c, 0, 82, 110
2, 71736, Note_off_c, 0, 82, 64
2, 71760, Note_on_c, 0, 81, 110
2, 71856, Note_off_c, 0, 81, 64
2, 71880, Note_on_c, 0, 79, 110
2, 71976, Note_off_c, 0, 79, 64
2, 72000, Note_on_c, 0, 78, 110
2, 72096, Note_off_c, 0, 78, 64
2, 72120, Note_on_c, 0, 79, 110
2, 72408, Note_off_c, 0, 79, 64
2, 72480, Note_on_c, 0, 81, 110
2, 72576, Note_off_c, 0, 81, 64
2, 72600, Note_on_c, 0, 82, 110
2, 72696, Note_off_c, 0, 82, 64
2, 72720, Note_on_c, 0, 81, 110
2, 72816, Note_off_c, 0, 81, 64
2, 72840, Note_on_c, 0, 84, 110
2, 73032, Note_off_c, 0, 84, 64
2, 73080, Note_on_c, 0, 82, 110
2, 73104, Note_off_c, 0, 82, 64
2, 73110, Note_on_c, 0, 81, 110
2, 73134, Note_off_c, 0, 81, 64
2, 73140, Note_on_c, 0, 82, 110
2, 73164, Note_off_c, 0, 82, 64
2, 73170, Note_on_c, 0, 81, 110
2, 73392, Note_off_c, 0, 81, 64
2, 73440, Note_on_c, 0, 79, 110
2, 73488, Note_off_c, 0, 79, 64
2, 73500, Note_on_c, 0, 81, 110
2, 73548, Note_off_c, 0, 81, 64
2, 73560, Note_on_c, 0, 82, 110
2, 73848, Note_off_c, 0, 82, 64
2, 73920, Note_on_c, 0, 81, 110
2, 74016, Note_off_c, 0, 81, 64
2, 74040, Note_on_c, 0, 79, 110
2, 74136, Note_off_c, 0, 79, 64
2, 74160, Note_on_c, 0, 78, 110
2, 74256, Note_off_c, 0, 78, 64
2, 74280, Note_on_c, 0, 79, 110
2, 74376, Note_off_c, 0, 79, 64
2, 74400, Note_on_c, 0, 81, 110
2, 74496, Note_off_c, 0, 81, 64
2, 74520, Note_on_c, 0, 78, 110
2, 74520, Note_on_c, 0, 82, 110
2, 74544, Note_off_c, 0, 82, 64
2, 74550, Note_on_c, 0, 81, 110
2, 74574, Note_off_c, 0, 81, 64
2, 74580, Note_on_c, 0, 82, 110
2, 74604, Note_off_c, 0, 82, 64
2, 74610, Note_on_c, 0, 81, 110
2, 74634, Note_off_c, 0, 81, 64
2, 74640, Note_on_c, 0, 82, 110
2, 74664, Note_off_c, 0, 82, 64
2, 74670, Note_on_c, 0, 81, 110
2, 74694, Note_off_c, 0, 81, 64
2, 74700, Note_on_c, 0, 82, 110
2, 74724, Note_off_c, 0, 82, 64
2, 74730, Note_on_c, 0, 81, 110
2, 74754, Note_off_c, 0, 81, 64
2, 74760, Note_on_c, 0, 82, 110
2, 74784, Note_off_c, 0, 82, 64
2, 74790, Note_on_c, 0, 81, 110
2, 74814, Note_off_c, 0, 81, 64
2, 74820, Note_on_c, 0, 82, 110
2, 74844, Note_off_c, 0, 82, 64
2, 74850, Note_on_c, 0, 81, 110
2, 74874, Note_off_c, 0, 81, 64
2, 74880, Note_on_c, 0, 79, 110
2, 74904, Note_off_c, 0, 78, 64
2, 74976, Note_off_c, 0, 79, 64
2, 75000, Note_on_c, 0, 79, 110
2, 75000, Note_on_c, 0, 70, 110
2, 75000, Note_on_c, 0, 74, 110
2, 75384, Note_off_c, 0, 74, 64
2, 75384, Note_off_c, 0, 70, 64
2, 75576, Note_off_c, 0, 79, 64
2, 75600, Note_on_c, 0, 81, 110
2, 75696, Note_off_c, 0, 81, 64
2, 75720, Note_on_c, 0, 82, 110
2, 75816, Note_off_c, 0, 82, 64
2, 75840, Note_on_c, 0, 81, 110
2, 75936, Note_off_c, 0, 81, 64
2, 75960, Note_on_c, 0, 79, 110
2, 76056, Note_off_c, 0, 79, 64
2, 76080, Note_on_c, 0, 77, 110
2, 76176, Note_off_c, 0, 77, 64
2, 76200, Note_on_c, 0, 76, 110
2, 76296, Note_off_c, 0, 76, 64
2, 76320, Note_on_c, 0, 77, 110
2, 76416, Note_off_c, 0, 77, 64
2, 76440, Note_on_c, 0, 77, 110
2, 76464, Note_off_c, 0, 77, 64
2, 76470, Note_on_c, 0, 76, 110
2, 76494, Note_off_c, 0, 76, 64
2, 76500, Note_on_c, 0, 77, 110
2, 76524, Note_off_c, 0, 77, 64
2, 76530, Note_on_c, 0, 76, 110
2, 76752, Note_off_c, 0, 76, 64
2, 76800, Note_on_c, 0, 74, 110
2, 76896, Note_off_c, 0, 74, 64
2, 76920, Note_on_c, 0, 72, 110
2, 77112, Note_off_c, 0, 72, 64
2, 77160, Note_on_c, 0, 84, 110
2, 77352, Note_off_c, 0, 84, 64
2, 77400, Note_on_c, 0, 82, 110
2, 77496, Note_off_c, 0, 82, 64
2, 77520, Note_on_c, 0, 81, 110
2, 77616, Note_off_c, 0, 81, 64
2, 77640, Note_on_c, 0, 79, 110
2, 77736, Note_off_c, 0, 79, 64
2, 77760, Note_on_c, 0, 77, 110
2, 77856, Note_off_c, 0, 77, 64
2, 77880, Note_on_c, 0, 75, 110
2, 78000, Note_on_c, 0, 74, 110
2, 78024, Note_off_c, 0, 75, 64
2, 78225, Note_off_c, 0, 74, 64
2, 78240, Note_on_c, 0, 75, 110
2, 78336, Note_off_c, 0, 75, 64
2, 78360, Note_on_c, 0, 77, 110
2, 78456, Note_off_c, 0, 77, 64
2, 78480, Note_on_c, 0, 75, 110
2, 78576, Note_off_c, 0, 75, 64
2, 78600, Note_on_c, 0, 79, 110
2, 78696, Note_off_c, 0, 79, 64
2, 78720, Note_on_c, 0, 77, 110
2, 78816, Note_off_c, 0, 77, 64
2, 78840, Note_on_c, 0, 75, 110
2, 78936, Note_off_c, 0, 75, 64
2, 78960, Note_on_c, 0, 74, 110
2, 79056, Note_off_c, 0, 74, 64
2, 79080, Note_on_c, 0, 72, 110
2, 79176, Note_off_c, 0, 72, 64
2, 79200, Note_on_c, 0, 70, 110
2, 79296, Note_off_c, 0, 70, 64
2, 79320, Note_on_c, 0, 70, 110
2, 79416, Note_off_c, 0, 70, 64
2, 79440, Note_on_c, 0, 69, 110
2, 79536, Note_off_c, 0, 69, 64
2, 79560, Note_on_c, 0, 67, 110
2, 79656, Note_off_c, 0, 67, 64
2, 79680, Note_on_c, 0, 65, 110
2, 79776, Note_off_c, 0, 65, 64
2, 79800, Note_on_c, 0, 67, 110
2, 79896, Note_off_c, 0, 67, 64
2, 79920, Note_on_c, 0, 69, 110
2, 80016, Note_off_c, 0, 69, 64
2, 80040, Note_on_c, 0, 70, 110
2, 80136, Note_off_c, 0, 70, 64
2, 80160, Note_on_c, 0, 72, 110
2, 80256, Note_off_c, 0, 72, 64
2, 80280, Note_on_c, 0, 74, 110
2, 80376, Note_off_c, 0, 74, 64
2, 80400, Note_on_c, 0, 75, 110
2, 80496, Note_off_c, 0, 75, 64
2, 80520, Note_on_c, 0, 77, 110
2, 80616, Note_off_c, 0, 77, 64
2, 80640, Note_on_c, 0, 74, 110
2, 80736, Note_off_c, 0, 74, 64
2, 80760, Note_on_c, 0, 79, 110
2, 80856, Note_off_c, 0, 79, 64
2, 80880, Note_on_c, 0, 77, 110
2, 80976, Note_off_c, 0, 77, 64
2, 81000, Note_on_c, 0, 82, 110
2, 81192, Note_off_c, 0, 82, 64
2, 81240, Note_on_c, 0, 75, 110
2, 81264, Note_off_c, 0, 75, 64
2, 81270, Note_on_c, 0, 74, 110
2, 81294, Note_off_c, 0, 74, 64
2, 81300, Note_on_c, 0, 75, 110
2, 81324, Note_off_c, 0, 75, 64
2, 81330, Note_on_c, 0, 74, 110
2, 81552, Note_off_c, 0, 74, 64
2, 81600, Note_on_c, 0, 72, 110
2, 81696, Note_off_c, 0, 72, 64
2, 81720, Note_on_c, 0, 74, 110
2, 81720, Note_on_c, 0, 69, 110
2, 81744, Note_off_c, 0, 74, 64
2, 81750, Note_on_c, 0, 72, 110
2, 81774, Note_off_c, 0, 72, 64
2, 81780, Note_on_c, 0, 74, 110
2, 81804, Note_off_c, 0, 74, 64
2, 81810, Note_on_c, 0, 72, 110
2, 82032, Note_off_c, 0, 72, 64
2, 82080, Note_on_c, 0, 70, 110
2, 82104, Note_off_c, 0, 69, 64
2, 82176, Note_off_c, 0, 70, 64
2, 82200, Note_on_c, 0, 70, 110
2, 82200, Note_on_c, 0, 65, 110
2, 82200, Note_on_c, 0, 62, 110
2, 82776, Note_off_c, 0, 62, 64
2, 82776, Note_off_c, 0, 65, 64
2, 82776, Note_off_c, 0, 70, 64
2, 82920, Note_on_c, 0, 74, 110
2, 83112, Note_off_c, 0, 74, 64
2, 83160, Note_on_c, 0, 72, 110
2, 83256, Note_off_c, 0, 72, 64
2, 83280, Note_on_c, 0, 70, 110
2, 83376, Note_off_c, 0, 70, 64
2, 83400, Note_on_c, 0, 69, 110
2, 83496, Note_off_c, 0, 69, 64
2, 83520, Note_on_c, 0, 70, 110
2, 83616, Note_off_c, 0, 70, 64
2, 83640, Note_on_c, 0, 72, 110
2, 83736, Note_off_c, 0, 72, 64
2, 83760, Note_on_c, 0, 70, 110
2, 83856, Note_off_c, 0, 70, 64
2, 83880, Note_on_c, 0, 69, 110
2, 83976, Note_off_c, 0, 69, 64
2, 84000, Note_on_c, 0, 67, 110
2, 84096, Note_off_c, 0, 67, 64
2, 84120, Note_on_c, 0, 79, 110
2, 84408, Note_off_c, 0, 79, 64
2, 84480, Note_on_c, 0, 77, 110
2, 84576, Note_off_c, 0, 77, 64
2, 84600, Note_on_c, 0, 76, 110
2, 84696, Note_off_c, 0, 76, 64
2, 84720, Note_on_c, 0, 74, 110
2, 84816, Note_off_c, 0, 74, 64
2, 84840, Note_on_c, 0, 73, 110
2, 84936, Note_off_c, 0, 73, 64
2, 84960, Note_on_c, 0, 74, 110
2, 85056, Note_off_c, 0, 74, 64
2, 85080, Note_on_c, 0, 73, 110
2, 85176, Note_off_c, 0, 73, 64
2, 85200, Note_on_c, 0, 76, 110
2, 85296, Note_off_c, 0, 76, 64
2, 85320, Note_on_c, 0, 69, 110
2, 85416, Note_off_c, 0, 69, 64
2, 85440, Note_on_c, 0, 71, 110
2, 85536, Note_off_c, 0, 71, 64
2, 85560, Note_on_c, 0, 72, 110
2, 85656, Note_off_c, 0, 72, 64
2, 85680, Note_on_c, 0, 71, 110
2, 85776, Note_off_c, 0, 71, 64
2, 85800, Note_on_c, 0, 74, 110
2, 85992, Note_off_c, 0, 74, 64
2, 86040, Note_on_c, 0, 74, 110
2, 86064, Note_off_c, 0, 74, 64
2, 86070, Note_on_c, 0, 73, 110
2, 86094, Note_off_c, 0, 73, 64
2, 86100, Note_on_c, 0, 74, 110
2, 86124, Note_off_c, 0, 74, 64
2, 86130, Note_on_c, 0, 73, 110
2, 86352, Note_off_c, 0, 73, 64
2, 86400, Note_on_c, 0, 74, 110
2, 86448, Note_off_c, 0, 74, 64
2, 86460, Note_on_c, 0, 76, 110
2, 86508, Note_off_c, 0, 76, 64
2, 86520, Note_on_c, 0, 77, 110
2, 86544, Note_off_c, 0, 77, 64
2, 86550, Note_on_c, 0, 76, 110
2, 86574, Note_off_c, 0, 76, 64
2, 86580, Note_on_c, 0, 77, 110
2, 86604, Note_off_c, 0, 77, 64
2, 86610, Note_on_c, 0, 76, 110
2, 86832, Note_off_c, 0, 76, 64
2, 86880, Note_on_c, 0, 74, 110
2, 86928, Note_off_c, 0, 74, 64
2, 86940, Note_on_c, 0, 76, 110
2, 86988, Note_off_c, 0, 76, 64
2, 87000, Note_on_c, 0, 77, 110
2, 87096, Note_off_c, 0, 77, 64
2, 87120, Note_on_c, 0, 76, 110
2, 87216, Note_off_c, 0, 76, 64
2, 87240, Note_on_c, 0, 79, 110
2, 87432, Note_off_c, 0, 79, 64
2, 87480, Note_on_c, 0, 79, 110
2, 87504, Note_off_c, 0, 79, 64
2, 87510, Note_on_c, 0, 78, 110
2, 87534, Note_off_c, 0, 78, 64
2, 87540, Note_on_c, 0, 79, 110
2, 87564, Note_off_c, 0, 79, 64
2, 87570, Note_on_c, 0, 78, 110
2, 87792, Note_off_c, 0, 78, 64
2, 87840, Note_on_c, 0, 79, 110
2, 87888, Note_off_c, 0, 79, 64
2, 87900, Note_on_c, 0, 81, 110
2, 87948, Note_off_c, 0, 81, 64
2, 87960, Note_on_c, 0, 82, 110
2, 87984, Note_off_c, 0, 82, 64
2, 87990, Note_on_c, 0, 81, 110
2, 88014, Note_off_c, 0, 81, 64
2, 88020, Note_on_c, 0, 82, 110
2, 88044, Note_off_c, 0, 82, 64
2, 88050, Note_on_c, 0, 81, 110
2, 88272, Note_off_c, 0, 81, 64
2, 88320, Note_on_c, 0, 79, 110
2, 88368, Note_off_c, 0, 79, 64
2, 88380, Note_on_c, 0, 81, 110
2, 88428, Note_off_c, 0, 81, 64
2, 88440, Note_on_c, 0, 82, 110
2, 88536, Note_off_c, 0, 82, 64
2, 88560, Note_on_c, 0, 81, 110
2, 88656, Note_off_c, 0, 81, 64
2, 88680, Note_on_c, 0, 79, 110
2, 88776, Note_off_c, 0, 79, 64
2, 88800, Note_on_c, 0, 77, 110
2, 88896, Note_off_c, 0, 77, 64
2, 88920, Note_on_c, 0, 76, 110
2, 89016, Note_off_c, 0, 76, 64
2, 89040, Note_on_c, 0, 74, 110
2, 89136, Note_off_c, 0, 74, 64
2, 89160, Note_on_c, 0, 73, 110
2, 89256, Note_off_c, 0, 73, 64
2, 89280, Note_on_c, 0, 74, 110
2, 89376, Note_off_c, 0, 74, 64
2, 89400, Note_on_c, 0, 67, 110
2, 89496, Note_off_c, 0, 67, 64
2, 89520, Note_on_c, 0, 70, 110
2, 89616, Note_off_c, 0, 70, 64
2, 89640, Note_on_c, 0, 69, 110
2, 89736, Note_off_c, 0, 69, 64
2, 89760, Note_on_c, 0, 73, 110
2, 89856, Note_off_c, 0, 73, 64
2, 89880, Note_on_c, 0, 74, 110
2, 90168, Note_off_c, 0, 74, 64
2, 90240, Note_on_c, 0, 76, 110
2, 90336, Note_off_c, 0, 76, 64
2, 90360, Note_on_c, 0, 77, 110
2, 90360, Note_on_c, 0, 73, 110
2, 90384, Note_off_c, 0, 77, 64
2, 90390, Note_on_c, 0, 76, 110
2, 90414, Note_off_c, 0, 76, 64
2, 90420, Note_on_c, 0, 77, 110
2, 90444, Note_off_c, 0, 77, 64
2, 90450, Note_on_c, 0, 76, 110
2, 90474, Note_off_c, 0, 76, 64
2, 90480, Note_on_c, 0, 77, 110
2, 90504, Note_off_c, 0, 77, 64
2, 90510, Note_on_c, 0, 76, 110
2, 90534, Note_off_c, 0, 76, 64
2, 90540, Note_on_c, 0, 77, 110
2, 90564, Note_off_c, 0, 77, 64
2, 90570, Note_on_c, 0, 76, 110
2, 90594, Note_off_c, 0, 76, 64
2, 90600, Note_on_c, 0, 77, 110
2, 90624, Note_off_c, 0, 77, 64
2, 90630, Note_on_c, 0, 76, 110
2, 90654, Note_off_c, 0, 76, 64
2, 90660, Note_on_c, 0, 77, 110
2, 90684, Note_off_c, 0, 77, 64
2, 90690, Note_on_c, 0, 76, 110
2, 90714, Note_off_c, 0, 76, 64
2, 90720, Note_on_c, 0, 74, 110
2, 90744, Note_off_c, 0, 73, 64
2, 90816, Note_off_c, 0, 74, 64
2, 90840, Note_on_c, 0, 74, 110
2, 91560, Note_on_c, 0, 69, 110
2, 91560, Note_on_c, 0, 65, 110
2, 91944, Note_off_c, 0, 74, 64
2, 91944, Note_off_c, 0, 65, 64
2, 91944, Note_off_c, 0, 69, 64
2, 91944, End_track
3, 0, Start_track
3, 0, Title_t, "J.S. Bach, Edition Kalmus"
3, 0, Program_c, 1, 0
3, 120, Note_on_c, 1, 62, 110
3, 216, Note_off_c, 1, 62, 64
3, 240, Note_on_c, 1, 50, 110
3, 336, Note_off_c, 1, 50, 64
3, 360, Note_on_c, 1, 52, 110
3, 456, Note_off_c, 1, 52, 64
3, 480, Note_on_c, 1, 53, 110
3, 576, Note_off_c, 1, 53, 64
3, 600, Note_on_c, 1, 55, 110
3, 696, Note_off_c, 1, 55, 64
3, 720, Note_on_c, 1, 54, 110
3, 816, Note_off_c, 1, 54, 64
3, 840, Note_on_c, 1, 55, 110
3, 936, Note_off_c, 1, 55, 64
3, 960, Note_on_c, 1, 57, 110
3, 1056, Note_off_c, 1, 57, 64
3, 1080, Note_on_c, 1, 58, 110
3, 1176, Note_off_c, 1, 58, 64
3, 1200, Note_on_c, 1, 55, 110
3, 1296, Note_off_c, 1, 55, 64
3, 1320, Note_on_c, 1, 57, 110
3, 1416, Note_off_c, 1, 57, 64
3, 1440, Note_on_c, 1, 58, 110
3, 1536, Note_off_c, 1, 58, 64
3, 1560, Note_on_c, 1, 49, 110
3, 1656, Note_off_c, 1, 49, 64
3, 1680, Note_on_c, 1, 57, 110
3, 1776, Note_off_c, 1, 57, 64
3, 1800, Note_on_c, 1, 53, 110
3, 1896, Note_off_c, 1, 53, 64
3, 1920, Note_on_c, 1, 50, 110
3, 2016, Note_off_c, 1, 50, 64
3, 2040, Note_on_c, 1, 55, 110
3, 2232, Note_off_c, 1, 55, 64
3, 2280, Note_on_c, 1, 43, 110
3, 2376, Note_off_c, 1, 43, 64
3, 2400, Note_on_c, 1, 45, 110
3, 2496, Note_off_c, 1, 45, 64
3, 2520, Note_on_c, 1, 46, 110
3, 2616, Note_off_c, 1, 46, 64
3, 2640, Note_on_c, 1, 45, 110
3, 2736, Note_off_c, 1, 45, 64
3, 2760, Note_on_c, 1, 46, 110
3, 2856, Note_off_c, 1, 46, 64
3, 2880, Note_on_c, 1, 43, 110
3, 2976, Note_off_c, 1, 43, 64
3, 3000, Note_on_c, 1, 45, 110
3, 3096, Note_off_c, 1, 45, 64
3, 3120, Note_on_c, 1, 57, 110
3, 3216, Note_off_c, 1, 57, 64
3, 3240, Note_on_c, 1, 55, 110
3, 3336, Note_off_c, 1, 55, 64
3, 3360, Note_on_c, 1, 52, 110
3, 3456, Note_off_c, 1, 52, 64
3, 3480, Note_on_c, 1, 53, 110
3, 3576, Note_off_c, 1, 53, 64
3, 3600, Note_on_c, 1, 52, 110
3, 3696, Note_off_c, 1, 52, 64
3, 3720, Note_on_c, 1, 53, 110
3, 3816, Note_off_c, 1, 53, 64
3, 3840, Note_on_c, 1, 50, 110
3, 3936, Note_off_c, 1, 50, 64
3, 3960, Note_on_c, 1, 49, 110
3, 4056, Note_off_c, 1, 49, 64
3, 4080, Note_on_c, 1, 52, 110
3, 4176, Note_off_c, 1, 52, 64
3, 4200, Note_on_c, 1, 45, 110
3, 4296, Note_off_c, 1, 45, 64
3, 4320, Note_on_c, 1, 49, 110
3, 4416, Note_off_c, 1, 49, 64
3, 4440, Note_on_c, 1, 50, 110
3, 4536, Note_off_c, 1, 50, 64
3, 4560, Note_on_c, 1, 49, 110
3, 4656, Note_off_c, 1, 49, 64
3, 4680, Note_on_c, 1, 50, 110
3, 4776, Note_off_c, 1, 50, 64
3, 4800, Note_on_c, 1, 52, 110
3, 4896, Note_off_c, 1, 52, 64
3, 4920, Note_on_c, 1, 53, 110
3, 5016, Note_off_c, 1, 53, 64
3, 5040, Note_on_c, 1, 55, 110
3, 5136, Note_off_c, 1, 55, 64
3, 5160, Note_on_c, 1, 52, 110
3, 5256, Note_off_c, 1, 52, 64
3, 5280, Note_on_c, 1, 55, 110
3, 5376, Note_off_c, 1, 55, 64
3, 5400, Note_on_c, 1, 54, 110
3, 5496, Note_off_c, 1, 54, 64
3, 5520, Note_on_c, 1, 50, 110
3, 5616, Note_off_c, 1, 50, 64
3, 5640, Note_on_c, 1, 52, 110
3, 5736, Note_off_c, 1, 52, 64
3, 5760, Note_on_c, 1, 54, 110
3, 5856, Note_off_c, 1, 54, 64
3, 5880, Note_on_c, 1, 55, 110
3, 5976, Note_off_c, 1, 55, 64
3, 6000, Note_on_c, 1, 54, 110
3, 6096, Note_off_c, 1, 54, 64
3, 6120, Note_on_c, 1, 55, 110
3, 6216, Note_off_c, 1, 55, 64
3, 6240, Note_on_c, 1, 57, 110
3, 6336, Note_off_c, 1, 57, 64
3, 6360, Note_on_c, 1, 58, 110
3, 6456, Note_off_c, 1, 58, 64
3, 6480, Note_on_c, 1, 60, 110
3, 6576, Note_off_c, 1, 60, 64
3, 6600, Note_on_c, 1, 62, 110
3, 6696, Note_off_c, 1, 62, 64
3, 6720, Note_on_c, 1, 60, 110
3, 6816, Note_off_c, 1, 60, 64
3, 6840, Note_on_c, 1, 59, 110
3, 6936, Note_off_c, 1, 59, 64
3, 6960, Note_on_c, 1, 57, 110
3, 7056, Note_off_c, 1, 57, 64
3, 7080, Note_on_c, 1, 59, 110
3, 7176, Note_off_c, 1, 59, 64
3, 7200, Note_on_c, 1, 55, 110
3, 7296, Note_off_c, 1, 55, 64
3, 7320, Note_on_c, 1, 60, 110
3, 7416, Note_off_c, 1, 60, 64
3, 7440, Note_on_c, 1, 62, 110
3, 7536, Note_off_c, 1, 62, 64
3, 7560, Note_on_c, 1, 60, 110
3, 7656, Note_off_c, 1, 60, 64
3, 7680, Note_on_c, 1, 58, 110
3, 7776, Note_off_c, 1, 58, 64
3, 7800, Note_on_c, 1, 57, 110
3, 7896, Note_off_c, 1, 57, 64
3, 7920, Note_on_c, 1, 55, 110
3, 8016, Note_off_c, 1, 55, 64
3, 8040, Note_on_c, 1, 53, 110
3, 8136, Note_off_c, 1, 53, 64
3, 8160, Note_on_c, 1, 52, 110
3, 8256, Note_off_c, 1, 52, 64
3, 8280, Note_on_c, 1, 53, 110
3, 8472, Note_off_c, 1, 53, 64
3, 8520, Note_on_c, 1, 55, 110
3, 8616, Note_off_c, 1, 55, 64
3, 8640, Note_on_c, 1, 57, 110
3, 8736, Note_off_c, 1, 57, 64
3, 8760, Note_on_c, 1, 58, 110
3, 8856, Note_off_c, 1, 58, 64
3, 8880, Note_on_c, 1, 53, 110
3, 8976, Note_off_c, 1, 53, 64
3, 9000, Note_on_c, 1, 50, 110
3, 9096, Note_off_c, 1, 50, 64
3, 9120, Note_on_c, 1, 53, 110
3, 9216, Note_off_c, 1, 53, 64
3, 9240, Note_on_c, 1, 46, 110
3, 9336, Note_off_c, 1, 46, 64
3, 9360, Note_on_c, 1, 48, 110
3, 9456, Note_off_c, 1, 48, 64
3, 9480, Note_on_c, 1, 50, 110
3, 9576, Note_off_c, 1, 50, 64
3, 9600, Note_on_c, 1, 52, 110
3, 9696, Note_off_c, 1, 52, 64
3, 9720, Note_on_c, 1, 53, 110
3, 9816, Note_off_c, 1, 53, 64
3, 9840, Note_on_c, 1, 55, 110
3, 9936, Note_off_c, 1, 55, 64
3, 9960, Note_on_c, 1, 57, 110
3, 10056, Note_off_c, 1, 57, 64
3, 10080, Note_on_c, 1, 58, 110
3, 10176, Note_off_c, 1, 58, 64
3, 10200, Note_on_c, 1, 60, 110
3, 10296, Note_off_c, 1, 60, 64
3, 10320, Note_on_c, 1, 55, 110
3, 10416, Note_off_c, 1, 55, 64
3, 10440, Note_on_c, 1, 48, 110
3, 10536, Note_off_c, 1, 48, 64
3, 10560, Note_on_c, 1, 50, 110
3, 10656, Note_off_c, 1, 50, 64
3, 10680, Note_on_c, 1, 52, 110
3, 10776, Note_off_c, 1, 52, 64
3, 10800, Note_on_c, 1, 55, 110
3, 10896, Note_off_c, 1, 55, 64
3, 10920, Note_on_c, 1, 53, 110
3, 11016, Note_off_c, 1, 53, 64
3, 11040, Note_on_c, 1, 51, 110
3, 11136, Note_off_c, 1, 51, 64
3, 11160, Note_on_c, 1, 50, 110
3, 11256, Note_off_c, 1, 50, 64
3, 11280, Note_on_c, 1, 48, 110
3, 11376, Note_off_c, 1, 48, 64
3, 11400, Note_on_c, 1, 46, 110
3, 11496, Note_off_c, 1, 46, 64
3, 11520, Note_on_c, 1, 45, 110
3, 11616, Note_off_c, 1, 45, 64
3, 11640, Note_on_c, 1, 43, 110
3, 11736, Note_off_c, 1, 43, 64
3, 11760, Note_on_c, 1, 41, 110
3, 11856, Note_off_c, 1, 41, 64
3, 11880, Note_on_c, 1, 40, 110
3, 11976, Note_off_c, 1, 40, 64
3, 12000, Note_on_c, 1, 38, 110
3, 12096, Note_off_c, 1, 38, 64
3, 12120, Note_on_c, 1, 36, 110
3, 12312, Note_off_c, 1, 36, 64
3, 12360, Note_on_c, 1, 41, 110
3, 12552, Note_off_c, 1, 41, 64
3, 12600, Note_on_c, 1, 48, 110
3, 12792, Note_off_c, 1, 48, 64
3, 12840, Note_on_c, 1, 36, 110
3, 13032, Note_off_c, 1, 36, 64
3, 13080, Note_on_c, 1, 41, 110
3, 13272, Note_off_c, 1, 41, 64
3, 13320, Note_on_c, 1, 57, 110
3, 13416, Note_off_c, 1, 57, 64
3, 13440, Note_on_c, 1, 55, 110
3, 13536, Note_off_c, 1, 55, 64
3, 13560, Note_on_c, 1, 53, 110
3, 13656, Note_off_c, 1, 53, 64
3, 13680, Note_on_c, 1, 52, 110
3, 13776, Note_off_c, 1, 52, 64
3, 13800, Note_on_c, 1, 50, 110
3, 13896, Note_off_c, 1, 50, 64
3, 13920, Note_on_c, 1, 62, 110
3, 14016, Note_off_c, 1, 62, 64
3, 14040, Note_on_c, 1, 55, 110
3, 14136, Note_off_c, 1, 55, 64
3, 14160, Note_on_c, 1, 57, 110
3, 14256, Note_off_c, 1, 57, 64
3, 14280, Note_on_c, 1, 58, 110
3, 14376, Note_off_c, 1, 58, 64
3, 14400, Note_on_c, 1, 57, 110
3, 14496, Note_off_c, 1, 57, 64
3, 14520, Note_on_c, 1, 55, 110
3, 14616, Note_off_c, 1, 55, 64
3, 14640, Note_on_c, 1, 54, 110
3, 14736, Note_off_c, 1, 54, 64
3, 14760, Note_on_c, 1, 52, 110
3, 14856, Note_off_c, 1, 52, 64
3, 14880, Note_on_c, 1, 50, 110
3, 14976, Note_off_c, 1, 50, 64
3, 15000, Note_on_c, 1, 48, 110
3, 15096, Note_off_c, 1, 48, 64
3, 15120, Note_on_c, 1, 47, 110
3, 15216, Note_off_c, 1, 47, 64
3, 15240, Note_on_c, 1, 45, 110
3, 15336, Note_off_c, 1, 45, 64
3, 15360, Note_on_c, 1, 43, 110
3, 15456, Note_off_c, 1, 43, 64
3, 15480, Note_on_c, 1, 45, 110
3, 15576, Note_off_c, 1, 45, 64
3, 15600, Note_on_c, 1, 48, 110
3, 15696, Note_off_c, 1, 48, 64
3, 15720, Note_on_c, 1, 47, 110
3, 15816, Note_off_c, 1, 47, 64
3, 15840, Note_on_c, 1, 50, 110
3, 15936, Note_off_c, 1, 50, 64
3, 15960, Note_on_c, 1, 48, 110
3, 16056, Note_off_c, 1, 48, 64
3, 16080, Note_on_c, 1, 52, 110
3, 16176, Note_off_c, 1, 52, 64
3, 16200, Note_on_c, 1, 50, 110
3, 16296, Note_off_c, 1, 50, 64
3, 16320, Note_on_c, 1, 48, 110
3, 16416, Note_off_c, 1, 48, 64
3, 16440, Note_on_c, 1, 47, 110
3, 16536, Note_off_c, 1, 47, 64
3, 16560, Note_on_c, 1, 45, 110
3, 16656, Note_off_c, 1, 45, 64
3, 16680, Note_on_c, 1, 47, 110
3, 16776, Note_off_c, 1, 47, 64
3, 16800, Note_on_c, 1, 48, 110
3, 16896, Note_off_c, 1, 48, 64
3, 16920, Note_on_c, 1, 50, 110
3, 17016, Note_off_c, 1, 50, 64
3, 17040, Note_on_c, 1, 52, 110
3, 17136, Note_off_c, 1, 52, 64
3, 17160, Note_on_c, 1, 53, 110
3, 17256, Note_off_c, 1, 53, 64
3, 17280, Note_on_c, 1, 52, 110
3, 17376, Note_off_c, 1, 52, 64
3, 17400, Note_on_c, 1, 50, 110
3, 17496, Note_off_c, 1, 50, 64
3, 17520, Note_on_c, 1, 48, 110
3, 17616, Note_off_c, 1, 48, 64
3, 17640, Note_on_c, 1, 50, 110
3, 17736, Note_off_c, 1, 50, 64
3, 17760, Note_on_c, 1, 52, 110
3, 17856, Note_off_c, 1, 52, 64
3, 17880, Note_on_c, 1, 45, 110
3, 17976, Note_off_c, 1, 45, 64
3, 18000, Note_on_c, 1, 52, 110
3, 18096, Note_off_c, 1, 52, 64
3, 18120, Note_on_c, 1, 53, 110
3, 18216, Note_off_c, 1, 53, 64
3, 18240, Note_on_c, 1, 55, 110
3, 18336, Note_off_c, 1, 55, 64
3, 18360, Note_on_c, 1, 57, 110
3, 18456, Note_off_c, 1, 57, 64
3, 18480, Note_on_c, 1, 55, 110
3, 18576, Note_off_c, 1, 55, 64
3, 18600, Note_on_c, 1, 58, 110
3, 18696, Note_off_c, 1, 58, 64
3, 18720, Note_on_c, 1, 57, 110
3, 18816, Note_off_c, 1, 57, 64
3, 18840, Note_on_c, 1, 55, 110
3, 18936, Note_off_c, 1, 55, 64
3, 18960, Note_on_c, 1, 53, 110
3, 19056, Note_off_c, 1, 53, 64
3, 19080, Note_on_c, 1, 55, 110
3, 19176, Note_off_c, 1, 55, 64
3, 19200, Note_on_c, 1, 57, 110
3, 19296, Note_off_c, 1, 57, 64
3, 19320, Note_on_c, 1, 50, 110
3, 19416, Note_off_c, 1, 50, 64
3, 19440, Note_on_c, 1, 57, 110
3, 19536, Note_off_c, 1, 57, 64
3, 19560, Note_on_c, 1, 59, 110
3, 19656, Note_off_c, 1, 59, 64
3, 19680, Note_on_c, 1, 60, 110
3, 19776, Note_off_c, 1, 60, 64
3, 19800, Note_on_c, 1, 62, 110
3, 19896, Note_off_c, 1, 62, 64
3, 19920, Note_on_c, 1, 64, 110
3, 20016, Note_off_c, 1, 64, 64
3, 20040, Note_on_c, 1, 60, 110
3, 20136, Note_off_c, 1, 60, 64
3, 20160, Note_on_c, 1, 64, 110
3, 20256, Note_off_c, 1, 64, 64
3, 20280, Note_on_c, 1, 62, 110
3, 20376, Note_off_c, 1, 62, 64
3, 20400, Note_on_c, 1, 65, 110
3, 20496, Note_off_c, 1, 65, 64
3, 20520, Note_on_c, 1, 64, 110
3, 20616, Note_off_c, 1, 64, 64
3, 20640, Note_on_c, 1, 62, 110
3, 20736, Note_off_c, 1, 62, 64
3, 20760, Note_on_c, 1, 60, 110
3, 20856, Note_off_c, 1, 60, 64
3, 20880, Note_on_c, 1, 59, 110
3, 20976, Note_off_c, 1, 59, 64
3, 21000, Note_on_c, 1, 60, 110
3, 21096, Note_off_c, 1, 60, 64
3, 21120, Note_on_c, 1, 62, 110
3, 21216, Note_off_c, 1, 62, 64
3, 21240, Note_on_c, 1, 64, 110
3, 21432, Note_off_c, 1, 64, 64
3, 21480, Note_on_c, 1, 52, 110
3, 21672, Note_off_c, 1, 52, 64
3, 21720, Note_on_c, 1, 57, 110
3, 21960, Note_on_c, 1, 45, 110
3, 22200, Note_on_c, 1, 52, 110
3, 22296, Note_off_c, 1, 57, 64
3, 22392, Note_off_c, 1, 52, 64
3, 22440, Note_on_c, 1, 57, 110
3, 22824, Note_off_c, 1, 57, 64
3, 22824, Note_off_c, 1, 45, 64
3, 23160, Note_on_c, 1, 62, 110
3, 23256, Note_off_c, 1, 62, 64
3, 23280, Note_on_c, 1, 50, 110
3, 23376, Note_off_c, 1, 50, 64
3, 23400, Note_on_c, 1, 52, 110
3, 23496, Note_off_c, 1, 52, 64
3, 23520, Note_on_c, 1, 53, 110
3, 23616, Note_off_c, 1, 53, 64
3, 23640, Note_on_c, 1, 55, 110
3, 23736, Note_off_c, 1, 55, 64
3, 23760, Note_on_c, 1, 54, 110
3, 23856, Note_off_c, 1, 54, 64
3, 23880, Note_on_c, 1, 55, 110
3, 23976, Note_off_c, 1, 55, 64
3, 24000, Note_on_c, 1, 57, 110
3, 24096, Note_off_c, 1, 57, 64
3, 24120, Note_on_c, 1, 58, 110
3, 24216, Note_off_c, 1, 58, 64
3, 24240, Note_on_c, 1, 55, 110
3, 24336, Note_off_c, 1, 55, 64
3, 24360, Note_on_c, 1, 57, 110
3, 24456, Note_off_c, 1, 57, 64
3, 24480, Note_on_c, 1, 58, 110
3, 24576, Note_off_c, 1, 58, 64
3, 24600, Note_on_c, 1, 49, 110
3, 24696, Note_off_c, 1, 49, 64
3, 24720, Note_on_c, 1, 57, 110
3, 24816, Note_off_c, 1, 57, 64
3, 24840, Note_on_c, 1, 53, 110
3, 24936, Note_off_c, 1, 53, 64
3, 24960, Note_on_c, 1, 50, 110
3, 25056, Note_off_c, 1, 50, 64
3, 25080, Note_on_c, 1, 55, 110
3, 25272, Note_off_c, 1, 55, 64
3, 25320, Note_on_c, 1, 43, 110
3, 25416, Note_off_c, 1, 43, 64
3, 25440, Note_on_c, 1, 45, 110
3, 25536, Note_off_c, 1, 45, 64
3, 25560, Note_on_c, 1, 46, 110
3, 25656, Note_off_c, 1, 46, 64
3, 25680, Note_on_c, 1, 45, 110
3, 25776, Note_off_c, 1, 45, 64
3, 25800, Note_on_c, 1, 46, 110
3, 25896, Note_off_c, 1, 46, 64
3, 25920, Note_on_c, 1, 43, 110
3, 26016, Note_off_c, 1, 43, 64
3, 26040, Note_on_c, 1, 45, 110
3, 26136, Note_off_c, 1, 45, 64
3, 26160, Note_on_c, 1, 57, 110
3, 26256, Note_off_c, 1, 57, 64
3, 26280, Note_on_c, 1, 55, 110
3, 26376, Note_off_c, 1, 55, 64
3, 26400, Note_on_c, 1, 52, 110
3, 26496, Note_off_c, 1, 52, 64
3, 26520, Note_on_c, 1, 53, 110
3, 26616, Note_off_c, 1, 53, 64
3, 26640, Note_on_c, 1, 52, 110
3, 26736, Note_off_c, 1, 52, 64
3, 26760, Note_on_c, 1, 53, 110
3, 26856, Note_off_c, 1, 53, 64
3, 26880, Note_on_c, 1, 50, 110
3, 26976, Note_off_c, 1, 50, 64
3, 27000, Note_on_c, 1, 49, 110
3, 27096, Note_off_c, 1, 49, 64
3, 27120, Note_on_c, 1, 52, 110
3, 27216, Note_off_c, 1, 52, 64
3, 27240, Note_on_c, 1, 45, 110
3, 27336, Note_off_c, 1, 45, 64
3, 27360, Note_on_c, 1, 49, 110
3, 27456, Note_off_c, 1, 49, 64
3, 27480, Note_on_c, 1, 50, 110
3, 27576, Note_off_c, 1, 50, 64
3, 27600, Note_on_c, 1, 49, 110
3, 27696, Note_off_c, 1, 49, 64
3, 27720, Note_on_c, 1, 50, 110
3, 27816, Note_off_c, 1, 50, 64
3, 27840, Note_on_c, 1, 52, 110
3, 27936, Note_off_c, 1, 52, 64
3, 27960, Note_on_c, 1, 53, 110
3, 28056, Note_off_c, 1, 53, 64
3, 28080, Note_on_c, 1, 55, 110
3, 28176, Note_off_c, 1, 55, 64
3, 28200, Note_on_c, 1, 52, 110
3, 28296, Note_off_c, 1, 52, 64
3, 28320, Note_on_c, 1, 55, 110
3, 28416, Note_off_c, 1, 55, 64
3, 28440, Note_on_c, 1, 54, 110
3, 28536, Note_off_c, 1, 54, 64
3, 28560, Note_on_c, 1, 50, 110
3, 28656, Note_off_c, 1, 50, 64
3, 28680, Note_on_c, 1, 52, 110
3, 28776, Note_off_c, 1, 52, 64
3, 28800, Note_on_c, 1, 54, 110
3, 28896, Note_off_c, 1, 54, 64
3, 28920, Note_on_c, 1, 55, 110
3, 29016, Note_off_c, 1, 55, 64
3, 29040, Note_on_c, 1, 54, 110
3, 29136, Note_off_c, 1, 54, 64
3, 29160, Note_on_c, 1, 55, 110
3, 29256, Note_off_c, 1, 55, 64
3, 29280, Note_on_c, 1, 57, 110
3, 29376, Note_off_c, 1, 57, 64
3, 29400, Note_on_c, 1, 58, 110
3, 29496, Note_off_c, 1, 58, 64
3, 29520, Note_on_c, 1, 60, 110
3, 29616, Note_off_c, 1, 60, 64
3, 29640, Note_on_c, 1, 62, 110
3, 29736, Note_off_c, 1, 62, 64
3, 29760, Note_on_c, 1, 60, 110
3, 29856, Note_off_c, 1, 60, 64
3, 29880, Note_on_c, 1, 59, 110
3, 29976, Note_off_c, 1, 59, 64
3, 30000, Note_on_c, 1, 57, 110
3, 30096, Note_off_c, 1, 57, 64
3, 30120, Note_on_c, 1, 59, 110
3, 30216, Note_off_c, 1, 59, 64
3, 30240, Note_on_c, 1, 55, 110
3, 30336, Note_off_c, 1, 55, 64
3, 30360, Note_on_c, 1, 60, 110
3, 30456, Note_off_c, 1, 60, 64
3, 30480, Note_on_c, 1, 62, 110
3, 30576, Note_off_c, 1, 62, 64
3, 30600, Note_on_c, 1, 60, 110
3, 30696, Note_off_c, 1, 60, 64
3, 30720, Note_on_c, 1, 58, 110
3, 30816, Note_off_c, 1, 58, 64
3, 30840, Note_on_c, 1, 57, 110
3, 30936, Note_off_c, 1, 57, 64
3, 30960, Note_on_c, 1, 55, 110
3, 31056, Note_off_c, 1, 55, 64
3, 31080, Note_on_c, 1, 53, 110
3, 31176, Note_off_c, 1, 53, 64
3, 31200, Note_on_c, 1, 52, 110
3, 31296, Note_off_c, 1, 52, 64
3, 31320, Note_on_c, 1, 53, 110
3, 31512, Note_off_c, 1, 53, 64
3, 31560, Note_on_c, 1, 55, 110
3, 31656, Note_off_c, 1, 55, 64
3, 31680, Note_on_c, 1, 57, 110
3, 31776, Note_off_c, 1, 57, 64
3, 31800, Note_on_c, 1, 58, 110
3, 31896, Note_off_c, 1, 58, 64
3, 31920, Note_on_c, 1, 53, 110
3, 32016, Note_off_c, 1, 53, 64
3, 32040, Note_on_c, 1, 50, 110
3, 32136, Note_off_c, 1, 50, 64
3, 32160, Note_on_c, 1, 53, 110
3, 32256, Note_off_c, 1, 53, 64
3, 32280, Note_on_c, 1, 46, 110
3, 32376, Note_off_c, 1, 46, 64
3, 32400, Note_on_c, 1, 48, 110
3, 32496, Note_off_c, 1, 48, 64
3, 32520, Note_on_c, 1, 50, 110
3, 32616, Note_off_c, 1, 50, 64
3, 32640, Note_on_c, 1, 52, 110
3, 32736, Note_off_c, 1, 52, 64
3, 32760, Note_on_c, 1, 53, 110
3, 32856, Note_off_c, 1, 53, 64
3, 32880, Note_on_c, 1, 55, 110
3, 32976, Note_off_c, 1, 55, 64
3, 33000, Note_on_c, 1, 57, 110
3, 33096, Note_off_c, 1, 57, 64
3, 33120, Note_on_c, 1, 58, 110
3, 33216, Note_off_c, 1, 58, 64
3, 33240, Note_on_c, 1, 60, 110
3, 33336, Note_off_c, 1, 60, 64
3, 33360, Note_on_c, 1, 55, 110
3, 33456, Note_off_c, 1, 55, 64
3, 33480, Note_on_c, 1, 48, 110
3, 33576, Note_off_c, 1, 48, 64
3, 33600, Note_on_c, 1, 50, 110
3, 33696, Note_off_c, 1, 50, 64
3, 33720, Note_on_c, 1, 52, 110
3, 33816, Note_off_c, 1, 52, 64
3, 33840, Note_on_c, 1, 55, 110
3, 33936, Note_off_c, 1, 55, 64
3, 33960, Note_on_c, 1, 53, 110
3, 34056, Note_off_c, 1, 53, 64
3, 34080, Note_on_c, 1, 51, 110
3, 34176, Note_off_c, 1, 51, 64
3, 34200, Note_on_c, 1, 50, 110
3, 34296, Note_off_c, 1, 50, 64
3, 34320, Note_on_c, 1, 48, 110
3, 34416, Note_off_c, 1, 48, 64
3, 34440, Note_on_c, 1, 46, 110
3, 34536, Note_off_c, 1, 46, 64
3, 34560, Note_on_c, 1, 45, 110
3, 34656, Note_off_c, 1, 45, 64
3, 34680, Note_on_c, 1, 43, 110
3, 34776, Note_off_c, 1, 43, 64
3, 34800, Note_on_c, 1, 41, 110
3, 34896, Note_off_c, 1, 41, 64
3, 34920, Note_on_c, 1, 40, 110
3, 35016, Note_off_c, 1, 40, 64
3, 35040, Note_on_c, 1, 38, 110
3, 35136, Note_off_c, 1, 38, 64
3, 35160, Note_on_c, 1, 36, 110
3, 35352, Note_off_c, 1, 36, 64
3, 35400, Note_on_c, 1, 41, 110
3, 35592, Note_off_c, 1, 41, 64
3, 35640, Note_on_c, 1, 48, 110
3, 35832, Note_off_c, 1, 48, 64
3, 35880, Note_on_c, 1, 36, 110
3, 36072, Note_off_c, 1, 36, 64
3, 36120, Note_on_c, 1, 41, 110
3, 36312, Note_off_c, 1, 41, 64
3, 36360, Note_on_c, 1, 57, 110
3, 36456, Note_off_c, 1, 57, 64
3, 36480, Note_on_c, 1, 55, 110
3, 36576, Note_off_c, 1, 55, 64
3, 36600, Note_on_c, 1, 53, 110
3, 36696, Note_off_c, 1, 53, 64
3, 36720, Note_on_c, 1, 52, 110
3, 36816, Note_off_c, 1, 52, 64
3, 36840, Note_on_c, 1, 50, 110
3, 36936, Note_off_c, 1, 50, 64
3, 36960, Note_on_c, 1, 62, 110
3, 37056, Note_off_c, 1, 62, 64
3, 37080, Note_on_c, 1, 55, 110
3, 37176, Note_off_c, 1, 55, 64
3, 37200, Note_on_c, 1, 57, 110
3, 37296, Note_off_c, 1, 57, 64
3, 37320, Note_on_c, 1, 58, 110
3, 37416, Note_off_c, 1, 58, 64
3, 37440, Note_on_c, 1, 57, 110
3, 37536, Note_off_c, 1, 57, 64
3, 37560, Note_on_c, 1, 55, 110
3, 37656, Note_off_c, 1, 55, 64
3, 37680, Note_on_c, 1, 54, 110
3, 37776, Note_off_c, 1, 54, 64
3, 37800, Note_on_c, 1, 52, 110
3, 37896, Note_off_c, 1, 52, 64
3, 37920, Note_on_c, 1, 50, 110
3, 38016, Note_off_c, 1, 50, 64
3, 38040, Note_on_c, 1, 48, 110
3, 38136, Note_off_c, 1, 48, 64
3, 38160, Note_on_c, 1, 47, 110
3, 38256, Note_off_c, 1, 47, 64
3, 38280, Note_on_c, 1, 45, 110
3, 38376, Note_off_c, 1, 45, 64
3, 38400, Note_on_c, 1, 43, 110
3, 38496, Note_off_c, 1, 43, 64
3, 38520, Note_on_c, 1, 45, 110
3, 38616, Note_off_c, 1, 45, 64
3, 38640, Note_on_c, 1, 48, 110
3, 38736, Note_off_c, 1, 48, 64
3, 38760, Note_on_c, 1, 47, 110
3, 38856, Note_off_c, 1, 47, 64
3, 38880, Note_on_c, 1, 50, 110
3, 38976, Note_off_c, 1, 50, 64
3, 39000, Note_on_c, 1, 48, 110
3, 39096, Note_off_c, 1, 48, 64
3, 39120, Note_on_c, 1, 52, 110
3, 39216, Note_off_c, 1, 52, 64
3, 39240, Note_on_c, 1, 50, 110
3, 39336, Note_off_c, 1, 50, 64
3, 39360, Note_on_c, 1, 48, 110
3, 39456, Note_off_c, 1, 48, 64
3, 39480, Note_on_c, 1, 47, 110
3, 39576, Note_off_c, 1, 47, 64
3, 39600, Note_on_c, 1, 45, 110
3, 39696, Note_off_c, 1, 45, 64
3, 39720, Note_on_c, 1, 47, 110
3, 39816, Note_off_c, 1, 47, 64
3, 39840, Note_on_c, 1, 48, 110
3, 39936, Note_off_c, 1, 48, 64
3, 39960, Note_on_c, 1, 50, 110
3, 40056, Note_off_c, 1, 50, 64
3, 40080, Note_on_c, 1, 52, 110
3, 40176, Note_off_c, 1, 52, 64
3, 40200, Note_on_c, 1, 53, 110
3, 40296, Note_off_c, 1, 53, 64
3, 40320, Note_on_c, 1, 52, 110
3, 40416, Note_off_c, 1, 52, 64
3, 40440, Note_on_c, 1, 50, 110
3, 40536, Note_off_c, 1, 50, 64
3, 40560, Note_on_c, 1, 48, 110
3, 40656, Note_off_c, 1, 48, 64
3, 40680, Note_on_c, 1, 50, 110
3, 40776, Note_off_c, 1, 50, 64
3, 40800, Note_on_c, 1, 52, 110
3, 40896, Note_off_c, 1, 52, 64
3, 40920, Note_on_c, 1, 45, 110
3, 41016, Note_off_c, 1, 45, 64
3, 41040, Note_on_c, 1, 52, 110
3, 41136, Note_off_c, 1, 52, 64
3, 41160, Note_on_c, 1, 53, 110
3, 41256, Note_off_c, 1, 53, 64
3, 41280, Note_on_c, 1, 55, 110
3, 41376, Note_off_c, 1, 55, 64
3, 41400, Note_on_c, 1, 57, 110
3, 41496, Note_off_c, 1, 57, 64
3, 41520, Note_on_c, 1, 55, 110
3, 41616, Note_off_c, 1, 55, 64
3, 41640, Note_on_c, 1, 58, 110
3, 41736, Note_off_c, 1, 58, 64
3, 41760, Note_on_c, 1, 57, 110
3, 41856, Note_off_c, 1, 57, 64
3, 41880, Note_on_c, 1, 55, 110
3, 41976, Note_off_c, 1, 55, 64
3, 42000, Note_on_c, 1, 53, 110
3, 42096, Note_off_c, 1, 53, 64
3, 42120, Note_on_c, 1, 55, 110
3, 42216, Note_off_c, 1, 55, 64
3, 42240, Note_on_c, 1, 57, 110
3, 42336, Note_off_c, 1, 57, 64
3, 42360, Note_on_c, 1, 50, 110
3, 42456, Note_off_c, 1, 50, 64
3, 42480, Note_on_c, 1, 57, 110
3, 42576, Note_off_c, 1, 57, 64
3, 42600, Note_on_c, 1, 59, 110
3, 42696, Note_off_c, 1, 59, 64
3, 42720, Note_on_c, 1, 60, 110
3, 42816, Note_off_c, 1, 60, 64
3, 42840, Note_on_c, 1, 62, 110
3, 42936, Note_off_c, 1, 62, 64
3, 42960, Note_on_c, 1, 64, 110
3, 43056, Note_off_c, 1, 64, 64
3, 43080, Note_on_c, 1, 60, 110
3, 43176, Note_off_c, 1, 60, 64
3, 43200, Note_on_c, 1, 64, 110
3, 43296, Note_off_c, 1, 64, 64
3, 43320, Note_on_c, 1, 62, 110
3, 43416, Note_off_c, 1, 62, 64
3, 43440, Note_on_c, 1, 65, 110
3, 43536, Note_off_c, 1, 65, 64
3, 43560, Note_on_c, 1, 64, 110
3, 43656, Note_off_c, 1, 64, 64
3, 43680, Note_on_c, 1, 62, 110
3, 43776, Note_off_c, 1, 62, 64
3, 43800, Note_on_c, 1, 60, 110
3, 43896, Note_off_c, 1, 60, 64
3, 43920, Note_on_c, 1, 59, 110
3, 44016, Note_off_c, 1, 59, 64
3, 44040, Note_on_c, 1, 60, 110
3, 44136, Note_off_c, 1, 60, 64
3, 44160, Note_on_c, 1, 62, 110
3, 44256, Note_off_c, 1, 62, 64
3, 44280, Note_on_c, 1, 64, 110
3, 44472, Note_off_c, 1, 64, 64
3, 44520, Note_on_c, 1, 52, 110
3, 44712, Note_off_c, 1, 52, 64
3, 44760, Note_on_c, 1, 57, 110
3, 45000, Note_on_c, 1, 45, 110
3, 45240, Note_on_c, 1, 52, 110
3, 45336, Note_off_c, 1, 57, 64
3, 45432, Note_off_c, 1, 52, 64
3, 45480, Note_on_c, 1, 57, 110
3, 45864, Note_off_c, 1, 57, 64
3, 45864, Note_off_c, 1, 45, 64
3, 46200, Note_on_c, 1, 45, 110
3, 46296, Note_off_c, 1, 45, 64
3, 46320, Note_on_c, 1, 57, 110
3, 46416, Note_off_c, 1, 57, 64
3, 46440, Note_on_c, 1, 55, 110
3, 46536, Note_off_c, 1, 55, 64
3, 46560, Note_on_c, 1, 53, 110
3, 46656, Note_off_c, 1, 53, 64
3, 46680, Note_on_c, 1, 52, 110
3, 46776, Note_off_c, 1, 52, 64
3, 46800, Note_on_c, 1, 49, 110
3, 46896, Note_off_c, 1, 49, 64
3, 46920, Note_on_c, 1, 50, 110
3, 47016, Note_off_c, 1, 50, 64
3, 47040, Note_on_c, 1, 52, 110
3, 47136, Note_off_c, 1, 52, 64
3, 47160, Note_on_c, 1, 45, 110
3, 47256, Note_off_c, 1, 45, 64
3, 47280, Note_on_c, 1, 55, 110
3, 47376, Note_off_c, 1, 55, 64
3, 47400, Note_on_c, 1, 53, 110
3, 47496, Note_off_c, 1, 53, 64
3, 47520, Note_on_c, 1, 52, 110
3, 47616, Note_off_c, 1, 52, 64
3, 47640, Note_on_c, 1, 50, 110
3, 47736, Note_off_c, 1, 50, 64
3, 47760, Note_on_c, 1, 53, 110
3, 47856, Note_off_c, 1, 53, 64
3, 47880, Note_on_c, 1, 62, 110
3, 47976, Note_off_c, 1, 62, 64
3, 48000, Note_on_c, 1, 60, 110
3, 48096, Note_off_c, 1, 60, 64
3, 48120, Note_on_c, 1, 58, 110
3, 48216, Note_off_c, 1, 58, 64
3, 48240, Note_on_c, 1, 57, 110
3, 48336, Note_off_c, 1, 57, 64
3, 48360, Note_on_c, 1, 55, 110
3, 48456, Note_off_c, 1, 55, 64
3, 48480, Note_on_c, 1, 58, 110
3, 48576, Note_off_c, 1, 58, 64
3, 48600, Note_on_c, 1, 60, 110
3, 48696, Note_off_c, 1, 60, 64
3, 48720, Note_on_c, 1, 58, 110
3, 48816, Note_off_c, 1, 58, 64
3, 48840, Note_on_c, 1, 60, 110
3, 48936, Note_off_c, 1, 60, 64
3, 48960, Note_on_c, 1, 62, 110
3, 49056, Note_off_c, 1, 62, 64
3, 49080, Note_on_c, 1, 63, 110
3, 49176, Note_off_c, 1, 63, 64
3, 49200, Note_on_c, 1, 62, 110
3, 49296, Note_off_c, 1, 62, 64
3, 49320, Note_on_c, 1, 64, 110
3, 49416, Note_off_c, 1, 64, 64
3, 49440, Note_on_c, 1, 66, 110
3, 49536, Note_off_c, 1, 66, 64
3, 49560, Note_on_c, 1, 67, 110
3, 49656, Note_off_c, 1, 67, 64
3, 49680, Note_on_c, 1, 66, 110
3, 49776, Note_off_c, 1, 66, 64
3, 49800, Note_on_c, 1, 67, 110
3, 49896, Note_off_c, 1, 67, 64
3, 49920, Note_on_c, 1, 69, 110
3, 50016, Note_off_c, 1, 69, 64
3, 50040, Note_on_c, 1, 67, 110
3, 50136, Note_off_c, 1, 67, 64
3, 50160, Note_on_c, 1, 66, 110
3, 50256, Note_off_c, 1, 66, 64
3, 50280, Note_on_c, 1, 64, 110
3, 50376, Note_off_c, 1, 64, 64
3, 50400, Note_on_c, 1, 62, 110
3, 50496, Note_off_c, 1, 62, 64
3, 50520, Note_on_c, 1, 67, 110
3, 50616, Note_off_c, 1, 67, 64
3, 50640, Note_on_c, 1, 55, 110
3, 50736, Note_off_c, 1, 55, 64
3, 50760, Note_on_c, 1, 57, 110
3, 50856, Note_off_c, 1, 57, 64
3, 50880, Note_on_c, 1, 58, 110
3, 50976, Note_off_c, 1, 58, 64
3, 51000, Note_on_c, 1, 60, 110
3, 51096, Note_off_c, 1, 60, 64
3, 51120, Note_on_c, 1, 62, 110
3, 51216, Note_off_c, 1, 62, 64
3, 51240, Note_on_c, 1, 63, 110
3, 51336, Note_off_c, 1, 63, 64
3, 51360, Note_on_c, 1, 60, 110
3, 51456, Note_off_c, 1, 60, 64
3, 51480, Note_on_c, 1, 62, 110
3, 51672, Note_off_c, 1, 62, 64
3, 51720, Note_on_c, 1, 50, 110
3, 51912, Note_off_c, 1, 50, 64
3, 51960, Note_on_c, 1, 55, 110
3, 52056, Note_off_c, 1, 55, 64
3, 52080, Note_on_c, 1, 57, 110
3, 52176, Note_off_c, 1, 57, 64
3, 52200, Note_on_c, 1, 58, 110
3, 52296, Note_off_c, 1, 58, 64
3, 52320, Note_on_c, 1, 57, 110
3, 52416, Note_off_c, 1, 57, 64
3, 52440, Note_on_c, 1, 55, 110
3, 52536, Note_off_c, 1, 55, 64
3, 52560, Note_on_c, 1, 53, 110
3, 52656, Note_off_c, 1, 53, 64
3, 52680, Note_on_c, 1, 52, 110
3, 52776, Note_off_c, 1, 52, 64
3, 52800, Note_on_c, 1, 53, 110
3, 52896, Note_off_c, 1, 53, 64
3, 52920, Note_on_c, 1, 46, 110
3, 53112, Note_off_c, 1, 46, 64
3, 53160, Note_on_c, 1, 50, 110
3, 53352, Note_off_c, 1, 50, 64
3, 53400, Note_on_c, 1, 48, 110
3, 53496, Note_off_c, 1, 48, 64
3, 53520, Note_on_c, 1, 55, 110
3, 53616, Note_off_c, 1, 55, 64
3, 53640, Note_on_c, 1, 60, 110
3, 53736, Note_off_c, 1, 60, 64
3, 53760, Note_on_c, 1, 58, 110
3, 53856, Note_off_c, 1, 58, 64
3, 53880, Note_on_c, 1, 57, 110
3, 53976, Note_off_c, 1, 57, 64
3, 54000, Note_on_c, 1, 60, 110
3, 54096, Note_off_c, 1, 60, 64
3, 54120, Note_on_c, 1, 58, 110
3, 54216, Note_off_c, 1, 58, 64
3, 54240, Note_on_c, 1, 57, 110
3, 54336, Note_off_c, 1, 57, 64
3, 54360, Note_on_c, 1, 55, 110
3, 54456, Note_off_c, 1, 55, 64
3, 54480, Note_on_c, 1, 53, 110
3, 54576, Note_off_c, 1, 53, 64
3, 54600, Note_on_c, 1, 55, 110
3, 54696, Note_off_c, 1, 55, 64
3, 54720, Note_on_c, 1, 57, 110
3, 54816, Note_off_c, 1, 57, 64
3, 54840, Note_on_c, 1, 58, 110
3, 54936, Note_off_c, 1, 58, 64
3, 54960, Note_on_c, 1, 53, 110
3, 55056, Note_off_c, 1, 53, 64
3, 55080, Note_on_c, 1, 46, 110
3, 55176, Note_off_c, 1, 46, 64
3, 55200, Note_on_c, 1, 48, 110
3, 55296, Note_off_c, 1, 48, 64
3, 55320, Note_on_c, 1, 50, 110
3, 55512, Note_off_c, 1, 50, 64
3, 55560, Note_on_c, 1, 51, 110
3, 55656, Note_off_c, 1, 51, 64
3, 55680, Note_on_c, 1, 53, 110
3, 55776, Note_off_c, 1, 53, 64
3, 55800, Note_on_c, 1, 55, 110
3, 55992, Note_off_c, 1, 55, 64
3, 56040, Note_on_c, 1, 51, 110
3, 56232, Note_off_c, 1, 51, 64
3, 56280, Note_on_c, 1, 53, 110
3, 56856, Note_off_c, 1, 53, 64
3, 56880, Note_on_c, 1, 51, 110
3, 56976, Note_off_c, 1, 51, 64
3, 57000, Note_on_c, 1, 50, 110
3, 57096, Note_off_c, 1, 50, 64
3, 57120, Note_on_c, 1, 48, 110
3, 57216, Note_off_c, 1, 48, 64
3, 57240, Note_on_c, 1, 46, 110
3, 57336, Note_off_c, 1, 46, 64
3, 57360, Note_on_c, 1, 44, 110
3, 57456, Note_off_c, 1, 44, 64
3, 57480, Note_on_c, 1, 43, 110
3, 57576, Note_off_c, 1, 43, 64
3, 57600, Note_on_c, 1, 41, 110
3, 57696, Note_off_c, 1, 41, 64
3, 57720, Note_on_c, 1, 39, 110
3, 57816, Note_off_c, 1, 39, 64
3, 57840, Note_on_c, 1, 51, 110
3, 57936, Note_off_c, 1, 51, 64
3, 57960, Note_on_c, 1, 50, 110
3, 58056, Note_off_c, 1, 50, 64
3, 58080, Note_on_c, 1, 48, 110
3, 58176, Note_off_c, 1, 48, 64
3, 58200, Note_on_c, 1, 46, 110
3, 58296, Note_off_c, 1, 46, 64
3, 58320, Note_on_c, 1, 50, 110
3, 58416, Note_off_c, 1, 50, 64
3, 58440, Note_on_c, 1, 55, 110
3, 58536, Note_off_c, 1, 55, 64
3, 58560, Note_on_c, 1, 51, 110
3, 58656, Note_off_c, 1, 51, 64
3, 58680, Note_on_c, 1, 53, 110
3, 58872, Note_off_c, 1, 53, 64
3, 58920, Note_on_c, 1, 41, 110
3, 59112, Note_off_c, 1, 41, 64
3, 59160, Note_on_c, 1, 46, 110
3, 59256, Note_off_c, 1, 46, 64
3, 59280, Note_on_c, 1, 50, 110
3, 59376, Note_off_c, 1, 50, 64
3, 59400, Note_on_c, 1, 48, 110
3, 59496, Note_off_c, 1, 48, 64
3, 59520, Note_on_c, 1, 46, 110
3, 59616, Note_off_c, 1, 46, 64
3, 59640, Note_on_c, 1, 45, 110
3, 59736, Note_off_c, 1, 45, 64
3, 59760, Note_on_c, 1, 43, 110
3, 59856, Note_off_c, 1, 43, 64
3, 59880, Note_on_c, 1, 42, 110
3, 59976, Note_off_c, 1, 42, 64
3, 60000, Note_on_c, 1, 40, 110
3, 60096, Note_off_c, 1, 40, 64
3, 60120, Note_on_c, 1, 42, 110
3, 60312, Note_off_c, 1, 42, 64
3, 60360, Note_on_c, 1, 50, 110
3, 60552, Note_off_c, 1, 50, 64
3, 60600, Note_on_c, 1, 55, 110
3, 60888, Note_off_c, 1, 55, 64
3, 60960, Note_on_c, 1, 57, 110
3, 61056, Note_off_c, 1, 57, 64
3, 61080, Note_on_c, 1, 58, 110
3, 61176, Note_off_c, 1, 58, 64
3, 61200, Note_on_c, 1, 60, 110
3, 61296, Note_off_c, 1, 60, 64
3, 61320, Note_on_c, 1, 58, 110
3, 61416, Note_off_c, 1, 58, 64
3, 61440, Note_on_c, 1, 57, 110
3, 61536, Note_off_c, 1, 57, 64
3, 61560, Note_on_c, 1, 55, 110
3, 61656, Note_off_c, 1, 55, 64
3, 61680, Note_on_c, 1, 53, 110
3, 61776, Note_off_c, 1, 53, 64
3, 61800, Note_on_c, 1, 55, 110
3, 61896, Note_off_c, 1, 55, 64
3, 61920, Note_on_c, 1, 52, 110
3, 62016, Note_off_c, 1, 52, 64
3, 62040, Note_on_c, 1, 57, 110
3, 62328, Note_off_c, 1, 57, 64
3, 62400, Note_on_c, 1, 55, 110
3, 62496, Note_off_c, 1, 55, 64
3, 62520, Note_on_c, 1, 54, 110
3, 62616, Note_off_c, 1, 54, 64
3, 62640, Note_on_c, 1, 50, 110
3, 62736, Note_off_c, 1, 50, 64
3, 62760, Note_on_c, 1, 52, 110
3, 62856, Note_off_c, 1, 52, 64
3, 62880, Note_on_c, 1, 53, 110
3, 62976, Note_off_c, 1, 53, 64
3, 63000, Note_on_c, 1, 55, 110
3, 63096, Note_off_c, 1, 55, 64
3, 63120, Note_on_c, 1, 57, 110
3, 63216, Note_off_c, 1, 57, 64
3, 63240, Note_on_c, 1, 58, 110
3, 63336, Note_off_c, 1, 58, 64
3, 63360, Note_on_c, 1, 57, 110
3, 63456, Note_off_c, 1, 57, 64
3, 63480, Note_on_c, 1, 55, 110
3, 63576, Note_off_c, 1, 55, 64
3, 63600, Note_on_c, 1, 53, 110
3, 63696, Note_off_c, 1, 53, 64
3, 63720, Note_on_c, 1, 55, 110
3, 63816, Note_off_c, 1, 55, 64
3, 63840, Note_on_c, 1, 57, 110
3, 63936, Note_off_c, 1, 57, 64
3, 63960, Note_on_c, 1, 50, 110
3, 64056, Note_off_c, 1, 50, 64
3, 64080, Note_on_c, 1, 57, 110
3, 64176, Note_off_c, 1, 57, 64
3, 64200, Note_on_c, 1, 58, 110
3, 64296, Note_off_c, 1, 58, 64
3, 64320, Note_on_c, 1, 60, 110
3, 64416, Note_off_c, 1, 60, 64
3, 64440, Note_on_c, 1, 62, 110
3, 64536, Note_off_c, 1, 62, 64
3, 64560, Note_on_c, 1, 60, 110
3, 64656, Note_off_c, 1, 60, 64
3, 64680, Note_on_c, 1, 63, 110
3, 64776, Note_off_c, 1, 63, 64
3, 64800, Note_on_c, 1, 62, 110
3, 64896, Note_off_c, 1, 62, 64
3, 64920, Note_on_c, 1, 60, 110
3, 65016, Note_off_c, 1, 60, 64
3, 65040, Note_on_c, 1, 58, 110
3, 65136, Note_off_c, 1, 58, 64
3, 65160, Note_on_c, 1, 60, 110
3, 65256, Note_off_c, 1, 60, 64
3, 65280, Note_on_c, 1, 62, 110
3, 65376, Note_off_c, 1, 62, 64
3, 65400, Note_on_c, 1, 55, 110
3, 65496, Note_off_c, 1, 55, 64
3, 65520, Note_on_c, 1, 57, 110
3, 65616, Note_off_c, 1, 57, 64
3, 65640, Note_on_c, 1, 58, 110
3, 65736, Note_off_c, 1, 58, 64
3, 65760, Note_on_c, 1, 57, 110
3, 65856, Note_off_c, 1, 57, 64
3, 65880, Note_on_c, 1, 55, 110
3, 65976, Note_off_c, 1, 55, 64
3, 66000, Note_on_c, 1, 53, 110
3, 66096, Note_off_c, 1, 53, 64
3, 66120, Note_on_c, 1, 52, 110
3, 66216, Note_off_c, 1, 52, 64
3, 66240, Note_on_c, 1, 50, 110
3, 66336, Note_off_c, 1, 50, 64
3, 66360, Note_on_c, 1, 49, 110
3, 66552, Note_off_c, 1, 49, 64
3, 66600, Note_on_c, 1, 50, 110
3, 66696, Note_off_c, 1, 50, 64
3, 66720, Note_on_c, 1, 52, 110
3, 66816, Note_off_c, 1, 52, 64
3, 66840, Note_on_c, 1, 53, 110
3, 66936, Note_off_c, 1, 53, 64
3, 66960, Note_on_c, 1, 52, 110
3, 67056, Note_off_c, 1, 52, 64
3, 67080, Note_on_c, 1, 53, 110
3, 67176, Note_off_c, 1, 53, 64
3, 67200, Note_on_c, 1, 55, 110
3, 67296, Note_off_c, 1, 55, 64
3, 67320, Note_on_c, 1, 57, 110
3, 67512, Note_off_c, 1, 57, 64
3, 67560, Note_on_c, 1, 45, 110
3, 67752, Note_off_c, 1, 45, 64
3, 67800, Note_on_c, 1, 50, 110
3, 68040, Note_on_c, 1, 38, 110
3, 68280, Note_on_c, 1, 45, 110
3, 68376, Note_off_c, 1, 50, 64
3, 68472, Note_off_c, 1, 45, 64
3, 68520, Note_on_c, 1, 50, 110
3, 68904, Note_off_c, 1, 50, 64
3, 68904, Note_off_c, 1, 38, 64
3, 69240, Note_on_c, 1, 45, 110
3, 69336, Note_off_c, 1, 45, 64
3, 69360, Note_on_c, 1, 57, 110
3, 69456, Note_off_c, 1, 57, 64
3, 69480, Note_on_c, 1, 55, 110
3, 69576, Note_off_c, 1, 55, 64
3, 69600, Note_on_c, 1, 53, 110
3, 69696, Note_off_c, 1, 53, 64
3, 69720, Note_on_c, 1, 52, 110
3, 69816, Note_off_c, 1, 52, 64
3, 69840, Note_on_c, 1, 49, 110
3, 69936, Note_off_c, 1, 49, 64
3, 69960, Note_on_c, 1, 50, 110
3, 70056, Note_off_c, 1, 50, 64
3, 70080, Note_on_c, 1, 52, 110
3, 70176, Note_off_c, 1, 52, 64
3, 70200, Note_on_c, 1, 45, 110
3, 70296, Note_off_c, 1, 45, 64
3, 70320, Note_on_c, 1, 55, 110
3, 70416, Note_off_c, 1, 55, 64
3, 70440, Note_on_c, 1, 53, 110
3, 70536, Note_off_c, 1, 53, 64
3, 70560, Note_on_c, 1, 52, 110
3, 70656, Note_off_c, 1, 52, 64
3, 70680, Note_on_c, 1, 50, 110
3, 70776, Note_off_c, 1, 50, 64
3, 70800, Note_on_c, 1, 53, 110
3, 70896, Note_off_c, 1, 53, 64
3, 70920, Note_on_c, 1, 62, 110
3, 71016, Note_off_c, 1, 62, 64
3, 71040, Note_on_c, 1, 60, 110
3, 71136, Note_off_c, 1, 60, 64
3, 71160, Note_on_c, 1, 58, 110
3, 71256, Note_off_c, 1, 58, 64
3, 71280, Note_on_c, 1, 57, 110
3, 71376, Note_off_c, 1, 57, 64
3, 71400, Note_on_c, 1, 55, 110
3, 71496, Note_off_c, 1, 55, 64
3, 71520, Note_on_c, 1, 58, 110
3, 71616, Note_off_c, 1, 58, 64
3, 71640, Note_on_c, 1, 60, 110
3, 71736, Note_off_c, 1, 60, 64
3, 71760, Note_on_c, 1, 58, 110
3, 71856, Note_off_c, 1, 58, 64
3, 71880, Note_on_c, 1, 60, 110
3, 71976, Note_off_c, 1, 60, 64
3, 72000, Note_on_c, 1, 62, 110
3, 72096, Note_off_c, 1, 62, 64
3, 72120, Note_on_c, 1, 63, 110
3, 72216, Note_off_c, 1, 63, 64
3, 72240, Note_on_c, 1, 62, 110
3, 72336, Note_off_c, 1, 62, 64
3, 72360, Note_on_c, 1, 64, 110
3, 72456, Note_off_c, 1, 64, 64
3, 72480, Note_on_c, 1, 66, 110
3, 72576, Note_off_c, 1, 66, 64
3, 72600, Note_on_c, 1, 67, 110
3, 72696, Note_off_c, 1, 67, 64
3, 72720, Note_on_c, 1, 66, 110
3, 72816, Note_off_c, 1, 66, 64
3, 72840, Note_on_c, 1, 67, 110
3, 72936, Note_off_c, 1, 67, 64
3, 72960, Note_on_c, 1, 69, 110
3, 73056, Note_off_c, 1, 69, 64
3, 73080, Note_on_c, 1, 67, 110
3, 73176, Note_off_c, 1, 67, 64
3, 73200, Note_on_c, 1, 66, 110
3, 73296, Note_off_c, 1, 66, 64
3, 73320, Note_on_c, 1, 64, 110
3, 73416, Note_off_c, 1, 64, 64
3, 73440, Note_on_c, 1, 62, 110
3, 73536, Note_off_c, 1, 62, 64
3, 73560, Note_on_c, 1, 67, 110
3, 73656, Note_off_c, 1, 67, 64
3, 73680, Note_on_c, 1, 55, 110
3, 73776, Note_off_c, 1, 55, 64
3, 73800, Note_on_c, 1, 57, 110
3, 73896, Note_off_c, 1, 57, 64
3, 73920, Note_on_c, 1, 58, 110
3, 74016, Note_off_c, 1, 58, 64
3, 74040, Note_on_c, 1, 60, 110
3, 74136, Note_off_c, 1, 60, 64
3, 74160, Note_on_c, 1, 62, 110
3, 74256, Note_off_c, 1, 62, 64
3, 74280, Note_on_c, 1, 63, 110
3, 74376, Note_off_c, 1, 63, 64
3, 74400, Note_on_c, 1, 60, 110
3, 74496, Note_off_c, 1, 60, 64
3, 74520, Note_on_c, 1, 62, 110
3, 74712, Note_off_c, 1, 62, 64
3, 74760, Note_on_c, 1, 50, 110
3, 74952, Note_off_c, 1, 50, 64
3, 75000, Note_on_c, 1, 55, 110
3, 75096, Note_off_c, 1, 55, 64
3, 75120, Note_on_c, 1, 57, 110
3, 75216, Note_off_c, 1, 57, 64
3, 75240, Note_on_c, 1, 58, 110
3, 75336, Note_off_c, 1, 58, 64
3, 75360, Note_on_c, 1, 57, 110
3, 75456, Note_off_c, 1, 57, 64
3, 75480, Note_on_c, 1, 55, 110
3, 75576, Note_off_c, 1, 55, 64
3, 75600, Note_on_c, 1, 53, 110
3, 75696, Note_off_c, 1, 53, 64
3, 75720, Note_on_c, 1, 52, 110
3, 75816, Note_off_c, 1, 52, 64
3, 75840, Note_on_c, 1, 53, 110
3, 75936, Note_off_c, 1, 53, 64
3, 75960, Note_on_c, 1, 46, 110
3, 76152, Note_off_c, 1, 46, 64
3, 76200, Note_on_c, 1, 50, 110
3, 76392, Note_off_c, 1, 50, 64
3, 76440, Note_on_c, 1, 48, 110
3, 76536, Note_off_c, 1, 48, 64
3, 76560, Note_on_c, 1, 55, 110
3, 76656, Note_off_c, 1, 55, 64
3, 76680, Note_on_c, 1, 60, 110
3, 76776, Note_off_c, 1, 60, 64
3, 76800, Note_on_c, 1, 58, 110
3, 76896, Note_off_c, 1, 58, 64
3, 76920, Note_on_c, 1, 57, 110
3, 77016, Note_off_c, 1, 57, 64
3, 77040, Note_on_c, 1, 60, 110
3, 77136, Note_off_c, 1, 60, 64
3, 77160, Note_on_c, 1, 58, 110
3, 77256, Note_off_c, 1, 58, 64
3, 77280, Note_on_c, 1, 57, 110
3, 77376, Note_off_c, 1, 57, 64
3, 77400, Note_on_c, 1, 55, 110
3, 77496, Note_off_c, 1, 55, 64
3, 77520, Note_on_c, 1, 53, 110
3, 77616, Note_off_c, 1, 53, 64
3, 77640, Note_on_c, 1, 55, 110
3, 77736, Note_off_c, 1, 55, 64
3, 77760, Note_on_c, 1, 57, 110
3, 77856, Note_off_c, 1, 57, 64
3, 77880, Note_on_c, 1, 58, 110
3, 77976, Note_off_c, 1, 58, 64
3, 78000, Note_on_c, 1, 53, 110
3, 78096, Note_off_c, 1, 53, 64
3, 78120, Note_on_c, 1, 46, 110
3, 78216, Note_off_c, 1, 46, 64
3, 78240, Note_on_c, 1, 48, 110
3, 78336, Note_off_c, 1, 48, 64
3, 78360, Note_on_c, 1, 50, 110
3, 78552, Note_off_c, 1, 50, 64
3, 78600, Note_on_c, 1, 51, 110
3, 78696, Note_off_c, 1, 51, 64
3, 78720, Note_on_c, 1, 53, 110
3, 78816, Note_off_c, 1, 53, 64
3, 78840, Note_on_c, 1, 55, 110
3, 79032, Note_off_c, 1, 55, 64
3, 79080, Note_on_c, 1, 51, 110
3, 79272, Note_off_c, 1, 51, 64
3, 79320, Note_on_c, 1, 53, 110
3, 79896, Note_off_c, 1, 53, 64
3, 79920, Note_on_c, 1, 51, 110
3, 80016, Note_off_c, 1, 51, 64
3, 80040, Note_on_c, 1, 50, 110
3, 80136, Note_off_c, 1, 50, 64
3, 80160, Note_on_c, 1, 48, 110
3, 80256, Note_off_c, 1, 48, 64
3, 80280, Note_on_c, 1, 46, 110
3, 80376, Note_off_c, 1, 46, 64
3, 80400, Note_on_c, 1, 44, 110
3, 80496, Note_off_c, 1, 44, 64
3, 80520, Note_on_c, 1, 43, 110
3, 80616, Note_off_c, 1, 43, 64
3, 80640, Note_on_c, 1, 41, 110
3, 80736, Note_off_c, 1, 41, 64
3, 80760, Note_on_c, 1, 39, 110
3, 80856, Note_off_c, 1, 39, 64
3, 80880, Note_on_c, 1, 51, 110
3, 80976, Note_off_c, 1, 51, 64
3, 81000, Note_on_c, 1, 50, 110
3, 81096, Note_off_c, 1, 50, 64
3, 81120, Note_on_c, 1, 48, 110
3, 81216, Note_off_c, 1, 48, 64
3, 81240, Note_on_c, 1, 46, 110
3, 81336, Note_off_c, 1, 46, 64
3, 81360, Note_on_c, 1, 50, 110
3, 81456, Note_off_c, 1, 50, 64
3, 81480, Note_on_c, 1, 55, 110
3, 81576, Note_off_c, 1, 55, 64
3, 81600, Note_on_c, 1, 51, 110
3, 81696, Note_off_c, 1, 51, 64
3, 81720, Note_on_c, 1, 53, 110
3, 81912, Note_off_c, 1, 53, 64
3, 81960, Note_on_c, 1, 41, 110
3, 82152, Note_off_c, 1, 41, 64
3, 82200, Note_on_c, 1, 46, 110
3, 82296, Note_off_c, 1, 46, 64
3, 82320, Note_on_c, 1, 50, 110
3, 82416, Note_off_c, 1, 50, 64
3, 82440, Note_on_c, 1, 48, 110
3, 82536, Note_off_c, 1, 48, 64
3, 82560, Note_on_c, 1, 46, 110
3, 82656, Note_off_c, 1, 46, 64
3, 82680, Note_on_c, 1, 45, 110
3, 82776, Note_off_c, 1, 45, 64
3, 82800, Note_on_c, 1, 43, 110
3, 82896, Note_off_c, 1, 43, 64
3, 82920, Note_on_c, 1, 42, 110
3, 83016, Note_off_c, 1, 42, 64
3, 83040, Note_on_c, 1, 40, 110
3, 83136, Note_off_c, 1, 40, 64
3, 83160, Note_on_c, 1, 42, 110
3, 83352, Note_off_c, 1, 42, 64
3, 83400, Note_on_c, 1, 50, 110
3, 83592, Note_off_c, 1, 50, 64
3, 83640, Note_on_c, 1, 55, 110
3, 83928, Note_off_c, 1, 55, 64
3, 84000, Note_on_c, 1, 57, 110
3, 84096, Note_off_c, 1, 57, 64
3, 84120, Note_on_c, 1, 58, 110
3, 84216, Note_off_c, 1, 58, 64
3, 84240, Note_on_c, 1, 60, 110
3, 84336, Note_off_c, 1, 60, 64
3, 84360, Note_on_c, 1, 58, 110
3, 84456, Note_off_c, 1, 58, 64
3, 84480, Note_on_c, 1, 57, 110
3, 84576, Note_off_c, 1, 57, 64
3, 84600, Note_on_c, 1, 55, 110
3, 84696, Note_off_c, 1, 55, 64
3, 84720, Note_on_c, 1, 53, 110
3, 84816, Note_off_c, 1, 53, 64
3, 84840, Note_on_c, 1, 55, 110
3, 84936, Note_off_c, 1, 55, 64
3, 84960, Note_on_c, 1, 52, 110
3, 85056, Note_off_c, 1, 52, 64
3, 85080, Note_on_c, 1, 57, 110
3, 85368, Note_off_c, 1, 57, 64
3, 85440, Note_on_c, 1, 55, 110
3, 85536, Note_off_c, 1, 55, 64
3, 85560, Note_on_c, 1, 54, 110
3, 85656, Note_off_c, 1, 54, 64
3, 85680, Note_on_c, 1, 50, 110
3, 85776, Note_off_c, 1, 50, 64
3, 85800, Note_on_c, 1, 52, 110
3, 85896, Note_off_c, 1, 52, 64
3, 85920, Note_on_c, 1, 53, 110
3, 86016, Note_off_c, 1, 53, 64
3, 86040, Note_on_c, 1, 55, 110
3, 86136, Note_off_c, 1, 55, 64
3, 86160, Note_on_c, 1, 57, 110
3, 86256, Note_off_c, 1, 57, 64
3, 86280, Note_on_c, 1, 58, 110
3, 86376, Note_off_c, 1, 58, 64
3, 86400, Note_on_c, 1, 57, 110
3, 86496, Note_off_c, 1, 57, 64
3, 86520, Note_on_c, 1, 55, 110
3, 86616, Note_off_c, 1, 55, 64
3, 86640, Note_on_c, 1, 53, 110
3, 86736, Note_off_c, 1, 53, 64
3, 86760, Note_on_c, 1, 55, 110
3, 86856, Note_off_c, 1, 55, 64
3, 86880, Note_on_c, 1, 57, 110
3, 86976, Note_off_c, 1, 57, 64
3, 87000, Note_on_c, 1, 50, 110
3, 87096, Note_off_c, 1, 50, 64
3, 87120, Note_on_c, 1, 57, 110
3, 87216, Note_off_c, 1, 57, 64
3, 87240, Note_on_c, 1, 58, 110
3, 87336, Note_off_c, 1, 58, 64
3, 87360, Note_on_c, 1, 60, 110
3, 87456, Note_off_c, 1, 60, 64
3, 87480, Note_on_c, 1, 62, 110
3, 87576, Note_off_c, 1, 62, 64
3, 87600, Note_on_c, 1, 60, 110
3, 87696, Note_off_c, 1, 60, 64
3, 87720, Note_on_c, 1, 63, 110
3, 87816, Note_off_c, 1, 63, 64
3, 87840, Note_on_c, 1, 62, 110
3, 87936, Note_off_c, 1, 62, 64
3, 87960, Note_on_c, 1, 60, 110
3, 88056, Note_off_c, 1, 60, 64
3, 88080, Note_on_c, 1, 58, 110
3, 88176, Note_off_c, 1, 58, 64
3, 88200, Note_on_c, 1, 60, 110
3, 88296, Note_off_c, 1, 60, 64
3, 88320, Note_on_c, 1, 62, 110
3, 88416, Note_off_c, 1, 62, 64
3, 88440, Note_on_c, 1, 55, 110
3, 88536, Note_off_c, 1, 55, 64
3, 88560, Note_on_c, 1, 57, 110
3, 88656, Note_off_c, 1, 57, 64
3, 88680, Note_on_c, 1, 58, 110
3, 88776, Note_off_c, 1, 58, 64
3, 88800, Note_on_c, 1, 57, 110
3, 88896, Note_off_c, 1, 57, 64
3, 88920, Note_on_c, 1, 55, 110
3, 89016, Note_off_c, 1, 55, 64
3, 89040, Note_on_c, 1, 53, 110
3, 89136, Note_off_c, 1, 53, 64
3, 89160, Note_on_c, 1, 52, 110
3, 89256, Note_off_c, 1, 52, 64
3, 89280, Note_on_c, 1, 50, 110
3, 89376, Note_off_c, 1, 50, 64
3, 89400, Note_on_c, 1, 49, 110
3, 89592, Note_off_c, 1, 49, 64
3, 89640, Note_on_c, 1, 50, 110
3, 89736, Note_off_c, 1, 50, 64
3, 89760, Note_on_c, 1, 52, 110
3, 89856, Note_off_c, 1, 52, 64
3, 89880, Note_on_c, 1, 53, 110
3, 89976, Note_off_c, 1, 53, 64
3, 90000, Note_on_c, 1, 52, 110
3, 90096, Note_off_c, 1, 52, 64
3, 90120, Note_on_c, 1, 53, 110
3, 90216, Note_off_c, 1, 53, 64
3, 90240, Note_on_c, 1, 55, 110
3, 90336, Note_off_c, 1, 55, 64
3, 90360, Note_on_c, 1, 57, 110
3, 90552, Note_off_c, 1, 57, 64
3, 90600, Note_on_c, 1, 45, 110
3, 90792, Note_off_c, 1, 45, 64
3, 90840, Note_on_c, 1, 50, 110
3, 91080, Note_on_c, 1, 38, 110
3, 91320, Note_on_c, 1, 45, 110
3, 91416, Note_off_c, 1, 50, 64
3, 91512, Note_off_c, 1, 45, 64
3, 91560, Note_on_c, 1, 50, 110
3, 91944, Note_off_c, 1, 50, 64
3, 91944, Note_off_c, 1, 38, 64
3, 91944, End_track
4, 0, Start_track
4, 0, Title_t, "Arr. Gary Bricault, (c) 1997"
4, 0, End_track
0, 0, End_of_file
