0, 0, Header, 0, 1, 384
1, 0, Start_track
1, 0, Copyright_t, "(C) John Sankey 1998"
1, 0, Program_c, 0, 6
1, 0, Pitch_bend_c, 0, 8192
1, 0, Program_c, 1, 6
1, 0, Pitch_bend_c, 1, 7792
1, 0, Program_c, 2, 6
1, 0, Pitch_bend_c, 2, 7876
1, 0, Program_c, 3, 6
1, 0, Pitch_bend_c, 3, 7952
1, 0, Program_c, 4, 6
1, 0, Pitch_bend_c, 4, 7792
1, 0, Program_c, 5, 6
1, 0, Pitch_bend_c, 5, 8112
1, 0, Program_c, 6, 6
1, 0, Pitch_bend_c, 6, 7712
1, 0, Program_c, 7, 6
1, 0, Pitch_bend_c, 7, 8037
1, 0, Program_c, 8, 6
1, 0, Pitch_bend_c, 8, 7872
1, 0, Program_c, 10, 6
1, 0, Pitch_bend_c, 10, 7712
1, 0, Program_c, 11, 6
1, 0, Pitch_bend_c, 11, 8032
1, 0, Program_c, 12, 6
1, 0, Pitch_bend_c, 12, 7872
1, 0, Tempo, 500000
1, 48, Note_on_c, 5, 53, 127
1, 48, Note_on_c, 10, 57, 127
1, 48, Note_on_c, 5, 65, 127
1, 133, Note_on_c, 4, 64, 127
1, 175, Note_off_c, 5, 65, 127
1, 217, Note_off_c, 4, 64, 127
1, 219, Note_on_c, 5, 65, 127
1, 894, Note_off_c, 5, 65, 127
1, 1040, Note_on_c, 5, 65, 127
1, 1231, Note_on_c, 10, 69, 127
1, 1236, Note_off_c, 5, 65, 127
1, 1299, Note_on_c, 7, 67, 127
1, 1302, Note_off_c, 10, 69, 127
1, 1367, Note_on_c, 10, 69, 127
1, 1370, Note_off_c, 7, 67, 127
1, 1672, Note_off_c, 10, 69, 127
1, 1675, Note_on_c, 10, 69, 127
1, 1820, Note_off_c, 10, 69, 127
1, 1823, Note_on_c, 10, 69, 127
1, 1897, Note_off_c, 10, 57, 127
1, 1897, Note_off_c, 5, 53, 127
1, 1920, Note_off_c, 10, 69, 127
1, 1925, Note_on_c, 7, 67, 127
1, 1990, Note_on_c, 10, 69, 127
1, 1996, Note_off_c, 7, 67, 127
1, 2054, Note_on_c, 7, 67, 127
1, 2060, Note_off_c, 10, 69, 127
1, 2118, Note_on_c, 10, 69, 127
1, 2124, Note_off_c, 7, 67, 127
1, 2182, Note_on_c, 7, 67, 127
1, 2188, Note_off_c, 10, 69, 127
1, 2253, Note_off_c, 7, 67, 127
1, 2265, Note_on_c, 5, 65, 127
1, 2410, Note_off_c, 5, 65, 127
1, 2413, Note_on_c, 4, 52, 127
1, 2413, Note_on_c, 7, 55, 127
1, 2413, Note_on_c, 5, 65, 127
1, 2708, Note_on_c, 0, 72, 127
1, 2723, Note_off_c, 5, 65, 127
1, 2778, Note_off_c, 0, 72, 127
1, 2781, Note_on_c, 11, 70, 127
1, 2852, Note_off_c, 11, 70, 127
1, 2855, Note_on_c, 0, 72, 127
1, 3317, Note_off_c, 0, 72, 127
1, 3372, Note_on_c, 0, 72, 127
1, 3594, Note_on_c, 4, 76, 127
1, 3596, Note_off_c, 0, 72, 127
1, 3656, Note_on_c, 2, 74, 127
1, 3665, Note_off_c, 4, 76, 127
1, 3717, Note_on_c, 4, 76, 127
1, 3726, Note_off_c, 2, 74, 127
1, 4018, Note_off_c, 4, 76, 127
1, 4036, Note_on_c, 4, 76, 127
1, 4181, Note_off_c, 4, 76, 127
1, 4184, Note_on_c, 4, 76, 127
1, 4295, Note_on_c, 2, 74, 127
1, 4297, Note_off_c, 4, 76, 127
1, 4357, Note_on_c, 4, 76, 127
1, 4366, Note_off_c, 2, 74, 127
1, 4418, Note_on_c, 2, 74, 127
1, 4427, Note_off_c, 4, 76, 127
1, 4479, Note_on_c, 4, 76, 127
1, 4488, Note_off_c, 2, 74, 127
1, 4540, Note_on_c, 2, 74, 127
1, 4549, Note_off_c, 4, 76, 127
1, 4563, Note_off_c, 7, 55, 127
1, 4563, Note_off_c, 4, 52, 127
1, 4611, Note_off_c, 2, 74, 127
1, 4626, Note_on_c, 0, 72, 127
1, 4771, Note_off_c, 0, 72, 127
1, 4774, Note_on_c, 2, 50, 127
1, 4774, Note_on_c, 10, 69, 127
1, 4922, Note_on_c, 2, 74, 127
1, 5070, Note_on_c, 5, 77, 127
1, 5658, Note_off_c, 2, 50, 127
1, 5661, Note_on_c, 2, 50, 127
1, 5953, Note_off_c, 2, 50, 127
1, 5956, Note_on_c, 5, 53, 127
1, 6018, Note_on_c, 4, 52, 127
1, 6027, Note_off_c, 5, 53, 127
1, 6079, Note_on_c, 5, 53, 127
1, 6088, Note_off_c, 4, 52, 127
1, 6391, Note_off_c, 5, 53, 127
1, 6399, Note_on_c, 5, 53, 127
1, 6544, Note_off_c, 5, 53, 127
1, 6547, Note_on_c, 5, 53, 127
1, 6645, Note_off_c, 5, 53, 127
1, 6651, Note_on_c, 4, 52, 127
1, 6719, Note_on_c, 5, 53, 127
1, 6722, Note_off_c, 4, 52, 127
1, 6787, Note_on_c, 4, 52, 127
1, 6790, Note_off_c, 5, 53, 127
1, 6855, Note_on_c, 5, 53, 127
1, 6858, Note_off_c, 4, 52, 127
1, 6923, Note_on_c, 4, 52, 127
1, 6926, Note_off_c, 5, 53, 127
1, 6994, Note_off_c, 4, 52, 127
1, 7009, Note_on_c, 2, 50, 127
1, 7127, Note_off_c, 10, 69, 127
1, 7129, Note_off_c, 2, 74, 127
1, 7134, Note_off_c, 2, 50, 127
1, 7136, Note_off_c, 5, 77, 127
1, 7139, Note_on_c, 10, 57, 127
1, 7139, Note_on_c, 10, 69, 127
1, 7210, Note_off_c, 10, 57, 127
1, 7213, Note_on_c, 7, 55, 127
1, 7284, Note_off_c, 7, 55, 127
1, 7287, Note_on_c, 10, 57, 127
1, 7324, Note_on_c, 0, 72, 127
1, 7509, Note_on_c, 4, 76, 127
1, 8187, Note_off_c, 10, 57, 127
1, 8204, Note_on_c, 11, 58, 127
1, 8284, Note_on_c, 10, 57, 127
1, 8318, Note_off_c, 10, 69, 127
1, 8349, Note_off_c, 11, 58, 127
1, 8355, Note_off_c, 10, 57, 127
1, 8366, Note_on_c, 7, 55, 127
1, 8437, Note_off_c, 7, 55, 127
1, 8445, Note_on_c, 10, 57, 127
1, 8860, Note_off_c, 0, 72, 127
1, 8874, Note_off_c, 4, 76, 127
1, 8885, Note_off_c, 10, 57, 127
1, 8888, Note_on_c, 10, 57, 127
1, 8950, Note_on_c, 7, 55, 127
1, 8955, Note_on_c, 0, 72, 127
1, 8960, Note_off_c, 10, 57, 127
1, 9012, Note_on_c, 10, 57, 127
1, 9021, Note_off_c, 7, 55, 127
1, 9073, Note_on_c, 7, 55, 127
1, 9082, Note_off_c, 10, 57, 127
1, 9134, Note_on_c, 10, 57, 127
1, 9143, Note_off_c, 7, 55, 127
1, 9205, Note_off_c, 10, 57, 127
1, 9208, Note_on_c, 5, 77, 127
1, 9220, Note_on_c, 7, 55, 127
1, 9345, Note_off_c, 7, 55, 127
1, 9356, Note_on_c, 5, 53, 127
1, 9356, Note_on_c, 10, 81, 127
1, 9499, Note_off_c, 5, 77, 127
1, 9501, Note_off_c, 10, 81, 127
1, 9501, Note_off_c, 5, 53, 127
1, 9504, Note_on_c, 4, 64, 127
1, 9504, Note_on_c, 0, 60, 127
1, 9504, Note_on_c, 10, 81, 127
1, 9538, Note_off_c, 0, 72, 127
1, 9575, Note_off_c, 10, 81, 127
1, 9578, Note_on_c, 7, 79, 127
1, 9649, Note_off_c, 7, 79, 127
1, 9652, Note_on_c, 10, 81, 127
1, 9723, Note_off_c, 10, 81, 127
1, 9726, Note_on_c, 7, 79, 127
1, 9797, Note_off_c, 7, 79, 127
1, 9800, Note_on_c, 10, 81, 127
1, 9871, Note_off_c, 10, 81, 127
1, 9874, Note_on_c, 7, 79, 127
1, 9945, Note_off_c, 7, 79, 127
1, 9948, Note_on_c, 5, 77, 127
1, 10093, Note_off_c, 5, 77, 127
1, 10096, Note_on_c, 7, 79, 127
1, 10156, Note_on_c, 5, 77, 127
1, 10167, Note_off_c, 7, 79, 127
1, 10216, Note_on_c, 7, 79, 127
1, 10227, Note_off_c, 5, 77, 127
1, 10509, Note_off_c, 7, 79, 127
1, 10540, Note_on_c, 10, 81, 127
1, 10685, Note_off_c, 10, 81, 127
1, 10685, Note_off_c, 0, 60, 127
1, 10685, Note_off_c, 4, 64, 127
1, 10688, Note_on_c, 2, 62, 127
1, 10688, Note_on_c, 7, 79, 127
1, 10840, Note_off_c, 7, 79, 127
1, 10842, Note_on_c, 5, 77, 127
1, 10913, Note_off_c, 5, 77, 127
1, 10913, Note_on_c, 7, 79, 127
1, 10971, Note_on_c, 5, 77, 127
1, 10983, Note_off_c, 7, 79, 127
1, 11029, Note_on_c, 7, 79, 127
1, 11041, Note_off_c, 5, 77, 127
1, 11087, Note_on_c, 5, 77, 127
1, 11099, Note_off_c, 7, 79, 127
1, 11145, Note_on_c, 7, 79, 127
1, 11157, Note_off_c, 5, 77, 127
1, 11203, Note_on_c, 5, 77, 127
1, 11215, Note_off_c, 7, 79, 127
1, 11277, Note_on_c, 12, 59, 127
1, 11569, Note_off_c, 5, 77, 127
1, 11572, Note_on_c, 7, 79, 127
1, 11864, Note_off_c, 7, 79, 127
1, 11864, Note_off_c, 12, 59, 127
1, 11864, Note_off_c, 2, 62, 127
1, 11867, Note_on_c, 0, 60, 127
1, 11867, Note_on_c, 5, 77, 127
1, 11935, Note_on_c, 4, 76, 127
1, 11938, Note_off_c, 5, 77, 127
1, 12003, Note_on_c, 5, 77, 127
1, 12006, Note_off_c, 4, 76, 127
1, 12071, Note_on_c, 4, 76, 127
1, 12074, Note_off_c, 5, 77, 127
1, 12289, Note_off_c, 4, 76, 127
1, 12311, Note_on_c, 0, 72, 127
1, 12456, Note_off_c, 0, 72, 127
1, 12459, Note_on_c, 2, 74, 127
1, 12530, Note_off_c, 2, 74, 127
1, 12544, Note_on_c, 0, 72, 127
1, 12615, Note_off_c, 0, 72, 127
1, 12629, Note_on_c, 2, 74, 127
1, 12752, Note_off_c, 0, 60, 127
1, 12755, Note_on_c, 11, 58, 127
1, 12903, Note_on_c, 4, 76, 127
1, 12921, Note_off_c, 2, 74, 127
1, 13047, Note_off_c, 4, 76, 127
1, 13047, Note_off_c, 11, 58, 127
1, 13050, Note_on_c, 11, 58, 127
1, 13050, Note_on_c, 4, 76, 127
1, 13119, Note_on_c, 10, 57, 127
1, 13141, Note_off_c, 11, 58, 127
1, 13189, Note_on_c, 11, 58, 127
1, 13211, Note_off_c, 10, 57, 127
1, 13259, Note_on_c, 10, 57, 127
1, 13296, Note_off_c, 11, 58, 127
1, 13328, Note_on_c, 5, 77, 127
1, 13343, Note_off_c, 4, 76, 127
1, 13385, Note_on_c, 4, 76, 127
1, 13399, Note_off_c, 5, 77, 127
1, 13454, Note_on_c, 5, 77, 127
1, 13456, Note_off_c, 4, 76, 127
1, 13490, Note_on_c, 5, 53, 127
1, 13538, Note_off_c, 10, 57, 127
1, 13626, Note_off_c, 5, 53, 127
1, 13643, Note_on_c, 7, 55, 127
1, 13918, Note_off_c, 5, 77, 127
1, 13938, Note_on_c, 3, 75, 127
1, 14083, Note_off_c, 7, 55, 127
1, 14086, Note_on_c, 10, 57, 127
1, 14231, Note_off_c, 10, 57, 127
1, 14231, Note_off_c, 3, 75, 127
1, 14234, Note_on_c, 11, 58, 127
1, 14234, Note_on_c, 3, 75, 127
1, 14346, Note_off_c, 3, 75, 127
1, 14364, Note_on_c, 2, 74, 127
1, 14435, Note_off_c, 2, 74, 127
1, 14438, Note_on_c, 3, 75, 127
1, 14509, Note_off_c, 3, 75, 127
1, 14512, Note_on_c, 2, 74, 127
1, 14674, Note_off_c, 11, 58, 127
1, 14677, Note_on_c, 11, 46, 127
1, 14822, Note_off_c, 11, 46, 127
1, 14825, Note_on_c, 10, 45, 127
1, 15120, Note_on_c, 3, 75, 127
1, 15129, Note_off_c, 2, 74, 127
1, 15264, Note_off_c, 10, 45, 127
1, 15267, Note_on_c, 7, 43, 127
1, 15412, Note_off_c, 7, 43, 127
1, 15412, Note_off_c, 3, 75, 127
1, 15415, Note_on_c, 6, 42, 127
1, 15415, Note_on_c, 3, 75, 127
1, 15483, Note_on_c, 2, 74, 127
1, 15486, Note_off_c, 3, 75, 127
1, 15551, Note_on_c, 3, 75, 127
1, 15554, Note_off_c, 2, 74, 127
1, 15619, Note_on_c, 2, 74, 127
1, 15622, Note_off_c, 3, 75, 127
1, 15859, Note_off_c, 2, 74, 127
1, 15859, Note_on_c, 0, 72, 127
1, 16004, Note_off_c, 0, 72, 127
1, 16007, Note_on_c, 0, 72, 127
1, 16090, Note_off_c, 0, 72, 127
1, 16092, Note_on_c, 11, 70, 127
1, 16175, Note_off_c, 11, 70, 127
1, 16177, Note_on_c, 0, 72, 127
1, 16246, Note_on_c, 11, 70, 127
1, 16260, Note_off_c, 0, 72, 127
1, 16300, Note_off_c, 6, 42, 127
1, 16303, Note_on_c, 2, 50, 127
1, 16438, Note_off_c, 11, 70, 127
1, 16450, Note_on_c, 10, 69, 127
1, 16595, Note_off_c, 10, 69, 127
1, 16595, Note_off_c, 2, 50, 127
1, 16598, Note_on_c, 7, 55, 127
1, 16598, Note_on_c, 10, 69, 127
1, 16890, Note_off_c, 10, 69, 127
1, 16893, Note_on_c, 11, 70, 127
1, 16955, Note_on_c, 10, 69, 127
1, 16964, Note_off_c, 11, 70, 127
1, 17016, Note_on_c, 11, 70, 127
1, 17025, Note_off_c, 10, 69, 127
1, 17037, Note_off_c, 7, 55, 127
1, 17040, Note_on_c, 5, 53, 127
1, 17185, Note_off_c, 5, 53, 127
1, 17188, Note_on_c, 5, 53, 127
1, 17333, Note_off_c, 5, 53, 127
1, 17336, Note_on_c, 4, 52, 127
1, 17407, Note_off_c, 4, 52, 127
1, 17410, Note_on_c, 5, 53, 127
1, 17473, Note_off_c, 11, 70, 127
1, 17481, Note_off_c, 5, 53, 127
1, 17484, Note_on_c, 7, 67, 127
1, 17484, Note_on_c, 4, 52, 127
1, 17573, Note_off_c, 4, 52, 127
1, 17573, Note_on_c, 2, 50, 127
1, 17756, Note_off_c, 2, 50, 127
1, 17776, Note_off_c, 7, 67, 127
1, 17779, Note_on_c, 4, 52, 127
1, 17779, Note_on_c, 0, 72, 127
1, 17841, Note_on_c, 11, 70, 127
1, 17850, Note_off_c, 0, 72, 127
1, 17902, Note_on_c, 0, 72, 127
1, 17911, Note_off_c, 11, 70, 127
1, 18222, Note_on_c, 11, 70, 127
1, 18224, Note_off_c, 0, 72, 127
1, 18367, Note_off_c, 11, 70, 127
1, 18370, Note_on_c, 11, 70, 127
1, 18456, Note_on_c, 10, 69, 127
1, 18462, Note_off_c, 11, 70, 127
1, 18524, Note_on_c, 11, 70, 127
1, 18527, Note_off_c, 10, 69, 127
1, 18592, Note_on_c, 10, 69, 127
1, 18595, Note_off_c, 11, 70, 127
1, 18660, Note_on_c, 11, 70, 127
1, 18663, Note_off_c, 10, 69, 127
1, 18663, Note_off_c, 4, 52, 127
1, 18666, Note_on_c, 0, 48, 127
1, 18728, Note_on_c, 10, 69, 127
1, 18731, Note_off_c, 11, 70, 127
1, 18809, Note_off_c, 10, 69, 127
1, 18814, Note_on_c, 7, 67, 127
1, 18959, Note_off_c, 7, 67, 127
1, 18959, Note_off_c, 0, 48, 127
1, 18962, Note_on_c, 5, 53, 127
1, 18962, Note_on_c, 7, 67, 127
1, 19254, Note_off_c, 7, 67, 127
1, 19257, Note_on_c, 10, 69, 127
1, 19309, Note_on_c, 7, 67, 127
1, 19327, Note_off_c, 10, 69, 127
1, 19361, Note_on_c, 10, 69, 127
1, 19379, Note_off_c, 7, 67, 127
1, 19401, Note_off_c, 5, 53, 127
1, 19404, Note_on_c, 7, 55, 127
1, 19549, Note_off_c, 7, 55, 127
1, 19552, Note_on_c, 7, 55, 127
1, 19614, Note_on_c, 5, 53, 127
1, 19623, Note_off_c, 7, 55, 127
1, 19675, Note_on_c, 7, 55, 127
1, 19684, Note_off_c, 5, 53, 127
1, 19736, Note_on_c, 5, 53, 127
1, 19745, Note_off_c, 7, 55, 127
1, 19797, Note_on_c, 7, 55, 127
1, 19800, Note_off_c, 10, 69, 127
1, 19806, Note_off_c, 5, 53, 127
1, 19846, Note_on_c, 0, 72, 127
1, 19858, Note_on_c, 5, 53, 127
1, 19867, Note_off_c, 7, 55, 127
1, 19950, Note_off_c, 5, 53, 127
1, 19958, Note_on_c, 4, 52, 127
1, 20138, Note_off_c, 0, 72, 127
1, 20141, Note_on_c, 2, 50, 127
1, 20141, Note_on_c, 2, 74, 127
1, 20158, Note_off_c, 4, 52, 127
1, 20212, Note_off_c, 2, 74, 127
1, 20215, Note_on_c, 4, 76, 127
1, 20286, Note_off_c, 4, 76, 127
1, 20289, Note_on_c, 5, 77, 127
1, 20341, Note_on_c, 4, 76, 127
1, 20359, Note_off_c, 5, 77, 127
1, 20393, Note_on_c, 5, 77, 127
1, 20411, Note_off_c, 4, 76, 127
1, 20562, Note_off_c, 5, 77, 127
1, 20584, Note_on_c, 4, 76, 127
1, 20729, Note_off_c, 4, 76, 127
1, 20729, Note_off_c, 2, 50, 127
1, 20732, Note_on_c, 4, 52, 127
1, 20732, Note_on_c, 4, 76, 127
1, 20803, Note_off_c, 4, 76, 127
1, 20806, Note_on_c, 2, 74, 127
1, 20877, Note_off_c, 2, 74, 127
1, 20880, Note_on_c, 4, 76, 127
1, 20951, Note_off_c, 4, 76, 127
1, 20954, Note_on_c, 2, 74, 127
1, 21025, Note_off_c, 2, 74, 127
1, 21028, Note_on_c, 4, 76, 127
1, 21099, Note_off_c, 4, 76, 127
1, 21102, Note_on_c, 2, 74, 127
1, 21173, Note_off_c, 2, 74, 127
1, 21173, Note_off_c, 4, 52, 127
1, 21176, Note_on_c, 5, 53, 127
1, 21176, Note_on_c, 0, 72, 127
1, 21321, Note_off_c, 0, 72, 127
1, 21321, Note_off_c, 5, 53, 127
1, 21324, Note_on_c, 7, 55, 127
1, 21324, Note_on_c, 0, 72, 127
1, 21542, Note_on_c, 12, 71, 127
1, 21556, Note_off_c, 0, 72, 127
1, 21611, Note_on_c, 0, 72, 127
1, 21613, Note_off_c, 12, 71, 127
1, 21681, Note_on_c, 12, 71, 127
1, 21683, Note_off_c, 0, 72, 127
1, 21752, Note_off_c, 12, 71, 127
1, 21764, Note_off_c, 7, 55, 127
1, 21767, Note_on_c, 5, 53, 127
1, 21767, Note_on_c, 7, 67, 127
1, 21912, Note_off_c, 7, 67, 127
1, 21912, Note_off_c, 5, 53, 127
1, 21915, Note_on_c, 4, 52, 127
1, 21915, Note_on_c, 0, 72, 127
1, 21986, Note_off_c, 0, 72, 127
1, 21989, Note_on_c, 12, 71, 127
1, 22060, Note_off_c, 12, 71, 127
1, 22063, Note_on_c, 0, 72, 127
1, 22355, Note_off_c, 0, 72, 127
1, 22355, Note_off_c, 4, 52, 127
1, 22358, Note_on_c, 0, 48, 127
1, 22358, Note_on_c, 2, 74, 127
1, 22503, Note_off_c, 2, 74, 127
1, 22503, Note_off_c, 0, 48, 127
1, 22506, Note_on_c, 7, 55, 127
1, 22506, Note_on_c, 4, 76, 127
1, 22728, Note_on_c, 2, 74, 127
1, 22750, Note_off_c, 4, 76, 127
1, 22799, Note_off_c, 2, 74, 127
1, 22802, Note_on_c, 4, 76, 127
1, 22873, Note_off_c, 4, 76, 127
1, 22876, Note_on_c, 2, 74, 127
1, 22947, Note_off_c, 2, 74, 127
1, 22950, Note_on_c, 4, 76, 127
1, 23021, Note_off_c, 4, 76, 127
1, 23024, Note_on_c, 2, 74, 127
1, 23095, Note_off_c, 2, 74, 127
1, 23095, Note_off_c, 7, 55, 127
1, 23098, Note_on_c, 7, 43, 127
1, 23098, Note_on_c, 4, 76, 127
1, 23169, Note_off_c, 4, 76, 127
1, 23172, Note_on_c, 2, 74, 127
1, 23243, Note_off_c, 2, 74, 127
1, 23246, Note_on_c, 4, 76, 127
1, 23317, Note_off_c, 4, 76, 127
1, 23320, Note_on_c, 2, 74, 127
1, 23408, Note_off_c, 2, 74, 127
1, 23410, Note_on_c, 0, 72, 127
1, 23682, Note_off_c, 0, 72, 127
1, 23687, Note_off_c, 7, 43, 127
1, 23690, Note_on_c, 0, 48, 127
1, 23690, Note_on_c, 0, 72, 127
1, 23752, Note_on_c, 12, 71, 127
1, 23761, Note_off_c, 0, 72, 127
1, 23813, Note_on_c, 0, 72, 127
1, 23822, Note_off_c, 12, 71, 127
1, 24280, Note_on_c, 4, 52, 127
1, 24548, Note_off_c, 0, 72, 127
1, 24576, Note_on_c, 11, 70, 127
1, 24868, Note_off_c, 11, 70, 127
1, 24868, Note_off_c, 4, 52, 127
1, 24871, Note_on_c, 5, 53, 127
1, 24871, Note_on_c, 10, 69, 127
1, 25211, Note_off_c, 10, 69, 127
1, 25213, Note_on_c, 11, 70, 127
1, 25296, Note_on_c, 10, 69, 127
1, 25313, Note_off_c, 11, 70, 127
1, 25379, Note_on_c, 11, 70, 127
1, 25396, Note_off_c, 10, 69, 127
1, 25462, Note_on_c, 10, 57, 127
1, 25462, Note_on_c, 0, 72, 127
1, 25479, Note_off_c, 11, 70, 127
1, 25902, Note_off_c, 0, 72, 127
1, 25905, Note_on_c, 5, 65, 127
1, 26040, Note_off_c, 10, 57, 127
1, 26050, Note_off_c, 5, 65, 127
1, 26050, Note_off_c, 5, 53, 127
1, 26053, Note_on_c, 7, 55, 127
1, 26053, Note_on_c, 4, 52, 127
1, 26053, Note_on_c, 0, 60, 127
1, 26053, Note_on_c, 11, 70, 127
1, 26493, Note_off_c, 11, 70, 127
1, 26496, Note_on_c, 4, 64, 127
1, 26631, Note_off_c, 4, 52, 127
1, 26631, Note_off_c, 7, 55, 127
1, 26641, Note_off_c, 4, 64, 127
1, 26641, Note_off_c, 0, 60, 127
1, 26644, Note_on_c, 5, 53, 127
1, 26644, Note_on_c, 10, 57, 127
1, 26644, Note_on_c, 5, 65, 127
1, 26730, Note_on_c, 4, 64, 127
1, 26732, Note_off_c, 5, 65, 127
1, 26801, Note_off_c, 4, 64, 127
1, 26813, Note_on_c, 5, 65, 127
1, 27085, Note_off_c, 5, 65, 127
1, 27087, Note_on_c, 7, 67, 127
1, 27222, Note_off_c, 10, 57, 127
1, 27222, Note_off_c, 5, 53, 127
1, 27232, Note_off_c, 7, 67, 127
1, 27235, Note_on_c, 0, 60, 127
1, 27235, Note_on_c, 7, 55, 127
1, 27235, Note_on_c, 4, 52, 127
1, 27235, Note_on_c, 5, 65, 127
1, 27393, Note_off_c, 5, 65, 127
1, 27395, Note_on_c, 4, 64, 127
1, 27457, Note_on_c, 5, 65, 127
1, 27466, Note_off_c, 4, 64, 127
1, 27518, Note_on_c, 4, 64, 127
1, 27527, Note_off_c, 5, 65, 127
1, 27579, Note_on_c, 5, 65, 127
1, 27588, Note_off_c, 4, 64, 127
1, 27640, Note_on_c, 4, 64, 127
1, 27649, Note_off_c, 5, 65, 127
1, 27701, Note_on_c, 5, 65, 127
1, 27710, Note_off_c, 4, 64, 127
1, 27762, Note_on_c, 4, 64, 127
1, 27771, Note_off_c, 5, 65, 127
1, 27813, Note_off_c, 4, 52, 127
1, 27813, Note_off_c, 7, 55, 127
1, 27820, Note_off_c, 0, 60, 127
1, 27823, Note_on_c, 2, 50, 127
1, 27823, Note_on_c, 5, 53, 127
1, 27823, Note_on_c, 12, 59, 127
1, 27829, Note_off_c, 0, 48, 127
1, 27838, Note_on_c, 5, 65, 127
1, 27847, Note_off_c, 4, 64, 127
1, 27915, Note_on_c, 4, 64, 127
1, 27926, Note_off_c, 5, 65, 127
1, 28111, Note_off_c, 4, 64, 127
1, 28129, Note_on_c, 5, 65, 127
1, 28411, Note_off_c, 12, 59, 127
1, 28421, Note_off_c, 5, 53, 127
1, 28421, Note_off_c, 2, 50, 127
1, 28440, Note_off_c, 5, 65, 127
1, 28446, Note_on_c, 0, 48, 127
1, 28446, Note_on_c, 0, 60, 127
1, 28446, Note_on_c, 4, 64, 127
1, 28446, Note_on_c, 7, 67, 127
1, 28948, Note_off_c, 7, 67, 127
1, 28948, Note_off_c, 4, 64, 127
1, 28948, Note_off_c, 0, 60, 127
1, 28948, Note_off_c, 0, 48, 127
1, 28998, Note_on_c, 7, 79, 127
1, 29295, Note_off_c, 7, 79, 127
1, 29315, Note_on_c, 7, 79, 127
1, 29454, Note_off_c, 7, 79, 127
1, 29457, Note_on_c, 5, 77, 127
1, 29596, Note_off_c, 5, 77, 127
1, 29599, Note_on_c, 7, 79, 127
1, 29667, Note_off_c, 7, 79, 127
1, 29670, Note_on_c, 5, 77, 127
1, 29738, Note_off_c, 5, 77, 127
1, 29741, Note_on_c, 7, 79, 127
1, 29809, Note_off_c, 7, 79, 127
1, 29812, Note_on_c, 10, 81, 127
1, 29880, Note_off_c, 10, 81, 127
1, 29883, Note_on_c, 7, 79, 127
1, 30022, Note_off_c, 7, 79, 127
1, 30025, Note_on_c, 5, 77, 127
1, 30164, Note_off_c, 5, 77, 127
1, 30167, Note_on_c, 5, 77, 127
1, 30235, Note_off_c, 5, 77, 127
1, 30238, Note_on_c, 4, 76, 127
1, 30306, Note_off_c, 4, 76, 127
1, 30309, Note_on_c, 2, 74, 127
1, 30448, Note_off_c, 2, 74, 127
1, 30451, Note_on_c, 4, 76, 127
1, 30590, Note_off_c, 4, 76, 127
1, 30593, Note_on_c, 5, 77, 127
1, 30732, Note_off_c, 5, 77, 127
1, 30735, Note_on_c, 4, 76, 127
1, 30874, Note_off_c, 4, 76, 127
1, 30877, Note_on_c, 5, 77, 127
1, 31016, Note_off_c, 5, 77, 127
1, 31019, Note_on_c, 7, 79, 127
1, 31158, Note_off_c, 7, 79, 127
1, 31161, Note_on_c, 5, 77, 127
1, 31300, Note_off_c, 5, 77, 127
1, 31303, Note_on_c, 7, 79, 127
1, 31442, Note_off_c, 7, 79, 127
1, 31445, Note_on_c, 10, 81, 127
1, 31584, Note_off_c, 10, 81, 127
1, 31587, Note_on_c, 7, 79, 127
1, 31726, Note_off_c, 7, 79, 127
1, 31729, Note_on_c, 5, 77, 127
1, 31868, Note_off_c, 5, 77, 127
1, 31871, Note_on_c, 5, 77, 127
1, 31939, Note_off_c, 5, 77, 127
1, 31942, Note_on_c, 4, 76, 127
1, 32010, Note_off_c, 4, 76, 127
1, 32013, Note_on_c, 5, 77, 127
1, 32081, Note_off_c, 5, 77, 127
1, 32084, Note_on_c, 4, 76, 127
1, 32152, Note_off_c, 4, 76, 127
1, 32155, Note_on_c, 5, 77, 127
1, 32223, Note_off_c, 5, 77, 127
1, 32226, Note_on_c, 4, 76, 127
1, 32294, Note_off_c, 4, 76, 127
1, 32297, Note_on_c, 2, 74, 127
1, 32436, Note_off_c, 2, 74, 127
1, 32439, Note_on_c, 4, 76, 127
1, 32439, Note_on_c, 0, 72, 127
1, 32578, Note_off_c, 4, 76, 127
1, 32581, Note_on_c, 5, 77, 127
1, 32716, Note_off_c, 0, 72, 127
1, 32720, Note_off_c, 5, 77, 127
1, 32723, Note_on_c, 4, 76, 127
1, 32723, Note_on_c, 0, 72, 127
1, 32862, Note_off_c, 0, 72, 127
1, 32865, Note_on_c, 11, 70, 127
1, 33000, Note_off_c, 4, 76, 127
1, 33004, Note_off_c, 11, 70, 127
1, 33007, Note_on_c, 0, 72, 127
1, 33007, Note_on_c, 10, 81, 127
1, 33146, Note_off_c, 0, 72, 127
1, 33149, Note_on_c, 2, 74, 127
1, 33284, Note_off_c, 10, 81, 127
1, 33288, Note_off_c, 2, 74, 127
1, 33291, Note_on_c, 4, 76, 127
1, 33291, Note_on_c, 0, 72, 127
1, 33430, Note_off_c, 0, 72, 127
1, 33433, Note_on_c, 11, 70, 127
1, 33568, Note_off_c, 4, 76, 127
1, 33572, Note_off_c, 11, 70, 127
1, 33575, Note_on_c, 5, 77, 127
1, 33575, Note_on_c, 10, 69, 127
1, 33714, Note_off_c, 10, 69, 127
1, 33717, Note_on_c, 7, 67, 127
1, 33852, Note_off_c, 5, 77, 127
1, 33856, Note_off_c, 7, 67, 127
1, 33859, Note_on_c, 10, 81, 127
1, 33859, Note_on_c, 10, 69, 127
1, 33998, Note_off_c, 10, 69, 127
1, 34001, Note_on_c, 11, 70, 127
1, 34136, Note_off_c, 10, 81, 127
1, 34140, Note_off_c, 11, 70, 127
1, 34143, Note_on_c, 5, 77, 127
1, 34143, Note_on_c, 10, 69, 127
1, 34282, Note_off_c, 10, 69, 127
1, 34285, Note_on_c, 11, 70, 127
1, 34420, Note_off_c, 5, 77, 127
1, 34424, Note_off_c, 11, 70, 127
1, 34427, Note_on_c, 0, 72, 127
1, 34427, Note_on_c, 4, 76, 127
1, 34566, Note_off_c, 0, 72, 127
1, 34569, Note_on_c, 11, 70, 127
1, 34704, Note_off_c, 4, 76, 127
1, 34708, Note_off_c, 11, 70, 127
1, 34711, Note_on_c, 0, 72, 127
1, 34711, Note_on_c, 10, 81, 127
1, 34850, Note_off_c, 0, 72, 127
1, 34853, Note_on_c, 2, 74, 127
1, 34988, Note_off_c, 10, 81, 127
1, 34992, Note_off_c, 2, 74, 127
1, 34995, Note_on_c, 4, 76, 127
1, 34995, Note_on_c, 0, 72, 127
1, 35134, Note_off_c, 0, 72, 127
1, 35137, Note_on_c, 11, 70, 127
1, 35272, Note_off_c, 4, 76, 127
1, 35276, Note_off_c, 11, 70, 127
1, 35279, Note_on_c, 10, 69, 127
1, 35279, Note_on_c, 5, 77, 127
1, 35556, Note_off_c, 5, 77, 127
1, 35563, Note_on_c, 0, 72, 127
1, 35704, Note_off_c, 10, 69, 127
1, 35705, Note_on_c, 7, 67, 127
1, 35840, Note_off_c, 0, 72, 127
1, 35844, Note_off_c, 7, 67, 127
1, 35847, Note_on_c, 10, 69, 127
1, 35847, Note_on_c, 5, 77, 127
1, 35986, Note_off_c, 10, 69, 127
1, 35989, Note_on_c, 11, 70, 127
1, 36124, Note_off_c, 5, 77, 127
1, 36128, Note_off_c, 11, 70, 127
1, 36131, Note_on_c, 4, 76, 127
1, 36131, Note_on_c, 0, 72, 127
1, 36408, Note_off_c, 0, 72, 127
1, 36415, Note_on_c, 7, 67, 127
1, 36544, Note_off_c, 4, 76, 127
1, 36557, Note_on_c, 2, 74, 127
1, 36692, Note_off_c, 7, 67, 127
1, 36696, Note_off_c, 2, 74, 127
1, 36699, Note_on_c, 4, 76, 127
1, 36699, Note_on_c, 0, 72, 127
1, 36699, Note_on_c, 7, 67, 127
1, 36838, Note_off_c, 4, 76, 127
1, 36841, Note_on_c, 5, 77, 127
1, 36976, Note_off_c, 7, 67, 127
1, 36976, Note_off_c, 0, 72, 127
1, 36980, Note_off_c, 5, 77, 127
1, 36983, Note_on_c, 7, 79, 127
1, 36983, Note_on_c, 12, 71, 127
1, 36983, Note_on_c, 7, 67, 127
1, 37122, Note_off_c, 7, 67, 127
1, 37125, Note_on_c, 5, 65, 127
1, 37260, Note_off_c, 12, 71, 127
1, 37264, Note_off_c, 5, 65, 127
1, 37267, Note_on_c, 4, 76, 127
1, 37267, Note_on_c, 7, 67, 127
1, 37396, Note_off_c, 7, 79, 127
1, 37406, Note_off_c, 7, 67, 127
1, 37409, Note_on_c, 10, 69, 127
1, 37544, Note_off_c, 4, 76, 127
1, 37548, Note_off_c, 10, 69, 127
1, 37551, Note_on_c, 12, 71, 127
1, 37551, Note_on_c, 7, 67, 127
1, 37690, Note_off_c, 7, 67, 127
1, 37693, Note_on_c, 5, 65, 127
1, 37828, Note_off_c, 12, 71, 127
1, 37832, Note_off_c, 5, 65, 127
1, 37835, Note_on_c, 0, 72, 127
1, 37835, Note_on_c, 7, 79, 127
1, 37835, Note_on_c, 4, 64, 127
1, 37974, Note_off_c, 4, 64, 127
1, 37977, Note_on_c, 2, 62, 127
1, 38112, Note_off_c, 0, 72, 127
1, 38116, Note_off_c, 2, 62, 127
1, 38119, Note_on_c, 4, 76, 127
1, 38119, Note_on_c, 4, 64, 127
1, 38248, Note_off_c, 7, 79, 127
1, 38258, Note_off_c, 4, 64, 127
1, 38261, Note_on_c, 5, 65, 127
1, 38396, Note_off_c, 4, 76, 127
1, 38400, Note_off_c, 5, 65, 127
1, 38403, Note_on_c, 0, 72, 127
1, 38403, Note_on_c, 4, 64, 127
1, 38542, Note_off_c, 4, 64, 127
1, 38545, Note_on_c, 5, 65, 127
1, 38680, Note_off_c, 0, 72, 127
1, 38684, Note_off_c, 5, 65, 127
1, 38687, Note_on_c, 12, 71, 127
1, 38687, Note_on_c, 7, 79, 127
1, 38687, Note_on_c, 7, 67, 127
1, 38826, Note_off_c, 7, 67, 127
1, 38829, Note_on_c, 5, 65, 127
1, 38964, Note_off_c, 12, 71, 127
1, 38968, Note_off_c, 5, 65, 127
1, 38971, Note_on_c, 4, 76, 127
1, 38971, Note_on_c, 7, 67, 127
1, 39100, Note_off_c, 7, 79, 127
1, 39110, Note_off_c, 7, 67, 127
1, 39113, Note_on_c, 10, 69, 127
1, 39248, Note_off_c, 4, 76, 127
1, 39252, Note_off_c, 10, 69, 127
1, 39255, Note_on_c, 12, 71, 127
1, 39255, Note_on_c, 7, 67, 127
1, 39394, Note_off_c, 7, 67, 127
1, 39397, Note_on_c, 5, 65, 127
1, 39532, Note_off_c, 12, 71, 127
1, 39536, Note_off_c, 5, 65, 127
1, 39539, Note_on_c, 7, 79, 127
1, 39539, Note_on_c, 0, 72, 127
1, 39539, Note_on_c, 4, 64, 127
1, 39678, Note_off_c, 0, 72, 127
1, 39681, Note_on_c, 11, 70, 127
1, 39820, Note_off_c, 11, 70, 127
1, 39823, Note_on_c, 0, 72, 127
1, 39952, Note_off_c, 7, 79, 127
1, 39962, Note_off_c, 0, 72, 127
1, 39962, Note_off_c, 4, 64, 127
1, 39965, Note_on_c, 2, 74, 127
1, 39965, Note_on_c, 0, 60, 127
1, 40104, Note_off_c, 0, 60, 127
1, 40104, Note_off_c, 2, 74, 127
1, 40107, Note_on_c, 0, 72, 127
1, 40107, Note_on_c, 2, 62, 127
1, 40246, Note_off_c, 2, 62, 127
1, 40246, Note_off_c, 0, 72, 127
1, 40249, Note_on_c, 11, 70, 127
1, 40249, Note_on_c, 4, 64, 127
1, 40388, Note_off_c, 4, 64, 127
1, 40388, Note_off_c, 11, 70, 127
1, 40391, Note_on_c, 0, 72, 127
1, 40391, Note_on_c, 10, 69, 127
1, 40391, Note_on_c, 5, 65, 127
1, 40530, Note_off_c, 10, 69, 127
1, 40530, Note_off_c, 0, 72, 127
1, 40533, Note_on_c, 7, 67, 127
1, 40668, Note_off_c, 5, 65, 127
1, 40672, Note_off_c, 7, 67, 127
1, 40675, Note_on_c, 10, 69, 127
1, 40675, Note_on_c, 0, 60, 127
1, 40814, Note_off_c, 10, 69, 127
1, 40817, Note_on_c, 11, 70, 127
1, 40952, Note_off_c, 0, 60, 127
1, 40956, Note_off_c, 11, 70, 127
1, 40959, Note_on_c, 10, 69, 127
1, 40959, Note_on_c, 5, 65, 127
1, 41098, Note_off_c, 10, 69, 127
1, 41101, Note_on_c, 11, 70, 127
1, 41236, Note_off_c, 5, 65, 127
1, 41240, Note_off_c, 11, 70, 127
1, 41243, Note_on_c, 7, 79, 127
1, 41243, Note_on_c, 0, 72, 127
1, 41243, Note_on_c, 4, 64, 127
1, 41382, Note_off_c, 0, 72, 127
1, 41385, Note_on_c, 11, 70, 127
1, 41520, Note_off_c, 4, 64, 127
1, 41520, Note_off_c, 7, 79, 127
1, 41524, Note_off_c, 11, 70, 127
1, 41527, Note_on_c, 0, 72, 127
1, 41527, Note_on_c, 0, 60, 127
1, 41666, Note_off_c, 0, 72, 127
1, 41669, Note_on_c, 2, 74, 127
1, 41804, Note_off_c, 0, 60, 127
1, 41808, Note_off_c, 2, 74, 127
1, 41811, Note_on_c, 0, 72, 127
1, 41811, Note_on_c, 4, 64, 127
1, 41950, Note_off_c, 0, 72, 127
1, 41953, Note_on_c, 11, 70, 127
1, 42088, Note_off_c, 4, 64, 127
1, 42092, Note_off_c, 11, 70, 127
1, 42095, Note_on_c, 10, 69, 127
1, 42095, Note_on_c, 0, 72, 127
1, 42095, Note_on_c, 5, 65, 127
1, 42372, Note_off_c, 5, 65, 127
1, 42379, Note_on_c, 0, 60, 127
1, 42518, Note_off_c, 0, 72, 127
1, 42518, Note_off_c, 10, 69, 127
1, 42521, Note_on_c, 7, 67, 127
1, 42656, Note_off_c, 0, 60, 127
1, 42660, Note_off_c, 7, 67, 127
1, 42663, Note_on_c, 10, 69, 127
1, 42663, Note_on_c, 5, 65, 127
1, 42663, Note_on_c, 0, 60, 127
1, 42802, Note_off_c, 10, 69, 127
1, 42805, Note_on_c, 11, 70, 127
1, 42940, Note_off_c, 0, 60, 127
1, 42940, Note_off_c, 5, 65, 127
1, 42944, Note_off_c, 11, 70, 127
1, 42947, Note_on_c, 4, 64, 127
1, 42947, Note_on_c, 7, 67, 127
1, 42947, Note_on_c, 0, 60, 127
1, 43086, Note_off_c, 0, 60, 127
1, 43089, Note_on_c, 11, 58, 127
1, 43224, Note_off_c, 7, 67, 127
1, 43224, Note_off_c, 4, 64, 127
1, 43228, Note_off_c, 11, 58, 127
1, 43231, Note_on_c, 7, 67, 127
1, 43231, Note_on_c, 0, 72, 127
1, 43231, Note_on_c, 0, 60, 127
1, 43370, Note_off_c, 0, 60, 127
1, 43373, Note_on_c, 2, 62, 127
1, 43508, Note_off_c, 0, 72, 127
1, 43508, Note_off_c, 7, 67, 127
1, 43512, Note_off_c, 2, 62, 127
1, 43515, Note_on_c, 7, 67, 127
1, 43515, Note_on_c, 4, 64, 127
1, 43515, Note_on_c, 0, 60, 127
1, 43654, Note_off_c, 0, 60, 127
1, 43657, Note_on_c, 11, 58, 127
1, 43792, Note_off_c, 4, 64, 127
1, 43792, Note_off_c, 7, 67, 127
1, 43796, Note_off_c, 11, 58, 127
1, 43799, Note_on_c, 0, 60, 127
1, 43799, Note_on_c, 5, 65, 127
1, 43799, Note_on_c, 0, 72, 127
1, 43799, Note_on_c, 10, 57, 127
1, 43938, Note_off_c, 10, 57, 127
1, 43941, Note_on_c, 7, 55, 127
1, 44076, Note_off_c, 5, 65, 127
1, 44076, Note_off_c, 0, 60, 127
1, 44080, Note_off_c, 7, 55, 127
1, 44083, Note_on_c, 5, 65, 127
1, 44083, Note_on_c, 10, 69, 127
1, 44083, Note_on_c, 10, 57, 127
1, 44222, Note_off_c, 10, 57, 127
1, 44225, Note_on_c, 11, 58, 127
1, 44360, Note_off_c, 10, 69, 127
1, 44360, Note_off_c, 5, 65, 127
1, 44364, Note_off_c, 11, 58, 127
1, 44367, Note_on_c, 0, 60, 127
1, 44367, Note_on_c, 5, 65, 127
1, 44367, Note_on_c, 10, 57, 127
1, 44506, Note_off_c, 10, 57, 127
1, 44509, Note_on_c, 11, 58, 127
1, 44644, Note_off_c, 5, 65, 127
1, 44644, Note_off_c, 0, 60, 127
1, 44648, Note_off_c, 11, 58, 127
1, 44648, Note_off_c, 0, 72, 127
1, 44651, Note_on_c, 7, 67, 127
1, 44651, Note_on_c, 4, 64, 127
1, 44651, Note_on_c, 0, 60, 127
1, 44790, Note_off_c, 0, 60, 127
1, 44793, Note_on_c, 11, 58, 127
1, 44928, Note_off_c, 4, 64, 127
1, 44928, Note_off_c, 7, 67, 127
1, 44932, Note_off_c, 11, 58, 127
1, 44935, Note_on_c, 7, 67, 127
1, 44935, Note_on_c, 0, 72, 127
1, 44935, Note_on_c, 0, 60, 127
1, 45074, Note_off_c, 0, 60, 127
1, 45077, Note_on_c, 2, 62, 127
1, 45212, Note_off_c, 0, 72, 127
1, 45212, Note_off_c, 7, 67, 127
1, 45216, Note_off_c, 2, 62, 127
1, 45219, Note_on_c, 4, 64, 127
1, 45219, Note_on_c, 7, 67, 127
1, 45219, Note_on_c, 0, 60, 127
1, 45358, Note_off_c, 0, 60, 127
1, 45361, Note_on_c, 11, 58, 127
1, 45496, Note_off_c, 7, 67, 127
1, 45496, Note_off_c, 4, 64, 127
1, 45500, Note_off_c, 11, 58, 127
1, 45503, Note_on_c, 5, 65, 127
1, 45503, Note_on_c, 10, 69, 127
1, 45503, Note_on_c, 10, 57, 127
1, 45642, Note_off_c, 10, 57, 127
1, 45645, Note_on_c, 7, 55, 127
1, 45784, Note_off_c, 7, 55, 127
1, 45787, Note_on_c, 0, 72, 127
1, 45787, Note_on_c, 10, 57, 127
1, 45926, Note_off_c, 10, 57, 127
1, 45929, Note_on_c, 11, 58, 127
1, 46064, Note_off_c, 0, 72, 127
1, 46068, Note_off_c, 11, 58, 127
1, 46071, Note_on_c, 5, 77, 127
1, 46071, Note_on_c, 10, 57, 127
1, 46210, Note_off_c, 10, 57, 127
1, 46213, Note_on_c, 11, 58, 127
1, 46352, Note_off_c, 11, 58, 127
1, 46352, Note_off_c, 10, 69, 127
1, 46352, Note_off_c, 5, 65, 127
1, 46355, Note_on_c, 7, 67, 127
1, 46355, Note_on_c, 11, 70, 127
1, 46355, Note_on_c, 7, 55, 127
1, 46494, Note_off_c, 7, 55, 127
1, 46497, Note_on_c, 5, 53, 127
1, 46632, Note_off_c, 5, 77, 127
1, 46636, Note_off_c, 5, 53, 127
1, 46639, Note_on_c, 3, 75, 127
1, 46639, Note_on_c, 7, 55, 127
1, 46778, Note_off_c, 7, 55, 127
1, 46781, Note_on_c, 10, 57, 127
1, 46920, Note_off_c, 10, 57, 127
1, 46923, Note_on_c, 7, 55, 127
1, 47062, Note_off_c, 7, 55, 127
1, 47065, Note_on_c, 10, 57, 127
1, 47204, Note_off_c, 10, 57, 127
1, 47204, Note_off_c, 11, 70, 127
1, 47204, Note_off_c, 7, 67, 127
1, 47207, Note_on_c, 10, 69, 127
1, 47207, Note_on_c, 5, 53, 127
1, 47484, Note_off_c, 10, 69, 127
1, 47488, Note_off_c, 3, 75, 127
1, 47491, Note_on_c, 2, 74, 127
1, 47491, Note_on_c, 11, 70, 127
1, 47630, Note_off_c, 2, 74, 127
1, 47633, Note_on_c, 0, 72, 127
1, 47772, Note_off_c, 0, 72, 127
1, 47775, Note_on_c, 2, 74, 127
1, 47914, Note_off_c, 2, 74, 127
1, 47917, Note_on_c, 3, 75, 127
1, 48052, Note_off_c, 11, 70, 127
1, 48056, Note_off_c, 3, 75, 127
1, 48059, Note_on_c, 0, 72, 127
1, 48059, Note_on_c, 10, 69, 127
1, 48198, Note_off_c, 10, 69, 127
1, 48198, Note_off_c, 5, 53, 127
1, 48201, Note_on_c, 7, 67, 127
1, 48201, Note_on_c, 3, 51, 127
1, 48336, Note_off_c, 0, 72, 127
1, 48340, Note_off_c, 3, 51, 127
1, 48340, Note_off_c, 7, 67, 127
1, 48343, Note_on_c, 2, 74, 127
1, 48343, Note_on_c, 10, 69, 127
1, 48343, Note_on_c, 5, 53, 127
1, 48482, Note_off_c, 10, 69, 127
1, 48485, Note_on_c, 11, 70, 127
1, 48608, Note_off_c, 5, 53, 127
1, 48624, Note_off_c, 11, 70, 127
1, 48627, Note_on_c, 10, 69, 127
1, 48627, Note_on_c, 11, 46, 127
1, 48766, Note_off_c, 10, 69, 127
1, 48769, Note_on_c, 11, 70, 127
1, 48904, Note_off_c, 11, 46, 127
1, 48908, Note_off_c, 11, 70, 127
1, 48911, Note_on_c, 7, 67, 127
1, 48911, Note_on_c, 3, 51, 127
1, 49050, Note_off_c, 3, 51, 127
1, 49050, Note_off_c, 7, 67, 127
1, 49053, Note_on_c, 5, 65, 127
1, 49053, Note_on_c, 2, 50, 127
1, 49192, Note_off_c, 2, 50, 127
1, 49192, Note_off_c, 5, 65, 127
1, 49192, Note_off_c, 2, 74, 127
1, 49195, Note_on_c, 7, 67, 127
1, 49195, Note_on_c, 0, 72, 127
1, 49195, Note_on_c, 3, 51, 127
1, 49334, Note_off_c, 7, 67, 127
1, 49337, Note_on_c, 10, 69, 127
1, 49460, Note_off_c, 3, 51, 127
1, 49476, Note_off_c, 10, 69, 127
1, 49479, Note_on_c, 7, 67, 127
1, 49479, Note_on_c, 10, 45, 127
1, 49618, Note_off_c, 7, 67, 127
1, 49621, Note_on_c, 10, 69, 127
1, 49756, Note_off_c, 10, 45, 127
1, 49760, Note_off_c, 10, 69, 127
1, 49763, Note_on_c, 5, 65, 127
1, 49763, Note_on_c, 2, 50, 127
1, 49902, Note_off_c, 2, 50, 127
1, 49902, Note_off_c, 5, 65, 127
1, 49905, Note_on_c, 3, 63, 127
1, 49905, Note_on_c, 0, 48, 127
1, 50044, Note_off_c, 0, 48, 127
1, 50044, Note_off_c, 3, 63, 127
1, 50044, Note_off_c, 0, 72, 127
1, 50047, Note_on_c, 11, 70, 127
1, 50047, Note_on_c, 5, 65, 127
1, 50047, Note_on_c, 2, 50, 127
1, 50186, Note_off_c, 5, 65, 127
1, 50189, Note_on_c, 7, 67, 127
1, 50312, Note_off_c, 2, 50, 127
1, 50328, Note_off_c, 7, 67, 127
1, 50331, Note_on_c, 5, 65, 127
1, 50331, Note_on_c, 7, 43, 127
1, 50470, Note_off_c, 5, 65, 127
1, 50473, Note_on_c, 7, 67, 127
1, 50608, Note_off_c, 7, 43, 127
1, 50612, Note_off_c, 7, 67, 127
1, 50615, Note_on_c, 3, 63, 127
1, 50615, Note_on_c, 0, 48, 127
1, 50754, Note_off_c, 0, 48, 127
1, 50754, Note_off_c, 3, 63, 127
1, 50757, Note_on_c, 2, 62, 127
1, 50757, Note_on_c, 11, 46, 127
1, 50896, Note_off_c, 11, 46, 127
1, 50896, Note_off_c, 2, 62, 127
1, 50896, Note_off_c, 11, 70, 127
1, 50899, Note_on_c, 3, 63, 127
1, 50899, Note_on_c, 10, 69, 127
1, 50899, Note_on_c, 0, 48, 127
1, 51038, Note_off_c, 3, 63, 127
1, 51041, Note_on_c, 5, 65, 127
1, 51164, Note_off_c, 0, 48, 127
1, 51180, Note_off_c, 5, 65, 127
1, 51183, Note_on_c, 3, 63, 127
1, 51183, Note_on_c, 5, 41, 127
1, 51322, Note_off_c, 3, 63, 127
1, 51325, Note_on_c, 5, 65, 127
1, 51460, Note_off_c, 5, 41, 127
1, 51460, Note_off_c, 10, 69, 127
1, 51464, Note_off_c, 5, 65, 127
1, 51467, Note_on_c, 2, 62, 127
1, 51467, Note_on_c, 11, 70, 127
1, 51467, Note_on_c, 11, 46, 127
1, 51606, Note_off_c, 11, 46, 127
1, 51609, Note_on_c, 10, 45, 127
1, 51748, Note_off_c, 10, 45, 127
1, 51751, Note_on_c, 11, 46, 127
1, 51880, Note_off_c, 11, 70, 127
1, 51890, Note_off_c, 11, 46, 127
1, 51893, Note_on_c, 0, 48, 127
1, 52017, Note_off_c, 2, 62, 127
1, 52032, Note_off_c, 0, 48, 127
1, 52035, Note_on_c, 2, 50, 127
1, 52174, Note_off_c, 2, 50, 127
1, 52176, Note_on_c, 4, 52, 127
1, 52315, Note_off_c, 4, 52, 127
1, 52318, Note_on_c, 5, 65, 127
1, 52318, Note_on_c, 5, 53, 127
1, 52457, Note_off_c, 5, 65, 127
1, 52460, Note_on_c, 4, 64, 127
1, 52599, Note_off_c, 4, 64, 127
1, 52602, Note_on_c, 5, 65, 127
1, 52741, Note_off_c, 5, 65, 127
1, 52744, Note_on_c, 7, 67, 127
1, 52883, Note_off_c, 7, 67, 127
1, 52883, Note_off_c, 5, 53, 127
1, 52886, Note_on_c, 10, 69, 127
1, 52886, Note_on_c, 5, 65, 127
1, 53025, Note_off_c, 10, 69, 127
1, 53028, Note_on_c, 11, 70, 127
1, 53167, Note_off_c, 11, 70, 127
1, 53170, Note_on_c, 7, 67, 127
1, 53309, Note_off_c, 5, 65, 127
1, 53312, Note_on_c, 5, 65, 127
1, 53447, Note_off_c, 7, 67, 127
1, 53451, Note_off_c, 5, 65, 127
1, 53454, Note_on_c, 0, 72, 127
1, 53454, Note_on_c, 4, 64, 127
1, 53593, Note_off_c, 4, 64, 127
1, 53596, Note_on_c, 2, 62, 127
1, 53731, Note_off_c, 0, 72, 127
1, 53735, Note_off_c, 2, 62, 127
1, 53738, Note_on_c, 7, 67, 127
1, 53738, Note_on_c, 4, 64, 127
1, 53877, Note_off_c, 4, 64, 127
1, 53880, Note_on_c, 0, 60, 127
1, 54015, Note_off_c, 7, 67, 127
1, 54019, Note_off_c, 0, 60, 127
1, 54022, Note_on_c, 10, 69, 127
1, 54022, Note_on_c, 5, 65, 127
1, 54161, Note_off_c, 5, 65, 127
1, 54164, Note_on_c, 4, 64, 127
1, 54299, Note_off_c, 10, 69, 127
1, 54303, Note_off_c, 4, 64, 127
1, 54306, Note_on_c, 0, 72, 127
1, 54306, Note_on_c, 5, 65, 127
1, 54445, Note_off_c, 5, 65, 127
1, 54448, Note_on_c, 7, 67, 127
1, 54583, Note_off_c, 0, 72, 127
1, 54587, Note_off_c, 7, 67, 127
1, 54590, Note_on_c, 0, 72, 127
1, 54590, Note_on_c, 10, 69, 127
1, 54590, Note_on_c, 5, 65, 127
1, 54729, Note_off_c, 5, 65, 127
1, 54732, Note_on_c, 7, 67, 127
1, 54867, Note_off_c, 10, 69, 127
1, 54867, Note_off_c, 0, 72, 127
1, 54871, Note_off_c, 7, 67, 127
1, 54874, Note_on_c, 7, 67, 127
1, 54874, Note_on_c, 0, 72, 127
1, 54874, Note_on_c, 4, 64, 127
1, 55013, Note_off_c, 0, 72, 127
1, 55016, Note_on_c, 11, 70, 127
1, 55151, Note_off_c, 4, 64, 127
1, 55155, Note_off_c, 11, 70, 127
1, 55158, Note_on_c, 0, 72, 127
1, 55158, Note_on_c, 0, 60, 127
1, 55287, Note_off_c, 7, 67, 127
1, 55297, Note_off_c, 0, 72, 127
1, 55300, Note_on_c, 2, 74, 127
1, 55435, Note_off_c, 0, 60, 127
1, 55439, Note_off_c, 2, 74, 127
1, 55442, Note_on_c, 0, 72, 127
1, 55442, Note_on_c, 4, 64, 127
1, 55581, Note_off_c, 0, 72, 127
1, 55584, Note_on_c, 11, 70, 127
1, 55719, Note_off_c, 4, 64, 127
1, 55723, Note_off_c, 11, 70, 127
1, 55726, Note_on_c, 10, 69, 127
1, 55726, Note_on_c, 5, 65, 127
1, 55865, Note_off_c, 10, 69, 127
1, 55868, Note_on_c, 7, 67, 127
1, 56003, Note_off_c, 5, 65, 127
1, 56007, Note_off_c, 7, 67, 127
1, 56010, Note_on_c, 10, 69, 127
1, 56010, Note_on_c, 0, 60, 127
1, 56149, Note_off_c, 10, 69, 127
1, 56152, Note_on_c, 11, 70, 127
1, 56287, Note_off_c, 0, 60, 127
1, 56291, Note_off_c, 11, 70, 127
1, 56294, Note_on_c, 10, 69, 127
1, 56294, Note_on_c, 5, 65, 127
1, 56433, Note_off_c, 10, 69, 127
1, 56436, Note_on_c, 11, 70, 127
1, 56571, Note_off_c, 5, 65, 127
1, 56575, Note_off_c, 11, 70, 127
1, 56578, Note_on_c, 0, 72, 127
1, 56578, Note_on_c, 4, 64, 127
1, 56717, Note_off_c, 4, 64, 127
1, 56717, Note_off_c, 0, 72, 127
1, 56720, Note_on_c, 11, 70, 127
1, 56720, Note_on_c, 2, 62, 127
1, 56859, Note_off_c, 2, 62, 127
1, 56859, Note_off_c, 11, 70, 127
1, 56862, Note_on_c, 0, 72, 127
1, 56862, Note_on_c, 4, 64, 127
1, 57001, Note_off_c, 4, 64, 127
1, 57001, Note_off_c, 0, 72, 127
1, 57004, Note_on_c, 2, 74, 127
1, 57004, Note_on_c, 5, 65, 127
1, 57143, Note_off_c, 5, 65, 127
1, 57143, Note_off_c, 2, 74, 127
1, 57146, Note_on_c, 4, 76, 127
1, 57146, Note_on_c, 7, 67, 127
1, 57285, Note_off_c, 7, 67, 127
1, 57285, Note_off_c, 4, 76, 127
1, 57288, Note_on_c, 5, 77, 127
1, 57288, Note_on_c, 10, 69, 127
1, 57427, Note_off_c, 10, 69, 127
1, 57427, Note_off_c, 5, 77, 127
1, 57430, Note_on_c, 2, 74, 127
1, 57430, Note_on_c, 11, 70, 127
1, 57569, Note_off_c, 2, 74, 127
1, 57572, Note_on_c, 0, 72, 127
1, 57707, Note_off_c, 11, 70, 127
1, 57711, Note_off_c, 0, 72, 127
1, 57714, Note_on_c, 2, 74, 127
1, 57714, Note_on_c, 5, 65, 127
1, 57853, Note_off_c, 2, 74, 127
1, 57856, Note_on_c, 4, 76, 127
1, 57991, Note_off_c, 5, 65, 127
1, 57995, Note_off_c, 4, 76, 127
1, 57998, Note_on_c, 2, 74, 127
1, 57998, Note_on_c, 11, 70, 127
1, 58137, Note_off_c, 2, 74, 127
1, 58140, Note_on_c, 4, 76, 127
1, 58275, Note_off_c, 11, 70, 127
1, 58279, Note_off_c, 4, 76, 127
1, 58282, Note_on_c, 5, 77, 127
1, 58282, Note_on_c, 10, 69, 127
1, 58421, Note_off_c, 10, 69, 127
1, 58424, Note_on_c, 7, 67, 127
1, 58559, Note_off_c, 5, 77, 127
1, 58563, Note_off_c, 7, 67, 127
1, 58566, Note_on_c, 0, 72, 127
1, 58566, Note_on_c, 10, 69, 127
1, 58705, Note_off_c, 10, 69, 127
1, 58708, Note_on_c, 11, 70, 127
1, 58843, Note_off_c, 0, 72, 127
1, 58847, Note_off_c, 11, 70, 127
1, 58850, Note_on_c, 5, 77, 127
1, 58850, Note_on_c, 10, 69, 127
1, 58989, Note_off_c, 10, 69, 127
1, 58992, Note_on_c, 11, 70, 127
1, 59131, Note_off_c, 11, 70, 127
1, 59134, Note_on_c, 0, 72, 127
1, 59352, Note_off_c, 5, 77, 127
1, 59411, Note_off_c, 0, 72, 127
1, 59418, Note_on_c, 4, 76, 127
1, 59418, Note_on_c, 7, 67, 127
1, 59557, Note_off_c, 4, 76, 127
1, 59560, Note_on_c, 2, 74, 127
1, 59695, Note_off_c, 7, 67, 127
1, 59699, Note_off_c, 2, 74, 127
1, 59702, Note_on_c, 4, 76, 127
1, 59702, Note_on_c, 0, 72, 127
1, 59841, Note_off_c, 4, 76, 127
1, 59844, Note_on_c, 5, 77, 127
1, 59983, Note_off_c, 5, 77, 127
1, 59986, Note_on_c, 2, 74, 127
1, 60115, Note_off_c, 0, 72, 127
1, 60125, Note_off_c, 2, 74, 127
1, 60128, Note_on_c, 0, 72, 127
1, 60267, Note_off_c, 0, 72, 127
1, 60270, Note_on_c, 2, 74, 127
1, 60270, Note_on_c, 12, 71, 127
1, 60409, Note_off_c, 2, 74, 127
1, 60412, Note_on_c, 4, 76, 127
1, 60551, Note_off_c, 4, 76, 127
1, 60554, Note_on_c, 7, 79, 127
1, 60554, Note_on_c, 5, 77, 127
1, 60693, Note_off_c, 5, 77, 127
1, 60696, Note_on_c, 2, 74, 127
1, 60831, Note_off_c, 7, 79, 127
1, 60835, Note_off_c, 2, 74, 127
1, 60835, Note_off_c, 12, 71, 127
1, 60838, Note_on_c, 4, 76, 127
1, 60838, Note_on_c, 7, 79, 127
1, 60838, Note_on_c, 0, 72, 127
1, 60977, Note_off_c, 7, 79, 127
1, 60980, Note_on_c, 5, 77, 127
1, 61115, Note_off_c, 0, 72, 127
1, 61115, Note_off_c, 4, 76, 127
1, 61119, Note_off_c, 5, 77, 127
1, 61122, Note_on_c, 7, 79, 127
1, 61122, Note_on_c, 2, 74, 127
1, 61122, Note_on_c, 12, 71, 127
1, 61261, Note_off_c, 7, 79, 127
1, 61264, Note_on_c, 10, 81, 127
1, 61399, Note_off_c, 2, 74, 127
1, 61403, Note_off_c, 10, 81, 127
1, 61406, Note_on_c, 7, 79, 127
1, 61545, Note_off_c, 7, 79, 127
1, 61548, Note_on_c, 5, 77, 127
1, 61687, Note_off_c, 5, 77, 127
1, 61687, Note_off_c, 12, 71, 127
1, 61690, Note_on_c, 0, 72, 127
1, 61690, Note_on_c, 4, 76, 127
1, 61690, Note_on_c, 0, 60, 127
1, 61829, Note_off_c, 4, 76, 127
1, 61832, Note_on_c, 2, 74, 127
1, 61967, Note_off_c, 0, 72, 127
1, 61971, Note_off_c, 2, 74, 127
1, 61974, Note_on_c, 4, 76, 127
1, 61974, Note_on_c, 7, 67, 127
1, 62113, Note_off_c, 4, 76, 127
1, 62116, Note_on_c, 5, 77, 127
1, 62251, Note_off_c, 7, 67, 127
1, 62255, Note_off_c, 5, 77, 127
1, 62258, Note_on_c, 4, 76, 127
1, 62258, Note_on_c, 0, 72, 127
1, 62397, Note_off_c, 4, 76, 127
1, 62400, Note_on_c, 5, 77, 127
1, 62535, Note_off_c, 0, 72, 127
1, 62539, Note_off_c, 5, 77, 127
1, 62539, Note_off_c, 0, 60, 127
1, 62542, Note_on_c, 12, 71, 127
1, 62542, Note_on_c, 7, 79, 127
1, 62542, Note_on_c, 7, 67, 127
1, 62681, Note_off_c, 7, 79, 127
1, 62684, Note_on_c, 5, 77, 127
1, 62819, Note_off_c, 7, 67, 127
1, 62823, Note_off_c, 5, 77, 127
1, 62826, Note_on_c, 7, 79, 127
1, 62826, Note_on_c, 7, 67, 127
1, 62955, Note_off_c, 12, 71, 127
1, 62965, Note_off_c, 7, 79, 127
1, 62968, Note_on_c, 10, 81, 127
1, 63103, Note_off_c, 7, 67, 127
1, 63107, Note_off_c, 10, 81, 127
1, 63110, Note_on_c, 7, 79, 127
1, 63110, Note_on_c, 12, 71, 127
1, 63249, Note_off_c, 7, 79, 127
1, 63252, Note_on_c, 5, 77, 127
1, 63387, Note_off_c, 12, 71, 127
1, 63391, Note_off_c, 5, 77, 127
1, 63394, Note_on_c, 0, 72, 127
1, 63394, Note_on_c, 4, 76, 127
1, 63394, Note_on_c, 0, 60, 127
1, 63533, Note_off_c, 4, 76, 127
1, 63536, Note_on_c, 2, 74, 127
1, 63671, Note_off_c, 0, 72, 127
1, 63675, Note_off_c, 2, 74, 127
1, 63678, Note_on_c, 7, 67, 127
1, 63678, Note_on_c, 4, 76, 127
1, 63817, Note_off_c, 4, 76, 127
1, 63820, Note_on_c, 5, 77, 127
1, 63955, Note_off_c, 7, 67, 127
1, 63959, Note_off_c, 5, 77, 127
1, 63959, Note_off_c, 0, 60, 127
1, 63962, Note_on_c, 0, 72, 127
1, 63962, Note_on_c, 4, 76, 127
1, 63962, Note_on_c, 4, 64, 127
1, 64101, Note_off_c, 4, 64, 127
1, 64104, Note_on_c, 5, 65, 127
1, 64239, Note_off_c, 4, 76, 127
1, 64239, Note_off_c, 0, 72, 127
1, 64243, Note_off_c, 5, 65, 127
1, 64246, Note_on_c, 2, 74, 127
1, 64246, Note_on_c, 12, 71, 127
1, 64246, Note_on_c, 7, 67, 127
1, 64385, Note_off_c, 7, 67, 127
1, 64388, Note_on_c, 5, 65, 127
1, 64523, Note_off_c, 12, 71, 127
1, 64523, Note_off_c, 2, 74, 127
1, 64527, Note_off_c, 5, 65, 127
1, 64530, Note_on_c, 7, 79, 127
1, 64530, Note_on_c, 7, 67, 127
1, 64669, Note_off_c, 7, 67, 127
1, 64672, Note_on_c, 10, 69, 127
1, 64807, Note_off_c, 7, 79, 127
1, 64811, Note_off_c, 10, 69, 127
1, 64814, Note_on_c, 2, 74, 127
1, 64814, Note_on_c, 7, 67, 127
1, 64953, Note_off_c, 7, 67, 127
1, 64956, Note_on_c, 5, 65, 127
1, 65091, Note_off_c, 2, 74, 127
1, 65095, Note_off_c, 5, 65, 127
1, 65098, Note_on_c, 7, 67, 127
1, 65098, Note_on_c, 4, 76, 127
1, 65098, Note_on_c, 4, 64, 127
1, 65237, Note_off_c, 4, 64, 127
1, 65240, Note_on_c, 2, 62, 127
1, 65375, Note_off_c, 4, 76, 127
1, 65375, Note_off_c, 7, 67, 127
1, 65379, Note_off_c, 2, 62, 127
1, 65382, Note_on_c, 0, 72, 127
1, 65382, Note_on_c, 4, 64, 127
1, 65521, Note_off_c, 4, 64, 127
1, 65524, Note_on_c, 5, 65, 127
1, 65659, Note_off_c, 0, 72, 127
1, 65663, Note_off_c, 5, 65, 127
1, 65666, Note_on_c, 7, 67, 127
1, 65666, Note_on_c, 4, 64, 127
1, 65805, Note_off_c, 4, 64, 127
1, 65808, Note_on_c, 5, 65, 127
1, 65943, Note_off_c, 7, 67, 127
1, 65947, Note_off_c, 5, 65, 127
1, 65950, Note_on_c, 12, 71, 127
1, 65950, Note_on_c, 2, 74, 127
1, 65950, Note_on_c, 7, 67, 127
1, 66089, Note_off_c, 7, 67, 127
1, 66092, Note_on_c, 5, 65, 127
1, 66227, Note_off_c, 2, 74, 127
1, 66227, Note_off_c, 12, 71, 127
1, 66231, Note_off_c, 5, 65, 127
1, 66234, Note_on_c, 7, 79, 127
1, 66234, Note_on_c, 7, 67, 127
1, 66373, Note_off_c, 7, 67, 127
1, 66376, Note_on_c, 10, 69, 127
1, 66511, Note_off_c, 7, 79, 127
1, 66515, Note_off_c, 10, 69, 127
1, 66518, Note_on_c, 2, 74, 127
1, 66518, Note_on_c, 7, 67, 127
1, 66657, Note_off_c, 7, 67, 127
1, 66660, Note_on_c, 5, 65, 127
1, 66795, Note_off_c, 2, 74, 127
1, 66799, Note_off_c, 5, 65, 127
1, 66802, Note_on_c, 4, 76, 127
1, 66802, Note_on_c, 0, 72, 127
1, 66802, Note_on_c, 4, 64, 127
1, 66941, Note_off_c, 0, 72, 127
1, 66944, Note_on_c, 12, 71, 127
1, 67079, Note_off_c, 4, 64, 127
1, 67083, Note_off_c, 12, 71, 127
1, 67086, Note_on_c, 0, 72, 127
1, 67086, Note_on_c, 10, 69, 127
1, 67225, Note_off_c, 10, 69, 127
1, 67225, Note_off_c, 0, 72, 127
1, 67228, Note_on_c, 2, 74, 127
1, 67228, Note_on_c, 11, 70, 127
1, 67363, Note_off_c, 4, 76, 127
1, 67367, Note_off_c, 11, 70, 127
1, 67367, Note_off_c, 2, 74, 127
1, 67370, Note_on_c, 0, 72, 127
1, 67370, Note_on_c, 10, 69, 127
1, 67509, Note_off_c, 10, 69, 127
1, 67512, Note_on_c, 7, 67, 127
1, 67651, Note_off_c, 7, 67, 127
1, 67654, Note_on_c, 10, 81, 127
1, 67654, Note_on_c, 6, 66, 127
1, 67783, Note_off_c, 0, 72, 127
1, 67796, Note_on_c, 0, 72, 127
1, 67931, Note_off_c, 10, 81, 127
1, 67935, Note_off_c, 0, 72, 127
1, 67938, Note_on_c, 2, 74, 127
1, 68080, Note_on_c, 0, 72, 127
1, 68215, Note_off_c, 2, 74, 127
1, 68215, Note_off_c, 6, 66, 127
1, 68219, Note_off_c, 0, 72, 127
1, 68222, Note_on_c, 11, 70, 127
1, 68361, Note_off_c, 11, 70, 127
1, 68364, Note_on_c, 10, 69, 127
1, 68503, Note_off_c, 10, 69, 127
1, 68506, Note_on_c, 2, 74, 127
1, 68506, Note_on_c, 11, 70, 127
1, 68506, Note_on_c, 7, 67, 127
1, 68645, Note_off_c, 2, 74, 127
1, 68648, Note_on_c, 0, 72, 127
1, 68783, Note_off_c, 11, 70, 127
1, 68787, Note_off_c, 0, 72, 127
1, 68790, Note_on_c, 11, 70, 127
1, 68790, Note_on_c, 2, 74, 127
1, 68929, Note_off_c, 2, 74, 127
1, 68932, Note_on_c, 3, 75, 127
1, 69067, Note_off_c, 11, 70, 127
1, 69067, Note_off_c, 7, 67, 127
1, 69071, Note_off_c, 3, 75, 127
1, 69074, Note_on_c, 11, 70, 127
1, 69074, Note_on_c, 2, 74, 127
1, 69213, Note_off_c, 2, 74, 127
1, 69216, Note_on_c, 3, 75, 127
1, 69351, Note_off_c, 11, 70, 127
1, 69355, Note_off_c, 3, 75, 127
1, 69358, Note_on_c, 0, 72, 127
1, 69358, Note_on_c, 10, 69, 127
1, 69358, Note_on_c, 6, 66, 127
1, 69497, Note_off_c, 0, 72, 127
1, 69500, Note_on_c, 11, 70, 127
1, 69635, Note_off_c, 10, 69, 127
1, 69639, Note_off_c, 11, 70, 127
1, 69642, Note_on_c, 0, 72, 127
1, 69642, Note_on_c, 10, 69, 127
1, 69781, Note_off_c, 0, 72, 127
1, 69784, Note_on_c, 2, 74, 127
1, 69919, Note_off_c, 10, 69, 127
1, 69919, Note_off_c, 6, 66, 127
1, 69923, Note_off_c, 2, 74, 127
1, 69926, Note_on_c, 10, 69, 127
1, 69926, Note_on_c, 0, 72, 127
1, 70065, Note_off_c, 0, 72, 127
1, 70068, Note_on_c, 2, 74, 127
1, 70203, Note_off_c, 10, 69, 127
1, 70207, Note_off_c, 2, 74, 127
1, 70210, Note_on_c, 11, 70, 127
1, 70210, Note_on_c, 7, 67, 127
1, 70349, Note_off_c, 11, 70, 127
1, 70352, Note_on_c, 10, 69, 127
1, 70487, Note_off_c, 7, 67, 127
1, 70491, Note_off_c, 10, 69, 127
1, 70494, Note_on_c, 7, 67, 127
1, 70494, Note_on_c, 11, 70, 127
1, 70633, Note_off_c, 11, 70, 127
1, 70636, Note_on_c, 0, 72, 127
1, 70771, Note_off_c, 7, 67, 127
1, 70775, Note_off_c, 0, 72, 127
1, 70778, Note_on_c, 11, 70, 127
1, 70778, Note_on_c, 7, 67, 127
1, 70917, Note_off_c, 11, 70, 127
1, 70920, Note_on_c, 0, 72, 127
1, 71055, Note_off_c, 7, 67, 127
1, 71059, Note_off_c, 0, 72, 127
1, 71062, Note_on_c, 6, 66, 127
1, 71062, Note_on_c, 10, 69, 127
1, 71062, Note_on_c, 2, 62, 127
1, 71201, Note_off_c, 2, 62, 127
1, 71204, Note_on_c, 0, 60, 127
1, 71339, Note_off_c, 6, 66, 127
1, 71343, Note_off_c, 0, 60, 127
1, 71346, Note_on_c, 2, 74, 127
1, 71346, Note_on_c, 2, 62, 127
1, 71485, Note_off_c, 2, 62, 127
1, 71488, Note_on_c, 3, 63, 127
1, 71623, Note_off_c, 2, 74, 127
1, 71623, Note_off_c, 10, 69, 127
1, 71627, Note_off_c, 3, 63, 127
1, 71630, Note_on_c, 10, 69, 127
1, 71630, Note_on_c, 2, 62, 127
1, 71769, Note_off_c, 2, 62, 127
1, 71772, Note_on_c, 0, 60, 127
1, 71907, Note_off_c, 10, 69, 127
1, 71911, Note_off_c, 0, 60, 127
1, 71914, Note_on_c, 11, 70, 127
1, 71914, Note_on_c, 7, 67, 127
1, 71914, Note_on_c, 2, 62, 127
1, 71914, Note_on_c, 11, 58, 127
1, 72053, Note_off_c, 11, 58, 127
1, 72056, Note_on_c, 10, 57, 127
1, 72191, Note_off_c, 2, 62, 127
1, 72191, Note_off_c, 7, 67, 127
1, 72195, Note_off_c, 10, 57, 127
1, 72198, Note_on_c, 2, 74, 127
1, 72198, Note_on_c, 11, 58, 127
1, 72337, Note_off_c, 11, 58, 127
1, 72340, Note_on_c, 0, 60, 127
1, 72475, Note_off_c, 2, 74, 127
1, 72475, Note_off_c, 11, 70, 127
1, 72479, Note_off_c, 0, 60, 127
1, 72482, Note_on_c, 7, 79, 127
1, 72482, Note_on_c, 11, 70, 127
1, 72482, Note_on_c, 2, 74, 127
1, 72482, Note_on_c, 11, 58, 127
1, 72621, Note_off_c, 11, 58, 127
1, 72624, Note_on_c, 0, 60, 127
1, 72759, Note_off_c, 2, 74, 127
1, 72759, Note_off_c, 11, 70, 127
1, 72763, Note_off_c, 0, 60, 127
1, 72766, Note_on_c, 10, 69, 127
1, 72766, Note_on_c, 2, 74, 127
1, 72766, Note_on_c, 2, 62, 127
1, 72905, Note_off_c, 2, 62, 127
1, 72908, Note_on_c, 0, 60, 127
1, 73043, Note_off_c, 7, 79, 127
1, 73047, Note_off_c, 0, 60, 127
1, 73050, Note_on_c, 6, 78, 127
1, 73050, Note_on_c, 2, 62, 127
1, 73189, Note_off_c, 2, 62, 127
1, 73192, Note_on_c, 3, 63, 127
1, 73331, Note_off_c, 3, 63, 127
1, 73334, Note_on_c, 2, 62, 127
1, 73473, Note_off_c, 2, 62, 127
1, 73476, Note_on_c, 0, 60, 127
1, 73615, Note_off_c, 0, 60, 127
1, 73615, Note_off_c, 6, 78, 127
1, 73615, Note_off_c, 2, 74, 127
1, 73615, Note_off_c, 10, 69, 127
1, 73618, Note_on_c, 7, 79, 127
1, 73618, Note_on_c, 2, 74, 127
1, 73618, Note_on_c, 7, 67, 127
1, 73618, Note_on_c, 12, 59, 127
1, 73757, Note_off_c, 2, 74, 127
1, 73757, Note_off_c, 7, 79, 127
1, 73760, Note_on_c, 5, 77, 127
1, 73899, Note_off_c, 5, 77, 127
1, 73902, Note_on_c, 7, 79, 127
1, 74041, Note_off_c, 7, 79, 127
1, 74044, Note_on_c, 10, 81, 127
1, 74183, Note_off_c, 10, 81, 127
1, 74186, Note_on_c, 7, 79, 127
1, 74325, Note_off_c, 7, 79, 127
1, 74326, Note_off_c, 12, 59, 127
1, 74326, Note_off_c, 7, 67, 127
1, 74327, Note_on_c, 5, 77, 127
1, 74466, Note_off_c, 5, 77, 127
1, 74469, Note_on_c, 4, 76, 127
1, 74469, Note_on_c, 0, 60, 127
1, 74608, Note_off_c, 4, 76, 127
1, 74611, Note_on_c, 2, 74, 127
1, 74746, Note_off_c, 0, 60, 127
1, 74750, Note_off_c, 2, 74, 127
1, 74753, Note_on_c, 4, 76, 127
1, 74753, Note_on_c, 7, 55, 127
1, 74892, Note_off_c, 4, 76, 127
1, 74895, Note_on_c, 5, 77, 127
1, 75030, Note_off_c, 7, 55, 127
1, 75034, Note_off_c, 5, 77, 127
1, 75037, Note_on_c, 4, 76, 127
1, 75037, Note_on_c, 0, 60, 127
1, 75176, Note_off_c, 4, 76, 127
1, 75179, Note_on_c, 5, 77, 127
1, 75314, Note_off_c, 0, 60, 127
1, 75318, Note_off_c, 5, 77, 127
1, 75321, Note_on_c, 7, 79, 127
1, 75321, Note_on_c, 12, 59, 127
1, 75460, Note_off_c, 7, 79, 127
1, 75463, Note_on_c, 5, 77, 127
1, 75598, Note_off_c, 12, 59, 127
1, 75602, Note_off_c, 5, 77, 127
1, 75605, Note_on_c, 7, 79, 127
1, 75605, Note_on_c, 7, 55, 127
1, 75744, Note_off_c, 7, 79, 127
1, 75747, Note_on_c, 10, 81, 127
1, 75882, Note_off_c, 7, 55, 127
1, 75886, Note_off_c, 10, 81, 127
1, 75889, Note_on_c, 7, 79, 127
1, 75889, Note_on_c, 12, 59, 127
1, 76028, Note_off_c, 7, 79, 127
1, 76031, Note_on_c, 5, 77, 127
1, 76166, Note_off_c, 12, 59, 127
1, 76170, Note_off_c, 5, 77, 127
1, 76173, Note_on_c, 4, 76, 127
1, 76173, Note_on_c, 0, 60, 127
1, 76312, Note_off_c, 0, 60, 127
1, 76315, Note_on_c, 11, 58, 127
1, 76450, Note_off_c, 4, 76, 127
1, 76454, Note_off_c, 11, 58, 127
1, 76457, Note_on_c, 10, 81, 127
1, 76457, Note_on_c, 0, 60, 127
1, 76596, Note_off_c, 0, 60, 127
1, 76599, Note_on_c, 2, 62, 127
1, 76734, Note_off_c, 10, 81, 127
1, 76738, Note_off_c, 2, 62, 127
1, 76741, Note_on_c, 4, 76, 127
1, 76741, Note_on_c, 0, 60, 127
1, 76880, Note_off_c, 0, 60, 127
1, 76883, Note_on_c, 11, 58, 127
1, 77018, Note_off_c, 4, 76, 127
1, 77022, Note_off_c, 11, 58, 127
1, 77025, Note_on_c, 5, 77, 127
1, 77025, Note_on_c, 10, 57, 127
1, 77164, Note_off_c, 10, 57, 127
1, 77167, Note_on_c, 7, 55, 127
1, 77302, Note_off_c, 5, 77, 127
1, 77306, Note_off_c, 7, 55, 127
1, 77309, Note_on_c, 10, 81, 127
1, 77309, Note_on_c, 10, 57, 127
1, 77448, Note_off_c, 10, 57, 127
1, 77451, Note_on_c, 11, 58, 127
1, 77586, Note_off_c, 10, 81, 127
1, 77590, Note_off_c, 11, 58, 127
1, 77593, Note_on_c, 5, 77, 127
1, 77593, Note_on_c, 10, 57, 127
1, 77732, Note_off_c, 10, 57, 127
1, 77735, Note_on_c, 11, 58, 127
1, 77870, Note_off_c, 5, 77, 127
1, 77874, Note_off_c, 11, 58, 127
1, 77877, Note_on_c, 4, 76, 127
1, 77877, Note_on_c, 0, 60, 127
1, 78016, Note_off_c, 0, 60, 127
1, 78019, Note_on_c, 11, 58, 127
1, 78154, Note_off_c, 4, 76, 127
1, 78158, Note_off_c, 11, 58, 127
1, 78161, Note_on_c, 10, 81, 127
1, 78161, Note_on_c, 0, 60, 127
1, 78300, Note_off_c, 0, 60, 127
1, 78303, Note_on_c, 2, 62, 127
1, 78438, Note_off_c, 10, 81, 127
1, 78442, Note_off_c, 2, 62, 127
1, 78445, Note_on_c, 4, 76, 127
1, 78445, Note_on_c, 0, 60, 127
1, 78584, Note_off_c, 0, 60, 127
1, 78587, Note_on_c, 11, 58, 127
1, 78722, Note_off_c, 4, 76, 127
1, 78726, Note_off_c, 11, 58, 127
1, 78729, Note_on_c, 5, 77, 127
1, 78729, Note_on_c, 10, 57, 127
1, 78868, Note_off_c, 5, 77, 127
1, 78871, Note_on_c, 3, 75, 127
1, 79006, Note_off_c, 10, 57, 127
1, 79010, Note_off_c, 3, 75, 127
1, 79013, Note_on_c, 5, 77, 127
1, 79013, Note_on_c, 5, 53, 127
1, 79152, Note_off_c, 5, 77, 127
1, 79155, Note_on_c, 7, 79, 127
1, 79290, Note_off_c, 5, 53, 127
1, 79294, Note_off_c, 7, 79, 127
1, 79297, Note_on_c, 5, 77, 127
1, 79297, Note_on_c, 10, 57, 127
1, 79436, Note_off_c, 5, 77, 127
1, 79439, Note_on_c, 3, 75, 127
1, 79574, Note_off_c, 10, 57, 127
1, 79578, Note_off_c, 3, 75, 127
1, 79581, Note_on_c, 2, 74, 127
1, 79581, Note_on_c, 11, 58, 127
1, 79720, Note_off_c, 2, 74, 127
1, 79723, Note_on_c, 0, 72, 127
1, 79858, Note_off_c, 11, 58, 127
1, 79862, Note_off_c, 0, 72, 127
1, 79865, Note_on_c, 2, 74, 127
1, 79865, Note_on_c, 5, 53, 127
1, 80004, Note_off_c, 2, 74, 127
1, 80007, Note_on_c, 3, 75, 127
1, 80142, Note_off_c, 5, 53, 127
1, 80146, Note_off_c, 3, 75, 127
1, 80149, Note_on_c, 2, 74, 127
1, 80149, Note_on_c, 11, 58, 127
1, 80288, Note_off_c, 2, 74, 127
1, 80291, Note_on_c, 3, 75, 127
1, 80426, Note_off_c, 11, 58, 127
1, 80430, Note_off_c, 3, 75, 127
1, 80433, Note_on_c, 5, 77, 127
1, 80433, Note_on_c, 10, 57, 127
1, 80572, Note_off_c, 5, 77, 127
1, 80575, Note_on_c, 3, 75, 127
1, 80710, Note_off_c, 10, 57, 127
1, 80714, Note_off_c, 3, 75, 127
1, 80717, Note_on_c, 5, 77, 127
1, 80717, Note_on_c, 5, 53, 127
1, 80856, Note_off_c, 5, 77, 127
1, 80859, Note_on_c, 7, 79, 127
1, 80994, Note_off_c, 5, 53, 127
1, 80998, Note_off_c, 7, 79, 127
1, 81001, Note_on_c, 5, 77, 127
1, 81001, Note_on_c, 10, 57, 127
1, 81140, Note_off_c, 5, 77, 127
1, 81143, Note_on_c, 3, 75, 127
1, 81278, Note_off_c, 10, 57, 127
1, 81282, Note_off_c, 3, 75, 127
1, 81285, Note_on_c, 2, 74, 127
1, 81285, Note_on_c, 11, 58, 127
1, 81424, Note_off_c, 2, 74, 127
1, 81427, Note_on_c, 3, 75, 127
1, 81562, Note_off_c, 11, 58, 127
1, 81566, Note_off_c, 3, 75, 127
1, 81569, Note_on_c, 2, 74, 127
1, 81569, Note_on_c, 6, 54, 127
1, 81708, Note_off_c, 2, 74, 127
1, 81711, Note_on_c, 0, 72, 127
1, 81846, Note_off_c, 6, 54, 127
1, 81850, Note_off_c, 0, 72, 127
1, 81853, Note_on_c, 11, 70, 127
1, 81853, Note_on_c, 7, 55, 127
1, 81992, Note_off_c, 11, 70, 127
1, 81995, Note_on_c, 0, 72, 127
1, 82130, Note_off_c, 7, 55, 127
1, 82134, Note_off_c, 0, 72, 127
1, 82137, Note_on_c, 2, 74, 127
1, 82137, Note_on_c, 6, 54, 127
1, 82276, Note_off_c, 2, 74, 127
1, 82279, Note_on_c, 0, 72, 127
1, 82414, Note_off_c, 6, 54, 127
1, 82418, Note_off_c, 0, 72, 127
1, 82421, Note_on_c, 2, 74, 127
1, 82421, Note_on_c, 2, 50, 127
1, 82560, Note_off_c, 2, 74, 127
1, 82563, Note_on_c, 3, 75, 127
1, 82698, Note_off_c, 2, 50, 127
1, 82702, Note_off_c, 3, 75, 127
1, 82705, Note_on_c, 2, 74, 127
1, 82705, Note_on_c, 6, 54, 127
1, 82844, Note_off_c, 2, 74, 127
1, 82847, Note_on_c, 0, 72, 127
1, 82982, Note_off_c, 6, 54, 127
1, 82986, Note_off_c, 0, 72, 127
1, 82989, Note_on_c, 11, 70, 127
1, 82989, Note_on_c, 7, 55, 127
1, 83128, Note_off_c, 11, 70, 127
1, 83131, Note_on_c, 10, 69, 127
1, 83266, Note_off_c, 7, 55, 127
1, 83270, Note_off_c, 10, 69, 127
1, 83273, Note_on_c, 11, 70, 127
1, 83273, Note_on_c, 2, 50, 127
1, 83412, Note_off_c, 11, 70, 127
1, 83415, Note_on_c, 0, 72, 127
1, 83550, Note_off_c, 2, 50, 127
1, 83554, Note_off_c, 0, 72, 127
1, 83557, Note_on_c, 11, 70, 127
1, 83557, Note_on_c, 7, 55, 127
1, 83696, Note_off_c, 11, 70, 127
1, 83699, Note_on_c, 0, 72, 127
1, 83834, Note_off_c, 7, 55, 127
1, 83838, Note_off_c, 0, 72, 127
1, 83841, Note_on_c, 2, 74, 127
1, 83841, Note_on_c, 6, 54, 127
1, 83980, Note_off_c, 2, 74, 127
1, 83983, Note_on_c, 0, 72, 127
1, 84118, Note_off_c, 6, 54, 127
1, 84122, Note_off_c, 0, 72, 127
1, 84125, Note_on_c, 2, 74, 127
1, 84125, Note_on_c, 2, 50, 127
1, 84264, Note_off_c, 2, 74, 127
1, 84267, Note_on_c, 3, 75, 127
1, 84402, Note_off_c, 2, 50, 127
1, 84406, Note_off_c, 3, 75, 127
1, 84409, Note_on_c, 2, 74, 127
1, 84409, Note_on_c, 6, 54, 127
1, 84548, Note_off_c, 2, 74, 127
1, 84551, Note_on_c, 0, 72, 127
1, 84686, Note_off_c, 6, 54, 127
1, 84690, Note_off_c, 0, 72, 127
1, 84693, Note_on_c, 11, 70, 127
1, 84693, Note_on_c, 7, 55, 127
1, 84832, Note_off_c, 11, 70, 127
1, 84835, Note_on_c, 10, 69, 127
1, 84974, Note_off_c, 10, 69, 127
1, 84977, Note_on_c, 11, 70, 127
1, 84977, Note_on_c, 7, 43, 127
1, 85106, Note_off_c, 7, 55, 127
1, 85116, Note_off_c, 11, 70, 127
1, 85119, Note_on_c, 7, 67, 127
1, 85254, Note_off_c, 7, 43, 127
1, 85258, Note_off_c, 7, 67, 127
1, 85261, Note_on_c, 10, 69, 127
1, 85261, Note_on_c, 5, 53, 127
1, 85400, Note_off_c, 10, 69, 127
1, 85403, Note_on_c, 11, 70, 127
1, 85538, Note_off_c, 5, 53, 127
1, 85542, Note_off_c, 11, 70, 127
1, 85545, Note_on_c, 0, 72, 127
1, 85545, Note_on_c, 4, 52, 127
1, 85684, Note_off_c, 4, 52, 127
1, 85684, Note_off_c, 0, 72, 127
1, 85687, Note_on_c, 11, 70, 127
1, 85687, Note_on_c, 2, 50, 127
1, 85826, Note_off_c, 2, 50, 127
1, 85826, Note_off_c, 11, 70, 127
1, 85829, Note_on_c, 0, 72, 127
1, 85829, Note_on_c, 4, 52, 127
1, 85968, Note_off_c, 4, 52, 127
1, 85968, Note_off_c, 0, 72, 127
1, 85971, Note_on_c, 2, 74, 127
1, 85971, Note_on_c, 0, 48, 127
1, 86110, Note_off_c, 0, 48, 127
1, 86110, Note_off_c, 2, 74, 127
1, 86113, Note_on_c, 0, 72, 127
1, 86113, Note_on_c, 2, 50, 127
1, 86252, Note_off_c, 2, 50, 127
1, 86252, Note_off_c, 0, 72, 127
1, 86255, Note_on_c, 11, 70, 127
1, 86255, Note_on_c, 4, 52, 127
1, 86394, Note_off_c, 4, 52, 127
1, 86394, Note_off_c, 11, 70, 127
1, 86397, Note_on_c, 10, 69, 127
1, 86397, Note_on_c, 5, 53, 127
1, 86536, Note_off_c, 5, 53, 127
1, 86536, Note_off_c, 10, 69, 127
1, 86539, Note_on_c, 7, 67, 127
1, 86539, Note_on_c, 4, 52, 127
1, 86678, Note_off_c, 4, 52, 127
1, 86678, Note_off_c, 7, 67, 127
1, 86681, Note_on_c, 10, 69, 127
1, 86681, Note_on_c, 5, 53, 127
1, 86820, Note_off_c, 5, 53, 127
1, 86820, Note_off_c, 10, 69, 127
1, 86823, Note_on_c, 11, 70, 127
1, 86823, Note_on_c, 10, 57, 127
1, 86962, Note_off_c, 10, 57, 127
1, 86962, Note_off_c, 11, 70, 127
1, 86965, Note_on_c, 10, 69, 127
1, 86965, Note_on_c, 7, 55, 127
1, 87104, Note_off_c, 7, 55, 127
1, 87104, Note_off_c, 10, 69, 127
1, 87107, Note_on_c, 11, 70, 127
1, 87107, Note_on_c, 5, 53, 127
1, 87246, Note_off_c, 5, 53, 127
1, 87246, Note_off_c, 11, 70, 127
1, 87249, Note_on_c, 0, 72, 127
1, 87249, Note_on_c, 4, 52, 127
1, 87388, Note_off_c, 4, 52, 127
1, 87388, Note_off_c, 0, 72, 127
1, 87391, Note_on_c, 11, 70, 127
1, 87391, Note_on_c, 2, 50, 127
1, 87530, Note_off_c, 2, 50, 127
1, 87530, Note_off_c, 11, 70, 127
1, 87533, Note_on_c, 0, 72, 127
1, 87533, Note_on_c, 4, 52, 127
1, 87672, Note_off_c, 4, 52, 127
1, 87672, Note_off_c, 0, 72, 127
1, 87675, Note_on_c, 2, 74, 127
1, 87675, Note_on_c, 0, 48, 127
1, 87814, Note_off_c, 0, 48, 127
1, 87814, Note_off_c, 2, 74, 127
1, 87817, Note_on_c, 0, 72, 127
1, 87817, Note_on_c, 2, 50, 127
1, 87956, Note_off_c, 2, 50, 127
1, 87956, Note_off_c, 0, 72, 127
1, 87959, Note_on_c, 11, 70, 127
1, 87959, Note_on_c, 4, 52, 127
1, 88098, Note_off_c, 4, 52, 127
1, 88098, Note_off_c, 11, 70, 127
1, 88101, Note_on_c, 10, 69, 127
1, 88101, Note_on_c, 5, 53, 127
1, 88240, Note_off_c, 5, 53, 127
1, 88240, Note_off_c, 10, 69, 127
1, 88243, Note_on_c, 7, 67, 127
1, 88243, Note_on_c, 7, 55, 127
1, 88382, Note_off_c, 7, 55, 127
1, 88382, Note_off_c, 7, 67, 127
1, 88385, Note_on_c, 5, 65, 127
1, 88385, Note_on_c, 10, 57, 127
1, 88524, Note_off_c, 10, 57, 127
1, 88524, Note_off_c, 5, 65, 127
1, 88527, Note_on_c, 4, 64, 127
1, 88527, Note_on_c, 7, 55, 127
1, 88666, Note_off_c, 7, 55, 127
1, 88666, Note_off_c, 4, 64, 127
1, 88669, Note_on_c, 5, 65, 127
1, 88669, Note_on_c, 10, 57, 127
1, 88808, Note_off_c, 10, 57, 127
1, 88808, Note_off_c, 5, 65, 127
1, 88811, Note_on_c, 7, 67, 127
1, 88811, Note_on_c, 12, 59, 127
1, 88950, Note_off_c, 12, 59, 127
1, 88950, Note_off_c, 7, 67, 127
1, 88953, Note_on_c, 4, 64, 127
1, 88953, Note_on_c, 0, 60, 127
1, 89092, Note_off_c, 4, 64, 127
1, 89095, Note_on_c, 5, 65, 127
1, 89234, Note_off_c, 5, 65, 127
1, 89237, Note_on_c, 4, 64, 127
1, 89237, Note_on_c, 0, 48, 127
1, 89376, Note_off_c, 4, 64, 127
1, 89379, Note_on_c, 2, 62, 127
1, 89514, Note_off_c, 0, 60, 127
1, 89518, Note_off_c, 2, 62, 127
1, 89521, Note_on_c, 0, 60, 127
1, 89650, Note_off_c, 0, 48, 127
1, 89660, Note_off_c, 0, 60, 127
1, 89663, Note_on_c, 11, 58, 127
1, 89802, Note_off_c, 11, 58, 127
1, 89805, Note_on_c, 0, 72, 127
1, 89805, Note_on_c, 10, 57, 127
1, 89944, Note_off_c, 0, 72, 127
1, 89947, Note_on_c, 11, 70, 127
1, 90086, Note_off_c, 11, 70, 127
1, 90089, Note_on_c, 0, 72, 127
1, 90228, Note_off_c, 0, 72, 127
1, 90228, Note_off_c, 10, 57, 127
1, 90231, Note_on_c, 10, 69, 127
1, 90231, Note_on_c, 5, 53, 127
1, 90370, Note_off_c, 5, 53, 127
1, 90370, Note_off_c, 10, 69, 127
1, 90373, Note_on_c, 11, 70, 127
1, 90373, Note_on_c, 7, 55, 127
1, 90512, Note_off_c, 7, 55, 127
1, 90512, Note_off_c, 11, 70, 127
1, 90515, Note_on_c, 0, 72, 127
1, 90515, Note_on_c, 10, 57, 127
1, 90654, Note_off_c, 10, 57, 127
1, 90654, Note_off_c, 0, 72, 127
1, 90657, Note_on_c, 2, 74, 127
1, 90657, Note_on_c, 11, 58, 127
1, 90796, Note_off_c, 2, 74, 127
1, 90799, Note_on_c, 3, 75, 127
1, 90938, Note_off_c, 3, 75, 127
1, 90941, Note_on_c, 2, 74, 127
1, 90941, Note_on_c, 2, 62, 127
1, 91080, Note_off_c, 2, 74, 127
1, 91080, Note_off_c, 11, 58, 127
1, 91083, Note_on_c, 0, 72, 127
1, 91218, Note_off_c, 2, 62, 127
1, 91222, Note_off_c, 0, 72, 127
1, 91225, Note_on_c, 5, 65, 127
1, 91225, Note_on_c, 11, 70, 127
1, 91364, Note_off_c, 11, 70, 127
1, 91367, Note_on_c, 10, 69, 127
1, 91506, Note_off_c, 10, 69, 127
1, 91509, Note_on_c, 7, 67, 127
1, 91509, Note_on_c, 2, 62, 127
1, 91509, Note_on_c, 12, 59, 127
1, 91638, Note_off_c, 5, 65, 127
1, 91648, Note_off_c, 7, 67, 127
1, 91651, Note_on_c, 5, 65, 127
1, 91786, Note_off_c, 12, 59, 127
1, 91786, Note_off_c, 2, 62, 127
1, 91790, Note_off_c, 5, 65, 127
1, 91793, Note_on_c, 7, 67, 127
1, 91793, Note_on_c, 0, 60, 127
1, 91860, Note_off_c, 7, 67, 127
1, 91864, Note_on_c, 5, 65, 127
1, 91931, Note_off_c, 5, 65, 127
1, 91935, Note_on_c, 7, 67, 127
1, 92002, Note_off_c, 7, 67, 127
1, 92006, Note_on_c, 5, 65, 127
1, 92077, Note_on_c, 0, 48, 127
1, 92218, Note_off_c, 5, 65, 127
1, 92219, Note_on_c, 4, 64, 127
1, 92354, Note_off_c, 0, 48, 127
1, 92354, Note_off_c, 0, 60, 127
1, 92358, Note_off_c, 4, 64, 127
1, 92361, Note_on_c, 5, 65, 127
1, 92361, Note_on_c, 5, 53, 127
1, 92500, Note_off_c, 5, 53, 127
1, 92503, Note_on_c, 7, 55, 127
1, 92642, Note_off_c, 7, 55, 127
1, 92645, Note_on_c, 10, 57, 127
1, 92784, Note_off_c, 10, 57, 127
1, 92787, Note_on_c, 11, 58, 127
1, 92922, Note_off_c, 5, 65, 127
1, 92926, Note_off_c, 11, 58, 127
1, 92929, Note_on_c, 10, 57, 127
1, 93068, Note_off_c, 10, 57, 127
1, 93071, Note_on_c, 7, 55, 127
1, 93210, Note_off_c, 7, 55, 127
1, 93213, Note_on_c, 5, 77, 127
1, 93213, Note_on_c, 5, 53, 127
1, 93490, Note_off_c, 5, 53, 127
1, 93490, Note_off_c, 5, 77, 127
1, 93497, Note_on_c, 10, 81, 127
1, 93497, Note_on_c, 10, 69, 127
1, 93636, Note_off_c, 10, 69, 127
1, 93639, Note_on_c, 7, 67, 127
1, 93774, Note_off_c, 10, 81, 127
1, 93778, Note_off_c, 7, 67, 127
1, 93781, Note_on_c, 5, 77, 127
1, 93781, Note_on_c, 10, 69, 127
1, 93920, Note_off_c, 10, 69, 127
1, 93923, Note_on_c, 11, 70, 127
1, 94058, Note_off_c, 5, 77, 127
1, 94062, Note_off_c, 11, 70, 127
1, 94065, Note_on_c, 4, 76, 127
1, 94065, Note_on_c, 0, 72, 127
1, 94204, Note_off_c, 0, 72, 127
1, 94207, Note_on_c, 11, 70, 127
1, 94342, Note_off_c, 4, 76, 127
1, 94346, Note_off_c, 11, 70, 127
1, 94349, Note_on_c, 10, 81, 127
1, 94349, Note_on_c, 0, 72, 127
1, 94488, Note_off_c, 0, 72, 127
1, 94491, Note_on_c, 2, 74, 127
1, 94626, Note_off_c, 10, 81, 127
1, 94630, Note_off_c, 2, 74, 127
1, 94633, Note_on_c, 4, 76, 127
1, 94633, Note_on_c, 0, 72, 127
1, 94772, Note_off_c, 0, 72, 127
1, 94775, Note_on_c, 11, 70, 127
1, 94910, Note_off_c, 4, 76, 127
1, 94914, Note_off_c, 11, 70, 127
1, 94917, Note_on_c, 5, 77, 127
1, 94917, Note_on_c, 10, 69, 127
1, 95056, Note_off_c, 10, 69, 127
1, 95059, Note_on_c, 7, 67, 127
1, 95194, Note_off_c, 5, 77, 127
1, 95198, Note_off_c, 7, 67, 127
1, 95201, Note_on_c, 10, 81, 127
1, 95201, Note_on_c, 10, 69, 127
1, 95340, Note_off_c, 10, 69, 127
1, 95343, Note_on_c, 11, 70, 127
1, 95478, Note_off_c, 10, 81, 127
1, 95482, Note_off_c, 11, 70, 127
1, 95485, Note_on_c, 5, 77, 127
1, 95485, Note_on_c, 10, 69, 127
1, 95624, Note_off_c, 10, 69, 127
1, 95627, Note_on_c, 11, 70, 127
1, 95762, Note_off_c, 5, 77, 127
1, 95766, Note_off_c, 11, 70, 127
1, 95769, Note_on_c, 4, 76, 127
1, 95769, Note_on_c, 0, 72, 127
1, 95908, Note_off_c, 4, 76, 127
1, 95911, Note_on_c, 2, 74, 127
1, 96046, Note_off_c, 0, 72, 127
1, 96050, Note_off_c, 2, 74, 127
1, 96053, Note_on_c, 4, 76, 127
1, 96053, Note_on_c, 7, 67, 127
1, 96192, Note_off_c, 4, 76, 127
1, 96195, Note_on_c, 5, 77, 127
1, 96330, Note_off_c, 7, 67, 127
1, 96334, Note_off_c, 5, 77, 127
1, 96337, Note_on_c, 4, 76, 127
1, 96337, Note_on_c, 0, 72, 127
1, 96476, Note_off_c, 4, 76, 127
1, 96479, Note_on_c, 5, 77, 127
1, 96614, Note_off_c, 0, 72, 127
1, 96618, Note_off_c, 5, 77, 127
1, 96621, Note_on_c, 7, 79, 127
1, 96621, Note_on_c, 11, 70, 127
1, 96760, Note_off_c, 11, 70, 127
1, 96763, Note_on_c, 10, 69, 127
1, 96898, Note_off_c, 7, 79, 127
1, 96902, Note_off_c, 10, 69, 127
1, 96905, Note_on_c, 2, 74, 127
1, 96905, Note_on_c, 11, 70, 127
1, 97044, Note_off_c, 11, 70, 127
1, 97047, Note_on_c, 0, 72, 127
1, 97182, Note_off_c, 2, 74, 127
1, 97186, Note_off_c, 0, 72, 127
1, 97189, Note_on_c, 7, 79, 127
1, 97189, Note_on_c, 11, 70, 127
1, 97328, Note_off_c, 11, 70, 127
1, 97331, Note_on_c, 0, 72, 127
1, 97466, Note_off_c, 7, 79, 127
1, 97470, Note_off_c, 0, 72, 127
1, 97473, Note_on_c, 5, 77, 127
1, 97473, Note_on_c, 2, 74, 127
1, 97612, Note_off_c, 5, 77, 127
1, 97615, Note_on_c, 4, 76, 127
1, 97750, Note_off_c, 2, 74, 127
1, 97754, Note_off_c, 4, 76, 127
1, 97757, Note_on_c, 5, 77, 127
1, 97757, Note_on_c, 10, 69, 127
1, 97896, Note_off_c, 5, 77, 127
1, 97899, Note_on_c, 7, 79, 127
1, 98034, Note_off_c, 10, 69, 127
1, 98038, Note_off_c, 7, 79, 127
1, 98041, Note_on_c, 5, 77, 127
1, 98041, Note_on_c, 2, 74, 127
1, 98180, Note_off_c, 5, 77, 127
1, 98183, Note_on_c, 7, 79, 127
1, 98318, Note_off_c, 2, 74, 127
1, 98322, Note_off_c, 7, 79, 127
1, 98325, Note_on_c, 10, 81, 127
1, 98325, Note_on_c, 0, 72, 127
1, 98464, Note_off_c, 0, 72, 127
1, 98464, Note_off_c, 10, 81, 127
1, 98467, Note_on_c, 7, 79, 127
1, 98467, Note_on_c, 11, 70, 127
1, 98606, Note_off_c, 11, 70, 127
1, 98606, Note_off_c, 7, 79, 127
1, 98609, Note_on_c, 10, 81, 127
1, 98609, Note_on_c, 0, 72, 127
1, 98748, Note_off_c, 0, 72, 127
1, 98748, Note_off_c, 10, 81, 127
1, 98751, Note_on_c, 11, 82, 127
1, 98751, Note_on_c, 2, 74, 127
1, 98890, Note_off_c, 2, 74, 127
1, 98890, Note_off_c, 11, 82, 127
1, 98893, Note_on_c, 10, 81, 127
1, 98893, Note_on_c, 0, 72, 127
1, 99032, Note_off_c, 0, 72, 127
1, 99032, Note_off_c, 10, 81, 127
1, 99035, Note_on_c, 11, 82, 127
1, 99035, Note_on_c, 2, 74, 127
1, 99174, Note_off_c, 2, 74, 127
1, 99174, Note_off_c, 11, 82, 127
1, 99177, Note_on_c, 7, 79, 127
1, 99177, Note_on_c, 4, 76, 127
1, 99316, Note_off_c, 4, 76, 127
1, 99319, Note_on_c, 2, 74, 127
1, 99454, Note_off_c, 7, 79, 127
1, 99458, Note_off_c, 2, 74, 127
1, 99461, Note_on_c, 0, 84, 127
1, 99461, Note_on_c, 4, 76, 127
1, 99600, Note_off_c, 4, 76, 127
1, 99603, Note_on_c, 0, 72, 127
1, 99738, Note_off_c, 0, 84, 127
1, 99742, Note_off_c, 0, 72, 127
1, 99745, Note_on_c, 7, 79, 127
1, 99745, Note_on_c, 2, 74, 127
1, 99884, Note_off_c, 2, 74, 127
1, 99887, Note_on_c, 4, 76, 127
1, 100022, Note_off_c, 7, 79, 127
1, 100026, Note_off_c, 4, 76, 127
1, 100029, Note_on_c, 10, 81, 127
1, 100029, Note_on_c, 5, 77, 127
1, 100168, Note_off_c, 10, 81, 127
1, 100171, Note_on_c, 7, 79, 127
1, 100306, Note_off_c, 5, 77, 127
1, 100310, Note_off_c, 7, 79, 127
1, 100313, Note_on_c, 10, 81, 127
1, 100313, Note_on_c, 0, 72, 127
1, 100452, Note_off_c, 10, 81, 127
1, 100455, Note_on_c, 11, 82, 127
1, 100590, Note_off_c, 0, 72, 127
1, 100594, Note_off_c, 11, 82, 127
1, 100597, Note_on_c, 10, 81, 127
1, 100597, Note_on_c, 5, 77, 127
1, 100736, Note_off_c, 10, 81, 127
1, 100739, Note_on_c, 11, 82, 127
1, 100874, Note_off_c, 5, 77, 127
1, 100878, Note_off_c, 11, 82, 127
1, 100881, Note_on_c, 7, 79, 127
1, 100881, Note_on_c, 4, 76, 127
1, 101020, Note_off_c, 4, 76, 127
1, 101023, Note_on_c, 2, 74, 127
1, 101158, Note_off_c, 7, 79, 127
1, 101162, Note_off_c, 2, 74, 127
1, 101165, Note_on_c, 0, 84, 127
1, 101165, Note_on_c, 4, 76, 127
1, 101304, Note_off_c, 4, 76, 127
1, 101307, Note_on_c, 0, 72, 127
1, 101442, Note_off_c, 0, 84, 127
1, 101446, Note_off_c, 0, 72, 127
1, 101449, Note_on_c, 7, 79, 127
1, 101449, Note_on_c, 2, 74, 127
1, 101588, Note_off_c, 2, 74, 127
1, 101591, Note_on_c, 4, 76, 127
1, 101726, Note_off_c, 7, 79, 127
1, 101730, Note_off_c, 4, 76, 127
1, 101733, Note_on_c, 10, 81, 127
1, 101733, Note_on_c, 5, 77, 127
1, 101733, Note_on_c, 5, 65, 127
1, 101872, Note_off_c, 5, 65, 127
1, 101875, Note_on_c, 4, 64, 127
1, 102010, Note_off_c, 10, 81, 127
1, 102014, Note_off_c, 4, 64, 127
1, 102017, Note_on_c, 0, 72, 127
1, 102017, Note_on_c, 5, 65, 127
1, 102156, Note_off_c, 5, 65, 127
1, 102159, Note_on_c, 7, 67, 127
1, 102294, Note_off_c, 0, 72, 127
1, 102294, Note_off_c, 5, 77, 127
1, 102298, Note_off_c, 7, 67, 127
1, 102301, Note_on_c, 5, 77, 127
1, 102301, Note_on_c, 10, 69, 127
1, 102440, Note_off_c, 10, 69, 127
1, 102443, Note_on_c, 5, 65, 127
1, 102578, Note_off_c, 5, 77, 127
1, 102582, Note_off_c, 5, 65, 127
1, 102585, Note_on_c, 11, 70, 127
1, 102585, Note_on_c, 2, 74, 127
1, 102585, Note_on_c, 11, 58, 127
1, 102724, Note_off_c, 11, 58, 127
1, 102727, Note_on_c, 10, 57, 127
1, 102862, Note_off_c, 2, 74, 127
1, 102866, Note_off_c, 10, 57, 127
1, 102869, Note_on_c, 5, 65, 127
1, 102869, Note_on_c, 11, 58, 127
1, 103008, Note_off_c, 11, 58, 127
1, 103011, Note_on_c, 0, 60, 127
1, 103146, Note_off_c, 5, 65, 127
1, 103146, Note_off_c, 11, 70, 127
1, 103150, Note_off_c, 0, 60, 127
1, 103153, Note_on_c, 11, 70, 127
1, 103153, Note_on_c, 2, 62, 127
1, 103292, Note_off_c, 2, 62, 127
1, 103295, Note_on_c, 11, 58, 127
1, 103434, Note_off_c, 11, 58, 127
1, 103437, Note_on_c, 0, 60, 127
1, 103578, Note_off_c, 11, 70, 127
1, 103581, Note_on_c, 10, 69, 127
1, 103722, Note_off_c, 10, 69, 127
1, 103725, Note_on_c, 7, 67, 127
1, 103725, Note_on_c, 4, 52, 127
1, 103866, Note_off_c, 7, 67, 127
1, 103869, Note_on_c, 10, 69, 127
1, 104005, Note_off_c, 4, 52, 127
1, 104009, Note_off_c, 10, 69, 127
1, 104012, Note_on_c, 11, 70, 127
1, 104012, Note_on_c, 0, 48, 127
1, 104153, Note_off_c, 11, 70, 127
1, 104156, Note_on_c, 0, 72, 127
1, 104292, Note_off_c, 0, 48, 127
1, 104296, Note_off_c, 0, 72, 127
1, 104296, Note_off_c, 0, 60, 127
1, 104299, Note_on_c, 10, 69, 127
1, 104299, Note_on_c, 5, 53, 127
1, 104451, Note_off_c, 10, 69, 127
1, 104454, Note_on_c, 11, 70, 127
1, 104454, Note_on_c, 11, 46, 127
1, 104606, Note_off_c, 11, 46, 127
1, 104606, Note_off_c, 11, 70, 127
1, 104609, Note_on_c, 10, 69, 127
1, 104609, Note_on_c, 0, 48, 127
1, 104682, Note_off_c, 10, 69, 127
1, 104687, Note_on_c, 7, 67, 127
1, 104760, Note_off_c, 7, 67, 127
1, 104765, Note_on_c, 10, 69, 127
1, 104838, Note_off_c, 10, 69, 127
1, 104843, Note_on_c, 7, 67, 127
1, 104913, Note_off_c, 5, 53, 127
1, 104916, Note_off_c, 7, 67, 127
1, 104921, Note_on_c, 10, 69, 127
1, 104921, Note_on_c, 4, 52, 127
1, 104994, Note_off_c, 10, 69, 127
1, 104999, Note_on_c, 7, 67, 127
1, 105072, Note_off_c, 7, 67, 127
1, 105077, Note_on_c, 5, 65, 127
1, 105225, Note_off_c, 4, 52, 127
1, 105225, Note_off_c, 0, 48, 127
1, 105230, Note_off_c, 5, 65, 127
1, 105233, Note_on_c, 5, 65, 127
1, 105233, Note_on_c, 5, 53, 127
1, 105233, Note_on_c, 5, 41, 127
1, 105374, Note_off_c, 5, 65, 127
1, 105377, Note_on_c, 7, 67, 127
1, 105518, Note_off_c, 7, 67, 127
1, 105521, Note_on_c, 10, 69, 127
1, 105662, Note_off_c, 10, 69, 127
1, 105665, Note_on_c, 7, 67, 127
1, 105801, Note_off_c, 5, 41, 127
1, 105805, Note_off_c, 7, 67, 127
1, 105808, Note_on_c, 10, 69, 127
1, 105949, Note_off_c, 10, 69, 127
1, 105952, Note_on_c, 11, 70, 127
1, 106093, Note_off_c, 11, 70, 127
1, 106093, Note_off_c, 5, 53, 127
1, 106096, Note_on_c, 0, 72, 127
1, 106096, Note_on_c, 10, 57, 127
1, 106096, Note_on_c, 5, 53, 127
1, 106237, Note_off_c, 0, 72, 127
1, 106240, Note_on_c, 11, 70, 127
1, 106381, Note_off_c, 11, 70, 127
1, 106384, Note_on_c, 0, 72, 127
1, 106525, Note_off_c, 0, 72, 127
1, 106528, Note_on_c, 2, 74, 127
1, 106669, Note_off_c, 2, 74, 127
1, 106672, Note_on_c, 0, 72, 127
1, 106813, Note_off_c, 0, 72, 127
1, 106816, Note_on_c, 11, 70, 127
1, 106957, Note_off_c, 11, 70, 127
1, 106957, Note_off_c, 5, 53, 127
1, 106957, Note_off_c, 10, 57, 127
1, 106960, Note_on_c, 10, 69, 127
1, 106960, Note_on_c, 5, 53, 127
1, 106960, Note_on_c, 10, 57, 127
1, 106960, Note_on_c, 0, 60, 127
1, 107101, Note_off_c, 10, 69, 127
1, 107104, Note_on_c, 7, 67, 127
1, 107240, Note_off_c, 0, 60, 127
1, 107240, Note_off_c, 10, 57, 127
1, 107240, Note_off_c, 5, 53, 127
1, 107244, Note_off_c, 7, 67, 127
1, 107247, Note_on_c, 5, 65, 127
1, 107247, Note_on_c, 5, 53, 127
1, 107247, Note_on_c, 10, 57, 127
1, 107247, Note_on_c, 0, 60, 127
1, 107388, Note_off_c, 5, 65, 127
1, 107391, Note_on_c, 7, 67, 127
1, 107527, Note_off_c, 0, 60, 127
1, 107527, Note_off_c, 10, 57, 127
1, 107527, Note_off_c, 5, 53, 127
1, 107531, Note_off_c, 7, 67, 127
1, 107534, Note_on_c, 10, 69, 127
1, 107534, Note_on_c, 10, 57, 127
1, 107534, Note_on_c, 0, 60, 127
1, 107534, Note_on_c, 5, 53, 127
1, 107675, Note_off_c, 10, 69, 127
1, 107678, Note_on_c, 11, 70, 127
1, 107814, Note_off_c, 5, 53, 127
1, 107814, Note_off_c, 0, 60, 127
1, 107814, Note_off_c, 10, 57, 127
1, 107818, Note_off_c, 11, 70, 127
1, 107845, Note_on_c, 5, 41, 127
1, 107845, Note_on_c, 5, 53, 127
1, 107845, Note_on_c, 0, 48, 127
1, 107845, Note_on_c, 0, 60, 127
1, 107845, Note_on_c, 10, 69, 127
1, 107845, Note_on_c, 5, 65, 127
1, 107845, Note_on_c, 0, 72, 127
1, 109745, Note_off_c, 0, 72, 127
1, 109745, Note_off_c, 5, 65, 127
1, 109745, Note_off_c, 10, 69, 127
1, 109745, Note_off_c, 0, 60, 127
1, 109745, Note_off_c, 0, 48, 127
1, 109745, Note_off_c, 5, 53, 127
1, 109745, Note_off_c, 5, 41, 127
1, 111109, Note_on_c, 5, 53, 127
1, 111109, Note_on_c, 10, 57, 127
1, 111109, Note_on_c, 5, 65, 127
1, 111688, Note_off_c, 5, 65, 127
1, 111690, Note_on_c, 7, 67, 127
1, 111882, Note_off_c, 7, 67, 127
1, 111884, Note_on_c, 10, 69, 127
1, 112268, Note_off_c, 10, 57, 127
1, 112268, Note_off_c, 5, 53, 127
1, 112463, Note_off_c, 10, 69, 127
1, 112465, Note_on_c, 7, 67, 127
1, 112560, Note_off_c, 7, 67, 127
1, 112562, Note_on_c, 5, 65, 127
1, 112657, Note_off_c, 5, 65, 127
1, 112659, Note_on_c, 5, 41, 127
1, 112659, Note_on_c, 0, 72, 127
1, 113238, Note_off_c, 5, 41, 127
1, 113240, Note_on_c, 7, 43, 127
1, 113432, Note_off_c, 7, 43, 127
1, 113432, Note_off_c, 0, 72, 127
1, 113434, Note_on_c, 10, 45, 127
1, 113821, Note_on_c, 5, 77, 127
1, 114013, Note_off_c, 10, 45, 127
1, 114015, Note_on_c, 7, 43, 127
1, 114110, Note_off_c, 7, 43, 127
1, 114112, Note_on_c, 5, 41, 127
1, 114207, Note_off_c, 5, 41, 127
1, 114207, Note_off_c, 5, 77, 127
1, 114209, Note_on_c, 0, 48, 127
1, 114209, Note_on_c, 4, 76, 127
1, 114788, Note_off_c, 4, 76, 127
1, 114790, Note_on_c, 5, 77, 127
1, 114982, Note_off_c, 5, 77, 127
1, 114982, Note_off_c, 0, 48, 127
1, 114984, Note_on_c, 5, 53, 127
1, 114984, Note_on_c, 7, 79, 127
1, 115104, Note_off_c, 7, 79, 127
1, 115113, Note_on_c, 5, 77, 127
1, 115175, Note_off_c, 5, 77, 127
1, 115185, Note_on_c, 7, 79, 127
1, 115257, Note_off_c, 7, 79, 127
1, 115257, Note_on_c, 5, 77, 127
1, 115329, Note_off_c, 5, 77, 127
1, 115329, Note_on_c, 7, 79, 127
1, 115401, Note_off_c, 7, 79, 127
1, 115401, Note_on_c, 5, 77, 127
1, 115473, Note_off_c, 5, 77, 127
1, 115473, Note_on_c, 7, 79, 127
1, 115535, Note_on_c, 5, 77, 127
1, 115545, Note_off_c, 7, 79, 127
1, 115607, Note_off_c, 5, 77, 127
1, 115617, Note_on_c, 4, 76, 127
1, 115689, Note_off_c, 4, 76, 127
1, 115689, Note_on_c, 5, 77, 127
1, 115759, Note_off_c, 5, 77, 127
1, 115760, Note_off_c, 5, 53, 127
1, 115762, Note_on_c, 11, 58, 127
1, 115762, Note_on_c, 5, 53, 127
1, 115762, Note_on_c, 7, 79, 127
1, 116341, Note_off_c, 7, 79, 127
1, 116343, Note_on_c, 10, 81, 127
1, 116535, Note_off_c, 10, 81, 127
1, 116535, Note_off_c, 5, 53, 127
1, 116535, Note_off_c, 11, 58, 127
1, 116537, Note_on_c, 4, 52, 127
1, 116537, Note_on_c, 7, 55, 127
1, 116537, Note_on_c, 11, 82, 127
1, 116729, Note_off_c, 11, 82, 127
1, 116731, Note_on_c, 10, 81, 127
1, 116923, Note_off_c, 10, 81, 127
1, 116923, Note_off_c, 7, 55, 127
1, 116925, Note_on_c, 0, 60, 127
1, 116925, Note_on_c, 11, 82, 127
1, 117117, Note_off_c, 11, 82, 127
1, 117119, Note_on_c, 0, 84, 127
1, 117311, Note_off_c, 0, 84, 127
1, 117311, Note_off_c, 0, 60, 127
1, 117311, Note_off_c, 4, 52, 127
1, 117313, Note_on_c, 5, 53, 127
1, 117313, Note_on_c, 10, 81, 127
1, 117892, Note_off_c, 5, 53, 127
1, 117894, Note_on_c, 7, 55, 127
1, 118086, Note_off_c, 7, 55, 127
1, 118088, Note_on_c, 10, 57, 127
1, 118180, Note_off_c, 10, 81, 127
1, 118282, Note_on_c, 7, 79, 127
1, 118474, Note_off_c, 7, 79, 127
1, 118474, Note_off_c, 10, 57, 127
1, 118476, Note_on_c, 5, 53, 127
1, 118476, Note_on_c, 10, 81, 127
1, 118668, Note_off_c, 10, 81, 127
1, 118670, Note_on_c, 11, 82, 127
1, 118862, Note_off_c, 11, 82, 127
1, 118862, Note_off_c, 5, 53, 127
1, 118864, Note_on_c, 0, 60, 127
1, 118864, Note_on_c, 10, 81, 127
1, 118934, Note_off_c, 10, 81, 127
1, 118935, Note_on_c, 7, 79, 127
1, 119005, Note_off_c, 7, 79, 127
1, 119006, Note_on_c, 10, 81, 127
1, 119076, Note_off_c, 10, 81, 127
1, 119077, Note_on_c, 7, 79, 127
1, 119439, Note_off_c, 7, 79, 127
1, 119444, Note_off_c, 0, 60, 127
1, 119446, Note_on_c, 0, 60, 127
1, 119446, Note_on_c, 10, 81, 127
1, 119638, Note_off_c, 10, 81, 127
1, 119638, Note_off_c, 0, 60, 127
1, 119640, Note_on_c, 0, 60, 127
1, 119640, Note_on_c, 5, 77, 127
1, 119832, Note_off_c, 5, 77, 127
1, 119834, Note_on_c, 4, 76, 127
1, 120026, Note_off_c, 4, 76, 127
1, 120026, Note_off_c, 0, 60, 127
1, 120028, Note_on_c, 12, 59, 127
1, 120028, Note_on_c, 5, 77, 127
1, 120220, Note_off_c, 5, 77, 127
1, 120222, Note_on_c, 7, 79, 127
1, 120414, Note_off_c, 7, 79, 127
1, 120414, Note_off_c, 12, 59, 127
1, 120416, Note_on_c, 0, 60, 127
1, 120416, Note_on_c, 5, 77, 127
1, 120544, Note_off_c, 5, 77, 127
1, 120545, Note_on_c, 4, 76, 127
1, 120609, Note_off_c, 4, 76, 127
1, 120610, Note_on_c, 5, 77, 127
1, 120674, Note_off_c, 5, 77, 127
1, 120675, Note_on_c, 4, 76, 127
1, 120802, Note_off_c, 0, 60, 127
1, 120804, Note_on_c, 0, 48, 127
1, 120973, Note_off_c, 4, 76, 127
1, 120997, Note_on_c, 4, 76, 127
1, 121189, Note_off_c, 4, 76, 127
1, 121189, Note_off_c, 0, 48, 127
1, 121191, Note_on_c, 5, 53, 127
1, 121191, Note_on_c, 2, 74, 127
1, 121576, Note_off_c, 2, 74, 127
1, 121578, Note_on_c, 4, 76, 127
1, 121770, Note_off_c, 4, 76, 127
1, 121772, Note_on_c, 0, 72, 127
1, 121964, Note_off_c, 0, 72, 127
1, 121966, Note_on_c, 12, 71, 127
1, 122351, Note_off_c, 12, 71, 127
1, 122353, Note_on_c, 10, 69, 127
1, 122545, Note_off_c, 10, 69, 127
1, 122547, Note_on_c, 7, 67, 127
1, 122739, Note_off_c, 7, 67, 127
1, 122739, Note_off_c, 5, 53, 127
1, 122741, Note_on_c, 4, 52, 127
1, 122741, Note_on_c, 10, 69, 127
1, 122831, Note_off_c, 10, 69, 127
1, 122838, Note_on_c, 12, 71, 127
1, 122928, Note_off_c, 12, 71, 127
1, 122935, Note_on_c, 0, 72, 127
1, 123127, Note_off_c, 4, 52, 127
1, 123129, Note_on_c, 2, 50, 127
1, 123318, Note_off_c, 0, 72, 127
1, 123321, Note_off_c, 2, 50, 127
1, 123323, Note_on_c, 0, 48, 127
1, 123323, Note_on_c, 0, 72, 127
1, 123515, Note_off_c, 0, 72, 127
1, 123515, Note_off_c, 0, 48, 127
1, 123517, Note_on_c, 12, 47, 127
1, 123517, Note_on_c, 2, 74, 127
1, 123612, Note_off_c, 2, 74, 127
1, 123614, Note_on_c, 0, 72, 127
1, 123709, Note_off_c, 0, 72, 127
1, 123711, Note_on_c, 2, 74, 127
1, 124093, Note_off_c, 2, 74, 127
1, 124098, Note_on_c, 4, 76, 127
1, 124290, Note_off_c, 4, 76, 127
1, 124290, Note_off_c, 12, 47, 127
1, 124292, Note_on_c, 5, 77, 127
1, 124484, Note_off_c, 5, 77, 127
1, 124486, Note_on_c, 4, 76, 127
1, 124678, Note_off_c, 4, 76, 127
1, 124680, Note_on_c, 7, 43, 127
1, 124680, Note_on_c, 5, 77, 127
1, 124872, Note_off_c, 5, 77, 127
1, 124874, Note_on_c, 7, 79, 127
1, 125066, Note_off_c, 7, 79, 127
1, 125066, Note_off_c, 7, 43, 127
1, 125068, Note_on_c, 0, 48, 127
1, 125068, Note_on_c, 4, 76, 127
1, 125353, Note_off_c, 4, 76, 127
1, 125358, Note_on_c, 5, 77, 127
1, 125453, Note_off_c, 5, 77, 127
1, 125455, Note_on_c, 4, 76, 127
1, 125550, Note_off_c, 4, 76, 127
1, 125552, Note_on_c, 2, 74, 127
1, 125647, Note_off_c, 2, 74, 127
1, 125647, Note_off_c, 0, 48, 127
1, 125649, Note_on_c, 2, 50, 127
1, 125649, Note_on_c, 4, 76, 127
1, 125744, Note_off_c, 4, 76, 127
1, 125746, Note_on_c, 5, 77, 127
1, 125841, Note_off_c, 5, 77, 127
1, 125841, Note_off_c, 2, 50, 127
1, 125843, Note_on_c, 4, 52, 127
1, 125843, Note_on_c, 7, 79, 127
1, 126228, Note_off_c, 7, 79, 127
1, 126228, Note_off_c, 4, 52, 127
1, 126230, Note_on_c, 5, 53, 127
1, 126230, Note_on_c, 0, 72, 127
1, 126615, Note_off_c, 0, 72, 127
1, 126615, Note_off_c, 5, 53, 127
1, 126617, Note_on_c, 2, 50, 127
1, 126617, Note_on_c, 5, 77, 127
1, 127002, Note_off_c, 5, 77, 127
1, 127002, Note_off_c, 2, 50, 127
1, 127004, Note_on_c, 0, 48, 127
1, 127004, Note_on_c, 4, 76, 127
1, 127196, Note_off_c, 4, 76, 127
1, 127198, Note_on_c, 2, 74, 127
1, 127390, Note_off_c, 2, 74, 127
1, 127390, Note_off_c, 0, 48, 127
1, 127392, Note_on_c, 7, 55, 127
1, 127392, Note_on_c, 4, 76, 127
1, 127487, Note_off_c, 4, 76, 127
1, 127495, Note_on_c, 2, 74, 127
1, 127586, Note_on_c, 4, 76, 127
1, 127590, Note_off_c, 2, 74, 127
1, 127677, Note_on_c, 2, 74, 127
1, 127689, Note_off_c, 4, 76, 127
1, 127768, Note_on_c, 4, 76, 127
1, 127772, Note_off_c, 2, 74, 127
1, 127778, Note_off_c, 7, 55, 127
1, 127780, Note_on_c, 7, 43, 127
1, 127859, Note_on_c, 2, 74, 127
1, 127863, Note_off_c, 4, 76, 127
1, 127973, Note_off_c, 2, 74, 127
1, 127974, Note_on_c, 0, 72, 127
1, 128166, Note_off_c, 0, 72, 127
1, 128166, Note_off_c, 7, 43, 127
1, 128168, Note_on_c, 0, 48, 127
1, 128168, Note_on_c, 0, 72, 127
1, 128747, Note_off_c, 0, 48, 127
1, 128749, Note_on_c, 2, 50, 127
1, 128941, Note_off_c, 2, 50, 127
1, 128943, Note_on_c, 4, 52, 127
1, 129277, Note_off_c, 0, 72, 127
1, 129522, Note_off_c, 4, 52, 127
1, 129524, Note_on_c, 2, 50, 127
1, 129619, Note_off_c, 2, 50, 127
1, 129621, Note_on_c, 0, 48, 127
1, 129716, Note_off_c, 0, 48, 127
1, 129718, Note_on_c, 0, 48, 127
1, 129718, Note_on_c, 7, 79, 127
1, 130297, Note_off_c, 7, 79, 127
1, 130299, Note_on_c, 5, 77, 127
1, 130491, Note_off_c, 5, 77, 127
1, 130493, Note_on_c, 4, 76, 127
1, 130928, Note_off_c, 0, 48, 127
1, 131072, Note_off_c, 4, 76, 127
1, 131074, Note_on_c, 5, 77, 127
1, 131169, Note_off_c, 5, 77, 127
1, 131171, Note_on_c, 7, 79, 127
1, 131266, Note_off_c, 7, 79, 127
1, 131268, Note_on_c, 0, 60, 127
1, 131268, Note_on_c, 0, 72, 127
1, 131847, Note_off_c, 0, 60, 127
1, 131849, Note_on_c, 11, 58, 127
1, 132041, Note_off_c, 11, 58, 127
1, 132041, Note_off_c, 0, 72, 127
1, 132043, Note_on_c, 11, 58, 127
1, 132169, Note_off_c, 11, 58, 127
1, 132172, Note_on_c, 10, 57, 127
1, 132298, Note_off_c, 10, 57, 127
1, 132301, Note_on_c, 11, 58, 127
1, 132427, Note_off_c, 11, 58, 127
1, 132430, Note_on_c, 4, 76, 127
1, 132430, Note_on_c, 10, 57, 127
1, 132556, Note_off_c, 10, 57, 127
1, 132559, Note_on_c, 11, 58, 127
1, 132685, Note_off_c, 11, 58, 127
1, 132688, Note_on_c, 0, 60, 127
1, 132814, Note_off_c, 0, 60, 127
1, 132815, Note_off_c, 4, 76, 127
1, 132817, Note_on_c, 10, 57, 127
1, 132817, Note_on_c, 5, 77, 127
1, 132894, Note_off_c, 5, 77, 127
1, 132894, Note_on_c, 4, 76, 127
1, 132971, Note_off_c, 4, 76, 127
1, 132971, Note_on_c, 5, 77, 127
1, 133203, Note_off_c, 10, 57, 127
1, 133205, Note_on_c, 7, 55, 127
1, 133393, Note_off_c, 5, 77, 127
1, 133397, Note_off_c, 7, 55, 127
1, 133399, Note_on_c, 5, 53, 127
1, 133399, Note_on_c, 7, 79, 127
1, 133591, Note_off_c, 7, 79, 127
1, 133591, Note_off_c, 5, 53, 127
1, 133593, Note_on_c, 4, 52, 127
1, 133593, Note_on_c, 7, 79, 127
1, 133785, Note_off_c, 7, 79, 127
1, 133787, Note_on_c, 10, 81, 127
1, 133979, Note_off_c, 10, 81, 127
1, 133979, Note_off_c, 4, 52, 127
1, 133981, Note_on_c, 0, 48, 127
1, 133981, Note_on_c, 11, 82, 127
1, 134173, Note_off_c, 11, 82, 127
1, 134175, Note_on_c, 10, 81, 127
1, 134367, Note_off_c, 10, 81, 127
1, 134367, Note_off_c, 0, 48, 127
1, 134369, Note_on_c, 5, 53, 127
1, 134369, Note_on_c, 10, 81, 127
1, 134754, Note_off_c, 5, 53, 127
1, 134756, Note_on_c, 4, 52, 127
1, 134948, Note_off_c, 4, 52, 127
1, 134950, Note_on_c, 2, 50, 127
1, 135142, Note_off_c, 2, 50, 127
1, 135144, Note_on_c, 1, 49, 127
1, 135236, Note_off_c, 10, 81, 127
1, 135338, Note_on_c, 7, 79, 127
1, 135530, Note_off_c, 7, 79, 127
1, 135530, Note_off_c, 1, 49, 127
1, 135532, Note_on_c, 10, 45, 127
1, 135532, Note_on_c, 11, 82, 127
1, 135724, Note_off_c, 11, 82, 127
1, 135726, Note_on_c, 10, 81, 127
1, 135918, Note_off_c, 10, 81, 127
1, 135918, Note_off_c, 10, 45, 127
1, 135920, Note_on_c, 2, 50, 127
1, 135920, Note_on_c, 7, 79, 127
1, 136112, Note_off_c, 7, 79, 127
1, 136114, Note_on_c, 5, 77, 127
1, 136306, Note_off_c, 5, 77, 127
1, 136306, Note_off_c, 2, 50, 127
1, 136308, Note_on_c, 7, 43, 127
1, 136308, Note_on_c, 7, 79, 127
1, 136500, Note_off_c, 7, 79, 127
1, 136502, Note_on_c, 10, 81, 127
1, 136694, Note_off_c, 10, 81, 127
1, 136694, Note_off_c, 7, 43, 127
1, 136696, Note_on_c, 10, 45, 127
1, 136696, Note_on_c, 7, 79, 127
1, 136853, Note_on_c, 5, 77, 127
1, 136856, Note_off_c, 7, 79, 127
1, 136920, Note_on_c, 7, 79, 127
1, 136923, Note_off_c, 5, 77, 127
1, 136987, Note_on_c, 5, 77, 127
1, 136990, Note_off_c, 7, 79, 127
1, 137054, Note_on_c, 7, 79, 127
1, 137057, Note_off_c, 5, 77, 127
1, 137121, Note_on_c, 5, 77, 127
1, 137124, Note_off_c, 7, 79, 127
1, 137259, Note_off_c, 5, 77, 127
1, 137278, Note_on_c, 4, 76, 127
1, 137466, Note_off_c, 4, 76, 127
1, 137470, Note_off_c, 10, 45, 127
1, 137472, Note_on_c, 2, 50, 127
1, 137472, Note_on_c, 2, 74, 127
1, 137874, Note_off_c, 2, 50, 127
1, 137895, Note_on_c, 4, 52, 127
1, 137951, Note_off_c, 4, 52, 127
1, 137953, Note_on_c, 6, 54, 127
1, 138009, Note_off_c, 6, 54, 127
1, 138011, Note_on_c, 7, 55, 127
1, 138067, Note_off_c, 7, 55, 127
1, 138069, Note_on_c, 10, 57, 127
1, 138125, Note_off_c, 10, 57, 127
1, 138127, Note_on_c, 12, 59, 127
1, 138183, Note_off_c, 12, 59, 127
1, 138185, Note_on_c, 0, 60, 127
1, 138241, Note_off_c, 0, 60, 127
1, 138243, Note_on_c, 2, 62, 127
1, 138435, Note_off_c, 2, 62, 127
1, 138437, Note_on_c, 10, 57, 127
1, 138629, Note_off_c, 10, 57, 127
1, 138631, Note_on_c, 2, 62, 127
1, 138772, Note_off_c, 2, 74, 127
1, 138823, Note_off_c, 2, 62, 127
1, 138825, Note_on_c, 0, 60, 127
1, 139016, Note_off_c, 0, 60, 127
1, 139018, Note_on_c, 12, 59, 127
1, 139383, Note_on_c, 7, 67, 127
1, 139441, Note_on_c, 10, 69, 127
1, 139442, Note_off_c, 7, 67, 127
1, 139499, Note_on_c, 12, 71, 127
1, 139500, Note_off_c, 10, 69, 127
1, 139557, Note_on_c, 0, 72, 127
1, 139558, Note_off_c, 12, 71, 127
1, 139615, Note_on_c, 2, 74, 127
1, 139616, Note_off_c, 0, 72, 127
1, 139673, Note_on_c, 4, 76, 127
1, 139674, Note_off_c, 2, 74, 127
1, 139731, Note_on_c, 5, 77, 127
1, 139732, Note_off_c, 4, 76, 127
1, 139789, Note_on_c, 7, 79, 127
1, 139790, Note_off_c, 5, 77, 127
1, 139981, Note_off_c, 7, 79, 127
1, 139981, Note_off_c, 12, 59, 127
1, 139983, Note_on_c, 7, 55, 127
1, 139983, Note_on_c, 2, 74, 127
1, 140175, Note_off_c, 2, 74, 127
1, 140175, Note_off_c, 7, 55, 127
1, 140177, Note_on_c, 10, 57, 127
1, 140177, Note_on_c, 7, 79, 127
1, 140369, Note_off_c, 7, 79, 127
1, 140369, Note_off_c, 10, 57, 127
1, 140371, Note_on_c, 12, 59, 127
1, 140371, Note_on_c, 5, 77, 127
1, 140563, Note_off_c, 5, 77, 127
1, 140563, Note_off_c, 12, 59, 127
1, 140565, Note_on_c, 0, 60, 127
1, 140565, Note_on_c, 4, 76, 127
1, 140645, Note_off_c, 4, 76, 127
1, 140646, Note_on_c, 2, 74, 127
1, 140726, Note_off_c, 2, 74, 127
1, 140727, Note_on_c, 4, 76, 127
1, 141144, Note_off_c, 0, 60, 127
1, 141146, Note_on_c, 2, 62, 127
1, 141338, Note_off_c, 2, 62, 127
1, 141340, Note_on_c, 0, 60, 127
1, 141533, Note_off_c, 4, 76, 127
1, 141534, Note_on_c, 0, 72, 127
1, 141726, Note_off_c, 0, 72, 127
1, 141728, Note_on_c, 2, 74, 127
1, 141920, Note_off_c, 2, 74, 127
1, 141920, Note_off_c, 0, 60, 127
1, 141922, Note_on_c, 11, 58, 127
1, 141922, Note_on_c, 4, 76, 127
1, 142114, Note_off_c, 4, 76, 127
1, 142114, Note_off_c, 11, 58, 127
1, 142116, Note_on_c, 10, 57, 127
1, 142116, Note_on_c, 5, 77, 127
1, 142307, Note_off_c, 5, 77, 127
1, 142310, Note_on_c, 7, 79, 127
1, 142501, Note_off_c, 7, 79, 127
1, 142504, Note_on_c, 5, 77, 127
1, 142695, Note_off_c, 5, 77, 127
1, 142698, Note_on_c, 3, 75, 127
1, 142890, Note_off_c, 3, 75, 127
1, 142890, Note_off_c, 10, 57, 127
1, 142892, Note_on_c, 3, 75, 127
1, 143084, Note_off_c, 3, 75, 127
1, 143086, Note_on_c, 5, 53, 127
1, 143086, Note_on_c, 2, 74, 127
1, 143278, Note_off_c, 2, 74, 127
1, 143278, Note_off_c, 5, 53, 127
1, 143280, Note_on_c, 7, 55, 127
1, 143280, Note_on_c, 3, 75, 127
1, 143472, Note_off_c, 3, 75, 127
1, 143472, Note_off_c, 7, 55, 127
1, 143474, Note_on_c, 10, 57, 127
1, 143474, Note_on_c, 5, 77, 127
1, 143666, Note_off_c, 5, 77, 127
1, 143666, Note_off_c, 10, 57, 127
1, 143668, Note_on_c, 11, 58, 127
1, 143668, Note_on_c, 2, 74, 127
1, 143748, Note_off_c, 2, 74, 127
1, 143749, Note_on_c, 0, 72, 127
1, 143829, Note_off_c, 0, 72, 127
1, 143830, Note_on_c, 2, 74, 127
1, 144249, Note_on_c, 7, 79, 127
1, 144252, Note_off_c, 2, 74, 127
1, 144441, Note_off_c, 7, 79, 127
1, 144441, Note_off_c, 11, 58, 127
1, 144443, Note_on_c, 7, 79, 127
1, 144635, Note_off_c, 7, 79, 127
1, 144637, Note_on_c, 10, 57, 127
1, 144637, Note_on_c, 5, 77, 127
1, 144829, Note_off_c, 5, 77, 127
1, 144829, Note_off_c, 10, 57, 127
1, 144831, Note_on_c, 11, 58, 127
1, 144831, Note_on_c, 7, 79, 127
1, 145023, Note_off_c, 7, 79, 127
1, 145023, Note_off_c, 11, 58, 127
1, 145025, Note_on_c, 0, 60, 127
1, 145025, Note_on_c, 10, 81, 127
1, 145217, Note_off_c, 10, 81, 127
1, 145217, Note_off_c, 0, 60, 127
1, 145219, Note_on_c, 2, 62, 127
1, 145219, Note_on_c, 5, 77, 127
1, 145601, Note_off_c, 5, 77, 127
1, 145606, Note_on_c, 7, 79, 127
1, 145696, Note_off_c, 7, 79, 127
1, 145703, Note_on_c, 10, 81, 127
1, 145793, Note_off_c, 10, 81, 127
1, 145800, Note_on_c, 11, 82, 127
1, 145992, Note_off_c, 11, 82, 127
1, 145992, Note_off_c, 2, 62, 127
1, 145994, Note_on_c, 11, 82, 127
1, 146186, Note_off_c, 11, 82, 127
1, 146188, Note_on_c, 0, 48, 127
1, 146188, Note_on_c, 10, 81, 127
1, 146380, Note_off_c, 10, 81, 127
1, 146380, Note_off_c, 0, 48, 127
1, 146382, Note_on_c, 2, 50, 127
1, 146382, Note_on_c, 11, 82, 127
1, 146574, Note_off_c, 11, 82, 127
1, 146574, Note_off_c, 2, 50, 127
1, 146576, Note_on_c, 4, 52, 127
1, 146576, Note_on_c, 0, 84, 127
1, 146768, Note_off_c, 0, 84, 127
1, 146768, Note_off_c, 4, 52, 127
1, 146770, Note_on_c, 5, 53, 127
1, 146770, Note_on_c, 10, 81, 127
1, 146964, Note_on_c, 5, 41, 127
1, 147112, Note_off_c, 5, 53, 127
1, 147134, Note_off_c, 5, 41, 127
1, 147157, Note_on_c, 7, 43, 127
1, 147327, Note_off_c, 7, 43, 127
1, 147350, Note_on_c, 10, 45, 127
1, 147520, Note_off_c, 10, 45, 127
1, 147541, Note_off_c, 10, 81, 127
1, 147543, Note_on_c, 11, 46, 127
1, 147737, Note_on_c, 8, 80, 127
1, 147897, Note_off_c, 8, 80, 127
1, 147925, Note_off_c, 11, 46, 127
1, 147930, Note_on_c, 7, 79, 127
1, 148090, Note_off_c, 7, 79, 127
1, 148123, Note_on_c, 5, 77, 127
1, 148283, Note_off_c, 5, 77, 127
1, 148316, Note_on_c, 0, 48, 127
1, 148316, Note_on_c, 4, 76, 127
1, 148508, Note_off_c, 4, 76, 127
1, 148510, Note_on_c, 0, 72, 127
1, 148702, Note_off_c, 0, 72, 127
1, 148704, Note_on_c, 11, 82, 127
1, 148962, Note_on_c, 8, 80, 127
1, 148963, Note_off_c, 11, 82, 127
1, 149089, Note_off_c, 8, 80, 127
1, 149089, Note_off_c, 0, 48, 127
1, 149091, Note_on_c, 8, 80, 127
1, 149285, Note_on_c, 5, 53, 127
1, 149477, Note_off_c, 5, 53, 127
1, 149479, Note_on_c, 7, 55, 127
1, 149671, Note_off_c, 7, 55, 127
1, 149673, Note_on_c, 8, 56, 127
1, 149865, Note_off_c, 8, 56, 127
1, 149867, Note_on_c, 11, 58, 127
1, 150446, Note_off_c, 11, 58, 127
1, 150446, Note_off_c, 8, 80, 127
1, 150448, Note_on_c, 7, 79, 127
1, 150640, Note_off_c, 7, 79, 127
1, 150642, Note_on_c, 7, 79, 127
1, 150836, Note_on_c, 7, 55, 127
1, 150931, Note_off_c, 7, 79, 127
1, 150933, Note_on_c, 8, 80, 127
1, 151028, Note_off_c, 8, 80, 127
1, 151028, Note_off_c, 7, 55, 127
1, 151030, Note_on_c, 8, 56, 127
1, 151030, Note_on_c, 5, 77, 127
1, 151222, Note_off_c, 8, 56, 127
1, 151224, Note_on_c, 11, 58, 127
1, 151319, Note_off_c, 5, 77, 127
1, 151321, Note_on_c, 7, 79, 127
1, 151416, Note_off_c, 7, 79, 127
1, 151416, Note_off_c, 11, 58, 127
1, 151418, Note_on_c, 0, 60, 127
1, 151418, Note_on_c, 4, 76, 127
1, 151803, Note_off_c, 4, 76, 127
1, 151803, Note_off_c, 0, 60, 127
1, 151805, Note_on_c, 5, 53, 127
1, 151805, Note_on_c, 5, 77, 127
1, 151997, Note_off_c, 5, 77, 127
1, 151999, Note_on_c, 7, 79, 127
1, 152191, Note_off_c, 7, 79, 127
1, 152191, Note_off_c, 5, 53, 127
1, 152193, Note_on_c, 0, 48, 127
1, 152193, Note_on_c, 8, 80, 127
1, 152321, Note_off_c, 8, 80, 127
1, 152322, Note_on_c, 7, 79, 127
1, 152386, Note_off_c, 7, 79, 127
1, 152387, Note_on_c, 8, 80, 127
1, 152451, Note_off_c, 8, 80, 127
1, 152452, Note_on_c, 7, 79, 127
1, 152516, Note_off_c, 7, 79, 127
1, 152517, Note_on_c, 8, 80, 127
1, 152581, Note_off_c, 8, 80, 127
1, 152582, Note_on_c, 7, 79, 127
1, 152773, Note_off_c, 7, 79, 127
1, 152776, Note_on_c, 5, 77, 127
1, 152968, Note_off_c, 5, 77, 127
1, 152968, Note_off_c, 0, 48, 127
1, 152970, Note_on_c, 5, 41, 127
1, 152970, Note_on_c, 5, 77, 127
1, 154517, Note_off_c, 5, 77, 127
1, 154517, Note_off_c, 5, 41, 127
1, 154903, Note_on_c, 10, 69, 127
1, 154903, Note_on_c, 5, 65, 127
1, 154903, Note_on_c, 5, 53, 127
1, 155085, Note_off_c, 5, 53, 127
1, 155087, Note_on_c, 4, 52, 127
1, 155269, Note_off_c, 4, 52, 127
1, 155271, Note_on_c, 5, 53, 127
1, 155638, Note_off_c, 5, 53, 127
1, 155638, Note_off_c, 10, 69, 127
1, 155640, Note_on_c, 2, 74, 127
1, 155640, Note_on_c, 11, 46, 127
1, 156006, Note_off_c, 5, 65, 127
1, 156007, Note_off_c, 11, 46, 127
1, 156007, Note_off_c, 2, 74, 127
1, 156009, Note_on_c, 0, 72, 127
1, 156009, Note_on_c, 10, 45, 127
1, 156191, Note_off_c, 0, 72, 127
1, 156193, Note_on_c, 2, 74, 127
1, 156375, Note_off_c, 2, 74, 127
1, 156375, Note_off_c, 10, 45, 127
1, 156377, Note_on_c, 0, 72, 127
1, 156377, Note_on_c, 7, 55, 127
1, 156377, Note_on_c, 11, 46, 127
1, 156453, Note_off_c, 0, 72, 127
1, 156454, Note_on_c, 11, 70, 127
1, 156520, Note_off_c, 11, 70, 127
1, 156521, Note_on_c, 0, 72, 127
1, 156597, Note_off_c, 0, 72, 127
1, 156598, Note_on_c, 11, 70, 127
1, 156744, Note_off_c, 7, 55, 127
1, 156746, Note_on_c, 5, 53, 127
1, 156930, Note_on_c, 10, 69, 127
1, 156932, Note_off_c, 11, 70, 127
1, 157112, Note_off_c, 10, 69, 127
1, 157112, Note_off_c, 11, 46, 127
1, 157114, Note_on_c, 10, 69, 127
1, 157114, Note_on_c, 0, 48, 127
1, 157204, Note_off_c, 10, 69, 127
1, 157206, Note_on_c, 7, 67, 127
1, 157296, Note_off_c, 7, 67, 127
1, 157298, Note_on_c, 10, 69, 127
1, 157388, Note_off_c, 10, 69, 127
1, 157390, Note_on_c, 7, 67, 127
1, 157480, Note_off_c, 7, 67, 127
1, 157480, Note_off_c, 5, 53, 127
1, 157482, Note_on_c, 10, 69, 127
1, 157482, Note_on_c, 4, 52, 127
1, 157572, Note_off_c, 10, 69, 127
1, 157574, Note_on_c, 7, 67, 127
1, 157664, Note_off_c, 7, 67, 127
1, 157666, Note_on_c, 10, 69, 127
1, 157756, Note_off_c, 10, 69, 127
1, 157758, Note_on_c, 7, 67, 127
1, 157848, Note_off_c, 7, 67, 127
1, 157848, Note_off_c, 4, 52, 127
1, 157848, Note_off_c, 0, 48, 127
1, 157850, Note_on_c, 5, 65, 127
1, 157850, Note_on_c, 5, 53, 127
1, 157850, Note_on_c, 5, 41, 127
1, 158217, Note_off_c, 5, 41, 127
1, 158217, Note_off_c, 5, 53, 127
1, 158217, Note_off_c, 5, 65, 127
1, 158219, Note_on_c, 5, 65, 127
1, 158219, Note_on_c, 10, 69, 127
1, 158219, Note_on_c, 5, 53, 127
1, 158401, Note_off_c, 5, 53, 127
1, 158403, Note_on_c, 4, 52, 127
1, 158585, Note_off_c, 4, 52, 127
1, 158587, Note_on_c, 5, 53, 127
1, 158954, Note_off_c, 5, 53, 127
1, 158954, Note_off_c, 10, 69, 127
1, 158954, Note_off_c, 5, 65, 127
1, 158956, Note_on_c, 2, 74, 127
1, 158956, Note_on_c, 11, 46, 127
1, 159323, Note_off_c, 11, 46, 127
1, 159323, Note_off_c, 2, 74, 127
1, 159325, Note_on_c, 0, 72, 127
1, 159325, Note_on_c, 10, 45, 127
1, 159507, Note_off_c, 0, 72, 127
1, 159509, Note_on_c, 2, 74, 127
1, 159691, Note_off_c, 2, 74, 127
1, 159691, Note_off_c, 10, 45, 127
1, 159693, Note_on_c, 0, 72, 127
1, 159693, Note_on_c, 2, 50, 127
1, 159693, Note_on_c, 11, 46, 127
1, 159815, Note_off_c, 0, 72, 127
1, 159816, Note_on_c, 11, 70, 127
1, 159876, Note_off_c, 11, 70, 127
1, 159878, Note_on_c, 0, 72, 127
1, 159938, Note_off_c, 0, 72, 127
1, 159940, Note_on_c, 11, 70, 127
1, 160000, Note_off_c, 11, 70, 127
1, 160002, Note_on_c, 0, 72, 127
1, 160062, Note_off_c, 0, 72, 127
1, 160062, Note_off_c, 2, 50, 127
1, 160064, Note_on_c, 11, 70, 127
1, 160064, Note_on_c, 5, 53, 127
1, 160245, Note_off_c, 11, 70, 127
1, 160248, Note_on_c, 10, 69, 127
1, 160430, Note_off_c, 10, 69, 127
1, 160430, Note_off_c, 11, 46, 127
1, 160432, Note_on_c, 7, 67, 127
1, 160432, Note_on_c, 0, 48, 127
1, 160799, Note_off_c, 5, 53, 127
1, 160801, Note_on_c, 4, 52, 127
1, 161168, Note_off_c, 4, 52, 127
1, 161168, Note_off_c, 0, 48, 127
1, 161170, Note_on_c, 7, 55, 127
1, 161373, Note_off_c, 7, 67, 127
1, 161537, Note_off_c, 7, 55, 127
1, 161539, Note_on_c, 4, 76, 127
1, 161539, Note_on_c, 0, 60, 127
1, 161721, Note_off_c, 0, 60, 127
1, 161723, Note_on_c, 2, 62, 127
1, 161905, Note_off_c, 2, 62, 127
1, 161907, Note_on_c, 0, 60, 127
1, 162274, Note_off_c, 0, 60, 127
1, 162274, Note_off_c, 4, 76, 127
1, 162276, Note_on_c, 0, 72, 127
1, 162276, Note_on_c, 11, 58, 127
1, 162643, Note_off_c, 11, 58, 127
1, 162643, Note_off_c, 0, 72, 127
1, 162645, Note_on_c, 5, 77, 127
1, 162645, Note_on_c, 10, 57, 127
1, 162827, Note_off_c, 5, 77, 127
1, 162829, Note_on_c, 7, 79, 127
1, 163011, Note_off_c, 7, 79, 127
1, 163011, Note_off_c, 10, 57, 127
1, 163013, Note_on_c, 10, 81, 127
1, 163013, Note_on_c, 4, 52, 127
1, 163103, Note_off_c, 10, 81, 127
1, 163105, Note_on_c, 7, 79, 127
1, 163195, Note_off_c, 7, 79, 127
1, 163197, Note_on_c, 10, 81, 127
1, 163287, Note_off_c, 10, 81, 127
1, 163289, Note_on_c, 7, 79, 127
1, 163379, Note_off_c, 7, 79, 127
1, 163381, Note_on_c, 10, 81, 127
1, 163471, Note_off_c, 10, 81, 127
1, 163473, Note_on_c, 7, 79, 127
1, 163563, Note_off_c, 7, 79, 127
1, 163565, Note_on_c, 5, 77, 127
1, 163656, Note_off_c, 5, 77, 127
1, 163657, Note_on_c, 7, 79, 127
1, 163747, Note_off_c, 4, 52, 127
1, 163748, Note_off_c, 7, 79, 127
1, 163749, Note_on_c, 10, 81, 127
1, 163749, Note_on_c, 5, 53, 127
1, 164300, Note_off_c, 10, 81, 127
1, 164302, Note_on_c, 11, 82, 127
1, 164484, Note_off_c, 11, 82, 127
1, 164484, Note_off_c, 5, 53, 127
1, 164486, Note_on_c, 10, 81, 127
1, 164486, Note_on_c, 1, 49, 127
1, 164668, Note_off_c, 10, 81, 127
1, 164670, Note_on_c, 7, 79, 127
1, 164852, Note_off_c, 7, 79, 127
1, 164852, Note_off_c, 1, 49, 127
1, 164854, Note_on_c, 5, 77, 127
1, 164854, Note_on_c, 2, 50, 127
1, 164931, Note_on_c, 4, 76, 127
1, 164934, Note_off_c, 5, 77, 127
1, 165010, Note_on_c, 5, 77, 127
1, 165011, Note_off_c, 4, 76, 127
1, 165036, Note_off_c, 2, 50, 127
1, 165038, Note_on_c, 4, 52, 127
1, 165220, Note_off_c, 4, 52, 127
1, 165222, Note_on_c, 2, 50, 127
1, 165407, Note_on_c, 7, 79, 127
1, 165410, Note_off_c, 5, 77, 127
1, 165589, Note_off_c, 7, 79, 127
1, 165589, Note_off_c, 2, 50, 127
1, 165591, Note_on_c, 10, 81, 127
1, 165591, Note_on_c, 0, 48, 127
1, 165958, Note_off_c, 0, 48, 127
1, 165958, Note_off_c, 10, 81, 127
1, 165960, Note_on_c, 2, 74, 127
1, 165960, Note_on_c, 11, 46, 127
1, 166327, Note_off_c, 11, 46, 127
1, 166327, Note_off_c, 2, 74, 127
1, 166329, Note_on_c, 4, 76, 127
1, 166329, Note_on_c, 7, 43, 127
1, 166696, Note_off_c, 7, 43, 127
1, 166696, Note_off_c, 4, 76, 127
1, 166698, Note_on_c, 2, 74, 127
1, 166698, Note_on_c, 10, 45, 127
1, 166788, Note_off_c, 2, 74, 127
1, 166790, Note_on_c, 1, 73, 127
1, 166880, Note_off_c, 1, 73, 127
1, 166882, Note_on_c, 12, 71, 127
1, 166972, Note_off_c, 12, 71, 127
1, 166974, Note_on_c, 1, 73, 127
1, 167064, Note_off_c, 1, 73, 127
1, 167064, Note_off_c, 10, 45, 127
1, 167066, Note_on_c, 2, 74, 127
1, 167066, Note_on_c, 2, 38, 127
1, 167433, Note_off_c, 2, 38, 127
1, 167435, Note_on_c, 2, 50, 127
1, 167617, Note_off_c, 2, 50, 127
1, 167619, Note_on_c, 4, 52, 127
1, 167801, Note_off_c, 4, 52, 127
1, 167803, Note_on_c, 5, 53, 127
1, 168006, Note_off_c, 2, 74, 127
1, 168170, Note_off_c, 5, 53, 127
1, 168172, Note_on_c, 7, 79, 127
1, 168172, Note_on_c, 4, 52, 127
1, 168354, Note_off_c, 4, 52, 127
1, 168356, Note_on_c, 2, 50, 127
1, 168538, Note_off_c, 2, 50, 127
1, 168540, Note_on_c, 4, 52, 127
1, 168907, Note_off_c, 4, 52, 127
1, 168907, Note_off_c, 7, 79, 127
1, 168909, Note_on_c, 0, 72, 127
1, 168909, Note_on_c, 5, 53, 127
1, 169276, Note_off_c, 5, 53, 127
1, 169276, Note_off_c, 0, 72, 127
1, 169278, Note_on_c, 5, 77, 127
1, 169278, Note_on_c, 2, 50, 127
1, 169278, Note_on_c, 12, 47, 127
1, 169460, Note_off_c, 5, 77, 127
1, 169462, Note_on_c, 7, 79, 127
1, 169644, Note_off_c, 7, 79, 127
1, 169644, Note_off_c, 12, 47, 127
1, 169644, Note_off_c, 2, 50, 127
1, 169646, Note_on_c, 4, 76, 127
1, 169646, Note_on_c, 0, 48, 127
1, 169717, Note_off_c, 4, 76, 127
1, 169718, Note_on_c, 2, 74, 127
1, 169789, Note_off_c, 2, 74, 127
1, 169790, Note_on_c, 4, 76, 127
1, 170013, Note_off_c, 0, 48, 127
1, 170015, Note_on_c, 5, 41, 127
1, 170182, Note_off_c, 4, 76, 127
1, 170199, Note_on_c, 5, 77, 127
1, 170381, Note_off_c, 5, 77, 127
1, 170381, Note_off_c, 5, 41, 127
1, 170383, Note_on_c, 4, 76, 127
1, 170383, Note_on_c, 7, 43, 127
1, 170473, Note_off_c, 4, 76, 127
1, 170475, Note_on_c, 2, 74, 127
1, 170565, Note_off_c, 2, 74, 127
1, 170567, Note_on_c, 4, 76, 127
1, 170657, Note_off_c, 4, 76, 127
1, 170659, Note_on_c, 2, 74, 127
1, 170749, Note_off_c, 2, 74, 127
1, 170751, Note_on_c, 4, 76, 127
1, 170841, Note_off_c, 4, 76, 127
1, 170843, Note_on_c, 2, 74, 127
1, 170933, Note_off_c, 2, 74, 127
1, 170935, Note_on_c, 4, 76, 127
1, 171025, Note_off_c, 4, 76, 127
1, 171027, Note_on_c, 2, 74, 127
1, 171117, Note_off_c, 2, 74, 127
1, 171117, Note_off_c, 7, 43, 127
1, 171119, Note_on_c, 0, 72, 127
1, 171119, Note_on_c, 0, 48, 127
1, 171119, Note_on_c, 0, 36, 127
1, 171301, Note_off_c, 0, 36, 127
1, 171302, Note_off_c, 0, 48, 127
1, 171310, Note_on_c, 11, 46, 127
1, 171485, Note_off_c, 0, 72, 127
1, 171493, Note_off_c, 11, 46, 127
1, 171503, Note_on_c, 10, 45, 127
1, 171503, Note_on_c, 5, 77, 127
1, 171685, Note_off_c, 10, 45, 127
1, 171687, Note_on_c, 7, 43, 127
1, 171869, Note_off_c, 7, 43, 127
1, 171871, Note_on_c, 10, 45, 127
1, 172053, Note_off_c, 5, 77, 127
1, 172055, Note_on_c, 3, 75, 127
1, 172237, Note_off_c, 3, 75, 127
1, 172237, Note_off_c, 10, 45, 127
1, 172239, Note_on_c, 11, 46, 127
1, 172239, Note_on_c, 2, 74, 127
1, 172421, Note_off_c, 2, 74, 127
1, 172423, Note_on_c, 0, 72, 127
1, 172605, Note_off_c, 0, 72, 127
1, 172605, Note_off_c, 11, 46, 127
1, 172607, Note_on_c, 5, 41, 127
1, 172607, Note_on_c, 11, 70, 127
1, 172789, Note_off_c, 11, 70, 127
1, 172791, Note_on_c, 10, 69, 127
1, 172973, Note_off_c, 10, 69, 127
1, 172973, Note_off_c, 5, 41, 127
1, 172975, Note_on_c, 0, 48, 127
1, 172975, Note_on_c, 10, 69, 127
1, 173098, Note_on_c, 7, 67, 127
1, 173099, Note_off_c, 10, 69, 127
1, 173159, Note_on_c, 10, 69, 127
1, 173164, Note_off_c, 7, 67, 127
1, 173221, Note_on_c, 7, 67, 127
1, 173226, Note_off_c, 10, 69, 127
1, 173283, Note_on_c, 10, 69, 127
1, 173288, Note_off_c, 7, 67, 127
1, 173343, Note_off_c, 0, 48, 127
1, 173345, Note_on_c, 0, 36, 127
1, 173345, Note_on_c, 7, 67, 127
1, 173350, Note_off_c, 10, 69, 127
1, 173530, Note_on_c, 5, 65, 127
1, 173537, Note_off_c, 7, 67, 127
1, 173716, Note_off_c, 5, 65, 127
1, 173725, Note_off_c, 0, 36, 127
1, 173730, Note_on_c, 5, 65, 127
1, 173730, Note_on_c, 5, 41, 127
1, 174670, Note_off_c, 5, 65, 127
1, 174834, Note_off_c, 5, 41, 127
1, 174836, Note_on_c, 10, 69, 127
1, 174836, Note_on_c, 0, 72, 127
1, 174836, Note_on_c, 5, 53, 127
1, 174836, Note_on_c, 5, 41, 127
1, 175018, Note_off_c, 5, 41, 127
1, 175020, Note_on_c, 0, 48, 127
1, 175200, Note_off_c, 5, 53, 127
1, 175203, Note_off_c, 0, 48, 127
1, 175203, Note_off_c, 0, 72, 127
1, 175203, Note_off_c, 10, 69, 127
1, 175205, Note_on_c, 10, 69, 127
1, 175205, Note_on_c, 5, 65, 127
1, 175205, Note_on_c, 5, 53, 127
1, 175387, Note_off_c, 5, 53, 127
1, 175387, Note_off_c, 10, 69, 127
1, 175389, Note_on_c, 2, 74, 127
1, 175389, Note_on_c, 11, 46, 127
1, 175569, Note_off_c, 5, 65, 127
1, 175572, Note_off_c, 11, 46, 127
1, 175572, Note_off_c, 2, 74, 127
1, 175574, Note_on_c, 11, 70, 127
1, 175574, Note_on_c, 4, 64, 127
1, 175574, Note_on_c, 0, 48, 127
1, 175756, Note_off_c, 0, 48, 127
1, 175758, Note_on_c, 0, 36, 127
1, 175940, Note_off_c, 0, 36, 127
1, 175940, Note_off_c, 4, 64, 127
1, 175940, Note_off_c, 11, 70, 127
1, 175942, Note_on_c, 10, 69, 127
1, 175942, Note_on_c, 5, 65, 127
1, 175942, Note_on_c, 5, 41, 127
1, 176124, Note_off_c, 5, 41, 127
1, 176126, Note_on_c, 0, 48, 127
1, 176308, Note_off_c, 0, 48, 127
1, 176310, Note_on_c, 5, 53, 127
1, 176492, Note_off_c, 5, 53, 127
1, 176494, Note_on_c, 7, 55, 127
1, 176676, Note_off_c, 7, 55, 127
1, 176678, Note_on_c, 10, 57, 127
1, 176860, Note_off_c, 10, 57, 127
1, 176862, Note_on_c, 5, 53, 127
1, 177044, Note_off_c, 5, 53, 127
1, 177044, Note_off_c, 5, 65, 127
1, 177044, Note_off_c, 10, 69, 127
1, 177046, Note_on_c, 7, 67, 127
1, 177046, Note_on_c, 0, 60, 127
1, 177046, Note_on_c, 4, 52, 127
1, 177228, Note_off_c, 4, 52, 127
1, 177228, Note_off_c, 0, 60, 127
1, 177230, Note_on_c, 4, 64, 127
1, 177230, Note_on_c, 0, 48, 127
1, 177410, Note_off_c, 7, 67, 127
1, 177413, Note_off_c, 0, 48, 127
1, 177413, Note_off_c, 4, 64, 127
1, 177415, Note_on_c, 5, 65, 127
1, 177415, Note_on_c, 2, 62, 127
1, 177415, Note_on_c, 2, 50, 127
1, 177597, Note_off_c, 2, 50, 127
1, 177597, Note_off_c, 5, 65, 127
1, 177599, Note_on_c, 11, 70, 127
1, 177599, Note_on_c, 11, 46, 127
1, 177779, Note_off_c, 2, 62, 127
1, 177782, Note_off_c, 11, 46, 127
1, 177782, Note_off_c, 11, 70, 127
1, 177784, Note_on_c, 0, 60, 127
1, 177784, Note_on_c, 10, 69, 127
1, 177784, Note_on_c, 5, 53, 127
1, 177966, Note_off_c, 5, 53, 127
1, 177966, Note_off_c, 0, 60, 127
1, 177968, Note_on_c, 2, 62, 127
1, 177968, Note_on_c, 5, 41, 127
1, 178148, Note_off_c, 10, 69, 127
1, 178151, Note_off_c, 5, 41, 127
1, 178151, Note_off_c, 2, 62, 127
1, 178153, Note_on_c, 4, 64, 127
1, 178153, Note_on_c, 7, 67, 127
1, 178153, Note_on_c, 0, 48, 127
1, 178335, Note_off_c, 0, 48, 127
1, 178337, Note_on_c, 7, 55, 127
1, 178519, Note_off_c, 7, 55, 127
1, 178521, Note_on_c, 0, 60, 127
1, 178703, Note_off_c, 0, 60, 127
1, 178705, Note_on_c, 11, 58, 127
1, 178887, Note_off_c, 11, 58, 127
1, 178889, Note_on_c, 10, 57, 127
1, 179071, Note_off_c, 10, 57, 127
1, 179073, Note_on_c, 7, 55, 127
1, 179255, Note_off_c, 7, 55, 127
1, 179255, Note_off_c, 7, 67, 127
1, 179255, Note_off_c, 4, 64, 127
1, 179257, Note_on_c, 0, 72, 127
1, 179257, Note_on_c, 10, 69, 127
1, 179257, Note_on_c, 5, 53, 127
1, 179439, Note_off_c, 5, 53, 127
1, 179441, Note_on_c, 0, 48, 127
1, 179623, Note_off_c, 0, 48, 127
1, 179623, Note_off_c, 10, 69, 127
1, 179623, Note_off_c, 0, 72, 127
1, 179625, Note_on_c, 5, 65, 127
1, 179625, Note_on_c, 10, 69, 127
1, 179625, Note_on_c, 5, 41, 127
1, 179807, Note_off_c, 5, 41, 127
1, 179807, Note_off_c, 10, 69, 127
1, 179809, Note_on_c, 2, 74, 127
1, 179809, Note_on_c, 11, 46, 127
1, 179989, Note_off_c, 5, 65, 127
1, 179992, Note_off_c, 11, 46, 127
1, 179992, Note_off_c, 2, 74, 127
1, 179994, Note_on_c, 4, 64, 127
1, 179994, Note_on_c, 11, 70, 127
1, 179994, Note_on_c, 0, 48, 127
1, 180176, Note_off_c, 0, 48, 127
1, 180178, Note_on_c, 0, 36, 127
1, 180360, Note_off_c, 0, 36, 127
1, 180360, Note_off_c, 11, 70, 127
1, 180360, Note_off_c, 4, 64, 127
1, 180362, Note_on_c, 5, 65, 127
1, 180362, Note_on_c, 10, 69, 127
1, 180362, Note_on_c, 5, 41, 127
1, 180544, Note_off_c, 5, 41, 127
1, 180546, Note_on_c, 0, 48, 127
1, 180728, Note_off_c, 0, 48, 127
1, 180730, Note_on_c, 5, 53, 127
1, 180912, Note_off_c, 5, 53, 127
1, 180914, Note_on_c, 7, 55, 127
1, 181096, Note_off_c, 7, 55, 127
1, 181098, Note_on_c, 10, 57, 127
1, 181280, Note_off_c, 10, 57, 127
1, 181282, Note_on_c, 5, 53, 127
1, 181464, Note_off_c, 5, 53, 127
1, 181464, Note_off_c, 10, 69, 127
1, 181464, Note_off_c, 5, 65, 127
1, 181466, Note_on_c, 5, 65, 127
1, 181466, Note_on_c, 2, 62, 127
1, 181466, Note_on_c, 11, 46, 127
1, 181648, Note_off_c, 11, 46, 127
1, 181650, Note_on_c, 10, 45, 127
1, 181832, Note_off_c, 10, 45, 127
1, 181832, Note_off_c, 2, 62, 127
1, 181832, Note_off_c, 5, 65, 127
1, 181834, Note_on_c, 4, 64, 127
1, 181834, Note_on_c, 11, 70, 127
1, 181834, Note_on_c, 7, 43, 127
1, 182016, Note_off_c, 7, 43, 127
1, 182016, Note_off_c, 11, 70, 127
1, 182016, Note_off_c, 4, 64, 127
1, 182018, Note_on_c, 10, 69, 127
1, 182018, Note_on_c, 5, 65, 127
1, 182018, Note_on_c, 5, 41, 127
1, 182200, Note_off_c, 5, 41, 127
1, 182200, Note_off_c, 5, 65, 127
1, 182200, Note_off_c, 10, 69, 127
1, 182202, Note_on_c, 7, 67, 127
1, 182202, Note_on_c, 4, 64, 127
1, 182202, Note_on_c, 0, 48, 127
1, 182384, Note_off_c, 0, 48, 127
1, 182386, Note_on_c, 0, 36, 127
1, 182568, Note_off_c, 0, 36, 127
1, 182568, Note_off_c, 4, 64, 127
1, 182568, Note_off_c, 7, 67, 127
1, 182570, Note_on_c, 5, 65, 127
1, 182570, Note_on_c, 5, 41, 127
1, 182752, Note_off_c, 5, 41, 127
1, 182754, Note_on_c, 7, 43, 127
1, 182936, Note_off_c, 7, 43, 127
1, 182938, Note_on_c, 10, 45, 127
1, 183120, Note_off_c, 10, 45, 127
1, 183122, Note_on_c, 11, 46, 127
1, 183149, Note_off_c, 5, 65, 127
1, 183304, Note_off_c, 11, 46, 127
1, 183306, Note_on_c, 0, 48, 127
1, 183488, Note_off_c, 0, 48, 127
1, 183490, Note_on_c, 2, 50, 127
1, 183672, Note_off_c, 2, 50, 127
1, 183674, Note_on_c, 7, 67, 127
1, 183674, Note_on_c, 4, 52, 127
1, 183856, Note_off_c, 4, 52, 127
1, 183858, Note_on_c, 2, 50, 127
1, 184040, Note_off_c, 2, 50, 127
1, 184042, Note_on_c, 0, 72, 127
1, 184042, Note_on_c, 0, 48, 127
1, 184224, Note_off_c, 0, 48, 127
1, 184224, Note_off_c, 0, 72, 127
1, 184224, Note_off_c, 7, 67, 127
1, 184226, Note_on_c, 7, 67, 127
1, 184226, Note_on_c, 2, 50, 127
1, 184408, Note_off_c, 2, 50, 127
1, 184408, Note_off_c, 7, 67, 127
1, 184410, Note_on_c, 10, 69, 127
1, 184410, Note_on_c, 4, 52, 127
1, 184592, Note_off_c, 4, 52, 127
1, 184592, Note_off_c, 10, 69, 127
1, 184594, Note_on_c, 11, 70, 127
1, 184594, Note_on_c, 0, 48, 127
1, 184776, Note_off_c, 0, 48, 127
1, 184776, Note_off_c, 11, 70, 127
1, 184778, Note_on_c, 10, 69, 127
1, 184778, Note_on_c, 5, 65, 127
1, 184778, Note_on_c, 5, 53, 127
1, 184960, Note_off_c, 5, 53, 127
1, 184962, Note_on_c, 10, 57, 127
1, 185144, Note_off_c, 10, 57, 127
1, 185146, Note_on_c, 7, 55, 127
1, 185328, Note_off_c, 7, 55, 127
1, 185330, Note_on_c, 5, 53, 127
1, 185512, Note_off_c, 5, 53, 127
1, 185514, Note_on_c, 4, 52, 127
1, 185696, Note_off_c, 4, 52, 127
1, 185698, Note_on_c, 2, 50, 127
1, 185778, Note_off_c, 5, 65, 127
1, 185778, Note_off_c, 10, 69, 127
1, 185880, Note_off_c, 2, 50, 127
1, 185882, Note_on_c, 4, 76, 127
1, 185882, Note_on_c, 10, 69, 127
1, 185882, Note_on_c, 1, 49, 127
1, 186064, Note_off_c, 1, 49, 127
1, 186066, Note_on_c, 10, 45, 127
1, 186248, Note_off_c, 10, 45, 127
1, 186248, Note_off_c, 4, 76, 127
1, 186250, Note_on_c, 5, 77, 127
1, 186250, Note_on_c, 2, 50, 127
1, 186432, Note_off_c, 2, 50, 127
1, 186432, Note_off_c, 5, 77, 127
1, 186434, Note_on_c, 1, 73, 127
1, 186434, Note_on_c, 10, 45, 127
1, 186616, Note_off_c, 10, 45, 127
1, 186616, Note_off_c, 1, 73, 127
1, 186616, Note_off_c, 10, 69, 127
1, 186618, Note_on_c, 7, 67, 127
1, 186618, Note_on_c, 2, 74, 127
1, 186618, Note_on_c, 11, 46, 127
1, 186800, Note_off_c, 11, 46, 127
1, 186800, Note_off_c, 2, 74, 127
1, 186802, Note_on_c, 4, 76, 127
1, 186802, Note_on_c, 7, 43, 127
1, 186982, Note_off_c, 7, 67, 127
1, 186985, Note_off_c, 7, 43, 127
1, 186985, Note_off_c, 4, 76, 127
1, 186987, Note_on_c, 1, 73, 127
1, 186987, Note_on_c, 10, 69, 127
1, 186987, Note_on_c, 4, 64, 127
1, 186987, Note_on_c, 10, 45, 127
1, 187169, Note_off_c, 10, 45, 127
1, 187171, Note_on_c, 4, 52, 127
1, 187353, Note_off_c, 4, 52, 127
1, 187355, Note_on_c, 10, 57, 127
1, 187537, Note_off_c, 10, 57, 127
1, 187539, Note_on_c, 5, 53, 127
1, 187721, Note_off_c, 5, 53, 127
1, 187723, Note_on_c, 4, 52, 127
1, 187905, Note_off_c, 4, 52, 127
1, 187907, Note_on_c, 2, 50, 127
1, 187987, Note_off_c, 4, 64, 127
1, 187987, Note_off_c, 10, 69, 127
1, 187987, Note_off_c, 1, 73, 127
1, 188089, Note_off_c, 2, 50, 127
1, 188091, Note_on_c, 4, 76, 127
1, 188091, Note_on_c, 10, 69, 127
1, 188091, Note_on_c, 1, 49, 127
1, 188273, Note_off_c, 1, 49, 127
1, 188275, Note_on_c, 10, 45, 127
1, 188457, Note_off_c, 10, 45, 127
1, 188457, Note_off_c, 4, 76, 127
1, 188459, Note_on_c, 5, 77, 127
1, 188459, Note_on_c, 2, 50, 127
1, 188641, Note_off_c, 2, 50, 127
1, 188641, Note_off_c, 5, 77, 127
1, 188643, Note_on_c, 0, 72, 127
1, 188643, Note_on_c, 4, 52, 127
1, 188825, Note_off_c, 4, 52, 127
1, 188825, Note_off_c, 0, 72, 127
1, 188825, Note_off_c, 10, 69, 127
1, 188827, Note_on_c, 2, 74, 127
1, 188827, Note_on_c, 6, 54, 127
1, 189009, Note_off_c, 6, 54, 127
1, 189009, Note_off_c, 2, 74, 127
1, 189011, Note_on_c, 3, 75, 127
1, 189011, Note_on_c, 2, 50, 127
1, 189193, Note_off_c, 2, 50, 127
1, 189193, Note_off_c, 3, 75, 127
1, 189195, Note_on_c, 7, 67, 127
1, 189195, Note_on_c, 12, 71, 127
1, 189195, Note_on_c, 7, 55, 127
1, 189377, Note_off_c, 7, 55, 127
1, 189379, Note_on_c, 5, 53, 127
1, 189561, Note_off_c, 5, 53, 127
1, 189563, Note_on_c, 7, 55, 127
1, 189745, Note_off_c, 7, 55, 127
1, 189747, Note_on_c, 10, 57, 127
1, 189929, Note_off_c, 10, 57, 127
1, 189929, Note_off_c, 12, 71, 127
1, 189931, Note_on_c, 7, 55, 127
1, 190018, Note_off_c, 7, 67, 127
1, 190113, Note_off_c, 7, 55, 127
1, 190115, Note_on_c, 5, 53, 127
1, 190297, Note_off_c, 5, 53, 127
1, 190299, Note_on_c, 3, 51, 127
1, 190481, Note_off_c, 3, 51, 127
1, 190483, Note_on_c, 7, 67, 127
1, 190483, Note_on_c, 0, 72, 127
1, 190483, Note_on_c, 2, 50, 127
1, 190573, Note_off_c, 2, 50, 127
1, 190575, Note_on_c, 0, 48, 127
1, 190665, Note_off_c, 0, 48, 127
1, 190665, Note_off_c, 0, 72, 127
1, 190667, Note_on_c, 5, 77, 127
1, 190667, Note_on_c, 12, 47, 127
1, 190847, Note_off_c, 7, 67, 127
1, 190850, Note_off_c, 12, 47, 127
1, 190850, Note_off_c, 5, 77, 127
1, 190852, Note_on_c, 3, 75, 127
1, 190852, Note_on_c, 0, 72, 127
1, 190852, Note_on_c, 0, 48, 127
1, 190942, Note_off_c, 3, 75, 127
1, 190944, Note_on_c, 2, 74, 127
1, 191034, Note_off_c, 2, 74, 127
1, 191034, Note_off_c, 0, 48, 127
1, 191036, Note_on_c, 2, 74, 127
1, 191036, Note_on_c, 5, 41, 127
1, 191216, Note_off_c, 0, 72, 127
1, 191219, Note_off_c, 5, 41, 127
1, 191221, Note_on_c, 12, 71, 127
1, 191221, Note_on_c, 7, 43, 127
1, 191401, Note_off_c, 2, 74, 127
1, 191404, Note_off_c, 7, 43, 127
1, 191404, Note_off_c, 12, 71, 127
1, 191406, Note_on_c, 0, 72, 127
1, 191406, Note_on_c, 0, 36, 127
1, 191588, Note_off_c, 0, 36, 127
1, 191590, Note_on_c, 7, 43, 127
1, 191772, Note_off_c, 7, 43, 127
1, 191774, Note_on_c, 0, 48, 127
1, 191956, Note_off_c, 0, 48, 127
1, 191958, Note_on_c, 2, 50, 127
1, 192140, Note_off_c, 2, 50, 127
1, 192142, Note_on_c, 4, 52, 127
1, 192324, Note_off_c, 4, 52, 127
1, 192325, Note_off_c, 0, 72, 127
1, 192333, Note_on_c, 0, 48, 127
1, 192515, Note_off_c, 0, 48, 127
1, 192526, Note_on_c, 5, 41, 127
1, 192526, Note_on_c, 5, 53, 127
1, 192526, Note_on_c, 0, 72, 127
1, 192526, Note_on_c, 10, 69, 127
1, 192708, Note_off_c, 5, 41, 127
1, 192710, Note_on_c, 0, 48, 127
1, 192890, Note_off_c, 5, 53, 127
1, 192893, Note_off_c, 0, 48, 127
1, 192893, Note_off_c, 10, 69, 127
1, 192893, Note_off_c, 0, 72, 127
1, 192895, Note_on_c, 5, 53, 127
1, 192895, Note_on_c, 10, 69, 127
1, 192895, Note_on_c, 5, 65, 127
1, 193077, Note_off_c, 10, 69, 127
1, 193077, Note_off_c, 5, 53, 127
1, 193079, Note_on_c, 11, 46, 127
1, 193079, Note_on_c, 2, 74, 127
1, 193259, Note_off_c, 5, 65, 127
1, 193262, Note_off_c, 2, 74, 127
1, 193262, Note_off_c, 11, 46, 127
1, 193264, Note_on_c, 0, 48, 127
1, 193264, Note_on_c, 11, 70, 127
1, 193264, Note_on_c, 4, 64, 127
1, 193446, Note_off_c, 0, 48, 127
1, 193448, Note_on_c, 0, 36, 127
1, 193630, Note_off_c, 0, 36, 127
1, 193630, Note_off_c, 4, 64, 127
1, 193630, Note_off_c, 11, 70, 127
1, 193632, Note_on_c, 5, 41, 127
1, 193632, Note_on_c, 10, 69, 127
1, 193632, Note_on_c, 5, 65, 127
1, 193814, Note_off_c, 5, 41, 127
1, 193816, Note_on_c, 0, 48, 127
1, 193998, Note_off_c, 0, 48, 127
1, 194000, Note_on_c, 5, 53, 127
1, 194182, Note_off_c, 5, 53, 127
1, 194184, Note_on_c, 7, 55, 127
1, 194366, Note_off_c, 7, 55, 127
1, 194368, Note_on_c, 10, 57, 127
1, 194550, Note_off_c, 10, 57, 127
1, 194552, Note_on_c, 5, 53, 127
1, 194734, Note_off_c, 5, 53, 127
1, 194734, Note_off_c, 5, 65, 127
1, 194734, Note_off_c, 10, 69, 127
1, 194736, Note_on_c, 4, 52, 127
1, 194736, Note_on_c, 7, 67, 127
1, 194736, Note_on_c, 0, 60, 127
1, 194918, Note_off_c, 0, 60, 127
1, 194918, Note_off_c, 4, 52, 127
1, 194920, Note_on_c, 0, 48, 127
1, 194920, Note_on_c, 4, 64, 127
1, 195100, Note_off_c, 7, 67, 127
1, 195103, Note_off_c, 4, 64, 127
1, 195103, Note_off_c, 0, 48, 127
1, 195105, Note_on_c, 2, 50, 127
1, 195105, Note_on_c, 2, 62, 127
1, 195105, Note_on_c, 5, 65, 127
1, 195287, Note_off_c, 5, 65, 127
1, 195287, Note_off_c, 2, 50, 127
1, 195289, Note_on_c, 11, 46, 127
1, 195289, Note_on_c, 11, 70, 127
1, 195469, Note_off_c, 2, 62, 127
1, 195472, Note_off_c, 11, 70, 127
1, 195472, Note_off_c, 11, 46, 127
1, 195474, Note_on_c, 5, 53, 127
1, 195474, Note_on_c, 10, 69, 127
1, 195474, Note_on_c, 0, 60, 127
1, 195656, Note_off_c, 0, 60, 127
1, 195656, Note_off_c, 5, 53, 127
1, 195658, Note_on_c, 5, 41, 127
1, 195658, Note_on_c, 2, 62, 127
1, 195838, Note_off_c, 10, 69, 127
1, 195841, Note_off_c, 2, 62, 127
1, 195841, Note_off_c, 5, 41, 127
1, 195843, Note_on_c, 0, 48, 127
1, 195843, Note_on_c, 4, 64, 127
1, 195843, Note_on_c, 7, 67, 127
1, 196025, Note_off_c, 0, 48, 127
1, 196027, Note_on_c, 7, 55, 127
1, 196209, Note_off_c, 7, 55, 127
1, 196211, Note_on_c, 0, 60, 127
1, 196393, Note_off_c, 0, 60, 127
1, 196395, Note_on_c, 11, 58, 127
1, 196577, Note_off_c, 11, 58, 127
1, 196579, Note_on_c, 10, 57, 127
1, 196761, Note_off_c, 10, 57, 127
1, 196763, Note_on_c, 7, 55, 127
1, 196945, Note_off_c, 7, 55, 127
1, 196945, Note_off_c, 7, 67, 127
1, 196945, Note_off_c, 4, 64, 127
1, 196947, Note_on_c, 5, 53, 127
1, 196947, Note_on_c, 0, 72, 127
1, 196947, Note_on_c, 10, 69, 127
1, 197129, Note_off_c, 5, 53, 127
1, 197131, Note_on_c, 0, 48, 127
1, 197313, Note_off_c, 0, 48, 127
1, 197313, Note_off_c, 10, 69, 127
1, 197313, Note_off_c, 0, 72, 127
1, 197315, Note_on_c, 5, 41, 127
1, 197315, Note_on_c, 10, 69, 127
1, 197315, Note_on_c, 5, 65, 127
1, 197497, Note_off_c, 10, 69, 127
1, 197497, Note_off_c, 5, 41, 127
1, 197499, Note_on_c, 11, 46, 127
1, 197499, Note_on_c, 2, 74, 127
1, 197679, Note_off_c, 5, 65, 127
1, 197682, Note_off_c, 2, 74, 127
1, 197682, Note_off_c, 11, 46, 127
1, 197684, Note_on_c, 0, 48, 127
1, 197684, Note_on_c, 11, 70, 127
1, 197684, Note_on_c, 4, 64, 127
1, 197866, Note_off_c, 0, 48, 127
1, 197868, Note_on_c, 0, 36, 127
1, 198050, Note_off_c, 0, 36, 127
1, 198050, Note_off_c, 4, 64, 127
1, 198050, Note_off_c, 11, 70, 127
1, 198052, Note_on_c, 5, 41, 127
1, 198052, Note_on_c, 5, 65, 127
1, 198052, Note_on_c, 10, 69, 127
1, 198234, Note_off_c, 5, 41, 127
1, 198236, Note_on_c, 0, 48, 127
1, 198418, Note_off_c, 0, 48, 127
1, 198420, Note_on_c, 5, 53, 127
1, 198602, Note_off_c, 5, 53, 127
1, 198604, Note_on_c, 7, 55, 127
1, 198786, Note_off_c, 7, 55, 127
1, 198788, Note_on_c, 10, 57, 127
1, 198970, Note_off_c, 10, 57, 127
1, 198972, Note_on_c, 5, 53, 127
1, 199154, Note_off_c, 5, 53, 127
1, 199154, Note_off_c, 10, 69, 127
1, 199154, Note_off_c, 5, 65, 127
1, 199156, Note_on_c, 11, 46, 127
1, 199156, Note_on_c, 5, 65, 127
1, 199156, Note_on_c, 2, 62, 127
1, 199338, Note_off_c, 11, 46, 127
1, 199340, Note_on_c, 10, 45, 127
1, 199522, Note_off_c, 10, 45, 127
1, 199522, Note_off_c, 2, 62, 127
1, 199522, Note_off_c, 5, 65, 127
1, 199524, Note_on_c, 7, 43, 127
1, 199524, Note_on_c, 4, 64, 127
1, 199524, Note_on_c, 11, 70, 127
1, 199706, Note_off_c, 11, 70, 127
1, 199706, Note_off_c, 4, 64, 127
1, 199706, Note_off_c, 7, 43, 127
1, 199708, Note_on_c, 5, 41, 127
1, 199708, Note_on_c, 5, 65, 127
1, 199708, Note_on_c, 10, 69, 127
1, 199890, Note_off_c, 10, 69, 127
1, 199890, Note_off_c, 5, 65, 127
1, 199890, Note_off_c, 5, 41, 127
1, 199892, Note_on_c, 0, 48, 127
1, 199892, Note_on_c, 4, 64, 127
1, 199892, Note_on_c, 7, 67, 127
1, 200074, Note_off_c, 0, 48, 127
1, 200076, Note_on_c, 0, 36, 127
1, 200258, Note_off_c, 0, 36, 127
1, 200258, Note_off_c, 7, 67, 127
1, 200258, Note_off_c, 4, 64, 127
1, 200276, Note_on_c, 5, 65, 127
1, 200276, Note_on_c, 5, 41, 127
1, 200504, Note_off_c, 5, 41, 127
1, 200524, Note_on_c, 0, 48, 127
1, 200815, Note_off_c, 0, 48, 127
1, 200849, Note_on_c, 5, 53, 127
1, 202042, Note_off_c, 5, 65, 127
1, 202236, Note_off_c, 5, 53, 127
1, 204078, Note_on_c, 10, 81, 127
1, 204078, Note_on_c, 5, 53, 127
1, 204266, Note_off_c, 5, 53, 127
1, 204266, Note_off_c, 10, 81, 127
1, 204268, Note_on_c, 7, 79, 127
1, 204268, Note_on_c, 7, 55, 127
1, 204456, Note_off_c, 7, 55, 127
1, 204456, Note_off_c, 7, 79, 127
1, 204458, Note_on_c, 5, 77, 127
1, 204458, Note_on_c, 10, 57, 127
1, 204837, Note_off_c, 10, 57, 127
1, 204837, Note_off_c, 5, 77, 127
1, 204839, Note_on_c, 7, 79, 127
1, 204839, Note_on_c, 7, 55, 127
1, 205027, Note_off_c, 7, 55, 127
1, 205027, Note_off_c, 7, 79, 127
1, 205029, Note_on_c, 10, 81, 127
1, 205029, Note_on_c, 5, 53, 127
1, 205217, Note_off_c, 5, 53, 127
1, 205217, Note_off_c, 10, 81, 127
1, 205219, Note_on_c, 4, 76, 127
1, 205219, Note_on_c, 0, 60, 127
1, 205598, Note_off_c, 4, 76, 127
1, 205600, Note_on_c, 2, 74, 127
1, 205788, Note_off_c, 2, 74, 127
1, 205788, Note_off_c, 0, 60, 127
1, 205790, Note_on_c, 0, 72, 127
1, 205790, Note_on_c, 11, 58, 127
1, 205978, Note_off_c, 11, 58, 127
1, 205978, Note_off_c, 0, 72, 127
1, 205980, Note_on_c, 5, 77, 127
1, 205980, Note_on_c, 10, 57, 127
1, 206359, Note_off_c, 10, 57, 127
1, 206359, Note_off_c, 5, 77, 127
1, 206361, Note_on_c, 0, 72, 127
1, 206361, Note_on_c, 5, 53, 127
1, 206549, Note_off_c, 5, 53, 127
1, 206551, Note_on_c, 7, 55, 127
1, 206739, Note_off_c, 7, 55, 127
1, 206739, Note_off_c, 0, 72, 127
1, 206741, Note_on_c, 0, 72, 127
1, 206741, Note_on_c, 10, 57, 127
1, 207120, Note_off_c, 10, 57, 127
1, 207120, Note_off_c, 0, 72, 127
1, 207122, Note_on_c, 5, 77, 127
1, 207122, Note_on_c, 7, 55, 127
1, 207310, Note_off_c, 7, 55, 127
1, 207312, Note_on_c, 5, 53, 127
1, 207500, Note_off_c, 5, 53, 127
1, 207500, Note_off_c, 5, 77, 127
1, 207502, Note_on_c, 7, 79, 127
1, 207502, Note_on_c, 4, 52, 127
1, 207881, Note_off_c, 7, 79, 127
1, 207883, Note_on_c, 0, 72, 127
1, 208071, Note_off_c, 4, 52, 127
1, 208073, Note_on_c, 2, 50, 127
1, 208261, Note_off_c, 2, 50, 127
1, 208261, Note_off_c, 0, 72, 127
1, 208263, Note_on_c, 11, 82, 127
1, 208263, Note_on_c, 4, 52, 127
1, 208642, Note_off_c, 4, 52, 127
1, 208642, Note_off_c, 11, 82, 127
1, 208644, Note_on_c, 10, 81, 127
1, 208644, Note_on_c, 5, 53, 127
1, 209023, Note_off_c, 5, 53, 127
1, 209023, Note_off_c, 10, 81, 127
1, 209025, Note_on_c, 7, 79, 127
1, 209025, Note_on_c, 0, 48, 127
1, 209213, Note_off_c, 7, 79, 127
1, 209215, Note_on_c, 5, 77, 127
1, 209403, Note_off_c, 5, 77, 127
1, 209403, Note_off_c, 0, 48, 127
1, 209405, Note_on_c, 4, 76, 127
1, 209405, Note_on_c, 7, 55, 127
1, 209593, Note_off_c, 4, 76, 127
1, 209595, Note_on_c, 5, 77, 127
1, 209783, Note_off_c, 5, 77, 127
1, 209783, Note_off_c, 7, 55, 127
1, 209785, Note_on_c, 7, 79, 127
1, 209785, Note_on_c, 0, 60, 127
1, 210164, Note_off_c, 0, 60, 127
1, 210164, Note_off_c, 7, 79, 127
1, 210166, Note_on_c, 10, 81, 127
1, 210166, Note_on_c, 5, 53, 127
1, 210354, Note_off_c, 5, 53, 127
1, 210354, Note_off_c, 10, 81, 127
1, 210356, Note_on_c, 7, 79, 127
1, 210356, Note_on_c, 7, 55, 127
1, 210544, Note_off_c, 7, 55, 127
1, 210544, Note_off_c, 7, 79, 127
1, 210546, Note_on_c, 5, 77, 127
1, 210546, Note_on_c, 10, 57, 127
1, 210925, Note_off_c, 10, 57, 127
1, 210925, Note_off_c, 5, 77, 127
1, 210927, Note_on_c, 7, 79, 127
1, 210927, Note_on_c, 7, 55, 127
1, 211115, Note_off_c, 7, 55, 127
1, 211115, Note_off_c, 7, 79, 127
1, 211117, Note_on_c, 10, 81, 127
1, 211117, Note_on_c, 5, 53, 127
1, 211305, Note_off_c, 5, 53, 127
1, 211305, Note_off_c, 10, 81, 127
1, 211307, Note_on_c, 4, 76, 127
1, 211307, Note_on_c, 0, 60, 127
1, 211686, Note_off_c, 0, 60, 127
1, 211686, Note_off_c, 4, 76, 127
1, 211688, Note_on_c, 2, 74, 127
1, 211688, Note_on_c, 0, 48, 127
1, 211876, Note_off_c, 2, 74, 127
1, 211878, Note_on_c, 0, 72, 127
1, 212066, Note_off_c, 0, 72, 127
1, 212066, Note_off_c, 0, 48, 127
1, 212068, Note_on_c, 5, 77, 127
1, 212068, Note_on_c, 2, 50, 127
1, 212447, Note_off_c, 2, 50, 127
1, 212447, Note_off_c, 5, 77, 127
1, 212449, Note_on_c, 5, 65, 127
1, 212449, Note_on_c, 0, 48, 127
1, 212637, Note_off_c, 0, 48, 127
1, 212639, Note_on_c, 11, 46, 127
1, 212827, Note_off_c, 11, 46, 127
1, 212827, Note_off_c, 5, 65, 127
1, 212829, Note_on_c, 5, 65, 127
1, 212829, Note_on_c, 10, 45, 127
1, 213208, Note_off_c, 10, 45, 127
1, 213208, Note_off_c, 5, 65, 127
1, 213210, Note_on_c, 11, 70, 127
1, 213210, Note_on_c, 11, 46, 127
1, 213398, Note_off_c, 11, 46, 127
1, 213400, Note_on_c, 0, 48, 127
1, 213588, Note_off_c, 0, 48, 127
1, 213588, Note_off_c, 11, 70, 127
1, 213590, Note_on_c, 10, 69, 127
1, 213590, Note_on_c, 2, 50, 127
1, 213969, Note_off_c, 2, 50, 127
1, 213969, Note_off_c, 10, 69, 127
1, 213971, Note_on_c, 2, 74, 127
1, 213971, Note_on_c, 11, 46, 127
1, 214159, Note_off_c, 2, 74, 127
1, 214161, Note_on_c, 7, 67, 127
1, 214349, Note_off_c, 7, 67, 127
1, 214349, Note_off_c, 11, 46, 127
1, 214351, Note_on_c, 10, 69, 127
1, 214351, Note_on_c, 0, 48, 127
1, 214476, Note_off_c, 10, 69, 127
1, 214478, Note_on_c, 7, 67, 127
1, 214540, Note_off_c, 7, 67, 127
1, 214541, Note_on_c, 10, 69, 127
1, 214603, Note_off_c, 10, 69, 127
1, 214604, Note_on_c, 7, 67, 127
1, 214666, Note_off_c, 7, 67, 127
1, 214667, Note_on_c, 10, 69, 127
1, 214728, Note_off_c, 0, 48, 127
1, 214729, Note_off_c, 10, 69, 127
1, 214730, Note_on_c, 7, 67, 127
1, 214730, Note_on_c, 0, 36, 127
1, 214917, Note_off_c, 7, 67, 127
1, 214930, Note_on_c, 5, 65, 127
1, 215108, Note_off_c, 5, 65, 127
1, 215109, Note_off_c, 0, 36, 127
1, 215111, Note_on_c, 5, 65, 127
1, 215111, Note_on_c, 5, 41, 127
1, 215490, Note_off_c, 5, 41, 127
1, 215492, Note_on_c, 0, 48, 127
1, 215871, Note_off_c, 0, 48, 127
1, 215873, Note_on_c, 5, 53, 127
1, 216082, Note_off_c, 5, 65, 127
1, 216252, Note_off_c, 5, 53, 127
1, 216254, Note_on_c, 5, 65, 127
1, 216254, Note_on_c, 5, 53, 127
1, 216442, Note_off_c, 5, 53, 127
1, 216442, Note_off_c, 5, 65, 127
1, 216444, Note_on_c, 7, 67, 127
1, 216444, Note_on_c, 4, 52, 127
1, 216632, Note_off_c, 4, 52, 127
1, 216632, Note_off_c, 7, 67, 127
1, 216634, Note_on_c, 10, 69, 127
1, 216634, Note_on_c, 5, 53, 127
1, 217013, Note_off_c, 5, 53, 127
1, 217013, Note_off_c, 10, 69, 127
1, 217015, Note_on_c, 7, 67, 127
1, 217015, Note_on_c, 7, 55, 127
1, 217203, Note_off_c, 7, 55, 127
1, 217203, Note_off_c, 7, 67, 127
1, 217205, Note_on_c, 5, 65, 127
1, 217205, Note_on_c, 10, 57, 127
1, 217393, Note_off_c, 10, 57, 127
1, 217393, Note_off_c, 5, 65, 127
1, 217395, Note_on_c, 0, 72, 127
1, 217395, Note_on_c, 4, 52, 127
1, 217774, Note_off_c, 4, 52, 127
1, 217774, Note_off_c, 0, 72, 127
1, 217776, Note_on_c, 5, 77, 127
1, 217776, Note_on_c, 2, 50, 127
1, 218155, Note_off_c, 2, 50, 127
1, 218155, Note_off_c, 5, 77, 127
1, 218157, Note_on_c, 4, 76, 127
1, 218157, Note_on_c, 0, 48, 127
1, 218345, Note_off_c, 4, 76, 127
1, 218347, Note_on_c, 5, 77, 127
1, 218535, Note_off_c, 5, 77, 127
1, 218537, Note_on_c, 4, 76, 127
1, 218725, Note_off_c, 4, 76, 127
1, 218725, Note_off_c, 0, 48, 127
1, 218727, Note_on_c, 5, 77, 127
1, 218727, Note_on_c, 2, 50, 127
1, 218915, Note_off_c, 2, 50, 127
1, 218915, Note_off_c, 5, 77, 127
1, 218917, Note_on_c, 7, 79, 127
1, 218917, Note_on_c, 4, 52, 127
1, 219296, Note_off_c, 4, 52, 127
1, 219296, Note_off_c, 7, 79, 127
1, 219298, Note_on_c, 0, 72, 127
1, 219298, Note_on_c, 2, 50, 127
1, 219486, Note_off_c, 2, 50, 127
1, 219488, Note_on_c, 4, 52, 127
1, 219676, Note_off_c, 4, 52, 127
1, 219676, Note_off_c, 0, 72, 127
1, 219678, Note_on_c, 10, 81, 127
1, 219678, Note_on_c, 5, 53, 127
1, 220057, Note_off_c, 5, 53, 127
1, 220057, Note_off_c, 10, 81, 127
1, 220059, Note_on_c, 0, 72, 127
1, 220059, Note_on_c, 4, 52, 127
1, 220247, Note_off_c, 4, 52, 127
1, 220249, Note_on_c, 2, 50, 127
1, 220437, Note_off_c, 2, 50, 127
1, 220437, Note_off_c, 0, 72, 127
1, 220439, Note_on_c, 7, 79, 127
1, 220439, Note_on_c, 4, 52, 127
1, 220818, Note_off_c, 4, 52, 127
1, 220818, Note_off_c, 7, 79, 127
1, 220820, Note_on_c, 5, 77, 127
1, 220820, Note_on_c, 5, 53, 127
1, 221008, Note_off_c, 5, 77, 127
1, 221010, Note_on_c, 4, 76, 127
1, 221198, Note_off_c, 4, 76, 127
1, 221198, Note_off_c, 5, 53, 127
1, 221200, Note_on_c, 2, 74, 127
1, 221200, Note_on_c, 7, 55, 127
1, 221388, Note_off_c, 2, 74, 127
1, 221390, Note_on_c, 0, 72, 127
1, 221578, Note_off_c, 0, 72, 127
1, 221578, Note_off_c, 7, 55, 127
1, 221580, Note_on_c, 12, 71, 127
1, 221580, Note_on_c, 2, 50, 127
1, 221768, Note_off_c, 12, 71, 127
1, 221770, Note_on_c, 0, 72, 127
1, 221958, Note_off_c, 0, 72, 127
1, 221958, Note_off_c, 2, 50, 127
1, 221960, Note_on_c, 2, 74, 127
1, 221960, Note_on_c, 7, 43, 127
1, 222339, Note_off_c, 7, 43, 127
1, 222339, Note_off_c, 2, 74, 127
1, 222341, Note_on_c, 7, 67, 127
1, 222341, Note_on_c, 7, 55, 127
1, 222529, Note_off_c, 7, 55, 127
1, 222531, Note_on_c, 5, 53, 127
1, 222719, Note_off_c, 5, 53, 127
1, 222719, Note_off_c, 7, 67, 127
1, 222721, Note_on_c, 0, 72, 127
1, 222721, Note_on_c, 4, 52, 127
1, 223100, Note_off_c, 4, 52, 127
1, 223100, Note_off_c, 0, 72, 127
1, 223102, Note_on_c, 7, 67, 127
1, 223102, Note_on_c, 2, 50, 127
1, 223290, Note_off_c, 2, 50, 127
1, 223292, Note_on_c, 0, 48, 127
1, 223480, Note_off_c, 0, 48, 127
1, 223480, Note_off_c, 7, 67, 127
1, 223482, Note_on_c, 2, 74, 127
1, 223482, Note_on_c, 12, 47, 127
1, 223861, Note_off_c, 12, 47, 127
1, 223861, Note_off_c, 2, 74, 127
1, 223863, Note_on_c, 7, 67, 127
1, 223863, Note_on_c, 10, 45, 127
1, 224051, Note_off_c, 10, 45, 127
1, 224053, Note_on_c, 7, 43, 127
1, 224241, Note_off_c, 7, 43, 127
1, 224241, Note_off_c, 7, 67, 127
1, 224243, Note_on_c, 4, 76, 127
1, 224243, Note_on_c, 0, 48, 127
1, 224622, Note_off_c, 0, 48, 127
1, 224622, Note_off_c, 4, 76, 127
1, 224624, Note_on_c, 2, 74, 127
1, 224624, Note_on_c, 0, 60, 127
1, 224812, Note_off_c, 0, 60, 127
1, 224812, Note_off_c, 2, 74, 127
1, 224814, Note_on_c, 0, 72, 127
1, 224814, Note_on_c, 11, 58, 127
1, 225002, Note_off_c, 11, 58, 127
1, 225002, Note_off_c, 0, 72, 127
1, 225004, Note_on_c, 5, 77, 127
1, 225004, Note_on_c, 10, 57, 127
1, 225383, Note_off_c, 10, 57, 127
1, 225383, Note_off_c, 5, 77, 127
1, 225385, Note_on_c, 7, 79, 127
1, 225385, Note_on_c, 7, 55, 127
1, 225573, Note_off_c, 7, 55, 127
1, 225573, Note_off_c, 7, 79, 127
1, 225575, Note_on_c, 10, 81, 127
1, 225575, Note_on_c, 5, 53, 127
1, 225763, Note_off_c, 5, 53, 127
1, 225763, Note_off_c, 10, 81, 127
1, 225765, Note_on_c, 12, 71, 127
1, 225765, Note_on_c, 7, 55, 127
1, 226144, Note_off_c, 7, 55, 127
1, 226144, Note_off_c, 12, 71, 127
1, 226146, Note_on_c, 0, 72, 127
1, 226146, Note_on_c, 4, 52, 127
1, 226334, Note_off_c, 4, 52, 127
1, 226334, Note_off_c, 0, 72, 127
1, 226336, Note_on_c, 2, 74, 127
1, 226336, Note_on_c, 0, 48, 127
1, 226524, Note_off_c, 0, 48, 127
1, 226524, Note_off_c, 2, 74, 127
1, 226526, Note_on_c, 4, 76, 127
1, 226526, Note_on_c, 7, 55, 127
1, 226713, Note_off_c, 4, 76, 127
1, 226716, Note_on_c, 2, 74, 127
1, 226778, Note_off_c, 2, 74, 127
1, 226779, Note_on_c, 4, 76, 127
1, 226841, Note_off_c, 4, 76, 127
1, 226842, Note_on_c, 2, 74, 127
1, 226903, Note_off_c, 7, 55, 127
1, 226904, Note_off_c, 2, 74, 127
1, 226905, Note_on_c, 4, 76, 127
1, 226905, Note_on_c, 7, 43, 127
1, 226967, Note_off_c, 4, 76, 127
1, 226968, Note_on_c, 2, 74, 127
1, 227131, Note_on_c, 0, 72, 127
1, 227133, Note_off_c, 2, 74, 127
1, 227266, Note_off_c, 0, 72, 127
1, 227284, Note_off_c, 7, 43, 127
1, 227286, Note_on_c, 0, 72, 127
1, 227286, Note_on_c, 0, 48, 127
1, 227665, Note_off_c, 0, 48, 127
1, 227667, Note_on_c, 7, 55, 127
1, 228046, Note_off_c, 7, 55, 127
1, 228048, Note_on_c, 0, 60, 127
1, 228257, Note_off_c, 0, 72, 127
1, 228427, Note_off_c, 0, 60, 127
1, 228429, Note_on_c, 10, 81, 127
1, 228429, Note_on_c, 5, 53, 127
1, 228617, Note_off_c, 5, 53, 127
1, 228617, Note_off_c, 10, 81, 127
1, 228619, Note_on_c, 7, 79, 127
1, 228619, Note_on_c, 7, 55, 127
1, 228807, Note_off_c, 7, 55, 127
1, 228807, Note_off_c, 7, 79, 127
1, 228809, Note_on_c, 5, 77, 127
1, 228809, Note_on_c, 10, 57, 127
1, 229188, Note_off_c, 10, 57, 127
1, 229188, Note_off_c, 5, 77, 127
1, 229190, Note_on_c, 7, 79, 127
1, 229190, Note_on_c, 7, 55, 127
1, 229378, Note_off_c, 7, 55, 127
1, 229378, Note_off_c, 7, 79, 127
1, 229380, Note_on_c, 10, 81, 127
1, 229380, Note_on_c, 5, 53, 127
1, 229568, Note_off_c, 5, 53, 127
1, 229568, Note_off_c, 10, 81, 127
1, 229570, Note_on_c, 4, 76, 127
1, 229570, Note_on_c, 0, 60, 127
1, 229949, Note_off_c, 4, 76, 127
1, 229951, Note_on_c, 2, 74, 127
1, 230139, Note_off_c, 2, 74, 127
1, 230139, Note_off_c, 0, 60, 127
1, 230141, Note_on_c, 0, 72, 127
1, 230141, Note_on_c, 11, 58, 127
1, 230329, Note_off_c, 11, 58, 127
1, 230329, Note_off_c, 0, 72, 127
1, 230331, Note_on_c, 5, 77, 127
1, 230331, Note_on_c, 10, 57, 127
1, 230710, Note_off_c, 10, 57, 127
1, 230710, Note_off_c, 5, 77, 127
1, 230712, Note_on_c, 0, 72, 127
1, 230712, Note_on_c, 5, 53, 127
1, 230900, Note_off_c, 5, 53, 127
1, 230902, Note_on_c, 7, 55, 127
1, 231090, Note_off_c, 7, 55, 127
1, 231090, Note_off_c, 0, 72, 127
1, 231092, Note_on_c, 0, 72, 127
1, 231092, Note_on_c, 10, 57, 127
1, 231471, Note_off_c, 10, 57, 127
1, 231471, Note_off_c, 0, 72, 127
1, 231473, Note_on_c, 5, 77, 127
1, 231473, Note_on_c, 7, 55, 127
1, 231661, Note_off_c, 7, 55, 127
1, 231663, Note_on_c, 5, 53, 127
1, 231851, Note_off_c, 5, 53, 127
1, 231851, Note_off_c, 5, 77, 127
1, 231853, Note_on_c, 7, 79, 127
1, 231853, Note_on_c, 4, 52, 127
1, 232232, Note_off_c, 7, 79, 127
1, 232234, Note_on_c, 0, 72, 127
1, 232422, Note_off_c, 4, 52, 127
1, 232424, Note_on_c, 2, 50, 127
1, 232612, Note_off_c, 2, 50, 127
1, 232612, Note_off_c, 0, 72, 127
1, 232614, Note_on_c, 11, 82, 127
1, 232614, Note_on_c, 4, 52, 127
1, 232993, Note_off_c, 4, 52, 127
1, 232993, Note_off_c, 11, 82, 127
1, 232995, Note_on_c, 10, 81, 127
1, 232995, Note_on_c, 5, 53, 127
1, 233374, Note_off_c, 5, 53, 127
1, 233374, Note_off_c, 10, 81, 127
1, 233376, Note_on_c, 7, 79, 127
1, 233376, Note_on_c, 0, 48, 127
1, 233564, Note_off_c, 7, 79, 127
1, 233566, Note_on_c, 5, 77, 127
1, 233754, Note_off_c, 5, 77, 127
1, 233754, Note_off_c, 0, 48, 127
1, 233756, Note_on_c, 4, 76, 127
1, 233756, Note_on_c, 7, 55, 127
1, 233944, Note_off_c, 4, 76, 127
1, 233946, Note_on_c, 5, 77, 127
1, 234134, Note_off_c, 5, 77, 127
1, 234134, Note_off_c, 7, 55, 127
1, 234136, Note_on_c, 7, 79, 127
1, 234136, Note_on_c, 0, 60, 127
1, 234515, Note_off_c, 0, 60, 127
1, 234515, Note_off_c, 7, 79, 127
1, 234517, Note_on_c, 10, 81, 127
1, 234517, Note_on_c, 5, 53, 127
1, 234705, Note_off_c, 5, 53, 127
1, 234705, Note_off_c, 10, 81, 127
1, 234707, Note_on_c, 7, 79, 127
1, 234707, Note_on_c, 7, 55, 127
1, 234895, Note_off_c, 7, 55, 127
1, 234895, Note_off_c, 7, 79, 127
1, 234897, Note_on_c, 5, 77, 127
1, 234897, Note_on_c, 10, 57, 127
1, 235276, Note_off_c, 10, 57, 127
1, 235276, Note_off_c, 5, 77, 127
1, 235278, Note_on_c, 7, 79, 127
1, 235278, Note_on_c, 7, 55, 127
1, 235466, Note_off_c, 7, 55, 127
1, 235466, Note_off_c, 7, 79, 127
1, 235468, Note_on_c, 10, 81, 127
1, 235468, Note_on_c, 5, 53, 127
1, 235656, Note_off_c, 5, 53, 127
1, 235656, Note_off_c, 10, 81, 127
1, 235658, Note_on_c, 4, 76, 127
1, 235658, Note_on_c, 0, 60, 127
1, 236037, Note_off_c, 0, 60, 127
1, 236037, Note_off_c, 4, 76, 127
1, 236039, Note_on_c, 2, 74, 127
1, 236039, Note_on_c, 0, 48, 127
1, 236227, Note_off_c, 2, 74, 127
1, 236229, Note_on_c, 0, 72, 127
1, 236417, Note_off_c, 0, 72, 127
1, 236417, Note_off_c, 0, 48, 127
1, 236419, Note_on_c, 5, 77, 127
1, 236419, Note_on_c, 2, 50, 127
1, 236798, Note_off_c, 2, 50, 127
1, 236798, Note_off_c, 5, 77, 127
1, 236800, Note_on_c, 5, 65, 127
1, 236800, Note_on_c, 0, 48, 127
1, 236988, Note_off_c, 0, 48, 127
1, 236990, Note_on_c, 11, 46, 127
1, 237178, Note_off_c, 11, 46, 127
1, 237178, Note_off_c, 5, 65, 127
1, 237180, Note_on_c, 5, 65, 127
1, 237180, Note_on_c, 10, 45, 127
1, 237559, Note_off_c, 10, 45, 127
1, 237559, Note_off_c, 5, 65, 127
1, 237561, Note_on_c, 11, 70, 127
1, 237561, Note_on_c, 11, 46, 127
1, 237749, Note_off_c, 11, 46, 127
1, 237751, Note_on_c, 0, 48, 127
1, 237939, Note_off_c, 0, 48, 127
1, 237939, Note_off_c, 11, 70, 127
1, 237941, Note_on_c, 10, 69, 127
1, 237941, Note_on_c, 2, 50, 127
1, 238320, Note_off_c, 2, 50, 127
1, 238320, Note_off_c, 10, 69, 127
1, 238322, Note_on_c, 2, 74, 127
1, 238322, Note_on_c, 11, 46, 127
1, 238510, Note_off_c, 2, 74, 127
1, 238512, Note_on_c, 7, 67, 127
1, 238700, Note_off_c, 7, 67, 127
1, 238700, Note_off_c, 11, 46, 127
1, 238702, Note_on_c, 10, 69, 127
1, 238702, Note_on_c, 0, 48, 127
1, 238826, Note_off_c, 10, 69, 127
1, 238827, Note_on_c, 7, 67, 127
1, 238910, Note_off_c, 7, 67, 127
1, 238912, Note_on_c, 10, 69, 127
1, 238994, Note_off_c, 10, 69, 127
1, 238997, Note_on_c, 7, 67, 127
1, 239080, Note_off_c, 7, 67, 127
1, 239080, Note_off_c, 0, 48, 127
1, 239082, Note_on_c, 10, 69, 127
1, 239082, Note_on_c, 0, 36, 127
1, 239165, Note_off_c, 10, 69, 127
1, 239167, Note_on_c, 7, 67, 127
1, 239272, Note_on_c, 5, 65, 127
1, 239275, Note_off_c, 7, 67, 127
1, 239460, Note_off_c, 5, 65, 127
1, 239460, Note_off_c, 0, 36, 127
1, 239462, Note_on_c, 5, 65, 127
1, 239462, Note_on_c, 5, 41, 127
1, 239906, Note_on_c, 0, 48, 127
1, 240031, Note_off_c, 5, 41, 127
1, 240350, Note_on_c, 5, 53, 127
1, 240381, Note_off_c, 0, 48, 127
1, 241059, Note_off_c, 5, 65, 127
1, 241660, Note_off_c, 5, 53, 127
1, 241932, Note_on_c, 5, 53, 127
1, 241932, Note_on_c, 5, 77, 127
1, 242113, Note_off_c, 5, 77, 127
1, 242113, Note_off_c, 5, 53, 127
1, 242126, Note_on_c, 0, 48, 127
1, 242126, Note_on_c, 4, 76, 127
1, 242318, Note_off_c, 4, 76, 127
1, 242320, Note_on_c, 2, 74, 127
1, 242510, Note_off_c, 2, 74, 127
1, 242512, Note_off_c, 0, 48, 127
1, 242514, Note_on_c, 4, 52, 127
1, 242514, Note_on_c, 0, 72, 127
1, 242695, Note_off_c, 0, 72, 127
1, 242695, Note_off_c, 4, 52, 127
1, 242708, Note_on_c, 5, 53, 127
1, 242708, Note_on_c, 10, 81, 127
1, 242900, Note_off_c, 10, 81, 127
1, 242902, Note_on_c, 7, 79, 127
1, 243092, Note_off_c, 7, 79, 127
1, 243094, Note_off_c, 5, 53, 127
1, 243096, Note_on_c, 10, 57, 127
1, 243096, Note_on_c, 5, 77, 127
1, 243277, Note_off_c, 5, 77, 127
1, 243277, Note_off_c, 10, 57, 127
1, 243290, Note_on_c, 0, 60, 127
1, 243290, Note_on_c, 4, 76, 127
1, 243482, Note_off_c, 4, 76, 127
1, 243484, Note_on_c, 5, 77, 127
1, 243674, Note_off_c, 5, 77, 127
1, 243676, Note_off_c, 0, 60, 127
1, 243678, Note_on_c, 12, 59, 127
1, 243678, Note_on_c, 7, 79, 127
1, 243859, Note_off_c, 7, 79, 127
1, 243859, Note_off_c, 12, 59, 127
1, 243872, Note_on_c, 0, 60, 127
1, 243872, Note_on_c, 4, 76, 127
1, 244064, Note_off_c, 4, 76, 127
1, 244066, Note_on_c, 0, 72, 127
1, 244256, Note_off_c, 0, 72, 127
1, 244258, Note_off_c, 0, 60, 127
1, 244260, Note_on_c, 10, 57, 127
1, 244260, Note_on_c, 5, 77, 127
1, 244441, Note_off_c, 5, 77, 127
1, 244441, Note_off_c, 10, 57, 127
1, 244454, Note_on_c, 11, 58, 127
1, 244454, Note_on_c, 2, 74, 127
1, 244646, Note_off_c, 2, 74, 127
1, 244648, Note_on_c, 0, 72, 127
1, 244838, Note_off_c, 0, 72, 127
1, 244840, Note_off_c, 11, 58, 127
1, 244842, Note_on_c, 7, 55, 127
1, 244842, Note_on_c, 11, 70, 127
1, 245023, Note_off_c, 11, 70, 127
1, 245023, Note_off_c, 7, 55, 127
1, 245036, Note_on_c, 10, 57, 127
1, 245036, Note_on_c, 0, 72, 127
1, 245228, Note_off_c, 0, 72, 127
1, 245230, Note_on_c, 11, 70, 127
1, 245420, Note_off_c, 11, 70, 127
1, 245422, Note_off_c, 10, 57, 127
1, 245424, Note_on_c, 5, 53, 127
1, 245424, Note_on_c, 10, 69, 127
1, 245605, Note_off_c, 10, 69, 127
1, 245605, Note_off_c, 5, 53, 127
1, 245618, Note_on_c, 7, 55, 127
1, 245618, Note_on_c, 11, 70, 127
1, 245810, Note_off_c, 11, 70, 127
1, 245812, Note_on_c, 7, 67, 127
1, 246002, Note_off_c, 7, 67, 127
1, 246004, Note_off_c, 7, 55, 127
1, 246006, Note_on_c, 4, 52, 127
1, 246006, Note_on_c, 0, 72, 127
1, 246187, Note_off_c, 0, 72, 127
1, 246187, Note_off_c, 4, 52, 127
1, 246200, Note_on_c, 5, 53, 127
1, 246200, Note_on_c, 10, 69, 127
1, 246392, Note_off_c, 10, 69, 127
1, 246394, Note_on_c, 5, 65, 127
1, 246584, Note_off_c, 5, 65, 127
1, 246586, Note_off_c, 5, 53, 127
1, 246588, Note_on_c, 4, 52, 127
1, 246588, Note_on_c, 0, 72, 127
1, 246769, Note_off_c, 0, 72, 127
1, 246769, Note_off_c, 4, 52, 127
1, 246782, Note_on_c, 5, 53, 127
1, 246782, Note_on_c, 10, 69, 127
1, 246974, Note_off_c, 10, 69, 127
1, 246976, Note_on_c, 5, 65, 127
1, 247166, Note_off_c, 5, 65, 127
1, 247168, Note_off_c, 5, 53, 127
1, 247170, Note_on_c, 12, 47, 127
1, 247170, Note_on_c, 5, 77, 127
1, 247351, Note_off_c, 5, 77, 127
1, 247351, Note_off_c, 12, 47, 127
1, 247364, Note_on_c, 0, 48, 127
1, 247364, Note_on_c, 4, 76, 127
1, 247556, Note_off_c, 4, 76, 127
1, 247558, Note_on_c, 0, 72, 127
1, 247748, Note_off_c, 0, 72, 127
1, 247750, Note_off_c, 0, 48, 127
1, 247752, Note_on_c, 10, 45, 127
1, 247752, Note_on_c, 5, 77, 127
1, 247933, Note_off_c, 5, 77, 127
1, 247933, Note_off_c, 10, 45, 127
1, 247946, Note_on_c, 4, 40, 127
1, 247946, Note_on_c, 7, 79, 127
1, 248138, Note_off_c, 7, 79, 127
1, 248140, Note_on_c, 4, 76, 127
1, 248330, Note_off_c, 4, 76, 127
1, 248332, Note_off_c, 4, 40, 127
1, 248334, Note_on_c, 5, 53, 127
1, 248334, Note_on_c, 0, 72, 127
1, 248515, Note_off_c, 0, 72, 127
1, 248515, Note_off_c, 5, 53, 127
1, 248528, Note_on_c, 4, 52, 127
1, 248528, Note_on_c, 0, 72, 127
1, 248720, Note_off_c, 4, 52, 127
1, 248722, Note_on_c, 0, 48, 127
1, 248912, Note_off_c, 0, 48, 127
1, 248914, Note_off_c, 0, 72, 127
1, 248916, Note_on_c, 4, 52, 127
1, 248916, Note_on_c, 7, 79, 127
1, 249097, Note_off_c, 7, 79, 127
1, 249097, Note_off_c, 4, 52, 127
1, 249110, Note_on_c, 5, 53, 127
1, 249110, Note_on_c, 10, 81, 127
1, 249302, Note_off_c, 10, 81, 127
1, 249304, Note_on_c, 5, 77, 127
1, 249494, Note_off_c, 5, 77, 127
1, 249498, Note_on_c, 0, 72, 127
1, 249594, Note_off_c, 5, 53, 127
1, 249679, Note_off_c, 0, 72, 127
1, 249692, Note_on_c, 4, 52, 127
1, 249692, Note_on_c, 7, 79, 127
1, 249884, Note_off_c, 7, 79, 127
1, 249886, Note_on_c, 4, 76, 127
1, 250076, Note_off_c, 4, 76, 127
1, 250080, Note_on_c, 0, 72, 127
1, 250176, Note_off_c, 4, 52, 127
1, 250261, Note_off_c, 0, 72, 127
1, 250274, Note_on_c, 2, 50, 127
1, 250274, Note_on_c, 5, 77, 127
1, 250466, Note_off_c, 5, 77, 127
1, 250468, Note_on_c, 2, 74, 127
1, 250658, Note_off_c, 2, 74, 127
1, 250660, Note_off_c, 2, 50, 127
1, 250662, Note_on_c, 5, 53, 127
1, 250662, Note_on_c, 0, 72, 127
1, 250843, Note_off_c, 0, 72, 127
1, 250843, Note_off_c, 5, 53, 127
1, 250856, Note_on_c, 7, 55, 127
1, 250856, Note_on_c, 12, 71, 127
1, 251048, Note_off_c, 12, 71, 127
1, 251050, Note_on_c, 7, 67, 127
1, 251240, Note_off_c, 7, 67, 127
1, 251242, Note_off_c, 7, 55, 127
1, 251244, Note_on_c, 5, 53, 127
1, 251244, Note_on_c, 12, 71, 127
1, 251425, Note_off_c, 12, 71, 127
1, 251425, Note_off_c, 5, 53, 127
1, 251438, Note_on_c, 4, 52, 127
1, 251438, Note_on_c, 0, 72, 127
1, 251630, Note_off_c, 0, 72, 127
1, 251632, Note_on_c, 4, 76, 127
1, 251822, Note_off_c, 4, 76, 127
1, 251824, Note_off_c, 4, 52, 127
1, 251826, Note_on_c, 0, 48, 127
1, 251826, Note_on_c, 7, 79, 127
1, 252007, Note_off_c, 7, 79, 127
1, 252007, Note_off_c, 0, 48, 127
1, 252020, Note_on_c, 12, 47, 127
1, 252020, Note_on_c, 2, 74, 127
1, 252212, Note_off_c, 2, 74, 127
1, 252214, Note_on_c, 5, 77, 127
1, 252404, Note_off_c, 5, 77, 127
1, 252406, Note_off_c, 12, 47, 127
1, 252408, Note_on_c, 7, 43, 127
1, 252408, Note_on_c, 7, 79, 127
1, 252589, Note_off_c, 7, 79, 127
1, 252589, Note_off_c, 7, 43, 127
1, 252602, Note_on_c, 0, 48, 127
1, 252602, Note_on_c, 4, 76, 127
1, 252794, Note_off_c, 4, 76, 127
1, 252796, Note_on_c, 7, 79, 127
1, 252986, Note_off_c, 7, 79, 127
1, 252988, Note_off_c, 0, 48, 127
1, 252990, Note_on_c, 4, 52, 127
1, 252990, Note_on_c, 0, 84, 127
1, 253171, Note_off_c, 0, 84, 127
1, 253171, Note_off_c, 4, 52, 127
1, 253184, Note_on_c, 7, 55, 127
1, 253184, Note_on_c, 12, 83, 127
1, 253376, Note_off_c, 12, 83, 127
1, 253378, Note_on_c, 10, 81, 127
1, 253568, Note_off_c, 10, 81, 127
1, 253570, Note_off_c, 7, 55, 127
1, 253572, Note_on_c, 0, 60, 127
1, 253572, Note_on_c, 7, 79, 127
1, 253753, Note_off_c, 7, 79, 127
1, 253753, Note_off_c, 0, 60, 127
1, 253766, Note_on_c, 5, 53, 127
1, 253766, Note_on_c, 10, 81, 127
1, 253958, Note_off_c, 10, 81, 127
1, 253960, Note_on_c, 7, 79, 127
1, 254150, Note_off_c, 7, 79, 127
1, 254154, Note_on_c, 5, 77, 127
1, 254250, Note_off_c, 5, 53, 127
1, 254335, Note_off_c, 5, 77, 127
1, 254348, Note_on_c, 4, 52, 127
1, 254348, Note_on_c, 7, 79, 127
1, 254540, Note_off_c, 7, 79, 127
1, 254542, Note_on_c, 5, 77, 127
1, 254732, Note_off_c, 5, 77, 127
1, 254736, Note_on_c, 4, 76, 127
1, 254832, Note_off_c, 4, 52, 127
1, 254917, Note_off_c, 4, 76, 127
1, 254930, Note_on_c, 2, 50, 127
1, 254930, Note_on_c, 5, 77, 127
1, 255122, Note_off_c, 5, 77, 127
1, 255124, Note_on_c, 2, 74, 127
1, 255314, Note_off_c, 2, 74, 127
1, 255316, Note_off_c, 2, 50, 127
1, 255318, Note_on_c, 12, 47, 127
1, 255318, Note_on_c, 7, 79, 127
1, 255499, Note_off_c, 7, 79, 127
1, 255499, Note_off_c, 12, 47, 127
1, 255512, Note_on_c, 0, 48, 127
1, 255512, Note_on_c, 4, 76, 127
1, 255704, Note_off_c, 4, 76, 127
1, 255706, Note_on_c, 7, 79, 127
1, 255896, Note_off_c, 7, 79, 127
1, 255898, Note_off_c, 0, 48, 127
1, 255900, Note_on_c, 4, 52, 127
1, 255900, Note_on_c, 7, 67, 127
1, 256081, Note_off_c, 7, 67, 127
1, 256081, Note_off_c, 4, 52, 127
1, 256094, Note_on_c, 5, 53, 127
1, 256094, Note_on_c, 10, 69, 127
1, 256286, Note_off_c, 10, 69, 127
1, 256288, Note_on_c, 5, 77, 127
1, 256478, Note_off_c, 5, 77, 127
1, 256482, Note_on_c, 4, 76, 127
1, 256578, Note_off_c, 5, 53, 127
1, 256663, Note_off_c, 4, 76, 127
1, 256676, Note_on_c, 12, 47, 127
1, 256676, Note_on_c, 2, 74, 127
1, 256868, Note_off_c, 2, 74, 127
1, 256870, Note_on_c, 7, 79, 127
1, 257060, Note_off_c, 7, 79, 127
1, 257064, Note_on_c, 5, 77, 127
1, 257160, Note_off_c, 12, 47, 127
1, 257245, Note_off_c, 5, 77, 127
1, 257258, Note_on_c, 0, 48, 127
1, 257258, Note_on_c, 4, 76, 127
1, 257450, Note_off_c, 4, 76, 127
1, 257450, Note_off_c, 0, 48, 127
1, 257452, Note_on_c, 5, 41, 127
1, 257452, Note_on_c, 10, 69, 127
1, 257642, Note_off_c, 10, 69, 127
1, 257642, Note_off_c, 5, 41, 127
1, 257646, Note_on_c, 7, 43, 127
1, 257646, Note_on_c, 12, 71, 127
1, 257827, Note_off_c, 12, 71, 127
1, 257827, Note_off_c, 7, 43, 127
1, 257840, Note_on_c, 0, 48, 127
1, 257840, Note_on_c, 0, 72, 127
1, 258230, Note_off_c, 0, 72, 127
1, 258230, Note_off_c, 0, 48, 127
1, 258250, Note_on_c, 5, 41, 127
1, 258250, Note_on_c, 5, 77, 127
1, 258450, Note_off_c, 5, 77, 127
1, 258450, Note_off_c, 5, 41, 127
1, 258461, Note_on_c, 0, 48, 127
1, 258461, Note_on_c, 4, 76, 127
1, 258653, Note_off_c, 4, 76, 127
1, 258655, Note_on_c, 2, 74, 127
1, 258845, Note_off_c, 2, 74, 127
1, 258847, Note_off_c, 0, 48, 127
1, 258849, Note_on_c, 4, 52, 127
1, 258849, Note_on_c, 0, 72, 127
1, 259030, Note_off_c, 0, 72, 127
1, 259030, Note_off_c, 4, 52, 127
1, 259043, Note_on_c, 5, 53, 127
1, 259043, Note_on_c, 10, 81, 127
1, 259235, Note_off_c, 10, 81, 127
1, 259237, Note_on_c, 7, 79, 127
1, 259427, Note_off_c, 7, 79, 127
1, 259429, Note_off_c, 5, 53, 127
1, 259431, Note_on_c, 10, 57, 127
1, 259431, Note_on_c, 5, 77, 127
1, 259612, Note_off_c, 5, 77, 127
1, 259612, Note_off_c, 10, 57, 127
1, 259625, Note_on_c, 0, 60, 127
1, 259625, Note_on_c, 4, 76, 127
1, 259817, Note_off_c, 4, 76, 127
1, 259819, Note_on_c, 5, 77, 127
1, 260009, Note_off_c, 5, 77, 127
1, 260011, Note_off_c, 0, 60, 127
1, 260013, Note_on_c, 12, 59, 127
1, 260013, Note_on_c, 7, 79, 127
1, 260194, Note_off_c, 7, 79, 127
1, 260194, Note_off_c, 12, 59, 127
1, 260207, Note_on_c, 0, 60, 127
1, 260207, Note_on_c, 4, 76, 127
1, 260399, Note_off_c, 4, 76, 127
1, 260401, Note_on_c, 0, 72, 127
1, 260591, Note_off_c, 0, 72, 127
1, 260593, Note_off_c, 0, 60, 127
1, 260611, Note_on_c, 5, 77, 127
1, 260611, Note_on_c, 10, 57, 127
1, 260792, Note_off_c, 10, 57, 127
1, 260792, Note_off_c, 5, 77, 127
1, 260805, Note_on_c, 2, 74, 127
1, 260805, Note_on_c, 11, 58, 127
1, 260997, Note_off_c, 2, 74, 127
1, 260999, Note_on_c, 0, 72, 127
1, 261189, Note_off_c, 0, 72, 127
1, 261191, Note_off_c, 11, 58, 127
1, 261201, Note_on_c, 11, 70, 127
1, 261201, Note_on_c, 7, 55, 127
1, 261382, Note_off_c, 7, 55, 127
1, 261382, Note_off_c, 11, 70, 127
1, 261403, Note_on_c, 0, 72, 127
1, 261403, Note_on_c, 10, 57, 127
1, 261595, Note_off_c, 0, 72, 127
1, 261613, Note_on_c, 11, 70, 127
1, 261789, Note_off_c, 10, 57, 127
1, 261793, Note_off_c, 11, 70, 127
1, 261807, Note_on_c, 5, 53, 127
1, 261807, Note_on_c, 10, 69, 127
1, 262002, Note_off_c, 10, 69, 127
1, 262002, Note_off_c, 5, 53, 127
1, 262017, Note_on_c, 11, 70, 127
1, 262017, Note_on_c, 7, 55, 127
1, 262209, Note_off_c, 11, 70, 127
1, 262235, Note_on_c, 7, 67, 127
1, 262402, Note_off_c, 7, 55, 127
1, 262424, Note_off_c, 7, 67, 127
1, 262452, Note_on_c, 0, 72, 127
1, 262452, Note_on_c, 4, 52, 127
1, 262682, Note_off_c, 4, 52, 127
1, 262682, Note_off_c, 0, 72, 127
1, 262759, Note_on_c, 5, 53, 127
1, 262759, Note_on_c, 5, 65, 127
1, 264559, Note_off_c, 5, 65, 127
1, 264559, Note_off_c, 5, 53, 127
1, 270336, End_track
0, 0, End_of_file
