0, 0, Header, 1, 17, 480
1, 0, Start_track
1, 0, Title_t, "untitled"
1, 0, Text_t, "RH\012"
1, 0, Text_t, "RH/LH\012"
1, 0, Text_t, "LH\012"
1, 0, SMPTE_offset, 96, 0, 3, 0, 0
1, 0, Time_signature, 9, 4, 6, 8
1, 0, Key_signature, 2, "major"
1, 0, Tempo, 750000
1, 33840, Tempo, 1200000
1, 34560, Tempo, 750000
1, 39960, Tempo, 1500000
1, 39960, End_track
2, 0, Start_track
2, 0, MIDI_port, 0
2, 0, Title_t, "Solo Keyboard"
2, 0, Program_c, 0, 6
2, 0, Control_c, 0, 7, 100
2, 0, Control_c, 0, 10, 96
2, 0, Note_on_c, 0, 71, 100
2, 120, Note_on_c, 0, 71, 0
2, 120, Note_on_c, 0, 66, 100
2, 240, Note_on_c, 0, 66, 0
2, 240, Note_on_c, 0, 66, 100
2, 360, Note_on_c, 0, 66, 0
2, 360, Note_on_c, 0, 67, 100
2, 480, Note_on_c, 0, 67, 0
2, 480, Note_on_c, 0, 66, 100
2, 600, Note_on_c, 0, 66, 0
2, 600, Note_on_c, 0, 66, 100
2, 720, Note_on_c, 0, 66, 0
2, 720, Note_on_c, 0, 71, 100
2, 840, Note_on_c, 0, 71, 0
2, 840, Note_on_c, 0, 66, 100
2, 960, Note_on_c, 0, 66, 0
2, 960, Note_on_c, 0, 66, 100
2, 1080, Note_on_c, 0, 66, 0
2, 1080, Note_on_c, 0, 73, 100
2, 1200, Note_on_c, 0, 73, 0
2, 1200, Note_on_c, 0, 66, 100
2, 1320, Note_on_c, 0, 66, 0
2, 1320, Note_on_c, 0, 66, 100
2, 1440, Note_on_c, 0, 66, 0
2, 1440, Note_on_c, 0, 67, 100
2, 1560, Note_on_c, 0, 67, 0
2, 1560, Note_on_c, 0, 66, 100
2, 1680, Note_on_c, 0, 66, 0
2, 1680, Note_on_c, 0, 66, 100
2, 1800, Note_on_c, 0, 66, 0
2, 1800, Note_on_c, 0, 73, 100
2, 1920, Note_on_c, 0, 73, 0
2, 1920, Note_on_c, 0, 66, 100
2, 2040, Note_on_c, 0, 66, 0
2, 2040, Note_on_c, 0, 66, 100
2, 2160, Note_on_c, 0, 66, 0
2, 2160, Note_on_c, 0, 74, 100
2, 2220, Note_on_c, 0, 74, 0
2, 2220, Note_on_c, 0, 71, 100
2, 2280, Note_on_c, 0, 71, 0
2, 2280, Note_on_c, 0, 74, 100
2, 2340, Note_on_c, 0, 74, 0
2, 2340, Note_on_c, 0, 78, 100
2, 2400, Note_on_c, 0, 78, 0
2, 2400, Note_on_c, 0, 83, 100
2, 2460, Note_on_c, 0, 83, 0
2, 2460, Note_on_c, 0, 78, 100
2, 2520, Note_on_c, 0, 78, 0
2, 2520, Note_on_c, 0, 74, 100
2, 2580, Note_on_c, 0, 74, 0
2, 2580, Note_on_c, 0, 78, 100
2, 2640, Note_on_c, 0, 78, 0
2, 2640, Note_on_c, 0, 74, 100
2, 2700, Note_on_c, 0, 74, 0
2, 2700, Note_on_c, 0, 71, 100
2, 2760, Note_on_c, 0, 71, 0
2, 2760, Note_on_c, 0, 74, 100
2, 2820, Note_on_c, 0, 74, 0
2, 2820, Note_on_c, 0, 71, 100
2, 2880, Note_on_c, 0, 71, 0
2, 2880, Note_on_c, 0, 66, 100
2, 2940, Note_on_c, 0, 66, 0
2, 2940, Note_on_c, 0, 71, 100
2, 3000, Note_on_c, 0, 71, 0
2, 3000, Note_on_c, 0, 66, 100
2, 3060, Note_on_c, 0, 66, 0
2, 3060, Note_on_c, 0, 62, 100
2, 3120, Note_on_c, 0, 62, 0
2, 3120, Note_on_c, 0, 66, 100
2, 3180, Note_on_c, 0, 66, 0
2, 3180, Note_on_c, 0, 62, 100
2, 3240, Note_on_c, 0, 62, 0
2, 3240, Note_on_c, 0, 59, 100
2, 3360, Note_on_c, 0, 59, 0
2, 3720, Note_on_c, 0, 71, 100
2, 3840, Note_on_c, 0, 71, 0
2, 3840, Note_on_c, 0, 73, 100
2, 3960, Note_on_c, 0, 73, 0
2, 3960, Note_on_c, 0, 74, 100
2, 4080, Note_on_c, 0, 74, 0
2, 4080, Note_on_c, 0, 73, 100
2, 4200, Note_on_c, 0, 73, 0
2, 4200, Note_on_c, 0, 71, 100
2, 4320, Note_on_c, 0, 71, 0
2, 4320, Note_on_c, 0, 70, 100
2, 4800, Note_on_c, 0, 70, 0
2, 4800, Note_on_c, 0, 71, 100
2, 4920, Note_on_c, 0, 71, 0
2, 4920, Note_on_c, 0, 73, 100
2, 5040, Note_on_c, 0, 73, 0
2, 5040, Note_on_c, 0, 71, 100
2, 5160, Note_on_c, 0, 71, 0
2, 5160, Note_on_c, 0, 73, 100
2, 5280, Note_on_c, 0, 73, 0
2, 5280, Note_on_c, 0, 70, 100
2, 5400, Note_on_c, 0, 70, 0
2, 5400, Note_on_c, 0, 71, 100
2, 5460, Note_on_c, 0, 71, 0
2, 5460, Note_on_c, 0, 66, 100
2, 5520, Note_on_c, 0, 66, 0
2, 5520, Note_on_c, 0, 71, 100
2, 5580, Note_on_c, 0, 71, 0
2, 5580, Note_on_c, 0, 74, 100
2, 5640, Note_on_c, 0, 74, 0
2, 5640, Note_on_c, 0, 78, 100
2, 5700, Note_on_c, 0, 78, 0
2, 5700, Note_on_c, 0, 74, 100
2, 5760, Note_on_c, 0, 74, 0
2, 5760, Note_on_c, 0, 71, 100
2, 5820, Note_on_c, 0, 71, 0
2, 5820, Note_on_c, 0, 74, 100
2, 5880, Note_on_c, 0, 74, 0
2, 5880, Note_on_c, 0, 71, 100
2, 5940, Note_on_c, 0, 71, 0
2, 5940, Note_on_c, 0, 66, 100
2, 6000, Note_on_c, 0, 66, 0
2, 6000, Note_on_c, 0, 71, 100
2, 6060, Note_on_c, 0, 71, 0
2, 6060, Note_on_c, 0, 66, 100
2, 6120, Note_on_c, 0, 66, 0
2, 6120, Note_on_c, 0, 62, 100
2, 6180, Note_on_c, 0, 62, 0
2, 6180, Note_on_c, 0, 66, 100
2, 6240, Note_on_c, 0, 66, 0
2, 6240, Note_on_c, 0, 62, 100
2, 6300, Note_on_c, 0, 62, 0
2, 6300, Note_on_c, 0, 59, 100
2, 6360, Note_on_c, 0, 59, 0
2, 6360, Note_on_c, 0, 62, 100
2, 6420, Note_on_c, 0, 62, 0
2, 6420, Note_on_c, 0, 59, 100
2, 6480, Note_on_c, 0, 59, 0
2, 6480, Note_on_c, 0, 74, 100
2, 7680, Note_on_c, 0, 74, 0
2, 7680, Note_on_c, 0, 71, 100
2, 7800, Note_on_c, 0, 71, 0
2, 7800, Note_on_c, 0, 71, 100
2, 7920, Note_on_c, 0, 71, 0
2, 7920, Note_on_c, 0, 73, 100
2, 8040, Note_on_c, 0, 73, 0
2, 8040, Note_on_c, 0, 71, 100
2, 8160, Note_on_c, 0, 71, 0
2, 8160, Note_on_c, 0, 71, 100
2, 8280, Note_on_c, 0, 71, 0
2, 8280, Note_on_c, 0, 76, 100
2, 8400, Note_on_c, 0, 76, 0
2, 8400, Note_on_c, 0, 71, 100
2, 8520, Note_on_c, 0, 71, 0
2, 8520, Note_on_c, 0, 71, 100
2, 8640, Note_on_c, 0, 71, 0
2, 8640, Note_on_c, 0, 73, 100
2, 9840, Note_on_c, 0, 73, 0
2, 9840, Note_on_c, 0, 69, 100
2, 9960, Note_on_c, 0, 69, 0
2, 9960, Note_on_c, 0, 69, 100
2, 10080, Note_on_c, 0, 69, 0
2, 10080, Note_on_c, 0, 71, 100
2, 10200, Note_on_c, 0, 71, 0
2, 10200, Note_on_c, 0, 69, 100
2, 10320, Note_on_c, 0, 69, 0
2, 10320, Note_on_c, 0, 69, 100
2, 10440, Note_on_c, 0, 69, 0
2, 10440, Note_on_c, 0, 74, 100
2, 10560, Note_on_c, 0, 74, 0
2, 10560, Note_on_c, 0, 69, 100
2, 10680, Note_on_c, 0, 69, 0
2, 10680, Note_on_c, 0, 69, 100
2, 10800, Note_on_c, 0, 69, 0
2, 10800, Note_on_c, 0, 71, 100
2, 10860, Note_on_c, 0, 71, 0
2, 10860, Note_on_c, 0, 74, 100
2, 10920, Note_on_c, 0, 74, 0
2, 10920, Note_on_c, 0, 71, 100
2, 10980, Note_on_c, 0, 71, 0
2, 10980, Note_on_c, 0, 67, 100
2, 11040, Note_on_c, 0, 67, 0
2, 11040, Note_on_c, 0, 71, 100
2, 11100, Note_on_c, 0, 71, 0
2, 11100, Note_on_c, 0, 67, 100
2, 11160, Note_on_c, 0, 67, 0
2, 11160, Note_on_c, 0, 64, 100
2, 11520, Note_on_c, 0, 64, 0
2, 11520, Note_on_c, 0, 76, 100
2, 11580, Note_on_c, 0, 76, 0
2, 11580, Note_on_c, 0, 79, 100
2, 11640, Note_on_c, 0, 79, 0
2, 11640, Note_on_c, 0, 76, 100
2, 11700, Note_on_c, 0, 76, 0
2, 11700, Note_on_c, 0, 73, 100
2, 11760, Note_on_c, 0, 73, 0
2, 11760, Note_on_c, 0, 76, 100
2, 11820, Note_on_c, 0, 76, 0
2, 11820, Note_on_c, 0, 73, 100
2, 11880, Note_on_c, 0, 73, 0
2, 11880, Note_on_c, 0, 69, 100
2, 11940, Note_on_c, 0, 69, 0
2, 11940, Note_on_c, 0, 73, 100
2, 12000, Note_on_c, 0, 73, 0
2, 12000, Note_on_c, 0, 69, 100
2, 12060, Note_on_c, 0, 69, 0
2, 12060, Note_on_c, 0, 66, 100
2, 12120, Note_on_c, 0, 66, 0
2, 12120, Note_on_c, 0, 69, 100
2, 12180, Note_on_c, 0, 69, 0
2, 12180, Note_on_c, 0, 66, 100
2, 12240, Note_on_c, 0, 66, 0
2, 12240, Note_on_c, 0, 62, 100
2, 12600, Note_on_c, 0, 62, 0
2, 12600, Note_on_c, 0, 74, 100
2, 12660, Note_on_c, 0, 74, 0
2, 12660, Note_on_c, 0, 78, 100
2, 12720, Note_on_c, 0, 78, 0
2, 12720, Note_on_c, 0, 74, 100
2, 12780, Note_on_c, 0, 74, 0
2, 12780, Note_on_c, 0, 71, 100
2, 12840, Note_on_c, 0, 71, 0
2, 12840, Note_on_c, 0, 74, 100
2, 12900, Note_on_c, 0, 74, 0
2, 12900, Note_on_c, 0, 71, 100
2, 12960, Note_on_c, 0, 71, 0
2, 12960, Note_on_c, 0, 67, 100
2, 13020, Note_on_c, 0, 67, 0
2, 13020, Note_on_c, 0, 71, 100
2, 13080, Note_on_c, 0, 71, 0
2, 13080, Note_on_c, 0, 67, 100
2, 13140, Note_on_c, 0, 67, 0
2, 13140, Note_on_c, 0, 64, 100
2, 13200, Note_on_c, 0, 64, 0
2, 13200, Note_on_c, 0, 67, 100
2, 13260, Note_on_c, 0, 67, 0
2, 13260, Note_on_c, 0, 64, 100
2, 13320, Note_on_c, 0, 64, 0
2, 13320, Note_on_c, 0, 61, 100
2, 13380, Note_on_c, 0, 61, 0
2, 13380, Note_on_c, 0, 64, 100
2, 13440, Note_on_c, 0, 64, 0
2, 13440, Note_on_c, 0, 61, 100
2, 13500, Note_on_c, 0, 61, 0
2, 13500, Note_on_c, 0, 57, 100
2, 13560, Note_on_c, 0, 57, 0
2, 13560, Note_on_c, 0, 61, 100
2, 13620, Note_on_c, 0, 61, 0
2, 13620, Note_on_c, 0, 57, 100
2, 13680, Note_on_c, 0, 57, 0
2, 13680, Note_on_c, 0, 69, 100
2, 13800, Note_on_c, 0, 69, 0
2, 13800, Note_on_c, 0, 66, 100
2, 13920, Note_on_c, 0, 66, 0
2, 13920, Note_on_c, 0, 67, 100
2, 14040, Note_on_c, 0, 67, 0
2, 14040, Note_on_c, 0, 66, 100
2, 14400, Note_on_c, 0, 66, 0
2, 17280, Note_on_c, 0, 69, 100
2, 17400, Note_on_c, 0, 69, 0
2, 17400, Note_on_c, 0, 64, 100
2, 17520, Note_on_c, 0, 64, 0
2, 17520, Note_on_c, 0, 64, 100
2, 17640, Note_on_c, 0, 64, 0
2, 17640, Note_on_c, 0, 66, 100
2, 17760, Note_on_c, 0, 66, 0
2, 17760, Note_on_c, 0, 64, 100
2, 17880, Note_on_c, 0, 64, 0
2, 17880, Note_on_c, 0, 64, 100
2, 18000, Note_on_c, 0, 64, 0
2, 18000, Note_on_c, 0, 69, 100
2, 18120, Note_on_c, 0, 69, 0
2, 18120, Note_on_c, 0, 64, 100
2, 18240, Note_on_c, 0, 64, 0
2, 18240, Note_on_c, 0, 64, 100
2, 18360, Note_on_c, 0, 64, 0
2, 18360, Note_on_c, 0, 71, 100
2, 18480, Note_on_c, 0, 71, 0
2, 18480, Note_on_c, 0, 64, 100
2, 18600, Note_on_c, 0, 64, 0
2, 18600, Note_on_c, 0, 64, 100
2, 18720, Note_on_c, 0, 64, 0
2, 18720, Note_on_c, 0, 66, 100
2, 18840, Note_on_c, 0, 66, 0
2, 18840, Note_on_c, 0, 64, 100
2, 18960, Note_on_c, 0, 64, 0
2, 18960, Note_on_c, 0, 64, 100
2, 19080, Note_on_c, 0, 64, 0
2, 19080, Note_on_c, 0, 71, 100
2, 19200, Note_on_c, 0, 71, 0
2, 19200, Note_on_c, 0, 64, 100
2, 19320, Note_on_c, 0, 64, 0
2, 19320, Note_on_c, 0, 64, 100
2, 19440, Note_on_c, 0, 64, 0
2, 19440, Note_on_c, 0, 73, 100
2, 19500, Note_on_c, 0, 73, 0
2, 19500, Note_on_c, 0, 69, 100
2, 19560, Note_on_c, 0, 69, 0
2, 19560, Note_on_c, 0, 73, 100
2, 19620, Note_on_c, 0, 73, 0
2, 19620, Note_on_c, 0, 76, 100
2, 19680, Note_on_c, 0, 76, 0
2, 19680, Note_on_c, 0, 81, 100
2, 19740, Note_on_c, 0, 81, 0
2, 19740, Note_on_c, 0, 78, 100
2, 19800, Note_on_c, 0, 78, 0
2, 19800, Note_on_c, 0, 75, 100
2, 19860, Note_on_c, 0, 75, 0
2, 19860, Note_on_c, 0, 78, 100
2, 19920, Note_on_c, 0, 78, 0
2, 19920, Note_on_c, 0, 75, 100
2, 19980, Note_on_c, 0, 75, 0
2, 19980, Note_on_c, 0, 71, 100
2, 20040, Note_on_c, 0, 71, 0
2, 20040, Note_on_c, 0, 75, 100
2, 20100, Note_on_c, 0, 75, 0
2, 20100, Note_on_c, 0, 71, 100
2, 20160, Note_on_c, 0, 71, 0
2, 20160, Note_on_c, 0, 66, 100
2, 20220, Note_on_c, 0, 66, 0
2, 20220, Note_on_c, 0, 71, 100
2, 20280, Note_on_c, 0, 71, 0
2, 20280, Note_on_c, 0, 66, 100
2, 20340, Note_on_c, 0, 66, 0
2, 20340, Note_on_c, 0, 63, 100
2, 20400, Note_on_c, 0, 63, 0
2, 20400, Note_on_c, 0, 66, 100
2, 20460, Note_on_c, 0, 66, 0
2, 20460, Note_on_c, 0, 63, 100
2, 20520, Note_on_c, 0, 63, 0
2, 20520, Note_on_c, 0, 64, 100
2, 20880, Note_on_c, 0, 64, 0
2, 21240, Note_on_c, 0, 67, 100
2, 21720, Note_on_c, 0, 67, 0
2, 21720, Note_on_c, 0, 64, 100
2, 21840, Note_on_c, 0, 64, 0
2, 21840, Note_on_c, 0, 64, 100
2, 21960, Note_on_c, 0, 64, 0
2, 21960, Note_on_c, 0, 66, 100
2, 22080, Note_on_c, 0, 66, 0
2, 22080, Note_on_c, 0, 64, 100
2, 22200, Note_on_c, 0, 64, 0
2, 22200, Note_on_c, 0, 64, 100
2, 22320, Note_on_c, 0, 64, 0
2, 22320, Note_on_c, 0, 69, 100
2, 22440, Note_on_c, 0, 69, 0
2, 22440, Note_on_c, 0, 64, 100
2, 22560, Note_on_c, 0, 64, 0
2, 22560, Note_on_c, 0, 64, 100
2, 22680, Note_on_c, 0, 64, 0
2, 22680, Note_on_c, 0, 66, 100
2, 23880, Note_on_c, 0, 66, 0
2, 23880, Note_on_c, 0, 62, 100
2, 24000, Note_on_c, 0, 62, 0
2, 24000, Note_on_c, 0, 62, 100
2, 24120, Note_on_c, 0, 62, 0
2, 24120, Note_on_c, 0, 64, 100
2, 24240, Note_on_c, 0, 64, 0
2, 24240, Note_on_c, 0, 62, 100
2, 24360, Note_on_c, 0, 62, 0
2, 24360, Note_on_c, 0, 62, 100
2, 24480, Note_on_c, 0, 62, 0
2, 24480, Note_on_c, 0, 67, 100
2, 24600, Note_on_c, 0, 67, 0
2, 24600, Note_on_c, 0, 62, 100
2, 24720, Note_on_c, 0, 62, 0
2, 24720, Note_on_c, 0, 62, 100
2, 24840, Note_on_c, 0, 62, 0
2, 24840, Note_on_c, 0, 64, 100
2, 26040, Note_on_c, 0, 64, 0
2, 26040, Note_on_c, 0, 61, 100
2, 26160, Note_on_c, 0, 61, 0
2, 26160, Note_on_c, 0, 61, 100
2, 26280, Note_on_c, 0, 61, 0
2, 26280, Note_on_c, 0, 62, 100
2, 26400, Note_on_c, 0, 62, 0
2, 26400, Note_on_c, 0, 61, 100
2, 26520, Note_on_c, 0, 61, 0
2, 26520, Note_on_c, 0, 61, 100
2, 26640, Note_on_c, 0, 61, 0
2, 26640, Note_on_c, 0, 66, 100
2, 26760, Note_on_c, 0, 66, 0
2, 26760, Note_on_c, 0, 61, 100
2, 26880, Note_on_c, 0, 61, 0
2, 26880, Note_on_c, 0, 61, 100
2, 27000, Note_on_c, 0, 61, 0
2, 27000, Note_on_c, 0, 62, 100
2, 27060, Note_on_c, 0, 62, 0
2, 27060, Note_on_c, 0, 59, 100
2, 27120, Note_on_c, 0, 59, 0
2, 27120, Note_on_c, 0, 62, 100
2, 27180, Note_on_c, 0, 62, 0
2, 27180, Note_on_c, 0, 66, 100
2, 27240, Note_on_c, 0, 66, 0
2, 27240, Note_on_c, 0, 62, 100
2, 27300, Note_on_c, 0, 62, 0
2, 27300, Note_on_c, 0, 66, 100
2, 27360, Note_on_c, 0, 66, 0
2, 27360, Note_on_c, 0, 71, 100
2, 27420, Note_on_c, 0, 71, 0
2, 27420, Note_on_c, 0, 66, 100
2, 27480, Note_on_c, 0, 66, 0
2, 27480, Note_on_c, 0, 71, 100
2, 27540, Note_on_c, 0, 71, 0
2, 27540, Note_on_c, 0, 74, 100
2, 27600, Note_on_c, 0, 74, 0
2, 27600, Note_on_c, 0, 71, 100
2, 27660, Note_on_c, 0, 71, 0
2, 27660, Note_on_c, 0, 74, 100
2, 27720, Note_on_c, 0, 74, 0
2, 27720, Note_on_c, 0, 79, 100
2, 28080, Note_on_c, 0, 79, 0
2, 28080, Note_on_c, 0, 61, 100
2, 28140, Note_on_c, 0, 61, 0
2, 28140, Note_on_c, 0, 57, 100
2, 28200, Note_on_c, 0, 57, 0
2, 28200, Note_on_c, 0, 61, 100
2, 28260, Note_on_c, 0, 61, 0
2, 28260, Note_on_c, 0, 64, 100
2, 28320, Note_on_c, 0, 64, 0
2, 28320, Note_on_c, 0, 61, 100
2, 28380, Note_on_c, 0, 61, 0
2, 28380, Note_on_c, 0, 64, 100
2, 28440, Note_on_c, 0, 64, 0
2, 28440, Note_on_c, 0, 69, 100
2, 28500, Note_on_c, 0, 69, 0
2, 28500, Note_on_c, 0, 64, 100
2, 28560, Note_on_c, 0, 64, 0
2, 28560, Note_on_c, 0, 69, 100
2, 28620, Note_on_c, 0, 69, 0
2, 28620, Note_on_c, 0, 73, 100
2, 28680, Note_on_c, 0, 73, 0
2, 28680, Note_on_c, 0, 69, 100
2, 28740, Note_on_c, 0, 69, 0
2, 28740, Note_on_c, 0, 73, 100
2, 28800, Note_on_c, 0, 73, 0
2, 28800, Note_on_c, 0, 78, 100
2, 29160, Note_on_c, 0, 78, 0
2, 29160, Note_on_c, 0, 59, 100
2, 29220, Note_on_c, 0, 59, 0
2, 29220, Note_on_c, 0, 55, 100
2, 29280, Note_on_c, 0, 55, 0
2, 29280, Note_on_c, 0, 59, 100
2, 29340, Note_on_c, 0, 59, 0
2, 29340, Note_on_c, 0, 62, 100
2, 29400, Note_on_c, 0, 62, 0
2, 29400, Note_on_c, 0, 59, 100
2, 29460, Note_on_c, 0, 59, 0
2, 29460, Note_on_c, 0, 62, 100
2, 29520, Note_on_c, 0, 62, 0
2, 29520, Note_on_c, 0, 67, 100
2, 29580, Note_on_c, 0, 67, 0
2, 29580, Note_on_c, 0, 62, 100
2, 29640, Note_on_c, 0, 62, 0
2, 29640, Note_on_c, 0, 67, 100
2, 29700, Note_on_c, 0, 67, 0
2, 29700, Note_on_c, 0, 71, 100
2, 29760, Note_on_c, 0, 71, 0
2, 29760, Note_on_c, 0, 67, 100
2, 29820, Note_on_c, 0, 67, 0
2, 29820, Note_on_c, 0, 71, 100
2, 29880, Note_on_c, 0, 71, 0
2, 29880, Note_on_c, 0, 76, 100
2, 30360, Note_on_c, 0, 76, 0
2, 30360, Note_on_c, 0, 66, 100
2, 30480, Note_on_c, 0, 66, 0
2, 30480, Note_on_c, 0, 66, 100
2, 30600, Note_on_c, 0, 66, 0
2, 30600, Note_on_c, 0, 67, 100
2, 30720, Note_on_c, 0, 67, 0
2, 30720, Note_on_c, 0, 66, 100
2, 30840, Note_on_c, 0, 66, 0
2, 30840, Note_on_c, 0, 66, 100
2, 30960, Note_on_c, 0, 66, 0
2, 30960, Note_on_c, 0, 76, 100
2, 31080, Note_on_c, 0, 76, 0
2, 31080, Note_on_c, 0, 66, 100
2, 31200, Note_on_c, 0, 66, 0
2, 31200, Note_on_c, 0, 66, 100
2, 31320, Note_on_c, 0, 66, 0
2, 31320, Note_on_c, 0, 74, 100
2, 32520, Note_on_c, 0, 74, 0
2, 32520, Note_on_c, 0, 71, 100
2, 32640, Note_on_c, 0, 71, 0
2, 32640, Note_on_c, 0, 71, 100
2, 32760, Note_on_c, 0, 71, 0
2, 32760, Note_on_c, 0, 72, 100
2, 32880, Note_on_c, 0, 72, 0
2, 32880, Note_on_c, 0, 71, 100
2, 33000, Note_on_c, 0, 71, 0
2, 33000, Note_on_c, 0, 71, 100
2, 33120, Note_on_c, 0, 71, 0
2, 33120, Note_on_c, 0, 79, 100
2, 33240, Note_on_c, 0, 79, 0
2, 33240, Note_on_c, 0, 71, 100
2, 33360, Note_on_c, 0, 71, 0
2, 33360, Note_on_c, 0, 71, 100
2, 33480, Note_on_c, 0, 71, 0
2, 33480, Note_on_c, 0, 70, 100
2, 33840, Note_on_c, 0, 70, 0
2, 33840, Note_on_c, 0, 78, 100
2, 34620, Note_on_c, 0, 78, 0
2, 34620, Note_on_c, 0, 71, 100
2, 34680, Note_on_c, 0, 71, 0
2, 34680, Note_on_c, 0, 74, 100
2, 34740, Note_on_c, 0, 74, 0
2, 34740, Note_on_c, 0, 78, 100
2, 34800, Note_on_c, 0, 78, 0
2, 34800, Note_on_c, 0, 83, 100
2, 34860, Note_on_c, 0, 83, 0
2, 34860, Note_on_c, 0, 78, 100
2, 34920, Note_on_c, 0, 78, 0
2, 34920, Note_on_c, 0, 74, 100
2, 34980, Note_on_c, 0, 74, 0
2, 34980, Note_on_c, 0, 78, 100
2, 35040, Note_on_c, 0, 78, 0
2, 35040, Note_on_c, 0, 74, 100
2, 35100, Note_on_c, 0, 74, 0
2, 35100, Note_on_c, 0, 71, 100
2, 35160, Note_on_c, 0, 71, 0
2, 35160, Note_on_c, 0, 74, 100
2, 35220, Note_on_c, 0, 74, 0
2, 35220, Note_on_c, 0, 71, 100
2, 35280, Note_on_c, 0, 71, 0
2, 35280, Note_on_c, 0, 66, 100
2, 35340, Note_on_c, 0, 66, 0
2, 35340, Note_on_c, 0, 71, 100
2, 35400, Note_on_c, 0, 71, 0
2, 35400, Note_on_c, 0, 66, 100
2, 35460, Note_on_c, 0, 66, 0
2, 35460, Note_on_c, 0, 62, 100
2, 35520, Note_on_c, 0, 62, 0
2, 35520, Note_on_c, 0, 66, 100
2, 35580, Note_on_c, 0, 66, 0
2, 35580, Note_on_c, 0, 62, 100
2, 35640, Note_on_c, 0, 62, 0
2, 35640, Note_on_c, 0, 74, 100
2, 36840, Note_on_c, 0, 74, 0
2, 36840, Note_on_c, 0, 73, 100
2, 36960, Note_on_c, 0, 73, 0
2, 36960, Note_on_c, 0, 73, 100
2, 37080, Note_on_c, 0, 73, 0
2, 37080, Note_on_c, 0, 80, 100
2, 37200, Note_on_c, 0, 80, 0
2, 37200, Note_on_c, 0, 73, 100
2, 37320, Note_on_c, 0, 73, 0
2, 37320, Note_on_c, 0, 73, 100
2, 37440, Note_on_c, 0, 73, 0
2, 37440, Note_on_c, 0, 74, 100
2, 37560, Note_on_c, 0, 74, 0
2, 37560, Note_on_c, 0, 73, 100
2, 37680, Note_on_c, 0, 73, 0
2, 37680, Note_on_c, 0, 73, 100
2, 37800, Note_on_c, 0, 73, 0
2, 37800, Note_on_c, 0, 76, 100
2, 37920, Note_on_c, 0, 76, 0
2, 37920, Note_on_c, 0, 73, 100
2, 38040, Note_on_c, 0, 73, 0
2, 38040, Note_on_c, 0, 73, 100
2, 38160, Note_on_c, 0, 73, 0
2, 38160, Note_on_c, 0, 82, 100
2, 38280, Note_on_c, 0, 82, 0
2, 38280, Note_on_c, 0, 73, 100
2, 38400, Note_on_c, 0, 73, 0
2, 38400, Note_on_c, 0, 74, 100
2, 38520, Note_on_c, 0, 74, 0
2, 38520, Note_on_c, 0, 76, 100
2, 38640, Note_on_c, 0, 76, 0
2, 38640, Note_on_c, 0, 74, 100
2, 38760, Note_on_c, 0, 74, 0
2, 38760, Note_on_c, 0, 73, 100
2, 38880, Note_on_c, 0, 73, 0
2, 38880, Note_on_c, 0, 78, 100
2, 39000, Note_on_c, 0, 78, 0
2, 39000, Note_on_c, 0, 79, 100
2, 39120, Note_on_c, 0, 79, 0
2, 39120, Note_on_c, 0, 76, 100
2, 39240, Note_on_c, 0, 76, 0
2, 39240, Note_on_c, 0, 74, 100
2, 39600, Note_on_c, 0, 74, 0
2, 39600, Note_on_c, 0, 74, 100
2, 39640, Note_on_c, 0, 74, 0
2, 39640, Note_on_c, 0, 73, 100
2, 39680, Note_on_c, 0, 73, 0
2, 39680, Note_on_c, 0, 74, 100
2, 39720, Note_on_c, 0, 74, 0
2, 39720, Note_on_c, 0, 73, 100
2, 39840, Note_on_c, 0, 73, 0
2, 39840, Note_on_c, 0, 71, 100
2, 39960, Note_on_c, 0, 71, 0
2, 39960, Note_on_c, 0, 71, 100
2, 41040, Note_on_c, 0, 71, 0
2, 41040, End_track
3, 0, Start_track
3, 0, MIDI_port, 0
3, 0, Title_t, "--------------------------------------"
3, 0, Program_c, 1, 6
3, 0, Control_c, 1, 7, 100
3, 0, Control_c, 1, 10, 64
3, 6480, Note_on_c, 1, 71, 100
3, 6600, Note_on_c, 1, 71, 0
3, 6600, Note_on_c, 1, 66, 100
3, 6720, Note_on_c, 1, 66, 0
3, 6720, Note_on_c, 1, 66, 100
3, 6840, Note_on_c, 1, 66, 0
3, 6840, Note_on_c, 1, 67, 100
3, 6960, Note_on_c, 1, 67, 0
3, 6960, Note_on_c, 1, 66, 100
3, 7080, Note_on_c, 1, 66, 0
3, 7080, Note_on_c, 1, 66, 100
3, 7200, Note_on_c, 1, 66, 0
3, 7200, Note_on_c, 1, 71, 100
3, 7320, Note_on_c, 1, 71, 0
3, 7320, Note_on_c, 1, 66, 100
3, 7440, Note_on_c, 1, 66, 0
3, 7440, Note_on_c, 1, 66, 100
3, 7560, Note_on_c, 1, 66, 0
3, 7560, Note_on_c, 1, 68, 100
3, 8640, Note_on_c, 1, 68, 0
3, 8640, Note_on_c, 1, 69, 100
3, 8760, Note_on_c, 1, 69, 0
3, 8760, Note_on_c, 1, 64, 100
3, 8880, Note_on_c, 1, 64, 0
3, 8880, Note_on_c, 1, 64, 100
3, 9000, Note_on_c, 1, 64, 0
3, 9000, Note_on_c, 1, 66, 100
3, 9120, Note_on_c, 1, 66, 0
3, 9120, Note_on_c, 1, 64, 100
3, 9240, Note_on_c, 1, 64, 0
3, 9240, Note_on_c, 1, 64, 100
3, 9360, Note_on_c, 1, 64, 0
3, 9360, Note_on_c, 1, 69, 100
3, 9480, Note_on_c, 1, 69, 0
3, 9480, Note_on_c, 1, 64, 100
3, 9600, Note_on_c, 1, 64, 0
3, 9600, Note_on_c, 1, 64, 100
3, 9720, Note_on_c, 1, 64, 0
3, 9720, Note_on_c, 1, 66, 100
3, 10800, Note_on_c, 1, 66, 0
3, 10800, Note_on_c, 1, 67, 100
3, 10920, Note_on_c, 1, 67, 0
3, 14040, Note_on_c, 1, 62, 100
3, 14160, Note_on_c, 1, 62, 0
3, 14160, Note_on_c, 1, 57, 100
3, 14280, Note_on_c, 1, 57, 0
3, 14280, Note_on_c, 1, 57, 100
3, 14400, Note_on_c, 1, 57, 0
3, 14400, Note_on_c, 1, 59, 100
3, 14520, Note_on_c, 1, 59, 0
3, 14520, Note_on_c, 1, 57, 100
3, 14640, Note_on_c, 1, 57, 0
3, 14640, Note_on_c, 1, 57, 100
3, 14760, Note_on_c, 1, 57, 0
3, 14760, Note_on_c, 1, 62, 100
3, 14880, Note_on_c, 1, 62, 0
3, 14880, Note_on_c, 1, 57, 100
3, 15000, Note_on_c, 1, 57, 0
3, 15000, Note_on_c, 1, 57, 100
3, 15120, Note_on_c, 1, 57, 0
3, 15120, Note_on_c, 1, 64, 100
3, 15240, Note_on_c, 1, 64, 0
3, 15240, Note_on_c, 1, 57, 100
3, 15360, Note_on_c, 1, 57, 0
3, 15360, Note_on_c, 1, 57, 100
3, 15480, Note_on_c, 1, 57, 0
3, 15480, Note_on_c, 1, 59, 100
3, 15600, Note_on_c, 1, 59, 0
3, 15600, Note_on_c, 1, 57, 100
3, 15720, Note_on_c, 1, 57, 0
3, 15720, Note_on_c, 1, 57, 100
3, 15840, Note_on_c, 1, 57, 0
3, 15840, Note_on_c, 1, 64, 100
3, 15960, Note_on_c, 1, 64, 0
3, 15960, Note_on_c, 1, 57, 100
3, 16080, Note_on_c, 1, 57, 0
3, 16080, Note_on_c, 1, 57, 100
3, 16200, Note_on_c, 1, 57, 0
3, 16200, Note_on_c, 1, 66, 100
3, 16260, Note_on_c, 1, 66, 0
3, 16260, Note_on_c, 1, 62, 100
3, 16320, Note_on_c, 1, 62, 0
3, 16320, Note_on_c, 1, 66, 100
3, 16380, Note_on_c, 1, 66, 0
3, 16380, Note_on_c, 1, 69, 100
3, 16440, Note_on_c, 1, 69, 0
3, 16440, Note_on_c, 1, 74, 100
3, 16500, Note_on_c, 1, 74, 0
3, 16500, Note_on_c, 1, 69, 100
3, 16560, Note_on_c, 1, 69, 0
3, 16560, Note_on_c, 1, 68, 100
3, 16620, Note_on_c, 1, 68, 0
3, 16620, Note_on_c, 1, 71, 100
3, 16680, Note_on_c, 1, 71, 0
3, 16680, Note_on_c, 1, 68, 100
3, 16740, Note_on_c, 1, 68, 0
3, 16740, Note_on_c, 1, 64, 100
3, 16800, Note_on_c, 1, 64, 0
3, 16800, Note_on_c, 1, 68, 100
3, 16860, Note_on_c, 1, 68, 0
3, 16860, Note_on_c, 1, 64, 100
3, 16920, Note_on_c, 1, 64, 0
3, 16920, Note_on_c, 1, 59, 100
3, 16980, Note_on_c, 1, 59, 0
3, 16980, Note_on_c, 1, 64, 100
3, 17040, Note_on_c, 1, 64, 0
3, 17040, Note_on_c, 1, 59, 100
3, 17100, Note_on_c, 1, 59, 0
3, 17100, Note_on_c, 1, 56, 100
3, 17160, Note_on_c, 1, 56, 0
3, 17160, Note_on_c, 1, 59, 100
3, 17220, Note_on_c, 1, 59, 0
3, 17220, Note_on_c, 1, 56, 100
3, 17280, Note_on_c, 1, 56, 0
3, 17280, Note_on_c, 1, 52, 100
3, 17640, Note_on_c, 1, 52, 0
3, 17760, Note_on_c, 1, 57, 100
3, 17880, Note_on_c, 1, 57, 0
3, 17880, Note_on_c, 1, 59, 100
3, 18000, Note_on_c, 1, 59, 0
3, 18000, Note_on_c, 1, 61, 100
3, 18120, Note_on_c, 1, 61, 0
3, 18120, Note_on_c, 1, 59, 100
3, 18240, Note_on_c, 1, 59, 0
3, 18240, Note_on_c, 1, 57, 100
3, 18360, Note_on_c, 1, 57, 0
3, 18360, Note_on_c, 1, 56, 100
3, 18840, Note_on_c, 1, 56, 0
3, 18840, Note_on_c, 1, 57, 100
3, 18960, Note_on_c, 1, 57, 0
3, 18960, Note_on_c, 1, 59, 100
3, 19080, Note_on_c, 1, 59, 0
3, 19080, Note_on_c, 1, 57, 100
3, 19200, Note_on_c, 1, 57, 0
3, 19200, Note_on_c, 1, 59, 100
3, 19320, Note_on_c, 1, 59, 0
3, 19320, Note_on_c, 1, 56, 100
3, 19440, Note_on_c, 1, 56, 0
3, 19440, Note_on_c, 1, 57, 100
3, 19920, Note_on_c, 1, 57, 0
3, 19920, Note_on_c, 1, 59, 100
3, 20040, Note_on_c, 1, 59, 0
3, 20040, Note_on_c, 1, 60, 100
3, 20160, Note_on_c, 1, 60, 0
3, 20160, Note_on_c, 1, 59, 100
3, 20280, Note_on_c, 1, 59, 0
3, 20280, Note_on_c, 1, 60, 100
3, 20400, Note_on_c, 1, 60, 0
3, 20400, Note_on_c, 1, 57, 100
3, 20520, Note_on_c, 1, 57, 0
3, 20520, Note_on_c, 1, 64, 100
3, 20640, Note_on_c, 1, 64, 0
3, 20640, Note_on_c, 1, 59, 100
3, 20760, Note_on_c, 1, 59, 0
3, 20760, Note_on_c, 1, 59, 100
3, 20880, Note_on_c, 1, 59, 0
3, 20880, Note_on_c, 1, 60, 100
3, 21000, Note_on_c, 1, 60, 0
3, 21000, Note_on_c, 1, 59, 100
3, 21120, Note_on_c, 1, 59, 0
3, 21120, Note_on_c, 1, 59, 100
3, 21240, Note_on_c, 1, 59, 0
3, 21240, Note_on_c, 1, 64, 100
3, 21360, Note_on_c, 1, 64, 0
3, 21360, Note_on_c, 1, 59, 100
3, 21480, Note_on_c, 1, 59, 0
3, 21480, Note_on_c, 1, 59, 100
3, 21600, Note_on_c, 1, 59, 0
3, 21600, Note_on_c, 1, 61, 100
3, 22800, Note_on_c, 1, 61, 0
3, 22800, Note_on_c, 1, 57, 100
3, 22920, Note_on_c, 1, 57, 0
3, 22920, Note_on_c, 1, 57, 100
3, 23040, Note_on_c, 1, 57, 0
3, 23040, Note_on_c, 1, 59, 100
3, 23160, Note_on_c, 1, 59, 0
3, 23160, Note_on_c, 1, 57, 100
3, 23280, Note_on_c, 1, 57, 0
3, 23280, Note_on_c, 1, 57, 100
3, 23400, Note_on_c, 1, 57, 0
3, 23400, Note_on_c, 1, 62, 100
3, 23520, Note_on_c, 1, 62, 0
3, 23520, Note_on_c, 1, 57, 100
3, 23640, Note_on_c, 1, 57, 0
3, 23640, Note_on_c, 1, 57, 100
3, 23760, Note_on_c, 1, 57, 0
3, 23760, Note_on_c, 1, 59, 100
3, 24960, Note_on_c, 1, 59, 0
3, 24960, Note_on_c, 1, 56, 100
3, 25080, Note_on_c, 1, 56, 0
3, 25080, Note_on_c, 1, 56, 100
3, 25200, Note_on_c, 1, 56, 0
3, 25200, Note_on_c, 1, 57, 100
3, 25320, Note_on_c, 1, 57, 0
3, 25320, Note_on_c, 1, 56, 100
3, 25440, Note_on_c, 1, 56, 0
3, 25440, Note_on_c, 1, 56, 100
3, 25560, Note_on_c, 1, 56, 0
3, 25560, Note_on_c, 1, 61, 100
3, 25680, Note_on_c, 1, 61, 0
3, 25680, Note_on_c, 1, 56, 100
3, 25800, Note_on_c, 1, 56, 0
3, 25800, Note_on_c, 1, 56, 100
3, 25920, Note_on_c, 1, 56, 0
3, 25920, Note_on_c, 1, 58, 100
3, 27000, Note_on_c, 1, 58, 0
3, 27000, Note_on_c, 1, 59, 100
3, 27120, Note_on_c, 1, 59, 0
3, 31320, Note_on_c, 1, 66, 100
3, 31440, Note_on_c, 1, 66, 0
3, 31440, Note_on_c, 1, 59, 100
3, 31560, Note_on_c, 1, 59, 0
3, 31560, Note_on_c, 1, 59, 100
3, 31680, Note_on_c, 1, 59, 0
3, 31680, Note_on_c, 1, 62, 100
3, 31800, Note_on_c, 1, 62, 0
3, 31800, Note_on_c, 1, 59, 100
3, 31920, Note_on_c, 1, 59, 0
3, 31920, Note_on_c, 1, 59, 100
3, 32040, Note_on_c, 1, 59, 0
3, 32040, Note_on_c, 1, 66, 100
3, 32160, Note_on_c, 1, 66, 0
3, 32160, Note_on_c, 1, 59, 100
3, 32280, Note_on_c, 1, 59, 0
3, 32280, Note_on_c, 1, 59, 100
3, 32400, Note_on_c, 1, 59, 0
3, 32400, Note_on_c, 1, 67, 100
3, 33480, Note_on_c, 1, 67, 0
3, 33480, Note_on_c, 1, 66, 100
3, 33840, Note_on_c, 1, 66, 0
3, 33840, Note_on_c, 1, 70, 100
3, 34560, Note_on_c, 1, 70, 0
3, 35640, Note_on_c, 1, 71, 100
3, 37800, Note_on_c, 1, 71, 0
3, 37800, Note_on_c, 1, 70, 100
3, 38160, Note_on_c, 1, 70, 0
3, 38280, Note_on_c, 1, 70, 100
3, 38400, Note_on_c, 1, 70, 0
3, 38400, Note_on_c, 1, 71, 100
3, 38520, Note_on_c, 1, 71, 0
3, 38520, Note_on_c, 1, 73, 100
3, 38640, Note_on_c, 1, 73, 0
3, 38640, Note_on_c, 1, 71, 100
3, 38760, Note_on_c, 1, 71, 0
3, 38760, Note_on_c, 1, 70, 100
3, 38880, Note_on_c, 1, 70, 0
3, 38880, Note_on_c, 1, 71, 100
3, 39600, Note_on_c, 1, 71, 0
3, 39600, Note_on_c, 1, 70, 100
3, 39960, Note_on_c, 1, 70, 0
3, 39960, Note_on_c, 1, 71, 100
3, 41040, Note_on_c, 1, 71, 0
3, 41040, End_track
4, 0, Start_track
4, 0, MIDI_port, 0
4, 0, Title_t, "Johann Sebastian Bach  (1685-1750)"
4, 0, Program_c, 2, 6
4, 0, Control_c, 2, 7, 100
4, 0, Control_c, 2, 10, 32
4, 0, Note_on_c, 2, 47, 100
4, 360, Note_on_c, 2, 47, 0
4, 480, Note_on_c, 2, 59, 100
4, 600, Note_on_c, 2, 59, 0
4, 600, Note_on_c, 2, 61, 100
4, 720, Note_on_c, 2, 61, 0
4, 720, Note_on_c, 2, 62, 100
4, 840, Note_on_c, 2, 62, 0
4, 840, Note_on_c, 2, 61, 100
4, 960, Note_on_c, 2, 61, 0
4, 960, Note_on_c, 2, 59, 100
4, 1080, Note_on_c, 2, 59, 0
4, 1080, Note_on_c, 2, 58, 100
4, 1560, Note_on_c, 2, 58, 0
4, 1560, Note_on_c, 2, 59, 100
4, 1680, Note_on_c, 2, 59, 0
4, 1680, Note_on_c, 2, 61, 100
4, 1800, Note_on_c, 2, 61, 0
4, 1800, Note_on_c, 2, 59, 100
4, 1920, Note_on_c, 2, 59, 0
4, 1920, Note_on_c, 2, 61, 100
4, 2040, Note_on_c, 2, 61, 0
4, 2040, Note_on_c, 2, 58, 100
4, 2160, Note_on_c, 2, 58, 0
4, 2160, Note_on_c, 2, 59, 100
4, 2520, Note_on_c, 2, 59, 0
4, 3240, Note_on_c, 2, 59, 100
4, 3360, Note_on_c, 2, 59, 0
4, 3360, Note_on_c, 2, 54, 100
4, 3480, Note_on_c, 2, 54, 0
4, 3480, Note_on_c, 2, 54, 100
4, 3600, Note_on_c, 2, 54, 0
4, 3600, Note_on_c, 2, 55, 100
4, 3720, Note_on_c, 2, 55, 0
4, 3720, Note_on_c, 2, 54, 100
4, 3840, Note_on_c, 2, 54, 0
4, 3840, Note_on_c, 2, 54, 100
4, 3960, Note_on_c, 2, 54, 0
4, 3960, Note_on_c, 2, 59, 100
4, 4080, Note_on_c, 2, 59, 0
4, 4080, Note_on_c, 2, 54, 100
4, 4200, Note_on_c, 2, 54, 0
4, 4200, Note_on_c, 2, 54, 100
4, 4320, Note_on_c, 2, 54, 0
4, 4320, Note_on_c, 2, 61, 100
4, 4440, Note_on_c, 2, 61, 0
4, 4440, Note_on_c, 2, 54, 100
4, 4560, Note_on_c, 2, 54, 0
4, 4560, Note_on_c, 2, 54, 100
4, 4680, Note_on_c, 2, 54, 0
4, 4680, Note_on_c, 2, 55, 100
4, 4800, Note_on_c, 2, 55, 0
4, 4800, Note_on_c, 2, 54, 100
4, 4920, Note_on_c, 2, 54, 0
4, 4920, Note_on_c, 2, 54, 100
4, 5040, Note_on_c, 2, 54, 0
4, 5040, Note_on_c, 2, 61, 100
4, 5160, Note_on_c, 2, 61, 0
4, 5160, Note_on_c, 2, 54, 100
4, 5280, Note_on_c, 2, 54, 0
4, 5280, Note_on_c, 2, 54, 100
4, 5400, Note_on_c, 2, 54, 0
4, 5400, Note_on_c, 2, 62, 100
4, 5460, Note_on_c, 2, 62, 0
4, 5460, Note_on_c, 2, 59, 100
4, 5520, Note_on_c, 2, 59, 0
4, 5520, Note_on_c, 2, 62, 100
4, 5580, Note_on_c, 2, 62, 0
4, 5580, Note_on_c, 2, 66, 100
4, 5640, Note_on_c, 2, 66, 0
4, 5640, Note_on_c, 2, 71, 100
4, 5700, Note_on_c, 2, 71, 0
4, 5700, Note_on_c, 2, 66, 100
4, 5760, Note_on_c, 2, 66, 0
4, 5760, Note_on_c, 2, 62, 100
4, 5820, Note_on_c, 2, 62, 0
4, 5820, Note_on_c, 2, 66, 100
4, 5880, Note_on_c, 2, 66, 0
4, 5880, Note_on_c, 2, 62, 100
4, 5940, Note_on_c, 2, 62, 0
4, 5940, Note_on_c, 2, 59, 100
4, 6000, Note_on_c, 2, 59, 0
4, 6000, Note_on_c, 2, 62, 100
4, 6060, Note_on_c, 2, 62, 0
4, 6060, Note_on_c, 2, 59, 100
4, 6120, Note_on_c, 2, 59, 0
4, 6120, Note_on_c, 2, 54, 100
4, 6180, Note_on_c, 2, 54, 0
4, 6180, Note_on_c, 2, 59, 100
4, 6240, Note_on_c, 2, 59, 0
4, 6240, Note_on_c, 2, 54, 100
4, 6300, Note_on_c, 2, 54, 0
4, 6300, Note_on_c, 2, 50, 100
4, 6360, Note_on_c, 2, 50, 0
4, 6360, Note_on_c, 2, 54, 100
4, 6420, Note_on_c, 2, 54, 0
4, 6420, Note_on_c, 2, 50, 100
4, 6480, Note_on_c, 2, 50, 0
4, 6480, Note_on_c, 2, 47, 100
4, 6840, Note_on_c, 2, 47, 0
4, 6960, Note_on_c, 2, 59, 100
4, 7080, Note_on_c, 2, 59, 0
4, 7080, Note_on_c, 2, 61, 100
4, 7200, Note_on_c, 2, 61, 0
4, 7200, Note_on_c, 2, 62, 100
4, 7320, Note_on_c, 2, 62, 0
4, 7320, Note_on_c, 2, 61, 100
4, 7440, Note_on_c, 2, 61, 0
4, 7440, Note_on_c, 2, 59, 100
4, 7560, Note_on_c, 2, 59, 0
4, 7560, Note_on_c, 2, 64, 100
4, 7920, Note_on_c, 2, 64, 0
4, 8040, Note_on_c, 2, 52, 100
4, 8160, Note_on_c, 2, 52, 0
4, 8160, Note_on_c, 2, 54, 100
4, 8280, Note_on_c, 2, 54, 0
4, 8280, Note_on_c, 2, 56, 100
4, 8400, Note_on_c, 2, 56, 0
4, 8400, Note_on_c, 2, 54, 100
4, 8520, Note_on_c, 2, 54, 0
4, 8520, Note_on_c, 2, 52, 100
4, 8640, Note_on_c, 2, 52, 0
4, 8640, Note_on_c, 2, 57, 100
4, 9000, Note_on_c, 2, 57, 0
4, 9120, Note_on_c, 2, 45, 100
4, 9240, Note_on_c, 2, 45, 0
4, 9240, Note_on_c, 2, 47, 100
4, 9360, Note_on_c, 2, 47, 0
4, 9360, Note_on_c, 2, 49, 100
4, 9480, Note_on_c, 2, 49, 0
4, 9480, Note_on_c, 2, 47, 100
4, 9600, Note_on_c, 2, 47, 0
4, 9600, Note_on_c, 2, 45, 100
4, 9720, Note_on_c, 2, 45, 0
4, 9720, Note_on_c, 2, 50, 100
4, 10080, Note_on_c, 2, 50, 0
4, 10200, Note_on_c, 2, 38, 100
4, 10320, Note_on_c, 2, 38, 0
4, 10320, Note_on_c, 2, 40, 100
4, 10440, Note_on_c, 2, 40, 0
4, 10440, Note_on_c, 2, 42, 100
4, 10560, Note_on_c, 2, 42, 0
4, 10560, Note_on_c, 2, 40, 100
4, 10680, Note_on_c, 2, 40, 0
4, 10680, Note_on_c, 2, 38, 100
4, 10800, Note_on_c, 2, 38, 0
4, 10800, Note_on_c, 2, 43, 100
4, 11160, Note_on_c, 2, 43, 0
4, 11160, Note_on_c, 2, 55, 100
4, 11220, Note_on_c, 2, 55, 0
4, 11220, Note_on_c, 2, 59, 100
4, 11280, Note_on_c, 2, 59, 0
4, 11280, Note_on_c, 2, 55, 100
4, 11340, Note_on_c, 2, 55, 0
4, 11340, Note_on_c, 2, 52, 100
4, 11400, Note_on_c, 2, 52, 0
4, 11400, Note_on_c, 2, 55, 100
4, 11460, Note_on_c, 2, 55, 0
4, 11460, Note_on_c, 2, 52, 100
4, 11520, Note_on_c, 2, 52, 0
4, 11520, Note_on_c, 2, 49, 100
4, 11580, Note_on_c, 2, 49, 0
4, 11580, Note_on_c, 2, 52, 100
4, 11640, Note_on_c, 2, 52, 0
4, 11640, Note_on_c, 2, 49, 100
4, 11700, Note_on_c, 2, 49, 0
4, 11700, Note_on_c, 2, 45, 100
4, 11760, Note_on_c, 2, 45, 0
4, 11760, Note_on_c, 2, 49, 100
4, 11820, Note_on_c, 2, 49, 0
4, 11820, Note_on_c, 2, 45, 100
4, 11880, Note_on_c, 2, 45, 0
4, 11880, Note_on_c, 2, 42, 100
4, 12240, Note_on_c, 2, 42, 0
4, 12240, Note_on_c, 2, 54, 100
4, 12300, Note_on_c, 2, 54, 0
4, 12300, Note_on_c, 2, 57, 100
4, 12360, Note_on_c, 2, 57, 0
4, 12360, Note_on_c, 2, 54, 100
4, 12420, Note_on_c, 2, 54, 0
4, 12420, Note_on_c, 2, 50, 100
4, 12480, Note_on_c, 2, 50, 0
4, 12480, Note_on_c, 2, 54, 100
4, 12540, Note_on_c, 2, 54, 0
4, 12540, Note_on_c, 2, 50, 100
4, 12600, Note_on_c, 2, 50, 0
4, 12600, Note_on_c, 2, 47, 100
4, 12660, Note_on_c, 2, 47, 0
4, 12660, Note_on_c, 2, 50, 100
4, 12720, Note_on_c, 2, 50, 0
4, 12720, Note_on_c, 2, 47, 100
4, 12780, Note_on_c, 2, 47, 0
4, 12780, Note_on_c, 2, 43, 100
4, 12840, Note_on_c, 2, 43, 0
4, 12840, Note_on_c, 2, 47, 100
4, 12900, Note_on_c, 2, 47, 0
4, 12900, Note_on_c, 2, 43, 100
4, 12960, Note_on_c, 2, 43, 0
4, 12960, Note_on_c, 2, 40, 100
4, 13320, Note_on_c, 2, 40, 0
4, 13320, Note_on_c, 2, 52, 100
4, 13380, Note_on_c, 2, 52, 0
4, 13380, Note_on_c, 2, 55, 100
4, 13440, Note_on_c, 2, 55, 0
4, 13440, Note_on_c, 2, 52, 100
4, 13500, Note_on_c, 2, 52, 0
4, 13500, Note_on_c, 2, 49, 100
4, 13560, Note_on_c, 2, 49, 0
4, 13560, Note_on_c, 2, 52, 100
4, 13620, Note_on_c, 2, 52, 0
4, 13620, Note_on_c, 2, 49, 100
4, 13680, Note_on_c, 2, 49, 0
4, 13680, Note_on_c, 2, 45, 100
4, 13740, Note_on_c, 2, 45, 0
4, 13740, Note_on_c, 2, 49, 100
4, 13800, Note_on_c, 2, 49, 0
4, 13800, Note_on_c, 2, 45, 100
4, 13860, Note_on_c, 2, 45, 0
4, 13860, Note_on_c, 2, 42, 100
4, 13920, Note_on_c, 2, 42, 0
4, 13920, Note_on_c, 2, 45, 100
4, 13980, Note_on_c, 2, 45, 0
4, 13980, Note_on_c, 2, 42, 100
4, 14040, Note_on_c, 2, 42, 0
4, 14040, Note_on_c, 2, 38, 100
4, 14400, Note_on_c, 2, 38, 0
4, 14520, Note_on_c, 2, 38, 100
4, 14640, Note_on_c, 2, 38, 0
4, 14640, Note_on_c, 2, 40, 100
4, 14760, Note_on_c, 2, 40, 0
4, 14760, Note_on_c, 2, 42, 100
4, 14880, Note_on_c, 2, 42, 0
4, 14880, Note_on_c, 2, 40, 100
4, 15000, Note_on_c, 2, 40, 0
4, 15000, Note_on_c, 2, 38, 100
4, 15120, Note_on_c, 2, 38, 0
4, 15120, Note_on_c, 2, 37, 100
4, 15480, Note_on_c, 2, 37, 0
4, 15600, Note_on_c, 2, 45, 100
4, 15720, Note_on_c, 2, 45, 0
4, 15720, Note_on_c, 2, 47, 100
4, 15840, Note_on_c, 2, 47, 0
4, 15840, Note_on_c, 2, 49, 100
4, 15960, Note_on_c, 2, 49, 0
4, 15960, Note_on_c, 2, 47, 100
4, 16080, Note_on_c, 2, 47, 0
4, 16080, Note_on_c, 2, 45, 100
4, 16200, Note_on_c, 2, 45, 0
4, 16200, Note_on_c, 2, 50, 100
4, 16680, Note_on_c, 2, 50, 0
4, 16680, Note_on_c, 2, 52, 100
4, 16800, Note_on_c, 2, 52, 0
4, 16800, Note_on_c, 2, 54, 100
4, 16920, Note_on_c, 2, 54, 0
4, 16920, Note_on_c, 2, 52, 100
4, 17040, Note_on_c, 2, 52, 0
4, 17040, Note_on_c, 2, 54, 100
4, 17160, Note_on_c, 2, 54, 0
4, 17160, Note_on_c, 2, 50, 100
4, 17280, Note_on_c, 2, 50, 0
4, 17280, Note_on_c, 2, 49, 100
4, 17640, Note_on_c, 2, 49, 0
4, 18360, Note_on_c, 2, 52, 100
4, 18720, Note_on_c, 2, 52, 0
4, 19440, Note_on_c, 2, 45, 100
4, 19800, Note_on_c, 2, 45, 0
4, 19800, Note_on_c, 2, 54, 100
4, 20520, Note_on_c, 2, 54, 0
4, 20520, Note_on_c, 2, 55, 100
4, 20880, Note_on_c, 2, 55, 0
4, 21000, Note_on_c, 2, 52, 100
4, 21120, Note_on_c, 2, 52, 0
4, 21120, Note_on_c, 2, 54, 100
4, 21240, Note_on_c, 2, 54, 0
4, 21240, Note_on_c, 2, 55, 100
4, 21360, Note_on_c, 2, 55, 0
4, 21360, Note_on_c, 2, 54, 100
4, 21480, Note_on_c, 2, 54, 0
4, 21480, Note_on_c, 2, 52, 100
4, 21600, Note_on_c, 2, 52, 0
4, 21600, Note_on_c, 2, 57, 100
4, 21960, Note_on_c, 2, 57, 0
4, 22080, Note_on_c, 2, 45, 100
4, 22200, Note_on_c, 2, 45, 0
4, 22200, Note_on_c, 2, 47, 100
4, 22320, Note_on_c, 2, 47, 0
4, 22320, Note_on_c, 2, 49, 100
4, 22440, Note_on_c, 2, 49, 0
4, 22440, Note_on_c, 2, 47, 100
4, 22560, Note_on_c, 2, 47, 0
4, 22560, Note_on_c, 2, 45, 100
4, 22680, Note_on_c, 2, 45, 0
4, 22680, Note_on_c, 2, 50, 100
4, 23040, Note_on_c, 2, 50, 0
4, 23160, Note_on_c, 2, 50, 100
4, 23280, Note_on_c, 2, 50, 0
4, 23280, Note_on_c, 2, 52, 100
4, 23400, Note_on_c, 2, 52, 0
4, 23400, Note_on_c, 2, 54, 100
4, 23520, Note_on_c, 2, 54, 0
4, 23520, Note_on_c, 2, 52, 100
4, 23640, Note_on_c, 2, 52, 0
4, 23640, Note_on_c, 2, 50, 100
4, 23760, Note_on_c, 2, 50, 0
4, 23760, Note_on_c, 2, 55, 100
4, 24120, Note_on_c, 2, 55, 0
4, 24240, Note_on_c, 2, 55, 100
4, 24360, Note_on_c, 2, 55, 0
4, 24360, Note_on_c, 2, 54, 100
4, 24480, Note_on_c, 2, 54, 0
4, 24480, Note_on_c, 2, 52, 100
4, 24600, Note_on_c, 2, 52, 0
4, 24600, Note_on_c, 2, 54, 100
4, 24720, Note_on_c, 2, 54, 0
4, 24720, Note_on_c, 2, 55, 100
4, 24840, Note_on_c, 2, 55, 0
4, 24840, Note_on_c, 2, 49, 100
4, 25200, Note_on_c, 2, 49, 0
4, 25320, Note_on_c, 2, 49, 100
4, 25440, Note_on_c, 2, 49, 0
4, 25440, Note_on_c, 2, 47, 100
4, 25560, Note_on_c, 2, 47, 0
4, 25560, Note_on_c, 2, 46, 100
4, 25680, Note_on_c, 2, 46, 0
4, 25680, Note_on_c, 2, 47, 100
4, 25800, Note_on_c, 2, 47, 0
4, 25800, Note_on_c, 2, 49, 100
4, 25920, Note_on_c, 2, 49, 0
4, 25920, Note_on_c, 2, 42, 100
4, 26280, Note_on_c, 2, 42, 0
4, 26400, Note_on_c, 2, 54, 100
4, 26520, Note_on_c, 2, 54, 0
4, 26520, Note_on_c, 2, 52, 100
4, 26640, Note_on_c, 2, 52, 0
4, 26640, Note_on_c, 2, 50, 100
4, 26760, Note_on_c, 2, 50, 0
4, 26760, Note_on_c, 2, 52, 100
4, 26880, Note_on_c, 2, 52, 0
4, 26880, Note_on_c, 2, 54, 100
4, 27000, Note_on_c, 2, 54, 0
4, 27000, Note_on_c, 2, 47, 100
4, 27360, Note_on_c, 2, 47, 0
4, 27360, Note_on_c, 2, 50, 100
4, 27420, Note_on_c, 2, 50, 0
4, 27420, Note_on_c, 2, 47, 100
4, 27480, Note_on_c, 2, 47, 0
4, 27480, Note_on_c, 2, 50, 100
4, 27540, Note_on_c, 2, 50, 0
4, 27540, Note_on_c, 2, 54, 100
4, 27600, Note_on_c, 2, 54, 0
4, 27600, Note_on_c, 2, 50, 100
4, 27660, Note_on_c, 2, 50, 0
4, 27660, Note_on_c, 2, 54, 100
4, 27720, Note_on_c, 2, 54, 0
4, 27720, Note_on_c, 2, 59, 100
4, 27780, Note_on_c, 2, 59, 0
4, 27780, Note_on_c, 2, 55, 100
4, 27840, Note_on_c, 2, 55, 0
4, 27840, Note_on_c, 2, 59, 100
4, 27900, Note_on_c, 2, 59, 0
4, 27900, Note_on_c, 2, 64, 100
4, 27960, Note_on_c, 2, 64, 0
4, 27960, Note_on_c, 2, 59, 100
4, 28020, Note_on_c, 2, 59, 0
4, 28020, Note_on_c, 2, 64, 100
4, 28080, Note_on_c, 2, 64, 0
4, 28080, Note_on_c, 2, 69, 100
4, 28440, Note_on_c, 2, 69, 0
4, 28440, Note_on_c, 2, 49, 100
4, 28500, Note_on_c, 2, 49, 0
4, 28500, Note_on_c, 2, 45, 100
4, 28560, Note_on_c, 2, 45, 0
4, 28560, Note_on_c, 2, 49, 100
4, 28620, Note_on_c, 2, 49, 0
4, 28620, Note_on_c, 2, 52, 100
4, 28680, Note_on_c, 2, 52, 0
4, 28680, Note_on_c, 2, 49, 100
4, 28740, Note_on_c, 2, 49, 0
4, 28740, Note_on_c, 2, 52, 100
4, 28800, Note_on_c, 2, 52, 0
4, 28800, Note_on_c, 2, 57, 100
4, 28860, Note_on_c, 2, 57, 0
4, 28860, Note_on_c, 2, 54, 100
4, 28920, Note_on_c, 2, 54, 0
4, 28920, Note_on_c, 2, 57, 100
4, 28980, Note_on_c, 2, 57, 0
4, 28980, Note_on_c, 2, 62, 100
4, 29040, Note_on_c, 2, 62, 0
4, 29040, Note_on_c, 2, 57, 100
4, 29100, Note_on_c, 2, 57, 0
4, 29100, Note_on_c, 2, 62, 100
4, 29160, Note_on_c, 2, 62, 0
4, 29160, Note_on_c, 2, 67, 100
4, 29220, Note_on_c, 2, 67, 0
4, 29220, Note_on_c, 2, 71, 100
4, 29280, Note_on_c, 2, 71, 0
4, 29280, Note_on_c, 2, 67, 100
4, 29340, Note_on_c, 2, 67, 0
4, 29340, Note_on_c, 2, 62, 100
4, 29400, Note_on_c, 2, 62, 0
4, 29400, Note_on_c, 2, 67, 100
4, 29460, Note_on_c, 2, 67, 0
4, 29460, Note_on_c, 2, 62, 100
4, 29520, Note_on_c, 2, 62, 0
4, 29520, Note_on_c, 2, 59, 100
4, 29580, Note_on_c, 2, 59, 0
4, 29580, Note_on_c, 2, 62, 100
4, 29640, Note_on_c, 2, 62, 0
4, 29640, Note_on_c, 2, 59, 100
4, 29700, Note_on_c, 2, 59, 0
4, 29700, Note_on_c, 2, 55, 100
4, 29760, Note_on_c, 2, 55, 0
4, 29760, Note_on_c, 2, 59, 100
4, 29820, Note_on_c, 2, 59, 0
4, 29820, Note_on_c, 2, 55, 100
4, 29880, Note_on_c, 2, 55, 0
4, 29880, Note_on_c, 2, 52, 100
4, 29940, Note_on_c, 2, 52, 0
4, 29940, Note_on_c, 2, 55, 100
4, 30000, Note_on_c, 2, 55, 0
4, 30000, Note_on_c, 2, 52, 100
4, 30060, Note_on_c, 2, 52, 0
4, 30060, Note_on_c, 2, 49, 100
4, 30120, Note_on_c, 2, 49, 0
4, 30120, Note_on_c, 2, 52, 100
4, 30180, Note_on_c, 2, 52, 0
4, 30180, Note_on_c, 2, 49, 100
4, 30240, Note_on_c, 2, 49, 0
4, 30240, Note_on_c, 2, 46, 100
4, 30720, Note_on_c, 2, 46, 0
4, 30720, Note_on_c, 2, 47, 100
4, 30840, Note_on_c, 2, 47, 0
4, 30840, Note_on_c, 2, 49, 100
4, 30960, Note_on_c, 2, 49, 0
4, 30960, Note_on_c, 2, 42, 100
4, 31080, Note_on_c, 2, 42, 0
4, 31080, Note_on_c, 2, 47, 100
4, 31200, Note_on_c, 2, 47, 0
4, 31200, Note_on_c, 2, 46, 100
4, 31320, Note_on_c, 2, 46, 0
4, 31320, Note_on_c, 2, 47, 100
4, 31680, Note_on_c, 2, 47, 0
4, 32040, Note_on_c, 2, 47, 100
4, 32400, Note_on_c, 2, 47, 0
4, 32400, Note_on_c, 2, 52, 100
4, 34560, Note_on_c, 2, 52, 0
4, 34560, Note_on_c, 2, 50, 100
4, 34800, Note_on_c, 2, 50, 0
4, 35640, Note_on_c, 2, 59, 100
4, 35700, Note_on_c, 2, 59, 0
4, 35700, Note_on_c, 2, 55, 100
4, 35760, Note_on_c, 2, 55, 0
4, 35760, Note_on_c, 2, 59, 100
4, 35820, Note_on_c, 2, 59, 0
4, 35820, Note_on_c, 2, 62, 100
4, 35880, Note_on_c, 2, 62, 0
4, 35880, Note_on_c, 2, 67, 100
4, 35940, Note_on_c, 2, 67, 0
4, 35940, Note_on_c, 2, 62, 100
4, 36000, Note_on_c, 2, 62, 0
4, 36000, Note_on_c, 2, 59, 100
4, 36060, Note_on_c, 2, 59, 0
4, 36060, Note_on_c, 2, 62, 100
4, 36120, Note_on_c, 2, 62, 0
4, 36120, Note_on_c, 2, 59, 100
4, 36180, Note_on_c, 2, 59, 0
4, 36180, Note_on_c, 2, 55, 100
4, 36240, Note_on_c, 2, 55, 0
4, 36240, Note_on_c, 2, 59, 100
4, 36300, Note_on_c, 2, 59, 0
4, 36300, Note_on_c, 2, 55, 100
4, 36360, Note_on_c, 2, 55, 0
4, 36360, Note_on_c, 2, 50, 100
4, 36420, Note_on_c, 2, 50, 0
4, 36420, Note_on_c, 2, 55, 100
4, 36480, Note_on_c, 2, 55, 0
4, 36480, Note_on_c, 2, 50, 100
4, 36540, Note_on_c, 2, 50, 0
4, 36540, Note_on_c, 2, 47, 100
4, 36600, Note_on_c, 2, 47, 0
4, 36600, Note_on_c, 2, 50, 100
4, 36660, Note_on_c, 2, 50, 0
4, 36660, Note_on_c, 2, 47, 100
4, 36720, Note_on_c, 2, 47, 0
4, 36720, Note_on_c, 2, 41, 100
4, 37080, Note_on_c, 2, 41, 0
4, 37800, Note_on_c, 2, 42, 100
4, 38160, Note_on_c, 2, 42, 0
4, 38280, Note_on_c, 2, 52, 100
4, 38400, Note_on_c, 2, 52, 0
4, 38400, Note_on_c, 2, 54, 100
4, 38520, Note_on_c, 2, 54, 0
4, 38520, Note_on_c, 2, 55, 100
4, 38640, Note_on_c, 2, 55, 0
4, 38640, Note_on_c, 2, 54, 100
4, 38760, Note_on_c, 2, 54, 0
4, 38760, Note_on_c, 2, 52, 100
4, 38880, Note_on_c, 2, 52, 0
4, 38880, Note_on_c, 2, 50, 100
4, 39120, Note_on_c, 2, 50, 0
4, 39120, Note_on_c, 2, 52, 100
4, 39240, Note_on_c, 2, 52, 0
4, 39240, Note_on_c, 2, 54, 100
4, 39480, Note_on_c, 2, 54, 0
4, 39480, Note_on_c, 2, 52, 100
4, 39600, Note_on_c, 2, 52, 0
4, 39600, Note_on_c, 2, 54, 100
4, 39840, Note_on_c, 2, 54, 0
4, 39840, Note_on_c, 2, 42, 100
4, 39960, Note_on_c, 2, 42, 0
4, 39960, Note_on_c, 2, 47, 100
4, 41040, Note_on_c, 2, 47, 0
4, 41040, End_track
5, 0, Start_track
5, 0, MIDI_port, 0
5, 0, Title_t, "Inventions and Sinfonias ( 2 and 3-Part Inventions )"
5, 0, End_track
6, 0, Start_track
6, 0, MIDI_port, 0
6, 0, Title_t, "--------------------------------------"
6, 0, End_track
7, 0, Start_track
7, 0, MIDI_port, 0
7, 0, Title_t, "Sinfonia No. 15 in B minor - BWV 801"
7, 0, End_track
8, 0, Start_track
8, 0, MIDI_port, 0
8, 0, Title_t, "--------------------------------------"
8, 0, End_track
9, 0, Start_track
9, 0, MIDI_port, 0
9, 0, Title_t, "Original sequence by an unknown author"
9, 0, End_track
10, 0, Start_track
10, 0, MIDI_port, 0
10, 0, Title_t, "Modified with Cakewalk Pro Audio by"
10, 0, End_track
11, 0, Start_track
11, 0, MIDI_port, 0
11, 0, Title_t, "David J. Grossman - dave@unpronounceable.com"
11, 0, End_track
12, 0, Start_track
12, 0, MIDI_port, 0
12, 0, Title_t, "This and other Bach MIDI files can be found at:"
12, 0, End_track
13, 0, Start_track
13, 0, MIDI_port, 0
13, 0, Title_t, "Dave's J.S. Bach Page"
13, 0, End_track
14, 0, Start_track
14, 0, MIDI_port, 0
14, 0, Title_t, "http://www.unpronounceable.com/bach"
14, 0, End_track
15, 0, Start_track
15, 0, MIDI_port, 0
15, 0, Title_t, "--------------------------------------"
15, 0, End_track
16, 0, Start_track
16, 0, MIDI_port, 0
16, 0, Title_t, "Original Filename: bwv801.mid"
16, 0, End_track
17, 0, Start_track
17, 0, MIDI_port, 0
17, 0, Title_t, "Last Modified: March 18, 1997"
17, 0, End_track
0, 0, End_of_file
