0, 0, Header, 1, 3, 384
1, 0, Start_track
1, 0, Time_signature, 4, 2, 24, 8
1, 0, Tempo, 500000
1, 221184, End_track
2, 0, Start_track
2, 0, Text_t, "harpsichord: John Sankey"
2, 0, Program_c, 0, 6
2, 0, Pitch_bend_c, 0, 8192
2, 0, Program_c, 1, 6
2, 0, Pitch_bend_c, 1, 7792
2, 0, Program_c, 2, 6
2, 0, Pitch_bend_c, 2, 7876
2, 0, Program_c, 3, 6
2, 0, Pitch_bend_c, 3, 7952
2, 0, Program_c, 4, 6
2, 0, Pitch_bend_c, 4, 7792
2, 0, Program_c, 5, 6
2, 0, Pitch_bend_c, 5, 8112
2, 0, Program_c, 6, 6
2, 0, Pitch_bend_c, 6, 7712
2, 0, Program_c, 7, 6
2, 0, Pitch_bend_c, 7, 8037
2, 0, Program_c, 8, 6
2, 0, Pitch_bend_c, 8, 7872
2, 0, Program_c, 10, 6
2, 0, Pitch_bend_c, 10, 7712
2, 0, Program_c, 11, 6
2, 0, Pitch_bend_c, 11, 8032
2, 0, Program_c, 12, 6
2, 0, Pitch_bend_c, 12, 7872
2, 0, Title_t, "Track 1"
2, 64, Note_on_c, 8, 68, 127
2, 64, Note_on_c, 8, 56, 127
2, 64, Note_on_c, 12, 59, 127
2, 315, Note_off_c, 8, 68, 127
2, 318, Note_on_c, 11, 70, 127
2, 569, Note_off_c, 11, 70, 127
2, 570, Note_off_c, 12, 59, 127
2, 572, Note_on_c, 12, 71, 127
2, 572, Note_on_c, 3, 63, 127
2, 823, Note_off_c, 12, 71, 127
2, 827, Note_on_c, 8, 68, 127
2, 1078, Note_off_c, 8, 68, 127
2, 1078, Note_off_c, 3, 63, 127
2, 1081, Note_on_c, 11, 70, 127
2, 1081, Note_on_c, 1, 61, 127
2, 1332, Note_off_c, 11, 70, 127
2, 1336, Note_on_c, 1, 73, 127
2, 1587, Note_off_c, 1, 73, 127
2, 1587, Note_off_c, 8, 56, 127
2, 1590, Note_on_c, 4, 76, 127
2, 1590, Note_on_c, 7, 55, 127
2, 2088, Note_off_c, 1, 61, 127
2, 2096, Note_off_c, 4, 76, 127
2, 2099, Note_on_c, 3, 75, 127
2, 2099, Note_on_c, 12, 59, 127
2, 2605, Note_off_c, 12, 59, 127
2, 2605, Note_off_c, 3, 75, 127
2, 2608, Note_on_c, 1, 73, 127
2, 2608, Note_on_c, 11, 58, 127
2, 3113, Note_off_c, 7, 55, 127
2, 3114, Note_off_c, 11, 58, 127
2, 3114, Note_off_c, 1, 73, 127
2, 3116, Note_on_c, 12, 71, 127
2, 3116, Note_on_c, 8, 56, 127
2, 3367, Note_off_c, 8, 56, 127
2, 3371, Note_on_c, 11, 58, 127
2, 3622, Note_off_c, 11, 58, 127
2, 3625, Note_on_c, 3, 75, 127
2, 3625, Note_on_c, 8, 80, 127
2, 3625, Note_on_c, 12, 59, 127
2, 3876, Note_off_c, 12, 59, 127
2, 3880, Note_on_c, 8, 56, 127
2, 4123, Note_off_c, 12, 71, 127
2, 4131, Note_off_c, 8, 56, 127
2, 4131, Note_off_c, 3, 75, 127
2, 4134, Note_on_c, 11, 70, 127
2, 4134, Note_on_c, 1, 73, 127
2, 4134, Note_on_c, 11, 58, 127
2, 4385, Note_off_c, 11, 58, 127
2, 4388, Note_on_c, 1, 61, 127
2, 4632, Note_off_c, 8, 80, 127
2, 4639, Note_off_c, 1, 61, 127
2, 4643, Note_on_c, 7, 79, 127
2, 4643, Note_on_c, 4, 64, 127
2, 5141, Note_off_c, 1, 73, 127
2, 5141, Note_off_c, 11, 70, 127
2, 5149, Note_off_c, 4, 64, 127
2, 5152, Note_on_c, 12, 71, 127
2, 5152, Note_on_c, 3, 63, 127
2, 5658, Note_off_c, 12, 71, 127
2, 5660, Note_on_c, 11, 70, 127
2, 5660, Note_on_c, 1, 61, 127
2, 6166, Note_off_c, 1, 61, 127
2, 6166, Note_off_c, 11, 70, 127
2, 6166, Note_off_c, 7, 79, 127
2, 6169, Note_on_c, 3, 75, 127
2, 6169, Note_on_c, 8, 80, 127
2, 6169, Note_on_c, 12, 59, 127
2, 6420, Note_off_c, 8, 80, 127
2, 6424, Note_on_c, 11, 82, 127
2, 6672, Note_off_c, 3, 75, 127
2, 6675, Note_off_c, 11, 82, 127
2, 6675, Note_off_c, 3, 63, 127
2, 6678, Note_on_c, 12, 83, 127
2, 6678, Note_on_c, 8, 68, 127
2, 6929, Note_off_c, 12, 83, 127
2, 6932, Note_on_c, 3, 75, 127
2, 7183, Note_off_c, 3, 75, 127
2, 7184, Note_off_c, 8, 68, 127
2, 7187, Note_on_c, 4, 76, 127
2, 7187, Note_on_c, 1, 61, 127
2, 7438, Note_off_c, 4, 76, 127
2, 7441, Note_on_c, 8, 80, 127
2, 7692, Note_off_c, 8, 80, 127
2, 7692, Note_off_c, 12, 59, 127
2, 7696, Note_on_c, 6, 78, 127
2, 7696, Note_on_c, 11, 58, 127
2, 7947, Note_off_c, 6, 78, 127
2, 7950, Note_on_c, 8, 80, 127
2, 8194, Note_off_c, 1, 61, 127
2, 8201, Note_off_c, 8, 80, 127
2, 8204, Note_on_c, 11, 82, 127
2, 8204, Note_on_c, 6, 66, 127
2, 8455, Note_off_c, 11, 82, 127
2, 8459, Note_on_c, 1, 73, 127
2, 8710, Note_off_c, 1, 73, 127
2, 8710, Note_off_c, 6, 66, 127
2, 8713, Note_on_c, 3, 75, 127
2, 8713, Note_on_c, 12, 59, 127
2, 8964, Note_off_c, 3, 75, 127
2, 8968, Note_on_c, 6, 78, 127
2, 9219, Note_off_c, 6, 78, 127
2, 9219, Note_off_c, 11, 58, 127
2, 9222, Note_on_c, 4, 76, 127
2, 9222, Note_on_c, 8, 56, 127
2, 9473, Note_off_c, 4, 76, 127
2, 9476, Note_on_c, 6, 78, 127
2, 9720, Note_off_c, 12, 59, 127
2, 9727, Note_off_c, 6, 78, 127
2, 9731, Note_on_c, 8, 80, 127
2, 9731, Note_on_c, 4, 64, 127
2, 9982, Note_off_c, 8, 80, 127
2, 9985, Note_on_c, 12, 71, 127
2, 10229, Note_off_c, 8, 56, 127
2, 10236, Note_off_c, 12, 71, 127
2, 10240, Note_on_c, 1, 73, 127
2, 10240, Note_on_c, 4, 52, 127
2, 10491, Note_off_c, 1, 73, 127
2, 10494, Note_on_c, 4, 76, 127
2, 10745, Note_off_c, 4, 76, 127
2, 10746, Note_off_c, 4, 52, 127
2, 10748, Note_on_c, 11, 70, 127
2, 10748, Note_on_c, 6, 54, 127
2, 10999, Note_off_c, 11, 70, 127
2, 11003, Note_on_c, 12, 71, 127
2, 11254, Note_off_c, 12, 71, 127
2, 11254, Note_off_c, 6, 54, 127
2, 11254, Note_off_c, 4, 64, 127
2, 11257, Note_on_c, 1, 73, 127
2, 11257, Note_on_c, 3, 63, 127
2, 11257, Note_on_c, 8, 56, 127
2, 11508, Note_off_c, 1, 73, 127
2, 11512, Note_on_c, 6, 66, 127
2, 11763, Note_off_c, 6, 66, 127
2, 11763, Note_off_c, 8, 56, 127
2, 11763, Note_off_c, 3, 63, 127
2, 11766, Note_on_c, 1, 73, 127
2, 11766, Note_on_c, 11, 58, 127
2, 11766, Note_on_c, 1, 61, 127
2, 12017, Note_off_c, 1, 73, 127
2, 12020, Note_on_c, 4, 76, 127
2, 12271, Note_off_c, 4, 76, 127
2, 12272, Note_off_c, 1, 61, 127
2, 12272, Note_off_c, 11, 58, 127
2, 12275, Note_on_c, 3, 75, 127
2, 12275, Note_on_c, 12, 59, 127
2, 12526, Note_off_c, 12, 59, 127
2, 12526, Note_off_c, 3, 75, 127
2, 12529, Note_on_c, 4, 76, 127
2, 12529, Note_on_c, 1, 61, 127
2, 12780, Note_off_c, 1, 61, 127
2, 12780, Note_off_c, 4, 76, 127
2, 12784, Note_on_c, 6, 78, 127
2, 12784, Note_on_c, 3, 63, 127
2, 13035, Note_off_c, 3, 63, 127
2, 13035, Note_off_c, 6, 78, 127
2, 13038, Note_on_c, 3, 75, 127
2, 13038, Note_on_c, 12, 59, 127
2, 13289, Note_off_c, 12, 59, 127
2, 13289, Note_off_c, 3, 75, 127
2, 13292, Note_on_c, 4, 76, 127
2, 13292, Note_on_c, 1, 61, 127
2, 13543, Note_off_c, 1, 61, 127
2, 13543, Note_off_c, 4, 76, 127
2, 13547, Note_on_c, 8, 80, 127
2, 13547, Note_on_c, 4, 64, 127
2, 13798, Note_off_c, 4, 64, 127
2, 13798, Note_off_c, 8, 80, 127
2, 13801, Note_on_c, 12, 71, 127
2, 13801, Note_on_c, 8, 68, 127
2, 14052, Note_off_c, 12, 71, 127
2, 14056, Note_on_c, 11, 70, 127
2, 14307, Note_off_c, 11, 70, 127
2, 14307, Note_off_c, 8, 68, 127
2, 14310, Note_on_c, 12, 71, 127
2, 14310, Note_on_c, 6, 66, 127
2, 14561, Note_off_c, 12, 71, 127
2, 14564, Note_on_c, 11, 70, 127
2, 14815, Note_off_c, 11, 70, 127
2, 14816, Note_off_c, 6, 66, 127
2, 14819, Note_on_c, 12, 71, 127
2, 14819, Note_on_c, 4, 64, 127
2, 15070, Note_off_c, 12, 71, 127
2, 15073, Note_on_c, 1, 73, 127
2, 15325, Note_off_c, 4, 64, 127
2, 15328, Note_on_c, 3, 63, 127
2, 15328, Note_on_c, 12, 47, 127
2, 15579, Note_off_c, 12, 47, 127
2, 15579, Note_off_c, 3, 63, 127
2, 15582, Note_on_c, 4, 64, 127
2, 15582, Note_on_c, 1, 49, 127
2, 15815, Note_off_c, 1, 73, 127
2, 15833, Note_off_c, 1, 49, 127
2, 15833, Note_off_c, 4, 64, 127
2, 15836, Note_on_c, 12, 71, 127
2, 15836, Note_on_c, 6, 66, 127
2, 15836, Note_on_c, 3, 51, 127
2, 16087, Note_off_c, 3, 51, 127
2, 16087, Note_off_c, 6, 66, 127
2, 16091, Note_on_c, 3, 63, 127
2, 16091, Note_on_c, 12, 47, 127
2, 16342, Note_off_c, 12, 47, 127
2, 16342, Note_off_c, 3, 63, 127
2, 16345, Note_on_c, 4, 64, 127
2, 16345, Note_on_c, 1, 49, 127
2, 16596, Note_off_c, 1, 49, 127
2, 16596, Note_off_c, 4, 64, 127
2, 16600, Note_on_c, 8, 68, 127
2, 16600, Note_on_c, 4, 52, 127
2, 16851, Note_off_c, 4, 52, 127
2, 16851, Note_off_c, 8, 68, 127
2, 16854, Note_on_c, 1, 61, 127
2, 16854, Note_on_c, 8, 56, 127
2, 17097, Note_off_c, 12, 71, 127
2, 17108, Note_on_c, 12, 71, 127
2, 17359, Note_off_c, 12, 71, 127
2, 17360, Note_off_c, 8, 56, 127
2, 17363, Note_on_c, 11, 70, 127
2, 17363, Note_on_c, 6, 54, 127
2, 17614, Note_off_c, 11, 70, 127
2, 17617, Note_on_c, 12, 71, 127
2, 17868, Note_off_c, 12, 71, 127
2, 17869, Note_off_c, 6, 54, 127
2, 17872, Note_on_c, 1, 73, 127
2, 17872, Note_on_c, 4, 52, 127
2, 18123, Note_off_c, 1, 73, 127
2, 18126, Note_on_c, 11, 70, 127
2, 18377, Note_off_c, 11, 70, 127
2, 18378, Note_off_c, 4, 52, 127
2, 18380, Note_on_c, 6, 66, 127
2, 18380, Note_on_c, 3, 51, 127
2, 18631, Note_off_c, 3, 51, 127
2, 18635, Note_on_c, 4, 52, 127
2, 18886, Note_off_c, 4, 52, 127
2, 18886, Note_off_c, 1, 61, 127
2, 18889, Note_on_c, 12, 59, 127
2, 18889, Note_on_c, 6, 54, 127
2, 19140, Note_off_c, 6, 54, 127
2, 19140, Note_off_c, 12, 59, 127
2, 19144, Note_on_c, 10, 57, 127
2, 19144, Note_on_c, 3, 51, 127
2, 19395, Note_off_c, 3, 51, 127
2, 19395, Note_off_c, 10, 57, 127
2, 19398, Note_on_c, 1, 61, 127
2, 19398, Note_on_c, 5, 53, 127
2, 19649, Note_off_c, 5, 53, 127
2, 19649, Note_off_c, 1, 61, 127
2, 19652, Note_on_c, 12, 59, 127
2, 19652, Note_on_c, 8, 56, 127
2, 19903, Note_off_c, 8, 56, 127
2, 19903, Note_off_c, 12, 59, 127
2, 19907, Note_on_c, 2, 62, 127
2, 19907, Note_on_c, 12, 59, 127
2, 20155, Note_off_c, 6, 66, 127
2, 20161, Note_on_c, 5, 65, 127
2, 20410, Note_off_c, 2, 62, 127
2, 20412, Note_off_c, 5, 65, 127
2, 20413, Note_off_c, 12, 59, 127
2, 20416, Note_on_c, 1, 61, 127
2, 20416, Note_on_c, 6, 66, 127
2, 20416, Note_on_c, 10, 57, 127
2, 20667, Note_off_c, 6, 66, 127
2, 20670, Note_on_c, 5, 65, 127
2, 20919, Note_off_c, 1, 61, 127
2, 20921, Note_off_c, 5, 65, 127
2, 20922, Note_off_c, 10, 57, 127
2, 20924, Note_on_c, 6, 66, 127
2, 20924, Note_on_c, 12, 59, 127
2, 20924, Note_on_c, 8, 56, 127
2, 21175, Note_off_c, 6, 66, 127
2, 21179, Note_on_c, 8, 68, 127
2, 21430, Note_off_c, 8, 68, 127
2, 21430, Note_off_c, 8, 56, 127
2, 21441, Note_on_c, 1, 61, 127
2, 21441, Note_on_c, 6, 54, 127
2, 21692, Note_off_c, 1, 61, 127
2, 21696, Note_on_c, 3, 63, 127
2, 21931, Note_off_c, 12, 59, 127
2, 21947, Note_off_c, 3, 63, 127
2, 21950, Note_on_c, 4, 64, 127
2, 21950, Note_on_c, 10, 57, 127
2, 22201, Note_off_c, 10, 57, 127
2, 22201, Note_off_c, 4, 64, 127
2, 22204, Note_on_c, 1, 61, 127
2, 22204, Note_on_c, 8, 56, 127
2, 22455, Note_off_c, 8, 56, 127
2, 22455, Note_off_c, 1, 61, 127
2, 22459, Note_on_c, 3, 63, 127
2, 22459, Note_on_c, 10, 57, 127
2, 22694, Note_off_c, 6, 54, 127
2, 22710, Note_off_c, 10, 57, 127
2, 22710, Note_off_c, 3, 63, 127
2, 22713, Note_on_c, 6, 66, 127
2, 22713, Note_on_c, 6, 54, 127
2, 22964, Note_off_c, 6, 66, 127
2, 22968, Note_on_c, 0, 60, 127
2, 22968, Note_on_c, 10, 69, 127
2, 23219, Note_off_c, 6, 54, 127
2, 23222, Note_on_c, 6, 54, 127
2, 23473, Note_off_c, 6, 54, 127
2, 23474, Note_off_c, 10, 69, 127
2, 23474, Note_off_c, 0, 60, 127
2, 23476, Note_on_c, 1, 61, 127
2, 23476, Note_on_c, 8, 68, 127
2, 23476, Note_on_c, 4, 52, 127
2, 23727, Note_off_c, 4, 52, 127
2, 23731, Note_on_c, 3, 51, 127
2, 23982, Note_off_c, 3, 51, 127
2, 23982, Note_off_c, 8, 68, 127
2, 23982, Note_off_c, 1, 61, 127
2, 23985, Note_on_c, 3, 63, 127
2, 23985, Note_on_c, 6, 66, 127
2, 23985, Note_on_c, 1, 49, 127
2, 24236, Note_off_c, 1, 49, 127
2, 24240, Note_on_c, 0, 48, 127
2, 24491, Note_off_c, 0, 48, 127
2, 24491, Note_off_c, 6, 66, 127
2, 24491, Note_off_c, 3, 63, 127
2, 24494, Note_on_c, 4, 64, 127
2, 24494, Note_on_c, 8, 56, 127
2, 24494, Note_on_c, 1, 49, 127
2, 24745, Note_off_c, 8, 56, 127
2, 24748, Note_on_c, 11, 58, 127
2, 24999, Note_off_c, 11, 58, 127
2, 25003, Note_on_c, 12, 59, 127
2, 25254, Note_off_c, 12, 59, 127
2, 25257, Note_on_c, 8, 56, 127
2, 25508, Note_off_c, 8, 56, 127
2, 25508, Note_off_c, 4, 64, 127
2, 25512, Note_on_c, 1, 73, 127
2, 25512, Note_on_c, 11, 58, 127
2, 25763, Note_off_c, 11, 58, 127
2, 25766, Note_on_c, 1, 61, 127
2, 26017, Note_off_c, 1, 49, 127
2, 26018, Note_off_c, 1, 73, 127
2, 26020, Note_on_c, 4, 64, 127
2, 26020, Note_on_c, 11, 70, 127
2, 26020, Note_on_c, 7, 43, 127
2, 26269, Note_off_c, 1, 61, 127
2, 26271, Note_off_c, 7, 43, 127
2, 26275, Note_on_c, 1, 61, 127
2, 26526, Note_off_c, 1, 61, 127
2, 26526, Note_off_c, 4, 64, 127
2, 26529, Note_on_c, 3, 63, 127
2, 26529, Note_on_c, 12, 59, 127
2, 26780, Note_off_c, 12, 59, 127
2, 26784, Note_on_c, 11, 58, 127
2, 27035, Note_off_c, 11, 58, 127
2, 27035, Note_off_c, 3, 63, 127
2, 27038, Note_on_c, 1, 61, 127
2, 27038, Note_on_c, 8, 56, 127
2, 27289, Note_off_c, 8, 56, 127
2, 27292, Note_on_c, 7, 55, 127
2, 27543, Note_off_c, 7, 55, 127
2, 27544, Note_off_c, 1, 61, 127
2, 27547, Note_on_c, 12, 59, 127
2, 27547, Note_on_c, 8, 56, 127
2, 27795, Note_off_c, 11, 70, 127
2, 27801, Note_on_c, 8, 68, 127
2, 28052, Note_off_c, 8, 68, 127
2, 28056, Note_on_c, 7, 67, 127
2, 28307, Note_off_c, 7, 67, 127
2, 28310, Note_on_c, 11, 70, 127
2, 28561, Note_off_c, 11, 70, 127
2, 28564, Note_on_c, 8, 68, 127
2, 28815, Note_off_c, 8, 68, 127
2, 28819, Note_on_c, 5, 65, 127
2, 29070, Note_off_c, 5, 65, 127
2, 29070, Note_off_c, 12, 59, 127
2, 29073, Note_on_c, 11, 58, 127
2, 29073, Note_on_c, 2, 62, 127
2, 29325, Note_off_c, 8, 56, 127
2, 29328, Note_on_c, 8, 56, 127
2, 29579, Note_off_c, 8, 56, 127
2, 29579, Note_off_c, 2, 62, 127
2, 29582, Note_on_c, 3, 63, 127
2, 29582, Note_on_c, 6, 54, 127
2, 29833, Note_off_c, 6, 54, 127
2, 29836, Note_on_c, 5, 53, 127
2, 30087, Note_off_c, 5, 53, 127
2, 30088, Note_off_c, 3, 63, 127
2, 30091, Note_on_c, 5, 65, 127
2, 30091, Note_on_c, 3, 51, 127
2, 30342, Note_off_c, 3, 51, 127
2, 30345, Note_on_c, 2, 50, 127
2, 30596, Note_off_c, 2, 50, 127
2, 30597, Note_off_c, 5, 65, 127
2, 30600, Note_on_c, 6, 66, 127
2, 30600, Note_on_c, 3, 51, 127
2, 30851, Note_off_c, 3, 51, 127
2, 30854, Note_on_c, 5, 53, 127
2, 31105, Note_off_c, 5, 53, 127
2, 31105, Note_off_c, 11, 58, 127
2, 31108, Note_on_c, 3, 63, 127
2, 31108, Note_on_c, 6, 54, 127
2, 31359, Note_off_c, 6, 54, 127
2, 31363, Note_on_c, 11, 46, 127
2, 31614, Note_off_c, 11, 46, 127
2, 31614, Note_off_c, 3, 63, 127
2, 31617, Note_on_c, 8, 56, 127
2, 31617, Note_on_c, 0, 48, 127
2, 31868, Note_off_c, 0, 48, 127
2, 31872, Note_on_c, 3, 51, 127
2, 32123, Note_off_c, 3, 51, 127
2, 32123, Note_off_c, 6, 66, 127
2, 32126, Note_on_c, 5, 65, 127
2, 32126, Note_on_c, 1, 49, 127
2, 32377, Note_off_c, 1, 49, 127
2, 32380, Note_on_c, 3, 51, 127
2, 32624, Note_off_c, 8, 56, 127
2, 32631, Note_off_c, 3, 51, 127
2, 32635, Note_on_c, 1, 61, 127
2, 32635, Note_on_c, 5, 53, 127
2, 32886, Note_off_c, 5, 53, 127
2, 32889, Note_on_c, 8, 44, 127
2, 33140, Note_off_c, 8, 44, 127
2, 33141, Note_off_c, 1, 61, 127
2, 33144, Note_on_c, 6, 54, 127
2, 33144, Note_on_c, 11, 46, 127
2, 33395, Note_off_c, 11, 46, 127
2, 33398, Note_on_c, 1, 49, 127
2, 33649, Note_off_c, 1, 49, 127
2, 33649, Note_off_c, 5, 65, 127
2, 33652, Note_on_c, 3, 63, 127
2, 33652, Note_on_c, 12, 47, 127
2, 33903, Note_off_c, 12, 47, 127
2, 33907, Note_on_c, 1, 49, 127
2, 34151, Note_off_c, 6, 54, 127
2, 34158, Note_off_c, 1, 49, 127
2, 34161, Note_on_c, 12, 59, 127
2, 34161, Note_on_c, 3, 51, 127
2, 34407, Note_off_c, 3, 63, 127
2, 34412, Note_off_c, 3, 51, 127
2, 34416, Note_on_c, 3, 63, 127
2, 34416, Note_on_c, 6, 42, 127
2, 34667, Note_off_c, 6, 42, 127
2, 34667, Note_off_c, 3, 63, 127
2, 34670, Note_on_c, 5, 65, 127
2, 34670, Note_on_c, 8, 44, 127
2, 34921, Note_off_c, 8, 44, 127
2, 34921, Note_off_c, 5, 65, 127
2, 34924, Note_on_c, 6, 66, 127
2, 34924, Note_on_c, 12, 47, 127
2, 35175, Note_off_c, 12, 47, 127
2, 35175, Note_off_c, 6, 66, 127
2, 35179, Note_on_c, 8, 68, 127
2, 35179, Note_on_c, 2, 38, 127
2, 35419, Note_off_c, 12, 59, 127
2, 35433, Note_on_c, 12, 59, 127
2, 35684, Note_off_c, 12, 59, 127
2, 35685, Note_off_c, 2, 38, 127
2, 35688, Note_on_c, 11, 58, 127
2, 35688, Note_on_c, 2, 50, 127
2, 35921, Note_off_c, 8, 68, 127
2, 35942, Note_on_c, 2, 62, 127
2, 36193, Note_off_c, 2, 62, 127
2, 36194, Note_off_c, 2, 50, 127
2, 36196, Note_on_c, 5, 65, 127
2, 36196, Note_on_c, 11, 46, 127
2, 36447, Note_off_c, 5, 65, 127
2, 36451, Note_on_c, 8, 68, 127
2, 36702, Note_off_c, 8, 68, 127
2, 36702, Note_off_c, 11, 46, 127
2, 36705, Note_on_c, 6, 66, 127
2, 36705, Note_on_c, 3, 51, 127
2, 36946, Note_off_c, 11, 58, 127
2, 36956, Note_off_c, 3, 51, 127
2, 36960, Note_on_c, 11, 58, 127
2, 36960, Note_on_c, 5, 53, 127
2, 37211, Note_off_c, 5, 53, 127
2, 37211, Note_off_c, 11, 58, 127
2, 37214, Note_on_c, 3, 63, 127
2, 37214, Note_on_c, 6, 54, 127
2, 37447, Note_off_c, 6, 66, 127
2, 37465, Note_off_c, 6, 54, 127
2, 37468, Note_on_c, 6, 66, 127
2, 37468, Note_on_c, 3, 51, 127
2, 37719, Note_off_c, 3, 51, 127
2, 37719, Note_off_c, 6, 66, 127
2, 37723, Note_on_c, 8, 68, 127
2, 37723, Note_on_c, 5, 53, 127
2, 37974, Note_off_c, 5, 53, 127
2, 37974, Note_off_c, 8, 68, 127
2, 37977, Note_on_c, 12, 71, 127
2, 37977, Note_on_c, 8, 56, 127
2, 38221, Note_off_c, 3, 63, 127
2, 38228, Note_off_c, 8, 56, 127
2, 38228, Note_off_c, 12, 71, 127
2, 38232, Note_on_c, 6, 66, 127
2, 38232, Note_on_c, 2, 62, 127
2, 38232, Note_on_c, 12, 59, 127
2, 38483, Note_off_c, 6, 66, 127
2, 38486, Note_on_c, 5, 65, 127
2, 38737, Note_off_c, 5, 65, 127
2, 38738, Note_off_c, 12, 59, 127
2, 38740, Note_on_c, 6, 66, 127
2, 38740, Note_on_c, 11, 58, 127
2, 38991, Note_off_c, 6, 66, 127
2, 38995, Note_on_c, 5, 65, 127
2, 39246, Note_off_c, 5, 65, 127
2, 39246, Note_off_c, 11, 58, 127
2, 39249, Note_on_c, 6, 66, 127
2, 39249, Note_on_c, 8, 56, 127
2, 39500, Note_off_c, 6, 66, 127
2, 39510, Note_on_c, 5, 65, 127
2, 39764, Note_off_c, 8, 56, 127
2, 39769, Note_off_c, 2, 62, 127
2, 39770, Note_off_c, 5, 65, 127
2, 39774, Note_on_c, 6, 54, 127
2, 39774, Note_on_c, 3, 63, 127
2, 40025, Note_off_c, 3, 63, 127
2, 40025, Note_off_c, 6, 54, 127
2, 40028, Note_on_c, 8, 56, 127
2, 40028, Note_on_c, 5, 65, 127
2, 40279, Note_off_c, 5, 65, 127
2, 40279, Note_off_c, 8, 56, 127
2, 40283, Note_on_c, 11, 58, 127
2, 40283, Note_on_c, 6, 66, 127
2, 40534, Note_off_c, 6, 66, 127
2, 40534, Note_off_c, 11, 58, 127
2, 40537, Note_on_c, 6, 54, 127
2, 40537, Note_on_c, 3, 63, 127
2, 40788, Note_off_c, 3, 63, 127
2, 40788, Note_off_c, 6, 54, 127
2, 40792, Note_on_c, 8, 56, 127
2, 40792, Note_on_c, 5, 65, 127
2, 41043, Note_off_c, 5, 65, 127
2, 41043, Note_off_c, 8, 56, 127
2, 41046, Note_on_c, 12, 59, 127
2, 41046, Note_on_c, 8, 68, 127
2, 41297, Note_off_c, 8, 68, 127
2, 41297, Note_off_c, 12, 59, 127
2, 41300, Note_on_c, 2, 50, 127
2, 41300, Note_on_c, 12, 71, 127
2, 41551, Note_off_c, 2, 50, 127
2, 41555, Note_on_c, 3, 51, 127
2, 41806, Note_off_c, 3, 51, 127
2, 41806, Note_off_c, 12, 71, 127
2, 41809, Note_on_c, 5, 53, 127
2, 41809, Note_on_c, 11, 70, 127
2, 42060, Note_off_c, 5, 53, 127
2, 42064, Note_on_c, 11, 46, 127
2, 42315, Note_off_c, 11, 46, 127
2, 42315, Note_off_c, 11, 70, 127
2, 42318, Note_on_c, 2, 50, 127
2, 42318, Note_on_c, 8, 68, 127
2, 42569, Note_off_c, 2, 50, 127
2, 42572, Note_on_c, 5, 53, 127
2, 42823, Note_off_c, 5, 53, 127
2, 42824, Note_off_c, 8, 68, 127
2, 42827, Note_on_c, 3, 51, 127
2, 42827, Note_on_c, 3, 63, 127
2, 42827, Note_on_c, 7, 67, 127
2, 43078, Note_off_c, 3, 63, 127
2, 43081, Note_on_c, 1, 61, 127
2, 43332, Note_off_c, 1, 61, 127
2, 43336, Note_on_c, 12, 59, 127
2, 43587, Note_off_c, 12, 59, 127
2, 43590, Note_on_c, 3, 63, 127
2, 43841, Note_off_c, 3, 63, 127
2, 43844, Note_on_c, 1, 61, 127
2, 44095, Note_off_c, 1, 61, 127
2, 44096, Note_off_c, 7, 67, 127
2, 44099, Note_on_c, 11, 58, 127
2, 44099, Note_on_c, 8, 68, 127
2, 44350, Note_off_c, 8, 68, 127
2, 44350, Note_off_c, 11, 58, 127
2, 44350, Note_off_c, 3, 51, 127
2, 44353, Note_on_c, 1, 49, 127
2, 44353, Note_on_c, 7, 55, 127
2, 44353, Note_on_c, 11, 70, 127
2, 44604, Note_off_c, 11, 70, 127
2, 44608, Note_on_c, 12, 71, 127
2, 44859, Note_off_c, 12, 71, 127
2, 44859, Note_off_c, 7, 55, 127
2, 44862, Note_on_c, 8, 56, 127
2, 44862, Note_on_c, 1, 73, 127
2, 45113, Note_off_c, 1, 73, 127
2, 45116, Note_on_c, 11, 70, 127
2, 45367, Note_off_c, 11, 70, 127
2, 45368, Note_off_c, 8, 56, 127
2, 45371, Note_on_c, 11, 58, 127
2, 45371, Note_on_c, 12, 71, 127
2, 45622, Note_off_c, 12, 71, 127
2, 45625, Note_on_c, 1, 73, 127
2, 45876, Note_off_c, 1, 73, 127
2, 45876, Note_off_c, 1, 49, 127
2, 45880, Note_on_c, 12, 47, 127
2, 45880, Note_on_c, 3, 75, 127
2, 46131, Note_off_c, 3, 75, 127
2, 46134, Note_on_c, 1, 73, 127
2, 46378, Note_off_c, 11, 58, 127
2, 46385, Note_off_c, 1, 73, 127
2, 46388, Note_on_c, 8, 56, 127
2, 46388, Note_on_c, 12, 71, 127
2, 46639, Note_off_c, 12, 71, 127
2, 46643, Note_on_c, 3, 75, 127
2, 46891, Note_off_c, 8, 56, 127
2, 46894, Note_off_c, 3, 75, 127
2, 46897, Note_on_c, 1, 73, 127
2, 46897, Note_on_c, 4, 64, 127
2, 47148, Note_off_c, 1, 73, 127
2, 47152, Note_on_c, 11, 70, 127
2, 47403, Note_off_c, 11, 70, 127
2, 47403, Note_off_c, 12, 47, 127
2, 47406, Note_on_c, 11, 46, 127
2, 47406, Note_on_c, 7, 67, 127
2, 47657, Note_off_c, 11, 46, 127
2, 47660, Note_on_c, 1, 49, 127
2, 47904, Note_off_c, 4, 64, 127
2, 47911, Note_off_c, 1, 49, 127
2, 47912, Note_off_c, 7, 67, 127
2, 47915, Note_on_c, 12, 47, 127
2, 47915, Note_on_c, 3, 63, 127
2, 47915, Note_on_c, 8, 68, 127
2, 48166, Note_off_c, 12, 47, 127
2, 48169, Note_on_c, 11, 46, 127
2, 48420, Note_off_c, 11, 46, 127
2, 48421, Note_off_c, 8, 68, 127
2, 48421, Note_off_c, 3, 63, 127
2, 48424, Note_on_c, 8, 44, 127
2, 48424, Note_on_c, 1, 61, 127
2, 48424, Note_on_c, 11, 70, 127
2, 48675, Note_off_c, 8, 44, 127
2, 48678, Note_on_c, 7, 43, 127
2, 48929, Note_off_c, 7, 43, 127
2, 48930, Note_off_c, 11, 70, 127
2, 48930, Note_off_c, 1, 61, 127
2, 48932, Note_on_c, 8, 44, 127
2, 48932, Note_on_c, 12, 59, 127
2, 48932, Note_on_c, 12, 71, 127
2, 49183, Note_off_c, 12, 59, 127
2, 49183, Note_off_c, 8, 44, 127
2, 49187, Note_on_c, 6, 42, 127
2, 49187, Note_on_c, 3, 63, 127
2, 49438, Note_off_c, 3, 63, 127
2, 49438, Note_off_c, 6, 42, 127
2, 49441, Note_on_c, 4, 40, 127
2, 49441, Note_on_c, 8, 68, 127
2, 49674, Note_off_c, 12, 71, 127
2, 49692, Note_off_c, 4, 40, 127
2, 49696, Note_on_c, 8, 44, 127
2, 49696, Note_on_c, 11, 70, 127
2, 49947, Note_off_c, 11, 70, 127
2, 49947, Note_off_c, 8, 44, 127
2, 49950, Note_on_c, 6, 42, 127
2, 49950, Note_on_c, 0, 72, 127
2, 50201, Note_off_c, 0, 72, 127
2, 50201, Note_off_c, 6, 42, 127
2, 50204, Note_on_c, 3, 39, 127
2, 50204, Note_on_c, 1, 73, 127
2, 50448, Note_off_c, 8, 68, 127
2, 50455, Note_off_c, 1, 73, 127
2, 50455, Note_off_c, 3, 39, 127
2, 50459, Note_on_c, 0, 36, 127
2, 50459, Note_on_c, 3, 75, 127
2, 50459, Note_on_c, 6, 66, 127
2, 50710, Note_off_c, 6, 66, 127
2, 50713, Note_on_c, 8, 68, 127
2, 50964, Note_off_c, 8, 68, 127
2, 50965, Note_off_c, 0, 36, 127
2, 50968, Note_on_c, 1, 37, 127
2, 50968, Note_on_c, 10, 69, 127
2, 51219, Note_off_c, 10, 69, 127
2, 51222, Note_on_c, 6, 66, 127
2, 51466, Note_off_c, 3, 75, 127
2, 51474, Note_off_c, 1, 37, 127
2, 51476, Note_on_c, 3, 39, 127
2, 51476, Note_on_c, 1, 73, 127
2, 51727, Note_off_c, 1, 73, 127
2, 51731, Note_on_c, 0, 72, 127
2, 51858, Note_off_c, 6, 66, 127
2, 51966, Note_off_c, 0, 72, 127
2, 51977, Note_off_c, 3, 39, 127
2, 51985, Note_on_c, 4, 40, 127
2, 51985, Note_on_c, 1, 73, 127
2, 52236, Note_off_c, 4, 40, 127
2, 52240, Note_on_c, 6, 42, 127
2, 52240, Note_on_c, 3, 75, 127
2, 52491, Note_off_c, 3, 75, 127
2, 52491, Note_off_c, 6, 42, 127
2, 52494, Note_on_c, 8, 44, 127
2, 52494, Note_on_c, 4, 76, 127
2, 52727, Note_off_c, 1, 73, 127
2, 52745, Note_off_c, 4, 76, 127
2, 52745, Note_off_c, 8, 44, 127
2, 52748, Note_on_c, 4, 40, 127
2, 52748, Note_on_c, 1, 73, 127
2, 52999, Note_off_c, 1, 73, 127
2, 52999, Note_off_c, 4, 40, 127
2, 53003, Note_on_c, 6, 42, 127
2, 53003, Note_on_c, 3, 75, 127
2, 53254, Note_off_c, 3, 75, 127
2, 53254, Note_off_c, 6, 42, 127
2, 53257, Note_on_c, 10, 45, 127
2, 53257, Note_on_c, 6, 78, 127
2, 53508, Note_off_c, 6, 78, 127
2, 53508, Note_off_c, 10, 45, 127
2, 53512, Note_on_c, 3, 39, 127
2, 53512, Note_on_c, 10, 81, 127
2, 53512, Note_on_c, 0, 72, 127
2, 53763, Note_off_c, 3, 39, 127
2, 53766, Note_on_c, 4, 40, 127
2, 54017, Note_off_c, 4, 40, 127
2, 54018, Note_off_c, 0, 72, 127
2, 54018, Note_off_c, 10, 81, 127
2, 54020, Note_on_c, 6, 42, 127
2, 54020, Note_on_c, 8, 80, 127
2, 54020, Note_on_c, 1, 73, 127
2, 54271, Note_off_c, 6, 42, 127
2, 54275, Note_on_c, 8, 44, 127
2, 54526, Note_off_c, 8, 44, 127
2, 54526, Note_off_c, 1, 73, 127
2, 54526, Note_off_c, 8, 80, 127
2, 54529, Note_on_c, 11, 46, 127
2, 54529, Note_on_c, 3, 75, 127
2, 54529, Note_on_c, 6, 78, 127
2, 54780, Note_off_c, 11, 46, 127
2, 54784, Note_on_c, 0, 48, 127
2, 55035, Note_off_c, 0, 48, 127
2, 55035, Note_off_c, 6, 78, 127
2, 55038, Note_on_c, 1, 49, 127
2, 55038, Note_on_c, 4, 76, 127
2, 55289, Note_off_c, 1, 49, 127
2, 55292, Note_on_c, 3, 51, 127
2, 55536, Note_off_c, 3, 75, 127
2, 55543, Note_off_c, 3, 51, 127
2, 55547, Note_on_c, 4, 52, 127
2, 55547, Note_on_c, 1, 73, 127
2, 55798, Note_off_c, 4, 52, 127
2, 55801, Note_on_c, 1, 49, 127
2, 56052, Note_off_c, 1, 49, 127
2, 56053, Note_off_c, 1, 73, 127
2, 56056, Note_on_c, 4, 52, 127
2, 56056, Note_on_c, 12, 71, 127
2, 56307, Note_off_c, 4, 52, 127
2, 56310, Note_on_c, 8, 56, 127
2, 56561, Note_off_c, 8, 56, 127
2, 56562, Note_off_c, 12, 71, 127
2, 56564, Note_on_c, 6, 54, 127
2, 56564, Note_on_c, 11, 70, 127
2, 56815, Note_off_c, 6, 54, 127
2, 56819, Note_on_c, 8, 56, 127
2, 57070, Note_off_c, 8, 56, 127
2, 57070, Note_off_c, 4, 76, 127
2, 57073, Note_on_c, 11, 58, 127
2, 57073, Note_on_c, 6, 78, 127
2, 57324, Note_off_c, 11, 58, 127
2, 57328, Note_on_c, 6, 54, 127
2, 57579, Note_off_c, 6, 54, 127
2, 57579, Note_off_c, 6, 78, 127
2, 57582, Note_on_c, 11, 58, 127
2, 57582, Note_on_c, 4, 76, 127
2, 57833, Note_off_c, 11, 58, 127
2, 57836, Note_on_c, 1, 61, 127
2, 58087, Note_off_c, 1, 61, 127
2, 58088, Note_off_c, 4, 76, 127
2, 58091, Note_on_c, 12, 47, 127
2, 58091, Note_on_c, 3, 75, 127
2, 58342, Note_off_c, 12, 47, 127
2, 58345, Note_on_c, 1, 49, 127
2, 58596, Note_off_c, 1, 49, 127
2, 58596, Note_off_c, 11, 70, 127
2, 58600, Note_on_c, 3, 51, 127
2, 58600, Note_on_c, 12, 71, 127
2, 58851, Note_off_c, 3, 51, 127
2, 58854, Note_on_c, 12, 47, 127
2, 59105, Note_off_c, 12, 47, 127
2, 59106, Note_off_c, 12, 71, 127
2, 59108, Note_on_c, 3, 51, 127
2, 59108, Note_on_c, 11, 70, 127
2, 59359, Note_off_c, 3, 51, 127
2, 59363, Note_on_c, 6, 54, 127
2, 59614, Note_off_c, 6, 54, 127
2, 59614, Note_off_c, 11, 70, 127
2, 59617, Note_on_c, 4, 52, 127
2, 59617, Note_on_c, 8, 68, 127
2, 59868, Note_off_c, 4, 52, 127
2, 59872, Note_on_c, 6, 54, 127
2, 60123, Note_off_c, 6, 54, 127
2, 60123, Note_off_c, 3, 75, 127
2, 60126, Note_on_c, 8, 56, 127
2, 60126, Note_on_c, 4, 76, 127
2, 60377, Note_off_c, 8, 56, 127
2, 60380, Note_on_c, 4, 52, 127
2, 60631, Note_off_c, 4, 52, 127
2, 60632, Note_off_c, 4, 76, 127
2, 60635, Note_on_c, 8, 56, 127
2, 60635, Note_on_c, 3, 75, 127
2, 60886, Note_off_c, 8, 56, 127
2, 60889, Note_on_c, 12, 59, 127
2, 61140, Note_off_c, 12, 59, 127
2, 61141, Note_off_c, 3, 75, 127
2, 61144, Note_on_c, 11, 46, 127
2, 61144, Note_on_c, 1, 73, 127
2, 61395, Note_off_c, 11, 46, 127
2, 61398, Note_on_c, 12, 47, 127
2, 61649, Note_off_c, 12, 47, 127
2, 61649, Note_off_c, 8, 68, 127
2, 61652, Note_on_c, 1, 49, 127
2, 61652, Note_on_c, 11, 70, 127
2, 61903, Note_off_c, 1, 49, 127
2, 61907, Note_on_c, 11, 46, 127
2, 62158, Note_off_c, 11, 46, 127
2, 62158, Note_off_c, 11, 70, 127
2, 62161, Note_on_c, 1, 49, 127
2, 62161, Note_on_c, 8, 68, 127
2, 62412, Note_off_c, 1, 49, 127
2, 62416, Note_on_c, 4, 52, 127
2, 62667, Note_off_c, 4, 52, 127
2, 62667, Note_off_c, 8, 68, 127
2, 62670, Note_on_c, 3, 51, 127
2, 62670, Note_on_c, 7, 67, 127
2, 62921, Note_off_c, 3, 51, 127
2, 62924, Note_on_c, 5, 53, 127
2, 63175, Note_off_c, 5, 53, 127
2, 63176, Note_off_c, 1, 73, 127
2, 63179, Note_on_c, 7, 55, 127
2, 63179, Note_on_c, 3, 75, 127
2, 63430, Note_off_c, 7, 55, 127
2, 63433, Note_on_c, 3, 51, 127
2, 63684, Note_off_c, 3, 51, 127
2, 63685, Note_off_c, 3, 75, 127
2, 63688, Note_on_c, 7, 55, 127
2, 63688, Note_on_c, 1, 73, 127
2, 63939, Note_off_c, 7, 55, 127
2, 63942, Note_on_c, 11, 58, 127
2, 64193, Note_off_c, 11, 58, 127
2, 64193, Note_off_c, 7, 67, 127
2, 64194, Note_off_c, 1, 73, 127
2, 64204, Note_on_c, 8, 56, 127
2, 64204, Note_on_c, 8, 68, 127
2, 64204, Note_on_c, 12, 71, 127
2, 64455, Note_off_c, 12, 71, 127
2, 64455, Note_off_c, 8, 56, 127
2, 64459, Note_on_c, 11, 58, 127
2, 64459, Note_on_c, 11, 70, 127
2, 64522, Note_off_c, 8, 68, 127
2, 64710, Note_off_c, 11, 70, 127
2, 64710, Note_off_c, 11, 58, 127
2, 64713, Note_on_c, 12, 59, 127
2, 64713, Note_on_c, 8, 68, 127
2, 64964, Note_off_c, 8, 68, 127
2, 64964, Note_off_c, 12, 59, 127
2, 64968, Note_on_c, 3, 51, 127
2, 64968, Note_on_c, 12, 71, 127
2, 65219, Note_off_c, 12, 71, 127
2, 65219, Note_off_c, 3, 51, 127
2, 65222, Note_on_c, 4, 52, 127
2, 65222, Note_on_c, 1, 73, 127
2, 65473, Note_off_c, 1, 73, 127
2, 65473, Note_off_c, 4, 52, 127
2, 65476, Note_on_c, 8, 56, 127
2, 65476, Note_on_c, 4, 76, 127
2, 65727, Note_off_c, 4, 76, 127
2, 65727, Note_off_c, 8, 56, 127
2, 65731, Note_on_c, 6, 54, 127
2, 65731, Note_on_c, 11, 70, 127
2, 65982, Note_off_c, 11, 70, 127
2, 65982, Note_off_c, 6, 54, 127
2, 65985, Note_on_c, 8, 56, 127
2, 65985, Note_on_c, 8, 68, 127
2, 66236, Note_off_c, 8, 68, 127
2, 66236, Note_off_c, 8, 56, 127
2, 66240, Note_on_c, 11, 58, 127
2, 66240, Note_on_c, 6, 66, 127
2, 66491, Note_off_c, 6, 66, 127
2, 66491, Note_off_c, 11, 58, 127
2, 66494, Note_on_c, 1, 49, 127
2, 66494, Note_on_c, 11, 70, 127
2, 66745, Note_off_c, 11, 70, 127
2, 66745, Note_off_c, 1, 49, 127
2, 66748, Note_on_c, 3, 51, 127
2, 66748, Note_on_c, 12, 71, 127
2, 66999, Note_off_c, 12, 71, 127
2, 66999, Note_off_c, 3, 51, 127
2, 67003, Note_on_c, 6, 54, 127
2, 67003, Note_on_c, 3, 75, 127
2, 67254, Note_off_c, 3, 75, 127
2, 67254, Note_off_c, 6, 54, 127
2, 67257, Note_on_c, 4, 52, 127
2, 67257, Note_on_c, 8, 68, 127
2, 67508, Note_off_c, 8, 68, 127
2, 67508, Note_off_c, 4, 52, 127
2, 67512, Note_on_c, 6, 54, 127
2, 67512, Note_on_c, 3, 75, 127
2, 67763, Note_off_c, 3, 75, 127
2, 67763, Note_off_c, 6, 54, 127
2, 67766, Note_on_c, 8, 56, 127
2, 67766, Note_on_c, 1, 73, 127
2, 68017, Note_off_c, 1, 73, 127
2, 68017, Note_off_c, 8, 56, 127
2, 68020, Note_on_c, 12, 47, 127
2, 68020, Note_on_c, 12, 71, 127
2, 68271, Note_off_c, 12, 71, 127
2, 68271, Note_off_c, 12, 47, 127
2, 68275, Note_on_c, 1, 49, 127
2, 68275, Note_on_c, 11, 70, 127
2, 68526, Note_off_c, 11, 70, 127
2, 68526, Note_off_c, 1, 49, 127
2, 68529, Note_on_c, 4, 52, 127
2, 68529, Note_on_c, 8, 68, 127
2, 68780, Note_off_c, 8, 68, 127
2, 68780, Note_off_c, 4, 52, 127
2, 68784, Note_on_c, 3, 51, 127
2, 68784, Note_on_c, 7, 67, 127
2, 69035, Note_off_c, 3, 51, 127
2, 69038, Note_on_c, 5, 53, 127
2, 69038, Note_on_c, 8, 68, 127
2, 69102, Note_off_c, 7, 67, 127
2, 69289, Note_off_c, 8, 68, 127
2, 69289, Note_off_c, 5, 53, 127
2, 69292, Note_on_c, 7, 55, 127
2, 69292, Note_on_c, 11, 70, 127
2, 69543, Note_off_c, 11, 70, 127
2, 69543, Note_off_c, 7, 55, 127
2, 69547, Note_on_c, 11, 46, 127
2, 69547, Note_on_c, 7, 67, 127
2, 69798, Note_off_c, 7, 67, 127
2, 69798, Note_off_c, 11, 46, 127
2, 69801, Note_on_c, 12, 47, 127
2, 69801, Note_on_c, 8, 68, 127
2, 70052, Note_off_c, 12, 47, 127
2, 70056, Note_on_c, 3, 51, 127
2, 70056, Note_on_c, 12, 71, 127
2, 70307, Note_off_c, 12, 71, 127
2, 70307, Note_off_c, 3, 51, 127
2, 70310, Note_on_c, 1, 49, 127
2, 70310, Note_on_c, 4, 76, 127
2, 70561, Note_off_c, 1, 49, 127
2, 70564, Note_on_c, 3, 51, 127
2, 70808, Note_off_c, 8, 68, 127
2, 70815, Note_off_c, 3, 51, 127
2, 70816, Note_off_c, 4, 76, 127
2, 70819, Note_on_c, 4, 52, 127
2, 70819, Note_on_c, 8, 68, 127
2, 70819, Note_on_c, 4, 76, 127
2, 71070, Note_off_c, 4, 52, 127
2, 71073, Note_on_c, 12, 47, 127
2, 71324, Note_off_c, 12, 47, 127
2, 71325, Note_off_c, 4, 76, 127
2, 71325, Note_off_c, 8, 68, 127
2, 71328, Note_on_c, 1, 49, 127
2, 71328, Note_on_c, 8, 68, 127
2, 71328, Note_on_c, 4, 76, 127
2, 71579, Note_off_c, 1, 49, 127
2, 71582, Note_on_c, 4, 52, 127
2, 71833, Note_off_c, 4, 52, 127
2, 71834, Note_off_c, 4, 76, 127
2, 71834, Note_off_c, 8, 68, 127
2, 71836, Note_on_c, 10, 45, 127
2, 71836, Note_on_c, 4, 76, 127
2, 71836, Note_on_c, 1, 73, 127
2, 72087, Note_off_c, 10, 45, 127
2, 72091, Note_on_c, 1, 49, 127
2, 72342, Note_off_c, 1, 49, 127
2, 72342, Note_off_c, 1, 73, 127
2, 72342, Note_off_c, 4, 76, 127
2, 72345, Note_on_c, 4, 52, 127
2, 72345, Note_on_c, 4, 76, 127
2, 72345, Note_on_c, 1, 73, 127
2, 72596, Note_off_c, 4, 52, 127
2, 72600, Note_on_c, 8, 44, 127
2, 72851, Note_off_c, 8, 44, 127
2, 72851, Note_off_c, 1, 73, 127
2, 72851, Note_off_c, 4, 76, 127
2, 72854, Note_on_c, 1, 49, 127
2, 72854, Note_on_c, 4, 76, 127
2, 72854, Note_on_c, 1, 73, 127
2, 73105, Note_off_c, 1, 49, 127
2, 73108, Note_on_c, 4, 52, 127
2, 73359, Note_off_c, 4, 52, 127
2, 73360, Note_off_c, 1, 73, 127
2, 73360, Note_off_c, 4, 76, 127
2, 73366, Note_on_c, 1, 73, 127
2, 73366, Note_on_c, 7, 43, 127
2, 73366, Note_on_c, 4, 76, 127
2, 73617, Note_off_c, 1, 73, 127
2, 73625, Note_on_c, 12, 71, 127
2, 73876, Note_off_c, 12, 71, 127
2, 73880, Note_on_c, 11, 70, 127
2, 74131, Note_off_c, 11, 70, 127
2, 74134, Note_on_c, 1, 73, 127
2, 74385, Note_off_c, 1, 73, 127
2, 74388, Note_on_c, 12, 71, 127
2, 74639, Note_off_c, 12, 71, 127
2, 74643, Note_on_c, 8, 68, 127
2, 74894, Note_off_c, 8, 68, 127
2, 74897, Note_on_c, 11, 70, 127
2, 75141, Note_off_c, 4, 76, 127
2, 75152, Note_on_c, 3, 75, 127
2, 75403, Note_off_c, 3, 75, 127
2, 75406, Note_on_c, 1, 73, 127
2, 75652, Note_off_c, 7, 43, 127
2, 75657, Note_off_c, 1, 73, 127
2, 75660, Note_on_c, 7, 55, 127
2, 75660, Note_on_c, 11, 82, 127
2, 75911, Note_off_c, 11, 82, 127
2, 75911, Note_off_c, 7, 55, 127
2, 75915, Note_on_c, 8, 56, 127
2, 75915, Note_on_c, 4, 76, 127
2, 76166, Note_off_c, 4, 76, 127
2, 76166, Note_off_c, 8, 56, 127
2, 76169, Note_on_c, 11, 58, 127
2, 76169, Note_on_c, 1, 73, 127
2, 76420, Note_off_c, 1, 73, 127
2, 76420, Note_off_c, 11, 58, 127
2, 76424, Note_on_c, 12, 47, 127
2, 76424, Note_on_c, 3, 75, 127
2, 76675, Note_off_c, 3, 75, 127
2, 76678, Note_on_c, 1, 73, 127
2, 76929, Note_off_c, 1, 73, 127
2, 76929, Note_off_c, 11, 70, 127
2, 76932, Note_on_c, 12, 71, 127
2, 76932, Note_on_c, 8, 68, 127
2, 77183, Note_off_c, 12, 71, 127
2, 77187, Note_on_c, 3, 75, 127
2, 77438, Note_off_c, 3, 75, 127
2, 77438, Note_off_c, 12, 47, 127
2, 77441, Note_on_c, 4, 52, 127
2, 77441, Note_on_c, 1, 73, 127
2, 77692, Note_off_c, 1, 73, 127
2, 77696, Note_on_c, 11, 70, 127
2, 77947, Note_off_c, 11, 70, 127
2, 77947, Note_off_c, 4, 52, 127
2, 77950, Note_on_c, 1, 49, 127
2, 77950, Note_on_c, 12, 71, 127
2, 78201, Note_off_c, 12, 71, 127
2, 78204, Note_off_c, 8, 68, 127
2, 78204, Note_on_c, 11, 70, 127
2, 78455, Note_off_c, 11, 70, 127
2, 78456, Note_off_c, 1, 49, 127
2, 78459, Note_on_c, 3, 51, 127
2, 78459, Note_on_c, 8, 68, 127
2, 78713, Note_on_c, 12, 71, 127
2, 78962, Note_off_c, 8, 68, 127
2, 78964, Note_off_c, 12, 71, 127
2, 78968, Note_on_c, 3, 39, 127
2, 78968, Note_on_c, 11, 70, 127
2, 79222, Note_on_c, 7, 67, 127
2, 79466, Note_off_c, 3, 51, 127
2, 79471, Note_off_c, 11, 70, 127
2, 79473, Note_off_c, 7, 67, 127
2, 79474, Note_off_c, 3, 39, 127
2, 79476, Note_on_c, 8, 44, 127
2, 79476, Note_on_c, 8, 68, 127
2, 79731, Note_on_c, 11, 46, 127
2, 79982, Note_off_c, 11, 46, 127
2, 79985, Note_on_c, 0, 48, 127
2, 79985, Note_on_c, 6, 66, 127
2, 80228, Note_off_c, 8, 44, 127
2, 80236, Note_off_c, 0, 48, 127
2, 80240, Note_on_c, 8, 44, 127
2, 80491, Note_off_c, 6, 66, 127
2, 80494, Note_on_c, 0, 48, 127
2, 80494, Note_on_c, 3, 63, 127
2, 80745, Note_off_c, 0, 48, 127
2, 80748, Note_on_c, 3, 51, 127
2, 80999, Note_off_c, 3, 51, 127
2, 81000, Note_off_c, 3, 63, 127
2, 81003, Note_on_c, 6, 54, 127
2, 81003, Note_on_c, 1, 61, 127
2, 81254, Note_off_c, 1, 61, 127
2, 81257, Note_on_c, 0, 60, 127
2, 81508, Note_off_c, 0, 60, 127
2, 81509, Note_off_c, 6, 54, 127
2, 81512, Note_on_c, 4, 52, 127
2, 81512, Note_on_c, 1, 61, 127
2, 81763, Note_off_c, 1, 61, 127
2, 81766, Note_on_c, 3, 63, 127
2, 82017, Note_off_c, 3, 63, 127
2, 82018, Note_off_c, 4, 52, 127
2, 82020, Note_on_c, 3, 51, 127
2, 82020, Note_on_c, 4, 64, 127
2, 82271, Note_off_c, 4, 64, 127
2, 82275, Note_on_c, 6, 66, 127
2, 82523, Note_off_c, 8, 68, 127
2, 82545, Note_on_c, 1, 49, 127
2, 82545, Note_on_c, 4, 64, 127
2, 82545, Note_on_c, 8, 68, 127
2, 82546, Note_off_c, 6, 66, 127
2, 82546, Note_off_c, 3, 51, 127
2, 82803, Note_off_c, 4, 64, 127
2, 82807, Note_on_c, 3, 63, 127
2, 83065, Note_off_c, 3, 63, 127
2, 83069, Note_on_c, 1, 61, 127
2, 83327, Note_off_c, 1, 61, 127
2, 83331, Note_on_c, 4, 64, 127
2, 83589, Note_off_c, 4, 64, 127
2, 83593, Note_on_c, 1, 61, 127
2, 83851, Note_off_c, 1, 61, 127
2, 83855, Note_on_c, 11, 58, 127
2, 84113, Note_off_c, 11, 58, 127
2, 84117, Note_on_c, 7, 55, 127
2, 84240, Note_off_c, 8, 44, 127
2, 84405, Note_on_c, 4, 64, 127
2, 84673, Note_off_c, 4, 64, 127
2, 84676, Note_off_c, 7, 55, 127
2, 84677, Note_on_c, 8, 56, 127
2, 84677, Note_on_c, 3, 63, 127
2, 84945, Note_off_c, 3, 63, 127
2, 84950, Note_on_c, 1, 61, 127
2, 85218, Note_off_c, 1, 61, 127
2, 85218, Note_off_c, 8, 56, 127
2, 85223, Note_on_c, 11, 58, 127
2, 85223, Note_on_c, 0, 60, 127
2, 85528, Note_on_c, 1, 61, 127
2, 85543, Note_off_c, 0, 60, 127
2, 85783, Note_off_c, 11, 58, 127
2, 85825, Note_off_c, 1, 49, 127
2, 85832, Note_on_c, 8, 44, 127
2, 85832, Note_on_c, 0, 60, 127
2, 85838, Note_off_c, 1, 61, 127
2, 86030, Note_on_c, 3, 63, 127
2, 86213, Note_off_c, 8, 68, 127
2, 86230, Note_on_c, 8, 68, 127
2, 89075, Note_off_c, 8, 68, 127
2, 89095, Note_off_c, 0, 60, 127
2, 89095, Note_off_c, 8, 44, 127
2, 89100, Note_off_c, 3, 63, 127
2, 90001, Note_on_c, 8, 56, 127
2, 90761, Note_off_c, 8, 56, 127
2, 90764, Note_on_c, 7, 55, 127
2, 91142, Note_off_c, 7, 55, 127
2, 91146, Note_on_c, 8, 56, 127
2, 91334, Note_off_c, 8, 56, 127
2, 91337, Note_on_c, 11, 58, 127
2, 91525, Note_off_c, 11, 58, 127
2, 91528, Note_on_c, 12, 59, 127
2, 91906, Note_off_c, 12, 59, 127
2, 91909, Note_on_c, 11, 58, 127
2, 92287, Note_off_c, 11, 58, 127
2, 92291, Note_on_c, 8, 56, 127
2, 92669, Note_off_c, 8, 56, 127
2, 92672, Note_on_c, 2, 62, 127
2, 93029, Note_off_c, 2, 62, 127
2, 93054, Note_on_c, 3, 63, 127
2, 93432, Note_off_c, 3, 63, 127
2, 93436, Note_on_c, 6, 54, 127
2, 93793, Note_off_c, 6, 54, 127
2, 93817, Note_on_c, 8, 56, 127
2, 94195, Note_off_c, 8, 56, 127
2, 94199, Note_on_c, 8, 56, 127
2, 94577, Note_off_c, 8, 56, 127
2, 94580, Note_on_c, 11, 58, 127
2, 94958, Note_off_c, 11, 58, 127
2, 94962, Note_on_c, 11, 58, 127
2, 95330, Note_off_c, 11, 58, 127
2, 95344, Note_on_c, 3, 51, 127
2, 95722, Note_off_c, 3, 51, 127
2, 95725, Note_on_c, 5, 53, 127
2, 96103, Note_off_c, 5, 53, 127
2, 96107, Note_on_c, 3, 63, 127
2, 96107, Note_on_c, 6, 54, 127
2, 96867, Note_off_c, 3, 63, 127
2, 96870, Note_on_c, 0, 60, 127
2, 97248, Note_off_c, 0, 60, 127
2, 97249, Note_off_c, 6, 54, 127
2, 97252, Note_on_c, 1, 61, 127
2, 97252, Note_on_c, 4, 52, 127
2, 97440, Note_off_c, 4, 52, 127
2, 97440, Note_off_c, 1, 61, 127
2, 97442, Note_on_c, 3, 63, 127
2, 97442, Note_on_c, 6, 54, 127
2, 97630, Note_off_c, 6, 54, 127
2, 97630, Note_off_c, 3, 63, 127
2, 97633, Note_on_c, 4, 64, 127
2, 97633, Note_on_c, 8, 56, 127
2, 98011, Note_off_c, 8, 56, 127
2, 98011, Note_off_c, 4, 64, 127
2, 98015, Note_on_c, 3, 63, 127
2, 98015, Note_on_c, 7, 55, 127
2, 98203, Note_off_c, 7, 55, 127
2, 98206, Note_on_c, 8, 56, 127
2, 98393, Note_off_c, 3, 63, 127
2, 98394, Note_off_c, 8, 56, 127
2, 98396, Note_on_c, 1, 61, 127
2, 98396, Note_on_c, 11, 58, 127
2, 98774, Note_off_c, 11, 58, 127
2, 98774, Note_off_c, 1, 61, 127
2, 98778, Note_on_c, 7, 67, 127
2, 98778, Note_on_c, 8, 56, 127
2, 98966, Note_off_c, 8, 56, 127
2, 98969, Note_on_c, 11, 58, 127
2, 99135, Note_off_c, 7, 67, 127
2, 99157, Note_off_c, 11, 58, 127
2, 99160, Note_on_c, 8, 68, 127
2, 99160, Note_on_c, 12, 59, 127
2, 99538, Note_off_c, 12, 59, 127
2, 99538, Note_off_c, 8, 68, 127
2, 99541, Note_on_c, 12, 59, 127
2, 99541, Note_on_c, 8, 56, 127
2, 99898, Note_off_c, 12, 59, 127
2, 99919, Note_off_c, 8, 56, 127
2, 99923, Note_on_c, 1, 61, 127
2, 99923, Note_on_c, 11, 58, 127
2, 100301, Note_off_c, 1, 61, 127
2, 100304, Note_on_c, 1, 61, 127
2, 100682, Note_off_c, 1, 61, 127
2, 100683, Note_off_c, 11, 58, 127
2, 100686, Note_on_c, 3, 63, 127
2, 100686, Note_on_c, 7, 55, 127
2, 101064, Note_off_c, 3, 63, 127
2, 101068, Note_on_c, 3, 63, 127
2, 101441, Note_off_c, 7, 55, 127
2, 101446, Note_off_c, 3, 63, 127
2, 101449, Note_on_c, 8, 56, 127
2, 101831, Note_on_c, 6, 54, 127
2, 102209, Note_off_c, 6, 54, 127
2, 102212, Note_on_c, 8, 68, 127
2, 102212, Note_on_c, 1, 61, 127
2, 102212, Note_on_c, 4, 52, 127
2, 102940, Note_off_c, 8, 56, 127
2, 102975, Note_off_c, 4, 52, 127
2, 102975, Note_off_c, 8, 68, 127
2, 102978, Note_on_c, 7, 67, 127
2, 102978, Note_on_c, 3, 51, 127
2, 103356, Note_off_c, 3, 51, 127
2, 103356, Note_off_c, 7, 67, 127
2, 103356, Note_off_c, 1, 61, 127
2, 103360, Note_on_c, 8, 68, 127
2, 103360, Note_on_c, 12, 59, 127
2, 103360, Note_on_c, 8, 56, 127
2, 103548, Note_off_c, 12, 59, 127
2, 103548, Note_off_c, 8, 68, 127
2, 103551, Note_on_c, 11, 70, 127
2, 103551, Note_on_c, 1, 61, 127
2, 103739, Note_off_c, 1, 61, 127
2, 103739, Note_off_c, 11, 70, 127
2, 103742, Note_on_c, 12, 71, 127
2, 103742, Note_on_c, 3, 63, 127
2, 104120, Note_off_c, 3, 63, 127
2, 104120, Note_off_c, 12, 71, 127
2, 104120, Note_off_c, 8, 56, 127
2, 104123, Note_on_c, 11, 70, 127
2, 104123, Note_on_c, 2, 62, 127
2, 104123, Note_on_c, 11, 58, 127
2, 104311, Note_off_c, 2, 62, 127
2, 104314, Note_on_c, 3, 63, 127
2, 104501, Note_off_c, 11, 58, 127
2, 104501, Note_off_c, 11, 70, 127
2, 104502, Note_off_c, 3, 63, 127
2, 104505, Note_on_c, 8, 68, 127
2, 104505, Note_on_c, 5, 65, 127
2, 104505, Note_on_c, 12, 59, 127
2, 104883, Note_off_c, 5, 65, 127
2, 104883, Note_off_c, 8, 68, 127
2, 104886, Note_on_c, 2, 74, 127
2, 104886, Note_on_c, 3, 63, 127
2, 105074, Note_off_c, 3, 63, 127
2, 105077, Note_on_c, 5, 65, 127
2, 105185, Note_off_c, 2, 74, 127
2, 105267, Note_off_c, 5, 65, 127
2, 105268, Note_off_c, 12, 59, 127
2, 105271, Note_on_c, 3, 75, 127
2, 105271, Note_on_c, 6, 66, 127
2, 105271, Note_on_c, 11, 58, 127
2, 105649, Note_off_c, 6, 66, 127
2, 105649, Note_off_c, 3, 75, 127
2, 105652, Note_on_c, 6, 66, 127
2, 105652, Note_on_c, 3, 63, 127
2, 105930, Note_off_c, 6, 66, 127
2, 106030, Note_off_c, 3, 63, 127
2, 106031, Note_off_c, 11, 58, 127
2, 106034, Note_on_c, 8, 68, 127
2, 106034, Note_on_c, 5, 65, 127
2, 106034, Note_on_c, 8, 56, 127
2, 106412, Note_off_c, 8, 68, 127
2, 106415, Note_on_c, 8, 68, 127
2, 106793, Note_off_c, 8, 68, 127
2, 106794, Note_off_c, 5, 65, 127
2, 106797, Note_on_c, 11, 70, 127
2, 106797, Note_on_c, 2, 62, 127
2, 107175, Note_off_c, 11, 70, 127
2, 107179, Note_on_c, 11, 70, 127
2, 107552, Note_off_c, 2, 62, 127
2, 107557, Note_off_c, 11, 70, 127
2, 107560, Note_on_c, 3, 63, 127
2, 107939, Note_off_c, 8, 56, 127
2, 107942, Note_on_c, 5, 65, 127
2, 107942, Note_on_c, 6, 54, 127
2, 108130, Note_off_c, 6, 54, 127
2, 108133, Note_on_c, 8, 56, 127
2, 108315, Note_off_c, 3, 63, 127
2, 108320, Note_off_c, 5, 65, 127
2, 108321, Note_off_c, 8, 56, 127
2, 108323, Note_on_c, 6, 66, 127
2, 108323, Note_on_c, 11, 58, 127
2, 108323, Note_on_c, 3, 51, 127
2, 108701, Note_off_c, 11, 58, 127
2, 108705, Note_on_c, 11, 58, 127
2, 108705, Note_on_c, 6, 54, 127
2, 109083, Note_off_c, 6, 54, 127
2, 109083, Note_off_c, 11, 58, 127
2, 109083, Note_off_c, 3, 51, 127
2, 109087, Note_on_c, 8, 56, 127
2, 109087, Note_on_c, 3, 51, 127
2, 109087, Note_on_c, 0, 48, 127
2, 109465, Note_off_c, 0, 48, 127
2, 109465, Note_off_c, 3, 51, 127
2, 109465, Note_off_c, 6, 66, 127
2, 109468, Note_on_c, 4, 64, 127
2, 109468, Note_on_c, 4, 52, 127
2, 109468, Note_on_c, 1, 49, 127
2, 109656, Note_off_c, 1, 49, 127
2, 109656, Note_off_c, 4, 64, 127
2, 109659, Note_on_c, 6, 66, 127
2, 109659, Note_on_c, 3, 51, 127
2, 109842, Note_off_c, 8, 56, 127
2, 109846, Note_off_c, 4, 52, 127
2, 109849, Note_off_c, 3, 51, 127
2, 109849, Note_off_c, 6, 66, 127
2, 109852, Note_on_c, 8, 68, 127
2, 109852, Note_on_c, 4, 52, 127
2, 110230, Note_off_c, 4, 52, 127
2, 110230, Note_off_c, 8, 68, 127
2, 110234, Note_on_c, 7, 67, 127
2, 110234, Note_on_c, 3, 63, 127
2, 110234, Note_on_c, 12, 59, 127
2, 110234, Note_on_c, 3, 51, 127
2, 110422, Note_off_c, 7, 67, 127
2, 110425, Note_on_c, 8, 68, 127
2, 110612, Note_off_c, 3, 51, 127
2, 110612, Note_off_c, 12, 59, 127
2, 110612, Note_off_c, 3, 63, 127
2, 110613, Note_off_c, 8, 68, 127
2, 110616, Note_on_c, 11, 70, 127
2, 110616, Note_on_c, 4, 64, 127
2, 110616, Note_on_c, 1, 61, 127
2, 110616, Note_on_c, 1, 49, 127
2, 110984, Note_off_c, 1, 49, 127
2, 110997, Note_off_c, 4, 64, 127
2, 110997, Note_off_c, 11, 70, 127
2, 111000, Note_on_c, 8, 68, 127
2, 111000, Note_on_c, 3, 63, 127
2, 111000, Note_on_c, 7, 55, 127
2, 111188, Note_off_c, 8, 68, 127
2, 111191, Note_on_c, 11, 70, 127
2, 111368, Note_off_c, 7, 55, 127
2, 111373, Note_off_c, 1, 61, 127
2, 111379, Note_off_c, 11, 70, 127
2, 111381, Note_on_c, 12, 71, 127
2, 111381, Note_on_c, 8, 56, 127
2, 111759, Note_off_c, 12, 71, 127
2, 111760, Note_off_c, 3, 63, 127
2, 111763, Note_on_c, 8, 68, 127
2, 111763, Note_on_c, 3, 63, 127
2, 111763, Note_on_c, 12, 47, 127
2, 112131, Note_off_c, 12, 47, 127
2, 112136, Note_off_c, 8, 56, 127
2, 112141, Note_off_c, 3, 63, 127
2, 112141, Note_off_c, 8, 68, 127
2, 112145, Note_on_c, 11, 70, 127
2, 112145, Note_on_c, 4, 64, 127
2, 112145, Note_on_c, 1, 61, 127
2, 112145, Note_on_c, 1, 49, 127
2, 112523, Note_off_c, 1, 49, 127
2, 112526, Note_on_c, 1, 49, 127
2, 112904, Note_off_c, 1, 49, 127
2, 112905, Note_off_c, 1, 61, 127
2, 112905, Note_off_c, 4, 64, 127
2, 112905, Note_off_c, 11, 70, 127
2, 112908, Note_on_c, 7, 67, 127
2, 112908, Note_on_c, 3, 63, 127
2, 112908, Note_on_c, 11, 58, 127
2, 112908, Note_on_c, 3, 51, 127
2, 113286, Note_off_c, 3, 51, 127
2, 113289, Note_on_c, 3, 51, 127
2, 113667, Note_off_c, 3, 51, 127
2, 113668, Note_off_c, 11, 58, 127
2, 113668, Note_off_c, 3, 63, 127
2, 113668, Note_off_c, 7, 67, 127
2, 113671, Note_on_c, 8, 68, 127
2, 113671, Note_on_c, 3, 63, 127
2, 113671, Note_on_c, 12, 59, 127
2, 113671, Note_on_c, 8, 44, 127
2, 114049, Note_off_c, 8, 68, 127
2, 114053, Note_on_c, 11, 70, 127
2, 114431, Note_off_c, 11, 70, 127
2, 114434, Note_on_c, 12, 71, 127
2, 114625, Note_off_c, 8, 44, 127
2, 114813, Note_off_c, 12, 59, 127
2, 114813, Note_off_c, 3, 63, 127
2, 114816, Note_on_c, 6, 66, 127
2, 114816, Note_on_c, 12, 59, 127
2, 114816, Note_on_c, 3, 51, 127
2, 115194, Note_off_c, 3, 51, 127
2, 115194, Note_off_c, 12, 59, 127
2, 115194, Note_off_c, 6, 66, 127
2, 115194, Note_off_c, 12, 71, 127
2, 115197, Note_on_c, 1, 73, 127
2, 115197, Note_on_c, 8, 68, 127
2, 115197, Note_on_c, 4, 64, 127
2, 115197, Note_on_c, 4, 52, 127
2, 115575, Note_off_c, 4, 52, 127
2, 115579, Note_on_c, 4, 52, 127
2, 115957, Note_off_c, 4, 52, 127
2, 115957, Note_off_c, 4, 64, 127
2, 115957, Note_off_c, 8, 68, 127
2, 115957, Note_off_c, 1, 73, 127
2, 115961, Note_on_c, 11, 70, 127
2, 115961, Note_on_c, 6, 66, 127
2, 115961, Note_on_c, 1, 61, 127
2, 115961, Note_on_c, 6, 54, 127
2, 116339, Note_off_c, 6, 54, 127
2, 116342, Note_on_c, 6, 54, 127
2, 116720, Note_off_c, 6, 54, 127
2, 116721, Note_off_c, 1, 61, 127
2, 116721, Note_off_c, 6, 66, 127
2, 116721, Note_off_c, 11, 70, 127
2, 116724, Note_on_c, 12, 71, 127
2, 116724, Note_on_c, 6, 66, 127
2, 116724, Note_on_c, 3, 63, 127
2, 116724, Note_on_c, 12, 47, 127
2, 117102, Note_off_c, 12, 71, 127
2, 117105, Note_on_c, 3, 75, 127
2, 117293, Note_off_c, 3, 75, 127
2, 117296, Note_on_c, 2, 74, 127
2, 117484, Note_off_c, 2, 74, 127
2, 117487, Note_on_c, 3, 75, 127
2, 117678, Note_off_c, 12, 47, 127
2, 117866, Note_off_c, 3, 63, 127
2, 117866, Note_off_c, 6, 66, 127
2, 117869, Note_on_c, 11, 70, 127
2, 117869, Note_on_c, 3, 63, 127
2, 117869, Note_on_c, 6, 54, 127
2, 118247, Note_off_c, 6, 54, 127
2, 118247, Note_off_c, 3, 63, 127
2, 118247, Note_off_c, 11, 70, 127
2, 118247, Note_off_c, 3, 75, 127
2, 118250, Note_on_c, 5, 77, 127
2, 118250, Note_on_c, 12, 71, 127
2, 118250, Note_on_c, 8, 68, 127
2, 118250, Note_on_c, 8, 56, 127
2, 118628, Note_off_c, 8, 56, 127
2, 118632, Note_on_c, 8, 56, 127
2, 119010, Note_off_c, 8, 56, 127
2, 119010, Note_off_c, 8, 68, 127
2, 119010, Note_off_c, 12, 71, 127
2, 119010, Note_off_c, 5, 77, 127
2, 119013, Note_on_c, 2, 74, 127
2, 119013, Note_on_c, 11, 70, 127
2, 119013, Note_on_c, 5, 65, 127
2, 119013, Note_on_c, 11, 58, 127
2, 119391, Note_off_c, 11, 58, 127
2, 119395, Note_on_c, 11, 58, 127
2, 119773, Note_off_c, 11, 58, 127
2, 119773, Note_off_c, 5, 65, 127
2, 119773, Note_off_c, 11, 70, 127
2, 119773, Note_off_c, 2, 74, 127
2, 119777, Note_on_c, 3, 75, 127
2, 119777, Note_on_c, 6, 66, 127
2, 119777, Note_on_c, 3, 63, 127
2, 119777, Note_on_c, 3, 51, 127
2, 120155, Note_off_c, 6, 66, 127
2, 120155, Note_off_c, 3, 75, 127
2, 120158, Note_on_c, 5, 77, 127
2, 120158, Note_on_c, 8, 68, 127
2, 120532, Note_off_c, 3, 51, 127
2, 120536, Note_off_c, 8, 68, 127
2, 120536, Note_off_c, 5, 77, 127
2, 120537, Note_off_c, 3, 63, 127
2, 120540, Note_on_c, 6, 78, 127
2, 120540, Note_on_c, 11, 70, 127
2, 120540, Note_on_c, 3, 63, 127
2, 120918, Note_off_c, 11, 70, 127
2, 120921, Note_on_c, 12, 71, 127
2, 121109, Note_off_c, 12, 71, 127
2, 121112, Note_on_c, 11, 70, 127
2, 121300, Note_off_c, 11, 70, 127
2, 121300, Note_off_c, 3, 63, 127
2, 121303, Note_on_c, 8, 68, 127
2, 121303, Note_on_c, 0, 60, 127
2, 121681, Note_off_c, 0, 60, 127
2, 121681, Note_off_c, 8, 68, 127
2, 121682, Note_off_c, 6, 78, 127
2, 121685, Note_on_c, 4, 76, 127
2, 121685, Note_on_c, 1, 73, 127
2, 121685, Note_on_c, 1, 61, 127
2, 121873, Note_off_c, 1, 61, 127
2, 121873, Note_off_c, 4, 76, 127
2, 121875, Note_on_c, 6, 78, 127
2, 121875, Note_on_c, 3, 63, 127
2, 122063, Note_off_c, 3, 63, 127
2, 122063, Note_off_c, 6, 78, 127
2, 122066, Note_on_c, 8, 80, 127
2, 122066, Note_on_c, 4, 64, 127
2, 122444, Note_off_c, 4, 64, 127
2, 122444, Note_off_c, 8, 80, 127
2, 122445, Note_off_c, 1, 73, 127
2, 122448, Note_on_c, 7, 79, 127
2, 122448, Note_on_c, 3, 75, 127
2, 122448, Note_on_c, 3, 63, 127
2, 122636, Note_off_c, 7, 79, 127
2, 122639, Note_on_c, 8, 80, 127
2, 122826, Note_off_c, 3, 63, 127
2, 122826, Note_off_c, 3, 75, 127
2, 122827, Note_off_c, 8, 80, 127
2, 122829, Note_on_c, 11, 82, 127
2, 122829, Note_on_c, 4, 76, 127
2, 122829, Note_on_c, 1, 61, 127
2, 123207, Note_off_c, 1, 61, 127
2, 123207, Note_off_c, 11, 82, 127
2, 123211, Note_on_c, 8, 80, 127
2, 123211, Note_on_c, 7, 67, 127
2, 123399, Note_off_c, 8, 80, 127
2, 123402, Note_on_c, 11, 82, 127
2, 123568, Note_off_c, 7, 67, 127
2, 123589, Note_off_c, 4, 76, 127
2, 123590, Note_off_c, 11, 82, 127
2, 123593, Note_on_c, 12, 83, 127
2, 123593, Note_on_c, 3, 75, 127
2, 123593, Note_on_c, 8, 68, 127
2, 123971, Note_off_c, 8, 68, 127
2, 123971, Note_off_c, 12, 83, 127
2, 123974, Note_on_c, 8, 80, 127
2, 123974, Note_on_c, 12, 59, 127
2, 124331, Note_off_c, 12, 59, 127
2, 124352, Note_off_c, 8, 80, 127
2, 124353, Note_off_c, 3, 75, 127
2, 124356, Note_on_c, 11, 82, 127
2, 124356, Note_on_c, 1, 73, 127
2, 124356, Note_on_c, 1, 61, 127
2, 124734, Note_off_c, 1, 61, 127
2, 124737, Note_on_c, 1, 61, 127
2, 125115, Note_off_c, 1, 61, 127
2, 125116, Note_off_c, 11, 82, 127
2, 125119, Note_on_c, 8, 80, 127
2, 125119, Note_on_c, 3, 63, 127
2, 125209, Note_on_c, 7, 79, 127
2, 125221, Note_off_c, 8, 80, 127
2, 125299, Note_on_c, 8, 80, 127
2, 125311, Note_off_c, 7, 79, 127
2, 125389, Note_on_c, 7, 79, 127
2, 125401, Note_off_c, 8, 80, 127
2, 125497, Note_off_c, 3, 63, 127
2, 125501, Note_on_c, 3, 63, 127
2, 125865, Note_off_c, 7, 79, 127
2, 125879, Note_off_c, 3, 63, 127
2, 125882, Note_on_c, 8, 80, 127
2, 125882, Note_on_c, 8, 56, 127
2, 126260, Note_off_c, 8, 80, 127
2, 126264, Note_on_c, 6, 78, 127
2, 126452, Note_off_c, 6, 78, 127
2, 126455, Note_on_c, 4, 76, 127
2, 126642, Note_off_c, 1, 73, 127
2, 126643, Note_off_c, 4, 76, 127
2, 126645, Note_on_c, 3, 75, 127
2, 126645, Note_on_c, 12, 71, 127
2, 126955, Note_off_c, 8, 56, 127
2, 127023, Note_off_c, 3, 75, 127
2, 127027, Note_on_c, 4, 76, 127
2, 127027, Note_on_c, 8, 56, 127
2, 127405, Note_off_c, 8, 56, 127
2, 127405, Note_off_c, 4, 76, 127
2, 127405, Note_off_c, 12, 71, 127
2, 127409, Note_on_c, 6, 78, 127
2, 127409, Note_on_c, 10, 69, 127
2, 127409, Note_on_c, 10, 57, 127
2, 127787, Note_off_c, 10, 57, 127
2, 127790, Note_on_c, 10, 57, 127
2, 128168, Note_off_c, 10, 57, 127
2, 128169, Note_off_c, 6, 78, 127
2, 128172, Note_on_c, 4, 76, 127
2, 128172, Note_on_c, 12, 59, 127
2, 128252, Note_on_c, 3, 75, 127
2, 128272, Note_off_c, 4, 76, 127
2, 128332, Note_on_c, 4, 76, 127
2, 128352, Note_off_c, 3, 75, 127
2, 128412, Note_on_c, 3, 75, 127
2, 128432, Note_off_c, 4, 76, 127
2, 128550, Note_off_c, 12, 59, 127
2, 128553, Note_on_c, 12, 59, 127
2, 128902, Note_off_c, 3, 75, 127
2, 128931, Note_off_c, 12, 59, 127
2, 128935, Note_on_c, 4, 76, 127
2, 128935, Note_on_c, 4, 52, 127
2, 129313, Note_off_c, 4, 76, 127
2, 129317, Note_on_c, 3, 75, 127
2, 129505, Note_off_c, 3, 75, 127
2, 129507, Note_on_c, 1, 73, 127
2, 129695, Note_off_c, 1, 73, 127
2, 129695, Note_off_c, 10, 69, 127
2, 129698, Note_on_c, 0, 72, 127
2, 129698, Note_on_c, 8, 68, 127
2, 130048, Note_off_c, 4, 52, 127
2, 130076, Note_off_c, 0, 72, 127
2, 130080, Note_on_c, 1, 73, 127
2, 130080, Note_on_c, 4, 52, 127
2, 130458, Note_off_c, 4, 52, 127
2, 130458, Note_off_c, 1, 73, 127
2, 130458, Note_off_c, 8, 68, 127
2, 130461, Note_on_c, 3, 75, 127
2, 130461, Note_on_c, 6, 66, 127
2, 130461, Note_on_c, 6, 54, 127
2, 130839, Note_off_c, 6, 54, 127
2, 130843, Note_on_c, 6, 54, 127
2, 131221, Note_off_c, 6, 54, 127
2, 131221, Note_off_c, 3, 75, 127
2, 131225, Note_on_c, 1, 73, 127
2, 131225, Note_on_c, 8, 56, 127
2, 131325, Note_off_c, 1, 73, 127
2, 131325, Note_on_c, 0, 72, 127
2, 131425, Note_off_c, 0, 72, 127
2, 131425, Note_on_c, 11, 70, 127
2, 131525, Note_on_c, 0, 72, 127
2, 131603, Note_off_c, 8, 56, 127
2, 131606, Note_on_c, 8, 56, 127
2, 131615, Note_off_c, 11, 70, 127
2, 131984, Note_off_c, 8, 56, 127
2, 131988, Note_on_c, 1, 73, 127
2, 131988, Note_on_c, 1, 49, 127
2, 131992, Note_off_c, 0, 72, 127
2, 132366, Note_off_c, 1, 49, 127
2, 132366, Note_off_c, 6, 66, 127
2, 132369, Note_on_c, 4, 64, 127
2, 132369, Note_on_c, 3, 51, 127
2, 132557, Note_off_c, 4, 64, 127
2, 132560, Note_on_c, 6, 66, 127
2, 132747, Note_off_c, 3, 51, 127
2, 132748, Note_off_c, 6, 66, 127
2, 132748, Note_off_c, 1, 73, 127
2, 132751, Note_on_c, 8, 68, 127
2, 132751, Note_on_c, 4, 52, 127
2, 132751, Note_on_c, 1, 49, 127
2, 133129, Note_off_c, 4, 52, 127
2, 133129, Note_off_c, 8, 68, 127
2, 133133, Note_on_c, 6, 66, 127
2, 133133, Note_on_c, 6, 54, 127
2, 133321, Note_off_c, 6, 66, 127
2, 133323, Note_on_c, 4, 64, 127
2, 133511, Note_off_c, 4, 64, 127
2, 133511, Note_off_c, 6, 54, 127
2, 133511, Note_off_c, 1, 49, 127
2, 133514, Note_on_c, 3, 63, 127
2, 133514, Note_on_c, 8, 56, 127
2, 133514, Note_on_c, 0, 48, 127
2, 133892, Note_off_c, 0, 48, 127
2, 133892, Note_off_c, 3, 63, 127
2, 133896, Note_on_c, 1, 73, 127
2, 133896, Note_on_c, 4, 64, 127
2, 133896, Note_on_c, 1, 49, 127
2, 134084, Note_off_c, 1, 49, 127
2, 134084, Note_off_c, 4, 64, 127
2, 134087, Note_on_c, 6, 66, 127
2, 134087, Note_on_c, 3, 51, 127
2, 134275, Note_off_c, 3, 51, 127
2, 134275, Note_off_c, 6, 66, 127
2, 134277, Note_on_c, 8, 68, 127
2, 134277, Note_on_c, 4, 52, 127
2, 134655, Note_off_c, 4, 52, 127
2, 134655, Note_off_c, 8, 68, 127
2, 134656, Note_off_c, 1, 73, 127
2, 134656, Note_off_c, 8, 56, 127
2, 134659, Note_on_c, 3, 75, 127
2, 134659, Note_on_c, 7, 67, 127
2, 134659, Note_on_c, 12, 59, 127
2, 134659, Note_on_c, 3, 51, 127
2, 134847, Note_off_c, 7, 67, 127
2, 134850, Note_on_c, 8, 68, 127
2, 135037, Note_off_c, 3, 51, 127
2, 135037, Note_off_c, 12, 59, 127
2, 135037, Note_off_c, 3, 75, 127
2, 135038, Note_off_c, 8, 68, 127
2, 135041, Note_on_c, 4, 76, 127
2, 135041, Note_on_c, 11, 70, 127
2, 135041, Note_on_c, 1, 61, 127
2, 135041, Note_on_c, 1, 49, 127
2, 135419, Note_off_c, 1, 49, 127
2, 135419, Note_off_c, 11, 70, 127
2, 135422, Note_on_c, 8, 68, 127
2, 135422, Note_on_c, 7, 55, 127
2, 135610, Note_off_c, 8, 68, 127
2, 135613, Note_on_c, 11, 70, 127
2, 135800, Note_off_c, 7, 55, 127
2, 135801, Note_off_c, 11, 70, 127
2, 135801, Note_off_c, 1, 61, 127
2, 135801, Note_off_c, 4, 76, 127
2, 135804, Note_on_c, 3, 75, 127
2, 135804, Note_on_c, 12, 71, 127
2, 135804, Note_on_c, 12, 59, 127
2, 135804, Note_on_c, 8, 56, 127
2, 136182, Note_off_c, 8, 56, 127
2, 136182, Note_off_c, 12, 59, 127
2, 136182, Note_off_c, 12, 71, 127
2, 136185, Note_on_c, 8, 68, 127
2, 136185, Note_on_c, 3, 63, 127
2, 136185, Note_on_c, 12, 47, 127
2, 136563, Note_off_c, 12, 47, 127
2, 136563, Note_off_c, 3, 63, 127
2, 136563, Note_off_c, 8, 68, 127
2, 136564, Note_off_c, 3, 75, 127
2, 136567, Note_on_c, 1, 73, 127
2, 136567, Note_on_c, 11, 70, 127
2, 136567, Note_on_c, 4, 64, 127
2, 136567, Note_on_c, 1, 49, 127
2, 136945, Note_off_c, 1, 49, 127
2, 136949, Note_on_c, 1, 49, 127
2, 137327, Note_off_c, 1, 49, 127
2, 137327, Note_off_c, 4, 64, 127
2, 137327, Note_off_c, 11, 70, 127
2, 137330, Note_on_c, 7, 67, 127
2, 137330, Note_on_c, 3, 63, 127
2, 137330, Note_on_c, 3, 51, 127
2, 137708, Note_off_c, 3, 51, 127
2, 137712, Note_on_c, 3, 51, 127
2, 138090, Note_off_c, 3, 51, 127
2, 138090, Note_off_c, 3, 63, 127
2, 138090, Note_off_c, 7, 67, 127
2, 138093, Note_on_c, 8, 68, 127
2, 138093, Note_on_c, 3, 63, 127
2, 138093, Note_on_c, 8, 44, 127
2, 138472, Note_off_c, 1, 73, 127
2, 138478, Note_off_c, 3, 63, 127
2, 138491, Note_off_c, 8, 44, 127
2, 138499, Note_on_c, 11, 46, 127
2, 138499, Note_on_c, 7, 79, 127
2, 138863, Note_off_c, 8, 68, 127
2, 138877, Note_off_c, 7, 79, 127
2, 138877, Note_off_c, 11, 46, 127
2, 138881, Note_on_c, 12, 47, 127
2, 138881, Note_on_c, 8, 56, 127
2, 138881, Note_on_c, 8, 80, 127
2, 139259, Note_off_c, 8, 80, 127
2, 139259, Note_off_c, 12, 47, 127
2, 139262, Note_on_c, 1, 49, 127
2, 139262, Note_on_c, 12, 71, 127
2, 139640, Note_off_c, 12, 71, 127
2, 139640, Note_off_c, 1, 49, 127
2, 139641, Note_off_c, 8, 56, 127
2, 139644, Note_on_c, 3, 51, 127
2, 139644, Note_on_c, 7, 55, 127
2, 139644, Note_on_c, 11, 70, 127
2, 140022, Note_off_c, 11, 70, 127
2, 140022, Note_off_c, 7, 55, 127
2, 140025, Note_on_c, 8, 56, 127
2, 140025, Note_on_c, 7, 79, 127
2, 140213, Note_off_c, 8, 56, 127
2, 140216, Note_on_c, 11, 58, 127
2, 140403, Note_off_c, 7, 79, 127
2, 140404, Note_off_c, 11, 58, 127
2, 140407, Note_on_c, 12, 59, 127
2, 140407, Note_on_c, 8, 80, 127
2, 140785, Note_off_c, 8, 80, 127
2, 140785, Note_off_c, 12, 59, 127
2, 140786, Note_off_c, 3, 51, 127
2, 140789, Note_on_c, 3, 51, 127
2, 140789, Note_on_c, 11, 58, 127
2, 140789, Note_on_c, 7, 67, 127
2, 140789, Note_on_c, 1, 73, 127
2, 141167, Note_off_c, 1, 73, 127
2, 141167, Note_off_c, 7, 67, 127
2, 141167, Note_off_c, 11, 58, 127
2, 141167, Note_off_c, 3, 51, 127
2, 141170, Note_on_c, 5, 53, 127
2, 141170, Note_on_c, 8, 56, 127
2, 141170, Note_on_c, 12, 71, 127
2, 141548, Note_off_c, 12, 71, 127
2, 141548, Note_off_c, 8, 56, 127
2, 141552, Note_on_c, 2, 62, 127
2, 141552, Note_on_c, 8, 80, 127
2, 141930, Note_off_c, 8, 80, 127
2, 141930, Note_off_c, 2, 62, 127
2, 141930, Note_off_c, 5, 53, 127
2, 141933, Note_on_c, 3, 51, 127
2, 141933, Note_on_c, 3, 63, 127
2, 141933, Note_on_c, 6, 78, 127
2, 142311, Note_off_c, 6, 78, 127
2, 142311, Note_off_c, 3, 63, 127
2, 142315, Note_on_c, 6, 54, 127
2, 142315, Note_on_c, 6, 66, 127
2, 142315, Note_on_c, 11, 70, 127
2, 142693, Note_off_c, 11, 70, 127
2, 142693, Note_off_c, 6, 66, 127
2, 142693, Note_off_c, 6, 54, 127
2, 142697, Note_on_c, 8, 56, 127
2, 142697, Note_on_c, 5, 65, 127
2, 142697, Note_on_c, 8, 68, 127
2, 143075, Note_off_c, 8, 68, 127
2, 143075, Note_off_c, 8, 56, 127
2, 143078, Note_on_c, 8, 56, 127
2, 143078, Note_on_c, 6, 78, 127
2, 143456, Note_off_c, 6, 78, 127
2, 143456, Note_off_c, 8, 56, 127
2, 143456, Note_off_c, 3, 51, 127
2, 143460, Note_on_c, 2, 50, 127
2, 143460, Note_on_c, 11, 58, 127
2, 143460, Note_on_c, 5, 77, 127
2, 143838, Note_off_c, 5, 77, 127
2, 143838, Note_off_c, 11, 58, 127
2, 143839, Note_off_c, 5, 65, 127
2, 143841, Note_on_c, 11, 58, 127
2, 143841, Note_on_c, 5, 65, 127
2, 143841, Note_on_c, 8, 68, 127
2, 144219, Note_off_c, 8, 68, 127
2, 144219, Note_off_c, 11, 58, 127
2, 144220, Note_off_c, 2, 50, 127
2, 144223, Note_on_c, 3, 51, 127
2, 144223, Note_on_c, 6, 66, 127
2, 144601, Note_off_c, 5, 65, 127
2, 144605, Note_on_c, 5, 53, 127
2, 144605, Note_on_c, 3, 63, 127
2, 144793, Note_off_c, 3, 63, 127
2, 144795, Note_on_c, 2, 62, 127
2, 144983, Note_off_c, 2, 62, 127
2, 144983, Note_off_c, 5, 53, 127
2, 144983, Note_off_c, 6, 66, 127
2, 144986, Note_on_c, 6, 54, 127
2, 144986, Note_on_c, 3, 63, 127
2, 145174, Note_off_c, 3, 51, 127
2, 145177, Note_on_c, 3, 39, 127
2, 145365, Note_off_c, 3, 39, 127
2, 145368, Note_on_c, 4, 40, 127
2, 145556, Note_off_c, 4, 40, 127
2, 145559, Note_on_c, 6, 42, 127
2, 145746, Note_off_c, 3, 63, 127
2, 145747, Note_off_c, 6, 42, 127
2, 145749, Note_on_c, 8, 44, 127
2, 145749, Note_on_c, 0, 60, 127
2, 146127, Note_off_c, 0, 60, 127
2, 146127, Note_off_c, 8, 44, 127
2, 146128, Note_off_c, 6, 54, 127
2, 146131, Note_on_c, 1, 49, 127
2, 146131, Note_on_c, 4, 52, 127
2, 146131, Note_on_c, 1, 61, 127
2, 146319, Note_off_c, 1, 61, 127
2, 146319, Note_off_c, 4, 52, 127
2, 146322, Note_on_c, 6, 54, 127
2, 146322, Note_on_c, 3, 63, 127
2, 146510, Note_off_c, 3, 63, 127
2, 146510, Note_off_c, 6, 54, 127
2, 146513, Note_on_c, 8, 56, 127
2, 146513, Note_on_c, 4, 64, 127
2, 146891, Note_off_c, 4, 64, 127
2, 146891, Note_off_c, 8, 56, 127
2, 146891, Note_off_c, 1, 49, 127
2, 146894, Note_on_c, 3, 51, 127
2, 146894, Note_on_c, 7, 55, 127
2, 146894, Note_on_c, 3, 63, 127
2, 147082, Note_off_c, 7, 55, 127
2, 147085, Note_on_c, 8, 56, 127
2, 147272, Note_off_c, 3, 63, 127
2, 147272, Note_off_c, 3, 51, 127
2, 147273, Note_off_c, 8, 56, 127
2, 147276, Note_on_c, 4, 52, 127
2, 147276, Note_on_c, 11, 58, 127
2, 147276, Note_on_c, 1, 61, 127
2, 147654, Note_off_c, 1, 61, 127
2, 147654, Note_off_c, 11, 58, 127
2, 147657, Note_on_c, 8, 56, 127
2, 147657, Note_on_c, 7, 67, 127
2, 147845, Note_off_c, 8, 56, 127
2, 147848, Note_on_c, 11, 58, 127
2, 148035, Note_off_c, 7, 67, 127
2, 148036, Note_off_c, 11, 58, 127
2, 148036, Note_off_c, 4, 52, 127
2, 148039, Note_on_c, 3, 51, 127
2, 148039, Note_on_c, 12, 59, 127
2, 148039, Note_on_c, 8, 68, 127
2, 148417, Note_off_c, 8, 68, 127
2, 148417, Note_off_c, 12, 59, 127
2, 148421, Note_on_c, 8, 56, 127
2, 148421, Note_on_c, 12, 59, 127
2, 148799, Note_off_c, 12, 59, 127
2, 148799, Note_off_c, 8, 56, 127
2, 148799, Note_off_c, 3, 51, 127
2, 148802, Note_on_c, 1, 49, 127
2, 148802, Note_on_c, 11, 58, 127
2, 148802, Note_on_c, 1, 61, 127
2, 149180, Note_off_c, 1, 61, 127
2, 149184, Note_on_c, 1, 61, 127
2, 149562, Note_off_c, 1, 61, 127
2, 149562, Note_off_c, 11, 58, 127
2, 149565, Note_on_c, 7, 55, 127
2, 149565, Note_on_c, 3, 63, 127
2, 149943, Note_off_c, 3, 63, 127
2, 149947, Note_on_c, 3, 63, 127
2, 150320, Note_off_c, 7, 55, 127
2, 150325, Note_off_c, 3, 63, 127
2, 150331, Note_on_c, 8, 56, 127
2, 150710, Note_off_c, 1, 49, 127
2, 150713, Note_on_c, 12, 47, 127
2, 150713, Note_on_c, 7, 67, 127
2, 150901, Note_off_c, 12, 47, 127
2, 150904, Note_on_c, 11, 46, 127
2, 150999, Note_off_c, 7, 67, 127
2, 151092, Note_off_c, 11, 46, 127
2, 151095, Note_on_c, 12, 47, 127
2, 151095, Note_on_c, 8, 68, 127
2, 151283, Note_off_c, 12, 47, 127
2, 151285, Note_on_c, 8, 44, 127
2, 151473, Note_off_c, 8, 44, 127
2, 151473, Note_off_c, 8, 56, 127
2, 151476, Note_on_c, 2, 50, 127
2, 151476, Note_on_c, 12, 59, 127
2, 151854, Note_off_c, 12, 59, 127
2, 151854, Note_off_c, 2, 50, 127
2, 151858, Note_on_c, 3, 51, 127
2, 151858, Note_on_c, 11, 58, 127
2, 152236, Note_off_c, 11, 58, 127
2, 152237, Note_off_c, 8, 68, 127
2, 152239, Note_on_c, 8, 56, 127
2, 152239, Note_on_c, 6, 66, 127
2, 152427, Note_off_c, 6, 66, 127
2, 152430, Note_on_c, 5, 65, 127
2, 152617, Note_off_c, 8, 56, 127
2, 152618, Note_off_c, 5, 65, 127
2, 152621, Note_on_c, 11, 58, 127
2, 152621, Note_on_c, 6, 66, 127
2, 152809, Note_off_c, 6, 66, 127
2, 152812, Note_on_c, 3, 63, 127
2, 152999, Note_off_c, 11, 58, 127
2, 153000, Note_off_c, 3, 63, 127
2, 153003, Note_on_c, 0, 60, 127
2, 153003, Note_on_c, 10, 69, 127
2, 153321, Note_off_c, 10, 69, 127
2, 153381, Note_off_c, 0, 60, 127
2, 153384, Note_on_c, 5, 53, 127
2, 153384, Note_on_c, 11, 70, 127
2, 153762, Note_off_c, 5, 53, 127
2, 153763, Note_off_c, 3, 51, 127
2, 153766, Note_on_c, 1, 49, 127
2, 153766, Note_on_c, 3, 63, 127
2, 153954, Note_off_c, 1, 49, 127
2, 153957, Note_on_c, 0, 48, 127
2, 154144, Note_off_c, 3, 63, 127
2, 154145, Note_off_c, 0, 48, 127
2, 154147, Note_on_c, 1, 49, 127
2, 154147, Note_on_c, 5, 65, 127
2, 154335, Note_off_c, 1, 49, 127
2, 154338, Note_on_c, 11, 46, 127
2, 154525, Note_off_c, 5, 65, 127
2, 154526, Note_off_c, 11, 46, 127
2, 154529, Note_on_c, 4, 52, 127
2, 154529, Note_on_c, 7, 67, 127
2, 154907, Note_off_c, 7, 67, 127
2, 154907, Note_off_c, 4, 52, 127
2, 154911, Note_on_c, 5, 53, 127
2, 154911, Note_on_c, 0, 60, 127
2, 155289, Note_off_c, 0, 60, 127
2, 155289, Note_off_c, 11, 70, 127
2, 155292, Note_on_c, 11, 58, 127
2, 155292, Note_on_c, 10, 69, 127
2, 155480, Note_off_c, 10, 69, 127
2, 155483, Note_on_c, 7, 67, 127
2, 155670, Note_off_c, 11, 58, 127
2, 155671, Note_off_c, 7, 67, 127
2, 155674, Note_on_c, 0, 60, 127
2, 155674, Note_on_c, 10, 69, 127
2, 155862, Note_off_c, 10, 69, 127
2, 155865, Note_on_c, 5, 65, 127
2, 156052, Note_off_c, 0, 60, 127
2, 156053, Note_off_c, 5, 65, 127
2, 156055, Note_on_c, 1, 61, 127
2, 156055, Note_on_c, 11, 70, 127
2, 156383, Note_off_c, 11, 70, 127
2, 156436, Note_off_c, 1, 61, 127
2, 156440, Note_on_c, 3, 63, 127
2, 156440, Note_on_c, 0, 72, 127
2, 156819, Note_off_c, 5, 53, 127
2, 156821, Note_on_c, 3, 51, 127
2, 157009, Note_off_c, 3, 51, 127
2, 157012, Note_on_c, 1, 49, 127
2, 157200, Note_off_c, 1, 49, 127
2, 157203, Note_on_c, 3, 51, 127
2, 157391, Note_off_c, 3, 51, 127
2, 157394, Note_on_c, 0, 48, 127
2, 157582, Note_off_c, 0, 48, 127
2, 157584, Note_on_c, 5, 53, 127
2, 157962, Note_off_c, 5, 53, 127
2, 157966, Note_on_c, 6, 54, 127
2, 158345, Note_off_c, 0, 72, 127
2, 158348, Note_off_c, 3, 63, 127
2, 158348, Note_on_c, 1, 61, 127
2, 158348, Note_on_c, 11, 70, 127
2, 158536, Note_off_c, 11, 70, 127
2, 158536, Note_off_c, 1, 61, 127
2, 158538, Note_on_c, 0, 60, 127
2, 158538, Note_on_c, 10, 69, 127
2, 158726, Note_off_c, 10, 69, 127
2, 158726, Note_off_c, 0, 60, 127
2, 158729, Note_on_c, 1, 61, 127
2, 158729, Note_on_c, 11, 70, 127
2, 158917, Note_off_c, 11, 70, 127
2, 158920, Note_on_c, 0, 72, 127
2, 159107, Note_off_c, 1, 61, 127
2, 159108, Note_off_c, 0, 72, 127
2, 159111, Note_on_c, 11, 58, 127
2, 159111, Note_on_c, 1, 73, 127
2, 159298, Note_off_c, 6, 54, 127
2, 159302, Note_on_c, 5, 53, 127
2, 159490, Note_off_c, 5, 53, 127
2, 159492, Note_on_c, 3, 51, 127
2, 159680, Note_off_c, 11, 58, 127
2, 159683, Note_on_c, 11, 58, 127
2, 159866, Note_off_c, 1, 73, 127
2, 159871, Note_off_c, 11, 58, 127
2, 159874, Note_on_c, 3, 63, 127
2, 159874, Note_on_c, 0, 72, 127
2, 160062, Note_off_c, 0, 72, 127
2, 160062, Note_off_c, 3, 63, 127
2, 160065, Note_on_c, 1, 61, 127
2, 160065, Note_on_c, 11, 70, 127
2, 160252, Note_off_c, 3, 51, 127
2, 160253, Note_off_c, 11, 70, 127
2, 160253, Note_off_c, 1, 61, 127
2, 160256, Note_on_c, 5, 53, 127
2, 160256, Note_on_c, 0, 60, 127
2, 160256, Note_on_c, 10, 69, 127
2, 160256, Note_on_c, 3, 75, 127
2, 160444, Note_off_c, 10, 69, 127
2, 160444, Note_off_c, 0, 60, 127
2, 160446, Note_on_c, 11, 58, 127
2, 160446, Note_on_c, 11, 70, 127
2, 160634, Note_off_c, 11, 70, 127
2, 160634, Note_off_c, 11, 58, 127
2, 160637, Note_on_c, 0, 60, 127
2, 160637, Note_on_c, 7, 67, 127
2, 160825, Note_off_c, 7, 67, 127
2, 160828, Note_on_c, 10, 69, 127
2, 161015, Note_off_c, 0, 60, 127
2, 161016, Note_off_c, 10, 69, 127
2, 161016, Note_off_c, 3, 75, 127
2, 161016, Note_off_c, 5, 53, 127
2, 161019, Note_on_c, 11, 46, 127
2, 161019, Note_on_c, 11, 58, 127
2, 161019, Note_on_c, 11, 70, 127
2, 161019, Note_on_c, 2, 74, 127
2, 161397, Note_off_c, 11, 46, 127
2, 161400, Note_off_c, 2, 74, 127
2, 161400, Note_off_c, 11, 58, 127
2, 161403, Note_on_c, 0, 60, 127
2, 161403, Note_on_c, 3, 75, 127
2, 161591, Note_off_c, 3, 75, 127
2, 161591, Note_off_c, 0, 60, 127
2, 161594, Note_on_c, 2, 62, 127
2, 161594, Note_on_c, 5, 77, 127
2, 161782, Note_off_c, 5, 77, 127
2, 161782, Note_off_c, 2, 62, 127
2, 161785, Note_on_c, 3, 63, 127
2, 161785, Note_on_c, 6, 78, 127
2, 162163, Note_off_c, 6, 78, 127
2, 162163, Note_off_c, 3, 63, 127
2, 162166, Note_on_c, 5, 65, 127
2, 162166, Note_on_c, 5, 77, 127
2, 162544, Note_off_c, 5, 77, 127
2, 162544, Note_off_c, 5, 65, 127
2, 162548, Note_on_c, 6, 66, 127
2, 162548, Note_on_c, 3, 75, 127
2, 162926, Note_off_c, 3, 75, 127
2, 162927, Note_off_c, 11, 70, 127
2, 162929, Note_on_c, 0, 72, 127
2, 162929, Note_on_c, 10, 81, 127
2, 163307, Note_off_c, 10, 81, 127
2, 163307, Note_off_c, 0, 72, 127
2, 163311, Note_on_c, 1, 73, 127
2, 163311, Note_on_c, 11, 82, 127
2, 163499, Note_off_c, 6, 66, 127
2, 163502, Note_on_c, 8, 68, 127
2, 163689, Note_off_c, 11, 82, 127
2, 163689, Note_off_c, 1, 73, 127
2, 163690, Note_off_c, 8, 68, 127
2, 163693, Note_on_c, 6, 66, 127
2, 163693, Note_on_c, 11, 70, 127
2, 163693, Note_on_c, 1, 73, 127
2, 163881, Note_off_c, 6, 66, 127
2, 163883, Note_on_c, 5, 65, 127
2, 164071, Note_off_c, 5, 65, 127
2, 164071, Note_off_c, 1, 73, 127
2, 164071, Note_off_c, 11, 70, 127
2, 164074, Note_on_c, 3, 63, 127
2, 164074, Note_on_c, 12, 71, 127
2, 164074, Note_on_c, 3, 75, 127
2, 164262, Note_off_c, 3, 63, 127
2, 164265, Note_on_c, 1, 61, 127
2, 164452, Note_off_c, 3, 75, 127
2, 164453, Note_off_c, 1, 61, 127
2, 164456, Note_on_c, 12, 59, 127
2, 164456, Note_on_c, 3, 75, 127
2, 164644, Note_off_c, 12, 59, 127
2, 164647, Note_on_c, 11, 58, 127
2, 164834, Note_off_c, 3, 75, 127
2, 164835, Note_off_c, 11, 58, 127
2, 164837, Note_on_c, 8, 56, 127
2, 164837, Note_on_c, 5, 77, 127
2, 165028, Note_off_c, 12, 71, 127
2, 165028, Note_on_c, 11, 58, 127
2, 165215, Note_off_c, 5, 77, 127
2, 165216, Note_off_c, 11, 58, 127
2, 165219, Note_on_c, 12, 59, 127
2, 165219, Note_on_c, 5, 77, 127
2, 165407, Note_off_c, 12, 59, 127
2, 165410, Note_on_c, 1, 61, 127
2, 165597, Note_off_c, 5, 77, 127
2, 165597, Note_off_c, 8, 56, 127
2, 165598, Note_off_c, 1, 61, 127
2, 165601, Note_on_c, 6, 54, 127
2, 165601, Note_on_c, 3, 63, 127
2, 165601, Note_on_c, 11, 70, 127
2, 165979, Note_off_c, 11, 70, 127
2, 165979, Note_off_c, 6, 54, 127
2, 165982, Note_on_c, 8, 56, 127
2, 165982, Note_on_c, 5, 77, 127
2, 166360, Note_off_c, 5, 77, 127
2, 166360, Note_off_c, 8, 56, 127
2, 166361, Note_off_c, 3, 63, 127
2, 166364, Note_on_c, 6, 54, 127
2, 166364, Note_on_c, 11, 58, 127
2, 166364, Note_on_c, 1, 61, 127
2, 166364, Note_on_c, 6, 78, 127
2, 166742, Note_off_c, 1, 61, 127
2, 166742, Note_off_c, 11, 58, 127
2, 166745, Note_on_c, 1, 61, 127
2, 166745, Note_on_c, 11, 70, 127
2, 167123, Note_off_c, 11, 70, 127
2, 167123, Note_off_c, 1, 61, 127
2, 167124, Note_off_c, 6, 54, 127
2, 167127, Note_on_c, 3, 51, 127
2, 167127, Note_on_c, 3, 63, 127
2, 167127, Note_on_c, 12, 71, 127
2, 167505, Note_off_c, 3, 51, 127
2, 167506, Note_off_c, 6, 78, 127
2, 167509, Note_on_c, 4, 52, 127
2, 167509, Note_on_c, 11, 82, 127
2, 167697, Note_off_c, 4, 52, 127
2, 167699, Note_on_c, 6, 54, 127
2, 167887, Note_off_c, 6, 54, 127
2, 167887, Note_off_c, 11, 82, 127
2, 167890, Note_on_c, 8, 56, 127
2, 167890, Note_on_c, 12, 83, 127
2, 168078, Note_off_c, 12, 71, 127
2, 168081, Note_on_c, 3, 75, 127
2, 168268, Note_off_c, 8, 56, 127
2, 168269, Note_off_c, 3, 75, 127
2, 168272, Note_on_c, 6, 54, 127
2, 168272, Note_on_c, 4, 76, 127
2, 168460, Note_off_c, 4, 76, 127
2, 168463, Note_on_c, 6, 78, 127
2, 168650, Note_off_c, 6, 54, 127
2, 168650, Note_off_c, 3, 63, 127
2, 168651, Note_off_c, 6, 78, 127
2, 168653, Note_on_c, 4, 52, 127
2, 168653, Note_on_c, 1, 61, 127
2, 168653, Note_on_c, 8, 80, 127
2, 169031, Note_off_c, 8, 80, 127
2, 169034, Note_off_c, 4, 52, 127
2, 169034, Note_off_c, 12, 83, 127
2, 169038, Note_on_c, 11, 58, 127
2, 169038, Note_on_c, 4, 76, 127
2, 169410, Note_off_c, 1, 61, 127
2, 169416, Note_off_c, 4, 76, 127
2, 169416, Note_off_c, 11, 58, 127
2, 169419, Note_on_c, 12, 59, 127
2, 169419, Note_on_c, 3, 75, 127
2, 169797, Note_off_c, 12, 59, 127
2, 169801, Note_on_c, 3, 51, 127
2, 169801, Note_on_c, 12, 59, 127
2, 169801, Note_on_c, 6, 66, 127
2, 170179, Note_off_c, 6, 66, 127
2, 170179, Note_off_c, 12, 59, 127
2, 170179, Note_off_c, 3, 51, 127
2, 170179, Note_off_c, 3, 75, 127
2, 170182, Note_on_c, 4, 52, 127
2, 170182, Note_on_c, 12, 59, 127
2, 170182, Note_on_c, 8, 68, 127
2, 170182, Note_on_c, 1, 73, 127
2, 170560, Note_off_c, 8, 68, 127
2, 170560, Note_off_c, 4, 52, 127
2, 170564, Note_on_c, 4, 52, 127
2, 170564, Note_on_c, 11, 70, 127
2, 170752, Note_off_c, 11, 70, 127
2, 170755, Note_on_c, 12, 71, 127
2, 170942, Note_off_c, 4, 52, 127
2, 170942, Note_off_c, 12, 59, 127
2, 170943, Note_off_c, 12, 71, 127
2, 170946, Note_on_c, 6, 54, 127
2, 170946, Note_on_c, 11, 58, 127
2, 170946, Note_on_c, 4, 64, 127
2, 171324, Note_off_c, 6, 54, 127
2, 171327, Note_on_c, 6, 54, 127
2, 171705, Note_off_c, 6, 54, 127
2, 171706, Note_off_c, 11, 58, 127
2, 171709, Note_on_c, 12, 47, 127
2, 171709, Note_on_c, 12, 59, 127
2, 172087, Note_off_c, 12, 47, 127
2, 172088, Note_off_c, 4, 64, 127
2, 172090, Note_on_c, 11, 46, 127
2, 172090, Note_on_c, 3, 63, 127
2, 172278, Note_off_c, 3, 63, 127
2, 172281, Note_on_c, 1, 61, 127
2, 172464, Note_off_c, 12, 59, 127
2, 172468, Note_off_c, 11, 46, 127
2, 172468, Note_off_c, 1, 73, 127
2, 172469, Note_off_c, 1, 61, 127
2, 172472, Note_on_c, 8, 44, 127
2, 172472, Note_on_c, 3, 63, 127
2, 172472, Note_on_c, 12, 71, 127
2, 172660, Note_off_c, 3, 63, 127
2, 172663, Note_on_c, 12, 59, 127
2, 172850, Note_off_c, 8, 44, 127
2, 172851, Note_off_c, 12, 59, 127
2, 172854, Note_on_c, 1, 49, 127
2, 172854, Note_on_c, 5, 65, 127
2, 173222, Note_off_c, 1, 49, 127
2, 173235, Note_off_c, 5, 65, 127
2, 173238, Note_on_c, 6, 42, 127
2, 173238, Note_on_c, 6, 66, 127
2, 173616, Note_off_c, 6, 42, 127
2, 173616, Note_off_c, 12, 71, 127
2, 173620, Note_on_c, 4, 40, 127
2, 173620, Note_on_c, 11, 70, 127
2, 173808, Note_off_c, 11, 70, 127
2, 173810, Note_on_c, 8, 68, 127
2, 173998, Note_off_c, 8, 68, 127
2, 173998, Note_off_c, 4, 40, 127
2, 174001, Note_on_c, 3, 39, 127
2, 174001, Note_on_c, 11, 70, 127
2, 174189, Note_off_c, 11, 70, 127
2, 174192, Note_off_c, 6, 66, 127
2, 174192, Note_on_c, 6, 66, 127
2, 174379, Note_off_c, 3, 39, 127
2, 174383, Note_on_c, 8, 44, 127
2, 174383, Note_on_c, 0, 72, 127
2, 174751, Note_off_c, 8, 44, 127
2, 174764, Note_off_c, 0, 72, 127
2, 174767, Note_on_c, 1, 49, 127
2, 174767, Note_on_c, 1, 73, 127
2, 175145, Note_off_c, 1, 49, 127
2, 175148, Note_off_c, 6, 66, 127
2, 175149, Note_on_c, 12, 47, 127
2, 175149, Note_on_c, 4, 64, 127
2, 175337, Note_off_c, 4, 64, 127
2, 175339, Note_on_c, 3, 63, 127
2, 175527, Note_off_c, 3, 63, 127
2, 175527, Note_off_c, 12, 47, 127
2, 175530, Note_on_c, 11, 46, 127
2, 175530, Note_on_c, 4, 64, 127
2, 175718, Note_off_c, 4, 64, 127
2, 175721, Note_on_c, 1, 61, 127
2, 175908, Note_off_c, 11, 46, 127
2, 175909, Note_off_c, 1, 61, 127
2, 175912, Note_on_c, 3, 51, 127
2, 175912, Note_on_c, 7, 67, 127
2, 176280, Note_off_c, 3, 51, 127
2, 176293, Note_off_c, 7, 67, 127
2, 176296, Note_on_c, 8, 44, 127
2, 176296, Note_on_c, 8, 68, 127
2, 176674, Note_off_c, 8, 44, 127
2, 176675, Note_off_c, 1, 73, 127
2, 176678, Note_on_c, 6, 42, 127
2, 176678, Note_on_c, 12, 71, 127
2, 176866, Note_off_c, 12, 71, 127
2, 176868, Note_on_c, 11, 70, 127
2, 177056, Note_off_c, 11, 70, 127
2, 177056, Note_off_c, 6, 42, 127
2, 177059, Note_on_c, 5, 41, 127
2, 177059, Note_on_c, 12, 71, 127
2, 177247, Note_off_c, 12, 71, 127
2, 177250, Note_off_c, 8, 68, 127
2, 177250, Note_on_c, 8, 68, 127
2, 177437, Note_off_c, 5, 41, 127
2, 177441, Note_on_c, 11, 46, 127
2, 177441, Note_on_c, 2, 74, 127
2, 177809, Note_off_c, 11, 46, 127
2, 177822, Note_off_c, 2, 74, 127
2, 177825, Note_on_c, 3, 39, 127
2, 177825, Note_on_c, 3, 75, 127
2, 178203, Note_off_c, 3, 75, 127
2, 178206, Note_off_c, 8, 68, 127
2, 178207, Note_on_c, 1, 73, 127
2, 178395, Note_off_c, 1, 73, 127
2, 178397, Note_on_c, 12, 71, 127
2, 178585, Note_off_c, 12, 71, 127
2, 178588, Note_on_c, 6, 66, 127
2, 178588, Note_on_c, 11, 70, 127
2, 178966, Note_off_c, 11, 70, 127
2, 178970, Note_on_c, 3, 51, 127
2, 178970, Note_on_c, 12, 71, 127
2, 179097, Note_off_c, 3, 39, 127
2, 179348, Note_off_c, 12, 71, 127
2, 179348, Note_off_c, 3, 51, 127
2, 179348, Note_off_c, 6, 66, 127
2, 179351, Note_on_c, 4, 52, 127
2, 179351, Note_on_c, 4, 64, 127
2, 179351, Note_on_c, 1, 73, 127
2, 179729, Note_off_c, 4, 52, 127
2, 179733, Note_on_c, 4, 52, 127
2, 180111, Note_off_c, 4, 52, 127
2, 180111, Note_off_c, 1, 73, 127
2, 180115, Note_on_c, 6, 54, 127
2, 180115, Note_on_c, 12, 71, 127
2, 180205, Note_on_c, 11, 70, 127
2, 180215, Note_off_c, 12, 71, 127
2, 180295, Note_on_c, 12, 71, 127
2, 180305, Note_off_c, 11, 70, 127
2, 180384, Note_on_c, 11, 70, 127
2, 180395, Note_off_c, 12, 71, 127
2, 180493, Note_off_c, 6, 54, 127
2, 180496, Note_on_c, 6, 54, 127
2, 180874, Note_off_c, 6, 54, 127
2, 180878, Note_on_c, 12, 47, 127
2, 180878, Note_on_c, 12, 71, 127
2, 180884, Note_off_c, 11, 70, 127
2, 181256, Note_off_c, 12, 71, 127
2, 181259, Note_on_c, 11, 70, 127
2, 181447, Note_off_c, 11, 70, 127
2, 181450, Note_on_c, 8, 68, 127
2, 181637, Note_off_c, 4, 64, 127
2, 181638, Note_off_c, 8, 68, 127
2, 181641, Note_on_c, 3, 63, 127
2, 181641, Note_on_c, 7, 67, 127
2, 181951, Note_off_c, 12, 47, 127
2, 182019, Note_off_c, 7, 67, 127
2, 182023, Note_on_c, 12, 47, 127
2, 182023, Note_on_c, 8, 68, 127
2, 182401, Note_off_c, 8, 68, 127
2, 182401, Note_off_c, 12, 47, 127
2, 182401, Note_off_c, 3, 63, 127
2, 182404, Note_on_c, 1, 49, 127
2, 182404, Note_on_c, 1, 61, 127
2, 182404, Note_on_c, 11, 70, 127
2, 182782, Note_off_c, 1, 49, 127
2, 182786, Note_on_c, 1, 49, 127
2, 183164, Note_off_c, 1, 49, 127
2, 183164, Note_off_c, 11, 70, 127
2, 183167, Note_on_c, 3, 51, 127
2, 183167, Note_on_c, 8, 68, 127
2, 183277, Note_on_c, 7, 67, 127
2, 183287, Note_off_c, 8, 68, 127
2, 183387, Note_on_c, 5, 65, 127
2, 183397, Note_off_c, 7, 67, 127
2, 183487, Note_on_c, 7, 67, 127
2, 183507, Note_off_c, 5, 65, 127
2, 183545, Note_off_c, 3, 51, 127
2, 183549, Note_on_c, 3, 51, 127
2, 183927, Note_off_c, 3, 51, 127
2, 183927, Note_off_c, 7, 67, 127
2, 183931, Note_on_c, 8, 44, 127
2, 183931, Note_on_c, 8, 68, 127
2, 184317, Note_off_c, 8, 44, 127
2, 184317, Note_off_c, 1, 61, 127
2, 184320, Note_on_c, 11, 46, 127
2, 184320, Note_on_c, 12, 59, 127
2, 184510, Note_off_c, 12, 59, 127
2, 184514, Note_on_c, 1, 61, 127
2, 184699, Note_off_c, 8, 68, 127
2, 184704, Note_off_c, 1, 61, 127
2, 184704, Note_off_c, 11, 46, 127
2, 184707, Note_on_c, 12, 47, 127
2, 184707, Note_on_c, 8, 56, 127
2, 184707, Note_on_c, 3, 63, 127
2, 185093, Note_off_c, 3, 63, 127
2, 185093, Note_off_c, 12, 47, 127
2, 185097, Note_on_c, 1, 49, 127
2, 185097, Note_on_c, 1, 61, 127
2, 185287, Note_off_c, 1, 61, 127
2, 185290, Note_on_c, 12, 59, 127
2, 185480, Note_off_c, 12, 59, 127
2, 185480, Note_off_c, 8, 56, 127
2, 185481, Note_off_c, 1, 49, 127
2, 185484, Note_on_c, 3, 51, 127
2, 185484, Note_on_c, 7, 55, 127
2, 185484, Note_on_c, 11, 58, 127
2, 185870, Note_off_c, 11, 58, 127
2, 185870, Note_off_c, 7, 55, 127
2, 185870, Note_off_c, 3, 51, 127
2, 185873, Note_on_c, 6, 54, 127
2, 185873, Note_on_c, 8, 56, 127
2, 185873, Note_on_c, 0, 60, 127
2, 185873, Note_on_c, 8, 68, 127
2, 186063, Note_off_c, 0, 60, 127
2, 186063, Note_off_c, 8, 56, 127
2, 186067, Note_on_c, 11, 58, 127
2, 186067, Note_on_c, 1, 61, 127
2, 186257, Note_off_c, 1, 61, 127
2, 186257, Note_off_c, 11, 58, 127
2, 186260, Note_on_c, 0, 60, 127
2, 186260, Note_on_c, 3, 63, 127
2, 186450, Note_off_c, 6, 54, 127
2, 186453, Note_on_c, 8, 56, 127
2, 186643, Note_off_c, 8, 56, 127
2, 186644, Note_off_c, 3, 63, 127
2, 186644, Note_off_c, 0, 60, 127
2, 186644, Note_off_c, 8, 68, 127
2, 186647, Note_on_c, 6, 54, 127
2, 186647, Note_on_c, 11, 58, 127
2, 186647, Note_on_c, 2, 62, 127
2, 186647, Note_on_c, 11, 70, 127
2, 186837, Note_off_c, 2, 62, 127
2, 186837, Note_off_c, 6, 54, 127
2, 186840, Note_on_c, 5, 53, 127
2, 186840, Note_on_c, 3, 63, 127
2, 187030, Note_off_c, 3, 63, 127
2, 187030, Note_off_c, 5, 53, 127
2, 187031, Note_off_c, 11, 70, 127
2, 187031, Note_off_c, 11, 58, 127
2, 187034, Note_on_c, 3, 51, 127
2, 187034, Note_on_c, 8, 56, 127
2, 187034, Note_on_c, 5, 65, 127
2, 187034, Note_on_c, 12, 71, 127
2, 187224, Note_off_c, 3, 51, 127
2, 187227, Note_on_c, 2, 50, 127
2, 187417, Note_off_c, 2, 50, 127
2, 187418, Note_off_c, 5, 65, 127
2, 187418, Note_off_c, 8, 56, 127
2, 187421, Note_on_c, 0, 48, 127
2, 187421, Note_on_c, 2, 62, 127
2, 187421, Note_on_c, 3, 63, 127
2, 187611, Note_off_c, 3, 63, 127
2, 187611, Note_off_c, 0, 48, 127
2, 187614, Note_on_c, 11, 46, 127
2, 187614, Note_on_c, 5, 65, 127
2, 187804, Note_off_c, 5, 65, 127
2, 187804, Note_off_c, 11, 46, 127
2, 187805, Note_off_c, 2, 62, 127
2, 187805, Note_off_c, 12, 71, 127
2, 187808, Note_on_c, 8, 44, 127
2, 187808, Note_on_c, 3, 63, 127
2, 187808, Note_on_c, 6, 66, 127
2, 187808, Note_on_c, 11, 70, 127
2, 187998, Note_off_c, 8, 44, 127
2, 188001, Note_on_c, 6, 42, 127
2, 188191, Note_off_c, 6, 42, 127
2, 188192, Note_off_c, 6, 66, 127
2, 188192, Note_off_c, 3, 63, 127
2, 188195, Note_on_c, 8, 44, 127
2, 188195, Note_on_c, 6, 54, 127
2, 188195, Note_on_c, 3, 63, 127
2, 188385, Note_off_c, 8, 44, 127
2, 188388, Note_on_c, 11, 46, 127
2, 188578, Note_off_c, 11, 46, 127
2, 188579, Note_off_c, 3, 63, 127
2, 188579, Note_off_c, 6, 54, 127
2, 188579, Note_off_c, 11, 70, 127
2, 188581, Note_on_c, 12, 47, 127
2, 188581, Note_on_c, 8, 56, 127
2, 188581, Note_on_c, 5, 65, 127
2, 188581, Note_on_c, 8, 68, 127
2, 188967, Note_off_c, 8, 56, 127
2, 188971, Note_on_c, 8, 56, 127
2, 189357, Note_off_c, 8, 56, 127
2, 189357, Note_off_c, 5, 65, 127
2, 189357, Note_off_c, 12, 47, 127
2, 189361, Note_on_c, 11, 46, 127
2, 189361, Note_on_c, 11, 58, 127
2, 189361, Note_on_c, 2, 62, 127
2, 189747, Note_off_c, 11, 58, 127
2, 189747, Note_off_c, 11, 46, 127
2, 189750, Note_on_c, 8, 44, 127
2, 189750, Note_on_c, 11, 58, 127
2, 190136, Note_off_c, 11, 58, 127
2, 190136, Note_off_c, 8, 44, 127
2, 190137, Note_off_c, 2, 62, 127
2, 190140, Note_on_c, 6, 42, 127
2, 190140, Note_on_c, 3, 51, 127
2, 190140, Note_on_c, 3, 63, 127
2, 190526, Note_off_c, 3, 63, 127
2, 190526, Note_off_c, 6, 42, 127
2, 190529, Note_on_c, 11, 46, 127
2, 190529, Note_on_c, 1, 61, 127
2, 190719, Note_off_c, 1, 61, 127
2, 190723, Note_on_c, 12, 59, 127
2, 190913, Note_off_c, 12, 59, 127
2, 190913, Note_off_c, 11, 46, 127
2, 190913, Note_off_c, 8, 68, 127
2, 190916, Note_on_c, 3, 39, 127
2, 190916, Note_on_c, 11, 58, 127
2, 190916, Note_on_c, 6, 66, 127
2, 191302, Note_off_c, 11, 58, 127
2, 191303, Note_off_c, 3, 51, 127
2, 191306, Note_on_c, 3, 51, 127
2, 191306, Note_on_c, 12, 59, 127
2, 191499, Note_off_c, 3, 39, 127
2, 191689, Note_off_c, 6, 66, 127
2, 191690, Note_off_c, 12, 59, 127
2, 191690, Note_off_c, 3, 51, 127
2, 191693, Note_on_c, 4, 52, 127
2, 191693, Note_on_c, 1, 61, 127
2, 191693, Note_on_c, 4, 64, 127
2, 192079, Note_off_c, 4, 52, 127
2, 192082, Note_on_c, 4, 52, 127
2, 192468, Note_off_c, 4, 52, 127
2, 192469, Note_off_c, 1, 61, 127
2, 192472, Note_on_c, 6, 54, 127
2, 192472, Note_on_c, 11, 58, 127
2, 192858, Note_off_c, 6, 54, 127
2, 192861, Note_on_c, 6, 54, 127
2, 193247, Note_off_c, 6, 54, 127
2, 193248, Note_off_c, 11, 58, 127
2, 193251, Note_on_c, 12, 47, 127
2, 193251, Note_on_c, 12, 59, 127
2, 193441, Note_off_c, 12, 47, 127
2, 193444, Note_on_c, 3, 51, 127
2, 193634, Note_off_c, 3, 51, 127
2, 193635, Note_off_c, 4, 64, 127
2, 193638, Note_on_c, 4, 52, 127
2, 193638, Note_on_c, 3, 63, 127
2, 193828, Note_off_c, 4, 52, 127
2, 193831, Note_on_c, 6, 54, 127
2, 194021, Note_off_c, 6, 54, 127
2, 194022, Note_off_c, 3, 63, 127
2, 194025, Note_on_c, 8, 56, 127
2, 194025, Note_on_c, 12, 71, 127
2, 194411, Note_off_c, 12, 59, 127
2, 194414, Note_on_c, 8, 44, 127
2, 194414, Note_on_c, 12, 59, 127
2, 194800, Note_off_c, 12, 59, 127
2, 194800, Note_off_c, 8, 44, 127
2, 194804, Note_on_c, 10, 45, 127
2, 194804, Note_on_c, 1, 61, 127
2, 195190, Note_off_c, 1, 61, 127
2, 195190, Note_off_c, 10, 45, 127
2, 195193, Note_on_c, 10, 45, 127
2, 195193, Note_on_c, 1, 61, 127
2, 195579, Note_off_c, 1, 61, 127
2, 195579, Note_off_c, 10, 45, 127
2, 195580, Note_off_c, 12, 71, 127
2, 195580, Note_off_c, 8, 56, 127
2, 195583, Note_on_c, 12, 47, 127
2, 195583, Note_on_c, 6, 54, 127
2, 195583, Note_on_c, 3, 63, 127
2, 195583, Note_on_c, 10, 69, 127
2, 195969, Note_off_c, 3, 63, 127
2, 195969, Note_off_c, 12, 47, 127
2, 195972, Note_on_c, 12, 47, 127
2, 195972, Note_on_c, 3, 63, 127
2, 196358, Note_off_c, 3, 63, 127
2, 196358, Note_off_c, 12, 47, 127
2, 196359, Note_off_c, 6, 54, 127
2, 196362, Note_on_c, 4, 40, 127
2, 196362, Note_on_c, 4, 52, 127
2, 196362, Note_on_c, 4, 64, 127
2, 196552, Note_off_c, 4, 64, 127
2, 196555, Note_on_c, 12, 59, 127
2, 196745, Note_off_c, 12, 59, 127
2, 196749, Note_on_c, 1, 61, 127
2, 196939, Note_off_c, 1, 61, 127
2, 196942, Note_on_c, 3, 63, 127
2, 197127, Note_off_c, 4, 52, 127
2, 197132, Note_off_c, 3, 63, 127
2, 197133, Note_off_c, 4, 40, 127
2, 197133, Note_off_c, 10, 69, 127
2, 197136, Note_on_c, 4, 52, 127
2, 197136, Note_on_c, 4, 64, 127
2, 197523, Note_on_c, 12, 59, 127
2, 197523, Note_on_c, 8, 68, 127
2, 197909, Note_off_c, 8, 68, 127
2, 197909, Note_off_c, 12, 59, 127
2, 197909, Note_off_c, 4, 64, 127
2, 197912, Note_on_c, 1, 61, 127
2, 197912, Note_on_c, 6, 66, 127
2, 197912, Note_on_c, 11, 70, 127
2, 198298, Note_off_c, 11, 70, 127
2, 198298, Note_off_c, 1, 61, 127
2, 198302, Note_on_c, 1, 61, 127
2, 198302, Note_on_c, 11, 70, 127
2, 198688, Note_off_c, 11, 70, 127
2, 198688, Note_off_c, 1, 61, 127
2, 198688, Note_off_c, 4, 52, 127
2, 198691, Note_on_c, 3, 51, 127
2, 198691, Note_on_c, 3, 63, 127
2, 198691, Note_on_c, 0, 72, 127
2, 199077, Note_off_c, 0, 72, 127
2, 199077, Note_off_c, 3, 63, 127
2, 199081, Note_on_c, 3, 63, 127
2, 199081, Note_on_c, 0, 72, 127
2, 199467, Note_off_c, 0, 72, 127
2, 199467, Note_off_c, 3, 63, 127
2, 199467, Note_off_c, 3, 51, 127
2, 199470, Note_on_c, 1, 49, 127
2, 199470, Note_on_c, 8, 56, 127
2, 199470, Note_on_c, 1, 73, 127
2, 199666, Note_off_c, 6, 66, 127
2, 199669, Note_on_c, 3, 63, 127
2, 199864, Note_off_c, 1, 49, 127
2, 199865, Note_off_c, 3, 63, 127
2, 199868, Note_on_c, 3, 51, 127
2, 199868, Note_on_c, 4, 64, 127
2, 200064, Note_off_c, 4, 64, 127
2, 200067, Note_on_c, 6, 66, 127
2, 200262, Note_off_c, 3, 51, 127
2, 200263, Note_off_c, 6, 66, 127
2, 200265, Note_on_c, 4, 52, 127
2, 200265, Note_on_c, 8, 68, 127
2, 200657, Note_off_c, 8, 68, 127
2, 200657, Note_off_c, 4, 52, 127
2, 200657, Note_off_c, 1, 73, 127
2, 200660, Note_on_c, 6, 54, 127
2, 200660, Note_on_c, 6, 66, 127
2, 200660, Note_on_c, 1, 73, 127
2, 200856, Note_off_c, 6, 66, 127
2, 200859, Note_on_c, 4, 64, 127
2, 201054, Note_off_c, 1, 73, 127
2, 201054, Note_off_c, 6, 54, 127
2, 201054, Note_off_c, 8, 56, 127
2, 201055, Note_off_c, 4, 64, 127
2, 201058, Note_on_c, 8, 56, 127
2, 201058, Note_on_c, 3, 63, 127
2, 201058, Note_on_c, 0, 72, 127
2, 201450, Note_off_c, 0, 72, 127
2, 201450, Note_off_c, 3, 63, 127
2, 201452, Note_on_c, 11, 58, 127
2, 201452, Note_on_c, 8, 68, 127
2, 201452, Note_on_c, 1, 73, 127
2, 201648, Note_off_c, 1, 73, 127
2, 201648, Note_off_c, 11, 58, 127
2, 201651, Note_on_c, 0, 60, 127
2, 201651, Note_on_c, 3, 75, 127
2, 201847, Note_off_c, 3, 75, 127
2, 201847, Note_off_c, 0, 60, 127
2, 201850, Note_on_c, 1, 61, 127
2, 201850, Note_on_c, 4, 76, 127
2, 202241, Note_off_c, 8, 68, 127
2, 202242, Note_off_c, 4, 76, 127
2, 202242, Note_off_c, 1, 61, 127
2, 202245, Note_on_c, 3, 63, 127
2, 202245, Note_on_c, 7, 67, 127
2, 202245, Note_on_c, 3, 75, 127
2, 202441, Note_off_c, 7, 67, 127
2, 202444, Note_on_c, 8, 68, 127
2, 202639, Note_off_c, 3, 75, 127
2, 202639, Note_off_c, 3, 63, 127
2, 202640, Note_off_c, 8, 68, 127
2, 202642, Note_on_c, 4, 64, 127
2, 202642, Note_on_c, 11, 70, 127
2, 202642, Note_on_c, 1, 73, 127
2, 203034, Note_off_c, 1, 73, 127
2, 203034, Note_off_c, 11, 70, 127
2, 203037, Note_on_c, 8, 68, 127
2, 203037, Note_on_c, 7, 79, 127
2, 203233, Note_off_c, 8, 68, 127
2, 203236, Note_on_c, 11, 70, 127
2, 203431, Note_off_c, 7, 79, 127
2, 203431, Note_off_c, 4, 64, 127
2, 203432, Note_off_c, 11, 70, 127
2, 203435, Note_on_c, 3, 63, 127
2, 203435, Note_on_c, 12, 71, 127
2, 203435, Note_on_c, 8, 80, 127
2, 203827, Note_off_c, 8, 80, 127
2, 203827, Note_off_c, 12, 71, 127
2, 203830, Note_on_c, 8, 68, 127
2, 203830, Note_on_c, 12, 71, 127
2, 204222, Note_off_c, 12, 71, 127
2, 204222, Note_off_c, 8, 68, 127
2, 204222, Note_off_c, 3, 63, 127
2, 204224, Note_on_c, 4, 64, 127
2, 204224, Note_on_c, 10, 69, 127
2, 204224, Note_on_c, 1, 73, 127
2, 204616, Note_off_c, 1, 73, 127
2, 204619, Note_on_c, 1, 73, 127
2, 205011, Note_off_c, 1, 73, 127
2, 205011, Note_off_c, 10, 69, 127
2, 205011, Note_off_c, 4, 64, 127
2, 205011, Note_off_c, 8, 56, 127
2, 205014, Note_on_c, 6, 54, 127
2, 205014, Note_on_c, 6, 66, 127
2, 205014, Note_on_c, 10, 69, 127
2, 205014, Note_on_c, 3, 75, 127
2, 205406, Note_off_c, 3, 75, 127
2, 205409, Note_on_c, 3, 75, 127
2, 205801, Note_off_c, 3, 75, 127
2, 205801, Note_off_c, 10, 69, 127
2, 205801, Note_off_c, 6, 66, 127
2, 205804, Note_on_c, 0, 60, 127
2, 205804, Note_on_c, 3, 63, 127
2, 205804, Note_on_c, 8, 68, 127
2, 206196, Note_off_c, 8, 68, 127
2, 206199, Note_on_c, 0, 72, 127
2, 206585, Note_off_c, 3, 63, 127
2, 206585, Note_off_c, 0, 60, 127
2, 206590, Note_off_c, 6, 54, 127
2, 206591, Note_off_c, 0, 72, 127
2, 206593, Note_on_c, 1, 73, 127
2, 207018, Note_on_c, 8, 68, 127
2, 207018, Note_on_c, 4, 64, 127
2, 207018, Note_on_c, 4, 52, 127
2, 207423, Note_off_c, 4, 52, 127
2, 207423, Note_off_c, 4, 64, 127
2, 207423, Note_off_c, 8, 68, 127
2, 207426, Note_on_c, 11, 70, 127
2, 207426, Note_on_c, 3, 63, 127
2, 207426, Note_on_c, 7, 43, 127
2, 207831, Note_off_c, 7, 43, 127
2, 207834, Note_on_c, 7, 43, 127
2, 208222, Note_off_c, 1, 73, 127
2, 208239, Note_off_c, 7, 43, 127
2, 208239, Note_off_c, 3, 63, 127
2, 208239, Note_off_c, 11, 70, 127
2, 208242, Note_on_c, 12, 71, 127
2, 208242, Note_on_c, 8, 68, 127
2, 208242, Note_on_c, 3, 63, 127
2, 208242, Note_on_c, 8, 44, 127
2, 208647, Note_off_c, 8, 44, 127
2, 208647, Note_off_c, 8, 68, 127
2, 208650, Note_on_c, 6, 66, 127
2, 208650, Note_on_c, 8, 44, 127
2, 209055, Note_off_c, 8, 44, 127
2, 209055, Note_off_c, 6, 66, 127
2, 209055, Note_off_c, 3, 63, 127
2, 209058, Note_on_c, 4, 64, 127
2, 209058, Note_on_c, 1, 61, 127
2, 209058, Note_on_c, 1, 37, 127
2, 209471, Note_off_c, 1, 37, 127
2, 209471, Note_off_c, 4, 64, 127
2, 209474, Note_on_c, 3, 63, 127
2, 209474, Note_on_c, 3, 39, 127
2, 209882, Note_off_c, 1, 61, 127
2, 209887, Note_off_c, 3, 39, 127
2, 209887, Note_off_c, 3, 63, 127
2, 209887, Note_off_c, 12, 71, 127
2, 209890, Note_on_c, 11, 70, 127
2, 209890, Note_on_c, 1, 61, 127
2, 209890, Note_on_c, 4, 40, 127
2, 210303, Note_off_c, 11, 70, 127
2, 210306, Note_on_c, 8, 68, 127
2, 210306, Note_on_c, 1, 49, 127
2, 210719, Note_off_c, 1, 49, 127
2, 210719, Note_off_c, 8, 68, 127
2, 210719, Note_off_c, 4, 40, 127
2, 210722, Note_on_c, 7, 67, 127
2, 210722, Note_on_c, 3, 51, 127
2, 210722, Note_on_c, 3, 39, 127
2, 211177, Note_off_c, 7, 67, 127
2, 211177, Note_off_c, 1, 61, 127
2, 211181, Note_on_c, 8, 68, 127
2, 211181, Note_on_c, 12, 59, 127
2, 211636, Note_off_c, 12, 59, 127
2, 211639, Note_on_c, 11, 58, 127
2, 212135, Note_off_c, 8, 68, 127
2, 212137, Note_on_c, 7, 67, 127
2, 212632, Note_off_c, 7, 67, 127
2, 212632, Note_off_c, 11, 58, 127
2, 212632, Note_off_c, 3, 39, 127
2, 212632, Note_off_c, 3, 51, 127
2, 212636, Note_on_c, 8, 68, 127
2, 212636, Note_on_c, 12, 59, 127
2, 212636, Note_on_c, 3, 51, 127
2, 212636, Note_on_c, 8, 44, 127
2, 216613, Note_off_c, 8, 44, 127
2, 216613, Note_off_c, 3, 51, 127
2, 216613, Note_off_c, 12, 59, 127
2, 216613, Note_off_c, 8, 68, 127
2, 221184, End_track
3, 0, Start_track
3, 0, Title_t, "MIDI"
3, 1536, End_track
0, 0, End_of_file
