0, 0, Header, 1, 3, 384
1, 0, Start_track
1, 0, Time_signature, 4, 2, 24, 8
1, 0, Tempo, 500000
1, 207360, End_track
2, 0, Start_track
2, 0, Text_t, "harpsichord: John Sankey"
2, 0, Program_c, 0, 6
2, 0, Pitch_bend_c, 0, 8192
2, 0, Program_c, 1, 6
2, 0, Pitch_bend_c, 1, 7792
2, 0, Program_c, 2, 6
2, 0, Pitch_bend_c, 2, 7876
2, 0, Program_c, 3, 6
2, 0, Pitch_bend_c, 3, 7952
2, 0, Program_c, 4, 6
2, 0, Pitch_bend_c, 4, 7792
2, 0, Program_c, 5, 6
2, 0, Pitch_bend_c, 5, 8112
2, 0, Program_c, 6, 6
2, 0, Pitch_bend_c, 6, 7712
2, 0, Program_c, 7, 6
2, 0, Pitch_bend_c, 7, 8037
2, 0, Program_c, 8, 6
2, 0, Pitch_bend_c, 8, 7872
2, 0, Program_c, 10, 6
2, 0, Pitch_bend_c, 10, 7712
2, 0, Program_c, 11, 6
2, 0, Pitch_bend_c, 11, 8032
2, 0, Program_c, 12, 6
2, 0, Pitch_bend_c, 12, 7872
2, 0, Title_t, "Track 1"
2, 0, Note_on_c, 1, 49, 127
2, 0, Note_on_c, 8, 56, 127
2, 191, Note_on_c, 5, 65, 127
2, 380, Note_off_c, 5, 65, 127
2, 380, Note_off_c, 8, 56, 127
2, 382, Note_on_c, 8, 56, 127
2, 382, Note_on_c, 8, 68, 127
2, 571, Note_off_c, 8, 68, 127
2, 573, Note_on_c, 1, 73, 127
2, 762, Note_off_c, 8, 56, 127
2, 764, Note_off_c, 1, 49, 127
2, 764, Note_on_c, 1, 61, 127
2, 764, Note_on_c, 8, 68, 127
2, 953, Note_off_c, 8, 68, 127
2, 955, Note_on_c, 6, 66, 127
2, 1144, Note_off_c, 6, 66, 127
2, 1144, Note_off_c, 1, 61, 127
2, 1146, Note_on_c, 1, 61, 127
2, 1146, Note_on_c, 8, 68, 127
2, 1335, Note_off_c, 8, 68, 127
2, 1337, Note_on_c, 5, 65, 127
2, 1508, Note_off_c, 1, 73, 127
2, 1526, Note_off_c, 1, 61, 127
2, 1528, Note_on_c, 1, 49, 127
2, 1528, Note_on_c, 12, 59, 127
2, 1530, Note_off_c, 5, 65, 127
2, 1719, Note_on_c, 5, 65, 127
2, 1908, Note_off_c, 5, 65, 127
2, 1908, Note_off_c, 12, 59, 127
2, 1910, Note_on_c, 12, 59, 127
2, 1910, Note_on_c, 8, 68, 127
2, 2099, Note_off_c, 8, 68, 127
2, 2101, Note_on_c, 1, 73, 127
2, 2290, Note_off_c, 12, 59, 127
2, 2292, Note_off_c, 1, 49, 127
2, 2292, Note_on_c, 12, 59, 127
2, 2292, Note_on_c, 8, 68, 127
2, 2481, Note_off_c, 8, 68, 127
2, 2483, Note_on_c, 6, 66, 127
2, 2672, Note_off_c, 6, 66, 127
2, 2672, Note_off_c, 12, 59, 127
2, 2674, Note_on_c, 12, 59, 127
2, 2674, Note_on_c, 8, 68, 127
2, 2863, Note_off_c, 8, 68, 127
2, 2865, Note_on_c, 5, 65, 127
2, 3036, Note_off_c, 1, 73, 127
2, 3054, Note_off_c, 12, 59, 127
2, 3056, Note_on_c, 11, 58, 127
2, 3056, Note_on_c, 1, 49, 127
2, 3058, Note_off_c, 5, 65, 127
2, 3247, Note_on_c, 6, 66, 127
2, 3436, Note_off_c, 6, 66, 127
2, 3436, Note_off_c, 11, 58, 127
2, 3438, Note_on_c, 11, 58, 127
2, 3438, Note_on_c, 11, 70, 127
2, 3627, Note_off_c, 11, 70, 127
2, 3629, Note_on_c, 1, 73, 127
2, 3818, Note_off_c, 11, 58, 127
2, 3820, Note_off_c, 1, 49, 127
2, 3820, Note_on_c, 6, 54, 127
2, 3820, Note_on_c, 11, 70, 127
2, 4009, Note_off_c, 11, 70, 127
2, 4011, Note_on_c, 8, 68, 127
2, 4200, Note_off_c, 8, 68, 127
2, 4200, Note_off_c, 6, 54, 127
2, 4202, Note_on_c, 6, 54, 127
2, 4202, Note_on_c, 11, 70, 127
2, 4391, Note_off_c, 11, 70, 127
2, 4393, Note_on_c, 6, 66, 127
2, 4564, Note_off_c, 1, 73, 127
2, 4582, Note_off_c, 6, 54, 127
2, 4584, Note_on_c, 1, 49, 127
2, 4584, Note_on_c, 0, 60, 127
2, 4586, Note_off_c, 6, 66, 127
2, 4776, Note_on_c, 6, 66, 127
2, 4964, Note_off_c, 0, 60, 127
2, 4965, Note_off_c, 6, 66, 127
2, 4967, Note_on_c, 0, 60, 127
2, 4967, Note_on_c, 8, 68, 127
2, 5156, Note_off_c, 8, 68, 127
2, 5158, Note_on_c, 3, 75, 127
2, 5347, Note_off_c, 0, 60, 127
2, 5348, Note_off_c, 1, 49, 127
2, 5349, Note_on_c, 0, 60, 127
2, 5349, Note_on_c, 8, 68, 127
2, 5538, Note_off_c, 8, 68, 127
2, 5540, Note_on_c, 6, 66, 127
2, 5729, Note_off_c, 6, 66, 127
2, 5729, Note_off_c, 0, 60, 127
2, 5731, Note_on_c, 0, 60, 127
2, 5731, Note_on_c, 8, 68, 127
2, 5920, Note_off_c, 8, 68, 127
2, 5922, Note_on_c, 6, 66, 127
2, 6093, Note_off_c, 3, 75, 127
2, 6111, Note_off_c, 0, 60, 127
2, 6113, Note_on_c, 1, 49, 127
2, 6113, Note_on_c, 1, 61, 127
2, 6115, Note_off_c, 6, 66, 127
2, 6304, Note_on_c, 5, 65, 127
2, 6493, Note_off_c, 5, 65, 127
2, 6493, Note_off_c, 1, 61, 127
2, 6495, Note_on_c, 1, 61, 127
2, 6495, Note_on_c, 8, 68, 127
2, 6684, Note_off_c, 8, 68, 127
2, 6686, Note_on_c, 3, 75, 127
2, 6875, Note_off_c, 1, 61, 127
2, 6877, Note_off_c, 1, 49, 127
2, 6877, Note_on_c, 1, 61, 127
2, 6877, Note_on_c, 8, 68, 127
2, 7066, Note_off_c, 8, 68, 127
2, 7068, Note_on_c, 6, 66, 127
2, 7257, Note_off_c, 6, 66, 127
2, 7257, Note_off_c, 1, 61, 127
2, 7259, Note_on_c, 1, 61, 127
2, 7259, Note_on_c, 8, 68, 127
2, 7448, Note_off_c, 8, 68, 127
2, 7450, Note_on_c, 6, 66, 127
2, 7621, Note_off_c, 3, 75, 127
2, 7639, Note_off_c, 1, 61, 127
2, 7641, Note_on_c, 8, 56, 127
2, 7641, Note_on_c, 1, 49, 127
2, 7643, Note_off_c, 6, 66, 127
2, 7832, Note_on_c, 5, 65, 127
2, 8021, Note_off_c, 5, 65, 127
2, 8021, Note_off_c, 8, 56, 127
2, 8023, Note_on_c, 8, 56, 127
2, 8023, Note_on_c, 8, 68, 127
2, 8212, Note_off_c, 8, 68, 127
2, 8214, Note_on_c, 1, 73, 127
2, 8403, Note_off_c, 8, 56, 127
2, 8405, Note_off_c, 1, 49, 127
2, 8405, Note_on_c, 5, 53, 127
2, 8405, Note_on_c, 8, 68, 127
2, 8594, Note_off_c, 8, 68, 127
2, 8596, Note_on_c, 6, 66, 127
2, 8785, Note_off_c, 6, 66, 127
2, 8785, Note_off_c, 5, 53, 127
2, 8787, Note_on_c, 5, 53, 127
2, 8787, Note_on_c, 8, 68, 127
2, 8976, Note_off_c, 8, 68, 127
2, 8978, Note_on_c, 5, 65, 127
2, 9149, Note_off_c, 1, 73, 127
2, 9167, Note_off_c, 5, 53, 127
2, 9169, Note_on_c, 1, 49, 127
2, 9169, Note_on_c, 11, 58, 127
2, 9171, Note_off_c, 5, 65, 127
2, 9360, Note_on_c, 3, 63, 127
2, 9549, Note_off_c, 3, 63, 127
2, 9549, Note_off_c, 11, 58, 127
2, 9552, Note_on_c, 11, 58, 127
2, 9552, Note_on_c, 7, 67, 127
2, 9741, Note_off_c, 7, 67, 127
2, 9743, Note_on_c, 11, 70, 127
2, 9932, Note_off_c, 11, 58, 127
2, 9933, Note_off_c, 1, 49, 127
2, 9934, Note_on_c, 11, 58, 127
2, 9934, Note_on_c, 7, 67, 127
2, 10123, Note_off_c, 7, 67, 127
2, 10125, Note_on_c, 5, 65, 127
2, 10314, Note_off_c, 5, 65, 127
2, 10314, Note_off_c, 11, 58, 127
2, 10316, Note_on_c, 11, 58, 127
2, 10316, Note_on_c, 7, 67, 127
2, 10505, Note_off_c, 7, 67, 127
2, 10507, Note_on_c, 3, 63, 127
2, 10678, Note_off_c, 11, 70, 127
2, 10696, Note_off_c, 11, 58, 127
2, 10698, Note_on_c, 8, 56, 127
2, 10698, Note_on_c, 0, 48, 127
2, 10700, Note_off_c, 3, 63, 127
2, 10889, Note_on_c, 3, 63, 127
2, 11078, Note_off_c, 3, 63, 127
2, 11078, Note_off_c, 8, 56, 127
2, 11080, Note_on_c, 8, 56, 127
2, 11080, Note_on_c, 8, 68, 127
2, 11269, Note_off_c, 8, 68, 127
2, 11271, Note_on_c, 0, 72, 127
2, 11460, Note_off_c, 8, 56, 127
2, 11462, Note_off_c, 0, 48, 127
2, 11462, Note_on_c, 3, 51, 127
2, 11462, Note_on_c, 8, 68, 127
2, 11651, Note_off_c, 8, 68, 127
2, 11653, Note_on_c, 7, 67, 127
2, 11842, Note_off_c, 7, 67, 127
2, 11842, Note_off_c, 3, 51, 127
2, 11844, Note_on_c, 8, 56, 127
2, 11844, Note_on_c, 8, 68, 127
2, 12033, Note_off_c, 8, 68, 127
2, 12035, Note_on_c, 3, 63, 127
2, 12206, Note_off_c, 0, 72, 127
2, 12224, Note_off_c, 8, 56, 127
2, 12226, Note_on_c, 11, 46, 127
2, 12226, Note_on_c, 8, 56, 127
2, 12228, Note_off_c, 3, 63, 127
2, 12417, Note_on_c, 5, 65, 127
2, 12606, Note_off_c, 5, 65, 127
2, 12606, Note_off_c, 8, 56, 127
2, 12608, Note_on_c, 8, 56, 127
2, 12608, Note_on_c, 11, 70, 127
2, 12797, Note_off_c, 11, 70, 127
2, 12799, Note_on_c, 1, 73, 127
2, 12988, Note_off_c, 8, 56, 127
2, 12990, Note_off_c, 11, 46, 127
2, 12990, Note_on_c, 8, 56, 127
2, 12990, Note_on_c, 11, 70, 127
2, 13179, Note_off_c, 11, 70, 127
2, 13181, Note_on_c, 8, 68, 127
2, 13370, Note_off_c, 8, 68, 127
2, 13370, Note_off_c, 8, 56, 127
2, 13372, Note_on_c, 8, 56, 127
2, 13372, Note_on_c, 11, 70, 127
2, 13561, Note_off_c, 11, 70, 127
2, 13563, Note_on_c, 5, 65, 127
2, 13734, Note_off_c, 1, 73, 127
2, 13752, Note_off_c, 8, 56, 127
2, 13754, Note_on_c, 7, 55, 127
2, 13754, Note_on_c, 3, 51, 127
2, 13756, Note_off_c, 5, 65, 127
2, 13945, Note_on_c, 3, 63, 127
2, 14134, Note_off_c, 3, 63, 127
2, 14134, Note_off_c, 7, 55, 127
2, 14136, Note_on_c, 7, 55, 127
2, 14136, Note_on_c, 11, 70, 127
2, 14325, Note_off_c, 11, 70, 127
2, 14328, Note_on_c, 1, 73, 127
2, 14516, Note_off_c, 7, 55, 127
2, 14518, Note_off_c, 3, 51, 127
2, 14519, Note_on_c, 7, 55, 127
2, 14519, Note_on_c, 11, 70, 127
2, 14708, Note_off_c, 11, 70, 127
2, 14710, Note_on_c, 8, 68, 127
2, 14899, Note_off_c, 8, 68, 127
2, 14899, Note_off_c, 7, 55, 127
2, 14901, Note_on_c, 7, 55, 127
2, 14901, Note_on_c, 11, 70, 127
2, 15090, Note_off_c, 11, 70, 127
2, 15092, Note_on_c, 3, 63, 127
2, 15263, Note_off_c, 1, 73, 127
2, 15281, Note_off_c, 7, 55, 127
2, 15283, Note_on_c, 8, 44, 127
2, 15283, Note_on_c, 8, 56, 127
2, 15285, Note_off_c, 3, 63, 127
2, 15474, Note_on_c, 3, 63, 127
2, 15663, Note_off_c, 3, 63, 127
2, 15663, Note_off_c, 8, 56, 127
2, 15665, Note_on_c, 7, 55, 127
2, 15665, Note_on_c, 11, 70, 127
2, 15854, Note_off_c, 11, 70, 127
2, 15856, Note_on_c, 1, 73, 127
2, 16045, Note_off_c, 7, 55, 127
2, 16047, Note_off_c, 8, 44, 127
2, 16047, Note_on_c, 5, 53, 127
2, 16047, Note_on_c, 11, 70, 127
2, 16236, Note_off_c, 11, 70, 127
2, 16238, Note_on_c, 8, 68, 127
2, 16427, Note_off_c, 8, 68, 127
2, 16427, Note_off_c, 5, 53, 127
2, 16429, Note_on_c, 7, 55, 127
2, 16429, Note_on_c, 11, 70, 127
2, 16618, Note_off_c, 11, 70, 127
2, 16620, Note_on_c, 3, 63, 127
2, 16791, Note_off_c, 1, 73, 127
2, 16809, Note_off_c, 7, 55, 127
2, 16811, Note_on_c, 8, 44, 127
2, 16811, Note_on_c, 8, 56, 127
2, 16813, Note_off_c, 3, 63, 127
2, 17002, Note_on_c, 3, 63, 127
2, 17191, Note_off_c, 3, 63, 127
2, 17191, Note_off_c, 8, 56, 127
2, 17193, Note_on_c, 8, 56, 127
2, 17193, Note_on_c, 8, 68, 127
2, 17382, Note_off_c, 8, 68, 127
2, 17384, Note_on_c, 0, 72, 127
2, 17573, Note_off_c, 8, 56, 127
2, 17575, Note_off_c, 8, 44, 127
2, 17575, Note_on_c, 0, 60, 127
2, 17575, Note_on_c, 8, 68, 127
2, 17764, Note_off_c, 8, 68, 127
2, 17766, Note_on_c, 7, 67, 127
2, 17955, Note_off_c, 7, 67, 127
2, 17955, Note_off_c, 0, 60, 127
2, 17957, Note_on_c, 0, 60, 127
2, 17957, Note_on_c, 8, 68, 127
2, 18146, Note_off_c, 8, 68, 127
2, 18148, Note_on_c, 3, 63, 127
2, 18319, Note_off_c, 0, 72, 127
2, 18337, Note_off_c, 0, 60, 127
2, 18339, Note_on_c, 8, 44, 127
2, 18339, Note_on_c, 11, 58, 127
2, 18341, Note_off_c, 3, 63, 127
2, 18530, Note_on_c, 5, 65, 127
2, 18719, Note_off_c, 5, 65, 127
2, 18719, Note_off_c, 11, 58, 127
2, 18721, Note_on_c, 5, 53, 127
2, 18721, Note_on_c, 11, 70, 127
2, 18910, Note_off_c, 11, 70, 127
2, 18912, Note_on_c, 2, 74, 127
2, 19101, Note_off_c, 5, 53, 127
2, 19103, Note_off_c, 8, 44, 127
2, 19104, Note_on_c, 5, 53, 127
2, 19104, Note_on_c, 11, 70, 127
2, 19293, Note_off_c, 11, 70, 127
2, 19295, Note_on_c, 8, 68, 127
2, 19484, Note_off_c, 8, 68, 127
2, 19484, Note_off_c, 5, 53, 127
2, 19486, Note_on_c, 2, 50, 127
2, 19486, Note_on_c, 11, 70, 127
2, 19675, Note_off_c, 11, 70, 127
2, 19677, Note_on_c, 5, 65, 127
2, 19847, Note_off_c, 2, 74, 127
2, 19866, Note_off_c, 2, 50, 127
2, 19868, Note_on_c, 3, 51, 127
2, 19868, Note_on_c, 6, 42, 127
2, 19870, Note_off_c, 5, 65, 127
2, 20059, Note_on_c, 3, 63, 127
2, 20248, Note_off_c, 3, 63, 127
2, 20248, Note_off_c, 3, 51, 127
2, 20250, Note_on_c, 3, 51, 127
2, 20250, Note_on_c, 11, 70, 127
2, 20439, Note_off_c, 11, 70, 127
2, 20441, Note_on_c, 3, 75, 127
2, 20630, Note_off_c, 3, 51, 127
2, 20632, Note_off_c, 6, 42, 127
2, 20632, Note_on_c, 6, 54, 127
2, 20632, Note_on_c, 11, 70, 127
2, 20821, Note_off_c, 11, 70, 127
2, 20823, Note_on_c, 8, 68, 127
2, 21012, Note_off_c, 8, 68, 127
2, 21012, Note_off_c, 6, 54, 127
2, 21014, Note_on_c, 6, 54, 127
2, 21014, Note_on_c, 11, 70, 127
2, 21203, Note_off_c, 11, 70, 127
2, 21205, Note_on_c, 3, 63, 127
2, 21376, Note_off_c, 3, 75, 127
2, 21394, Note_off_c, 6, 54, 127
2, 21396, Note_on_c, 0, 48, 127
2, 21396, Note_on_c, 5, 41, 127
2, 21398, Note_off_c, 3, 63, 127
2, 21587, Note_on_c, 5, 65, 127
2, 21776, Note_off_c, 5, 65, 127
2, 21776, Note_off_c, 0, 48, 127
2, 21778, Note_on_c, 0, 48, 127
2, 21778, Note_on_c, 10, 69, 127
2, 21967, Note_off_c, 10, 69, 127
2, 21969, Note_on_c, 3, 75, 127
2, 22158, Note_off_c, 0, 48, 127
2, 22160, Note_off_c, 5, 41, 127
2, 22160, Note_on_c, 5, 53, 127
2, 22160, Note_on_c, 10, 69, 127
2, 22349, Note_off_c, 10, 69, 127
2, 22351, Note_on_c, 7, 67, 127
2, 22540, Note_off_c, 7, 67, 127
2, 22540, Note_off_c, 5, 53, 127
2, 22542, Note_on_c, 5, 53, 127
2, 22542, Note_on_c, 10, 69, 127
2, 22731, Note_off_c, 10, 69, 127
2, 22733, Note_on_c, 5, 65, 127
2, 22904, Note_off_c, 3, 75, 127
2, 22922, Note_off_c, 5, 53, 127
2, 22924, Note_on_c, 11, 46, 127
2, 22924, Note_on_c, 5, 53, 127
2, 22926, Note_off_c, 5, 65, 127
2, 23115, Note_on_c, 5, 65, 127
2, 23304, Note_off_c, 5, 65, 127
2, 23304, Note_off_c, 5, 53, 127
2, 23306, Note_on_c, 5, 53, 127
2, 23306, Note_on_c, 11, 70, 127
2, 23495, Note_off_c, 11, 70, 127
2, 23497, Note_on_c, 1, 73, 127
2, 23686, Note_off_c, 5, 53, 127
2, 23688, Note_off_c, 11, 46, 127
2, 23688, Note_on_c, 1, 61, 127
2, 23688, Note_on_c, 11, 70, 127
2, 23877, Note_off_c, 11, 70, 127
2, 23880, Note_on_c, 10, 69, 127
2, 24068, Note_off_c, 1, 61, 127
2, 24069, Note_off_c, 10, 69, 127
2, 24071, Note_on_c, 1, 61, 127
2, 24071, Note_on_c, 11, 70, 127
2, 24260, Note_off_c, 11, 70, 127
2, 24262, Note_on_c, 5, 65, 127
2, 24432, Note_off_c, 1, 73, 127
2, 24451, Note_off_c, 1, 61, 127
2, 24453, Note_on_c, 0, 60, 127
2, 24453, Note_on_c, 11, 58, 127
2, 24455, Note_off_c, 5, 65, 127
2, 24644, Note_on_c, 6, 66, 127
2, 24833, Note_off_c, 6, 66, 127
2, 24833, Note_off_c, 0, 60, 127
2, 24835, Note_on_c, 6, 66, 127
2, 24835, Note_on_c, 0, 72, 127
2, 25024, Note_off_c, 0, 72, 127
2, 25026, Note_on_c, 3, 75, 127
2, 25215, Note_off_c, 6, 66, 127
2, 25217, Note_off_c, 11, 58, 127
2, 25217, Note_on_c, 3, 63, 127
2, 25217, Note_on_c, 0, 72, 127
2, 25406, Note_off_c, 0, 72, 127
2, 25408, Note_on_c, 11, 70, 127
2, 25597, Note_off_c, 11, 70, 127
2, 25597, Note_off_c, 3, 63, 127
2, 25599, Note_on_c, 0, 60, 127
2, 25599, Note_on_c, 0, 72, 127
2, 25788, Note_off_c, 0, 72, 127
2, 25790, Note_on_c, 6, 66, 127
2, 25961, Note_off_c, 3, 75, 127
2, 25979, Note_off_c, 0, 60, 127
2, 25981, Note_on_c, 8, 56, 127
2, 25981, Note_on_c, 5, 65, 127
2, 25983, Note_off_c, 6, 66, 127
2, 26172, Note_on_c, 8, 68, 127
2, 26361, Note_off_c, 8, 68, 127
2, 26361, Note_off_c, 5, 65, 127
2, 26363, Note_on_c, 5, 65, 127
2, 26363, Note_on_c, 0, 72, 127
2, 26552, Note_off_c, 0, 72, 127
2, 26554, Note_on_c, 5, 77, 127
2, 26743, Note_off_c, 5, 65, 127
2, 26745, Note_off_c, 8, 56, 127
2, 26745, Note_on_c, 5, 65, 127
2, 26745, Note_on_c, 0, 72, 127
2, 26934, Note_off_c, 0, 72, 127
2, 26936, Note_on_c, 11, 70, 127
2, 27125, Note_off_c, 11, 70, 127
2, 27125, Note_off_c, 5, 65, 127
2, 27127, Note_on_c, 5, 65, 127
2, 27127, Note_on_c, 0, 72, 127
2, 27316, Note_off_c, 0, 72, 127
2, 27318, Note_on_c, 8, 68, 127
2, 27489, Note_off_c, 5, 77, 127
2, 27507, Note_off_c, 5, 65, 127
2, 27509, Note_on_c, 1, 61, 127
2, 27509, Note_on_c, 11, 58, 127
2, 27511, Note_off_c, 8, 68, 127
2, 27700, Note_on_c, 6, 66, 127
2, 27889, Note_off_c, 6, 66, 127
2, 27889, Note_off_c, 1, 61, 127
2, 27891, Note_on_c, 1, 61, 127
2, 27891, Note_on_c, 1, 73, 127
2, 28080, Note_off_c, 1, 73, 127
2, 28082, Note_on_c, 5, 77, 127
2, 28271, Note_off_c, 1, 61, 127
2, 28273, Note_off_c, 11, 58, 127
2, 28273, Note_on_c, 11, 58, 127
2, 28273, Note_on_c, 1, 73, 127
2, 28462, Note_off_c, 1, 73, 127
2, 28464, Note_on_c, 0, 72, 127
2, 28653, Note_off_c, 0, 72, 127
2, 28653, Note_off_c, 11, 58, 127
2, 28656, Note_on_c, 11, 58, 127
2, 28656, Note_on_c, 1, 73, 127
2, 28845, Note_off_c, 1, 73, 127
2, 28847, Note_on_c, 6, 66, 127
2, 29017, Note_off_c, 5, 77, 127
2, 29036, Note_off_c, 11, 58, 127
2, 29038, Note_on_c, 3, 63, 127
2, 29038, Note_on_c, 0, 60, 127
2, 29040, Note_off_c, 6, 66, 127
2, 29229, Note_on_c, 6, 66, 127
2, 29418, Note_off_c, 6, 66, 127
2, 29418, Note_off_c, 3, 63, 127
2, 29420, Note_on_c, 3, 63, 127
2, 29420, Note_on_c, 8, 68, 127
2, 29609, Note_off_c, 8, 68, 127
2, 29611, Note_on_c, 3, 75, 127
2, 29798, Note_off_c, 0, 60, 127
2, 29800, Note_off_c, 3, 63, 127
2, 29802, Note_on_c, 0, 60, 127
2, 29802, Note_on_c, 8, 68, 127
2, 29991, Note_off_c, 8, 68, 127
2, 29993, Note_on_c, 6, 66, 127
2, 30182, Note_off_c, 6, 66, 127
2, 30182, Note_off_c, 0, 60, 127
2, 30184, Note_on_c, 0, 60, 127
2, 30184, Note_on_c, 8, 68, 127
2, 30373, Note_off_c, 8, 68, 127
2, 30375, Note_on_c, 6, 66, 127
2, 30546, Note_off_c, 3, 75, 127
2, 30564, Note_off_c, 0, 60, 127
2, 30566, Note_on_c, 8, 56, 127
2, 30566, Note_on_c, 5, 53, 127
2, 30568, Note_off_c, 6, 66, 127
2, 30757, Note_on_c, 6, 66, 127
2, 30946, Note_off_c, 6, 66, 127
2, 30946, Note_off_c, 8, 56, 127
2, 30948, Note_on_c, 8, 56, 127
2, 30948, Note_on_c, 8, 68, 127
2, 31137, Note_off_c, 8, 68, 127
2, 31139, Note_on_c, 3, 75, 127
2, 31328, Note_off_c, 8, 56, 127
2, 31330, Note_off_c, 5, 53, 127
2, 31330, Note_on_c, 0, 60, 127
2, 31330, Note_on_c, 8, 68, 127
2, 31519, Note_off_c, 8, 68, 127
2, 31521, Note_on_c, 6, 66, 127
2, 31710, Note_off_c, 6, 66, 127
2, 31710, Note_off_c, 0, 60, 127
2, 31712, Note_on_c, 0, 60, 127
2, 31712, Note_on_c, 8, 68, 127
2, 31901, Note_off_c, 8, 68, 127
2, 31903, Note_on_c, 6, 66, 127
2, 32074, Note_off_c, 3, 75, 127
2, 32092, Note_off_c, 0, 60, 127
2, 32094, Note_on_c, 5, 53, 127
2, 32094, Note_on_c, 1, 61, 127
2, 32096, Note_off_c, 6, 66, 127
2, 32285, Note_on_c, 5, 65, 127
2, 32474, Note_off_c, 5, 65, 127
2, 32474, Note_off_c, 1, 61, 127
2, 32476, Note_on_c, 1, 61, 127
2, 32476, Note_on_c, 8, 68, 127
2, 32665, Note_off_c, 8, 68, 127
2, 32667, Note_on_c, 1, 73, 127
2, 32856, Note_off_c, 1, 61, 127
2, 32858, Note_off_c, 5, 53, 127
2, 32858, Note_on_c, 12, 59, 127
2, 32858, Note_on_c, 8, 68, 127
2, 33047, Note_off_c, 8, 68, 127
2, 33049, Note_on_c, 6, 66, 127
2, 33238, Note_off_c, 6, 66, 127
2, 33238, Note_off_c, 12, 59, 127
2, 33240, Note_on_c, 12, 59, 127
2, 33240, Note_on_c, 8, 68, 127
2, 33429, Note_off_c, 8, 68, 127
2, 33432, Note_on_c, 5, 65, 127
2, 33602, Note_off_c, 1, 73, 127
2, 33620, Note_off_c, 12, 59, 127
2, 33623, Note_on_c, 11, 58, 127
2, 33623, Note_on_c, 6, 54, 127
2, 33625, Note_off_c, 5, 65, 127
2, 33814, Note_on_c, 3, 63, 127
2, 34003, Note_off_c, 3, 63, 127
2, 34003, Note_off_c, 11, 58, 127
2, 34005, Note_on_c, 11, 58, 127
2, 34005, Note_on_c, 6, 66, 127
2, 34194, Note_off_c, 6, 66, 127
2, 34196, Note_on_c, 1, 73, 127
2, 34385, Note_off_c, 11, 58, 127
2, 34387, Note_off_c, 6, 54, 127
2, 34387, Note_on_c, 11, 58, 127
2, 34387, Note_on_c, 6, 66, 127
2, 34576, Note_off_c, 6, 66, 127
2, 34578, Note_on_c, 5, 65, 127
2, 34767, Note_off_c, 5, 65, 127
2, 34767, Note_off_c, 11, 58, 127
2, 34769, Note_on_c, 11, 58, 127
2, 34769, Note_on_c, 6, 66, 127
2, 34958, Note_off_c, 6, 66, 127
2, 34960, Note_on_c, 3, 63, 127
2, 35131, Note_off_c, 1, 73, 127
2, 35149, Note_off_c, 11, 58, 127
2, 35151, Note_on_c, 12, 59, 127
2, 35151, Note_on_c, 8, 56, 127
2, 35153, Note_off_c, 3, 63, 127
2, 35342, Note_on_c, 3, 63, 127
2, 35531, Note_off_c, 3, 63, 127
2, 35531, Note_off_c, 12, 59, 127
2, 35533, Note_on_c, 12, 59, 127
2, 35533, Note_on_c, 6, 66, 127
2, 35722, Note_off_c, 6, 66, 127
2, 35724, Note_on_c, 12, 71, 127
2, 35913, Note_off_c, 12, 59, 127
2, 35915, Note_off_c, 8, 56, 127
2, 35915, Note_on_c, 12, 59, 127
2, 35915, Note_on_c, 6, 66, 127
2, 36104, Note_off_c, 6, 66, 127
2, 36106, Note_on_c, 5, 65, 127
2, 36295, Note_off_c, 5, 65, 127
2, 36295, Note_off_c, 12, 59, 127
2, 36297, Note_on_c, 12, 59, 127
2, 36297, Note_on_c, 6, 66, 127
2, 36486, Note_off_c, 6, 66, 127
2, 36488, Note_on_c, 3, 63, 127
2, 36659, Note_off_c, 12, 71, 127
2, 36677, Note_off_c, 12, 59, 127
2, 36679, Note_on_c, 1, 49, 127
2, 36679, Note_on_c, 8, 56, 127
2, 36681, Note_off_c, 3, 63, 127
2, 36870, Note_on_c, 1, 61, 127
2, 37059, Note_off_c, 1, 61, 127
2, 37059, Note_off_c, 8, 56, 127
2, 37061, Note_on_c, 8, 56, 127
2, 37061, Note_on_c, 5, 65, 127
2, 37250, Note_off_c, 5, 65, 127
2, 37252, Note_on_c, 12, 71, 127
2, 37441, Note_off_c, 8, 56, 127
2, 37443, Note_off_c, 1, 49, 127
2, 37443, Note_on_c, 8, 56, 127
2, 37443, Note_on_c, 5, 65, 127
2, 37632, Note_off_c, 5, 65, 127
2, 37634, Note_on_c, 3, 63, 127
2, 37823, Note_off_c, 3, 63, 127
2, 37823, Note_off_c, 8, 56, 127
2, 37825, Note_on_c, 8, 56, 127
2, 37825, Note_on_c, 5, 65, 127
2, 38014, Note_off_c, 5, 65, 127
2, 38016, Note_on_c, 1, 61, 127
2, 38187, Note_off_c, 12, 71, 127
2, 38205, Note_off_c, 8, 56, 127
2, 38208, Note_on_c, 11, 58, 127
2, 38208, Note_on_c, 6, 54, 127
2, 38209, Note_off_c, 1, 61, 127
2, 38399, Note_on_c, 1, 61, 127
2, 38588, Note_off_c, 1, 61, 127
2, 38588, Note_off_c, 11, 58, 127
2, 38590, Note_on_c, 11, 58, 127
2, 38590, Note_on_c, 6, 66, 127
2, 38779, Note_off_c, 6, 66, 127
2, 38781, Note_on_c, 11, 70, 127
2, 38970, Note_off_c, 11, 58, 127
2, 38972, Note_off_c, 6, 54, 127
2, 38972, Note_on_c, 11, 58, 127
2, 38972, Note_on_c, 6, 66, 127
2, 39161, Note_off_c, 6, 66, 127
2, 39163, Note_on_c, 5, 65, 127
2, 39352, Note_off_c, 5, 65, 127
2, 39352, Note_off_c, 11, 58, 127
2, 39354, Note_on_c, 11, 58, 127
2, 39354, Note_on_c, 6, 66, 127
2, 39543, Note_off_c, 6, 66, 127
2, 39545, Note_on_c, 1, 61, 127
2, 39716, Note_off_c, 11, 70, 127
2, 39734, Note_off_c, 11, 58, 127
2, 39736, Note_on_c, 3, 51, 127
2, 39736, Note_on_c, 0, 48, 127
2, 39738, Note_off_c, 1, 61, 127
2, 39927, Note_on_c, 3, 63, 127
2, 40116, Note_off_c, 3, 63, 127
2, 40116, Note_off_c, 3, 51, 127
2, 40118, Note_on_c, 3, 51, 127
2, 40118, Note_on_c, 6, 66, 127
2, 40307, Note_off_c, 6, 66, 127
2, 40309, Note_on_c, 8, 68, 127
2, 40498, Note_off_c, 3, 51, 127
2, 40500, Note_off_c, 0, 48, 127
2, 40500, Note_on_c, 3, 51, 127
2, 40500, Note_on_c, 6, 66, 127
2, 40689, Note_off_c, 6, 66, 127
2, 40691, Note_on_c, 5, 65, 127
2, 40880, Note_off_c, 5, 65, 127
2, 40880, Note_off_c, 3, 51, 127
2, 40882, Note_on_c, 3, 51, 127
2, 40882, Note_on_c, 6, 66, 127
2, 41071, Note_off_c, 6, 66, 127
2, 41073, Note_on_c, 3, 63, 127
2, 41244, Note_off_c, 8, 68, 127
2, 41262, Note_off_c, 3, 51, 127
2, 41264, Note_on_c, 5, 53, 127
2, 41264, Note_on_c, 2, 50, 127
2, 41266, Note_off_c, 3, 63, 127
2, 41455, Note_on_c, 11, 58, 127
2, 41644, Note_off_c, 11, 58, 127
2, 41644, Note_off_c, 5, 53, 127
2, 41646, Note_on_c, 5, 53, 127
2, 41646, Note_on_c, 5, 65, 127
2, 41835, Note_off_c, 5, 65, 127
2, 41837, Note_on_c, 8, 68, 127
2, 42026, Note_off_c, 5, 53, 127
2, 42028, Note_off_c, 2, 50, 127
2, 42028, Note_on_c, 11, 58, 127
2, 42028, Note_on_c, 5, 65, 127
2, 42217, Note_off_c, 5, 65, 127
2, 42219, Note_on_c, 3, 63, 127
2, 42408, Note_off_c, 3, 63, 127
2, 42408, Note_off_c, 11, 58, 127
2, 42410, Note_on_c, 11, 58, 127
2, 42410, Note_on_c, 5, 65, 127
2, 42599, Note_off_c, 5, 65, 127
2, 42601, Note_on_c, 2, 62, 127
2, 42772, Note_off_c, 8, 68, 127
2, 42790, Note_off_c, 11, 58, 127
2, 42792, Note_on_c, 3, 51, 127
2, 42792, Note_on_c, 12, 59, 127
2, 42794, Note_off_c, 2, 62, 127
2, 42984, Note_on_c, 2, 62, 127
2, 43172, Note_off_c, 12, 59, 127
2, 43173, Note_off_c, 2, 62, 127
2, 43175, Note_on_c, 12, 59, 127
2, 43175, Note_on_c, 5, 65, 127
2, 43364, Note_off_c, 5, 65, 127
2, 43366, Note_on_c, 8, 68, 127
2, 43555, Note_off_c, 12, 59, 127
2, 43556, Note_off_c, 3, 51, 127
2, 43557, Note_on_c, 12, 59, 127
2, 43557, Note_on_c, 5, 65, 127
2, 43746, Note_off_c, 5, 65, 127
2, 43748, Note_on_c, 3, 63, 127
2, 43937, Note_off_c, 3, 63, 127
2, 43937, Note_off_c, 12, 59, 127
2, 43939, Note_on_c, 12, 59, 127
2, 43939, Note_on_c, 5, 65, 127
2, 44128, Note_off_c, 5, 65, 127
2, 44130, Note_on_c, 2, 62, 127
2, 44301, Note_off_c, 8, 68, 127
2, 44319, Note_off_c, 12, 59, 127
2, 44321, Note_on_c, 3, 51, 127
2, 44321, Note_on_c, 11, 58, 127
2, 44323, Note_off_c, 2, 62, 127
2, 44512, Note_on_c, 1, 61, 127
2, 44701, Note_off_c, 1, 61, 127
2, 44701, Note_off_c, 11, 58, 127
2, 44703, Note_on_c, 11, 58, 127
2, 44703, Note_on_c, 3, 63, 127
2, 44892, Note_off_c, 3, 63, 127
2, 44894, Note_on_c, 7, 67, 127
2, 45083, Note_off_c, 11, 58, 127
2, 45085, Note_off_c, 3, 51, 127
2, 45085, Note_on_c, 11, 58, 127
2, 45085, Note_on_c, 3, 63, 127
2, 45274, Note_off_c, 3, 63, 127
2, 45276, Note_on_c, 1, 61, 127
2, 45465, Note_off_c, 1, 61, 127
2, 45465, Note_off_c, 11, 58, 127
2, 45467, Note_on_c, 11, 58, 127
2, 45467, Note_on_c, 3, 63, 127
2, 45656, Note_off_c, 3, 63, 127
2, 45658, Note_on_c, 1, 61, 127
2, 45829, Note_off_c, 7, 67, 127
2, 45847, Note_off_c, 11, 58, 127
2, 45849, Note_on_c, 8, 56, 127
2, 45849, Note_on_c, 5, 53, 127
2, 45851, Note_off_c, 1, 61, 127
2, 46040, Note_on_c, 0, 60, 127
2, 46229, Note_off_c, 0, 60, 127
2, 46229, Note_off_c, 8, 56, 127
2, 46231, Note_on_c, 8, 56, 127
2, 46231, Note_on_c, 3, 63, 127
2, 46420, Note_off_c, 3, 63, 127
2, 46422, Note_on_c, 6, 66, 127
2, 46611, Note_off_c, 8, 56, 127
2, 46613, Note_off_c, 5, 53, 127
2, 46613, Note_on_c, 8, 56, 127
2, 46613, Note_on_c, 3, 63, 127
2, 46802, Note_off_c, 3, 63, 127
2, 46804, Note_on_c, 1, 61, 127
2, 46993, Note_off_c, 1, 61, 127
2, 46993, Note_off_c, 8, 56, 127
2, 46995, Note_on_c, 8, 56, 127
2, 46995, Note_on_c, 3, 63, 127
2, 47184, Note_off_c, 3, 63, 127
2, 47186, Note_on_c, 0, 60, 127
2, 47357, Note_off_c, 6, 66, 127
2, 47375, Note_off_c, 8, 56, 127
2, 47377, Note_on_c, 8, 56, 127
2, 47377, Note_on_c, 1, 49, 127
2, 47379, Note_off_c, 0, 60, 127
2, 47568, Note_on_c, 12, 59, 127
2, 47757, Note_off_c, 12, 59, 127
2, 47757, Note_off_c, 8, 56, 127
2, 47760, Note_on_c, 8, 56, 127
2, 47760, Note_on_c, 1, 61, 127
2, 47949, Note_off_c, 1, 61, 127
2, 47951, Note_on_c, 5, 65, 127
2, 48140, Note_off_c, 8, 56, 127
2, 48141, Note_off_c, 1, 49, 127
2, 48142, Note_on_c, 8, 56, 127
2, 48142, Note_on_c, 1, 61, 127
2, 48331, Note_off_c, 1, 61, 127
2, 48333, Note_on_c, 12, 59, 127
2, 48522, Note_off_c, 12, 59, 127
2, 48522, Note_off_c, 8, 56, 127
2, 48524, Note_on_c, 8, 56, 127
2, 48524, Note_on_c, 1, 61, 127
2, 48713, Note_off_c, 1, 61, 127
2, 48715, Note_on_c, 12, 59, 127
2, 48886, Note_off_c, 5, 65, 127
2, 48904, Note_off_c, 8, 56, 127
2, 48906, Note_on_c, 6, 42, 127
2, 48906, Note_on_c, 6, 54, 127
2, 48908, Note_off_c, 12, 59, 127
2, 49097, Note_on_c, 11, 58, 127
2, 49286, Note_off_c, 11, 58, 127
2, 49286, Note_off_c, 6, 54, 127
2, 49288, Note_on_c, 6, 54, 127
2, 49288, Note_on_c, 1, 61, 127
2, 49477, Note_off_c, 1, 61, 127
2, 49479, Note_on_c, 5, 65, 127
2, 49668, Note_off_c, 6, 54, 127
2, 49670, Note_off_c, 6, 42, 127
2, 49670, Note_on_c, 6, 54, 127
2, 49670, Note_on_c, 1, 61, 127
2, 49859, Note_off_c, 1, 61, 127
2, 49861, Note_on_c, 0, 60, 127
2, 50050, Note_off_c, 0, 60, 127
2, 50050, Note_off_c, 6, 54, 127
2, 50052, Note_on_c, 6, 54, 127
2, 50052, Note_on_c, 1, 61, 127
2, 50241, Note_off_c, 1, 61, 127
2, 50243, Note_on_c, 11, 58, 127
2, 50414, Note_off_c, 5, 65, 127
2, 50432, Note_off_c, 6, 54, 127
2, 50434, Note_on_c, 6, 42, 127
2, 50434, Note_on_c, 6, 54, 127
2, 50436, Note_off_c, 11, 58, 127
2, 50625, Note_on_c, 11, 58, 127
2, 50814, Note_off_c, 11, 58, 127
2, 50814, Note_off_c, 6, 54, 127
2, 50816, Note_on_c, 6, 54, 127
2, 50816, Note_on_c, 1, 61, 127
2, 51005, Note_off_c, 1, 61, 127
2, 51007, Note_on_c, 3, 63, 127
2, 51196, Note_off_c, 6, 54, 127
2, 51198, Note_off_c, 6, 42, 127
2, 51198, Note_on_c, 6, 54, 127
2, 51198, Note_on_c, 1, 61, 127
2, 51387, Note_off_c, 1, 61, 127
2, 51389, Note_on_c, 0, 60, 127
2, 51578, Note_off_c, 0, 60, 127
2, 51578, Note_off_c, 6, 54, 127
2, 51580, Note_on_c, 6, 54, 127
2, 51580, Note_on_c, 1, 61, 127
2, 51769, Note_off_c, 1, 61, 127
2, 51771, Note_on_c, 11, 58, 127
2, 51942, Note_off_c, 3, 63, 127
2, 51960, Note_off_c, 6, 54, 127
2, 51962, Note_on_c, 6, 42, 127
2, 51962, Note_on_c, 3, 51, 127
2, 51964, Note_off_c, 11, 58, 127
2, 52153, Note_on_c, 8, 56, 127
2, 52342, Note_off_c, 8, 56, 127
2, 52342, Note_off_c, 3, 51, 127
2, 52344, Note_on_c, 3, 51, 127
2, 52344, Note_on_c, 0, 60, 127
2, 52533, Note_off_c, 0, 60, 127
2, 52536, Note_on_c, 3, 63, 127
2, 52724, Note_off_c, 3, 51, 127
2, 52726, Note_off_c, 6, 42, 127
2, 52727, Note_on_c, 3, 51, 127
2, 52727, Note_on_c, 0, 60, 127
2, 52916, Note_off_c, 0, 60, 127
2, 52918, Note_on_c, 11, 58, 127
2, 53107, Note_off_c, 11, 58, 127
2, 53107, Note_off_c, 3, 51, 127
2, 53109, Note_on_c, 3, 51, 127
2, 53109, Note_on_c, 0, 60, 127
2, 53298, Note_off_c, 0, 60, 127
2, 53300, Note_on_c, 8, 56, 127
2, 53471, Note_off_c, 3, 63, 127
2, 53489, Note_off_c, 3, 51, 127
2, 53491, Note_on_c, 1, 49, 127
2, 53491, Note_on_c, 5, 41, 127
2, 53493, Note_off_c, 8, 56, 127
2, 53682, Note_on_c, 8, 56, 127
2, 53871, Note_off_c, 8, 56, 127
2, 53871, Note_off_c, 1, 49, 127
2, 53873, Note_on_c, 1, 49, 127
2, 53873, Note_on_c, 1, 61, 127
2, 54062, Note_off_c, 1, 61, 127
2, 54064, Note_on_c, 5, 65, 127
2, 54253, Note_off_c, 1, 49, 127
2, 54255, Note_off_c, 5, 41, 127
2, 54255, Note_on_c, 8, 44, 127
2, 54255, Note_on_c, 1, 61, 127
2, 54444, Note_off_c, 1, 61, 127
2, 54446, Note_on_c, 0, 60, 127
2, 54635, Note_off_c, 0, 60, 127
2, 54635, Note_off_c, 8, 44, 127
2, 54637, Note_on_c, 1, 49, 127
2, 54637, Note_on_c, 1, 61, 127
2, 54826, Note_off_c, 1, 61, 127
2, 54828, Note_on_c, 8, 56, 127
2, 54999, Note_off_c, 5, 65, 127
2, 55017, Note_off_c, 1, 49, 127
2, 55019, Note_on_c, 3, 39, 127
2, 55019, Note_on_c, 1, 49, 127
2, 55021, Note_off_c, 8, 56, 127
2, 55210, Note_on_c, 11, 58, 127
2, 55399, Note_off_c, 11, 58, 127
2, 55399, Note_off_c, 1, 49, 127
2, 55401, Note_on_c, 1, 49, 127
2, 55401, Note_on_c, 3, 63, 127
2, 55590, Note_off_c, 3, 63, 127
2, 55592, Note_on_c, 6, 66, 127
2, 55781, Note_off_c, 1, 49, 127
2, 55783, Note_off_c, 3, 39, 127
2, 55783, Note_on_c, 0, 48, 127
2, 55783, Note_on_c, 3, 63, 127
2, 55972, Note_off_c, 3, 63, 127
2, 55974, Note_on_c, 1, 61, 127
2, 56163, Note_off_c, 1, 61, 127
2, 56163, Note_off_c, 0, 48, 127
2, 56165, Note_on_c, 11, 46, 127
2, 56165, Note_on_c, 3, 63, 127
2, 56354, Note_off_c, 3, 63, 127
2, 56356, Note_on_c, 11, 58, 127
2, 56527, Note_off_c, 6, 66, 127
2, 56545, Note_off_c, 11, 46, 127
2, 56547, Note_on_c, 8, 44, 127
2, 56547, Note_on_c, 0, 48, 127
2, 56549, Note_off_c, 11, 58, 127
2, 56738, Note_on_c, 8, 56, 127
2, 56927, Note_off_c, 8, 56, 127
2, 56927, Note_off_c, 0, 48, 127
2, 56929, Note_on_c, 0, 48, 127
2, 56929, Note_on_c, 3, 63, 127
2, 57118, Note_off_c, 3, 63, 127
2, 57120, Note_on_c, 6, 66, 127
2, 57309, Note_off_c, 0, 48, 127
2, 57311, Note_off_c, 8, 44, 127
2, 57312, Note_on_c, 0, 48, 127
2, 57312, Note_on_c, 3, 63, 127
2, 57501, Note_off_c, 3, 63, 127
2, 57503, Note_on_c, 1, 61, 127
2, 57692, Note_off_c, 1, 61, 127
2, 57692, Note_off_c, 0, 48, 127
2, 57694, Note_on_c, 0, 48, 127
2, 57694, Note_on_c, 3, 63, 127
2, 57883, Note_off_c, 3, 63, 127
2, 57885, Note_on_c, 8, 56, 127
2, 58055, Note_off_c, 6, 66, 127
2, 58074, Note_off_c, 0, 48, 127
2, 58076, Note_on_c, 1, 37, 127
2, 58076, Note_on_c, 1, 49, 127
2, 58078, Note_off_c, 8, 56, 127
2, 58267, Note_on_c, 8, 56, 127
2, 58456, Note_off_c, 8, 56, 127
2, 58456, Note_off_c, 1, 49, 127
2, 58458, Note_on_c, 0, 48, 127
2, 58458, Note_on_c, 3, 63, 127
2, 58647, Note_off_c, 3, 63, 127
2, 58649, Note_on_c, 6, 66, 127
2, 58838, Note_off_c, 0, 48, 127
2, 58840, Note_off_c, 1, 37, 127
2, 58840, Note_on_c, 11, 46, 127
2, 58840, Note_on_c, 3, 63, 127
2, 59029, Note_off_c, 3, 63, 127
2, 59031, Note_on_c, 1, 61, 127
2, 59220, Note_off_c, 1, 61, 127
2, 59220, Note_off_c, 11, 46, 127
2, 59222, Note_on_c, 0, 48, 127
2, 59222, Note_on_c, 3, 63, 127
2, 59411, Note_off_c, 3, 63, 127
2, 59413, Note_on_c, 8, 56, 127
2, 59584, Note_off_c, 6, 66, 127
2, 59602, Note_off_c, 0, 48, 127
2, 59604, Note_on_c, 1, 37, 127
2, 59604, Note_on_c, 1, 49, 127
2, 59606, Note_off_c, 8, 56, 127
2, 59795, Note_on_c, 8, 56, 127
2, 59984, Note_off_c, 8, 56, 127
2, 59984, Note_off_c, 1, 49, 127
2, 59986, Note_on_c, 1, 49, 127
2, 59986, Note_on_c, 1, 61, 127
2, 60175, Note_off_c, 1, 61, 127
2, 60177, Note_on_c, 5, 65, 127
2, 60366, Note_off_c, 1, 49, 127
2, 60368, Note_off_c, 1, 37, 127
2, 60368, Note_on_c, 5, 53, 127
2, 60368, Note_on_c, 1, 61, 127
2, 60557, Note_off_c, 1, 61, 127
2, 60559, Note_on_c, 0, 60, 127
2, 60748, Note_off_c, 0, 60, 127
2, 60748, Note_off_c, 5, 53, 127
2, 60750, Note_on_c, 5, 53, 127
2, 60750, Note_on_c, 1, 61, 127
2, 60939, Note_off_c, 1, 61, 127
2, 60941, Note_on_c, 8, 56, 127
2, 61112, Note_off_c, 5, 65, 127
2, 61130, Note_off_c, 5, 53, 127
2, 61132, Note_on_c, 3, 51, 127
2, 61132, Note_on_c, 1, 49, 127
2, 61134, Note_off_c, 8, 56, 127
2, 61323, Note_on_c, 11, 58, 127
2, 61512, Note_off_c, 11, 58, 127
2, 61512, Note_off_c, 3, 51, 127
2, 61514, Note_on_c, 7, 55, 127
2, 61514, Note_on_c, 3, 63, 127
2, 61703, Note_off_c, 3, 63, 127
2, 61705, Note_on_c, 7, 67, 127
2, 61894, Note_off_c, 7, 55, 127
2, 61896, Note_off_c, 1, 49, 127
2, 61896, Note_on_c, 11, 58, 127
2, 61896, Note_on_c, 3, 63, 127
2, 62085, Note_off_c, 3, 63, 127
2, 62088, Note_on_c, 1, 61, 127
2, 62276, Note_off_c, 11, 58, 127
2, 62277, Note_off_c, 1, 61, 127
2, 62279, Note_on_c, 7, 55, 127
2, 62279, Note_on_c, 3, 63, 127
2, 62468, Note_off_c, 3, 63, 127
2, 62470, Note_on_c, 11, 58, 127
2, 62640, Note_off_c, 7, 67, 127
2, 62659, Note_off_c, 7, 55, 127
2, 62661, Note_on_c, 12, 47, 127
2, 62661, Note_on_c, 3, 51, 127
2, 62663, Note_off_c, 11, 58, 127
2, 62852, Note_on_c, 12, 59, 127
2, 63041, Note_off_c, 12, 59, 127
2, 63041, Note_off_c, 3, 51, 127
2, 63043, Note_on_c, 3, 51, 127
2, 63043, Note_on_c, 3, 63, 127
2, 63232, Note_off_c, 3, 63, 127
2, 63234, Note_on_c, 8, 68, 127
2, 63423, Note_off_c, 3, 51, 127
2, 63425, Note_off_c, 12, 47, 127
2, 63425, Note_on_c, 8, 56, 127
2, 63425, Note_on_c, 3, 63, 127
2, 63614, Note_off_c, 3, 63, 127
2, 63616, Note_on_c, 1, 61, 127
2, 63805, Note_off_c, 1, 61, 127
2, 63805, Note_off_c, 8, 56, 127
2, 63807, Note_on_c, 8, 56, 127
2, 63807, Note_on_c, 3, 63, 127
2, 63996, Note_off_c, 3, 63, 127
2, 63998, Note_on_c, 12, 59, 127
2, 64169, Note_off_c, 8, 68, 127
2, 64187, Note_off_c, 8, 56, 127
2, 64189, Note_on_c, 8, 56, 127
2, 64189, Note_on_c, 4, 52, 127
2, 64191, Note_off_c, 12, 59, 127
2, 64380, Note_on_c, 12, 59, 127
2, 64569, Note_off_c, 12, 59, 127
2, 64569, Note_off_c, 8, 56, 127
2, 64571, Note_on_c, 8, 56, 127
2, 64571, Note_on_c, 3, 63, 127
2, 64760, Note_off_c, 3, 63, 127
2, 64762, Note_on_c, 8, 68, 127
2, 64951, Note_off_c, 8, 56, 127
2, 64953, Note_off_c, 4, 52, 127
2, 64953, Note_on_c, 8, 56, 127
2, 64953, Note_on_c, 3, 63, 127
2, 65142, Note_off_c, 3, 63, 127
2, 65144, Note_on_c, 1, 61, 127
2, 65333, Note_off_c, 1, 61, 127
2, 65333, Note_off_c, 8, 56, 127
2, 65335, Note_on_c, 8, 56, 127
2, 65335, Note_on_c, 3, 63, 127
2, 65524, Note_off_c, 3, 63, 127
2, 65526, Note_on_c, 12, 59, 127
2, 65697, Note_off_c, 8, 68, 127
2, 65715, Note_off_c, 8, 56, 127
2, 65717, Note_on_c, 8, 56, 127
2, 65717, Note_on_c, 5, 53, 127
2, 65719, Note_off_c, 12, 59, 127
2, 65908, Note_on_c, 12, 59, 127
2, 66097, Note_off_c, 12, 59, 127
2, 66097, Note_off_c, 8, 56, 127
2, 66099, Note_on_c, 8, 56, 127
2, 66099, Note_on_c, 2, 62, 127
2, 66288, Note_off_c, 2, 62, 127
2, 66290, Note_on_c, 8, 68, 127
2, 66479, Note_off_c, 8, 56, 127
2, 66481, Note_off_c, 5, 53, 127
2, 66481, Note_on_c, 8, 56, 127
2, 66481, Note_on_c, 3, 63, 127
2, 66670, Note_off_c, 3, 63, 127
2, 66672, Note_on_c, 2, 62, 127
2, 66861, Note_off_c, 2, 62, 127
2, 66861, Note_off_c, 8, 56, 127
2, 66864, Note_on_c, 8, 56, 127
2, 66864, Note_on_c, 3, 63, 127
2, 67053, Note_off_c, 3, 63, 127
2, 67055, Note_on_c, 2, 62, 127
2, 67225, Note_off_c, 8, 68, 127
2, 67244, Note_off_c, 8, 56, 127
2, 67246, Note_on_c, 8, 56, 127
2, 67246, Note_on_c, 3, 51, 127
2, 67248, Note_off_c, 2, 62, 127
2, 67437, Note_on_c, 12, 59, 127
2, 67626, Note_off_c, 12, 59, 127
2, 67626, Note_off_c, 8, 56, 127
2, 67628, Note_on_c, 8, 56, 127
2, 67628, Note_on_c, 3, 63, 127
2, 67817, Note_off_c, 3, 63, 127
2, 67819, Note_on_c, 8, 68, 127
2, 68008, Note_off_c, 8, 56, 127
2, 68010, Note_off_c, 3, 51, 127
2, 68010, Note_on_c, 8, 56, 127
2, 68010, Note_on_c, 3, 63, 127
2, 68199, Note_off_c, 3, 63, 127
2, 68201, Note_on_c, 1, 61, 127
2, 68390, Note_off_c, 1, 61, 127
2, 68390, Note_off_c, 8, 56, 127
2, 68392, Note_on_c, 8, 56, 127
2, 68392, Note_on_c, 3, 63, 127
2, 68581, Note_off_c, 3, 63, 127
2, 68583, Note_on_c, 12, 59, 127
2, 68754, Note_off_c, 8, 68, 127
2, 68772, Note_off_c, 12, 59, 127
2, 68772, Note_off_c, 8, 56, 127
2, 68774, Note_on_c, 3, 51, 127
2, 68774, Note_on_c, 12, 59, 127
2, 68965, Note_on_c, 2, 62, 127
2, 69154, Note_off_c, 2, 62, 127
2, 69154, Note_off_c, 12, 59, 127
2, 69156, Note_on_c, 12, 59, 127
2, 69156, Note_on_c, 5, 65, 127
2, 69345, Note_off_c, 5, 65, 127
2, 69347, Note_on_c, 8, 68, 127
2, 69536, Note_off_c, 12, 59, 127
2, 69538, Note_off_c, 3, 51, 127
2, 69538, Note_on_c, 12, 59, 127
2, 69538, Note_on_c, 5, 65, 127
2, 69727, Note_off_c, 5, 65, 127
2, 69729, Note_on_c, 3, 63, 127
2, 69918, Note_off_c, 3, 63, 127
2, 69918, Note_off_c, 12, 59, 127
2, 69920, Note_on_c, 12, 59, 127
2, 69920, Note_on_c, 5, 65, 127
2, 70109, Note_off_c, 5, 65, 127
2, 70111, Note_on_c, 2, 62, 127
2, 70282, Note_off_c, 8, 68, 127
2, 70300, Note_off_c, 12, 59, 127
2, 70302, Note_on_c, 11, 58, 127
2, 70302, Note_on_c, 3, 51, 127
2, 70304, Note_off_c, 2, 62, 127
2, 70493, Note_on_c, 1, 61, 127
2, 70682, Note_off_c, 1, 61, 127
2, 70682, Note_off_c, 11, 58, 127
2, 70684, Note_on_c, 11, 58, 127
2, 70684, Note_on_c, 4, 64, 127
2, 70873, Note_off_c, 4, 64, 127
2, 70875, Note_on_c, 8, 68, 127
2, 71064, Note_off_c, 11, 58, 127
2, 71066, Note_off_c, 3, 51, 127
2, 71066, Note_on_c, 11, 58, 127
2, 71066, Note_on_c, 4, 64, 127
2, 71255, Note_off_c, 4, 64, 127
2, 71257, Note_on_c, 3, 63, 127
2, 71446, Note_off_c, 3, 63, 127
2, 71446, Note_off_c, 11, 58, 127
2, 71448, Note_on_c, 11, 58, 127
2, 71448, Note_on_c, 4, 64, 127
2, 71637, Note_off_c, 4, 64, 127
2, 71640, Note_on_c, 1, 61, 127
2, 71810, Note_off_c, 8, 68, 127
2, 71828, Note_off_c, 11, 58, 127
2, 71831, Note_on_c, 11, 58, 127
2, 71831, Note_on_c, 3, 51, 127
2, 71833, Note_off_c, 1, 61, 127
2, 72022, Note_on_c, 1, 61, 127
2, 72211, Note_off_c, 1, 61, 127
2, 72211, Note_off_c, 11, 58, 127
2, 72213, Note_on_c, 11, 58, 127
2, 72213, Note_on_c, 3, 63, 127
2, 72402, Note_off_c, 3, 63, 127
2, 72404, Note_on_c, 7, 67, 127
2, 72593, Note_off_c, 11, 58, 127
2, 72595, Note_off_c, 3, 51, 127
2, 72595, Note_on_c, 11, 58, 127
2, 72595, Note_on_c, 3, 63, 127
2, 72784, Note_off_c, 3, 63, 127
2, 72786, Note_on_c, 1, 61, 127
2, 72975, Note_off_c, 1, 61, 127
2, 72975, Note_off_c, 11, 58, 127
2, 72977, Note_on_c, 11, 58, 127
2, 72977, Note_on_c, 3, 63, 127
2, 73166, Note_off_c, 3, 63, 127
2, 73168, Note_on_c, 1, 61, 127
2, 73339, Note_off_c, 7, 67, 127
2, 73357, Note_off_c, 11, 58, 127
2, 73359, Note_on_c, 8, 44, 127
2, 73359, Note_on_c, 8, 56, 127
2, 73359, Note_on_c, 8, 68, 127
2, 73359, Note_on_c, 3, 63, 127
2, 73359, Note_on_c, 0, 60, 127
2, 73361, Note_off_c, 1, 61, 127
2, 73715, Note_off_c, 0, 60, 127
2, 73715, Note_off_c, 3, 63, 127
2, 73715, Note_off_c, 8, 68, 127
2, 73733, Note_on_c, 3, 63, 127
2, 73768, Note_off_c, 8, 56, 127
2, 73768, Note_off_c, 8, 44, 127
2, 73910, Note_off_c, 3, 63, 127
2, 73912, Note_on_c, 1, 61, 127
2, 74089, Note_off_c, 1, 61, 127
2, 74091, Note_on_c, 3, 63, 127
2, 74268, Note_off_c, 3, 63, 127
2, 74270, Note_on_c, 5, 65, 127
2, 74447, Note_off_c, 5, 65, 127
2, 74449, Note_on_c, 5, 65, 127
2, 74805, Note_off_c, 5, 65, 127
2, 74808, Note_on_c, 6, 66, 127
2, 74808, Note_on_c, 11, 58, 127
2, 74985, Note_off_c, 11, 58, 127
2, 74987, Note_on_c, 8, 56, 127
2, 75164, Note_off_c, 8, 56, 127
2, 75166, Note_on_c, 11, 58, 127
2, 75343, Note_off_c, 11, 58, 127
2, 75345, Note_on_c, 0, 60, 127
2, 75522, Note_off_c, 0, 60, 127
2, 75524, Note_on_c, 0, 60, 127
2, 75880, Note_off_c, 0, 60, 127
2, 75880, Note_off_c, 6, 66, 127
2, 75882, Note_on_c, 5, 65, 127
2, 75882, Note_on_c, 1, 61, 127
2, 76238, Note_off_c, 5, 65, 127
2, 76240, Note_on_c, 11, 70, 127
2, 76596, Note_off_c, 11, 70, 127
2, 76599, Note_on_c, 3, 63, 127
2, 76954, Note_off_c, 1, 61, 127
2, 76955, Note_off_c, 3, 63, 127
2, 76957, Note_on_c, 8, 68, 127
2, 76957, Note_on_c, 0, 60, 127
2, 77046, Note_on_c, 6, 66, 127
2, 77060, Note_off_c, 8, 68, 127
2, 77136, Note_on_c, 8, 68, 127
2, 77149, Note_off_c, 6, 66, 127
2, 77313, Note_off_c, 0, 60, 127
2, 77315, Note_on_c, 5, 65, 127
2, 77671, Note_off_c, 5, 65, 127
2, 77673, Note_on_c, 11, 58, 127
2, 78029, Note_off_c, 11, 58, 127
2, 78031, Note_off_c, 8, 68, 127
2, 78031, Note_on_c, 6, 66, 127
2, 78031, Note_on_c, 3, 63, 127
2, 78208, Note_off_c, 3, 63, 127
2, 78208, Note_off_c, 6, 66, 127
2, 78211, Note_on_c, 5, 65, 127
2, 78211, Note_on_c, 1, 61, 127
2, 78388, Note_off_c, 1, 61, 127
2, 78388, Note_off_c, 5, 65, 127
2, 78390, Note_on_c, 6, 66, 127
2, 78390, Note_on_c, 3, 63, 127
2, 78567, Note_off_c, 6, 66, 127
2, 78569, Note_on_c, 8, 68, 127
2, 78746, Note_off_c, 8, 68, 127
2, 78748, Note_on_c, 6, 66, 127
2, 79104, Note_off_c, 6, 66, 127
2, 79104, Note_off_c, 3, 63, 127
2, 79106, Note_on_c, 5, 65, 127
2, 79106, Note_on_c, 1, 61, 127
2, 79106, Note_on_c, 5, 53, 127
2, 79283, Note_off_c, 5, 53, 127
2, 79285, Note_on_c, 3, 51, 127
2, 79462, Note_off_c, 3, 51, 127
2, 79464, Note_on_c, 5, 53, 127
2, 79641, Note_off_c, 5, 53, 127
2, 79643, Note_on_c, 6, 54, 127
2, 79820, Note_off_c, 6, 54, 127
2, 79820, Note_off_c, 5, 65, 127
2, 79822, Note_on_c, 3, 63, 127
2, 79822, Note_on_c, 8, 56, 127
2, 80178, Note_off_c, 3, 63, 127
2, 80178, Note_off_c, 1, 61, 127
2, 80181, Note_on_c, 8, 68, 127
2, 80181, Note_on_c, 0, 60, 127
2, 80358, Note_off_c, 0, 60, 127
2, 80358, Note_off_c, 8, 68, 127
2, 80360, Note_on_c, 7, 67, 127
2, 80360, Note_on_c, 11, 58, 127
2, 80537, Note_off_c, 11, 58, 127
2, 80537, Note_off_c, 7, 67, 127
2, 80539, Note_on_c, 8, 68, 127
2, 80539, Note_on_c, 0, 60, 127
2, 80716, Note_off_c, 0, 60, 127
2, 80716, Note_off_c, 8, 68, 127
2, 80718, Note_on_c, 11, 70, 127
2, 80718, Note_on_c, 1, 61, 127
2, 80895, Note_off_c, 1, 61, 127
2, 80895, Note_off_c, 11, 70, 127
2, 80897, Note_on_c, 0, 72, 127
2, 80897, Note_on_c, 3, 63, 127
2, 81074, Note_off_c, 0, 72, 127
2, 81076, Note_on_c, 8, 68, 127
2, 81252, Note_off_c, 8, 56, 127
2, 81253, Note_off_c, 8, 68, 127
2, 81253, Note_off_c, 3, 63, 127
2, 81255, Note_on_c, 1, 73, 127
2, 81255, Note_on_c, 5, 53, 127
2, 81255, Note_on_c, 8, 56, 127
2, 81432, Note_off_c, 1, 73, 127
2, 81434, Note_on_c, 3, 75, 127
2, 81611, Note_off_c, 3, 75, 127
2, 81611, Note_off_c, 8, 56, 127
2, 81611, Note_off_c, 5, 53, 127
2, 81613, Note_on_c, 1, 73, 127
2, 81613, Note_on_c, 1, 61, 127
2, 81613, Note_on_c, 11, 58, 127
2, 81790, Note_off_c, 1, 73, 127
2, 81793, Note_on_c, 0, 72, 127
2, 81969, Note_off_c, 11, 58, 127
2, 81969, Note_off_c, 1, 61, 127
2, 81970, Note_off_c, 0, 72, 127
2, 81972, Note_on_c, 6, 66, 127
2, 81972, Note_on_c, 11, 70, 127
2, 81972, Note_on_c, 3, 51, 127
2, 82149, Note_off_c, 11, 70, 127
2, 82151, Note_on_c, 0, 72, 127
2, 82328, Note_off_c, 0, 72, 127
2, 82328, Note_off_c, 3, 51, 127
2, 82330, Note_on_c, 1, 73, 127
2, 82330, Note_on_c, 8, 56, 127
2, 82417, Note_off_c, 1, 73, 127
2, 82419, Note_on_c, 0, 72, 127
2, 82506, Note_off_c, 0, 72, 127
2, 82509, Note_on_c, 1, 73, 127
2, 82596, Note_off_c, 1, 73, 127
2, 82599, Note_on_c, 0, 72, 127
2, 82686, Note_off_c, 0, 72, 127
2, 82686, Note_off_c, 8, 56, 127
2, 82688, Note_on_c, 1, 73, 127
2, 82688, Note_on_c, 8, 44, 127
2, 82775, Note_off_c, 1, 73, 127
2, 82778, Note_on_c, 0, 72, 127
2, 82865, Note_off_c, 0, 72, 127
2, 82867, Note_on_c, 11, 70, 127
2, 82954, Note_off_c, 11, 70, 127
2, 82957, Note_on_c, 0, 72, 127
2, 83044, Note_off_c, 0, 72, 127
2, 83044, Note_off_c, 8, 44, 127
2, 83046, Note_on_c, 1, 73, 127
2, 83046, Note_on_c, 1, 49, 127
2, 83221, Note_off_c, 6, 66, 127
2, 83225, Note_on_c, 5, 65, 127
2, 83400, Note_off_c, 1, 73, 127
2, 83402, Note_off_c, 1, 49, 127
2, 83404, Note_on_c, 5, 77, 127
2, 83404, Note_on_c, 1, 61, 127
2, 83581, Note_off_c, 1, 61, 127
2, 83584, Note_on_c, 3, 63, 127
2, 83758, Note_off_c, 5, 65, 127
2, 83760, Note_off_c, 5, 77, 127
2, 83761, Note_off_c, 3, 63, 127
2, 83763, Note_on_c, 8, 68, 127
2, 83763, Note_on_c, 3, 75, 127
2, 83763, Note_on_c, 1, 61, 127
2, 83940, Note_off_c, 1, 61, 127
2, 83942, Note_on_c, 0, 60, 127
2, 84119, Note_off_c, 0, 60, 127
2, 84119, Note_off_c, 3, 75, 127
2, 84121, Note_on_c, 1, 73, 127
2, 84121, Note_on_c, 11, 58, 127
2, 84296, Note_off_c, 8, 68, 127
2, 84300, Note_on_c, 5, 65, 127
2, 84477, Note_off_c, 5, 65, 127
2, 84477, Note_off_c, 1, 73, 127
2, 84479, Note_on_c, 6, 78, 127
2, 84479, Note_on_c, 1, 61, 127
2, 84656, Note_off_c, 1, 61, 127
2, 84656, Note_off_c, 6, 78, 127
2, 84658, Note_on_c, 8, 80, 127
2, 84658, Note_on_c, 5, 65, 127
2, 84835, Note_off_c, 5, 65, 127
2, 84835, Note_off_c, 8, 80, 127
2, 84837, Note_on_c, 6, 78, 127
2, 84837, Note_on_c, 3, 63, 127
2, 85014, Note_off_c, 3, 63, 127
2, 85014, Note_off_c, 6, 78, 127
2, 85016, Note_on_c, 5, 77, 127
2, 85016, Note_on_c, 1, 61, 127
2, 85193, Note_off_c, 1, 61, 127
2, 85193, Note_off_c, 5, 77, 127
2, 85195, Note_on_c, 3, 75, 127
2, 85195, Note_on_c, 0, 60, 127
2, 85370, Note_off_c, 11, 58, 127
2, 85375, Note_on_c, 11, 58, 127
2, 85549, Note_off_c, 0, 60, 127
2, 85552, Note_off_c, 11, 58, 127
2, 85554, Note_on_c, 0, 72, 127
2, 85554, Note_on_c, 10, 57, 127
2, 85731, Note_off_c, 10, 57, 127
2, 85733, Note_on_c, 7, 55, 127
2, 85910, Note_off_c, 7, 55, 127
2, 85910, Note_off_c, 0, 72, 127
2, 85912, Note_on_c, 5, 65, 127
2, 85912, Note_on_c, 10, 57, 127
2, 86089, Note_off_c, 10, 57, 127
2, 86090, Note_off_c, 3, 75, 127
2, 86091, Note_on_c, 3, 75, 127
2, 86091, Note_on_c, 5, 53, 127
2, 86268, Note_off_c, 5, 53, 127
2, 86268, Note_off_c, 3, 75, 127
2, 86270, Note_on_c, 1, 73, 127
2, 86270, Note_on_c, 11, 58, 127
2, 86445, Note_off_c, 5, 65, 127
2, 86449, Note_on_c, 5, 65, 127
2, 86626, Note_off_c, 5, 65, 127
2, 86626, Note_off_c, 11, 58, 127
2, 86628, Note_on_c, 6, 66, 127
2, 86628, Note_on_c, 11, 46, 127
2, 86803, Note_off_c, 1, 73, 127
2, 86805, Note_off_c, 11, 46, 127
2, 86807, Note_on_c, 0, 72, 127
2, 86807, Note_on_c, 8, 44, 127
2, 86984, Note_off_c, 8, 44, 127
2, 86984, Note_off_c, 0, 72, 127
2, 86986, Note_on_c, 1, 73, 127
2, 86986, Note_on_c, 11, 46, 127
2, 87163, Note_off_c, 11, 46, 127
2, 87163, Note_off_c, 1, 73, 127
2, 87166, Note_on_c, 3, 75, 127
2, 87166, Note_on_c, 0, 48, 127
2, 87343, Note_off_c, 0, 48, 127
2, 87343, Note_off_c, 3, 75, 127
2, 87345, Note_on_c, 8, 68, 127
2, 87345, Note_on_c, 1, 49, 127
2, 87523, Note_off_c, 6, 66, 127
2, 87524, Note_on_c, 5, 65, 127
2, 87699, Note_off_c, 8, 68, 127
2, 87703, Note_on_c, 1, 73, 127
2, 87880, Note_off_c, 1, 73, 127
2, 87882, Note_on_c, 3, 75, 127
2, 88059, Note_off_c, 3, 75, 127
2, 88061, Note_on_c, 1, 73, 127
2, 88238, Note_off_c, 1, 73, 127
2, 88240, Note_on_c, 0, 72, 127
2, 88417, Note_off_c, 0, 72, 127
2, 88419, Note_off_c, 5, 65, 127
2, 88419, Note_on_c, 7, 67, 127
2, 88419, Note_on_c, 11, 70, 127
2, 88596, Note_off_c, 7, 67, 127
2, 88598, Note_on_c, 3, 63, 127
2, 88773, Note_off_c, 11, 70, 127
2, 88775, Note_off_c, 3, 63, 127
2, 88775, Note_off_c, 1, 49, 127
2, 88777, Note_on_c, 8, 68, 127
2, 88777, Note_on_c, 0, 72, 127
2, 88777, Note_on_c, 0, 48, 127
2, 88954, Note_off_c, 8, 68, 127
2, 88957, Note_on_c, 7, 67, 127
2, 89133, Note_off_c, 0, 48, 127
2, 89134, Note_off_c, 7, 67, 127
2, 89136, Note_on_c, 8, 68, 127
2, 89136, Note_on_c, 5, 53, 127
2, 89310, Note_off_c, 0, 72, 127
2, 89315, Note_on_c, 0, 72, 127
2, 89492, Note_off_c, 0, 72, 127
2, 89492, Note_off_c, 5, 53, 127
2, 89494, Note_on_c, 1, 73, 127
2, 89494, Note_on_c, 11, 46, 127
2, 89669, Note_off_c, 8, 68, 127
2, 89673, Note_on_c, 8, 68, 127
2, 89850, Note_off_c, 8, 68, 127
2, 89850, Note_off_c, 11, 46, 127
2, 89852, Note_on_c, 7, 67, 127
2, 89852, Note_on_c, 3, 51, 127
2, 90029, Note_off_c, 7, 67, 127
2, 90031, Note_on_c, 5, 65, 127
2, 90208, Note_off_c, 5, 65, 127
2, 90208, Note_off_c, 3, 51, 127
2, 90210, Note_on_c, 7, 67, 127
2, 90210, Note_on_c, 3, 39, 127
2, 90389, Note_off_c, 1, 73, 127
2, 90389, Note_on_c, 1, 73, 127
2, 90564, Note_off_c, 7, 67, 127
2, 90566, Note_off_c, 1, 73, 127
2, 90566, Note_off_c, 3, 39, 127
2, 90568, Note_on_c, 0, 72, 127
2, 90568, Note_on_c, 8, 68, 127
2, 90568, Note_on_c, 8, 44, 127
2, 90745, Note_off_c, 8, 44, 127
2, 90748, Note_on_c, 7, 43, 127
2, 90924, Note_off_c, 8, 68, 127
2, 90924, Note_off_c, 0, 72, 127
2, 90925, Note_off_c, 7, 43, 127
2, 90927, Note_on_c, 3, 63, 127
2, 90927, Note_on_c, 8, 44, 127
2, 91104, Note_off_c, 8, 44, 127
2, 91104, Note_off_c, 3, 63, 127
2, 91106, Note_on_c, 1, 61, 127
2, 91106, Note_on_c, 11, 46, 127
2, 91283, Note_off_c, 11, 46, 127
2, 91283, Note_off_c, 1, 61, 127
2, 91285, Note_on_c, 3, 63, 127
2, 91285, Note_on_c, 0, 48, 127
2, 91462, Note_off_c, 0, 48, 127
2, 91462, Note_off_c, 3, 63, 127
2, 91464, Note_on_c, 5, 65, 127
2, 91464, Note_on_c, 1, 49, 127
2, 91641, Note_off_c, 1, 49, 127
2, 91641, Note_off_c, 5, 65, 127
2, 91643, Note_on_c, 6, 66, 127
2, 91643, Note_on_c, 3, 51, 127
2, 91820, Note_off_c, 3, 51, 127
2, 91822, Note_on_c, 2, 50, 127
2, 91999, Note_off_c, 2, 50, 127
2, 92001, Note_on_c, 11, 70, 127
2, 92001, Note_on_c, 3, 51, 127
2, 92178, Note_off_c, 3, 51, 127
2, 92178, Note_off_c, 11, 70, 127
2, 92180, Note_on_c, 8, 68, 127
2, 92180, Note_on_c, 5, 53, 127
2, 92357, Note_off_c, 5, 53, 127
2, 92357, Note_off_c, 8, 68, 127
2, 92359, Note_on_c, 11, 70, 127
2, 92359, Note_on_c, 6, 54, 127
2, 92536, Note_off_c, 6, 54, 127
2, 92536, Note_off_c, 11, 70, 127
2, 92539, Note_on_c, 0, 72, 127
2, 92539, Note_on_c, 8, 56, 127
2, 92716, Note_off_c, 8, 56, 127
2, 92716, Note_off_c, 0, 72, 127
2, 92718, Note_on_c, 1, 73, 127
2, 92718, Note_on_c, 11, 58, 127
2, 92895, Note_off_c, 11, 58, 127
2, 92897, Note_on_c, 10, 57, 127
2, 93073, Note_off_c, 6, 66, 127
2, 93074, Note_off_c, 10, 57, 127
2, 93076, Note_on_c, 5, 65, 127
2, 93076, Note_on_c, 11, 58, 127
2, 93253, Note_off_c, 11, 58, 127
2, 93255, Note_on_c, 0, 60, 127
2, 93432, Note_off_c, 0, 60, 127
2, 93432, Note_off_c, 5, 65, 127
2, 93434, Note_on_c, 11, 70, 127
2, 93434, Note_on_c, 1, 61, 127
2, 93611, Note_off_c, 1, 61, 127
2, 93613, Note_on_c, 3, 63, 127
2, 93790, Note_off_c, 3, 63, 127
2, 93790, Note_off_c, 11, 70, 127
2, 93792, Note_on_c, 10, 69, 127
2, 93792, Note_on_c, 5, 65, 127
2, 93969, Note_off_c, 5, 65, 127
2, 93971, Note_on_c, 3, 63, 127
2, 94148, Note_off_c, 3, 63, 127
2, 94148, Note_off_c, 1, 73, 127
2, 94150, Note_on_c, 0, 72, 127
2, 94150, Note_on_c, 5, 65, 127
2, 94327, Note_off_c, 5, 65, 127
2, 94330, Note_on_c, 6, 66, 127
2, 94500, Note_off_c, 10, 69, 127
2, 94506, Note_off_c, 0, 72, 127
2, 94507, Note_off_c, 6, 66, 127
2, 94509, Note_on_c, 5, 77, 127
2, 94509, Note_on_c, 8, 68, 127
2, 94509, Note_on_c, 5, 65, 127
2, 94686, Note_off_c, 5, 65, 127
2, 94688, Note_on_c, 3, 63, 127
2, 94865, Note_off_c, 3, 63, 127
2, 94865, Note_off_c, 5, 77, 127
2, 94867, Note_on_c, 11, 70, 127
2, 94867, Note_on_c, 2, 62, 127
2, 95044, Note_off_c, 2, 62, 127
2, 95046, Note_on_c, 11, 58, 127
2, 95217, Note_off_c, 8, 68, 127
2, 95223, Note_off_c, 11, 58, 127
2, 95225, Note_on_c, 7, 67, 127
2, 95225, Note_on_c, 3, 63, 127
2, 95402, Note_off_c, 3, 63, 127
2, 95404, Note_on_c, 5, 65, 127
2, 95575, Note_off_c, 11, 70, 127
2, 95581, Note_off_c, 5, 65, 127
2, 95581, Note_off_c, 7, 67, 127
2, 95583, Note_on_c, 3, 75, 127
2, 95583, Note_on_c, 6, 66, 127
2, 95583, Note_on_c, 3, 63, 127
2, 95760, Note_off_c, 3, 63, 127
2, 95762, Note_on_c, 1, 61, 127
2, 95939, Note_off_c, 1, 61, 127
2, 95939, Note_off_c, 3, 75, 127
2, 95941, Note_on_c, 8, 68, 127
2, 95941, Note_on_c, 0, 60, 127
2, 96118, Note_off_c, 0, 60, 127
2, 96121, Note_on_c, 8, 56, 127
2, 96291, Note_off_c, 6, 66, 127
2, 96298, Note_off_c, 8, 56, 127
2, 96300, Note_on_c, 5, 65, 127
2, 96300, Note_on_c, 1, 61, 127
2, 96477, Note_off_c, 1, 61, 127
2, 96479, Note_on_c, 12, 59, 127
2, 96649, Note_off_c, 8, 68, 127
2, 96656, Note_off_c, 12, 59, 127
2, 96656, Note_off_c, 5, 65, 127
2, 96658, Note_on_c, 4, 64, 127
2, 96658, Note_on_c, 1, 73, 127
2, 96658, Note_on_c, 11, 58, 127
2, 96835, Note_off_c, 11, 58, 127
2, 96837, Note_on_c, 8, 56, 127
2, 97014, Note_off_c, 8, 56, 127
2, 97014, Note_off_c, 4, 64, 127
2, 97016, Note_on_c, 3, 63, 127
2, 97016, Note_on_c, 7, 55, 127
2, 97193, Note_off_c, 7, 55, 127
2, 97195, Note_on_c, 3, 51, 127
2, 97366, Note_off_c, 1, 73, 127
2, 97372, Note_off_c, 3, 51, 127
2, 97374, Note_on_c, 0, 72, 127
2, 97374, Note_on_c, 8, 56, 127
2, 97551, Note_off_c, 8, 56, 127
2, 97551, Note_off_c, 0, 72, 127
2, 97553, Note_on_c, 11, 70, 127
2, 97553, Note_on_c, 11, 58, 127
2, 97730, Note_off_c, 11, 58, 127
2, 97730, Note_off_c, 11, 70, 127
2, 97732, Note_on_c, 0, 72, 127
2, 97732, Note_on_c, 8, 56, 127
2, 97909, Note_off_c, 8, 56, 127
2, 97909, Note_off_c, 0, 72, 127
2, 97912, Note_on_c, 3, 75, 127
2, 97912, Note_on_c, 6, 54, 127
2, 98089, Note_off_c, 6, 54, 127
2, 98089, Note_off_c, 3, 75, 127
2, 98091, Note_on_c, 8, 68, 127
2, 98091, Note_on_c, 5, 53, 127
2, 98268, Note_off_c, 5, 53, 127
2, 98270, Note_on_c, 6, 54, 127
2, 98446, Note_off_c, 3, 63, 127
2, 98447, Note_off_c, 6, 54, 127
2, 98447, Note_off_c, 8, 68, 127
2, 98449, Note_on_c, 1, 61, 127
2, 98449, Note_on_c, 1, 73, 127
2, 98449, Note_on_c, 5, 53, 127
2, 98626, Note_off_c, 5, 53, 127
2, 98628, Note_on_c, 3, 51, 127
2, 98805, Note_off_c, 3, 51, 127
2, 98805, Note_off_c, 1, 73, 127
2, 98805, Note_off_c, 1, 61, 127
2, 98807, Note_on_c, 3, 63, 127
2, 98807, Note_on_c, 6, 66, 127
2, 98807, Note_on_c, 5, 53, 127
2, 98984, Note_off_c, 5, 53, 127
2, 98986, Note_on_c, 6, 54, 127
2, 99163, Note_off_c, 6, 54, 127
2, 99163, Note_off_c, 6, 66, 127
2, 99165, Note_on_c, 5, 65, 127
2, 99165, Note_on_c, 8, 56, 127
2, 99346, Note_off_c, 3, 63, 127
2, 99366, Note_on_c, 1, 61, 127
2, 99531, Note_off_c, 5, 65, 127
2, 99533, Note_off_c, 8, 56, 127
2, 99551, Note_on_c, 6, 42, 127
2, 99551, Note_on_c, 3, 63, 127
2, 99742, Note_off_c, 1, 61, 127
2, 99746, Note_on_c, 11, 58, 127
2, 99939, Note_off_c, 11, 58, 127
2, 99939, Note_off_c, 6, 42, 127
2, 99941, Note_on_c, 8, 44, 127
2, 99941, Note_on_c, 0, 60, 127
2, 100154, Note_on_c, 6, 54, 127
2, 100356, Note_off_c, 3, 63, 127
2, 100360, Note_off_c, 0, 60, 127
2, 100362, Note_off_c, 6, 54, 127
2, 100362, Note_off_c, 8, 44, 127
2, 100365, Note_on_c, 1, 37, 127
2, 100365, Note_on_c, 1, 61, 127
2, 100365, Note_on_c, 8, 56, 127
2, 100365, Note_on_c, 5, 53, 127
2, 102339, Note_off_c, 5, 53, 127
2, 102339, Note_off_c, 8, 56, 127
2, 102339, Note_off_c, 1, 61, 127
2, 102339, Note_off_c, 1, 37, 127
2, 103036, Note_on_c, 1, 49, 127
2, 103378, Note_off_c, 1, 49, 127
2, 103384, Note_on_c, 5, 53, 127
2, 103726, Note_off_c, 5, 53, 127
2, 103732, Note_on_c, 1, 49, 127
2, 104074, Note_off_c, 1, 49, 127
2, 104081, Note_on_c, 8, 56, 127
2, 104427, Note_on_c, 8, 68, 127
2, 104586, Note_off_c, 8, 56, 127
2, 104769, Note_off_c, 8, 68, 127
2, 104775, Note_on_c, 6, 54, 127
2, 104775, Note_on_c, 0, 72, 127
2, 105117, Note_off_c, 0, 72, 127
2, 105123, Note_on_c, 8, 68, 127
2, 105282, Note_off_c, 6, 54, 127
2, 105465, Note_off_c, 8, 68, 127
2, 105472, Note_on_c, 5, 53, 127
2, 105472, Note_on_c, 1, 73, 127
2, 105639, Note_off_c, 5, 53, 127
2, 105645, Note_on_c, 3, 51, 127
2, 105812, Note_off_c, 3, 51, 127
2, 105818, Note_on_c, 1, 49, 127
2, 105818, Note_on_c, 8, 68, 127
2, 105977, Note_off_c, 1, 73, 127
2, 106160, Note_off_c, 8, 68, 127
2, 106166, Note_on_c, 5, 65, 127
2, 106166, Note_on_c, 12, 71, 127
2, 106333, Note_off_c, 1, 49, 127
2, 106339, Note_on_c, 3, 51, 127
2, 106506, Note_off_c, 3, 51, 127
2, 106506, Note_off_c, 5, 65, 127
2, 106512, Note_on_c, 5, 53, 127
2, 106512, Note_on_c, 8, 68, 127
2, 106671, Note_off_c, 12, 71, 127
2, 106681, Note_off_c, 5, 53, 127
2, 106688, Note_on_c, 1, 49, 127
2, 106854, Note_off_c, 8, 68, 127
2, 106855, Note_off_c, 1, 49, 127
2, 106861, Note_on_c, 6, 54, 127
2, 106861, Note_on_c, 1, 61, 127
2, 106861, Note_on_c, 11, 70, 127
2, 107028, Note_off_c, 11, 70, 127
2, 107034, Note_on_c, 8, 68, 127
2, 107201, Note_off_c, 8, 68, 127
2, 107207, Note_on_c, 6, 66, 127
2, 107366, Note_off_c, 1, 61, 127
2, 107366, Note_off_c, 6, 54, 127
2, 107553, Note_on_c, 6, 42, 127
2, 107553, Note_on_c, 3, 63, 127
2, 107720, Note_off_c, 6, 66, 127
2, 107726, Note_on_c, 8, 68, 127
2, 107893, Note_off_c, 8, 68, 127
2, 107899, Note_on_c, 11, 70, 127
2, 108058, Note_off_c, 3, 63, 127
2, 108058, Note_off_c, 6, 42, 127
2, 108068, Note_off_c, 11, 70, 127
2, 108075, Note_on_c, 6, 66, 127
2, 108242, Note_off_c, 6, 66, 127
2, 108248, Note_on_c, 5, 65, 127
2, 108248, Note_on_c, 8, 68, 127
2, 108415, Note_off_c, 5, 65, 127
2, 108421, Note_on_c, 6, 66, 127
2, 108588, Note_off_c, 6, 66, 127
2, 108590, Note_off_c, 8, 68, 127
2, 108594, Note_on_c, 1, 49, 127
2, 108594, Note_on_c, 8, 68, 127
2, 108936, Note_off_c, 1, 49, 127
2, 108942, Note_on_c, 11, 46, 127
2, 108942, Note_on_c, 1, 73, 127
2, 109109, Note_off_c, 8, 68, 127
2, 109115, Note_on_c, 6, 66, 127
2, 109282, Note_off_c, 6, 66, 127
2, 109282, Note_off_c, 11, 46, 127
2, 109288, Note_on_c, 1, 49, 127
2, 109288, Note_on_c, 5, 65, 127
2, 109447, Note_off_c, 1, 73, 127
2, 109457, Note_off_c, 5, 65, 127
2, 109464, Note_on_c, 8, 68, 127
2, 109630, Note_off_c, 1, 49, 127
2, 109631, Note_off_c, 8, 68, 127
2, 109637, Note_on_c, 6, 42, 127
2, 109637, Note_on_c, 3, 63, 127
2, 109637, Note_on_c, 1, 73, 127
2, 109804, Note_off_c, 3, 63, 127
2, 109810, Note_on_c, 5, 65, 127
2, 109977, Note_off_c, 5, 65, 127
2, 109977, Note_off_c, 6, 42, 127
2, 109983, Note_on_c, 11, 46, 127
2, 109983, Note_on_c, 6, 66, 127
2, 110142, Note_off_c, 1, 73, 127
2, 110325, Note_off_c, 11, 46, 127
2, 110331, Note_on_c, 3, 39, 127
2, 110331, Note_on_c, 0, 72, 127
2, 110498, Note_off_c, 6, 66, 127
2, 110504, Note_on_c, 5, 65, 127
2, 110671, Note_off_c, 5, 65, 127
2, 110671, Note_off_c, 3, 39, 127
2, 110677, Note_on_c, 8, 44, 127
2, 110677, Note_on_c, 3, 63, 127
2, 110836, Note_off_c, 0, 72, 127
2, 110846, Note_off_c, 3, 63, 127
2, 110853, Note_on_c, 6, 66, 127
2, 111019, Note_off_c, 8, 44, 127
2, 111020, Note_off_c, 6, 66, 127
2, 111026, Note_on_c, 1, 37, 127
2, 111026, Note_on_c, 5, 65, 127
2, 111372, Note_on_c, 1, 73, 127
2, 111531, Note_off_c, 5, 65, 127
2, 111531, Note_off_c, 1, 37, 127
2, 111714, Note_off_c, 1, 73, 127
2, 111720, Note_on_c, 5, 77, 127
2, 112062, Note_off_c, 5, 77, 127
2, 112069, Note_on_c, 1, 61, 127
2, 112069, Note_on_c, 1, 73, 127
2, 112411, Note_off_c, 1, 73, 127
2, 112411, Note_off_c, 1, 61, 127
2, 112417, Note_on_c, 0, 60, 127
2, 112417, Note_on_c, 8, 80, 127
2, 112759, Note_off_c, 0, 60, 127
2, 112765, Note_on_c, 3, 63, 127
2, 112765, Note_on_c, 8, 68, 127
2, 112924, Note_off_c, 8, 80, 127
2, 113107, Note_off_c, 8, 68, 127
2, 113107, Note_off_c, 3, 63, 127
2, 113113, Note_on_c, 8, 56, 127
2, 113113, Note_on_c, 0, 72, 127
2, 113113, Note_on_c, 6, 78, 127
2, 113455, Note_off_c, 0, 72, 127
2, 113462, Note_on_c, 8, 68, 127
2, 113620, Note_off_c, 6, 78, 127
2, 113620, Note_off_c, 8, 56, 127
2, 113804, Note_off_c, 8, 68, 127
2, 113810, Note_on_c, 1, 73, 127
2, 113810, Note_on_c, 5, 77, 127
2, 113977, Note_off_c, 5, 77, 127
2, 113983, Note_on_c, 3, 75, 127
2, 114150, Note_off_c, 3, 75, 127
2, 114152, Note_off_c, 1, 73, 127
2, 114156, Note_on_c, 1, 49, 127
2, 114156, Note_on_c, 1, 73, 127
2, 114498, Note_off_c, 1, 49, 127
2, 114504, Note_on_c, 5, 53, 127
2, 114504, Note_on_c, 12, 71, 127
2, 114671, Note_off_c, 1, 73, 127
2, 114677, Note_on_c, 3, 75, 127
2, 114844, Note_off_c, 3, 75, 127
2, 114844, Note_off_c, 5, 53, 127
2, 114851, Note_on_c, 1, 49, 127
2, 114851, Note_on_c, 5, 77, 127
2, 115009, Note_off_c, 12, 71, 127
2, 115020, Note_off_c, 5, 77, 127
2, 115026, Note_on_c, 1, 73, 127
2, 115193, Note_off_c, 1, 49, 127
2, 115199, Note_on_c, 6, 54, 127
2, 115199, Note_on_c, 11, 70, 127
2, 115366, Note_off_c, 1, 73, 127
2, 115372, Note_on_c, 3, 75, 127
2, 115539, Note_off_c, 3, 75, 127
2, 115545, Note_on_c, 6, 78, 127
2, 115704, Note_off_c, 11, 70, 127
2, 115704, Note_off_c, 6, 54, 127
2, 115714, Note_off_c, 6, 78, 127
2, 115720, Note_on_c, 3, 75, 127
2, 115887, Note_off_c, 3, 75, 127
2, 115893, Note_on_c, 5, 53, 127
2, 115893, Note_on_c, 8, 80, 127
2, 116066, Note_on_c, 11, 70, 127
2, 116233, Note_off_c, 11, 70, 127
2, 116240, Note_on_c, 2, 74, 127
2, 116398, Note_off_c, 8, 80, 127
2, 116398, Note_off_c, 5, 53, 127
2, 116409, Note_off_c, 2, 74, 127
2, 116415, Note_on_c, 11, 70, 127
2, 116582, Note_off_c, 11, 70, 127
2, 116588, Note_on_c, 3, 75, 127
2, 116588, Note_on_c, 6, 78, 127
2, 116761, Note_on_c, 3, 51, 127
2, 116928, Note_off_c, 3, 51, 127
2, 116934, Note_on_c, 0, 48, 127
2, 117093, Note_off_c, 6, 78, 127
2, 117093, Note_off_c, 3, 75, 127
2, 117103, Note_off_c, 0, 48, 127
2, 117109, Note_on_c, 3, 51, 127
2, 117276, Note_off_c, 3, 51, 127
2, 117282, Note_on_c, 10, 45, 127
2, 117282, Note_on_c, 5, 77, 127
2, 117455, Note_on_c, 3, 75, 127
2, 117622, Note_off_c, 3, 75, 127
2, 117622, Note_off_c, 10, 45, 127
2, 117629, Note_on_c, 11, 46, 127
2, 117629, Note_on_c, 1, 73, 127
2, 117795, Note_off_c, 5, 77, 127
2, 117802, Note_on_c, 5, 77, 127
2, 117969, Note_off_c, 5, 77, 127
2, 117969, Note_off_c, 11, 46, 127
2, 117975, Note_on_c, 3, 39, 127
2, 117975, Note_on_c, 7, 79, 127
2, 118142, Note_off_c, 1, 73, 127
2, 118148, Note_on_c, 0, 72, 127
2, 118315, Note_off_c, 7, 79, 127
2, 118315, Note_off_c, 3, 39, 127
2, 118321, Note_on_c, 5, 41, 127
2, 118321, Note_on_c, 8, 80, 127
2, 118488, Note_off_c, 0, 72, 127
2, 118494, Note_on_c, 0, 72, 127
2, 118661, Note_off_c, 0, 72, 127
2, 118661, Note_off_c, 5, 41, 127
2, 118667, Note_on_c, 1, 37, 127
2, 118667, Note_on_c, 11, 70, 127
2, 118834, Note_off_c, 8, 80, 127
2, 118840, Note_on_c, 8, 80, 127
2, 119007, Note_off_c, 8, 80, 127
2, 119007, Note_off_c, 1, 37, 127
2, 119014, Note_on_c, 3, 39, 127
2, 119014, Note_on_c, 7, 79, 127
2, 119180, Note_off_c, 11, 70, 127
2, 119187, Note_on_c, 1, 73, 127
2, 119354, Note_off_c, 1, 73, 127
2, 119354, Note_off_c, 7, 79, 127
2, 119356, Note_off_c, 3, 39, 127
2, 119360, Note_on_c, 0, 72, 127
2, 119360, Note_on_c, 8, 80, 127
2, 119706, Note_on_c, 8, 44, 127
2, 119865, Note_off_c, 8, 80, 127
2, 119865, Note_off_c, 0, 72, 127
2, 120048, Note_off_c, 8, 44, 127
2, 120054, Note_on_c, 0, 48, 127
2, 120396, Note_off_c, 0, 48, 127
2, 120403, Note_on_c, 8, 44, 127
2, 120745, Note_off_c, 8, 44, 127
2, 120751, Note_on_c, 1, 49, 127
2, 121097, Note_on_c, 8, 56, 127
2, 121256, Note_off_c, 1, 49, 127
2, 121439, Note_off_c, 8, 56, 127
2, 121445, Note_on_c, 0, 48, 127
2, 121445, Note_on_c, 0, 60, 127
2, 121787, Note_off_c, 0, 60, 127
2, 121794, Note_on_c, 8, 56, 127
2, 121952, Note_off_c, 0, 48, 127
2, 122136, Note_off_c, 8, 56, 127
2, 122142, Note_on_c, 11, 46, 127
2, 122142, Note_on_c, 1, 61, 127
2, 122309, Note_off_c, 11, 46, 127
2, 122315, Note_on_c, 0, 48, 127
2, 122482, Note_off_c, 0, 48, 127
2, 122488, Note_on_c, 1, 49, 127
2, 122488, Note_on_c, 5, 65, 127
2, 122647, Note_off_c, 1, 61, 127
2, 122657, Note_off_c, 1, 49, 127
2, 122663, Note_on_c, 3, 51, 127
2, 122830, Note_off_c, 3, 51, 127
2, 122830, Note_off_c, 5, 65, 127
2, 122836, Note_on_c, 5, 53, 127
2, 122836, Note_on_c, 12, 59, 127
2, 122836, Note_on_c, 8, 68, 127
2, 123003, Note_off_c, 5, 53, 127
2, 123010, Note_on_c, 6, 54, 127
2, 123176, Note_off_c, 8, 68, 127
2, 123177, Note_off_c, 6, 54, 127
2, 123183, Note_on_c, 8, 56, 127
2, 123183, Note_on_c, 5, 65, 127
2, 123292, Note_off_c, 8, 56, 127
2, 123298, Note_on_c, 6, 54, 127
2, 123341, Note_off_c, 12, 59, 127
2, 123409, Note_off_c, 6, 54, 127
2, 123415, Note_on_c, 5, 53, 127
2, 123524, Note_off_c, 5, 53, 127
2, 123525, Note_off_c, 5, 65, 127
2, 123531, Note_on_c, 6, 54, 127
2, 123531, Note_on_c, 11, 58, 127
2, 123531, Note_on_c, 11, 70, 127
2, 123698, Note_off_c, 11, 58, 127
2, 123704, Note_on_c, 0, 60, 127
2, 123871, Note_off_c, 0, 60, 127
2, 123877, Note_on_c, 2, 62, 127
2, 124036, Note_off_c, 11, 70, 127
2, 124036, Note_off_c, 6, 54, 127
2, 124046, Note_off_c, 2, 62, 127
2, 124052, Note_on_c, 3, 63, 127
2, 124219, Note_off_c, 3, 63, 127
2, 124225, Note_on_c, 2, 50, 127
2, 124225, Note_on_c, 5, 65, 127
2, 124225, Note_on_c, 8, 68, 127
2, 124392, Note_off_c, 5, 65, 127
2, 124399, Note_on_c, 6, 66, 127
2, 124566, Note_off_c, 6, 66, 127
2, 124567, Note_off_c, 8, 68, 127
2, 124572, Note_on_c, 8, 68, 127
2, 124681, Note_off_c, 8, 68, 127
2, 124687, Note_on_c, 6, 66, 127
2, 124730, Note_off_c, 2, 50, 127
2, 124798, Note_off_c, 6, 66, 127
2, 124805, Note_on_c, 5, 65, 127
2, 124914, Note_off_c, 5, 65, 127
2, 124920, Note_on_c, 3, 51, 127
2, 124920, Note_on_c, 6, 66, 127
2, 125093, Note_on_c, 8, 68, 127
2, 125260, Note_off_c, 8, 68, 127
2, 125266, Note_on_c, 11, 70, 127
2, 125425, Note_off_c, 6, 66, 127
2, 125425, Note_off_c, 3, 51, 127
2, 125435, Note_off_c, 11, 70, 127
2, 125441, Note_on_c, 0, 72, 127
2, 125608, Note_off_c, 0, 72, 127
2, 125614, Note_on_c, 5, 65, 127
2, 125614, Note_on_c, 2, 74, 127
2, 125781, Note_off_c, 2, 74, 127
2, 125788, Note_on_c, 3, 75, 127
2, 125955, Note_off_c, 3, 75, 127
2, 125961, Note_on_c, 11, 58, 127
2, 125961, Note_on_c, 5, 77, 127
2, 126070, Note_off_c, 5, 77, 127
2, 126076, Note_on_c, 3, 75, 127
2, 126119, Note_off_c, 5, 65, 127
2, 126187, Note_off_c, 3, 75, 127
2, 126194, Note_on_c, 2, 74, 127
2, 126303, Note_off_c, 2, 74, 127
2, 126303, Note_off_c, 11, 58, 127
2, 126309, Note_on_c, 6, 54, 127
2, 126309, Note_on_c, 3, 75, 127
2, 126651, Note_off_c, 6, 54, 127
2, 126657, Note_on_c, 11, 58, 127
2, 126657, Note_on_c, 11, 70, 127
2, 126816, Note_off_c, 3, 75, 127
2, 126999, Note_off_c, 11, 70, 127
2, 126999, Note_off_c, 11, 58, 127
2, 127005, Note_on_c, 3, 51, 127
2, 127005, Note_on_c, 6, 66, 127
2, 127347, Note_off_c, 6, 66, 127
2, 127347, Note_off_c, 3, 51, 127
2, 127354, Note_on_c, 7, 55, 127
2, 127354, Note_on_c, 11, 70, 127
2, 127354, Note_on_c, 3, 75, 127
2, 127696, Note_off_c, 3, 75, 127
2, 127696, Note_off_c, 11, 70, 127
2, 127696, Note_off_c, 7, 55, 127
2, 127702, Note_on_c, 8, 56, 127
2, 127702, Note_on_c, 3, 63, 127
2, 127702, Note_on_c, 0, 72, 127
2, 127869, Note_off_c, 8, 56, 127
2, 127875, Note_on_c, 8, 44, 127
2, 128042, Note_off_c, 8, 44, 127
2, 128042, Note_off_c, 0, 72, 127
2, 128042, Note_off_c, 3, 63, 127
2, 128048, Note_on_c, 11, 46, 127
2, 128048, Note_on_c, 6, 66, 127
2, 128048, Note_on_c, 3, 75, 127
2, 128215, Note_off_c, 11, 46, 127
2, 128221, Note_on_c, 0, 48, 127
2, 128388, Note_off_c, 0, 48, 127
2, 128388, Note_off_c, 3, 75, 127
2, 128388, Note_off_c, 6, 66, 127
2, 128394, Note_on_c, 1, 49, 127
2, 128394, Note_on_c, 5, 65, 127
2, 128394, Note_on_c, 8, 68, 127
2, 128561, Note_off_c, 1, 49, 127
2, 128568, Note_on_c, 3, 51, 127
2, 128734, Note_off_c, 8, 68, 127
2, 128734, Note_off_c, 5, 65, 127
2, 128735, Note_off_c, 3, 51, 127
2, 128741, Note_on_c, 5, 53, 127
2, 128741, Note_on_c, 8, 68, 127
2, 128741, Note_on_c, 1, 73, 127
2, 128850, Note_off_c, 5, 53, 127
2, 128856, Note_on_c, 3, 51, 127
2, 128965, Note_off_c, 3, 51, 127
2, 128972, Note_on_c, 1, 49, 127
2, 129081, Note_off_c, 1, 49, 127
2, 129081, Note_off_c, 1, 73, 127
2, 129087, Note_on_c, 6, 54, 127
2, 129087, Note_on_c, 11, 70, 127
2, 129254, Note_off_c, 8, 68, 127
2, 129260, Note_on_c, 8, 68, 127
2, 129427, Note_off_c, 8, 68, 127
2, 129427, Note_off_c, 6, 54, 127
2, 129433, Note_on_c, 3, 51, 127
2, 129433, Note_on_c, 6, 66, 127
2, 129592, Note_off_c, 11, 70, 127
2, 129602, Note_off_c, 6, 66, 127
2, 129608, Note_on_c, 5, 65, 127
2, 129775, Note_off_c, 5, 65, 127
2, 129777, Note_off_c, 3, 51, 127
2, 129781, Note_on_c, 3, 63, 127
2, 129781, Note_on_c, 0, 72, 127
2, 129948, Note_off_c, 3, 63, 127
2, 129955, Note_on_c, 1, 61, 127
2, 130122, Note_off_c, 1, 61, 127
2, 130128, Note_on_c, 8, 56, 127
2, 130128, Note_on_c, 0, 60, 127
2, 130237, Note_off_c, 0, 60, 127
2, 130243, Note_on_c, 1, 61, 127
2, 130286, Note_off_c, 0, 72, 127
2, 130354, Note_off_c, 1, 61, 127
2, 130361, Note_on_c, 3, 63, 127
2, 130470, Note_off_c, 3, 63, 127
2, 130470, Note_off_c, 8, 56, 127
2, 130476, Note_on_c, 5, 53, 127
2, 130476, Note_on_c, 8, 56, 127
2, 130476, Note_on_c, 1, 73, 127
2, 130818, Note_off_c, 1, 73, 127
2, 130818, Note_off_c, 5, 53, 127
2, 130820, Note_off_c, 8, 56, 127
2, 130824, Note_on_c, 8, 56, 127
2, 130824, Note_on_c, 8, 80, 127
2, 131166, Note_off_c, 8, 80, 127
2, 131166, Note_off_c, 8, 56, 127
2, 131173, Note_on_c, 1, 49, 127
2, 131173, Note_on_c, 5, 77, 127
2, 131515, Note_off_c, 5, 77, 127
2, 131521, Note_on_c, 1, 61, 127
2, 131521, Note_on_c, 8, 80, 127
2, 131680, Note_off_c, 1, 49, 127
2, 131863, Note_off_c, 8, 80, 127
2, 131863, Note_off_c, 1, 61, 127
2, 131869, Note_on_c, 5, 65, 127
2, 131869, Note_on_c, 1, 73, 127
2, 132211, Note_off_c, 5, 65, 127
2, 132217, Note_on_c, 1, 49, 127
2, 132217, Note_on_c, 1, 61, 127
2, 132376, Note_off_c, 1, 73, 127
2, 132559, Note_off_c, 1, 61, 127
2, 132559, Note_off_c, 1, 49, 127
2, 132566, Note_on_c, 5, 53, 127
2, 132566, Note_on_c, 8, 68, 127
2, 132739, Note_on_c, 12, 71, 127
2, 132906, Note_off_c, 12, 71, 127
2, 132906, Note_off_c, 5, 53, 127
2, 132908, Note_off_c, 8, 68, 127
2, 132912, Note_on_c, 1, 49, 127
2, 132912, Note_on_c, 11, 70, 127
2, 133079, Note_off_c, 11, 70, 127
2, 133085, Note_on_c, 8, 68, 127
2, 133252, Note_off_c, 8, 68, 127
2, 133252, Note_off_c, 1, 49, 127
2, 133258, Note_on_c, 6, 54, 127
2, 133258, Note_on_c, 11, 70, 127
2, 133431, Note_on_c, 8, 68, 127
2, 133598, Note_off_c, 8, 68, 127
2, 133598, Note_off_c, 6, 54, 127
2, 133604, Note_on_c, 11, 58, 127
2, 133604, Note_on_c, 6, 66, 127
2, 133771, Note_off_c, 6, 66, 127
2, 133777, Note_on_c, 5, 65, 127
2, 133944, Note_off_c, 5, 65, 127
2, 133944, Note_off_c, 11, 58, 127
2, 133951, Note_on_c, 3, 51, 127
2, 133951, Note_on_c, 6, 66, 127
2, 134117, Note_off_c, 11, 70, 127
2, 134124, Note_on_c, 11, 70, 127
2, 134291, Note_off_c, 11, 70, 127
2, 134291, Note_off_c, 3, 51, 127
2, 134297, Note_on_c, 6, 54, 127
2, 134297, Note_on_c, 3, 75, 127
2, 134464, Note_off_c, 6, 66, 127
2, 134470, Note_on_c, 6, 66, 127
2, 134637, Note_off_c, 3, 75, 127
2, 134637, Note_off_c, 6, 54, 127
2, 134643, Note_on_c, 0, 48, 127
2, 134643, Note_on_c, 8, 68, 127
2, 134810, Note_off_c, 6, 66, 127
2, 134816, Note_on_c, 6, 66, 127
2, 134983, Note_off_c, 6, 66, 127
2, 134983, Note_off_c, 0, 48, 127
2, 134989, Note_on_c, 8, 56, 127
2, 134989, Note_on_c, 5, 65, 127
2, 135156, Note_off_c, 5, 65, 127
2, 135162, Note_on_c, 3, 63, 127
2, 135329, Note_off_c, 3, 63, 127
2, 135329, Note_off_c, 8, 56, 127
2, 135336, Note_on_c, 1, 49, 127
2, 135336, Note_on_c, 5, 65, 127
2, 135502, Note_off_c, 8, 68, 127
2, 135509, Note_on_c, 8, 68, 127
2, 135676, Note_off_c, 8, 68, 127
2, 135676, Note_off_c, 1, 49, 127
2, 135682, Note_on_c, 5, 53, 127
2, 135682, Note_on_c, 1, 73, 127
2, 135849, Note_off_c, 5, 65, 127
2, 135855, Note_on_c, 5, 65, 127
2, 136022, Note_off_c, 1, 73, 127
2, 136022, Note_off_c, 5, 53, 127
2, 136028, Note_on_c, 11, 46, 127
2, 136028, Note_on_c, 6, 66, 127
2, 136195, Note_off_c, 5, 65, 127
2, 136201, Note_on_c, 5, 65, 127
2, 136368, Note_off_c, 5, 65, 127
2, 136368, Note_off_c, 11, 46, 127
2, 136374, Note_on_c, 6, 54, 127
2, 136374, Note_on_c, 3, 63, 127
2, 136541, Note_off_c, 3, 63, 127
2, 136547, Note_on_c, 1, 61, 127
2, 136714, Note_off_c, 1, 61, 127
2, 136714, Note_off_c, 6, 54, 127
2, 136721, Note_on_c, 0, 48, 127
2, 136721, Note_on_c, 3, 63, 127
2, 136887, Note_off_c, 6, 66, 127
2, 136894, Note_on_c, 5, 65, 127
2, 137061, Note_off_c, 5, 65, 127
2, 137061, Note_off_c, 0, 48, 127
2, 137067, Note_on_c, 3, 51, 127
2, 137067, Note_on_c, 6, 66, 127
2, 137234, Note_off_c, 3, 63, 127
2, 137240, Note_on_c, 3, 63, 127
2, 137407, Note_off_c, 6, 66, 127
2, 137407, Note_off_c, 3, 51, 127
2, 137413, Note_on_c, 10, 45, 127
2, 137413, Note_on_c, 5, 65, 127
2, 137580, Note_off_c, 3, 63, 127
2, 137586, Note_on_c, 3, 63, 127
2, 137753, Note_off_c, 3, 63, 127
2, 137753, Note_off_c, 10, 45, 127
2, 137759, Note_on_c, 5, 41, 127
2, 137759, Note_on_c, 1, 61, 127
2, 137926, Note_off_c, 1, 61, 127
2, 137933, Note_on_c, 0, 60, 127
2, 138099, Note_off_c, 5, 41, 127
2, 138100, Note_off_c, 0, 60, 127
2, 138106, Note_on_c, 11, 46, 127
2, 138106, Note_on_c, 1, 61, 127
2, 138272, Note_off_c, 5, 65, 127
2, 138279, Note_on_c, 3, 63, 127
2, 138446, Note_off_c, 3, 63, 127
2, 138446, Note_off_c, 11, 46, 127
2, 138452, Note_on_c, 8, 44, 127
2, 138452, Note_on_c, 5, 65, 127
2, 138619, Note_off_c, 1, 61, 127
2, 138625, Note_on_c, 0, 60, 127
2, 138792, Note_off_c, 0, 60, 127
2, 138792, Note_off_c, 8, 44, 127
2, 138798, Note_on_c, 6, 42, 127
2, 138798, Note_on_c, 11, 58, 127
2, 138965, Note_off_c, 11, 58, 127
2, 138971, Note_on_c, 10, 57, 127
2, 139138, Note_off_c, 10, 57, 127
2, 139138, Note_off_c, 6, 42, 127
2, 139144, Note_on_c, 5, 41, 127
2, 139144, Note_on_c, 11, 58, 127
2, 139311, Note_off_c, 5, 65, 127
2, 139318, Note_on_c, 5, 65, 127
2, 139484, Note_off_c, 5, 41, 127
2, 139485, Note_off_c, 5, 65, 127
2, 139491, Note_on_c, 6, 42, 127
2, 139491, Note_on_c, 3, 63, 127
2, 139657, Note_off_c, 11, 58, 127
2, 139664, Note_on_c, 1, 61, 127
2, 139831, Note_off_c, 1, 61, 127
2, 139837, Note_on_c, 0, 60, 127
2, 140004, Note_off_c, 0, 60, 127
2, 140010, Note_on_c, 11, 58, 127
2, 140177, Note_off_c, 11, 58, 127
2, 140177, Note_off_c, 3, 63, 127
2, 140177, Note_off_c, 6, 42, 127
2, 140183, Note_on_c, 5, 41, 127
2, 140183, Note_on_c, 10, 57, 127
2, 140183, Note_on_c, 5, 65, 127
2, 140525, Note_off_c, 5, 41, 127
2, 140531, Note_on_c, 5, 53, 127
2, 140690, Note_off_c, 5, 65, 127
2, 140690, Note_off_c, 10, 57, 127
2, 140873, Note_off_c, 5, 53, 127
2, 140880, Note_on_c, 10, 57, 127
2, 141222, Note_off_c, 10, 57, 127
2, 141228, Note_on_c, 5, 53, 127
2, 141228, Note_on_c, 5, 77, 127
2, 141570, Note_off_c, 5, 77, 127
2, 141570, Note_off_c, 5, 53, 127
2, 141576, Note_on_c, 11, 58, 127
2, 141576, Note_on_c, 1, 73, 127
2, 141918, Note_off_c, 1, 73, 127
2, 141920, Note_off_c, 11, 58, 127
2, 141924, Note_on_c, 11, 58, 127
2, 141924, Note_on_c, 5, 77, 127
2, 142266, Note_off_c, 5, 77, 127
2, 142266, Note_off_c, 11, 58, 127
2, 142273, Note_on_c, 8, 56, 127
2, 142273, Note_on_c, 2, 62, 127
2, 142273, Note_on_c, 11, 70, 127
2, 142615, Note_off_c, 2, 62, 127
2, 142621, Note_on_c, 11, 58, 127
2, 142780, Note_off_c, 11, 70, 127
2, 142780, Note_off_c, 8, 56, 127
2, 142963, Note_off_c, 11, 58, 127
2, 142969, Note_on_c, 7, 55, 127
2, 142969, Note_on_c, 3, 63, 127
2, 143136, Note_off_c, 7, 55, 127
2, 143142, Note_on_c, 5, 53, 127
2, 143309, Note_off_c, 5, 53, 127
2, 143315, Note_on_c, 3, 51, 127
2, 143315, Note_on_c, 11, 82, 127
2, 143657, Note_off_c, 11, 82, 127
2, 143657, Note_off_c, 3, 63, 127
2, 143664, Note_on_c, 1, 61, 127
2, 143664, Note_on_c, 7, 79, 127
2, 143830, Note_off_c, 3, 51, 127
2, 143837, Note_on_c, 5, 53, 127
2, 144004, Note_off_c, 5, 53, 127
2, 144004, Note_off_c, 7, 79, 127
2, 144010, Note_on_c, 7, 55, 127
2, 144010, Note_on_c, 11, 82, 127
2, 144119, Note_off_c, 7, 55, 127
2, 144125, Note_on_c, 5, 53, 127
2, 144234, Note_off_c, 5, 53, 127
2, 144241, Note_on_c, 3, 51, 127
2, 144350, Note_off_c, 3, 51, 127
2, 144350, Note_off_c, 11, 82, 127
2, 144350, Note_off_c, 1, 61, 127
2, 144356, Note_on_c, 8, 56, 127
2, 144356, Note_on_c, 0, 60, 127
2, 144356, Note_on_c, 3, 75, 127
2, 144523, Note_off_c, 0, 60, 127
2, 144529, Note_on_c, 11, 58, 127
2, 144696, Note_off_c, 11, 58, 127
2, 144698, Note_off_c, 8, 56, 127
2, 144703, Note_on_c, 8, 56, 127
2, 144861, Note_off_c, 3, 75, 127
2, 145049, Note_on_c, 5, 77, 127
2, 145216, Note_off_c, 8, 56, 127
2, 145222, Note_on_c, 11, 58, 127
2, 145389, Note_off_c, 11, 58, 127
2, 145395, Note_on_c, 12, 59, 127
2, 145504, Note_off_c, 12, 59, 127
2, 145510, Note_on_c, 11, 58, 127
2, 145554, Note_off_c, 5, 77, 127
2, 145621, Note_off_c, 11, 58, 127
2, 145628, Note_on_c, 8, 56, 127
2, 145737, Note_off_c, 8, 56, 127
2, 145743, Note_on_c, 11, 58, 127
2, 145743, Note_on_c, 6, 78, 127
2, 145910, Note_off_c, 6, 78, 127
2, 145910, Note_off_c, 11, 58, 127
2, 145916, Note_on_c, 0, 60, 127
2, 145916, Note_on_c, 8, 80, 127
2, 146083, Note_off_c, 8, 80, 127
2, 146083, Note_off_c, 0, 60, 127
2, 146090, Note_on_c, 1, 61, 127
2, 146090, Note_on_c, 11, 82, 127
2, 146199, Note_off_c, 1, 61, 127
2, 146205, Note_on_c, 0, 60, 127
2, 146314, Note_off_c, 0, 60, 127
2, 146320, Note_on_c, 11, 58, 127
2, 146429, Note_off_c, 11, 58, 127
2, 146436, Note_on_c, 0, 60, 127
2, 146603, Note_off_c, 0, 60, 127
2, 146603, Note_off_c, 11, 82, 127
2, 146609, Note_on_c, 1, 61, 127
2, 146609, Note_on_c, 8, 80, 127
2, 146776, Note_off_c, 8, 80, 127
2, 146776, Note_off_c, 1, 61, 127
2, 146782, Note_on_c, 3, 63, 127
2, 146782, Note_on_c, 6, 78, 127
2, 146883, Note_off_c, 3, 63, 127
2, 146890, Note_on_c, 1, 61, 127
2, 146990, Note_off_c, 6, 78, 127
2, 146991, Note_off_c, 1, 61, 127
2, 146997, Note_on_c, 0, 60, 127
2, 146997, Note_on_c, 8, 80, 127
2, 147124, Note_off_c, 8, 80, 127
2, 147124, Note_off_c, 0, 60, 127
2, 147130, Note_on_c, 1, 61, 127
2, 147130, Note_on_c, 5, 77, 127
2, 147297, Note_off_c, 5, 77, 127
2, 147303, Note_on_c, 6, 78, 127
2, 147470, Note_off_c, 6, 78, 127
2, 147477, Note_on_c, 1, 49, 127
2, 147477, Note_on_c, 8, 80, 127
2, 147819, Note_off_c, 1, 49, 127
2, 147825, Note_on_c, 5, 53, 127
2, 147992, Note_off_c, 8, 80, 127
2, 147998, Note_on_c, 6, 78, 127
2, 148165, Note_off_c, 6, 78, 127
2, 148165, Note_off_c, 5, 53, 127
2, 148171, Note_on_c, 1, 49, 127
2, 148171, Note_on_c, 5, 77, 127
2, 148338, Note_off_c, 5, 77, 127
2, 148344, Note_on_c, 6, 78, 127
2, 148511, Note_off_c, 6, 78, 127
2, 148511, Note_off_c, 1, 49, 127
2, 148517, Note_on_c, 8, 56, 127
2, 148517, Note_on_c, 3, 75, 127
2, 148684, Note_off_c, 3, 75, 127
2, 148690, Note_on_c, 8, 80, 127
2, 148857, Note_off_c, 8, 80, 127
2, 148857, Note_off_c, 1, 61, 127
2, 148864, Note_on_c, 1, 61, 127
2, 148864, Note_on_c, 6, 78, 127
2, 149031, Note_off_c, 6, 78, 127
2, 149037, Note_on_c, 5, 77, 127
2, 149204, Note_off_c, 5, 77, 127
2, 149204, Note_off_c, 1, 61, 127
2, 149210, Note_on_c, 0, 60, 127
2, 149210, Note_on_c, 3, 75, 127
2, 149377, Note_off_c, 3, 75, 127
2, 149383, Note_on_c, 1, 73, 127
2, 149550, Note_off_c, 1, 73, 127
2, 149550, Note_off_c, 0, 60, 127
2, 149556, Note_on_c, 5, 65, 127
2, 149556, Note_on_c, 0, 72, 127
2, 149665, Note_off_c, 0, 72, 127
2, 149672, Note_on_c, 1, 73, 127
2, 149781, Note_off_c, 1, 73, 127
2, 149787, Note_on_c, 3, 75, 127
2, 149896, Note_off_c, 3, 75, 127
2, 149896, Note_off_c, 5, 65, 127
2, 149902, Note_on_c, 11, 58, 127
2, 149902, Note_on_c, 1, 73, 127
2, 150069, Note_off_c, 1, 73, 127
2, 150076, Note_on_c, 11, 70, 127
2, 150242, Note_off_c, 8, 56, 127
2, 150243, Note_off_c, 11, 70, 127
2, 150249, Note_on_c, 8, 56, 127
2, 150249, Note_on_c, 0, 72, 127
2, 150416, Note_off_c, 0, 72, 127
2, 150422, Note_on_c, 1, 73, 127
2, 150589, Note_off_c, 1, 73, 127
2, 150589, Note_off_c, 8, 56, 127
2, 150595, Note_on_c, 6, 54, 127
2, 150595, Note_on_c, 3, 75, 127
2, 150762, Note_off_c, 3, 75, 127
2, 150768, Note_on_c, 5, 77, 127
2, 150934, Note_off_c, 11, 58, 127
2, 150935, Note_off_c, 5, 77, 127
2, 150941, Note_on_c, 3, 63, 127
2, 150941, Note_on_c, 6, 78, 127
2, 151050, Note_off_c, 6, 78, 127
2, 151057, Note_on_c, 5, 77, 127
2, 151166, Note_off_c, 5, 77, 127
2, 151172, Note_on_c, 3, 75, 127
2, 151281, Note_off_c, 3, 75, 127
2, 151281, Note_off_c, 3, 63, 127
2, 151287, Note_on_c, 8, 56, 127
2, 151287, Note_on_c, 1, 73, 127
2, 151454, Note_off_c, 1, 73, 127
2, 151461, Note_on_c, 0, 72, 127
2, 151627, Note_off_c, 6, 54, 127
2, 151628, Note_off_c, 0, 72, 127
2, 151634, Note_on_c, 6, 54, 127
2, 151634, Note_on_c, 11, 70, 127
2, 151801, Note_off_c, 11, 70, 127
2, 151807, Note_on_c, 8, 68, 127
2, 151973, Note_off_c, 8, 56, 127
2, 151976, Note_off_c, 8, 68, 127
2, 151976, Note_off_c, 6, 54, 127
2, 151982, Note_on_c, 5, 53, 127
2, 151982, Note_on_c, 1, 73, 127
2, 152155, Note_on_c, 8, 68, 127
2, 152322, Note_off_c, 8, 68, 127
2, 152328, Note_on_c, 5, 65, 127
2, 152487, Note_off_c, 1, 73, 127
2, 152487, Note_off_c, 5, 53, 127
2, 152497, Note_off_c, 5, 65, 127
2, 152503, Note_on_c, 8, 68, 127
2, 152670, Note_off_c, 8, 68, 127
2, 152676, Note_on_c, 1, 61, 127
2, 152676, Note_on_c, 11, 70, 127
2, 152850, Note_on_c, 11, 58, 127
2, 153017, Note_off_c, 11, 58, 127
2, 153023, Note_on_c, 6, 54, 127
2, 153181, Note_off_c, 11, 70, 127
2, 153181, Note_off_c, 1, 61, 127
2, 153192, Note_off_c, 6, 54, 127
2, 153198, Note_on_c, 11, 58, 127
2, 153365, Note_off_c, 11, 58, 127
2, 153371, Note_on_c, 3, 51, 127
2, 153371, Note_on_c, 6, 78, 127
2, 153544, Note_on_c, 0, 60, 127
2, 153711, Note_off_c, 0, 60, 127
2, 153717, Note_on_c, 8, 56, 127
2, 153876, Note_off_c, 6, 78, 127
2, 153876, Note_off_c, 3, 51, 127
2, 153886, Note_off_c, 8, 56, 127
2, 153892, Note_on_c, 0, 60, 127
2, 154059, Note_off_c, 0, 60, 127
2, 154065, Note_on_c, 1, 49, 127
2, 154065, Note_on_c, 1, 61, 127
2, 154239, Note_on_c, 6, 78, 127
2, 154405, Note_off_c, 1, 61, 127
2, 154406, Note_off_c, 6, 78, 127
2, 154412, Note_on_c, 8, 56, 127
2, 154412, Note_on_c, 5, 77, 127
2, 154570, Note_off_c, 1, 49, 127
2, 154581, Note_off_c, 5, 77, 127
2, 154587, Note_on_c, 3, 75, 127
2, 154754, Note_off_c, 3, 75, 127
2, 154754, Note_off_c, 8, 56, 127
2, 154760, Note_on_c, 1, 61, 127
2, 154760, Note_on_c, 5, 77, 127
2, 154869, Note_off_c, 5, 77, 127
2, 154875, Note_on_c, 6, 78, 127
2, 154933, Note_on_c, 1, 49, 127
2, 154984, Note_off_c, 6, 78, 127
2, 154991, Note_on_c, 8, 80, 127
2, 155100, Note_off_c, 8, 80, 127
2, 155100, Note_off_c, 1, 49, 127
2, 155106, Note_on_c, 5, 53, 127
2, 155106, Note_on_c, 1, 73, 127
2, 155215, Note_off_c, 1, 73, 127
2, 155222, Note_on_c, 3, 75, 127
2, 155273, Note_off_c, 5, 53, 127
2, 155279, Note_on_c, 1, 49, 127
2, 155331, Note_off_c, 3, 75, 127
2, 155337, Note_on_c, 5, 77, 127
2, 155446, Note_off_c, 5, 77, 127
2, 155446, Note_off_c, 1, 49, 127
2, 155452, Note_on_c, 6, 54, 127
2, 155452, Note_on_c, 11, 70, 127
2, 155619, Note_off_c, 11, 70, 127
2, 155626, Note_on_c, 5, 77, 127
2, 155792, Note_off_c, 1, 61, 127
2, 155793, Note_off_c, 5, 77, 127
2, 155799, Note_on_c, 11, 58, 127
2, 155799, Note_on_c, 3, 75, 127
2, 155957, Note_off_c, 6, 54, 127
2, 155968, Note_off_c, 3, 75, 127
2, 155974, Note_on_c, 1, 73, 127
2, 156141, Note_off_c, 1, 73, 127
2, 156141, Note_off_c, 11, 58, 127
2, 156147, Note_on_c, 6, 54, 127
2, 156147, Note_on_c, 3, 75, 127
2, 156256, Note_off_c, 3, 75, 127
2, 156262, Note_on_c, 5, 77, 127
2, 156371, Note_off_c, 5, 77, 127
2, 156378, Note_on_c, 6, 78, 127
2, 156487, Note_off_c, 6, 78, 127
2, 156493, Note_on_c, 3, 51, 127
2, 156493, Note_on_c, 0, 72, 127
2, 156602, Note_off_c, 0, 72, 127
2, 156609, Note_on_c, 1, 73, 127
2, 156718, Note_off_c, 1, 73, 127
2, 156724, Note_on_c, 3, 75, 127
2, 156833, Note_off_c, 3, 75, 127
2, 156833, Note_off_c, 3, 51, 127
2, 156840, Note_on_c, 0, 48, 127
2, 156840, Note_on_c, 8, 68, 127
2, 157007, Note_off_c, 8, 68, 127
2, 157013, Note_on_c, 3, 75, 127
2, 157179, Note_off_c, 6, 54, 127
2, 157180, Note_off_c, 3, 75, 127
2, 157186, Note_on_c, 8, 56, 127
2, 157186, Note_on_c, 1, 73, 127
2, 157345, Note_off_c, 0, 48, 127
2, 157355, Note_off_c, 1, 73, 127
2, 157361, Note_on_c, 0, 72, 127
2, 157528, Note_off_c, 0, 72, 127
2, 157528, Note_off_c, 8, 56, 127
2, 157534, Note_on_c, 5, 53, 127
2, 157534, Note_on_c, 1, 73, 127
2, 157643, Note_off_c, 1, 73, 127
2, 157649, Note_on_c, 3, 75, 127
2, 157758, Note_off_c, 3, 75, 127
2, 157765, Note_on_c, 5, 77, 127
2, 157874, Note_off_c, 5, 77, 127
2, 157874, Note_off_c, 5, 53, 127
2, 157880, Note_on_c, 1, 49, 127
2, 157880, Note_on_c, 5, 65, 127
2, 157880, Note_on_c, 8, 68, 127
2, 157989, Note_off_c, 8, 68, 127
2, 157996, Note_on_c, 11, 70, 127
2, 158105, Note_off_c, 11, 70, 127
2, 158111, Note_on_c, 12, 71, 127
2, 158220, Note_off_c, 12, 71, 127
2, 158220, Note_off_c, 1, 49, 127
2, 158227, Note_on_c, 6, 42, 127
2, 158227, Note_on_c, 11, 70, 127
2, 158393, Note_off_c, 5, 65, 127
2, 158400, Note_on_c, 1, 61, 127
2, 158567, Note_off_c, 1, 61, 127
2, 158567, Note_off_c, 6, 42, 127
2, 158573, Note_on_c, 6, 54, 127
2, 158573, Note_on_c, 3, 63, 127
2, 158740, Note_off_c, 11, 70, 127
2, 158746, Note_on_c, 6, 66, 127
2, 158913, Note_off_c, 6, 66, 127
2, 158913, Note_off_c, 6, 54, 127
2, 158919, Note_on_c, 5, 53, 127
2, 158919, Note_on_c, 8, 68, 127
2, 159086, Note_off_c, 3, 63, 127
2, 159092, Note_on_c, 0, 60, 127
2, 159259, Note_off_c, 0, 60, 127
2, 159259, Note_off_c, 5, 53, 127
2, 159265, Note_on_c, 11, 46, 127
2, 159265, Note_on_c, 1, 61, 127
2, 159432, Note_off_c, 8, 68, 127
2, 159438, Note_on_c, 5, 65, 127
2, 159605, Note_off_c, 5, 65, 127
2, 159605, Note_off_c, 11, 46, 127
2, 159612, Note_on_c, 3, 51, 127
2, 159612, Note_on_c, 6, 66, 127
2, 159778, Note_off_c, 1, 61, 127
2, 159785, Note_on_c, 11, 58, 127
2, 159952, Note_off_c, 11, 58, 127
2, 159952, Note_off_c, 3, 51, 127
2, 159958, Note_on_c, 8, 44, 127
2, 159958, Note_on_c, 0, 60, 127
2, 160125, Note_off_c, 6, 66, 127
2, 160131, Note_on_c, 3, 63, 127
2, 160298, Note_off_c, 3, 63, 127
2, 160298, Note_off_c, 8, 44, 127
2, 160300, Note_off_c, 0, 60, 127
2, 160304, Note_on_c, 1, 49, 127
2, 160304, Note_on_c, 5, 65, 127
2, 160477, Note_on_c, 1, 61, 127
2, 160644, Note_off_c, 1, 61, 127
2, 160644, Note_off_c, 1, 49, 127
2, 160650, Note_on_c, 1, 37, 127
2, 160650, Note_on_c, 8, 56, 127
2, 160817, Note_off_c, 8, 56, 127
2, 160824, Note_on_c, 12, 59, 127
2, 160990, Note_off_c, 1, 37, 127
2, 160991, Note_off_c, 12, 59, 127
2, 160997, Note_on_c, 6, 42, 127
2, 160997, Note_on_c, 11, 58, 127
2, 161164, Note_off_c, 6, 42, 127
2, 161170, Note_on_c, 1, 49, 127
2, 161337, Note_off_c, 1, 49, 127
2, 161343, Note_on_c, 11, 46, 127
2, 161510, Note_off_c, 11, 46, 127
2, 161516, Note_on_c, 1, 49, 127
2, 161683, Note_off_c, 1, 49, 127
2, 161689, Note_on_c, 6, 54, 127
2, 161856, Note_off_c, 5, 65, 127
2, 161862, Note_on_c, 3, 63, 127
2, 162029, Note_off_c, 3, 63, 127
2, 162035, Note_on_c, 6, 66, 127
2, 162202, Note_off_c, 6, 66, 127
2, 162209, Note_on_c, 3, 63, 127
2, 162376, Note_off_c, 3, 63, 127
2, 162380, Note_off_c, 11, 58, 127
2, 162382, Note_on_c, 0, 60, 127
2, 162555, Note_on_c, 8, 56, 127
2, 162721, Note_off_c, 6, 54, 127
2, 162722, Note_off_c, 0, 60, 127
2, 162728, Note_on_c, 6, 54, 127
2, 162728, Note_on_c, 0, 60, 127
2, 162895, Note_off_c, 0, 60, 127
2, 162901, Note_on_c, 3, 63, 127
2, 163068, Note_off_c, 3, 63, 127
2, 163068, Note_off_c, 6, 54, 127
2, 163074, Note_on_c, 5, 53, 127
2, 163074, Note_on_c, 8, 68, 127
2, 163241, Note_off_c, 8, 56, 127
2, 163247, Note_on_c, 1, 61, 127
2, 163414, Note_off_c, 1, 61, 127
2, 163414, Note_off_c, 5, 53, 127
2, 163420, Note_on_c, 8, 56, 127
2, 163420, Note_on_c, 0, 60, 127
2, 163587, Note_off_c, 8, 68, 127
2, 163594, Note_on_c, 6, 66, 127
2, 163760, Note_off_c, 8, 56, 127
2, 163761, Note_off_c, 6, 66, 127
2, 163762, Note_off_c, 0, 60, 127
2, 163767, Note_on_c, 1, 49, 127
2, 163767, Note_on_c, 5, 65, 127
2, 163940, Note_on_c, 1, 61, 127
2, 164107, Note_off_c, 5, 65, 127
2, 164107, Note_off_c, 1, 49, 127
2, 164113, Note_on_c, 12, 59, 127
2, 164113, Note_on_c, 5, 65, 127
2, 164280, Note_off_c, 5, 65, 127
2, 164286, Note_on_c, 8, 68, 127
2, 164453, Note_off_c, 8, 68, 127
2, 164453, Note_off_c, 12, 59, 127
2, 164459, Note_on_c, 11, 58, 127
2, 164459, Note_on_c, 1, 73, 127
2, 164626, Note_off_c, 1, 61, 127
2, 164632, Note_on_c, 6, 66, 127
2, 164799, Note_off_c, 6, 66, 127
2, 164799, Note_off_c, 11, 58, 127
2, 164805, Note_on_c, 1, 61, 127
2, 164805, Note_on_c, 5, 65, 127
2, 164972, Note_off_c, 1, 73, 127
2, 164979, Note_on_c, 12, 71, 127
2, 165145, Note_off_c, 1, 61, 127
2, 165146, Note_off_c, 12, 71, 127
2, 165147, Note_off_c, 5, 65, 127
2, 165152, Note_on_c, 6, 54, 127
2, 165152, Note_on_c, 11, 70, 127
2, 165325, Note_on_c, 6, 66, 127
2, 165492, Note_off_c, 11, 70, 127
2, 165492, Note_off_c, 6, 54, 127
2, 165498, Note_on_c, 5, 53, 127
2, 165498, Note_on_c, 11, 70, 127
2, 165665, Note_off_c, 11, 70, 127
2, 165671, Note_on_c, 1, 73, 127
2, 165838, Note_off_c, 1, 73, 127
2, 165838, Note_off_c, 5, 53, 127
2, 165844, Note_on_c, 3, 51, 127
2, 165844, Note_on_c, 6, 78, 127
2, 166011, Note_off_c, 6, 66, 127
2, 166017, Note_on_c, 12, 71, 127
2, 166184, Note_off_c, 12, 71, 127
2, 166184, Note_off_c, 3, 51, 127
2, 166191, Note_on_c, 6, 54, 127
2, 166191, Note_on_c, 11, 70, 127
2, 166358, Note_off_c, 11, 70, 127
2, 166364, Note_on_c, 3, 75, 127
2, 166531, Note_off_c, 3, 75, 127
2, 166531, Note_off_c, 6, 54, 127
2, 166537, Note_on_c, 0, 48, 127
2, 166537, Note_on_c, 8, 68, 127
2, 166703, Note_off_c, 6, 78, 127
2, 166710, Note_on_c, 11, 70, 127
2, 166877, Note_off_c, 11, 70, 127
2, 166877, Note_off_c, 0, 48, 127
2, 166883, Note_on_c, 8, 56, 127
2, 166883, Note_on_c, 0, 72, 127
2, 167042, Note_off_c, 8, 68, 127
2, 167052, Note_off_c, 0, 72, 127
2, 167058, Note_on_c, 1, 73, 127
2, 167225, Note_off_c, 1, 73, 127
2, 167225, Note_off_c, 8, 56, 127
2, 167231, Note_on_c, 0, 60, 127
2, 167231, Note_on_c, 3, 75, 127
2, 167398, Note_off_c, 3, 75, 127
2, 167404, Note_on_c, 5, 77, 127
2, 167571, Note_off_c, 5, 77, 127
2, 167571, Note_off_c, 0, 60, 127
2, 167578, Note_on_c, 8, 56, 127
2, 167578, Note_on_c, 6, 78, 127
2, 167687, Note_off_c, 6, 78, 127
2, 167693, Note_on_c, 5, 77, 127
2, 167802, Note_off_c, 5, 77, 127
2, 167808, Note_on_c, 3, 75, 127
2, 167917, Note_off_c, 3, 75, 127
2, 167918, Note_off_c, 8, 56, 127
2, 167924, Note_on_c, 1, 61, 127
2, 167924, Note_on_c, 5, 77, 127
2, 168091, Note_off_c, 5, 77, 127
2, 168097, Note_on_c, 0, 60, 127
2, 168097, Note_on_c, 6, 78, 127
2, 168264, Note_off_c, 6, 78, 127
2, 168264, Note_off_c, 0, 60, 127
2, 168266, Note_off_c, 1, 61, 127
2, 168270, Note_on_c, 1, 61, 127
2, 168270, Note_on_c, 5, 77, 127
2, 168437, Note_off_c, 5, 77, 127
2, 168437, Note_off_c, 1, 61, 127
2, 168443, Note_on_c, 3, 63, 127
2, 168443, Note_on_c, 3, 75, 127
2, 168610, Note_off_c, 3, 75, 127
2, 168610, Note_off_c, 3, 63, 127
2, 168616, Note_on_c, 11, 58, 127
2, 168616, Note_on_c, 5, 65, 127
2, 168616, Note_on_c, 1, 73, 127
2, 168783, Note_off_c, 1, 73, 127
2, 168783, Note_off_c, 5, 65, 127
2, 168789, Note_on_c, 7, 67, 127
2, 168789, Note_on_c, 0, 72, 127
2, 168956, Note_off_c, 0, 72, 127
2, 168956, Note_off_c, 7, 67, 127
2, 168963, Note_on_c, 8, 68, 127
2, 168963, Note_on_c, 11, 70, 127
2, 169064, Note_off_c, 11, 70, 127
2, 169070, Note_on_c, 0, 72, 127
2, 169121, Note_off_c, 11, 58, 127
2, 169171, Note_off_c, 0, 72, 127
2, 169171, Note_off_c, 8, 68, 127
2, 169178, Note_on_c, 7, 67, 127
2, 169178, Note_on_c, 1, 73, 127
2, 169305, Note_off_c, 1, 73, 127
2, 169305, Note_off_c, 7, 67, 127
2, 169311, Note_on_c, 8, 68, 127
2, 169311, Note_on_c, 0, 72, 127
2, 169484, Note_on_c, 8, 56, 127
2, 169651, Note_off_c, 8, 56, 127
2, 169651, Note_off_c, 0, 72, 127
2, 169657, Note_on_c, 11, 58, 127
2, 169657, Note_on_c, 8, 80, 127
2, 169816, Note_off_c, 8, 68, 127
2, 169826, Note_off_c, 11, 58, 127
2, 169832, Note_on_c, 0, 60, 127
2, 169999, Note_off_c, 0, 60, 127
2, 169999, Note_off_c, 8, 80, 127
2, 170005, Note_on_c, 1, 61, 127
2, 170005, Note_on_c, 5, 77, 127
2, 170178, Note_on_c, 3, 63, 127
2, 170345, Note_off_c, 3, 63, 127
2, 170345, Note_off_c, 5, 77, 127
2, 170347, Note_off_c, 1, 61, 127
2, 170352, Note_on_c, 5, 65, 127
2, 170352, Note_on_c, 8, 80, 127
2, 170519, Note_off_c, 5, 65, 127
2, 170525, Note_on_c, 1, 61, 127
2, 170692, Note_off_c, 1, 61, 127
2, 170692, Note_off_c, 8, 80, 127
2, 170698, Note_on_c, 11, 58, 127
2, 170698, Note_on_c, 5, 65, 127
2, 170698, Note_on_c, 1, 73, 127
2, 170865, Note_off_c, 1, 73, 127
2, 170871, Note_on_c, 5, 77, 127
2, 171038, Note_off_c, 5, 77, 127
2, 171038, Note_off_c, 11, 58, 127
2, 171044, Note_on_c, 11, 58, 127
2, 171044, Note_on_c, 6, 78, 127
2, 171203, Note_off_c, 5, 65, 127
2, 171213, Note_off_c, 6, 78, 127
2, 171219, Note_on_c, 8, 80, 127
2, 171386, Note_off_c, 8, 80, 127
2, 171386, Note_off_c, 11, 58, 127
2, 171392, Note_on_c, 1, 61, 127
2, 171392, Note_on_c, 11, 82, 127
2, 171559, Note_off_c, 11, 82, 127
2, 171566, Note_on_c, 0, 84, 127
2, 171733, Note_off_c, 0, 84, 127
2, 171739, Note_on_c, 11, 58, 127
2, 171739, Note_on_c, 1, 85, 127
2, 171897, Note_off_c, 1, 61, 127
2, 171908, Note_off_c, 1, 85, 127
2, 171914, Note_on_c, 11, 82, 127
2, 172081, Note_off_c, 11, 82, 127
2, 172081, Note_off_c, 11, 58, 127
2, 172087, Note_on_c, 3, 63, 127
2, 172087, Note_on_c, 6, 66, 127
2, 172087, Note_on_c, 6, 78, 127
2, 172254, Note_off_c, 6, 78, 127
2, 172260, Note_on_c, 8, 80, 127
2, 172427, Note_off_c, 8, 80, 127
2, 172427, Note_off_c, 3, 63, 127
2, 172429, Note_off_c, 6, 66, 127
2, 172433, Note_on_c, 3, 51, 127
2, 172433, Note_on_c, 6, 78, 127
2, 172600, Note_off_c, 6, 78, 127
2, 172606, Note_on_c, 5, 77, 127
2, 172773, Note_off_c, 5, 77, 127
2, 172773, Note_off_c, 3, 51, 127
2, 172779, Note_on_c, 0, 48, 127
2, 172779, Note_on_c, 3, 75, 127
2, 172946, Note_off_c, 3, 75, 127
2, 172953, Note_on_c, 1, 73, 127
2, 173119, Note_off_c, 0, 48, 127
2, 173120, Note_off_c, 1, 73, 127
2, 173126, Note_on_c, 3, 51, 127
2, 173126, Note_on_c, 6, 66, 127
2, 173126, Note_on_c, 0, 72, 127
2, 173235, Note_off_c, 0, 72, 127
2, 173241, Note_on_c, 1, 73, 127
2, 173350, Note_off_c, 1, 73, 127
2, 173357, Note_on_c, 3, 75, 127
2, 173466, Note_off_c, 3, 75, 127
2, 173466, Note_off_c, 3, 51, 127
2, 173472, Note_on_c, 5, 53, 127
2, 173472, Note_on_c, 8, 68, 127
2, 173639, Note_off_c, 6, 66, 127
2, 173645, Note_on_c, 11, 70, 127
2, 173812, Note_off_c, 11, 70, 127
2, 173812, Note_off_c, 8, 68, 127
2, 173812, Note_off_c, 5, 53, 127
2, 173818, Note_on_c, 5, 41, 127
2, 173818, Note_on_c, 8, 68, 127
2, 173991, Note_on_c, 6, 66, 127
2, 174158, Note_off_c, 6, 66, 127
2, 174158, Note_off_c, 5, 41, 127
2, 174164, Note_on_c, 1, 37, 127
2, 174164, Note_on_c, 5, 65, 127
2, 174331, Note_off_c, 5, 65, 127
2, 174338, Note_on_c, 3, 63, 127
2, 174504, Note_off_c, 1, 37, 127
2, 174505, Note_off_c, 3, 63, 127
2, 174511, Note_on_c, 5, 41, 127
2, 174511, Note_on_c, 1, 61, 127
2, 174620, Note_off_c, 1, 61, 127
2, 174626, Note_on_c, 3, 63, 127
2, 174735, Note_off_c, 3, 63, 127
2, 174742, Note_on_c, 5, 65, 127
2, 174851, Note_off_c, 5, 65, 127
2, 174851, Note_off_c, 5, 41, 127
2, 174857, Note_on_c, 6, 42, 127
2, 174857, Note_on_c, 11, 58, 127
2, 175023, Note_off_c, 8, 68, 127
2, 175030, Note_on_c, 1, 61, 127
2, 175197, Note_off_c, 1, 61, 127
2, 175203, Note_on_c, 3, 63, 127
2, 175362, Note_off_c, 11, 58, 127
2, 175372, Note_off_c, 3, 63, 127
2, 175378, Note_on_c, 5, 65, 127
2, 175545, Note_off_c, 5, 65, 127
2, 175545, Note_off_c, 6, 42, 127
2, 175551, Note_on_c, 3, 51, 127
2, 175551, Note_on_c, 6, 66, 127
2, 175718, Note_off_c, 6, 66, 127
2, 175725, Note_on_c, 8, 68, 127
2, 175892, Note_off_c, 8, 68, 127
2, 175898, Note_on_c, 3, 63, 127
2, 175898, Note_on_c, 11, 70, 127
2, 176065, Note_off_c, 11, 70, 127
2, 176071, Note_on_c, 6, 66, 127
2, 176237, Note_off_c, 3, 51, 127
2, 176238, Note_off_c, 6, 66, 127
2, 176238, Note_off_c, 3, 63, 127
2, 176244, Note_on_c, 6, 54, 127
2, 176244, Note_on_c, 11, 58, 127
2, 176244, Note_on_c, 3, 63, 127
2, 176411, Note_off_c, 3, 63, 127
2, 176417, Note_on_c, 5, 65, 127
2, 176584, Note_off_c, 5, 65, 127
2, 176584, Note_off_c, 11, 58, 127
2, 176590, Note_on_c, 3, 63, 127
2, 176590, Note_on_c, 6, 66, 127
2, 176757, Note_off_c, 6, 66, 127
2, 176763, Note_on_c, 8, 68, 127
2, 176930, Note_off_c, 8, 68, 127
2, 176930, Note_off_c, 3, 63, 127
2, 176930, Note_off_c, 6, 54, 127
2, 176937, Note_on_c, 3, 51, 127
2, 176937, Note_on_c, 6, 54, 127
2, 176937, Note_on_c, 11, 70, 127
2, 177104, Note_off_c, 11, 70, 127
2, 177110, Note_on_c, 0, 72, 127
2, 177277, Note_off_c, 0, 72, 127
2, 177277, Note_off_c, 6, 54, 127
2, 177283, Note_on_c, 6, 66, 127
2, 177283, Note_on_c, 1, 73, 127
2, 177392, Note_off_c, 1, 73, 127
2, 177398, Note_on_c, 0, 72, 127
2, 177507, Note_off_c, 0, 72, 127
2, 177514, Note_on_c, 11, 70, 127
2, 177623, Note_off_c, 11, 70, 127
2, 177623, Note_off_c, 3, 51, 127
2, 177629, Note_on_c, 8, 56, 127
2, 177629, Note_on_c, 0, 72, 127
2, 177796, Note_off_c, 6, 66, 127
2, 177802, Note_on_c, 8, 68, 127
2, 177969, Note_off_c, 8, 68, 127
2, 177969, Note_off_c, 0, 72, 127
2, 177975, Note_on_c, 6, 66, 127
2, 177975, Note_on_c, 3, 75, 127
2, 178142, Note_off_c, 3, 75, 127
2, 178142, Note_off_c, 6, 66, 127
2, 178148, Note_on_c, 4, 64, 127
2, 178148, Note_on_c, 1, 73, 127
2, 178315, Note_off_c, 1, 73, 127
2, 178315, Note_off_c, 4, 64, 127
2, 178322, Note_on_c, 3, 63, 127
2, 178322, Note_on_c, 0, 72, 127
2, 178489, Note_off_c, 3, 63, 127
2, 178495, Note_on_c, 1, 61, 127
2, 178662, Note_off_c, 1, 61, 127
2, 178662, Note_off_c, 0, 72, 127
2, 178668, Note_on_c, 0, 60, 127
2, 178668, Note_on_c, 3, 75, 127
2, 178777, Note_off_c, 0, 60, 127
2, 178783, Note_on_c, 1, 61, 127
2, 178892, Note_off_c, 1, 61, 127
2, 178899, Note_on_c, 3, 63, 127
2, 179008, Note_off_c, 3, 63, 127
2, 179008, Note_off_c, 3, 75, 127
2, 179014, Note_on_c, 4, 64, 127
2, 179014, Note_on_c, 8, 68, 127
2, 179181, Note_off_c, 4, 64, 127
2, 179187, Note_on_c, 6, 66, 127
2, 179354, Note_off_c, 6, 66, 127
2, 179354, Note_off_c, 8, 68, 127
2, 179360, Note_on_c, 4, 64, 127
2, 179360, Note_on_c, 1, 73, 127
2, 179527, Note_off_c, 4, 64, 127
2, 179533, Note_on_c, 3, 63, 127
2, 179700, Note_off_c, 3, 63, 127
2, 179700, Note_off_c, 1, 73, 127
2, 179707, Note_on_c, 1, 61, 127
2, 179707, Note_on_c, 4, 76, 127
2, 179874, Note_off_c, 1, 61, 127
2, 179880, Note_on_c, 12, 59, 127
2, 180047, Note_off_c, 12, 59, 127
2, 180047, Note_off_c, 4, 76, 127
2, 180053, Note_on_c, 11, 58, 127
2, 180053, Note_on_c, 1, 73, 127
2, 180162, Note_off_c, 11, 58, 127
2, 180168, Note_on_c, 0, 60, 127
2, 180277, Note_off_c, 0, 60, 127
2, 180284, Note_on_c, 1, 61, 127
2, 180393, Note_off_c, 1, 61, 127
2, 180393, Note_off_c, 1, 73, 127
2, 180399, Note_on_c, 0, 60, 127
2, 180399, Note_on_c, 6, 78, 127
2, 180566, Note_off_c, 6, 78, 127
2, 180572, Note_on_c, 10, 81, 127
2, 180739, Note_off_c, 10, 81, 127
2, 180739, Note_off_c, 0, 60, 127
2, 180745, Note_on_c, 3, 63, 127
2, 180745, Note_on_c, 8, 80, 127
2, 180912, Note_off_c, 8, 80, 127
2, 180919, Note_on_c, 6, 78, 127
2, 181085, Note_off_c, 3, 63, 127
2, 181086, Note_off_c, 6, 78, 127
2, 181092, Note_on_c, 1, 61, 127
2, 181092, Note_on_c, 4, 76, 127
2, 181259, Note_off_c, 4, 76, 127
2, 181265, Note_on_c, 3, 75, 127
2, 181432, Note_off_c, 3, 75, 127
2, 181432, Note_off_c, 1, 61, 127
2, 181438, Note_on_c, 4, 64, 127
2, 181438, Note_on_c, 1, 73, 127
2, 181547, Note_off_c, 1, 73, 127
2, 181553, Note_on_c, 3, 75, 127
2, 181662, Note_off_c, 3, 75, 127
2, 181669, Note_on_c, 4, 76, 127
2, 181778, Note_off_c, 4, 76, 127
2, 181778, Note_off_c, 4, 64, 127
2, 181784, Note_on_c, 11, 58, 127
2, 181784, Note_on_c, 7, 67, 127
2, 181951, Note_off_c, 7, 67, 127
2, 181957, Note_on_c, 8, 68, 127
2, 182124, Note_off_c, 8, 68, 127
2, 182124, Note_off_c, 11, 58, 127
2, 182130, Note_on_c, 1, 61, 127
2, 182130, Note_on_c, 11, 70, 127
2, 182297, Note_off_c, 11, 70, 127
2, 182304, Note_on_c, 12, 71, 127
2, 182471, Note_off_c, 12, 71, 127
2, 182477, Note_on_c, 4, 64, 127
2, 182477, Note_on_c, 1, 73, 127
2, 182644, Note_off_c, 1, 73, 127
2, 182650, Note_on_c, 3, 75, 127
2, 182817, Note_off_c, 3, 75, 127
2, 182823, Note_on_c, 7, 67, 127
2, 182823, Note_on_c, 4, 76, 127
2, 182932, Note_off_c, 4, 76, 127
2, 182938, Note_on_c, 3, 75, 127
2, 183047, Note_off_c, 3, 75, 127
2, 183054, Note_on_c, 1, 73, 127
2, 183161, Note_off_c, 4, 64, 127
2, 183163, Note_off_c, 1, 73, 127
2, 183163, Note_off_c, 7, 67, 127
2, 183166, Note_off_c, 1, 61, 127
2, 183169, Note_on_c, 8, 68, 127
2, 183169, Note_on_c, 3, 63, 127
2, 183169, Note_on_c, 0, 72, 127
2, 183336, Note_off_c, 8, 56, 127
2, 183342, Note_on_c, 11, 58, 127
2, 183509, Note_off_c, 11, 58, 127
2, 183509, Note_off_c, 0, 72, 127
2, 183515, Note_on_c, 8, 56, 127
2, 183515, Note_on_c, 3, 75, 127
2, 183674, Note_off_c, 3, 63, 127
2, 183674, Note_off_c, 8, 68, 127
2, 183684, Note_off_c, 8, 56, 127
2, 183691, Note_on_c, 6, 54, 127
2, 183857, Note_off_c, 3, 75, 127
2, 183858, Note_off_c, 6, 54, 127
2, 183864, Note_on_c, 5, 53, 127
2, 183864, Note_on_c, 8, 80, 127
2, 184031, Note_off_c, 5, 53, 127
2, 184037, Note_on_c, 3, 51, 127
2, 184204, Note_off_c, 3, 51, 127
2, 184210, Note_on_c, 2, 50, 127
2, 184210, Note_on_c, 5, 77, 127
2, 184319, Note_off_c, 2, 50, 127
2, 184325, Note_on_c, 3, 51, 127
2, 184434, Note_off_c, 3, 51, 127
2, 184441, Note_on_c, 5, 53, 127
2, 184550, Note_off_c, 5, 53, 127
2, 184550, Note_off_c, 5, 77, 127
2, 184556, Note_on_c, 11, 46, 127
2, 184556, Note_on_c, 2, 74, 127
2, 184723, Note_off_c, 11, 46, 127
2, 184729, Note_on_c, 11, 58, 127
2, 184896, Note_off_c, 11, 58, 127
2, 184896, Note_off_c, 2, 74, 127
2, 184903, Note_on_c, 0, 60, 127
2, 184903, Note_on_c, 5, 77, 127
2, 185070, Note_off_c, 0, 60, 127
2, 185076, Note_on_c, 2, 62, 127
2, 185243, Note_off_c, 2, 62, 127
2, 185243, Note_off_c, 5, 77, 127
2, 185243, Note_off_c, 8, 80, 127
2, 185249, Note_on_c, 3, 63, 127
2, 185249, Note_on_c, 11, 70, 127
2, 185249, Note_on_c, 6, 78, 127
2, 185416, Note_off_c, 3, 63, 127
2, 185422, Note_on_c, 5, 65, 127
2, 185589, Note_off_c, 5, 65, 127
2, 185589, Note_off_c, 11, 70, 127
2, 185595, Note_on_c, 6, 66, 127
2, 185595, Note_on_c, 3, 75, 127
2, 185704, Note_off_c, 6, 66, 127
2, 185710, Note_on_c, 5, 65, 127
2, 185819, Note_off_c, 5, 65, 127
2, 185826, Note_on_c, 3, 63, 127
2, 185935, Note_off_c, 3, 63, 127
2, 185935, Note_off_c, 3, 75, 127
2, 185941, Note_on_c, 8, 68, 127
2, 185941, Note_on_c, 0, 72, 127
2, 186108, Note_off_c, 8, 68, 127
2, 186114, Note_on_c, 6, 66, 127
2, 186281, Note_off_c, 6, 66, 127
2, 186281, Note_off_c, 0, 72, 127
2, 186288, Note_on_c, 5, 65, 127
2, 186288, Note_on_c, 3, 75, 127
2, 186455, Note_off_c, 5, 65, 127
2, 186461, Note_on_c, 3, 63, 127
2, 186628, Note_off_c, 3, 63, 127
2, 186628, Note_off_c, 3, 75, 127
2, 186628, Note_off_c, 6, 78, 127
2, 186634, Note_on_c, 1, 61, 127
2, 186634, Note_on_c, 8, 68, 127
2, 186634, Note_on_c, 5, 77, 127
2, 186801, Note_off_c, 1, 61, 127
2, 186807, Note_on_c, 12, 59, 127
2, 186974, Note_off_c, 12, 59, 127
2, 186974, Note_off_c, 8, 68, 127
2, 186980, Note_on_c, 11, 58, 127
2, 186980, Note_on_c, 1, 73, 127
2, 187089, Note_off_c, 11, 58, 127
2, 187095, Note_on_c, 12, 59, 127
2, 187204, Note_off_c, 12, 59, 127
2, 187211, Note_on_c, 1, 61, 127
2, 187320, Note_off_c, 1, 61, 127
2, 187320, Note_off_c, 1, 73, 127
2, 187326, Note_on_c, 6, 54, 127
2, 187326, Note_on_c, 11, 70, 127
2, 187493, Note_off_c, 11, 70, 127
2, 187499, Note_on_c, 1, 73, 127
2, 187666, Note_off_c, 1, 73, 127
2, 187666, Note_off_c, 6, 54, 127
2, 187673, Note_on_c, 3, 39, 127
2, 187673, Note_on_c, 6, 66, 127
2, 187754, Note_off_c, 5, 77, 127
2, 187760, Note_on_c, 3, 75, 127
2, 187841, Note_off_c, 3, 75, 127
2, 187848, Note_on_c, 1, 73, 127
2, 187929, Note_off_c, 1, 73, 127
2, 187935, Note_on_c, 12, 71, 127
2, 188016, Note_off_c, 12, 71, 127
2, 188017, Note_off_c, 3, 39, 127
2, 188019, Note_off_c, 6, 66, 127
2, 188023, Note_on_c, 6, 42, 127
2, 188023, Note_on_c, 11, 70, 127
2, 188104, Note_off_c, 11, 70, 127
2, 188110, Note_on_c, 8, 68, 127
2, 188191, Note_off_c, 8, 68, 127
2, 188198, Note_on_c, 6, 66, 127
2, 188279, Note_off_c, 6, 66, 127
2, 188286, Note_on_c, 5, 65, 127
2, 188367, Note_off_c, 5, 65, 127
2, 188367, Note_off_c, 6, 42, 127
2, 188373, Note_on_c, 3, 39, 127
2, 188373, Note_on_c, 6, 66, 127
2, 188461, Note_on_c, 5, 65, 127
2, 188542, Note_off_c, 5, 65, 127
2, 188548, Note_on_c, 3, 63, 127
2, 188629, Note_off_c, 3, 63, 127
2, 188636, Note_on_c, 1, 61, 127
2, 188717, Note_off_c, 1, 61, 127
2, 188717, Note_off_c, 3, 39, 127
2, 188723, Note_on_c, 8, 44, 127
2, 188723, Note_on_c, 0, 60, 127
2, 188890, Note_off_c, 0, 60, 127
2, 188896, Note_on_c, 3, 63, 127
2, 189070, Note_on_c, 8, 56, 127
2, 189157, Note_on_c, 6, 54, 127
2, 189238, Note_off_c, 6, 54, 127
2, 189245, Note_on_c, 5, 53, 127
2, 189326, Note_off_c, 5, 53, 127
2, 189332, Note_on_c, 3, 51, 127
2, 189413, Note_off_c, 3, 51, 127
2, 189420, Note_on_c, 5, 53, 127
2, 189501, Note_off_c, 5, 53, 127
2, 189507, Note_on_c, 3, 51, 127
2, 189588, Note_off_c, 3, 51, 127
2, 189595, Note_on_c, 1, 49, 127
2, 189676, Note_off_c, 1, 49, 127
2, 189682, Note_on_c, 0, 48, 127
2, 189763, Note_off_c, 0, 48, 127
2, 189767, Note_off_c, 6, 66, 127
2, 189769, Note_off_c, 3, 63, 127
2, 189770, Note_on_c, 1, 49, 127
2, 189770, Note_on_c, 5, 65, 127
2, 189770, Note_on_c, 1, 61, 127
2, 189851, Note_off_c, 8, 44, 127
2, 189858, Note_on_c, 11, 46, 127
2, 189939, Note_off_c, 11, 46, 127
2, 189945, Note_on_c, 8, 44, 127
2, 190026, Note_off_c, 8, 44, 127
2, 190033, Note_on_c, 7, 43, 127
2, 190114, Note_off_c, 7, 43, 127
2, 190116, Note_off_c, 1, 49, 127
2, 190118, Note_off_c, 8, 56, 127
2, 190120, Note_on_c, 8, 44, 127
2, 190201, Note_off_c, 5, 65, 127
2, 190208, Note_on_c, 5, 65, 127
2, 190289, Note_off_c, 5, 65, 127
2, 190295, Note_on_c, 3, 63, 127
2, 190370, Note_off_c, 1, 61, 127
2, 190376, Note_off_c, 3, 63, 127
2, 190383, Note_on_c, 1, 61, 127
2, 190471, Note_on_c, 7, 55, 127
2, 190471, Note_on_c, 3, 63, 127
2, 190546, Note_off_c, 1, 61, 127
2, 190556, Note_on_c, 1, 61, 127
2, 190637, Note_off_c, 1, 61, 127
2, 190644, Note_on_c, 0, 60, 127
2, 190725, Note_off_c, 0, 60, 127
2, 190731, Note_on_c, 11, 58, 127
2, 190812, Note_off_c, 11, 58, 127
2, 190813, Note_off_c, 7, 55, 127
2, 190819, Note_on_c, 8, 56, 127
2, 190819, Note_on_c, 0, 60, 127
2, 190892, Note_off_c, 8, 44, 127
2, 190904, Note_on_c, 11, 46, 127
2, 190985, Note_off_c, 11, 46, 127
2, 190992, Note_on_c, 0, 48, 127
2, 191073, Note_off_c, 0, 48, 127
2, 191079, Note_on_c, 1, 49, 127
2, 191160, Note_off_c, 1, 49, 127
2, 191167, Note_on_c, 3, 51, 127
2, 191248, Note_off_c, 3, 51, 127
2, 191255, Note_on_c, 5, 53, 127
2, 191336, Note_off_c, 5, 53, 127
2, 191342, Note_on_c, 6, 54, 127
2, 191423, Note_off_c, 6, 54, 127
2, 191430, Note_on_c, 3, 51, 127
2, 191509, Note_off_c, 8, 56, 127
2, 191511, Note_off_c, 3, 51, 127
2, 191517, Note_on_c, 5, 53, 127
2, 191684, Note_off_c, 0, 60, 127
2, 191690, Note_on_c, 8, 56, 127
2, 191857, Note_off_c, 5, 53, 127
2, 191858, Note_off_c, 3, 63, 127
2, 191864, Note_on_c, 4, 52, 127
2, 191864, Note_on_c, 1, 61, 127
2, 192030, Note_off_c, 8, 56, 127
2, 192037, Note_on_c, 7, 55, 127
2, 192204, Note_off_c, 7, 55, 127
2, 192204, Note_off_c, 4, 52, 127
2, 192210, Note_on_c, 8, 44, 127
2, 192210, Note_on_c, 3, 51, 127
2, 192210, Note_on_c, 8, 56, 127
2, 192377, Note_off_c, 1, 61, 127
2, 192383, Note_on_c, 1, 61, 127
2, 192550, Note_off_c, 1, 61, 127
2, 192556, Note_on_c, 0, 60, 127
2, 192723, Note_off_c, 8, 56, 127
2, 192729, Note_on_c, 6, 54, 127
2, 192896, Note_off_c, 0, 60, 127
2, 192896, Note_off_c, 3, 51, 127
2, 192896, Note_off_c, 8, 44, 127
2, 192902, Note_on_c, 1, 37, 127
2, 192902, Note_on_c, 1, 49, 127
2, 192902, Note_on_c, 1, 61, 127
2, 193075, Note_off_c, 6, 54, 127
2, 193081, Note_on_c, 6, 54, 127
2, 193254, Note_off_c, 6, 54, 127
2, 193261, Note_on_c, 5, 53, 127
2, 193434, Note_off_c, 5, 53, 127
2, 193440, Note_on_c, 3, 51, 127
2, 193613, Note_off_c, 3, 51, 127
2, 193619, Note_on_c, 5, 53, 127
2, 193791, Note_off_c, 1, 61, 127
2, 193798, Note_on_c, 8, 56, 127
2, 193971, Note_off_c, 8, 56, 127
2, 193977, Note_on_c, 12, 59, 127
2, 194150, Note_off_c, 12, 59, 127
2, 194156, Note_on_c, 8, 56, 127
2, 194329, Note_off_c, 8, 56, 127
2, 194335, Note_on_c, 11, 58, 127
2, 194514, Note_off_c, 5, 53, 127
2, 194520, Note_on_c, 8, 56, 127
2, 194699, Note_off_c, 8, 56, 127
2, 194705, Note_on_c, 6, 54, 127
2, 194884, Note_off_c, 6, 54, 127
2, 194890, Note_on_c, 5, 53, 127
2, 195069, Note_off_c, 5, 53, 127
2, 195075, Note_on_c, 6, 54, 127
2, 195254, Note_off_c, 11, 58, 127
2, 195260, Note_on_c, 11, 58, 127
2, 195439, Note_off_c, 11, 58, 127
2, 195446, Note_on_c, 1, 61, 127
2, 195625, Note_off_c, 1, 61, 127
2, 195631, Note_on_c, 11, 58, 127
2, 195810, Note_off_c, 11, 58, 127
2, 195816, Note_on_c, 3, 63, 127
2, 196000, Note_off_c, 1, 49, 127
2, 196007, Note_on_c, 1, 49, 127
2, 196192, Note_off_c, 1, 49, 127
2, 196198, Note_on_c, 0, 48, 127
2, 196383, Note_off_c, 0, 48, 127
2, 196389, Note_on_c, 11, 46, 127
2, 196574, Note_off_c, 11, 46, 127
2, 196577, Note_off_c, 6, 54, 127
2, 196580, Note_on_c, 0, 48, 127
2, 196765, Note_off_c, 3, 63, 127
2, 196771, Note_on_c, 5, 65, 127
2, 196956, Note_off_c, 5, 65, 127
2, 196962, Note_on_c, 6, 66, 127
2, 197153, Note_on_c, 8, 56, 127
2, 197338, Note_off_c, 8, 56, 127
2, 197338, Note_off_c, 0, 48, 127
2, 197344, Note_on_c, 1, 49, 127
2, 197344, Note_on_c, 11, 58, 127
2, 197543, Note_off_c, 6, 66, 127
2, 197549, Note_on_c, 5, 65, 127
2, 197748, Note_off_c, 5, 65, 127
2, 197754, Note_on_c, 3, 63, 127
2, 197953, Note_off_c, 3, 63, 127
2, 197959, Note_on_c, 6, 66, 127
2, 198157, Note_off_c, 11, 58, 127
2, 198157, Note_off_c, 1, 49, 127
2, 198164, Note_on_c, 3, 51, 127
2, 198164, Note_on_c, 0, 60, 127
2, 198382, Note_off_c, 6, 66, 127
2, 198391, Note_on_c, 11, 70, 127
2, 198609, Note_off_c, 11, 70, 127
2, 198618, Note_on_c, 8, 68, 127
2, 198836, Note_off_c, 8, 68, 127
2, 198844, Note_on_c, 6, 66, 127
2, 199062, Note_off_c, 6, 66, 127
2, 199063, Note_off_c, 0, 60, 127
2, 199063, Note_off_c, 3, 51, 127
2, 199071, Note_on_c, 1, 49, 127
2, 199071, Note_on_c, 8, 56, 127
2, 199071, Note_on_c, 1, 61, 127
2, 199071, Note_on_c, 5, 65, 127
2, 202368, Note_off_c, 5, 65, 127
2, 202368, Note_off_c, 1, 61, 127
2, 202368, Note_off_c, 8, 56, 127
2, 202368, Note_off_c, 1, 49, 127
2, 202368, Note_off_c, 1, 37, 127
2, 207360, End_track
3, 0, Start_track
3, 0, Title_t, "MIDI"
3, 1536, End_track
0, 0, End_of_file
