0, 0, Header, 1, 3, 384
1, 0, Start_track
1, 0, Tempo, 500000
1, 0, Time_signature, 4, 2, 24, 8
1, 159744, End_track
2, 0, Start_track
2, 0, Text_t, "harpsichord: John Sankey"
2, 0, Program_c, 0, 6
2, 0, Pitch_bend_c, 0, 8192
2, 0, Program_c, 1, 6
2, 0, Pitch_bend_c, 1, 7792
2, 0, Program_c, 2, 6
2, 0, Pitch_bend_c, 2, 7876
2, 0, Program_c, 3, 6
2, 0, Pitch_bend_c, 3, 7952
2, 0, Program_c, 4, 6
2, 0, Pitch_bend_c, 4, 7792
2, 0, Program_c, 5, 6
2, 0, Pitch_bend_c, 5, 8112
2, 0, Program_c, 6, 6
2, 0, Pitch_bend_c, 6, 7712
2, 0, Program_c, 7, 6
2, 0, Pitch_bend_c, 7, 8037
2, 0, Program_c, 8, 6
2, 0, Pitch_bend_c, 8, 7872
2, 0, Program_c, 10, 6
2, 0, Pitch_bend_c, 10, 7712
2, 0, Program_c, 11, 6
2, 0, Pitch_bend_c, 11, 8032
2, 0, Program_c, 12, 6
2, 0, Pitch_bend_c, 12, 7872
2, 0, Title_t, "Track 1"
2, 96, Note_on_c, 5, 53, 127
2, 496, Note_off_c, 5, 53, 127
2, 497, Note_on_c, 3, 51, 127
2, 497, Note_on_c, 0, 72, 127
2, 897, Note_off_c, 0, 72, 127
2, 897, Note_off_c, 3, 51, 127
2, 898, Note_on_c, 1, 49, 127
2, 898, Note_on_c, 1, 73, 127
2, 997, Note_off_c, 1, 73, 127
2, 998, Note_on_c, 3, 75, 127
2, 1097, Note_off_c, 3, 75, 127
2, 1098, Note_on_c, 5, 77, 127
2, 1297, Note_off_c, 5, 77, 127
2, 1297, Note_off_c, 1, 49, 127
2, 1298, Note_on_c, 0, 48, 127
2, 1298, Note_on_c, 3, 75, 127
2, 1698, Note_off_c, 3, 75, 127
2, 1698, Note_off_c, 0, 48, 127
2, 1699, Note_on_c, 0, 60, 127
2, 1699, Note_on_c, 8, 68, 127
2, 1898, Note_off_c, 8, 68, 127
2, 1899, Note_on_c, 11, 70, 127
2, 2098, Note_off_c, 11, 70, 127
2, 2098, Note_off_c, 0, 60, 127
2, 2099, Note_on_c, 11, 58, 127
2, 2099, Note_on_c, 0, 72, 127
2, 2198, Note_off_c, 0, 72, 127
2, 2199, Note_on_c, 11, 70, 127
2, 2298, Note_off_c, 11, 70, 127
2, 2299, Note_on_c, 8, 68, 127
2, 2398, Note_off_c, 8, 68, 127
2, 2399, Note_on_c, 11, 70, 127
2, 2498, Note_off_c, 11, 70, 127
2, 2498, Note_off_c, 11, 58, 127
2, 2499, Note_on_c, 8, 56, 127
2, 2499, Note_on_c, 0, 72, 127
2, 2899, Note_off_c, 0, 72, 127
2, 2899, Note_off_c, 8, 56, 127
2, 2900, Note_on_c, 8, 44, 127
2, 2900, Note_on_c, 5, 65, 127
2, 3099, Note_off_c, 5, 65, 127
2, 3100, Note_on_c, 7, 67, 127
2, 3299, Note_off_c, 7, 67, 127
2, 3299, Note_off_c, 8, 44, 127
2, 3300, Note_on_c, 7, 43, 127
2, 3300, Note_on_c, 8, 68, 127
2, 3399, Note_off_c, 8, 68, 127
2, 3400, Note_on_c, 7, 67, 127
2, 3499, Note_off_c, 7, 67, 127
2, 3500, Note_on_c, 5, 65, 127
2, 3599, Note_off_c, 5, 65, 127
2, 3600, Note_on_c, 7, 67, 127
2, 3699, Note_off_c, 7, 67, 127
2, 3699, Note_off_c, 7, 43, 127
2, 3700, Note_on_c, 5, 41, 127
2, 3700, Note_on_c, 8, 68, 127
2, 3899, Note_off_c, 8, 68, 127
2, 3900, Note_on_c, 7, 67, 127
2, 4099, Note_off_c, 7, 67, 127
2, 4099, Note_off_c, 5, 41, 127
2, 4100, Note_on_c, 3, 39, 127
2, 4100, Note_on_c, 11, 70, 127
2, 4299, Note_off_c, 11, 70, 127
2, 4300, Note_on_c, 8, 68, 127
2, 4499, Note_off_c, 8, 68, 127
2, 4499, Note_off_c, 3, 39, 127
2, 4500, Note_on_c, 1, 37, 127
2, 4500, Note_on_c, 7, 67, 127
2, 4648, Note_on_c, 8, 68, 127
2, 4656, Note_off_c, 7, 67, 127
2, 4773, Note_off_c, 8, 68, 127
2, 4774, Note_on_c, 5, 65, 127
2, 4899, Note_off_c, 5, 65, 127
2, 4899, Note_off_c, 1, 37, 127
2, 4900, Note_on_c, 0, 36, 127
2, 4900, Note_on_c, 4, 64, 127
2, 5192, Note_off_c, 4, 64, 127
2, 5299, Note_off_c, 0, 36, 127
2, 5300, Note_on_c, 8, 44, 127
2, 5300, Note_on_c, 0, 72, 127
2, 5700, Note_off_c, 0, 72, 127
2, 5700, Note_off_c, 8, 44, 127
2, 5701, Note_on_c, 5, 41, 127
2, 5701, Note_on_c, 1, 73, 127
2, 5800, Note_off_c, 1, 73, 127
2, 5801, Note_on_c, 3, 75, 127
2, 5900, Note_off_c, 3, 75, 127
2, 5901, Note_on_c, 5, 77, 127
2, 6100, Note_off_c, 5, 77, 127
2, 6100, Note_off_c, 5, 41, 127
2, 6101, Note_on_c, 0, 48, 127
2, 6101, Note_on_c, 3, 75, 127
2, 6501, Note_off_c, 3, 75, 127
2, 6501, Note_off_c, 0, 48, 127
2, 6502, Note_on_c, 0, 60, 127
2, 6502, Note_on_c, 8, 68, 127
2, 6701, Note_off_c, 8, 68, 127
2, 6702, Note_on_c, 11, 70, 127
2, 6901, Note_off_c, 11, 70, 127
2, 6901, Note_off_c, 0, 60, 127
2, 6902, Note_on_c, 11, 58, 127
2, 6902, Note_on_c, 0, 72, 127
2, 7001, Note_off_c, 0, 72, 127
2, 7002, Note_on_c, 11, 70, 127
2, 7101, Note_off_c, 11, 70, 127
2, 7102, Note_on_c, 8, 68, 127
2, 7201, Note_off_c, 8, 68, 127
2, 7202, Note_on_c, 11, 70, 127
2, 7301, Note_off_c, 11, 70, 127
2, 7301, Note_off_c, 11, 58, 127
2, 7302, Note_on_c, 8, 56, 127
2, 7302, Note_on_c, 0, 72, 127
2, 7702, Note_off_c, 0, 72, 127
2, 7702, Note_off_c, 8, 56, 127
2, 7703, Note_on_c, 8, 44, 127
2, 7703, Note_on_c, 5, 65, 127
2, 7902, Note_off_c, 5, 65, 127
2, 7903, Note_on_c, 7, 67, 127
2, 8102, Note_off_c, 7, 67, 127
2, 8102, Note_off_c, 8, 44, 127
2, 8103, Note_on_c, 7, 43, 127
2, 8103, Note_on_c, 8, 68, 127
2, 8202, Note_off_c, 8, 68, 127
2, 8203, Note_on_c, 7, 67, 127
2, 8302, Note_off_c, 7, 67, 127
2, 8303, Note_on_c, 5, 65, 127
2, 8402, Note_off_c, 5, 65, 127
2, 8403, Note_on_c, 7, 67, 127
2, 8502, Note_off_c, 7, 67, 127
2, 8502, Note_off_c, 7, 43, 127
2, 8503, Note_on_c, 5, 41, 127
2, 8503, Note_on_c, 8, 68, 127
2, 8702, Note_off_c, 8, 68, 127
2, 8703, Note_on_c, 7, 67, 127
2, 8902, Note_off_c, 7, 67, 127
2, 8902, Note_off_c, 5, 41, 127
2, 8903, Note_on_c, 0, 48, 127
2, 8903, Note_on_c, 11, 70, 127
2, 9102, Note_off_c, 11, 70, 127
2, 9103, Note_on_c, 8, 68, 127
2, 9302, Note_off_c, 8, 68, 127
2, 9302, Note_off_c, 0, 48, 127
2, 9303, Note_on_c, 0, 36, 127
2, 9303, Note_on_c, 7, 67, 127
2, 9502, Note_off_c, 7, 67, 127
2, 9503, Note_on_c, 5, 65, 127
2, 9702, Note_off_c, 5, 65, 127
2, 9702, Note_off_c, 0, 36, 127
2, 9703, Note_on_c, 5, 41, 127
2, 9703, Note_on_c, 7, 67, 127
2, 9802, Note_off_c, 7, 67, 127
2, 9803, Note_on_c, 5, 65, 127
2, 9902, Note_off_c, 5, 65, 127
2, 9902, Note_off_c, 5, 41, 127
2, 9903, Note_on_c, 7, 43, 127
2, 9903, Note_on_c, 4, 64, 127
2, 10002, Note_off_c, 4, 64, 127
2, 10003, Note_on_c, 5, 65, 127
2, 10102, Note_off_c, 7, 43, 127
2, 10103, Note_on_c, 8, 44, 127
2, 10103, Note_on_c, 0, 72, 127
2, 10302, Note_off_c, 8, 44, 127
2, 10303, Note_on_c, 11, 46, 127
2, 10502, Note_off_c, 11, 46, 127
2, 10502, Note_off_c, 0, 72, 127
2, 10503, Note_off_c, 5, 65, 127
2, 10503, Note_on_c, 0, 48, 127
2, 10503, Note_on_c, 8, 68, 127
2, 10503, Note_on_c, 5, 77, 127
2, 10702, Note_off_c, 0, 48, 127
2, 10703, Note_on_c, 1, 49, 127
2, 10873, Note_off_c, 5, 77, 127
2, 10902, Note_off_c, 1, 49, 127
2, 10903, Note_on_c, 3, 51, 127
2, 10903, Note_on_c, 11, 70, 127
2, 11102, Note_off_c, 3, 51, 127
2, 11103, Note_on_c, 5, 53, 127
2, 11302, Note_off_c, 5, 53, 127
2, 11302, Note_off_c, 8, 68, 127
2, 11303, Note_on_c, 7, 55, 127
2, 11303, Note_on_c, 7, 67, 127
2, 11502, Note_off_c, 7, 67, 127
2, 11502, Note_off_c, 7, 55, 127
2, 11502, Note_off_c, 11, 70, 127
2, 11503, Note_on_c, 8, 56, 127
2, 11503, Note_on_c, 5, 65, 127
2, 11702, Note_off_c, 5, 65, 127
2, 11702, Note_off_c, 8, 56, 127
2, 11703, Note_on_c, 11, 58, 127
2, 11703, Note_on_c, 3, 75, 127
2, 11703, Note_on_c, 7, 67, 127
2, 11902, Note_off_c, 11, 58, 127
2, 11903, Note_on_c, 0, 60, 127
2, 12073, Note_off_c, 3, 75, 127
2, 12102, Note_off_c, 0, 60, 127
2, 12103, Note_on_c, 1, 61, 127
2, 12103, Note_on_c, 8, 68, 127
2, 12302, Note_off_c, 1, 61, 127
2, 12303, Note_on_c, 3, 63, 127
2, 12502, Note_off_c, 3, 63, 127
2, 12502, Note_off_c, 7, 67, 127
2, 12503, Note_on_c, 1, 61, 127
2, 12503, Note_on_c, 5, 65, 127
2, 12702, Note_off_c, 5, 65, 127
2, 12702, Note_off_c, 1, 61, 127
2, 12702, Note_off_c, 8, 68, 127
2, 12703, Note_on_c, 0, 60, 127
2, 12703, Note_on_c, 4, 64, 127
2, 12902, Note_off_c, 4, 64, 127
2, 12902, Note_off_c, 0, 60, 127
2, 12903, Note_on_c, 11, 58, 127
2, 12903, Note_on_c, 1, 73, 127
2, 12903, Note_on_c, 5, 65, 127
2, 13102, Note_off_c, 11, 58, 127
2, 13103, Note_on_c, 8, 56, 127
2, 13273, Note_off_c, 1, 73, 127
2, 13302, Note_off_c, 8, 56, 127
2, 13303, Note_on_c, 11, 58, 127
2, 13303, Note_on_c, 7, 67, 127
2, 13502, Note_off_c, 11, 58, 127
2, 13503, Note_on_c, 1, 61, 127
2, 13702, Note_off_c, 1, 61, 127
2, 13702, Note_off_c, 5, 65, 127
2, 13703, Note_on_c, 0, 60, 127
2, 13703, Note_on_c, 4, 64, 127
2, 13902, Note_off_c, 4, 64, 127
2, 13902, Note_off_c, 0, 60, 127
2, 13902, Note_off_c, 7, 67, 127
2, 13903, Note_on_c, 11, 58, 127
2, 13903, Note_on_c, 2, 62, 127
2, 14102, Note_off_c, 2, 62, 127
2, 14102, Note_off_c, 11, 58, 127
2, 14103, Note_on_c, 8, 56, 127
2, 14103, Note_on_c, 4, 64, 127
2, 14103, Note_on_c, 0, 72, 127
2, 14302, Note_off_c, 8, 56, 127
2, 14303, Note_on_c, 7, 55, 127
2, 14502, Note_off_c, 7, 55, 127
2, 14502, Note_off_c, 0, 72, 127
2, 14502, Note_off_c, 4, 64, 127
2, 14503, Note_on_c, 5, 53, 127
2, 14503, Note_on_c, 5, 65, 127
2, 14503, Note_on_c, 8, 68, 127
2, 14602, Note_off_c, 8, 68, 127
2, 14603, Note_on_c, 7, 67, 127
2, 14702, Note_off_c, 7, 67, 127
2, 14702, Note_off_c, 5, 53, 127
2, 14703, Note_on_c, 0, 60, 127
2, 14703, Note_on_c, 8, 68, 127
2, 14902, Note_off_c, 8, 68, 127
2, 14902, Note_off_c, 0, 60, 127
2, 14903, Note_on_c, 11, 58, 127
2, 14903, Note_on_c, 1, 73, 127
2, 15102, Note_off_c, 11, 58, 127
2, 15102, Note_off_c, 5, 65, 127
2, 15103, Note_on_c, 8, 56, 127
2, 15103, Note_on_c, 5, 65, 127
2, 15302, Note_off_c, 5, 65, 127
2, 15302, Note_off_c, 8, 56, 127
2, 15303, Note_on_c, 7, 55, 127
2, 15303, Note_on_c, 11, 70, 127
2, 15502, Note_off_c, 11, 70, 127
2, 15502, Note_off_c, 7, 55, 127
2, 15503, Note_on_c, 5, 53, 127
2, 15503, Note_on_c, 8, 68, 127
2, 15702, Note_off_c, 8, 68, 127
2, 15702, Note_off_c, 5, 53, 127
2, 15703, Note_on_c, 4, 52, 127
2, 15703, Note_on_c, 7, 67, 127
2, 15902, Note_off_c, 4, 52, 127
2, 15903, Note_on_c, 11, 58, 127
2, 16101, Note_off_c, 1, 73, 127
2, 16102, Note_off_c, 11, 58, 127
2, 16103, Note_on_c, 8, 56, 127
2, 16103, Note_on_c, 0, 72, 127
2, 16302, Note_off_c, 8, 56, 127
2, 16302, Note_off_c, 7, 67, 127
2, 16303, Note_on_c, 7, 55, 127
2, 16303, Note_on_c, 11, 70, 127
2, 16502, Note_off_c, 11, 70, 127
2, 16502, Note_off_c, 7, 55, 127
2, 16503, Note_on_c, 5, 53, 127
2, 16503, Note_on_c, 8, 68, 127
2, 16702, Note_off_c, 8, 68, 127
2, 16702, Note_off_c, 5, 53, 127
2, 16703, Note_on_c, 3, 51, 127
2, 16703, Note_on_c, 7, 67, 127
2, 16902, Note_off_c, 7, 67, 127
2, 16902, Note_off_c, 3, 51, 127
2, 16903, Note_on_c, 1, 49, 127
2, 16903, Note_on_c, 5, 65, 127
2, 17102, Note_off_c, 1, 49, 127
2, 17103, Note_on_c, 8, 56, 127
2, 17301, Note_off_c, 0, 72, 127
2, 17302, Note_off_c, 8, 56, 127
2, 17303, Note_on_c, 7, 55, 127
2, 17303, Note_on_c, 11, 70, 127
2, 17502, Note_off_c, 7, 55, 127
2, 17502, Note_off_c, 5, 65, 127
2, 17503, Note_on_c, 5, 53, 127
2, 17503, Note_on_c, 8, 68, 127
2, 17702, Note_off_c, 8, 68, 127
2, 17702, Note_off_c, 5, 53, 127
2, 17703, Note_on_c, 3, 51, 127
2, 17703, Note_on_c, 7, 67, 127
2, 17902, Note_off_c, 7, 67, 127
2, 17902, Note_off_c, 3, 51, 127
2, 17903, Note_on_c, 1, 49, 127
2, 17903, Note_on_c, 5, 65, 127
2, 18102, Note_off_c, 5, 65, 127
2, 18102, Note_off_c, 1, 49, 127
2, 18103, Note_on_c, 0, 48, 127
2, 18103, Note_on_c, 4, 64, 127
2, 18302, Note_off_c, 0, 48, 127
2, 18303, Note_off_c, 11, 70, 127
2, 18303, Note_on_c, 11, 46, 127
2, 18303, Note_on_c, 1, 73, 127
2, 18502, Note_off_c, 1, 73, 127
2, 18502, Note_off_c, 11, 46, 127
2, 18503, Note_on_c, 0, 48, 127
2, 18503, Note_on_c, 0, 72, 127
2, 18702, Note_off_c, 0, 72, 127
2, 18702, Note_off_c, 4, 64, 127
2, 18703, Note_on_c, 7, 67, 127
2, 18703, Note_on_c, 11, 70, 127
2, 18902, Note_off_c, 11, 70, 127
2, 18902, Note_off_c, 7, 67, 127
2, 18902, Note_off_c, 0, 48, 127
2, 18903, Note_on_c, 0, 36, 127
2, 18903, Note_on_c, 8, 68, 127
2, 18903, Note_on_c, 5, 65, 127
2, 19102, Note_off_c, 5, 65, 127
2, 19102, Note_off_c, 8, 68, 127
2, 19103, Note_on_c, 7, 67, 127
2, 19103, Note_on_c, 4, 64, 127
2, 19302, Note_off_c, 4, 64, 127
2, 19302, Note_off_c, 7, 67, 127
2, 19302, Note_off_c, 0, 36, 127
2, 19303, Note_on_c, 5, 41, 127
2, 19303, Note_on_c, 5, 65, 127
2, 19303, Note_on_c, 8, 68, 127
2, 19683, Note_off_c, 8, 68, 127
2, 19683, Note_off_c, 5, 65, 127
2, 19693, Note_off_c, 5, 41, 127
2, 19720, Note_on_c, 0, 72, 127
2, 19720, Note_on_c, 3, 51, 127
2, 20120, Note_off_c, 3, 51, 127
2, 20120, Note_off_c, 0, 72, 127
2, 20121, Note_on_c, 1, 73, 127
2, 20121, Note_on_c, 1, 49, 127
2, 20220, Note_off_c, 1, 73, 127
2, 20221, Note_on_c, 3, 75, 127
2, 20320, Note_off_c, 3, 75, 127
2, 20321, Note_on_c, 5, 77, 127
2, 20520, Note_off_c, 5, 77, 127
2, 20520, Note_off_c, 1, 49, 127
2, 20521, Note_on_c, 3, 75, 127
2, 20521, Note_on_c, 0, 48, 127
2, 20921, Note_off_c, 0, 48, 127
2, 20921, Note_off_c, 3, 75, 127
2, 20922, Note_on_c, 8, 68, 127
2, 20922, Note_on_c, 0, 60, 127
2, 21121, Note_off_c, 8, 68, 127
2, 21122, Note_on_c, 11, 70, 127
2, 21321, Note_off_c, 11, 70, 127
2, 21321, Note_off_c, 0, 60, 127
2, 21322, Note_on_c, 0, 72, 127
2, 21322, Note_on_c, 11, 58, 127
2, 21421, Note_off_c, 0, 72, 127
2, 21422, Note_on_c, 11, 70, 127
2, 21521, Note_off_c, 11, 70, 127
2, 21522, Note_on_c, 8, 68, 127
2, 21621, Note_off_c, 8, 68, 127
2, 21622, Note_on_c, 11, 70, 127
2, 21721, Note_off_c, 11, 70, 127
2, 21721, Note_off_c, 11, 58, 127
2, 21722, Note_on_c, 0, 72, 127
2, 21722, Note_on_c, 8, 56, 127
2, 22122, Note_off_c, 8, 56, 127
2, 22122, Note_off_c, 0, 72, 127
2, 22123, Note_on_c, 5, 65, 127
2, 22123, Note_on_c, 8, 44, 127
2, 22322, Note_off_c, 5, 65, 127
2, 22323, Note_on_c, 7, 67, 127
2, 22522, Note_off_c, 7, 67, 127
2, 22522, Note_off_c, 8, 44, 127
2, 22523, Note_on_c, 8, 68, 127
2, 22523, Note_on_c, 7, 43, 127
2, 22622, Note_off_c, 8, 68, 127
2, 22623, Note_on_c, 7, 67, 127
2, 22722, Note_off_c, 7, 67, 127
2, 22723, Note_on_c, 5, 65, 127
2, 22822, Note_off_c, 5, 65, 127
2, 22823, Note_on_c, 7, 67, 127
2, 22922, Note_off_c, 7, 67, 127
2, 22922, Note_off_c, 7, 43, 127
2, 22923, Note_on_c, 8, 68, 127
2, 22923, Note_on_c, 5, 41, 127
2, 23122, Note_off_c, 8, 68, 127
2, 23123, Note_on_c, 7, 67, 127
2, 23322, Note_off_c, 7, 67, 127
2, 23322, Note_off_c, 5, 41, 127
2, 23323, Note_on_c, 11, 70, 127
2, 23323, Note_on_c, 3, 39, 127
2, 23522, Note_off_c, 11, 70, 127
2, 23523, Note_on_c, 8, 68, 127
2, 23722, Note_off_c, 8, 68, 127
2, 23722, Note_off_c, 3, 39, 127
2, 23723, Note_on_c, 7, 67, 127
2, 23723, Note_on_c, 1, 37, 127
2, 23856, Note_off_c, 7, 67, 127
2, 23857, Note_on_c, 8, 68, 127
2, 23990, Note_off_c, 8, 68, 127
2, 23991, Note_on_c, 5, 65, 127
2, 24124, Note_off_c, 5, 65, 127
2, 24124, Note_off_c, 1, 37, 127
2, 24125, Note_on_c, 4, 64, 127
2, 24125, Note_on_c, 0, 36, 127
2, 24417, Note_off_c, 4, 64, 127
2, 24524, Note_off_c, 0, 36, 127
2, 24525, Note_on_c, 0, 72, 127
2, 24525, Note_on_c, 8, 44, 127
2, 24925, Note_off_c, 8, 44, 127
2, 24925, Note_off_c, 0, 72, 127
2, 24926, Note_on_c, 1, 73, 127
2, 24926, Note_on_c, 5, 41, 127
2, 25025, Note_off_c, 1, 73, 127
2, 25026, Note_on_c, 3, 75, 127
2, 25125, Note_off_c, 3, 75, 127
2, 25126, Note_on_c, 5, 77, 127
2, 25325, Note_off_c, 5, 77, 127
2, 25325, Note_off_c, 5, 41, 127
2, 25326, Note_on_c, 3, 75, 127
2, 25326, Note_on_c, 0, 48, 127
2, 25726, Note_off_c, 0, 48, 127
2, 25726, Note_off_c, 3, 75, 127
2, 25727, Note_on_c, 8, 68, 127
2, 25727, Note_on_c, 0, 60, 127
2, 25926, Note_off_c, 8, 68, 127
2, 25927, Note_on_c, 11, 70, 127
2, 26126, Note_off_c, 11, 70, 127
2, 26126, Note_off_c, 0, 60, 127
2, 26127, Note_on_c, 0, 72, 127
2, 26127, Note_on_c, 11, 58, 127
2, 26226, Note_off_c, 0, 72, 127
2, 26227, Note_on_c, 11, 70, 127
2, 26326, Note_off_c, 11, 70, 127
2, 26327, Note_on_c, 8, 68, 127
2, 26426, Note_off_c, 8, 68, 127
2, 26427, Note_on_c, 11, 70, 127
2, 26526, Note_off_c, 11, 70, 127
2, 26526, Note_off_c, 11, 58, 127
2, 26527, Note_on_c, 0, 72, 127
2, 26527, Note_on_c, 8, 56, 127
2, 26927, Note_off_c, 8, 56, 127
2, 26927, Note_off_c, 0, 72, 127
2, 26928, Note_on_c, 5, 65, 127
2, 26928, Note_on_c, 8, 44, 127
2, 27127, Note_off_c, 5, 65, 127
2, 27128, Note_on_c, 7, 67, 127
2, 27327, Note_off_c, 7, 67, 127
2, 27327, Note_off_c, 8, 44, 127
2, 27328, Note_on_c, 8, 68, 127
2, 27328, Note_on_c, 7, 43, 127
2, 27427, Note_off_c, 8, 68, 127
2, 27428, Note_on_c, 7, 67, 127
2, 27527, Note_off_c, 7, 67, 127
2, 27528, Note_on_c, 5, 65, 127
2, 27627, Note_off_c, 5, 65, 127
2, 27628, Note_on_c, 7, 67, 127
2, 27727, Note_off_c, 7, 67, 127
2, 27727, Note_off_c, 7, 43, 127
2, 27728, Note_on_c, 8, 68, 127
2, 27728, Note_on_c, 5, 41, 127
2, 27927, Note_off_c, 8, 68, 127
2, 27928, Note_on_c, 7, 67, 127
2, 28127, Note_off_c, 7, 67, 127
2, 28127, Note_off_c, 5, 41, 127
2, 28128, Note_on_c, 11, 70, 127
2, 28128, Note_on_c, 0, 48, 127
2, 28327, Note_off_c, 11, 70, 127
2, 28328, Note_on_c, 8, 68, 127
2, 28527, Note_off_c, 8, 68, 127
2, 28527, Note_off_c, 0, 48, 127
2, 28528, Note_on_c, 7, 67, 127
2, 28528, Note_on_c, 0, 36, 127
2, 28727, Note_off_c, 7, 67, 127
2, 28728, Note_on_c, 5, 65, 127
2, 28927, Note_off_c, 5, 65, 127
2, 28927, Note_off_c, 0, 36, 127
2, 28928, Note_on_c, 5, 65, 127
2, 28928, Note_on_c, 5, 41, 127
2, 29129, Note_off_c, 5, 65, 127
2, 29130, Note_on_c, 0, 72, 127
2, 29331, Note_off_c, 0, 72, 127
2, 29331, Note_off_c, 5, 41, 127
2, 29332, Note_on_c, 1, 73, 127
2, 29332, Note_on_c, 5, 53, 127
2, 29448, Note_off_c, 1, 73, 127
2, 29467, Note_on_c, 3, 75, 127
2, 29583, Note_off_c, 3, 75, 127
2, 29602, Note_on_c, 0, 72, 127
2, 29718, Note_off_c, 0, 72, 127
2, 29737, Note_on_c, 1, 73, 127
2, 29737, Note_on_c, 8, 56, 127
2, 29939, Note_on_c, 5, 65, 127
2, 30137, Note_off_c, 1, 73, 127
2, 30140, Note_off_c, 5, 65, 127
2, 30140, Note_off_c, 8, 56, 127
2, 30141, Note_on_c, 7, 67, 127
2, 30141, Note_on_c, 11, 58, 127
2, 30342, Note_off_c, 7, 67, 127
2, 30343, Note_on_c, 11, 70, 127
2, 30543, Note_off_c, 5, 53, 127
2, 30544, Note_off_c, 11, 70, 127
2, 30545, Note_on_c, 0, 72, 127
2, 30545, Note_on_c, 3, 51, 127
2, 30661, Note_off_c, 0, 72, 127
2, 30680, Note_on_c, 1, 73, 127
2, 30796, Note_off_c, 1, 73, 127
2, 30815, Note_on_c, 11, 70, 127
2, 30931, Note_off_c, 11, 70, 127
2, 30949, Note_off_c, 11, 58, 127
2, 30950, Note_on_c, 0, 72, 127
2, 30950, Note_on_c, 6, 54, 127
2, 31151, Note_off_c, 0, 72, 127
2, 31152, Note_on_c, 3, 75, 127
2, 31353, Note_off_c, 3, 75, 127
2, 31353, Note_off_c, 6, 54, 127
2, 31354, Note_on_c, 10, 69, 127
2, 31354, Note_on_c, 5, 53, 127
2, 31555, Note_off_c, 10, 69, 127
2, 31556, Note_on_c, 5, 65, 127
2, 31756, Note_off_c, 3, 51, 127
2, 31757, Note_off_c, 5, 65, 127
2, 31758, Note_on_c, 11, 70, 127
2, 31758, Note_on_c, 1, 49, 127
2, 31890, Note_on_c, 0, 72, 127
2, 31892, Note_off_c, 11, 70, 127
2, 32005, Note_off_c, 0, 72, 127
2, 32014, Note_off_c, 5, 53, 127
2, 32018, Note_on_c, 5, 53, 127
2, 32019, Note_on_c, 10, 69, 127
2, 32135, Note_off_c, 10, 69, 127
2, 32138, Note_off_c, 5, 53, 127
2, 32162, Note_on_c, 11, 70, 127
2, 32162, Note_on_c, 7, 55, 127
2, 32278, Note_off_c, 11, 70, 127
2, 32294, Note_on_c, 1, 73, 127
2, 32409, Note_off_c, 1, 73, 127
2, 32418, Note_off_c, 1, 49, 127
2, 32422, Note_on_c, 0, 72, 127
2, 32422, Note_on_c, 0, 48, 127
2, 32422, Note_on_c, 10, 57, 127
2, 32432, Note_off_c, 7, 55, 127
2, 32538, Note_off_c, 0, 72, 127
2, 32542, Note_off_c, 10, 57, 127
2, 32542, Note_off_c, 0, 48, 127
2, 32566, Note_on_c, 1, 73, 127
2, 32566, Note_on_c, 11, 46, 127
2, 32768, Note_on_c, 5, 65, 127
2, 32861, Note_off_c, 1, 73, 127
2, 32969, Note_off_c, 5, 65, 127
2, 32969, Note_off_c, 11, 46, 127
2, 32970, Note_on_c, 4, 64, 127
2, 32970, Note_on_c, 0, 48, 127
2, 33091, Note_off_c, 4, 64, 127
2, 33105, Note_on_c, 5, 65, 127
2, 33226, Note_off_c, 5, 65, 127
2, 33240, Note_on_c, 2, 62, 127
2, 33361, Note_off_c, 2, 62, 127
2, 33375, Note_on_c, 4, 64, 127
2, 33576, Note_off_c, 4, 64, 127
2, 33577, Note_on_c, 0, 72, 127
2, 33778, Note_off_c, 0, 72, 127
2, 33778, Note_off_c, 0, 48, 127
2, 33779, Note_on_c, 8, 68, 127
2, 33779, Note_on_c, 5, 53, 127
2, 33779, Note_on_c, 5, 41, 127
2, 33981, Note_on_c, 0, 60, 127
2, 34074, Note_off_c, 8, 68, 127
2, 34182, Note_off_c, 0, 60, 127
2, 34183, Note_on_c, 1, 61, 127
2, 34304, Note_off_c, 1, 61, 127
2, 34312, Note_on_c, 3, 63, 127
2, 34433, Note_off_c, 3, 63, 127
2, 34442, Note_off_c, 5, 53, 127
2, 34443, Note_off_c, 5, 41, 127
2, 34444, Note_on_c, 5, 53, 127
2, 34444, Note_on_c, 0, 60, 127
2, 34564, Note_off_c, 0, 60, 127
2, 34588, Note_on_c, 1, 61, 127
2, 34588, Note_on_c, 11, 46, 127
2, 34646, Note_off_c, 5, 53, 127
2, 34789, Note_off_c, 11, 46, 127
2, 34789, Note_off_c, 1, 61, 127
2, 34790, Note_on_c, 8, 68, 127
2, 34790, Note_on_c, 1, 49, 127
2, 34991, Note_off_c, 1, 49, 127
2, 34991, Note_off_c, 8, 68, 127
2, 34992, Note_on_c, 7, 67, 127
2, 34992, Note_on_c, 3, 39, 127
2, 35194, Note_on_c, 1, 61, 127
2, 35287, Note_off_c, 7, 67, 127
2, 35395, Note_off_c, 1, 61, 127
2, 35396, Note_on_c, 0, 60, 127
2, 35517, Note_off_c, 0, 60, 127
2, 35526, Note_on_c, 1, 61, 127
2, 35647, Note_off_c, 1, 61, 127
2, 35652, Note_off_c, 3, 39, 127
2, 35653, Note_on_c, 3, 51, 127
2, 35653, Note_on_c, 11, 58, 127
2, 35774, Note_off_c, 11, 58, 127
2, 35801, Note_on_c, 0, 60, 127
2, 35801, Note_on_c, 8, 44, 127
2, 35855, Note_off_c, 3, 51, 127
2, 36002, Note_off_c, 8, 44, 127
2, 36002, Note_off_c, 0, 60, 127
2, 36003, Note_on_c, 8, 68, 127
2, 36003, Note_on_c, 0, 48, 127
2, 36204, Note_off_c, 0, 48, 127
2, 36204, Note_off_c, 8, 68, 127
2, 36205, Note_on_c, 5, 65, 127
2, 36205, Note_on_c, 1, 37, 127
2, 36407, Note_on_c, 0, 60, 127
2, 36500, Note_off_c, 5, 65, 127
2, 36608, Note_off_c, 0, 60, 127
2, 36609, Note_on_c, 11, 58, 127
2, 36730, Note_off_c, 11, 58, 127
2, 36740, Note_on_c, 0, 60, 127
2, 36861, Note_off_c, 0, 60, 127
2, 36864, Note_on_c, 1, 49, 127
2, 36864, Note_on_c, 8, 56, 127
2, 36865, Note_off_c, 1, 37, 127
2, 36985, Note_off_c, 8, 56, 127
2, 37014, Note_on_c, 1, 61, 127
2, 37014, Note_on_c, 11, 46, 127
2, 37066, Note_off_c, 1, 49, 127
2, 37215, Note_off_c, 11, 46, 127
2, 37215, Note_off_c, 1, 61, 127
2, 37216, Note_on_c, 0, 60, 127
2, 37216, Note_on_c, 8, 44, 127
2, 37417, Note_off_c, 8, 44, 127
2, 37417, Note_off_c, 0, 60, 127
2, 37418, Note_on_c, 11, 58, 127
2, 37418, Note_on_c, 7, 43, 127
2, 37619, Note_off_c, 7, 43, 127
2, 37619, Note_off_c, 11, 58, 127
2, 37620, Note_on_c, 5, 65, 127
2, 37620, Note_on_c, 5, 41, 127
2, 37821, Note_off_c, 5, 41, 127
2, 37821, Note_off_c, 5, 65, 127
2, 37822, Note_on_c, 4, 64, 127
2, 37822, Note_on_c, 0, 48, 127
2, 37943, Note_off_c, 4, 64, 127
2, 37957, Note_on_c, 5, 65, 127
2, 38078, Note_off_c, 5, 65, 127
2, 38092, Note_on_c, 2, 62, 127
2, 38213, Note_off_c, 2, 62, 127
2, 38226, Note_off_c, 0, 48, 127
2, 38227, Note_on_c, 4, 64, 127
2, 38227, Note_on_c, 0, 36, 127
2, 38428, Note_off_c, 4, 64, 127
2, 38429, Note_on_c, 11, 58, 127
2, 38630, Note_off_c, 11, 58, 127
2, 38630, Note_off_c, 0, 36, 127
2, 38631, Note_on_c, 8, 56, 127
2, 38631, Note_on_c, 5, 53, 127
2, 38631, Note_on_c, 5, 41, 127
2, 38833, Note_on_c, 0, 60, 127
2, 39031, Note_off_c, 8, 56, 127
2, 39034, Note_off_c, 0, 60, 127
2, 39035, Note_on_c, 5, 65, 127
2, 39236, Note_off_c, 5, 41, 127
2, 39438, Note_off_c, 5, 65, 127
2, 39438, Note_off_c, 5, 53, 127
2, 39455, Note_on_c, 5, 53, 127
2, 39455, Note_on_c, 1, 73, 127
2, 39858, Note_off_c, 1, 73, 127
2, 39858, Note_off_c, 5, 53, 127
2, 39859, Note_on_c, 0, 48, 127
2, 39859, Note_on_c, 3, 75, 127
2, 40262, Note_off_c, 3, 75, 127
2, 40262, Note_off_c, 0, 48, 127
2, 40263, Note_on_c, 0, 60, 127
2, 40263, Note_on_c, 8, 68, 127
2, 40464, Note_off_c, 8, 68, 127
2, 40465, Note_on_c, 11, 70, 127
2, 40666, Note_off_c, 11, 70, 127
2, 40666, Note_off_c, 0, 60, 127
2, 40667, Note_on_c, 11, 58, 127
2, 40667, Note_on_c, 0, 72, 127
2, 40767, Note_off_c, 0, 72, 127
2, 40768, Note_on_c, 11, 70, 127
2, 40868, Note_off_c, 11, 70, 127
2, 40869, Note_on_c, 8, 68, 127
2, 40969, Note_off_c, 8, 68, 127
2, 40970, Note_on_c, 11, 70, 127
2, 41070, Note_off_c, 11, 70, 127
2, 41070, Note_off_c, 11, 58, 127
2, 41071, Note_on_c, 8, 56, 127
2, 41071, Note_on_c, 0, 72, 127
2, 41474, Note_off_c, 0, 72, 127
2, 41474, Note_off_c, 8, 56, 127
2, 41475, Note_on_c, 8, 44, 127
2, 41475, Note_on_c, 5, 65, 127
2, 41676, Note_off_c, 5, 65, 127
2, 41677, Note_on_c, 7, 67, 127
2, 41878, Note_off_c, 7, 67, 127
2, 41878, Note_off_c, 8, 44, 127
2, 41879, Note_on_c, 7, 43, 127
2, 41879, Note_on_c, 8, 68, 127
2, 41979, Note_off_c, 8, 68, 127
2, 41980, Note_on_c, 7, 67, 127
2, 42080, Note_off_c, 7, 67, 127
2, 42081, Note_on_c, 5, 65, 127
2, 42181, Note_off_c, 5, 65, 127
2, 42182, Note_on_c, 7, 67, 127
2, 42282, Note_off_c, 7, 67, 127
2, 42282, Note_off_c, 7, 43, 127
2, 42283, Note_on_c, 5, 41, 127
2, 42283, Note_on_c, 8, 68, 127
2, 42484, Note_off_c, 8, 68, 127
2, 42485, Note_on_c, 7, 67, 127
2, 42686, Note_off_c, 7, 67, 127
2, 42686, Note_off_c, 5, 41, 127
2, 42687, Note_on_c, 3, 39, 127
2, 42687, Note_on_c, 11, 70, 127
2, 42888, Note_off_c, 11, 70, 127
2, 42889, Note_on_c, 8, 68, 127
2, 43090, Note_off_c, 8, 68, 127
2, 43090, Note_off_c, 3, 39, 127
2, 43091, Note_on_c, 1, 37, 127
2, 43091, Note_on_c, 7, 67, 127
2, 43212, Note_off_c, 7, 67, 127
2, 43226, Note_on_c, 8, 68, 127
2, 43347, Note_off_c, 8, 68, 127
2, 43361, Note_on_c, 5, 65, 127
2, 43482, Note_off_c, 5, 65, 127
2, 43495, Note_off_c, 1, 37, 127
2, 43496, Note_on_c, 0, 36, 127
2, 43496, Note_on_c, 4, 64, 127
2, 43816, Note_off_c, 4, 64, 127
2, 43899, Note_off_c, 0, 36, 127
2, 43900, Note_on_c, 8, 44, 127
2, 43900, Note_on_c, 0, 72, 127
2, 44303, Note_off_c, 0, 72, 127
2, 44303, Note_off_c, 8, 44, 127
2, 44304, Note_on_c, 5, 41, 127
2, 44304, Note_on_c, 1, 73, 127
2, 44404, Note_off_c, 1, 73, 127
2, 44405, Note_on_c, 3, 75, 127
2, 44505, Note_off_c, 3, 75, 127
2, 44506, Note_on_c, 5, 77, 127
2, 44707, Note_off_c, 5, 77, 127
2, 44707, Note_off_c, 5, 41, 127
2, 44708, Note_on_c, 0, 48, 127
2, 44708, Note_on_c, 3, 75, 127
2, 45111, Note_off_c, 3, 75, 127
2, 45111, Note_off_c, 0, 48, 127
2, 45112, Note_on_c, 0, 60, 127
2, 45112, Note_on_c, 8, 68, 127
2, 45313, Note_off_c, 8, 68, 127
2, 45314, Note_on_c, 11, 70, 127
2, 45515, Note_off_c, 11, 70, 127
2, 45515, Note_off_c, 0, 60, 127
2, 45516, Note_on_c, 11, 58, 127
2, 45516, Note_on_c, 0, 72, 127
2, 45616, Note_off_c, 0, 72, 127
2, 45617, Note_on_c, 11, 70, 127
2, 45717, Note_off_c, 11, 70, 127
2, 45718, Note_on_c, 8, 68, 127
2, 45818, Note_off_c, 8, 68, 127
2, 45819, Note_on_c, 11, 70, 127
2, 45919, Note_off_c, 11, 70, 127
2, 45919, Note_off_c, 11, 58, 127
2, 45920, Note_on_c, 8, 56, 127
2, 45920, Note_on_c, 0, 72, 127
2, 46323, Note_off_c, 0, 72, 127
2, 46323, Note_off_c, 8, 56, 127
2, 46324, Note_on_c, 8, 44, 127
2, 46324, Note_on_c, 5, 65, 127
2, 46525, Note_off_c, 5, 65, 127
2, 46526, Note_on_c, 7, 67, 127
2, 46727, Note_off_c, 7, 67, 127
2, 46727, Note_off_c, 8, 44, 127
2, 46728, Note_on_c, 7, 43, 127
2, 46728, Note_on_c, 8, 68, 127
2, 46828, Note_off_c, 8, 68, 127
2, 46829, Note_on_c, 7, 67, 127
2, 46929, Note_off_c, 7, 67, 127
2, 46930, Note_on_c, 5, 65, 127
2, 47030, Note_off_c, 5, 65, 127
2, 47031, Note_on_c, 7, 67, 127
2, 47131, Note_off_c, 7, 67, 127
2, 47131, Note_off_c, 7, 43, 127
2, 47132, Note_on_c, 5, 41, 127
2, 47132, Note_on_c, 8, 68, 127
2, 47333, Note_off_c, 8, 68, 127
2, 47334, Note_on_c, 7, 67, 127
2, 47535, Note_off_c, 7, 67, 127
2, 47535, Note_off_c, 5, 41, 127
2, 47536, Note_on_c, 0, 48, 127
2, 47536, Note_on_c, 11, 70, 127
2, 47737, Note_off_c, 11, 70, 127
2, 47738, Note_on_c, 8, 68, 127
2, 47939, Note_off_c, 8, 68, 127
2, 47939, Note_off_c, 0, 48, 127
2, 47940, Note_on_c, 0, 36, 127
2, 47940, Note_on_c, 7, 67, 127
2, 48141, Note_off_c, 7, 67, 127
2, 48142, Note_on_c, 5, 65, 127
2, 48343, Note_off_c, 5, 65, 127
2, 48343, Note_off_c, 0, 36, 127
2, 48344, Note_on_c, 5, 41, 127
2, 48344, Note_on_c, 5, 65, 127
2, 48444, Note_off_c, 5, 65, 127
2, 48445, Note_on_c, 0, 72, 127
2, 48545, Note_off_c, 0, 72, 127
2, 48546, Note_on_c, 2, 74, 127
2, 48646, Note_off_c, 2, 74, 127
2, 48647, Note_on_c, 4, 76, 127
2, 48747, Note_off_c, 4, 76, 127
2, 48748, Note_on_c, 5, 77, 127
2, 48848, Note_off_c, 5, 77, 127
2, 48848, Note_off_c, 5, 41, 127
2, 48849, Note_on_c, 5, 53, 127
2, 48849, Note_on_c, 8, 68, 127
2, 48949, Note_off_c, 8, 68, 127
2, 48949, Note_off_c, 5, 53, 127
2, 48950, Note_on_c, 7, 55, 127
2, 48950, Note_on_c, 11, 70, 127
2, 49050, Note_off_c, 11, 70, 127
2, 49050, Note_off_c, 7, 55, 127
2, 49051, Note_on_c, 8, 56, 127
2, 49051, Note_on_c, 0, 72, 127
2, 49151, Note_off_c, 0, 72, 127
2, 49151, Note_off_c, 8, 56, 127
2, 49152, Note_on_c, 11, 58, 127
2, 49152, Note_on_c, 1, 73, 127
2, 49252, Note_off_c, 1, 73, 127
2, 49252, Note_off_c, 11, 58, 127
2, 49253, Note_on_c, 8, 56, 127
2, 49253, Note_on_c, 11, 70, 127
2, 49353, Note_off_c, 11, 70, 127
2, 49353, Note_off_c, 8, 56, 127
2, 49354, Note_on_c, 7, 55, 127
2, 49354, Note_on_c, 0, 72, 127
2, 49454, Note_off_c, 0, 72, 127
2, 49454, Note_off_c, 7, 55, 127
2, 49455, Note_on_c, 5, 53, 127
2, 49455, Note_on_c, 1, 73, 127
2, 49555, Note_off_c, 1, 73, 127
2, 49555, Note_off_c, 5, 53, 127
2, 49556, Note_on_c, 3, 51, 127
2, 49556, Note_on_c, 7, 67, 127
2, 49656, Note_off_c, 7, 67, 127
2, 49657, Note_on_c, 11, 70, 127
2, 49757, Note_off_c, 11, 70, 127
2, 49758, Note_on_c, 0, 72, 127
2, 49858, Note_off_c, 0, 72, 127
2, 49859, Note_on_c, 1, 73, 127
2, 49959, Note_off_c, 1, 73, 127
2, 49960, Note_on_c, 3, 75, 127
2, 50060, Note_off_c, 3, 75, 127
2, 50060, Note_off_c, 3, 51, 127
2, 50061, Note_on_c, 3, 51, 127
2, 50061, Note_on_c, 7, 67, 127
2, 50161, Note_off_c, 7, 67, 127
2, 50161, Note_off_c, 3, 51, 127
2, 50162, Note_on_c, 5, 53, 127
2, 50162, Note_on_c, 8, 68, 127
2, 50262, Note_off_c, 8, 68, 127
2, 50262, Note_off_c, 5, 53, 127
2, 50263, Note_on_c, 7, 55, 127
2, 50263, Note_on_c, 11, 70, 127
2, 50363, Note_off_c, 11, 70, 127
2, 50363, Note_off_c, 7, 55, 127
2, 50364, Note_on_c, 8, 56, 127
2, 50364, Note_on_c, 0, 72, 127
2, 50464, Note_off_c, 0, 72, 127
2, 50464, Note_off_c, 8, 56, 127
2, 50465, Note_on_c, 7, 55, 127
2, 50465, Note_on_c, 8, 68, 127
2, 50565, Note_off_c, 8, 68, 127
2, 50565, Note_off_c, 7, 55, 127
2, 50566, Note_on_c, 5, 53, 127
2, 50566, Note_on_c, 11, 70, 127
2, 50666, Note_off_c, 11, 70, 127
2, 50666, Note_off_c, 5, 53, 127
2, 50667, Note_on_c, 3, 51, 127
2, 50667, Note_on_c, 0, 72, 127
2, 50767, Note_off_c, 0, 72, 127
2, 50767, Note_off_c, 3, 51, 127
2, 50768, Note_on_c, 1, 49, 127
2, 50768, Note_on_c, 5, 65, 127
2, 50868, Note_off_c, 5, 65, 127
2, 50869, Note_on_c, 8, 68, 127
2, 50969, Note_off_c, 8, 68, 127
2, 50970, Note_on_c, 11, 70, 127
2, 51070, Note_off_c, 11, 70, 127
2, 51071, Note_on_c, 0, 72, 127
2, 51171, Note_off_c, 0, 72, 127
2, 51172, Note_on_c, 1, 73, 127
2, 51272, Note_off_c, 1, 73, 127
2, 51272, Note_off_c, 1, 49, 127
2, 51273, Note_on_c, 0, 48, 127
2, 51273, Note_on_c, 5, 65, 127
2, 51373, Note_off_c, 5, 65, 127
2, 51373, Note_off_c, 0, 48, 127
2, 51374, Note_on_c, 11, 46, 127
2, 51374, Note_on_c, 7, 67, 127
2, 51474, Note_off_c, 7, 67, 127
2, 51474, Note_off_c, 11, 46, 127
2, 51475, Note_on_c, 8, 44, 127
2, 51475, Note_on_c, 8, 68, 127
2, 51575, Note_off_c, 8, 68, 127
2, 51575, Note_off_c, 8, 44, 127
2, 51576, Note_on_c, 7, 43, 127
2, 51576, Note_on_c, 11, 70, 127
2, 51676, Note_off_c, 11, 70, 127
2, 51676, Note_off_c, 7, 43, 127
2, 51677, Note_on_c, 5, 41, 127
2, 51677, Note_on_c, 7, 67, 127
2, 51777, Note_off_c, 7, 67, 127
2, 51777, Note_off_c, 5, 41, 127
2, 51778, Note_on_c, 4, 40, 127
2, 51778, Note_on_c, 8, 68, 127
2, 51878, Note_off_c, 8, 68, 127
2, 51878, Note_off_c, 4, 40, 127
2, 51879, Note_on_c, 2, 38, 127
2, 51879, Note_on_c, 11, 70, 127
2, 51979, Note_off_c, 11, 70, 127
2, 51979, Note_off_c, 2, 38, 127
2, 51980, Note_on_c, 0, 36, 127
2, 51980, Note_on_c, 4, 64, 127
2, 52080, Note_off_c, 4, 64, 127
2, 52081, Note_on_c, 5, 65, 127
2, 52181, Note_off_c, 5, 65, 127
2, 52182, Note_on_c, 4, 64, 127
2, 52282, Note_off_c, 4, 64, 127
2, 52283, Note_on_c, 2, 62, 127
2, 52383, Note_off_c, 2, 62, 127
2, 52384, Note_on_c, 0, 60, 127
2, 52484, Note_off_c, 0, 60, 127
2, 52485, Note_on_c, 7, 67, 127
2, 52585, Note_off_c, 7, 67, 127
2, 52585, Note_off_c, 0, 36, 127
2, 52586, Note_on_c, 8, 68, 127
2, 52686, Note_off_c, 8, 68, 127
2, 52687, Note_on_c, 11, 70, 127
2, 52787, Note_off_c, 11, 70, 127
2, 52788, Note_on_c, 0, 72, 127
2, 52888, Note_off_c, 0, 72, 127
2, 52889, Note_on_c, 0, 48, 127
2, 52889, Note_on_c, 11, 70, 127
2, 52989, Note_off_c, 11, 70, 127
2, 52989, Note_off_c, 0, 48, 127
2, 52990, Note_on_c, 2, 50, 127
2, 52990, Note_on_c, 8, 68, 127
2, 53090, Note_off_c, 8, 68, 127
2, 53090, Note_off_c, 2, 50, 127
2, 53091, Note_on_c, 4, 52, 127
2, 53091, Note_on_c, 7, 67, 127
2, 53191, Note_off_c, 7, 67, 127
2, 53191, Note_off_c, 4, 52, 127
2, 53192, Note_on_c, 5, 53, 127
2, 53192, Note_on_c, 8, 68, 127
2, 53292, Note_off_c, 5, 53, 127
2, 53293, Note_on_c, 0, 48, 127
2, 53371, Note_off_c, 8, 68, 127
2, 53393, Note_off_c, 0, 48, 127
2, 53394, Note_on_c, 8, 44, 127
2, 53394, Note_on_c, 0, 72, 127
2, 53494, Note_off_c, 8, 44, 127
2, 53495, Note_on_c, 0, 48, 127
2, 53573, Note_off_c, 0, 72, 127
2, 53595, Note_off_c, 0, 48, 127
2, 53596, Note_on_c, 5, 41, 127
2, 53596, Note_on_c, 5, 77, 127
2, 53696, Note_off_c, 5, 41, 127
2, 53697, Note_on_c, 5, 53, 127
2, 53797, Note_off_c, 5, 53, 127
2, 53798, Note_on_c, 7, 55, 127
2, 53898, Note_off_c, 7, 55, 127
2, 53898, Note_off_c, 5, 77, 127
2, 53899, Note_on_c, 10, 57, 127
2, 53899, Note_on_c, 3, 75, 127
2, 53999, Note_off_c, 3, 75, 127
2, 53999, Note_off_c, 10, 57, 127
2, 54000, Note_on_c, 11, 58, 127
2, 54000, Note_on_c, 1, 73, 127
2, 54100, Note_off_c, 1, 73, 127
2, 54100, Note_off_c, 11, 58, 127
2, 54101, Note_on_c, 11, 46, 127
2, 54101, Note_on_c, 0, 72, 127
2, 54201, Note_off_c, 0, 72, 127
2, 54201, Note_off_c, 11, 46, 127
2, 54202, Note_on_c, 0, 48, 127
2, 54202, Note_on_c, 11, 70, 127
2, 54302, Note_off_c, 11, 70, 127
2, 54302, Note_off_c, 0, 48, 127
2, 54303, Note_on_c, 1, 49, 127
2, 54303, Note_on_c, 8, 68, 127
2, 54403, Note_off_c, 8, 68, 127
2, 54403, Note_off_c, 1, 49, 127
2, 54404, Note_on_c, 3, 51, 127
2, 54404, Note_on_c, 7, 67, 127
2, 54504, Note_off_c, 3, 51, 127
2, 54505, Note_on_c, 11, 46, 127
2, 54583, Note_off_c, 7, 67, 127
2, 54605, Note_off_c, 11, 46, 127
2, 54606, Note_on_c, 7, 43, 127
2, 54606, Note_on_c, 11, 70, 127
2, 54706, Note_off_c, 7, 43, 127
2, 54707, Note_on_c, 11, 46, 127
2, 54785, Note_off_c, 11, 70, 127
2, 54807, Note_off_c, 11, 46, 127
2, 54808, Note_on_c, 3, 39, 127
2, 54808, Note_on_c, 3, 75, 127
2, 54908, Note_off_c, 3, 39, 127
2, 54909, Note_on_c, 3, 51, 127
2, 55009, Note_off_c, 3, 51, 127
2, 55010, Note_on_c, 5, 53, 127
2, 55110, Note_off_c, 5, 53, 127
2, 55110, Note_off_c, 3, 75, 127
2, 55111, Note_on_c, 7, 55, 127
2, 55111, Note_on_c, 1, 73, 127
2, 55211, Note_off_c, 1, 73, 127
2, 55211, Note_off_c, 7, 55, 127
2, 55212, Note_on_c, 8, 56, 127
2, 55212, Note_on_c, 0, 72, 127
2, 55312, Note_off_c, 0, 72, 127
2, 55312, Note_off_c, 8, 56, 127
2, 55313, Note_on_c, 8, 44, 127
2, 55313, Note_on_c, 11, 70, 127
2, 55413, Note_off_c, 11, 70, 127
2, 55413, Note_off_c, 8, 44, 127
2, 55414, Note_on_c, 11, 46, 127
2, 55414, Note_on_c, 8, 68, 127
2, 55514, Note_off_c, 8, 68, 127
2, 55514, Note_off_c, 11, 46, 127
2, 55515, Note_on_c, 0, 48, 127
2, 55515, Note_on_c, 7, 67, 127
2, 55615, Note_off_c, 7, 67, 127
2, 55615, Note_off_c, 0, 48, 127
2, 55616, Note_on_c, 1, 49, 127
2, 55616, Note_on_c, 5, 65, 127
2, 55716, Note_off_c, 1, 49, 127
2, 55717, Note_on_c, 8, 44, 127
2, 55795, Note_off_c, 5, 65, 127
2, 55817, Note_off_c, 8, 44, 127
2, 55818, Note_on_c, 5, 41, 127
2, 55818, Note_on_c, 8, 68, 127
2, 55918, Note_off_c, 5, 41, 127
2, 55919, Note_on_c, 8, 44, 127
2, 55997, Note_off_c, 8, 68, 127
2, 56019, Note_off_c, 8, 44, 127
2, 56020, Note_on_c, 1, 37, 127
2, 56020, Note_on_c, 1, 73, 127
2, 56120, Note_off_c, 1, 37, 127
2, 56121, Note_on_c, 8, 44, 127
2, 56221, Note_off_c, 8, 44, 127
2, 56222, Note_on_c, 11, 46, 127
2, 56322, Note_off_c, 11, 46, 127
2, 56322, Note_off_c, 1, 73, 127
2, 56323, Note_on_c, 0, 48, 127
2, 56323, Note_on_c, 0, 72, 127
2, 56423, Note_off_c, 0, 72, 127
2, 56423, Note_off_c, 0, 48, 127
2, 56424, Note_on_c, 1, 49, 127
2, 56424, Note_on_c, 11, 70, 127
2, 56524, Note_off_c, 11, 70, 127
2, 56524, Note_off_c, 1, 49, 127
2, 56525, Note_on_c, 7, 43, 127
2, 56525, Note_on_c, 8, 68, 127
2, 56625, Note_off_c, 8, 68, 127
2, 56625, Note_off_c, 7, 43, 127
2, 56626, Note_on_c, 8, 44, 127
2, 56626, Note_on_c, 7, 67, 127
2, 56726, Note_off_c, 7, 67, 127
2, 56726, Note_off_c, 8, 44, 127
2, 56727, Note_on_c, 11, 46, 127
2, 56727, Note_on_c, 5, 65, 127
2, 56827, Note_off_c, 5, 65, 127
2, 56827, Note_off_c, 11, 46, 127
2, 56828, Note_on_c, 0, 36, 127
2, 56828, Note_on_c, 4, 64, 127
2, 57130, Note_off_c, 4, 64, 127
2, 57131, Note_on_c, 5, 65, 127
2, 57231, Note_off_c, 5, 65, 127
2, 57232, Note_on_c, 7, 67, 127
2, 57332, Note_off_c, 7, 67, 127
2, 57333, Note_on_c, 5, 65, 127
2, 57433, Note_off_c, 5, 65, 127
2, 57434, Note_on_c, 4, 64, 127
2, 57534, Note_off_c, 4, 64, 127
2, 57535, Note_on_c, 2, 62, 127
2, 57635, Note_off_c, 2, 62, 127
2, 57635, Note_off_c, 0, 36, 127
2, 57636, Note_on_c, 0, 48, 127
2, 57636, Note_on_c, 0, 60, 127
2, 57736, Note_off_c, 0, 60, 127
2, 57737, Note_on_c, 11, 58, 127
2, 57837, Note_off_c, 11, 58, 127
2, 57838, Note_on_c, 8, 56, 127
2, 57938, Note_off_c, 8, 56, 127
2, 57939, Note_on_c, 7, 55, 127
2, 58036, Note_off_c, 0, 48, 127
2, 58039, Note_off_c, 7, 55, 127
2, 58040, Note_on_c, 5, 41, 127
2, 58040, Note_on_c, 0, 60, 127
2, 58143, Note_on_c, 11, 58, 127
2, 58238, Note_off_c, 11, 58, 127
2, 58245, Note_on_c, 8, 56, 127
2, 58339, Note_off_c, 0, 60, 127
2, 58340, Note_off_c, 8, 56, 127
2, 58347, Note_on_c, 7, 55, 127
2, 58441, Note_off_c, 7, 55, 127
2, 58445, Note_off_c, 5, 41, 127
2, 58449, Note_on_c, 5, 53, 127
2, 58449, Note_on_c, 1, 73, 127
2, 58859, Note_off_c, 1, 73, 127
2, 58859, Note_off_c, 5, 53, 127
2, 58860, Note_on_c, 1, 49, 127
2, 58860, Note_on_c, 1, 73, 127
2, 58962, Note_off_c, 1, 73, 127
2, 58963, Note_on_c, 3, 75, 127
2, 59065, Note_off_c, 3, 75, 127
2, 59066, Note_on_c, 5, 77, 127
2, 59271, Note_off_c, 5, 77, 127
2, 59271, Note_off_c, 1, 49, 127
2, 59272, Note_on_c, 0, 48, 127
2, 59272, Note_on_c, 3, 75, 127
2, 59682, Note_off_c, 3, 75, 127
2, 59682, Note_off_c, 0, 48, 127
2, 59683, Note_on_c, 0, 60, 127
2, 59683, Note_on_c, 8, 68, 127
2, 59888, Note_off_c, 8, 68, 127
2, 59889, Note_on_c, 11, 70, 127
2, 60094, Note_off_c, 11, 70, 127
2, 60094, Note_off_c, 0, 60, 127
2, 60095, Note_on_c, 11, 58, 127
2, 60095, Note_on_c, 0, 72, 127
2, 60197, Note_off_c, 0, 72, 127
2, 60198, Note_on_c, 11, 70, 127
2, 60300, Note_off_c, 11, 70, 127
2, 60301, Note_on_c, 8, 68, 127
2, 60403, Note_off_c, 8, 68, 127
2, 60404, Note_on_c, 11, 70, 127
2, 60506, Note_off_c, 11, 70, 127
2, 60506, Note_off_c, 11, 58, 127
2, 60507, Note_on_c, 8, 56, 127
2, 60507, Note_on_c, 0, 72, 127
2, 60917, Note_off_c, 0, 72, 127
2, 60917, Note_off_c, 8, 56, 127
2, 60918, Note_on_c, 8, 44, 127
2, 60918, Note_on_c, 5, 65, 127
2, 61123, Note_off_c, 5, 65, 127
2, 61124, Note_on_c, 7, 67, 127
2, 61329, Note_off_c, 7, 67, 127
2, 61329, Note_off_c, 8, 44, 127
2, 61330, Note_on_c, 7, 43, 127
2, 61330, Note_on_c, 8, 68, 127
2, 61432, Note_off_c, 8, 68, 127
2, 61433, Note_on_c, 7, 67, 127
2, 61535, Note_off_c, 7, 67, 127
2, 61536, Note_on_c, 5, 65, 127
2, 61638, Note_off_c, 5, 65, 127
2, 61639, Note_on_c, 7, 67, 127
2, 61741, Note_off_c, 7, 67, 127
2, 61741, Note_off_c, 7, 43, 127
2, 61742, Note_on_c, 5, 41, 127
2, 61742, Note_on_c, 8, 68, 127
2, 61947, Note_off_c, 8, 68, 127
2, 61948, Note_on_c, 7, 67, 127
2, 62153, Note_off_c, 7, 67, 127
2, 62153, Note_off_c, 5, 41, 127
2, 62154, Note_on_c, 3, 39, 127
2, 62154, Note_on_c, 11, 70, 127
2, 62359, Note_off_c, 11, 70, 127
2, 62360, Note_on_c, 8, 68, 127
2, 62565, Note_off_c, 8, 68, 127
2, 62565, Note_off_c, 3, 39, 127
2, 62566, Note_on_c, 1, 37, 127
2, 62566, Note_on_c, 7, 67, 127
2, 62702, Note_off_c, 7, 67, 127
2, 62708, Note_on_c, 8, 68, 127
2, 62844, Note_off_c, 8, 68, 127
2, 62850, Note_on_c, 5, 65, 127
2, 62975, Note_off_c, 1, 37, 127
2, 62976, Note_on_c, 0, 36, 127
2, 62976, Note_on_c, 4, 64, 127
2, 62978, Note_off_c, 5, 65, 127
2, 63306, Note_off_c, 4, 64, 127
2, 63386, Note_off_c, 0, 36, 127
2, 63387, Note_on_c, 8, 44, 127
2, 63387, Note_on_c, 0, 72, 127
2, 63797, Note_off_c, 0, 72, 127
2, 63797, Note_off_c, 8, 44, 127
2, 63798, Note_on_c, 5, 41, 127
2, 63798, Note_on_c, 1, 73, 127
2, 63900, Note_off_c, 1, 73, 127
2, 63901, Note_on_c, 3, 75, 127
2, 64003, Note_off_c, 3, 75, 127
2, 64004, Note_on_c, 5, 77, 127
2, 64209, Note_off_c, 5, 77, 127
2, 64209, Note_off_c, 5, 41, 127
2, 64210, Note_on_c, 0, 48, 127
2, 64210, Note_on_c, 3, 75, 127
2, 64620, Note_off_c, 3, 75, 127
2, 64620, Note_off_c, 0, 48, 127
2, 64621, Note_on_c, 0, 60, 127
2, 64621, Note_on_c, 8, 68, 127
2, 64826, Note_off_c, 8, 68, 127
2, 64827, Note_on_c, 11, 70, 127
2, 65032, Note_off_c, 11, 70, 127
2, 65032, Note_off_c, 0, 60, 127
2, 65033, Note_on_c, 11, 58, 127
2, 65033, Note_on_c, 0, 72, 127
2, 65135, Note_off_c, 0, 72, 127
2, 65136, Note_on_c, 11, 70, 127
2, 65238, Note_off_c, 11, 70, 127
2, 65239, Note_on_c, 8, 68, 127
2, 65341, Note_off_c, 8, 68, 127
2, 65342, Note_on_c, 11, 70, 127
2, 65444, Note_off_c, 11, 70, 127
2, 65444, Note_off_c, 11, 58, 127
2, 65445, Note_on_c, 8, 56, 127
2, 65445, Note_on_c, 0, 72, 127
2, 65843, Note_off_c, 0, 72, 127
2, 65863, Note_off_c, 8, 56, 127
2, 65864, Note_on_c, 8, 44, 127
2, 65864, Note_on_c, 5, 65, 127
2, 66072, Note_off_c, 5, 65, 127
2, 66073, Note_on_c, 7, 67, 127
2, 66281, Note_off_c, 7, 67, 127
2, 66281, Note_off_c, 8, 44, 127
2, 66282, Note_on_c, 7, 43, 127
2, 66282, Note_on_c, 8, 68, 127
2, 66386, Note_off_c, 8, 68, 127
2, 66387, Note_on_c, 7, 67, 127
2, 66491, Note_off_c, 7, 67, 127
2, 66492, Note_on_c, 5, 65, 127
2, 66596, Note_off_c, 5, 65, 127
2, 66597, Note_on_c, 7, 67, 127
2, 66701, Note_off_c, 7, 67, 127
2, 66701, Note_off_c, 7, 43, 127
2, 66702, Note_on_c, 5, 41, 127
2, 66702, Note_on_c, 8, 68, 127
2, 66910, Note_off_c, 8, 68, 127
2, 66911, Note_on_c, 7, 67, 127
2, 67119, Note_off_c, 7, 67, 127
2, 67119, Note_off_c, 5, 41, 127
2, 67120, Note_on_c, 0, 48, 127
2, 67120, Note_on_c, 11, 70, 127
2, 67328, Note_off_c, 11, 70, 127
2, 67329, Note_on_c, 8, 68, 127
2, 67537, Note_off_c, 8, 68, 127
2, 67538, Note_on_c, 0, 36, 127
2, 67538, Note_on_c, 7, 67, 127
2, 67643, Note_off_c, 0, 48, 127
2, 67747, Note_off_c, 7, 67, 127
2, 67748, Note_on_c, 5, 65, 127
2, 67944, Note_off_c, 0, 36, 127
2, 67956, Note_off_c, 5, 65, 127
2, 67957, Note_on_c, 5, 41, 127
2, 67957, Note_on_c, 5, 65, 127
2, 68027, Note_off_c, 5, 65, 127
2, 68027, Note_on_c, 4, 64, 127
2, 68097, Note_off_c, 4, 64, 127
2, 68097, Note_on_c, 5, 65, 127
2, 69143, Note_off_c, 5, 65, 127
2, 69213, Note_off_c, 5, 41, 127
2, 69230, Note_on_c, 5, 65, 127
2, 69230, Note_on_c, 5, 53, 127
2, 69230, Note_on_c, 8, 56, 127
2, 69699, Note_off_c, 5, 65, 127
2, 69700, Note_on_c, 0, 60, 127
2, 69700, Note_on_c, 7, 67, 127
2, 69934, Note_off_c, 7, 67, 127
2, 69935, Note_on_c, 8, 68, 127
2, 70165, Note_off_c, 0, 60, 127
2, 70170, Note_on_c, 1, 61, 127
2, 70264, Note_off_c, 8, 68, 127
2, 70264, Note_on_c, 11, 70, 127
2, 70380, Note_off_c, 11, 70, 127
2, 70380, Note_on_c, 7, 67, 127
2, 70496, Note_off_c, 7, 67, 127
2, 70509, Note_on_c, 8, 68, 127
2, 70633, Note_off_c, 8, 68, 127
2, 70634, Note_off_c, 1, 61, 127
2, 70638, Note_off_c, 8, 56, 127
2, 70639, Note_on_c, 8, 68, 127
2, 70639, Note_on_c, 11, 58, 127
2, 70873, Note_off_c, 11, 58, 127
2, 70874, Note_on_c, 0, 60, 127
2, 70990, Note_off_c, 0, 60, 127
2, 70991, Note_on_c, 11, 58, 127
2, 71107, Note_off_c, 11, 58, 127
2, 71108, Note_on_c, 8, 56, 127
2, 71342, Note_off_c, 8, 56, 127
2, 71342, Note_off_c, 8, 68, 127
2, 71343, Note_on_c, 7, 67, 127
2, 71343, Note_on_c, 11, 58, 127
2, 71459, Note_off_c, 11, 58, 127
2, 71460, Note_on_c, 7, 55, 127
2, 71576, Note_off_c, 7, 55, 127
2, 71577, Note_off_c, 5, 53, 127
2, 71577, Note_on_c, 0, 60, 127
2, 71577, Note_on_c, 4, 52, 127
2, 71807, Note_off_c, 7, 67, 127
2, 71811, Note_off_c, 0, 60, 127
2, 71812, Note_on_c, 7, 55, 127
2, 72042, Note_off_c, 4, 52, 127
2, 72046, Note_off_c, 7, 55, 127
2, 72047, Note_on_c, 5, 65, 127
2, 72047, Note_on_c, 3, 51, 127
2, 72047, Note_on_c, 10, 57, 127
2, 72516, Note_off_c, 5, 65, 127
2, 72517, Note_on_c, 0, 72, 127
2, 72575, Note_off_c, 0, 72, 127
2, 72576, Note_on_c, 11, 70, 127
2, 72634, Note_off_c, 11, 70, 127
2, 72635, Note_on_c, 0, 72, 127
2, 72967, Note_on_c, 5, 53, 127
2, 72987, Note_off_c, 3, 51, 127
2, 73079, Note_on_c, 1, 73, 127
2, 73081, Note_off_c, 0, 72, 127
2, 73169, Note_off_c, 1, 73, 127
2, 73170, Note_on_c, 3, 75, 127
2, 73261, Note_off_c, 3, 75, 127
2, 73265, Note_on_c, 1, 73, 127
2, 73408, Note_off_c, 5, 53, 127
2, 73456, Note_off_c, 10, 57, 127
2, 73458, Note_on_c, 0, 72, 127
2, 73458, Note_on_c, 2, 50, 127
2, 73465, Note_off_c, 1, 73, 127
2, 73928, Note_on_c, 5, 53, 127
2, 74162, Note_off_c, 5, 53, 127
2, 74162, Note_off_c, 0, 72, 127
2, 74163, Note_on_c, 11, 70, 127
2, 74163, Note_on_c, 8, 56, 127
2, 74397, Note_off_c, 8, 56, 127
2, 74398, Note_on_c, 7, 55, 127
2, 74628, Note_off_c, 11, 70, 127
2, 74632, Note_off_c, 7, 55, 127
2, 74633, Note_on_c, 11, 58, 127
2, 74749, Note_off_c, 11, 58, 127
2, 74750, Note_on_c, 10, 57, 127
2, 74865, Note_off_c, 2, 50, 127
2, 74866, Note_off_c, 10, 57, 127
2, 74867, Note_on_c, 5, 65, 127
2, 74867, Note_on_c, 11, 58, 127
2, 74867, Note_on_c, 1, 49, 127
2, 75336, Note_off_c, 11, 58, 127
2, 75336, Note_off_c, 5, 65, 127
2, 75337, Note_on_c, 5, 77, 127
2, 75337, Note_on_c, 8, 56, 127
2, 75410, Note_on_c, 4, 76, 127
2, 75412, Note_off_c, 5, 77, 127
2, 75483, Note_on_c, 5, 77, 127
2, 75485, Note_off_c, 4, 76, 127
2, 75805, Note_off_c, 8, 56, 127
2, 75806, Note_on_c, 11, 58, 127
2, 75897, Note_on_c, 7, 79, 127
2, 75909, Note_off_c, 5, 77, 127
2, 75989, Note_off_c, 7, 79, 127
2, 76000, Note_on_c, 8, 80, 127
2, 76092, Note_off_c, 8, 80, 127
2, 76094, Note_on_c, 7, 79, 127
2, 76274, Note_off_c, 1, 49, 127
2, 76275, Note_off_c, 11, 58, 127
2, 76276, Note_on_c, 0, 72, 127
2, 76276, Note_on_c, 0, 60, 127
2, 76276, Note_on_c, 0, 48, 127
2, 76387, Note_off_c, 7, 79, 127
2, 76511, Note_on_c, 5, 77, 127
2, 76619, Note_off_c, 0, 72, 127
2, 76745, Note_off_c, 5, 77, 127
2, 76745, Note_off_c, 0, 48, 127
2, 76745, Note_off_c, 0, 60, 127
2, 76746, Note_on_c, 4, 76, 127
2, 76746, Note_on_c, 11, 46, 127
2, 77215, Note_off_c, 11, 46, 127
2, 77215, Note_off_c, 4, 76, 127
2, 77216, Note_on_c, 5, 77, 127
2, 77216, Note_on_c, 8, 44, 127
2, 77685, Note_off_c, 8, 44, 127
2, 77685, Note_off_c, 5, 77, 127
2, 77686, Note_on_c, 1, 73, 127
2, 77686, Note_on_c, 11, 46, 127
2, 77686, Note_on_c, 5, 53, 127
2, 78155, Note_off_c, 11, 46, 127
2, 78155, Note_off_c, 1, 73, 127
2, 78156, Note_on_c, 0, 72, 127
2, 78156, Note_on_c, 7, 43, 127
2, 78313, Note_off_c, 0, 72, 127
2, 78313, Note_on_c, 11, 70, 127
2, 78391, Note_off_c, 11, 70, 127
2, 78391, Note_on_c, 0, 72, 127
2, 78469, Note_off_c, 0, 72, 127
2, 78469, Note_on_c, 11, 70, 127
2, 78547, Note_off_c, 11, 70, 127
2, 78553, Note_on_c, 0, 72, 127
2, 78624, Note_off_c, 7, 43, 127
2, 78624, Note_off_c, 5, 53, 127
2, 78625, Note_on_c, 4, 52, 127
2, 78625, Note_on_c, 0, 48, 127
2, 78641, Note_on_c, 11, 70, 127
2, 78643, Note_off_c, 0, 72, 127
2, 78860, Note_on_c, 0, 72, 127
2, 78875, Note_off_c, 11, 70, 127
2, 79094, Note_off_c, 0, 72, 127
2, 79094, Note_off_c, 0, 48, 127
2, 79094, Note_off_c, 4, 52, 127
2, 79095, Note_on_c, 11, 70, 127
2, 79095, Note_on_c, 5, 41, 127
2, 79252, Note_off_c, 11, 70, 127
2, 79252, Note_on_c, 8, 68, 127
2, 79330, Note_off_c, 8, 68, 127
2, 79330, Note_on_c, 11, 70, 127
2, 79408, Note_off_c, 11, 70, 127
2, 79408, Note_on_c, 8, 68, 127
2, 79486, Note_off_c, 8, 68, 127
2, 79486, Note_on_c, 11, 70, 127
2, 79564, Note_off_c, 11, 70, 127
2, 79564, Note_on_c, 8, 68, 127
2, 79564, Note_on_c, 5, 53, 127
2, 79642, Note_off_c, 8, 68, 127
2, 79642, Note_on_c, 11, 70, 127
2, 79720, Note_off_c, 11, 70, 127
2, 79720, Note_on_c, 8, 68, 127
2, 79798, Note_off_c, 8, 68, 127
2, 79798, Note_on_c, 7, 67, 127
2, 79887, Note_on_c, 8, 68, 127
2, 79891, Note_off_c, 7, 67, 127
2, 80022, Note_off_c, 8, 68, 127
2, 80032, Note_off_c, 5, 53, 127
2, 80032, Note_off_c, 5, 41, 127
2, 80033, Note_on_c, 7, 67, 127
2, 80033, Note_on_c, 0, 48, 127
2, 80033, Note_on_c, 4, 52, 127
2, 80393, Note_off_c, 7, 67, 127
2, 80502, Note_off_c, 4, 52, 127
2, 80502, Note_off_c, 0, 48, 127
2, 80503, Note_on_c, 5, 65, 127
2, 80503, Note_on_c, 8, 56, 127
2, 80503, Note_on_c, 5, 53, 127
2, 80972, Note_off_c, 5, 65, 127
2, 80973, Note_on_c, 0, 60, 127
2, 80973, Note_on_c, 7, 67, 127
2, 81207, Note_off_c, 7, 67, 127
2, 81208, Note_on_c, 8, 68, 127
2, 81266, Note_off_c, 8, 68, 127
2, 81267, Note_on_c, 7, 67, 127
2, 81325, Note_off_c, 7, 67, 127
2, 81326, Note_on_c, 8, 68, 127
2, 81439, Note_off_c, 0, 60, 127
2, 81444, Note_on_c, 1, 61, 127
2, 81559, Note_off_c, 8, 68, 127
2, 81561, Note_on_c, 11, 70, 127
2, 81677, Note_off_c, 11, 70, 127
2, 81678, Note_on_c, 7, 67, 127
2, 81794, Note_off_c, 7, 67, 127
2, 81795, Note_on_c, 8, 68, 127
2, 81911, Note_off_c, 8, 68, 127
2, 81912, Note_on_c, 8, 68, 127
2, 82028, Note_off_c, 8, 56, 127
2, 82029, Note_off_c, 1, 61, 127
2, 82029, Note_on_c, 1, 61, 127
2, 82145, Note_off_c, 1, 61, 127
2, 82146, Note_on_c, 0, 60, 127
2, 82262, Note_off_c, 0, 60, 127
2, 82263, Note_on_c, 11, 58, 127
2, 82379, Note_off_c, 11, 58, 127
2, 82379, Note_off_c, 8, 68, 127
2, 82380, Note_on_c, 7, 67, 127
2, 82380, Note_on_c, 8, 56, 127
2, 82614, Note_off_c, 8, 56, 127
2, 82615, Note_on_c, 11, 58, 127
2, 82731, Note_off_c, 11, 58, 127
2, 82732, Note_on_c, 7, 55, 127
2, 82848, Note_off_c, 7, 55, 127
2, 82849, Note_off_c, 5, 53, 127
2, 82849, Note_on_c, 0, 60, 127
2, 82849, Note_on_c, 4, 52, 127
2, 83083, Note_off_c, 0, 60, 127
2, 83084, Note_on_c, 11, 58, 127
2, 83314, Note_off_c, 4, 52, 127
2, 83318, Note_off_c, 11, 58, 127
2, 83318, Note_off_c, 7, 67, 127
2, 83319, Note_on_c, 5, 65, 127
2, 83319, Note_on_c, 10, 57, 127
2, 83319, Note_on_c, 3, 51, 127
2, 83788, Note_off_c, 3, 51, 127
2, 83788, Note_off_c, 5, 65, 127
2, 83789, Note_on_c, 0, 72, 127
2, 83789, Note_on_c, 5, 53, 127
2, 83847, Note_off_c, 0, 72, 127
2, 83848, Note_on_c, 11, 70, 127
2, 83906, Note_off_c, 11, 70, 127
2, 83907, Note_on_c, 0, 72, 127
2, 84258, Note_off_c, 5, 53, 127
2, 84259, Note_on_c, 3, 51, 127
2, 84336, Note_off_c, 0, 72, 127
2, 84337, Note_on_c, 1, 73, 127
2, 84424, Note_off_c, 1, 73, 127
2, 84425, Note_on_c, 3, 75, 127
2, 84512, Note_off_c, 3, 75, 127
2, 84513, Note_on_c, 1, 73, 127
2, 84724, Note_off_c, 1, 73, 127
2, 84726, Note_off_c, 10, 57, 127
2, 84727, Note_off_c, 3, 51, 127
2, 84728, Note_on_c, 0, 72, 127
2, 84728, Note_on_c, 2, 50, 127
2, 84963, Note_on_c, 5, 53, 127
2, 85197, Note_off_c, 5, 53, 127
2, 85198, Note_on_c, 8, 56, 127
2, 85432, Note_off_c, 8, 56, 127
2, 85432, Note_off_c, 0, 72, 127
2, 85433, Note_on_c, 11, 70, 127
2, 85433, Note_on_c, 7, 55, 127
2, 85667, Note_off_c, 7, 55, 127
2, 85668, Note_on_c, 11, 58, 127
2, 85898, Note_off_c, 11, 70, 127
2, 85902, Note_off_c, 11, 58, 127
2, 85903, Note_on_c, 10, 57, 127
2, 86136, Note_off_c, 2, 50, 127
2, 86137, Note_off_c, 10, 57, 127
2, 86138, Note_on_c, 5, 65, 127
2, 86138, Note_on_c, 11, 58, 127
2, 86138, Note_on_c, 1, 49, 127
2, 86607, Note_off_c, 5, 65, 127
2, 86608, Note_on_c, 8, 80, 127
2, 86959, Note_off_c, 8, 80, 127
2, 86960, Note_on_c, 5, 77, 127
2, 87076, Note_off_c, 5, 77, 127
2, 87077, Note_on_c, 7, 79, 127
2, 87206, Note_off_c, 7, 79, 127
2, 87207, Note_on_c, 4, 76, 127
2, 87332, Note_off_c, 4, 76, 127
2, 87337, Note_on_c, 5, 77, 127
2, 87538, Note_off_c, 5, 77, 127
2, 87547, Note_off_c, 1, 49, 127
2, 87547, Note_off_c, 11, 58, 127
2, 87548, Note_on_c, 5, 77, 127
2, 87548, Note_on_c, 7, 43, 127
2, 87860, Note_off_c, 5, 77, 127
2, 87861, Note_on_c, 4, 76, 127
2, 88018, Note_off_c, 4, 76, 127
2, 88018, Note_on_c, 5, 77, 127
2, 88018, Note_on_c, 7, 55, 127
2, 88018, Note_on_c, 11, 46, 127
2, 88134, Note_off_c, 5, 77, 127
2, 88135, Note_on_c, 4, 76, 127
2, 88251, Note_off_c, 4, 76, 127
2, 88252, Note_on_c, 2, 74, 127
2, 88368, Note_off_c, 2, 74, 127
2, 88369, Note_on_c, 4, 76, 127
2, 88485, Note_off_c, 4, 76, 127
2, 88485, Note_off_c, 11, 46, 127
2, 88485, Note_off_c, 7, 55, 127
2, 88485, Note_off_c, 7, 43, 127
2, 88486, Note_on_c, 5, 77, 127
2, 88486, Note_on_c, 5, 53, 127
2, 88486, Note_on_c, 0, 48, 127
2, 88486, Note_on_c, 8, 44, 127
2, 88955, Note_off_c, 8, 44, 127
2, 88955, Note_off_c, 0, 48, 127
2, 88955, Note_off_c, 5, 77, 127
2, 88956, Note_on_c, 7, 67, 127
2, 88956, Note_on_c, 11, 46, 127
2, 89164, Note_on_c, 1, 73, 127
2, 89190, Note_off_c, 7, 67, 127
2, 89281, Note_off_c, 1, 73, 127
2, 89296, Note_on_c, 0, 72, 127
2, 89412, Note_off_c, 0, 72, 127
2, 89425, Note_off_c, 11, 46, 127
2, 89426, Note_on_c, 11, 70, 127
2, 89426, Note_on_c, 0, 48, 127
2, 89660, Note_off_c, 11, 70, 127
2, 89661, Note_on_c, 8, 68, 127
2, 89894, Note_off_c, 5, 53, 127
2, 89895, Note_off_c, 8, 68, 127
2, 89896, Note_on_c, 11, 70, 127
2, 89896, Note_on_c, 4, 52, 127
2, 90025, Note_off_c, 11, 70, 127
2, 90026, Note_on_c, 8, 68, 127
2, 90139, Note_on_c, 7, 67, 127
2, 90143, Note_off_c, 8, 68, 127
2, 90250, Note_on_c, 5, 65, 127
2, 90256, Note_off_c, 7, 67, 127
2, 90354, Note_off_c, 5, 65, 127
2, 90366, Note_off_c, 4, 52, 127
2, 90366, Note_off_c, 0, 48, 127
2, 90367, Note_on_c, 5, 65, 127
2, 90367, Note_on_c, 5, 53, 127
2, 90837, Note_on_c, 0, 48, 127
2, 91306, Note_off_c, 0, 48, 127
2, 91307, Note_on_c, 5, 41, 127
2, 91567, Note_off_c, 5, 65, 127
2, 91775, Note_off_c, 5, 53, 127
2, 91776, Note_off_c, 5, 41, 127
2, 91793, Note_on_c, 3, 51, 127
2, 91793, Note_on_c, 0, 48, 127
2, 91793, Note_on_c, 8, 68, 127
2, 92262, Note_off_c, 8, 68, 127
2, 92263, Note_on_c, 8, 56, 127
2, 92263, Note_on_c, 6, 66, 127
2, 92321, Note_off_c, 6, 66, 127
2, 92322, Note_on_c, 5, 65, 127
2, 92380, Note_off_c, 5, 65, 127
2, 92381, Note_on_c, 6, 66, 127
2, 92439, Note_off_c, 6, 66, 127
2, 92440, Note_on_c, 5, 65, 127
2, 92498, Note_off_c, 5, 65, 127
2, 92499, Note_on_c, 3, 63, 127
2, 92733, Note_off_c, 0, 48, 127
2, 92734, Note_on_c, 0, 48, 127
2, 92968, Note_off_c, 3, 63, 127
2, 92969, Note_on_c, 5, 65, 127
2, 93085, Note_off_c, 5, 65, 127
2, 93086, Note_on_c, 6, 66, 127
2, 93201, Note_off_c, 3, 51, 127
2, 93202, Note_off_c, 6, 66, 127
2, 93202, Note_off_c, 0, 48, 127
2, 93203, Note_on_c, 1, 49, 127
2, 93203, Note_on_c, 6, 66, 127
2, 93438, Note_off_c, 8, 56, 127
2, 93438, Note_on_c, 6, 54, 127
2, 93672, Note_off_c, 6, 54, 127
2, 93673, Note_on_c, 5, 53, 127
2, 93907, Note_off_c, 6, 66, 127
2, 93907, Note_off_c, 1, 49, 127
2, 93908, Note_on_c, 3, 51, 127
2, 93908, Note_on_c, 5, 65, 127
2, 94142, Note_off_c, 3, 51, 127
2, 94143, Note_on_c, 1, 49, 127
2, 94373, Note_off_c, 5, 65, 127
2, 94377, Note_off_c, 1, 49, 127
2, 94378, Note_on_c, 0, 48, 127
2, 94612, Note_off_c, 0, 48, 127
2, 94613, Note_on_c, 11, 46, 127
2, 94613, Note_on_c, 1, 73, 127
2, 94847, Note_off_c, 1, 73, 127
2, 94848, Note_off_c, 5, 53, 127
2, 94848, Note_on_c, 7, 55, 127
2, 94848, Note_on_c, 3, 75, 127
2, 94964, Note_off_c, 3, 75, 127
2, 94965, Note_on_c, 11, 70, 127
2, 95078, Note_off_c, 11, 46, 127
2, 95082, Note_off_c, 11, 70, 127
2, 95082, Note_off_c, 7, 55, 127
2, 95083, Note_on_c, 8, 56, 127
2, 95083, Note_on_c, 1, 73, 127
2, 95160, Note_off_c, 1, 73, 127
2, 95161, Note_on_c, 0, 72, 127
2, 95238, Note_off_c, 0, 72, 127
2, 95239, Note_on_c, 1, 73, 127
2, 95316, Note_off_c, 1, 73, 127
2, 95317, Note_on_c, 0, 72, 127
2, 95394, Note_off_c, 0, 72, 127
2, 95395, Note_on_c, 1, 73, 127
2, 95472, Note_off_c, 1, 73, 127
2, 95473, Note_on_c, 0, 72, 127
2, 95550, Note_off_c, 0, 72, 127
2, 95551, Note_on_c, 8, 44, 127
2, 95551, Note_on_c, 1, 73, 127
2, 95628, Note_off_c, 1, 73, 127
2, 95629, Note_on_c, 0, 72, 127
2, 95706, Note_off_c, 0, 72, 127
2, 95707, Note_on_c, 1, 73, 127
2, 95784, Note_off_c, 1, 73, 127
2, 95785, Note_on_c, 0, 72, 127
2, 95862, Note_off_c, 0, 72, 127
2, 95863, Note_on_c, 11, 70, 127
2, 95940, Note_off_c, 11, 70, 127
2, 95941, Note_on_c, 0, 72, 127
2, 96018, Note_off_c, 0, 72, 127
2, 96018, Note_off_c, 8, 44, 127
2, 96019, Note_on_c, 3, 51, 127
2, 96019, Note_on_c, 0, 72, 127
2, 96254, Note_off_c, 8, 56, 127
2, 96254, Note_on_c, 8, 56, 127
2, 96488, Note_off_c, 8, 56, 127
2, 96489, Note_on_c, 7, 55, 127
2, 96723, Note_off_c, 0, 72, 127
2, 96723, Note_off_c, 3, 51, 127
2, 96724, Note_on_c, 5, 53, 127
2, 96724, Note_on_c, 11, 70, 127
2, 96958, Note_off_c, 5, 53, 127
2, 96959, Note_on_c, 3, 51, 127
2, 97189, Note_off_c, 11, 70, 127
2, 97193, Note_off_c, 3, 51, 127
2, 97194, Note_on_c, 1, 49, 127
2, 97428, Note_off_c, 1, 49, 127
2, 97428, Note_off_c, 7, 55, 127
2, 97429, Note_on_c, 0, 48, 127
2, 97429, Note_on_c, 6, 54, 127
2, 97429, Note_on_c, 3, 75, 127
2, 97663, Note_off_c, 3, 75, 127
2, 97663, Note_off_c, 0, 48, 127
2, 97664, Note_on_c, 11, 46, 127
2, 97664, Note_on_c, 5, 77, 127
2, 97780, Note_off_c, 5, 77, 127
2, 97781, Note_on_c, 6, 78, 127
2, 97894, Note_off_c, 6, 54, 127
2, 97898, Note_off_c, 6, 78, 127
2, 97898, Note_off_c, 11, 46, 127
2, 97899, Note_on_c, 0, 48, 127
2, 97899, Note_on_c, 10, 45, 127
2, 97899, Note_on_c, 5, 77, 127
2, 98133, Note_off_c, 5, 77, 127
2, 98134, Note_on_c, 3, 75, 127
2, 98368, Note_off_c, 3, 75, 127
2, 98368, Note_off_c, 0, 48, 127
2, 98369, Note_on_c, 5, 53, 127
2, 98369, Note_on_c, 1, 73, 127
2, 98603, Note_off_c, 1, 73, 127
2, 98604, Note_on_c, 3, 75, 127
2, 98720, Note_off_c, 3, 75, 127
2, 98721, Note_on_c, 0, 72, 127
2, 98837, Note_off_c, 0, 72, 127
2, 98837, Note_off_c, 10, 45, 127
2, 98838, Note_on_c, 11, 46, 127
2, 98838, Note_on_c, 0, 72, 127
2, 99072, Note_off_c, 5, 53, 127
2, 99073, Note_on_c, 3, 51, 127
2, 99307, Note_off_c, 3, 51, 127
2, 99308, Note_on_c, 1, 49, 127
2, 99542, Note_off_c, 1, 49, 127
2, 99542, Note_off_c, 0, 72, 127
2, 99543, Note_on_c, 0, 48, 127
2, 99543, Note_on_c, 1, 73, 127
2, 99777, Note_off_c, 0, 48, 127
2, 99777, Note_off_c, 11, 46, 127
2, 99778, Note_on_c, 11, 46, 127
2, 100013, Note_on_c, 8, 44, 127
2, 100247, Note_off_c, 8, 44, 127
2, 100248, Note_on_c, 7, 43, 127
2, 100482, Note_off_c, 1, 73, 127
2, 100483, Note_on_c, 3, 75, 127
2, 100599, Note_off_c, 3, 75, 127
2, 100600, Note_on_c, 5, 77, 127
2, 100716, Note_off_c, 5, 77, 127
2, 100716, Note_off_c, 11, 46, 127
2, 100717, Note_on_c, 11, 46, 127
2, 100717, Note_on_c, 3, 75, 127
2, 100951, Note_off_c, 3, 75, 127
2, 100952, Note_on_c, 1, 73, 127
2, 101186, Note_off_c, 1, 73, 127
2, 101186, Note_off_c, 11, 46, 127
2, 101187, Note_on_c, 3, 51, 127
2, 101187, Note_on_c, 0, 72, 127
2, 101421, Note_off_c, 0, 72, 127
2, 101422, Note_on_c, 1, 73, 127
2, 101538, Note_off_c, 1, 73, 127
2, 101539, Note_on_c, 11, 70, 127
2, 101654, Note_off_c, 7, 43, 127
2, 101655, Note_off_c, 11, 70, 127
2, 101656, Note_on_c, 8, 44, 127
2, 101656, Note_on_c, 11, 70, 127
2, 101890, Note_off_c, 3, 51, 127
2, 101891, Note_on_c, 1, 49, 127
2, 102125, Note_off_c, 1, 49, 127
2, 102126, Note_on_c, 0, 48, 127
2, 102360, Note_off_c, 0, 48, 127
2, 102360, Note_off_c, 11, 70, 127
2, 102361, Note_on_c, 11, 46, 127
2, 102361, Note_on_c, 0, 72, 127
2, 102595, Note_off_c, 11, 46, 127
2, 102595, Note_off_c, 8, 44, 127
2, 102596, Note_on_c, 8, 44, 127
2, 102741, Note_off_c, 0, 72, 127
2, 102830, Note_off_c, 8, 44, 127
2, 102831, Note_on_c, 7, 43, 127
2, 103065, Note_off_c, 7, 43, 127
2, 103066, Note_on_c, 0, 48, 127
2, 103066, Note_on_c, 10, 45, 127
2, 103066, Note_on_c, 5, 77, 127
2, 103300, Note_off_c, 5, 77, 127
2, 103301, Note_on_c, 7, 79, 127
2, 103417, Note_off_c, 7, 79, 127
2, 103418, Note_on_c, 8, 80, 127
2, 103534, Note_off_c, 8, 80, 127
2, 103534, Note_off_c, 10, 45, 127
2, 103534, Note_off_c, 0, 48, 127
2, 103535, Note_on_c, 2, 50, 127
2, 103535, Note_on_c, 12, 47, 127
2, 103535, Note_on_c, 7, 79, 127
2, 103769, Note_off_c, 7, 79, 127
2, 103770, Note_on_c, 5, 77, 127
2, 104004, Note_off_c, 5, 77, 127
2, 104004, Note_off_c, 12, 47, 127
2, 104004, Note_off_c, 2, 50, 127
2, 104005, Note_on_c, 0, 48, 127
2, 104005, Note_on_c, 3, 51, 127
2, 104005, Note_on_c, 3, 75, 127
2, 104239, Note_off_c, 3, 75, 127
2, 104240, Note_on_c, 5, 77, 127
2, 104356, Note_off_c, 5, 77, 127
2, 104357, Note_on_c, 2, 74, 127
2, 104473, Note_off_c, 2, 74, 127
2, 104473, Note_off_c, 3, 51, 127
2, 104473, Note_off_c, 0, 48, 127
2, 104474, Note_on_c, 5, 41, 127
2, 104474, Note_on_c, 2, 50, 127
2, 104474, Note_on_c, 7, 79, 127
2, 104566, Note_off_c, 7, 79, 127
2, 104566, Note_on_c, 5, 77, 127
2, 104658, Note_off_c, 5, 77, 127
2, 104658, Note_on_c, 7, 79, 127
2, 104943, Note_off_c, 2, 50, 127
2, 104943, Note_off_c, 5, 41, 127
2, 104944, Note_on_c, 3, 39, 127
2, 104944, Note_on_c, 0, 48, 127
2, 105169, Note_off_c, 7, 79, 127
2, 105179, Note_on_c, 8, 80, 127
2, 105413, Note_off_c, 8, 80, 127
2, 105413, Note_off_c, 3, 39, 127
2, 105414, Note_on_c, 2, 38, 127
2, 105414, Note_on_c, 5, 77, 127
2, 105648, Note_off_c, 0, 48, 127
2, 105649, Note_on_c, 12, 47, 127
2, 105879, Note_off_c, 2, 38, 127
2, 105883, Note_off_c, 12, 47, 127
2, 105884, Note_on_c, 0, 36, 127
2, 105884, Note_on_c, 0, 48, 127
2, 106118, Note_off_c, 5, 77, 127
2, 106119, Note_on_c, 3, 75, 127
2, 106353, Note_off_c, 3, 75, 127
2, 106353, Note_off_c, 0, 36, 127
2, 106354, Note_on_c, 7, 43, 127
2, 106354, Note_on_c, 3, 75, 127
2, 106510, Note_off_c, 3, 75, 127
2, 106511, Note_on_c, 2, 74, 127
2, 106588, Note_off_c, 2, 74, 127
2, 106589, Note_on_c, 3, 75, 127
2, 106666, Note_off_c, 3, 75, 127
2, 106667, Note_on_c, 2, 74, 127
2, 106744, Note_off_c, 2, 74, 127
2, 106745, Note_on_c, 3, 75, 127
2, 106822, Note_off_c, 3, 75, 127
2, 106822, Note_off_c, 0, 48, 127
2, 106823, Note_on_c, 12, 47, 127
2, 106823, Note_on_c, 2, 74, 127
2, 107057, Note_off_c, 2, 74, 127
2, 107058, Note_on_c, 0, 72, 127
2, 107292, Note_off_c, 0, 72, 127
2, 107292, Note_off_c, 12, 47, 127
2, 107292, Note_off_c, 7, 43, 127
2, 107293, Note_on_c, 0, 48, 127
2, 107293, Note_on_c, 0, 72, 127
2, 107842, Note_on_c, 7, 55, 127
2, 108397, Note_off_c, 7, 55, 127
2, 108443, Note_on_c, 0, 60, 127
2, 108701, Note_off_c, 0, 48, 127
2, 109103, Note_off_c, 0, 72, 127
2, 109680, Note_on_c, 0, 72, 127
2, 109943, Note_off_c, 0, 60, 127
2, 110540, Note_off_c, 0, 72, 127
2, 110600, Note_on_c, 8, 68, 127
2, 110600, Note_on_c, 5, 53, 127
2, 110907, Note_off_c, 8, 68, 127
2, 110913, Note_on_c, 5, 65, 127
2, 110994, Note_off_c, 5, 65, 127
2, 111000, Note_on_c, 5, 77, 127
2, 111161, Note_off_c, 5, 53, 127
2, 111201, Note_on_c, 7, 55, 127
2, 111508, Note_off_c, 5, 77, 127
2, 111514, Note_on_c, 3, 75, 127
2, 111595, Note_off_c, 3, 75, 127
2, 111601, Note_on_c, 1, 73, 127
2, 111762, Note_off_c, 7, 55, 127
2, 111795, Note_off_c, 1, 73, 127
2, 111801, Note_on_c, 0, 72, 127
2, 111801, Note_on_c, 8, 56, 127
2, 112108, Note_off_c, 0, 72, 127
2, 112114, Note_on_c, 1, 73, 127
2, 112195, Note_off_c, 1, 73, 127
2, 112195, Note_off_c, 8, 56, 127
2, 112201, Note_on_c, 11, 70, 127
2, 112201, Note_on_c, 3, 51, 127
2, 112395, Note_off_c, 3, 51, 127
2, 112395, Note_off_c, 11, 70, 127
2, 112401, Note_on_c, 0, 72, 127
2, 112401, Note_on_c, 8, 44, 127
2, 112708, Note_off_c, 0, 72, 127
2, 112714, Note_on_c, 8, 68, 127
2, 112795, Note_off_c, 8, 68, 127
2, 112801, Note_on_c, 3, 75, 127
2, 112962, Note_off_c, 8, 44, 127
2, 112995, Note_off_c, 3, 75, 127
2, 113001, Note_on_c, 0, 72, 127
2, 113001, Note_on_c, 8, 56, 127
2, 113308, Note_off_c, 0, 72, 127
2, 113314, Note_on_c, 8, 68, 127
2, 113395, Note_off_c, 8, 68, 127
2, 113401, Note_on_c, 8, 80, 127
2, 113562, Note_off_c, 8, 56, 127
2, 113602, Note_on_c, 11, 58, 127
2, 113909, Note_off_c, 8, 80, 127
2, 113915, Note_on_c, 7, 79, 127
2, 113996, Note_off_c, 7, 79, 127
2, 114002, Note_on_c, 5, 77, 127
2, 114163, Note_off_c, 11, 58, 127
2, 114196, Note_off_c, 5, 77, 127
2, 114202, Note_on_c, 4, 76, 127
2, 114202, Note_on_c, 0, 60, 127
2, 114509, Note_off_c, 4, 76, 127
2, 114515, Note_on_c, 5, 77, 127
2, 114596, Note_off_c, 5, 77, 127
2, 114596, Note_off_c, 0, 60, 127
2, 114602, Note_on_c, 2, 74, 127
2, 114602, Note_on_c, 7, 55, 127
2, 114796, Note_off_c, 7, 55, 127
2, 114796, Note_off_c, 2, 74, 127
2, 114802, Note_on_c, 4, 76, 127
2, 114802, Note_on_c, 0, 48, 127
2, 115109, Note_off_c, 4, 76, 127
2, 115115, Note_on_c, 0, 72, 127
2, 115196, Note_off_c, 0, 72, 127
2, 115202, Note_on_c, 7, 79, 127
2, 115363, Note_off_c, 0, 48, 127
2, 115396, Note_off_c, 7, 79, 127
2, 115402, Note_on_c, 11, 70, 127
2, 115402, Note_on_c, 2, 50, 127
2, 115709, Note_off_c, 11, 70, 127
2, 115715, Note_on_c, 0, 72, 127
2, 115796, Note_off_c, 0, 72, 127
2, 115802, Note_on_c, 8, 68, 127
2, 115963, Note_off_c, 2, 50, 127
2, 115996, Note_off_c, 8, 68, 127
2, 116002, Note_on_c, 11, 70, 127
2, 116002, Note_on_c, 4, 52, 127
2, 116309, Note_off_c, 11, 70, 127
2, 116315, Note_on_c, 1, 73, 127
2, 116396, Note_off_c, 1, 73, 127
2, 116402, Note_on_c, 0, 72, 127
2, 116563, Note_off_c, 4, 52, 127
2, 116596, Note_off_c, 0, 72, 127
2, 116602, Note_on_c, 8, 68, 127
2, 116602, Note_on_c, 5, 53, 127
2, 116909, Note_off_c, 8, 68, 127
2, 116915, Note_on_c, 11, 70, 127
2, 116996, Note_off_c, 11, 70, 127
2, 116996, Note_off_c, 5, 53, 127
2, 117002, Note_on_c, 7, 67, 127
2, 117002, Note_on_c, 0, 48, 127
2, 117196, Note_off_c, 0, 48, 127
2, 117196, Note_off_c, 7, 67, 127
2, 117202, Note_on_c, 8, 68, 127
2, 117202, Note_on_c, 5, 41, 127
2, 117509, Note_off_c, 8, 68, 127
2, 117515, Note_on_c, 5, 65, 127
2, 117596, Note_off_c, 5, 65, 127
2, 117602, Note_on_c, 5, 77, 127
2, 117763, Note_off_c, 5, 41, 127
2, 117796, Note_off_c, 5, 77, 127
2, 117802, Note_on_c, 8, 68, 127
2, 117802, Note_on_c, 0, 48, 127
2, 118109, Note_off_c, 8, 68, 127
2, 118115, Note_on_c, 11, 70, 127
2, 118196, Note_off_c, 11, 70, 127
2, 118202, Note_on_c, 7, 67, 127
2, 118363, Note_off_c, 0, 48, 127
2, 118396, Note_off_c, 7, 67, 127
2, 118402, Note_on_c, 8, 68, 127
2, 118402, Note_on_c, 2, 50, 127
2, 118709, Note_off_c, 8, 68, 127
2, 118715, Note_on_c, 0, 72, 127
2, 118796, Note_off_c, 0, 72, 127
2, 118802, Note_on_c, 11, 70, 127
2, 118963, Note_off_c, 2, 50, 127
2, 118996, Note_off_c, 11, 70, 127
2, 119002, Note_on_c, 7, 67, 127
2, 119002, Note_on_c, 3, 51, 127
2, 119309, Note_off_c, 7, 67, 127
2, 119315, Note_on_c, 8, 68, 127
2, 119396, Note_off_c, 8, 68, 127
2, 119396, Note_off_c, 3, 51, 127
2, 119402, Note_on_c, 5, 65, 127
2, 119402, Note_on_c, 11, 46, 127
2, 119596, Note_off_c, 11, 46, 127
2, 119596, Note_off_c, 5, 65, 127
2, 119602, Note_on_c, 7, 67, 127
2, 119602, Note_on_c, 3, 39, 127
2, 119909, Note_off_c, 7, 67, 127
2, 119915, Note_on_c, 3, 63, 127
2, 119996, Note_off_c, 3, 63, 127
2, 120002, Note_on_c, 3, 75, 127
2, 120163, Note_off_c, 3, 39, 127
2, 120203, Note_on_c, 5, 41, 127
2, 120510, Note_off_c, 3, 75, 127
2, 120516, Note_on_c, 1, 73, 127
2, 120597, Note_off_c, 1, 73, 127
2, 120603, Note_on_c, 0, 72, 127
2, 120764, Note_off_c, 5, 41, 127
2, 120797, Note_off_c, 0, 72, 127
2, 120803, Note_on_c, 1, 73, 127
2, 120803, Note_on_c, 7, 43, 127
2, 121110, Note_off_c, 1, 73, 127
2, 121116, Note_on_c, 3, 63, 127
2, 121197, Note_off_c, 3, 63, 127
2, 121203, Note_on_c, 1, 73, 127
2, 121364, Note_off_c, 7, 43, 127
2, 121404, Note_on_c, 8, 44, 127
2, 121711, Note_off_c, 1, 73, 127
2, 121717, Note_on_c, 0, 72, 127
2, 121798, Note_off_c, 0, 72, 127
2, 121798, Note_off_c, 8, 44, 127
2, 121804, Note_on_c, 11, 70, 127
2, 121804, Note_on_c, 3, 51, 127
2, 121998, Note_off_c, 3, 51, 127
2, 121998, Note_off_c, 11, 70, 127
2, 122004, Note_on_c, 0, 72, 127
2, 122004, Note_on_c, 8, 56, 127
2, 122311, Note_off_c, 0, 72, 127
2, 122317, Note_on_c, 3, 63, 127
2, 122398, Note_off_c, 3, 63, 127
2, 122404, Note_on_c, 0, 72, 127
2, 122565, Note_off_c, 8, 56, 127
2, 122605, Note_on_c, 1, 49, 127
2, 122912, Note_off_c, 0, 72, 127
2, 122918, Note_on_c, 5, 77, 127
2, 122999, Note_off_c, 5, 77, 127
2, 123005, Note_on_c, 1, 73, 127
2, 123166, Note_off_c, 1, 49, 127
2, 123199, Note_off_c, 1, 73, 127
2, 123205, Note_on_c, 11, 70, 127
2, 123205, Note_on_c, 1, 37, 127
2, 123512, Note_off_c, 11, 70, 127
2, 123518, Note_on_c, 1, 73, 127
2, 123599, Note_off_c, 1, 73, 127
2, 123605, Note_on_c, 11, 70, 127
2, 123766, Note_off_c, 1, 37, 127
2, 123799, Note_off_c, 11, 70, 127
2, 123805, Note_on_c, 7, 67, 127
2, 123805, Note_on_c, 3, 39, 127
2, 124112, Note_off_c, 7, 67, 127
2, 124118, Note_on_c, 8, 68, 127
2, 124199, Note_off_c, 8, 68, 127
2, 124199, Note_off_c, 3, 39, 127
2, 124205, Note_on_c, 5, 65, 127
2, 124205, Note_on_c, 11, 46, 127
2, 124399, Note_off_c, 11, 46, 127
2, 124399, Note_off_c, 5, 65, 127
2, 124405, Note_on_c, 7, 67, 127
2, 124405, Note_on_c, 3, 51, 127
2, 124712, Note_off_c, 7, 67, 127
2, 124718, Note_on_c, 3, 63, 127
2, 124799, Note_off_c, 3, 63, 127
2, 124805, Note_on_c, 3, 75, 127
2, 124966, Note_off_c, 3, 51, 127
2, 124999, Note_off_c, 3, 75, 127
2, 125005, Note_on_c, 8, 68, 127
2, 125005, Note_on_c, 5, 53, 127
2, 125312, Note_off_c, 8, 68, 127
2, 125318, Note_on_c, 5, 65, 127
2, 125399, Note_off_c, 5, 65, 127
2, 125405, Note_on_c, 3, 75, 127
2, 125566, Note_off_c, 5, 53, 127
2, 125599, Note_off_c, 3, 75, 127
2, 125605, Note_on_c, 11, 70, 127
2, 125605, Note_on_c, 7, 55, 127
2, 125912, Note_off_c, 11, 70, 127
2, 125918, Note_on_c, 7, 67, 127
2, 125999, Note_off_c, 7, 67, 127
2, 126005, Note_on_c, 3, 75, 127
2, 126166, Note_off_c, 7, 55, 127
2, 126199, Note_off_c, 3, 75, 127
2, 126205, Note_on_c, 0, 72, 127
2, 126205, Note_on_c, 8, 56, 127
2, 126512, Note_off_c, 0, 72, 127
2, 126518, Note_on_c, 8, 68, 127
2, 126599, Note_off_c, 8, 68, 127
2, 126605, Note_on_c, 3, 75, 127
2, 126766, Note_off_c, 8, 56, 127
2, 126799, Note_off_c, 3, 75, 127
2, 126805, Note_on_c, 7, 67, 127
2, 126805, Note_on_c, 3, 51, 127
2, 127112, Note_off_c, 7, 67, 127
2, 127118, Note_on_c, 3, 63, 127
2, 127199, Note_off_c, 3, 63, 127
2, 127205, Note_on_c, 3, 75, 127
2, 127366, Note_off_c, 3, 51, 127
2, 127399, Note_off_c, 3, 75, 127
2, 127405, Note_on_c, 8, 68, 127
2, 127405, Note_on_c, 5, 53, 127
2, 127712, Note_off_c, 8, 68, 127
2, 127718, Note_on_c, 5, 65, 127
2, 127799, Note_off_c, 5, 65, 127
2, 127805, Note_on_c, 3, 75, 127
2, 127966, Note_off_c, 5, 53, 127
2, 127999, Note_off_c, 3, 75, 127
2, 128005, Note_on_c, 11, 70, 127
2, 128005, Note_on_c, 7, 55, 127
2, 128312, Note_off_c, 11, 70, 127
2, 128318, Note_on_c, 7, 67, 127
2, 128399, Note_off_c, 7, 67, 127
2, 128405, Note_on_c, 3, 75, 127
2, 128566, Note_off_c, 7, 55, 127
2, 128599, Note_off_c, 3, 75, 127
2, 128605, Note_on_c, 0, 72, 127
2, 128605, Note_on_c, 8, 56, 127
2, 128912, Note_off_c, 0, 72, 127
2, 128918, Note_on_c, 8, 68, 127
2, 128999, Note_off_c, 8, 68, 127
2, 129005, Note_on_c, 3, 75, 127
2, 129166, Note_off_c, 8, 56, 127
2, 129199, Note_off_c, 3, 75, 127
2, 129205, Note_on_c, 7, 67, 127
2, 129205, Note_on_c, 3, 51, 127
2, 129512, Note_off_c, 7, 67, 127
2, 129518, Note_on_c, 3, 63, 127
2, 129599, Note_off_c, 3, 63, 127
2, 129599, Note_off_c, 3, 51, 127
2, 129605, Note_on_c, 11, 70, 127
2, 129605, Note_on_c, 1, 49, 127
2, 129799, Note_off_c, 1, 49, 127
2, 129799, Note_off_c, 11, 70, 127
2, 129805, Note_on_c, 3, 63, 127
2, 129805, Note_on_c, 0, 48, 127
2, 130112, Note_off_c, 3, 63, 127
2, 130118, Note_on_c, 0, 60, 127
2, 130199, Note_off_c, 0, 60, 127
2, 130199, Note_off_c, 0, 48, 127
2, 130205, Note_on_c, 8, 68, 127
2, 130205, Note_on_c, 5, 53, 127
2, 130399, Note_off_c, 5, 53, 127
2, 130399, Note_off_c, 8, 68, 127
2, 130405, Note_on_c, 1, 61, 127
2, 130405, Note_on_c, 11, 46, 127
2, 130712, Note_off_c, 1, 61, 127
2, 130718, Note_on_c, 11, 58, 127
2, 130799, Note_off_c, 11, 58, 127
2, 130799, Note_off_c, 11, 46, 127
2, 130805, Note_on_c, 7, 67, 127
2, 130805, Note_on_c, 3, 51, 127
2, 130999, Note_off_c, 3, 51, 127
2, 130999, Note_off_c, 7, 67, 127
2, 131005, Note_on_c, 8, 68, 127
2, 131005, Note_on_c, 8, 44, 127
2, 131299, Note_off_c, 8, 44, 127
2, 131305, Note_on_c, 3, 51, 127
2, 131399, Note_off_c, 3, 51, 127
2, 131405, Note_on_c, 0, 48, 127
2, 131599, Note_off_c, 0, 48, 127
2, 131605, Note_on_c, 8, 44, 127
2, 131999, Note_off_c, 8, 68, 127
2, 132005, Note_on_c, 11, 70, 127
2, 132105, Note_off_c, 8, 44, 127
2, 132199, Note_off_c, 11, 70, 127
2, 132205, Note_on_c, 7, 67, 127
2, 132205, Note_on_c, 3, 51, 127
2, 132512, Note_off_c, 7, 67, 127
2, 132518, Note_on_c, 3, 63, 127
2, 132599, Note_off_c, 3, 63, 127
2, 132605, Note_on_c, 3, 75, 127
2, 132766, Note_off_c, 3, 51, 127
2, 132806, Note_on_c, 10, 45, 127
2, 133113, Note_off_c, 3, 75, 127
2, 133119, Note_on_c, 1, 73, 127
2, 133200, Note_off_c, 1, 73, 127
2, 133206, Note_on_c, 0, 72, 127
2, 133367, Note_off_c, 10, 45, 127
2, 133400, Note_off_c, 0, 72, 127
2, 133406, Note_on_c, 1, 73, 127
2, 133406, Note_on_c, 11, 46, 127
2, 133713, Note_off_c, 1, 73, 127
2, 133719, Note_on_c, 3, 75, 127
2, 133800, Note_off_c, 3, 75, 127
2, 133800, Note_off_c, 11, 46, 127
2, 133806, Note_on_c, 0, 72, 127
2, 133806, Note_on_c, 5, 53, 127
2, 134000, Note_off_c, 5, 53, 127
2, 134000, Note_off_c, 0, 72, 127
2, 134006, Note_on_c, 1, 73, 127
2, 134006, Note_on_c, 11, 58, 127
2, 134313, Note_off_c, 1, 73, 127
2, 134319, Note_on_c, 11, 70, 127
2, 134400, Note_off_c, 11, 70, 127
2, 134406, Note_on_c, 1, 73, 127
2, 134567, Note_off_c, 11, 58, 127
2, 134600, Note_off_c, 1, 73, 127
2, 134606, Note_on_c, 6, 66, 127
2, 134606, Note_on_c, 3, 51, 127
2, 134913, Note_off_c, 6, 66, 127
2, 134919, Note_on_c, 3, 63, 127
2, 135000, Note_off_c, 3, 63, 127
2, 135006, Note_on_c, 1, 73, 127
2, 135167, Note_off_c, 3, 51, 127
2, 135207, Note_on_c, 3, 39, 127
2, 135514, Note_off_c, 1, 73, 127
2, 135520, Note_on_c, 0, 72, 127
2, 135601, Note_off_c, 0, 72, 127
2, 135607, Note_on_c, 11, 70, 127
2, 135768, Note_off_c, 3, 39, 127
2, 135801, Note_off_c, 11, 70, 127
2, 135807, Note_on_c, 10, 69, 127
2, 135807, Note_on_c, 5, 41, 127
2, 136114, Note_off_c, 10, 69, 127
2, 136120, Note_on_c, 11, 70, 127
2, 136201, Note_off_c, 11, 70, 127
2, 136201, Note_off_c, 5, 41, 127
2, 136207, Note_on_c, 7, 67, 127
2, 136207, Note_on_c, 0, 48, 127
2, 136401, Note_off_c, 0, 48, 127
2, 136401, Note_off_c, 7, 67, 127
2, 136407, Note_on_c, 10, 69, 127
2, 136407, Note_on_c, 5, 53, 127
2, 136714, Note_off_c, 10, 69, 127
2, 136720, Note_on_c, 5, 65, 127
2, 136801, Note_off_c, 5, 65, 127
2, 136807, Note_on_c, 5, 77, 127
2, 136968, Note_off_c, 5, 53, 127
2, 137001, Note_off_c, 5, 77, 127
2, 137007, Note_on_c, 11, 70, 127
2, 137007, Note_on_c, 7, 55, 127
2, 137314, Note_off_c, 11, 70, 127
2, 137320, Note_on_c, 7, 67, 127
2, 137401, Note_off_c, 7, 67, 127
2, 137407, Note_on_c, 5, 77, 127
2, 137568, Note_off_c, 7, 55, 127
2, 137601, Note_off_c, 5, 77, 127
2, 137607, Note_on_c, 0, 72, 127
2, 137607, Note_on_c, 10, 57, 127
2, 137914, Note_off_c, 0, 72, 127
2, 137920, Note_on_c, 10, 69, 127
2, 138001, Note_off_c, 10, 69, 127
2, 138007, Note_on_c, 5, 77, 127
2, 138168, Note_off_c, 10, 57, 127
2, 138201, Note_off_c, 5, 77, 127
2, 138207, Note_on_c, 1, 73, 127
2, 138207, Note_on_c, 11, 58, 127
2, 138514, Note_off_c, 1, 73, 127
2, 138520, Note_on_c, 11, 70, 127
2, 138601, Note_off_c, 11, 70, 127
2, 138607, Note_on_c, 5, 77, 127
2, 138768, Note_off_c, 11, 58, 127
2, 138801, Note_off_c, 5, 77, 127
2, 138807, Note_on_c, 10, 69, 127
2, 138807, Note_on_c, 5, 53, 127
2, 139114, Note_off_c, 10, 69, 127
2, 139120, Note_on_c, 5, 65, 127
2, 139201, Note_off_c, 5, 65, 127
2, 139207, Note_on_c, 5, 77, 127
2, 139368, Note_off_c, 5, 53, 127
2, 139401, Note_off_c, 5, 77, 127
2, 139407, Note_on_c, 11, 70, 127
2, 139407, Note_on_c, 7, 55, 127
2, 139714, Note_off_c, 11, 70, 127
2, 139720, Note_on_c, 7, 67, 127
2, 139801, Note_off_c, 7, 67, 127
2, 139807, Note_on_c, 5, 77, 127
2, 139968, Note_off_c, 7, 55, 127
2, 140001, Note_off_c, 5, 77, 127
2, 140007, Note_on_c, 0, 72, 127
2, 140007, Note_on_c, 10, 57, 127
2, 140314, Note_off_c, 0, 72, 127
2, 140320, Note_on_c, 10, 69, 127
2, 140401, Note_off_c, 10, 69, 127
2, 140407, Note_on_c, 5, 77, 127
2, 140568, Note_off_c, 10, 57, 127
2, 140601, Note_off_c, 5, 77, 127
2, 140607, Note_on_c, 1, 73, 127
2, 140607, Note_on_c, 11, 58, 127
2, 140914, Note_off_c, 1, 73, 127
2, 140920, Note_on_c, 11, 70, 127
2, 141001, Note_off_c, 11, 70, 127
2, 141007, Note_on_c, 5, 77, 127
2, 141168, Note_off_c, 11, 58, 127
2, 141201, Note_off_c, 5, 77, 127
2, 141207, Note_on_c, 10, 69, 127
2, 141207, Note_on_c, 5, 53, 127
2, 141514, Note_off_c, 10, 69, 127
2, 141520, Note_on_c, 5, 65, 127
2, 141601, Note_off_c, 5, 65, 127
2, 141601, Note_off_c, 5, 53, 127
2, 141607, Note_on_c, 0, 72, 127
2, 141607, Note_on_c, 3, 51, 127
2, 141801, Note_off_c, 3, 51, 127
2, 141801, Note_off_c, 0, 72, 127
2, 141807, Note_on_c, 5, 65, 127
2, 141807, Note_on_c, 1, 49, 127
2, 142114, Note_off_c, 5, 65, 127
2, 142120, Note_on_c, 1, 61, 127
2, 142201, Note_off_c, 1, 61, 127
2, 142201, Note_off_c, 1, 49, 127
2, 142207, Note_on_c, 11, 70, 127
2, 142207, Note_on_c, 6, 54, 127
2, 142401, Note_off_c, 6, 54, 127
2, 142401, Note_off_c, 11, 70, 127
2, 142407, Note_on_c, 3, 63, 127
2, 142407, Note_on_c, 0, 48, 127
2, 142714, Note_off_c, 3, 63, 127
2, 142720, Note_on_c, 0, 60, 127
2, 142801, Note_off_c, 0, 60, 127
2, 142801, Note_off_c, 0, 48, 127
2, 142807, Note_on_c, 10, 69, 127
2, 142807, Note_on_c, 5, 53, 127
2, 143001, Note_off_c, 5, 53, 127
2, 143001, Note_off_c, 10, 69, 127
2, 143007, Note_on_c, 11, 70, 127
2, 143007, Note_on_c, 11, 46, 127
2, 143301, Note_off_c, 11, 46, 127
2, 143307, Note_on_c, 5, 53, 127
2, 143401, Note_off_c, 5, 53, 127
2, 143407, Note_on_c, 1, 49, 127
2, 143601, Note_off_c, 1, 49, 127
2, 143607, Note_on_c, 11, 58, 127
2, 144001, Note_off_c, 11, 58, 127
2, 144001, Note_off_c, 11, 70, 127
2, 144007, Note_on_c, 0, 72, 127
2, 144007, Note_on_c, 8, 56, 127
2, 144201, Note_off_c, 8, 56, 127
2, 144201, Note_off_c, 0, 72, 127
2, 144207, Note_on_c, 1, 73, 127
2, 144207, Note_on_c, 7, 55, 127
2, 144514, Note_off_c, 1, 73, 127
2, 144520, Note_on_c, 3, 75, 127
2, 144601, Note_off_c, 3, 75, 127
2, 144607, Note_on_c, 0, 72, 127
2, 144768, Note_off_c, 7, 55, 127
2, 144801, Note_off_c, 0, 72, 127
2, 144807, Note_on_c, 1, 73, 127
2, 144807, Note_on_c, 3, 51, 127
2, 145114, Note_off_c, 1, 73, 127
2, 145120, Note_on_c, 5, 77, 127
2, 145201, Note_off_c, 5, 77, 127
2, 145207, Note_on_c, 3, 75, 127
2, 145368, Note_off_c, 3, 51, 127
2, 145401, Note_off_c, 3, 75, 127
2, 145407, Note_on_c, 0, 72, 127
2, 145407, Note_on_c, 8, 56, 127
2, 145714, Note_off_c, 0, 72, 127
2, 145720, Note_on_c, 1, 73, 127
2, 145801, Note_off_c, 1, 73, 127
2, 145801, Note_off_c, 8, 56, 127
2, 145807, Note_on_c, 11, 70, 127
2, 145807, Note_on_c, 3, 51, 127
2, 146001, Note_off_c, 3, 51, 127
2, 146001, Note_off_c, 11, 70, 127
2, 146007, Note_on_c, 0, 72, 127
2, 146007, Note_on_c, 8, 44, 127
2, 146314, Note_off_c, 0, 72, 127
2, 146320, Note_on_c, 8, 68, 127
2, 146401, Note_off_c, 8, 68, 127
2, 146407, Note_on_c, 8, 80, 127
2, 146568, Note_off_c, 8, 44, 127
2, 146601, Note_off_c, 8, 80, 127
2, 146607, Note_on_c, 11, 70, 127
2, 146607, Note_on_c, 7, 55, 127
2, 146914, Note_off_c, 11, 70, 127
2, 146920, Note_on_c, 0, 72, 127
2, 147001, Note_off_c, 0, 72, 127
2, 147007, Note_on_c, 8, 68, 127
2, 147168, Note_off_c, 7, 55, 127
2, 147201, Note_off_c, 8, 68, 127
2, 147207, Note_on_c, 11, 70, 127
2, 147207, Note_on_c, 4, 52, 127
2, 147514, Note_off_c, 11, 70, 127
2, 147520, Note_on_c, 1, 73, 127
2, 147601, Note_off_c, 1, 73, 127
2, 147607, Note_on_c, 0, 72, 127
2, 147768, Note_off_c, 4, 52, 127
2, 147801, Note_off_c, 0, 72, 127
2, 147807, Note_on_c, 8, 68, 127
2, 147807, Note_on_c, 5, 53, 127
2, 148114, Note_off_c, 8, 68, 127
2, 148120, Note_on_c, 11, 70, 127
2, 148201, Note_off_c, 11, 70, 127
2, 148201, Note_off_c, 5, 53, 127
2, 148207, Note_on_c, 7, 67, 127
2, 148207, Note_on_c, 0, 48, 127
2, 148401, Note_off_c, 0, 48, 127
2, 148401, Note_off_c, 7, 67, 127
2, 148407, Note_on_c, 8, 68, 127
2, 148407, Note_on_c, 5, 41, 127
2, 148714, Note_off_c, 8, 68, 127
2, 148720, Note_on_c, 5, 65, 127
2, 148801, Note_off_c, 5, 65, 127
2, 148807, Note_on_c, 5, 77, 127
2, 148968, Note_off_c, 5, 41, 127
2, 149008, Note_on_c, 7, 43, 127
2, 149315, Note_off_c, 5, 77, 127
2, 149321, Note_on_c, 3, 75, 127
2, 149402, Note_off_c, 3, 75, 127
2, 149408, Note_on_c, 1, 73, 127
2, 149569, Note_off_c, 7, 43, 127
2, 149602, Note_off_c, 1, 73, 127
2, 149608, Note_on_c, 0, 72, 127
2, 149608, Note_on_c, 8, 44, 127
2, 149915, Note_off_c, 0, 72, 127
2, 149921, Note_on_c, 8, 68, 127
2, 150002, Note_off_c, 8, 68, 127
2, 150008, Note_on_c, 8, 80, 127
2, 150169, Note_off_c, 8, 44, 127
2, 150209, Note_on_c, 11, 46, 127
2, 150516, Note_off_c, 8, 80, 127
2, 150522, Note_on_c, 7, 79, 127
2, 150603, Note_off_c, 7, 79, 127
2, 150609, Note_on_c, 5, 77, 127
2, 150770, Note_off_c, 11, 46, 127
2, 150803, Note_off_c, 5, 77, 127
2, 150809, Note_on_c, 4, 76, 127
2, 150809, Note_on_c, 0, 48, 127
2, 151116, Note_off_c, 4, 76, 127
2, 151122, Note_on_c, 0, 72, 127
2, 151203, Note_off_c, 0, 72, 127
2, 151203, Note_off_c, 0, 48, 127
2, 151209, Note_on_c, 7, 79, 127
2, 151209, Note_on_c, 11, 46, 127
2, 151403, Note_off_c, 11, 46, 127
2, 151403, Note_off_c, 7, 79, 127
2, 151409, Note_on_c, 0, 72, 127
2, 151409, Note_on_c, 8, 44, 127
2, 151716, Note_off_c, 0, 72, 127
2, 151722, Note_on_c, 8, 68, 127
2, 151803, Note_off_c, 8, 68, 127
2, 151803, Note_off_c, 8, 44, 127
2, 151809, Note_on_c, 5, 77, 127
2, 151809, Note_on_c, 1, 49, 127
2, 152003, Note_off_c, 1, 49, 127
2, 152003, Note_off_c, 5, 77, 127
2, 152009, Note_on_c, 11, 70, 127
2, 152009, Note_on_c, 7, 43, 127
2, 152316, Note_off_c, 11, 70, 127
2, 152322, Note_on_c, 7, 67, 127
2, 152403, Note_off_c, 7, 67, 127
2, 152403, Note_off_c, 7, 43, 127
2, 152409, Note_on_c, 4, 76, 127
2, 152409, Note_on_c, 0, 48, 127
2, 152603, Note_off_c, 0, 48, 127
2, 152603, Note_off_c, 4, 76, 127
2, 152626, Note_on_c, 5, 41, 127
2, 152626, Note_on_c, 5, 77, 127
2, 152956, Note_off_c, 5, 41, 127
2, 152982, Note_on_c, 0, 48, 127
2, 153092, Note_off_c, 0, 48, 127
2, 153113, Note_on_c, 8, 44, 127
2, 153293, Note_off_c, 8, 44, 127
2, 153440, Note_on_c, 5, 53, 127
2, 153826, Note_off_c, 5, 77, 127
2, 155240, Note_off_c, 5, 53, 127
2, 159744, End_track
3, 0, Start_track
3, 0, Title_t, "MIDI"
3, 1536, End_track
0, 0, End_of_file
