0, 0, Header, 1, 3, 384
1, 0, Start_track
1, 0, Time_signature, 4, 2, 24, 8
1, 0, Tempo, 500000
1, 333312, End_track
2, 0, Start_track
2, 0, Text_t, "harpsichord: John Sankey"
2, 0, Program_c, 0, 6
2, 0, Pitch_bend_c, 0, 8192
2, 0, Program_c, 1, 6
2, 0, Pitch_bend_c, 1, 7792
2, 0, Program_c, 2, 6
2, 0, Pitch_bend_c, 2, 7876
2, 0, Program_c, 3, 6
2, 0, Pitch_bend_c, 3, 7952
2, 0, Program_c, 4, 6
2, 0, Pitch_bend_c, 4, 7792
2, 0, Program_c, 5, 6
2, 0, Pitch_bend_c, 5, 8112
2, 0, Program_c, 6, 6
2, 0, Pitch_bend_c, 6, 7712
2, 0, Program_c, 7, 6
2, 0, Pitch_bend_c, 7, 8037
2, 0, Program_c, 8, 6
2, 0, Pitch_bend_c, 8, 7872
2, 0, Program_c, 10, 6
2, 0, Pitch_bend_c, 10, 7712
2, 0, Program_c, 11, 6
2, 0, Pitch_bend_c, 11, 8032
2, 0, Program_c, 12, 6
2, 0, Pitch_bend_c, 12, 7872
2, 0, Title_t, "Ger.8l"
2, 68, Note_on_c, 11, 58, 127
2, 217, Note_off_c, 11, 58, 127
2, 248, Note_on_c, 11, 58, 127
2, 248, Note_on_c, 3, 39, 127
2, 427, Note_on_c, 5, 53, 127
2, 604, Note_off_c, 5, 53, 127
2, 607, Note_on_c, 7, 55, 127
2, 771, Note_off_c, 11, 58, 127
2, 784, Note_off_c, 7, 55, 127
2, 786, Note_on_c, 11, 58, 127
2, 963, Note_off_c, 11, 58, 127
2, 966, Note_on_c, 3, 51, 127
2, 1145, Note_on_c, 7, 55, 127
2, 1322, Note_off_c, 7, 55, 127
2, 1325, Note_on_c, 11, 58, 127
2, 1502, Note_off_c, 11, 58, 127
2, 1504, Note_on_c, 1, 61, 127
2, 1676, Note_off_c, 3, 51, 127
2, 1681, Note_off_c, 1, 61, 127
2, 1682, Note_off_c, 3, 39, 127
2, 1684, Note_on_c, 0, 60, 127
2, 1684, Note_on_c, 3, 39, 127
2, 1863, Note_on_c, 7, 55, 127
2, 2040, Note_off_c, 7, 55, 127
2, 2043, Note_on_c, 8, 56, 127
2, 2207, Note_off_c, 0, 60, 127
2, 2220, Note_off_c, 8, 56, 127
2, 2222, Note_on_c, 0, 60, 127
2, 2399, Note_off_c, 0, 60, 127
2, 2402, Note_on_c, 3, 51, 127
2, 2581, Note_on_c, 8, 56, 127
2, 2758, Note_off_c, 8, 56, 127
2, 2761, Note_on_c, 0, 60, 127
2, 2938, Note_off_c, 0, 60, 127
2, 2940, Note_on_c, 3, 63, 127
2, 3112, Note_off_c, 3, 51, 127
2, 3117, Note_off_c, 3, 63, 127
2, 3118, Note_off_c, 3, 39, 127
2, 3120, Note_on_c, 2, 62, 127
2, 3120, Note_on_c, 5, 41, 127
2, 3299, Note_on_c, 7, 55, 127
2, 3476, Note_off_c, 7, 55, 127
2, 3479, Note_on_c, 8, 56, 127
2, 3643, Note_off_c, 2, 62, 127
2, 3656, Note_off_c, 8, 56, 127
2, 3658, Note_on_c, 2, 62, 127
2, 3835, Note_off_c, 2, 62, 127
2, 3838, Note_on_c, 5, 53, 127
2, 4017, Note_on_c, 8, 56, 127
2, 4194, Note_off_c, 8, 56, 127
2, 4197, Note_on_c, 2, 62, 127
2, 4374, Note_off_c, 2, 62, 127
2, 4377, Note_on_c, 5, 65, 127
2, 4548, Note_off_c, 5, 53, 127
2, 4554, Note_off_c, 5, 65, 127
2, 4554, Note_off_c, 5, 41, 127
2, 4556, Note_on_c, 5, 65, 127
2, 4556, Note_on_c, 7, 43, 127
2, 4733, Note_off_c, 5, 65, 127
2, 4736, Note_on_c, 2, 62, 127
2, 4913, Note_off_c, 2, 62, 127
2, 4915, Note_on_c, 3, 63, 127
2, 5095, Note_on_c, 7, 67, 127
2, 5270, Note_off_c, 3, 63, 127
2, 5272, Note_off_c, 7, 67, 127
2, 5274, Note_on_c, 11, 58, 127
2, 5274, Note_on_c, 7, 55, 127
2, 5451, Note_off_c, 11, 58, 127
2, 5454, Note_on_c, 2, 62, 127
2, 5631, Note_off_c, 2, 62, 127
2, 5633, Note_on_c, 3, 63, 127
2, 5810, Note_off_c, 3, 63, 127
2, 5813, Note_on_c, 7, 67, 127
2, 5990, Note_off_c, 7, 67, 127
2, 5990, Note_off_c, 7, 55, 127
2, 5990, Note_off_c, 7, 43, 127
2, 5992, Note_on_c, 7, 67, 127
2, 5992, Note_on_c, 8, 44, 127
2, 6169, Note_off_c, 7, 67, 127
2, 6172, Note_on_c, 3, 63, 127
2, 6349, Note_off_c, 3, 63, 127
2, 6351, Note_on_c, 5, 65, 127
2, 6531, Note_on_c, 8, 68, 127
2, 6706, Note_off_c, 5, 65, 127
2, 6708, Note_off_c, 8, 68, 127
2, 6710, Note_on_c, 0, 60, 127
2, 6710, Note_on_c, 8, 56, 127
2, 6887, Note_off_c, 0, 60, 127
2, 6890, Note_on_c, 3, 63, 127
2, 7067, Note_off_c, 3, 63, 127
2, 7069, Note_on_c, 5, 65, 127
2, 7246, Note_off_c, 5, 65, 127
2, 7249, Note_on_c, 8, 68, 127
2, 7426, Note_off_c, 8, 68, 127
2, 7426, Note_off_c, 8, 44, 127
2, 7428, Note_on_c, 2, 62, 127
2, 7428, Note_on_c, 11, 46, 127
2, 7608, Note_on_c, 0, 72, 127
2, 7785, Note_off_c, 0, 72, 127
2, 7787, Note_on_c, 11, 70, 127
2, 7951, Note_off_c, 2, 62, 127
2, 7964, Note_off_c, 11, 70, 127
2, 7967, Note_on_c, 2, 62, 127
2, 8144, Note_off_c, 2, 62, 127
2, 8144, Note_off_c, 8, 56, 127
2, 8146, Note_on_c, 3, 63, 127
2, 8146, Note_on_c, 7, 55, 127
2, 8323, Note_off_c, 3, 63, 127
2, 8326, Note_on_c, 11, 70, 127
2, 8503, Note_off_c, 11, 70, 127
2, 8505, Note_on_c, 7, 67, 127
2, 8682, Note_off_c, 7, 67, 127
2, 8685, Note_on_c, 3, 63, 127
2, 8862, Note_off_c, 3, 63, 127
2, 8862, Note_off_c, 7, 55, 127
2, 8865, Note_on_c, 0, 60, 127
2, 8865, Note_on_c, 3, 51, 127
2, 9044, Note_on_c, 11, 70, 127
2, 9221, Note_off_c, 11, 70, 127
2, 9224, Note_on_c, 8, 68, 127
2, 9388, Note_off_c, 0, 60, 127
2, 9401, Note_off_c, 8, 68, 127
2, 9403, Note_on_c, 0, 60, 127
2, 9580, Note_off_c, 0, 60, 127
2, 9581, Note_off_c, 3, 51, 127
2, 9583, Note_on_c, 2, 62, 127
2, 9583, Note_on_c, 5, 53, 127
2, 9760, Note_off_c, 2, 62, 127
2, 9762, Note_on_c, 8, 68, 127
2, 9939, Note_off_c, 8, 68, 127
2, 9942, Note_on_c, 5, 65, 127
2, 10119, Note_off_c, 5, 65, 127
2, 10121, Note_on_c, 2, 62, 127
2, 10298, Note_off_c, 2, 62, 127
2, 10299, Note_off_c, 5, 53, 127
2, 10301, Note_on_c, 11, 58, 127
2, 10301, Note_on_c, 2, 50, 127
2, 10480, Note_on_c, 8, 68, 127
2, 10657, Note_off_c, 8, 68, 127
2, 10660, Note_on_c, 7, 67, 127
2, 10824, Note_off_c, 11, 58, 127
2, 10837, Note_off_c, 7, 67, 127
2, 10839, Note_on_c, 11, 58, 127
2, 11016, Note_off_c, 11, 58, 127
2, 11017, Note_off_c, 2, 50, 127
2, 11019, Note_on_c, 0, 60, 127
2, 11019, Note_on_c, 3, 51, 127
2, 11196, Note_off_c, 0, 60, 127
2, 11198, Note_on_c, 7, 67, 127
2, 11375, Note_off_c, 7, 67, 127
2, 11378, Note_on_c, 3, 63, 127
2, 11555, Note_off_c, 3, 63, 127
2, 11557, Note_on_c, 0, 60, 127
2, 11729, Note_off_c, 11, 46, 127
2, 11734, Note_off_c, 0, 60, 127
2, 11737, Note_on_c, 8, 56, 127
2, 11737, Note_on_c, 0, 48, 127
2, 11916, Note_on_c, 7, 67, 127
2, 12093, Note_off_c, 7, 67, 127
2, 12096, Note_on_c, 5, 65, 127
2, 12260, Note_off_c, 8, 56, 127
2, 12273, Note_off_c, 5, 65, 127
2, 12275, Note_on_c, 8, 56, 127
2, 12452, Note_off_c, 8, 56, 127
2, 12453, Note_off_c, 0, 48, 127
2, 12453, Note_off_c, 3, 51, 127
2, 12455, Note_on_c, 11, 58, 127
2, 12455, Note_on_c, 5, 53, 127
2, 12455, Note_on_c, 2, 50, 127
2, 12632, Note_off_c, 11, 58, 127
2, 12634, Note_on_c, 5, 65, 127
2, 12811, Note_off_c, 5, 65, 127
2, 12814, Note_on_c, 2, 62, 127
2, 12991, Note_off_c, 2, 62, 127
2, 12993, Note_on_c, 11, 58, 127
2, 13170, Note_off_c, 11, 58, 127
2, 13171, Note_off_c, 2, 50, 127
2, 13171, Note_off_c, 5, 53, 127
2, 13173, Note_on_c, 7, 55, 127
2, 13173, Note_on_c, 3, 51, 127
2, 13353, Note_on_c, 11, 58, 127
2, 13530, Note_off_c, 11, 58, 127
2, 13530, Note_off_c, 3, 51, 127
2, 13532, Note_on_c, 2, 62, 127
2, 13532, Note_on_c, 2, 50, 127
2, 13709, Note_off_c, 2, 62, 127
2, 13712, Note_on_c, 5, 65, 127
2, 13883, Note_off_c, 7, 55, 127
2, 13889, Note_off_c, 5, 65, 127
2, 13889, Note_off_c, 2, 50, 127
2, 13891, Note_on_c, 3, 63, 127
2, 13891, Note_on_c, 0, 48, 127
2, 14071, Note_on_c, 7, 67, 127
2, 14248, Note_off_c, 7, 67, 127
2, 14248, Note_off_c, 0, 48, 127
2, 14250, Note_on_c, 11, 70, 127
2, 14250, Note_on_c, 11, 46, 127
2, 14427, Note_off_c, 11, 70, 127
2, 14430, Note_on_c, 1, 73, 127
2, 14601, Note_off_c, 3, 63, 127
2, 14607, Note_off_c, 1, 73, 127
2, 14607, Note_off_c, 11, 46, 127
2, 14609, Note_on_c, 0, 72, 127
2, 14609, Note_on_c, 8, 44, 127
2, 14789, Note_on_c, 7, 67, 127
2, 14966, Note_off_c, 7, 67, 127
2, 14968, Note_on_c, 8, 68, 127
2, 14968, Note_on_c, 5, 53, 127
2, 15145, Note_off_c, 8, 68, 127
2, 15148, Note_on_c, 5, 65, 127
2, 15319, Note_off_c, 8, 44, 127
2, 15325, Note_off_c, 5, 65, 127
2, 15327, Note_on_c, 2, 62, 127
2, 15327, Note_on_c, 11, 46, 127
2, 15506, Note_off_c, 0, 72, 127
2, 15507, Note_on_c, 0, 72, 127
2, 15678, Note_off_c, 5, 53, 127
2, 15684, Note_off_c, 0, 72, 127
2, 15686, Note_on_c, 11, 70, 127
2, 15686, Note_on_c, 11, 58, 127
2, 15863, Note_off_c, 11, 70, 127
2, 15866, Note_on_c, 8, 68, 127
2, 16037, Note_off_c, 11, 46, 127
2, 16037, Note_off_c, 2, 62, 127
2, 16043, Note_off_c, 8, 68, 127
2, 16045, Note_on_c, 7, 67, 127
2, 16045, Note_on_c, 3, 51, 127
2, 16222, Note_off_c, 7, 67, 127
2, 16225, Note_on_c, 5, 65, 127
2, 16396, Note_off_c, 11, 58, 127
2, 16402, Note_off_c, 5, 65, 127
2, 16402, Note_off_c, 3, 51, 127
2, 16404, Note_on_c, 7, 67, 127
2, 16404, Note_on_c, 5, 53, 127
2, 16584, Note_on_c, 11, 70, 127
2, 16761, Note_off_c, 11, 70, 127
2, 16761, Note_off_c, 5, 53, 127
2, 16763, Note_on_c, 3, 75, 127
2, 16763, Note_on_c, 7, 55, 127
2, 16927, Note_off_c, 7, 67, 127
2, 16943, Note_on_c, 11, 70, 127
2, 17120, Note_off_c, 11, 70, 127
2, 17120, Note_off_c, 7, 55, 127
2, 17122, Note_on_c, 0, 72, 127
2, 17122, Note_on_c, 8, 56, 127
2, 17299, Note_off_c, 0, 72, 127
2, 17302, Note_on_c, 8, 68, 127
2, 17479, Note_off_c, 8, 68, 127
2, 17479, Note_off_c, 8, 56, 127
2, 17481, Note_on_c, 5, 65, 127
2, 17481, Note_on_c, 11, 58, 127
2, 17660, Note_off_c, 3, 75, 127
2, 17661, Note_on_c, 3, 75, 127
2, 17838, Note_off_c, 3, 75, 127
2, 17838, Note_off_c, 11, 58, 127
2, 17841, Note_on_c, 2, 74, 127
2, 17841, Note_on_c, 10, 57, 127
2, 18018, Note_off_c, 2, 74, 127
2, 18020, Note_on_c, 0, 72, 127
2, 18191, Note_off_c, 5, 65, 127
2, 18197, Note_off_c, 0, 72, 127
2, 18198, Note_off_c, 10, 57, 127
2, 18200, Note_on_c, 2, 74, 127
2, 18200, Note_on_c, 12, 59, 127
2, 18379, Note_on_c, 10, 69, 127
2, 18556, Note_off_c, 10, 69, 127
2, 18557, Note_off_c, 12, 59, 127
2, 18559, Note_on_c, 12, 71, 127
2, 18559, Note_on_c, 7, 55, 127
2, 18736, Note_off_c, 12, 71, 127
2, 18738, Note_on_c, 7, 67, 127
2, 18915, Note_off_c, 7, 67, 127
2, 18916, Note_off_c, 7, 55, 127
2, 18918, Note_on_c, 5, 65, 127
2, 18918, Note_on_c, 0, 60, 127
2, 19095, Note_off_c, 5, 65, 127
2, 19097, Note_on_c, 2, 62, 127
2, 19274, Note_off_c, 2, 62, 127
2, 19275, Note_off_c, 0, 60, 127
2, 19275, Note_off_c, 2, 74, 127
2, 19277, Note_on_c, 3, 63, 127
2, 19277, Note_on_c, 0, 48, 127
2, 19456, Note_on_c, 7, 67, 127
2, 19633, Note_off_c, 7, 67, 127
2, 19634, Note_off_c, 0, 48, 127
2, 19636, Note_on_c, 0, 72, 127
2, 19636, Note_on_c, 3, 51, 127
2, 19800, Note_off_c, 3, 63, 127
2, 19815, Note_on_c, 7, 67, 127
2, 19992, Note_off_c, 7, 67, 127
2, 19993, Note_off_c, 3, 51, 127
2, 19995, Note_on_c, 8, 68, 127
2, 19995, Note_on_c, 5, 53, 127
2, 20172, Note_off_c, 8, 68, 127
2, 20174, Note_on_c, 5, 65, 127
2, 20351, Note_off_c, 5, 65, 127
2, 20352, Note_off_c, 5, 53, 127
2, 20354, Note_on_c, 2, 62, 127
2, 20354, Note_on_c, 7, 55, 127
2, 20533, Note_off_c, 0, 72, 127
2, 20533, Note_on_c, 0, 72, 127
2, 20710, Note_off_c, 0, 72, 127
2, 20711, Note_off_c, 7, 55, 127
2, 20713, Note_on_c, 11, 70, 127
2, 20713, Note_on_c, 5, 53, 127
2, 20890, Note_off_c, 11, 70, 127
2, 20892, Note_on_c, 8, 68, 127
2, 21069, Note_off_c, 8, 68, 127
2, 21070, Note_off_c, 5, 53, 127
2, 21072, Note_on_c, 11, 70, 127
2, 21072, Note_on_c, 7, 55, 127
2, 21251, Note_off_c, 2, 62, 127
2, 21251, Note_on_c, 5, 65, 127
2, 21428, Note_off_c, 5, 65, 127
2, 21429, Note_off_c, 7, 55, 127
2, 21431, Note_on_c, 7, 67, 127
2, 21431, Note_on_c, 3, 51, 127
2, 21608, Note_off_c, 7, 67, 127
2, 21610, Note_on_c, 1, 61, 127
2, 21782, Note_off_c, 11, 70, 127
2, 21787, Note_off_c, 1, 61, 127
2, 21788, Note_off_c, 3, 51, 127
2, 21790, Note_on_c, 0, 60, 127
2, 21790, Note_on_c, 8, 56, 127
2, 21969, Note_on_c, 3, 63, 127
2, 22146, Note_off_c, 3, 63, 127
2, 22147, Note_off_c, 8, 56, 127
2, 22149, Note_on_c, 7, 67, 127
2, 22149, Note_on_c, 7, 55, 127
2, 22326, Note_off_c, 7, 67, 127
2, 22329, Note_on_c, 11, 70, 127
2, 22500, Note_off_c, 0, 60, 127
2, 22506, Note_off_c, 11, 70, 127
2, 22506, Note_off_c, 7, 55, 127
2, 22508, Note_on_c, 8, 68, 127
2, 22508, Note_on_c, 5, 53, 127
2, 22688, Note_on_c, 0, 72, 127
2, 22865, Note_off_c, 0, 72, 127
2, 22865, Note_off_c, 5, 53, 127
2, 22867, Note_on_c, 3, 75, 127
2, 22867, Note_on_c, 3, 51, 127
2, 23044, Note_off_c, 3, 75, 127
2, 23047, Note_on_c, 7, 79, 127
2, 23224, Note_off_c, 7, 79, 127
2, 23224, Note_off_c, 3, 51, 127
2, 23226, Note_on_c, 5, 77, 127
2, 23226, Note_on_c, 2, 50, 127
2, 23405, Note_off_c, 8, 68, 127
2, 23406, Note_on_c, 7, 67, 127
2, 23583, Note_off_c, 7, 67, 127
2, 23583, Note_off_c, 2, 50, 127
2, 23585, Note_on_c, 8, 68, 127
2, 23585, Note_on_c, 5, 53, 127
2, 23762, Note_off_c, 8, 68, 127
2, 23765, Note_on_c, 0, 72, 127
2, 23936, Note_off_c, 5, 77, 127
2, 23942, Note_off_c, 0, 72, 127
2, 23942, Note_off_c, 5, 53, 127
2, 23944, Note_on_c, 5, 77, 127
2, 23944, Note_on_c, 2, 50, 127
2, 24124, Note_on_c, 0, 72, 127
2, 24299, Note_off_c, 5, 77, 127
2, 24301, Note_off_c, 0, 72, 127
2, 24301, Note_off_c, 2, 50, 127
2, 24303, Note_on_c, 2, 74, 127
2, 24303, Note_on_c, 11, 46, 127
2, 24483, Note_on_c, 8, 68, 127
2, 24658, Note_off_c, 2, 74, 127
2, 24660, Note_off_c, 8, 68, 127
2, 24660, Note_off_c, 11, 46, 127
2, 24662, Note_on_c, 7, 67, 127
2, 24662, Note_on_c, 3, 51, 127
2, 24842, Note_on_c, 11, 70, 127
2, 25019, Note_off_c, 11, 70, 127
2, 25019, Note_off_c, 3, 51, 127
2, 25021, Note_on_c, 2, 74, 127
2, 25021, Note_on_c, 2, 50, 127
2, 25198, Note_off_c, 2, 74, 127
2, 25201, Note_on_c, 5, 77, 127
2, 25378, Note_off_c, 5, 77, 127
2, 25378, Note_off_c, 2, 50, 127
2, 25380, Note_on_c, 3, 75, 127
2, 25380, Note_on_c, 0, 48, 127
2, 25559, Note_off_c, 7, 67, 127
2, 25560, Note_on_c, 10, 69, 127
2, 25737, Note_off_c, 10, 69, 127
2, 25737, Note_off_c, 0, 48, 127
2, 25739, Note_on_c, 0, 72, 127
2, 25739, Note_on_c, 11, 46, 127
2, 25916, Note_off_c, 0, 72, 127
2, 25919, Note_on_c, 6, 66, 127
2, 26096, Note_off_c, 6, 66, 127
2, 26096, Note_off_c, 11, 46, 127
2, 26098, Note_on_c, 5, 65, 127
2, 26098, Note_on_c, 10, 45, 127
2, 26277, Note_off_c, 3, 75, 127
2, 26278, Note_on_c, 3, 75, 127
2, 26455, Note_off_c, 3, 75, 127
2, 26455, Note_off_c, 10, 45, 127
2, 26457, Note_on_c, 2, 74, 127
2, 26457, Note_on_c, 11, 46, 127
2, 26634, Note_off_c, 2, 74, 127
2, 26637, Note_on_c, 11, 70, 127
2, 26808, Note_off_c, 5, 65, 127
2, 26814, Note_off_c, 11, 70, 127
2, 26814, Note_off_c, 11, 46, 127
2, 26817, Note_on_c, 7, 67, 127
2, 26817, Note_on_c, 3, 51, 127
2, 26996, Note_on_c, 0, 72, 127
2, 27172, Note_off_c, 7, 67, 127
2, 27174, Note_off_c, 3, 51, 127
2, 27176, Note_on_c, 3, 63, 127
2, 27176, Note_on_c, 5, 53, 127
2, 27351, Note_off_c, 0, 72, 127
2, 27355, Note_on_c, 10, 69, 127
2, 27531, Note_off_c, 3, 63, 127
2, 27532, Note_off_c, 10, 69, 127
2, 27533, Note_off_c, 5, 53, 127
2, 27535, Note_on_c, 11, 70, 127
2, 27535, Note_on_c, 11, 46, 127
2, 27714, Note_on_c, 0, 60, 127
2, 27891, Note_off_c, 0, 60, 127
2, 27894, Note_on_c, 2, 62, 127
2, 28073, Note_on_c, 5, 65, 127
2, 28250, Note_off_c, 5, 65, 127
2, 28253, Note_on_c, 11, 58, 127
2, 28604, Note_off_c, 2, 62, 127
2, 28610, Note_off_c, 11, 46, 127
2, 28784, Note_off_c, 11, 70, 127
2, 28791, Note_on_c, 5, 77, 127
2, 28964, Note_off_c, 11, 58, 127
2, 28968, Note_off_c, 5, 77, 127
2, 28971, Note_on_c, 5, 77, 127
2, 28971, Note_on_c, 11, 58, 127
2, 29150, Note_on_c, 0, 72, 127
2, 29327, Note_off_c, 0, 72, 127
2, 29330, Note_on_c, 2, 74, 127
2, 29494, Note_off_c, 5, 77, 127
2, 29507, Note_off_c, 2, 74, 127
2, 29509, Note_on_c, 5, 77, 127
2, 29686, Note_off_c, 5, 77, 127
2, 29689, Note_on_c, 11, 70, 127
2, 29868, Note_on_c, 2, 74, 127
2, 30045, Note_off_c, 2, 74, 127
2, 30048, Note_on_c, 5, 77, 127
2, 30225, Note_off_c, 5, 77, 127
2, 30227, Note_on_c, 8, 80, 127
2, 30399, Note_off_c, 11, 70, 127
2, 30404, Note_off_c, 8, 80, 127
2, 30405, Note_off_c, 11, 58, 127
2, 30407, Note_on_c, 7, 79, 127
2, 30407, Note_on_c, 11, 58, 127
2, 30586, Note_on_c, 2, 74, 127
2, 30763, Note_off_c, 2, 74, 127
2, 30766, Note_on_c, 3, 75, 127
2, 30930, Note_off_c, 7, 79, 127
2, 30943, Note_off_c, 3, 75, 127
2, 30945, Note_on_c, 7, 79, 127
2, 31122, Note_off_c, 7, 79, 127
2, 31125, Note_on_c, 11, 70, 127
2, 31305, Note_on_c, 3, 75, 127
2, 31482, Note_off_c, 3, 75, 127
2, 31484, Note_on_c, 7, 79, 127
2, 31661, Note_off_c, 7, 79, 127
2, 31664, Note_on_c, 11, 82, 127
2, 31835, Note_off_c, 11, 70, 127
2, 31841, Note_off_c, 11, 82, 127
2, 31841, Note_off_c, 11, 58, 127
2, 31843, Note_on_c, 10, 81, 127
2, 31843, Note_on_c, 11, 58, 127
2, 32023, Note_on_c, 0, 72, 127
2, 32200, Note_off_c, 0, 72, 127
2, 32202, Note_on_c, 3, 75, 127
2, 32366, Note_off_c, 10, 81, 127
2, 32379, Note_off_c, 3, 75, 127
2, 32382, Note_on_c, 10, 81, 127
2, 32559, Note_off_c, 10, 81, 127
2, 32561, Note_on_c, 6, 66, 127
2, 32741, Note_on_c, 3, 75, 127
2, 32918, Note_off_c, 3, 75, 127
2, 32920, Note_on_c, 10, 81, 127
2, 33097, Note_off_c, 10, 81, 127
2, 33100, Note_on_c, 0, 84, 127
2, 33271, Note_off_c, 6, 66, 127
2, 33277, Note_off_c, 0, 84, 127
2, 33277, Note_off_c, 11, 58, 127
2, 33279, Note_on_c, 0, 84, 127
2, 33279, Note_on_c, 11, 58, 127
2, 33456, Note_off_c, 0, 84, 127
2, 33459, Note_on_c, 10, 81, 127
2, 33636, Note_off_c, 10, 81, 127
2, 33638, Note_on_c, 11, 82, 127
2, 33818, Note_on_c, 5, 77, 127
2, 33993, Note_off_c, 11, 82, 127
2, 33995, Note_off_c, 5, 77, 127
2, 33997, Note_on_c, 5, 65, 127
2, 33997, Note_on_c, 3, 75, 127
2, 34177, Note_on_c, 0, 72, 127
2, 34352, Note_off_c, 3, 75, 127
2, 34354, Note_off_c, 0, 72, 127
2, 34356, Note_on_c, 2, 74, 127
2, 34533, Note_off_c, 2, 74, 127
2, 34536, Note_on_c, 5, 77, 127
2, 34704, Note_off_c, 5, 77, 127
2, 34707, Note_off_c, 5, 65, 127
2, 34713, Note_off_c, 11, 58, 127
2, 34715, Note_on_c, 5, 77, 127
2, 34715, Note_on_c, 8, 68, 127
2, 34715, Note_on_c, 12, 59, 127
2, 34892, Note_off_c, 8, 68, 127
2, 34895, Note_on_c, 5, 65, 127
2, 35072, Note_off_c, 5, 65, 127
2, 35074, Note_on_c, 7, 67, 127
2, 35254, Note_on_c, 12, 71, 127
2, 35425, Note_off_c, 5, 77, 127
2, 35431, Note_off_c, 12, 71, 127
2, 35433, Note_on_c, 2, 74, 127
2, 35610, Note_off_c, 2, 74, 127
2, 35613, Note_on_c, 5, 77, 127
2, 35790, Note_off_c, 5, 77, 127
2, 35793, Note_on_c, 3, 75, 127
2, 35970, Note_off_c, 3, 75, 127
2, 35972, Note_on_c, 2, 74, 127
2, 36149, Note_off_c, 2, 74, 127
2, 36149, Note_off_c, 12, 59, 127
2, 36152, Note_on_c, 3, 75, 127
2, 36152, Note_on_c, 0, 60, 127
2, 36326, Note_off_c, 7, 67, 127
2, 36331, Note_on_c, 12, 71, 127
2, 36508, Note_off_c, 12, 71, 127
2, 36511, Note_on_c, 0, 72, 127
2, 36690, Note_on_c, 7, 67, 127
2, 36870, Note_on_c, 3, 63, 127
2, 37047, Note_off_c, 3, 63, 127
2, 37049, Note_on_c, 12, 59, 127
2, 37226, Note_off_c, 12, 59, 127
2, 37227, Note_off_c, 0, 60, 127
2, 37229, Note_on_c, 0, 60, 127
2, 37406, Note_off_c, 0, 60, 127
2, 37408, Note_on_c, 7, 55, 127
2, 37576, Note_off_c, 7, 55, 127
2, 37586, Note_off_c, 0, 72, 127
2, 37586, Note_off_c, 3, 75, 127
2, 37587, Note_off_c, 7, 67, 127
2, 37588, Note_on_c, 8, 56, 127
2, 37767, Note_on_c, 0, 60, 127
2, 37947, Note_on_c, 3, 63, 127
2, 38122, Note_off_c, 0, 60, 127
2, 38126, Note_on_c, 7, 67, 127
2, 38302, Note_off_c, 3, 63, 127
2, 38303, Note_off_c, 7, 67, 127
2, 38306, Note_on_c, 5, 65, 127
2, 38485, Note_on_c, 3, 75, 127
2, 38662, Note_off_c, 3, 75, 127
2, 38665, Note_on_c, 2, 74, 127
2, 38842, Note_off_c, 2, 74, 127
2, 38844, Note_on_c, 5, 77, 127
2, 39021, Note_off_c, 5, 77, 127
2, 39022, Note_off_c, 8, 56, 127
2, 39024, Note_on_c, 0, 72, 127
2, 39024, Note_on_c, 7, 55, 127
2, 39201, Note_off_c, 0, 72, 127
2, 39203, Note_on_c, 10, 69, 127
2, 39380, Note_off_c, 10, 69, 127
2, 39383, Note_on_c, 12, 71, 127
2, 39562, Note_on_c, 2, 74, 127
2, 39742, Note_on_c, 7, 79, 127
2, 39914, Note_off_c, 5, 65, 127
2, 39921, Note_on_c, 2, 62, 127
2, 40098, Note_off_c, 2, 62, 127
2, 40101, Note_on_c, 12, 59, 127
2, 40265, Note_off_c, 7, 79, 127
2, 40272, Note_off_c, 2, 74, 127
2, 40276, Note_off_c, 7, 55, 127
2, 40278, Note_off_c, 12, 59, 127
2, 40280, Note_off_c, 12, 71, 127
2, 40281, Note_on_c, 7, 55, 127
2, 40458, Note_off_c, 7, 55, 127
2, 40460, Note_on_c, 4, 64, 127
2, 40640, Note_on_c, 11, 82, 127
2, 40817, Note_off_c, 11, 82, 127
2, 40819, Note_on_c, 7, 79, 127
2, 40819, Note_on_c, 11, 58, 127
2, 40996, Note_off_c, 7, 79, 127
2, 40999, Note_on_c, 1, 73, 127
2, 41176, Note_off_c, 1, 73, 127
2, 41176, Note_off_c, 11, 58, 127
2, 41178, Note_on_c, 11, 70, 127
2, 41178, Note_on_c, 8, 56, 127
2, 41355, Note_off_c, 11, 70, 127
2, 41358, Note_on_c, 7, 79, 127
2, 41535, Note_off_c, 7, 79, 127
2, 41535, Note_off_c, 8, 56, 127
2, 41537, Note_on_c, 4, 76, 127
2, 41537, Note_on_c, 7, 55, 127
2, 41714, Note_off_c, 4, 76, 127
2, 41717, Note_on_c, 0, 72, 127
2, 41894, Note_off_c, 0, 72, 127
2, 41894, Note_off_c, 7, 55, 127
2, 41894, Note_off_c, 4, 64, 127
2, 41896, Note_on_c, 5, 65, 127
2, 41896, Note_on_c, 8, 80, 127
2, 41896, Note_on_c, 5, 53, 127
2, 42076, Note_on_c, 5, 77, 127
2, 42251, Note_off_c, 8, 80, 127
2, 42253, Note_off_c, 5, 77, 127
2, 42253, Note_off_c, 5, 53, 127
2, 42255, Note_on_c, 2, 74, 127
2, 42255, Note_on_c, 3, 51, 127
2, 42432, Note_off_c, 2, 74, 127
2, 42435, Note_on_c, 0, 72, 127
2, 42606, Note_off_c, 5, 65, 127
2, 42612, Note_off_c, 0, 72, 127
2, 42612, Note_off_c, 3, 51, 127
2, 42614, Note_on_c, 12, 71, 127
2, 42614, Note_on_c, 2, 50, 127
2, 42794, Note_on_c, 5, 77, 127
2, 42875, Note_off_c, 12, 71, 127
2, 42971, Note_off_c, 5, 77, 127
2, 42971, Note_off_c, 2, 50, 127
2, 42973, Note_on_c, 2, 74, 127
2, 42973, Note_on_c, 0, 48, 127
2, 43150, Note_off_c, 2, 74, 127
2, 43153, Note_on_c, 12, 71, 127
2, 43330, Note_off_c, 12, 71, 127
2, 43330, Note_off_c, 0, 48, 127
2, 43332, Note_on_c, 7, 67, 127
2, 43332, Note_on_c, 5, 53, 127
2, 43512, Note_on_c, 12, 71, 127
2, 43689, Note_off_c, 12, 71, 127
2, 43689, Note_off_c, 5, 53, 127
2, 43691, Note_on_c, 0, 72, 127
2, 43691, Note_on_c, 3, 51, 127
2, 43855, Note_off_c, 7, 67, 127
2, 43868, Note_off_c, 3, 51, 127
2, 43868, Note_off_c, 0, 72, 127
2, 43871, Note_on_c, 3, 75, 127
2, 43871, Note_on_c, 5, 53, 127
2, 44048, Note_off_c, 5, 53, 127
2, 44050, Note_on_c, 5, 65, 127
2, 44050, Note_on_c, 7, 55, 127
2, 44226, Note_off_c, 3, 75, 127
2, 44230, Note_on_c, 2, 74, 127
2, 44407, Note_off_c, 2, 74, 127
2, 44407, Note_off_c, 7, 55, 127
2, 44409, Note_on_c, 0, 72, 127
2, 44409, Note_on_c, 7, 43, 127
2, 44586, Note_off_c, 0, 72, 127
2, 44589, Note_on_c, 12, 71, 127
2, 44766, Note_off_c, 12, 71, 127
2, 44766, Note_off_c, 7, 43, 127
2, 44769, Note_on_c, 0, 72, 127
2, 44769, Note_on_c, 0, 48, 127
2, 44947, Note_off_c, 5, 65, 127
2, 44948, Note_on_c, 2, 62, 127
2, 45125, Note_off_c, 2, 62, 127
2, 45128, Note_on_c, 3, 63, 127
2, 45307, Note_on_c, 7, 67, 127
2, 45487, Note_on_c, 0, 60, 127
2, 45664, Note_off_c, 0, 48, 127
2, 45666, Note_on_c, 7, 55, 127
2, 45843, Note_off_c, 7, 55, 127
2, 45846, Note_on_c, 3, 51, 127
2, 46023, Note_off_c, 3, 51, 127
2, 46025, Note_on_c, 0, 48, 127
2, 46197, Note_off_c, 0, 60, 127
2, 46202, Note_off_c, 0, 48, 127
2, 46203, Note_off_c, 3, 63, 127
2, 46203, Note_off_c, 0, 72, 127
2, 46204, Note_off_c, 7, 67, 127
2, 46205, Note_on_c, 7, 43, 127
2, 46384, Note_on_c, 2, 62, 127
2, 46561, Note_off_c, 2, 62, 127
2, 46562, Note_off_c, 7, 43, 127
2, 46564, Note_on_c, 3, 63, 127
2, 46564, Note_on_c, 5, 41, 127
2, 46741, Note_off_c, 3, 63, 127
2, 46743, Note_on_c, 7, 67, 127
2, 46920, Note_off_c, 7, 67, 127
2, 46921, Note_off_c, 5, 41, 127
2, 46923, Note_on_c, 11, 70, 127
2, 46923, Note_on_c, 7, 43, 127
2, 47102, Note_on_c, 5, 65, 127
2, 47278, Note_off_c, 11, 70, 127
2, 47279, Note_off_c, 5, 65, 127
2, 47280, Note_off_c, 7, 43, 127
2, 47282, Note_on_c, 7, 67, 127
2, 47282, Note_on_c, 3, 39, 127
2, 47459, Note_off_c, 7, 67, 127
2, 47461, Note_on_c, 11, 70, 127
2, 47638, Note_off_c, 11, 70, 127
2, 47639, Note_off_c, 3, 39, 127
2, 47641, Note_on_c, 1, 73, 127
2, 47641, Note_on_c, 8, 44, 127
2, 47820, Note_on_c, 7, 67, 127
2, 47997, Note_off_c, 7, 67, 127
2, 48000, Note_on_c, 8, 68, 127
2, 48164, Note_off_c, 1, 73, 127
2, 48179, Note_on_c, 0, 72, 127
2, 48359, Note_on_c, 3, 63, 127
2, 48501, Note_off_c, 8, 44, 127
2, 48538, Note_on_c, 8, 44, 127
2, 48715, Note_off_c, 8, 44, 127
2, 48718, Note_on_c, 7, 43, 127
2, 48882, Note_off_c, 3, 63, 127
2, 48895, Note_off_c, 7, 43, 127
2, 48897, Note_off_c, 8, 68, 127
2, 48897, Note_on_c, 5, 41, 127
2, 49074, Note_off_c, 5, 41, 127
2, 49077, Note_on_c, 4, 40, 127
2, 49254, Note_off_c, 0, 72, 127
2, 49257, Note_on_c, 12, 71, 127
2, 49434, Note_off_c, 12, 71, 127
2, 49434, Note_off_c, 4, 40, 127
2, 49436, Note_on_c, 0, 72, 127
2, 49436, Note_on_c, 2, 38, 127
2, 49613, Note_off_c, 0, 72, 127
2, 49616, Note_on_c, 4, 76, 127
2, 49793, Note_off_c, 4, 76, 127
2, 49793, Note_off_c, 2, 38, 127
2, 49795, Note_on_c, 7, 79, 127
2, 49795, Note_on_c, 4, 40, 127
2, 49975, Note_on_c, 11, 70, 127
2, 50056, Note_off_c, 7, 79, 127
2, 50152, Note_off_c, 11, 70, 127
2, 50152, Note_off_c, 4, 40, 127
2, 50154, Note_on_c, 0, 72, 127
2, 50154, Note_on_c, 0, 36, 127
2, 50334, Note_on_c, 7, 67, 127
2, 50378, Note_off_c, 0, 72, 127
2, 50511, Note_off_c, 7, 67, 127
2, 50511, Note_off_c, 0, 36, 127
2, 50513, Note_on_c, 8, 68, 127
2, 50513, Note_on_c, 5, 41, 127
2, 50693, Note_on_c, 4, 64, 127
2, 50870, Note_off_c, 4, 64, 127
2, 50872, Note_on_c, 5, 65, 127
2, 51036, Note_off_c, 8, 68, 127
2, 51052, Note_on_c, 8, 68, 127
2, 51231, Note_on_c, 0, 60, 127
2, 51408, Note_off_c, 5, 41, 127
2, 51411, Note_on_c, 7, 43, 127
2, 51588, Note_off_c, 7, 43, 127
2, 51590, Note_on_c, 5, 41, 127
2, 51754, Note_off_c, 0, 60, 127
2, 51767, Note_off_c, 5, 41, 127
2, 51769, Note_off_c, 5, 65, 127
2, 51770, Note_on_c, 3, 39, 127
2, 51947, Note_off_c, 3, 39, 127
2, 51949, Note_on_c, 2, 38, 127
2, 52127, Note_off_c, 8, 68, 127
2, 52129, Note_on_c, 11, 58, 127
2, 52306, Note_off_c, 11, 58, 127
2, 52306, Note_off_c, 2, 38, 127
2, 52308, Note_on_c, 5, 65, 127
2, 52308, Note_on_c, 11, 46, 127
2, 52485, Note_off_c, 5, 65, 127
2, 52488, Note_on_c, 8, 68, 127
2, 52665, Note_off_c, 8, 68, 127
2, 52665, Note_off_c, 11, 46, 127
2, 52667, Note_on_c, 7, 67, 127
2, 52667, Note_on_c, 3, 51, 127
2, 52847, Note_on_c, 2, 62, 127
2, 53024, Note_off_c, 2, 62, 127
2, 53024, Note_off_c, 3, 51, 127
2, 53026, Note_on_c, 3, 63, 127
2, 53026, Note_on_c, 1, 37, 127
2, 53203, Note_off_c, 3, 63, 127
2, 53206, Note_on_c, 11, 58, 127
2, 53377, Note_off_c, 7, 67, 127
2, 53383, Note_off_c, 11, 58, 127
2, 53383, Note_off_c, 1, 37, 127
2, 53385, Note_on_c, 8, 56, 127
2, 53385, Note_on_c, 0, 36, 127
2, 53562, Note_off_c, 8, 56, 127
2, 53565, Note_on_c, 0, 60, 127
2, 53742, Note_off_c, 0, 60, 127
2, 53742, Note_off_c, 0, 36, 127
2, 53745, Note_on_c, 3, 63, 127
2, 53745, Note_on_c, 0, 48, 127
2, 53922, Note_off_c, 3, 63, 127
2, 53924, Note_on_c, 7, 67, 127
2, 54101, Note_off_c, 7, 67, 127
2, 54102, Note_off_c, 0, 48, 127
2, 54104, Note_on_c, 5, 65, 127
2, 54104, Note_on_c, 2, 50, 127
2, 54283, Note_on_c, 2, 74, 127
2, 54459, Note_off_c, 5, 65, 127
2, 54460, Note_off_c, 2, 74, 127
2, 54461, Note_off_c, 2, 50, 127
2, 54463, Note_on_c, 8, 44, 127
2, 54463, Note_on_c, 2, 62, 127
2, 54644, Note_off_c, 2, 62, 127
2, 54646, Note_on_c, 0, 60, 127
2, 54827, Note_off_c, 0, 60, 127
2, 54829, Note_off_c, 8, 44, 127
2, 54831, Note_on_c, 7, 43, 127
2, 54831, Note_on_c, 11, 58, 127
2, 55016, Note_on_c, 2, 62, 127
2, 55195, Note_off_c, 11, 58, 127
2, 55197, Note_off_c, 2, 62, 127
2, 55197, Note_off_c, 7, 43, 127
2, 55201, Note_on_c, 3, 63, 127
2, 55201, Note_on_c, 0, 48, 127
2, 55386, Note_off_c, 3, 63, 127
2, 55390, Note_on_c, 7, 67, 127
2, 55575, Note_off_c, 7, 67, 127
2, 55576, Note_off_c, 0, 48, 127
2, 55581, Note_on_c, 0, 60, 127
2, 55581, Note_on_c, 8, 44, 127
2, 55772, Note_on_c, 5, 65, 127
2, 55955, Note_off_c, 0, 60, 127
2, 55956, Note_off_c, 8, 44, 127
2, 55962, Note_on_c, 11, 46, 127
2, 55962, Note_on_c, 8, 56, 127
2, 56146, Note_off_c, 5, 65, 127
2, 56157, Note_on_c, 2, 62, 127
2, 56345, Note_off_c, 2, 62, 127
2, 56347, Note_off_c, 8, 56, 127
2, 56349, Note_off_c, 11, 46, 127
2, 56353, Note_on_c, 3, 39, 127
2, 56353, Note_on_c, 3, 63, 127
2, 56550, Note_on_c, 5, 53, 127
2, 56738, Note_off_c, 5, 53, 127
2, 56746, Note_on_c, 7, 55, 127
2, 56950, Note_on_c, 11, 58, 127
2, 57224, Note_on_c, 3, 51, 127
2, 58746, Note_off_c, 7, 55, 127
2, 58750, Note_off_c, 11, 58, 127
2, 58853, Note_off_c, 3, 39, 127
2, 58953, Note_off_c, 3, 63, 127
2, 59424, Note_off_c, 3, 51, 127
2, 59903, Note_on_c, 11, 58, 127
2, 60086, Note_off_c, 11, 58, 127
2, 60143, Note_on_c, 11, 58, 127
2, 60143, Note_on_c, 3, 51, 127
2, 60460, Note_on_c, 5, 53, 127
2, 60617, Note_off_c, 5, 53, 127
2, 60621, Note_on_c, 7, 55, 127
2, 60778, Note_off_c, 11, 58, 127
2, 60780, Note_on_c, 0, 60, 127
2, 60937, Note_off_c, 0, 60, 127
2, 60938, Note_off_c, 7, 55, 127
2, 60939, Note_on_c, 2, 62, 127
2, 60939, Note_on_c, 5, 53, 127
2, 61069, Note_off_c, 2, 62, 127
2, 61096, Note_off_c, 5, 53, 127
2, 61100, Note_on_c, 3, 63, 127
2, 61100, Note_on_c, 7, 55, 127
2, 61257, Note_off_c, 3, 63, 127
2, 61259, Note_on_c, 5, 65, 127
2, 61414, Note_off_c, 3, 51, 127
2, 61416, Note_off_c, 5, 65, 127
2, 61417, Note_off_c, 7, 55, 127
2, 61418, Note_on_c, 7, 67, 127
2, 61418, Note_on_c, 11, 58, 127
2, 61548, Note_off_c, 7, 67, 127
2, 61575, Note_off_c, 11, 58, 127
2, 61579, Note_on_c, 7, 67, 127
2, 61579, Note_on_c, 8, 56, 127
2, 61736, Note_off_c, 7, 67, 127
2, 61738, Note_on_c, 3, 63, 127
2, 61895, Note_off_c, 3, 63, 127
2, 61896, Note_off_c, 8, 56, 127
2, 61897, Note_on_c, 5, 65, 127
2, 61897, Note_on_c, 3, 51, 127
2, 62027, Note_off_c, 5, 65, 127
2, 62054, Note_off_c, 3, 51, 127
2, 62057, Note_on_c, 2, 74, 127
2, 62057, Note_on_c, 5, 53, 127
2, 62374, Note_off_c, 5, 53, 127
2, 62375, Note_on_c, 3, 51, 127
2, 62532, Note_off_c, 3, 51, 127
2, 62536, Note_on_c, 5, 53, 127
2, 62655, Note_off_c, 2, 74, 127
2, 62695, Note_on_c, 3, 75, 127
2, 62852, Note_off_c, 3, 75, 127
2, 62853, Note_off_c, 5, 53, 127
2, 62854, Note_on_c, 5, 77, 127
2, 62854, Note_on_c, 8, 56, 127
2, 62984, Note_off_c, 5, 77, 127
2, 63011, Note_off_c, 8, 56, 127
2, 63015, Note_on_c, 3, 75, 127
2, 63015, Note_on_c, 7, 55, 127
2, 63172, Note_off_c, 3, 75, 127
2, 63174, Note_on_c, 2, 74, 127
2, 63331, Note_off_c, 2, 74, 127
2, 63332, Note_off_c, 7, 55, 127
2, 63333, Note_on_c, 0, 72, 127
2, 63333, Note_on_c, 11, 58, 127
2, 63463, Note_off_c, 0, 72, 127
2, 63490, Note_off_c, 11, 58, 127
2, 63494, Note_on_c, 11, 70, 127
2, 63494, Note_on_c, 3, 63, 127
2, 63651, Note_off_c, 11, 70, 127
2, 63653, Note_on_c, 8, 68, 127
2, 63811, Note_off_c, 3, 63, 127
2, 63812, Note_on_c, 7, 67, 127
2, 63812, Note_on_c, 8, 56, 127
2, 63817, Note_off_c, 8, 68, 127
2, 63942, Note_off_c, 7, 67, 127
2, 63969, Note_off_c, 8, 56, 127
2, 63972, Note_on_c, 5, 65, 127
2, 63972, Note_on_c, 11, 58, 127
2, 64129, Note_off_c, 5, 65, 127
2, 64131, Note_on_c, 7, 67, 127
2, 64289, Note_off_c, 11, 58, 127
2, 64290, Note_on_c, 8, 68, 127
2, 64290, Note_on_c, 11, 46, 127
2, 64299, Note_off_c, 7, 67, 127
2, 64420, Note_off_c, 8, 68, 127
2, 64447, Note_off_c, 11, 46, 127
2, 64451, Note_on_c, 8, 68, 127
2, 64451, Note_on_c, 3, 51, 127
2, 64608, Note_off_c, 8, 68, 127
2, 64610, Note_on_c, 5, 65, 127
2, 64767, Note_off_c, 5, 65, 127
2, 64768, Note_off_c, 3, 51, 127
2, 64769, Note_on_c, 7, 67, 127
2, 64769, Note_on_c, 11, 46, 127
2, 64899, Note_off_c, 7, 67, 127
2, 64926, Note_off_c, 11, 46, 127
2, 64930, Note_on_c, 3, 63, 127
2, 64930, Note_on_c, 7, 43, 127
2, 65087, Note_off_c, 3, 63, 127
2, 65089, Note_on_c, 7, 67, 127
2, 65246, Note_off_c, 7, 67, 127
2, 65247, Note_off_c, 7, 43, 127
2, 65248, Note_on_c, 11, 70, 127
2, 65248, Note_on_c, 3, 39, 127
2, 65378, Note_off_c, 11, 70, 127
2, 65405, Note_off_c, 3, 39, 127
2, 65409, Note_on_c, 3, 75, 127
2, 65409, Note_on_c, 7, 43, 127
2, 65566, Note_off_c, 3, 75, 127
2, 65567, Note_on_c, 7, 79, 127
2, 65724, Note_off_c, 7, 79, 127
2, 65726, Note_off_c, 7, 43, 127
2, 65726, Note_on_c, 5, 77, 127
2, 65726, Note_on_c, 11, 46, 127
2, 65856, Note_off_c, 5, 77, 127
2, 65883, Note_off_c, 11, 46, 127
2, 65887, Note_on_c, 7, 79, 127
2, 65887, Note_on_c, 3, 51, 127
2, 66044, Note_off_c, 3, 51, 127
2, 66046, Note_on_c, 2, 50, 127
2, 66203, Note_off_c, 2, 50, 127
2, 66205, Note_on_c, 0, 48, 127
2, 66362, Note_off_c, 0, 48, 127
2, 66366, Note_on_c, 12, 47, 127
2, 66522, Note_off_c, 7, 79, 127
2, 66525, Note_on_c, 8, 80, 127
2, 66682, Note_off_c, 8, 80, 127
2, 66683, Note_off_c, 12, 47, 127
2, 66684, Note_on_c, 7, 79, 127
2, 66684, Note_on_c, 2, 50, 127
2, 66814, Note_off_c, 7, 79, 127
2, 66841, Note_off_c, 2, 50, 127
2, 66845, Note_on_c, 5, 77, 127
2, 66845, Note_on_c, 7, 43, 127
2, 67002, Note_off_c, 5, 77, 127
2, 67004, Note_on_c, 3, 75, 127
2, 67161, Note_off_c, 3, 75, 127
2, 67162, Note_off_c, 7, 43, 127
2, 67163, Note_on_c, 2, 74, 127
2, 67163, Note_on_c, 12, 47, 127
2, 67293, Note_off_c, 2, 74, 127
2, 67320, Note_off_c, 12, 47, 127
2, 67323, Note_on_c, 3, 75, 127
2, 67323, Note_on_c, 0, 48, 127
2, 67480, Note_off_c, 3, 75, 127
2, 67482, Note_on_c, 0, 72, 127
2, 67639, Note_off_c, 0, 72, 127
2, 67640, Note_off_c, 0, 48, 127
2, 67641, Note_on_c, 2, 74, 127
2, 67641, Note_on_c, 7, 43, 127
2, 67771, Note_off_c, 2, 74, 127
2, 67798, Note_off_c, 7, 43, 127
2, 67802, Note_on_c, 3, 75, 127
2, 67802, Note_on_c, 0, 36, 127
2, 67959, Note_off_c, 3, 75, 127
2, 67961, Note_on_c, 5, 77, 127
2, 68118, Note_off_c, 5, 77, 127
2, 68119, Note_off_c, 0, 36, 127
2, 68120, Note_on_c, 7, 79, 127
2, 68120, Note_on_c, 0, 48, 127
2, 68250, Note_off_c, 7, 79, 127
2, 68277, Note_off_c, 0, 48, 127
2, 68281, Note_on_c, 11, 70, 127
2, 68281, Note_on_c, 2, 50, 127
2, 68438, Note_off_c, 11, 70, 127
2, 68440, Note_on_c, 7, 67, 127
2, 68597, Note_off_c, 7, 67, 127
2, 68598, Note_off_c, 2, 50, 127
2, 68599, Note_on_c, 10, 69, 127
2, 68599, Note_on_c, 3, 51, 127
2, 68729, Note_off_c, 10, 69, 127
2, 68756, Note_off_c, 3, 51, 127
2, 68760, Note_on_c, 5, 77, 127
2, 68760, Note_on_c, 2, 50, 127
2, 68917, Note_off_c, 2, 50, 127
2, 68918, Note_on_c, 0, 48, 127
2, 69075, Note_off_c, 0, 48, 127
2, 69077, Note_on_c, 11, 46, 127
2, 69234, Note_off_c, 11, 46, 127
2, 69238, Note_on_c, 10, 45, 127
2, 69395, Note_off_c, 5, 77, 127
2, 69397, Note_on_c, 7, 79, 127
2, 69554, Note_off_c, 7, 79, 127
2, 69555, Note_off_c, 10, 45, 127
2, 69556, Note_on_c, 5, 77, 127
2, 69556, Note_on_c, 0, 48, 127
2, 69686, Note_off_c, 5, 77, 127
2, 69713, Note_off_c, 0, 48, 127
2, 69717, Note_on_c, 3, 75, 127
2, 69717, Note_on_c, 5, 41, 127
2, 69874, Note_off_c, 3, 75, 127
2, 69876, Note_on_c, 2, 74, 127
2, 70033, Note_off_c, 2, 74, 127
2, 70034, Note_off_c, 5, 41, 127
2, 70035, Note_on_c, 0, 72, 127
2, 70035, Note_on_c, 10, 45, 127
2, 70165, Note_off_c, 0, 72, 127
2, 70192, Note_off_c, 10, 45, 127
2, 70196, Note_on_c, 2, 74, 127
2, 70196, Note_on_c, 11, 46, 127
2, 70353, Note_off_c, 2, 74, 127
2, 70355, Note_on_c, 11, 70, 127
2, 70512, Note_off_c, 11, 70, 127
2, 70514, Note_on_c, 0, 72, 127
2, 70644, Note_off_c, 0, 72, 127
2, 70674, Note_on_c, 2, 74, 127
2, 70831, Note_off_c, 2, 74, 127
2, 70833, Note_on_c, 3, 75, 127
2, 70906, Note_off_c, 11, 46, 127
2, 70990, Note_off_c, 3, 75, 127
2, 70992, Note_on_c, 5, 77, 127
2, 70992, Note_on_c, 2, 50, 127
2, 71122, Note_off_c, 5, 77, 127
2, 71149, Note_off_c, 2, 50, 127
2, 71153, Note_on_c, 8, 68, 127
2, 71153, Note_on_c, 5, 53, 127
2, 71310, Note_off_c, 8, 68, 127
2, 71312, Note_on_c, 5, 65, 127
2, 71469, Note_off_c, 5, 65, 127
2, 71470, Note_off_c, 5, 53, 127
2, 71471, Note_on_c, 7, 67, 127
2, 71471, Note_on_c, 11, 58, 127
2, 71601, Note_off_c, 7, 67, 127
2, 71628, Note_off_c, 11, 58, 127
2, 71632, Note_on_c, 7, 67, 127
2, 71632, Note_on_c, 3, 51, 127
2, 71789, Note_off_c, 7, 67, 127
2, 71791, Note_on_c, 11, 70, 127
2, 71948, Note_off_c, 11, 70, 127
2, 71950, Note_on_c, 10, 69, 127
2, 72080, Note_off_c, 10, 69, 127
2, 72111, Note_on_c, 11, 70, 127
2, 72268, Note_off_c, 11, 70, 127
2, 72270, Note_on_c, 0, 72, 127
2, 72342, Note_off_c, 3, 51, 127
2, 72427, Note_off_c, 0, 72, 127
2, 72428, Note_on_c, 2, 74, 127
2, 72428, Note_on_c, 5, 53, 127
2, 72558, Note_off_c, 2, 74, 127
2, 72585, Note_off_c, 5, 53, 127
2, 72589, Note_on_c, 0, 72, 127
2, 72589, Note_on_c, 3, 51, 127
2, 72746, Note_off_c, 0, 72, 127
2, 72748, Note_on_c, 10, 69, 127
2, 72905, Note_off_c, 10, 69, 127
2, 72906, Note_off_c, 3, 51, 127
2, 72907, Note_on_c, 11, 70, 127
2, 72907, Note_on_c, 2, 50, 127
2, 73037, Note_off_c, 11, 70, 127
2, 73064, Note_off_c, 2, 50, 127
2, 73068, Note_on_c, 3, 75, 127
2, 73068, Note_on_c, 0, 48, 127
2, 73225, Note_off_c, 3, 75, 127
2, 73227, Note_on_c, 0, 72, 127
2, 73384, Note_off_c, 0, 72, 127
2, 73386, Note_on_c, 2, 74, 127
2, 73516, Note_off_c, 2, 74, 127
2, 73547, Note_on_c, 3, 75, 127
2, 73704, Note_off_c, 3, 75, 127
2, 73706, Note_on_c, 5, 77, 127
2, 73778, Note_off_c, 0, 48, 127
2, 73863, Note_off_c, 5, 77, 127
2, 73865, Note_on_c, 7, 79, 127
2, 73865, Note_on_c, 11, 46, 127
2, 73995, Note_off_c, 7, 79, 127
2, 74022, Note_off_c, 11, 46, 127
2, 74025, Note_on_c, 5, 77, 127
2, 74025, Note_on_c, 10, 45, 127
2, 74182, Note_off_c, 5, 77, 127
2, 74184, Note_on_c, 2, 74, 127
2, 74341, Note_off_c, 2, 74, 127
2, 74342, Note_off_c, 10, 45, 127
2, 74343, Note_on_c, 3, 75, 127
2, 74343, Note_on_c, 7, 43, 127
2, 74473, Note_off_c, 3, 75, 127
2, 74500, Note_off_c, 7, 43, 127
2, 74504, Note_on_c, 10, 81, 127
2, 74504, Note_on_c, 5, 41, 127
2, 74661, Note_off_c, 10, 81, 127
2, 74663, Note_on_c, 5, 77, 127
2, 74820, Note_off_c, 5, 77, 127
2, 74821, Note_off_c, 5, 41, 127
2, 74822, Note_on_c, 7, 79, 127
2, 74822, Note_on_c, 0, 48, 127
2, 74952, Note_off_c, 7, 79, 127
2, 74979, Note_off_c, 0, 48, 127
2, 74983, Note_on_c, 10, 81, 127
2, 74983, Note_on_c, 5, 53, 127
2, 75140, Note_off_c, 10, 81, 127
2, 75142, Note_on_c, 11, 82, 127
2, 75299, Note_off_c, 11, 82, 127
2, 75300, Note_off_c, 5, 53, 127
2, 75301, Note_on_c, 0, 84, 127
2, 75301, Note_on_c, 7, 55, 127
2, 75431, Note_off_c, 0, 84, 127
2, 75458, Note_off_c, 7, 55, 127
2, 75462, Note_on_c, 3, 75, 127
2, 75462, Note_on_c, 10, 57, 127
2, 75619, Note_off_c, 3, 75, 127
2, 75621, Note_on_c, 0, 72, 127
2, 75778, Note_off_c, 0, 72, 127
2, 75779, Note_off_c, 10, 57, 127
2, 75780, Note_on_c, 2, 74, 127
2, 75780, Note_on_c, 5, 53, 127
2, 75910, Note_off_c, 2, 74, 127
2, 75937, Note_off_c, 5, 53, 127
2, 75940, Note_on_c, 2, 74, 127
2, 75940, Note_on_c, 11, 58, 127
2, 76097, Note_off_c, 2, 74, 127
2, 76099, Note_on_c, 10, 69, 127
2, 76256, Note_off_c, 10, 69, 127
2, 76257, Note_off_c, 11, 58, 127
2, 76258, Note_on_c, 11, 70, 127
2, 76258, Note_on_c, 7, 55, 127
2, 76388, Note_off_c, 11, 70, 127
2, 76415, Note_off_c, 7, 55, 127
2, 76419, Note_on_c, 11, 70, 127
2, 76419, Note_on_c, 3, 51, 127
2, 76576, Note_off_c, 11, 70, 127
2, 76578, Note_on_c, 7, 67, 127
2, 76735, Note_off_c, 7, 67, 127
2, 76736, Note_off_c, 3, 51, 127
2, 76737, Note_on_c, 10, 69, 127
2, 76737, Note_on_c, 0, 48, 127
2, 76867, Note_off_c, 10, 69, 127
2, 76894, Note_off_c, 0, 48, 127
2, 76898, Note_on_c, 11, 70, 127
2, 76898, Note_on_c, 5, 53, 127
2, 76955, Note_off_c, 11, 70, 127
2, 76958, Note_on_c, 10, 69, 127
2, 77015, Note_off_c, 10, 69, 127
2, 77017, Note_on_c, 11, 70, 127
2, 77074, Note_off_c, 11, 70, 127
2, 77077, Note_on_c, 10, 69, 127
2, 77215, Note_off_c, 5, 53, 127
2, 77216, Note_on_c, 11, 70, 127
2, 77216, Note_on_c, 5, 41, 127
2, 77219, Note_off_c, 10, 69, 127
2, 77373, Note_off_c, 5, 41, 127
2, 77373, Note_off_c, 11, 70, 127
2, 77377, Note_on_c, 11, 70, 127
2, 77377, Note_on_c, 11, 46, 127
2, 77534, Note_off_c, 11, 46, 127
2, 77535, Note_on_c, 2, 50, 127
2, 77692, Note_off_c, 2, 50, 127
2, 77694, Note_on_c, 5, 53, 127
2, 77851, Note_off_c, 5, 53, 127
2, 77855, Note_on_c, 11, 58, 127
2, 78012, Note_off_c, 11, 70, 127
2, 78014, Note_on_c, 2, 62, 127
2, 78171, Note_off_c, 2, 62, 127
2, 78172, Note_off_c, 11, 58, 127
2, 78173, Note_on_c, 3, 63, 127
2, 78173, Note_on_c, 0, 48, 127
2, 78303, Note_off_c, 3, 63, 127
2, 78330, Note_off_c, 0, 48, 127
2, 78334, Note_on_c, 5, 65, 127
2, 78334, Note_on_c, 2, 50, 127
2, 78491, Note_off_c, 5, 65, 127
2, 78493, Note_on_c, 7, 67, 127
2, 78650, Note_off_c, 7, 67, 127
2, 78651, Note_off_c, 2, 50, 127
2, 78652, Note_on_c, 8, 68, 127
2, 78652, Note_on_c, 11, 46, 127
2, 78782, Note_off_c, 8, 68, 127
2, 78809, Note_off_c, 11, 46, 127
2, 78813, Note_on_c, 7, 67, 127
2, 78813, Note_on_c, 3, 51, 127
2, 78972, Note_on_c, 2, 62, 127
2, 79129, Note_off_c, 2, 62, 127
2, 79130, Note_off_c, 3, 51, 127
2, 79131, Note_on_c, 3, 63, 127
2, 79131, Note_on_c, 0, 48, 127
2, 79261, Note_off_c, 3, 63, 127
2, 79288, Note_off_c, 0, 48, 127
2, 79291, Note_on_c, 0, 60, 127
2, 79291, Note_on_c, 5, 53, 127
2, 79448, Note_off_c, 0, 60, 127
2, 79448, Note_off_c, 7, 67, 127
2, 79450, Note_on_c, 11, 70, 127
2, 79607, Note_off_c, 11, 70, 127
2, 79608, Note_off_c, 5, 53, 127
2, 79609, Note_on_c, 10, 69, 127
2, 79609, Note_on_c, 2, 50, 127
2, 79739, Note_off_c, 10, 69, 127
2, 79766, Note_off_c, 2, 50, 127
2, 79770, Note_on_c, 11, 70, 127
2, 79770, Note_on_c, 7, 55, 127
2, 79929, Note_on_c, 5, 65, 127
2, 80086, Note_off_c, 5, 65, 127
2, 80087, Note_off_c, 7, 55, 127
2, 80088, Note_on_c, 7, 67, 127
2, 80088, Note_on_c, 3, 51, 127
2, 80218, Note_off_c, 7, 67, 127
2, 80245, Note_off_c, 3, 51, 127
2, 80249, Note_on_c, 3, 63, 127
2, 80249, Note_on_c, 10, 57, 127
2, 80405, Note_off_c, 11, 70, 127
2, 80406, Note_off_c, 3, 63, 127
2, 80408, Note_on_c, 2, 74, 127
2, 80565, Note_off_c, 2, 74, 127
2, 80566, Note_off_c, 10, 57, 127
2, 80567, Note_on_c, 0, 72, 127
2, 80567, Note_on_c, 5, 53, 127
2, 80697, Note_off_c, 0, 72, 127
2, 80724, Note_off_c, 5, 53, 127
2, 80728, Note_on_c, 2, 74, 127
2, 80728, Note_on_c, 11, 58, 127
2, 80885, Note_off_c, 2, 74, 127
2, 80886, Note_on_c, 3, 75, 127
2, 81043, Note_off_c, 3, 75, 127
2, 81045, Note_off_c, 11, 58, 127
2, 81045, Note_on_c, 5, 77, 127
2, 81045, Note_on_c, 3, 51, 127
2, 81175, Note_off_c, 5, 77, 127
2, 81202, Note_off_c, 3, 51, 127
2, 81206, Note_on_c, 5, 65, 127
2, 81206, Note_on_c, 5, 53, 127
2, 81363, Note_off_c, 5, 65, 127
2, 81365, Note_on_c, 11, 70, 127
2, 81522, Note_off_c, 11, 70, 127
2, 81523, Note_off_c, 5, 53, 127
2, 81524, Note_on_c, 10, 69, 127
2, 81524, Note_on_c, 5, 41, 127
2, 81654, Note_off_c, 10, 69, 127
2, 81681, Note_off_c, 5, 41, 127
2, 81685, Note_on_c, 11, 70, 127
2, 81685, Note_on_c, 11, 46, 127
2, 81844, Note_on_c, 5, 65, 127
2, 82001, Note_off_c, 5, 65, 127
2, 82003, Note_on_c, 2, 62, 127
2, 82133, Note_off_c, 2, 62, 127
2, 82161, Note_off_c, 11, 70, 127
2, 82164, Note_on_c, 11, 58, 127
2, 82320, Note_off_c, 11, 46, 127
2, 82323, Note_on_c, 5, 53, 127
2, 82480, Note_off_c, 5, 53, 127
2, 82482, Note_on_c, 2, 50, 127
2, 82639, Note_off_c, 2, 50, 127
2, 82642, Note_on_c, 11, 46, 127
2, 82960, Note_off_c, 11, 58, 127
2, 82960, Note_on_c, 2, 74, 127
2, 83117, Note_off_c, 2, 74, 127
2, 83118, Note_off_c, 11, 46, 127
2, 83121, Note_on_c, 2, 74, 127
2, 83121, Note_on_c, 11, 46, 127
2, 83278, Note_off_c, 11, 46, 127
2, 83280, Note_on_c, 2, 50, 127
2, 83437, Note_off_c, 2, 50, 127
2, 83439, Note_on_c, 5, 53, 127
2, 83596, Note_off_c, 5, 53, 127
2, 83600, Note_on_c, 11, 58, 127
2, 83756, Note_off_c, 2, 74, 127
2, 83757, Note_off_c, 11, 58, 127
2, 83759, Note_on_c, 5, 77, 127
2, 83759, Note_on_c, 2, 62, 127
2, 83916, Note_off_c, 2, 62, 127
2, 83916, Note_off_c, 5, 77, 127
2, 83918, Note_on_c, 3, 75, 127
2, 83918, Note_on_c, 5, 65, 127
2, 84048, Note_off_c, 3, 75, 127
2, 84075, Note_off_c, 5, 65, 127
2, 84079, Note_on_c, 2, 74, 127
2, 84079, Note_on_c, 11, 70, 127
2, 84236, Note_off_c, 11, 70, 127
2, 84236, Note_off_c, 2, 74, 127
2, 84238, Note_on_c, 0, 72, 127
2, 84238, Note_on_c, 8, 68, 127
2, 84395, Note_off_c, 8, 68, 127
2, 84395, Note_off_c, 0, 72, 127
2, 84396, Note_on_c, 11, 70, 127
2, 84396, Note_on_c, 7, 67, 127
2, 84526, Note_off_c, 11, 70, 127
2, 84553, Note_off_c, 7, 67, 127
2, 84557, Note_on_c, 8, 80, 127
2, 84557, Note_on_c, 5, 65, 127
2, 84714, Note_off_c, 8, 80, 127
2, 84716, Note_on_c, 5, 77, 127
2, 84873, Note_off_c, 5, 77, 127
2, 84875, Note_on_c, 7, 79, 127
2, 85005, Note_off_c, 7, 79, 127
2, 85036, Note_on_c, 12, 71, 127
2, 85192, Note_off_c, 5, 65, 127
2, 85195, Note_on_c, 7, 67, 127
2, 85352, Note_off_c, 7, 67, 127
2, 85354, Note_on_c, 8, 68, 127
2, 85484, Note_off_c, 8, 68, 127
2, 85515, Note_on_c, 7, 67, 127
2, 85671, Note_off_c, 12, 71, 127
2, 85674, Note_on_c, 0, 72, 127
2, 85831, Note_off_c, 0, 72, 127
2, 85832, Note_off_c, 7, 67, 127
2, 85833, Note_on_c, 2, 74, 127
2, 85833, Note_on_c, 5, 65, 127
2, 85963, Note_off_c, 2, 74, 127
2, 85990, Note_off_c, 5, 65, 127
2, 85993, Note_on_c, 0, 72, 127
2, 85993, Note_on_c, 3, 63, 127
2, 86150, Note_off_c, 0, 72, 127
2, 86152, Note_on_c, 11, 70, 127
2, 86309, Note_off_c, 11, 70, 127
2, 86310, Note_off_c, 3, 63, 127
2, 86311, Note_on_c, 8, 68, 127
2, 86311, Note_on_c, 0, 60, 127
2, 86441, Note_off_c, 8, 68, 127
2, 86468, Note_off_c, 0, 60, 127
2, 86472, Note_on_c, 7, 67, 127
2, 86472, Note_on_c, 8, 56, 127
2, 86629, Note_off_c, 7, 67, 127
2, 86631, Note_on_c, 5, 65, 127
2, 86788, Note_off_c, 5, 65, 127
2, 86789, Note_off_c, 8, 56, 127
2, 86790, Note_on_c, 3, 63, 127
2, 86790, Note_on_c, 5, 53, 127
2, 86920, Note_off_c, 3, 63, 127
2, 86947, Note_off_c, 5, 53, 127
2, 86951, Note_on_c, 2, 62, 127
2, 86951, Note_on_c, 7, 55, 127
2, 87108, Note_off_c, 2, 62, 127
2, 87110, Note_on_c, 3, 63, 127
2, 87267, Note_off_c, 3, 63, 127
2, 87268, Note_off_c, 7, 55, 127
2, 87269, Note_on_c, 5, 65, 127
2, 87269, Note_on_c, 7, 43, 127
2, 87399, Note_off_c, 5, 65, 127
2, 87426, Note_off_c, 7, 43, 127
2, 87430, Note_on_c, 5, 65, 127
2, 87430, Note_on_c, 0, 48, 127
2, 87587, Note_off_c, 5, 65, 127
2, 87589, Note_on_c, 2, 62, 127
2, 87746, Note_off_c, 2, 62, 127
2, 87747, Note_off_c, 0, 48, 127
2, 87748, Note_on_c, 3, 63, 127
2, 87748, Note_on_c, 7, 43, 127
2, 87878, Note_off_c, 3, 63, 127
2, 87905, Note_off_c, 7, 43, 127
2, 87908, Note_on_c, 0, 60, 127
2, 87908, Note_on_c, 3, 39, 127
2, 88065, Note_off_c, 0, 60, 127
2, 88067, Note_on_c, 3, 63, 127
2, 88224, Note_off_c, 3, 63, 127
2, 88225, Note_off_c, 3, 39, 127
2, 88226, Note_on_c, 7, 67, 127
2, 88226, Note_on_c, 0, 36, 127
2, 88356, Note_off_c, 7, 67, 127
2, 88383, Note_off_c, 0, 36, 127
2, 88387, Note_on_c, 0, 72, 127
2, 88387, Note_on_c, 3, 39, 127
2, 88544, Note_off_c, 0, 72, 127
2, 88546, Note_on_c, 3, 75, 127
2, 88703, Note_off_c, 3, 75, 127
2, 88704, Note_off_c, 3, 39, 127
2, 88705, Note_on_c, 2, 74, 127
2, 88705, Note_on_c, 7, 43, 127
2, 88835, Note_off_c, 2, 74, 127
2, 88862, Note_off_c, 7, 43, 127
2, 88866, Note_on_c, 3, 75, 127
2, 88866, Note_on_c, 0, 48, 127
2, 89023, Note_off_c, 0, 48, 127
2, 89025, Note_on_c, 11, 46, 127
2, 89182, Note_off_c, 11, 46, 127
2, 89184, Note_on_c, 8, 44, 127
2, 89341, Note_off_c, 8, 44, 127
2, 89345, Note_on_c, 7, 43, 127
2, 89501, Note_off_c, 3, 75, 127
2, 89503, Note_on_c, 5, 77, 127
2, 89660, Note_off_c, 5, 77, 127
2, 89662, Note_off_c, 7, 43, 127
2, 89662, Note_on_c, 3, 75, 127
2, 89662, Note_on_c, 11, 46, 127
2, 89792, Note_off_c, 3, 75, 127
2, 89819, Note_off_c, 11, 46, 127
2, 89823, Note_on_c, 1, 73, 127
2, 89823, Note_on_c, 3, 39, 127
2, 89980, Note_off_c, 1, 73, 127
2, 89982, Note_on_c, 0, 72, 127
2, 90139, Note_off_c, 0, 72, 127
2, 90140, Note_off_c, 3, 39, 127
2, 90141, Note_on_c, 11, 70, 127
2, 90141, Note_on_c, 7, 43, 127
2, 90271, Note_off_c, 11, 70, 127
2, 90298, Note_off_c, 7, 43, 127
2, 90302, Note_on_c, 0, 72, 127
2, 90302, Note_on_c, 8, 44, 127
2, 90459, Note_off_c, 0, 72, 127
2, 90461, Note_on_c, 8, 68, 127
2, 90618, Note_off_c, 8, 68, 127
2, 90620, Note_on_c, 11, 70, 127
2, 90750, Note_off_c, 11, 70, 127
2, 90781, Note_on_c, 0, 72, 127
2, 90900, Note_off_c, 8, 44, 127
2, 90938, Note_off_c, 0, 72, 127
2, 90940, Note_on_c, 7, 67, 127
2, 90940, Note_on_c, 11, 46, 127
2, 91097, Note_off_c, 11, 46, 127
2, 91097, Note_off_c, 7, 67, 127
2, 91099, Note_on_c, 8, 68, 127
2, 91099, Note_on_c, 0, 48, 127
2, 91229, Note_off_c, 8, 68, 127
2, 91256, Note_off_c, 0, 48, 127
2, 91259, Note_on_c, 4, 64, 127
2, 91259, Note_on_c, 11, 46, 127
2, 91416, Note_off_c, 4, 64, 127
2, 91418, Note_on_c, 5, 65, 127
2, 91575, Note_off_c, 5, 65, 127
2, 91576, Note_off_c, 11, 46, 127
2, 91577, Note_on_c, 0, 60, 127
2, 91577, Note_on_c, 8, 44, 127
2, 91707, Note_off_c, 0, 60, 127
2, 91734, Note_off_c, 8, 44, 127
2, 91738, Note_on_c, 1, 61, 127
2, 91738, Note_on_c, 7, 43, 127
2, 91895, Note_off_c, 1, 61, 127
2, 91897, Note_on_c, 4, 64, 127
2, 92054, Note_off_c, 4, 64, 127
2, 92055, Note_off_c, 7, 43, 127
2, 92056, Note_on_c, 7, 67, 127
2, 92056, Note_on_c, 5, 41, 127
2, 92186, Note_off_c, 7, 67, 127
2, 92213, Note_off_c, 5, 41, 127
2, 92217, Note_on_c, 11, 70, 127
2, 92217, Note_on_c, 4, 40, 127
2, 92374, Note_off_c, 4, 40, 127
2, 92374, Note_off_c, 11, 70, 127
2, 92376, Note_on_c, 8, 68, 127
2, 92376, Note_on_c, 5, 41, 127
2, 92533, Note_off_c, 5, 41, 127
2, 92533, Note_off_c, 8, 68, 127
2, 92535, Note_on_c, 7, 67, 127
2, 92535, Note_on_c, 7, 43, 127
2, 92665, Note_off_c, 7, 67, 127
2, 92692, Note_off_c, 7, 43, 127
2, 92696, Note_on_c, 1, 73, 127
2, 92696, Note_on_c, 0, 36, 127
2, 92853, Note_off_c, 0, 36, 127
2, 92853, Note_off_c, 1, 73, 127
2, 92854, Note_on_c, 0, 72, 127
2, 92854, Note_on_c, 2, 38, 127
2, 93011, Note_off_c, 2, 38, 127
2, 93011, Note_off_c, 0, 72, 127
2, 93013, Note_on_c, 11, 70, 127
2, 93013, Note_on_c, 4, 40, 127
2, 93143, Note_off_c, 11, 70, 127
2, 93170, Note_off_c, 4, 40, 127
2, 93174, Note_on_c, 8, 68, 127
2, 93174, Note_on_c, 5, 41, 127
2, 93331, Note_off_c, 8, 68, 127
2, 93333, Note_on_c, 5, 65, 127
2, 93490, Note_off_c, 5, 65, 127
2, 93492, Note_on_c, 7, 67, 127
2, 93622, Note_off_c, 7, 67, 127
2, 93653, Note_on_c, 8, 68, 127
2, 93809, Note_off_c, 5, 41, 127
2, 93810, Note_off_c, 8, 68, 127
2, 93812, Note_on_c, 11, 70, 127
2, 93969, Note_off_c, 11, 70, 127
2, 93971, Note_on_c, 0, 72, 127
2, 93971, Note_on_c, 5, 53, 127
2, 94101, Note_off_c, 0, 72, 127
2, 94128, Note_off_c, 5, 53, 127
2, 94132, Note_on_c, 1, 73, 127
2, 94132, Note_on_c, 10, 45, 127
2, 94289, Note_off_c, 1, 73, 127
2, 94291, Note_on_c, 3, 75, 127
2, 94448, Note_off_c, 3, 75, 127
2, 94449, Note_off_c, 10, 45, 127
2, 94450, Note_on_c, 0, 72, 127
2, 94450, Note_on_c, 5, 53, 127
2, 94580, Note_off_c, 0, 72, 127
2, 94607, Note_off_c, 5, 53, 127
2, 94610, Note_on_c, 1, 73, 127
2, 94610, Note_on_c, 11, 46, 127
2, 94767, Note_off_c, 1, 73, 127
2, 94769, Note_on_c, 5, 77, 127
2, 94926, Note_off_c, 5, 77, 127
2, 94927, Note_off_c, 11, 46, 127
2, 94928, Note_on_c, 4, 76, 127
2, 94928, Note_on_c, 0, 48, 127
2, 95058, Note_off_c, 4, 76, 127
2, 95085, Note_off_c, 0, 48, 127
2, 95089, Note_on_c, 5, 77, 127
2, 95089, Note_on_c, 1, 49, 127
2, 95246, Note_off_c, 5, 77, 127
2, 95248, Note_on_c, 7, 79, 127
2, 95405, Note_off_c, 7, 79, 127
2, 95406, Note_off_c, 1, 49, 127
2, 95407, Note_on_c, 8, 80, 127
2, 95407, Note_on_c, 0, 48, 127
2, 95537, Note_off_c, 8, 80, 127
2, 95564, Note_off_c, 0, 48, 127
2, 95568, Note_on_c, 7, 79, 127
2, 95568, Note_on_c, 11, 46, 127
2, 95725, Note_off_c, 7, 79, 127
2, 95727, Note_on_c, 4, 76, 127
2, 95884, Note_off_c, 4, 76, 127
2, 95885, Note_off_c, 11, 46, 127
2, 95886, Note_on_c, 5, 77, 127
2, 95886, Note_on_c, 8, 44, 127
2, 96016, Note_off_c, 5, 77, 127
2, 96043, Note_off_c, 8, 44, 127
2, 96047, Note_on_c, 11, 82, 127
2, 96047, Note_on_c, 7, 43, 127
2, 96204, Note_off_c, 11, 82, 127
2, 96206, Note_on_c, 7, 79, 127
2, 96346, Note_off_c, 7, 43, 127
2, 96363, Note_off_c, 7, 79, 127
2, 96364, Note_on_c, 5, 77, 127
2, 96364, Note_on_c, 8, 56, 127
2, 96494, Note_off_c, 5, 77, 127
2, 96521, Note_off_c, 8, 56, 127
2, 96525, Note_on_c, 4, 76, 127
2, 96525, Note_on_c, 7, 55, 127
2, 96682, Note_off_c, 4, 76, 127
2, 96684, Note_on_c, 5, 77, 127
2, 96841, Note_off_c, 5, 77, 127
2, 96842, Note_off_c, 7, 55, 127
2, 96843, Note_on_c, 7, 79, 127
2, 96843, Note_on_c, 5, 53, 127
2, 96973, Note_off_c, 7, 79, 127
2, 97000, Note_off_c, 5, 53, 127
2, 97004, Note_on_c, 1, 73, 127
2, 97004, Note_on_c, 4, 52, 127
2, 97161, Note_off_c, 1, 73, 127
2, 97163, Note_on_c, 11, 70, 127
2, 97320, Note_off_c, 11, 70, 127
2, 97321, Note_off_c, 4, 52, 127
2, 97322, Note_on_c, 0, 72, 127
2, 97322, Note_on_c, 0, 48, 127
2, 97452, Note_off_c, 0, 72, 127
2, 97479, Note_off_c, 0, 48, 127
2, 97483, Note_on_c, 0, 72, 127
2, 97483, Note_on_c, 8, 56, 127
2, 97640, Note_off_c, 0, 72, 127
2, 97642, Note_on_c, 4, 64, 127
2, 97799, Note_off_c, 4, 64, 127
2, 97800, Note_off_c, 8, 56, 127
2, 97801, Note_on_c, 5, 65, 127
2, 97801, Note_on_c, 5, 53, 127
2, 97931, Note_off_c, 5, 65, 127
2, 97958, Note_off_c, 5, 53, 127
2, 97961, Note_on_c, 1, 73, 127
2, 97961, Note_on_c, 11, 58, 127
2, 98118, Note_off_c, 1, 73, 127
2, 98120, Note_on_c, 0, 72, 127
2, 98277, Note_off_c, 0, 72, 127
2, 98278, Note_off_c, 11, 58, 127
2, 98279, Note_on_c, 11, 70, 127
2, 98279, Note_on_c, 1, 61, 127
2, 98409, Note_off_c, 11, 70, 127
2, 98436, Note_off_c, 1, 61, 127
2, 98440, Note_on_c, 8, 68, 127
2, 98440, Note_on_c, 0, 60, 127
2, 98597, Note_off_c, 8, 68, 127
2, 98599, Note_on_c, 11, 70, 127
2, 98756, Note_off_c, 11, 70, 127
2, 98757, Note_off_c, 0, 60, 127
2, 98758, Note_on_c, 7, 67, 127
2, 98758, Note_on_c, 0, 48, 127
2, 98888, Note_off_c, 7, 67, 127
2, 98915, Note_off_c, 0, 48, 127
2, 98919, Note_on_c, 5, 65, 127
2, 98919, Note_on_c, 5, 53, 127
2, 99076, Note_off_c, 5, 53, 127
2, 99078, Note_on_c, 0, 48, 127
2, 99235, Note_off_c, 0, 48, 127
2, 99237, Note_on_c, 8, 44, 127
2, 99394, Note_off_c, 8, 44, 127
2, 99398, Note_on_c, 5, 41, 127
2, 99405, Note_off_c, 5, 65, 127
2, 99557, Note_on_c, 8, 68, 127
2, 99697, Note_off_c, 5, 41, 127
2, 99714, Note_off_c, 8, 68, 127
2, 99716, Note_on_c, 7, 67, 127
2, 99716, Note_on_c, 0, 48, 127
2, 99846, Note_off_c, 7, 67, 127
2, 99873, Note_off_c, 0, 48, 127
2, 99876, Note_on_c, 8, 68, 127
2, 99876, Note_on_c, 5, 53, 127
2, 100033, Note_off_c, 5, 53, 127
2, 100033, Note_off_c, 8, 68, 127
2, 100035, Note_on_c, 11, 70, 127
2, 100035, Note_on_c, 7, 55, 127
2, 100192, Note_off_c, 7, 55, 127
2, 100192, Note_off_c, 11, 70, 127
2, 100194, Note_on_c, 0, 72, 127
2, 100194, Note_on_c, 8, 56, 127
2, 100324, Note_off_c, 0, 72, 127
2, 100351, Note_off_c, 8, 56, 127
2, 100355, Note_on_c, 2, 62, 127
2, 100355, Note_on_c, 11, 58, 127
2, 100512, Note_off_c, 2, 62, 127
2, 100514, Note_on_c, 3, 63, 127
2, 100671, Note_off_c, 3, 63, 127
2, 100673, Note_on_c, 5, 65, 127
2, 100803, Note_off_c, 5, 65, 127
2, 100818, Note_off_c, 11, 58, 127
2, 100834, Note_on_c, 11, 58, 127
2, 100991, Note_off_c, 11, 58, 127
2, 100993, Note_on_c, 2, 62, 127
2, 100993, Note_on_c, 5, 53, 127
2, 101150, Note_off_c, 5, 53, 127
2, 101150, Note_off_c, 2, 62, 127
2, 101152, Note_on_c, 5, 65, 127
2, 101152, Note_on_c, 2, 50, 127
2, 101282, Note_off_c, 5, 65, 127
2, 101309, Note_off_c, 2, 50, 127
2, 101313, Note_on_c, 8, 68, 127
2, 101313, Note_on_c, 11, 46, 127
2, 101470, Note_off_c, 11, 46, 127
2, 101470, Note_off_c, 8, 68, 127
2, 101471, Note_on_c, 7, 67, 127
2, 101471, Note_on_c, 0, 48, 127
2, 101628, Note_off_c, 0, 48, 127
2, 101628, Note_off_c, 7, 67, 127
2, 101630, Note_on_c, 5, 65, 127
2, 101630, Note_on_c, 2, 50, 127
2, 101760, Note_off_c, 5, 65, 127
2, 101787, Note_off_c, 2, 50, 127
2, 101791, Note_on_c, 7, 67, 127
2, 101791, Note_on_c, 3, 51, 127
2, 101948, Note_off_c, 7, 67, 127
2, 101950, Note_on_c, 8, 68, 127
2, 102107, Note_off_c, 8, 68, 127
2, 102109, Note_on_c, 11, 70, 127
2, 102239, Note_off_c, 11, 70, 127
2, 102270, Note_on_c, 3, 63, 127
2, 102389, Note_off_c, 3, 51, 127
2, 102427, Note_off_c, 3, 63, 127
2, 102429, Note_on_c, 7, 67, 127
2, 102429, Note_on_c, 11, 46, 127
2, 102586, Note_off_c, 11, 46, 127
2, 102586, Note_off_c, 7, 67, 127
2, 102588, Note_on_c, 11, 70, 127
2, 102588, Note_on_c, 7, 43, 127
2, 102718, Note_off_c, 11, 70, 127
2, 102745, Note_off_c, 7, 43, 127
2, 102749, Note_on_c, 1, 73, 127
2, 102749, Note_on_c, 3, 39, 127
2, 102906, Note_off_c, 3, 39, 127
2, 102906, Note_off_c, 1, 73, 127
2, 102908, Note_on_c, 0, 72, 127
2, 102908, Note_on_c, 5, 41, 127
2, 103065, Note_off_c, 5, 41, 127
2, 103065, Note_off_c, 0, 72, 127
2, 103067, Note_on_c, 11, 70, 127
2, 103067, Note_on_c, 7, 43, 127
2, 103197, Note_off_c, 11, 70, 127
2, 103224, Note_off_c, 7, 43, 127
2, 103227, Note_on_c, 0, 72, 127
2, 103227, Note_on_c, 8, 44, 127
2, 103384, Note_off_c, 0, 72, 127
2, 103386, Note_on_c, 5, 77, 127
2, 103543, Note_off_c, 5, 77, 127
2, 103545, Note_on_c, 4, 76, 127
2, 103675, Note_off_c, 4, 76, 127
2, 103706, Note_on_c, 5, 77, 127
2, 103806, Note_off_c, 8, 44, 127
2, 103863, Note_off_c, 5, 77, 127
2, 103865, Note_on_c, 7, 79, 127
2, 103865, Note_on_c, 7, 43, 127
2, 104022, Note_off_c, 7, 43, 127
2, 104022, Note_off_c, 7, 79, 127
2, 104024, Note_on_c, 8, 80, 127
2, 104024, Note_on_c, 5, 41, 127
2, 104154, Note_off_c, 8, 80, 127
2, 104181, Note_off_c, 5, 41, 127
2, 104185, Note_on_c, 0, 72, 127
2, 104185, Note_on_c, 8, 44, 127
2, 104342, Note_off_c, 8, 44, 127
2, 104342, Note_off_c, 0, 72, 127
2, 104344, Note_on_c, 2, 74, 127
2, 104344, Note_on_c, 7, 43, 127
2, 104501, Note_off_c, 7, 43, 127
2, 104501, Note_off_c, 2, 74, 127
2, 104503, Note_on_c, 3, 75, 127
2, 104503, Note_on_c, 5, 41, 127
2, 104633, Note_off_c, 3, 75, 127
2, 104660, Note_off_c, 5, 41, 127
2, 104664, Note_on_c, 3, 75, 127
2, 104664, Note_on_c, 11, 46, 127
2, 104821, Note_off_c, 3, 75, 127
2, 104822, Note_on_c, 0, 72, 127
2, 104979, Note_off_c, 0, 72, 127
2, 104981, Note_off_c, 11, 46, 127
2, 104981, Note_on_c, 2, 74, 127
2, 104981, Note_on_c, 0, 60, 127
2, 105111, Note_off_c, 2, 74, 127
2, 105138, Note_off_c, 0, 60, 127
2, 105142, Note_on_c, 8, 80, 127
2, 105142, Note_on_c, 11, 58, 127
2, 105299, Note_off_c, 8, 80, 127
2, 105301, Note_on_c, 7, 79, 127
2, 105458, Note_off_c, 7, 79, 127
2, 105459, Note_off_c, 11, 58, 127
2, 105460, Note_on_c, 5, 77, 127
2, 105460, Note_on_c, 8, 56, 127
2, 105590, Note_off_c, 5, 77, 127
2, 105617, Note_off_c, 8, 56, 127
2, 105621, Note_on_c, 0, 84, 127
2, 105621, Note_on_c, 7, 55, 127
2, 105778, Note_off_c, 0, 84, 127
2, 105780, Note_on_c, 11, 82, 127
2, 105937, Note_off_c, 11, 82, 127
2, 105938, Note_off_c, 7, 55, 127
2, 105939, Note_on_c, 8, 80, 127
2, 105939, Note_on_c, 5, 53, 127
2, 106069, Note_off_c, 8, 80, 127
2, 106096, Note_off_c, 5, 53, 127
2, 106100, Note_on_c, 7, 79, 127
2, 106100, Note_on_c, 3, 51, 127
2, 106257, Note_off_c, 7, 79, 127
2, 106259, Note_on_c, 2, 74, 127
2, 106416, Note_off_c, 2, 74, 127
2, 106418, Note_on_c, 3, 75, 127
2, 106548, Note_off_c, 3, 75, 127
2, 106578, Note_on_c, 11, 70, 127
2, 106698, Note_off_c, 3, 51, 127
2, 106735, Note_off_c, 11, 70, 127
2, 106737, Note_on_c, 0, 72, 127
2, 106737, Note_on_c, 1, 49, 127
2, 106894, Note_off_c, 1, 49, 127
2, 106894, Note_off_c, 0, 72, 127
2, 106896, Note_on_c, 1, 73, 127
2, 106896, Note_on_c, 0, 48, 127
2, 107026, Note_off_c, 1, 73, 127
2, 107053, Note_off_c, 0, 48, 127
2, 107057, Note_on_c, 7, 67, 127
2, 107057, Note_on_c, 11, 46, 127
2, 107135, Note_off_c, 7, 67, 127
2, 107136, Note_on_c, 8, 68, 127
2, 107214, Note_off_c, 8, 68, 127
2, 107214, Note_off_c, 11, 46, 127
2, 107216, Note_on_c, 11, 70, 127
2, 107216, Note_on_c, 8, 44, 127
2, 107373, Note_off_c, 8, 44, 127
2, 107373, Note_off_c, 11, 70, 127
2, 107377, Note_on_c, 7, 43, 127
2, 107377, Note_on_c, 1, 61, 127
2, 107511, Note_off_c, 1, 61, 127
2, 107537, Note_off_c, 7, 43, 127
2, 107541, Note_on_c, 8, 44, 127
2, 107541, Note_on_c, 0, 60, 127
2, 107706, Note_on_c, 7, 55, 127
2, 107866, Note_off_c, 7, 55, 127
2, 107868, Note_off_c, 8, 44, 127
2, 107869, Note_on_c, 5, 41, 127
2, 107869, Note_on_c, 8, 56, 127
2, 108003, Note_off_c, 8, 56, 127
2, 108029, Note_off_c, 5, 41, 127
2, 108035, Note_on_c, 5, 53, 127
2, 108035, Note_on_c, 11, 46, 127
2, 108195, Note_off_c, 0, 60, 127
2, 108199, Note_off_c, 5, 53, 127
2, 108203, Note_on_c, 3, 63, 127
2, 108367, Note_off_c, 3, 63, 127
2, 108371, Note_off_c, 11, 46, 127
2, 108372, Note_on_c, 2, 62, 127
2, 108372, Note_on_c, 7, 43, 127
2, 108510, Note_off_c, 2, 62, 127
2, 108536, Note_off_c, 7, 43, 127
2, 108542, Note_on_c, 3, 63, 127
2, 108542, Note_on_c, 0, 48, 127
2, 108712, Note_on_c, 11, 58, 127
2, 108876, Note_off_c, 11, 58, 127
2, 108878, Note_off_c, 0, 48, 127
2, 108880, Note_on_c, 8, 44, 127
2, 108880, Note_on_c, 0, 60, 127
2, 109022, Note_off_c, 0, 60, 127
2, 109048, Note_off_c, 8, 44, 127
2, 109056, Note_on_c, 2, 50, 127
2, 109056, Note_on_c, 8, 56, 127
2, 109215, Note_off_c, 3, 63, 127
2, 109224, Note_off_c, 8, 56, 127
2, 109232, Note_on_c, 7, 67, 127
2, 109400, Note_off_c, 7, 67, 127
2, 109401, Note_off_c, 2, 50, 127
2, 109402, Note_on_c, 11, 46, 127
2, 109402, Note_on_c, 5, 65, 127
2, 109544, Note_off_c, 5, 65, 127
2, 109570, Note_off_c, 11, 46, 127
2, 109580, Note_on_c, 7, 67, 127
2, 109580, Note_on_c, 3, 51, 127
2, 109752, Note_off_c, 7, 67, 127
2, 109759, Note_on_c, 8, 68, 127
2, 109931, Note_off_c, 8, 68, 127
2, 109935, Note_off_c, 3, 51, 127
2, 109937, Note_on_c, 11, 70, 127
2, 109937, Note_on_c, 8, 44, 127
2, 110082, Note_off_c, 11, 70, 127
2, 110109, Note_off_c, 8, 44, 127
2, 110116, Note_on_c, 11, 58, 127
2, 110116, Note_on_c, 11, 46, 127
2, 110288, Note_off_c, 11, 58, 127
2, 110298, Note_on_c, 3, 63, 127
2, 110470, Note_off_c, 3, 63, 127
2, 110471, Note_off_c, 11, 46, 127
2, 110477, Note_on_c, 2, 62, 127
2, 110477, Note_on_c, 11, 46, 127
2, 110630, Note_off_c, 2, 62, 127
2, 110656, Note_off_c, 11, 46, 127
2, 110668, Note_on_c, 3, 63, 127
2, 110668, Note_on_c, 3, 51, 127
2, 110861, Note_on_c, 11, 58, 127
2, 111040, Note_off_c, 11, 58, 127
2, 111050, Note_on_c, 7, 55, 127
2, 111227, Note_off_c, 3, 51, 127
2, 111227, Note_off_c, 3, 63, 127
2, 111229, Note_off_c, 7, 55, 127
2, 111240, Note_on_c, 3, 51, 127
2, 111437, Note_on_c, 11, 46, 127
2, 111620, Note_off_c, 11, 46, 127
2, 111633, Note_on_c, 7, 43, 127
2, 111816, Note_off_c, 7, 43, 127
2, 111874, Note_on_c, 3, 39, 127
2, 113940, Note_off_c, 3, 51, 127
2, 114104, Note_off_c, 3, 39, 127
2, 115890, Note_on_c, 3, 51, 127
2, 115890, Note_on_c, 7, 67, 127
2, 116243, Note_off_c, 7, 67, 127
2, 116243, Note_off_c, 3, 51, 127
2, 116244, Note_on_c, 3, 63, 127
2, 116244, Note_on_c, 8, 68, 127
2, 116419, Note_off_c, 8, 68, 127
2, 116421, Note_on_c, 11, 70, 127
2, 116596, Note_off_c, 11, 70, 127
2, 116597, Note_off_c, 3, 63, 127
2, 116599, Note_on_c, 1, 61, 127
2, 116599, Note_on_c, 11, 70, 127
2, 116599, Note_on_c, 7, 67, 127
2, 116774, Note_off_c, 11, 70, 127
2, 116777, Note_on_c, 8, 68, 127
2, 116952, Note_off_c, 8, 68, 127
2, 116952, Note_off_c, 1, 61, 127
2, 116954, Note_on_c, 0, 60, 127
2, 116954, Note_on_c, 11, 70, 127
2, 117305, Note_off_c, 0, 60, 127
2, 117308, Note_on_c, 11, 58, 127
2, 117659, Note_off_c, 11, 58, 127
2, 117661, Note_on_c, 8, 56, 127
2, 117945, Note_off_c, 7, 67, 127
2, 117967, Note_off_c, 11, 70, 127
2, 118014, Note_off_c, 8, 56, 127
2, 118016, Note_on_c, 7, 55, 127
2, 118016, Note_on_c, 11, 70, 127
2, 118367, Note_off_c, 11, 70, 127
2, 118367, Note_off_c, 7, 55, 127
2, 118370, Note_on_c, 5, 53, 127
2, 118370, Note_on_c, 0, 72, 127
2, 118545, Note_off_c, 0, 72, 127
2, 118548, Note_on_c, 1, 73, 127
2, 118723, Note_off_c, 1, 73, 127
2, 118723, Note_off_c, 5, 53, 127
2, 118725, Note_on_c, 3, 51, 127
2, 118725, Note_on_c, 7, 67, 127
2, 118903, Note_on_c, 11, 70, 127
2, 119078, Note_off_c, 3, 51, 127
2, 119081, Note_on_c, 1, 49, 127
2, 119081, Note_on_c, 1, 73, 127
2, 119432, Note_off_c, 1, 49, 127
2, 119434, Note_on_c, 0, 48, 127
2, 119785, Note_off_c, 0, 48, 127
2, 119787, Note_on_c, 11, 46, 127
2, 119977, Note_off_c, 7, 67, 127
2, 120043, Note_off_c, 11, 70, 127
2, 120092, Note_off_c, 1, 73, 127
2, 120138, Note_off_c, 11, 46, 127
2, 120141, Note_on_c, 8, 44, 127
2, 120141, Note_on_c, 0, 72, 127
2, 120492, Note_off_c, 0, 72, 127
2, 120492, Note_off_c, 8, 44, 127
2, 120494, Note_on_c, 11, 46, 127
2, 120494, Note_on_c, 11, 70, 127
2, 120669, Note_off_c, 11, 46, 127
2, 120672, Note_on_c, 0, 48, 127
2, 120847, Note_off_c, 0, 48, 127
2, 120847, Note_off_c, 11, 70, 127
2, 120850, Note_on_c, 0, 48, 127
2, 120850, Note_on_c, 8, 68, 127
2, 121027, Note_on_c, 3, 51, 127
2, 121203, Note_off_c, 8, 68, 127
2, 121205, Note_on_c, 8, 56, 127
2, 121205, Note_on_c, 7, 67, 127
2, 121556, Note_off_c, 7, 67, 127
2, 121558, Note_on_c, 5, 65, 127
2, 121909, Note_off_c, 5, 65, 127
2, 121912, Note_on_c, 3, 63, 127
2, 122067, Note_off_c, 0, 48, 127
2, 122188, Note_off_c, 3, 51, 127
2, 122246, Note_off_c, 8, 56, 127
2, 122265, Note_off_c, 3, 63, 127
2, 122267, Note_on_c, 11, 46, 127
2, 122267, Note_on_c, 2, 62, 127
2, 122618, Note_off_c, 2, 62, 127
2, 122618, Note_off_c, 11, 46, 127
2, 122620, Note_on_c, 0, 48, 127
2, 122620, Note_on_c, 5, 65, 127
2, 122795, Note_off_c, 0, 48, 127
2, 122798, Note_on_c, 2, 50, 127
2, 122973, Note_off_c, 2, 50, 127
2, 122973, Note_off_c, 5, 65, 127
2, 122976, Note_on_c, 2, 50, 127
2, 122976, Note_on_c, 8, 68, 127
2, 123153, Note_on_c, 5, 53, 127
2, 123329, Note_off_c, 8, 68, 127
2, 123331, Note_on_c, 11, 58, 127
2, 123331, Note_on_c, 0, 72, 127
2, 123682, Note_off_c, 0, 72, 127
2, 123684, Note_on_c, 11, 70, 127
2, 124035, Note_off_c, 11, 70, 127
2, 124038, Note_on_c, 8, 68, 127
2, 124193, Note_off_c, 2, 50, 127
2, 124314, Note_off_c, 5, 53, 127
2, 124372, Note_off_c, 11, 58, 127
2, 124391, Note_off_c, 8, 68, 127
2, 124393, Note_on_c, 3, 51, 127
2, 124393, Note_on_c, 7, 67, 127
2, 124744, Note_off_c, 7, 67, 127
2, 124744, Note_off_c, 3, 51, 127
2, 124747, Note_on_c, 5, 53, 127
2, 124747, Note_on_c, 10, 69, 127
2, 124922, Note_off_c, 10, 69, 127
2, 124924, Note_on_c, 11, 70, 127
2, 125099, Note_off_c, 11, 70, 127
2, 125100, Note_off_c, 5, 53, 127
2, 125102, Note_on_c, 3, 51, 127
2, 125102, Note_on_c, 11, 70, 127
2, 125102, Note_on_c, 5, 65, 127
2, 125217, Note_off_c, 11, 70, 127
2, 125220, Note_on_c, 10, 69, 127
2, 125335, Note_off_c, 10, 69, 127
2, 125338, Note_on_c, 11, 70, 127
2, 125453, Note_off_c, 11, 70, 127
2, 125453, Note_off_c, 3, 51, 127
2, 125455, Note_on_c, 2, 50, 127
2, 125455, Note_on_c, 10, 69, 127
2, 125806, Note_off_c, 2, 50, 127
2, 125809, Note_on_c, 0, 48, 127
2, 126116, Note_off_c, 10, 69, 127
2, 126160, Note_off_c, 0, 48, 127
2, 126162, Note_on_c, 11, 46, 127
2, 126162, Note_on_c, 11, 70, 127
2, 126513, Note_off_c, 11, 70, 127
2, 126513, Note_off_c, 11, 46, 127
2, 126513, Note_off_c, 5, 65, 127
2, 126516, Note_on_c, 10, 45, 127
2, 126516, Note_on_c, 0, 72, 127
2, 126867, Note_off_c, 0, 72, 127
2, 126867, Note_off_c, 10, 45, 127
2, 126869, Note_on_c, 7, 43, 127
2, 126869, Note_on_c, 2, 74, 127
2, 127044, Note_off_c, 2, 74, 127
2, 127047, Note_on_c, 3, 75, 127
2, 127222, Note_off_c, 3, 75, 127
2, 127222, Note_off_c, 7, 43, 127
2, 127224, Note_on_c, 10, 45, 127
2, 127224, Note_on_c, 5, 65, 127
2, 127575, Note_off_c, 10, 45, 127
2, 127578, Note_on_c, 5, 41, 127
2, 127929, Note_off_c, 5, 41, 127
2, 127931, Note_on_c, 7, 43, 127
2, 128181, Note_off_c, 5, 65, 127
2, 128282, Note_off_c, 7, 43, 127
2, 128285, Note_on_c, 10, 45, 127
2, 128285, Note_on_c, 3, 63, 127
2, 128636, Note_off_c, 3, 63, 127
2, 128636, Note_off_c, 10, 45, 127
2, 128638, Note_on_c, 11, 46, 127
2, 128638, Note_on_c, 2, 62, 127
2, 128813, Note_off_c, 2, 62, 127
2, 128816, Note_on_c, 3, 63, 127
2, 128991, Note_off_c, 3, 63, 127
2, 128991, Note_off_c, 11, 46, 127
2, 128993, Note_on_c, 2, 50, 127
2, 128993, Note_on_c, 5, 65, 127
2, 129168, Note_off_c, 5, 65, 127
2, 129171, Note_on_c, 11, 70, 127
2, 129346, Note_off_c, 11, 70, 127
2, 129346, Note_off_c, 2, 50, 127
2, 129349, Note_on_c, 3, 51, 127
2, 129349, Note_on_c, 7, 67, 127
2, 129524, Note_off_c, 7, 67, 127
2, 129526, Note_on_c, 10, 69, 127
2, 129701, Note_off_c, 10, 69, 127
2, 129702, Note_off_c, 3, 51, 127
2, 129704, Note_on_c, 0, 48, 127
2, 129704, Note_on_c, 11, 70, 127
2, 129879, Note_off_c, 11, 70, 127
2, 129882, Note_on_c, 3, 75, 127
2, 130057, Note_off_c, 3, 75, 127
2, 130057, Note_off_c, 0, 48, 127
2, 130059, Note_on_c, 5, 53, 127
2, 130059, Note_on_c, 2, 74, 127
2, 130234, Note_off_c, 2, 74, 127
2, 130237, Note_on_c, 0, 72, 127
2, 130412, Note_off_c, 0, 72, 127
2, 130412, Note_off_c, 5, 53, 127
2, 130415, Note_on_c, 5, 41, 127
2, 130415, Note_on_c, 11, 70, 127
2, 130590, Note_off_c, 11, 70, 127
2, 130592, Note_on_c, 10, 69, 127
2, 130767, Note_off_c, 10, 69, 127
2, 130768, Note_off_c, 5, 41, 127
2, 130770, Note_on_c, 11, 46, 127
2, 130770, Note_on_c, 11, 70, 127
2, 130948, Note_on_c, 5, 65, 127
2, 131123, Note_off_c, 5, 65, 127
2, 131125, Note_on_c, 7, 67, 127
2, 131300, Note_off_c, 7, 67, 127
2, 131303, Note_on_c, 3, 63, 127
2, 131473, Note_off_c, 11, 70, 127
2, 131478, Note_off_c, 3, 63, 127
2, 131480, Note_on_c, 5, 53, 127
2, 131480, Note_on_c, 2, 62, 127
2, 131658, Note_on_c, 3, 63, 127
2, 131833, Note_off_c, 3, 63, 127
2, 131836, Note_on_c, 5, 65, 127
2, 132013, Note_on_c, 11, 70, 127
2, 132191, Note_on_c, 11, 58, 127
2, 132699, Note_off_c, 2, 62, 127
2, 132795, Note_off_c, 5, 65, 127
2, 132824, Note_off_c, 11, 70, 127
2, 132894, Note_off_c, 11, 46, 127
2, 132895, Note_off_c, 11, 58, 127
2, 132895, Note_off_c, 5, 53, 127
2, 132898, Note_on_c, 11, 58, 127
2, 132898, Note_on_c, 2, 74, 127
2, 133249, Note_off_c, 2, 74, 127
2, 133249, Note_off_c, 11, 58, 127
2, 133251, Note_on_c, 11, 46, 127
2, 133251, Note_on_c, 3, 75, 127
2, 133426, Note_off_c, 3, 75, 127
2, 133429, Note_on_c, 5, 77, 127
2, 133604, Note_off_c, 5, 77, 127
2, 133604, Note_off_c, 11, 46, 127
2, 133607, Note_on_c, 0, 48, 127
2, 133607, Note_on_c, 2, 74, 127
2, 133607, Note_on_c, 5, 77, 127
2, 133782, Note_off_c, 5, 77, 127
2, 133784, Note_on_c, 3, 75, 127
2, 133959, Note_off_c, 3, 75, 127
2, 133960, Note_off_c, 0, 48, 127
2, 133962, Note_on_c, 2, 50, 127
2, 133962, Note_on_c, 5, 77, 127
2, 134313, Note_off_c, 2, 50, 127
2, 134315, Note_on_c, 3, 51, 127
2, 134666, Note_off_c, 3, 51, 127
2, 134669, Note_on_c, 5, 53, 127
2, 134824, Note_off_c, 2, 74, 127
2, 134975, Note_off_c, 5, 77, 127
2, 135022, Note_off_c, 5, 53, 127
2, 135024, Note_on_c, 7, 55, 127
2, 135024, Note_on_c, 4, 76, 127
2, 135375, Note_off_c, 4, 76, 127
2, 135375, Note_off_c, 7, 55, 127
2, 135378, Note_on_c, 8, 56, 127
2, 135378, Note_on_c, 5, 77, 127
2, 135553, Note_off_c, 5, 77, 127
2, 135555, Note_on_c, 7, 79, 127
2, 135730, Note_off_c, 7, 79, 127
2, 135731, Note_off_c, 8, 56, 127
2, 135733, Note_on_c, 11, 58, 127
2, 135733, Note_on_c, 4, 76, 127
2, 135733, Note_on_c, 7, 79, 127
2, 135908, Note_off_c, 7, 79, 127
2, 135911, Note_on_c, 5, 77, 127
2, 136086, Note_off_c, 5, 77, 127
2, 136086, Note_off_c, 11, 58, 127
2, 136088, Note_on_c, 1, 61, 127
2, 136088, Note_on_c, 7, 79, 127
2, 136439, Note_off_c, 1, 61, 127
2, 136442, Note_on_c, 0, 60, 127
2, 136793, Note_off_c, 0, 60, 127
2, 136795, Note_on_c, 11, 58, 127
2, 136950, Note_off_c, 4, 76, 127
2, 137101, Note_off_c, 7, 79, 127
2, 137148, Note_off_c, 11, 58, 127
2, 137150, Note_on_c, 8, 56, 127
2, 137150, Note_on_c, 5, 77, 127
2, 137501, Note_off_c, 5, 77, 127
2, 137501, Note_off_c, 8, 56, 127
2, 137504, Note_on_c, 5, 53, 127
2, 137504, Note_on_c, 7, 79, 127
2, 137679, Note_off_c, 7, 79, 127
2, 137681, Note_on_c, 8, 80, 127
2, 137856, Note_off_c, 8, 80, 127
2, 137857, Note_off_c, 5, 53, 127
2, 137859, Note_on_c, 1, 61, 127
2, 137859, Note_on_c, 11, 70, 127
2, 138210, Note_off_c, 11, 70, 127
2, 138210, Note_off_c, 1, 61, 127
2, 138212, Note_on_c, 0, 60, 127
2, 138212, Note_on_c, 8, 80, 127
2, 138387, Note_off_c, 8, 80, 127
2, 138390, Note_on_c, 7, 79, 127
2, 138565, Note_off_c, 7, 79, 127
2, 138565, Note_off_c, 0, 60, 127
2, 138568, Note_on_c, 11, 58, 127
2, 138568, Note_on_c, 11, 82, 127
2, 138743, Note_off_c, 11, 82, 127
2, 138745, Note_on_c, 8, 80, 127
2, 138920, Note_off_c, 8, 80, 127
2, 138921, Note_off_c, 11, 58, 127
2, 138923, Note_on_c, 1, 61, 127
2, 138923, Note_on_c, 7, 79, 127
2, 139098, Note_off_c, 7, 79, 127
2, 139101, Note_on_c, 5, 77, 127
2, 139276, Note_off_c, 5, 77, 127
2, 139276, Note_off_c, 1, 61, 127
2, 139278, Note_on_c, 0, 60, 127
2, 139278, Note_on_c, 4, 76, 127
2, 139278, Note_on_c, 7, 79, 127
2, 139629, Note_off_c, 7, 79, 127
2, 139629, Note_off_c, 0, 60, 127
2, 139632, Note_on_c, 1, 61, 127
2, 139632, Note_on_c, 8, 80, 127
2, 139807, Note_off_c, 8, 80, 127
2, 139809, Note_on_c, 11, 82, 127
2, 139979, Note_off_c, 4, 76, 127
2, 139984, Note_off_c, 11, 82, 127
2, 139985, Note_off_c, 1, 61, 127
2, 139987, Note_on_c, 0, 60, 127
2, 139987, Note_on_c, 4, 76, 127
2, 140105, Note_on_c, 7, 79, 127
2, 140223, Note_on_c, 11, 82, 127
2, 140338, Note_off_c, 0, 60, 127
2, 140341, Note_on_c, 11, 58, 127
2, 140692, Note_off_c, 11, 58, 127
2, 140694, Note_on_c, 8, 56, 127
2, 141045, Note_off_c, 8, 56, 127
2, 141047, Note_on_c, 7, 55, 127
2, 141202, Note_off_c, 4, 76, 127
2, 141236, Note_off_c, 11, 82, 127
2, 141247, Note_off_c, 7, 79, 127
2, 141400, Note_off_c, 7, 55, 127
2, 141403, Note_on_c, 5, 53, 127
2, 141403, Note_on_c, 8, 80, 127
2, 141754, Note_off_c, 8, 80, 127
2, 141754, Note_off_c, 5, 53, 127
2, 141756, Note_on_c, 7, 55, 127
2, 141756, Note_on_c, 7, 79, 127
2, 141931, Note_off_c, 7, 55, 127
2, 141934, Note_on_c, 8, 56, 127
2, 142109, Note_off_c, 8, 56, 127
2, 142109, Note_off_c, 7, 79, 127
2, 142111, Note_on_c, 1, 49, 127
2, 142111, Note_on_c, 5, 77, 127
2, 142462, Note_off_c, 5, 77, 127
2, 142465, Note_on_c, 3, 75, 127
2, 142816, Note_off_c, 3, 75, 127
2, 142818, Note_on_c, 1, 73, 127
2, 143169, Note_off_c, 1, 73, 127
2, 143169, Note_off_c, 1, 49, 127
2, 143172, Note_on_c, 0, 72, 127
2, 143523, Note_off_c, 0, 72, 127
2, 143525, Note_on_c, 7, 55, 127
2, 143525, Note_on_c, 11, 70, 127
2, 143876, Note_off_c, 11, 70, 127
2, 143876, Note_off_c, 7, 55, 127
2, 143879, Note_on_c, 8, 56, 127
2, 143879, Note_on_c, 8, 68, 127
2, 144054, Note_off_c, 8, 56, 127
2, 144056, Note_on_c, 11, 58, 127
2, 144231, Note_off_c, 11, 58, 127
2, 144232, Note_off_c, 8, 68, 127
2, 144234, Note_on_c, 11, 58, 127
2, 144234, Note_on_c, 7, 67, 127
2, 144585, Note_off_c, 7, 67, 127
2, 144587, Note_on_c, 5, 65, 127
2, 144938, Note_off_c, 5, 65, 127
2, 144941, Note_on_c, 4, 64, 127
2, 145116, Note_off_c, 4, 64, 127
2, 145118, Note_on_c, 5, 65, 127
2, 145293, Note_off_c, 5, 65, 127
2, 145294, Note_off_c, 11, 58, 127
2, 145296, Note_on_c, 7, 67, 127
2, 145471, Note_off_c, 7, 67, 127
2, 145474, Note_on_c, 1, 73, 127
2, 145649, Note_off_c, 1, 73, 127
2, 145651, Note_on_c, 8, 56, 127
2, 145651, Note_on_c, 0, 72, 127
2, 145826, Note_off_c, 0, 72, 127
2, 145829, Note_on_c, 11, 70, 127
2, 146004, Note_off_c, 11, 70, 127
2, 146004, Note_off_c, 8, 56, 127
2, 146007, Note_on_c, 5, 53, 127
2, 146007, Note_on_c, 8, 68, 127
2, 146182, Note_off_c, 8, 68, 127
2, 146184, Note_on_c, 5, 77, 127
2, 146359, Note_off_c, 5, 77, 127
2, 146360, Note_off_c, 5, 53, 127
2, 146362, Note_on_c, 1, 61, 127
2, 146362, Note_on_c, 4, 76, 127
2, 146537, Note_off_c, 4, 76, 127
2, 146540, Note_on_c, 5, 77, 127
2, 146715, Note_off_c, 5, 77, 127
2, 146715, Note_off_c, 1, 61, 127
2, 146717, Note_on_c, 11, 58, 127
2, 146717, Note_on_c, 7, 79, 127
2, 146892, Note_off_c, 7, 79, 127
2, 146895, Note_on_c, 11, 82, 127
2, 147070, Note_off_c, 11, 82, 127
2, 147070, Note_off_c, 11, 58, 127
2, 147073, Note_on_c, 0, 60, 127
2, 147073, Note_on_c, 8, 80, 127
2, 147248, Note_off_c, 8, 80, 127
2, 147250, Note_on_c, 5, 77, 127
2, 147425, Note_off_c, 5, 77, 127
2, 147426, Note_off_c, 0, 60, 127
2, 147428, Note_on_c, 0, 48, 127
2, 147428, Note_on_c, 7, 79, 127
2, 147603, Note_off_c, 7, 79, 127
2, 147605, Note_on_c, 4, 76, 127
2, 147780, Note_off_c, 4, 76, 127
2, 147781, Note_off_c, 0, 48, 127
2, 147783, Note_on_c, 5, 53, 127
2, 147783, Note_on_c, 5, 77, 127
2, 147961, Note_on_c, 11, 70, 127
2, 148136, Note_off_c, 11, 70, 127
2, 148138, Note_on_c, 0, 72, 127
2, 148313, Note_off_c, 0, 72, 127
2, 148316, Note_on_c, 7, 67, 127
2, 148486, Note_off_c, 5, 77, 127
2, 148491, Note_off_c, 7, 67, 127
2, 148494, Note_on_c, 0, 60, 127
2, 148494, Note_on_c, 8, 68, 127
2, 148671, Note_on_c, 11, 70, 127
2, 148846, Note_off_c, 11, 70, 127
2, 148849, Note_on_c, 0, 72, 127
2, 149027, Note_on_c, 5, 77, 127
2, 149204, Note_on_c, 5, 65, 127
2, 149538, Note_off_c, 5, 53, 127
2, 149558, Note_on_c, 3, 51, 127
2, 149713, Note_off_c, 0, 60, 127
2, 149731, Note_off_c, 8, 68, 127
2, 149772, Note_off_c, 0, 72, 127
2, 149794, Note_off_c, 5, 65, 127
2, 149840, Note_off_c, 5, 77, 127
2, 149911, Note_off_c, 3, 51, 127
2, 149913, Note_on_c, 5, 53, 127
2, 149913, Note_on_c, 2, 50, 127
2, 149913, Note_on_c, 8, 80, 127
2, 150264, Note_off_c, 8, 80, 127
2, 150264, Note_off_c, 5, 53, 127
2, 150267, Note_on_c, 7, 55, 127
2, 150267, Note_on_c, 11, 70, 127
2, 150442, Note_off_c, 7, 55, 127
2, 150444, Note_on_c, 8, 56, 127
2, 150614, Note_off_c, 2, 50, 127
2, 150620, Note_off_c, 11, 70, 127
2, 150622, Note_on_c, 11, 46, 127
2, 150622, Note_on_c, 0, 72, 127
2, 150973, Note_off_c, 0, 72, 127
2, 150975, Note_on_c, 2, 74, 127
2, 151326, Note_off_c, 2, 74, 127
2, 151329, Note_on_c, 3, 75, 127
2, 151680, Note_off_c, 3, 75, 127
2, 151682, Note_on_c, 5, 77, 127
2, 151837, Note_off_c, 11, 46, 127
2, 151857, Note_off_c, 8, 56, 127
2, 152035, Note_off_c, 5, 77, 127
2, 152037, Note_on_c, 3, 51, 127
2, 152037, Note_on_c, 7, 79, 127
2, 152388, Note_off_c, 7, 79, 127
2, 152388, Note_off_c, 3, 51, 127
2, 152391, Note_on_c, 3, 63, 127
2, 152391, Note_on_c, 8, 80, 127
2, 152566, Note_off_c, 8, 80, 127
2, 152568, Note_on_c, 11, 82, 127
2, 152743, Note_off_c, 11, 82, 127
2, 152744, Note_off_c, 3, 63, 127
2, 152746, Note_on_c, 1, 61, 127
2, 152746, Note_on_c, 11, 82, 127
2, 153097, Note_off_c, 1, 61, 127
2, 153100, Note_on_c, 0, 60, 127
2, 153451, Note_off_c, 0, 60, 127
2, 153453, Note_on_c, 11, 58, 127
2, 153806, Note_on_c, 8, 56, 127
2, 153978, Note_off_c, 11, 82, 127
2, 154157, Note_off_c, 8, 56, 127
2, 154160, Note_on_c, 7, 55, 127
2, 154160, Note_on_c, 1, 73, 127
2, 154481, Note_off_c, 11, 58, 127
2, 154511, Note_off_c, 1, 73, 127
2, 154513, Note_on_c, 0, 60, 127
2, 154513, Note_on_c, 3, 63, 127
2, 154688, Note_off_c, 0, 60, 127
2, 154691, Note_on_c, 1, 61, 127
2, 154849, Note_off_c, 3, 63, 127
2, 154861, Note_off_c, 7, 55, 127
2, 154869, Note_on_c, 3, 51, 127
2, 154869, Note_on_c, 5, 65, 127
2, 155220, Note_off_c, 5, 65, 127
2, 155222, Note_on_c, 7, 67, 127
2, 155573, Note_off_c, 7, 67, 127
2, 155575, Note_on_c, 8, 68, 127
2, 155926, Note_off_c, 8, 68, 127
2, 155929, Note_on_c, 11, 70, 127
2, 156009, Note_off_c, 3, 51, 127
2, 156256, Note_off_c, 1, 61, 127
2, 156280, Note_off_c, 11, 70, 127
2, 156282, Note_on_c, 8, 56, 127
2, 156282, Note_on_c, 0, 72, 127
2, 156457, Note_off_c, 0, 72, 127
2, 156460, Note_on_c, 1, 73, 127
2, 156635, Note_off_c, 1, 73, 127
2, 156635, Note_off_c, 8, 56, 127
2, 156638, Note_on_c, 8, 44, 127
2, 156638, Note_on_c, 3, 75, 127
2, 156989, Note_off_c, 8, 44, 127
2, 156991, Note_on_c, 11, 46, 127
2, 157114, Note_off_c, 3, 75, 127
2, 157169, Note_on_c, 1, 73, 127
2, 157344, Note_off_c, 1, 73, 127
2, 157344, Note_off_c, 11, 46, 127
2, 157346, Note_on_c, 0, 48, 127
2, 157346, Note_on_c, 0, 72, 127
2, 157521, Note_off_c, 0, 72, 127
2, 157524, Note_on_c, 11, 70, 127
2, 157699, Note_off_c, 11, 70, 127
2, 157699, Note_off_c, 0, 48, 127
2, 157702, Note_on_c, 2, 50, 127
2, 157702, Note_on_c, 8, 68, 127
2, 157877, Note_off_c, 8, 68, 127
2, 157879, Note_on_c, 7, 67, 127
2, 158054, Note_off_c, 7, 67, 127
2, 158055, Note_off_c, 2, 50, 127
2, 158057, Note_on_c, 3, 51, 127
2, 158057, Note_on_c, 5, 65, 127
2, 158232, Note_off_c, 5, 65, 127
2, 158235, Note_on_c, 3, 63, 127
2, 158410, Note_off_c, 3, 63, 127
2, 158410, Note_off_c, 3, 51, 127
2, 158412, Note_on_c, 5, 53, 127
2, 158412, Note_on_c, 2, 62, 127
2, 158590, Note_on_c, 3, 63, 127
2, 158765, Note_off_c, 3, 63, 127
2, 158765, Note_off_c, 5, 53, 127
2, 158768, Note_on_c, 7, 55, 127
2, 158768, Note_on_c, 5, 65, 127
2, 159119, Note_off_c, 7, 55, 127
2, 159121, Note_on_c, 8, 56, 127
2, 159121, Note_on_c, 11, 70, 127
2, 159472, Note_off_c, 8, 56, 127
2, 159474, Note_on_c, 0, 60, 127
2, 159825, Note_off_c, 0, 60, 127
2, 159825, Note_off_c, 2, 62, 127
2, 159826, Note_off_c, 5, 65, 127
2, 159828, Note_on_c, 11, 58, 127
2, 160003, Note_off_c, 11, 70, 127
2, 160005, Note_on_c, 0, 72, 127
2, 160180, Note_off_c, 0, 72, 127
2, 160181, Note_off_c, 11, 58, 127
2, 160183, Note_on_c, 8, 56, 127
2, 160183, Note_on_c, 2, 74, 127
2, 160358, Note_off_c, 2, 74, 127
2, 160361, Note_on_c, 3, 75, 127
2, 160536, Note_off_c, 3, 75, 127
2, 160536, Note_off_c, 8, 56, 127
2, 160538, Note_on_c, 7, 55, 127
2, 160538, Note_on_c, 5, 77, 127
2, 160713, Note_off_c, 5, 77, 127
2, 160716, Note_on_c, 7, 79, 127
2, 160891, Note_off_c, 7, 79, 127
2, 160891, Note_off_c, 7, 55, 127
2, 160894, Note_on_c, 5, 53, 127
2, 160894, Note_on_c, 8, 80, 127
2, 161245, Note_off_c, 5, 53, 127
2, 161247, Note_on_c, 3, 51, 127
2, 161247, Note_on_c, 11, 70, 127
2, 161598, Note_off_c, 3, 51, 127
2, 161601, Note_on_c, 2, 50, 127
2, 161952, Note_off_c, 2, 50, 127
2, 161952, Note_off_c, 8, 80, 127
2, 161954, Note_on_c, 0, 48, 127
2, 162129, Note_off_c, 11, 70, 127
2, 162132, Note_on_c, 2, 74, 127
2, 162307, Note_off_c, 2, 74, 127
2, 162307, Note_off_c, 0, 48, 127
2, 162309, Note_on_c, 11, 46, 127
2, 162309, Note_on_c, 5, 77, 127
2, 162484, Note_off_c, 5, 77, 127
2, 162487, Note_on_c, 8, 80, 127
2, 162644, Note_off_c, 8, 80, 127
2, 162662, Note_off_c, 11, 46, 127
2, 162665, Note_on_c, 7, 79, 127
2, 162665, Note_on_c, 3, 51, 127
2, 162844, Note_off_c, 7, 79, 127
2, 162846, Note_on_c, 5, 77, 127
2, 163025, Note_off_c, 5, 77, 127
2, 163027, Note_off_c, 3, 51, 127
2, 163029, Note_on_c, 3, 75, 127
2, 163029, Note_on_c, 7, 55, 127
2, 163208, Note_off_c, 3, 75, 127
2, 163213, Note_on_c, 7, 79, 127
2, 163391, Note_off_c, 7, 55, 127
2, 163392, Note_off_c, 7, 79, 127
2, 163396, Note_on_c, 0, 72, 127
2, 163396, Note_on_c, 8, 56, 127
2, 163581, Note_off_c, 0, 72, 127
2, 163585, Note_on_c, 2, 74, 127
2, 163770, Note_off_c, 2, 74, 127
2, 163775, Note_off_c, 8, 56, 127
2, 163777, Note_on_c, 3, 75, 127
2, 163777, Note_on_c, 5, 53, 127
2, 163962, Note_off_c, 3, 75, 127
2, 163970, Note_on_c, 5, 77, 127
2, 164156, Note_off_c, 5, 53, 127
2, 164162, Note_on_c, 11, 58, 127
2, 164162, Note_on_c, 8, 68, 127
2, 164347, Note_off_c, 5, 77, 127
2, 164359, Note_on_c, 5, 77, 127
2, 164549, Note_off_c, 5, 77, 127
2, 164552, Note_off_c, 11, 58, 127
2, 164557, Note_on_c, 11, 46, 127
2, 164557, Note_on_c, 3, 75, 127
2, 164747, Note_off_c, 3, 75, 127
2, 164759, Note_on_c, 2, 74, 127
2, 164947, Note_off_c, 11, 46, 127
2, 164949, Note_off_c, 2, 74, 127
2, 164957, Note_on_c, 3, 75, 127
2, 164957, Note_on_c, 3, 51, 127
2, 165149, Note_off_c, 8, 68, 127
2, 165159, Note_on_c, 11, 70, 127
2, 165355, Note_off_c, 11, 70, 127
2, 165363, Note_on_c, 0, 72, 127
2, 165559, Note_off_c, 0, 72, 127
2, 165567, Note_on_c, 8, 68, 127
2, 165761, Note_off_c, 3, 75, 127
2, 165763, Note_off_c, 8, 68, 127
2, 165773, Note_on_c, 7, 67, 127
2, 165773, Note_on_c, 11, 58, 127
2, 165984, Note_on_c, 8, 68, 127
2, 166191, Note_off_c, 8, 68, 127
2, 166205, Note_on_c, 11, 70, 127
2, 166420, Note_on_c, 3, 75, 127
2, 166711, Note_on_c, 3, 63, 127
2, 168457, Note_off_c, 3, 51, 127
2, 168473, Note_off_c, 7, 67, 127
2, 168535, Note_off_c, 11, 58, 127
2, 168565, Note_off_c, 11, 70, 127
2, 168573, Note_off_c, 3, 75, 127
2, 168711, Note_off_c, 3, 63, 127
2, 169927, Note_on_c, 3, 75, 127
2, 170104, Note_off_c, 3, 75, 127
2, 170107, Note_on_c, 11, 70, 127
2, 170284, Note_off_c, 11, 70, 127
2, 170286, Note_on_c, 0, 72, 127
2, 170463, Note_off_c, 0, 72, 127
2, 170466, Note_on_c, 8, 68, 127
2, 170643, Note_off_c, 8, 68, 127
2, 170645, Note_on_c, 3, 63, 127
2, 170645, Note_on_c, 8, 68, 127
2, 170704, Note_off_c, 8, 68, 127
2, 170705, Note_on_c, 7, 67, 127
2, 170764, Note_off_c, 7, 67, 127
2, 170765, Note_on_c, 8, 68, 127
2, 170822, Note_off_c, 3, 63, 127
2, 170824, Note_off_c, 8, 68, 127
2, 170825, Note_on_c, 7, 67, 127
2, 170825, Note_on_c, 11, 58, 127
2, 171002, Note_off_c, 11, 58, 127
2, 171004, Note_on_c, 0, 60, 127
2, 171092, Note_off_c, 7, 67, 127
2, 171181, Note_off_c, 0, 60, 127
2, 171184, Note_on_c, 8, 56, 127
2, 171184, Note_on_c, 8, 68, 127
2, 171361, Note_off_c, 8, 68, 127
2, 171361, Note_off_c, 8, 56, 127
2, 171363, Note_on_c, 7, 55, 127
2, 171363, Note_on_c, 11, 70, 127
2, 171540, Note_off_c, 11, 70, 127
2, 171543, Note_on_c, 5, 65, 127
2, 171720, Note_off_c, 5, 65, 127
2, 171722, Note_on_c, 7, 67, 127
2, 171867, Note_off_c, 7, 55, 127
2, 171899, Note_off_c, 7, 67, 127
2, 171902, Note_on_c, 8, 56, 127
2, 171902, Note_on_c, 3, 63, 127
2, 172079, Note_off_c, 3, 63, 127
2, 172079, Note_off_c, 8, 56, 127
2, 172081, Note_on_c, 11, 58, 127
2, 172081, Note_on_c, 3, 63, 127
2, 172258, Note_off_c, 3, 63, 127
2, 172258, Note_off_c, 11, 58, 127
2, 172261, Note_on_c, 5, 53, 127
2, 172261, Note_on_c, 2, 62, 127
2, 172438, Note_off_c, 2, 62, 127
2, 172438, Note_off_c, 5, 53, 127
2, 172440, Note_on_c, 7, 55, 127
2, 172440, Note_on_c, 0, 60, 127
2, 172617, Note_off_c, 0, 60, 127
2, 172617, Note_off_c, 7, 55, 127
2, 172620, Note_on_c, 3, 51, 127
2, 172620, Note_on_c, 11, 58, 127
2, 172797, Note_off_c, 11, 58, 127
2, 172797, Note_off_c, 3, 51, 127
2, 172800, Note_on_c, 2, 50, 127
2, 172800, Note_on_c, 8, 68, 127
2, 172979, Note_on_c, 3, 63, 127
2, 173136, Note_off_c, 2, 50, 127
2, 173155, Note_off_c, 8, 68, 127
2, 173156, Note_off_c, 3, 63, 127
2, 173159, Note_on_c, 11, 46, 127
2, 173159, Note_on_c, 5, 65, 127
2, 173336, Note_off_c, 5, 65, 127
2, 173338, Note_on_c, 2, 62, 127
2, 173495, Note_off_c, 11, 46, 127
2, 173515, Note_off_c, 2, 62, 127
2, 173518, Note_on_c, 3, 51, 127
2, 173518, Note_on_c, 7, 67, 127
2, 173697, Note_on_c, 2, 62, 127
2, 173873, Note_off_c, 7, 67, 127
2, 173874, Note_off_c, 2, 62, 127
2, 173877, Note_on_c, 3, 63, 127
2, 173994, Note_off_c, 3, 51, 127
2, 174054, Note_off_c, 3, 63, 127
2, 174056, Note_on_c, 7, 55, 127
2, 174056, Note_on_c, 11, 70, 127
2, 174233, Note_off_c, 11, 70, 127
2, 174233, Note_off_c, 7, 55, 127
2, 174236, Note_on_c, 8, 56, 127
2, 174236, Note_on_c, 0, 72, 127
2, 174413, Note_off_c, 0, 72, 127
2, 174415, Note_on_c, 7, 67, 127
2, 174572, Note_off_c, 8, 56, 127
2, 174592, Note_off_c, 7, 67, 127
2, 174595, Note_on_c, 5, 53, 127
2, 174595, Note_on_c, 8, 68, 127
2, 174772, Note_off_c, 8, 68, 127
2, 174774, Note_on_c, 5, 77, 127
2, 174931, Note_off_c, 5, 53, 127
2, 174951, Note_off_c, 5, 77, 127
2, 174954, Note_on_c, 11, 58, 127
2, 174954, Note_on_c, 3, 75, 127
2, 175041, Note_off_c, 3, 75, 127
2, 175044, Note_on_c, 2, 74, 127
2, 175131, Note_off_c, 11, 58, 127
2, 175133, Note_on_c, 8, 56, 127
2, 175298, Note_off_c, 2, 74, 127
2, 175310, Note_off_c, 8, 56, 127
2, 175313, Note_on_c, 7, 55, 127
2, 175313, Note_on_c, 0, 72, 127
2, 175400, Note_off_c, 0, 72, 127
2, 175403, Note_on_c, 11, 70, 127
2, 175490, Note_off_c, 7, 55, 127
2, 175492, Note_on_c, 5, 53, 127
2, 175627, Note_off_c, 11, 70, 127
2, 175669, Note_off_c, 5, 53, 127
2, 175672, Note_on_c, 3, 51, 127
2, 175672, Note_on_c, 3, 75, 127
2, 175849, Note_off_c, 3, 75, 127
2, 175851, Note_on_c, 11, 70, 127
2, 176028, Note_off_c, 11, 70, 127
2, 176031, Note_on_c, 0, 72, 127
2, 176208, Note_off_c, 0, 72, 127
2, 176210, Note_on_c, 8, 68, 127
2, 176270, Note_off_c, 3, 51, 127
2, 176387, Note_off_c, 8, 68, 127
2, 176390, Note_on_c, 3, 63, 127
2, 176390, Note_on_c, 8, 68, 127
2, 176449, Note_off_c, 8, 68, 127
2, 176450, Note_on_c, 7, 67, 127
2, 176509, Note_off_c, 7, 67, 127
2, 176510, Note_on_c, 8, 68, 127
2, 176567, Note_off_c, 3, 63, 127
2, 176569, Note_off_c, 8, 68, 127
2, 176569, Note_on_c, 7, 67, 127
2, 176569, Note_on_c, 11, 58, 127
2, 176746, Note_off_c, 11, 58, 127
2, 176749, Note_on_c, 0, 60, 127
2, 176836, Note_off_c, 7, 67, 127
2, 176926, Note_off_c, 0, 60, 127
2, 176928, Note_on_c, 8, 56, 127
2, 176928, Note_on_c, 8, 68, 127
2, 177105, Note_off_c, 8, 68, 127
2, 177105, Note_off_c, 8, 56, 127
2, 177108, Note_on_c, 7, 55, 127
2, 177108, Note_on_c, 11, 70, 127
2, 177285, Note_off_c, 11, 70, 127
2, 177288, Note_on_c, 5, 65, 127
2, 177465, Note_off_c, 5, 65, 127
2, 177467, Note_on_c, 7, 67, 127
2, 177612, Note_off_c, 7, 55, 127
2, 177644, Note_off_c, 7, 67, 127
2, 177647, Note_on_c, 10, 57, 127
2, 177647, Note_on_c, 3, 75, 127
2, 177824, Note_off_c, 3, 75, 127
2, 177824, Note_off_c, 10, 57, 127
2, 177826, Note_on_c, 11, 58, 127
2, 177826, Note_on_c, 3, 75, 127
2, 177885, Note_off_c, 3, 75, 127
2, 177886, Note_on_c, 2, 74, 127
2, 177945, Note_off_c, 2, 74, 127
2, 177946, Note_on_c, 3, 75, 127
2, 178003, Note_off_c, 11, 58, 127
2, 178005, Note_off_c, 3, 75, 127
2, 178006, Note_on_c, 2, 74, 127
2, 178006, Note_on_c, 5, 53, 127
2, 178183, Note_off_c, 5, 53, 127
2, 178185, Note_on_c, 7, 55, 127
2, 178273, Note_off_c, 2, 74, 127
2, 178362, Note_off_c, 7, 55, 127
2, 178365, Note_on_c, 3, 51, 127
2, 178365, Note_on_c, 3, 75, 127
2, 178542, Note_off_c, 3, 75, 127
2, 178542, Note_off_c, 3, 51, 127
2, 178544, Note_on_c, 2, 50, 127
2, 178544, Note_on_c, 5, 77, 127
2, 178724, Note_on_c, 0, 72, 127
2, 178880, Note_off_c, 2, 50, 127
2, 178899, Note_off_c, 5, 77, 127
2, 178901, Note_off_c, 0, 72, 127
2, 178903, Note_on_c, 11, 46, 127
2, 178903, Note_on_c, 2, 74, 127
2, 179080, Note_off_c, 2, 74, 127
2, 179083, Note_on_c, 11, 70, 127
2, 179239, Note_off_c, 11, 46, 127
2, 179260, Note_off_c, 11, 70, 127
2, 179262, Note_on_c, 3, 51, 127
2, 179262, Note_on_c, 10, 69, 127
2, 179442, Note_on_c, 7, 79, 127
2, 179467, Note_off_c, 10, 69, 127
2, 179619, Note_off_c, 7, 79, 127
2, 179619, Note_off_c, 3, 51, 127
2, 179621, Note_on_c, 2, 50, 127
2, 179621, Note_on_c, 5, 77, 127
2, 179798, Note_off_c, 2, 50, 127
2, 179801, Note_on_c, 3, 51, 127
2, 179801, Note_on_c, 11, 70, 127
2, 179882, Note_off_c, 5, 77, 127
2, 179978, Note_off_c, 11, 70, 127
2, 179978, Note_off_c, 3, 51, 127
2, 179980, Note_on_c, 5, 53, 127
2, 179980, Note_on_c, 2, 74, 127
2, 180157, Note_off_c, 2, 74, 127
2, 180160, Note_on_c, 0, 72, 127
2, 180337, Note_off_c, 0, 72, 127
2, 180339, Note_on_c, 5, 41, 127
2, 180339, Note_on_c, 11, 70, 127
2, 180354, Note_off_c, 5, 53, 127
2, 180516, Note_off_c, 11, 70, 127
2, 180519, Note_on_c, 10, 69, 127
2, 180675, Note_off_c, 5, 41, 127
2, 180696, Note_off_c, 10, 69, 127
2, 180698, Note_on_c, 11, 46, 127
2, 180698, Note_on_c, 11, 70, 127
2, 181221, Note_off_c, 11, 70, 127
2, 181414, Note_off_c, 11, 46, 127
2, 181416, Note_on_c, 5, 77, 127
2, 181593, Note_off_c, 5, 77, 127
2, 181596, Note_on_c, 0, 72, 127
2, 181773, Note_off_c, 0, 72, 127
2, 181776, Note_on_c, 2, 74, 127
2, 181953, Note_off_c, 2, 74, 127
2, 181955, Note_on_c, 11, 70, 127
2, 182132, Note_off_c, 11, 70, 127
2, 182135, Note_on_c, 5, 53, 127
2, 182135, Note_on_c, 8, 80, 127
2, 182222, Note_off_c, 8, 80, 127
2, 182224, Note_on_c, 7, 79, 127
2, 182311, Note_off_c, 7, 79, 127
2, 182312, Note_off_c, 5, 53, 127
2, 182314, Note_on_c, 0, 48, 127
2, 182314, Note_on_c, 8, 80, 127
2, 182491, Note_off_c, 0, 48, 127
2, 182494, Note_on_c, 2, 50, 127
2, 182671, Note_off_c, 2, 50, 127
2, 182671, Note_off_c, 8, 80, 127
2, 182673, Note_on_c, 11, 46, 127
2, 182673, Note_on_c, 11, 70, 127
2, 182850, Note_off_c, 11, 70, 127
2, 182850, Note_off_c, 11, 46, 127
2, 182853, Note_on_c, 11, 58, 127
2, 182853, Note_on_c, 2, 74, 127
2, 183030, Note_off_c, 2, 74, 127
2, 183032, Note_on_c, 5, 77, 127
2, 183209, Note_off_c, 5, 77, 127
2, 183212, Note_on_c, 8, 80, 127
2, 183357, Note_off_c, 11, 58, 127
2, 183389, Note_off_c, 8, 80, 127
2, 183391, Note_on_c, 2, 50, 127
2, 183391, Note_on_c, 5, 77, 127
2, 183568, Note_off_c, 5, 77, 127
2, 183568, Note_off_c, 2, 50, 127
2, 183571, Note_on_c, 3, 51, 127
2, 183571, Note_on_c, 7, 79, 127
2, 183658, Note_off_c, 7, 79, 127
2, 183660, Note_on_c, 5, 77, 127
2, 183747, Note_off_c, 5, 77, 127
2, 183748, Note_off_c, 3, 51, 127
2, 183750, Note_on_c, 12, 47, 127
2, 183750, Note_on_c, 7, 79, 127
2, 183927, Note_off_c, 12, 47, 127
2, 183930, Note_on_c, 0, 48, 127
2, 184107, Note_off_c, 0, 48, 127
2, 184109, Note_on_c, 7, 43, 127
2, 184286, Note_off_c, 7, 43, 127
2, 184289, Note_on_c, 8, 44, 127
2, 184348, Note_off_c, 7, 79, 127
2, 184468, Note_on_c, 2, 74, 127
2, 184645, Note_off_c, 2, 74, 127
2, 184648, Note_on_c, 3, 75, 127
2, 184825, Note_off_c, 3, 75, 127
2, 184827, Note_on_c, 0, 72, 127
2, 185004, Note_off_c, 0, 72, 127
2, 185007, Note_on_c, 5, 77, 127
2, 185184, Note_off_c, 5, 77, 127
2, 185186, Note_off_c, 8, 44, 127
2, 185186, Note_on_c, 0, 72, 127
2, 185363, Note_off_c, 0, 72, 127
2, 185366, Note_on_c, 8, 56, 127
2, 185366, Note_on_c, 2, 74, 127
2, 185543, Note_off_c, 2, 74, 127
2, 185545, Note_on_c, 12, 71, 127
2, 185722, Note_off_c, 12, 71, 127
2, 185723, Note_off_c, 8, 56, 127
2, 185725, Note_on_c, 7, 55, 127
2, 185725, Note_on_c, 3, 75, 127
2, 185902, Note_off_c, 3, 75, 127
2, 185904, Note_on_c, 12, 71, 127
2, 186081, Note_off_c, 12, 71, 127
2, 186082, Note_off_c, 7, 55, 127
2, 186084, Note_on_c, 6, 54, 127
2, 186084, Note_on_c, 0, 72, 127
2, 186261, Note_off_c, 0, 72, 127
2, 186264, Note_on_c, 10, 69, 127
2, 186441, Note_off_c, 10, 69, 127
2, 186441, Note_off_c, 6, 54, 127
2, 186443, Note_on_c, 7, 55, 127
2, 186443, Note_on_c, 0, 72, 127
2, 186620, Note_off_c, 0, 72, 127
2, 186623, Note_on_c, 12, 71, 127
2, 186800, Note_off_c, 12, 71, 127
2, 186800, Note_off_c, 7, 55, 127
2, 186802, Note_on_c, 5, 53, 127
2, 186802, Note_on_c, 10, 69, 127
2, 186979, Note_off_c, 10, 69, 127
2, 186982, Note_on_c, 7, 67, 127
2, 187139, Note_off_c, 7, 67, 127
2, 187159, Note_off_c, 5, 53, 127
2, 187161, Note_on_c, 3, 51, 127
2, 187161, Note_on_c, 7, 79, 127
2, 187338, Note_off_c, 7, 79, 127
2, 187341, Note_on_c, 2, 74, 127
2, 187497, Note_off_c, 3, 51, 127
2, 187518, Note_off_c, 2, 74, 127
2, 187520, Note_on_c, 0, 48, 127
2, 187520, Note_on_c, 3, 75, 127
2, 187697, Note_off_c, 3, 75, 127
2, 187700, Note_on_c, 0, 72, 127
2, 187856, Note_off_c, 0, 48, 127
2, 187877, Note_off_c, 0, 72, 127
2, 187879, Note_on_c, 1, 49, 127
2, 187879, Note_on_c, 11, 82, 127
2, 188056, Note_off_c, 1, 49, 127
2, 188059, Note_on_c, 5, 53, 127
2, 188236, Note_off_c, 5, 53, 127
2, 188238, Note_on_c, 7, 55, 127
2, 188327, Note_off_c, 11, 82, 127
2, 188415, Note_off_c, 7, 55, 127
2, 188418, Note_on_c, 11, 58, 127
2, 188418, Note_on_c, 0, 72, 127
2, 188595, Note_off_c, 0, 72, 127
2, 188595, Note_off_c, 11, 58, 127
2, 188597, Note_on_c, 4, 52, 127
2, 188597, Note_on_c, 1, 73, 127
2, 188774, Note_off_c, 1, 73, 127
2, 188777, Note_on_c, 11, 70, 127
2, 188933, Note_off_c, 4, 52, 127
2, 188954, Note_off_c, 11, 70, 127
2, 188956, Note_on_c, 0, 48, 127
2, 188956, Note_on_c, 0, 72, 127
2, 189133, Note_off_c, 0, 72, 127
2, 189136, Note_on_c, 11, 82, 127
2, 189292, Note_off_c, 0, 48, 127
2, 189313, Note_off_c, 11, 82, 127
2, 189315, Note_on_c, 5, 53, 127
2, 189315, Note_on_c, 8, 80, 127
2, 189492, Note_off_c, 5, 53, 127
2, 189495, Note_on_c, 4, 52, 127
2, 189672, Note_off_c, 4, 52, 127
2, 189674, Note_on_c, 5, 53, 127
2, 189763, Note_off_c, 8, 80, 127
2, 189851, Note_off_c, 5, 53, 127
2, 189854, Note_on_c, 0, 48, 127
2, 189854, Note_on_c, 7, 79, 127
2, 190031, Note_off_c, 7, 79, 127
2, 190031, Note_off_c, 0, 48, 127
2, 190033, Note_on_c, 8, 56, 127
2, 190033, Note_on_c, 5, 77, 127
2, 190210, Note_off_c, 5, 77, 127
2, 190213, Note_on_c, 0, 72, 127
2, 190390, Note_off_c, 0, 72, 127
2, 190390, Note_off_c, 8, 56, 127
2, 190392, Note_on_c, 7, 55, 127
2, 190392, Note_on_c, 2, 74, 127
2, 190569, Note_off_c, 2, 74, 127
2, 190569, Note_off_c, 7, 55, 127
2, 190572, Note_on_c, 5, 53, 127
2, 190572, Note_on_c, 12, 71, 127
2, 190749, Note_off_c, 12, 71, 127
2, 190749, Note_off_c, 5, 53, 127
2, 190752, Note_on_c, 3, 51, 127
2, 190752, Note_on_c, 7, 79, 127
2, 190929, Note_off_c, 7, 79, 127
2, 190931, Note_on_c, 2, 74, 127
2, 191088, Note_off_c, 3, 51, 127
2, 191108, Note_off_c, 2, 74, 127
2, 191111, Note_on_c, 0, 48, 127
2, 191111, Note_on_c, 3, 75, 127
2, 191288, Note_off_c, 3, 75, 127
2, 191290, Note_on_c, 0, 72, 127
2, 191447, Note_off_c, 0, 48, 127
2, 191467, Note_off_c, 0, 72, 127
2, 191470, Note_on_c, 7, 55, 127
2, 191470, Note_on_c, 7, 67, 127
2, 191647, Note_off_c, 7, 67, 127
2, 191649, Note_on_c, 0, 72, 127
2, 191826, Note_off_c, 0, 72, 127
2, 191829, Note_on_c, 7, 43, 127
2, 191829, Note_on_c, 2, 74, 127
2, 191844, Note_off_c, 7, 55, 127
2, 192006, Note_off_c, 2, 74, 127
2, 192008, Note_on_c, 12, 71, 127
2, 192165, Note_off_c, 7, 43, 127
2, 192185, Note_off_c, 12, 71, 127
2, 192188, Note_on_c, 0, 60, 127
2, 192188, Note_on_c, 0, 72, 127
2, 192275, Note_off_c, 0, 72, 127
2, 192277, Note_on_c, 12, 71, 127
2, 192364, Note_off_c, 12, 71, 127
2, 192365, Note_off_c, 0, 60, 127
2, 192367, Note_on_c, 7, 55, 127
2, 192367, Note_on_c, 0, 72, 127
2, 192544, Note_off_c, 7, 55, 127
2, 192547, Note_on_c, 8, 56, 127
2, 192724, Note_off_c, 8, 56, 127
2, 192726, Note_on_c, 5, 53, 127
2, 192890, Note_off_c, 0, 72, 127
2, 192903, Note_off_c, 5, 53, 127
2, 192906, Note_on_c, 4, 52, 127
2, 193085, Note_on_c, 5, 77, 127
2, 193242, Note_off_c, 4, 52, 127
2, 193262, Note_off_c, 5, 77, 127
2, 193265, Note_on_c, 0, 48, 127
2, 193265, Note_on_c, 4, 76, 127
2, 193442, Note_off_c, 4, 76, 127
2, 193444, Note_on_c, 11, 82, 127
2, 193601, Note_off_c, 0, 48, 127
2, 193621, Note_off_c, 11, 82, 127
2, 193624, Note_on_c, 5, 53, 127
2, 193624, Note_on_c, 8, 80, 127
2, 193801, Note_off_c, 8, 80, 127
2, 193801, Note_off_c, 5, 53, 127
2, 193803, Note_on_c, 7, 55, 127
2, 193803, Note_on_c, 4, 76, 127
2, 193980, Note_off_c, 4, 76, 127
2, 193980, Note_off_c, 7, 55, 127
2, 193983, Note_on_c, 8, 56, 127
2, 193983, Note_on_c, 5, 77, 127
2, 194160, Note_off_c, 5, 77, 127
2, 194160, Note_off_c, 8, 56, 127
2, 194162, Note_on_c, 5, 53, 127
2, 194162, Note_on_c, 2, 74, 127
2, 194339, Note_off_c, 2, 74, 127
2, 194339, Note_off_c, 5, 53, 127
2, 194342, Note_on_c, 2, 50, 127
2, 194342, Note_on_c, 11, 70, 127
2, 194519, Note_off_c, 11, 70, 127
2, 194521, Note_on_c, 3, 75, 127
2, 194678, Note_off_c, 2, 50, 127
2, 194698, Note_off_c, 3, 75, 127
2, 194701, Note_on_c, 11, 46, 127
2, 194701, Note_on_c, 2, 74, 127
2, 194878, Note_off_c, 2, 74, 127
2, 194880, Note_on_c, 8, 80, 127
2, 195037, Note_off_c, 11, 46, 127
2, 195057, Note_off_c, 8, 80, 127
2, 195060, Note_on_c, 3, 51, 127
2, 195060, Note_on_c, 7, 79, 127
2, 195237, Note_off_c, 7, 79, 127
2, 195237, Note_off_c, 3, 51, 127
2, 195240, Note_on_c, 5, 53, 127
2, 195240, Note_on_c, 2, 74, 127
2, 195417, Note_off_c, 2, 74, 127
2, 195417, Note_off_c, 5, 53, 127
2, 195419, Note_on_c, 7, 55, 127
2, 195419, Note_on_c, 3, 75, 127
2, 195596, Note_off_c, 3, 75, 127
2, 195596, Note_off_c, 7, 55, 127
2, 195599, Note_on_c, 3, 51, 127
2, 195599, Note_on_c, 0, 72, 127
2, 195776, Note_off_c, 0, 72, 127
2, 195776, Note_off_c, 3, 51, 127
2, 195778, Note_on_c, 0, 48, 127
2, 195778, Note_on_c, 8, 68, 127
2, 195955, Note_off_c, 0, 48, 127
2, 195958, Note_on_c, 7, 55, 127
2, 195958, Note_on_c, 3, 75, 127
2, 196135, Note_off_c, 3, 75, 127
2, 196135, Note_off_c, 7, 55, 127
2, 196137, Note_on_c, 5, 53, 127
2, 196137, Note_on_c, 2, 74, 127
2, 196301, Note_off_c, 8, 68, 127
2, 196314, Note_off_c, 2, 74, 127
2, 196314, Note_off_c, 5, 53, 127
2, 196317, Note_on_c, 8, 56, 127
2, 196317, Note_on_c, 5, 77, 127
2, 196494, Note_off_c, 5, 77, 127
2, 196494, Note_off_c, 8, 56, 127
2, 196496, Note_on_c, 11, 46, 127
2, 196496, Note_on_c, 7, 67, 127
2, 196673, Note_off_c, 11, 46, 127
2, 196676, Note_on_c, 7, 55, 127
2, 196676, Note_on_c, 2, 74, 127
2, 196853, Note_off_c, 2, 74, 127
2, 196853, Note_off_c, 7, 55, 127
2, 196855, Note_on_c, 3, 51, 127
2, 196855, Note_on_c, 0, 72, 127
2, 197019, Note_off_c, 7, 67, 127
2, 197032, Note_off_c, 0, 72, 127
2, 197032, Note_off_c, 3, 51, 127
2, 197035, Note_on_c, 7, 55, 127
2, 197035, Note_on_c, 3, 75, 127
2, 197212, Note_off_c, 3, 75, 127
2, 197212, Note_off_c, 7, 55, 127
2, 197214, Note_on_c, 8, 44, 127
2, 197214, Note_on_c, 5, 65, 127
2, 197391, Note_off_c, 8, 44, 127
2, 197394, Note_on_c, 3, 51, 127
2, 197394, Note_on_c, 0, 72, 127
2, 197571, Note_off_c, 0, 72, 127
2, 197571, Note_off_c, 3, 51, 127
2, 197573, Note_on_c, 1, 49, 127
2, 197573, Note_on_c, 11, 70, 127
2, 197737, Note_off_c, 5, 65, 127
2, 197750, Note_off_c, 11, 70, 127
2, 197750, Note_off_c, 1, 49, 127
2, 197753, Note_on_c, 5, 53, 127
2, 197753, Note_on_c, 1, 73, 127
2, 197930, Note_off_c, 5, 53, 127
2, 197932, Note_on_c, 11, 46, 127
2, 197932, Note_on_c, 3, 63, 127
2, 198109, Note_off_c, 11, 46, 127
2, 198112, Note_on_c, 5, 41, 127
2, 198289, Note_off_c, 5, 41, 127
2, 198291, Note_on_c, 7, 43, 127
2, 198468, Note_off_c, 7, 43, 127
2, 198471, Note_on_c, 3, 39, 127
2, 198567, Note_off_c, 3, 63, 127
2, 198648, Note_off_c, 3, 39, 127
2, 198650, Note_off_c, 1, 73, 127
2, 198650, Note_on_c, 0, 72, 127
2, 198650, Note_on_c, 8, 44, 127
2, 198831, Note_off_c, 0, 72, 127
2, 198834, Note_on_c, 7, 67, 127
2, 198995, Note_off_c, 8, 44, 127
2, 199015, Note_off_c, 7, 67, 127
2, 199019, Note_on_c, 8, 68, 127
2, 199019, Note_on_c, 5, 41, 127
2, 199200, Note_off_c, 8, 68, 127
2, 199204, Note_on_c, 5, 65, 127
2, 199364, Note_off_c, 5, 41, 127
2, 199385, Note_off_c, 5, 65, 127
2, 199389, Note_on_c, 2, 62, 127
2, 199389, Note_on_c, 11, 46, 127
2, 199577, Note_off_c, 2, 62, 127
2, 199582, Note_on_c, 0, 72, 127
2, 199770, Note_off_c, 0, 72, 127
2, 199778, Note_on_c, 11, 70, 127
2, 199918, Note_off_c, 11, 46, 127
2, 199966, Note_off_c, 11, 70, 127
2, 199974, Note_on_c, 8, 80, 127
2, 199974, Note_on_c, 2, 50, 127
2, 200162, Note_off_c, 2, 50, 127
2, 200162, Note_off_c, 8, 80, 127
2, 200171, Note_on_c, 7, 79, 127
2, 200171, Note_on_c, 3, 51, 127
2, 200371, Note_off_c, 3, 51, 127
2, 200371, Note_off_c, 7, 79, 127
2, 200375, Note_on_c, 3, 75, 127
2, 200375, Note_on_c, 7, 55, 127
2, 200575, Note_off_c, 7, 55, 127
2, 200575, Note_off_c, 3, 75, 127
2, 200586, Note_on_c, 11, 70, 127
2, 200586, Note_on_c, 11, 58, 127
2, 200796, Note_off_c, 11, 58, 127
2, 200796, Note_off_c, 11, 70, 127
2, 200823, Note_on_c, 2, 74, 127
2, 200823, Note_on_c, 11, 46, 127
2, 201093, Note_off_c, 11, 46, 127
2, 201093, Note_off_c, 2, 74, 127
2, 201122, Note_on_c, 3, 75, 127
2, 201122, Note_on_c, 3, 39, 127
2, 203522, Note_off_c, 3, 39, 127
2, 203522, Note_off_c, 3, 75, 127
2, 205051, Note_on_c, 3, 51, 127
2, 205051, Note_on_c, 7, 67, 127
2, 205239, Note_off_c, 7, 67, 127
2, 205239, Note_off_c, 3, 51, 127
2, 205242, Note_on_c, 5, 53, 127
2, 205242, Note_on_c, 11, 70, 127
2, 205430, Note_off_c, 11, 70, 127
2, 205430, Note_off_c, 5, 53, 127
2, 205433, Note_on_c, 7, 55, 127
2, 205433, Note_on_c, 3, 75, 127
2, 205621, Note_off_c, 3, 75, 127
2, 205623, Note_on_c, 1, 73, 127
2, 205811, Note_off_c, 1, 73, 127
2, 205812, Note_off_c, 7, 55, 127
2, 205814, Note_on_c, 3, 51, 127
2, 205814, Note_on_c, 1, 73, 127
2, 206002, Note_off_c, 1, 73, 127
2, 206005, Note_on_c, 0, 72, 127
2, 206193, Note_off_c, 0, 72, 127
2, 206193, Note_off_c, 3, 51, 127
2, 206195, Note_on_c, 8, 56, 127
2, 206195, Note_on_c, 0, 72, 127
2, 206383, Note_off_c, 0, 72, 127
2, 206386, Note_on_c, 3, 75, 127
2, 206574, Note_off_c, 3, 75, 127
2, 206574, Note_off_c, 8, 56, 127
2, 206577, Note_on_c, 7, 55, 127
2, 206577, Note_on_c, 11, 70, 127
2, 206765, Note_off_c, 11, 70, 127
2, 206768, Note_on_c, 3, 75, 127
2, 206956, Note_off_c, 3, 75, 127
2, 206956, Note_off_c, 7, 55, 127
2, 206958, Note_on_c, 5, 53, 127
2, 206958, Note_on_c, 8, 68, 127
2, 207146, Note_off_c, 8, 68, 127
2, 207149, Note_on_c, 5, 77, 127
2, 207337, Note_off_c, 5, 77, 127
2, 207337, Note_off_c, 5, 53, 127
2, 207340, Note_on_c, 3, 51, 127
2, 207340, Note_on_c, 8, 68, 127
2, 207403, Note_off_c, 8, 68, 127
2, 207403, Note_on_c, 7, 67, 127
2, 207466, Note_off_c, 7, 67, 127
2, 207467, Note_on_c, 8, 68, 127
2, 207528, Note_off_c, 3, 51, 127
2, 207530, Note_off_c, 8, 68, 127
2, 207531, Note_on_c, 7, 67, 127
2, 207531, Note_on_c, 11, 58, 127
2, 207719, Note_off_c, 11, 58, 127
2, 207721, Note_on_c, 3, 63, 127
2, 207909, Note_off_c, 3, 63, 127
2, 207912, Note_on_c, 1, 61, 127
2, 208100, Note_off_c, 1, 61, 127
2, 208103, Note_on_c, 1, 61, 127
2, 208187, Note_off_c, 7, 67, 127
2, 208293, Note_off_c, 1, 61, 127
2, 208295, Note_on_c, 0, 60, 127
2, 208295, Note_on_c, 8, 68, 127
2, 208388, Note_off_c, 8, 68, 127
2, 208391, Note_on_c, 11, 70, 127
2, 208483, Note_off_c, 0, 60, 127
2, 208484, Note_off_c, 11, 70, 127
2, 208486, Note_on_c, 0, 60, 127
2, 208486, Note_on_c, 11, 70, 127
2, 208579, Note_off_c, 11, 70, 127
2, 208582, Note_on_c, 8, 68, 127
2, 208674, Note_off_c, 0, 60, 127
2, 208675, Note_off_c, 8, 68, 127
2, 208677, Note_on_c, 3, 63, 127
2, 208677, Note_on_c, 11, 70, 127
2, 208770, Note_off_c, 11, 70, 127
2, 208772, Note_on_c, 8, 68, 127
2, 208865, Note_off_c, 8, 68, 127
2, 208865, Note_off_c, 3, 63, 127
2, 208868, Note_on_c, 11, 58, 127
2, 208868, Note_on_c, 7, 67, 127
2, 209056, Note_off_c, 11, 58, 127
2, 209058, Note_on_c, 3, 63, 127
2, 209246, Note_off_c, 3, 63, 127
2, 209247, Note_off_c, 7, 67, 127
2, 209249, Note_on_c, 8, 56, 127
2, 209249, Note_on_c, 0, 72, 127
2, 209437, Note_off_c, 8, 56, 127
2, 209440, Note_on_c, 5, 65, 127
2, 209608, Note_off_c, 0, 72, 127
2, 209630, Note_off_c, 5, 65, 127
2, 209633, Note_on_c, 7, 55, 127
2, 209633, Note_on_c, 11, 70, 127
2, 209821, Note_off_c, 11, 70, 127
2, 209821, Note_off_c, 7, 55, 127
2, 209823, Note_on_c, 11, 58, 127
2, 209823, Note_on_c, 3, 75, 127
2, 210011, Note_off_c, 3, 75, 127
2, 210011, Note_off_c, 11, 58, 127
2, 210014, Note_on_c, 3, 63, 127
2, 210014, Note_on_c, 7, 79, 127
2, 210202, Note_off_c, 7, 79, 127
2, 210205, Note_on_c, 5, 77, 127
2, 210393, Note_off_c, 5, 77, 127
2, 210393, Note_off_c, 3, 63, 127
2, 210395, Note_on_c, 2, 62, 127
2, 210395, Note_on_c, 5, 77, 127
2, 210583, Note_off_c, 5, 77, 127
2, 210586, Note_on_c, 3, 75, 127
2, 210774, Note_off_c, 3, 75, 127
2, 210774, Note_off_c, 2, 62, 127
2, 210777, Note_on_c, 0, 60, 127
2, 210777, Note_on_c, 10, 69, 127
2, 210965, Note_off_c, 10, 69, 127
2, 210965, Note_off_c, 0, 60, 127
2, 210968, Note_on_c, 10, 57, 127
2, 210968, Note_on_c, 0, 72, 127
2, 211156, Note_off_c, 0, 72, 127
2, 211156, Note_off_c, 10, 57, 127
2, 211158, Note_on_c, 5, 53, 127
2, 211158, Note_on_c, 3, 75, 127
2, 211346, Note_off_c, 3, 75, 127
2, 211349, Note_on_c, 2, 74, 127
2, 211537, Note_off_c, 2, 74, 127
2, 211537, Note_off_c, 5, 53, 127
2, 211540, Note_on_c, 11, 58, 127
2, 211540, Note_on_c, 2, 74, 127
2, 211728, Note_off_c, 2, 74, 127
2, 211731, Note_on_c, 0, 72, 127
2, 211919, Note_off_c, 0, 72, 127
2, 211919, Note_off_c, 11, 58, 127
2, 211921, Note_on_c, 3, 51, 127
2, 211921, Note_on_c, 0, 72, 127
2, 212112, Note_on_c, 11, 82, 127
2, 212160, Note_off_c, 0, 72, 127
2, 212302, Note_off_c, 11, 82, 127
2, 212302, Note_off_c, 3, 51, 127
2, 212305, Note_on_c, 5, 53, 127
2, 212305, Note_on_c, 2, 74, 127
2, 212495, Note_on_c, 11, 82, 127
2, 212544, Note_off_c, 2, 74, 127
2, 212685, Note_off_c, 11, 82, 127
2, 212686, Note_off_c, 5, 53, 127
2, 212688, Note_on_c, 5, 41, 127
2, 212688, Note_on_c, 3, 75, 127
2, 212879, Note_on_c, 10, 81, 127
2, 212906, Note_off_c, 3, 75, 127
2, 213067, Note_off_c, 10, 81, 127
2, 213067, Note_off_c, 5, 41, 127
2, 213070, Note_on_c, 11, 46, 127
2, 213070, Note_on_c, 11, 82, 127
2, 213258, Note_off_c, 11, 46, 127
2, 213260, Note_on_c, 5, 53, 127
2, 213448, Note_off_c, 5, 53, 127
2, 213449, Note_off_c, 11, 82, 127
2, 213451, Note_on_c, 11, 58, 127
2, 213451, Note_on_c, 11, 70, 127
2, 214010, Note_off_c, 11, 70, 127
2, 214215, Note_off_c, 11, 58, 127
2, 214218, Note_on_c, 11, 46, 127
2, 214218, Note_on_c, 2, 74, 127
2, 214406, Note_off_c, 2, 74, 127
2, 214406, Note_off_c, 11, 46, 127
2, 214409, Note_on_c, 0, 48, 127
2, 214409, Note_on_c, 3, 75, 127
2, 214502, Note_off_c, 3, 75, 127
2, 214504, Note_on_c, 5, 77, 127
2, 214597, Note_off_c, 5, 77, 127
2, 214597, Note_off_c, 0, 48, 127
2, 214599, Note_on_c, 2, 50, 127
2, 214599, Note_on_c, 8, 68, 127
2, 214787, Note_off_c, 8, 68, 127
2, 214790, Note_on_c, 7, 67, 127
2, 214978, Note_off_c, 7, 67, 127
2, 214978, Note_off_c, 2, 50, 127
2, 214981, Note_on_c, 3, 51, 127
2, 214981, Note_on_c, 7, 67, 127
2, 215169, Note_off_c, 7, 67, 127
2, 215171, Note_on_c, 8, 68, 127
2, 215359, Note_off_c, 8, 68, 127
2, 215360, Note_off_c, 3, 51, 127
2, 215362, Note_on_c, 11, 46, 127
2, 215362, Note_on_c, 8, 68, 127
2, 215550, Note_off_c, 8, 68, 127
2, 215550, Note_off_c, 11, 46, 127
2, 215553, Note_on_c, 8, 56, 127
2, 215553, Note_on_c, 5, 77, 127
2, 215741, Note_off_c, 5, 77, 127
2, 215741, Note_off_c, 8, 56, 127
2, 215744, Note_on_c, 0, 48, 127
2, 215744, Note_on_c, 3, 75, 127
2, 215837, Note_off_c, 3, 75, 127
2, 215839, Note_on_c, 2, 74, 127
2, 215932, Note_off_c, 2, 74, 127
2, 215932, Note_off_c, 0, 48, 127
2, 215934, Note_on_c, 8, 56, 127
2, 215934, Note_on_c, 3, 75, 127
2, 216027, Note_off_c, 3, 75, 127
2, 216030, Note_on_c, 2, 74, 127
2, 216122, Note_off_c, 8, 56, 127
2, 216123, Note_off_c, 2, 74, 127
2, 216125, Note_on_c, 11, 46, 127
2, 216125, Note_on_c, 3, 75, 127
2, 216218, Note_off_c, 3, 75, 127
2, 216221, Note_on_c, 2, 74, 127
2, 216313, Note_off_c, 11, 46, 127
2, 216314, Note_off_c, 2, 74, 127
2, 216316, Note_on_c, 8, 56, 127
2, 216316, Note_on_c, 3, 75, 127
2, 216409, Note_off_c, 3, 75, 127
2, 216411, Note_on_c, 2, 74, 127
2, 216504, Note_off_c, 2, 74, 127
2, 216504, Note_off_c, 8, 56, 127
2, 216507, Note_on_c, 7, 55, 127
2, 216507, Note_on_c, 3, 75, 127
2, 216695, Note_off_c, 3, 75, 127
2, 216695, Note_off_c, 7, 55, 127
2, 216697, Note_on_c, 11, 58, 127
2, 216697, Note_on_c, 5, 77, 127
2, 216790, Note_off_c, 5, 77, 127
2, 216793, Note_on_c, 7, 79, 127
2, 216885, Note_off_c, 11, 58, 127
2, 216886, Note_off_c, 7, 79, 127
2, 216888, Note_on_c, 1, 61, 127
2, 216888, Note_on_c, 11, 70, 127
2, 217076, Note_off_c, 11, 70, 127
2, 217079, Note_on_c, 0, 72, 127
2, 217267, Note_off_c, 0, 72, 127
2, 217267, Note_off_c, 1, 61, 127
2, 217270, Note_on_c, 5, 53, 127
2, 217270, Note_on_c, 0, 72, 127
2, 217458, Note_off_c, 0, 72, 127
2, 217460, Note_on_c, 1, 73, 127
2, 217648, Note_off_c, 1, 73, 127
2, 217649, Note_off_c, 5, 53, 127
2, 217651, Note_on_c, 4, 52, 127
2, 217651, Note_on_c, 1, 73, 127
2, 217839, Note_off_c, 1, 73, 127
2, 217839, Note_off_c, 4, 52, 127
2, 217842, Note_on_c, 7, 55, 127
2, 217842, Note_on_c, 11, 82, 127
2, 218030, Note_off_c, 11, 82, 127
2, 218030, Note_off_c, 7, 55, 127
2, 218033, Note_on_c, 11, 58, 127
2, 218033, Note_on_c, 8, 80, 127
2, 218096, Note_off_c, 8, 80, 127
2, 218096, Note_on_c, 7, 79, 127
2, 218159, Note_off_c, 7, 79, 127
2, 218160, Note_on_c, 8, 80, 127
2, 218221, Note_off_c, 11, 58, 127
2, 218223, Note_off_c, 8, 80, 127
2, 218223, Note_on_c, 7, 79, 127
2, 218223, Note_on_c, 8, 56, 127
2, 218411, Note_off_c, 8, 56, 127
2, 218414, Note_on_c, 8, 56, 127
2, 218602, Note_off_c, 8, 56, 127
2, 218605, Note_on_c, 7, 55, 127
2, 218699, Note_off_c, 7, 79, 127
2, 218793, Note_off_c, 7, 55, 127
2, 218796, Note_on_c, 5, 53, 127
2, 218796, Note_on_c, 8, 80, 127
2, 218983, Note_off_c, 8, 80, 127
2, 218984, Note_on_c, 5, 77, 127
2, 219171, Note_off_c, 5, 77, 127
2, 219173, Note_off_c, 5, 53, 127
2, 219175, Note_on_c, 5, 65, 127
2, 219175, Note_on_c, 2, 74, 127
2, 219362, Note_off_c, 2, 74, 127
2, 219366, Note_on_c, 3, 75, 127
2, 219552, Note_off_c, 5, 65, 127
2, 219553, Note_off_c, 3, 75, 127
2, 219557, Note_on_c, 3, 75, 127
2, 219557, Note_on_c, 3, 63, 127
2, 219747, Note_off_c, 3, 75, 127
2, 219755, Note_on_c, 5, 77, 127
2, 219944, Note_off_c, 3, 63, 127
2, 219949, Note_off_c, 5, 77, 127
2, 219957, Note_on_c, 2, 62, 127
2, 219957, Note_on_c, 5, 77, 127
2, 220153, Note_off_c, 5, 77, 127
2, 220161, Note_on_c, 8, 68, 127
2, 220357, Note_off_c, 8, 68, 127
2, 220357, Note_off_c, 2, 62, 127
2, 220364, Note_on_c, 8, 68, 127
2, 220364, Note_on_c, 11, 58, 127
2, 220564, Note_off_c, 8, 68, 127
2, 220572, Note_on_c, 7, 67, 127
2, 220772, Note_off_c, 7, 67, 127
2, 220775, Note_off_c, 11, 58, 127
2, 220781, Note_on_c, 7, 67, 127
2, 220781, Note_on_c, 3, 63, 127
2, 220981, Note_off_c, 7, 67, 127
2, 220991, Note_on_c, 11, 70, 127
2, 221161, Note_off_c, 11, 70, 127
2, 221192, Note_off_c, 3, 63, 127
2, 221204, Note_on_c, 3, 75, 127
2, 221204, Note_on_c, 7, 55, 127
2, 221415, Note_off_c, 7, 55, 127
2, 221415, Note_off_c, 3, 75, 127
2, 221423, Note_on_c, 7, 67, 127
2, 221423, Note_on_c, 0, 60, 127
2, 221634, Note_off_c, 0, 60, 127
2, 221634, Note_off_c, 7, 67, 127
2, 221645, Note_on_c, 8, 68, 127
2, 221645, Note_on_c, 11, 58, 127
2, 221706, Note_off_c, 8, 68, 127
2, 221718, Note_on_c, 7, 67, 127
2, 221779, Note_off_c, 7, 67, 127
2, 221791, Note_on_c, 8, 68, 127
2, 221854, Note_off_c, 11, 58, 127
2, 221866, Note_on_c, 7, 55, 127
2, 222002, Note_off_c, 8, 68, 127
2, 222079, Note_off_c, 7, 55, 127
2, 222087, Note_on_c, 7, 67, 127
2, 222087, Note_on_c, 8, 56, 127
2, 222187, Note_off_c, 7, 67, 127
2, 222197, Note_on_c, 5, 65, 127
2, 222296, Note_off_c, 8, 56, 127
2, 222297, Note_off_c, 5, 65, 127
2, 222306, Note_on_c, 3, 63, 127
2, 222306, Note_on_c, 11, 58, 127
2, 222406, Note_off_c, 3, 63, 127
2, 222416, Note_on_c, 5, 65, 127
2, 222515, Note_off_c, 11, 58, 127
2, 222516, Note_off_c, 5, 65, 127
2, 222526, Note_on_c, 3, 63, 127
2, 222526, Note_on_c, 3, 51, 127
2, 224326, Note_off_c, 3, 51, 127
2, 224326, Note_off_c, 3, 63, 127
2, 224463, Note_on_c, 3, 39, 127
2, 224463, Note_on_c, 11, 70, 127
2, 224575, Note_off_c, 11, 70, 127
2, 224577, Note_on_c, 3, 75, 127
2, 224689, Note_off_c, 3, 75, 127
2, 224691, Note_on_c, 2, 74, 127
2, 224803, Note_off_c, 2, 74, 127
2, 224805, Note_on_c, 0, 72, 127
2, 224913, Note_off_c, 3, 39, 127
2, 224917, Note_off_c, 0, 72, 127
2, 224919, Note_on_c, 11, 70, 127
2, 225031, Note_off_c, 11, 70, 127
2, 225033, Note_on_c, 8, 68, 127
2, 225145, Note_off_c, 8, 68, 127
2, 225147, Note_on_c, 7, 67, 127
2, 225259, Note_off_c, 7, 67, 127
2, 225262, Note_on_c, 5, 65, 127
2, 225374, Note_off_c, 5, 65, 127
2, 225376, Note_on_c, 3, 63, 127
2, 225488, Note_on_c, 3, 51, 127
2, 225600, Note_off_c, 3, 51, 127
2, 225602, Note_on_c, 2, 62, 127
2, 225714, Note_off_c, 2, 62, 127
2, 225716, Note_on_c, 0, 60, 127
2, 225824, Note_off_c, 3, 63, 127
2, 225828, Note_off_c, 0, 60, 127
2, 225830, Note_on_c, 11, 58, 127
2, 225942, Note_off_c, 11, 58, 127
2, 225944, Note_on_c, 8, 56, 127
2, 226056, Note_off_c, 8, 56, 127
2, 226058, Note_on_c, 7, 55, 127
2, 226058, Note_on_c, 5, 65, 127
2, 226170, Note_off_c, 7, 55, 127
2, 226172, Note_on_c, 5, 53, 127
2, 226258, Note_off_c, 5, 65, 127
2, 226282, Note_off_c, 5, 53, 127
2, 226284, Note_on_c, 3, 51, 127
2, 226284, Note_on_c, 7, 67, 127
2, 226396, Note_off_c, 7, 67, 127
2, 226399, Note_on_c, 3, 63, 127
2, 226510, Note_off_c, 3, 51, 127
2, 226511, Note_off_c, 3, 63, 127
2, 226513, Note_on_c, 11, 58, 127
2, 226513, Note_on_c, 2, 62, 127
2, 226625, Note_off_c, 2, 62, 127
2, 226627, Note_on_c, 3, 63, 127
2, 226726, Note_off_c, 11, 58, 127
2, 226739, Note_off_c, 3, 63, 127
2, 226741, Note_on_c, 2, 50, 127
2, 226741, Note_on_c, 11, 70, 127
2, 226853, Note_off_c, 11, 70, 127
2, 226855, Note_on_c, 5, 65, 127
2, 226954, Note_off_c, 2, 50, 127
2, 226967, Note_off_c, 5, 65, 127
2, 226969, Note_on_c, 11, 58, 127
2, 226969, Note_on_c, 3, 63, 127
2, 227081, Note_off_c, 3, 63, 127
2, 227083, Note_on_c, 5, 65, 127
2, 227182, Note_off_c, 11, 58, 127
2, 227195, Note_off_c, 5, 65, 127
2, 227197, Note_on_c, 3, 51, 127
2, 227197, Note_on_c, 7, 67, 127
2, 227309, Note_off_c, 7, 67, 127
2, 227311, Note_on_c, 8, 68, 127
2, 227423, Note_off_c, 8, 68, 127
2, 227423, Note_off_c, 3, 51, 127
2, 227425, Note_on_c, 11, 46, 127
2, 227425, Note_on_c, 7, 67, 127
2, 227537, Note_off_c, 7, 67, 127
2, 227539, Note_on_c, 5, 65, 127
2, 227638, Note_off_c, 11, 46, 127
2, 227651, Note_off_c, 5, 65, 127
2, 227653, Note_on_c, 7, 43, 127
2, 227653, Note_on_c, 3, 63, 127
2, 227765, Note_off_c, 3, 63, 127
2, 227767, Note_on_c, 7, 67, 127
2, 227866, Note_off_c, 7, 43, 127
2, 227879, Note_off_c, 7, 67, 127
2, 227881, Note_on_c, 11, 46, 127
2, 227881, Note_on_c, 5, 65, 127
2, 227993, Note_off_c, 5, 65, 127
2, 227996, Note_on_c, 8, 68, 127
2, 228094, Note_off_c, 11, 46, 127
2, 228108, Note_off_c, 8, 68, 127
2, 228110, Note_on_c, 3, 39, 127
2, 228110, Note_on_c, 7, 67, 127
2, 228222, Note_off_c, 7, 67, 127
2, 228224, Note_on_c, 0, 72, 127
2, 228336, Note_off_c, 0, 72, 127
2, 228336, Note_off_c, 3, 39, 127
2, 228338, Note_on_c, 3, 51, 127
2, 228338, Note_on_c, 12, 71, 127
2, 228450, Note_off_c, 12, 71, 127
2, 228452, Note_on_c, 0, 72, 127
2, 228551, Note_off_c, 3, 51, 127
2, 228564, Note_off_c, 0, 72, 127
2, 228566, Note_on_c, 0, 48, 127
2, 228566, Note_on_c, 3, 75, 127
2, 228678, Note_off_c, 3, 75, 127
2, 228680, Note_on_c, 2, 74, 127
2, 228779, Note_off_c, 0, 48, 127
2, 228792, Note_off_c, 2, 74, 127
2, 228794, Note_on_c, 3, 51, 127
2, 228794, Note_on_c, 0, 72, 127
2, 228906, Note_off_c, 0, 72, 127
2, 228908, Note_on_c, 11, 70, 127
2, 229007, Note_off_c, 3, 51, 127
2, 229020, Note_off_c, 11, 70, 127
2, 229022, Note_on_c, 5, 41, 127
2, 229022, Note_on_c, 10, 69, 127
2, 229134, Note_off_c, 10, 69, 127
2, 229136, Note_on_c, 11, 70, 127
2, 229248, Note_off_c, 11, 70, 127
2, 229250, Note_on_c, 10, 69, 127
2, 229362, Note_off_c, 10, 69, 127
2, 229364, Note_on_c, 7, 67, 127
2, 229472, Note_off_c, 5, 41, 127
2, 229476, Note_off_c, 7, 67, 127
2, 229478, Note_on_c, 5, 65, 127
2, 229590, Note_off_c, 5, 65, 127
2, 229592, Note_on_c, 10, 69, 127
2, 229704, Note_off_c, 10, 69, 127
2, 229707, Note_on_c, 7, 67, 127
2, 229819, Note_off_c, 7, 67, 127
2, 229821, Note_on_c, 11, 70, 127
2, 229933, Note_off_c, 11, 70, 127
2, 229935, Note_on_c, 10, 69, 127
2, 230047, Note_off_c, 10, 69, 127
2, 230049, Note_on_c, 2, 74, 127
2, 230161, Note_off_c, 2, 74, 127
2, 230163, Note_on_c, 5, 53, 127
2, 230163, Note_on_c, 0, 72, 127
2, 230275, Note_off_c, 0, 72, 127
2, 230277, Note_on_c, 2, 74, 127
2, 230376, Note_off_c, 5, 53, 127
2, 230389, Note_off_c, 2, 74, 127
2, 230391, Note_on_c, 2, 50, 127
2, 230391, Note_on_c, 5, 77, 127
2, 230503, Note_off_c, 5, 77, 127
2, 230505, Note_on_c, 3, 75, 127
2, 230604, Note_off_c, 2, 50, 127
2, 230617, Note_off_c, 3, 75, 127
2, 230619, Note_on_c, 5, 53, 127
2, 230619, Note_on_c, 2, 74, 127
2, 230731, Note_off_c, 2, 74, 127
2, 230733, Note_on_c, 0, 72, 127
2, 230832, Note_off_c, 5, 53, 127
2, 230845, Note_off_c, 0, 72, 127
2, 230847, Note_on_c, 7, 43, 127
2, 230847, Note_on_c, 11, 70, 127
2, 230959, Note_off_c, 11, 70, 127
2, 230961, Note_on_c, 0, 72, 127
2, 231073, Note_off_c, 0, 72, 127
2, 231075, Note_on_c, 11, 70, 127
2, 231187, Note_off_c, 11, 70, 127
2, 231189, Note_on_c, 10, 69, 127
2, 231297, Note_off_c, 7, 43, 127
2, 231301, Note_off_c, 10, 69, 127
2, 231304, Note_on_c, 7, 67, 127
2, 231416, Note_off_c, 7, 67, 127
2, 231418, Note_on_c, 11, 70, 127
2, 231530, Note_off_c, 11, 70, 127
2, 231532, Note_on_c, 0, 72, 127
2, 231644, Note_off_c, 0, 72, 127
2, 231646, Note_on_c, 2, 74, 127
2, 231758, Note_off_c, 2, 74, 127
2, 231760, Note_on_c, 3, 75, 127
2, 231872, Note_off_c, 3, 75, 127
2, 231874, Note_on_c, 7, 79, 127
2, 231986, Note_off_c, 7, 79, 127
2, 231988, Note_on_c, 3, 51, 127
2, 231988, Note_on_c, 5, 77, 127
2, 232100, Note_off_c, 5, 77, 127
2, 232102, Note_on_c, 7, 79, 127
2, 232201, Note_off_c, 3, 51, 127
2, 232214, Note_off_c, 7, 79, 127
2, 232216, Note_on_c, 7, 55, 127
2, 232216, Note_on_c, 11, 82, 127
2, 232328, Note_off_c, 11, 82, 127
2, 232330, Note_on_c, 8, 80, 127
2, 232429, Note_off_c, 7, 55, 127
2, 232442, Note_off_c, 8, 80, 127
2, 232444, Note_on_c, 11, 58, 127
2, 232444, Note_on_c, 7, 79, 127
2, 232556, Note_off_c, 7, 79, 127
2, 232558, Note_on_c, 5, 77, 127
2, 232657, Note_off_c, 11, 58, 127
2, 232670, Note_off_c, 5, 77, 127
2, 232672, Note_on_c, 0, 48, 127
2, 232672, Note_on_c, 3, 75, 127
2, 232784, Note_off_c, 3, 75, 127
2, 232786, Note_on_c, 7, 79, 127
2, 232898, Note_off_c, 7, 79, 127
2, 232898, Note_off_c, 0, 48, 127
2, 232901, Note_on_c, 11, 58, 127
2, 232901, Note_on_c, 5, 77, 127
2, 233013, Note_off_c, 5, 77, 127
2, 233015, Note_on_c, 7, 79, 127
2, 233114, Note_off_c, 11, 58, 127
2, 233127, Note_off_c, 7, 79, 127
2, 233129, Note_on_c, 10, 57, 127
2, 233129, Note_on_c, 0, 84, 127
2, 233241, Note_off_c, 0, 84, 127
2, 233243, Note_on_c, 11, 82, 127
2, 233342, Note_off_c, 10, 57, 127
2, 233355, Note_off_c, 11, 82, 127
2, 233357, Note_on_c, 0, 60, 127
2, 233357, Note_on_c, 10, 81, 127
2, 233469, Note_off_c, 10, 81, 127
2, 233471, Note_on_c, 7, 79, 127
2, 233570, Note_off_c, 0, 60, 127
2, 233583, Note_off_c, 7, 79, 127
2, 233585, Note_on_c, 2, 50, 127
2, 233585, Note_on_c, 5, 77, 127
2, 233697, Note_off_c, 5, 77, 127
2, 233699, Note_on_c, 3, 75, 127
2, 233811, Note_off_c, 3, 75, 127
2, 233811, Note_off_c, 2, 50, 127
2, 233813, Note_on_c, 11, 58, 127
2, 233813, Note_on_c, 2, 74, 127
2, 233925, Note_off_c, 2, 74, 127
2, 233925, Note_off_c, 11, 58, 127
2, 233927, Note_on_c, 10, 57, 127
2, 233927, Note_on_c, 0, 72, 127
2, 234039, Note_off_c, 0, 72, 127
2, 234039, Note_off_c, 10, 57, 127
2, 234041, Note_on_c, 11, 58, 127
2, 234041, Note_on_c, 2, 74, 127
2, 234153, Note_off_c, 2, 74, 127
2, 234155, Note_on_c, 11, 70, 127
2, 234254, Note_off_c, 11, 58, 127
2, 234267, Note_off_c, 11, 70, 127
2, 234269, Note_on_c, 5, 53, 127
2, 234269, Note_on_c, 0, 72, 127
2, 234381, Note_off_c, 0, 72, 127
2, 234383, Note_on_c, 10, 69, 127
2, 234482, Note_off_c, 5, 53, 127
2, 234495, Note_off_c, 10, 69, 127
2, 234497, Note_on_c, 11, 46, 127
2, 234497, Note_on_c, 11, 70, 127
2, 234721, Note_off_c, 11, 46, 127
2, 234724, Note_on_c, 5, 53, 127
2, 234948, Note_off_c, 5, 53, 127
2, 234950, Note_on_c, 11, 58, 127
2, 235173, Note_off_c, 11, 70, 127
2, 235398, Note_off_c, 11, 58, 127
2, 235401, Note_on_c, 11, 46, 127
2, 235401, Note_on_c, 2, 74, 127
2, 235513, Note_off_c, 2, 74, 127
2, 235515, Note_on_c, 11, 70, 127
2, 235627, Note_off_c, 11, 70, 127
2, 235629, Note_on_c, 0, 72, 127
2, 235741, Note_off_c, 0, 72, 127
2, 235743, Note_on_c, 2, 74, 127
2, 235851, Note_off_c, 11, 46, 127
2, 235855, Note_off_c, 2, 74, 127
2, 235857, Note_on_c, 3, 75, 127
2, 235969, Note_off_c, 3, 75, 127
2, 235971, Note_on_c, 5, 77, 127
2, 236083, Note_off_c, 5, 77, 127
2, 236085, Note_on_c, 7, 79, 127
2, 236197, Note_off_c, 7, 79, 127
2, 236199, Note_on_c, 8, 80, 127
2, 236311, Note_off_c, 8, 80, 127
2, 236313, Note_on_c, 3, 51, 127
2, 236313, Note_on_c, 7, 79, 127
2, 236425, Note_off_c, 3, 51, 127
2, 236427, Note_on_c, 0, 48, 127
2, 236539, Note_off_c, 0, 48, 127
2, 236541, Note_on_c, 2, 50, 127
2, 236653, Note_off_c, 2, 50, 127
2, 236655, Note_on_c, 3, 51, 127
2, 236763, Note_off_c, 7, 79, 127
2, 236767, Note_off_c, 3, 51, 127
2, 236770, Note_on_c, 5, 53, 127
2, 236882, Note_off_c, 5, 53, 127
2, 236884, Note_on_c, 7, 55, 127
2, 236996, Note_off_c, 7, 55, 127
2, 236998, Note_on_c, 10, 57, 127
2, 236998, Note_on_c, 5, 77, 127
2, 237110, Note_off_c, 10, 57, 127
2, 237112, Note_on_c, 12, 59, 127
2, 237198, Note_off_c, 5, 77, 127
2, 237222, Note_off_c, 12, 59, 127
2, 237224, Note_on_c, 0, 60, 127
2, 237224, Note_on_c, 3, 75, 127
2, 237336, Note_off_c, 3, 75, 127
2, 237338, Note_on_c, 0, 72, 127
2, 237450, Note_off_c, 0, 72, 127
2, 237450, Note_off_c, 0, 60, 127
2, 237452, Note_on_c, 8, 56, 127
2, 237452, Note_on_c, 12, 71, 127
2, 237564, Note_off_c, 12, 71, 127
2, 237566, Note_on_c, 0, 72, 127
2, 237665, Note_off_c, 8, 56, 127
2, 237678, Note_off_c, 0, 72, 127
2, 237680, Note_on_c, 5, 53, 127
2, 237680, Note_on_c, 8, 80, 127
2, 237792, Note_off_c, 8, 80, 127
2, 237794, Note_on_c, 0, 72, 127
2, 237893, Note_off_c, 5, 53, 127
2, 237906, Note_off_c, 0, 72, 127
2, 237908, Note_on_c, 8, 56, 127
2, 237908, Note_on_c, 12, 71, 127
2, 238020, Note_off_c, 12, 71, 127
2, 238022, Note_on_c, 0, 72, 127
2, 238121, Note_off_c, 8, 56, 127
2, 238134, Note_off_c, 0, 72, 127
2, 238137, Note_on_c, 7, 55, 127
2, 238137, Note_on_c, 2, 74, 127
2, 238249, Note_off_c, 2, 74, 127
2, 238251, Note_on_c, 0, 72, 127
2, 238363, Note_off_c, 0, 72, 127
2, 238365, Note_on_c, 12, 71, 127
2, 238477, Note_off_c, 12, 71, 127
2, 238479, Note_on_c, 10, 69, 127
2, 238587, Note_off_c, 7, 55, 127
2, 238591, Note_off_c, 10, 69, 127
2, 238593, Note_on_c, 7, 67, 127
2, 238705, Note_on_c, 5, 65, 127
2, 238817, Note_off_c, 5, 65, 127
2, 238819, Note_on_c, 4, 64, 127
2, 238922, Note_off_c, 7, 67, 127
2, 238929, Note_off_c, 4, 64, 127
2, 238931, Note_on_c, 2, 62, 127
2, 239043, Note_off_c, 2, 62, 127
2, 239045, Note_on_c, 4, 64, 127
2, 239158, Note_on_c, 0, 72, 127
2, 239267, Note_off_c, 4, 64, 127
2, 239270, Note_off_c, 0, 72, 127
2, 239272, Note_on_c, 7, 67, 127
2, 239272, Note_on_c, 12, 71, 127
2, 239384, Note_off_c, 12, 71, 127
2, 239386, Note_on_c, 0, 72, 127
2, 239485, Note_off_c, 7, 67, 127
2, 239498, Note_off_c, 0, 72, 127
2, 239500, Note_on_c, 4, 64, 127
2, 239500, Note_on_c, 1, 73, 127
2, 239612, Note_off_c, 1, 73, 127
2, 239614, Note_on_c, 0, 72, 127
2, 239713, Note_off_c, 4, 64, 127
2, 239726, Note_off_c, 0, 72, 127
2, 239728, Note_on_c, 7, 67, 127
2, 239728, Note_on_c, 12, 71, 127
2, 239840, Note_off_c, 12, 71, 127
2, 239842, Note_on_c, 0, 72, 127
2, 239941, Note_off_c, 7, 67, 127
2, 239954, Note_off_c, 0, 72, 127
2, 239956, Note_on_c, 5, 53, 127
2, 239956, Note_on_c, 8, 80, 127
2, 240068, Note_on_c, 5, 77, 127
2, 240178, Note_off_c, 8, 80, 127
2, 240178, Note_off_c, 5, 53, 127
2, 240180, Note_off_c, 5, 77, 127
2, 240182, Note_on_c, 0, 72, 127
2, 240294, Note_on_c, 11, 70, 127
2, 240406, Note_off_c, 11, 70, 127
2, 240409, Note_on_c, 8, 68, 127
2, 240511, Note_off_c, 0, 72, 127
2, 240519, Note_off_c, 8, 68, 127
2, 240521, Note_on_c, 7, 67, 127
2, 240633, Note_off_c, 7, 67, 127
2, 240635, Note_on_c, 5, 65, 127
2, 240747, Note_off_c, 5, 65, 127
2, 240749, Note_on_c, 3, 63, 127
2, 240861, Note_off_c, 3, 63, 127
2, 240863, Note_on_c, 2, 62, 127
2, 240975, Note_on_c, 11, 70, 127
2, 241087, Note_off_c, 11, 70, 127
2, 241087, Note_off_c, 2, 62, 127
2, 241089, Note_on_c, 5, 65, 127
2, 241089, Note_on_c, 10, 69, 127
2, 241201, Note_off_c, 10, 69, 127
2, 241203, Note_on_c, 11, 70, 127
2, 241302, Note_off_c, 5, 65, 127
2, 241315, Note_off_c, 11, 70, 127
2, 241317, Note_on_c, 2, 62, 127
2, 241317, Note_on_c, 0, 72, 127
2, 241429, Note_off_c, 0, 72, 127
2, 241431, Note_on_c, 11, 70, 127
2, 241530, Note_off_c, 2, 62, 127
2, 241543, Note_off_c, 11, 70, 127
2, 241546, Note_on_c, 5, 65, 127
2, 241546, Note_on_c, 10, 69, 127
2, 241658, Note_off_c, 10, 69, 127
2, 241660, Note_on_c, 11, 70, 127
2, 241759, Note_off_c, 5, 65, 127
2, 241772, Note_off_c, 11, 70, 127
2, 241774, Note_on_c, 3, 51, 127
2, 241774, Note_on_c, 7, 79, 127
2, 241886, Note_on_c, 3, 75, 127
2, 241996, Note_off_c, 7, 79, 127
2, 241996, Note_off_c, 3, 51, 127
2, 241998, Note_off_c, 3, 75, 127
2, 242000, Note_on_c, 11, 70, 127
2, 242112, Note_on_c, 8, 68, 127
2, 242224, Note_off_c, 8, 68, 127
2, 242226, Note_on_c, 7, 67, 127
2, 242329, Note_off_c, 11, 70, 127
2, 242336, Note_off_c, 7, 67, 127
2, 242338, Note_on_c, 5, 65, 127
2, 242450, Note_off_c, 5, 65, 127
2, 242452, Note_on_c, 3, 63, 127
2, 242564, Note_off_c, 3, 63, 127
2, 242567, Note_on_c, 2, 62, 127
2, 242679, Note_off_c, 2, 62, 127
2, 242681, Note_on_c, 0, 60, 127
2, 242793, Note_off_c, 0, 60, 127
2, 242795, Note_on_c, 11, 70, 127
2, 242907, Note_off_c, 11, 70, 127
2, 242909, Note_on_c, 8, 68, 127
2, 242909, Note_on_c, 5, 77, 127
2, 243021, Note_off_c, 5, 77, 127
2, 243021, Note_off_c, 8, 68, 127
2, 243023, Note_on_c, 7, 67, 127
2, 243023, Note_on_c, 3, 75, 127
2, 243135, Note_off_c, 3, 75, 127
2, 243135, Note_off_c, 7, 67, 127
2, 243137, Note_on_c, 5, 65, 127
2, 243137, Note_on_c, 2, 74, 127
2, 243249, Note_off_c, 2, 74, 127
2, 243249, Note_off_c, 5, 65, 127
2, 243251, Note_on_c, 3, 63, 127
2, 243251, Note_on_c, 3, 75, 127
2, 243363, Note_off_c, 3, 75, 127
2, 243363, Note_off_c, 3, 63, 127
2, 243365, Note_on_c, 2, 62, 127
2, 243365, Note_on_c, 5, 77, 127
2, 243477, Note_off_c, 2, 62, 127
2, 243479, Note_on_c, 0, 60, 127
2, 243591, Note_off_c, 0, 60, 127
2, 243593, Note_on_c, 12, 59, 127
2, 243695, Note_off_c, 5, 77, 127
2, 243703, Note_off_c, 12, 59, 127
2, 243705, Note_on_c, 8, 68, 127
2, 243817, Note_off_c, 8, 68, 127
2, 243819, Note_on_c, 7, 67, 127
2, 243819, Note_on_c, 3, 75, 127
2, 243931, Note_off_c, 3, 75, 127
2, 243931, Note_off_c, 7, 67, 127
2, 243934, Note_on_c, 5, 65, 127
2, 243934, Note_on_c, 2, 74, 127
2, 244046, Note_off_c, 2, 74, 127
2, 244046, Note_off_c, 5, 65, 127
2, 244048, Note_on_c, 3, 63, 127
2, 244048, Note_on_c, 0, 72, 127
2, 244160, Note_off_c, 0, 72, 127
2, 244160, Note_off_c, 3, 63, 127
2, 244162, Note_on_c, 2, 62, 127
2, 244162, Note_on_c, 2, 74, 127
2, 244274, Note_off_c, 2, 74, 127
2, 244274, Note_off_c, 2, 62, 127
2, 244276, Note_on_c, 0, 60, 127
2, 244276, Note_on_c, 3, 75, 127
2, 244388, Note_off_c, 0, 60, 127
2, 244390, Note_on_c, 11, 58, 127
2, 244502, Note_off_c, 11, 58, 127
2, 244504, Note_on_c, 8, 56, 127
2, 244606, Note_off_c, 3, 75, 127
2, 244614, Note_off_c, 8, 56, 127
2, 244616, Note_on_c, 7, 55, 127
2, 244728, Note_off_c, 7, 55, 127
2, 244730, Note_on_c, 8, 56, 127
2, 244730, Note_on_c, 2, 74, 127
2, 244842, Note_off_c, 2, 74, 127
2, 244842, Note_off_c, 8, 56, 127
2, 244844, Note_on_c, 5, 53, 127
2, 244844, Note_on_c, 0, 72, 127
2, 244956, Note_off_c, 0, 72, 127
2, 244956, Note_off_c, 5, 53, 127
2, 244958, Note_on_c, 7, 55, 127
2, 244958, Note_on_c, 7, 79, 127
2, 245070, Note_off_c, 7, 79, 127
2, 245072, Note_on_c, 5, 77, 127
2, 245171, Note_off_c, 7, 55, 127
2, 245184, Note_off_c, 5, 77, 127
2, 245186, Note_on_c, 7, 43, 127
2, 245186, Note_on_c, 3, 75, 127
2, 245298, Note_off_c, 3, 75, 127
2, 245300, Note_on_c, 2, 74, 127
2, 245399, Note_off_c, 7, 43, 127
2, 245412, Note_off_c, 2, 74, 127
2, 245415, Note_on_c, 0, 72, 127
2, 245527, Note_on_c, 0, 48, 127
2, 245637, Note_off_c, 0, 72, 127
2, 245639, Note_off_c, 0, 48, 127
2, 245641, Note_on_c, 2, 50, 127
2, 245753, Note_off_c, 2, 50, 127
2, 245755, Note_on_c, 3, 51, 127
2, 245867, Note_off_c, 3, 51, 127
2, 245869, Note_on_c, 5, 53, 127
2, 245981, Note_off_c, 5, 53, 127
2, 245983, Note_on_c, 7, 55, 127
2, 246095, Note_off_c, 7, 55, 127
2, 246097, Note_on_c, 10, 57, 127
2, 246209, Note_off_c, 10, 57, 127
2, 246211, Note_on_c, 12, 59, 127
2, 246323, Note_off_c, 12, 59, 127
2, 246325, Note_on_c, 0, 60, 127
2, 246437, Note_on_c, 0, 72, 127
2, 246549, Note_off_c, 0, 72, 127
2, 246549, Note_off_c, 0, 60, 127
2, 246552, Note_on_c, 11, 58, 127
2, 246552, Note_on_c, 2, 74, 127
2, 246664, Note_off_c, 2, 74, 127
2, 246666, Note_on_c, 3, 75, 127
2, 246765, Note_off_c, 11, 58, 127
2, 246778, Note_off_c, 3, 75, 127
2, 246780, Note_on_c, 10, 57, 127
2, 246780, Note_on_c, 2, 74, 127
2, 246892, Note_off_c, 2, 74, 127
2, 246894, Note_on_c, 0, 72, 127
2, 246993, Note_off_c, 10, 57, 127
2, 247006, Note_off_c, 0, 72, 127
2, 247008, Note_on_c, 7, 55, 127
2, 247008, Note_on_c, 11, 70, 127
2, 247120, Note_off_c, 11, 70, 127
2, 247122, Note_on_c, 10, 69, 127
2, 247221, Note_off_c, 7, 55, 127
2, 247234, Note_off_c, 10, 69, 127
2, 247236, Note_on_c, 10, 57, 127
2, 247236, Note_on_c, 5, 77, 127
2, 247348, Note_off_c, 10, 57, 127
2, 247350, Note_on_c, 3, 51, 127
2, 247462, Note_off_c, 3, 51, 127
2, 247464, Note_on_c, 5, 53, 127
2, 247576, Note_off_c, 5, 53, 127
2, 247578, Note_on_c, 7, 55, 127
2, 247686, Note_off_c, 5, 77, 127
2, 247690, Note_off_c, 7, 55, 127
2, 247692, Note_on_c, 5, 53, 127
2, 247804, Note_off_c, 5, 53, 127
2, 247806, Note_on_c, 3, 51, 127
2, 247918, Note_off_c, 3, 51, 127
2, 247920, Note_on_c, 2, 50, 127
2, 247920, Note_on_c, 10, 69, 127
2, 248032, Note_off_c, 2, 50, 127
2, 248034, Note_on_c, 0, 48, 127
2, 248120, Note_off_c, 10, 69, 127
2, 248144, Note_off_c, 0, 48, 127
2, 248147, Note_on_c, 2, 50, 127
2, 248147, Note_on_c, 11, 70, 127
2, 248259, Note_off_c, 11, 70, 127
2, 248259, Note_off_c, 2, 50, 127
2, 248261, Note_on_c, 0, 48, 127
2, 248261, Note_on_c, 5, 65, 127
2, 248373, Note_off_c, 5, 65, 127
2, 248373, Note_off_c, 0, 48, 127
2, 248375, Note_on_c, 2, 50, 127
2, 248375, Note_on_c, 7, 67, 127
2, 248487, Note_off_c, 7, 67, 127
2, 248487, Note_off_c, 2, 50, 127
2, 248489, Note_on_c, 3, 51, 127
2, 248489, Note_on_c, 10, 69, 127
2, 248601, Note_off_c, 10, 69, 127
2, 248601, Note_off_c, 3, 51, 127
2, 248603, Note_on_c, 2, 50, 127
2, 248603, Note_on_c, 11, 70, 127
2, 248715, Note_off_c, 11, 70, 127
2, 248715, Note_off_c, 2, 50, 127
2, 248717, Note_on_c, 0, 48, 127
2, 248717, Note_on_c, 2, 74, 127
2, 248829, Note_off_c, 2, 74, 127
2, 248829, Note_off_c, 0, 48, 127
2, 248831, Note_on_c, 11, 46, 127
2, 248831, Note_on_c, 0, 72, 127
2, 248943, Note_off_c, 0, 72, 127
2, 248943, Note_off_c, 11, 46, 127
2, 248945, Note_on_c, 10, 45, 127
2, 248945, Note_on_c, 3, 75, 127
2, 249057, Note_off_c, 3, 75, 127
2, 249057, Note_off_c, 10, 45, 127
2, 249059, Note_on_c, 11, 46, 127
2, 249059, Note_on_c, 2, 74, 127
2, 249171, Note_off_c, 2, 74, 127
2, 249173, Note_on_c, 11, 70, 127
2, 249285, Note_off_c, 11, 70, 127
2, 249285, Note_off_c, 11, 46, 127
2, 249287, Note_on_c, 8, 56, 127
2, 249287, Note_on_c, 0, 72, 127
2, 249399, Note_off_c, 0, 72, 127
2, 249401, Note_on_c, 2, 74, 127
2, 249500, Note_off_c, 8, 56, 127
2, 249513, Note_off_c, 2, 74, 127
2, 249515, Note_on_c, 7, 55, 127
2, 249515, Note_on_c, 3, 75, 127
2, 249627, Note_off_c, 3, 75, 127
2, 249630, Note_on_c, 7, 79, 127
2, 249728, Note_off_c, 7, 55, 127
2, 249742, Note_off_c, 7, 79, 127
2, 249744, Note_on_c, 11, 58, 127
2, 249744, Note_on_c, 5, 77, 127
2, 249856, Note_off_c, 5, 77, 127
2, 249858, Note_on_c, 8, 80, 127
2, 249957, Note_off_c, 11, 58, 127
2, 249970, Note_off_c, 8, 80, 127
2, 249972, Note_on_c, 3, 51, 127
2, 249972, Note_on_c, 7, 79, 127
2, 250084, Note_off_c, 7, 79, 127
2, 250086, Note_on_c, 3, 75, 127
2, 250198, Note_off_c, 3, 75, 127
2, 250198, Note_off_c, 3, 51, 127
2, 250200, Note_on_c, 1, 49, 127
2, 250200, Note_on_c, 5, 77, 127
2, 250312, Note_off_c, 5, 77, 127
2, 250314, Note_on_c, 7, 79, 127
2, 250413, Note_off_c, 1, 49, 127
2, 250426, Note_off_c, 7, 79, 127
2, 250428, Note_on_c, 0, 48, 127
2, 250428, Note_on_c, 8, 80, 127
2, 250540, Note_off_c, 8, 80, 127
2, 250542, Note_on_c, 7, 79, 127
2, 250641, Note_off_c, 0, 48, 127
2, 250654, Note_off_c, 7, 79, 127
2, 250656, Note_on_c, 3, 51, 127
2, 250656, Note_on_c, 5, 77, 127
2, 250768, Note_off_c, 5, 77, 127
2, 250770, Note_on_c, 3, 75, 127
2, 250869, Note_off_c, 3, 51, 127
2, 250882, Note_off_c, 3, 75, 127
2, 250884, Note_on_c, 8, 44, 127
2, 250884, Note_on_c, 1, 73, 127
2, 250996, Note_off_c, 1, 73, 127
2, 250998, Note_on_c, 11, 70, 127
2, 251110, Note_off_c, 11, 70, 127
2, 251110, Note_off_c, 8, 44, 127
2, 251112, Note_on_c, 8, 56, 127
2, 251112, Note_on_c, 0, 72, 127
2, 251224, Note_off_c, 0, 72, 127
2, 251227, Note_on_c, 5, 77, 127
2, 251325, Note_off_c, 8, 56, 127
2, 251339, Note_off_c, 5, 77, 127
2, 251341, Note_on_c, 7, 55, 127
2, 251341, Note_on_c, 3, 75, 127
2, 251453, Note_off_c, 3, 75, 127
2, 251455, Note_on_c, 2, 74, 127
2, 251554, Note_off_c, 7, 55, 127
2, 251567, Note_off_c, 2, 74, 127
2, 251569, Note_on_c, 3, 51, 127
2, 251569, Note_on_c, 0, 72, 127
2, 251681, Note_off_c, 0, 72, 127
2, 251683, Note_on_c, 11, 70, 127
2, 251782, Note_off_c, 3, 51, 127
2, 251795, Note_off_c, 11, 70, 127
2, 251797, Note_on_c, 2, 50, 127
2, 251797, Note_on_c, 8, 68, 127
2, 251909, Note_off_c, 8, 68, 127
2, 251911, Note_on_c, 5, 65, 127
2, 252023, Note_off_c, 5, 65, 127
2, 252023, Note_off_c, 2, 50, 127
2, 252025, Note_on_c, 3, 51, 127
2, 252025, Note_on_c, 7, 67, 127
2, 252137, Note_off_c, 7, 67, 127
2, 252139, Note_on_c, 3, 75, 127
2, 252238, Note_off_c, 3, 51, 127
2, 252251, Note_off_c, 3, 75, 127
2, 252253, Note_on_c, 8, 56, 127
2, 252253, Note_on_c, 2, 74, 127
2, 252365, Note_off_c, 2, 74, 127
2, 252367, Note_on_c, 0, 72, 127
2, 252466, Note_off_c, 8, 56, 127
2, 252479, Note_off_c, 0, 72, 127
2, 252481, Note_on_c, 5, 53, 127
2, 252481, Note_on_c, 11, 70, 127
2, 252593, Note_off_c, 11, 70, 127
2, 252595, Note_on_c, 8, 68, 127
2, 252694, Note_off_c, 5, 53, 127
2, 252707, Note_off_c, 8, 68, 127
2, 252709, Note_on_c, 11, 58, 127
2, 252709, Note_on_c, 7, 67, 127
2, 252821, Note_off_c, 7, 67, 127
2, 252823, Note_on_c, 3, 63, 127
2, 252935, Note_off_c, 3, 63, 127
2, 252938, Note_on_c, 5, 65, 127
2, 253049, Note_off_c, 11, 58, 127
2, 253052, Note_on_c, 0, 60, 127
2, 253162, Note_off_c, 5, 65, 127
2, 253164, Note_off_c, 0, 60, 127
2, 253166, Note_on_c, 11, 58, 127
2, 253278, Note_off_c, 11, 58, 127
2, 253280, Note_on_c, 8, 56, 127
2, 253392, Note_off_c, 8, 56, 127
2, 253394, Note_on_c, 7, 55, 127
2, 253506, Note_off_c, 7, 55, 127
2, 253508, Note_on_c, 5, 53, 127
2, 253620, Note_off_c, 5, 53, 127
2, 253622, Note_on_c, 3, 51, 127
2, 253622, Note_on_c, 11, 70, 127
2, 253734, Note_off_c, 11, 70, 127
2, 253736, Note_on_c, 3, 75, 127
2, 253848, Note_off_c, 3, 75, 127
2, 253850, Note_on_c, 2, 74, 127
2, 253962, Note_off_c, 2, 74, 127
2, 253964, Note_on_c, 0, 72, 127
2, 254072, Note_off_c, 3, 51, 127
2, 254076, Note_off_c, 0, 72, 127
2, 254078, Note_on_c, 11, 70, 127
2, 254190, Note_off_c, 11, 70, 127
2, 254192, Note_on_c, 8, 68, 127
2, 254304, Note_off_c, 8, 68, 127
2, 254306, Note_on_c, 7, 67, 127
2, 254418, Note_off_c, 7, 67, 127
2, 254420, Note_on_c, 5, 65, 127
2, 254532, Note_off_c, 5, 65, 127
2, 254535, Note_on_c, 3, 63, 127
2, 254647, Note_on_c, 3, 51, 127
2, 254759, Note_off_c, 3, 51, 127
2, 254761, Note_on_c, 2, 62, 127
2, 254873, Note_off_c, 2, 62, 127
2, 254875, Note_on_c, 0, 60, 127
2, 254983, Note_off_c, 3, 63, 127
2, 254987, Note_off_c, 0, 60, 127
2, 254989, Note_on_c, 11, 58, 127
2, 255101, Note_off_c, 11, 58, 127
2, 255103, Note_on_c, 8, 56, 127
2, 255215, Note_off_c, 8, 56, 127
2, 255217, Note_on_c, 7, 55, 127
2, 255217, Note_on_c, 5, 65, 127
2, 255329, Note_off_c, 7, 55, 127
2, 255331, Note_on_c, 5, 53, 127
2, 255417, Note_off_c, 5, 65, 127
2, 255441, Note_off_c, 5, 53, 127
2, 255443, Note_on_c, 3, 51, 127
2, 255443, Note_on_c, 7, 67, 127
2, 255555, Note_off_c, 7, 67, 127
2, 255557, Note_on_c, 0, 72, 127
2, 255669, Note_off_c, 0, 72, 127
2, 255669, Note_off_c, 3, 51, 127
2, 255672, Note_on_c, 7, 55, 127
2, 255672, Note_on_c, 11, 70, 127
2, 255784, Note_off_c, 11, 70, 127
2, 255786, Note_on_c, 8, 68, 127
2, 255885, Note_off_c, 7, 55, 127
2, 255898, Note_off_c, 8, 68, 127
2, 255900, Note_on_c, 3, 51, 127
2, 255900, Note_on_c, 7, 67, 127
2, 256012, Note_off_c, 7, 67, 127
2, 256014, Note_on_c, 5, 65, 127
2, 256113, Note_off_c, 3, 51, 127
2, 256126, Note_off_c, 5, 65, 127
2, 256128, Note_on_c, 7, 55, 127
2, 256128, Note_on_c, 3, 63, 127
2, 256240, Note_off_c, 3, 63, 127
2, 256242, Note_on_c, 1, 61, 127
2, 256341, Note_off_c, 7, 55, 127
2, 256354, Note_off_c, 1, 61, 127
2, 256356, Note_on_c, 8, 56, 127
2, 256356, Note_on_c, 0, 60, 127
2, 256468, Note_off_c, 0, 60, 127
2, 256470, Note_on_c, 1, 61, 127
2, 256582, Note_off_c, 1, 61, 127
2, 256582, Note_off_c, 8, 56, 127
2, 256584, Note_on_c, 3, 51, 127
2, 256584, Note_on_c, 0, 60, 127
2, 256696, Note_off_c, 0, 60, 127
2, 256698, Note_on_c, 11, 58, 127
2, 256797, Note_off_c, 3, 51, 127
2, 256810, Note_off_c, 11, 58, 127
2, 256812, Note_on_c, 0, 48, 127
2, 256812, Note_on_c, 8, 56, 127
2, 256924, Note_off_c, 8, 56, 127
2, 256926, Note_on_c, 0, 60, 127
2, 257025, Note_off_c, 0, 48, 127
2, 257038, Note_off_c, 0, 60, 127
2, 257040, Note_on_c, 3, 51, 127
2, 257040, Note_on_c, 11, 58, 127
2, 257152, Note_off_c, 11, 58, 127
2, 257154, Note_on_c, 1, 61, 127
2, 257253, Note_off_c, 3, 51, 127
2, 257266, Note_off_c, 1, 61, 127
2, 257268, Note_on_c, 8, 44, 127
2, 257268, Note_on_c, 0, 60, 127
2, 257380, Note_off_c, 0, 60, 127
2, 257383, Note_on_c, 5, 65, 127
2, 257494, Note_off_c, 8, 44, 127
2, 257495, Note_off_c, 5, 65, 127
2, 257497, Note_on_c, 8, 56, 127
2, 257497, Note_on_c, 4, 64, 127
2, 257609, Note_off_c, 4, 64, 127
2, 257611, Note_on_c, 5, 65, 127
2, 257710, Note_off_c, 8, 56, 127
2, 257723, Note_off_c, 5, 65, 127
2, 257725, Note_on_c, 5, 53, 127
2, 257725, Note_on_c, 8, 68, 127
2, 257837, Note_off_c, 8, 68, 127
2, 257839, Note_on_c, 7, 67, 127
2, 257938, Note_off_c, 5, 53, 127
2, 257951, Note_off_c, 7, 67, 127
2, 257953, Note_on_c, 8, 56, 127
2, 257953, Note_on_c, 5, 65, 127
2, 258065, Note_off_c, 5, 65, 127
2, 258067, Note_on_c, 3, 63, 127
2, 258166, Note_off_c, 8, 56, 127
2, 258179, Note_off_c, 3, 63, 127
2, 258181, Note_on_c, 11, 46, 127
2, 258181, Note_on_c, 2, 62, 127
2, 258293, Note_off_c, 2, 62, 127
2, 258295, Note_on_c, 3, 63, 127
2, 258407, Note_off_c, 3, 63, 127
2, 258409, Note_on_c, 2, 62, 127
2, 258521, Note_off_c, 2, 62, 127
2, 258523, Note_on_c, 0, 60, 127
2, 258631, Note_off_c, 11, 46, 127
2, 258635, Note_off_c, 0, 60, 127
2, 258637, Note_on_c, 11, 58, 127
2, 258749, Note_off_c, 11, 58, 127
2, 258751, Note_on_c, 2, 62, 127
2, 258863, Note_off_c, 2, 62, 127
2, 258865, Note_on_c, 0, 60, 127
2, 258977, Note_off_c, 0, 60, 127
2, 258980, Note_on_c, 3, 63, 127
2, 259092, Note_off_c, 3, 63, 127
2, 259094, Note_on_c, 2, 62, 127
2, 259206, Note_off_c, 2, 62, 127
2, 259208, Note_on_c, 7, 67, 127
2, 259320, Note_off_c, 7, 67, 127
2, 259322, Note_on_c, 11, 58, 127
2, 259322, Note_on_c, 5, 65, 127
2, 259434, Note_off_c, 5, 65, 127
2, 259436, Note_on_c, 7, 67, 127
2, 259535, Note_off_c, 11, 58, 127
2, 259548, Note_off_c, 7, 67, 127
2, 259550, Note_on_c, 7, 55, 127
2, 259550, Note_on_c, 11, 70, 127
2, 259662, Note_off_c, 11, 70, 127
2, 259664, Note_on_c, 8, 68, 127
2, 259763, Note_off_c, 7, 55, 127
2, 259776, Note_off_c, 8, 68, 127
2, 259778, Note_on_c, 11, 58, 127
2, 259778, Note_on_c, 7, 67, 127
2, 259890, Note_off_c, 7, 67, 127
2, 259892, Note_on_c, 5, 65, 127
2, 259991, Note_off_c, 11, 58, 127
2, 260004, Note_off_c, 5, 65, 127
2, 260006, Note_on_c, 0, 48, 127
2, 260006, Note_on_c, 3, 63, 127
2, 260118, Note_off_c, 3, 63, 127
2, 260120, Note_on_c, 5, 65, 127
2, 260232, Note_off_c, 5, 65, 127
2, 260234, Note_on_c, 3, 63, 127
2, 260346, Note_off_c, 3, 63, 127
2, 260348, Note_on_c, 2, 62, 127
2, 260456, Note_off_c, 0, 48, 127
2, 260460, Note_off_c, 2, 62, 127
2, 260462, Note_on_c, 0, 60, 127
2, 260574, Note_off_c, 0, 60, 127
2, 260577, Note_on_c, 3, 63, 127
2, 260689, Note_off_c, 3, 63, 127
2, 260691, Note_on_c, 5, 65, 127
2, 260803, Note_off_c, 5, 65, 127
2, 260805, Note_on_c, 7, 67, 127
2, 260917, Note_off_c, 7, 67, 127
2, 260919, Note_on_c, 8, 68, 127
2, 261033, Note_off_c, 8, 68, 127
2, 261035, Note_on_c, 0, 72, 127
2, 261149, Note_off_c, 0, 72, 127
2, 261151, Note_on_c, 11, 70, 127
2, 261151, Note_on_c, 8, 56, 127
2, 261265, Note_off_c, 11, 70, 127
2, 261267, Note_on_c, 0, 72, 127
2, 261367, Note_off_c, 8, 56, 127
2, 261381, Note_off_c, 0, 72, 127
2, 261382, Note_on_c, 3, 75, 127
2, 261382, Note_on_c, 0, 60, 127
2, 261496, Note_off_c, 3, 75, 127
2, 261498, Note_on_c, 1, 73, 127
2, 261598, Note_off_c, 0, 60, 127
2, 261612, Note_off_c, 1, 73, 127
2, 261614, Note_on_c, 0, 72, 127
2, 261614, Note_on_c, 3, 63, 127
2, 261728, Note_off_c, 0, 72, 127
2, 261730, Note_on_c, 11, 70, 127
2, 261830, Note_off_c, 3, 63, 127
2, 261844, Note_off_c, 11, 70, 127
2, 261846, Note_on_c, 5, 53, 127
2, 261846, Note_on_c, 8, 68, 127
2, 261961, Note_off_c, 8, 68, 127
2, 261964, Note_on_c, 0, 72, 127
2, 262079, Note_off_c, 0, 72, 127
2, 262081, Note_off_c, 5, 53, 127
2, 262084, Note_on_c, 3, 63, 127
2, 262084, Note_on_c, 11, 70, 127
2, 262199, Note_off_c, 11, 70, 127
2, 262203, Note_on_c, 0, 72, 127
2, 262306, Note_off_c, 3, 63, 127
2, 262318, Note_off_c, 0, 72, 127
2, 262323, Note_on_c, 2, 62, 127
2, 262323, Note_on_c, 5, 77, 127
2, 262438, Note_off_c, 5, 77, 127
2, 262443, Note_on_c, 3, 75, 127
2, 262545, Note_off_c, 2, 62, 127
2, 262558, Note_off_c, 3, 75, 127
2, 262562, Note_on_c, 5, 65, 127
2, 262562, Note_on_c, 2, 74, 127
2, 262677, Note_off_c, 2, 74, 127
2, 262682, Note_on_c, 0, 72, 127
2, 262784, Note_off_c, 5, 65, 127
2, 262797, Note_off_c, 0, 72, 127
2, 262802, Note_on_c, 11, 70, 127
2, 262802, Note_on_c, 7, 55, 127
2, 262919, Note_off_c, 11, 70, 127
2, 262921, Note_on_c, 8, 68, 127
2, 263038, Note_off_c, 8, 68, 127
2, 263043, Note_off_c, 7, 55, 127
2, 263045, Note_on_c, 7, 67, 127
2, 263045, Note_on_c, 3, 63, 127
2, 263162, Note_off_c, 3, 63, 127
2, 263162, Note_off_c, 7, 67, 127
2, 263168, Note_on_c, 5, 65, 127
2, 263168, Note_on_c, 2, 62, 127
2, 263285, Note_off_c, 2, 62, 127
2, 263285, Note_off_c, 5, 65, 127
2, 263292, Note_on_c, 7, 67, 127
2, 263292, Note_on_c, 3, 63, 127
2, 263409, Note_off_c, 7, 67, 127
2, 263415, Note_on_c, 3, 75, 127
2, 263520, Note_off_c, 3, 63, 127
2, 263534, Note_off_c, 3, 75, 127
2, 263540, Note_on_c, 5, 65, 127
2, 263540, Note_on_c, 11, 58, 127
2, 263657, Note_off_c, 5, 65, 127
2, 263664, Note_on_c, 2, 74, 127
2, 263768, Note_off_c, 11, 58, 127
2, 263794, Note_off_c, 2, 74, 127
2, 263797, Note_on_c, 3, 63, 127
2, 263797, Note_on_c, 3, 51, 127
2, 264099, Note_off_c, 3, 51, 127
2, 264148, Note_on_c, 11, 46, 127
2, 264452, Note_off_c, 11, 46, 127
2, 264567, Note_on_c, 3, 39, 127
2, 265997, Note_off_c, 3, 63, 127
2, 266067, Note_off_c, 3, 39, 127
2, 267722, Note_on_c, 11, 70, 127
2, 268039, Note_off_c, 11, 70, 127
2, 268042, Note_on_c, 3, 75, 127
2, 268159, Note_off_c, 3, 75, 127
2, 268201, Note_on_c, 11, 70, 127
2, 268518, Note_off_c, 11, 70, 127
2, 268521, Note_on_c, 3, 75, 127
2, 268638, Note_off_c, 3, 75, 127
2, 268680, Note_on_c, 11, 70, 127
2, 268838, Note_off_c, 11, 70, 127
2, 268841, Note_on_c, 8, 68, 127
2, 268999, Note_off_c, 8, 68, 127
2, 269002, Note_on_c, 7, 67, 127
2, 269160, Note_off_c, 7, 67, 127
2, 269162, Note_on_c, 8, 68, 127
2, 269320, Note_off_c, 8, 68, 127
2, 269323, Note_on_c, 7, 67, 127
2, 269481, Note_off_c, 7, 67, 127
2, 269484, Note_on_c, 5, 65, 127
2, 269642, Note_off_c, 5, 65, 127
2, 269645, Note_on_c, 3, 75, 127
2, 269645, Note_on_c, 7, 67, 127
2, 269803, Note_off_c, 7, 67, 127
2, 269806, Note_on_c, 11, 70, 127
2, 269964, Note_off_c, 11, 70, 127
2, 269964, Note_off_c, 3, 75, 127
2, 269966, Note_on_c, 11, 82, 127
2, 269966, Note_on_c, 8, 68, 127
2, 270083, Note_off_c, 11, 82, 127
2, 270123, Note_off_c, 8, 68, 127
2, 270125, Note_on_c, 3, 75, 127
2, 270125, Note_on_c, 7, 67, 127
2, 270283, Note_off_c, 7, 67, 127
2, 270286, Note_on_c, 5, 65, 127
2, 270444, Note_off_c, 5, 65, 127
2, 270444, Note_off_c, 3, 75, 127
2, 270447, Note_on_c, 11, 82, 127
2, 270447, Note_on_c, 3, 63, 127
2, 270564, Note_off_c, 11, 82, 127
2, 270604, Note_off_c, 3, 63, 127
2, 270606, Note_on_c, 5, 77, 127
2, 270606, Note_on_c, 2, 62, 127
2, 270764, Note_off_c, 5, 77, 127
2, 270767, Note_on_c, 3, 75, 127
2, 270925, Note_off_c, 3, 75, 127
2, 270925, Note_off_c, 2, 62, 127
2, 270928, Note_on_c, 2, 74, 127
2, 270928, Note_on_c, 11, 70, 127
2, 271086, Note_off_c, 11, 70, 127
2, 271086, Note_off_c, 2, 74, 127
2, 271088, Note_on_c, 3, 75, 127
2, 271088, Note_on_c, 0, 60, 127
2, 271246, Note_off_c, 3, 75, 127
2, 271249, Note_on_c, 2, 74, 127
2, 271407, Note_off_c, 2, 74, 127
2, 271407, Note_off_c, 0, 60, 127
2, 271410, Note_on_c, 0, 72, 127
2, 271410, Note_on_c, 10, 69, 127
2, 271568, Note_off_c, 10, 69, 127
2, 271568, Note_off_c, 0, 72, 127
2, 271571, Note_on_c, 2, 74, 127
2, 271571, Note_on_c, 11, 58, 127
2, 271730, Note_on_c, 11, 70, 127
2, 271888, Note_off_c, 11, 58, 127
2, 271888, Note_off_c, 2, 74, 127
2, 271891, Note_on_c, 7, 79, 127
2, 271891, Note_on_c, 3, 63, 127
2, 272008, Note_off_c, 3, 63, 127
2, 272047, Note_off_c, 11, 70, 127
2, 272048, Note_off_c, 7, 79, 127
2, 272050, Note_on_c, 2, 74, 127
2, 272050, Note_on_c, 11, 58, 127
2, 272209, Note_on_c, 11, 70, 127
2, 272367, Note_off_c, 11, 58, 127
2, 272367, Note_off_c, 2, 74, 127
2, 272369, Note_on_c, 7, 79, 127
2, 272369, Note_on_c, 3, 63, 127
2, 272486, Note_off_c, 3, 63, 127
2, 272526, Note_off_c, 7, 79, 127
2, 272526, Note_off_c, 11, 70, 127
2, 272528, Note_on_c, 5, 77, 127
2, 272528, Note_on_c, 11, 58, 127
2, 272686, Note_off_c, 11, 58, 127
2, 272689, Note_on_c, 2, 74, 127
2, 272689, Note_on_c, 8, 56, 127
2, 272847, Note_off_c, 8, 56, 127
2, 272847, Note_off_c, 5, 77, 127
2, 272850, Note_on_c, 11, 82, 127
2, 272850, Note_on_c, 7, 55, 127
2, 273008, Note_off_c, 7, 55, 127
2, 273008, Note_off_c, 11, 82, 127
2, 273008, Note_off_c, 2, 74, 127
2, 273011, Note_on_c, 5, 77, 127
2, 273011, Note_on_c, 8, 56, 127
2, 273169, Note_off_c, 8, 56, 127
2, 273172, Note_on_c, 2, 74, 127
2, 273172, Note_on_c, 7, 55, 127
2, 273330, Note_off_c, 7, 55, 127
2, 273330, Note_off_c, 5, 77, 127
2, 273332, Note_on_c, 11, 82, 127
2, 273332, Note_on_c, 5, 53, 127
2, 273490, Note_off_c, 5, 53, 127
2, 273490, Note_off_c, 11, 82, 127
2, 273491, Note_off_c, 2, 74, 127
2, 273493, Note_on_c, 3, 75, 127
2, 273493, Note_on_c, 7, 55, 127
2, 273651, Note_off_c, 7, 55, 127
2, 273654, Note_on_c, 2, 74, 127
2, 273654, Note_on_c, 5, 53, 127
2, 273812, Note_off_c, 5, 53, 127
2, 273812, Note_off_c, 2, 74, 127
2, 273812, Note_off_c, 3, 75, 127
2, 273815, Note_on_c, 11, 82, 127
2, 273815, Note_on_c, 3, 51, 127
2, 273973, Note_off_c, 3, 51, 127
2, 273973, Note_off_c, 11, 82, 127
2, 273976, Note_on_c, 3, 75, 127
2, 273976, Note_on_c, 7, 55, 127
2, 274134, Note_off_c, 7, 55, 127
2, 274137, Note_on_c, 2, 74, 127
2, 274137, Note_on_c, 5, 53, 127
2, 274295, Note_off_c, 5, 53, 127
2, 274295, Note_off_c, 2, 74, 127
2, 274295, Note_off_c, 3, 75, 127
2, 274297, Note_on_c, 11, 82, 127
2, 274297, Note_on_c, 3, 51, 127
2, 274455, Note_off_c, 3, 51, 127
2, 274455, Note_off_c, 11, 82, 127
2, 274458, Note_on_c, 0, 72, 127
2, 274458, Note_on_c, 8, 56, 127
2, 274616, Note_off_c, 8, 56, 127
2, 274616, Note_off_c, 0, 72, 127
2, 274619, Note_on_c, 2, 74, 127
2, 274619, Note_on_c, 3, 51, 127
2, 274777, Note_off_c, 3, 51, 127
2, 274777, Note_off_c, 2, 74, 127
2, 274780, Note_on_c, 3, 75, 127
2, 274780, Note_on_c, 0, 60, 127
2, 274938, Note_off_c, 0, 60, 127
2, 274938, Note_off_c, 3, 75, 127
2, 274941, Note_on_c, 5, 77, 127
2, 274941, Note_on_c, 8, 56, 127
2, 275099, Note_off_c, 8, 56, 127
2, 275099, Note_off_c, 5, 77, 127
2, 275101, Note_on_c, 7, 79, 127
2, 275101, Note_on_c, 3, 51, 127
2, 275259, Note_off_c, 3, 51, 127
2, 275259, Note_off_c, 7, 79, 127
2, 275262, Note_on_c, 8, 80, 127
2, 275262, Note_on_c, 0, 60, 127
2, 275420, Note_off_c, 0, 60, 127
2, 275420, Note_off_c, 8, 80, 127
2, 275423, Note_on_c, 2, 74, 127
2, 275423, Note_on_c, 5, 53, 127
2, 275581, Note_off_c, 5, 53, 127
2, 275584, Note_on_c, 0, 72, 127
2, 275584, Note_on_c, 3, 51, 127
2, 275742, Note_off_c, 3, 51, 127
2, 275742, Note_off_c, 0, 72, 127
2, 275742, Note_off_c, 2, 74, 127
2, 275745, Note_on_c, 8, 80, 127
2, 275745, Note_on_c, 2, 50, 127
2, 275903, Note_off_c, 2, 50, 127
2, 275903, Note_off_c, 8, 80, 127
2, 275906, Note_on_c, 2, 74, 127
2, 275906, Note_on_c, 5, 53, 127
2, 276064, Note_off_c, 5, 53, 127
2, 276066, Note_on_c, 0, 72, 127
2, 276066, Note_on_c, 3, 51, 127
2, 276224, Note_off_c, 3, 51, 127
2, 276224, Note_off_c, 0, 72, 127
2, 276225, Note_off_c, 2, 74, 127
2, 276227, Note_on_c, 8, 80, 127
2, 276227, Note_on_c, 2, 50, 127
2, 276385, Note_off_c, 2, 50, 127
2, 276385, Note_off_c, 8, 80, 127
2, 276388, Note_on_c, 11, 70, 127
2, 276388, Note_on_c, 7, 55, 127
2, 276546, Note_off_c, 7, 55, 127
2, 276546, Note_off_c, 11, 70, 127
2, 276549, Note_on_c, 0, 72, 127
2, 276549, Note_on_c, 2, 50, 127
2, 276707, Note_off_c, 2, 50, 127
2, 276707, Note_off_c, 0, 72, 127
2, 276710, Note_on_c, 2, 74, 127
2, 276710, Note_on_c, 11, 58, 127
2, 276868, Note_off_c, 11, 58, 127
2, 276868, Note_off_c, 2, 74, 127
2, 276870, Note_on_c, 3, 75, 127
2, 276870, Note_on_c, 7, 55, 127
2, 277028, Note_off_c, 7, 55, 127
2, 277028, Note_off_c, 3, 75, 127
2, 277031, Note_on_c, 5, 77, 127
2, 277031, Note_on_c, 2, 50, 127
2, 277189, Note_off_c, 2, 50, 127
2, 277189, Note_off_c, 5, 77, 127
2, 277192, Note_on_c, 7, 79, 127
2, 277192, Note_on_c, 11, 58, 127
2, 277350, Note_off_c, 11, 58, 127
2, 277350, Note_off_c, 7, 79, 127
2, 277353, Note_on_c, 0, 72, 127
2, 277353, Note_on_c, 3, 51, 127
2, 277511, Note_off_c, 3, 51, 127
2, 277514, Note_on_c, 11, 70, 127
2, 277514, Note_on_c, 2, 50, 127
2, 277672, Note_off_c, 2, 50, 127
2, 277672, Note_off_c, 11, 70, 127
2, 277672, Note_off_c, 0, 72, 127
2, 277675, Note_on_c, 7, 79, 127
2, 277675, Note_on_c, 0, 48, 127
2, 277833, Note_off_c, 0, 48, 127
2, 277833, Note_off_c, 7, 79, 127
2, 277835, Note_on_c, 0, 72, 127
2, 277835, Note_on_c, 3, 51, 127
2, 277993, Note_off_c, 3, 51, 127
2, 277996, Note_on_c, 11, 70, 127
2, 277996, Note_on_c, 2, 50, 127
2, 278154, Note_off_c, 2, 50, 127
2, 278154, Note_off_c, 11, 70, 127
2, 278154, Note_off_c, 0, 72, 127
2, 278157, Note_on_c, 7, 79, 127
2, 278157, Note_on_c, 0, 48, 127
2, 278315, Note_off_c, 0, 48, 127
2, 278315, Note_off_c, 7, 79, 127
2, 278318, Note_on_c, 8, 68, 127
2, 278318, Note_on_c, 5, 53, 127
2, 278476, Note_off_c, 5, 53, 127
2, 278476, Note_off_c, 8, 68, 127
2, 278479, Note_on_c, 11, 70, 127
2, 278479, Note_on_c, 0, 48, 127
2, 278637, Note_off_c, 0, 48, 127
2, 278637, Note_off_c, 11, 70, 127
2, 278639, Note_on_c, 0, 72, 127
2, 278639, Note_on_c, 8, 56, 127
2, 278797, Note_off_c, 8, 56, 127
2, 278797, Note_off_c, 0, 72, 127
2, 278800, Note_on_c, 2, 74, 127
2, 278800, Note_on_c, 5, 53, 127
2, 278958, Note_off_c, 5, 53, 127
2, 278958, Note_off_c, 2, 74, 127
2, 278961, Note_on_c, 3, 75, 127
2, 278961, Note_on_c, 0, 48, 127
2, 279119, Note_off_c, 0, 48, 127
2, 279119, Note_off_c, 3, 75, 127
2, 279122, Note_on_c, 5, 77, 127
2, 279122, Note_on_c, 8, 56, 127
2, 279280, Note_off_c, 8, 56, 127
2, 279280, Note_off_c, 5, 77, 127
2, 279283, Note_on_c, 11, 70, 127
2, 279283, Note_on_c, 2, 50, 127
2, 279441, Note_off_c, 2, 50, 127
2, 279444, Note_on_c, 8, 68, 127
2, 279444, Note_on_c, 0, 48, 127
2, 279602, Note_off_c, 0, 48, 127
2, 279602, Note_off_c, 8, 68, 127
2, 279602, Note_off_c, 11, 70, 127
2, 279604, Note_on_c, 5, 77, 127
2, 279604, Note_on_c, 11, 46, 127
2, 279762, Note_off_c, 11, 46, 127
2, 279762, Note_off_c, 5, 77, 127
2, 279765, Note_on_c, 11, 70, 127
2, 279765, Note_on_c, 2, 50, 127
2, 279923, Note_off_c, 2, 50, 127
2, 279926, Note_on_c, 8, 68, 127
2, 279926, Note_on_c, 0, 48, 127
2, 280084, Note_off_c, 0, 48, 127
2, 280084, Note_off_c, 8, 68, 127
2, 280084, Note_off_c, 11, 70, 127
2, 280087, Note_on_c, 5, 77, 127
2, 280087, Note_on_c, 11, 46, 127
2, 280245, Note_off_c, 11, 46, 127
2, 280245, Note_off_c, 5, 77, 127
2, 280248, Note_on_c, 7, 67, 127
2, 280248, Note_on_c, 3, 51, 127
2, 280406, Note_off_c, 3, 51, 127
2, 280406, Note_off_c, 7, 67, 127
2, 280409, Note_on_c, 8, 68, 127
2, 280409, Note_on_c, 11, 46, 127
2, 280567, Note_off_c, 11, 46, 127
2, 280567, Note_off_c, 8, 68, 127
2, 280569, Note_on_c, 11, 70, 127
2, 280569, Note_on_c, 7, 55, 127
2, 280727, Note_off_c, 7, 55, 127
2, 280727, Note_off_c, 11, 70, 127
2, 280730, Note_on_c, 11, 70, 127
2, 280730, Note_on_c, 3, 51, 127
2, 280888, Note_off_c, 3, 51, 127
2, 280888, Note_off_c, 11, 70, 127
2, 280891, Note_on_c, 0, 72, 127
2, 280891, Note_on_c, 11, 46, 127
2, 281049, Note_off_c, 11, 46, 127
2, 281049, Note_off_c, 0, 72, 127
2, 281052, Note_on_c, 2, 74, 127
2, 281052, Note_on_c, 7, 55, 127
2, 281210, Note_off_c, 7, 55, 127
2, 281210, Note_off_c, 2, 74, 127
2, 281213, Note_on_c, 3, 75, 127
2, 281213, Note_on_c, 0, 48, 127
2, 281372, Note_on_c, 7, 67, 127
2, 281530, Note_off_c, 7, 67, 127
2, 281530, Note_off_c, 0, 48, 127
2, 281530, Note_off_c, 3, 75, 127
2, 281532, Note_on_c, 0, 72, 127
2, 281532, Note_on_c, 7, 55, 127
2, 281690, Note_off_c, 7, 55, 127
2, 281690, Note_off_c, 0, 72, 127
2, 281693, Note_on_c, 3, 75, 127
2, 281693, Note_on_c, 0, 48, 127
2, 281852, Note_on_c, 7, 67, 127
2, 282010, Note_off_c, 7, 67, 127
2, 282010, Note_off_c, 0, 48, 127
2, 282010, Note_off_c, 3, 75, 127
2, 282013, Note_on_c, 0, 72, 127
2, 282013, Note_on_c, 7, 55, 127
2, 282171, Note_off_c, 7, 55, 127
2, 282171, Note_off_c, 0, 72, 127
2, 282174, Note_on_c, 3, 75, 127
2, 282174, Note_on_c, 11, 46, 127
2, 282332, Note_off_c, 11, 46, 127
2, 282335, Note_on_c, 10, 45, 127
2, 282493, Note_off_c, 10, 45, 127
2, 282495, Note_on_c, 0, 72, 127
2, 282495, Note_on_c, 7, 43, 127
2, 282653, Note_off_c, 7, 43, 127
2, 282653, Note_off_c, 0, 72, 127
2, 282656, Note_on_c, 5, 65, 127
2, 282656, Note_on_c, 10, 45, 127
2, 282814, Note_off_c, 10, 45, 127
2, 282817, Note_on_c, 7, 43, 127
2, 282895, Note_off_c, 3, 75, 127
2, 282975, Note_off_c, 7, 43, 127
2, 282978, Note_on_c, 3, 75, 127
2, 282978, Note_on_c, 5, 41, 127
2, 283132, Note_off_c, 5, 65, 127
2, 283136, Note_off_c, 5, 41, 127
2, 283136, Note_off_c, 3, 75, 127
2, 283139, Note_on_c, 2, 74, 127
2, 283139, Note_on_c, 11, 46, 127
2, 283297, Note_off_c, 2, 74, 127
2, 283300, Note_on_c, 5, 77, 127
2, 283458, Note_off_c, 5, 77, 127
2, 283458, Note_off_c, 11, 46, 127
2, 283460, Note_on_c, 2, 74, 127
2, 283460, Note_on_c, 11, 58, 127
2, 283618, Note_off_c, 11, 58, 127
2, 283618, Note_off_c, 2, 74, 127
2, 283621, Note_on_c, 11, 70, 127
2, 283621, Note_on_c, 5, 53, 127
2, 283779, Note_off_c, 11, 70, 127
2, 283782, Note_on_c, 2, 74, 127
2, 283940, Note_off_c, 2, 74, 127
2, 283940, Note_off_c, 5, 53, 127
2, 283943, Note_on_c, 5, 77, 127
2, 283943, Note_on_c, 11, 58, 127
2, 284101, Note_off_c, 11, 58, 127
2, 284101, Note_off_c, 5, 77, 127
2, 284104, Note_on_c, 8, 80, 127
2, 284104, Note_on_c, 3, 51, 127
2, 284262, Note_off_c, 3, 51, 127
2, 284264, Note_on_c, 2, 50, 127
2, 284422, Note_off_c, 2, 50, 127
2, 284425, Note_on_c, 5, 77, 127
2, 284425, Note_on_c, 0, 48, 127
2, 284583, Note_off_c, 0, 48, 127
2, 284583, Note_off_c, 5, 77, 127
2, 284586, Note_on_c, 11, 70, 127
2, 284586, Note_on_c, 2, 50, 127
2, 284744, Note_off_c, 2, 50, 127
2, 284747, Note_on_c, 0, 48, 127
2, 284825, Note_off_c, 8, 80, 127
2, 284905, Note_off_c, 0, 48, 127
2, 284908, Note_on_c, 8, 80, 127
2, 284908, Note_on_c, 11, 46, 127
2, 285062, Note_off_c, 11, 70, 127
2, 285066, Note_off_c, 11, 46, 127
2, 285066, Note_off_c, 8, 80, 127
2, 285069, Note_on_c, 7, 79, 127
2, 285069, Note_on_c, 3, 51, 127
2, 285227, Note_off_c, 7, 79, 127
2, 285229, Note_on_c, 11, 82, 127
2, 285307, Note_off_c, 11, 82, 127
2, 285310, Note_on_c, 8, 80, 127
2, 285388, Note_off_c, 8, 80, 127
2, 285388, Note_off_c, 3, 51, 127
2, 285390, Note_on_c, 7, 79, 127
2, 285390, Note_on_c, 3, 63, 127
2, 285468, Note_off_c, 7, 79, 127
2, 285471, Note_on_c, 5, 77, 127
2, 285548, Note_off_c, 3, 63, 127
2, 285549, Note_off_c, 5, 77, 127
2, 285551, Note_on_c, 3, 75, 127
2, 285551, Note_on_c, 0, 60, 127
2, 285709, Note_off_c, 3, 75, 127
2, 285712, Note_on_c, 7, 79, 127
2, 285790, Note_off_c, 7, 79, 127
2, 285792, Note_on_c, 5, 77, 127
2, 285870, Note_off_c, 5, 77, 127
2, 285870, Note_off_c, 0, 60, 127
2, 285873, Note_on_c, 3, 75, 127
2, 285873, Note_on_c, 3, 63, 127
2, 285951, Note_off_c, 3, 75, 127
2, 285953, Note_on_c, 2, 74, 127
2, 286031, Note_off_c, 2, 74, 127
2, 286031, Note_off_c, 3, 63, 127
2, 286033, Note_on_c, 0, 72, 127
2, 286033, Note_on_c, 11, 58, 127
2, 286191, Note_off_c, 11, 58, 127
2, 286191, Note_off_c, 0, 72, 127
2, 286194, Note_on_c, 2, 74, 127
2, 286194, Note_on_c, 10, 57, 127
2, 286352, Note_off_c, 10, 57, 127
2, 286352, Note_off_c, 2, 74, 127
2, 286355, Note_on_c, 3, 75, 127
2, 286355, Note_on_c, 7, 55, 127
2, 286513, Note_off_c, 7, 55, 127
2, 286513, Note_off_c, 3, 75, 127
2, 286516, Note_on_c, 5, 65, 127
2, 286516, Note_on_c, 10, 57, 127
2, 286674, Note_off_c, 10, 57, 127
2, 286677, Note_on_c, 7, 55, 127
2, 286755, Note_off_c, 5, 65, 127
2, 286757, Note_on_c, 0, 72, 127
2, 286835, Note_off_c, 0, 72, 127
2, 286835, Note_off_c, 7, 55, 127
2, 286838, Note_on_c, 2, 74, 127
2, 286838, Note_on_c, 5, 53, 127
2, 286916, Note_off_c, 2, 74, 127
2, 286918, Note_on_c, 3, 75, 127
2, 286996, Note_off_c, 3, 75, 127
2, 286996, Note_off_c, 5, 53, 127
2, 286998, Note_on_c, 2, 74, 127
2, 286998, Note_on_c, 11, 58, 127
2, 287156, Note_off_c, 2, 74, 127
2, 287159, Note_on_c, 0, 72, 127
2, 287317, Note_off_c, 0, 72, 127
2, 287317, Note_off_c, 11, 58, 127
2, 287320, Note_on_c, 11, 70, 127
2, 287320, Note_on_c, 2, 50, 127
2, 287478, Note_off_c, 2, 50, 127
2, 287478, Note_off_c, 11, 70, 127
2, 287481, Note_on_c, 11, 70, 127
2, 287481, Note_on_c, 3, 51, 127
2, 287639, Note_off_c, 11, 70, 127
2, 287642, Note_on_c, 0, 72, 127
2, 287800, Note_off_c, 0, 72, 127
2, 287800, Note_off_c, 3, 51, 127
2, 287802, Note_on_c, 10, 69, 127
2, 287802, Note_on_c, 5, 53, 127
2, 287960, Note_off_c, 5, 53, 127
2, 287960, Note_off_c, 10, 69, 127
2, 287963, Note_on_c, 11, 70, 127
2, 287963, Note_on_c, 11, 46, 127
2, 288121, Note_off_c, 11, 46, 127
2, 288121, Note_off_c, 11, 70, 127
2, 288124, Note_on_c, 0, 72, 127
2, 288124, Note_on_c, 5, 53, 127
2, 288282, Note_off_c, 5, 53, 127
2, 288282, Note_off_c, 0, 72, 127
2, 288285, Note_on_c, 2, 74, 127
2, 288285, Note_on_c, 11, 58, 127
2, 288443, Note_off_c, 11, 58, 127
2, 288443, Note_off_c, 2, 74, 127
2, 288446, Note_on_c, 2, 74, 127
2, 288446, Note_on_c, 5, 53, 127
2, 288604, Note_off_c, 5, 53, 127
2, 288604, Note_off_c, 2, 74, 127
2, 288607, Note_on_c, 3, 75, 127
2, 288607, Note_on_c, 2, 50, 127
2, 288765, Note_off_c, 2, 50, 127
2, 288765, Note_off_c, 3, 75, 127
2, 288767, Note_on_c, 5, 77, 127
2, 288767, Note_on_c, 11, 58, 127
2, 288925, Note_off_c, 11, 58, 127
2, 288925, Note_off_c, 5, 77, 127
2, 288928, Note_on_c, 7, 79, 127
2, 288928, Note_on_c, 5, 53, 127
2, 289001, Note_on_c, 5, 77, 127
2, 289006, Note_off_c, 7, 79, 127
2, 289072, Note_on_c, 7, 79, 127
2, 289077, Note_off_c, 5, 77, 127
2, 289085, Note_off_c, 5, 53, 127
2, 289087, Note_on_c, 7, 55, 127
2, 289145, Note_on_c, 5, 77, 127
2, 289150, Note_off_c, 7, 79, 127
2, 289165, Note_off_c, 7, 55, 127
2, 289168, Note_on_c, 5, 53, 127
2, 289218, Note_on_c, 7, 79, 127
2, 289223, Note_off_c, 5, 77, 127
2, 289246, Note_off_c, 5, 53, 127
2, 289248, Note_on_c, 3, 51, 127
2, 289291, Note_on_c, 5, 77, 127
2, 289296, Note_off_c, 7, 79, 127
2, 289326, Note_off_c, 3, 51, 127
2, 289328, Note_on_c, 2, 50, 127
2, 289364, Note_on_c, 7, 79, 127
2, 289369, Note_off_c, 5, 77, 127
2, 289406, Note_off_c, 2, 50, 127
2, 289409, Note_on_c, 3, 51, 127
2, 289437, Note_on_c, 5, 77, 127
2, 289442, Note_off_c, 7, 79, 127
2, 289508, Note_on_c, 7, 79, 127
2, 289513, Note_off_c, 5, 77, 127
2, 289564, Note_off_c, 3, 51, 127
2, 289566, Note_on_c, 5, 53, 127
2, 289579, Note_on_c, 5, 77, 127
2, 289584, Note_off_c, 7, 79, 127
2, 289642, Note_off_c, 5, 53, 127
2, 289644, Note_on_c, 3, 51, 127
2, 289650, Note_on_c, 7, 79, 127
2, 289655, Note_off_c, 5, 77, 127
2, 289720, Note_off_c, 3, 51, 127
2, 289723, Note_on_c, 5, 77, 127
2, 289723, Note_on_c, 2, 50, 127
2, 289728, Note_off_c, 7, 79, 127
2, 289801, Note_off_c, 2, 50, 127
2, 289803, Note_on_c, 0, 48, 127
2, 289881, Note_off_c, 0, 48, 127
2, 289884, Note_on_c, 2, 50, 127
2, 290042, Note_off_c, 2, 50, 127
2, 290045, Note_on_c, 3, 51, 127
2, 290123, Note_off_c, 3, 51, 127
2, 290125, Note_on_c, 2, 50, 127
2, 290175, Note_off_c, 5, 77, 127
2, 290203, Note_off_c, 2, 50, 127
2, 290205, Note_on_c, 11, 82, 127
2, 290205, Note_on_c, 0, 48, 127
2, 290283, Note_off_c, 0, 48, 127
2, 290286, Note_on_c, 11, 46, 127
2, 290363, Note_off_c, 11, 82, 127
2, 290364, Note_off_c, 11, 46, 127
2, 290366, Note_on_c, 5, 77, 127
2, 290366, Note_on_c, 2, 50, 127
2, 290524, Note_off_c, 2, 50, 127
2, 290527, Note_on_c, 5, 53, 127
2, 290605, Note_off_c, 5, 53, 127
2, 290607, Note_on_c, 3, 51, 127
2, 290685, Note_off_c, 3, 51, 127
2, 290685, Note_off_c, 5, 77, 127
2, 290688, Note_on_c, 11, 82, 127
2, 290688, Note_on_c, 2, 50, 127
2, 290766, Note_off_c, 2, 50, 127
2, 290768, Note_on_c, 0, 48, 127
2, 290846, Note_off_c, 0, 48, 127
2, 290846, Note_off_c, 11, 82, 127
2, 290849, Note_on_c, 5, 77, 127
2, 290849, Note_on_c, 2, 50, 127
2, 291007, Note_off_c, 2, 50, 127
2, 291007, Note_off_c, 5, 77, 127
2, 291010, Note_on_c, 7, 79, 127
2, 291010, Note_on_c, 11, 46, 127
2, 291088, Note_off_c, 7, 79, 127
2, 291090, Note_on_c, 5, 77, 127
2, 291168, Note_off_c, 5, 77, 127
2, 291168, Note_off_c, 11, 46, 127
2, 291170, Note_on_c, 3, 75, 127
2, 291170, Note_on_c, 2, 50, 127
2, 291248, Note_off_c, 3, 75, 127
2, 291251, Note_on_c, 2, 74, 127
2, 291328, Note_off_c, 2, 50, 127
2, 291329, Note_off_c, 2, 74, 127
2, 291331, Note_on_c, 3, 75, 127
2, 291331, Note_on_c, 5, 53, 127
2, 291489, Note_off_c, 5, 53, 127
2, 291489, Note_off_c, 3, 75, 127
2, 291492, Note_on_c, 5, 77, 127
2, 291492, Note_on_c, 2, 50, 127
2, 291570, Note_off_c, 5, 77, 127
2, 291572, Note_on_c, 3, 75, 127
2, 291650, Note_off_c, 3, 75, 127
2, 291650, Note_off_c, 2, 50, 127
2, 291653, Note_on_c, 2, 74, 127
2, 291653, Note_on_c, 5, 53, 127
2, 291731, Note_off_c, 2, 74, 127
2, 291733, Note_on_c, 0, 72, 127
2, 291811, Note_off_c, 0, 72, 127
2, 291811, Note_off_c, 5, 53, 127
2, 291814, Note_on_c, 11, 70, 127
2, 291814, Note_on_c, 11, 58, 127
2, 291973, Note_on_c, 2, 62, 127
2, 292131, Note_off_c, 2, 62, 127
2, 292133, Note_on_c, 5, 65, 127
2, 292288, Note_off_c, 11, 58, 127
2, 292291, Note_off_c, 5, 65, 127
2, 292294, Note_on_c, 11, 58, 127
2, 292643, Note_off_c, 11, 58, 127
2, 292773, Note_off_c, 11, 70, 127
2, 292775, Note_on_c, 5, 65, 127
2, 293092, Note_off_c, 5, 65, 127
2, 293095, Note_on_c, 11, 58, 127
2, 293212, Note_off_c, 11, 58, 127
2, 293254, Note_on_c, 5, 65, 127
2, 293571, Note_off_c, 5, 65, 127
2, 293573, Note_on_c, 11, 58, 127
2, 293690, Note_off_c, 11, 58, 127
2, 293732, Note_on_c, 3, 63, 127
2, 293890, Note_off_c, 3, 63, 127
2, 293893, Note_on_c, 5, 65, 127
2, 294051, Note_off_c, 5, 65, 127
2, 294054, Note_on_c, 7, 67, 127
2, 294212, Note_off_c, 7, 67, 127
2, 294215, Note_on_c, 5, 65, 127
2, 294373, Note_off_c, 5, 65, 127
2, 294376, Note_on_c, 7, 67, 127
2, 294534, Note_off_c, 7, 67, 127
2, 294536, Note_on_c, 8, 68, 127
2, 294694, Note_off_c, 8, 68, 127
2, 294697, Note_on_c, 7, 67, 127
2, 294697, Note_on_c, 11, 58, 127
2, 294855, Note_off_c, 7, 67, 127
2, 294858, Note_on_c, 11, 70, 127
2, 295016, Note_off_c, 11, 70, 127
2, 295016, Note_off_c, 11, 58, 127
2, 295019, Note_on_c, 8, 68, 127
2, 295019, Note_on_c, 3, 51, 127
2, 295136, Note_off_c, 3, 51, 127
2, 295176, Note_off_c, 8, 68, 127
2, 295178, Note_on_c, 7, 67, 127
2, 295178, Note_on_c, 11, 58, 127
2, 295336, Note_off_c, 7, 67, 127
2, 295339, Note_on_c, 5, 65, 127
2, 295497, Note_off_c, 5, 65, 127
2, 295497, Note_off_c, 11, 58, 127
2, 295499, Note_on_c, 3, 63, 127
2, 295499, Note_on_c, 3, 51, 127
2, 295616, Note_off_c, 3, 51, 127
2, 295656, Note_off_c, 3, 63, 127
2, 295658, Note_on_c, 5, 65, 127
2, 295658, Note_on_c, 8, 56, 127
2, 295816, Note_off_c, 8, 56, 127
2, 295819, Note_on_c, 11, 58, 127
2, 295897, Note_off_c, 5, 65, 127
2, 295900, Note_on_c, 7, 67, 127
2, 295977, Note_off_c, 11, 58, 127
2, 295978, Note_off_c, 7, 67, 127
2, 295980, Note_on_c, 5, 65, 127
2, 295980, Note_on_c, 0, 60, 127
2, 296058, Note_off_c, 5, 65, 127
2, 296060, Note_on_c, 7, 67, 127
2, 296138, Note_off_c, 7, 67, 127
2, 296138, Note_off_c, 0, 60, 127
2, 296141, Note_on_c, 8, 68, 127
2, 296141, Note_on_c, 11, 58, 127
2, 296219, Note_off_c, 8, 68, 127
2, 296221, Note_on_c, 7, 67, 127
2, 296299, Note_off_c, 7, 67, 127
2, 296299, Note_off_c, 11, 58, 127
2, 296302, Note_on_c, 8, 68, 127
2, 296302, Note_on_c, 0, 60, 127
2, 296380, Note_off_c, 8, 68, 127
2, 296382, Note_on_c, 7, 67, 127
2, 296460, Note_off_c, 7, 67, 127
2, 296460, Note_off_c, 0, 60, 127
2, 296462, Note_on_c, 5, 65, 127
2, 296462, Note_on_c, 1, 61, 127
2, 296540, Note_off_c, 5, 65, 127
2, 296543, Note_on_c, 7, 67, 127
2, 296620, Note_off_c, 1, 61, 127
2, 296621, Note_off_c, 7, 67, 127
2, 296623, Note_on_c, 8, 68, 127
2, 296623, Note_on_c, 0, 60, 127
2, 296781, Note_off_c, 8, 68, 127
2, 296784, Note_on_c, 0, 72, 127
2, 296862, Note_off_c, 0, 60, 127
2, 296865, Note_on_c, 2, 62, 127
2, 296942, Note_off_c, 0, 72, 127
2, 296943, Note_off_c, 2, 62, 127
2, 296945, Note_on_c, 11, 70, 127
2, 296945, Note_on_c, 0, 60, 127
2, 297023, Note_off_c, 0, 60, 127
2, 297025, Note_on_c, 2, 62, 127
2, 297103, Note_off_c, 2, 62, 127
2, 297103, Note_off_c, 11, 70, 127
2, 297106, Note_on_c, 8, 68, 127
2, 297106, Note_on_c, 3, 63, 127
2, 297184, Note_off_c, 3, 63, 127
2, 297186, Note_on_c, 2, 62, 127
2, 297264, Note_off_c, 2, 62, 127
2, 297264, Note_off_c, 8, 68, 127
2, 297267, Note_on_c, 7, 67, 127
2, 297267, Note_on_c, 3, 63, 127
2, 297345, Note_off_c, 3, 63, 127
2, 297347, Note_on_c, 2, 62, 127
2, 297425, Note_off_c, 2, 62, 127
2, 297425, Note_off_c, 7, 67, 127
2, 297427, Note_on_c, 5, 65, 127
2, 297427, Note_on_c, 0, 60, 127
2, 297505, Note_off_c, 0, 60, 127
2, 297508, Note_on_c, 2, 62, 127
2, 297585, Note_off_c, 5, 65, 127
2, 297586, Note_off_c, 2, 62, 127
2, 297588, Note_on_c, 7, 67, 127
2, 297588, Note_on_c, 3, 63, 127
2, 297746, Note_off_c, 3, 63, 127
2, 297746, Note_off_c, 7, 67, 127
2, 297749, Note_on_c, 7, 67, 127
2, 297829, Note_on_c, 10, 69, 127
2, 297907, Note_off_c, 10, 69, 127
2, 297907, Note_off_c, 7, 67, 127
2, 297910, Note_on_c, 7, 67, 127
2, 297910, Note_on_c, 5, 65, 127
2, 297988, Note_off_c, 7, 67, 127
2, 297990, Note_on_c, 10, 69, 127
2, 298068, Note_off_c, 10, 69, 127
2, 298068, Note_off_c, 5, 65, 127
2, 298071, Note_on_c, 11, 70, 127
2, 298071, Note_on_c, 3, 63, 127
2, 298149, Note_off_c, 11, 70, 127
2, 298151, Note_on_c, 10, 69, 127
2, 298229, Note_off_c, 10, 69, 127
2, 298229, Note_off_c, 3, 63, 127
2, 298231, Note_on_c, 11, 70, 127
2, 298231, Note_on_c, 2, 62, 127
2, 298309, Note_off_c, 11, 70, 127
2, 298312, Note_on_c, 10, 69, 127
2, 298389, Note_off_c, 2, 62, 127
2, 298390, Note_off_c, 10, 69, 127
2, 298392, Note_on_c, 7, 67, 127
2, 298392, Note_on_c, 0, 60, 127
2, 298470, Note_off_c, 7, 67, 127
2, 298473, Note_on_c, 10, 69, 127
2, 298550, Note_off_c, 0, 60, 127
2, 298551, Note_off_c, 10, 69, 127
2, 298553, Note_on_c, 2, 62, 127
2, 298555, Note_on_c, 5, 65, 127
2, 298557, Note_on_c, 11, 70, 127
2, 298559, Note_on_c, 2, 74, 127
2, 298561, Note_on_c, 5, 77, 127
2, 298713, Note_off_c, 2, 62, 127
2, 298716, Note_on_c, 5, 53, 127
2, 298873, Note_off_c, 11, 70, 127
2, 298874, Note_off_c, 5, 53, 127
2, 298876, Note_off_c, 5, 65, 127
2, 298877, Note_on_c, 11, 70, 127
2, 298877, Note_on_c, 8, 56, 127
2, 298878, Note_off_c, 2, 74, 127
2, 298880, Note_off_c, 5, 77, 127
2, 298994, Note_off_c, 11, 70, 127
2, 299034, Note_off_c, 8, 56, 127
2, 299036, Note_on_c, 0, 60, 127
2, 299037, Note_on_c, 5, 65, 127
2, 299039, Note_on_c, 8, 68, 127
2, 299041, Note_on_c, 2, 74, 127
2, 299043, Note_on_c, 5, 77, 127
2, 299196, Note_off_c, 0, 60, 127
2, 299198, Note_on_c, 11, 58, 127
2, 299356, Note_off_c, 11, 58, 127
2, 299358, Note_off_c, 5, 65, 127
2, 299359, Note_on_c, 11, 70, 127
2, 299359, Note_on_c, 8, 56, 127
2, 299360, Note_off_c, 8, 68, 127
2, 299362, Note_off_c, 2, 74, 127
2, 299364, Note_off_c, 5, 77, 127
2, 299478, Note_off_c, 11, 70, 127
2, 299517, Note_off_c, 8, 56, 127
2, 299520, Note_on_c, 3, 75, 127
2, 299520, Note_on_c, 7, 55, 127
2, 299678, Note_off_c, 7, 55, 127
2, 299678, Note_off_c, 3, 75, 127
2, 299681, Note_on_c, 5, 77, 127
2, 299681, Note_on_c, 5, 53, 127
2, 299839, Note_off_c, 5, 53, 127
2, 299839, Note_off_c, 5, 77, 127
2, 299842, Note_on_c, 7, 79, 127
2, 299842, Note_on_c, 3, 51, 127
2, 300000, Note_off_c, 3, 51, 127
2, 300000, Note_off_c, 7, 79, 127
2, 300002, Note_on_c, 5, 77, 127
2, 300002, Note_on_c, 2, 50, 127
2, 300160, Note_off_c, 2, 50, 127
2, 300160, Note_off_c, 5, 77, 127
2, 300163, Note_on_c, 7, 79, 127
2, 300163, Note_on_c, 0, 48, 127
2, 300321, Note_off_c, 0, 48, 127
2, 300321, Note_off_c, 7, 79, 127
2, 300324, Note_on_c, 8, 80, 127
2, 300324, Note_on_c, 11, 46, 127
2, 300482, Note_off_c, 11, 46, 127
2, 300482, Note_off_c, 8, 80, 127
2, 300485, Note_on_c, 7, 79, 127
2, 300485, Note_on_c, 3, 51, 127
2, 300644, Note_on_c, 2, 74, 127
2, 300802, Note_off_c, 2, 74, 127
2, 300802, Note_off_c, 3, 51, 127
2, 300802, Note_off_c, 7, 79, 127
2, 300805, Note_on_c, 3, 75, 127
2, 300805, Note_on_c, 7, 67, 127
2, 300963, Note_off_c, 7, 67, 127
2, 300963, Note_off_c, 3, 75, 127
2, 300965, Note_on_c, 7, 79, 127
2, 300965, Note_on_c, 3, 51, 127
2, 301124, Note_on_c, 2, 74, 127
2, 301282, Note_off_c, 2, 74, 127
2, 301282, Note_off_c, 3, 51, 127
2, 301282, Note_off_c, 7, 79, 127
2, 301285, Note_on_c, 3, 75, 127
2, 301285, Note_on_c, 7, 67, 127
2, 301443, Note_off_c, 7, 67, 127
2, 301443, Note_off_c, 3, 75, 127
2, 301446, Note_on_c, 0, 72, 127
2, 301446, Note_on_c, 8, 56, 127
2, 301604, Note_off_c, 8, 56, 127
2, 301604, Note_off_c, 0, 72, 127
2, 301607, Note_on_c, 8, 80, 127
2, 301607, Note_on_c, 12, 59, 127
2, 301765, Note_off_c, 12, 59, 127
2, 301765, Note_off_c, 8, 80, 127
2, 301768, Note_on_c, 7, 79, 127
2, 301768, Note_on_c, 0, 60, 127
2, 301926, Note_off_c, 0, 60, 127
2, 301926, Note_off_c, 7, 79, 127
2, 301928, Note_on_c, 5, 77, 127
2, 301928, Note_on_c, 8, 56, 127
2, 302086, Note_off_c, 8, 56, 127
2, 302086, Note_off_c, 5, 77, 127
2, 302089, Note_on_c, 7, 79, 127
2, 302089, Note_on_c, 12, 59, 127
2, 302247, Note_off_c, 12, 59, 127
2, 302247, Note_off_c, 7, 79, 127
2, 302250, Note_on_c, 3, 75, 127
2, 302250, Note_on_c, 0, 60, 127
2, 302408, Note_off_c, 0, 60, 127
2, 302408, Note_off_c, 3, 75, 127
2, 302411, Note_on_c, 5, 77, 127
2, 302411, Note_on_c, 2, 50, 127
2, 302570, Note_on_c, 0, 72, 127
2, 302728, Note_off_c, 0, 72, 127
2, 302728, Note_off_c, 2, 50, 127
2, 302728, Note_off_c, 5, 77, 127
2, 302731, Note_on_c, 2, 74, 127
2, 302731, Note_on_c, 5, 65, 127
2, 302889, Note_off_c, 5, 65, 127
2, 302889, Note_off_c, 2, 74, 127
2, 302892, Note_on_c, 5, 77, 127
2, 302892, Note_on_c, 2, 50, 127
2, 303050, Note_on_c, 0, 72, 127
2, 303208, Note_off_c, 0, 72, 127
2, 303209, Note_off_c, 2, 50, 127
2, 303209, Note_off_c, 5, 77, 127
2, 303211, Note_on_c, 2, 74, 127
2, 303211, Note_on_c, 5, 65, 127
2, 303369, Note_off_c, 5, 65, 127
2, 303369, Note_off_c, 2, 74, 127
2, 303372, Note_on_c, 12, 71, 127
2, 303372, Note_on_c, 7, 55, 127
2, 303530, Note_off_c, 7, 55, 127
2, 303530, Note_off_c, 12, 71, 127
2, 303533, Note_on_c, 7, 79, 127
2, 303533, Note_on_c, 12, 59, 127
2, 303691, Note_off_c, 12, 59, 127
2, 303691, Note_off_c, 7, 79, 127
2, 303694, Note_on_c, 5, 77, 127
2, 303694, Note_on_c, 2, 62, 127
2, 303852, Note_off_c, 2, 62, 127
2, 303852, Note_off_c, 5, 77, 127
2, 303855, Note_on_c, 3, 75, 127
2, 303855, Note_on_c, 7, 55, 127
2, 304013, Note_off_c, 7, 55, 127
2, 304013, Note_off_c, 3, 75, 127
2, 304015, Note_on_c, 5, 77, 127
2, 304015, Note_on_c, 12, 59, 127
2, 304173, Note_off_c, 12, 59, 127
2, 304173, Note_off_c, 5, 77, 127
2, 304176, Note_on_c, 2, 74, 127
2, 304176, Note_on_c, 2, 62, 127
2, 304334, Note_off_c, 2, 62, 127
2, 304334, Note_off_c, 2, 74, 127
2, 304337, Note_on_c, 7, 67, 127
2, 304337, Note_on_c, 3, 75, 127
2, 304337, Note_on_c, 0, 60, 127
2, 304495, Note_off_c, 0, 60, 127
2, 304498, Note_on_c, 0, 48, 127
2, 304656, Note_off_c, 0, 48, 127
2, 304656, Note_off_c, 7, 67, 127
2, 304659, Note_on_c, 0, 60, 127
2, 304817, Note_off_c, 0, 60, 127
2, 304817, Note_off_c, 3, 75, 127
2, 304819, Note_on_c, 4, 76, 127
2, 304819, Note_on_c, 7, 67, 127
2, 304819, Note_on_c, 11, 58, 127
2, 304977, Note_off_c, 11, 58, 127
2, 304980, Note_on_c, 1, 61, 127
2, 305138, Note_off_c, 1, 61, 127
2, 305138, Note_off_c, 7, 67, 127
2, 305141, Note_on_c, 0, 60, 127
2, 305299, Note_off_c, 0, 60, 127
2, 305299, Note_off_c, 4, 76, 127
2, 305302, Note_on_c, 5, 77, 127
2, 305302, Note_on_c, 5, 65, 127
2, 305302, Note_on_c, 8, 56, 127
2, 305460, Note_off_c, 8, 56, 127
2, 305460, Note_off_c, 5, 65, 127
2, 305463, Note_on_c, 7, 67, 127
2, 305463, Note_on_c, 7, 55, 127
2, 305621, Note_off_c, 7, 55, 127
2, 305621, Note_off_c, 7, 67, 127
2, 305621, Note_off_c, 5, 77, 127
2, 305624, Note_on_c, 8, 68, 127
2, 305624, Note_on_c, 5, 53, 127
2, 305782, Note_off_c, 5, 53, 127
2, 305782, Note_off_c, 8, 68, 127
2, 305784, Note_on_c, 7, 67, 127
2, 305784, Note_on_c, 3, 75, 127
2, 305784, Note_on_c, 0, 60, 127
2, 305942, Note_off_c, 7, 67, 127
2, 305945, Note_on_c, 8, 68, 127
2, 306103, Note_off_c, 8, 68, 127
2, 306103, Note_off_c, 0, 60, 127
2, 306106, Note_on_c, 11, 70, 127
2, 306106, Note_on_c, 0, 48, 127
2, 306264, Note_off_c, 0, 48, 127
2, 306264, Note_off_c, 11, 70, 127
2, 306267, Note_on_c, 8, 68, 127
2, 306267, Note_on_c, 5, 53, 127
2, 306423, Note_off_c, 3, 75, 127
2, 306426, Note_on_c, 5, 77, 127
2, 306584, Note_off_c, 5, 77, 127
2, 306584, Note_off_c, 5, 53, 127
2, 306587, Note_on_c, 3, 75, 127
2, 306587, Note_on_c, 0, 48, 127
2, 306730, Note_off_c, 0, 48, 127
2, 306745, Note_off_c, 3, 75, 127
2, 306747, Note_on_c, 2, 74, 127
2, 306747, Note_on_c, 5, 53, 127
2, 306905, Note_off_c, 2, 74, 127
2, 306908, Note_on_c, 3, 75, 127
2, 307066, Note_off_c, 3, 75, 127
2, 307066, Note_off_c, 5, 53, 127
2, 307069, Note_on_c, 0, 72, 127
2, 307069, Note_on_c, 0, 48, 127
2, 307212, Note_off_c, 0, 48, 127
2, 307227, Note_off_c, 0, 72, 127
2, 307230, Note_on_c, 12, 71, 127
2, 307230, Note_on_c, 7, 55, 127
2, 307381, Note_off_c, 8, 68, 127
2, 307387, Note_off_c, 7, 55, 127
2, 307389, Note_on_c, 7, 67, 127
2, 307389, Note_on_c, 10, 57, 127
2, 307547, Note_off_c, 10, 57, 127
2, 307547, Note_off_c, 7, 67, 127
2, 307547, Note_off_c, 12, 71, 127
2, 307550, Note_on_c, 5, 65, 127
2, 307550, Note_on_c, 12, 59, 127
2, 307708, Note_off_c, 12, 59, 127
2, 307708, Note_off_c, 5, 65, 127
2, 307711, Note_on_c, 7, 67, 127
2, 307711, Note_on_c, 0, 72, 127
2, 307711, Note_on_c, 10, 57, 127
2, 307869, Note_off_c, 10, 57, 127
2, 307869, Note_off_c, 7, 67, 127
2, 307871, Note_on_c, 5, 65, 127
2, 307871, Note_on_c, 12, 59, 127
2, 308029, Note_off_c, 12, 59, 127
2, 308029, Note_off_c, 5, 65, 127
2, 308030, Note_off_c, 0, 72, 127
2, 308032, Note_on_c, 3, 63, 127
2, 308032, Note_on_c, 0, 60, 127
2, 308190, Note_off_c, 0, 60, 127
2, 308190, Note_off_c, 3, 63, 127
2, 308193, Note_on_c, 2, 74, 127
2, 308193, Note_on_c, 5, 65, 127
2, 308193, Note_on_c, 12, 59, 127
2, 308351, Note_off_c, 12, 59, 127
2, 308354, Note_on_c, 7, 55, 127
2, 308512, Note_off_c, 7, 55, 127
2, 308512, Note_off_c, 5, 65, 127
2, 308512, Note_off_c, 2, 74, 127
2, 308515, Note_on_c, 3, 63, 127
2, 308515, Note_on_c, 0, 72, 127
2, 308515, Note_on_c, 0, 60, 127
2, 308673, Note_off_c, 0, 60, 127
2, 308673, Note_off_c, 3, 63, 127
2, 308675, Note_on_c, 2, 62, 127
2, 308675, Note_on_c, 5, 53, 127
2, 308833, Note_off_c, 5, 53, 127
2, 308834, Note_off_c, 0, 72, 127
2, 308836, Note_on_c, 0, 72, 127
2, 308836, Note_on_c, 2, 50, 127
2, 308994, Note_off_c, 2, 50, 127
2, 308994, Note_off_c, 0, 72, 127
2, 308997, Note_on_c, 12, 71, 127
2, 308997, Note_on_c, 7, 55, 127
2, 309151, Note_off_c, 2, 62, 127
2, 309155, Note_off_c, 7, 55, 127
2, 309155, Note_off_c, 12, 71, 127
2, 309158, Note_on_c, 0, 72, 127
2, 309158, Note_on_c, 3, 63, 127
2, 309158, Note_on_c, 0, 48, 127
2, 309475, Note_off_c, 0, 48, 127
2, 309475, Note_off_c, 3, 63, 127
2, 309478, Note_on_c, 7, 43, 127
2, 309614, Note_off_c, 7, 43, 127
2, 309637, Note_on_c, 0, 48, 127
2, 309795, Note_off_c, 0, 72, 127
2, 309797, Note_on_c, 3, 75, 127
2, 309875, Note_off_c, 3, 75, 127
2, 309878, Note_on_c, 2, 74, 127
2, 309956, Note_off_c, 2, 74, 127
2, 309956, Note_off_c, 0, 48, 127
2, 309958, Note_on_c, 0, 72, 127
2, 309958, Note_on_c, 7, 43, 127
2, 310036, Note_off_c, 0, 72, 127
2, 310039, Note_on_c, 2, 74, 127
2, 310096, Note_off_c, 7, 43, 127
2, 310117, Note_off_c, 2, 74, 127
2, 310119, Note_on_c, 3, 75, 127
2, 310119, Note_on_c, 0, 48, 127
2, 310277, Note_off_c, 0, 48, 127
2, 310280, Note_on_c, 11, 70, 127
2, 310280, Note_on_c, 2, 50, 127
2, 310438, Note_off_c, 2, 50, 127
2, 310438, Note_off_c, 11, 70, 127
2, 310438, Note_off_c, 3, 75, 127
2, 310441, Note_on_c, 7, 79, 127
2, 310441, Note_on_c, 3, 51, 127
2, 310599, Note_off_c, 3, 51, 127
2, 310599, Note_off_c, 7, 79, 127
2, 310602, Note_on_c, 5, 77, 127
2, 310602, Note_on_c, 2, 50, 127
2, 310760, Note_off_c, 2, 50, 127
2, 310762, Note_on_c, 11, 70, 127
2, 310762, Note_on_c, 3, 51, 127
2, 310920, Note_off_c, 3, 51, 127
2, 310920, Note_off_c, 11, 70, 127
2, 310921, Note_off_c, 5, 77, 127
2, 310923, Note_on_c, 8, 80, 127
2, 310923, Note_on_c, 5, 53, 127
2, 311081, Note_off_c, 5, 53, 127
2, 311081, Note_off_c, 8, 80, 127
2, 311084, Note_on_c, 7, 79, 127
2, 311084, Note_on_c, 3, 51, 127
2, 311242, Note_off_c, 7, 79, 127
2, 311245, Note_on_c, 11, 82, 127
2, 311403, Note_off_c, 11, 82, 127
2, 311403, Note_off_c, 3, 51, 127
2, 311406, Note_on_c, 8, 80, 127
2, 311406, Note_on_c, 11, 46, 127
2, 311542, Note_off_c, 11, 46, 127
2, 311563, Note_off_c, 8, 80, 127
2, 311565, Note_on_c, 7, 79, 127
2, 311565, Note_on_c, 3, 51, 127
2, 311723, Note_off_c, 7, 79, 127
2, 311725, Note_on_c, 5, 77, 127
2, 311883, Note_off_c, 5, 77, 127
2, 311884, Note_off_c, 3, 51, 127
2, 311886, Note_on_c, 3, 75, 127
2, 311886, Note_on_c, 11, 46, 127
2, 312022, Note_off_c, 11, 46, 127
2, 312043, Note_off_c, 3, 75, 127
2, 312045, Note_on_c, 1, 73, 127
2, 312045, Note_on_c, 5, 53, 127
2, 312203, Note_off_c, 5, 53, 127
2, 312206, Note_on_c, 11, 82, 127
2, 312206, Note_on_c, 7, 55, 127
2, 312364, Note_off_c, 7, 55, 127
2, 312364, Note_off_c, 11, 82, 127
2, 312364, Note_off_c, 1, 73, 127
2, 312367, Note_on_c, 0, 72, 127
2, 312367, Note_on_c, 8, 56, 127
2, 312525, Note_off_c, 8, 56, 127
2, 312525, Note_off_c, 0, 72, 127
2, 312528, Note_on_c, 1, 73, 127
2, 312528, Note_on_c, 7, 55, 127
2, 312686, Note_off_c, 7, 55, 127
2, 312688, Note_on_c, 11, 82, 127
2, 312688, Note_on_c, 8, 56, 127
2, 312846, Note_off_c, 8, 56, 127
2, 312846, Note_off_c, 11, 82, 127
2, 312847, Note_off_c, 1, 73, 127
2, 312849, Note_on_c, 1, 73, 127
2, 312849, Note_on_c, 11, 58, 127
2, 313007, Note_off_c, 11, 58, 127
2, 313007, Note_off_c, 1, 73, 127
2, 313010, Note_on_c, 0, 72, 127
2, 313010, Note_on_c, 8, 56, 127
2, 313168, Note_off_c, 0, 72, 127
2, 313171, Note_on_c, 3, 75, 127
2, 313329, Note_off_c, 3, 75, 127
2, 313329, Note_off_c, 8, 56, 127
2, 313332, Note_on_c, 8, 80, 127
2, 313332, Note_on_c, 3, 51, 127
2, 313468, Note_off_c, 3, 51, 127
2, 313489, Note_off_c, 8, 80, 127
2, 313491, Note_on_c, 7, 79, 127
2, 313491, Note_on_c, 8, 56, 127
2, 313649, Note_off_c, 7, 79, 127
2, 313652, Note_on_c, 5, 77, 127
2, 313810, Note_off_c, 5, 77, 127
2, 313810, Note_off_c, 8, 56, 127
2, 313812, Note_on_c, 8, 80, 127
2, 313812, Note_on_c, 3, 51, 127
2, 313948, Note_off_c, 3, 51, 127
2, 313969, Note_off_c, 8, 80, 127
2, 313971, Note_on_c, 2, 74, 127
2, 313971, Note_on_c, 11, 58, 127
2, 314129, Note_off_c, 11, 58, 127
2, 314132, Note_on_c, 0, 60, 127
2, 314290, Note_off_c, 0, 60, 127
2, 314290, Note_off_c, 2, 74, 127
2, 314293, Note_on_c, 11, 70, 127
2, 314293, Note_on_c, 2, 62, 127
2, 314451, Note_off_c, 2, 62, 127
2, 314451, Note_off_c, 11, 70, 127
2, 314454, Note_on_c, 3, 75, 127
2, 314454, Note_on_c, 0, 60, 127
2, 314612, Note_off_c, 0, 60, 127
2, 314615, Note_on_c, 2, 62, 127
2, 314773, Note_off_c, 2, 62, 127
2, 314773, Note_off_c, 3, 75, 127
2, 314775, Note_on_c, 11, 70, 127
2, 314775, Note_on_c, 3, 63, 127
2, 314933, Note_off_c, 3, 63, 127
2, 314933, Note_off_c, 11, 70, 127
2, 314936, Note_on_c, 5, 77, 127
2, 314936, Note_on_c, 2, 62, 127
2, 315094, Note_off_c, 2, 62, 127
2, 315097, Note_on_c, 5, 65, 127
2, 315255, Note_off_c, 5, 65, 127
2, 315255, Note_off_c, 5, 77, 127
2, 315258, Note_on_c, 11, 70, 127
2, 315258, Note_on_c, 3, 63, 127
2, 315416, Note_off_c, 3, 63, 127
2, 315416, Note_off_c, 11, 70, 127
2, 315419, Note_on_c, 5, 77, 127
2, 315419, Note_on_c, 2, 62, 127
2, 315577, Note_off_c, 2, 62, 127
2, 315579, Note_on_c, 0, 60, 127
2, 315737, Note_off_c, 0, 60, 127
2, 315738, Note_off_c, 5, 77, 127
2, 315740, Note_on_c, 8, 68, 127
2, 315740, Note_on_c, 11, 58, 127
2, 315898, Note_off_c, 11, 58, 127
2, 315898, Note_off_c, 8, 68, 127
2, 315901, Note_on_c, 7, 67, 127
2, 315901, Note_on_c, 3, 51, 127
2, 316059, Note_off_c, 3, 51, 127
2, 316062, Note_on_c, 3, 63, 127
2, 316140, Note_off_c, 7, 67, 127
2, 316142, Note_on_c, 8, 68, 127
2, 316220, Note_off_c, 8, 68, 127
2, 316220, Note_off_c, 3, 63, 127
2, 316223, Note_on_c, 7, 67, 127
2, 316223, Note_on_c, 1, 61, 127
2, 316301, Note_off_c, 7, 67, 127
2, 316303, Note_on_c, 8, 68, 127
2, 316381, Note_off_c, 8, 68, 127
2, 316381, Note_off_c, 1, 61, 127
2, 316384, Note_on_c, 11, 70, 127
2, 316384, Note_on_c, 0, 60, 127
2, 316462, Note_off_c, 11, 70, 127
2, 316464, Note_on_c, 8, 68, 127
2, 316542, Note_off_c, 8, 68, 127
2, 316542, Note_off_c, 0, 60, 127
2, 316544, Note_on_c, 11, 70, 127
2, 316544, Note_on_c, 11, 58, 127
2, 316622, Note_off_c, 11, 70, 127
2, 316625, Note_on_c, 8, 68, 127
2, 316702, Note_off_c, 11, 58, 127
2, 316703, Note_off_c, 8, 68, 127
2, 316705, Note_on_c, 7, 67, 127
2, 316705, Note_on_c, 8, 56, 127
2, 316783, Note_off_c, 7, 67, 127
2, 316786, Note_on_c, 8, 68, 127
2, 316863, Note_off_c, 8, 56, 127
2, 316864, Note_off_c, 8, 68, 127
2, 316866, Note_on_c, 11, 70, 127
2, 316866, Note_on_c, 7, 55, 127
2, 317024, Note_off_c, 11, 70, 127
2, 317027, Note_on_c, 3, 75, 127
2, 317105, Note_off_c, 7, 55, 127
2, 317107, Note_on_c, 8, 56, 127
2, 317185, Note_off_c, 8, 56, 127
2, 317185, Note_off_c, 3, 75, 127
2, 317188, Note_on_c, 1, 73, 127
2, 317188, Note_on_c, 7, 55, 127
2, 317266, Note_off_c, 7, 55, 127
2, 317268, Note_on_c, 8, 56, 127
2, 317346, Note_off_c, 8, 56, 127
2, 317346, Note_off_c, 1, 73, 127
2, 317348, Note_on_c, 0, 72, 127
2, 317348, Note_on_c, 11, 58, 127
2, 317426, Note_off_c, 11, 58, 127
2, 317429, Note_on_c, 8, 56, 127
2, 317506, Note_off_c, 0, 72, 127
2, 317507, Note_off_c, 8, 56, 127
2, 317509, Note_on_c, 11, 70, 127
2, 317509, Note_on_c, 11, 58, 127
2, 317587, Note_off_c, 11, 58, 127
2, 317590, Note_on_c, 8, 56, 127
2, 317667, Note_off_c, 11, 70, 127
2, 317668, Note_off_c, 8, 56, 127
2, 317670, Note_on_c, 8, 68, 127
2, 317670, Note_on_c, 7, 55, 127
2, 317748, Note_off_c, 7, 55, 127
2, 317751, Note_on_c, 8, 56, 127
2, 317828, Note_off_c, 8, 68, 127
2, 317829, Note_off_c, 8, 56, 127
2, 317831, Note_on_c, 7, 67, 127
2, 317831, Note_on_c, 11, 58, 127
2, 318068, Note_off_c, 7, 67, 127
2, 318070, Note_on_c, 5, 65, 127
2, 318148, Note_off_c, 5, 65, 127
2, 318148, Note_off_c, 11, 58, 127
2, 318151, Note_on_c, 3, 63, 127
2, 318229, Note_off_c, 3, 63, 127
2, 318231, Note_on_c, 5, 65, 127
2, 318309, Note_off_c, 5, 65, 127
2, 318312, Note_on_c, 7, 67, 127
2, 318312, Note_on_c, 11, 46, 127
2, 318390, Note_off_c, 7, 67, 127
2, 318392, Note_on_c, 5, 65, 127
2, 318470, Note_off_c, 5, 65, 127
2, 318472, Note_on_c, 7, 67, 127
2, 318550, Note_off_c, 7, 67, 127
2, 318553, Note_on_c, 5, 65, 127
2, 318631, Note_off_c, 5, 65, 127
2, 318631, Note_off_c, 11, 46, 127
2, 318633, Note_on_c, 3, 63, 127
2, 318711, Note_off_c, 3, 63, 127
2, 318714, Note_on_c, 5, 65, 127
2, 318792, Note_off_c, 5, 65, 127
2, 318794, Note_on_c, 3, 63, 127
2, 318794, Note_on_c, 3, 51, 127
2, 318952, Note_off_c, 3, 63, 127
2, 318955, Note_on_c, 7, 67, 127
2, 319113, Note_off_c, 7, 67, 127
2, 319113, Note_off_c, 3, 51, 127
2, 319116, Note_on_c, 11, 70, 127
2, 319116, Note_on_c, 11, 46, 127
2, 319246, Note_off_c, 11, 46, 127
2, 319274, Note_off_c, 11, 70, 127
2, 319276, Note_on_c, 7, 67, 127
2, 319276, Note_on_c, 3, 51, 127
2, 319434, Note_off_c, 7, 67, 127
2, 319437, Note_on_c, 3, 63, 127
2, 319595, Note_off_c, 3, 63, 127
2, 319595, Note_off_c, 3, 51, 127
2, 319598, Note_on_c, 11, 70, 127
2, 319598, Note_on_c, 11, 46, 127
2, 319728, Note_off_c, 11, 46, 127
2, 319756, Note_off_c, 11, 70, 127
2, 319759, Note_on_c, 0, 72, 127
2, 319759, Note_on_c, 3, 51, 127
2, 319832, Note_on_c, 11, 70, 127
2, 319837, Note_off_c, 0, 72, 127
2, 319903, Note_on_c, 0, 72, 127
2, 319908, Note_off_c, 11, 70, 127
2, 319916, Note_off_c, 3, 51, 127
2, 319918, Note_on_c, 5, 53, 127
2, 319976, Note_on_c, 11, 70, 127
2, 319981, Note_off_c, 0, 72, 127
2, 320047, Note_on_c, 0, 72, 127
2, 320052, Note_off_c, 11, 70, 127
2, 320075, Note_off_c, 5, 53, 127
2, 320077, Note_on_c, 7, 55, 127
2, 320120, Note_on_c, 11, 70, 127
2, 320125, Note_off_c, 0, 72, 127
2, 320193, Note_on_c, 0, 72, 127
2, 320198, Note_off_c, 11, 70, 127
2, 320235, Note_off_c, 7, 55, 127
2, 320238, Note_on_c, 5, 53, 127
2, 320266, Note_on_c, 11, 70, 127
2, 320271, Note_off_c, 0, 72, 127
2, 320337, Note_on_c, 0, 72, 127
2, 320342, Note_off_c, 11, 70, 127
2, 320393, Note_off_c, 5, 53, 127
2, 320395, Note_on_c, 7, 55, 127
2, 320408, Note_on_c, 11, 70, 127
2, 320413, Note_off_c, 0, 72, 127
2, 320479, Note_on_c, 0, 72, 127
2, 320484, Note_off_c, 11, 70, 127
2, 320550, Note_off_c, 7, 55, 127
2, 320552, Note_on_c, 11, 70, 127
2, 320552, Note_on_c, 8, 56, 127
2, 320557, Note_off_c, 0, 72, 127
2, 320710, Note_off_c, 8, 56, 127
2, 320713, Note_on_c, 7, 55, 127
2, 320853, Note_off_c, 11, 70, 127
2, 320871, Note_off_c, 7, 55, 127
2, 320873, Note_on_c, 7, 67, 127
2, 320873, Note_on_c, 3, 51, 127
2, 321031, Note_off_c, 3, 51, 127
2, 321031, Note_off_c, 7, 67, 127
2, 321034, Note_on_c, 3, 75, 127
2, 321034, Note_on_c, 5, 53, 127
2, 321192, Note_off_c, 5, 53, 127
2, 321192, Note_off_c, 3, 75, 127
2, 321195, Note_on_c, 11, 70, 127
2, 321195, Note_on_c, 7, 55, 127
2, 321353, Note_off_c, 7, 55, 127
2, 321353, Note_off_c, 11, 70, 127
2, 321356, Note_on_c, 7, 67, 127
2, 321356, Note_on_c, 8, 56, 127
2, 321514, Note_off_c, 8, 56, 127
2, 321514, Note_off_c, 7, 67, 127
2, 321517, Note_on_c, 3, 75, 127
2, 321517, Note_on_c, 11, 58, 127
2, 321675, Note_off_c, 11, 58, 127
2, 321675, Note_off_c, 3, 75, 127
2, 321678, Note_on_c, 11, 70, 127
2, 321678, Note_on_c, 0, 60, 127
2, 321756, Note_off_c, 0, 60, 127
2, 321758, Note_on_c, 11, 58, 127
2, 321836, Note_off_c, 11, 58, 127
2, 321836, Note_off_c, 11, 70, 127
2, 321838, Note_on_c, 0, 72, 127
2, 321838, Note_on_c, 0, 60, 127
2, 321916, Note_off_c, 0, 60, 127
2, 321916, Note_off_c, 0, 72, 127
2, 321919, Note_on_c, 11, 70, 127
2, 321919, Note_on_c, 11, 58, 127
2, 321997, Note_off_c, 11, 58, 127
2, 321997, Note_off_c, 11, 70, 127
2, 321999, Note_on_c, 8, 68, 127
2, 321999, Note_on_c, 0, 60, 127
2, 322077, Note_off_c, 0, 60, 127
2, 322077, Note_off_c, 8, 68, 127
2, 322080, Note_on_c, 7, 67, 127
2, 322080, Note_on_c, 11, 58, 127
2, 322158, Note_off_c, 11, 58, 127
2, 322158, Note_off_c, 7, 67, 127
2, 322160, Note_on_c, 8, 68, 127
2, 322160, Note_on_c, 0, 60, 127
2, 322238, Note_off_c, 0, 60, 127
2, 322240, Note_on_c, 11, 58, 127
2, 322318, Note_off_c, 11, 58, 127
2, 322318, Note_off_c, 8, 68, 127
2, 322321, Note_on_c, 11, 70, 127
2, 322321, Note_on_c, 0, 60, 127
2, 322399, Note_off_c, 0, 60, 127
2, 322399, Note_off_c, 11, 70, 127
2, 322401, Note_on_c, 8, 68, 127
2, 322401, Note_on_c, 11, 58, 127
2, 322479, Note_off_c, 11, 58, 127
2, 322479, Note_off_c, 8, 68, 127
2, 322482, Note_on_c, 7, 67, 127
2, 322482, Note_on_c, 0, 60, 127
2, 322560, Note_off_c, 0, 60, 127
2, 322560, Note_off_c, 7, 67, 127
2, 322562, Note_on_c, 5, 65, 127
2, 322562, Note_on_c, 11, 58, 127
2, 322640, Note_off_c, 5, 65, 127
2, 322642, Note_on_c, 7, 67, 127
2, 322812, Note_off_c, 7, 67, 127
2, 322815, Note_on_c, 11, 70, 127
2, 322897, Note_off_c, 11, 70, 127
2, 322902, Note_on_c, 8, 68, 127
2, 322924, Note_off_c, 11, 58, 127
2, 322984, Note_off_c, 8, 68, 127
2, 322990, Note_on_c, 3, 63, 127
2, 322990, Note_on_c, 7, 67, 127
2, 323072, Note_off_c, 7, 67, 127
2, 323078, Note_on_c, 5, 65, 127
2, 323160, Note_off_c, 5, 65, 127
2, 323160, Note_off_c, 3, 63, 127
2, 323166, Note_on_c, 7, 67, 127
2, 323166, Note_on_c, 11, 58, 127
2, 323339, Note_off_c, 7, 67, 127
2, 323344, Note_on_c, 11, 70, 127
2, 323428, Note_off_c, 11, 70, 127
2, 323433, Note_on_c, 8, 68, 127
2, 323517, Note_off_c, 8, 68, 127
2, 323521, Note_off_c, 11, 58, 127
2, 323523, Note_on_c, 7, 67, 127
2, 323523, Note_on_c, 3, 63, 127
2, 323607, Note_off_c, 7, 67, 127
2, 323615, Note_on_c, 5, 65, 127
2, 323698, Note_off_c, 3, 63, 127
2, 323699, Note_off_c, 5, 65, 127
2, 323705, Note_on_c, 11, 58, 127
2, 323705, Note_on_c, 7, 67, 127
2, 323884, Note_off_c, 7, 67, 127
2, 323884, Note_off_c, 11, 58, 127
2, 323890, Note_on_c, 0, 60, 127
2, 323890, Note_on_c, 3, 63, 127
2, 323976, Note_off_c, 0, 60, 127
2, 323981, Note_on_c, 11, 58, 127
2, 324067, Note_off_c, 11, 58, 127
2, 324069, Note_off_c, 3, 63, 127
2, 324075, Note_on_c, 8, 56, 127
2, 324075, Note_on_c, 7, 67, 127
2, 324161, Note_off_c, 8, 56, 127
2, 324167, Note_on_c, 7, 55, 127
2, 324253, Note_off_c, 7, 55, 127
2, 324254, Note_off_c, 7, 67, 127
2, 324260, Note_on_c, 11, 70, 127
2, 324260, Note_on_c, 8, 56, 127
2, 324445, Note_off_c, 8, 56, 127
2, 324445, Note_off_c, 11, 70, 127
2, 324451, Note_on_c, 7, 67, 127
2, 324451, Note_on_c, 11, 58, 127
2, 324538, Note_off_c, 11, 58, 127
2, 324546, Note_on_c, 8, 56, 127
2, 324633, Note_off_c, 8, 56, 127
2, 324634, Note_off_c, 7, 67, 127
2, 324640, Note_on_c, 11, 70, 127
2, 324640, Note_on_c, 7, 55, 127
2, 324727, Note_off_c, 7, 55, 127
2, 324737, Note_on_c, 5, 53, 127
2, 324825, Note_off_c, 11, 70, 127
2, 324828, Note_off_c, 5, 53, 127
2, 324836, Note_on_c, 3, 75, 127
2, 324836, Note_on_c, 3, 51, 127
2, 325039, Note_off_c, 3, 51, 127
2, 325077, Note_on_c, 11, 46, 127
2, 325280, Note_off_c, 11, 46, 127
2, 325329, Note_on_c, 7, 43, 127
2, 325532, Note_off_c, 7, 43, 127
2, 325632, Note_on_c, 3, 39, 127
2, 327936, Note_off_c, 3, 75, 127
2, 328032, Note_off_c, 3, 39, 127
2, 333312, End_track
3, 0, Start_track
3, 0, Title_t, "MIDI"
3, 1536, End_track
0, 0, End_of_file
