0, 0, Header, 1, 3, 384
1, 0, Start_track
1, 0, Time_signature, 4, 2, 24, 8
1, 0, Tempo, 500000
1, 331776, End_track
2, 0, Start_track
2, 0, Text_t, "harpsichord: John Sankey"
2, 0, Program_c, 0, 6
2, 0, Pitch_bend_c, 0, 8192
2, 0, Program_c, 1, 6
2, 0, Pitch_bend_c, 1, 7792
2, 0, Program_c, 2, 6
2, 0, Pitch_bend_c, 2, 7876
2, 0, Program_c, 3, 6
2, 0, Pitch_bend_c, 3, 7952
2, 0, Program_c, 4, 6
2, 0, Pitch_bend_c, 4, 7792
2, 0, Program_c, 5, 6
2, 0, Pitch_bend_c, 5, 8112
2, 0, Program_c, 6, 6
2, 0, Pitch_bend_c, 6, 7712
2, 0, Program_c, 7, 6
2, 0, Pitch_bend_c, 7, 8037
2, 0, Program_c, 8, 6
2, 0, Pitch_bend_c, 8, 7872
2, 0, Program_c, 10, 6
2, 0, Pitch_bend_c, 10, 7712
2, 0, Program_c, 11, 6
2, 0, Pitch_bend_c, 11, 8032
2, 0, Program_c, 12, 6
2, 0, Pitch_bend_c, 12, 7872
2, 0, Title_t, "Ger.8l"
2, 67, Note_on_c, 7, 67, 127
2, 243, Note_off_c, 7, 67, 127
2, 278, Note_on_c, 7, 67, 127
2, 278, Note_on_c, 3, 63, 127
2, 278, Note_on_c, 0, 60, 127
2, 487, Note_off_c, 7, 67, 127
2, 489, Note_on_c, 10, 69, 127
2, 592, Note_off_c, 10, 69, 127
2, 595, Note_on_c, 12, 71, 127
2, 696, Note_off_c, 3, 63, 127
2, 698, Note_off_c, 12, 71, 127
2, 698, Note_off_c, 0, 60, 127
2, 700, Note_on_c, 0, 72, 127
2, 700, Note_on_c, 0, 48, 127
2, 909, Note_off_c, 0, 72, 127
2, 912, Note_on_c, 2, 74, 127
2, 1118, Note_off_c, 0, 48, 127
2, 1121, Note_off_c, 2, 74, 127
2, 1123, Note_on_c, 3, 75, 127
2, 1334, Note_on_c, 7, 67, 127
2, 1543, Note_off_c, 3, 75, 127
2, 1545, Note_on_c, 2, 74, 127
2, 1545, Note_on_c, 12, 59, 127
2, 1545, Note_on_c, 7, 55, 127
2, 1754, Note_off_c, 7, 67, 127
2, 1756, Note_on_c, 5, 65, 127
2, 1861, Note_off_c, 2, 74, 127
2, 1965, Note_off_c, 5, 65, 127
2, 1965, Note_off_c, 7, 55, 127
2, 1965, Note_off_c, 12, 59, 127
2, 1968, Note_on_c, 5, 65, 127
2, 1968, Note_on_c, 8, 56, 127
2, 1968, Note_on_c, 0, 60, 127
2, 2071, Note_off_c, 5, 65, 127
2, 2073, Note_on_c, 3, 63, 127
2, 2176, Note_off_c, 3, 63, 127
2, 2179, Note_on_c, 2, 62, 127
2, 2388, Note_off_c, 2, 62, 127
2, 2388, Note_off_c, 0, 60, 127
2, 2388, Note_off_c, 8, 56, 127
2, 2390, Note_on_c, 3, 63, 127
2, 2390, Note_on_c, 8, 44, 127
2, 2601, Note_on_c, 7, 67, 127
2, 2808, Note_off_c, 8, 44, 127
2, 2810, Note_off_c, 7, 67, 127
2, 2812, Note_on_c, 0, 72, 127
2, 2918, Note_off_c, 3, 63, 127
2, 3024, Note_on_c, 5, 65, 127
2, 3233, Note_off_c, 5, 65, 127
2, 3235, Note_on_c, 7, 67, 127
2, 3235, Note_on_c, 0, 60, 127
2, 3235, Note_on_c, 3, 51, 127
2, 3443, Note_off_c, 0, 72, 127
2, 3446, Note_on_c, 0, 72, 127
2, 3655, Note_off_c, 3, 51, 127
2, 3655, Note_off_c, 7, 67, 127
2, 3657, Note_on_c, 8, 68, 127
2, 3657, Note_on_c, 5, 53, 127
2, 3866, Note_off_c, 0, 72, 127
2, 3868, Note_on_c, 2, 74, 127
2, 3971, Note_off_c, 2, 74, 127
2, 3974, Note_on_c, 3, 75, 127
2, 4075, Note_off_c, 8, 68, 127
2, 4077, Note_off_c, 3, 75, 127
2, 4077, Note_off_c, 5, 53, 127
2, 4080, Note_on_c, 5, 77, 127
2, 4080, Note_on_c, 2, 50, 127
2, 4289, Note_off_c, 5, 77, 127
2, 4291, Note_on_c, 7, 79, 127
2, 4500, Note_off_c, 7, 79, 127
2, 4500, Note_off_c, 2, 50, 127
2, 4502, Note_on_c, 8, 80, 127
2, 4502, Note_on_c, 7, 55, 127
2, 4711, Note_off_c, 8, 80, 127
2, 4713, Note_on_c, 7, 79, 127
2, 4816, Note_off_c, 7, 79, 127
2, 4819, Note_on_c, 5, 77, 127
2, 4922, Note_off_c, 5, 77, 127
2, 4922, Note_off_c, 0, 60, 127
2, 4924, Note_on_c, 7, 79, 127
2, 4924, Note_on_c, 12, 59, 127
2, 5133, Note_off_c, 7, 79, 127
2, 5136, Note_on_c, 2, 74, 127
2, 5338, Note_off_c, 7, 55, 127
2, 5344, Note_off_c, 12, 59, 127
2, 5345, Note_off_c, 2, 74, 127
2, 5347, Note_on_c, 2, 74, 127
2, 5347, Note_on_c, 0, 60, 127
2, 5556, Note_off_c, 2, 74, 127
2, 5558, Note_on_c, 3, 75, 127
2, 5661, Note_off_c, 3, 75, 127
2, 5664, Note_on_c, 5, 77, 127
2, 5767, Note_off_c, 5, 77, 127
2, 5769, Note_on_c, 3, 75, 127
2, 5769, Note_on_c, 0, 48, 127
2, 5872, Note_off_c, 3, 75, 127
2, 5875, Note_on_c, 2, 74, 127
2, 5978, Note_off_c, 2, 74, 127
2, 5980, Note_on_c, 0, 72, 127
2, 6139, Note_off_c, 0, 60, 127
2, 6156, Note_off_c, 0, 72, 127
2, 6165, Note_off_c, 0, 48, 127
2, 6192, Note_on_c, 7, 79, 127
2, 6192, Note_on_c, 0, 60, 127
2, 6403, Note_on_c, 3, 75, 127
2, 6612, Note_off_c, 0, 60, 127
2, 6612, Note_off_c, 7, 79, 127
2, 6614, Note_on_c, 7, 79, 127
2, 6614, Note_on_c, 11, 58, 127
2, 6823, Note_off_c, 3, 75, 127
2, 6825, Note_on_c, 2, 74, 127
2, 7034, Note_off_c, 2, 74, 127
2, 7034, Note_off_c, 11, 58, 127
2, 7036, Note_on_c, 0, 72, 127
2, 7036, Note_on_c, 8, 56, 127
2, 7245, Note_off_c, 7, 79, 127
2, 7248, Note_on_c, 8, 80, 127
2, 7351, Note_off_c, 8, 80, 127
2, 7353, Note_on_c, 11, 82, 127
2, 7456, Note_off_c, 11, 82, 127
2, 7456, Note_off_c, 8, 56, 127
2, 7459, Note_on_c, 0, 84, 127
2, 7459, Note_on_c, 7, 55, 127
2, 7668, Note_off_c, 0, 84, 127
2, 7670, Note_on_c, 3, 75, 127
2, 7879, Note_off_c, 3, 75, 127
2, 7879, Note_off_c, 7, 55, 127
2, 7881, Note_on_c, 5, 77, 127
2, 7881, Note_on_c, 8, 56, 127
2, 8089, Note_off_c, 0, 72, 127
2, 8092, Note_on_c, 0, 72, 127
2, 8301, Note_off_c, 8, 56, 127
2, 8301, Note_off_c, 5, 77, 127
2, 8304, Note_on_c, 8, 80, 127
2, 8304, Note_on_c, 5, 53, 127
2, 8512, Note_off_c, 0, 72, 127
2, 8515, Note_on_c, 0, 72, 127
2, 8713, Note_off_c, 0, 72, 127
2, 8724, Note_off_c, 5, 53, 127
2, 8724, Note_off_c, 8, 80, 127
2, 8726, Note_on_c, 0, 72, 127
2, 8726, Note_on_c, 11, 58, 127
2, 8935, Note_off_c, 0, 72, 127
2, 8937, Note_on_c, 2, 74, 127
2, 9040, Note_off_c, 2, 74, 127
2, 9043, Note_on_c, 3, 75, 127
2, 9146, Note_off_c, 3, 75, 127
2, 9146, Note_off_c, 11, 58, 127
2, 9148, Note_on_c, 2, 74, 127
2, 9148, Note_on_c, 11, 46, 127
2, 9251, Note_off_c, 2, 74, 127
2, 9254, Note_on_c, 0, 72, 127
2, 9357, Note_off_c, 0, 72, 127
2, 9360, Note_on_c, 11, 70, 127
2, 9536, Note_off_c, 11, 70, 127
2, 9544, Note_off_c, 11, 46, 127
2, 9571, Note_on_c, 5, 77, 127
2, 9571, Note_on_c, 11, 58, 127
2, 9782, Note_on_c, 2, 74, 127
2, 9991, Note_off_c, 11, 58, 127
2, 9991, Note_off_c, 5, 77, 127
2, 9993, Note_on_c, 5, 77, 127
2, 9993, Note_on_c, 8, 56, 127
2, 10202, Note_off_c, 2, 74, 127
2, 10204, Note_on_c, 0, 72, 127
2, 10413, Note_off_c, 0, 72, 127
2, 10413, Note_off_c, 8, 56, 127
2, 10416, Note_on_c, 11, 70, 127
2, 10416, Note_on_c, 7, 55, 127
2, 10624, Note_off_c, 5, 77, 127
2, 10627, Note_on_c, 7, 79, 127
2, 10730, Note_off_c, 7, 79, 127
2, 10732, Note_on_c, 8, 80, 127
2, 10835, Note_off_c, 8, 80, 127
2, 10836, Note_off_c, 7, 55, 127
2, 10838, Note_on_c, 11, 82, 127
2, 10838, Note_on_c, 5, 53, 127
2, 11047, Note_off_c, 11, 82, 127
2, 11049, Note_on_c, 2, 74, 127
2, 11258, Note_off_c, 2, 74, 127
2, 11258, Note_off_c, 5, 53, 127
2, 11260, Note_on_c, 3, 75, 127
2, 11260, Note_on_c, 7, 55, 127
2, 11469, Note_off_c, 11, 70, 127
2, 11472, Note_on_c, 11, 70, 127
2, 11680, Note_off_c, 7, 55, 127
2, 11680, Note_off_c, 3, 75, 127
2, 11683, Note_on_c, 7, 79, 127
2, 11683, Note_on_c, 3, 51, 127
2, 11892, Note_off_c, 11, 70, 127
2, 11894, Note_on_c, 11, 70, 127
2, 12092, Note_off_c, 11, 70, 127
2, 12103, Note_off_c, 3, 51, 127
2, 12103, Note_off_c, 7, 79, 127
2, 12105, Note_on_c, 11, 70, 127
2, 12105, Note_on_c, 8, 56, 127
2, 12314, Note_off_c, 11, 70, 127
2, 12316, Note_on_c, 0, 72, 127
2, 12419, Note_off_c, 0, 72, 127
2, 12422, Note_on_c, 1, 73, 127
2, 12525, Note_off_c, 1, 73, 127
2, 12525, Note_off_c, 8, 56, 127
2, 12528, Note_on_c, 0, 72, 127
2, 12528, Note_on_c, 8, 44, 127
2, 12631, Note_off_c, 0, 72, 127
2, 12633, Note_on_c, 11, 70, 127
2, 12736, Note_off_c, 11, 70, 127
2, 12739, Note_on_c, 8, 68, 127
2, 12924, Note_off_c, 8, 44, 127
2, 12926, Note_off_c, 8, 68, 127
2, 12950, Note_on_c, 3, 75, 127
2, 12950, Note_on_c, 8, 56, 127
2, 13161, Note_on_c, 0, 72, 127
2, 13370, Note_off_c, 8, 56, 127
2, 13370, Note_off_c, 3, 75, 127
2, 13372, Note_on_c, 3, 75, 127
2, 13372, Note_on_c, 7, 55, 127
2, 13581, Note_off_c, 0, 72, 127
2, 13584, Note_on_c, 11, 70, 127
2, 13792, Note_off_c, 7, 55, 127
2, 13793, Note_off_c, 11, 70, 127
2, 13795, Note_on_c, 8, 68, 127
2, 13795, Note_on_c, 5, 53, 127
2, 13944, Note_off_c, 3, 75, 127
2, 14006, Note_on_c, 5, 77, 127
2, 14109, Note_off_c, 5, 77, 127
2, 14112, Note_on_c, 7, 79, 127
2, 14215, Note_off_c, 7, 79, 127
2, 14215, Note_off_c, 5, 53, 127
2, 14217, Note_on_c, 8, 80, 127
2, 14217, Note_on_c, 5, 41, 127
2, 14426, Note_off_c, 8, 68, 127
2, 14428, Note_on_c, 3, 75, 127
2, 14624, Note_off_c, 5, 41, 127
2, 14637, Note_off_c, 8, 80, 127
2, 14640, Note_on_c, 8, 80, 127
2, 14640, Note_on_c, 5, 53, 127
2, 14848, Note_off_c, 3, 75, 127
2, 14851, Note_on_c, 2, 74, 127
2, 15060, Note_off_c, 5, 53, 127
2, 15060, Note_off_c, 8, 80, 127
2, 15062, Note_on_c, 8, 80, 127
2, 15062, Note_on_c, 3, 51, 127
2, 15271, Note_off_c, 2, 74, 127
2, 15273, Note_on_c, 0, 72, 127
2, 15482, Note_off_c, 0, 72, 127
2, 15482, Note_off_c, 3, 51, 127
2, 15484, Note_on_c, 11, 70, 127
2, 15484, Note_on_c, 2, 50, 127
2, 15634, Note_off_c, 8, 80, 127
2, 15696, Note_on_c, 5, 77, 127
2, 15799, Note_off_c, 5, 77, 127
2, 15801, Note_on_c, 7, 79, 127
2, 15904, Note_off_c, 7, 79, 127
2, 15904, Note_off_c, 2, 50, 127
2, 15907, Note_on_c, 8, 80, 127
2, 15907, Note_on_c, 2, 38, 127
2, 16115, Note_off_c, 11, 70, 127
2, 16118, Note_on_c, 11, 70, 127
2, 16314, Note_off_c, 2, 38, 127
2, 16327, Note_off_c, 8, 80, 127
2, 16329, Note_on_c, 8, 80, 127
2, 16329, Note_on_c, 2, 50, 127
2, 16538, Note_off_c, 11, 70, 127
2, 16540, Note_on_c, 5, 77, 127
2, 16747, Note_off_c, 8, 80, 127
2, 16749, Note_off_c, 2, 50, 127
2, 16752, Note_on_c, 8, 80, 127
2, 16752, Note_on_c, 11, 46, 127
2, 16960, Note_off_c, 5, 77, 127
2, 16963, Note_on_c, 2, 74, 127
2, 17172, Note_off_c, 2, 74, 127
2, 17172, Note_off_c, 11, 46, 127
2, 17174, Note_on_c, 11, 70, 127
2, 17174, Note_on_c, 3, 51, 127
2, 17324, Note_off_c, 8, 80, 127
2, 17385, Note_on_c, 7, 79, 127
2, 17488, Note_off_c, 7, 79, 127
2, 17491, Note_on_c, 5, 77, 127
2, 17594, Note_off_c, 5, 77, 127
2, 17594, Note_off_c, 3, 51, 127
2, 17596, Note_on_c, 7, 79, 127
2, 17596, Note_on_c, 7, 43, 127
2, 17808, Note_on_c, 3, 75, 127
2, 17904, Note_off_c, 7, 79, 127
2, 18010, Note_off_c, 11, 70, 127
2, 18016, Note_off_c, 7, 43, 127
2, 18017, Note_off_c, 3, 75, 127
2, 18019, Note_on_c, 5, 77, 127
2, 18019, Note_on_c, 8, 44, 127
2, 18230, Note_on_c, 0, 72, 127
2, 18439, Note_off_c, 8, 44, 127
2, 18441, Note_on_c, 2, 74, 127
2, 18441, Note_on_c, 11, 46, 127
2, 18547, Note_off_c, 5, 77, 127
2, 18650, Note_off_c, 0, 72, 127
2, 18652, Note_on_c, 8, 68, 127
2, 18749, Note_off_c, 2, 74, 127
2, 18861, Note_off_c, 8, 68, 127
2, 18861, Note_off_c, 11, 46, 127
2, 18864, Note_on_c, 7, 67, 127
2, 18864, Note_on_c, 3, 51, 127
2, 19075, Note_on_c, 3, 75, 127
2, 19178, Note_off_c, 3, 75, 127
2, 19180, Note_on_c, 5, 77, 127
2, 19283, Note_off_c, 5, 77, 127
2, 19284, Note_off_c, 3, 51, 127
2, 19286, Note_on_c, 7, 79, 127
2, 19286, Note_on_c, 3, 39, 127
2, 19495, Note_off_c, 7, 79, 127
2, 19497, Note_on_c, 2, 74, 127
2, 19700, Note_off_c, 7, 67, 127
2, 19704, Note_off_c, 3, 39, 127
2, 19706, Note_off_c, 2, 74, 127
2, 19708, Note_on_c, 3, 75, 127
2, 19920, Note_on_c, 12, 71, 127
2, 20118, Note_off_c, 12, 71, 127
2, 20128, Note_off_c, 3, 75, 127
2, 20131, Note_on_c, 0, 72, 127
2, 20131, Note_on_c, 3, 51, 127
2, 20342, Note_on_c, 7, 67, 127
2, 20551, Note_off_c, 7, 67, 127
2, 20551, Note_off_c, 3, 51, 127
2, 20553, Note_on_c, 6, 66, 127
2, 20553, Note_on_c, 2, 50, 127
2, 20703, Note_off_c, 0, 72, 127
2, 20764, Note_on_c, 6, 78, 127
2, 20867, Note_off_c, 6, 78, 127
2, 20870, Note_on_c, 7, 79, 127
2, 20971, Note_off_c, 6, 66, 127
2, 20973, Note_off_c, 7, 79, 127
2, 20973, Note_off_c, 2, 50, 127
2, 20976, Note_on_c, 10, 81, 127
2, 20976, Note_on_c, 2, 38, 127
2, 21185, Note_off_c, 10, 81, 127
2, 21187, Note_on_c, 2, 74, 127
2, 21394, Note_off_c, 2, 38, 127
2, 21396, Note_off_c, 2, 74, 127
2, 21398, Note_on_c, 3, 75, 127
2, 21609, Note_on_c, 0, 72, 127
2, 21807, Note_off_c, 0, 72, 127
2, 21818, Note_off_c, 3, 75, 127
2, 21820, Note_on_c, 2, 74, 127
2, 21820, Note_on_c, 6, 54, 127
2, 22032, Note_on_c, 10, 69, 127
2, 22216, Note_off_c, 2, 74, 127
2, 22240, Note_off_c, 6, 54, 127
2, 22243, Note_on_c, 11, 70, 127
2, 22243, Note_on_c, 7, 55, 127
2, 22452, Note_off_c, 10, 69, 127
2, 22454, Note_on_c, 7, 67, 127
2, 22557, Note_off_c, 7, 67, 127
2, 22560, Note_on_c, 6, 66, 127
2, 22663, Note_off_c, 6, 66, 127
2, 22663, Note_off_c, 7, 55, 127
2, 22665, Note_on_c, 7, 67, 127
2, 22665, Note_on_c, 0, 48, 127
2, 22874, Note_off_c, 11, 70, 127
2, 22876, Note_on_c, 3, 75, 127
2, 23085, Note_off_c, 3, 75, 127
2, 23085, Note_off_c, 0, 48, 127
2, 23088, Note_on_c, 10, 69, 127
2, 23088, Note_on_c, 2, 50, 127
2, 23297, Note_off_c, 10, 69, 127
2, 23299, Note_on_c, 0, 72, 127
2, 23402, Note_off_c, 0, 72, 127
2, 23404, Note_on_c, 12, 71, 127
2, 23507, Note_off_c, 12, 71, 127
2, 23508, Note_off_c, 2, 50, 127
2, 23510, Note_on_c, 0, 72, 127
2, 23510, Note_on_c, 2, 38, 127
2, 23718, Note_off_c, 7, 67, 127
2, 23721, Note_on_c, 6, 66, 127
2, 23930, Note_off_c, 6, 66, 127
2, 23930, Note_off_c, 2, 38, 127
2, 23932, Note_on_c, 7, 67, 127
2, 23932, Note_on_c, 7, 43, 127
2, 24060, Note_off_c, 0, 72, 127
2, 24144, Note_on_c, 12, 71, 127
2, 24247, Note_off_c, 12, 71, 127
2, 24249, Note_on_c, 0, 72, 127
2, 24352, Note_off_c, 0, 72, 127
2, 24355, Note_on_c, 2, 74, 127
2, 24563, Note_off_c, 7, 67, 127
2, 24566, Note_on_c, 5, 65, 127
2, 24775, Note_off_c, 5, 65, 127
2, 24777, Note_on_c, 3, 63, 127
2, 24949, Note_off_c, 2, 74, 127
2, 24988, Note_on_c, 0, 72, 127
2, 25197, Note_off_c, 0, 72, 127
2, 25200, Note_on_c, 10, 69, 127
2, 25409, Note_off_c, 10, 69, 127
2, 25411, Note_on_c, 6, 66, 127
2, 25620, Note_off_c, 6, 66, 127
2, 25622, Note_on_c, 7, 67, 127
2, 25830, Note_off_c, 3, 63, 127
2, 25833, Note_on_c, 2, 62, 127
2, 25936, Note_off_c, 2, 62, 127
2, 25939, Note_on_c, 0, 60, 127
2, 26042, Note_off_c, 0, 60, 127
2, 26044, Note_on_c, 12, 59, 127
2, 26147, Note_off_c, 12, 59, 127
2, 26150, Note_on_c, 0, 60, 127
2, 26253, Note_off_c, 0, 60, 127
2, 26256, Note_on_c, 2, 62, 127
2, 26454, Note_off_c, 2, 62, 127
2, 26464, Note_off_c, 7, 43, 127
2, 26467, Note_on_c, 7, 55, 127
2, 26887, Note_off_c, 7, 67, 127
2, 27100, Note_on_c, 2, 74, 127
2, 27267, Note_off_c, 7, 55, 127
2, 27309, Note_off_c, 2, 74, 127
2, 27312, Note_on_c, 2, 74, 127
2, 27312, Note_on_c, 7, 55, 127
2, 27312, Note_on_c, 12, 59, 127
2, 27521, Note_off_c, 2, 74, 127
2, 27523, Note_on_c, 12, 71, 127
2, 27626, Note_off_c, 12, 71, 127
2, 27628, Note_on_c, 0, 72, 127
2, 27731, Note_off_c, 0, 72, 127
2, 27732, Note_off_c, 12, 59, 127
2, 27732, Note_off_c, 7, 55, 127
2, 27734, Note_on_c, 2, 74, 127
2, 27734, Note_on_c, 7, 43, 127
2, 27943, Note_off_c, 2, 74, 127
2, 27945, Note_on_c, 12, 71, 127
2, 28143, Note_off_c, 12, 71, 127
2, 28152, Note_off_c, 7, 43, 127
2, 28156, Note_on_c, 7, 67, 127
2, 28368, Note_on_c, 12, 71, 127
2, 28576, Note_off_c, 7, 67, 127
2, 28579, Note_on_c, 5, 65, 127
2, 28579, Note_on_c, 2, 62, 127
2, 28579, Note_on_c, 7, 55, 127
2, 28788, Note_off_c, 12, 71, 127
2, 28790, Note_on_c, 12, 71, 127
2, 28988, Note_off_c, 12, 71, 127
2, 28999, Note_off_c, 7, 55, 127
2, 28999, Note_off_c, 2, 62, 127
2, 28999, Note_off_c, 5, 65, 127
2, 29001, Note_on_c, 3, 63, 127
2, 29001, Note_on_c, 0, 60, 127
2, 29212, Note_on_c, 0, 72, 127
2, 29315, Note_off_c, 0, 72, 127
2, 29318, Note_on_c, 12, 71, 127
2, 29421, Note_off_c, 12, 71, 127
2, 29424, Note_on_c, 0, 72, 127
2, 29424, Note_on_c, 0, 48, 127
2, 29633, Note_off_c, 0, 72, 127
2, 29635, Note_on_c, 7, 67, 127
2, 29837, Note_off_c, 0, 60, 127
2, 29837, Note_off_c, 3, 63, 127
2, 29842, Note_off_c, 0, 48, 127
2, 29844, Note_off_c, 7, 67, 127
2, 29846, Note_on_c, 3, 63, 127
2, 30055, Note_off_c, 3, 63, 127
2, 30057, Note_on_c, 7, 67, 127
2, 30160, Note_off_c, 7, 67, 127
2, 30163, Note_on_c, 5, 65, 127
2, 30266, Note_off_c, 5, 65, 127
2, 30268, Note_on_c, 3, 63, 127
2, 30268, Note_on_c, 0, 48, 127
2, 30371, Note_off_c, 3, 63, 127
2, 30374, Note_on_c, 2, 62, 127
2, 30477, Note_off_c, 2, 62, 127
2, 30480, Note_on_c, 0, 60, 127
2, 30678, Note_off_c, 0, 60, 127
2, 30688, Note_off_c, 0, 48, 127
2, 30691, Note_on_c, 11, 58, 127
2, 30902, Note_on_c, 4, 76, 127
2, 31005, Note_off_c, 4, 76, 127
2, 31008, Note_on_c, 5, 77, 127
2, 31111, Note_off_c, 5, 77, 127
2, 31111, Note_off_c, 11, 58, 127
2, 31113, Note_on_c, 7, 79, 127
2, 31113, Note_on_c, 11, 46, 127
2, 31322, Note_off_c, 7, 79, 127
2, 31324, Note_on_c, 4, 76, 127
2, 31522, Note_off_c, 4, 76, 127
2, 31531, Note_off_c, 11, 46, 127
2, 31536, Note_on_c, 0, 72, 127
2, 31747, Note_on_c, 4, 76, 127
2, 31956, Note_off_c, 0, 72, 127
2, 31958, Note_on_c, 7, 67, 127
2, 31958, Note_on_c, 11, 58, 127
2, 32167, Note_off_c, 4, 76, 127
2, 32169, Note_on_c, 4, 76, 127
2, 32367, Note_off_c, 4, 76, 127
2, 32378, Note_off_c, 11, 58, 127
2, 32378, Note_off_c, 7, 67, 127
2, 32380, Note_on_c, 5, 65, 127
2, 32380, Note_on_c, 8, 56, 127
2, 32592, Note_on_c, 5, 77, 127
2, 32695, Note_off_c, 5, 77, 127
2, 32697, Note_on_c, 4, 76, 127
2, 32798, Note_off_c, 5, 65, 127
2, 32800, Note_off_c, 4, 76, 127
2, 32800, Note_off_c, 8, 56, 127
2, 32803, Note_on_c, 5, 77, 127
2, 32803, Note_on_c, 7, 55, 127
2, 33012, Note_off_c, 5, 77, 127
2, 33014, Note_on_c, 0, 72, 127
2, 33223, Note_off_c, 0, 72, 127
2, 33223, Note_off_c, 7, 55, 127
2, 33225, Note_on_c, 8, 68, 127
2, 33225, Note_on_c, 5, 53, 127
2, 33434, Note_off_c, 8, 68, 127
2, 33436, Note_on_c, 0, 72, 127
2, 33539, Note_off_c, 0, 72, 127
2, 33542, Note_on_c, 11, 70, 127
2, 33645, Note_off_c, 11, 70, 127
2, 33645, Note_off_c, 5, 53, 127
2, 33648, Note_on_c, 8, 68, 127
2, 33648, Note_on_c, 0, 60, 127
2, 33751, Note_off_c, 8, 68, 127
2, 33753, Note_on_c, 7, 67, 127
2, 33856, Note_off_c, 7, 67, 127
2, 33859, Note_on_c, 5, 65, 127
2, 34044, Note_off_c, 0, 60, 127
2, 34046, Note_off_c, 5, 65, 127
2, 34070, Note_on_c, 1, 73, 127
2, 34070, Note_on_c, 11, 46, 127
2, 34281, Note_on_c, 7, 67, 127
2, 34384, Note_off_c, 7, 67, 127
2, 34387, Note_on_c, 8, 68, 127
2, 34490, Note_off_c, 8, 68, 127
2, 34490, Note_off_c, 11, 46, 127
2, 34492, Note_on_c, 11, 70, 127
2, 34492, Note_on_c, 11, 58, 127
2, 34701, Note_off_c, 11, 70, 127
2, 34704, Note_on_c, 5, 65, 127
2, 34912, Note_off_c, 11, 58, 127
2, 34913, Note_off_c, 5, 65, 127
2, 34915, Note_on_c, 7, 67, 127
2, 34915, Note_on_c, 3, 51, 127
2, 35124, Note_off_c, 7, 67, 127
2, 35126, Note_on_c, 11, 70, 127
2, 35335, Note_off_c, 11, 70, 127
2, 35335, Note_off_c, 3, 51, 127
2, 35337, Note_on_c, 3, 63, 127
2, 35337, Note_on_c, 7, 55, 127
2, 35544, Note_off_c, 1, 73, 127
2, 35548, Note_on_c, 1, 73, 127
2, 35724, Note_off_c, 1, 73, 127
2, 35757, Note_off_c, 7, 55, 127
2, 35760, Note_on_c, 0, 72, 127
2, 35760, Note_on_c, 8, 44, 127
2, 35909, Note_off_c, 3, 63, 127
2, 35971, Note_on_c, 5, 65, 127
2, 36074, Note_off_c, 5, 65, 127
2, 36076, Note_on_c, 7, 67, 127
2, 36179, Note_off_c, 7, 67, 127
2, 36180, Note_off_c, 8, 44, 127
2, 36182, Note_on_c, 8, 68, 127
2, 36182, Note_on_c, 8, 56, 127
2, 36391, Note_off_c, 8, 68, 127
2, 36393, Note_on_c, 4, 64, 127
2, 36602, Note_off_c, 4, 64, 127
2, 36604, Note_on_c, 5, 65, 127
2, 36604, Note_on_c, 1, 49, 127
2, 36728, Note_off_c, 0, 72, 127
2, 36816, Note_on_c, 5, 77, 127
2, 36919, Note_off_c, 5, 77, 127
2, 36921, Note_on_c, 3, 75, 127
2, 37022, Note_off_c, 5, 65, 127
2, 37024, Note_off_c, 3, 75, 127
2, 37024, Note_off_c, 1, 49, 127
2, 37027, Note_on_c, 1, 73, 127
2, 37027, Note_on_c, 5, 53, 127
2, 37236, Note_off_c, 1, 73, 127
2, 37238, Note_on_c, 0, 72, 127
2, 37370, Note_off_c, 8, 56, 127
2, 37447, Note_off_c, 0, 72, 127
2, 37447, Note_off_c, 5, 53, 127
2, 37449, Note_on_c, 11, 70, 127
2, 37449, Note_on_c, 7, 43, 127
2, 37658, Note_off_c, 11, 70, 127
2, 37660, Note_on_c, 1, 73, 127
2, 37763, Note_off_c, 1, 73, 127
2, 37766, Note_on_c, 0, 72, 127
2, 37869, Note_off_c, 0, 72, 127
2, 37869, Note_off_c, 7, 43, 127
2, 37872, Note_on_c, 11, 70, 127
2, 37872, Note_on_c, 7, 55, 127
2, 38081, Note_off_c, 11, 70, 127
2, 38083, Note_on_c, 8, 68, 127
2, 38292, Note_off_c, 8, 68, 127
2, 38292, Note_off_c, 7, 55, 127
2, 38294, Note_on_c, 7, 67, 127
2, 38294, Note_on_c, 11, 58, 127
2, 38503, Note_off_c, 7, 67, 127
2, 38505, Note_on_c, 11, 70, 127
2, 38608, Note_off_c, 11, 70, 127
2, 38611, Note_on_c, 8, 68, 127
2, 38714, Note_off_c, 8, 68, 127
2, 38714, Note_off_c, 11, 58, 127
2, 38716, Note_on_c, 7, 67, 127
2, 38716, Note_on_c, 1, 61, 127
2, 38925, Note_off_c, 7, 67, 127
2, 38928, Note_on_c, 5, 65, 127
2, 39136, Note_off_c, 1, 61, 127
2, 39137, Note_off_c, 5, 65, 127
2, 39139, Note_on_c, 4, 64, 127
2, 39139, Note_on_c, 0, 60, 127
2, 39242, Note_off_c, 4, 64, 127
2, 39244, Note_on_c, 5, 65, 127
2, 39347, Note_off_c, 5, 65, 127
2, 39350, Note_on_c, 7, 67, 127
2, 39453, Note_off_c, 7, 67, 127
2, 39456, Note_on_c, 8, 68, 127
2, 39559, Note_off_c, 8, 68, 127
2, 39561, Note_on_c, 11, 70, 127
2, 39561, Note_on_c, 7, 55, 127
2, 39755, Note_off_c, 0, 60, 127
2, 39772, Note_on_c, 1, 61, 127
2, 39981, Note_off_c, 1, 61, 127
2, 39981, Note_off_c, 7, 55, 127
2, 39984, Note_on_c, 0, 60, 127
2, 39984, Note_on_c, 4, 52, 127
2, 40192, Note_off_c, 11, 70, 127
2, 40195, Note_on_c, 4, 76, 127
2, 40298, Note_off_c, 4, 76, 127
2, 40300, Note_on_c, 5, 77, 127
2, 40403, Note_off_c, 5, 77, 127
2, 40404, Note_off_c, 4, 52, 127
2, 40406, Note_on_c, 7, 79, 127
2, 40406, Note_on_c, 0, 48, 127
2, 40509, Note_off_c, 7, 79, 127
2, 40512, Note_on_c, 8, 80, 127
2, 40615, Note_off_c, 8, 80, 127
2, 40617, Note_on_c, 11, 82, 127
2, 40820, Note_off_c, 0, 60, 127
2, 40826, Note_off_c, 11, 82, 127
2, 40826, Note_off_c, 0, 48, 127
2, 40828, Note_on_c, 8, 80, 127
2, 40828, Note_on_c, 5, 53, 127
2, 40934, Note_on_c, 7, 79, 127
2, 41037, Note_off_c, 7, 79, 127
2, 41040, Note_on_c, 5, 77, 127
2, 41143, Note_off_c, 5, 77, 127
2, 41145, Note_on_c, 4, 76, 127
2, 41248, Note_off_c, 4, 76, 127
2, 41248, Note_off_c, 5, 53, 127
2, 41251, Note_on_c, 5, 77, 127
2, 41251, Note_on_c, 8, 44, 127
2, 41459, Note_off_c, 8, 80, 127
2, 41462, Note_on_c, 8, 80, 127
2, 41671, Note_off_c, 8, 44, 127
2, 41671, Note_off_c, 5, 77, 127
2, 41673, Note_on_c, 1, 73, 127
2, 41673, Note_on_c, 11, 46, 127
2, 41882, Note_off_c, 8, 80, 127
2, 41884, Note_on_c, 7, 79, 127
2, 42093, Note_off_c, 11, 46, 127
2, 42093, Note_off_c, 1, 73, 127
2, 42096, Note_on_c, 11, 70, 127
2, 42096, Note_on_c, 0, 48, 127
2, 42096, Note_on_c, 7, 55, 127
2, 42304, Note_off_c, 7, 79, 127
2, 42307, Note_on_c, 4, 76, 127
2, 42516, Note_off_c, 4, 76, 127
2, 42516, Note_off_c, 7, 55, 127
2, 42516, Note_off_c, 0, 48, 127
2, 42518, Note_on_c, 5, 77, 127
2, 42518, Note_on_c, 5, 41, 127
2, 42727, Note_off_c, 11, 70, 127
2, 42729, Note_on_c, 8, 68, 127
2, 42832, Note_off_c, 8, 68, 127
2, 42835, Note_on_c, 7, 67, 127
2, 42938, Note_off_c, 7, 67, 127
2, 42938, Note_off_c, 5, 41, 127
2, 42940, Note_on_c, 8, 68, 127
2, 42940, Note_on_c, 5, 53, 127
2, 43043, Note_off_c, 8, 68, 127
2, 43046, Note_on_c, 11, 70, 127
2, 43149, Note_off_c, 11, 70, 127
2, 43152, Note_on_c, 0, 72, 127
2, 43354, Note_off_c, 5, 77, 127
2, 43360, Note_off_c, 5, 53, 127
2, 43361, Note_off_c, 0, 72, 127
2, 43363, Note_on_c, 5, 65, 127
2, 43363, Note_on_c, 8, 56, 127
2, 43574, Note_on_c, 8, 68, 127
2, 43783, Note_off_c, 8, 68, 127
2, 43783, Note_off_c, 8, 56, 127
2, 43785, Note_on_c, 0, 72, 127
2, 43785, Note_on_c, 5, 53, 127
2, 43994, Note_off_c, 0, 72, 127
2, 43996, Note_on_c, 3, 75, 127
2, 44172, Note_off_c, 3, 75, 127
2, 44177, Note_off_c, 5, 65, 127
2, 44205, Note_off_c, 5, 53, 127
2, 44208, Note_on_c, 2, 74, 127
2, 44208, Note_on_c, 11, 58, 127
2, 44311, Note_off_c, 2, 74, 127
2, 44313, Note_on_c, 3, 75, 127
2, 44416, Note_off_c, 3, 75, 127
2, 44419, Note_on_c, 5, 77, 127
2, 44522, Note_off_c, 5, 77, 127
2, 44524, Note_on_c, 7, 79, 127
2, 44627, Note_off_c, 7, 79, 127
2, 44628, Note_off_c, 11, 58, 127
2, 44630, Note_on_c, 8, 80, 127
2, 44630, Note_on_c, 2, 50, 127
2, 44841, Note_on_c, 5, 77, 127
2, 45050, Note_off_c, 5, 77, 127
2, 45050, Note_off_c, 2, 50, 127
2, 45052, Note_on_c, 11, 70, 127
2, 45052, Note_on_c, 3, 51, 127
2, 45261, Note_off_c, 8, 80, 127
2, 45264, Note_on_c, 7, 79, 127
2, 45367, Note_off_c, 7, 79, 127
2, 45369, Note_on_c, 5, 77, 127
2, 45472, Note_off_c, 5, 77, 127
2, 45472, Note_off_c, 3, 51, 127
2, 45475, Note_on_c, 3, 75, 127
2, 45475, Note_on_c, 7, 55, 127
2, 45578, Note_off_c, 3, 75, 127
2, 45580, Note_on_c, 5, 77, 127
2, 45683, Note_off_c, 5, 77, 127
2, 45686, Note_on_c, 7, 79, 127
2, 45862, Note_off_c, 7, 79, 127
2, 45866, Note_off_c, 11, 70, 127
2, 45895, Note_off_c, 7, 55, 127
2, 45897, Note_on_c, 0, 72, 127
2, 45897, Note_on_c, 8, 56, 127
2, 46000, Note_off_c, 0, 72, 127
2, 46003, Note_on_c, 2, 74, 127
2, 46106, Note_off_c, 2, 74, 127
2, 46108, Note_on_c, 3, 75, 127
2, 46211, Note_off_c, 3, 75, 127
2, 46214, Note_on_c, 5, 77, 127
2, 46317, Note_off_c, 5, 77, 127
2, 46317, Note_off_c, 8, 56, 127
2, 46320, Note_on_c, 7, 79, 127
2, 46320, Note_on_c, 0, 48, 127
2, 46531, Note_on_c, 3, 75, 127
2, 46740, Note_off_c, 3, 75, 127
2, 46740, Note_off_c, 0, 48, 127
2, 46742, Note_on_c, 8, 68, 127
2, 46742, Note_on_c, 2, 50, 127
2, 46951, Note_off_c, 7, 79, 127
2, 46953, Note_on_c, 5, 77, 127
2, 47056, Note_off_c, 5, 77, 127
2, 47059, Note_on_c, 3, 75, 127
2, 47162, Note_off_c, 3, 75, 127
2, 47162, Note_off_c, 2, 50, 127
2, 47164, Note_on_c, 2, 74, 127
2, 47164, Note_on_c, 5, 53, 127
2, 47267, Note_off_c, 2, 74, 127
2, 47270, Note_on_c, 3, 75, 127
2, 47373, Note_off_c, 3, 75, 127
2, 47376, Note_on_c, 5, 77, 127
2, 47552, Note_off_c, 5, 77, 127
2, 47556, Note_off_c, 8, 68, 127
2, 47584, Note_off_c, 5, 53, 127
2, 47587, Note_on_c, 12, 71, 127
2, 47587, Note_on_c, 7, 55, 127
2, 47690, Note_off_c, 12, 71, 127
2, 47692, Note_on_c, 0, 72, 127
2, 47795, Note_off_c, 0, 72, 127
2, 47798, Note_on_c, 2, 74, 127
2, 47901, Note_off_c, 2, 74, 127
2, 47904, Note_on_c, 3, 75, 127
2, 48007, Note_off_c, 3, 75, 127
2, 48007, Note_off_c, 7, 55, 127
2, 48009, Note_on_c, 5, 77, 127
2, 48009, Note_on_c, 12, 47, 127
2, 48220, Note_on_c, 2, 74, 127
2, 48429, Note_off_c, 2, 74, 127
2, 48429, Note_off_c, 12, 47, 127
2, 48432, Note_on_c, 7, 67, 127
2, 48432, Note_on_c, 0, 48, 127
2, 48640, Note_off_c, 5, 77, 127
2, 48643, Note_on_c, 3, 75, 127
2, 48746, Note_off_c, 3, 75, 127
2, 48748, Note_on_c, 2, 74, 127
2, 48851, Note_off_c, 2, 74, 127
2, 48852, Note_off_c, 0, 48, 127
2, 48854, Note_on_c, 0, 72, 127
2, 48854, Note_on_c, 3, 51, 127
2, 48957, Note_off_c, 0, 72, 127
2, 48960, Note_on_c, 2, 74, 127
2, 49063, Note_off_c, 2, 74, 127
2, 49065, Note_on_c, 3, 75, 127
2, 49274, Note_off_c, 3, 51, 127
2, 49274, Note_off_c, 7, 67, 127
2, 49276, Note_on_c, 8, 68, 127
2, 49276, Note_on_c, 5, 53, 127
2, 49458, Note_off_c, 3, 75, 127
2, 49485, Note_off_c, 5, 53, 127
2, 49488, Note_on_c, 2, 74, 127
2, 49488, Note_on_c, 8, 56, 127
2, 49591, Note_off_c, 8, 56, 127
2, 49591, Note_off_c, 2, 74, 127
2, 49593, Note_on_c, 0, 72, 127
2, 49593, Note_on_c, 7, 55, 127
2, 49696, Note_off_c, 7, 55, 127
2, 49696, Note_off_c, 0, 72, 127
2, 49699, Note_on_c, 12, 71, 127
2, 49699, Note_on_c, 5, 53, 127
2, 49802, Note_off_c, 12, 71, 127
2, 49804, Note_on_c, 0, 72, 127
2, 49907, Note_off_c, 0, 72, 127
2, 49908, Note_off_c, 5, 53, 127
2, 49910, Note_on_c, 2, 74, 127
2, 49910, Note_on_c, 3, 51, 127
2, 50118, Note_off_c, 8, 68, 127
2, 50119, Note_off_c, 3, 51, 127
2, 50119, Note_off_c, 2, 74, 127
2, 50121, Note_on_c, 8, 68, 127
2, 50121, Note_on_c, 5, 65, 127
2, 50121, Note_on_c, 2, 50, 127
2, 50226, Note_off_c, 8, 68, 127
2, 50227, Note_on_c, 7, 67, 127
2, 50330, Note_off_c, 2, 50, 127
2, 50332, Note_off_c, 7, 67, 127
2, 50332, Note_on_c, 8, 68, 127
2, 50332, Note_on_c, 5, 53, 127
2, 50435, Note_off_c, 5, 53, 127
2, 50438, Note_on_c, 3, 51, 127
2, 50541, Note_off_c, 3, 51, 127
2, 50544, Note_on_c, 2, 50, 127
2, 50753, Note_off_c, 2, 50, 127
2, 50755, Note_on_c, 0, 48, 127
2, 50948, Note_off_c, 8, 68, 127
2, 50964, Note_off_c, 0, 48, 127
2, 50966, Note_on_c, 12, 47, 127
2, 51177, Note_on_c, 12, 71, 127
2, 51280, Note_off_c, 12, 71, 127
2, 51283, Note_on_c, 0, 72, 127
2, 51386, Note_off_c, 0, 72, 127
2, 51386, Note_off_c, 12, 47, 127
2, 51386, Note_off_c, 5, 65, 127
2, 51388, Note_on_c, 2, 74, 127
2, 51388, Note_on_c, 7, 43, 127
2, 51600, Note_on_c, 5, 65, 127
2, 51808, Note_off_c, 7, 43, 127
2, 51809, Note_off_c, 5, 65, 127
2, 51811, Note_on_c, 3, 63, 127
2, 51811, Note_on_c, 0, 48, 127
2, 52019, Note_off_c, 2, 74, 127
2, 52020, Note_off_c, 0, 48, 127
2, 52022, Note_on_c, 7, 67, 127
2, 52022, Note_on_c, 2, 50, 127
2, 52231, Note_off_c, 2, 50, 127
2, 52231, Note_off_c, 7, 67, 127
2, 52233, Note_on_c, 0, 72, 127
2, 52233, Note_on_c, 3, 51, 127
2, 52442, Note_off_c, 3, 51, 127
2, 52444, Note_on_c, 10, 69, 127
2, 52444, Note_on_c, 0, 48, 127
2, 52647, Note_off_c, 3, 63, 127
2, 52653, Note_off_c, 0, 48, 127
2, 52653, Note_off_c, 10, 69, 127
2, 52656, Note_on_c, 6, 66, 127
2, 52656, Note_on_c, 2, 50, 127
2, 52761, Note_off_c, 0, 72, 127
2, 52867, Note_on_c, 10, 69, 127
2, 52964, Note_off_c, 6, 66, 127
2, 52970, Note_off_c, 10, 69, 127
2, 52972, Note_on_c, 11, 70, 127
2, 53075, Note_off_c, 11, 70, 127
2, 53076, Note_off_c, 2, 50, 127
2, 53078, Note_on_c, 0, 72, 127
2, 53078, Note_on_c, 10, 45, 127
2, 53287, Note_off_c, 0, 72, 127
2, 53289, Note_on_c, 6, 66, 127
2, 53498, Note_off_c, 6, 66, 127
2, 53498, Note_off_c, 10, 45, 127
2, 53500, Note_on_c, 7, 67, 127
2, 53500, Note_on_c, 11, 46, 127
2, 53709, Note_off_c, 11, 46, 127
2, 53712, Note_on_c, 2, 62, 127
2, 53712, Note_on_c, 2, 50, 127
2, 53920, Note_off_c, 7, 67, 127
2, 53921, Note_off_c, 2, 50, 127
2, 53923, Note_on_c, 11, 70, 127
2, 53923, Note_on_c, 7, 55, 127
2, 54132, Note_off_c, 7, 55, 127
2, 54132, Note_off_c, 2, 62, 127
2, 54134, Note_on_c, 1, 61, 127
2, 54134, Note_on_c, 5, 53, 127
2, 54343, Note_off_c, 5, 53, 127
2, 54343, Note_off_c, 1, 61, 127
2, 54345, Note_on_c, 0, 60, 127
2, 54345, Note_on_c, 4, 52, 127
2, 54451, Note_off_c, 11, 70, 127
2, 54556, Note_on_c, 7, 67, 127
2, 54659, Note_off_c, 7, 67, 127
2, 54662, Note_on_c, 8, 68, 127
2, 54765, Note_off_c, 8, 68, 127
2, 54765, Note_off_c, 4, 52, 127
2, 54768, Note_on_c, 11, 70, 127
2, 54768, Note_on_c, 7, 43, 127
2, 54977, Note_off_c, 11, 70, 127
2, 54979, Note_on_c, 4, 64, 127
2, 55181, Note_off_c, 0, 60, 127
2, 55188, Note_off_c, 4, 64, 127
2, 55188, Note_off_c, 7, 43, 127
2, 55190, Note_on_c, 5, 65, 127
2, 55190, Note_on_c, 8, 44, 127
2, 55399, Note_off_c, 8, 44, 127
2, 55401, Note_on_c, 0, 60, 127
2, 55401, Note_on_c, 0, 48, 127
2, 55610, Note_off_c, 0, 48, 127
2, 55610, Note_off_c, 5, 65, 127
2, 55612, Note_on_c, 5, 53, 127
2, 55612, Note_on_c, 8, 68, 127
2, 55821, Note_off_c, 0, 60, 127
2, 55825, Note_off_c, 5, 53, 127
2, 55828, Note_on_c, 3, 51, 127
2, 55828, Note_on_c, 0, 60, 127
2, 56041, Note_off_c, 0, 60, 127
2, 56041, Note_off_c, 3, 51, 127
2, 56043, Note_off_c, 8, 68, 127
2, 56046, Note_on_c, 2, 50, 127
2, 56046, Note_on_c, 12, 59, 127
2, 56151, Note_off_c, 12, 59, 127
2, 56156, Note_on_c, 0, 60, 127
2, 56261, Note_off_c, 0, 60, 127
2, 56264, Note_on_c, 2, 62, 127
2, 56369, Note_off_c, 2, 62, 127
2, 56374, Note_on_c, 3, 63, 127
2, 56477, Note_off_c, 2, 50, 127
2, 56479, Note_off_c, 3, 63, 127
2, 56481, Note_on_c, 0, 48, 127
2, 56481, Note_on_c, 5, 65, 127
2, 56699, Note_on_c, 8, 56, 127
2, 56910, Note_off_c, 0, 48, 127
2, 56912, Note_off_c, 8, 56, 127
2, 56917, Note_on_c, 12, 47, 127
2, 56917, Note_on_c, 7, 55, 127
2, 57130, Note_off_c, 5, 65, 127
2, 57135, Note_on_c, 12, 71, 127
2, 57240, Note_off_c, 12, 71, 127
2, 57243, Note_on_c, 0, 72, 127
2, 57348, Note_off_c, 0, 72, 127
2, 57348, Note_off_c, 12, 47, 127
2, 57353, Note_on_c, 2, 74, 127
2, 57353, Note_on_c, 7, 43, 127
2, 57460, Note_off_c, 2, 74, 127
2, 57463, Note_on_c, 3, 75, 127
2, 57570, Note_off_c, 3, 75, 127
2, 57573, Note_on_c, 5, 77, 127
2, 57777, Note_off_c, 7, 55, 127
2, 57795, Note_off_c, 7, 43, 127
2, 57797, Note_on_c, 3, 75, 127
2, 57797, Note_on_c, 0, 48, 127
2, 57905, Note_off_c, 5, 77, 127
2, 57911, Note_on_c, 8, 80, 127
2, 58014, Note_off_c, 0, 48, 127
2, 58018, Note_off_c, 8, 80, 127
2, 58021, Note_on_c, 7, 79, 127
2, 58021, Note_on_c, 2, 50, 127
2, 58128, Note_off_c, 7, 79, 127
2, 58136, Note_on_c, 5, 77, 127
2, 58238, Note_off_c, 2, 50, 127
2, 58243, Note_off_c, 5, 77, 127
2, 58246, Note_on_c, 3, 51, 127
2, 58246, Note_on_c, 7, 79, 127
2, 58463, Note_off_c, 3, 75, 127
2, 58468, Note_off_c, 3, 51, 127
2, 58475, Note_on_c, 5, 53, 127
2, 58475, Note_on_c, 2, 74, 127
2, 58697, Note_off_c, 5, 53, 127
2, 58701, Note_off_c, 7, 79, 127
2, 58706, Note_on_c, 7, 55, 127
2, 58706, Note_on_c, 3, 75, 127
2, 58930, Note_off_c, 2, 74, 127
2, 58939, Note_on_c, 0, 72, 127
2, 59161, Note_off_c, 0, 72, 127
2, 59161, Note_off_c, 7, 55, 127
2, 59170, Note_on_c, 7, 43, 127
2, 59170, Note_on_c, 5, 65, 127
2, 59392, Note_off_c, 3, 75, 127
2, 59410, Note_on_c, 12, 71, 127
2, 59645, Note_off_c, 12, 71, 127
2, 59651, Note_off_c, 7, 43, 127
2, 59654, Note_on_c, 0, 36, 127
2, 59654, Note_on_c, 0, 72, 127
2, 59896, Note_off_c, 5, 65, 127
2, 59898, Note_on_c, 7, 67, 127
2, 60012, Note_off_c, 7, 67, 127
2, 60026, Note_on_c, 5, 65, 127
2, 60140, Note_off_c, 5, 65, 127
2, 60144, Note_on_c, 4, 64, 127
2, 60258, Note_off_c, 4, 64, 127
2, 60268, Note_on_c, 5, 65, 127
2, 60382, Note_off_c, 5, 65, 127
2, 60391, Note_on_c, 7, 67, 127
2, 60715, Note_on_c, 0, 48, 127
2, 61950, Note_off_c, 0, 72, 127
2, 61991, Note_off_c, 7, 67, 127
2, 62254, Note_off_c, 0, 36, 127
2, 63015, Note_off_c, 0, 48, 127
2, 63036, Note_on_c, 7, 67, 127
2, 63203, Note_off_c, 7, 67, 127
2, 63206, Note_on_c, 8, 68, 127
2, 63373, Note_off_c, 8, 68, 127
2, 63375, Note_on_c, 5, 65, 127
2, 63542, Note_off_c, 5, 65, 127
2, 63545, Note_on_c, 7, 67, 127
2, 63545, Note_on_c, 0, 48, 127
2, 63712, Note_off_c, 7, 67, 127
2, 63714, Note_on_c, 0, 72, 127
2, 63881, Note_off_c, 0, 72, 127
2, 63881, Note_off_c, 0, 48, 127
2, 63883, Note_on_c, 7, 67, 127
2, 63883, Note_on_c, 3, 51, 127
2, 64050, Note_off_c, 7, 67, 127
2, 64053, Note_on_c, 5, 65, 127
2, 64219, Note_off_c, 3, 51, 127
2, 64220, Note_off_c, 5, 65, 127
2, 64222, Note_on_c, 3, 63, 127
2, 64222, Note_on_c, 7, 55, 127
2, 64389, Note_off_c, 3, 63, 127
2, 64392, Note_on_c, 2, 62, 127
2, 64558, Note_off_c, 7, 55, 127
2, 64559, Note_off_c, 2, 62, 127
2, 64561, Note_on_c, 3, 63, 127
2, 64561, Note_on_c, 0, 60, 127
2, 64728, Note_off_c, 3, 63, 127
2, 64730, Note_on_c, 2, 62, 127
2, 64897, Note_off_c, 2, 62, 127
2, 64897, Note_off_c, 0, 60, 127
2, 64900, Note_on_c, 0, 60, 127
2, 64900, Note_on_c, 0, 48, 127
2, 65067, Note_off_c, 0, 60, 127
2, 65069, Note_on_c, 3, 63, 127
2, 65236, Note_off_c, 3, 63, 127
2, 65236, Note_off_c, 0, 48, 127
2, 65239, Note_on_c, 7, 67, 127
2, 65239, Note_on_c, 0, 60, 127
2, 65406, Note_off_c, 7, 67, 127
2, 65408, Note_on_c, 0, 72, 127
2, 65575, Note_off_c, 0, 72, 127
2, 65575, Note_off_c, 0, 60, 127
2, 65577, Note_on_c, 7, 67, 127
2, 65577, Note_on_c, 11, 58, 127
2, 65744, Note_off_c, 7, 67, 127
2, 65747, Note_on_c, 2, 74, 127
2, 65913, Note_off_c, 11, 58, 127
2, 65914, Note_off_c, 2, 74, 127
2, 65916, Note_on_c, 3, 75, 127
2, 65916, Note_on_c, 11, 58, 127
2, 65997, Note_off_c, 11, 58, 127
2, 66000, Note_on_c, 8, 56, 127
2, 66081, Note_off_c, 8, 56, 127
2, 66081, Note_off_c, 3, 75, 127
2, 66083, Note_on_c, 0, 72, 127
2, 66083, Note_on_c, 11, 58, 127
2, 66164, Note_off_c, 11, 58, 127
2, 66167, Note_on_c, 8, 56, 127
2, 66248, Note_off_c, 8, 56, 127
2, 66248, Note_off_c, 0, 72, 127
2, 66251, Note_on_c, 5, 77, 127
2, 66251, Note_on_c, 11, 58, 127
2, 66332, Note_off_c, 11, 58, 127
2, 66334, Note_on_c, 8, 56, 127
2, 66415, Note_off_c, 8, 56, 127
2, 66416, Note_off_c, 5, 77, 127
2, 66418, Note_on_c, 0, 72, 127
2, 66418, Note_on_c, 11, 58, 127
2, 66499, Note_off_c, 11, 58, 127
2, 66501, Note_on_c, 8, 56, 127
2, 66582, Note_off_c, 8, 56, 127
2, 66583, Note_off_c, 0, 72, 127
2, 66585, Note_on_c, 12, 71, 127
2, 66585, Note_on_c, 7, 55, 127
2, 66752, Note_off_c, 12, 71, 127
2, 66754, Note_on_c, 2, 74, 127
2, 66921, Note_off_c, 2, 74, 127
2, 66924, Note_on_c, 7, 67, 127
2, 67091, Note_off_c, 7, 55, 127
2, 67093, Note_on_c, 5, 65, 127
2, 67260, Note_off_c, 5, 65, 127
2, 67263, Note_on_c, 3, 63, 127
2, 67430, Note_off_c, 3, 63, 127
2, 67432, Note_on_c, 2, 62, 127
2, 67592, Note_off_c, 7, 67, 127
2, 67597, Note_off_c, 2, 62, 127
2, 67599, Note_on_c, 3, 63, 127
2, 67769, Note_on_c, 7, 79, 127
2, 67935, Note_off_c, 3, 63, 127
2, 67936, Note_off_c, 7, 79, 127
2, 67938, Note_on_c, 3, 75, 127
2, 67938, Note_on_c, 0, 60, 127
2, 68105, Note_off_c, 3, 75, 127
2, 68107, Note_on_c, 0, 72, 127
2, 68274, Note_off_c, 0, 72, 127
2, 68274, Note_off_c, 0, 60, 127
2, 68277, Note_on_c, 7, 79, 127
2, 68277, Note_on_c, 3, 63, 127
2, 68444, Note_off_c, 7, 79, 127
2, 68446, Note_on_c, 11, 70, 127
2, 68613, Note_off_c, 11, 70, 127
2, 68613, Note_off_c, 3, 63, 127
2, 68616, Note_on_c, 8, 68, 127
2, 68616, Note_on_c, 5, 53, 127
2, 68783, Note_off_c, 8, 68, 127
2, 68785, Note_on_c, 0, 72, 127
2, 68952, Note_off_c, 0, 72, 127
2, 68954, Note_on_c, 5, 65, 127
2, 69122, Note_off_c, 5, 53, 127
2, 69124, Note_on_c, 3, 63, 127
2, 69291, Note_off_c, 3, 63, 127
2, 69293, Note_on_c, 2, 62, 127
2, 69460, Note_off_c, 2, 62, 127
2, 69463, Note_on_c, 0, 60, 127
2, 69622, Note_off_c, 5, 65, 127
2, 69628, Note_off_c, 0, 60, 127
2, 69630, Note_on_c, 2, 62, 127
2, 69799, Note_on_c, 5, 77, 127
2, 69966, Note_off_c, 5, 77, 127
2, 69966, Note_off_c, 2, 62, 127
2, 69969, Note_on_c, 2, 74, 127
2, 69969, Note_on_c, 11, 58, 127
2, 70136, Note_off_c, 2, 74, 127
2, 70138, Note_on_c, 11, 70, 127
2, 70305, Note_off_c, 11, 70, 127
2, 70305, Note_off_c, 11, 58, 127
2, 70307, Note_on_c, 5, 77, 127
2, 70307, Note_on_c, 2, 62, 127
2, 70474, Note_off_c, 5, 77, 127
2, 70477, Note_on_c, 8, 68, 127
2, 70643, Note_off_c, 2, 62, 127
2, 70644, Note_off_c, 8, 68, 127
2, 70646, Note_on_c, 7, 67, 127
2, 70646, Note_on_c, 3, 51, 127
2, 70813, Note_off_c, 7, 67, 127
2, 70816, Note_on_c, 11, 70, 127
2, 70983, Note_off_c, 11, 70, 127
2, 70985, Note_on_c, 3, 63, 127
2, 71152, Note_off_c, 3, 51, 127
2, 71154, Note_on_c, 7, 55, 127
2, 71321, Note_off_c, 7, 55, 127
2, 71324, Note_on_c, 5, 53, 127
2, 71477, Note_off_c, 3, 63, 127
2, 71491, Note_off_c, 5, 53, 127
2, 71493, Note_on_c, 8, 56, 127
2, 71660, Note_off_c, 8, 56, 127
2, 71663, Note_on_c, 7, 55, 127
2, 71832, Note_on_c, 11, 70, 127
2, 71999, Note_off_c, 11, 70, 127
2, 71999, Note_off_c, 7, 55, 127
2, 72001, Note_on_c, 7, 67, 127
2, 72001, Note_on_c, 3, 51, 127
2, 72168, Note_off_c, 7, 67, 127
2, 72171, Note_on_c, 3, 63, 127
2, 72337, Note_off_c, 3, 51, 127
2, 72338, Note_off_c, 3, 63, 127
2, 72340, Note_on_c, 11, 70, 127
2, 72340, Note_on_c, 7, 55, 127
2, 72510, Note_on_c, 1, 61, 127
2, 72676, Note_off_c, 7, 55, 127
2, 72677, Note_off_c, 1, 61, 127
2, 72679, Note_on_c, 0, 60, 127
2, 72679, Note_on_c, 8, 56, 127
2, 72832, Note_off_c, 11, 70, 127
2, 72846, Note_off_c, 0, 60, 127
2, 72848, Note_on_c, 0, 72, 127
2, 73015, Note_off_c, 0, 72, 127
2, 73015, Note_off_c, 8, 56, 127
2, 73018, Note_on_c, 8, 68, 127
2, 73018, Note_on_c, 5, 53, 127
2, 73185, Note_off_c, 8, 68, 127
2, 73187, Note_on_c, 5, 65, 127
2, 73354, Note_off_c, 5, 65, 127
2, 73354, Note_off_c, 5, 53, 127
2, 73357, Note_on_c, 0, 72, 127
2, 73357, Note_on_c, 8, 56, 127
2, 73526, Note_on_c, 3, 63, 127
2, 73693, Note_off_c, 3, 63, 127
2, 73693, Note_off_c, 8, 56, 127
2, 73695, Note_on_c, 2, 62, 127
2, 73695, Note_on_c, 11, 58, 127
2, 73849, Note_off_c, 0, 72, 127
2, 73862, Note_off_c, 2, 62, 127
2, 73865, Note_on_c, 2, 74, 127
2, 74031, Note_off_c, 11, 58, 127
2, 74032, Note_off_c, 2, 74, 127
2, 74034, Note_on_c, 11, 70, 127
2, 74034, Note_on_c, 7, 55, 127
2, 74201, Note_off_c, 11, 70, 127
2, 74204, Note_on_c, 7, 67, 127
2, 74370, Note_off_c, 7, 55, 127
2, 74371, Note_off_c, 7, 67, 127
2, 74373, Note_on_c, 2, 74, 127
2, 74373, Note_on_c, 11, 58, 127
2, 74542, Note_on_c, 5, 65, 127
2, 74709, Note_off_c, 5, 65, 127
2, 74709, Note_off_c, 11, 58, 127
2, 74712, Note_on_c, 3, 63, 127
2, 74712, Note_on_c, 0, 60, 127
2, 74865, Note_off_c, 2, 74, 127
2, 74879, Note_off_c, 3, 63, 127
2, 74881, Note_on_c, 3, 75, 127
2, 75048, Note_off_c, 3, 75, 127
2, 75048, Note_off_c, 0, 60, 127
2, 75051, Note_on_c, 0, 72, 127
2, 75051, Note_on_c, 8, 56, 127
2, 75218, Note_off_c, 0, 72, 127
2, 75220, Note_on_c, 8, 68, 127
2, 75387, Note_off_c, 8, 68, 127
2, 75387, Note_off_c, 8, 56, 127
2, 75389, Note_on_c, 3, 75, 127
2, 75389, Note_on_c, 0, 60, 127
2, 75559, Note_on_c, 7, 67, 127
2, 75723, Note_off_c, 3, 75, 127
2, 75725, Note_off_c, 0, 60, 127
2, 75726, Note_off_c, 7, 67, 127
2, 75728, Note_on_c, 5, 65, 127
2, 75728, Note_on_c, 2, 62, 127
2, 75895, Note_off_c, 5, 65, 127
2, 75898, Note_on_c, 5, 77, 127
2, 76064, Note_off_c, 2, 62, 127
2, 76065, Note_off_c, 5, 77, 127
2, 76067, Note_on_c, 2, 74, 127
2, 76067, Note_on_c, 11, 58, 127
2, 76234, Note_off_c, 2, 74, 127
2, 76236, Note_on_c, 11, 70, 127
2, 76403, Note_off_c, 11, 70, 127
2, 76403, Note_off_c, 11, 58, 127
2, 76406, Note_on_c, 5, 77, 127
2, 76406, Note_on_c, 2, 62, 127
2, 76575, Note_on_c, 8, 68, 127
2, 76740, Note_off_c, 5, 77, 127
2, 76742, Note_off_c, 8, 68, 127
2, 76742, Note_off_c, 2, 62, 127
2, 76745, Note_on_c, 7, 67, 127
2, 76745, Note_on_c, 3, 63, 127
2, 76912, Note_off_c, 7, 67, 127
2, 76914, Note_on_c, 11, 70, 127
2, 77081, Note_off_c, 11, 70, 127
2, 77081, Note_off_c, 3, 63, 127
2, 77083, Note_on_c, 0, 72, 127
2, 77083, Note_on_c, 3, 51, 127
2, 77250, Note_off_c, 3, 51, 127
2, 77250, Note_off_c, 0, 72, 127
2, 77253, Note_on_c, 8, 68, 127
2, 77253, Note_on_c, 5, 53, 127
2, 77420, Note_off_c, 5, 53, 127
2, 77420, Note_off_c, 8, 68, 127
2, 77422, Note_on_c, 11, 70, 127
2, 77422, Note_on_c, 7, 55, 127
2, 77589, Note_off_c, 11, 70, 127
2, 77592, Note_on_c, 3, 75, 127
2, 77758, Note_off_c, 7, 55, 127
2, 77759, Note_off_c, 3, 75, 127
2, 77761, Note_on_c, 2, 74, 127
2, 77761, Note_on_c, 8, 56, 127
2, 77928, Note_off_c, 2, 74, 127
2, 77930, Note_on_c, 3, 75, 127
2, 78097, Note_off_c, 3, 75, 127
2, 78097, Note_off_c, 8, 56, 127
2, 78100, Note_on_c, 5, 65, 127
2, 78100, Note_on_c, 11, 58, 127
2, 78267, Note_off_c, 5, 65, 127
2, 78269, Note_on_c, 0, 72, 127
2, 78436, Note_off_c, 0, 72, 127
2, 78436, Note_off_c, 11, 58, 127
2, 78439, Note_on_c, 11, 70, 127
2, 78439, Note_on_c, 11, 46, 127
2, 78606, Note_off_c, 11, 70, 127
2, 78608, Note_on_c, 8, 68, 127
2, 78775, Note_off_c, 8, 68, 127
2, 78775, Note_off_c, 11, 46, 127
2, 78777, Note_on_c, 7, 67, 127
2, 78777, Note_on_c, 3, 51, 127
2, 78944, Note_off_c, 7, 67, 127
2, 78947, Note_on_c, 5, 65, 127
2, 79114, Note_off_c, 5, 65, 127
2, 79116, Note_on_c, 3, 63, 127
2, 79199, Note_off_c, 3, 51, 127
2, 79281, Note_off_c, 3, 63, 127
2, 79283, Note_on_c, 3, 75, 127
2, 79283, Note_on_c, 7, 55, 127
2, 79450, Note_off_c, 7, 55, 127
2, 79450, Note_off_c, 3, 75, 127
2, 79453, Note_on_c, 2, 74, 127
2, 79453, Note_on_c, 5, 53, 127
2, 79620, Note_off_c, 5, 53, 127
2, 79620, Note_off_c, 2, 74, 127
2, 79622, Note_on_c, 0, 72, 127
2, 79622, Note_on_c, 3, 51, 127
2, 79789, Note_off_c, 3, 51, 127
2, 79789, Note_off_c, 0, 72, 127
2, 79792, Note_on_c, 12, 71, 127
2, 79792, Note_on_c, 2, 50, 127
2, 79961, Note_on_c, 8, 80, 127
2, 80003, Note_off_c, 12, 71, 127
2, 80128, Note_off_c, 8, 80, 127
2, 80128, Note_off_c, 2, 50, 127
2, 80130, Note_on_c, 5, 77, 127
2, 80130, Note_on_c, 0, 48, 127
2, 80297, Note_off_c, 5, 77, 127
2, 80300, Note_on_c, 2, 74, 127
2, 80466, Note_off_c, 0, 48, 127
2, 80467, Note_off_c, 2, 74, 127
2, 80469, Note_on_c, 7, 79, 127
2, 80469, Note_on_c, 12, 47, 127
2, 80636, Note_off_c, 7, 79, 127
2, 80639, Note_on_c, 2, 74, 127
2, 80805, Note_off_c, 12, 47, 127
2, 80806, Note_off_c, 2, 74, 127
2, 80808, Note_on_c, 3, 75, 127
2, 80808, Note_on_c, 0, 48, 127
2, 80975, Note_off_c, 3, 75, 127
2, 80977, Note_on_c, 2, 74, 127
2, 81142, Note_off_c, 0, 48, 127
2, 81144, Note_off_c, 2, 74, 127
2, 81147, Note_on_c, 0, 72, 127
2, 81314, Note_off_c, 0, 72, 127
2, 81316, Note_on_c, 11, 70, 127
2, 81316, Note_on_c, 2, 62, 127
2, 81483, Note_off_c, 2, 62, 127
2, 81483, Note_off_c, 11, 70, 127
2, 81486, Note_on_c, 10, 69, 127
2, 81486, Note_on_c, 0, 60, 127
2, 81653, Note_off_c, 0, 60, 127
2, 81653, Note_off_c, 10, 69, 127
2, 81655, Note_on_c, 7, 67, 127
2, 81655, Note_on_c, 11, 58, 127
2, 81822, Note_off_c, 11, 58, 127
2, 81822, Note_off_c, 7, 67, 127
2, 81824, Note_on_c, 6, 66, 127
2, 81824, Note_on_c, 10, 57, 127
2, 81994, Note_on_c, 3, 75, 127
2, 82035, Note_off_c, 6, 66, 127
2, 82160, Note_off_c, 10, 57, 127
2, 82161, Note_off_c, 3, 75, 127
2, 82163, Note_on_c, 0, 72, 127
2, 82163, Note_on_c, 7, 55, 127
2, 82330, Note_off_c, 0, 72, 127
2, 82333, Note_on_c, 10, 69, 127
2, 82499, Note_off_c, 7, 55, 127
2, 82500, Note_off_c, 10, 69, 127
2, 82502, Note_on_c, 2, 74, 127
2, 82502, Note_on_c, 6, 54, 127
2, 82669, Note_off_c, 2, 74, 127
2, 82671, Note_on_c, 10, 69, 127
2, 82838, Note_off_c, 10, 69, 127
2, 82838, Note_off_c, 6, 54, 127
2, 82841, Note_on_c, 11, 70, 127
2, 82841, Note_on_c, 7, 55, 127
2, 83008, Note_off_c, 11, 70, 127
2, 83010, Note_on_c, 10, 69, 127
2, 83175, Note_off_c, 7, 55, 127
2, 83177, Note_off_c, 10, 69, 127
2, 83180, Note_on_c, 7, 67, 127
2, 83347, Note_off_c, 7, 67, 127
2, 83349, Note_on_c, 5, 65, 127
2, 83349, Note_on_c, 7, 55, 127
2, 83516, Note_off_c, 7, 55, 127
2, 83516, Note_off_c, 5, 65, 127
2, 83518, Note_on_c, 4, 64, 127
2, 83518, Note_on_c, 10, 57, 127
2, 83685, Note_off_c, 10, 57, 127
2, 83685, Note_off_c, 4, 64, 127
2, 83688, Note_on_c, 2, 62, 127
2, 83688, Note_on_c, 11, 58, 127
2, 83855, Note_off_c, 11, 58, 127
2, 83855, Note_off_c, 2, 62, 127
2, 83857, Note_on_c, 1, 61, 127
2, 83857, Note_on_c, 4, 52, 127
2, 84027, Note_on_c, 11, 70, 127
2, 84068, Note_off_c, 1, 61, 127
2, 84193, Note_off_c, 4, 52, 127
2, 84194, Note_off_c, 11, 70, 127
2, 84196, Note_on_c, 7, 67, 127
2, 84196, Note_on_c, 2, 50, 127
2, 84363, Note_off_c, 7, 67, 127
2, 84365, Note_on_c, 4, 64, 127
2, 84532, Note_off_c, 4, 64, 127
2, 84532, Note_off_c, 2, 50, 127
2, 84535, Note_on_c, 10, 69, 127
2, 84535, Note_on_c, 1, 49, 127
2, 84704, Note_on_c, 4, 64, 127
2, 84871, Note_off_c, 4, 64, 127
2, 84871, Note_off_c, 1, 49, 127
2, 84874, Note_on_c, 11, 58, 127
2, 84874, Note_on_c, 2, 50, 127
2, 85027, Note_off_c, 10, 69, 127
2, 85041, Note_on_c, 10, 69, 127
2, 85083, Note_off_c, 11, 58, 127
2, 85208, Note_off_c, 10, 69, 127
2, 85208, Note_off_c, 2, 50, 127
2, 85210, Note_on_c, 6, 66, 127
2, 85210, Note_on_c, 0, 48, 127
2, 85377, Note_off_c, 6, 66, 127
2, 85380, Note_on_c, 2, 62, 127
2, 85546, Note_off_c, 0, 48, 127
2, 85547, Note_off_c, 2, 62, 127
2, 85549, Note_on_c, 7, 67, 127
2, 85549, Note_on_c, 11, 46, 127
2, 85718, Note_on_c, 2, 62, 127
2, 85885, Note_off_c, 2, 62, 127
2, 85885, Note_off_c, 11, 46, 127
2, 85888, Note_on_c, 10, 57, 127
2, 85888, Note_on_c, 0, 48, 127
2, 86041, Note_off_c, 7, 67, 127
2, 86055, Note_on_c, 7, 67, 127
2, 86097, Note_off_c, 10, 57, 127
2, 86222, Note_off_c, 7, 67, 127
2, 86222, Note_off_c, 0, 48, 127
2, 86224, Note_on_c, 3, 63, 127
2, 86224, Note_on_c, 2, 50, 127
2, 86391, Note_off_c, 3, 63, 127
2, 86394, Note_on_c, 0, 60, 127
2, 86560, Note_off_c, 2, 50, 127
2, 86561, Note_off_c, 0, 60, 127
2, 86563, Note_on_c, 6, 66, 127
2, 86563, Note_on_c, 2, 38, 127
2, 86733, Note_on_c, 0, 60, 127
2, 86897, Note_off_c, 6, 66, 127
2, 86899, Note_off_c, 2, 38, 127
2, 86900, Note_off_c, 0, 60, 127
2, 86902, Note_on_c, 7, 67, 127
2, 86902, Note_on_c, 2, 62, 127
2, 86902, Note_on_c, 12, 59, 127
2, 86902, Note_on_c, 7, 43, 127
2, 87322, Note_off_c, 2, 62, 127
2, 87392, Note_off_c, 7, 43, 127
2, 87406, Note_on_c, 2, 74, 127
2, 87422, Note_off_c, 12, 59, 127
2, 87432, Note_off_c, 7, 67, 127
2, 87573, Note_off_c, 2, 74, 127
2, 87575, Note_on_c, 10, 69, 127
2, 87742, Note_off_c, 10, 69, 127
2, 87745, Note_on_c, 0, 72, 127
2, 87912, Note_off_c, 0, 72, 127
2, 87914, Note_on_c, 12, 71, 127
2, 87914, Note_on_c, 7, 43, 127
2, 88083, Note_on_c, 7, 67, 127
2, 88125, Note_off_c, 12, 71, 127
2, 88250, Note_off_c, 7, 67, 127
2, 88250, Note_off_c, 7, 43, 127
2, 88253, Note_on_c, 2, 74, 127
2, 88253, Note_on_c, 12, 47, 127
2, 88422, Note_on_c, 8, 68, 127
2, 88587, Note_off_c, 2, 74, 127
2, 88589, Note_off_c, 8, 68, 127
2, 88589, Note_off_c, 12, 47, 127
2, 88592, Note_on_c, 7, 67, 127
2, 88592, Note_on_c, 2, 50, 127
2, 88759, Note_off_c, 7, 67, 127
2, 88761, Note_on_c, 5, 65, 127
2, 88928, Note_off_c, 5, 65, 127
2, 88928, Note_off_c, 2, 50, 127
2, 88930, Note_on_c, 3, 63, 127
2, 88930, Note_on_c, 7, 55, 127
2, 89100, Note_on_c, 7, 67, 127
2, 89141, Note_off_c, 3, 63, 127
2, 89266, Note_off_c, 7, 55, 127
2, 89267, Note_off_c, 7, 67, 127
2, 89269, Note_on_c, 12, 71, 127
2, 89269, Note_on_c, 5, 53, 127
2, 89436, Note_off_c, 12, 71, 127
2, 89439, Note_on_c, 2, 74, 127
2, 89605, Note_off_c, 5, 53, 127
2, 89606, Note_off_c, 2, 74, 127
2, 89608, Note_on_c, 0, 72, 127
2, 89608, Note_on_c, 3, 51, 127
2, 89777, Note_on_c, 3, 63, 127
2, 89942, Note_off_c, 0, 72, 127
2, 89944, Note_off_c, 3, 63, 127
2, 89944, Note_off_c, 3, 51, 127
2, 89947, Note_on_c, 2, 62, 127
2, 89947, Note_on_c, 5, 53, 127
2, 90114, Note_off_c, 2, 62, 127
2, 90116, Note_on_c, 0, 72, 127
2, 90283, Note_off_c, 0, 72, 127
2, 90283, Note_off_c, 5, 53, 127
2, 90286, Note_on_c, 12, 71, 127
2, 90286, Note_on_c, 7, 55, 127
2, 90453, Note_off_c, 12, 71, 127
2, 90455, Note_on_c, 2, 74, 127
2, 90622, Note_off_c, 2, 74, 127
2, 90622, Note_off_c, 7, 55, 127
2, 90624, Note_on_c, 3, 75, 127
2, 90624, Note_on_c, 7, 43, 127
2, 90791, Note_off_c, 3, 75, 127
2, 90794, Note_on_c, 5, 77, 127
2, 90960, Note_off_c, 7, 43, 127
2, 90961, Note_off_c, 5, 77, 127
2, 90963, Note_on_c, 3, 75, 127
2, 90963, Note_on_c, 0, 48, 127
2, 91130, Note_off_c, 3, 75, 127
2, 91133, Note_on_c, 2, 74, 127
2, 91299, Note_off_c, 0, 48, 127
2, 91300, Note_off_c, 2, 74, 127
2, 91302, Note_on_c, 0, 72, 127
2, 91302, Note_on_c, 3, 51, 127
2, 91469, Note_off_c, 0, 72, 127
2, 91471, Note_on_c, 3, 75, 127
2, 91638, Note_off_c, 3, 75, 127
2, 91638, Note_off_c, 3, 51, 127
2, 91641, Note_on_c, 12, 71, 127
2, 91641, Note_on_c, 2, 74, 127
2, 91641, Note_on_c, 7, 55, 127
2, 91808, Note_off_c, 2, 74, 127
2, 91810, Note_on_c, 5, 77, 127
2, 91975, Note_off_c, 12, 71, 127
2, 91977, Note_off_c, 5, 77, 127
2, 91977, Note_off_c, 7, 55, 127
2, 91980, Note_on_c, 0, 72, 127
2, 91980, Note_on_c, 5, 77, 127
2, 91980, Note_on_c, 0, 60, 127
2, 92061, Note_off_c, 5, 77, 127
2, 92063, Note_on_c, 3, 75, 127
2, 92144, Note_off_c, 3, 75, 127
2, 92145, Note_off_c, 0, 60, 127
2, 92147, Note_on_c, 5, 77, 127
2, 92147, Note_on_c, 7, 55, 127
2, 92228, Note_off_c, 5, 77, 127
2, 92230, Note_on_c, 3, 75, 127
2, 92311, Note_off_c, 3, 75, 127
2, 92312, Note_off_c, 7, 55, 127
2, 92314, Note_on_c, 5, 77, 127
2, 92314, Note_on_c, 3, 51, 127
2, 92395, Note_off_c, 5, 77, 127
2, 92398, Note_on_c, 3, 75, 127
2, 92479, Note_off_c, 3, 75, 127
2, 92479, Note_off_c, 3, 51, 127
2, 92481, Note_on_c, 5, 77, 127
2, 92481, Note_on_c, 0, 48, 127
2, 92562, Note_off_c, 5, 77, 127
2, 92565, Note_on_c, 3, 75, 127
2, 92646, Note_off_c, 0, 48, 127
2, 92648, Note_on_c, 7, 55, 127
2, 92815, Note_off_c, 7, 55, 127
2, 92818, Note_on_c, 11, 46, 127
2, 92985, Note_off_c, 11, 46, 127
2, 92985, Note_off_c, 0, 72, 127
2, 92987, Note_on_c, 8, 44, 127
2, 93093, Note_off_c, 3, 75, 127
2, 93157, Note_on_c, 0, 72, 127
2, 93324, Note_off_c, 0, 72, 127
2, 93326, Note_on_c, 5, 77, 127
2, 93493, Note_off_c, 5, 77, 127
2, 93495, Note_on_c, 8, 80, 127
2, 93655, Note_off_c, 8, 44, 127
2, 93660, Note_off_c, 8, 80, 127
2, 93663, Note_on_c, 7, 79, 127
2, 93663, Note_on_c, 4, 76, 127
2, 93830, Note_off_c, 7, 79, 127
2, 93832, Note_on_c, 11, 82, 127
2, 93997, Note_off_c, 4, 76, 127
2, 93999, Note_off_c, 11, 82, 127
2, 94001, Note_on_c, 5, 77, 127
2, 94001, Note_on_c, 11, 82, 127
2, 94082, Note_off_c, 11, 82, 127
2, 94085, Note_on_c, 8, 80, 127
2, 94166, Note_off_c, 8, 80, 127
2, 94169, Note_on_c, 11, 82, 127
2, 94169, Note_on_c, 0, 60, 127
2, 94250, Note_off_c, 11, 82, 127
2, 94252, Note_on_c, 8, 80, 127
2, 94333, Note_off_c, 8, 80, 127
2, 94334, Note_off_c, 0, 60, 127
2, 94336, Note_on_c, 11, 82, 127
2, 94336, Note_on_c, 8, 56, 127
2, 94417, Note_off_c, 11, 82, 127
2, 94419, Note_on_c, 8, 80, 127
2, 94501, Note_off_c, 8, 56, 127
2, 94503, Note_on_c, 5, 53, 127
2, 94670, Note_off_c, 5, 53, 127
2, 94672, Note_on_c, 0, 60, 127
2, 94839, Note_off_c, 0, 60, 127
2, 94842, Note_on_c, 3, 51, 127
2, 95008, Note_off_c, 5, 77, 127
2, 95009, Note_off_c, 3, 51, 127
2, 95011, Note_on_c, 1, 49, 127
2, 95178, Note_off_c, 8, 80, 127
2, 95181, Note_on_c, 7, 79, 127
2, 95348, Note_off_c, 7, 79, 127
2, 95350, Note_on_c, 5, 77, 127
2, 95517, Note_off_c, 5, 77, 127
2, 95519, Note_on_c, 3, 75, 127
2, 95679, Note_off_c, 1, 49, 127
2, 95684, Note_off_c, 3, 75, 127
2, 95687, Note_on_c, 1, 73, 127
2, 95854, Note_off_c, 1, 73, 127
2, 95856, Note_on_c, 0, 72, 127
2, 96023, Note_off_c, 0, 72, 127
2, 96025, Note_on_c, 11, 70, 127
2, 96195, Note_on_c, 5, 65, 127
2, 96362, Note_off_c, 5, 65, 127
2, 96364, Note_on_c, 7, 79, 127
2, 96364, Note_on_c, 1, 61, 127
2, 96531, Note_off_c, 1, 61, 127
2, 96534, Note_on_c, 11, 58, 127
2, 96700, Note_off_c, 7, 79, 127
2, 96701, Note_off_c, 11, 58, 127
2, 96703, Note_on_c, 5, 77, 127
2, 96703, Note_on_c, 1, 61, 127
2, 96870, Note_off_c, 1, 61, 127
2, 96872, Note_on_c, 8, 56, 127
2, 97039, Note_off_c, 8, 56, 127
2, 97042, Note_on_c, 7, 55, 127
2, 97209, Note_off_c, 7, 55, 127
2, 97211, Note_on_c, 1, 61, 127
2, 97301, Note_off_c, 5, 77, 127
2, 97376, Note_off_c, 1, 61, 127
2, 97378, Note_on_c, 4, 76, 127
2, 97378, Note_on_c, 11, 58, 127
2, 97545, Note_off_c, 11, 58, 127
2, 97548, Note_on_c, 7, 55, 127
2, 97714, Note_off_c, 4, 76, 127
2, 97715, Note_off_c, 7, 55, 127
2, 97717, Note_on_c, 1, 73, 127
2, 97717, Note_on_c, 11, 58, 127
2, 97884, Note_off_c, 11, 58, 127
2, 97887, Note_on_c, 5, 53, 127
2, 98051, Note_off_c, 11, 70, 127
2, 98054, Note_off_c, 5, 53, 127
2, 98056, Note_on_c, 4, 52, 127
2, 98223, Note_off_c, 4, 52, 127
2, 98225, Note_on_c, 11, 58, 127
2, 98315, Note_off_c, 1, 73, 127
2, 98390, Note_off_c, 11, 58, 127
2, 98393, Note_on_c, 0, 72, 127
2, 98393, Note_on_c, 4, 64, 127
2, 98393, Note_on_c, 7, 55, 127
2, 98560, Note_off_c, 7, 55, 127
2, 98562, Note_on_c, 4, 52, 127
2, 98729, Note_off_c, 4, 52, 127
2, 98729, Note_off_c, 4, 64, 127
2, 98729, Note_off_c, 0, 72, 127
2, 98731, Note_on_c, 5, 65, 127
2, 98731, Note_on_c, 11, 70, 127
2, 98731, Note_on_c, 7, 55, 127
2, 98898, Note_off_c, 7, 55, 127
2, 98901, Note_on_c, 1, 49, 127
2, 99067, Note_off_c, 5, 65, 127
2, 99068, Note_off_c, 1, 49, 127
2, 99070, Note_on_c, 4, 64, 127
2, 99070, Note_on_c, 0, 48, 127
2, 99221, Note_off_c, 11, 70, 127
2, 99237, Note_on_c, 1, 73, 127
2, 99404, Note_off_c, 1, 73, 127
2, 99407, Note_on_c, 0, 72, 127
2, 99573, Note_off_c, 0, 48, 127
2, 99574, Note_off_c, 0, 72, 127
2, 99576, Note_on_c, 11, 70, 127
2, 99576, Note_on_c, 0, 48, 127
2, 99736, Note_off_c, 4, 64, 127
2, 99741, Note_off_c, 0, 48, 127
2, 99741, Note_off_c, 11, 70, 127
2, 99743, Note_on_c, 8, 68, 127
2, 99743, Note_on_c, 1, 49, 127
2, 99913, Note_on_c, 4, 64, 127
2, 100079, Note_off_c, 1, 49, 127
2, 100080, Note_off_c, 4, 64, 127
2, 100082, Note_on_c, 5, 65, 127
2, 100082, Note_on_c, 11, 46, 127
2, 100235, Note_off_c, 8, 68, 127
2, 100249, Note_on_c, 1, 73, 127
2, 100414, Note_off_c, 5, 65, 127
2, 100416, Note_off_c, 1, 73, 127
2, 100416, Note_off_c, 11, 46, 127
2, 100419, Note_on_c, 11, 70, 127
2, 100419, Note_on_c, 0, 48, 127
2, 100500, Note_off_c, 11, 70, 127
2, 100502, Note_on_c, 8, 68, 127
2, 100583, Note_off_c, 8, 68, 127
2, 100586, Note_on_c, 11, 70, 127
2, 100667, Note_off_c, 11, 70, 127
2, 100670, Note_on_c, 8, 68, 127
2, 100751, Note_off_c, 8, 68, 127
2, 100751, Note_off_c, 0, 48, 127
2, 100753, Note_on_c, 7, 67, 127
2, 100753, Note_on_c, 0, 36, 127
2, 100920, Note_off_c, 7, 67, 127
2, 100923, Note_on_c, 5, 65, 127
2, 101089, Note_off_c, 0, 36, 127
2, 101090, Note_off_c, 5, 65, 127
2, 101092, Note_on_c, 5, 65, 127
2, 101092, Note_on_c, 5, 41, 127
2, 101261, Note_on_c, 0, 72, 127
2, 101303, Note_off_c, 5, 65, 127
2, 101428, Note_off_c, 0, 72, 127
2, 101428, Note_off_c, 5, 41, 127
2, 101431, Note_on_c, 8, 68, 127
2, 101431, Note_on_c, 5, 53, 127
2, 101598, Note_off_c, 8, 68, 127
2, 101600, Note_on_c, 5, 65, 127
2, 101767, Note_off_c, 5, 65, 127
2, 101770, Note_on_c, 0, 72, 127
2, 101923, Note_off_c, 5, 53, 127
2, 101937, Note_off_c, 0, 72, 127
2, 101939, Note_on_c, 3, 63, 127
2, 102106, Note_off_c, 3, 63, 127
2, 102108, Note_on_c, 2, 62, 127
2, 102278, Note_on_c, 5, 53, 127
2, 102444, Note_off_c, 2, 62, 127
2, 102445, Note_off_c, 5, 53, 127
2, 102447, Note_on_c, 11, 70, 127
2, 102447, Note_on_c, 2, 50, 127
2, 102614, Note_off_c, 2, 50, 127
2, 102617, Note_on_c, 11, 46, 127
2, 102784, Note_off_c, 11, 46, 127
2, 102786, Note_on_c, 5, 53, 127
2, 102939, Note_off_c, 11, 70, 127
2, 102953, Note_off_c, 5, 53, 127
2, 102955, Note_on_c, 8, 44, 127
2, 103122, Note_off_c, 8, 44, 127
2, 103125, Note_on_c, 7, 43, 127
2, 103294, Note_on_c, 11, 70, 127
2, 103461, Note_off_c, 11, 70, 127
2, 103461, Note_off_c, 7, 43, 127
2, 103464, Note_on_c, 7, 67, 127
2, 103464, Note_on_c, 3, 51, 127
2, 103631, Note_off_c, 7, 67, 127
2, 103633, Note_on_c, 3, 63, 127
2, 103800, Note_off_c, 3, 63, 127
2, 103802, Note_on_c, 11, 70, 127
2, 103956, Note_off_c, 3, 51, 127
2, 103969, Note_off_c, 11, 70, 127
2, 103972, Note_on_c, 2, 62, 127
2, 104139, Note_off_c, 2, 62, 127
2, 104141, Note_on_c, 0, 60, 127
2, 104311, Note_on_c, 3, 51, 127
2, 104477, Note_off_c, 0, 60, 127
2, 104478, Note_off_c, 3, 51, 127
2, 104480, Note_on_c, 8, 68, 127
2, 104480, Note_on_c, 0, 48, 127
2, 104647, Note_off_c, 0, 48, 127
2, 104649, Note_on_c, 8, 44, 127
2, 104816, Note_off_c, 8, 44, 127
2, 104819, Note_on_c, 3, 51, 127
2, 104972, Note_off_c, 8, 68, 127
2, 104986, Note_off_c, 3, 51, 127
2, 104988, Note_on_c, 7, 43, 127
2, 105155, Note_off_c, 7, 43, 127
2, 105158, Note_on_c, 5, 41, 127
2, 105327, Note_on_c, 8, 68, 127
2, 105494, Note_off_c, 8, 68, 127
2, 105494, Note_off_c, 5, 41, 127
2, 105496, Note_on_c, 5, 65, 127
2, 105496, Note_on_c, 2, 50, 127
2, 105663, Note_off_c, 5, 65, 127
2, 105666, Note_on_c, 2, 62, 127
2, 105833, Note_off_c, 2, 62, 127
2, 105835, Note_on_c, 8, 68, 127
2, 105988, Note_off_c, 2, 50, 127
2, 106002, Note_off_c, 8, 68, 127
2, 106005, Note_on_c, 0, 60, 127
2, 106172, Note_off_c, 0, 60, 127
2, 106174, Note_on_c, 12, 59, 127
2, 106343, Note_on_c, 2, 50, 127
2, 106510, Note_off_c, 2, 50, 127
2, 106510, Note_off_c, 12, 59, 127
2, 106513, Note_on_c, 7, 67, 127
2, 106513, Note_on_c, 12, 47, 127
2, 106680, Note_off_c, 12, 47, 127
2, 106682, Note_on_c, 7, 43, 127
2, 106849, Note_off_c, 7, 43, 127
2, 106852, Note_on_c, 2, 50, 127
2, 107005, Note_off_c, 7, 67, 127
2, 107019, Note_off_c, 2, 50, 127
2, 107021, Note_on_c, 5, 41, 127
2, 107188, Note_off_c, 5, 41, 127
2, 107190, Note_on_c, 3, 39, 127
2, 107360, Note_on_c, 7, 67, 127
2, 107526, Note_off_c, 3, 39, 127
2, 107527, Note_off_c, 7, 67, 127
2, 107529, Note_on_c, 3, 63, 127
2, 107529, Note_on_c, 0, 48, 127
2, 107696, Note_off_c, 3, 63, 127
2, 107699, Note_on_c, 0, 60, 127
2, 107865, Note_off_c, 0, 48, 127
2, 107866, Note_off_c, 0, 60, 127
2, 107868, Note_on_c, 3, 75, 127
2, 107868, Note_on_c, 0, 36, 127
2, 108035, Note_off_c, 3, 75, 127
2, 108037, Note_on_c, 0, 72, 127
2, 108204, Note_off_c, 0, 72, 127
2, 108204, Note_off_c, 0, 36, 127
2, 108207, Note_on_c, 10, 69, 127
2, 108207, Note_on_c, 5, 41, 127
2, 108376, Note_on_c, 5, 77, 127
2, 108418, Note_off_c, 10, 69, 127
2, 108543, Note_off_c, 5, 77, 127
2, 108543, Note_off_c, 5, 41, 127
2, 108546, Note_on_c, 2, 74, 127
2, 108546, Note_on_c, 5, 53, 127
2, 108713, Note_off_c, 2, 74, 127
2, 108715, Note_on_c, 12, 71, 127
2, 108882, Note_off_c, 12, 71, 127
2, 108882, Note_off_c, 5, 53, 127
2, 108884, Note_on_c, 7, 79, 127
2, 108884, Note_on_c, 3, 51, 127
2, 109051, Note_off_c, 7, 79, 127
2, 109054, Note_on_c, 3, 75, 127
2, 109220, Note_off_c, 3, 51, 127
2, 109221, Note_off_c, 3, 75, 127
2, 109223, Note_on_c, 0, 72, 127
2, 109223, Note_on_c, 8, 56, 127
2, 109393, Note_on_c, 8, 80, 127
2, 109434, Note_off_c, 0, 72, 127
2, 109559, Note_off_c, 8, 56, 127
2, 109560, Note_off_c, 8, 80, 127
2, 109562, Note_on_c, 5, 77, 127
2, 109562, Note_on_c, 8, 44, 127
2, 109729, Note_off_c, 5, 77, 127
2, 109731, Note_on_c, 2, 74, 127
2, 109898, Note_off_c, 2, 74, 127
2, 109898, Note_off_c, 8, 44, 127
2, 109901, Note_on_c, 11, 82, 127
2, 109901, Note_on_c, 7, 43, 127
2, 110068, Note_off_c, 11, 82, 127
2, 110070, Note_on_c, 7, 79, 127
2, 110237, Note_off_c, 7, 79, 127
2, 110237, Note_off_c, 7, 43, 127
2, 110240, Note_on_c, 4, 76, 127
2, 110240, Note_on_c, 0, 48, 127
2, 110407, Note_off_c, 4, 76, 127
2, 110409, Note_on_c, 7, 79, 127
2, 110576, Note_off_c, 7, 79, 127
2, 110576, Note_off_c, 0, 48, 127
2, 110578, Note_on_c, 0, 84, 127
2, 110578, Note_on_c, 2, 50, 127
2, 110745, Note_off_c, 0, 84, 127
2, 110748, Note_on_c, 11, 82, 127
2, 110914, Note_off_c, 2, 50, 127
2, 110915, Note_off_c, 11, 82, 127
2, 110917, Note_on_c, 8, 80, 127
2, 110917, Note_on_c, 4, 52, 127
2, 111084, Note_off_c, 8, 80, 127
2, 111087, Note_on_c, 7, 79, 127
2, 111253, Note_off_c, 4, 52, 127
2, 111254, Note_off_c, 7, 79, 127
2, 111256, Note_on_c, 8, 80, 127
2, 111256, Note_on_c, 5, 53, 127
2, 111423, Note_off_c, 8, 80, 127
2, 111425, Note_on_c, 7, 79, 127
2, 111592, Note_off_c, 7, 79, 127
2, 111592, Note_off_c, 5, 53, 127
2, 111595, Note_on_c, 5, 77, 127
2, 111595, Note_on_c, 7, 55, 127
2, 111762, Note_off_c, 5, 77, 127
2, 111764, Note_on_c, 3, 75, 127
2, 111931, Note_off_c, 3, 75, 127
2, 111931, Note_off_c, 7, 55, 127
2, 111934, Note_on_c, 2, 74, 127
2, 111934, Note_on_c, 8, 56, 127
2, 112101, Note_off_c, 2, 74, 127
2, 112103, Note_on_c, 0, 72, 127
2, 112270, Note_off_c, 0, 72, 127
2, 112270, Note_off_c, 8, 56, 127
2, 112272, Note_on_c, 12, 71, 127
2, 112272, Note_on_c, 7, 55, 127
2, 112442, Note_on_c, 8, 80, 127
2, 112483, Note_off_c, 12, 71, 127
2, 112608, Note_off_c, 7, 55, 127
2, 112609, Note_off_c, 8, 80, 127
2, 112611, Note_on_c, 5, 77, 127
2, 112611, Note_on_c, 10, 57, 127
2, 112778, Note_off_c, 5, 77, 127
2, 112781, Note_on_c, 2, 74, 127
2, 112947, Note_off_c, 10, 57, 127
2, 112948, Note_off_c, 2, 74, 127
2, 112950, Note_on_c, 7, 79, 127
2, 112950, Note_on_c, 12, 59, 127
2, 113117, Note_off_c, 7, 79, 127
2, 113119, Note_on_c, 2, 74, 127
2, 113286, Note_off_c, 2, 74, 127
2, 113286, Note_off_c, 12, 59, 127
2, 113289, Note_on_c, 3, 75, 127
2, 113289, Note_on_c, 0, 60, 127
2, 113456, Note_off_c, 3, 75, 127
2, 113458, Note_on_c, 2, 74, 127
2, 113623, Note_off_c, 0, 60, 127
2, 113625, Note_off_c, 2, 74, 127
2, 113628, Note_on_c, 0, 72, 127
2, 113795, Note_off_c, 0, 72, 127
2, 113797, Note_on_c, 11, 70, 127
2, 113797, Note_on_c, 0, 60, 127
2, 113964, Note_off_c, 0, 60, 127
2, 113964, Note_off_c, 11, 70, 127
2, 113966, Note_on_c, 10, 69, 127
2, 113966, Note_on_c, 2, 62, 127
2, 114133, Note_off_c, 2, 62, 127
2, 114133, Note_off_c, 10, 69, 127
2, 114136, Note_on_c, 3, 63, 127
2, 114136, Note_on_c, 7, 67, 127
2, 114305, Note_off_c, 7, 67, 127
2, 114305, Note_off_c, 3, 63, 127
2, 114307, Note_on_c, 10, 57, 127
2, 114307, Note_on_c, 6, 66, 127
2, 114481, Note_on_c, 3, 75, 127
2, 114522, Note_off_c, 6, 66, 127
2, 114650, Note_off_c, 3, 75, 127
2, 114650, Note_off_c, 10, 57, 127
2, 114655, Note_on_c, 7, 55, 127
2, 114655, Note_on_c, 0, 72, 127
2, 114824, Note_off_c, 0, 72, 127
2, 114829, Note_on_c, 10, 69, 127
2, 114998, Note_off_c, 10, 69, 127
2, 114998, Note_off_c, 7, 55, 127
2, 115003, Note_on_c, 6, 54, 127
2, 115003, Note_on_c, 2, 74, 127
2, 115172, Note_off_c, 2, 74, 127
2, 115176, Note_on_c, 10, 69, 127
2, 115346, Note_off_c, 6, 54, 127
2, 115349, Note_off_c, 10, 69, 127
2, 115355, Note_on_c, 3, 63, 127
2, 115355, Note_on_c, 7, 55, 127
2, 115533, Note_on_c, 2, 74, 127
2, 115575, Note_off_c, 3, 63, 127
2, 115706, Note_off_c, 2, 74, 127
2, 115707, Note_off_c, 7, 55, 127
2, 115711, Note_on_c, 12, 71, 127
2, 115711, Note_on_c, 5, 53, 127
2, 115884, Note_off_c, 12, 71, 127
2, 115889, Note_on_c, 7, 67, 127
2, 116062, Note_off_c, 7, 67, 127
2, 116063, Note_off_c, 5, 53, 127
2, 116067, Note_on_c, 0, 72, 127
2, 116067, Note_on_c, 3, 51, 127
2, 116240, Note_off_c, 0, 72, 127
2, 116246, Note_on_c, 7, 67, 127
2, 116419, Note_off_c, 3, 51, 127
2, 116424, Note_off_c, 7, 67, 127
2, 116428, Note_on_c, 5, 53, 127
2, 116428, Note_on_c, 2, 62, 127
2, 116613, Note_on_c, 0, 72, 127
2, 116654, Note_off_c, 2, 62, 127
2, 116789, Note_off_c, 0, 72, 127
2, 116791, Note_off_c, 5, 53, 127
2, 116796, Note_on_c, 7, 55, 127
2, 116796, Note_on_c, 8, 68, 127
2, 116974, Note_off_c, 8, 68, 127
2, 116980, Note_on_c, 5, 65, 127
2, 117158, Note_off_c, 5, 65, 127
2, 117165, Note_on_c, 7, 43, 127
2, 117165, Note_on_c, 12, 71, 127
2, 117350, Note_on_c, 5, 65, 127
2, 117356, Note_off_c, 7, 55, 127
2, 117495, Note_off_c, 12, 71, 127
2, 117592, Note_off_c, 7, 43, 127
2, 117596, Note_on_c, 0, 36, 127
2, 117596, Note_on_c, 0, 72, 127
2, 117596, Note_on_c, 7, 67, 127
2, 117596, Note_on_c, 3, 63, 127
2, 117610, Note_off_c, 5, 65, 127
2, 119996, Note_off_c, 0, 72, 127
2, 120046, Note_off_c, 7, 67, 127
2, 120096, Note_off_c, 3, 63, 127
2, 120596, Note_off_c, 0, 36, 127
2, 120926, Note_on_c, 0, 60, 127
2, 120926, Note_on_c, 3, 75, 127
2, 121344, Note_off_c, 3, 75, 127
2, 121348, Note_on_c, 5, 77, 127
2, 121557, Note_off_c, 5, 77, 127
2, 121559, Note_on_c, 3, 75, 127
2, 121768, Note_off_c, 3, 75, 127
2, 121770, Note_on_c, 2, 74, 127
2, 121770, Note_on_c, 3, 63, 127
2, 121979, Note_off_c, 2, 74, 127
2, 121982, Note_on_c, 3, 75, 127
2, 122191, Note_off_c, 3, 75, 127
2, 122193, Note_on_c, 0, 72, 127
2, 122612, Note_off_c, 3, 63, 127
2, 122613, Note_off_c, 0, 72, 127
2, 122613, Note_off_c, 0, 60, 127
2, 122615, Note_on_c, 7, 79, 127
2, 122615, Note_on_c, 2, 62, 127
2, 122615, Note_on_c, 11, 58, 127
2, 122824, Note_off_c, 7, 79, 127
2, 122826, Note_on_c, 5, 77, 127
2, 123035, Note_off_c, 5, 77, 127
2, 123038, Note_on_c, 7, 79, 127
2, 123457, Note_off_c, 11, 58, 127
2, 123457, Note_off_c, 2, 62, 127
2, 123460, Note_on_c, 0, 60, 127
2, 123460, Note_on_c, 8, 56, 127
2, 123610, Note_off_c, 7, 79, 127
2, 123671, Note_on_c, 0, 84, 127
2, 123880, Note_off_c, 0, 84, 127
2, 123882, Note_on_c, 8, 80, 127
2, 124091, Note_off_c, 8, 80, 127
2, 124094, Note_on_c, 4, 76, 127
2, 124303, Note_off_c, 4, 76, 127
2, 124305, Note_on_c, 5, 77, 127
2, 124514, Note_off_c, 5, 77, 127
2, 124516, Note_on_c, 4, 76, 127
2, 124725, Note_off_c, 4, 76, 127
2, 124725, Note_off_c, 8, 56, 127
2, 124725, Note_off_c, 0, 60, 127
2, 124727, Note_on_c, 5, 77, 127
2, 124727, Note_on_c, 8, 56, 127
2, 124727, Note_on_c, 12, 59, 127
2, 125147, Note_off_c, 12, 59, 127
2, 125147, Note_off_c, 8, 56, 127
2, 125150, Note_on_c, 0, 60, 127
2, 125150, Note_on_c, 7, 55, 127
2, 125570, Note_off_c, 7, 55, 127
2, 125570, Note_off_c, 0, 60, 127
2, 125572, Note_on_c, 2, 62, 127
2, 125572, Note_on_c, 5, 53, 127
2, 125992, Note_off_c, 5, 53, 127
2, 125992, Note_off_c, 2, 62, 127
2, 125992, Note_off_c, 5, 77, 127
2, 125994, Note_on_c, 12, 59, 127
2, 125994, Note_on_c, 7, 55, 127
2, 126206, Note_on_c, 8, 80, 127
2, 126415, Note_off_c, 8, 80, 127
2, 126417, Note_on_c, 7, 79, 127
2, 126626, Note_off_c, 7, 79, 127
2, 126628, Note_on_c, 2, 74, 127
2, 126836, Note_off_c, 7, 55, 127
2, 126836, Note_off_c, 12, 59, 127
2, 126837, Note_off_c, 2, 74, 127
2, 126839, Note_on_c, 3, 75, 127
2, 126839, Note_on_c, 0, 60, 127
2, 127048, Note_off_c, 3, 75, 127
2, 127050, Note_on_c, 7, 79, 127
2, 127259, Note_off_c, 7, 79, 127
2, 127262, Note_on_c, 5, 77, 127
2, 127262, Note_on_c, 8, 56, 127
2, 127471, Note_off_c, 5, 77, 127
2, 127473, Note_on_c, 0, 72, 127
2, 127675, Note_off_c, 0, 60, 127
2, 127682, Note_off_c, 0, 72, 127
2, 127682, Note_off_c, 8, 56, 127
2, 127684, Note_on_c, 2, 74, 127
2, 127684, Note_on_c, 5, 53, 127
2, 127684, Note_on_c, 8, 56, 127
2, 127893, Note_off_c, 2, 74, 127
2, 127895, Note_on_c, 5, 77, 127
2, 128104, Note_off_c, 5, 77, 127
2, 128106, Note_on_c, 3, 75, 127
2, 128315, Note_off_c, 3, 75, 127
2, 128318, Note_on_c, 12, 71, 127
2, 128526, Note_off_c, 8, 56, 127
2, 128526, Note_off_c, 5, 53, 127
2, 128527, Note_off_c, 12, 71, 127
2, 128529, Note_on_c, 0, 72, 127
2, 128529, Note_on_c, 6, 54, 127
2, 128529, Note_on_c, 10, 57, 127
2, 128738, Note_off_c, 0, 72, 127
2, 128740, Note_on_c, 3, 75, 127
2, 128949, Note_off_c, 3, 75, 127
2, 128951, Note_on_c, 2, 74, 127
2, 129160, Note_off_c, 2, 74, 127
2, 129162, Note_on_c, 10, 69, 127
2, 129371, Note_off_c, 10, 69, 127
2, 129371, Note_off_c, 10, 57, 127
2, 129371, Note_off_c, 6, 54, 127
2, 129374, Note_on_c, 12, 71, 127
2, 129374, Note_on_c, 7, 55, 127
2, 129477, Note_off_c, 12, 71, 127
2, 129479, Note_on_c, 10, 69, 127
2, 129582, Note_off_c, 10, 69, 127
2, 129585, Note_on_c, 12, 71, 127
2, 129796, Note_on_c, 7, 43, 127
2, 130005, Note_off_c, 12, 71, 127
2, 130007, Note_on_c, 0, 72, 127
2, 130110, Note_off_c, 0, 72, 127
2, 130113, Note_on_c, 2, 74, 127
2, 130216, Note_off_c, 2, 74, 127
2, 130216, Note_off_c, 7, 43, 127
2, 130218, Note_on_c, 0, 72, 127
2, 130218, Note_on_c, 10, 45, 127
2, 130427, Note_off_c, 0, 72, 127
2, 130430, Note_on_c, 12, 71, 127
2, 130638, Note_off_c, 10, 45, 127
2, 130639, Note_off_c, 12, 71, 127
2, 130641, Note_on_c, 10, 69, 127
2, 130641, Note_on_c, 12, 47, 127
2, 130850, Note_off_c, 10, 69, 127
2, 130852, Note_on_c, 7, 67, 127
2, 131028, Note_off_c, 7, 67, 127
2, 131061, Note_off_c, 12, 47, 127
2, 131063, Note_on_c, 3, 75, 127
2, 131063, Note_on_c, 0, 48, 127
2, 131483, Note_off_c, 3, 75, 127
2, 131486, Note_off_c, 7, 55, 127
2, 131486, Note_on_c, 5, 77, 127
2, 131486, Note_on_c, 7, 55, 127
2, 131695, Note_off_c, 5, 77, 127
2, 131697, Note_on_c, 3, 75, 127
2, 131899, Note_off_c, 0, 48, 127
2, 131906, Note_off_c, 3, 75, 127
2, 131906, Note_off_c, 7, 55, 127
2, 131908, Note_on_c, 2, 74, 127
2, 131908, Note_on_c, 5, 53, 127
2, 132117, Note_off_c, 2, 74, 127
2, 132119, Note_on_c, 3, 75, 127
2, 132328, Note_off_c, 3, 75, 127
2, 132328, Note_off_c, 5, 53, 127
2, 132330, Note_on_c, 0, 72, 127
2, 132330, Note_on_c, 0, 48, 127
2, 132330, Note_on_c, 3, 51, 127
2, 132750, Note_off_c, 3, 51, 127
2, 132750, Note_off_c, 0, 48, 127
2, 132750, Note_off_c, 0, 72, 127
2, 132753, Note_on_c, 2, 50, 127
2, 132753, Note_on_c, 5, 53, 127
2, 132753, Note_on_c, 7, 79, 127
2, 132891, Note_off_c, 7, 79, 127
2, 132894, Note_on_c, 8, 80, 127
2, 133032, Note_off_c, 8, 80, 127
2, 133034, Note_on_c, 11, 82, 127
2, 133173, Note_off_c, 5, 53, 127
2, 133173, Note_off_c, 2, 50, 127
2, 133175, Note_on_c, 7, 55, 127
2, 133175, Note_on_c, 4, 52, 127
2, 133595, Note_off_c, 4, 52, 127
2, 133595, Note_off_c, 7, 55, 127
2, 133598, Note_on_c, 5, 53, 127
2, 133738, Note_off_c, 11, 82, 127
2, 133809, Note_on_c, 7, 79, 127
2, 134018, Note_off_c, 7, 79, 127
2, 134020, Note_on_c, 4, 76, 127
2, 134020, Note_on_c, 5, 41, 127
2, 134229, Note_off_c, 4, 76, 127
2, 134231, Note_on_c, 0, 72, 127
2, 134434, Note_off_c, 5, 53, 127
2, 134440, Note_off_c, 0, 72, 127
2, 134440, Note_off_c, 5, 41, 127
2, 134442, Note_on_c, 8, 80, 127
2, 134442, Note_on_c, 5, 53, 127
2, 134865, Note_on_c, 7, 55, 127
2, 135073, Note_off_c, 8, 80, 127
2, 135076, Note_on_c, 0, 72, 127
2, 135285, Note_off_c, 0, 72, 127
2, 135285, Note_off_c, 7, 55, 127
2, 135287, Note_on_c, 1, 73, 127
2, 135287, Note_on_c, 8, 56, 127
2, 135707, Note_off_c, 8, 56, 127
2, 135707, Note_off_c, 5, 53, 127
2, 135710, Note_on_c, 7, 55, 127
2, 135710, Note_on_c, 11, 58, 127
2, 136130, Note_off_c, 11, 58, 127
2, 136130, Note_off_c, 7, 55, 127
2, 136132, Note_on_c, 8, 56, 127
2, 136255, Note_off_c, 1, 73, 127
2, 136343, Note_on_c, 11, 70, 127
2, 136552, Note_off_c, 11, 70, 127
2, 136552, Note_off_c, 8, 56, 127
2, 136554, Note_on_c, 0, 72, 127
2, 136554, Note_on_c, 8, 56, 127
2, 136554, Note_on_c, 5, 53, 127
2, 136763, Note_off_c, 0, 72, 127
2, 136766, Note_on_c, 5, 77, 127
2, 136974, Note_off_c, 5, 53, 127
2, 136975, Note_off_c, 5, 77, 127
2, 136977, Note_on_c, 2, 74, 127
2, 136977, Note_on_c, 11, 46, 127
2, 137186, Note_off_c, 2, 74, 127
2, 137188, Note_on_c, 7, 79, 127
2, 137390, Note_off_c, 8, 56, 127
2, 137397, Note_off_c, 7, 79, 127
2, 137399, Note_on_c, 5, 77, 127
2, 137399, Note_on_c, 2, 50, 127
2, 137608, Note_off_c, 5, 77, 127
2, 137610, Note_on_c, 8, 80, 127
2, 137819, Note_off_c, 8, 80, 127
2, 137819, Note_off_c, 2, 50, 127
2, 137822, Note_on_c, 7, 79, 127
2, 137822, Note_on_c, 3, 51, 127
2, 138031, Note_off_c, 7, 79, 127
2, 138033, Note_on_c, 0, 84, 127
2, 138136, Note_off_c, 0, 84, 127
2, 138138, Note_on_c, 11, 82, 127
2, 138241, Note_off_c, 11, 82, 127
2, 138242, Note_off_c, 3, 51, 127
2, 138244, Note_on_c, 8, 80, 127
2, 138244, Note_on_c, 5, 53, 127
2, 138453, Note_off_c, 8, 80, 127
2, 138455, Note_on_c, 7, 79, 127
2, 138664, Note_off_c, 7, 79, 127
2, 138664, Note_off_c, 5, 53, 127
2, 138664, Note_off_c, 11, 46, 127
2, 138666, Note_on_c, 5, 77, 127
2, 138666, Note_on_c, 3, 51, 127
2, 138666, Note_on_c, 7, 55, 127
2, 138875, Note_off_c, 5, 77, 127
2, 138878, Note_on_c, 3, 75, 127
2, 138981, Note_off_c, 3, 75, 127
2, 138983, Note_on_c, 5, 77, 127
2, 139086, Note_off_c, 5, 77, 127
2, 139086, Note_off_c, 7, 55, 127
2, 139089, Note_on_c, 3, 75, 127
2, 139089, Note_on_c, 8, 56, 127
2, 139192, Note_off_c, 3, 75, 127
2, 139194, Note_on_c, 5, 77, 127
2, 139297, Note_off_c, 5, 77, 127
2, 139298, Note_off_c, 8, 56, 127
2, 139300, Note_on_c, 3, 75, 127
2, 139300, Note_on_c, 11, 58, 127
2, 139403, Note_off_c, 3, 75, 127
2, 139406, Note_on_c, 5, 77, 127
2, 139509, Note_off_c, 5, 77, 127
2, 139509, Note_off_c, 11, 58, 127
2, 139511, Note_on_c, 3, 75, 127
2, 139511, Note_on_c, 8, 56, 127
2, 139720, Note_off_c, 8, 56, 127
2, 139722, Note_on_c, 7, 55, 127
2, 139931, Note_off_c, 7, 55, 127
2, 139931, Note_off_c, 3, 51, 127
2, 139934, Note_on_c, 8, 56, 127
2, 140143, Note_off_c, 8, 56, 127
2, 140145, Note_on_c, 5, 53, 127
2, 140354, Note_off_c, 5, 53, 127
2, 140356, Note_on_c, 7, 55, 127
2, 141104, Note_off_c, 7, 55, 127
2, 141179, Note_off_c, 3, 75, 127
2, 141201, Note_on_c, 11, 70, 127
2, 141201, Note_on_c, 3, 51, 127
2, 141201, Note_on_c, 7, 55, 127
2, 141621, Note_off_c, 11, 70, 127
2, 141623, Note_on_c, 0, 72, 127
2, 141832, Note_off_c, 0, 72, 127
2, 141834, Note_on_c, 11, 70, 127
2, 142043, Note_off_c, 11, 70, 127
2, 142043, Note_off_c, 7, 55, 127
2, 142046, Note_on_c, 8, 68, 127
2, 142046, Note_on_c, 11, 58, 127
2, 142255, Note_off_c, 8, 68, 127
2, 142257, Note_on_c, 11, 70, 127
2, 142466, Note_off_c, 11, 70, 127
2, 142466, Note_off_c, 3, 51, 127
2, 142468, Note_on_c, 7, 67, 127
2, 142468, Note_on_c, 3, 51, 127
2, 142888, Note_off_c, 3, 51, 127
2, 142888, Note_off_c, 7, 67, 127
2, 142890, Note_on_c, 3, 75, 127
2, 142890, Note_on_c, 5, 53, 127
2, 143099, Note_off_c, 3, 75, 127
2, 143102, Note_on_c, 2, 74, 127
2, 143310, Note_off_c, 5, 53, 127
2, 143311, Note_off_c, 2, 74, 127
2, 143313, Note_on_c, 7, 55, 127
2, 143313, Note_on_c, 3, 75, 127
2, 143733, Note_off_c, 7, 55, 127
2, 143735, Note_on_c, 0, 48, 127
2, 143929, Note_off_c, 3, 75, 127
2, 143946, Note_on_c, 2, 74, 127
2, 144155, Note_off_c, 2, 74, 127
2, 144158, Note_off_c, 11, 58, 127
2, 144158, Note_on_c, 3, 75, 127
2, 144158, Note_on_c, 7, 55, 127
2, 144367, Note_off_c, 3, 75, 127
2, 144369, Note_on_c, 7, 79, 127
2, 144571, Note_off_c, 0, 48, 127
2, 144578, Note_off_c, 7, 79, 127
2, 144578, Note_off_c, 7, 55, 127
2, 144580, Note_on_c, 5, 77, 127
2, 144580, Note_on_c, 10, 57, 127
2, 144789, Note_off_c, 5, 77, 127
2, 144791, Note_on_c, 3, 75, 127
2, 145000, Note_off_c, 3, 75, 127
2, 145002, Note_on_c, 2, 74, 127
2, 145002, Note_on_c, 2, 50, 127
2, 145211, Note_off_c, 2, 74, 127
2, 145214, Note_on_c, 0, 72, 127
2, 145422, Note_off_c, 2, 50, 127
2, 145423, Note_off_c, 0, 72, 127
2, 145425, Note_on_c, 11, 70, 127
2, 145425, Note_on_c, 3, 51, 127
2, 145634, Note_off_c, 11, 70, 127
2, 145636, Note_on_c, 10, 69, 127
2, 145845, Note_off_c, 10, 69, 127
2, 145845, Note_off_c, 3, 51, 127
2, 145847, Note_on_c, 7, 67, 127
2, 145847, Note_on_c, 5, 53, 127
2, 146056, Note_off_c, 7, 67, 127
2, 146058, Note_on_c, 5, 65, 127
2, 146234, Note_off_c, 5, 65, 127
2, 146267, Note_off_c, 5, 53, 127
2, 146267, Note_off_c, 10, 57, 127
2, 146270, Note_on_c, 3, 75, 127
2, 146270, Note_on_c, 11, 46, 127
2, 146479, Note_off_c, 3, 75, 127
2, 146481, Note_on_c, 0, 72, 127
2, 146690, Note_off_c, 0, 72, 127
2, 146692, Note_on_c, 2, 74, 127
2, 146692, Note_on_c, 2, 50, 127
2, 146901, Note_off_c, 2, 74, 127
2, 146903, Note_on_c, 11, 82, 127
2, 147084, Note_off_c, 11, 46, 127
2, 147088, Note_off_c, 2, 50, 127
2, 147112, Note_off_c, 11, 82, 127
2, 147114, Note_on_c, 2, 74, 127
2, 147114, Note_on_c, 10, 45, 127
2, 147114, Note_on_c, 4, 52, 127
2, 147323, Note_off_c, 2, 74, 127
2, 147326, Note_on_c, 11, 70, 127
2, 147510, Note_off_c, 4, 52, 127
2, 147535, Note_off_c, 11, 70, 127
2, 147537, Note_on_c, 0, 72, 127
2, 147537, Note_on_c, 6, 54, 127
2, 147746, Note_off_c, 0, 72, 127
2, 147748, Note_on_c, 10, 81, 127
2, 147935, Note_off_c, 6, 54, 127
2, 147954, Note_off_c, 10, 45, 127
2, 147957, Note_off_c, 10, 81, 127
2, 147959, Note_on_c, 0, 72, 127
2, 147959, Note_on_c, 7, 55, 127
2, 148168, Note_off_c, 0, 72, 127
2, 148170, Note_on_c, 10, 69, 127
2, 148379, Note_off_c, 10, 69, 127
2, 148382, Note_on_c, 11, 70, 127
2, 148382, Note_on_c, 7, 43, 127
2, 148591, Note_off_c, 11, 70, 127
2, 148593, Note_on_c, 7, 79, 127
2, 148778, Note_off_c, 7, 43, 127
2, 148802, Note_off_c, 7, 79, 127
2, 148804, Note_on_c, 11, 70, 127
2, 148804, Note_on_c, 0, 48, 127
2, 149013, Note_off_c, 11, 70, 127
2, 149015, Note_on_c, 7, 67, 127
2, 149224, Note_off_c, 7, 67, 127
2, 149224, Note_off_c, 0, 48, 127
2, 149226, Note_on_c, 10, 69, 127
2, 149226, Note_on_c, 3, 51, 127
2, 149435, Note_off_c, 10, 69, 127
2, 149438, Note_on_c, 7, 79, 127
2, 149636, Note_off_c, 7, 79, 127
2, 149646, Note_off_c, 3, 51, 127
2, 149646, Note_off_c, 7, 55, 127
2, 149649, Note_on_c, 6, 78, 127
2, 149649, Note_on_c, 10, 57, 127
2, 149649, Note_on_c, 2, 50, 127
2, 150069, Note_off_c, 10, 57, 127
2, 150071, Note_on_c, 11, 58, 127
2, 150280, Note_off_c, 6, 78, 127
2, 150282, Note_on_c, 7, 79, 127
2, 150385, Note_off_c, 7, 79, 127
2, 150388, Note_on_c, 10, 81, 127
2, 150491, Note_off_c, 10, 81, 127
2, 150491, Note_off_c, 11, 58, 127
2, 150494, Note_on_c, 7, 79, 127
2, 150494, Note_on_c, 0, 60, 127
2, 150703, Note_off_c, 7, 79, 127
2, 150705, Note_on_c, 6, 78, 127
2, 150914, Note_off_c, 6, 78, 127
2, 150914, Note_off_c, 2, 50, 127
2, 150916, Note_on_c, 4, 76, 127
2, 150916, Note_on_c, 6, 54, 127
2, 151125, Note_off_c, 4, 76, 127
2, 151127, Note_on_c, 2, 74, 127
2, 151259, Note_off_c, 2, 74, 127
2, 151320, Note_off_c, 6, 54, 127
2, 151338, Note_on_c, 3, 75, 127
2, 151338, Note_on_c, 7, 55, 127
2, 151758, Note_off_c, 3, 75, 127
2, 151761, Note_on_c, 5, 77, 127
2, 151970, Note_off_c, 5, 77, 127
2, 151972, Note_on_c, 3, 75, 127
2, 152181, Note_off_c, 3, 75, 127
2, 152181, Note_off_c, 0, 60, 127
2, 152183, Note_on_c, 2, 74, 127
2, 152183, Note_on_c, 11, 58, 127
2, 152392, Note_off_c, 2, 74, 127
2, 152394, Note_on_c, 3, 75, 127
2, 152603, Note_off_c, 3, 75, 127
2, 152606, Note_on_c, 0, 72, 127
2, 153002, Note_off_c, 0, 72, 127
2, 153025, Note_off_c, 11, 58, 127
2, 153025, Note_off_c, 7, 55, 127
2, 153028, Note_on_c, 2, 74, 127
2, 153028, Note_on_c, 10, 57, 127
2, 153028, Note_on_c, 5, 53, 127
2, 153166, Note_off_c, 2, 74, 127
2, 153169, Note_on_c, 0, 72, 127
2, 153307, Note_off_c, 0, 72, 127
2, 153310, Note_on_c, 2, 74, 127
2, 153870, Note_off_c, 5, 53, 127
2, 153870, Note_off_c, 10, 57, 127
2, 153873, Note_on_c, 3, 51, 127
2, 153873, Note_on_c, 7, 55, 127
2, 154036, Note_off_c, 2, 74, 127
2, 154084, Note_on_c, 7, 79, 127
2, 154293, Note_off_c, 7, 79, 127
2, 154295, Note_on_c, 3, 75, 127
2, 154504, Note_off_c, 3, 75, 127
2, 154506, Note_on_c, 12, 71, 127
2, 154715, Note_off_c, 12, 71, 127
2, 154718, Note_on_c, 0, 72, 127
2, 154927, Note_off_c, 0, 72, 127
2, 154929, Note_on_c, 12, 71, 127
2, 155061, Note_off_c, 7, 55, 127
2, 155138, Note_off_c, 12, 71, 127
2, 155138, Note_off_c, 3, 51, 127
2, 155140, Note_on_c, 0, 72, 127
2, 155140, Note_on_c, 6, 54, 127
2, 155140, Note_on_c, 3, 51, 127
2, 155560, Note_off_c, 3, 51, 127
2, 155560, Note_off_c, 6, 54, 127
2, 155562, Note_on_c, 7, 55, 127
2, 155562, Note_on_c, 2, 50, 127
2, 155982, Note_off_c, 2, 50, 127
2, 155982, Note_off_c, 7, 55, 127
2, 155985, Note_on_c, 10, 57, 127
2, 155985, Note_on_c, 0, 48, 127
2, 156405, Note_off_c, 0, 48, 127
2, 156405, Note_off_c, 10, 57, 127
2, 156407, Note_on_c, 11, 46, 127
2, 156407, Note_on_c, 2, 50, 127
2, 156548, Note_off_c, 0, 72, 127
2, 156618, Note_on_c, 3, 75, 127
2, 156827, Note_off_c, 3, 75, 127
2, 156827, Note_off_c, 2, 50, 127
2, 156827, Note_off_c, 11, 46, 127
2, 156830, Note_on_c, 2, 74, 127
2, 156830, Note_on_c, 7, 55, 127
2, 156830, Note_on_c, 7, 43, 127
2, 157039, Note_off_c, 2, 74, 127
2, 157041, Note_on_c, 10, 69, 127
2, 157250, Note_off_c, 10, 69, 127
2, 157250, Note_off_c, 7, 43, 127
2, 157252, Note_on_c, 11, 70, 127
2, 157252, Note_on_c, 2, 50, 127
2, 157461, Note_off_c, 11, 70, 127
2, 157463, Note_on_c, 2, 74, 127
2, 157666, Note_off_c, 7, 55, 127
2, 157672, Note_off_c, 2, 74, 127
2, 157674, Note_on_c, 0, 72, 127
2, 157674, Note_on_c, 6, 54, 127
2, 157883, Note_off_c, 6, 54, 127
2, 157883, Note_off_c, 0, 72, 127
2, 157886, Note_on_c, 7, 67, 127
2, 157886, Note_on_c, 4, 52, 127
2, 158095, Note_off_c, 4, 52, 127
2, 158095, Note_off_c, 7, 67, 127
2, 158097, Note_on_c, 10, 69, 127
2, 158097, Note_on_c, 6, 54, 127
2, 158306, Note_off_c, 10, 69, 127
2, 158308, Note_on_c, 0, 72, 127
2, 158517, Note_off_c, 0, 72, 127
2, 158517, Note_off_c, 6, 54, 127
2, 158519, Note_on_c, 11, 70, 127
2, 158519, Note_on_c, 0, 60, 127
2, 158728, Note_off_c, 11, 70, 127
2, 158730, Note_on_c, 6, 66, 127
2, 158939, Note_off_c, 6, 66, 127
2, 158939, Note_off_c, 2, 50, 127
2, 158942, Note_on_c, 7, 67, 127
2, 158942, Note_on_c, 7, 55, 127
2, 159151, Note_off_c, 7, 67, 127
2, 159153, Note_on_c, 6, 66, 127
2, 159362, Note_off_c, 6, 66, 127
2, 159364, Note_on_c, 10, 69, 127
2, 159573, Note_off_c, 10, 69, 127
2, 159575, Note_on_c, 7, 67, 127
2, 159784, Note_off_c, 7, 67, 127
2, 159784, Note_off_c, 0, 60, 127
2, 159786, Note_on_c, 7, 67, 127
2, 159786, Note_on_c, 12, 59, 127
2, 160207, Note_off_c, 7, 55, 127
2, 160209, Note_on_c, 5, 53, 127
2, 160622, Note_off_c, 12, 59, 127
2, 160629, Note_off_c, 5, 53, 127
2, 160631, Note_on_c, 3, 51, 127
2, 161051, Note_off_c, 3, 51, 127
2, 161051, Note_off_c, 7, 67, 127
2, 161054, Note_on_c, 2, 50, 127
2, 161474, Note_off_c, 2, 50, 127
2, 161476, Note_on_c, 3, 75, 127
2, 161476, Note_on_c, 0, 48, 127
2, 161896, Note_off_c, 0, 48, 127
2, 161896, Note_off_c, 3, 75, 127
2, 161898, Note_on_c, 5, 77, 127
2, 161898, Note_on_c, 7, 55, 127
2, 162107, Note_off_c, 5, 77, 127
2, 162110, Note_on_c, 3, 75, 127
2, 162318, Note_off_c, 7, 55, 127
2, 162319, Note_off_c, 3, 75, 127
2, 162321, Note_on_c, 2, 74, 127
2, 162321, Note_on_c, 5, 53, 127
2, 162530, Note_off_c, 2, 74, 127
2, 162532, Note_on_c, 3, 75, 127
2, 162741, Note_off_c, 3, 75, 127
2, 162741, Note_off_c, 5, 53, 127
2, 162743, Note_on_c, 0, 72, 127
2, 162743, Note_on_c, 3, 51, 127
2, 163163, Note_off_c, 3, 51, 127
2, 163163, Note_off_c, 0, 72, 127
2, 163166, Note_on_c, 8, 80, 127
2, 163166, Note_on_c, 2, 50, 127
2, 163342, Note_off_c, 8, 80, 127
2, 163342, Note_on_c, 7, 79, 127
2, 163518, Note_off_c, 7, 79, 127
2, 163518, Note_on_c, 8, 80, 127
2, 163586, Note_off_c, 2, 50, 127
2, 163588, Note_on_c, 0, 48, 127
2, 164008, Note_off_c, 0, 48, 127
2, 164010, Note_on_c, 11, 46, 127
2, 164178, Note_off_c, 8, 80, 127
2, 164222, Note_on_c, 5, 77, 127
2, 164431, Note_off_c, 5, 77, 127
2, 164433, Note_on_c, 1, 73, 127
2, 164433, Note_on_c, 11, 58, 127
2, 164642, Note_off_c, 1, 73, 127
2, 164644, Note_on_c, 0, 72, 127
2, 164853, Note_off_c, 0, 72, 127
2, 164853, Note_off_c, 11, 58, 127
2, 164855, Note_on_c, 1, 73, 127
2, 164855, Note_on_c, 8, 56, 127
2, 165064, Note_off_c, 1, 73, 127
2, 165066, Note_on_c, 5, 77, 127
2, 165275, Note_off_c, 5, 77, 127
2, 165275, Note_off_c, 8, 56, 127
2, 165278, Note_on_c, 8, 80, 127
2, 165278, Note_on_c, 7, 55, 127
2, 165487, Note_off_c, 8, 80, 127
2, 165489, Note_on_c, 7, 79, 127
2, 165698, Note_off_c, 7, 79, 127
2, 165698, Note_off_c, 7, 55, 127
2, 165700, Note_on_c, 7, 79, 127
2, 165700, Note_on_c, 5, 53, 127
2, 166120, Note_off_c, 5, 53, 127
2, 166122, Note_on_c, 4, 52, 127
2, 166540, Note_off_c, 11, 46, 127
2, 166542, Note_off_c, 4, 52, 127
2, 166545, Note_on_c, 8, 44, 127
2, 166753, Note_off_c, 7, 79, 127
2, 166756, Note_on_c, 4, 76, 127
2, 166965, Note_off_c, 4, 76, 127
2, 166967, Note_on_c, 5, 77, 127
2, 166967, Note_on_c, 0, 48, 127
2, 167176, Note_off_c, 5, 77, 127
2, 167178, Note_on_c, 8, 80, 127
2, 167365, Note_off_c, 8, 80, 127
2, 167387, Note_off_c, 0, 48, 127
2, 167390, Note_on_c, 11, 70, 127
2, 167390, Note_on_c, 2, 50, 127
2, 167599, Note_off_c, 11, 70, 127
2, 167601, Note_on_c, 0, 72, 127
2, 167810, Note_off_c, 0, 72, 127
2, 167810, Note_off_c, 2, 50, 127
2, 167812, Note_on_c, 1, 73, 127
2, 167812, Note_on_c, 4, 52, 127
2, 168232, Note_off_c, 4, 52, 127
2, 168232, Note_off_c, 8, 44, 127
2, 168234, Note_on_c, 5, 53, 127
2, 168234, Note_on_c, 7, 43, 127
2, 168443, Note_off_c, 1, 73, 127
2, 168446, Note_on_c, 0, 72, 127
2, 168654, Note_off_c, 5, 53, 127
2, 168655, Note_off_c, 0, 72, 127
2, 168657, Note_on_c, 11, 70, 127
2, 168657, Note_on_c, 4, 52, 127
2, 168866, Note_off_c, 11, 70, 127
2, 168868, Note_on_c, 7, 79, 127
2, 169070, Note_off_c, 7, 43, 127
2, 169077, Note_off_c, 7, 79, 127
2, 169077, Note_off_c, 4, 52, 127
2, 169079, Note_on_c, 11, 70, 127
2, 169079, Note_on_c, 5, 41, 127
2, 169079, Note_on_c, 5, 53, 127
2, 169288, Note_off_c, 11, 70, 127
2, 169290, Note_on_c, 8, 68, 127
2, 169499, Note_off_c, 8, 68, 127
2, 169502, Note_on_c, 7, 67, 127
2, 169711, Note_off_c, 7, 67, 127
2, 169713, Note_on_c, 8, 68, 127
2, 169921, Note_off_c, 5, 53, 127
2, 169921, Note_off_c, 5, 41, 127
2, 169922, Note_off_c, 8, 68, 127
2, 169924, Note_on_c, 11, 70, 127
2, 169924, Note_on_c, 0, 60, 127
2, 170133, Note_off_c, 11, 70, 127
2, 170135, Note_on_c, 7, 67, 127
2, 170344, Note_off_c, 7, 67, 127
2, 170346, Note_on_c, 8, 68, 127
2, 170346, Note_on_c, 5, 53, 127
2, 170555, Note_off_c, 8, 68, 127
2, 170558, Note_on_c, 5, 65, 127
2, 170745, Note_off_c, 5, 65, 127
2, 170766, Note_off_c, 5, 53, 127
2, 170769, Note_on_c, 2, 74, 127
2, 170769, Note_on_c, 7, 55, 127
2, 171189, Note_off_c, 7, 55, 127
2, 171191, Note_on_c, 8, 56, 127
2, 171611, Note_off_c, 8, 56, 127
2, 171614, Note_on_c, 2, 50, 127
2, 171822, Note_off_c, 2, 74, 127
2, 171825, Note_on_c, 0, 72, 127
2, 171904, Note_off_c, 0, 60, 127
2, 172034, Note_off_c, 0, 72, 127
2, 172036, Note_on_c, 12, 71, 127
2, 172036, Note_on_c, 5, 53, 127
2, 172245, Note_off_c, 12, 71, 127
2, 172247, Note_on_c, 0, 72, 127
2, 172450, Note_off_c, 2, 50, 127
2, 172456, Note_off_c, 0, 72, 127
2, 172456, Note_off_c, 5, 53, 127
2, 172458, Note_on_c, 2, 74, 127
2, 172458, Note_on_c, 8, 56, 127
2, 172667, Note_off_c, 2, 74, 127
2, 172670, Note_on_c, 12, 71, 127
2, 172879, Note_off_c, 12, 71, 127
2, 172881, Note_on_c, 0, 72, 127
2, 172881, Note_on_c, 2, 50, 127
2, 173090, Note_off_c, 0, 72, 127
2, 173092, Note_on_c, 10, 69, 127
2, 173279, Note_off_c, 10, 69, 127
2, 173301, Note_off_c, 2, 50, 127
2, 173303, Note_on_c, 5, 77, 127
2, 173303, Note_on_c, 3, 51, 127
2, 173723, Note_off_c, 3, 51, 127
2, 173726, Note_on_c, 5, 53, 127
2, 174146, Note_off_c, 5, 53, 127
2, 174148, Note_on_c, 12, 47, 127
2, 174356, Note_off_c, 5, 77, 127
2, 174359, Note_on_c, 3, 75, 127
2, 174438, Note_off_c, 8, 56, 127
2, 174568, Note_off_c, 3, 75, 127
2, 174570, Note_on_c, 2, 74, 127
2, 174570, Note_on_c, 5, 53, 127
2, 174779, Note_off_c, 2, 74, 127
2, 174782, Note_on_c, 3, 75, 127
2, 174984, Note_off_c, 12, 47, 127
2, 174990, Note_off_c, 5, 53, 127
2, 174991, Note_off_c, 3, 75, 127
2, 174993, Note_on_c, 5, 77, 127
2, 174993, Note_on_c, 7, 55, 127
2, 175202, Note_off_c, 5, 77, 127
2, 175204, Note_on_c, 2, 74, 127
2, 175413, Note_off_c, 2, 74, 127
2, 175415, Note_on_c, 3, 75, 127
2, 175415, Note_on_c, 12, 47, 127
2, 175624, Note_off_c, 3, 75, 127
2, 175626, Note_on_c, 0, 72, 127
2, 175813, Note_off_c, 0, 72, 127
2, 175835, Note_off_c, 12, 47, 127
2, 175838, Note_on_c, 8, 80, 127
2, 175838, Note_on_c, 0, 48, 127
2, 176258, Note_off_c, 0, 48, 127
2, 176258, Note_off_c, 7, 55, 127
2, 176260, Note_on_c, 2, 50, 127
2, 176260, Note_on_c, 5, 53, 127
2, 176680, Note_off_c, 5, 53, 127
2, 176680, Note_off_c, 2, 50, 127
2, 176682, Note_on_c, 7, 55, 127
2, 176682, Note_on_c, 3, 51, 127
2, 176806, Note_off_c, 8, 80, 127
2, 176902, Note_on_c, 7, 79, 127
2, 177119, Note_off_c, 7, 79, 127
2, 177124, Note_off_c, 3, 51, 127
2, 177124, Note_off_c, 7, 55, 127
2, 177127, Note_on_c, 6, 78, 127
2, 177127, Note_on_c, 12, 59, 127
2, 177127, Note_on_c, 2, 50, 127
2, 177344, Note_off_c, 6, 78, 127
2, 177351, Note_on_c, 7, 79, 127
2, 177568, Note_off_c, 7, 79, 127
2, 177569, Note_off_c, 2, 50, 127
2, 177569, Note_off_c, 12, 59, 127
2, 177576, Note_on_c, 0, 84, 127
2, 177576, Note_on_c, 3, 51, 127
2, 177576, Note_on_c, 0, 60, 127
2, 177793, Note_off_c, 0, 84, 127
2, 177800, Note_on_c, 12, 83, 127
2, 177907, Note_off_c, 12, 83, 127
2, 177912, Note_on_c, 10, 81, 127
2, 178018, Note_off_c, 3, 51, 127
2, 178019, Note_off_c, 10, 81, 127
2, 178024, Note_on_c, 7, 79, 127
2, 178024, Note_on_c, 5, 53, 127
2, 178241, Note_off_c, 7, 79, 127
2, 178249, Note_on_c, 5, 77, 127
2, 178466, Note_off_c, 5, 77, 127
2, 178466, Note_off_c, 5, 53, 127
2, 178473, Note_on_c, 5, 77, 127
2, 178473, Note_on_c, 7, 55, 127
2, 178690, Note_off_c, 5, 77, 127
2, 178695, Note_on_c, 3, 75, 127
2, 178912, Note_off_c, 3, 75, 127
2, 178915, Note_off_c, 0, 60, 127
2, 178920, Note_on_c, 2, 74, 127
2, 178920, Note_on_c, 12, 59, 127
2, 179137, Note_off_c, 2, 74, 127
2, 179144, Note_on_c, 0, 72, 127
2, 179357, Note_off_c, 7, 55, 127
2, 179361, Note_off_c, 0, 72, 127
2, 179362, Note_off_c, 12, 59, 127
2, 179369, Note_on_c, 0, 72, 127
2, 179369, Note_on_c, 0, 60, 127
2, 179487, Note_on_c, 12, 71, 127
2, 179529, Note_off_c, 0, 72, 127
2, 179599, Note_off_c, 12, 71, 127
2, 179602, Note_on_c, 0, 72, 127
2, 179839, Note_on_c, 7, 55, 127
2, 180307, Note_off_c, 7, 55, 127
2, 180317, Note_on_c, 3, 51, 127
2, 180792, Note_on_c, 7, 55, 127
2, 180798, Note_off_c, 3, 51, 127
2, 181273, Note_off_c, 7, 55, 127
2, 181298, Note_on_c, 0, 48, 127
2, 182602, Note_off_c, 0, 72, 127
2, 183169, Note_off_c, 0, 60, 127
2, 183445, Note_on_c, 0, 72, 127
2, 183445, Note_on_c, 0, 60, 127
2, 183498, Note_off_c, 0, 48, 127
2, 183614, Note_off_c, 0, 72, 127
2, 183624, Note_on_c, 12, 71, 127
2, 183783, Note_off_c, 0, 60, 127
2, 183793, Note_off_c, 12, 71, 127
2, 183795, Note_on_c, 0, 48, 127
2, 183795, Note_on_c, 0, 72, 127
2, 183964, Note_off_c, 0, 72, 127
2, 183967, Note_on_c, 2, 74, 127
2, 184133, Note_off_c, 0, 48, 127
2, 184136, Note_off_c, 2, 74, 127
2, 184138, Note_on_c, 3, 75, 127
2, 184138, Note_on_c, 0, 60, 127
2, 184307, Note_off_c, 3, 75, 127
2, 184310, Note_on_c, 5, 77, 127
2, 184468, Note_off_c, 0, 60, 127
2, 184479, Note_off_c, 5, 77, 127
2, 184482, Note_on_c, 11, 58, 127
2, 184482, Note_on_c, 7, 79, 127
2, 184730, Note_off_c, 7, 79, 127
2, 184809, Note_off_c, 11, 58, 127
2, 184823, Note_on_c, 8, 56, 127
2, 184823, Note_on_c, 7, 79, 127
2, 184992, Note_off_c, 8, 56, 127
2, 184994, Note_on_c, 11, 58, 127
2, 185161, Note_off_c, 7, 79, 127
2, 185163, Note_off_c, 11, 58, 127
2, 185166, Note_on_c, 0, 60, 127
2, 185166, Note_on_c, 0, 72, 127
2, 185335, Note_off_c, 0, 60, 127
2, 185337, Note_on_c, 11, 58, 127
2, 185504, Note_off_c, 0, 72, 127
2, 185506, Note_off_c, 11, 58, 127
2, 185509, Note_on_c, 8, 56, 127
2, 185509, Note_on_c, 0, 72, 127
2, 185678, Note_off_c, 8, 56, 127
2, 185681, Note_on_c, 7, 55, 127
2, 185795, Note_off_c, 0, 72, 127
2, 185850, Note_off_c, 7, 55, 127
2, 185852, Note_on_c, 5, 53, 127
2, 185852, Note_on_c, 0, 84, 127
2, 186021, Note_off_c, 0, 84, 127
2, 186021, Note_off_c, 5, 53, 127
2, 186024, Note_on_c, 3, 51, 127
2, 186024, Note_on_c, 7, 79, 127
2, 186193, Note_off_c, 7, 79, 127
2, 186193, Note_off_c, 3, 51, 127
2, 186195, Note_on_c, 5, 53, 127
2, 186195, Note_on_c, 8, 80, 127
2, 186364, Note_off_c, 8, 80, 127
2, 186367, Note_on_c, 7, 79, 127
2, 186533, Note_off_c, 5, 53, 127
2, 186536, Note_off_c, 7, 79, 127
2, 186539, Note_on_c, 7, 55, 127
2, 186539, Note_on_c, 8, 80, 127
2, 186708, Note_off_c, 8, 80, 127
2, 186710, Note_on_c, 7, 79, 127
2, 186877, Note_off_c, 7, 55, 127
2, 186879, Note_off_c, 7, 79, 127
2, 186882, Note_on_c, 8, 56, 127
2, 186882, Note_on_c, 5, 77, 127
2, 187051, Note_off_c, 5, 77, 127
2, 187053, Note_on_c, 3, 75, 127
2, 187212, Note_off_c, 8, 56, 127
2, 187222, Note_off_c, 3, 75, 127
2, 187225, Note_on_c, 5, 53, 127
2, 187225, Note_on_c, 2, 74, 127
2, 187394, Note_off_c, 2, 74, 127
2, 187397, Note_on_c, 0, 72, 127
2, 187555, Note_off_c, 5, 53, 127
2, 187566, Note_off_c, 0, 72, 127
2, 187568, Note_on_c, 7, 55, 127
2, 187568, Note_on_c, 12, 71, 127
2, 187737, Note_off_c, 12, 71, 127
2, 187740, Note_on_c, 10, 69, 127
2, 187906, Note_off_c, 7, 55, 127
2, 187909, Note_off_c, 10, 69, 127
2, 187911, Note_on_c, 10, 57, 127
2, 187911, Note_on_c, 12, 71, 127
2, 188080, Note_off_c, 12, 71, 127
2, 188083, Note_on_c, 0, 72, 127
2, 188249, Note_off_c, 10, 57, 127
2, 188252, Note_off_c, 0, 72, 127
2, 188255, Note_on_c, 12, 59, 127
2, 188255, Note_on_c, 2, 74, 127
2, 188424, Note_off_c, 2, 74, 127
2, 188426, Note_on_c, 3, 75, 127
2, 188585, Note_off_c, 12, 59, 127
2, 188595, Note_off_c, 3, 75, 127
2, 188598, Note_on_c, 7, 55, 127
2, 188598, Note_on_c, 5, 77, 127
2, 188767, Note_off_c, 5, 77, 127
2, 188769, Note_on_c, 2, 74, 127
2, 188928, Note_off_c, 7, 55, 127
2, 188938, Note_off_c, 2, 74, 127
2, 188941, Note_on_c, 0, 48, 127
2, 188941, Note_on_c, 3, 75, 127
2, 189110, Note_off_c, 0, 48, 127
2, 189113, Note_on_c, 12, 47, 127
2, 189244, Note_off_c, 3, 75, 127
2, 189282, Note_off_c, 12, 47, 127
2, 189284, Note_on_c, 0, 48, 127
2, 189284, Note_on_c, 0, 72, 127
2, 189453, Note_off_c, 0, 48, 127
2, 189456, Note_on_c, 2, 50, 127
2, 189587, Note_off_c, 0, 72, 127
2, 189625, Note_off_c, 2, 50, 127
2, 189627, Note_on_c, 3, 51, 127
2, 189627, Note_on_c, 7, 79, 127
2, 189796, Note_off_c, 3, 51, 127
2, 189799, Note_on_c, 5, 53, 127
2, 189965, Note_off_c, 7, 79, 127
2, 189968, Note_off_c, 5, 53, 127
2, 189971, Note_on_c, 7, 55, 127
2, 189971, Note_on_c, 11, 70, 127
2, 190140, Note_off_c, 7, 55, 127
2, 190142, Note_on_c, 3, 51, 127
2, 190309, Note_off_c, 11, 70, 127
2, 190311, Note_off_c, 3, 51, 127
2, 190314, Note_on_c, 5, 53, 127
2, 190314, Note_on_c, 8, 68, 127
2, 190483, Note_off_c, 8, 68, 127
2, 190485, Note_on_c, 7, 67, 127
2, 190626, Note_off_c, 5, 53, 127
2, 190654, Note_off_c, 7, 67, 127
2, 190657, Note_on_c, 8, 56, 127
2, 190657, Note_on_c, 8, 68, 127
2, 190826, Note_off_c, 8, 68, 127
2, 190829, Note_on_c, 5, 77, 127
2, 190969, Note_off_c, 8, 56, 127
2, 190998, Note_off_c, 5, 77, 127
2, 191000, Note_on_c, 11, 58, 127
2, 191000, Note_on_c, 3, 75, 127
2, 191169, Note_off_c, 3, 75, 127
2, 191172, Note_on_c, 2, 74, 127
2, 191338, Note_off_c, 11, 58, 127
2, 191341, Note_off_c, 2, 74, 127
2, 191343, Note_on_c, 2, 50, 127
2, 191343, Note_on_c, 0, 72, 127
2, 191512, Note_off_c, 0, 72, 127
2, 191515, Note_on_c, 11, 70, 127
2, 191681, Note_off_c, 2, 50, 127
2, 191684, Note_off_c, 11, 70, 127
2, 191687, Note_on_c, 3, 51, 127
2, 191687, Note_on_c, 8, 80, 127
2, 191856, Note_off_c, 8, 80, 127
2, 191858, Note_on_c, 5, 77, 127
2, 192008, Note_off_c, 3, 51, 127
2, 192027, Note_off_c, 5, 77, 127
2, 192030, Note_on_c, 8, 56, 127
2, 192030, Note_on_c, 7, 79, 127
2, 192199, Note_off_c, 7, 79, 127
2, 192201, Note_on_c, 3, 75, 127
2, 192351, Note_off_c, 8, 56, 127
2, 192370, Note_off_c, 3, 75, 127
2, 192373, Note_on_c, 11, 58, 127
2, 192373, Note_on_c, 7, 79, 127
2, 192542, Note_off_c, 7, 79, 127
2, 192545, Note_on_c, 5, 77, 127
2, 192711, Note_off_c, 11, 58, 127
2, 192714, Note_off_c, 5, 77, 127
2, 192716, Note_on_c, 11, 46, 127
2, 192716, Note_on_c, 3, 75, 127
2, 192885, Note_off_c, 3, 75, 127
2, 192888, Note_on_c, 2, 74, 127
2, 193054, Note_off_c, 11, 46, 127
2, 193057, Note_off_c, 2, 74, 127
2, 193059, Note_on_c, 3, 51, 127
2, 193059, Note_on_c, 3, 75, 127
2, 193228, Note_off_c, 3, 75, 127
2, 193231, Note_on_c, 2, 74, 127
2, 193397, Note_off_c, 3, 51, 127
2, 193400, Note_off_c, 2, 74, 127
2, 193403, Note_on_c, 11, 46, 127
2, 193403, Note_on_c, 3, 75, 127
2, 193741, Note_off_c, 11, 46, 127
2, 193746, Note_on_c, 3, 39, 127
2, 194258, Note_off_c, 3, 75, 127
2, 194430, Note_on_c, 3, 51, 127
2, 194430, Note_on_c, 7, 79, 127
2, 194433, Note_off_c, 3, 39, 127
2, 194599, Note_off_c, 7, 79, 127
2, 194602, Note_on_c, 8, 80, 127
2, 194768, Note_off_c, 3, 51, 127
2, 194771, Note_off_c, 8, 80, 127
2, 194773, Note_on_c, 7, 79, 127
2, 194773, Note_on_c, 5, 53, 127
2, 194942, Note_off_c, 7, 79, 127
2, 194945, Note_on_c, 5, 77, 127
2, 195111, Note_off_c, 5, 53, 127
2, 195114, Note_off_c, 5, 77, 127
2, 195116, Note_on_c, 3, 75, 127
2, 195116, Note_on_c, 7, 55, 127
2, 195285, Note_off_c, 3, 75, 127
2, 195288, Note_on_c, 2, 74, 127
2, 195437, Note_off_c, 7, 55, 127
2, 195457, Note_off_c, 2, 74, 127
2, 195460, Note_on_c, 0, 72, 127
2, 195460, Note_on_c, 3, 51, 127
2, 195629, Note_off_c, 0, 72, 127
2, 195631, Note_on_c, 11, 70, 127
2, 195781, Note_off_c, 3, 51, 127
2, 195800, Note_off_c, 11, 70, 127
2, 195803, Note_on_c, 5, 53, 127
2, 195803, Note_on_c, 10, 69, 127
2, 195972, Note_off_c, 10, 69, 127
2, 195972, Note_off_c, 5, 53, 127
2, 195974, Note_on_c, 7, 55, 127
2, 195974, Note_on_c, 11, 70, 127
2, 196143, Note_off_c, 11, 70, 127
2, 196143, Note_off_c, 7, 55, 127
2, 196146, Note_on_c, 10, 57, 127
2, 196146, Note_on_c, 0, 72, 127
2, 196315, Note_off_c, 0, 72, 127
2, 196315, Note_off_c, 10, 57, 127
2, 196318, Note_on_c, 11, 58, 127
2, 196318, Note_on_c, 10, 69, 127
2, 196487, Note_off_c, 10, 69, 127
2, 196487, Note_off_c, 11, 58, 127
2, 196489, Note_on_c, 0, 60, 127
2, 196489, Note_on_c, 5, 65, 127
2, 196658, Note_off_c, 0, 60, 127
2, 196661, Note_on_c, 2, 62, 127
2, 196775, Note_off_c, 5, 65, 127
2, 196830, Note_off_c, 2, 62, 127
2, 196832, Note_on_c, 3, 63, 127
2, 196832, Note_on_c, 5, 77, 127
2, 197001, Note_off_c, 3, 63, 127
2, 197004, Note_on_c, 0, 60, 127
2, 197173, Note_off_c, 0, 60, 127
2, 197176, Note_on_c, 2, 62, 127
2, 197509, Note_off_c, 5, 77, 127
2, 197514, Note_off_c, 2, 62, 127
2, 197517, Note_on_c, 3, 63, 127
2, 197517, Note_on_c, 3, 75, 127
2, 197686, Note_off_c, 3, 75, 127
2, 197688, Note_on_c, 2, 74, 127
2, 197855, Note_off_c, 3, 63, 127
2, 197857, Note_off_c, 2, 74, 127
2, 197860, Note_on_c, 0, 72, 127
2, 197860, Note_on_c, 5, 65, 127
2, 198029, Note_off_c, 0, 72, 127
2, 198031, Note_on_c, 2, 74, 127
2, 198181, Note_off_c, 5, 65, 127
2, 198200, Note_off_c, 2, 74, 127
2, 198203, Note_on_c, 5, 53, 127
2, 198203, Note_on_c, 3, 75, 127
2, 198372, Note_off_c, 3, 75, 127
2, 198375, Note_on_c, 0, 72, 127
2, 198524, Note_off_c, 5, 53, 127
2, 198544, Note_off_c, 0, 72, 127
2, 198546, Note_on_c, 11, 58, 127
2, 198546, Note_on_c, 3, 75, 127
2, 198715, Note_off_c, 3, 75, 127
2, 198718, Note_on_c, 2, 74, 127
2, 198887, Note_off_c, 2, 74, 127
2, 198889, Note_on_c, 0, 72, 127
2, 199045, Note_off_c, 11, 58, 127
2, 199058, Note_off_c, 0, 72, 127
2, 199061, Note_on_c, 10, 57, 127
2, 199061, Note_on_c, 11, 70, 127
2, 199230, Note_off_c, 11, 70, 127
2, 199230, Note_off_c, 10, 57, 127
2, 199233, Note_on_c, 7, 55, 127
2, 199233, Note_on_c, 11, 82, 127
2, 199402, Note_off_c, 7, 55, 127
2, 199404, Note_on_c, 5, 53, 127
2, 199573, Note_off_c, 5, 53, 127
2, 199576, Note_on_c, 3, 51, 127
2, 199745, Note_off_c, 3, 51, 127
2, 199747, Note_on_c, 2, 50, 127
2, 199916, Note_off_c, 2, 50, 127
2, 199919, Note_on_c, 0, 48, 127
2, 200232, Note_off_c, 11, 82, 127
2, 200257, Note_off_c, 0, 48, 127
2, 200260, Note_on_c, 10, 81, 127
2, 200260, Note_on_c, 2, 50, 127
2, 200429, Note_off_c, 10, 81, 127
2, 200432, Note_on_c, 11, 82, 127
2, 200598, Note_off_c, 2, 50, 127
2, 200601, Note_off_c, 11, 82, 127
2, 200603, Note_on_c, 3, 51, 127
2, 200603, Note_on_c, 0, 84, 127
2, 200772, Note_off_c, 0, 84, 127
2, 200775, Note_on_c, 11, 82, 127
2, 200924, Note_off_c, 3, 51, 127
2, 200944, Note_off_c, 11, 82, 127
2, 200946, Note_on_c, 10, 81, 127
2, 200946, Note_on_c, 0, 48, 127
2, 201115, Note_off_c, 10, 81, 127
2, 201118, Note_on_c, 7, 79, 127
2, 201267, Note_off_c, 0, 48, 127
2, 201287, Note_off_c, 7, 79, 127
2, 201290, Note_on_c, 2, 50, 127
2, 201290, Note_on_c, 6, 78, 127
2, 201459, Note_off_c, 6, 78, 127
2, 201461, Note_on_c, 7, 79, 127
2, 201628, Note_off_c, 2, 50, 127
2, 201630, Note_off_c, 7, 79, 127
2, 201633, Note_on_c, 4, 52, 127
2, 201633, Note_on_c, 10, 81, 127
2, 201802, Note_off_c, 10, 81, 127
2, 201804, Note_on_c, 6, 78, 127
2, 201971, Note_off_c, 4, 52, 127
2, 201973, Note_off_c, 6, 78, 127
2, 201976, Note_on_c, 2, 74, 127
2, 201976, Note_on_c, 6, 54, 127
2, 202145, Note_off_c, 2, 74, 127
2, 202148, Note_on_c, 6, 78, 127
2, 202297, Note_off_c, 6, 54, 127
2, 202317, Note_off_c, 6, 78, 127
2, 202319, Note_on_c, 10, 81, 127
2, 202319, Note_on_c, 2, 50, 127
2, 202488, Note_off_c, 10, 81, 127
2, 202491, Note_on_c, 0, 84, 127
2, 202640, Note_off_c, 2, 50, 127
2, 202660, Note_off_c, 0, 84, 127
2, 202662, Note_on_c, 11, 82, 127
2, 202662, Note_on_c, 7, 55, 127
2, 202745, Note_off_c, 11, 82, 127
2, 202748, Note_on_c, 10, 81, 127
2, 202831, Note_off_c, 10, 81, 127
2, 202834, Note_on_c, 11, 82, 127
2, 202983, Note_off_c, 7, 55, 127
2, 203006, Note_on_c, 0, 48, 127
2, 203172, Note_off_c, 11, 82, 127
2, 203177, Note_on_c, 10, 81, 127
2, 203327, Note_off_c, 0, 48, 127
2, 203346, Note_off_c, 10, 81, 127
2, 203349, Note_on_c, 2, 50, 127
2, 203349, Note_on_c, 11, 82, 127
2, 203432, Note_off_c, 11, 82, 127
2, 203435, Note_on_c, 10, 81, 127
2, 203518, Note_off_c, 10, 81, 127
2, 203520, Note_on_c, 11, 82, 127
2, 203603, Note_off_c, 11, 82, 127
2, 203606, Note_on_c, 10, 81, 127
2, 203670, Note_off_c, 2, 50, 127
2, 203689, Note_off_c, 10, 81, 127
2, 203692, Note_on_c, 2, 38, 127
2, 203692, Note_on_c, 11, 82, 127
2, 203775, Note_off_c, 11, 82, 127
2, 203778, Note_on_c, 10, 81, 127
2, 203861, Note_off_c, 10, 81, 127
2, 203864, Note_on_c, 7, 79, 127
2, 204013, Note_off_c, 2, 38, 127
2, 204033, Note_off_c, 7, 79, 127
2, 204035, Note_on_c, 7, 43, 127
2, 204035, Note_on_c, 7, 79, 127
2, 204373, Note_off_c, 7, 43, 127
2, 204376, Note_on_c, 7, 55, 127
2, 204545, Note_off_c, 7, 55, 127
2, 204548, Note_on_c, 10, 57, 127
2, 204717, Note_off_c, 10, 57, 127
2, 204719, Note_on_c, 12, 59, 127
2, 204888, Note_off_c, 12, 59, 127
2, 204891, Note_on_c, 0, 60, 127
2, 205060, Note_off_c, 0, 60, 127
2, 205060, Note_off_c, 7, 79, 127
2, 205063, Note_on_c, 2, 62, 127
2, 205232, Note_off_c, 2, 62, 127
2, 205234, Note_on_c, 12, 59, 127
2, 205403, Note_off_c, 12, 59, 127
2, 205406, Note_on_c, 0, 60, 127
2, 205406, Note_on_c, 4, 76, 127
2, 205575, Note_off_c, 4, 76, 127
2, 205577, Note_on_c, 2, 74, 127
2, 205744, Note_off_c, 0, 60, 127
2, 205746, Note_off_c, 2, 74, 127
2, 205749, Note_on_c, 4, 76, 127
2, 205749, Note_on_c, 0, 48, 127
2, 205918, Note_off_c, 4, 76, 127
2, 205921, Note_on_c, 5, 77, 127
2, 206087, Note_off_c, 0, 48, 127
2, 206090, Note_off_c, 5, 77, 127
2, 206092, Note_on_c, 7, 79, 127
2, 206092, Note_on_c, 0, 48, 127
2, 206261, Note_off_c, 7, 79, 127
2, 206264, Note_on_c, 8, 80, 127
2, 206413, Note_off_c, 0, 48, 127
2, 206433, Note_off_c, 8, 80, 127
2, 206435, Note_on_c, 0, 60, 127
2, 206435, Note_on_c, 11, 82, 127
2, 206604, Note_off_c, 11, 82, 127
2, 206607, Note_on_c, 7, 79, 127
2, 206756, Note_off_c, 0, 60, 127
2, 206776, Note_off_c, 7, 79, 127
2, 206779, Note_on_c, 5, 53, 127
2, 206779, Note_on_c, 8, 80, 127
2, 206948, Note_off_c, 5, 53, 127
2, 206950, Note_on_c, 4, 52, 127
2, 207065, Note_off_c, 8, 80, 127
2, 207119, Note_off_c, 4, 52, 127
2, 207122, Note_on_c, 5, 53, 127
2, 207122, Note_on_c, 0, 72, 127
2, 207291, Note_off_c, 5, 53, 127
2, 207293, Note_on_c, 7, 55, 127
2, 207462, Note_off_c, 7, 55, 127
2, 207465, Note_on_c, 8, 56, 127
2, 207621, Note_off_c, 0, 72, 127
2, 207634, Note_off_c, 8, 56, 127
2, 207637, Note_on_c, 11, 58, 127
2, 207637, Note_on_c, 2, 74, 127
2, 207806, Note_off_c, 2, 74, 127
2, 207806, Note_off_c, 11, 58, 127
2, 207808, Note_on_c, 0, 60, 127
2, 207808, Note_on_c, 3, 75, 127
2, 207977, Note_off_c, 3, 75, 127
2, 207977, Note_off_c, 0, 60, 127
2, 207980, Note_on_c, 0, 72, 127
2, 207980, Note_on_c, 8, 56, 127
2, 208149, Note_off_c, 8, 56, 127
2, 208149, Note_off_c, 0, 72, 127
2, 208151, Note_on_c, 11, 58, 127
2, 208151, Note_on_c, 2, 74, 127
2, 208320, Note_off_c, 2, 74, 127
2, 208323, Note_on_c, 0, 72, 127
2, 208489, Note_off_c, 11, 58, 127
2, 208492, Note_off_c, 0, 72, 127
2, 208495, Note_on_c, 2, 74, 127
2, 208495, Note_on_c, 11, 46, 127
2, 208664, Note_off_c, 2, 74, 127
2, 208666, Note_on_c, 3, 75, 127
2, 208833, Note_off_c, 11, 46, 127
2, 208835, Note_off_c, 3, 75, 127
2, 208838, Note_on_c, 5, 77, 127
2, 208838, Note_on_c, 11, 46, 127
2, 209007, Note_off_c, 5, 77, 127
2, 209009, Note_on_c, 7, 79, 127
2, 209159, Note_off_c, 11, 46, 127
2, 209178, Note_off_c, 7, 79, 127
2, 209181, Note_on_c, 8, 80, 127
2, 209181, Note_on_c, 11, 58, 127
2, 209350, Note_off_c, 8, 80, 127
2, 209353, Note_on_c, 5, 77, 127
2, 209502, Note_off_c, 11, 58, 127
2, 209522, Note_off_c, 5, 77, 127
2, 209524, Note_on_c, 3, 51, 127
2, 209524, Note_on_c, 7, 79, 127
2, 209693, Note_off_c, 3, 51, 127
2, 209696, Note_on_c, 2, 50, 127
2, 209810, Note_off_c, 7, 79, 127
2, 209865, Note_off_c, 2, 50, 127
2, 209867, Note_on_c, 3, 51, 127
2, 209867, Note_on_c, 12, 71, 127
2, 210036, Note_off_c, 3, 51, 127
2, 210039, Note_on_c, 5, 53, 127
2, 210208, Note_off_c, 5, 53, 127
2, 210211, Note_on_c, 7, 55, 127
2, 210366, Note_off_c, 12, 71, 127
2, 210380, Note_off_c, 7, 55, 127
2, 210382, Note_on_c, 8, 56, 127
2, 210382, Note_on_c, 0, 72, 127
2, 210551, Note_off_c, 0, 72, 127
2, 210551, Note_off_c, 8, 56, 127
2, 210554, Note_on_c, 11, 58, 127
2, 210554, Note_on_c, 2, 74, 127
2, 210723, Note_off_c, 2, 74, 127
2, 210723, Note_off_c, 11, 58, 127
2, 210725, Note_on_c, 7, 55, 127
2, 210725, Note_on_c, 12, 71, 127
2, 210894, Note_off_c, 12, 71, 127
2, 210894, Note_off_c, 7, 55, 127
2, 210897, Note_on_c, 8, 56, 127
2, 210897, Note_on_c, 0, 72, 127
2, 211069, Note_on_c, 7, 79, 127
2, 211235, Note_off_c, 0, 72, 127
2, 211235, Note_off_c, 8, 56, 127
2, 211238, Note_off_c, 7, 79, 127
2, 211240, Note_on_c, 5, 77, 127
2, 211240, Note_on_c, 7, 55, 127
2, 211409, Note_off_c, 5, 77, 127
2, 211412, Note_on_c, 3, 75, 127
2, 211578, Note_off_c, 7, 55, 127
2, 211581, Note_off_c, 3, 75, 127
2, 211583, Note_on_c, 5, 77, 127
2, 211583, Note_on_c, 8, 56, 127
2, 211755, Note_on_c, 2, 74, 127
2, 211778, Note_off_c, 5, 77, 127
2, 211904, Note_off_c, 8, 56, 127
2, 211924, Note_off_c, 2, 74, 127
2, 211927, Note_on_c, 3, 75, 127
2, 211927, Note_on_c, 5, 53, 127
2, 212098, Note_on_c, 0, 72, 127
2, 212122, Note_off_c, 3, 75, 127
2, 212248, Note_off_c, 5, 53, 127
2, 212267, Note_off_c, 0, 72, 127
2, 212270, Note_on_c, 12, 71, 127
2, 212270, Note_on_c, 7, 55, 127
2, 212441, Note_on_c, 5, 77, 127
2, 212608, Note_off_c, 7, 55, 127
2, 212608, Note_off_c, 12, 71, 127
2, 212610, Note_off_c, 5, 77, 127
2, 212613, Note_on_c, 3, 75, 127
2, 212613, Note_on_c, 5, 53, 127
2, 212782, Note_off_c, 3, 75, 127
2, 212785, Note_on_c, 2, 74, 127
2, 212951, Note_off_c, 5, 53, 127
2, 212954, Note_off_c, 2, 74, 127
2, 212956, Note_on_c, 7, 55, 127
2, 212956, Note_on_c, 3, 75, 127
2, 213128, Note_on_c, 0, 72, 127
2, 213151, Note_off_c, 3, 75, 127
2, 213277, Note_off_c, 7, 55, 127
2, 213297, Note_off_c, 0, 72, 127
2, 213299, Note_on_c, 3, 51, 127
2, 213299, Note_on_c, 2, 74, 127
2, 213471, Note_on_c, 11, 70, 127
2, 213494, Note_off_c, 2, 74, 127
2, 213620, Note_off_c, 3, 51, 127
2, 213640, Note_off_c, 11, 70, 127
2, 213643, Note_on_c, 8, 68, 127
2, 213643, Note_on_c, 5, 53, 127
2, 213814, Note_on_c, 3, 75, 127
2, 213981, Note_off_c, 5, 53, 127
2, 213981, Note_off_c, 8, 68, 127
2, 213983, Note_off_c, 3, 75, 127
2, 213986, Note_on_c, 3, 51, 127
2, 213986, Note_on_c, 2, 74, 127
2, 214155, Note_off_c, 2, 74, 127
2, 214157, Note_on_c, 0, 72, 127
2, 214324, Note_off_c, 3, 51, 127
2, 214326, Note_off_c, 0, 72, 127
2, 214329, Note_on_c, 5, 53, 127
2, 214329, Note_on_c, 2, 74, 127
2, 214501, Note_on_c, 12, 71, 127
2, 214524, Note_off_c, 2, 74, 127
2, 214650, Note_off_c, 5, 53, 127
2, 214670, Note_off_c, 12, 71, 127
2, 214672, Note_on_c, 0, 72, 127
2, 214672, Note_on_c, 2, 50, 127
2, 214844, Note_on_c, 8, 68, 127
2, 214867, Note_off_c, 0, 72, 127
2, 214993, Note_off_c, 2, 50, 127
2, 215013, Note_off_c, 8, 68, 127
2, 215015, Note_on_c, 5, 65, 127
2, 215015, Note_on_c, 7, 55, 127
2, 215187, Note_on_c, 0, 72, 127
2, 215353, Note_off_c, 7, 55, 127
2, 215353, Note_off_c, 5, 65, 127
2, 215356, Note_off_c, 0, 72, 127
2, 215359, Note_on_c, 12, 71, 127
2, 215359, Note_on_c, 5, 53, 127
2, 215528, Note_off_c, 12, 71, 127
2, 215530, Note_on_c, 10, 69, 127
2, 215697, Note_off_c, 5, 53, 127
2, 215699, Note_off_c, 10, 69, 127
2, 215702, Note_on_c, 12, 71, 127
2, 215702, Note_on_c, 3, 51, 127
2, 215873, Note_on_c, 7, 67, 127
2, 215897, Note_off_c, 12, 71, 127
2, 216023, Note_off_c, 3, 51, 127
2, 216042, Note_off_c, 7, 67, 127
2, 216045, Note_on_c, 2, 50, 127
2, 216045, Note_on_c, 8, 68, 127
2, 216214, Note_off_c, 8, 68, 127
2, 216217, Note_on_c, 5, 65, 127
2, 216366, Note_off_c, 2, 50, 127
2, 216386, Note_off_c, 5, 65, 127
2, 216388, Note_on_c, 3, 63, 127
2, 216388, Note_on_c, 0, 48, 127
2, 216557, Note_off_c, 0, 48, 127
2, 216557, Note_off_c, 3, 63, 127
2, 216560, Note_on_c, 2, 62, 127
2, 216560, Note_on_c, 12, 47, 127
2, 216729, Note_off_c, 12, 47, 127
2, 216729, Note_off_c, 2, 62, 127
2, 216731, Note_on_c, 3, 63, 127
2, 216731, Note_on_c, 0, 48, 127
2, 216900, Note_off_c, 0, 48, 127
2, 216900, Note_off_c, 3, 63, 127
2, 216903, Note_on_c, 2, 50, 127
2, 216903, Note_on_c, 7, 67, 127
2, 217072, Note_off_c, 7, 67, 127
2, 217072, Note_off_c, 2, 50, 127
2, 217075, Note_on_c, 3, 51, 127
2, 217075, Note_on_c, 0, 72, 127
2, 217244, Note_off_c, 3, 51, 127
2, 217246, Note_on_c, 5, 53, 127
2, 217361, Note_off_c, 0, 72, 127
2, 217415, Note_off_c, 5, 53, 127
2, 217418, Note_on_c, 7, 55, 127
2, 217418, Note_on_c, 3, 63, 127
2, 217739, Note_off_c, 3, 63, 127
2, 217759, Note_off_c, 7, 55, 127
2, 217761, Note_on_c, 7, 55, 127
2, 217761, Note_on_c, 2, 62, 127
2, 217930, Note_off_c, 2, 62, 127
2, 217933, Note_on_c, 3, 63, 127
2, 218099, Note_off_c, 7, 55, 127
2, 218102, Note_off_c, 3, 63, 127
2, 218104, Note_on_c, 8, 44, 127
2, 218104, Note_on_c, 5, 65, 127
2, 218273, Note_off_c, 5, 65, 127
2, 218276, Note_on_c, 2, 74, 127
2, 218442, Note_off_c, 8, 44, 127
2, 218445, Note_off_c, 2, 74, 127
2, 218447, Note_on_c, 0, 72, 127
2, 218447, Note_on_c, 8, 44, 127
2, 218616, Note_off_c, 0, 72, 127
2, 218619, Note_on_c, 12, 71, 127
2, 218733, Note_off_c, 8, 44, 127
2, 218788, Note_off_c, 12, 71, 127
2, 218791, Note_on_c, 0, 60, 127
2, 218791, Note_on_c, 10, 69, 127
2, 218960, Note_off_c, 10, 69, 127
2, 218960, Note_off_c, 0, 60, 127
2, 218962, Note_on_c, 7, 55, 127
2, 218962, Note_on_c, 7, 67, 127
2, 219131, Note_off_c, 7, 67, 127
2, 219131, Note_off_c, 7, 55, 127
2, 219134, Note_on_c, 8, 56, 127
2, 219134, Note_on_c, 0, 72, 127
2, 219303, Note_off_c, 0, 72, 127
2, 219305, Note_on_c, 12, 71, 127
2, 219474, Note_off_c, 12, 71, 127
2, 219477, Note_on_c, 0, 72, 127
2, 219633, Note_off_c, 8, 56, 127
2, 219646, Note_off_c, 0, 72, 127
2, 219649, Note_on_c, 7, 55, 127
2, 219649, Note_on_c, 2, 74, 127
2, 219818, Note_off_c, 2, 74, 127
2, 219818, Note_off_c, 7, 55, 127
2, 219820, Note_on_c, 5, 53, 127
2, 219820, Note_on_c, 3, 75, 127
2, 219989, Note_off_c, 3, 75, 127
2, 219989, Note_off_c, 5, 53, 127
2, 219992, Note_on_c, 3, 51, 127
2, 219992, Note_on_c, 5, 77, 127
2, 220161, Note_off_c, 5, 77, 127
2, 220161, Note_off_c, 3, 51, 127
2, 220163, Note_on_c, 7, 79, 127
2, 220163, Note_on_c, 2, 50, 127
2, 220332, Note_off_c, 2, 50, 127
2, 220332, Note_off_c, 7, 79, 127
2, 220335, Note_on_c, 8, 80, 127
2, 220335, Note_on_c, 0, 48, 127
2, 220504, Note_off_c, 0, 48, 127
2, 220504, Note_off_c, 8, 80, 127
2, 220507, Note_on_c, 7, 79, 127
2, 220507, Note_on_c, 12, 47, 127
2, 220676, Note_off_c, 12, 47, 127
2, 220676, Note_off_c, 7, 79, 127
2, 220678, Note_on_c, 10, 45, 127
2, 220678, Note_on_c, 5, 77, 127
2, 220847, Note_off_c, 5, 77, 127
2, 220847, Note_off_c, 10, 45, 127
2, 220850, Note_on_c, 12, 47, 127
2, 220850, Note_on_c, 3, 75, 127
2, 221019, Note_off_c, 3, 75, 127
2, 221019, Note_off_c, 12, 47, 127
2, 221021, Note_on_c, 0, 48, 127
2, 221021, Note_on_c, 2, 74, 127
2, 221190, Note_off_c, 2, 74, 127
2, 221190, Note_off_c, 0, 48, 127
2, 221193, Note_on_c, 2, 50, 127
2, 221193, Note_on_c, 0, 72, 127
2, 221362, Note_off_c, 0, 72, 127
2, 221362, Note_off_c, 2, 50, 127
2, 221365, Note_on_c, 3, 51, 127
2, 221365, Note_on_c, 12, 71, 127
2, 221534, Note_off_c, 12, 71, 127
2, 221534, Note_off_c, 3, 51, 127
2, 221536, Note_on_c, 5, 53, 127
2, 221536, Note_on_c, 10, 69, 127
2, 221705, Note_off_c, 10, 69, 127
2, 221705, Note_off_c, 5, 53, 127
2, 221708, Note_on_c, 2, 50, 127
2, 221708, Note_on_c, 7, 67, 127
2, 221877, Note_off_c, 7, 67, 127
2, 221877, Note_off_c, 2, 50, 127
2, 221879, Note_on_c, 4, 52, 127
2, 221879, Note_on_c, 11, 70, 127
2, 222048, Note_off_c, 11, 70, 127
2, 222048, Note_off_c, 4, 52, 127
2, 222051, Note_on_c, 7, 67, 127
2, 222051, Note_on_c, 7, 55, 127
2, 222220, Note_off_c, 7, 55, 127
2, 222220, Note_off_c, 7, 67, 127
2, 222223, Note_on_c, 5, 53, 127
2, 222223, Note_on_c, 10, 69, 127
2, 222392, Note_off_c, 5, 53, 127
2, 222394, Note_on_c, 3, 51, 127
2, 222563, Note_off_c, 3, 51, 127
2, 222566, Note_on_c, 2, 50, 127
2, 222652, Note_off_c, 10, 69, 127
2, 222735, Note_off_c, 2, 50, 127
2, 222737, Note_on_c, 0, 48, 127
2, 222737, Note_on_c, 0, 72, 127
2, 222906, Note_off_c, 0, 72, 127
2, 222906, Note_off_c, 0, 48, 127
2, 222909, Note_on_c, 12, 47, 127
2, 222909, Note_on_c, 2, 74, 127
2, 223078, Note_off_c, 2, 74, 127
2, 223078, Note_off_c, 12, 47, 127
2, 223081, Note_on_c, 10, 45, 127
2, 223081, Note_on_c, 3, 75, 127
2, 223250, Note_off_c, 3, 75, 127
2, 223250, Note_off_c, 10, 45, 127
2, 223252, Note_on_c, 5, 77, 127
2, 223252, Note_on_c, 12, 47, 127
2, 223421, Note_off_c, 12, 47, 127
2, 223421, Note_off_c, 5, 77, 127
2, 223424, Note_on_c, 2, 74, 127
2, 223424, Note_on_c, 2, 50, 127
2, 223593, Note_off_c, 2, 50, 127
2, 223593, Note_off_c, 2, 74, 127
2, 223595, Note_on_c, 0, 48, 127
2, 223595, Note_on_c, 3, 75, 127
2, 223764, Note_off_c, 0, 48, 127
2, 223767, Note_on_c, 11, 46, 127
2, 223936, Note_off_c, 11, 46, 127
2, 223939, Note_on_c, 8, 44, 127
2, 224024, Note_off_c, 3, 75, 127
2, 224112, Note_off_c, 8, 44, 127
2, 224115, Note_on_c, 3, 75, 127
2, 224115, Note_on_c, 7, 43, 127
2, 224286, Note_off_c, 7, 43, 127
2, 224286, Note_off_c, 3, 75, 127
2, 224291, Note_on_c, 5, 77, 127
2, 224291, Note_on_c, 5, 41, 127
2, 224462, Note_off_c, 5, 41, 127
2, 224462, Note_off_c, 5, 77, 127
2, 224467, Note_on_c, 7, 79, 127
2, 224467, Note_on_c, 3, 39, 127
2, 224638, Note_off_c, 3, 39, 127
2, 224638, Note_off_c, 7, 79, 127
2, 224643, Note_on_c, 5, 41, 127
2, 224643, Note_on_c, 8, 80, 127
2, 224819, Note_off_c, 8, 80, 127
2, 224819, Note_off_c, 5, 41, 127
2, 224823, Note_on_c, 2, 38, 127
2, 224823, Note_on_c, 5, 77, 127
2, 224999, Note_off_c, 5, 77, 127
2, 224999, Note_off_c, 2, 38, 127
2, 225003, Note_on_c, 3, 39, 127
2, 225003, Note_on_c, 7, 79, 127
2, 225179, Note_off_c, 7, 79, 127
2, 225179, Note_off_c, 3, 39, 127
2, 225184, Note_on_c, 0, 36, 127
2, 225184, Note_on_c, 0, 84, 127
2, 225360, Note_off_c, 0, 84, 127
2, 225360, Note_off_c, 0, 36, 127
2, 225364, Note_on_c, 7, 43, 127
2, 225364, Note_on_c, 5, 77, 127
2, 225548, Note_off_c, 5, 77, 127
2, 225553, Note_on_c, 3, 75, 127
2, 225731, Note_off_c, 7, 43, 127
2, 225737, Note_off_c, 3, 75, 127
2, 225745, Note_on_c, 7, 43, 127
2, 225745, Note_on_c, 2, 74, 127
2, 225945, Note_off_c, 2, 74, 127
2, 225956, Note_on_c, 0, 72, 127
2, 226203, Note_off_c, 7, 43, 127
2, 226207, Note_off_c, 0, 72, 127
2, 226221, Note_on_c, 0, 72, 127
2, 226221, Note_on_c, 0, 36, 127
2, 228121, Note_off_c, 0, 36, 127
2, 228121, Note_off_c, 0, 72, 127
2, 229107, Note_on_c, 7, 67, 127
2, 229107, Note_on_c, 0, 48, 127
2, 229283, Note_off_c, 7, 67, 127
2, 229286, Note_on_c, 3, 75, 127
2, 229461, Note_off_c, 0, 48, 127
2, 229462, Note_off_c, 3, 75, 127
2, 229464, Note_on_c, 2, 74, 127
2, 229464, Note_on_c, 2, 50, 127
2, 229640, Note_off_c, 2, 74, 127
2, 229642, Note_on_c, 0, 72, 127
2, 229818, Note_off_c, 0, 72, 127
2, 229818, Note_off_c, 2, 50, 127
2, 229820, Note_on_c, 12, 71, 127
2, 229820, Note_on_c, 3, 51, 127
2, 229996, Note_off_c, 12, 71, 127
2, 229998, Note_on_c, 0, 72, 127
2, 230163, Note_off_c, 0, 72, 127
2, 230163, Note_off_c, 3, 51, 127
2, 230177, Note_on_c, 8, 80, 127
2, 230177, Note_on_c, 5, 53, 127
2, 230353, Note_off_c, 5, 53, 127
2, 230355, Note_on_c, 5, 65, 127
2, 230531, Note_off_c, 5, 65, 127
2, 230531, Note_off_c, 8, 80, 127
2, 230533, Note_on_c, 7, 79, 127
2, 230533, Note_on_c, 3, 63, 127
2, 230709, Note_off_c, 3, 63, 127
2, 230711, Note_on_c, 2, 62, 127
2, 230887, Note_off_c, 2, 62, 127
2, 230887, Note_off_c, 7, 79, 127
2, 230889, Note_on_c, 5, 77, 127
2, 230889, Note_on_c, 0, 60, 127
2, 231065, Note_off_c, 0, 60, 127
2, 231068, Note_on_c, 12, 59, 127
2, 231232, Note_off_c, 5, 77, 127
2, 231233, Note_off_c, 12, 59, 127
2, 231246, Note_on_c, 3, 75, 127
2, 231246, Note_on_c, 0, 60, 127
2, 231422, Note_off_c, 3, 75, 127
2, 231424, Note_on_c, 2, 74, 127
2, 231600, Note_off_c, 2, 74, 127
2, 231600, Note_off_c, 0, 60, 127
2, 231602, Note_on_c, 5, 77, 127
2, 231602, Note_on_c, 8, 56, 127
2, 231778, Note_off_c, 5, 77, 127
2, 231780, Note_on_c, 3, 75, 127
2, 231956, Note_off_c, 3, 75, 127
2, 231956, Note_off_c, 8, 56, 127
2, 231959, Note_on_c, 2, 74, 127
2, 231959, Note_on_c, 5, 53, 127
2, 232135, Note_off_c, 2, 74, 127
2, 232137, Note_on_c, 0, 72, 127
2, 232302, Note_off_c, 0, 72, 127
2, 232302, Note_off_c, 5, 53, 127
2, 232315, Note_on_c, 12, 71, 127
2, 232315, Note_on_c, 7, 55, 127
2, 232491, Note_off_c, 12, 71, 127
2, 232493, Note_on_c, 10, 69, 127
2, 232669, Note_off_c, 10, 69, 127
2, 232669, Note_off_c, 7, 55, 127
2, 232671, Note_on_c, 0, 72, 127
2, 232671, Note_on_c, 10, 57, 127
2, 232847, Note_off_c, 0, 72, 127
2, 232850, Note_on_c, 12, 71, 127
2, 233025, Note_off_c, 10, 57, 127
2, 233026, Note_off_c, 12, 71, 127
2, 233028, Note_on_c, 10, 69, 127
2, 233028, Note_on_c, 12, 59, 127
2, 233204, Note_off_c, 10, 69, 127
2, 233206, Note_on_c, 7, 67, 127
2, 233371, Note_off_c, 7, 67, 127
2, 233371, Note_off_c, 12, 59, 127
2, 233384, Note_on_c, 3, 75, 127
2, 233384, Note_on_c, 0, 60, 127
2, 233560, Note_off_c, 3, 75, 127
2, 233562, Note_on_c, 2, 74, 127
2, 233738, Note_off_c, 2, 74, 127
2, 233741, Note_on_c, 0, 72, 127
2, 233903, Note_off_c, 0, 60, 127
2, 233917, Note_off_c, 0, 72, 127
2, 233919, Note_on_c, 3, 75, 127
2, 234095, Note_off_c, 3, 75, 127
2, 234097, Note_on_c, 8, 68, 127
2, 234097, Note_on_c, 0, 48, 127
2, 234273, Note_off_c, 8, 68, 127
2, 234275, Note_on_c, 7, 67, 127
2, 234440, Note_off_c, 7, 67, 127
2, 234451, Note_off_c, 0, 48, 127
2, 234453, Note_on_c, 5, 65, 127
2, 234453, Note_on_c, 2, 50, 127
2, 234629, Note_off_c, 5, 65, 127
2, 234632, Note_on_c, 5, 77, 127
2, 234808, Note_off_c, 5, 77, 127
2, 234810, Note_on_c, 3, 75, 127
2, 234972, Note_off_c, 2, 50, 127
2, 234986, Note_off_c, 3, 75, 127
2, 234988, Note_on_c, 2, 74, 127
2, 235164, Note_off_c, 2, 74, 127
2, 235166, Note_on_c, 0, 72, 127
2, 235166, Note_on_c, 2, 62, 127
2, 235342, Note_off_c, 0, 72, 127
2, 235344, Note_on_c, 11, 70, 127
2, 235509, Note_off_c, 11, 70, 127
2, 235520, Note_off_c, 2, 62, 127
2, 235523, Note_on_c, 7, 79, 127
2, 235523, Note_on_c, 3, 63, 127
2, 235868, Note_off_c, 7, 79, 127
2, 235879, Note_off_c, 3, 63, 127
2, 235881, Note_on_c, 3, 75, 127
2, 235881, Note_on_c, 8, 56, 127
2, 236226, Note_off_c, 3, 75, 127
2, 236237, Note_off_c, 8, 56, 127
2, 236240, Note_on_c, 3, 75, 127
2, 236240, Note_on_c, 11, 58, 127
2, 236328, Note_off_c, 3, 75, 127
2, 236330, Note_on_c, 2, 74, 127
2, 236418, Note_off_c, 2, 74, 127
2, 236420, Note_on_c, 0, 72, 127
2, 236508, Note_off_c, 0, 72, 127
2, 236510, Note_on_c, 2, 74, 127
2, 236587, Note_off_c, 11, 58, 127
2, 236598, Note_off_c, 2, 74, 127
2, 236601, Note_on_c, 3, 75, 127
2, 236601, Note_on_c, 3, 51, 127
2, 236957, Note_off_c, 3, 51, 127
2, 236959, Note_on_c, 11, 46, 127
2, 237309, Note_off_c, 3, 75, 127
2, 237315, Note_off_c, 11, 46, 127
2, 237318, Note_on_c, 3, 39, 127
2, 237663, Note_off_c, 3, 39, 127
2, 237676, Note_on_c, 11, 70, 127
2, 237676, Note_on_c, 3, 51, 127
2, 237852, Note_off_c, 11, 70, 127
2, 237855, Note_on_c, 7, 79, 127
2, 238030, Note_off_c, 3, 51, 127
2, 238031, Note_off_c, 7, 79, 127
2, 238033, Note_on_c, 5, 77, 127
2, 238033, Note_on_c, 5, 53, 127
2, 238209, Note_off_c, 5, 77, 127
2, 238211, Note_on_c, 3, 75, 127
2, 238387, Note_off_c, 3, 75, 127
2, 238387, Note_off_c, 5, 53, 127
2, 238389, Note_on_c, 2, 74, 127
2, 238389, Note_on_c, 7, 55, 127
2, 238565, Note_off_c, 2, 74, 127
2, 238567, Note_on_c, 3, 75, 127
2, 238732, Note_off_c, 3, 75, 127
2, 238732, Note_off_c, 7, 55, 127
2, 238746, Note_on_c, 11, 70, 127
2, 238746, Note_on_c, 2, 50, 127
2, 238922, Note_off_c, 11, 70, 127
2, 238924, Note_on_c, 8, 80, 127
2, 239100, Note_off_c, 8, 80, 127
2, 239102, Note_on_c, 7, 79, 127
2, 239278, Note_off_c, 7, 79, 127
2, 239280, Note_on_c, 5, 77, 127
2, 239452, Note_off_c, 2, 50, 127
2, 239458, Note_off_c, 5, 77, 127
2, 239461, Note_on_c, 3, 75, 127
2, 239637, Note_off_c, 3, 75, 127
2, 239639, Note_on_c, 5, 77, 127
2, 239804, Note_off_c, 5, 77, 127
2, 239817, Note_on_c, 11, 70, 127
2, 239817, Note_on_c, 3, 51, 127
2, 239993, Note_off_c, 11, 70, 127
2, 239995, Note_on_c, 11, 82, 127
2, 240171, Note_off_c, 11, 82, 127
2, 240171, Note_off_c, 3, 51, 127
2, 240173, Note_on_c, 8, 80, 127
2, 240173, Note_on_c, 0, 48, 127
2, 240349, Note_off_c, 8, 80, 127
2, 240352, Note_on_c, 7, 79, 127
2, 240527, Note_off_c, 0, 48, 127
2, 240528, Note_off_c, 7, 79, 127
2, 240530, Note_on_c, 5, 77, 127
2, 240530, Note_on_c, 8, 44, 127
2, 240706, Note_off_c, 5, 77, 127
2, 240708, Note_on_c, 7, 79, 127
2, 240873, Note_off_c, 7, 79, 127
2, 240873, Note_off_c, 8, 44, 127
2, 240886, Note_on_c, 3, 75, 127
2, 240886, Note_on_c, 11, 46, 127
2, 241062, Note_off_c, 11, 46, 127
2, 241062, Note_off_c, 3, 75, 127
2, 241064, Note_on_c, 2, 74, 127
2, 241064, Note_on_c, 11, 58, 127
2, 241240, Note_off_c, 11, 58, 127
2, 241240, Note_off_c, 2, 74, 127
2, 241243, Note_on_c, 0, 72, 127
2, 241243, Note_on_c, 8, 56, 127
2, 241419, Note_off_c, 8, 56, 127
2, 241419, Note_off_c, 0, 72, 127
2, 241421, Note_on_c, 2, 74, 127
2, 241421, Note_on_c, 7, 55, 127
2, 241597, Note_off_c, 7, 55, 127
2, 241597, Note_off_c, 2, 74, 127
2, 241599, Note_on_c, 11, 70, 127
2, 241599, Note_on_c, 5, 53, 127
2, 241775, Note_off_c, 5, 53, 127
2, 241777, Note_on_c, 7, 55, 127
2, 241915, Note_off_c, 11, 70, 127
2, 241955, Note_off_c, 7, 55, 127
2, 241958, Note_on_c, 7, 79, 127
2, 241958, Note_on_c, 4, 52, 127
2, 242134, Note_off_c, 7, 79, 127
2, 242136, Note_on_c, 5, 77, 127
2, 242312, Note_off_c, 5, 77, 127
2, 242314, Note_on_c, 4, 76, 127
2, 242490, Note_off_c, 4, 76, 127
2, 242492, Note_on_c, 7, 79, 127
2, 242664, Note_off_c, 4, 52, 127
2, 242670, Note_off_c, 7, 79, 127
2, 242673, Note_on_c, 1, 73, 127
2, 242849, Note_off_c, 1, 73, 127
2, 242851, Note_on_c, 0, 72, 127
2, 243016, Note_off_c, 0, 72, 127
2, 243029, Note_on_c, 11, 70, 127
2, 243029, Note_on_c, 0, 48, 127
2, 243205, Note_off_c, 11, 70, 127
2, 243207, Note_on_c, 7, 79, 127
2, 243383, Note_off_c, 7, 79, 127
2, 243383, Note_off_c, 0, 48, 127
2, 243385, Note_on_c, 5, 77, 127
2, 243385, Note_on_c, 2, 50, 127
2, 243561, Note_off_c, 5, 77, 127
2, 243564, Note_on_c, 4, 76, 127
2, 243739, Note_off_c, 2, 50, 127
2, 243740, Note_off_c, 4, 76, 127
2, 243742, Note_on_c, 2, 74, 127
2, 243742, Note_on_c, 4, 52, 127
2, 243918, Note_off_c, 2, 74, 127
2, 243920, Note_on_c, 0, 72, 127
2, 244085, Note_off_c, 0, 72, 127
2, 244085, Note_off_c, 4, 52, 127
2, 244098, Note_on_c, 5, 77, 127
2, 244098, Note_on_c, 5, 53, 127
2, 244186, Note_off_c, 5, 77, 127
2, 244188, Note_on_c, 7, 79, 127
2, 244276, Note_off_c, 7, 79, 127
2, 244279, Note_on_c, 8, 80, 127
2, 244454, Note_off_c, 5, 53, 127
2, 244455, Note_off_c, 8, 80, 127
2, 244457, Note_on_c, 7, 79, 127
2, 244457, Note_on_c, 0, 60, 127
2, 244633, Note_off_c, 7, 79, 127
2, 244635, Note_on_c, 5, 77, 127
2, 244811, Note_off_c, 5, 77, 127
2, 244811, Note_off_c, 0, 60, 127
2, 244813, Note_on_c, 7, 79, 127
2, 244813, Note_on_c, 0, 48, 127
2, 244989, Note_off_c, 7, 79, 127
2, 244991, Note_on_c, 4, 76, 127
2, 245156, Note_off_c, 4, 76, 127
2, 245156, Note_off_c, 0, 48, 127
2, 245170, Note_on_c, 5, 77, 127
2, 245170, Note_on_c, 5, 53, 127
2, 245346, Note_off_c, 5, 53, 127
2, 245348, Note_on_c, 1, 61, 127
2, 245524, Note_off_c, 1, 61, 127
2, 245526, Note_on_c, 0, 60, 127
2, 245689, Note_off_c, 5, 77, 127
2, 245702, Note_off_c, 0, 60, 127
2, 245704, Note_on_c, 11, 58, 127
2, 245880, Note_off_c, 11, 58, 127
2, 245882, Note_on_c, 8, 56, 127
2, 246058, Note_off_c, 8, 56, 127
2, 246061, Note_on_c, 0, 60, 127
2, 246226, Note_off_c, 0, 60, 127
2, 246239, Note_on_c, 8, 80, 127
2, 246239, Note_on_c, 5, 53, 127
2, 246415, Note_off_c, 8, 80, 127
2, 246417, Note_on_c, 7, 79, 127
2, 246593, Note_off_c, 7, 79, 127
2, 246593, Note_off_c, 5, 53, 127
2, 246595, Note_on_c, 5, 77, 127
2, 246595, Note_on_c, 8, 56, 127
2, 246771, Note_off_c, 5, 77, 127
2, 246773, Note_on_c, 8, 80, 127
2, 246949, Note_off_c, 8, 80, 127
2, 246949, Note_off_c, 8, 56, 127
2, 246952, Note_on_c, 2, 74, 127
2, 246952, Note_on_c, 5, 53, 127
2, 247128, Note_off_c, 2, 74, 127
2, 247130, Note_on_c, 0, 72, 127
2, 247295, Note_off_c, 0, 72, 127
2, 247295, Note_off_c, 5, 53, 127
2, 247308, Note_on_c, 11, 70, 127
2, 247308, Note_on_c, 2, 50, 127
2, 247484, Note_off_c, 11, 70, 127
2, 247486, Note_on_c, 2, 74, 127
2, 247662, Note_off_c, 2, 74, 127
2, 247662, Note_off_c, 2, 50, 127
2, 247664, Note_on_c, 5, 77, 127
2, 247664, Note_on_c, 11, 46, 127
2, 247840, Note_off_c, 5, 77, 127
2, 247843, Note_on_c, 8, 80, 127
2, 248018, Note_off_c, 11, 46, 127
2, 248019, Note_off_c, 8, 80, 127
2, 248021, Note_on_c, 7, 79, 127
2, 248021, Note_on_c, 2, 50, 127
2, 248197, Note_off_c, 7, 79, 127
2, 248199, Note_on_c, 5, 77, 127
2, 248364, Note_off_c, 5, 77, 127
2, 248364, Note_off_c, 2, 50, 127
2, 248377, Note_on_c, 7, 79, 127
2, 248377, Note_on_c, 3, 51, 127
2, 248553, Note_off_c, 7, 79, 127
2, 248555, Note_on_c, 5, 77, 127
2, 248731, Note_off_c, 5, 77, 127
2, 248731, Note_off_c, 3, 51, 127
2, 248734, Note_on_c, 3, 75, 127
2, 248734, Note_on_c, 7, 55, 127
2, 248910, Note_off_c, 3, 75, 127
2, 248912, Note_on_c, 7, 79, 127
2, 249088, Note_off_c, 7, 79, 127
2, 249088, Note_off_c, 7, 55, 127
2, 249090, Note_on_c, 0, 72, 127
2, 249090, Note_on_c, 3, 51, 127
2, 249266, Note_off_c, 0, 72, 127
2, 249268, Note_on_c, 11, 70, 127
2, 249433, Note_off_c, 11, 70, 127
2, 249433, Note_off_c, 3, 51, 127
2, 249446, Note_on_c, 8, 68, 127
2, 249446, Note_on_c, 0, 48, 127
2, 249622, Note_off_c, 8, 68, 127
2, 249625, Note_on_c, 0, 72, 127
2, 249800, Note_off_c, 0, 48, 127
2, 249801, Note_off_c, 0, 72, 127
2, 249803, Note_on_c, 3, 75, 127
2, 249803, Note_on_c, 8, 44, 127
2, 249979, Note_off_c, 3, 75, 127
2, 249981, Note_on_c, 7, 79, 127
2, 250157, Note_off_c, 7, 79, 127
2, 250157, Note_off_c, 8, 44, 127
2, 250159, Note_on_c, 5, 77, 127
2, 250159, Note_on_c, 0, 48, 127
2, 250335, Note_off_c, 5, 77, 127
2, 250337, Note_on_c, 3, 75, 127
2, 250502, Note_off_c, 3, 75, 127
2, 250502, Note_off_c, 0, 48, 127
2, 250516, Note_on_c, 5, 77, 127
2, 250516, Note_on_c, 2, 50, 127
2, 250692, Note_off_c, 5, 77, 127
2, 250694, Note_on_c, 3, 75, 127
2, 250870, Note_off_c, 3, 75, 127
2, 250870, Note_off_c, 2, 50, 127
2, 250872, Note_on_c, 2, 74, 127
2, 250872, Note_on_c, 5, 53, 127
2, 251048, Note_off_c, 2, 74, 127
2, 251050, Note_on_c, 5, 77, 127
2, 251226, Note_off_c, 5, 77, 127
2, 251226, Note_off_c, 5, 53, 127
2, 251228, Note_on_c, 12, 71, 127
2, 251228, Note_on_c, 2, 50, 127
2, 251404, Note_off_c, 12, 71, 127
2, 251407, Note_on_c, 10, 69, 127
2, 251571, Note_off_c, 2, 50, 127
2, 251572, Note_off_c, 10, 69, 127
2, 251585, Note_on_c, 7, 67, 127
2, 251585, Note_on_c, 12, 47, 127
2, 251761, Note_off_c, 7, 67, 127
2, 251763, Note_on_c, 12, 71, 127
2, 251939, Note_off_c, 12, 71, 127
2, 251939, Note_off_c, 12, 47, 127
2, 251941, Note_on_c, 2, 74, 127
2, 251941, Note_on_c, 7, 43, 127
2, 252117, Note_off_c, 2, 74, 127
2, 252119, Note_on_c, 5, 77, 127
2, 252295, Note_off_c, 5, 77, 127
2, 252295, Note_off_c, 7, 43, 127
2, 252298, Note_on_c, 3, 75, 127
2, 252298, Note_on_c, 12, 47, 127
2, 252474, Note_off_c, 3, 75, 127
2, 252476, Note_on_c, 2, 74, 127
2, 252641, Note_off_c, 2, 74, 127
2, 252641, Note_off_c, 12, 47, 127
2, 252654, Note_on_c, 3, 75, 127
2, 252654, Note_on_c, 0, 48, 127
2, 252830, Note_off_c, 3, 75, 127
2, 252832, Note_on_c, 0, 72, 127
2, 253008, Note_off_c, 0, 72, 127
2, 253008, Note_off_c, 0, 48, 127
2, 253010, Note_on_c, 5, 65, 127
2, 253010, Note_on_c, 8, 56, 127
2, 253186, Note_off_c, 5, 65, 127
2, 253189, Note_on_c, 3, 75, 127
2, 253364, Note_off_c, 8, 56, 127
2, 253365, Note_off_c, 3, 75, 127
2, 253367, Note_on_c, 2, 74, 127
2, 253367, Note_on_c, 5, 53, 127
2, 253543, Note_off_c, 2, 74, 127
2, 253545, Note_on_c, 0, 72, 127
2, 253710, Note_off_c, 0, 72, 127
2, 253710, Note_off_c, 5, 53, 127
2, 253723, Note_on_c, 12, 71, 127
2, 253723, Note_on_c, 7, 55, 127
2, 253899, Note_off_c, 12, 71, 127
2, 253901, Note_on_c, 10, 69, 127
2, 254077, Note_off_c, 10, 69, 127
2, 254080, Note_on_c, 0, 72, 127
2, 254080, Note_on_c, 7, 43, 127
2, 254256, Note_off_c, 0, 72, 127
2, 254258, Note_on_c, 12, 71, 127
2, 254429, Note_off_c, 7, 55, 127
2, 254434, Note_off_c, 7, 43, 127
2, 254436, Note_off_c, 12, 71, 127
2, 254438, Note_on_c, 10, 69, 127
2, 254614, Note_off_c, 10, 69, 127
2, 254616, Note_on_c, 7, 67, 127
2, 254781, Note_off_c, 7, 67, 127
2, 254795, Note_on_c, 4, 76, 127
2, 254795, Note_on_c, 2, 50, 127
2, 254889, Note_off_c, 4, 76, 127
2, 254891, Note_on_c, 5, 77, 127
2, 254971, Note_off_c, 2, 50, 127
2, 254973, Note_on_c, 8, 56, 127
2, 254985, Note_off_c, 5, 77, 127
2, 254988, Note_on_c, 7, 79, 127
2, 255082, Note_off_c, 7, 79, 127
2, 255085, Note_on_c, 5, 77, 127
2, 255151, Note_off_c, 8, 56, 127
2, 255153, Note_on_c, 7, 55, 127
2, 255181, Note_off_c, 5, 77, 127
2, 255186, Note_on_c, 7, 79, 127
2, 255280, Note_off_c, 7, 79, 127
2, 255283, Note_on_c, 5, 77, 127
2, 255331, Note_off_c, 7, 55, 127
2, 255334, Note_on_c, 5, 53, 127
2, 255377, Note_off_c, 5, 77, 127
2, 255380, Note_on_c, 7, 79, 127
2, 255474, Note_off_c, 7, 79, 127
2, 255479, Note_on_c, 5, 77, 127
2, 255510, Note_off_c, 5, 53, 127
2, 255512, Note_on_c, 4, 52, 127
2, 255573, Note_off_c, 5, 77, 127
2, 255576, Note_on_c, 7, 79, 127
2, 255670, Note_off_c, 7, 79, 127
2, 255672, Note_on_c, 5, 77, 127
2, 255690, Note_off_c, 4, 52, 127
2, 255692, Note_on_c, 5, 53, 127
2, 255768, Note_off_c, 5, 77, 127
2, 255774, Note_on_c, 7, 79, 127
2, 255859, Note_off_c, 5, 53, 127
2, 255868, Note_off_c, 7, 79, 127
2, 255870, Note_on_c, 5, 77, 127
2, 255873, Note_on_c, 0, 48, 127
2, 255964, Note_off_c, 5, 77, 127
2, 255967, Note_on_c, 7, 79, 127
2, 256049, Note_off_c, 0, 48, 127
2, 256051, Note_on_c, 8, 56, 127
2, 256061, Note_off_c, 7, 79, 127
2, 256066, Note_on_c, 5, 77, 127
2, 256160, Note_off_c, 5, 77, 127
2, 256163, Note_on_c, 7, 79, 127
2, 256229, Note_off_c, 8, 56, 127
2, 256231, Note_on_c, 7, 55, 127
2, 256259, Note_off_c, 7, 79, 127
2, 256262, Note_on_c, 5, 77, 127
2, 256356, Note_off_c, 5, 77, 127
2, 256361, Note_on_c, 7, 79, 127
2, 256409, Note_off_c, 7, 55, 127
2, 256412, Note_on_c, 5, 53, 127
2, 256455, Note_off_c, 7, 79, 127
2, 256458, Note_on_c, 5, 77, 127
2, 256552, Note_off_c, 5, 77, 127
2, 256555, Note_on_c, 7, 79, 127
2, 256588, Note_off_c, 5, 53, 127
2, 256590, Note_on_c, 4, 52, 127
2, 256649, Note_off_c, 7, 79, 127
2, 256654, Note_on_c, 5, 77, 127
2, 256748, Note_off_c, 5, 77, 127
2, 256750, Note_on_c, 4, 76, 127
2, 256768, Note_off_c, 4, 52, 127
2, 256770, Note_on_c, 5, 53, 127
2, 256846, Note_off_c, 4, 76, 127
2, 256849, Note_on_c, 5, 77, 127
2, 256937, Note_off_c, 5, 53, 127
2, 256951, Note_on_c, 12, 47, 127
2, 257124, Note_off_c, 5, 77, 127
2, 257131, Note_on_c, 8, 80, 127
2, 257307, Note_off_c, 8, 80, 127
2, 257307, Note_off_c, 12, 47, 127
2, 257309, Note_on_c, 7, 79, 127
2, 257309, Note_on_c, 0, 48, 127
2, 257485, Note_off_c, 7, 79, 127
2, 257487, Note_on_c, 5, 77, 127
2, 257663, Note_off_c, 5, 77, 127
2, 257663, Note_off_c, 0, 48, 127
2, 257666, Note_on_c, 4, 76, 127
2, 257666, Note_on_c, 2, 50, 127
2, 257842, Note_off_c, 4, 76, 127
2, 257844, Note_on_c, 5, 77, 127
2, 258009, Note_off_c, 5, 77, 127
2, 258009, Note_off_c, 2, 50, 127
2, 258022, Note_on_c, 12, 83, 127
2, 258022, Note_on_c, 7, 43, 127
2, 258198, Note_off_c, 12, 83, 127
2, 258200, Note_on_c, 8, 80, 127
2, 258376, Note_off_c, 8, 80, 127
2, 258376, Note_off_c, 7, 43, 127
2, 258378, Note_on_c, 7, 79, 127
2, 258378, Note_on_c, 10, 45, 127
2, 258554, Note_off_c, 7, 79, 127
2, 258557, Note_on_c, 5, 77, 127
2, 258732, Note_off_c, 10, 45, 127
2, 258733, Note_off_c, 5, 77, 127
2, 258735, Note_on_c, 3, 75, 127
2, 258735, Note_on_c, 12, 47, 127
2, 258911, Note_off_c, 3, 75, 127
2, 258913, Note_on_c, 2, 74, 127
2, 259078, Note_off_c, 2, 74, 127
2, 259078, Note_off_c, 12, 47, 127
2, 259091, Note_on_c, 0, 48, 127
2, 259091, Note_on_c, 3, 75, 127
2, 259271, Note_off_c, 3, 75, 127
2, 259274, Note_on_c, 2, 74, 127
2, 259454, Note_off_c, 2, 74, 127
2, 259459, Note_on_c, 0, 72, 127
2, 259639, Note_off_c, 0, 72, 127
2, 259643, Note_on_c, 3, 75, 127
2, 259819, Note_off_c, 0, 48, 127
2, 259823, Note_off_c, 3, 75, 127
2, 259828, Note_on_c, 8, 68, 127
2, 260008, Note_off_c, 8, 68, 127
2, 260013, Note_on_c, 7, 67, 127
2, 260182, Note_off_c, 7, 67, 127
2, 260198, Note_on_c, 5, 65, 127
2, 260198, Note_on_c, 2, 50, 127
2, 260382, Note_off_c, 5, 65, 127
2, 260387, Note_on_c, 3, 75, 127
2, 260571, Note_off_c, 3, 75, 127
2, 260578, Note_on_c, 2, 74, 127
2, 260762, Note_off_c, 2, 74, 127
2, 260770, Note_on_c, 0, 72, 127
2, 260950, Note_off_c, 2, 50, 127
2, 260954, Note_off_c, 0, 72, 127
2, 260961, Note_on_c, 12, 71, 127
2, 261145, Note_off_c, 12, 71, 127
2, 261153, Note_on_c, 8, 80, 127
2, 261326, Note_off_c, 8, 80, 127
2, 261344, Note_on_c, 7, 79, 127
2, 261344, Note_on_c, 3, 51, 127
2, 261740, Note_off_c, 3, 51, 127
2, 261740, Note_off_c, 7, 79, 127
2, 261742, Note_on_c, 5, 77, 127
2, 261742, Note_on_c, 5, 53, 127
2, 261935, Note_off_c, 5, 77, 127
2, 261942, Note_on_c, 3, 75, 127
2, 262135, Note_off_c, 3, 75, 127
2, 262138, Note_off_c, 5, 53, 127
2, 262145, Note_on_c, 2, 74, 127
2, 262145, Note_on_c, 7, 55, 127
2, 262338, Note_off_c, 2, 74, 127
2, 262345, Note_on_c, 3, 75, 127
2, 262538, Note_off_c, 3, 75, 127
2, 262582, Note_on_c, 0, 48, 127
2, 262582, Note_on_c, 0, 72, 127
2, 262588, Note_off_c, 7, 55, 127
2, 264582, Note_off_c, 0, 72, 127
2, 265082, Note_off_c, 0, 48, 127
2, 265734, Note_on_c, 0, 72, 127
2, 265808, Note_off_c, 0, 72, 127
2, 265811, Note_on_c, 7, 67, 127
2, 266039, Note_off_c, 7, 67, 127
2, 266042, Note_on_c, 0, 72, 127
2, 266424, Note_off_c, 0, 72, 127
2, 266427, Note_on_c, 7, 55, 127
2, 266427, Note_on_c, 2, 74, 127
2, 266501, Note_off_c, 2, 74, 127
2, 266501, Note_off_c, 7, 55, 127
2, 266504, Note_on_c, 0, 48, 127
2, 266504, Note_on_c, 3, 75, 127
2, 266732, Note_off_c, 3, 75, 127
2, 266732, Note_off_c, 0, 48, 127
2, 266735, Note_on_c, 5, 53, 127
2, 266735, Note_on_c, 2, 74, 127
2, 267117, Note_off_c, 2, 74, 127
2, 267117, Note_off_c, 5, 53, 127
2, 267120, Note_on_c, 7, 55, 127
2, 267120, Note_on_c, 3, 75, 127
2, 267194, Note_off_c, 3, 75, 127
2, 267194, Note_off_c, 7, 55, 127
2, 267197, Note_on_c, 8, 56, 127
2, 267197, Note_on_c, 0, 72, 127
2, 267425, Note_off_c, 0, 72, 127
2, 267425, Note_off_c, 8, 56, 127
2, 267428, Note_on_c, 7, 55, 127
2, 267428, Note_on_c, 12, 71, 127
2, 267810, Note_off_c, 12, 71, 127
2, 267810, Note_off_c, 7, 55, 127
2, 267813, Note_on_c, 8, 56, 127
2, 267813, Note_on_c, 0, 72, 127
2, 267887, Note_off_c, 0, 72, 127
2, 267887, Note_off_c, 8, 56, 127
2, 267890, Note_on_c, 5, 53, 127
2, 267890, Note_on_c, 2, 74, 127
2, 268118, Note_off_c, 2, 74, 127
2, 268118, Note_off_c, 5, 53, 127
2, 268121, Note_on_c, 3, 51, 127
2, 268121, Note_on_c, 7, 67, 127
2, 268503, Note_off_c, 7, 67, 127
2, 268503, Note_off_c, 3, 51, 127
2, 268506, Note_on_c, 5, 53, 127
2, 268506, Note_on_c, 7, 79, 127
2, 268580, Note_off_c, 7, 79, 127
2, 268580, Note_off_c, 5, 53, 127
2, 268583, Note_on_c, 7, 55, 127
2, 268583, Note_on_c, 0, 72, 127
2, 268811, Note_off_c, 0, 72, 127
2, 268811, Note_off_c, 7, 55, 127
2, 268814, Note_on_c, 8, 56, 127
2, 268814, Note_on_c, 5, 77, 127
2, 269196, Note_off_c, 5, 77, 127
2, 269196, Note_off_c, 8, 56, 127
2, 269199, Note_on_c, 7, 55, 127
2, 269199, Note_on_c, 7, 79, 127
2, 269273, Note_off_c, 7, 79, 127
2, 269273, Note_off_c, 7, 55, 127
2, 269276, Note_on_c, 5, 53, 127
2, 269276, Note_on_c, 8, 80, 127
2, 269504, Note_off_c, 8, 80, 127
2, 269504, Note_off_c, 5, 53, 127
2, 269507, Note_on_c, 7, 55, 127
2, 269507, Note_on_c, 2, 74, 127
2, 269889, Note_off_c, 2, 74, 127
2, 269892, Note_on_c, 7, 79, 127
2, 269966, Note_off_c, 7, 79, 127
2, 269966, Note_off_c, 7, 55, 127
2, 269969, Note_on_c, 7, 43, 127
2, 269969, Note_on_c, 5, 77, 127
2, 270197, Note_off_c, 5, 77, 127
2, 270197, Note_off_c, 7, 43, 127
2, 270200, Note_on_c, 0, 48, 127
2, 270200, Note_on_c, 5, 77, 127
2, 270274, Note_off_c, 5, 77, 127
2, 270275, Note_on_c, 3, 75, 127
2, 270349, Note_off_c, 3, 75, 127
2, 270352, Note_on_c, 5, 77, 127
2, 270426, Note_off_c, 5, 77, 127
2, 270429, Note_on_c, 3, 75, 127
2, 270543, Note_off_c, 3, 75, 127
2, 270545, Note_on_c, 2, 74, 127
2, 270631, Note_off_c, 0, 48, 127
2, 270657, Note_off_c, 2, 74, 127
2, 270660, Note_on_c, 0, 60, 127
2, 270660, Note_on_c, 0, 72, 127
2, 270888, Note_off_c, 0, 72, 127
2, 270888, Note_off_c, 0, 60, 127
2, 270891, Note_on_c, 12, 59, 127
2, 270891, Note_on_c, 7, 79, 127
2, 271273, Note_off_c, 12, 59, 127
2, 271276, Note_on_c, 10, 57, 127
2, 271350, Note_off_c, 10, 57, 127
2, 271353, Note_on_c, 7, 55, 127
2, 271581, Note_off_c, 7, 55, 127
2, 271584, Note_on_c, 0, 60, 127
2, 271865, Note_off_c, 7, 79, 127
2, 271969, Note_on_c, 7, 79, 127
2, 272043, Note_off_c, 7, 79, 127
2, 272043, Note_off_c, 0, 60, 127
2, 272046, Note_on_c, 11, 58, 127
2, 272046, Note_on_c, 0, 72, 127
2, 272274, Note_off_c, 0, 72, 127
2, 272274, Note_off_c, 11, 58, 127
2, 272277, Note_on_c, 8, 56, 127
2, 272277, Note_on_c, 5, 77, 127
2, 272659, Note_off_c, 5, 77, 127
2, 272659, Note_off_c, 8, 56, 127
2, 272662, Note_on_c, 0, 60, 127
2, 272662, Note_on_c, 7, 79, 127
2, 272736, Note_off_c, 7, 79, 127
2, 272736, Note_off_c, 0, 60, 127
2, 272739, Note_on_c, 5, 53, 127
2, 272739, Note_on_c, 8, 80, 127
2, 272967, Note_off_c, 8, 80, 127
2, 272967, Note_off_c, 5, 53, 127
2, 272970, Note_on_c, 11, 58, 127
2, 272970, Note_on_c, 3, 75, 127
2, 273044, Note_off_c, 3, 75, 127
2, 273044, Note_on_c, 2, 74, 127
2, 273118, Note_off_c, 2, 74, 127
2, 273121, Note_on_c, 3, 75, 127
2, 273195, Note_off_c, 3, 75, 127
2, 273198, Note_on_c, 2, 74, 127
2, 273312, Note_off_c, 2, 74, 127
2, 273313, Note_off_c, 11, 58, 127
2, 273315, Note_on_c, 0, 60, 127
2, 273315, Note_on_c, 0, 72, 127
2, 273429, Note_off_c, 0, 72, 127
2, 273429, Note_off_c, 0, 60, 127
2, 273432, Note_on_c, 2, 62, 127
2, 273432, Note_on_c, 11, 70, 127
2, 273660, Note_off_c, 11, 70, 127
2, 273660, Note_off_c, 2, 62, 127
2, 273663, Note_on_c, 10, 57, 127
2, 273663, Note_on_c, 5, 77, 127
2, 274045, Note_off_c, 10, 57, 127
2, 274048, Note_on_c, 7, 55, 127
2, 274122, Note_off_c, 7, 55, 127
2, 274125, Note_on_c, 5, 53, 127
2, 274353, Note_off_c, 5, 53, 127
2, 274356, Note_on_c, 11, 58, 127
2, 274637, Note_off_c, 5, 77, 127
2, 274741, Note_on_c, 5, 77, 127
2, 274789, Note_off_c, 11, 58, 127
2, 274815, Note_off_c, 5, 77, 127
2, 274818, Note_on_c, 8, 56, 127
2, 274818, Note_on_c, 11, 70, 127
2, 275046, Note_off_c, 11, 70, 127
2, 275046, Note_off_c, 8, 56, 127
2, 275049, Note_on_c, 7, 55, 127
2, 275049, Note_on_c, 3, 75, 127
2, 275431, Note_off_c, 3, 75, 127
2, 275431, Note_off_c, 7, 55, 127
2, 275434, Note_on_c, 8, 56, 127
2, 275434, Note_on_c, 5, 77, 127
2, 275508, Note_off_c, 5, 77, 127
2, 275508, Note_off_c, 8, 56, 127
2, 275511, Note_on_c, 3, 51, 127
2, 275511, Note_on_c, 7, 79, 127
2, 275739, Note_off_c, 7, 79, 127
2, 275739, Note_off_c, 3, 51, 127
2, 275742, Note_on_c, 8, 56, 127
2, 275742, Note_on_c, 0, 72, 127
2, 276124, Note_off_c, 0, 72, 127
2, 276124, Note_off_c, 8, 56, 127
2, 276127, Note_on_c, 11, 58, 127
2, 276127, Note_on_c, 2, 74, 127
2, 276201, Note_off_c, 2, 74, 127
2, 276201, Note_off_c, 11, 58, 127
2, 276204, Note_on_c, 0, 60, 127
2, 276204, Note_on_c, 3, 75, 127
2, 276432, Note_off_c, 3, 75, 127
2, 276432, Note_off_c, 0, 60, 127
2, 276435, Note_on_c, 5, 53, 127
2, 276435, Note_on_c, 8, 68, 127
2, 276817, Note_off_c, 5, 53, 127
2, 276820, Note_on_c, 7, 55, 127
2, 276894, Note_off_c, 7, 55, 127
2, 276897, Note_on_c, 8, 56, 127
2, 277125, Note_off_c, 8, 56, 127
2, 277128, Note_on_c, 2, 50, 127
2, 277409, Note_off_c, 8, 68, 127
2, 277513, Note_on_c, 8, 68, 127
2, 277587, Note_off_c, 8, 68, 127
2, 277590, Note_on_c, 3, 63, 127
2, 277818, Note_off_c, 3, 63, 127
2, 277821, Note_on_c, 5, 65, 127
2, 278175, Note_off_c, 2, 50, 127
2, 278190, Note_off_c, 5, 65, 127
2, 278206, Note_on_c, 3, 51, 127
2, 278206, Note_on_c, 7, 67, 127
2, 278280, Note_off_c, 7, 67, 127
2, 278280, Note_off_c, 3, 51, 127
2, 278283, Note_on_c, 5, 53, 127
2, 278283, Note_on_c, 8, 68, 127
2, 278511, Note_off_c, 8, 68, 127
2, 278511, Note_off_c, 5, 53, 127
2, 278514, Note_on_c, 11, 46, 127
2, 278514, Note_on_c, 3, 63, 127
2, 278588, Note_off_c, 3, 63, 127
2, 278588, Note_on_c, 2, 62, 127
2, 278662, Note_off_c, 2, 62, 127
2, 278665, Note_on_c, 3, 63, 127
2, 278739, Note_off_c, 3, 63, 127
2, 278742, Note_on_c, 2, 62, 127
2, 278856, Note_off_c, 2, 62, 127
2, 278857, Note_off_c, 11, 46, 127
2, 278859, Note_on_c, 2, 50, 127
2, 278859, Note_on_c, 0, 60, 127
2, 278973, Note_off_c, 0, 60, 127
2, 278973, Note_off_c, 2, 50, 127
2, 278976, Note_on_c, 5, 53, 127
2, 278976, Note_on_c, 11, 58, 127
2, 279204, Note_off_c, 11, 58, 127
2, 279204, Note_off_c, 5, 53, 127
2, 279207, Note_on_c, 8, 56, 127
2, 279207, Note_on_c, 11, 70, 127
2, 279589, Note_off_c, 8, 56, 127
2, 279592, Note_on_c, 7, 55, 127
2, 279666, Note_off_c, 7, 55, 127
2, 279669, Note_on_c, 5, 53, 127
2, 279897, Note_off_c, 5, 53, 127
2, 279900, Note_on_c, 7, 55, 127
2, 280181, Note_off_c, 11, 70, 127
2, 280282, Note_off_c, 7, 55, 127
2, 280285, Note_on_c, 3, 51, 127
2, 280285, Note_on_c, 3, 75, 127
2, 280359, Note_off_c, 3, 75, 127
2, 280359, Note_off_c, 3, 51, 127
2, 280362, Note_on_c, 7, 55, 127
2, 280362, Note_on_c, 11, 70, 127
2, 280590, Note_off_c, 11, 70, 127
2, 280590, Note_off_c, 7, 55, 127
2, 280593, Note_on_c, 11, 58, 127
2, 280593, Note_on_c, 7, 67, 127
2, 280975, Note_off_c, 7, 67, 127
2, 280978, Note_on_c, 8, 68, 127
2, 281052, Note_off_c, 8, 68, 127
2, 281052, Note_off_c, 11, 58, 127
2, 281055, Note_on_c, 11, 46, 127
2, 281055, Note_on_c, 5, 65, 127
2, 281283, Note_off_c, 5, 65, 127
2, 281283, Note_off_c, 11, 46, 127
2, 281286, Note_on_c, 3, 51, 127
2, 281286, Note_on_c, 3, 63, 127
2, 281723, Note_off_c, 3, 63, 127
2, 281748, Note_on_c, 7, 67, 127
2, 281976, Note_off_c, 7, 67, 127
2, 281979, Note_on_c, 0, 72, 127
2, 282053, Note_off_c, 0, 72, 127
2, 282053, Note_on_c, 12, 71, 127
2, 282127, Note_off_c, 12, 71, 127
2, 282130, Note_on_c, 0, 72, 127
2, 282150, Note_off_c, 3, 51, 127
2, 282361, Note_on_c, 7, 55, 127
2, 282435, Note_off_c, 7, 55, 127
2, 282438, Note_on_c, 0, 48, 127
2, 282666, Note_off_c, 0, 48, 127
2, 282669, Note_on_c, 6, 54, 127
2, 282996, Note_off_c, 0, 72, 127
2, 283051, Note_off_c, 6, 54, 127
2, 283054, Note_on_c, 7, 55, 127
2, 283054, Note_on_c, 10, 69, 127
2, 283128, Note_off_c, 10, 69, 127
2, 283128, Note_off_c, 7, 55, 127
2, 283131, Note_on_c, 10, 57, 127
2, 283131, Note_on_c, 0, 72, 127
2, 283359, Note_off_c, 0, 72, 127
2, 283359, Note_off_c, 10, 57, 127
2, 283362, Note_on_c, 0, 48, 127
2, 283362, Note_on_c, 3, 75, 127
2, 283436, Note_off_c, 3, 75, 127
2, 283437, Note_on_c, 2, 74, 127
2, 283511, Note_off_c, 2, 74, 127
2, 283514, Note_on_c, 3, 75, 127
2, 283742, Note_off_c, 0, 48, 127
2, 283745, Note_on_c, 3, 51, 127
2, 283819, Note_off_c, 3, 51, 127
2, 283822, Note_on_c, 7, 43, 127
2, 284050, Note_off_c, 7, 43, 127
2, 284053, Note_on_c, 10, 45, 127
2, 284380, Note_off_c, 3, 75, 127
2, 284435, Note_off_c, 10, 45, 127
2, 284438, Note_on_c, 11, 46, 127
2, 284438, Note_on_c, 0, 72, 127
2, 284512, Note_off_c, 0, 72, 127
2, 284512, Note_off_c, 11, 46, 127
2, 284515, Note_on_c, 0, 48, 127
2, 284515, Note_on_c, 3, 75, 127
2, 284743, Note_off_c, 3, 75, 127
2, 284743, Note_off_c, 0, 48, 127
2, 284746, Note_on_c, 2, 38, 127
2, 284746, Note_on_c, 6, 78, 127
2, 285128, Note_off_c, 6, 78, 127
2, 285131, Note_on_c, 10, 81, 127
2, 285205, Note_off_c, 10, 81, 127
2, 285205, Note_off_c, 2, 38, 127
2, 285208, Note_on_c, 0, 48, 127
2, 285208, Note_on_c, 2, 74, 127
2, 285436, Note_off_c, 2, 74, 127
2, 285436, Note_off_c, 0, 48, 127
2, 285439, Note_on_c, 11, 46, 127
2, 285439, Note_on_c, 7, 79, 127
2, 285821, Note_off_c, 7, 79, 127
2, 285821, Note_off_c, 11, 46, 127
2, 285824, Note_on_c, 10, 45, 127
2, 285824, Note_on_c, 10, 81, 127
2, 285898, Note_off_c, 10, 81, 127
2, 285898, Note_off_c, 10, 45, 127
2, 285901, Note_on_c, 7, 43, 127
2, 285901, Note_on_c, 11, 82, 127
2, 286129, Note_off_c, 11, 82, 127
2, 286129, Note_off_c, 7, 43, 127
2, 286132, Note_on_c, 2, 50, 127
2, 286132, Note_on_c, 2, 74, 127
2, 286514, Note_off_c, 2, 74, 127
2, 286517, Note_on_c, 7, 79, 127
2, 286591, Note_off_c, 7, 79, 127
2, 286591, Note_off_c, 2, 50, 127
2, 286594, Note_on_c, 2, 38, 127
2, 286594, Note_on_c, 6, 78, 127
2, 286822, Note_off_c, 6, 78, 127
2, 286822, Note_off_c, 2, 38, 127
2, 286825, Note_on_c, 7, 43, 127
2, 286825, Note_on_c, 7, 79, 127
2, 287207, Note_off_c, 7, 43, 127
2, 287210, Note_on_c, 12, 47, 127
2, 287284, Note_off_c, 12, 47, 127
2, 287287, Note_on_c, 2, 50, 127
2, 287511, Note_off_c, 7, 79, 127
2, 287515, Note_off_c, 2, 50, 127
2, 287518, Note_on_c, 7, 55, 127
2, 287903, Note_on_c, 7, 67, 127
2, 287977, Note_off_c, 7, 67, 127
2, 287980, Note_on_c, 2, 74, 127
2, 288204, Note_off_c, 7, 55, 127
2, 288208, Note_off_c, 2, 74, 127
2, 288211, Note_on_c, 12, 71, 127
2, 288593, Note_off_c, 12, 71, 127
2, 288596, Note_on_c, 7, 55, 127
2, 288596, Note_on_c, 10, 69, 127
2, 288670, Note_off_c, 10, 69, 127
2, 288670, Note_off_c, 7, 55, 127
2, 288673, Note_on_c, 2, 62, 127
2, 288673, Note_on_c, 7, 67, 127
2, 288901, Note_off_c, 7, 67, 127
2, 288901, Note_off_c, 2, 62, 127
2, 288904, Note_on_c, 12, 59, 127
2, 288904, Note_on_c, 5, 77, 127
2, 289286, Note_off_c, 12, 59, 127
2, 289289, Note_on_c, 10, 57, 127
2, 289363, Note_off_c, 10, 57, 127
2, 289366, Note_on_c, 7, 55, 127
2, 289594, Note_off_c, 7, 55, 127
2, 289597, Note_on_c, 0, 60, 127
2, 289878, Note_off_c, 5, 77, 127
2, 289982, Note_on_c, 7, 79, 127
2, 290056, Note_off_c, 7, 79, 127
2, 290059, Note_on_c, 2, 74, 127
2, 290287, Note_off_c, 2, 74, 127
2, 290290, Note_on_c, 3, 75, 127
2, 290646, Note_off_c, 0, 60, 127
2, 290672, Note_off_c, 3, 75, 127
2, 290675, Note_on_c, 0, 48, 127
2, 290675, Note_on_c, 7, 79, 127
2, 290749, Note_off_c, 7, 79, 127
2, 290749, Note_off_c, 0, 48, 127
2, 290752, Note_on_c, 7, 55, 127
2, 290752, Note_on_c, 11, 82, 127
2, 290980, Note_off_c, 11, 82, 127
2, 290980, Note_off_c, 7, 55, 127
2, 290983, Note_on_c, 4, 52, 127
2, 290983, Note_on_c, 1, 73, 127
2, 291365, Note_off_c, 1, 73, 127
2, 291365, Note_off_c, 4, 52, 127
2, 291368, Note_on_c, 2, 50, 127
2, 291368, Note_on_c, 0, 72, 127
2, 291442, Note_off_c, 0, 72, 127
2, 291442, Note_off_c, 2, 50, 127
2, 291445, Note_on_c, 0, 48, 127
2, 291445, Note_on_c, 7, 79, 127
2, 291673, Note_off_c, 7, 79, 127
2, 291673, Note_off_c, 0, 48, 127
2, 291676, Note_on_c, 11, 58, 127
2, 291676, Note_on_c, 4, 76, 127
2, 292058, Note_off_c, 4, 76, 127
2, 292061, Note_on_c, 2, 74, 127
2, 292135, Note_off_c, 2, 74, 127
2, 292138, Note_on_c, 0, 72, 127
2, 292366, Note_off_c, 0, 72, 127
2, 292369, Note_on_c, 5, 77, 127
2, 292723, Note_off_c, 11, 58, 127
2, 292754, Note_on_c, 0, 60, 127
2, 292828, Note_off_c, 0, 60, 127
2, 292831, Note_on_c, 7, 55, 127
2, 293059, Note_off_c, 7, 55, 127
2, 293062, Note_on_c, 8, 56, 127
2, 293290, Note_off_c, 8, 56, 127
2, 293304, Note_on_c, 5, 53, 127
2, 293407, Note_off_c, 5, 77, 127
2, 293410, Note_on_c, 0, 72, 127
2, 293524, Note_off_c, 0, 72, 127
2, 293526, Note_on_c, 5, 77, 127
2, 293535, Note_off_c, 5, 53, 127
2, 293754, Note_off_c, 5, 77, 127
2, 293757, Note_on_c, 2, 74, 127
2, 294139, Note_off_c, 2, 74, 127
2, 294142, Note_on_c, 5, 53, 127
2, 294142, Note_on_c, 0, 72, 127
2, 294216, Note_off_c, 0, 72, 127
2, 294216, Note_off_c, 5, 53, 127
2, 294219, Note_on_c, 11, 58, 127
2, 294219, Note_on_c, 11, 70, 127
2, 294447, Note_off_c, 11, 70, 127
2, 294447, Note_off_c, 11, 58, 127
2, 294450, Note_on_c, 7, 55, 127
2, 294450, Note_on_c, 3, 75, 127
2, 294832, Note_off_c, 7, 55, 127
2, 294835, Note_on_c, 5, 53, 127
2, 294909, Note_off_c, 5, 53, 127
2, 294912, Note_on_c, 3, 51, 127
2, 295140, Note_off_c, 3, 51, 127
2, 295143, Note_on_c, 8, 56, 127
2, 295424, Note_off_c, 3, 75, 127
2, 295528, Note_on_c, 0, 72, 127
2, 295602, Note_off_c, 0, 72, 127
2, 295605, Note_on_c, 4, 76, 127
2, 295833, Note_off_c, 4, 76, 127
2, 295836, Note_on_c, 5, 77, 127
2, 296043, Note_off_c, 8, 56, 127
2, 296218, Note_off_c, 5, 77, 127
2, 296221, Note_on_c, 5, 53, 127
2, 296221, Note_on_c, 2, 74, 127
2, 296295, Note_off_c, 2, 74, 127
2, 296295, Note_off_c, 5, 53, 127
2, 296298, Note_on_c, 12, 59, 127
2, 296298, Note_on_c, 7, 79, 127
2, 296526, Note_off_c, 7, 79, 127
2, 296526, Note_off_c, 12, 59, 127
2, 296529, Note_on_c, 0, 60, 127
2, 296529, Note_on_c, 3, 75, 127
2, 296911, Note_off_c, 3, 75, 127
2, 296911, Note_off_c, 0, 60, 127
2, 296914, Note_on_c, 7, 55, 127
2, 296914, Note_on_c, 2, 74, 127
2, 296988, Note_off_c, 2, 74, 127
2, 296988, Note_off_c, 7, 55, 127
2, 296991, Note_on_c, 0, 60, 127
2, 296991, Note_on_c, 0, 72, 127
2, 297219, Note_off_c, 0, 72, 127
2, 297219, Note_off_c, 0, 60, 127
2, 297222, Note_on_c, 8, 56, 127
2, 297222, Note_on_c, 5, 77, 127
2, 297604, Note_off_c, 8, 56, 127
2, 297607, Note_on_c, 7, 55, 127
2, 297681, Note_off_c, 7, 55, 127
2, 297684, Note_on_c, 5, 53, 127
2, 297912, Note_off_c, 5, 53, 127
2, 297915, Note_on_c, 0, 60, 127
2, 298196, Note_off_c, 5, 77, 127
2, 298300, Note_on_c, 2, 74, 127
2, 298374, Note_off_c, 2, 74, 127
2, 298377, Note_on_c, 7, 79, 127
2, 298605, Note_off_c, 7, 79, 127
2, 298608, Note_on_c, 8, 80, 127
2, 298962, Note_off_c, 0, 60, 127
2, 298990, Note_off_c, 8, 80, 127
2, 298993, Note_on_c, 8, 56, 127
2, 298993, Note_on_c, 5, 77, 127
2, 299067, Note_off_c, 5, 77, 127
2, 299067, Note_off_c, 8, 56, 127
2, 299070, Note_on_c, 2, 62, 127
2, 299070, Note_on_c, 11, 82, 127
2, 299298, Note_off_c, 11, 82, 127
2, 299298, Note_off_c, 2, 62, 127
2, 299301, Note_on_c, 3, 63, 127
2, 299301, Note_on_c, 7, 79, 127
2, 299683, Note_off_c, 7, 79, 127
2, 299683, Note_off_c, 3, 63, 127
2, 299686, Note_on_c, 11, 58, 127
2, 299686, Note_on_c, 5, 77, 127
2, 299760, Note_off_c, 5, 77, 127
2, 299760, Note_off_c, 11, 58, 127
2, 299763, Note_on_c, 3, 63, 127
2, 299763, Note_on_c, 3, 75, 127
2, 299991, Note_off_c, 3, 75, 127
2, 299991, Note_off_c, 3, 63, 127
2, 299994, Note_on_c, 0, 60, 127
2, 299994, Note_on_c, 8, 80, 127
2, 300376, Note_off_c, 0, 60, 127
2, 300379, Note_on_c, 11, 58, 127
2, 300453, Note_off_c, 11, 58, 127
2, 300456, Note_on_c, 8, 56, 127
2, 300684, Note_off_c, 8, 56, 127
2, 300687, Note_on_c, 3, 63, 127
2, 300968, Note_off_c, 8, 80, 127
2, 301072, Note_on_c, 5, 77, 127
2, 301146, Note_off_c, 5, 77, 127
2, 301149, Note_on_c, 12, 83, 127
2, 301377, Note_off_c, 12, 83, 127
2, 301380, Note_on_c, 0, 84, 127
2, 301734, Note_off_c, 3, 63, 127
2, 301762, Note_off_c, 0, 84, 127
2, 301765, Note_on_c, 0, 60, 127
2, 301765, Note_on_c, 7, 79, 127
2, 301839, Note_off_c, 7, 79, 127
2, 301839, Note_off_c, 0, 60, 127
2, 301842, Note_on_c, 4, 64, 127
2, 301842, Note_on_c, 0, 72, 127
2, 302070, Note_off_c, 0, 72, 127
2, 302070, Note_off_c, 4, 64, 127
2, 302073, Note_on_c, 8, 56, 127
2, 302073, Note_on_c, 5, 77, 127
2, 302455, Note_off_c, 5, 77, 127
2, 302455, Note_off_c, 8, 56, 127
2, 302458, Note_on_c, 0, 60, 127
2, 302458, Note_on_c, 7, 79, 127
2, 302532, Note_off_c, 7, 79, 127
2, 302532, Note_off_c, 0, 60, 127
2, 302535, Note_on_c, 2, 50, 127
2, 302535, Note_on_c, 8, 80, 127
2, 302763, Note_off_c, 8, 80, 127
2, 302763, Note_off_c, 2, 50, 127
2, 302766, Note_on_c, 3, 51, 127
2, 302766, Note_on_c, 7, 79, 127
2, 302994, Note_off_c, 7, 79, 127
2, 302997, Note_on_c, 5, 77, 127
2, 303111, Note_off_c, 5, 77, 127
2, 303114, Note_on_c, 3, 75, 127
2, 303228, Note_off_c, 3, 75, 127
2, 303228, Note_off_c, 3, 51, 127
2, 303231, Note_on_c, 5, 53, 127
2, 303231, Note_on_c, 2, 74, 127
2, 303345, Note_off_c, 2, 74, 127
2, 303347, Note_on_c, 0, 72, 127
2, 303461, Note_off_c, 0, 72, 127
2, 303462, Note_off_c, 5, 53, 127
2, 303464, Note_on_c, 7, 55, 127
2, 303464, Note_on_c, 12, 71, 127
2, 303846, Note_off_c, 7, 55, 127
2, 303849, Note_on_c, 12, 47, 127
2, 303923, Note_off_c, 12, 47, 127
2, 303926, Note_on_c, 2, 50, 127
2, 304150, Note_off_c, 12, 71, 127
2, 304154, Note_off_c, 2, 50, 127
2, 304157, Note_on_c, 7, 43, 127
2, 304542, Note_on_c, 2, 74, 127
2, 304616, Note_off_c, 2, 74, 127
2, 304619, Note_off_c, 7, 43, 127
2, 304619, Note_on_c, 7, 79, 127
2, 304847, Note_off_c, 7, 79, 127
2, 304850, Note_on_c, 5, 77, 127
2, 304924, Note_off_c, 5, 77, 127
2, 304925, Note_on_c, 4, 76, 127
2, 304999, Note_off_c, 4, 76, 127
2, 305002, Note_on_c, 5, 77, 127
2, 305076, Note_off_c, 5, 77, 127
2, 305079, Note_on_c, 4, 76, 127
2, 305193, Note_off_c, 4, 76, 127
2, 305195, Note_on_c, 0, 48, 127
2, 305195, Note_on_c, 2, 74, 127
2, 305309, Note_off_c, 2, 74, 127
2, 305309, Note_off_c, 0, 48, 127
2, 305312, Note_on_c, 7, 55, 127
2, 305312, Note_on_c, 0, 72, 127
2, 305540, Note_off_c, 0, 72, 127
2, 305540, Note_off_c, 7, 55, 127
2, 305543, Note_on_c, 4, 52, 127
2, 305543, Note_on_c, 11, 82, 127
2, 305925, Note_off_c, 4, 52, 127
2, 305928, Note_on_c, 2, 50, 127
2, 306002, Note_off_c, 2, 50, 127
2, 306005, Note_on_c, 0, 48, 127
2, 306233, Note_off_c, 0, 48, 127
2, 306236, Note_on_c, 5, 53, 127
2, 306552, Note_off_c, 11, 82, 127
2, 306619, Note_on_c, 0, 84, 127
2, 306693, Note_off_c, 0, 84, 127
2, 306696, Note_on_c, 7, 79, 127
2, 306924, Note_off_c, 7, 79, 127
2, 306927, Note_on_c, 8, 80, 127
2, 307281, Note_off_c, 5, 53, 127
2, 307309, Note_off_c, 8, 80, 127
2, 307312, Note_on_c, 7, 55, 127
2, 307312, Note_on_c, 0, 72, 127
2, 307386, Note_off_c, 0, 72, 127
2, 307386, Note_off_c, 7, 55, 127
2, 307389, Note_on_c, 8, 56, 127
2, 307389, Note_on_c, 5, 77, 127
2, 307617, Note_off_c, 5, 77, 127
2, 307617, Note_off_c, 8, 56, 127
2, 307620, Note_on_c, 11, 58, 127
2, 307620, Note_on_c, 3, 75, 127
2, 307694, Note_off_c, 3, 75, 127
2, 307694, Note_on_c, 2, 74, 127
2, 307768, Note_off_c, 2, 74, 127
2, 307771, Note_on_c, 3, 75, 127
2, 307845, Note_off_c, 3, 75, 127
2, 307848, Note_on_c, 2, 74, 127
2, 307962, Note_off_c, 2, 74, 127
2, 307963, Note_off_c, 11, 58, 127
2, 307965, Note_on_c, 11, 46, 127
2, 307965, Note_on_c, 0, 72, 127
2, 308079, Note_off_c, 0, 72, 127
2, 308079, Note_off_c, 11, 46, 127
2, 308082, Note_on_c, 5, 53, 127
2, 308082, Note_on_c, 11, 70, 127
2, 308310, Note_off_c, 11, 70, 127
2, 308310, Note_off_c, 5, 53, 127
2, 308313, Note_on_c, 2, 50, 127
2, 308313, Note_on_c, 8, 80, 127
2, 308695, Note_off_c, 2, 50, 127
2, 308698, Note_on_c, 0, 48, 127
2, 308772, Note_off_c, 0, 48, 127
2, 308775, Note_on_c, 11, 46, 127
2, 309003, Note_off_c, 11, 46, 127
2, 309006, Note_on_c, 3, 51, 127
2, 309322, Note_off_c, 8, 80, 127
2, 309388, Note_on_c, 11, 82, 127
2, 309462, Note_off_c, 11, 82, 127
2, 309465, Note_on_c, 5, 77, 127
2, 309693, Note_off_c, 5, 77, 127
2, 309696, Note_on_c, 7, 79, 127
2, 310051, Note_off_c, 3, 51, 127
2, 310078, Note_off_c, 7, 79, 127
2, 310081, Note_on_c, 7, 55, 127
2, 310081, Note_on_c, 3, 75, 127
2, 310155, Note_off_c, 3, 75, 127
2, 310155, Note_off_c, 7, 55, 127
2, 310158, Note_on_c, 0, 60, 127
2, 310158, Note_on_c, 0, 72, 127
2, 310386, Note_off_c, 0, 72, 127
2, 310386, Note_off_c, 0, 60, 127
2, 310389, Note_on_c, 3, 63, 127
2, 310389, Note_on_c, 10, 69, 127
2, 310771, Note_off_c, 3, 63, 127
2, 310774, Note_on_c, 0, 60, 127
2, 310848, Note_off_c, 0, 60, 127
2, 310851, Note_on_c, 10, 57, 127
2, 311079, Note_off_c, 10, 57, 127
2, 311082, Note_on_c, 5, 53, 127
2, 311398, Note_off_c, 10, 69, 127
2, 311464, Note_off_c, 5, 53, 127
2, 311467, Note_on_c, 10, 57, 127
2, 311467, Note_on_c, 5, 77, 127
2, 311541, Note_off_c, 5, 77, 127
2, 311541, Note_off_c, 10, 57, 127
2, 311544, Note_on_c, 2, 62, 127
2, 311544, Note_on_c, 2, 74, 127
2, 311772, Note_off_c, 2, 74, 127
2, 311772, Note_off_c, 2, 62, 127
2, 311775, Note_on_c, 5, 65, 127
2, 311775, Note_on_c, 12, 71, 127
2, 312157, Note_off_c, 5, 65, 127
2, 312160, Note_on_c, 2, 62, 127
2, 312234, Note_off_c, 2, 62, 127
2, 312237, Note_on_c, 12, 59, 127
2, 312465, Note_off_c, 12, 59, 127
2, 312468, Note_on_c, 7, 55, 127
2, 312784, Note_off_c, 12, 71, 127
2, 312851, Note_on_c, 7, 79, 127
2, 312925, Note_off_c, 7, 79, 127
2, 312928, Note_on_c, 3, 75, 127
2, 313156, Note_off_c, 3, 75, 127
2, 313159, Note_on_c, 0, 72, 127
2, 313387, Note_off_c, 0, 72, 127
2, 313387, Note_off_c, 7, 55, 127
2, 313390, Note_on_c, 0, 60, 127
2, 313390, Note_on_c, 8, 80, 127
2, 313504, Note_off_c, 8, 80, 127
2, 313504, Note_off_c, 0, 60, 127
2, 313507, Note_on_c, 11, 58, 127
2, 313507, Note_on_c, 7, 79, 127
2, 313621, Note_off_c, 7, 79, 127
2, 313621, Note_off_c, 11, 58, 127
2, 313623, Note_on_c, 8, 56, 127
2, 313623, Note_on_c, 5, 77, 127
2, 313737, Note_off_c, 5, 77, 127
2, 313737, Note_off_c, 8, 56, 127
2, 313740, Note_on_c, 7, 55, 127
2, 313740, Note_on_c, 3, 75, 127
2, 313854, Note_off_c, 3, 75, 127
2, 313854, Note_off_c, 7, 55, 127
2, 313857, Note_on_c, 5, 53, 127
2, 313857, Note_on_c, 1, 73, 127
2, 313971, Note_off_c, 1, 73, 127
2, 313973, Note_on_c, 0, 72, 127
2, 314087, Note_off_c, 0, 72, 127
2, 314090, Note_on_c, 1, 73, 127
2, 314204, Note_off_c, 1, 73, 127
2, 314204, Note_off_c, 5, 53, 127
2, 314206, Note_on_c, 0, 60, 127
2, 314206, Note_on_c, 3, 75, 127
2, 314320, Note_off_c, 3, 75, 127
2, 314320, Note_off_c, 0, 60, 127
2, 314323, Note_on_c, 8, 56, 127
2, 314323, Note_on_c, 5, 77, 127
2, 314437, Note_off_c, 5, 77, 127
2, 314440, Note_on_c, 1, 73, 127
2, 314554, Note_off_c, 1, 73, 127
2, 314554, Note_off_c, 8, 56, 127
2, 314556, Note_on_c, 5, 53, 127
2, 314556, Note_on_c, 12, 71, 127
2, 314670, Note_off_c, 12, 71, 127
2, 314673, Note_on_c, 10, 69, 127
2, 314787, Note_off_c, 10, 69, 127
2, 314789, Note_on_c, 12, 71, 127
2, 314903, Note_off_c, 12, 71, 127
2, 314903, Note_off_c, 5, 53, 127
2, 314906, Note_on_c, 0, 60, 127
2, 314906, Note_on_c, 0, 72, 127
2, 315020, Note_off_c, 0, 72, 127
2, 315020, Note_off_c, 0, 60, 127
2, 315023, Note_on_c, 8, 56, 127
2, 315023, Note_on_c, 2, 74, 127
2, 315137, Note_off_c, 2, 74, 127
2, 315139, Note_on_c, 12, 71, 127
2, 315253, Note_off_c, 12, 71, 127
2, 315254, Note_off_c, 8, 56, 127
2, 315256, Note_on_c, 5, 53, 127
2, 315256, Note_on_c, 8, 68, 127
2, 315599, Note_off_c, 8, 68, 127
2, 315638, Note_off_c, 5, 53, 127
2, 315641, Note_on_c, 12, 59, 127
2, 315641, Note_on_c, 7, 67, 127
2, 315715, Note_off_c, 7, 67, 127
2, 315715, Note_off_c, 12, 59, 127
2, 315718, Note_on_c, 7, 55, 127
2, 315718, Note_on_c, 5, 77, 127
2, 315946, Note_off_c, 5, 77, 127
2, 315946, Note_off_c, 7, 55, 127
2, 315949, Note_on_c, 0, 60, 127
2, 315949, Note_on_c, 5, 77, 127
2, 316023, Note_off_c, 5, 77, 127
2, 316024, Note_on_c, 3, 75, 127
2, 316098, Note_off_c, 3, 75, 127
2, 316101, Note_on_c, 5, 77, 127
2, 316175, Note_off_c, 5, 77, 127
2, 316178, Note_on_c, 3, 75, 127
2, 316292, Note_off_c, 3, 75, 127
2, 316292, Note_off_c, 0, 60, 127
2, 316294, Note_on_c, 7, 55, 127
2, 316294, Note_on_c, 2, 74, 127
2, 316408, Note_off_c, 2, 74, 127
2, 316408, Note_off_c, 7, 55, 127
2, 316411, Note_on_c, 8, 56, 127
2, 316411, Note_on_c, 0, 72, 127
2, 316639, Note_off_c, 0, 72, 127
2, 316639, Note_off_c, 8, 56, 127
2, 316642, Note_on_c, 5, 53, 127
2, 316642, Note_on_c, 0, 72, 127
2, 316756, Note_off_c, 0, 72, 127
2, 316758, Note_on_c, 3, 75, 127
2, 316872, Note_off_c, 3, 75, 127
2, 316873, Note_off_c, 5, 53, 127
2, 316875, Note_on_c, 7, 55, 127
2, 316875, Note_on_c, 2, 74, 127
2, 316989, Note_off_c, 2, 74, 127
2, 316992, Note_on_c, 0, 72, 127
2, 317106, Note_off_c, 0, 72, 127
2, 317106, Note_off_c, 7, 55, 127
2, 317108, Note_on_c, 7, 43, 127
2, 317108, Note_on_c, 12, 71, 127
2, 317222, Note_off_c, 12, 71, 127
2, 317225, Note_on_c, 0, 72, 127
2, 317339, Note_off_c, 0, 72, 127
2, 317339, Note_off_c, 7, 43, 127
2, 317341, Note_on_c, 8, 44, 127
2, 317341, Note_on_c, 0, 72, 127
2, 317455, Note_off_c, 8, 44, 127
2, 317458, Note_on_c, 11, 46, 127
2, 317572, Note_off_c, 11, 46, 127
2, 317575, Note_on_c, 8, 44, 127
2, 317689, Note_off_c, 8, 44, 127
2, 317691, Note_on_c, 7, 43, 127
2, 317805, Note_off_c, 7, 43, 127
2, 317808, Note_on_c, 8, 44, 127
2, 317922, Note_off_c, 8, 44, 127
2, 317924, Note_on_c, 5, 41, 127
2, 318038, Note_off_c, 5, 41, 127
2, 318041, Note_on_c, 5, 53, 127
2, 318069, Note_off_c, 0, 72, 127
2, 318155, Note_on_c, 11, 70, 127
2, 318269, Note_off_c, 11, 70, 127
2, 318272, Note_on_c, 8, 68, 127
2, 318386, Note_off_c, 8, 68, 127
2, 318389, Note_on_c, 7, 67, 127
2, 318503, Note_off_c, 7, 67, 127
2, 318507, Note_on_c, 8, 68, 127
2, 318623, Note_off_c, 8, 68, 127
2, 318628, Note_on_c, 5, 65, 127
2, 318744, Note_off_c, 5, 65, 127
2, 318749, Note_on_c, 2, 74, 127
2, 319094, Note_off_c, 5, 53, 127
2, 319145, Note_on_c, 2, 50, 127
2, 319222, Note_off_c, 2, 50, 127
2, 319225, Note_on_c, 5, 53, 127
2, 319460, Note_off_c, 5, 53, 127
2, 319464, Note_on_c, 8, 56, 127
2, 319494, Note_off_c, 2, 74, 127
2, 319583, Note_on_c, 3, 75, 127
2, 319699, Note_off_c, 3, 75, 127
2, 319704, Note_on_c, 2, 74, 127
2, 319820, Note_off_c, 2, 74, 127
2, 319825, Note_on_c, 0, 72, 127
2, 319941, Note_off_c, 0, 72, 127
2, 319946, Note_on_c, 2, 74, 127
2, 320062, Note_off_c, 2, 74, 127
2, 320067, Note_on_c, 12, 71, 127
2, 320183, Note_off_c, 12, 71, 127
2, 320188, Note_on_c, 5, 77, 127
2, 320304, Note_off_c, 5, 77, 127
2, 320309, Note_on_c, 7, 79, 127
2, 320425, Note_off_c, 7, 79, 127
2, 320430, Note_on_c, 5, 77, 127
2, 320500, Note_off_c, 8, 56, 127
2, 320546, Note_off_c, 5, 77, 127
2, 320551, Note_on_c, 5, 53, 127
2, 320551, Note_on_c, 3, 75, 127
2, 320667, Note_off_c, 3, 75, 127
2, 320667, Note_off_c, 5, 53, 127
2, 320672, Note_on_c, 8, 56, 127
2, 320672, Note_on_c, 5, 77, 127
2, 320788, Note_off_c, 5, 77, 127
2, 320793, Note_on_c, 2, 74, 127
2, 320909, Note_off_c, 2, 74, 127
2, 320909, Note_off_c, 8, 56, 127
2, 320914, Note_on_c, 12, 59, 127
2, 320914, Note_on_c, 8, 80, 127
2, 321290, Note_off_c, 12, 59, 127
2, 321292, Note_off_c, 8, 80, 127
2, 321323, Note_on_c, 7, 79, 127
2, 321323, Note_on_c, 2, 62, 127
2, 321404, Note_off_c, 2, 62, 127
2, 321404, Note_off_c, 7, 79, 127
2, 321409, Note_on_c, 5, 77, 127
2, 321409, Note_on_c, 7, 55, 127
2, 321655, Note_off_c, 7, 55, 127
2, 321655, Note_off_c, 5, 77, 127
2, 321662, Note_on_c, 3, 75, 127
2, 321662, Note_on_c, 0, 60, 127
2, 321780, Note_off_c, 3, 75, 127
2, 321788, Note_on_c, 2, 74, 127
2, 321906, Note_off_c, 2, 74, 127
2, 321913, Note_on_c, 3, 75, 127
2, 322031, Note_off_c, 3, 75, 127
2, 322033, Note_off_c, 0, 60, 127
2, 322038, Note_on_c, 7, 79, 127
2, 322038, Note_on_c, 0, 48, 127
2, 322156, Note_off_c, 0, 48, 127
2, 322156, Note_off_c, 7, 79, 127
2, 322162, Note_on_c, 0, 84, 127
2, 322162, Note_on_c, 3, 51, 127
2, 322280, Note_off_c, 0, 84, 127
2, 322287, Note_on_c, 7, 79, 127
2, 322405, Note_off_c, 7, 79, 127
2, 322406, Note_off_c, 3, 51, 127
2, 322412, Note_on_c, 3, 75, 127
2, 322412, Note_on_c, 7, 55, 127
2, 322827, Note_off_c, 3, 75, 127
2, 322833, Note_on_c, 5, 77, 127
2, 322887, Note_off_c, 7, 55, 127
2, 322916, Note_off_c, 5, 77, 127
2, 322921, Note_on_c, 2, 74, 127
2, 322921, Note_on_c, 7, 43, 127
2, 323156, Note_off_c, 7, 43, 127
2, 323180, Note_off_c, 2, 74, 127
2, 323189, Note_on_c, 0, 72, 127
2, 323189, Note_on_c, 0, 48, 127
2, 323273, Note_on_c, 12, 71, 127
2, 323274, Note_off_c, 0, 72, 127
2, 323350, Note_on_c, 0, 72, 127
2, 323365, Note_off_c, 12, 71, 127
2, 323629, Note_off_c, 0, 48, 127
2, 323708, Note_on_c, 3, 39, 127
2, 323826, Note_off_c, 3, 39, 127
2, 323833, Note_on_c, 7, 43, 127
2, 324233, Note_off_c, 7, 43, 127
2, 324279, Note_on_c, 0, 36, 127
2, 326350, Note_off_c, 0, 72, 127
2, 326679, Note_off_c, 0, 36, 127
2, 331776, End_track
3, 0, Start_track
3, 0, Title_t, "MIDI"
3, 1536, End_track
0, 0, End_of_file
