0, 0, Header, 1, 4, 240
1, 0, Start_track
1, 0, Time_signature, 1, 1, 48, 8
1, 0, Tempo, 375000
1, 480, Time_signature, 4, 2, 48, 8
1, 7200, Time_signature, 1, 1, 48, 8
1, 7680, Time_signature, 1, 1, 48, 8
1, 8160, Time_signature, 4, 2, 48, 8
1, 14880, Time_signature, 1, 1, 48, 8
1, 15840, Time_signature, 4, 2, 48, 8
1, 30240, Time_signature, 1, 1, 48, 8
1, 31200, Time_signature, 4, 2, 48, 8
1, 45600, Time_signature, 1, 1, 48, 8
1, 45600, End_track
2, 0, Start_track
2, 0, Title_t, "English Suite 6, 6b Gavotte 2"
2, 0, Program_c, 0, 0
2, 0, Note_on_c, 0, 78, 110
2, 180, Note_off_c, 0, 78, 64
2, 240, Note_on_c, 0, 78, 110
2, 420, Note_off_c, 0, 78, 64
2, 480, Note_on_c, 0, 79, 110
2, 504, Note_off_c, 0, 79, 64
2, 510, Note_on_c, 0, 78, 110
2, 534, Note_off_c, 0, 78, 64
2, 540, Note_on_c, 0, 79, 110
2, 564, Note_off_c, 0, 79, 64
2, 570, Note_on_c, 0, 78, 110
2, 825, Note_off_c, 0, 78, 64
2, 840, Note_on_c, 0, 76, 110
2, 888, Note_off_c, 0, 76, 64
2, 900, Note_on_c, 0, 78, 110
2, 948, Note_off_c, 0, 78, 64
2, 960, Note_on_c, 0, 79, 110
2, 1140, Note_off_c, 0, 79, 64
2, 1200, Note_on_c, 0, 78, 110
2, 1380, Note_off_c, 0, 78, 64
2, 1440, Note_on_c, 0, 76, 110
2, 1824, Note_off_c, 0, 76, 64
2, 1920, Note_on_c, 0, 76, 110
2, 2100, Note_off_c, 0, 76, 64
2, 2160, Note_on_c, 0, 76, 110
2, 2340, Note_off_c, 0, 76, 64
2, 2400, Note_on_c, 0, 78, 110
2, 2424, Note_off_c, 0, 78, 64
2, 2430, Note_on_c, 0, 76, 110
2, 2454, Note_off_c, 0, 76, 64
2, 2460, Note_on_c, 0, 78, 110
2, 2484, Note_off_c, 0, 78, 64
2, 2490, Note_on_c, 0, 76, 110
2, 2514, Note_off_c, 0, 76, 64
2, 2520, Note_on_c, 0, 76, 110
2, 2712, Note_off_c, 0, 76, 64
2, 2760, Note_on_c, 0, 74, 110
2, 2808, Note_off_c, 0, 74, 64
2, 2820, Note_on_c, 0, 76, 110
2, 2868, Note_off_c, 0, 76, 64
2, 2880, Note_on_c, 0, 78, 110
2, 2976, Note_off_c, 0, 78, 64
2, 3000, Note_on_c, 0, 74, 110
2, 3096, Note_off_c, 0, 74, 64
2, 3120, Note_on_c, 0, 76, 110
2, 3216, Note_off_c, 0, 76, 64
2, 3240, Note_on_c, 0, 73, 110
2, 3336, Note_off_c, 0, 73, 64
2, 3360, Note_on_c, 0, 74, 110
2, 3552, Note_off_c, 0, 74, 64
2, 3600, Note_on_c, 0, 69, 110
2, 3792, Note_off_c, 0, 69, 64
2, 3840, Note_on_c, 0, 78, 110
2, 4020, Note_off_c, 0, 78, 64
2, 4080, Note_on_c, 0, 78, 110
2, 4260, Note_off_c, 0, 78, 64
2, 4320, Note_on_c, 0, 79, 110
2, 4344, Note_off_c, 0, 79, 64
2, 4350, Note_on_c, 0, 78, 110
2, 4374, Note_off_c, 0, 78, 64
2, 4380, Note_on_c, 0, 79, 110
2, 4404, Note_off_c, 0, 79, 64
2, 4410, Note_on_c, 0, 78, 110
2, 4632, Note_off_c, 0, 78, 64
2, 4680, Note_on_c, 0, 76, 110
2, 4728, Note_off_c, 0, 76, 64
2, 4740, Note_on_c, 0, 78, 110
2, 4788, Note_off_c, 0, 78, 64
2, 4800, Note_on_c, 0, 79, 110
2, 4980, Note_off_c, 0, 79, 64
2, 5040, Note_on_c, 0, 78, 110
2, 5220, Note_off_c, 0, 78, 64
2, 5280, Note_on_c, 0, 76, 110
2, 5472, Note_off_c, 0, 76, 64
2, 5520, Note_on_c, 0, 83, 110
2, 5616, Note_off_c, 0, 83, 64
2, 5640, Note_on_c, 0, 81, 110
2, 5736, Note_off_c, 0, 81, 64
2, 5760, Note_on_c, 0, 79, 110
2, 5856, Note_off_c, 0, 79, 64
2, 5880, Note_on_c, 0, 78, 110
2, 5976, Note_off_c, 0, 78, 64
2, 6000, Note_on_c, 0, 76, 110
2, 6096, Note_off_c, 0, 76, 64
2, 6120, Note_on_c, 0, 74, 110
2, 6216, Note_off_c, 0, 74, 64
2, 6240, Note_on_c, 0, 73, 110
2, 6336, Note_off_c, 0, 73, 64
2, 6360, Note_on_c, 0, 71, 110
2, 6456, Note_off_c, 0, 71, 64
2, 6480, Note_on_c, 0, 69, 110
2, 6576, Note_off_c, 0, 69, 64
2, 6600, Note_on_c, 0, 71, 110
2, 6696, Note_off_c, 0, 71, 64
2, 6720, Note_on_c, 0, 73, 110
2, 6816, Note_off_c, 0, 73, 64
2, 6840, Note_on_c, 0, 74, 110
2, 6936, Note_off_c, 0, 74, 64
2, 6960, Note_on_c, 0, 76, 110
2, 7056, Note_off_c, 0, 76, 64
2, 7080, Note_on_c, 0, 73, 110
2, 7176, Note_off_c, 0, 73, 64
2, 7200, Note_on_c, 0, 74, 110
2, 7584, Note_off_c, 0, 74, 64
2, 7680, Note_on_c, 0, 78, 110
2, 7860, Note_off_c, 0, 78, 64
2, 7920, Note_on_c, 0, 78, 110
2, 8100, Note_off_c, 0, 78, 64
2, 8160, Note_on_c, 0, 79, 110
2, 8184, Note_off_c, 0, 79, 64
2, 8190, Note_on_c, 0, 78, 110
2, 8214, Note_off_c, 0, 78, 64
2, 8220, Note_on_c, 0, 79, 110
2, 8244, Note_off_c, 0, 79, 64
2, 8250, Note_on_c, 0, 78, 110
2, 8505, Note_off_c, 0, 78, 64
2, 8520, Note_on_c, 0, 76, 110
2, 8568, Note_off_c, 0, 76, 64
2, 8580, Note_on_c, 0, 78, 110
2, 8628, Note_off_c, 0, 78, 64
2, 8640, Note_on_c, 0, 79, 110
2, 8820, Note_off_c, 0, 79, 64
2, 8880, Note_on_c, 0, 78, 110
2, 9060, Note_off_c, 0, 78, 64
2, 9120, Note_on_c, 0, 76, 110
2, 9504, Note_off_c, 0, 76, 64
2, 9600, Note_on_c, 0, 76, 110
2, 9780, Note_off_c, 0, 76, 64
2, 9840, Note_on_c, 0, 76, 110
2, 10020, Note_off_c, 0, 76, 64
2, 10080, Note_on_c, 0, 78, 110
2, 10104, Note_off_c, 0, 78, 64
2, 10110, Note_on_c, 0, 76, 110
2, 10134, Note_off_c, 0, 76, 64
2, 10140, Note_on_c, 0, 78, 110
2, 10164, Note_off_c, 0, 78, 64
2, 10170, Note_on_c, 0, 76, 110
2, 10194, Note_off_c, 0, 76, 64
2, 10200, Note_on_c, 0, 76, 110
2, 10392, Note_off_c, 0, 76, 64
2, 10440, Note_on_c, 0, 74, 110
2, 10488, Note_off_c, 0, 74, 64
2, 10500, Note_on_c, 0, 76, 110
2, 10548, Note_off_c, 0, 76, 64
2, 10560, Note_on_c, 0, 78, 110
2, 10656, Note_off_c, 0, 78, 64
2, 10680, Note_on_c, 0, 74, 110
2, 10776, Note_off_c, 0, 74, 64
2, 10800, Note_on_c, 0, 76, 110
2, 10896, Note_off_c, 0, 76, 64
2, 10920, Note_on_c, 0, 73, 110
2, 11016, Note_off_c, 0, 73, 64
2, 11040, Note_on_c, 0, 74, 110
2, 11232, Note_off_c, 0, 74, 64
2, 11280, Note_on_c, 0, 69, 110
2, 11472, Note_off_c, 0, 69, 64
2, 11520, Note_on_c, 0, 78, 110
2, 11700, Note_off_c, 0, 78, 64
2, 11760, Note_on_c, 0, 78, 110
2, 11940, Note_off_c, 0, 78, 64
2, 12000, Note_on_c, 0, 79, 110
2, 12024, Note_off_c, 0, 79, 64
2, 12030, Note_on_c, 0, 78, 110
2, 12054, Note_off_c, 0, 78, 64
2, 12060, Note_on_c, 0, 79, 110
2, 12084, Note_off_c, 0, 79, 64
2, 12090, Note_on_c, 0, 78, 110
2, 12312, Note_off_c, 0, 78, 64
2, 12360, Note_on_c, 0, 76, 110
2, 12408, Note_off_c, 0, 76, 64
2, 12420, Note_on_c, 0, 78, 110
2, 12468, Note_off_c, 0, 78, 64
2, 12480, Note_on_c, 0, 79, 110
2, 12660, Note_off_c, 0, 79, 64
2, 12720, Note_on_c, 0, 78, 110
2, 12900, Note_off_c, 0, 78, 64
2, 12960, Note_on_c, 0, 76, 110
2, 13152, Note_off_c, 0, 76, 64
2, 13200, Note_on_c, 0, 83, 110
2, 13296, Note_off_c, 0, 83, 64
2, 13320, Note_on_c, 0, 81, 110
2, 13416, Note_off_c, 0, 81, 64
2, 13440, Note_on_c, 0, 79, 110
2, 13536, Note_off_c, 0, 79, 64
2, 13560, Note_on_c, 0, 78, 110
2, 13656, Note_off_c, 0, 78, 64
2, 13680, Note_on_c, 0, 76, 110
2, 13776, Note_off_c, 0, 76, 64
2, 13800, Note_on_c, 0, 74, 110
2, 13896, Note_off_c, 0, 74, 64
2, 13920, Note_on_c, 0, 73, 110
2, 14016, Note_off_c, 0, 73, 64
2, 14040, Note_on_c, 0, 71, 110
2, 14136, Note_off_c, 0, 71, 64
2, 14160, Note_on_c, 0, 69, 110
2, 14256, Note_off_c, 0, 69, 64
2, 14280, Note_on_c, 0, 71, 110
2, 14376, Note_off_c, 0, 71, 64
2, 14400, Note_on_c, 0, 73, 110
2, 14496, Note_off_c, 0, 73, 64
2, 14520, Note_on_c, 0, 74, 110
2, 14616, Note_off_c, 0, 74, 64
2, 14640, Note_on_c, 0, 76, 110
2, 14736, Note_off_c, 0, 76, 64
2, 14760, Note_on_c, 0, 73, 110
2, 14856, Note_off_c, 0, 73, 64
2, 14880, Note_on_c, 0, 74, 110
2, 15264, Note_off_c, 0, 74, 64
2, 15360, Note_on_c, 0, 81, 110
2, 15540, Note_off_c, 0, 81, 64
2, 15600, Note_on_c, 0, 81, 110
2, 15780, Note_off_c, 0, 81, 64
2, 15840, Note_on_c, 0, 83, 110
2, 15864, Note_off_c, 0, 83, 64
2, 15870, Note_on_c, 0, 81, 110
2, 15894, Note_off_c, 0, 81, 64
2, 15900, Note_on_c, 0, 83, 110
2, 15924, Note_off_c, 0, 83, 64
2, 15930, Note_on_c, 0, 81, 110
2, 15954, Note_off_c, 0, 81, 64
2, 15960, Note_on_c, 0, 83, 110
2, 15984, Note_off_c, 0, 83, 64
2, 15990, Note_on_c, 0, 81, 110
2, 16014, Note_off_c, 0, 81, 64
2, 16020, Note_on_c, 0, 83, 110
2, 16044, Note_off_c, 0, 83, 64
2, 16050, Note_on_c, 0, 81, 110
2, 16074, Note_off_c, 0, 81, 64
2, 16080, Note_on_c, 0, 83, 110
2, 16104, Note_off_c, 0, 83, 64
2, 16110, Note_on_c, 0, 81, 110
2, 16134, Note_off_c, 0, 81, 64
2, 16140, Note_on_c, 0, 83, 110
2, 16164, Note_off_c, 0, 83, 64
2, 16170, Note_on_c, 0, 81, 110
2, 16194, Note_off_c, 0, 81, 64
2, 16200, Note_on_c, 0, 79, 110
2, 16248, Note_off_c, 0, 79, 64
2, 16260, Note_on_c, 0, 81, 110
2, 16308, Note_off_c, 0, 81, 64
2, 16320, Note_on_c, 0, 83, 110
2, 16416, Note_off_c, 0, 83, 64
2, 16440, Note_on_c, 0, 81, 110
2, 16536, Note_off_c, 0, 81, 64
2, 16560, Note_on_c, 0, 79, 110
2, 16656, Note_off_c, 0, 79, 64
2, 16680, Note_on_c, 0, 78, 110
2, 16776, Note_off_c, 0, 78, 64
2, 16800, Note_on_c, 0, 79, 110
2, 16992, Note_off_c, 0, 79, 64
2, 17040, Note_on_c, 0, 74, 110
2, 17232, Note_off_c, 0, 74, 64
2, 17280, Note_on_c, 0, 79, 110
2, 17460, Note_off_c, 0, 79, 64
2, 17520, Note_on_c, 0, 81, 110
2, 17700, Note_off_c, 0, 81, 64
2, 17760, Note_on_c, 0, 83, 110
2, 17856, Note_off_c, 0, 83, 64
2, 17880, Note_on_c, 0, 84, 110
2, 17976, Note_off_c, 0, 84, 64
2, 18000, Note_on_c, 0, 83, 110
2, 18096, Note_off_c, 0, 83, 64
2, 18120, Note_on_c, 0, 81, 110
2, 18216, Note_off_c, 0, 81, 64
2, 18240, Note_on_c, 0, 79, 110
2, 18336, Note_off_c, 0, 79, 64
2, 18360, Note_on_c, 0, 78, 110
2, 18456, Note_off_c, 0, 78, 64
2, 18480, Note_on_c, 0, 76, 110
2, 18576, Note_off_c, 0, 76, 64
2, 18600, Note_on_c, 0, 74, 110
2, 18696, Note_off_c, 0, 74, 64
2, 18720, Note_on_c, 0, 79, 110
2, 19104, Note_off_c, 0, 79, 64
2, 19200, Note_on_c, 0, 76, 110
2, 19380, Note_off_c, 0, 76, 64
2, 19440, Note_on_c, 0, 76, 110
2, 19620, Note_off_c, 0, 76, 64
2, 19680, Note_on_c, 0, 76, 110
2, 19968, Note_off_c, 0, 76, 64
2, 20040, Note_on_c, 0, 78, 110
2, 20136, Note_off_c, 0, 78, 64
2, 20160, Note_on_c, 0, 79, 110
2, 20256, Note_off_c, 0, 79, 64
2, 20280, Note_on_c, 0, 81, 110
2, 20376, Note_off_c, 0, 81, 64
2, 20400, Note_on_c, 0, 79, 110
2, 20496, Note_off_c, 0, 79, 64
2, 20520, Note_on_c, 0, 78, 110
2, 20616, Note_off_c, 0, 78, 64
2, 20640, Note_on_c, 0, 76, 110
2, 20736, Note_off_c, 0, 76, 64
2, 20760, Note_on_c, 0, 74, 110
2, 20856, Note_off_c, 0, 74, 64
2, 20880, Note_on_c, 0, 73, 110
2, 20976, Note_off_c, 0, 73, 64
2, 21000, Note_on_c, 0, 74, 110
2, 21096, Note_off_c, 0, 74, 64
2, 21120, Note_on_c, 0, 76, 110
2, 21216, Note_off_c, 0, 76, 64
2, 21240, Note_on_c, 0, 78, 110
2, 21336, Note_off_c, 0, 78, 64
2, 21360, Note_on_c, 0, 79, 110
2, 21456, Note_off_c, 0, 79, 64
2, 21480, Note_on_c, 0, 83, 110
2, 21576, Note_off_c, 0, 83, 64
2, 21600, Note_on_c, 0, 81, 110
2, 21696, Note_off_c, 0, 81, 64
2, 21720, Note_on_c, 0, 79, 110
2, 21816, Note_off_c, 0, 79, 64
2, 21840, Note_on_c, 0, 78, 110
2, 21936, Note_off_c, 0, 78, 64
2, 21960, Note_on_c, 0, 76, 110
2, 22056, Note_off_c, 0, 76, 64
2, 22080, Note_on_c, 0, 78, 110
2, 22128, Note_off_c, 0, 78, 64
2, 22140, Note_on_c, 0, 81, 110
2, 22188, Note_off_c, 0, 81, 64
2, 22200, Note_on_c, 0, 78, 110
2, 22248, Note_off_c, 0, 78, 64
2, 22260, Note_on_c, 0, 81, 110
2, 22308, Note_off_c, 0, 81, 64
2, 22320, Note_on_c, 0, 78, 110
2, 22368, Note_off_c, 0, 78, 64
2, 22380, Note_on_c, 0, 81, 110
2, 22428, Note_off_c, 0, 81, 64
2, 22440, Note_on_c, 0, 78, 110
2, 22488, Note_off_c, 0, 78, 64
2, 22500, Note_on_c, 0, 81, 110
2, 22548, Note_off_c, 0, 81, 64
2, 22560, Note_on_c, 0, 76, 110
2, 22944, Note_off_c, 0, 76, 64
2, 23040, Note_on_c, 0, 78, 110
2, 23220, Note_off_c, 0, 78, 64
2, 23280, Note_on_c, 0, 78, 110
2, 23460, Note_off_c, 0, 78, 64
2, 23520, Note_on_c, 0, 79, 110
2, 23544, Note_off_c, 0, 79, 64
2, 23550, Note_on_c, 0, 78, 110
2, 23574, Note_off_c, 0, 78, 64
2, 23580, Note_on_c, 0, 79, 110
2, 23604, Note_off_c, 0, 79, 64
2, 23610, Note_on_c, 0, 78, 110
2, 23634, Note_off_c, 0, 78, 64
2, 23640, Note_on_c, 0, 79, 110
2, 23664, Note_off_c, 0, 79, 64
2, 23670, Note_on_c, 0, 78, 110
2, 23694, Note_off_c, 0, 78, 64
2, 23700, Note_on_c, 0, 79, 110
2, 23724, Note_off_c, 0, 79, 64
2, 23730, Note_on_c, 0, 78, 110
2, 23754, Note_off_c, 0, 78, 64
2, 23760, Note_on_c, 0, 79, 110
2, 23784, Note_off_c, 0, 79, 64
2, 23790, Note_on_c, 0, 78, 110
2, 23814, Note_off_c, 0, 78, 64
2, 23820, Note_on_c, 0, 79, 110
2, 23844, Note_off_c, 0, 79, 64
2, 23850, Note_on_c, 0, 78, 110
2, 23874, Note_off_c, 0, 78, 64
2, 23880, Note_on_c, 0, 76, 110
2, 23928, Note_off_c, 0, 76, 64
2, 23940, Note_on_c, 0, 78, 110
2, 23988, Note_off_c, 0, 78, 64
2, 24000, Note_on_c, 0, 79, 110
2, 24180, Note_off_c, 0, 79, 64
2, 24240, Note_on_c, 0, 74, 110
2, 24420, Note_off_c, 0, 74, 64
2, 24480, Note_on_c, 0, 76, 110
2, 24864, Note_off_c, 0, 76, 64
2, 24960, Note_on_c, 0, 76, 110
2, 25140, Note_off_c, 0, 76, 64
2, 25200, Note_on_c, 0, 76, 110
2, 25380, Note_off_c, 0, 76, 64
2, 25440, Note_on_c, 0, 78, 110
2, 25464, Note_off_c, 0, 78, 64
2, 25470, Note_on_c, 0, 76, 110
2, 25494, Note_off_c, 0, 76, 64
2, 25500, Note_on_c, 0, 78, 110
2, 25524, Note_off_c, 0, 78, 64
2, 25530, Note_on_c, 0, 76, 110
2, 25554, Note_off_c, 0, 76, 64
2, 25560, Note_on_c, 0, 78, 110
2, 25584, Note_off_c, 0, 78, 64
2, 25590, Note_on_c, 0, 76, 110
2, 25614, Note_off_c, 0, 76, 64
2, 25620, Note_on_c, 0, 78, 110
2, 25644, Note_off_c, 0, 78, 64
2, 25650, Note_on_c, 0, 76, 110
2, 25674, Note_off_c, 0, 76, 64
2, 25680, Note_on_c, 0, 78, 110
2, 25704, Note_off_c, 0, 78, 64
2, 25710, Note_on_c, 0, 76, 110
2, 25734, Note_off_c, 0, 76, 64
2, 25740, Note_on_c, 0, 78, 110
2, 25764, Note_off_c, 0, 78, 64
2, 25770, Note_on_c, 0, 76, 110
2, 25794, Note_off_c, 0, 76, 64
2, 25800, Note_on_c, 0, 74, 110
2, 25848, Note_off_c, 0, 74, 64
2, 25860, Note_on_c, 0, 76, 110
2, 25908, Note_off_c, 0, 76, 64
2, 25920, Note_on_c, 0, 78, 110
2, 26016, Note_off_c, 0, 78, 64
2, 26040, Note_on_c, 0, 74, 110
2, 26136, Note_off_c, 0, 74, 64
2, 26160, Note_on_c, 0, 76, 110
2, 26256, Note_off_c, 0, 76, 64
2, 26280, Note_on_c, 0, 73, 110
2, 26376, Note_off_c, 0, 73, 64
2, 26400, Note_on_c, 0, 74, 110
2, 26496, Note_off_c, 0, 74, 64
2, 26520, Note_on_c, 0, 69, 110
2, 26616, Note_off_c, 0, 69, 64
2, 26640, Note_on_c, 0, 74, 110
2, 26736, Note_off_c, 0, 74, 64
2, 26760, Note_on_c, 0, 76, 110
2, 26856, Note_off_c, 0, 76, 64
2, 26880, Note_on_c, 0, 78, 110
2, 27060, Note_off_c, 0, 78, 64
2, 27120, Note_on_c, 0, 78, 110
2, 27300, Note_off_c, 0, 78, 64
2, 27360, Note_on_c, 0, 79, 110
2, 27384, Note_off_c, 0, 79, 64
2, 27390, Note_on_c, 0, 78, 110
2, 27414, Note_off_c, 0, 78, 64
2, 27420, Note_on_c, 0, 79, 110
2, 27444, Note_off_c, 0, 79, 64
2, 27450, Note_on_c, 0, 78, 110
2, 27672, Note_off_c, 0, 78, 64
2, 27720, Note_on_c, 0, 76, 110
2, 27768, Note_off_c, 0, 76, 64
2, 27780, Note_on_c, 0, 78, 110
2, 27828, Note_off_c, 0, 78, 64
2, 27840, Note_on_c, 0, 79, 110
2, 27936, Note_off_c, 0, 79, 64
2, 27960, Note_on_c, 0, 78, 110
2, 28056, Note_off_c, 0, 78, 64
2, 28080, Note_on_c, 0, 76, 110
2, 28176, Note_off_c, 0, 76, 64
2, 28200, Note_on_c, 0, 74, 110
2, 28296, Note_off_c, 0, 74, 64
2, 28320, Note_on_c, 0, 83, 110
2, 28416, Note_off_c, 0, 83, 64
2, 28440, Note_on_c, 0, 81, 110
2, 28536, Note_off_c, 0, 81, 64
2, 28560, Note_on_c, 0, 80, 110
2, 28656, Note_off_c, 0, 80, 64
2, 28680, Note_on_c, 0, 78, 110
2, 28776, Note_off_c, 0, 78, 64
2, 28800, Note_on_c, 0, 80, 110
2, 28896, Note_off_c, 0, 80, 64
2, 28920, Note_on_c, 0, 81, 110
2, 29016, Note_off_c, 0, 81, 64
2, 29040, Note_on_c, 0, 83, 110
2, 29136, Note_off_c, 0, 83, 64
2, 29160, Note_on_c, 0, 80, 110
2, 29256, Note_off_c, 0, 80, 64
2, 29280, Note_on_c, 0, 81, 110
2, 29376, Note_off_c, 0, 81, 64
2, 29400, Note_on_c, 0, 78, 110
2, 29496, Note_off_c, 0, 78, 64
2, 29520, Note_on_c, 0, 76, 110
2, 29616, Note_off_c, 0, 76, 64
2, 29640, Note_on_c, 0, 74, 110
2, 29736, Note_off_c, 0, 74, 64
2, 29760, Note_on_c, 0, 73, 110
2, 29856, Note_off_c, 0, 73, 64
2, 29880, Note_on_c, 0, 71, 110
2, 29976, Note_off_c, 0, 71, 64
2, 30000, Note_on_c, 0, 73, 110
2, 30096, Note_off_c, 0, 73, 64
2, 30120, Note_on_c, 0, 69, 110
2, 30216, Note_off_c, 0, 69, 64
2, 30240, Note_on_c, 0, 74, 110
2, 30624, Note_off_c, 0, 74, 64
2, 30720, Note_on_c, 0, 81, 110
2, 30900, Note_off_c, 0, 81, 64
2, 30960, Note_on_c, 0, 81, 110
2, 31140, Note_off_c, 0, 81, 64
2, 31200, Note_on_c, 0, 83, 110
2, 31224, Note_off_c, 0, 83, 64
2, 31230, Note_on_c, 0, 81, 110
2, 31254, Note_off_c, 0, 81, 64
2, 31260, Note_on_c, 0, 83, 110
2, 31284, Note_off_c, 0, 83, 64
2, 31290, Note_on_c, 0, 81, 110
2, 31314, Note_off_c, 0, 81, 64
2, 31320, Note_on_c, 0, 83, 110
2, 31344, Note_off_c, 0, 83, 64
2, 31350, Note_on_c, 0, 81, 110
2, 31374, Note_off_c, 0, 81, 64
2, 31380, Note_on_c, 0, 83, 110
2, 31404, Note_off_c, 0, 83, 64
2, 31410, Note_on_c, 0, 81, 110
2, 31434, Note_off_c, 0, 81, 64
2, 31440, Note_on_c, 0, 83, 110
2, 31464, Note_off_c, 0, 83, 64
2, 31470, Note_on_c, 0, 81, 110
2, 31494, Note_off_c, 0, 81, 64
2, 31500, Note_on_c, 0, 83, 110
2, 31524, Note_off_c, 0, 83, 64
2, 31530, Note_on_c, 0, 81, 110
2, 31554, Note_off_c, 0, 81, 64
2, 31560, Note_on_c, 0, 79, 110
2, 31608, Note_off_c, 0, 79, 64
2, 31620, Note_on_c, 0, 81, 110
2, 31668, Note_off_c, 0, 81, 64
2, 31680, Note_on_c, 0, 83, 110
2, 31776, Note_off_c, 0, 83, 64
2, 31800, Note_on_c, 0, 81, 110
2, 31896, Note_off_c, 0, 81, 64
2, 31920, Note_on_c, 0, 79, 110
2, 32016, Note_off_c, 0, 79, 64
2, 32040, Note_on_c, 0, 78, 110
2, 32136, Note_off_c, 0, 78, 64
2, 32160, Note_on_c, 0, 79, 110
2, 32352, Note_off_c, 0, 79, 64
2, 32400, Note_on_c, 0, 74, 110
2, 32592, Note_off_c, 0, 74, 64
2, 32640, Note_on_c, 0, 79, 110
2, 32820, Note_off_c, 0, 79, 64
2, 32880, Note_on_c, 0, 81, 110
2, 33060, Note_off_c, 0, 81, 64
2, 33120, Note_on_c, 0, 83, 110
2, 33216, Note_off_c, 0, 83, 64
2, 33240, Note_on_c, 0, 84, 110
2, 33336, Note_off_c, 0, 84, 64
2, 33360, Note_on_c, 0, 83, 110
2, 33456, Note_off_c, 0, 83, 64
2, 33480, Note_on_c, 0, 81, 110
2, 33576, Note_off_c, 0, 81, 64
2, 33600, Note_on_c, 0, 79, 110
2, 33696, Note_off_c, 0, 79, 64
2, 33720, Note_on_c, 0, 78, 110
2, 33816, Note_off_c, 0, 78, 64
2, 33840, Note_on_c, 0, 76, 110
2, 33936, Note_off_c, 0, 76, 64
2, 33960, Note_on_c, 0, 74, 110
2, 34056, Note_off_c, 0, 74, 64
2, 34080, Note_on_c, 0, 79, 110
2, 34464, Note_off_c, 0, 79, 64
2, 34560, Note_on_c, 0, 76, 110
2, 34740, Note_off_c, 0, 76, 64
2, 34800, Note_on_c, 0, 76, 110
2, 34980, Note_off_c, 0, 76, 64
2, 35040, Note_on_c, 0, 76, 110
2, 35328, Note_off_c, 0, 76, 64
2, 35400, Note_on_c, 0, 78, 110
2, 35496, Note_off_c, 0, 78, 64
2, 35520, Note_on_c, 0, 79, 110
2, 35616, Note_off_c, 0, 79, 64
2, 35640, Note_on_c, 0, 81, 110
2, 35736, Note_off_c, 0, 81, 64
2, 35760, Note_on_c, 0, 79, 110
2, 35856, Note_off_c, 0, 79, 64
2, 35880, Note_on_c, 0, 78, 110
2, 35976, Note_off_c, 0, 78, 64
2, 36000, Note_on_c, 0, 76, 110
2, 36096, Note_off_c, 0, 76, 64
2, 36120, Note_on_c, 0, 74, 110
2, 36216, Note_off_c, 0, 74, 64
2, 36240, Note_on_c, 0, 73, 110
2, 36336, Note_off_c, 0, 73, 64
2, 36360, Note_on_c, 0, 74, 110
2, 36456, Note_off_c, 0, 74, 64
2, 36480, Note_on_c, 0, 76, 110
2, 36576, Note_off_c, 0, 76, 64
2, 36600, Note_on_c, 0, 78, 110
2, 36696, Note_off_c, 0, 78, 64
2, 36720, Note_on_c, 0, 79, 110
2, 36816, Note_off_c, 0, 79, 64
2, 36840, Note_on_c, 0, 83, 110
2, 36936, Note_off_c, 0, 83, 64
2, 36960, Note_on_c, 0, 81, 110
2, 37056, Note_off_c, 0, 81, 64
2, 37080, Note_on_c, 0, 79, 110
2, 37176, Note_off_c, 0, 79, 64
2, 37200, Note_on_c, 0, 78, 110
2, 37296, Note_off_c, 0, 78, 64
2, 37320, Note_on_c, 0, 76, 110
2, 37416, Note_off_c, 0, 76, 64
2, 37440, Note_on_c, 0, 78, 110
2, 37488, Note_off_c, 0, 78, 64
2, 37500, Note_on_c, 0, 81, 110
2, 37548, Note_off_c, 0, 81, 64
2, 37560, Note_on_c, 0, 78, 110
2, 37608, Note_off_c, 0, 78, 64
2, 37620, Note_on_c, 0, 81, 110
2, 37668, Note_off_c, 0, 81, 64
2, 37680, Note_on_c, 0, 78, 110
2, 37728, Note_off_c, 0, 78, 64
2, 37740, Note_on_c, 0, 81, 110
2, 37788, Note_off_c, 0, 81, 64
2, 37800, Note_on_c, 0, 78, 110
2, 37848, Note_off_c, 0, 78, 64
2, 37860, Note_on_c, 0, 81, 110
2, 37908, Note_off_c, 0, 81, 64
2, 37920, Note_on_c, 0, 76, 110
2, 38304, Note_off_c, 0, 76, 64
2, 38400, Note_on_c, 0, 78, 110
2, 38580, Note_off_c, 0, 78, 64
2, 38640, Note_on_c, 0, 78, 110
2, 38820, Note_off_c, 0, 78, 64
2, 38880, Note_on_c, 0, 79, 110
2, 38904, Note_off_c, 0, 79, 64
2, 38910, Note_on_c, 0, 78, 110
2, 38934, Note_off_c, 0, 78, 64
2, 38940, Note_on_c, 0, 79, 110
2, 38964, Note_off_c, 0, 79, 64
2, 38970, Note_on_c, 0, 78, 110
2, 38994, Note_off_c, 0, 78, 64
2, 39000, Note_on_c, 0, 79, 110
2, 39024, Note_off_c, 0, 79, 64
2, 39030, Note_on_c, 0, 78, 110
2, 39054, Note_off_c, 0, 78, 64
2, 39060, Note_on_c, 0, 79, 110
2, 39084, Note_off_c, 0, 79, 64
2, 39090, Note_on_c, 0, 78, 110
2, 39114, Note_off_c, 0, 78, 64
2, 39120, Note_on_c, 0, 79, 110
2, 39144, Note_off_c, 0, 79, 64
2, 39150, Note_on_c, 0, 78, 110
2, 39174, Note_off_c, 0, 78, 64
2, 39180, Note_on_c, 0, 79, 110
2, 39204, Note_off_c, 0, 79, 64
2, 39210, Note_on_c, 0, 78, 110
2, 39234, Note_off_c, 0, 78, 64
2, 39240, Note_on_c, 0, 76, 110
2, 39288, Note_off_c, 0, 76, 64
2, 39300, Note_on_c, 0, 78, 110
2, 39348, Note_off_c, 0, 78, 64
2, 39360, Note_on_c, 0, 79, 110
2, 39540, Note_off_c, 0, 79, 64
2, 39600, Note_on_c, 0, 74, 110
2, 39780, Note_off_c, 0, 74, 64
2, 39840, Note_on_c, 0, 76, 110
2, 40224, Note_off_c, 0, 76, 64
2, 40320, Note_on_c, 0, 76, 110
2, 40500, Note_off_c, 0, 76, 64
2, 40560, Note_on_c, 0, 76, 110
2, 40740, Note_off_c, 0, 76, 64
2, 40800, Note_on_c, 0, 78, 110
2, 40824, Note_off_c, 0, 78, 64
2, 40830, Note_on_c, 0, 76, 110
2, 40854, Note_off_c, 0, 76, 64
2, 40860, Note_on_c, 0, 78, 110
2, 40884, Note_off_c, 0, 78, 64
2, 40890, Note_on_c, 0, 76, 110
2, 40914, Note_off_c, 0, 76, 64
2, 40920, Note_on_c, 0, 78, 110
2, 40944, Note_off_c, 0, 78, 64
2, 40950, Note_on_c, 0, 76, 110
2, 40974, Note_off_c, 0, 76, 64
2, 40980, Note_on_c, 0, 78, 110
2, 41004, Note_off_c, 0, 78, 64
2, 41010, Note_on_c, 0, 76, 110
2, 41034, Note_off_c, 0, 76, 64
2, 41040, Note_on_c, 0, 78, 110
2, 41064, Note_off_c, 0, 78, 64
2, 41070, Note_on_c, 0, 76, 110
2, 41094, Note_off_c, 0, 76, 64
2, 41100, Note_on_c, 0, 78, 110
2, 41124, Note_off_c, 0, 78, 64
2, 41130, Note_on_c, 0, 76, 110
2, 41154, Note_off_c, 0, 76, 64
2, 41160, Note_on_c, 0, 74, 110
2, 41208, Note_off_c, 0, 74, 64
2, 41220, Note_on_c, 0, 76, 110
2, 41268, Note_off_c, 0, 76, 64
2, 41280, Note_on_c, 0, 78, 110
2, 41376, Note_off_c, 0, 78, 64
2, 41400, Note_on_c, 0, 74, 110
2, 41496, Note_off_c, 0, 74, 64
2, 41520, Note_on_c, 0, 76, 110
2, 41616, Note_off_c, 0, 76, 64
2, 41640, Note_on_c, 0, 73, 110
2, 41736, Note_off_c, 0, 73, 64
2, 41760, Note_on_c, 0, 74, 110
2, 41856, Note_off_c, 0, 74, 64
2, 41880, Note_on_c, 0, 69, 110
2, 41976, Note_off_c, 0, 69, 64
2, 42000, Note_on_c, 0, 74, 110
2, 42096, Note_off_c, 0, 74, 64
2, 42120, Note_on_c, 0, 76, 110
2, 42216, Note_off_c, 0, 76, 64
2, 42240, Note_on_c, 0, 78, 110
2, 42420, Note_off_c, 0, 78, 64
2, 42480, Note_on_c, 0, 78, 110
2, 42660, Note_off_c, 0, 78, 64
2, 42720, Note_on_c, 0, 79, 110
2, 42744, Note_off_c, 0, 79, 64
2, 42750, Note_on_c, 0, 78, 110
2, 42774, Note_off_c, 0, 78, 64
2, 42780, Note_on_c, 0, 79, 110
2, 42804, Note_off_c, 0, 79, 64
2, 42810, Note_on_c, 0, 78, 110
2, 43032, Note_off_c, 0, 78, 64
2, 43080, Note_on_c, 0, 76, 110
2, 43128, Note_off_c, 0, 76, 64
2, 43140, Note_on_c, 0, 78, 110
2, 43188, Note_off_c, 0, 78, 64
2, 43200, Note_on_c, 0, 79, 110
2, 43296, Note_off_c, 0, 79, 64
2, 43320, Note_on_c, 0, 78, 110
2, 43416, Note_off_c, 0, 78, 64
2, 43440, Note_on_c, 0, 76, 110
2, 43536, Note_off_c, 0, 76, 64
2, 43560, Note_on_c, 0, 74, 110
2, 43656, Note_off_c, 0, 74, 64
2, 43680, Note_on_c, 0, 83, 110
2, 43776, Note_off_c, 0, 83, 64
2, 43800, Note_on_c, 0, 81, 110
2, 43896, Note_off_c, 0, 81, 64
2, 43920, Note_on_c, 0, 80, 110
2, 44016, Note_off_c, 0, 80, 64
2, 44040, Note_on_c, 0, 78, 110
2, 44136, Note_off_c, 0, 78, 64
2, 44160, Note_on_c, 0, 80, 110
2, 44256, Note_off_c, 0, 80, 64
2, 44280, Note_on_c, 0, 81, 110
2, 44376, Note_off_c, 0, 81, 64
2, 44400, Note_on_c, 0, 83, 110
2, 44496, Note_off_c, 0, 83, 64
2, 44520, Note_on_c, 0, 80, 110
2, 44616, Note_off_c, 0, 80, 64
2, 44640, Note_on_c, 0, 81, 110
2, 44736, Note_off_c, 0, 81, 64
2, 44760, Note_on_c, 0, 78, 110
2, 44856, Note_off_c, 0, 78, 64
2, 44880, Note_on_c, 0, 76, 110
2, 44976, Note_off_c, 0, 76, 64
2, 45000, Note_on_c, 0, 74, 110
2, 45096, Note_off_c, 0, 74, 64
2, 45120, Note_on_c, 0, 73, 110
2, 45216, Note_off_c, 0, 73, 64
2, 45240, Note_on_c, 0, 71, 110
2, 45336, Note_off_c, 0, 71, 64
2, 45360, Note_on_c, 0, 73, 110
2, 45456, Note_off_c, 0, 73, 64
2, 45480, Note_on_c, 0, 69, 110
2, 45576, Note_off_c, 0, 69, 64
2, 45600, Note_on_c, 0, 74, 110
2, 45984, Note_off_c, 0, 74, 64
2, 45984, End_track
3, 0, Start_track
3, 0, Title_t, "J.S. Bach, Edition Kalmus"
3, 0, Program_c, 1, 0
3, 0, Note_on_c, 1, 69, 110
3, 96, Note_off_c, 1, 69, 64
3, 120, Note_on_c, 1, 62, 110
3, 216, Note_off_c, 1, 62, 64
3, 240, Note_on_c, 1, 66, 110
3, 336, Note_off_c, 1, 66, 64
3, 360, Note_on_c, 1, 69, 110
3, 456, Note_off_c, 1, 69, 64
3, 480, Note_on_c, 1, 74, 110
3, 576, Note_off_c, 1, 74, 64
3, 600, Note_on_c, 1, 62, 110
3, 696, Note_off_c, 1, 62, 64
3, 720, Note_on_c, 1, 72, 110
3, 816, Note_off_c, 1, 72, 64
3, 840, Note_on_c, 1, 62, 110
3, 936, Note_off_c, 1, 62, 64
3, 960, Note_on_c, 1, 71, 110
3, 1056, Note_off_c, 1, 71, 64
3, 1080, Note_on_c, 1, 62, 110
3, 1176, Note_off_c, 1, 62, 64
3, 1200, Note_on_c, 1, 69, 110
3, 1296, Note_off_c, 1, 69, 64
3, 1320, Note_on_c, 1, 62, 110
3, 1416, Note_off_c, 1, 62, 64
3, 1440, Note_on_c, 1, 67, 110
3, 1536, Note_off_c, 1, 67, 64
3, 1560, Note_on_c, 1, 62, 110
3, 1656, Note_off_c, 1, 62, 64
3, 1680, Note_on_c, 1, 66, 110
3, 1776, Note_off_c, 1, 66, 64
3, 1800, Note_on_c, 1, 62, 110
3, 1896, Note_off_c, 1, 62, 64
3, 1920, Note_on_c, 1, 67, 110
3, 2016, Note_off_c, 1, 67, 64
3, 2040, Note_on_c, 1, 62, 110
3, 2136, Note_off_c, 1, 62, 64
3, 2160, Note_on_c, 1, 64, 110
3, 2256, Note_off_c, 1, 64, 64
3, 2280, Note_on_c, 1, 67, 110
3, 2376, Note_off_c, 1, 67, 64
3, 2400, Note_on_c, 1, 73, 110
3, 2496, Note_off_c, 1, 73, 64
3, 2520, Note_on_c, 1, 62, 110
3, 2616, Note_off_c, 1, 62, 64
3, 2640, Note_on_c, 1, 71, 110
3, 2736, Note_off_c, 1, 71, 64
3, 2760, Note_on_c, 1, 62, 110
3, 2856, Note_off_c, 1, 62, 64
3, 2880, Note_on_c, 1, 69, 110
3, 2976, Note_off_c, 1, 69, 64
3, 3000, Note_on_c, 1, 62, 110
3, 3096, Note_off_c, 1, 62, 64
3, 3120, Note_on_c, 1, 67, 110
3, 3216, Note_off_c, 1, 67, 64
3, 3240, Note_on_c, 1, 62, 110
3, 3336, Note_off_c, 1, 62, 64
3, 3360, Note_on_c, 1, 66, 110
3, 3456, Note_off_c, 1, 66, 64
3, 3480, Note_on_c, 1, 62, 110
3, 3576, Note_off_c, 1, 62, 64
3, 3600, Note_on_c, 1, 66, 110
3, 3696, Note_off_c, 1, 66, 64
3, 3720, Note_on_c, 1, 67, 110
3, 3816, Note_off_c, 1, 67, 64
3, 3840, Note_on_c, 1, 69, 110
3, 3936, Note_off_c, 1, 69, 64
3, 3960, Note_on_c, 1, 62, 110
3, 4056, Note_off_c, 1, 62, 64
3, 4080, Note_on_c, 1, 66, 110
3, 4176, Note_off_c, 1, 66, 64
3, 4200, Note_on_c, 1, 69, 110
3, 4296, Note_off_c, 1, 69, 64
3, 4320, Note_on_c, 1, 74, 110
3, 4416, Note_off_c, 1, 74, 64
3, 4440, Note_on_c, 1, 62, 110
3, 4536, Note_off_c, 1, 62, 64
3, 4560, Note_on_c, 1, 72, 110
3, 4656, Note_off_c, 1, 72, 64
3, 4680, Note_on_c, 1, 62, 110
3, 4776, Note_off_c, 1, 62, 64
3, 4800, Note_on_c, 1, 71, 110
3, 4896, Note_off_c, 1, 71, 64
3, 4920, Note_on_c, 1, 62, 110
3, 5016, Note_off_c, 1, 62, 64
3, 5040, Note_on_c, 1, 69, 110
3, 5136, Note_off_c, 1, 69, 64
3, 5160, Note_on_c, 1, 62, 110
3, 5256, Note_off_c, 1, 62, 64
3, 5280, Note_on_c, 1, 67, 110
3, 5376, Note_off_c, 1, 67, 64
3, 5400, Note_on_c, 1, 62, 110
3, 5496, Note_off_c, 1, 62, 64
3, 5520, Note_on_c, 1, 66, 110
3, 5616, Note_off_c, 1, 66, 64
3, 5640, Note_on_c, 1, 62, 110
3, 5736, Note_off_c, 1, 62, 64
3, 5760, Note_on_c, 1, 64, 110
3, 5856, Note_off_c, 1, 64, 64
3, 5880, Note_on_c, 1, 62, 110
3, 5976, Note_off_c, 1, 62, 64
3, 6000, Note_on_c, 1, 66, 110
3, 6096, Note_off_c, 1, 66, 64
3, 6120, Note_on_c, 1, 62, 110
3, 6216, Note_off_c, 1, 62, 64
3, 6240, Note_on_c, 1, 67, 110
3, 6336, Note_off_c, 1, 67, 64
3, 6360, Note_on_c, 1, 62, 110
3, 6456, Note_off_c, 1, 62, 64
3, 6480, Note_on_c, 1, 66, 110
3, 6576, Note_off_c, 1, 66, 64
3, 6600, Note_on_c, 1, 62, 110
3, 6696, Note_off_c, 1, 62, 64
3, 6720, Note_on_c, 1, 64, 110
3, 6816, Note_off_c, 1, 64, 64
3, 6840, Note_on_c, 1, 62, 110
3, 6936, Note_off_c, 1, 62, 64
3, 6960, Note_on_c, 1, 67, 110
3, 7056, Note_off_c, 1, 67, 64
3, 7080, Note_on_c, 1, 62, 110
3, 7176, Note_off_c, 1, 62, 64
3, 7200, Note_on_c, 1, 66, 110
3, 7296, Note_off_c, 1, 66, 64
3, 7320, Note_on_c, 1, 62, 110
3, 7416, Note_off_c, 1, 62, 64
3, 7440, Note_on_c, 1, 66, 110
3, 7536, Note_off_c, 1, 66, 64
3, 7560, Note_on_c, 1, 67, 110
3, 7656, Note_off_c, 1, 67, 64
3, 7680, Note_on_c, 1, 69, 110
3, 7776, Note_off_c, 1, 69, 64
3, 7800, Note_on_c, 1, 62, 110
3, 7896, Note_off_c, 1, 62, 64
3, 7920, Note_on_c, 1, 66, 110
3, 8016, Note_off_c, 1, 66, 64
3, 8040, Note_on_c, 1, 69, 110
3, 8136, Note_off_c, 1, 69, 64
3, 8160, Note_on_c, 1, 74, 110
3, 8256, Note_off_c, 1, 74, 64
3, 8280, Note_on_c, 1, 62, 110
3, 8376, Note_off_c, 1, 62, 64
3, 8400, Note_on_c, 1, 72, 110
3, 8496, Note_off_c, 1, 72, 64
3, 8520, Note_on_c, 1, 62, 110
3, 8616, Note_off_c, 1, 62, 64
3, 8640, Note_on_c, 1, 71, 110
3, 8736, Note_off_c, 1, 71, 64
3, 8760, Note_on_c, 1, 62, 110
3, 8856, Note_off_c, 1, 62, 64
3, 8880, Note_on_c, 1, 69, 110
3, 8976, Note_off_c, 1, 69, 64
3, 9000, Note_on_c, 1, 62, 110
3, 9096, Note_off_c, 1, 62, 64
3, 9120, Note_on_c, 1, 67, 110
3, 9216, Note_off_c, 1, 67, 64
3, 9240, Note_on_c, 1, 62, 110
3, 9336, Note_off_c, 1, 62, 64
3, 9360, Note_on_c, 1, 66, 110
3, 9456, Note_off_c, 1, 66, 64
3, 9480, Note_on_c, 1, 62, 110
3, 9576, Note_off_c, 1, 62, 64
3, 9600, Note_on_c, 1, 67, 110
3, 9696, Note_off_c, 1, 67, 64
3, 9720, Note_on_c, 1, 62, 110
3, 9816, Note_off_c, 1, 62, 64
3, 9840, Note_on_c, 1, 64, 110
3, 9936, Note_off_c, 1, 64, 64
3, 9960, Note_on_c, 1, 67, 110
3, 10056, Note_off_c, 1, 67, 64
3, 10080, Note_on_c, 1, 73, 110
3, 10176, Note_off_c, 1, 73, 64
3, 10200, Note_on_c, 1, 62, 110
3, 10296, Note_off_c, 1, 62, 64
3, 10320, Note_on_c, 1, 71, 110
3, 10416, Note_off_c, 1, 71, 64
3, 10440, Note_on_c, 1, 62, 110
3, 10536, Note_off_c, 1, 62, 64
3, 10560, Note_on_c, 1, 69, 110
3, 10656, Note_off_c, 1, 69, 64
3, 10680, Note_on_c, 1, 62, 110
3, 10776, Note_off_c, 1, 62, 64
3, 10800, Note_on_c, 1, 67, 110
3, 10896, Note_off_c, 1, 67, 64
3, 10920, Note_on_c, 1, 62, 110
3, 11016, Note_off_c, 1, 62, 64
3, 11040, Note_on_c, 1, 66, 110
3, 11136, Note_off_c, 1, 66, 64
3, 11160, Note_on_c, 1, 62, 110
3, 11256, Note_off_c, 1, 62, 64
3, 11280, Note_on_c, 1, 66, 110
3, 11376, Note_off_c, 1, 66, 64
3, 11400, Note_on_c, 1, 67, 110
3, 11496, Note_off_c, 1, 67, 64
3, 11520, Note_on_c, 1, 69, 110
3, 11616, Note_off_c, 1, 69, 64
3, 11640, Note_on_c, 1, 62, 110
3, 11736, Note_off_c, 1, 62, 64
3, 11760, Note_on_c, 1, 66, 110
3, 11856, Note_off_c, 1, 66, 64
3, 11880, Note_on_c, 1, 69, 110
3, 11976, Note_off_c, 1, 69, 64
3, 12000, Note_on_c, 1, 74, 110
3, 12096, Note_off_c, 1, 74, 64
3, 12120, Note_on_c, 1, 62, 110
3, 12216, Note_off_c, 1, 62, 64
3, 12240, Note_on_c, 1, 72, 110
3, 12336, Note_off_c, 1, 72, 64
3, 12360, Note_on_c, 1, 62, 110
3, 12456, Note_off_c, 1, 62, 64
3, 12480, Note_on_c, 1, 71, 110
3, 12576, Note_off_c, 1, 71, 64
3, 12600, Note_on_c, 1, 62, 110
3, 12696, Note_off_c, 1, 62, 64
3, 12720, Note_on_c, 1, 69, 110
3, 12816, Note_off_c, 1, 69, 64
3, 12840, Note_on_c, 1, 62, 110
3, 12936, Note_off_c, 1, 62, 64
3, 12960, Note_on_c, 1, 67, 110
3, 13056, Note_off_c, 1, 67, 64
3, 13080, Note_on_c, 1, 62, 110
3, 13176, Note_off_c, 1, 62, 64
3, 13200, Note_on_c, 1, 66, 110
3, 13296, Note_off_c, 1, 66, 64
3, 13320, Note_on_c, 1, 62, 110
3, 13416, Note_off_c, 1, 62, 64
3, 13440, Note_on_c, 1, 64, 110
3, 13536, Note_off_c, 1, 64, 64
3, 13560, Note_on_c, 1, 62, 110
3, 13656, Note_off_c, 1, 62, 64
3, 13680, Note_on_c, 1, 66, 110
3, 13776, Note_off_c, 1, 66, 64
3, 13800, Note_on_c, 1, 62, 110
3, 13896, Note_off_c, 1, 62, 64
3, 13920, Note_on_c, 1, 67, 110
3, 14016, Note_off_c, 1, 67, 64
3, 14040, Note_on_c, 1, 62, 110
3, 14136, Note_off_c, 1, 62, 64
3, 14160, Note_on_c, 1, 66, 110
3, 14256, Note_off_c, 1, 66, 64
3, 14280, Note_on_c, 1, 62, 110
3, 14376, Note_off_c, 1, 62, 64
3, 14400, Note_on_c, 1, 64, 110
3, 14496, Note_off_c, 1, 64, 64
3, 14520, Note_on_c, 1, 62, 110
3, 14616, Note_off_c, 1, 62, 64
3, 14640, Note_on_c, 1, 67, 110
3, 14736, Note_off_c, 1, 67, 64
3, 14760, Note_on_c, 1, 62, 110
3, 14856, Note_off_c, 1, 62, 64
3, 14880, Note_on_c, 1, 66, 110
3, 14976, Note_off_c, 1, 66, 64
3, 15000, Note_on_c, 1, 62, 110
3, 15096, Note_off_c, 1, 62, 64
3, 15120, Note_on_c, 1, 64, 110
3, 15216, Note_off_c, 1, 64, 64
3, 15240, Note_on_c, 1, 62, 110
3, 15336, Note_off_c, 1, 62, 64
3, 15360, Note_on_c, 1, 66, 110
3, 15456, Note_off_c, 1, 66, 64
3, 15480, Note_on_c, 1, 62, 110
3, 15576, Note_off_c, 1, 62, 64
3, 15600, Note_on_c, 1, 66, 110
3, 15696, Note_off_c, 1, 66, 64
3, 15720, Note_on_c, 1, 69, 110
3, 15816, Note_off_c, 1, 69, 64
3, 15840, Note_on_c, 1, 74, 110
3, 15936, Note_off_c, 1, 74, 64
3, 15960, Note_on_c, 1, 69, 110
3, 16056, Note_off_c, 1, 69, 64
3, 16080, Note_on_c, 1, 66, 110
3, 16176, Note_off_c, 1, 66, 64
3, 16200, Note_on_c, 1, 62, 110
3, 16296, Note_off_c, 1, 62, 64
3, 16320, Note_on_c, 1, 67, 110
3, 16416, Note_off_c, 1, 67, 64
3, 16440, Note_on_c, 1, 62, 110
3, 16536, Note_off_c, 1, 62, 64
3, 16560, Note_on_c, 1, 69, 110
3, 16656, Note_off_c, 1, 69, 64
3, 16680, Note_on_c, 1, 62, 110
3, 16776, Note_off_c, 1, 62, 64
3, 16800, Note_on_c, 1, 71, 110
3, 16896, Note_off_c, 1, 71, 64
3, 16920, Note_on_c, 1, 62, 110
3, 17016, Note_off_c, 1, 62, 64
3, 17040, Note_on_c, 1, 72, 110
3, 17136, Note_off_c, 1, 72, 64
3, 17160, Note_on_c, 1, 62, 110
3, 17256, Note_off_c, 1, 62, 64
3, 17280, Note_on_c, 1, 71, 110
3, 17376, Note_off_c, 1, 71, 64
3, 17400, Note_on_c, 1, 62, 110
3, 17496, Note_off_c, 1, 62, 64
3, 17520, Note_on_c, 1, 69, 110
3, 17616, Note_off_c, 1, 69, 64
3, 17640, Note_on_c, 1, 62, 110
3, 17736, Note_off_c, 1, 62, 64
3, 17760, Note_on_c, 1, 67, 110
3, 17856, Note_off_c, 1, 67, 64
3, 17880, Note_on_c, 1, 62, 110
3, 17976, Note_off_c, 1, 62, 64
3, 18000, Note_on_c, 1, 69, 110
3, 18096, Note_off_c, 1, 69, 64
3, 18120, Note_on_c, 1, 62, 110
3, 18216, Note_off_c, 1, 62, 64
3, 18240, Note_on_c, 1, 71, 110
3, 18336, Note_off_c, 1, 71, 64
3, 18360, Note_on_c, 1, 62, 110
3, 18456, Note_off_c, 1, 62, 64
3, 18480, Note_on_c, 1, 72, 110
3, 18576, Note_off_c, 1, 72, 64
3, 18600, Note_on_c, 1, 62, 110
3, 18696, Note_off_c, 1, 62, 64
3, 18720, Note_on_c, 1, 71, 110
3, 18816, Note_off_c, 1, 71, 64
3, 18840, Note_on_c, 1, 62, 110
3, 18936, Note_off_c, 1, 62, 64
3, 18960, Note_on_c, 1, 69, 110
3, 19056, Note_off_c, 1, 69, 64
3, 19080, Note_on_c, 1, 62, 110
3, 19176, Note_off_c, 1, 62, 64
3, 19200, Note_on_c, 1, 67, 110
3, 19296, Note_off_c, 1, 67, 64
3, 19320, Note_on_c, 1, 62, 110
3, 19416, Note_off_c, 1, 62, 64
3, 19440, Note_on_c, 1, 66, 110
3, 19536, Note_off_c, 1, 66, 64
3, 19560, Note_on_c, 1, 62, 110
3, 19656, Note_off_c, 1, 62, 64
3, 19680, Note_on_c, 1, 67, 110
3, 19776, Note_off_c, 1, 67, 64
3, 19800, Note_on_c, 1, 62, 110
3, 19896, Note_off_c, 1, 62, 64
3, 19920, Note_on_c, 1, 69, 110
3, 20016, Note_off_c, 1, 69, 64
3, 20040, Note_on_c, 1, 62, 110
3, 20136, Note_off_c, 1, 62, 64
3, 20160, Note_on_c, 1, 71, 110
3, 20256, Note_off_c, 1, 71, 64
3, 20280, Note_on_c, 1, 62, 110
3, 20376, Note_off_c, 1, 62, 64
3, 20400, Note_on_c, 1, 69, 110
3, 20496, Note_off_c, 1, 69, 64
3, 20520, Note_on_c, 1, 62, 110
3, 20616, Note_off_c, 1, 62, 64
3, 20640, Note_on_c, 1, 67, 110
3, 20736, Note_off_c, 1, 67, 64
3, 20760, Note_on_c, 1, 62, 110
3, 20856, Note_off_c, 1, 62, 64
3, 20880, Note_on_c, 1, 71, 110
3, 20976, Note_off_c, 1, 71, 64
3, 21000, Note_on_c, 1, 62, 110
3, 21096, Note_off_c, 1, 62, 64
3, 21120, Note_on_c, 1, 69, 110
3, 21216, Note_off_c, 1, 69, 64
3, 21240, Note_on_c, 1, 62, 110
3, 21336, Note_off_c, 1, 62, 64
3, 21360, Note_on_c, 1, 67, 110
3, 21456, Note_off_c, 1, 67, 64
3, 21480, Note_on_c, 1, 62, 110
3, 21576, Note_off_c, 1, 62, 64
3, 21600, Note_on_c, 1, 66, 110
3, 21696, Note_off_c, 1, 66, 64
3, 21720, Note_on_c, 1, 62, 110
3, 21816, Note_off_c, 1, 62, 64
3, 21840, Note_on_c, 1, 67, 110
3, 21936, Note_off_c, 1, 67, 64
3, 21960, Note_on_c, 1, 62, 110
3, 22056, Note_off_c, 1, 62, 64
3, 22080, Note_on_c, 1, 69, 110
3, 22176, Note_off_c, 1, 69, 64
3, 22200, Note_on_c, 1, 62, 110
3, 22296, Note_off_c, 1, 62, 64
3, 22320, Note_on_c, 1, 71, 110
3, 22416, Note_off_c, 1, 71, 64
3, 22440, Note_on_c, 1, 62, 110
3, 22536, Note_off_c, 1, 62, 64
3, 22560, Note_on_c, 1, 73, 110
3, 22656, Note_off_c, 1, 73, 64
3, 22680, Note_on_c, 1, 62, 110
3, 22776, Note_off_c, 1, 62, 64
3, 22800, Note_on_c, 1, 67, 110
3, 22896, Note_off_c, 1, 67, 64
3, 22920, Note_on_c, 1, 73, 110
3, 23016, Note_off_c, 1, 73, 64
3, 23040, Note_on_c, 1, 74, 110
3, 23136, Note_off_c, 1, 74, 64
3, 23160, Note_on_c, 1, 69, 110
3, 23256, Note_off_c, 1, 69, 64
3, 23280, Note_on_c, 1, 62, 110
3, 23376, Note_off_c, 1, 62, 64
3, 23400, Note_on_c, 1, 69, 110
3, 23496, Note_off_c, 1, 69, 64
3, 23520, Note_on_c, 1, 74, 110
3, 23616, Note_off_c, 1, 74, 64
3, 23640, Note_on_c, 1, 62, 110
3, 23736, Note_off_c, 1, 62, 64
3, 23760, Note_on_c, 1, 72, 110
3, 23856, Note_off_c, 1, 72, 64
3, 23880, Note_on_c, 1, 62, 110
3, 23976, Note_off_c, 1, 62, 64
3, 24000, Note_on_c, 1, 71, 110
3, 24096, Note_off_c, 1, 71, 64
3, 24120, Note_on_c, 1, 62, 110
3, 24216, Note_off_c, 1, 62, 64
3, 24240, Note_on_c, 1, 69, 110
3, 24336, Note_off_c, 1, 69, 64
3, 24360, Note_on_c, 1, 62, 110
3, 24456, Note_off_c, 1, 62, 64
3, 24480, Note_on_c, 1, 67, 110
3, 24576, Note_off_c, 1, 67, 64
3, 24600, Note_on_c, 1, 62, 110
3, 24696, Note_off_c, 1, 62, 64
3, 24720, Note_on_c, 1, 66, 110
3, 24816, Note_off_c, 1, 66, 64
3, 24840, Note_on_c, 1, 62, 110
3, 24936, Note_off_c, 1, 62, 64
3, 24960, Note_on_c, 1, 67, 110
3, 25056, Note_off_c, 1, 67, 64
3, 25080, Note_on_c, 1, 62, 110
3, 25176, Note_off_c, 1, 62, 64
3, 25200, Note_on_c, 1, 64, 110
3, 25296, Note_off_c, 1, 64, 64
3, 25320, Note_on_c, 1, 67, 110
3, 25416, Note_off_c, 1, 67, 64
3, 25440, Note_on_c, 1, 73, 110
3, 25536, Note_off_c, 1, 73, 64
3, 25560, Note_on_c, 1, 62, 110
3, 25656, Note_off_c, 1, 62, 64
3, 25680, Note_on_c, 1, 71, 110
3, 25776, Note_off_c, 1, 71, 64
3, 25800, Note_on_c, 1, 62, 110
3, 25896, Note_off_c, 1, 62, 64
3, 25920, Note_on_c, 1, 69, 110
3, 26016, Note_off_c, 1, 69, 64
3, 26040, Note_on_c, 1, 62, 110
3, 26136, Note_off_c, 1, 62, 64
3, 26160, Note_on_c, 1, 67, 110
3, 26256, Note_off_c, 1, 67, 64
3, 26280, Note_on_c, 1, 62, 110
3, 26376, Note_off_c, 1, 62, 64
3, 26400, Note_on_c, 1, 66, 110
3, 26496, Note_off_c, 1, 66, 64
3, 26520, Note_on_c, 1, 62, 110
3, 26616, Note_off_c, 1, 62, 64
3, 26640, Note_on_c, 1, 66, 110
3, 26736, Note_off_c, 1, 66, 64
3, 26760, Note_on_c, 1, 67, 110
3, 26856, Note_off_c, 1, 67, 64
3, 26880, Note_on_c, 1, 69, 110
3, 26976, Note_off_c, 1, 69, 64
3, 27000, Note_on_c, 1, 62, 110
3, 27096, Note_off_c, 1, 62, 64
3, 27120, Note_on_c, 1, 66, 110
3, 27216, Note_off_c, 1, 66, 64
3, 27240, Note_on_c, 1, 69, 110
3, 27336, Note_off_c, 1, 69, 64
3, 27360, Note_on_c, 1, 74, 110
3, 27456, Note_off_c, 1, 74, 64
3, 27480, Note_on_c, 1, 62, 110
3, 27576, Note_off_c, 1, 62, 64
3, 27600, Note_on_c, 1, 69, 110
3, 27696, Note_off_c, 1, 69, 64
3, 27720, Note_on_c, 1, 62, 110
3, 27816, Note_off_c, 1, 62, 64
3, 27840, Note_on_c, 1, 71, 110
3, 27936, Note_off_c, 1, 71, 64
3, 27960, Note_on_c, 1, 62, 110
3, 28056, Note_off_c, 1, 62, 64
3, 28080, Note_on_c, 1, 66, 110
3, 28176, Note_off_c, 1, 66, 64
3, 28200, Note_on_c, 1, 62, 110
3, 28296, Note_off_c, 1, 62, 64
3, 28320, Note_on_c, 1, 68, 110
3, 28416, Note_off_c, 1, 68, 64
3, 28440, Note_on_c, 1, 62, 110
3, 28536, Note_off_c, 1, 62, 64
3, 28560, Note_on_c, 1, 69, 110
3, 28656, Note_off_c, 1, 69, 64
3, 28680, Note_on_c, 1, 62, 110
3, 28776, Note_off_c, 1, 62, 64
3, 28800, Note_on_c, 1, 71, 110
3, 28896, Note_off_c, 1, 71, 64
3, 28920, Note_on_c, 1, 62, 110
3, 29016, Note_off_c, 1, 62, 64
3, 29040, Note_on_c, 1, 74, 110
3, 29136, Note_off_c, 1, 74, 64
3, 29160, Note_on_c, 1, 62, 110
3, 29256, Note_off_c, 1, 62, 64
3, 29280, Note_on_c, 1, 73, 110
3, 29376, Note_off_c, 1, 73, 64
3, 29400, Note_on_c, 1, 62, 110
3, 29496, Note_off_c, 1, 62, 64
3, 29520, Note_on_c, 1, 71, 110
3, 29616, Note_off_c, 1, 71, 64
3, 29640, Note_on_c, 1, 62, 110
3, 29736, Note_off_c, 1, 62, 64
3, 29760, Note_on_c, 1, 69, 110
3, 29856, Note_off_c, 1, 69, 64
3, 29880, Note_on_c, 1, 62, 110
3, 29976, Note_off_c, 1, 62, 64
3, 30000, Note_on_c, 1, 67, 110
3, 30096, Note_off_c, 1, 67, 64
3, 30120, Note_on_c, 1, 62, 110
3, 30216, Note_off_c, 1, 62, 64
3, 30240, Note_on_c, 1, 66, 110
3, 30336, Note_off_c, 1, 66, 64
3, 30360, Note_on_c, 1, 62, 110
3, 30456, Note_off_c, 1, 62, 64
3, 30480, Note_on_c, 1, 64, 110
3, 30576, Note_off_c, 1, 64, 64
3, 30600, Note_on_c, 1, 62, 110
3, 30696, Note_off_c, 1, 62, 64
3, 30720, Note_on_c, 1, 66, 110
3, 30816, Note_off_c, 1, 66, 64
3, 30840, Note_on_c, 1, 62, 110
3, 30936, Note_off_c, 1, 62, 64
3, 30960, Note_on_c, 1, 66, 110
3, 31056, Note_off_c, 1, 66, 64
3, 31080, Note_on_c, 1, 69, 110
3, 31176, Note_off_c, 1, 69, 64
3, 31200, Note_on_c, 1, 74, 110
3, 31296, Note_off_c, 1, 74, 64
3, 31320, Note_on_c, 1, 69, 110
3, 31416, Note_off_c, 1, 69, 64
3, 31440, Note_on_c, 1, 66, 110
3, 31536, Note_off_c, 1, 66, 64
3, 31560, Note_on_c, 1, 62, 110
3, 31656, Note_off_c, 1, 62, 64
3, 31680, Note_on_c, 1, 67, 110
3, 31776, Note_off_c, 1, 67, 64
3, 31800, Note_on_c, 1, 62, 110
3, 31896, Note_off_c, 1, 62, 64
3, 31920, Note_on_c, 1, 69, 110
3, 32016, Note_off_c, 1, 69, 64
3, 32040, Note_on_c, 1, 62, 110
3, 32136, Note_off_c, 1, 62, 64
3, 32160, Note_on_c, 1, 71, 110
3, 32256, Note_off_c, 1, 71, 64
3, 32280, Note_on_c, 1, 62, 110
3, 32376, Note_off_c, 1, 62, 64
3, 32400, Note_on_c, 1, 72, 110
3, 32496, Note_off_c, 1, 72, 64
3, 32520, Note_on_c, 1, 62, 110
3, 32616, Note_off_c, 1, 62, 64
3, 32640, Note_on_c, 1, 71, 110
3, 32736, Note_off_c, 1, 71, 64
3, 32760, Note_on_c, 1, 62, 110
3, 32856, Note_off_c, 1, 62, 64
3, 32880, Note_on_c, 1, 69, 110
3, 32976, Note_off_c, 1, 69, 64
3, 33000, Note_on_c, 1, 62, 110
3, 33096, Note_off_c, 1, 62, 64
3, 33120, Note_on_c, 1, 67, 110
3, 33216, Note_off_c, 1, 67, 64
3, 33240, Note_on_c, 1, 62, 110
3, 33336, Note_off_c, 1, 62, 64
3, 33360, Note_on_c, 1, 69, 110
3, 33456, Note_off_c, 1, 69, 64
3, 33480, Note_on_c, 1, 62, 110
3, 33576, Note_off_c, 1, 62, 64
3, 33600, Note_on_c, 1, 71, 110
3, 33696, Note_off_c, 1, 71, 64
3, 33720, Note_on_c, 1, 62, 110
3, 33816, Note_off_c, 1, 62, 64
3, 33840, Note_on_c, 1, 72, 110
3, 33936, Note_off_c, 1, 72, 64
3, 33960, Note_on_c, 1, 62, 110
3, 34056, Note_off_c, 1, 62, 64
3, 34080, Note_on_c, 1, 71, 110
3, 34176, Note_off_c, 1, 71, 64
3, 34200, Note_on_c, 1, 62, 110
3, 34296, Note_off_c, 1, 62, 64
3, 34320, Note_on_c, 1, 69, 110
3, 34416, Note_off_c, 1, 69, 64
3, 34440, Note_on_c, 1, 62, 110
3, 34536, Note_off_c, 1, 62, 64
3, 34560, Note_on_c, 1, 67, 110
3, 34656, Note_off_c, 1, 67, 64
3, 34680, Note_on_c, 1, 62, 110
3, 34776, Note_off_c, 1, 62, 64
3, 34800, Note_on_c, 1, 66, 110
3, 34896, Note_off_c, 1, 66, 64
3, 34920, Note_on_c, 1, 62, 110
3, 35016, Note_off_c, 1, 62, 64
3, 35040, Note_on_c, 1, 67, 110
3, 35136, Note_off_c, 1, 67, 64
3, 35160, Note_on_c, 1, 62, 110
3, 35256, Note_off_c, 1, 62, 64
3, 35280, Note_on_c, 1, 69, 110
3, 35376, Note_off_c, 1, 69, 64
3, 35400, Note_on_c, 1, 62, 110
3, 35496, Note_off_c, 1, 62, 64
3, 35520, Note_on_c, 1, 71, 110
3, 35616, Note_off_c, 1, 71, 64
3, 35640, Note_on_c, 1, 62, 110
3, 35736, Note_off_c, 1, 62, 64
3, 35760, Note_on_c, 1, 69, 110
3, 35856, Note_off_c, 1, 69, 64
3, 35880, Note_on_c, 1, 62, 110
3, 35976, Note_off_c, 1, 62, 64
3, 36000, Note_on_c, 1, 67, 110
3, 36096, Note_off_c, 1, 67, 64
3, 36120, Note_on_c, 1, 62, 110
3, 36216, Note_off_c, 1, 62, 64
3, 36240, Note_on_c, 1, 71, 110
3, 36336, Note_off_c, 1, 71, 64
3, 36360, Note_on_c, 1, 62, 110
3, 36456, Note_off_c, 1, 62, 64
3, 36480, Note_on_c, 1, 69, 110
3, 36576, Note_off_c, 1, 69, 64
3, 36600, Note_on_c, 1, 62, 110
3, 36696, Note_off_c, 1, 62, 64
3, 36720, Note_on_c, 1, 67, 110
3, 36816, Note_off_c, 1, 67, 64
3, 36840, Note_on_c, 1, 62, 110
3, 36936, Note_off_c, 1, 62, 64
3, 36960, Note_on_c, 1, 66, 110
3, 37056, Note_off_c, 1, 66, 64
3, 37080, Note_on_c, 1, 62, 110
3, 37176, Note_off_c, 1, 62, 64
3, 37200, Note_on_c, 1, 67, 110
3, 37296, Note_off_c, 1, 67, 64
3, 37320, Note_on_c, 1, 62, 110
3, 37416, Note_off_c, 1, 62, 64
3, 37440, Note_on_c, 1, 69, 110
3, 37536, Note_off_c, 1, 69, 64
3, 37560, Note_on_c, 1, 62, 110
3, 37656, Note_off_c, 1, 62, 64
3, 37680, Note_on_c, 1, 71, 110
3, 37776, Note_off_c, 1, 71, 64
3, 37800, Note_on_c, 1, 62, 110
3, 37896, Note_off_c, 1, 62, 64
3, 37920, Note_on_c, 1, 73, 110
3, 38016, Note_off_c, 1, 73, 64
3, 38040, Note_on_c, 1, 62, 110
3, 38136, Note_off_c, 1, 62, 64
3, 38160, Note_on_c, 1, 67, 110
3, 38256, Note_off_c, 1, 67, 64
3, 38280, Note_on_c, 1, 73, 110
3, 38376, Note_off_c, 1, 73, 64
3, 38400, Note_on_c, 1, 74, 110
3, 38496, Note_off_c, 1, 74, 64
3, 38520, Note_on_c, 1, 69, 110
3, 38616, Note_off_c, 1, 69, 64
3, 38640, Note_on_c, 1, 62, 110
3, 38736, Note_off_c, 1, 62, 64
3, 38760, Note_on_c, 1, 69, 110
3, 38856, Note_off_c, 1, 69, 64
3, 38880, Note_on_c, 1, 74, 110
3, 38976, Note_off_c, 1, 74, 64
3, 39000, Note_on_c, 1, 62, 110
3, 39096, Note_off_c, 1, 62, 64
3, 39120, Note_on_c, 1, 72, 110
3, 39216, Note_off_c, 1, 72, 64
3, 39240, Note_on_c, 1, 62, 110
3, 39336, Note_off_c, 1, 62, 64
3, 39360, Note_on_c, 1, 71, 110
3, 39456, Note_off_c, 1, 71, 64
3, 39480, Note_on_c, 1, 62, 110
3, 39576, Note_off_c, 1, 62, 64
3, 39600, Note_on_c, 1, 69, 110
3, 39696, Note_off_c, 1, 69, 64
3, 39720, Note_on_c, 1, 62, 110
3, 39816, Note_off_c, 1, 62, 64
3, 39840, Note_on_c, 1, 67, 110
3, 39936, Note_off_c, 1, 67, 64
3, 39960, Note_on_c, 1, 62, 110
3, 40056, Note_off_c, 1, 62, 64
3, 40080, Note_on_c, 1, 66, 110
3, 40176, Note_off_c, 1, 66, 64
3, 40200, Note_on_c, 1, 62, 110
3, 40296, Note_off_c, 1, 62, 64
3, 40320, Note_on_c, 1, 67, 110
3, 40416, Note_off_c, 1, 67, 64
3, 40440, Note_on_c, 1, 62, 110
3, 40536, Note_off_c, 1, 62, 64
3, 40560, Note_on_c, 1, 64, 110
3, 40656, Note_off_c, 1, 64, 64
3, 40680, Note_on_c, 1, 67, 110
3, 40776, Note_off_c, 1, 67, 64
3, 40800, Note_on_c, 1, 73, 110
3, 40896, Note_off_c, 1, 73, 64
3, 40920, Note_on_c, 1, 62, 110
3, 41016, Note_off_c, 1, 62, 64
3, 41040, Note_on_c, 1, 71, 110
3, 41136, Note_off_c, 1, 71, 64
3, 41160, Note_on_c, 1, 62, 110
3, 41256, Note_off_c, 1, 62, 64
3, 41280, Note_on_c, 1, 69, 110
3, 41376, Note_off_c, 1, 69, 64
3, 41400, Note_on_c, 1, 62, 110
3, 41496, Note_off_c, 1, 62, 64
3, 41520, Note_on_c, 1, 67, 110
3, 41616, Note_off_c, 1, 67, 64
3, 41640, Note_on_c, 1, 62, 110
3, 41736, Note_off_c, 1, 62, 64
3, 41760, Note_on_c, 1, 66, 110
3, 41856, Note_off_c, 1, 66, 64
3, 41880, Note_on_c, 1, 62, 110
3, 41976, Note_off_c, 1, 62, 64
3, 42000, Note_on_c, 1, 66, 110
3, 42096, Note_off_c, 1, 66, 64
3, 42120, Note_on_c, 1, 67, 110
3, 42216, Note_off_c, 1, 67, 64
3, 42240, Note_on_c, 1, 69, 110
3, 42336, Note_off_c, 1, 69, 64
3, 42360, Note_on_c, 1, 62, 110
3, 42456, Note_off_c, 1, 62, 64
3, 42480, Note_on_c, 1, 66, 110
3, 42576, Note_off_c, 1, 66, 64
3, 42600, Note_on_c, 1, 69, 110
3, 42696, Note_off_c, 1, 69, 64
3, 42720, Note_on_c, 1, 74, 110
3, 42816, Note_off_c, 1, 74, 64
3, 42840, Note_on_c, 1, 62, 110
3, 42936, Note_off_c, 1, 62, 64
3, 42960, Note_on_c, 1, 69, 110
3, 43056, Note_off_c, 1, 69, 64
3, 43080, Note_on_c, 1, 62, 110
3, 43176, Note_off_c, 1, 62, 64
3, 43200, Note_on_c, 1, 71, 110
3, 43296, Note_off_c, 1, 71, 64
3, 43320, Note_on_c, 1, 62, 110
3, 43416, Note_off_c, 1, 62, 64
3, 43440, Note_on_c, 1, 66, 110
3, 43536, Note_off_c, 1, 66, 64
3, 43560, Note_on_c, 1, 62, 110
3, 43656, Note_off_c, 1, 62, 64
3, 43680, Note_on_c, 1, 68, 110
3, 43776, Note_off_c, 1, 68, 64
3, 43800, Note_on_c, 1, 62, 110
3, 43896, Note_off_c, 1, 62, 64
3, 43920, Note_on_c, 1, 69, 110
3, 44016, Note_off_c, 1, 69, 64
3, 44040, Note_on_c, 1, 62, 110
3, 44136, Note_off_c, 1, 62, 64
3, 44160, Note_on_c, 1, 71, 110
3, 44256, Note_off_c, 1, 71, 64
3, 44280, Note_on_c, 1, 62, 110
3, 44376, Note_off_c, 1, 62, 64
3, 44400, Note_on_c, 1, 74, 110
3, 44496, Note_off_c, 1, 74, 64
3, 44520, Note_on_c, 1, 62, 110
3, 44616, Note_off_c, 1, 62, 64
3, 44640, Note_on_c, 1, 73, 110
3, 44736, Note_off_c, 1, 73, 64
3, 44760, Note_on_c, 1, 62, 110
3, 44856, Note_off_c, 1, 62, 64
3, 44880, Note_on_c, 1, 71, 110
3, 44976, Note_off_c, 1, 71, 64
3, 45000, Note_on_c, 1, 62, 110
3, 45096, Note_off_c, 1, 62, 64
3, 45120, Note_on_c, 1, 69, 110
3, 45216, Note_off_c, 1, 69, 64
3, 45240, Note_on_c, 1, 62, 110
3, 45336, Note_off_c, 1, 62, 64
3, 45360, Note_on_c, 1, 67, 110
3, 45456, Note_off_c, 1, 67, 64
3, 45480, Note_on_c, 1, 62, 110
3, 45576, Note_off_c, 1, 62, 64
3, 45600, Note_on_c, 1, 62, 110
3, 45600, Note_on_c, 1, 66, 110
3, 45984, Note_off_c, 1, 66, 64
3, 45984, Note_off_c, 1, 62, 64
3, 45984, End_track
4, 0, Start_track
4, 0, Title_t, "Arr. Gary Bricault, (c) 1997"
4, 0, End_track
0, 0, End_of_file
