0, 0, Header, 1, 3, 384
1, 0, Start_track
1, 0, Time_signature, 4, 2, 24, 8
1, 0, Tempo, 500000
1, 373240, End_track
2, 0, Start_track
2, 0, Text_t, "harpsichord: John Sankey"
2, 0, Program_c, 0, 6
2, 0, Pitch_bend_c, 0, 8192
2, 0, Program_c, 1, 6
2, 0, Pitch_bend_c, 1, 7792
2, 0, Program_c, 2, 6
2, 0, Pitch_bend_c, 2, 7876
2, 0, Program_c, 3, 6
2, 0, Pitch_bend_c, 3, 7952
2, 0, Program_c, 4, 6
2, 0, Pitch_bend_c, 4, 7792
2, 0, Program_c, 5, 6
2, 0, Pitch_bend_c, 5, 8112
2, 0, Program_c, 6, 6
2, 0, Pitch_bend_c, 6, 7712
2, 0, Program_c, 7, 6
2, 0, Pitch_bend_c, 7, 8037
2, 0, Program_c, 8, 6
2, 0, Pitch_bend_c, 8, 7872
2, 0, Program_c, 10, 6
2, 0, Pitch_bend_c, 10, 7712
2, 0, Program_c, 11, 6
2, 0, Pitch_bend_c, 11, 8032
2, 0, Program_c, 12, 6
2, 0, Pitch_bend_c, 12, 7872
2, 0, Title_t, "Track 1"
2, 64, Note_on_c, 6, 66, 127
2, 64, Note_on_c, 12, 47, 127
2, 370, Note_off_c, 12, 47, 127
2, 372, Note_on_c, 1, 49, 127
2, 659, Note_off_c, 1, 49, 127
2, 674, Note_on_c, 12, 71, 127
2, 674, Note_on_c, 2, 50, 127
2, 980, Note_off_c, 2, 50, 127
2, 983, Note_on_c, 4, 52, 127
2, 1270, Note_off_c, 4, 52, 127
2, 1283, Note_off_c, 6, 66, 127
2, 1285, Note_on_c, 1, 73, 127
2, 1285, Note_on_c, 6, 54, 127
2, 1591, Note_off_c, 6, 54, 127
2, 1593, Note_on_c, 8, 56, 127
2, 1880, Note_off_c, 8, 56, 127
2, 1893, Note_off_c, 1, 73, 127
2, 1893, Note_off_c, 12, 71, 127
2, 1895, Note_on_c, 6, 78, 127
2, 1895, Note_on_c, 10, 69, 127
2, 1895, Note_on_c, 10, 57, 127
2, 2201, Note_off_c, 10, 57, 127
2, 2204, Note_on_c, 12, 59, 127
2, 2491, Note_off_c, 12, 59, 127
2, 2503, Note_off_c, 10, 69, 127
2, 2506, Note_on_c, 8, 68, 127
2, 2506, Note_on_c, 1, 61, 127
2, 2812, Note_off_c, 1, 61, 127
2, 2814, Note_on_c, 12, 59, 127
2, 3101, Note_off_c, 12, 59, 127
2, 3114, Note_off_c, 8, 68, 127
2, 3114, Note_off_c, 6, 78, 127
2, 3116, Note_on_c, 4, 76, 127
2, 3116, Note_on_c, 1, 73, 127
2, 3116, Note_on_c, 11, 58, 127
2, 3422, Note_off_c, 11, 58, 127
2, 3425, Note_on_c, 6, 54, 127
2, 3712, Note_off_c, 6, 54, 127
2, 3724, Note_off_c, 4, 76, 127
2, 3727, Note_on_c, 2, 74, 127
2, 3727, Note_on_c, 12, 59, 127
2, 4033, Note_off_c, 12, 59, 127
2, 4035, Note_on_c, 10, 57, 127
2, 4322, Note_off_c, 10, 57, 127
2, 4335, Note_off_c, 1, 73, 127
2, 4337, Note_on_c, 12, 71, 127
2, 4337, Note_on_c, 7, 55, 127
2, 4640, Note_off_c, 12, 71, 127
2, 4643, Note_off_c, 7, 55, 127
2, 4643, Note_on_c, 10, 69, 127
2, 4646, Note_on_c, 6, 54, 127
2, 4933, Note_off_c, 6, 54, 127
2, 4946, Note_off_c, 10, 69, 127
2, 4948, Note_on_c, 7, 67, 127
2, 4948, Note_on_c, 4, 52, 127
2, 5254, Note_off_c, 4, 52, 127
2, 5256, Note_on_c, 1, 49, 127
2, 5543, Note_off_c, 1, 49, 127
2, 5557, Note_off_c, 2, 74, 127
2, 5559, Note_on_c, 1, 73, 127
2, 5559, Note_on_c, 2, 50, 127
2, 5862, Note_off_c, 1, 73, 127
2, 5864, Note_on_c, 12, 71, 127
2, 5865, Note_off_c, 2, 50, 127
2, 5867, Note_on_c, 4, 52, 127
2, 6154, Note_off_c, 4, 52, 127
2, 6167, Note_off_c, 12, 71, 127
2, 6169, Note_on_c, 11, 70, 127
2, 6169, Note_on_c, 6, 54, 127
2, 6472, Note_off_c, 7, 67, 127
2, 6474, Note_on_c, 6, 66, 127
2, 6475, Note_off_c, 6, 54, 127
2, 6478, Note_on_c, 6, 42, 127
2, 6765, Note_off_c, 6, 42, 127
2, 6777, Note_off_c, 6, 66, 127
2, 6777, Note_off_c, 11, 70, 127
2, 6780, Note_on_c, 12, 71, 127
2, 6780, Note_on_c, 4, 64, 127
2, 6780, Note_on_c, 8, 44, 127
2, 7083, Note_off_c, 12, 71, 127
2, 7085, Note_on_c, 1, 73, 127
2, 7086, Note_off_c, 8, 44, 127
2, 7088, Note_on_c, 11, 46, 127
2, 7375, Note_off_c, 11, 46, 127
2, 7388, Note_off_c, 1, 73, 127
2, 7390, Note_on_c, 6, 66, 127
2, 7390, Note_on_c, 12, 47, 127
2, 7696, Note_off_c, 12, 47, 127
2, 7699, Note_on_c, 1, 49, 127
2, 7986, Note_off_c, 1, 49, 127
2, 7998, Note_off_c, 6, 66, 127
2, 7999, Note_off_c, 4, 64, 127
2, 8001, Note_on_c, 12, 71, 127
2, 8001, Note_on_c, 2, 62, 127
2, 8001, Note_on_c, 2, 50, 127
2, 8307, Note_off_c, 2, 50, 127
2, 8309, Note_on_c, 4, 52, 127
2, 8596, Note_off_c, 4, 52, 127
2, 8609, Note_off_c, 2, 62, 127
2, 8611, Note_on_c, 1, 61, 127
2, 8611, Note_on_c, 6, 54, 127
2, 8917, Note_off_c, 6, 54, 127
2, 8920, Note_on_c, 8, 56, 127
2, 9207, Note_off_c, 8, 56, 127
2, 9219, Note_off_c, 1, 61, 127
2, 9220, Note_off_c, 12, 71, 127
2, 9222, Note_on_c, 10, 69, 127
2, 9222, Note_on_c, 6, 66, 127
2, 9222, Note_on_c, 10, 57, 127
2, 9528, Note_off_c, 10, 57, 127
2, 9530, Note_on_c, 6, 54, 127
2, 9817, Note_off_c, 6, 54, 127
2, 9830, Note_off_c, 10, 69, 127
2, 9832, Note_on_c, 7, 67, 127
2, 9832, Note_on_c, 12, 59, 127
2, 10138, Note_off_c, 12, 59, 127
2, 10141, Note_on_c, 12, 47, 127
2, 10428, Note_off_c, 12, 47, 127
2, 10441, Note_off_c, 6, 66, 127
2, 10443, Note_on_c, 4, 64, 127
2, 10443, Note_on_c, 1, 49, 127
2, 10749, Note_off_c, 1, 49, 127
2, 10751, Note_on_c, 10, 45, 127
2, 11038, Note_off_c, 10, 45, 127
2, 11051, Note_off_c, 7, 67, 127
2, 11054, Note_on_c, 6, 66, 127
2, 11054, Note_on_c, 2, 50, 127
2, 11360, Note_off_c, 2, 50, 127
2, 11362, Note_on_c, 1, 49, 127
2, 11649, Note_off_c, 1, 49, 127
2, 11662, Note_off_c, 4, 64, 127
2, 11664, Note_on_c, 2, 62, 127
2, 11664, Note_on_c, 12, 47, 127
2, 11970, Note_off_c, 12, 47, 127
2, 11973, Note_on_c, 10, 45, 127
2, 12260, Note_off_c, 10, 45, 127
2, 12273, Note_off_c, 6, 66, 127
2, 12275, Note_on_c, 12, 71, 127
2, 12275, Note_on_c, 7, 43, 127
2, 12581, Note_off_c, 7, 43, 127
2, 12583, Note_on_c, 6, 54, 127
2, 12870, Note_off_c, 6, 54, 127
2, 12883, Note_off_c, 12, 71, 127
2, 12883, Note_off_c, 2, 62, 127
2, 12885, Note_on_c, 4, 76, 127
2, 12885, Note_on_c, 7, 67, 127
2, 12885, Note_on_c, 4, 52, 127
2, 13191, Note_off_c, 4, 52, 127
2, 13194, Note_on_c, 2, 50, 127
2, 13481, Note_off_c, 2, 50, 127
2, 13493, Note_off_c, 4, 76, 127
2, 13496, Note_on_c, 10, 69, 127
2, 13496, Note_on_c, 1, 49, 127
2, 13802, Note_off_c, 1, 49, 127
2, 13804, Note_on_c, 10, 57, 127
2, 14091, Note_off_c, 10, 57, 127
2, 14104, Note_off_c, 10, 69, 127
2, 14104, Note_off_c, 7, 67, 127
2, 14106, Note_on_c, 2, 74, 127
2, 14106, Note_on_c, 6, 66, 127
2, 14106, Note_on_c, 12, 59, 127
2, 14412, Note_off_c, 12, 59, 127
2, 14415, Note_on_c, 6, 54, 127
2, 14702, Note_off_c, 6, 54, 127
2, 14714, Note_off_c, 6, 66, 127
2, 14717, Note_on_c, 4, 64, 127
2, 14717, Note_on_c, 7, 55, 127
2, 15023, Note_off_c, 7, 55, 127
2, 15025, Note_on_c, 4, 52, 127
2, 15312, Note_off_c, 4, 52, 127
2, 15325, Note_off_c, 2, 74, 127
2, 15328, Note_on_c, 1, 73, 127
2, 15328, Note_on_c, 10, 57, 127
2, 15634, Note_off_c, 10, 57, 127
2, 15636, Note_on_c, 10, 45, 127
2, 15923, Note_off_c, 10, 45, 127
2, 15925, Note_off_c, 1, 73, 127
2, 15936, Note_off_c, 4, 64, 127
2, 15938, Note_on_c, 2, 74, 127
2, 15938, Note_on_c, 6, 66, 127
2, 15938, Note_on_c, 2, 50, 127
2, 16089, Note_off_c, 2, 74, 127
2, 16091, Note_on_c, 1, 73, 127
2, 16242, Note_off_c, 1, 73, 127
2, 16243, Note_on_c, 12, 71, 127
2, 16244, Note_off_c, 2, 50, 127
2, 16247, Note_on_c, 4, 52, 127
2, 16394, Note_off_c, 12, 71, 127
2, 16396, Note_on_c, 10, 69, 127
2, 16534, Note_off_c, 4, 52, 127
2, 16547, Note_off_c, 10, 69, 127
2, 16549, Note_on_c, 2, 74, 127
2, 16549, Note_on_c, 6, 54, 127
2, 16855, Note_off_c, 6, 54, 127
2, 16857, Note_on_c, 7, 55, 127
2, 17144, Note_off_c, 7, 55, 127
2, 17157, Note_off_c, 6, 66, 127
2, 17159, Note_on_c, 4, 64, 127
2, 17159, Note_on_c, 10, 45, 127
2, 17465, Note_off_c, 10, 45, 127
2, 17468, Note_on_c, 12, 47, 127
2, 17755, Note_off_c, 12, 47, 127
2, 17767, Note_off_c, 4, 64, 127
2, 17768, Note_off_c, 2, 74, 127
2, 17770, Note_on_c, 1, 73, 127
2, 17770, Note_on_c, 10, 69, 127
2, 17770, Note_on_c, 1, 49, 127
2, 18076, Note_off_c, 1, 49, 127
2, 18078, Note_on_c, 2, 50, 127
2, 18365, Note_off_c, 2, 50, 127
2, 18378, Note_off_c, 1, 73, 127
2, 18380, Note_on_c, 12, 71, 127
2, 18380, Note_on_c, 4, 52, 127
2, 18686, Note_off_c, 4, 52, 127
2, 18689, Note_on_c, 6, 54, 127
2, 18976, Note_off_c, 6, 54, 127
2, 18988, Note_off_c, 12, 71, 127
2, 18989, Note_off_c, 10, 69, 127
2, 18991, Note_on_c, 4, 76, 127
2, 18991, Note_on_c, 7, 67, 127
2, 18991, Note_on_c, 7, 55, 127
2, 19297, Note_off_c, 7, 55, 127
2, 19299, Note_on_c, 10, 57, 127
2, 19586, Note_off_c, 10, 57, 127
2, 19599, Note_off_c, 7, 67, 127
2, 19601, Note_on_c, 6, 66, 127
2, 19601, Note_on_c, 12, 47, 127
2, 19907, Note_off_c, 12, 47, 127
2, 19910, Note_on_c, 1, 49, 127
2, 20197, Note_off_c, 1, 49, 127
2, 20209, Note_off_c, 6, 66, 127
2, 20210, Note_off_c, 4, 76, 127
2, 20212, Note_on_c, 2, 74, 127
2, 20212, Note_on_c, 12, 71, 127
2, 20212, Note_on_c, 2, 50, 127
2, 20518, Note_off_c, 2, 50, 127
2, 20520, Note_on_c, 4, 52, 127
2, 20807, Note_off_c, 4, 52, 127
2, 20820, Note_off_c, 2, 74, 127
2, 20823, Note_on_c, 1, 73, 127
2, 20823, Note_on_c, 6, 54, 127
2, 21129, Note_off_c, 6, 54, 127
2, 21131, Note_on_c, 8, 56, 127
2, 21418, Note_off_c, 8, 56, 127
2, 21431, Note_off_c, 1, 73, 127
2, 21431, Note_off_c, 12, 71, 127
2, 21433, Note_on_c, 6, 78, 127
2, 21433, Note_on_c, 10, 69, 127
2, 21433, Note_on_c, 10, 57, 127
2, 21739, Note_off_c, 10, 57, 127
2, 21742, Note_on_c, 12, 59, 127
2, 22029, Note_off_c, 12, 59, 127
2, 22041, Note_off_c, 10, 69, 127
2, 22044, Note_on_c, 8, 68, 127
2, 22044, Note_on_c, 1, 61, 127
2, 22350, Note_off_c, 1, 61, 127
2, 22352, Note_on_c, 12, 59, 127
2, 22639, Note_off_c, 12, 59, 127
2, 22652, Note_off_c, 8, 68, 127
2, 22652, Note_off_c, 6, 78, 127
2, 22654, Note_on_c, 5, 77, 127
2, 22654, Note_on_c, 1, 73, 127
2, 22654, Note_on_c, 1, 61, 127
2, 22960, Note_off_c, 1, 61, 127
2, 22963, Note_on_c, 10, 57, 127
2, 23250, Note_off_c, 10, 57, 127
2, 23262, Note_off_c, 5, 77, 127
2, 23265, Note_on_c, 6, 78, 127
2, 23265, Note_on_c, 2, 62, 127
2, 23571, Note_off_c, 2, 62, 127
2, 23573, Note_on_c, 1, 61, 127
2, 23860, Note_off_c, 1, 61, 127
2, 23873, Note_off_c, 6, 78, 127
2, 23873, Note_off_c, 1, 73, 127
2, 23875, Note_on_c, 8, 80, 127
2, 23875, Note_on_c, 12, 71, 127
2, 23875, Note_on_c, 2, 62, 127
2, 24181, Note_off_c, 2, 62, 127
2, 24184, Note_on_c, 12, 59, 127
2, 24471, Note_off_c, 12, 59, 127
2, 24483, Note_off_c, 8, 80, 127
2, 24486, Note_on_c, 1, 73, 127
2, 24486, Note_on_c, 5, 53, 127
2, 24792, Note_off_c, 5, 53, 127
2, 24794, Note_on_c, 1, 61, 127
2, 25081, Note_off_c, 1, 61, 127
2, 25094, Note_off_c, 1, 73, 127
2, 25094, Note_off_c, 12, 71, 127
2, 25096, Note_on_c, 6, 78, 127
2, 25096, Note_on_c, 10, 69, 127
2, 25096, Note_on_c, 2, 62, 127
2, 25402, Note_off_c, 2, 62, 127
2, 25405, Note_on_c, 10, 57, 127
2, 25692, Note_off_c, 10, 57, 127
2, 25704, Note_off_c, 10, 69, 127
2, 25707, Note_on_c, 8, 68, 127
2, 25707, Note_on_c, 12, 59, 127
2, 26013, Note_off_c, 12, 59, 127
2, 26015, Note_on_c, 8, 56, 127
2, 26302, Note_off_c, 8, 56, 127
2, 26315, Note_off_c, 6, 78, 127
2, 26318, Note_on_c, 5, 77, 127
2, 26318, Note_on_c, 1, 61, 127
2, 26624, Note_off_c, 1, 61, 127
2, 26626, Note_on_c, 1, 49, 127
2, 26913, Note_off_c, 1, 49, 127
2, 26926, Note_off_c, 5, 77, 127
2, 26926, Note_off_c, 8, 68, 127
2, 26928, Note_on_c, 6, 78, 127
2, 26928, Note_on_c, 10, 69, 127
2, 26928, Note_on_c, 6, 54, 127
2, 27234, Note_off_c, 6, 54, 127
2, 27237, Note_on_c, 4, 52, 127
2, 27524, Note_off_c, 4, 52, 127
2, 27536, Note_off_c, 10, 69, 127
2, 27539, Note_on_c, 2, 74, 127
2, 27539, Note_on_c, 6, 54, 127
2, 27842, Note_off_c, 6, 78, 127
2, 27845, Note_off_c, 6, 54, 127
2, 27847, Note_on_c, 8, 56, 127
2, 28134, Note_off_c, 8, 56, 127
2, 28149, Note_on_c, 4, 76, 127
2, 28149, Note_on_c, 10, 57, 127
2, 28455, Note_off_c, 10, 57, 127
2, 28458, Note_on_c, 12, 59, 127
2, 28745, Note_off_c, 12, 59, 127
2, 28757, Note_off_c, 4, 76, 127
2, 28758, Note_off_c, 2, 74, 127
2, 28760, Note_on_c, 10, 81, 127
2, 28760, Note_on_c, 1, 73, 127
2, 28760, Note_on_c, 1, 61, 127
2, 29066, Note_off_c, 1, 61, 127
2, 29068, Note_on_c, 2, 62, 127
2, 29355, Note_off_c, 2, 62, 127
2, 29368, Note_off_c, 1, 73, 127
2, 29370, Note_on_c, 12, 71, 127
2, 29370, Note_on_c, 4, 52, 127
2, 29676, Note_off_c, 4, 52, 127
2, 29679, Note_on_c, 6, 54, 127
2, 29966, Note_off_c, 6, 54, 127
2, 29978, Note_off_c, 12, 71, 127
2, 29979, Note_off_c, 10, 81, 127
2, 29981, Note_on_c, 7, 79, 127
2, 29981, Note_on_c, 4, 76, 127
2, 29981, Note_on_c, 7, 55, 127
2, 30287, Note_off_c, 7, 55, 127
2, 30289, Note_on_c, 10, 57, 127
2, 30576, Note_off_c, 10, 57, 127
2, 30589, Note_off_c, 7, 79, 127
2, 30592, Note_on_c, 6, 78, 127
2, 30592, Note_on_c, 12, 59, 127
2, 30898, Note_off_c, 12, 59, 127
2, 30900, Note_on_c, 1, 61, 127
2, 31187, Note_off_c, 1, 61, 127
2, 31200, Note_off_c, 6, 78, 127
2, 31200, Note_off_c, 4, 76, 127
2, 31202, Note_on_c, 12, 83, 127
2, 31202, Note_on_c, 2, 74, 127
2, 31202, Note_on_c, 2, 62, 127
2, 31508, Note_off_c, 2, 62, 127
2, 31511, Note_on_c, 4, 64, 127
2, 31798, Note_off_c, 4, 64, 127
2, 31810, Note_off_c, 2, 74, 127
2, 31813, Note_on_c, 1, 73, 127
2, 31813, Note_on_c, 6, 54, 127
2, 32119, Note_off_c, 6, 54, 127
2, 32121, Note_on_c, 4, 52, 127
2, 32408, Note_off_c, 4, 52, 127
2, 32421, Note_off_c, 1, 73, 127
2, 32421, Note_off_c, 12, 83, 127
2, 32423, Note_on_c, 11, 82, 127
2, 32423, Note_on_c, 6, 78, 127
2, 32423, Note_on_c, 6, 54, 127
2, 32729, Note_off_c, 6, 54, 127
2, 32732, Note_on_c, 2, 50, 127
2, 33019, Note_off_c, 2, 50, 127
2, 33031, Note_off_c, 11, 82, 127
2, 33034, Note_on_c, 12, 83, 127
2, 33034, Note_on_c, 7, 55, 127
2, 33337, Note_off_c, 6, 78, 127
2, 33339, Note_on_c, 12, 71, 127
2, 33340, Note_off_c, 7, 55, 127
2, 33342, Note_on_c, 6, 54, 127
2, 33629, Note_off_c, 6, 54, 127
2, 33642, Note_off_c, 12, 71, 127
2, 33644, Note_on_c, 4, 76, 127
2, 33644, Note_on_c, 7, 55, 127
2, 33948, Note_off_c, 12, 83, 127
2, 33950, Note_off_c, 7, 55, 127
2, 33950, Note_on_c, 10, 81, 127
2, 33953, Note_on_c, 4, 52, 127
2, 34101, Note_off_c, 10, 81, 127
2, 34102, Note_on_c, 7, 79, 127
2, 34240, Note_off_c, 4, 52, 127
2, 34253, Note_off_c, 7, 79, 127
2, 34255, Note_on_c, 6, 78, 127
2, 34255, Note_on_c, 11, 58, 127
2, 34558, Note_off_c, 4, 76, 127
2, 34560, Note_on_c, 2, 74, 127
2, 34561, Note_off_c, 11, 58, 127
2, 34563, Note_on_c, 6, 54, 127
2, 34711, Note_off_c, 2, 74, 127
2, 34713, Note_on_c, 1, 73, 127
2, 34850, Note_off_c, 6, 54, 127
2, 34864, Note_off_c, 1, 73, 127
2, 34865, Note_on_c, 2, 74, 127
2, 34865, Note_on_c, 12, 59, 127
2, 35168, Note_off_c, 2, 74, 127
2, 35169, Note_off_c, 6, 78, 127
2, 35171, Note_off_c, 12, 59, 127
2, 35171, Note_on_c, 7, 79, 127
2, 35171, Note_on_c, 12, 71, 127
2, 35174, Note_on_c, 4, 52, 127
2, 35461, Note_off_c, 4, 52, 127
2, 35474, Note_off_c, 12, 71, 127
2, 35474, Note_off_c, 7, 79, 127
2, 35476, Note_on_c, 2, 74, 127
2, 35476, Note_on_c, 12, 71, 127
2, 35476, Note_on_c, 6, 54, 127
2, 35782, Note_off_c, 6, 54, 127
2, 35784, Note_on_c, 4, 52, 127
2, 36071, Note_off_c, 4, 52, 127
2, 36084, Note_off_c, 12, 71, 127
2, 36087, Note_on_c, 11, 70, 127
2, 36087, Note_on_c, 6, 54, 127
2, 36161, Note_off_c, 2, 74, 127
2, 36163, Note_on_c, 1, 73, 127
2, 36237, Note_off_c, 1, 73, 127
2, 36239, Note_on_c, 2, 74, 127
2, 36313, Note_off_c, 2, 74, 127
2, 36316, Note_on_c, 1, 73, 127
2, 36393, Note_off_c, 6, 54, 127
2, 36395, Note_on_c, 6, 42, 127
2, 36682, Note_off_c, 6, 42, 127
2, 36694, Note_off_c, 1, 73, 127
2, 36695, Note_off_c, 11, 70, 127
2, 36697, Note_on_c, 12, 71, 127
2, 36697, Note_on_c, 12, 47, 127
2, 37002, Note_on_c, 7, 79, 127
2, 37299, Note_off_c, 12, 47, 127
2, 37305, Note_off_c, 12, 71, 127
2, 37308, Note_on_c, 1, 73, 127
2, 37308, Note_on_c, 10, 45, 127
2, 37610, Note_off_c, 7, 79, 127
2, 37613, Note_on_c, 6, 78, 127
2, 37910, Note_off_c, 10, 45, 127
2, 37916, Note_off_c, 1, 73, 127
2, 37918, Note_on_c, 2, 74, 127
2, 37918, Note_on_c, 10, 45, 127
2, 38062, Note_off_c, 10, 45, 127
2, 38071, Note_on_c, 7, 43, 127
2, 38215, Note_off_c, 7, 43, 127
2, 38221, Note_off_c, 6, 78, 127
2, 38224, Note_on_c, 12, 83, 127
2, 38224, Note_on_c, 10, 45, 127
2, 38368, Note_off_c, 10, 45, 127
2, 38375, Note_off_c, 12, 83, 127
2, 38376, Note_on_c, 11, 82, 127
2, 38376, Note_on_c, 7, 43, 127
2, 38520, Note_off_c, 7, 43, 127
2, 38527, Note_off_c, 11, 82, 127
2, 38529, Note_on_c, 12, 83, 127
2, 38529, Note_on_c, 10, 45, 127
2, 38673, Note_off_c, 10, 45, 127
2, 38681, Note_on_c, 7, 43, 127
2, 38825, Note_off_c, 7, 43, 127
2, 38832, Note_off_c, 2, 74, 127
2, 38834, Note_on_c, 4, 76, 127
2, 38834, Note_on_c, 10, 45, 127
2, 38978, Note_off_c, 10, 45, 127
2, 38987, Note_on_c, 7, 43, 127
2, 39131, Note_off_c, 7, 43, 127
2, 39137, Note_off_c, 12, 83, 127
2, 39139, Note_on_c, 11, 82, 127
2, 39139, Note_on_c, 6, 42, 127
2, 39438, Note_off_c, 4, 76, 127
2, 39442, Note_off_c, 11, 82, 127
2, 39445, Note_on_c, 12, 83, 127
2, 39445, Note_on_c, 2, 74, 127
2, 39748, Note_off_c, 2, 74, 127
2, 39748, Note_off_c, 12, 83, 127
2, 39750, Note_on_c, 4, 76, 127
2, 39750, Note_on_c, 1, 73, 127
2, 40053, Note_off_c, 1, 73, 127
2, 40053, Note_off_c, 4, 76, 127
2, 40055, Note_on_c, 2, 74, 127
2, 40055, Note_on_c, 12, 71, 127
2, 40358, Note_off_c, 12, 71, 127
2, 40358, Note_off_c, 2, 74, 127
2, 40360, Note_on_c, 2, 74, 127
2, 40360, Note_on_c, 11, 70, 127
2, 40360, Note_on_c, 6, 54, 127
2, 40434, Note_off_c, 2, 74, 127
2, 40437, Note_on_c, 1, 73, 127
2, 40511, Note_off_c, 1, 73, 127
2, 40513, Note_on_c, 2, 74, 127
2, 40587, Note_off_c, 2, 74, 127
2, 40589, Note_on_c, 1, 73, 127
2, 41573, Note_off_c, 6, 42, 127
2, 41579, Note_off_c, 1, 73, 127
2, 41579, Note_off_c, 6, 54, 127
2, 41579, Note_off_c, 11, 70, 127
2, 41582, Note_on_c, 10, 81, 127
2, 41582, Note_on_c, 6, 54, 127
2, 41887, Note_on_c, 1, 73, 127
2, 41888, Note_off_c, 6, 54, 127
2, 41890, Note_on_c, 7, 55, 127
2, 42177, Note_off_c, 7, 55, 127
2, 42190, Note_off_c, 1, 73, 127
2, 42192, Note_on_c, 6, 78, 127
2, 42192, Note_on_c, 10, 57, 127
2, 42495, Note_off_c, 6, 78, 127
2, 42497, Note_on_c, 4, 76, 127
2, 42498, Note_off_c, 10, 57, 127
2, 42501, Note_on_c, 6, 54, 127
2, 42788, Note_off_c, 6, 54, 127
2, 42800, Note_off_c, 4, 76, 127
2, 42803, Note_on_c, 3, 75, 127
2, 42803, Note_on_c, 12, 59, 127
2, 43106, Note_off_c, 10, 81, 127
2, 43108, Note_on_c, 6, 78, 127
2, 43109, Note_off_c, 12, 59, 127
2, 43111, Note_on_c, 10, 57, 127
2, 43398, Note_off_c, 10, 57, 127
2, 43411, Note_off_c, 6, 78, 127
2, 43413, Note_on_c, 12, 83, 127
2, 43413, Note_on_c, 7, 55, 127
2, 43716, Note_off_c, 12, 83, 127
2, 43719, Note_off_c, 7, 55, 127
2, 43719, Note_on_c, 10, 81, 127
2, 43722, Note_on_c, 6, 54, 127
2, 44009, Note_off_c, 6, 54, 127
2, 44022, Note_off_c, 10, 81, 127
2, 44022, Note_off_c, 3, 75, 127
2, 44024, Note_on_c, 7, 79, 127
2, 44024, Note_on_c, 4, 76, 127
2, 44024, Note_on_c, 4, 52, 127
2, 44330, Note_off_c, 4, 52, 127
2, 44332, Note_on_c, 7, 43, 127
2, 44619, Note_off_c, 7, 43, 127
2, 44632, Note_off_c, 4, 76, 127
2, 44632, Note_off_c, 7, 79, 127
2, 44634, Note_on_c, 6, 78, 127
2, 44634, Note_on_c, 3, 75, 127
2, 44634, Note_on_c, 10, 45, 127
2, 44940, Note_off_c, 10, 45, 127
2, 44943, Note_on_c, 12, 47, 127
2, 45230, Note_off_c, 12, 47, 127
2, 45242, Note_off_c, 3, 75, 127
2, 45242, Note_off_c, 6, 78, 127
2, 45245, Note_on_c, 7, 79, 127
2, 45245, Note_on_c, 4, 76, 127
2, 45245, Note_on_c, 4, 40, 127
2, 45548, Note_off_c, 4, 76, 127
2, 45550, Note_on_c, 12, 71, 127
2, 45551, Note_off_c, 4, 40, 127
2, 45553, Note_on_c, 6, 42, 127
2, 45840, Note_off_c, 6, 42, 127
2, 45853, Note_off_c, 12, 71, 127
2, 45856, Note_on_c, 4, 76, 127
2, 45856, Note_on_c, 7, 43, 127
2, 46159, Note_off_c, 4, 76, 127
2, 46161, Note_on_c, 2, 74, 127
2, 46162, Note_off_c, 7, 43, 127
2, 46164, Note_on_c, 4, 40, 127
2, 46451, Note_off_c, 4, 40, 127
2, 46464, Note_off_c, 2, 74, 127
2, 46466, Note_on_c, 1, 73, 127
2, 46466, Note_on_c, 10, 45, 127
2, 46769, Note_off_c, 7, 79, 127
2, 46771, Note_on_c, 4, 76, 127
2, 46772, Note_off_c, 10, 45, 127
2, 46775, Note_on_c, 7, 43, 127
2, 47062, Note_off_c, 7, 43, 127
2, 47074, Note_off_c, 4, 76, 127
2, 47077, Note_on_c, 10, 81, 127
2, 47077, Note_on_c, 6, 42, 127
2, 47380, Note_off_c, 10, 81, 127
2, 47382, Note_on_c, 7, 79, 127
2, 47383, Note_off_c, 6, 42, 127
2, 47385, Note_on_c, 4, 40, 127
2, 47672, Note_off_c, 4, 40, 127
2, 47685, Note_off_c, 7, 79, 127
2, 47685, Note_off_c, 1, 73, 127
2, 47687, Note_on_c, 6, 78, 127
2, 47687, Note_on_c, 2, 74, 127
2, 47687, Note_on_c, 2, 38, 127
2, 47993, Note_off_c, 2, 38, 127
2, 47996, Note_on_c, 6, 42, 127
2, 48283, Note_off_c, 6, 42, 127
2, 48295, Note_off_c, 2, 74, 127
2, 48295, Note_off_c, 6, 78, 127
2, 48298, Note_on_c, 4, 76, 127
2, 48298, Note_on_c, 1, 73, 127
2, 48298, Note_on_c, 7, 43, 127
2, 48604, Note_off_c, 7, 43, 127
2, 48606, Note_on_c, 10, 45, 127
2, 48893, Note_off_c, 10, 45, 127
2, 48906, Note_off_c, 1, 73, 127
2, 48906, Note_off_c, 4, 76, 127
2, 48908, Note_on_c, 6, 78, 127
2, 48908, Note_on_c, 2, 74, 127
2, 48908, Note_on_c, 2, 38, 127
2, 49211, Note_off_c, 2, 74, 127
2, 49214, Note_off_c, 2, 38, 127
2, 49214, Note_on_c, 10, 69, 127
2, 49217, Note_on_c, 4, 52, 127
2, 49504, Note_off_c, 4, 52, 127
2, 49517, Note_off_c, 10, 69, 127
2, 49519, Note_on_c, 12, 71, 127
2, 49519, Note_on_c, 2, 50, 127
2, 49822, Note_off_c, 12, 71, 127
2, 49824, Note_on_c, 1, 73, 127
2, 49825, Note_off_c, 2, 50, 127
2, 49827, Note_on_c, 1, 49, 127
2, 50114, Note_off_c, 1, 49, 127
2, 50127, Note_off_c, 1, 73, 127
2, 50129, Note_on_c, 2, 74, 127
2, 50129, Note_on_c, 12, 47, 127
2, 50432, Note_off_c, 6, 78, 127
2, 50435, Note_off_c, 12, 47, 127
2, 50435, Note_on_c, 6, 78, 127
2, 50438, Note_on_c, 10, 45, 127
2, 50725, Note_off_c, 10, 45, 127
2, 50738, Note_off_c, 6, 78, 127
2, 50740, Note_on_c, 8, 80, 127
2, 50740, Note_on_c, 8, 44, 127
2, 51043, Note_off_c, 8, 80, 127
2, 51045, Note_on_c, 10, 81, 127
2, 51046, Note_off_c, 8, 44, 127
2, 51048, Note_on_c, 6, 42, 127
2, 51335, Note_off_c, 6, 42, 127
2, 51348, Note_off_c, 10, 81, 127
2, 51351, Note_on_c, 12, 83, 127
2, 51351, Note_on_c, 5, 41, 127
2, 51653, Note_off_c, 2, 74, 127
2, 51656, Note_on_c, 1, 73, 127
2, 51657, Note_off_c, 5, 41, 127
2, 51659, Note_on_c, 6, 54, 127
2, 51946, Note_off_c, 6, 54, 127
2, 51959, Note_off_c, 1, 73, 127
2, 51959, Note_off_c, 12, 83, 127
2, 51961, Note_on_c, 10, 81, 127
2, 51961, Note_on_c, 6, 78, 127
2, 51961, Note_on_c, 8, 56, 127
2, 52264, Note_off_c, 6, 78, 127
2, 52266, Note_on_c, 4, 76, 127
2, 52267, Note_off_c, 8, 56, 127
2, 52270, Note_on_c, 10, 57, 127
2, 52557, Note_off_c, 10, 57, 127
2, 52569, Note_off_c, 4, 76, 127
2, 52572, Note_on_c, 2, 74, 127
2, 52572, Note_on_c, 12, 59, 127
2, 52875, Note_off_c, 2, 74, 127
2, 52877, Note_on_c, 1, 73, 127
2, 52878, Note_off_c, 12, 59, 127
2, 52880, Note_on_c, 1, 61, 127
2, 53167, Note_off_c, 1, 61, 127
2, 53180, Note_off_c, 1, 73, 127
2, 53180, Note_off_c, 10, 81, 127
2, 53182, Note_on_c, 7, 79, 127
2, 53182, Note_on_c, 12, 71, 127
2, 53182, Note_on_c, 2, 62, 127
2, 53485, Note_off_c, 7, 79, 127
2, 53488, Note_off_c, 2, 62, 127
2, 53488, Note_on_c, 6, 78, 127
2, 53491, Note_on_c, 12, 59, 127
2, 53778, Note_off_c, 12, 59, 127
2, 53791, Note_off_c, 6, 78, 127
2, 53793, Note_on_c, 5, 77, 127
2, 53793, Note_on_c, 1, 61, 127
2, 54096, Note_off_c, 5, 77, 127
2, 54098, Note_on_c, 1, 73, 127
2, 54099, Note_off_c, 1, 61, 127
2, 54101, Note_on_c, 6, 42, 127
2, 54388, Note_off_c, 6, 42, 127
2, 54401, Note_off_c, 1, 73, 127
2, 54401, Note_off_c, 12, 71, 127
2, 54403, Note_on_c, 6, 78, 127
2, 54403, Note_on_c, 10, 69, 127
2, 54403, Note_on_c, 8, 44, 127
2, 54706, Note_off_c, 6, 78, 127
2, 54709, Note_off_c, 8, 44, 127
2, 54709, Note_on_c, 4, 76, 127
2, 54712, Note_on_c, 10, 45, 127
2, 54999, Note_off_c, 10, 45, 127
2, 55012, Note_off_c, 4, 76, 127
2, 55014, Note_on_c, 2, 74, 127
2, 55014, Note_on_c, 12, 47, 127
2, 55317, Note_off_c, 10, 69, 127
2, 55319, Note_on_c, 10, 69, 127
2, 55320, Note_off_c, 12, 47, 127
2, 55322, Note_on_c, 1, 49, 127
2, 55609, Note_off_c, 1, 49, 127
2, 55622, Note_off_c, 10, 69, 127
2, 55624, Note_on_c, 8, 68, 127
2, 55624, Note_on_c, 2, 50, 127
2, 55927, Note_off_c, 8, 68, 127
2, 55930, Note_off_c, 2, 50, 127
2, 55930, Note_on_c, 6, 66, 127
2, 55933, Note_on_c, 12, 47, 127
2, 56220, Note_off_c, 12, 47, 127
2, 56233, Note_off_c, 6, 66, 127
2, 56235, Note_on_c, 5, 65, 127
2, 56235, Note_on_c, 1, 49, 127
2, 56538, Note_off_c, 5, 65, 127
2, 56540, Note_on_c, 6, 66, 127
2, 56541, Note_off_c, 1, 49, 127
2, 56543, Note_on_c, 3, 51, 127
2, 56830, Note_off_c, 3, 51, 127
2, 56843, Note_off_c, 6, 66, 127
2, 56844, Note_off_c, 2, 74, 127
2, 56846, Note_on_c, 1, 73, 127
2, 56846, Note_on_c, 8, 68, 127
2, 56846, Note_on_c, 5, 53, 127
2, 57149, Note_off_c, 1, 73, 127
2, 57151, Note_on_c, 12, 71, 127
2, 57152, Note_off_c, 5, 53, 127
2, 57154, Note_on_c, 1, 49, 127
2, 57441, Note_off_c, 1, 49, 127
2, 57454, Note_off_c, 12, 71, 127
2, 57456, Note_on_c, 10, 69, 127
2, 57456, Note_on_c, 6, 54, 127
2, 57759, Note_off_c, 10, 69, 127
2, 57761, Note_on_c, 12, 71, 127
2, 57762, Note_off_c, 6, 54, 127
2, 57765, Note_on_c, 8, 56, 127
2, 58052, Note_off_c, 8, 56, 127
2, 58064, Note_off_c, 12, 71, 127
2, 58065, Note_off_c, 8, 68, 127
2, 58067, Note_on_c, 1, 73, 127
2, 58067, Note_on_c, 6, 66, 127
2, 58067, Note_on_c, 10, 57, 127
2, 58370, Note_off_c, 6, 66, 127
2, 58372, Note_on_c, 4, 64, 127
2, 58373, Note_off_c, 10, 57, 127
2, 58375, Note_on_c, 6, 54, 127
2, 58662, Note_off_c, 6, 54, 127
2, 58675, Note_off_c, 4, 64, 127
2, 58677, Note_on_c, 2, 62, 127
2, 58677, Note_on_c, 12, 59, 127
2, 58983, Note_off_c, 12, 59, 127
2, 58986, Note_on_c, 10, 57, 127
2, 59273, Note_off_c, 10, 57, 127
2, 59286, Note_off_c, 1, 73, 127
2, 59288, Note_on_c, 12, 71, 127
2, 59288, Note_on_c, 8, 56, 127
2, 59594, Note_off_c, 8, 56, 127
2, 59596, Note_on_c, 6, 54, 127
2, 59883, Note_off_c, 6, 54, 127
2, 59896, Note_off_c, 2, 62, 127
2, 59898, Note_on_c, 1, 61, 127
2, 59898, Note_on_c, 5, 53, 127
2, 60204, Note_off_c, 5, 53, 127
2, 60207, Note_on_c, 1, 49, 127
2, 60494, Note_off_c, 1, 49, 127
2, 60507, Note_off_c, 12, 71, 127
2, 60509, Note_on_c, 10, 69, 127
2, 60509, Note_on_c, 6, 54, 127
2, 60815, Note_off_c, 6, 54, 127
2, 60817, Note_on_c, 4, 52, 127
2, 61104, Note_off_c, 4, 52, 127
2, 61117, Note_off_c, 1, 61, 127
2, 61120, Note_on_c, 12, 59, 127
2, 61120, Note_on_c, 2, 50, 127
2, 61426, Note_off_c, 2, 50, 127
2, 61428, Note_on_c, 1, 49, 127
2, 61715, Note_off_c, 1, 49, 127
2, 61728, Note_off_c, 10, 69, 127
2, 61730, Note_on_c, 8, 68, 127
2, 61730, Note_on_c, 2, 50, 127
2, 62033, Note_off_c, 8, 68, 127
2, 62035, Note_on_c, 6, 66, 127
2, 62036, Note_off_c, 2, 50, 127
2, 62039, Note_on_c, 12, 47, 127
2, 62326, Note_off_c, 12, 47, 127
2, 62338, Note_off_c, 6, 66, 127
2, 62341, Note_on_c, 5, 65, 127
2, 62341, Note_on_c, 1, 49, 127
2, 62644, Note_off_c, 5, 65, 127
2, 62644, Note_off_c, 12, 59, 127
2, 62646, Note_on_c, 2, 74, 127
2, 62646, Note_on_c, 5, 65, 127
2, 62647, Note_off_c, 1, 49, 127
2, 62649, Note_on_c, 12, 47, 127
2, 62936, Note_off_c, 12, 47, 127
2, 62949, Note_off_c, 5, 65, 127
2, 62949, Note_off_c, 2, 74, 127
2, 62951, Note_on_c, 1, 73, 127
2, 62951, Note_on_c, 6, 66, 127
2, 62951, Note_on_c, 10, 45, 127
2, 63254, Note_off_c, 6, 66, 127
2, 63254, Note_off_c, 1, 73, 127
2, 63256, Note_on_c, 12, 71, 127
2, 63256, Note_on_c, 8, 68, 127
2, 63257, Note_off_c, 10, 45, 127
2, 63260, Note_on_c, 12, 47, 127
2, 63547, Note_off_c, 12, 47, 127
2, 63559, Note_off_c, 8, 68, 127
2, 63559, Note_off_c, 12, 71, 127
2, 63562, Note_on_c, 10, 69, 127
2, 63562, Note_on_c, 1, 61, 127
2, 63562, Note_on_c, 1, 49, 127
2, 63865, Note_off_c, 1, 61, 127
2, 63867, Note_on_c, 6, 66, 127
2, 63868, Note_off_c, 1, 49, 127
2, 63870, Note_on_c, 12, 47, 127
2, 64157, Note_off_c, 12, 47, 127
2, 64170, Note_off_c, 10, 69, 127
2, 64172, Note_on_c, 8, 68, 127
2, 64172, Note_on_c, 1, 49, 127
2, 64475, Note_off_c, 6, 66, 127
2, 64478, Note_off_c, 1, 49, 127
2, 64478, Note_on_c, 5, 65, 127
2, 64481, Note_on_c, 1, 37, 127
2, 64768, Note_off_c, 1, 37, 127
2, 64780, Note_off_c, 8, 68, 127
2, 64781, Note_off_c, 5, 65, 127
2, 64783, Note_on_c, 6, 66, 127
2, 64783, Note_on_c, 6, 42, 127
2, 65089, Note_off_c, 6, 42, 127
2, 65091, Note_on_c, 1, 49, 127
2, 65378, Note_off_c, 1, 49, 127
2, 65391, Note_off_c, 6, 66, 127
2, 65393, Note_on_c, 0, 72, 127
2, 65393, Note_on_c, 3, 51, 127
2, 65699, Note_off_c, 3, 51, 127
2, 65702, Note_on_c, 4, 52, 127
2, 65989, Note_off_c, 4, 52, 127
2, 66004, Note_on_c, 3, 75, 127
2, 66004, Note_on_c, 6, 54, 127
2, 66310, Note_off_c, 6, 54, 127
2, 66312, Note_on_c, 10, 57, 127
2, 66599, Note_off_c, 10, 57, 127
2, 66612, Note_off_c, 3, 75, 127
2, 66612, Note_off_c, 0, 72, 127
2, 66615, Note_on_c, 4, 76, 127
2, 66615, Note_on_c, 12, 71, 127
2, 66615, Note_on_c, 7, 55, 127
2, 66918, Note_off_c, 12, 71, 127
2, 66918, Note_off_c, 4, 76, 127
2, 66920, Note_on_c, 6, 78, 127
2, 66920, Note_on_c, 10, 69, 127
2, 66921, Note_off_c, 7, 55, 127
2, 66923, Note_on_c, 6, 54, 127
2, 67210, Note_off_c, 6, 54, 127
2, 67223, Note_off_c, 10, 69, 127
2, 67223, Note_off_c, 6, 78, 127
2, 67225, Note_on_c, 12, 71, 127
2, 67225, Note_on_c, 7, 67, 127
2, 67225, Note_on_c, 4, 52, 127
2, 67528, Note_off_c, 7, 67, 127
2, 67528, Note_off_c, 12, 71, 127
2, 67530, Note_on_c, 0, 84, 127
2, 67530, Note_on_c, 3, 75, 127
2, 67531, Note_off_c, 4, 52, 127
2, 67534, Note_on_c, 6, 54, 127
2, 67821, Note_off_c, 6, 54, 127
2, 67833, Note_off_c, 3, 75, 127
2, 67833, Note_off_c, 0, 84, 127
2, 67836, Note_on_c, 12, 83, 127
2, 67836, Note_on_c, 4, 76, 127
2, 67836, Note_on_c, 7, 55, 127
2, 68139, Note_off_c, 4, 76, 127
2, 68139, Note_off_c, 12, 83, 127
2, 68141, Note_on_c, 10, 81, 127
2, 68141, Note_on_c, 6, 78, 127
2, 68142, Note_off_c, 7, 55, 127
2, 68144, Note_on_c, 10, 57, 127
2, 68431, Note_off_c, 10, 57, 127
2, 68444, Note_off_c, 6, 78, 127
2, 68444, Note_off_c, 10, 81, 127
2, 68446, Note_on_c, 7, 79, 127
2, 68446, Note_on_c, 12, 71, 127
2, 68446, Note_on_c, 12, 59, 127
2, 68749, Note_off_c, 12, 71, 127
2, 68752, Note_off_c, 12, 59, 127
2, 68752, Note_on_c, 4, 76, 127
2, 68755, Note_on_c, 10, 57, 127
2, 69042, Note_off_c, 10, 57, 127
2, 69054, Note_off_c, 7, 79, 127
2, 69057, Note_on_c, 6, 78, 127
2, 69057, Note_on_c, 12, 59, 127
2, 69360, Note_off_c, 4, 76, 127
2, 69362, Note_on_c, 3, 75, 127
2, 69363, Note_off_c, 12, 59, 127
2, 69365, Note_on_c, 12, 47, 127
2, 69652, Note_off_c, 12, 47, 127
2, 69665, Note_off_c, 3, 75, 127
2, 69665, Note_off_c, 6, 78, 127
2, 69667, Note_on_c, 4, 76, 127
2, 69667, Note_on_c, 4, 52, 127
2, 69973, Note_off_c, 4, 52, 127
2, 69976, Note_on_c, 12, 59, 127
2, 70263, Note_off_c, 12, 59, 127
2, 70275, Note_off_c, 4, 76, 127
2, 70278, Note_on_c, 11, 82, 127
2, 70278, Note_on_c, 1, 61, 127
2, 70584, Note_off_c, 1, 61, 127
2, 70586, Note_on_c, 2, 62, 127
2, 70873, Note_off_c, 2, 62, 127
2, 70888, Note_on_c, 1, 73, 127
2, 70888, Note_on_c, 4, 64, 127
2, 71194, Note_off_c, 4, 64, 127
2, 71197, Note_on_c, 7, 55, 127
2, 71484, Note_off_c, 7, 55, 127
2, 71496, Note_off_c, 1, 73, 127
2, 71497, Note_off_c, 11, 82, 127
2, 71499, Note_on_c, 10, 81, 127
2, 71499, Note_on_c, 2, 74, 127
2, 71499, Note_on_c, 6, 54, 127
2, 71802, Note_off_c, 2, 74, 127
2, 71802, Note_off_c, 10, 81, 127
2, 71804, Note_on_c, 7, 79, 127
2, 71804, Note_on_c, 4, 76, 127
2, 71805, Note_off_c, 6, 54, 127
2, 71807, Note_on_c, 4, 52, 127
2, 72094, Note_off_c, 4, 52, 127
2, 72107, Note_off_c, 4, 76, 127
2, 72107, Note_off_c, 7, 79, 127
2, 72110, Note_on_c, 6, 78, 127
2, 72110, Note_on_c, 10, 69, 127
2, 72110, Note_on_c, 2, 50, 127
2, 72413, Note_off_c, 10, 69, 127
2, 72413, Note_off_c, 6, 78, 127
2, 72415, Note_on_c, 1, 73, 127
2, 72415, Note_on_c, 11, 70, 127
2, 72416, Note_off_c, 2, 50, 127
2, 72418, Note_on_c, 4, 52, 127
2, 72705, Note_off_c, 4, 52, 127
2, 72718, Note_off_c, 11, 70, 127
2, 72718, Note_off_c, 1, 73, 127
2, 72720, Note_on_c, 2, 74, 127
2, 72720, Note_on_c, 10, 69, 127
2, 72720, Note_on_c, 6, 54, 127
2, 73023, Note_off_c, 10, 69, 127
2, 73023, Note_off_c, 2, 74, 127
2, 73025, Note_on_c, 4, 76, 127
2, 73025, Note_on_c, 7, 67, 127
2, 73026, Note_off_c, 6, 54, 127
2, 73029, Note_on_c, 7, 55, 127
2, 73316, Note_off_c, 7, 55, 127
2, 73328, Note_off_c, 7, 67, 127
2, 73328, Note_off_c, 4, 76, 127
2, 73331, Note_on_c, 10, 69, 127
2, 73331, Note_on_c, 6, 66, 127
2, 73331, Note_on_c, 10, 57, 127
2, 73634, Note_off_c, 10, 69, 127
2, 73636, Note_on_c, 2, 74, 127
2, 73637, Note_off_c, 10, 57, 127
2, 73639, Note_on_c, 7, 55, 127
2, 73926, Note_off_c, 7, 55, 127
2, 73939, Note_off_c, 6, 66, 127
2, 73941, Note_on_c, 4, 64, 127
2, 73941, Note_on_c, 10, 57, 127
2, 74244, Note_off_c, 2, 74, 127
2, 74247, Note_off_c, 10, 57, 127
2, 74247, Note_on_c, 1, 73, 127
2, 74250, Note_on_c, 10, 45, 127
2, 74537, Note_off_c, 10, 45, 127
2, 74549, Note_off_c, 4, 64, 127
2, 74550, Note_off_c, 1, 73, 127
2, 74552, Note_on_c, 6, 66, 127
2, 74552, Note_on_c, 2, 62, 127
2, 74552, Note_on_c, 12, 47, 127
2, 74855, Note_off_c, 6, 66, 127
2, 74857, Note_on_c, 12, 71, 127
2, 74858, Note_off_c, 12, 47, 127
2, 74860, Note_on_c, 2, 50, 127
2, 75147, Note_off_c, 2, 50, 127
2, 75160, Note_off_c, 2, 62, 127
2, 75162, Note_on_c, 1, 61, 127
2, 75162, Note_on_c, 6, 54, 127
2, 75465, Note_off_c, 12, 71, 127
2, 75468, Note_off_c, 6, 54, 127
2, 75468, Note_on_c, 10, 69, 127
2, 75471, Note_on_c, 6, 42, 127
2, 75758, Note_off_c, 6, 42, 127
2, 75770, Note_off_c, 1, 61, 127
2, 75771, Note_off_c, 10, 69, 127
2, 75773, Note_on_c, 2, 62, 127
2, 75773, Note_on_c, 12, 59, 127
2, 75773, Note_on_c, 7, 43, 127
2, 76076, Note_off_c, 2, 62, 127
2, 76078, Note_on_c, 7, 67, 127
2, 76079, Note_off_c, 7, 43, 127
2, 76081, Note_on_c, 12, 47, 127
2, 76368, Note_off_c, 12, 47, 127
2, 76381, Note_off_c, 12, 59, 127
2, 76384, Note_on_c, 10, 57, 127
2, 76384, Note_on_c, 2, 50, 127
2, 76686, Note_off_c, 7, 67, 127
2, 76689, Note_on_c, 6, 66, 127
2, 76992, Note_off_c, 6, 66, 127
2, 76992, Note_off_c, 10, 57, 127
2, 76994, Note_on_c, 8, 68, 127
2, 76994, Note_on_c, 12, 59, 127
2, 77291, Note_off_c, 2, 50, 127
2, 77303, Note_on_c, 2, 50, 127
2, 77590, Note_off_c, 2, 50, 127
2, 77602, Note_off_c, 12, 59, 127
2, 77602, Note_off_c, 8, 68, 127
2, 77605, Note_on_c, 11, 70, 127
2, 77605, Note_on_c, 4, 64, 127
2, 77605, Note_on_c, 1, 49, 127
2, 77908, Note_off_c, 11, 70, 127
2, 77910, Note_on_c, 12, 71, 127
2, 77911, Note_off_c, 1, 49, 127
2, 77913, Note_on_c, 12, 47, 127
2, 78200, Note_off_c, 12, 47, 127
2, 78213, Note_off_c, 12, 71, 127
2, 78215, Note_on_c, 1, 73, 127
2, 78215, Note_on_c, 11, 46, 127
2, 78519, Note_off_c, 4, 64, 127
2, 78520, Note_on_c, 7, 67, 127
2, 78521, Note_off_c, 11, 46, 127
2, 78524, Note_on_c, 6, 42, 127
2, 78811, Note_off_c, 6, 42, 127
2, 78823, Note_off_c, 7, 67, 127
2, 78826, Note_on_c, 6, 66, 127
2, 78826, Note_on_c, 8, 44, 127
2, 79129, Note_off_c, 6, 66, 127
2, 79131, Note_on_c, 4, 64, 127
2, 79132, Note_off_c, 8, 44, 127
2, 79134, Note_on_c, 11, 46, 127
2, 79421, Note_off_c, 11, 46, 127
2, 79434, Note_off_c, 4, 64, 127
2, 79436, Note_on_c, 2, 62, 127
2, 79436, Note_on_c, 12, 47, 127
2, 79739, Note_off_c, 1, 73, 127
2, 79742, Note_off_c, 12, 47, 127
2, 79742, Note_on_c, 12, 71, 127
2, 79745, Note_on_c, 6, 54, 127
2, 80032, Note_off_c, 6, 54, 127
2, 80044, Note_off_c, 2, 62, 127
2, 80045, Note_off_c, 12, 71, 127
2, 80047, Note_on_c, 1, 73, 127
2, 80047, Note_on_c, 7, 67, 127
2, 80047, Note_on_c, 4, 52, 127
2, 80350, Note_off_c, 1, 73, 127
2, 80352, Note_on_c, 2, 74, 127
2, 80353, Note_off_c, 4, 52, 127
2, 80355, Note_on_c, 2, 50, 127
2, 80642, Note_off_c, 2, 50, 127
2, 80655, Note_off_c, 2, 74, 127
2, 80657, Note_on_c, 4, 76, 127
2, 80657, Note_on_c, 1, 49, 127
2, 80961, Note_off_c, 7, 67, 127
2, 80963, Note_off_c, 1, 49, 127
2, 80963, Note_on_c, 12, 71, 127
2, 80966, Note_on_c, 10, 45, 127
2, 81253, Note_off_c, 10, 45, 127
2, 81266, Note_off_c, 12, 71, 127
2, 81268, Note_on_c, 10, 69, 127
2, 81268, Note_on_c, 12, 47, 127
2, 81571, Note_off_c, 10, 69, 127
2, 81573, Note_on_c, 7, 67, 127
2, 81574, Note_off_c, 12, 47, 127
2, 81576, Note_on_c, 1, 49, 127
2, 81863, Note_off_c, 1, 49, 127
2, 81876, Note_off_c, 7, 67, 127
2, 81879, Note_on_c, 6, 66, 127
2, 81879, Note_on_c, 2, 50, 127
2, 82181, Note_off_c, 4, 76, 127
2, 82184, Note_on_c, 2, 74, 127
2, 82185, Note_off_c, 2, 50, 127
2, 82187, Note_on_c, 10, 57, 127
2, 82474, Note_off_c, 10, 57, 127
2, 82487, Note_off_c, 2, 74, 127
2, 82487, Note_off_c, 6, 66, 127
2, 82489, Note_on_c, 4, 76, 127
2, 82489, Note_on_c, 12, 71, 127
2, 82489, Note_on_c, 7, 55, 127
2, 82792, Note_off_c, 4, 76, 127
2, 82794, Note_on_c, 6, 78, 127
2, 82795, Note_off_c, 7, 55, 127
2, 82798, Note_on_c, 6, 54, 127
2, 83085, Note_off_c, 6, 54, 127
2, 83097, Note_off_c, 6, 78, 127
2, 83100, Note_on_c, 7, 79, 127
2, 83100, Note_on_c, 4, 52, 127
2, 83403, Note_off_c, 12, 71, 127
2, 83405, Note_on_c, 2, 74, 127
2, 83406, Note_off_c, 4, 52, 127
2, 83408, Note_on_c, 1, 49, 127
2, 83695, Note_off_c, 1, 49, 127
2, 83708, Note_off_c, 2, 74, 127
2, 83710, Note_on_c, 1, 73, 127
2, 83710, Note_on_c, 2, 50, 127
2, 84013, Note_off_c, 1, 73, 127
2, 84016, Note_off_c, 2, 50, 127
2, 84016, Note_on_c, 12, 71, 127
2, 84019, Note_on_c, 4, 52, 127
2, 84306, Note_off_c, 4, 52, 127
2, 84319, Note_off_c, 12, 71, 127
2, 84321, Note_on_c, 1, 73, 127
2, 84321, Note_on_c, 11, 46, 127
2, 84624, Note_off_c, 1, 73, 127
2, 84626, Note_on_c, 4, 76, 127
2, 84627, Note_off_c, 11, 46, 127
2, 84629, Note_on_c, 6, 54, 127
2, 84916, Note_off_c, 6, 54, 127
2, 84929, Note_off_c, 4, 76, 127
2, 84930, Note_off_c, 7, 79, 127
2, 84931, Note_on_c, 6, 78, 127
2, 84931, Note_on_c, 2, 74, 127
2, 84931, Note_on_c, 8, 56, 127
2, 85234, Note_off_c, 2, 74, 127
2, 85237, Note_off_c, 8, 56, 127
2, 85237, Note_on_c, 1, 73, 127
2, 85240, Note_on_c, 11, 58, 127
2, 85527, Note_off_c, 11, 58, 127
2, 85540, Note_off_c, 1, 73, 127
2, 85542, Note_on_c, 2, 74, 127
2, 85542, Note_on_c, 12, 59, 127
2, 85845, Note_off_c, 6, 78, 127
2, 85847, Note_on_c, 10, 81, 127
2, 85848, Note_off_c, 12, 59, 127
2, 85850, Note_on_c, 12, 47, 127
2, 86137, Note_off_c, 12, 47, 127
2, 86150, Note_off_c, 10, 81, 127
2, 86150, Note_off_c, 2, 74, 127
2, 86152, Note_on_c, 7, 79, 127
2, 86152, Note_on_c, 12, 71, 127
2, 86152, Note_on_c, 1, 49, 127
2, 86455, Note_off_c, 7, 79, 127
2, 86458, Note_off_c, 1, 49, 127
2, 86458, Note_on_c, 6, 78, 127
2, 86461, Note_on_c, 2, 50, 127
2, 86748, Note_off_c, 2, 50, 127
2, 86761, Note_off_c, 6, 78, 127
2, 86763, Note_on_c, 7, 79, 127
2, 86763, Note_on_c, 4, 52, 127
2, 87066, Note_off_c, 12, 71, 127
2, 87068, Note_on_c, 2, 74, 127
2, 87069, Note_off_c, 4, 52, 127
2, 87071, Note_on_c, 6, 54, 127
2, 87358, Note_off_c, 6, 54, 127
2, 87371, Note_off_c, 2, 74, 127
2, 87371, Note_off_c, 7, 79, 127
2, 87374, Note_on_c, 8, 80, 127
2, 87374, Note_on_c, 1, 73, 127
2, 87374, Note_on_c, 4, 52, 127
2, 87677, Note_off_c, 1, 73, 127
2, 87679, Note_on_c, 12, 71, 127
2, 87680, Note_off_c, 4, 52, 127
2, 87682, Note_on_c, 2, 50, 127
2, 87969, Note_off_c, 2, 50, 127
2, 87982, Note_off_c, 12, 71, 127
2, 87984, Note_on_c, 4, 76, 127
2, 87984, Note_on_c, 1, 49, 127
2, 88288, Note_off_c, 8, 80, 127
2, 88289, Note_on_c, 12, 83, 127
2, 88290, Note_off_c, 1, 49, 127
2, 88293, Note_on_c, 1, 61, 127
2, 88580, Note_off_c, 1, 61, 127
2, 88592, Note_off_c, 12, 83, 127
2, 88592, Note_off_c, 4, 76, 127
2, 88595, Note_on_c, 10, 81, 127
2, 88595, Note_on_c, 1, 73, 127
2, 88595, Note_on_c, 2, 62, 127
2, 88898, Note_off_c, 10, 81, 127
2, 88900, Note_on_c, 8, 80, 127
2, 88901, Note_off_c, 2, 62, 127
2, 88903, Note_on_c, 4, 64, 127
2, 89190, Note_off_c, 4, 64, 127
2, 89203, Note_off_c, 8, 80, 127
2, 89205, Note_on_c, 10, 81, 127
2, 89205, Note_on_c, 6, 66, 127
2, 89509, Note_off_c, 1, 73, 127
2, 89511, Note_off_c, 6, 66, 127
2, 89511, Note_on_c, 4, 76, 127
2, 89514, Note_on_c, 7, 67, 127
2, 89801, Note_off_c, 7, 67, 127
2, 89813, Note_off_c, 10, 81, 127
2, 89814, Note_off_c, 4, 76, 127
2, 89816, Note_on_c, 11, 82, 127
2, 89816, Note_on_c, 2, 74, 127
2, 89816, Note_on_c, 6, 66, 127
2, 90119, Note_off_c, 2, 74, 127
2, 90121, Note_on_c, 1, 73, 127
2, 90122, Note_off_c, 6, 66, 127
2, 90124, Note_on_c, 4, 64, 127
2, 90411, Note_off_c, 4, 64, 127
2, 90424, Note_off_c, 1, 73, 127
2, 90426, Note_on_c, 6, 78, 127
2, 90426, Note_on_c, 2, 62, 127
2, 90730, Note_off_c, 11, 82, 127
2, 90732, Note_off_c, 2, 62, 127
2, 90732, Note_on_c, 0, 84, 127
2, 90735, Note_on_c, 2, 50, 127
2, 91022, Note_off_c, 2, 50, 127
2, 91034, Note_off_c, 6, 78, 127
2, 91035, Note_off_c, 0, 84, 127
2, 91037, Note_on_c, 12, 83, 127
2, 91037, Note_on_c, 2, 74, 127
2, 91037, Note_on_c, 4, 52, 127
2, 91340, Note_off_c, 12, 83, 127
2, 91342, Note_on_c, 11, 82, 127
2, 91343, Note_off_c, 4, 52, 127
2, 91345, Note_on_c, 6, 54, 127
2, 91632, Note_off_c, 6, 54, 127
2, 91645, Note_off_c, 11, 82, 127
2, 91648, Note_on_c, 12, 83, 127
2, 91648, Note_on_c, 7, 55, 127
2, 91951, Note_off_c, 2, 74, 127
2, 91953, Note_on_c, 4, 76, 127
2, 91954, Note_off_c, 7, 55, 127
2, 91956, Note_on_c, 6, 54, 127
2, 92243, Note_off_c, 6, 54, 127
2, 92256, Note_off_c, 4, 76, 127
2, 92258, Note_on_c, 6, 78, 127
2, 92258, Note_on_c, 4, 52, 127
2, 92562, Note_off_c, 12, 83, 127
2, 92563, Note_on_c, 10, 81, 127
2, 92564, Note_off_c, 4, 52, 127
2, 92567, Note_on_c, 3, 51, 127
2, 92854, Note_off_c, 3, 51, 127
2, 92866, Note_off_c, 10, 81, 127
2, 92869, Note_on_c, 7, 79, 127
2, 92869, Note_on_c, 4, 52, 127
2, 93175, Note_off_c, 4, 52, 127
2, 93177, Note_on_c, 2, 50, 127
2, 93464, Note_off_c, 2, 50, 127
2, 93477, Note_off_c, 6, 78, 127
2, 93479, Note_on_c, 4, 76, 127
2, 93479, Note_on_c, 1, 49, 127
2, 93785, Note_off_c, 1, 49, 127
2, 93788, Note_on_c, 12, 47, 127
2, 94075, Note_off_c, 12, 47, 127
2, 94088, Note_off_c, 7, 79, 127
2, 94090, Note_on_c, 6, 78, 127
2, 94090, Note_on_c, 11, 46, 127
2, 94396, Note_off_c, 11, 46, 127
2, 94398, Note_on_c, 6, 54, 127
2, 94685, Note_off_c, 6, 54, 127
2, 94698, Note_off_c, 4, 76, 127
2, 94700, Note_on_c, 2, 74, 127
2, 94700, Note_on_c, 12, 59, 127
2, 95006, Note_off_c, 12, 59, 127
2, 95009, Note_on_c, 10, 57, 127
2, 95296, Note_off_c, 10, 57, 127
2, 95309, Note_off_c, 6, 78, 127
2, 95311, Note_on_c, 4, 76, 127
2, 95311, Note_on_c, 8, 56, 127
2, 95617, Note_off_c, 8, 56, 127
2, 95619, Note_on_c, 6, 54, 127
2, 95906, Note_off_c, 6, 54, 127
2, 95919, Note_off_c, 2, 74, 127
2, 95921, Note_on_c, 1, 73, 127
2, 95921, Note_on_c, 8, 56, 127
2, 96227, Note_off_c, 8, 56, 127
2, 96230, Note_on_c, 11, 58, 127
2, 96517, Note_off_c, 11, 58, 127
2, 96530, Note_off_c, 4, 76, 127
2, 96532, Note_on_c, 2, 74, 127
2, 96532, Note_on_c, 12, 59, 127
2, 96838, Note_off_c, 12, 59, 127
2, 96840, Note_on_c, 12, 47, 127
2, 97127, Note_off_c, 12, 47, 127
2, 97140, Note_off_c, 1, 73, 127
2, 97143, Note_on_c, 12, 71, 127
2, 97143, Note_on_c, 1, 49, 127
2, 97446, Note_off_c, 12, 71, 127
2, 97448, Note_on_c, 10, 69, 127
2, 97449, Note_off_c, 1, 49, 127
2, 97451, Note_on_c, 2, 50, 127
2, 97738, Note_off_c, 2, 50, 127
2, 97751, Note_off_c, 10, 69, 127
2, 97753, Note_on_c, 7, 67, 127
2, 97753, Note_on_c, 4, 52, 127
2, 98059, Note_off_c, 4, 52, 127
2, 98062, Note_on_c, 6, 54, 127
2, 98349, Note_off_c, 6, 54, 127
2, 98362, Note_off_c, 2, 74, 127
2, 98364, Note_on_c, 1, 73, 127
2, 98364, Note_on_c, 7, 55, 127
2, 98667, Note_off_c, 1, 73, 127
2, 98669, Note_on_c, 12, 71, 127
2, 98670, Note_off_c, 7, 55, 127
2, 98672, Note_on_c, 4, 52, 127
2, 98959, Note_off_c, 4, 52, 127
2, 98972, Note_off_c, 12, 71, 127
2, 98974, Note_on_c, 11, 70, 127
2, 98974, Note_on_c, 6, 54, 127
2, 99277, Note_off_c, 11, 70, 127
2, 99277, Note_off_c, 7, 67, 127
2, 99280, Note_off_c, 6, 54, 127
2, 99280, Note_on_c, 7, 79, 127
2, 99280, Note_on_c, 11, 70, 127
2, 99283, Note_on_c, 4, 52, 127
2, 99570, Note_off_c, 4, 52, 127
2, 99583, Note_off_c, 11, 70, 127
2, 99583, Note_off_c, 7, 79, 127
2, 99585, Note_on_c, 6, 78, 127
2, 99585, Note_on_c, 12, 71, 127
2, 99585, Note_on_c, 2, 50, 127
2, 99888, Note_off_c, 12, 71, 127
2, 99888, Note_off_c, 6, 78, 127
2, 99890, Note_on_c, 4, 76, 127
2, 99890, Note_on_c, 1, 73, 127
2, 99891, Note_off_c, 2, 50, 127
2, 99893, Note_on_c, 4, 52, 127
2, 100180, Note_off_c, 4, 52, 127
2, 100193, Note_off_c, 1, 73, 127
2, 100193, Note_off_c, 4, 76, 127
2, 100195, Note_on_c, 2, 74, 127
2, 100195, Note_on_c, 6, 66, 127
2, 100195, Note_on_c, 6, 54, 127
2, 100498, Note_off_c, 6, 66, 127
2, 100501, Note_off_c, 6, 54, 127
2, 100501, Note_on_c, 12, 71, 127
2, 100504, Note_on_c, 4, 52, 127
2, 100791, Note_off_c, 4, 52, 127
2, 100803, Note_off_c, 2, 74, 127
2, 100806, Note_on_c, 1, 73, 127
2, 100806, Note_on_c, 6, 54, 127
2, 101109, Note_off_c, 12, 71, 127
2, 101111, Note_on_c, 11, 70, 127
2, 101112, Note_off_c, 6, 54, 127
2, 101114, Note_on_c, 6, 42, 127
2, 101401, Note_off_c, 6, 42, 127
2, 101414, Note_off_c, 11, 70, 127
2, 101414, Note_off_c, 1, 73, 127
2, 101417, Note_on_c, 7, 43, 127
2, 101417, Note_on_c, 12, 71, 127
2, 101732, Note_on_c, 4, 64, 127
2, 102037, Note_off_c, 7, 43, 127
2, 102046, Note_on_c, 6, 42, 127
2, 102358, Note_off_c, 4, 64, 127
2, 102360, Note_on_c, 3, 63, 127
2, 102666, Note_off_c, 6, 42, 127
2, 102672, Note_off_c, 3, 63, 127
2, 102675, Note_on_c, 4, 40, 127
2, 102675, Note_on_c, 7, 67, 127
2, 102986, Note_off_c, 12, 71, 127
2, 102990, Note_on_c, 12, 71, 127
2, 103295, Note_off_c, 4, 40, 127
2, 103304, Note_on_c, 2, 38, 127
2, 103616, Note_off_c, 12, 71, 127
2, 103618, Note_on_c, 11, 70, 127
2, 103924, Note_off_c, 2, 38, 127
2, 103930, Note_off_c, 11, 70, 127
2, 103933, Note_on_c, 4, 76, 127
2, 103933, Note_on_c, 1, 37, 127
2, 104244, Note_off_c, 7, 67, 127
2, 104254, Note_off_c, 1, 37, 127
2, 104254, Note_on_c, 7, 67, 127
2, 104257, Note_on_c, 12, 59, 127
2, 104557, Note_off_c, 12, 59, 127
2, 104574, Note_on_c, 11, 58, 127
2, 104892, Note_off_c, 7, 67, 127
2, 104895, Note_off_c, 11, 58, 127
2, 104895, Note_on_c, 6, 66, 127
2, 104899, Note_on_c, 10, 57, 127
2, 105199, Note_off_c, 10, 57, 127
2, 105213, Note_off_c, 6, 66, 127
2, 105217, Note_on_c, 12, 71, 127
2, 105217, Note_on_c, 8, 56, 127
2, 105533, Note_off_c, 4, 76, 127
2, 105537, Note_on_c, 4, 76, 127
2, 105538, Note_off_c, 8, 56, 127
2, 105540, Note_on_c, 7, 55, 127
2, 105840, Note_off_c, 7, 55, 127
2, 105857, Note_on_c, 6, 54, 127
2, 106175, Note_off_c, 4, 76, 127
2, 106178, Note_off_c, 6, 54, 127
2, 106178, Note_on_c, 3, 75, 127
2, 106181, Note_on_c, 12, 59, 127
2, 106481, Note_off_c, 12, 59, 127
2, 106496, Note_off_c, 3, 75, 127
2, 106499, Note_on_c, 7, 79, 127
2, 106499, Note_on_c, 4, 52, 127
2, 106817, Note_off_c, 12, 71, 127
2, 106819, Note_on_c, 12, 71, 127
2, 106820, Note_off_c, 4, 52, 127
2, 106822, Note_on_c, 4, 64, 127
2, 107122, Note_off_c, 4, 64, 127
2, 107141, Note_on_c, 2, 62, 127
2, 107457, Note_off_c, 12, 71, 127
2, 107462, Note_off_c, 2, 62, 127
2, 107462, Note_on_c, 11, 70, 127
2, 107465, Note_on_c, 1, 61, 127
2, 107765, Note_off_c, 1, 61, 127
2, 107780, Note_off_c, 11, 70, 127
2, 107782, Note_on_c, 2, 74, 127
2, 107782, Note_on_c, 12, 59, 127
2, 108099, Note_off_c, 7, 79, 127
2, 108102, Note_on_c, 6, 78, 127
2, 108103, Note_off_c, 12, 59, 127
2, 108106, Note_on_c, 0, 60, 127
2, 108406, Note_off_c, 0, 60, 127
2, 108423, Note_on_c, 1, 61, 127
2, 108740, Note_off_c, 6, 78, 127
2, 108744, Note_off_c, 1, 61, 127
2, 108744, Note_on_c, 5, 77, 127
2, 108747, Note_on_c, 2, 62, 127
2, 109047, Note_off_c, 2, 62, 127
2, 109062, Note_off_c, 5, 77, 127
2, 109065, Note_on_c, 12, 83, 127
2, 109065, Note_on_c, 5, 53, 127
2, 109387, Note_off_c, 2, 74, 127
2, 109388, Note_off_c, 12, 83, 127
2, 109390, Note_on_c, 4, 76, 127
2, 109390, Note_on_c, 0, 72, 127
2, 109391, Note_off_c, 5, 53, 127
2, 109393, Note_on_c, 6, 54, 127
2, 109549, Note_off_c, 4, 76, 127
2, 109552, Note_on_c, 3, 75, 127
2, 109696, Note_off_c, 6, 54, 127
2, 109711, Note_off_c, 3, 75, 127
2, 109711, Note_off_c, 0, 72, 127
2, 109715, Note_on_c, 4, 76, 127
2, 109715, Note_on_c, 12, 71, 127
2, 109715, Note_on_c, 7, 55, 127
2, 110038, Note_off_c, 4, 76, 127
2, 110040, Note_on_c, 7, 79, 127
2, 110041, Note_off_c, 7, 55, 127
2, 110043, Note_on_c, 4, 52, 127
2, 110346, Note_off_c, 4, 52, 127
2, 110361, Note_off_c, 7, 79, 127
2, 110364, Note_on_c, 2, 74, 127
2, 110364, Note_on_c, 6, 54, 127
2, 110693, Note_off_c, 6, 54, 127
2, 110697, Note_on_c, 4, 52, 127
2, 111006, Note_off_c, 4, 52, 127
2, 111018, Note_off_c, 2, 74, 127
2, 111020, Note_off_c, 12, 71, 127
2, 111022, Note_on_c, 1, 73, 127
2, 111022, Note_on_c, 11, 70, 127
2, 111022, Note_on_c, 6, 54, 127
2, 111366, Note_off_c, 6, 54, 127
2, 111369, Note_on_c, 6, 42, 127
2, 111692, Note_off_c, 6, 42, 127
2, 111707, Note_off_c, 11, 70, 127
2, 111707, Note_off_c, 1, 73, 127
2, 111711, Note_on_c, 3, 75, 127
2, 111711, Note_on_c, 10, 69, 127
2, 111711, Note_on_c, 12, 47, 127
2, 112065, Note_off_c, 10, 69, 127
2, 112065, Note_off_c, 3, 75, 127
2, 112068, Note_on_c, 4, 76, 127
2, 112068, Note_on_c, 7, 67, 127
2, 112422, Note_off_c, 4, 76, 127
2, 112425, Note_on_c, 11, 70, 127
2, 112779, Note_off_c, 11, 70, 127
2, 112779, Note_off_c, 7, 67, 127
2, 112784, Note_on_c, 12, 71, 127
2, 112784, Note_on_c, 6, 66, 127
2, 113138, Note_off_c, 12, 71, 127
2, 113141, Note_on_c, 7, 67, 127
2, 113520, Note_off_c, 6, 66, 127
2, 113521, Note_on_c, 4, 64, 127
2, 113898, Note_off_c, 4, 64, 127
2, 113903, Note_on_c, 1, 61, 127
2, 114280, Note_off_c, 7, 67, 127
2, 114283, Note_on_c, 11, 70, 127
2, 114660, Note_off_c, 11, 70, 127
2, 114661, Note_off_c, 1, 61, 127
2, 114664, Note_on_c, 12, 71, 127
2, 114664, Note_on_c, 3, 63, 127
2, 114664, Note_on_c, 6, 66, 127
2, 117112, Note_off_c, 12, 47, 127
2, 117116, Note_off_c, 6, 66, 127
2, 117116, Note_off_c, 3, 63, 127
2, 117116, Note_off_c, 12, 71, 127
2, 118395, Note_on_c, 6, 66, 127
2, 118802, Note_off_c, 6, 66, 127
2, 118805, Note_on_c, 2, 62, 127
2, 119212, Note_off_c, 2, 62, 127
2, 119215, Note_on_c, 12, 59, 127
2, 119622, Note_off_c, 12, 59, 127
2, 119624, Note_on_c, 7, 67, 127
2, 120031, Note_off_c, 7, 67, 127
2, 120033, Note_on_c, 6, 66, 127
2, 120440, Note_off_c, 6, 66, 127
2, 120443, Note_on_c, 12, 71, 127
2, 120850, Note_off_c, 12, 71, 127
2, 120853, Note_on_c, 11, 70, 127
2, 121260, Note_off_c, 11, 70, 127
2, 121262, Note_on_c, 4, 64, 127
2, 121669, Note_off_c, 4, 64, 127
2, 121672, Note_on_c, 3, 63, 127
2, 122079, Note_off_c, 3, 63, 127
2, 122081, Note_on_c, 0, 72, 127
2, 122488, Note_off_c, 0, 72, 127
2, 122491, Note_on_c, 12, 71, 127
2, 122898, Note_off_c, 12, 71, 127
2, 122900, Note_on_c, 6, 66, 127
2, 123307, Note_off_c, 6, 66, 127
2, 123310, Note_on_c, 5, 65, 127
2, 123717, Note_off_c, 5, 65, 127
2, 123720, Note_on_c, 2, 74, 127
2, 124127, Note_off_c, 2, 74, 127
2, 124129, Note_on_c, 1, 73, 127
2, 124536, Note_off_c, 1, 73, 127
2, 124538, Note_on_c, 0, 72, 127
2, 124945, Note_off_c, 0, 72, 127
2, 124948, Note_on_c, 1, 73, 127
2, 125355, Note_off_c, 1, 73, 127
2, 125358, Note_on_c, 10, 69, 127
2, 125765, Note_off_c, 10, 69, 127
2, 125768, Note_on_c, 6, 66, 127
2, 126175, Note_off_c, 6, 66, 127
2, 126177, Note_on_c, 10, 69, 127
2, 126277, Note_off_c, 10, 69, 127
2, 126280, Note_on_c, 8, 68, 127
2, 126380, Note_off_c, 8, 68, 127
2, 126383, Note_on_c, 10, 69, 127
2, 126483, Note_off_c, 10, 69, 127
2, 126485, Note_on_c, 8, 68, 127
2, 126585, Note_off_c, 8, 68, 127
2, 126588, Note_on_c, 10, 69, 127
2, 126688, Note_off_c, 10, 69, 127
2, 126691, Note_on_c, 8, 68, 127
2, 126791, Note_off_c, 8, 68, 127
2, 126794, Note_on_c, 10, 69, 127
2, 126894, Note_off_c, 10, 69, 127
2, 126897, Note_on_c, 8, 68, 127
2, 126997, Note_off_c, 8, 68, 127
2, 126999, Note_on_c, 10, 69, 127
2, 127099, Note_off_c, 10, 69, 127
2, 127102, Note_on_c, 8, 68, 127
2, 127202, Note_off_c, 8, 68, 127
2, 127205, Note_on_c, 10, 69, 127
2, 127305, Note_off_c, 10, 69, 127
2, 127308, Note_on_c, 8, 68, 127
2, 127408, Note_off_c, 8, 68, 127
2, 127411, Note_on_c, 10, 69, 127
2, 127511, Note_off_c, 10, 69, 127
2, 127514, Note_on_c, 8, 68, 127
2, 127614, Note_off_c, 8, 68, 127
2, 127616, Note_on_c, 10, 69, 127
2, 127716, Note_off_c, 10, 69, 127
2, 127719, Note_on_c, 8, 68, 127
2, 127819, Note_off_c, 8, 68, 127
2, 127822, Note_on_c, 6, 66, 127
2, 128231, Note_on_c, 12, 59, 127
2, 128433, Note_off_c, 6, 66, 127
2, 128435, Note_on_c, 5, 65, 127
2, 128636, Note_off_c, 5, 65, 127
2, 128636, Note_off_c, 12, 59, 127
2, 128639, Note_on_c, 6, 66, 127
2, 128639, Note_on_c, 10, 57, 127
2, 128840, Note_off_c, 6, 66, 127
2, 128843, Note_on_c, 8, 68, 127
2, 129044, Note_off_c, 8, 68, 127
2, 129044, Note_off_c, 10, 57, 127
2, 129047, Note_on_c, 10, 69, 127
2, 129047, Note_on_c, 6, 54, 127
2, 129248, Note_off_c, 10, 69, 127
2, 129251, Note_on_c, 1, 73, 127
2, 129452, Note_off_c, 1, 73, 127
2, 129452, Note_off_c, 6, 54, 127
2, 129454, Note_on_c, 12, 71, 127
2, 129454, Note_on_c, 2, 62, 127
2, 129655, Note_off_c, 12, 71, 127
2, 129659, Note_on_c, 8, 68, 127
2, 129859, Note_off_c, 2, 62, 127
2, 129860, Note_off_c, 8, 68, 127
2, 129863, Note_on_c, 10, 69, 127
2, 129863, Note_on_c, 12, 59, 127
2, 130064, Note_off_c, 10, 69, 127
2, 130067, Note_on_c, 0, 72, 127
2, 130268, Note_off_c, 0, 72, 127
2, 130268, Note_off_c, 12, 59, 127
2, 130271, Note_on_c, 6, 78, 127
2, 130271, Note_on_c, 4, 64, 127
2, 130678, Note_off_c, 4, 64, 127
2, 130680, Note_on_c, 3, 63, 127
2, 131087, Note_off_c, 3, 63, 127
2, 131088, Note_off_c, 6, 78, 127
2, 131090, Note_on_c, 4, 76, 127
2, 131090, Note_on_c, 10, 57, 127
2, 131497, Note_off_c, 10, 57, 127
2, 131499, Note_on_c, 8, 56, 127
2, 131906, Note_off_c, 8, 56, 127
2, 131907, Note_off_c, 4, 76, 127
2, 131908, Note_on_c, 2, 74, 127
2, 131908, Note_on_c, 5, 65, 127
2, 132315, Note_off_c, 5, 65, 127
2, 132319, Note_on_c, 4, 64, 127
2, 132725, Note_off_c, 2, 74, 127
2, 132726, Note_off_c, 4, 64, 127
2, 132728, Note_on_c, 1, 73, 127
2, 132728, Note_on_c, 12, 59, 127
2, 133135, Note_off_c, 12, 59, 127
2, 133138, Note_on_c, 11, 58, 127
2, 133545, Note_off_c, 11, 58, 127
2, 133545, Note_off_c, 1, 73, 127
2, 133547, Note_on_c, 12, 71, 127
2, 133547, Note_on_c, 7, 67, 127
2, 133954, Note_off_c, 7, 67, 127
2, 133956, Note_on_c, 6, 66, 127
2, 134363, Note_off_c, 6, 66, 127
2, 134366, Note_on_c, 5, 65, 127
2, 134773, Note_off_c, 5, 65, 127
2, 134773, Note_off_c, 12, 71, 127
2, 134776, Note_on_c, 11, 70, 127
2, 134776, Note_on_c, 6, 66, 127
2, 135183, Note_off_c, 6, 66, 127
2, 135183, Note_off_c, 11, 70, 127
2, 135185, Note_on_c, 12, 71, 127
2, 135185, Note_on_c, 2, 62, 127
2, 135592, Note_off_c, 2, 62, 127
2, 135595, Note_on_c, 12, 59, 127
2, 136002, Note_off_c, 12, 59, 127
2, 136004, Note_on_c, 2, 62, 127
2, 136138, Note_off_c, 2, 62, 127
2, 136141, Note_on_c, 1, 61, 127
2, 136205, Note_off_c, 12, 71, 127
2, 136209, Note_on_c, 1, 73, 127
2, 136273, Note_off_c, 1, 61, 127
2, 136276, Note_on_c, 2, 62, 127
2, 136410, Note_off_c, 2, 62, 127
2, 136410, Note_off_c, 1, 73, 127
2, 136412, Note_on_c, 2, 74, 127
2, 136412, Note_on_c, 1, 61, 127
2, 136546, Note_off_c, 1, 61, 127
2, 136549, Note_on_c, 2, 62, 127
2, 136613, Note_off_c, 2, 74, 127
2, 136616, Note_on_c, 4, 76, 127
2, 136681, Note_off_c, 2, 62, 127
2, 136684, Note_on_c, 1, 61, 127
2, 136817, Note_off_c, 4, 76, 127
2, 136818, Note_off_c, 1, 61, 127
2, 136820, Note_on_c, 6, 78, 127
2, 136820, Note_on_c, 2, 62, 127
2, 136954, Note_off_c, 2, 62, 127
2, 136957, Note_on_c, 1, 61, 127
2, 137021, Note_off_c, 6, 78, 127
2, 137024, Note_on_c, 7, 79, 127
2, 137089, Note_off_c, 1, 61, 127
2, 137092, Note_on_c, 2, 62, 127
2, 137225, Note_off_c, 7, 79, 127
2, 137226, Note_off_c, 2, 62, 127
2, 137228, Note_on_c, 12, 71, 127
2, 137228, Note_on_c, 1, 61, 127
2, 137362, Note_off_c, 1, 61, 127
2, 137364, Note_on_c, 2, 62, 127
2, 137429, Note_off_c, 12, 71, 127
2, 137432, Note_on_c, 11, 70, 127
2, 137496, Note_off_c, 2, 62, 127
2, 137499, Note_on_c, 1, 61, 127
2, 137633, Note_off_c, 1, 61, 127
2, 137633, Note_off_c, 11, 70, 127
2, 137636, Note_on_c, 2, 74, 127
2, 137636, Note_on_c, 12, 59, 127
2, 137837, Note_off_c, 12, 59, 127
2, 137840, Note_on_c, 6, 66, 127
2, 138041, Note_off_c, 6, 66, 127
2, 138044, Note_on_c, 8, 68, 127
2, 138245, Note_off_c, 8, 68, 127
2, 138247, Note_on_c, 11, 70, 127
2, 138448, Note_off_c, 11, 70, 127
2, 138452, Note_on_c, 12, 71, 127
2, 138653, Note_off_c, 12, 71, 127
2, 138655, Note_on_c, 1, 73, 127
2, 138856, Note_off_c, 1, 73, 127
2, 138860, Note_on_c, 6, 66, 127
2, 139061, Note_off_c, 6, 66, 127
2, 139063, Note_on_c, 5, 65, 127
2, 139264, Note_off_c, 5, 65, 127
2, 139267, Note_on_c, 10, 69, 127
2, 139676, Note_off_c, 2, 74, 127
2, 139677, Note_on_c, 0, 72, 127
2, 140084, Note_off_c, 0, 72, 127
2, 140086, Note_on_c, 12, 71, 127
2, 140493, Note_off_c, 12, 71, 127
2, 140496, Note_on_c, 3, 75, 127
2, 140903, Note_off_c, 3, 75, 127
2, 140906, Note_on_c, 4, 76, 127
2, 141313, Note_off_c, 10, 69, 127
2, 141315, Note_on_c, 7, 67, 127
2, 141722, Note_off_c, 7, 67, 127
2, 141725, Note_on_c, 6, 66, 127
2, 142132, Note_off_c, 6, 66, 127
2, 142134, Note_on_c, 11, 70, 127
2, 142541, Note_off_c, 11, 70, 127
2, 142543, Note_on_c, 12, 71, 127
2, 142952, Note_off_c, 4, 76, 127
2, 142954, Note_on_c, 2, 74, 127
2, 143361, Note_off_c, 2, 74, 127
2, 143363, Note_on_c, 1, 73, 127
2, 143770, Note_off_c, 1, 73, 127
2, 143772, Note_on_c, 5, 77, 127
2, 144179, Note_off_c, 5, 77, 127
2, 144182, Note_on_c, 6, 78, 127
2, 144589, Note_off_c, 12, 71, 127
2, 144591, Note_on_c, 11, 70, 127
2, 144591, Note_on_c, 6, 54, 127
2, 144777, Note_off_c, 6, 78, 127
2, 144796, Note_on_c, 7, 79, 127
2, 144994, Note_off_c, 11, 70, 127
2, 144996, Note_off_c, 6, 54, 127
2, 144997, Note_off_c, 7, 79, 127
2, 144999, Note_on_c, 12, 71, 127
2, 144999, Note_on_c, 6, 78, 127
2, 144999, Note_on_c, 2, 50, 127
2, 145200, Note_off_c, 6, 78, 127
2, 145203, Note_on_c, 4, 76, 127
2, 145404, Note_off_c, 4, 76, 127
2, 145404, Note_off_c, 2, 50, 127
2, 145407, Note_on_c, 2, 74, 127
2, 145407, Note_on_c, 12, 47, 127
2, 145593, Note_off_c, 12, 71, 127
2, 145608, Note_off_c, 2, 74, 127
2, 145611, Note_on_c, 12, 71, 127
2, 145812, Note_off_c, 12, 71, 127
2, 145812, Note_off_c, 12, 47, 127
2, 145816, Note_on_c, 1, 73, 127
2, 145816, Note_on_c, 7, 55, 127
2, 146017, Note_off_c, 1, 73, 127
2, 146019, Note_on_c, 4, 76, 127
2, 146220, Note_off_c, 4, 76, 127
2, 146221, Note_off_c, 7, 55, 127
2, 146223, Note_on_c, 2, 74, 127
2, 146223, Note_on_c, 6, 54, 127
2, 146424, Note_off_c, 2, 74, 127
2, 146427, Note_on_c, 12, 71, 127
2, 146628, Note_off_c, 12, 71, 127
2, 146628, Note_off_c, 6, 54, 127
2, 146631, Note_on_c, 1, 73, 127
2, 146631, Note_on_c, 6, 66, 127
2, 146631, Note_on_c, 12, 59, 127
2, 147038, Note_off_c, 12, 59, 127
2, 147038, Note_off_c, 6, 66, 127
2, 147040, Note_on_c, 6, 78, 127
2, 147040, Note_on_c, 11, 58, 127
2, 147440, Note_off_c, 1, 73, 127
2, 147447, Note_off_c, 11, 58, 127
2, 147450, Note_on_c, 12, 71, 127
2, 147450, Note_on_c, 4, 52, 127
2, 147857, Note_off_c, 4, 52, 127
2, 147859, Note_on_c, 3, 51, 127
2, 148063, Note_off_c, 6, 78, 127
2, 148065, Note_on_c, 7, 79, 127
2, 148261, Note_off_c, 12, 71, 127
2, 148268, Note_off_c, 7, 79, 127
2, 148268, Note_off_c, 3, 51, 127
2, 148271, Note_on_c, 10, 69, 127
2, 148271, Note_on_c, 6, 78, 127
2, 148271, Note_on_c, 0, 60, 127
2, 148472, Note_off_c, 6, 78, 127
2, 148475, Note_on_c, 4, 76, 127
2, 148676, Note_off_c, 4, 76, 127
2, 148676, Note_off_c, 0, 60, 127
2, 148679, Note_on_c, 3, 75, 127
2, 148679, Note_on_c, 12, 59, 127
2, 148880, Note_off_c, 3, 75, 127
2, 148882, Note_on_c, 1, 73, 127
2, 149079, Note_off_c, 10, 69, 127
2, 149085, Note_off_c, 1, 73, 127
2, 149086, Note_off_c, 12, 59, 127
2, 149088, Note_on_c, 8, 68, 127
2, 149088, Note_on_c, 12, 71, 127
2, 149088, Note_on_c, 6, 54, 127
2, 149222, Note_off_c, 12, 71, 127
2, 149225, Note_on_c, 1, 73, 127
2, 149359, Note_off_c, 1, 73, 127
2, 149361, Note_on_c, 2, 74, 127
2, 149495, Note_off_c, 2, 74, 127
2, 149495, Note_off_c, 6, 54, 127
2, 149498, Note_on_c, 1, 73, 127
2, 149498, Note_on_c, 5, 53, 127
2, 149897, Note_off_c, 8, 68, 127
2, 149905, Note_off_c, 5, 53, 127
2, 149907, Note_on_c, 6, 66, 127
2, 149907, Note_on_c, 2, 62, 127
2, 150093, Note_off_c, 1, 73, 127
2, 150111, Note_on_c, 12, 71, 127
2, 150312, Note_off_c, 12, 71, 127
2, 150312, Note_off_c, 2, 62, 127
2, 150315, Note_on_c, 10, 69, 127
2, 150315, Note_on_c, 1, 61, 127
2, 150516, Note_off_c, 10, 69, 127
2, 150519, Note_on_c, 2, 74, 127
2, 150720, Note_off_c, 2, 74, 127
2, 150720, Note_off_c, 1, 61, 127
2, 150723, Note_on_c, 8, 68, 127
2, 150723, Note_on_c, 0, 60, 127
2, 151130, Note_off_c, 0, 60, 127
2, 151130, Note_off_c, 6, 66, 127
2, 151133, Note_on_c, 5, 65, 127
2, 151133, Note_on_c, 1, 61, 127
2, 151532, Note_off_c, 8, 68, 127
2, 151540, Note_off_c, 1, 61, 127
2, 151540, Note_off_c, 5, 65, 127
2, 151542, Note_on_c, 6, 66, 127
2, 151542, Note_on_c, 10, 69, 127
2, 151542, Note_on_c, 10, 57, 127
2, 151949, Note_off_c, 10, 57, 127
2, 151952, Note_on_c, 6, 54, 127
2, 152359, Note_off_c, 6, 54, 127
2, 152359, Note_off_c, 10, 69, 127
2, 152361, Note_on_c, 12, 71, 127
2, 152361, Note_on_c, 8, 56, 127
2, 152565, Note_off_c, 6, 66, 127
2, 152567, Note_on_c, 8, 68, 127
2, 152768, Note_off_c, 8, 68, 127
2, 152770, Note_on_c, 10, 69, 127
2, 152956, Note_off_c, 12, 71, 127
2, 152971, Note_off_c, 10, 69, 127
2, 152975, Note_on_c, 12, 71, 127
2, 153180, Note_on_c, 1, 73, 127
2, 153381, Note_off_c, 1, 73, 127
2, 153384, Note_on_c, 2, 74, 127
2, 153575, Note_off_c, 12, 71, 127
2, 153585, Note_off_c, 2, 74, 127
2, 153589, Note_on_c, 12, 71, 127
2, 153589, Note_on_c, 6, 66, 127
2, 153790, Note_off_c, 6, 66, 127
2, 153792, Note_on_c, 5, 65, 127
2, 153993, Note_off_c, 5, 65, 127
2, 153993, Note_off_c, 8, 56, 127
2, 153996, Note_on_c, 6, 66, 127
2, 153996, Note_on_c, 6, 54, 127
2, 154197, Note_off_c, 6, 54, 127
2, 154200, Note_on_c, 6, 54, 127
2, 154401, Note_off_c, 6, 54, 127
2, 154404, Note_on_c, 7, 55, 127
2, 154605, Note_off_c, 7, 55, 127
2, 154608, Note_on_c, 10, 57, 127
2, 154801, Note_off_c, 12, 71, 127
2, 154811, Note_off_c, 10, 57, 127
2, 154814, Note_on_c, 10, 69, 127
2, 154814, Note_on_c, 12, 59, 127
2, 155015, Note_off_c, 12, 59, 127
2, 155017, Note_on_c, 0, 60, 127
2, 155218, Note_off_c, 0, 60, 127
2, 155221, Note_on_c, 4, 52, 127
2, 155422, Note_off_c, 4, 52, 127
2, 155426, Note_on_c, 3, 51, 127
2, 155627, Note_off_c, 3, 51, 127
2, 155627, Note_off_c, 10, 69, 127
2, 155629, Note_on_c, 7, 67, 127
2, 155629, Note_on_c, 4, 52, 127
2, 155830, Note_off_c, 4, 52, 127
2, 155834, Note_on_c, 6, 54, 127
2, 156035, Note_off_c, 6, 54, 127
2, 156037, Note_on_c, 7, 55, 127
2, 156238, Note_off_c, 7, 55, 127
2, 156241, Note_on_c, 4, 52, 127
2, 156441, Note_off_c, 6, 66, 127
2, 156442, Note_off_c, 4, 52, 127
2, 156445, Note_on_c, 4, 64, 127
2, 156445, Note_on_c, 11, 58, 127
2, 156646, Note_off_c, 11, 58, 127
2, 156649, Note_on_c, 12, 59, 127
2, 156850, Note_off_c, 12, 59, 127
2, 156852, Note_on_c, 2, 50, 127
2, 157053, Note_off_c, 2, 50, 127
2, 157057, Note_on_c, 1, 49, 127
2, 157258, Note_off_c, 1, 49, 127
2, 157258, Note_off_c, 7, 67, 127
2, 157260, Note_on_c, 6, 66, 127
2, 157260, Note_on_c, 2, 50, 127
2, 157667, Note_off_c, 2, 50, 127
2, 157671, Note_on_c, 12, 71, 127
2, 157671, Note_on_c, 12, 47, 127
2, 157870, Note_off_c, 4, 64, 127
2, 157876, Note_on_c, 2, 62, 127
2, 158060, Note_off_c, 6, 66, 127
2, 158076, Note_off_c, 12, 71, 127
2, 158077, Note_off_c, 2, 62, 127
2, 158078, Note_off_c, 12, 47, 127
2, 158080, Note_on_c, 10, 69, 127
2, 158080, Note_on_c, 1, 61, 127
2, 158080, Note_on_c, 6, 54, 127
2, 158281, Note_off_c, 1, 61, 127
2, 158283, Note_on_c, 12, 59, 127
2, 158484, Note_off_c, 12, 59, 127
2, 158485, Note_off_c, 10, 69, 127
2, 158488, Note_on_c, 6, 66, 127
2, 158488, Note_on_c, 10, 57, 127
2, 158674, Note_off_c, 6, 54, 127
2, 158689, Note_off_c, 10, 57, 127
2, 158691, Note_on_c, 6, 54, 127
2, 158893, Note_off_c, 6, 66, 127
2, 158896, Note_on_c, 5, 65, 127
2, 158896, Note_on_c, 2, 74, 127
2, 158896, Note_on_c, 8, 56, 127
2, 159097, Note_off_c, 8, 56, 127
2, 159099, Note_on_c, 12, 59, 127
2, 159300, Note_off_c, 12, 59, 127
2, 159301, Note_off_c, 2, 74, 127
2, 159301, Note_off_c, 5, 65, 127
2, 159303, Note_on_c, 12, 71, 127
2, 159303, Note_on_c, 3, 63, 127
2, 159303, Note_on_c, 10, 57, 127
2, 159496, Note_off_c, 6, 54, 127
2, 159504, Note_off_c, 10, 57, 127
2, 159508, Note_on_c, 6, 54, 127
2, 159708, Note_off_c, 3, 63, 127
2, 159708, Note_off_c, 12, 71, 127
2, 159709, Note_off_c, 6, 54, 127
2, 159711, Note_on_c, 4, 76, 127
2, 159711, Note_on_c, 0, 60, 127
2, 159711, Note_on_c, 6, 54, 127
2, 160118, Note_off_c, 0, 60, 127
2, 160118, Note_off_c, 4, 76, 127
2, 160120, Note_on_c, 3, 75, 127
2, 160120, Note_on_c, 12, 59, 127
2, 160321, Note_off_c, 12, 59, 127
2, 160325, Note_on_c, 10, 57, 127
2, 160520, Note_off_c, 6, 54, 127
2, 160528, Note_off_c, 10, 57, 127
2, 160530, Note_on_c, 10, 69, 127
2, 160530, Note_on_c, 12, 59, 127
2, 160530, Note_on_c, 4, 52, 127
2, 160925, Note_off_c, 3, 75, 127
2, 160937, Note_off_c, 10, 69, 127
2, 160940, Note_on_c, 8, 68, 127
2, 160940, Note_on_c, 4, 76, 127
2, 161347, Note_off_c, 4, 76, 127
2, 161347, Note_off_c, 8, 68, 127
2, 161347, Note_off_c, 4, 52, 127
2, 161350, Note_on_c, 5, 77, 127
2, 161350, Note_on_c, 2, 50, 127
2, 161757, Note_off_c, 5, 77, 127
2, 161759, Note_on_c, 4, 76, 127
2, 162165, Note_off_c, 12, 59, 127
2, 162166, Note_off_c, 4, 76, 127
2, 162167, Note_off_c, 2, 50, 127
2, 162168, Note_on_c, 12, 71, 127
2, 162168, Note_on_c, 4, 52, 127
2, 162168, Note_on_c, 1, 49, 127
2, 162575, Note_off_c, 12, 71, 127
2, 162578, Note_on_c, 11, 70, 127
2, 162578, Note_on_c, 4, 76, 127
2, 162985, Note_off_c, 4, 76, 127
2, 162985, Note_off_c, 11, 70, 127
2, 162985, Note_off_c, 1, 49, 127
2, 162985, Note_off_c, 4, 52, 127
2, 162988, Note_on_c, 2, 74, 127
2, 162988, Note_on_c, 7, 79, 127
2, 162988, Note_on_c, 12, 47, 127
2, 162988, Note_on_c, 12, 59, 127
2, 163189, Note_off_c, 2, 74, 127
2, 163191, Note_on_c, 1, 73, 127
2, 163391, Note_off_c, 7, 79, 127
2, 163392, Note_off_c, 1, 73, 127
2, 163393, Note_off_c, 12, 59, 127
2, 163396, Note_on_c, 2, 74, 127
2, 163396, Note_on_c, 6, 78, 127
2, 163396, Note_on_c, 10, 57, 127
2, 163597, Note_off_c, 2, 74, 127
2, 163599, Note_on_c, 12, 71, 127
2, 163799, Note_off_c, 6, 78, 127
2, 163800, Note_off_c, 12, 71, 127
2, 163801, Note_off_c, 10, 57, 127
2, 163804, Note_on_c, 1, 73, 127
2, 163804, Note_on_c, 5, 77, 127
2, 163804, Note_on_c, 8, 56, 127
2, 164211, Note_off_c, 8, 56, 127
2, 164211, Note_off_c, 5, 77, 127
2, 164211, Note_off_c, 12, 47, 127
2, 164213, Note_on_c, 6, 78, 127
2, 164213, Note_on_c, 6, 54, 127
2, 164213, Note_on_c, 11, 46, 127
2, 164613, Note_off_c, 1, 73, 127
2, 164620, Note_off_c, 11, 46, 127
2, 164620, Note_off_c, 6, 54, 127
2, 164620, Note_off_c, 6, 78, 127
2, 164622, Note_on_c, 12, 71, 127
2, 164622, Note_on_c, 2, 74, 127
2, 164622, Note_on_c, 6, 66, 127
2, 164622, Note_on_c, 12, 47, 127
2, 165029, Note_off_c, 6, 66, 127
2, 165029, Note_off_c, 2, 74, 127
2, 165029, Note_off_c, 12, 71, 127
2, 165032, Note_on_c, 2, 62, 127
2, 165032, Note_on_c, 12, 71, 127
2, 165032, Note_on_c, 6, 66, 127
2, 165439, Note_off_c, 6, 66, 127
2, 165439, Note_off_c, 12, 71, 127
2, 165439, Note_off_c, 2, 62, 127
2, 165441, Note_on_c, 1, 73, 127
2, 165441, Note_on_c, 4, 64, 127
2, 165441, Note_on_c, 7, 67, 127
2, 165642, Note_off_c, 12, 47, 127
2, 165645, Note_on_c, 1, 49, 127
2, 165846, Note_off_c, 1, 49, 127
2, 165850, Note_on_c, 2, 50, 127
2, 166051, Note_off_c, 2, 50, 127
2, 166053, Note_on_c, 4, 52, 127
2, 166254, Note_off_c, 4, 52, 127
2, 166258, Note_on_c, 6, 54, 127
2, 166459, Note_off_c, 6, 54, 127
2, 166461, Note_on_c, 7, 55, 127
2, 166662, Note_off_c, 7, 55, 127
2, 166665, Note_on_c, 12, 47, 127
2, 166866, Note_off_c, 12, 47, 127
2, 166869, Note_on_c, 11, 46, 127
2, 167070, Note_off_c, 11, 46, 127
2, 167073, Note_on_c, 2, 50, 127
2, 167273, Note_off_c, 7, 67, 127
2, 167273, Note_off_c, 4, 64, 127
2, 167273, Note_off_c, 1, 73, 127
2, 167277, Note_on_c, 1, 73, 127
2, 167478, Note_off_c, 1, 73, 127
2, 167481, Note_on_c, 1, 61, 127
2, 167481, Note_on_c, 2, 74, 127
2, 167682, Note_off_c, 2, 74, 127
2, 167684, Note_on_c, 4, 76, 127
2, 167885, Note_off_c, 4, 76, 127
2, 167889, Note_on_c, 6, 78, 127
2, 167889, Note_on_c, 11, 58, 127
2, 168090, Note_off_c, 6, 78, 127
2, 168093, Note_on_c, 7, 79, 127
2, 168294, Note_off_c, 7, 79, 127
2, 168294, Note_off_c, 11, 58, 127
2, 168297, Note_on_c, 12, 71, 127
2, 168297, Note_on_c, 6, 54, 127
2, 168498, Note_off_c, 12, 71, 127
2, 168501, Note_on_c, 11, 70, 127
2, 168702, Note_off_c, 11, 70, 127
2, 168702, Note_off_c, 1, 61, 127
2, 168704, Note_on_c, 2, 62, 127
2, 168704, Note_on_c, 12, 71, 127
2, 168704, Note_on_c, 6, 66, 127
2, 168706, Note_off_c, 6, 54, 127
2, 168901, Note_off_c, 2, 50, 127
2, 168910, Note_on_c, 11, 46, 127
2, 169111, Note_off_c, 11, 46, 127
2, 169114, Note_on_c, 12, 47, 127
2, 169315, Note_off_c, 12, 47, 127
2, 169318, Note_on_c, 1, 49, 127
2, 169519, Note_off_c, 1, 49, 127
2, 169519, Note_off_c, 6, 66, 127
2, 169521, Note_on_c, 8, 68, 127
2, 169521, Note_on_c, 2, 50, 127
2, 169722, Note_off_c, 2, 50, 127
2, 169726, Note_on_c, 4, 52, 127
2, 169927, Note_off_c, 4, 52, 127
2, 169929, Note_on_c, 6, 42, 127
2, 170130, Note_off_c, 6, 42, 127
2, 170134, Note_on_c, 5, 41, 127
2, 170335, Note_off_c, 5, 41, 127
2, 170335, Note_off_c, 2, 62, 127
2, 170338, Note_on_c, 1, 61, 127
2, 170338, Note_on_c, 6, 42, 127
2, 170533, Note_off_c, 12, 71, 127
2, 170541, Note_off_c, 8, 68, 127
2, 170543, Note_on_c, 5, 65, 127
2, 170744, Note_off_c, 5, 65, 127
2, 170747, Note_on_c, 6, 66, 127
2, 170948, Note_off_c, 6, 66, 127
2, 170951, Note_on_c, 8, 68, 127
2, 171152, Note_off_c, 8, 68, 127
2, 171153, Note_off_c, 6, 42, 127
2, 171155, Note_on_c, 10, 69, 127
2, 171155, Note_on_c, 6, 66, 127
2, 171155, Note_on_c, 6, 54, 127
2, 171356, Note_off_c, 10, 69, 127
2, 171359, Note_on_c, 12, 71, 127
2, 171560, Note_off_c, 12, 71, 127
2, 171560, Note_off_c, 6, 54, 127
2, 171563, Note_on_c, 1, 73, 127
2, 171563, Note_on_c, 10, 57, 127
2, 171749, Note_off_c, 6, 66, 127
2, 171766, Note_on_c, 6, 66, 127
2, 171966, Note_off_c, 1, 73, 127
2, 171968, Note_off_c, 10, 57, 127
2, 171971, Note_on_c, 2, 74, 127
2, 171971, Note_on_c, 12, 59, 127
2, 172034, Note_off_c, 1, 61, 127
2, 172169, Note_off_c, 6, 66, 127
2, 172172, Note_off_c, 2, 74, 127
2, 172175, Note_on_c, 4, 76, 127
2, 172376, Note_off_c, 4, 76, 127
2, 172376, Note_off_c, 12, 59, 127
2, 172379, Note_on_c, 6, 78, 127
2, 172379, Note_on_c, 12, 59, 127
2, 172379, Note_on_c, 2, 50, 127
2, 172580, Note_off_c, 12, 59, 127
2, 172583, Note_on_c, 10, 57, 127
2, 172782, Note_off_c, 2, 50, 127
2, 172784, Note_off_c, 10, 57, 127
2, 172786, Note_on_c, 4, 52, 127
2, 172786, Note_on_c, 8, 56, 127
2, 172987, Note_off_c, 8, 56, 127
2, 172991, Note_on_c, 10, 57, 127
2, 173189, Note_off_c, 4, 52, 127
2, 173192, Note_off_c, 10, 57, 127
2, 173192, Note_off_c, 6, 78, 127
2, 173194, Note_on_c, 4, 76, 127
2, 173194, Note_on_c, 12, 59, 127
2, 173194, Note_on_c, 8, 56, 127
2, 173395, Note_off_c, 4, 76, 127
2, 173398, Note_on_c, 2, 74, 127
2, 173599, Note_off_c, 2, 74, 127
2, 173599, Note_off_c, 8, 56, 127
2, 173602, Note_on_c, 1, 73, 127
2, 173602, Note_on_c, 10, 57, 127
2, 173803, Note_off_c, 1, 73, 127
2, 173806, Note_on_c, 2, 74, 127
2, 173896, Note_off_c, 12, 59, 127
2, 174009, Note_off_c, 2, 74, 127
2, 174009, Note_off_c, 10, 57, 127
2, 174012, Note_on_c, 4, 76, 127
2, 174012, Note_on_c, 10, 57, 127
2, 174012, Note_on_c, 1, 49, 127
2, 174213, Note_off_c, 10, 57, 127
2, 174216, Note_on_c, 8, 56, 127
2, 174415, Note_off_c, 1, 49, 127
2, 174417, Note_off_c, 8, 56, 127
2, 174420, Note_on_c, 6, 54, 127
2, 174420, Note_on_c, 2, 50, 127
2, 174621, Note_off_c, 6, 54, 127
2, 174623, Note_on_c, 8, 56, 127
2, 174823, Note_off_c, 2, 50, 127
2, 174824, Note_off_c, 8, 56, 127
2, 174825, Note_off_c, 4, 76, 127
2, 174828, Note_on_c, 2, 74, 127
2, 174828, Note_on_c, 6, 54, 127
2, 174828, Note_on_c, 10, 57, 127
2, 175029, Note_off_c, 2, 74, 127
2, 175031, Note_on_c, 1, 73, 127
2, 175232, Note_off_c, 1, 73, 127
2, 175233, Note_off_c, 6, 54, 127
2, 175236, Note_on_c, 12, 71, 127
2, 175236, Note_on_c, 8, 56, 127
2, 175437, Note_off_c, 12, 71, 127
2, 175439, Note_on_c, 1, 73, 127
2, 175530, Note_off_c, 10, 57, 127
2, 175642, Note_off_c, 1, 73, 127
2, 175643, Note_off_c, 8, 56, 127
2, 175645, Note_on_c, 2, 74, 127
2, 175645, Note_on_c, 8, 56, 127
2, 175645, Note_on_c, 12, 47, 127
2, 175846, Note_off_c, 8, 56, 127
2, 175849, Note_on_c, 6, 54, 127
2, 176048, Note_off_c, 12, 47, 127
2, 176050, Note_off_c, 6, 54, 127
2, 176053, Note_on_c, 1, 49, 127
2, 176053, Note_on_c, 5, 53, 127
2, 176254, Note_off_c, 5, 53, 127
2, 176257, Note_on_c, 6, 54, 127
2, 176456, Note_off_c, 1, 49, 127
2, 176458, Note_off_c, 6, 54, 127
2, 176458, Note_off_c, 2, 74, 127
2, 176461, Note_on_c, 1, 73, 127
2, 176461, Note_on_c, 8, 56, 127
2, 176461, Note_on_c, 5, 53, 127
2, 176662, Note_off_c, 1, 73, 127
2, 176665, Note_on_c, 12, 71, 127
2, 176866, Note_off_c, 12, 71, 127
2, 176866, Note_off_c, 5, 53, 127
2, 176866, Note_off_c, 8, 56, 127
2, 176868, Note_on_c, 10, 69, 127
2, 176868, Note_on_c, 6, 54, 127
2, 177074, Note_on_c, 12, 71, 127
2, 177275, Note_off_c, 12, 71, 127
2, 177275, Note_off_c, 6, 54, 127
2, 177278, Note_on_c, 6, 66, 127
2, 177278, Note_on_c, 1, 73, 127
2, 177278, Note_on_c, 10, 45, 127
2, 177677, Note_off_c, 10, 69, 127
2, 177685, Note_off_c, 10, 45, 127
2, 177685, Note_off_c, 6, 66, 127
2, 177688, Note_on_c, 2, 62, 127
2, 177688, Note_on_c, 12, 47, 127
2, 178087, Note_off_c, 1, 73, 127
2, 178095, Note_off_c, 12, 47, 127
2, 178095, Note_off_c, 2, 62, 127
2, 178097, Note_on_c, 6, 78, 127
2, 178097, Note_on_c, 12, 71, 127
2, 178097, Note_on_c, 2, 50, 127
2, 178097, Note_on_c, 12, 59, 127
2, 178298, Note_off_c, 12, 71, 127
2, 178301, Note_on_c, 10, 69, 127
2, 178502, Note_off_c, 10, 69, 127
2, 178502, Note_off_c, 12, 59, 127
2, 178502, Note_off_c, 2, 50, 127
2, 178505, Note_on_c, 7, 67, 127
2, 178505, Note_on_c, 4, 52, 127
2, 178706, Note_off_c, 7, 67, 127
2, 178709, Note_on_c, 10, 69, 127
2, 178905, Note_off_c, 6, 78, 127
2, 178912, Note_off_c, 10, 69, 127
2, 178912, Note_off_c, 4, 52, 127
2, 178915, Note_on_c, 12, 71, 127
2, 178915, Note_on_c, 4, 76, 127
2, 178915, Note_on_c, 7, 43, 127
2, 179116, Note_off_c, 4, 76, 127
2, 179119, Note_on_c, 2, 74, 127
2, 179320, Note_off_c, 2, 74, 127
2, 179320, Note_off_c, 7, 43, 127
2, 179322, Note_on_c, 1, 73, 127
2, 179322, Note_on_c, 10, 45, 127
2, 179523, Note_off_c, 1, 73, 127
2, 179527, Note_on_c, 2, 74, 127
2, 179723, Note_off_c, 12, 71, 127
2, 179729, Note_off_c, 10, 45, 127
2, 179730, Note_off_c, 2, 74, 127
2, 179732, Note_on_c, 4, 76, 127
2, 179732, Note_on_c, 10, 69, 127
2, 179732, Note_on_c, 1, 49, 127
2, 179933, Note_off_c, 10, 69, 127
2, 179936, Note_on_c, 7, 67, 127
2, 180137, Note_off_c, 7, 67, 127
2, 180137, Note_off_c, 1, 49, 127
2, 180139, Note_on_c, 6, 66, 127
2, 180139, Note_on_c, 2, 50, 127
2, 180340, Note_off_c, 6, 66, 127
2, 180344, Note_on_c, 7, 67, 127
2, 180540, Note_off_c, 4, 76, 127
2, 180546, Note_off_c, 2, 50, 127
2, 180547, Note_off_c, 7, 67, 127
2, 180550, Note_on_c, 10, 69, 127
2, 180550, Note_on_c, 2, 74, 127
2, 180550, Note_on_c, 6, 42, 127
2, 180751, Note_off_c, 2, 74, 127
2, 180753, Note_on_c, 1, 73, 127
2, 180954, Note_off_c, 1, 73, 127
2, 180955, Note_off_c, 6, 42, 127
2, 180958, Note_on_c, 12, 71, 127
2, 180958, Note_on_c, 7, 43, 127
2, 181159, Note_off_c, 12, 71, 127
2, 181161, Note_on_c, 1, 73, 127
2, 181358, Note_off_c, 10, 69, 127
2, 181364, Note_off_c, 1, 73, 127
2, 181365, Note_off_c, 7, 43, 127
2, 181367, Note_on_c, 7, 67, 127
2, 181367, Note_on_c, 2, 74, 127
2, 181367, Note_on_c, 12, 47, 127
2, 181568, Note_off_c, 7, 67, 127
2, 181570, Note_on_c, 6, 66, 127
2, 181771, Note_off_c, 6, 66, 127
2, 181772, Note_off_c, 12, 47, 127
2, 181775, Note_on_c, 4, 64, 127
2, 181775, Note_on_c, 1, 49, 127
2, 181976, Note_off_c, 4, 64, 127
2, 181979, Note_on_c, 6, 66, 127
2, 182175, Note_off_c, 2, 74, 127
2, 182182, Note_off_c, 6, 66, 127
2, 182182, Note_off_c, 1, 49, 127
2, 182184, Note_on_c, 7, 67, 127
2, 182184, Note_on_c, 1, 73, 127
2, 182184, Note_on_c, 4, 40, 127
2, 182385, Note_off_c, 1, 73, 127
2, 182389, Note_on_c, 12, 71, 127
2, 182589, Note_off_c, 4, 40, 127
2, 182590, Note_off_c, 12, 71, 127
2, 182592, Note_on_c, 11, 70, 127
2, 182592, Note_on_c, 6, 42, 127
2, 182793, Note_off_c, 11, 70, 127
2, 182796, Note_on_c, 12, 71, 127
2, 182992, Note_off_c, 7, 67, 127
2, 182999, Note_off_c, 12, 71, 127
2, 182999, Note_off_c, 6, 42, 127
2, 183001, Note_on_c, 6, 66, 127
2, 183001, Note_on_c, 1, 73, 127
2, 183001, Note_on_c, 11, 46, 127
2, 183202, Note_off_c, 6, 66, 127
2, 183206, Note_on_c, 4, 64, 127
2, 183406, Note_off_c, 11, 46, 127
2, 183407, Note_off_c, 4, 64, 127
2, 183410, Note_on_c, 2, 62, 127
2, 183410, Note_on_c, 12, 47, 127
2, 183809, Note_off_c, 1, 73, 127
2, 183819, Note_on_c, 12, 71, 127
2, 183819, Note_on_c, 6, 66, 127
2, 184020, Note_off_c, 12, 71, 127
2, 184023, Note_on_c, 11, 70, 127
2, 184219, Note_off_c, 2, 62, 127
2, 184224, Note_off_c, 6, 66, 127
2, 184226, Note_off_c, 11, 70, 127
2, 184229, Note_on_c, 2, 62, 127
2, 184229, Note_on_c, 12, 71, 127
2, 184430, Note_off_c, 12, 47, 127
2, 184432, Note_on_c, 1, 49, 127
2, 184633, Note_off_c, 1, 49, 127
2, 184634, Note_off_c, 2, 62, 127
2, 184637, Note_on_c, 12, 59, 127
2, 184637, Note_on_c, 2, 50, 127
2, 184838, Note_off_c, 2, 50, 127
2, 184841, Note_on_c, 6, 54, 127
2, 185042, Note_off_c, 6, 54, 127
2, 185042, Note_off_c, 12, 59, 127
2, 185044, Note_on_c, 7, 67, 127
2, 185044, Note_on_c, 4, 52, 127
2, 185245, Note_off_c, 4, 52, 127
2, 185247, Note_off_c, 12, 71, 127
2, 185249, Note_on_c, 11, 70, 127
2, 185249, Note_on_c, 1, 49, 127
2, 185447, Note_off_c, 7, 67, 127
2, 185450, Note_off_c, 1, 49, 127
2, 185450, Note_off_c, 11, 70, 127
2, 185452, Note_on_c, 12, 71, 127
2, 185452, Note_on_c, 6, 66, 127
2, 185452, Note_on_c, 2, 50, 127
2, 185653, Note_off_c, 2, 50, 127
2, 185653, Note_off_c, 12, 71, 127
2, 185657, Note_on_c, 2, 74, 127
2, 185657, Note_on_c, 6, 54, 127
2, 185855, Note_off_c, 6, 66, 127
2, 185858, Note_off_c, 6, 54, 127
2, 185858, Note_off_c, 2, 74, 127
2, 185860, Note_on_c, 1, 73, 127
2, 185860, Note_on_c, 12, 71, 127
2, 185860, Note_on_c, 7, 55, 127
2, 186061, Note_off_c, 7, 55, 127
2, 186064, Note_on_c, 4, 52, 127
2, 186265, Note_off_c, 4, 52, 127
2, 186265, Note_off_c, 12, 71, 127
2, 186268, Note_on_c, 11, 70, 127
2, 186268, Note_on_c, 6, 54, 127
2, 186469, Note_off_c, 6, 54, 127
2, 186472, Note_on_c, 11, 58, 127
2, 186668, Note_off_c, 1, 73, 127
2, 186675, Note_off_c, 11, 58, 127
2, 186675, Note_off_c, 11, 70, 127
2, 186677, Note_on_c, 4, 64, 127
2, 186677, Note_on_c, 12, 71, 127
2, 186677, Note_on_c, 12, 59, 127
2, 186878, Note_off_c, 12, 59, 127
2, 186881, Note_on_c, 7, 55, 127
2, 187082, Note_off_c, 7, 55, 127
2, 187082, Note_off_c, 4, 64, 127
2, 187086, Note_on_c, 3, 63, 127
2, 187086, Note_on_c, 6, 54, 127
2, 187287, Note_off_c, 6, 54, 127
2, 187289, Note_on_c, 4, 52, 127
2, 187485, Note_off_c, 12, 71, 127
2, 187492, Note_off_c, 4, 52, 127
2, 187493, Note_off_c, 3, 63, 127
2, 187495, Note_on_c, 0, 72, 127
2, 187495, Note_on_c, 10, 69, 127
2, 187495, Note_on_c, 3, 51, 127
2, 187902, Note_off_c, 0, 72, 127
2, 187905, Note_on_c, 12, 71, 127
2, 188106, Note_off_c, 3, 51, 127
2, 188108, Note_on_c, 1, 49, 127
2, 188304, Note_off_c, 10, 69, 127
2, 188311, Note_off_c, 1, 49, 127
2, 188312, Note_off_c, 12, 71, 127
2, 188314, Note_on_c, 6, 66, 127
2, 188314, Note_on_c, 8, 68, 127
2, 188314, Note_on_c, 2, 50, 127
2, 188515, Note_off_c, 2, 50, 127
2, 188518, Note_on_c, 4, 52, 127
2, 188719, Note_off_c, 4, 52, 127
2, 188719, Note_off_c, 6, 66, 127
2, 188722, Note_on_c, 5, 65, 127
2, 188722, Note_on_c, 2, 50, 127
2, 188923, Note_off_c, 2, 50, 127
2, 188926, Note_on_c, 1, 49, 127
2, 189122, Note_off_c, 8, 68, 127
2, 189129, Note_off_c, 1, 49, 127
2, 189129, Note_off_c, 5, 65, 127
2, 189131, Note_on_c, 6, 66, 127
2, 189131, Note_on_c, 2, 74, 127
2, 189131, Note_on_c, 12, 47, 127
2, 189332, Note_off_c, 12, 47, 127
2, 189336, Note_on_c, 10, 45, 127
2, 189536, Note_off_c, 2, 74, 127
2, 189537, Note_off_c, 10, 45, 127
2, 189539, Note_on_c, 1, 73, 127
2, 189539, Note_on_c, 8, 44, 127
2, 189740, Note_off_c, 8, 44, 127
2, 189743, Note_on_c, 6, 42, 127
2, 189944, Note_off_c, 6, 42, 127
2, 189944, Note_off_c, 1, 73, 127
2, 189948, Note_on_c, 0, 72, 127
2, 189948, Note_on_c, 8, 44, 127
2, 190149, Note_off_c, 8, 44, 127
2, 190151, Note_on_c, 12, 47, 127
2, 190352, Note_off_c, 12, 47, 127
2, 190352, Note_off_c, 6, 66, 127
2, 190353, Note_off_c, 0, 72, 127
2, 190355, Note_on_c, 5, 65, 127
2, 190355, Note_on_c, 1, 73, 127
2, 190355, Note_on_c, 10, 45, 127
2, 190556, Note_off_c, 10, 45, 127
2, 190559, Note_on_c, 8, 44, 127
2, 190760, Note_off_c, 8, 44, 127
2, 190760, Note_off_c, 1, 73, 127
2, 190760, Note_off_c, 5, 65, 127
2, 190763, Note_on_c, 10, 69, 127
2, 190763, Note_on_c, 6, 66, 127
2, 190763, Note_on_c, 6, 42, 127
2, 190964, Note_off_c, 6, 42, 127
2, 190967, Note_on_c, 10, 45, 127
2, 191168, Note_off_c, 10, 45, 127
2, 191168, Note_off_c, 6, 66, 127
2, 191168, Note_off_c, 10, 69, 127
2, 191171, Note_on_c, 6, 66, 127
2, 191171, Note_on_c, 2, 50, 127
2, 191372, Note_off_c, 2, 50, 127
2, 191374, Note_on_c, 1, 49, 127
2, 191575, Note_off_c, 1, 49, 127
2, 191579, Note_on_c, 8, 68, 127
2, 191579, Note_on_c, 12, 47, 127
2, 191765, Note_off_c, 6, 66, 127
2, 191779, Note_off_c, 8, 68, 127
2, 191782, Note_on_c, 8, 68, 127
2, 191984, Note_off_c, 12, 47, 127
2, 191987, Note_on_c, 10, 69, 127
2, 191987, Note_on_c, 8, 44, 127
2, 192188, Note_off_c, 10, 69, 127
2, 192191, Note_on_c, 12, 71, 127
2, 192392, Note_off_c, 12, 71, 127
2, 192392, Note_off_c, 8, 44, 127
2, 192394, Note_on_c, 1, 73, 127
2, 192394, Note_on_c, 1, 49, 127
2, 192595, Note_off_c, 1, 73, 127
2, 192599, Note_on_c, 2, 74, 127
2, 192799, Note_off_c, 1, 49, 127
2, 192800, Note_off_c, 2, 74, 127
2, 192802, Note_on_c, 6, 66, 127
2, 192802, Note_on_c, 1, 37, 127
2, 193003, Note_off_c, 6, 66, 127
2, 193007, Note_on_c, 5, 65, 127
2, 193205, Note_off_c, 8, 68, 127
2, 193207, Note_off_c, 1, 37, 127
2, 193208, Note_off_c, 5, 65, 127
2, 193210, Note_on_c, 6, 66, 127
2, 193210, Note_on_c, 10, 69, 127
2, 193210, Note_on_c, 6, 54, 127
2, 193411, Note_off_c, 6, 54, 127
2, 193414, Note_on_c, 7, 55, 127
2, 193615, Note_off_c, 7, 55, 127
2, 193618, Note_on_c, 10, 57, 127
2, 193819, Note_off_c, 10, 57, 127
2, 193822, Note_on_c, 12, 59, 127
2, 194018, Note_off_c, 6, 66, 127
2, 194025, Note_off_c, 12, 59, 127
2, 194028, Note_on_c, 6, 78, 127
2, 194028, Note_on_c, 0, 60, 127
2, 194229, Note_off_c, 0, 60, 127
2, 194231, Note_on_c, 2, 62, 127
2, 194432, Note_off_c, 2, 62, 127
2, 194436, Note_on_c, 4, 52, 127
2, 194637, Note_off_c, 4, 52, 127
2, 194639, Note_on_c, 3, 51, 127
2, 194840, Note_off_c, 3, 51, 127
2, 194844, Note_on_c, 7, 55, 127
2, 195251, Note_off_c, 6, 78, 127
2, 195252, Note_off_c, 10, 69, 127
2, 195253, Note_on_c, 0, 72, 127
2, 195253, Note_on_c, 4, 76, 127
2, 195660, Note_off_c, 4, 76, 127
2, 195660, Note_off_c, 0, 72, 127
2, 195662, Note_on_c, 3, 75, 127
2, 195662, Note_on_c, 12, 71, 127
2, 196069, Note_off_c, 12, 71, 127
2, 196069, Note_off_c, 3, 75, 127
2, 196072, Note_on_c, 3, 75, 127
2, 196072, Note_on_c, 6, 78, 127
2, 196479, Note_off_c, 6, 78, 127
2, 196479, Note_off_c, 3, 75, 127
2, 196481, Note_on_c, 4, 76, 127
2, 196481, Note_on_c, 7, 79, 127
2, 196684, Note_off_c, 7, 55, 127
2, 196686, Note_on_c, 12, 47, 127
2, 196887, Note_off_c, 12, 47, 127
2, 196890, Note_on_c, 1, 49, 127
2, 197091, Note_off_c, 1, 49, 127
2, 197093, Note_on_c, 2, 50, 127
2, 197294, Note_off_c, 2, 50, 127
2, 197298, Note_on_c, 4, 52, 127
2, 197499, Note_off_c, 4, 52, 127
2, 197501, Note_on_c, 6, 54, 127
2, 197702, Note_off_c, 6, 54, 127
2, 197705, Note_on_c, 12, 47, 127
2, 197906, Note_off_c, 12, 47, 127
2, 197909, Note_on_c, 11, 46, 127
2, 198110, Note_off_c, 11, 46, 127
2, 198113, Note_on_c, 12, 47, 127
2, 198519, Note_off_c, 7, 79, 127
2, 198519, Note_off_c, 4, 76, 127
2, 198523, Note_on_c, 2, 74, 127
2, 198523, Note_on_c, 6, 78, 127
2, 198930, Note_off_c, 6, 78, 127
2, 198930, Note_off_c, 2, 74, 127
2, 198932, Note_on_c, 1, 73, 127
2, 198932, Note_on_c, 5, 77, 127
2, 199339, Note_off_c, 5, 77, 127
2, 199339, Note_off_c, 1, 73, 127
2, 199341, Note_on_c, 8, 80, 127
2, 199341, Note_on_c, 5, 77, 127
2, 199748, Note_off_c, 5, 77, 127
2, 199748, Note_off_c, 8, 80, 127
2, 199752, Note_on_c, 6, 78, 127
2, 199752, Note_on_c, 1, 73, 127
2, 200158, Note_off_c, 12, 47, 127
2, 200159, Note_off_c, 1, 73, 127
2, 200161, Note_on_c, 2, 74, 127
2, 200161, Note_on_c, 11, 46, 127
2, 200347, Note_off_c, 6, 78, 127
2, 200362, Note_off_c, 2, 74, 127
2, 200364, Note_on_c, 4, 76, 127
2, 200565, Note_off_c, 4, 76, 127
2, 200566, Note_off_c, 11, 46, 127
2, 200569, Note_on_c, 2, 74, 127
2, 200569, Note_on_c, 12, 47, 127
2, 200770, Note_off_c, 2, 74, 127
2, 200772, Note_on_c, 4, 76, 127
2, 200973, Note_off_c, 4, 76, 127
2, 200974, Note_off_c, 12, 47, 127
2, 200977, Note_on_c, 12, 71, 127
2, 200977, Note_on_c, 6, 78, 127
2, 200977, Note_on_c, 2, 50, 127
2, 201178, Note_off_c, 12, 71, 127
2, 201180, Note_on_c, 10, 69, 127
2, 201381, Note_off_c, 10, 69, 127
2, 201382, Note_off_c, 2, 50, 127
2, 201384, Note_on_c, 7, 67, 127
2, 201384, Note_on_c, 4, 52, 127
2, 201585, Note_off_c, 7, 67, 127
2, 201589, Note_on_c, 10, 69, 127
2, 201785, Note_off_c, 6, 78, 127
2, 201791, Note_off_c, 4, 52, 127
2, 201792, Note_off_c, 10, 69, 127
2, 201794, Note_on_c, 4, 76, 127
2, 201794, Note_on_c, 12, 71, 127
2, 201794, Note_on_c, 7, 43, 127
2, 201995, Note_off_c, 4, 76, 127
2, 201998, Note_on_c, 2, 74, 127
2, 202199, Note_off_c, 2, 74, 127
2, 202199, Note_off_c, 7, 43, 127
2, 202202, Note_on_c, 1, 73, 127
2, 202202, Note_on_c, 10, 45, 127
2, 202403, Note_off_c, 1, 73, 127
2, 202406, Note_on_c, 2, 74, 127
2, 202602, Note_off_c, 12, 71, 127
2, 202609, Note_off_c, 2, 74, 127
2, 202609, Note_off_c, 10, 45, 127
2, 202611, Note_on_c, 4, 76, 127
2, 202611, Note_on_c, 10, 69, 127
2, 202611, Note_on_c, 1, 49, 127
2, 202812, Note_off_c, 10, 69, 127
2, 202815, Note_on_c, 7, 67, 127
2, 203016, Note_off_c, 7, 67, 127
2, 203016, Note_off_c, 1, 49, 127
2, 203020, Note_on_c, 6, 66, 127
2, 203020, Note_on_c, 2, 50, 127
2, 203221, Note_off_c, 6, 66, 127
2, 203223, Note_on_c, 7, 67, 127
2, 203419, Note_off_c, 4, 76, 127
2, 203426, Note_off_c, 7, 67, 127
2, 203427, Note_off_c, 2, 50, 127
2, 203429, Note_on_c, 10, 69, 127
2, 203429, Note_on_c, 2, 74, 127
2, 203429, Note_on_c, 6, 42, 127
2, 203630, Note_off_c, 2, 74, 127
2, 203633, Note_on_c, 1, 73, 127
2, 203834, Note_off_c, 1, 73, 127
2, 203834, Note_off_c, 6, 42, 127
2, 203837, Note_on_c, 12, 71, 127
2, 203837, Note_on_c, 7, 43, 127
2, 204038, Note_off_c, 12, 71, 127
2, 204040, Note_on_c, 1, 73, 127
2, 204237, Note_off_c, 10, 69, 127
2, 204243, Note_off_c, 1, 73, 127
2, 204244, Note_off_c, 7, 43, 127
2, 204246, Note_on_c, 2, 74, 127
2, 204246, Note_on_c, 7, 67, 127
2, 204246, Note_on_c, 12, 47, 127
2, 204447, Note_off_c, 7, 67, 127
2, 204451, Note_on_c, 6, 66, 127
2, 204651, Note_off_c, 12, 47, 127
2, 204652, Note_off_c, 6, 66, 127
2, 204654, Note_on_c, 4, 64, 127
2, 204654, Note_on_c, 1, 49, 127
2, 204855, Note_off_c, 4, 64, 127
2, 204858, Note_on_c, 6, 66, 127
2, 205054, Note_off_c, 2, 74, 127
2, 205061, Note_off_c, 6, 66, 127
2, 205061, Note_off_c, 1, 49, 127
2, 205063, Note_on_c, 1, 73, 127
2, 205063, Note_on_c, 7, 67, 127
2, 205063, Note_on_c, 4, 40, 127
2, 205264, Note_off_c, 1, 73, 127
2, 205268, Note_on_c, 12, 71, 127
2, 205468, Note_off_c, 4, 40, 127
2, 205469, Note_off_c, 12, 71, 127
2, 205471, Note_on_c, 11, 70, 127
2, 205471, Note_on_c, 6, 42, 127
2, 205672, Note_off_c, 11, 70, 127
2, 205676, Note_on_c, 12, 71, 127
2, 205871, Note_off_c, 7, 67, 127
2, 205878, Note_off_c, 6, 42, 127
2, 205879, Note_off_c, 12, 71, 127
2, 205882, Note_on_c, 6, 66, 127
2, 205882, Note_on_c, 1, 73, 127
2, 205882, Note_on_c, 11, 46, 127
2, 206083, Note_off_c, 6, 66, 127
2, 206085, Note_on_c, 4, 64, 127
2, 206286, Note_off_c, 4, 64, 127
2, 206287, Note_off_c, 11, 46, 127
2, 206289, Note_on_c, 2, 62, 127
2, 206289, Note_on_c, 12, 47, 127
2, 206490, Note_off_c, 2, 62, 127
2, 206493, Note_on_c, 4, 64, 127
2, 206690, Note_off_c, 1, 73, 127
2, 206696, Note_off_c, 4, 64, 127
2, 206696, Note_off_c, 12, 47, 127
2, 206699, Note_on_c, 12, 71, 127
2, 206699, Note_on_c, 6, 66, 127
2, 206699, Note_on_c, 12, 59, 127
2, 206699, Note_on_c, 2, 50, 127
2, 207104, Note_off_c, 12, 71, 127
2, 207106, Note_off_c, 2, 50, 127
2, 207106, Note_off_c, 12, 59, 127
2, 207108, Note_on_c, 7, 55, 127
2, 207108, Note_on_c, 4, 52, 127
2, 207508, Note_off_c, 6, 66, 127
2, 207510, Note_off_c, 4, 52, 127
2, 207515, Note_off_c, 7, 55, 127
2, 207517, Note_on_c, 4, 64, 127
2, 207517, Note_on_c, 12, 83, 127
2, 207517, Note_on_c, 7, 55, 127
2, 207718, Note_off_c, 4, 64, 127
2, 207722, Note_on_c, 2, 62, 127
2, 207922, Note_off_c, 7, 55, 127
2, 207923, Note_off_c, 2, 62, 127
2, 207925, Note_on_c, 0, 60, 127
2, 207925, Note_on_c, 10, 57, 127
2, 208126, Note_off_c, 0, 60, 127
2, 208130, Note_on_c, 2, 62, 127
2, 208325, Note_off_c, 12, 83, 127
2, 208332, Note_off_c, 10, 57, 127
2, 208333, Note_off_c, 2, 62, 127
2, 208335, Note_on_c, 4, 64, 127
2, 208335, Note_on_c, 10, 81, 127
2, 208335, Note_on_c, 0, 60, 127
2, 208536, Note_off_c, 10, 81, 127
2, 208539, Note_on_c, 7, 79, 127
2, 208740, Note_off_c, 7, 79, 127
2, 208740, Note_off_c, 0, 60, 127
2, 208742, Note_on_c, 6, 78, 127
2, 208742, Note_on_c, 2, 62, 127
2, 208943, Note_off_c, 6, 78, 127
2, 208947, Note_on_c, 7, 79, 127
2, 209143, Note_off_c, 4, 64, 127
2, 209149, Note_off_c, 2, 62, 127
2, 209150, Note_off_c, 7, 79, 127
2, 209153, Note_on_c, 2, 62, 127
2, 209153, Note_on_c, 10, 81, 127
2, 209153, Note_on_c, 6, 54, 127
2, 209354, Note_off_c, 2, 62, 127
2, 209356, Note_on_c, 0, 60, 127
2, 209557, Note_off_c, 0, 60, 127
2, 209558, Note_off_c, 6, 54, 127
2, 209561, Note_on_c, 12, 59, 127
2, 209561, Note_on_c, 7, 55, 127
2, 209762, Note_off_c, 12, 59, 127
2, 209764, Note_on_c, 0, 60, 127
2, 209961, Note_off_c, 10, 81, 127
2, 209967, Note_off_c, 0, 60, 127
2, 209968, Note_off_c, 7, 55, 127
2, 209970, Note_on_c, 2, 62, 127
2, 209970, Note_on_c, 7, 79, 127
2, 209970, Note_on_c, 12, 59, 127
2, 210171, Note_off_c, 7, 79, 127
2, 210173, Note_on_c, 6, 78, 127
2, 210374, Note_off_c, 6, 78, 127
2, 210375, Note_off_c, 12, 59, 127
2, 210378, Note_on_c, 4, 76, 127
2, 210378, Note_on_c, 0, 60, 127
2, 210579, Note_off_c, 4, 76, 127
2, 210582, Note_on_c, 6, 78, 127
2, 210778, Note_off_c, 2, 62, 127
2, 210785, Note_off_c, 6, 78, 127
2, 210785, Note_off_c, 0, 60, 127
2, 210787, Note_on_c, 7, 79, 127
2, 210787, Note_on_c, 0, 60, 127
2, 210787, Note_on_c, 4, 52, 127
2, 210988, Note_off_c, 0, 60, 127
2, 210991, Note_on_c, 12, 59, 127
2, 211192, Note_off_c, 12, 59, 127
2, 211192, Note_off_c, 4, 52, 127
2, 211195, Note_on_c, 10, 57, 127
2, 211195, Note_on_c, 6, 54, 127
2, 211396, Note_off_c, 10, 57, 127
2, 211399, Note_on_c, 12, 59, 127
2, 211595, Note_off_c, 7, 79, 127
2, 211602, Note_off_c, 12, 59, 127
2, 211602, Note_off_c, 6, 54, 127
2, 211604, Note_on_c, 0, 60, 127
2, 211604, Note_on_c, 6, 78, 127
2, 211604, Note_on_c, 10, 57, 127
2, 211805, Note_off_c, 6, 78, 127
2, 211809, Note_on_c, 4, 76, 127
2, 212009, Note_off_c, 10, 57, 127
2, 212010, Note_off_c, 4, 76, 127
2, 212013, Note_on_c, 3, 75, 127
2, 212013, Note_on_c, 12, 59, 127
2, 212214, Note_off_c, 3, 75, 127
2, 212216, Note_on_c, 4, 76, 127
2, 212412, Note_off_c, 0, 60, 127
2, 212419, Note_off_c, 4, 76, 127
2, 212420, Note_off_c, 12, 59, 127
2, 212422, Note_on_c, 12, 59, 127
2, 212422, Note_on_c, 6, 78, 127
2, 212422, Note_on_c, 3, 51, 127
2, 212623, Note_off_c, 12, 59, 127
2, 212626, Note_on_c, 10, 57, 127
2, 212827, Note_off_c, 10, 57, 127
2, 212827, Note_off_c, 3, 51, 127
2, 212830, Note_on_c, 7, 55, 127
2, 212830, Note_on_c, 4, 52, 127
2, 213230, Note_off_c, 6, 78, 127
2, 213240, Note_on_c, 4, 76, 127
2, 213240, Note_on_c, 12, 59, 127
2, 213441, Note_off_c, 4, 76, 127
2, 213444, Note_on_c, 3, 75, 127
2, 213639, Note_off_c, 4, 52, 127
2, 213639, Note_off_c, 7, 55, 127
2, 213647, Note_off_c, 3, 75, 127
2, 213647, Note_off_c, 12, 59, 127
2, 213649, Note_on_c, 4, 76, 127
2, 213649, Note_on_c, 7, 55, 127
2, 213850, Note_off_c, 4, 76, 127
2, 213853, Note_on_c, 6, 78, 127
2, 214054, Note_off_c, 6, 78, 127
2, 214054, Note_off_c, 7, 55, 127
2, 214057, Note_on_c, 7, 79, 127
2, 214057, Note_on_c, 4, 64, 127
2, 214057, Note_on_c, 4, 52, 127
2, 214258, Note_off_c, 4, 64, 127
2, 214258, Note_off_c, 7, 79, 127
2, 214261, Note_on_c, 12, 83, 127
2, 214261, Note_on_c, 3, 63, 127
2, 214462, Note_off_c, 3, 63, 127
2, 214462, Note_off_c, 12, 83, 127
2, 214462, Note_off_c, 4, 52, 127
2, 214464, Note_on_c, 3, 63, 127
2, 214464, Note_on_c, 10, 81, 127
2, 214464, Note_on_c, 0, 60, 127
2, 214665, Note_off_c, 3, 63, 127
2, 214669, Note_on_c, 4, 64, 127
2, 214867, Note_off_c, 10, 81, 127
2, 214869, Note_off_c, 0, 60, 127
2, 214870, Note_off_c, 4, 64, 127
2, 214872, Note_on_c, 7, 79, 127
2, 214872, Note_on_c, 6, 66, 127
2, 214872, Note_on_c, 12, 59, 127
2, 215073, Note_off_c, 6, 66, 127
2, 215077, Note_on_c, 7, 67, 127
2, 215275, Note_off_c, 7, 79, 127
2, 215277, Note_off_c, 12, 59, 127
2, 215278, Note_off_c, 7, 67, 127
2, 215281, Note_on_c, 6, 78, 127
2, 215281, Note_on_c, 10, 69, 127
2, 215281, Note_on_c, 4, 64, 127
2, 215482, Note_off_c, 10, 69, 127
2, 215484, Note_on_c, 7, 67, 127
2, 215685, Note_off_c, 7, 67, 127
2, 215686, Note_off_c, 4, 64, 127
2, 215689, Note_on_c, 10, 69, 127
2, 215689, Note_on_c, 3, 63, 127
2, 215890, Note_off_c, 10, 69, 127
2, 215892, Note_on_c, 12, 71, 127
2, 216089, Note_off_c, 6, 78, 127
2, 216095, Note_off_c, 12, 71, 127
2, 216096, Note_off_c, 3, 63, 127
2, 216098, Note_on_c, 0, 72, 127
2, 216098, Note_on_c, 4, 76, 127
2, 216098, Note_on_c, 10, 57, 127
2, 216299, Note_off_c, 0, 72, 127
2, 216302, Note_on_c, 10, 69, 127
2, 216503, Note_off_c, 10, 69, 127
2, 216503, Note_off_c, 10, 57, 127
2, 216506, Note_on_c, 12, 71, 127
2, 216506, Note_on_c, 8, 56, 127
2, 216906, Note_off_c, 4, 76, 127
2, 216913, Note_off_c, 8, 56, 127
2, 216915, Note_on_c, 2, 74, 127
2, 216915, Note_on_c, 5, 65, 127
2, 217101, Note_off_c, 12, 71, 127
2, 217120, Note_on_c, 10, 69, 127
2, 217320, Note_off_c, 5, 65, 127
2, 217321, Note_off_c, 10, 69, 127
2, 217323, Note_on_c, 8, 68, 127
2, 217323, Note_on_c, 4, 64, 127
2, 217524, Note_off_c, 8, 68, 127
2, 217527, Note_on_c, 6, 66, 127
2, 217723, Note_off_c, 2, 74, 127
2, 217730, Note_off_c, 6, 66, 127
2, 217730, Note_off_c, 4, 64, 127
2, 217732, Note_on_c, 1, 73, 127
2, 217732, Note_on_c, 4, 64, 127
2, 217732, Note_on_c, 12, 59, 127
2, 217933, Note_off_c, 4, 64, 127
2, 217937, Note_on_c, 7, 67, 127
2, 218137, Note_off_c, 12, 59, 127
2, 218138, Note_off_c, 7, 67, 127
2, 218140, Note_on_c, 6, 66, 127
2, 218140, Note_on_c, 11, 58, 127
2, 218341, Note_off_c, 6, 66, 127
2, 218345, Note_on_c, 11, 70, 127
2, 218540, Note_off_c, 1, 73, 127
2, 218547, Note_off_c, 11, 58, 127
2, 218548, Note_off_c, 11, 70, 127
2, 218551, Note_on_c, 12, 71, 127
2, 218551, Note_on_c, 7, 67, 127
2, 218756, Note_on_c, 1, 73, 127
2, 218957, Note_off_c, 1, 73, 127
2, 218958, Note_off_c, 7, 67, 127
2, 218960, Note_on_c, 2, 74, 127
2, 218960, Note_on_c, 6, 66, 127
2, 219161, Note_off_c, 2, 74, 127
2, 219163, Note_on_c, 4, 76, 127
2, 219364, Note_off_c, 4, 76, 127
2, 219365, Note_off_c, 6, 66, 127
2, 219368, Note_on_c, 2, 74, 127
2, 219368, Note_on_c, 5, 65, 127
2, 219569, Note_off_c, 2, 74, 127
2, 219571, Note_on_c, 1, 73, 127
2, 219773, Note_off_c, 5, 65, 127
2, 219774, Note_off_c, 12, 71, 127
2, 219776, Note_on_c, 12, 71, 127
2, 219776, Note_on_c, 6, 66, 127
2, 219977, Note_off_c, 12, 71, 127
2, 219980, Note_on_c, 11, 70, 127
2, 220165, Note_off_c, 1, 73, 127
2, 220181, Note_off_c, 11, 70, 127
2, 220181, Note_off_c, 6, 66, 127
2, 220183, Note_on_c, 12, 71, 127
2, 220183, Note_on_c, 2, 62, 127
2, 220389, Note_on_c, 10, 69, 127
2, 220590, Note_off_c, 10, 69, 127
2, 220590, Note_off_c, 2, 62, 127
2, 220593, Note_on_c, 7, 67, 127
2, 220593, Note_on_c, 12, 59, 127
2, 220794, Note_off_c, 7, 67, 127
2, 220797, Note_on_c, 6, 66, 127
2, 220998, Note_off_c, 6, 66, 127
2, 220998, Note_off_c, 12, 59, 127
2, 221000, Note_on_c, 4, 64, 127
2, 221000, Note_on_c, 1, 61, 127
2, 221205, Note_off_c, 12, 71, 127
2, 221206, Note_on_c, 1, 73, 127
2, 221407, Note_off_c, 1, 73, 127
2, 221411, Note_on_c, 2, 74, 127
2, 221612, Note_off_c, 2, 74, 127
2, 221614, Note_on_c, 4, 76, 127
2, 221815, Note_off_c, 4, 76, 127
2, 221819, Note_on_c, 6, 78, 127
2, 222020, Note_off_c, 6, 78, 127
2, 222022, Note_on_c, 7, 79, 127
2, 222223, Note_off_c, 7, 79, 127
2, 222226, Note_on_c, 12, 71, 127
2, 222427, Note_off_c, 12, 71, 127
2, 222430, Note_on_c, 11, 70, 127
2, 222631, Note_off_c, 11, 70, 127
2, 222631, Note_off_c, 1, 61, 127
2, 222631, Note_off_c, 4, 64, 127
2, 222634, Note_on_c, 2, 74, 127
2, 222634, Note_on_c, 12, 59, 127
2, 222839, Note_on_c, 6, 66, 127
2, 223040, Note_off_c, 6, 66, 127
2, 223044, Note_on_c, 8, 68, 127
2, 223245, Note_off_c, 8, 68, 127
2, 223247, Note_on_c, 11, 70, 127
2, 223448, Note_off_c, 11, 70, 127
2, 223451, Note_on_c, 12, 71, 127
2, 223652, Note_off_c, 12, 71, 127
2, 223656, Note_on_c, 1, 73, 127
2, 223857, Note_off_c, 1, 73, 127
2, 223859, Note_on_c, 6, 66, 127
2, 224060, Note_off_c, 6, 66, 127
2, 224063, Note_on_c, 5, 65, 127
2, 224159, Note_off_c, 12, 59, 127
2, 224264, Note_off_c, 5, 65, 127
2, 224265, Note_off_c, 2, 74, 127
2, 224267, Note_on_c, 1, 73, 127
2, 224267, Note_on_c, 10, 69, 127
2, 224473, Note_on_c, 1, 61, 127
2, 224674, Note_off_c, 1, 61, 127
2, 224676, Note_on_c, 3, 63, 127
2, 224877, Note_off_c, 3, 63, 127
2, 224881, Note_on_c, 5, 65, 127
2, 225082, Note_off_c, 5, 65, 127
2, 225084, Note_on_c, 6, 66, 127
2, 225285, Note_off_c, 6, 66, 127
2, 225288, Note_on_c, 8, 68, 127
2, 225489, Note_off_c, 8, 68, 127
2, 225490, Note_off_c, 1, 73, 127
2, 225493, Note_on_c, 3, 75, 127
2, 225493, Note_on_c, 1, 61, 127
2, 225694, Note_off_c, 1, 61, 127
2, 225696, Note_on_c, 0, 60, 127
2, 225897, Note_off_c, 0, 60, 127
2, 225898, Note_off_c, 3, 75, 127
2, 225898, Note_off_c, 10, 69, 127
2, 225901, Note_on_c, 8, 68, 127
2, 225901, Note_on_c, 5, 77, 127
2, 225901, Note_on_c, 1, 61, 127
2, 226102, Note_off_c, 1, 61, 127
2, 226104, Note_on_c, 12, 59, 127
2, 226305, Note_off_c, 12, 59, 127
2, 226306, Note_off_c, 8, 68, 127
2, 226308, Note_on_c, 1, 73, 127
2, 226308, Note_on_c, 10, 57, 127
2, 226509, Note_off_c, 10, 57, 127
2, 226512, Note_on_c, 8, 56, 127
2, 226709, Note_off_c, 5, 77, 127
2, 226715, Note_off_c, 8, 56, 127
2, 226715, Note_off_c, 1, 73, 127
2, 226718, Note_on_c, 10, 69, 127
2, 226718, Note_on_c, 6, 54, 127
2, 226919, Note_off_c, 6, 54, 127
2, 226921, Note_on_c, 8, 56, 127
2, 227122, Note_off_c, 8, 56, 127
2, 227123, Note_off_c, 10, 69, 127
2, 227126, Note_on_c, 6, 78, 127
2, 227126, Note_on_c, 6, 66, 127
2, 227126, Note_on_c, 10, 57, 127
2, 227327, Note_off_c, 10, 57, 127
2, 227330, Note_on_c, 1, 61, 127
2, 227531, Note_off_c, 1, 61, 127
2, 227531, Note_off_c, 6, 66, 127
2, 227533, Note_on_c, 2, 74, 127
2, 227533, Note_on_c, 12, 59, 127
2, 227720, Note_off_c, 6, 78, 127
2, 227734, Note_off_c, 12, 59, 127
2, 227738, Note_on_c, 5, 77, 127
2, 227738, Note_on_c, 8, 56, 127
2, 227936, Note_off_c, 2, 74, 127
2, 227939, Note_off_c, 8, 56, 127
2, 227939, Note_off_c, 5, 77, 127
2, 227941, Note_on_c, 6, 78, 127
2, 227941, Note_on_c, 1, 73, 127
2, 227941, Note_on_c, 10, 57, 127
2, 228142, Note_off_c, 10, 57, 127
2, 228142, Note_off_c, 6, 78, 127
2, 228145, Note_on_c, 10, 81, 127
2, 228145, Note_on_c, 1, 61, 127
2, 228344, Note_off_c, 1, 73, 127
2, 228346, Note_off_c, 1, 61, 127
2, 228346, Note_off_c, 10, 81, 127
2, 228349, Note_on_c, 6, 78, 127
2, 228349, Note_on_c, 8, 80, 127
2, 228349, Note_on_c, 2, 62, 127
2, 228550, Note_off_c, 2, 62, 127
2, 228553, Note_on_c, 12, 59, 127
2, 228754, Note_off_c, 12, 59, 127
2, 228754, Note_off_c, 6, 78, 127
2, 228757, Note_on_c, 5, 77, 127
2, 228757, Note_on_c, 1, 61, 127
2, 228958, Note_off_c, 1, 61, 127
2, 228961, Note_on_c, 5, 65, 127
2, 229157, Note_off_c, 8, 80, 127
2, 229164, Note_off_c, 5, 65, 127
2, 229164, Note_off_c, 5, 77, 127
2, 229167, Note_on_c, 12, 71, 127
2, 229167, Note_on_c, 6, 66, 127
2, 229368, Note_off_c, 6, 66, 127
2, 229370, Note_on_c, 4, 64, 127
2, 229571, Note_off_c, 4, 64, 127
2, 229572, Note_off_c, 12, 71, 127
2, 229575, Note_on_c, 6, 78, 127
2, 229575, Note_on_c, 11, 70, 127
2, 229575, Note_on_c, 2, 62, 127
2, 229776, Note_off_c, 2, 62, 127
2, 229778, Note_on_c, 1, 61, 127
2, 229979, Note_off_c, 1, 61, 127
2, 229980, Note_off_c, 11, 70, 127
2, 229980, Note_off_c, 6, 78, 127
2, 229983, Note_on_c, 2, 74, 127
2, 229983, Note_on_c, 12, 59, 127
2, 230184, Note_off_c, 12, 59, 127
2, 230186, Note_on_c, 1, 61, 127
2, 230387, Note_off_c, 1, 61, 127
2, 230388, Note_off_c, 2, 74, 127
2, 230390, Note_on_c, 12, 71, 127
2, 230390, Note_on_c, 2, 62, 127
2, 230591, Note_off_c, 2, 62, 127
2, 230594, Note_on_c, 6, 66, 127
2, 230795, Note_off_c, 6, 66, 127
2, 230798, Note_on_c, 7, 79, 127
2, 230798, Note_on_c, 4, 64, 127
2, 230984, Note_off_c, 12, 71, 127
2, 230999, Note_off_c, 4, 64, 127
2, 231002, Note_on_c, 11, 70, 127
2, 231002, Note_on_c, 1, 61, 127
2, 231201, Note_off_c, 7, 79, 127
2, 231203, Note_off_c, 1, 61, 127
2, 231203, Note_off_c, 11, 70, 127
2, 231206, Note_on_c, 12, 71, 127
2, 231206, Note_on_c, 6, 78, 127
2, 231206, Note_on_c, 2, 62, 127
2, 231407, Note_off_c, 2, 62, 127
2, 231407, Note_off_c, 12, 71, 127
2, 231409, Note_on_c, 2, 74, 127
2, 231409, Note_on_c, 6, 66, 127
2, 231609, Note_off_c, 6, 78, 127
2, 231610, Note_off_c, 6, 66, 127
2, 231610, Note_off_c, 2, 74, 127
2, 231614, Note_on_c, 1, 73, 127
2, 231614, Note_on_c, 12, 83, 127
2, 231614, Note_on_c, 7, 67, 127
2, 231815, Note_off_c, 7, 67, 127
2, 231818, Note_on_c, 4, 64, 127
2, 232019, Note_off_c, 4, 64, 127
2, 232019, Note_off_c, 12, 83, 127
2, 232021, Note_on_c, 11, 82, 127
2, 232021, Note_on_c, 6, 66, 127
2, 232222, Note_off_c, 6, 66, 127
2, 232226, Note_on_c, 11, 70, 127
2, 232426, Note_off_c, 11, 82, 127
2, 232427, Note_off_c, 11, 70, 127
2, 232429, Note_on_c, 4, 76, 127
2, 232429, Note_on_c, 12, 71, 127
2, 232630, Note_off_c, 12, 71, 127
2, 232634, Note_on_c, 10, 69, 127
2, 232834, Note_off_c, 4, 76, 127
2, 232835, Note_off_c, 10, 69, 127
2, 232835, Note_off_c, 1, 73, 127
2, 232837, Note_on_c, 12, 71, 127
2, 232837, Note_on_c, 3, 75, 127
2, 232837, Note_on_c, 7, 67, 127
2, 233038, Note_off_c, 7, 67, 127
2, 233041, Note_on_c, 6, 66, 127
2, 233242, Note_off_c, 6, 66, 127
2, 233242, Note_off_c, 3, 75, 127
2, 233242, Note_off_c, 12, 71, 127
2, 233245, Note_on_c, 4, 76, 127
2, 233245, Note_on_c, 7, 79, 127
2, 233245, Note_on_c, 4, 64, 127
2, 233446, Note_off_c, 4, 64, 127
2, 233449, Note_on_c, 2, 62, 127
2, 233650, Note_off_c, 2, 62, 127
2, 233650, Note_off_c, 4, 76, 127
2, 233654, Note_on_c, 11, 70, 127
2, 233654, Note_on_c, 4, 64, 127
2, 233855, Note_off_c, 4, 64, 127
2, 233857, Note_on_c, 1, 61, 127
2, 234058, Note_off_c, 1, 61, 127
2, 234059, Note_off_c, 11, 70, 127
2, 234061, Note_on_c, 12, 71, 127
2, 234061, Note_on_c, 2, 62, 127
2, 234265, Note_off_c, 7, 79, 127
2, 234266, Note_on_c, 6, 78, 127
2, 234467, Note_off_c, 6, 78, 127
2, 234471, Note_on_c, 8, 80, 127
2, 234672, Note_off_c, 8, 80, 127
2, 234674, Note_on_c, 11, 82, 127
2, 234875, Note_off_c, 11, 82, 127
2, 234879, Note_on_c, 12, 83, 127
2, 235080, Note_off_c, 12, 83, 127
2, 235082, Note_on_c, 7, 79, 127
2, 235283, Note_off_c, 7, 79, 127
2, 235286, Note_on_c, 6, 78, 127
2, 235487, Note_off_c, 6, 78, 127
2, 235490, Note_on_c, 5, 77, 127
2, 235691, Note_off_c, 5, 77, 127
2, 235694, Note_on_c, 6, 78, 127
2, 235890, Note_off_c, 12, 71, 127
2, 235900, Note_on_c, 11, 70, 127
2, 236101, Note_off_c, 11, 70, 127
2, 236101, Note_off_c, 2, 62, 127
2, 236103, Note_on_c, 12, 71, 127
2, 236103, Note_on_c, 1, 61, 127
2, 236304, Note_off_c, 12, 71, 127
2, 236308, Note_on_c, 1, 73, 127
2, 236503, Note_off_c, 6, 78, 127
2, 236510, Note_off_c, 1, 61, 127
2, 236511, Note_off_c, 1, 73, 127
2, 236513, Note_on_c, 5, 77, 127
2, 236513, Note_on_c, 2, 74, 127
2, 236513, Note_on_c, 12, 59, 127
2, 236714, Note_off_c, 2, 74, 127
2, 236717, Note_on_c, 4, 76, 127
2, 236918, Note_off_c, 4, 76, 127
2, 236918, Note_off_c, 12, 59, 127
2, 236921, Note_on_c, 10, 69, 127
2, 236921, Note_on_c, 2, 62, 127
2, 237122, Note_off_c, 10, 69, 127
2, 237125, Note_on_c, 8, 68, 127
2, 237326, Note_off_c, 8, 68, 127
2, 237326, Note_off_c, 2, 62, 127
2, 237329, Note_on_c, 10, 69, 127
2, 237329, Note_on_c, 0, 60, 127
2, 237533, Note_off_c, 5, 77, 127
2, 237534, Note_on_c, 4, 76, 127
2, 237735, Note_off_c, 4, 76, 127
2, 237739, Note_on_c, 6, 78, 127
2, 237940, Note_off_c, 6, 78, 127
2, 237942, Note_on_c, 8, 80, 127
2, 238143, Note_off_c, 8, 80, 127
2, 238147, Note_on_c, 10, 81, 127
2, 238348, Note_off_c, 10, 81, 127
2, 238350, Note_on_c, 12, 83, 127
2, 238551, Note_off_c, 12, 83, 127
2, 238554, Note_on_c, 4, 76, 127
2, 238755, Note_off_c, 4, 76, 127
2, 238758, Note_on_c, 3, 75, 127
2, 238959, Note_off_c, 3, 75, 127
2, 238962, Note_on_c, 4, 76, 127
2, 239166, Note_on_c, 6, 66, 127
2, 239364, Note_off_c, 4, 76, 127
2, 239367, Note_off_c, 6, 66, 127
2, 239367, Note_off_c, 0, 60, 127
2, 239369, Note_off_c, 10, 69, 127
2, 239370, Note_on_c, 7, 67, 127
2, 239370, Note_on_c, 12, 59, 127
2, 239370, Note_on_c, 4, 52, 127
2, 239576, Note_on_c, 10, 69, 127
2, 239775, Note_off_c, 7, 67, 127
2, 239777, Note_off_c, 10, 69, 127
2, 239777, Note_off_c, 4, 52, 127
2, 239777, Note_off_c, 12, 59, 127
2, 239779, Note_on_c, 6, 66, 127
2, 239779, Note_on_c, 12, 71, 127
2, 239779, Note_on_c, 2, 50, 127
2, 239980, Note_off_c, 12, 71, 127
2, 239984, Note_on_c, 1, 73, 127
2, 240184, Note_off_c, 2, 50, 127
2, 240185, Note_off_c, 1, 73, 127
2, 240187, Note_on_c, 2, 74, 127
2, 240187, Note_on_c, 12, 59, 127
2, 240187, Note_on_c, 12, 47, 127
2, 240388, Note_off_c, 2, 74, 127
2, 240391, Note_on_c, 6, 78, 127
2, 240587, Note_off_c, 6, 66, 127
2, 240594, Note_off_c, 6, 78, 127
2, 240594, Note_off_c, 12, 47, 127
2, 240597, Note_on_c, 4, 76, 127
2, 240597, Note_on_c, 7, 55, 127
2, 240782, Note_off_c, 12, 59, 127
2, 240798, Note_off_c, 4, 76, 127
2, 240801, Note_on_c, 1, 73, 127
2, 240801, Note_on_c, 11, 58, 127
2, 241000, Note_off_c, 7, 55, 127
2, 241002, Note_off_c, 11, 58, 127
2, 241002, Note_off_c, 1, 73, 127
2, 241005, Note_on_c, 2, 74, 127
2, 241005, Note_on_c, 6, 54, 127
2, 241005, Note_on_c, 12, 59, 127
2, 241206, Note_off_c, 12, 59, 127
2, 241206, Note_off_c, 2, 74, 127
2, 241209, Note_on_c, 6, 78, 127
2, 241209, Note_on_c, 2, 62, 127
2, 241408, Note_off_c, 6, 54, 127
2, 241410, Note_off_c, 2, 62, 127
2, 241410, Note_off_c, 6, 78, 127
2, 241413, Note_on_c, 7, 79, 127
2, 241413, Note_on_c, 12, 59, 127
2, 241413, Note_on_c, 1, 61, 127
2, 241614, Note_off_c, 7, 79, 127
2, 241616, Note_on_c, 4, 76, 127
2, 241817, Note_off_c, 4, 76, 127
2, 241818, Note_off_c, 12, 59, 127
2, 241821, Note_on_c, 6, 78, 127
2, 241821, Note_on_c, 11, 58, 127
2, 242022, Note_off_c, 6, 78, 127
2, 242024, Note_on_c, 11, 82, 127
2, 242221, Note_off_c, 1, 61, 127
2, 242227, Note_off_c, 11, 82, 127
2, 242228, Note_off_c, 11, 58, 127
2, 242230, Note_on_c, 12, 83, 127
2, 242230, Note_on_c, 6, 54, 127
2, 242230, Note_on_c, 4, 52, 127
2, 242436, Note_on_c, 6, 78, 127
2, 242637, Note_off_c, 6, 78, 127
2, 242637, Note_off_c, 4, 52, 127
2, 242639, Note_on_c, 10, 81, 127
2, 242639, Note_on_c, 3, 51, 127
2, 242840, Note_off_c, 10, 81, 127
2, 242844, Note_on_c, 7, 79, 127
2, 243039, Note_off_c, 6, 54, 127
2, 243039, Note_off_c, 12, 83, 127
2, 243046, Note_off_c, 3, 51, 127
2, 243047, Note_off_c, 7, 79, 127
2, 243049, Note_on_c, 10, 81, 127
2, 243049, Note_on_c, 6, 78, 127
2, 243049, Note_on_c, 0, 60, 127
2, 243250, Note_off_c, 6, 78, 127
2, 243253, Note_on_c, 4, 76, 127
2, 243454, Note_off_c, 4, 76, 127
2, 243454, Note_off_c, 0, 60, 127
2, 243457, Note_on_c, 3, 75, 127
2, 243457, Note_on_c, 12, 59, 127
2, 243658, Note_off_c, 3, 75, 127
2, 243661, Note_on_c, 1, 73, 127
2, 243857, Note_off_c, 10, 81, 127
2, 243864, Note_off_c, 1, 73, 127
2, 243864, Note_off_c, 12, 59, 127
2, 243867, Note_on_c, 12, 71, 127
2, 243867, Note_on_c, 8, 80, 127
2, 243867, Note_on_c, 6, 54, 127
2, 244068, Note_off_c, 12, 71, 127
2, 244070, Note_on_c, 2, 74, 127
2, 244271, Note_off_c, 2, 74, 127
2, 244272, Note_off_c, 6, 54, 127
2, 244275, Note_on_c, 1, 73, 127
2, 244275, Note_on_c, 5, 53, 127
2, 244476, Note_off_c, 1, 73, 127
2, 244478, Note_on_c, 12, 71, 127
2, 244675, Note_off_c, 8, 80, 127
2, 244681, Note_off_c, 12, 71, 127
2, 244682, Note_off_c, 5, 53, 127
2, 244684, Note_on_c, 6, 78, 127
2, 244684, Note_on_c, 10, 69, 127
2, 244684, Note_on_c, 2, 62, 127
2, 244885, Note_off_c, 10, 69, 127
2, 244888, Note_on_c, 8, 68, 127
2, 245089, Note_off_c, 8, 68, 127
2, 245089, Note_off_c, 2, 62, 127
2, 245092, Note_on_c, 10, 69, 127
2, 245092, Note_on_c, 1, 61, 127
2, 245293, Note_off_c, 10, 69, 127
2, 245295, Note_on_c, 6, 66, 127
2, 245496, Note_off_c, 6, 66, 127
2, 245497, Note_off_c, 1, 61, 127
2, 245500, Note_on_c, 8, 68, 127
2, 245500, Note_on_c, 0, 60, 127
2, 245704, Note_off_c, 6, 78, 127
2, 245706, Note_on_c, 5, 77, 127
2, 245907, Note_off_c, 5, 77, 127
2, 245907, Note_off_c, 0, 60, 127
2, 245909, Note_on_c, 6, 78, 127
2, 245909, Note_on_c, 1, 61, 127
2, 246110, Note_off_c, 6, 78, 127
2, 246113, Note_on_c, 5, 77, 127
2, 246309, Note_off_c, 8, 68, 127
2, 246316, Note_off_c, 5, 77, 127
2, 246316, Note_off_c, 1, 61, 127
2, 246318, Note_on_c, 6, 78, 127
2, 246318, Note_on_c, 10, 57, 127
2, 246524, Note_on_c, 4, 76, 127
2, 246725, Note_off_c, 4, 76, 127
2, 246725, Note_off_c, 10, 57, 127
2, 246729, Note_on_c, 2, 74, 127
2, 246729, Note_on_c, 6, 54, 127
2, 246930, Note_off_c, 2, 74, 127
2, 246932, Note_on_c, 1, 73, 127
2, 247133, Note_off_c, 1, 73, 127
2, 247134, Note_off_c, 6, 54, 127
2, 247137, Note_on_c, 12, 71, 127
2, 247137, Note_on_c, 8, 56, 127
2, 247338, Note_off_c, 12, 71, 127
2, 247338, Note_off_c, 6, 78, 127
2, 247340, Note_on_c, 10, 69, 127
2, 247541, Note_off_c, 10, 69, 127
2, 247544, Note_on_c, 8, 68, 127
2, 247544, Note_on_c, 12, 71, 127
2, 247745, Note_off_c, 12, 71, 127
2, 247745, Note_off_c, 8, 68, 127
2, 247748, Note_on_c, 1, 73, 127
2, 247748, Note_on_c, 10, 69, 127
2, 247949, Note_off_c, 10, 69, 127
2, 247949, Note_off_c, 1, 73, 127
2, 247952, Note_on_c, 2, 74, 127
2, 247952, Note_on_c, 12, 71, 127
2, 248153, Note_off_c, 2, 74, 127
2, 248156, Note_on_c, 4, 76, 127
2, 248357, Note_off_c, 4, 76, 127
2, 248360, Note_on_c, 6, 66, 127
2, 248561, Note_off_c, 6, 66, 127
2, 248563, Note_on_c, 5, 65, 127
2, 248764, Note_off_c, 5, 65, 127
2, 248766, Note_off_c, 8, 56, 127
2, 248768, Note_on_c, 6, 66, 127
2, 248768, Note_on_c, 6, 54, 127
2, 248969, Note_off_c, 6, 54, 127
2, 248972, Note_on_c, 4, 52, 127
2, 249173, Note_off_c, 4, 52, 127
2, 249173, Note_off_c, 6, 66, 127
2, 249173, Note_off_c, 12, 71, 127
2, 249175, Note_on_c, 11, 70, 127
2, 249175, Note_on_c, 6, 78, 127
2, 249175, Note_on_c, 2, 50, 127
2, 249376, Note_off_c, 2, 50, 127
2, 249380, Note_on_c, 1, 49, 127
2, 249580, Note_off_c, 6, 78, 127
2, 249580, Note_off_c, 11, 70, 127
2, 249581, Note_off_c, 1, 49, 127
2, 249583, Note_on_c, 2, 74, 127
2, 249583, Note_on_c, 12, 47, 127
2, 249784, Note_off_c, 12, 47, 127
2, 249788, Note_on_c, 1, 49, 127
2, 249988, Note_off_c, 2, 74, 127
2, 249989, Note_off_c, 1, 49, 127
2, 249991, Note_on_c, 12, 71, 127
2, 249991, Note_on_c, 2, 50, 127
2, 250192, Note_off_c, 2, 50, 127
2, 250195, Note_on_c, 6, 54, 127
2, 250396, Note_off_c, 6, 54, 127
2, 250399, Note_on_c, 7, 79, 127
2, 250399, Note_on_c, 4, 52, 127
2, 250585, Note_off_c, 12, 71, 127
2, 250600, Note_off_c, 4, 52, 127
2, 250603, Note_on_c, 11, 70, 127
2, 250603, Note_on_c, 1, 49, 127
2, 250802, Note_off_c, 7, 79, 127
2, 250804, Note_off_c, 1, 49, 127
2, 250804, Note_off_c, 11, 70, 127
2, 250807, Note_on_c, 12, 71, 127
2, 250807, Note_on_c, 6, 78, 127
2, 250807, Note_on_c, 2, 50, 127
2, 251008, Note_off_c, 2, 50, 127
2, 251008, Note_off_c, 12, 71, 127
2, 251011, Note_on_c, 2, 74, 127
2, 251011, Note_on_c, 6, 54, 127
2, 251210, Note_off_c, 6, 78, 127
2, 251212, Note_off_c, 6, 54, 127
2, 251212, Note_off_c, 2, 74, 127
2, 251215, Note_on_c, 12, 83, 127
2, 251215, Note_on_c, 1, 73, 127
2, 251215, Note_on_c, 7, 55, 127
2, 251416, Note_off_c, 7, 55, 127
2, 251419, Note_on_c, 4, 52, 127
2, 251620, Note_off_c, 4, 52, 127
2, 251620, Note_off_c, 12, 83, 127
2, 251623, Note_on_c, 11, 82, 127
2, 251623, Note_on_c, 6, 54, 127
2, 251824, Note_off_c, 6, 54, 127
2, 251827, Note_on_c, 11, 58, 127
2, 252023, Note_off_c, 1, 73, 127
2, 252030, Note_off_c, 11, 58, 127
2, 252030, Note_off_c, 11, 82, 127
2, 252033, Note_on_c, 4, 76, 127
2, 252033, Note_on_c, 12, 59, 127
2, 252234, Note_off_c, 12, 59, 127
2, 252236, Note_on_c, 10, 57, 127
2, 252437, Note_off_c, 10, 57, 127
2, 252438, Note_off_c, 4, 76, 127
2, 252440, Note_on_c, 3, 75, 127
2, 252440, Note_on_c, 12, 71, 127
2, 252440, Note_on_c, 7, 55, 127
2, 252641, Note_off_c, 7, 55, 127
2, 252644, Note_on_c, 6, 54, 127
2, 252845, Note_off_c, 6, 54, 127
2, 252845, Note_off_c, 12, 71, 127
2, 252845, Note_off_c, 3, 75, 127
2, 252848, Note_on_c, 7, 67, 127
2, 252848, Note_on_c, 4, 52, 127
2, 253049, Note_off_c, 4, 52, 127
2, 253052, Note_on_c, 6, 54, 127
2, 253253, Note_off_c, 6, 54, 127
2, 253253, Note_off_c, 7, 67, 127
2, 253256, Note_on_c, 4, 64, 127
2, 253256, Note_on_c, 4, 76, 127
2, 253256, Note_on_c, 7, 55, 127
2, 253457, Note_off_c, 7, 55, 127
2, 253460, Note_on_c, 12, 59, 127
2, 253661, Note_off_c, 12, 59, 127
2, 253661, Note_off_c, 4, 64, 127
2, 253664, Note_on_c, 0, 72, 127
2, 253664, Note_on_c, 10, 57, 127
2, 253850, Note_off_c, 4, 76, 127
2, 253865, Note_off_c, 10, 57, 127
2, 253865, Note_off_c, 0, 72, 127
2, 253868, Note_on_c, 3, 75, 127
2, 253868, Note_on_c, 6, 54, 127
2, 254069, Note_off_c, 6, 54, 127
2, 254069, Note_off_c, 3, 75, 127
2, 254071, Note_on_c, 4, 76, 127
2, 254071, Note_on_c, 12, 71, 127
2, 254071, Note_on_c, 7, 55, 127
2, 254272, Note_off_c, 7, 55, 127
2, 254272, Note_off_c, 4, 76, 127
2, 254276, Note_on_c, 7, 79, 127
2, 254276, Note_on_c, 12, 59, 127
2, 254474, Note_off_c, 12, 71, 127
2, 254477, Note_off_c, 12, 59, 127
2, 254477, Note_off_c, 7, 79, 127
2, 254479, Note_on_c, 6, 78, 127
2, 254479, Note_on_c, 4, 76, 127
2, 254479, Note_on_c, 0, 60, 127
2, 254680, Note_off_c, 0, 60, 127
2, 254684, Note_on_c, 10, 57, 127
2, 254884, Note_off_c, 4, 76, 127
2, 254885, Note_off_c, 10, 57, 127
2, 254887, Note_on_c, 3, 75, 127
2, 254887, Note_on_c, 12, 59, 127
2, 255088, Note_off_c, 12, 59, 127
2, 255091, Note_on_c, 3, 63, 127
2, 255287, Note_off_c, 6, 78, 127
2, 255294, Note_off_c, 3, 63, 127
2, 255294, Note_off_c, 3, 75, 127
2, 255297, Note_on_c, 4, 76, 127
2, 255297, Note_on_c, 10, 69, 127
2, 255297, Note_on_c, 4, 64, 127
2, 255498, Note_off_c, 4, 76, 127
2, 255501, Note_on_c, 2, 74, 127
2, 255700, Note_off_c, 10, 69, 127
2, 255702, Note_off_c, 2, 74, 127
2, 255702, Note_off_c, 4, 64, 127
2, 255705, Note_on_c, 8, 68, 127
2, 255705, Note_on_c, 1, 73, 127
2, 255705, Note_on_c, 4, 52, 127
2, 255906, Note_off_c, 1, 73, 127
2, 255909, Note_on_c, 12, 71, 127
2, 256108, Note_off_c, 8, 68, 127
2, 256110, Note_off_c, 12, 71, 127
2, 256110, Note_off_c, 4, 52, 127
2, 256113, Note_on_c, 10, 69, 127
2, 256113, Note_on_c, 1, 49, 127
2, 256318, Note_on_c, 12, 71, 127
2, 256519, Note_off_c, 12, 71, 127
2, 256520, Note_off_c, 1, 49, 127
2, 256522, Note_on_c, 1, 73, 127
2, 256522, Note_on_c, 10, 45, 127
2, 256723, Note_off_c, 1, 73, 127
2, 256727, Note_on_c, 4, 76, 127
2, 256927, Note_off_c, 10, 45, 127
2, 256928, Note_off_c, 4, 76, 127
2, 256930, Note_on_c, 2, 74, 127
2, 256930, Note_on_c, 6, 54, 127
2, 257131, Note_off_c, 2, 74, 127
2, 257134, Note_on_c, 12, 71, 127
2, 257335, Note_off_c, 12, 71, 127
2, 257335, Note_off_c, 6, 54, 127
2, 257336, Note_off_c, 10, 69, 127
2, 257338, Note_on_c, 1, 73, 127
2, 257338, Note_on_c, 8, 68, 127
2, 257338, Note_on_c, 4, 52, 127
2, 257539, Note_off_c, 1, 73, 127
2, 257542, Note_on_c, 4, 76, 127
2, 257741, Note_off_c, 8, 68, 127
2, 257743, Note_off_c, 4, 76, 127
2, 257743, Note_off_c, 4, 52, 127
2, 257746, Note_on_c, 1, 73, 127
2, 257746, Note_on_c, 6, 78, 127
2, 257746, Note_on_c, 10, 57, 127
2, 257947, Note_off_c, 6, 78, 127
2, 257950, Note_on_c, 2, 74, 127
2, 258149, Note_off_c, 1, 73, 127
2, 258151, Note_off_c, 2, 74, 127
2, 258151, Note_off_c, 10, 57, 127
2, 258153, Note_on_c, 12, 71, 127
2, 258153, Note_on_c, 4, 76, 127
2, 258153, Note_on_c, 8, 56, 127
2, 258354, Note_off_c, 4, 76, 127
2, 258358, Note_on_c, 8, 80, 127
2, 258556, Note_off_c, 12, 71, 127
2, 258558, Note_off_c, 8, 56, 127
2, 258559, Note_off_c, 8, 80, 127
2, 258561, Note_on_c, 4, 76, 127
2, 258561, Note_on_c, 10, 81, 127
2, 258561, Note_on_c, 2, 50, 127
2, 258762, Note_off_c, 10, 81, 127
2, 258766, Note_on_c, 7, 79, 127
2, 258964, Note_off_c, 4, 76, 127
2, 258966, Note_off_c, 2, 50, 127
2, 258967, Note_off_c, 7, 79, 127
2, 258969, Note_on_c, 6, 78, 127
2, 258969, Note_on_c, 10, 57, 127
2, 258969, Note_on_c, 1, 49, 127
2, 259170, Note_off_c, 6, 78, 127
2, 259173, Note_on_c, 4, 76, 127
2, 259374, Note_off_c, 4, 76, 127
2, 259374, Note_off_c, 1, 49, 127
2, 259374, Note_off_c, 10, 57, 127
2, 259378, Note_on_c, 2, 74, 127
2, 259378, Note_on_c, 6, 54, 127
2, 259378, Note_on_c, 2, 50, 127
2, 259579, Note_off_c, 2, 74, 127
2, 259581, Note_on_c, 1, 73, 127
2, 259782, Note_off_c, 1, 73, 127
2, 259783, Note_off_c, 2, 50, 127
2, 259783, Note_off_c, 6, 54, 127
2, 259786, Note_on_c, 12, 71, 127
2, 259786, Note_on_c, 6, 66, 127
2, 259786, Note_on_c, 2, 50, 127
2, 259987, Note_off_c, 12, 71, 127
2, 259989, Note_on_c, 10, 69, 127
2, 260189, Note_off_c, 6, 66, 127
2, 260190, Note_off_c, 10, 69, 127
2, 260193, Note_on_c, 2, 62, 127
2, 260193, Note_on_c, 7, 67, 127
2, 260193, Note_on_c, 12, 59, 127
2, 260394, Note_off_c, 7, 67, 127
2, 260397, Note_on_c, 4, 64, 127
2, 260598, Note_off_c, 4, 64, 127
2, 260598, Note_off_c, 12, 59, 127
2, 260601, Note_on_c, 6, 66, 127
2, 260601, Note_on_c, 10, 57, 127
2, 260802, Note_off_c, 6, 66, 127
2, 260804, Note_on_c, 10, 69, 127
2, 261001, Note_off_c, 2, 62, 127
2, 261007, Note_off_c, 10, 69, 127
2, 261008, Note_off_c, 10, 57, 127
2, 261010, Note_on_c, 12, 71, 127
2, 261010, Note_on_c, 2, 62, 127
2, 261211, Note_off_c, 12, 71, 127
2, 261215, Note_on_c, 7, 67, 127
2, 261415, Note_off_c, 2, 62, 127
2, 261416, Note_off_c, 7, 67, 127
2, 261418, Note_on_c, 7, 67, 127
2, 261418, Note_on_c, 10, 69, 127
2, 261418, Note_on_c, 1, 61, 127
2, 261619, Note_off_c, 10, 69, 127
2, 261623, Note_on_c, 1, 73, 127
2, 261821, Note_off_c, 7, 67, 127
2, 261823, Note_off_c, 1, 61, 127
2, 261824, Note_off_c, 1, 73, 127
2, 261826, Note_on_c, 10, 69, 127
2, 261826, Note_on_c, 2, 74, 127
2, 261826, Note_on_c, 7, 55, 127
2, 262027, Note_off_c, 2, 74, 127
2, 262030, Note_on_c, 4, 76, 127
2, 262229, Note_off_c, 10, 69, 127
2, 262231, Note_off_c, 4, 76, 127
2, 262231, Note_off_c, 7, 55, 127
2, 262231, Note_off_c, 2, 50, 127
2, 262234, Note_on_c, 2, 74, 127
2, 262234, Note_on_c, 6, 54, 127
2, 262440, Note_on_c, 4, 76, 127
2, 262639, Note_off_c, 2, 74, 127
2, 262641, Note_off_c, 4, 76, 127
2, 262641, Note_off_c, 6, 54, 127
2, 262643, Note_on_c, 0, 72, 127
2, 262643, Note_on_c, 6, 78, 127
2, 262643, Note_on_c, 3, 63, 127
2, 262844, Note_off_c, 6, 78, 127
2, 262848, Note_on_c, 7, 79, 127
2, 263048, Note_off_c, 3, 63, 127
2, 263049, Note_off_c, 7, 79, 127
2, 263052, Note_on_c, 10, 81, 127
2, 263052, Note_on_c, 2, 62, 127
2, 263253, Note_off_c, 10, 81, 127
2, 263255, Note_on_c, 6, 78, 127
2, 263451, Note_off_c, 0, 72, 127
2, 263458, Note_off_c, 6, 78, 127
2, 263459, Note_off_c, 2, 62, 127
2, 263461, Note_on_c, 12, 71, 127
2, 263461, Note_on_c, 2, 74, 127
2, 263461, Note_on_c, 10, 57, 127
2, 263662, Note_off_c, 2, 74, 127
2, 263665, Note_on_c, 5, 77, 127
2, 263866, Note_off_c, 5, 77, 127
2, 263866, Note_off_c, 10, 57, 127
2, 263869, Note_on_c, 4, 76, 127
2, 263869, Note_on_c, 8, 56, 127
2, 264070, Note_off_c, 4, 76, 127
2, 264072, Note_on_c, 2, 74, 127
2, 264269, Note_off_c, 12, 71, 127
2, 264275, Note_off_c, 2, 74, 127
2, 264276, Note_off_c, 8, 56, 127
2, 264278, Note_on_c, 10, 69, 127
2, 264278, Note_on_c, 0, 72, 127
2, 264278, Note_on_c, 5, 65, 127
2, 264479, Note_off_c, 0, 72, 127
2, 264483, Note_on_c, 12, 71, 127
2, 264683, Note_off_c, 5, 65, 127
2, 264684, Note_off_c, 12, 71, 127
2, 264686, Note_on_c, 0, 72, 127
2, 264686, Note_on_c, 4, 64, 127
2, 264887, Note_off_c, 0, 72, 127
2, 264891, Note_on_c, 2, 74, 127
2, 265091, Note_off_c, 4, 64, 127
2, 265092, Note_off_c, 2, 74, 127
2, 265094, Note_on_c, 0, 72, 127
2, 265094, Note_on_c, 3, 63, 127
2, 265295, Note_off_c, 0, 72, 127
2, 265298, Note_on_c, 12, 71, 127
2, 265499, Note_off_c, 3, 63, 127
2, 265499, Note_off_c, 10, 69, 127
2, 265502, Note_on_c, 10, 69, 127
2, 265502, Note_on_c, 4, 64, 127
2, 265703, Note_off_c, 10, 69, 127
2, 265706, Note_on_c, 8, 68, 127
2, 265892, Note_off_c, 12, 71, 127
2, 265907, Note_off_c, 8, 68, 127
2, 265907, Note_off_c, 4, 64, 127
2, 265910, Note_on_c, 10, 69, 127
2, 265910, Note_on_c, 1, 61, 127
2, 266116, Note_on_c, 7, 67, 127
2, 266317, Note_off_c, 7, 67, 127
2, 266317, Note_off_c, 1, 61, 127
2, 266320, Note_on_c, 6, 66, 127
2, 266320, Note_on_c, 10, 57, 127
2, 266521, Note_off_c, 6, 66, 127
2, 266523, Note_on_c, 4, 64, 127
2, 266724, Note_off_c, 4, 64, 127
2, 266725, Note_off_c, 10, 57, 127
2, 266728, Note_on_c, 2, 62, 127
2, 266728, Note_on_c, 12, 59, 127
2, 266933, Note_on_c, 1, 61, 127
2, 266934, Note_off_c, 2, 62, 127
2, 267133, Note_off_c, 12, 59, 127
2, 267134, Note_off_c, 1, 61, 127
2, 267134, Note_off_c, 10, 69, 127
2, 267137, Note_on_c, 2, 74, 127
2, 267137, Note_on_c, 12, 59, 127
2, 267338, Note_off_c, 2, 74, 127
2, 267341, Note_on_c, 4, 76, 127
2, 267341, Note_on_c, 1, 61, 127
2, 267542, Note_off_c, 1, 61, 127
2, 267542, Note_off_c, 4, 76, 127
2, 267545, Note_on_c, 2, 62, 127
2, 267545, Note_on_c, 6, 78, 127
2, 267746, Note_off_c, 6, 78, 127
2, 267748, Note_on_c, 7, 79, 127
2, 267949, Note_off_c, 7, 79, 127
2, 267953, Note_on_c, 10, 69, 127
2, 268154, Note_off_c, 10, 69, 127
2, 268157, Note_on_c, 8, 68, 127
2, 268353, Note_off_c, 2, 62, 127
2, 268360, Note_off_c, 8, 68, 127
2, 268362, Note_on_c, 4, 76, 127
2, 268362, Note_on_c, 1, 61, 127
2, 268563, Note_off_c, 4, 76, 127
2, 268566, Note_on_c, 6, 78, 127
2, 268767, Note_off_c, 6, 78, 127
2, 268769, Note_off_c, 12, 59, 127
2, 268770, Note_on_c, 7, 67, 127
2, 268770, Note_on_c, 10, 57, 127
2, 268971, Note_off_c, 7, 67, 127
2, 268974, Note_on_c, 6, 66, 127
2, 269170, Note_off_c, 1, 61, 127
2, 269177, Note_off_c, 6, 66, 127
2, 269179, Note_on_c, 2, 74, 127
2, 269179, Note_on_c, 12, 59, 127
2, 269380, Note_off_c, 2, 74, 127
2, 269384, Note_on_c, 4, 76, 127
2, 269585, Note_off_c, 4, 76, 127
2, 269585, Note_off_c, 10, 57, 127
2, 269588, Note_on_c, 6, 66, 127
2, 269588, Note_on_c, 7, 55, 127
2, 269789, Note_off_c, 6, 66, 127
2, 269791, Note_on_c, 4, 64, 127
2, 269987, Note_off_c, 12, 59, 127
2, 269994, Note_off_c, 4, 64, 127
2, 269997, Note_on_c, 10, 57, 127
2, 269997, Note_on_c, 1, 73, 127
2, 270198, Note_off_c, 1, 73, 127
2, 270201, Note_on_c, 12, 71, 127
2, 270402, Note_off_c, 12, 71, 127
2, 270403, Note_off_c, 7, 55, 127
2, 270405, Note_on_c, 1, 73, 127
2, 270405, Note_on_c, 6, 54, 127
2, 270405, Note_on_c, 2, 50, 127
2, 270606, Note_off_c, 1, 73, 127
2, 270609, Note_on_c, 2, 74, 127
2, 270810, Note_off_c, 2, 74, 127
2, 270810, Note_off_c, 2, 50, 127
2, 270810, Note_off_c, 6, 54, 127
2, 270813, Note_on_c, 4, 76, 127
2, 270813, Note_on_c, 4, 52, 127
2, 270813, Note_on_c, 1, 49, 127
2, 271014, Note_off_c, 4, 76, 127
2, 271016, Note_on_c, 6, 78, 127
2, 271217, Note_off_c, 6, 78, 127
2, 271218, Note_off_c, 1, 49, 127
2, 271218, Note_off_c, 4, 52, 127
2, 271221, Note_on_c, 7, 79, 127
2, 271221, Note_on_c, 10, 45, 127
2, 271221, Note_on_c, 1, 49, 127
2, 271422, Note_off_c, 7, 79, 127
2, 271424, Note_on_c, 4, 76, 127
2, 271625, Note_off_c, 4, 76, 127
2, 271626, Note_off_c, 1, 49, 127
2, 271626, Note_off_c, 10, 45, 127
2, 271626, Note_off_c, 10, 57, 127
2, 271628, Note_on_c, 10, 81, 127
2, 271628, Note_on_c, 6, 54, 127
2, 271834, Note_on_c, 7, 79, 127
2, 272035, Note_off_c, 7, 79, 127
2, 272035, Note_off_c, 6, 54, 127
2, 272038, Note_on_c, 6, 78, 127
2, 272038, Note_on_c, 2, 50, 127
2, 272239, Note_off_c, 6, 78, 127
2, 272242, Note_on_c, 4, 76, 127
2, 272443, Note_off_c, 4, 76, 127
2, 272443, Note_off_c, 2, 50, 127
2, 272446, Note_on_c, 2, 74, 127
2, 272446, Note_on_c, 7, 55, 127
2, 272647, Note_off_c, 2, 74, 127
2, 272650, Note_on_c, 0, 72, 127
2, 272851, Note_off_c, 0, 72, 127
2, 272851, Note_off_c, 7, 55, 127
2, 272853, Note_on_c, 12, 71, 127
2, 272853, Note_on_c, 6, 54, 127
2, 273054, Note_off_c, 12, 71, 127
2, 273058, Note_on_c, 0, 72, 127
2, 273258, Note_off_c, 6, 54, 127
2, 273259, Note_off_c, 0, 72, 127
2, 273259, Note_off_c, 10, 81, 127
2, 273261, Note_on_c, 2, 74, 127
2, 273261, Note_on_c, 7, 79, 127
2, 273261, Note_on_c, 0, 48, 127
2, 273462, Note_off_c, 2, 74, 127
2, 273466, Note_on_c, 4, 76, 127
2, 273666, Note_off_c, 0, 48, 127
2, 273667, Note_off_c, 4, 76, 127
2, 273670, Note_on_c, 2, 74, 127
2, 273670, Note_on_c, 12, 47, 127
2, 273871, Note_off_c, 2, 74, 127
2, 273873, Note_on_c, 0, 72, 127
2, 274069, Note_off_c, 7, 79, 127
2, 274076, Note_off_c, 0, 72, 127
2, 274077, Note_off_c, 12, 47, 127
2, 274079, Note_on_c, 12, 71, 127
2, 274079, Note_on_c, 5, 77, 127
2, 274079, Note_on_c, 10, 57, 127
2, 274280, Note_off_c, 12, 71, 127
2, 274283, Note_on_c, 1, 73, 127
2, 274484, Note_off_c, 1, 73, 127
2, 274484, Note_off_c, 10, 57, 127
2, 274487, Note_on_c, 2, 74, 127
2, 274487, Note_on_c, 8, 56, 127
2, 274688, Note_off_c, 2, 74, 127
2, 274690, Note_on_c, 12, 71, 127
2, 274887, Note_off_c, 5, 77, 127
2, 274893, Note_off_c, 12, 71, 127
2, 274894, Note_off_c, 8, 56, 127
2, 274896, Note_on_c, 7, 67, 127
2, 274896, Note_on_c, 4, 76, 127
2, 274896, Note_on_c, 2, 50, 127
2, 275097, Note_off_c, 7, 67, 127
2, 275101, Note_on_c, 11, 70, 127
2, 275301, Note_off_c, 2, 50, 127
2, 275302, Note_off_c, 11, 70, 127
2, 275304, Note_on_c, 10, 69, 127
2, 275304, Note_on_c, 1, 49, 127
2, 275505, Note_off_c, 10, 69, 127
2, 275509, Note_on_c, 7, 67, 127
2, 275704, Note_off_c, 4, 76, 127
2, 275711, Note_off_c, 1, 49, 127
2, 275712, Note_off_c, 7, 67, 127
2, 275714, Note_on_c, 2, 74, 127
2, 275714, Note_on_c, 5, 65, 127
2, 275714, Note_on_c, 11, 58, 127
2, 275915, Note_off_c, 5, 65, 127
2, 275918, Note_on_c, 4, 64, 127
2, 276119, Note_off_c, 4, 64, 127
2, 276119, Note_off_c, 11, 58, 127
2, 276121, Note_on_c, 5, 65, 127
2, 276121, Note_on_c, 10, 57, 127
2, 276322, Note_off_c, 5, 65, 127
2, 276326, Note_on_c, 2, 62, 127
2, 276526, Note_off_c, 10, 57, 127
2, 276527, Note_off_c, 2, 62, 127
2, 276529, Note_on_c, 4, 64, 127
2, 276529, Note_on_c, 8, 56, 127
2, 276734, Note_off_c, 2, 74, 127
2, 276735, Note_on_c, 1, 73, 127
2, 276936, Note_off_c, 1, 73, 127
2, 276936, Note_off_c, 8, 56, 127
2, 276940, Note_on_c, 2, 74, 127
2, 276940, Note_on_c, 10, 57, 127
2, 277141, Note_off_c, 2, 74, 127
2, 277143, Note_on_c, 1, 73, 127
2, 277338, Note_off_c, 4, 64, 127
2, 277346, Note_off_c, 1, 73, 127
2, 277347, Note_off_c, 10, 57, 127
2, 277349, Note_on_c, 2, 74, 127
2, 277349, Note_on_c, 6, 54, 127
2, 277554, Note_on_c, 0, 72, 127
2, 277755, Note_off_c, 0, 72, 127
2, 277756, Note_off_c, 6, 54, 127
2, 277758, Note_on_c, 12, 71, 127
2, 277758, Note_on_c, 2, 50, 127
2, 277959, Note_off_c, 12, 71, 127
2, 277963, Note_on_c, 10, 69, 127
2, 278163, Note_off_c, 2, 50, 127
2, 278164, Note_off_c, 10, 69, 127
2, 278166, Note_on_c, 7, 67, 127
2, 278166, Note_on_c, 4, 52, 127
2, 278367, Note_off_c, 7, 67, 127
2, 278369, Note_off_c, 2, 74, 127
2, 278370, Note_on_c, 4, 76, 127
2, 278370, Note_on_c, 6, 66, 127
2, 278571, Note_off_c, 6, 66, 127
2, 278571, Note_off_c, 4, 76, 127
2, 278574, Note_on_c, 6, 78, 127
2, 278574, Note_on_c, 4, 64, 127
2, 278775, Note_off_c, 4, 64, 127
2, 278775, Note_off_c, 6, 78, 127
2, 278778, Note_on_c, 7, 79, 127
2, 278778, Note_on_c, 2, 62, 127
2, 278979, Note_off_c, 2, 62, 127
2, 278979, Note_off_c, 7, 79, 127
2, 278982, Note_on_c, 10, 81, 127
2, 278982, Note_on_c, 1, 61, 127
2, 279183, Note_off_c, 1, 61, 127
2, 279183, Note_off_c, 10, 81, 127
2, 279186, Note_on_c, 12, 83, 127
2, 279186, Note_on_c, 12, 59, 127
2, 279387, Note_off_c, 12, 59, 127
2, 279387, Note_off_c, 12, 83, 127
2, 279389, Note_on_c, 2, 74, 127
2, 279389, Note_on_c, 10, 57, 127
2, 279590, Note_off_c, 10, 57, 127
2, 279590, Note_off_c, 2, 74, 127
2, 279594, Note_on_c, 1, 73, 127
2, 279594, Note_on_c, 7, 55, 127
2, 279795, Note_off_c, 7, 55, 127
2, 279795, Note_off_c, 1, 73, 127
2, 279795, Note_off_c, 4, 52, 127
2, 279797, Note_on_c, 2, 74, 127
2, 279797, Note_on_c, 2, 50, 127
2, 279797, Note_on_c, 6, 54, 127
2, 279998, Note_off_c, 6, 54, 127
2, 280002, Note_on_c, 10, 57, 127
2, 280203, Note_off_c, 10, 57, 127
2, 280206, Note_on_c, 12, 59, 127
2, 280407, Note_off_c, 12, 59, 127
2, 280409, Note_on_c, 1, 61, 127
2, 280605, Note_off_c, 2, 50, 127
2, 280612, Note_off_c, 1, 61, 127
2, 280615, Note_on_c, 2, 62, 127
2, 280816, Note_off_c, 2, 62, 127
2, 280819, Note_on_c, 4, 64, 127
2, 281020, Note_off_c, 4, 64, 127
2, 281023, Note_on_c, 10, 57, 127
2, 281023, Note_on_c, 12, 47, 127
2, 281224, Note_off_c, 10, 57, 127
2, 281227, Note_on_c, 8, 56, 127
2, 281426, Note_off_c, 12, 47, 127
2, 281428, Note_off_c, 8, 56, 127
2, 281431, Note_on_c, 10, 57, 127
2, 281431, Note_on_c, 10, 45, 127
2, 281637, Note_on_c, 4, 64, 127
2, 281838, Note_off_c, 4, 64, 127
2, 281840, Note_on_c, 6, 66, 127
2, 282041, Note_off_c, 6, 66, 127
2, 282045, Note_on_c, 7, 67, 127
2, 282240, Note_off_c, 10, 45, 127
2, 282245, Note_off_c, 2, 74, 127
2, 282248, Note_off_c, 7, 67, 127
2, 282250, Note_on_c, 10, 69, 127
2, 282250, Note_on_c, 1, 73, 127
2, 282451, Note_off_c, 10, 69, 127
2, 282454, Note_on_c, 12, 71, 127
2, 282653, Note_off_c, 1, 73, 127
2, 282655, Note_off_c, 12, 71, 127
2, 282657, Note_on_c, 4, 64, 127
2, 282657, Note_on_c, 6, 78, 127
2, 282657, Note_on_c, 6, 54, 127
2, 282858, Note_off_c, 4, 64, 127
2, 282862, Note_on_c, 3, 63, 127
2, 283060, Note_off_c, 6, 54, 127
2, 283063, Note_off_c, 3, 63, 127
2, 283063, Note_off_c, 10, 57, 127
2, 283065, Note_on_c, 7, 67, 127
2, 283065, Note_on_c, 4, 52, 127
2, 283065, Note_on_c, 12, 59, 127
2, 283251, Note_off_c, 6, 78, 127
2, 283270, Note_on_c, 12, 71, 127
2, 283470, Note_off_c, 12, 59, 127
2, 283471, Note_off_c, 12, 71, 127
2, 283474, Note_on_c, 1, 73, 127
2, 283474, Note_on_c, 11, 58, 127
2, 283675, Note_off_c, 11, 58, 127
2, 283675, Note_off_c, 1, 73, 127
2, 283677, Note_on_c, 2, 74, 127
2, 283677, Note_on_c, 12, 59, 127
2, 283873, Note_off_c, 4, 52, 127
2, 283880, Note_off_c, 12, 59, 127
2, 283880, Note_off_c, 2, 74, 127
2, 283883, Note_on_c, 4, 76, 127
2, 283883, Note_on_c, 1, 61, 127
2, 284084, Note_off_c, 4, 76, 127
2, 284087, Note_on_c, 6, 78, 127
2, 284288, Note_off_c, 6, 78, 127
2, 284288, Note_off_c, 1, 61, 127
2, 284291, Note_on_c, 12, 71, 127
2, 284291, Note_on_c, 4, 52, 127
2, 284291, Note_on_c, 1, 49, 127
2, 284492, Note_off_c, 12, 71, 127
2, 284495, Note_on_c, 11, 70, 127
2, 284696, Note_off_c, 11, 70, 127
2, 284696, Note_off_c, 1, 49, 127
2, 284696, Note_off_c, 4, 52, 127
2, 284699, Note_on_c, 2, 74, 127
2, 284699, Note_on_c, 12, 59, 127
2, 284699, Note_on_c, 12, 47, 127
2, 284900, Note_off_c, 12, 47, 127
2, 284900, Note_off_c, 12, 59, 127
2, 284902, Note_on_c, 6, 42, 127
2, 285103, Note_off_c, 6, 42, 127
2, 285105, Note_off_c, 7, 67, 127
2, 285107, Note_on_c, 6, 66, 127
2, 285107, Note_on_c, 8, 44, 127
2, 285308, Note_off_c, 8, 44, 127
2, 285310, Note_on_c, 10, 45, 127
2, 285507, Note_off_c, 2, 74, 127
2, 285513, Note_off_c, 10, 45, 127
2, 285514, Note_off_c, 6, 66, 127
2, 285516, Note_on_c, 5, 65, 127
2, 285516, Note_on_c, 1, 73, 127
2, 285516, Note_on_c, 12, 47, 127
2, 285717, Note_off_c, 12, 47, 127
2, 285720, Note_on_c, 1, 49, 127
2, 285921, Note_off_c, 1, 49, 127
2, 285921, Note_off_c, 1, 73, 127
2, 285921, Note_off_c, 5, 65, 127
2, 285924, Note_on_c, 8, 68, 127
2, 285924, Note_on_c, 12, 71, 127
2, 285924, Note_on_c, 6, 42, 127
2, 286125, Note_off_c, 6, 42, 127
2, 286128, Note_on_c, 5, 41, 127
2, 286329, Note_off_c, 5, 41, 127
2, 286329, Note_off_c, 12, 71, 127
2, 286332, Note_on_c, 1, 73, 127
2, 286332, Note_on_c, 10, 45, 127
2, 286518, Note_off_c, 8, 68, 127
2, 286536, Note_on_c, 5, 65, 127
2, 286536, Note_on_c, 1, 49, 127
2, 286737, Note_off_c, 1, 49, 127
2, 286737, Note_off_c, 5, 65, 127
2, 286739, Note_on_c, 6, 66, 127
2, 286739, Note_on_c, 3, 51, 127
2, 286940, Note_off_c, 3, 51, 127
2, 286940, Note_off_c, 6, 66, 127
2, 286944, Note_on_c, 8, 68, 127
2, 286944, Note_on_c, 5, 53, 127
2, 287145, Note_off_c, 5, 53, 127
2, 287145, Note_off_c, 8, 68, 127
2, 287147, Note_on_c, 10, 69, 127
2, 287147, Note_on_c, 6, 54, 127
2, 287348, Note_off_c, 6, 54, 127
2, 287348, Note_off_c, 10, 69, 127
2, 287352, Note_on_c, 12, 71, 127
2, 287352, Note_on_c, 8, 56, 127
2, 287553, Note_off_c, 8, 56, 127
2, 287553, Note_off_c, 12, 71, 127
2, 287556, Note_on_c, 2, 62, 127
2, 287556, Note_on_c, 10, 57, 127
2, 287757, Note_off_c, 10, 57, 127
2, 287757, Note_off_c, 2, 62, 127
2, 287759, Note_on_c, 1, 61, 127
2, 287759, Note_on_c, 5, 53, 127
2, 287960, Note_off_c, 5, 53, 127
2, 287960, Note_off_c, 1, 61, 127
2, 287961, Note_off_c, 1, 73, 127
2, 287964, Note_on_c, 3, 63, 127
2, 287964, Note_on_c, 6, 54, 127
2, 288169, Note_on_c, 6, 66, 127
2, 288370, Note_off_c, 6, 66, 127
2, 288373, Note_on_c, 8, 68, 127
2, 288574, Note_off_c, 8, 68, 127
2, 288577, Note_on_c, 10, 69, 127
2, 288773, Note_off_c, 3, 63, 127
2, 288778, Note_off_c, 10, 45, 127
2, 288780, Note_off_c, 10, 69, 127
2, 288781, Note_off_c, 6, 54, 127
2, 288782, Note_on_c, 5, 65, 127
2, 288782, Note_on_c, 12, 71, 127
2, 288782, Note_on_c, 8, 56, 127
2, 288782, Note_on_c, 8, 44, 127
2, 288983, Note_off_c, 12, 71, 127
2, 288987, Note_on_c, 1, 73, 127
2, 289185, Note_off_c, 5, 65, 127
2, 289188, Note_off_c, 1, 73, 127
2, 289190, Note_on_c, 6, 66, 127
2, 289190, Note_on_c, 8, 68, 127
2, 289391, Note_off_c, 6, 66, 127
2, 289395, Note_on_c, 5, 65, 127
2, 289593, Note_off_c, 8, 68, 127
2, 289595, Note_off_c, 8, 44, 127
2, 289595, Note_off_c, 8, 56, 127
2, 289596, Note_off_c, 5, 65, 127
2, 289598, Note_on_c, 10, 69, 127
2, 289598, Note_on_c, 6, 42, 127
2, 289804, Note_on_c, 8, 68, 127
2, 290005, Note_off_c, 8, 68, 127
2, 290005, Note_off_c, 6, 42, 127
2, 290007, Note_on_c, 6, 66, 127
2, 290007, Note_on_c, 1, 61, 127
2, 290208, Note_off_c, 6, 66, 127
2, 290212, Note_on_c, 5, 65, 127
2, 290407, Note_off_c, 10, 69, 127
2, 290414, Note_off_c, 1, 61, 127
2, 290415, Note_off_c, 5, 65, 127
2, 290418, Note_on_c, 6, 66, 127
2, 290418, Note_on_c, 10, 57, 127
2, 290619, Note_off_c, 6, 66, 127
2, 290621, Note_on_c, 8, 68, 127
2, 290822, Note_off_c, 8, 68, 127
2, 290823, Note_off_c, 10, 57, 127
2, 290826, Note_on_c, 10, 69, 127
2, 290826, Note_on_c, 6, 54, 127
2, 291027, Note_off_c, 10, 69, 127
2, 291029, Note_on_c, 1, 73, 127
2, 291230, Note_off_c, 1, 73, 127
2, 291231, Note_off_c, 6, 54, 127
2, 291233, Note_on_c, 12, 71, 127
2, 291233, Note_on_c, 2, 62, 127
2, 291434, Note_off_c, 12, 71, 127
2, 291437, Note_on_c, 8, 68, 127
2, 291638, Note_off_c, 8, 68, 127
2, 291638, Note_off_c, 2, 62, 127
2, 291641, Note_on_c, 10, 69, 127
2, 291641, Note_on_c, 1, 61, 127
2, 291842, Note_off_c, 10, 69, 127
2, 291845, Note_on_c, 1, 73, 127
2, 292046, Note_off_c, 1, 73, 127
2, 292046, Note_off_c, 1, 61, 127
2, 292049, Note_on_c, 12, 71, 127
2, 292049, Note_on_c, 8, 80, 127
2, 292049, Note_on_c, 6, 66, 127
2, 292250, Note_off_c, 12, 71, 127
2, 292252, Note_on_c, 2, 74, 127
2, 292453, Note_off_c, 2, 74, 127
2, 292454, Note_off_c, 6, 66, 127
2, 292457, Note_on_c, 1, 73, 127
2, 292457, Note_on_c, 5, 65, 127
2, 292658, Note_off_c, 1, 73, 127
2, 292661, Note_on_c, 12, 71, 127
2, 292857, Note_off_c, 8, 80, 127
2, 292864, Note_off_c, 12, 71, 127
2, 292864, Note_off_c, 5, 65, 127
2, 292866, Note_on_c, 1, 73, 127
2, 292866, Note_on_c, 6, 78, 127
2, 292866, Note_on_c, 12, 59, 127
2, 293067, Note_off_c, 1, 73, 127
2, 293070, Note_on_c, 2, 74, 127
2, 293271, Note_off_c, 2, 74, 127
2, 293271, Note_off_c, 12, 59, 127
2, 293274, Note_on_c, 4, 76, 127
2, 293274, Note_on_c, 11, 58, 127
2, 293475, Note_off_c, 4, 76, 127
2, 293478, Note_on_c, 2, 74, 127
2, 293674, Note_off_c, 6, 78, 127
2, 293681, Note_off_c, 2, 74, 127
2, 293681, Note_off_c, 11, 58, 127
2, 293683, Note_on_c, 4, 76, 127
2, 293683, Note_on_c, 1, 73, 127
2, 293683, Note_on_c, 7, 67, 127
2, 293884, Note_off_c, 1, 73, 127
2, 293888, Note_on_c, 12, 71, 127
2, 294088, Note_off_c, 7, 67, 127
2, 294089, Note_off_c, 12, 71, 127
2, 294092, Note_on_c, 11, 70, 127
2, 294092, Note_on_c, 6, 66, 127
2, 294293, Note_off_c, 11, 70, 127
2, 294295, Note_on_c, 8, 68, 127
2, 294491, Note_off_c, 4, 76, 127
2, 294498, Note_off_c, 8, 68, 127
2, 294499, Note_off_c, 6, 66, 127
2, 294501, Note_on_c, 6, 66, 127
2, 294501, Note_on_c, 3, 75, 127
2, 294501, Note_on_c, 1, 61, 127
2, 294702, Note_off_c, 6, 66, 127
2, 294705, Note_on_c, 10, 69, 127
2, 294906, Note_off_c, 10, 69, 127
2, 294906, Note_off_c, 1, 61, 127
2, 294909, Note_on_c, 8, 68, 127
2, 294909, Note_on_c, 0, 60, 127
2, 295110, Note_off_c, 8, 68, 127
2, 295113, Note_on_c, 0, 72, 127
2, 295309, Note_off_c, 3, 75, 127
2, 295316, Note_off_c, 0, 72, 127
2, 295316, Note_off_c, 0, 60, 127
2, 295319, Note_on_c, 1, 73, 127
2, 295319, Note_on_c, 10, 69, 127
2, 295524, Note_on_c, 3, 75, 127
2, 295725, Note_off_c, 3, 75, 127
2, 295726, Note_off_c, 10, 69, 127
2, 295728, Note_on_c, 4, 76, 127
2, 295728, Note_on_c, 8, 68, 127
2, 295929, Note_off_c, 4, 76, 127
2, 295932, Note_on_c, 6, 78, 127
2, 296133, Note_off_c, 6, 78, 127
2, 296133, Note_off_c, 8, 68, 127
2, 296136, Note_on_c, 4, 76, 127
2, 296136, Note_on_c, 7, 67, 127
2, 296337, Note_off_c, 4, 76, 127
2, 296340, Note_on_c, 3, 75, 127
2, 296541, Note_off_c, 3, 75, 127
2, 296541, Note_off_c, 7, 67, 127
2, 296542, Note_off_c, 1, 73, 127
2, 296543, Note_on_c, 1, 73, 127
2, 296543, Note_on_c, 8, 68, 127
2, 296744, Note_off_c, 1, 73, 127
2, 296749, Note_on_c, 0, 72, 127
2, 296950, Note_off_c, 0, 72, 127
2, 296950, Note_off_c, 8, 68, 127
2, 296954, Note_on_c, 8, 68, 127
2, 296954, Note_on_c, 1, 73, 127
2, 296954, Note_on_c, 4, 64, 127
2, 297155, Note_off_c, 8, 68, 127
2, 297157, Note_on_c, 12, 71, 127
2, 297358, Note_off_c, 12, 71, 127
2, 297359, Note_off_c, 4, 64, 127
2, 297362, Note_on_c, 10, 69, 127
2, 297362, Note_on_c, 1, 61, 127
2, 297563, Note_off_c, 10, 69, 127
2, 297565, Note_on_c, 8, 68, 127
2, 297766, Note_off_c, 8, 68, 127
2, 297767, Note_off_c, 1, 61, 127
2, 297769, Note_on_c, 6, 66, 127
2, 297769, Note_on_c, 3, 63, 127
2, 297974, Note_off_c, 1, 73, 127
2, 297974, Note_on_c, 3, 75, 127
2, 298175, Note_off_c, 3, 75, 127
2, 298179, Note_on_c, 4, 76, 127
2, 298380, Note_off_c, 4, 76, 127
2, 298382, Note_on_c, 6, 78, 127
2, 298583, Note_off_c, 6, 78, 127
2, 298587, Note_on_c, 8, 80, 127
2, 298788, Note_off_c, 8, 80, 127
2, 298791, Note_on_c, 10, 81, 127
2, 298992, Note_off_c, 10, 81, 127
2, 298994, Note_on_c, 1, 73, 127
2, 299195, Note_off_c, 1, 73, 127
2, 299199, Note_on_c, 0, 72, 127
2, 299400, Note_off_c, 0, 72, 127
2, 299400, Note_off_c, 6, 66, 127
2, 299402, Note_on_c, 8, 68, 127
2, 299402, Note_on_c, 4, 76, 127
2, 299603, Note_off_c, 3, 63, 127
2, 299606, Note_on_c, 8, 56, 127
2, 299807, Note_off_c, 8, 56, 127
2, 299810, Note_on_c, 11, 58, 127
2, 300011, Note_off_c, 11, 58, 127
2, 300014, Note_on_c, 0, 60, 127
2, 300215, Note_off_c, 0, 60, 127
2, 300218, Note_on_c, 1, 61, 127
2, 300419, Note_off_c, 1, 61, 127
2, 300422, Note_on_c, 3, 63, 127
2, 300623, Note_off_c, 3, 63, 127
2, 300625, Note_on_c, 6, 54, 127
2, 300826, Note_off_c, 6, 54, 127
2, 300830, Note_on_c, 4, 52, 127
2, 301031, Note_off_c, 4, 52, 127
2, 301033, Note_on_c, 6, 54, 127
2, 301234, Note_off_c, 4, 76, 127
2, 301234, Note_off_c, 8, 68, 127
2, 301238, Note_on_c, 4, 76, 127
2, 301238, Note_on_c, 1, 61, 127
2, 301439, Note_off_c, 1, 61, 127
2, 301439, Note_off_c, 4, 76, 127
2, 301442, Note_on_c, 6, 78, 127
2, 301442, Note_on_c, 3, 63, 127
2, 301643, Note_off_c, 3, 63, 127
2, 301643, Note_off_c, 6, 78, 127
2, 301645, Note_on_c, 8, 80, 127
2, 301645, Note_on_c, 4, 64, 127
2, 301841, Note_off_c, 6, 54, 127
2, 301848, Note_off_c, 4, 64, 127
2, 301848, Note_off_c, 8, 80, 127
2, 301851, Note_on_c, 6, 66, 127
2, 301851, Note_on_c, 10, 81, 127
2, 302052, Note_off_c, 10, 81, 127
2, 302052, Note_off_c, 6, 66, 127
2, 302055, Note_on_c, 12, 83, 127
2, 302055, Note_on_c, 8, 68, 127
2, 302256, Note_off_c, 8, 68, 127
2, 302256, Note_off_c, 12, 83, 127
2, 302259, Note_on_c, 3, 75, 127
2, 302259, Note_on_c, 10, 69, 127
2, 302460, Note_off_c, 10, 69, 127
2, 302460, Note_off_c, 3, 75, 127
2, 302463, Note_on_c, 12, 71, 127
2, 302463, Note_on_c, 1, 73, 127
2, 302664, Note_off_c, 1, 73, 127
2, 302664, Note_off_c, 12, 71, 127
2, 302667, Note_on_c, 3, 75, 127
2, 302667, Note_on_c, 10, 69, 127
2, 302868, Note_off_c, 10, 69, 127
2, 302870, Note_on_c, 6, 66, 127
2, 303071, Note_off_c, 6, 66, 127
2, 303075, Note_on_c, 8, 68, 127
2, 303075, Note_on_c, 12, 47, 127
2, 303276, Note_off_c, 8, 68, 127
2, 303279, Note_on_c, 10, 69, 127
2, 303475, Note_off_c, 3, 75, 127
2, 303482, Note_off_c, 10, 69, 127
2, 303482, Note_off_c, 12, 47, 127
2, 303484, Note_on_c, 12, 71, 127
2, 303484, Note_on_c, 8, 44, 127
2, 303685, Note_off_c, 12, 71, 127
2, 303688, Note_on_c, 1, 73, 127
2, 303889, Note_off_c, 1, 73, 127
2, 303889, Note_off_c, 8, 44, 127
2, 303892, Note_on_c, 3, 75, 127
2, 303892, Note_on_c, 4, 40, 127
2, 304093, Note_off_c, 3, 75, 127
2, 304096, Note_on_c, 4, 76, 127
2, 304297, Note_off_c, 4, 76, 127
2, 304297, Note_off_c, 4, 40, 127
2, 304300, Note_on_c, 6, 78, 127
2, 304300, Note_on_c, 1, 49, 127
2, 304501, Note_off_c, 6, 78, 127
2, 304504, Note_on_c, 3, 75, 127
2, 304705, Note_off_c, 3, 75, 127
2, 304705, Note_off_c, 1, 49, 127
2, 304707, Note_on_c, 4, 76, 127
2, 304707, Note_on_c, 12, 47, 127
2, 304908, Note_off_c, 4, 76, 127
2, 304912, Note_on_c, 8, 80, 127
2, 305112, Note_off_c, 12, 47, 127
2, 305113, Note_off_c, 8, 80, 127
2, 305116, Note_on_c, 6, 78, 127
2, 305116, Note_on_c, 4, 52, 127
2, 305321, Note_on_c, 1, 73, 127
2, 305522, Note_off_c, 1, 73, 127
2, 305523, Note_off_c, 4, 52, 127
2, 305526, Note_on_c, 12, 71, 127
2, 305526, Note_on_c, 3, 51, 127
2, 305727, Note_off_c, 12, 71, 127
2, 305729, Note_on_c, 10, 69, 127
2, 305925, Note_off_c, 6, 78, 127
2, 305932, Note_off_c, 10, 69, 127
2, 305933, Note_off_c, 3, 51, 127
2, 305935, Note_on_c, 12, 71, 127
2, 305935, Note_on_c, 4, 76, 127
2, 305935, Note_on_c, 10, 45, 127
2, 306136, Note_off_c, 12, 71, 127
2, 306138, Note_on_c, 1, 73, 127
2, 306339, Note_off_c, 1, 73, 127
2, 306340, Note_off_c, 10, 45, 127
2, 306343, Note_on_c, 2, 74, 127
2, 306343, Note_on_c, 8, 44, 127
2, 306544, Note_off_c, 2, 74, 127
2, 306547, Note_on_c, 1, 73, 127
2, 306743, Note_off_c, 4, 76, 127
2, 306750, Note_off_c, 1, 73, 127
2, 306750, Note_off_c, 8, 44, 127
2, 306752, Note_on_c, 12, 71, 127
2, 306752, Note_on_c, 2, 74, 127
2, 306752, Note_on_c, 5, 53, 127
2, 306953, Note_off_c, 12, 71, 127
2, 306956, Note_on_c, 10, 69, 127
2, 307157, Note_off_c, 10, 69, 127
2, 307157, Note_off_c, 5, 53, 127
2, 307160, Note_on_c, 8, 68, 127
2, 307160, Note_on_c, 4, 52, 127
2, 307361, Note_off_c, 8, 68, 127
2, 307364, Note_on_c, 6, 66, 127
2, 307560, Note_off_c, 2, 74, 127
2, 307567, Note_off_c, 6, 66, 127
2, 307567, Note_off_c, 4, 52, 127
2, 307569, Note_on_c, 4, 64, 127
2, 307569, Note_on_c, 1, 73, 127
2, 307569, Note_on_c, 12, 47, 127
2, 307770, Note_off_c, 4, 64, 127
2, 307774, Note_on_c, 7, 67, 127
2, 307974, Note_off_c, 12, 47, 127
2, 307975, Note_off_c, 7, 67, 127
2, 307978, Note_on_c, 6, 66, 127
2, 307978, Note_on_c, 11, 46, 127
2, 308179, Note_off_c, 6, 66, 127
2, 308181, Note_on_c, 4, 64, 127
2, 308377, Note_off_c, 1, 73, 127
2, 308384, Note_off_c, 4, 64, 127
2, 308385, Note_off_c, 11, 46, 127
2, 308387, Note_on_c, 2, 62, 127
2, 308387, Note_on_c, 12, 71, 127
2, 308387, Note_on_c, 7, 55, 127
2, 308588, Note_off_c, 2, 62, 127
2, 308591, Note_on_c, 1, 61, 127
2, 308792, Note_off_c, 1, 61, 127
2, 308792, Note_off_c, 7, 55, 127
2, 308795, Note_on_c, 2, 62, 127
2, 308795, Note_on_c, 6, 54, 127
2, 308996, Note_off_c, 2, 62, 127
2, 308999, Note_on_c, 12, 59, 127
2, 309200, Note_off_c, 12, 59, 127
2, 309200, Note_off_c, 6, 54, 127
2, 309203, Note_on_c, 1, 61, 127
2, 309203, Note_on_c, 5, 53, 127
2, 309407, Note_off_c, 12, 71, 127
2, 309409, Note_on_c, 11, 70, 127
2, 309610, Note_off_c, 11, 70, 127
2, 309610, Note_off_c, 5, 53, 127
2, 309612, Note_on_c, 12, 71, 127
2, 309612, Note_on_c, 6, 54, 127
2, 309813, Note_off_c, 12, 71, 127
2, 309817, Note_on_c, 11, 70, 127
2, 310012, Note_off_c, 1, 61, 127
2, 310019, Note_off_c, 6, 54, 127
2, 310020, Note_off_c, 11, 70, 127
2, 310022, Note_on_c, 12, 71, 127
2, 310022, Note_on_c, 2, 50, 127
2, 310228, Note_on_c, 10, 69, 127
2, 310429, Note_off_c, 10, 69, 127
2, 310429, Note_off_c, 2, 50, 127
2, 310431, Note_on_c, 7, 67, 127
2, 310431, Note_on_c, 12, 47, 127
2, 310632, Note_off_c, 7, 67, 127
2, 310635, Note_on_c, 6, 66, 127
2, 310836, Note_off_c, 6, 66, 127
2, 310836, Note_off_c, 12, 47, 127
2, 310840, Note_on_c, 4, 64, 127
2, 310840, Note_on_c, 1, 49, 127
2, 311044, Note_off_c, 12, 71, 127
2, 311045, Note_on_c, 1, 73, 127
2, 311246, Note_off_c, 1, 73, 127
2, 311249, Note_on_c, 2, 74, 127
2, 311450, Note_off_c, 2, 74, 127
2, 311453, Note_on_c, 4, 76, 127
2, 311649, Note_off_c, 4, 64, 127
2, 311656, Note_off_c, 4, 76, 127
2, 311659, Note_on_c, 6, 78, 127
2, 311860, Note_off_c, 6, 78, 127
2, 311862, Note_on_c, 7, 79, 127
2, 312063, Note_off_c, 7, 79, 127
2, 312066, Note_on_c, 12, 71, 127
2, 312066, Note_on_c, 1, 73, 127
2, 312267, Note_off_c, 12, 71, 127
2, 312271, Note_on_c, 11, 70, 127
2, 312472, Note_off_c, 11, 70, 127
2, 312472, Note_off_c, 1, 49, 127
2, 312474, Note_on_c, 2, 74, 127
2, 312474, Note_on_c, 12, 47, 127
2, 312660, Note_off_c, 1, 73, 127
2, 312679, Note_on_c, 1, 73, 127
2, 312879, Note_off_c, 12, 47, 127
2, 312880, Note_off_c, 1, 73, 127
2, 312882, Note_on_c, 12, 71, 127
2, 312882, Note_on_c, 6, 66, 127
2, 313083, Note_off_c, 12, 71, 127
2, 313086, Note_on_c, 11, 70, 127
2, 313287, Note_off_c, 11, 70, 127
2, 313287, Note_off_c, 6, 66, 127
2, 313290, Note_on_c, 12, 71, 127
2, 313290, Note_on_c, 2, 62, 127
2, 313494, Note_off_c, 2, 74, 127
2, 313496, Note_on_c, 1, 73, 127
2, 313697, Note_off_c, 1, 73, 127
2, 313697, Note_off_c, 2, 62, 127
2, 313699, Note_on_c, 2, 74, 127
2, 313699, Note_on_c, 12, 59, 127
2, 313900, Note_off_c, 2, 74, 127
2, 313903, Note_on_c, 1, 73, 127
2, 314099, Note_off_c, 12, 71, 127
2, 314106, Note_off_c, 1, 73, 127
2, 314106, Note_off_c, 12, 59, 127
2, 314109, Note_on_c, 4, 76, 127
2, 314109, Note_on_c, 1, 73, 127
2, 314109, Note_on_c, 7, 67, 127
2, 314310, Note_off_c, 4, 76, 127
2, 314313, Note_on_c, 2, 74, 127
2, 314512, Note_off_c, 1, 73, 127
2, 314514, Note_off_c, 2, 74, 127
2, 314514, Note_off_c, 7, 67, 127
2, 314517, Note_on_c, 6, 78, 127
2, 314517, Note_on_c, 2, 74, 127
2, 314517, Note_on_c, 6, 66, 127
2, 314718, Note_off_c, 6, 78, 127
2, 314721, Note_on_c, 4, 76, 127
2, 314920, Note_off_c, 2, 74, 127
2, 314922, Note_off_c, 4, 76, 127
2, 314922, Note_off_c, 6, 66, 127
2, 314925, Note_on_c, 7, 79, 127
2, 314925, Note_on_c, 12, 71, 127
2, 315130, Note_on_c, 4, 76, 127
2, 315331, Note_off_c, 4, 76, 127
2, 315332, Note_off_c, 12, 71, 127
2, 315334, Note_on_c, 2, 74, 127
2, 315334, Note_on_c, 11, 70, 127
2, 315535, Note_off_c, 2, 74, 127
2, 315539, Note_on_c, 1, 73, 127
2, 315739, Note_off_c, 11, 70, 127
2, 315740, Note_off_c, 1, 73, 127
2, 315742, Note_on_c, 12, 71, 127
2, 315742, Note_on_c, 4, 64, 127
2, 315943, Note_off_c, 12, 71, 127
2, 315947, Note_on_c, 11, 70, 127
2, 316147, Note_off_c, 4, 64, 127
2, 316148, Note_off_c, 11, 70, 127
2, 316150, Note_on_c, 12, 71, 127
2, 316150, Note_on_c, 3, 63, 127
2, 316356, Note_on_c, 6, 78, 127
2, 316357, Note_off_c, 7, 79, 127
2, 316555, Note_off_c, 12, 71, 127
2, 316557, Note_off_c, 6, 78, 127
2, 316557, Note_off_c, 3, 63, 127
2, 316559, Note_on_c, 10, 81, 127
2, 316559, Note_on_c, 0, 72, 127
2, 316765, Note_on_c, 6, 78, 127
2, 316966, Note_off_c, 6, 78, 127
2, 316966, Note_off_c, 0, 72, 127
2, 316970, Note_on_c, 4, 76, 127
2, 316970, Note_on_c, 12, 71, 127
2, 317171, Note_off_c, 4, 76, 127
2, 317173, Note_on_c, 3, 75, 127
2, 317374, Note_off_c, 3, 75, 127
2, 317375, Note_off_c, 12, 71, 127
2, 317377, Note_on_c, 1, 73, 127
2, 317377, Note_on_c, 6, 66, 127
2, 317578, Note_off_c, 1, 73, 127
2, 317581, Note_on_c, 0, 72, 127
2, 317782, Note_off_c, 0, 72, 127
2, 317782, Note_off_c, 6, 66, 127
2, 317785, Note_on_c, 1, 73, 127
2, 317785, Note_on_c, 5, 65, 127
2, 317990, Note_on_c, 8, 80, 127
2, 317991, Note_off_c, 10, 81, 127
2, 318190, Note_off_c, 1, 73, 127
2, 318191, Note_off_c, 8, 80, 127
2, 318192, Note_off_c, 5, 65, 127
2, 318195, Note_on_c, 12, 83, 127
2, 318195, Note_on_c, 2, 74, 127
2, 318401, Note_on_c, 8, 80, 127
2, 318600, Note_off_c, 12, 83, 127
2, 318602, Note_off_c, 2, 74, 127
2, 318604, Note_on_c, 10, 81, 127
2, 318604, Note_on_c, 1, 73, 127
2, 318804, Note_off_c, 8, 80, 127
2, 318810, Note_on_c, 6, 78, 127
2, 319009, Note_off_c, 10, 81, 127
2, 319011, Note_off_c, 1, 73, 127
2, 319013, Note_on_c, 8, 80, 127
2, 319013, Note_on_c, 0, 72, 127
2, 319213, Note_off_c, 6, 78, 127
2, 319219, Note_on_c, 6, 78, 127
2, 319420, Note_off_c, 6, 78, 127
2, 319420, Note_off_c, 0, 72, 127
2, 319423, Note_on_c, 5, 77, 127
2, 319423, Note_on_c, 1, 73, 127
2, 319608, Note_off_c, 8, 80, 127
2, 319624, Note_off_c, 5, 77, 127
2, 319627, Note_on_c, 8, 80, 127
2, 319828, Note_off_c, 1, 73, 127
2, 319830, Note_on_c, 1, 73, 127
2, 319830, Note_on_c, 10, 69, 127
2, 320030, Note_off_c, 8, 80, 127
2, 320036, Note_on_c, 5, 77, 127
2, 320237, Note_off_c, 5, 77, 127
2, 320237, Note_off_c, 10, 69, 127
2, 320241, Note_on_c, 6, 78, 127
2, 320241, Note_on_c, 6, 66, 127
2, 320425, Note_off_c, 1, 73, 127
2, 320444, Note_on_c, 2, 74, 127
2, 320645, Note_off_c, 2, 74, 127
2, 320646, Note_off_c, 6, 66, 127
2, 320649, Note_on_c, 12, 71, 127
2, 320649, Note_on_c, 8, 68, 127
2, 320835, Note_off_c, 6, 78, 127
2, 320852, Note_on_c, 6, 78, 127
2, 321053, Note_off_c, 6, 78, 127
2, 321056, Note_on_c, 8, 80, 127
2, 321257, Note_off_c, 8, 80, 127
2, 321260, Note_on_c, 10, 81, 127
2, 321461, Note_off_c, 10, 81, 127
2, 321464, Note_on_c, 12, 83, 127
2, 321665, Note_off_c, 12, 83, 127
2, 321668, Note_on_c, 8, 80, 127
2, 321869, Note_off_c, 8, 80, 127
2, 321872, Note_on_c, 6, 78, 127
2, 322073, Note_off_c, 6, 78, 127
2, 322076, Note_on_c, 5, 77, 127
2, 322277, Note_off_c, 5, 77, 127
2, 322278, Note_off_c, 12, 71, 127
2, 322280, Note_on_c, 10, 81, 127
2, 322280, Note_on_c, 1, 73, 127
2, 322481, Note_off_c, 8, 68, 127
2, 322484, Note_on_c, 1, 61, 127
2, 322685, Note_off_c, 1, 61, 127
2, 322688, Note_on_c, 3, 63, 127
2, 322889, Note_off_c, 3, 63, 127
2, 322892, Note_on_c, 5, 65, 127
2, 323093, Note_off_c, 5, 65, 127
2, 323095, Note_on_c, 6, 66, 127
2, 323296, Note_off_c, 6, 66, 127
2, 323300, Note_on_c, 8, 68, 127
2, 323501, Note_off_c, 8, 68, 127
2, 323503, Note_on_c, 12, 59, 127
2, 323704, Note_off_c, 12, 59, 127
2, 323707, Note_on_c, 10, 57, 127
2, 323908, Note_off_c, 10, 57, 127
2, 323911, Note_on_c, 12, 59, 127
2, 324117, Note_on_c, 6, 66, 127
2, 324129, Note_off_c, 1, 73, 127
2, 324320, Note_off_c, 6, 66, 127
2, 324323, Note_on_c, 7, 67, 127
2, 324524, Note_off_c, 7, 67, 127
2, 324526, Note_on_c, 10, 69, 127
2, 324727, Note_off_c, 10, 69, 127
2, 324731, Note_on_c, 12, 71, 127
2, 324932, Note_off_c, 12, 71, 127
2, 324934, Note_on_c, 0, 72, 127
2, 325135, Note_off_c, 0, 72, 127
2, 325138, Note_on_c, 4, 64, 127
2, 325339, Note_off_c, 4, 64, 127
2, 325342, Note_on_c, 3, 63, 127
2, 325543, Note_off_c, 3, 63, 127
2, 325546, Note_on_c, 4, 64, 127
2, 325746, Note_off_c, 10, 81, 127
2, 325752, Note_on_c, 6, 78, 127
2, 325953, Note_off_c, 6, 78, 127
2, 325956, Note_on_c, 7, 79, 127
2, 326157, Note_off_c, 7, 79, 127
2, 326160, Note_on_c, 10, 81, 127
2, 326361, Note_off_c, 10, 81, 127
2, 326363, Note_on_c, 12, 83, 127
2, 326564, Note_off_c, 12, 83, 127
2, 326568, Note_on_c, 0, 84, 127
2, 326769, Note_off_c, 0, 84, 127
2, 326771, Note_on_c, 6, 78, 127
2, 326972, Note_off_c, 6, 78, 127
2, 326975, Note_on_c, 4, 76, 127
2, 327166, Note_off_c, 12, 59, 127
2, 327176, Note_off_c, 4, 76, 127
2, 327179, Note_on_c, 6, 78, 127
2, 327179, Note_on_c, 11, 58, 127
2, 327375, Note_off_c, 4, 64, 127
2, 327385, Note_on_c, 4, 64, 127
2, 327584, Note_off_c, 11, 58, 127
2, 327586, Note_off_c, 4, 64, 127
2, 327589, Note_on_c, 2, 62, 127
2, 327589, Note_on_c, 6, 54, 127
2, 327790, Note_off_c, 2, 62, 127
2, 327793, Note_on_c, 1, 61, 127
2, 327992, Note_off_c, 6, 54, 127
2, 327994, Note_off_c, 1, 61, 127
2, 327997, Note_on_c, 2, 62, 127
2, 327997, Note_on_c, 12, 59, 127
2, 328197, Note_off_c, 6, 78, 127
2, 328200, Note_on_c, 6, 78, 127
2, 328401, Note_off_c, 6, 78, 127
2, 328402, Note_off_c, 12, 59, 127
2, 328402, Note_off_c, 2, 62, 127
2, 328405, Note_on_c, 2, 74, 127
2, 328405, Note_on_c, 2, 62, 127
2, 328606, Note_off_c, 2, 74, 127
2, 328608, Note_on_c, 12, 71, 127
2, 328809, Note_off_c, 12, 71, 127
2, 328810, Note_off_c, 2, 62, 127
2, 328813, Note_on_c, 7, 79, 127
2, 328813, Note_on_c, 4, 64, 127
2, 329014, Note_off_c, 7, 79, 127
2, 329016, Note_on_c, 10, 81, 127
2, 329217, Note_off_c, 10, 81, 127
2, 329218, Note_off_c, 4, 64, 127
2, 329220, Note_on_c, 12, 83, 127
2, 329220, Note_on_c, 4, 76, 127
2, 329220, Note_on_c, 7, 67, 127
2, 329421, Note_off_c, 4, 76, 127
2, 329425, Note_on_c, 2, 74, 127
2, 329625, Note_off_c, 7, 67, 127
2, 329626, Note_off_c, 2, 74, 127
2, 329628, Note_on_c, 1, 73, 127
2, 329628, Note_on_c, 10, 69, 127
2, 329829, Note_off_c, 1, 73, 127
2, 329833, Note_on_c, 2, 74, 127
2, 330028, Note_off_c, 12, 83, 127
2, 330035, Note_off_c, 10, 69, 127
2, 330036, Note_off_c, 2, 74, 127
2, 330038, Note_on_c, 10, 81, 127
2, 330038, Note_on_c, 4, 76, 127
2, 330038, Note_on_c, 1, 61, 127
2, 330239, Note_off_c, 10, 81, 127
2, 330242, Note_on_c, 7, 79, 127
2, 330443, Note_off_c, 7, 79, 127
2, 330443, Note_off_c, 1, 61, 127
2, 330445, Note_on_c, 6, 78, 127
2, 330445, Note_on_c, 2, 62, 127
2, 330646, Note_off_c, 6, 78, 127
2, 330650, Note_on_c, 7, 79, 127
2, 330846, Note_off_c, 4, 76, 127
2, 330852, Note_off_c, 2, 62, 127
2, 330853, Note_off_c, 7, 79, 127
2, 330856, Note_on_c, 10, 81, 127
2, 330856, Note_on_c, 2, 74, 127
2, 330856, Note_on_c, 6, 66, 127
2, 331057, Note_off_c, 2, 74, 127
2, 331059, Note_on_c, 1, 73, 127
2, 331260, Note_off_c, 1, 73, 127
2, 331261, Note_off_c, 6, 66, 127
2, 331263, Note_on_c, 12, 71, 127
2, 331263, Note_on_c, 7, 67, 127
2, 331464, Note_off_c, 12, 71, 127
2, 331467, Note_on_c, 1, 73, 127
2, 331664, Note_off_c, 10, 81, 127
2, 331670, Note_off_c, 1, 73, 127
2, 331670, Note_off_c, 7, 67, 127
2, 331673, Note_on_c, 2, 74, 127
2, 331673, Note_on_c, 7, 79, 127
2, 331673, Note_on_c, 12, 59, 127
2, 331874, Note_off_c, 7, 79, 127
2, 331876, Note_on_c, 6, 78, 127
2, 332077, Note_off_c, 6, 78, 127
2, 332078, Note_off_c, 12, 59, 127
2, 332081, Note_on_c, 4, 76, 127
2, 332081, Note_on_c, 1, 61, 127
2, 332282, Note_off_c, 4, 76, 127
2, 332284, Note_on_c, 6, 78, 127
2, 332481, Note_off_c, 2, 74, 127
2, 332487, Note_off_c, 6, 78, 127
2, 332488, Note_off_c, 1, 61, 127
2, 332490, Note_on_c, 1, 73, 127
2, 332490, Note_on_c, 7, 79, 127
2, 332490, Note_on_c, 4, 64, 127
2, 332691, Note_off_c, 1, 73, 127
2, 332694, Note_on_c, 12, 71, 127
2, 332895, Note_off_c, 12, 71, 127
2, 332895, Note_off_c, 4, 64, 127
2, 332898, Note_on_c, 11, 70, 127
2, 332898, Note_on_c, 6, 66, 127
2, 333099, Note_off_c, 11, 70, 127
2, 333102, Note_on_c, 12, 71, 127
2, 333298, Note_off_c, 7, 79, 127
2, 333305, Note_off_c, 12, 71, 127
2, 333305, Note_off_c, 6, 66, 127
2, 333307, Note_on_c, 1, 73, 127
2, 333307, Note_on_c, 6, 78, 127
2, 333307, Note_on_c, 11, 58, 127
2, 333508, Note_off_c, 6, 78, 127
2, 333511, Note_on_c, 4, 76, 127
2, 333712, Note_off_c, 4, 76, 127
2, 333712, Note_off_c, 11, 58, 127
2, 333715, Note_on_c, 2, 74, 127
2, 333715, Note_on_c, 12, 59, 127
2, 333916, Note_off_c, 12, 59, 127
2, 333919, Note_on_c, 6, 54, 127
2, 334120, Note_off_c, 6, 54, 127
2, 334125, Note_on_c, 8, 56, 127
2, 334326, Note_off_c, 8, 56, 127
2, 334329, Note_on_c, 11, 58, 127
2, 334530, Note_off_c, 11, 58, 127
2, 334530, Note_off_c, 1, 73, 127
2, 334533, Note_on_c, 12, 71, 127
2, 334533, Note_on_c, 12, 59, 127
2, 334734, Note_off_c, 12, 59, 127
2, 334735, Note_off_c, 2, 74, 127
2, 334736, Note_on_c, 4, 76, 127
2, 334736, Note_on_c, 0, 60, 127
2, 334936, Note_off_c, 12, 71, 127
2, 334937, Note_off_c, 0, 60, 127
2, 334937, Note_off_c, 4, 76, 127
2, 334941, Note_on_c, 10, 69, 127
2, 334941, Note_on_c, 6, 78, 127
2, 334941, Note_on_c, 4, 52, 127
2, 335142, Note_off_c, 4, 52, 127
2, 335144, Note_on_c, 3, 51, 127
2, 335345, Note_off_c, 3, 51, 127
2, 335346, Note_off_c, 10, 69, 127
2, 335349, Note_on_c, 7, 67, 127
2, 335349, Note_on_c, 4, 52, 127
2, 335550, Note_off_c, 7, 67, 127
2, 335552, Note_on_c, 10, 69, 127
2, 335749, Note_off_c, 6, 78, 127
2, 335755, Note_off_c, 10, 69, 127
2, 335756, Note_off_c, 4, 52, 127
2, 335758, Note_on_c, 12, 71, 127
2, 335758, Note_on_c, 4, 76, 127
2, 335758, Note_on_c, 7, 55, 127
2, 335959, Note_off_c, 4, 76, 127
2, 335962, Note_on_c, 2, 74, 127
2, 336163, Note_off_c, 2, 74, 127
2, 336163, Note_off_c, 7, 55, 127
2, 336166, Note_on_c, 1, 73, 127
2, 336166, Note_on_c, 10, 57, 127
2, 336367, Note_off_c, 1, 73, 127
2, 336370, Note_on_c, 2, 74, 127
2, 336566, Note_off_c, 12, 71, 127
2, 336573, Note_off_c, 2, 74, 127
2, 336573, Note_off_c, 10, 57, 127
2, 336575, Note_on_c, 10, 69, 127
2, 336575, Note_on_c, 4, 76, 127
2, 336575, Note_on_c, 1, 61, 127
2, 336776, Note_off_c, 10, 69, 127
2, 336780, Note_on_c, 7, 67, 127
2, 336980, Note_off_c, 1, 61, 127
2, 336981, Note_off_c, 7, 67, 127
2, 336983, Note_on_c, 6, 66, 127
2, 336983, Note_on_c, 2, 62, 127
2, 337184, Note_off_c, 6, 66, 127
2, 337187, Note_on_c, 7, 67, 127
2, 337383, Note_off_c, 4, 76, 127
2, 337390, Note_off_c, 7, 67, 127
2, 337390, Note_off_c, 2, 62, 127
2, 337393, Note_on_c, 2, 74, 127
2, 337393, Note_on_c, 10, 69, 127
2, 337393, Note_on_c, 6, 54, 127
2, 337594, Note_off_c, 2, 74, 127
2, 337597, Note_on_c, 1, 73, 127
2, 337798, Note_off_c, 1, 73, 127
2, 337798, Note_off_c, 6, 54, 127
2, 337801, Note_on_c, 12, 71, 127
2, 337801, Note_on_c, 7, 55, 127
2, 338002, Note_off_c, 12, 71, 127
2, 338004, Note_on_c, 1, 73, 127
2, 338201, Note_off_c, 10, 69, 127
2, 338207, Note_off_c, 1, 73, 127
2, 338208, Note_off_c, 7, 55, 127
2, 338210, Note_on_c, 7, 67, 127
2, 338210, Note_on_c, 2, 74, 127
2, 338210, Note_on_c, 12, 59, 127
2, 338411, Note_off_c, 7, 67, 127
2, 338414, Note_on_c, 6, 66, 127
2, 338615, Note_off_c, 6, 66, 127
2, 338615, Note_off_c, 12, 59, 127
2, 338618, Note_on_c, 4, 64, 127
2, 338618, Note_on_c, 1, 61, 127
2, 338819, Note_off_c, 4, 64, 127
2, 338822, Note_on_c, 6, 66, 127
2, 339018, Note_off_c, 2, 74, 127
2, 339025, Note_off_c, 6, 66, 127
2, 339025, Note_off_c, 1, 61, 127
2, 339028, Note_on_c, 1, 73, 127
2, 339028, Note_on_c, 7, 67, 127
2, 339028, Note_on_c, 4, 52, 127
2, 339229, Note_off_c, 1, 73, 127
2, 339232, Note_on_c, 12, 71, 127
2, 339433, Note_off_c, 12, 71, 127
2, 339433, Note_off_c, 4, 52, 127
2, 339435, Note_on_c, 11, 70, 127
2, 339435, Note_on_c, 6, 54, 127
2, 339636, Note_off_c, 11, 70, 127
2, 339640, Note_on_c, 12, 71, 127
2, 339836, Note_off_c, 7, 67, 127
2, 339842, Note_off_c, 6, 54, 127
2, 339843, Note_off_c, 12, 71, 127
2, 339845, Note_on_c, 1, 73, 127
2, 339845, Note_on_c, 6, 66, 127
2, 339845, Note_on_c, 11, 58, 127
2, 340046, Note_off_c, 6, 66, 127
2, 340049, Note_on_c, 4, 64, 127
2, 340250, Note_off_c, 4, 64, 127
2, 340250, Note_off_c, 11, 58, 127
2, 340252, Note_on_c, 2, 62, 127
2, 340252, Note_on_c, 12, 59, 127
2, 340442, Note_off_c, 1, 73, 127
2, 340460, Note_on_c, 6, 66, 127
2, 340664, Note_off_c, 6, 66, 127
2, 340664, Note_off_c, 12, 59, 127
2, 340668, Note_on_c, 8, 68, 127
2, 340668, Note_on_c, 6, 54, 127
2, 340872, Note_off_c, 8, 68, 127
2, 340875, Note_on_c, 11, 70, 127
2, 341073, Note_off_c, 2, 62, 127
2, 341081, Note_off_c, 11, 70, 127
2, 341082, Note_off_c, 6, 54, 127
2, 341083, Note_on_c, 12, 71, 127
2, 341083, Note_on_c, 2, 50, 127
2, 341293, Note_on_c, 1, 73, 127
2, 341497, Note_off_c, 1, 73, 127
2, 341497, Note_off_c, 2, 50, 127
2, 341500, Note_on_c, 2, 74, 127
2, 341500, Note_on_c, 12, 47, 127
2, 341704, Note_off_c, 2, 74, 127
2, 341708, Note_on_c, 6, 78, 127
2, 341912, Note_off_c, 6, 78, 127
2, 341912, Note_off_c, 12, 47, 127
2, 341914, Note_on_c, 4, 76, 127
2, 341914, Note_on_c, 7, 55, 127
2, 342118, Note_off_c, 4, 76, 127
2, 342122, Note_on_c, 1, 73, 127
2, 342326, Note_off_c, 1, 73, 127
2, 342326, Note_off_c, 7, 55, 127
2, 342326, Note_off_c, 12, 71, 127
2, 342329, Note_on_c, 11, 70, 127
2, 342329, Note_on_c, 2, 74, 127
2, 342329, Note_on_c, 6, 54, 127
2, 342533, Note_off_c, 2, 74, 127
2, 342537, Note_on_c, 6, 78, 127
2, 342739, Note_off_c, 11, 70, 127
2, 342741, Note_off_c, 6, 78, 127
2, 342741, Note_off_c, 6, 54, 127
2, 342744, Note_on_c, 2, 74, 127
2, 342744, Note_on_c, 7, 79, 127
2, 342744, Note_on_c, 12, 59, 127
2, 342948, Note_off_c, 7, 79, 127
2, 342951, Note_on_c, 4, 76, 127
2, 343154, Note_off_c, 2, 74, 127
2, 343155, Note_off_c, 4, 76, 127
2, 343156, Note_off_c, 12, 59, 127
2, 343159, Note_on_c, 6, 78, 127
2, 343159, Note_on_c, 1, 73, 127
2, 343159, Note_on_c, 11, 58, 127
2, 343363, Note_off_c, 6, 78, 127
2, 343366, Note_on_c, 11, 82, 127
2, 343569, Note_off_c, 1, 73, 127
2, 343570, Note_off_c, 11, 82, 127
2, 343571, Note_off_c, 11, 58, 127
2, 343573, Note_on_c, 12, 83, 127
2, 343573, Note_on_c, 6, 78, 127
2, 343573, Note_on_c, 4, 52, 127
2, 343777, Note_off_c, 12, 83, 127
2, 343780, Note_on_c, 10, 81, 127
2, 343983, Note_off_c, 6, 78, 127
2, 343984, Note_off_c, 10, 81, 127
2, 343985, Note_off_c, 4, 52, 127
2, 343988, Note_on_c, 7, 79, 127
2, 343988, Note_on_c, 12, 47, 127
2, 343988, Note_on_c, 3, 51, 127
2, 344192, Note_off_c, 7, 79, 127
2, 344196, Note_on_c, 6, 78, 127
2, 344400, Note_off_c, 6, 78, 127
2, 344400, Note_off_c, 3, 51, 127
2, 344400, Note_off_c, 12, 47, 127
2, 344402, Note_on_c, 4, 76, 127
2, 344402, Note_on_c, 4, 52, 127
2, 344402, Note_on_c, 7, 43, 127
2, 344606, Note_off_c, 4, 76, 127
2, 344610, Note_on_c, 2, 74, 127
2, 344814, Note_off_c, 2, 74, 127
2, 344814, Note_off_c, 7, 43, 127
2, 344817, Note_on_c, 0, 72, 127
2, 344817, Note_on_c, 4, 40, 127
2, 345021, Note_off_c, 0, 72, 127
2, 345025, Note_on_c, 12, 71, 127
2, 345229, Note_off_c, 12, 71, 127
2, 345229, Note_off_c, 4, 40, 127
2, 345231, Note_on_c, 10, 69, 127
2, 345231, Note_on_c, 0, 48, 127
2, 345435, Note_off_c, 10, 69, 127
2, 345439, Note_on_c, 6, 66, 127
2, 345643, Note_off_c, 6, 66, 127
2, 345643, Note_off_c, 0, 48, 127
2, 345646, Note_on_c, 7, 67, 127
2, 345646, Note_on_c, 12, 47, 127
2, 345850, Note_off_c, 7, 67, 127
2, 345853, Note_on_c, 12, 71, 127
2, 346057, Note_off_c, 12, 71, 127
2, 346057, Note_off_c, 4, 52, 127
2, 346058, Note_off_c, 12, 47, 127
2, 346061, Note_on_c, 0, 72, 127
2, 346061, Note_on_c, 6, 54, 127
2, 346061, Note_on_c, 4, 52, 127
2, 346265, Note_off_c, 0, 72, 127
2, 346268, Note_on_c, 10, 69, 127
2, 346472, Note_off_c, 10, 69, 127
2, 346473, Note_off_c, 4, 52, 127
2, 346476, Note_on_c, 12, 71, 127
2, 346476, Note_on_c, 3, 51, 127
2, 346684, Note_on_c, 3, 75, 127
2, 346884, Note_off_c, 6, 54, 127
2, 346890, Note_off_c, 3, 75, 127
2, 346891, Note_off_c, 3, 51, 127
2, 346893, Note_on_c, 4, 76, 127
2, 346893, Note_on_c, 10, 45, 127
2, 346893, Note_on_c, 4, 52, 127
2, 347083, Note_off_c, 12, 71, 127
2, 347101, Note_on_c, 1, 73, 127
2, 347305, Note_off_c, 1, 73, 127
2, 347305, Note_off_c, 10, 45, 127
2, 347308, Note_on_c, 12, 71, 127
2, 347308, Note_on_c, 8, 44, 127
2, 347512, Note_off_c, 12, 71, 127
2, 347516, Note_on_c, 10, 69, 127
2, 347714, Note_off_c, 4, 52, 127
2, 347714, Note_off_c, 4, 76, 127
2, 347722, Note_off_c, 10, 69, 127
2, 347722, Note_off_c, 8, 44, 127
2, 347724, Note_on_c, 2, 74, 127
2, 347724, Note_on_c, 8, 68, 127
2, 347724, Note_on_c, 5, 53, 127
2, 347933, Note_on_c, 12, 59, 127
2, 348136, Note_off_c, 5, 53, 127
2, 348137, Note_off_c, 12, 59, 127
2, 348141, Note_on_c, 1, 61, 127
2, 348141, Note_on_c, 4, 52, 127
2, 348345, Note_off_c, 1, 61, 127
2, 348348, Note_on_c, 2, 62, 127
2, 348551, Note_off_c, 4, 52, 127
2, 348552, Note_off_c, 2, 62, 127
2, 348552, Note_off_c, 8, 68, 127
2, 348552, Note_off_c, 2, 74, 127
2, 348555, Note_on_c, 1, 73, 127
2, 348555, Note_on_c, 12, 47, 127
2, 348555, Note_on_c, 4, 64, 127
2, 348764, Note_on_c, 7, 67, 127
2, 348968, Note_off_c, 7, 67, 127
2, 348969, Note_off_c, 12, 47, 127
2, 348972, Note_on_c, 6, 66, 127
2, 348972, Note_on_c, 11, 46, 127
2, 349161, Note_off_c, 4, 64, 127
2, 349179, Note_on_c, 4, 64, 127
2, 349378, Note_off_c, 1, 73, 127
2, 349384, Note_off_c, 11, 46, 127
2, 349385, Note_off_c, 4, 64, 127
2, 349387, Note_on_c, 12, 71, 127
2, 349387, Note_on_c, 2, 62, 127
2, 349387, Note_on_c, 7, 55, 127
2, 349578, Note_off_c, 6, 66, 127
2, 349591, Note_off_c, 2, 62, 127
2, 349595, Note_on_c, 4, 64, 127
2, 349595, Note_on_c, 1, 61, 127
2, 349797, Note_off_c, 7, 55, 127
2, 349799, Note_off_c, 1, 61, 127
2, 349799, Note_off_c, 4, 64, 127
2, 349802, Note_on_c, 2, 62, 127
2, 349802, Note_on_c, 12, 59, 127
2, 349802, Note_on_c, 6, 54, 127
2, 350006, Note_off_c, 12, 59, 127
2, 350006, Note_off_c, 2, 62, 127
2, 350010, Note_on_c, 4, 64, 127
2, 350010, Note_on_c, 10, 57, 127
2, 350212, Note_off_c, 6, 54, 127
2, 350214, Note_off_c, 10, 57, 127
2, 350214, Note_off_c, 4, 64, 127
2, 350217, Note_on_c, 1, 61, 127
2, 350217, Note_on_c, 8, 56, 127
2, 350217, Note_on_c, 5, 53, 127
2, 350424, Note_off_c, 12, 71, 127
2, 350426, Note_on_c, 11, 70, 127
2, 350630, Note_off_c, 11, 70, 127
2, 350631, Note_off_c, 5, 53, 127
2, 350631, Note_off_c, 8, 56, 127
2, 350633, Note_on_c, 12, 71, 127
2, 350633, Note_on_c, 6, 54, 127
2, 350837, Note_off_c, 12, 71, 127
2, 350841, Note_on_c, 11, 70, 127
2, 351040, Note_off_c, 1, 61, 127
2, 351047, Note_off_c, 11, 70, 127
2, 351050, Note_on_c, 12, 71, 127
2, 351050, Note_on_c, 2, 50, 127
2, 351239, Note_off_c, 6, 54, 127
2, 351257, Note_on_c, 6, 66, 127
2, 351257, Note_on_c, 10, 57, 127
2, 351460, Note_off_c, 2, 50, 127
2, 351461, Note_off_c, 10, 57, 127
2, 351461, Note_off_c, 6, 66, 127
2, 351464, Note_on_c, 4, 64, 127
2, 351464, Note_on_c, 12, 47, 127
2, 351464, Note_on_c, 7, 55, 127
2, 351668, Note_off_c, 7, 55, 127
2, 351668, Note_off_c, 4, 64, 127
2, 351672, Note_on_c, 2, 62, 127
2, 351672, Note_on_c, 6, 54, 127
2, 351874, Note_off_c, 12, 47, 127
2, 351876, Note_off_c, 6, 54, 127
2, 351876, Note_off_c, 2, 62, 127
2, 351878, Note_on_c, 1, 61, 127
2, 351878, Note_on_c, 1, 49, 127
2, 351878, Note_on_c, 4, 52, 127
2, 352090, Note_off_c, 12, 71, 127
2, 352092, Note_on_c, 1, 73, 127
2, 352300, Note_off_c, 1, 73, 127
2, 352301, Note_on_c, 2, 74, 127
2, 352509, Note_off_c, 2, 74, 127
2, 352512, Note_on_c, 4, 76, 127
2, 352720, Note_off_c, 4, 76, 127
2, 352723, Note_on_c, 6, 78, 127
2, 352931, Note_off_c, 6, 78, 127
2, 352934, Note_on_c, 7, 79, 127
2, 353142, Note_off_c, 7, 79, 127
2, 353144, Note_on_c, 12, 71, 127
2, 353352, Note_off_c, 12, 71, 127
2, 353355, Note_on_c, 11, 70, 127
2, 353563, Note_off_c, 11, 70, 127
2, 353563, Note_off_c, 4, 52, 127
2, 353563, Note_off_c, 1, 49, 127
2, 353563, Note_off_c, 1, 61, 127
2, 353566, Note_on_c, 12, 71, 127
2, 353566, Note_on_c, 12, 59, 127
2, 353566, Note_on_c, 2, 50, 127
2, 353566, Note_on_c, 6, 54, 127
2, 353774, Note_off_c, 12, 71, 127
2, 353777, Note_on_c, 2, 74, 127
2, 353985, Note_off_c, 2, 74, 127
2, 353987, Note_on_c, 4, 76, 127
2, 354195, Note_off_c, 4, 76, 127
2, 354198, Note_on_c, 6, 78, 127
2, 354406, Note_off_c, 6, 78, 127
2, 354409, Note_on_c, 7, 79, 127
2, 354617, Note_off_c, 7, 79, 127
2, 354618, Note_off_c, 6, 54, 127
2, 354618, Note_off_c, 2, 50, 127
2, 354618, Note_off_c, 12, 59, 127
2, 354620, Note_on_c, 10, 81, 127
2, 354828, Note_off_c, 10, 81, 127
2, 354830, Note_on_c, 0, 72, 127
2, 354830, Note_on_c, 10, 57, 127
2, 354830, Note_on_c, 3, 51, 127
2, 354830, Note_on_c, 6, 66, 127
2, 355038, Note_off_c, 0, 72, 127
2, 355040, Note_on_c, 12, 71, 127
2, 355248, Note_off_c, 12, 71, 127
2, 355248, Note_off_c, 6, 66, 127
2, 355248, Note_off_c, 3, 51, 127
2, 355248, Note_off_c, 10, 57, 127
2, 355251, Note_on_c, 0, 72, 127
2, 355251, Note_on_c, 4, 64, 127
2, 355251, Note_on_c, 4, 52, 127
2, 355251, Note_on_c, 7, 55, 127
2, 355459, Note_off_c, 0, 72, 127
2, 355462, Note_on_c, 4, 76, 127
2, 355670, Note_off_c, 4, 76, 127
2, 355672, Note_on_c, 6, 78, 127
2, 355880, Note_off_c, 6, 78, 127
2, 355883, Note_on_c, 7, 79, 127
2, 356091, Note_off_c, 7, 79, 127
2, 356094, Note_on_c, 11, 82, 127
2, 356302, Note_off_c, 11, 82, 127
2, 356303, Note_off_c, 7, 55, 127
2, 356303, Note_off_c, 4, 52, 127
2, 356303, Note_off_c, 4, 64, 127
2, 356305, Note_on_c, 12, 83, 127
2, 356513, Note_off_c, 12, 83, 127
2, 356515, Note_on_c, 2, 74, 127
2, 356515, Note_on_c, 5, 53, 127
2, 356515, Note_on_c, 12, 59, 127
2, 356723, Note_off_c, 2, 74, 127
2, 356726, Note_on_c, 1, 73, 127
2, 356933, Note_off_c, 12, 59, 127
2, 356933, Note_off_c, 5, 53, 127
2, 356934, Note_off_c, 1, 73, 127
2, 356937, Note_on_c, 2, 74, 127
2, 356937, Note_on_c, 11, 58, 127
2, 356937, Note_on_c, 6, 54, 127
2, 357150, Note_off_c, 6, 54, 127
2, 357150, Note_off_c, 11, 58, 127
2, 357152, Note_on_c, 6, 54, 127
2, 357368, Note_on_c, 6, 66, 127
2, 357368, Note_on_c, 8, 56, 127
2, 357581, Note_off_c, 8, 56, 127
2, 357583, Note_on_c, 11, 58, 127
2, 357796, Note_off_c, 11, 58, 127
2, 357797, Note_off_c, 6, 66, 127
2, 357800, Note_on_c, 2, 62, 127
2, 357800, Note_on_c, 12, 59, 127
2, 358013, Note_off_c, 12, 59, 127
2, 358016, Note_on_c, 1, 61, 127
2, 358229, Note_off_c, 1, 61, 127
2, 358229, Note_off_c, 2, 62, 127
2, 358231, Note_on_c, 12, 59, 127
2, 358231, Note_on_c, 2, 62, 127
2, 358440, Note_off_c, 12, 59, 127
2, 358443, Note_off_c, 2, 62, 127
2, 358445, Note_on_c, 12, 59, 127
2, 358658, Note_off_c, 2, 74, 127
2, 358660, Note_on_c, 7, 67, 127
2, 358660, Note_on_c, 1, 73, 127
2, 358874, Note_off_c, 12, 59, 127
2, 358877, Note_on_c, 12, 59, 127
2, 359089, Note_off_c, 7, 67, 127
2, 359090, Note_off_c, 12, 59, 127
2, 359093, Note_on_c, 6, 66, 127
2, 359093, Note_on_c, 11, 58, 127
2, 359306, Note_off_c, 11, 58, 127
2, 359308, Note_on_c, 12, 59, 127
2, 359521, Note_off_c, 12, 59, 127
2, 359522, Note_off_c, 6, 66, 127
2, 359524, Note_on_c, 12, 71, 127
2, 359524, Note_on_c, 1, 61, 127
2, 359737, Note_off_c, 1, 61, 127
2, 359739, Note_on_c, 2, 62, 127
2, 359952, Note_off_c, 2, 62, 127
2, 359953, Note_off_c, 12, 71, 127
2, 359956, Note_on_c, 11, 70, 127
2, 359956, Note_on_c, 4, 64, 127
2, 360169, Note_off_c, 4, 64, 127
2, 360171, Note_on_c, 1, 61, 127
2, 360356, Note_off_c, 1, 73, 127
2, 360384, Note_off_c, 1, 61, 127
2, 360385, Note_off_c, 11, 70, 127
2, 360387, Note_on_c, 4, 64, 127
2, 360387, Note_on_c, 6, 66, 127
2, 360387, Note_on_c, 1, 73, 127
2, 360594, Note_off_c, 6, 54, 127
2, 360610, Note_on_c, 11, 46, 127
2, 360830, Note_off_c, 11, 46, 127
2, 360830, Note_off_c, 4, 64, 127
2, 360831, Note_on_c, 3, 63, 127
2, 360831, Note_on_c, 12, 47, 127
2, 361051, Note_off_c, 12, 47, 127
2, 361054, Note_on_c, 1, 49, 127
2, 361248, Note_off_c, 1, 73, 127
2, 361267, Note_off_c, 6, 66, 127
2, 361274, Note_off_c, 1, 49, 127
2, 361274, Note_off_c, 3, 63, 127
2, 361276, Note_on_c, 0, 72, 127
2, 361276, Note_on_c, 3, 51, 127
2, 361510, Note_off_c, 3, 51, 127
2, 361510, Note_off_c, 0, 72, 127
2, 361513, Note_on_c, 11, 70, 127
2, 361513, Note_on_c, 4, 52, 127
2, 361747, Note_off_c, 4, 52, 127
2, 361747, Note_off_c, 11, 70, 127
2, 361748, Note_on_c, 12, 71, 127
2, 361748, Note_on_c, 2, 62, 127
2, 361748, Note_on_c, 8, 68, 127
2, 361748, Note_on_c, 6, 42, 127
2, 361982, Note_off_c, 6, 42, 127
2, 361985, Note_on_c, 5, 41, 127
2, 362217, Note_off_c, 8, 68, 127
2, 362217, Note_off_c, 2, 62, 127
2, 362219, Note_off_c, 5, 41, 127
2, 362221, Note_on_c, 6, 66, 127
2, 362221, Note_on_c, 1, 61, 127
2, 362221, Note_on_c, 6, 42, 127
2, 362467, Note_on_c, 12, 47, 127
2, 362708, Note_off_c, 12, 47, 127
2, 362709, Note_off_c, 6, 66, 127
2, 362713, Note_on_c, 5, 65, 127
2, 362713, Note_on_c, 1, 49, 127
2, 362954, Note_off_c, 1, 49, 127
2, 362959, Note_on_c, 2, 50, 127
2, 363200, Note_off_c, 2, 50, 127
2, 363200, Note_off_c, 12, 71, 127
2, 363201, Note_off_c, 5, 65, 127
2, 363205, Note_on_c, 11, 70, 127
2, 363205, Note_on_c, 6, 66, 127
2, 363205, Note_on_c, 4, 52, 127
2, 363457, Note_off_c, 4, 52, 127
2, 363477, Note_on_c, 1, 49, 127
2, 363729, Note_off_c, 1, 49, 127
2, 363749, Note_on_c, 6, 54, 127
2, 364022, Note_off_c, 6, 66, 127
2, 364057, Note_on_c, 4, 64, 127
2, 364320, Note_off_c, 11, 70, 127
2, 364330, Note_off_c, 6, 42, 127
2, 364330, Note_off_c, 1, 61, 127
2, 364361, Note_off_c, 4, 64, 127
2, 364365, Note_on_c, 12, 59, 127
2, 364365, Note_on_c, 12, 71, 127
2, 364365, Note_on_c, 3, 63, 127
2, 364365, Note_on_c, 12, 47, 127
2, 368384, Note_off_c, 12, 47, 127
2, 368384, Note_off_c, 3, 63, 127
2, 368384, Note_off_c, 12, 71, 127
2, 368384, Note_off_c, 12, 59, 127
2, 368384, Note_off_c, 6, 54, 127
2, 373240, End_track
3, 0, Start_track
3, 0, Title_t, "MIDI"
3, 1536, End_track
0, 0, End_of_file
