0, 0, Header, 1, 3, 384
1, 0, Start_track
1, 0, Tempo, 500000
1, 0, Time_signature, 4, 2, 24, 8
1, 227328, End_track
2, 0, Start_track
2, 0, Text_t, "harpsichord: John Sankey"
2, 0, Program_c, 0, 6
2, 0, Pitch_bend_c, 0, 8192
2, 0, Program_c, 1, 6
2, 0, Pitch_bend_c, 1, 7792
2, 0, Program_c, 2, 6
2, 0, Pitch_bend_c, 2, 7876
2, 0, Program_c, 3, 6
2, 0, Pitch_bend_c, 3, 7952
2, 0, Program_c, 4, 6
2, 0, Pitch_bend_c, 4, 7792
2, 0, Program_c, 5, 6
2, 0, Pitch_bend_c, 5, 8112
2, 0, Program_c, 6, 6
2, 0, Pitch_bend_c, 6, 7712
2, 0, Program_c, 7, 6
2, 0, Pitch_bend_c, 7, 8037
2, 0, Program_c, 8, 6
2, 0, Pitch_bend_c, 8, 7872
2, 0, Program_c, 10, 6
2, 0, Pitch_bend_c, 10, 7712
2, 0, Program_c, 11, 6
2, 0, Pitch_bend_c, 11, 8032
2, 0, Program_c, 12, 6
2, 0, Pitch_bend_c, 12, 7872
2, 0, Title_t, "Track 1"
2, 96, Note_on_c, 10, 69, 127
2, 167, Note_on_c, 8, 68, 127
2, 226, Note_off_c, 10, 69, 127
2, 238, Note_on_c, 10, 69, 127
2, 251, Note_on_c, 10, 57, 127
2, 270, Note_off_c, 8, 68, 127
2, 403, Note_off_c, 10, 57, 127
2, 406, Note_on_c, 8, 56, 127
2, 558, Note_off_c, 8, 56, 127
2, 561, Note_on_c, 6, 54, 127
2, 713, Note_off_c, 6, 54, 127
2, 716, Note_on_c, 4, 52, 127
2, 868, Note_off_c, 4, 52, 127
2, 871, Note_on_c, 2, 50, 127
2, 1023, Note_off_c, 2, 50, 127
2, 1026, Note_on_c, 1, 49, 127
2, 1178, Note_off_c, 1, 49, 127
2, 1181, Note_on_c, 12, 47, 127
2, 1333, Note_off_c, 12, 47, 127
2, 1336, Note_on_c, 10, 45, 127
2, 1336, Note_on_c, 1, 49, 127
2, 1475, Note_off_c, 10, 69, 127
2, 1491, Note_on_c, 10, 81, 127
2, 1643, Note_off_c, 10, 81, 127
2, 1643, Note_off_c, 1, 49, 127
2, 1643, Note_off_c, 10, 45, 127
2, 1646, Note_on_c, 2, 50, 127
2, 1646, Note_on_c, 12, 47, 127
2, 1646, Note_on_c, 8, 80, 127
2, 1798, Note_off_c, 8, 80, 127
2, 1801, Note_on_c, 6, 78, 127
2, 1953, Note_off_c, 6, 78, 127
2, 1953, Note_off_c, 12, 47, 127
2, 1953, Note_off_c, 2, 50, 127
2, 1956, Note_on_c, 1, 49, 127
2, 1956, Note_on_c, 4, 52, 127
2, 1956, Note_on_c, 4, 76, 127
2, 2108, Note_off_c, 4, 76, 127
2, 2111, Note_on_c, 6, 78, 127
2, 2263, Note_off_c, 6, 78, 127
2, 2263, Note_off_c, 4, 52, 127
2, 2266, Note_on_c, 10, 57, 127
2, 2266, Note_on_c, 2, 74, 127
2, 2418, Note_off_c, 2, 74, 127
2, 2421, Note_on_c, 4, 76, 127
2, 2570, Note_off_c, 1, 49, 127
2, 2573, Note_off_c, 4, 76, 127
2, 2576, Note_on_c, 2, 50, 127
2, 2576, Note_on_c, 6, 78, 127
2, 2651, Note_off_c, 6, 78, 127
2, 2654, Note_on_c, 4, 76, 127
2, 2719, Note_off_c, 10, 57, 127
2, 2729, Note_off_c, 4, 76, 127
2, 2732, Note_on_c, 7, 55, 127
2, 2732, Note_on_c, 6, 78, 127
2, 2884, Note_off_c, 7, 55, 127
2, 2887, Note_on_c, 6, 54, 127
2, 2965, Note_off_c, 2, 50, 127
2, 3040, Note_off_c, 6, 54, 127
2, 3043, Note_on_c, 4, 52, 127
2, 3195, Note_off_c, 4, 52, 127
2, 3198, Note_on_c, 2, 50, 127
2, 3350, Note_off_c, 2, 50, 127
2, 3353, Note_on_c, 1, 49, 127
2, 3505, Note_off_c, 1, 49, 127
2, 3508, Note_on_c, 12, 47, 127
2, 3660, Note_off_c, 12, 47, 127
2, 3663, Note_on_c, 10, 45, 127
2, 3815, Note_off_c, 10, 45, 127
2, 3815, Note_off_c, 6, 78, 127
2, 3818, Note_on_c, 8, 44, 127
2, 3974, Note_on_c, 12, 71, 127
2, 4126, Note_off_c, 12, 71, 127
2, 4129, Note_on_c, 4, 52, 127
2, 4129, Note_on_c, 1, 73, 127
2, 4281, Note_off_c, 1, 73, 127
2, 4284, Note_on_c, 2, 74, 127
2, 4436, Note_off_c, 2, 74, 127
2, 4439, Note_on_c, 12, 47, 127
2, 4439, Note_on_c, 4, 76, 127
2, 4591, Note_off_c, 4, 76, 127
2, 4594, Note_on_c, 6, 78, 127
2, 4746, Note_off_c, 6, 78, 127
2, 4749, Note_on_c, 12, 71, 127
2, 4901, Note_off_c, 12, 71, 127
2, 4904, Note_on_c, 2, 74, 127
2, 5053, Note_off_c, 12, 47, 127
2, 5056, Note_off_c, 2, 74, 127
2, 5058, Note_off_c, 4, 52, 127
2, 5058, Note_off_c, 8, 44, 127
2, 5060, Note_on_c, 10, 57, 127
2, 5060, Note_on_c, 10, 45, 127
2, 5060, Note_on_c, 1, 73, 127
2, 5216, Note_on_c, 12, 71, 127
2, 5368, Note_off_c, 12, 71, 127
2, 5371, Note_on_c, 10, 69, 127
2, 5523, Note_off_c, 10, 69, 127
2, 5526, Note_on_c, 8, 68, 127
2, 5678, Note_off_c, 8, 68, 127
2, 5681, Note_on_c, 8, 68, 127
2, 5833, Note_off_c, 10, 45, 127
2, 5833, Note_off_c, 10, 57, 127
2, 5835, Note_off_c, 8, 68, 127
2, 5837, Note_on_c, 8, 56, 127
2, 5989, Note_off_c, 8, 56, 127
2, 5992, Note_on_c, 6, 54, 127
2, 5992, Note_on_c, 10, 69, 127
2, 6144, Note_off_c, 6, 54, 127
2, 6147, Note_on_c, 4, 52, 127
2, 6299, Note_off_c, 4, 52, 127
2, 6302, Note_on_c, 6, 54, 127
2, 6302, Note_on_c, 10, 57, 127
2, 6451, Note_off_c, 1, 73, 127
2, 6457, Note_on_c, 1, 73, 127
2, 6606, Note_off_c, 10, 69, 127
2, 6609, Note_off_c, 1, 73, 127
2, 6609, Note_off_c, 6, 54, 127
2, 6612, Note_on_c, 1, 49, 127
2, 6612, Note_on_c, 2, 74, 127
2, 6764, Note_off_c, 2, 74, 127
2, 6767, Note_on_c, 4, 76, 127
2, 6919, Note_off_c, 4, 76, 127
2, 6919, Note_off_c, 1, 49, 127
2, 6922, Note_on_c, 2, 50, 127
2, 6922, Note_on_c, 2, 74, 127
2, 6998, Note_off_c, 2, 74, 127
2, 7000, Note_on_c, 1, 73, 127
2, 7076, Note_off_c, 1, 73, 127
2, 7078, Note_on_c, 2, 74, 127
2, 7154, Note_off_c, 2, 74, 127
2, 7156, Note_on_c, 1, 73, 127
2, 7231, Note_off_c, 2, 50, 127
2, 7233, Note_off_c, 1, 73, 127
2, 7233, Note_off_c, 10, 57, 127
2, 7235, Note_on_c, 4, 52, 127
2, 7235, Note_on_c, 8, 56, 127
2, 7235, Note_on_c, 12, 71, 127
2, 7389, Note_off_c, 12, 71, 127
2, 7391, Note_on_c, 10, 69, 127
2, 7543, Note_off_c, 8, 56, 127
2, 7543, Note_off_c, 4, 52, 127
2, 7545, Note_off_c, 10, 69, 127
2, 7551, Note_on_c, 10, 57, 127
2, 7552, Note_on_c, 10, 45, 127
2, 7552, Note_on_c, 10, 69, 127
2, 7734, Note_on_c, 4, 64, 127
2, 7772, Note_off_c, 10, 69, 127
2, 7886, Note_off_c, 4, 64, 127
2, 7889, Note_on_c, 6, 66, 127
2, 8041, Note_off_c, 6, 66, 127
2, 8044, Note_on_c, 8, 68, 127
2, 8166, Note_off_c, 10, 45, 127
2, 8196, Note_off_c, 8, 68, 127
2, 8199, Note_on_c, 10, 69, 127
2, 8323, Note_off_c, 10, 57, 127
2, 8370, Note_on_c, 1, 61, 127
2, 8522, Note_off_c, 1, 61, 127
2, 8525, Note_on_c, 12, 59, 127
2, 8639, Note_off_c, 10, 69, 127
2, 8677, Note_off_c, 12, 59, 127
2, 8680, Note_on_c, 10, 57, 127
2, 8832, Note_off_c, 10, 57, 127
2, 8835, Note_on_c, 8, 56, 127
2, 8991, Note_on_c, 12, 71, 127
2, 9143, Note_off_c, 12, 71, 127
2, 9146, Note_on_c, 1, 73, 127
2, 9298, Note_off_c, 1, 73, 127
2, 9301, Note_on_c, 3, 75, 127
2, 9450, Note_off_c, 8, 56, 127
2, 9453, Note_off_c, 3, 75, 127
2, 9456, Note_on_c, 4, 76, 127
2, 9612, Note_on_c, 8, 56, 127
2, 9764, Note_off_c, 8, 56, 127
2, 9767, Note_on_c, 6, 54, 127
2, 9786, Note_off_c, 4, 76, 127
2, 9919, Note_off_c, 6, 54, 127
2, 9922, Note_on_c, 4, 52, 127
2, 10074, Note_off_c, 4, 52, 127
2, 10077, Note_on_c, 3, 51, 127
2, 10233, Note_on_c, 12, 83, 127
2, 10385, Note_off_c, 12, 83, 127
2, 10388, Note_on_c, 10, 81, 127
2, 10388, Note_on_c, 6, 54, 127
2, 10540, Note_off_c, 10, 81, 127
2, 10543, Note_on_c, 8, 80, 127
2, 10695, Note_off_c, 8, 80, 127
2, 10695, Note_off_c, 6, 54, 127
2, 10698, Note_on_c, 6, 78, 127
2, 10698, Note_on_c, 12, 59, 127
2, 10850, Note_off_c, 6, 78, 127
2, 10853, Note_on_c, 4, 76, 127
2, 11005, Note_off_c, 4, 76, 127
2, 11008, Note_on_c, 3, 75, 127
2, 11008, Note_on_c, 6, 54, 127
2, 11160, Note_off_c, 3, 75, 127
2, 11163, Note_on_c, 1, 73, 127
2, 11312, Note_off_c, 12, 59, 127
2, 11315, Note_off_c, 1, 73, 127
2, 11315, Note_off_c, 6, 54, 127
2, 11317, Note_off_c, 3, 51, 127
2, 11319, Note_on_c, 12, 71, 127
2, 11319, Note_on_c, 4, 52, 127
2, 11319, Note_on_c, 8, 56, 127
2, 11471, Note_off_c, 12, 71, 127
2, 11474, Note_on_c, 10, 69, 127
2, 11626, Note_off_c, 10, 69, 127
2, 11626, Note_off_c, 8, 56, 127
2, 11626, Note_off_c, 4, 52, 127
2, 11629, Note_on_c, 8, 68, 127
2, 11629, Note_on_c, 10, 57, 127
2, 11629, Note_on_c, 6, 54, 127
2, 11781, Note_off_c, 8, 68, 127
2, 11784, Note_on_c, 6, 66, 127
2, 11936, Note_off_c, 6, 66, 127
2, 11936, Note_off_c, 6, 54, 127
2, 11936, Note_off_c, 10, 57, 127
2, 11939, Note_on_c, 4, 64, 127
2, 11939, Note_on_c, 12, 59, 127
2, 11939, Note_on_c, 8, 56, 127
2, 12091, Note_off_c, 4, 64, 127
2, 12094, Note_on_c, 12, 71, 127
2, 12246, Note_off_c, 12, 71, 127
2, 12246, Note_off_c, 8, 56, 127
2, 12249, Note_on_c, 1, 73, 127
2, 12249, Note_on_c, 4, 52, 127
2, 12401, Note_off_c, 1, 73, 127
2, 12404, Note_on_c, 2, 74, 127
2, 12553, Note_off_c, 12, 59, 127
2, 12556, Note_off_c, 2, 74, 127
2, 12556, Note_off_c, 4, 52, 127
2, 12559, Note_on_c, 1, 73, 127
2, 12559, Note_on_c, 10, 57, 127
2, 12711, Note_off_c, 10, 57, 127
2, 12714, Note_on_c, 12, 59, 127
2, 12866, Note_off_c, 12, 59, 127
2, 12869, Note_on_c, 10, 57, 127
2, 13021, Note_off_c, 10, 57, 127
2, 13024, Note_on_c, 8, 56, 127
2, 13176, Note_off_c, 8, 56, 127
2, 13179, Note_on_c, 6, 54, 127
2, 13331, Note_off_c, 1, 73, 127
2, 13334, Note_on_c, 1, 73, 127
2, 13486, Note_off_c, 1, 73, 127
2, 13489, Note_on_c, 6, 78, 127
2, 13489, Note_on_c, 11, 58, 127
2, 13641, Note_off_c, 6, 78, 127
2, 13644, Note_on_c, 1, 73, 127
2, 13793, Note_off_c, 6, 54, 127
2, 13796, Note_off_c, 1, 73, 127
2, 13796, Note_off_c, 11, 58, 127
2, 13799, Note_on_c, 3, 75, 127
2, 13799, Note_on_c, 12, 59, 127
2, 13951, Note_off_c, 3, 75, 127
2, 13954, Note_on_c, 3, 75, 127
2, 14106, Note_off_c, 3, 75, 127
2, 14106, Note_off_c, 12, 59, 127
2, 14109, Note_on_c, 8, 80, 127
2, 14109, Note_on_c, 12, 47, 127
2, 14261, Note_off_c, 8, 80, 127
2, 14264, Note_on_c, 3, 75, 127
2, 14416, Note_off_c, 3, 75, 127
2, 14416, Note_off_c, 12, 47, 127
2, 14419, Note_on_c, 4, 76, 127
2, 14419, Note_on_c, 1, 49, 127
2, 14571, Note_off_c, 4, 76, 127
2, 14574, Note_on_c, 4, 76, 127
2, 14726, Note_off_c, 4, 76, 127
2, 14726, Note_off_c, 1, 49, 127
2, 14729, Note_on_c, 10, 81, 127
2, 14729, Note_on_c, 1, 61, 127
2, 14881, Note_off_c, 10, 81, 127
2, 14884, Note_on_c, 4, 76, 127
2, 15036, Note_off_c, 4, 76, 127
2, 15036, Note_off_c, 1, 61, 127
2, 15039, Note_on_c, 6, 78, 127
2, 15039, Note_on_c, 3, 63, 127
2, 15191, Note_off_c, 6, 78, 127
2, 15194, Note_on_c, 6, 78, 127
2, 15346, Note_off_c, 6, 78, 127
2, 15346, Note_off_c, 3, 63, 127
2, 15349, Note_on_c, 12, 83, 127
2, 15349, Note_on_c, 3, 51, 127
2, 15501, Note_off_c, 12, 83, 127
2, 15504, Note_on_c, 6, 78, 127
2, 15656, Note_off_c, 6, 78, 127
2, 15656, Note_off_c, 3, 51, 127
2, 15659, Note_on_c, 8, 80, 127
2, 15659, Note_on_c, 4, 52, 127
2, 15811, Note_off_c, 8, 80, 127
2, 15814, Note_on_c, 12, 71, 127
2, 15966, Note_off_c, 12, 71, 127
2, 15969, Note_on_c, 4, 76, 127
2, 15969, Note_on_c, 8, 56, 127
2, 16121, Note_off_c, 4, 76, 127
2, 16124, Note_on_c, 12, 71, 127
2, 16273, Note_off_c, 4, 52, 127
2, 16276, Note_off_c, 12, 71, 127
2, 16276, Note_off_c, 8, 56, 127
2, 16279, Note_on_c, 1, 73, 127
2, 16279, Note_on_c, 10, 57, 127
2, 16431, Note_off_c, 10, 57, 127
2, 16431, Note_off_c, 1, 73, 127
2, 16434, Note_on_c, 3, 75, 127
2, 16434, Note_on_c, 8, 56, 127
2, 16586, Note_off_c, 8, 56, 127
2, 16586, Note_off_c, 3, 75, 127
2, 16589, Note_on_c, 4, 76, 127
2, 16589, Note_on_c, 6, 54, 127
2, 16741, Note_off_c, 4, 76, 127
2, 16744, Note_on_c, 6, 78, 127
2, 16896, Note_off_c, 6, 78, 127
2, 16896, Note_off_c, 6, 54, 127
2, 16899, Note_on_c, 8, 80, 127
2, 16899, Note_on_c, 4, 76, 127
2, 16899, Note_on_c, 12, 59, 127
2, 17053, Note_off_c, 8, 80, 127
2, 17055, Note_on_c, 6, 78, 127
2, 17130, Note_off_c, 6, 78, 127
2, 17133, Note_on_c, 8, 80, 127
2, 17208, Note_off_c, 8, 80, 127
2, 17208, Note_off_c, 12, 59, 127
2, 17211, Note_on_c, 6, 78, 127
2, 17211, Note_on_c, 12, 47, 127
2, 17286, Note_off_c, 6, 78, 127
2, 17289, Note_on_c, 8, 80, 127
2, 17354, Note_off_c, 4, 76, 127
2, 17365, Note_off_c, 8, 80, 127
2, 17367, Note_on_c, 6, 78, 127
2, 17442, Note_off_c, 6, 78, 127
2, 17445, Note_on_c, 4, 76, 127
2, 17520, Note_off_c, 4, 76, 127
2, 17520, Note_off_c, 12, 47, 127
2, 17523, Note_on_c, 4, 76, 127
2, 17523, Note_on_c, 4, 52, 127
2, 17588, Note_on_c, 3, 75, 127
2, 17598, Note_off_c, 4, 76, 127
2, 17653, Note_on_c, 4, 76, 127
2, 17663, Note_off_c, 3, 75, 127
2, 17676, Note_off_c, 4, 52, 127
2, 17679, Note_on_c, 4, 40, 127
2, 17835, Note_on_c, 8, 44, 127
2, 17987, Note_off_c, 8, 44, 127
2, 17990, Note_on_c, 12, 47, 127
2, 18142, Note_off_c, 12, 47, 127
2, 18145, Note_on_c, 4, 52, 127
2, 18271, Note_off_c, 4, 76, 127
2, 18316, Note_on_c, 1, 73, 127
2, 18468, Note_off_c, 1, 73, 127
2, 18471, Note_on_c, 12, 71, 127
2, 18609, Note_off_c, 4, 40, 127
2, 18623, Note_off_c, 12, 71, 127
2, 18627, Note_on_c, 10, 69, 127
2, 18779, Note_off_c, 10, 69, 127
2, 18782, Note_on_c, 8, 68, 127
2, 18934, Note_off_c, 8, 68, 127
2, 18937, Note_on_c, 6, 66, 127
2, 19073, Note_off_c, 4, 52, 127
2, 19089, Note_off_c, 6, 66, 127
2, 19092, Note_on_c, 6, 54, 127
2, 19092, Note_on_c, 4, 64, 127
2, 19244, Note_off_c, 4, 64, 127
2, 19247, Note_on_c, 3, 63, 127
2, 19399, Note_off_c, 3, 63, 127
2, 19399, Note_off_c, 6, 54, 127
2, 19402, Note_on_c, 4, 52, 127
2, 19402, Note_on_c, 8, 56, 127
2, 19402, Note_on_c, 4, 64, 127
2, 19402, Note_on_c, 12, 59, 127
2, 19563, Note_on_c, 12, 47, 127
2, 19715, Note_off_c, 12, 47, 127
2, 19723, Note_on_c, 4, 40, 127
2, 19856, Note_off_c, 8, 56, 127
2, 19856, Note_off_c, 4, 52, 127
2, 19866, Note_off_c, 12, 59, 127
2, 19866, Note_off_c, 4, 64, 127
2, 19885, Note_on_c, 12, 71, 127
2, 20031, Note_off_c, 4, 40, 127
2, 20037, Note_off_c, 12, 71, 127
2, 20040, Note_on_c, 12, 71, 127
2, 20196, Note_on_c, 4, 40, 127
2, 20352, Note_on_c, 8, 44, 127
2, 20504, Note_off_c, 8, 44, 127
2, 20507, Note_on_c, 12, 47, 127
2, 20659, Note_off_c, 12, 47, 127
2, 20662, Note_on_c, 4, 52, 127
2, 20814, Note_off_c, 12, 71, 127
2, 20817, Note_on_c, 10, 69, 127
2, 20969, Note_off_c, 10, 69, 127
2, 20972, Note_off_c, 4, 40, 127
2, 20972, Note_on_c, 8, 68, 127
2, 20972, Note_on_c, 6, 42, 127
2, 21124, Note_off_c, 8, 68, 127
2, 21127, Note_on_c, 6, 66, 127
2, 21279, Note_off_c, 6, 66, 127
2, 21279, Note_off_c, 6, 42, 127
2, 21282, Note_on_c, 4, 64, 127
2, 21282, Note_on_c, 8, 44, 127
2, 21434, Note_off_c, 4, 64, 127
2, 21437, Note_on_c, 12, 71, 127
2, 21589, Note_off_c, 12, 71, 127
2, 21589, Note_off_c, 8, 44, 127
2, 21592, Note_on_c, 1, 73, 127
2, 21592, Note_on_c, 6, 42, 127
2, 21744, Note_off_c, 1, 73, 127
2, 21747, Note_on_c, 2, 74, 127
2, 21899, Note_off_c, 2, 74, 127
2, 21899, Note_off_c, 6, 42, 127
2, 21902, Note_on_c, 4, 76, 127
2, 21902, Note_on_c, 8, 44, 127
2, 22054, Note_off_c, 4, 76, 127
2, 22057, Note_on_c, 6, 78, 127
2, 22209, Note_off_c, 6, 78, 127
2, 22209, Note_off_c, 8, 44, 127
2, 22212, Note_on_c, 4, 76, 127
2, 22212, Note_on_c, 4, 40, 127
2, 22364, Note_off_c, 4, 76, 127
2, 22367, Note_on_c, 2, 74, 127
2, 22519, Note_off_c, 2, 74, 127
2, 22519, Note_off_c, 4, 40, 127
2, 22519, Note_off_c, 4, 52, 127
2, 22522, Note_on_c, 1, 73, 127
2, 22522, Note_on_c, 10, 69, 127
2, 22678, Note_on_c, 10, 45, 127
2, 22834, Note_on_c, 1, 49, 127
2, 22986, Note_off_c, 1, 49, 127
2, 22989, Note_on_c, 4, 52, 127
2, 23141, Note_off_c, 4, 52, 127
2, 23144, Note_on_c, 10, 57, 127
2, 23296, Note_off_c, 10, 69, 127
2, 23296, Note_off_c, 1, 73, 127
2, 23299, Note_on_c, 12, 71, 127
2, 23451, Note_off_c, 12, 71, 127
2, 23454, Note_off_c, 10, 45, 127
2, 23454, Note_on_c, 10, 69, 127
2, 23606, Note_off_c, 10, 69, 127
2, 23609, Note_on_c, 8, 68, 127
2, 23761, Note_off_c, 8, 68, 127
2, 23764, Note_on_c, 6, 66, 127
2, 23916, Note_off_c, 6, 66, 127
2, 23919, Note_on_c, 1, 73, 127
2, 24024, Note_off_c, 10, 57, 127
2, 24071, Note_off_c, 1, 73, 127
2, 24074, Note_on_c, 2, 74, 127
2, 24074, Note_on_c, 8, 44, 127
2, 24226, Note_off_c, 2, 74, 127
2, 24229, Note_on_c, 4, 76, 127
2, 24381, Note_off_c, 4, 76, 127
2, 24381, Note_off_c, 8, 44, 127
2, 24384, Note_on_c, 6, 78, 127
2, 24384, Note_on_c, 11, 46, 127
2, 24384, Note_on_c, 1, 49, 127
2, 24536, Note_off_c, 6, 78, 127
2, 24539, Note_on_c, 4, 76, 127
2, 24691, Note_off_c, 4, 76, 127
2, 24691, Note_off_c, 11, 46, 127
2, 24694, Note_on_c, 6, 78, 127
2, 24694, Note_on_c, 6, 42, 127
2, 24846, Note_off_c, 6, 78, 127
2, 24849, Note_on_c, 1, 73, 127
2, 24998, Note_off_c, 1, 49, 127
2, 25001, Note_off_c, 1, 73, 127
2, 25001, Note_off_c, 6, 42, 127
2, 25004, Note_on_c, 12, 71, 127
2, 25004, Note_on_c, 3, 75, 127
2, 25160, Note_on_c, 12, 47, 127
2, 25316, Note_on_c, 3, 51, 127
2, 25468, Note_off_c, 3, 51, 127
2, 25471, Note_on_c, 6, 54, 127
2, 25623, Note_off_c, 6, 54, 127
2, 25626, Note_on_c, 12, 59, 127
2, 25778, Note_off_c, 3, 75, 127
2, 25778, Note_off_c, 12, 71, 127
2, 25781, Note_on_c, 1, 73, 127
2, 25933, Note_off_c, 1, 73, 127
2, 25936, Note_on_c, 12, 71, 127
2, 26088, Note_off_c, 12, 71, 127
2, 26091, Note_on_c, 10, 69, 127
2, 26243, Note_off_c, 10, 69, 127
2, 26246, Note_on_c, 8, 68, 127
2, 26398, Note_off_c, 8, 68, 127
2, 26401, Note_on_c, 3, 75, 127
2, 26550, Note_off_c, 12, 47, 127
2, 26553, Note_off_c, 3, 75, 127
2, 26553, Note_off_c, 12, 59, 127
2, 26556, Note_on_c, 4, 76, 127
2, 26556, Note_on_c, 11, 46, 127
2, 26708, Note_off_c, 4, 76, 127
2, 26711, Note_on_c, 6, 78, 127
2, 26863, Note_off_c, 6, 78, 127
2, 26863, Note_off_c, 11, 46, 127
2, 26866, Note_on_c, 8, 80, 127
2, 26866, Note_on_c, 0, 48, 127
2, 26866, Note_on_c, 3, 51, 127
2, 27018, Note_off_c, 8, 80, 127
2, 27021, Note_on_c, 10, 81, 127
2, 27173, Note_off_c, 10, 81, 127
2, 27173, Note_off_c, 0, 48, 127
2, 27176, Note_on_c, 8, 80, 127
2, 27176, Note_on_c, 8, 44, 127
2, 27328, Note_off_c, 8, 80, 127
2, 27331, Note_on_c, 6, 78, 127
2, 27480, Note_off_c, 3, 51, 127
2, 27483, Note_off_c, 6, 78, 127
2, 27483, Note_off_c, 8, 44, 127
2, 27486, Note_on_c, 4, 76, 127
2, 27486, Note_on_c, 1, 49, 127
2, 27642, Note_on_c, 8, 56, 127
2, 27794, Note_off_c, 8, 56, 127
2, 27797, Note_on_c, 10, 57, 127
2, 27949, Note_off_c, 10, 57, 127
2, 27952, Note_on_c, 12, 59, 127
2, 28101, Note_off_c, 1, 49, 127
2, 28104, Note_off_c, 12, 59, 127
2, 28107, Note_on_c, 1, 61, 127
2, 28259, Note_off_c, 4, 76, 127
2, 28262, Note_on_c, 4, 76, 127
2, 28414, Note_off_c, 4, 76, 127
2, 28417, Note_on_c, 6, 78, 127
2, 28417, Note_on_c, 5, 53, 127
2, 28569, Note_off_c, 6, 78, 127
2, 28572, Note_on_c, 8, 80, 127
2, 28724, Note_off_c, 8, 80, 127
2, 28724, Note_off_c, 5, 53, 127
2, 28727, Note_on_c, 10, 81, 127
2, 28727, Note_on_c, 6, 54, 127
2, 28879, Note_off_c, 10, 81, 127
2, 28882, Note_on_c, 0, 72, 127
2, 29034, Note_off_c, 0, 72, 127
2, 29037, Note_on_c, 1, 73, 127
2, 29037, Note_on_c, 10, 57, 127
2, 29189, Note_off_c, 1, 73, 127
2, 29192, Note_on_c, 6, 78, 127
2, 29341, Note_off_c, 6, 54, 127
2, 29344, Note_off_c, 6, 78, 127
2, 29344, Note_off_c, 10, 57, 127
2, 29347, Note_on_c, 4, 76, 127
2, 29347, Note_on_c, 1, 73, 127
2, 29347, Note_on_c, 8, 56, 127
2, 29501, Note_off_c, 4, 76, 127
2, 29503, Note_on_c, 6, 78, 127
2, 29578, Note_off_c, 6, 78, 127
2, 29581, Note_on_c, 4, 76, 127
2, 29656, Note_off_c, 4, 76, 127
2, 29659, Note_off_c, 1, 61, 127
2, 29659, Note_on_c, 6, 78, 127
2, 29659, Note_on_c, 0, 60, 127
2, 29734, Note_off_c, 6, 78, 127
2, 29737, Note_on_c, 4, 76, 127
2, 29802, Note_off_c, 1, 73, 127
2, 29812, Note_off_c, 4, 76, 127
2, 29815, Note_on_c, 3, 75, 127
2, 29891, Note_off_c, 3, 75, 127
2, 29893, Note_on_c, 1, 73, 127
2, 29963, Note_off_c, 1, 73, 127
2, 29964, Note_off_c, 8, 56, 127
2, 29967, Note_off_c, 0, 60, 127
2, 29971, Note_on_c, 1, 73, 127
2, 29971, Note_on_c, 1, 61, 127
2, 30127, Note_on_c, 8, 56, 127
2, 30279, Note_off_c, 8, 56, 127
2, 30282, Note_on_c, 5, 53, 127
2, 30438, Note_on_c, 8, 56, 127
2, 30587, Note_off_c, 1, 61, 127
2, 30590, Note_off_c, 8, 56, 127
2, 30593, Note_on_c, 1, 49, 127
2, 30745, Note_off_c, 1, 73, 127
2, 30764, Note_on_c, 1, 73, 127
2, 30897, Note_off_c, 5, 53, 127
2, 30900, Note_off_c, 1, 49, 127
2, 30903, Note_on_c, 3, 75, 127
2, 30903, Note_on_c, 12, 47, 127
2, 30903, Note_on_c, 8, 56, 127
2, 30916, Note_off_c, 1, 73, 127
2, 31055, Note_off_c, 3, 75, 127
2, 31058, Note_on_c, 5, 77, 127
2, 31210, Note_off_c, 5, 77, 127
2, 31210, Note_off_c, 8, 56, 127
2, 31210, Note_off_c, 12, 47, 127
2, 31213, Note_on_c, 6, 78, 127
2, 31213, Note_on_c, 1, 49, 127
2, 31213, Note_on_c, 6, 54, 127
2, 31213, Note_on_c, 11, 46, 127
2, 31365, Note_off_c, 6, 78, 127
2, 31368, Note_on_c, 1, 73, 127
2, 31520, Note_off_c, 1, 73, 127
2, 31523, Note_on_c, 11, 70, 127
2, 31675, Note_off_c, 11, 70, 127
2, 31678, Note_on_c, 1, 73, 127
2, 31830, Note_off_c, 1, 73, 127
2, 31833, Note_on_c, 6, 66, 127
2, 31985, Note_off_c, 6, 66, 127
2, 31988, Note_on_c, 6, 78, 127
2, 32140, Note_off_c, 6, 78, 127
2, 32140, Note_off_c, 11, 46, 127
2, 32140, Note_off_c, 6, 54, 127
2, 32140, Note_off_c, 1, 49, 127
2, 32143, Note_on_c, 1, 73, 127
2, 32143, Note_on_c, 6, 54, 127
2, 32295, Note_off_c, 1, 73, 127
2, 32298, Note_on_c, 4, 76, 127
2, 32450, Note_off_c, 4, 76, 127
2, 32450, Note_off_c, 6, 54, 127
2, 32453, Note_on_c, 3, 75, 127
2, 32453, Note_on_c, 12, 59, 127
2, 32609, Note_on_c, 6, 54, 127
2, 32761, Note_off_c, 6, 54, 127
2, 32764, Note_on_c, 3, 51, 127
2, 32920, Note_on_c, 6, 54, 127
2, 33069, Note_off_c, 3, 75, 127
2, 33072, Note_off_c, 6, 54, 127
2, 33075, Note_on_c, 12, 47, 127
2, 33231, Note_on_c, 12, 71, 127
2, 33380, Note_off_c, 3, 51, 127
2, 33383, Note_off_c, 12, 71, 127
2, 33383, Note_off_c, 12, 47, 127
2, 33385, Note_off_c, 12, 59, 127
2, 33387, Note_on_c, 1, 73, 127
2, 33387, Note_on_c, 6, 54, 127
2, 33387, Note_on_c, 10, 45, 127
2, 33539, Note_off_c, 1, 73, 127
2, 33542, Note_on_c, 3, 75, 127
2, 33694, Note_off_c, 3, 75, 127
2, 33694, Note_off_c, 10, 45, 127
2, 33694, Note_off_c, 6, 54, 127
2, 33697, Note_on_c, 4, 76, 127
2, 33697, Note_on_c, 4, 52, 127
2, 33697, Note_on_c, 8, 44, 127
2, 33697, Note_on_c, 12, 47, 127
2, 33849, Note_off_c, 4, 76, 127
2, 33852, Note_on_c, 12, 71, 127
2, 34004, Note_off_c, 12, 71, 127
2, 34007, Note_on_c, 8, 68, 127
2, 34159, Note_off_c, 8, 68, 127
2, 34162, Note_on_c, 12, 71, 127
2, 34314, Note_off_c, 12, 71, 127
2, 34317, Note_on_c, 4, 64, 127
2, 34469, Note_off_c, 4, 64, 127
2, 34472, Note_on_c, 4, 76, 127
2, 34624, Note_off_c, 4, 76, 127
2, 34624, Note_off_c, 12, 47, 127
2, 34624, Note_off_c, 8, 44, 127
2, 34624, Note_off_c, 4, 52, 127
2, 34627, Note_on_c, 12, 71, 127
2, 34627, Note_on_c, 4, 52, 127
2, 34779, Note_off_c, 12, 71, 127
2, 34782, Note_on_c, 2, 74, 127
2, 34934, Note_off_c, 2, 74, 127
2, 34934, Note_off_c, 4, 52, 127
2, 34937, Note_on_c, 1, 73, 127
2, 34937, Note_on_c, 10, 45, 127
2, 35093, Note_on_c, 4, 52, 127
2, 35245, Note_off_c, 4, 52, 127
2, 35248, Note_on_c, 4, 52, 127
2, 35400, Note_off_c, 4, 52, 127
2, 35403, Note_on_c, 4, 52, 127
2, 35552, Note_off_c, 10, 45, 127
2, 35552, Note_off_c, 1, 73, 127
2, 35555, Note_off_c, 4, 52, 127
2, 35558, Note_on_c, 10, 57, 127
2, 35710, Note_off_c, 10, 57, 127
2, 35713, Note_on_c, 4, 64, 127
2, 35713, Note_on_c, 7, 55, 127
2, 35865, Note_off_c, 7, 55, 127
2, 35865, Note_off_c, 4, 64, 127
2, 35868, Note_on_c, 4, 64, 127
2, 35868, Note_on_c, 6, 54, 127
2, 36020, Note_off_c, 6, 54, 127
2, 36020, Note_off_c, 4, 64, 127
2, 36023, Note_on_c, 4, 64, 127
2, 36023, Note_on_c, 4, 52, 127
2, 36175, Note_off_c, 4, 52, 127
2, 36175, Note_off_c, 4, 64, 127
2, 36178, Note_on_c, 6, 66, 127
2, 36178, Note_on_c, 2, 50, 127
2, 36330, Note_off_c, 2, 50, 127
2, 36333, Note_on_c, 12, 71, 127
2, 36333, Note_on_c, 6, 54, 127
2, 36438, Note_off_c, 6, 66, 127
2, 36485, Note_off_c, 6, 54, 127
2, 36485, Note_off_c, 12, 71, 127
2, 36488, Note_on_c, 2, 74, 127
2, 36488, Note_on_c, 12, 59, 127
2, 36640, Note_off_c, 12, 59, 127
2, 36640, Note_off_c, 2, 74, 127
2, 36643, Note_on_c, 6, 66, 127
2, 36643, Note_on_c, 2, 50, 127
2, 36795, Note_off_c, 2, 50, 127
2, 36795, Note_off_c, 6, 66, 127
2, 36798, Note_on_c, 8, 68, 127
2, 36798, Note_on_c, 4, 52, 127
2, 36950, Note_off_c, 4, 52, 127
2, 36953, Note_on_c, 1, 73, 127
2, 36953, Note_on_c, 8, 56, 127
2, 37098, Note_off_c, 8, 68, 127
2, 37105, Note_off_c, 8, 56, 127
2, 37105, Note_off_c, 1, 73, 127
2, 37108, Note_on_c, 4, 76, 127
2, 37108, Note_on_c, 1, 61, 127
2, 37260, Note_off_c, 1, 61, 127
2, 37260, Note_off_c, 4, 76, 127
2, 37263, Note_on_c, 8, 68, 127
2, 37263, Note_on_c, 4, 52, 127
2, 37415, Note_off_c, 4, 52, 127
2, 37415, Note_off_c, 8, 68, 127
2, 37418, Note_on_c, 10, 69, 127
2, 37418, Note_on_c, 6, 54, 127
2, 37570, Note_off_c, 6, 54, 127
2, 37573, Note_on_c, 2, 74, 127
2, 37573, Note_on_c, 10, 57, 127
2, 37725, Note_off_c, 10, 57, 127
2, 37725, Note_off_c, 2, 74, 127
2, 37728, Note_on_c, 6, 78, 127
2, 37728, Note_on_c, 2, 62, 127
2, 37748, Note_off_c, 10, 69, 127
2, 37880, Note_off_c, 2, 62, 127
2, 37880, Note_off_c, 6, 78, 127
2, 37883, Note_on_c, 10, 69, 127
2, 37883, Note_on_c, 6, 54, 127
2, 38035, Note_off_c, 6, 54, 127
2, 38035, Note_off_c, 10, 69, 127
2, 38038, Note_on_c, 12, 71, 127
2, 38038, Note_on_c, 8, 56, 127
2, 38190, Note_off_c, 8, 56, 127
2, 38193, Note_on_c, 4, 76, 127
2, 38193, Note_on_c, 12, 59, 127
2, 38345, Note_off_c, 12, 59, 127
2, 38345, Note_off_c, 4, 76, 127
2, 38348, Note_on_c, 8, 80, 127
2, 38348, Note_on_c, 4, 64, 127
2, 38398, Note_off_c, 12, 71, 127
2, 38500, Note_off_c, 4, 64, 127
2, 38500, Note_off_c, 8, 80, 127
2, 38503, Note_on_c, 12, 71, 127
2, 38503, Note_on_c, 8, 56, 127
2, 38655, Note_off_c, 8, 56, 127
2, 38655, Note_off_c, 12, 71, 127
2, 38658, Note_on_c, 1, 73, 127
2, 38658, Note_on_c, 10, 57, 127
2, 38810, Note_off_c, 10, 57, 127
2, 38813, Note_on_c, 6, 78, 127
2, 38813, Note_on_c, 1, 61, 127
2, 38965, Note_off_c, 1, 61, 127
2, 38965, Note_off_c, 6, 78, 127
2, 38968, Note_on_c, 10, 81, 127
2, 38968, Note_on_c, 6, 66, 127
2, 39058, Note_off_c, 1, 73, 127
2, 39120, Note_off_c, 6, 66, 127
2, 39120, Note_off_c, 10, 81, 127
2, 39123, Note_on_c, 1, 73, 127
2, 39123, Note_on_c, 10, 57, 127
2, 39275, Note_off_c, 10, 57, 127
2, 39275, Note_off_c, 1, 73, 127
2, 39278, Note_on_c, 2, 74, 127
2, 39278, Note_on_c, 12, 59, 127
2, 39430, Note_off_c, 12, 59, 127
2, 39433, Note_on_c, 8, 80, 127
2, 39433, Note_on_c, 2, 62, 127
2, 39585, Note_off_c, 2, 62, 127
2, 39585, Note_off_c, 8, 80, 127
2, 39588, Note_on_c, 12, 83, 127
2, 39588, Note_on_c, 8, 68, 127
2, 39738, Note_off_c, 2, 74, 127
2, 39740, Note_off_c, 8, 68, 127
2, 39740, Note_off_c, 12, 83, 127
2, 39743, Note_on_c, 2, 74, 127
2, 39743, Note_on_c, 12, 59, 127
2, 39895, Note_off_c, 12, 59, 127
2, 39895, Note_off_c, 2, 74, 127
2, 39898, Note_on_c, 4, 76, 127
2, 39898, Note_on_c, 1, 61, 127
2, 40050, Note_off_c, 1, 61, 127
2, 40053, Note_on_c, 4, 64, 127
2, 40205, Note_off_c, 4, 64, 127
2, 40208, Note_on_c, 2, 62, 127
2, 40328, Note_off_c, 4, 76, 127
2, 40360, Note_off_c, 2, 62, 127
2, 40363, Note_on_c, 4, 76, 127
2, 40363, Note_on_c, 1, 61, 127
2, 40515, Note_off_c, 1, 61, 127
2, 40515, Note_off_c, 4, 76, 127
2, 40518, Note_on_c, 2, 74, 127
2, 40518, Note_on_c, 12, 59, 127
2, 40670, Note_off_c, 12, 59, 127
2, 40670, Note_off_c, 2, 74, 127
2, 40673, Note_on_c, 1, 73, 127
2, 40673, Note_on_c, 10, 57, 127
2, 40825, Note_off_c, 10, 57, 127
2, 40825, Note_off_c, 1, 73, 127
2, 40828, Note_on_c, 12, 71, 127
2, 40828, Note_on_c, 8, 56, 127
2, 40980, Note_off_c, 8, 56, 127
2, 40980, Note_off_c, 12, 71, 127
2, 40983, Note_on_c, 10, 69, 127
2, 40983, Note_on_c, 6, 54, 127
2, 41135, Note_off_c, 6, 54, 127
2, 41135, Note_off_c, 10, 69, 127
2, 41138, Note_on_c, 8, 68, 127
2, 41138, Note_on_c, 4, 52, 127
2, 41294, Note_on_c, 2, 74, 127
2, 41446, Note_off_c, 2, 74, 127
2, 41446, Note_off_c, 4, 52, 127
2, 41446, Note_off_c, 8, 68, 127
2, 41449, Note_on_c, 1, 73, 127
2, 41449, Note_on_c, 10, 69, 127
2, 41449, Note_on_c, 6, 54, 127
2, 41601, Note_off_c, 6, 54, 127
2, 41601, Note_off_c, 1, 73, 127
2, 41604, Note_on_c, 12, 71, 127
2, 41604, Note_on_c, 2, 50, 127
2, 41756, Note_off_c, 2, 50, 127
2, 41756, Note_off_c, 12, 71, 127
2, 41756, Note_off_c, 10, 69, 127
2, 41759, Note_on_c, 10, 69, 127
2, 41759, Note_on_c, 1, 73, 127
2, 41759, Note_on_c, 4, 52, 127
2, 41913, Note_off_c, 1, 73, 127
2, 41915, Note_on_c, 12, 71, 127
2, 41967, Note_on_c, 1, 73, 127
2, 41973, Note_off_c, 12, 71, 127
2, 42018, Note_on_c, 12, 71, 127
2, 42024, Note_off_c, 1, 73, 127
2, 42066, Note_off_c, 4, 52, 127
2, 42069, Note_on_c, 1, 73, 127
2, 42069, Note_on_c, 4, 40, 127
2, 42075, Note_off_c, 12, 71, 127
2, 42143, Note_off_c, 1, 73, 127
2, 42146, Note_on_c, 12, 71, 127
2, 42211, Note_off_c, 10, 69, 127
2, 42221, Note_off_c, 12, 71, 127
2, 42224, Note_on_c, 10, 69, 127
2, 42376, Note_off_c, 10, 69, 127
2, 42376, Note_off_c, 4, 40, 127
2, 42379, Note_on_c, 10, 69, 127
2, 42535, Note_on_c, 10, 45, 127
2, 42691, Note_on_c, 1, 49, 127
2, 42847, Note_on_c, 4, 52, 127
2, 43003, Note_on_c, 10, 57, 127
2, 43155, Note_off_c, 10, 69, 127
2, 43158, Note_on_c, 10, 81, 127
2, 43310, Note_off_c, 10, 81, 127
2, 43313, Note_on_c, 8, 80, 127
2, 43465, Note_off_c, 8, 80, 127
2, 43468, Note_on_c, 6, 78, 127
2, 43620, Note_off_c, 6, 78, 127
2, 43623, Note_on_c, 4, 76, 127
2, 43775, Note_off_c, 4, 76, 127
2, 43778, Note_on_c, 2, 74, 127
2, 43930, Note_off_c, 2, 74, 127
2, 43933, Note_on_c, 1, 73, 127
2, 44085, Note_off_c, 1, 73, 127
2, 44088, Note_on_c, 12, 71, 127
2, 44240, Note_off_c, 12, 71, 127
2, 44243, Note_on_c, 10, 69, 127
2, 44565, Note_on_c, 4, 64, 127
2, 44865, Note_off_c, 4, 64, 127
2, 44928, Note_on_c, 1, 61, 127
2, 46172, Note_off_c, 1, 61, 127
2, 46253, Note_off_c, 1, 49, 127
2, 46259, Note_off_c, 4, 52, 127
2, 46259, Note_off_c, 10, 45, 127
2, 46264, Note_off_c, 10, 57, 127
2, 46543, Note_off_c, 10, 69, 127
2, 48123, Note_on_c, 10, 57, 127
2, 48123, Note_on_c, 4, 76, 127
2, 48123, Note_on_c, 1, 73, 127
2, 48176, Note_off_c, 4, 76, 127
2, 48180, Note_on_c, 2, 74, 127
2, 48233, Note_off_c, 2, 74, 127
2, 48237, Note_on_c, 4, 76, 127
2, 48795, Note_off_c, 1, 73, 127
2, 48799, Note_off_c, 4, 76, 127
2, 48803, Note_on_c, 2, 74, 127
2, 48803, Note_on_c, 10, 69, 127
2, 48958, Note_off_c, 2, 74, 127
2, 48958, Note_on_c, 1, 73, 127
2, 49025, Note_on_c, 2, 74, 127
2, 49039, Note_off_c, 1, 73, 127
2, 49092, Note_on_c, 1, 73, 127
2, 49106, Note_off_c, 2, 74, 127
2, 49159, Note_on_c, 2, 74, 127
2, 49173, Note_off_c, 1, 73, 127
2, 49226, Note_on_c, 1, 73, 127
2, 49240, Note_off_c, 2, 74, 127
2, 49296, Note_off_c, 10, 69, 127
2, 49307, Note_off_c, 1, 73, 127
2, 49311, Note_on_c, 12, 71, 127
2, 49394, Note_off_c, 12, 71, 127
2, 49477, Note_off_c, 10, 57, 127
2, 49481, Note_on_c, 10, 45, 127
2, 49481, Note_on_c, 4, 52, 127
2, 49481, Note_on_c, 1, 49, 127
2, 49537, Note_on_c, 10, 57, 127
2, 49593, Note_on_c, 1, 61, 127
2, 49649, Note_on_c, 4, 64, 127
2, 49705, Note_on_c, 10, 69, 127
2, 50473, Note_off_c, 10, 69, 127
2, 50475, Note_off_c, 1, 61, 127
2, 50479, Note_off_c, 4, 64, 127
2, 50490, Note_off_c, 10, 57, 127
2, 50495, Note_off_c, 1, 49, 127
2, 50495, Note_off_c, 4, 52, 127
2, 50495, Note_off_c, 10, 45, 127
2, 50666, Note_on_c, 4, 76, 127
2, 50832, Note_off_c, 4, 76, 127
2, 50836, Note_on_c, 2, 50, 127
2, 50836, Note_on_c, 10, 57, 127
2, 50836, Note_on_c, 6, 78, 127
2, 50945, Note_off_c, 6, 78, 127
2, 50949, Note_on_c, 7, 79, 127
2, 51058, Note_off_c, 7, 79, 127
2, 51062, Note_on_c, 6, 78, 127
2, 51171, Note_off_c, 6, 78, 127
2, 51175, Note_on_c, 2, 74, 127
2, 51330, Note_off_c, 10, 57, 127
2, 51330, Note_off_c, 2, 50, 127
2, 51341, Note_off_c, 2, 74, 127
2, 51345, Note_on_c, 6, 78, 127
2, 51511, Note_off_c, 6, 78, 127
2, 51515, Note_on_c, 1, 49, 127
2, 51515, Note_on_c, 10, 57, 127
2, 51515, Note_on_c, 4, 76, 127
2, 51681, Note_off_c, 4, 76, 127
2, 51685, Note_on_c, 1, 73, 127
2, 51851, Note_off_c, 1, 73, 127
2, 51855, Note_on_c, 10, 69, 127
2, 52010, Note_off_c, 10, 57, 127
2, 52010, Note_off_c, 1, 49, 127
2, 52021, Note_off_c, 10, 69, 127
2, 52025, Note_on_c, 4, 76, 127
2, 52191, Note_off_c, 4, 76, 127
2, 52195, Note_on_c, 12, 47, 127
2, 52195, Note_on_c, 10, 57, 127
2, 52195, Note_on_c, 2, 74, 127
2, 52304, Note_off_c, 2, 74, 127
2, 52308, Note_on_c, 4, 76, 127
2, 52417, Note_off_c, 4, 76, 127
2, 52421, Note_on_c, 2, 74, 127
2, 52530, Note_off_c, 2, 74, 127
2, 52530, Note_off_c, 10, 57, 127
2, 52534, Note_on_c, 8, 56, 127
2, 52534, Note_on_c, 12, 71, 127
2, 52689, Note_off_c, 12, 47, 127
2, 52700, Note_off_c, 12, 71, 127
2, 52704, Note_on_c, 2, 74, 127
2, 52870, Note_off_c, 2, 74, 127
2, 52870, Note_off_c, 8, 56, 127
2, 52874, Note_on_c, 10, 45, 127
2, 52874, Note_on_c, 10, 57, 127
2, 52874, Note_on_c, 1, 73, 127
2, 53040, Note_off_c, 1, 73, 127
2, 53044, Note_on_c, 10, 69, 127
2, 53210, Note_off_c, 10, 69, 127
2, 53214, Note_on_c, 4, 64, 127
2, 53369, Note_off_c, 10, 57, 127
2, 53369, Note_off_c, 10, 45, 127
2, 53380, Note_off_c, 4, 64, 127
2, 53384, Note_on_c, 1, 73, 127
2, 53550, Note_off_c, 1, 73, 127
2, 53554, Note_on_c, 8, 56, 127
2, 53554, Note_on_c, 4, 52, 127
2, 53554, Note_on_c, 12, 71, 127
2, 53720, Note_off_c, 12, 71, 127
2, 53724, Note_on_c, 4, 76, 127
2, 53890, Note_off_c, 4, 76, 127
2, 53894, Note_on_c, 8, 80, 127
2, 54003, Note_off_c, 8, 80, 127
2, 54007, Note_on_c, 10, 81, 127
2, 54049, Note_off_c, 4, 52, 127
2, 54049, Note_off_c, 8, 56, 127
2, 54116, Note_off_c, 10, 81, 127
2, 54120, Note_on_c, 8, 80, 127
2, 54229, Note_off_c, 8, 80, 127
2, 54233, Note_on_c, 4, 76, 127
2, 54399, Note_off_c, 4, 76, 127
2, 54403, Note_on_c, 8, 80, 127
2, 54569, Note_off_c, 8, 80, 127
2, 54573, Note_on_c, 4, 52, 127
2, 54573, Note_on_c, 8, 56, 127
2, 54573, Note_on_c, 1, 61, 127
2, 54573, Note_on_c, 12, 83, 127
2, 54739, Note_off_c, 12, 83, 127
2, 54743, Note_on_c, 8, 80, 127
2, 54909, Note_off_c, 8, 80, 127
2, 54909, Note_off_c, 1, 61, 127
2, 54909, Note_off_c, 8, 56, 127
2, 54909, Note_off_c, 4, 52, 127
2, 54913, Note_on_c, 1, 61, 127
2, 54913, Note_on_c, 10, 57, 127
2, 54913, Note_on_c, 6, 54, 127
2, 54913, Note_on_c, 10, 81, 127
2, 55079, Note_off_c, 10, 81, 127
2, 55083, Note_on_c, 6, 78, 127
2, 55249, Note_off_c, 6, 78, 127
2, 55253, Note_on_c, 10, 81, 127
2, 55362, Note_off_c, 10, 81, 127
2, 55366, Note_on_c, 12, 83, 127
2, 55408, Note_off_c, 6, 54, 127
2, 55408, Note_off_c, 10, 57, 127
2, 55408, Note_off_c, 1, 61, 127
2, 55475, Note_off_c, 12, 83, 127
2, 55479, Note_on_c, 10, 81, 127
2, 55588, Note_off_c, 10, 81, 127
2, 55592, Note_on_c, 6, 78, 127
2, 55758, Note_off_c, 6, 78, 127
2, 55762, Note_on_c, 10, 81, 127
2, 55928, Note_off_c, 10, 81, 127
2, 55932, Note_on_c, 3, 51, 127
2, 55932, Note_on_c, 6, 54, 127
2, 55932, Note_on_c, 12, 59, 127
2, 55932, Note_on_c, 12, 83, 127
2, 56098, Note_off_c, 12, 83, 127
2, 56102, Note_on_c, 6, 78, 127
2, 56268, Note_off_c, 6, 78, 127
2, 56268, Note_off_c, 12, 59, 127
2, 56268, Note_off_c, 6, 54, 127
2, 56268, Note_off_c, 3, 51, 127
2, 56272, Note_on_c, 4, 52, 127
2, 56272, Note_on_c, 12, 59, 127
2, 56272, Note_on_c, 8, 80, 127
2, 56438, Note_off_c, 8, 80, 127
2, 56442, Note_on_c, 4, 76, 127
2, 56608, Note_off_c, 4, 76, 127
2, 56612, Note_on_c, 6, 78, 127
2, 56767, Note_off_c, 12, 59, 127
2, 56767, Note_off_c, 4, 52, 127
2, 56778, Note_off_c, 6, 78, 127
2, 56782, Note_on_c, 10, 81, 127
2, 56863, Note_off_c, 10, 81, 127
2, 56867, Note_on_c, 8, 80, 127
2, 56948, Note_off_c, 8, 80, 127
2, 56952, Note_on_c, 10, 45, 127
2, 56952, Note_on_c, 6, 54, 127
2, 56952, Note_on_c, 10, 81, 127
2, 57118, Note_off_c, 10, 81, 127
2, 57122, Note_on_c, 1, 73, 127
2, 57288, Note_off_c, 1, 73, 127
2, 57292, Note_on_c, 3, 75, 127
2, 57363, Note_off_c, 3, 75, 127
2, 57363, Note_on_c, 1, 73, 127
2, 57434, Note_off_c, 1, 73, 127
2, 57434, Note_on_c, 3, 75, 127
2, 57448, Note_off_c, 6, 54, 127
2, 57448, Note_off_c, 10, 45, 127
2, 57504, Note_off_c, 3, 75, 127
2, 57504, Note_on_c, 4, 76, 127
2, 57610, Note_off_c, 4, 76, 127
2, 57631, Note_on_c, 12, 47, 127
2, 57631, Note_on_c, 6, 54, 127
2, 57631, Note_on_c, 3, 75, 127
2, 57797, Note_off_c, 3, 75, 127
2, 57801, Note_on_c, 4, 76, 127
2, 57967, Note_off_c, 4, 76, 127
2, 57967, Note_off_c, 6, 54, 127
2, 57971, Note_on_c, 4, 52, 127
2, 57971, Note_on_c, 6, 78, 127
2, 58024, Note_off_c, 6, 78, 127
2, 58028, Note_on_c, 4, 76, 127
2, 58081, Note_off_c, 4, 76, 127
2, 58085, Note_on_c, 6, 78, 127
2, 58138, Note_off_c, 6, 78, 127
2, 58142, Note_on_c, 4, 76, 127
2, 58195, Note_off_c, 4, 76, 127
2, 58199, Note_on_c, 3, 75, 127
2, 58252, Note_off_c, 3, 75, 127
2, 58256, Note_on_c, 4, 76, 127
2, 58309, Note_off_c, 4, 76, 127
2, 58309, Note_off_c, 4, 52, 127
2, 58313, Note_on_c, 3, 51, 127
2, 58313, Note_on_c, 6, 78, 127
2, 58422, Note_off_c, 6, 78, 127
2, 58426, Note_on_c, 8, 80, 127
2, 58535, Note_off_c, 8, 80, 127
2, 58539, Note_on_c, 6, 78, 127
2, 58648, Note_off_c, 6, 78, 127
2, 58648, Note_off_c, 3, 51, 127
2, 58650, Note_off_c, 12, 47, 127
2, 58652, Note_on_c, 8, 44, 127
2, 58652, Note_on_c, 4, 52, 127
2, 58652, Note_on_c, 12, 71, 127
2, 58818, Note_off_c, 12, 71, 127
2, 58822, Note_on_c, 8, 80, 127
2, 58988, Note_off_c, 8, 80, 127
2, 58988, Note_off_c, 8, 44, 127
2, 58992, Note_on_c, 6, 42, 127
2, 58992, Note_on_c, 10, 81, 127
2, 59101, Note_off_c, 10, 81, 127
2, 59105, Note_on_c, 12, 83, 127
2, 59214, Note_off_c, 12, 83, 127
2, 59218, Note_on_c, 10, 81, 127
2, 59324, Note_off_c, 4, 52, 127
2, 59328, Note_off_c, 10, 81, 127
2, 59328, Note_off_c, 6, 42, 127
2, 59332, Note_on_c, 12, 47, 127
2, 59332, Note_on_c, 3, 51, 127
2, 59332, Note_on_c, 12, 71, 127
2, 59498, Note_off_c, 12, 71, 127
2, 59502, Note_on_c, 10, 81, 127
2, 59668, Note_off_c, 10, 81, 127
2, 59668, Note_off_c, 3, 51, 127
2, 59668, Note_off_c, 12, 47, 127
2, 59672, Note_on_c, 4, 52, 127
2, 59672, Note_on_c, 4, 40, 127
2, 59672, Note_on_c, 8, 80, 127
2, 59781, Note_off_c, 8, 80, 127
2, 59785, Note_on_c, 10, 81, 127
2, 59894, Note_off_c, 10, 81, 127
2, 59898, Note_on_c, 8, 80, 127
2, 60007, Note_off_c, 8, 80, 127
2, 60007, Note_off_c, 4, 40, 127
2, 60007, Note_off_c, 4, 52, 127
2, 60011, Note_on_c, 1, 49, 127
2, 60011, Note_on_c, 10, 69, 127
2, 60177, Note_off_c, 10, 69, 127
2, 60181, Note_on_c, 8, 80, 127
2, 60347, Note_off_c, 8, 80, 127
2, 60347, Note_off_c, 1, 49, 127
2, 60351, Note_on_c, 3, 51, 127
2, 60351, Note_on_c, 6, 78, 127
2, 60460, Note_off_c, 6, 78, 127
2, 60464, Note_on_c, 8, 80, 127
2, 60573, Note_off_c, 8, 80, 127
2, 60577, Note_on_c, 6, 78, 127
2, 60686, Note_off_c, 6, 78, 127
2, 60686, Note_off_c, 3, 51, 127
2, 60690, Note_on_c, 12, 47, 127
2, 60690, Note_on_c, 8, 68, 127
2, 60856, Note_off_c, 8, 68, 127
2, 60860, Note_on_c, 6, 78, 127
2, 61026, Note_off_c, 6, 78, 127
2, 61026, Note_off_c, 12, 47, 127
2, 61030, Note_on_c, 1, 49, 127
2, 61030, Note_on_c, 4, 76, 127
2, 61139, Note_off_c, 4, 76, 127
2, 61143, Note_on_c, 6, 78, 127
2, 61252, Note_off_c, 6, 78, 127
2, 61256, Note_on_c, 4, 76, 127
2, 61365, Note_off_c, 4, 76, 127
2, 61365, Note_off_c, 1, 49, 127
2, 61369, Note_on_c, 10, 45, 127
2, 61369, Note_on_c, 6, 66, 127
2, 61535, Note_off_c, 6, 66, 127
2, 61539, Note_on_c, 4, 76, 127
2, 61705, Note_off_c, 4, 76, 127
2, 61705, Note_off_c, 10, 45, 127
2, 61709, Note_on_c, 12, 47, 127
2, 61709, Note_on_c, 3, 75, 127
2, 61875, Note_off_c, 3, 75, 127
2, 61879, Note_on_c, 10, 81, 127
2, 62045, Note_off_c, 10, 81, 127
2, 62045, Note_off_c, 12, 47, 127
2, 62049, Note_on_c, 1, 49, 127
2, 62049, Note_on_c, 4, 76, 127
2, 62215, Note_off_c, 4, 76, 127
2, 62219, Note_on_c, 8, 80, 127
2, 62385, Note_off_c, 8, 80, 127
2, 62385, Note_off_c, 1, 49, 127
2, 62389, Note_on_c, 10, 45, 127
2, 62389, Note_on_c, 6, 78, 127
2, 62498, Note_off_c, 6, 78, 127
2, 62502, Note_on_c, 8, 80, 127
2, 62611, Note_off_c, 8, 80, 127
2, 62615, Note_on_c, 6, 78, 127
2, 62724, Note_off_c, 6, 78, 127
2, 62724, Note_off_c, 10, 45, 127
2, 62728, Note_on_c, 12, 47, 127
2, 62728, Note_on_c, 12, 71, 127
2, 62894, Note_off_c, 12, 71, 127
2, 62898, Note_on_c, 3, 75, 127
2, 63064, Note_off_c, 3, 75, 127
2, 63064, Note_off_c, 12, 47, 127
2, 63068, Note_on_c, 1, 49, 127
2, 63068, Note_on_c, 4, 76, 127
2, 63121, Note_off_c, 4, 76, 127
2, 63125, Note_on_c, 3, 75, 127
2, 63178, Note_off_c, 3, 75, 127
2, 63182, Note_on_c, 4, 76, 127
2, 63238, Note_on_c, 8, 56, 127
2, 63404, Note_off_c, 8, 56, 127
2, 63408, Note_on_c, 12, 59, 127
2, 63573, Note_off_c, 12, 59, 127
2, 63577, Note_on_c, 8, 56, 127
2, 63743, Note_off_c, 8, 56, 127
2, 63743, Note_off_c, 1, 49, 127
2, 63747, Note_on_c, 1, 49, 127
2, 63747, Note_on_c, 10, 57, 127
2, 63782, Note_off_c, 4, 76, 127
2, 63856, Note_off_c, 10, 57, 127
2, 63860, Note_on_c, 12, 59, 127
2, 63969, Note_off_c, 12, 59, 127
2, 63973, Note_on_c, 10, 57, 127
2, 64082, Note_off_c, 10, 57, 127
2, 64082, Note_off_c, 1, 49, 127
2, 64086, Note_on_c, 3, 51, 127
2, 64086, Note_on_c, 6, 54, 127
2, 64255, Note_on_c, 10, 57, 127
2, 64421, Note_off_c, 10, 57, 127
2, 64421, Note_off_c, 6, 54, 127
2, 64421, Note_off_c, 3, 51, 127
2, 64425, Note_on_c, 12, 47, 127
2, 64425, Note_on_c, 8, 56, 127
2, 64534, Note_off_c, 8, 56, 127
2, 64538, Note_on_c, 10, 57, 127
2, 64647, Note_off_c, 10, 57, 127
2, 64651, Note_on_c, 8, 56, 127
2, 64760, Note_off_c, 8, 56, 127
2, 64760, Note_off_c, 12, 47, 127
2, 64764, Note_on_c, 1, 49, 127
2, 64764, Note_on_c, 4, 52, 127
2, 64933, Note_on_c, 8, 56, 127
2, 65099, Note_off_c, 8, 56, 127
2, 65099, Note_off_c, 4, 52, 127
2, 65099, Note_off_c, 1, 49, 127
2, 65103, Note_on_c, 10, 45, 127
2, 65103, Note_on_c, 6, 54, 127
2, 65269, Note_off_c, 6, 54, 127
2, 65273, Note_on_c, 10, 57, 127
2, 65439, Note_off_c, 10, 57, 127
2, 65443, Note_on_c, 1, 61, 127
2, 65609, Note_off_c, 1, 61, 127
2, 65613, Note_on_c, 6, 54, 127
2, 65779, Note_off_c, 10, 45, 127
2, 65783, Note_on_c, 12, 47, 127
2, 65783, Note_on_c, 3, 51, 127
2, 65949, Note_off_c, 6, 54, 127
2, 65953, Note_on_c, 12, 59, 127
2, 66119, Note_off_c, 12, 59, 127
2, 66119, Note_off_c, 3, 51, 127
2, 66123, Note_on_c, 4, 52, 127
2, 66123, Note_on_c, 8, 56, 127
2, 66232, Note_off_c, 8, 56, 127
2, 66236, Note_on_c, 10, 57, 127
2, 66345, Note_off_c, 10, 57, 127
2, 66349, Note_on_c, 12, 59, 127
2, 66458, Note_off_c, 12, 59, 127
2, 66462, Note_on_c, 8, 56, 127
2, 66797, Note_off_c, 4, 52, 127
2, 66801, Note_on_c, 3, 51, 127
2, 66967, Note_off_c, 8, 56, 127
2, 66971, Note_on_c, 6, 54, 127
2, 67052, Note_off_c, 6, 54, 127
2, 67056, Note_on_c, 4, 52, 127
2, 67137, Note_off_c, 4, 52, 127
2, 67137, Note_off_c, 3, 51, 127
2, 67139, Note_off_c, 12, 47, 127
2, 67141, Note_on_c, 4, 40, 127
2, 67141, Note_on_c, 4, 52, 127
2, 67310, Note_on_c, 4, 64, 127
2, 67476, Note_off_c, 4, 64, 127
2, 67480, Note_on_c, 8, 68, 127
2, 67589, Note_off_c, 8, 68, 127
2, 67593, Note_on_c, 10, 69, 127
2, 67702, Note_off_c, 10, 69, 127
2, 67706, Note_on_c, 12, 71, 127
2, 67815, Note_off_c, 12, 71, 127
2, 67819, Note_on_c, 4, 64, 127
2, 67985, Note_off_c, 4, 64, 127
2, 67989, Note_on_c, 12, 71, 127
2, 68155, Note_off_c, 12, 71, 127
2, 68159, Note_on_c, 4, 76, 127
2, 68325, Note_off_c, 4, 76, 127
2, 68329, Note_on_c, 12, 71, 127
2, 68495, Note_off_c, 12, 71, 127
2, 68495, Note_off_c, 4, 52, 127
2, 68495, Note_off_c, 4, 40, 127
2, 68499, Note_on_c, 4, 40, 127
2, 68499, Note_on_c, 4, 52, 127
2, 68499, Note_on_c, 8, 68, 127
2, 68665, Note_off_c, 8, 68, 127
2, 68669, Note_on_c, 12, 71, 127
2, 68835, Note_off_c, 12, 71, 127
2, 68839, Note_on_c, 4, 76, 127
2, 68948, Note_off_c, 4, 76, 127
2, 68952, Note_on_c, 6, 78, 127
2, 69061, Note_off_c, 6, 78, 127
2, 69065, Note_on_c, 8, 80, 127
2, 69174, Note_off_c, 8, 80, 127
2, 69178, Note_on_c, 12, 71, 127
2, 69344, Note_off_c, 12, 71, 127
2, 69348, Note_on_c, 4, 76, 127
2, 69514, Note_off_c, 4, 76, 127
2, 69518, Note_on_c, 8, 80, 127
2, 69684, Note_off_c, 8, 80, 127
2, 69688, Note_on_c, 4, 76, 127
2, 69854, Note_off_c, 4, 76, 127
2, 69854, Note_off_c, 4, 52, 127
2, 69854, Note_off_c, 4, 40, 127
2, 69858, Note_on_c, 4, 40, 127
2, 69858, Note_on_c, 4, 52, 127
2, 69858, Note_on_c, 12, 71, 127
2, 70024, Note_off_c, 12, 71, 127
2, 70028, Note_on_c, 4, 76, 127
2, 70194, Note_off_c, 4, 76, 127
2, 70198, Note_on_c, 8, 80, 127
2, 70307, Note_off_c, 8, 80, 127
2, 70311, Note_on_c, 10, 81, 127
2, 70420, Note_off_c, 10, 81, 127
2, 70424, Note_on_c, 12, 83, 127
2, 70533, Note_off_c, 12, 83, 127
2, 70537, Note_on_c, 4, 76, 127
2, 70703, Note_off_c, 4, 76, 127
2, 70707, Note_on_c, 8, 80, 127
2, 70873, Note_off_c, 8, 80, 127
2, 70877, Note_on_c, 12, 83, 127
2, 71043, Note_off_c, 12, 83, 127
2, 71047, Note_on_c, 8, 80, 127
2, 71213, Note_off_c, 8, 80, 127
2, 71213, Note_off_c, 4, 52, 127
2, 71213, Note_off_c, 4, 40, 127
2, 71217, Note_on_c, 8, 44, 127
2, 71217, Note_on_c, 4, 40, 127
2, 71217, Note_on_c, 4, 52, 127
2, 71217, Note_on_c, 12, 47, 127
2, 71217, Note_on_c, 4, 76, 127
2, 71270, Note_off_c, 4, 76, 127
2, 71274, Note_on_c, 3, 75, 127
2, 71327, Note_off_c, 3, 75, 127
2, 71331, Note_on_c, 4, 76, 127
2, 72570, Note_off_c, 4, 76, 127
2, 72570, Note_off_c, 12, 47, 127
2, 72570, Note_off_c, 4, 52, 127
2, 72570, Note_off_c, 4, 40, 127
2, 72570, Note_off_c, 8, 44, 127
2, 72574, Note_on_c, 4, 52, 127
2, 72574, Note_on_c, 4, 76, 127
2, 72574, Note_on_c, 10, 81, 127
2, 72645, Note_on_c, 8, 80, 127
2, 72656, Note_off_c, 10, 81, 127
2, 72716, Note_on_c, 10, 81, 127
2, 72727, Note_off_c, 8, 80, 127
2, 72787, Note_on_c, 8, 80, 127
2, 72798, Note_off_c, 10, 81, 127
2, 72858, Note_on_c, 10, 81, 127
2, 72869, Note_off_c, 8, 80, 127
2, 72927, Note_on_c, 8, 80, 127
2, 72939, Note_off_c, 10, 81, 127
2, 73244, Note_off_c, 8, 80, 127
2, 73246, Note_off_c, 4, 76, 127
2, 73253, Note_on_c, 12, 71, 127
2, 73253, Note_on_c, 4, 76, 127
2, 73306, Note_off_c, 4, 76, 127
2, 73310, Note_on_c, 3, 75, 127
2, 73363, Note_off_c, 3, 75, 127
2, 73367, Note_on_c, 4, 76, 127
2, 73748, Note_off_c, 12, 71, 127
2, 73759, Note_off_c, 4, 76, 127
2, 73763, Note_on_c, 12, 71, 127
2, 73929, Note_off_c, 12, 71, 127
2, 73929, Note_off_c, 4, 52, 127
2, 73933, Note_on_c, 8, 44, 127
2, 73933, Note_on_c, 4, 40, 127
2, 73933, Note_on_c, 12, 47, 127
2, 73933, Note_on_c, 4, 52, 127
2, 73933, Note_on_c, 12, 71, 127
2, 73933, Note_on_c, 8, 68, 127
2, 74948, Note_off_c, 12, 47, 127
2, 74948, Note_off_c, 4, 40, 127
2, 74948, Note_off_c, 8, 44, 127
2, 75116, Note_off_c, 8, 68, 127
2, 75116, Note_off_c, 12, 71, 127
2, 75120, Note_on_c, 12, 71, 127
2, 75286, Note_off_c, 12, 71, 127
2, 75286, Note_off_c, 4, 52, 127
2, 75290, Note_on_c, 8, 44, 127
2, 75290, Note_on_c, 4, 52, 127
2, 75290, Note_on_c, 12, 71, 127
2, 75399, Note_off_c, 12, 71, 127
2, 75403, Note_on_c, 1, 73, 127
2, 75512, Note_off_c, 1, 73, 127
2, 75516, Note_on_c, 12, 71, 127
2, 75625, Note_off_c, 12, 71, 127
2, 75629, Note_on_c, 4, 64, 127
2, 75784, Note_off_c, 4, 52, 127
2, 75784, Note_off_c, 8, 44, 127
2, 75795, Note_off_c, 4, 64, 127
2, 75799, Note_on_c, 12, 71, 127
2, 75965, Note_off_c, 12, 71, 127
2, 75969, Note_on_c, 12, 71, 127
2, 76138, Note_on_c, 4, 52, 127
2, 76304, Note_off_c, 4, 52, 127
2, 76308, Note_on_c, 8, 56, 127
2, 76474, Note_off_c, 8, 56, 127
2, 76474, Note_off_c, 12, 71, 127
2, 76478, Note_on_c, 4, 52, 127
2, 76478, Note_on_c, 12, 71, 127
2, 76644, Note_off_c, 12, 71, 127
2, 76644, Note_off_c, 4, 52, 127
2, 76648, Note_on_c, 10, 57, 127
2, 76648, Note_on_c, 1, 73, 127
2, 76757, Note_off_c, 1, 73, 127
2, 76761, Note_on_c, 2, 74, 127
2, 76870, Note_off_c, 2, 74, 127
2, 76874, Note_on_c, 1, 73, 127
2, 76983, Note_off_c, 1, 73, 127
2, 76987, Note_on_c, 10, 45, 127
2, 76987, Note_on_c, 10, 69, 127
2, 77153, Note_off_c, 10, 69, 127
2, 77157, Note_on_c, 1, 73, 127
2, 77319, Note_off_c, 10, 57, 127
2, 77323, Note_off_c, 1, 73, 127
2, 77327, Note_on_c, 4, 76, 127
2, 77493, Note_off_c, 4, 76, 127
2, 77497, Note_on_c, 1, 73, 127
2, 77659, Note_off_c, 10, 45, 127
2, 77663, Note_off_c, 1, 73, 127
2, 77667, Note_on_c, 10, 69, 127
2, 77833, Note_off_c, 10, 69, 127
2, 77837, Note_on_c, 1, 73, 127
2, 78003, Note_off_c, 1, 73, 127
2, 78007, Note_on_c, 6, 54, 127
2, 78007, Note_on_c, 11, 46, 127
2, 78007, Note_on_c, 1, 73, 127
2, 78116, Note_off_c, 1, 73, 127
2, 78120, Note_on_c, 3, 75, 127
2, 78229, Note_off_c, 3, 75, 127
2, 78233, Note_on_c, 1, 73, 127
2, 78342, Note_off_c, 1, 73, 127
2, 78346, Note_on_c, 6, 66, 127
2, 78501, Note_off_c, 11, 46, 127
2, 78501, Note_off_c, 6, 54, 127
2, 78512, Note_off_c, 6, 66, 127
2, 78516, Note_on_c, 1, 73, 127
2, 78682, Note_off_c, 1, 73, 127
2, 78686, Note_on_c, 1, 73, 127
2, 78855, Note_on_c, 6, 54, 127
2, 79021, Note_off_c, 6, 54, 127
2, 79025, Note_on_c, 11, 58, 127
2, 79191, Note_off_c, 11, 58, 127
2, 79191, Note_off_c, 1, 73, 127
2, 79195, Note_on_c, 6, 54, 127
2, 79195, Note_on_c, 1, 73, 127
2, 79361, Note_off_c, 1, 73, 127
2, 79361, Note_off_c, 6, 54, 127
2, 79365, Note_on_c, 12, 59, 127
2, 79365, Note_on_c, 3, 75, 127
2, 79474, Note_off_c, 3, 75, 127
2, 79478, Note_on_c, 4, 76, 127
2, 79587, Note_off_c, 4, 76, 127
2, 79591, Note_on_c, 3, 75, 127
2, 79700, Note_off_c, 3, 75, 127
2, 79704, Note_on_c, 12, 47, 127
2, 79704, Note_on_c, 12, 71, 127
2, 79870, Note_off_c, 12, 71, 127
2, 79874, Note_on_c, 3, 75, 127
2, 80040, Note_off_c, 3, 75, 127
2, 80040, Note_off_c, 12, 59, 127
2, 80044, Note_on_c, 6, 78, 127
2, 80210, Note_off_c, 6, 78, 127
2, 80214, Note_on_c, 3, 75, 127
2, 80380, Note_off_c, 3, 75, 127
2, 80380, Note_off_c, 12, 47, 127
2, 80384, Note_on_c, 12, 71, 127
2, 80550, Note_off_c, 12, 71, 127
2, 80554, Note_on_c, 3, 75, 127
2, 80720, Note_off_c, 3, 75, 127
2, 80724, Note_on_c, 8, 56, 127
2, 80724, Note_on_c, 6, 78, 127
2, 80833, Note_off_c, 6, 78, 127
2, 80837, Note_on_c, 8, 80, 127
2, 80946, Note_off_c, 8, 80, 127
2, 80950, Note_on_c, 6, 78, 127
2, 81059, Note_off_c, 6, 78, 127
2, 81063, Note_on_c, 3, 75, 127
2, 81218, Note_off_c, 8, 56, 127
2, 81229, Note_off_c, 3, 75, 127
2, 81233, Note_on_c, 6, 78, 127
2, 81399, Note_off_c, 6, 78, 127
2, 81403, Note_on_c, 12, 71, 127
2, 81569, Note_off_c, 12, 71, 127
2, 81573, Note_on_c, 5, 77, 127
2, 81739, Note_off_c, 5, 77, 127
2, 81743, Note_on_c, 12, 47, 127
2, 81743, Note_on_c, 8, 56, 127
2, 81743, Note_on_c, 6, 78, 127
2, 81909, Note_off_c, 6, 78, 127
2, 81913, Note_on_c, 8, 80, 127
2, 82079, Note_off_c, 8, 80, 127
2, 82079, Note_off_c, 8, 56, 127
2, 82079, Note_off_c, 12, 47, 127
2, 82083, Note_on_c, 1, 49, 127
2, 82083, Note_on_c, 8, 56, 127
2, 82083, Note_on_c, 5, 77, 127
2, 82192, Note_off_c, 5, 77, 127
2, 82196, Note_on_c, 6, 78, 127
2, 82305, Note_off_c, 6, 78, 127
2, 82309, Note_on_c, 8, 80, 127
2, 82418, Note_off_c, 8, 80, 127
2, 82422, Note_on_c, 1, 73, 127
2, 82577, Note_off_c, 8, 56, 127
2, 82577, Note_off_c, 1, 49, 127
2, 82588, Note_off_c, 1, 73, 127
2, 82592, Note_on_c, 8, 80, 127
2, 82758, Note_off_c, 8, 80, 127
2, 82762, Note_on_c, 8, 80, 127
2, 82931, Note_on_c, 1, 49, 127
2, 83097, Note_off_c, 1, 49, 127
2, 83101, Note_on_c, 5, 53, 127
2, 83267, Note_off_c, 5, 53, 127
2, 83267, Note_off_c, 8, 80, 127
2, 83271, Note_on_c, 1, 49, 127
2, 83271, Note_on_c, 8, 80, 127
2, 83437, Note_off_c, 8, 80, 127
2, 83437, Note_off_c, 1, 49, 127
2, 83441, Note_on_c, 6, 54, 127
2, 83441, Note_on_c, 10, 81, 127
2, 83550, Note_off_c, 10, 81, 127
2, 83554, Note_on_c, 12, 83, 127
2, 83663, Note_off_c, 12, 83, 127
2, 83667, Note_on_c, 10, 81, 127
2, 83776, Note_off_c, 10, 81, 127
2, 83780, Note_on_c, 1, 49, 127
2, 83780, Note_on_c, 8, 80, 127
2, 83946, Note_off_c, 8, 80, 127
2, 83950, Note_on_c, 6, 78, 127
2, 84112, Note_off_c, 6, 54, 127
2, 84116, Note_off_c, 6, 78, 127
2, 84116, Note_off_c, 1, 49, 127
2, 84120, Note_on_c, 12, 59, 127
2, 84120, Note_on_c, 8, 80, 127
2, 84229, Note_off_c, 8, 80, 127
2, 84233, Note_on_c, 10, 81, 127
2, 84342, Note_off_c, 10, 81, 127
2, 84346, Note_on_c, 8, 80, 127
2, 84455, Note_off_c, 8, 80, 127
2, 84459, Note_on_c, 1, 49, 127
2, 84459, Note_on_c, 6, 78, 127
2, 84625, Note_off_c, 6, 78, 127
2, 84629, Note_on_c, 5, 77, 127
2, 84791, Note_off_c, 12, 59, 127
2, 84795, Note_off_c, 5, 77, 127
2, 84795, Note_off_c, 1, 49, 127
2, 84799, Note_on_c, 10, 57, 127
2, 84799, Note_on_c, 6, 78, 127
2, 84908, Note_off_c, 6, 78, 127
2, 84912, Note_on_c, 8, 80, 127
2, 84968, Note_on_c, 1, 49, 127
2, 85021, Note_off_c, 8, 80, 127
2, 85025, Note_on_c, 10, 81, 127
2, 85134, Note_off_c, 10, 81, 127
2, 85134, Note_off_c, 1, 49, 127
2, 85134, Note_off_c, 10, 57, 127
2, 85138, Note_on_c, 8, 56, 127
2, 85138, Note_on_c, 1, 73, 127
2, 85247, Note_off_c, 1, 73, 127
2, 85251, Note_on_c, 3, 75, 127
2, 85307, Note_on_c, 1, 49, 127
2, 85360, Note_off_c, 3, 75, 127
2, 85364, Note_on_c, 5, 77, 127
2, 85473, Note_off_c, 5, 77, 127
2, 85473, Note_off_c, 8, 56, 127
2, 85475, Note_off_c, 1, 49, 127
2, 85477, Note_on_c, 6, 54, 127
2, 85477, Note_on_c, 6, 78, 127
2, 85646, Note_on_c, 1, 49, 127
2, 85812, Note_off_c, 1, 49, 127
2, 85816, Note_on_c, 6, 42, 127
2, 85982, Note_off_c, 6, 78, 127
2, 86002, Note_on_c, 6, 78, 127
2, 86095, Note_off_c, 6, 42, 127
2, 86148, Note_off_c, 6, 54, 127
2, 86168, Note_off_c, 6, 78, 127
2, 86172, Note_on_c, 7, 79, 127
2, 86172, Note_on_c, 2, 50, 127
2, 86172, Note_on_c, 7, 55, 127
2, 86172, Note_on_c, 12, 47, 127
2, 86281, Note_off_c, 7, 79, 127
2, 86285, Note_on_c, 10, 81, 127
2, 86394, Note_off_c, 10, 81, 127
2, 86398, Note_on_c, 7, 79, 127
2, 86507, Note_off_c, 7, 79, 127
2, 86511, Note_on_c, 2, 74, 127
2, 86666, Note_off_c, 12, 47, 127
2, 86666, Note_off_c, 7, 55, 127
2, 86666, Note_off_c, 2, 50, 127
2, 86677, Note_off_c, 2, 74, 127
2, 86681, Note_on_c, 7, 79, 127
2, 86847, Note_off_c, 7, 79, 127
2, 86851, Note_on_c, 12, 83, 127
2, 87017, Note_off_c, 12, 83, 127
2, 87021, Note_on_c, 7, 79, 127
2, 87187, Note_off_c, 7, 79, 127
2, 87191, Note_on_c, 2, 74, 127
2, 87191, Note_on_c, 7, 55, 127
2, 87191, Note_on_c, 2, 50, 127
2, 87191, Note_on_c, 12, 47, 127
2, 87357, Note_off_c, 2, 74, 127
2, 87361, Note_on_c, 12, 83, 127
2, 87527, Note_off_c, 12, 83, 127
2, 87527, Note_off_c, 12, 47, 127
2, 87527, Note_off_c, 2, 50, 127
2, 87527, Note_off_c, 7, 55, 127
2, 87531, Note_on_c, 10, 81, 127
2, 87531, Note_on_c, 4, 52, 127
2, 87531, Note_on_c, 1, 49, 127
2, 87640, Note_off_c, 10, 81, 127
2, 87644, Note_on_c, 12, 83, 127
2, 87753, Note_off_c, 12, 83, 127
2, 87757, Note_on_c, 10, 81, 127
2, 87866, Note_off_c, 10, 81, 127
2, 87866, Note_off_c, 4, 52, 127
2, 87870, Note_on_c, 4, 76, 127
2, 87870, Note_on_c, 10, 57, 127
2, 88036, Note_off_c, 4, 76, 127
2, 88040, Note_on_c, 10, 81, 127
2, 88202, Note_off_c, 1, 49, 127
2, 88206, Note_off_c, 10, 81, 127
2, 88210, Note_on_c, 6, 78, 127
2, 88210, Note_on_c, 2, 50, 127
2, 88376, Note_off_c, 6, 78, 127
2, 88380, Note_on_c, 2, 74, 127
2, 88542, Note_off_c, 10, 57, 127
2, 88546, Note_off_c, 2, 74, 127
2, 88550, Note_on_c, 10, 69, 127
2, 88550, Note_on_c, 6, 54, 127
2, 88716, Note_off_c, 10, 69, 127
2, 88720, Note_on_c, 6, 78, 127
2, 88882, Note_off_c, 2, 50, 127
2, 88886, Note_off_c, 6, 78, 127
2, 88886, Note_off_c, 6, 54, 127
2, 88890, Note_on_c, 6, 78, 127
2, 88890, Note_on_c, 12, 47, 127
2, 88890, Note_on_c, 6, 54, 127
2, 88890, Note_on_c, 2, 50, 127
2, 88999, Note_off_c, 6, 78, 127
2, 89003, Note_on_c, 7, 79, 127
2, 89112, Note_off_c, 7, 79, 127
2, 89116, Note_on_c, 6, 78, 127
2, 89225, Note_off_c, 6, 78, 127
2, 89229, Note_on_c, 2, 74, 127
2, 89384, Note_off_c, 2, 50, 127
2, 89384, Note_off_c, 6, 54, 127
2, 89384, Note_off_c, 12, 47, 127
2, 89395, Note_off_c, 2, 74, 127
2, 89399, Note_on_c, 6, 78, 127
2, 89565, Note_off_c, 6, 78, 127
2, 89569, Note_on_c, 6, 78, 127
2, 89738, Note_on_c, 12, 47, 127
2, 89904, Note_off_c, 12, 47, 127
2, 89908, Note_on_c, 2, 50, 127
2, 90074, Note_off_c, 2, 50, 127
2, 90074, Note_off_c, 6, 78, 127
2, 90078, Note_on_c, 6, 78, 127
2, 90078, Note_on_c, 12, 47, 127
2, 90244, Note_off_c, 12, 47, 127
2, 90244, Note_off_c, 6, 78, 127
2, 90248, Note_on_c, 4, 76, 127
2, 90248, Note_on_c, 8, 44, 127
2, 90357, Note_off_c, 4, 76, 127
2, 90361, Note_on_c, 6, 78, 127
2, 90417, Note_on_c, 12, 47, 127
2, 90470, Note_off_c, 6, 78, 127
2, 90474, Note_on_c, 4, 76, 127
2, 90583, Note_off_c, 4, 76, 127
2, 90583, Note_off_c, 12, 47, 127
2, 90587, Note_on_c, 2, 74, 127
2, 90587, Note_on_c, 4, 52, 127
2, 90696, Note_off_c, 2, 74, 127
2, 90700, Note_on_c, 4, 76, 127
2, 90809, Note_off_c, 4, 76, 127
2, 90813, Note_on_c, 2, 74, 127
2, 90919, Note_off_c, 8, 44, 127
2, 90923, Note_off_c, 2, 74, 127
2, 90927, Note_on_c, 1, 73, 127
2, 90927, Note_on_c, 10, 45, 127
2, 91093, Note_off_c, 1, 73, 127
2, 91097, Note_on_c, 4, 76, 127
2, 91259, Note_off_c, 4, 52, 127
2, 91263, Note_off_c, 4, 76, 127
2, 91263, Note_off_c, 10, 45, 127
2, 91267, Note_on_c, 10, 69, 127
2, 91267, Note_on_c, 1, 49, 127
2, 91433, Note_off_c, 10, 69, 127
2, 91437, Note_on_c, 1, 73, 127
2, 91437, Note_on_c, 4, 52, 127
2, 91603, Note_off_c, 4, 52, 127
2, 91603, Note_off_c, 1, 73, 127
2, 91603, Note_off_c, 1, 49, 127
2, 91607, Note_on_c, 1, 73, 127
2, 91607, Note_on_c, 10, 57, 127
2, 91607, Note_on_c, 10, 45, 127
2, 91716, Note_off_c, 1, 73, 127
2, 91720, Note_on_c, 2, 74, 127
2, 91829, Note_off_c, 2, 74, 127
2, 91833, Note_on_c, 1, 73, 127
2, 91942, Note_off_c, 1, 73, 127
2, 91942, Note_off_c, 10, 45, 127
2, 91946, Note_on_c, 4, 76, 127
2, 91946, Note_on_c, 12, 47, 127
2, 92055, Note_off_c, 4, 76, 127
2, 92059, Note_on_c, 6, 78, 127
2, 92168, Note_off_c, 6, 78, 127
2, 92172, Note_on_c, 4, 76, 127
2, 92281, Note_off_c, 4, 76, 127
2, 92281, Note_off_c, 12, 47, 127
2, 92285, Note_on_c, 10, 69, 127
2, 92285, Note_on_c, 1, 49, 127
2, 92451, Note_off_c, 10, 69, 127
2, 92455, Note_on_c, 4, 64, 127
2, 92621, Note_off_c, 4, 64, 127
2, 92623, Note_off_c, 10, 57, 127
2, 92625, Note_on_c, 10, 69, 127
2, 92625, Note_on_c, 4, 52, 127
2, 92734, Note_off_c, 10, 69, 127
2, 92738, Note_on_c, 12, 71, 127
2, 92847, Note_off_c, 12, 71, 127
2, 92851, Note_on_c, 1, 73, 127
2, 92957, Note_off_c, 1, 49, 127
2, 92961, Note_off_c, 1, 73, 127
2, 92961, Note_off_c, 4, 52, 127
2, 92965, Note_on_c, 12, 71, 127
2, 92965, Note_on_c, 2, 50, 127
2, 92965, Note_on_c, 6, 54, 127
2, 93074, Note_off_c, 12, 71, 127
2, 93078, Note_on_c, 1, 73, 127
2, 93187, Note_off_c, 1, 73, 127
2, 93191, Note_on_c, 12, 71, 127
2, 93300, Note_off_c, 12, 71, 127
2, 93300, Note_off_c, 2, 50, 127
2, 93304, Note_on_c, 6, 66, 127
2, 93304, Note_on_c, 3, 51, 127
2, 93470, Note_off_c, 6, 66, 127
2, 93474, Note_on_c, 10, 69, 127
2, 93636, Note_off_c, 6, 54, 127
2, 93640, Note_off_c, 10, 69, 127
2, 93640, Note_off_c, 3, 51, 127
2, 93644, Note_on_c, 8, 68, 127
2, 93644, Note_on_c, 4, 52, 127
2, 93753, Note_off_c, 8, 68, 127
2, 93757, Note_on_c, 10, 69, 127
2, 93866, Note_off_c, 10, 69, 127
2, 93870, Note_on_c, 12, 71, 127
2, 93979, Note_off_c, 12, 71, 127
2, 93979, Note_off_c, 4, 52, 127
2, 93983, Note_on_c, 4, 64, 127
2, 93983, Note_on_c, 4, 40, 127
2, 94149, Note_off_c, 4, 40, 127
2, 94149, Note_off_c, 4, 64, 127
2, 94162, Note_on_c, 4, 52, 127
2, 94162, Note_on_c, 4, 64, 127
2, 94328, Note_off_c, 4, 64, 127
2, 94328, Note_off_c, 4, 52, 127
2, 94355, Note_on_c, 10, 69, 127
2, 94355, Note_on_c, 1, 49, 127
2, 94464, Note_off_c, 1, 49, 127
2, 94468, Note_on_c, 2, 50, 127
2, 94577, Note_off_c, 2, 50, 127
2, 94581, Note_on_c, 4, 52, 127
2, 94690, Note_off_c, 4, 52, 127
2, 94694, Note_on_c, 10, 45, 127
2, 94860, Note_off_c, 10, 45, 127
2, 94860, Note_off_c, 10, 69, 127
2, 94864, Note_on_c, 10, 69, 127
2, 94864, Note_on_c, 4, 52, 127
2, 95030, Note_off_c, 4, 52, 127
2, 95030, Note_off_c, 10, 69, 127
2, 95034, Note_on_c, 10, 69, 127
2, 95034, Note_on_c, 2, 50, 127
2, 95143, Note_off_c, 2, 50, 127
2, 95147, Note_on_c, 4, 52, 127
2, 95256, Note_off_c, 4, 52, 127
2, 95260, Note_on_c, 6, 54, 127
2, 95369, Note_off_c, 6, 54, 127
2, 95373, Note_on_c, 10, 45, 127
2, 95539, Note_off_c, 10, 45, 127
2, 95539, Note_off_c, 10, 69, 127
2, 95543, Note_on_c, 10, 69, 127
2, 95543, Note_on_c, 2, 50, 127
2, 95709, Note_off_c, 2, 50, 127
2, 95709, Note_off_c, 10, 69, 127
2, 95713, Note_on_c, 1, 73, 127
2, 95713, Note_on_c, 10, 57, 127
2, 95713, Note_on_c, 1, 49, 127
2, 95713, Note_on_c, 4, 52, 127
2, 95822, Note_off_c, 1, 73, 127
2, 95826, Note_on_c, 2, 74, 127
2, 95935, Note_off_c, 2, 74, 127
2, 95939, Note_on_c, 4, 76, 127
2, 96048, Note_off_c, 4, 76, 127
2, 96052, Note_on_c, 4, 76, 127
2, 96161, Note_off_c, 4, 76, 127
2, 96165, Note_on_c, 6, 78, 127
2, 96207, Note_off_c, 4, 52, 127
2, 96207, Note_off_c, 1, 49, 127
2, 96207, Note_off_c, 10, 57, 127
2, 96274, Note_off_c, 6, 78, 127
2, 96278, Note_on_c, 8, 80, 127
2, 96387, Note_off_c, 8, 80, 127
2, 96391, Note_on_c, 10, 81, 127
2, 96500, Note_off_c, 10, 81, 127
2, 96504, Note_on_c, 12, 83, 127
2, 96613, Note_off_c, 12, 83, 127
2, 96617, Note_on_c, 10, 81, 127
2, 96726, Note_off_c, 10, 81, 127
2, 96730, Note_on_c, 10, 69, 127
2, 96730, Note_on_c, 10, 57, 127
2, 96730, Note_on_c, 1, 49, 127
2, 96730, Note_on_c, 4, 52, 127
2, 96896, Note_off_c, 10, 69, 127
2, 96900, Note_on_c, 10, 81, 127
2, 97066, Note_off_c, 10, 81, 127
2, 97066, Note_off_c, 4, 52, 127
2, 97066, Note_off_c, 1, 49, 127
2, 97066, Note_off_c, 10, 57, 127
2, 97070, Note_on_c, 10, 81, 127
2, 97070, Note_on_c, 10, 57, 127
2, 97070, Note_on_c, 2, 50, 127
2, 97070, Note_on_c, 6, 54, 127
2, 97179, Note_off_c, 10, 81, 127
2, 97183, Note_on_c, 12, 83, 127
2, 97292, Note_off_c, 12, 83, 127
2, 97296, Note_on_c, 10, 81, 127
2, 97405, Note_off_c, 10, 81, 127
2, 97409, Note_on_c, 6, 78, 127
2, 97518, Note_off_c, 6, 78, 127
2, 97522, Note_on_c, 8, 80, 127
2, 97564, Note_off_c, 6, 54, 127
2, 97564, Note_off_c, 2, 50, 127
2, 97564, Note_off_c, 10, 57, 127
2, 97631, Note_off_c, 8, 80, 127
2, 97635, Note_on_c, 6, 78, 127
2, 97744, Note_off_c, 6, 78, 127
2, 97748, Note_on_c, 2, 74, 127
2, 97857, Note_off_c, 2, 74, 127
2, 97861, Note_on_c, 4, 76, 127
2, 97970, Note_off_c, 4, 76, 127
2, 97974, Note_on_c, 2, 74, 127
2, 98083, Note_off_c, 2, 74, 127
2, 98087, Note_on_c, 10, 69, 127
2, 98087, Note_on_c, 10, 57, 127
2, 98087, Note_on_c, 6, 54, 127
2, 98087, Note_on_c, 2, 50, 127
2, 98253, Note_off_c, 10, 69, 127
2, 98257, Note_on_c, 10, 81, 127
2, 98423, Note_off_c, 10, 81, 127
2, 98423, Note_off_c, 2, 50, 127
2, 98423, Note_off_c, 6, 54, 127
2, 98423, Note_off_c, 10, 57, 127
2, 98427, Note_on_c, 6, 78, 127
2, 98427, Note_on_c, 12, 59, 127
2, 98427, Note_on_c, 6, 54, 127
2, 98427, Note_on_c, 3, 51, 127
2, 98536, Note_off_c, 6, 78, 127
2, 98540, Note_on_c, 8, 80, 127
2, 98649, Note_off_c, 8, 80, 127
2, 98653, Note_on_c, 10, 81, 127
2, 98762, Note_off_c, 10, 81, 127
2, 98766, Note_on_c, 12, 71, 127
2, 98921, Note_off_c, 3, 51, 127
2, 98921, Note_off_c, 6, 54, 127
2, 98921, Note_off_c, 12, 59, 127
2, 98932, Note_off_c, 12, 71, 127
2, 98936, Note_on_c, 10, 81, 127
2, 99102, Note_off_c, 10, 81, 127
2, 99106, Note_on_c, 8, 80, 127
2, 99106, Note_on_c, 12, 59, 127
2, 99106, Note_on_c, 4, 52, 127
2, 99328, Note_off_c, 8, 80, 127
2, 99332, Note_on_c, 6, 78, 127
2, 99441, Note_off_c, 6, 78, 127
2, 99445, Note_on_c, 4, 76, 127
2, 99656, Note_off_c, 4, 52, 127
2, 99656, Note_off_c, 12, 59, 127
2, 99798, Note_off_c, 4, 76, 127
2, 99816, Note_on_c, 4, 76, 127
2, 99816, Note_on_c, 1, 61, 127
2, 99816, Note_on_c, 10, 57, 127
2, 99873, Note_on_c, 2, 74, 127
2, 99879, Note_off_c, 4, 76, 127
2, 99926, Note_off_c, 2, 74, 127
2, 99930, Note_on_c, 4, 76, 127
2, 100152, Note_off_c, 4, 76, 127
2, 100152, Note_off_c, 10, 57, 127
2, 100152, Note_off_c, 1, 61, 127
2, 100156, Note_on_c, 4, 76, 127
2, 100156, Note_on_c, 8, 56, 127
2, 100156, Note_on_c, 12, 59, 127
2, 100265, Note_off_c, 4, 76, 127
2, 100269, Note_on_c, 6, 78, 127
2, 100378, Note_off_c, 6, 78, 127
2, 100382, Note_on_c, 4, 76, 127
2, 100491, Note_off_c, 4, 76, 127
2, 100491, Note_off_c, 12, 59, 127
2, 100491, Note_off_c, 8, 56, 127
2, 100495, Note_on_c, 1, 73, 127
2, 100495, Note_on_c, 10, 57, 127
2, 100717, Note_off_c, 1, 73, 127
2, 100721, Note_on_c, 12, 71, 127
2, 100830, Note_off_c, 12, 71, 127
2, 100830, Note_off_c, 10, 57, 127
2, 100834, Note_on_c, 10, 69, 127
2, 100834, Note_on_c, 6, 54, 127
2, 101000, Note_off_c, 6, 54, 127
2, 101000, Note_off_c, 10, 69, 127
2, 101004, Note_on_c, 12, 71, 127
2, 101004, Note_on_c, 3, 51, 127
2, 101170, Note_off_c, 3, 51, 127
2, 101170, Note_off_c, 12, 71, 127
2, 101174, Note_on_c, 8, 68, 127
2, 101174, Note_on_c, 4, 52, 127
2, 101283, Note_off_c, 8, 68, 127
2, 101287, Note_on_c, 10, 69, 127
2, 101396, Note_off_c, 10, 69, 127
2, 101400, Note_on_c, 12, 71, 127
2, 101509, Note_off_c, 12, 71, 127
2, 101509, Note_off_c, 4, 52, 127
2, 101513, Note_on_c, 4, 64, 127
2, 101513, Note_on_c, 4, 40, 127
2, 101622, Note_off_c, 4, 64, 127
2, 101626, Note_on_c, 6, 66, 127
2, 101735, Note_off_c, 6, 66, 127
2, 101739, Note_on_c, 8, 68, 127
2, 101848, Note_off_c, 8, 68, 127
2, 101848, Note_off_c, 4, 40, 127
2, 101870, Note_on_c, 10, 69, 127
2, 102037, Note_on_c, 10, 45, 127
2, 102203, Note_off_c, 10, 45, 127
2, 102207, Note_on_c, 1, 49, 127
2, 102373, Note_off_c, 1, 49, 127
2, 102377, Note_on_c, 4, 52, 127
2, 102543, Note_off_c, 4, 52, 127
2, 102545, Note_off_c, 10, 69, 127
2, 102563, Note_on_c, 4, 76, 127
2, 102563, Note_on_c, 10, 57, 127
2, 102729, Note_off_c, 10, 57, 127
2, 102733, Note_on_c, 10, 45, 127
2, 102899, Note_off_c, 10, 45, 127
2, 102903, Note_on_c, 8, 44, 127
2, 103069, Note_off_c, 8, 44, 127
2, 103069, Note_off_c, 4, 76, 127
2, 103073, Note_on_c, 4, 76, 127
2, 103073, Note_on_c, 8, 56, 127
2, 103239, Note_off_c, 8, 56, 127
2, 103239, Note_off_c, 4, 76, 127
2, 103243, Note_on_c, 4, 76, 127
2, 103243, Note_on_c, 10, 57, 127
2, 103409, Note_off_c, 10, 57, 127
2, 103413, Note_on_c, 10, 45, 127
2, 103579, Note_off_c, 10, 45, 127
2, 103583, Note_on_c, 8, 44, 127
2, 103749, Note_off_c, 8, 44, 127
2, 103749, Note_off_c, 4, 76, 127
2, 103753, Note_on_c, 4, 76, 127
2, 103753, Note_on_c, 8, 56, 127
2, 103919, Note_off_c, 8, 56, 127
2, 103919, Note_off_c, 4, 76, 127
2, 103923, Note_on_c, 4, 76, 127
2, 103923, Note_on_c, 10, 57, 127
2, 104089, Note_off_c, 10, 57, 127
2, 104093, Note_on_c, 10, 45, 127
2, 104259, Note_off_c, 10, 45, 127
2, 104263, Note_on_c, 4, 64, 127
2, 104263, Note_on_c, 8, 44, 127
2, 104373, Note_off_c, 4, 76, 127
2, 104429, Note_off_c, 8, 44, 127
2, 104429, Note_off_c, 4, 64, 127
2, 104433, Note_on_c, 4, 76, 127
2, 104433, Note_on_c, 8, 56, 127
2, 104599, Note_off_c, 8, 56, 127
2, 104599, Note_off_c, 4, 76, 127
2, 104603, Note_on_c, 4, 76, 127
2, 104603, Note_on_c, 10, 57, 127
2, 104769, Note_off_c, 10, 57, 127
2, 104773, Note_on_c, 4, 64, 127
2, 104773, Note_on_c, 10, 45, 127
2, 104939, Note_off_c, 10, 45, 127
2, 104939, Note_off_c, 4, 64, 127
2, 104943, Note_on_c, 4, 64, 127
2, 104943, Note_on_c, 8, 44, 127
2, 105109, Note_off_c, 8, 44, 127
2, 105113, Note_on_c, 8, 56, 127
2, 105269, Note_off_c, 4, 76, 127
2, 105279, Note_off_c, 8, 56, 127
2, 105279, Note_off_c, 4, 64, 127
2, 105283, Note_on_c, 4, 76, 127
2, 105283, Note_on_c, 1, 61, 127
2, 105283, Note_on_c, 10, 57, 127
2, 105618, Note_off_c, 10, 57, 127
2, 105618, Note_off_c, 1, 61, 127
2, 105618, Note_off_c, 4, 76, 127
2, 105622, Note_on_c, 4, 76, 127
2, 105622, Note_on_c, 8, 56, 127
2, 105622, Note_on_c, 12, 59, 127
2, 105731, Note_off_c, 4, 76, 127
2, 105735, Note_on_c, 6, 78, 127
2, 105844, Note_off_c, 6, 78, 127
2, 105848, Note_on_c, 4, 76, 127
2, 105957, Note_off_c, 4, 76, 127
2, 105957, Note_off_c, 12, 59, 127
2, 105957, Note_off_c, 8, 56, 127
2, 105961, Note_on_c, 1, 73, 127
2, 105961, Note_on_c, 10, 57, 127
2, 106130, Note_on_c, 8, 56, 127
2, 106183, Note_off_c, 1, 73, 127
2, 106187, Note_on_c, 12, 71, 127
2, 106296, Note_off_c, 12, 71, 127
2, 106296, Note_off_c, 8, 56, 127
2, 106300, Note_on_c, 10, 69, 127
2, 106300, Note_on_c, 6, 54, 127
2, 106466, Note_off_c, 6, 54, 127
2, 106466, Note_off_c, 10, 69, 127
2, 106470, Note_on_c, 12, 71, 127
2, 106470, Note_on_c, 2, 50, 127
2, 106632, Note_off_c, 10, 57, 127
2, 106636, Note_off_c, 2, 50, 127
2, 106636, Note_off_c, 12, 71, 127
2, 106640, Note_on_c, 8, 68, 127
2, 106640, Note_on_c, 4, 52, 127
2, 106749, Note_off_c, 8, 68, 127
2, 106753, Note_on_c, 10, 69, 127
2, 106862, Note_off_c, 10, 69, 127
2, 106866, Note_on_c, 12, 71, 127
2, 106975, Note_off_c, 12, 71, 127
2, 106979, Note_on_c, 4, 64, 127
2, 106979, Note_on_c, 4, 40, 127
2, 107088, Note_off_c, 4, 64, 127
2, 107092, Note_on_c, 6, 66, 127
2, 107201, Note_off_c, 6, 66, 127
2, 107205, Note_on_c, 8, 68, 127
2, 107311, Note_off_c, 4, 52, 127
2, 107315, Note_off_c, 8, 68, 127
2, 107315, Note_off_c, 4, 40, 127
2, 107319, Note_on_c, 10, 69, 127
2, 107319, Note_on_c, 10, 45, 127
2, 107485, Note_off_c, 10, 45, 127
2, 107499, Note_on_c, 12, 47, 127
2, 107665, Note_off_c, 12, 47, 127
2, 107675, Note_on_c, 1, 49, 127
2, 107825, Note_off_c, 10, 69, 127
2, 107841, Note_off_c, 1, 49, 127
2, 107845, Note_on_c, 10, 45, 127
2, 107845, Note_on_c, 10, 57, 127
2, 108011, Note_off_c, 10, 57, 127
2, 108011, Note_off_c, 10, 45, 127
2, 108015, Note_on_c, 2, 50, 127
2, 108015, Note_on_c, 6, 54, 127
2, 108015, Note_on_c, 10, 57, 127
2, 108124, Note_off_c, 10, 57, 127
2, 108128, Note_on_c, 12, 59, 127
2, 108237, Note_off_c, 12, 59, 127
2, 108241, Note_on_c, 10, 57, 127
2, 108350, Note_off_c, 10, 57, 127
2, 108354, Note_on_c, 10, 57, 127
2, 108520, Note_off_c, 10, 57, 127
2, 108520, Note_off_c, 6, 54, 127
2, 108520, Note_off_c, 2, 50, 127
2, 108524, Note_on_c, 2, 50, 127
2, 108524, Note_on_c, 10, 57, 127
2, 108690, Note_off_c, 10, 57, 127
2, 108690, Note_off_c, 2, 50, 127
2, 108694, Note_on_c, 1, 49, 127
2, 108694, Note_on_c, 10, 57, 127
2, 108803, Note_off_c, 1, 49, 127
2, 108807, Note_on_c, 2, 50, 127
2, 108916, Note_off_c, 2, 50, 127
2, 108920, Note_on_c, 4, 52, 127
2, 109029, Note_off_c, 4, 52, 127
2, 109033, Note_on_c, 1, 49, 127
2, 109199, Note_off_c, 1, 49, 127
2, 109199, Note_off_c, 10, 57, 127
2, 109203, Note_on_c, 4, 52, 127
2, 109203, Note_on_c, 10, 57, 127
2, 109369, Note_off_c, 10, 57, 127
2, 109369, Note_off_c, 4, 52, 127
2, 109373, Note_on_c, 2, 50, 127
2, 109373, Note_on_c, 10, 57, 127
2, 109482, Note_off_c, 2, 50, 127
2, 109486, Note_on_c, 4, 52, 127
2, 109595, Note_off_c, 4, 52, 127
2, 109599, Note_on_c, 6, 54, 127
2, 109708, Note_off_c, 6, 54, 127
2, 109712, Note_on_c, 10, 45, 127
2, 109878, Note_off_c, 10, 45, 127
2, 109878, Note_off_c, 10, 57, 127
2, 109882, Note_on_c, 2, 50, 127
2, 109882, Note_on_c, 10, 57, 127
2, 110048, Note_off_c, 10, 57, 127
2, 110048, Note_off_c, 2, 50, 127
2, 110052, Note_on_c, 1, 49, 127
2, 110052, Note_on_c, 10, 57, 127
2, 110161, Note_off_c, 1, 49, 127
2, 110165, Note_on_c, 2, 50, 127
2, 110274, Note_off_c, 2, 50, 127
2, 110278, Note_on_c, 4, 52, 127
2, 110387, Note_off_c, 4, 52, 127
2, 110391, Note_on_c, 10, 45, 127
2, 110557, Note_off_c, 10, 45, 127
2, 110557, Note_off_c, 10, 57, 127
2, 110561, Note_on_c, 1, 49, 127
2, 110561, Note_on_c, 10, 81, 127
2, 110727, Note_off_c, 10, 81, 127
2, 110727, Note_off_c, 1, 49, 127
2, 110731, Note_on_c, 2, 50, 127
2, 110731, Note_on_c, 6, 78, 127
2, 110840, Note_off_c, 6, 78, 127
2, 110844, Note_on_c, 8, 80, 127
2, 110953, Note_off_c, 8, 80, 127
2, 110957, Note_on_c, 10, 81, 127
2, 111066, Note_off_c, 10, 81, 127
2, 111070, Note_on_c, 2, 74, 127
2, 111236, Note_off_c, 2, 74, 127
2, 111236, Note_off_c, 2, 50, 127
2, 111240, Note_on_c, 2, 50, 127
2, 111240, Note_on_c, 6, 78, 127
2, 111406, Note_off_c, 6, 78, 127
2, 111406, Note_off_c, 2, 50, 127
2, 111410, Note_on_c, 8, 44, 127
2, 111410, Note_on_c, 12, 47, 127
2, 111410, Note_on_c, 4, 52, 127
2, 111410, Note_on_c, 4, 76, 127
2, 111519, Note_off_c, 4, 76, 127
2, 111523, Note_on_c, 6, 78, 127
2, 111632, Note_off_c, 6, 78, 127
2, 111636, Note_on_c, 8, 80, 127
2, 111745, Note_off_c, 8, 80, 127
2, 111749, Note_on_c, 12, 71, 127
2, 111915, Note_off_c, 12, 71, 127
2, 111915, Note_off_c, 4, 52, 127
2, 111915, Note_off_c, 12, 47, 127
2, 111915, Note_off_c, 8, 44, 127
2, 111919, Note_on_c, 4, 52, 127
2, 111919, Note_on_c, 8, 44, 127
2, 111919, Note_on_c, 2, 74, 127
2, 112085, Note_off_c, 2, 74, 127
2, 112085, Note_off_c, 8, 44, 127
2, 112085, Note_off_c, 4, 52, 127
2, 112089, Note_on_c, 10, 45, 127
2, 112089, Note_on_c, 4, 52, 127
2, 112089, Note_on_c, 1, 73, 127
2, 112198, Note_off_c, 1, 73, 127
2, 112202, Note_on_c, 2, 74, 127
2, 112311, Note_off_c, 2, 74, 127
2, 112315, Note_on_c, 4, 76, 127
2, 112424, Note_off_c, 4, 76, 127
2, 112424, Note_off_c, 4, 52, 127
2, 112424, Note_off_c, 10, 45, 127
2, 112428, Note_on_c, 2, 50, 127
2, 112428, Note_on_c, 6, 54, 127
2, 112428, Note_on_c, 12, 71, 127
2, 112650, Note_off_c, 12, 71, 127
2, 112654, Note_on_c, 10, 69, 127
2, 112763, Note_off_c, 10, 69, 127
2, 112763, Note_off_c, 6, 54, 127
2, 112763, Note_off_c, 2, 50, 127
2, 112767, Note_on_c, 4, 52, 127
2, 112767, Note_on_c, 8, 68, 127
2, 112876, Note_off_c, 8, 68, 127
2, 112880, Note_on_c, 10, 69, 127
2, 112989, Note_off_c, 10, 69, 127
2, 112993, Note_on_c, 12, 71, 127
2, 113102, Note_off_c, 12, 71, 127
2, 113102, Note_off_c, 4, 52, 127
2, 113106, Note_on_c, 4, 40, 127
2, 113106, Note_on_c, 4, 64, 127
2, 113272, Note_off_c, 4, 40, 127
2, 113276, Note_on_c, 2, 50, 127
2, 113442, Note_off_c, 2, 50, 127
2, 113462, Note_on_c, 4, 76, 127
2, 113462, Note_on_c, 10, 57, 127
2, 113462, Note_on_c, 4, 52, 127
2, 113462, Note_on_c, 1, 49, 127
2, 113546, Note_off_c, 4, 64, 127
2, 113797, Note_off_c, 4, 76, 127
2, 113801, Note_on_c, 1, 73, 127
2, 113910, Note_off_c, 1, 73, 127
2, 113914, Note_on_c, 12, 71, 127
2, 113956, Note_off_c, 1, 49, 127
2, 113956, Note_off_c, 4, 52, 127
2, 113956, Note_off_c, 10, 57, 127
2, 114023, Note_off_c, 12, 71, 127
2, 114027, Note_on_c, 10, 69, 127
2, 114136, Note_off_c, 10, 69, 127
2, 114140, Note_on_c, 6, 78, 127
2, 114140, Note_on_c, 10, 57, 127
2, 114140, Note_on_c, 2, 50, 127
2, 114306, Note_off_c, 6, 78, 127
2, 114310, Note_on_c, 8, 68, 127
2, 114476, Note_off_c, 8, 68, 127
2, 114480, Note_on_c, 10, 69, 127
2, 114635, Note_off_c, 2, 50, 127
2, 114635, Note_off_c, 10, 57, 127
2, 114646, Note_off_c, 10, 69, 127
2, 114650, Note_on_c, 12, 71, 127
2, 114816, Note_off_c, 12, 71, 127
2, 114820, Note_on_c, 8, 68, 127
2, 114820, Note_on_c, 4, 52, 127
2, 114929, Note_off_c, 8, 68, 127
2, 114933, Note_on_c, 10, 69, 127
2, 115042, Note_off_c, 10, 69, 127
2, 115046, Note_on_c, 12, 71, 127
2, 115155, Note_off_c, 12, 71, 127
2, 115159, Note_on_c, 4, 64, 127
2, 115159, Note_on_c, 4, 40, 127
2, 115268, Note_off_c, 4, 64, 127
2, 115272, Note_on_c, 6, 66, 127
2, 115381, Note_off_c, 6, 66, 127
2, 115385, Note_on_c, 8, 68, 127
2, 115491, Note_off_c, 4, 52, 127
2, 115495, Note_off_c, 8, 68, 127
2, 115495, Note_off_c, 4, 40, 127
2, 115499, Note_on_c, 10, 69, 127
2, 115499, Note_on_c, 10, 45, 127
2, 115753, Note_on_c, 4, 52, 127
2, 115919, Note_off_c, 4, 52, 127
2, 116092, Note_on_c, 10, 57, 127
2, 117449, Note_off_c, 10, 45, 127
2, 117499, Note_off_c, 10, 69, 127
2, 117592, Note_off_c, 10, 57, 127
2, 119636, Note_on_c, 12, 59, 127
2, 119655, Note_on_c, 4, 64, 127
2, 119692, Note_off_c, 12, 59, 127
2, 119696, Note_on_c, 10, 57, 127
2, 119711, Note_on_c, 10, 69, 127
2, 119752, Note_off_c, 10, 57, 127
2, 119756, Note_on_c, 12, 59, 127
2, 119767, Note_on_c, 1, 73, 127
2, 119813, Note_off_c, 12, 59, 127
2, 119817, Note_on_c, 10, 57, 127
2, 119824, Note_on_c, 4, 76, 127
2, 120185, Note_off_c, 4, 76, 127
2, 120196, Note_on_c, 4, 76, 127
2, 120368, Note_off_c, 1, 73, 127
2, 120368, Note_off_c, 10, 69, 127
2, 120368, Note_off_c, 4, 64, 127
2, 120374, Note_off_c, 4, 76, 127
2, 120376, Note_on_c, 10, 45, 127
2, 120376, Note_on_c, 4, 76, 127
2, 120376, Note_on_c, 10, 69, 127
2, 120376, Note_on_c, 4, 64, 127
2, 120376, Note_on_c, 1, 73, 127
2, 120895, Note_off_c, 10, 57, 127
2, 121088, Note_off_c, 1, 73, 127
2, 121088, Note_off_c, 4, 64, 127
2, 121088, Note_off_c, 10, 69, 127
2, 121094, Note_off_c, 10, 45, 127
2, 121096, Note_on_c, 8, 56, 127
2, 121096, Note_on_c, 2, 50, 127
2, 121096, Note_on_c, 12, 47, 127
2, 121454, Note_off_c, 4, 76, 127
2, 121456, Note_on_c, 2, 74, 127
2, 121456, Note_on_c, 12, 71, 127
2, 121456, Note_on_c, 8, 68, 127
2, 121456, Note_on_c, 4, 76, 127
2, 121814, Note_off_c, 4, 76, 127
2, 121814, Note_off_c, 8, 68, 127
2, 121814, Note_off_c, 12, 71, 127
2, 121814, Note_off_c, 2, 74, 127
2, 121814, Note_off_c, 12, 47, 127
2, 121814, Note_off_c, 2, 50, 127
2, 121814, Note_off_c, 8, 56, 127
2, 121816, Note_on_c, 1, 49, 127
2, 121816, Note_on_c, 10, 69, 127
2, 121816, Note_on_c, 4, 64, 127
2, 121816, Note_on_c, 4, 76, 127
2, 121816, Note_on_c, 1, 73, 127
2, 122354, Note_off_c, 4, 76, 127
2, 122356, Note_on_c, 4, 76, 127
2, 122528, Note_off_c, 1, 73, 127
2, 122528, Note_off_c, 4, 64, 127
2, 122528, Note_off_c, 10, 69, 127
2, 122534, Note_off_c, 4, 76, 127
2, 122536, Note_on_c, 10, 57, 127
2, 122536, Note_on_c, 4, 76, 127
2, 122536, Note_on_c, 4, 64, 127
2, 122536, Note_on_c, 1, 73, 127
2, 122536, Note_on_c, 10, 69, 127
2, 123254, Note_off_c, 1, 49, 127
2, 123256, Note_on_c, 2, 50, 127
2, 123256, Note_on_c, 12, 59, 127
2, 123614, Note_off_c, 10, 69, 127
2, 123614, Note_off_c, 1, 73, 127
2, 123614, Note_off_c, 4, 64, 127
2, 123614, Note_off_c, 4, 76, 127
2, 123616, Note_on_c, 12, 71, 127
2, 123616, Note_on_c, 6, 66, 127
2, 123616, Note_on_c, 10, 69, 127
2, 123616, Note_on_c, 4, 76, 127
2, 123974, Note_off_c, 4, 76, 127
2, 123974, Note_off_c, 10, 69, 127
2, 123974, Note_off_c, 6, 66, 127
2, 123974, Note_off_c, 12, 71, 127
2, 123974, Note_off_c, 12, 59, 127
2, 123974, Note_off_c, 2, 50, 127
2, 123974, Note_off_c, 10, 57, 127
2, 123976, Note_on_c, 6, 54, 127
2, 123976, Note_on_c, 6, 66, 127
2, 124036, Note_on_c, 10, 69, 127
2, 124096, Note_off_c, 6, 54, 127
2, 124096, Note_on_c, 4, 52, 127
2, 124096, Note_on_c, 12, 71, 127
2, 124156, Note_on_c, 6, 54, 127
2, 124156, Note_on_c, 3, 75, 127
2, 124184, Note_off_c, 4, 52, 127
2, 124216, Note_on_c, 4, 52, 127
2, 124244, Note_off_c, 6, 54, 127
2, 124276, Note_on_c, 6, 54, 127
2, 124304, Note_off_c, 4, 52, 127
2, 124336, Note_on_c, 4, 52, 127
2, 124364, Note_off_c, 6, 54, 127
2, 124512, Note_off_c, 3, 75, 127
2, 124516, Note_on_c, 3, 75, 127
2, 124677, Note_off_c, 12, 71, 127
2, 124688, Note_off_c, 10, 69, 127
2, 124688, Note_off_c, 6, 66, 127
2, 124694, Note_off_c, 3, 75, 127
2, 124696, Note_on_c, 4, 40, 127
2, 124696, Note_on_c, 10, 69, 127
2, 124696, Note_on_c, 6, 66, 127
2, 124696, Note_on_c, 3, 75, 127
2, 124696, Note_on_c, 12, 71, 127
2, 125048, Note_off_c, 4, 52, 127
2, 125414, Note_off_c, 4, 40, 127
2, 125416, Note_on_c, 12, 47, 127
2, 125416, Note_on_c, 8, 44, 127
2, 125416, Note_on_c, 4, 52, 127
2, 125774, Note_off_c, 12, 71, 127
2, 125774, Note_off_c, 3, 75, 127
2, 125774, Note_off_c, 6, 66, 127
2, 125774, Note_off_c, 10, 69, 127
2, 125776, Note_on_c, 8, 68, 127
2, 125776, Note_on_c, 4, 76, 127
2, 125776, Note_on_c, 12, 71, 127
2, 125776, Note_on_c, 4, 64, 127
2, 126134, Note_off_c, 4, 64, 127
2, 126134, Note_off_c, 12, 71, 127
2, 126134, Note_off_c, 4, 76, 127
2, 126134, Note_off_c, 8, 68, 127
2, 126134, Note_off_c, 4, 52, 127
2, 126134, Note_off_c, 8, 44, 127
2, 126134, Note_off_c, 12, 47, 127
2, 126136, Note_on_c, 10, 45, 127
2, 126136, Note_on_c, 4, 64, 127
2, 126226, Note_on_c, 10, 69, 127
2, 126316, Note_on_c, 1, 73, 127
2, 126672, Note_off_c, 1, 73, 127
2, 126676, Note_on_c, 12, 71, 127
2, 126847, Note_off_c, 10, 69, 127
2, 126849, Note_off_c, 4, 64, 127
2, 126855, Note_off_c, 12, 71, 127
2, 126857, Note_on_c, 4, 64, 127
2, 126857, Note_on_c, 10, 69, 127
2, 126857, Note_on_c, 1, 61, 127
2, 127382, Note_off_c, 1, 61, 127
2, 127382, Note_off_c, 10, 69, 127
2, 127575, Note_off_c, 10, 45, 127
2, 127577, Note_on_c, 4, 52, 127
2, 127577, Note_on_c, 8, 56, 127
2, 127935, Note_off_c, 4, 64, 127
2, 127937, Note_on_c, 4, 64, 127
2, 127937, Note_on_c, 12, 71, 127
2, 127937, Note_on_c, 8, 68, 127
2, 128295, Note_off_c, 8, 68, 127
2, 128295, Note_off_c, 12, 71, 127
2, 128295, Note_off_c, 4, 64, 127
2, 128295, Note_off_c, 8, 56, 127
2, 128295, Note_off_c, 4, 52, 127
2, 128297, Note_on_c, 10, 45, 127
2, 128297, Note_on_c, 1, 49, 127
2, 128297, Note_on_c, 6, 54, 127
2, 128297, Note_on_c, 1, 73, 127
2, 128297, Note_on_c, 10, 69, 127
2, 128297, Note_on_c, 6, 66, 127
2, 128297, Note_on_c, 4, 64, 127
2, 128835, Note_off_c, 1, 73, 127
2, 128837, Note_on_c, 1, 73, 127
2, 129009, Note_off_c, 4, 64, 127
2, 129009, Note_off_c, 6, 66, 127
2, 129009, Note_off_c, 10, 69, 127
2, 129009, Note_off_c, 6, 54, 127
2, 129015, Note_off_c, 1, 73, 127
2, 129015, Note_off_c, 1, 49, 127
2, 129015, Note_off_c, 10, 45, 127
2, 129017, Note_on_c, 12, 47, 127
2, 129017, Note_on_c, 3, 63, 127
2, 129017, Note_on_c, 6, 66, 127
2, 129017, Note_on_c, 12, 59, 127
2, 129735, Note_off_c, 12, 47, 127
2, 129737, Note_on_c, 3, 51, 127
2, 129737, Note_on_c, 10, 45, 127
2, 129737, Note_on_c, 6, 54, 127
2, 130095, Note_off_c, 12, 59, 127
2, 130095, Note_off_c, 6, 66, 127
2, 130095, Note_off_c, 3, 63, 127
2, 130097, Note_on_c, 12, 59, 127
2, 130097, Note_on_c, 6, 66, 127
2, 130097, Note_on_c, 3, 63, 127
2, 130455, Note_off_c, 3, 63, 127
2, 130455, Note_off_c, 6, 66, 127
2, 130455, Note_off_c, 12, 59, 127
2, 130455, Note_off_c, 6, 54, 127
2, 130455, Note_off_c, 10, 45, 127
2, 130455, Note_off_c, 3, 51, 127
2, 130457, Note_on_c, 12, 47, 127
2, 130457, Note_on_c, 4, 52, 127
2, 130457, Note_on_c, 8, 44, 127
2, 130457, Note_on_c, 8, 68, 127
2, 130457, Note_on_c, 12, 59, 127
2, 130457, Note_on_c, 12, 71, 127
2, 130457, Note_on_c, 4, 64, 127
2, 130995, Note_off_c, 12, 71, 127
2, 130997, Note_on_c, 12, 71, 127
2, 131169, Note_off_c, 4, 64, 127
2, 131169, Note_off_c, 12, 59, 127
2, 131169, Note_off_c, 8, 68, 127
2, 131169, Note_off_c, 4, 52, 127
2, 131175, Note_off_c, 12, 71, 127
2, 131175, Note_off_c, 8, 44, 127
2, 131175, Note_off_c, 12, 47, 127
2, 131177, Note_on_c, 1, 49, 127
2, 131177, Note_on_c, 10, 45, 127
2, 131177, Note_on_c, 10, 57, 127
2, 131177, Note_on_c, 4, 64, 127
2, 131177, Note_on_c, 1, 61, 127
2, 131895, Note_off_c, 10, 45, 127
2, 131895, Note_off_c, 1, 49, 127
2, 131897, Note_on_c, 12, 47, 127
2, 131897, Note_on_c, 8, 44, 127
2, 132255, Note_off_c, 1, 61, 127
2, 132255, Note_off_c, 4, 64, 127
2, 132255, Note_off_c, 10, 57, 127
2, 132257, Note_on_c, 4, 64, 127
2, 132257, Note_on_c, 12, 59, 127
2, 132615, Note_off_c, 12, 59, 127
2, 132615, Note_off_c, 4, 64, 127
2, 132615, Note_off_c, 8, 44, 127
2, 132615, Note_off_c, 12, 47, 127
2, 132617, Note_on_c, 6, 42, 127
2, 132617, Note_on_c, 4, 64, 127
2, 132617, Note_on_c, 10, 69, 127
2, 133157, Note_on_c, 1, 73, 127
2, 133335, Note_off_c, 1, 73, 127
2, 133335, Note_off_c, 6, 42, 127
2, 133337, Note_on_c, 12, 47, 127
2, 133337, Note_on_c, 3, 75, 127
2, 133875, Note_off_c, 3, 75, 127
2, 133877, Note_on_c, 4, 76, 127
2, 134055, Note_off_c, 4, 76, 127
2, 134055, Note_off_c, 12, 47, 127
2, 134055, Note_off_c, 10, 69, 127
2, 134055, Note_off_c, 4, 64, 127
2, 134057, Note_on_c, 12, 47, 127
2, 134057, Note_on_c, 12, 71, 127
2, 134057, Note_on_c, 3, 63, 127
2, 134595, Note_off_c, 12, 71, 127
2, 134597, Note_on_c, 10, 69, 127
2, 134769, Note_off_c, 3, 63, 127
2, 134775, Note_off_c, 10, 69, 127
2, 134775, Note_off_c, 12, 47, 127
2, 134777, Note_on_c, 4, 52, 127
2, 134777, Note_on_c, 4, 64, 127
2, 134777, Note_on_c, 12, 59, 127
2, 134777, Note_on_c, 10, 69, 127
2, 134852, Note_on_c, 8, 68, 127
2, 134865, Note_off_c, 10, 69, 127
2, 134927, Note_on_c, 10, 69, 127
2, 134936, Note_off_c, 8, 68, 127
2, 135002, Note_on_c, 8, 68, 127
2, 135011, Note_off_c, 10, 69, 127
2, 135303, Note_off_c, 8, 68, 127
2, 135316, Note_on_c, 6, 66, 127
2, 135488, Note_off_c, 12, 59, 127
2, 135488, Note_off_c, 4, 64, 127
2, 135494, Note_off_c, 6, 66, 127
2, 135496, Note_on_c, 4, 40, 127
2, 135496, Note_on_c, 12, 59, 127
2, 135496, Note_on_c, 4, 64, 127
2, 135496, Note_on_c, 8, 56, 127
2, 136214, Note_off_c, 4, 52, 127
2, 136216, Note_on_c, 4, 52, 127
2, 136934, Note_off_c, 4, 52, 127
2, 136934, Note_off_c, 8, 56, 127
2, 136934, Note_off_c, 4, 64, 127
2, 136934, Note_off_c, 12, 59, 127
2, 136934, Note_off_c, 4, 40, 127
2, 136952, Note_on_c, 1, 61, 127
2, 136952, Note_on_c, 4, 64, 127
2, 136952, Note_on_c, 8, 68, 127
2, 136952, Note_on_c, 1, 49, 127
2, 137490, Note_off_c, 8, 68, 127
2, 137492, Note_on_c, 8, 68, 127
2, 137664, Note_off_c, 4, 64, 127
2, 137664, Note_off_c, 1, 61, 127
2, 137670, Note_off_c, 8, 68, 127
2, 137672, Note_on_c, 4, 64, 127
2, 137672, Note_on_c, 8, 68, 127
2, 137672, Note_on_c, 1, 61, 127
2, 137672, Note_on_c, 8, 56, 127
2, 138384, Note_off_c, 1, 61, 127
2, 138384, Note_off_c, 4, 64, 127
2, 138390, Note_off_c, 1, 49, 127
2, 138392, Note_on_c, 3, 51, 127
2, 138392, Note_on_c, 0, 48, 127
2, 138750, Note_off_c, 8, 68, 127
2, 138752, Note_on_c, 3, 63, 127
2, 138752, Note_on_c, 6, 66, 127
2, 138752, Note_on_c, 8, 68, 127
2, 138752, Note_on_c, 0, 60, 127
2, 139110, Note_off_c, 0, 60, 127
2, 139110, Note_off_c, 8, 68, 127
2, 139110, Note_off_c, 6, 66, 127
2, 139110, Note_off_c, 3, 63, 127
2, 139110, Note_off_c, 0, 48, 127
2, 139110, Note_off_c, 3, 51, 127
2, 139110, Note_off_c, 8, 56, 127
2, 139112, Note_on_c, 4, 64, 127
2, 139112, Note_on_c, 8, 68, 127
2, 139112, Note_on_c, 1, 61, 127
2, 139112, Note_on_c, 4, 52, 127
2, 139112, Note_on_c, 1, 49, 127
2, 139650, Note_off_c, 8, 68, 127
2, 139652, Note_on_c, 8, 68, 127
2, 139824, Note_off_c, 1, 61, 127
2, 139824, Note_off_c, 4, 64, 127
2, 139830, Note_off_c, 8, 68, 127
2, 139832, Note_on_c, 1, 61, 127
2, 139832, Note_on_c, 4, 64, 127
2, 139832, Note_on_c, 8, 68, 127
2, 139832, Note_on_c, 8, 56, 127
2, 140544, Note_off_c, 4, 64, 127
2, 140544, Note_off_c, 1, 61, 127
2, 140550, Note_off_c, 1, 49, 127
2, 140550, Note_off_c, 4, 52, 127
2, 140552, Note_on_c, 12, 47, 127
2, 140552, Note_on_c, 3, 51, 127
2, 140910, Note_off_c, 8, 68, 127
2, 140912, Note_on_c, 3, 75, 127
2, 141270, Note_off_c, 3, 75, 127
2, 141270, Note_off_c, 3, 51, 127
2, 141270, Note_off_c, 12, 47, 127
2, 141272, Note_on_c, 4, 76, 127
2, 141272, Note_on_c, 1, 49, 127
2, 141272, Note_on_c, 11, 46, 127
2, 141632, Note_off_c, 8, 56, 127
2, 141632, Note_on_c, 7, 55, 127
2, 141810, Note_off_c, 4, 76, 127
2, 141812, Note_on_c, 1, 73, 127
2, 141990, Note_off_c, 1, 73, 127
2, 141990, Note_off_c, 7, 55, 127
2, 141992, Note_on_c, 6, 78, 127
2, 141992, Note_on_c, 6, 54, 127
2, 142530, Note_off_c, 6, 78, 127
2, 142532, Note_on_c, 2, 74, 127
2, 142710, Note_off_c, 2, 74, 127
2, 142710, Note_off_c, 11, 46, 127
2, 142710, Note_off_c, 1, 49, 127
2, 142712, Note_on_c, 1, 73, 127
2, 142712, Note_on_c, 2, 50, 127
2, 142712, Note_on_c, 12, 47, 127
2, 143250, Note_off_c, 1, 73, 127
2, 143252, Note_on_c, 12, 71, 127
2, 143430, Note_off_c, 12, 71, 127
2, 143430, Note_off_c, 12, 47, 127
2, 143430, Note_off_c, 2, 50, 127
2, 143432, Note_on_c, 1, 61, 127
2, 143432, Note_on_c, 6, 42, 127
2, 143432, Note_on_c, 1, 49, 127
2, 143573, Note_on_c, 4, 64, 127
2, 143717, Note_on_c, 12, 71, 127
2, 143948, Note_off_c, 12, 71, 127
2, 143948, Note_off_c, 4, 64, 127
2, 143970, Note_off_c, 1, 61, 127
2, 143972, Note_on_c, 1, 61, 127
2, 143972, Note_on_c, 4, 64, 127
2, 143972, Note_on_c, 11, 70, 127
2, 144150, Note_off_c, 11, 70, 127
2, 144150, Note_off_c, 4, 64, 127
2, 144150, Note_off_c, 1, 61, 127
2, 144150, Note_off_c, 1, 49, 127
2, 144150, Note_off_c, 6, 42, 127
2, 144152, Note_on_c, 2, 62, 127
2, 144152, Note_on_c, 6, 66, 127
2, 144152, Note_on_c, 12, 71, 127
2, 144152, Note_on_c, 2, 50, 127
2, 144152, Note_on_c, 12, 47, 127
2, 144861, Note_off_c, 6, 54, 127
2, 144870, Note_off_c, 12, 47, 127
2, 144870, Note_off_c, 2, 50, 127
2, 144872, Note_on_c, 6, 54, 127
2, 144872, Note_on_c, 10, 45, 127
2, 144872, Note_on_c, 1, 49, 127
2, 145230, Note_off_c, 12, 71, 127
2, 145230, Note_off_c, 6, 66, 127
2, 145230, Note_off_c, 2, 62, 127
2, 145232, Note_on_c, 12, 71, 127
2, 145232, Note_on_c, 6, 66, 127
2, 145232, Note_on_c, 2, 74, 127
2, 145590, Note_off_c, 2, 74, 127
2, 145590, Note_off_c, 6, 66, 127
2, 145590, Note_off_c, 12, 71, 127
2, 145590, Note_off_c, 1, 49, 127
2, 145590, Note_off_c, 10, 45, 127
2, 145590, Note_off_c, 6, 54, 127
2, 145592, Note_on_c, 4, 64, 127
2, 145592, Note_on_c, 8, 68, 127
2, 145592, Note_on_c, 12, 71, 127
2, 145592, Note_on_c, 2, 74, 127
2, 145592, Note_on_c, 4, 52, 127
2, 145592, Note_on_c, 12, 47, 127
2, 145592, Note_on_c, 8, 44, 127
2, 146130, Note_off_c, 2, 74, 127
2, 146132, Note_on_c, 2, 74, 127
2, 146304, Note_off_c, 12, 71, 127
2, 146304, Note_off_c, 8, 68, 127
2, 146304, Note_off_c, 4, 64, 127
2, 146310, Note_off_c, 2, 74, 127
2, 146310, Note_off_c, 8, 44, 127
2, 146312, Note_on_c, 8, 68, 127
2, 146312, Note_on_c, 12, 71, 127
2, 146312, Note_on_c, 4, 64, 127
2, 146312, Note_on_c, 2, 74, 127
2, 146312, Note_on_c, 4, 40, 127
2, 147024, Note_off_c, 12, 71, 127
2, 147024, Note_off_c, 8, 68, 127
2, 147030, Note_off_c, 4, 40, 127
2, 147030, Note_off_c, 12, 47, 127
2, 147030, Note_off_c, 4, 52, 127
2, 147032, Note_on_c, 4, 52, 127
2, 147032, Note_on_c, 10, 45, 127
2, 147390, Note_off_c, 2, 74, 127
2, 147390, Note_off_c, 4, 64, 127
2, 147392, Note_on_c, 10, 69, 127
2, 147392, Note_on_c, 4, 64, 127
2, 147392, Note_on_c, 0, 72, 127
2, 147750, Note_off_c, 0, 72, 127
2, 147750, Note_off_c, 4, 64, 127
2, 147750, Note_off_c, 10, 69, 127
2, 147750, Note_off_c, 10, 45, 127
2, 147750, Note_off_c, 4, 52, 127
2, 147752, Note_on_c, 5, 65, 127
2, 147752, Note_on_c, 10, 69, 127
2, 147752, Note_on_c, 0, 72, 127
2, 147752, Note_on_c, 2, 50, 127
2, 148290, Note_off_c, 0, 72, 127
2, 148292, Note_on_c, 0, 72, 127
2, 148464, Note_off_c, 10, 69, 127
2, 148464, Note_off_c, 5, 65, 127
2, 148470, Note_off_c, 0, 72, 127
2, 148472, Note_on_c, 0, 72, 127
2, 148472, Note_on_c, 2, 62, 127
2, 148472, Note_on_c, 5, 65, 127
2, 148472, Note_on_c, 10, 69, 127
2, 148472, Note_on_c, 2, 38, 127
2, 149190, Note_off_c, 2, 38, 127
2, 149190, Note_off_c, 2, 50, 127
2, 149192, Note_on_c, 5, 53, 127
2, 149192, Note_on_c, 2, 50, 127
2, 149550, Note_off_c, 10, 69, 127
2, 149550, Note_off_c, 5, 65, 127
2, 149550, Note_off_c, 2, 62, 127
2, 149550, Note_off_c, 0, 72, 127
2, 149552, Note_on_c, 11, 70, 127
2, 149910, Note_off_c, 11, 70, 127
2, 149910, Note_off_c, 2, 50, 127
2, 149910, Note_off_c, 5, 53, 127
2, 149912, Note_on_c, 8, 68, 127
2, 149912, Note_on_c, 12, 59, 127
2, 149912, Note_on_c, 3, 51, 127
2, 149912, Note_on_c, 6, 54, 127
2, 150450, Note_off_c, 8, 68, 127
2, 150452, Note_on_c, 10, 69, 127
2, 150630, Note_off_c, 6, 54, 127
2, 150630, Note_off_c, 3, 51, 127
2, 150630, Note_off_c, 12, 59, 127
2, 150632, Note_on_c, 12, 59, 127
2, 150632, Note_on_c, 4, 52, 127
2, 150752, Note_on_c, 4, 64, 127
2, 150808, Note_off_c, 10, 69, 127
2, 150872, Note_on_c, 10, 69, 127
2, 151352, Note_on_c, 4, 40, 127
2, 151690, Note_off_c, 4, 64, 127
2, 151711, Note_off_c, 12, 59, 127
2, 151713, Note_on_c, 4, 64, 127
2, 151713, Note_on_c, 12, 59, 127
2, 151713, Note_on_c, 2, 62, 127
2, 151713, Note_on_c, 8, 68, 127
2, 151735, Note_off_c, 10, 69, 127
2, 152071, Note_off_c, 8, 68, 127
2, 152071, Note_off_c, 2, 62, 127
2, 152071, Note_off_c, 12, 59, 127
2, 152071, Note_off_c, 4, 64, 127
2, 152071, Note_off_c, 4, 40, 127
2, 152073, Note_on_c, 10, 69, 127
2, 152073, Note_on_c, 1, 61, 127
2, 152073, Note_on_c, 4, 64, 127
2, 152073, Note_on_c, 10, 45, 127
2, 152611, Note_off_c, 10, 69, 127
2, 152613, Note_on_c, 10, 69, 127
2, 152785, Note_off_c, 4, 64, 127
2, 152785, Note_off_c, 1, 61, 127
2, 152791, Note_off_c, 10, 69, 127
2, 152793, Note_on_c, 10, 57, 127
2, 152793, Note_on_c, 10, 69, 127
2, 152793, Note_on_c, 1, 61, 127
2, 152793, Note_on_c, 4, 64, 127
2, 153502, Note_off_c, 4, 52, 127
2, 153871, Note_off_c, 4, 64, 127
2, 153871, Note_off_c, 1, 61, 127
2, 153871, Note_off_c, 10, 69, 127
2, 153969, Note_on_c, 10, 69, 127
2, 154229, Note_off_c, 10, 45, 127
2, 154231, Note_off_c, 10, 57, 127
2, 154361, Note_on_c, 1, 73, 127
2, 154369, Note_off_c, 10, 69, 127
2, 154701, Note_off_c, 1, 73, 127
2, 154702, Note_on_c, 12, 71, 127
2, 154702, Note_on_c, 10, 57, 127
2, 154872, Note_off_c, 12, 71, 127
2, 154873, Note_on_c, 10, 69, 127
2, 155043, Note_off_c, 10, 69, 127
2, 155043, Note_off_c, 10, 57, 127
2, 155044, Note_on_c, 4, 76, 127
2, 155044, Note_on_c, 1, 61, 127
2, 155384, Note_off_c, 1, 61, 127
2, 155384, Note_off_c, 4, 76, 127
2, 155385, Note_on_c, 10, 81, 127
2, 155385, Note_on_c, 12, 59, 127
2, 155555, Note_off_c, 12, 59, 127
2, 155556, Note_on_c, 10, 57, 127
2, 155652, Note_off_c, 10, 81, 127
2, 155726, Note_off_c, 10, 57, 127
2, 155727, Note_on_c, 8, 80, 127
2, 155727, Note_on_c, 4, 64, 127
2, 156067, Note_off_c, 4, 64, 127
2, 156067, Note_off_c, 8, 80, 127
2, 156068, Note_on_c, 6, 78, 127
2, 156068, Note_on_c, 2, 62, 127
2, 156238, Note_off_c, 6, 78, 127
2, 156239, Note_on_c, 4, 76, 127
2, 156409, Note_off_c, 4, 76, 127
2, 156409, Note_off_c, 2, 62, 127
2, 156410, Note_on_c, 10, 81, 127
2, 156410, Note_on_c, 1, 61, 127
2, 156750, Note_off_c, 1, 61, 127
2, 156750, Note_off_c, 10, 81, 127
2, 156751, Note_on_c, 4, 76, 127
2, 156751, Note_on_c, 12, 59, 127
2, 156921, Note_off_c, 12, 59, 127
2, 156922, Note_on_c, 10, 57, 127
2, 157018, Note_off_c, 4, 76, 127
2, 157092, Note_off_c, 10, 57, 127
2, 157093, Note_on_c, 6, 78, 127
2, 157093, Note_on_c, 2, 62, 127
2, 157433, Note_off_c, 2, 62, 127
2, 157433, Note_off_c, 6, 78, 127
2, 157434, Note_on_c, 12, 83, 127
2, 157434, Note_on_c, 1, 61, 127
2, 157604, Note_off_c, 1, 61, 127
2, 157605, Note_on_c, 12, 59, 127
2, 157775, Note_off_c, 12, 59, 127
2, 157775, Note_off_c, 12, 83, 127
2, 157776, Note_on_c, 4, 76, 127
2, 157776, Note_on_c, 1, 61, 127
2, 158116, Note_off_c, 1, 61, 127
2, 158116, Note_off_c, 4, 76, 127
2, 158117, Note_on_c, 10, 81, 127
2, 158117, Note_on_c, 12, 59, 127
2, 158287, Note_off_c, 12, 59, 127
2, 158288, Note_on_c, 10, 57, 127
2, 158384, Note_off_c, 10, 81, 127
2, 158458, Note_off_c, 10, 57, 127
2, 158459, Note_on_c, 2, 74, 127
2, 158459, Note_on_c, 12, 59, 127
2, 158799, Note_off_c, 12, 59, 127
2, 158799, Note_off_c, 2, 74, 127
2, 158800, Note_on_c, 4, 76, 127
2, 158800, Note_on_c, 10, 57, 127
2, 158970, Note_off_c, 10, 57, 127
2, 158971, Note_on_c, 8, 56, 127
2, 159141, Note_off_c, 8, 56, 127
2, 159141, Note_off_c, 4, 76, 127
2, 159142, Note_on_c, 1, 73, 127
2, 159142, Note_on_c, 10, 57, 127
2, 159462, Note_off_c, 1, 73, 127
2, 159482, Note_off_c, 10, 57, 127
2, 159483, Note_on_c, 12, 71, 127
2, 159483, Note_on_c, 2, 50, 127
2, 159653, Note_off_c, 12, 71, 127
2, 159654, Note_on_c, 10, 69, 127
2, 159824, Note_off_c, 10, 69, 127
2, 159824, Note_off_c, 2, 50, 127
2, 159825, Note_on_c, 8, 68, 127
2, 159825, Note_on_c, 4, 52, 127
2, 160165, Note_off_c, 4, 52, 127
2, 160165, Note_off_c, 8, 68, 127
2, 160166, Note_on_c, 6, 66, 127
2, 160166, Note_on_c, 6, 54, 127
2, 160336, Note_off_c, 6, 66, 127
2, 160337, Note_on_c, 4, 64, 127
2, 160507, Note_off_c, 4, 64, 127
2, 160507, Note_off_c, 6, 54, 127
2, 160508, Note_on_c, 12, 71, 127
2, 160508, Note_on_c, 8, 56, 127
2, 160848, Note_off_c, 8, 56, 127
2, 160848, Note_off_c, 12, 71, 127
2, 160849, Note_on_c, 4, 76, 127
2, 160849, Note_on_c, 6, 54, 127
2, 161019, Note_off_c, 6, 54, 127
2, 161020, Note_on_c, 4, 52, 127
2, 161116, Note_off_c, 4, 76, 127
2, 161190, Note_off_c, 4, 52, 127
2, 161191, Note_on_c, 1, 73, 127
2, 161191, Note_on_c, 10, 57, 127
2, 161531, Note_off_c, 10, 57, 127
2, 161531, Note_off_c, 1, 73, 127
2, 161532, Note_on_c, 12, 71, 127
2, 161532, Note_on_c, 1, 61, 127
2, 161702, Note_off_c, 12, 71, 127
2, 161703, Note_on_c, 10, 69, 127
2, 161873, Note_off_c, 10, 69, 127
2, 161873, Note_off_c, 1, 61, 127
2, 161874, Note_on_c, 1, 73, 127
2, 161874, Note_on_c, 10, 57, 127
2, 162214, Note_off_c, 10, 57, 127
2, 162214, Note_off_c, 1, 73, 127
2, 162215, Note_on_c, 6, 78, 127
2, 162215, Note_on_c, 8, 56, 127
2, 162385, Note_off_c, 8, 56, 127
2, 162386, Note_on_c, 6, 54, 127
2, 162482, Note_off_c, 6, 78, 127
2, 162556, Note_off_c, 6, 54, 127
2, 162557, Note_on_c, 3, 75, 127
2, 162557, Note_on_c, 12, 59, 127
2, 162897, Note_off_c, 12, 59, 127
2, 162897, Note_off_c, 3, 75, 127
2, 162898, Note_on_c, 1, 73, 127
2, 162898, Note_on_c, 1, 61, 127
2, 163068, Note_off_c, 1, 73, 127
2, 163069, Note_on_c, 12, 71, 127
2, 163239, Note_off_c, 12, 71, 127
2, 163239, Note_off_c, 1, 61, 127
2, 163240, Note_on_c, 6, 78, 127
2, 163240, Note_on_c, 3, 63, 127
2, 163580, Note_off_c, 3, 63, 127
2, 163580, Note_off_c, 6, 78, 127
2, 163581, Note_on_c, 12, 83, 127
2, 163581, Note_on_c, 1, 61, 127
2, 163751, Note_off_c, 1, 61, 127
2, 163752, Note_on_c, 12, 59, 127
2, 163848, Note_off_c, 12, 83, 127
2, 163922, Note_off_c, 12, 59, 127
2, 163923, Note_on_c, 8, 80, 127
2, 163923, Note_on_c, 4, 64, 127
2, 164263, Note_off_c, 4, 64, 127
2, 164263, Note_off_c, 8, 80, 127
2, 164264, Note_on_c, 6, 78, 127
2, 164264, Note_on_c, 2, 62, 127
2, 164434, Note_off_c, 6, 78, 127
2, 164435, Note_on_c, 4, 76, 127
2, 164605, Note_off_c, 4, 76, 127
2, 164605, Note_off_c, 2, 62, 127
2, 164606, Note_on_c, 10, 81, 127
2, 164606, Note_on_c, 1, 61, 127
2, 164926, Note_off_c, 10, 81, 127
2, 164946, Note_off_c, 1, 61, 127
2, 164947, Note_on_c, 8, 80, 127
2, 164947, Note_on_c, 12, 59, 127
2, 165117, Note_off_c, 12, 59, 127
2, 165117, Note_off_c, 8, 80, 127
2, 165118, Note_on_c, 6, 78, 127
2, 165118, Note_on_c, 10, 57, 127
2, 165288, Note_off_c, 10, 57, 127
2, 165288, Note_off_c, 6, 78, 127
2, 165289, Note_on_c, 12, 83, 127
2, 165289, Note_on_c, 8, 56, 127
2, 165629, Note_off_c, 8, 56, 127
2, 165629, Note_off_c, 12, 83, 127
2, 165630, Note_on_c, 4, 76, 127
2, 165630, Note_on_c, 10, 57, 127
2, 165800, Note_off_c, 4, 76, 127
2, 165801, Note_on_c, 6, 78, 127
2, 165971, Note_off_c, 6, 78, 127
2, 165971, Note_off_c, 10, 57, 127
2, 165972, Note_on_c, 4, 76, 127
2, 165972, Note_on_c, 12, 59, 127
2, 166052, Note_on_c, 3, 75, 127
2, 166056, Note_off_c, 4, 76, 127
2, 166132, Note_on_c, 4, 76, 127
2, 166136, Note_off_c, 3, 75, 127
2, 166212, Note_on_c, 3, 75, 127
2, 166216, Note_off_c, 4, 76, 127
2, 166313, Note_on_c, 12, 47, 127
2, 166483, Note_off_c, 12, 59, 127
2, 166484, Note_on_c, 4, 76, 127
2, 166506, Note_off_c, 3, 75, 127
2, 166651, Note_off_c, 12, 47, 127
2, 166654, Note_off_c, 4, 76, 127
2, 166655, Note_on_c, 4, 76, 127
2, 166655, Note_on_c, 4, 52, 127
2, 167337, Note_off_c, 4, 76, 127
2, 167678, Note_off_c, 4, 52, 127
2, 167679, Note_on_c, 12, 71, 127
2, 167679, Note_on_c, 3, 51, 127
2, 167972, Note_off_c, 12, 71, 127
2, 168016, Note_off_c, 3, 51, 127
2, 168020, Note_on_c, 8, 68, 127
2, 168020, Note_on_c, 4, 52, 127
2, 168360, Note_off_c, 4, 52, 127
2, 168360, Note_off_c, 8, 68, 127
2, 168361, Note_on_c, 6, 66, 127
2, 168361, Note_on_c, 6, 54, 127
2, 168531, Note_off_c, 6, 66, 127
2, 168532, Note_on_c, 4, 64, 127
2, 168702, Note_off_c, 4, 64, 127
2, 168702, Note_off_c, 6, 54, 127
2, 168703, Note_on_c, 12, 71, 127
2, 168703, Note_on_c, 8, 56, 127
2, 169043, Note_off_c, 8, 56, 127
2, 169043, Note_off_c, 12, 71, 127
2, 169044, Note_on_c, 4, 76, 127
2, 169044, Note_on_c, 6, 54, 127
2, 169214, Note_off_c, 6, 54, 127
2, 169215, Note_on_c, 4, 52, 127
2, 169311, Note_off_c, 4, 76, 127
2, 169385, Note_off_c, 4, 52, 127
2, 169386, Note_on_c, 1, 73, 127
2, 169386, Note_on_c, 10, 57, 127
2, 169726, Note_off_c, 10, 57, 127
2, 169726, Note_off_c, 1, 73, 127
2, 169727, Note_on_c, 12, 71, 127
2, 169727, Note_on_c, 12, 59, 127
2, 169897, Note_off_c, 12, 71, 127
2, 169898, Note_on_c, 10, 69, 127
2, 170068, Note_off_c, 10, 69, 127
2, 170068, Note_off_c, 12, 59, 127
2, 170069, Note_on_c, 4, 76, 127
2, 170069, Note_on_c, 1, 61, 127
2, 170409, Note_off_c, 1, 61, 127
2, 170409, Note_off_c, 4, 76, 127
2, 170410, Note_on_c, 10, 81, 127
2, 170410, Note_on_c, 12, 59, 127
2, 170580, Note_off_c, 12, 59, 127
2, 170581, Note_on_c, 10, 57, 127
2, 170677, Note_off_c, 10, 81, 127
2, 170751, Note_off_c, 10, 57, 127
2, 170752, Note_on_c, 6, 78, 127
2, 170752, Note_on_c, 2, 62, 127
2, 171092, Note_off_c, 2, 62, 127
2, 171092, Note_off_c, 6, 78, 127
2, 171093, Note_on_c, 12, 83, 127
2, 171093, Note_on_c, 2, 62, 127
2, 171263, Note_off_c, 2, 62, 127
2, 171264, Note_on_c, 1, 61, 127
2, 171434, Note_off_c, 1, 61, 127
2, 171434, Note_off_c, 12, 83, 127
2, 171435, Note_on_c, 10, 81, 127
2, 171435, Note_on_c, 12, 59, 127
2, 171604, Note_off_c, 10, 81, 127
2, 171606, Note_on_c, 8, 80, 127
2, 171690, Note_off_c, 8, 80, 127
2, 171691, Note_on_c, 10, 81, 127
2, 171775, Note_off_c, 10, 81, 127
2, 171775, Note_off_c, 12, 59, 127
2, 171776, Note_on_c, 8, 80, 127
2, 171776, Note_on_c, 8, 56, 127
2, 171945, Note_off_c, 8, 80, 127
2, 171947, Note_on_c, 6, 78, 127
2, 172114, Note_off_c, 8, 56, 127
2, 172117, Note_off_c, 6, 78, 127
2, 172118, Note_on_c, 5, 77, 127
2, 172118, Note_on_c, 1, 61, 127
2, 172458, Note_off_c, 1, 61, 127
2, 172458, Note_off_c, 5, 77, 127
2, 172459, Note_on_c, 3, 75, 127
2, 172459, Note_on_c, 12, 59, 127
2, 172629, Note_off_c, 3, 75, 127
2, 172630, Note_on_c, 1, 73, 127
2, 172800, Note_off_c, 1, 73, 127
2, 172800, Note_off_c, 12, 59, 127
2, 172801, Note_on_c, 6, 78, 127
2, 172801, Note_on_c, 10, 57, 127
2, 173141, Note_off_c, 10, 57, 127
2, 173141, Note_off_c, 6, 78, 127
2, 173142, Note_on_c, 1, 73, 127
2, 173142, Note_on_c, 8, 56, 127
2, 173312, Note_off_c, 8, 56, 127
2, 173313, Note_on_c, 6, 54, 127
2, 173445, Note_off_c, 1, 73, 127
2, 173483, Note_off_c, 6, 54, 127
2, 173484, Note_on_c, 2, 74, 127
2, 173484, Note_on_c, 12, 59, 127
2, 173824, Note_off_c, 12, 59, 127
2, 173824, Note_off_c, 2, 74, 127
2, 173825, Note_on_c, 12, 71, 127
2, 173825, Note_on_c, 10, 57, 127
2, 173995, Note_off_c, 10, 57, 127
2, 173996, Note_on_c, 8, 56, 127
2, 174166, Note_off_c, 8, 56, 127
2, 174166, Note_off_c, 12, 71, 127
2, 174167, Note_on_c, 8, 68, 127
2, 174167, Note_on_c, 1, 61, 127
2, 174508, Note_on_c, 1, 73, 127
2, 174508, Note_on_c, 1, 49, 127
2, 174593, Note_off_c, 8, 68, 127
2, 174677, Note_off_c, 1, 61, 127
2, 174801, Note_off_c, 1, 73, 127
2, 174845, Note_off_c, 1, 49, 127
2, 174849, Note_on_c, 10, 69, 127
2, 174849, Note_on_c, 6, 54, 127
2, 175189, Note_off_c, 6, 54, 127
2, 175189, Note_off_c, 10, 69, 127
2, 175190, Note_on_c, 8, 68, 127
2, 175190, Note_on_c, 8, 56, 127
2, 175360, Note_off_c, 8, 68, 127
2, 175361, Note_on_c, 6, 66, 127
2, 175531, Note_off_c, 6, 66, 127
2, 175531, Note_off_c, 8, 56, 127
2, 175532, Note_on_c, 1, 73, 127
2, 175532, Note_on_c, 10, 57, 127
2, 175872, Note_off_c, 10, 57, 127
2, 175872, Note_off_c, 1, 73, 127
2, 175873, Note_on_c, 6, 78, 127
2, 175873, Note_on_c, 8, 56, 127
2, 176043, Note_off_c, 8, 56, 127
2, 176044, Note_on_c, 6, 54, 127
2, 176140, Note_off_c, 6, 78, 127
2, 176214, Note_off_c, 6, 54, 127
2, 176215, Note_on_c, 2, 74, 127
2, 176215, Note_on_c, 12, 59, 127
2, 176555, Note_off_c, 12, 59, 127
2, 176555, Note_off_c, 2, 74, 127
2, 176556, Note_on_c, 12, 71, 127
2, 176556, Note_on_c, 12, 47, 127
2, 176726, Note_off_c, 12, 47, 127
2, 176727, Note_on_c, 1, 49, 127
2, 176897, Note_off_c, 1, 49, 127
2, 176897, Note_off_c, 12, 71, 127
2, 176898, Note_on_c, 6, 66, 127
2, 176898, Note_on_c, 2, 50, 127
2, 177238, Note_off_c, 2, 50, 127
2, 177238, Note_off_c, 6, 66, 127
2, 177239, Note_on_c, 12, 71, 127
2, 177239, Note_on_c, 1, 49, 127
2, 177409, Note_off_c, 1, 49, 127
2, 177410, Note_on_c, 12, 47, 127
2, 177524, Note_off_c, 12, 71, 127
2, 177580, Note_off_c, 12, 47, 127
2, 177581, Note_on_c, 8, 68, 127
2, 177581, Note_on_c, 4, 52, 127
2, 177921, Note_off_c, 4, 52, 127
2, 177921, Note_off_c, 8, 68, 127
2, 177922, Note_on_c, 6, 66, 127
2, 177922, Note_on_c, 6, 54, 127
2, 178092, Note_off_c, 6, 66, 127
2, 178093, Note_on_c, 4, 64, 127
2, 178263, Note_off_c, 4, 64, 127
2, 178263, Note_off_c, 6, 54, 127
2, 178264, Note_on_c, 12, 71, 127
2, 178264, Note_on_c, 8, 56, 127
2, 178604, Note_off_c, 8, 56, 127
2, 178604, Note_off_c, 12, 71, 127
2, 178605, Note_on_c, 4, 76, 127
2, 178605, Note_on_c, 6, 54, 127
2, 178775, Note_off_c, 6, 54, 127
2, 178776, Note_on_c, 4, 52, 127
2, 178872, Note_off_c, 4, 76, 127
2, 178946, Note_off_c, 4, 52, 127
2, 178947, Note_on_c, 1, 73, 127
2, 178947, Note_on_c, 10, 57, 127
2, 179287, Note_off_c, 10, 57, 127
2, 179287, Note_off_c, 1, 73, 127
2, 179288, Note_on_c, 12, 71, 127
2, 179288, Note_on_c, 12, 59, 127
2, 179458, Note_off_c, 12, 71, 127
2, 179459, Note_on_c, 10, 69, 127
2, 179629, Note_off_c, 10, 69, 127
2, 179629, Note_off_c, 12, 59, 127
2, 179630, Note_on_c, 4, 76, 127
2, 179630, Note_on_c, 1, 61, 127
2, 179970, Note_off_c, 1, 61, 127
2, 179970, Note_off_c, 4, 76, 127
2, 179971, Note_on_c, 10, 81, 127
2, 179971, Note_on_c, 12, 59, 127
2, 180141, Note_off_c, 12, 59, 127
2, 180142, Note_on_c, 10, 57, 127
2, 180238, Note_off_c, 10, 81, 127
2, 180312, Note_off_c, 10, 57, 127
2, 180313, Note_on_c, 6, 78, 127
2, 180313, Note_on_c, 2, 62, 127
2, 180653, Note_off_c, 2, 62, 127
2, 180653, Note_off_c, 6, 78, 127
2, 180654, Note_on_c, 4, 76, 127
2, 180654, Note_on_c, 6, 66, 127
2, 180824, Note_off_c, 4, 76, 127
2, 180825, Note_on_c, 2, 74, 127
2, 180995, Note_off_c, 2, 74, 127
2, 180995, Note_off_c, 6, 66, 127
2, 180996, Note_on_c, 6, 78, 127
2, 180996, Note_on_c, 3, 63, 127
2, 181336, Note_off_c, 3, 63, 127
2, 181336, Note_off_c, 6, 78, 127
2, 181337, Note_on_c, 12, 83, 127
2, 181337, Note_on_c, 1, 61, 127
2, 181507, Note_off_c, 1, 61, 127
2, 181508, Note_on_c, 12, 59, 127
2, 181604, Note_off_c, 12, 83, 127
2, 181678, Note_off_c, 12, 59, 127
2, 181679, Note_on_c, 8, 80, 127
2, 181679, Note_on_c, 4, 64, 127
2, 182019, Note_off_c, 4, 64, 127
2, 182019, Note_off_c, 8, 80, 127
2, 182020, Note_on_c, 6, 78, 127
2, 182020, Note_on_c, 2, 62, 127
2, 182190, Note_off_c, 6, 78, 127
2, 182191, Note_on_c, 4, 76, 127
2, 182361, Note_off_c, 4, 76, 127
2, 182361, Note_off_c, 2, 62, 127
2, 182362, Note_on_c, 10, 81, 127
2, 182362, Note_on_c, 1, 61, 127
2, 182702, Note_off_c, 1, 61, 127
2, 182702, Note_off_c, 10, 81, 127
2, 182703, Note_on_c, 4, 76, 127
2, 182703, Note_on_c, 12, 59, 127
2, 182873, Note_off_c, 12, 59, 127
2, 182874, Note_on_c, 10, 57, 127
2, 182970, Note_off_c, 4, 76, 127
2, 183044, Note_off_c, 10, 57, 127
2, 183045, Note_on_c, 2, 74, 127
2, 183045, Note_on_c, 8, 56, 127
2, 183385, Note_off_c, 8, 56, 127
2, 183385, Note_off_c, 2, 74, 127
2, 183386, Note_on_c, 1, 73, 127
2, 183386, Note_on_c, 10, 57, 127
2, 183556, Note_off_c, 1, 73, 127
2, 183557, Note_on_c, 2, 74, 127
2, 183727, Note_off_c, 2, 74, 127
2, 183727, Note_off_c, 10, 57, 127
2, 183728, Note_on_c, 1, 73, 127
2, 183728, Note_on_c, 4, 52, 127
2, 183897, Note_off_c, 1, 73, 127
2, 183899, Note_on_c, 12, 71, 127
2, 183983, Note_off_c, 12, 71, 127
2, 183984, Note_on_c, 1, 73, 127
2, 184068, Note_off_c, 1, 73, 127
2, 184069, Note_on_c, 12, 71, 127
2, 184069, Note_on_c, 4, 40, 127
2, 184153, Note_off_c, 12, 71, 127
2, 184154, Note_on_c, 1, 73, 127
2, 184238, Note_off_c, 1, 73, 127
2, 184238, Note_off_c, 4, 52, 127
2, 184239, Note_on_c, 12, 71, 127
2, 184359, Note_off_c, 12, 71, 127
2, 184359, Note_on_c, 10, 69, 127
2, 184429, Note_off_c, 4, 40, 127
2, 184437, Note_off_c, 10, 69, 127
2, 184450, Note_on_c, 10, 45, 127
2, 184450, Note_on_c, 10, 69, 127
2, 185750, Note_off_c, 10, 69, 127
2, 185750, Note_off_c, 10, 45, 127
2, 185772, Note_on_c, 10, 69, 127
2, 185772, Note_on_c, 10, 57, 127
2, 186152, Note_off_c, 10, 57, 127
2, 186152, Note_off_c, 10, 69, 127
2, 186172, Note_on_c, 10, 45, 127
2, 186172, Note_on_c, 1, 73, 127
2, 186342, Note_off_c, 10, 45, 127
2, 186343, Note_on_c, 4, 52, 127
2, 186513, Note_off_c, 4, 52, 127
2, 186513, Note_off_c, 1, 73, 127
2, 186514, Note_on_c, 10, 57, 127
2, 186514, Note_on_c, 10, 69, 127
2, 186684, Note_off_c, 10, 69, 127
2, 186684, Note_off_c, 10, 57, 127
2, 186685, Note_on_c, 12, 47, 127
2, 186685, Note_on_c, 2, 74, 127
2, 186855, Note_off_c, 12, 47, 127
2, 186856, Note_on_c, 2, 50, 127
2, 187026, Note_off_c, 2, 50, 127
2, 187026, Note_off_c, 2, 74, 127
2, 187027, Note_on_c, 8, 56, 127
2, 187027, Note_on_c, 12, 71, 127
2, 187197, Note_off_c, 12, 71, 127
2, 187197, Note_off_c, 8, 56, 127
2, 187198, Note_on_c, 1, 49, 127
2, 187198, Note_on_c, 4, 76, 127
2, 187368, Note_off_c, 1, 49, 127
2, 187369, Note_on_c, 4, 52, 127
2, 187539, Note_off_c, 4, 52, 127
2, 187539, Note_off_c, 4, 76, 127
2, 187540, Note_on_c, 10, 57, 127
2, 187540, Note_on_c, 1, 73, 127
2, 187710, Note_off_c, 1, 73, 127
2, 187710, Note_off_c, 10, 57, 127
2, 187711, Note_on_c, 2, 50, 127
2, 187711, Note_on_c, 6, 78, 127
2, 187881, Note_off_c, 2, 50, 127
2, 187882, Note_on_c, 6, 54, 127
2, 188052, Note_off_c, 6, 54, 127
2, 188052, Note_off_c, 6, 78, 127
2, 188053, Note_on_c, 12, 59, 127
2, 188053, Note_on_c, 2, 74, 127
2, 188223, Note_off_c, 2, 74, 127
2, 188223, Note_off_c, 12, 59, 127
2, 188224, Note_on_c, 12, 47, 127
2, 188224, Note_on_c, 8, 80, 127
2, 188394, Note_off_c, 12, 47, 127
2, 188395, Note_on_c, 2, 50, 127
2, 188565, Note_off_c, 2, 50, 127
2, 188565, Note_off_c, 8, 80, 127
2, 188566, Note_on_c, 8, 56, 127
2, 188566, Note_on_c, 2, 74, 127
2, 188736, Note_off_c, 2, 74, 127
2, 188736, Note_off_c, 8, 56, 127
2, 188737, Note_on_c, 10, 57, 127
2, 188737, Note_on_c, 1, 73, 127
2, 188907, Note_off_c, 1, 73, 127
2, 188908, Note_on_c, 4, 76, 127
2, 189078, Note_off_c, 4, 76, 127
2, 189078, Note_off_c, 10, 57, 127
2, 189079, Note_on_c, 10, 45, 127
2, 189079, Note_on_c, 10, 81, 127
2, 189249, Note_off_c, 10, 81, 127
2, 189249, Note_off_c, 10, 45, 127
2, 189250, Note_on_c, 4, 52, 127
2, 189250, Note_on_c, 8, 80, 127
2, 189420, Note_off_c, 8, 80, 127
2, 189421, Note_on_c, 10, 81, 127
2, 189591, Note_off_c, 10, 81, 127
2, 189591, Note_off_c, 4, 52, 127
2, 189592, Note_on_c, 6, 54, 127
2, 189592, Note_on_c, 12, 83, 127
2, 189762, Note_off_c, 12, 83, 127
2, 189762, Note_off_c, 6, 54, 127
2, 189763, Note_on_c, 8, 56, 127
2, 189763, Note_on_c, 4, 76, 127
2, 189933, Note_off_c, 4, 76, 127
2, 189934, Note_on_c, 6, 78, 127
2, 190104, Note_off_c, 6, 78, 127
2, 190104, Note_off_c, 8, 56, 127
2, 190105, Note_on_c, 4, 52, 127
2, 190105, Note_on_c, 2, 74, 127
2, 190275, Note_off_c, 2, 74, 127
2, 190275, Note_off_c, 4, 52, 127
2, 190276, Note_on_c, 10, 57, 127
2, 190276, Note_on_c, 1, 73, 127
2, 190446, Note_off_c, 1, 73, 127
2, 190446, Note_off_c, 10, 57, 127
2, 190447, Note_on_c, 10, 45, 127
2, 190447, Note_on_c, 2, 74, 127
2, 190617, Note_off_c, 2, 74, 127
2, 190617, Note_off_c, 10, 45, 127
2, 190618, Note_on_c, 8, 56, 127
2, 190618, Note_on_c, 12, 71, 127
2, 190788, Note_off_c, 12, 71, 127
2, 190788, Note_off_c, 8, 56, 127
2, 190789, Note_on_c, 6, 54, 127
2, 190789, Note_on_c, 10, 69, 127
2, 190959, Note_off_c, 10, 69, 127
2, 190959, Note_off_c, 6, 54, 127
2, 190960, Note_on_c, 6, 42, 127
2, 190960, Note_on_c, 12, 71, 127
2, 191130, Note_off_c, 12, 71, 127
2, 191130, Note_off_c, 6, 42, 127
2, 191131, Note_on_c, 4, 52, 127
2, 191131, Note_on_c, 8, 68, 127
2, 191301, Note_off_c, 8, 68, 127
2, 191301, Note_off_c, 4, 52, 127
2, 191302, Note_on_c, 3, 51, 127
2, 191302, Note_on_c, 6, 66, 127
2, 191472, Note_off_c, 6, 66, 127
2, 191472, Note_off_c, 3, 51, 127
2, 191473, Note_on_c, 3, 39, 127
2, 191473, Note_on_c, 8, 68, 127
2, 191643, Note_off_c, 8, 68, 127
2, 191643, Note_off_c, 3, 39, 127
2, 191644, Note_on_c, 1, 49, 127
2, 191644, Note_on_c, 4, 64, 127
2, 191814, Note_off_c, 4, 64, 127
2, 191814, Note_off_c, 1, 49, 127
2, 191815, Note_on_c, 12, 47, 127
2, 191815, Note_on_c, 3, 63, 127
2, 191985, Note_off_c, 3, 63, 127
2, 191986, Note_on_c, 6, 66, 127
2, 192156, Note_off_c, 6, 66, 127
2, 192156, Note_off_c, 12, 47, 127
2, 192157, Note_on_c, 3, 51, 127
2, 192157, Note_on_c, 12, 71, 127
2, 192327, Note_off_c, 12, 71, 127
2, 192327, Note_off_c, 3, 51, 127
2, 192328, Note_on_c, 4, 52, 127
2, 192328, Note_on_c, 8, 68, 127
2, 192498, Note_off_c, 8, 68, 127
2, 192499, Note_on_c, 12, 71, 127
2, 192669, Note_off_c, 12, 71, 127
2, 192669, Note_off_c, 4, 52, 127
2, 192670, Note_on_c, 8, 56, 127
2, 192670, Note_on_c, 4, 76, 127
2, 192840, Note_off_c, 4, 76, 127
2, 192840, Note_off_c, 8, 56, 127
2, 192841, Note_on_c, 12, 59, 127
2, 192841, Note_on_c, 10, 69, 127
2, 192925, Note_off_c, 10, 69, 127
2, 192926, Note_on_c, 8, 68, 127
2, 193010, Note_off_c, 8, 68, 127
2, 193011, Note_on_c, 6, 66, 127
2, 193181, Note_off_c, 6, 66, 127
2, 193181, Note_off_c, 12, 59, 127
2, 193182, Note_on_c, 12, 47, 127
2, 193182, Note_on_c, 4, 64, 127
2, 193352, Note_off_c, 4, 64, 127
2, 193352, Note_off_c, 12, 47, 127
2, 193353, Note_on_c, 4, 52, 127
2, 193353, Note_on_c, 4, 64, 127
2, 193523, Note_off_c, 4, 52, 127
2, 193524, Note_on_c, 12, 47, 127
2, 193694, Note_off_c, 12, 47, 127
2, 193695, Note_on_c, 8, 44, 127
2, 193865, Note_off_c, 8, 44, 127
2, 193866, Note_on_c, 4, 40, 127
2, 194036, Note_off_c, 4, 64, 127
2, 194207, Note_off_c, 4, 40, 127
2, 194208, Note_on_c, 4, 52, 127
2, 194208, Note_on_c, 8, 68, 127
2, 194378, Note_off_c, 8, 68, 127
2, 194378, Note_off_c, 4, 52, 127
2, 194395, Note_on_c, 4, 64, 127
2, 194395, Note_on_c, 8, 56, 127
2, 194565, Note_off_c, 4, 64, 127
2, 194566, Note_on_c, 12, 71, 127
2, 194736, Note_off_c, 12, 71, 127
2, 194736, Note_off_c, 8, 56, 127
2, 194737, Note_on_c, 4, 76, 127
2, 194737, Note_on_c, 4, 52, 127
2, 194907, Note_off_c, 4, 52, 127
2, 194907, Note_off_c, 4, 76, 127
2, 194908, Note_on_c, 6, 66, 127
2, 194908, Note_on_c, 10, 57, 127
2, 195078, Note_off_c, 6, 66, 127
2, 195079, Note_on_c, 10, 69, 127
2, 195249, Note_off_c, 10, 69, 127
2, 195249, Note_off_c, 10, 57, 127
2, 195250, Note_on_c, 3, 75, 127
2, 195250, Note_on_c, 6, 54, 127
2, 195420, Note_off_c, 6, 54, 127
2, 195420, Note_off_c, 3, 75, 127
2, 195421, Note_on_c, 8, 68, 127
2, 195421, Note_on_c, 12, 59, 127
2, 195591, Note_off_c, 8, 68, 127
2, 195592, Note_on_c, 12, 71, 127
2, 195762, Note_off_c, 12, 71, 127
2, 195762, Note_off_c, 12, 59, 127
2, 195763, Note_on_c, 4, 76, 127
2, 195763, Note_on_c, 8, 56, 127
2, 195933, Note_off_c, 8, 56, 127
2, 195933, Note_off_c, 4, 76, 127
2, 195934, Note_on_c, 10, 69, 127
2, 195934, Note_on_c, 1, 61, 127
2, 196104, Note_off_c, 10, 69, 127
2, 196105, Note_on_c, 1, 73, 127
2, 196275, Note_off_c, 1, 73, 127
2, 196275, Note_off_c, 1, 61, 127
2, 196276, Note_on_c, 6, 78, 127
2, 196276, Note_on_c, 10, 57, 127
2, 196446, Note_off_c, 10, 57, 127
2, 196446, Note_off_c, 6, 78, 127
2, 196447, Note_on_c, 3, 75, 127
2, 196447, Note_on_c, 12, 59, 127
2, 196617, Note_off_c, 12, 59, 127
2, 196618, Note_on_c, 1, 61, 127
2, 196788, Note_off_c, 1, 61, 127
2, 196788, Note_off_c, 3, 75, 127
2, 196789, Note_on_c, 12, 71, 127
2, 196789, Note_on_c, 10, 57, 127
2, 196959, Note_off_c, 10, 57, 127
2, 196959, Note_off_c, 12, 71, 127
2, 196960, Note_on_c, 4, 76, 127
2, 196960, Note_on_c, 8, 56, 127
2, 197130, Note_off_c, 8, 56, 127
2, 197130, Note_off_c, 4, 76, 127
2, 197131, Note_on_c, 6, 78, 127
2, 197131, Note_on_c, 6, 54, 127
2, 197301, Note_off_c, 6, 54, 127
2, 197301, Note_off_c, 6, 78, 127
2, 197302, Note_on_c, 8, 80, 127
2, 197302, Note_on_c, 4, 52, 127
2, 197472, Note_off_c, 4, 52, 127
2, 197472, Note_off_c, 8, 80, 127
2, 197473, Note_on_c, 6, 78, 127
2, 197473, Note_on_c, 3, 51, 127
2, 197643, Note_off_c, 3, 51, 127
2, 197644, Note_on_c, 4, 52, 127
2, 197814, Note_off_c, 4, 52, 127
2, 197814, Note_off_c, 6, 78, 127
2, 197815, Note_on_c, 12, 71, 127
2, 197815, Note_on_c, 1, 49, 127
2, 197985, Note_off_c, 1, 49, 127
2, 197985, Note_off_c, 12, 71, 127
2, 197986, Note_on_c, 12, 71, 127
2, 197986, Note_on_c, 12, 47, 127
2, 198156, Note_off_c, 12, 47, 127
2, 198157, Note_on_c, 1, 49, 127
2, 198327, Note_off_c, 1, 49, 127
2, 198327, Note_off_c, 12, 71, 127
2, 198328, Note_on_c, 12, 83, 127
2, 198328, Note_on_c, 10, 45, 127
2, 198498, Note_off_c, 10, 45, 127
2, 198498, Note_off_c, 12, 83, 127
2, 198499, Note_on_c, 4, 76, 127
2, 198499, Note_on_c, 8, 44, 127
2, 198669, Note_off_c, 4, 76, 127
2, 198670, Note_on_c, 8, 80, 127
2, 198840, Note_off_c, 8, 80, 127
2, 198840, Note_off_c, 8, 44, 127
2, 198841, Note_on_c, 12, 83, 127
2, 198841, Note_on_c, 4, 52, 127
2, 199011, Note_off_c, 4, 52, 127
2, 199011, Note_off_c, 12, 83, 127
2, 199012, Note_on_c, 2, 74, 127
2, 199012, Note_on_c, 6, 42, 127
2, 199182, Note_off_c, 2, 74, 127
2, 199183, Note_on_c, 8, 80, 127
2, 199353, Note_off_c, 8, 80, 127
2, 199353, Note_off_c, 6, 42, 127
2, 199354, Note_on_c, 12, 83, 127
2, 199354, Note_on_c, 2, 50, 127
2, 199524, Note_off_c, 2, 50, 127
2, 199524, Note_off_c, 12, 83, 127
2, 199525, Note_on_c, 1, 73, 127
2, 199525, Note_on_c, 5, 41, 127
2, 199695, Note_off_c, 1, 73, 127
2, 199696, Note_on_c, 8, 80, 127
2, 199866, Note_off_c, 8, 80, 127
2, 199866, Note_off_c, 5, 41, 127
2, 199867, Note_on_c, 12, 83, 127
2, 199867, Note_on_c, 1, 49, 127
2, 200037, Note_off_c, 1, 49, 127
2, 200037, Note_off_c, 12, 83, 127
2, 200038, Note_on_c, 1, 73, 127
2, 200038, Note_on_c, 6, 42, 127
2, 200208, Note_off_c, 1, 73, 127
2, 200209, Note_on_c, 6, 78, 127
2, 200379, Note_off_c, 6, 78, 127
2, 200379, Note_off_c, 6, 42, 127
2, 200380, Note_on_c, 10, 81, 127
2, 200380, Note_on_c, 6, 54, 127
2, 200550, Note_off_c, 6, 54, 127
2, 200550, Note_off_c, 10, 81, 127
2, 200551, Note_on_c, 2, 74, 127
2, 200551, Note_on_c, 12, 47, 127
2, 200721, Note_off_c, 2, 74, 127
2, 200722, Note_on_c, 6, 78, 127
2, 200892, Note_off_c, 6, 78, 127
2, 200892, Note_off_c, 12, 47, 127
2, 200893, Note_on_c, 10, 81, 127
2, 200893, Note_on_c, 6, 54, 127
2, 201063, Note_off_c, 6, 54, 127
2, 201063, Note_off_c, 10, 81, 127
2, 201064, Note_on_c, 8, 80, 127
2, 201064, Note_on_c, 12, 59, 127
2, 201234, Note_off_c, 12, 59, 127
2, 201234, Note_off_c, 8, 80, 127
2, 201235, Note_on_c, 10, 81, 127
2, 201235, Note_on_c, 10, 57, 127
2, 201405, Note_off_c, 10, 57, 127
2, 201405, Note_off_c, 10, 81, 127
2, 201406, Note_on_c, 12, 83, 127
2, 201406, Note_on_c, 8, 56, 127
2, 201576, Note_off_c, 8, 56, 127
2, 201576, Note_off_c, 12, 83, 127
2, 201577, Note_on_c, 6, 78, 127
2, 201577, Note_on_c, 1, 61, 127
2, 201746, Note_off_c, 6, 78, 127
2, 201747, Note_off_c, 1, 61, 127
2, 201748, Note_on_c, 5, 77, 127
2, 201748, Note_on_c, 8, 56, 127
2, 201814, Note_off_c, 5, 77, 127
2, 201815, Note_on_c, 6, 78, 127
2, 201881, Note_off_c, 6, 78, 127
2, 201882, Note_on_c, 5, 77, 127
2, 201918, Note_off_c, 8, 56, 127
2, 201919, Note_on_c, 5, 53, 127
2, 201947, Note_off_c, 5, 77, 127
2, 201948, Note_on_c, 6, 78, 127
2, 202011, Note_on_c, 5, 77, 127
2, 202014, Note_off_c, 6, 78, 127
2, 202089, Note_off_c, 5, 53, 127
2, 202090, Note_on_c, 1, 49, 127
2, 202260, Note_off_c, 1, 49, 127
2, 202261, Note_on_c, 1, 61, 127
2, 202403, Note_off_c, 5, 77, 127
2, 202431, Note_off_c, 1, 61, 127
2, 202432, Note_on_c, 1, 73, 127
2, 202432, Note_on_c, 12, 59, 127
2, 202602, Note_off_c, 12, 59, 127
2, 202602, Note_off_c, 1, 73, 127
2, 202603, Note_on_c, 1, 73, 127
2, 202603, Note_on_c, 10, 57, 127
2, 202773, Note_off_c, 10, 57, 127
2, 202774, Note_on_c, 1, 61, 127
2, 202944, Note_off_c, 1, 61, 127
2, 202945, Note_on_c, 6, 66, 127
2, 203115, Note_off_c, 6, 66, 127
2, 203116, Note_on_c, 8, 56, 127
2, 203286, Note_off_c, 8, 56, 127
2, 203287, Note_on_c, 12, 59, 127
2, 203457, Note_off_c, 12, 59, 127
2, 203458, Note_on_c, 5, 65, 127
2, 203628, Note_off_c, 5, 65, 127
2, 203629, Note_on_c, 6, 54, 127
2, 203799, Note_off_c, 6, 54, 127
2, 203800, Note_on_c, 10, 57, 127
2, 203970, Note_off_c, 10, 57, 127
2, 203971, Note_on_c, 2, 62, 127
2, 204141, Note_off_c, 2, 62, 127
2, 204142, Note_on_c, 5, 53, 127
2, 204312, Note_off_c, 5, 53, 127
2, 204313, Note_on_c, 8, 56, 127
2, 204483, Note_off_c, 8, 56, 127
2, 204483, Note_off_c, 1, 73, 127
2, 204484, Note_on_c, 1, 73, 127
2, 204484, Note_on_c, 1, 61, 127
2, 204654, Note_off_c, 1, 61, 127
2, 204654, Note_off_c, 1, 73, 127
2, 204655, Note_on_c, 10, 69, 127
2, 204655, Note_on_c, 6, 54, 127
2, 204825, Note_off_c, 6, 54, 127
2, 204825, Note_off_c, 10, 69, 127
2, 204826, Note_on_c, 2, 74, 127
2, 204826, Note_on_c, 10, 57, 127
2, 204996, Note_off_c, 10, 57, 127
2, 204996, Note_off_c, 2, 74, 127
2, 204997, Note_on_c, 6, 66, 127
2, 204997, Note_on_c, 1, 61, 127
2, 205167, Note_off_c, 1, 61, 127
2, 205167, Note_off_c, 6, 66, 127
2, 205168, Note_on_c, 8, 68, 127
2, 205168, Note_on_c, 4, 52, 127
2, 205338, Note_off_c, 4, 52, 127
2, 205338, Note_off_c, 8, 68, 127
2, 205339, Note_on_c, 1, 73, 127
2, 205339, Note_on_c, 8, 56, 127
2, 205509, Note_off_c, 8, 56, 127
2, 205509, Note_off_c, 1, 73, 127
2, 205510, Note_on_c, 4, 64, 127
2, 205510, Note_on_c, 1, 61, 127
2, 205680, Note_off_c, 1, 61, 127
2, 205680, Note_off_c, 4, 64, 127
2, 205681, Note_on_c, 6, 66, 127
2, 205681, Note_on_c, 2, 50, 127
2, 205851, Note_off_c, 2, 50, 127
2, 205851, Note_off_c, 6, 66, 127
2, 205852, Note_on_c, 12, 71, 127
2, 205852, Note_on_c, 6, 54, 127
2, 206022, Note_off_c, 6, 54, 127
2, 206022, Note_off_c, 12, 71, 127
2, 206023, Note_on_c, 8, 68, 127
2, 206023, Note_on_c, 12, 59, 127
2, 206193, Note_off_c, 12, 59, 127
2, 206193, Note_off_c, 8, 68, 127
2, 206194, Note_on_c, 6, 66, 127
2, 206194, Note_on_c, 12, 47, 127
2, 206244, Note_off_c, 6, 66, 127
2, 206246, Note_on_c, 5, 65, 127
2, 206296, Note_off_c, 5, 65, 127
2, 206298, Note_on_c, 6, 66, 127
2, 206348, Note_off_c, 6, 66, 127
2, 206350, Note_on_c, 5, 65, 127
2, 206365, Note_off_c, 12, 47, 127
2, 206366, Note_on_c, 8, 56, 127
2, 206528, Note_off_c, 5, 65, 127
2, 206536, Note_off_c, 8, 56, 127
2, 206537, Note_on_c, 2, 74, 127
2, 206537, Note_on_c, 12, 59, 127
2, 206707, Note_off_c, 12, 59, 127
2, 206707, Note_off_c, 2, 74, 127
2, 206708, Note_on_c, 1, 73, 127
2, 206708, Note_on_c, 10, 57, 127
2, 206878, Note_off_c, 1, 73, 127
2, 206879, Note_on_c, 6, 78, 127
2, 207049, Note_off_c, 6, 78, 127
2, 207049, Note_off_c, 10, 57, 127
2, 207050, Note_on_c, 8, 68, 127
2, 207050, Note_on_c, 12, 59, 127
2, 207220, Note_off_c, 12, 59, 127
2, 207220, Note_off_c, 8, 68, 127
2, 207221, Note_on_c, 10, 69, 127
2, 207221, Note_on_c, 1, 61, 127
2, 207272, Note_off_c, 10, 69, 127
2, 207275, Note_on_c, 8, 68, 127
2, 207326, Note_off_c, 8, 68, 127
2, 207329, Note_on_c, 10, 69, 127
2, 207380, Note_off_c, 10, 69, 127
2, 207383, Note_on_c, 8, 68, 127
2, 207563, Note_off_c, 1, 61, 127
2, 207564, Note_on_c, 6, 66, 127
2, 207564, Note_on_c, 1, 49, 127
2, 207568, Note_off_c, 8, 68, 127
2, 207733, Note_off_c, 1, 49, 127
2, 207733, Note_off_c, 6, 66, 127
2, 207734, Note_on_c, 6, 66, 127
2, 207734, Note_on_c, 6, 54, 127
2, 207904, Note_off_c, 6, 54, 127
2, 207905, Note_on_c, 1, 49, 127
2, 208075, Note_off_c, 1, 49, 127
2, 208076, Note_on_c, 10, 45, 127
2, 208246, Note_off_c, 10, 45, 127
2, 208247, Note_on_c, 6, 42, 127
2, 208417, Note_off_c, 6, 66, 127
2, 208588, Note_off_c, 6, 42, 127
2, 208589, Note_on_c, 6, 78, 127
2, 208589, Note_on_c, 10, 57, 127
2, 208759, Note_off_c, 10, 57, 127
2, 208759, Note_off_c, 6, 78, 127
2, 208760, Note_on_c, 3, 75, 127
2, 208760, Note_on_c, 12, 59, 127
2, 208930, Note_off_c, 3, 75, 127
2, 208931, Note_on_c, 6, 78, 127
2, 209101, Note_off_c, 6, 78, 127
2, 209101, Note_off_c, 12, 59, 127
2, 209102, Note_on_c, 12, 83, 127
2, 209102, Note_on_c, 3, 51, 127
2, 209272, Note_off_c, 3, 51, 127
2, 209272, Note_off_c, 12, 83, 127
2, 209273, Note_on_c, 10, 81, 127
2, 209273, Note_on_c, 12, 59, 127
2, 209443, Note_off_c, 10, 81, 127
2, 209444, Note_on_c, 12, 83, 127
2, 209614, Note_off_c, 12, 83, 127
2, 209614, Note_off_c, 12, 59, 127
2, 209615, Note_on_c, 6, 78, 127
2, 209615, Note_on_c, 3, 51, 127
2, 209785, Note_off_c, 3, 51, 127
2, 209785, Note_off_c, 6, 78, 127
2, 209786, Note_on_c, 8, 80, 127
2, 209786, Note_on_c, 4, 52, 127
2, 209956, Note_off_c, 4, 52, 127
2, 209956, Note_off_c, 8, 80, 127
2, 209957, Note_on_c, 10, 81, 127
2, 209957, Note_on_c, 4, 40, 127
2, 210127, Note_off_c, 4, 40, 127
2, 210127, Note_off_c, 10, 81, 127
2, 210128, Note_on_c, 6, 78, 127
2, 210128, Note_on_c, 6, 54, 127
2, 210298, Note_off_c, 6, 54, 127
2, 210298, Note_off_c, 6, 78, 127
2, 210299, Note_on_c, 4, 76, 127
2, 210299, Note_on_c, 8, 56, 127
2, 210469, Note_off_c, 8, 56, 127
2, 210469, Note_off_c, 4, 76, 127
2, 210470, Note_on_c, 6, 78, 127
2, 210470, Note_on_c, 6, 54, 127
2, 210640, Note_off_c, 6, 54, 127
2, 210640, Note_off_c, 6, 78, 127
2, 210641, Note_on_c, 2, 74, 127
2, 210641, Note_on_c, 4, 52, 127
2, 210811, Note_off_c, 4, 52, 127
2, 210811, Note_off_c, 2, 74, 127
2, 210812, Note_on_c, 1, 73, 127
2, 210812, Note_on_c, 10, 57, 127
2, 210982, Note_off_c, 1, 73, 127
2, 210983, Note_on_c, 4, 76, 127
2, 211153, Note_off_c, 4, 76, 127
2, 211153, Note_off_c, 10, 57, 127
2, 211154, Note_on_c, 10, 81, 127
2, 211154, Note_on_c, 1, 49, 127
2, 211324, Note_off_c, 1, 49, 127
2, 211324, Note_off_c, 10, 81, 127
2, 211325, Note_on_c, 7, 79, 127
2, 211325, Note_on_c, 10, 57, 127
2, 211495, Note_off_c, 7, 79, 127
2, 211496, Note_on_c, 10, 81, 127
2, 211666, Note_off_c, 10, 81, 127
2, 211666, Note_off_c, 10, 57, 127
2, 211667, Note_on_c, 4, 76, 127
2, 211667, Note_on_c, 1, 49, 127
2, 211837, Note_off_c, 1, 49, 127
2, 211837, Note_off_c, 4, 76, 127
2, 211838, Note_on_c, 6, 78, 127
2, 211838, Note_on_c, 2, 50, 127
2, 212008, Note_off_c, 6, 78, 127
2, 212009, Note_on_c, 7, 79, 127
2, 212179, Note_off_c, 7, 79, 127
2, 212179, Note_off_c, 2, 50, 127
2, 212180, Note_on_c, 2, 74, 127
2, 212180, Note_on_c, 12, 59, 127
2, 212350, Note_off_c, 12, 59, 127
2, 212350, Note_off_c, 2, 74, 127
2, 212351, Note_on_c, 4, 76, 127
2, 212351, Note_on_c, 1, 49, 127
2, 212521, Note_off_c, 4, 76, 127
2, 212522, Note_on_c, 6, 78, 127
2, 212692, Note_off_c, 6, 78, 127
2, 212692, Note_off_c, 1, 49, 127
2, 212693, Note_on_c, 1, 73, 127
2, 212693, Note_on_c, 10, 57, 127
2, 212863, Note_off_c, 10, 57, 127
2, 212863, Note_off_c, 1, 73, 127
2, 212864, Note_on_c, 2, 74, 127
2, 212864, Note_on_c, 12, 47, 127
2, 213034, Note_off_c, 2, 74, 127
2, 213035, Note_on_c, 4, 76, 127
2, 213205, Note_off_c, 4, 76, 127
2, 213205, Note_off_c, 12, 47, 127
2, 213206, Note_on_c, 12, 71, 127
2, 213206, Note_on_c, 8, 56, 127
2, 213376, Note_off_c, 8, 56, 127
2, 213376, Note_off_c, 12, 71, 127
2, 213377, Note_on_c, 1, 73, 127
2, 213377, Note_on_c, 10, 57, 127
2, 213547, Note_off_c, 10, 57, 127
2, 213547, Note_off_c, 1, 73, 127
2, 213548, Note_on_c, 12, 71, 127
2, 213548, Note_on_c, 8, 56, 127
2, 213718, Note_off_c, 8, 56, 127
2, 213718, Note_off_c, 12, 71, 127
2, 213719, Note_on_c, 10, 69, 127
2, 213719, Note_on_c, 6, 54, 127
2, 213889, Note_off_c, 6, 54, 127
2, 213889, Note_off_c, 10, 69, 127
2, 213890, Note_on_c, 12, 71, 127
2, 213890, Note_on_c, 8, 56, 127
2, 214060, Note_off_c, 8, 56, 127
2, 214061, Note_on_c, 10, 57, 127
2, 214231, Note_off_c, 10, 57, 127
2, 214231, Note_off_c, 12, 71, 127
2, 214232, Note_on_c, 4, 64, 127
2, 214232, Note_on_c, 6, 54, 127
2, 214402, Note_off_c, 6, 54, 127
2, 214402, Note_off_c, 4, 64, 127
2, 214403, Note_on_c, 4, 64, 127
2, 214403, Note_on_c, 4, 52, 127
2, 214573, Note_off_c, 4, 52, 127
2, 214574, Note_on_c, 6, 54, 127
2, 214744, Note_off_c, 6, 54, 127
2, 214744, Note_off_c, 4, 64, 127
2, 214745, Note_on_c, 4, 76, 127
2, 214745, Note_on_c, 2, 50, 127
2, 214915, Note_off_c, 2, 50, 127
2, 214915, Note_off_c, 4, 76, 127
2, 214916, Note_on_c, 6, 78, 127
2, 214916, Note_on_c, 1, 49, 127
2, 215030, Note_off_c, 6, 78, 127
2, 215030, Note_on_c, 4, 76, 127
2, 215086, Note_off_c, 1, 49, 127
2, 215087, Note_off_c, 4, 76, 127
2, 215087, Note_on_c, 6, 78, 127
2, 215087, Note_on_c, 4, 52, 127
2, 215144, Note_off_c, 6, 78, 127
2, 215144, Note_on_c, 4, 76, 127
2, 215201, Note_off_c, 4, 76, 127
2, 215201, Note_on_c, 6, 78, 127
2, 215257, Note_off_c, 4, 52, 127
2, 215258, Note_off_c, 6, 78, 127
2, 215258, Note_on_c, 4, 76, 127
2, 215258, Note_on_c, 10, 57, 127
2, 215315, Note_off_c, 4, 76, 127
2, 215315, Note_on_c, 6, 78, 127
2, 215372, Note_off_c, 6, 78, 127
2, 215372, Note_on_c, 4, 76, 127
2, 215428, Note_off_c, 10, 57, 127
2, 215429, Note_off_c, 4, 76, 127
2, 215429, Note_on_c, 6, 78, 127
2, 215429, Note_on_c, 12, 47, 127
2, 215486, Note_off_c, 6, 78, 127
2, 215486, Note_on_c, 4, 76, 127
2, 215543, Note_off_c, 4, 76, 127
2, 215543, Note_on_c, 6, 78, 127
2, 215599, Note_off_c, 12, 47, 127
2, 215600, Note_off_c, 6, 78, 127
2, 215600, Note_on_c, 4, 76, 127
2, 215600, Note_on_c, 2, 50, 127
2, 215657, Note_off_c, 4, 76, 127
2, 215657, Note_on_c, 6, 78, 127
2, 215714, Note_off_c, 6, 78, 127
2, 215714, Note_on_c, 4, 76, 127
2, 215770, Note_off_c, 2, 50, 127
2, 215771, Note_off_c, 4, 76, 127
2, 215771, Note_on_c, 6, 78, 127
2, 215771, Note_on_c, 8, 56, 127
2, 215828, Note_off_c, 6, 78, 127
2, 215828, Note_on_c, 4, 76, 127
2, 215885, Note_off_c, 4, 76, 127
2, 215885, Note_on_c, 6, 78, 127
2, 215941, Note_off_c, 8, 56, 127
2, 215942, Note_off_c, 6, 78, 127
2, 215942, Note_on_c, 4, 76, 127
2, 215942, Note_on_c, 10, 45, 127
2, 215999, Note_off_c, 4, 76, 127
2, 215999, Note_on_c, 6, 78, 127
2, 216056, Note_off_c, 6, 78, 127
2, 216056, Note_on_c, 4, 76, 127
2, 216112, Note_off_c, 10, 45, 127
2, 216113, Note_off_c, 4, 76, 127
2, 216113, Note_on_c, 6, 78, 127
2, 216113, Note_on_c, 1, 49, 127
2, 216170, Note_off_c, 6, 78, 127
2, 216170, Note_on_c, 4, 76, 127
2, 216227, Note_off_c, 4, 76, 127
2, 216227, Note_on_c, 6, 78, 127
2, 216283, Note_off_c, 1, 49, 127
2, 216284, Note_off_c, 6, 78, 127
2, 216284, Note_on_c, 4, 76, 127
2, 216284, Note_on_c, 6, 54, 127
2, 216341, Note_off_c, 4, 76, 127
2, 216341, Note_on_c, 6, 78, 127
2, 216398, Note_off_c, 6, 78, 127
2, 216398, Note_on_c, 4, 76, 127
2, 216454, Note_off_c, 6, 54, 127
2, 216455, Note_off_c, 4, 76, 127
2, 216455, Note_on_c, 6, 78, 127
2, 216455, Note_on_c, 8, 44, 127
2, 216512, Note_off_c, 6, 78, 127
2, 216512, Note_on_c, 4, 76, 127
2, 216569, Note_off_c, 4, 76, 127
2, 216569, Note_on_c, 6, 78, 127
2, 216625, Note_off_c, 8, 44, 127
2, 216626, Note_off_c, 6, 78, 127
2, 216626, Note_on_c, 4, 76, 127
2, 216626, Note_on_c, 12, 47, 127
2, 216792, Note_off_c, 4, 76, 127
2, 216796, Note_off_c, 12, 47, 127
2, 216797, Note_on_c, 4, 76, 127
2, 216797, Note_on_c, 4, 52, 127
2, 216966, Note_off_c, 4, 76, 127
2, 216967, Note_off_c, 4, 52, 127
2, 216968, Note_on_c, 1, 73, 127
2, 216968, Note_on_c, 10, 45, 127
2, 217138, Note_off_c, 10, 45, 127
2, 217138, Note_off_c, 1, 73, 127
2, 217139, Note_on_c, 6, 78, 127
2, 217139, Note_on_c, 1, 49, 127
2, 217309, Note_off_c, 1, 49, 127
2, 217309, Note_off_c, 6, 78, 127
2, 217310, Note_on_c, 10, 69, 127
2, 217310, Note_on_c, 6, 54, 127
2, 217480, Note_off_c, 6, 54, 127
2, 217480, Note_off_c, 10, 69, 127
2, 217481, Note_on_c, 12, 71, 127
2, 217481, Note_on_c, 8, 44, 127
2, 217651, Note_off_c, 8, 44, 127
2, 217651, Note_off_c, 12, 71, 127
2, 217652, Note_on_c, 4, 76, 127
2, 217652, Note_on_c, 12, 47, 127
2, 217822, Note_off_c, 12, 47, 127
2, 217822, Note_off_c, 4, 76, 127
2, 217823, Note_on_c, 8, 68, 127
2, 217823, Note_on_c, 4, 52, 127
2, 217993, Note_off_c, 4, 52, 127
2, 217993, Note_off_c, 8, 68, 127
2, 217994, Note_on_c, 10, 69, 127
2, 217994, Note_on_c, 6, 42, 127
2, 218164, Note_off_c, 6, 42, 127
2, 218164, Note_off_c, 10, 69, 127
2, 218165, Note_on_c, 2, 74, 127
2, 218165, Note_on_c, 10, 45, 127
2, 218335, Note_off_c, 10, 45, 127
2, 218335, Note_off_c, 2, 74, 127
2, 218336, Note_on_c, 6, 66, 127
2, 218336, Note_on_c, 2, 50, 127
2, 218506, Note_off_c, 2, 50, 127
2, 218506, Note_off_c, 6, 66, 127
2, 218507, Note_on_c, 12, 71, 127
2, 218507, Note_on_c, 4, 40, 127
2, 218677, Note_off_c, 4, 40, 127
2, 218677, Note_off_c, 12, 71, 127
2, 218678, Note_on_c, 2, 74, 127
2, 218678, Note_on_c, 12, 47, 127
2, 218848, Note_off_c, 12, 47, 127
2, 218848, Note_off_c, 2, 74, 127
2, 218849, Note_on_c, 6, 66, 127
2, 218849, Note_on_c, 2, 50, 127
2, 219019, Note_off_c, 2, 50, 127
2, 219019, Note_off_c, 6, 66, 127
2, 219020, Note_on_c, 8, 68, 127
2, 219020, Note_on_c, 4, 52, 127
2, 219203, Note_off_c, 8, 68, 127
2, 219204, Note_on_c, 4, 64, 127
2, 219387, Note_off_c, 4, 64, 127
2, 219387, Note_off_c, 4, 52, 127
2, 219388, Note_on_c, 4, 76, 127
2, 219388, Note_on_c, 1, 49, 127
2, 219571, Note_off_c, 1, 49, 127
2, 219571, Note_off_c, 4, 76, 127
2, 219572, Note_on_c, 2, 74, 127
2, 219572, Note_on_c, 4, 52, 127
2, 219632, Note_off_c, 2, 74, 127
2, 219633, Note_on_c, 1, 73, 127
2, 219693, Note_off_c, 1, 73, 127
2, 219694, Note_on_c, 2, 74, 127
2, 219754, Note_off_c, 2, 74, 127
2, 219755, Note_on_c, 1, 73, 127
2, 219846, Note_off_c, 1, 73, 127
2, 219847, Note_on_c, 12, 71, 127
2, 219938, Note_off_c, 12, 71, 127
2, 219938, Note_off_c, 4, 52, 127
2, 219939, Note_on_c, 10, 69, 127
2, 219939, Note_on_c, 4, 40, 127
2, 220122, Note_off_c, 4, 40, 127
2, 220122, Note_off_c, 10, 69, 127
2, 220123, Note_on_c, 10, 69, 127
2, 220123, Note_on_c, 10, 45, 127
2, 220364, Note_off_c, 10, 45, 127
2, 220376, Note_on_c, 1, 49, 127
2, 220617, Note_off_c, 1, 49, 127
2, 220640, Note_on_c, 4, 52, 127
2, 220894, Note_off_c, 4, 52, 127
2, 220944, Note_on_c, 10, 57, 127
2, 221923, Note_off_c, 10, 69, 127
2, 222344, Note_off_c, 10, 57, 127
2, 227328, End_track
3, 0, Start_track
3, 0, Title_t, "MIDI"
3, 1536, End_track
0, 0, End_of_file
