0, 0, Header, 1, 4, 240
1, 0, Start_track
1, 0, Time_signature, 3, 2, 24, 8
1, 0, Tempo, 833333
1, 5760, Time_signature, 3, 2, 24, 8
1, 5760, End_track
2, 0, Start_track
2, 0, Title_t, "English Suite 5, 4. Saraband"
2, 0, Program_c, 0, 0
2, 0, Note_on_c, 0, 71, 107
2, 0, Note_on_c, 0, 67, 107
2, 96, Note_off_c, 0, 71, 64
2, 120, Note_on_c, 0, 69, 107
2, 168, Note_off_c, 0, 69, 64
2, 180, Note_on_c, 0, 71, 107
2, 192, Note_off_c, 0, 67, 64
2, 228, Note_off_c, 0, 71, 64
2, 240, Note_on_c, 0, 69, 107
2, 240, Note_on_c, 0, 72, 107
2, 336, Note_off_c, 0, 72, 64
2, 336, Note_off_c, 0, 69, 64
2, 360, Note_on_c, 0, 67, 107
2, 360, Note_on_c, 0, 71, 107
2, 456, Note_off_c, 0, 71, 64
2, 456, Note_off_c, 0, 67, 64
2, 480, Note_on_c, 0, 66, 107
2, 480, Note_on_c, 0, 69, 107
2, 576, Note_off_c, 0, 69, 64
2, 576, Note_off_c, 0, 66, 64
2, 600, Note_on_c, 0, 64, 107
2, 600, Note_on_c, 0, 67, 107
2, 696, Note_off_c, 0, 67, 64
2, 696, Note_off_c, 0, 64, 64
2, 720, Note_on_c, 0, 63, 107
2, 720, Note_on_c, 0, 66, 107
2, 768, Note_off_c, 0, 66, 64
2, 780, Note_on_c, 0, 69, 107
2, 828, Note_off_c, 0, 69, 64
2, 840, Note_on_c, 0, 67, 107
2, 888, Note_off_c, 0, 67, 64
2, 900, Note_on_c, 0, 66, 107
2, 912, Note_off_c, 0, 63, 64
2, 948, Note_off_c, 0, 66, 64
2, 960, Note_on_c, 0, 67, 107
2, 960, Note_on_c, 0, 64, 107
2, 1152, Note_off_c, 0, 64, 64
2, 1152, Note_off_c, 0, 67, 64
2, 1200, Note_on_c, 0, 64, 107
2, 1200, Note_on_c, 0, 59, 107
2, 1392, Note_off_c, 0, 59, 64
2, 1392, Note_off_c, 0, 64, 64
2, 1440, Note_on_c, 0, 74, 107
2, 1440, Note_on_c, 0, 67, 107
2, 1536, Note_off_c, 0, 74, 64
2, 1560, Note_on_c, 0, 72, 107
2, 1608, Note_off_c, 0, 72, 64
2, 1620, Note_on_c, 0, 74, 107
2, 1632, Note_off_c, 0, 67, 64
2, 1668, Note_off_c, 0, 74, 64
2, 1680, Note_on_c, 0, 67, 107
2, 1680, Note_on_c, 0, 76, 107
2, 1776, Note_off_c, 0, 76, 64
2, 1776, Note_off_c, 0, 67, 64
2, 1800, Note_on_c, 0, 71, 107
2, 1800, Note_on_c, 0, 74, 107
2, 1896, Note_off_c, 0, 74, 64
2, 1896, Note_off_c, 0, 71, 64
2, 1920, Note_on_c, 0, 69, 107
2, 1920, Note_on_c, 0, 72, 107
2, 2016, Note_off_c, 0, 72, 64
2, 2016, Note_off_c, 0, 69, 64
2, 2040, Note_on_c, 0, 67, 107
2, 2040, Note_on_c, 0, 71, 107
2, 2136, Note_off_c, 0, 71, 64
2, 2136, Note_off_c, 0, 67, 64
2, 2160, Note_on_c, 0, 69, 107
2, 2160, Note_on_c, 0, 66, 107
2, 2208, Note_off_c, 0, 69, 64
2, 2220, Note_on_c, 0, 72, 107
2, 2268, Note_off_c, 0, 72, 64
2, 2280, Note_on_c, 0, 71, 107
2, 2328, Note_off_c, 0, 71, 64
2, 2340, Note_on_c, 0, 69, 107
2, 2352, Note_off_c, 0, 66, 64
2, 2388, Note_off_c, 0, 69, 64
2, 2400, Note_on_c, 0, 67, 107
2, 2400, Note_on_c, 0, 67, 107
2, 2544, Note_off_c, 0, 67, 64
2, 2544, Note_off_c, 0, 67, 64
2, 2580, Note_on_c, 0, 71, 107
2, 2628, Note_off_c, 0, 71, 64
2, 2640, Note_on_c, 0, 76, 107
2, 2760, Note_on_c, 0, 71, 107
2, 2808, Note_off_c, 0, 71, 64
2, 2880, Note_on_c, 0, 69, 107
2, 2976, Note_off_c, 0, 76, 64
2, 3000, Note_on_c, 0, 74, 107
2, 3048, Note_off_c, 0, 74, 64
2, 3060, Note_on_c, 0, 73, 107
2, 3108, Note_off_c, 0, 73, 64
2, 3120, Note_on_c, 0, 74, 107
2, 3168, Note_off_c, 0, 69, 64
2, 3216, Note_off_c, 0, 74, 64
2, 3240, Note_on_c, 0, 76, 107
2, 3240, Note_on_c, 0, 71, 107
2, 3288, Note_off_c, 0, 71, 64
2, 3300, Note_on_c, 0, 73, 107
2, 3336, Note_off_c, 0, 76, 64
2, 3348, Note_off_c, 0, 73, 64
2, 3360, Note_on_c, 0, 78, 107
2, 3360, Note_on_c, 0, 74, 107
2, 3456, Note_off_c, 0, 74, 64
2, 3480, Note_on_c, 0, 73, 107
2, 3576, Note_off_c, 0, 73, 64
2, 3600, Note_on_c, 0, 71, 107
2, 3696, Note_off_c, 0, 78, 64
2, 3720, Note_on_c, 0, 76, 107
2, 3768, Note_off_c, 0, 76, 64
2, 3780, Note_on_c, 0, 75, 107
2, 3828, Note_off_c, 0, 75, 64
2, 3840, Note_on_c, 0, 76, 107
2, 3888, Note_off_c, 0, 71, 64
2, 3936, Note_off_c, 0, 76, 64
2, 3960, Note_on_c, 0, 78, 107
2, 3960, Note_on_c, 0, 73, 107
2, 4008, Note_off_c, 0, 73, 64
2, 4020, Note_on_c, 0, 75, 107
2, 4056, Note_off_c, 0, 78, 64
2, 4068, Note_off_c, 0, 75, 64
2, 4080, Note_on_c, 0, 76, 107
2, 4080, Note_on_c, 0, 79, 107
2, 4128, Note_off_c, 0, 79, 64
2, 4140, Note_on_c, 0, 78, 107
2, 4176, Note_off_c, 0, 76, 64
2, 4188, Note_off_c, 0, 78, 64
2, 4200, Note_on_c, 0, 73, 107
2, 4200, Note_on_c, 0, 76, 107
2, 4248, Note_off_c, 0, 76, 64
2, 4260, Note_on_c, 0, 79, 107
2, 4296, Note_off_c, 0, 73, 64
2, 4308, Note_off_c, 0, 79, 64
2, 4320, Note_on_c, 0, 78, 107
2, 4320, Note_on_c, 0, 74, 107
2, 4368, Note_off_c, 0, 78, 64
2, 4380, Note_on_c, 0, 79, 107
2, 4428, Note_off_c, 0, 79, 64
2, 4440, Note_on_c, 0, 76, 107
2, 4488, Note_off_c, 0, 76, 64
2, 4500, Note_on_c, 0, 78, 107
2, 4512, Note_off_c, 0, 74, 64
2, 4548, Note_off_c, 0, 78, 64
2, 4560, Note_on_c, 0, 76, 107
2, 4560, Note_on_c, 0, 79, 107
2, 4656, Note_off_c, 0, 79, 64
2, 4656, Note_off_c, 0, 76, 64
2, 4680, Note_on_c, 0, 78, 107
2, 4680, Note_on_c, 0, 74, 107
2, 4776, Note_off_c, 0, 74, 64
2, 4776, Note_off_c, 0, 78, 64
2, 4800, Note_on_c, 0, 73, 107
2, 4800, Note_on_c, 0, 76, 107
2, 4896, Note_off_c, 0, 76, 64
2, 4896, Note_off_c, 0, 73, 64
2, 4920, Note_on_c, 0, 74, 107
2, 4920, Note_on_c, 0, 71, 107
2, 5016, Note_off_c, 0, 71, 64
2, 5016, Note_off_c, 0, 74, 64
2, 5040, Note_on_c, 0, 70, 107
2, 5040, Note_on_c, 0, 74, 107
2, 5055, Note_off_c, 0, 74, 64
2, 5055, Note_on_c, 0, 73, 107
2, 5070, Note_off_c, 0, 73, 64
2, 5070, Note_on_c, 0, 74, 107
2, 5085, Note_off_c, 0, 74, 64
2, 5085, Note_on_c, 0, 73, 107
2, 5100, Note_off_c, 0, 73, 64
2, 5100, Note_on_c, 0, 71, 107
2, 5148, Note_off_c, 0, 71, 64
2, 5160, Note_on_c, 0, 73, 107
2, 5208, Note_off_c, 0, 73, 64
2, 5220, Note_on_c, 0, 74, 107
2, 5232, Note_off_c, 0, 70, 64
2, 5268, Note_off_c, 0, 74, 64
2, 5280, Note_on_c, 0, 71, 107
2, 5400, Note_on_c, 0, 66, 107
2, 5496, Note_off_c, 0, 66, 64
2, 5520, Note_on_c, 0, 64, 107
2, 5532, Note_off_c, 0, 64, 64
2, 5535, Note_on_c, 0, 63, 107
2, 5547, Note_off_c, 0, 63, 64
2, 5550, Note_on_c, 0, 64, 107
2, 5562, Note_off_c, 0, 64, 64
2, 5565, Note_on_c, 0, 63, 107
2, 5664, Note_off_c, 0, 71, 64
2, 5693, Note_off_c, 0, 63, 64
2, 5760, Note_on_c, 0, 71, 107
2, 5760, Note_on_c, 0, 67, 107
2, 5856, Note_off_c, 0, 71, 64
2, 5880, Note_on_c, 0, 69, 107
2, 5928, Note_off_c, 0, 69, 64
2, 5940, Note_on_c, 0, 71, 107
2, 5952, Note_off_c, 0, 67, 64
2, 5988, Note_off_c, 0, 71, 64
2, 6000, Note_on_c, 0, 69, 107
2, 6000, Note_on_c, 0, 72, 107
2, 6096, Note_off_c, 0, 72, 64
2, 6096, Note_off_c, 0, 69, 64
2, 6120, Note_on_c, 0, 67, 107
2, 6120, Note_on_c, 0, 71, 107
2, 6216, Note_off_c, 0, 71, 64
2, 6216, Note_off_c, 0, 67, 64
2, 6240, Note_on_c, 0, 66, 107
2, 6240, Note_on_c, 0, 69, 107
2, 6336, Note_off_c, 0, 69, 64
2, 6336, Note_off_c, 0, 66, 64
2, 6360, Note_on_c, 0, 64, 107
2, 6360, Note_on_c, 0, 67, 107
2, 6456, Note_off_c, 0, 67, 64
2, 6456, Note_off_c, 0, 64, 64
2, 6480, Note_on_c, 0, 63, 107
2, 6480, Note_on_c, 0, 66, 107
2, 6528, Note_off_c, 0, 66, 64
2, 6540, Note_on_c, 0, 69, 107
2, 6588, Note_off_c, 0, 69, 64
2, 6600, Note_on_c, 0, 67, 107
2, 6648, Note_off_c, 0, 67, 64
2, 6660, Note_on_c, 0, 66, 107
2, 6672, Note_off_c, 0, 63, 64
2, 6708, Note_off_c, 0, 66, 64
2, 6720, Note_on_c, 0, 67, 107
2, 6720, Note_on_c, 0, 64, 107
2, 6912, Note_off_c, 0, 64, 64
2, 6912, Note_off_c, 0, 67, 64
2, 6960, Note_on_c, 0, 64, 107
2, 6960, Note_on_c, 0, 59, 107
2, 7152, Note_off_c, 0, 59, 64
2, 7152, Note_off_c, 0, 64, 64
2, 7200, Note_on_c, 0, 74, 107
2, 7200, Note_on_c, 0, 67, 107
2, 7296, Note_off_c, 0, 74, 64
2, 7320, Note_on_c, 0, 72, 107
2, 7368, Note_off_c, 0, 72, 64
2, 7380, Note_on_c, 0, 74, 107
2, 7392, Note_off_c, 0, 67, 64
2, 7428, Note_off_c, 0, 74, 64
2, 7440, Note_on_c, 0, 67, 107
2, 7440, Note_on_c, 0, 76, 107
2, 7536, Note_off_c, 0, 76, 64
2, 7536, Note_off_c, 0, 67, 64
2, 7560, Note_on_c, 0, 71, 107
2, 7560, Note_on_c, 0, 74, 107
2, 7656, Note_off_c, 0, 74, 64
2, 7656, Note_off_c, 0, 71, 64
2, 7680, Note_on_c, 0, 69, 107
2, 7680, Note_on_c, 0, 72, 107
2, 7776, Note_off_c, 0, 72, 64
2, 7776, Note_off_c, 0, 69, 64
2, 7800, Note_on_c, 0, 67, 107
2, 7800, Note_on_c, 0, 71, 107
2, 7896, Note_off_c, 0, 71, 64
2, 7896, Note_off_c, 0, 67, 64
2, 7920, Note_on_c, 0, 69, 107
2, 7920, Note_on_c, 0, 66, 107
2, 7968, Note_off_c, 0, 69, 64
2, 7980, Note_on_c, 0, 72, 107
2, 8028, Note_off_c, 0, 72, 64
2, 8040, Note_on_c, 0, 71, 107
2, 8088, Note_off_c, 0, 71, 64
2, 8100, Note_on_c, 0, 69, 107
2, 8112, Note_off_c, 0, 66, 64
2, 8148, Note_off_c, 0, 69, 64
2, 8160, Note_on_c, 0, 67, 107
2, 8160, Note_on_c, 0, 67, 107
2, 8304, Note_off_c, 0, 67, 64
2, 8304, Note_off_c, 0, 67, 64
2, 8340, Note_on_c, 0, 71, 107
2, 8388, Note_off_c, 0, 71, 64
2, 8400, Note_on_c, 0, 76, 107
2, 8520, Note_on_c, 0, 71, 107
2, 8568, Note_off_c, 0, 71, 64
2, 8640, Note_on_c, 0, 69, 107
2, 8736, Note_off_c, 0, 76, 64
2, 8760, Note_on_c, 0, 74, 107
2, 8808, Note_off_c, 0, 74, 64
2, 8820, Note_on_c, 0, 73, 107
2, 8868, Note_off_c, 0, 73, 64
2, 8880, Note_on_c, 0, 74, 107
2, 8928, Note_off_c, 0, 69, 64
2, 8976, Note_off_c, 0, 74, 64
2, 9000, Note_on_c, 0, 76, 107
2, 9000, Note_on_c, 0, 71, 107
2, 9048, Note_off_c, 0, 71, 64
2, 9060, Note_on_c, 0, 73, 107
2, 9096, Note_off_c, 0, 76, 64
2, 9108, Note_off_c, 0, 73, 64
2, 9120, Note_on_c, 0, 78, 107
2, 9120, Note_on_c, 0, 74, 107
2, 9216, Note_off_c, 0, 74, 64
2, 9240, Note_on_c, 0, 73, 107
2, 9336, Note_off_c, 0, 73, 64
2, 9360, Note_on_c, 0, 71, 107
2, 9456, Note_off_c, 0, 78, 64
2, 9480, Note_on_c, 0, 76, 107
2, 9528, Note_off_c, 0, 76, 64
2, 9540, Note_on_c, 0, 75, 107
2, 9588, Note_off_c, 0, 75, 64
2, 9600, Note_on_c, 0, 76, 107
2, 9648, Note_off_c, 0, 71, 64
2, 9696, Note_off_c, 0, 76, 64
2, 9720, Note_on_c, 0, 78, 107
2, 9720, Note_on_c, 0, 73, 107
2, 9768, Note_off_c, 0, 73, 64
2, 9780, Note_on_c, 0, 75, 107
2, 9816, Note_off_c, 0, 78, 64
2, 9828, Note_off_c, 0, 75, 64
2, 9840, Note_on_c, 0, 76, 107
2, 9840, Note_on_c, 0, 79, 107
2, 9888, Note_off_c, 0, 79, 64
2, 9900, Note_on_c, 0, 78, 107
2, 9936, Note_off_c, 0, 76, 64
2, 9948, Note_off_c, 0, 78, 64
2, 9960, Note_on_c, 0, 73, 107
2, 9960, Note_on_c, 0, 76, 107
2, 10008, Note_off_c, 0, 76, 64
2, 10020, Note_on_c, 0, 79, 107
2, 10056, Note_off_c, 0, 73, 64
2, 10068, Note_off_c, 0, 79, 64
2, 10080, Note_on_c, 0, 78, 107
2, 10080, Note_on_c, 0, 74, 107
2, 10128, Note_off_c, 0, 78, 64
2, 10140, Note_on_c, 0, 79, 107
2, 10188, Note_off_c, 0, 79, 64
2, 10200, Note_on_c, 0, 76, 107
2, 10248, Note_off_c, 0, 76, 64
2, 10260, Note_on_c, 0, 78, 107
2, 10272, Note_off_c, 0, 74, 64
2, 10308, Note_off_c, 0, 78, 64
2, 10320, Note_on_c, 0, 76, 107
2, 10320, Note_on_c, 0, 79, 107
2, 10416, Note_off_c, 0, 79, 64
2, 10416, Note_off_c, 0, 76, 64
2, 10440, Note_on_c, 0, 78, 107
2, 10440, Note_on_c, 0, 74, 107
2, 10536, Note_off_c, 0, 74, 64
2, 10536, Note_off_c, 0, 78, 64
2, 10560, Note_on_c, 0, 73, 107
2, 10560, Note_on_c, 0, 76, 107
2, 10656, Note_off_c, 0, 76, 64
2, 10656, Note_off_c, 0, 73, 64
2, 10680, Note_on_c, 0, 74, 107
2, 10680, Note_on_c, 0, 71, 107
2, 10776, Note_off_c, 0, 71, 64
2, 10776, Note_off_c, 0, 74, 64
2, 10800, Note_on_c, 0, 70, 107
2, 10800, Note_on_c, 0, 74, 107
2, 10815, Note_off_c, 0, 74, 64
2, 10815, Note_on_c, 0, 73, 107
2, 10830, Note_off_c, 0, 73, 64
2, 10830, Note_on_c, 0, 74, 107
2, 10845, Note_off_c, 0, 74, 64
2, 10845, Note_on_c, 0, 73, 107
2, 10860, Note_off_c, 0, 73, 64
2, 10860, Note_on_c, 0, 71, 107
2, 10908, Note_off_c, 0, 71, 64
2, 10920, Note_on_c, 0, 73, 107
2, 10968, Note_off_c, 0, 73, 64
2, 10980, Note_on_c, 0, 74, 107
2, 10992, Note_off_c, 0, 70, 64
2, 11028, Note_off_c, 0, 74, 64
2, 11040, Note_on_c, 0, 71, 107
2, 11160, Note_on_c, 0, 66, 107
2, 11256, Note_off_c, 0, 66, 64
2, 11280, Note_on_c, 0, 64, 107
2, 11292, Note_off_c, 0, 64, 64
2, 11295, Note_on_c, 0, 63, 107
2, 11307, Note_off_c, 0, 63, 64
2, 11310, Note_on_c, 0, 64, 107
2, 11322, Note_off_c, 0, 64, 64
2, 11325, Note_on_c, 0, 63, 107
2, 11424, Note_off_c, 0, 71, 64
2, 11453, Note_off_c, 0, 63, 64
2, 11520, Note_on_c, 0, 78, 107
2, 11520, Note_on_c, 0, 75, 107
2, 11568, Note_off_c, 0, 78, 64
2, 11580, Note_on_c, 0, 79, 107
2, 11628, Note_off_c, 0, 79, 64
2, 11640, Note_on_c, 0, 81, 107
2, 11688, Note_off_c, 0, 81, 64
2, 11700, Note_on_c, 0, 79, 107
2, 11712, Note_off_c, 0, 75, 64
2, 11748, Note_off_c, 0, 79, 64
2, 11760, Note_on_c, 0, 78, 107
2, 11856, Note_off_c, 0, 78, 64
2, 11880, Note_on_c, 0, 71, 107
2, 11880, Note_on_c, 0, 75, 107
2, 11976, Note_off_c, 0, 75, 64
2, 11976, Note_off_c, 0, 71, 64
2, 12000, Note_on_c, 0, 73, 107
2, 12000, Note_on_c, 0, 76, 107
2, 12096, Note_off_c, 0, 76, 64
2, 12096, Note_off_c, 0, 73, 64
2, 12120, Note_on_c, 0, 78, 107
2, 12120, Note_on_c, 0, 75, 107
2, 12216, Note_off_c, 0, 75, 64
2, 12216, Note_off_c, 0, 78, 64
2, 12240, Note_on_c, 0, 76, 107
2, 12240, Note_on_c, 0, 79, 107
2, 12288, Note_off_c, 0, 79, 64
2, 12300, Note_on_c, 0, 81, 107
2, 12348, Note_off_c, 0, 81, 64
2, 12360, Note_on_c, 0, 83, 107
2, 12408, Note_off_c, 0, 83, 64
2, 12420, Note_on_c, 0, 81, 107
2, 12432, Note_off_c, 0, 76, 64
2, 12468, Note_off_c, 0, 81, 64
2, 12480, Note_on_c, 0, 79, 107
2, 12480, Note_on_c, 0, 76, 107
2, 12864, Note_off_c, 0, 76, 64
2, 12960, Note_on_c, 0, 73, 107
2, 13008, Note_off_c, 0, 79, 64
2, 13020, Note_on_c, 0, 78, 107
2, 13068, Note_off_c, 0, 78, 64
2, 13080, Note_on_c, 0, 76, 107
2, 13128, Note_off_c, 0, 76, 64
2, 13140, Note_on_c, 0, 78, 107
2, 13152, Note_off_c, 0, 73, 64
2, 13188, Note_off_c, 0, 78, 64
2, 13200, Note_on_c, 0, 79, 107
2, 13296, Note_off_c, 0, 79, 64
2, 13320, Note_on_c, 0, 73, 107
2, 13320, Note_on_c, 0, 83, 107
2, 13416, Note_off_c, 0, 83, 64
2, 13416, Note_off_c, 0, 73, 64
2, 13440, Note_on_c, 0, 81, 107
2, 13440, Note_on_c, 0, 74, 107
2, 13536, Note_off_c, 0, 74, 64
2, 13536, Note_off_c, 0, 81, 64
2, 13560, Note_on_c, 0, 79, 107
2, 13560, Note_on_c, 0, 76, 107
2, 13656, Note_off_c, 0, 76, 64
2, 13656, Note_off_c, 0, 79, 64
2, 13680, Note_on_c, 0, 69, 107
2, 13680, Note_on_c, 0, 78, 107
2, 13728, Note_off_c, 0, 78, 64
2, 13740, Note_on_c, 0, 76, 107
2, 13788, Note_off_c, 0, 76, 64
2, 13800, Note_on_c, 0, 74, 107
2, 13848, Note_off_c, 0, 74, 64
2, 13860, Note_on_c, 0, 76, 107
2, 13872, Note_off_c, 0, 69, 64
2, 13908, Note_off_c, 0, 76, 64
2, 13920, Note_on_c, 0, 78, 107
2, 13920, Note_on_c, 0, 69, 107
2, 14304, Note_off_c, 0, 69, 64
2, 14400, Note_on_c, 0, 71, 107
2, 14496, Note_off_c, 0, 78, 64
2, 14520, Note_on_c, 0, 77, 107
2, 14568, Note_off_c, 0, 77, 64
2, 14580, Note_on_c, 0, 76, 107
2, 14592, Note_off_c, 0, 71, 64
2, 14628, Note_off_c, 0, 76, 64
2, 14640, Note_on_c, 0, 77, 107
2, 14753, Note_off_c, 0, 77, 64
2, 14760, Note_on_c, 0, 83, 107
2, 14873, Note_off_c, 0, 83, 64
2, 14880, Note_on_c, 0, 81, 107
2, 14904, Note_off_c, 0, 81, 64
2, 14910, Note_on_c, 0, 80, 107
2, 14982, Note_off_c, 0, 80, 64
2, 15000, Note_on_c, 0, 77, 107
2, 15024, Note_off_c, 0, 77, 64
2, 15030, Note_on_c, 0, 76, 107
2, 15102, Note_off_c, 0, 76, 64
2, 15120, Note_on_c, 0, 74, 107
2, 15120, Note_on_c, 0, 71, 107
2, 15168, Note_off_c, 0, 74, 64
2, 15180, Note_on_c, 0, 77, 107
2, 15228, Note_off_c, 0, 77, 64
2, 15240, Note_on_c, 0, 76, 107
2, 15312, Note_off_c, 0, 71, 64
2, 15336, Note_off_c, 0, 76, 64
2, 15360, Note_on_c, 0, 77, 107
2, 15473, Note_off_c, 0, 77, 64
2, 15480, Note_on_c, 0, 76, 107
2, 15492, Note_off_c, 0, 76, 64
2, 15495, Note_on_c, 0, 74, 107
2, 15507, Note_off_c, 0, 74, 64
2, 15510, Note_on_c, 0, 76, 107
2, 15522, Note_off_c, 0, 76, 64
2, 15525, Note_on_c, 0, 74, 107
2, 15537, Note_off_c, 0, 74, 64
2, 15540, Note_on_c, 0, 73, 107
2, 15588, Note_off_c, 0, 73, 64
2, 15600, Note_on_c, 0, 74, 107
2, 15696, Note_off_c, 0, 74, 64
2, 15720, Note_on_c, 0, 74, 107
2, 15720, Note_on_c, 0, 71, 107
2, 15744, Note_off_c, 0, 74, 64
2, 15750, Note_on_c, 0, 76, 107
2, 15774, Note_off_c, 0, 76, 64
2, 15780, Note_on_c, 0, 77, 107
2, 15816, Note_off_c, 0, 71, 64
2, 15828, Note_off_c, 0, 77, 64
2, 15840, Note_on_c, 0, 72, 107
2, 15840, Note_on_c, 0, 76, 107
2, 15936, Note_off_c, 0, 76, 64
2, 15960, Note_on_c, 0, 74, 107
2, 16008, Note_off_c, 0, 74, 64
2, 16020, Note_on_c, 0, 76, 107
2, 16032, Note_off_c, 0, 72, 64
2, 16068, Note_off_c, 0, 76, 64
2, 16080, Note_on_c, 0, 77, 107
2, 16080, Note_on_c, 0, 74, 107
2, 16176, Note_off_c, 0, 74, 64
2, 16176, Note_off_c, 0, 77, 64
2, 16200, Note_on_c, 0, 76, 107
2, 16200, Note_on_c, 0, 72, 107
2, 16296, Note_off_c, 0, 72, 64
2, 16296, Note_off_c, 0, 76, 64
2, 16320, Note_on_c, 0, 74, 107
2, 16320, Note_on_c, 0, 71, 107
2, 16416, Note_off_c, 0, 71, 64
2, 16416, Note_off_c, 0, 74, 64
2, 16440, Note_on_c, 0, 72, 107
2, 16440, Note_on_c, 0, 69, 107
2, 16536, Note_off_c, 0, 69, 64
2, 16536, Note_off_c, 0, 72, 64
2, 16560, Note_on_c, 0, 71, 107
2, 16560, Note_on_c, 0, 68, 107
2, 16608, Note_off_c, 0, 71, 64
2, 16620, Note_on_c, 0, 74, 107
2, 16668, Note_off_c, 0, 74, 64
2, 16680, Note_on_c, 0, 72, 107
2, 16728, Note_off_c, 0, 72, 64
2, 16740, Note_on_c, 0, 71, 107
2, 16752, Note_off_c, 0, 68, 64
2, 16788, Note_off_c, 0, 71, 64
2, 16800, Note_on_c, 0, 69, 107
2, 16800, Note_on_c, 0, 69, 107
2, 17184, Note_off_c, 0, 69, 64
2, 17280, Note_on_c, 0, 66, 107
2, 17328, Note_off_c, 0, 69, 64
2, 17340, Note_on_c, 0, 67, 107
2, 17376, Note_off_c, 0, 66, 64
2, 17388, Note_off_c, 0, 67, 64
2, 17400, Note_on_c, 0, 66, 107
2, 17448, Note_off_c, 0, 66, 64
2, 17460, Note_on_c, 0, 67, 107
2, 17508, Note_off_c, 0, 67, 64
2, 17520, Note_on_c, 0, 69, 107
2, 17568, Note_off_c, 0, 69, 64
2, 17580, Note_on_c, 0, 71, 107
2, 17628, Note_off_c, 0, 71, 64
2, 17640, Note_on_c, 0, 72, 107
2, 17640, Note_on_c, 0, 66, 107
2, 17736, Note_off_c, 0, 66, 64
2, 17736, Note_off_c, 0, 72, 64
2, 17760, Note_on_c, 0, 72, 107
2, 17760, Note_on_c, 0, 67, 107
2, 17856, Note_off_c, 0, 67, 64
2, 17880, Note_on_c, 0, 69, 107
2, 17976, Note_off_c, 0, 69, 64
2, 18000, Note_on_c, 0, 62, 107
2, 18096, Note_off_c, 0, 72, 64
2, 18120, Note_on_c, 0, 71, 107
2, 18168, Note_off_c, 0, 71, 64
2, 18180, Note_on_c, 0, 69, 107
2, 18192, Note_off_c, 0, 62, 64
2, 18228, Note_off_c, 0, 69, 64
2, 18240, Note_on_c, 0, 71, 107
2, 18288, Note_off_c, 0, 71, 64
2, 18300, Note_on_c, 0, 73, 107
2, 18348, Note_off_c, 0, 73, 64
2, 18360, Note_on_c, 0, 74, 107
2, 18360, Note_on_c, 0, 69, 107
2, 18456, Note_off_c, 0, 69, 64
2, 18456, Note_off_c, 0, 74, 64
2, 18480, Note_on_c, 0, 74, 107
2, 18480, Note_on_c, 0, 68, 107
2, 18576, Note_off_c, 0, 68, 64
2, 18600, Note_on_c, 0, 69, 107
2, 18648, Note_off_c, 0, 69, 64
2, 18660, Note_on_c, 0, 71, 107
2, 18672, Note_off_c, 0, 74, 64
2, 18708, Note_off_c, 0, 71, 64
2, 18720, Note_on_c, 0, 73, 107
2, 18720, Note_on_c, 0, 64, 107
2, 18768, Note_off_c, 0, 73, 64
2, 18780, Note_on_c, 0, 71, 107
2, 18828, Note_off_c, 0, 71, 64
2, 18840, Note_on_c, 0, 69, 107
2, 18888, Note_off_c, 0, 69, 64
2, 18900, Note_on_c, 0, 71, 107
2, 18912, Note_off_c, 0, 64, 64
2, 18948, Note_off_c, 0, 71, 64
2, 18960, Note_on_c, 0, 73, 107
2, 19008, Note_off_c, 0, 73, 64
2, 19020, Note_on_c, 0, 75, 107
2, 19068, Note_off_c, 0, 75, 64
2, 19080, Note_on_c, 0, 71, 107
2, 19080, Note_on_c, 0, 76, 107
2, 19176, Note_off_c, 0, 76, 64
2, 19176, Note_off_c, 0, 71, 64
2, 19200, Note_on_c, 0, 76, 107
2, 19200, Note_on_c, 0, 70, 107
2, 19296, Note_off_c, 0, 70, 64
2, 19320, Note_on_c, 0, 71, 107
2, 19368, Note_off_c, 0, 71, 64
2, 19380, Note_on_c, 0, 73, 107
2, 19428, Note_off_c, 0, 73, 64
2, 19440, Note_on_c, 0, 66, 107
2, 19536, Note_off_c, 0, 76, 64
2, 19560, Note_on_c, 0, 75, 107
2, 19608, Note_off_c, 0, 75, 64
2, 19620, Note_on_c, 0, 73, 107
2, 19632, Note_off_c, 0, 66, 64
2, 19668, Note_off_c, 0, 73, 64
2, 19680, Note_on_c, 0, 75, 107
2, 19728, Note_off_c, 0, 75, 64
2, 19740, Note_on_c, 0, 76, 107
2, 19788, Note_off_c, 0, 76, 64
2, 19800, Note_on_c, 0, 72, 107
2, 19800, Note_on_c, 0, 78, 107
2, 19896, Note_off_c, 0, 78, 64
2, 19896, Note_off_c, 0, 72, 64
2, 19920, Note_on_c, 0, 78, 107
2, 19920, Note_on_c, 0, 71, 107
2, 20016, Note_off_c, 0, 71, 64
2, 20040, Note_on_c, 0, 69, 107
2, 20136, Note_off_c, 0, 69, 64
2, 20160, Note_on_c, 0, 67, 107
2, 20208, Note_off_c, 0, 78, 64
2, 20220, Note_on_c, 0, 76, 107
2, 20256, Note_off_c, 0, 67, 64
2, 20268, Note_off_c, 0, 76, 64
2, 20280, Note_on_c, 0, 69, 107
2, 20280, Note_on_c, 0, 78, 107
2, 20328, Note_off_c, 0, 78, 64
2, 20328, Note_off_c, 0, 69, 64
2, 20340, Note_on_c, 0, 71, 107
2, 20340, Note_on_c, 0, 79, 107
2, 20388, Note_off_c, 0, 79, 64
2, 20388, Note_off_c, 0, 71, 64
2, 20400, Note_on_c, 0, 72, 107
2, 20400, Note_on_c, 0, 81, 107
2, 20496, Note_off_c, 0, 81, 64
2, 20496, Note_off_c, 0, 72, 64
2, 20520, Note_on_c, 0, 71, 107
2, 20520, Note_on_c, 0, 79, 107
2, 20616, Note_off_c, 0, 79, 64
2, 20616, Note_off_c, 0, 71, 64
2, 20640, Note_on_c, 0, 69, 107
2, 20640, Note_on_c, 0, 78, 107
2, 20736, Note_off_c, 0, 78, 64
2, 20736, Note_off_c, 0, 69, 64
2, 20760, Note_on_c, 0, 67, 107
2, 20760, Note_on_c, 0, 76, 107
2, 20856, Note_off_c, 0, 76, 64
2, 20856, Note_off_c, 0, 67, 64
2, 20880, Note_on_c, 0, 66, 107
2, 20880, Note_on_c, 0, 75, 107
2, 20928, Note_off_c, 0, 75, 64
2, 20940, Note_on_c, 0, 71, 107
2, 20976, Note_off_c, 0, 66, 64
2, 20988, Note_off_c, 0, 71, 64
2, 21000, Note_on_c, 0, 72, 107
2, 21000, Note_on_c, 0, 64, 107
2, 21096, Note_off_c, 0, 64, 64
2, 21096, Note_off_c, 0, 72, 64
2, 21120, Note_on_c, 0, 72, 107
2, 21120, Note_on_c, 0, 63, 107
2, 21216, Note_off_c, 0, 72, 64
2, 21240, Note_on_c, 0, 71, 107
2, 21288, Note_off_c, 0, 71, 64
2, 21300, Note_on_c, 0, 69, 107
2, 21312, Note_off_c, 0, 63, 64
2, 21348, Note_off_c, 0, 69, 64
2, 21360, Note_on_c, 0, 67, 107
2, 21456, Note_off_c, 0, 67, 64
2, 21480, Note_on_c, 0, 66, 107
2, 21576, Note_off_c, 0, 66, 64
2, 21600, Note_on_c, 0, 64, 107
2, 21600, Note_on_c, 0, 67, 107
2, 21600, Note_on_c, 0, 71, 107
2, 21696, Note_off_c, 0, 71, 64
2, 21696, Note_off_c, 0, 67, 64
2, 21696, Note_off_c, 0, 64, 64
2, 21720, Note_on_c, 0, 66, 107
2, 21720, Note_on_c, 0, 69, 107
2, 21768, Note_off_c, 0, 69, 64
2, 21768, Note_off_c, 0, 66, 64
2, 21780, Note_on_c, 0, 67, 107
2, 21780, Note_on_c, 0, 71, 107
2, 21828, Note_off_c, 0, 71, 64
2, 21828, Note_off_c, 0, 67, 64
2, 21840, Note_on_c, 0, 72, 107
2, 21840, Note_on_c, 0, 69, 107
2, 21936, Note_off_c, 0, 69, 64
2, 21936, Note_off_c, 0, 72, 64
2, 21960, Note_on_c, 0, 67, 107
2, 21960, Note_on_c, 0, 71, 107
2, 22056, Note_off_c, 0, 71, 64
2, 22056, Note_off_c, 0, 67, 64
2, 22080, Note_on_c, 0, 69, 107
2, 22080, Note_on_c, 0, 66, 107
2, 22176, Note_off_c, 0, 66, 64
2, 22176, Note_off_c, 0, 69, 64
2, 22200, Note_on_c, 0, 67, 107
2, 22200, Note_on_c, 0, 64, 107
2, 22296, Note_off_c, 0, 64, 64
2, 22296, Note_off_c, 0, 67, 64
2, 22320, Note_on_c, 0, 67, 107
2, 22320, Note_on_c, 0, 63, 107
2, 22332, Note_off_c, 0, 67, 64
2, 22335, Note_on_c, 0, 66, 107
2, 22347, Note_off_c, 0, 66, 64
2, 22350, Note_on_c, 0, 67, 107
2, 22362, Note_off_c, 0, 67, 64
2, 22365, Note_on_c, 0, 66, 107
2, 22377, Note_off_c, 0, 66, 64
2, 22380, Note_on_c, 0, 64, 107
2, 22428, Note_off_c, 0, 64, 64
2, 22440, Note_on_c, 0, 66, 107
2, 22488, Note_off_c, 0, 66, 64
2, 22500, Note_on_c, 0, 67, 107
2, 22512, Note_off_c, 0, 63, 64
2, 22548, Note_off_c, 0, 67, 64
2, 22560, Note_on_c, 0, 64, 107
2, 22680, Note_on_c, 0, 59, 107
2, 22776, Note_off_c, 0, 59, 64
2, 22800, Note_on_c, 0, 55, 107
2, 22944, Note_off_c, 0, 64, 64
2, 22992, Note_off_c, 0, 55, 64
2, 23040, Note_on_c, 0, 78, 107
2, 23040, Note_on_c, 0, 75, 107
2, 23088, Note_off_c, 0, 78, 64
2, 23100, Note_on_c, 0, 79, 107
2, 23148, Note_off_c, 0, 79, 64
2, 23160, Note_on_c, 0, 81, 107
2, 23208, Note_off_c, 0, 81, 64
2, 23220, Note_on_c, 0, 79, 107
2, 23232, Note_off_c, 0, 75, 64
2, 23268, Note_off_c, 0, 79, 64
2, 23280, Note_on_c, 0, 78, 107
2, 23376, Note_off_c, 0, 78, 64
2, 23400, Note_on_c, 0, 71, 107
2, 23400, Note_on_c, 0, 75, 107
2, 23496, Note_off_c, 0, 75, 64
2, 23496, Note_off_c, 0, 71, 64
2, 23520, Note_on_c, 0, 73, 107
2, 23520, Note_on_c, 0, 76, 107
2, 23616, Note_off_c, 0, 76, 64
2, 23616, Note_off_c, 0, 73, 64
2, 23640, Note_on_c, 0, 78, 107
2, 23640, Note_on_c, 0, 75, 107
2, 23736, Note_off_c, 0, 75, 64
2, 23736, Note_off_c, 0, 78, 64
2, 23760, Note_on_c, 0, 76, 107
2, 23760, Note_on_c, 0, 79, 107
2, 23808, Note_off_c, 0, 79, 64
2, 23820, Note_on_c, 0, 81, 107
2, 23868, Note_off_c, 0, 81, 64
2, 23880, Note_on_c, 0, 83, 107
2, 23928, Note_off_c, 0, 83, 64
2, 23940, Note_on_c, 0, 81, 107
2, 23952, Note_off_c, 0, 76, 64
2, 23988, Note_off_c, 0, 81, 64
2, 24000, Note_on_c, 0, 79, 107
2, 24000, Note_on_c, 0, 76, 107
2, 24384, Note_off_c, 0, 76, 64
2, 24480, Note_on_c, 0, 73, 107
2, 24528, Note_off_c, 0, 79, 64
2, 24540, Note_on_c, 0, 78, 107
2, 24588, Note_off_c, 0, 78, 64
2, 24600, Note_on_c, 0, 76, 107
2, 24648, Note_off_c, 0, 76, 64
2, 24660, Note_on_c, 0, 78, 107
2, 24672, Note_off_c, 0, 73, 64
2, 24708, Note_off_c, 0, 78, 64
2, 24720, Note_on_c, 0, 79, 107
2, 24816, Note_off_c, 0, 79, 64
2, 24840, Note_on_c, 0, 73, 107
2, 24840, Note_on_c, 0, 83, 107
2, 24936, Note_off_c, 0, 83, 64
2, 24936, Note_off_c, 0, 73, 64
2, 24960, Note_on_c, 0, 81, 107
2, 24960, Note_on_c, 0, 74, 107
2, 25056, Note_off_c, 0, 74, 64
2, 25056, Note_off_c, 0, 81, 64
2, 25080, Note_on_c, 0, 79, 107
2, 25080, Note_on_c, 0, 76, 107
2, 25176, Note_off_c, 0, 76, 64
2, 25176, Note_off_c, 0, 79, 64
2, 25200, Note_on_c, 0, 69, 107
2, 25200, Note_on_c, 0, 78, 107
2, 25248, Note_off_c, 0, 78, 64
2, 25260, Note_on_c, 0, 76, 107
2, 25308, Note_off_c, 0, 76, 64
2, 25320, Note_on_c, 0, 74, 107
2, 25368, Note_off_c, 0, 74, 64
2, 25380, Note_on_c, 0, 76, 107
2, 25392, Note_off_c, 0, 69, 64
2, 25428, Note_off_c, 0, 76, 64
2, 25440, Note_on_c, 0, 78, 107
2, 25440, Note_on_c, 0, 69, 107
2, 25824, Note_off_c, 0, 69, 64
2, 25920, Note_on_c, 0, 71, 107
2, 26016, Note_off_c, 0, 78, 64
2, 26040, Note_on_c, 0, 77, 107
2, 26088, Note_off_c, 0, 77, 64
2, 26100, Note_on_c, 0, 76, 107
2, 26112, Note_off_c, 0, 71, 64
2, 26148, Note_off_c, 0, 76, 64
2, 26160, Note_on_c, 0, 77, 107
2, 26273, Note_off_c, 0, 77, 64
2, 26280, Note_on_c, 0, 83, 107
2, 26393, Note_off_c, 0, 83, 64
2, 26400, Note_on_c, 0, 81, 107
2, 26424, Note_off_c, 0, 81, 64
2, 26430, Note_on_c, 0, 80, 107
2, 26502, Note_off_c, 0, 80, 64
2, 26520, Note_on_c, 0, 77, 107
2, 26544, Note_off_c, 0, 77, 64
2, 26550, Note_on_c, 0, 76, 107
2, 26622, Note_off_c, 0, 76, 64
2, 26640, Note_on_c, 0, 74, 107
2, 26640, Note_on_c, 0, 71, 107
2, 26688, Note_off_c, 0, 74, 64
2, 26700, Note_on_c, 0, 77, 107
2, 26748, Note_off_c, 0, 77, 64
2, 26760, Note_on_c, 0, 76, 107
2, 26832, Note_off_c, 0, 71, 64
2, 26856, Note_off_c, 0, 76, 64
2, 26880, Note_on_c, 0, 77, 107
2, 26993, Note_off_c, 0, 77, 64
2, 27000, Note_on_c, 0, 76, 107
2, 27012, Note_off_c, 0, 76, 64
2, 27015, Note_on_c, 0, 74, 107
2, 27027, Note_off_c, 0, 74, 64
2, 27030, Note_on_c, 0, 76, 107
2, 27042, Note_off_c, 0, 76, 64
2, 27045, Note_on_c, 0, 74, 107
2, 27057, Note_off_c, 0, 74, 64
2, 27060, Note_on_c, 0, 73, 107
2, 27108, Note_off_c, 0, 73, 64
2, 27120, Note_on_c, 0, 74, 107
2, 27216, Note_off_c, 0, 74, 64
2, 27240, Note_on_c, 0, 74, 107
2, 27240, Note_on_c, 0, 71, 107
2, 27264, Note_off_c, 0, 74, 64
2, 27270, Note_on_c, 0, 76, 107
2, 27294, Note_off_c, 0, 76, 64
2, 27300, Note_on_c, 0, 77, 107
2, 27336, Note_off_c, 0, 71, 64
2, 27348, Note_off_c, 0, 77, 64
2, 27360, Note_on_c, 0, 72, 107
2, 27360, Note_on_c, 0, 76, 107
2, 27456, Note_off_c, 0, 76, 64
2, 27480, Note_on_c, 0, 74, 107
2, 27528, Note_off_c, 0, 74, 64
2, 27540, Note_on_c, 0, 76, 107
2, 27552, Note_off_c, 0, 72, 64
2, 27588, Note_off_c, 0, 76, 64
2, 27600, Note_on_c, 0, 77, 107
2, 27600, Note_on_c, 0, 74, 107
2, 27696, Note_off_c, 0, 74, 64
2, 27696, Note_off_c, 0, 77, 64
2, 27720, Note_on_c, 0, 76, 107
2, 27720, Note_on_c, 0, 72, 107
2, 27816, Note_off_c, 0, 72, 64
2, 27816, Note_off_c, 0, 76, 64
2, 27840, Note_on_c, 0, 74, 107
2, 27840, Note_on_c, 0, 71, 107
2, 27936, Note_off_c, 0, 71, 64
2, 27936, Note_off_c, 0, 74, 64
2, 27960, Note_on_c, 0, 72, 107
2, 27960, Note_on_c, 0, 69, 107
2, 28056, Note_off_c, 0, 69, 64
2, 28056, Note_off_c, 0, 72, 64
2, 28080, Note_on_c, 0, 71, 107
2, 28080, Note_on_c, 0, 68, 107
2, 28128, Note_off_c, 0, 71, 64
2, 28140, Note_on_c, 0, 74, 107
2, 28188, Note_off_c, 0, 74, 64
2, 28200, Note_on_c, 0, 72, 107
2, 28248, Note_off_c, 0, 72, 64
2, 28260, Note_on_c, 0, 71, 107
2, 28272, Note_off_c, 0, 68, 64
2, 28308, Note_off_c, 0, 71, 64
2, 28320, Note_on_c, 0, 69, 107
2, 28320, Note_on_c, 0, 69, 107
2, 28704, Note_off_c, 0, 69, 64
2, 28800, Note_on_c, 0, 66, 107
2, 28848, Note_off_c, 0, 69, 64
2, 28860, Note_on_c, 0, 67, 107
2, 28896, Note_off_c, 0, 66, 64
2, 28908, Note_off_c, 0, 67, 64
2, 28920, Note_on_c, 0, 66, 107
2, 28968, Note_off_c, 0, 66, 64
2, 28980, Note_on_c, 0, 67, 107
2, 29028, Note_off_c, 0, 67, 64
2, 29040, Note_on_c, 0, 69, 107
2, 29088, Note_off_c, 0, 69, 64
2, 29100, Note_on_c, 0, 71, 107
2, 29148, Note_off_c, 0, 71, 64
2, 29160, Note_on_c, 0, 72, 107
2, 29160, Note_on_c, 0, 66, 107
2, 29256, Note_off_c, 0, 66, 64
2, 29256, Note_off_c, 0, 72, 64
2, 29280, Note_on_c, 0, 72, 107
2, 29280, Note_on_c, 0, 67, 107
2, 29376, Note_off_c, 0, 67, 64
2, 29400, Note_on_c, 0, 69, 107
2, 29496, Note_off_c, 0, 69, 64
2, 29520, Note_on_c, 0, 62, 107
2, 29616, Note_off_c, 0, 72, 64
2, 29640, Note_on_c, 0, 71, 107
2, 29688, Note_off_c, 0, 71, 64
2, 29700, Note_on_c, 0, 69, 107
2, 29712, Note_off_c, 0, 62, 64
2, 29748, Note_off_c, 0, 69, 64
2, 29760, Note_on_c, 0, 71, 107
2, 29808, Note_off_c, 0, 71, 64
2, 29820, Note_on_c, 0, 73, 107
2, 29868, Note_off_c, 0, 73, 64
2, 29880, Note_on_c, 0, 74, 107
2, 29880, Note_on_c, 0, 69, 107
2, 29976, Note_off_c, 0, 69, 64
2, 29976, Note_off_c, 0, 74, 64
2, 30000, Note_on_c, 0, 74, 107
2, 30000, Note_on_c, 0, 68, 107
2, 30096, Note_off_c, 0, 68, 64
2, 30120, Note_on_c, 0, 69, 107
2, 30168, Note_off_c, 0, 69, 64
2, 30180, Note_on_c, 0, 71, 107
2, 30192, Note_off_c, 0, 74, 64
2, 30228, Note_off_c, 0, 71, 64
2, 30240, Note_on_c, 0, 73, 107
2, 30240, Note_on_c, 0, 64, 107
2, 30288, Note_off_c, 0, 73, 64
2, 30300, Note_on_c, 0, 71, 107
2, 30348, Note_off_c, 0, 71, 64
2, 30360, Note_on_c, 0, 69, 107
2, 30408, Note_off_c, 0, 69, 64
2, 30420, Note_on_c, 0, 71, 107
2, 30432, Note_off_c, 0, 64, 64
2, 30468, Note_off_c, 0, 71, 64
2, 30480, Note_on_c, 0, 73, 107
2, 30528, Note_off_c, 0, 73, 64
2, 30540, Note_on_c, 0, 75, 107
2, 30588, Note_off_c, 0, 75, 64
2, 30600, Note_on_c, 0, 71, 107
2, 30600, Note_on_c, 0, 76, 107
2, 30696, Note_off_c, 0, 76, 64
2, 30696, Note_off_c, 0, 71, 64
2, 30720, Note_on_c, 0, 76, 107
2, 30720, Note_on_c, 0, 70, 107
2, 30816, Note_off_c, 0, 70, 64
2, 30840, Note_on_c, 0, 71, 107
2, 30888, Note_off_c, 0, 71, 64
2, 30900, Note_on_c, 0, 73, 107
2, 30948, Note_off_c, 0, 73, 64
2, 30960, Note_on_c, 0, 66, 107
2, 31056, Note_off_c, 0, 76, 64
2, 31080, Note_on_c, 0, 75, 107
2, 31128, Note_off_c, 0, 75, 64
2, 31140, Note_on_c, 0, 73, 107
2, 31152, Note_off_c, 0, 66, 64
2, 31188, Note_off_c, 0, 73, 64
2, 31200, Note_on_c, 0, 75, 107
2, 31248, Note_off_c, 0, 75, 64
2, 31260, Note_on_c, 0, 76, 107
2, 31308, Note_off_c, 0, 76, 64
2, 31320, Note_on_c, 0, 72, 107
2, 31320, Note_on_c, 0, 78, 107
2, 31416, Note_off_c, 0, 78, 64
2, 31416, Note_off_c, 0, 72, 64
2, 31440, Note_on_c, 0, 78, 107
2, 31440, Note_on_c, 0, 71, 107
2, 31536, Note_off_c, 0, 71, 64
2, 31560, Note_on_c, 0, 69, 107
2, 31656, Note_off_c, 0, 69, 64
2, 31680, Note_on_c, 0, 67, 107
2, 31728, Note_off_c, 0, 78, 64
2, 31740, Note_on_c, 0, 76, 107
2, 31776, Note_off_c, 0, 67, 64
2, 31788, Note_off_c, 0, 76, 64
2, 31800, Note_on_c, 0, 69, 107
2, 31800, Note_on_c, 0, 78, 107
2, 31848, Note_off_c, 0, 78, 64
2, 31848, Note_off_c, 0, 69, 64
2, 31860, Note_on_c, 0, 71, 107
2, 31860, Note_on_c, 0, 79, 107
2, 31908, Note_off_c, 0, 79, 64
2, 31908, Note_off_c, 0, 71, 64
2, 31920, Note_on_c, 0, 72, 107
2, 31920, Note_on_c, 0, 81, 107
2, 32016, Note_off_c, 0, 81, 64
2, 32016, Note_off_c, 0, 72, 64
2, 32040, Note_on_c, 0, 71, 107
2, 32040, Note_on_c, 0, 79, 107
2, 32136, Note_off_c, 0, 79, 64
2, 32136, Note_off_c, 0, 71, 64
2, 32160, Note_on_c, 0, 69, 107
2, 32160, Note_on_c, 0, 78, 107
2, 32256, Note_off_c, 0, 78, 64
2, 32256, Note_off_c, 0, 69, 64
2, 32280, Note_on_c, 0, 67, 107
2, 32280, Note_on_c, 0, 76, 107
2, 32376, Note_off_c, 0, 76, 64
2, 32376, Note_off_c, 0, 67, 64
2, 32400, Note_on_c, 0, 66, 107
2, 32400, Note_on_c, 0, 75, 107
2, 32448, Note_off_c, 0, 75, 64
2, 32460, Note_on_c, 0, 71, 107
2, 32496, Note_off_c, 0, 66, 64
2, 32508, Note_off_c, 0, 71, 64
2, 32520, Note_on_c, 0, 72, 107
2, 32520, Note_on_c, 0, 64, 107
2, 32616, Note_off_c, 0, 64, 64
2, 32616, Note_off_c, 0, 72, 64
2, 32640, Note_on_c, 0, 72, 107
2, 32640, Note_on_c, 0, 63, 107
2, 32736, Note_off_c, 0, 72, 64
2, 32760, Note_on_c, 0, 71, 107
2, 32808, Note_off_c, 0, 71, 64
2, 32820, Note_on_c, 0, 69, 107
2, 32832, Note_off_c, 0, 63, 64
2, 32868, Note_off_c, 0, 69, 64
2, 32880, Note_on_c, 0, 67, 107
2, 32976, Note_off_c, 0, 67, 64
2, 33000, Note_on_c, 0, 66, 107
2, 33096, Note_off_c, 0, 66, 64
2, 33120, Note_on_c, 0, 64, 107
2, 33120, Note_on_c, 0, 67, 107
2, 33120, Note_on_c, 0, 71, 107
2, 33216, Note_off_c, 0, 71, 64
2, 33216, Note_off_c, 0, 67, 64
2, 33216, Note_off_c, 0, 64, 64
2, 33240, Note_on_c, 0, 66, 107
2, 33240, Note_on_c, 0, 69, 107
2, 33288, Note_off_c, 0, 69, 64
2, 33288, Note_off_c, 0, 66, 64
2, 33300, Note_on_c, 0, 67, 107
2, 33300, Note_on_c, 0, 71, 107
2, 33348, Note_off_c, 0, 71, 64
2, 33348, Note_off_c, 0, 67, 64
2, 33360, Note_on_c, 0, 72, 107
2, 33360, Note_on_c, 0, 69, 107
2, 33456, Note_off_c, 0, 69, 64
2, 33456, Note_off_c, 0, 72, 64
2, 33480, Note_on_c, 0, 67, 107
2, 33480, Note_on_c, 0, 71, 107
2, 33576, Note_off_c, 0, 71, 64
2, 33576, Note_off_c, 0, 67, 64
2, 33600, Note_on_c, 0, 69, 107
2, 33600, Note_on_c, 0, 66, 107
2, 33696, Note_off_c, 0, 66, 64
2, 33696, Note_off_c, 0, 69, 64
2, 33720, Note_on_c, 0, 67, 107
2, 33720, Note_on_c, 0, 64, 107
2, 33816, Note_off_c, 0, 64, 64
2, 33816, Note_off_c, 0, 67, 64
2, 33840, Note_on_c, 0, 67, 107
2, 33840, Note_on_c, 0, 63, 107
2, 33852, Note_off_c, 0, 67, 64
2, 33855, Note_on_c, 0, 66, 107
2, 33867, Note_off_c, 0, 66, 64
2, 33870, Note_on_c, 0, 67, 107
2, 33882, Note_off_c, 0, 67, 64
2, 33885, Note_on_c, 0, 66, 107
2, 33897, Note_off_c, 0, 66, 64
2, 33900, Note_on_c, 0, 64, 107
2, 33948, Note_off_c, 0, 64, 64
2, 33960, Note_on_c, 0, 66, 107
2, 34008, Note_off_c, 0, 66, 64
2, 34020, Note_on_c, 0, 67, 107
2, 34032, Note_off_c, 0, 63, 64
2, 34068, Note_off_c, 0, 67, 64
2, 34080, Note_on_c, 0, 64, 107
2, 34200, Note_on_c, 0, 59, 107
2, 34296, Note_off_c, 0, 59, 64
2, 34320, Note_on_c, 0, 55, 107
2, 34464, Note_off_c, 0, 64, 64
2, 34512, Note_off_c, 0, 55, 64
2, 34512, End_track
3, 0, Start_track
3, 0, Title_t, "J.S. Bach, Edition Kalmus"
3, 0, Program_c, 1, 0
3, 0, Note_on_c, 1, 64, 107
3, 192, Note_off_c, 1, 64, 64
3, 240, Note_on_c, 1, 52, 107
3, 432, Note_off_c, 1, 52, 64
3, 480, Note_on_c, 1, 57, 107
3, 672, Note_off_c, 1, 57, 64
3, 720, Note_on_c, 1, 59, 107
3, 816, Note_off_c, 1, 59, 64
3, 840, Note_on_c, 1, 47, 107
3, 936, Note_off_c, 1, 47, 64
3, 960, Note_on_c, 1, 52, 107
3, 1056, Note_off_c, 1, 52, 64
3, 1080, Note_on_c, 1, 54, 107
3, 1176, Note_off_c, 1, 54, 64
3, 1200, Note_on_c, 1, 55, 107
3, 1296, Note_off_c, 1, 55, 64
3, 1320, Note_on_c, 1, 57, 107
3, 1416, Note_off_c, 1, 57, 64
3, 1440, Note_on_c, 1, 59, 107
3, 1632, Note_off_c, 1, 59, 64
3, 1680, Note_on_c, 1, 60, 107
3, 1872, Note_off_c, 1, 60, 64
3, 1920, Note_on_c, 1, 48, 107
3, 2112, Note_off_c, 1, 48, 64
3, 2160, Note_on_c, 1, 50, 107
3, 2256, Note_off_c, 1, 50, 64
3, 2280, Note_on_c, 1, 38, 107
3, 2376, Note_off_c, 1, 38, 64
3, 2400, Note_on_c, 1, 43, 107
3, 2592, Note_off_c, 1, 43, 64
3, 2820, Note_on_c, 1, 55, 107
3, 2868, Note_off_c, 1, 55, 64
3, 2880, Note_on_c, 1, 54, 107
3, 2976, Note_off_c, 1, 54, 64
3, 3000, Note_on_c, 1, 55, 107
3, 3096, Note_off_c, 1, 55, 64
3, 3120, Note_on_c, 1, 54, 107
3, 3216, Note_off_c, 1, 54, 64
3, 3240, Note_on_c, 1, 52, 107
3, 3336, Note_off_c, 1, 52, 64
3, 3360, Note_on_c, 1, 50, 107
3, 3456, Note_off_c, 1, 50, 64
3, 3480, Note_on_c, 1, 52, 107
3, 3528, Note_off_c, 1, 52, 64
3, 3540, Note_on_c, 1, 54, 107
3, 3588, Note_off_c, 1, 54, 64
3, 3600, Note_on_c, 1, 55, 107
3, 3696, Note_off_c, 1, 55, 64
3, 3720, Note_on_c, 1, 57, 107
3, 3816, Note_off_c, 1, 57, 64
3, 3840, Note_on_c, 1, 55, 107
3, 3936, Note_off_c, 1, 55, 64
3, 3960, Note_on_c, 1, 54, 107
3, 4056, Note_off_c, 1, 54, 64
3, 4080, Note_on_c, 1, 52, 107
3, 4176, Note_off_c, 1, 52, 64
3, 4200, Note_on_c, 1, 57, 107
3, 4296, Note_off_c, 1, 57, 64
3, 4320, Note_on_c, 1, 50, 107
3, 4416, Note_off_c, 1, 50, 64
3, 4440, Note_on_c, 1, 47, 107
3, 4536, Note_off_c, 1, 47, 64
3, 4560, Note_on_c, 1, 52, 107
3, 4752, Note_off_c, 1, 52, 64
3, 4800, Note_on_c, 1, 40, 107
3, 4992, Note_off_c, 1, 40, 64
3, 5040, Note_on_c, 1, 42, 107
3, 5232, Note_off_c, 1, 42, 64
3, 5280, Note_on_c, 1, 47, 107
3, 5520, Note_on_c, 1, 54, 107
3, 5664, Note_off_c, 1, 47, 64
3, 5712, Note_off_c, 1, 54, 64
3, 5760, Note_on_c, 1, 64, 107
3, 5952, Note_off_c, 1, 64, 64
3, 6000, Note_on_c, 1, 52, 107
3, 6192, Note_off_c, 1, 52, 64
3, 6240, Note_on_c, 1, 57, 107
3, 6432, Note_off_c, 1, 57, 64
3, 6480, Note_on_c, 1, 59, 107
3, 6576, Note_off_c, 1, 59, 64
3, 6600, Note_on_c, 1, 47, 107
3, 6696, Note_off_c, 1, 47, 64
3, 6720, Note_on_c, 1, 52, 107
3, 6816, Note_off_c, 1, 52, 64
3, 6840, Note_on_c, 1, 54, 107
3, 6936, Note_off_c, 1, 54, 64
3, 6960, Note_on_c, 1, 55, 107
3, 7056, Note_off_c, 1, 55, 64
3, 7080, Note_on_c, 1, 57, 107
3, 7176, Note_off_c, 1, 57, 64
3, 7200, Note_on_c, 1, 59, 107
3, 7392, Note_off_c, 1, 59, 64
3, 7440, Note_on_c, 1, 60, 107
3, 7632, Note_off_c, 1, 60, 64
3, 7680, Note_on_c, 1, 48, 107
3, 7872, Note_off_c, 1, 48, 64
3, 7920, Note_on_c, 1, 50, 107
3, 8016, Note_off_c, 1, 50, 64
3, 8040, Note_on_c, 1, 38, 107
3, 8136, Note_off_c, 1, 38, 64
3, 8160, Note_on_c, 1, 43, 107
3, 8352, Note_off_c, 1, 43, 64
3, 8580, Note_on_c, 1, 55, 107
3, 8628, Note_off_c, 1, 55, 64
3, 8640, Note_on_c, 1, 54, 107
3, 8736, Note_off_c, 1, 54, 64
3, 8760, Note_on_c, 1, 55, 107
3, 8856, Note_off_c, 1, 55, 64
3, 8880, Note_on_c, 1, 54, 107
3, 8976, Note_off_c, 1, 54, 64
3, 9000, Note_on_c, 1, 52, 107
3, 9096, Note_off_c, 1, 52, 64
3, 9120, Note_on_c, 1, 50, 107
3, 9216, Note_off_c, 1, 50, 64
3, 9240, Note_on_c, 1, 52, 107
3, 9288, Note_off_c, 1, 52, 64
3, 9300, Note_on_c, 1, 54, 107
3, 9348, Note_off_c, 1, 54, 64
3, 9360, Note_on_c, 1, 55, 107
3, 9456, Note_off_c, 1, 55, 64
3, 9480, Note_on_c, 1, 57, 107
3, 9576, Note_off_c, 1, 57, 64
3, 9600, Note_on_c, 1, 55, 107
3, 9696, Note_off_c, 1, 55, 64
3, 9720, Note_on_c, 1, 54, 107
3, 9816, Note_off_c, 1, 54, 64
3, 9840, Note_on_c, 1, 52, 107
3, 9936, Note_off_c, 1, 52, 64
3, 9960, Note_on_c, 1, 57, 107
3, 10056, Note_off_c, 1, 57, 64
3, 10080, Note_on_c, 1, 50, 107
3, 10176, Note_off_c, 1, 50, 64
3, 10200, Note_on_c, 1, 47, 107
3, 10296, Note_off_c, 1, 47, 64
3, 10320, Note_on_c, 1, 52, 107
3, 10512, Note_off_c, 1, 52, 64
3, 10560, Note_on_c, 1, 40, 107
3, 10752, Note_off_c, 1, 40, 64
3, 10800, Note_on_c, 1, 42, 107
3, 10992, Note_off_c, 1, 42, 64
3, 11040, Note_on_c, 1, 47, 107
3, 11280, Note_on_c, 1, 54, 107
3, 11424, Note_off_c, 1, 47, 64
3, 11472, Note_off_c, 1, 54, 64
3, 11520, Note_on_c, 1, 59, 107
3, 11616, Note_off_c, 1, 59, 64
3, 11640, Note_on_c, 1, 47, 107
3, 11736, Note_off_c, 1, 47, 64
3, 11880, Note_on_c, 1, 69, 107
3, 11976, Note_off_c, 1, 69, 64
3, 12000, Note_on_c, 1, 67, 107
3, 12096, Note_off_c, 1, 67, 64
3, 12120, Note_on_c, 1, 66, 107
3, 12216, Note_off_c, 1, 66, 64
3, 12240, Note_on_c, 1, 64, 107
3, 12288, Note_off_c, 1, 64, 64
3, 12300, Note_on_c, 1, 66, 107
3, 12348, Note_off_c, 1, 66, 64
3, 12360, Note_on_c, 1, 67, 107
3, 12408, Note_off_c, 1, 67, 64
3, 12420, Note_on_c, 1, 66, 107
3, 12468, Note_off_c, 1, 66, 64
3, 12480, Note_on_c, 1, 64, 107
3, 12576, Note_off_c, 1, 64, 64
3, 12600, Note_on_c, 1, 62, 107
3, 12696, Note_off_c, 1, 62, 64
3, 12720, Note_on_c, 1, 61, 107
3, 12816, Note_off_c, 1, 61, 64
3, 12840, Note_on_c, 1, 59, 107
3, 12936, Note_off_c, 1, 59, 64
3, 12960, Note_on_c, 1, 57, 107
3, 13008, Note_off_c, 1, 57, 64
3, 13020, Note_on_c, 1, 59, 107
3, 13068, Note_off_c, 1, 59, 64
3, 13080, Note_on_c, 1, 61, 107
3, 13128, Note_off_c, 1, 61, 64
3, 13140, Note_on_c, 1, 59, 107
3, 13188, Note_off_c, 1, 59, 64
3, 13200, Note_on_c, 1, 57, 107
3, 13296, Note_off_c, 1, 57, 64
3, 13320, Note_on_c, 1, 57, 107
3, 13320, Note_on_c, 1, 55, 107
3, 13416, Note_off_c, 1, 55, 64
3, 13416, Note_off_c, 1, 57, 64
3, 13440, Note_on_c, 1, 59, 107
3, 13440, Note_on_c, 1, 54, 107
3, 13536, Note_off_c, 1, 54, 64
3, 13536, Note_off_c, 1, 59, 64
3, 13560, Note_on_c, 1, 61, 107
3, 13560, Note_on_c, 1, 52, 107
3, 13656, Note_off_c, 1, 52, 64
3, 13656, Note_off_c, 1, 61, 64
3, 13680, Note_on_c, 1, 62, 107
3, 13680, Note_on_c, 1, 50, 107
3, 13728, Note_off_c, 1, 50, 64
3, 13740, Note_on_c, 1, 52, 107
3, 13788, Note_off_c, 1, 52, 64
3, 13800, Note_on_c, 1, 54, 107
3, 13848, Note_off_c, 1, 54, 64
3, 13860, Note_on_c, 1, 52, 107
3, 13872, Note_off_c, 1, 62, 64
3, 13908, Note_off_c, 1, 52, 64
3, 13920, Note_on_c, 1, 50, 107
3, 14016, Note_off_c, 1, 50, 64
3, 14040, Note_on_c, 1, 48, 107
3, 14136, Note_off_c, 1, 48, 64
3, 14160, Note_on_c, 1, 47, 107
3, 14256, Note_off_c, 1, 47, 64
3, 14280, Note_on_c, 1, 45, 107
3, 14376, Note_off_c, 1, 45, 64
3, 14400, Note_on_c, 1, 44, 107
3, 14496, Note_off_c, 1, 44, 64
3, 14520, Note_on_c, 1, 50, 107
3, 14520, Note_on_c, 1, 44, 107
3, 14616, Note_off_c, 1, 44, 64
3, 14616, Note_off_c, 1, 50, 64
3, 14640, Note_on_c, 1, 50, 107
3, 14640, Note_on_c, 1, 44, 107
3, 14736, Note_off_c, 1, 44, 64
3, 14736, Note_off_c, 1, 50, 64
3, 14760, Note_on_c, 1, 50, 107
3, 14760, Note_on_c, 1, 44, 107
3, 14856, Note_off_c, 1, 44, 64
3, 14856, Note_off_c, 1, 50, 64
3, 14880, Note_on_c, 1, 44, 107
3, 14880, Note_on_c, 1, 50, 107
3, 14976, Note_off_c, 1, 50, 64
3, 14976, Note_off_c, 1, 44, 64
3, 15000, Note_on_c, 1, 44, 107
3, 15000, Note_on_c, 1, 52, 107
3, 15096, Note_off_c, 1, 52, 64
3, 15096, Note_off_c, 1, 44, 64
3, 15120, Note_on_c, 1, 53, 107
3, 15120, Note_on_c, 1, 44, 107
3, 15216, Note_off_c, 1, 44, 64
3, 15216, Note_off_c, 1, 53, 64
3, 15240, Note_on_c, 1, 49, 107
3, 15240, Note_on_c, 1, 44, 107
3, 15336, Note_off_c, 1, 44, 64
3, 15336, Note_off_c, 1, 49, 64
3, 15360, Note_on_c, 1, 50, 107
3, 15360, Note_on_c, 1, 44, 107
3, 15456, Note_off_c, 1, 44, 64
3, 15456, Note_off_c, 1, 50, 64
3, 15480, Note_on_c, 1, 52, 107
3, 15480, Note_on_c, 1, 44, 107
3, 15576, Note_off_c, 1, 44, 64
3, 15576, Note_off_c, 1, 52, 64
3, 15600, Note_on_c, 1, 44, 107
3, 15600, Note_on_c, 1, 53, 107
3, 15696, Note_off_c, 1, 53, 64
3, 15696, Note_off_c, 1, 44, 64
3, 15720, Note_on_c, 1, 44, 107
3, 15816, Note_off_c, 1, 44, 64
3, 15840, Note_on_c, 1, 45, 107
3, 15936, Note_off_c, 1, 45, 64
3, 15960, Note_on_c, 1, 57, 107
3, 16056, Note_off_c, 1, 57, 64
3, 16080, Note_on_c, 1, 50, 107
3, 16176, Note_off_c, 1, 50, 64
3, 16200, Note_on_c, 1, 52, 107
3, 16296, Note_off_c, 1, 52, 64
3, 16320, Note_on_c, 1, 53, 107
3, 16416, Note_off_c, 1, 53, 64
3, 16440, Note_on_c, 1, 50, 107
3, 16536, Note_off_c, 1, 50, 64
3, 16560, Note_on_c, 1, 52, 107
3, 16656, Note_off_c, 1, 52, 64
3, 16680, Note_on_c, 1, 40, 107
3, 16776, Note_off_c, 1, 40, 64
3, 16800, Note_on_c, 1, 45, 107
3, 16896, Note_off_c, 1, 45, 64
3, 16920, Note_on_c, 1, 43, 107
3, 17016, Note_off_c, 1, 43, 64
3, 17040, Note_on_c, 1, 42, 107
3, 17136, Note_off_c, 1, 42, 64
3, 17160, Note_on_c, 1, 40, 107
3, 17256, Note_off_c, 1, 40, 64
3, 17280, Note_on_c, 1, 38, 107
3, 17472, Note_off_c, 1, 38, 64
3, 17640, Note_on_c, 1, 50, 107
3, 17736, Note_off_c, 1, 50, 64
3, 17760, Note_on_c, 1, 52, 107
3, 17856, Note_off_c, 1, 52, 64
3, 17880, Note_on_c, 1, 54, 107
3, 17976, Note_off_c, 1, 54, 64
3, 18000, Note_on_c, 1, 55, 107
3, 18096, Note_off_c, 1, 55, 64
3, 18120, Note_on_c, 1, 57, 107
3, 18216, Note_off_c, 1, 57, 64
3, 18240, Note_on_c, 1, 55, 107
3, 18336, Note_off_c, 1, 55, 64
3, 18360, Note_on_c, 1, 54, 107
3, 18456, Note_off_c, 1, 54, 64
3, 18480, Note_on_c, 1, 52, 107
3, 18576, Note_off_c, 1, 52, 64
3, 18600, Note_on_c, 1, 54, 107
3, 18648, Note_off_c, 1, 54, 64
3, 18660, Note_on_c, 1, 56, 107
3, 18708, Note_off_c, 1, 56, 64
3, 18720, Note_on_c, 1, 57, 107
3, 18816, Note_off_c, 1, 57, 64
3, 18840, Note_on_c, 1, 59, 107
3, 18936, Note_off_c, 1, 59, 64
3, 18960, Note_on_c, 1, 57, 107
3, 19056, Note_off_c, 1, 57, 64
3, 19080, Note_on_c, 1, 55, 107
3, 19176, Note_off_c, 1, 55, 64
3, 19200, Note_on_c, 1, 54, 107
3, 19296, Note_off_c, 1, 54, 64
3, 19320, Note_on_c, 1, 56, 107
3, 19368, Note_off_c, 1, 56, 64
3, 19380, Note_on_c, 1, 58, 107
3, 19428, Note_off_c, 1, 58, 64
3, 19440, Note_on_c, 1, 59, 107
3, 19536, Note_off_c, 1, 59, 64
3, 19560, Note_on_c, 1, 47, 107
3, 19656, Note_off_c, 1, 47, 64
3, 19680, Note_on_c, 1, 59, 107
3, 19776, Note_off_c, 1, 59, 64
3, 19800, Note_on_c, 1, 57, 107
3, 19896, Note_off_c, 1, 57, 64
3, 19920, Note_on_c, 1, 55, 107
3, 20016, Note_off_c, 1, 55, 64
3, 20040, Note_on_c, 1, 57, 107
3, 20088, Note_off_c, 1, 57, 64
3, 20100, Note_on_c, 1, 59, 107
3, 20148, Note_off_c, 1, 59, 64
3, 20160, Note_on_c, 1, 60, 107
3, 20256, Note_off_c, 1, 60, 64
3, 20280, Note_on_c, 1, 59, 107
3, 20376, Note_off_c, 1, 59, 64
3, 20400, Note_on_c, 1, 57, 107
3, 20496, Note_off_c, 1, 57, 64
3, 20520, Note_on_c, 1, 59, 107
3, 20616, Note_off_c, 1, 59, 64
3, 20640, Note_on_c, 1, 60, 107
3, 20736, Note_off_c, 1, 60, 64
3, 20760, Note_on_c, 1, 57, 107
3, 20856, Note_off_c, 1, 57, 64
3, 20880, Note_on_c, 1, 59, 107
3, 21072, Note_off_c, 1, 59, 64
3, 21120, Note_on_c, 1, 47, 107
3, 21216, Note_off_c, 1, 47, 64
3, 21240, Note_on_c, 1, 48, 107
3, 21336, Note_off_c, 1, 48, 64
3, 21360, Note_on_c, 1, 47, 107
3, 21456, Note_off_c, 1, 47, 64
3, 21480, Note_on_c, 1, 45, 107
3, 21576, Note_off_c, 1, 45, 64
3, 21600, Note_on_c, 1, 43, 107
3, 21696, Note_off_c, 1, 43, 64
3, 21720, Note_on_c, 1, 40, 107
3, 21816, Note_off_c, 1, 40, 64
3, 21840, Note_on_c, 1, 45, 107
3, 21936, Note_off_c, 1, 45, 64
3, 21960, Note_on_c, 1, 47, 107
3, 22056, Note_off_c, 1, 47, 64
3, 22080, Note_on_c, 1, 48, 107
3, 22176, Note_off_c, 1, 48, 64
3, 22200, Note_on_c, 1, 45, 107
3, 22296, Note_off_c, 1, 45, 64
3, 22320, Note_on_c, 1, 47, 107
3, 22512, Note_off_c, 1, 47, 64
3, 22560, Note_on_c, 1, 40, 107
3, 22800, Note_on_c, 1, 47, 107
3, 22944, Note_off_c, 1, 40, 64
3, 22992, Note_off_c, 1, 47, 64
3, 23040, Note_on_c, 1, 59, 107
3, 23136, Note_off_c, 1, 59, 64
3, 23160, Note_on_c, 1, 47, 107
3, 23256, Note_off_c, 1, 47, 64
3, 23400, Note_on_c, 1, 69, 107
3, 23496, Note_off_c, 1, 69, 64
3, 23520, Note_on_c, 1, 67, 107
3, 23616, Note_off_c, 1, 67, 64
3, 23640, Note_on_c, 1, 66, 107
3, 23736, Note_off_c, 1, 66, 64
3, 23760, Note_on_c, 1, 64, 107
3, 23808, Note_off_c, 1, 64, 64
3, 23820, Note_on_c, 1, 66, 107
3, 23868, Note_off_c, 1, 66, 64
3, 23880, Note_on_c, 1, 67, 107
3, 23928, Note_off_c, 1, 67, 64
3, 23940, Note_on_c, 1, 66, 107
3, 23988, Note_off_c, 1, 66, 64
3, 24000, Note_on_c, 1, 64, 107
3, 24096, Note_off_c, 1, 64, 64
3, 24120, Note_on_c, 1, 62, 107
3, 24216, Note_off_c, 1, 62, 64
3, 24240, Note_on_c, 1, 61, 107
3, 24336, Note_off_c, 1, 61, 64
3, 24360, Note_on_c, 1, 59, 107
3, 24456, Note_off_c, 1, 59, 64
3, 24480, Note_on_c, 1, 57, 107
3, 24528, Note_off_c, 1, 57, 64
3, 24540, Note_on_c, 1, 59, 107
3, 24588, Note_off_c, 1, 59, 64
3, 24600, Note_on_c, 1, 61, 107
3, 24648, Note_off_c, 1, 61, 64
3, 24660, Note_on_c, 1, 59, 107
3, 24708, Note_off_c, 1, 59, 64
3, 24720, Note_on_c, 1, 57, 107
3, 24816, Note_off_c, 1, 57, 64
3, 24840, Note_on_c, 1, 57, 107
3, 24840, Note_on_c, 1, 55, 107
3, 24936, Note_off_c, 1, 55, 64
3, 24936, Note_off_c, 1, 57, 64
3, 24960, Note_on_c, 1, 59, 107
3, 24960, Note_on_c, 1, 54, 107
3, 25056, Note_off_c, 1, 54, 64
3, 25056, Note_off_c, 1, 59, 64
3, 25080, Note_on_c, 1, 61, 107
3, 25080, Note_on_c, 1, 52, 107
3, 25176, Note_off_c, 1, 52, 64
3, 25176, Note_off_c, 1, 61, 64
3, 25200, Note_on_c, 1, 62, 107
3, 25200, Note_on_c, 1, 50, 107
3, 25248, Note_off_c, 1, 50, 64
3, 25260, Note_on_c, 1, 52, 107
3, 25308, Note_off_c, 1, 52, 64
3, 25320, Note_on_c, 1, 54, 107
3, 25368, Note_off_c, 1, 54, 64
3, 25380, Note_on_c, 1, 52, 107
3, 25392, Note_off_c, 1, 62, 64
3, 25428, Note_off_c, 1, 52, 64
3, 25440, Note_on_c, 1, 50, 107
3, 25536, Note_off_c, 1, 50, 64
3, 25560, Note_on_c, 1, 48, 107
3, 25656, Note_off_c, 1, 48, 64
3, 25680, Note_on_c, 1, 47, 107
3, 25776, Note_off_c, 1, 47, 64
3, 25800, Note_on_c, 1, 45, 107
3, 25896, Note_off_c, 1, 45, 64
3, 25920, Note_on_c, 1, 44, 107
3, 26016, Note_off_c, 1, 44, 64
3, 26040, Note_on_c, 1, 50, 107
3, 26040, Note_on_c, 1, 44, 107
3, 26136, Note_off_c, 1, 44, 64
3, 26136, Note_off_c, 1, 50, 64
3, 26160, Note_on_c, 1, 50, 107
3, 26160, Note_on_c, 1, 44, 107
3, 26256, Note_off_c, 1, 44, 64
3, 26256, Note_off_c, 1, 50, 64
3, 26280, Note_on_c, 1, 50, 107
3, 26280, Note_on_c, 1, 44, 107
3, 26376, Note_off_c, 1, 44, 64
3, 26376, Note_off_c, 1, 50, 64
3, 26400, Note_on_c, 1, 44, 107
3, 26400, Note_on_c, 1, 50, 107
3, 26496, Note_off_c, 1, 50, 64
3, 26496, Note_off_c, 1, 44, 64
3, 26520, Note_on_c, 1, 44, 107
3, 26520, Note_on_c, 1, 52, 107
3, 26616, Note_off_c, 1, 52, 64
3, 26616, Note_off_c, 1, 44, 64
3, 26640, Note_on_c, 1, 53, 107
3, 26640, Note_on_c, 1, 44, 107
3, 26736, Note_off_c, 1, 44, 64
3, 26736, Note_off_c, 1, 53, 64
3, 26760, Note_on_c, 1, 49, 107
3, 26760, Note_on_c, 1, 44, 107
3, 26856, Note_off_c, 1, 44, 64
3, 26856, Note_off_c, 1, 49, 64
3, 26880, Note_on_c, 1, 50, 107
3, 26880, Note_on_c, 1, 44, 107
3, 26976, Note_off_c, 1, 44, 64
3, 26976, Note_off_c, 1, 50, 64
3, 27000, Note_on_c, 1, 52, 107
3, 27000, Note_on_c, 1, 44, 107
3, 27096, Note_off_c, 1, 44, 64
3, 27096, Note_off_c, 1, 52, 64
3, 27120, Note_on_c, 1, 44, 107
3, 27120, Note_on_c, 1, 53, 107
3, 27216, Note_off_c, 1, 53, 64
3, 27216, Note_off_c, 1, 44, 64
3, 27240, Note_on_c, 1, 44, 107
3, 27336, Note_off_c, 1, 44, 64
3, 27360, Note_on_c, 1, 45, 107
3, 27456, Note_off_c, 1, 45, 64
3, 27480, Note_on_c, 1, 57, 107
3, 27576, Note_off_c, 1, 57, 64
3, 27600, Note_on_c, 1, 50, 107
3, 27696, Note_off_c, 1, 50, 64
3, 27720, Note_on_c, 1, 52, 107
3, 27816, Note_off_c, 1, 52, 64
3, 27840, Note_on_c, 1, 53, 107
3, 27936, Note_off_c, 1, 53, 64
3, 27960, Note_on_c, 1, 50, 107
3, 28056, Note_off_c, 1, 50, 64
3, 28080, Note_on_c, 1, 52, 107
3, 28176, Note_off_c, 1, 52, 64
3, 28200, Note_on_c, 1, 40, 107
3, 28296, Note_off_c, 1, 40, 64
3, 28320, Note_on_c, 1, 45, 107
3, 28416, Note_off_c, 1, 45, 64
3, 28440, Note_on_c, 1, 43, 107
3, 28536, Note_off_c, 1, 43, 64
3, 28560, Note_on_c, 1, 42, 107
3, 28656, Note_off_c, 1, 42, 64
3, 28680, Note_on_c, 1, 40, 107
3, 28776, Note_off_c, 1, 40, 64
3, 28800, Note_on_c, 1, 38, 107
3, 28992, Note_off_c, 1, 38, 64
3, 29160, Note_on_c, 1, 50, 107
3, 29256, Note_off_c, 1, 50, 64
3, 29280, Note_on_c, 1, 52, 107
3, 29376, Note_off_c, 1, 52, 64
3, 29400, Note_on_c, 1, 54, 107
3, 29496, Note_off_c, 1, 54, 64
3, 29520, Note_on_c, 1, 55, 107
3, 29616, Note_off_c, 1, 55, 64
3, 29640, Note_on_c, 1, 57, 107
3, 29736, Note_off_c, 1, 57, 64
3, 29760, Note_on_c, 1, 55, 107
3, 29856, Note_off_c, 1, 55, 64
3, 29880, Note_on_c, 1, 54, 107
3, 29976, Note_off_c, 1, 54, 64
3, 30000, Note_on_c, 1, 52, 107
3, 30096, Note_off_c, 1, 52, 64
3, 30120, Note_on_c, 1, 54, 107
3, 30168, Note_off_c, 1, 54, 64
3, 30180, Note_on_c, 1, 56, 107
3, 30228, Note_off_c, 1, 56, 64
3, 30240, Note_on_c, 1, 57, 107
3, 30336, Note_off_c, 1, 57, 64
3, 30360, Note_on_c, 1, 59, 107
3, 30456, Note_off_c, 1, 59, 64
3, 30480, Note_on_c, 1, 57, 107
3, 30576, Note_off_c, 1, 57, 64
3, 30600, Note_on_c, 1, 55, 107
3, 30696, Note_off_c, 1, 55, 64
3, 30720, Note_on_c, 1, 54, 107
3, 30816, Note_off_c, 1, 54, 64
3, 30840, Note_on_c, 1, 56, 107
3, 30888, Note_off_c, 1, 56, 64
3, 30900, Note_on_c, 1, 58, 107
3, 30948, Note_off_c, 1, 58, 64
3, 30960, Note_on_c, 1, 59, 107
3, 31056, Note_off_c, 1, 59, 64
3, 31080, Note_on_c, 1, 47, 107
3, 31176, Note_off_c, 1, 47, 64
3, 31200, Note_on_c, 1, 59, 107
3, 31296, Note_off_c, 1, 59, 64
3, 31320, Note_on_c, 1, 57, 107
3, 31416, Note_off_c, 1, 57, 64
3, 31440, Note_on_c, 1, 55, 107
3, 31536, Note_off_c, 1, 55, 64
3, 31560, Note_on_c, 1, 57, 107
3, 31608, Note_off_c, 1, 57, 64
3, 31620, Note_on_c, 1, 59, 107
3, 31668, Note_off_c, 1, 59, 64
3, 31680, Note_on_c, 1, 60, 107
3, 31776, Note_off_c, 1, 60, 64
3, 31800, Note_on_c, 1, 59, 107
3, 31896, Note_off_c, 1, 59, 64
3, 31920, Note_on_c, 1, 57, 107
3, 32016, Note_off_c, 1, 57, 64
3, 32040, Note_on_c, 1, 59, 107
3, 32136, Note_off_c, 1, 59, 64
3, 32160, Note_on_c, 1, 60, 107
3, 32256, Note_off_c, 1, 60, 64
3, 32280, Note_on_c, 1, 57, 107
3, 32376, Note_off_c, 1, 57, 64
3, 32400, Note_on_c, 1, 59, 107
3, 32592, Note_off_c, 1, 59, 64
3, 32640, Note_on_c, 1, 47, 107
3, 32736, Note_off_c, 1, 47, 64
3, 32760, Note_on_c, 1, 48, 107
3, 32856, Note_off_c, 1, 48, 64
3, 32880, Note_on_c, 1, 47, 107
3, 32976, Note_off_c, 1, 47, 64
3, 33000, Note_on_c, 1, 45, 107
3, 33096, Note_off_c, 1, 45, 64
3, 33120, Note_on_c, 1, 43, 107
3, 33216, Note_off_c, 1, 43, 64
3, 33240, Note_on_c, 1, 40, 107
3, 33336, Note_off_c, 1, 40, 64
3, 33360, Note_on_c, 1, 45, 107
3, 33456, Note_off_c, 1, 45, 64
3, 33480, Note_on_c, 1, 47, 107
3, 33576, Note_off_c, 1, 47, 64
3, 33600, Note_on_c, 1, 48, 107
3, 33696, Note_off_c, 1, 48, 64
3, 33720, Note_on_c, 1, 45, 107
3, 33816, Note_off_c, 1, 45, 64
3, 33840, Note_on_c, 1, 47, 107
3, 34032, Note_off_c, 1, 47, 64
3, 34080, Note_on_c, 1, 40, 107
3, 34320, Note_on_c, 1, 47, 107
3, 34464, Note_off_c, 1, 40, 64
3, 34512, Note_off_c, 1, 47, 64
3, 34512, End_track
4, 0, Start_track
4, 0, Title_t, "Arr. Gary Bricault, (c) 1997"
4, 0, End_track
0, 0, End_of_file
