0, 0, Header, 1, 4, 240
1, 0, Start_track
1, 0, Time_signature, 3, 1, 48, 8
1, 0, Tempo, 476190
1, 11520, Time_signature, 3, 1, 48, 8
1, 11520, End_track
2, 0, Start_track
2, 0, Title_t, "English Suite 6, 4. Saraband"
2, 0, Program_c, 0, 0
2, 0, Note_on_c, 0, 77, 110
2, 0, Note_on_c, 0, 69, 110
2, 0, Note_on_c, 0, 74, 110
2, 384, Note_off_c, 0, 74, 64
2, 384, Note_off_c, 0, 69, 64
2, 384, Note_off_c, 0, 77, 64
2, 480, Note_on_c, 0, 76, 110
2, 480, Note_on_c, 0, 67, 110
2, 480, Note_on_c, 0, 70, 110
2, 1056, Note_off_c, 0, 76, 64
2, 1200, Note_on_c, 0, 77, 110
2, 1248, Note_off_c, 0, 70, 64
2, 1248, Note_off_c, 0, 67, 64
2, 1392, Note_off_c, 0, 77, 64
2, 1440, Note_on_c, 0, 69, 110
2, 1440, Note_on_c, 0, 79, 110
2, 1553, Note_off_c, 0, 79, 64
2, 1560, Note_on_c, 0, 81, 110
2, 1592, Note_off_c, 0, 81, 64
2, 1600, Note_on_c, 0, 79, 110
2, 1632, Note_off_c, 0, 79, 64
2, 1640, Note_on_c, 0, 77, 110
2, 1640, Note_on_c, 0, 77, 110
2, 1672, Note_off_c, 0, 77, 64
2, 1672, Note_off_c, 0, 77, 64
2, 1680, Note_on_c, 0, 79, 110
2, 1793, Note_off_c, 0, 79, 64
2, 1800, Note_on_c, 0, 81, 110
2, 1824, Note_off_c, 0, 69, 64
2, 1913, Note_off_c, 0, 81, 64
2, 1920, Note_on_c, 0, 69, 110
2, 1920, Note_on_c, 0, 79, 110
2, 1944, Note_off_c, 0, 79, 64
2, 1950, Note_on_c, 0, 78, 110
2, 1974, Note_off_c, 0, 78, 64
2, 1980, Note_on_c, 0, 79, 110
2, 2004, Note_off_c, 0, 79, 64
2, 2010, Note_on_c, 0, 78, 110
2, 2034, Note_off_c, 0, 78, 64
2, 2040, Note_on_c, 0, 78, 110
2, 2544, Note_off_c, 0, 78, 64
2, 2640, Note_on_c, 0, 78, 110
2, 2688, Note_off_c, 0, 69, 64
2, 2832, Note_off_c, 0, 78, 64
2, 2880, Note_on_c, 0, 79, 110
2, 2880, Note_on_c, 0, 74, 110
2, 2880, Note_on_c, 0, 67, 110
2, 3264, Note_off_c, 0, 67, 64
2, 3264, Note_off_c, 0, 74, 64
2, 3264, Note_off_c, 0, 79, 64
2, 3360, Note_on_c, 0, 67, 110
2, 3360, Note_on_c, 0, 70, 110
2, 3360, Note_on_c, 0, 76, 110
2, 3744, Note_off_c, 0, 76, 64
2, 3744, Note_off_c, 0, 70, 64
2, 3744, Note_off_c, 0, 67, 64
2, 3840, Note_on_c, 0, 65, 110
2, 3840, Note_on_c, 0, 71, 110
2, 3840, Note_on_c, 0, 74, 110
2, 3936, Note_off_c, 0, 74, 64
2, 3960, Note_on_c, 0, 73, 110
2, 4056, Note_off_c, 0, 73, 64
2, 4080, Note_on_c, 0, 74, 110
2, 4224, Note_off_c, 0, 71, 64
2, 4224, Note_off_c, 0, 65, 64
2, 4272, Note_off_c, 0, 74, 64
2, 4320, Note_on_c, 0, 73, 110
2, 4320, Note_on_c, 0, 69, 110
2, 4896, Note_off_c, 0, 73, 64
2, 5040, Note_on_c, 0, 71, 110
2, 5088, Note_off_c, 0, 69, 64
2, 5232, Note_off_c, 0, 71, 64
2, 5280, Note_on_c, 0, 69, 110
2, 5280, Note_on_c, 0, 64, 110
2, 5664, Note_off_c, 0, 64, 64
2, 5664, Note_off_c, 0, 69, 64
2, 5760, Note_on_c, 0, 69, 110
2, 5760, Note_on_c, 0, 72, 110
2, 6144, Note_off_c, 0, 72, 64
2, 6144, Note_off_c, 0, 69, 64
2, 6240, Note_on_c, 0, 71, 110
2, 6240, Note_on_c, 0, 67, 110
2, 6816, Note_off_c, 0, 71, 64
2, 6960, Note_on_c, 0, 73, 110
2, 7008, Note_off_c, 0, 67, 64
2, 7152, Note_off_c, 0, 73, 64
2, 7200, Note_on_c, 0, 74, 110
2, 7200, Note_on_c, 0, 68, 110
2, 7392, Note_off_c, 0, 74, 64
2, 7440, Note_on_c, 0, 76, 110
2, 7584, Note_off_c, 0, 68, 64
2, 7632, Note_off_c, 0, 76, 64
2, 7680, Note_on_c, 0, 69, 110
2, 7680, Note_on_c, 0, 74, 110
2, 7704, Note_off_c, 0, 74, 64
2, 7710, Note_on_c, 0, 73, 110
2, 7734, Note_off_c, 0, 73, 64
2, 7740, Note_on_c, 0, 74, 110
2, 7764, Note_off_c, 0, 74, 64
2, 7770, Note_on_c, 0, 73, 110
2, 7794, Note_off_c, 0, 73, 64
2, 7800, Note_on_c, 0, 73, 110
2, 8064, Note_off_c, 0, 69, 64
2, 8160, Note_on_c, 0, 67, 110
2, 8304, Note_off_c, 0, 73, 64
2, 8400, Note_on_c, 0, 74, 110
2, 8544, Note_off_c, 0, 67, 64
2, 8592, Note_off_c, 0, 74, 64
2, 8640, Note_on_c, 0, 76, 110
2, 8640, Note_on_c, 0, 70, 110
2, 8736, Note_off_c, 0, 76, 64
2, 8760, Note_on_c, 0, 77, 110
2, 8856, Note_off_c, 0, 77, 64
2, 8880, Note_on_c, 0, 76, 110
2, 8976, Note_off_c, 0, 76, 64
2, 9000, Note_on_c, 0, 77, 110
2, 9024, Note_off_c, 0, 70, 64
2, 9096, Note_off_c, 0, 77, 64
2, 9120, Note_on_c, 0, 79, 110
2, 9120, Note_on_c, 0, 69, 110
2, 9144, Note_off_c, 0, 79, 64
2, 9150, Note_on_c, 0, 77, 110
2, 9174, Note_off_c, 0, 77, 64
2, 9180, Note_on_c, 0, 79, 110
2, 9204, Note_off_c, 0, 79, 64
2, 9210, Note_on_c, 0, 77, 110
2, 9234, Note_off_c, 0, 77, 64
2, 9240, Note_on_c, 0, 79, 110
2, 9264, Note_off_c, 0, 79, 64
2, 9270, Note_on_c, 0, 77, 110
2, 9294, Note_off_c, 0, 77, 64
2, 9300, Note_on_c, 0, 79, 110
2, 9324, Note_off_c, 0, 79, 64
2, 9330, Note_on_c, 0, 77, 110
2, 9354, Note_off_c, 0, 77, 64
2, 9360, Note_on_c, 0, 79, 110
2, 9384, Note_off_c, 0, 79, 64
2, 9390, Note_on_c, 0, 77, 110
2, 9414, Note_off_c, 0, 77, 64
2, 9420, Note_on_c, 0, 79, 110
2, 9444, Note_off_c, 0, 79, 64
2, 9450, Note_on_c, 0, 77, 110
2, 9474, Note_off_c, 0, 77, 64
2, 9480, Note_on_c, 0, 79, 110
2, 9504, Note_off_c, 0, 79, 64
2, 9504, Note_off_c, 0, 69, 64
2, 9510, Note_on_c, 0, 77, 110
2, 9534, Note_off_c, 0, 77, 64
2, 9540, Note_on_c, 0, 79, 110
2, 9564, Note_off_c, 0, 79, 64
2, 9570, Note_on_c, 0, 77, 110
2, 9594, Note_off_c, 0, 77, 64
2, 9600, Note_on_c, 0, 68, 110
2, 9600, Note_on_c, 0, 79, 110
2, 9624, Note_off_c, 0, 79, 64
2, 9630, Note_on_c, 0, 77, 110
2, 9654, Note_off_c, 0, 77, 64
2, 9660, Note_on_c, 0, 79, 110
2, 9684, Note_off_c, 0, 79, 64
2, 9690, Note_on_c, 0, 77, 110
2, 9714, Note_off_c, 0, 77, 64
2, 9720, Note_on_c, 0, 79, 110
2, 9744, Note_off_c, 0, 79, 64
2, 9750, Note_on_c, 0, 77, 110
2, 9774, Note_off_c, 0, 77, 64
2, 9780, Note_on_c, 0, 79, 110
2, 9804, Note_off_c, 0, 79, 64
2, 9810, Note_on_c, 0, 77, 110
2, 9834, Note_off_c, 0, 77, 64
2, 9840, Note_on_c, 0, 76, 110
2, 10032, Note_off_c, 0, 76, 64
2, 10080, Note_on_c, 0, 76, 110
2, 10512, Note_off_c, 0, 68, 64
2, 10560, Note_on_c, 0, 69, 110
2, 11232, Note_off_c, 0, 76, 64
2, 11328, Note_off_c, 0, 69, 64
2, 11520, Note_on_c, 0, 77, 110
2, 11520, Note_on_c, 0, 69, 110
2, 11520, Note_on_c, 0, 74, 110
2, 11904, Note_off_c, 0, 74, 64
2, 11904, Note_off_c, 0, 69, 64
2, 11904, Note_off_c, 0, 77, 64
2, 12000, Note_on_c, 0, 76, 110
2, 12000, Note_on_c, 0, 67, 110
2, 12000, Note_on_c, 0, 70, 110
2, 12576, Note_off_c, 0, 76, 64
2, 12720, Note_on_c, 0, 77, 110
2, 12768, Note_off_c, 0, 70, 64
2, 12768, Note_off_c, 0, 67, 64
2, 12912, Note_off_c, 0, 77, 64
2, 12960, Note_on_c, 0, 69, 110
2, 12960, Note_on_c, 0, 79, 110
2, 13073, Note_off_c, 0, 79, 64
2, 13080, Note_on_c, 0, 81, 110
2, 13112, Note_off_c, 0, 81, 64
2, 13120, Note_on_c, 0, 79, 110
2, 13152, Note_off_c, 0, 79, 64
2, 13160, Note_on_c, 0, 77, 110
2, 13160, Note_on_c, 0, 77, 110
2, 13192, Note_off_c, 0, 77, 64
2, 13192, Note_off_c, 0, 77, 64
2, 13200, Note_on_c, 0, 79, 110
2, 13313, Note_off_c, 0, 79, 64
2, 13320, Note_on_c, 0, 81, 110
2, 13344, Note_off_c, 0, 69, 64
2, 13433, Note_off_c, 0, 81, 64
2, 13440, Note_on_c, 0, 69, 110
2, 13440, Note_on_c, 0, 79, 110
2, 13464, Note_off_c, 0, 79, 64
2, 13470, Note_on_c, 0, 78, 110
2, 13494, Note_off_c, 0, 78, 64
2, 13500, Note_on_c, 0, 79, 110
2, 13524, Note_off_c, 0, 79, 64
2, 13530, Note_on_c, 0, 78, 110
2, 13554, Note_off_c, 0, 78, 64
2, 13560, Note_on_c, 0, 78, 110
2, 14064, Note_off_c, 0, 78, 64
2, 14160, Note_on_c, 0, 78, 110
2, 14208, Note_off_c, 0, 69, 64
2, 14352, Note_off_c, 0, 78, 64
2, 14400, Note_on_c, 0, 79, 110
2, 14400, Note_on_c, 0, 74, 110
2, 14400, Note_on_c, 0, 67, 110
2, 14784, Note_off_c, 0, 67, 64
2, 14784, Note_off_c, 0, 74, 64
2, 14784, Note_off_c, 0, 79, 64
2, 14880, Note_on_c, 0, 67, 110
2, 14880, Note_on_c, 0, 70, 110
2, 14880, Note_on_c, 0, 76, 110
2, 15264, Note_off_c, 0, 76, 64
2, 15264, Note_off_c, 0, 70, 64
2, 15264, Note_off_c, 0, 67, 64
2, 15360, Note_on_c, 0, 65, 110
2, 15360, Note_on_c, 0, 71, 110
2, 15360, Note_on_c, 0, 74, 110
2, 15456, Note_off_c, 0, 74, 64
2, 15480, Note_on_c, 0, 73, 110
2, 15576, Note_off_c, 0, 73, 64
2, 15600, Note_on_c, 0, 74, 110
2, 15744, Note_off_c, 0, 71, 64
2, 15744, Note_off_c, 0, 65, 64
2, 15792, Note_off_c, 0, 74, 64
2, 15840, Note_on_c, 0, 73, 110
2, 15840, Note_on_c, 0, 69, 110
2, 16416, Note_off_c, 0, 73, 64
2, 16560, Note_on_c, 0, 71, 110
2, 16608, Note_off_c, 0, 69, 64
2, 16752, Note_off_c, 0, 71, 64
2, 16800, Note_on_c, 0, 69, 110
2, 16800, Note_on_c, 0, 64, 110
2, 17184, Note_off_c, 0, 64, 64
2, 17184, Note_off_c, 0, 69, 64
2, 17280, Note_on_c, 0, 69, 110
2, 17280, Note_on_c, 0, 72, 110
2, 17664, Note_off_c, 0, 72, 64
2, 17664, Note_off_c, 0, 69, 64
2, 17760, Note_on_c, 0, 71, 110
2, 17760, Note_on_c, 0, 67, 110
2, 18336, Note_off_c, 0, 71, 64
2, 18480, Note_on_c, 0, 73, 110
2, 18528, Note_off_c, 0, 67, 64
2, 18672, Note_off_c, 0, 73, 64
2, 18720, Note_on_c, 0, 74, 110
2, 18720, Note_on_c, 0, 68, 110
2, 18912, Note_off_c, 0, 74, 64
2, 18960, Note_on_c, 0, 76, 110
2, 19104, Note_off_c, 0, 68, 64
2, 19152, Note_off_c, 0, 76, 64
2, 19200, Note_on_c, 0, 69, 110
2, 19200, Note_on_c, 0, 74, 110
2, 19224, Note_off_c, 0, 74, 64
2, 19230, Note_on_c, 0, 73, 110
2, 19254, Note_off_c, 0, 73, 64
2, 19260, Note_on_c, 0, 74, 110
2, 19284, Note_off_c, 0, 74, 64
2, 19290, Note_on_c, 0, 73, 110
2, 19314, Note_off_c, 0, 73, 64
2, 19320, Note_on_c, 0, 73, 110
2, 19584, Note_off_c, 0, 69, 64
2, 19680, Note_on_c, 0, 67, 110
2, 19824, Note_off_c, 0, 73, 64
2, 19920, Note_on_c, 0, 74, 110
2, 20064, Note_off_c, 0, 67, 64
2, 20112, Note_off_c, 0, 74, 64
2, 20160, Note_on_c, 0, 76, 110
2, 20160, Note_on_c, 0, 70, 110
2, 20256, Note_off_c, 0, 76, 64
2, 20280, Note_on_c, 0, 77, 110
2, 20376, Note_off_c, 0, 77, 64
2, 20400, Note_on_c, 0, 76, 110
2, 20496, Note_off_c, 0, 76, 64
2, 20520, Note_on_c, 0, 77, 110
2, 20544, Note_off_c, 0, 70, 64
2, 20616, Note_off_c, 0, 77, 64
2, 20640, Note_on_c, 0, 79, 110
2, 20640, Note_on_c, 0, 69, 110
2, 20664, Note_off_c, 0, 79, 64
2, 20670, Note_on_c, 0, 77, 110
2, 20694, Note_off_c, 0, 77, 64
2, 20700, Note_on_c, 0, 79, 110
2, 20724, Note_off_c, 0, 79, 64
2, 20730, Note_on_c, 0, 77, 110
2, 20754, Note_off_c, 0, 77, 64
2, 20760, Note_on_c, 0, 79, 110
2, 20784, Note_off_c, 0, 79, 64
2, 20790, Note_on_c, 0, 77, 110
2, 20814, Note_off_c, 0, 77, 64
2, 20820, Note_on_c, 0, 79, 110
2, 20844, Note_off_c, 0, 79, 64
2, 20850, Note_on_c, 0, 77, 110
2, 20874, Note_off_c, 0, 77, 64
2, 20880, Note_on_c, 0, 79, 110
2, 20904, Note_off_c, 0, 79, 64
2, 20910, Note_on_c, 0, 77, 110
2, 20934, Note_off_c, 0, 77, 64
2, 20940, Note_on_c, 0, 79, 110
2, 20964, Note_off_c, 0, 79, 64
2, 20970, Note_on_c, 0, 77, 110
2, 20994, Note_off_c, 0, 77, 64
2, 21000, Note_on_c, 0, 79, 110
2, 21024, Note_off_c, 0, 79, 64
2, 21024, Note_off_c, 0, 69, 64
2, 21030, Note_on_c, 0, 77, 110
2, 21054, Note_off_c, 0, 77, 64
2, 21060, Note_on_c, 0, 79, 110
2, 21084, Note_off_c, 0, 79, 64
2, 21090, Note_on_c, 0, 77, 110
2, 21114, Note_off_c, 0, 77, 64
2, 21120, Note_on_c, 0, 68, 110
2, 21120, Note_on_c, 0, 79, 110
2, 21144, Note_off_c, 0, 79, 64
2, 21150, Note_on_c, 0, 77, 110
2, 21174, Note_off_c, 0, 77, 64
2, 21180, Note_on_c, 0, 79, 110
2, 21204, Note_off_c, 0, 79, 64
2, 21210, Note_on_c, 0, 77, 110
2, 21234, Note_off_c, 0, 77, 64
2, 21240, Note_on_c, 0, 79, 110
2, 21264, Note_off_c, 0, 79, 64
2, 21270, Note_on_c, 0, 77, 110
2, 21294, Note_off_c, 0, 77, 64
2, 21300, Note_on_c, 0, 79, 110
2, 21324, Note_off_c, 0, 79, 64
2, 21330, Note_on_c, 0, 77, 110
2, 21354, Note_off_c, 0, 77, 64
2, 21360, Note_on_c, 0, 76, 110
2, 21552, Note_off_c, 0, 76, 64
2, 21600, Note_on_c, 0, 76, 110
2, 22032, Note_off_c, 0, 68, 64
2, 22080, Note_on_c, 0, 69, 110
2, 22752, Note_off_c, 0, 76, 64
2, 22848, Note_off_c, 0, 69, 64
2, 23040, Note_on_c, 0, 69, 110
2, 23040, Note_on_c, 0, 76, 110
2, 23424, Note_off_c, 0, 76, 64
2, 23424, Note_off_c, 0, 69, 64
2, 23520, Note_on_c, 0, 76, 110
2, 23520, Note_on_c, 0, 70, 110
2, 24096, Note_off_c, 0, 70, 64
2, 24240, Note_on_c, 0, 69, 110
2, 24432, Note_off_c, 0, 69, 64
2, 24480, Note_on_c, 0, 67, 110
2, 24864, Note_off_c, 0, 76, 64
2, 24864, Note_off_c, 0, 67, 64
2, 24960, Note_on_c, 0, 65, 110
2, 24960, Note_on_c, 0, 75, 110
2, 25728, Note_off_c, 0, 75, 64
2, 25920, Note_on_c, 0, 74, 110
2, 26304, Note_off_c, 0, 65, 64
2, 26304, Note_off_c, 0, 74, 64
2, 26400, Note_on_c, 0, 76, 110
2, 26400, Note_on_c, 0, 67, 110
2, 26784, Note_off_c, 0, 67, 64
2, 26880, Note_on_c, 0, 69, 110
2, 26976, Note_off_c, 0, 76, 64
2, 27120, Note_on_c, 0, 77, 110
2, 27264, Note_off_c, 0, 69, 64
2, 27312, Note_off_c, 0, 77, 64
2, 27360, Note_on_c, 0, 76, 110
2, 27360, Note_on_c, 0, 67, 110
2, 27936, Note_off_c, 0, 76, 64
2, 28080, Note_on_c, 0, 74, 110
2, 28128, Note_off_c, 0, 67, 64
2, 28272, Note_off_c, 0, 74, 64
2, 28320, Note_on_c, 0, 72, 110
2, 28320, Note_on_c, 0, 67, 110
2, 28704, Note_off_c, 0, 67, 64
2, 28704, Note_off_c, 0, 72, 64
2, 28800, Note_on_c, 0, 77, 110
2, 28800, Note_on_c, 0, 72, 110
2, 29184, Note_off_c, 0, 77, 64
2, 29280, Note_on_c, 0, 79, 110
2, 29856, Note_off_c, 0, 79, 64
2, 29952, Note_off_c, 0, 72, 64
2, 30000, Note_on_c, 0, 81, 110
2, 30192, Note_off_c, 0, 81, 64
2, 30240, Note_on_c, 0, 74, 110
2, 30240, Note_on_c, 0, 81, 110
2, 30432, Note_off_c, 0, 81, 64
2, 30480, Note_on_c, 0, 79, 110
2, 30624, Note_off_c, 0, 74, 64
2, 30672, Note_off_c, 0, 79, 64
2, 30720, Note_on_c, 0, 79, 110
2, 30720, Note_on_c, 0, 72, 110
2, 30912, Note_off_c, 0, 79, 64
2, 30960, Note_on_c, 0, 81, 110
2, 31104, Note_off_c, 0, 72, 64
2, 31152, Note_off_c, 0, 81, 64
2, 31200, Note_on_c, 0, 81, 110
2, 31200, Note_on_c, 0, 70, 110
2, 31296, Note_off_c, 0, 81, 64
2, 31320, Note_on_c, 0, 82, 110
2, 31416, Note_off_c, 0, 82, 64
2, 31440, Note_on_c, 0, 79, 110
2, 31584, Note_off_c, 0, 70, 64
2, 31632, Note_off_c, 0, 79, 64
2, 31680, Note_on_c, 0, 69, 110
2, 31680, Note_on_c, 0, 77, 110
2, 31872, Note_off_c, 0, 77, 64
2, 31920, Note_on_c, 0, 74, 110
2, 32064, Note_off_c, 0, 69, 64
2, 32112, Note_off_c, 0, 74, 64
2, 32160, Note_on_c, 0, 67, 110
2, 32160, Note_on_c, 0, 74, 110
2, 32184, Note_off_c, 0, 74, 64
2, 32190, Note_on_c, 0, 76, 110
2, 32214, Note_off_c, 0, 76, 64
2, 32220, Note_on_c, 0, 77, 110
2, 32244, Note_off_c, 0, 77, 64
2, 32250, Note_on_c, 0, 76, 110
2, 32274, Note_off_c, 0, 76, 64
2, 32280, Note_on_c, 0, 77, 110
2, 32304, Note_off_c, 0, 77, 64
2, 32310, Note_on_c, 0, 76, 110
2, 32334, Note_off_c, 0, 76, 64
2, 32340, Note_on_c, 0, 77, 110
2, 32352, Note_off_c, 0, 67, 64
2, 32364, Note_off_c, 0, 77, 64
2, 32370, Note_on_c, 0, 76, 110
2, 32394, Note_off_c, 0, 76, 64
2, 32400, Note_on_c, 0, 77, 110
2, 32400, Note_on_c, 0, 69, 110
2, 32424, Note_off_c, 0, 77, 64
2, 32430, Note_on_c, 0, 76, 110
2, 32454, Note_off_c, 0, 76, 64
2, 32460, Note_on_c, 0, 77, 110
2, 32484, Note_off_c, 0, 77, 64
2, 32490, Note_on_c, 0, 76, 110
2, 32514, Note_off_c, 0, 76, 64
2, 32520, Note_on_c, 0, 77, 110
2, 32544, Note_off_c, 0, 77, 64
2, 32550, Note_on_c, 0, 76, 110
2, 32574, Note_off_c, 0, 76, 64
2, 32580, Note_on_c, 0, 77, 110
2, 32592, Note_off_c, 0, 69, 64
2, 32604, Note_off_c, 0, 77, 64
2, 32610, Note_on_c, 0, 76, 110
2, 32634, Note_off_c, 0, 76, 64
2, 32640, Note_on_c, 0, 70, 110
2, 32640, Note_on_c, 0, 77, 110
2, 32664, Note_off_c, 0, 77, 64
2, 32670, Note_on_c, 0, 76, 110
2, 32694, Note_off_c, 0, 76, 64
2, 32700, Note_on_c, 0, 77, 110
2, 32724, Note_off_c, 0, 77, 64
2, 32730, Note_on_c, 0, 76, 110
2, 32754, Note_off_c, 0, 76, 64
2, 32760, Note_on_c, 0, 77, 110
2, 32784, Note_off_c, 0, 77, 64
2, 32790, Note_on_c, 0, 76, 110
2, 32814, Note_off_c, 0, 76, 64
2, 32820, Note_on_c, 0, 77, 110
2, 32844, Note_off_c, 0, 77, 64
2, 32850, Note_on_c, 0, 76, 110
2, 32874, Note_off_c, 0, 76, 64
2, 32880, Note_on_c, 0, 77, 110
2, 33072, Note_off_c, 0, 77, 64
2, 33120, Note_on_c, 0, 77, 110
2, 33312, Note_off_c, 0, 70, 64
2, 33360, Note_on_c, 0, 67, 110
2, 33552, Note_off_c, 0, 67, 64
2, 33600, Note_on_c, 0, 69, 110
2, 34272, Note_off_c, 0, 77, 64
2, 34368, Note_off_c, 0, 69, 64
2, 34560, Note_on_c, 0, 81, 110
2, 34560, Note_on_c, 0, 74, 110
2, 34944, Note_off_c, 0, 81, 64
2, 35040, Note_on_c, 0, 79, 110
2, 35232, Note_off_c, 0, 79, 64
2, 35280, Note_on_c, 0, 78, 110
2, 35328, Note_off_c, 0, 74, 64
2, 35472, Note_off_c, 0, 78, 64
2, 35520, Note_on_c, 0, 76, 110
2, 35520, Note_on_c, 0, 72, 110
2, 35712, Note_off_c, 0, 76, 64
2, 35760, Note_on_c, 0, 74, 110
2, 35904, Note_off_c, 0, 72, 64
2, 35952, Note_off_c, 0, 74, 64
2, 36000, Note_on_c, 0, 82, 110
2, 36000, Note_on_c, 0, 70, 110
2, 36192, Note_off_c, 0, 82, 64
2, 36240, Note_on_c, 0, 79, 110
2, 36432, Note_off_c, 0, 79, 64
2, 36480, Note_on_c, 0, 76, 110
2, 36576, Note_off_c, 0, 70, 64
2, 36720, Note_on_c, 0, 69, 110
2, 36912, Note_off_c, 0, 69, 64
2, 36960, Note_on_c, 0, 67, 110
2, 37056, Note_off_c, 0, 76, 64
2, 37200, Note_on_c, 0, 77, 110
2, 37344, Note_off_c, 0, 67, 64
2, 37392, Note_off_c, 0, 77, 64
2, 37440, Note_on_c, 0, 69, 110
2, 37440, Note_on_c, 0, 79, 110
2, 37632, Note_off_c, 0, 79, 64
2, 37680, Note_on_c, 0, 76, 110
2, 37824, Note_off_c, 0, 69, 64
2, 37872, Note_off_c, 0, 76, 64
2, 37920, Note_on_c, 0, 74, 110
2, 37920, Note_on_c, 0, 69, 110
2, 37944, Note_off_c, 0, 74, 64
2, 37950, Note_on_c, 0, 73, 110
2, 37974, Note_off_c, 0, 73, 64
2, 37980, Note_on_c, 0, 74, 110
2, 38004, Note_off_c, 0, 74, 64
2, 38010, Note_on_c, 0, 73, 110
2, 38304, Note_off_c, 0, 69, 64
2, 38400, Note_on_c, 0, 65, 110
2, 38544, Note_off_c, 0, 73, 64
2, 38640, Note_on_c, 0, 74, 110
2, 38784, Note_off_c, 0, 65, 64
2, 38832, Note_off_c, 0, 74, 64
2, 38880, Note_on_c, 0, 64, 110
2, 38880, Note_on_c, 0, 76, 110
2, 39072, Note_off_c, 0, 76, 64
2, 39120, Note_on_c, 0, 73, 110
2, 39312, Note_off_c, 0, 73, 64
2, 39360, Note_on_c, 0, 69, 110
2, 40032, Note_off_c, 0, 64, 64
2, 40320, Note_on_c, 0, 62, 110
2, 40512, Note_off_c, 0, 69, 64
2, 40800, Note_on_c, 0, 71, 110
2, 40992, Note_off_c, 0, 71, 64
2, 41040, Note_on_c, 0, 72, 110
2, 41232, Note_off_c, 0, 72, 64
2, 41280, Note_on_c, 0, 69, 110
2, 41472, Note_off_c, 0, 69, 64
2, 41472, Note_off_c, 0, 62, 64
2, 41520, Note_on_c, 0, 71, 110
2, 41520, Note_on_c, 0, 64, 110
2, 41712, Note_off_c, 0, 64, 64
2, 41712, Note_off_c, 0, 71, 64
2, 41760, Note_on_c, 0, 74, 110
2, 41760, Note_on_c, 0, 65, 110
2, 41952, Note_off_c, 0, 65, 64
2, 41952, Note_off_c, 0, 74, 64
2, 42000, Note_on_c, 0, 71, 110
2, 42000, Note_on_c, 0, 62, 110
2, 42192, Note_off_c, 0, 62, 64
2, 42192, Note_off_c, 0, 71, 64
2, 42240, Note_on_c, 0, 73, 110
2, 42240, Note_on_c, 0, 64, 110
2, 42432, Note_off_c, 0, 64, 64
2, 42432, Note_off_c, 0, 73, 64
2, 42480, Note_on_c, 0, 74, 110
2, 42480, Note_on_c, 0, 65, 110
2, 42672, Note_off_c, 0, 65, 64
2, 42672, Note_off_c, 0, 74, 64
2, 42720, Note_on_c, 0, 76, 110
2, 42720, Note_on_c, 0, 67, 110
2, 42912, Note_off_c, 0, 67, 64
2, 42912, Note_off_c, 0, 76, 64
2, 42960, Note_on_c, 0, 73, 110
2, 42960, Note_on_c, 0, 64, 110
2, 43152, Note_off_c, 0, 64, 64
2, 43152, Note_off_c, 0, 73, 64
2, 43200, Note_on_c, 0, 74, 110
2, 43200, Note_on_c, 0, 65, 110
2, 43392, Note_off_c, 0, 65, 64
2, 43440, Note_on_c, 0, 70, 110
2, 43488, Note_off_c, 0, 74, 64
2, 43500, Note_on_c, 0, 76, 110
2, 43548, Note_off_c, 0, 76, 64
2, 43560, Note_on_c, 0, 74, 110
2, 43584, Note_off_c, 0, 74, 64
2, 43590, Note_on_c, 0, 73, 110
2, 43614, Note_off_c, 0, 73, 64
2, 43620, Note_on_c, 0, 74, 110
2, 43632, Note_off_c, 0, 70, 64
2, 43644, Note_off_c, 0, 74, 64
2, 43650, Note_on_c, 0, 76, 110
2, 43674, Note_off_c, 0, 76, 64
2, 43680, Note_on_c, 0, 77, 110
2, 43680, Note_on_c, 0, 69, 110
2, 43704, Note_off_c, 0, 77, 64
2, 43710, Note_on_c, 0, 76, 110
2, 43734, Note_off_c, 0, 76, 64
2, 43740, Note_on_c, 0, 77, 110
2, 43764, Note_off_c, 0, 77, 64
2, 43770, Note_on_c, 0, 76, 110
2, 44064, Note_off_c, 0, 69, 64
2, 44160, Note_on_c, 0, 67, 110
2, 44304, Note_off_c, 0, 76, 64
2, 44400, Note_on_c, 0, 74, 110
2, 44592, Note_off_c, 0, 74, 64
2, 44640, Note_on_c, 0, 74, 110
2, 44832, Note_off_c, 0, 67, 64
2, 44880, Note_on_c, 0, 64, 110
2, 45072, Note_off_c, 0, 64, 64
2, 45120, Note_on_c, 0, 65, 110
2, 45792, Note_off_c, 0, 74, 64
2, 45888, Note_off_c, 0, 65, 64
2, 46080, Note_on_c, 0, 69, 110
2, 46080, Note_on_c, 0, 76, 110
2, 46464, Note_off_c, 0, 76, 64
2, 46464, Note_off_c, 0, 69, 64
2, 46560, Note_on_c, 0, 76, 110
2, 46560, Note_on_c, 0, 70, 110
2, 47136, Note_off_c, 0, 70, 64
2, 47280, Note_on_c, 0, 69, 110
2, 47472, Note_off_c, 0, 69, 64
2, 47520, Note_on_c, 0, 67, 110
2, 47904, Note_off_c, 0, 76, 64
2, 47904, Note_off_c, 0, 67, 64
2, 48000, Note_on_c, 0, 65, 110
2, 48000, Note_on_c, 0, 75, 110
2, 48768, Note_off_c, 0, 75, 64
2, 48960, Note_on_c, 0, 74, 110
2, 49344, Note_off_c, 0, 65, 64
2, 49344, Note_off_c, 0, 74, 64
2, 49440, Note_on_c, 0, 76, 110
2, 49440, Note_on_c, 0, 67, 110
2, 49824, Note_off_c, 0, 67, 64
2, 49920, Note_on_c, 0, 69, 110
2, 50016, Note_off_c, 0, 76, 64
2, 50160, Note_on_c, 0, 77, 110
2, 50304, Note_off_c, 0, 69, 64
2, 50352, Note_off_c, 0, 77, 64
2, 50400, Note_on_c, 0, 76, 110
2, 50400, Note_on_c, 0, 67, 110
2, 50976, Note_off_c, 0, 76, 64
2, 51120, Note_on_c, 0, 74, 110
2, 51168, Note_off_c, 0, 67, 64
2, 51312, Note_off_c, 0, 74, 64
2, 51360, Note_on_c, 0, 72, 110
2, 51360, Note_on_c, 0, 67, 110
2, 51744, Note_off_c, 0, 67, 64
2, 51744, Note_off_c, 0, 72, 64
2, 51840, Note_on_c, 0, 77, 110
2, 51840, Note_on_c, 0, 72, 110
2, 52224, Note_off_c, 0, 77, 64
2, 52320, Note_on_c, 0, 79, 110
2, 52896, Note_off_c, 0, 79, 64
2, 52992, Note_off_c, 0, 72, 64
2, 53040, Note_on_c, 0, 81, 110
2, 53232, Note_off_c, 0, 81, 64
2, 53280, Note_on_c, 0, 74, 110
2, 53280, Note_on_c, 0, 81, 110
2, 53472, Note_off_c, 0, 81, 64
2, 53520, Note_on_c, 0, 79, 110
2, 53664, Note_off_c, 0, 74, 64
2, 53712, Note_off_c, 0, 79, 64
2, 53760, Note_on_c, 0, 79, 110
2, 53760, Note_on_c, 0, 72, 110
2, 53952, Note_off_c, 0, 79, 64
2, 54000, Note_on_c, 0, 81, 110
2, 54144, Note_off_c, 0, 72, 64
2, 54192, Note_off_c, 0, 81, 64
2, 54240, Note_on_c, 0, 81, 110
2, 54240, Note_on_c, 0, 70, 110
2, 54336, Note_off_c, 0, 81, 64
2, 54360, Note_on_c, 0, 82, 110
2, 54456, Note_off_c, 0, 82, 64
2, 54480, Note_on_c, 0, 79, 110
2, 54624, Note_off_c, 0, 70, 64
2, 54672, Note_off_c, 0, 79, 64
2, 54720, Note_on_c, 0, 69, 110
2, 54720, Note_on_c, 0, 77, 110
2, 54912, Note_off_c, 0, 77, 64
2, 54960, Note_on_c, 0, 74, 110
2, 55104, Note_off_c, 0, 69, 64
2, 55152, Note_off_c, 0, 74, 64
2, 55200, Note_on_c, 0, 67, 110
2, 55200, Note_on_c, 0, 74, 110
2, 55224, Note_off_c, 0, 74, 64
2, 55230, Note_on_c, 0, 76, 110
2, 55254, Note_off_c, 0, 76, 64
2, 55260, Note_on_c, 0, 77, 110
2, 55284, Note_off_c, 0, 77, 64
2, 55290, Note_on_c, 0, 76, 110
2, 55314, Note_off_c, 0, 76, 64
2, 55320, Note_on_c, 0, 77, 110
2, 55344, Note_off_c, 0, 77, 64
2, 55350, Note_on_c, 0, 76, 110
2, 55374, Note_off_c, 0, 76, 64
2, 55380, Note_on_c, 0, 77, 110
2, 55392, Note_off_c, 0, 67, 64
2, 55404, Note_off_c, 0, 77, 64
2, 55410, Note_on_c, 0, 76, 110
2, 55434, Note_off_c, 0, 76, 64
2, 55440, Note_on_c, 0, 77, 110
2, 55440, Note_on_c, 0, 69, 110
2, 55464, Note_off_c, 0, 77, 64
2, 55470, Note_on_c, 0, 76, 110
2, 55494, Note_off_c, 0, 76, 64
2, 55500, Note_on_c, 0, 77, 110
2, 55524, Note_off_c, 0, 77, 64
2, 55530, Note_on_c, 0, 76, 110
2, 55554, Note_off_c, 0, 76, 64
2, 55560, Note_on_c, 0, 77, 110
2, 55584, Note_off_c, 0, 77, 64
2, 55590, Note_on_c, 0, 76, 110
2, 55614, Note_off_c, 0, 76, 64
2, 55620, Note_on_c, 0, 77, 110
2, 55632, Note_off_c, 0, 69, 64
2, 55644, Note_off_c, 0, 77, 64
2, 55650, Note_on_c, 0, 76, 110
2, 55674, Note_off_c, 0, 76, 64
2, 55680, Note_on_c, 0, 70, 110
2, 55680, Note_on_c, 0, 77, 110
2, 55704, Note_off_c, 0, 77, 64
2, 55710, Note_on_c, 0, 76, 110
2, 55734, Note_off_c, 0, 76, 64
2, 55740, Note_on_c, 0, 77, 110
2, 55764, Note_off_c, 0, 77, 64
2, 55770, Note_on_c, 0, 76, 110
2, 55794, Note_off_c, 0, 76, 64
2, 55800, Note_on_c, 0, 77, 110
2, 55824, Note_off_c, 0, 77, 64
2, 55830, Note_on_c, 0, 76, 110
2, 55854, Note_off_c, 0, 76, 64
2, 55860, Note_on_c, 0, 77, 110
2, 55884, Note_off_c, 0, 77, 64
2, 55890, Note_on_c, 0, 76, 110
2, 55914, Note_off_c, 0, 76, 64
2, 55920, Note_on_c, 0, 77, 110
2, 56112, Note_off_c, 0, 77, 64
2, 56160, Note_on_c, 0, 77, 110
2, 56352, Note_off_c, 0, 70, 64
2, 56400, Note_on_c, 0, 67, 110
2, 56592, Note_off_c, 0, 67, 64
2, 56640, Note_on_c, 0, 69, 110
2, 57312, Note_off_c, 0, 77, 64
2, 57408, Note_off_c, 0, 69, 64
2, 57600, Note_on_c, 0, 81, 110
2, 57600, Note_on_c, 0, 74, 110
2, 57984, Note_off_c, 0, 81, 64
2, 58080, Note_on_c, 0, 79, 110
2, 58272, Note_off_c, 0, 79, 64
2, 58320, Note_on_c, 0, 78, 110
2, 58368, Note_off_c, 0, 74, 64
2, 58512, Note_off_c, 0, 78, 64
2, 58560, Note_on_c, 0, 76, 110
2, 58560, Note_on_c, 0, 72, 110
2, 58752, Note_off_c, 0, 76, 64
2, 58800, Note_on_c, 0, 74, 110
2, 58944, Note_off_c, 0, 72, 64
2, 58992, Note_off_c, 0, 74, 64
2, 59040, Note_on_c, 0, 82, 110
2, 59040, Note_on_c, 0, 70, 110
2, 59232, Note_off_c, 0, 82, 64
2, 59280, Note_on_c, 0, 79, 110
2, 59472, Note_off_c, 0, 79, 64
2, 59520, Note_on_c, 0, 76, 110
2, 59616, Note_off_c, 0, 70, 64
2, 59760, Note_on_c, 0, 69, 110
2, 59952, Note_off_c, 0, 69, 64
2, 60000, Note_on_c, 0, 67, 110
2, 60096, Note_off_c, 0, 76, 64
2, 60240, Note_on_c, 0, 77, 110
2, 60384, Note_off_c, 0, 67, 64
2, 60432, Note_off_c, 0, 77, 64
2, 60480, Note_on_c, 0, 69, 110
2, 60480, Note_on_c, 0, 79, 110
2, 60672, Note_off_c, 0, 79, 64
2, 60720, Note_on_c, 0, 76, 110
2, 60864, Note_off_c, 0, 69, 64
2, 60912, Note_off_c, 0, 76, 64
2, 60960, Note_on_c, 0, 74, 110
2, 60960, Note_on_c, 0, 69, 110
2, 60984, Note_off_c, 0, 74, 64
2, 60990, Note_on_c, 0, 73, 110
2, 61014, Note_off_c, 0, 73, 64
2, 61020, Note_on_c, 0, 74, 110
2, 61044, Note_off_c, 0, 74, 64
2, 61050, Note_on_c, 0, 73, 110
2, 61344, Note_off_c, 0, 69, 64
2, 61440, Note_on_c, 0, 65, 110
2, 61584, Note_off_c, 0, 73, 64
2, 61680, Note_on_c, 0, 74, 110
2, 61824, Note_off_c, 0, 65, 64
2, 61872, Note_off_c, 0, 74, 64
2, 61920, Note_on_c, 0, 64, 110
2, 61920, Note_on_c, 0, 76, 110
2, 62112, Note_off_c, 0, 76, 64
2, 62160, Note_on_c, 0, 73, 110
2, 62352, Note_off_c, 0, 73, 64
2, 62400, Note_on_c, 0, 69, 110
2, 63072, Note_off_c, 0, 64, 64
2, 63360, Note_on_c, 0, 62, 110
2, 63552, Note_off_c, 0, 69, 64
2, 63840, Note_on_c, 0, 71, 110
2, 64032, Note_off_c, 0, 71, 64
2, 64080, Note_on_c, 0, 72, 110
2, 64272, Note_off_c, 0, 72, 64
2, 64320, Note_on_c, 0, 69, 110
2, 64512, Note_off_c, 0, 69, 64
2, 64512, Note_off_c, 0, 62, 64
2, 64560, Note_on_c, 0, 71, 110
2, 64560, Note_on_c, 0, 64, 110
2, 64752, Note_off_c, 0, 64, 64
2, 64752, Note_off_c, 0, 71, 64
2, 64800, Note_on_c, 0, 74, 110
2, 64800, Note_on_c, 0, 65, 110
2, 64992, Note_off_c, 0, 65, 64
2, 64992, Note_off_c, 0, 74, 64
2, 65040, Note_on_c, 0, 71, 110
2, 65040, Note_on_c, 0, 62, 110
2, 65232, Note_off_c, 0, 62, 64
2, 65232, Note_off_c, 0, 71, 64
2, 65280, Note_on_c, 0, 73, 110
2, 65280, Note_on_c, 0, 64, 110
2, 65472, Note_off_c, 0, 64, 64
2, 65472, Note_off_c, 0, 73, 64
2, 65520, Note_on_c, 0, 74, 110
2, 65520, Note_on_c, 0, 65, 110
2, 65712, Note_off_c, 0, 65, 64
2, 65712, Note_off_c, 0, 74, 64
2, 65760, Note_on_c, 0, 76, 110
2, 65760, Note_on_c, 0, 67, 110
2, 65952, Note_off_c, 0, 67, 64
2, 65952, Note_off_c, 0, 76, 64
2, 66000, Note_on_c, 0, 73, 110
2, 66000, Note_on_c, 0, 64, 110
2, 66192, Note_off_c, 0, 64, 64
2, 66192, Note_off_c, 0, 73, 64
2, 66240, Note_on_c, 0, 74, 110
2, 66240, Note_on_c, 0, 65, 110
2, 66432, Note_off_c, 0, 65, 64
2, 66480, Note_on_c, 0, 70, 110
2, 66528, Note_off_c, 0, 74, 64
2, 66540, Note_on_c, 0, 76, 110
2, 66588, Note_off_c, 0, 76, 64
2, 66600, Note_on_c, 0, 74, 110
2, 66624, Note_off_c, 0, 74, 64
2, 66630, Note_on_c, 0, 73, 110
2, 66654, Note_off_c, 0, 73, 64
2, 66660, Note_on_c, 0, 74, 110
2, 66672, Note_off_c, 0, 70, 64
2, 66684, Note_off_c, 0, 74, 64
2, 66690, Note_on_c, 0, 76, 110
2, 66714, Note_off_c, 0, 76, 64
2, 66720, Note_on_c, 0, 77, 110
2, 66720, Note_on_c, 0, 69, 110
2, 66744, Note_off_c, 0, 77, 64
2, 66750, Note_on_c, 0, 76, 110
2, 66774, Note_off_c, 0, 76, 64
2, 66780, Note_on_c, 0, 77, 110
2, 66804, Note_off_c, 0, 77, 64
2, 66810, Note_on_c, 0, 76, 110
2, 67104, Note_off_c, 0, 69, 64
2, 67200, Note_on_c, 0, 67, 110
2, 67344, Note_off_c, 0, 76, 64
2, 67440, Note_on_c, 0, 74, 110
2, 67632, Note_off_c, 0, 74, 64
2, 67680, Note_on_c, 0, 74, 110
2, 67872, Note_off_c, 0, 67, 64
2, 67920, Note_on_c, 0, 64, 110
2, 68112, Note_off_c, 0, 64, 64
2, 68160, Note_on_c, 0, 65, 110
2, 68832, Note_off_c, 0, 74, 64
2, 68928, Note_off_c, 0, 65, 64
2, 68928, End_track
3, 0, Start_track
3, 0, Title_t, "J.S. Bach, Edition Kalmus"
3, 0, Program_c, 1, 0
3, 0, Note_on_c, 1, 62, 110
3, 0, Note_on_c, 1, 50, 110
3, 384, Note_off_c, 1, 50, 64
3, 384, Note_off_c, 1, 62, 64
3, 480, Note_on_c, 1, 62, 110
3, 1248, Note_off_c, 1, 62, 64
3, 1440, Note_on_c, 1, 64, 110
3, 1440, Note_on_c, 1, 61, 110
3, 1824, Note_off_c, 1, 61, 64
3, 1824, Note_off_c, 1, 64, 64
3, 1920, Note_on_c, 1, 60, 110
3, 1920, Note_on_c, 1, 62, 110
3, 2688, Note_off_c, 1, 62, 64
3, 2688, Note_off_c, 1, 60, 64
3, 2880, Note_on_c, 1, 62, 110
3, 2880, Note_on_c, 1, 58, 110
3, 3264, Note_off_c, 1, 58, 64
3, 3264, Note_off_c, 1, 62, 64
3, 3360, Note_on_c, 1, 55, 110
3, 3744, Note_off_c, 1, 55, 64
3, 3840, Note_on_c, 1, 56, 110
3, 4224, Note_off_c, 1, 56, 64
3, 4320, Note_on_c, 1, 64, 110
3, 4320, Note_on_c, 1, 57, 110
3, 4704, Note_off_c, 1, 64, 64
3, 4800, Note_on_c, 1, 62, 110
3, 5088, Note_off_c, 1, 57, 64
3, 5184, Note_off_c, 1, 62, 64
3, 5280, Note_on_c, 1, 61, 110
3, 5280, Note_on_c, 1, 55, 110
3, 5664, Note_off_c, 1, 55, 64
3, 5664, Note_off_c, 1, 61, 64
3, 5760, Note_on_c, 1, 62, 110
3, 5760, Note_on_c, 1, 54, 110
3, 6144, Note_off_c, 1, 54, 64
3, 6144, Note_off_c, 1, 62, 64
3, 6240, Note_on_c, 1, 53, 110
3, 6240, Note_on_c, 1, 62, 110
3, 7008, Note_off_c, 1, 62, 64
3, 7008, Note_off_c, 1, 53, 64
3, 7200, Note_on_c, 1, 64, 110
3, 7200, Note_on_c, 1, 52, 110
3, 7584, Note_off_c, 1, 52, 64
3, 7680, Note_on_c, 1, 55, 110
3, 7968, Note_off_c, 1, 64, 64
3, 8064, Note_off_c, 1, 55, 64
3, 8160, Note_on_c, 1, 58, 110
3, 8160, Note_on_c, 1, 62, 110
3, 8544, Note_off_c, 1, 62, 64
3, 8544, Note_off_c, 1, 58, 64
3, 8640, Note_on_c, 1, 49, 110
3, 8640, Note_on_c, 1, 55, 110
3, 9024, Note_off_c, 1, 55, 64
3, 9024, Note_off_c, 1, 49, 64
3, 9120, Note_on_c, 1, 50, 110
3, 9120, Note_on_c, 1, 62, 110
3, 9504, Note_off_c, 1, 62, 64
3, 9600, Note_on_c, 1, 59, 110
3, 9888, Note_off_c, 1, 50, 64
3, 10080, Note_on_c, 1, 57, 110
3, 10272, Note_off_c, 1, 59, 64
3, 10320, Note_on_c, 1, 59, 110
3, 10512, Note_off_c, 1, 59, 64
3, 10560, Note_on_c, 1, 61, 110
3, 11232, Note_off_c, 1, 57, 64
3, 11328, Note_off_c, 1, 61, 64
3, 11520, Note_on_c, 1, 62, 110
3, 11520, Note_on_c, 1, 50, 110
3, 11904, Note_off_c, 1, 50, 64
3, 11904, Note_off_c, 1, 62, 64
3, 12000, Note_on_c, 1, 62, 110
3, 12768, Note_off_c, 1, 62, 64
3, 12960, Note_on_c, 1, 64, 110
3, 12960, Note_on_c, 1, 61, 110
3, 13344, Note_off_c, 1, 61, 64
3, 13344, Note_off_c, 1, 64, 64
3, 13440, Note_on_c, 1, 60, 110
3, 13440, Note_on_c, 1, 62, 110
3, 14208, Note_off_c, 1, 62, 64
3, 14208, Note_off_c, 1, 60, 64
3, 14400, Note_on_c, 1, 62, 110
3, 14400, Note_on_c, 1, 58, 110
3, 14784, Note_off_c, 1, 58, 64
3, 14784, Note_off_c, 1, 62, 64
3, 14880, Note_on_c, 1, 55, 110
3, 15264, Note_off_c, 1, 55, 64
3, 15360, Note_on_c, 1, 56, 110
3, 15744, Note_off_c, 1, 56, 64
3, 15840, Note_on_c, 1, 64, 110
3, 15840, Note_on_c, 1, 57, 110
3, 16224, Note_off_c, 1, 64, 64
3, 16320, Note_on_c, 1, 62, 110
3, 16608, Note_off_c, 1, 57, 64
3, 16704, Note_off_c, 1, 62, 64
3, 16800, Note_on_c, 1, 61, 110
3, 16800, Note_on_c, 1, 55, 110
3, 17184, Note_off_c, 1, 55, 64
3, 17184, Note_off_c, 1, 61, 64
3, 17280, Note_on_c, 1, 62, 110
3, 17280, Note_on_c, 1, 54, 110
3, 17664, Note_off_c, 1, 54, 64
3, 17664, Note_off_c, 1, 62, 64
3, 17760, Note_on_c, 1, 53, 110
3, 17760, Note_on_c, 1, 62, 110
3, 18528, Note_off_c, 1, 62, 64
3, 18528, Note_off_c, 1, 53, 64
3, 18720, Note_on_c, 1, 64, 110
3, 18720, Note_on_c, 1, 52, 110
3, 19104, Note_off_c, 1, 52, 64
3, 19200, Note_on_c, 1, 55, 110
3, 19488, Note_off_c, 1, 64, 64
3, 19584, Note_off_c, 1, 55, 64
3, 19680, Note_on_c, 1, 58, 110
3, 19680, Note_on_c, 1, 62, 110
3, 20064, Note_off_c, 1, 62, 64
3, 20064, Note_off_c, 1, 58, 64
3, 20160, Note_on_c, 1, 49, 110
3, 20160, Note_on_c, 1, 55, 110
3, 20544, Note_off_c, 1, 55, 64
3, 20544, Note_off_c, 1, 49, 64
3, 20640, Note_on_c, 1, 50, 110
3, 20640, Note_on_c, 1, 62, 110
3, 21024, Note_off_c, 1, 62, 64
3, 21120, Note_on_c, 1, 59, 110
3, 21408, Note_off_c, 1, 50, 64
3, 21600, Note_on_c, 1, 57, 110
3, 21792, Note_off_c, 1, 59, 64
3, 21840, Note_on_c, 1, 59, 110
3, 22032, Note_off_c, 1, 59, 64
3, 22080, Note_on_c, 1, 61, 110
3, 22752, Note_off_c, 1, 57, 64
3, 22848, Note_off_c, 1, 61, 64
3, 23040, Note_on_c, 1, 57, 110
3, 23040, Note_on_c, 1, 61, 110
3, 23424, Note_off_c, 1, 61, 64
3, 23424, Note_off_c, 1, 57, 64
3, 23520, Note_on_c, 1, 61, 110
3, 23520, Note_on_c, 1, 55, 110
3, 24096, Note_off_c, 1, 55, 64
3, 24240, Note_on_c, 1, 57, 110
3, 24432, Note_off_c, 1, 57, 64
3, 24480, Note_on_c, 1, 58, 110
3, 24576, Note_off_c, 1, 58, 64
3, 24600, Note_on_c, 1, 55, 110
3, 24696, Note_off_c, 1, 55, 64
3, 24720, Note_on_c, 1, 57, 110
3, 24864, Note_off_c, 1, 61, 64
3, 24912, Note_off_c, 1, 57, 64
3, 24960, Note_on_c, 1, 60, 110
3, 24960, Note_on_c, 1, 55, 110
3, 24984, Note_off_c, 1, 55, 64
3, 24990, Note_on_c, 1, 57, 110
3, 25014, Note_off_c, 1, 57, 64
3, 25020, Note_on_c, 1, 58, 110
3, 25044, Note_off_c, 1, 58, 64
3, 25050, Note_on_c, 1, 57, 110
3, 25074, Note_off_c, 1, 57, 64
3, 25080, Note_on_c, 1, 58, 110
3, 25104, Note_off_c, 1, 58, 64
3, 25110, Note_on_c, 1, 57, 110
3, 25134, Note_off_c, 1, 57, 64
3, 25140, Note_on_c, 1, 58, 110
3, 25164, Note_off_c, 1, 58, 64
3, 25170, Note_on_c, 1, 57, 110
3, 25194, Note_off_c, 1, 57, 64
3, 25200, Note_on_c, 1, 58, 110
3, 25224, Note_off_c, 1, 58, 64
3, 25230, Note_on_c, 1, 57, 110
3, 25254, Note_off_c, 1, 57, 64
3, 25260, Note_on_c, 1, 58, 110
3, 25284, Note_off_c, 1, 58, 64
3, 25290, Note_on_c, 1, 57, 110
3, 25314, Note_off_c, 1, 57, 64
3, 25320, Note_on_c, 1, 58, 110
3, 25344, Note_off_c, 1, 58, 64
3, 25350, Note_on_c, 1, 57, 110
3, 25374, Note_off_c, 1, 57, 64
3, 25380, Note_on_c, 1, 58, 110
3, 25404, Note_off_c, 1, 58, 64
3, 25410, Note_on_c, 1, 57, 110
3, 25434, Note_off_c, 1, 57, 64
3, 25440, Note_on_c, 1, 58, 110
3, 25464, Note_off_c, 1, 58, 64
3, 25470, Note_on_c, 1, 57, 110
3, 25494, Note_off_c, 1, 57, 64
3, 25500, Note_on_c, 1, 58, 110
3, 25524, Note_off_c, 1, 58, 64
3, 25530, Note_on_c, 1, 57, 110
3, 25554, Note_off_c, 1, 57, 64
3, 25560, Note_on_c, 1, 58, 110
3, 25584, Note_off_c, 1, 58, 64
3, 25590, Note_on_c, 1, 57, 110
3, 25614, Note_off_c, 1, 57, 64
3, 25620, Note_on_c, 1, 58, 110
3, 25644, Note_off_c, 1, 58, 64
3, 25650, Note_on_c, 1, 57, 110
3, 25674, Note_off_c, 1, 57, 64
3, 25680, Note_on_c, 1, 57, 110
3, 25872, Note_off_c, 1, 57, 64
3, 25920, Note_on_c, 1, 58, 110
3, 26112, Note_off_c, 1, 58, 64
3, 26160, Note_on_c, 1, 57, 110
3, 26304, Note_off_c, 1, 60, 64
3, 26352, Note_off_c, 1, 57, 64
3, 26400, Note_on_c, 1, 55, 110
3, 26400, Note_on_c, 1, 58, 110
3, 26784, Note_off_c, 1, 58, 64
3, 26784, Note_off_c, 1, 55, 64
3, 26880, Note_on_c, 1, 53, 110
3, 26880, Note_on_c, 1, 60, 110
3, 27264, Note_off_c, 1, 60, 64
3, 27264, Note_off_c, 1, 53, 64
3, 27360, Note_on_c, 1, 60, 110
3, 27360, Note_on_c, 1, 60, 110
3, 27744, Note_off_c, 1, 60, 64
3, 27840, Note_on_c, 1, 62, 110
3, 28224, Note_off_c, 1, 60, 64
3, 28224, Note_off_c, 1, 62, 64
3, 28320, Note_on_c, 1, 64, 110
3, 28320, Note_on_c, 1, 58, 110
3, 28704, Note_off_c, 1, 58, 64
3, 28704, Note_off_c, 1, 64, 64
3, 28800, Note_on_c, 1, 65, 110
3, 28800, Note_on_c, 1, 57, 110
3, 29184, Note_off_c, 1, 57, 64
3, 29280, Note_on_c, 1, 55, 110
3, 29664, Note_off_c, 1, 55, 64
3, 29760, Note_on_c, 1, 53, 110
3, 30144, Note_off_c, 1, 53, 64
3, 30240, Note_on_c, 1, 58, 110
3, 30624, Note_off_c, 1, 58, 64
3, 30720, Note_on_c, 1, 57, 110
3, 31008, Note_off_c, 1, 65, 64
3, 31104, Note_off_c, 1, 57, 64
3, 31200, Note_on_c, 1, 67, 110
3, 31200, Note_on_c, 1, 55, 110
3, 31584, Note_off_c, 1, 55, 64
3, 31584, Note_off_c, 1, 67, 64
3, 31680, Note_on_c, 1, 60, 110
3, 31680, Note_on_c, 1, 57, 110
3, 31872, Note_off_c, 1, 57, 64
3, 31920, Note_on_c, 1, 58, 110
3, 32064, Note_off_c, 1, 60, 64
3, 32112, Note_off_c, 1, 58, 64
3, 32160, Note_on_c, 1, 60, 110
3, 32160, Note_on_c, 1, 60, 110
3, 32544, Note_off_c, 1, 60, 64
3, 32640, Note_on_c, 1, 48, 110
3, 33024, Note_off_c, 1, 48, 64
3, 33120, Note_on_c, 1, 53, 110
3, 33312, Note_off_c, 1, 60, 64
3, 33360, Note_on_c, 1, 58, 110
3, 33552, Note_off_c, 1, 58, 64
3, 33600, Note_on_c, 1, 60, 110
3, 34272, Note_off_c, 1, 53, 64
3, 34368, Note_off_c, 1, 60, 64
3, 34560, Note_on_c, 1, 62, 110
3, 34560, Note_on_c, 1, 54, 110
3, 34944, Note_off_c, 1, 54, 64
3, 35040, Note_on_c, 1, 52, 110
3, 35424, Note_off_c, 1, 52, 64
3, 35520, Note_on_c, 1, 54, 110
3, 35904, Note_off_c, 1, 54, 64
3, 36000, Note_on_c, 1, 55, 110
3, 36384, Note_off_c, 1, 55, 64
3, 36480, Note_on_c, 1, 57, 110
3, 36864, Note_off_c, 1, 57, 64
3, 36960, Note_on_c, 1, 58, 110
3, 37152, Note_off_c, 1, 62, 64
3, 37344, Note_off_c, 1, 58, 64
3, 37440, Note_on_c, 1, 57, 110
3, 37440, Note_on_c, 1, 61, 110
3, 37824, Note_off_c, 1, 61, 64
3, 37824, Note_off_c, 1, 57, 64
3, 37920, Note_on_c, 1, 55, 110
3, 37920, Note_on_c, 1, 64, 110
3, 38112, Note_off_c, 1, 55, 64
3, 38160, Note_on_c, 1, 53, 110
3, 38304, Note_off_c, 1, 64, 64
3, 38352, Note_off_c, 1, 53, 64
3, 38400, Note_on_c, 1, 57, 110
3, 38400, Note_on_c, 1, 52, 110
3, 38592, Note_off_c, 1, 52, 64
3, 38640, Note_on_c, 1, 50, 110
3, 38832, Note_off_c, 1, 50, 64
3, 38880, Note_on_c, 1, 49, 110
3, 39456, Note_off_c, 1, 57, 64
3, 39600, Note_on_c, 1, 58, 110
3, 39792, Note_off_c, 1, 58, 64
3, 39840, Note_on_c, 1, 57, 110
3, 40032, Note_off_c, 1, 57, 64
3, 40032, Note_off_c, 1, 49, 64
3, 40080, Note_on_c, 1, 55, 110
3, 40272, Note_off_c, 1, 55, 64
3, 40320, Note_on_c, 1, 48, 110
3, 40320, Note_on_c, 1, 54, 110
3, 41088, Note_off_c, 1, 54, 64
3, 41088, Note_off_c, 1, 48, 64
3, 41280, Note_on_c, 1, 55, 110
3, 41280, Note_on_c, 1, 47, 110
3, 41664, Note_off_c, 1, 55, 64
3, 41760, Note_on_c, 1, 56, 110
3, 42144, Note_off_c, 1, 47, 64
3, 42144, Note_off_c, 1, 56, 64
3, 42240, Note_on_c, 1, 55, 110
3, 42240, Note_on_c, 1, 46, 110
3, 43008, Note_off_c, 1, 46, 64
3, 43008, Note_off_c, 1, 55, 64
3, 43200, Note_on_c, 1, 45, 110
3, 43200, Note_on_c, 1, 57, 110
3, 43392, Note_off_c, 1, 57, 64
3, 43392, Note_off_c, 1, 45, 64
3, 43440, Note_on_c, 1, 43, 110
3, 43440, Note_on_c, 1, 50, 110
3, 43632, Note_off_c, 1, 43, 64
3, 43680, Note_on_c, 1, 45, 110
3, 43872, Note_off_c, 1, 50, 64
3, 43920, Note_on_c, 1, 47, 110
3, 44112, Note_off_c, 1, 47, 64
3, 44160, Note_on_c, 1, 49, 110
3, 44448, Note_off_c, 1, 45, 64
3, 44544, Note_off_c, 1, 49, 64
3, 44640, Note_on_c, 1, 50, 110
3, 44640, Note_on_c, 1, 38, 110
3, 45792, Note_off_c, 1, 38, 64
3, 45792, Note_off_c, 1, 50, 64
3, 46080, Note_on_c, 1, 57, 110
3, 46080, Note_on_c, 1, 61, 110
3, 46464, Note_off_c, 1, 61, 64
3, 46464, Note_off_c, 1, 57, 64
3, 46560, Note_on_c, 1, 61, 110
3, 46560, Note_on_c, 1, 55, 110
3, 47136, Note_off_c, 1, 55, 64
3, 47280, Note_on_c, 1, 57, 110
3, 47472, Note_off_c, 1, 57, 64
3, 47520, Note_on_c, 1, 58, 110
3, 47616, Note_off_c, 1, 58, 64
3, 47640, Note_on_c, 1, 55, 110
3, 47736, Note_off_c, 1, 55, 64
3, 47760, Note_on_c, 1, 57, 110
3, 47904, Note_off_c, 1, 61, 64
3, 47952, Note_off_c, 1, 57, 64
3, 48000, Note_on_c, 1, 60, 110
3, 48000, Note_on_c, 1, 55, 110
3, 48024, Note_off_c, 1, 55, 64
3, 48030, Note_on_c, 1, 57, 110
3, 48054, Note_off_c, 1, 57, 64
3, 48060, Note_on_c, 1, 58, 110
3, 48084, Note_off_c, 1, 58, 64
3, 48090, Note_on_c, 1, 57, 110
3, 48114, Note_off_c, 1, 57, 64
3, 48120, Note_on_c, 1, 58, 110
3, 48144, Note_off_c, 1, 58, 64
3, 48150, Note_on_c, 1, 57, 110
3, 48174, Note_off_c, 1, 57, 64
3, 48180, Note_on_c, 1, 58, 110
3, 48204, Note_off_c, 1, 58, 64
3, 48210, Note_on_c, 1, 57, 110
3, 48234, Note_off_c, 1, 57, 64
3, 48240, Note_on_c, 1, 58, 110
3, 48264, Note_off_c, 1, 58, 64
3, 48270, Note_on_c, 1, 57, 110
3, 48294, Note_off_c, 1, 57, 64
3, 48300, Note_on_c, 1, 58, 110
3, 48324, Note_off_c, 1, 58, 64
3, 48330, Note_on_c, 1, 57, 110
3, 48354, Note_off_c, 1, 57, 64
3, 48360, Note_on_c, 1, 58, 110
3, 48384, Note_off_c, 1, 58, 64
3, 48390, Note_on_c, 1, 57, 110
3, 48414, Note_off_c, 1, 57, 64
3, 48420, Note_on_c, 1, 58, 110
3, 48444, Note_off_c, 1, 58, 64
3, 48450, Note_on_c, 1, 57, 110
3, 48474, Note_off_c, 1, 57, 64
3, 48480, Note_on_c, 1, 58, 110
3, 48504, Note_off_c, 1, 58, 64
3, 48510, Note_on_c, 1, 57, 110
3, 48534, Note_off_c, 1, 57, 64
3, 48540, Note_on_c, 1, 58, 110
3, 48564, Note_off_c, 1, 58, 64
3, 48570, Note_on_c, 1, 57, 110
3, 48594, Note_off_c, 1, 57, 64
3, 48600, Note_on_c, 1, 58, 110
3, 48624, Note_off_c, 1, 58, 64
3, 48630, Note_on_c, 1, 57, 110
3, 48654, Note_off_c, 1, 57, 64
3, 48660, Note_on_c, 1, 58, 110
3, 48684, Note_off_c, 1, 58, 64
3, 48690, Note_on_c, 1, 57, 110
3, 48714, Note_off_c, 1, 57, 64
3, 48720, Note_on_c, 1, 57, 110
3, 48912, Note_off_c, 1, 57, 64
3, 48960, Note_on_c, 1, 58, 110
3, 49152, Note_off_c, 1, 58, 64
3, 49200, Note_on_c, 1, 57, 110
3, 49344, Note_off_c, 1, 60, 64
3, 49392, Note_off_c, 1, 57, 64
3, 49440, Note_on_c, 1, 55, 110
3, 49440, Note_on_c, 1, 58, 110
3, 49824, Note_off_c, 1, 58, 64
3, 49824, Note_off_c, 1, 55, 64
3, 49920, Note_on_c, 1, 53, 110
3, 49920, Note_on_c, 1, 60, 110
3, 50304, Note_off_c, 1, 60, 64
3, 50304, Note_off_c, 1, 53, 64
3, 50400, Note_on_c, 1, 60, 110
3, 50400, Note_on_c, 1, 60, 110
3, 50784, Note_off_c, 1, 60, 64
3, 50880, Note_on_c, 1, 62, 110
3, 51264, Note_off_c, 1, 60, 64
3, 51264, Note_off_c, 1, 62, 64
3, 51360, Note_on_c, 1, 64, 110
3, 51360, Note_on_c, 1, 58, 110
3, 51744, Note_off_c, 1, 58, 64
3, 51744, Note_off_c, 1, 64, 64
3, 51840, Note_on_c, 1, 65, 110
3, 51840, Note_on_c, 1, 57, 110
3, 52224, Note_off_c, 1, 57, 64
3, 52320, Note_on_c, 1, 55, 110
3, 52704, Note_off_c, 1, 55, 64
3, 52800, Note_on_c, 1, 53, 110
3, 53184, Note_off_c, 1, 53, 64
3, 53280, Note_on_c, 1, 58, 110
3, 53664, Note_off_c, 1, 58, 64
3, 53760, Note_on_c, 1, 57, 110
3, 54048, Note_off_c, 1, 65, 64
3, 54144, Note_off_c, 1, 57, 64
3, 54240, Note_on_c, 1, 67, 110
3, 54240, Note_on_c, 1, 55, 110
3, 54624, Note_off_c, 1, 55, 64
3, 54624, Note_off_c, 1, 67, 64
3, 54720, Note_on_c, 1, 60, 110
3, 54720, Note_on_c, 1, 57, 110
3, 54912, Note_off_c, 1, 57, 64
3, 54960, Note_on_c, 1, 58, 110
3, 55104, Note_off_c, 1, 60, 64
3, 55152, Note_off_c, 1, 58, 64
3, 55200, Note_on_c, 1, 60, 110
3, 55200, Note_on_c, 1, 60, 110
3, 55584, Note_off_c, 1, 60, 64
3, 55680, Note_on_c, 1, 48, 110
3, 56064, Note_off_c, 1, 48, 64
3, 56160, Note_on_c, 1, 53, 110
3, 56352, Note_off_c, 1, 60, 64
3, 56400, Note_on_c, 1, 58, 110
3, 56592, Note_off_c, 1, 58, 64
3, 56640, Note_on_c, 1, 60, 110
3, 57312, Note_off_c, 1, 53, 64
3, 57408, Note_off_c, 1, 60, 64
3, 57600, Note_on_c, 1, 62, 110
3, 57600, Note_on_c, 1, 54, 110
3, 57984, Note_off_c, 1, 54, 64
3, 58080, Note_on_c, 1, 52, 110
3, 58464, Note_off_c, 1, 52, 64
3, 58560, Note_on_c, 1, 54, 110
3, 58944, Note_off_c, 1, 54, 64
3, 59040, Note_on_c, 1, 55, 110
3, 59424, Note_off_c, 1, 55, 64
3, 59520, Note_on_c, 1, 57, 110
3, 59904, Note_off_c, 1, 57, 64
3, 60000, Note_on_c, 1, 58, 110
3, 60192, Note_off_c, 1, 62, 64
3, 60384, Note_off_c, 1, 58, 64
3, 60480, Note_on_c, 1, 57, 110
3, 60480, Note_on_c, 1, 61, 110
3, 60864, Note_off_c, 1, 61, 64
3, 60864, Note_off_c, 1, 57, 64
3, 60960, Note_on_c, 1, 55, 110
3, 60960, Note_on_c, 1, 64, 110
3, 61152, Note_off_c, 1, 55, 64
3, 61200, Note_on_c, 1, 53, 110
3, 61344, Note_off_c, 1, 64, 64
3, 61392, Note_off_c, 1, 53, 64
3, 61440, Note_on_c, 1, 57, 110
3, 61440, Note_on_c, 1, 52, 110
3, 61632, Note_off_c, 1, 52, 64
3, 61680, Note_on_c, 1, 50, 110
3, 61872, Note_off_c, 1, 50, 64
3, 61920, Note_on_c, 1, 49, 110
3, 62496, Note_off_c, 1, 57, 64
3, 62640, Note_on_c, 1, 58, 110
3, 62832, Note_off_c, 1, 58, 64
3, 62880, Note_on_c, 1, 57, 110
3, 63072, Note_off_c, 1, 57, 64
3, 63072, Note_off_c, 1, 49, 64
3, 63120, Note_on_c, 1, 55, 110
3, 63312, Note_off_c, 1, 55, 64
3, 63360, Note_on_c, 1, 48, 110
3, 63360, Note_on_c, 1, 54, 110
3, 64128, Note_off_c, 1, 54, 64
3, 64128, Note_off_c, 1, 48, 64
3, 64320, Note_on_c, 1, 55, 110
3, 64320, Note_on_c, 1, 47, 110
3, 64704, Note_off_c, 1, 55, 64
3, 64800, Note_on_c, 1, 56, 110
3, 65184, Note_off_c, 1, 47, 64
3, 65184, Note_off_c, 1, 56, 64
3, 65280, Note_on_c, 1, 55, 110
3, 65280, Note_on_c, 1, 46, 110
3, 66048, Note_off_c, 1, 46, 64
3, 66048, Note_off_c, 1, 55, 64
3, 66240, Note_on_c, 1, 45, 110
3, 66240, Note_on_c, 1, 57, 110
3, 66432, Note_off_c, 1, 57, 64
3, 66432, Note_off_c, 1, 45, 64
3, 66480, Note_on_c, 1, 43, 110
3, 66480, Note_on_c, 1, 50, 110
3, 66672, Note_off_c, 1, 43, 64
3, 66720, Note_on_c, 1, 45, 110
3, 66912, Note_off_c, 1, 50, 64
3, 66960, Note_on_c, 1, 47, 110
3, 67152, Note_off_c, 1, 47, 64
3, 67200, Note_on_c, 1, 49, 110
3, 67488, Note_off_c, 1, 45, 64
3, 67584, Note_off_c, 1, 49, 64
3, 67680, Note_on_c, 1, 50, 110
3, 67680, Note_on_c, 1, 38, 110
3, 68832, Note_off_c, 1, 38, 64
3, 68832, Note_off_c, 1, 50, 64
3, 68832, End_track
4, 0, Start_track
4, 0, Title_t, "Arr. Gary Bricault, (c) 1997"
4, 0, End_track
0, 0, End_of_file
