0, 0, Header, 1, 4, 240
1, 0, Start_track
1, 0, Time_signature, 12, 4, 18, 8
1, 0, Tempo, 666667
1, 17280, Time_signature, 12, 4, 18, 8
1, 17280, End_track
2, 0, Start_track
2, 0, Title_t, "English Suite 6, 7. Gigue"
2, 0, Program_c, 0, 0
2, 0, Note_on_c, 0, 62, 110
2, 48, Note_off_c, 0, 62, 64
2, 60, Note_on_c, 0, 61, 110
2, 108, Note_off_c, 0, 61, 64
2, 120, Note_on_c, 0, 62, 110
2, 168, Note_off_c, 0, 62, 64
2, 180, Note_on_c, 0, 64, 110
2, 228, Note_off_c, 0, 64, 64
2, 240, Note_on_c, 0, 61, 110
2, 288, Note_off_c, 0, 61, 64
2, 300, Note_on_c, 0, 62, 110
2, 348, Note_off_c, 0, 62, 64
2, 360, Note_on_c, 0, 65, 110
2, 408, Note_off_c, 0, 65, 64
2, 420, Note_on_c, 0, 61, 110
2, 468, Note_off_c, 0, 61, 64
2, 480, Note_on_c, 0, 62, 110
2, 528, Note_off_c, 0, 62, 64
2, 540, Note_on_c, 0, 67, 110
2, 588, Note_off_c, 0, 67, 64
2, 600, Note_on_c, 0, 61, 110
2, 648, Note_off_c, 0, 61, 64
2, 660, Note_on_c, 0, 62, 110
2, 708, Note_off_c, 0, 62, 64
2, 720, Note_on_c, 0, 69, 110
2, 768, Note_off_c, 0, 69, 64
2, 780, Note_on_c, 0, 61, 110
2, 828, Note_off_c, 0, 61, 64
2, 840, Note_on_c, 0, 62, 110
2, 888, Note_off_c, 0, 62, 64
2, 900, Note_on_c, 0, 70, 110
2, 948, Note_off_c, 0, 70, 64
2, 960, Note_on_c, 0, 69, 110
2, 1008, Note_off_c, 0, 69, 64
2, 1020, Note_on_c, 0, 67, 110
2, 1068, Note_off_c, 0, 67, 64
2, 1080, Note_on_c, 0, 65, 110
2, 1128, Note_off_c, 0, 65, 64
2, 1140, Note_on_c, 0, 64, 110
2, 1188, Note_off_c, 0, 64, 64
2, 1200, Note_on_c, 0, 62, 110
2, 1248, Note_off_c, 0, 62, 64
2, 1260, Note_on_c, 0, 68, 110
2, 1308, Note_off_c, 0, 68, 64
2, 1320, Note_on_c, 0, 69, 110
2, 1368, Note_off_c, 0, 69, 64
2, 1380, Note_on_c, 0, 71, 110
2, 1428, Note_off_c, 0, 71, 64
2, 1440, Note_on_c, 0, 72, 110
2, 1536, Note_off_c, 0, 72, 64
2, 1620, Note_on_c, 0, 68, 110
2, 1716, Note_off_c, 0, 68, 64
2, 1800, Note_on_c, 0, 69, 110
2, 1896, Note_off_c, 0, 69, 64
2, 1980, Note_on_c, 0, 71, 110
2, 2076, Note_off_c, 0, 71, 64
2, 2160, Note_on_c, 0, 72, 110
2, 2256, Note_off_c, 0, 72, 64
2, 2340, Note_on_c, 0, 74, 110
2, 2388, Note_off_c, 0, 74, 64
2, 2400, Note_on_c, 0, 76, 110
2, 2448, Note_off_c, 0, 76, 64
2, 2460, Note_on_c, 0, 77, 110
2, 2508, Note_off_c, 0, 77, 64
2, 2520, Note_on_c, 0, 76, 110
2, 2568, Note_off_c, 0, 76, 64
2, 2580, Note_on_c, 0, 74, 110
2, 2628, Note_off_c, 0, 74, 64
2, 2640, Note_on_c, 0, 72, 110
2, 2688, Note_off_c, 0, 72, 64
2, 2700, Note_on_c, 0, 72, 110
2, 2748, Note_off_c, 0, 72, 64
2, 2760, Note_on_c, 0, 71, 110
2, 2808, Note_off_c, 0, 71, 64
2, 2820, Note_on_c, 0, 69, 110
2, 2868, Note_off_c, 0, 69, 64
2, 2880, Note_on_c, 0, 69, 110
2, 2928, Note_off_c, 0, 69, 64
2, 2940, Note_on_c, 0, 67, 110
2, 2988, Note_off_c, 0, 67, 64
2, 3000, Note_on_c, 0, 66, 110
2, 3048, Note_off_c, 0, 66, 64
2, 3060, Note_on_c, 0, 67, 110
2, 3084, Note_off_c, 0, 67, 64
2, 3090, Note_on_c, 0, 66, 110
2, 3114, Note_off_c, 0, 66, 64
2, 3120, Note_on_c, 0, 67, 110
2, 3144, Note_off_c, 0, 67, 64
2, 3150, Note_on_c, 0, 66, 110
2, 3174, Note_off_c, 0, 66, 64
2, 3180, Note_on_c, 0, 64, 110
2, 3204, Note_off_c, 0, 64, 64
2, 3210, Note_on_c, 0, 66, 110
2, 3234, Note_off_c, 0, 66, 64
2, 3240, Note_on_c, 0, 67, 110
2, 3288, Note_off_c, 0, 67, 64
2, 3300, Note_on_c, 0, 69, 110
2, 3348, Note_off_c, 0, 69, 64
2, 3360, Note_on_c, 0, 70, 110
2, 3408, Note_off_c, 0, 70, 64
2, 3420, Note_on_c, 0, 70, 110
2, 3468, Note_off_c, 0, 70, 64
2, 3480, Note_on_c, 0, 69, 110
2, 3528, Note_off_c, 0, 69, 64
2, 3540, Note_on_c, 0, 67, 110
2, 3588, Note_off_c, 0, 67, 64
2, 3600, Note_on_c, 0, 70, 110
2, 3600, Note_on_c, 0, 65, 110
2, 3624, Note_off_c, 0, 70, 64
2, 3630, Note_on_c, 0, 69, 110
2, 3654, Note_off_c, 0, 69, 64
2, 3660, Note_on_c, 0, 70, 110
2, 3684, Note_off_c, 0, 70, 64
2, 3690, Note_on_c, 0, 69, 110
2, 3696, Note_off_c, 0, 65, 64
2, 3714, Note_off_c, 0, 69, 64
2, 3720, Note_on_c, 0, 70, 110
2, 3744, Note_off_c, 0, 70, 64
2, 3750, Note_on_c, 0, 69, 110
2, 3774, Note_off_c, 0, 69, 64
2, 3780, Note_on_c, 0, 70, 110
2, 3780, Note_on_c, 0, 61, 110
2, 3804, Note_off_c, 0, 70, 64
2, 3810, Note_on_c, 0, 69, 110
2, 3834, Note_off_c, 0, 69, 64
2, 3840, Note_on_c, 0, 70, 110
2, 3864, Note_off_c, 0, 70, 64
2, 3870, Note_on_c, 0, 69, 110
2, 3876, Note_off_c, 0, 61, 64
2, 3894, Note_off_c, 0, 69, 64
2, 3900, Note_on_c, 0, 70, 110
2, 3924, Note_off_c, 0, 70, 64
2, 3930, Note_on_c, 0, 69, 110
2, 3954, Note_off_c, 0, 69, 64
2, 3960, Note_on_c, 0, 70, 110
2, 3960, Note_on_c, 0, 62, 110
2, 3984, Note_off_c, 0, 70, 64
2, 3990, Note_on_c, 0, 69, 110
2, 4014, Note_off_c, 0, 69, 64
2, 4020, Note_on_c, 0, 70, 110
2, 4044, Note_off_c, 0, 70, 64
2, 4050, Note_on_c, 0, 69, 110
2, 4056, Note_off_c, 0, 62, 64
2, 4074, Note_off_c, 0, 69, 64
2, 4080, Note_on_c, 0, 70, 110
2, 4104, Note_off_c, 0, 70, 64
2, 4110, Note_on_c, 0, 69, 110
2, 4134, Note_off_c, 0, 69, 64
2, 4140, Note_on_c, 0, 70, 110
2, 4140, Note_on_c, 0, 64, 110
2, 4164, Note_off_c, 0, 70, 64
2, 4170, Note_on_c, 0, 69, 110
2, 4194, Note_off_c, 0, 69, 64
2, 4200, Note_on_c, 0, 70, 110
2, 4224, Note_off_c, 0, 70, 64
2, 4230, Note_on_c, 0, 69, 110
2, 4236, Note_off_c, 0, 64, 64
2, 4254, Note_off_c, 0, 69, 64
2, 4260, Note_on_c, 0, 70, 110
2, 4284, Note_off_c, 0, 70, 64
2, 4290, Note_on_c, 0, 69, 110
2, 4320, Note_on_c, 0, 65, 110
2, 4416, Note_off_c, 0, 69, 64
2, 4416, Note_off_c, 0, 65, 64
2, 4500, Note_on_c, 0, 67, 110
2, 4548, Note_off_c, 0, 67, 64
2, 4560, Note_on_c, 0, 69, 110
2, 4608, Note_off_c, 0, 69, 64
2, 4620, Note_on_c, 0, 70, 110
2, 4668, Note_off_c, 0, 70, 64
2, 4680, Note_on_c, 0, 69, 110
2, 4728, Note_off_c, 0, 69, 64
2, 4740, Note_on_c, 0, 67, 110
2, 4788, Note_off_c, 0, 67, 64
2, 4800, Note_on_c, 0, 65, 110
2, 4848, Note_off_c, 0, 65, 64
2, 4860, Note_on_c, 0, 65, 110
2, 4908, Note_off_c, 0, 65, 64
2, 4920, Note_on_c, 0, 64, 110
2, 4968, Note_off_c, 0, 64, 64
2, 4980, Note_on_c, 0, 62, 110
2, 5028, Note_off_c, 0, 62, 64
2, 5040, Note_on_c, 0, 69, 110
2, 5088, Note_off_c, 0, 69, 64
2, 5100, Note_on_c, 0, 68, 110
2, 5148, Note_off_c, 0, 68, 64
2, 5160, Note_on_c, 0, 69, 110
2, 5208, Note_off_c, 0, 69, 64
2, 5220, Note_on_c, 0, 71, 110
2, 5268, Note_off_c, 0, 71, 64
2, 5280, Note_on_c, 0, 68, 110
2, 5328, Note_off_c, 0, 68, 64
2, 5340, Note_on_c, 0, 69, 110
2, 5388, Note_off_c, 0, 69, 64
2, 5400, Note_on_c, 0, 72, 110
2, 5448, Note_off_c, 0, 72, 64
2, 5460, Note_on_c, 0, 68, 110
2, 5508, Note_off_c, 0, 68, 64
2, 5520, Note_on_c, 0, 69, 110
2, 5568, Note_off_c, 0, 69, 64
2, 5580, Note_on_c, 0, 74, 110
2, 5628, Note_off_c, 0, 74, 64
2, 5640, Note_on_c, 0, 68, 110
2, 5688, Note_off_c, 0, 68, 64
2, 5700, Note_on_c, 0, 69, 110
2, 5748, Note_off_c, 0, 69, 64
2, 5760, Note_on_c, 0, 76, 110
2, 5808, Note_off_c, 0, 76, 64
2, 5820, Note_on_c, 0, 68, 110
2, 5868, Note_off_c, 0, 68, 64
2, 5880, Note_on_c, 0, 69, 110
2, 5928, Note_off_c, 0, 69, 64
2, 5940, Note_on_c, 0, 77, 110
2, 5988, Note_off_c, 0, 77, 64
2, 6000, Note_on_c, 0, 76, 110
2, 6048, Note_off_c, 0, 76, 64
2, 6060, Note_on_c, 0, 74, 110
2, 6108, Note_off_c, 0, 74, 64
2, 6120, Note_on_c, 0, 73, 110
2, 6168, Note_off_c, 0, 73, 64
2, 6180, Note_on_c, 0, 71, 110
2, 6228, Note_off_c, 0, 71, 64
2, 6240, Note_on_c, 0, 69, 110
2, 6288, Note_off_c, 0, 69, 64
2, 6300, Note_on_c, 0, 75, 110
2, 6348, Note_off_c, 0, 75, 64
2, 6360, Note_on_c, 0, 76, 110
2, 6408, Note_off_c, 0, 76, 64
2, 6420, Note_on_c, 0, 78, 110
2, 6468, Note_off_c, 0, 78, 64
2, 6480, Note_on_c, 0, 79, 110
2, 6528, Note_off_c, 0, 79, 64
2, 6540, Note_on_c, 0, 81, 110
2, 6588, Note_off_c, 0, 81, 64
2, 6600, Note_on_c, 0, 82, 110
2, 6648, Note_off_c, 0, 82, 64
2, 6660, Note_on_c, 0, 75, 110
2, 6708, Note_off_c, 0, 75, 64
2, 6720, Note_on_c, 0, 74, 110
2, 6768, Note_off_c, 0, 74, 64
2, 6780, Note_on_c, 0, 72, 110
2, 6828, Note_off_c, 0, 72, 64
2, 6840, Note_on_c, 0, 71, 110
2, 6888, Note_off_c, 0, 71, 64
2, 6900, Note_on_c, 0, 69, 110
2, 6948, Note_off_c, 0, 69, 64
2, 6960, Note_on_c, 0, 67, 110
2, 7008, Note_off_c, 0, 67, 64
2, 7020, Note_on_c, 0, 73, 110
2, 7068, Note_off_c, 0, 73, 64
2, 7080, Note_on_c, 0, 74, 110
2, 7128, Note_off_c, 0, 74, 64
2, 7140, Note_on_c, 0, 76, 110
2, 7188, Note_off_c, 0, 76, 64
2, 7200, Note_on_c, 0, 77, 110
2, 7200, Note_on_c, 0, 62, 110
2, 7248, Note_off_c, 0, 77, 64
2, 7260, Note_on_c, 0, 79, 110
2, 7296, Note_off_c, 0, 62, 64
2, 7308, Note_off_c, 0, 79, 64
2, 7320, Note_on_c, 0, 81, 110
2, 7380, Note_on_c, 0, 70, 110
2, 7428, Note_off_c, 0, 81, 64
2, 7440, Note_on_c, 0, 78, 110
2, 7476, Note_off_c, 0, 70, 64
2, 7488, Note_off_c, 0, 78, 64
2, 7500, Note_on_c, 0, 79, 110
2, 7560, Note_on_c, 0, 69, 110
2, 7608, Note_off_c, 0, 79, 64
2, 7620, Note_on_c, 0, 76, 110
2, 7656, Note_off_c, 0, 69, 64
2, 7668, Note_off_c, 0, 76, 64
2, 7680, Note_on_c, 0, 77, 110
2, 7740, Note_on_c, 0, 67, 110
2, 7788, Note_off_c, 0, 77, 64
2, 7800, Note_on_c, 0, 74, 110
2, 7836, Note_off_c, 0, 67, 64
2, 7848, Note_off_c, 0, 74, 64
2, 7860, Note_on_c, 0, 76, 110
2, 7920, Note_on_c, 0, 65, 110
2, 7968, Note_off_c, 0, 76, 64
2, 7980, Note_on_c, 0, 73, 110
2, 8016, Note_off_c, 0, 65, 64
2, 8028, Note_off_c, 0, 73, 64
2, 8040, Note_on_c, 0, 74, 110
2, 8100, Note_on_c, 0, 66, 110
2, 8148, Note_off_c, 0, 74, 64
2, 8160, Note_on_c, 0, 71, 110
2, 8196, Note_off_c, 0, 66, 64
2, 8208, Note_off_c, 0, 71, 64
2, 8220, Note_on_c, 0, 72, 110
2, 8280, Note_on_c, 0, 67, 110
2, 8328, Note_off_c, 0, 72, 64
2, 8340, Note_on_c, 0, 69, 110
2, 8376, Note_off_c, 0, 67, 64
2, 8388, Note_off_c, 0, 69, 64
2, 8400, Note_on_c, 0, 70, 110
2, 8460, Note_on_c, 0, 61, 110
2, 8508, Note_off_c, 0, 70, 64
2, 8520, Note_on_c, 0, 69, 110
2, 8556, Note_off_c, 0, 61, 64
2, 8568, Note_off_c, 0, 69, 64
2, 8580, Note_on_c, 0, 67, 110
2, 8628, Note_off_c, 0, 67, 64
2, 8640, Note_on_c, 0, 65, 110
2, 8640, Note_on_c, 0, 58, 110
2, 8664, Note_off_c, 0, 58, 64
2, 8670, Note_on_c, 0, 57, 110
2, 8694, Note_off_c, 0, 57, 64
2, 8700, Note_on_c, 0, 58, 110
2, 8724, Note_off_c, 0, 58, 64
2, 8730, Note_on_c, 0, 57, 110
2, 8736, Note_off_c, 0, 65, 64
2, 8754, Note_off_c, 0, 57, 64
2, 8760, Note_on_c, 0, 58, 110
2, 8784, Note_off_c, 0, 58, 64
2, 8790, Note_on_c, 0, 57, 110
2, 8814, Note_off_c, 0, 57, 64
2, 8820, Note_on_c, 0, 58, 110
2, 8820, Note_on_c, 0, 61, 110
2, 8844, Note_off_c, 0, 58, 64
2, 8850, Note_on_c, 0, 57, 110
2, 8874, Note_off_c, 0, 57, 64
2, 8880, Note_on_c, 0, 58, 110
2, 8904, Note_off_c, 0, 58, 64
2, 8910, Note_on_c, 0, 57, 110
2, 8916, Note_off_c, 0, 61, 64
2, 8934, Note_off_c, 0, 57, 64
2, 8940, Note_on_c, 0, 58, 110
2, 8964, Note_off_c, 0, 58, 64
2, 8970, Note_on_c, 0, 57, 110
2, 8994, Note_off_c, 0, 57, 64
2, 9000, Note_on_c, 0, 62, 110
2, 9000, Note_on_c, 0, 58, 110
2, 9024, Note_off_c, 0, 58, 64
2, 9030, Note_on_c, 0, 57, 110
2, 9054, Note_off_c, 0, 57, 64
2, 9060, Note_on_c, 0, 58, 110
2, 9084, Note_off_c, 0, 58, 64
2, 9090, Note_on_c, 0, 57, 110
2, 9096, Note_off_c, 0, 62, 64
2, 9114, Note_off_c, 0, 57, 64
2, 9120, Note_on_c, 0, 58, 110
2, 9144, Note_off_c, 0, 58, 64
2, 9150, Note_on_c, 0, 57, 110
2, 9174, Note_off_c, 0, 57, 64
2, 9180, Note_on_c, 0, 58, 110
2, 9180, Note_on_c, 0, 64, 110
2, 9204, Note_off_c, 0, 58, 64
2, 9210, Note_on_c, 0, 57, 110
2, 9234, Note_off_c, 0, 57, 64
2, 9240, Note_on_c, 0, 58, 110
2, 9264, Note_off_c, 0, 58, 64
2, 9270, Note_on_c, 0, 57, 110
2, 9276, Note_off_c, 0, 64, 64
2, 9294, Note_off_c, 0, 57, 64
2, 9300, Note_on_c, 0, 58, 110
2, 9324, Note_off_c, 0, 58, 64
2, 9330, Note_on_c, 0, 57, 110
2, 9360, Note_on_c, 0, 65, 110
2, 9456, Note_off_c, 0, 57, 64
2, 9456, Note_off_c, 0, 65, 64
2, 9540, Note_on_c, 0, 73, 110
2, 9540, Note_on_c, 0, 64, 110
2, 9636, Note_off_c, 0, 64, 64
2, 9636, Note_off_c, 0, 73, 64
2, 9720, Note_on_c, 0, 62, 110
2, 9720, Note_on_c, 0, 72, 110
2, 9816, Note_off_c, 0, 72, 64
2, 9816, Note_off_c, 0, 62, 64
2, 9900, Note_on_c, 0, 71, 110
2, 9900, Note_on_c, 0, 65, 110
2, 9996, Note_off_c, 0, 65, 64
2, 9996, Note_off_c, 0, 71, 64
2, 10080, Note_on_c, 0, 69, 110
2, 10080, Note_on_c, 0, 63, 110
2, 10176, Note_off_c, 0, 63, 64
2, 10176, Note_off_c, 0, 69, 64
2, 10260, Note_on_c, 0, 62, 110
2, 10260, Note_on_c, 0, 71, 110
2, 10356, Note_off_c, 0, 71, 64
2, 10356, Note_off_c, 0, 62, 64
2, 10440, Note_on_c, 0, 70, 110
2, 10440, Note_on_c, 0, 60, 110
2, 10536, Note_off_c, 0, 60, 64
2, 10536, Note_off_c, 0, 70, 64
2, 10620, Note_on_c, 0, 63, 110
2, 10620, Note_on_c, 0, 69, 110
2, 10716, Note_off_c, 0, 69, 64
2, 10716, Note_off_c, 0, 63, 64
2, 10800, Note_on_c, 0, 62, 110
2, 10800, Note_on_c, 0, 67, 110
2, 10896, Note_off_c, 0, 67, 64
2, 10896, Note_off_c, 0, 62, 64
2, 10980, Note_on_c, 0, 69, 110
2, 11028, Note_off_c, 0, 69, 64
2, 11040, Note_on_c, 0, 71, 110
2, 11088, Note_off_c, 0, 71, 64
2, 11100, Note_on_c, 0, 73, 110
2, 11148, Note_off_c, 0, 73, 64
2, 11160, Note_on_c, 0, 74, 110
2, 11208, Note_off_c, 0, 74, 64
2, 11220, Note_on_c, 0, 76, 110
2, 11268, Note_off_c, 0, 76, 64
2, 11280, Note_on_c, 0, 77, 110
2, 11328, Note_off_c, 0, 77, 64
2, 11340, Note_on_c, 0, 71, 110
2, 11520, Note_on_c, 0, 76, 110
2, 11568, Note_off_c, 0, 76, 64
2, 11580, Note_on_c, 0, 75, 110
2, 11628, Note_off_c, 0, 75, 64
2, 11640, Note_on_c, 0, 76, 110
2, 11664, Note_off_c, 0, 71, 64
2, 11688, Note_off_c, 0, 76, 64
2, 11700, Note_on_c, 0, 78, 110
2, 11700, Note_on_c, 0, 69, 110
2, 11748, Note_off_c, 0, 78, 64
2, 11760, Note_on_c, 0, 75, 110
2, 11808, Note_off_c, 0, 75, 64
2, 11820, Note_on_c, 0, 76, 110
2, 11844, Note_off_c, 0, 69, 64
2, 11868, Note_off_c, 0, 76, 64
2, 11880, Note_on_c, 0, 80, 110
2, 11928, Note_off_c, 0, 80, 64
2, 11940, Note_on_c, 0, 75, 110
2, 11988, Note_off_c, 0, 75, 64
2, 12000, Note_on_c, 0, 76, 110
2, 12048, Note_off_c, 0, 76, 64
2, 12060, Note_on_c, 0, 81, 110
2, 12108, Note_off_c, 0, 81, 64
2, 12120, Note_on_c, 0, 75, 110
2, 12168, Note_off_c, 0, 75, 64
2, 12180, Note_on_c, 0, 76, 110
2, 12228, Note_off_c, 0, 76, 64
2, 12240, Note_on_c, 0, 83, 110
2, 12288, Note_off_c, 0, 83, 64
2, 12300, Note_on_c, 0, 75, 110
2, 12348, Note_off_c, 0, 75, 64
2, 12360, Note_on_c, 0, 76, 110
2, 12408, Note_off_c, 0, 76, 64
2, 12420, Note_on_c, 0, 84, 110
2, 12468, Note_off_c, 0, 84, 64
2, 12480, Note_on_c, 0, 83, 110
2, 12528, Note_off_c, 0, 83, 64
2, 12540, Note_on_c, 0, 81, 110
2, 12588, Note_off_c, 0, 81, 64
2, 12600, Note_on_c, 0, 80, 110
2, 12648, Note_off_c, 0, 80, 64
2, 12660, Note_on_c, 0, 78, 110
2, 12708, Note_off_c, 0, 78, 64
2, 12720, Note_on_c, 0, 76, 110
2, 12768, Note_off_c, 0, 76, 64
2, 12780, Note_on_c, 0, 82, 110
2, 12828, Note_off_c, 0, 82, 64
2, 12840, Note_on_c, 0, 81, 110
2, 12888, Note_off_c, 0, 81, 64
2, 12900, Note_on_c, 0, 79, 110
2, 12948, Note_off_c, 0, 79, 64
2, 12960, Note_on_c, 0, 78, 110
2, 13008, Note_off_c, 0, 78, 64
2, 13020, Note_on_c, 0, 76, 110
2, 13068, Note_off_c, 0, 76, 64
2, 13080, Note_on_c, 0, 74, 110
2, 13128, Note_off_c, 0, 74, 64
2, 13140, Note_on_c, 0, 77, 110
2, 13188, Note_off_c, 0, 77, 64
2, 13200, Note_on_c, 0, 76, 110
2, 13248, Note_off_c, 0, 76, 64
2, 13260, Note_on_c, 0, 74, 110
2, 13308, Note_off_c, 0, 74, 64
2, 13320, Note_on_c, 0, 57, 110
2, 13320, Note_on_c, 0, 72, 110
2, 13368, Note_off_c, 0, 72, 64
2, 13380, Note_on_c, 0, 71, 110
2, 13416, Note_off_c, 0, 57, 64
2, 13428, Note_off_c, 0, 71, 64
2, 13440, Note_on_c, 0, 69, 110
2, 13440, Note_on_c, 0, 69, 110
2, 13488, Note_off_c, 0, 69, 64
2, 13500, Note_on_c, 0, 75, 110
2, 13548, Note_off_c, 0, 75, 64
2, 13560, Note_on_c, 0, 76, 110
2, 13608, Note_off_c, 0, 76, 64
2, 13620, Note_on_c, 0, 78, 110
2, 13644, Note_off_c, 0, 69, 64
2, 13680, Note_on_c, 0, 68, 110
2, 13728, Note_off_c, 0, 78, 64
2, 13740, Note_on_c, 0, 76, 110
2, 13776, Note_off_c, 0, 68, 64
2, 13788, Note_off_c, 0, 76, 64
2, 13800, Note_on_c, 0, 77, 110
2, 13860, Note_on_c, 0, 67, 110
2, 13908, Note_off_c, 0, 77, 64
2, 13920, Note_on_c, 0, 75, 110
2, 13956, Note_off_c, 0, 67, 64
2, 13968, Note_off_c, 0, 75, 64
2, 13980, Note_on_c, 0, 76, 110
2, 14040, Note_on_c, 0, 66, 110
2, 14088, Note_off_c, 0, 76, 64
2, 14100, Note_on_c, 0, 75, 110
2, 14136, Note_off_c, 0, 66, 64
2, 14148, Note_off_c, 0, 75, 64
2, 14160, Note_on_c, 0, 76, 110
2, 14220, Note_on_c, 0, 65, 110
2, 14268, Note_off_c, 0, 76, 64
2, 14280, Note_on_c, 0, 73, 110
2, 14316, Note_off_c, 0, 65, 64
2, 14328, Note_off_c, 0, 73, 64
2, 14340, Note_on_c, 0, 74, 110
2, 14400, Note_on_c, 0, 64, 110
2, 14448, Note_off_c, 0, 74, 64
2, 14460, Note_on_c, 0, 73, 110
2, 14496, Note_off_c, 0, 64, 64
2, 14508, Note_off_c, 0, 73, 64
2, 14520, Note_on_c, 0, 74, 110
2, 14580, Note_on_c, 0, 69, 110
2, 14628, Note_off_c, 0, 74, 64
2, 14640, Note_on_c, 0, 71, 110
2, 14676, Note_off_c, 0, 69, 64
2, 14688, Note_off_c, 0, 71, 64
2, 14700, Note_on_c, 0, 72, 110
2, 14760, Note_on_c, 0, 63, 110
2, 14808, Note_off_c, 0, 72, 64
2, 14820, Note_on_c, 0, 71, 110
2, 14856, Note_off_c, 0, 63, 64
2, 14868, Note_off_c, 0, 71, 64
2, 14880, Note_on_c, 0, 72, 110
2, 14940, Note_on_c, 0, 62, 110
2, 14988, Note_off_c, 0, 72, 64
2, 15000, Note_on_c, 0, 69, 110
2, 15036, Note_off_c, 0, 62, 64
2, 15048, Note_off_c, 0, 69, 64
2, 15060, Note_on_c, 0, 70, 110
2, 15120, Note_on_c, 0, 61, 110
2, 15168, Note_off_c, 0, 70, 64
2, 15180, Note_on_c, 0, 69, 110
2, 15216, Note_off_c, 0, 61, 64
2, 15228, Note_off_c, 0, 69, 64
2, 15240, Note_on_c, 0, 70, 110
2, 15300, Note_on_c, 0, 60, 110
2, 15348, Note_off_c, 0, 70, 64
2, 15360, Note_on_c, 0, 68, 110
2, 15396, Note_off_c, 0, 60, 64
2, 15408, Note_off_c, 0, 68, 64
2, 15420, Note_on_c, 0, 69, 110
2, 15480, Note_on_c, 0, 59, 110
2, 15528, Note_off_c, 0, 69, 64
2, 15540, Note_on_c, 0, 68, 110
2, 15576, Note_off_c, 0, 59, 64
2, 15588, Note_off_c, 0, 68, 64
2, 15600, Note_on_c, 0, 69, 110
2, 15660, Note_on_c, 0, 62, 110
2, 15708, Note_off_c, 0, 69, 64
2, 15720, Note_on_c, 0, 66, 110
2, 15756, Note_off_c, 0, 62, 64
2, 15768, Note_off_c, 0, 66, 64
2, 15780, Note_on_c, 0, 68, 110
2, 15828, Note_off_c, 0, 68, 64
2, 15840, Note_on_c, 0, 69, 110
2, 15888, Note_off_c, 0, 69, 64
2, 15900, Note_on_c, 0, 68, 110
2, 15948, Note_off_c, 0, 68, 64
2, 15960, Note_on_c, 0, 69, 110
2, 16008, Note_off_c, 0, 69, 64
2, 16020, Note_on_c, 0, 71, 110
2, 16068, Note_off_c, 0, 71, 64
2, 16080, Note_on_c, 0, 68, 110
2, 16128, Note_off_c, 0, 68, 64
2, 16140, Note_on_c, 0, 69, 110
2, 16188, Note_off_c, 0, 69, 64
2, 16200, Note_on_c, 0, 73, 110
2, 16248, Note_off_c, 0, 73, 64
2, 16260, Note_on_c, 0, 68, 110
2, 16308, Note_off_c, 0, 68, 64
2, 16320, Note_on_c, 0, 69, 110
2, 16368, Note_off_c, 0, 69, 64
2, 16380, Note_on_c, 0, 74, 110
2, 16428, Note_off_c, 0, 74, 64
2, 16440, Note_on_c, 0, 68, 110
2, 16488, Note_off_c, 0, 68, 64
2, 16500, Note_on_c, 0, 69, 110
2, 16548, Note_off_c, 0, 69, 64
2, 16560, Note_on_c, 0, 76, 110
2, 16608, Note_off_c, 0, 76, 64
2, 16620, Note_on_c, 0, 68, 110
2, 16668, Note_off_c, 0, 68, 64
2, 16680, Note_on_c, 0, 69, 110
2, 16728, Note_off_c, 0, 69, 64
2, 16740, Note_on_c, 0, 77, 110
2, 16788, Note_off_c, 0, 77, 64
2, 16800, Note_on_c, 0, 76, 110
2, 16848, Note_off_c, 0, 76, 64
2, 16860, Note_on_c, 0, 68, 110
2, 16860, Note_on_c, 0, 74, 110
2, 16908, Note_off_c, 0, 74, 64
2, 16908, Note_off_c, 0, 68, 64
2, 16920, Note_on_c, 0, 69, 110
2, 16920, Note_on_c, 0, 73, 110
2, 16968, Note_off_c, 0, 73, 64
2, 16980, Note_on_c, 0, 76, 110
2, 17028, Note_off_c, 0, 76, 64
2, 17040, Note_on_c, 0, 80, 110
2, 17088, Note_off_c, 0, 80, 64
2, 17100, Note_on_c, 0, 81, 110
2, 17208, Note_off_c, 0, 69, 64
2, 17244, Note_off_c, 0, 81, 64
2, 17280, Note_on_c, 0, 62, 110
2, 17328, Note_off_c, 0, 62, 64
2, 17340, Note_on_c, 0, 61, 110
2, 17388, Note_off_c, 0, 61, 64
2, 17400, Note_on_c, 0, 62, 110
2, 17448, Note_off_c, 0, 62, 64
2, 17460, Note_on_c, 0, 64, 110
2, 17508, Note_off_c, 0, 64, 64
2, 17520, Note_on_c, 0, 61, 110
2, 17568, Note_off_c, 0, 61, 64
2, 17580, Note_on_c, 0, 62, 110
2, 17628, Note_off_c, 0, 62, 64
2, 17640, Note_on_c, 0, 65, 110
2, 17688, Note_off_c, 0, 65, 64
2, 17700, Note_on_c, 0, 61, 110
2, 17748, Note_off_c, 0, 61, 64
2, 17760, Note_on_c, 0, 62, 110
2, 17808, Note_off_c, 0, 62, 64
2, 17820, Note_on_c, 0, 67, 110
2, 17868, Note_off_c, 0, 67, 64
2, 17880, Note_on_c, 0, 61, 110
2, 17928, Note_off_c, 0, 61, 64
2, 17940, Note_on_c, 0, 62, 110
2, 17988, Note_off_c, 0, 62, 64
2, 18000, Note_on_c, 0, 69, 110
2, 18048, Note_off_c, 0, 69, 64
2, 18060, Note_on_c, 0, 61, 110
2, 18108, Note_off_c, 0, 61, 64
2, 18120, Note_on_c, 0, 62, 110
2, 18168, Note_off_c, 0, 62, 64
2, 18180, Note_on_c, 0, 70, 110
2, 18228, Note_off_c, 0, 70, 64
2, 18240, Note_on_c, 0, 69, 110
2, 18288, Note_off_c, 0, 69, 64
2, 18300, Note_on_c, 0, 67, 110
2, 18348, Note_off_c, 0, 67, 64
2, 18360, Note_on_c, 0, 65, 110
2, 18408, Note_off_c, 0, 65, 64
2, 18420, Note_on_c, 0, 64, 110
2, 18468, Note_off_c, 0, 64, 64
2, 18480, Note_on_c, 0, 62, 110
2, 18528, Note_off_c, 0, 62, 64
2, 18540, Note_on_c, 0, 68, 110
2, 18588, Note_off_c, 0, 68, 64
2, 18600, Note_on_c, 0, 69, 110
2, 18648, Note_off_c, 0, 69, 64
2, 18660, Note_on_c, 0, 71, 110
2, 18708, Note_off_c, 0, 71, 64
2, 18720, Note_on_c, 0, 72, 110
2, 18816, Note_off_c, 0, 72, 64
2, 18900, Note_on_c, 0, 68, 110
2, 18996, Note_off_c, 0, 68, 64
2, 19080, Note_on_c, 0, 69, 110
2, 19176, Note_off_c, 0, 69, 64
2, 19260, Note_on_c, 0, 71, 110
2, 19356, Note_off_c, 0, 71, 64
2, 19440, Note_on_c, 0, 72, 110
2, 19536, Note_off_c, 0, 72, 64
2, 19620, Note_on_c, 0, 74, 110
2, 19668, Note_off_c, 0, 74, 64
2, 19680, Note_on_c, 0, 76, 110
2, 19728, Note_off_c, 0, 76, 64
2, 19740, Note_on_c, 0, 77, 110
2, 19788, Note_off_c, 0, 77, 64
2, 19800, Note_on_c, 0, 76, 110
2, 19848, Note_off_c, 0, 76, 64
2, 19860, Note_on_c, 0, 74, 110
2, 19908, Note_off_c, 0, 74, 64
2, 19920, Note_on_c, 0, 72, 110
2, 19968, Note_off_c, 0, 72, 64
2, 19980, Note_on_c, 0, 72, 110
2, 20028, Note_off_c, 0, 72, 64
2, 20040, Note_on_c, 0, 71, 110
2, 20088, Note_off_c, 0, 71, 64
2, 20100, Note_on_c, 0, 69, 110
2, 20148, Note_off_c, 0, 69, 64
2, 20160, Note_on_c, 0, 69, 110
2, 20208, Note_off_c, 0, 69, 64
2, 20220, Note_on_c, 0, 67, 110
2, 20268, Note_off_c, 0, 67, 64
2, 20280, Note_on_c, 0, 66, 110
2, 20328, Note_off_c, 0, 66, 64
2, 20340, Note_on_c, 0, 67, 110
2, 20364, Note_off_c, 0, 67, 64
2, 20370, Note_on_c, 0, 66, 110
2, 20394, Note_off_c, 0, 66, 64
2, 20400, Note_on_c, 0, 67, 110
2, 20424, Note_off_c, 0, 67, 64
2, 20430, Note_on_c, 0, 66, 110
2, 20454, Note_off_c, 0, 66, 64
2, 20460, Note_on_c, 0, 64, 110
2, 20484, Note_off_c, 0, 64, 64
2, 20490, Note_on_c, 0, 66, 110
2, 20514, Note_off_c, 0, 66, 64
2, 20520, Note_on_c, 0, 67, 110
2, 20568, Note_off_c, 0, 67, 64
2, 20580, Note_on_c, 0, 69, 110
2, 20628, Note_off_c, 0, 69, 64
2, 20640, Note_on_c, 0, 70, 110
2, 20688, Note_off_c, 0, 70, 64
2, 20700, Note_on_c, 0, 70, 110
2, 20748, Note_off_c, 0, 70, 64
2, 20760, Note_on_c, 0, 69, 110
2, 20808, Note_off_c, 0, 69, 64
2, 20820, Note_on_c, 0, 67, 110
2, 20868, Note_off_c, 0, 67, 64
2, 20880, Note_on_c, 0, 70, 110
2, 20880, Note_on_c, 0, 65, 110
2, 20904, Note_off_c, 0, 70, 64
2, 20910, Note_on_c, 0, 69, 110
2, 20934, Note_off_c, 0, 69, 64
2, 20940, Note_on_c, 0, 70, 110
2, 20964, Note_off_c, 0, 70, 64
2, 20970, Note_on_c, 0, 69, 110
2, 20976, Note_off_c, 0, 65, 64
2, 20994, Note_off_c, 0, 69, 64
2, 21000, Note_on_c, 0, 70, 110
2, 21024, Note_off_c, 0, 70, 64
2, 21030, Note_on_c, 0, 69, 110
2, 21054, Note_off_c, 0, 69, 64
2, 21060, Note_on_c, 0, 70, 110
2, 21060, Note_on_c, 0, 61, 110
2, 21084, Note_off_c, 0, 70, 64
2, 21090, Note_on_c, 0, 69, 110
2, 21114, Note_off_c, 0, 69, 64
2, 21120, Note_on_c, 0, 70, 110
2, 21144, Note_off_c, 0, 70, 64
2, 21150, Note_on_c, 0, 69, 110
2, 21156, Note_off_c, 0, 61, 64
2, 21174, Note_off_c, 0, 69, 64
2, 21180, Note_on_c, 0, 70, 110
2, 21204, Note_off_c, 0, 70, 64
2, 21210, Note_on_c, 0, 69, 110
2, 21234, Note_off_c, 0, 69, 64
2, 21240, Note_on_c, 0, 70, 110
2, 21240, Note_on_c, 0, 62, 110
2, 21264, Note_off_c, 0, 70, 64
2, 21270, Note_on_c, 0, 69, 110
2, 21294, Note_off_c, 0, 69, 64
2, 21300, Note_on_c, 0, 70, 110
2, 21324, Note_off_c, 0, 70, 64
2, 21330, Note_on_c, 0, 69, 110
2, 21336, Note_off_c, 0, 62, 64
2, 21354, Note_off_c, 0, 69, 64
2, 21360, Note_on_c, 0, 70, 110
2, 21384, Note_off_c, 0, 70, 64
2, 21390, Note_on_c, 0, 69, 110
2, 21414, Note_off_c, 0, 69, 64
2, 21420, Note_on_c, 0, 70, 110
2, 21420, Note_on_c, 0, 64, 110
2, 21444, Note_off_c, 0, 70, 64
2, 21450, Note_on_c, 0, 69, 110
2, 21474, Note_off_c, 0, 69, 64
2, 21480, Note_on_c, 0, 70, 110
2, 21504, Note_off_c, 0, 70, 64
2, 21510, Note_on_c, 0, 69, 110
2, 21516, Note_off_c, 0, 64, 64
2, 21534, Note_off_c, 0, 69, 64
2, 21540, Note_on_c, 0, 70, 110
2, 21564, Note_off_c, 0, 70, 64
2, 21570, Note_on_c, 0, 69, 110
2, 21600, Note_on_c, 0, 65, 110
2, 21696, Note_off_c, 0, 69, 64
2, 21696, Note_off_c, 0, 65, 64
2, 21780, Note_on_c, 0, 67, 110
2, 21828, Note_off_c, 0, 67, 64
2, 21840, Note_on_c, 0, 69, 110
2, 21888, Note_off_c, 0, 69, 64
2, 21900, Note_on_c, 0, 70, 110
2, 21948, Note_off_c, 0, 70, 64
2, 21960, Note_on_c, 0, 69, 110
2, 22008, Note_off_c, 0, 69, 64
2, 22020, Note_on_c, 0, 67, 110
2, 22068, Note_off_c, 0, 67, 64
2, 22080, Note_on_c, 0, 65, 110
2, 22128, Note_off_c, 0, 65, 64
2, 22140, Note_on_c, 0, 65, 110
2, 22188, Note_off_c, 0, 65, 64
2, 22200, Note_on_c, 0, 64, 110
2, 22248, Note_off_c, 0, 64, 64
2, 22260, Note_on_c, 0, 62, 110
2, 22308, Note_off_c, 0, 62, 64
2, 22320, Note_on_c, 0, 69, 110
2, 22368, Note_off_c, 0, 69, 64
2, 22380, Note_on_c, 0, 68, 110
2, 22428, Note_off_c, 0, 68, 64
2, 22440, Note_on_c, 0, 69, 110
2, 22488, Note_off_c, 0, 69, 64
2, 22500, Note_on_c, 0, 71, 110
2, 22548, Note_off_c, 0, 71, 64
2, 22560, Note_on_c, 0, 68, 110
2, 22608, Note_off_c, 0, 68, 64
2, 22620, Note_on_c, 0, 69, 110
2, 22668, Note_off_c, 0, 69, 64
2, 22680, Note_on_c, 0, 72, 110
2, 22728, Note_off_c, 0, 72, 64
2, 22740, Note_on_c, 0, 68, 110
2, 22788, Note_off_c, 0, 68, 64
2, 22800, Note_on_c, 0, 69, 110
2, 22848, Note_off_c, 0, 69, 64
2, 22860, Note_on_c, 0, 74, 110
2, 22908, Note_off_c, 0, 74, 64
2, 22920, Note_on_c, 0, 68, 110
2, 22968, Note_off_c, 0, 68, 64
2, 22980, Note_on_c, 0, 69, 110
2, 23028, Note_off_c, 0, 69, 64
2, 23040, Note_on_c, 0, 76, 110
2, 23088, Note_off_c, 0, 76, 64
2, 23100, Note_on_c, 0, 68, 110
2, 23148, Note_off_c, 0, 68, 64
2, 23160, Note_on_c, 0, 69, 110
2, 23208, Note_off_c, 0, 69, 64
2, 23220, Note_on_c, 0, 77, 110
2, 23268, Note_off_c, 0, 77, 64
2, 23280, Note_on_c, 0, 76, 110
2, 23328, Note_off_c, 0, 76, 64
2, 23340, Note_on_c, 0, 74, 110
2, 23388, Note_off_c, 0, 74, 64
2, 23400, Note_on_c, 0, 73, 110
2, 23448, Note_off_c, 0, 73, 64
2, 23460, Note_on_c, 0, 71, 110
2, 23508, Note_off_c, 0, 71, 64
2, 23520, Note_on_c, 0, 69, 110
2, 23568, Note_off_c, 0, 69, 64
2, 23580, Note_on_c, 0, 75, 110
2, 23628, Note_off_c, 0, 75, 64
2, 23640, Note_on_c, 0, 76, 110
2, 23688, Note_off_c, 0, 76, 64
2, 23700, Note_on_c, 0, 78, 110
2, 23748, Note_off_c, 0, 78, 64
2, 23760, Note_on_c, 0, 79, 110
2, 23808, Note_off_c, 0, 79, 64
2, 23820, Note_on_c, 0, 81, 110
2, 23868, Note_off_c, 0, 81, 64
2, 23880, Note_on_c, 0, 82, 110
2, 23928, Note_off_c, 0, 82, 64
2, 23940, Note_on_c, 0, 75, 110
2, 23988, Note_off_c, 0, 75, 64
2, 24000, Note_on_c, 0, 74, 110
2, 24048, Note_off_c, 0, 74, 64
2, 24060, Note_on_c, 0, 72, 110
2, 24108, Note_off_c, 0, 72, 64
2, 24120, Note_on_c, 0, 71, 110
2, 24168, Note_off_c, 0, 71, 64
2, 24180, Note_on_c, 0, 69, 110
2, 24228, Note_off_c, 0, 69, 64
2, 24240, Note_on_c, 0, 67, 110
2, 24288, Note_off_c, 0, 67, 64
2, 24300, Note_on_c, 0, 73, 110
2, 24348, Note_off_c, 0, 73, 64
2, 24360, Note_on_c, 0, 74, 110
2, 24408, Note_off_c, 0, 74, 64
2, 24420, Note_on_c, 0, 76, 110
2, 24468, Note_off_c, 0, 76, 64
2, 24480, Note_on_c, 0, 77, 110
2, 24480, Note_on_c, 0, 62, 110
2, 24528, Note_off_c, 0, 77, 64
2, 24540, Note_on_c, 0, 79, 110
2, 24576, Note_off_c, 0, 62, 64
2, 24588, Note_off_c, 0, 79, 64
2, 24600, Note_on_c, 0, 81, 110
2, 24660, Note_on_c, 0, 70, 110
2, 24708, Note_off_c, 0, 81, 64
2, 24720, Note_on_c, 0, 78, 110
2, 24756, Note_off_c, 0, 70, 64
2, 24768, Note_off_c, 0, 78, 64
2, 24780, Note_on_c, 0, 79, 110
2, 24840, Note_on_c, 0, 69, 110
2, 24888, Note_off_c, 0, 79, 64
2, 24900, Note_on_c, 0, 76, 110
2, 24936, Note_off_c, 0, 69, 64
2, 24948, Note_off_c, 0, 76, 64
2, 24960, Note_on_c, 0, 77, 110
2, 25020, Note_on_c, 0, 67, 110
2, 25068, Note_off_c, 0, 77, 64
2, 25080, Note_on_c, 0, 74, 110
2, 25116, Note_off_c, 0, 67, 64
2, 25128, Note_off_c, 0, 74, 64
2, 25140, Note_on_c, 0, 76, 110
2, 25200, Note_on_c, 0, 65, 110
2, 25248, Note_off_c, 0, 76, 64
2, 25260, Note_on_c, 0, 73, 110
2, 25296, Note_off_c, 0, 65, 64
2, 25308, Note_off_c, 0, 73, 64
2, 25320, Note_on_c, 0, 74, 110
2, 25380, Note_on_c, 0, 66, 110
2, 25428, Note_off_c, 0, 74, 64
2, 25440, Note_on_c, 0, 71, 110
2, 25476, Note_off_c, 0, 66, 64
2, 25488, Note_off_c, 0, 71, 64
2, 25500, Note_on_c, 0, 72, 110
2, 25560, Note_on_c, 0, 67, 110
2, 25608, Note_off_c, 0, 72, 64
2, 25620, Note_on_c, 0, 69, 110
2, 25656, Note_off_c, 0, 67, 64
2, 25668, Note_off_c, 0, 69, 64
2, 25680, Note_on_c, 0, 70, 110
2, 25740, Note_on_c, 0, 61, 110
2, 25788, Note_off_c, 0, 70, 64
2, 25800, Note_on_c, 0, 69, 110
2, 25836, Note_off_c, 0, 61, 64
2, 25848, Note_off_c, 0, 69, 64
2, 25860, Note_on_c, 0, 67, 110
2, 25908, Note_off_c, 0, 67, 64
2, 25920, Note_on_c, 0, 65, 110
2, 25920, Note_on_c, 0, 58, 110
2, 25944, Note_off_c, 0, 58, 64
2, 25950, Note_on_c, 0, 57, 110
2, 25974, Note_off_c, 0, 57, 64
2, 25980, Note_on_c, 0, 58, 110
2, 26004, Note_off_c, 0, 58, 64
2, 26010, Note_on_c, 0, 57, 110
2, 26016, Note_off_c, 0, 65, 64
2, 26034, Note_off_c, 0, 57, 64
2, 26040, Note_on_c, 0, 58, 110
2, 26064, Note_off_c, 0, 58, 64
2, 26070, Note_on_c, 0, 57, 110
2, 26094, Note_off_c, 0, 57, 64
2, 26100, Note_on_c, 0, 58, 110
2, 26100, Note_on_c, 0, 61, 110
2, 26124, Note_off_c, 0, 58, 64
2, 26130, Note_on_c, 0, 57, 110
2, 26154, Note_off_c, 0, 57, 64
2, 26160, Note_on_c, 0, 58, 110
2, 26184, Note_off_c, 0, 58, 64
2, 26190, Note_on_c, 0, 57, 110
2, 26196, Note_off_c, 0, 61, 64
2, 26214, Note_off_c, 0, 57, 64
2, 26220, Note_on_c, 0, 58, 110
2, 26244, Note_off_c, 0, 58, 64
2, 26250, Note_on_c, 0, 57, 110
2, 26274, Note_off_c, 0, 57, 64
2, 26280, Note_on_c, 0, 62, 110
2, 26280, Note_on_c, 0, 58, 110
2, 26304, Note_off_c, 0, 58, 64
2, 26310, Note_on_c, 0, 57, 110
2, 26334, Note_off_c, 0, 57, 64
2, 26340, Note_on_c, 0, 58, 110
2, 26364, Note_off_c, 0, 58, 64
2, 26370, Note_on_c, 0, 57, 110
2, 26376, Note_off_c, 0, 62, 64
2, 26394, Note_off_c, 0, 57, 64
2, 26400, Note_on_c, 0, 58, 110
2, 26424, Note_off_c, 0, 58, 64
2, 26430, Note_on_c, 0, 57, 110
2, 26454, Note_off_c, 0, 57, 64
2, 26460, Note_on_c, 0, 58, 110
2, 26460, Note_on_c, 0, 64, 110
2, 26484, Note_off_c, 0, 58, 64
2, 26490, Note_on_c, 0, 57, 110
2, 26514, Note_off_c, 0, 57, 64
2, 26520, Note_on_c, 0, 58, 110
2, 26544, Note_off_c, 0, 58, 64
2, 26550, Note_on_c, 0, 57, 110
2, 26556, Note_off_c, 0, 64, 64
2, 26574, Note_off_c, 0, 57, 64
2, 26580, Note_on_c, 0, 58, 110
2, 26604, Note_off_c, 0, 58, 64
2, 26610, Note_on_c, 0, 57, 110
2, 26640, Note_on_c, 0, 65, 110
2, 26736, Note_off_c, 0, 57, 64
2, 26736, Note_off_c, 0, 65, 64
2, 26820, Note_on_c, 0, 73, 110
2, 26820, Note_on_c, 0, 64, 110
2, 26916, Note_off_c, 0, 64, 64
2, 26916, Note_off_c, 0, 73, 64
2, 27000, Note_on_c, 0, 62, 110
2, 27000, Note_on_c, 0, 72, 110
2, 27096, Note_off_c, 0, 72, 64
2, 27096, Note_off_c, 0, 62, 64
2, 27180, Note_on_c, 0, 71, 110
2, 27180, Note_on_c, 0, 65, 110
2, 27276, Note_off_c, 0, 65, 64
2, 27276, Note_off_c, 0, 71, 64
2, 27360, Note_on_c, 0, 69, 110
2, 27360, Note_on_c, 0, 63, 110
2, 27456, Note_off_c, 0, 63, 64
2, 27456, Note_off_c, 0, 69, 64
2, 27540, Note_on_c, 0, 62, 110
2, 27540, Note_on_c, 0, 71, 110
2, 27636, Note_off_c, 0, 71, 64
2, 27636, Note_off_c, 0, 62, 64
2, 27720, Note_on_c, 0, 70, 110
2, 27720, Note_on_c, 0, 60, 110
2, 27816, Note_off_c, 0, 60, 64
2, 27816, Note_off_c, 0, 70, 64
2, 27900, Note_on_c, 0, 63, 110
2, 27900, Note_on_c, 0, 69, 110
2, 27996, Note_off_c, 0, 69, 64
2, 27996, Note_off_c, 0, 63, 64
2, 28080, Note_on_c, 0, 62, 110
2, 28080, Note_on_c, 0, 67, 110
2, 28176, Note_off_c, 0, 67, 64
2, 28176, Note_off_c, 0, 62, 64
2, 28260, Note_on_c, 0, 69, 110
2, 28308, Note_off_c, 0, 69, 64
2, 28320, Note_on_c, 0, 71, 110
2, 28368, Note_off_c, 0, 71, 64
2, 28380, Note_on_c, 0, 73, 110
2, 28428, Note_off_c, 0, 73, 64
2, 28440, Note_on_c, 0, 74, 110
2, 28488, Note_off_c, 0, 74, 64
2, 28500, Note_on_c, 0, 76, 110
2, 28548, Note_off_c, 0, 76, 64
2, 28560, Note_on_c, 0, 77, 110
2, 28608, Note_off_c, 0, 77, 64
2, 28620, Note_on_c, 0, 71, 110
2, 28800, Note_on_c, 0, 76, 110
2, 28848, Note_off_c, 0, 76, 64
2, 28860, Note_on_c, 0, 75, 110
2, 28908, Note_off_c, 0, 75, 64
2, 28920, Note_on_c, 0, 76, 110
2, 28944, Note_off_c, 0, 71, 64
2, 28968, Note_off_c, 0, 76, 64
2, 28980, Note_on_c, 0, 78, 110
2, 28980, Note_on_c, 0, 69, 110
2, 29028, Note_off_c, 0, 78, 64
2, 29040, Note_on_c, 0, 75, 110
2, 29088, Note_off_c, 0, 75, 64
2, 29100, Note_on_c, 0, 76, 110
2, 29124, Note_off_c, 0, 69, 64
2, 29148, Note_off_c, 0, 76, 64
2, 29160, Note_on_c, 0, 80, 110
2, 29208, Note_off_c, 0, 80, 64
2, 29220, Note_on_c, 0, 75, 110
2, 29268, Note_off_c, 0, 75, 64
2, 29280, Note_on_c, 0, 76, 110
2, 29328, Note_off_c, 0, 76, 64
2, 29340, Note_on_c, 0, 81, 110
2, 29388, Note_off_c, 0, 81, 64
2, 29400, Note_on_c, 0, 75, 110
2, 29448, Note_off_c, 0, 75, 64
2, 29460, Note_on_c, 0, 76, 110
2, 29508, Note_off_c, 0, 76, 64
2, 29520, Note_on_c, 0, 83, 110
2, 29568, Note_off_c, 0, 83, 64
2, 29580, Note_on_c, 0, 75, 110
2, 29628, Note_off_c, 0, 75, 64
2, 29640, Note_on_c, 0, 76, 110
2, 29688, Note_off_c, 0, 76, 64
2, 29700, Note_on_c, 0, 84, 110
2, 29748, Note_off_c, 0, 84, 64
2, 29760, Note_on_c, 0, 83, 110
2, 29808, Note_off_c, 0, 83, 64
2, 29820, Note_on_c, 0, 81, 110
2, 29868, Note_off_c, 0, 81, 64
2, 29880, Note_on_c, 0, 80, 110
2, 29928, Note_off_c, 0, 80, 64
2, 29940, Note_on_c, 0, 78, 110
2, 29988, Note_off_c, 0, 78, 64
2, 30000, Note_on_c, 0, 76, 110
2, 30048, Note_off_c, 0, 76, 64
2, 30060, Note_on_c, 0, 82, 110
2, 30108, Note_off_c, 0, 82, 64
2, 30120, Note_on_c, 0, 81, 110
2, 30168, Note_off_c, 0, 81, 64
2, 30180, Note_on_c, 0, 79, 110
2, 30228, Note_off_c, 0, 79, 64
2, 30240, Note_on_c, 0, 78, 110
2, 30288, Note_off_c, 0, 78, 64
2, 30300, Note_on_c, 0, 76, 110
2, 30348, Note_off_c, 0, 76, 64
2, 30360, Note_on_c, 0, 74, 110
2, 30408, Note_off_c, 0, 74, 64
2, 30420, Note_on_c, 0, 77, 110
2, 30468, Note_off_c, 0, 77, 64
2, 30480, Note_on_c, 0, 76, 110
2, 30528, Note_off_c, 0, 76, 64
2, 30540, Note_on_c, 0, 74, 110
2, 30588, Note_off_c, 0, 74, 64
2, 30600, Note_on_c, 0, 57, 110
2, 30600, Note_on_c, 0, 72, 110
2, 30648, Note_off_c, 0, 72, 64
2, 30660, Note_on_c, 0, 71, 110
2, 30696, Note_off_c, 0, 57, 64
2, 30708, Note_off_c, 0, 71, 64
2, 30720, Note_on_c, 0, 69, 110
2, 30720, Note_on_c, 0, 69, 110
2, 30768, Note_off_c, 0, 69, 64
2, 30780, Note_on_c, 0, 75, 110
2, 30828, Note_off_c, 0, 75, 64
2, 30840, Note_on_c, 0, 76, 110
2, 30888, Note_off_c, 0, 76, 64
2, 30900, Note_on_c, 0, 78, 110
2, 30924, Note_off_c, 0, 69, 64
2, 30960, Note_on_c, 0, 68, 110
2, 31008, Note_off_c, 0, 78, 64
2, 31020, Note_on_c, 0, 76, 110
2, 31056, Note_off_c, 0, 68, 64
2, 31068, Note_off_c, 0, 76, 64
2, 31080, Note_on_c, 0, 77, 110
2, 31140, Note_on_c, 0, 67, 110
2, 31188, Note_off_c, 0, 77, 64
2, 31200, Note_on_c, 0, 75, 110
2, 31236, Note_off_c, 0, 67, 64
2, 31248, Note_off_c, 0, 75, 64
2, 31260, Note_on_c, 0, 76, 110
2, 31320, Note_on_c, 0, 66, 110
2, 31368, Note_off_c, 0, 76, 64
2, 31380, Note_on_c, 0, 75, 110
2, 31416, Note_off_c, 0, 66, 64
2, 31428, Note_off_c, 0, 75, 64
2, 31440, Note_on_c, 0, 76, 110
2, 31500, Note_on_c, 0, 65, 110
2, 31548, Note_off_c, 0, 76, 64
2, 31560, Note_on_c, 0, 73, 110
2, 31596, Note_off_c, 0, 65, 64
2, 31608, Note_off_c, 0, 73, 64
2, 31620, Note_on_c, 0, 74, 110
2, 31680, Note_on_c, 0, 64, 110
2, 31728, Note_off_c, 0, 74, 64
2, 31740, Note_on_c, 0, 73, 110
2, 31776, Note_off_c, 0, 64, 64
2, 31788, Note_off_c, 0, 73, 64
2, 31800, Note_on_c, 0, 74, 110
2, 31860, Note_on_c, 0, 69, 110
2, 31908, Note_off_c, 0, 74, 64
2, 31920, Note_on_c, 0, 71, 110
2, 31956, Note_off_c, 0, 69, 64
2, 31968, Note_off_c, 0, 71, 64
2, 31980, Note_on_c, 0, 72, 110
2, 32040, Note_on_c, 0, 63, 110
2, 32088, Note_off_c, 0, 72, 64
2, 32100, Note_on_c, 0, 71, 110
2, 32136, Note_off_c, 0, 63, 64
2, 32148, Note_off_c, 0, 71, 64
2, 32160, Note_on_c, 0, 72, 110
2, 32220, Note_on_c, 0, 62, 110
2, 32268, Note_off_c, 0, 72, 64
2, 32280, Note_on_c, 0, 69, 110
2, 32316, Note_off_c, 0, 62, 64
2, 32328, Note_off_c, 0, 69, 64
2, 32340, Note_on_c, 0, 70, 110
2, 32400, Note_on_c, 0, 61, 110
2, 32448, Note_off_c, 0, 70, 64
2, 32460, Note_on_c, 0, 69, 110
2, 32496, Note_off_c, 0, 61, 64
2, 32508, Note_off_c, 0, 69, 64
2, 32520, Note_on_c, 0, 70, 110
2, 32580, Note_on_c, 0, 60, 110
2, 32628, Note_off_c, 0, 70, 64
2, 32640, Note_on_c, 0, 68, 110
2, 32676, Note_off_c, 0, 60, 64
2, 32688, Note_off_c, 0, 68, 64
2, 32700, Note_on_c, 0, 69, 110
2, 32760, Note_on_c, 0, 59, 110
2, 32808, Note_off_c, 0, 69, 64
2, 32820, Note_on_c, 0, 68, 110
2, 32856, Note_off_c, 0, 59, 64
2, 32868, Note_off_c, 0, 68, 64
2, 32880, Note_on_c, 0, 69, 110
2, 32940, Note_on_c, 0, 62, 110
2, 32988, Note_off_c, 0, 69, 64
2, 33000, Note_on_c, 0, 66, 110
2, 33036, Note_off_c, 0, 62, 64
2, 33048, Note_off_c, 0, 66, 64
2, 33060, Note_on_c, 0, 68, 110
2, 33108, Note_off_c, 0, 68, 64
2, 33120, Note_on_c, 0, 69, 110
2, 33168, Note_off_c, 0, 69, 64
2, 33180, Note_on_c, 0, 68, 110
2, 33228, Note_off_c, 0, 68, 64
2, 33240, Note_on_c, 0, 69, 110
2, 33288, Note_off_c, 0, 69, 64
2, 33300, Note_on_c, 0, 71, 110
2, 33348, Note_off_c, 0, 71, 64
2, 33360, Note_on_c, 0, 68, 110
2, 33408, Note_off_c, 0, 68, 64
2, 33420, Note_on_c, 0, 69, 110
2, 33468, Note_off_c, 0, 69, 64
2, 33480, Note_on_c, 0, 73, 110
2, 33528, Note_off_c, 0, 73, 64
2, 33540, Note_on_c, 0, 68, 110
2, 33588, Note_off_c, 0, 68, 64
2, 33600, Note_on_c, 0, 69, 110
2, 33648, Note_off_c, 0, 69, 64
2, 33660, Note_on_c, 0, 74, 110
2, 33708, Note_off_c, 0, 74, 64
2, 33720, Note_on_c, 0, 68, 110
2, 33768, Note_off_c, 0, 68, 64
2, 33780, Note_on_c, 0, 69, 110
2, 33828, Note_off_c, 0, 69, 64
2, 33840, Note_on_c, 0, 76, 110
2, 33888, Note_off_c, 0, 76, 64
2, 33900, Note_on_c, 0, 68, 110
2, 33948, Note_off_c, 0, 68, 64
2, 33960, Note_on_c, 0, 69, 110
2, 34008, Note_off_c, 0, 69, 64
2, 34020, Note_on_c, 0, 77, 110
2, 34068, Note_off_c, 0, 77, 64
2, 34080, Note_on_c, 0, 76, 110
2, 34128, Note_off_c, 0, 76, 64
2, 34140, Note_on_c, 0, 68, 110
2, 34140, Note_on_c, 0, 74, 110
2, 34188, Note_off_c, 0, 74, 64
2, 34188, Note_off_c, 0, 68, 64
2, 34200, Note_on_c, 0, 69, 110
2, 34200, Note_on_c, 0, 73, 110
2, 34248, Note_off_c, 0, 73, 64
2, 34260, Note_on_c, 0, 76, 110
2, 34308, Note_off_c, 0, 76, 64
2, 34320, Note_on_c, 0, 80, 110
2, 34368, Note_off_c, 0, 80, 64
2, 34380, Note_on_c, 0, 81, 110
2, 34488, Note_off_c, 0, 69, 64
2, 34524, Note_off_c, 0, 81, 64
2, 36000, Note_on_c, 0, 69, 110
2, 36048, Note_off_c, 0, 69, 64
2, 36060, Note_on_c, 0, 70, 110
2, 36108, Note_off_c, 0, 70, 64
2, 36120, Note_on_c, 0, 69, 110
2, 36168, Note_off_c, 0, 69, 64
2, 36180, Note_on_c, 0, 67, 110
2, 36228, Note_off_c, 0, 67, 64
2, 36240, Note_on_c, 0, 70, 110
2, 36288, Note_off_c, 0, 70, 64
2, 36300, Note_on_c, 0, 69, 110
2, 36348, Note_off_c, 0, 69, 64
2, 36360, Note_on_c, 0, 65, 110
2, 36408, Note_off_c, 0, 65, 64
2, 36420, Note_on_c, 0, 70, 110
2, 36468, Note_off_c, 0, 70, 64
2, 36480, Note_on_c, 0, 69, 110
2, 36528, Note_off_c, 0, 69, 64
2, 36540, Note_on_c, 0, 64, 110
2, 36588, Note_off_c, 0, 64, 64
2, 36600, Note_on_c, 0, 70, 110
2, 36648, Note_off_c, 0, 70, 64
2, 36660, Note_on_c, 0, 69, 110
2, 36708, Note_off_c, 0, 69, 64
2, 36720, Note_on_c, 0, 62, 110
2, 36768, Note_off_c, 0, 62, 64
2, 36780, Note_on_c, 0, 70, 110
2, 36828, Note_off_c, 0, 70, 64
2, 36840, Note_on_c, 0, 69, 110
2, 36888, Note_off_c, 0, 69, 64
2, 36900, Note_on_c, 0, 61, 110
2, 36948, Note_off_c, 0, 61, 64
2, 36960, Note_on_c, 0, 62, 110
2, 37008, Note_off_c, 0, 62, 64
2, 37020, Note_on_c, 0, 64, 110
2, 37068, Note_off_c, 0, 64, 64
2, 37080, Note_on_c, 0, 66, 110
2, 37128, Note_off_c, 0, 66, 64
2, 37140, Note_on_c, 0, 67, 110
2, 37188, Note_off_c, 0, 67, 64
2, 37200, Note_on_c, 0, 69, 110
2, 37248, Note_off_c, 0, 69, 64
2, 37260, Note_on_c, 0, 63, 110
2, 37308, Note_off_c, 0, 63, 64
2, 37320, Note_on_c, 0, 62, 110
2, 37368, Note_off_c, 0, 62, 64
2, 37380, Note_on_c, 0, 60, 110
2, 37428, Note_off_c, 0, 60, 64
2, 37440, Note_on_c, 0, 62, 110
2, 37464, Note_off_c, 0, 62, 64
2, 37470, Note_on_c, 0, 61, 110
2, 37494, Note_off_c, 0, 61, 64
2, 37500, Note_on_c, 0, 62, 110
2, 37548, Note_off_c, 0, 62, 64
2, 37620, Note_on_c, 0, 63, 110
2, 37668, Note_off_c, 0, 63, 64
2, 37680, Note_on_c, 0, 64, 110
2, 37728, Note_off_c, 0, 64, 64
2, 37740, Note_on_c, 0, 66, 110
2, 37788, Note_off_c, 0, 66, 64
2, 37800, Note_on_c, 0, 68, 110
2, 37848, Note_off_c, 0, 68, 64
2, 37860, Note_on_c, 0, 69, 110
2, 37908, Note_off_c, 0, 69, 64
2, 37920, Note_on_c, 0, 71, 110
2, 37968, Note_off_c, 0, 71, 64
2, 37980, Note_on_c, 0, 65, 110
2, 38028, Note_off_c, 0, 65, 64
2, 38040, Note_on_c, 0, 64, 110
2, 38088, Note_off_c, 0, 64, 64
2, 38100, Note_on_c, 0, 62, 110
2, 38148, Note_off_c, 0, 62, 64
2, 38160, Note_on_c, 0, 76, 110
2, 38160, Note_on_c, 0, 60, 110
2, 38208, Note_off_c, 0, 76, 64
2, 38220, Note_on_c, 0, 77, 110
2, 38256, Note_off_c, 0, 60, 64
2, 38268, Note_off_c, 0, 77, 64
2, 38280, Note_on_c, 0, 76, 110
2, 38328, Note_off_c, 0, 76, 64
2, 38340, Note_on_c, 0, 74, 110
2, 38340, Note_on_c, 0, 65, 110
2, 38388, Note_off_c, 0, 74, 64
2, 38400, Note_on_c, 0, 77, 110
2, 38436, Note_off_c, 0, 65, 64
2, 38448, Note_off_c, 0, 77, 64
2, 38460, Note_on_c, 0, 76, 110
2, 38508, Note_off_c, 0, 76, 64
2, 38520, Note_on_c, 0, 72, 110
2, 38520, Note_on_c, 0, 64, 110
2, 38568, Note_off_c, 0, 72, 64
2, 38580, Note_on_c, 0, 77, 110
2, 38616, Note_off_c, 0, 64, 64
2, 38628, Note_off_c, 0, 77, 64
2, 38640, Note_on_c, 0, 76, 110
2, 38688, Note_off_c, 0, 76, 64
2, 38700, Note_on_c, 0, 71, 110
2, 38700, Note_on_c, 0, 62, 110
2, 38748, Note_off_c, 0, 71, 64
2, 38760, Note_on_c, 0, 77, 110
2, 38796, Note_off_c, 0, 62, 64
2, 38808, Note_off_c, 0, 77, 64
2, 38820, Note_on_c, 0, 76, 110
2, 38868, Note_off_c, 0, 76, 64
2, 38880, Note_on_c, 0, 69, 110
2, 38880, Note_on_c, 0, 60, 110
2, 38928, Note_off_c, 0, 69, 64
2, 38940, Note_on_c, 0, 77, 110
2, 38976, Note_off_c, 0, 60, 64
2, 38988, Note_off_c, 0, 77, 64
2, 39000, Note_on_c, 0, 76, 110
2, 39048, Note_off_c, 0, 76, 64
2, 39060, Note_on_c, 0, 68, 110
2, 39108, Note_off_c, 0, 68, 64
2, 39120, Note_on_c, 0, 69, 110
2, 39168, Note_off_c, 0, 69, 64
2, 39180, Note_on_c, 0, 71, 110
2, 39228, Note_off_c, 0, 71, 64
2, 39240, Note_on_c, 0, 73, 110
2, 39288, Note_off_c, 0, 73, 64
2, 39300, Note_on_c, 0, 74, 110
2, 39348, Note_off_c, 0, 74, 64
2, 39360, Note_on_c, 0, 76, 110
2, 39408, Note_off_c, 0, 76, 64
2, 39420, Note_on_c, 0, 70, 110
2, 39468, Note_off_c, 0, 70, 64
2, 39480, Note_on_c, 0, 69, 110
2, 39528, Note_off_c, 0, 69, 64
2, 39540, Note_on_c, 0, 67, 110
2, 39588, Note_off_c, 0, 67, 64
2, 39600, Note_on_c, 0, 65, 110
2, 39600, Note_on_c, 0, 64, 110
2, 39624, Note_off_c, 0, 64, 64
2, 39630, Note_on_c, 0, 62, 110
2, 39654, Note_off_c, 0, 62, 64
2, 39660, Note_on_c, 0, 64, 110
2, 39684, Note_off_c, 0, 64, 64
2, 39690, Note_on_c, 0, 62, 110
2, 39696, Note_off_c, 0, 65, 64
2, 39714, Note_off_c, 0, 62, 64
2, 39720, Note_on_c, 0, 64, 110
2, 39744, Note_off_c, 0, 64, 64
2, 39750, Note_on_c, 0, 62, 110
2, 39774, Note_off_c, 0, 62, 64
2, 39780, Note_on_c, 0, 66, 110
2, 39780, Note_on_c, 0, 64, 110
2, 39804, Note_off_c, 0, 64, 64
2, 39810, Note_on_c, 0, 62, 110
2, 39834, Note_off_c, 0, 62, 64
2, 39840, Note_on_c, 0, 64, 110
2, 39864, Note_off_c, 0, 64, 64
2, 39870, Note_on_c, 0, 62, 110
2, 39876, Note_off_c, 0, 66, 64
2, 39894, Note_off_c, 0, 62, 64
2, 39900, Note_on_c, 0, 64, 110
2, 39924, Note_off_c, 0, 64, 64
2, 39930, Note_on_c, 0, 62, 110
2, 39954, Note_off_c, 0, 62, 64
2, 39960, Note_on_c, 0, 67, 110
2, 39960, Note_on_c, 0, 64, 110
2, 39984, Note_off_c, 0, 64, 64
2, 39990, Note_on_c, 0, 62, 110
2, 40014, Note_off_c, 0, 62, 64
2, 40020, Note_on_c, 0, 64, 110
2, 40044, Note_off_c, 0, 64, 64
2, 40050, Note_on_c, 0, 62, 110
2, 40056, Note_off_c, 0, 67, 64
2, 40074, Note_off_c, 0, 62, 64
2, 40080, Note_on_c, 0, 64, 110
2, 40104, Note_off_c, 0, 64, 64
2, 40110, Note_on_c, 0, 62, 110
2, 40134, Note_off_c, 0, 62, 64
2, 40140, Note_on_c, 0, 64, 110
2, 40140, Note_on_c, 0, 69, 110
2, 40164, Note_off_c, 0, 64, 64
2, 40170, Note_on_c, 0, 62, 110
2, 40194, Note_off_c, 0, 62, 64
2, 40200, Note_on_c, 0, 64, 110
2, 40224, Note_off_c, 0, 64, 64
2, 40230, Note_on_c, 0, 62, 110
2, 40236, Note_off_c, 0, 69, 64
2, 40254, Note_off_c, 0, 62, 64
2, 40260, Note_on_c, 0, 64, 110
2, 40284, Note_off_c, 0, 64, 64
2, 40290, Note_on_c, 0, 62, 110
2, 40320, Note_on_c, 0, 70, 110
2, 40416, Note_off_c, 0, 70, 64
2, 40416, Note_off_c, 0, 62, 64
2, 40500, Note_on_c, 0, 63, 110
2, 40500, Note_on_c, 0, 72, 110
2, 40596, Note_off_c, 0, 72, 64
2, 40596, Note_off_c, 0, 63, 64
2, 40680, Note_on_c, 0, 74, 110
2, 40680, Note_on_c, 0, 65, 110
2, 40776, Note_off_c, 0, 65, 64
2, 40776, Note_off_c, 0, 74, 64
2, 40860, Note_on_c, 0, 62, 110
2, 40860, Note_on_c, 0, 71, 110
2, 40956, Note_off_c, 0, 71, 64
2, 40956, Note_off_c, 0, 62, 64
2, 41040, Note_on_c, 0, 67, 110
2, 41040, Note_on_c, 0, 73, 110
2, 41136, Note_off_c, 0, 73, 64
2, 41136, Note_off_c, 0, 67, 64
2, 41220, Note_on_c, 0, 74, 110
2, 41220, Note_on_c, 0, 65, 110
2, 41316, Note_off_c, 0, 65, 64
2, 41316, Note_off_c, 0, 74, 64
2, 41400, Note_on_c, 0, 76, 110
2, 41400, Note_on_c, 0, 67, 110
2, 41496, Note_off_c, 0, 67, 64
2, 41496, Note_off_c, 0, 76, 64
2, 41580, Note_on_c, 0, 64, 110
2, 41580, Note_on_c, 0, 73, 110
2, 41676, Note_off_c, 0, 73, 64
2, 41676, Note_off_c, 0, 64, 64
2, 41760, Note_on_c, 0, 76, 110
2, 41760, Note_on_c, 0, 69, 110
2, 41784, Note_off_c, 0, 76, 64
2, 41790, Note_on_c, 0, 74, 110
2, 41814, Note_off_c, 0, 74, 64
2, 41820, Note_on_c, 0, 76, 110
2, 41844, Note_off_c, 0, 76, 64
2, 41850, Note_on_c, 0, 74, 110
2, 41856, Note_off_c, 0, 69, 64
2, 41874, Note_off_c, 0, 74, 64
2, 41880, Note_on_c, 0, 76, 110
2, 41904, Note_off_c, 0, 76, 64
2, 41910, Note_on_c, 0, 74, 110
2, 41934, Note_off_c, 0, 74, 64
2, 41940, Note_on_c, 0, 76, 110
2, 41964, Note_off_c, 0, 76, 64
2, 41970, Note_on_c, 0, 74, 110
2, 41994, Note_off_c, 0, 74, 64
2, 42000, Note_on_c, 0, 76, 110
2, 42024, Note_off_c, 0, 76, 64
2, 42030, Note_on_c, 0, 74, 110
2, 42054, Note_off_c, 0, 74, 64
2, 42060, Note_on_c, 0, 76, 110
2, 42084, Note_off_c, 0, 76, 64
2, 42090, Note_on_c, 0, 74, 110
2, 42114, Note_off_c, 0, 74, 64
2, 42120, Note_on_c, 0, 76, 110
2, 42144, Note_off_c, 0, 76, 64
2, 42150, Note_on_c, 0, 74, 110
2, 42174, Note_off_c, 0, 74, 64
2, 42180, Note_on_c, 0, 76, 110
2, 42204, Note_off_c, 0, 76, 64
2, 42210, Note_on_c, 0, 74, 110
2, 42234, Note_off_c, 0, 74, 64
2, 42240, Note_on_c, 0, 76, 110
2, 42264, Note_off_c, 0, 76, 64
2, 42270, Note_on_c, 0, 74, 110
2, 42294, Note_off_c, 0, 74, 64
2, 42300, Note_on_c, 0, 76, 110
2, 42324, Note_off_c, 0, 76, 64
2, 42330, Note_on_c, 0, 74, 110
2, 42354, Note_off_c, 0, 74, 64
2, 42360, Note_on_c, 0, 76, 110
2, 42384, Note_off_c, 0, 76, 64
2, 42390, Note_on_c, 0, 74, 110
2, 42414, Note_off_c, 0, 74, 64
2, 42420, Note_on_c, 0, 76, 110
2, 42444, Note_off_c, 0, 76, 64
2, 42450, Note_on_c, 0, 74, 110
2, 42576, Note_off_c, 0, 74, 64
2, 43200, Note_on_c, 0, 81, 110
2, 43248, Note_off_c, 0, 81, 64
2, 43260, Note_on_c, 0, 82, 110
2, 43308, Note_off_c, 0, 82, 64
2, 43320, Note_on_c, 0, 81, 110
2, 43368, Note_off_c, 0, 81, 64
2, 43380, Note_on_c, 0, 79, 110
2, 43428, Note_off_c, 0, 79, 64
2, 43440, Note_on_c, 0, 82, 110
2, 43488, Note_off_c, 0, 82, 64
2, 43500, Note_on_c, 0, 81, 110
2, 43548, Note_off_c, 0, 81, 64
2, 43560, Note_on_c, 0, 77, 110
2, 43608, Note_off_c, 0, 77, 64
2, 43620, Note_on_c, 0, 82, 110
2, 43668, Note_off_c, 0, 82, 64
2, 43680, Note_on_c, 0, 81, 110
2, 43728, Note_off_c, 0, 81, 64
2, 43740, Note_on_c, 0, 76, 110
2, 43788, Note_off_c, 0, 76, 64
2, 43800, Note_on_c, 0, 82, 110
2, 43848, Note_off_c, 0, 82, 64
2, 43860, Note_on_c, 0, 81, 110
2, 43908, Note_off_c, 0, 81, 64
2, 43920, Note_on_c, 0, 74, 110
2, 43968, Note_off_c, 0, 74, 64
2, 43980, Note_on_c, 0, 82, 110
2, 44028, Note_off_c, 0, 82, 64
2, 44040, Note_on_c, 0, 81, 110
2, 44088, Note_off_c, 0, 81, 64
2, 44100, Note_on_c, 0, 73, 110
2, 44148, Note_off_c, 0, 73, 64
2, 44160, Note_on_c, 0, 74, 110
2, 44208, Note_off_c, 0, 74, 64
2, 44220, Note_on_c, 0, 76, 110
2, 44268, Note_off_c, 0, 76, 64
2, 44280, Note_on_c, 0, 78, 110
2, 44328, Note_off_c, 0, 78, 64
2, 44340, Note_on_c, 0, 79, 110
2, 44388, Note_off_c, 0, 79, 64
2, 44400, Note_on_c, 0, 81, 110
2, 44448, Note_off_c, 0, 81, 64
2, 44460, Note_on_c, 0, 75, 110
2, 44508, Note_off_c, 0, 75, 64
2, 44520, Note_on_c, 0, 74, 110
2, 44568, Note_off_c, 0, 74, 64
2, 44580, Note_on_c, 0, 72, 110
2, 44628, Note_off_c, 0, 72, 64
2, 44640, Note_on_c, 0, 71, 110
2, 44688, Note_off_c, 0, 71, 64
2, 44700, Note_on_c, 0, 69, 110
2, 44748, Note_off_c, 0, 69, 64
2, 44760, Note_on_c, 0, 68, 110
2, 44808, Note_off_c, 0, 68, 64
2, 44820, Note_on_c, 0, 75, 110
2, 44868, Note_off_c, 0, 75, 64
2, 44880, Note_on_c, 0, 76, 110
2, 44928, Note_off_c, 0, 76, 64
2, 44940, Note_on_c, 0, 78, 110
2, 44988, Note_off_c, 0, 78, 64
2, 45000, Note_on_c, 0, 80, 110
2, 45048, Note_off_c, 0, 80, 64
2, 45060, Note_on_c, 0, 81, 110
2, 45108, Note_off_c, 0, 81, 64
2, 45120, Note_on_c, 0, 83, 110
2, 45168, Note_off_c, 0, 83, 64
2, 45180, Note_on_c, 0, 77, 110
2, 45228, Note_off_c, 0, 77, 64
2, 45240, Note_on_c, 0, 76, 110
2, 45288, Note_off_c, 0, 76, 64
2, 45300, Note_on_c, 0, 74, 110
2, 45348, Note_off_c, 0, 74, 64
2, 45360, Note_on_c, 0, 73, 110
2, 45408, Note_off_c, 0, 73, 64
2, 45420, Note_on_c, 0, 74, 110
2, 45468, Note_off_c, 0, 74, 64
2, 45480, Note_on_c, 0, 76, 110
2, 45528, Note_off_c, 0, 76, 64
2, 45540, Note_on_c, 0, 70, 110
2, 45588, Note_off_c, 0, 70, 64
2, 45600, Note_on_c, 0, 69, 110
2, 45648, Note_off_c, 0, 69, 64
2, 45660, Note_on_c, 0, 67, 110
2, 45708, Note_off_c, 0, 67, 64
2, 45720, Note_on_c, 0, 66, 110
2, 45768, Note_off_c, 0, 66, 64
2, 45780, Note_on_c, 0, 67, 110
2, 45828, Note_off_c, 0, 67, 64
2, 45840, Note_on_c, 0, 69, 110
2, 45888, Note_off_c, 0, 69, 64
2, 45900, Note_on_c, 0, 65, 110
2, 45948, Note_off_c, 0, 65, 64
2, 45960, Note_on_c, 0, 64, 110
2, 46008, Note_off_c, 0, 64, 64
2, 46020, Note_on_c, 0, 62, 110
2, 46068, Note_off_c, 0, 62, 64
2, 46080, Note_on_c, 0, 58, 110
2, 46080, Note_on_c, 0, 61, 110
2, 46104, Note_off_c, 0, 58, 64
2, 46110, Note_on_c, 0, 57, 110
2, 46134, Note_off_c, 0, 57, 64
2, 46140, Note_on_c, 0, 58, 110
2, 46164, Note_off_c, 0, 58, 64
2, 46170, Note_on_c, 0, 57, 110
2, 46194, Note_off_c, 0, 57, 64
2, 46200, Note_on_c, 0, 58, 110
2, 46224, Note_off_c, 0, 58, 64
2, 46230, Note_on_c, 0, 57, 110
2, 46254, Note_off_c, 0, 57, 64
2, 46260, Note_on_c, 0, 58, 110
2, 46284, Note_off_c, 0, 58, 64
2, 46290, Note_on_c, 0, 57, 110
2, 46314, Note_off_c, 0, 57, 64
2, 46320, Note_on_c, 0, 58, 110
2, 46344, Note_off_c, 0, 58, 64
2, 46350, Note_on_c, 0, 57, 110
2, 46368, Note_off_c, 0, 61, 64
2, 46374, Note_off_c, 0, 57, 64
2, 46380, Note_on_c, 0, 58, 110
2, 46404, Note_off_c, 0, 58, 64
2, 46410, Note_on_c, 0, 57, 110
2, 46434, Note_off_c, 0, 57, 64
2, 46440, Note_on_c, 0, 62, 110
2, 46440, Note_on_c, 0, 58, 110
2, 46464, Note_off_c, 0, 58, 64
2, 46470, Note_on_c, 0, 57, 110
2, 46494, Note_off_c, 0, 57, 64
2, 46500, Note_on_c, 0, 58, 110
2, 46524, Note_off_c, 0, 58, 64
2, 46530, Note_on_c, 0, 57, 110
2, 46536, Note_off_c, 0, 62, 64
2, 46554, Note_off_c, 0, 57, 64
2, 46560, Note_on_c, 0, 58, 110
2, 46584, Note_off_c, 0, 58, 64
2, 46590, Note_on_c, 0, 57, 110
2, 46614, Note_off_c, 0, 57, 64
2, 46620, Note_on_c, 0, 64, 110
2, 46620, Note_on_c, 0, 58, 110
2, 46644, Note_off_c, 0, 58, 64
2, 46650, Note_on_c, 0, 57, 110
2, 46674, Note_off_c, 0, 57, 64
2, 46680, Note_on_c, 0, 58, 110
2, 46704, Note_off_c, 0, 58, 64
2, 46710, Note_on_c, 0, 57, 110
2, 46716, Note_off_c, 0, 64, 64
2, 46734, Note_off_c, 0, 57, 64
2, 46740, Note_on_c, 0, 58, 110
2, 46764, Note_off_c, 0, 58, 64
2, 46770, Note_on_c, 0, 57, 110
2, 46800, Note_on_c, 0, 65, 110
2, 46896, Note_off_c, 0, 65, 64
2, 46896, Note_off_c, 0, 57, 64
2, 46980, Note_on_c, 0, 70, 110
2, 46980, Note_on_c, 0, 67, 110
2, 47076, Note_off_c, 0, 67, 64
2, 47076, Note_off_c, 0, 70, 64
2, 47160, Note_on_c, 0, 69, 110
2, 47160, Note_on_c, 0, 62, 110
2, 47256, Note_off_c, 0, 62, 64
2, 47256, Note_off_c, 0, 69, 64
2, 47340, Note_on_c, 0, 72, 110
2, 47340, Note_on_c, 0, 69, 110
2, 47436, Note_off_c, 0, 69, 64
2, 47436, Note_off_c, 0, 72, 64
2, 47520, Note_on_c, 0, 64, 110
2, 47520, Note_on_c, 0, 71, 110
2, 47616, Note_off_c, 0, 71, 64
2, 47616, Note_off_c, 0, 64, 64
2, 47700, Note_on_c, 0, 74, 110
2, 47700, Note_on_c, 0, 77, 110
2, 47748, Note_off_c, 0, 77, 64
2, 47760, Note_on_c, 0, 76, 110
2, 47796, Note_off_c, 0, 74, 64
2, 47808, Note_off_c, 0, 76, 64
2, 47820, Note_on_c, 0, 74, 110
2, 47868, Note_off_c, 0, 74, 64
2, 47880, Note_on_c, 0, 69, 110
2, 47880, Note_on_c, 0, 76, 110
2, 47928, Note_off_c, 0, 76, 64
2, 47940, Note_on_c, 0, 77, 110
2, 47976, Note_off_c, 0, 69, 64
2, 47988, Note_off_c, 0, 77, 64
2, 48000, Note_on_c, 0, 79, 110
2, 48048, Note_off_c, 0, 79, 64
2, 48060, Note_on_c, 0, 79, 110
2, 48060, Note_on_c, 0, 73, 110
2, 48108, Note_off_c, 0, 79, 64
2, 48120, Note_on_c, 0, 81, 110
2, 48156, Note_off_c, 0, 73, 64
2, 48168, Note_off_c, 0, 81, 64
2, 48180, Note_on_c, 0, 82, 110
2, 48228, Note_off_c, 0, 82, 64
2, 48240, Note_on_c, 0, 82, 110
2, 48240, Note_on_c, 0, 74, 110
2, 48264, Note_off_c, 0, 82, 64
2, 48270, Note_on_c, 0, 81, 110
2, 48294, Note_off_c, 0, 81, 64
2, 48300, Note_on_c, 0, 82, 110
2, 48324, Note_off_c, 0, 82, 64
2, 48330, Note_on_c, 0, 81, 110
2, 48336, Note_off_c, 0, 74, 64
2, 48354, Note_off_c, 0, 81, 64
2, 48360, Note_on_c, 0, 82, 110
2, 48384, Note_off_c, 0, 82, 64
2, 48390, Note_on_c, 0, 81, 110
2, 48414, Note_off_c, 0, 81, 64
2, 48420, Note_on_c, 0, 82, 110
2, 48444, Note_off_c, 0, 82, 64
2, 48450, Note_on_c, 0, 81, 110
2, 48474, Note_off_c, 0, 81, 64
2, 48480, Note_on_c, 0, 82, 110
2, 48504, Note_off_c, 0, 82, 64
2, 48510, Note_on_c, 0, 81, 110
2, 48534, Note_off_c, 0, 81, 64
2, 48540, Note_on_c, 0, 82, 110
2, 48564, Note_off_c, 0, 82, 64
2, 48570, Note_on_c, 0, 81, 110
2, 48594, Note_off_c, 0, 81, 64
2, 48600, Note_on_c, 0, 82, 110
2, 48624, Note_off_c, 0, 82, 64
2, 48630, Note_on_c, 0, 81, 110
2, 48654, Note_off_c, 0, 81, 64
2, 48660, Note_on_c, 0, 82, 110
2, 48684, Note_off_c, 0, 82, 64
2, 48690, Note_on_c, 0, 81, 110
2, 48714, Note_off_c, 0, 81, 64
2, 48720, Note_on_c, 0, 82, 110
2, 48744, Note_off_c, 0, 82, 64
2, 48750, Note_on_c, 0, 81, 110
2, 48774, Note_off_c, 0, 81, 64
2, 48780, Note_on_c, 0, 82, 110
2, 48804, Note_off_c, 0, 82, 64
2, 48810, Note_on_c, 0, 81, 110
2, 48834, Note_off_c, 0, 81, 64
2, 48840, Note_on_c, 0, 82, 110
2, 48864, Note_off_c, 0, 82, 64
2, 48870, Note_on_c, 0, 81, 110
2, 48894, Note_off_c, 0, 81, 64
2, 48900, Note_on_c, 0, 82, 110
2, 48924, Note_off_c, 0, 82, 64
2, 48930, Note_on_c, 0, 81, 110
2, 48954, Note_off_c, 0, 81, 64
2, 48960, Note_on_c, 0, 82, 110
2, 48984, Note_off_c, 0, 82, 64
2, 48990, Note_on_c, 0, 81, 110
2, 49014, Note_off_c, 0, 81, 64
2, 49020, Note_on_c, 0, 82, 110
2, 49044, Note_off_c, 0, 82, 64
2, 49050, Note_on_c, 0, 81, 110
2, 49074, Note_off_c, 0, 81, 64
2, 49080, Note_on_c, 0, 82, 110
2, 49104, Note_off_c, 0, 82, 64
2, 49110, Note_on_c, 0, 81, 110
2, 49134, Note_off_c, 0, 81, 64
2, 49140, Note_on_c, 0, 82, 110
2, 49164, Note_off_c, 0, 82, 64
2, 49170, Note_on_c, 0, 81, 110
2, 49194, Note_off_c, 0, 81, 64
2, 49200, Note_on_c, 0, 82, 110
2, 49224, Note_off_c, 0, 82, 64
2, 49230, Note_on_c, 0, 81, 110
2, 49254, Note_off_c, 0, 81, 64
2, 49260, Note_on_c, 0, 82, 110
2, 49284, Note_off_c, 0, 82, 64
2, 49290, Note_on_c, 0, 81, 110
2, 49314, Note_off_c, 0, 81, 64
2, 49320, Note_on_c, 0, 82, 110
2, 49344, Note_off_c, 0, 82, 64
2, 49350, Note_on_c, 0, 81, 110
2, 49374, Note_off_c, 0, 81, 64
2, 49380, Note_on_c, 0, 82, 110
2, 49404, Note_off_c, 0, 82, 64
2, 49410, Note_on_c, 0, 81, 110
2, 49434, Note_off_c, 0, 81, 64
2, 49440, Note_on_c, 0, 82, 110
2, 49464, Note_off_c, 0, 82, 64
2, 49470, Note_on_c, 0, 81, 110
2, 49494, Note_off_c, 0, 81, 64
2, 49500, Note_on_c, 0, 82, 110
2, 49524, Note_off_c, 0, 82, 64
2, 49530, Note_on_c, 0, 81, 110
2, 49554, Note_off_c, 0, 81, 64
2, 49560, Note_on_c, 0, 82, 110
2, 49584, Note_off_c, 0, 82, 64
2, 49590, Note_on_c, 0, 81, 110
2, 49614, Note_off_c, 0, 81, 64
2, 49620, Note_on_c, 0, 82, 110
2, 49644, Note_off_c, 0, 82, 64
2, 49650, Note_on_c, 0, 81, 110
2, 49674, Note_off_c, 0, 81, 64
2, 49680, Note_on_c, 0, 82, 110
2, 49704, Note_off_c, 0, 82, 64
2, 49710, Note_on_c, 0, 81, 110
2, 49734, Note_off_c, 0, 81, 64
2, 49740, Note_on_c, 0, 82, 110
2, 49764, Note_off_c, 0, 82, 64
2, 49770, Note_on_c, 0, 81, 110
2, 49794, Note_off_c, 0, 81, 64
2, 49800, Note_on_c, 0, 82, 110
2, 49824, Note_off_c, 0, 82, 64
2, 49830, Note_on_c, 0, 81, 110
2, 49854, Note_off_c, 0, 81, 64
2, 49860, Note_on_c, 0, 82, 110
2, 49884, Note_off_c, 0, 82, 64
2, 49890, Note_on_c, 0, 81, 110
2, 49914, Note_off_c, 0, 81, 64
2, 49920, Note_on_c, 0, 82, 110
2, 49944, Note_off_c, 0, 82, 64
2, 49950, Note_on_c, 0, 81, 110
2, 49974, Note_off_c, 0, 81, 64
2, 49980, Note_on_c, 0, 82, 110
2, 50004, Note_off_c, 0, 82, 64
2, 50010, Note_on_c, 0, 81, 110
2, 50034, Note_off_c, 0, 81, 64
2, 50040, Note_on_c, 0, 82, 110
2, 50064, Note_off_c, 0, 82, 64
2, 50070, Note_on_c, 0, 81, 110
2, 50094, Note_off_c, 0, 81, 64
2, 50100, Note_on_c, 0, 82, 110
2, 50124, Note_off_c, 0, 82, 64
2, 50130, Note_on_c, 0, 81, 110
2, 50154, Note_off_c, 0, 81, 64
2, 50160, Note_on_c, 0, 82, 110
2, 50184, Note_off_c, 0, 82, 64
2, 50190, Note_on_c, 0, 81, 110
2, 50214, Note_off_c, 0, 81, 64
2, 50220, Note_on_c, 0, 82, 110
2, 50244, Note_off_c, 0, 82, 64
2, 50250, Note_on_c, 0, 81, 110
2, 50274, Note_off_c, 0, 81, 64
2, 50280, Note_on_c, 0, 82, 110
2, 50304, Note_off_c, 0, 82, 64
2, 50310, Note_on_c, 0, 81, 110
2, 50334, Note_off_c, 0, 81, 64
2, 50340, Note_on_c, 0, 82, 110
2, 50364, Note_off_c, 0, 82, 64
2, 50370, Note_on_c, 0, 81, 110
2, 50448, Note_off_c, 0, 81, 64
2, 50460, Note_on_c, 0, 82, 110
2, 50508, Note_off_c, 0, 82, 64
2, 50520, Note_on_c, 0, 81, 110
2, 50568, Note_off_c, 0, 81, 64
2, 50580, Note_on_c, 0, 79, 110
2, 50628, Note_off_c, 0, 79, 64
2, 50640, Note_on_c, 0, 82, 110
2, 50688, Note_off_c, 0, 82, 64
2, 50700, Note_on_c, 0, 81, 110
2, 50748, Note_off_c, 0, 81, 64
2, 50760, Note_on_c, 0, 77, 110
2, 50808, Note_off_c, 0, 77, 64
2, 50820, Note_on_c, 0, 82, 110
2, 50868, Note_off_c, 0, 82, 64
2, 50880, Note_on_c, 0, 81, 110
2, 50928, Note_off_c, 0, 81, 64
2, 50940, Note_on_c, 0, 76, 110
2, 50988, Note_off_c, 0, 76, 64
2, 51000, Note_on_c, 0, 82, 110
2, 51048, Note_off_c, 0, 82, 64
2, 51060, Note_on_c, 0, 81, 110
2, 51108, Note_off_c, 0, 81, 64
2, 51120, Note_on_c, 0, 74, 110
2, 51168, Note_off_c, 0, 74, 64
2, 51180, Note_on_c, 0, 82, 110
2, 51228, Note_off_c, 0, 82, 64
2, 51240, Note_on_c, 0, 81, 110
2, 51288, Note_off_c, 0, 81, 64
2, 51300, Note_on_c, 0, 73, 110
2, 51348, Note_off_c, 0, 73, 64
2, 51360, Note_on_c, 0, 74, 110
2, 51408, Note_off_c, 0, 74, 64
2, 51420, Note_on_c, 0, 76, 110
2, 51468, Note_off_c, 0, 76, 64
2, 51480, Note_on_c, 0, 77, 110
2, 51528, Note_off_c, 0, 77, 64
2, 51540, Note_on_c, 0, 79, 110
2, 51588, Note_off_c, 0, 79, 64
2, 51600, Note_on_c, 0, 81, 110
2, 51648, Note_off_c, 0, 81, 64
2, 51660, Note_on_c, 0, 75, 110
2, 51708, Note_off_c, 0, 75, 64
2, 51720, Note_on_c, 0, 74, 110
2, 51768, Note_off_c, 0, 74, 64
2, 51780, Note_on_c, 0, 72, 110
2, 51828, Note_off_c, 0, 72, 64
2, 51840, Note_on_c, 0, 74, 110
2, 51888, Note_off_c, 0, 74, 64
2, 51900, Note_on_c, 0, 73, 110
2, 51948, Note_off_c, 0, 73, 64
2, 51960, Note_on_c, 0, 74, 110
2, 52008, Note_off_c, 0, 74, 64
2, 52020, Note_on_c, 0, 64, 110
2, 52068, Note_off_c, 0, 64, 64
2, 52080, Note_on_c, 0, 73, 110
2, 52128, Note_off_c, 0, 73, 64
2, 52140, Note_on_c, 0, 74, 110
2, 52188, Note_off_c, 0, 74, 64
2, 52200, Note_on_c, 0, 65, 110
2, 52248, Note_off_c, 0, 65, 64
2, 52260, Note_on_c, 0, 73, 110
2, 52308, Note_off_c, 0, 73, 64
2, 52320, Note_on_c, 0, 74, 110
2, 52368, Note_off_c, 0, 74, 64
2, 52380, Note_on_c, 0, 67, 110
2, 52428, Note_off_c, 0, 67, 64
2, 52440, Note_on_c, 0, 73, 110
2, 52488, Note_off_c, 0, 73, 64
2, 52500, Note_on_c, 0, 74, 110
2, 52548, Note_off_c, 0, 74, 64
2, 52560, Note_on_c, 0, 69, 110
2, 52608, Note_off_c, 0, 69, 64
2, 52620, Note_on_c, 0, 73, 110
2, 52668, Note_off_c, 0, 73, 64
2, 52680, Note_on_c, 0, 74, 110
2, 52728, Note_off_c, 0, 74, 64
2, 52740, Note_on_c, 0, 70, 110
2, 52788, Note_off_c, 0, 70, 64
2, 52800, Note_on_c, 0, 69, 110
2, 52848, Note_off_c, 0, 69, 64
2, 52860, Note_on_c, 0, 67, 110
2, 52908, Note_off_c, 0, 67, 64
2, 52920, Note_on_c, 0, 65, 110
2, 52968, Note_off_c, 0, 65, 64
2, 52980, Note_on_c, 0, 64, 110
2, 53028, Note_off_c, 0, 64, 64
2, 53040, Note_on_c, 0, 62, 110
2, 53088, Note_off_c, 0, 62, 64
2, 53100, Note_on_c, 0, 77, 110
2, 53148, Note_off_c, 0, 77, 64
2, 53160, Note_on_c, 0, 76, 110
2, 53208, Note_off_c, 0, 76, 64
2, 53220, Note_on_c, 0, 74, 110
2, 53268, Note_off_c, 0, 74, 64
2, 53280, Note_on_c, 0, 64, 110
2, 53280, Note_on_c, 0, 73, 110
2, 53328, Note_off_c, 0, 73, 64
2, 53328, Note_off_c, 0, 64, 64
2, 53340, Note_on_c, 0, 71, 110
2, 53340, Note_on_c, 0, 65, 110
2, 53388, Note_off_c, 0, 65, 64
2, 53388, Note_off_c, 0, 71, 64
2, 53400, Note_on_c, 0, 69, 110
2, 53400, Note_on_c, 0, 67, 110
2, 53448, Note_off_c, 0, 67, 64
2, 53448, Note_off_c, 0, 69, 64
2, 53460, Note_on_c, 0, 82, 110
2, 53460, Note_on_c, 0, 69, 110
2, 53508, Note_off_c, 0, 69, 64
2, 53508, Note_off_c, 0, 82, 64
2, 53520, Note_on_c, 0, 71, 110
2, 53520, Note_on_c, 0, 81, 110
2, 53568, Note_off_c, 0, 81, 64
2, 53568, Note_off_c, 0, 71, 64
2, 53580, Note_on_c, 0, 79, 110
2, 53580, Note_on_c, 0, 73, 110
2, 53628, Note_off_c, 0, 73, 64
2, 53628, Note_off_c, 0, 79, 64
2, 53640, Note_on_c, 0, 77, 110
2, 53640, Note_on_c, 0, 74, 110
2, 53688, Note_off_c, 0, 77, 64
2, 53700, Note_on_c, 0, 76, 110
2, 53736, Note_off_c, 0, 74, 64
2, 53748, Note_off_c, 0, 76, 64
2, 53760, Note_on_c, 0, 74, 110
2, 53760, Note_on_c, 0, 72, 110
2, 53760, Note_on_c, 0, 74, 110
2, 53808, Note_off_c, 0, 74, 64
2, 53808, Note_off_c, 0, 72, 64
2, 53820, Note_on_c, 0, 79, 110
2, 53820, Note_on_c, 0, 70, 110
2, 53868, Note_off_c, 0, 70, 64
2, 53868, Note_off_c, 0, 79, 64
2, 53880, Note_on_c, 0, 81, 110
2, 53880, Note_on_c, 0, 69, 110
2, 53928, Note_off_c, 0, 69, 64
2, 53928, Note_off_c, 0, 81, 64
2, 53940, Note_on_c, 0, 67, 110
2, 53940, Note_on_c, 0, 82, 110
2, 53964, Note_off_c, 0, 74, 64
2, 53988, Note_off_c, 0, 67, 64
2, 54000, Note_on_c, 0, 69, 110
2, 54000, Note_on_c, 0, 73, 110
2, 54048, Note_off_c, 0, 82, 64
2, 54060, Note_on_c, 0, 81, 110
2, 54096, Note_off_c, 0, 73, 64
2, 54096, Note_off_c, 0, 69, 64
2, 54108, Note_off_c, 0, 81, 64
2, 54120, Note_on_c, 0, 82, 110
2, 54180, Note_on_c, 0, 72, 110
2, 54228, Note_off_c, 0, 82, 64
2, 54240, Note_on_c, 0, 80, 110
2, 54276, Note_off_c, 0, 72, 64
2, 54288, Note_off_c, 0, 80, 64
2, 54300, Note_on_c, 0, 81, 110
2, 54360, Note_on_c, 0, 71, 110
2, 54408, Note_off_c, 0, 81, 64
2, 54420, Note_on_c, 0, 80, 110
2, 54456, Note_off_c, 0, 71, 64
2, 54468, Note_off_c, 0, 80, 64
2, 54480, Note_on_c, 0, 81, 110
2, 54540, Note_on_c, 0, 70, 110
2, 54588, Note_off_c, 0, 81, 64
2, 54600, Note_on_c, 0, 78, 110
2, 54636, Note_off_c, 0, 70, 64
2, 54648, Note_off_c, 0, 78, 64
2, 54660, Note_on_c, 0, 79, 110
2, 54720, Note_on_c, 0, 69, 110
2, 54768, Note_off_c, 0, 79, 64
2, 54780, Note_on_c, 0, 78, 110
2, 54816, Note_off_c, 0, 69, 64
2, 54828, Note_off_c, 0, 78, 64
2, 54840, Note_on_c, 0, 79, 110
2, 54900, Note_on_c, 0, 74, 110
2, 54948, Note_off_c, 0, 79, 64
2, 54960, Note_on_c, 0, 76, 110
2, 54996, Note_off_c, 0, 74, 64
2, 55008, Note_off_c, 0, 76, 64
2, 55020, Note_on_c, 0, 77, 110
2, 55080, Note_on_c, 0, 68, 110
2, 55128, Note_off_c, 0, 77, 64
2, 55140, Note_on_c, 0, 76, 110
2, 55176, Note_off_c, 0, 68, 64
2, 55188, Note_off_c, 0, 76, 64
2, 55200, Note_on_c, 0, 77, 110
2, 55248, Note_off_c, 0, 77, 64
2, 55260, Note_on_c, 0, 77, 110
2, 55260, Note_on_c, 0, 67, 110
2, 55308, Note_off_c, 0, 77, 64
2, 55320, Note_on_c, 0, 74, 110
2, 55356, Note_off_c, 0, 67, 64
2, 55368, Note_off_c, 0, 74, 64
2, 55380, Note_on_c, 0, 75, 110
2, 55440, Note_on_c, 0, 66, 110
2, 55488, Note_off_c, 0, 75, 64
2, 55500, Note_on_c, 0, 74, 110
2, 55536, Note_off_c, 0, 66, 64
2, 55548, Note_off_c, 0, 74, 64
2, 55560, Note_on_c, 0, 75, 110
2, 55620, Note_on_c, 0, 65, 110
2, 55668, Note_off_c, 0, 75, 64
2, 55680, Note_on_c, 0, 73, 110
2, 55716, Note_off_c, 0, 65, 64
2, 55728, Note_off_c, 0, 73, 64
2, 55740, Note_on_c, 0, 74, 110
2, 55800, Note_on_c, 0, 64, 110
2, 55848, Note_off_c, 0, 74, 64
2, 55860, Note_on_c, 0, 73, 110
2, 55896, Note_off_c, 0, 64, 64
2, 55908, Note_off_c, 0, 73, 64
2, 55920, Note_on_c, 0, 74, 110
2, 55980, Note_on_c, 0, 67, 110
2, 56028, Note_off_c, 0, 74, 64
2, 56040, Note_on_c, 0, 71, 110
2, 56088, Note_off_c, 0, 71, 64
2, 56100, Note_on_c, 0, 72, 110
2, 56148, Note_off_c, 0, 72, 64
2, 56160, Note_on_c, 0, 74, 110
2, 56208, Note_off_c, 0, 67, 64
2, 56220, Note_on_c, 0, 66, 110
2, 56268, Note_off_c, 0, 66, 64
2, 56280, Note_on_c, 0, 67, 110
2, 56328, Note_off_c, 0, 67, 64
2, 56340, Note_on_c, 0, 69, 110
2, 56388, Note_off_c, 0, 69, 64
2, 56400, Note_on_c, 0, 66, 110
2, 56448, Note_off_c, 0, 66, 64
2, 56460, Note_on_c, 0, 67, 110
2, 56508, Note_off_c, 0, 67, 64
2, 56520, Note_on_c, 0, 70, 110
2, 56568, Note_off_c, 0, 70, 64
2, 56580, Note_on_c, 0, 66, 110
2, 56628, Note_off_c, 0, 66, 64
2, 56640, Note_on_c, 0, 67, 110
2, 56688, Note_off_c, 0, 67, 64
2, 56700, Note_on_c, 0, 72, 110
2, 56748, Note_off_c, 0, 72, 64
2, 56760, Note_on_c, 0, 66, 110
2, 56808, Note_off_c, 0, 66, 64
2, 56820, Note_on_c, 0, 67, 110
2, 56868, Note_off_c, 0, 67, 64
2, 56880, Note_on_c, 0, 74, 110
2, 56928, Note_off_c, 0, 74, 64
2, 56940, Note_on_c, 0, 69, 110
2, 56988, Note_off_c, 0, 69, 64
2, 57000, Note_on_c, 0, 70, 110
2, 57048, Note_off_c, 0, 70, 64
2, 57060, Note_on_c, 0, 72, 110
2, 57108, Note_off_c, 0, 72, 64
2, 57120, Note_on_c, 0, 70, 110
2, 57168, Note_off_c, 0, 70, 64
2, 57180, Note_on_c, 0, 69, 110
2, 57228, Note_off_c, 0, 69, 64
2, 57240, Note_on_c, 0, 67, 110
2, 57288, Note_off_c, 0, 67, 64
2, 57300, Note_on_c, 0, 70, 110
2, 57300, Note_on_c, 0, 70, 110
2, 57330, Note_off_c, 0, 74, 64
2, 57348, Note_off_c, 0, 70, 64
2, 57360, Note_on_c, 0, 64, 110
2, 57396, Note_off_c, 0, 70, 64
2, 57408, Note_off_c, 0, 64, 64
2, 57420, Note_on_c, 0, 69, 110
2, 57420, Note_on_c, 0, 66, 110
2, 57564, Note_off_c, 0, 66, 64
2, 57564, Note_off_c, 0, 69, 64
2, 59040, Note_on_c, 0, 69, 110
2, 59088, Note_off_c, 0, 69, 64
2, 59100, Note_on_c, 0, 70, 110
2, 59148, Note_off_c, 0, 70, 64
2, 59160, Note_on_c, 0, 69, 110
2, 59208, Note_off_c, 0, 69, 64
2, 59220, Note_on_c, 0, 67, 110
2, 59268, Note_off_c, 0, 67, 64
2, 59280, Note_on_c, 0, 70, 110
2, 59328, Note_off_c, 0, 70, 64
2, 59340, Note_on_c, 0, 69, 110
2, 59388, Note_off_c, 0, 69, 64
2, 59400, Note_on_c, 0, 65, 110
2, 59448, Note_off_c, 0, 65, 64
2, 59460, Note_on_c, 0, 70, 110
2, 59508, Note_off_c, 0, 70, 64
2, 59520, Note_on_c, 0, 69, 110
2, 59568, Note_off_c, 0, 69, 64
2, 59580, Note_on_c, 0, 64, 110
2, 59628, Note_off_c, 0, 64, 64
2, 59640, Note_on_c, 0, 70, 110
2, 59688, Note_off_c, 0, 70, 64
2, 59700, Note_on_c, 0, 69, 110
2, 59748, Note_off_c, 0, 69, 64
2, 59760, Note_on_c, 0, 62, 110
2, 59808, Note_off_c, 0, 62, 64
2, 59820, Note_on_c, 0, 70, 110
2, 59868, Note_off_c, 0, 70, 64
2, 59880, Note_on_c, 0, 69, 110
2, 59928, Note_off_c, 0, 69, 64
2, 59940, Note_on_c, 0, 61, 110
2, 59988, Note_off_c, 0, 61, 64
2, 60000, Note_on_c, 0, 62, 110
2, 60048, Note_off_c, 0, 62, 64
2, 60060, Note_on_c, 0, 64, 110
2, 60108, Note_off_c, 0, 64, 64
2, 60120, Note_on_c, 0, 66, 110
2, 60168, Note_off_c, 0, 66, 64
2, 60180, Note_on_c, 0, 67, 110
2, 60228, Note_off_c, 0, 67, 64
2, 60240, Note_on_c, 0, 69, 110
2, 60288, Note_off_c, 0, 69, 64
2, 60300, Note_on_c, 0, 63, 110
2, 60348, Note_off_c, 0, 63, 64
2, 60360, Note_on_c, 0, 62, 110
2, 60408, Note_off_c, 0, 62, 64
2, 60420, Note_on_c, 0, 60, 110
2, 60468, Note_off_c, 0, 60, 64
2, 60480, Note_on_c, 0, 62, 110
2, 60504, Note_off_c, 0, 62, 64
2, 60510, Note_on_c, 0, 61, 110
2, 60534, Note_off_c, 0, 61, 64
2, 60540, Note_on_c, 0, 62, 110
2, 60588, Note_off_c, 0, 62, 64
2, 60660, Note_on_c, 0, 63, 110
2, 60708, Note_off_c, 0, 63, 64
2, 60720, Note_on_c, 0, 64, 110
2, 60768, Note_off_c, 0, 64, 64
2, 60780, Note_on_c, 0, 66, 110
2, 60828, Note_off_c, 0, 66, 64
2, 60840, Note_on_c, 0, 68, 110
2, 60888, Note_off_c, 0, 68, 64
2, 60900, Note_on_c, 0, 69, 110
2, 60948, Note_off_c, 0, 69, 64
2, 60960, Note_on_c, 0, 71, 110
2, 61008, Note_off_c, 0, 71, 64
2, 61020, Note_on_c, 0, 65, 110
2, 61068, Note_off_c, 0, 65, 64
2, 61080, Note_on_c, 0, 64, 110
2, 61128, Note_off_c, 0, 64, 64
2, 61140, Note_on_c, 0, 62, 110
2, 61188, Note_off_c, 0, 62, 64
2, 61200, Note_on_c, 0, 76, 110
2, 61200, Note_on_c, 0, 60, 110
2, 61248, Note_off_c, 0, 76, 64
2, 61260, Note_on_c, 0, 77, 110
2, 61296, Note_off_c, 0, 60, 64
2, 61308, Note_off_c, 0, 77, 64
2, 61320, Note_on_c, 0, 76, 110
2, 61368, Note_off_c, 0, 76, 64
2, 61380, Note_on_c, 0, 74, 110
2, 61380, Note_on_c, 0, 65, 110
2, 61428, Note_off_c, 0, 74, 64
2, 61440, Note_on_c, 0, 77, 110
2, 61476, Note_off_c, 0, 65, 64
2, 61488, Note_off_c, 0, 77, 64
2, 61500, Note_on_c, 0, 76, 110
2, 61548, Note_off_c, 0, 76, 64
2, 61560, Note_on_c, 0, 72, 110
2, 61560, Note_on_c, 0, 64, 110
2, 61608, Note_off_c, 0, 72, 64
2, 61620, Note_on_c, 0, 77, 110
2, 61656, Note_off_c, 0, 64, 64
2, 61668, Note_off_c, 0, 77, 64
2, 61680, Note_on_c, 0, 76, 110
2, 61728, Note_off_c, 0, 76, 64
2, 61740, Note_on_c, 0, 71, 110
2, 61740, Note_on_c, 0, 62, 110
2, 61788, Note_off_c, 0, 71, 64
2, 61800, Note_on_c, 0, 77, 110
2, 61836, Note_off_c, 0, 62, 64
2, 61848, Note_off_c, 0, 77, 64
2, 61860, Note_on_c, 0, 76, 110
2, 61908, Note_off_c, 0, 76, 64
2, 61920, Note_on_c, 0, 69, 110
2, 61920, Note_on_c, 0, 60, 110
2, 61968, Note_off_c, 0, 69, 64
2, 61980, Note_on_c, 0, 77, 110
2, 62016, Note_off_c, 0, 60, 64
2, 62028, Note_off_c, 0, 77, 64
2, 62040, Note_on_c, 0, 76, 110
2, 62088, Note_off_c, 0, 76, 64
2, 62100, Note_on_c, 0, 68, 110
2, 62148, Note_off_c, 0, 68, 64
2, 62160, Note_on_c, 0, 69, 110
2, 62208, Note_off_c, 0, 69, 64
2, 62220, Note_on_c, 0, 71, 110
2, 62268, Note_off_c, 0, 71, 64
2, 62280, Note_on_c, 0, 73, 110
2, 62328, Note_off_c, 0, 73, 64
2, 62340, Note_on_c, 0, 74, 110
2, 62388, Note_off_c, 0, 74, 64
2, 62400, Note_on_c, 0, 76, 110
2, 62448, Note_off_c, 0, 76, 64
2, 62460, Note_on_c, 0, 70, 110
2, 62508, Note_off_c, 0, 70, 64
2, 62520, Note_on_c, 0, 69, 110
2, 62568, Note_off_c, 0, 69, 64
2, 62580, Note_on_c, 0, 67, 110
2, 62628, Note_off_c, 0, 67, 64
2, 62640, Note_on_c, 0, 65, 110
2, 62640, Note_on_c, 0, 64, 110
2, 62664, Note_off_c, 0, 64, 64
2, 62670, Note_on_c, 0, 62, 110
2, 62694, Note_off_c, 0, 62, 64
2, 62700, Note_on_c, 0, 64, 110
2, 62724, Note_off_c, 0, 64, 64
2, 62730, Note_on_c, 0, 62, 110
2, 62736, Note_off_c, 0, 65, 64
2, 62754, Note_off_c, 0, 62, 64
2, 62760, Note_on_c, 0, 64, 110
2, 62784, Note_off_c, 0, 64, 64
2, 62790, Note_on_c, 0, 62, 110
2, 62814, Note_off_c, 0, 62, 64
2, 62820, Note_on_c, 0, 66, 110
2, 62820, Note_on_c, 0, 64, 110
2, 62844, Note_off_c, 0, 64, 64
2, 62850, Note_on_c, 0, 62, 110
2, 62874, Note_off_c, 0, 62, 64
2, 62880, Note_on_c, 0, 64, 110
2, 62904, Note_off_c, 0, 64, 64
2, 62910, Note_on_c, 0, 62, 110
2, 62916, Note_off_c, 0, 66, 64
2, 62934, Note_off_c, 0, 62, 64
2, 62940, Note_on_c, 0, 64, 110
2, 62964, Note_off_c, 0, 64, 64
2, 62970, Note_on_c, 0, 62, 110
2, 62994, Note_off_c, 0, 62, 64
2, 63000, Note_on_c, 0, 67, 110
2, 63000, Note_on_c, 0, 64, 110
2, 63024, Note_off_c, 0, 64, 64
2, 63030, Note_on_c, 0, 62, 110
2, 63054, Note_off_c, 0, 62, 64
2, 63060, Note_on_c, 0, 64, 110
2, 63084, Note_off_c, 0, 64, 64
2, 63090, Note_on_c, 0, 62, 110
2, 63096, Note_off_c, 0, 67, 64
2, 63114, Note_off_c, 0, 62, 64
2, 63120, Note_on_c, 0, 64, 110
2, 63144, Note_off_c, 0, 64, 64
2, 63150, Note_on_c, 0, 62, 110
2, 63174, Note_off_c, 0, 62, 64
2, 63180, Note_on_c, 0, 64, 110
2, 63180, Note_on_c, 0, 69, 110
2, 63204, Note_off_c, 0, 64, 64
2, 63210, Note_on_c, 0, 62, 110
2, 63234, Note_off_c, 0, 62, 64
2, 63240, Note_on_c, 0, 64, 110
2, 63264, Note_off_c, 0, 64, 64
2, 63270, Note_on_c, 0, 62, 110
2, 63276, Note_off_c, 0, 69, 64
2, 63294, Note_off_c, 0, 62, 64
2, 63300, Note_on_c, 0, 64, 110
2, 63324, Note_off_c, 0, 64, 64
2, 63330, Note_on_c, 0, 62, 110
2, 63360, Note_on_c, 0, 70, 110
2, 63456, Note_off_c, 0, 70, 64
2, 63456, Note_off_c, 0, 62, 64
2, 63540, Note_on_c, 0, 63, 110
2, 63540, Note_on_c, 0, 72, 110
2, 63636, Note_off_c, 0, 72, 64
2, 63636, Note_off_c, 0, 63, 64
2, 63720, Note_on_c, 0, 74, 110
2, 63720, Note_on_c, 0, 65, 110
2, 63816, Note_off_c, 0, 65, 64
2, 63816, Note_off_c, 0, 74, 64
2, 63900, Note_on_c, 0, 62, 110
2, 63900, Note_on_c, 0, 71, 110
2, 63996, Note_off_c, 0, 71, 64
2, 63996, Note_off_c, 0, 62, 64
2, 64080, Note_on_c, 0, 67, 110
2, 64080, Note_on_c, 0, 73, 110
2, 64176, Note_off_c, 0, 73, 64
2, 64176, Note_off_c, 0, 67, 64
2, 64260, Note_on_c, 0, 74, 110
2, 64260, Note_on_c, 0, 65, 110
2, 64356, Note_off_c, 0, 65, 64
2, 64356, Note_off_c, 0, 74, 64
2, 64440, Note_on_c, 0, 76, 110
2, 64440, Note_on_c, 0, 67, 110
2, 64536, Note_off_c, 0, 67, 64
2, 64536, Note_off_c, 0, 76, 64
2, 64620, Note_on_c, 0, 64, 110
2, 64620, Note_on_c, 0, 73, 110
2, 64716, Note_off_c, 0, 73, 64
2, 64716, Note_off_c, 0, 64, 64
2, 64800, Note_on_c, 0, 76, 110
2, 64800, Note_on_c, 0, 69, 110
2, 64824, Note_off_c, 0, 76, 64
2, 64830, Note_on_c, 0, 74, 110
2, 64854, Note_off_c, 0, 74, 64
2, 64860, Note_on_c, 0, 76, 110
2, 64884, Note_off_c, 0, 76, 64
2, 64890, Note_on_c, 0, 74, 110
2, 64896, Note_off_c, 0, 69, 64
2, 64914, Note_off_c, 0, 74, 64
2, 64920, Note_on_c, 0, 76, 110
2, 64944, Note_off_c, 0, 76, 64
2, 64950, Note_on_c, 0, 74, 110
2, 64974, Note_off_c, 0, 74, 64
2, 64980, Note_on_c, 0, 76, 110
2, 65004, Note_off_c, 0, 76, 64
2, 65010, Note_on_c, 0, 74, 110
2, 65034, Note_off_c, 0, 74, 64
2, 65040, Note_on_c, 0, 76, 110
2, 65064, Note_off_c, 0, 76, 64
2, 65070, Note_on_c, 0, 74, 110
2, 65094, Note_off_c, 0, 74, 64
2, 65100, Note_on_c, 0, 76, 110
2, 65124, Note_off_c, 0, 76, 64
2, 65130, Note_on_c, 0, 74, 110
2, 65154, Note_off_c, 0, 74, 64
2, 65160, Note_on_c, 0, 76, 110
2, 65184, Note_off_c, 0, 76, 64
2, 65190, Note_on_c, 0, 74, 110
2, 65214, Note_off_c, 0, 74, 64
2, 65220, Note_on_c, 0, 76, 110
2, 65244, Note_off_c, 0, 76, 64
2, 65250, Note_on_c, 0, 74, 110
2, 65274, Note_off_c, 0, 74, 64
2, 65280, Note_on_c, 0, 76, 110
2, 65304, Note_off_c, 0, 76, 64
2, 65310, Note_on_c, 0, 74, 110
2, 65334, Note_off_c, 0, 74, 64
2, 65340, Note_on_c, 0, 76, 110
2, 65364, Note_off_c, 0, 76, 64
2, 65370, Note_on_c, 0, 74, 110
2, 65394, Note_off_c, 0, 74, 64
2, 65400, Note_on_c, 0, 76, 110
2, 65424, Note_off_c, 0, 76, 64
2, 65430, Note_on_c, 0, 74, 110
2, 65454, Note_off_c, 0, 74, 64
2, 65460, Note_on_c, 0, 76, 110
2, 65484, Note_off_c, 0, 76, 64
2, 65490, Note_on_c, 0, 74, 110
2, 65616, Note_off_c, 0, 74, 64
2, 66240, Note_on_c, 0, 81, 110
2, 66288, Note_off_c, 0, 81, 64
2, 66300, Note_on_c, 0, 82, 110
2, 66348, Note_off_c, 0, 82, 64
2, 66360, Note_on_c, 0, 81, 110
2, 66408, Note_off_c, 0, 81, 64
2, 66420, Note_on_c, 0, 79, 110
2, 66468, Note_off_c, 0, 79, 64
2, 66480, Note_on_c, 0, 82, 110
2, 66528, Note_off_c, 0, 82, 64
2, 66540, Note_on_c, 0, 81, 110
2, 66588, Note_off_c, 0, 81, 64
2, 66600, Note_on_c, 0, 77, 110
2, 66648, Note_off_c, 0, 77, 64
2, 66660, Note_on_c, 0, 82, 110
2, 66708, Note_off_c, 0, 82, 64
2, 66720, Note_on_c, 0, 81, 110
2, 66768, Note_off_c, 0, 81, 64
2, 66780, Note_on_c, 0, 76, 110
2, 66828, Note_off_c, 0, 76, 64
2, 66840, Note_on_c, 0, 82, 110
2, 66888, Note_off_c, 0, 82, 64
2, 66900, Note_on_c, 0, 81, 110
2, 66948, Note_off_c, 0, 81, 64
2, 66960, Note_on_c, 0, 74, 110
2, 67008, Note_off_c, 0, 74, 64
2, 67020, Note_on_c, 0, 82, 110
2, 67068, Note_off_c, 0, 82, 64
2, 67080, Note_on_c, 0, 81, 110
2, 67128, Note_off_c, 0, 81, 64
2, 67140, Note_on_c, 0, 73, 110
2, 67188, Note_off_c, 0, 73, 64
2, 67200, Note_on_c, 0, 74, 110
2, 67248, Note_off_c, 0, 74, 64
2, 67260, Note_on_c, 0, 76, 110
2, 67308, Note_off_c, 0, 76, 64
2, 67320, Note_on_c, 0, 78, 110
2, 67368, Note_off_c, 0, 78, 64
2, 67380, Note_on_c, 0, 79, 110
2, 67428, Note_off_c, 0, 79, 64
2, 67440, Note_on_c, 0, 81, 110
2, 67488, Note_off_c, 0, 81, 64
2, 67500, Note_on_c, 0, 75, 110
2, 67548, Note_off_c, 0, 75, 64
2, 67560, Note_on_c, 0, 74, 110
2, 67608, Note_off_c, 0, 74, 64
2, 67620, Note_on_c, 0, 72, 110
2, 67668, Note_off_c, 0, 72, 64
2, 67680, Note_on_c, 0, 71, 110
2, 67728, Note_off_c, 0, 71, 64
2, 67740, Note_on_c, 0, 69, 110
2, 67788, Note_off_c, 0, 69, 64
2, 67800, Note_on_c, 0, 68, 110
2, 67848, Note_off_c, 0, 68, 64
2, 67860, Note_on_c, 0, 75, 110
2, 67908, Note_off_c, 0, 75, 64
2, 67920, Note_on_c, 0, 76, 110
2, 67968, Note_off_c, 0, 76, 64
2, 67980, Note_on_c, 0, 78, 110
2, 68028, Note_off_c, 0, 78, 64
2, 68040, Note_on_c, 0, 80, 110
2, 68088, Note_off_c, 0, 80, 64
2, 68100, Note_on_c, 0, 81, 110
2, 68148, Note_off_c, 0, 81, 64
2, 68160, Note_on_c, 0, 83, 110
2, 68208, Note_off_c, 0, 83, 64
2, 68220, Note_on_c, 0, 77, 110
2, 68268, Note_off_c, 0, 77, 64
2, 68280, Note_on_c, 0, 76, 110
2, 68328, Note_off_c, 0, 76, 64
2, 68340, Note_on_c, 0, 74, 110
2, 68388, Note_off_c, 0, 74, 64
2, 68400, Note_on_c, 0, 73, 110
2, 68448, Note_off_c, 0, 73, 64
2, 68460, Note_on_c, 0, 74, 110
2, 68508, Note_off_c, 0, 74, 64
2, 68520, Note_on_c, 0, 76, 110
2, 68568, Note_off_c, 0, 76, 64
2, 68580, Note_on_c, 0, 70, 110
2, 68628, Note_off_c, 0, 70, 64
2, 68640, Note_on_c, 0, 69, 110
2, 68688, Note_off_c, 0, 69, 64
2, 68700, Note_on_c, 0, 67, 110
2, 68748, Note_off_c, 0, 67, 64
2, 68760, Note_on_c, 0, 66, 110
2, 68808, Note_off_c, 0, 66, 64
2, 68820, Note_on_c, 0, 67, 110
2, 68868, Note_off_c, 0, 67, 64
2, 68880, Note_on_c, 0, 69, 110
2, 68928, Note_off_c, 0, 69, 64
2, 68940, Note_on_c, 0, 65, 110
2, 68988, Note_off_c, 0, 65, 64
2, 69000, Note_on_c, 0, 64, 110
2, 69048, Note_off_c, 0, 64, 64
2, 69060, Note_on_c, 0, 62, 110
2, 69108, Note_off_c, 0, 62, 64
2, 69120, Note_on_c, 0, 58, 110
2, 69120, Note_on_c, 0, 61, 110
2, 69144, Note_off_c, 0, 58, 64
2, 69150, Note_on_c, 0, 57, 110
2, 69174, Note_off_c, 0, 57, 64
2, 69180, Note_on_c, 0, 58, 110
2, 69204, Note_off_c, 0, 58, 64
2, 69210, Note_on_c, 0, 57, 110
2, 69234, Note_off_c, 0, 57, 64
2, 69240, Note_on_c, 0, 58, 110
2, 69264, Note_off_c, 0, 58, 64
2, 69270, Note_on_c, 0, 57, 110
2, 69294, Note_off_c, 0, 57, 64
2, 69300, Note_on_c, 0, 58, 110
2, 69324, Note_off_c, 0, 58, 64
2, 69330, Note_on_c, 0, 57, 110
2, 69354, Note_off_c, 0, 57, 64
2, 69360, Note_on_c, 0, 58, 110
2, 69384, Note_off_c, 0, 58, 64
2, 69390, Note_on_c, 0, 57, 110
2, 69408, Note_off_c, 0, 61, 64
2, 69414, Note_off_c, 0, 57, 64
2, 69420, Note_on_c, 0, 58, 110
2, 69444, Note_off_c, 0, 58, 64
2, 69450, Note_on_c, 0, 57, 110
2, 69474, Note_off_c, 0, 57, 64
2, 69480, Note_on_c, 0, 62, 110
2, 69480, Note_on_c, 0, 58, 110
2, 69504, Note_off_c, 0, 58, 64
2, 69510, Note_on_c, 0, 57, 110
2, 69534, Note_off_c, 0, 57, 64
2, 69540, Note_on_c, 0, 58, 110
2, 69564, Note_off_c, 0, 58, 64
2, 69570, Note_on_c, 0, 57, 110
2, 69576, Note_off_c, 0, 62, 64
2, 69594, Note_off_c, 0, 57, 64
2, 69600, Note_on_c, 0, 58, 110
2, 69624, Note_off_c, 0, 58, 64
2, 69630, Note_on_c, 0, 57, 110
2, 69654, Note_off_c, 0, 57, 64
2, 69660, Note_on_c, 0, 64, 110
2, 69660, Note_on_c, 0, 58, 110
2, 69684, Note_off_c, 0, 58, 64
2, 69690, Note_on_c, 0, 57, 110
2, 69714, Note_off_c, 0, 57, 64
2, 69720, Note_on_c, 0, 58, 110
2, 69744, Note_off_c, 0, 58, 64
2, 69750, Note_on_c, 0, 57, 110
2, 69756, Note_off_c, 0, 64, 64
2, 69774, Note_off_c, 0, 57, 64
2, 69780, Note_on_c, 0, 58, 110
2, 69804, Note_off_c, 0, 58, 64
2, 69810, Note_on_c, 0, 57, 110
2, 69840, Note_on_c, 0, 65, 110
2, 69936, Note_off_c, 0, 65, 64
2, 69936, Note_off_c, 0, 57, 64
2, 70020, Note_on_c, 0, 70, 110
2, 70020, Note_on_c, 0, 67, 110
2, 70116, Note_off_c, 0, 67, 64
2, 70116, Note_off_c, 0, 70, 64
2, 70200, Note_on_c, 0, 69, 110
2, 70200, Note_on_c, 0, 62, 110
2, 70296, Note_off_c, 0, 62, 64
2, 70296, Note_off_c, 0, 69, 64
2, 70380, Note_on_c, 0, 72, 110
2, 70380, Note_on_c, 0, 69, 110
2, 70476, Note_off_c, 0, 69, 64
2, 70476, Note_off_c, 0, 72, 64
2, 70560, Note_on_c, 0, 64, 110
2, 70560, Note_on_c, 0, 71, 110
2, 70656, Note_off_c, 0, 71, 64
2, 70656, Note_off_c, 0, 64, 64
2, 70740, Note_on_c, 0, 74, 110
2, 70740, Note_on_c, 0, 77, 110
2, 70788, Note_off_c, 0, 77, 64
2, 70800, Note_on_c, 0, 76, 110
2, 70836, Note_off_c, 0, 74, 64
2, 70848, Note_off_c, 0, 76, 64
2, 70860, Note_on_c, 0, 74, 110
2, 70908, Note_off_c, 0, 74, 64
2, 70920, Note_on_c, 0, 69, 110
2, 70920, Note_on_c, 0, 76, 110
2, 70968, Note_off_c, 0, 76, 64
2, 70980, Note_on_c, 0, 77, 110
2, 71016, Note_off_c, 0, 69, 64
2, 71028, Note_off_c, 0, 77, 64
2, 71040, Note_on_c, 0, 79, 110
2, 71088, Note_off_c, 0, 79, 64
2, 71100, Note_on_c, 0, 79, 110
2, 71100, Note_on_c, 0, 73, 110
2, 71148, Note_off_c, 0, 79, 64
2, 71160, Note_on_c, 0, 81, 110
2, 71196, Note_off_c, 0, 73, 64
2, 71208, Note_off_c, 0, 81, 64
2, 71220, Note_on_c, 0, 82, 110
2, 71268, Note_off_c, 0, 82, 64
2, 71280, Note_on_c, 0, 82, 110
2, 71280, Note_on_c, 0, 74, 110
2, 71304, Note_off_c, 0, 82, 64
2, 71310, Note_on_c, 0, 81, 110
2, 71334, Note_off_c, 0, 81, 64
2, 71340, Note_on_c, 0, 82, 110
2, 71364, Note_off_c, 0, 82, 64
2, 71370, Note_on_c, 0, 81, 110
2, 71376, Note_off_c, 0, 74, 64
2, 71394, Note_off_c, 0, 81, 64
2, 71400, Note_on_c, 0, 82, 110
2, 71424, Note_off_c, 0, 82, 64
2, 71430, Note_on_c, 0, 81, 110
2, 71454, Note_off_c, 0, 81, 64
2, 71460, Note_on_c, 0, 82, 110
2, 71484, Note_off_c, 0, 82, 64
2, 71490, Note_on_c, 0, 81, 110
2, 71514, Note_off_c, 0, 81, 64
2, 71520, Note_on_c, 0, 82, 110
2, 71544, Note_off_c, 0, 82, 64
2, 71550, Note_on_c, 0, 81, 110
2, 71574, Note_off_c, 0, 81, 64
2, 71580, Note_on_c, 0, 82, 110
2, 71604, Note_off_c, 0, 82, 64
2, 71610, Note_on_c, 0, 81, 110
2, 71634, Note_off_c, 0, 81, 64
2, 71640, Note_on_c, 0, 82, 110
2, 71664, Note_off_c, 0, 82, 64
2, 71670, Note_on_c, 0, 81, 110
2, 71694, Note_off_c, 0, 81, 64
2, 71700, Note_on_c, 0, 82, 110
2, 71724, Note_off_c, 0, 82, 64
2, 71730, Note_on_c, 0, 81, 110
2, 71754, Note_off_c, 0, 81, 64
2, 71760, Note_on_c, 0, 82, 110
2, 71784, Note_off_c, 0, 82, 64
2, 71790, Note_on_c, 0, 81, 110
2, 71814, Note_off_c, 0, 81, 64
2, 71820, Note_on_c, 0, 82, 110
2, 71844, Note_off_c, 0, 82, 64
2, 71850, Note_on_c, 0, 81, 110
2, 71874, Note_off_c, 0, 81, 64
2, 71880, Note_on_c, 0, 82, 110
2, 71904, Note_off_c, 0, 82, 64
2, 71910, Note_on_c, 0, 81, 110
2, 71934, Note_off_c, 0, 81, 64
2, 71940, Note_on_c, 0, 82, 110
2, 71964, Note_off_c, 0, 82, 64
2, 71970, Note_on_c, 0, 81, 110
2, 71994, Note_off_c, 0, 81, 64
2, 72000, Note_on_c, 0, 82, 110
2, 72024, Note_off_c, 0, 82, 64
2, 72030, Note_on_c, 0, 81, 110
2, 72054, Note_off_c, 0, 81, 64
2, 72060, Note_on_c, 0, 82, 110
2, 72084, Note_off_c, 0, 82, 64
2, 72090, Note_on_c, 0, 81, 110
2, 72114, Note_off_c, 0, 81, 64
2, 72120, Note_on_c, 0, 82, 110
2, 72144, Note_off_c, 0, 82, 64
2, 72150, Note_on_c, 0, 81, 110
2, 72174, Note_off_c, 0, 81, 64
2, 72180, Note_on_c, 0, 82, 110
2, 72204, Note_off_c, 0, 82, 64
2, 72210, Note_on_c, 0, 81, 110
2, 72234, Note_off_c, 0, 81, 64
2, 72240, Note_on_c, 0, 82, 110
2, 72264, Note_off_c, 0, 82, 64
2, 72270, Note_on_c, 0, 81, 110
2, 72294, Note_off_c, 0, 81, 64
2, 72300, Note_on_c, 0, 82, 110
2, 72324, Note_off_c, 0, 82, 64
2, 72330, Note_on_c, 0, 81, 110
2, 72354, Note_off_c, 0, 81, 64
2, 72360, Note_on_c, 0, 82, 110
2, 72384, Note_off_c, 0, 82, 64
2, 72390, Note_on_c, 0, 81, 110
2, 72414, Note_off_c, 0, 81, 64
2, 72420, Note_on_c, 0, 82, 110
2, 72444, Note_off_c, 0, 82, 64
2, 72450, Note_on_c, 0, 81, 110
2, 72474, Note_off_c, 0, 81, 64
2, 72480, Note_on_c, 0, 82, 110
2, 72504, Note_off_c, 0, 82, 64
2, 72510, Note_on_c, 0, 81, 110
2, 72534, Note_off_c, 0, 81, 64
2, 72540, Note_on_c, 0, 82, 110
2, 72564, Note_off_c, 0, 82, 64
2, 72570, Note_on_c, 0, 81, 110
2, 72594, Note_off_c, 0, 81, 64
2, 72600, Note_on_c, 0, 82, 110
2, 72624, Note_off_c, 0, 82, 64
2, 72630, Note_on_c, 0, 81, 110
2, 72654, Note_off_c, 0, 81, 64
2, 72660, Note_on_c, 0, 82, 110
2, 72684, Note_off_c, 0, 82, 64
2, 72690, Note_on_c, 0, 81, 110
2, 72714, Note_off_c, 0, 81, 64
2, 72720, Note_on_c, 0, 82, 110
2, 72744, Note_off_c, 0, 82, 64
2, 72750, Note_on_c, 0, 81, 110
2, 72774, Note_off_c, 0, 81, 64
2, 72780, Note_on_c, 0, 82, 110
2, 72804, Note_off_c, 0, 82, 64
2, 72810, Note_on_c, 0, 81, 110
2, 72834, Note_off_c, 0, 81, 64
2, 72840, Note_on_c, 0, 82, 110
2, 72864, Note_off_c, 0, 82, 64
2, 72870, Note_on_c, 0, 81, 110
2, 72894, Note_off_c, 0, 81, 64
2, 72900, Note_on_c, 0, 82, 110
2, 72924, Note_off_c, 0, 82, 64
2, 72930, Note_on_c, 0, 81, 110
2, 72954, Note_off_c, 0, 81, 64
2, 72960, Note_on_c, 0, 82, 110
2, 72984, Note_off_c, 0, 82, 64
2, 72990, Note_on_c, 0, 81, 110
2, 73014, Note_off_c, 0, 81, 64
2, 73020, Note_on_c, 0, 82, 110
2, 73044, Note_off_c, 0, 82, 64
2, 73050, Note_on_c, 0, 81, 110
2, 73074, Note_off_c, 0, 81, 64
2, 73080, Note_on_c, 0, 82, 110
2, 73104, Note_off_c, 0, 82, 64
2, 73110, Note_on_c, 0, 81, 110
2, 73134, Note_off_c, 0, 81, 64
2, 73140, Note_on_c, 0, 82, 110
2, 73164, Note_off_c, 0, 82, 64
2, 73170, Note_on_c, 0, 81, 110
2, 73194, Note_off_c, 0, 81, 64
2, 73200, Note_on_c, 0, 82, 110
2, 73224, Note_off_c, 0, 82, 64
2, 73230, Note_on_c, 0, 81, 110
2, 73254, Note_off_c, 0, 81, 64
2, 73260, Note_on_c, 0, 82, 110
2, 73284, Note_off_c, 0, 82, 64
2, 73290, Note_on_c, 0, 81, 110
2, 73314, Note_off_c, 0, 81, 64
2, 73320, Note_on_c, 0, 82, 110
2, 73344, Note_off_c, 0, 82, 64
2, 73350, Note_on_c, 0, 81, 110
2, 73374, Note_off_c, 0, 81, 64
2, 73380, Note_on_c, 0, 82, 110
2, 73404, Note_off_c, 0, 82, 64
2, 73410, Note_on_c, 0, 81, 110
2, 73488, Note_off_c, 0, 81, 64
2, 73500, Note_on_c, 0, 82, 110
2, 73548, Note_off_c, 0, 82, 64
2, 73560, Note_on_c, 0, 81, 110
2, 73608, Note_off_c, 0, 81, 64
2, 73620, Note_on_c, 0, 79, 110
2, 73668, Note_off_c, 0, 79, 64
2, 73680, Note_on_c, 0, 82, 110
2, 73728, Note_off_c, 0, 82, 64
2, 73740, Note_on_c, 0, 81, 110
2, 73788, Note_off_c, 0, 81, 64
2, 73800, Note_on_c, 0, 77, 110
2, 73848, Note_off_c, 0, 77, 64
2, 73860, Note_on_c, 0, 82, 110
2, 73908, Note_off_c, 0, 82, 64
2, 73920, Note_on_c, 0, 81, 110
2, 73968, Note_off_c, 0, 81, 64
2, 73980, Note_on_c, 0, 76, 110
2, 74028, Note_off_c, 0, 76, 64
2, 74040, Note_on_c, 0, 82, 110
2, 74088, Note_off_c, 0, 82, 64
2, 74100, Note_on_c, 0, 81, 110
2, 74148, Note_off_c, 0, 81, 64
2, 74160, Note_on_c, 0, 74, 110
2, 74208, Note_off_c, 0, 74, 64
2, 74220, Note_on_c, 0, 82, 110
2, 74268, Note_off_c, 0, 82, 64
2, 74280, Note_on_c, 0, 81, 110
2, 74328, Note_off_c, 0, 81, 64
2, 74340, Note_on_c, 0, 73, 110
2, 74388, Note_off_c, 0, 73, 64
2, 74400, Note_on_c, 0, 74, 110
2, 74448, Note_off_c, 0, 74, 64
2, 74460, Note_on_c, 0, 76, 110
2, 74508, Note_off_c, 0, 76, 64
2, 74520, Note_on_c, 0, 77, 110
2, 74568, Note_off_c, 0, 77, 64
2, 74580, Note_on_c, 0, 79, 110
2, 74628, Note_off_c, 0, 79, 64
2, 74640, Note_on_c, 0, 81, 110
2, 74688, Note_off_c, 0, 81, 64
2, 74700, Note_on_c, 0, 75, 110
2, 74748, Note_off_c, 0, 75, 64
2, 74760, Note_on_c, 0, 74, 110
2, 74808, Note_off_c, 0, 74, 64
2, 74820, Note_on_c, 0, 72, 110
2, 74868, Note_off_c, 0, 72, 64
2, 74880, Note_on_c, 0, 74, 110
2, 74928, Note_off_c, 0, 74, 64
2, 74940, Note_on_c, 0, 73, 110
2, 74988, Note_off_c, 0, 73, 64
2, 75000, Note_on_c, 0, 74, 110
2, 75048, Note_off_c, 0, 74, 64
2, 75060, Note_on_c, 0, 64, 110
2, 75108, Note_off_c, 0, 64, 64
2, 75120, Note_on_c, 0, 73, 110
2, 75168, Note_off_c, 0, 73, 64
2, 75180, Note_on_c, 0, 74, 110
2, 75228, Note_off_c, 0, 74, 64
2, 75240, Note_on_c, 0, 65, 110
2, 75288, Note_off_c, 0, 65, 64
2, 75300, Note_on_c, 0, 73, 110
2, 75348, Note_off_c, 0, 73, 64
2, 75360, Note_on_c, 0, 74, 110
2, 75408, Note_off_c, 0, 74, 64
2, 75420, Note_on_c, 0, 67, 110
2, 75468, Note_off_c, 0, 67, 64
2, 75480, Note_on_c, 0, 73, 110
2, 75528, Note_off_c, 0, 73, 64
2, 75540, Note_on_c, 0, 74, 110
2, 75588, Note_off_c, 0, 74, 64
2, 75600, Note_on_c, 0, 69, 110
2, 75648, Note_off_c, 0, 69, 64
2, 75660, Note_on_c, 0, 73, 110
2, 75708, Note_off_c, 0, 73, 64
2, 75720, Note_on_c, 0, 74, 110
2, 75768, Note_off_c, 0, 74, 64
2, 75780, Note_on_c, 0, 70, 110
2, 75828, Note_off_c, 0, 70, 64
2, 75840, Note_on_c, 0, 69, 110
2, 75888, Note_off_c, 0, 69, 64
2, 75900, Note_on_c, 0, 67, 110
2, 75948, Note_off_c, 0, 67, 64
2, 75960, Note_on_c, 0, 65, 110
2, 76008, Note_off_c, 0, 65, 64
2, 76020, Note_on_c, 0, 64, 110
2, 76068, Note_off_c, 0, 64, 64
2, 76080, Note_on_c, 0, 62, 110
2, 76128, Note_off_c, 0, 62, 64
2, 76140, Note_on_c, 0, 77, 110
2, 76188, Note_off_c, 0, 77, 64
2, 76200, Note_on_c, 0, 76, 110
2, 76248, Note_off_c, 0, 76, 64
2, 76260, Note_on_c, 0, 74, 110
2, 76308, Note_off_c, 0, 74, 64
2, 76320, Note_on_c, 0, 64, 110
2, 76320, Note_on_c, 0, 73, 110
2, 76368, Note_off_c, 0, 73, 64
2, 76368, Note_off_c, 0, 64, 64
2, 76380, Note_on_c, 0, 71, 110
2, 76380, Note_on_c, 0, 65, 110
2, 76428, Note_off_c, 0, 65, 64
2, 76428, Note_off_c, 0, 71, 64
2, 76440, Note_on_c, 0, 69, 110
2, 76440, Note_on_c, 0, 67, 110
2, 76488, Note_off_c, 0, 67, 64
2, 76488, Note_off_c, 0, 69, 64
2, 76500, Note_on_c, 0, 82, 110
2, 76500, Note_on_c, 0, 69, 110
2, 76548, Note_off_c, 0, 69, 64
2, 76548, Note_off_c, 0, 82, 64
2, 76560, Note_on_c, 0, 71, 110
2, 76560, Note_on_c, 0, 81, 110
2, 76608, Note_off_c, 0, 81, 64
2, 76608, Note_off_c, 0, 71, 64
2, 76620, Note_on_c, 0, 79, 110
2, 76620, Note_on_c, 0, 73, 110
2, 76668, Note_off_c, 0, 73, 64
2, 76668, Note_off_c, 0, 79, 64
2, 76680, Note_on_c, 0, 77, 110
2, 76680, Note_on_c, 0, 74, 110
2, 76728, Note_off_c, 0, 77, 64
2, 76740, Note_on_c, 0, 76, 110
2, 76776, Note_off_c, 0, 74, 64
2, 76788, Note_off_c, 0, 76, 64
2, 76800, Note_on_c, 0, 74, 110
2, 76800, Note_on_c, 0, 72, 110
2, 76800, Note_on_c, 0, 74, 110
2, 76848, Note_off_c, 0, 74, 64
2, 76848, Note_off_c, 0, 72, 64
2, 76860, Note_on_c, 0, 79, 110
2, 76860, Note_on_c, 0, 70, 110
2, 76908, Note_off_c, 0, 70, 64
2, 76908, Note_off_c, 0, 79, 64
2, 76920, Note_on_c, 0, 81, 110
2, 76920, Note_on_c, 0, 69, 110
2, 76968, Note_off_c, 0, 69, 64
2, 76968, Note_off_c, 0, 81, 64
2, 76980, Note_on_c, 0, 67, 110
2, 76980, Note_on_c, 0, 82, 110
2, 77004, Note_off_c, 0, 74, 64
2, 77028, Note_off_c, 0, 67, 64
2, 77040, Note_on_c, 0, 69, 110
2, 77040, Note_on_c, 0, 73, 110
2, 77088, Note_off_c, 0, 82, 64
2, 77100, Note_on_c, 0, 81, 110
2, 77136, Note_off_c, 0, 73, 64
2, 77136, Note_off_c, 0, 69, 64
2, 77148, Note_off_c, 0, 81, 64
2, 77160, Note_on_c, 0, 82, 110
2, 77220, Note_on_c, 0, 72, 110
2, 77268, Note_off_c, 0, 82, 64
2, 77280, Note_on_c, 0, 80, 110
2, 77316, Note_off_c, 0, 72, 64
2, 77328, Note_off_c, 0, 80, 64
2, 77340, Note_on_c, 0, 81, 110
2, 77400, Note_on_c, 0, 71, 110
2, 77448, Note_off_c, 0, 81, 64
2, 77460, Note_on_c, 0, 80, 110
2, 77496, Note_off_c, 0, 71, 64
2, 77508, Note_off_c, 0, 80, 64
2, 77520, Note_on_c, 0, 81, 110
2, 77580, Note_on_c, 0, 70, 110
2, 77628, Note_off_c, 0, 81, 64
2, 77640, Note_on_c, 0, 78, 110
2, 77676, Note_off_c, 0, 70, 64
2, 77688, Note_off_c, 0, 78, 64
2, 77700, Note_on_c, 0, 79, 110
2, 77760, Note_on_c, 0, 69, 110
2, 77808, Note_off_c, 0, 79, 64
2, 77820, Note_on_c, 0, 78, 110
2, 77856, Note_off_c, 0, 69, 64
2, 77868, Note_off_c, 0, 78, 64
2, 77880, Note_on_c, 0, 79, 110
2, 77940, Note_on_c, 0, 74, 110
2, 77988, Note_off_c, 0, 79, 64
2, 78000, Note_on_c, 0, 76, 110
2, 78036, Note_off_c, 0, 74, 64
2, 78048, Note_off_c, 0, 76, 64
2, 78060, Note_on_c, 0, 77, 110
2, 78120, Note_on_c, 0, 68, 110
2, 78168, Note_off_c, 0, 77, 64
2, 78180, Note_on_c, 0, 76, 110
2, 78216, Note_off_c, 0, 68, 64
2, 78228, Note_off_c, 0, 76, 64
2, 78240, Note_on_c, 0, 77, 110
2, 78288, Note_off_c, 0, 77, 64
2, 78300, Note_on_c, 0, 77, 110
2, 78300, Note_on_c, 0, 67, 110
2, 78348, Note_off_c, 0, 77, 64
2, 78360, Note_on_c, 0, 74, 110
2, 78396, Note_off_c, 0, 67, 64
2, 78408, Note_off_c, 0, 74, 64
2, 78420, Note_on_c, 0, 75, 110
2, 78480, Note_on_c, 0, 66, 110
2, 78528, Note_off_c, 0, 75, 64
2, 78540, Note_on_c, 0, 74, 110
2, 78576, Note_off_c, 0, 66, 64
2, 78588, Note_off_c, 0, 74, 64
2, 78600, Note_on_c, 0, 75, 110
2, 78660, Note_on_c, 0, 65, 110
2, 78708, Note_off_c, 0, 75, 64
2, 78720, Note_on_c, 0, 73, 110
2, 78756, Note_off_c, 0, 65, 64
2, 78768, Note_off_c, 0, 73, 64
2, 78780, Note_on_c, 0, 74, 110
2, 78840, Note_on_c, 0, 64, 110
2, 78888, Note_off_c, 0, 74, 64
2, 78900, Note_on_c, 0, 73, 110
2, 78936, Note_off_c, 0, 64, 64
2, 78948, Note_off_c, 0, 73, 64
2, 78960, Note_on_c, 0, 74, 110
2, 79020, Note_on_c, 0, 67, 110
2, 79068, Note_off_c, 0, 74, 64
2, 79080, Note_on_c, 0, 71, 110
2, 79128, Note_off_c, 0, 71, 64
2, 79140, Note_on_c, 0, 72, 110
2, 79188, Note_off_c, 0, 72, 64
2, 79200, Note_on_c, 0, 74, 110
2, 79248, Note_off_c, 0, 67, 64
2, 79260, Note_on_c, 0, 66, 110
2, 79308, Note_off_c, 0, 66, 64
2, 79320, Note_on_c, 0, 67, 110
2, 79368, Note_off_c, 0, 67, 64
2, 79380, Note_on_c, 0, 69, 110
2, 79428, Note_off_c, 0, 69, 64
2, 79440, Note_on_c, 0, 66, 110
2, 79488, Note_off_c, 0, 66, 64
2, 79500, Note_on_c, 0, 67, 110
2, 79548, Note_off_c, 0, 67, 64
2, 79560, Note_on_c, 0, 70, 110
2, 79608, Note_off_c, 0, 70, 64
2, 79620, Note_on_c, 0, 66, 110
2, 79668, Note_off_c, 0, 66, 64
2, 79680, Note_on_c, 0, 67, 110
2, 79728, Note_off_c, 0, 67, 64
2, 79740, Note_on_c, 0, 72, 110
2, 79788, Note_off_c, 0, 72, 64
2, 79800, Note_on_c, 0, 66, 110
2, 79848, Note_off_c, 0, 66, 64
2, 79860, Note_on_c, 0, 67, 110
2, 79908, Note_off_c, 0, 67, 64
2, 79920, Note_on_c, 0, 74, 110
2, 79968, Note_off_c, 0, 74, 64
2, 79980, Note_on_c, 0, 69, 110
2, 80028, Note_off_c, 0, 69, 64
2, 80040, Note_on_c, 0, 70, 110
2, 80088, Note_off_c, 0, 70, 64
2, 80100, Note_on_c, 0, 72, 110
2, 80148, Note_off_c, 0, 72, 64
2, 80160, Note_on_c, 0, 70, 110
2, 80208, Note_off_c, 0, 70, 64
2, 80220, Note_on_c, 0, 69, 110
2, 80268, Note_off_c, 0, 69, 64
2, 80280, Note_on_c, 0, 67, 110
2, 80328, Note_off_c, 0, 67, 64
2, 80340, Note_on_c, 0, 70, 110
2, 80340, Note_on_c, 0, 70, 110
2, 80370, Note_off_c, 0, 74, 64
2, 80388, Note_off_c, 0, 70, 64
2, 80400, Note_on_c, 0, 64, 110
2, 80436, Note_off_c, 0, 70, 64
2, 80448, Note_off_c, 0, 64, 64
2, 80460, Note_on_c, 0, 69, 110
2, 80460, Note_on_c, 0, 66, 110
2, 80604, Note_off_c, 0, 66, 64
2, 80604, Note_off_c, 0, 69, 64
2, 80604, End_track
3, 0, Start_track
3, 0, Title_t, "J.S. Bach, Edition Kalmus"
3, 0, Program_c, 1, 0
3, 1440, Note_on_c, 1, 57, 110
3, 1488, Note_off_c, 1, 57, 64
3, 1500, Note_on_c, 1, 56, 110
3, 1548, Note_off_c, 1, 56, 64
3, 1560, Note_on_c, 1, 57, 110
3, 1608, Note_off_c, 1, 57, 64
3, 1620, Note_on_c, 1, 59, 110
3, 1668, Note_off_c, 1, 59, 64
3, 1680, Note_on_c, 1, 56, 110
3, 1728, Note_off_c, 1, 56, 64
3, 1740, Note_on_c, 1, 57, 110
3, 1788, Note_off_c, 1, 57, 64
3, 1800, Note_on_c, 1, 64, 110
3, 1848, Note_off_c, 1, 64, 64
3, 1860, Note_on_c, 1, 56, 110
3, 1908, Note_off_c, 1, 56, 64
3, 1920, Note_on_c, 1, 57, 110
3, 1968, Note_off_c, 1, 57, 64
3, 1980, Note_on_c, 1, 62, 110
3, 2028, Note_off_c, 1, 62, 64
3, 2040, Note_on_c, 1, 56, 110
3, 2088, Note_off_c, 1, 56, 64
3, 2100, Note_on_c, 1, 57, 110
3, 2148, Note_off_c, 1, 57, 64
3, 2160, Note_on_c, 1, 64, 110
3, 2208, Note_off_c, 1, 64, 64
3, 2220, Note_on_c, 1, 56, 110
3, 2268, Note_off_c, 1, 56, 64
3, 2280, Note_on_c, 1, 57, 110
3, 2328, Note_off_c, 1, 57, 64
3, 2340, Note_on_c, 1, 65, 110
3, 2388, Note_off_c, 1, 65, 64
3, 2400, Note_on_c, 1, 64, 110
3, 2448, Note_off_c, 1, 64, 64
3, 2460, Note_on_c, 1, 62, 110
3, 2508, Note_off_c, 1, 62, 64
3, 2520, Note_on_c, 1, 60, 110
3, 2568, Note_off_c, 1, 60, 64
3, 2580, Note_on_c, 1, 59, 110
3, 2628, Note_off_c, 1, 59, 64
3, 2640, Note_on_c, 1, 57, 110
3, 2688, Note_off_c, 1, 57, 64
3, 2700, Note_on_c, 1, 63, 110
3, 2748, Note_off_c, 1, 63, 64
3, 2760, Note_on_c, 1, 64, 110
3, 2808, Note_off_c, 1, 64, 64
3, 2820, Note_on_c, 1, 66, 110
3, 2868, Note_off_c, 1, 66, 64
3, 2880, Note_on_c, 1, 64, 110
3, 2976, Note_off_c, 1, 64, 64
3, 3060, Note_on_c, 1, 63, 110
3, 3108, Note_off_c, 1, 63, 64
3, 3120, Note_on_c, 1, 62, 110
3, 3168, Note_off_c, 1, 62, 64
3, 3180, Note_on_c, 1, 60, 110
3, 3228, Note_off_c, 1, 60, 64
3, 3240, Note_on_c, 1, 58, 110
3, 3288, Note_off_c, 1, 58, 64
3, 3300, Note_on_c, 1, 57, 110
3, 3348, Note_off_c, 1, 57, 64
3, 3360, Note_on_c, 1, 55, 110
3, 3408, Note_off_c, 1, 55, 64
3, 3420, Note_on_c, 1, 61, 110
3, 3468, Note_off_c, 1, 61, 64
3, 3480, Note_on_c, 1, 62, 110
3, 3528, Note_off_c, 1, 62, 64
3, 3540, Note_on_c, 1, 64, 110
3, 3588, Note_off_c, 1, 64, 64
3, 3600, Note_on_c, 1, 50, 110
3, 3648, Note_off_c, 1, 50, 64
3, 3660, Note_on_c, 1, 49, 110
3, 3708, Note_off_c, 1, 49, 64
3, 3720, Note_on_c, 1, 50, 110
3, 3768, Note_off_c, 1, 50, 64
3, 3780, Note_on_c, 1, 52, 110
3, 3828, Note_off_c, 1, 52, 64
3, 3840, Note_on_c, 1, 49, 110
3, 3888, Note_off_c, 1, 49, 64
3, 3900, Note_on_c, 1, 50, 110
3, 3948, Note_off_c, 1, 50, 64
3, 3960, Note_on_c, 1, 53, 110
3, 4008, Note_off_c, 1, 53, 64
3, 4020, Note_on_c, 1, 49, 110
3, 4068, Note_off_c, 1, 49, 64
3, 4080, Note_on_c, 1, 50, 110
3, 4128, Note_off_c, 1, 50, 64
3, 4140, Note_on_c, 1, 55, 110
3, 4188, Note_off_c, 1, 55, 64
3, 4200, Note_on_c, 1, 49, 110
3, 4248, Note_off_c, 1, 49, 64
3, 4260, Note_on_c, 1, 50, 110
3, 4308, Note_off_c, 1, 50, 64
3, 4320, Note_on_c, 1, 57, 110
3, 4368, Note_off_c, 1, 57, 64
3, 4380, Note_on_c, 1, 49, 110
3, 4428, Note_off_c, 1, 49, 64
3, 4440, Note_on_c, 1, 50, 110
3, 4488, Note_off_c, 1, 50, 64
3, 4500, Note_on_c, 1, 58, 110
3, 4548, Note_off_c, 1, 58, 64
3, 4560, Note_on_c, 1, 57, 110
3, 4608, Note_off_c, 1, 57, 64
3, 4620, Note_on_c, 1, 55, 110
3, 4668, Note_off_c, 1, 55, 64
3, 4680, Note_on_c, 1, 53, 110
3, 4728, Note_off_c, 1, 53, 64
3, 4740, Note_on_c, 1, 52, 110
3, 4788, Note_off_c, 1, 52, 64
3, 4800, Note_on_c, 1, 50, 110
3, 4848, Note_off_c, 1, 50, 64
3, 4860, Note_on_c, 1, 56, 110
3, 4908, Note_off_c, 1, 56, 64
3, 4920, Note_on_c, 1, 57, 110
3, 4968, Note_off_c, 1, 57, 64
3, 4980, Note_on_c, 1, 59, 110
3, 5028, Note_off_c, 1, 59, 64
3, 5040, Note_on_c, 1, 65, 110
3, 5040, Note_on_c, 1, 60, 110
3, 5064, Note_off_c, 1, 65, 64
3, 5070, Note_on_c, 1, 64, 110
3, 5094, Note_off_c, 1, 64, 64
3, 5100, Note_on_c, 1, 65, 110
3, 5124, Note_off_c, 1, 65, 64
3, 5130, Note_on_c, 1, 64, 110
3, 5136, Note_off_c, 1, 60, 64
3, 5154, Note_off_c, 1, 64, 64
3, 5160, Note_on_c, 1, 65, 110
3, 5184, Note_off_c, 1, 65, 64
3, 5190, Note_on_c, 1, 64, 110
3, 5214, Note_off_c, 1, 64, 64
3, 5220, Note_on_c, 1, 65, 110
3, 5220, Note_on_c, 1, 56, 110
3, 5244, Note_off_c, 1, 65, 64
3, 5250, Note_on_c, 1, 64, 110
3, 5274, Note_off_c, 1, 64, 64
3, 5280, Note_on_c, 1, 65, 110
3, 5304, Note_off_c, 1, 65, 64
3, 5310, Note_on_c, 1, 64, 110
3, 5316, Note_off_c, 1, 56, 64
3, 5334, Note_off_c, 1, 64, 64
3, 5340, Note_on_c, 1, 65, 110
3, 5364, Note_off_c, 1, 65, 64
3, 5370, Note_on_c, 1, 64, 110
3, 5394, Note_off_c, 1, 64, 64
3, 5400, Note_on_c, 1, 57, 110
3, 5400, Note_on_c, 1, 65, 110
3, 5424, Note_off_c, 1, 65, 64
3, 5430, Note_on_c, 1, 64, 110
3, 5454, Note_off_c, 1, 64, 64
3, 5460, Note_on_c, 1, 65, 110
3, 5484, Note_off_c, 1, 65, 64
3, 5490, Note_on_c, 1, 64, 110
3, 5496, Note_off_c, 1, 57, 64
3, 5514, Note_off_c, 1, 64, 64
3, 5520, Note_on_c, 1, 65, 110
3, 5544, Note_off_c, 1, 65, 64
3, 5550, Note_on_c, 1, 64, 110
3, 5574, Note_off_c, 1, 64, 64
3, 5580, Note_on_c, 1, 65, 110
3, 5580, Note_on_c, 1, 59, 110
3, 5604, Note_off_c, 1, 65, 64
3, 5610, Note_on_c, 1, 64, 110
3, 5634, Note_off_c, 1, 64, 64
3, 5640, Note_on_c, 1, 65, 110
3, 5664, Note_off_c, 1, 65, 64
3, 5670, Note_on_c, 1, 64, 110
3, 5676, Note_off_c, 1, 59, 64
3, 5694, Note_off_c, 1, 64, 64
3, 5700, Note_on_c, 1, 65, 110
3, 5724, Note_off_c, 1, 65, 64
3, 5730, Note_on_c, 1, 64, 110
3, 5760, Note_on_c, 1, 60, 110
3, 5856, Note_off_c, 1, 60, 64
3, 5856, Note_off_c, 1, 64, 64
3, 5940, Note_on_c, 1, 68, 110
3, 5940, Note_on_c, 1, 59, 110
3, 6036, Note_off_c, 1, 59, 64
3, 6036, Note_off_c, 1, 68, 64
3, 6120, Note_on_c, 1, 57, 110
3, 6120, Note_on_c, 1, 67, 110
3, 6216, Note_off_c, 1, 67, 64
3, 6216, Note_off_c, 1, 57, 64
3, 6300, Note_on_c, 1, 60, 110
3, 6300, Note_on_c, 1, 66, 110
3, 6396, Note_off_c, 1, 66, 64
3, 6396, Note_off_c, 1, 60, 64
3, 6480, Note_on_c, 1, 58, 110
3, 6480, Note_on_c, 1, 64, 110
3, 6576, Note_off_c, 1, 64, 64
3, 6576, Note_off_c, 1, 58, 64
3, 6660, Note_on_c, 1, 57, 110
3, 6660, Note_on_c, 1, 66, 110
3, 6756, Note_off_c, 1, 66, 64
3, 6756, Note_off_c, 1, 57, 64
3, 6840, Note_on_c, 1, 65, 110
3, 6840, Note_on_c, 1, 55, 110
3, 6936, Note_off_c, 1, 55, 64
3, 6936, Note_off_c, 1, 65, 64
3, 7020, Note_on_c, 1, 57, 110
3, 7020, Note_on_c, 1, 64, 110
3, 7116, Note_off_c, 1, 64, 64
3, 7116, Note_off_c, 1, 57, 64
3, 7200, Note_on_c, 1, 52, 110
3, 7224, Note_off_c, 1, 52, 64
3, 7230, Note_on_c, 1, 50, 110
3, 7254, Note_off_c, 1, 50, 64
3, 7260, Note_on_c, 1, 52, 110
3, 7284, Note_off_c, 1, 52, 64
3, 7290, Note_on_c, 1, 50, 110
3, 7314, Note_off_c, 1, 50, 64
3, 7320, Note_on_c, 1, 52, 110
3, 7344, Note_off_c, 1, 52, 64
3, 7350, Note_on_c, 1, 50, 110
3, 7374, Note_off_c, 1, 50, 64
3, 7380, Note_on_c, 1, 52, 110
3, 7404, Note_off_c, 1, 52, 64
3, 7410, Note_on_c, 1, 50, 110
3, 7434, Note_off_c, 1, 50, 64
3, 7440, Note_on_c, 1, 52, 110
3, 7464, Note_off_c, 1, 52, 64
3, 7470, Note_on_c, 1, 50, 110
3, 7494, Note_off_c, 1, 50, 64
3, 7500, Note_on_c, 1, 52, 110
3, 7524, Note_off_c, 1, 52, 64
3, 7530, Note_on_c, 1, 50, 110
3, 7554, Note_off_c, 1, 50, 64
3, 7560, Note_on_c, 1, 52, 110
3, 7584, Note_off_c, 1, 52, 64
3, 7590, Note_on_c, 1, 50, 110
3, 7614, Note_off_c, 1, 50, 64
3, 7620, Note_on_c, 1, 52, 110
3, 7644, Note_off_c, 1, 52, 64
3, 7650, Note_on_c, 1, 50, 110
3, 7674, Note_off_c, 1, 50, 64
3, 7680, Note_on_c, 1, 52, 110
3, 7704, Note_off_c, 1, 52, 64
3, 7710, Note_on_c, 1, 50, 110
3, 7734, Note_off_c, 1, 50, 64
3, 7740, Note_on_c, 1, 52, 110
3, 7764, Note_off_c, 1, 52, 64
3, 7770, Note_on_c, 1, 50, 110
3, 7794, Note_off_c, 1, 50, 64
3, 7800, Note_on_c, 1, 52, 110
3, 7824, Note_off_c, 1, 52, 64
3, 7830, Note_on_c, 1, 50, 110
3, 7854, Note_off_c, 1, 50, 64
3, 7860, Note_on_c, 1, 52, 110
3, 7884, Note_off_c, 1, 52, 64
3, 7890, Note_on_c, 1, 50, 110
3, 7914, Note_off_c, 1, 50, 64
3, 7920, Note_on_c, 1, 52, 110
3, 7944, Note_off_c, 1, 52, 64
3, 7950, Note_on_c, 1, 50, 110
3, 7974, Note_off_c, 1, 50, 64
3, 7980, Note_on_c, 1, 52, 110
3, 8004, Note_off_c, 1, 52, 64
3, 8010, Note_on_c, 1, 50, 110
3, 8034, Note_off_c, 1, 50, 64
3, 8040, Note_on_c, 1, 52, 110
3, 8064, Note_off_c, 1, 52, 64
3, 8070, Note_on_c, 1, 50, 110
3, 8094, Note_off_c, 1, 50, 64
3, 8100, Note_on_c, 1, 52, 110
3, 8124, Note_off_c, 1, 52, 64
3, 8130, Note_on_c, 1, 50, 110
3, 8154, Note_off_c, 1, 50, 64
3, 8160, Note_on_c, 1, 52, 110
3, 8184, Note_off_c, 1, 52, 64
3, 8190, Note_on_c, 1, 50, 110
3, 8214, Note_off_c, 1, 50, 64
3, 8220, Note_on_c, 1, 52, 110
3, 8244, Note_off_c, 1, 52, 64
3, 8250, Note_on_c, 1, 50, 110
3, 8274, Note_off_c, 1, 50, 64
3, 8280, Note_on_c, 1, 52, 110
3, 8304, Note_off_c, 1, 52, 64
3, 8310, Note_on_c, 1, 50, 110
3, 8334, Note_off_c, 1, 50, 64
3, 8340, Note_on_c, 1, 52, 110
3, 8364, Note_off_c, 1, 52, 64
3, 8370, Note_on_c, 1, 50, 110
3, 8394, Note_off_c, 1, 50, 64
3, 8400, Note_on_c, 1, 52, 110
3, 8424, Note_off_c, 1, 52, 64
3, 8430, Note_on_c, 1, 50, 110
3, 8454, Note_off_c, 1, 50, 64
3, 8460, Note_on_c, 1, 52, 110
3, 8484, Note_off_c, 1, 52, 64
3, 8490, Note_on_c, 1, 50, 110
3, 8514, Note_off_c, 1, 50, 64
3, 8520, Note_on_c, 1, 52, 110
3, 8544, Note_off_c, 1, 52, 64
3, 8550, Note_on_c, 1, 50, 110
3, 8574, Note_off_c, 1, 50, 64
3, 8580, Note_on_c, 1, 52, 110
3, 8604, Note_off_c, 1, 52, 64
3, 8610, Note_on_c, 1, 50, 110
3, 8634, Note_off_c, 1, 50, 64
3, 8640, Note_on_c, 1, 38, 110
3, 8688, Note_off_c, 1, 38, 64
3, 8700, Note_on_c, 1, 37, 110
3, 8748, Note_off_c, 1, 37, 64
3, 8760, Note_on_c, 1, 38, 110
3, 8808, Note_off_c, 1, 38, 64
3, 8820, Note_on_c, 1, 40, 110
3, 8868, Note_off_c, 1, 40, 64
3, 8880, Note_on_c, 1, 37, 110
3, 8928, Note_off_c, 1, 37, 64
3, 8940, Note_on_c, 1, 38, 110
3, 8988, Note_off_c, 1, 38, 64
3, 9000, Note_on_c, 1, 41, 110
3, 9048, Note_off_c, 1, 41, 64
3, 9060, Note_on_c, 1, 37, 110
3, 9108, Note_off_c, 1, 37, 64
3, 9120, Note_on_c, 1, 38, 110
3, 9168, Note_off_c, 1, 38, 64
3, 9180, Note_on_c, 1, 43, 110
3, 9228, Note_off_c, 1, 43, 64
3, 9240, Note_on_c, 1, 37, 110
3, 9288, Note_off_c, 1, 37, 64
3, 9300, Note_on_c, 1, 38, 110
3, 9348, Note_off_c, 1, 38, 64
3, 9360, Note_on_c, 1, 45, 110
3, 9408, Note_off_c, 1, 45, 64
3, 9420, Note_on_c, 1, 37, 110
3, 9468, Note_off_c, 1, 37, 64
3, 9480, Note_on_c, 1, 38, 110
3, 9528, Note_off_c, 1, 38, 64
3, 9540, Note_on_c, 1, 46, 110
3, 9588, Note_off_c, 1, 46, 64
3, 9600, Note_on_c, 1, 45, 110
3, 9648, Note_off_c, 1, 45, 64
3, 9660, Note_on_c, 1, 43, 110
3, 9708, Note_off_c, 1, 43, 64
3, 9720, Note_on_c, 1, 42, 110
3, 9768, Note_off_c, 1, 42, 64
3, 9780, Note_on_c, 1, 40, 110
3, 9828, Note_off_c, 1, 40, 64
3, 9840, Note_on_c, 1, 38, 110
3, 9888, Note_off_c, 1, 38, 64
3, 9900, Note_on_c, 1, 44, 110
3, 9948, Note_off_c, 1, 44, 64
3, 9960, Note_on_c, 1, 45, 110
3, 10008, Note_off_c, 1, 45, 64
3, 10020, Note_on_c, 1, 47, 110
3, 10068, Note_off_c, 1, 47, 64
3, 10080, Note_on_c, 1, 48, 110
3, 10128, Note_off_c, 1, 48, 64
3, 10140, Note_on_c, 1, 50, 110
3, 10188, Note_off_c, 1, 50, 64
3, 10200, Note_on_c, 1, 51, 110
3, 10248, Note_off_c, 1, 51, 64
3, 10260, Note_on_c, 1, 44, 110
3, 10308, Note_off_c, 1, 44, 64
3, 10320, Note_on_c, 1, 43, 110
3, 10368, Note_off_c, 1, 43, 64
3, 10380, Note_on_c, 1, 41, 110
3, 10428, Note_off_c, 1, 41, 64
3, 10440, Note_on_c, 1, 40, 110
3, 10488, Note_off_c, 1, 40, 64
3, 10500, Note_on_c, 1, 38, 110
3, 10548, Note_off_c, 1, 38, 64
3, 10560, Note_on_c, 1, 36, 110
3, 10608, Note_off_c, 1, 36, 64
3, 10620, Note_on_c, 1, 42, 110
3, 10668, Note_off_c, 1, 42, 64
3, 10680, Note_on_c, 1, 43, 110
3, 10728, Note_off_c, 1, 43, 64
3, 10740, Note_on_c, 1, 45, 110
3, 10788, Note_off_c, 1, 45, 64
3, 10800, Note_on_c, 1, 46, 110
3, 10848, Note_off_c, 1, 46, 64
3, 10860, Note_on_c, 1, 45, 110
3, 10908, Note_off_c, 1, 45, 64
3, 10920, Note_on_c, 1, 43, 110
3, 10968, Note_off_c, 1, 43, 64
3, 10980, Note_on_c, 1, 49, 110
3, 11028, Note_off_c, 1, 49, 64
3, 11040, Note_on_c, 1, 50, 110
3, 11088, Note_off_c, 1, 50, 64
3, 11100, Note_on_c, 1, 52, 110
3, 11148, Note_off_c, 1, 52, 64
3, 11160, Note_on_c, 1, 53, 110
3, 11208, Note_off_c, 1, 53, 64
3, 11220, Note_on_c, 1, 52, 110
3, 11268, Note_off_c, 1, 52, 64
3, 11280, Note_on_c, 1, 50, 110
3, 11328, Note_off_c, 1, 50, 64
3, 11340, Note_on_c, 1, 56, 110
3, 11388, Note_off_c, 1, 56, 64
3, 11400, Note_on_c, 1, 57, 110
3, 11448, Note_off_c, 1, 57, 64
3, 11460, Note_on_c, 1, 59, 110
3, 11508, Note_off_c, 1, 59, 64
3, 11520, Note_on_c, 1, 60, 110
3, 11808, Note_off_c, 1, 60, 64
3, 11880, Note_on_c, 1, 59, 110
3, 11880, Note_on_c, 1, 62, 110
3, 11976, Note_off_c, 1, 62, 64
3, 11976, Note_off_c, 1, 59, 64
3, 12060, Note_on_c, 1, 60, 110
3, 12060, Note_on_c, 1, 57, 110
3, 12156, Note_off_c, 1, 57, 64
3, 12156, Note_off_c, 1, 60, 64
3, 12240, Note_on_c, 1, 56, 110
3, 12240, Note_on_c, 1, 59, 110
3, 12336, Note_off_c, 1, 59, 64
3, 12336, Note_off_c, 1, 56, 64
3, 12420, Note_on_c, 1, 63, 110
3, 12420, Note_on_c, 1, 54, 110
3, 12516, Note_off_c, 1, 54, 64
3, 12516, Note_off_c, 1, 63, 64
3, 12600, Note_on_c, 1, 52, 110
3, 12600, Note_on_c, 1, 62, 110
3, 12696, Note_off_c, 1, 62, 64
3, 12696, Note_off_c, 1, 52, 64
3, 12780, Note_on_c, 1, 61, 110
3, 12780, Note_on_c, 1, 57, 110
3, 12876, Note_off_c, 1, 57, 64
3, 12876, Note_off_c, 1, 61, 64
3, 12960, Note_on_c, 1, 50, 110
3, 12960, Note_on_c, 1, 60, 110
3, 13056, Note_off_c, 1, 60, 64
3, 13056, Note_off_c, 1, 50, 64
3, 13140, Note_on_c, 1, 56, 110
3, 13140, Note_on_c, 1, 59, 110
3, 13236, Note_off_c, 1, 59, 64
3, 13236, Note_off_c, 1, 56, 64
3, 13320, Note_on_c, 1, 57, 110
3, 13416, Note_off_c, 1, 57, 64
3, 13500, Note_on_c, 1, 54, 110
3, 13596, Note_off_c, 1, 54, 64
3, 13680, Note_on_c, 1, 53, 110
3, 13704, Note_off_c, 1, 53, 64
3, 13710, Note_on_c, 1, 52, 110
3, 13734, Note_off_c, 1, 52, 64
3, 13740, Note_on_c, 1, 53, 110
3, 13764, Note_off_c, 1, 53, 64
3, 13770, Note_on_c, 1, 52, 110
3, 13794, Note_off_c, 1, 52, 64
3, 13800, Note_on_c, 1, 53, 110
3, 13824, Note_off_c, 1, 53, 64
3, 13830, Note_on_c, 1, 52, 110
3, 13854, Note_off_c, 1, 52, 64
3, 13860, Note_on_c, 1, 53, 110
3, 13884, Note_off_c, 1, 53, 64
3, 13890, Note_on_c, 1, 52, 110
3, 13914, Note_off_c, 1, 52, 64
3, 13920, Note_on_c, 1, 53, 110
3, 13944, Note_off_c, 1, 53, 64
3, 13950, Note_on_c, 1, 52, 110
3, 13974, Note_off_c, 1, 52, 64
3, 13980, Note_on_c, 1, 53, 110
3, 14004, Note_off_c, 1, 53, 64
3, 14010, Note_on_c, 1, 52, 110
3, 14034, Note_off_c, 1, 52, 64
3, 14040, Note_on_c, 1, 53, 110
3, 14064, Note_off_c, 1, 53, 64
3, 14070, Note_on_c, 1, 52, 110
3, 14094, Note_off_c, 1, 52, 64
3, 14100, Note_on_c, 1, 53, 110
3, 14124, Note_off_c, 1, 53, 64
3, 14130, Note_on_c, 1, 52, 110
3, 14154, Note_off_c, 1, 52, 64
3, 14160, Note_on_c, 1, 53, 110
3, 14184, Note_off_c, 1, 53, 64
3, 14190, Note_on_c, 1, 52, 110
3, 14214, Note_off_c, 1, 52, 64
3, 14220, Note_on_c, 1, 53, 110
3, 14244, Note_off_c, 1, 53, 64
3, 14250, Note_on_c, 1, 52, 110
3, 14274, Note_off_c, 1, 52, 64
3, 14280, Note_on_c, 1, 53, 110
3, 14304, Note_off_c, 1, 53, 64
3, 14310, Note_on_c, 1, 52, 110
3, 14334, Note_off_c, 1, 52, 64
3, 14340, Note_on_c, 1, 53, 110
3, 14364, Note_off_c, 1, 53, 64
3, 14370, Note_on_c, 1, 52, 110
3, 14394, Note_off_c, 1, 52, 64
3, 14400, Note_on_c, 1, 53, 110
3, 14424, Note_off_c, 1, 53, 64
3, 14430, Note_on_c, 1, 52, 110
3, 14454, Note_off_c, 1, 52, 64
3, 14460, Note_on_c, 1, 53, 110
3, 14484, Note_off_c, 1, 53, 64
3, 14490, Note_on_c, 1, 52, 110
3, 14514, Note_off_c, 1, 52, 64
3, 14520, Note_on_c, 1, 53, 110
3, 14544, Note_off_c, 1, 53, 64
3, 14550, Note_on_c, 1, 52, 110
3, 14574, Note_off_c, 1, 52, 64
3, 14580, Note_on_c, 1, 53, 110
3, 14604, Note_off_c, 1, 53, 64
3, 14610, Note_on_c, 1, 52, 110
3, 14634, Note_off_c, 1, 52, 64
3, 14640, Note_on_c, 1, 53, 110
3, 14664, Note_off_c, 1, 53, 64
3, 14670, Note_on_c, 1, 52, 110
3, 14694, Note_off_c, 1, 52, 64
3, 14700, Note_on_c, 1, 53, 110
3, 14724, Note_off_c, 1, 53, 64
3, 14730, Note_on_c, 1, 52, 110
3, 14754, Note_off_c, 1, 52, 64
3, 14760, Note_on_c, 1, 53, 110
3, 14784, Note_off_c, 1, 53, 64
3, 14790, Note_on_c, 1, 52, 110
3, 14814, Note_off_c, 1, 52, 64
3, 14820, Note_on_c, 1, 53, 110
3, 14844, Note_off_c, 1, 53, 64
3, 14850, Note_on_c, 1, 52, 110
3, 14874, Note_off_c, 1, 52, 64
3, 14880, Note_on_c, 1, 53, 110
3, 14904, Note_off_c, 1, 53, 64
3, 14910, Note_on_c, 1, 52, 110
3, 14934, Note_off_c, 1, 52, 64
3, 14940, Note_on_c, 1, 53, 110
3, 14964, Note_off_c, 1, 53, 64
3, 14970, Note_on_c, 1, 52, 110
3, 14994, Note_off_c, 1, 52, 64
3, 15000, Note_on_c, 1, 53, 110
3, 15024, Note_off_c, 1, 53, 64
3, 15030, Note_on_c, 1, 52, 110
3, 15054, Note_off_c, 1, 52, 64
3, 15060, Note_on_c, 1, 53, 110
3, 15084, Note_off_c, 1, 53, 64
3, 15090, Note_on_c, 1, 52, 110
3, 15114, Note_off_c, 1, 52, 64
3, 15120, Note_on_c, 1, 53, 110
3, 15144, Note_off_c, 1, 53, 64
3, 15150, Note_on_c, 1, 52, 110
3, 15174, Note_off_c, 1, 52, 64
3, 15180, Note_on_c, 1, 53, 110
3, 15204, Note_off_c, 1, 53, 64
3, 15210, Note_on_c, 1, 52, 110
3, 15234, Note_off_c, 1, 52, 64
3, 15240, Note_on_c, 1, 53, 110
3, 15264, Note_off_c, 1, 53, 64
3, 15270, Note_on_c, 1, 52, 110
3, 15294, Note_off_c, 1, 52, 64
3, 15300, Note_on_c, 1, 53, 110
3, 15324, Note_off_c, 1, 53, 64
3, 15330, Note_on_c, 1, 52, 110
3, 15354, Note_off_c, 1, 52, 64
3, 15360, Note_on_c, 1, 53, 110
3, 15384, Note_off_c, 1, 53, 64
3, 15390, Note_on_c, 1, 52, 110
3, 15414, Note_off_c, 1, 52, 64
3, 15420, Note_on_c, 1, 53, 110
3, 15444, Note_off_c, 1, 53, 64
3, 15450, Note_on_c, 1, 52, 110
3, 15474, Note_off_c, 1, 52, 64
3, 15480, Note_on_c, 1, 53, 110
3, 15504, Note_off_c, 1, 53, 64
3, 15510, Note_on_c, 1, 52, 110
3, 15534, Note_off_c, 1, 52, 64
3, 15540, Note_on_c, 1, 53, 110
3, 15564, Note_off_c, 1, 53, 64
3, 15570, Note_on_c, 1, 52, 110
3, 15594, Note_off_c, 1, 52, 64
3, 15600, Note_on_c, 1, 53, 110
3, 15624, Note_off_c, 1, 53, 64
3, 15630, Note_on_c, 1, 52, 110
3, 15654, Note_off_c, 1, 52, 64
3, 15660, Note_on_c, 1, 53, 110
3, 15684, Note_off_c, 1, 53, 64
3, 15690, Note_on_c, 1, 52, 110
3, 15714, Note_off_c, 1, 52, 64
3, 15720, Note_on_c, 1, 53, 110
3, 15744, Note_off_c, 1, 53, 64
3, 15750, Note_on_c, 1, 52, 110
3, 15774, Note_off_c, 1, 52, 64
3, 15780, Note_on_c, 1, 53, 110
3, 15804, Note_off_c, 1, 53, 64
3, 15810, Note_on_c, 1, 52, 110
3, 15834, Note_off_c, 1, 52, 64
3, 15840, Note_on_c, 1, 57, 110
3, 15840, Note_on_c, 1, 61, 110
3, 15888, Note_off_c, 1, 61, 64
3, 15900, Note_on_c, 1, 59, 110
3, 15948, Note_off_c, 1, 59, 64
3, 15960, Note_on_c, 1, 61, 110
3, 16008, Note_off_c, 1, 61, 64
3, 16020, Note_on_c, 1, 62, 110
3, 16068, Note_off_c, 1, 62, 64
3, 16080, Note_on_c, 1, 59, 110
3, 16128, Note_off_c, 1, 59, 64
3, 16140, Note_on_c, 1, 61, 110
3, 16188, Note_off_c, 1, 61, 64
3, 16200, Note_on_c, 1, 64, 110
3, 16248, Note_off_c, 1, 64, 64
3, 16260, Note_on_c, 1, 59, 110
3, 16308, Note_off_c, 1, 59, 64
3, 16320, Note_on_c, 1, 61, 110
3, 16368, Note_off_c, 1, 61, 64
3, 16380, Note_on_c, 1, 65, 110
3, 16428, Note_off_c, 1, 65, 64
3, 16440, Note_on_c, 1, 64, 110
3, 16488, Note_off_c, 1, 64, 64
3, 16500, Note_on_c, 1, 62, 110
3, 16548, Note_off_c, 1, 62, 64
3, 16560, Note_on_c, 1, 61, 110
3, 16608, Note_off_c, 1, 61, 64
3, 16620, Note_on_c, 1, 59, 110
3, 16668, Note_off_c, 1, 59, 64
3, 16680, Note_on_c, 1, 61, 110
3, 16728, Note_off_c, 1, 61, 64
3, 16740, Note_on_c, 1, 62, 110
3, 16788, Note_off_c, 1, 62, 64
3, 16800, Note_on_c, 1, 65, 110
3, 16913, Note_off_c, 1, 65, 64
3, 16920, Note_on_c, 1, 64, 110
3, 17208, Note_off_c, 1, 64, 64
3, 17280, Note_off_c, 1, 57, 64
3, 18720, Note_on_c, 1, 57, 110
3, 18768, Note_off_c, 1, 57, 64
3, 18780, Note_on_c, 1, 56, 110
3, 18828, Note_off_c, 1, 56, 64
3, 18840, Note_on_c, 1, 57, 110
3, 18888, Note_off_c, 1, 57, 64
3, 18900, Note_on_c, 1, 59, 110
3, 18948, Note_off_c, 1, 59, 64
3, 18960, Note_on_c, 1, 56, 110
3, 19008, Note_off_c, 1, 56, 64
3, 19020, Note_on_c, 1, 57, 110
3, 19068, Note_off_c, 1, 57, 64
3, 19080, Note_on_c, 1, 64, 110
3, 19128, Note_off_c, 1, 64, 64
3, 19140, Note_on_c, 1, 56, 110
3, 19188, Note_off_c, 1, 56, 64
3, 19200, Note_on_c, 1, 57, 110
3, 19248, Note_off_c, 1, 57, 64
3, 19260, Note_on_c, 1, 62, 110
3, 19308, Note_off_c, 1, 62, 64
3, 19320, Note_on_c, 1, 56, 110
3, 19368, Note_off_c, 1, 56, 64
3, 19380, Note_on_c, 1, 57, 110
3, 19428, Note_off_c, 1, 57, 64
3, 19440, Note_on_c, 1, 64, 110
3, 19488, Note_off_c, 1, 64, 64
3, 19500, Note_on_c, 1, 56, 110
3, 19548, Note_off_c, 1, 56, 64
3, 19560, Note_on_c, 1, 57, 110
3, 19608, Note_off_c, 1, 57, 64
3, 19620, Note_on_c, 1, 65, 110
3, 19668, Note_off_c, 1, 65, 64
3, 19680, Note_on_c, 1, 64, 110
3, 19728, Note_off_c, 1, 64, 64
3, 19740, Note_on_c, 1, 62, 110
3, 19788, Note_off_c, 1, 62, 64
3, 19800, Note_on_c, 1, 60, 110
3, 19848, Note_off_c, 1, 60, 64
3, 19860, Note_on_c, 1, 59, 110
3, 19908, Note_off_c, 1, 59, 64
3, 19920, Note_on_c, 1, 57, 110
3, 19968, Note_off_c, 1, 57, 64
3, 19980, Note_on_c, 1, 63, 110
3, 20028, Note_off_c, 1, 63, 64
3, 20040, Note_on_c, 1, 64, 110
3, 20088, Note_off_c, 1, 64, 64
3, 20100, Note_on_c, 1, 66, 110
3, 20148, Note_off_c, 1, 66, 64
3, 20160, Note_on_c, 1, 64, 110
3, 20256, Note_off_c, 1, 64, 64
3, 20340, Note_on_c, 1, 63, 110
3, 20388, Note_off_c, 1, 63, 64
3, 20400, Note_on_c, 1, 62, 110
3, 20448, Note_off_c, 1, 62, 64
3, 20460, Note_on_c, 1, 60, 110
3, 20508, Note_off_c, 1, 60, 64
3, 20520, Note_on_c, 1, 58, 110
3, 20568, Note_off_c, 1, 58, 64
3, 20580, Note_on_c, 1, 57, 110
3, 20628, Note_off_c, 1, 57, 64
3, 20640, Note_on_c, 1, 55, 110
3, 20688, Note_off_c, 1, 55, 64
3, 20700, Note_on_c, 1, 61, 110
3, 20748, Note_off_c, 1, 61, 64
3, 20760, Note_on_c, 1, 62, 110
3, 20808, Note_off_c, 1, 62, 64
3, 20820, Note_on_c, 1, 64, 110
3, 20868, Note_off_c, 1, 64, 64
3, 20880, Note_on_c, 1, 50, 110
3, 20928, Note_off_c, 1, 50, 64
3, 20940, Note_on_c, 1, 49, 110
3, 20988, Note_off_c, 1, 49, 64
3, 21000, Note_on_c, 1, 50, 110
3, 21048, Note_off_c, 1, 50, 64
3, 21060, Note_on_c, 1, 52, 110
3, 21108, Note_off_c, 1, 52, 64
3, 21120, Note_on_c, 1, 49, 110
3, 21168, Note_off_c, 1, 49, 64
3, 21180, Note_on_c, 1, 50, 110
3, 21228, Note_off_c, 1, 50, 64
3, 21240, Note_on_c, 1, 53, 110
3, 21288, Note_off_c, 1, 53, 64
3, 21300, Note_on_c, 1, 49, 110
3, 21348, Note_off_c, 1, 49, 64
3, 21360, Note_on_c, 1, 50, 110
3, 21408, Note_off_c, 1, 50, 64
3, 21420, Note_on_c, 1, 55, 110
3, 21468, Note_off_c, 1, 55, 64
3, 21480, Note_on_c, 1, 49, 110
3, 21528, Note_off_c, 1, 49, 64
3, 21540, Note_on_c, 1, 50, 110
3, 21588, Note_off_c, 1, 50, 64
3, 21600, Note_on_c, 1, 57, 110
3, 21648, Note_off_c, 1, 57, 64
3, 21660, Note_on_c, 1, 49, 110
3, 21708, Note_off_c, 1, 49, 64
3, 21720, Note_on_c, 1, 50, 110
3, 21768, Note_off_c, 1, 50, 64
3, 21780, Note_on_c, 1, 58, 110
3, 21828, Note_off_c, 1, 58, 64
3, 21840, Note_on_c, 1, 57, 110
3, 21888, Note_off_c, 1, 57, 64
3, 21900, Note_on_c, 1, 55, 110
3, 21948, Note_off_c, 1, 55, 64
3, 21960, Note_on_c, 1, 53, 110
3, 22008, Note_off_c, 1, 53, 64
3, 22020, Note_on_c, 1, 52, 110
3, 22068, Note_off_c, 1, 52, 64
3, 22080, Note_on_c, 1, 50, 110
3, 22128, Note_off_c, 1, 50, 64
3, 22140, Note_on_c, 1, 56, 110
3, 22188, Note_off_c, 1, 56, 64
3, 22200, Note_on_c, 1, 57, 110
3, 22248, Note_off_c, 1, 57, 64
3, 22260, Note_on_c, 1, 59, 110
3, 22308, Note_off_c, 1, 59, 64
3, 22320, Note_on_c, 1, 65, 110
3, 22320, Note_on_c, 1, 60, 110
3, 22344, Note_off_c, 1, 65, 64
3, 22350, Note_on_c, 1, 64, 110
3, 22374, Note_off_c, 1, 64, 64
3, 22380, Note_on_c, 1, 65, 110
3, 22404, Note_off_c, 1, 65, 64
3, 22410, Note_on_c, 1, 64, 110
3, 22416, Note_off_c, 1, 60, 64
3, 22434, Note_off_c, 1, 64, 64
3, 22440, Note_on_c, 1, 65, 110
3, 22464, Note_off_c, 1, 65, 64
3, 22470, Note_on_c, 1, 64, 110
3, 22494, Note_off_c, 1, 64, 64
3, 22500, Note_on_c, 1, 65, 110
3, 22500, Note_on_c, 1, 56, 110
3, 22524, Note_off_c, 1, 65, 64
3, 22530, Note_on_c, 1, 64, 110
3, 22554, Note_off_c, 1, 64, 64
3, 22560, Note_on_c, 1, 65, 110
3, 22584, Note_off_c, 1, 65, 64
3, 22590, Note_on_c, 1, 64, 110
3, 22596, Note_off_c, 1, 56, 64
3, 22614, Note_off_c, 1, 64, 64
3, 22620, Note_on_c, 1, 65, 110
3, 22644, Note_off_c, 1, 65, 64
3, 22650, Note_on_c, 1, 64, 110
3, 22674, Note_off_c, 1, 64, 64
3, 22680, Note_on_c, 1, 57, 110
3, 22680, Note_on_c, 1, 65, 110
3, 22704, Note_off_c, 1, 65, 64
3, 22710, Note_on_c, 1, 64, 110
3, 22734, Note_off_c, 1, 64, 64
3, 22740, Note_on_c, 1, 65, 110
3, 22764, Note_off_c, 1, 65, 64
3, 22770, Note_on_c, 1, 64, 110
3, 22776, Note_off_c, 1, 57, 64
3, 22794, Note_off_c, 1, 64, 64
3, 22800, Note_on_c, 1, 65, 110
3, 22824, Note_off_c, 1, 65, 64
3, 22830, Note_on_c, 1, 64, 110
3, 22854, Note_off_c, 1, 64, 64
3, 22860, Note_on_c, 1, 65, 110
3, 22860, Note_on_c, 1, 59, 110
3, 22884, Note_off_c, 1, 65, 64
3, 22890, Note_on_c, 1, 64, 110
3, 22914, Note_off_c, 1, 64, 64
3, 22920, Note_on_c, 1, 65, 110
3, 22944, Note_off_c, 1, 65, 64
3, 22950, Note_on_c, 1, 64, 110
3, 22956, Note_off_c, 1, 59, 64
3, 22974, Note_off_c, 1, 64, 64
3, 22980, Note_on_c, 1, 65, 110
3, 23004, Note_off_c, 1, 65, 64
3, 23010, Note_on_c, 1, 64, 110
3, 23040, Note_on_c, 1, 60, 110
3, 23136, Note_off_c, 1, 60, 64
3, 23136, Note_off_c, 1, 64, 64
3, 23220, Note_on_c, 1, 68, 110
3, 23220, Note_on_c, 1, 59, 110
3, 23316, Note_off_c, 1, 59, 64
3, 23316, Note_off_c, 1, 68, 64
3, 23400, Note_on_c, 1, 57, 110
3, 23400, Note_on_c, 1, 67, 110
3, 23496, Note_off_c, 1, 67, 64
3, 23496, Note_off_c, 1, 57, 64
3, 23580, Note_on_c, 1, 60, 110
3, 23580, Note_on_c, 1, 66, 110
3, 23676, Note_off_c, 1, 66, 64
3, 23676, Note_off_c, 1, 60, 64
3, 23760, Note_on_c, 1, 58, 110
3, 23760, Note_on_c, 1, 64, 110
3, 23856, Note_off_c, 1, 64, 64
3, 23856, Note_off_c, 1, 58, 64
3, 23940, Note_on_c, 1, 57, 110
3, 23940, Note_on_c, 1, 66, 110
3, 24036, Note_off_c, 1, 66, 64
3, 24036, Note_off_c, 1, 57, 64
3, 24120, Note_on_c, 1, 65, 110
3, 24120, Note_on_c, 1, 55, 110
3, 24216, Note_off_c, 1, 55, 64
3, 24216, Note_off_c, 1, 65, 64
3, 24300, Note_on_c, 1, 57, 110
3, 24300, Note_on_c, 1, 64, 110
3, 24396, Note_off_c, 1, 64, 64
3, 24396, Note_off_c, 1, 57, 64
3, 24480, Note_on_c, 1, 52, 110
3, 24504, Note_off_c, 1, 52, 64
3, 24510, Note_on_c, 1, 50, 110
3, 24534, Note_off_c, 1, 50, 64
3, 24540, Note_on_c, 1, 52, 110
3, 24564, Note_off_c, 1, 52, 64
3, 24570, Note_on_c, 1, 50, 110
3, 24594, Note_off_c, 1, 50, 64
3, 24600, Note_on_c, 1, 52, 110
3, 24624, Note_off_c, 1, 52, 64
3, 24630, Note_on_c, 1, 50, 110
3, 24654, Note_off_c, 1, 50, 64
3, 24660, Note_on_c, 1, 52, 110
3, 24684, Note_off_c, 1, 52, 64
3, 24690, Note_on_c, 1, 50, 110
3, 24714, Note_off_c, 1, 50, 64
3, 24720, Note_on_c, 1, 52, 110
3, 24744, Note_off_c, 1, 52, 64
3, 24750, Note_on_c, 1, 50, 110
3, 24774, Note_off_c, 1, 50, 64
3, 24780, Note_on_c, 1, 52, 110
3, 24804, Note_off_c, 1, 52, 64
3, 24810, Note_on_c, 1, 50, 110
3, 24834, Note_off_c, 1, 50, 64
3, 24840, Note_on_c, 1, 52, 110
3, 24864, Note_off_c, 1, 52, 64
3, 24870, Note_on_c, 1, 50, 110
3, 24894, Note_off_c, 1, 50, 64
3, 24900, Note_on_c, 1, 52, 110
3, 24924, Note_off_c, 1, 52, 64
3, 24930, Note_on_c, 1, 50, 110
3, 24954, Note_off_c, 1, 50, 64
3, 24960, Note_on_c, 1, 52, 110
3, 24984, Note_off_c, 1, 52, 64
3, 24990, Note_on_c, 1, 50, 110
3, 25014, Note_off_c, 1, 50, 64
3, 25020, Note_on_c, 1, 52, 110
3, 25044, Note_off_c, 1, 52, 64
3, 25050, Note_on_c, 1, 50, 110
3, 25074, Note_off_c, 1, 50, 64
3, 25080, Note_on_c, 1, 52, 110
3, 25104, Note_off_c, 1, 52, 64
3, 25110, Note_on_c, 1, 50, 110
3, 25134, Note_off_c, 1, 50, 64
3, 25140, Note_on_c, 1, 52, 110
3, 25164, Note_off_c, 1, 52, 64
3, 25170, Note_on_c, 1, 50, 110
3, 25194, Note_off_c, 1, 50, 64
3, 25200, Note_on_c, 1, 52, 110
3, 25224, Note_off_c, 1, 52, 64
3, 25230, Note_on_c, 1, 50, 110
3, 25254, Note_off_c, 1, 50, 64
3, 25260, Note_on_c, 1, 52, 110
3, 25284, Note_off_c, 1, 52, 64
3, 25290, Note_on_c, 1, 50, 110
3, 25314, Note_off_c, 1, 50, 64
3, 25320, Note_on_c, 1, 52, 110
3, 25344, Note_off_c, 1, 52, 64
3, 25350, Note_on_c, 1, 50, 110
3, 25374, Note_off_c, 1, 50, 64
3, 25380, Note_on_c, 1, 52, 110
3, 25404, Note_off_c, 1, 52, 64
3, 25410, Note_on_c, 1, 50, 110
3, 25434, Note_off_c, 1, 50, 64
3, 25440, Note_on_c, 1, 52, 110
3, 25464, Note_off_c, 1, 52, 64
3, 25470, Note_on_c, 1, 50, 110
3, 25494, Note_off_c, 1, 50, 64
3, 25500, Note_on_c, 1, 52, 110
3, 25524, Note_off_c, 1, 52, 64
3, 25530, Note_on_c, 1, 50, 110
3, 25554, Note_off_c, 1, 50, 64
3, 25560, Note_on_c, 1, 52, 110
3, 25584, Note_off_c, 1, 52, 64
3, 25590, Note_on_c, 1, 50, 110
3, 25614, Note_off_c, 1, 50, 64
3, 25620, Note_on_c, 1, 52, 110
3, 25644, Note_off_c, 1, 52, 64
3, 25650, Note_on_c, 1, 50, 110
3, 25674, Note_off_c, 1, 50, 64
3, 25680, Note_on_c, 1, 52, 110
3, 25704, Note_off_c, 1, 52, 64
3, 25710, Note_on_c, 1, 50, 110
3, 25734, Note_off_c, 1, 50, 64
3, 25740, Note_on_c, 1, 52, 110
3, 25764, Note_off_c, 1, 52, 64
3, 25770, Note_on_c, 1, 50, 110
3, 25794, Note_off_c, 1, 50, 64
3, 25800, Note_on_c, 1, 52, 110
3, 25824, Note_off_c, 1, 52, 64
3, 25830, Note_on_c, 1, 50, 110
3, 25854, Note_off_c, 1, 50, 64
3, 25860, Note_on_c, 1, 52, 110
3, 25884, Note_off_c, 1, 52, 64
3, 25890, Note_on_c, 1, 50, 110
3, 25914, Note_off_c, 1, 50, 64
3, 25920, Note_on_c, 1, 38, 110
3, 25968, Note_off_c, 1, 38, 64
3, 25980, Note_on_c, 1, 37, 110
3, 26028, Note_off_c, 1, 37, 64
3, 26040, Note_on_c, 1, 38, 110
3, 26088, Note_off_c, 1, 38, 64
3, 26100, Note_on_c, 1, 40, 110
3, 26148, Note_off_c, 1, 40, 64
3, 26160, Note_on_c, 1, 37, 110
3, 26208, Note_off_c, 1, 37, 64
3, 26220, Note_on_c, 1, 38, 110
3, 26268, Note_off_c, 1, 38, 64
3, 26280, Note_on_c, 1, 41, 110
3, 26328, Note_off_c, 1, 41, 64
3, 26340, Note_on_c, 1, 37, 110
3, 26388, Note_off_c, 1, 37, 64
3, 26400, Note_on_c, 1, 38, 110
3, 26448, Note_off_c, 1, 38, 64
3, 26460, Note_on_c, 1, 43, 110
3, 26508, Note_off_c, 1, 43, 64
3, 26520, Note_on_c, 1, 37, 110
3, 26568, Note_off_c, 1, 37, 64
3, 26580, Note_on_c, 1, 38, 110
3, 26628, Note_off_c, 1, 38, 64
3, 26640, Note_on_c, 1, 45, 110
3, 26688, Note_off_c, 1, 45, 64
3, 26700, Note_on_c, 1, 37, 110
3, 26748, Note_off_c, 1, 37, 64
3, 26760, Note_on_c, 1, 38, 110
3, 26808, Note_off_c, 1, 38, 64
3, 26820, Note_on_c, 1, 46, 110
3, 26868, Note_off_c, 1, 46, 64
3, 26880, Note_on_c, 1, 45, 110
3, 26928, Note_off_c, 1, 45, 64
3, 26940, Note_on_c, 1, 43, 110
3, 26988, Note_off_c, 1, 43, 64
3, 27000, Note_on_c, 1, 42, 110
3, 27048, Note_off_c, 1, 42, 64
3, 27060, Note_on_c, 1, 40, 110
3, 27108, Note_off_c, 1, 40, 64
3, 27120, Note_on_c, 1, 38, 110
3, 27168, Note_off_c, 1, 38, 64
3, 27180, Note_on_c, 1, 44, 110
3, 27228, Note_off_c, 1, 44, 64
3, 27240, Note_on_c, 1, 45, 110
3, 27288, Note_off_c, 1, 45, 64
3, 27300, Note_on_c, 1, 47, 110
3, 27348, Note_off_c, 1, 47, 64
3, 27360, Note_on_c, 1, 48, 110
3, 27408, Note_off_c, 1, 48, 64
3, 27420, Note_on_c, 1, 50, 110
3, 27468, Note_off_c, 1, 50, 64
3, 27480, Note_on_c, 1, 51, 110
3, 27528, Note_off_c, 1, 51, 64
3, 27540, Note_on_c, 1, 44, 110
3, 27588, Note_off_c, 1, 44, 64
3, 27600, Note_on_c, 1, 43, 110
3, 27648, Note_off_c, 1, 43, 64
3, 27660, Note_on_c, 1, 41, 110
3, 27708, Note_off_c, 1, 41, 64
3, 27720, Note_on_c, 1, 40, 110
3, 27768, Note_off_c, 1, 40, 64
3, 27780, Note_on_c, 1, 38, 110
3, 27828, Note_off_c, 1, 38, 64
3, 27840, Note_on_c, 1, 36, 110
3, 27888, Note_off_c, 1, 36, 64
3, 27900, Note_on_c, 1, 42, 110
3, 27948, Note_off_c, 1, 42, 64
3, 27960, Note_on_c, 1, 43, 110
3, 28008, Note_off_c, 1, 43, 64
3, 28020, Note_on_c, 1, 45, 110
3, 28068, Note_off_c, 1, 45, 64
3, 28080, Note_on_c, 1, 46, 110
3, 28128, Note_off_c, 1, 46, 64
3, 28140, Note_on_c, 1, 45, 110
3, 28188, Note_off_c, 1, 45, 64
3, 28200, Note_on_c, 1, 43, 110
3, 28248, Note_off_c, 1, 43, 64
3, 28260, Note_on_c, 1, 49, 110
3, 28308, Note_off_c, 1, 49, 64
3, 28320, Note_on_c, 1, 50, 110
3, 28368, Note_off_c, 1, 50, 64
3, 28380, Note_on_c, 1, 52, 110
3, 28428, Note_off_c, 1, 52, 64
3, 28440, Note_on_c, 1, 53, 110
3, 28488, Note_off_c, 1, 53, 64
3, 28500, Note_on_c, 1, 52, 110
3, 28548, Note_off_c, 1, 52, 64
3, 28560, Note_on_c, 1, 50, 110
3, 28608, Note_off_c, 1, 50, 64
3, 28620, Note_on_c, 1, 56, 110
3, 28668, Note_off_c, 1, 56, 64
3, 28680, Note_on_c, 1, 57, 110
3, 28728, Note_off_c, 1, 57, 64
3, 28740, Note_on_c, 1, 59, 110
3, 28788, Note_off_c, 1, 59, 64
3, 28800, Note_on_c, 1, 60, 110
3, 29088, Note_off_c, 1, 60, 64
3, 29160, Note_on_c, 1, 59, 110
3, 29160, Note_on_c, 1, 62, 110
3, 29256, Note_off_c, 1, 62, 64
3, 29256, Note_off_c, 1, 59, 64
3, 29340, Note_on_c, 1, 60, 110
3, 29340, Note_on_c, 1, 57, 110
3, 29436, Note_off_c, 1, 57, 64
3, 29436, Note_off_c, 1, 60, 64
3, 29520, Note_on_c, 1, 56, 110
3, 29520, Note_on_c, 1, 59, 110
3, 29616, Note_off_c, 1, 59, 64
3, 29616, Note_off_c, 1, 56, 64
3, 29700, Note_on_c, 1, 63, 110
3, 29700, Note_on_c, 1, 54, 110
3, 29796, Note_off_c, 1, 54, 64
3, 29796, Note_off_c, 1, 63, 64
3, 29880, Note_on_c, 1, 52, 110
3, 29880, Note_on_c, 1, 62, 110
3, 29976, Note_off_c, 1, 62, 64
3, 29976, Note_off_c, 1, 52, 64
3, 30060, Note_on_c, 1, 61, 110
3, 30060, Note_on_c, 1, 57, 110
3, 30156, Note_off_c, 1, 57, 64
3, 30156, Note_off_c, 1, 61, 64
3, 30240, Note_on_c, 1, 50, 110
3, 30240, Note_on_c, 1, 60, 110
3, 30336, Note_off_c, 1, 60, 64
3, 30336, Note_off_c, 1, 50, 64
3, 30420, Note_on_c, 1, 56, 110
3, 30420, Note_on_c, 1, 59, 110
3, 30516, Note_off_c, 1, 59, 64
3, 30516, Note_off_c, 1, 56, 64
3, 30600, Note_on_c, 1, 57, 110
3, 30696, Note_off_c, 1, 57, 64
3, 30780, Note_on_c, 1, 54, 110
3, 30876, Note_off_c, 1, 54, 64
3, 30960, Note_on_c, 1, 53, 110
3, 30984, Note_off_c, 1, 53, 64
3, 30990, Note_on_c, 1, 52, 110
3, 31014, Note_off_c, 1, 52, 64
3, 31020, Note_on_c, 1, 53, 110
3, 31044, Note_off_c, 1, 53, 64
3, 31050, Note_on_c, 1, 52, 110
3, 31074, Note_off_c, 1, 52, 64
3, 31080, Note_on_c, 1, 53, 110
3, 31104, Note_off_c, 1, 53, 64
3, 31110, Note_on_c, 1, 52, 110
3, 31134, Note_off_c, 1, 52, 64
3, 31140, Note_on_c, 1, 53, 110
3, 31164, Note_off_c, 1, 53, 64
3, 31170, Note_on_c, 1, 52, 110
3, 31194, Note_off_c, 1, 52, 64
3, 31200, Note_on_c, 1, 53, 110
3, 31224, Note_off_c, 1, 53, 64
3, 31230, Note_on_c, 1, 52, 110
3, 31254, Note_off_c, 1, 52, 64
3, 31260, Note_on_c, 1, 53, 110
3, 31284, Note_off_c, 1, 53, 64
3, 31290, Note_on_c, 1, 52, 110
3, 31314, Note_off_c, 1, 52, 64
3, 31320, Note_on_c, 1, 53, 110
3, 31344, Note_off_c, 1, 53, 64
3, 31350, Note_on_c, 1, 52, 110
3, 31374, Note_off_c, 1, 52, 64
3, 31380, Note_on_c, 1, 53, 110
3, 31404, Note_off_c, 1, 53, 64
3, 31410, Note_on_c, 1, 52, 110
3, 31434, Note_off_c, 1, 52, 64
3, 31440, Note_on_c, 1, 53, 110
3, 31464, Note_off_c, 1, 53, 64
3, 31470, Note_on_c, 1, 52, 110
3, 31494, Note_off_c, 1, 52, 64
3, 31500, Note_on_c, 1, 53, 110
3, 31524, Note_off_c, 1, 53, 64
3, 31530, Note_on_c, 1, 52, 110
3, 31554, Note_off_c, 1, 52, 64
3, 31560, Note_on_c, 1, 53, 110
3, 31584, Note_off_c, 1, 53, 64
3, 31590, Note_on_c, 1, 52, 110
3, 31614, Note_off_c, 1, 52, 64
3, 31620, Note_on_c, 1, 53, 110
3, 31644, Note_off_c, 1, 53, 64
3, 31650, Note_on_c, 1, 52, 110
3, 31674, Note_off_c, 1, 52, 64
3, 31680, Note_on_c, 1, 53, 110
3, 31704, Note_off_c, 1, 53, 64
3, 31710, Note_on_c, 1, 52, 110
3, 31734, Note_off_c, 1, 52, 64
3, 31740, Note_on_c, 1, 53, 110
3, 31764, Note_off_c, 1, 53, 64
3, 31770, Note_on_c, 1, 52, 110
3, 31794, Note_off_c, 1, 52, 64
3, 31800, Note_on_c, 1, 53, 110
3, 31824, Note_off_c, 1, 53, 64
3, 31830, Note_on_c, 1, 52, 110
3, 31854, Note_off_c, 1, 52, 64
3, 31860, Note_on_c, 1, 53, 110
3, 31884, Note_off_c, 1, 53, 64
3, 31890, Note_on_c, 1, 52, 110
3, 31914, Note_off_c, 1, 52, 64
3, 31920, Note_on_c, 1, 53, 110
3, 31944, Note_off_c, 1, 53, 64
3, 31950, Note_on_c, 1, 52, 110
3, 31974, Note_off_c, 1, 52, 64
3, 31980, Note_on_c, 1, 53, 110
3, 32004, Note_off_c, 1, 53, 64
3, 32010, Note_on_c, 1, 52, 110
3, 32034, Note_off_c, 1, 52, 64
3, 32040, Note_on_c, 1, 53, 110
3, 32064, Note_off_c, 1, 53, 64
3, 32070, Note_on_c, 1, 52, 110
3, 32094, Note_off_c, 1, 52, 64
3, 32100, Note_on_c, 1, 53, 110
3, 32124, Note_off_c, 1, 53, 64
3, 32130, Note_on_c, 1, 52, 110
3, 32154, Note_off_c, 1, 52, 64
3, 32160, Note_on_c, 1, 53, 110
3, 32184, Note_off_c, 1, 53, 64
3, 32190, Note_on_c, 1, 52, 110
3, 32214, Note_off_c, 1, 52, 64
3, 32220, Note_on_c, 1, 53, 110
3, 32244, Note_off_c, 1, 53, 64
3, 32250, Note_on_c, 1, 52, 110
3, 32274, Note_off_c, 1, 52, 64
3, 32280, Note_on_c, 1, 53, 110
3, 32304, Note_off_c, 1, 53, 64
3, 32310, Note_on_c, 1, 52, 110
3, 32334, Note_off_c, 1, 52, 64
3, 32340, Note_on_c, 1, 53, 110
3, 32364, Note_off_c, 1, 53, 64
3, 32370, Note_on_c, 1, 52, 110
3, 32394, Note_off_c, 1, 52, 64
3, 32400, Note_on_c, 1, 53, 110
3, 32424, Note_off_c, 1, 53, 64
3, 32430, Note_on_c, 1, 52, 110
3, 32454, Note_off_c, 1, 52, 64
3, 32460, Note_on_c, 1, 53, 110
3, 32484, Note_off_c, 1, 53, 64
3, 32490, Note_on_c, 1, 52, 110
3, 32514, Note_off_c, 1, 52, 64
3, 32520, Note_on_c, 1, 53, 110
3, 32544, Note_off_c, 1, 53, 64
3, 32550, Note_on_c, 1, 52, 110
3, 32574, Note_off_c, 1, 52, 64
3, 32580, Note_on_c, 1, 53, 110
3, 32604, Note_off_c, 1, 53, 64
3, 32610, Note_on_c, 1, 52, 110
3, 32634, Note_off_c, 1, 52, 64
3, 32640, Note_on_c, 1, 53, 110
3, 32664, Note_off_c, 1, 53, 64
3, 32670, Note_on_c, 1, 52, 110
3, 32694, Note_off_c, 1, 52, 64
3, 32700, Note_on_c, 1, 53, 110
3, 32724, Note_off_c, 1, 53, 64
3, 32730, Note_on_c, 1, 52, 110
3, 32754, Note_off_c, 1, 52, 64
3, 32760, Note_on_c, 1, 53, 110
3, 32784, Note_off_c, 1, 53, 64
3, 32790, Note_on_c, 1, 52, 110
3, 32814, Note_off_c, 1, 52, 64
3, 32820, Note_on_c, 1, 53, 110
3, 32844, Note_off_c, 1, 53, 64
3, 32850, Note_on_c, 1, 52, 110
3, 32874, Note_off_c, 1, 52, 64
3, 32880, Note_on_c, 1, 53, 110
3, 32904, Note_off_c, 1, 53, 64
3, 32910, Note_on_c, 1, 52, 110
3, 32934, Note_off_c, 1, 52, 64
3, 32940, Note_on_c, 1, 53, 110
3, 32964, Note_off_c, 1, 53, 64
3, 32970, Note_on_c, 1, 52, 110
3, 32994, Note_off_c, 1, 52, 64
3, 33000, Note_on_c, 1, 53, 110
3, 33024, Note_off_c, 1, 53, 64
3, 33030, Note_on_c, 1, 52, 110
3, 33054, Note_off_c, 1, 52, 64
3, 33060, Note_on_c, 1, 53, 110
3, 33084, Note_off_c, 1, 53, 64
3, 33090, Note_on_c, 1, 52, 110
3, 33114, Note_off_c, 1, 52, 64
3, 33120, Note_on_c, 1, 57, 110
3, 33120, Note_on_c, 1, 61, 110
3, 33168, Note_off_c, 1, 61, 64
3, 33180, Note_on_c, 1, 59, 110
3, 33228, Note_off_c, 1, 59, 64
3, 33240, Note_on_c, 1, 61, 110
3, 33288, Note_off_c, 1, 61, 64
3, 33300, Note_on_c, 1, 62, 110
3, 33348, Note_off_c, 1, 62, 64
3, 33360, Note_on_c, 1, 59, 110
3, 33408, Note_off_c, 1, 59, 64
3, 33420, Note_on_c, 1, 61, 110
3, 33468, Note_off_c, 1, 61, 64
3, 33480, Note_on_c, 1, 64, 110
3, 33528, Note_off_c, 1, 64, 64
3, 33540, Note_on_c, 1, 59, 110
3, 33588, Note_off_c, 1, 59, 64
3, 33600, Note_on_c, 1, 61, 110
3, 33648, Note_off_c, 1, 61, 64
3, 33660, Note_on_c, 1, 65, 110
3, 33708, Note_off_c, 1, 65, 64
3, 33720, Note_on_c, 1, 64, 110
3, 33768, Note_off_c, 1, 64, 64
3, 33780, Note_on_c, 1, 62, 110
3, 33828, Note_off_c, 1, 62, 64
3, 33840, Note_on_c, 1, 61, 110
3, 33888, Note_off_c, 1, 61, 64
3, 33900, Note_on_c, 1, 59, 110
3, 33948, Note_off_c, 1, 59, 64
3, 33960, Note_on_c, 1, 61, 110
3, 34008, Note_off_c, 1, 61, 64
3, 34020, Note_on_c, 1, 62, 110
3, 34068, Note_off_c, 1, 62, 64
3, 34080, Note_on_c, 1, 65, 110
3, 34193, Note_off_c, 1, 65, 64
3, 34200, Note_on_c, 1, 64, 110
3, 34488, Note_off_c, 1, 64, 64
3, 34560, Note_off_c, 1, 57, 64
3, 34560, Note_on_c, 1, 64, 110
3, 34608, Note_off_c, 1, 64, 64
3, 34620, Note_on_c, 1, 65, 110
3, 34668, Note_off_c, 1, 65, 64
3, 34680, Note_on_c, 1, 64, 110
3, 34728, Note_off_c, 1, 64, 64
3, 34740, Note_on_c, 1, 62, 110
3, 34788, Note_off_c, 1, 62, 64
3, 34800, Note_on_c, 1, 65, 110
3, 34848, Note_off_c, 1, 65, 64
3, 34860, Note_on_c, 1, 64, 110
3, 34908, Note_off_c, 1, 64, 64
3, 34920, Note_on_c, 1, 60, 110
3, 34968, Note_off_c, 1, 60, 64
3, 34980, Note_on_c, 1, 65, 110
3, 35028, Note_off_c, 1, 65, 64
3, 35040, Note_on_c, 1, 64, 110
3, 35088, Note_off_c, 1, 64, 64
3, 35100, Note_on_c, 1, 59, 110
3, 35148, Note_off_c, 1, 59, 64
3, 35160, Note_on_c, 1, 65, 110
3, 35208, Note_off_c, 1, 65, 64
3, 35220, Note_on_c, 1, 64, 110
3, 35268, Note_off_c, 1, 64, 64
3, 35280, Note_on_c, 1, 57, 110
3, 35328, Note_off_c, 1, 57, 64
3, 35340, Note_on_c, 1, 65, 110
3, 35388, Note_off_c, 1, 65, 64
3, 35400, Note_on_c, 1, 64, 110
3, 35448, Note_off_c, 1, 64, 64
3, 35460, Note_on_c, 1, 56, 110
3, 35508, Note_off_c, 1, 56, 64
3, 35520, Note_on_c, 1, 57, 110
3, 35568, Note_off_c, 1, 57, 64
3, 35580, Note_on_c, 1, 59, 110
3, 35628, Note_off_c, 1, 59, 64
3, 35640, Note_on_c, 1, 61, 110
3, 35688, Note_off_c, 1, 61, 64
3, 35700, Note_on_c, 1, 62, 110
3, 35748, Note_off_c, 1, 62, 64
3, 35760, Note_on_c, 1, 64, 110
3, 35808, Note_off_c, 1, 64, 64
3, 35820, Note_on_c, 1, 58, 110
3, 35868, Note_off_c, 1, 58, 64
3, 35880, Note_on_c, 1, 57, 110
3, 35928, Note_off_c, 1, 57, 64
3, 35940, Note_on_c, 1, 55, 110
3, 35988, Note_off_c, 1, 55, 64
3, 36000, Note_on_c, 1, 53, 110
3, 36096, Note_off_c, 1, 53, 64
3, 36180, Note_on_c, 1, 58, 110
3, 36276, Note_off_c, 1, 58, 64
3, 36360, Note_on_c, 1, 57, 110
3, 36456, Note_off_c, 1, 57, 64
3, 36540, Note_on_c, 1, 55, 110
3, 36636, Note_off_c, 1, 55, 64
3, 36720, Note_on_c, 1, 53, 110
3, 36816, Note_off_c, 1, 53, 64
3, 36900, Note_on_c, 1, 52, 110
3, 36948, Note_off_c, 1, 52, 64
3, 36960, Note_on_c, 1, 50, 110
3, 37008, Note_off_c, 1, 50, 64
3, 37020, Note_on_c, 1, 49, 110
3, 37068, Note_off_c, 1, 49, 64
3, 37080, Note_on_c, 1, 50, 110
3, 37128, Note_off_c, 1, 50, 64
3, 37140, Note_on_c, 1, 52, 110
3, 37188, Note_off_c, 1, 52, 64
3, 37200, Note_on_c, 1, 54, 110
3, 37248, Note_off_c, 1, 54, 64
3, 37260, Note_on_c, 1, 54, 110
3, 37308, Note_off_c, 1, 54, 64
3, 37320, Note_on_c, 1, 55, 110
3, 37368, Note_off_c, 1, 55, 64
3, 37380, Note_on_c, 1, 57, 110
3, 37428, Note_off_c, 1, 57, 64
3, 37440, Note_on_c, 1, 57, 110
3, 37488, Note_off_c, 1, 57, 64
3, 37500, Note_on_c, 1, 59, 110
3, 37548, Note_off_c, 1, 59, 64
3, 37560, Note_on_c, 1, 60, 110
3, 37608, Note_off_c, 1, 60, 64
3, 37620, Note_on_c, 1, 60, 110
3, 37644, Note_off_c, 1, 60, 64
3, 37650, Note_on_c, 1, 59, 110
3, 37674, Note_off_c, 1, 59, 64
3, 37680, Note_on_c, 1, 60, 110
3, 37776, Note_off_c, 1, 60, 64
3, 37800, Note_on_c, 1, 59, 110
3, 37848, Note_off_c, 1, 59, 64
3, 37860, Note_on_c, 1, 57, 110
3, 37908, Note_off_c, 1, 57, 64
3, 37920, Note_on_c, 1, 56, 110
3, 37968, Note_off_c, 1, 56, 64
3, 37980, Note_on_c, 1, 56, 110
3, 38028, Note_off_c, 1, 56, 64
3, 38040, Note_on_c, 1, 57, 110
3, 38088, Note_off_c, 1, 57, 64
3, 38100, Note_on_c, 1, 59, 110
3, 38148, Note_off_c, 1, 59, 64
3, 38160, Note_on_c, 1, 59, 110
3, 38184, Note_off_c, 1, 59, 64
3, 38190, Note_on_c, 1, 57, 110
3, 38214, Note_off_c, 1, 57, 64
3, 38220, Note_on_c, 1, 59, 110
3, 38244, Note_off_c, 1, 59, 64
3, 38250, Note_on_c, 1, 57, 110
3, 38274, Note_off_c, 1, 57, 64
3, 38280, Note_on_c, 1, 59, 110
3, 38304, Note_off_c, 1, 59, 64
3, 38310, Note_on_c, 1, 57, 110
3, 38334, Note_off_c, 1, 57, 64
3, 38340, Note_on_c, 1, 59, 110
3, 38364, Note_off_c, 1, 59, 64
3, 38370, Note_on_c, 1, 57, 110
3, 38394, Note_off_c, 1, 57, 64
3, 38400, Note_on_c, 1, 59, 110
3, 38424, Note_off_c, 1, 59, 64
3, 38430, Note_on_c, 1, 57, 110
3, 38454, Note_off_c, 1, 57, 64
3, 38460, Note_on_c, 1, 59, 110
3, 38484, Note_off_c, 1, 59, 64
3, 38490, Note_on_c, 1, 57, 110
3, 38514, Note_off_c, 1, 57, 64
3, 38520, Note_on_c, 1, 59, 110
3, 38544, Note_off_c, 1, 59, 64
3, 38550, Note_on_c, 1, 57, 110
3, 38574, Note_off_c, 1, 57, 64
3, 38580, Note_on_c, 1, 59, 110
3, 38604, Note_off_c, 1, 59, 64
3, 38610, Note_on_c, 1, 57, 110
3, 38634, Note_off_c, 1, 57, 64
3, 38640, Note_on_c, 1, 59, 110
3, 38664, Note_off_c, 1, 59, 64
3, 38670, Note_on_c, 1, 57, 110
3, 38694, Note_off_c, 1, 57, 64
3, 38700, Note_on_c, 1, 59, 110
3, 38724, Note_off_c, 1, 59, 64
3, 38730, Note_on_c, 1, 57, 110
3, 38754, Note_off_c, 1, 57, 64
3, 38760, Note_on_c, 1, 59, 110
3, 38784, Note_off_c, 1, 59, 64
3, 38790, Note_on_c, 1, 57, 110
3, 38814, Note_off_c, 1, 57, 64
3, 38820, Note_on_c, 1, 59, 110
3, 38844, Note_off_c, 1, 59, 64
3, 38850, Note_on_c, 1, 57, 110
3, 38874, Note_off_c, 1, 57, 64
3, 38880, Note_on_c, 1, 57, 110
3, 38976, Note_off_c, 1, 57, 64
3, 39060, Note_on_c, 1, 59, 110
3, 39108, Note_off_c, 1, 59, 64
3, 39120, Note_on_c, 1, 57, 110
3, 39168, Note_off_c, 1, 57, 64
3, 39180, Note_on_c, 1, 56, 110
3, 39228, Note_off_c, 1, 56, 64
3, 39240, Note_on_c, 1, 57, 110
3, 39288, Note_off_c, 1, 57, 64
3, 39300, Note_on_c, 1, 59, 110
3, 39348, Note_off_c, 1, 59, 64
3, 39360, Note_on_c, 1, 61, 110
3, 39408, Note_off_c, 1, 61, 64
3, 39420, Note_on_c, 1, 61, 110
3, 39468, Note_off_c, 1, 61, 64
3, 39480, Note_on_c, 1, 62, 110
3, 39528, Note_off_c, 1, 62, 64
3, 39540, Note_on_c, 1, 64, 110
3, 39588, Note_off_c, 1, 64, 64
3, 39600, Note_on_c, 1, 50, 110
3, 39648, Note_off_c, 1, 50, 64
3, 39660, Note_on_c, 1, 51, 110
3, 39708, Note_off_c, 1, 51, 64
3, 39720, Note_on_c, 1, 50, 110
3, 39768, Note_off_c, 1, 50, 64
3, 39780, Note_on_c, 1, 48, 110
3, 39828, Note_off_c, 1, 48, 64
3, 39840, Note_on_c, 1, 51, 110
3, 39888, Note_off_c, 1, 51, 64
3, 39900, Note_on_c, 1, 50, 110
3, 39948, Note_off_c, 1, 50, 64
3, 39960, Note_on_c, 1, 46, 110
3, 40008, Note_off_c, 1, 46, 64
3, 40020, Note_on_c, 1, 51, 110
3, 40068, Note_off_c, 1, 51, 64
3, 40080, Note_on_c, 1, 50, 110
3, 40128, Note_off_c, 1, 50, 64
3, 40140, Note_on_c, 1, 45, 110
3, 40188, Note_off_c, 1, 45, 64
3, 40200, Note_on_c, 1, 51, 110
3, 40248, Note_off_c, 1, 51, 64
3, 40260, Note_on_c, 1, 50, 110
3, 40308, Note_off_c, 1, 50, 64
3, 40320, Note_on_c, 1, 43, 110
3, 40368, Note_off_c, 1, 43, 64
3, 40380, Note_on_c, 1, 51, 110
3, 40428, Note_off_c, 1, 51, 64
3, 40440, Note_on_c, 1, 50, 110
3, 40488, Note_off_c, 1, 50, 64
3, 40500, Note_on_c, 1, 42, 110
3, 40548, Note_off_c, 1, 42, 64
3, 40560, Note_on_c, 1, 43, 110
3, 40608, Note_off_c, 1, 43, 64
3, 40620, Note_on_c, 1, 45, 110
3, 40668, Note_off_c, 1, 45, 64
3, 40680, Note_on_c, 1, 47, 110
3, 40728, Note_off_c, 1, 47, 64
3, 40740, Note_on_c, 1, 48, 110
3, 40788, Note_off_c, 1, 48, 64
3, 40800, Note_on_c, 1, 50, 110
3, 40848, Note_off_c, 1, 50, 64
3, 40860, Note_on_c, 1, 44, 110
3, 40908, Note_off_c, 1, 44, 64
3, 40920, Note_on_c, 1, 43, 110
3, 40968, Note_off_c, 1, 43, 64
3, 40980, Note_on_c, 1, 41, 110
3, 41028, Note_off_c, 1, 41, 64
3, 41040, Note_on_c, 1, 40, 110
3, 41088, Note_off_c, 1, 40, 64
3, 41100, Note_on_c, 1, 38, 110
3, 41148, Note_off_c, 1, 38, 64
3, 41160, Note_on_c, 1, 37, 110
3, 41208, Note_off_c, 1, 37, 64
3, 41220, Note_on_c, 1, 44, 110
3, 41268, Note_off_c, 1, 44, 64
3, 41280, Note_on_c, 1, 45, 110
3, 41328, Note_off_c, 1, 45, 64
3, 41340, Note_on_c, 1, 47, 110
3, 41388, Note_off_c, 1, 47, 64
3, 41400, Note_on_c, 1, 49, 110
3, 41448, Note_off_c, 1, 49, 64
3, 41460, Note_on_c, 1, 50, 110
3, 41508, Note_off_c, 1, 50, 64
3, 41520, Note_on_c, 1, 52, 110
3, 41568, Note_off_c, 1, 52, 64
3, 41580, Note_on_c, 1, 46, 110
3, 41628, Note_off_c, 1, 46, 64
3, 41640, Note_on_c, 1, 45, 110
3, 41688, Note_off_c, 1, 45, 64
3, 41700, Note_on_c, 1, 43, 110
3, 41748, Note_off_c, 1, 43, 64
3, 41760, Note_on_c, 1, 42, 110
3, 41817, Note_off_c, 1, 42, 64
3, 41820, Note_on_c, 1, 40, 110
3, 41877, Note_off_c, 1, 40, 64
3, 41880, Note_on_c, 1, 38, 110
3, 41937, Note_off_c, 1, 38, 64
3, 41940, Note_on_c, 1, 48, 110
3, 42000, Note_on_c, 1, 42, 110
3, 42036, Note_off_c, 1, 48, 64
3, 42048, Note_off_c, 1, 42, 64
3, 42060, Note_on_c, 1, 40, 110
3, 42108, Note_off_c, 1, 40, 64
3, 42120, Note_on_c, 1, 50, 110
3, 42180, Note_on_c, 1, 43, 110
3, 42216, Note_off_c, 1, 50, 64
3, 42228, Note_off_c, 1, 43, 64
3, 42240, Note_on_c, 1, 42, 110
3, 42288, Note_off_c, 1, 42, 64
3, 42300, Note_on_c, 1, 52, 110
3, 42360, Note_on_c, 1, 45, 110
3, 42396, Note_off_c, 1, 52, 64
3, 42408, Note_off_c, 1, 45, 64
3, 42420, Note_on_c, 1, 43, 110
3, 42468, Note_off_c, 1, 43, 64
3, 42480, Note_on_c, 1, 54, 110
3, 42540, Note_on_c, 1, 46, 110
3, 42576, Note_off_c, 1, 54, 64
3, 42588, Note_off_c, 1, 46, 64
3, 42600, Note_on_c, 1, 45, 110
3, 42648, Note_off_c, 1, 45, 64
3, 42660, Note_on_c, 1, 53, 110
3, 42720, Note_on_c, 1, 48, 110
3, 42756, Note_off_c, 1, 53, 64
3, 42768, Note_off_c, 1, 48, 64
3, 42780, Note_on_c, 1, 47, 110
3, 42828, Note_off_c, 1, 47, 64
3, 42840, Note_on_c, 1, 52, 110
3, 42900, Note_on_c, 1, 50, 110
3, 42936, Note_off_c, 1, 52, 64
3, 42948, Note_off_c, 1, 50, 64
3, 42960, Note_on_c, 1, 49, 110
3, 43020, Note_on_c, 1, 58, 110
3, 43068, Note_off_c, 1, 49, 64
3, 43080, Note_on_c, 1, 50, 110
3, 43116, Note_off_c, 1, 58, 64
3, 43128, Note_off_c, 1, 50, 64
3, 43140, Note_on_c, 1, 52, 110
3, 43188, Note_off_c, 1, 52, 64
3, 43200, Note_on_c, 1, 57, 110
3, 43200, Note_on_c, 1, 53, 110
3, 43296, Note_off_c, 1, 53, 64
3, 43296, Note_off_c, 1, 57, 64
3, 43380, Note_on_c, 1, 58, 110
3, 43380, Note_on_c, 1, 64, 110
3, 43404, Note_off_c, 1, 64, 64
3, 43410, Note_on_c, 1, 62, 110
3, 43434, Note_off_c, 1, 62, 64
3, 43440, Note_on_c, 1, 64, 110
3, 43464, Note_off_c, 1, 64, 64
3, 43470, Note_on_c, 1, 62, 110
3, 43476, Note_off_c, 1, 58, 64
3, 43494, Note_off_c, 1, 62, 64
3, 43500, Note_on_c, 1, 64, 110
3, 43524, Note_off_c, 1, 64, 64
3, 43530, Note_on_c, 1, 62, 110
3, 43554, Note_off_c, 1, 62, 64
3, 43560, Note_on_c, 1, 64, 110
3, 43560, Note_on_c, 1, 57, 110
3, 43584, Note_off_c, 1, 64, 64
3, 43590, Note_on_c, 1, 62, 110
3, 43614, Note_off_c, 1, 62, 64
3, 43620, Note_on_c, 1, 64, 110
3, 43644, Note_off_c, 1, 64, 64
3, 43650, Note_on_c, 1, 62, 110
3, 43656, Note_off_c, 1, 57, 64
3, 43674, Note_off_c, 1, 62, 64
3, 43680, Note_on_c, 1, 64, 110
3, 43704, Note_off_c, 1, 64, 64
3, 43710, Note_on_c, 1, 62, 110
3, 43734, Note_off_c, 1, 62, 64
3, 43740, Note_on_c, 1, 64, 110
3, 43740, Note_on_c, 1, 55, 110
3, 43764, Note_off_c, 1, 64, 64
3, 43770, Note_on_c, 1, 62, 110
3, 43794, Note_off_c, 1, 62, 64
3, 43800, Note_on_c, 1, 64, 110
3, 43824, Note_off_c, 1, 64, 64
3, 43830, Note_on_c, 1, 62, 110
3, 43836, Note_off_c, 1, 55, 64
3, 43854, Note_off_c, 1, 62, 64
3, 43860, Note_on_c, 1, 64, 110
3, 43884, Note_off_c, 1, 64, 64
3, 43890, Note_on_c, 1, 62, 110
3, 43920, Note_on_c, 1, 53, 110
3, 44016, Note_off_c, 1, 62, 64
3, 44016, Note_off_c, 1, 53, 64
3, 44100, Note_on_c, 1, 58, 110
3, 44100, Note_on_c, 1, 55, 110
3, 44196, Note_off_c, 1, 55, 64
3, 44196, Note_off_c, 1, 58, 64
3, 44280, Note_on_c, 1, 57, 110
3, 44280, Note_on_c, 1, 60, 110
3, 44376, Note_off_c, 1, 60, 64
3, 44376, Note_off_c, 1, 57, 64
3, 44460, Note_on_c, 1, 54, 110
3, 44460, Note_on_c, 1, 57, 110
3, 44556, Note_off_c, 1, 57, 64
3, 44556, Note_off_c, 1, 54, 64
3, 44640, Note_on_c, 1, 56, 110
3, 44736, Note_off_c, 1, 62, 64
3, 44736, Note_off_c, 1, 56, 64
3, 44820, Note_on_c, 1, 60, 110
3, 44820, Note_on_c, 1, 57, 110
3, 44916, Note_off_c, 1, 57, 64
3, 44916, Note_off_c, 1, 60, 64
3, 45000, Note_on_c, 1, 62, 110
3, 45000, Note_on_c, 1, 59, 110
3, 45096, Note_off_c, 1, 59, 64
3, 45096, Note_off_c, 1, 62, 64
3, 45180, Note_on_c, 1, 59, 110
3, 45180, Note_on_c, 1, 56, 110
3, 45276, Note_off_c, 1, 56, 64
3, 45276, Note_off_c, 1, 59, 64
3, 45360, Note_on_c, 1, 57, 110
3, 45360, Note_on_c, 1, 64, 110
3, 45456, Note_off_c, 1, 64, 64
3, 45456, Note_off_c, 1, 57, 64
3, 45540, Note_on_c, 1, 45, 110
3, 45588, Note_off_c, 1, 45, 64
3, 45600, Note_on_c, 1, 47, 110
3, 45648, Note_off_c, 1, 47, 64
3, 45660, Note_on_c, 1, 49, 110
3, 45708, Note_off_c, 1, 49, 64
3, 45720, Note_on_c, 1, 50, 110
3, 45768, Note_off_c, 1, 50, 64
3, 45780, Note_on_c, 1, 52, 110
3, 45828, Note_off_c, 1, 52, 64
3, 45840, Note_on_c, 1, 54, 110
3, 45888, Note_off_c, 1, 54, 64
3, 45900, Note_on_c, 1, 56, 110
3, 45948, Note_off_c, 1, 56, 64
3, 45960, Note_on_c, 1, 57, 110
3, 46008, Note_off_c, 1, 57, 64
3, 46020, Note_on_c, 1, 59, 110
3, 46068, Note_off_c, 1, 59, 64
3, 46080, Note_on_c, 1, 45, 110
3, 46128, Note_off_c, 1, 45, 64
3, 46140, Note_on_c, 1, 46, 110
3, 46188, Note_off_c, 1, 46, 64
3, 46200, Note_on_c, 1, 45, 110
3, 46248, Note_off_c, 1, 45, 64
3, 46260, Note_on_c, 1, 43, 110
3, 46308, Note_off_c, 1, 43, 64
3, 46320, Note_on_c, 1, 46, 110
3, 46368, Note_off_c, 1, 46, 64
3, 46380, Note_on_c, 1, 45, 110
3, 46428, Note_off_c, 1, 45, 64
3, 46440, Note_on_c, 1, 41, 110
3, 46488, Note_off_c, 1, 41, 64
3, 46500, Note_on_c, 1, 46, 110
3, 46548, Note_off_c, 1, 46, 64
3, 46560, Note_on_c, 1, 45, 110
3, 46608, Note_off_c, 1, 45, 64
3, 46620, Note_on_c, 1, 40, 110
3, 46668, Note_off_c, 1, 40, 64
3, 46680, Note_on_c, 1, 46, 110
3, 46728, Note_off_c, 1, 46, 64
3, 46740, Note_on_c, 1, 45, 110
3, 46788, Note_off_c, 1, 45, 64
3, 46800, Note_on_c, 1, 38, 110
3, 46848, Note_off_c, 1, 38, 64
3, 46860, Note_on_c, 1, 46, 110
3, 46908, Note_off_c, 1, 46, 64
3, 46920, Note_on_c, 1, 45, 110
3, 46968, Note_off_c, 1, 45, 64
3, 46980, Note_on_c, 1, 37, 110
3, 47028, Note_off_c, 1, 37, 64
3, 47040, Note_on_c, 1, 38, 110
3, 47088, Note_off_c, 1, 38, 64
3, 47100, Note_on_c, 1, 40, 110
3, 47148, Note_off_c, 1, 40, 64
3, 47160, Note_on_c, 1, 42, 110
3, 47208, Note_off_c, 1, 42, 64
3, 47220, Note_on_c, 1, 43, 110
3, 47268, Note_off_c, 1, 43, 64
3, 47280, Note_on_c, 1, 45, 110
3, 47328, Note_off_c, 1, 45, 64
3, 47340, Note_on_c, 1, 39, 110
3, 47388, Note_off_c, 1, 39, 64
3, 47400, Note_on_c, 1, 40, 110
3, 47448, Note_off_c, 1, 40, 64
3, 47460, Note_on_c, 1, 42, 110
3, 47508, Note_off_c, 1, 42, 64
3, 47520, Note_on_c, 1, 43, 110
3, 47568, Note_off_c, 1, 43, 64
3, 47580, Note_on_c, 1, 45, 110
3, 47628, Note_off_c, 1, 45, 64
3, 47640, Note_on_c, 1, 47, 110
3, 47688, Note_off_c, 1, 47, 64
3, 47700, Note_on_c, 1, 44, 110
3, 47748, Note_off_c, 1, 44, 64
3, 47760, Note_on_c, 1, 45, 110
3, 47808, Note_off_c, 1, 45, 64
3, 47820, Note_on_c, 1, 47, 110
3, 47868, Note_off_c, 1, 47, 64
3, 47880, Note_on_c, 1, 49, 110
3, 47928, Note_off_c, 1, 49, 64
3, 47940, Note_on_c, 1, 50, 110
3, 47988, Note_off_c, 1, 50, 64
3, 48000, Note_on_c, 1, 52, 110
3, 48048, Note_off_c, 1, 52, 64
3, 48060, Note_on_c, 1, 46, 110
3, 48108, Note_off_c, 1, 46, 64
3, 48120, Note_on_c, 1, 45, 110
3, 48168, Note_off_c, 1, 45, 64
3, 48180, Note_on_c, 1, 43, 110
3, 48228, Note_off_c, 1, 43, 64
3, 48240, Note_on_c, 1, 53, 110
3, 48300, Note_on_c, 1, 45, 110
3, 48336, Note_off_c, 1, 53, 64
3, 48348, Note_off_c, 1, 45, 64
3, 48360, Note_on_c, 1, 44, 110
3, 48408, Note_off_c, 1, 44, 64
3, 48420, Note_on_c, 1, 54, 110
3, 48480, Note_on_c, 1, 46, 110
3, 48516, Note_off_c, 1, 54, 64
3, 48528, Note_off_c, 1, 46, 64
3, 48540, Note_on_c, 1, 45, 110
3, 48588, Note_off_c, 1, 45, 64
3, 48600, Note_on_c, 1, 55, 110
3, 48660, Note_on_c, 1, 46, 110
3, 48696, Note_off_c, 1, 55, 64
3, 48708, Note_off_c, 1, 46, 64
3, 48720, Note_on_c, 1, 45, 110
3, 48768, Note_off_c, 1, 45, 64
3, 48780, Note_on_c, 1, 56, 110
3, 48840, Note_on_c, 1, 48, 110
3, 48876, Note_off_c, 1, 56, 64
3, 48888, Note_off_c, 1, 48, 64
3, 48900, Note_on_c, 1, 47, 110
3, 48948, Note_off_c, 1, 47, 64
3, 48960, Note_on_c, 1, 57, 110
3, 49020, Note_on_c, 1, 48, 110
3, 49056, Note_off_c, 1, 57, 64
3, 49068, Note_off_c, 1, 48, 64
3, 49080, Note_on_c, 1, 47, 110
3, 49128, Note_off_c, 1, 47, 64
3, 49140, Note_on_c, 1, 52, 110
3, 49200, Note_on_c, 1, 50, 110
3, 49236, Note_off_c, 1, 52, 64
3, 49248, Note_off_c, 1, 50, 64
3, 49260, Note_on_c, 1, 49, 110
3, 49308, Note_off_c, 1, 49, 64
3, 49320, Note_on_c, 1, 58, 110
3, 49380, Note_on_c, 1, 50, 110
3, 49416, Note_off_c, 1, 58, 64
3, 49428, Note_off_c, 1, 50, 64
3, 49440, Note_on_c, 1, 49, 110
3, 49488, Note_off_c, 1, 49, 64
3, 49500, Note_on_c, 1, 59, 110
3, 49560, Note_on_c, 1, 52, 110
3, 49596, Note_off_c, 1, 59, 64
3, 49608, Note_off_c, 1, 52, 64
3, 49620, Note_on_c, 1, 51, 110
3, 49668, Note_off_c, 1, 51, 64
3, 49680, Note_on_c, 1, 60, 110
3, 49740, Note_on_c, 1, 52, 110
3, 49776, Note_off_c, 1, 60, 64
3, 49788, Note_off_c, 1, 52, 64
3, 49800, Note_on_c, 1, 51, 110
3, 49848, Note_off_c, 1, 51, 64
3, 49860, Note_on_c, 1, 61, 110
3, 49920, Note_on_c, 1, 53, 110
3, 49956, Note_off_c, 1, 61, 64
3, 49968, Note_off_c, 1, 53, 64
3, 49980, Note_on_c, 1, 52, 110
3, 50028, Note_off_c, 1, 52, 64
3, 50040, Note_on_c, 1, 62, 110
3, 50100, Note_on_c, 1, 53, 110
3, 50136, Note_off_c, 1, 62, 64
3, 50148, Note_off_c, 1, 53, 64
3, 50160, Note_on_c, 1, 52, 110
3, 50208, Note_off_c, 1, 52, 64
3, 50220, Note_on_c, 1, 57, 110
3, 50280, Note_on_c, 1, 55, 110
3, 50316, Note_off_c, 1, 57, 64
3, 50328, Note_off_c, 1, 55, 64
3, 50340, Note_on_c, 1, 54, 110
3, 50388, Note_off_c, 1, 54, 64
3, 50400, Note_on_c, 1, 55, 110
3, 50400, Note_on_c, 1, 58, 110
3, 50448, Note_off_c, 1, 58, 64
3, 50460, Note_on_c, 1, 61, 110
3, 50496, Note_off_c, 1, 55, 64
3, 50508, Note_off_c, 1, 61, 64
3, 50520, Note_on_c, 1, 62, 110
3, 50568, Note_off_c, 1, 62, 64
3, 50580, Note_on_c, 1, 58, 110
3, 50640, Note_on_c, 1, 61, 110
3, 50676, Note_off_c, 1, 58, 64
3, 50688, Note_off_c, 1, 61, 64
3, 50700, Note_on_c, 1, 62, 110
3, 50748, Note_off_c, 1, 62, 64
3, 50760, Note_on_c, 1, 57, 110
3, 50820, Note_on_c, 1, 61, 110
3, 50856, Note_off_c, 1, 57, 64
3, 50868, Note_off_c, 1, 61, 64
3, 50880, Note_on_c, 1, 62, 110
3, 50928, Note_off_c, 1, 62, 64
3, 50940, Note_on_c, 1, 55, 110
3, 51000, Note_on_c, 1, 61, 110
3, 51036, Note_off_c, 1, 55, 64
3, 51048, Note_off_c, 1, 61, 64
3, 51060, Note_on_c, 1, 62, 110
3, 51108, Note_off_c, 1, 62, 64
3, 51120, Note_on_c, 1, 53, 110
3, 51168, Note_off_c, 1, 53, 64
3, 51180, Note_on_c, 1, 61, 110
3, 51228, Note_off_c, 1, 61, 64
3, 51240, Note_on_c, 1, 62, 110
3, 51288, Note_off_c, 1, 62, 64
3, 51300, Note_on_c, 1, 58, 110
3, 51348, Note_off_c, 1, 58, 64
3, 51360, Note_on_c, 1, 57, 110
3, 51408, Note_off_c, 1, 57, 64
3, 51420, Note_on_c, 1, 55, 110
3, 51468, Note_off_c, 1, 55, 64
3, 51480, Note_on_c, 1, 53, 110
3, 51528, Note_off_c, 1, 53, 64
3, 51540, Note_on_c, 1, 52, 110
3, 51588, Note_off_c, 1, 52, 64
3, 51600, Note_on_c, 1, 50, 110
3, 51648, Note_off_c, 1, 50, 64
3, 51660, Note_on_c, 1, 55, 110
3, 51708, Note_off_c, 1, 55, 64
3, 51720, Note_on_c, 1, 57, 110
3, 51768, Note_off_c, 1, 57, 64
3, 51780, Note_on_c, 1, 58, 110
3, 51828, Note_off_c, 1, 58, 64
3, 51840, Note_on_c, 1, 57, 110
3, 51888, Note_off_c, 1, 57, 64
3, 51900, Note_on_c, 1, 58, 110
3, 51948, Note_off_c, 1, 58, 64
3, 51960, Note_on_c, 1, 57, 110
3, 52008, Note_off_c, 1, 57, 64
3, 52020, Note_on_c, 1, 55, 110
3, 52068, Note_off_c, 1, 55, 64
3, 52080, Note_on_c, 1, 58, 110
3, 52128, Note_off_c, 1, 58, 64
3, 52140, Note_on_c, 1, 57, 110
3, 52188, Note_off_c, 1, 57, 64
3, 52200, Note_on_c, 1, 53, 110
3, 52248, Note_off_c, 1, 53, 64
3, 52260, Note_on_c, 1, 58, 110
3, 52308, Note_off_c, 1, 58, 64
3, 52320, Note_on_c, 1, 57, 110
3, 52368, Note_off_c, 1, 57, 64
3, 52380, Note_on_c, 1, 52, 110
3, 52428, Note_off_c, 1, 52, 64
3, 52440, Note_on_c, 1, 58, 110
3, 52488, Note_off_c, 1, 58, 64
3, 52500, Note_on_c, 1, 57, 110
3, 52548, Note_off_c, 1, 57, 64
3, 52560, Note_on_c, 1, 50, 110
3, 52608, Note_off_c, 1, 50, 64
3, 52620, Note_on_c, 1, 58, 110
3, 52668, Note_off_c, 1, 58, 64
3, 52680, Note_on_c, 1, 57, 110
3, 52728, Note_off_c, 1, 57, 64
3, 52740, Note_on_c, 1, 49, 110
3, 52788, Note_off_c, 1, 49, 64
3, 52800, Note_on_c, 1, 50, 110
3, 52848, Note_off_c, 1, 50, 64
3, 52860, Note_on_c, 1, 52, 110
3, 52908, Note_off_c, 1, 52, 64
3, 52920, Note_on_c, 1, 53, 110
3, 52968, Note_off_c, 1, 53, 64
3, 52980, Note_on_c, 1, 55, 110
3, 53028, Note_off_c, 1, 55, 64
3, 53040, Note_on_c, 1, 57, 110
3, 53088, Note_off_c, 1, 57, 64
3, 53100, Note_on_c, 1, 59, 110
3, 53148, Note_off_c, 1, 59, 64
3, 53160, Note_on_c, 1, 61, 110
3, 53208, Note_off_c, 1, 61, 64
3, 53220, Note_on_c, 1, 62, 110
3, 53268, Note_off_c, 1, 62, 64
3, 54360, Note_on_c, 1, 57, 110
3, 54456, Note_off_c, 1, 57, 64
3, 54720, Note_on_c, 1, 58, 110
3, 54744, Note_off_c, 1, 58, 64
3, 54750, Note_on_c, 1, 57, 110
3, 54774, Note_off_c, 1, 57, 64
3, 54780, Note_on_c, 1, 58, 110
3, 54804, Note_off_c, 1, 58, 64
3, 54810, Note_on_c, 1, 57, 110
3, 54834, Note_off_c, 1, 57, 64
3, 54840, Note_on_c, 1, 58, 110
3, 54864, Note_off_c, 1, 58, 64
3, 54870, Note_on_c, 1, 57, 110
3, 54894, Note_off_c, 1, 57, 64
3, 54900, Note_on_c, 1, 58, 110
3, 54924, Note_off_c, 1, 58, 64
3, 54930, Note_on_c, 1, 57, 110
3, 54954, Note_off_c, 1, 57, 64
3, 54960, Note_on_c, 1, 58, 110
3, 54984, Note_off_c, 1, 58, 64
3, 54990, Note_on_c, 1, 57, 110
3, 55014, Note_off_c, 1, 57, 64
3, 55020, Note_on_c, 1, 58, 110
3, 55044, Note_off_c, 1, 58, 64
3, 55050, Note_on_c, 1, 57, 110
3, 55074, Note_off_c, 1, 57, 64
3, 55080, Note_on_c, 1, 58, 110
3, 55104, Note_off_c, 1, 58, 64
3, 55110, Note_on_c, 1, 57, 110
3, 55134, Note_off_c, 1, 57, 64
3, 55140, Note_on_c, 1, 58, 110
3, 55164, Note_off_c, 1, 58, 64
3, 55170, Note_on_c, 1, 57, 110
3, 55194, Note_off_c, 1, 57, 64
3, 55200, Note_on_c, 1, 58, 110
3, 55224, Note_off_c, 1, 58, 64
3, 55230, Note_on_c, 1, 57, 110
3, 55254, Note_off_c, 1, 57, 64
3, 55260, Note_on_c, 1, 58, 110
3, 55284, Note_off_c, 1, 58, 64
3, 55290, Note_on_c, 1, 57, 110
3, 55314, Note_off_c, 1, 57, 64
3, 55320, Note_on_c, 1, 58, 110
3, 55344, Note_off_c, 1, 58, 64
3, 55350, Note_on_c, 1, 57, 110
3, 55374, Note_off_c, 1, 57, 64
3, 55380, Note_on_c, 1, 58, 110
3, 55404, Note_off_c, 1, 58, 64
3, 55410, Note_on_c, 1, 57, 110
3, 55434, Note_off_c, 1, 57, 64
3, 55440, Note_on_c, 1, 58, 110
3, 55464, Note_off_c, 1, 58, 64
3, 55470, Note_on_c, 1, 57, 110
3, 55494, Note_off_c, 1, 57, 64
3, 55500, Note_on_c, 1, 58, 110
3, 55524, Note_off_c, 1, 58, 64
3, 55530, Note_on_c, 1, 57, 110
3, 55554, Note_off_c, 1, 57, 64
3, 55560, Note_on_c, 1, 58, 110
3, 55584, Note_off_c, 1, 58, 64
3, 55590, Note_on_c, 1, 57, 110
3, 55614, Note_off_c, 1, 57, 64
3, 55620, Note_on_c, 1, 58, 110
3, 55644, Note_off_c, 1, 58, 64
3, 55650, Note_on_c, 1, 57, 110
3, 55674, Note_off_c, 1, 57, 64
3, 55680, Note_on_c, 1, 58, 110
3, 55704, Note_off_c, 1, 58, 64
3, 55710, Note_on_c, 1, 57, 110
3, 55734, Note_off_c, 1, 57, 64
3, 55740, Note_on_c, 1, 58, 110
3, 55764, Note_off_c, 1, 58, 64
3, 55770, Note_on_c, 1, 57, 110
3, 55794, Note_off_c, 1, 57, 64
3, 55800, Note_on_c, 1, 58, 110
3, 55824, Note_off_c, 1, 58, 64
3, 55830, Note_on_c, 1, 57, 110
3, 55854, Note_off_c, 1, 57, 64
3, 55860, Note_on_c, 1, 58, 110
3, 55884, Note_off_c, 1, 58, 64
3, 55890, Note_on_c, 1, 57, 110
3, 55914, Note_off_c, 1, 57, 64
3, 55920, Note_on_c, 1, 58, 110
3, 55944, Note_off_c, 1, 58, 64
3, 55950, Note_on_c, 1, 57, 110
3, 55974, Note_off_c, 1, 57, 64
3, 55980, Note_on_c, 1, 58, 110
3, 56004, Note_off_c, 1, 58, 64
3, 56010, Note_on_c, 1, 57, 110
3, 56034, Note_off_c, 1, 57, 64
3, 56040, Note_on_c, 1, 58, 110
3, 56064, Note_off_c, 1, 58, 64
3, 56070, Note_on_c, 1, 57, 110
3, 56094, Note_off_c, 1, 57, 64
3, 56100, Note_on_c, 1, 58, 110
3, 56124, Note_off_c, 1, 58, 64
3, 56130, Note_on_c, 1, 57, 110
3, 56154, Note_off_c, 1, 57, 64
3, 56160, Note_on_c, 1, 50, 110
3, 56208, Note_off_c, 1, 50, 64
3, 56220, Note_on_c, 1, 51, 110
3, 56268, Note_off_c, 1, 51, 64
3, 56280, Note_on_c, 1, 50, 110
3, 56328, Note_off_c, 1, 50, 64
3, 56340, Note_on_c, 1, 48, 110
3, 56388, Note_off_c, 1, 48, 64
3, 56400, Note_on_c, 1, 51, 110
3, 56448, Note_off_c, 1, 51, 64
3, 56460, Note_on_c, 1, 50, 110
3, 56508, Note_off_c, 1, 50, 64
3, 56520, Note_on_c, 1, 46, 110
3, 56568, Note_off_c, 1, 46, 64
3, 56580, Note_on_c, 1, 51, 110
3, 56628, Note_off_c, 1, 51, 64
3, 56640, Note_on_c, 1, 50, 110
3, 56688, Note_off_c, 1, 50, 64
3, 56700, Note_on_c, 1, 45, 110
3, 56748, Note_off_c, 1, 45, 64
3, 56760, Note_on_c, 1, 51, 110
3, 56808, Note_off_c, 1, 51, 64
3, 56820, Note_on_c, 1, 50, 110
3, 56868, Note_off_c, 1, 50, 64
3, 56880, Note_on_c, 1, 43, 110
3, 56928, Note_off_c, 1, 43, 64
3, 56940, Note_on_c, 1, 51, 110
3, 56988, Note_off_c, 1, 51, 64
3, 57000, Note_on_c, 1, 50, 110
3, 57048, Note_off_c, 1, 50, 64
3, 57060, Note_on_c, 1, 42, 110
3, 57108, Note_off_c, 1, 42, 64
3, 57120, Note_on_c, 1, 43, 110
3, 57168, Note_off_c, 1, 43, 64
3, 57180, Note_on_c, 1, 45, 110
3, 57228, Note_off_c, 1, 45, 64
3, 57240, Note_on_c, 1, 46, 110
3, 57288, Note_off_c, 1, 46, 64
3, 57300, Note_on_c, 1, 43, 110
3, 57348, Note_off_c, 1, 43, 64
3, 57360, Note_on_c, 1, 49, 110
3, 57408, Note_off_c, 1, 49, 64
3, 57420, Note_on_c, 1, 38, 110
3, 57564, Note_off_c, 1, 38, 64
3, 57600, Note_on_c, 1, 64, 110
3, 57648, Note_off_c, 1, 64, 64
3, 57660, Note_on_c, 1, 65, 110
3, 57708, Note_off_c, 1, 65, 64
3, 57720, Note_on_c, 1, 64, 110
3, 57768, Note_off_c, 1, 64, 64
3, 57780, Note_on_c, 1, 62, 110
3, 57828, Note_off_c, 1, 62, 64
3, 57840, Note_on_c, 1, 65, 110
3, 57888, Note_off_c, 1, 65, 64
3, 57900, Note_on_c, 1, 64, 110
3, 57948, Note_off_c, 1, 64, 64
3, 57960, Note_on_c, 1, 60, 110
3, 58008, Note_off_c, 1, 60, 64
3, 58020, Note_on_c, 1, 65, 110
3, 58068, Note_off_c, 1, 65, 64
3, 58080, Note_on_c, 1, 64, 110
3, 58128, Note_off_c, 1, 64, 64
3, 58140, Note_on_c, 1, 59, 110
3, 58188, Note_off_c, 1, 59, 64
3, 58200, Note_on_c, 1, 65, 110
3, 58248, Note_off_c, 1, 65, 64
3, 58260, Note_on_c, 1, 64, 110
3, 58308, Note_off_c, 1, 64, 64
3, 58320, Note_on_c, 1, 57, 110
3, 58368, Note_off_c, 1, 57, 64
3, 58380, Note_on_c, 1, 65, 110
3, 58428, Note_off_c, 1, 65, 64
3, 58440, Note_on_c, 1, 64, 110
3, 58488, Note_off_c, 1, 64, 64
3, 58500, Note_on_c, 1, 56, 110
3, 58548, Note_off_c, 1, 56, 64
3, 58560, Note_on_c, 1, 57, 110
3, 58608, Note_off_c, 1, 57, 64
3, 58620, Note_on_c, 1, 59, 110
3, 58668, Note_off_c, 1, 59, 64
3, 58680, Note_on_c, 1, 61, 110
3, 58728, Note_off_c, 1, 61, 64
3, 58740, Note_on_c, 1, 62, 110
3, 58788, Note_off_c, 1, 62, 64
3, 58800, Note_on_c, 1, 64, 110
3, 58848, Note_off_c, 1, 64, 64
3, 58860, Note_on_c, 1, 58, 110
3, 58908, Note_off_c, 1, 58, 64
3, 58920, Note_on_c, 1, 57, 110
3, 58968, Note_off_c, 1, 57, 64
3, 58980, Note_on_c, 1, 55, 110
3, 59028, Note_off_c, 1, 55, 64
3, 59040, Note_on_c, 1, 53, 110
3, 59136, Note_off_c, 1, 53, 64
3, 59220, Note_on_c, 1, 58, 110
3, 59316, Note_off_c, 1, 58, 64
3, 59400, Note_on_c, 1, 57, 110
3, 59496, Note_off_c, 1, 57, 64
3, 59580, Note_on_c, 1, 55, 110
3, 59676, Note_off_c, 1, 55, 64
3, 59760, Note_on_c, 1, 53, 110
3, 59856, Note_off_c, 1, 53, 64
3, 59940, Note_on_c, 1, 52, 110
3, 59988, Note_off_c, 1, 52, 64
3, 60000, Note_on_c, 1, 50, 110
3, 60048, Note_off_c, 1, 50, 64
3, 60060, Note_on_c, 1, 49, 110
3, 60108, Note_off_c, 1, 49, 64
3, 60120, Note_on_c, 1, 50, 110
3, 60168, Note_off_c, 1, 50, 64
3, 60180, Note_on_c, 1, 52, 110
3, 60228, Note_off_c, 1, 52, 64
3, 60240, Note_on_c, 1, 54, 110
3, 60288, Note_off_c, 1, 54, 64
3, 60300, Note_on_c, 1, 54, 110
3, 60348, Note_off_c, 1, 54, 64
3, 60360, Note_on_c, 1, 55, 110
3, 60408, Note_off_c, 1, 55, 64
3, 60420, Note_on_c, 1, 57, 110
3, 60468, Note_off_c, 1, 57, 64
3, 60480, Note_on_c, 1, 57, 110
3, 60528, Note_off_c, 1, 57, 64
3, 60540, Note_on_c, 1, 59, 110
3, 60588, Note_off_c, 1, 59, 64
3, 60600, Note_on_c, 1, 60, 110
3, 60648, Note_off_c, 1, 60, 64
3, 60660, Note_on_c, 1, 60, 110
3, 60684, Note_off_c, 1, 60, 64
3, 60690, Note_on_c, 1, 59, 110
3, 60714, Note_off_c, 1, 59, 64
3, 60720, Note_on_c, 1, 60, 110
3, 60816, Note_off_c, 1, 60, 64
3, 60840, Note_on_c, 1, 59, 110
3, 60888, Note_off_c, 1, 59, 64
3, 60900, Note_on_c, 1, 57, 110
3, 60948, Note_off_c, 1, 57, 64
3, 60960, Note_on_c, 1, 56, 110
3, 61008, Note_off_c, 1, 56, 64
3, 61020, Note_on_c, 1, 56, 110
3, 61068, Note_off_c, 1, 56, 64
3, 61080, Note_on_c, 1, 57, 110
3, 61128, Note_off_c, 1, 57, 64
3, 61140, Note_on_c, 1, 59, 110
3, 61188, Note_off_c, 1, 59, 64
3, 61200, Note_on_c, 1, 59, 110
3, 61224, Note_off_c, 1, 59, 64
3, 61230, Note_on_c, 1, 57, 110
3, 61254, Note_off_c, 1, 57, 64
3, 61260, Note_on_c, 1, 59, 110
3, 61284, Note_off_c, 1, 59, 64
3, 61290, Note_on_c, 1, 57, 110
3, 61314, Note_off_c, 1, 57, 64
3, 61320, Note_on_c, 1, 59, 110
3, 61344, Note_off_c, 1, 59, 64
3, 61350, Note_on_c, 1, 57, 110
3, 61374, Note_off_c, 1, 57, 64
3, 61380, Note_on_c, 1, 59, 110
3, 61404, Note_off_c, 1, 59, 64
3, 61410, Note_on_c, 1, 57, 110
3, 61434, Note_off_c, 1, 57, 64
3, 61440, Note_on_c, 1, 59, 110
3, 61464, Note_off_c, 1, 59, 64
3, 61470, Note_on_c, 1, 57, 110
3, 61494, Note_off_c, 1, 57, 64
3, 61500, Note_on_c, 1, 59, 110
3, 61524, Note_off_c, 1, 59, 64
3, 61530, Note_on_c, 1, 57, 110
3, 61554, Note_off_c, 1, 57, 64
3, 61560, Note_on_c, 1, 59, 110
3, 61584, Note_off_c, 1, 59, 64
3, 61590, Note_on_c, 1, 57, 110
3, 61614, Note_off_c, 1, 57, 64
3, 61620, Note_on_c, 1, 59, 110
3, 61644, Note_off_c, 1, 59, 64
3, 61650, Note_on_c, 1, 57, 110
3, 61674, Note_off_c, 1, 57, 64
3, 61680, Note_on_c, 1, 59, 110
3, 61704, Note_off_c, 1, 59, 64
3, 61710, Note_on_c, 1, 57, 110
3, 61734, Note_off_c, 1, 57, 64
3, 61740, Note_on_c, 1, 59, 110
3, 61764, Note_off_c, 1, 59, 64
3, 61770, Note_on_c, 1, 57, 110
3, 61794, Note_off_c, 1, 57, 64
3, 61800, Note_on_c, 1, 59, 110
3, 61824, Note_off_c, 1, 59, 64
3, 61830, Note_on_c, 1, 57, 110
3, 61854, Note_off_c, 1, 57, 64
3, 61860, Note_on_c, 1, 59, 110
3, 61884, Note_off_c, 1, 59, 64
3, 61890, Note_on_c, 1, 57, 110
3, 61914, Note_off_c, 1, 57, 64
3, 61920, Note_on_c, 1, 57, 110
3, 62016, Note_off_c, 1, 57, 64
3, 62100, Note_on_c, 1, 59, 110
3, 62148, Note_off_c, 1, 59, 64
3, 62160, Note_on_c, 1, 57, 110
3, 62208, Note_off_c, 1, 57, 64
3, 62220, Note_on_c, 1, 56, 110
3, 62268, Note_off_c, 1, 56, 64
3, 62280, Note_on_c, 1, 57, 110
3, 62328, Note_off_c, 1, 57, 64
3, 62340, Note_on_c, 1, 59, 110
3, 62388, Note_off_c, 1, 59, 64
3, 62400, Note_on_c, 1, 61, 110
3, 62448, Note_off_c, 1, 61, 64
3, 62460, Note_on_c, 1, 61, 110
3, 62508, Note_off_c, 1, 61, 64
3, 62520, Note_on_c, 1, 62, 110
3, 62568, Note_off_c, 1, 62, 64
3, 62580, Note_on_c, 1, 64, 110
3, 62628, Note_off_c, 1, 64, 64
3, 62640, Note_on_c, 1, 50, 110
3, 62688, Note_off_c, 1, 50, 64
3, 62700, Note_on_c, 1, 51, 110
3, 62748, Note_off_c, 1, 51, 64
3, 62760, Note_on_c, 1, 50, 110
3, 62808, Note_off_c, 1, 50, 64
3, 62820, Note_on_c, 1, 48, 110
3, 62868, Note_off_c, 1, 48, 64
3, 62880, Note_on_c, 1, 51, 110
3, 62928, Note_off_c, 1, 51, 64
3, 62940, Note_on_c, 1, 50, 110
3, 62988, Note_off_c, 1, 50, 64
3, 63000, Note_on_c, 1, 46, 110
3, 63048, Note_off_c, 1, 46, 64
3, 63060, Note_on_c, 1, 51, 110
3, 63108, Note_off_c, 1, 51, 64
3, 63120, Note_on_c, 1, 50, 110
3, 63168, Note_off_c, 1, 50, 64
3, 63180, Note_on_c, 1, 45, 110
3, 63228, Note_off_c, 1, 45, 64
3, 63240, Note_on_c, 1, 51, 110
3, 63288, Note_off_c, 1, 51, 64
3, 63300, Note_on_c, 1, 50, 110
3, 63348, Note_off_c, 1, 50, 64
3, 63360, Note_on_c, 1, 43, 110
3, 63408, Note_off_c, 1, 43, 64
3, 63420, Note_on_c, 1, 51, 110
3, 63468, Note_off_c, 1, 51, 64
3, 63480, Note_on_c, 1, 50, 110
3, 63528, Note_off_c, 1, 50, 64
3, 63540, Note_on_c, 1, 42, 110
3, 63588, Note_off_c, 1, 42, 64
3, 63600, Note_on_c, 1, 43, 110
3, 63648, Note_off_c, 1, 43, 64
3, 63660, Note_on_c, 1, 45, 110
3, 63708, Note_off_c, 1, 45, 64
3, 63720, Note_on_c, 1, 47, 110
3, 63768, Note_off_c, 1, 47, 64
3, 63780, Note_on_c, 1, 48, 110
3, 63828, Note_off_c, 1, 48, 64
3, 63840, Note_on_c, 1, 50, 110
3, 63888, Note_off_c, 1, 50, 64
3, 63900, Note_on_c, 1, 44, 110
3, 63948, Note_off_c, 1, 44, 64
3, 63960, Note_on_c, 1, 43, 110
3, 64008, Note_off_c, 1, 43, 64
3, 64020, Note_on_c, 1, 41, 110
3, 64068, Note_off_c, 1, 41, 64
3, 64080, Note_on_c, 1, 40, 110
3, 64128, Note_off_c, 1, 40, 64
3, 64140, Note_on_c, 1, 38, 110
3, 64188, Note_off_c, 1, 38, 64
3, 64200, Note_on_c, 1, 37, 110
3, 64248, Note_off_c, 1, 37, 64
3, 64260, Note_on_c, 1, 44, 110
3, 64308, Note_off_c, 1, 44, 64
3, 64320, Note_on_c, 1, 45, 110
3, 64368, Note_off_c, 1, 45, 64
3, 64380, Note_on_c, 1, 47, 110
3, 64428, Note_off_c, 1, 47, 64
3, 64440, Note_on_c, 1, 49, 110
3, 64488, Note_off_c, 1, 49, 64
3, 64500, Note_on_c, 1, 50, 110
3, 64548, Note_off_c, 1, 50, 64
3, 64560, Note_on_c, 1, 52, 110
3, 64608, Note_off_c, 1, 52, 64
3, 64620, Note_on_c, 1, 46, 110
3, 64668, Note_off_c, 1, 46, 64
3, 64680, Note_on_c, 1, 45, 110
3, 64728, Note_off_c, 1, 45, 64
3, 64740, Note_on_c, 1, 43, 110
3, 64788, Note_off_c, 1, 43, 64
3, 64800, Note_on_c, 1, 42, 110
3, 64857, Note_off_c, 1, 42, 64
3, 64860, Note_on_c, 1, 40, 110
3, 64917, Note_off_c, 1, 40, 64
3, 64920, Note_on_c, 1, 38, 110
3, 64977, Note_off_c, 1, 38, 64
3, 64980, Note_on_c, 1, 48, 110
3, 65040, Note_on_c, 1, 42, 110
3, 65076, Note_off_c, 1, 48, 64
3, 65088, Note_off_c, 1, 42, 64
3, 65100, Note_on_c, 1, 40, 110
3, 65148, Note_off_c, 1, 40, 64
3, 65160, Note_on_c, 1, 50, 110
3, 65220, Note_on_c, 1, 43, 110
3, 65256, Note_off_c, 1, 50, 64
3, 65268, Note_off_c, 1, 43, 64
3, 65280, Note_on_c, 1, 42, 110
3, 65328, Note_off_c, 1, 42, 64
3, 65340, Note_on_c, 1, 52, 110
3, 65400, Note_on_c, 1, 45, 110
3, 65436, Note_off_c, 1, 52, 64
3, 65448, Note_off_c, 1, 45, 64
3, 65460, Note_on_c, 1, 43, 110
3, 65508, Note_off_c, 1, 43, 64
3, 65520, Note_on_c, 1, 54, 110
3, 65580, Note_on_c, 1, 46, 110
3, 65616, Note_off_c, 1, 54, 64
3, 65628, Note_off_c, 1, 46, 64
3, 65640, Note_on_c, 1, 45, 110
3, 65688, Note_off_c, 1, 45, 64
3, 65700, Note_on_c, 1, 53, 110
3, 65760, Note_on_c, 1, 48, 110
3, 65796, Note_off_c, 1, 53, 64
3, 65808, Note_off_c, 1, 48, 64
3, 65820, Note_on_c, 1, 47, 110
3, 65868, Note_off_c, 1, 47, 64
3, 65880, Note_on_c, 1, 52, 110
3, 65940, Note_on_c, 1, 50, 110
3, 65976, Note_off_c, 1, 52, 64
3, 65988, Note_off_c, 1, 50, 64
3, 66000, Note_on_c, 1, 49, 110
3, 66060, Note_on_c, 1, 58, 110
3, 66108, Note_off_c, 1, 49, 64
3, 66120, Note_on_c, 1, 50, 110
3, 66156, Note_off_c, 1, 58, 64
3, 66168, Note_off_c, 1, 50, 64
3, 66180, Note_on_c, 1, 52, 110
3, 66228, Note_off_c, 1, 52, 64
3, 66240, Note_on_c, 1, 57, 110
3, 66240, Note_on_c, 1, 53, 110
3, 66336, Note_off_c, 1, 53, 64
3, 66336, Note_off_c, 1, 57, 64
3, 66420, Note_on_c, 1, 58, 110
3, 66420, Note_on_c, 1, 64, 110
3, 66444, Note_off_c, 1, 64, 64
3, 66450, Note_on_c, 1, 62, 110
3, 66474, Note_off_c, 1, 62, 64
3, 66480, Note_on_c, 1, 64, 110
3, 66504, Note_off_c, 1, 64, 64
3, 66510, Note_on_c, 1, 62, 110
3, 66516, Note_off_c, 1, 58, 64
3, 66534, Note_off_c, 1, 62, 64
3, 66540, Note_on_c, 1, 64, 110
3, 66564, Note_off_c, 1, 64, 64
3, 66570, Note_on_c, 1, 62, 110
3, 66594, Note_off_c, 1, 62, 64
3, 66600, Note_on_c, 1, 64, 110
3, 66600, Note_on_c, 1, 57, 110
3, 66624, Note_off_c, 1, 64, 64
3, 66630, Note_on_c, 1, 62, 110
3, 66654, Note_off_c, 1, 62, 64
3, 66660, Note_on_c, 1, 64, 110
3, 66684, Note_off_c, 1, 64, 64
3, 66690, Note_on_c, 1, 62, 110
3, 66696, Note_off_c, 1, 57, 64
3, 66714, Note_off_c, 1, 62, 64
3, 66720, Note_on_c, 1, 64, 110
3, 66744, Note_off_c, 1, 64, 64
3, 66750, Note_on_c, 1, 62, 110
3, 66774, Note_off_c, 1, 62, 64
3, 66780, Note_on_c, 1, 64, 110
3, 66780, Note_on_c, 1, 55, 110
3, 66804, Note_off_c, 1, 64, 64
3, 66810, Note_on_c, 1, 62, 110
3, 66834, Note_off_c, 1, 62, 64
3, 66840, Note_on_c, 1, 64, 110
3, 66864, Note_off_c, 1, 64, 64
3, 66870, Note_on_c, 1, 62, 110
3, 66876, Note_off_c, 1, 55, 64
3, 66894, Note_off_c, 1, 62, 64
3, 66900, Note_on_c, 1, 64, 110
3, 66924, Note_off_c, 1, 64, 64
3, 66930, Note_on_c, 1, 62, 110
3, 66960, Note_on_c, 1, 53, 110
3, 67056, Note_off_c, 1, 62, 64
3, 67056, Note_off_c, 1, 53, 64
3, 67140, Note_on_c, 1, 58, 110
3, 67140, Note_on_c, 1, 55, 110
3, 67236, Note_off_c, 1, 55, 64
3, 67236, Note_off_c, 1, 58, 64
3, 67320, Note_on_c, 1, 57, 110
3, 67320, Note_on_c, 1, 60, 110
3, 67416, Note_off_c, 1, 60, 64
3, 67416, Note_off_c, 1, 57, 64
3, 67500, Note_on_c, 1, 54, 110
3, 67500, Note_on_c, 1, 57, 110
3, 67596, Note_off_c, 1, 57, 64
3, 67596, Note_off_c, 1, 54, 64
3, 67680, Note_on_c, 1, 56, 110
3, 67776, Note_off_c, 1, 62, 64
3, 67776, Note_off_c, 1, 56, 64
3, 67860, Note_on_c, 1, 60, 110
3, 67860, Note_on_c, 1, 57, 110
3, 67956, Note_off_c, 1, 57, 64
3, 67956, Note_off_c, 1, 60, 64
3, 68040, Note_on_c, 1, 62, 110
3, 68040, Note_on_c, 1, 59, 110
3, 68136, Note_off_c, 1, 59, 64
3, 68136, Note_off_c, 1, 62, 64
3, 68220, Note_on_c, 1, 59, 110
3, 68220, Note_on_c, 1, 56, 110
3, 68316, Note_off_c, 1, 56, 64
3, 68316, Note_off_c, 1, 59, 64
3, 68400, Note_on_c, 1, 57, 110
3, 68400, Note_on_c, 1, 64, 110
3, 68496, Note_off_c, 1, 64, 64
3, 68496, Note_off_c, 1, 57, 64
3, 68580, Note_on_c, 1, 45, 110
3, 68628, Note_off_c, 1, 45, 64
3, 68640, Note_on_c, 1, 47, 110
3, 68688, Note_off_c, 1, 47, 64
3, 68700, Note_on_c, 1, 49, 110
3, 68748, Note_off_c, 1, 49, 64
3, 68760, Note_on_c, 1, 50, 110
3, 68808, Note_off_c, 1, 50, 64
3, 68820, Note_on_c, 1, 52, 110
3, 68868, Note_off_c, 1, 52, 64
3, 68880, Note_on_c, 1, 54, 110
3, 68928, Note_off_c, 1, 54, 64
3, 68940, Note_on_c, 1, 56, 110
3, 68988, Note_off_c, 1, 56, 64
3, 69000, Note_on_c, 1, 57, 110
3, 69048, Note_off_c, 1, 57, 64
3, 69060, Note_on_c, 1, 59, 110
3, 69108, Note_off_c, 1, 59, 64
3, 69120, Note_on_c, 1, 45, 110
3, 69168, Note_off_c, 1, 45, 64
3, 69180, Note_on_c, 1, 46, 110
3, 69228, Note_off_c, 1, 46, 64
3, 69240, Note_on_c, 1, 45, 110
3, 69288, Note_off_c, 1, 45, 64
3, 69300, Note_on_c, 1, 43, 110
3, 69348, Note_off_c, 1, 43, 64
3, 69360, Note_on_c, 1, 46, 110
3, 69408, Note_off_c, 1, 46, 64
3, 69420, Note_on_c, 1, 45, 110
3, 69468, Note_off_c, 1, 45, 64
3, 69480, Note_on_c, 1, 41, 110
3, 69528, Note_off_c, 1, 41, 64
3, 69540, Note_on_c, 1, 46, 110
3, 69588, Note_off_c, 1, 46, 64
3, 69600, Note_on_c, 1, 45, 110
3, 69648, Note_off_c, 1, 45, 64
3, 69660, Note_on_c, 1, 40, 110
3, 69708, Note_off_c, 1, 40, 64
3, 69720, Note_on_c, 1, 46, 110
3, 69768, Note_off_c, 1, 46, 64
3, 69780, Note_on_c, 1, 45, 110
3, 69828, Note_off_c, 1, 45, 64
3, 69840, Note_on_c, 1, 38, 110
3, 69888, Note_off_c, 1, 38, 64
3, 69900, Note_on_c, 1, 46, 110
3, 69948, Note_off_c, 1, 46, 64
3, 69960, Note_on_c, 1, 45, 110
3, 70008, Note_off_c, 1, 45, 64
3, 70020, Note_on_c, 1, 37, 110
3, 70068, Note_off_c, 1, 37, 64
3, 70080, Note_on_c, 1, 38, 110
3, 70128, Note_off_c, 1, 38, 64
3, 70140, Note_on_c, 1, 40, 110
3, 70188, Note_off_c, 1, 40, 64
3, 70200, Note_on_c, 1, 42, 110
3, 70248, Note_off_c, 1, 42, 64
3, 70260, Note_on_c, 1, 43, 110
3, 70308, Note_off_c, 1, 43, 64
3, 70320, Note_on_c, 1, 45, 110
3, 70368, Note_off_c, 1, 45, 64
3, 70380, Note_on_c, 1, 39, 110
3, 70428, Note_off_c, 1, 39, 64
3, 70440, Note_on_c, 1, 40, 110
3, 70488, Note_off_c, 1, 40, 64
3, 70500, Note_on_c, 1, 42, 110
3, 70548, Note_off_c, 1, 42, 64
3, 70560, Note_on_c, 1, 43, 110
3, 70608, Note_off_c, 1, 43, 64
3, 70620, Note_on_c, 1, 45, 110
3, 70668, Note_off_c, 1, 45, 64
3, 70680, Note_on_c, 1, 47, 110
3, 70728, Note_off_c, 1, 47, 64
3, 70740, Note_on_c, 1, 44, 110
3, 70788, Note_off_c, 1, 44, 64
3, 70800, Note_on_c, 1, 45, 110
3, 70848, Note_off_c, 1, 45, 64
3, 70860, Note_on_c, 1, 47, 110
3, 70908, Note_off_c, 1, 47, 64
3, 70920, Note_on_c, 1, 49, 110
3, 70968, Note_off_c, 1, 49, 64
3, 70980, Note_on_c, 1, 50, 110
3, 71028, Note_off_c, 1, 50, 64
3, 71040, Note_on_c, 1, 52, 110
3, 71088, Note_off_c, 1, 52, 64
3, 71100, Note_on_c, 1, 46, 110
3, 71148, Note_off_c, 1, 46, 64
3, 71160, Note_on_c, 1, 45, 110
3, 71208, Note_off_c, 1, 45, 64
3, 71220, Note_on_c, 1, 43, 110
3, 71268, Note_off_c, 1, 43, 64
3, 71280, Note_on_c, 1, 53, 110
3, 71340, Note_on_c, 1, 45, 110
3, 71376, Note_off_c, 1, 53, 64
3, 71388, Note_off_c, 1, 45, 64
3, 71400, Note_on_c, 1, 44, 110
3, 71448, Note_off_c, 1, 44, 64
3, 71460, Note_on_c, 1, 54, 110
3, 71520, Note_on_c, 1, 46, 110
3, 71556, Note_off_c, 1, 54, 64
3, 71568, Note_off_c, 1, 46, 64
3, 71580, Note_on_c, 1, 45, 110
3, 71628, Note_off_c, 1, 45, 64
3, 71640, Note_on_c, 1, 55, 110
3, 71700, Note_on_c, 1, 46, 110
3, 71736, Note_off_c, 1, 55, 64
3, 71748, Note_off_c, 1, 46, 64
3, 71760, Note_on_c, 1, 45, 110
3, 71808, Note_off_c, 1, 45, 64
3, 71820, Note_on_c, 1, 56, 110
3, 71880, Note_on_c, 1, 48, 110
3, 71916, Note_off_c, 1, 56, 64
3, 71928, Note_off_c, 1, 48, 64
3, 71940, Note_on_c, 1, 47, 110
3, 71988, Note_off_c, 1, 47, 64
3, 72000, Note_on_c, 1, 57, 110
3, 72060, Note_on_c, 1, 48, 110
3, 72096, Note_off_c, 1, 57, 64
3, 72108, Note_off_c, 1, 48, 64
3, 72120, Note_on_c, 1, 47, 110
3, 72168, Note_off_c, 1, 47, 64
3, 72180, Note_on_c, 1, 52, 110
3, 72240, Note_on_c, 1, 50, 110
3, 72276, Note_off_c, 1, 52, 64
3, 72288, Note_off_c, 1, 50, 64
3, 72300, Note_on_c, 1, 49, 110
3, 72348, Note_off_c, 1, 49, 64
3, 72360, Note_on_c, 1, 58, 110
3, 72420, Note_on_c, 1, 50, 110
3, 72456, Note_off_c, 1, 58, 64
3, 72468, Note_off_c, 1, 50, 64
3, 72480, Note_on_c, 1, 49, 110
3, 72528, Note_off_c, 1, 49, 64
3, 72540, Note_on_c, 1, 59, 110
3, 72600, Note_on_c, 1, 52, 110
3, 72636, Note_off_c, 1, 59, 64
3, 72648, Note_off_c, 1, 52, 64
3, 72660, Note_on_c, 1, 51, 110
3, 72708, Note_off_c, 1, 51, 64
3, 72720, Note_on_c, 1, 60, 110
3, 72780, Note_on_c, 1, 52, 110
3, 72816, Note_off_c, 1, 60, 64
3, 72828, Note_off_c, 1, 52, 64
3, 72840, Note_on_c, 1, 51, 110
3, 72888, Note_off_c, 1, 51, 64
3, 72900, Note_on_c, 1, 61, 110
3, 72960, Note_on_c, 1, 53, 110
3, 72996, Note_off_c, 1, 61, 64
3, 73008, Note_off_c, 1, 53, 64
3, 73020, Note_on_c, 1, 52, 110
3, 73068, Note_off_c, 1, 52, 64
3, 73080, Note_on_c, 1, 62, 110
3, 73140, Note_on_c, 1, 53, 110
3, 73176, Note_off_c, 1, 62, 64
3, 73188, Note_off_c, 1, 53, 64
3, 73200, Note_on_c, 1, 52, 110
3, 73248, Note_off_c, 1, 52, 64
3, 73260, Note_on_c, 1, 57, 110
3, 73320, Note_on_c, 1, 55, 110
3, 73356, Note_off_c, 1, 57, 64
3, 73368, Note_off_c, 1, 55, 64
3, 73380, Note_on_c, 1, 54, 110
3, 73428, Note_off_c, 1, 54, 64
3, 73440, Note_on_c, 1, 55, 110
3, 73440, Note_on_c, 1, 58, 110
3, 73488, Note_off_c, 1, 58, 64
3, 73500, Note_on_c, 1, 61, 110
3, 73536, Note_off_c, 1, 55, 64
3, 73548, Note_off_c, 1, 61, 64
3, 73560, Note_on_c, 1, 62, 110
3, 73608, Note_off_c, 1, 62, 64
3, 73620, Note_on_c, 1, 58, 110
3, 73680, Note_on_c, 1, 61, 110
3, 73716, Note_off_c, 1, 58, 64
3, 73728, Note_off_c, 1, 61, 64
3, 73740, Note_on_c, 1, 62, 110
3, 73788, Note_off_c, 1, 62, 64
3, 73800, Note_on_c, 1, 57, 110
3, 73860, Note_on_c, 1, 61, 110
3, 73896, Note_off_c, 1, 57, 64
3, 73908, Note_off_c, 1, 61, 64
3, 73920, Note_on_c, 1, 62, 110
3, 73968, Note_off_c, 1, 62, 64
3, 73980, Note_on_c, 1, 55, 110
3, 74040, Note_on_c, 1, 61, 110
3, 74076, Note_off_c, 1, 55, 64
3, 74088, Note_off_c, 1, 61, 64
3, 74100, Note_on_c, 1, 62, 110
3, 74148, Note_off_c, 1, 62, 64
3, 74160, Note_on_c, 1, 53, 110
3, 74208, Note_off_c, 1, 53, 64
3, 74220, Note_on_c, 1, 61, 110
3, 74268, Note_off_c, 1, 61, 64
3, 74280, Note_on_c, 1, 62, 110
3, 74328, Note_off_c, 1, 62, 64
3, 74340, Note_on_c, 1, 58, 110
3, 74388, Note_off_c, 1, 58, 64
3, 74400, Note_on_c, 1, 57, 110
3, 74448, Note_off_c, 1, 57, 64
3, 74460, Note_on_c, 1, 55, 110
3, 74508, Note_off_c, 1, 55, 64
3, 74520, Note_on_c, 1, 53, 110
3, 74568, Note_off_c, 1, 53, 64
3, 74580, Note_on_c, 1, 52, 110
3, 74628, Note_off_c, 1, 52, 64
3, 74640, Note_on_c, 1, 50, 110
3, 74688, Note_off_c, 1, 50, 64
3, 74700, Note_on_c, 1, 55, 110
3, 74748, Note_off_c, 1, 55, 64
3, 74760, Note_on_c, 1, 57, 110
3, 74808, Note_off_c, 1, 57, 64
3, 74820, Note_on_c, 1, 58, 110
3, 74868, Note_off_c, 1, 58, 64
3, 74880, Note_on_c, 1, 57, 110
3, 74928, Note_off_c, 1, 57, 64
3, 74940, Note_on_c, 1, 58, 110
3, 74988, Note_off_c, 1, 58, 64
3, 75000, Note_on_c, 1, 57, 110
3, 75048, Note_off_c, 1, 57, 64
3, 75060, Note_on_c, 1, 55, 110
3, 75108, Note_off_c, 1, 55, 64
3, 75120, Note_on_c, 1, 58, 110
3, 75168, Note_off_c, 1, 58, 64
3, 75180, Note_on_c, 1, 57, 110
3, 75228, Note_off_c, 1, 57, 64
3, 75240, Note_on_c, 1, 53, 110
3, 75288, Note_off_c, 1, 53, 64
3, 75300, Note_on_c, 1, 58, 110
3, 75348, Note_off_c, 1, 58, 64
3, 75360, Note_on_c, 1, 57, 110
3, 75408, Note_off_c, 1, 57, 64
3, 75420, Note_on_c, 1, 52, 110
3, 75468, Note_off_c, 1, 52, 64
3, 75480, Note_on_c, 1, 58, 110
3, 75528, Note_off_c, 1, 58, 64
3, 75540, Note_on_c, 1, 57, 110
3, 75588, Note_off_c, 1, 57, 64
3, 75600, Note_on_c, 1, 50, 110
3, 75648, Note_off_c, 1, 50, 64
3, 75660, Note_on_c, 1, 58, 110
3, 75708, Note_off_c, 1, 58, 64
3, 75720, Note_on_c, 1, 57, 110
3, 75768, Note_off_c, 1, 57, 64
3, 75780, Note_on_c, 1, 49, 110
3, 75828, Note_off_c, 1, 49, 64
3, 75840, Note_on_c, 1, 50, 110
3, 75888, Note_off_c, 1, 50, 64
3, 75900, Note_on_c, 1, 52, 110
3, 75948, Note_off_c, 1, 52, 64
3, 75960, Note_on_c, 1, 53, 110
3, 76008, Note_off_c, 1, 53, 64
3, 76020, Note_on_c, 1, 55, 110
3, 76068, Note_off_c, 1, 55, 64
3, 76080, Note_on_c, 1, 57, 110
3, 76128, Note_off_c, 1, 57, 64
3, 76140, Note_on_c, 1, 59, 110
3, 76188, Note_off_c, 1, 59, 64
3, 76200, Note_on_c, 1, 61, 110
3, 76248, Note_off_c, 1, 61, 64
3, 76260, Note_on_c, 1, 62, 110
3, 76308, Note_off_c, 1, 62, 64
3, 77400, Note_on_c, 1, 57, 110
3, 77496, Note_off_c, 1, 57, 64
3, 77760, Note_on_c, 1, 58, 110
3, 77784, Note_off_c, 1, 58, 64
3, 77790, Note_on_c, 1, 57, 110
3, 77814, Note_off_c, 1, 57, 64
3, 77820, Note_on_c, 1, 58, 110
3, 77844, Note_off_c, 1, 58, 64
3, 77850, Note_on_c, 1, 57, 110
3, 77874, Note_off_c, 1, 57, 64
3, 77880, Note_on_c, 1, 58, 110
3, 77904, Note_off_c, 1, 58, 64
3, 77910, Note_on_c, 1, 57, 110
3, 77934, Note_off_c, 1, 57, 64
3, 77940, Note_on_c, 1, 58, 110
3, 77964, Note_off_c, 1, 58, 64
3, 77970, Note_on_c, 1, 57, 110
3, 77994, Note_off_c, 1, 57, 64
3, 78000, Note_on_c, 1, 58, 110
3, 78024, Note_off_c, 1, 58, 64
3, 78030, Note_on_c, 1, 57, 110
3, 78054, Note_off_c, 1, 57, 64
3, 78060, Note_on_c, 1, 58, 110
3, 78084, Note_off_c, 1, 58, 64
3, 78090, Note_on_c, 1, 57, 110
3, 78114, Note_off_c, 1, 57, 64
3, 78120, Note_on_c, 1, 58, 110
3, 78144, Note_off_c, 1, 58, 64
3, 78150, Note_on_c, 1, 57, 110
3, 78174, Note_off_c, 1, 57, 64
3, 78180, Note_on_c, 1, 58, 110
3, 78204, Note_off_c, 1, 58, 64
3, 78210, Note_on_c, 1, 57, 110
3, 78234, Note_off_c, 1, 57, 64
3, 78240, Note_on_c, 1, 58, 110
3, 78264, Note_off_c, 1, 58, 64
3, 78270, Note_on_c, 1, 57, 110
3, 78294, Note_off_c, 1, 57, 64
3, 78300, Note_on_c, 1, 58, 110
3, 78324, Note_off_c, 1, 58, 64
3, 78330, Note_on_c, 1, 57, 110
3, 78354, Note_off_c, 1, 57, 64
3, 78360, Note_on_c, 1, 58, 110
3, 78384, Note_off_c, 1, 58, 64
3, 78390, Note_on_c, 1, 57, 110
3, 78414, Note_off_c, 1, 57, 64
3, 78420, Note_on_c, 1, 58, 110
3, 78444, Note_off_c, 1, 58, 64
3, 78450, Note_on_c, 1, 57, 110
3, 78474, Note_off_c, 1, 57, 64
3, 78480, Note_on_c, 1, 58, 110
3, 78504, Note_off_c, 1, 58, 64
3, 78510, Note_on_c, 1, 57, 110
3, 78534, Note_off_c, 1, 57, 64
3, 78540, Note_on_c, 1, 58, 110
3, 78564, Note_off_c, 1, 58, 64
3, 78570, Note_on_c, 1, 57, 110
3, 78594, Note_off_c, 1, 57, 64
3, 78600, Note_on_c, 1, 58, 110
3, 78624, Note_off_c, 1, 58, 64
3, 78630, Note_on_c, 1, 57, 110
3, 78654, Note_off_c, 1, 57, 64
3, 78660, Note_on_c, 1, 58, 110
3, 78684, Note_off_c, 1, 58, 64
3, 78690, Note_on_c, 1, 57, 110
3, 78714, Note_off_c, 1, 57, 64
3, 78720, Note_on_c, 1, 58, 110
3, 78744, Note_off_c, 1, 58, 64
3, 78750, Note_on_c, 1, 57, 110
3, 78774, Note_off_c, 1, 57, 64
3, 78780, Note_on_c, 1, 58, 110
3, 78804, Note_off_c, 1, 58, 64
3, 78810, Note_on_c, 1, 57, 110
3, 78834, Note_off_c, 1, 57, 64
3, 78840, Note_on_c, 1, 58, 110
3, 78864, Note_off_c, 1, 58, 64
3, 78870, Note_on_c, 1, 57, 110
3, 78894, Note_off_c, 1, 57, 64
3, 78900, Note_on_c, 1, 58, 110
3, 78924, Note_off_c, 1, 58, 64
3, 78930, Note_on_c, 1, 57, 110
3, 78954, Note_off_c, 1, 57, 64
3, 78960, Note_on_c, 1, 58, 110
3, 78984, Note_off_c, 1, 58, 64
3, 78990, Note_on_c, 1, 57, 110
3, 79014, Note_off_c, 1, 57, 64
3, 79020, Note_on_c, 1, 58, 110
3, 79044, Note_off_c, 1, 58, 64
3, 79050, Note_on_c, 1, 57, 110
3, 79074, Note_off_c, 1, 57, 64
3, 79080, Note_on_c, 1, 58, 110
3, 79104, Note_off_c, 1, 58, 64
3, 79110, Note_on_c, 1, 57, 110
3, 79134, Note_off_c, 1, 57, 64
3, 79140, Note_on_c, 1, 58, 110
3, 79164, Note_off_c, 1, 58, 64
3, 79170, Note_on_c, 1, 57, 110
3, 79194, Note_off_c, 1, 57, 64
3, 79200, Note_on_c, 1, 50, 110
3, 79248, Note_off_c, 1, 50, 64
3, 79260, Note_on_c, 1, 51, 110
3, 79308, Note_off_c, 1, 51, 64
3, 79320, Note_on_c, 1, 50, 110
3, 79368, Note_off_c, 1, 50, 64
3, 79380, Note_on_c, 1, 48, 110
3, 79428, Note_off_c, 1, 48, 64
3, 79440, Note_on_c, 1, 51, 110
3, 79488, Note_off_c, 1, 51, 64
3, 79500, Note_on_c, 1, 50, 110
3, 79548, Note_off_c, 1, 50, 64
3, 79560, Note_on_c, 1, 46, 110
3, 79608, Note_off_c, 1, 46, 64
3, 79620, Note_on_c, 1, 51, 110
3, 79668, Note_off_c, 1, 51, 64
3, 79680, Note_on_c, 1, 50, 110
3, 79728, Note_off_c, 1, 50, 64
3, 79740, Note_on_c, 1, 45, 110
3, 79788, Note_off_c, 1, 45, 64
3, 79800, Note_on_c, 1, 51, 110
3, 79848, Note_off_c, 1, 51, 64
3, 79860, Note_on_c, 1, 50, 110
3, 79908, Note_off_c, 1, 50, 64
3, 79920, Note_on_c, 1, 43, 110
3, 79968, Note_off_c, 1, 43, 64
3, 79980, Note_on_c, 1, 51, 110
3, 80028, Note_off_c, 1, 51, 64
3, 80040, Note_on_c, 1, 50, 110
3, 80088, Note_off_c, 1, 50, 64
3, 80100, Note_on_c, 1, 42, 110
3, 80148, Note_off_c, 1, 42, 64
3, 80160, Note_on_c, 1, 43, 110
3, 80208, Note_off_c, 1, 43, 64
3, 80220, Note_on_c, 1, 45, 110
3, 80268, Note_off_c, 1, 45, 64
3, 80280, Note_on_c, 1, 46, 110
3, 80328, Note_off_c, 1, 46, 64
3, 80340, Note_on_c, 1, 43, 110
3, 80388, Note_off_c, 1, 43, 64
3, 80400, Note_on_c, 1, 49, 110
3, 80448, Note_off_c, 1, 49, 64
3, 80460, Note_on_c, 1, 38, 110
3, 80604, Note_off_c, 1, 38, 64
3, 80604, End_track
4, 0, Start_track
4, 0, Title_t, "Arr. Gary Bricault, (c) 1997"
4, 0, End_track
0, 0, End_of_file
