0, 0, Header, 1, 4, 240
1, 0, Start_track
1, 0, Title_t, "untitled"
1, 0, SMPTE_offset, 96, 0, 3, 0, 0
1, 0, Time_signature, 3, 2, 24, 8
1, 0, Key_signature, 0, "major"
1, 0, Tempo, 1071429
1, 0, End_track
2, 0, Start_track
2, 0, MIDI_port, 0
2, 0, Title_t, "English Suite 2, 4a. Saraband A"
2, 0, Program_c, 0, 0
2, 0, Control_c, 0, 7, 100
2, 0, Control_c, 0, 10, 64
2, 0, Note_on_c, 0, 72, 107
2, 0, Note_on_c, 0, 69, 107
2, 0, Note_on_c, 0, 64, 107
2, 192, Note_on_c, 0, 64, 0
2, 192, Note_on_c, 0, 69, 0
2, 192, Note_on_c, 0, 72, 0
2, 240, Note_on_c, 0, 64, 107
2, 240, Note_on_c, 0, 65, 107
2, 240, Note_on_c, 0, 72, 107
2, 336, Note_on_c, 0, 72, 0
2, 336, Note_on_c, 0, 64, 0
2, 360, Note_on_c, 0, 71, 107
2, 360, Note_on_c, 0, 62, 107
2, 432, Note_on_c, 0, 65, 0
2, 456, Note_on_c, 0, 62, 0
2, 456, Note_on_c, 0, 71, 0
2, 480, Note_on_c, 0, 60, 107
2, 480, Note_on_c, 0, 64, 107
2, 480, Note_on_c, 0, 69, 107
2, 576, Note_on_c, 0, 69, 0
2, 576, Note_on_c, 0, 64, 0
2, 576, Note_on_c, 0, 60, 0
2, 600, Note_on_c, 0, 59, 107
2, 600, Note_on_c, 0, 68, 107
2, 600, Note_on_c, 0, 62, 107
2, 696, Note_on_c, 0, 62, 0
2, 696, Note_on_c, 0, 68, 0
2, 696, Note_on_c, 0, 59, 0
2, 720, Note_on_c, 0, 57, 107
2, 720, Note_on_c, 0, 69, 107
2, 720, Note_on_c, 0, 60, 107
2, 912, Note_on_c, 0, 60, 0
2, 912, Note_on_c, 0, 57, 0
2, 945, Note_on_c, 0, 69, 0
2, 960, Note_on_c, 0, 60, 107
2, 960, Note_on_c, 0, 57, 107
2, 960, Note_on_c, 0, 69, 107
2, 1344, Note_on_c, 0, 57, 0
2, 1344, Note_on_c, 0, 60, 0
2, 1410, Note_on_c, 0, 69, 0
2, 1485, Note_on_c, 0, 64, 107
2, 1500, Note_on_c, 0, 69, 107
2, 1515, Note_on_c, 0, 72, 107
2, 1530, Note_on_c, 0, 76, 107
2, 1613, Note_on_c, 0, 69, 0
2, 1613, Note_on_c, 0, 64, 0
2, 1626, Note_on_c, 0, 72, 0
2, 1673, Note_on_c, 0, 76, 0
2, 1680, Note_on_c, 0, 65, 107
2, 1680, Note_on_c, 0, 76, 107
2, 1680, Note_on_c, 0, 72, 107
2, 1776, Note_on_c, 0, 72, 0
2, 1776, Note_on_c, 0, 76, 0
2, 1800, Note_on_c, 0, 74, 107
2, 1800, Note_on_c, 0, 71, 107
2, 1896, Note_on_c, 0, 71, 0
2, 1896, Note_on_c, 0, 74, 0
2, 1896, Note_on_c, 0, 65, 0
2, 1920, Note_on_c, 0, 72, 107
2, 1920, Note_on_c, 0, 69, 107
2, 1920, Note_on_c, 0, 64, 107
2, 2016, Note_on_c, 0, 69, 0
2, 2016, Note_on_c, 0, 72, 0
2, 2040, Note_on_c, 0, 68, 107
2, 2040, Note_on_c, 0, 71, 107
2, 2136, Note_on_c, 0, 71, 0
2, 2136, Note_on_c, 0, 68, 0
2, 2136, Note_on_c, 0, 64, 0
2, 2160, Note_on_c, 0, 71, 107
2, 2160, Note_on_c, 0, 68, 107
2, 2160, Note_on_c, 0, 64, 107
2, 2352, Note_on_c, 0, 68, 0
2, 2352, Note_on_c, 0, 71, 0
2, 2400, Note_on_c, 0, 72, 107
2, 2400, Note_on_c, 0, 69, 107
2, 2448, Note_on_c, 0, 64, 0
2, 2520, Note_on_c, 0, 62, 107
2, 2544, Note_on_c, 0, 72, 0
2, 2580, Note_on_c, 0, 71, 107
2, 2592, Note_on_c, 0, 69, 0
2, 2616, Note_on_c, 0, 62, 0
2, 2628, Note_on_c, 0, 71, 0
2, 2640, Note_on_c, 0, 69, 107
2, 2640, Note_on_c, 0, 60, 107
2, 2640, Note_on_c, 0, 64, 107
2, 2736, Note_on_c, 0, 60, 0
2, 2760, Note_on_c, 0, 59, 107
2, 2832, Note_on_c, 0, 64, 0
2, 2832, Note_on_c, 0, 69, 0
2, 2856, Note_on_c, 0, 59, 0
2, 2880, Note_on_c, 0, 72, 107
2, 2976, Note_on_c, 0, 72, 0
2, 3000, Note_on_c, 0, 69, 107
2, 3096, Note_on_c, 0, 69, 0
2, 3120, Note_on_c, 0, 65, 107
2, 3216, Note_on_c, 0, 65, 0
2, 3240, Note_on_c, 0, 64, 107
2, 3336, Note_on_c, 0, 64, 0
2, 3360, Note_on_c, 0, 65, 107
2, 3456, Note_on_c, 0, 65, 0
2, 3480, Note_on_c, 0, 69, 107
2, 3576, Note_on_c, 0, 69, 0
2, 3600, Note_on_c, 0, 74, 107
2, 3696, Note_on_c, 0, 74, 0
2, 3720, Note_on_c, 0, 67, 107
2, 3816, Note_on_c, 0, 67, 0
2, 3840, Note_on_c, 0, 65, 107
2, 3936, Note_on_c, 0, 65, 0
2, 3960, Note_on_c, 0, 64, 107
2, 4056, Note_on_c, 0, 64, 0
2, 4080, Note_on_c, 0, 65, 107
2, 4176, Note_on_c, 0, 65, 0
2, 4200, Note_on_c, 0, 74, 107
2, 4296, Note_on_c, 0, 74, 0
2, 4320, Note_on_c, 0, 76, 107
2, 4320, Note_on_c, 0, 72, 107
2, 4320, Note_on_c, 0, 67, 107
2, 4416, Note_on_c, 0, 76, 0
2, 4440, Note_on_c, 0, 74, 107
2, 4512, Note_on_c, 0, 67, 0
2, 4512, Note_on_c, 0, 72, 0
2, 4536, Note_on_c, 0, 74, 0
2, 4560, Note_on_c, 0, 72, 107
2, 4560, Note_on_c, 0, 77, 107
2, 4560, Note_on_c, 0, 60, 107
2, 4656, Note_on_c, 0, 77, 0
2, 4680, Note_on_c, 0, 76, 107
2, 4752, Note_on_c, 0, 60, 0
2, 4752, Note_on_c, 0, 72, 0
2, 4776, Note_on_c, 0, 76, 0
2, 4800, Note_on_c, 0, 74, 107
2, 4800, Note_on_c, 0, 65, 107
2, 4800, Note_on_c, 0, 69, 107
2, 4896, Note_on_c, 0, 65, 0
2, 4896, Note_on_c, 0, 74, 0
2, 4920, Note_on_c, 0, 64, 107
2, 4920, Note_on_c, 0, 72, 107
2, 4992, Note_on_c, 0, 69, 0
2, 5016, Note_on_c, 0, 72, 0
2, 5016, Note_on_c, 0, 64, 0
2, 5040, Note_on_c, 0, 79, 107
2, 5040, Note_on_c, 0, 71, 107
2, 5040, Note_on_c, 0, 62, 107
2, 5232, Note_on_c, 0, 71, 0
2, 5232, Note_on_c, 0, 79, 0
2, 5265, Note_on_c, 0, 62, 0
2, 5280, Note_on_c, 0, 62, 107
2, 5280, Note_on_c, 0, 71, 107
2, 5280, Note_on_c, 0, 79, 107
2, 5664, Note_on_c, 0, 79, 0
2, 5664, Note_on_c, 0, 71, 0
2, 5730, Note_on_c, 0, 62, 0
2, 5760, Note_on_c, 0, 70, 107
2, 5856, Note_on_c, 0, 70, 0
2, 5880, Note_on_c, 0, 69, 107
2, 5976, Note_on_c, 0, 69, 0
2, 6000, Note_on_c, 0, 70, 107
2, 6096, Note_on_c, 0, 70, 0
2, 6120, Note_on_c, 0, 79, 107
2, 6216, Note_on_c, 0, 79, 0
2, 6240, Note_on_c, 0, 76, 107
2, 6336, Note_on_c, 0, 76, 0
2, 6360, Note_on_c, 0, 70, 107
2, 6456, Note_on_c, 0, 70, 0
2, 6480, Note_on_c, 0, 69, 107
2, 6576, Note_on_c, 0, 69, 0
2, 6600, Note_on_c, 0, 67, 107
2, 6696, Note_on_c, 0, 67, 0
2, 6720, Note_on_c, 0, 69, 107
2, 6816, Note_on_c, 0, 69, 0
2, 6840, Note_on_c, 0, 81, 107
2, 6936, Note_on_c, 0, 81, 0
2, 6960, Note_on_c, 0, 75, 107
2, 6975, Note_on_c, 0, 75, 0
2, 6975, Note_on_c, 0, 77, 107
2, 6990, Note_on_c, 0, 77, 0
2, 6990, Note_on_c, 0, 75, 107
2, 7047, Note_on_c, 0, 75, 0
2, 7080, Note_on_c, 0, 74, 107
2, 7176, Note_on_c, 0, 74, 0
2, 7200, Note_on_c, 0, 83, 107
2, 7215, Note_on_c, 0, 83, 0
2, 7215, Note_on_c, 0, 81, 107
2, 7227, Note_on_c, 0, 81, 0
2, 7230, Note_on_c, 0, 79, 107
2, 7242, Note_on_c, 0, 79, 0
2, 7245, Note_on_c, 0, 81, 107
2, 7257, Note_on_c, 0, 81, 0
2, 7260, Note_on_c, 0, 83, 107
2, 7308, Note_on_c, 0, 83, 0
2, 7320, Note_on_c, 0, 84, 107
2, 7416, Note_on_c, 0, 84, 0
2, 7440, Note_on_c, 0, 72, 107
2, 7440, Note_on_c, 0, 67, 107
2, 7440, Note_on_c, 0, 77, 107
2, 7536, Note_on_c, 0, 77, 0
2, 7560, Note_on_c, 0, 76, 107
2, 7632, Note_on_c, 0, 67, 0
2, 7632, Note_on_c, 0, 72, 0
2, 7656, Note_on_c, 0, 76, 0
2, 7680, Note_on_c, 0, 74, 107
2, 7680, Note_on_c, 0, 65, 107
2, 7680, Note_on_c, 0, 71, 107
2, 7776, Note_on_c, 0, 74, 0
2, 7800, Note_on_c, 0, 72, 107
2, 7872, Note_on_c, 0, 71, 0
2, 7872, Note_on_c, 0, 65, 0
2, 7896, Note_on_c, 0, 72, 0
2, 7920, Note_on_c, 0, 72, 107
2, 7920, Note_on_c, 0, 67, 107
2, 7920, Note_on_c, 0, 65, 107
2, 8016, Note_on_c, 0, 65, 0
2, 8040, Note_on_c, 0, 62, 107
2, 8112, Note_on_c, 0, 67, 0
2, 8112, Note_on_c, 0, 72, 0
2, 8136, Note_on_c, 0, 62, 0
2, 8160, Note_on_c, 0, 67, 107
2, 8160, Note_on_c, 0, 72, 107
2, 8160, Note_on_c, 0, 64, 107
2, 8544, Note_on_c, 0, 64, 0
2, 8544, Note_on_c, 0, 72, 0
2, 8544, Note_on_c, 0, 67, 0
2, 8640, Note_on_c, 0, 72, 107
2, 8640, Note_on_c, 0, 69, 107
2, 8640, Note_on_c, 0, 64, 107
2, 8832, Note_on_c, 0, 64, 0
2, 8832, Note_on_c, 0, 69, 0
2, 8832, Note_on_c, 0, 72, 0
2, 8880, Note_on_c, 0, 64, 107
2, 8880, Note_on_c, 0, 65, 107
2, 8880, Note_on_c, 0, 72, 107
2, 8976, Note_on_c, 0, 72, 0
2, 8976, Note_on_c, 0, 64, 0
2, 9000, Note_on_c, 0, 71, 107
2, 9000, Note_on_c, 0, 62, 107
2, 9072, Note_on_c, 0, 65, 0
2, 9096, Note_on_c, 0, 62, 0
2, 9096, Note_on_c, 0, 71, 0
2, 9120, Note_on_c, 0, 60, 107
2, 9120, Note_on_c, 0, 64, 107
2, 9120, Note_on_c, 0, 69, 107
2, 9216, Note_on_c, 0, 69, 0
2, 9216, Note_on_c, 0, 64, 0
2, 9216, Note_on_c, 0, 60, 0
2, 9240, Note_on_c, 0, 59, 107
2, 9240, Note_on_c, 0, 68, 107
2, 9240, Note_on_c, 0, 62, 107
2, 9336, Note_on_c, 0, 62, 0
2, 9336, Note_on_c, 0, 68, 0
2, 9336, Note_on_c, 0, 59, 0
2, 9360, Note_on_c, 0, 57, 107
2, 9360, Note_on_c, 0, 69, 107
2, 9360, Note_on_c, 0, 60, 107
2, 9552, Note_on_c, 0, 60, 0
2, 9552, Note_on_c, 0, 57, 0
2, 9585, Note_on_c, 0, 69, 0
2, 9600, Note_on_c, 0, 60, 107
2, 9600, Note_on_c, 0, 57, 107
2, 9600, Note_on_c, 0, 69, 107
2, 9984, Note_on_c, 0, 57, 0
2, 9984, Note_on_c, 0, 60, 0
2, 10050, Note_on_c, 0, 69, 0
2, 10125, Note_on_c, 0, 64, 107
2, 10140, Note_on_c, 0, 69, 107
2, 10155, Note_on_c, 0, 72, 107
2, 10170, Note_on_c, 0, 76, 107
2, 10253, Note_on_c, 0, 69, 0
2, 10253, Note_on_c, 0, 64, 0
2, 10266, Note_on_c, 0, 72, 0
2, 10313, Note_on_c, 0, 76, 0
2, 10320, Note_on_c, 0, 65, 107
2, 10320, Note_on_c, 0, 76, 107
2, 10320, Note_on_c, 0, 72, 107
2, 10416, Note_on_c, 0, 72, 0
2, 10416, Note_on_c, 0, 76, 0
2, 10440, Note_on_c, 0, 74, 107
2, 10440, Note_on_c, 0, 71, 107
2, 10536, Note_on_c, 0, 71, 0
2, 10536, Note_on_c, 0, 74, 0
2, 10536, Note_on_c, 0, 65, 0
2, 10560, Note_on_c, 0, 72, 107
2, 10560, Note_on_c, 0, 69, 107
2, 10560, Note_on_c, 0, 64, 107
2, 10656, Note_on_c, 0, 69, 0
2, 10656, Note_on_c, 0, 72, 0
2, 10680, Note_on_c, 0, 68, 107
2, 10680, Note_on_c, 0, 71, 107
2, 10776, Note_on_c, 0, 71, 0
2, 10776, Note_on_c, 0, 68, 0
2, 10776, Note_on_c, 0, 64, 0
2, 10800, Note_on_c, 0, 71, 107
2, 10800, Note_on_c, 0, 68, 107
2, 10800, Note_on_c, 0, 64, 107
2, 10992, Note_on_c, 0, 68, 0
2, 10992, Note_on_c, 0, 71, 0
2, 11040, Note_on_c, 0, 72, 107
2, 11040, Note_on_c, 0, 69, 107
2, 11088, Note_on_c, 0, 64, 0
2, 11160, Note_on_c, 0, 62, 107
2, 11184, Note_on_c, 0, 72, 0
2, 11220, Note_on_c, 0, 71, 107
2, 11232, Note_on_c, 0, 69, 0
2, 11256, Note_on_c, 0, 62, 0
2, 11268, Note_on_c, 0, 71, 0
2, 11280, Note_on_c, 0, 69, 107
2, 11280, Note_on_c, 0, 60, 107
2, 11280, Note_on_c, 0, 64, 107
2, 11376, Note_on_c, 0, 60, 0
2, 11400, Note_on_c, 0, 59, 107
2, 11472, Note_on_c, 0, 64, 0
2, 11472, Note_on_c, 0, 69, 0
2, 11496, Note_on_c, 0, 59, 0
2, 11520, Note_on_c, 0, 72, 107
2, 11616, Note_on_c, 0, 72, 0
2, 11640, Note_on_c, 0, 69, 107
2, 11736, Note_on_c, 0, 69, 0
2, 11760, Note_on_c, 0, 65, 107
2, 11856, Note_on_c, 0, 65, 0
2, 11880, Note_on_c, 0, 64, 107
2, 11976, Note_on_c, 0, 64, 0
2, 12000, Note_on_c, 0, 65, 107
2, 12096, Note_on_c, 0, 65, 0
2, 12120, Note_on_c, 0, 69, 107
2, 12216, Note_on_c, 0, 69, 0
2, 12240, Note_on_c, 0, 74, 107
2, 12336, Note_on_c, 0, 74, 0
2, 12360, Note_on_c, 0, 67, 107
2, 12456, Note_on_c, 0, 67, 0
2, 12480, Note_on_c, 0, 65, 107
2, 12576, Note_on_c, 0, 65, 0
2, 12600, Note_on_c, 0, 64, 107
2, 12696, Note_on_c, 0, 64, 0
2, 12720, Note_on_c, 0, 65, 107
2, 12816, Note_on_c, 0, 65, 0
2, 12840, Note_on_c, 0, 74, 107
2, 12936, Note_on_c, 0, 74, 0
2, 12960, Note_on_c, 0, 76, 107
2, 12960, Note_on_c, 0, 72, 107
2, 12960, Note_on_c, 0, 67, 107
2, 13056, Note_on_c, 0, 76, 0
2, 13080, Note_on_c, 0, 74, 107
2, 13152, Note_on_c, 0, 67, 0
2, 13152, Note_on_c, 0, 72, 0
2, 13176, Note_on_c, 0, 74, 0
2, 13200, Note_on_c, 0, 72, 107
2, 13200, Note_on_c, 0, 77, 107
2, 13200, Note_on_c, 0, 60, 107
2, 13296, Note_on_c, 0, 77, 0
2, 13320, Note_on_c, 0, 76, 107
2, 13392, Note_on_c, 0, 60, 0
2, 13392, Note_on_c, 0, 72, 0
2, 13416, Note_on_c, 0, 76, 0
2, 13440, Note_on_c, 0, 74, 107
2, 13440, Note_on_c, 0, 65, 107
2, 13440, Note_on_c, 0, 69, 107
2, 13536, Note_on_c, 0, 65, 0
2, 13536, Note_on_c, 0, 74, 0
2, 13560, Note_on_c, 0, 64, 107
2, 13560, Note_on_c, 0, 72, 107
2, 13632, Note_on_c, 0, 69, 0
2, 13656, Note_on_c, 0, 72, 0
2, 13656, Note_on_c, 0, 64, 0
2, 13680, Note_on_c, 0, 79, 107
2, 13680, Note_on_c, 0, 71, 107
2, 13680, Note_on_c, 0, 62, 107
2, 13872, Note_on_c, 0, 71, 0
2, 13872, Note_on_c, 0, 79, 0
2, 13905, Note_on_c, 0, 62, 0
2, 13920, Note_on_c, 0, 62, 107
2, 13920, Note_on_c, 0, 71, 107
2, 13920, Note_on_c, 0, 79, 107
2, 14304, Note_on_c, 0, 79, 0
2, 14304, Note_on_c, 0, 71, 0
2, 14370, Note_on_c, 0, 62, 0
2, 14400, Note_on_c, 0, 70, 107
2, 14496, Note_on_c, 0, 70, 0
2, 14520, Note_on_c, 0, 69, 107
2, 14616, Note_on_c, 0, 69, 0
2, 14640, Note_on_c, 0, 70, 107
2, 14736, Note_on_c, 0, 70, 0
2, 14760, Note_on_c, 0, 79, 107
2, 14856, Note_on_c, 0, 79, 0
2, 14880, Note_on_c, 0, 76, 107
2, 14976, Note_on_c, 0, 76, 0
2, 15000, Note_on_c, 0, 70, 107
2, 15096, Note_on_c, 0, 70, 0
2, 15120, Note_on_c, 0, 69, 107
2, 15216, Note_on_c, 0, 69, 0
2, 15240, Note_on_c, 0, 67, 107
2, 15336, Note_on_c, 0, 67, 0
2, 15360, Note_on_c, 0, 69, 107
2, 15456, Note_on_c, 0, 69, 0
2, 15480, Note_on_c, 0, 81, 107
2, 15576, Note_on_c, 0, 81, 0
2, 15600, Note_on_c, 0, 75, 107
2, 15615, Note_on_c, 0, 75, 0
2, 15615, Note_on_c, 0, 77, 107
2, 15630, Note_on_c, 0, 77, 0
2, 15630, Note_on_c, 0, 75, 107
2, 15687, Note_on_c, 0, 75, 0
2, 15720, Note_on_c, 0, 74, 107
2, 15816, Note_on_c, 0, 74, 0
2, 15840, Note_on_c, 0, 83, 107
2, 15855, Note_on_c, 0, 83, 0
2, 15855, Note_on_c, 0, 81, 107
2, 15867, Note_on_c, 0, 81, 0
2, 15870, Note_on_c, 0, 79, 107
2, 15882, Note_on_c, 0, 79, 0
2, 15885, Note_on_c, 0, 81, 107
2, 15897, Note_on_c, 0, 81, 0
2, 15900, Note_on_c, 0, 83, 107
2, 15948, Note_on_c, 0, 83, 0
2, 15960, Note_on_c, 0, 84, 107
2, 16056, Note_on_c, 0, 84, 0
2, 16080, Note_on_c, 0, 72, 107
2, 16080, Note_on_c, 0, 67, 107
2, 16080, Note_on_c, 0, 77, 107
2, 16176, Note_on_c, 0, 77, 0
2, 16200, Note_on_c, 0, 76, 107
2, 16272, Note_on_c, 0, 67, 0
2, 16272, Note_on_c, 0, 72, 0
2, 16296, Note_on_c, 0, 76, 0
2, 16320, Note_on_c, 0, 74, 107
2, 16320, Note_on_c, 0, 65, 107
2, 16320, Note_on_c, 0, 71, 107
2, 16416, Note_on_c, 0, 74, 0
2, 16440, Note_on_c, 0, 72, 107
2, 16512, Note_on_c, 0, 71, 0
2, 16512, Note_on_c, 0, 65, 0
2, 16536, Note_on_c, 0, 72, 0
2, 16560, Note_on_c, 0, 72, 107
2, 16560, Note_on_c, 0, 67, 107
2, 16560, Note_on_c, 0, 65, 107
2, 16656, Note_on_c, 0, 65, 0
2, 16680, Note_on_c, 0, 62, 107
2, 16752, Note_on_c, 0, 67, 0
2, 16752, Note_on_c, 0, 72, 0
2, 16776, Note_on_c, 0, 62, 0
2, 16800, Note_on_c, 0, 67, 107
2, 16800, Note_on_c, 0, 72, 107
2, 16800, Note_on_c, 0, 64, 107
2, 17184, Note_on_c, 0, 64, 0
2, 17184, Note_on_c, 0, 72, 0
2, 17184, Note_on_c, 0, 67, 0
2, 17280, Note_on_c, 0, 64, 107
2, 17280, Note_on_c, 0, 67, 107
2, 17472, Note_on_c, 0, 67, 0
2, 17472, Note_on_c, 0, 64, 0
2, 17520, Note_on_c, 0, 67, 107
2, 17520, Note_on_c, 0, 64, 107
2, 17616, Note_on_c, 0, 64, 0
2, 17616, Note_on_c, 0, 67, 0
2, 17640, Note_on_c, 0, 62, 107
2, 17640, Note_on_c, 0, 65, 107
2, 17736, Note_on_c, 0, 65, 0
2, 17736, Note_on_c, 0, 62, 0
2, 17760, Note_on_c, 0, 64, 107
2, 17760, Note_on_c, 0, 60, 107
2, 17856, Note_on_c, 0, 60, 0
2, 17856, Note_on_c, 0, 64, 0
2, 17880, Note_on_c, 0, 62, 107
2, 17880, Note_on_c, 0, 59, 107
2, 17976, Note_on_c, 0, 59, 0
2, 17976, Note_on_c, 0, 62, 0
2, 18000, Note_on_c, 0, 64, 107
2, 18000, Note_on_c, 0, 60, 107
2, 18192, Note_on_c, 0, 60, 0
2, 18192, Note_on_c, 0, 64, 0
2, 18240, Note_on_c, 0, 60, 107
2, 18240, Note_on_c, 0, 64, 107
2, 18624, Note_on_c, 0, 64, 0
2, 18624, Note_on_c, 0, 60, 0
2, 18720, Note_on_c, 0, 63, 107
2, 18720, Note_on_c, 0, 63, 107
2, 18833, Note_on_c, 0, 63, 0
2, 18840, Note_on_c, 0, 69, 107
2, 18912, Note_on_c, 0, 63, 0
2, 18953, Note_on_c, 0, 69, 0
2, 18960, Note_on_c, 0, 67, 107
2, 18960, Note_on_c, 0, 64, 107
2, 19073, Note_on_c, 0, 67, 0
2, 19080, Note_on_c, 0, 66, 107
2, 19152, Note_on_c, 0, 64, 0
2, 19193, Note_on_c, 0, 66, 0
2, 19200, Note_on_c, 0, 67, 107
2, 19200, Note_on_c, 0, 64, 107
2, 19248, Note_on_c, 0, 67, 0
2, 19260, Note_on_c, 0, 71, 107
2, 19308, Note_on_c, 0, 71, 0
2, 19320, Note_on_c, 0, 76, 107
2, 19392, Note_on_c, 0, 64, 0
2, 19416, Note_on_c, 0, 76, 0
2, 19440, Note_on_c, 0, 75, 107
2, 19440, Note_on_c, 0, 66, 107
2, 19536, Note_on_c, 0, 75, 0
2, 19560, Note_on_c, 0, 78, 107
2, 19608, Note_on_c, 0, 78, 0
2, 19620, Note_on_c, 0, 76, 107
2, 19632, Note_on_c, 0, 66, 0
2, 19668, Note_on_c, 0, 76, 0
2, 19680, Note_on_c, 0, 71, 107
2, 19680, Note_on_c, 0, 78, 107
2, 19872, Note_on_c, 0, 78, 0
2, 19872, Note_on_c, 0, 71, 0
2, 19920, Note_on_c, 0, 71, 107
2, 20112, Note_on_c, 0, 71, 0
2, 20160, Note_on_c, 0, 79, 107
2, 20256, Note_on_c, 0, 79, 0
2, 20280, Note_on_c, 0, 76, 107
2, 20376, Note_on_c, 0, 76, 0
2, 20400, Note_on_c, 0, 72, 107
2, 20496, Note_on_c, 0, 72, 0
2, 20520, Note_on_c, 0, 71, 107
2, 20616, Note_on_c, 0, 71, 0
2, 20640, Note_on_c, 0, 70, 107
2, 20736, Note_on_c, 0, 70, 0
2, 20760, Note_on_c, 0, 79, 107
2, 20856, Note_on_c, 0, 79, 0
2, 20880, Note_on_c, 0, 78, 107
2, 20976, Note_on_c, 0, 78, 0
2, 21000, Note_on_c, 0, 72, 107
2, 21096, Note_on_c, 0, 72, 0
2, 21120, Note_on_c, 0, 71, 107
2, 21216, Note_on_c, 0, 71, 0
2, 21240, Note_on_c, 0, 69, 107
2, 21336, Note_on_c, 0, 69, 0
2, 21360, Note_on_c, 0, 68, 107
2, 21456, Note_on_c, 0, 68, 0
2, 21480, Note_on_c, 0, 77, 107
2, 21576, Note_on_c, 0, 77, 0
2, 21600, Note_on_c, 0, 76, 107
2, 21696, Note_on_c, 0, 76, 0
2, 21720, Note_on_c, 0, 84, 107
2, 21720, Note_on_c, 0, 81, 107
2, 21816, Note_on_c, 0, 81, 0
2, 21816, Note_on_c, 0, 84, 0
2, 21840, Note_on_c, 0, 83, 107
2, 21840, Note_on_c, 0, 76, 107
2, 21840, Note_on_c, 0, 79, 107
2, 21936, Note_on_c, 0, 79, 0
2, 21936, Note_on_c, 0, 83, 0
2, 21960, Note_on_c, 0, 81, 107
2, 21960, Note_on_c, 0, 78, 107
2, 22032, Note_on_c, 0, 76, 0
2, 22056, Note_on_c, 0, 78, 0
2, 22056, Note_on_c, 0, 81, 0
2, 22080, Note_on_c, 0, 79, 107
2, 22080, Note_on_c, 0, 71, 107
2, 22080, Note_on_c, 0, 76, 107
2, 22176, Note_on_c, 0, 76, 0
2, 22176, Note_on_c, 0, 79, 0
2, 22200, Note_on_c, 0, 75, 107
2, 22200, Note_on_c, 0, 78, 107
2, 22272, Note_on_c, 0, 71, 0
2, 22296, Note_on_c, 0, 78, 0
2, 22296, Note_on_c, 0, 75, 0
2, 22320, Note_on_c, 0, 75, 105
2, 22320, Note_on_c, 0, 71, 107
2, 22320, Note_on_c, 0, 78, 105
2, 22380, Note_on_c, 0, 78, 0
2, 22380, Note_on_c, 0, 75, 0
2, 22440, Note_on_c, 0, 79, 107
2, 22440, Note_on_c, 0, 76, 107
2, 22512, Note_on_c, 0, 71, 0
2, 22553, Note_on_c, 0, 76, 0
2, 22553, Note_on_c, 0, 79, 0
2, 22560, Note_on_c, 0, 71, 107
2, 22560, Note_on_c, 0, 67, 107
2, 22560, Note_on_c, 0, 78, 105
2, 22590, Note_on_c, 0, 78, 0
2, 22620, Note_on_c, 0, 76, 107
2, 22944, Note_on_c, 0, 67, 0
2, 22956, Note_on_c, 0, 76, 0
2, 23010, Note_on_c, 0, 71, 0
2, 23040, Note_on_c, 0, 79, 107
2, 23136, Note_on_c, 0, 79, 0
2, 23160, Note_on_c, 0, 81, 107
2, 23256, Note_on_c, 0, 81, 0
2, 23280, Note_on_c, 0, 79, 107
2, 23400, Note_on_c, 0, 77, 107
2, 23496, Note_on_c, 0, 77, 0
2, 23520, Note_on_c, 0, 76, 107
2, 23616, Note_on_c, 0, 76, 0
2, 23640, Note_on_c, 0, 74, 107
2, 23664, Note_on_c, 0, 79, 0
2, 23736, Note_on_c, 0, 74, 0
2, 23760, Note_on_c, 0, 79, 107
2, 23760, Note_on_c, 0, 73, 107
2, 23856, Note_on_c, 0, 79, 0
2, 23880, Note_on_c, 0, 77, 107
2, 23880, Note_on_c, 0, 70, 107
2, 23952, Note_on_c, 0, 73, 0
2, 23976, Note_on_c, 0, 70, 0
2, 23976, Note_on_c, 0, 77, 0
2, 24000, Note_on_c, 0, 69, 107
2, 24000, Note_on_c, 0, 79, 107
2, 24000, Note_on_c, 0, 73, 107
2, 24096, Note_on_c, 0, 69, 0
2, 24120, Note_on_c, 0, 67, 107
2, 24216, Note_on_c, 0, 67, 0
2, 24240, Note_on_c, 0, 65, 107
2, 24336, Note_on_c, 0, 65, 0
2, 24360, Note_on_c, 0, 64, 107
2, 24384, Note_on_c, 0, 73, 0
2, 24384, Note_on_c, 0, 79, 0
2, 24456, Note_on_c, 0, 64, 0
2, 24480, Note_on_c, 0, 77, 107
2, 24576, Note_on_c, 0, 77, 0
2, 24600, Note_on_c, 0, 79, 107
2, 24696, Note_on_c, 0, 79, 0
2, 24720, Note_on_c, 0, 77, 107
2, 24840, Note_on_c, 0, 76, 107
2, 24936, Note_on_c, 0, 76, 0
2, 24960, Note_on_c, 0, 74, 107
2, 25056, Note_on_c, 0, 74, 0
2, 25080, Note_on_c, 0, 72, 107
2, 25104, Note_on_c, 0, 77, 0
2, 25176, Note_on_c, 0, 72, 0
2, 25200, Note_on_c, 0, 77, 107
2, 25200, Note_on_c, 0, 71, 107
2, 25296, Note_on_c, 0, 77, 0
2, 25320, Note_on_c, 0, 76, 107
2, 25320, Note_on_c, 0, 69, 107
2, 25392, Note_on_c, 0, 71, 0
2, 25416, Note_on_c, 0, 69, 0
2, 25416, Note_on_c, 0, 76, 0
2, 25440, Note_on_c, 0, 67, 107
2, 25440, Note_on_c, 0, 77, 107
2, 25440, Note_on_c, 0, 71, 107
2, 25536, Note_on_c, 0, 67, 0
2, 25560, Note_on_c, 0, 65, 107
2, 25656, Note_on_c, 0, 65, 0
2, 25680, Note_on_c, 0, 64, 107
2, 25776, Note_on_c, 0, 64, 0
2, 25800, Note_on_c, 0, 62, 107
2, 25824, Note_on_c, 0, 71, 0
2, 25824, Note_on_c, 0, 77, 0
2, 25896, Note_on_c, 0, 62, 0
2, 25920, Note_on_c, 0, 76, 107
2, 25920, Note_on_c, 0, 72, 107
2, 26016, Note_on_c, 0, 76, 0
2, 26040, Note_on_c, 0, 74, 107
2, 26136, Note_on_c, 0, 74, 0
2, 26160, Note_on_c, 0, 77, 107
2, 26256, Note_on_c, 0, 77, 0
2, 26280, Note_on_c, 0, 76, 107
2, 26376, Note_on_c, 0, 76, 0
2, 26400, Note_on_c, 0, 81, 107
2, 26496, Note_on_c, 0, 81, 0
2, 26496, Note_on_c, 0, 72, 0
2, 26520, Note_on_c, 0, 72, 107
2, 26520, Note_on_c, 0, 79, 107
2, 26616, Note_on_c, 0, 79, 0
2, 26616, Note_on_c, 0, 72, 0
2, 26640, Note_on_c, 0, 82, 107
2, 26640, Note_on_c, 0, 77, 107
2, 26736, Note_on_c, 0, 77, 0
2, 26736, Note_on_c, 0, 82, 0
2, 26760, Note_on_c, 0, 81, 107
2, 26760, Note_on_c, 0, 76, 107
2, 26856, Note_on_c, 0, 76, 0
2, 26856, Note_on_c, 0, 81, 0
2, 26880, Note_on_c, 0, 74, 107
2, 26880, Note_on_c, 0, 80, 107
2, 26976, Note_on_c, 0, 80, 0
2, 26976, Note_on_c, 0, 74, 0
2, 27000, Note_on_c, 0, 81, 107
2, 27000, Note_on_c, 0, 72, 107
2, 27096, Note_on_c, 0, 72, 0
2, 27096, Note_on_c, 0, 81, 0
2, 27120, Note_on_c, 0, 77, 107
2, 27120, Note_on_c, 0, 71, 107
2, 27216, Note_on_c, 0, 71, 0
2, 27216, Note_on_c, 0, 77, 0
2, 27240, Note_on_c, 0, 72, 107
2, 27240, Note_on_c, 0, 76, 107
2, 27336, Note_on_c, 0, 76, 0
2, 27336, Note_on_c, 0, 72, 0
2, 27360, Note_on_c, 0, 75, 107
2, 27360, Note_on_c, 0, 69, 107
2, 27456, Note_on_c, 0, 75, 0
2, 27480, Note_on_c, 0, 76, 107
2, 27552, Note_on_c, 0, 69, 0
2, 27576, Note_on_c, 0, 76, 0
2, 27600, Note_on_c, 0, 64, 107
2, 27600, Note_on_c, 0, 69, 107
2, 27600, Note_on_c, 0, 74, 107
2, 27696, Note_on_c, 0, 74, 0
2, 27720, Note_on_c, 0, 72, 107
2, 27792, Note_on_c, 0, 69, 0
2, 27792, Note_on_c, 0, 64, 0
2, 27816, Note_on_c, 0, 72, 0
2, 27840, Note_on_c, 0, 68, 107
2, 27840, Note_on_c, 0, 62, 107
2, 27840, Note_on_c, 0, 71, 107
2, 27936, Note_on_c, 0, 71, 0
2, 27960, Note_on_c, 0, 69, 107
2, 28032, Note_on_c, 0, 62, 0
2, 28032, Note_on_c, 0, 68, 0
2, 28056, Note_on_c, 0, 69, 0
2, 28080, Note_on_c, 0, 69, 107
2, 28080, Note_on_c, 0, 64, 107
2, 28080, Note_on_c, 0, 60, 107
2, 28272, Note_on_c, 0, 60, 0
2, 28272, Note_on_c, 0, 64, 0
2, 28272, Note_on_c, 0, 69, 0
2, 28320, Note_on_c, 0, 60, 107
2, 28320, Note_on_c, 0, 64, 107
2, 28320, Note_on_c, 0, 69, 107
2, 28704, Note_on_c, 0, 69, 0
2, 28704, Note_on_c, 0, 64, 0
2, 28704, Note_on_c, 0, 60, 0
2, 28800, Note_on_c, 0, 64, 107
2, 28800, Note_on_c, 0, 67, 107
2, 28992, Note_on_c, 0, 67, 0
2, 28992, Note_on_c, 0, 64, 0
2, 29040, Note_on_c, 0, 67, 107
2, 29040, Note_on_c, 0, 64, 107
2, 29136, Note_on_c, 0, 64, 0
2, 29136, Note_on_c, 0, 67, 0
2, 29160, Note_on_c, 0, 62, 107
2, 29160, Note_on_c, 0, 65, 107
2, 29256, Note_on_c, 0, 65, 0
2, 29256, Note_on_c, 0, 62, 0
2, 29280, Note_on_c, 0, 64, 107
2, 29280, Note_on_c, 0, 60, 107
2, 29376, Note_on_c, 0, 60, 0
2, 29376, Note_on_c, 0, 64, 0
2, 29400, Note_on_c, 0, 62, 107
2, 29400, Note_on_c, 0, 59, 107
2, 29496, Note_on_c, 0, 59, 0
2, 29496, Note_on_c, 0, 62, 0
2, 29520, Note_on_c, 0, 64, 107
2, 29520, Note_on_c, 0, 60, 107
2, 29712, Note_on_c, 0, 60, 0
2, 29712, Note_on_c, 0, 64, 0
2, 29760, Note_on_c, 0, 60, 107
2, 29760, Note_on_c, 0, 64, 107
2, 30144, Note_on_c, 0, 64, 0
2, 30144, Note_on_c, 0, 60, 0
2, 30240, Note_on_c, 0, 63, 107
2, 30240, Note_on_c, 0, 63, 107
2, 30353, Note_on_c, 0, 63, 0
2, 30360, Note_on_c, 0, 69, 107
2, 30432, Note_on_c, 0, 63, 0
2, 30473, Note_on_c, 0, 69, 0
2, 30480, Note_on_c, 0, 67, 107
2, 30480, Note_on_c, 0, 64, 107
2, 30593, Note_on_c, 0, 67, 0
2, 30600, Note_on_c, 0, 66, 107
2, 30672, Note_on_c, 0, 64, 0
2, 30713, Note_on_c, 0, 66, 0
2, 30720, Note_on_c, 0, 67, 107
2, 30720, Note_on_c, 0, 64, 107
2, 30768, Note_on_c, 0, 67, 0
2, 30780, Note_on_c, 0, 71, 107
2, 30828, Note_on_c, 0, 71, 0
2, 30840, Note_on_c, 0, 76, 107
2, 30912, Note_on_c, 0, 64, 0
2, 30936, Note_on_c, 0, 76, 0
2, 30960, Note_on_c, 0, 75, 107
2, 30960, Note_on_c, 0, 66, 107
2, 31056, Note_on_c, 0, 75, 0
2, 31080, Note_on_c, 0, 78, 107
2, 31128, Note_on_c, 0, 78, 0
2, 31140, Note_on_c, 0, 76, 107
2, 31152, Note_on_c, 0, 66, 0
2, 31188, Note_on_c, 0, 76, 0
2, 31200, Note_on_c, 0, 71, 107
2, 31200, Note_on_c, 0, 78, 107
2, 31392, Note_on_c, 0, 78, 0
2, 31392, Note_on_c, 0, 71, 0
2, 31440, Note_on_c, 0, 71, 107
2, 31632, Note_on_c, 0, 71, 0
2, 31680, Note_on_c, 0, 79, 107
2, 31776, Note_on_c, 0, 79, 0
2, 31800, Note_on_c, 0, 76, 107
2, 31896, Note_on_c, 0, 76, 0
2, 31920, Note_on_c, 0, 72, 107
2, 32016, Note_on_c, 0, 72, 0
2, 32040, Note_on_c, 0, 71, 107
2, 32136, Note_on_c, 0, 71, 0
2, 32160, Note_on_c, 0, 70, 107
2, 32256, Note_on_c, 0, 70, 0
2, 32280, Note_on_c, 0, 79, 107
2, 32376, Note_on_c, 0, 79, 0
2, 32400, Note_on_c, 0, 78, 107
2, 32496, Note_on_c, 0, 78, 0
2, 32520, Note_on_c, 0, 72, 107
2, 32616, Note_on_c, 0, 72, 0
2, 32640, Note_on_c, 0, 71, 107
2, 32736, Note_on_c, 0, 71, 0
2, 32760, Note_on_c, 0, 69, 107
2, 32856, Note_on_c, 0, 69, 0
2, 32880, Note_on_c, 0, 68, 107
2, 32976, Note_on_c, 0, 68, 0
2, 33000, Note_on_c, 0, 77, 107
2, 33096, Note_on_c, 0, 77, 0
2, 33120, Note_on_c, 0, 76, 107
2, 33216, Note_on_c, 0, 76, 0
2, 33240, Note_on_c, 0, 84, 107
2, 33240, Note_on_c, 0, 81, 107
2, 33336, Note_on_c, 0, 81, 0
2, 33336, Note_on_c, 0, 84, 0
2, 33360, Note_on_c, 0, 83, 107
2, 33360, Note_on_c, 0, 76, 107
2, 33360, Note_on_c, 0, 79, 107
2, 33456, Note_on_c, 0, 79, 0
2, 33456, Note_on_c, 0, 83, 0
2, 33480, Note_on_c, 0, 81, 107
2, 33480, Note_on_c, 0, 78, 107
2, 33552, Note_on_c, 0, 76, 0
2, 33576, Note_on_c, 0, 78, 0
2, 33576, Note_on_c, 0, 81, 0
2, 33600, Note_on_c, 0, 79, 107
2, 33600, Note_on_c, 0, 71, 107
2, 33600, Note_on_c, 0, 76, 107
2, 33696, Note_on_c, 0, 76, 0
2, 33696, Note_on_c, 0, 79, 0
2, 33720, Note_on_c, 0, 75, 107
2, 33720, Note_on_c, 0, 78, 107
2, 33792, Note_on_c, 0, 71, 0
2, 33816, Note_on_c, 0, 78, 0
2, 33816, Note_on_c, 0, 75, 0
2, 33840, Note_on_c, 0, 75, 105
2, 33840, Note_on_c, 0, 71, 107
2, 33840, Note_on_c, 0, 78, 105
2, 33900, Note_on_c, 0, 78, 0
2, 33900, Note_on_c, 0, 75, 0
2, 33960, Note_on_c, 0, 79, 107
2, 33960, Note_on_c, 0, 76, 107
2, 34032, Note_on_c, 0, 71, 0
2, 34073, Note_on_c, 0, 76, 0
2, 34073, Note_on_c, 0, 79, 0
2, 34080, Note_on_c, 0, 71, 107
2, 34080, Note_on_c, 0, 67, 107
2, 34080, Note_on_c, 0, 78, 105
2, 34110, Note_on_c, 0, 78, 0
2, 34140, Note_on_c, 0, 76, 107
2, 34464, Note_on_c, 0, 67, 0
2, 34476, Note_on_c, 0, 76, 0
2, 34530, Note_on_c, 0, 71, 0
2, 34560, Note_on_c, 0, 79, 107
2, 34656, Note_on_c, 0, 79, 0
2, 34680, Note_on_c, 0, 81, 107
2, 34776, Note_on_c, 0, 81, 0
2, 34800, Note_on_c, 0, 79, 107
2, 34920, Note_on_c, 0, 77, 107
2, 35016, Note_on_c, 0, 77, 0
2, 35040, Note_on_c, 0, 76, 107
2, 35136, Note_on_c, 0, 76, 0
2, 35160, Note_on_c, 0, 74, 107
2, 35184, Note_on_c, 0, 79, 0
2, 35256, Note_on_c, 0, 74, 0
2, 35280, Note_on_c, 0, 79, 107
2, 35280, Note_on_c, 0, 73, 107
2, 35376, Note_on_c, 0, 79, 0
2, 35400, Note_on_c, 0, 77, 107
2, 35400, Note_on_c, 0, 70, 107
2, 35472, Note_on_c, 0, 73, 0
2, 35496, Note_on_c, 0, 70, 0
2, 35496, Note_on_c, 0, 77, 0
2, 35520, Note_on_c, 0, 69, 107
2, 35520, Note_on_c, 0, 79, 107
2, 35520, Note_on_c, 0, 73, 107
2, 35616, Note_on_c, 0, 69, 0
2, 35640, Note_on_c, 0, 67, 107
2, 35736, Note_on_c, 0, 67, 0
2, 35760, Note_on_c, 0, 65, 107
2, 35856, Note_on_c, 0, 65, 0
2, 35880, Note_on_c, 0, 64, 107
2, 35904, Note_on_c, 0, 73, 0
2, 35904, Note_on_c, 0, 79, 0
2, 35976, Note_on_c, 0, 64, 0
2, 36000, Note_on_c, 0, 77, 107
2, 36096, Note_on_c, 0, 77, 0
2, 36120, Note_on_c, 0, 79, 107
2, 36216, Note_on_c, 0, 79, 0
2, 36240, Note_on_c, 0, 77, 107
2, 36360, Note_on_c, 0, 76, 107
2, 36456, Note_on_c, 0, 76, 0
2, 36480, Note_on_c, 0, 74, 107
2, 36576, Note_on_c, 0, 74, 0
2, 36600, Note_on_c, 0, 72, 107
2, 36624, Note_on_c, 0, 77, 0
2, 36696, Note_on_c, 0, 72, 0
2, 36720, Note_on_c, 0, 77, 107
2, 36720, Note_on_c, 0, 71, 107
2, 36816, Note_on_c, 0, 77, 0
2, 36840, Note_on_c, 0, 76, 107
2, 36840, Note_on_c, 0, 69, 107
2, 36912, Note_on_c, 0, 71, 0
2, 36936, Note_on_c, 0, 69, 0
2, 36936, Note_on_c, 0, 76, 0
2, 36960, Note_on_c, 0, 67, 107
2, 36960, Note_on_c, 0, 77, 107
2, 36960, Note_on_c, 0, 71, 107
2, 37056, Note_on_c, 0, 67, 0
2, 37080, Note_on_c, 0, 65, 107
2, 37176, Note_on_c, 0, 65, 0
2, 37200, Note_on_c, 0, 64, 107
2, 37296, Note_on_c, 0, 64, 0
2, 37320, Note_on_c, 0, 62, 107
2, 37344, Note_on_c, 0, 71, 0
2, 37344, Note_on_c, 0, 77, 0
2, 37416, Note_on_c, 0, 62, 0
2, 37440, Note_on_c, 0, 76, 107
2, 37440, Note_on_c, 0, 72, 107
2, 37536, Note_on_c, 0, 76, 0
2, 37560, Note_on_c, 0, 74, 107
2, 37656, Note_on_c, 0, 74, 0
2, 37680, Note_on_c, 0, 77, 107
2, 37776, Note_on_c, 0, 77, 0
2, 37800, Note_on_c, 0, 76, 107
2, 37896, Note_on_c, 0, 76, 0
2, 37920, Note_on_c, 0, 81, 107
2, 38016, Note_on_c, 0, 81, 0
2, 38016, Note_on_c, 0, 72, 0
2, 38040, Note_on_c, 0, 72, 107
2, 38040, Note_on_c, 0, 79, 107
2, 38136, Note_on_c, 0, 79, 0
2, 38136, Note_on_c, 0, 72, 0
2, 38160, Note_on_c, 0, 82, 107
2, 38160, Note_on_c, 0, 77, 107
2, 38256, Note_on_c, 0, 77, 0
2, 38256, Note_on_c, 0, 82, 0
2, 38280, Note_on_c, 0, 81, 107
2, 38280, Note_on_c, 0, 76, 107
2, 38376, Note_on_c, 0, 76, 0
2, 38376, Note_on_c, 0, 81, 0
2, 38400, Note_on_c, 0, 74, 107
2, 38400, Note_on_c, 0, 80, 107
2, 38496, Note_on_c, 0, 80, 0
2, 38496, Note_on_c, 0, 74, 0
2, 38520, Note_on_c, 0, 81, 107
2, 38520, Note_on_c, 0, 72, 107
2, 38616, Note_on_c, 0, 72, 0
2, 38616, Note_on_c, 0, 81, 0
2, 38640, Note_on_c, 0, 77, 107
2, 38640, Note_on_c, 0, 71, 107
2, 38736, Note_on_c, 0, 71, 0
2, 38736, Note_on_c, 0, 77, 0
2, 38760, Note_on_c, 0, 72, 107
2, 38760, Note_on_c, 0, 76, 107
2, 38856, Note_on_c, 0, 76, 0
2, 38856, Note_on_c, 0, 72, 0
2, 38880, Note_on_c, 0, 75, 107
2, 38880, Note_on_c, 0, 69, 107
2, 38976, Note_on_c, 0, 75, 0
2, 39000, Note_on_c, 0, 76, 107
2, 39072, Note_on_c, 0, 69, 0
2, 39096, Note_on_c, 0, 76, 0
2, 39120, Note_on_c, 0, 64, 107
2, 39120, Note_on_c, 0, 69, 107
2, 39120, Note_on_c, 0, 74, 107
2, 39216, Note_on_c, 0, 74, 0
2, 39240, Note_on_c, 0, 72, 107
2, 39312, Note_on_c, 0, 69, 0
2, 39312, Note_on_c, 0, 64, 0
2, 39336, Note_on_c, 0, 72, 0
2, 39360, Note_on_c, 0, 68, 107
2, 39360, Note_on_c, 0, 62, 107
2, 39360, Note_on_c, 0, 71, 107
2, 39456, Note_on_c, 0, 71, 0
2, 39480, Note_on_c, 0, 69, 107
2, 39552, Note_on_c, 0, 62, 0
2, 39552, Note_on_c, 0, 68, 0
2, 39576, Note_on_c, 0, 69, 0
2, 39600, Note_on_c, 0, 69, 107
2, 39600, Note_on_c, 0, 64, 107
2, 39600, Note_on_c, 0, 60, 107
2, 39792, Note_on_c, 0, 60, 0
2, 39792, Note_on_c, 0, 64, 0
2, 39792, Note_on_c, 0, 69, 0
2, 39840, Note_on_c, 0, 60, 107
2, 39840, Note_on_c, 0, 64, 107
2, 39840, Note_on_c, 0, 69, 107
2, 40224, Note_on_c, 0, 69, 0
2, 40224, Note_on_c, 0, 64, 0
2, 40224, Note_on_c, 0, 60, 0
2, 40224, End_track
3, 0, Start_track
3, 0, MIDI_port, 0
3, 0, Title_t, "J.S. Bach, Edition Wood"
3, 0, Program_c, 1, 0
3, 0, Control_c, 1, 7, 100
3, 0, Control_c, 1, 10, 64
3, 0, Note_on_c, 1, 57, 107
3, 192, Note_on_c, 1, 57, 0
3, 240, Note_on_c, 1, 50, 107
3, 432, Note_on_c, 1, 50, 0
3, 480, Note_on_c, 1, 52, 107
3, 672, Note_on_c, 1, 52, 0
3, 720, Note_on_c, 1, 53, 107
3, 912, Note_on_c, 1, 53, 0
3, 960, Note_on_c, 1, 52, 107
3, 1056, Note_on_c, 1, 52, 0
3, 1080, Note_on_c, 1, 50, 107
3, 1176, Note_on_c, 1, 50, 0
3, 1200, Note_on_c, 1, 48, 107
3, 1296, Note_on_c, 1, 48, 0
3, 1320, Note_on_c, 1, 47, 107
3, 1416, Note_on_c, 1, 47, 0
3, 1440, Note_on_c, 1, 48, 107
3, 1455, Note_on_c, 1, 52, 107
3, 1470, Note_on_c, 1, 57, 107
3, 1644, Note_on_c, 1, 57, 0
3, 1644, Note_on_c, 1, 52, 0
3, 1665, Note_on_c, 1, 48, 0
3, 1680, Note_on_c, 1, 50, 107
3, 1680, Note_on_c, 1, 57, 107
3, 1872, Note_on_c, 1, 57, 0
3, 1872, Note_on_c, 1, 50, 0
3, 1920, Note_on_c, 1, 52, 107
3, 2112, Note_on_c, 1, 52, 0
3, 2160, Note_on_c, 1, 45, 107
3, 2352, Note_on_c, 1, 45, 0
3, 2400, Note_on_c, 1, 48, 107
3, 2592, Note_on_c, 1, 48, 0
3, 2640, Note_on_c, 1, 52, 107
3, 2880, Note_on_c, 1, 52, 0
3, 2880, Note_on_c, 1, 57, 107
3, 3072, Note_on_c, 1, 57, 0
3, 3120, Note_on_c, 1, 45, 107
3, 3312, Note_on_c, 1, 45, 0
3, 3600, Note_on_c, 1, 59, 107
3, 3792, Note_on_c, 1, 59, 0
3, 3840, Note_on_c, 1, 47, 107
3, 4032, Note_on_c, 1, 47, 0
3, 4320, Note_on_c, 1, 60, 107
3, 4416, Note_on_c, 1, 60, 0
3, 4440, Note_on_c, 1, 59, 107
3, 4536, Note_on_c, 1, 59, 0
3, 4560, Note_on_c, 1, 57, 107
3, 4656, Note_on_c, 1, 57, 0
3, 4680, Note_on_c, 1, 55, 107
3, 4776, Note_on_c, 1, 55, 0
3, 4800, Note_on_c, 1, 53, 107
3, 4992, Note_on_c, 1, 53, 0
3, 5040, Note_on_c, 1, 53, 107
3, 5136, Note_on_c, 1, 53, 0
3, 5160, Note_on_c, 1, 52, 107
3, 5256, Note_on_c, 1, 52, 0
3, 5280, Note_on_c, 1, 55, 107
3, 5376, Note_on_c, 1, 55, 0
3, 5400, Note_on_c, 1, 53, 107
3, 5496, Note_on_c, 1, 53, 0
3, 5520, Note_on_c, 1, 52, 107
3, 5616, Note_on_c, 1, 52, 0
3, 5640, Note_on_c, 1, 50, 107
3, 5736, Note_on_c, 1, 50, 0
3, 5760, Note_on_c, 1, 52, 107
3, 6144, Note_on_c, 1, 52, 0
3, 6480, Note_on_c, 1, 53, 107
3, 6864, Note_on_c, 1, 53, 0
3, 6960, Note_on_c, 1, 54, 107
3, 7152, Note_on_c, 1, 54, 0
3, 7440, Note_on_c, 1, 55, 107
3, 7632, Note_on_c, 1, 55, 0
3, 7680, Note_on_c, 1, 43, 107
3, 7872, Note_on_c, 1, 43, 0
3, 7920, Note_on_c, 1, 48, 107
3, 8112, Note_on_c, 1, 48, 0
3, 8160, Note_on_c, 1, 36, 107
3, 8544, Note_on_c, 1, 36, 0
3, 8640, Note_on_c, 1, 57, 107
3, 8832, Note_on_c, 1, 57, 0
3, 8880, Note_on_c, 1, 50, 107
3, 9072, Note_on_c, 1, 50, 0
3, 9120, Note_on_c, 1, 52, 107
3, 9312, Note_on_c, 1, 52, 0
3, 9360, Note_on_c, 1, 53, 107
3, 9552, Note_on_c, 1, 53, 0
3, 9600, Note_on_c, 1, 52, 107
3, 9696, Note_on_c, 1, 52, 0
3, 9720, Note_on_c, 1, 50, 107
3, 9816, Note_on_c, 1, 50, 0
3, 9840, Note_on_c, 1, 48, 107
3, 9936, Note_on_c, 1, 48, 0
3, 9960, Note_on_c, 1, 47, 107
3, 10056, Note_on_c, 1, 47, 0
3, 10080, Note_on_c, 1, 48, 107
3, 10095, Note_on_c, 1, 52, 107
3, 10110, Note_on_c, 1, 57, 107
3, 10284, Note_on_c, 1, 57, 0
3, 10284, Note_on_c, 1, 52, 0
3, 10305, Note_on_c, 1, 48, 0
3, 10320, Note_on_c, 1, 50, 107
3, 10320, Note_on_c, 1, 57, 107
3, 10512, Note_on_c, 1, 57, 0
3, 10512, Note_on_c, 1, 50, 0
3, 10560, Note_on_c, 1, 52, 107
3, 10752, Note_on_c, 1, 52, 0
3, 10800, Note_on_c, 1, 45, 107
3, 10992, Note_on_c, 1, 45, 0
3, 11040, Note_on_c, 1, 48, 107
3, 11232, Note_on_c, 1, 48, 0
3, 11280, Note_on_c, 1, 52, 107
3, 11520, Note_on_c, 1, 52, 0
3, 11520, Note_on_c, 1, 57, 107
3, 11712, Note_on_c, 1, 57, 0
3, 11760, Note_on_c, 1, 45, 107
3, 11952, Note_on_c, 1, 45, 0
3, 12240, Note_on_c, 1, 59, 107
3, 12432, Note_on_c, 1, 59, 0
3, 12480, Note_on_c, 1, 47, 107
3, 12672, Note_on_c, 1, 47, 0
3, 12960, Note_on_c, 1, 60, 107
3, 13056, Note_on_c, 1, 60, 0
3, 13080, Note_on_c, 1, 59, 107
3, 13176, Note_on_c, 1, 59, 0
3, 13200, Note_on_c, 1, 57, 107
3, 13296, Note_on_c, 1, 57, 0
3, 13320, Note_on_c, 1, 55, 107
3, 13416, Note_on_c, 1, 55, 0
3, 13440, Note_on_c, 1, 53, 107
3, 13632, Note_on_c, 1, 53, 0
3, 13680, Note_on_c, 1, 53, 107
3, 13776, Note_on_c, 1, 53, 0
3, 13800, Note_on_c, 1, 52, 107
3, 13896, Note_on_c, 1, 52, 0
3, 13920, Note_on_c, 1, 55, 107
3, 14016, Note_on_c, 1, 55, 0
3, 14040, Note_on_c, 1, 53, 107
3, 14136, Note_on_c, 1, 53, 0
3, 14160, Note_on_c, 1, 52, 107
3, 14256, Note_on_c, 1, 52, 0
3, 14280, Note_on_c, 1, 50, 107
3, 14376, Note_on_c, 1, 50, 0
3, 14400, Note_on_c, 1, 52, 107
3, 14784, Note_on_c, 1, 52, 0
3, 15120, Note_on_c, 1, 53, 107
3, 15504, Note_on_c, 1, 53, 0
3, 15600, Note_on_c, 1, 54, 107
3, 15792, Note_on_c, 1, 54, 0
3, 16080, Note_on_c, 1, 55, 107
3, 16272, Note_on_c, 1, 55, 0
3, 16320, Note_on_c, 1, 43, 107
3, 16512, Note_on_c, 1, 43, 0
3, 16560, Note_on_c, 1, 48, 107
3, 16752, Note_on_c, 1, 48, 0
3, 16800, Note_on_c, 1, 36, 107
3, 17184, Note_on_c, 1, 36, 0
3, 17280, Note_on_c, 1, 48, 107
3, 17280, Note_on_c, 1, 60, 107
3, 17376, Note_on_c, 1, 48, 0
3, 17400, Note_on_c, 1, 52, 107
3, 17472, Note_on_c, 1, 60, 0
3, 17496, Note_on_c, 1, 52, 0
3, 17520, Note_on_c, 1, 55, 107
3, 17520, Note_on_c, 1, 60, 107
3, 17712, Note_on_c, 1, 60, 0
3, 17712, Note_on_c, 1, 55, 0
3, 17760, Note_on_c, 1, 55, 107
3, 17760, Note_on_c, 1, 43, 107
3, 17952, Note_on_c, 1, 43, 0
3, 17952, Note_on_c, 1, 55, 0
3, 18000, Note_on_c, 1, 55, 107
3, 18000, Note_on_c, 1, 48, 107
3, 18192, Note_on_c, 1, 48, 0
3, 18192, Note_on_c, 1, 55, 0
3, 18240, Note_on_c, 1, 48, 107
3, 18240, Note_on_c, 1, 55, 107
3, 18336, Note_on_c, 1, 48, 0
3, 18360, Note_on_c, 1, 47, 107
3, 18456, Note_on_c, 1, 47, 0
3, 18480, Note_on_c, 1, 45, 107
3, 18576, Note_on_c, 1, 45, 0
3, 18600, Note_on_c, 1, 43, 107
3, 18624, Note_on_c, 1, 55, 0
3, 18696, Note_on_c, 1, 43, 0
3, 18720, Note_on_c, 1, 42, 107
3, 18720, Note_on_c, 1, 57, 107
3, 18912, Note_on_c, 1, 57, 0
3, 18912, Note_on_c, 1, 42, 0
3, 18960, Note_on_c, 1, 43, 107
3, 18960, Note_on_c, 1, 59, 107
3, 19152, Note_on_c, 1, 59, 0
3, 19152, Note_on_c, 1, 43, 0
3, 19200, Note_on_c, 1, 59, 107
3, 19200, Note_on_c, 1, 52, 107
3, 19392, Note_on_c, 1, 52, 0
3, 19392, Note_on_c, 1, 59, 0
3, 19440, Note_on_c, 1, 59, 107
3, 19440, Note_on_c, 1, 47, 107
3, 19536, Note_on_c, 1, 59, 0
3, 19560, Note_on_c, 1, 61, 107
3, 19632, Note_on_c, 1, 47, 0
3, 19656, Note_on_c, 1, 61, 0
3, 19680, Note_on_c, 1, 59, 107
3, 19680, Note_on_c, 1, 63, 107
3, 19776, Note_on_c, 1, 59, 0
3, 19800, Note_on_c, 1, 57, 107
3, 19872, Note_on_c, 1, 63, 0
3, 19896, Note_on_c, 1, 57, 0
3, 19920, Note_on_c, 1, 55, 107
3, 20016, Note_on_c, 1, 55, 0
3, 20040, Note_on_c, 1, 54, 107
3, 20136, Note_on_c, 1, 54, 0
3, 20160, Note_on_c, 1, 52, 107
3, 20352, Note_on_c, 1, 52, 0
3, 20400, Note_on_c, 1, 64, 107
3, 20592, Note_on_c, 1, 64, 0
3, 20760, Note_on_c, 1, 52, 107
3, 20856, Note_on_c, 1, 52, 0
3, 20880, Note_on_c, 1, 51, 107
3, 21072, Note_on_c, 1, 51, 0
3, 21120, Note_on_c, 1, 63, 107
3, 21312, Note_on_c, 1, 63, 0
3, 21480, Note_on_c, 1, 50, 107
3, 21576, Note_on_c, 1, 50, 0
3, 21600, Note_on_c, 1, 48, 107
3, 21792, Note_on_c, 1, 48, 0
3, 21840, Note_on_c, 1, 43, 107
3, 22032, Note_on_c, 1, 43, 0
3, 22080, Note_on_c, 1, 47, 107
3, 22272, Note_on_c, 1, 47, 0
3, 22320, Note_on_c, 1, 40, 107
3, 22512, Note_on_c, 1, 40, 0
3, 22560, Note_on_c, 1, 43, 107
3, 22752, Note_on_c, 1, 43, 0
3, 22800, Note_on_c, 1, 47, 107
3, 22992, Note_on_c, 1, 47, 0
3, 23040, Note_on_c, 1, 52, 107
3, 23232, Note_on_c, 1, 52, 0
3, 23280, Note_on_c, 1, 53, 107
3, 23472, Note_on_c, 1, 53, 0
3, 23520, Note_on_c, 1, 55, 107
3, 23712, Note_on_c, 1, 55, 0
3, 23760, Note_on_c, 1, 57, 107
3, 23952, Note_on_c, 1, 57, 0
3, 24480, Note_on_c, 1, 50, 107
3, 24480, Note_on_c, 1, 62, 107
3, 24672, Note_on_c, 1, 62, 0
3, 24672, Note_on_c, 1, 50, 0
3, 24720, Note_on_c, 1, 52, 107
3, 24912, Note_on_c, 1, 52, 0
3, 24960, Note_on_c, 1, 53, 107
3, 25152, Note_on_c, 1, 53, 0
3, 25200, Note_on_c, 1, 55, 107
3, 25392, Note_on_c, 1, 55, 0
3, 25920, Note_on_c, 1, 60, 107
3, 26016, Note_on_c, 1, 60, 0
3, 26040, Note_on_c, 1, 59, 107
3, 26136, Note_on_c, 1, 59, 0
3, 26160, Note_on_c, 1, 57, 107
3, 26256, Note_on_c, 1, 57, 0
3, 26280, Note_on_c, 1, 55, 107
3, 26376, Note_on_c, 1, 55, 0
3, 26400, Note_on_c, 1, 53, 107
3, 26496, Note_on_c, 1, 53, 0
3, 26520, Note_on_c, 1, 52, 107
3, 26616, Note_on_c, 1, 52, 0
3, 26640, Note_on_c, 1, 50, 107
3, 26736, Note_on_c, 1, 50, 0
3, 26760, Note_on_c, 1, 48, 107
3, 26856, Note_on_c, 1, 48, 0
3, 26880, Note_on_c, 1, 47, 107
3, 26976, Note_on_c, 1, 47, 0
3, 27000, Note_on_c, 1, 45, 107
3, 27096, Note_on_c, 1, 45, 0
3, 27120, Note_on_c, 1, 44, 107
3, 27216, Note_on_c, 1, 44, 0
3, 27240, Note_on_c, 1, 45, 107
3, 27336, Note_on_c, 1, 45, 0
3, 27360, Note_on_c, 1, 42, 107
3, 27552, Note_on_c, 1, 42, 0
3, 27600, Note_on_c, 1, 40, 107
3, 27792, Note_on_c, 1, 40, 0
3, 27840, Note_on_c, 1, 52, 107
3, 28032, Note_on_c, 1, 52, 0
3, 28080, Note_on_c, 1, 45, 107
3, 28176, Note_on_c, 1, 45, 0
3, 28200, Note_on_c, 1, 48, 107
3, 28248, Note_on_c, 1, 48, 0
3, 28260, Note_on_c, 1, 52, 107
3, 28308, Note_on_c, 1, 52, 0
3, 28320, Note_on_c, 1, 57, 107
3, 28704, Note_on_c, 1, 57, 0
3, 28800, Note_on_c, 1, 48, 107
3, 28800, Note_on_c, 1, 60, 107
3, 28896, Note_on_c, 1, 48, 0
3, 28920, Note_on_c, 1, 52, 107
3, 28992, Note_on_c, 1, 60, 0
3, 29016, Note_on_c, 1, 52, 0
3, 29040, Note_on_c, 1, 55, 107
3, 29040, Note_on_c, 1, 60, 107
3, 29232, Note_on_c, 1, 60, 0
3, 29232, Note_on_c, 1, 55, 0
3, 29280, Note_on_c, 1, 55, 107
3, 29280, Note_on_c, 1, 43, 107
3, 29472, Note_on_c, 1, 43, 0
3, 29472, Note_on_c, 1, 55, 0
3, 29520, Note_on_c, 1, 55, 107
3, 29520, Note_on_c, 1, 48, 107
3, 29712, Note_on_c, 1, 48, 0
3, 29712, Note_on_c, 1, 55, 0
3, 29760, Note_on_c, 1, 48, 107
3, 29760, Note_on_c, 1, 55, 107
3, 29856, Note_on_c, 1, 48, 0
3, 29880, Note_on_c, 1, 47, 107
3, 29976, Note_on_c, 1, 47, 0
3, 30000, Note_on_c, 1, 45, 107
3, 30096, Note_on_c, 1, 45, 0
3, 30120, Note_on_c, 1, 43, 107
3, 30144, Note_on_c, 1, 55, 0
3, 30216, Note_on_c, 1, 43, 0
3, 30240, Note_on_c, 1, 42, 107
3, 30240, Note_on_c, 1, 57, 107
3, 30432, Note_on_c, 1, 57, 0
3, 30432, Note_on_c, 1, 42, 0
3, 30480, Note_on_c, 1, 43, 107
3, 30480, Note_on_c, 1, 59, 107
3, 30672, Note_on_c, 1, 59, 0
3, 30672, Note_on_c, 1, 43, 0
3, 30720, Note_on_c, 1, 59, 107
3, 30720, Note_on_c, 1, 52, 107
3, 30912, Note_on_c, 1, 52, 0
3, 30912, Note_on_c, 1, 59, 0
3, 30960, Note_on_c, 1, 59, 107
3, 30960, Note_on_c, 1, 47, 107
3, 31056, Note_on_c, 1, 59, 0
3, 31080, Note_on_c, 1, 61, 107
3, 31152, Note_on_c, 1, 47, 0
3, 31176, Note_on_c, 1, 61, 0
3, 31200, Note_on_c, 1, 59, 107
3, 31200, Note_on_c, 1, 63, 107
3, 31296, Note_on_c, 1, 59, 0
3, 31320, Note_on_c, 1, 57, 107
3, 31392, Note_on_c, 1, 63, 0
3, 31416, Note_on_c, 1, 57, 0
3, 31440, Note_on_c, 1, 55, 107
3, 31536, Note_on_c, 1, 55, 0
3, 31560, Note_on_c, 1, 54, 107
3, 31656, Note_on_c, 1, 54, 0
3, 31680, Note_on_c, 1, 52, 107
3, 31872, Note_on_c, 1, 52, 0
3, 31920, Note_on_c, 1, 64, 107
3, 32112, Note_on_c, 1, 64, 0
3, 32280, Note_on_c, 1, 52, 107
3, 32376, Note_on_c, 1, 52, 0
3, 32400, Note_on_c, 1, 51, 107
3, 32592, Note_on_c, 1, 51, 0
3, 32640, Note_on_c, 1, 63, 107
3, 32832, Note_on_c, 1, 63, 0
3, 33000, Note_on_c, 1, 50, 107
3, 33096, Note_on_c, 1, 50, 0
3, 33120, Note_on_c, 1, 48, 107
3, 33312, Note_on_c, 1, 48, 0
3, 33360, Note_on_c, 1, 43, 107
3, 33552, Note_on_c, 1, 43, 0
3, 33600, Note_on_c, 1, 47, 107
3, 33792, Note_on_c, 1, 47, 0
3, 33840, Note_on_c, 1, 40, 107
3, 34032, Note_on_c, 1, 40, 0
3, 34080, Note_on_c, 1, 43, 107
3, 34272, Note_on_c, 1, 43, 0
3, 34320, Note_on_c, 1, 47, 107
3, 34512, Note_on_c, 1, 47, 0
3, 34560, Note_on_c, 1, 52, 107
3, 34752, Note_on_c, 1, 52, 0
3, 34800, Note_on_c, 1, 53, 107
3, 34992, Note_on_c, 1, 53, 0
3, 35040, Note_on_c, 1, 55, 107
3, 35232, Note_on_c, 1, 55, 0
3, 35280, Note_on_c, 1, 57, 107
3, 35472, Note_on_c, 1, 57, 0
3, 36000, Note_on_c, 1, 50, 107
3, 36000, Note_on_c, 1, 62, 107
3, 36192, Note_on_c, 1, 62, 0
3, 36192, Note_on_c, 1, 50, 0
3, 36240, Note_on_c, 1, 52, 107
3, 36432, Note_on_c, 1, 52, 0
3, 36480, Note_on_c, 1, 53, 107
3, 36672, Note_on_c, 1, 53, 0
3, 36720, Note_on_c, 1, 55, 107
3, 36912, Note_on_c, 1, 55, 0
3, 37440, Note_on_c, 1, 60, 107
3, 37536, Note_on_c, 1, 60, 0
3, 37560, Note_on_c, 1, 59, 107
3, 37656, Note_on_c, 1, 59, 0
3, 37680, Note_on_c, 1, 57, 107
3, 37776, Note_on_c, 1, 57, 0
3, 37800, Note_on_c, 1, 55, 107
3, 37896, Note_on_c, 1, 55, 0
3, 37920, Note_on_c, 1, 53, 107
3, 38016, Note_on_c, 1, 53, 0
3, 38040, Note_on_c, 1, 52, 107
3, 38136, Note_on_c, 1, 52, 0
3, 38160, Note_on_c, 1, 50, 107
3, 38256, Note_on_c, 1, 50, 0
3, 38280, Note_on_c, 1, 48, 107
3, 38376, Note_on_c, 1, 48, 0
3, 38400, Note_on_c, 1, 47, 107
3, 38496, Note_on_c, 1, 47, 0
3, 38520, Note_on_c, 1, 45, 107
3, 38616, Note_on_c, 1, 45, 0
3, 38640, Note_on_c, 1, 44, 107
3, 38736, Note_on_c, 1, 44, 0
3, 38760, Note_on_c, 1, 45, 107
3, 38856, Note_on_c, 1, 45, 0
3, 38880, Note_on_c, 1, 42, 107
3, 39072, Note_on_c, 1, 42, 0
3, 39120, Note_on_c, 1, 40, 107
3, 39312, Note_on_c, 1, 40, 0
3, 39360, Note_on_c, 1, 52, 107
3, 39552, Note_on_c, 1, 52, 0
3, 39600, Note_on_c, 1, 45, 107
3, 39696, Note_on_c, 1, 45, 0
3, 39720, Note_on_c, 1, 48, 107
3, 39768, Note_on_c, 1, 48, 0
3, 39780, Note_on_c, 1, 52, 107
3, 39828, Note_on_c, 1, 52, 0
3, 39840, Note_on_c, 1, 57, 107
3, 40224, Note_on_c, 1, 57, 0
3, 40224, End_track
4, 0, Start_track
4, 0, MIDI_port, 0
4, 0, Title_t, "Arr. Gary Bricault, (c) 1997"
4, 0, End_track
0, 0, End_of_file
