0, 0, Header, 1, 3, 384
1, 0, Start_track
1, 0, Tempo, 500000
1, 0, Time_signature, 4, 2, 24, 8
1, 651264, End_track
2, 0, Start_track
2, 0, Text_t, "harpsichord: John Sankey"
2, 0, Program_c, 0, 6
2, 0, Pitch_bend_c, 0, 8192
2, 0, Program_c, 1, 6
2, 0, Pitch_bend_c, 1, 7792
2, 0, Program_c, 2, 6
2, 0, Pitch_bend_c, 2, 7876
2, 0, Program_c, 3, 6
2, 0, Pitch_bend_c, 3, 7952
2, 0, Program_c, 4, 6
2, 0, Pitch_bend_c, 4, 7792
2, 0, Program_c, 5, 6
2, 0, Pitch_bend_c, 5, 8112
2, 0, Program_c, 6, 6
2, 0, Pitch_bend_c, 6, 7712
2, 0, Program_c, 7, 6
2, 0, Pitch_bend_c, 7, 8037
2, 0, Program_c, 8, 6
2, 0, Pitch_bend_c, 8, 7872
2, 0, Program_c, 10, 6
2, 0, Pitch_bend_c, 10, 7712
2, 0, Program_c, 11, 6
2, 0, Pitch_bend_c, 11, 8032
2, 0, Program_c, 12, 6
2, 0, Pitch_bend_c, 12, 7872
2, 0, Title_t, "Track 1"
2, 96, Note_on_c, 10, 57, 127
2, 198, Note_on_c, 0, 60, 127
2, 300, Note_on_c, 10, 69, 127
2, 463, Note_on_c, 4, 76, 127
2, 1178, Note_on_c, 2, 74, 127
2, 1318, Note_off_c, 2, 74, 127
2, 1321, Note_on_c, 0, 72, 127
2, 1441, Note_off_c, 0, 72, 127
2, 1444, Note_on_c, 12, 71, 127
2, 1526, Note_off_c, 4, 76, 127
2, 1564, Note_off_c, 12, 71, 127
2, 1567, Note_on_c, 2, 74, 127
2, 1687, Note_off_c, 2, 74, 127
2, 1690, Note_on_c, 0, 72, 127
2, 1769, Note_off_c, 10, 69, 127
2, 1810, Note_off_c, 0, 72, 127
2, 1813, Note_on_c, 12, 71, 127
2, 1933, Note_off_c, 12, 71, 127
2, 1936, Note_on_c, 10, 69, 127
2, 2010, Note_off_c, 0, 60, 127
2, 2056, Note_off_c, 10, 69, 127
2, 2056, Note_off_c, 10, 57, 127
2, 2059, Note_on_c, 4, 64, 127
2, 2059, Note_on_c, 0, 60, 127
2, 2059, Note_on_c, 10, 57, 127
2, 2059, Note_on_c, 10, 81, 127
2, 2123, Note_on_c, 8, 80, 127
2, 2161, Note_off_c, 10, 81, 127
2, 2187, Note_on_c, 10, 81, 127
2, 2200, Note_off_c, 8, 80, 127
2, 2374, Note_off_c, 10, 81, 127
2, 2428, Note_on_c, 4, 76, 127
2, 2548, Note_off_c, 4, 76, 127
2, 2551, Note_on_c, 6, 78, 127
2, 2671, Note_off_c, 6, 78, 127
2, 2674, Note_on_c, 8, 80, 127
2, 2794, Note_off_c, 8, 80, 127
2, 2797, Note_on_c, 10, 81, 127
2, 2917, Note_off_c, 10, 81, 127
2, 2920, Note_on_c, 12, 83, 127
2, 3040, Note_off_c, 12, 83, 127
2, 3040, Note_off_c, 10, 57, 127
2, 3040, Note_off_c, 0, 60, 127
2, 3040, Note_off_c, 4, 64, 127
2, 3043, Note_on_c, 10, 57, 127
2, 3043, Note_on_c, 10, 69, 127
2, 3043, Note_on_c, 4, 64, 127
2, 3043, Note_on_c, 12, 83, 127
2, 3303, Note_off_c, 12, 83, 127
2, 3303, Note_on_c, 0, 84, 127
2, 3528, Note_off_c, 0, 84, 127
2, 3533, Note_on_c, 12, 83, 127
2, 3691, Note_off_c, 12, 83, 127
2, 3701, Note_on_c, 10, 81, 127
2, 3803, Note_off_c, 10, 81, 127
2, 3808, Note_on_c, 8, 80, 127
2, 3910, Note_off_c, 8, 80, 127
2, 3915, Note_on_c, 10, 81, 127
2, 4017, Note_off_c, 10, 81, 127
2, 4020, Note_off_c, 4, 64, 127
2, 4020, Note_off_c, 10, 69, 127
2, 4020, Note_off_c, 10, 57, 127
2, 4023, Note_on_c, 12, 59, 127
2, 4023, Note_on_c, 10, 81, 127
2, 4268, Note_on_c, 2, 62, 127
2, 4511, Note_off_c, 2, 62, 127
2, 4514, Note_on_c, 5, 65, 127
2, 4739, Note_off_c, 10, 81, 127
2, 4757, Note_off_c, 5, 65, 127
2, 4760, Note_on_c, 4, 64, 127
2, 4760, Note_on_c, 8, 80, 127
2, 5003, Note_off_c, 4, 64, 127
2, 5006, Note_on_c, 2, 62, 127
2, 5249, Note_off_c, 2, 62, 127
2, 5252, Note_on_c, 4, 64, 127
2, 5495, Note_off_c, 4, 64, 127
2, 5498, Note_on_c, 0, 60, 127
2, 5741, Note_off_c, 0, 60, 127
2, 5744, Note_on_c, 4, 64, 127
2, 5864, Note_off_c, 4, 64, 127
2, 5867, Note_on_c, 2, 62, 127
2, 5987, Note_off_c, 2, 62, 127
2, 5987, Note_off_c, 12, 59, 127
2, 5990, Note_off_c, 8, 80, 127
2, 5990, Note_on_c, 12, 59, 127
2, 5990, Note_on_c, 2, 62, 127
2, 6235, Note_on_c, 4, 76, 127
2, 6478, Note_off_c, 4, 76, 127
2, 6481, Note_on_c, 0, 84, 127
2, 6724, Note_off_c, 0, 84, 127
2, 6727, Note_on_c, 12, 83, 127
2, 6970, Note_off_c, 12, 83, 127
2, 6973, Note_on_c, 4, 52, 127
2, 6973, Note_on_c, 10, 81, 127
2, 7241, Note_off_c, 10, 81, 127
2, 7267, Note_on_c, 8, 80, 127
2, 7704, Note_off_c, 8, 80, 127
2, 7709, Note_on_c, 12, 83, 127
2, 7829, Note_off_c, 12, 83, 127
2, 7832, Note_on_c, 10, 81, 127
2, 7952, Note_off_c, 10, 81, 127
2, 7952, Note_off_c, 4, 52, 127
2, 7952, Note_off_c, 12, 59, 127
2, 7955, Note_on_c, 10, 57, 127
2, 7955, Note_on_c, 10, 81, 127
2, 8190, Note_off_c, 2, 62, 127
2, 8200, Note_on_c, 0, 60, 127
2, 8443, Note_off_c, 0, 60, 127
2, 8446, Note_on_c, 12, 59, 127
2, 8689, Note_off_c, 12, 59, 127
2, 8689, Note_off_c, 10, 81, 127
2, 8692, Note_on_c, 2, 62, 127
2, 8692, Note_on_c, 10, 81, 127
2, 8812, Note_off_c, 2, 62, 127
2, 8815, Note_on_c, 0, 60, 127
2, 8935, Note_off_c, 0, 60, 127
2, 8935, Note_off_c, 10, 81, 127
2, 8938, Note_on_c, 0, 60, 127
2, 8938, Note_on_c, 5, 77, 127
2, 9055, Note_off_c, 10, 57, 127
2, 9058, Note_off_c, 0, 60, 127
2, 9061, Note_on_c, 12, 59, 127
2, 9181, Note_off_c, 12, 59, 127
2, 9184, Note_on_c, 10, 57, 127
2, 9304, Note_off_c, 10, 57, 127
2, 9307, Note_on_c, 12, 59, 127
2, 9424, Note_off_c, 5, 77, 127
2, 9427, Note_off_c, 12, 59, 127
2, 9430, Note_on_c, 0, 60, 127
2, 9430, Note_on_c, 4, 76, 127
2, 9550, Note_off_c, 0, 60, 127
2, 9553, Note_on_c, 2, 62, 127
2, 9673, Note_off_c, 2, 62, 127
2, 9676, Note_on_c, 4, 64, 127
2, 9788, Note_off_c, 4, 76, 127
2, 9796, Note_off_c, 4, 64, 127
2, 9799, Note_on_c, 5, 65, 127
2, 9799, Note_on_c, 4, 76, 127
2, 9901, Note_off_c, 4, 76, 127
2, 9919, Note_off_c, 5, 65, 127
2, 9922, Note_on_c, 12, 59, 127
2, 9922, Note_on_c, 8, 56, 127
2, 9922, Note_on_c, 4, 76, 127
2, 10219, Note_on_c, 12, 71, 127
2, 10249, Note_off_c, 4, 76, 127
2, 10351, Note_on_c, 0, 72, 127
2, 10362, Note_off_c, 12, 71, 127
2, 10443, Note_on_c, 2, 74, 127
2, 10471, Note_off_c, 0, 72, 127
2, 10535, Note_on_c, 4, 76, 127
2, 10563, Note_off_c, 2, 74, 127
2, 10627, Note_on_c, 6, 78, 127
2, 10655, Note_off_c, 4, 76, 127
2, 10719, Note_on_c, 8, 80, 127
2, 10747, Note_off_c, 6, 78, 127
2, 10811, Note_on_c, 10, 81, 127
2, 10839, Note_off_c, 8, 80, 127
2, 10900, Note_off_c, 8, 56, 127
2, 10903, Note_on_c, 7, 55, 127
2, 10903, Note_on_c, 12, 83, 127
2, 10931, Note_off_c, 10, 81, 127
2, 11145, Note_off_c, 12, 83, 127
2, 11148, Note_on_c, 7, 79, 127
2, 11391, Note_off_c, 7, 79, 127
2, 11391, Note_off_c, 12, 59, 127
2, 11394, Note_on_c, 11, 58, 127
2, 11394, Note_on_c, 5, 77, 127
2, 11718, Note_off_c, 5, 77, 127
2, 11721, Note_on_c, 4, 76, 127
2, 11874, Note_off_c, 7, 55, 127
2, 11882, Note_off_c, 4, 76, 127
2, 11882, Note_off_c, 11, 58, 127
2, 11885, Note_on_c, 10, 57, 127
2, 11885, Note_on_c, 5, 53, 127
2, 11885, Note_on_c, 4, 76, 127
2, 12005, Note_off_c, 4, 76, 127
2, 12008, Note_on_c, 2, 74, 127
2, 12128, Note_off_c, 2, 74, 127
2, 12131, Note_on_c, 0, 72, 127
2, 12251, Note_off_c, 0, 72, 127
2, 12254, Note_on_c, 12, 71, 127
2, 12374, Note_off_c, 12, 71, 127
2, 12377, Note_on_c, 10, 69, 127
2, 12497, Note_off_c, 10, 69, 127
2, 12500, Note_on_c, 8, 68, 127
2, 12620, Note_off_c, 8, 68, 127
2, 12623, Note_on_c, 12, 71, 127
2, 12743, Note_off_c, 12, 71, 127
2, 12746, Note_on_c, 10, 69, 127
2, 12866, Note_off_c, 10, 69, 127
2, 12869, Note_on_c, 10, 69, 127
2, 13114, Note_on_c, 2, 62, 127
2, 13354, Note_off_c, 10, 69, 127
2, 13359, Note_on_c, 2, 74, 127
2, 13423, Note_on_c, 1, 73, 127
2, 13431, Note_off_c, 2, 74, 127
2, 13485, Note_off_c, 1, 73, 127
2, 13488, Note_on_c, 2, 74, 127
2, 13687, Note_off_c, 2, 74, 127
2, 13728, Note_on_c, 2, 74, 127
2, 13830, Note_off_c, 2, 62, 127
2, 13848, Note_off_c, 2, 74, 127
2, 13848, Note_off_c, 5, 53, 127
2, 13848, Note_off_c, 10, 57, 127
2, 13851, Note_on_c, 5, 53, 127
2, 13851, Note_on_c, 10, 57, 127
2, 13851, Note_on_c, 2, 74, 127
2, 14094, Note_off_c, 2, 74, 127
2, 14097, Note_on_c, 10, 69, 127
2, 14340, Note_off_c, 10, 69, 127
2, 14343, Note_on_c, 10, 81, 127
2, 14586, Note_off_c, 10, 81, 127
2, 14589, Note_on_c, 7, 79, 127
2, 14709, Note_off_c, 7, 79, 127
2, 14712, Note_on_c, 5, 77, 127
2, 14832, Note_off_c, 5, 77, 127
2, 14835, Note_on_c, 5, 77, 127
2, 15078, Note_off_c, 5, 77, 127
2, 15081, Note_on_c, 4, 76, 127
2, 15201, Note_off_c, 4, 76, 127
2, 15204, Note_on_c, 2, 74, 127
2, 15324, Note_off_c, 2, 74, 127
2, 15327, Note_on_c, 2, 74, 127
2, 15447, Note_off_c, 2, 74, 127
2, 15450, Note_on_c, 5, 77, 127
2, 15570, Note_off_c, 5, 77, 127
2, 15573, Note_on_c, 4, 76, 127
2, 15693, Note_off_c, 4, 76, 127
2, 15696, Note_on_c, 5, 77, 127
2, 15816, Note_off_c, 5, 77, 127
2, 15816, Note_off_c, 10, 57, 127
2, 15816, Note_off_c, 5, 53, 127
2, 15819, Note_on_c, 10, 57, 127
2, 15819, Note_on_c, 6, 54, 127
2, 15819, Note_on_c, 4, 76, 127
2, 16307, Note_off_c, 4, 76, 127
2, 16310, Note_on_c, 3, 75, 127
2, 16798, Note_off_c, 3, 75, 127
2, 16801, Note_on_c, 3, 75, 127
2, 16921, Note_off_c, 6, 54, 127
2, 16921, Note_off_c, 10, 57, 127
2, 16924, Note_on_c, 7, 55, 127
2, 17044, Note_off_c, 7, 55, 127
2, 17047, Note_on_c, 6, 54, 127
2, 17167, Note_off_c, 6, 54, 127
2, 17170, Note_on_c, 7, 55, 127
2, 17290, Note_off_c, 7, 55, 127
2, 17293, Note_on_c, 10, 57, 127
2, 17413, Note_off_c, 10, 57, 127
2, 17416, Note_on_c, 12, 59, 127
2, 17536, Note_off_c, 12, 59, 127
2, 17539, Note_on_c, 0, 60, 127
2, 17782, Note_off_c, 0, 60, 127
2, 17785, Note_on_c, 0, 60, 127
2, 18028, Note_off_c, 0, 60, 127
2, 18031, Note_on_c, 12, 59, 127
2, 18519, Note_off_c, 12, 59, 127
2, 18522, Note_on_c, 0, 60, 127
2, 18642, Note_off_c, 0, 60, 127
2, 18645, Note_on_c, 10, 57, 127
2, 18765, Note_off_c, 10, 57, 127
2, 18768, Note_on_c, 12, 59, 127
2, 18888, Note_off_c, 3, 75, 127
2, 18891, Note_on_c, 1, 73, 127
2, 19011, Note_off_c, 1, 73, 127
2, 19014, Note_on_c, 12, 71, 127
2, 19134, Note_off_c, 12, 71, 127
2, 19137, Note_on_c, 1, 73, 127
2, 19257, Note_off_c, 1, 73, 127
2, 19257, Note_off_c, 12, 59, 127
2, 19260, Note_on_c, 12, 47, 127
2, 19260, Note_on_c, 10, 57, 127
2, 19260, Note_on_c, 3, 75, 127
2, 19380, Note_off_c, 3, 75, 127
2, 19383, Note_on_c, 4, 76, 127
2, 19503, Note_off_c, 4, 76, 127
2, 19506, Note_on_c, 6, 78, 127
2, 19749, Note_off_c, 6, 78, 127
2, 19749, Note_off_c, 10, 57, 127
2, 19749, Note_off_c, 12, 47, 127
2, 19752, Note_on_c, 8, 56, 127
2, 19752, Note_on_c, 4, 52, 127
2, 19752, Note_on_c, 6, 78, 127
2, 20240, Note_off_c, 6, 78, 127
2, 20243, Note_on_c, 4, 76, 127
2, 20731, Note_off_c, 4, 76, 127
2, 20734, Note_on_c, 4, 76, 127
2, 20854, Note_off_c, 4, 52, 127
2, 20854, Note_off_c, 8, 56, 127
2, 20857, Note_on_c, 12, 59, 127
2, 20977, Note_off_c, 12, 59, 127
2, 20980, Note_on_c, 0, 60, 127
2, 21100, Note_off_c, 0, 60, 127
2, 21103, Note_on_c, 2, 62, 127
2, 21223, Note_off_c, 2, 62, 127
2, 21226, Note_on_c, 4, 64, 127
2, 21346, Note_off_c, 4, 64, 127
2, 21349, Note_on_c, 6, 66, 127
2, 21469, Note_off_c, 6, 66, 127
2, 21472, Note_on_c, 8, 68, 127
2, 21592, Note_off_c, 8, 68, 127
2, 21595, Note_on_c, 10, 69, 127
2, 21707, Note_off_c, 4, 76, 127
2, 21715, Note_off_c, 10, 69, 127
2, 21718, Note_on_c, 8, 68, 127
2, 21871, Note_off_c, 8, 68, 127
2, 21876, Note_on_c, 4, 64, 127
2, 21993, Note_on_c, 6, 66, 127
2, 21996, Note_off_c, 4, 64, 127
2, 22111, Note_on_c, 8, 68, 127
2, 22114, Note_off_c, 6, 66, 127
2, 22229, Note_on_c, 10, 69, 127
2, 22232, Note_off_c, 8, 68, 127
2, 22347, Note_on_c, 12, 71, 127
2, 22350, Note_off_c, 10, 69, 127
2, 22465, Note_on_c, 0, 72, 127
2, 22468, Note_off_c, 12, 71, 127
2, 22583, Note_on_c, 2, 74, 127
2, 22586, Note_off_c, 0, 72, 127
2, 22701, Note_on_c, 4, 76, 127
2, 22704, Note_off_c, 2, 74, 127
2, 22819, Note_on_c, 10, 69, 127
2, 22822, Note_off_c, 4, 76, 127
2, 22924, Note_on_c, 2, 74, 127
2, 22939, Note_off_c, 10, 69, 127
2, 23039, Note_on_c, 0, 72, 127
2, 23044, Note_off_c, 2, 74, 127
2, 23144, Note_on_c, 12, 71, 127
2, 23159, Note_off_c, 0, 72, 127
2, 23248, Note_on_c, 10, 69, 127
2, 23263, Note_off_c, 12, 71, 127
2, 23352, Note_on_c, 8, 68, 127
2, 23367, Note_off_c, 10, 69, 127
2, 23456, Note_on_c, 10, 69, 127
2, 23471, Note_off_c, 8, 68, 127
2, 23560, Note_on_c, 12, 71, 127
2, 23575, Note_off_c, 10, 69, 127
2, 23669, Note_off_c, 12, 71, 127
2, 23679, Note_on_c, 8, 56, 127
2, 23679, Note_on_c, 12, 71, 127
2, 23816, Note_on_c, 12, 83, 127
2, 23950, Note_off_c, 12, 83, 127
2, 23950, Note_off_c, 12, 71, 127
2, 23953, Note_on_c, 8, 80, 127
2, 23953, Note_on_c, 4, 64, 127
2, 24087, Note_off_c, 8, 80, 127
2, 24090, Note_on_c, 10, 81, 127
2, 24224, Note_off_c, 10, 81, 127
2, 24227, Note_on_c, 12, 83, 127
2, 24361, Note_off_c, 12, 83, 127
2, 24364, Note_on_c, 8, 80, 127
2, 24498, Note_off_c, 8, 80, 127
2, 24501, Note_on_c, 10, 81, 127
2, 24635, Note_off_c, 10, 81, 127
2, 24638, Note_on_c, 12, 83, 127
2, 24772, Note_off_c, 12, 83, 127
2, 24775, Note_on_c, 4, 76, 127
2, 24912, Note_on_c, 5, 77, 127
2, 25032, Note_off_c, 4, 76, 127
2, 25046, Note_off_c, 5, 77, 127
2, 25049, Note_on_c, 2, 74, 127
2, 25183, Note_off_c, 2, 74, 127
2, 25186, Note_on_c, 4, 76, 127
2, 25320, Note_off_c, 4, 76, 127
2, 25323, Note_on_c, 5, 77, 127
2, 25457, Note_off_c, 5, 77, 127
2, 25460, Note_on_c, 2, 74, 127
2, 25594, Note_off_c, 2, 74, 127
2, 25597, Note_on_c, 4, 76, 127
2, 25731, Note_off_c, 4, 76, 127
2, 25734, Note_on_c, 5, 77, 127
2, 25868, Note_off_c, 5, 77, 127
2, 25871, Note_on_c, 12, 71, 127
2, 26008, Note_on_c, 2, 74, 127
2, 26128, Note_off_c, 12, 71, 127
2, 26142, Note_off_c, 2, 74, 127
2, 26145, Note_on_c, 12, 71, 127
2, 26279, Note_off_c, 12, 71, 127
2, 26282, Note_on_c, 0, 72, 127
2, 26416, Note_off_c, 0, 72, 127
2, 26419, Note_on_c, 2, 74, 127
2, 26553, Note_off_c, 2, 74, 127
2, 26556, Note_on_c, 8, 68, 127
2, 26690, Note_off_c, 8, 68, 127
2, 26693, Note_on_c, 10, 69, 127
2, 26827, Note_off_c, 10, 69, 127
2, 26830, Note_on_c, 12, 71, 127
2, 26950, Note_off_c, 4, 64, 127
2, 26964, Note_off_c, 12, 71, 127
2, 26967, Note_on_c, 4, 64, 127
2, 27127, Note_on_c, 8, 68, 127
2, 27236, Note_off_c, 8, 68, 127
2, 27236, Note_on_c, 12, 71, 127
2, 27325, Note_on_c, 2, 74, 127
2, 27345, Note_off_c, 12, 71, 127
2, 27408, Note_on_c, 5, 77, 127
2, 27434, Note_off_c, 2, 74, 127
2, 27517, Note_off_c, 5, 77, 127
2, 27517, Note_on_c, 4, 76, 127
2, 27651, Note_off_c, 4, 76, 127
2, 27654, Note_on_c, 2, 74, 127
2, 27788, Note_off_c, 2, 74, 127
2, 27791, Note_on_c, 0, 72, 127
2, 27880, Note_off_c, 0, 72, 127
2, 27883, Note_on_c, 2, 74, 127
2, 27972, Note_off_c, 2, 74, 127
2, 27975, Note_on_c, 12, 71, 127
2, 28055, Note_off_c, 4, 64, 127
2, 28064, Note_off_c, 12, 71, 127
2, 28064, Note_off_c, 8, 56, 127
2, 28067, Note_on_c, 10, 57, 127
2, 28067, Note_on_c, 0, 72, 127
2, 28215, Note_off_c, 10, 57, 127
2, 28218, Note_on_c, 5, 53, 127
2, 28366, Note_off_c, 5, 53, 127
2, 28369, Note_on_c, 4, 52, 127
2, 28517, Note_off_c, 4, 52, 127
2, 28520, Note_on_c, 2, 50, 127
2, 28668, Note_off_c, 2, 50, 127
2, 28671, Note_on_c, 0, 48, 127
2, 28819, Note_off_c, 0, 48, 127
2, 28822, Note_on_c, 12, 47, 127
2, 28970, Note_off_c, 12, 47, 127
2, 28973, Note_on_c, 2, 50, 127
2, 29121, Note_off_c, 2, 50, 127
2, 29124, Note_on_c, 0, 48, 127
2, 29272, Note_off_c, 0, 48, 127
2, 29275, Note_on_c, 0, 48, 127
2, 29525, Note_on_c, 10, 69, 127
2, 29773, Note_off_c, 10, 69, 127
2, 29776, Note_on_c, 8, 68, 127
2, 30024, Note_off_c, 8, 68, 127
2, 30027, Note_on_c, 12, 71, 127
2, 30150, Note_off_c, 12, 71, 127
2, 30153, Note_on_c, 10, 69, 127
2, 30263, Note_off_c, 10, 69, 127
2, 30276, Note_off_c, 0, 48, 127
2, 30279, Note_on_c, 2, 50, 127
2, 30279, Note_on_c, 10, 69, 127
2, 30357, Note_off_c, 10, 69, 127
2, 30362, Note_on_c, 8, 68, 127
2, 30440, Note_off_c, 8, 68, 127
2, 30445, Note_on_c, 10, 69, 127
2, 30518, Note_off_c, 0, 72, 127
2, 30528, Note_on_c, 0, 72, 127
2, 30776, Note_off_c, 0, 72, 127
2, 30779, Note_on_c, 12, 71, 127
2, 31027, Note_off_c, 12, 71, 127
2, 31030, Note_on_c, 2, 74, 127
2, 31153, Note_off_c, 2, 74, 127
2, 31156, Note_on_c, 0, 72, 127
2, 31276, Note_off_c, 0, 72, 127
2, 31279, Note_off_c, 2, 50, 127
2, 31282, Note_on_c, 4, 52, 127
2, 31282, Note_on_c, 0, 72, 127
2, 31365, Note_on_c, 12, 71, 127
2, 31368, Note_off_c, 0, 72, 127
2, 31449, Note_on_c, 0, 72, 127
2, 31452, Note_off_c, 12, 71, 127
2, 31502, Note_off_c, 10, 69, 127
2, 31533, Note_on_c, 10, 69, 127
2, 31781, Note_off_c, 10, 69, 127
2, 31784, Note_on_c, 8, 68, 127
2, 32032, Note_off_c, 8, 68, 127
2, 32035, Note_on_c, 12, 71, 127
2, 32158, Note_off_c, 12, 71, 127
2, 32161, Note_on_c, 10, 69, 127
2, 32284, Note_off_c, 4, 52, 127
2, 32287, Note_on_c, 5, 53, 127
2, 32519, Note_off_c, 0, 72, 127
2, 32537, Note_on_c, 0, 72, 127
2, 32785, Note_off_c, 0, 72, 127
2, 32788, Note_on_c, 12, 71, 127
2, 33036, Note_off_c, 12, 71, 127
2, 33039, Note_on_c, 2, 74, 127
2, 33162, Note_off_c, 2, 74, 127
2, 33165, Note_on_c, 0, 72, 127
2, 33288, Note_off_c, 0, 72, 127
2, 33288, Note_off_c, 5, 53, 127
2, 33291, Note_on_c, 0, 48, 127
2, 33291, Note_on_c, 0, 72, 127
2, 33523, Note_off_c, 10, 69, 127
2, 33541, Note_on_c, 10, 69, 127
2, 33789, Note_off_c, 10, 69, 127
2, 33792, Note_on_c, 8, 68, 127
2, 34040, Note_off_c, 8, 68, 127
2, 34043, Note_on_c, 12, 71, 127
2, 34166, Note_off_c, 12, 71, 127
2, 34169, Note_on_c, 10, 69, 127
2, 34292, Note_off_c, 10, 69, 127
2, 34292, Note_off_c, 0, 48, 127
2, 34295, Note_on_c, 2, 50, 127
2, 34295, Note_on_c, 10, 69, 127
2, 34525, Note_off_c, 0, 72, 127
2, 34546, Note_on_c, 0, 72, 127
2, 34794, Note_off_c, 0, 72, 127
2, 34797, Note_on_c, 12, 71, 127
2, 35045, Note_off_c, 12, 71, 127
2, 35048, Note_on_c, 2, 74, 127
2, 35171, Note_off_c, 2, 74, 127
2, 35174, Note_on_c, 0, 72, 127
2, 35297, Note_off_c, 0, 72, 127
2, 35297, Note_off_c, 2, 50, 127
2, 35300, Note_on_c, 4, 52, 127
2, 35300, Note_on_c, 0, 72, 127
2, 35530, Note_off_c, 10, 69, 127
2, 35551, Note_on_c, 10, 69, 127
2, 35799, Note_off_c, 10, 69, 127
2, 35802, Note_on_c, 8, 68, 127
2, 36050, Note_off_c, 8, 68, 127
2, 36053, Note_on_c, 12, 71, 127
2, 36176, Note_off_c, 12, 71, 127
2, 36179, Note_on_c, 10, 69, 127
2, 36244, Note_off_c, 4, 52, 127
2, 36301, Note_off_c, 10, 69, 127
2, 36304, Note_on_c, 10, 45, 127
2, 36304, Note_on_c, 10, 69, 127
2, 36677, Note_off_c, 10, 45, 127
2, 36680, Note_on_c, 0, 48, 127
2, 36803, Note_off_c, 0, 48, 127
2, 36806, Note_on_c, 12, 47, 127
2, 36929, Note_off_c, 12, 47, 127
2, 36932, Note_on_c, 10, 45, 127
2, 37055, Note_off_c, 10, 45, 127
2, 37058, Note_on_c, 8, 44, 127
2, 37181, Note_off_c, 8, 44, 127
2, 37184, Note_on_c, 10, 45, 127
2, 37307, Note_off_c, 10, 45, 127
2, 37310, Note_on_c, 0, 36, 127
2, 37310, Note_on_c, 4, 64, 127
2, 37530, Note_off_c, 10, 69, 127
2, 37540, Note_off_c, 0, 72, 127
2, 37550, Note_on_c, 10, 69, 127
2, 37550, Note_on_c, 0, 72, 127
2, 37788, Note_off_c, 0, 72, 127
2, 37788, Note_off_c, 10, 69, 127
2, 37788, Note_off_c, 0, 36, 127
2, 37790, Note_on_c, 0, 48, 127
2, 37790, Note_on_c, 12, 71, 127
2, 37790, Note_on_c, 2, 74, 127
2, 38028, Note_off_c, 2, 74, 127
2, 38028, Note_off_c, 12, 71, 127
2, 38030, Note_on_c, 10, 69, 127
2, 38030, Note_on_c, 0, 72, 127
2, 38260, Note_off_c, 4, 64, 127
2, 38268, Note_off_c, 0, 72, 127
2, 38268, Note_off_c, 10, 69, 127
2, 38268, Note_off_c, 0, 48, 127
2, 38270, Note_on_c, 2, 38, 127
2, 38270, Note_on_c, 10, 69, 127
2, 38270, Note_on_c, 0, 72, 127
2, 38270, Note_on_c, 5, 65, 127
2, 38628, Note_off_c, 2, 38, 127
2, 38630, Note_on_c, 0, 48, 127
2, 38748, Note_off_c, 0, 48, 127
2, 38750, Note_on_c, 12, 47, 127
2, 38868, Note_off_c, 12, 47, 127
2, 38870, Note_on_c, 10, 45, 127
2, 38988, Note_off_c, 10, 45, 127
2, 38990, Note_on_c, 8, 44, 127
2, 39108, Note_off_c, 8, 44, 127
2, 39110, Note_on_c, 10, 45, 127
2, 39228, Note_off_c, 10, 45, 127
2, 39228, Note_off_c, 5, 65, 127
2, 39230, Note_on_c, 4, 40, 127
2, 39230, Note_on_c, 4, 64, 127
2, 39450, Note_off_c, 0, 72, 127
2, 39450, Note_off_c, 10, 69, 127
2, 39470, Note_on_c, 0, 72, 127
2, 39470, Note_on_c, 10, 69, 127
2, 39708, Note_off_c, 10, 69, 127
2, 39708, Note_off_c, 0, 72, 127
2, 39708, Note_off_c, 4, 40, 127
2, 39710, Note_on_c, 4, 52, 127
2, 39710, Note_on_c, 2, 74, 127
2, 39710, Note_on_c, 12, 71, 127
2, 39948, Note_off_c, 12, 71, 127
2, 39948, Note_off_c, 2, 74, 127
2, 39950, Note_on_c, 0, 72, 127
2, 39950, Note_on_c, 10, 69, 127
2, 40180, Note_off_c, 4, 64, 127
2, 40188, Note_off_c, 10, 69, 127
2, 40188, Note_off_c, 0, 72, 127
2, 40188, Note_off_c, 4, 52, 127
2, 40190, Note_on_c, 5, 41, 127
2, 40190, Note_on_c, 10, 69, 127
2, 40190, Note_on_c, 2, 62, 127
2, 40190, Note_on_c, 0, 72, 127
2, 40548, Note_off_c, 5, 41, 127
2, 40550, Note_on_c, 0, 48, 127
2, 40668, Note_off_c, 0, 48, 127
2, 40670, Note_on_c, 12, 47, 127
2, 40788, Note_off_c, 12, 47, 127
2, 40790, Note_on_c, 10, 45, 127
2, 40908, Note_off_c, 10, 45, 127
2, 40910, Note_on_c, 8, 44, 127
2, 41028, Note_off_c, 8, 44, 127
2, 41030, Note_on_c, 10, 45, 127
2, 41148, Note_off_c, 10, 45, 127
2, 41148, Note_off_c, 2, 62, 127
2, 41150, Note_on_c, 0, 36, 127
2, 41150, Note_on_c, 4, 64, 127
2, 41370, Note_off_c, 0, 72, 127
2, 41370, Note_off_c, 10, 69, 127
2, 41390, Note_on_c, 10, 69, 127
2, 41390, Note_on_c, 0, 72, 127
2, 41628, Note_off_c, 0, 72, 127
2, 41628, Note_off_c, 10, 69, 127
2, 41628, Note_off_c, 0, 36, 127
2, 41630, Note_on_c, 0, 48, 127
2, 41630, Note_on_c, 2, 74, 127
2, 41630, Note_on_c, 12, 71, 127
2, 41868, Note_off_c, 12, 71, 127
2, 41868, Note_off_c, 2, 74, 127
2, 41870, Note_on_c, 0, 72, 127
2, 41870, Note_on_c, 10, 69, 127
2, 42100, Note_off_c, 4, 64, 127
2, 42108, Note_off_c, 10, 69, 127
2, 42108, Note_off_c, 0, 72, 127
2, 42108, Note_off_c, 0, 48, 127
2, 42110, Note_on_c, 2, 38, 127
2, 42110, Note_on_c, 0, 72, 127
2, 42110, Note_on_c, 10, 69, 127
2, 42110, Note_on_c, 5, 65, 127
2, 42468, Note_off_c, 2, 38, 127
2, 42470, Note_on_c, 0, 48, 127
2, 42588, Note_off_c, 0, 48, 127
2, 42590, Note_on_c, 12, 47, 127
2, 42708, Note_off_c, 12, 47, 127
2, 42710, Note_on_c, 10, 45, 127
2, 42828, Note_off_c, 10, 45, 127
2, 42830, Note_on_c, 8, 44, 127
2, 42948, Note_off_c, 8, 44, 127
2, 42950, Note_on_c, 10, 45, 127
2, 43068, Note_off_c, 10, 45, 127
2, 43068, Note_off_c, 5, 65, 127
2, 43070, Note_on_c, 4, 40, 127
2, 43070, Note_on_c, 4, 64, 127
2, 43290, Note_off_c, 10, 69, 127
2, 43290, Note_off_c, 0, 72, 127
2, 43310, Note_on_c, 0, 72, 127
2, 43310, Note_on_c, 10, 69, 127
2, 43548, Note_off_c, 10, 69, 127
2, 43548, Note_off_c, 0, 72, 127
2, 43548, Note_off_c, 4, 40, 127
2, 43550, Note_on_c, 4, 52, 127
2, 43550, Note_on_c, 12, 71, 127
2, 43550, Note_on_c, 2, 74, 127
2, 43850, Note_off_c, 2, 74, 127
2, 43850, Note_off_c, 12, 71, 127
2, 43856, Note_on_c, 0, 72, 127
2, 43856, Note_on_c, 10, 69, 127
2, 44020, Note_off_c, 4, 64, 127
2, 44027, Note_off_c, 4, 52, 127
2, 44031, Note_off_c, 10, 69, 127
2, 44031, Note_off_c, 0, 72, 127
2, 44045, Note_on_c, 4, 64, 127
2, 44045, Note_on_c, 10, 69, 127
2, 44045, Note_on_c, 0, 72, 127
2, 44045, Note_on_c, 10, 45, 127
2, 44668, Note_off_c, 0, 72, 127
2, 44668, Note_off_c, 10, 69, 127
2, 44668, Note_off_c, 4, 64, 127
2, 44671, Note_on_c, 4, 64, 127
2, 44794, Note_off_c, 4, 64, 127
2, 44797, Note_on_c, 6, 66, 127
2, 44920, Note_off_c, 6, 66, 127
2, 44923, Note_on_c, 8, 68, 127
2, 45038, Note_off_c, 10, 45, 127
2, 45046, Note_off_c, 8, 68, 127
2, 45049, Note_on_c, 10, 69, 127
2, 45172, Note_off_c, 10, 69, 127
2, 45175, Note_on_c, 8, 68, 127
2, 45298, Note_off_c, 8, 68, 127
2, 45301, Note_on_c, 10, 69, 127
2, 45424, Note_off_c, 10, 69, 127
2, 45427, Note_on_c, 12, 71, 127
2, 45550, Note_off_c, 12, 71, 127
2, 45553, Note_on_c, 0, 72, 127
2, 45676, Note_off_c, 0, 72, 127
2, 45679, Note_on_c, 12, 71, 127
2, 45802, Note_off_c, 12, 71, 127
2, 45805, Note_on_c, 0, 72, 127
2, 45928, Note_off_c, 0, 72, 127
2, 45931, Note_on_c, 2, 74, 127
2, 46054, Note_off_c, 2, 74, 127
2, 46057, Note_on_c, 4, 76, 127
2, 46057, Note_on_c, 10, 57, 127
2, 46057, Note_on_c, 0, 48, 127
2, 46253, Note_on_c, 0, 72, 127
2, 46261, Note_off_c, 4, 76, 127
2, 46475, Note_off_c, 0, 72, 127
2, 46478, Note_on_c, 12, 71, 127
2, 46745, Note_off_c, 12, 71, 127
2, 46748, Note_on_c, 10, 69, 127
2, 47063, Note_off_c, 0, 48, 127
2, 47063, Note_off_c, 10, 57, 127
2, 47095, Note_off_c, 10, 69, 127
2, 47202, Note_on_c, 10, 69, 127
2, 47327, Note_off_c, 10, 69, 127
2, 47330, Note_on_c, 12, 71, 127
2, 47455, Note_off_c, 12, 71, 127
2, 47458, Note_on_c, 0, 72, 127
2, 47583, Note_off_c, 0, 72, 127
2, 47586, Note_on_c, 2, 74, 127
2, 47669, Note_off_c, 2, 74, 127
2, 47672, Note_on_c, 4, 76, 127
2, 47755, Note_off_c, 4, 76, 127
2, 47758, Note_on_c, 5, 77, 127
2, 47841, Note_off_c, 5, 77, 127
2, 47844, Note_on_c, 7, 79, 127
2, 47927, Note_off_c, 7, 79, 127
2, 47930, Note_on_c, 4, 76, 127
2, 48013, Note_off_c, 4, 76, 127
2, 48016, Note_on_c, 5, 77, 127
2, 48099, Note_off_c, 5, 77, 127
2, 48102, Note_on_c, 7, 79, 127
2, 48102, Note_on_c, 10, 57, 127
2, 48102, Note_on_c, 1, 49, 127
2, 48227, Note_off_c, 7, 79, 127
2, 48230, Note_on_c, 4, 76, 127
2, 48355, Note_off_c, 4, 76, 127
2, 48358, Note_on_c, 1, 73, 127
2, 48483, Note_off_c, 1, 73, 127
2, 48486, Note_on_c, 4, 76, 127
2, 48611, Note_off_c, 4, 76, 127
2, 48614, Note_on_c, 7, 79, 127
2, 48739, Note_off_c, 7, 79, 127
2, 48742, Note_on_c, 4, 76, 127
2, 48867, Note_off_c, 4, 76, 127
2, 48870, Note_on_c, 1, 73, 127
2, 48995, Note_off_c, 1, 73, 127
2, 48998, Note_on_c, 4, 76, 127
2, 49115, Note_off_c, 1, 49, 127
2, 49115, Note_off_c, 10, 57, 127
2, 49123, Note_off_c, 4, 76, 127
2, 49126, Note_on_c, 7, 67, 127
2, 49318, Note_off_c, 7, 67, 127
2, 49318, Note_on_c, 11, 70, 127
2, 49510, Note_off_c, 11, 70, 127
2, 49510, Note_on_c, 4, 64, 127
2, 49702, Note_on_c, 7, 67, 127
2, 49763, Note_off_c, 4, 64, 127
2, 49894, Note_on_c, 1, 61, 127
2, 49955, Note_off_c, 7, 67, 127
2, 50086, Note_on_c, 4, 64, 127
2, 50147, Note_off_c, 1, 61, 127
2, 50278, Note_on_c, 7, 55, 127
2, 50339, Note_off_c, 4, 64, 127
2, 50470, Note_on_c, 11, 58, 127
2, 50531, Note_off_c, 7, 55, 127
2, 50723, Note_off_c, 11, 58, 127
2, 50739, Note_on_c, 1, 49, 127
2, 51174, Note_on_c, 4, 76, 127
2, 51299, Note_off_c, 4, 76, 127
2, 51302, Note_on_c, 5, 77, 127
2, 51427, Note_off_c, 5, 77, 127
2, 51430, Note_on_c, 7, 79, 127
2, 51555, Note_off_c, 7, 79, 127
2, 51558, Note_on_c, 10, 57, 127
2, 51558, Note_on_c, 5, 77, 127
2, 51897, Note_off_c, 5, 77, 127
2, 51942, Note_on_c, 7, 79, 127
2, 52067, Note_off_c, 7, 79, 127
2, 52070, Note_on_c, 4, 76, 127
2, 52195, Note_off_c, 4, 76, 127
2, 52198, Note_off_c, 1, 49, 127
2, 52198, Note_on_c, 4, 76, 127
2, 52198, Note_on_c, 2, 50, 127
2, 52707, Note_off_c, 4, 76, 127
2, 52710, Note_on_c, 5, 77, 127
2, 52795, Note_on_c, 4, 76, 127
2, 52798, Note_off_c, 5, 77, 127
2, 52881, Note_on_c, 5, 77, 127
2, 52884, Note_off_c, 4, 76, 127
2, 53092, Note_off_c, 10, 57, 127
2, 53348, Note_off_c, 2, 50, 127
2, 53351, Note_on_c, 2, 50, 127
2, 53476, Note_off_c, 2, 50, 127
2, 53479, Note_on_c, 4, 52, 127
2, 53604, Note_off_c, 4, 52, 127
2, 53607, Note_on_c, 5, 53, 127
2, 53732, Note_off_c, 5, 53, 127
2, 53735, Note_on_c, 7, 55, 127
2, 53860, Note_off_c, 7, 55, 127
2, 53863, Note_on_c, 10, 57, 127
2, 53988, Note_off_c, 10, 57, 127
2, 53991, Note_on_c, 12, 59, 127
2, 54116, Note_off_c, 12, 59, 127
2, 54119, Note_on_c, 0, 60, 127
2, 54247, Note_on_c, 3, 51, 127
2, 54370, Note_off_c, 5, 77, 127
2, 54375, Note_on_c, 10, 81, 127
2, 54500, Note_off_c, 10, 81, 127
2, 54503, Note_on_c, 0, 84, 127
2, 54628, Note_off_c, 0, 84, 127
2, 54631, Note_on_c, 12, 83, 127
2, 54756, Note_off_c, 12, 83, 127
2, 54759, Note_on_c, 10, 81, 127
2, 54866, Note_off_c, 10, 81, 127
2, 54866, Note_on_c, 7, 79, 127
2, 54973, Note_off_c, 7, 79, 127
2, 54973, Note_on_c, 6, 78, 127
2, 55080, Note_off_c, 6, 78, 127
2, 55080, Note_on_c, 10, 81, 127
2, 55133, Note_off_c, 0, 60, 127
2, 55178, Note_off_c, 10, 81, 127
2, 55181, Note_on_c, 8, 80, 127
2, 55272, Note_off_c, 8, 80, 127
2, 55272, Note_on_c, 10, 81, 127
2, 55272, Note_on_c, 12, 59, 127
2, 55525, Note_off_c, 10, 81, 127
2, 55528, Note_on_c, 12, 83, 127
2, 55653, Note_off_c, 12, 83, 127
2, 55656, Note_on_c, 0, 84, 127
2, 55781, Note_off_c, 0, 84, 127
2, 55784, Note_on_c, 12, 83, 127
2, 55909, Note_off_c, 12, 83, 127
2, 55912, Note_on_c, 10, 81, 127
2, 56037, Note_off_c, 10, 81, 127
2, 56040, Note_on_c, 8, 80, 127
2, 56165, Note_off_c, 8, 80, 127
2, 56168, Note_on_c, 10, 81, 127
2, 56293, Note_off_c, 10, 81, 127
2, 56293, Note_off_c, 3, 51, 127
2, 56296, Note_on_c, 8, 80, 127
2, 56296, Note_on_c, 4, 52, 127
2, 56531, Note_off_c, 12, 59, 127
2, 56552, Note_on_c, 12, 59, 127
2, 56805, Note_off_c, 12, 59, 127
2, 56808, Note_on_c, 10, 57, 127
2, 57061, Note_off_c, 10, 57, 127
2, 57064, Note_on_c, 0, 60, 127
2, 57189, Note_off_c, 0, 60, 127
2, 57192, Note_on_c, 12, 59, 127
2, 57317, Note_off_c, 12, 59, 127
2, 57320, Note_on_c, 0, 60, 127
2, 57573, Note_off_c, 8, 80, 127
2, 57576, Note_on_c, 8, 80, 127
2, 57829, Note_off_c, 8, 80, 127
2, 57832, Note_on_c, 6, 78, 127
2, 58085, Note_off_c, 6, 78, 127
2, 58088, Note_on_c, 10, 81, 127
2, 58213, Note_off_c, 10, 81, 127
2, 58216, Note_on_c, 8, 80, 127
2, 58341, Note_off_c, 8, 80, 127
2, 58344, Note_on_c, 10, 81, 127
2, 58597, Note_off_c, 0, 60, 127
2, 58600, Note_on_c, 12, 59, 127
2, 58853, Note_off_c, 12, 59, 127
2, 58856, Note_on_c, 10, 57, 127
2, 59109, Note_off_c, 10, 57, 127
2, 59112, Note_on_c, 0, 60, 127
2, 59237, Note_off_c, 0, 60, 127
2, 59240, Note_on_c, 12, 59, 127
2, 59365, Note_off_c, 12, 59, 127
2, 59368, Note_on_c, 12, 59, 127
2, 59493, Note_off_c, 12, 59, 127
2, 59496, Note_on_c, 10, 57, 127
2, 59621, Note_off_c, 10, 57, 127
2, 59621, Note_off_c, 10, 81, 127
2, 59624, Note_on_c, 8, 80, 127
2, 59624, Note_on_c, 12, 59, 127
2, 59877, Note_off_c, 8, 80, 127
2, 59880, Note_on_c, 6, 78, 127
2, 60133, Note_off_c, 6, 78, 127
2, 60133, Note_off_c, 12, 59, 127
2, 60136, Note_on_c, 10, 81, 127
2, 60136, Note_on_c, 10, 57, 127
2, 60261, Note_off_c, 10, 81, 127
2, 60264, Note_on_c, 8, 80, 127
2, 60389, Note_off_c, 8, 80, 127
2, 60389, Note_off_c, 10, 57, 127
2, 60392, Note_on_c, 8, 80, 127
2, 60392, Note_on_c, 12, 59, 127
2, 60648, Note_on_c, 12, 71, 127
2, 60901, Note_off_c, 12, 71, 127
2, 60904, Note_on_c, 4, 76, 127
2, 61139, Note_off_c, 8, 80, 127
2, 61158, Note_off_c, 12, 59, 127
2, 61161, Note_on_c, 8, 80, 127
2, 61161, Note_on_c, 12, 59, 127
2, 61414, Note_off_c, 12, 59, 127
2, 61414, Note_off_c, 8, 80, 127
2, 61417, Note_on_c, 6, 78, 127
2, 61417, Note_on_c, 10, 57, 127
2, 61652, Note_off_c, 4, 76, 127
2, 61671, Note_off_c, 10, 57, 127
2, 61674, Note_on_c, 4, 76, 127
2, 61674, Note_on_c, 8, 56, 127
2, 61927, Note_off_c, 8, 56, 127
2, 61927, Note_off_c, 4, 76, 127
2, 61930, Note_on_c, 3, 75, 127
2, 61930, Note_on_c, 6, 54, 127
2, 62165, Note_off_c, 6, 78, 127
2, 62184, Note_off_c, 6, 54, 127
2, 62187, Note_on_c, 6, 78, 127
2, 62187, Note_on_c, 10, 57, 127
2, 62438, Note_off_c, 3, 75, 127
2, 62441, Note_off_c, 10, 57, 127
2, 62441, Note_off_c, 6, 78, 127
2, 62444, Note_on_c, 4, 76, 127
2, 62444, Note_on_c, 8, 56, 127
2, 62700, Note_on_c, 12, 71, 127
2, 62953, Note_off_c, 12, 71, 127
2, 62956, Note_on_c, 4, 64, 127
2, 63191, Note_off_c, 4, 76, 127
2, 63210, Note_off_c, 8, 56, 127
2, 63213, Note_on_c, 4, 76, 127
2, 63213, Note_on_c, 7, 55, 127
2, 63464, Note_off_c, 4, 64, 127
2, 63467, Note_off_c, 7, 55, 127
2, 63467, Note_off_c, 4, 76, 127
2, 63470, Note_on_c, 2, 74, 127
2, 63470, Note_on_c, 6, 54, 127
2, 63726, Note_on_c, 10, 69, 127
2, 63979, Note_off_c, 10, 69, 127
2, 63982, Note_on_c, 12, 71, 127
2, 64217, Note_off_c, 2, 74, 127
2, 64236, Note_off_c, 12, 71, 127
2, 64236, Note_off_c, 6, 54, 127
2, 64239, Note_on_c, 5, 65, 127
2, 64239, Note_on_c, 2, 74, 127
2, 64239, Note_on_c, 8, 56, 127
2, 64492, Note_off_c, 8, 56, 127
2, 64492, Note_off_c, 2, 74, 127
2, 64492, Note_off_c, 5, 65, 127
2, 64495, Note_on_c, 0, 72, 127
2, 64495, Note_on_c, 4, 64, 127
2, 64495, Note_on_c, 10, 57, 127
2, 64730, Note_off_c, 4, 52, 127
2, 64749, Note_off_c, 10, 57, 127
2, 64752, Note_on_c, 4, 52, 127
2, 65005, Note_off_c, 4, 52, 127
2, 65008, Note_on_c, 10, 57, 127
2, 65261, Note_off_c, 4, 64, 127
2, 65261, Note_off_c, 0, 72, 127
2, 65264, Note_on_c, 4, 64, 127
2, 65264, Note_on_c, 0, 72, 127
2, 65517, Note_off_c, 0, 72, 127
2, 65517, Note_off_c, 4, 64, 127
2, 65520, Note_on_c, 2, 62, 127
2, 65520, Note_on_c, 12, 71, 127
2, 65773, Note_off_c, 10, 57, 127
2, 65776, Note_on_c, 10, 57, 127
2, 66029, Note_off_c, 10, 57, 127
2, 66032, Note_on_c, 8, 56, 127
2, 66285, Note_off_c, 12, 71, 127
2, 66285, Note_off_c, 2, 62, 127
2, 66288, Note_on_c, 2, 62, 127
2, 66288, Note_on_c, 12, 71, 127
2, 66541, Note_off_c, 12, 71, 127
2, 66541, Note_off_c, 2, 62, 127
2, 66541, Note_off_c, 8, 56, 127
2, 66544, Note_on_c, 0, 60, 127
2, 66544, Note_on_c, 10, 69, 127
2, 66544, Note_on_c, 10, 57, 127
2, 66797, Note_off_c, 10, 57, 127
2, 66800, Note_on_c, 0, 48, 127
2, 67053, Note_off_c, 0, 48, 127
2, 67056, Note_on_c, 2, 50, 127
2, 67309, Note_off_c, 2, 50, 127
2, 67309, Note_off_c, 10, 69, 127
2, 67309, Note_off_c, 0, 60, 127
2, 67312, Note_on_c, 12, 59, 127
2, 67312, Note_on_c, 8, 68, 127
2, 67312, Note_on_c, 4, 52, 127
2, 67565, Note_off_c, 4, 52, 127
2, 67565, Note_off_c, 8, 68, 127
2, 67565, Note_off_c, 12, 59, 127
2, 67568, Note_on_c, 0, 60, 127
2, 67568, Note_on_c, 10, 69, 127
2, 67568, Note_on_c, 10, 45, 127
2, 67821, Note_off_c, 10, 45, 127
2, 67824, Note_on_c, 0, 48, 127
2, 68077, Note_off_c, 0, 48, 127
2, 68080, Note_on_c, 10, 45, 127
2, 68333, Note_off_c, 10, 45, 127
2, 68336, Note_on_c, 2, 38, 127
2, 68589, Note_off_c, 2, 38, 127
2, 68592, Note_on_c, 4, 40, 127
2, 68845, Note_off_c, 0, 60, 127
2, 68848, Note_on_c, 4, 64, 127
2, 69101, Note_off_c, 4, 64, 127
2, 69104, Note_on_c, 0, 60, 127
2, 69357, Note_off_c, 4, 40, 127
2, 69360, Note_on_c, 8, 56, 127
2, 69613, Note_off_c, 8, 56, 127
2, 69616, Note_on_c, 10, 57, 127
2, 69872, Note_on_c, 4, 52, 127
2, 70125, Note_off_c, 4, 52, 127
2, 70128, Note_on_c, 0, 48, 127
2, 70381, Note_off_c, 0, 48, 127
2, 70384, Note_on_c, 10, 45, 127
2, 70629, Note_off_c, 10, 57, 127
2, 70637, Note_off_c, 10, 45, 127
2, 70637, Note_off_c, 0, 60, 127
2, 70656, Note_on_c, 4, 52, 127
2, 70656, Note_on_c, 12, 59, 127
2, 70893, Note_on_c, 8, 68, 127
2, 70912, Note_off_c, 10, 69, 127
2, 71019, Note_off_c, 8, 68, 127
2, 71019, Note_on_c, 10, 69, 127
2, 71120, Note_on_c, 12, 71, 127
2, 71144, Note_off_c, 10, 69, 127
2, 71221, Note_on_c, 10, 69, 127
2, 71245, Note_off_c, 12, 71, 127
2, 71322, Note_on_c, 12, 71, 127
2, 71346, Note_off_c, 10, 69, 127
2, 71423, Note_on_c, 0, 72, 127
2, 71447, Note_off_c, 12, 71, 127
2, 71668, Note_off_c, 12, 59, 127
2, 71676, Note_off_c, 0, 72, 127
2, 71679, Note_on_c, 4, 40, 127
2, 71679, Note_on_c, 2, 62, 127
2, 71679, Note_on_c, 12, 71, 127
2, 71834, Note_on_c, 10, 69, 127
2, 71839, Note_off_c, 12, 71, 127
2, 71956, Note_on_c, 12, 71, 127
2, 71959, Note_off_c, 10, 69, 127
2, 72079, Note_on_c, 10, 69, 127
2, 72082, Note_off_c, 12, 71, 127
2, 72202, Note_on_c, 12, 71, 127
2, 72205, Note_off_c, 10, 69, 127
2, 72325, Note_on_c, 10, 69, 127
2, 72328, Note_off_c, 12, 71, 127
2, 72448, Note_on_c, 8, 68, 127
2, 72451, Note_off_c, 10, 69, 127
2, 72694, Note_off_c, 2, 62, 127
2, 72702, Note_off_c, 8, 68, 127
2, 72702, Note_off_c, 4, 40, 127
2, 72705, Note_on_c, 10, 45, 127
2, 72705, Note_on_c, 10, 69, 127
2, 72705, Note_on_c, 4, 64, 127
2, 72705, Note_on_c, 0, 60, 127
2, 76205, Note_off_c, 0, 60, 127
2, 76205, Note_off_c, 4, 64, 127
2, 76205, Note_off_c, 10, 69, 127
2, 76205, Note_off_c, 10, 45, 127
2, 76210, Note_off_c, 4, 52, 127
2, 77093, Note_on_c, 4, 76, 127
2, 77387, Note_off_c, 4, 76, 127
2, 77389, Note_on_c, 4, 76, 127
2, 77683, Note_off_c, 4, 76, 127
2, 77685, Note_on_c, 4, 76, 127
2, 77979, Note_off_c, 4, 76, 127
2, 77981, Note_on_c, 4, 76, 127
2, 78127, Note_off_c, 4, 76, 127
2, 78129, Note_on_c, 5, 77, 127
2, 78275, Note_off_c, 5, 77, 127
2, 78277, Note_on_c, 4, 76, 127
2, 78423, Note_off_c, 4, 76, 127
2, 78425, Note_on_c, 2, 74, 127
2, 78571, Note_off_c, 2, 74, 127
2, 78573, Note_on_c, 0, 72, 127
2, 78719, Note_off_c, 0, 72, 127
2, 78721, Note_on_c, 2, 74, 127
2, 78867, Note_off_c, 2, 74, 127
2, 78869, Note_on_c, 0, 72, 127
2, 79015, Note_off_c, 0, 72, 127
2, 79017, Note_on_c, 12, 71, 127
2, 79163, Note_off_c, 12, 71, 127
2, 79165, Note_on_c, 10, 69, 127
2, 79459, Note_off_c, 10, 69, 127
2, 79461, Note_on_c, 5, 77, 127
2, 79755, Note_off_c, 5, 77, 127
2, 79757, Note_on_c, 5, 77, 127
2, 79903, Note_off_c, 5, 77, 127
2, 79905, Note_on_c, 7, 79, 127
2, 80051, Note_off_c, 7, 79, 127
2, 80053, Note_on_c, 5, 77, 127
2, 80199, Note_off_c, 5, 77, 127
2, 80201, Note_on_c, 7, 79, 127
2, 80347, Note_off_c, 7, 79, 127
2, 80349, Note_on_c, 4, 76, 127
2, 80643, Note_off_c, 4, 76, 127
2, 80645, Note_on_c, 10, 81, 127
2, 80939, Note_off_c, 10, 81, 127
2, 80941, Note_on_c, 10, 81, 127
2, 81087, Note_off_c, 10, 81, 127
2, 81089, Note_on_c, 12, 83, 127
2, 81235, Note_off_c, 12, 83, 127
2, 81237, Note_on_c, 10, 81, 127
2, 81383, Note_off_c, 10, 81, 127
2, 81385, Note_on_c, 12, 83, 127
2, 81531, Note_off_c, 12, 83, 127
2, 81533, Note_on_c, 7, 79, 127
2, 81679, Note_off_c, 7, 79, 127
2, 81681, Note_on_c, 10, 81, 127
2, 81827, Note_off_c, 10, 81, 127
2, 81829, Note_on_c, 7, 79, 127
2, 81975, Note_off_c, 7, 79, 127
2, 81977, Note_on_c, 10, 81, 127
2, 82123, Note_off_c, 10, 81, 127
2, 82125, Note_on_c, 5, 77, 127
2, 82271, Note_off_c, 5, 77, 127
2, 82273, Note_on_c, 7, 79, 127
2, 82419, Note_off_c, 7, 79, 127
2, 82421, Note_on_c, 5, 77, 127
2, 82567, Note_off_c, 5, 77, 127
2, 82569, Note_on_c, 7, 79, 127
2, 82715, Note_off_c, 7, 79, 127
2, 82717, Note_on_c, 4, 76, 127
2, 82863, Note_off_c, 4, 76, 127
2, 82865, Note_on_c, 5, 77, 127
2, 83011, Note_off_c, 5, 77, 127
2, 83013, Note_on_c, 4, 76, 127
2, 83159, Note_off_c, 4, 76, 127
2, 83161, Note_on_c, 5, 77, 127
2, 83307, Note_off_c, 5, 77, 127
2, 83309, Note_on_c, 2, 74, 127
2, 83455, Note_off_c, 2, 74, 127
2, 83457, Note_on_c, 4, 76, 127
2, 83603, Note_off_c, 4, 76, 127
2, 83605, Note_on_c, 2, 74, 127
2, 83751, Note_off_c, 2, 74, 127
2, 83753, Note_on_c, 4, 76, 127
2, 83899, Note_off_c, 4, 76, 127
2, 83901, Note_on_c, 0, 72, 127
2, 84047, Note_off_c, 0, 72, 127
2, 84049, Note_on_c, 2, 74, 127
2, 84195, Note_off_c, 2, 74, 127
2, 84197, Note_on_c, 0, 72, 127
2, 84343, Note_off_c, 0, 72, 127
2, 84345, Note_on_c, 2, 74, 127
2, 84491, Note_off_c, 2, 74, 127
2, 84493, Note_on_c, 12, 71, 127
2, 84639, Note_off_c, 12, 71, 127
2, 84641, Note_on_c, 0, 72, 127
2, 84787, Note_off_c, 0, 72, 127
2, 84789, Note_on_c, 12, 71, 127
2, 84935, Note_off_c, 12, 71, 127
2, 84937, Note_on_c, 0, 72, 127
2, 85083, Note_off_c, 0, 72, 127
2, 85085, Note_on_c, 10, 69, 127
2, 85231, Note_off_c, 10, 69, 127
2, 85233, Note_on_c, 0, 72, 127
2, 85379, Note_off_c, 0, 72, 127
2, 85381, Note_on_c, 12, 71, 127
2, 85527, Note_off_c, 12, 71, 127
2, 85529, Note_on_c, 2, 74, 127
2, 85675, Note_off_c, 2, 74, 127
2, 85677, Note_on_c, 0, 72, 127
2, 85823, Note_off_c, 0, 72, 127
2, 85825, Note_on_c, 4, 76, 127
2, 85971, Note_off_c, 4, 76, 127
2, 85973, Note_on_c, 2, 74, 127
2, 86119, Note_off_c, 2, 74, 127
2, 86121, Note_on_c, 5, 77, 127
2, 86267, Note_off_c, 5, 77, 127
2, 86269, Note_on_c, 4, 76, 127
2, 86415, Note_off_c, 4, 76, 127
2, 86417, Note_on_c, 5, 77, 127
2, 86563, Note_off_c, 5, 77, 127
2, 86565, Note_on_c, 10, 69, 127
2, 86565, Note_on_c, 4, 76, 127
2, 86711, Note_off_c, 4, 76, 127
2, 86713, Note_on_c, 2, 74, 127
2, 86859, Note_off_c, 2, 74, 127
2, 86859, Note_off_c, 10, 69, 127
2, 86861, Note_on_c, 10, 69, 127
2, 86861, Note_on_c, 0, 72, 127
2, 87007, Note_off_c, 0, 72, 127
2, 87009, Note_on_c, 2, 74, 127
2, 87155, Note_off_c, 2, 74, 127
2, 87155, Note_off_c, 10, 69, 127
2, 87157, Note_on_c, 10, 69, 127
2, 87157, Note_on_c, 0, 72, 127
2, 87303, Note_off_c, 0, 72, 127
2, 87305, Note_on_c, 12, 71, 127
2, 87451, Note_off_c, 12, 71, 127
2, 87451, Note_off_c, 10, 69, 127
2, 87453, Note_on_c, 10, 69, 127
2, 87453, Note_on_c, 0, 72, 127
2, 87599, Note_off_c, 0, 72, 127
2, 87599, Note_off_c, 10, 69, 127
2, 87601, Note_on_c, 0, 72, 127
2, 87747, Note_off_c, 0, 72, 127
2, 87749, Note_on_c, 12, 71, 127
2, 87749, Note_on_c, 2, 74, 127
2, 87895, Note_off_c, 12, 71, 127
2, 87897, Note_on_c, 10, 69, 127
2, 88043, Note_off_c, 10, 69, 127
2, 88043, Note_off_c, 2, 74, 127
2, 88045, Note_on_c, 7, 67, 127
2, 88045, Note_on_c, 4, 76, 127
2, 88191, Note_off_c, 4, 76, 127
2, 88191, Note_off_c, 7, 67, 127
2, 88193, Note_on_c, 10, 69, 127
2, 88193, Note_on_c, 3, 75, 127
2, 88339, Note_off_c, 3, 75, 127
2, 88339, Note_off_c, 10, 69, 127
2, 88341, Note_on_c, 7, 67, 127
2, 88341, Note_on_c, 4, 76, 127
2, 88487, Note_off_c, 4, 76, 127
2, 88487, Note_off_c, 7, 67, 127
2, 88489, Note_on_c, 6, 66, 127
2, 88489, Note_on_c, 6, 78, 127
2, 88635, Note_off_c, 6, 78, 127
2, 88635, Note_off_c, 6, 66, 127
2, 88637, Note_on_c, 4, 64, 127
2, 88637, Note_on_c, 7, 79, 127
2, 88783, Note_off_c, 7, 79, 127
2, 88785, Note_on_c, 6, 78, 127
2, 88931, Note_off_c, 6, 78, 127
2, 88931, Note_off_c, 4, 64, 127
2, 88933, Note_on_c, 0, 72, 127
2, 88933, Note_on_c, 4, 76, 127
2, 89079, Note_off_c, 4, 76, 127
2, 89081, Note_on_c, 3, 75, 127
2, 89227, Note_off_c, 3, 75, 127
2, 89227, Note_off_c, 0, 72, 127
2, 89229, Note_on_c, 0, 72, 127
2, 89229, Note_on_c, 4, 76, 127
2, 89375, Note_off_c, 0, 72, 127
2, 89377, Note_on_c, 2, 74, 127
2, 89523, Note_off_c, 2, 74, 127
2, 89523, Note_off_c, 4, 76, 127
2, 89525, Note_on_c, 0, 72, 127
2, 89525, Note_on_c, 10, 81, 127
2, 89671, Note_off_c, 0, 72, 127
2, 89673, Note_on_c, 2, 74, 127
2, 89819, Note_off_c, 2, 74, 127
2, 89821, Note_on_c, 12, 71, 127
2, 89967, Note_off_c, 10, 81, 127
2, 89969, Note_on_c, 10, 81, 127
2, 90115, Note_off_c, 10, 81, 127
2, 90115, Note_off_c, 12, 71, 127
2, 90117, Note_on_c, 4, 76, 127
2, 90117, Note_on_c, 7, 79, 127
2, 90263, Note_off_c, 7, 79, 127
2, 90265, Note_on_c, 6, 78, 127
2, 90411, Note_off_c, 6, 78, 127
2, 90411, Note_off_c, 4, 76, 127
2, 90413, Note_on_c, 4, 76, 127
2, 90413, Note_on_c, 7, 79, 127
2, 90559, Note_off_c, 4, 76, 127
2, 90561, Note_on_c, 6, 78, 127
2, 90707, Note_off_c, 6, 78, 127
2, 90707, Note_off_c, 7, 79, 127
2, 90709, Note_on_c, 4, 76, 127
2, 90709, Note_on_c, 0, 84, 127
2, 90855, Note_off_c, 4, 76, 127
2, 90857, Note_on_c, 6, 78, 127
2, 91003, Note_off_c, 6, 78, 127
2, 91005, Note_on_c, 2, 74, 127
2, 91151, Note_off_c, 2, 74, 127
2, 91153, Note_on_c, 4, 76, 127
2, 91299, Note_off_c, 4, 76, 127
2, 91299, Note_off_c, 0, 84, 127
2, 91301, Note_on_c, 2, 74, 127
2, 91301, Note_on_c, 12, 83, 127
2, 91447, Note_off_c, 2, 74, 127
2, 91449, Note_on_c, 4, 76, 127
2, 91595, Note_off_c, 4, 76, 127
2, 91597, Note_on_c, 0, 72, 127
2, 91743, Note_off_c, 0, 72, 127
2, 91745, Note_on_c, 2, 74, 127
2, 91891, Note_off_c, 2, 74, 127
2, 91891, Note_off_c, 12, 83, 127
2, 91893, Note_on_c, 0, 72, 127
2, 91893, Note_on_c, 10, 81, 127
2, 92039, Note_off_c, 0, 72, 127
2, 92041, Note_on_c, 2, 74, 127
2, 92187, Note_off_c, 2, 74, 127
2, 92187, Note_off_c, 10, 81, 127
2, 92189, Note_on_c, 12, 71, 127
2, 92189, Note_on_c, 2, 74, 127
2, 92335, Note_off_c, 12, 71, 127
2, 92337, Note_on_c, 0, 72, 127
2, 92483, Note_off_c, 0, 72, 127
2, 92483, Note_off_c, 2, 74, 127
2, 92485, Note_on_c, 12, 71, 127
2, 92485, Note_on_c, 7, 79, 127
2, 92631, Note_off_c, 12, 71, 127
2, 92633, Note_on_c, 0, 72, 127
2, 92779, Note_off_c, 0, 72, 127
2, 92781, Note_on_c, 10, 69, 127
2, 92927, Note_off_c, 10, 69, 127
2, 92929, Note_on_c, 12, 71, 127
2, 93075, Note_off_c, 12, 71, 127
2, 93075, Note_off_c, 7, 79, 127
2, 93077, Note_on_c, 10, 69, 127
2, 93077, Note_on_c, 6, 78, 127
2, 93223, Note_off_c, 10, 69, 127
2, 93225, Note_on_c, 12, 71, 127
2, 93371, Note_off_c, 12, 71, 127
2, 93371, Note_off_c, 6, 78, 127
2, 93373, Note_on_c, 7, 67, 127
2, 93373, Note_on_c, 12, 71, 127
2, 93519, Note_off_c, 7, 67, 127
2, 93521, Note_on_c, 10, 69, 127
2, 93667, Note_off_c, 10, 69, 127
2, 93667, Note_off_c, 12, 71, 127
2, 93669, Note_on_c, 7, 67, 127
2, 93669, Note_on_c, 4, 76, 127
2, 93815, Note_off_c, 7, 67, 127
2, 93817, Note_on_c, 10, 69, 127
2, 93963, Note_off_c, 10, 69, 127
2, 93965, Note_on_c, 6, 66, 127
2, 94111, Note_off_c, 6, 66, 127
2, 94113, Note_on_c, 7, 67, 127
2, 94259, Note_off_c, 7, 67, 127
2, 94259, Note_off_c, 4, 76, 127
2, 94261, Note_on_c, 6, 66, 127
2, 94261, Note_on_c, 3, 75, 127
2, 94407, Note_off_c, 6, 66, 127
2, 94409, Note_on_c, 7, 67, 127
2, 94555, Note_off_c, 7, 67, 127
2, 94555, Note_off_c, 3, 75, 127
2, 94557, Note_on_c, 4, 64, 127
2, 94557, Note_on_c, 4, 76, 127
2, 94703, Note_off_c, 4, 64, 127
2, 94705, Note_on_c, 7, 67, 127
2, 94851, Note_off_c, 7, 67, 127
2, 94853, Note_on_c, 6, 66, 127
2, 94988, Note_off_c, 4, 76, 127
2, 94999, Note_off_c, 6, 66, 127
2, 95001, Note_on_c, 10, 69, 127
2, 95147, Note_off_c, 10, 69, 127
2, 95149, Note_on_c, 8, 68, 127
2, 95149, Note_on_c, 4, 76, 127
2, 95295, Note_off_c, 4, 76, 127
2, 95295, Note_off_c, 8, 68, 127
2, 95297, Note_on_c, 12, 71, 127
2, 95297, Note_on_c, 8, 80, 127
2, 95443, Note_off_c, 8, 80, 127
2, 95443, Note_off_c, 12, 71, 127
2, 95445, Note_on_c, 10, 69, 127
2, 95445, Note_on_c, 6, 78, 127
2, 95591, Note_off_c, 6, 78, 127
2, 95591, Note_off_c, 10, 69, 127
2, 95593, Note_on_c, 0, 72, 127
2, 95593, Note_on_c, 10, 81, 127
2, 95739, Note_off_c, 10, 81, 127
2, 95739, Note_off_c, 0, 72, 127
2, 95741, Note_on_c, 12, 71, 127
2, 95741, Note_on_c, 8, 80, 127
2, 95887, Note_off_c, 8, 80, 127
2, 95889, Note_on_c, 12, 83, 127
2, 96035, Note_off_c, 12, 83, 127
2, 96035, Note_off_c, 12, 71, 127
2, 96037, Note_on_c, 0, 72, 127
2, 96037, Note_on_c, 10, 81, 127
2, 96183, Note_off_c, 10, 81, 127
2, 96185, Note_on_c, 0, 84, 127
2, 96331, Note_off_c, 0, 84, 127
2, 96331, Note_off_c, 0, 72, 127
2, 96333, Note_on_c, 4, 64, 127
2, 96333, Note_on_c, 2, 74, 127
2, 96333, Note_on_c, 12, 83, 127
2, 96479, Note_off_c, 2, 74, 127
2, 96481, Note_on_c, 8, 68, 127
2, 96627, Note_off_c, 8, 68, 127
2, 96627, Note_off_c, 4, 64, 127
2, 96629, Note_on_c, 4, 64, 127
2, 96629, Note_on_c, 0, 72, 127
2, 96775, Note_off_c, 12, 83, 127
2, 96777, Note_on_c, 10, 81, 127
2, 96923, Note_off_c, 0, 72, 127
2, 96923, Note_off_c, 4, 64, 127
2, 96925, Note_on_c, 4, 64, 127
2, 96925, Note_on_c, 12, 71, 127
2, 97071, Note_off_c, 4, 64, 127
2, 97073, Note_on_c, 5, 65, 127
2, 97219, Note_off_c, 5, 65, 127
2, 97219, Note_off_c, 10, 81, 127
2, 97221, Note_on_c, 4, 64, 127
2, 97221, Note_on_c, 8, 80, 127
2, 97367, Note_off_c, 4, 64, 127
2, 97369, Note_on_c, 2, 62, 127
2, 97515, Note_off_c, 2, 62, 127
2, 97515, Note_off_c, 8, 80, 127
2, 97515, Note_off_c, 12, 71, 127
2, 97517, Note_on_c, 0, 60, 127
2, 97517, Note_on_c, 4, 76, 127
2, 97517, Note_on_c, 10, 81, 127
2, 97663, Note_off_c, 10, 81, 127
2, 97663, Note_off_c, 0, 60, 127
2, 97665, Note_on_c, 2, 62, 127
2, 97665, Note_on_c, 8, 80, 127
2, 97811, Note_off_c, 8, 80, 127
2, 97811, Note_off_c, 2, 62, 127
2, 97813, Note_on_c, 0, 60, 127
2, 97813, Note_on_c, 10, 81, 127
2, 97959, Note_off_c, 10, 81, 127
2, 97959, Note_off_c, 0, 60, 127
2, 97961, Note_on_c, 12, 59, 127
2, 97961, Note_on_c, 12, 83, 127
2, 98107, Note_off_c, 12, 83, 127
2, 98107, Note_off_c, 12, 59, 127
2, 98109, Note_on_c, 10, 57, 127
2, 98109, Note_on_c, 0, 84, 127
2, 98255, Note_off_c, 0, 84, 127
2, 98257, Note_on_c, 12, 83, 127
2, 98403, Note_off_c, 12, 83, 127
2, 98403, Note_off_c, 10, 57, 127
2, 98405, Note_on_c, 5, 65, 127
2, 98405, Note_on_c, 10, 81, 127
2, 98551, Note_off_c, 10, 81, 127
2, 98553, Note_on_c, 8, 80, 127
2, 98699, Note_off_c, 8, 80, 127
2, 98699, Note_off_c, 5, 65, 127
2, 98701, Note_on_c, 5, 65, 127
2, 98701, Note_on_c, 10, 81, 127
2, 98847, Note_off_c, 5, 65, 127
2, 98849, Note_on_c, 7, 67, 127
2, 98995, Note_off_c, 7, 67, 127
2, 98995, Note_off_c, 4, 76, 127
2, 98997, Note_on_c, 5, 65, 127
2, 98997, Note_on_c, 2, 74, 127
2, 99143, Note_off_c, 5, 65, 127
2, 99145, Note_on_c, 7, 67, 127
2, 99291, Note_off_c, 7, 67, 127
2, 99291, Note_off_c, 10, 81, 127
2, 99293, Note_on_c, 4, 64, 127
2, 99293, Note_on_c, 7, 79, 127
2, 99439, Note_off_c, 2, 74, 127
2, 99441, Note_on_c, 2, 74, 127
2, 99587, Note_off_c, 2, 74, 127
2, 99587, Note_off_c, 4, 64, 127
2, 99589, Note_on_c, 10, 69, 127
2, 99589, Note_on_c, 0, 72, 127
2, 99735, Note_off_c, 0, 72, 127
2, 99737, Note_on_c, 12, 71, 127
2, 99883, Note_off_c, 12, 71, 127
2, 99883, Note_off_c, 10, 69, 127
2, 99885, Note_on_c, 10, 69, 127
2, 99885, Note_on_c, 0, 72, 127
2, 100031, Note_off_c, 10, 69, 127
2, 100033, Note_on_c, 12, 71, 127
2, 100179, Note_off_c, 12, 71, 127
2, 100179, Note_off_c, 7, 79, 127
2, 100181, Note_on_c, 10, 69, 127
2, 100181, Note_on_c, 5, 77, 127
2, 100327, Note_off_c, 10, 69, 127
2, 100329, Note_on_c, 12, 71, 127
2, 100475, Note_off_c, 12, 71, 127
2, 100475, Note_off_c, 0, 72, 127
2, 100477, Note_on_c, 7, 67, 127
2, 100477, Note_on_c, 12, 71, 127
2, 100623, Note_off_c, 7, 67, 127
2, 100625, Note_on_c, 10, 69, 127
2, 100771, Note_off_c, 10, 69, 127
2, 100771, Note_off_c, 5, 77, 127
2, 100773, Note_on_c, 7, 67, 127
2, 100773, Note_on_c, 4, 76, 127
2, 100919, Note_off_c, 7, 67, 127
2, 100921, Note_on_c, 10, 69, 127
2, 101067, Note_off_c, 10, 69, 127
2, 101067, Note_off_c, 12, 71, 127
2, 101069, Note_on_c, 5, 65, 127
2, 101069, Note_on_c, 10, 69, 127
2, 101215, Note_off_c, 5, 65, 127
2, 101217, Note_on_c, 7, 67, 127
2, 101363, Note_off_c, 7, 67, 127
2, 101363, Note_off_c, 4, 76, 127
2, 101365, Note_on_c, 5, 65, 127
2, 101365, Note_on_c, 2, 74, 127
2, 101511, Note_off_c, 5, 65, 127
2, 101513, Note_on_c, 7, 67, 127
2, 101659, Note_off_c, 7, 67, 127
2, 101659, Note_off_c, 2, 74, 127
2, 101659, Note_off_c, 10, 69, 127
2, 101661, Note_on_c, 4, 64, 127
2, 101661, Note_on_c, 7, 67, 127
2, 101661, Note_on_c, 7, 79, 127
2, 101807, Note_off_c, 4, 64, 127
2, 101809, Note_on_c, 5, 65, 127
2, 101955, Note_off_c, 5, 65, 127
2, 101955, Note_off_c, 7, 79, 127
2, 101957, Note_on_c, 4, 64, 127
2, 101957, Note_on_c, 0, 72, 127
2, 102103, Note_off_c, 4, 64, 127
2, 102105, Note_on_c, 5, 65, 127
2, 102251, Note_off_c, 5, 65, 127
2, 102251, Note_off_c, 7, 67, 127
2, 102253, Note_on_c, 2, 62, 127
2, 102253, Note_on_c, 5, 65, 127
2, 102399, Note_off_c, 2, 62, 127
2, 102401, Note_on_c, 4, 64, 127
2, 102547, Note_off_c, 4, 64, 127
2, 102547, Note_off_c, 0, 72, 127
2, 102549, Note_on_c, 2, 62, 127
2, 102549, Note_on_c, 12, 71, 127
2, 102695, Note_off_c, 2, 62, 127
2, 102697, Note_on_c, 4, 64, 127
2, 102843, Note_off_c, 4, 64, 127
2, 102843, Note_off_c, 12, 71, 127
2, 102843, Note_off_c, 5, 65, 127
2, 102845, Note_on_c, 0, 60, 127
2, 102845, Note_on_c, 4, 64, 127
2, 102845, Note_on_c, 4, 76, 127
2, 102991, Note_off_c, 0, 60, 127
2, 102993, Note_on_c, 2, 62, 127
2, 103139, Note_off_c, 2, 62, 127
2, 103139, Note_off_c, 4, 76, 127
2, 103141, Note_on_c, 0, 60, 127
2, 103141, Note_on_c, 10, 69, 127
2, 103287, Note_off_c, 0, 60, 127
2, 103289, Note_on_c, 2, 62, 127
2, 103435, Note_off_c, 2, 62, 127
2, 103435, Note_off_c, 4, 64, 127
2, 103437, Note_on_c, 12, 59, 127
2, 103437, Note_on_c, 2, 62, 127
2, 103583, Note_off_c, 12, 59, 127
2, 103585, Note_on_c, 0, 60, 127
2, 103731, Note_off_c, 0, 60, 127
2, 103731, Note_off_c, 10, 69, 127
2, 103733, Note_on_c, 12, 59, 127
2, 103733, Note_on_c, 8, 68, 127
2, 103879, Note_off_c, 12, 59, 127
2, 103881, Note_on_c, 0, 60, 127
2, 104027, Note_off_c, 0, 60, 127
2, 104027, Note_off_c, 8, 68, 127
2, 104027, Note_off_c, 2, 62, 127
2, 104029, Note_on_c, 10, 57, 127
2, 104029, Note_on_c, 0, 60, 127
2, 104029, Note_on_c, 10, 69, 127
2, 104175, Note_off_c, 0, 60, 127
2, 104175, Note_off_c, 10, 57, 127
2, 104177, Note_on_c, 0, 60, 127
2, 104177, Note_on_c, 4, 64, 127
2, 104323, Note_off_c, 4, 64, 127
2, 104323, Note_off_c, 0, 60, 127
2, 104325, Note_on_c, 12, 59, 127
2, 104325, Note_on_c, 2, 62, 127
2, 104460, Note_off_c, 10, 69, 127
2, 104471, Note_off_c, 2, 62, 127
2, 104471, Note_off_c, 12, 59, 127
2, 104473, Note_on_c, 2, 62, 127
2, 104473, Note_on_c, 5, 65, 127
2, 104619, Note_off_c, 5, 65, 127
2, 104619, Note_off_c, 2, 62, 127
2, 104621, Note_on_c, 0, 60, 127
2, 104621, Note_on_c, 4, 64, 127
2, 104621, Note_on_c, 10, 69, 127
2, 104767, Note_off_c, 10, 69, 127
2, 104767, Note_off_c, 4, 64, 127
2, 104767, Note_off_c, 0, 60, 127
2, 104769, Note_on_c, 4, 64, 127
2, 104769, Note_on_c, 0, 72, 127
2, 104915, Note_off_c, 0, 72, 127
2, 104915, Note_off_c, 4, 64, 127
2, 104917, Note_on_c, 2, 62, 127
2, 104917, Note_on_c, 8, 68, 127
2, 104917, Note_on_c, 12, 71, 127
2, 105063, Note_off_c, 12, 71, 127
2, 105063, Note_off_c, 2, 62, 127
2, 105065, Note_on_c, 5, 65, 127
2, 105065, Note_on_c, 2, 74, 127
2, 105211, Note_off_c, 2, 74, 127
2, 105211, Note_off_c, 5, 65, 127
2, 105211, Note_off_c, 8, 68, 127
2, 105213, Note_on_c, 4, 64, 127
2, 105213, Note_on_c, 10, 69, 127
2, 105213, Note_on_c, 0, 72, 127
2, 105359, Note_off_c, 0, 72, 127
2, 105361, Note_on_c, 2, 74, 127
2, 105507, Note_off_c, 2, 74, 127
2, 105509, Note_on_c, 10, 57, 127
2, 105509, Note_on_c, 0, 72, 127
2, 105644, Note_off_c, 4, 64, 127
2, 105655, Note_off_c, 0, 72, 127
2, 105657, Note_on_c, 2, 62, 127
2, 105657, Note_on_c, 12, 71, 127
2, 105799, Note_off_c, 10, 69, 127
2, 105804, Note_off_c, 12, 71, 127
2, 105804, Note_off_c, 2, 62, 127
2, 105804, Note_off_c, 10, 57, 127
2, 105806, Note_on_c, 10, 57, 127
2, 105806, Note_on_c, 0, 60, 127
2, 105806, Note_on_c, 10, 69, 127
2, 105952, Note_off_c, 10, 69, 127
2, 105954, Note_on_c, 7, 67, 127
2, 106100, Note_off_c, 7, 67, 127
2, 106100, Note_off_c, 10, 57, 127
2, 106102, Note_on_c, 10, 57, 127
2, 106102, Note_on_c, 6, 66, 127
2, 106248, Note_off_c, 6, 66, 127
2, 106250, Note_on_c, 4, 64, 127
2, 106392, Note_off_c, 0, 60, 127
2, 106397, Note_off_c, 4, 64, 127
2, 106397, Note_off_c, 10, 57, 127
2, 106399, Note_on_c, 10, 57, 127
2, 106399, Note_on_c, 12, 71, 127
2, 106545, Note_off_c, 10, 57, 127
2, 106547, Note_on_c, 0, 60, 127
2, 106693, Note_off_c, 0, 60, 127
2, 106695, Note_on_c, 12, 59, 127
2, 106695, Note_on_c, 3, 63, 127
2, 106841, Note_off_c, 12, 59, 127
2, 106843, Note_on_c, 10, 57, 127
2, 106989, Note_off_c, 10, 57, 127
2, 106989, Note_off_c, 3, 63, 127
2, 106991, Note_on_c, 7, 55, 127
2, 106991, Note_on_c, 4, 64, 127
2, 107137, Note_off_c, 4, 64, 127
2, 107137, Note_off_c, 7, 55, 127
2, 107139, Note_on_c, 10, 57, 127
2, 107139, Note_on_c, 3, 63, 127
2, 107285, Note_off_c, 3, 63, 127
2, 107285, Note_off_c, 10, 57, 127
2, 107287, Note_on_c, 7, 55, 127
2, 107287, Note_on_c, 4, 64, 127
2, 107433, Note_off_c, 4, 64, 127
2, 107433, Note_off_c, 7, 55, 127
2, 107435, Note_on_c, 6, 54, 127
2, 107435, Note_on_c, 6, 66, 127
2, 107581, Note_off_c, 6, 66, 127
2, 107581, Note_off_c, 6, 54, 127
2, 107583, Note_on_c, 4, 52, 127
2, 107583, Note_on_c, 7, 67, 127
2, 107729, Note_off_c, 12, 71, 127
2, 107731, Note_on_c, 12, 71, 127
2, 107877, Note_off_c, 12, 71, 127
2, 107877, Note_off_c, 4, 52, 127
2, 107879, Note_on_c, 0, 60, 127
2, 107879, Note_on_c, 4, 76, 127
2, 108025, Note_off_c, 4, 76, 127
2, 108027, Note_on_c, 3, 75, 127
2, 108173, Note_off_c, 3, 75, 127
2, 108173, Note_off_c, 0, 60, 127
2, 108175, Note_on_c, 0, 60, 127
2, 108175, Note_on_c, 4, 76, 127
2, 108321, Note_off_c, 0, 60, 127
2, 108323, Note_on_c, 2, 62, 127
2, 108469, Note_off_c, 2, 62, 127
2, 108469, Note_off_c, 7, 67, 127
2, 108471, Note_on_c, 0, 60, 127
2, 108471, Note_on_c, 10, 69, 127
2, 108617, Note_off_c, 0, 60, 127
2, 108619, Note_on_c, 2, 62, 127
2, 108765, Note_off_c, 2, 62, 127
2, 108765, Note_off_c, 10, 69, 127
2, 108767, Note_on_c, 12, 59, 127
2, 108767, Note_on_c, 12, 71, 127
2, 108913, Note_off_c, 4, 76, 127
2, 108915, Note_on_c, 3, 75, 127
2, 109061, Note_off_c, 3, 75, 127
2, 109061, Note_off_c, 12, 59, 127
2, 109063, Note_on_c, 4, 64, 127
2, 109063, Note_on_c, 7, 79, 127
2, 109209, Note_off_c, 7, 79, 127
2, 109211, Note_on_c, 6, 78, 127
2, 109357, Note_off_c, 6, 78, 127
2, 109357, Note_off_c, 4, 64, 127
2, 109359, Note_on_c, 4, 64, 127
2, 109359, Note_on_c, 7, 79, 127
2, 109505, Note_off_c, 4, 64, 127
2, 109507, Note_on_c, 6, 66, 127
2, 109653, Note_off_c, 6, 66, 127
2, 109653, Note_off_c, 12, 71, 127
2, 109655, Note_on_c, 4, 64, 127
2, 109655, Note_on_c, 0, 72, 127
2, 109801, Note_off_c, 4, 64, 127
2, 109803, Note_on_c, 6, 66, 127
2, 109949, Note_off_c, 6, 66, 127
2, 109949, Note_off_c, 7, 79, 127
2, 109951, Note_on_c, 2, 62, 127
2, 109951, Note_on_c, 6, 78, 127
2, 110097, Note_off_c, 2, 62, 127
2, 110099, Note_on_c, 4, 64, 127
2, 110245, Note_off_c, 4, 64, 127
2, 110245, Note_off_c, 0, 72, 127
2, 110247, Note_on_c, 2, 62, 127
2, 110247, Note_on_c, 12, 71, 127
2, 110393, Note_off_c, 2, 62, 127
2, 110395, Note_on_c, 4, 64, 127
2, 110541, Note_off_c, 4, 64, 127
2, 110541, Note_off_c, 6, 78, 127
2, 110543, Note_on_c, 0, 60, 127
2, 110543, Note_on_c, 4, 76, 127
2, 110689, Note_off_c, 0, 60, 127
2, 110691, Note_on_c, 2, 62, 127
2, 110837, Note_off_c, 2, 62, 127
2, 110837, Note_off_c, 12, 71, 127
2, 110839, Note_on_c, 0, 60, 127
2, 110839, Note_on_c, 10, 69, 127
2, 110985, Note_off_c, 0, 60, 127
2, 110987, Note_on_c, 2, 62, 127
2, 111133, Note_off_c, 2, 62, 127
2, 111133, Note_off_c, 10, 69, 127
2, 111133, Note_off_c, 4, 76, 127
2, 111135, Note_on_c, 12, 59, 127
2, 111135, Note_on_c, 2, 62, 127
2, 111135, Note_on_c, 2, 74, 127
2, 111281, Note_off_c, 12, 59, 127
2, 111283, Note_on_c, 0, 60, 127
2, 111429, Note_off_c, 0, 60, 127
2, 111429, Note_off_c, 2, 62, 127
2, 111431, Note_on_c, 12, 59, 127
2, 111431, Note_on_c, 7, 67, 127
2, 111577, Note_off_c, 12, 59, 127
2, 111579, Note_on_c, 0, 60, 127
2, 111725, Note_off_c, 0, 60, 127
2, 111725, Note_off_c, 2, 74, 127
2, 111727, Note_on_c, 10, 57, 127
2, 111727, Note_on_c, 0, 72, 127
2, 111873, Note_off_c, 10, 57, 127
2, 111875, Note_on_c, 12, 59, 127
2, 112021, Note_off_c, 12, 59, 127
2, 112021, Note_off_c, 7, 67, 127
2, 112023, Note_on_c, 10, 57, 127
2, 112023, Note_on_c, 6, 66, 127
2, 112169, Note_off_c, 10, 57, 127
2, 112171, Note_on_c, 12, 59, 127
2, 112317, Note_off_c, 12, 59, 127
2, 112317, Note_off_c, 6, 66, 127
2, 112317, Note_off_c, 0, 72, 127
2, 112319, Note_on_c, 7, 55, 127
2, 112319, Note_on_c, 12, 59, 127
2, 112319, Note_on_c, 12, 71, 127
2, 112465, Note_off_c, 7, 55, 127
2, 112467, Note_on_c, 10, 57, 127
2, 112613, Note_off_c, 10, 57, 127
2, 112613, Note_off_c, 12, 59, 127
2, 112615, Note_on_c, 7, 55, 127
2, 112615, Note_on_c, 4, 64, 127
2, 112761, Note_off_c, 7, 55, 127
2, 112763, Note_on_c, 10, 57, 127
2, 112909, Note_off_c, 10, 57, 127
2, 112909, Note_off_c, 12, 71, 127
2, 112911, Note_on_c, 6, 54, 127
2, 112911, Note_on_c, 10, 69, 127
2, 113057, Note_off_c, 6, 54, 127
2, 113059, Note_on_c, 7, 55, 127
2, 113205, Note_off_c, 7, 55, 127
2, 113205, Note_off_c, 4, 64, 127
2, 113207, Note_on_c, 6, 54, 127
2, 113207, Note_on_c, 3, 63, 127
2, 113353, Note_off_c, 6, 54, 127
2, 113355, Note_on_c, 7, 55, 127
2, 113501, Note_off_c, 7, 55, 127
2, 113501, Note_off_c, 3, 63, 127
2, 113501, Note_off_c, 10, 69, 127
2, 113503, Note_on_c, 4, 52, 127
2, 113503, Note_on_c, 4, 64, 127
2, 113503, Note_on_c, 7, 67, 127
2, 113649, Note_off_c, 7, 67, 127
2, 113649, Note_off_c, 4, 52, 127
2, 113651, Note_on_c, 7, 55, 127
2, 113651, Note_on_c, 12, 71, 127
2, 113797, Note_off_c, 12, 71, 127
2, 113797, Note_off_c, 7, 55, 127
2, 113799, Note_on_c, 6, 54, 127
2, 113799, Note_on_c, 10, 69, 127
2, 113945, Note_off_c, 10, 69, 127
2, 113945, Note_off_c, 6, 54, 127
2, 113947, Note_on_c, 10, 57, 127
2, 113947, Note_on_c, 0, 72, 127
2, 114093, Note_off_c, 0, 72, 127
2, 114093, Note_off_c, 10, 57, 127
2, 114095, Note_on_c, 7, 55, 127
2, 114095, Note_on_c, 12, 71, 127
2, 114241, Note_off_c, 7, 55, 127
2, 114241, Note_off_c, 4, 64, 127
2, 114243, Note_on_c, 12, 59, 127
2, 114243, Note_on_c, 7, 67, 127
2, 114389, Note_off_c, 7, 67, 127
2, 114389, Note_off_c, 12, 59, 127
2, 114391, Note_on_c, 10, 57, 127
2, 114391, Note_on_c, 6, 66, 127
2, 114537, Note_off_c, 6, 66, 127
2, 114537, Note_off_c, 10, 57, 127
2, 114539, Note_on_c, 0, 60, 127
2, 114539, Note_on_c, 10, 69, 127
2, 114685, Note_off_c, 10, 69, 127
2, 114685, Note_off_c, 0, 60, 127
2, 114687, Note_on_c, 12, 59, 127
2, 114687, Note_on_c, 7, 67, 127
2, 114833, Note_off_c, 12, 71, 127
2, 114835, Note_on_c, 4, 76, 127
2, 114981, Note_off_c, 4, 76, 127
2, 114983, Note_on_c, 3, 75, 127
2, 115129, Note_off_c, 3, 75, 127
2, 115131, Note_on_c, 6, 78, 127
2, 115277, Note_off_c, 6, 78, 127
2, 115279, Note_on_c, 4, 76, 127
2, 115425, Note_off_c, 4, 76, 127
2, 115425, Note_off_c, 7, 67, 127
2, 115427, Note_on_c, 4, 64, 127
2, 115427, Note_on_c, 7, 79, 127
2, 115573, Note_off_c, 7, 79, 127
2, 115573, Note_off_c, 4, 64, 127
2, 115575, Note_on_c, 10, 69, 127
2, 115575, Note_on_c, 6, 78, 127
2, 115721, Note_off_c, 6, 78, 127
2, 115721, Note_off_c, 10, 69, 127
2, 115723, Note_on_c, 3, 63, 127
2, 115723, Note_on_c, 10, 81, 127
2, 115869, Note_off_c, 10, 81, 127
2, 115869, Note_off_c, 3, 63, 127
2, 115871, Note_on_c, 4, 64, 127
2, 115871, Note_on_c, 7, 79, 127
2, 116017, Note_off_c, 7, 79, 127
2, 116017, Note_off_c, 4, 64, 127
2, 116019, Note_on_c, 7, 67, 127
2, 116019, Note_on_c, 4, 76, 127
2, 116165, Note_off_c, 4, 76, 127
2, 116165, Note_off_c, 7, 67, 127
2, 116167, Note_on_c, 4, 64, 127
2, 116167, Note_on_c, 1, 73, 127
2, 116313, Note_off_c, 1, 73, 127
2, 116313, Note_off_c, 4, 64, 127
2, 116315, Note_on_c, 7, 67, 127
2, 116315, Note_on_c, 4, 76, 127
2, 116461, Note_off_c, 4, 76, 127
2, 116461, Note_off_c, 7, 67, 127
2, 116463, Note_on_c, 1, 61, 127
2, 116463, Note_on_c, 11, 70, 127
2, 116611, Note_on_c, 7, 79, 127
2, 116757, Note_off_c, 7, 79, 127
2, 116759, Note_on_c, 6, 78, 127
2, 116905, Note_off_c, 6, 78, 127
2, 116907, Note_on_c, 4, 76, 127
2, 117049, Note_off_c, 11, 70, 127
2, 117054, Note_off_c, 4, 76, 127
2, 117054, Note_off_c, 1, 61, 127
2, 117056, Note_on_c, 6, 66, 127
2, 117056, Note_on_c, 3, 75, 127
2, 117202, Note_off_c, 3, 75, 127
2, 117204, Note_on_c, 1, 73, 127
2, 117350, Note_off_c, 1, 73, 127
2, 117352, Note_on_c, 12, 71, 127
2, 117498, Note_off_c, 12, 71, 127
2, 117500, Note_on_c, 1, 73, 127
2, 117646, Note_off_c, 1, 73, 127
2, 117648, Note_on_c, 2, 74, 127
2, 117794, Note_off_c, 2, 74, 127
2, 117794, Note_off_c, 6, 66, 127
2, 117796, Note_on_c, 7, 67, 127
2, 117796, Note_on_c, 4, 76, 127
2, 117942, Note_off_c, 4, 76, 127
2, 117942, Note_off_c, 7, 67, 127
2, 117944, Note_on_c, 5, 65, 127
2, 117944, Note_on_c, 2, 74, 127
2, 118090, Note_off_c, 2, 74, 127
2, 118090, Note_off_c, 5, 65, 127
2, 118092, Note_on_c, 4, 64, 127
2, 118092, Note_on_c, 4, 76, 127
2, 118238, Note_off_c, 4, 76, 127
2, 118238, Note_off_c, 4, 64, 127
2, 118240, Note_on_c, 2, 62, 127
2, 118240, Note_on_c, 5, 77, 127
2, 118386, Note_off_c, 5, 77, 127
2, 118388, Note_on_c, 2, 74, 127
2, 118534, Note_off_c, 2, 74, 127
2, 118536, Note_on_c, 12, 71, 127
2, 118682, Note_off_c, 12, 71, 127
2, 118684, Note_on_c, 2, 74, 127
2, 118830, Note_off_c, 2, 74, 127
2, 118832, Note_on_c, 8, 68, 127
2, 118980, Note_on_c, 5, 77, 127
2, 119126, Note_off_c, 5, 77, 127
2, 119128, Note_on_c, 4, 76, 127
2, 119274, Note_off_c, 4, 76, 127
2, 119276, Note_on_c, 2, 74, 127
2, 119422, Note_off_c, 2, 74, 127
2, 119422, Note_off_c, 8, 68, 127
2, 119422, Note_off_c, 2, 62, 127
2, 119424, Note_on_c, 4, 64, 127
2, 119424, Note_on_c, 0, 72, 127
2, 119570, Note_off_c, 0, 72, 127
2, 119572, Note_on_c, 12, 71, 127
2, 119718, Note_off_c, 12, 71, 127
2, 119718, Note_off_c, 12, 59, 127
2, 119720, Note_on_c, 4, 52, 127
2, 119720, Note_on_c, 10, 69, 127
2, 119866, Note_off_c, 10, 69, 127
2, 119868, Note_on_c, 12, 71, 127
2, 120014, Note_off_c, 12, 71, 127
2, 120014, Note_off_c, 4, 52, 127
2, 120016, Note_on_c, 10, 57, 127
2, 120016, Note_on_c, 0, 72, 127
2, 120162, Note_off_c, 0, 72, 127
2, 120162, Note_off_c, 4, 64, 127
2, 120164, Note_on_c, 4, 64, 127
2, 120164, Note_on_c, 2, 74, 127
2, 120310, Note_off_c, 2, 74, 127
2, 120310, Note_off_c, 4, 64, 127
2, 120312, Note_on_c, 2, 62, 127
2, 120312, Note_on_c, 12, 71, 127
2, 120458, Note_off_c, 12, 71, 127
2, 120458, Note_off_c, 2, 62, 127
2, 120460, Note_on_c, 0, 60, 127
2, 120460, Note_on_c, 0, 72, 127
2, 120606, Note_off_c, 0, 72, 127
2, 120606, Note_off_c, 0, 60, 127
2, 120608, Note_on_c, 12, 59, 127
2, 120608, Note_on_c, 2, 74, 127
2, 120754, Note_off_c, 2, 74, 127
2, 120756, Note_on_c, 12, 71, 127
2, 120902, Note_off_c, 12, 71, 127
2, 120904, Note_on_c, 5, 65, 127
2, 121050, Note_off_c, 5, 65, 127
2, 121052, Note_on_c, 12, 71, 127
2, 121198, Note_off_c, 12, 71, 127
2, 121198, Note_off_c, 10, 57, 127
2, 121200, Note_on_c, 8, 56, 127
2, 121200, Note_on_c, 4, 64, 127
2, 121348, Note_on_c, 2, 74, 127
2, 121494, Note_off_c, 2, 74, 127
2, 121496, Note_on_c, 0, 72, 127
2, 121642, Note_off_c, 0, 72, 127
2, 121644, Note_on_c, 12, 71, 127
2, 121786, Note_off_c, 4, 64, 127
2, 121791, Note_off_c, 12, 71, 127
2, 121791, Note_off_c, 8, 56, 127
2, 121791, Note_off_c, 12, 59, 127
2, 121793, Note_on_c, 10, 57, 127
2, 121793, Note_on_c, 0, 72, 127
2, 121939, Note_off_c, 0, 72, 127
2, 121941, Note_on_c, 10, 69, 127
2, 122087, Note_off_c, 10, 69, 127
2, 122089, Note_on_c, 7, 55, 127
2, 122089, Note_on_c, 4, 64, 127
2, 122235, Note_off_c, 4, 64, 127
2, 122237, Note_on_c, 10, 69, 127
2, 122383, Note_off_c, 7, 55, 127
2, 122385, Note_on_c, 5, 53, 127
2, 122385, Note_on_c, 2, 62, 127
2, 122531, Note_off_c, 10, 69, 127
2, 122533, Note_on_c, 0, 72, 127
2, 122679, Note_off_c, 0, 72, 127
2, 122681, Note_on_c, 12, 71, 127
2, 122827, Note_off_c, 12, 71, 127
2, 122829, Note_on_c, 10, 69, 127
2, 122975, Note_off_c, 10, 69, 127
2, 122975, Note_off_c, 5, 53, 127
2, 122975, Note_off_c, 10, 57, 127
2, 122977, Note_on_c, 4, 52, 127
2, 122977, Note_on_c, 8, 68, 127
2, 123123, Note_off_c, 8, 68, 127
2, 123125, Note_on_c, 4, 64, 127
2, 123271, Note_off_c, 4, 64, 127
2, 123273, Note_on_c, 4, 76, 127
2, 123273, Note_on_c, 10, 69, 127
2, 123419, Note_off_c, 2, 62, 127
2, 123421, Note_on_c, 0, 60, 127
2, 123567, Note_off_c, 0, 60, 127
2, 123567, Note_off_c, 4, 76, 127
2, 123569, Note_on_c, 12, 59, 127
2, 123569, Note_on_c, 4, 76, 127
2, 123715, Note_off_c, 12, 59, 127
2, 123717, Note_on_c, 10, 57, 127
2, 123859, Note_off_c, 10, 69, 127
2, 123864, Note_off_c, 10, 57, 127
2, 123864, Note_off_c, 4, 76, 127
2, 123866, Note_on_c, 12, 59, 127
2, 123866, Note_on_c, 4, 76, 127
2, 123866, Note_on_c, 8, 68, 127
2, 124012, Note_off_c, 4, 52, 127
2, 124014, Note_on_c, 2, 50, 127
2, 124160, Note_off_c, 2, 50, 127
2, 124160, Note_off_c, 8, 68, 127
2, 124160, Note_off_c, 4, 76, 127
2, 124160, Note_off_c, 12, 59, 127
2, 124162, Note_on_c, 0, 48, 127
2, 124162, Note_on_c, 4, 52, 127
2, 124162, Note_on_c, 4, 76, 127
2, 124162, Note_on_c, 10, 69, 127
2, 124308, Note_off_c, 4, 76, 127
2, 124310, Note_on_c, 5, 77, 127
2, 124455, Note_off_c, 10, 69, 127
2, 124457, Note_off_c, 5, 77, 127
2, 124457, Note_off_c, 0, 48, 127
2, 124459, Note_on_c, 8, 44, 127
2, 124459, Note_on_c, 4, 76, 127
2, 124459, Note_on_c, 12, 71, 127
2, 124605, Note_off_c, 4, 76, 127
2, 124607, Note_on_c, 2, 74, 127
2, 124752, Note_off_c, 12, 71, 127
2, 124754, Note_off_c, 2, 74, 127
2, 124754, Note_off_c, 8, 44, 127
2, 124756, Note_on_c, 10, 45, 127
2, 124756, Note_on_c, 0, 72, 127
2, 124756, Note_on_c, 10, 69, 127
2, 124902, Note_off_c, 0, 72, 127
2, 124902, Note_off_c, 10, 45, 127
2, 124904, Note_on_c, 8, 44, 127
2, 124904, Note_on_c, 2, 74, 127
2, 125050, Note_off_c, 2, 74, 127
2, 125050, Note_off_c, 8, 44, 127
2, 125052, Note_on_c, 10, 45, 127
2, 125052, Note_on_c, 0, 72, 127
2, 125198, Note_off_c, 0, 72, 127
2, 125198, Note_off_c, 10, 45, 127
2, 125200, Note_on_c, 12, 47, 127
2, 125200, Note_on_c, 12, 71, 127
2, 125342, Note_off_c, 10, 69, 127
2, 125347, Note_off_c, 12, 71, 127
2, 125347, Note_off_c, 12, 47, 127
2, 125347, Note_off_c, 4, 52, 127
2, 125349, Note_on_c, 0, 48, 127
2, 125349, Note_on_c, 10, 69, 127
2, 125495, Note_off_c, 0, 48, 127
2, 125497, Note_on_c, 12, 47, 127
2, 125643, Note_off_c, 12, 47, 127
2, 125645, Note_on_c, 10, 45, 127
2, 125645, Note_on_c, 5, 77, 127
2, 125791, Note_off_c, 10, 45, 127
2, 125791, Note_off_c, 10, 69, 127
2, 125793, Note_on_c, 8, 44, 127
2, 125793, Note_on_c, 12, 71, 127
2, 125939, Note_off_c, 12, 71, 127
2, 125939, Note_off_c, 8, 44, 127
2, 125939, Note_off_c, 5, 77, 127
2, 125941, Note_on_c, 10, 45, 127
2, 125941, Note_on_c, 0, 72, 127
2, 125941, Note_on_c, 5, 77, 127
2, 126087, Note_off_c, 5, 77, 127
2, 126089, Note_on_c, 7, 79, 127
2, 126235, Note_off_c, 7, 79, 127
2, 126235, Note_off_c, 0, 72, 127
2, 126235, Note_off_c, 10, 45, 127
2, 126237, Note_on_c, 2, 50, 127
2, 126237, Note_on_c, 2, 74, 127
2, 126237, Note_on_c, 5, 77, 127
2, 126383, Note_off_c, 5, 77, 127
2, 126385, Note_on_c, 7, 79, 127
2, 126531, Note_off_c, 7, 79, 127
2, 126531, Note_off_c, 2, 74, 127
2, 126533, Note_on_c, 8, 68, 127
2, 126533, Note_on_c, 4, 76, 127
2, 126679, Note_off_c, 2, 50, 127
2, 126681, Note_on_c, 2, 50, 127
2, 126827, Note_off_c, 2, 50, 127
2, 126827, Note_off_c, 4, 76, 127
2, 126827, Note_off_c, 8, 68, 127
2, 126829, Note_on_c, 0, 48, 127
2, 126829, Note_on_c, 4, 76, 127
2, 126829, Note_on_c, 10, 81, 127
2, 126975, Note_off_c, 0, 48, 127
2, 126977, Note_on_c, 12, 47, 127
2, 127123, Note_off_c, 12, 47, 127
2, 127123, Note_off_c, 10, 81, 127
2, 127125, Note_on_c, 0, 48, 127
2, 127125, Note_on_c, 10, 81, 127
2, 127271, Note_off_c, 10, 81, 127
2, 127273, Note_on_c, 12, 83, 127
2, 127387, Note_off_c, 0, 48, 127
2, 127419, Note_off_c, 12, 83, 127
2, 127419, Note_off_c, 4, 76, 127
2, 127421, Note_on_c, 5, 53, 127
2, 127421, Note_on_c, 0, 72, 127
2, 127421, Note_on_c, 10, 81, 127
2, 127567, Note_off_c, 10, 81, 127
2, 127569, Note_on_c, 12, 83, 127
2, 127715, Note_off_c, 12, 83, 127
2, 127715, Note_off_c, 0, 72, 127
2, 127717, Note_on_c, 2, 74, 127
2, 127717, Note_on_c, 7, 79, 127
2, 127863, Note_off_c, 7, 79, 127
2, 127865, Note_on_c, 10, 81, 127
2, 127994, Note_off_c, 5, 53, 127
2, 128011, Note_off_c, 10, 81, 127
2, 128011, Note_off_c, 2, 74, 127
2, 128013, Note_on_c, 4, 52, 127
2, 128013, Note_on_c, 4, 76, 127
2, 128013, Note_on_c, 7, 79, 127
2, 128159, Note_off_c, 7, 79, 127
2, 128161, Note_on_c, 10, 81, 127
2, 128307, Note_off_c, 10, 81, 127
2, 128307, Note_off_c, 4, 76, 127
2, 128309, Note_on_c, 10, 69, 127
2, 128309, Note_on_c, 5, 77, 127
2, 128455, Note_off_c, 5, 77, 127
2, 128457, Note_on_c, 7, 79, 127
2, 128588, Note_off_c, 4, 52, 127
2, 128603, Note_off_c, 7, 79, 127
2, 128605, Note_on_c, 2, 50, 127
2, 128605, Note_on_c, 5, 77, 127
2, 128751, Note_off_c, 5, 77, 127
2, 128753, Note_on_c, 7, 79, 127
2, 128899, Note_off_c, 7, 79, 127
2, 128899, Note_off_c, 2, 50, 127
2, 128899, Note_off_c, 10, 69, 127
2, 128901, Note_on_c, 7, 43, 127
2, 128901, Note_on_c, 12, 71, 127
2, 128901, Note_on_c, 4, 76, 127
2, 129047, Note_off_c, 4, 76, 127
2, 129049, Note_on_c, 5, 77, 127
2, 129163, Note_off_c, 7, 43, 127
2, 129195, Note_off_c, 5, 77, 127
2, 129195, Note_off_c, 12, 71, 127
2, 129197, Note_on_c, 0, 48, 127
2, 129197, Note_on_c, 0, 72, 127
2, 129197, Note_on_c, 4, 76, 127
2, 129343, Note_off_c, 4, 76, 127
2, 129345, Note_on_c, 5, 77, 127
2, 129491, Note_off_c, 5, 77, 127
2, 129491, Note_off_c, 0, 72, 127
2, 129493, Note_on_c, 6, 66, 127
2, 129493, Note_on_c, 2, 74, 127
2, 129639, Note_off_c, 2, 74, 127
2, 129641, Note_on_c, 4, 76, 127
2, 129787, Note_off_c, 4, 76, 127
2, 129787, Note_off_c, 6, 66, 127
2, 129787, Note_off_c, 0, 48, 127
2, 129789, Note_on_c, 12, 47, 127
2, 129789, Note_on_c, 8, 68, 127
2, 129789, Note_on_c, 2, 74, 127
2, 129935, Note_off_c, 2, 74, 127
2, 129937, Note_on_c, 4, 76, 127
2, 130083, Note_off_c, 4, 76, 127
2, 130083, Note_off_c, 12, 47, 127
2, 130085, Note_on_c, 4, 40, 127
2, 130085, Note_on_c, 0, 72, 127
2, 130231, Note_off_c, 0, 72, 127
2, 130233, Note_on_c, 2, 74, 127
2, 130350, Note_off_c, 4, 40, 127
2, 130379, Note_off_c, 2, 74, 127
2, 130379, Note_off_c, 8, 68, 127
2, 130381, Note_on_c, 10, 45, 127
2, 130381, Note_on_c, 10, 69, 127
2, 130381, Note_on_c, 0, 72, 127
2, 130527, Note_off_c, 0, 72, 127
2, 130529, Note_on_c, 2, 74, 127
2, 130675, Note_off_c, 2, 74, 127
2, 130675, Note_off_c, 10, 69, 127
2, 130677, Note_on_c, 2, 62, 127
2, 130677, Note_on_c, 12, 71, 127
2, 130823, Note_off_c, 12, 71, 127
2, 130825, Note_on_c, 0, 72, 127
2, 130971, Note_off_c, 0, 72, 127
2, 130971, Note_off_c, 10, 45, 127
2, 130973, Note_on_c, 8, 44, 127
2, 130973, Note_on_c, 12, 71, 127
2, 131119, Note_off_c, 12, 71, 127
2, 131121, Note_on_c, 0, 72, 127
2, 131267, Note_off_c, 0, 72, 127
2, 131267, Note_off_c, 8, 44, 127
2, 131267, Note_off_c, 2, 62, 127
2, 131269, Note_on_c, 10, 45, 127
2, 131269, Note_on_c, 0, 60, 127
2, 131269, Note_on_c, 10, 69, 127
2, 131415, Note_off_c, 10, 69, 127
2, 131417, Note_on_c, 0, 72, 127
2, 131562, Note_off_c, 0, 60, 127
2, 131564, Note_off_c, 0, 72, 127
2, 131566, Note_on_c, 12, 71, 127
2, 131701, Note_off_c, 10, 45, 127
2, 131712, Note_off_c, 12, 71, 127
2, 131714, Note_on_c, 2, 74, 127
2, 131860, Note_off_c, 2, 74, 127
2, 131862, Note_on_c, 10, 45, 127
2, 131862, Note_on_c, 0, 72, 127
2, 132008, Note_off_c, 0, 72, 127
2, 132008, Note_off_c, 10, 45, 127
2, 132010, Note_on_c, 0, 48, 127
2, 132010, Note_on_c, 4, 76, 127
2, 132156, Note_off_c, 4, 76, 127
2, 132156, Note_off_c, 0, 48, 127
2, 132158, Note_on_c, 12, 47, 127
2, 132158, Note_on_c, 2, 74, 127
2, 132304, Note_off_c, 2, 74, 127
2, 132304, Note_off_c, 12, 47, 127
2, 132306, Note_on_c, 2, 50, 127
2, 132306, Note_on_c, 5, 77, 127
2, 132452, Note_off_c, 5, 77, 127
2, 132452, Note_off_c, 2, 50, 127
2, 132454, Note_on_c, 0, 48, 127
2, 132454, Note_on_c, 4, 64, 127
2, 132454, Note_on_c, 4, 76, 127
2, 132600, Note_off_c, 4, 64, 127
2, 132600, Note_off_c, 0, 48, 127
2, 132602, Note_on_c, 4, 52, 127
2, 132602, Note_on_c, 8, 68, 127
2, 132748, Note_off_c, 8, 68, 127
2, 132748, Note_off_c, 4, 52, 127
2, 132750, Note_on_c, 2, 50, 127
2, 132750, Note_on_c, 6, 66, 127
2, 132896, Note_off_c, 6, 66, 127
2, 132896, Note_off_c, 2, 50, 127
2, 132898, Note_on_c, 6, 54, 127
2, 132898, Note_on_c, 10, 69, 127
2, 133044, Note_off_c, 10, 69, 127
2, 133044, Note_off_c, 6, 54, 127
2, 133046, Note_on_c, 4, 52, 127
2, 133046, Note_on_c, 8, 68, 127
2, 133192, Note_off_c, 8, 68, 127
2, 133192, Note_off_c, 4, 52, 127
2, 133194, Note_on_c, 8, 56, 127
2, 133194, Note_on_c, 12, 71, 127
2, 133340, Note_off_c, 12, 71, 127
2, 133340, Note_off_c, 8, 56, 127
2, 133342, Note_on_c, 6, 54, 127
2, 133342, Note_on_c, 10, 69, 127
2, 133488, Note_off_c, 10, 69, 127
2, 133488, Note_off_c, 6, 54, 127
2, 133490, Note_on_c, 10, 57, 127
2, 133490, Note_on_c, 0, 72, 127
2, 133636, Note_off_c, 0, 72, 127
2, 133636, Note_off_c, 10, 57, 127
2, 133638, Note_on_c, 8, 56, 127
2, 133638, Note_on_c, 12, 71, 127
2, 133784, Note_off_c, 12, 71, 127
2, 133784, Note_off_c, 8, 56, 127
2, 133786, Note_on_c, 12, 59, 127
2, 133786, Note_on_c, 2, 74, 127
2, 133932, Note_off_c, 2, 74, 127
2, 133932, Note_off_c, 12, 59, 127
2, 133934, Note_on_c, 4, 52, 127
2, 133934, Note_on_c, 8, 68, 127
2, 134080, Note_off_c, 8, 68, 127
2, 134080, Note_off_c, 4, 52, 127
2, 134082, Note_on_c, 8, 56, 127
2, 134082, Note_on_c, 12, 71, 127
2, 134228, Note_off_c, 12, 71, 127
2, 134228, Note_off_c, 8, 56, 127
2, 134230, Note_on_c, 6, 54, 127
2, 134230, Note_on_c, 10, 69, 127
2, 134376, Note_off_c, 10, 69, 127
2, 134376, Note_off_c, 6, 54, 127
2, 134378, Note_on_c, 10, 57, 127
2, 134378, Note_on_c, 0, 72, 127
2, 134524, Note_off_c, 0, 72, 127
2, 134524, Note_off_c, 10, 57, 127
2, 134526, Note_on_c, 8, 56, 127
2, 134526, Note_on_c, 12, 71, 127
2, 134672, Note_off_c, 12, 71, 127
2, 134672, Note_off_c, 8, 56, 127
2, 134674, Note_on_c, 12, 59, 127
2, 134674, Note_on_c, 2, 74, 127
2, 134820, Note_off_c, 2, 74, 127
2, 134820, Note_off_c, 12, 59, 127
2, 134822, Note_on_c, 10, 57, 127
2, 134822, Note_on_c, 0, 72, 127
2, 134968, Note_off_c, 4, 76, 127
2, 134970, Note_on_c, 10, 81, 127
2, 135116, Note_off_c, 10, 81, 127
2, 135116, Note_off_c, 0, 72, 127
2, 135118, Note_on_c, 12, 71, 127
2, 135118, Note_on_c, 2, 74, 127
2, 135264, Note_off_c, 2, 74, 127
2, 135266, Note_on_c, 5, 77, 127
2, 135408, Note_off_c, 10, 57, 127
2, 135413, Note_off_c, 5, 77, 127
2, 135413, Note_off_c, 12, 71, 127
2, 135415, Note_on_c, 0, 72, 127
2, 135415, Note_on_c, 4, 76, 127
2, 135561, Note_off_c, 4, 76, 127
2, 135563, Note_on_c, 7, 79, 127
2, 135709, Note_off_c, 7, 79, 127
2, 135709, Note_off_c, 0, 72, 127
2, 135711, Note_on_c, 2, 74, 127
2, 135711, Note_on_c, 5, 77, 127
2, 135857, Note_off_c, 5, 77, 127
2, 135859, Note_on_c, 10, 81, 127
2, 136005, Note_off_c, 10, 81, 127
2, 136005, Note_off_c, 2, 74, 127
2, 136007, Note_on_c, 4, 52, 127
2, 136007, Note_on_c, 4, 76, 127
2, 136007, Note_on_c, 7, 79, 127
2, 136153, Note_off_c, 4, 52, 127
2, 136155, Note_on_c, 7, 55, 127
2, 136301, Note_off_c, 7, 55, 127
2, 136301, Note_off_c, 4, 76, 127
2, 136303, Note_on_c, 5, 53, 127
2, 136303, Note_on_c, 2, 74, 127
2, 136449, Note_off_c, 2, 74, 127
2, 136449, Note_off_c, 5, 53, 127
2, 136451, Note_on_c, 10, 57, 127
2, 136451, Note_on_c, 0, 72, 127
2, 136597, Note_off_c, 0, 72, 127
2, 136597, Note_off_c, 10, 57, 127
2, 136599, Note_on_c, 7, 55, 127
2, 136599, Note_on_c, 12, 71, 127
2, 136745, Note_off_c, 12, 71, 127
2, 136745, Note_off_c, 7, 55, 127
2, 136747, Note_on_c, 12, 59, 127
2, 136747, Note_on_c, 2, 74, 127
2, 136893, Note_off_c, 2, 74, 127
2, 136893, Note_off_c, 12, 59, 127
2, 136895, Note_on_c, 10, 57, 127
2, 136895, Note_on_c, 0, 72, 127
2, 137041, Note_off_c, 0, 72, 127
2, 137041, Note_off_c, 10, 57, 127
2, 137043, Note_on_c, 0, 60, 127
2, 137043, Note_on_c, 4, 76, 127
2, 137189, Note_off_c, 4, 76, 127
2, 137189, Note_off_c, 0, 60, 127
2, 137191, Note_on_c, 12, 59, 127
2, 137191, Note_on_c, 2, 74, 127
2, 137337, Note_off_c, 2, 74, 127
2, 137337, Note_off_c, 12, 59, 127
2, 137339, Note_on_c, 2, 62, 127
2, 137339, Note_on_c, 5, 77, 127
2, 137485, Note_off_c, 5, 77, 127
2, 137485, Note_off_c, 2, 62, 127
2, 137487, Note_on_c, 7, 55, 127
2, 137487, Note_on_c, 12, 71, 127
2, 137633, Note_off_c, 12, 71, 127
2, 137633, Note_off_c, 7, 55, 127
2, 137635, Note_on_c, 12, 59, 127
2, 137635, Note_on_c, 2, 74, 127
2, 137781, Note_off_c, 2, 74, 127
2, 137781, Note_off_c, 12, 59, 127
2, 137783, Note_on_c, 10, 57, 127
2, 137783, Note_on_c, 0, 72, 127
2, 137929, Note_off_c, 0, 72, 127
2, 137929, Note_off_c, 10, 57, 127
2, 137931, Note_on_c, 0, 60, 127
2, 137931, Note_on_c, 4, 76, 127
2, 138077, Note_off_c, 4, 76, 127
2, 138077, Note_off_c, 0, 60, 127
2, 138079, Note_on_c, 12, 59, 127
2, 138079, Note_on_c, 2, 74, 127
2, 138225, Note_off_c, 2, 74, 127
2, 138225, Note_off_c, 12, 59, 127
2, 138227, Note_on_c, 2, 62, 127
2, 138227, Note_on_c, 5, 77, 127
2, 138373, Note_off_c, 5, 77, 127
2, 138373, Note_off_c, 2, 62, 127
2, 138375, Note_on_c, 0, 60, 127
2, 138375, Note_on_c, 4, 76, 127
2, 138523, Note_off_c, 7, 79, 127
2, 138525, Note_on_c, 0, 84, 127
2, 138673, Note_off_c, 4, 76, 127
2, 138675, Note_on_c, 4, 76, 127
2, 138823, Note_off_c, 0, 84, 127
2, 138823, Note_off_c, 0, 60, 127
2, 138825, Note_on_c, 0, 48, 127
2, 138825, Note_on_c, 7, 79, 127
2, 138973, Note_off_c, 7, 79, 127
2, 138973, Note_off_c, 0, 48, 127
2, 138975, Note_on_c, 5, 53, 127
2, 138975, Note_on_c, 10, 81, 127
2, 139123, Note_off_c, 5, 53, 127
2, 139123, Note_off_c, 4, 76, 127
2, 139125, Note_on_c, 10, 57, 127
2, 139125, Note_on_c, 0, 72, 127
2, 139273, Note_off_c, 0, 72, 127
2, 139273, Note_off_c, 10, 57, 127
2, 139275, Note_on_c, 12, 59, 127
2, 139275, Note_on_c, 2, 74, 127
2, 139423, Note_off_c, 12, 59, 127
2, 139423, Note_off_c, 10, 81, 127
2, 139425, Note_on_c, 2, 50, 127
2, 139425, Note_on_c, 5, 77, 127
2, 139573, Note_off_c, 5, 77, 127
2, 139573, Note_off_c, 2, 50, 127
2, 139575, Note_on_c, 4, 52, 127
2, 139575, Note_on_c, 7, 79, 127
2, 139723, Note_off_c, 4, 52, 127
2, 139723, Note_off_c, 2, 74, 127
2, 139725, Note_on_c, 7, 55, 127
2, 139725, Note_on_c, 7, 67, 127
2, 139873, Note_off_c, 7, 67, 127
2, 139873, Note_off_c, 7, 55, 127
2, 139875, Note_on_c, 10, 57, 127
2, 139875, Note_on_c, 0, 72, 127
2, 140023, Note_off_c, 10, 57, 127
2, 140023, Note_off_c, 7, 79, 127
2, 140025, Note_on_c, 0, 48, 127
2, 140025, Note_on_c, 4, 76, 127
2, 140173, Note_off_c, 4, 76, 127
2, 140173, Note_off_c, 0, 48, 127
2, 140175, Note_on_c, 2, 50, 127
2, 140175, Note_on_c, 5, 77, 127
2, 140323, Note_off_c, 5, 77, 127
2, 140323, Note_off_c, 2, 50, 127
2, 140325, Note_on_c, 5, 53, 127
2, 140325, Note_on_c, 10, 81, 127
2, 140473, Note_off_c, 10, 81, 127
2, 140473, Note_off_c, 5, 53, 127
2, 140473, Note_off_c, 0, 72, 127
2, 140475, Note_on_c, 7, 55, 127
2, 140475, Note_on_c, 12, 71, 127
2, 140475, Note_on_c, 2, 74, 127
2, 140623, Note_off_c, 2, 74, 127
2, 140623, Note_off_c, 7, 55, 127
2, 140625, Note_on_c, 7, 43, 127
2, 140625, Note_on_c, 5, 77, 127
2, 140771, Note_off_c, 12, 71, 127
2, 140773, Note_off_c, 5, 77, 127
2, 140773, Note_off_c, 7, 43, 127
2, 140775, Note_on_c, 0, 48, 127
2, 140775, Note_on_c, 4, 76, 127
2, 140923, Note_off_c, 0, 48, 127
2, 140925, Note_on_c, 2, 50, 127
2, 140925, Note_on_c, 12, 71, 127
2, 141073, Note_off_c, 12, 71, 127
2, 141073, Note_off_c, 2, 50, 127
2, 141075, Note_on_c, 4, 52, 127
2, 141075, Note_on_c, 0, 72, 127
2, 141223, Note_off_c, 0, 72, 127
2, 141223, Note_off_c, 4, 52, 127
2, 141225, Note_on_c, 0, 48, 127
2, 141225, Note_on_c, 7, 67, 127
2, 141373, Note_off_c, 7, 67, 127
2, 141373, Note_off_c, 0, 48, 127
2, 141375, Note_on_c, 5, 53, 127
2, 141375, Note_on_c, 10, 69, 127
2, 141523, Note_off_c, 5, 53, 127
2, 141523, Note_off_c, 4, 76, 127
2, 141525, Note_on_c, 10, 57, 127
2, 141525, Note_on_c, 0, 72, 127
2, 141673, Note_off_c, 0, 72, 127
2, 141673, Note_off_c, 10, 57, 127
2, 141675, Note_on_c, 12, 47, 127
2, 141675, Note_on_c, 2, 74, 127
2, 141823, Note_off_c, 12, 47, 127
2, 141823, Note_off_c, 10, 69, 127
2, 141825, Note_on_c, 2, 50, 127
2, 141825, Note_on_c, 5, 65, 127
2, 141973, Note_off_c, 5, 65, 127
2, 141973, Note_off_c, 2, 50, 127
2, 141975, Note_on_c, 4, 52, 127
2, 141975, Note_on_c, 7, 67, 127
2, 142123, Note_off_c, 4, 52, 127
2, 142123, Note_off_c, 2, 74, 127
2, 142125, Note_on_c, 7, 55, 127
2, 142125, Note_on_c, 12, 71, 127
2, 142273, Note_off_c, 12, 71, 127
2, 142273, Note_off_c, 7, 55, 127
2, 142275, Note_on_c, 10, 45, 127
2, 142275, Note_on_c, 0, 72, 127
2, 142423, Note_off_c, 10, 45, 127
2, 142423, Note_off_c, 7, 67, 127
2, 142425, Note_on_c, 0, 48, 127
2, 142425, Note_on_c, 4, 64, 127
2, 142573, Note_off_c, 4, 64, 127
2, 142573, Note_off_c, 0, 48, 127
2, 142575, Note_on_c, 2, 50, 127
2, 142575, Note_on_c, 5, 65, 127
2, 142723, Note_off_c, 5, 65, 127
2, 142723, Note_off_c, 2, 50, 127
2, 142723, Note_off_c, 0, 72, 127
2, 142725, Note_on_c, 5, 53, 127
2, 142725, Note_on_c, 10, 69, 127
2, 142873, Note_off_c, 10, 69, 127
2, 142873, Note_off_c, 5, 53, 127
2, 142875, Note_on_c, 7, 43, 127
2, 142875, Note_on_c, 2, 62, 127
2, 142875, Note_on_c, 12, 71, 127
2, 143023, Note_off_c, 2, 62, 127
2, 143023, Note_off_c, 7, 43, 127
2, 143025, Note_on_c, 7, 55, 127
2, 143025, Note_on_c, 5, 65, 127
2, 143173, Note_off_c, 5, 65, 127
2, 143173, Note_off_c, 7, 55, 127
2, 143173, Note_off_c, 12, 71, 127
2, 143175, Note_on_c, 0, 48, 127
2, 143175, Note_on_c, 4, 64, 127
2, 143175, Note_on_c, 0, 72, 127
2, 143323, Note_off_c, 0, 48, 127
2, 143325, Note_on_c, 4, 52, 127
2, 143473, Note_off_c, 4, 52, 127
2, 143475, Note_on_c, 0, 48, 127
2, 143612, Note_off_c, 4, 64, 127
2, 143623, Note_off_c, 0, 48, 127
2, 143623, Note_off_c, 0, 72, 127
2, 143625, Note_on_c, 10, 45, 127
2, 143625, Note_on_c, 4, 76, 127
2, 143773, Note_off_c, 4, 76, 127
2, 143773, Note_off_c, 10, 45, 127
2, 143775, Note_on_c, 2, 50, 127
2, 143775, Note_on_c, 5, 77, 127
2, 143923, Note_off_c, 2, 50, 127
2, 143925, Note_on_c, 5, 53, 127
2, 143925, Note_on_c, 10, 69, 127
2, 144073, Note_off_c, 10, 69, 127
2, 144073, Note_off_c, 5, 53, 127
2, 144075, Note_on_c, 7, 55, 127
2, 144075, Note_on_c, 12, 71, 127
2, 144223, Note_off_c, 7, 55, 127
2, 144223, Note_off_c, 5, 77, 127
2, 144225, Note_on_c, 12, 47, 127
2, 144225, Note_on_c, 2, 74, 127
2, 144373, Note_off_c, 2, 74, 127
2, 144373, Note_off_c, 12, 47, 127
2, 144375, Note_on_c, 0, 48, 127
2, 144375, Note_on_c, 4, 76, 127
2, 144523, Note_off_c, 0, 48, 127
2, 144523, Note_off_c, 12, 71, 127
2, 144525, Note_on_c, 4, 52, 127
2, 144525, Note_on_c, 4, 64, 127
2, 144673, Note_off_c, 4, 64, 127
2, 144673, Note_off_c, 4, 52, 127
2, 144675, Note_on_c, 5, 53, 127
2, 144675, Note_on_c, 10, 69, 127
2, 144823, Note_off_c, 5, 53, 127
2, 144823, Note_off_c, 4, 76, 127
2, 144825, Note_on_c, 10, 45, 127
2, 144825, Note_on_c, 0, 72, 127
2, 144973, Note_off_c, 0, 72, 127
2, 144973, Note_off_c, 10, 45, 127
2, 144975, Note_on_c, 12, 47, 127
2, 144975, Note_on_c, 2, 74, 127
2, 145123, Note_off_c, 2, 74, 127
2, 145123, Note_off_c, 12, 47, 127
2, 145125, Note_on_c, 2, 50, 127
2, 145125, Note_on_c, 5, 77, 127
2, 145273, Note_off_c, 5, 77, 127
2, 145273, Note_off_c, 2, 50, 127
2, 145273, Note_off_c, 10, 69, 127
2, 145275, Note_on_c, 4, 52, 127
2, 145275, Note_on_c, 8, 68, 127
2, 145275, Note_on_c, 12, 71, 127
2, 145423, Note_off_c, 12, 71, 127
2, 145423, Note_off_c, 4, 52, 127
2, 145425, Note_on_c, 4, 40, 127
2, 145425, Note_on_c, 2, 74, 127
2, 145571, Note_off_c, 8, 68, 127
2, 145573, Note_off_c, 2, 74, 127
2, 145573, Note_off_c, 4, 40, 127
2, 145575, Note_on_c, 10, 45, 127
2, 145575, Note_on_c, 0, 72, 127
2, 145723, Note_off_c, 10, 45, 127
2, 145725, Note_on_c, 12, 47, 127
2, 145725, Note_on_c, 8, 68, 127
2, 145873, Note_off_c, 8, 68, 127
2, 145873, Note_off_c, 12, 47, 127
2, 145875, Note_on_c, 0, 48, 127
2, 145875, Note_on_c, 10, 69, 127
2, 146023, Note_off_c, 10, 69, 127
2, 146023, Note_off_c, 0, 48, 127
2, 146025, Note_on_c, 10, 45, 127
2, 146025, Note_on_c, 4, 64, 127
2, 146173, Note_off_c, 4, 64, 127
2, 146173, Note_off_c, 10, 45, 127
2, 146175, Note_on_c, 2, 50, 127
2, 146175, Note_on_c, 5, 65, 127
2, 146323, Note_off_c, 2, 50, 127
2, 146323, Note_off_c, 0, 72, 127
2, 146325, Note_on_c, 5, 53, 127
2, 146325, Note_on_c, 10, 69, 127
2, 146473, Note_off_c, 10, 69, 127
2, 146473, Note_off_c, 5, 53, 127
2, 146475, Note_on_c, 7, 43, 127
2, 146475, Note_on_c, 12, 71, 127
2, 146623, Note_off_c, 7, 43, 127
2, 146623, Note_off_c, 5, 65, 127
2, 146625, Note_on_c, 12, 47, 127
2, 146625, Note_on_c, 2, 62, 127
2, 146773, Note_off_c, 2, 62, 127
2, 146773, Note_off_c, 12, 47, 127
2, 146775, Note_on_c, 0, 48, 127
2, 146775, Note_on_c, 4, 64, 127
2, 146923, Note_off_c, 0, 48, 127
2, 146923, Note_off_c, 12, 71, 127
2, 146925, Note_on_c, 4, 52, 127
2, 146925, Note_on_c, 8, 68, 127
2, 147073, Note_off_c, 8, 68, 127
2, 147073, Note_off_c, 4, 52, 127
2, 147075, Note_on_c, 5, 41, 127
2, 147075, Note_on_c, 10, 69, 127
2, 147223, Note_off_c, 5, 41, 127
2, 147223, Note_off_c, 4, 64, 127
2, 147225, Note_on_c, 10, 45, 127
2, 147225, Note_on_c, 0, 60, 127
2, 147373, Note_off_c, 0, 60, 127
2, 147373, Note_off_c, 10, 45, 127
2, 147375, Note_on_c, 12, 47, 127
2, 147375, Note_on_c, 2, 62, 127
2, 147523, Note_off_c, 2, 62, 127
2, 147523, Note_off_c, 12, 47, 127
2, 147525, Note_on_c, 2, 50, 127
2, 147525, Note_on_c, 5, 65, 127
2, 147673, Note_off_c, 5, 65, 127
2, 147673, Note_off_c, 2, 50, 127
2, 147673, Note_off_c, 10, 69, 127
2, 147675, Note_on_c, 4, 40, 127
2, 147675, Note_on_c, 12, 59, 127
2, 147675, Note_on_c, 8, 68, 127
2, 147823, Note_off_c, 12, 59, 127
2, 147823, Note_off_c, 4, 40, 127
2, 147825, Note_on_c, 4, 52, 127
2, 147825, Note_on_c, 2, 62, 127
2, 147973, Note_off_c, 2, 62, 127
2, 147973, Note_off_c, 4, 52, 127
2, 147973, Note_off_c, 8, 68, 127
2, 147975, Note_on_c, 10, 45, 127
2, 147975, Note_on_c, 0, 60, 127
2, 147975, Note_on_c, 10, 69, 127
2, 148269, Note_off_c, 10, 45, 127
2, 148271, Note_on_c, 0, 48, 127
2, 148271, Note_on_c, 10, 57, 127
2, 148417, Note_off_c, 0, 48, 127
2, 148419, Note_on_c, 12, 47, 127
2, 148561, Note_off_c, 10, 69, 127
2, 148561, Note_off_c, 0, 60, 127
2, 148566, Note_off_c, 12, 47, 127
2, 148566, Note_off_c, 10, 57, 127
2, 148568, Note_on_c, 10, 45, 127
2, 148568, Note_on_c, 10, 57, 127
2, 148714, Note_off_c, 10, 45, 127
2, 148716, Note_on_c, 8, 44, 127
2, 148862, Note_off_c, 8, 44, 127
2, 148862, Note_off_c, 10, 57, 127
2, 148864, Note_on_c, 6, 42, 127
2, 148864, Note_on_c, 10, 57, 127
2, 149010, Note_off_c, 6, 42, 127
2, 149012, Note_on_c, 4, 40, 127
2, 149158, Note_off_c, 4, 40, 127
2, 149158, Note_off_c, 10, 57, 127
2, 149160, Note_on_c, 12, 47, 127
2, 149160, Note_on_c, 10, 57, 127
2, 149306, Note_off_c, 10, 57, 127
2, 149308, Note_on_c, 0, 60, 127
2, 149454, Note_off_c, 0, 60, 127
2, 149454, Note_off_c, 12, 47, 127
2, 149456, Note_on_c, 3, 39, 127
2, 149456, Note_on_c, 12, 59, 127
2, 149602, Note_off_c, 12, 59, 127
2, 149604, Note_on_c, 10, 57, 127
2, 149750, Note_off_c, 10, 57, 127
2, 149750, Note_off_c, 3, 39, 127
2, 149752, Note_on_c, 4, 40, 127
2, 149752, Note_on_c, 7, 55, 127
2, 149898, Note_off_c, 7, 55, 127
2, 149898, Note_off_c, 4, 40, 127
2, 149900, Note_on_c, 3, 39, 127
2, 149900, Note_on_c, 10, 57, 127
2, 150046, Note_off_c, 10, 57, 127
2, 150046, Note_off_c, 3, 39, 127
2, 150048, Note_on_c, 4, 40, 127
2, 150048, Note_on_c, 7, 55, 127
2, 150194, Note_off_c, 7, 55, 127
2, 150194, Note_off_c, 4, 40, 127
2, 150196, Note_on_c, 6, 42, 127
2, 150196, Note_on_c, 6, 54, 127
2, 150342, Note_off_c, 6, 54, 127
2, 150342, Note_off_c, 6, 42, 127
2, 150344, Note_on_c, 4, 40, 127
2, 150344, Note_on_c, 4, 52, 127
2, 150490, Note_off_c, 4, 40, 127
2, 150492, Note_on_c, 6, 54, 127
2, 150638, Note_off_c, 6, 54, 127
2, 150638, Note_off_c, 4, 52, 127
2, 150640, Note_on_c, 4, 52, 127
2, 150640, Note_on_c, 0, 60, 127
2, 150786, Note_off_c, 4, 52, 127
2, 150788, Note_on_c, 3, 51, 127
2, 150934, Note_off_c, 3, 51, 127
2, 150934, Note_off_c, 0, 60, 127
2, 150936, Note_on_c, 4, 52, 127
2, 150936, Note_on_c, 0, 60, 127
2, 151082, Note_off_c, 0, 60, 127
2, 151084, Note_on_c, 2, 62, 127
2, 151230, Note_off_c, 2, 62, 127
2, 151230, Note_off_c, 4, 52, 127
2, 151232, Note_on_c, 10, 57, 127
2, 151232, Note_on_c, 0, 60, 127
2, 151378, Note_off_c, 0, 60, 127
2, 151380, Note_on_c, 2, 62, 127
2, 151526, Note_off_c, 2, 62, 127
2, 151528, Note_on_c, 12, 59, 127
2, 151674, Note_off_c, 10, 57, 127
2, 151676, Note_on_c, 10, 57, 127
2, 151822, Note_off_c, 10, 57, 127
2, 151822, Note_off_c, 12, 59, 127
2, 151824, Note_on_c, 7, 55, 127
2, 151824, Note_on_c, 4, 64, 127
2, 151970, Note_off_c, 7, 55, 127
2, 151972, Note_on_c, 6, 54, 127
2, 152118, Note_off_c, 6, 54, 127
2, 152118, Note_off_c, 4, 64, 127
2, 152120, Note_on_c, 7, 55, 127
2, 152120, Note_on_c, 4, 64, 127
2, 152266, Note_off_c, 4, 64, 127
2, 152268, Note_on_c, 5, 65, 127
2, 152414, Note_off_c, 5, 65, 127
2, 152414, Note_off_c, 7, 55, 127
2, 152416, Note_on_c, 0, 60, 127
2, 152416, Note_on_c, 4, 64, 127
2, 152562, Note_off_c, 4, 64, 127
2, 152564, Note_on_c, 5, 65, 127
2, 152710, Note_off_c, 5, 65, 127
2, 152710, Note_off_c, 0, 60, 127
2, 152712, Note_on_c, 6, 54, 127
2, 152712, Note_on_c, 2, 62, 127
2, 152858, Note_off_c, 2, 62, 127
2, 152860, Note_on_c, 4, 64, 127
2, 153006, Note_off_c, 4, 64, 127
2, 153006, Note_off_c, 6, 54, 127
2, 153008, Note_on_c, 12, 59, 127
2, 153008, Note_on_c, 2, 62, 127
2, 153154, Note_off_c, 2, 62, 127
2, 153156, Note_on_c, 4, 64, 127
2, 153302, Note_off_c, 4, 64, 127
2, 153304, Note_on_c, 0, 60, 127
2, 153450, Note_off_c, 0, 60, 127
2, 153452, Note_on_c, 2, 62, 127
2, 153598, Note_off_c, 2, 62, 127
2, 153598, Note_off_c, 12, 59, 127
2, 153600, Note_on_c, 10, 57, 127
2, 153600, Note_on_c, 0, 60, 127
2, 153746, Note_off_c, 0, 60, 127
2, 153748, Note_on_c, 2, 62, 127
2, 153894, Note_off_c, 2, 62, 127
2, 153894, Note_off_c, 10, 57, 127
2, 153896, Note_on_c, 2, 50, 127
2, 153896, Note_on_c, 12, 59, 127
2, 154042, Note_off_c, 12, 59, 127
2, 154044, Note_on_c, 0, 60, 127
2, 154173, Note_off_c, 2, 50, 127
2, 154190, Note_off_c, 0, 60, 127
2, 154192, Note_on_c, 7, 55, 127
2, 154192, Note_on_c, 12, 59, 127
2, 154338, Note_off_c, 12, 59, 127
2, 154340, Note_on_c, 0, 60, 127
2, 154486, Note_off_c, 0, 60, 127
2, 154488, Note_on_c, 10, 57, 127
2, 154634, Note_off_c, 10, 57, 127
2, 154636, Note_on_c, 12, 59, 127
2, 154782, Note_off_c, 12, 59, 127
2, 154782, Note_off_c, 7, 55, 127
2, 154784, Note_on_c, 6, 54, 127
2, 154784, Note_on_c, 10, 57, 127
2, 154930, Note_off_c, 10, 57, 127
2, 154932, Note_on_c, 12, 59, 127
2, 155078, Note_off_c, 12, 59, 127
2, 155078, Note_off_c, 6, 54, 127
2, 155080, Note_on_c, 12, 47, 127
2, 155080, Note_on_c, 7, 55, 127
2, 155226, Note_off_c, 7, 55, 127
2, 155228, Note_on_c, 10, 57, 127
2, 155357, Note_off_c, 12, 47, 127
2, 155374, Note_off_c, 10, 57, 127
2, 155376, Note_on_c, 4, 52, 127
2, 155376, Note_on_c, 7, 55, 127
2, 155522, Note_off_c, 7, 55, 127
2, 155524, Note_on_c, 10, 57, 127
2, 155670, Note_off_c, 10, 57, 127
2, 155672, Note_on_c, 6, 54, 127
2, 155818, Note_off_c, 6, 54, 127
2, 155820, Note_on_c, 7, 55, 127
2, 155966, Note_off_c, 7, 55, 127
2, 155966, Note_off_c, 4, 52, 127
2, 155968, Note_on_c, 3, 51, 127
2, 155968, Note_on_c, 6, 54, 127
2, 156114, Note_off_c, 6, 54, 127
2, 156116, Note_on_c, 7, 55, 127
2, 156262, Note_off_c, 7, 55, 127
2, 156262, Note_off_c, 3, 51, 127
2, 156264, Note_on_c, 4, 52, 127
2, 156412, Note_on_c, 7, 55, 127
2, 156557, Note_off_c, 4, 52, 127
2, 156559, Note_off_c, 7, 55, 127
2, 156561, Note_on_c, 6, 54, 127
2, 156707, Note_off_c, 6, 54, 127
2, 156709, Note_on_c, 10, 57, 127
2, 156855, Note_off_c, 10, 57, 127
2, 156857, Note_on_c, 4, 40, 127
2, 156857, Note_on_c, 7, 55, 127
2, 157003, Note_off_c, 7, 55, 127
2, 157003, Note_off_c, 4, 40, 127
2, 157005, Note_on_c, 7, 43, 127
2, 157005, Note_on_c, 12, 59, 127
2, 157151, Note_off_c, 12, 59, 127
2, 157151, Note_off_c, 7, 43, 127
2, 157153, Note_on_c, 6, 42, 127
2, 157153, Note_on_c, 10, 57, 127
2, 157299, Note_off_c, 10, 57, 127
2, 157299, Note_off_c, 6, 42, 127
2, 157301, Note_on_c, 10, 45, 127
2, 157301, Note_on_c, 0, 60, 127
2, 157447, Note_off_c, 0, 60, 127
2, 157447, Note_off_c, 10, 45, 127
2, 157449, Note_on_c, 7, 43, 127
2, 157449, Note_on_c, 12, 59, 127
2, 157595, Note_off_c, 12, 59, 127
2, 157595, Note_off_c, 7, 43, 127
2, 157597, Note_on_c, 12, 47, 127
2, 157597, Note_on_c, 7, 55, 127
2, 157743, Note_off_c, 7, 55, 127
2, 157743, Note_off_c, 12, 47, 127
2, 157745, Note_on_c, 10, 45, 127
2, 157745, Note_on_c, 6, 54, 127
2, 157891, Note_off_c, 6, 54, 127
2, 157891, Note_off_c, 10, 45, 127
2, 157893, Note_on_c, 0, 48, 127
2, 157893, Note_on_c, 10, 57, 127
2, 158039, Note_off_c, 10, 57, 127
2, 158039, Note_off_c, 0, 48, 127
2, 158041, Note_on_c, 12, 47, 127
2, 158041, Note_on_c, 7, 55, 127
2, 158187, Note_off_c, 7, 55, 127
2, 158187, Note_off_c, 12, 47, 127
2, 158189, Note_on_c, 7, 43, 127
2, 158189, Note_on_c, 12, 59, 127
2, 158335, Note_off_c, 12, 59, 127
2, 158335, Note_off_c, 7, 43, 127
2, 158337, Note_on_c, 6, 42, 127
2, 158337, Note_on_c, 10, 57, 127
2, 158483, Note_off_c, 10, 57, 127
2, 158483, Note_off_c, 6, 42, 127
2, 158485, Note_on_c, 10, 45, 127
2, 158485, Note_on_c, 0, 60, 127
2, 158631, Note_off_c, 0, 60, 127
2, 158631, Note_off_c, 10, 45, 127
2, 158633, Note_on_c, 7, 43, 127
2, 158633, Note_on_c, 12, 59, 127
2, 158779, Note_off_c, 12, 59, 127
2, 158779, Note_off_c, 7, 43, 127
2, 158781, Note_on_c, 12, 47, 127
2, 158781, Note_on_c, 2, 62, 127
2, 158927, Note_off_c, 2, 62, 127
2, 158927, Note_off_c, 12, 47, 127
2, 158929, Note_on_c, 10, 45, 127
2, 158929, Note_on_c, 0, 60, 127
2, 159075, Note_off_c, 0, 60, 127
2, 159075, Note_off_c, 10, 45, 127
2, 159077, Note_on_c, 0, 48, 127
2, 159077, Note_on_c, 4, 64, 127
2, 159223, Note_off_c, 4, 64, 127
2, 159223, Note_off_c, 0, 48, 127
2, 159225, Note_on_c, 12, 47, 127
2, 159225, Note_on_c, 2, 62, 127
2, 159371, Note_off_c, 2, 62, 127
2, 159371, Note_off_c, 12, 47, 127
2, 159373, Note_on_c, 2, 50, 127
2, 159373, Note_on_c, 12, 59, 127
2, 159519, Note_off_c, 12, 59, 127
2, 159519, Note_off_c, 2, 50, 127
2, 159521, Note_on_c, 0, 48, 127
2, 159521, Note_on_c, 10, 57, 127
2, 159667, Note_off_c, 10, 57, 127
2, 159667, Note_off_c, 0, 48, 127
2, 159669, Note_on_c, 4, 52, 127
2, 159669, Note_on_c, 0, 60, 127
2, 159815, Note_off_c, 0, 60, 127
2, 159815, Note_off_c, 4, 52, 127
2, 159817, Note_on_c, 2, 50, 127
2, 159817, Note_on_c, 12, 59, 127
2, 159963, Note_off_c, 12, 59, 127
2, 159963, Note_off_c, 2, 50, 127
2, 159965, Note_on_c, 12, 47, 127
2, 159965, Note_on_c, 2, 62, 127
2, 160111, Note_off_c, 2, 62, 127
2, 160111, Note_off_c, 12, 47, 127
2, 160113, Note_on_c, 10, 45, 127
2, 160113, Note_on_c, 0, 60, 127
2, 160259, Note_off_c, 0, 60, 127
2, 160259, Note_off_c, 10, 45, 127
2, 160261, Note_on_c, 0, 48, 127
2, 160261, Note_on_c, 4, 64, 127
2, 160407, Note_off_c, 4, 64, 127
2, 160407, Note_off_c, 0, 48, 127
2, 160409, Note_on_c, 12, 47, 127
2, 160409, Note_on_c, 2, 62, 127
2, 160555, Note_off_c, 2, 62, 127
2, 160555, Note_off_c, 12, 47, 127
2, 160557, Note_on_c, 2, 50, 127
2, 160557, Note_on_c, 5, 65, 127
2, 160703, Note_off_c, 5, 65, 127
2, 160703, Note_off_c, 2, 50, 127
2, 160705, Note_on_c, 1, 49, 127
2, 160705, Note_on_c, 4, 64, 127
2, 160851, Note_off_c, 4, 64, 127
2, 160851, Note_off_c, 1, 49, 127
2, 160853, Note_on_c, 4, 52, 127
2, 160853, Note_on_c, 7, 67, 127
2, 160999, Note_off_c, 7, 67, 127
2, 160999, Note_off_c, 4, 52, 127
2, 161001, Note_on_c, 2, 50, 127
2, 161001, Note_on_c, 5, 65, 127
2, 161147, Note_off_c, 5, 65, 127
2, 161147, Note_off_c, 2, 50, 127
2, 161149, Note_on_c, 5, 53, 127
2, 161149, Note_on_c, 2, 62, 127
2, 161295, Note_off_c, 2, 62, 127
2, 161295, Note_off_c, 5, 53, 127
2, 161297, Note_on_c, 4, 52, 127
2, 161297, Note_on_c, 1, 61, 127
2, 161443, Note_off_c, 1, 61, 127
2, 161443, Note_off_c, 4, 52, 127
2, 161445, Note_on_c, 7, 55, 127
2, 161445, Note_on_c, 4, 64, 127
2, 161591, Note_off_c, 4, 64, 127
2, 161591, Note_off_c, 7, 55, 127
2, 161593, Note_on_c, 5, 53, 127
2, 161593, Note_on_c, 2, 62, 127
2, 161739, Note_off_c, 2, 62, 127
2, 161739, Note_off_c, 5, 53, 127
2, 161741, Note_on_c, 2, 50, 127
2, 161741, Note_on_c, 5, 65, 127
2, 161887, Note_off_c, 5, 65, 127
2, 161887, Note_off_c, 2, 50, 127
2, 161889, Note_on_c, 1, 49, 127
2, 161889, Note_on_c, 4, 64, 127
2, 162035, Note_off_c, 4, 64, 127
2, 162035, Note_off_c, 1, 49, 127
2, 162037, Note_on_c, 4, 52, 127
2, 162037, Note_on_c, 7, 67, 127
2, 162183, Note_off_c, 7, 67, 127
2, 162183, Note_off_c, 4, 52, 127
2, 162185, Note_on_c, 2, 50, 127
2, 162185, Note_on_c, 6, 66, 127
2, 162331, Note_off_c, 6, 66, 127
2, 162331, Note_off_c, 2, 50, 127
2, 162333, Note_on_c, 6, 54, 127
2, 162333, Note_on_c, 10, 69, 127
2, 162479, Note_off_c, 10, 69, 127
2, 162479, Note_off_c, 6, 54, 127
2, 162481, Note_on_c, 4, 52, 127
2, 162481, Note_on_c, 8, 68, 127
2, 162627, Note_off_c, 8, 68, 127
2, 162627, Note_off_c, 4, 52, 127
2, 162629, Note_on_c, 8, 56, 127
2, 162629, Note_on_c, 12, 71, 127
2, 162775, Note_off_c, 12, 71, 127
2, 162775, Note_off_c, 8, 56, 127
2, 162777, Note_on_c, 6, 54, 127
2, 162777, Note_on_c, 10, 69, 127
2, 162923, Note_off_c, 10, 69, 127
2, 162923, Note_off_c, 6, 54, 127
2, 162925, Note_on_c, 10, 57, 127
2, 162925, Note_on_c, 0, 72, 127
2, 163071, Note_off_c, 0, 72, 127
2, 163071, Note_off_c, 10, 57, 127
2, 163073, Note_on_c, 8, 56, 127
2, 163073, Note_on_c, 12, 71, 127
2, 163219, Note_off_c, 12, 71, 127
2, 163219, Note_off_c, 8, 56, 127
2, 163221, Note_on_c, 12, 59, 127
2, 163221, Note_on_c, 2, 74, 127
2, 163367, Note_off_c, 2, 74, 127
2, 163367, Note_off_c, 12, 59, 127
2, 163369, Note_on_c, 10, 57, 127
2, 163369, Note_on_c, 0, 72, 127
2, 163515, Note_off_c, 0, 72, 127
2, 163515, Note_off_c, 10, 57, 127
2, 163517, Note_on_c, 0, 60, 127
2, 163517, Note_on_c, 10, 69, 127
2, 163663, Note_off_c, 10, 69, 127
2, 163663, Note_off_c, 0, 60, 127
2, 163665, Note_on_c, 12, 59, 127
2, 163665, Note_on_c, 8, 68, 127
2, 163811, Note_off_c, 8, 68, 127
2, 163811, Note_off_c, 12, 59, 127
2, 163813, Note_on_c, 2, 62, 127
2, 163813, Note_on_c, 12, 71, 127
2, 163959, Note_off_c, 12, 71, 127
2, 163959, Note_off_c, 2, 62, 127
2, 163961, Note_on_c, 0, 60, 127
2, 163961, Note_on_c, 10, 69, 127
2, 164107, Note_off_c, 10, 69, 127
2, 164107, Note_off_c, 0, 60, 127
2, 164109, Note_on_c, 10, 57, 127
2, 164109, Note_on_c, 5, 65, 127
2, 164255, Note_off_c, 5, 65, 127
2, 164255, Note_off_c, 10, 57, 127
2, 164257, Note_on_c, 8, 56, 127
2, 164257, Note_on_c, 4, 64, 127
2, 164403, Note_off_c, 4, 64, 127
2, 164403, Note_off_c, 8, 56, 127
2, 164405, Note_on_c, 12, 59, 127
2, 164405, Note_on_c, 2, 62, 127
2, 164551, Note_off_c, 2, 62, 127
2, 164551, Note_off_c, 12, 59, 127
2, 164553, Note_on_c, 10, 57, 127
2, 164553, Note_on_c, 0, 60, 127
2, 164699, Note_off_c, 0, 60, 127
2, 164701, Note_on_c, 12, 59, 127
2, 164847, Note_off_c, 12, 59, 127
2, 164847, Note_off_c, 10, 57, 127
2, 164849, Note_on_c, 4, 52, 127
2, 164849, Note_on_c, 0, 60, 127
2, 164995, Note_off_c, 0, 60, 127
2, 164997, Note_on_c, 2, 62, 127
2, 165143, Note_off_c, 2, 62, 127
2, 165143, Note_off_c, 4, 52, 127
2, 165145, Note_on_c, 4, 52, 127
2, 165145, Note_on_c, 4, 64, 127
2, 165291, Note_off_c, 4, 64, 127
2, 165293, Note_on_c, 0, 60, 127
2, 165439, Note_off_c, 0, 60, 127
2, 165439, Note_off_c, 4, 52, 127
2, 165441, Note_on_c, 4, 52, 127
2, 165441, Note_on_c, 12, 59, 127
2, 165587, Note_off_c, 12, 59, 127
2, 165589, Note_on_c, 10, 57, 127
2, 165735, Note_off_c, 10, 57, 127
2, 165735, Note_off_c, 4, 52, 127
2, 165737, Note_on_c, 4, 52, 127
2, 165737, Note_on_c, 8, 56, 127
2, 165883, Note_off_c, 8, 56, 127
2, 165883, Note_off_c, 4, 52, 127
2, 165885, Note_on_c, 5, 53, 127
2, 165885, Note_on_c, 10, 57, 127
2, 166031, Note_off_c, 10, 57, 127
2, 166031, Note_off_c, 5, 53, 127
2, 166033, Note_on_c, 4, 52, 127
2, 166033, Note_on_c, 8, 56, 127
2, 166179, Note_off_c, 8, 56, 127
2, 166179, Note_off_c, 4, 52, 127
2, 166181, Note_on_c, 2, 50, 127
2, 166181, Note_on_c, 10, 57, 127
2, 166327, Note_off_c, 10, 57, 127
2, 166327, Note_off_c, 2, 50, 127
2, 166329, Note_on_c, 0, 48, 127
2, 166329, Note_on_c, 12, 59, 127
2, 166475, Note_off_c, 12, 59, 127
2, 166475, Note_off_c, 0, 48, 127
2, 166477, Note_on_c, 2, 50, 127
2, 166477, Note_on_c, 8, 56, 127
2, 166623, Note_off_c, 8, 56, 127
2, 166623, Note_off_c, 2, 50, 127
2, 166625, Note_on_c, 0, 48, 127
2, 166625, Note_on_c, 10, 57, 127
2, 166771, Note_off_c, 10, 57, 127
2, 166771, Note_off_c, 0, 48, 127
2, 166773, Note_on_c, 12, 47, 127
2, 166773, Note_on_c, 12, 59, 127
2, 166919, Note_off_c, 12, 59, 127
2, 166919, Note_off_c, 12, 47, 127
2, 166921, Note_on_c, 10, 45, 127
2, 166921, Note_on_c, 0, 60, 127
2, 167067, Note_off_c, 0, 60, 127
2, 167069, Note_on_c, 12, 59, 127
2, 167215, Note_off_c, 12, 59, 127
2, 167215, Note_off_c, 10, 45, 127
2, 167217, Note_on_c, 5, 53, 127
2, 167217, Note_on_c, 10, 57, 127
2, 167363, Note_off_c, 10, 57, 127
2, 167365, Note_on_c, 8, 56, 127
2, 167511, Note_off_c, 8, 56, 127
2, 167511, Note_off_c, 5, 53, 127
2, 167513, Note_on_c, 5, 53, 127
2, 167513, Note_on_c, 10, 57, 127
2, 167659, Note_off_c, 5, 53, 127
2, 167661, Note_on_c, 7, 55, 127
2, 167807, Note_off_c, 7, 55, 127
2, 167807, Note_off_c, 10, 57, 127
2, 167809, Note_on_c, 5, 53, 127
2, 167809, Note_on_c, 2, 62, 127
2, 167955, Note_off_c, 5, 53, 127
2, 167957, Note_on_c, 7, 55, 127
2, 168103, Note_off_c, 7, 55, 127
2, 168105, Note_on_c, 4, 52, 127
2, 168251, Note_off_c, 2, 62, 127
2, 168253, Note_on_c, 2, 62, 127
2, 168399, Note_off_c, 2, 62, 127
2, 168399, Note_off_c, 4, 52, 127
2, 168401, Note_on_c, 10, 57, 127
2, 168401, Note_on_c, 0, 60, 127
2, 168547, Note_off_c, 0, 60, 127
2, 168549, Note_on_c, 12, 59, 127
2, 168695, Note_off_c, 12, 59, 127
2, 168695, Note_off_c, 10, 57, 127
2, 168697, Note_on_c, 10, 57, 127
2, 168697, Note_on_c, 0, 60, 127
2, 168843, Note_off_c, 10, 57, 127
2, 168845, Note_on_c, 12, 59, 127
2, 168991, Note_off_c, 12, 59, 127
2, 168991, Note_off_c, 0, 60, 127
2, 168993, Note_on_c, 10, 57, 127
2, 168993, Note_on_c, 5, 65, 127
2, 169139, Note_off_c, 10, 57, 127
2, 169141, Note_on_c, 12, 59, 127
2, 169287, Note_off_c, 12, 59, 127
2, 169287, Note_off_c, 5, 65, 127
2, 169289, Note_on_c, 7, 55, 127
2, 169289, Note_on_c, 12, 59, 127
2, 169435, Note_off_c, 7, 55, 127
2, 169437, Note_on_c, 10, 57, 127
2, 169566, Note_off_c, 12, 59, 127
2, 169583, Note_off_c, 10, 57, 127
2, 169585, Note_on_c, 7, 55, 127
2, 169585, Note_on_c, 4, 64, 127
2, 169731, Note_off_c, 7, 55, 127
2, 169733, Note_on_c, 10, 57, 127
2, 169879, Note_off_c, 10, 57, 127
2, 169881, Note_on_c, 5, 53, 127
2, 170027, Note_off_c, 5, 53, 127
2, 170029, Note_on_c, 7, 55, 127
2, 170175, Note_off_c, 7, 55, 127
2, 170175, Note_off_c, 4, 64, 127
2, 170177, Note_on_c, 5, 53, 127
2, 170177, Note_on_c, 2, 62, 127
2, 170323, Note_off_c, 5, 53, 127
2, 170325, Note_on_c, 7, 55, 127
2, 170471, Note_off_c, 7, 55, 127
2, 170471, Note_off_c, 2, 62, 127
2, 170473, Note_on_c, 4, 52, 127
2, 170473, Note_on_c, 7, 55, 127
2, 170619, Note_off_c, 4, 52, 127
2, 170621, Note_on_c, 5, 53, 127
2, 170750, Note_off_c, 7, 55, 127
2, 170767, Note_off_c, 5, 53, 127
2, 170769, Note_on_c, 4, 52, 127
2, 170769, Note_on_c, 0, 60, 127
2, 170915, Note_off_c, 4, 52, 127
2, 170917, Note_on_c, 5, 53, 127
2, 171063, Note_off_c, 5, 53, 127
2, 171065, Note_on_c, 2, 50, 127
2, 171211, Note_off_c, 2, 50, 127
2, 171213, Note_on_c, 4, 52, 127
2, 171359, Note_off_c, 4, 52, 127
2, 171359, Note_off_c, 0, 60, 127
2, 171361, Note_on_c, 2, 50, 127
2, 171361, Note_on_c, 12, 59, 127
2, 171507, Note_off_c, 2, 50, 127
2, 171509, Note_on_c, 4, 52, 127
2, 171655, Note_off_c, 4, 52, 127
2, 171655, Note_off_c, 12, 59, 127
2, 171657, Note_on_c, 0, 48, 127
2, 171657, Note_on_c, 4, 52, 127
2, 171803, Note_off_c, 0, 48, 127
2, 171805, Note_on_c, 2, 50, 127
2, 171934, Note_off_c, 4, 52, 127
2, 171951, Note_off_c, 2, 50, 127
2, 171953, Note_on_c, 0, 48, 127
2, 171953, Note_on_c, 10, 57, 127
2, 172099, Note_off_c, 0, 48, 127
2, 172101, Note_on_c, 2, 50, 127
2, 172247, Note_off_c, 2, 50, 127
2, 172249, Note_on_c, 12, 47, 127
2, 172395, Note_off_c, 12, 47, 127
2, 172397, Note_on_c, 0, 48, 127
2, 172543, Note_off_c, 0, 48, 127
2, 172543, Note_off_c, 10, 57, 127
2, 172545, Note_on_c, 12, 47, 127
2, 172545, Note_on_c, 8, 56, 127
2, 172691, Note_off_c, 12, 47, 127
2, 172693, Note_on_c, 0, 48, 127
2, 172839, Note_off_c, 0, 48, 127
2, 172839, Note_off_c, 8, 56, 127
2, 172841, Note_on_c, 10, 45, 127
2, 172841, Note_on_c, 10, 57, 127
2, 172987, Note_off_c, 10, 45, 127
2, 172989, Note_on_c, 0, 48, 127
2, 173135, Note_off_c, 0, 48, 127
2, 173137, Note_on_c, 12, 47, 127
2, 173272, Note_off_c, 10, 57, 127
2, 173283, Note_off_c, 12, 47, 127
2, 173285, Note_on_c, 2, 50, 127
2, 173431, Note_off_c, 2, 50, 127
2, 173433, Note_on_c, 0, 48, 127
2, 173433, Note_on_c, 10, 57, 127
2, 173579, Note_off_c, 10, 57, 127
2, 173579, Note_off_c, 0, 48, 127
2, 173581, Note_on_c, 4, 52, 127
2, 173581, Note_on_c, 0, 60, 127
2, 173727, Note_off_c, 0, 60, 127
2, 173727, Note_off_c, 4, 52, 127
2, 173729, Note_on_c, 2, 50, 127
2, 173729, Note_on_c, 12, 59, 127
2, 173875, Note_off_c, 12, 59, 127
2, 173875, Note_off_c, 2, 50, 127
2, 173877, Note_on_c, 5, 53, 127
2, 173877, Note_on_c, 2, 62, 127
2, 174023, Note_off_c, 2, 62, 127
2, 174023, Note_off_c, 5, 53, 127
2, 174025, Note_on_c, 4, 52, 127
2, 174025, Note_on_c, 0, 60, 127
2, 174171, Note_off_c, 0, 60, 127
2, 174171, Note_off_c, 4, 52, 127
2, 174173, Note_on_c, 0, 48, 127
2, 174173, Note_on_c, 4, 64, 127
2, 174319, Note_off_c, 4, 64, 127
2, 174319, Note_off_c, 0, 48, 127
2, 174321, Note_on_c, 2, 50, 127
2, 174321, Note_on_c, 2, 62, 127
2, 174467, Note_off_c, 2, 62, 127
2, 174467, Note_off_c, 2, 50, 127
2, 174469, Note_on_c, 12, 47, 127
2, 174469, Note_on_c, 5, 65, 127
2, 174615, Note_off_c, 5, 65, 127
2, 174615, Note_off_c, 12, 47, 127
2, 174617, Note_on_c, 0, 48, 127
2, 174617, Note_on_c, 4, 64, 127
2, 174763, Note_off_c, 4, 64, 127
2, 174763, Note_off_c, 0, 48, 127
2, 174765, Note_on_c, 10, 45, 127
2, 174765, Note_on_c, 0, 60, 127
2, 174911, Note_off_c, 0, 60, 127
2, 174911, Note_off_c, 10, 45, 127
2, 174913, Note_on_c, 12, 47, 127
2, 174913, Note_on_c, 2, 62, 127
2, 175059, Note_off_c, 2, 62, 127
2, 175059, Note_off_c, 12, 47, 127
2, 175061, Note_on_c, 8, 44, 127
2, 175061, Note_on_c, 12, 59, 127
2, 175207, Note_off_c, 12, 59, 127
2, 175207, Note_off_c, 8, 44, 127
2, 175209, Note_on_c, 10, 45, 127
2, 175209, Note_on_c, 0, 60, 127
2, 175355, Note_off_c, 10, 45, 127
2, 175357, Note_on_c, 12, 47, 127
2, 175503, Note_off_c, 12, 47, 127
2, 175503, Note_off_c, 0, 60, 127
2, 175505, Note_on_c, 0, 48, 127
2, 175505, Note_on_c, 4, 64, 127
2, 175505, Note_on_c, 10, 69, 127
2, 175651, Note_off_c, 0, 48, 127
2, 175653, Note_on_c, 12, 47, 127
2, 175799, Note_off_c, 12, 47, 127
2, 175799, Note_off_c, 10, 69, 127
2, 175799, Note_off_c, 4, 64, 127
2, 175801, Note_on_c, 10, 45, 127
2, 175801, Note_on_c, 6, 66, 127
2, 175801, Note_on_c, 10, 69, 127
2, 175947, Note_off_c, 10, 45, 127
2, 175949, Note_on_c, 7, 43, 127
2, 176095, Note_off_c, 7, 43, 127
2, 176095, Note_off_c, 10, 69, 127
2, 176095, Note_off_c, 6, 66, 127
2, 176097, Note_on_c, 6, 42, 127
2, 176097, Note_on_c, 7, 67, 127
2, 176097, Note_on_c, 10, 69, 127
2, 176243, Note_off_c, 6, 42, 127
2, 176245, Note_on_c, 4, 40, 127
2, 176391, Note_off_c, 4, 40, 127
2, 176391, Note_off_c, 10, 69, 127
2, 176391, Note_off_c, 7, 67, 127
2, 176393, Note_on_c, 12, 47, 127
2, 176393, Note_on_c, 3, 63, 127
2, 176393, Note_on_c, 10, 69, 127
2, 176539, Note_off_c, 10, 69, 127
2, 176541, Note_on_c, 0, 72, 127
2, 176687, Note_off_c, 0, 72, 127
2, 176687, Note_off_c, 3, 63, 127
2, 176689, Note_on_c, 3, 51, 127
2, 176689, Note_on_c, 12, 71, 127
2, 176835, Note_off_c, 12, 71, 127
2, 176837, Note_on_c, 10, 69, 127
2, 176983, Note_off_c, 10, 69, 127
2, 176983, Note_off_c, 3, 51, 127
2, 176985, Note_on_c, 4, 52, 127
2, 176985, Note_on_c, 7, 67, 127
2, 177131, Note_off_c, 7, 67, 127
2, 177131, Note_off_c, 4, 52, 127
2, 177133, Note_on_c, 3, 51, 127
2, 177133, Note_on_c, 10, 69, 127
2, 177279, Note_off_c, 10, 69, 127
2, 177279, Note_off_c, 3, 51, 127
2, 177281, Note_on_c, 4, 52, 127
2, 177281, Note_on_c, 7, 67, 127
2, 177427, Note_off_c, 7, 67, 127
2, 177427, Note_off_c, 4, 52, 127
2, 177429, Note_on_c, 6, 54, 127
2, 177429, Note_on_c, 6, 66, 127
2, 177575, Note_off_c, 6, 66, 127
2, 177575, Note_off_c, 6, 54, 127
2, 177577, Note_on_c, 7, 55, 127
2, 177577, Note_on_c, 4, 64, 127
2, 177723, Note_off_c, 7, 55, 127
2, 177725, Note_on_c, 6, 54, 127
2, 177871, Note_off_c, 6, 54, 127
2, 177871, Note_off_c, 4, 64, 127
2, 177873, Note_on_c, 4, 52, 127
2, 177873, Note_on_c, 0, 72, 127
2, 178019, Note_off_c, 4, 52, 127
2, 178021, Note_on_c, 3, 51, 127
2, 178167, Note_off_c, 3, 51, 127
2, 178167, Note_off_c, 0, 72, 127
2, 178167, Note_off_c, 12, 47, 127
2, 178169, Note_on_c, 10, 45, 127
2, 178169, Note_on_c, 4, 52, 127
2, 178169, Note_on_c, 0, 72, 127
2, 178315, Note_off_c, 0, 72, 127
2, 178317, Note_on_c, 2, 74, 127
2, 178463, Note_off_c, 2, 74, 127
2, 178463, Note_off_c, 4, 52, 127
2, 178465, Note_on_c, 10, 57, 127
2, 178465, Note_on_c, 0, 72, 127
2, 178611, Note_off_c, 0, 72, 127
2, 178613, Note_on_c, 2, 74, 127
2, 178759, Note_off_c, 2, 74, 127
2, 178759, Note_off_c, 10, 45, 127
2, 178761, Note_on_c, 4, 52, 127
2, 178761, Note_on_c, 12, 71, 127
2, 178907, Note_off_c, 10, 57, 127
2, 178909, Note_on_c, 10, 57, 127
2, 179055, Note_off_c, 10, 57, 127
2, 179055, Note_off_c, 12, 71, 127
2, 179057, Note_on_c, 7, 55, 127
2, 179057, Note_on_c, 4, 76, 127
2, 179203, Note_off_c, 7, 55, 127
2, 179205, Note_on_c, 6, 54, 127
2, 179351, Note_off_c, 6, 54, 127
2, 179351, Note_off_c, 4, 76, 127
2, 179353, Note_on_c, 7, 55, 127
2, 179353, Note_on_c, 4, 76, 127
2, 179499, Note_off_c, 4, 76, 127
2, 179501, Note_on_c, 6, 78, 127
2, 179647, Note_off_c, 6, 78, 127
2, 179647, Note_off_c, 7, 55, 127
2, 179647, Note_off_c, 4, 52, 127
2, 179649, Note_on_c, 10, 57, 127
2, 179649, Note_on_c, 0, 60, 127
2, 179649, Note_on_c, 4, 76, 127
2, 179795, Note_off_c, 4, 76, 127
2, 179797, Note_on_c, 6, 78, 127
2, 179943, Note_off_c, 6, 78, 127
2, 179943, Note_off_c, 10, 57, 127
2, 179945, Note_on_c, 6, 54, 127
2, 179945, Note_on_c, 2, 74, 127
2, 180091, Note_off_c, 2, 74, 127
2, 180093, Note_on_c, 4, 76, 127
2, 180239, Note_off_c, 4, 76, 127
2, 180239, Note_off_c, 6, 54, 127
2, 180239, Note_off_c, 0, 60, 127
2, 180241, Note_on_c, 7, 55, 127
2, 180241, Note_on_c, 12, 59, 127
2, 180241, Note_on_c, 2, 74, 127
2, 180387, Note_off_c, 2, 74, 127
2, 180389, Note_on_c, 4, 76, 127
2, 180535, Note_off_c, 4, 76, 127
2, 180535, Note_off_c, 7, 55, 127
2, 180537, Note_on_c, 4, 52, 127
2, 180537, Note_on_c, 0, 72, 127
2, 180683, Note_off_c, 0, 72, 127
2, 180685, Note_on_c, 2, 74, 127
2, 180831, Note_off_c, 2, 74, 127
2, 180831, Note_off_c, 4, 52, 127
2, 180831, Note_off_c, 12, 59, 127
2, 180833, Note_on_c, 6, 54, 127
2, 180833, Note_on_c, 10, 57, 127
2, 180833, Note_on_c, 0, 72, 127
2, 180979, Note_off_c, 0, 72, 127
2, 180981, Note_on_c, 2, 74, 127
2, 181127, Note_off_c, 2, 74, 127
2, 181127, Note_off_c, 6, 54, 127
2, 181129, Note_on_c, 3, 51, 127
2, 181129, Note_on_c, 12, 71, 127
2, 181275, Note_off_c, 12, 71, 127
2, 181277, Note_on_c, 0, 72, 127
2, 181423, Note_off_c, 0, 72, 127
2, 181423, Note_off_c, 3, 51, 127
2, 181423, Note_off_c, 10, 57, 127
2, 181425, Note_on_c, 4, 52, 127
2, 181425, Note_on_c, 7, 55, 127
2, 181425, Note_on_c, 12, 71, 127
2, 181571, Note_off_c, 12, 71, 127
2, 181573, Note_on_c, 0, 72, 127
2, 181719, Note_off_c, 0, 72, 127
2, 181719, Note_off_c, 4, 52, 127
2, 181721, Note_on_c, 1, 49, 127
2, 181721, Note_on_c, 10, 69, 127
2, 181867, Note_off_c, 10, 69, 127
2, 181869, Note_on_c, 12, 71, 127
2, 182015, Note_off_c, 12, 71, 127
2, 182015, Note_off_c, 1, 49, 127
2, 182015, Note_off_c, 7, 55, 127
2, 182017, Note_on_c, 3, 51, 127
2, 182017, Note_on_c, 6, 54, 127
2, 182017, Note_on_c, 10, 69, 127
2, 182163, Note_off_c, 10, 69, 127
2, 182165, Note_on_c, 12, 71, 127
2, 182311, Note_off_c, 12, 71, 127
2, 182311, Note_off_c, 3, 51, 127
2, 182313, Note_on_c, 4, 52, 127
2, 182313, Note_on_c, 7, 67, 127
2, 182459, Note_off_c, 7, 67, 127
2, 182461, Note_on_c, 10, 69, 127
2, 182607, Note_off_c, 10, 69, 127
2, 182607, Note_off_c, 4, 52, 127
2, 182607, Note_off_c, 6, 54, 127
2, 182609, Note_on_c, 0, 48, 127
2, 182609, Note_on_c, 4, 52, 127
2, 182609, Note_on_c, 7, 67, 127
2, 182755, Note_off_c, 7, 67, 127
2, 182757, Note_on_c, 10, 69, 127
2, 182903, Note_off_c, 10, 69, 127
2, 182903, Note_off_c, 0, 48, 127
2, 182905, Note_on_c, 10, 45, 127
2, 182905, Note_on_c, 6, 66, 127
2, 183051, Note_off_c, 6, 66, 127
2, 183053, Note_on_c, 7, 67, 127
2, 183199, Note_off_c, 7, 67, 127
2, 183199, Note_off_c, 10, 45, 127
2, 183199, Note_off_c, 4, 52, 127
2, 183201, Note_on_c, 12, 47, 127
2, 183201, Note_on_c, 3, 51, 127
2, 183201, Note_on_c, 6, 66, 127
2, 183347, Note_off_c, 6, 66, 127
2, 183349, Note_on_c, 7, 67, 127
2, 183495, Note_off_c, 7, 67, 127
2, 183495, Note_off_c, 3, 51, 127
2, 183495, Note_off_c, 12, 47, 127
2, 183497, Note_on_c, 4, 40, 127
2, 183497, Note_on_c, 4, 52, 127
2, 183497, Note_on_c, 4, 64, 127
2, 183643, Note_off_c, 4, 64, 127
2, 183645, Note_on_c, 7, 67, 127
2, 183791, Note_off_c, 7, 67, 127
2, 183793, Note_on_c, 6, 66, 127
2, 183939, Note_off_c, 6, 66, 127
2, 183941, Note_on_c, 10, 69, 127
2, 184083, Note_off_c, 4, 40, 127
2, 184088, Note_off_c, 10, 69, 127
2, 184090, Note_on_c, 7, 67, 127
2, 184236, Note_off_c, 7, 67, 127
2, 184236, Note_off_c, 4, 52, 127
2, 184238, Note_on_c, 7, 55, 127
2, 184238, Note_on_c, 12, 71, 127
2, 184384, Note_off_c, 12, 71, 127
2, 184384, Note_off_c, 7, 55, 127
2, 184386, Note_on_c, 6, 54, 127
2, 184386, Note_on_c, 10, 69, 127
2, 184532, Note_off_c, 10, 69, 127
2, 184532, Note_off_c, 6, 54, 127
2, 184534, Note_on_c, 10, 57, 127
2, 184534, Note_on_c, 0, 72, 127
2, 184680, Note_off_c, 0, 72, 127
2, 184680, Note_off_c, 10, 57, 127
2, 184682, Note_on_c, 4, 52, 127
2, 184682, Note_on_c, 7, 55, 127
2, 184682, Note_on_c, 12, 71, 127
2, 184828, Note_off_c, 7, 55, 127
2, 184830, Note_on_c, 12, 59, 127
2, 184976, Note_off_c, 12, 59, 127
2, 184976, Note_off_c, 4, 52, 127
2, 184978, Note_on_c, 6, 54, 127
2, 184978, Note_on_c, 10, 57, 127
2, 185124, Note_off_c, 10, 57, 127
2, 185126, Note_on_c, 0, 60, 127
2, 185272, Note_off_c, 0, 60, 127
2, 185272, Note_off_c, 6, 54, 127
2, 185274, Note_on_c, 7, 55, 127
2, 185274, Note_on_c, 12, 59, 127
2, 185420, Note_off_c, 12, 59, 127
2, 185422, Note_on_c, 4, 64, 127
2, 185568, Note_off_c, 4, 64, 127
2, 185568, Note_off_c, 7, 55, 127
2, 185570, Note_on_c, 6, 54, 127
2, 185570, Note_on_c, 3, 63, 127
2, 185716, Note_off_c, 3, 63, 127
2, 185718, Note_on_c, 6, 66, 127
2, 185864, Note_off_c, 6, 66, 127
2, 185864, Note_off_c, 6, 54, 127
2, 185866, Note_on_c, 7, 55, 127
2, 185866, Note_on_c, 4, 64, 127
2, 186012, Note_off_c, 12, 71, 127
2, 186014, Note_on_c, 4, 76, 127
2, 186160, Note_off_c, 4, 76, 127
2, 186160, Note_off_c, 4, 64, 127
2, 186160, Note_off_c, 7, 55, 127
2, 186162, Note_on_c, 10, 57, 127
2, 186162, Note_on_c, 0, 60, 127
2, 186162, Note_on_c, 3, 75, 127
2, 186308, Note_off_c, 3, 75, 127
2, 186310, Note_on_c, 6, 78, 127
2, 186456, Note_off_c, 6, 78, 127
2, 186456, Note_off_c, 0, 60, 127
2, 186456, Note_off_c, 10, 57, 127
2, 186458, Note_on_c, 7, 55, 127
2, 186458, Note_on_c, 12, 59, 127
2, 186458, Note_on_c, 4, 76, 127
2, 186604, Note_off_c, 4, 76, 127
2, 186606, Note_on_c, 7, 79, 127
2, 186752, Note_off_c, 7, 79, 127
2, 186752, Note_off_c, 12, 59, 127
2, 186752, Note_off_c, 7, 55, 127
2, 186754, Note_on_c, 10, 57, 127
2, 186754, Note_on_c, 4, 64, 127
2, 186754, Note_on_c, 6, 78, 127
2, 186900, Note_off_c, 6, 78, 127
2, 186902, Note_on_c, 10, 81, 127
2, 187048, Note_off_c, 10, 81, 127
2, 187048, Note_off_c, 4, 64, 127
2, 187048, Note_off_c, 10, 57, 127
2, 187050, Note_on_c, 12, 59, 127
2, 187050, Note_on_c, 3, 63, 127
2, 187050, Note_on_c, 7, 79, 127
2, 187196, Note_off_c, 3, 63, 127
2, 187198, Note_on_c, 6, 66, 127
2, 187344, Note_off_c, 6, 66, 127
2, 187344, Note_off_c, 12, 59, 127
2, 187346, Note_on_c, 0, 60, 127
2, 187346, Note_on_c, 4, 64, 127
2, 187492, Note_off_c, 7, 79, 127
2, 187494, Note_on_c, 10, 81, 127
2, 187640, Note_off_c, 10, 81, 127
2, 187640, Note_off_c, 0, 60, 127
2, 187642, Note_on_c, 10, 57, 127
2, 187642, Note_on_c, 6, 78, 127
2, 187788, Note_off_c, 4, 64, 127
2, 187790, Note_on_c, 4, 64, 127
2, 187936, Note_off_c, 4, 64, 127
2, 187936, Note_off_c, 10, 57, 127
2, 187938, Note_on_c, 12, 59, 127
2, 187938, Note_on_c, 3, 63, 127
2, 188084, Note_off_c, 6, 78, 127
2, 188086, Note_on_c, 7, 79, 127
2, 188232, Note_off_c, 7, 79, 127
2, 188232, Note_off_c, 3, 63, 127
2, 188232, Note_off_c, 12, 59, 127
2, 188234, Note_on_c, 4, 52, 127
2, 188234, Note_on_c, 4, 64, 127
2, 188234, Note_on_c, 4, 76, 127
2, 188380, Note_off_c, 4, 76, 127
2, 188382, Note_on_c, 12, 71, 127
2, 188528, Note_off_c, 12, 71, 127
2, 188528, Note_off_c, 4, 64, 127
2, 188528, Note_off_c, 4, 52, 127
2, 188530, Note_on_c, 4, 64, 127
2, 188530, Note_on_c, 7, 67, 127
2, 188678, Note_on_c, 12, 71, 127
2, 188824, Note_off_c, 12, 71, 127
2, 188824, Note_off_c, 4, 64, 127
2, 188826, Note_on_c, 10, 57, 127
2, 188826, Note_on_c, 0, 72, 127
2, 188972, Note_off_c, 7, 67, 127
2, 188974, Note_on_c, 4, 64, 127
2, 189120, Note_off_c, 4, 64, 127
2, 189120, Note_off_c, 10, 57, 127
2, 189122, Note_on_c, 2, 62, 127
2, 189122, Note_on_c, 6, 66, 127
2, 189268, Note_off_c, 0, 72, 127
2, 189270, Note_on_c, 10, 69, 127
2, 189416, Note_off_c, 10, 69, 127
2, 189416, Note_off_c, 2, 62, 127
2, 189418, Note_on_c, 7, 55, 127
2, 189418, Note_on_c, 12, 71, 127
2, 189564, Note_off_c, 6, 66, 127
2, 189566, Note_on_c, 12, 59, 127
2, 189712, Note_off_c, 12, 59, 127
2, 189712, Note_off_c, 7, 55, 127
2, 189714, Note_on_c, 0, 60, 127
2, 189714, Note_on_c, 4, 64, 127
2, 189860, Note_off_c, 12, 71, 127
2, 189862, Note_on_c, 7, 67, 127
2, 190008, Note_off_c, 7, 67, 127
2, 190008, Note_off_c, 0, 60, 127
2, 190010, Note_on_c, 6, 54, 127
2, 190010, Note_on_c, 10, 69, 127
2, 190156, Note_off_c, 10, 69, 127
2, 190158, Note_on_c, 0, 72, 127
2, 190304, Note_off_c, 0, 72, 127
2, 190304, Note_off_c, 6, 54, 127
2, 190304, Note_off_c, 4, 64, 127
2, 190306, Note_on_c, 12, 59, 127
2, 190306, Note_on_c, 3, 63, 127
2, 190306, Note_on_c, 6, 66, 127
2, 190452, Note_off_c, 6, 66, 127
2, 190454, Note_on_c, 10, 69, 127
2, 190599, Note_off_c, 3, 63, 127
2, 190601, Note_off_c, 10, 69, 127
2, 190601, Note_off_c, 12, 59, 127
2, 190603, Note_on_c, 4, 52, 127
2, 190603, Note_on_c, 7, 67, 127
2, 190751, Note_on_c, 3, 63, 127
2, 190897, Note_off_c, 3, 63, 127
2, 190897, Note_off_c, 7, 67, 127
2, 190897, Note_off_c, 4, 52, 127
2, 190899, Note_on_c, 4, 52, 127
2, 190899, Note_on_c, 4, 64, 127
2, 190899, Note_on_c, 7, 79, 127
2, 191045, Note_off_c, 4, 64, 127
2, 191047, Note_on_c, 12, 59, 127
2, 191193, Note_off_c, 12, 59, 127
2, 191193, Note_off_c, 4, 52, 127
2, 191195, Note_on_c, 10, 57, 127
2, 191195, Note_on_c, 0, 60, 127
2, 191341, Note_off_c, 7, 79, 127
2, 191343, Note_on_c, 10, 81, 127
2, 191489, Note_off_c, 10, 81, 127
2, 191489, Note_off_c, 10, 57, 127
2, 191491, Note_on_c, 2, 50, 127
2, 191491, Note_on_c, 6, 78, 127
2, 191637, Note_off_c, 0, 60, 127
2, 191639, Note_on_c, 2, 62, 127
2, 191785, Note_off_c, 2, 62, 127
2, 191785, Note_off_c, 2, 50, 127
2, 191787, Note_on_c, 7, 55, 127
2, 191787, Note_on_c, 12, 59, 127
2, 191933, Note_off_c, 6, 78, 127
2, 191935, Note_on_c, 12, 71, 127
2, 192081, Note_off_c, 12, 71, 127
2, 192081, Note_off_c, 7, 55, 127
2, 192083, Note_on_c, 0, 48, 127
2, 192083, Note_on_c, 4, 76, 127
2, 192229, Note_off_c, 12, 59, 127
2, 192231, Note_on_c, 0, 60, 127
2, 192377, Note_off_c, 0, 60, 127
2, 192377, Note_off_c, 0, 48, 127
2, 192379, Note_on_c, 6, 54, 127
2, 192379, Note_on_c, 10, 57, 127
2, 192525, Note_off_c, 10, 57, 127
2, 192527, Note_on_c, 0, 60, 127
2, 192673, Note_off_c, 0, 60, 127
2, 192673, Note_off_c, 6, 54, 127
2, 192673, Note_off_c, 4, 76, 127
2, 192675, Note_on_c, 12, 47, 127
2, 192675, Note_on_c, 6, 54, 127
2, 192675, Note_on_c, 3, 75, 127
2, 192821, Note_off_c, 6, 54, 127
2, 192823, Note_on_c, 10, 57, 127
2, 192969, Note_off_c, 10, 57, 127
2, 192969, Note_off_c, 3, 75, 127
2, 192969, Note_off_c, 12, 47, 127
2, 192971, Note_on_c, 4, 52, 127
2, 192971, Note_on_c, 7, 55, 127
2, 192971, Note_on_c, 4, 76, 127
2, 193117, Note_off_c, 4, 76, 127
2, 193119, Note_on_c, 7, 79, 127
2, 193265, Note_off_c, 7, 79, 127
2, 193265, Note_off_c, 7, 55, 127
2, 193267, Note_on_c, 10, 57, 127
2, 193267, Note_on_c, 6, 78, 127
2, 193413, Note_off_c, 6, 78, 127
2, 193415, Note_on_c, 10, 81, 127
2, 193557, Note_off_c, 4, 52, 127
2, 193562, Note_off_c, 10, 81, 127
2, 193562, Note_off_c, 10, 57, 127
2, 193564, Note_on_c, 12, 59, 127
2, 193564, Note_on_c, 7, 79, 127
2, 193710, Note_off_c, 12, 59, 127
2, 193712, Note_on_c, 7, 55, 127
2, 193858, Note_off_c, 7, 55, 127
2, 193860, Note_on_c, 4, 52, 127
2, 194006, Note_off_c, 4, 52, 127
2, 194008, Note_on_c, 7, 55, 127
2, 194154, Note_off_c, 7, 55, 127
2, 194156, Note_on_c, 10, 57, 127
2, 194302, Note_off_c, 7, 79, 127
2, 194304, Note_on_c, 4, 76, 127
2, 194450, Note_off_c, 4, 76, 127
2, 194452, Note_on_c, 4, 52, 127
2, 194452, Note_on_c, 1, 73, 127
2, 194598, Note_off_c, 1, 73, 127
2, 194600, Note_on_c, 4, 76, 127
2, 194746, Note_off_c, 4, 76, 127
2, 194746, Note_off_c, 4, 52, 127
2, 194748, Note_on_c, 1, 49, 127
2, 194748, Note_on_c, 10, 69, 127
2, 194896, Note_on_c, 7, 79, 127
2, 195042, Note_off_c, 7, 79, 127
2, 195042, Note_off_c, 1, 49, 127
2, 195044, Note_on_c, 10, 45, 127
2, 195044, Note_on_c, 5, 77, 127
2, 195190, Note_off_c, 5, 77, 127
2, 195192, Note_on_c, 4, 76, 127
2, 195334, Note_off_c, 10, 69, 127
2, 195339, Note_off_c, 4, 76, 127
2, 195339, Note_off_c, 10, 45, 127
2, 195341, Note_on_c, 2, 50, 127
2, 195341, Note_on_c, 5, 77, 127
2, 195487, Note_off_c, 5, 77, 127
2, 195487, Note_off_c, 10, 57, 127
2, 195489, Note_on_c, 7, 55, 127
2, 195489, Note_on_c, 4, 76, 127
2, 195635, Note_off_c, 4, 76, 127
2, 195635, Note_off_c, 7, 55, 127
2, 195637, Note_on_c, 5, 53, 127
2, 195637, Note_on_c, 2, 74, 127
2, 195783, Note_off_c, 2, 74, 127
2, 195783, Note_off_c, 5, 53, 127
2, 195785, Note_on_c, 7, 55, 127
2, 195785, Note_on_c, 4, 76, 127
2, 195927, Note_off_c, 2, 50, 127
2, 195932, Note_off_c, 4, 76, 127
2, 195932, Note_off_c, 7, 55, 127
2, 195934, Note_on_c, 10, 57, 127
2, 195934, Note_on_c, 5, 77, 127
2, 196080, Note_off_c, 10, 57, 127
2, 196082, Note_on_c, 5, 53, 127
2, 196228, Note_off_c, 5, 53, 127
2, 196230, Note_on_c, 2, 50, 127
2, 196376, Note_off_c, 2, 50, 127
2, 196378, Note_on_c, 5, 53, 127
2, 196524, Note_off_c, 5, 53, 127
2, 196526, Note_on_c, 7, 55, 127
2, 196672, Note_off_c, 5, 77, 127
2, 196674, Note_on_c, 2, 74, 127
2, 196820, Note_off_c, 2, 74, 127
2, 196822, Note_on_c, 2, 50, 127
2, 196822, Note_on_c, 12, 71, 127
2, 196968, Note_off_c, 12, 71, 127
2, 196970, Note_on_c, 2, 74, 127
2, 197116, Note_off_c, 2, 74, 127
2, 197116, Note_off_c, 2, 50, 127
2, 197118, Note_on_c, 12, 47, 127
2, 197118, Note_on_c, 7, 67, 127
2, 197266, Note_on_c, 5, 77, 127
2, 197412, Note_off_c, 5, 77, 127
2, 197412, Note_off_c, 12, 47, 127
2, 197414, Note_on_c, 7, 43, 127
2, 197414, Note_on_c, 4, 76, 127
2, 197560, Note_off_c, 4, 76, 127
2, 197562, Note_on_c, 2, 74, 127
2, 197704, Note_off_c, 7, 67, 127
2, 197709, Note_off_c, 2, 74, 127
2, 197709, Note_off_c, 7, 43, 127
2, 197711, Note_on_c, 0, 48, 127
2, 197711, Note_on_c, 4, 76, 127
2, 197857, Note_off_c, 4, 76, 127
2, 197859, Note_on_c, 0, 72, 127
2, 198005, Note_off_c, 0, 72, 127
2, 198005, Note_off_c, 7, 55, 127
2, 198007, Note_on_c, 0, 60, 127
2, 198007, Note_on_c, 10, 69, 127
2, 198153, Note_off_c, 10, 69, 127
2, 198155, Note_on_c, 0, 72, 127
2, 198301, Note_off_c, 0, 72, 127
2, 198301, Note_off_c, 0, 60, 127
2, 198303, Note_on_c, 10, 57, 127
2, 198303, Note_on_c, 6, 66, 127
2, 198449, Note_off_c, 6, 66, 127
2, 198451, Note_off_c, 0, 48, 127
2, 198451, Note_on_c, 4, 76, 127
2, 198597, Note_off_c, 4, 76, 127
2, 198599, Note_on_c, 6, 54, 127
2, 198599, Note_on_c, 2, 74, 127
2, 198745, Note_off_c, 2, 74, 127
2, 198747, Note_on_c, 0, 72, 127
2, 198893, Note_off_c, 0, 72, 127
2, 198893, Note_off_c, 6, 54, 127
2, 198895, Note_on_c, 12, 47, 127
2, 198895, Note_on_c, 2, 74, 127
2, 199041, Note_off_c, 2, 74, 127
2, 199043, Note_off_c, 10, 57, 127
2, 199043, Note_on_c, 12, 71, 127
2, 199189, Note_off_c, 12, 71, 127
2, 199191, Note_on_c, 12, 59, 127
2, 199191, Note_on_c, 8, 68, 127
2, 199337, Note_off_c, 8, 68, 127
2, 199339, Note_on_c, 12, 71, 127
2, 199485, Note_off_c, 12, 71, 127
2, 199485, Note_off_c, 12, 59, 127
2, 199487, Note_on_c, 8, 56, 127
2, 199487, Note_on_c, 4, 64, 127
2, 199633, Note_off_c, 4, 64, 127
2, 199635, Note_off_c, 12, 47, 127
2, 199635, Note_on_c, 2, 74, 127
2, 199781, Note_off_c, 2, 74, 127
2, 199783, Note_on_c, 4, 52, 127
2, 199783, Note_on_c, 0, 72, 127
2, 199929, Note_off_c, 0, 72, 127
2, 199931, Note_on_c, 12, 71, 127
2, 200073, Note_off_c, 8, 56, 127
2, 200078, Note_off_c, 12, 71, 127
2, 200078, Note_off_c, 4, 52, 127
2, 200080, Note_on_c, 10, 45, 127
2, 200080, Note_on_c, 0, 72, 127
2, 200226, Note_off_c, 0, 72, 127
2, 200228, Note_on_c, 10, 69, 127
2, 200374, Note_off_c, 10, 69, 127
2, 200376, Note_on_c, 10, 57, 127
2, 200376, Note_on_c, 6, 66, 127
2, 200522, Note_off_c, 6, 66, 127
2, 200524, Note_on_c, 10, 69, 127
2, 200670, Note_off_c, 10, 69, 127
2, 200670, Note_off_c, 10, 57, 127
2, 200672, Note_on_c, 6, 54, 127
2, 200672, Note_on_c, 3, 63, 127
2, 200820, Note_off_c, 10, 45, 127
2, 200820, Note_on_c, 0, 72, 127
2, 200965, Note_off_c, 3, 63, 127
2, 200967, Note_off_c, 0, 72, 127
2, 200969, Note_on_c, 12, 47, 127
2, 200969, Note_on_c, 12, 71, 127
2, 201115, Note_off_c, 12, 71, 127
2, 201115, Note_off_c, 12, 47, 127
2, 201117, Note_on_c, 0, 48, 127
2, 201117, Note_on_c, 10, 69, 127
2, 201259, Note_off_c, 6, 54, 127
2, 201264, Note_off_c, 10, 69, 127
2, 201264, Note_off_c, 0, 48, 127
2, 201266, Note_on_c, 2, 50, 127
2, 201266, Note_on_c, 8, 68, 127
2, 201412, Note_off_c, 2, 50, 127
2, 201414, Note_on_c, 5, 53, 127
2, 201560, Note_off_c, 5, 53, 127
2, 201562, Note_on_c, 4, 52, 127
2, 201562, Note_on_c, 4, 64, 127
2, 201708, Note_off_c, 4, 52, 127
2, 201708, Note_off_c, 8, 68, 127
2, 201710, Note_on_c, 2, 50, 127
2, 201710, Note_on_c, 8, 68, 127
2, 201856, Note_off_c, 8, 68, 127
2, 201856, Note_off_c, 2, 50, 127
2, 201856, Note_off_c, 4, 64, 127
2, 201858, Note_on_c, 0, 48, 127
2, 201858, Note_on_c, 4, 64, 127
2, 201858, Note_on_c, 10, 69, 127
2, 202004, Note_off_c, 10, 69, 127
2, 202004, Note_off_c, 0, 48, 127
2, 202006, Note_on_c, 2, 50, 127
2, 202006, Note_on_c, 8, 68, 127
2, 202152, Note_off_c, 8, 68, 127
2, 202152, Note_off_c, 2, 50, 127
2, 202152, Note_off_c, 4, 64, 127
2, 202154, Note_on_c, 0, 48, 127
2, 202154, Note_on_c, 4, 64, 127
2, 202154, Note_on_c, 10, 69, 127
2, 202300, Note_off_c, 10, 69, 127
2, 202300, Note_off_c, 0, 48, 127
2, 202302, Note_on_c, 12, 47, 127
2, 202302, Note_on_c, 12, 71, 127
2, 202448, Note_off_c, 12, 71, 127
2, 202448, Note_off_c, 12, 47, 127
2, 202448, Note_off_c, 4, 64, 127
2, 202450, Note_on_c, 10, 45, 127
2, 202450, Note_on_c, 4, 64, 127
2, 202450, Note_on_c, 0, 72, 127
2, 202596, Note_off_c, 4, 64, 127
2, 202598, Note_on_c, 5, 65, 127
2, 202744, Note_off_c, 5, 65, 127
2, 202744, Note_off_c, 10, 45, 127
2, 202746, Note_on_c, 10, 57, 127
2, 202746, Note_on_c, 4, 64, 127
2, 202881, Note_off_c, 0, 72, 127
2, 202892, Note_off_c, 4, 64, 127
2, 202894, Note_on_c, 2, 62, 127
2, 203040, Note_off_c, 2, 62, 127
2, 203042, Note_on_c, 0, 60, 127
2, 203188, Note_off_c, 0, 60, 127
2, 203188, Note_off_c, 10, 57, 127
2, 203190, Note_on_c, 8, 56, 127
2, 203190, Note_on_c, 2, 62, 127
2, 203336, Note_off_c, 2, 62, 127
2, 203336, Note_off_c, 8, 56, 127
2, 203338, Note_on_c, 10, 57, 127
2, 203338, Note_on_c, 0, 60, 127
2, 203484, Note_off_c, 0, 60, 127
2, 203484, Note_off_c, 10, 57, 127
2, 203486, Note_on_c, 12, 59, 127
2, 203632, Note_off_c, 12, 59, 127
2, 203634, Note_on_c, 0, 60, 127
2, 203634, Note_on_c, 10, 57, 127
2, 203780, Note_off_c, 0, 60, 127
2, 203782, Note_on_c, 12, 59, 127
2, 203928, Note_off_c, 12, 59, 127
2, 203928, Note_off_c, 10, 57, 127
2, 203930, Note_on_c, 10, 57, 127
2, 203930, Note_on_c, 5, 65, 127
2, 203930, Note_on_c, 10, 69, 127
2, 204076, Note_off_c, 10, 69, 127
2, 204076, Note_off_c, 10, 57, 127
2, 204078, Note_on_c, 8, 56, 127
2, 204078, Note_on_c, 12, 71, 127
2, 204224, Note_off_c, 12, 71, 127
2, 204224, Note_off_c, 8, 56, 127
2, 204224, Note_off_c, 5, 65, 127
2, 204226, Note_on_c, 10, 57, 127
2, 204226, Note_on_c, 5, 65, 127
2, 204226, Note_on_c, 0, 72, 127
2, 204372, Note_off_c, 5, 65, 127
2, 204374, Note_on_c, 7, 67, 127
2, 204520, Note_off_c, 7, 67, 127
2, 204520, Note_off_c, 0, 72, 127
2, 204520, Note_off_c, 10, 57, 127
2, 204522, Note_on_c, 2, 62, 127
2, 204522, Note_on_c, 5, 65, 127
2, 204522, Note_on_c, 2, 74, 127
2, 204668, Note_off_c, 5, 65, 127
2, 204670, Note_on_c, 7, 67, 127
2, 204816, Note_off_c, 7, 67, 127
2, 204816, Note_off_c, 2, 74, 127
2, 204818, Note_on_c, 4, 64, 127
2, 204818, Note_on_c, 8, 68, 127
2, 204964, Note_off_c, 2, 62, 127
2, 204966, Note_on_c, 2, 62, 127
2, 205112, Note_off_c, 2, 62, 127
2, 205112, Note_off_c, 8, 68, 127
2, 205112, Note_off_c, 4, 64, 127
2, 205114, Note_on_c, 0, 60, 127
2, 205114, Note_on_c, 10, 69, 127
2, 205114, Note_on_c, 0, 72, 127
2, 205260, Note_off_c, 0, 72, 127
2, 205260, Note_off_c, 0, 60, 127
2, 205262, Note_on_c, 12, 59, 127
2, 205262, Note_on_c, 2, 74, 127
2, 205408, Note_off_c, 2, 74, 127
2, 205408, Note_off_c, 12, 59, 127
2, 205408, Note_off_c, 10, 69, 127
2, 205410, Note_on_c, 0, 60, 127
2, 205410, Note_on_c, 10, 69, 127
2, 205410, Note_on_c, 4, 76, 127
2, 205556, Note_off_c, 10, 69, 127
2, 205558, Note_on_c, 12, 71, 127
2, 205704, Note_off_c, 12, 71, 127
2, 205704, Note_off_c, 4, 76, 127
2, 205704, Note_off_c, 0, 60, 127
2, 205706, Note_on_c, 5, 65, 127
2, 205706, Note_on_c, 10, 69, 127
2, 205706, Note_on_c, 2, 74, 127
2, 205852, Note_off_c, 10, 69, 127
2, 205854, Note_on_c, 12, 71, 127
2, 206000, Note_off_c, 12, 71, 127
2, 206000, Note_off_c, 5, 65, 127
2, 206002, Note_on_c, 12, 59, 127
2, 206002, Note_on_c, 7, 67, 127
2, 206148, Note_off_c, 7, 67, 127
2, 206150, Note_on_c, 10, 69, 127
2, 206296, Note_off_c, 10, 69, 127
2, 206296, Note_off_c, 12, 59, 127
2, 206296, Note_off_c, 2, 74, 127
2, 206298, Note_on_c, 4, 64, 127
2, 206298, Note_on_c, 7, 67, 127
2, 206298, Note_on_c, 12, 71, 127
2, 206444, Note_off_c, 7, 67, 127
2, 206446, Note_on_c, 10, 69, 127
2, 206592, Note_off_c, 10, 69, 127
2, 206592, Note_off_c, 12, 71, 127
2, 206594, Note_on_c, 5, 65, 127
2, 206594, Note_on_c, 10, 69, 127
2, 206740, Note_off_c, 5, 65, 127
2, 206742, Note_on_c, 7, 67, 127
2, 206888, Note_off_c, 7, 67, 127
2, 206888, Note_off_c, 4, 64, 127
2, 206890, Note_on_c, 2, 62, 127
2, 206890, Note_on_c, 5, 65, 127
2, 207036, Note_off_c, 5, 65, 127
2, 207038, Note_on_c, 7, 67, 127
2, 207184, Note_off_c, 7, 67, 127
2, 207184, Note_off_c, 2, 62, 127
2, 207184, Note_off_c, 10, 69, 127
2, 207186, Note_on_c, 7, 55, 127
2, 207186, Note_on_c, 4, 64, 127
2, 207186, Note_on_c, 12, 71, 127
2, 207332, Note_off_c, 4, 64, 127
2, 207334, Note_on_c, 5, 65, 127
2, 207480, Note_off_c, 5, 65, 127
2, 207480, Note_off_c, 12, 71, 127
2, 207480, Note_off_c, 7, 55, 127
2, 207482, Note_on_c, 0, 60, 127
2, 207482, Note_on_c, 4, 64, 127
2, 207482, Note_on_c, 7, 67, 127
2, 207628, Note_off_c, 4, 64, 127
2, 207630, Note_on_c, 5, 65, 127
2, 207776, Note_off_c, 5, 65, 127
2, 207776, Note_off_c, 7, 67, 127
2, 207778, Note_on_c, 2, 62, 127
2, 207778, Note_on_c, 6, 66, 127
2, 207924, Note_off_c, 2, 62, 127
2, 207926, Note_on_c, 4, 64, 127
2, 208072, Note_off_c, 4, 64, 127
2, 208072, Note_off_c, 0, 60, 127
2, 208074, Note_on_c, 12, 59, 127
2, 208074, Note_on_c, 2, 62, 127
2, 208220, Note_off_c, 2, 62, 127
2, 208222, Note_on_c, 4, 64, 127
2, 208368, Note_off_c, 4, 64, 127
2, 208368, Note_off_c, 12, 59, 127
2, 208368, Note_off_c, 6, 66, 127
2, 208370, Note_on_c, 4, 52, 127
2, 208370, Note_on_c, 0, 60, 127
2, 208370, Note_on_c, 8, 68, 127
2, 208516, Note_off_c, 0, 60, 127
2, 208518, Note_on_c, 2, 62, 127
2, 208664, Note_off_c, 2, 62, 127
2, 208664, Note_off_c, 8, 68, 127
2, 208664, Note_off_c, 4, 52, 127
2, 208666, Note_on_c, 10, 57, 127
2, 208666, Note_on_c, 0, 60, 127
2, 208666, Note_on_c, 10, 69, 127
2, 208812, Note_off_c, 0, 60, 127
2, 208814, Note_on_c, 2, 62, 127
2, 208960, Note_off_c, 2, 62, 127
2, 208960, Note_off_c, 10, 69, 127
2, 208962, Note_on_c, 12, 59, 127
2, 208962, Note_on_c, 2, 74, 127
2, 209108, Note_off_c, 2, 74, 127
2, 209108, Note_off_c, 12, 59, 127
2, 209110, Note_on_c, 0, 60, 127
2, 209110, Note_on_c, 4, 76, 127
2, 209256, Note_off_c, 4, 76, 127
2, 209256, Note_off_c, 0, 60, 127
2, 209256, Note_off_c, 10, 57, 127
2, 209258, Note_on_c, 8, 56, 127
2, 209258, Note_on_c, 12, 59, 127
2, 209258, Note_on_c, 2, 74, 127
2, 209404, Note_off_c, 2, 74, 127
2, 209404, Note_off_c, 12, 59, 127
2, 209406, Note_on_c, 0, 60, 127
2, 209406, Note_on_c, 4, 76, 127
2, 209552, Note_off_c, 4, 76, 127
2, 209552, Note_off_c, 0, 60, 127
2, 209552, Note_off_c, 8, 56, 127
2, 209554, Note_on_c, 10, 57, 127
2, 209554, Note_on_c, 0, 72, 127
2, 209700, Note_off_c, 0, 72, 127
2, 209702, Note_on_c, 0, 60, 127
2, 209702, Note_on_c, 10, 81, 127
2, 209848, Note_off_c, 10, 81, 127
2, 209848, Note_off_c, 0, 60, 127
2, 209850, Note_on_c, 12, 59, 127
2, 209850, Note_on_c, 8, 80, 127
2, 209996, Note_off_c, 8, 80, 127
2, 209996, Note_off_c, 12, 59, 127
2, 209998, Note_on_c, 2, 62, 127
2, 209998, Note_on_c, 12, 83, 127
2, 210144, Note_off_c, 12, 83, 127
2, 210144, Note_off_c, 2, 62, 127
2, 210146, Note_on_c, 0, 60, 127
2, 210146, Note_on_c, 10, 81, 127
2, 210292, Note_off_c, 10, 81, 127
2, 210292, Note_off_c, 0, 60, 127
2, 210294, Note_on_c, 2, 62, 127
2, 210294, Note_on_c, 12, 83, 127
2, 210440, Note_off_c, 12, 83, 127
2, 210440, Note_off_c, 2, 62, 127
2, 210442, Note_on_c, 1, 61, 127
2, 210442, Note_on_c, 4, 76, 127
2, 210588, Note_off_c, 4, 76, 127
2, 210588, Note_off_c, 1, 61, 127
2, 210590, Note_on_c, 4, 64, 127
2, 210590, Note_on_c, 7, 79, 127
2, 210736, Note_off_c, 7, 79, 127
2, 210736, Note_off_c, 4, 64, 127
2, 210738, Note_on_c, 2, 62, 127
2, 210738, Note_on_c, 5, 77, 127
2, 210884, Note_off_c, 5, 77, 127
2, 210884, Note_off_c, 2, 62, 127
2, 210886, Note_on_c, 5, 65, 127
2, 210886, Note_on_c, 10, 81, 127
2, 211032, Note_off_c, 10, 81, 127
2, 211032, Note_off_c, 5, 65, 127
2, 211034, Note_on_c, 4, 64, 127
2, 211034, Note_on_c, 1, 73, 127
2, 211180, Note_off_c, 1, 73, 127
2, 211180, Note_off_c, 4, 64, 127
2, 211182, Note_on_c, 7, 67, 127
2, 211182, Note_on_c, 4, 76, 127
2, 211327, Note_off_c, 10, 57, 127
2, 211329, Note_off_c, 4, 76, 127
2, 211329, Note_off_c, 7, 67, 127
2, 211331, Note_on_c, 6, 66, 127
2, 211331, Note_on_c, 2, 74, 127
2, 211477, Note_off_c, 2, 74, 127
2, 211477, Note_off_c, 6, 66, 127
2, 211479, Note_on_c, 10, 69, 127
2, 211479, Note_on_c, 5, 77, 127
2, 211625, Note_off_c, 5, 77, 127
2, 211625, Note_off_c, 10, 69, 127
2, 211627, Note_on_c, 8, 68, 127
2, 211627, Note_on_c, 4, 76, 127
2, 211773, Note_off_c, 4, 76, 127
2, 211773, Note_off_c, 8, 68, 127
2, 211775, Note_on_c, 12, 71, 127
2, 211775, Note_on_c, 2, 74, 127
2, 211921, Note_off_c, 2, 74, 127
2, 211921, Note_off_c, 12, 71, 127
2, 211923, Note_on_c, 10, 69, 127
2, 211923, Note_on_c, 0, 72, 127
2, 212069, Note_on_c, 4, 64, 127
2, 212214, Note_off_c, 4, 64, 127
2, 212216, Note_on_c, 0, 60, 127
2, 212361, Note_off_c, 0, 60, 127
2, 212363, Note_on_c, 4, 64, 127
2, 212508, Note_off_c, 4, 64, 127
2, 212510, Note_on_c, 10, 57, 127
2, 212655, Note_off_c, 0, 72, 127
2, 212657, Note_on_c, 4, 76, 127
2, 212802, Note_off_c, 4, 76, 127
2, 212802, Note_off_c, 10, 69, 127
2, 212804, Note_on_c, 12, 71, 127
2, 212804, Note_on_c, 2, 74, 127
2, 212949, Note_off_c, 2, 74, 127
2, 212951, Note_on_c, 5, 77, 127
2, 213096, Note_off_c, 5, 77, 127
2, 213096, Note_off_c, 12, 71, 127
2, 213096, Note_off_c, 10, 57, 127
2, 213098, Note_on_c, 10, 69, 127
2, 213098, Note_on_c, 1, 73, 127
2, 213098, Note_on_c, 4, 76, 127
2, 213243, Note_off_c, 10, 69, 127
2, 213245, Note_on_c, 4, 64, 127
2, 213390, Note_off_c, 4, 64, 127
2, 213392, Note_on_c, 1, 61, 127
2, 213537, Note_off_c, 1, 61, 127
2, 213539, Note_on_c, 4, 64, 127
2, 213679, Note_off_c, 1, 73, 127
2, 213684, Note_off_c, 4, 64, 127
2, 213686, Note_on_c, 7, 55, 127
2, 213831, Note_off_c, 4, 76, 127
2, 213833, Note_on_c, 1, 73, 127
2, 213978, Note_off_c, 1, 73, 127
2, 213978, Note_off_c, 7, 55, 127
2, 213980, Note_on_c, 7, 67, 127
2, 213980, Note_on_c, 2, 74, 127
2, 214125, Note_off_c, 2, 74, 127
2, 214127, Note_on_c, 4, 76, 127
2, 214272, Note_off_c, 4, 76, 127
2, 214274, Note_on_c, 10, 69, 127
2, 214419, Note_off_c, 7, 67, 127
2, 214421, Note_on_c, 4, 64, 127
2, 214566, Note_off_c, 4, 64, 127
2, 214568, Note_on_c, 5, 65, 127
2, 214713, Note_off_c, 5, 65, 127
2, 214713, Note_off_c, 10, 69, 127
2, 214715, Note_on_c, 7, 67, 127
2, 214715, Note_on_c, 10, 69, 127
2, 214860, Note_off_c, 7, 67, 127
2, 214862, Note_on_c, 5, 65, 127
2, 214862, Note_on_c, 2, 74, 127
2, 215007, Note_off_c, 2, 74, 127
2, 215007, Note_off_c, 5, 65, 127
2, 215009, Note_on_c, 2, 62, 127
2, 215009, Note_on_c, 5, 77, 127
2, 215154, Note_off_c, 5, 77, 127
2, 215154, Note_off_c, 2, 62, 127
2, 215156, Note_on_c, 1, 61, 127
2, 215156, Note_on_c, 4, 76, 127
2, 215301, Note_off_c, 4, 76, 127
2, 215301, Note_off_c, 1, 61, 127
2, 215303, Note_on_c, 10, 57, 127
2, 215303, Note_on_c, 7, 79, 127
2, 215448, Note_off_c, 7, 79, 127
2, 215448, Note_off_c, 10, 57, 127
2, 215450, Note_on_c, 2, 62, 127
2, 215450, Note_on_c, 5, 77, 127
2, 215595, Note_off_c, 2, 62, 127
2, 215597, Note_on_c, 10, 57, 127
2, 215742, Note_off_c, 10, 57, 127
2, 215744, Note_on_c, 5, 53, 127
2, 215889, Note_off_c, 5, 53, 127
2, 215889, Note_off_c, 10, 69, 127
2, 215891, Note_on_c, 10, 57, 127
2, 216036, Note_off_c, 10, 57, 127
2, 216038, Note_on_c, 2, 50, 127
2, 216183, Note_off_c, 2, 50, 127
2, 216183, Note_off_c, 5, 77, 127
2, 216185, Note_on_c, 5, 53, 127
2, 216185, Note_on_c, 4, 76, 127
2, 216330, Note_off_c, 4, 76, 127
2, 216330, Note_off_c, 5, 53, 127
2, 216332, Note_on_c, 10, 57, 127
2, 216332, Note_on_c, 0, 72, 127
2, 216332, Note_on_c, 3, 75, 127
2, 216477, Note_off_c, 3, 75, 127
2, 216477, Note_off_c, 10, 57, 127
2, 216479, Note_on_c, 0, 60, 127
2, 216479, Note_on_c, 4, 76, 127
2, 216624, Note_off_c, 4, 76, 127
2, 216624, Note_off_c, 0, 60, 127
2, 216624, Note_off_c, 0, 72, 127
2, 216626, Note_on_c, 12, 71, 127
2, 216626, Note_on_c, 3, 75, 127
2, 216772, Note_on_c, 6, 66, 127
2, 216917, Note_off_c, 6, 66, 127
2, 216919, Note_on_c, 3, 63, 127
2, 217064, Note_off_c, 3, 63, 127
2, 217066, Note_on_c, 6, 66, 127
2, 217211, Note_off_c, 6, 66, 127
2, 217213, Note_on_c, 12, 59, 127
2, 217358, Note_off_c, 3, 75, 127
2, 217360, Note_on_c, 6, 78, 127
2, 217505, Note_off_c, 6, 78, 127
2, 217505, Note_off_c, 12, 71, 127
2, 217507, Note_on_c, 1, 73, 127
2, 217507, Note_on_c, 4, 76, 127
2, 217652, Note_off_c, 4, 76, 127
2, 217654, Note_on_c, 7, 79, 127
2, 217799, Note_off_c, 7, 79, 127
2, 217799, Note_off_c, 1, 73, 127
2, 217799, Note_off_c, 12, 59, 127
2, 217801, Note_on_c, 12, 71, 127
2, 217801, Note_on_c, 3, 75, 127
2, 217801, Note_on_c, 6, 78, 127
2, 217946, Note_off_c, 12, 71, 127
2, 217948, Note_on_c, 6, 66, 127
2, 218093, Note_off_c, 6, 66, 127
2, 218095, Note_on_c, 3, 63, 127
2, 218240, Note_off_c, 3, 63, 127
2, 218242, Note_on_c, 6, 66, 127
2, 218382, Note_off_c, 3, 75, 127
2, 218387, Note_off_c, 6, 66, 127
2, 218389, Note_on_c, 10, 57, 127
2, 218534, Note_off_c, 6, 78, 127
2, 218536, Note_on_c, 3, 75, 127
2, 218681, Note_off_c, 3, 75, 127
2, 218681, Note_off_c, 10, 57, 127
2, 218683, Note_on_c, 10, 69, 127
2, 218683, Note_on_c, 4, 76, 127
2, 218828, Note_off_c, 4, 76, 127
2, 218830, Note_on_c, 6, 78, 127
2, 218975, Note_off_c, 6, 78, 127
2, 218977, Note_on_c, 12, 71, 127
2, 219122, Note_off_c, 10, 69, 127
2, 219124, Note_on_c, 6, 66, 127
2, 219269, Note_off_c, 6, 66, 127
2, 219271, Note_on_c, 7, 67, 127
2, 219416, Note_off_c, 7, 67, 127
2, 219416, Note_off_c, 12, 71, 127
2, 219418, Note_on_c, 10, 69, 127
2, 219418, Note_on_c, 12, 71, 127
2, 219563, Note_off_c, 10, 69, 127
2, 219565, Note_on_c, 7, 67, 127
2, 219565, Note_on_c, 4, 76, 127
2, 219710, Note_off_c, 4, 76, 127
2, 219710, Note_off_c, 7, 67, 127
2, 219712, Note_on_c, 4, 64, 127
2, 219712, Note_on_c, 7, 79, 127
2, 219857, Note_off_c, 7, 79, 127
2, 219857, Note_off_c, 4, 64, 127
2, 219859, Note_on_c, 3, 63, 127
2, 219859, Note_on_c, 6, 78, 127
2, 220004, Note_off_c, 6, 78, 127
2, 220004, Note_off_c, 3, 63, 127
2, 220006, Note_on_c, 12, 59, 127
2, 220006, Note_on_c, 10, 81, 127
2, 220151, Note_off_c, 10, 81, 127
2, 220151, Note_off_c, 12, 59, 127
2, 220153, Note_on_c, 4, 64, 127
2, 220153, Note_on_c, 7, 79, 127
2, 220298, Note_off_c, 4, 64, 127
2, 220300, Note_on_c, 12, 59, 127
2, 220445, Note_off_c, 12, 59, 127
2, 220447, Note_on_c, 7, 55, 127
2, 220592, Note_off_c, 7, 55, 127
2, 220592, Note_off_c, 12, 71, 127
2, 220594, Note_on_c, 12, 59, 127
2, 220739, Note_off_c, 12, 59, 127
2, 220741, Note_on_c, 4, 52, 127
2, 220886, Note_off_c, 4, 52, 127
2, 220886, Note_off_c, 7, 79, 127
2, 220888, Note_on_c, 12, 59, 127
2, 220888, Note_on_c, 6, 78, 127
2, 221033, Note_off_c, 6, 78, 127
2, 221033, Note_off_c, 12, 59, 127
2, 221035, Note_on_c, 7, 55, 127
2, 221035, Note_on_c, 4, 76, 127
2, 221180, Note_off_c, 4, 76, 127
2, 221180, Note_off_c, 7, 55, 127
2, 221182, Note_on_c, 12, 59, 127
2, 221182, Note_on_c, 6, 78, 127
2, 221327, Note_off_c, 6, 78, 127
2, 221327, Note_off_c, 12, 59, 127
2, 221329, Note_on_c, 4, 64, 127
2, 221329, Note_on_c, 4, 76, 127
2, 221329, Note_on_c, 7, 79, 127
2, 221474, Note_off_c, 4, 64, 127
2, 221476, Note_on_c, 12, 59, 127
2, 221621, Note_off_c, 12, 59, 127
2, 221623, Note_on_c, 7, 55, 127
2, 221768, Note_off_c, 7, 55, 127
2, 221770, Note_on_c, 12, 59, 127
2, 221915, Note_off_c, 12, 59, 127
2, 221917, Note_on_c, 4, 52, 127
2, 222062, Note_off_c, 7, 79, 127
2, 222064, Note_on_c, 12, 83, 127
2, 222209, Note_off_c, 12, 83, 127
2, 222209, Note_off_c, 4, 76, 127
2, 222211, Note_on_c, 6, 78, 127
2, 222211, Note_on_c, 10, 81, 127
2, 222356, Note_off_c, 10, 81, 127
2, 222358, Note_on_c, 0, 84, 127
2, 222503, Note_off_c, 0, 84, 127
2, 222503, Note_off_c, 6, 78, 127
2, 222503, Note_off_c, 4, 52, 127
2, 222505, Note_on_c, 4, 64, 127
2, 222505, Note_on_c, 8, 80, 127
2, 222505, Note_on_c, 12, 83, 127
2, 222650, Note_off_c, 4, 64, 127
2, 222652, Note_on_c, 12, 59, 127
2, 222797, Note_off_c, 12, 59, 127
2, 222799, Note_on_c, 8, 56, 127
2, 222944, Note_off_c, 8, 56, 127
2, 222946, Note_on_c, 12, 59, 127
2, 223086, Note_off_c, 8, 80, 127
2, 223091, Note_off_c, 12, 59, 127
2, 223093, Note_on_c, 2, 50, 127
2, 223238, Note_off_c, 12, 83, 127
2, 223240, Note_on_c, 8, 80, 127
2, 223385, Note_off_c, 8, 80, 127
2, 223385, Note_off_c, 2, 50, 127
2, 223387, Note_on_c, 2, 62, 127
2, 223387, Note_on_c, 10, 81, 127
2, 223532, Note_off_c, 10, 81, 127
2, 223534, Note_on_c, 12, 83, 127
2, 223679, Note_off_c, 12, 83, 127
2, 223681, Note_on_c, 4, 76, 127
2, 223826, Note_off_c, 2, 62, 127
2, 223828, Note_on_c, 12, 59, 127
2, 223973, Note_off_c, 12, 59, 127
2, 223975, Note_on_c, 0, 60, 127
2, 224120, Note_off_c, 0, 60, 127
2, 224120, Note_off_c, 4, 76, 127
2, 224122, Note_on_c, 2, 62, 127
2, 224122, Note_on_c, 4, 76, 127
2, 224267, Note_off_c, 2, 62, 127
2, 224269, Note_on_c, 0, 60, 127
2, 224269, Note_on_c, 10, 81, 127
2, 224414, Note_off_c, 10, 81, 127
2, 224414, Note_off_c, 0, 60, 127
2, 224416, Note_on_c, 10, 69, 127
2, 224416, Note_on_c, 0, 84, 127
2, 224561, Note_off_c, 0, 84, 127
2, 224561, Note_off_c, 10, 69, 127
2, 224563, Note_on_c, 8, 68, 127
2, 224563, Note_on_c, 12, 83, 127
2, 224661, Note_off_c, 12, 83, 127
2, 224661, Note_on_c, 10, 81, 127
2, 224708, Note_off_c, 8, 68, 127
2, 224710, Note_on_c, 4, 64, 127
2, 224759, Note_off_c, 10, 81, 127
2, 224759, Note_on_c, 12, 83, 127
2, 224855, Note_off_c, 4, 64, 127
2, 224857, Note_off_c, 12, 83, 127
2, 224857, Note_on_c, 10, 69, 127
2, 224857, Note_on_c, 0, 84, 127
2, 225003, Note_on_c, 10, 81, 127
2, 225146, Note_off_c, 4, 76, 127
2, 225148, Note_off_c, 10, 81, 127
2, 225150, Note_on_c, 4, 76, 127
2, 225295, Note_off_c, 4, 76, 127
2, 225297, Note_on_c, 10, 81, 127
2, 225442, Note_off_c, 10, 81, 127
2, 225442, Note_off_c, 0, 84, 127
2, 225444, Note_on_c, 0, 72, 127
2, 225444, Note_on_c, 4, 76, 127
2, 225444, Note_on_c, 10, 81, 127
2, 225589, Note_off_c, 10, 69, 127
2, 225591, Note_on_c, 4, 64, 127
2, 225736, Note_off_c, 4, 64, 127
2, 225738, Note_on_c, 0, 60, 127
2, 225883, Note_off_c, 0, 60, 127
2, 225885, Note_on_c, 4, 64, 127
2, 226025, Note_off_c, 4, 76, 127
2, 226025, Note_off_c, 0, 72, 127
2, 226030, Note_off_c, 4, 64, 127
2, 226032, Note_on_c, 10, 57, 127
2, 226176, Note_off_c, 10, 81, 127
2, 226178, Note_on_c, 4, 76, 127
2, 226322, Note_off_c, 4, 76, 127
2, 226324, Note_on_c, 10, 81, 127
2, 226468, Note_off_c, 10, 81, 127
2, 226470, Note_on_c, 12, 83, 127
2, 226610, Note_off_c, 10, 57, 127
2, 226615, Note_off_c, 12, 83, 127
2, 226617, Note_on_c, 0, 84, 127
2, 226763, Note_on_c, 4, 76, 127
2, 226907, Note_off_c, 4, 76, 127
2, 226907, Note_off_c, 0, 84, 127
2, 226909, Note_on_c, 0, 72, 127
2, 226909, Note_on_c, 0, 84, 127
2, 227053, Note_off_c, 0, 72, 127
2, 227055, Note_on_c, 10, 69, 127
2, 227199, Note_off_c, 10, 69, 127
2, 227199, Note_off_c, 0, 84, 127
2, 227201, Note_on_c, 6, 66, 127
2, 227201, Note_on_c, 0, 84, 127
2, 227347, Note_on_c, 10, 69, 127
2, 227491, Note_off_c, 10, 69, 127
2, 227491, Note_off_c, 0, 84, 127
2, 227493, Note_on_c, 2, 74, 127
2, 227493, Note_on_c, 0, 84, 127
2, 227639, Note_on_c, 4, 76, 127
2, 227783, Note_off_c, 4, 76, 127
2, 227783, Note_off_c, 0, 84, 127
2, 227785, Note_on_c, 6, 78, 127
2, 227785, Note_on_c, 0, 84, 127
2, 227931, Note_off_c, 6, 66, 127
2, 227931, Note_on_c, 10, 69, 127
2, 228071, Note_off_c, 2, 74, 127
2, 228076, Note_off_c, 10, 69, 127
2, 228076, Note_off_c, 0, 84, 127
2, 228076, Note_off_c, 6, 78, 127
2, 228078, Note_on_c, 6, 66, 127
2, 228078, Note_on_c, 2, 74, 127
2, 228078, Note_on_c, 10, 81, 127
2, 228078, Note_on_c, 0, 84, 127
2, 228222, Note_off_c, 6, 66, 127
2, 228224, Note_on_c, 2, 62, 127
2, 228367, Note_off_c, 10, 81, 127
2, 228367, Note_off_c, 2, 74, 127
2, 228369, Note_off_c, 2, 62, 127
2, 228371, Note_on_c, 12, 59, 127
2, 228515, Note_off_c, 0, 84, 127
2, 228517, Note_on_c, 2, 74, 127
2, 228663, Note_on_c, 6, 78, 127
2, 228809, Note_on_c, 10, 81, 127
2, 228955, Note_on_c, 0, 84, 127
2, 229089, Note_off_c, 6, 78, 127
2, 229098, Note_off_c, 10, 81, 127
2, 229101, Note_off_c, 12, 59, 127
2, 229101, Note_on_c, 6, 66, 127
2, 229101, Note_on_c, 10, 81, 127
2, 229245, Note_off_c, 10, 81, 127
2, 229245, Note_off_c, 6, 66, 127
2, 229247, Note_on_c, 2, 62, 127
2, 229247, Note_on_c, 6, 78, 127
2, 229391, Note_off_c, 6, 78, 127
2, 229391, Note_off_c, 2, 62, 127
2, 229391, Note_off_c, 2, 74, 127
2, 229393, Note_on_c, 12, 59, 127
2, 229393, Note_on_c, 2, 74, 127
2, 229533, Note_off_c, 0, 84, 127
2, 229538, Note_off_c, 2, 74, 127
2, 229538, Note_off_c, 12, 59, 127
2, 229540, Note_on_c, 7, 55, 127
2, 229540, Note_on_c, 12, 83, 127
2, 229686, Note_on_c, 7, 79, 127
2, 229830, Note_off_c, 7, 79, 127
2, 229832, Note_on_c, 2, 74, 127
2, 229976, Note_off_c, 2, 74, 127
2, 229978, Note_on_c, 12, 71, 127
2, 230118, Note_off_c, 12, 83, 127
2, 230118, Note_off_c, 7, 55, 127
2, 230123, Note_off_c, 12, 71, 127
2, 230125, Note_on_c, 7, 67, 127
2, 230271, Note_on_c, 2, 62, 127
2, 230415, Note_off_c, 2, 62, 127
2, 230417, Note_on_c, 12, 59, 127
2, 230561, Note_off_c, 12, 59, 127
2, 230563, Note_on_c, 7, 55, 127
2, 230703, Note_off_c, 7, 67, 127
2, 230708, Note_off_c, 7, 55, 127
2, 230710, Note_on_c, 5, 65, 127
2, 230856, Note_on_c, 2, 74, 127
2, 231002, Note_on_c, 7, 79, 127
2, 231146, Note_off_c, 7, 79, 127
2, 231148, Note_on_c, 10, 81, 127
2, 231292, Note_off_c, 10, 81, 127
2, 231294, Note_on_c, 11, 82, 127
2, 231434, Note_off_c, 2, 74, 127
2, 231440, Note_off_c, 5, 65, 127
2, 231440, Note_on_c, 2, 74, 127
2, 231584, Note_off_c, 2, 74, 127
2, 231584, Note_off_c, 11, 82, 127
2, 231586, Note_on_c, 11, 70, 127
2, 231586, Note_on_c, 11, 82, 127
2, 231730, Note_off_c, 11, 70, 127
2, 231732, Note_on_c, 7, 67, 127
2, 231876, Note_off_c, 7, 67, 127
2, 231876, Note_off_c, 11, 82, 127
2, 231878, Note_on_c, 4, 64, 127
2, 231878, Note_on_c, 11, 82, 127
2, 232024, Note_on_c, 7, 67, 127
2, 232168, Note_off_c, 7, 67, 127
2, 232168, Note_off_c, 11, 82, 127
2, 232170, Note_on_c, 0, 72, 127
2, 232170, Note_on_c, 11, 82, 127
2, 232314, Note_off_c, 0, 72, 127
2, 232316, Note_on_c, 2, 74, 127
2, 232460, Note_off_c, 2, 74, 127
2, 232460, Note_off_c, 11, 82, 127
2, 232462, Note_on_c, 4, 76, 127
2, 232462, Note_on_c, 11, 82, 127
2, 232608, Note_off_c, 4, 64, 127
2, 232608, Note_on_c, 7, 67, 127
2, 232752, Note_off_c, 7, 67, 127
2, 232752, Note_off_c, 11, 82, 127
2, 232752, Note_off_c, 4, 76, 127
2, 232754, Note_on_c, 4, 64, 127
2, 232754, Note_on_c, 7, 79, 127
2, 232754, Note_on_c, 0, 72, 127
2, 232754, Note_on_c, 11, 82, 127
2, 232898, Note_off_c, 4, 64, 127
2, 232900, Note_on_c, 0, 60, 127
2, 233043, Note_off_c, 11, 82, 127
2, 233043, Note_off_c, 7, 79, 127
2, 233045, Note_off_c, 0, 60, 127
2, 233047, Note_on_c, 10, 57, 127
2, 233181, Note_off_c, 0, 72, 127
2, 233193, Note_on_c, 0, 72, 127
2, 233339, Note_on_c, 4, 76, 127
2, 233483, Note_off_c, 4, 76, 127
2, 233485, Note_on_c, 7, 79, 127
2, 233625, Note_off_c, 10, 57, 127
2, 233630, Note_off_c, 7, 79, 127
2, 233632, Note_on_c, 11, 82, 127
2, 233772, Note_off_c, 0, 72, 127
2, 233778, Note_on_c, 4, 64, 127
2, 233778, Note_on_c, 7, 79, 127
2, 233922, Note_off_c, 7, 79, 127
2, 233922, Note_off_c, 4, 64, 127
2, 233924, Note_on_c, 0, 60, 127
2, 233924, Note_on_c, 4, 76, 127
2, 234068, Note_off_c, 4, 76, 127
2, 234068, Note_off_c, 0, 60, 127
2, 234070, Note_on_c, 10, 57, 127
2, 234070, Note_on_c, 0, 72, 127
2, 234210, Note_off_c, 11, 82, 127
2, 234215, Note_off_c, 0, 72, 127
2, 234215, Note_off_c, 10, 57, 127
2, 234217, Note_on_c, 5, 53, 127
2, 234217, Note_on_c, 10, 81, 127
2, 234363, Note_on_c, 5, 77, 127
2, 234507, Note_off_c, 5, 77, 127
2, 234509, Note_on_c, 0, 72, 127
2, 234653, Note_off_c, 0, 72, 127
2, 234655, Note_on_c, 10, 69, 127
2, 234795, Note_off_c, 10, 81, 127
2, 234795, Note_off_c, 5, 53, 127
2, 234800, Note_off_c, 10, 69, 127
2, 234802, Note_on_c, 5, 65, 127
2, 234948, Note_on_c, 0, 60, 127
2, 235092, Note_off_c, 0, 60, 127
2, 235094, Note_on_c, 10, 57, 127
2, 235238, Note_off_c, 10, 57, 127
2, 235240, Note_on_c, 5, 53, 127
2, 235380, Note_off_c, 5, 65, 127
2, 235385, Note_off_c, 5, 53, 127
2, 235387, Note_on_c, 3, 63, 127
2, 235533, Note_on_c, 0, 72, 127
2, 235679, Note_on_c, 5, 77, 127
2, 235823, Note_off_c, 5, 77, 127
2, 235825, Note_on_c, 7, 79, 127
2, 235965, Note_off_c, 3, 63, 127
2, 235970, Note_off_c, 7, 79, 127
2, 235972, Note_on_c, 10, 81, 127
2, 236112, Note_off_c, 0, 72, 127
2, 236118, Note_on_c, 0, 60, 127
2, 236262, Note_off_c, 0, 60, 127
2, 236262, Note_off_c, 10, 81, 127
2, 236264, Note_on_c, 10, 57, 127
2, 236264, Note_on_c, 10, 81, 127
2, 236408, Note_off_c, 10, 57, 127
2, 236410, Note_on_c, 5, 53, 127
2, 236554, Note_off_c, 5, 53, 127
2, 236554, Note_off_c, 10, 81, 127
2, 236556, Note_on_c, 2, 62, 127
2, 236556, Note_on_c, 10, 81, 127
2, 236702, Note_on_c, 5, 77, 127
2, 236848, Note_on_c, 2, 74, 127
2, 236994, Note_on_c, 11, 70, 127
2, 237128, Note_off_c, 5, 77, 127
2, 237134, Note_off_c, 2, 62, 127
2, 237139, Note_off_c, 10, 81, 127
2, 237141, Note_on_c, 7, 79, 127
2, 237287, Note_on_c, 11, 58, 127
2, 237427, Note_off_c, 2, 74, 127
2, 237432, Note_off_c, 11, 58, 127
2, 237432, Note_off_c, 7, 79, 127
2, 237432, Note_off_c, 11, 70, 127
2, 237434, Note_on_c, 7, 55, 127
2, 237434, Note_on_c, 11, 70, 127
2, 237434, Note_on_c, 2, 74, 127
2, 237434, Note_on_c, 7, 79, 127
2, 237578, Note_off_c, 7, 55, 127
2, 237580, Note_on_c, 4, 52, 127
2, 237723, Note_off_c, 7, 79, 127
2, 237723, Note_off_c, 2, 74, 127
2, 237723, Note_off_c, 11, 70, 127
2, 237725, Note_off_c, 4, 52, 127
2, 237727, Note_on_c, 1, 61, 127
2, 237873, Note_on_c, 10, 69, 127
2, 238019, Note_on_c, 4, 76, 127
2, 238163, Note_off_c, 4, 76, 127
2, 238165, Note_on_c, 5, 77, 127
2, 238305, Note_off_c, 1, 61, 127
2, 238310, Note_off_c, 5, 77, 127
2, 238312, Note_on_c, 7, 79, 127
2, 238452, Note_off_c, 10, 69, 127
2, 238458, Note_on_c, 4, 64, 127
2, 238602, Note_off_c, 4, 64, 127
2, 238602, Note_off_c, 7, 79, 127
2, 238604, Note_on_c, 1, 61, 127
2, 238604, Note_on_c, 7, 79, 127
2, 238748, Note_off_c, 1, 61, 127
2, 238750, Note_on_c, 10, 57, 127
2, 238894, Note_off_c, 10, 57, 127
2, 238894, Note_off_c, 7, 79, 127
2, 238896, Note_on_c, 5, 53, 127
2, 238896, Note_on_c, 2, 62, 127
2, 238896, Note_on_c, 7, 79, 127
2, 239042, Note_on_c, 4, 76, 127
2, 239186, Note_off_c, 4, 76, 127
2, 239188, Note_on_c, 1, 73, 127
2, 239332, Note_off_c, 1, 73, 127
2, 239334, Note_on_c, 10, 69, 127
2, 239474, Note_off_c, 2, 62, 127
2, 239474, Note_off_c, 5, 53, 127
2, 239479, Note_off_c, 7, 79, 127
2, 239481, Note_on_c, 5, 77, 127
2, 239481, Note_on_c, 2, 74, 127
2, 239627, Note_on_c, 10, 57, 127
2, 239771, Note_off_c, 10, 57, 127
2, 239771, Note_off_c, 2, 74, 127
2, 239771, Note_off_c, 5, 77, 127
2, 239771, Note_off_c, 10, 69, 127
2, 239773, Note_on_c, 5, 53, 127
2, 239773, Note_on_c, 10, 69, 127
2, 239773, Note_on_c, 5, 77, 127
2, 239773, Note_on_c, 2, 74, 127
2, 239917, Note_off_c, 5, 53, 127
2, 239919, Note_on_c, 2, 50, 127
2, 240062, Note_off_c, 2, 74, 127
2, 240062, Note_off_c, 5, 77, 127
2, 240062, Note_off_c, 10, 69, 127
2, 240064, Note_off_c, 2, 50, 127
2, 240066, Note_on_c, 12, 59, 127
2, 240212, Note_on_c, 8, 68, 127
2, 240358, Note_on_c, 2, 74, 127
2, 240502, Note_off_c, 2, 74, 127
2, 240504, Note_on_c, 4, 76, 127
2, 240644, Note_off_c, 12, 59, 127
2, 240649, Note_off_c, 4, 76, 127
2, 240651, Note_on_c, 5, 77, 127
2, 240791, Note_off_c, 8, 68, 127
2, 240797, Note_on_c, 5, 65, 127
2, 240941, Note_off_c, 5, 65, 127
2, 240941, Note_off_c, 5, 77, 127
2, 240943, Note_on_c, 2, 62, 127
2, 240943, Note_on_c, 5, 77, 127
2, 241087, Note_off_c, 2, 62, 127
2, 241089, Note_on_c, 12, 59, 127
2, 241233, Note_off_c, 12, 59, 127
2, 241233, Note_off_c, 5, 77, 127
2, 241235, Note_on_c, 8, 56, 127
2, 241235, Note_on_c, 5, 77, 127
2, 241381, Note_on_c, 2, 74, 127
2, 241525, Note_off_c, 2, 74, 127
2, 241527, Note_on_c, 12, 71, 127
2, 241671, Note_off_c, 12, 71, 127
2, 241673, Note_on_c, 8, 68, 127
2, 241813, Note_off_c, 8, 56, 127
2, 241818, Note_off_c, 5, 77, 127
2, 241820, Note_on_c, 4, 76, 127
2, 241966, Note_on_c, 4, 64, 127
2, 242110, Note_off_c, 4, 64, 127
2, 242110, Note_off_c, 4, 76, 127
2, 242110, Note_off_c, 8, 68, 127
2, 242112, Note_on_c, 1, 61, 127
2, 242112, Note_on_c, 7, 67, 127
2, 242112, Note_on_c, 4, 76, 127
2, 242112, Note_on_c, 10, 69, 127
2, 242256, Note_off_c, 1, 61, 127
2, 242258, Note_on_c, 10, 57, 127
2, 242401, Note_off_c, 10, 69, 127
2, 242401, Note_off_c, 4, 76, 127
2, 242401, Note_off_c, 7, 67, 127
2, 242403, Note_off_c, 10, 57, 127
2, 242405, Note_on_c, 6, 54, 127
2, 242551, Note_on_c, 4, 76, 127
2, 242695, Note_off_c, 4, 76, 127
2, 242697, Note_on_c, 10, 45, 127
2, 242697, Note_on_c, 1, 73, 127
2, 242841, Note_off_c, 1, 73, 127
2, 242843, Note_on_c, 10, 69, 127
2, 242983, Note_off_c, 6, 54, 127
2, 242988, Note_off_c, 10, 69, 127
2, 242988, Note_off_c, 10, 45, 127
2, 242990, Note_on_c, 10, 45, 127
2, 242990, Note_on_c, 5, 53, 127
2, 242990, Note_on_c, 2, 74, 127
2, 243136, Note_on_c, 10, 69, 127
2, 243280, Note_off_c, 10, 69, 127
2, 243280, Note_off_c, 2, 74, 127
2, 243280, Note_off_c, 10, 45, 127
2, 243282, Note_on_c, 10, 45, 127
2, 243282, Note_on_c, 5, 65, 127
2, 243282, Note_on_c, 2, 74, 127
2, 243426, Note_off_c, 5, 65, 127
2, 243428, Note_on_c, 2, 62, 127
2, 243568, Note_off_c, 5, 53, 127
2, 243573, Note_off_c, 2, 62, 127
2, 243573, Note_off_c, 10, 45, 127
2, 243575, Note_on_c, 10, 45, 127
2, 243575, Note_on_c, 4, 52, 127
2, 243575, Note_on_c, 10, 69, 127
2, 243719, Note_off_c, 10, 45, 127
2, 243721, Note_on_c, 11, 46, 127
2, 243865, Note_off_c, 11, 46, 127
2, 243865, Note_off_c, 2, 74, 127
2, 243867, Note_on_c, 10, 45, 127
2, 243867, Note_on_c, 1, 73, 127
2, 244011, Note_off_c, 10, 45, 127
2, 244013, Note_on_c, 7, 43, 127
2, 244153, Note_off_c, 4, 52, 127
2, 244158, Note_off_c, 7, 43, 127
2, 244158, Note_off_c, 1, 73, 127
2, 244160, Note_on_c, 5, 41, 127
2, 244160, Note_on_c, 2, 74, 127
2, 244304, Note_off_c, 2, 74, 127
2, 244304, Note_off_c, 5, 41, 127
2, 244306, Note_on_c, 7, 43, 127
2, 244306, Note_on_c, 1, 73, 127
2, 244450, Note_off_c, 1, 73, 127
2, 244450, Note_off_c, 7, 43, 127
2, 244452, Note_on_c, 5, 41, 127
2, 244452, Note_on_c, 2, 74, 127
2, 244596, Note_off_c, 2, 74, 127
2, 244596, Note_off_c, 5, 41, 127
2, 244598, Note_on_c, 4, 40, 127
2, 244598, Note_on_c, 4, 76, 127
2, 244742, Note_off_c, 4, 76, 127
2, 244742, Note_off_c, 4, 40, 127
2, 244744, Note_on_c, 2, 38, 127
2, 244744, Note_on_c, 5, 77, 127
2, 244890, Note_off_c, 5, 77, 127
2, 244892, Note_on_c, 4, 76, 127
2, 245038, Note_off_c, 4, 76, 127
2, 245038, Note_off_c, 2, 38, 127
2, 245040, Note_on_c, 11, 46, 127
2, 245040, Note_on_c, 2, 74, 127
2, 245186, Note_off_c, 2, 74, 127
2, 245188, Note_on_c, 1, 73, 127
2, 245334, Note_off_c, 1, 73, 127
2, 245334, Note_off_c, 11, 46, 127
2, 245336, Note_on_c, 11, 46, 127
2, 245336, Note_on_c, 2, 74, 127
2, 245482, Note_off_c, 11, 46, 127
2, 245484, Note_on_c, 0, 48, 127
2, 245630, Note_off_c, 0, 48, 127
2, 245630, Note_off_c, 10, 69, 127
2, 245632, Note_on_c, 11, 46, 127
2, 245632, Note_on_c, 7, 67, 127
2, 245778, Note_off_c, 11, 46, 127
2, 245780, Note_on_c, 0, 48, 127
2, 245926, Note_off_c, 0, 48, 127
2, 245926, Note_off_c, 2, 74, 127
2, 245928, Note_on_c, 10, 45, 127
2, 245928, Note_on_c, 0, 72, 127
2, 246074, Note_off_c, 7, 67, 127
2, 246076, Note_on_c, 7, 67, 127
2, 246222, Note_off_c, 7, 67, 127
2, 246222, Note_off_c, 10, 45, 127
2, 246224, Note_on_c, 2, 50, 127
2, 246224, Note_on_c, 5, 65, 127
2, 246370, Note_off_c, 5, 65, 127
2, 246372, Note_on_c, 4, 64, 127
2, 246514, Note_off_c, 0, 72, 127
2, 246519, Note_off_c, 4, 64, 127
2, 246519, Note_off_c, 2, 50, 127
2, 246521, Note_on_c, 2, 50, 127
2, 246521, Note_on_c, 5, 65, 127
2, 246667, Note_off_c, 2, 50, 127
2, 246669, Note_on_c, 4, 52, 127
2, 246815, Note_off_c, 4, 52, 127
2, 246815, Note_off_c, 5, 65, 127
2, 246817, Note_on_c, 2, 50, 127
2, 246817, Note_on_c, 11, 70, 127
2, 246963, Note_off_c, 2, 50, 127
2, 246965, Note_on_c, 4, 52, 127
2, 247110, Note_off_c, 11, 70, 127
2, 247112, Note_off_c, 4, 52, 127
2, 247114, Note_on_c, 0, 48, 127
2, 247114, Note_on_c, 4, 64, 127
2, 247260, Note_off_c, 0, 48, 127
2, 247262, Note_on_c, 2, 50, 127
2, 247408, Note_off_c, 2, 50, 127
2, 247408, Note_off_c, 4, 64, 127
2, 247410, Note_on_c, 0, 48, 127
2, 247410, Note_on_c, 10, 69, 127
2, 247556, Note_off_c, 0, 48, 127
2, 247558, Note_on_c, 2, 50, 127
2, 247704, Note_off_c, 2, 50, 127
2, 247706, Note_on_c, 11, 46, 127
2, 247706, Note_on_c, 2, 62, 127
2, 247852, Note_off_c, 2, 62, 127
2, 247852, Note_off_c, 11, 46, 127
2, 247854, Note_on_c, 0, 48, 127
2, 247854, Note_on_c, 4, 64, 127
2, 248000, Note_off_c, 4, 64, 127
2, 248000, Note_off_c, 0, 48, 127
2, 248000, Note_off_c, 10, 69, 127
2, 248002, Note_on_c, 11, 46, 127
2, 248002, Note_on_c, 2, 62, 127
2, 248002, Note_on_c, 7, 67, 127
2, 248148, Note_off_c, 2, 62, 127
2, 248148, Note_off_c, 11, 46, 127
2, 248150, Note_on_c, 0, 48, 127
2, 248150, Note_on_c, 4, 64, 127
2, 248296, Note_off_c, 4, 64, 127
2, 248296, Note_off_c, 0, 48, 127
2, 248298, Note_on_c, 10, 45, 127
2, 248298, Note_on_c, 0, 60, 127
2, 248444, Note_off_c, 0, 60, 127
2, 248444, Note_off_c, 10, 45, 127
2, 248446, Note_on_c, 11, 46, 127
2, 248446, Note_on_c, 2, 62, 127
2, 248592, Note_off_c, 2, 62, 127
2, 248592, Note_off_c, 11, 46, 127
2, 248592, Note_off_c, 7, 67, 127
2, 248594, Note_on_c, 10, 45, 127
2, 248594, Note_on_c, 0, 60, 127
2, 248594, Note_on_c, 5, 65, 127
2, 248740, Note_off_c, 0, 60, 127
2, 248740, Note_off_c, 10, 45, 127
2, 248742, Note_on_c, 11, 46, 127
2, 248742, Note_on_c, 2, 62, 127
2, 248888, Note_off_c, 2, 62, 127
2, 248888, Note_off_c, 11, 46, 127
2, 248890, Note_on_c, 7, 43, 127
2, 248890, Note_on_c, 11, 58, 127
2, 249036, Note_off_c, 11, 58, 127
2, 249036, Note_off_c, 7, 43, 127
2, 249038, Note_on_c, 10, 45, 127
2, 249038, Note_on_c, 0, 60, 127
2, 249184, Note_off_c, 0, 60, 127
2, 249184, Note_off_c, 10, 45, 127
2, 249184, Note_off_c, 5, 65, 127
2, 249186, Note_on_c, 7, 43, 127
2, 249186, Note_on_c, 11, 58, 127
2, 249186, Note_on_c, 4, 64, 127
2, 249332, Note_off_c, 11, 58, 127
2, 249332, Note_off_c, 7, 43, 127
2, 249334, Note_on_c, 10, 45, 127
2, 249334, Note_on_c, 0, 60, 127
2, 249480, Note_off_c, 0, 60, 127
2, 249480, Note_off_c, 10, 45, 127
2, 249482, Note_on_c, 5, 41, 127
2, 249482, Note_on_c, 10, 57, 127
2, 249628, Note_off_c, 10, 57, 127
2, 249628, Note_off_c, 5, 41, 127
2, 249630, Note_on_c, 7, 43, 127
2, 249630, Note_on_c, 11, 58, 127
2, 249776, Note_off_c, 11, 58, 127
2, 249776, Note_off_c, 7, 43, 127
2, 249776, Note_off_c, 4, 64, 127
2, 249778, Note_on_c, 5, 41, 127
2, 249778, Note_on_c, 10, 57, 127
2, 249778, Note_on_c, 2, 62, 127
2, 249924, Note_off_c, 10, 57, 127
2, 249924, Note_off_c, 5, 41, 127
2, 249926, Note_on_c, 7, 43, 127
2, 249926, Note_on_c, 11, 58, 127
2, 250072, Note_off_c, 11, 58, 127
2, 250072, Note_off_c, 7, 43, 127
2, 250074, Note_on_c, 4, 40, 127
2, 250074, Note_on_c, 7, 55, 127
2, 250220, Note_off_c, 7, 55, 127
2, 250220, Note_off_c, 4, 40, 127
2, 250222, Note_on_c, 5, 41, 127
2, 250222, Note_on_c, 10, 57, 127
2, 250368, Note_off_c, 10, 57, 127
2, 250368, Note_off_c, 5, 41, 127
2, 250368, Note_off_c, 2, 62, 127
2, 250370, Note_on_c, 4, 40, 127
2, 250370, Note_on_c, 7, 55, 127
2, 250370, Note_on_c, 1, 61, 127
2, 250516, Note_off_c, 7, 55, 127
2, 250516, Note_off_c, 4, 40, 127
2, 250518, Note_on_c, 5, 41, 127
2, 250518, Note_on_c, 10, 57, 127
2, 250664, Note_off_c, 10, 57, 127
2, 250664, Note_off_c, 5, 41, 127
2, 250664, Note_off_c, 1, 61, 127
2, 250666, Note_on_c, 2, 38, 127
2, 250666, Note_on_c, 5, 53, 127
2, 250666, Note_on_c, 2, 62, 127
2, 250812, Note_off_c, 2, 62, 127
2, 250814, Note_on_c, 5, 65, 127
2, 250960, Note_off_c, 5, 65, 127
2, 250960, Note_off_c, 5, 53, 127
2, 250962, Note_on_c, 7, 55, 127
2, 250962, Note_on_c, 4, 64, 127
2, 251108, Note_off_c, 4, 64, 127
2, 251110, Note_on_c, 7, 67, 127
2, 251256, Note_off_c, 7, 67, 127
2, 251256, Note_off_c, 7, 55, 127
2, 251256, Note_off_c, 2, 38, 127
2, 251258, Note_on_c, 2, 50, 127
2, 251258, Note_on_c, 10, 57, 127
2, 251258, Note_on_c, 5, 65, 127
2, 251404, Note_off_c, 10, 57, 127
2, 251406, Note_on_c, 12, 59, 127
2, 251552, Note_off_c, 12, 59, 127
2, 251554, Note_on_c, 0, 60, 127
2, 251700, Note_off_c, 0, 60, 127
2, 251702, Note_on_c, 10, 57, 127
2, 251848, Note_off_c, 10, 57, 127
2, 251848, Note_off_c, 5, 65, 127
2, 251850, Note_on_c, 8, 56, 127
2, 251850, Note_on_c, 4, 64, 127
2, 251996, Note_off_c, 8, 56, 127
2, 251998, Note_on_c, 12, 59, 127
2, 252144, Note_off_c, 12, 59, 127
2, 252144, Note_off_c, 4, 64, 127
2, 252146, Note_on_c, 4, 52, 127
2, 252146, Note_on_c, 4, 76, 127
2, 252146, Note_on_c, 8, 68, 127
2, 252292, Note_off_c, 4, 52, 127
2, 252294, Note_on_c, 8, 56, 127
2, 252440, Note_off_c, 8, 56, 127
2, 252440, Note_off_c, 8, 68, 127
2, 252440, Note_off_c, 4, 76, 127
2, 252442, Note_on_c, 6, 54, 127
2, 252442, Note_on_c, 4, 76, 127
2, 252442, Note_on_c, 10, 69, 127
2, 252588, Note_off_c, 6, 54, 127
2, 252590, Note_on_c, 10, 57, 127
2, 252736, Note_off_c, 10, 57, 127
2, 252736, Note_off_c, 10, 69, 127
2, 252736, Note_off_c, 4, 76, 127
2, 252738, Note_on_c, 8, 56, 127
2, 252738, Note_on_c, 4, 76, 127
2, 252738, Note_on_c, 12, 71, 127
2, 252884, Note_off_c, 8, 56, 127
2, 252886, Note_on_c, 12, 59, 127
2, 253032, Note_off_c, 12, 59, 127
2, 253032, Note_off_c, 12, 71, 127
2, 253032, Note_off_c, 4, 76, 127
2, 253032, Note_off_c, 2, 50, 127
2, 253034, Note_on_c, 0, 48, 127
2, 253034, Note_on_c, 10, 57, 127
2, 253034, Note_on_c, 4, 76, 127
2, 253034, Note_on_c, 0, 72, 127
2, 253180, Note_off_c, 0, 72, 127
2, 253180, Note_off_c, 4, 76, 127
2, 253180, Note_off_c, 10, 57, 127
2, 253182, Note_on_c, 4, 52, 127
2, 253182, Note_on_c, 5, 77, 127
2, 253182, Note_on_c, 2, 74, 127
2, 253328, Note_off_c, 2, 74, 127
2, 253328, Note_off_c, 5, 77, 127
2, 253328, Note_off_c, 4, 52, 127
2, 253330, Note_on_c, 10, 57, 127
2, 253330, Note_on_c, 4, 76, 127
2, 253330, Note_on_c, 0, 72, 127
2, 253476, Note_off_c, 0, 72, 127
2, 253476, Note_off_c, 4, 76, 127
2, 253476, Note_off_c, 0, 48, 127
2, 253478, Note_on_c, 2, 50, 127
2, 253478, Note_on_c, 2, 74, 127
2, 253478, Note_on_c, 12, 71, 127
2, 253624, Note_off_c, 12, 71, 127
2, 253624, Note_off_c, 2, 74, 127
2, 253624, Note_off_c, 2, 50, 127
2, 253626, Note_on_c, 4, 52, 127
2, 253626, Note_on_c, 0, 72, 127
2, 253626, Note_on_c, 10, 69, 127
2, 253772, Note_off_c, 10, 69, 127
2, 253772, Note_off_c, 0, 72, 127
2, 253772, Note_off_c, 10, 57, 127
2, 253774, Note_on_c, 8, 56, 127
2, 253774, Note_on_c, 2, 74, 127
2, 253774, Note_on_c, 12, 71, 127
2, 253920, Note_off_c, 12, 71, 127
2, 253920, Note_off_c, 2, 74, 127
2, 253920, Note_off_c, 8, 56, 127
2, 253922, Note_on_c, 10, 57, 127
2, 253922, Note_on_c, 0, 72, 127
2, 253922, Note_on_c, 10, 69, 127
2, 254068, Note_off_c, 10, 69, 127
2, 254068, Note_off_c, 0, 72, 127
2, 254068, Note_off_c, 10, 57, 127
2, 254070, Note_on_c, 12, 59, 127
2, 254070, Note_on_c, 12, 71, 127
2, 254070, Note_on_c, 8, 68, 127
2, 254216, Note_off_c, 8, 68, 127
2, 254216, Note_off_c, 12, 71, 127
2, 254216, Note_off_c, 12, 59, 127
2, 254218, Note_on_c, 0, 60, 127
2, 254218, Note_on_c, 10, 69, 127
2, 254364, Note_off_c, 4, 52, 127
2, 254366, Note_on_c, 4, 52, 127
2, 254511, Note_off_c, 0, 60, 127
2, 254513, Note_off_c, 4, 52, 127
2, 254515, Note_on_c, 2, 50, 127
2, 254515, Note_on_c, 5, 77, 127
2, 254661, Note_off_c, 2, 50, 127
2, 254663, Note_on_c, 1, 49, 127
2, 254805, Note_off_c, 10, 69, 127
2, 254810, Note_off_c, 1, 49, 127
2, 254810, Note_off_c, 5, 77, 127
2, 254812, Note_on_c, 2, 50, 127
2, 254812, Note_on_c, 5, 77, 127
2, 254812, Note_on_c, 12, 71, 127
2, 254958, Note_off_c, 5, 77, 127
2, 254960, Note_on_c, 7, 79, 127
2, 255105, Note_off_c, 12, 71, 127
2, 255107, Note_off_c, 7, 79, 127
2, 255109, Note_on_c, 0, 60, 127
2, 255109, Note_on_c, 5, 77, 127
2, 255109, Note_on_c, 10, 69, 127
2, 255255, Note_off_c, 5, 77, 127
2, 255257, Note_on_c, 7, 79, 127
2, 255402, Note_off_c, 10, 69, 127
2, 255404, Note_off_c, 7, 79, 127
2, 255404, Note_off_c, 0, 60, 127
2, 255406, Note_on_c, 12, 59, 127
2, 255406, Note_on_c, 4, 76, 127
2, 255406, Note_on_c, 8, 68, 127
2, 255552, Note_off_c, 2, 50, 127
2, 255554, Note_on_c, 2, 50, 127
2, 255699, Note_off_c, 12, 59, 127
2, 255701, Note_off_c, 2, 50, 127
2, 255701, Note_off_c, 8, 68, 127
2, 255701, Note_off_c, 4, 76, 127
2, 255703, Note_on_c, 0, 48, 127
2, 255703, Note_on_c, 10, 81, 127
2, 255703, Note_on_c, 4, 76, 127
2, 255849, Note_off_c, 0, 48, 127
2, 255851, Note_on_c, 12, 47, 127
2, 255997, Note_off_c, 12, 47, 127
2, 255997, Note_off_c, 4, 76, 127
2, 255997, Note_off_c, 10, 81, 127
2, 255999, Note_on_c, 0, 48, 127
2, 255999, Note_on_c, 10, 81, 127
2, 255999, Note_on_c, 4, 76, 127
2, 256145, Note_off_c, 10, 81, 127
2, 256147, Note_on_c, 12, 83, 127
2, 256292, Note_off_c, 4, 76, 127
2, 256294, Note_off_c, 12, 83, 127
2, 256294, Note_off_c, 0, 48, 127
2, 256296, Note_on_c, 5, 53, 127
2, 256296, Note_on_c, 10, 57, 127
2, 256296, Note_on_c, 10, 81, 127
2, 256296, Note_on_c, 0, 72, 127
2, 256442, Note_off_c, 10, 81, 127
2, 256444, Note_on_c, 12, 83, 127
2, 256589, Note_off_c, 0, 72, 127
2, 256589, Note_off_c, 10, 57, 127
2, 256591, Note_off_c, 12, 83, 127
2, 256591, Note_off_c, 5, 53, 127
2, 256593, Note_on_c, 12, 47, 127
2, 256593, Note_on_c, 2, 50, 127
2, 256593, Note_on_c, 7, 79, 127
2, 256593, Note_on_c, 2, 74, 127
2, 256739, Note_off_c, 7, 79, 127
2, 256741, Note_on_c, 10, 81, 127
2, 256870, Note_off_c, 2, 50, 127
2, 256870, Note_off_c, 12, 47, 127
2, 256885, Note_off_c, 2, 74, 127
2, 256887, Note_off_c, 10, 81, 127
2, 256889, Note_on_c, 4, 52, 127
2, 256889, Note_on_c, 7, 55, 127
2, 256889, Note_on_c, 12, 71, 127
2, 256889, Note_on_c, 7, 79, 127
2, 257035, Note_off_c, 7, 79, 127
2, 257037, Note_on_c, 10, 81, 127
2, 257183, Note_off_c, 10, 81, 127
2, 257183, Note_off_c, 12, 71, 127
2, 257183, Note_off_c, 7, 55, 127
2, 257185, Note_on_c, 10, 57, 127
2, 257185, Note_on_c, 0, 72, 127
2, 257185, Note_on_c, 5, 77, 127
2, 257331, Note_off_c, 5, 77, 127
2, 257333, Note_on_c, 7, 79, 127
2, 257475, Note_off_c, 4, 52, 127
2, 257480, Note_off_c, 7, 79, 127
2, 257480, Note_off_c, 0, 72, 127
2, 257480, Note_off_c, 10, 57, 127
2, 257482, Note_on_c, 12, 59, 127
2, 257482, Note_on_c, 2, 50, 127
2, 257482, Note_on_c, 2, 74, 127
2, 257482, Note_on_c, 5, 77, 127
2, 257628, Note_off_c, 5, 77, 127
2, 257630, Note_on_c, 7, 79, 127
2, 257776, Note_off_c, 7, 79, 127
2, 257776, Note_off_c, 2, 50, 127
2, 257776, Note_off_c, 12, 59, 127
2, 257778, Note_on_c, 8, 44, 127
2, 257778, Note_on_c, 4, 76, 127
2, 257924, Note_off_c, 4, 76, 127
2, 257926, Note_on_c, 5, 77, 127
2, 258049, Note_off_c, 8, 44, 127
2, 258072, Note_off_c, 5, 77, 127
2, 258072, Note_off_c, 2, 74, 127
2, 258074, Note_on_c, 0, 48, 127
2, 258074, Note_on_c, 10, 57, 127
2, 258074, Note_on_c, 0, 72, 127
2, 258074, Note_on_c, 4, 76, 127
2, 258220, Note_off_c, 4, 76, 127
2, 258222, Note_on_c, 5, 77, 127
2, 258368, Note_off_c, 5, 77, 127
2, 258368, Note_off_c, 0, 72, 127
2, 258368, Note_off_c, 10, 57, 127
2, 258370, Note_on_c, 6, 54, 127
2, 258370, Note_on_c, 10, 69, 127
2, 258370, Note_on_c, 2, 74, 127
2, 258516, Note_off_c, 2, 74, 127
2, 258518, Note_on_c, 4, 76, 127
2, 258660, Note_off_c, 0, 48, 127
2, 258665, Note_off_c, 4, 76, 127
2, 258665, Note_off_c, 10, 69, 127
2, 258665, Note_off_c, 6, 54, 127
2, 258667, Note_on_c, 8, 56, 127
2, 258667, Note_on_c, 12, 47, 127
2, 258667, Note_on_c, 12, 71, 127
2, 258667, Note_on_c, 2, 74, 127
2, 258813, Note_off_c, 2, 74, 127
2, 258815, Note_on_c, 4, 76, 127
2, 258961, Note_off_c, 4, 76, 127
2, 258961, Note_off_c, 12, 71, 127
2, 258961, Note_off_c, 12, 47, 127
2, 258961, Note_off_c, 8, 56, 127
2, 258963, Note_on_c, 0, 48, 127
2, 258963, Note_on_c, 10, 57, 127
2, 258963, Note_on_c, 4, 64, 127
2, 258963, Note_on_c, 0, 72, 127
2, 259109, Note_off_c, 0, 72, 127
2, 259111, Note_on_c, 2, 74, 127
2, 259257, Note_off_c, 2, 74, 127
2, 259257, Note_off_c, 0, 48, 127
2, 259259, Note_on_c, 10, 45, 127
2, 259259, Note_on_c, 0, 72, 127
2, 259405, Note_off_c, 0, 72, 127
2, 259407, Note_on_c, 2, 74, 127
2, 259553, Note_off_c, 2, 74, 127
2, 259553, Note_off_c, 10, 45, 127
2, 259553, Note_off_c, 10, 57, 127
2, 259555, Note_on_c, 4, 52, 127
2, 259555, Note_on_c, 8, 56, 127
2, 259555, Note_on_c, 12, 71, 127
2, 259701, Note_off_c, 12, 71, 127
2, 259703, Note_on_c, 0, 72, 127
2, 259849, Note_off_c, 0, 72, 127
2, 259849, Note_off_c, 4, 52, 127
2, 259851, Note_on_c, 2, 50, 127
2, 259851, Note_on_c, 12, 71, 127
2, 259997, Note_off_c, 12, 71, 127
2, 259999, Note_on_c, 0, 72, 127
2, 260145, Note_off_c, 0, 72, 127
2, 260145, Note_off_c, 2, 50, 127
2, 260145, Note_off_c, 8, 56, 127
2, 260147, Note_on_c, 1, 49, 127
2, 260147, Note_on_c, 7, 55, 127
2, 260147, Note_on_c, 10, 69, 127
2, 260289, Note_off_c, 4, 64, 127
2, 260294, Note_off_c, 7, 55, 127
2, 260296, Note_on_c, 5, 65, 127
2, 260296, Note_on_c, 10, 57, 127
2, 260442, Note_off_c, 10, 57, 127
2, 260442, Note_off_c, 5, 65, 127
2, 260444, Note_on_c, 4, 64, 127
2, 260444, Note_on_c, 7, 55, 127
2, 260590, Note_off_c, 7, 55, 127
2, 260590, Note_off_c, 4, 64, 127
2, 260592, Note_on_c, 5, 65, 127
2, 260592, Note_on_c, 10, 57, 127
2, 260738, Note_off_c, 10, 57, 127
2, 260738, Note_off_c, 5, 65, 127
2, 260738, Note_off_c, 1, 49, 127
2, 260740, Note_on_c, 2, 50, 127
2, 260740, Note_on_c, 2, 62, 127
2, 260740, Note_on_c, 5, 53, 127
2, 260886, Note_off_c, 5, 53, 127
2, 260886, Note_off_c, 2, 62, 127
2, 260888, Note_on_c, 4, 64, 127
2, 260888, Note_on_c, 7, 55, 127
2, 261034, Note_off_c, 7, 55, 127
2, 261034, Note_off_c, 4, 64, 127
2, 261036, Note_on_c, 2, 62, 127
2, 261036, Note_on_c, 5, 53, 127
2, 261182, Note_off_c, 5, 53, 127
2, 261182, Note_off_c, 2, 62, 127
2, 261184, Note_on_c, 4, 64, 127
2, 261184, Note_on_c, 7, 55, 127
2, 261330, Note_off_c, 7, 55, 127
2, 261330, Note_off_c, 4, 64, 127
2, 261330, Note_off_c, 2, 50, 127
2, 261332, Note_on_c, 10, 45, 127
2, 261332, Note_on_c, 0, 60, 127
2, 261478, Note_off_c, 10, 45, 127
2, 261480, Note_on_c, 0, 48, 127
2, 261626, Note_off_c, 0, 48, 127
2, 261626, Note_off_c, 0, 60, 127
2, 261628, Note_on_c, 12, 47, 127
2, 261628, Note_on_c, 2, 62, 127
2, 261774, Note_off_c, 12, 47, 127
2, 261776, Note_on_c, 2, 50, 127
2, 261922, Note_off_c, 2, 50, 127
2, 261922, Note_off_c, 2, 62, 127
2, 261924, Note_on_c, 0, 48, 127
2, 261924, Note_on_c, 4, 64, 127
2, 262070, Note_off_c, 0, 48, 127
2, 262072, Note_on_c, 4, 52, 127
2, 262218, Note_off_c, 4, 52, 127
2, 262218, Note_off_c, 4, 64, 127
2, 262218, Note_off_c, 10, 69, 127
2, 262220, Note_on_c, 2, 50, 127
2, 262220, Note_on_c, 6, 66, 127
2, 262220, Note_on_c, 12, 71, 127
2, 262366, Note_off_c, 2, 50, 127
2, 262368, Note_on_c, 6, 54, 127
2, 262514, Note_off_c, 6, 54, 127
2, 262514, Note_off_c, 12, 71, 127
2, 262514, Note_off_c, 6, 66, 127
2, 262516, Note_on_c, 4, 52, 127
2, 262516, Note_on_c, 8, 68, 127
2, 262516, Note_on_c, 0, 72, 127
2, 262662, Note_off_c, 4, 52, 127
2, 262664, Note_on_c, 8, 56, 127
2, 262810, Note_off_c, 8, 56, 127
2, 262810, Note_off_c, 0, 72, 127
2, 262810, Note_off_c, 8, 68, 127
2, 262812, Note_on_c, 6, 54, 127
2, 262812, Note_on_c, 10, 69, 127
2, 262812, Note_on_c, 2, 74, 127
2, 262958, Note_off_c, 6, 54, 127
2, 262960, Note_on_c, 10, 57, 127
2, 263106, Note_off_c, 10, 57, 127
2, 263106, Note_off_c, 2, 74, 127
2, 263106, Note_off_c, 10, 69, 127
2, 263108, Note_on_c, 8, 56, 127
2, 263108, Note_on_c, 12, 71, 127
2, 263108, Note_on_c, 4, 76, 127
2, 263254, Note_off_c, 8, 56, 127
2, 263256, Note_on_c, 12, 59, 127
2, 263402, Note_off_c, 12, 59, 127
2, 263402, Note_off_c, 4, 76, 127
2, 263402, Note_off_c, 12, 71, 127
2, 263404, Note_on_c, 10, 57, 127
2, 263404, Note_on_c, 0, 72, 127
2, 263404, Note_on_c, 5, 77, 127
2, 263550, Note_off_c, 10, 57, 127
2, 263552, Note_on_c, 0, 60, 127
2, 263698, Note_off_c, 0, 60, 127
2, 263698, Note_off_c, 5, 77, 127
2, 263698, Note_off_c, 0, 72, 127
2, 263700, Note_on_c, 12, 59, 127
2, 263700, Note_on_c, 2, 62, 127
2, 263700, Note_on_c, 8, 68, 127
2, 263846, Note_off_c, 8, 68, 127
2, 263848, Note_on_c, 12, 71, 127
2, 263994, Note_off_c, 12, 71, 127
2, 263994, Note_off_c, 2, 62, 127
2, 263994, Note_off_c, 12, 59, 127
2, 263996, Note_on_c, 0, 60, 127
2, 263996, Note_on_c, 4, 64, 127
2, 263996, Note_on_c, 10, 69, 127
2, 264142, Note_off_c, 10, 69, 127
2, 264144, Note_on_c, 0, 72, 127
2, 264290, Note_off_c, 0, 72, 127
2, 264290, Note_off_c, 4, 64, 127
2, 264290, Note_off_c, 0, 60, 127
2, 264292, Note_on_c, 8, 56, 127
2, 264292, Note_on_c, 5, 65, 127
2, 264292, Note_on_c, 12, 71, 127
2, 264438, Note_off_c, 12, 71, 127
2, 264440, Note_on_c, 2, 74, 127
2, 264586, Note_off_c, 2, 74, 127
2, 264586, Note_off_c, 5, 65, 127
2, 264586, Note_off_c, 8, 56, 127
2, 264588, Note_on_c, 10, 57, 127
2, 264588, Note_on_c, 4, 64, 127
2, 264588, Note_on_c, 0, 72, 127
2, 264734, Note_off_c, 0, 72, 127
2, 264736, Note_on_c, 4, 76, 127
2, 264882, Note_off_c, 4, 76, 127
2, 264882, Note_off_c, 4, 64, 127
2, 264882, Note_off_c, 10, 57, 127
2, 264884, Note_on_c, 5, 53, 127
2, 264884, Note_on_c, 10, 69, 127
2, 264884, Note_on_c, 2, 74, 127
2, 265032, Note_off_c, 2, 74, 127
2, 265034, Note_on_c, 2, 74, 127
2, 265182, Note_off_c, 2, 74, 127
2, 265182, Note_off_c, 5, 53, 127
2, 265184, Note_on_c, 2, 50, 127
2, 265184, Note_on_c, 0, 72, 127
2, 265332, Note_off_c, 0, 72, 127
2, 265334, Note_on_c, 12, 71, 127
2, 265482, Note_off_c, 12, 71, 127
2, 265482, Note_off_c, 2, 50, 127
2, 265484, Note_on_c, 4, 52, 127
2, 265484, Note_on_c, 0, 72, 127
2, 265534, Note_on_c, 12, 71, 127
2, 265536, Note_off_c, 0, 72, 127
2, 265584, Note_on_c, 0, 72, 127
2, 265586, Note_off_c, 12, 71, 127
2, 265634, Note_on_c, 12, 71, 127
2, 265636, Note_off_c, 0, 72, 127
2, 265684, Note_on_c, 0, 72, 127
2, 265686, Note_off_c, 12, 71, 127
2, 265734, Note_on_c, 12, 71, 127
2, 265736, Note_off_c, 0, 72, 127
2, 265783, Note_off_c, 4, 52, 127
2, 265783, Note_off_c, 10, 69, 127
2, 265785, Note_on_c, 4, 40, 127
2, 265785, Note_on_c, 8, 68, 127
2, 265922, Note_off_c, 12, 71, 127
2, 265934, Note_on_c, 10, 69, 127
2, 266082, Note_off_c, 10, 69, 127
2, 266082, Note_off_c, 8, 68, 127
2, 266082, Note_off_c, 4, 40, 127
2, 266084, Note_on_c, 10, 45, 127
2, 266084, Note_on_c, 10, 69, 127
2, 266234, Note_on_c, 1, 73, 127
2, 266382, Note_off_c, 1, 73, 127
2, 266384, Note_on_c, 12, 71, 127
2, 266532, Note_off_c, 12, 71, 127
2, 266534, Note_on_c, 2, 74, 127
2, 266677, Note_off_c, 10, 69, 127
2, 266682, Note_off_c, 2, 74, 127
2, 266682, Note_off_c, 10, 45, 127
2, 266684, Note_on_c, 10, 57, 127
2, 266684, Note_on_c, 1, 73, 127
2, 266832, Note_off_c, 1, 73, 127
2, 266832, Note_off_c, 10, 57, 127
2, 266834, Note_on_c, 1, 61, 127
2, 266834, Note_on_c, 4, 76, 127
2, 266982, Note_off_c, 4, 76, 127
2, 266982, Note_off_c, 1, 61, 127
2, 266984, Note_on_c, 12, 59, 127
2, 266984, Note_on_c, 2, 74, 127
2, 267132, Note_off_c, 2, 74, 127
2, 267132, Note_off_c, 12, 59, 127
2, 267134, Note_on_c, 2, 62, 127
2, 267134, Note_on_c, 5, 77, 127
2, 267282, Note_off_c, 5, 77, 127
2, 267282, Note_off_c, 2, 62, 127
2, 267284, Note_on_c, 1, 61, 127
2, 267284, Note_on_c, 10, 69, 127
2, 267284, Note_on_c, 7, 79, 127
2, 267432, Note_off_c, 10, 69, 127
2, 267432, Note_off_c, 1, 61, 127
2, 267434, Note_on_c, 4, 64, 127
2, 267434, Note_on_c, 1, 73, 127
2, 267582, Note_off_c, 1, 73, 127
2, 267582, Note_off_c, 4, 64, 127
2, 267584, Note_on_c, 2, 62, 127
2, 267584, Note_on_c, 12, 71, 127
2, 267732, Note_off_c, 12, 71, 127
2, 267732, Note_off_c, 2, 62, 127
2, 267734, Note_on_c, 5, 65, 127
2, 267734, Note_on_c, 2, 74, 127
2, 267882, Note_off_c, 2, 74, 127
2, 267882, Note_off_c, 5, 65, 127
2, 267884, Note_on_c, 4, 64, 127
2, 267884, Note_on_c, 1, 73, 127
2, 268032, Note_off_c, 1, 73, 127
2, 268032, Note_off_c, 4, 64, 127
2, 268034, Note_on_c, 1, 61, 127
2, 268034, Note_on_c, 4, 76, 127
2, 268182, Note_off_c, 4, 76, 127
2, 268182, Note_off_c, 1, 61, 127
2, 268184, Note_on_c, 12, 59, 127
2, 268184, Note_on_c, 2, 74, 127
2, 268332, Note_off_c, 2, 74, 127
2, 268332, Note_off_c, 12, 59, 127
2, 268334, Note_on_c, 2, 62, 127
2, 268334, Note_on_c, 5, 77, 127
2, 268482, Note_off_c, 5, 77, 127
2, 268482, Note_off_c, 2, 62, 127
2, 268484, Note_on_c, 1, 61, 127
2, 268484, Note_on_c, 4, 76, 127
2, 268636, Note_off_c, 7, 79, 127
2, 268638, Note_on_c, 11, 82, 127
2, 268788, Note_off_c, 4, 76, 127
2, 268790, Note_off_c, 11, 82, 127
2, 268792, Note_on_c, 4, 76, 127
2, 268946, Note_on_c, 7, 79, 127
2, 269096, Note_off_c, 4, 76, 127
2, 269098, Note_off_c, 7, 79, 127
2, 269098, Note_off_c, 1, 61, 127
2, 269100, Note_on_c, 0, 60, 127
2, 269100, Note_on_c, 6, 78, 127
2, 269254, Note_on_c, 4, 76, 127
2, 269406, Note_off_c, 4, 76, 127
2, 269408, Note_on_c, 2, 74, 127
2, 269560, Note_off_c, 6, 78, 127
2, 269562, Note_on_c, 6, 78, 127
2, 269712, Note_off_c, 2, 74, 127
2, 269714, Note_off_c, 6, 78, 127
2, 269714, Note_off_c, 0, 60, 127
2, 269716, Note_on_c, 12, 59, 127
2, 269716, Note_on_c, 8, 80, 127
2, 269870, Note_on_c, 2, 74, 127
2, 270020, Note_off_c, 8, 80, 127
2, 270022, Note_off_c, 2, 74, 127
2, 270022, Note_off_c, 12, 59, 127
2, 270024, Note_on_c, 10, 57, 127
2, 270024, Note_on_c, 0, 72, 127
2, 270178, Note_on_c, 10, 81, 127
2, 270330, Note_off_c, 0, 72, 127
2, 270330, Note_off_c, 10, 57, 127
2, 270332, Note_on_c, 4, 64, 127
2, 270332, Note_on_c, 12, 71, 127
2, 270484, Note_off_c, 10, 81, 127
2, 270486, Note_on_c, 10, 81, 127
2, 270638, Note_off_c, 10, 81, 127
2, 270640, Note_on_c, 4, 52, 127
2, 270640, Note_on_c, 8, 80, 127
2, 270792, Note_off_c, 12, 71, 127
2, 270794, Note_on_c, 2, 74, 127
2, 270946, Note_off_c, 8, 80, 127
2, 270946, Note_off_c, 4, 52, 127
2, 270948, Note_on_c, 10, 57, 127
2, 270948, Note_on_c, 10, 81, 127
2, 271100, Note_off_c, 2, 74, 127
2, 271102, Note_on_c, 1, 73, 127
2, 271254, Note_off_c, 1, 73, 127
2, 271254, Note_off_c, 10, 57, 127
2, 271256, Note_on_c, 7, 55, 127
2, 271256, Note_on_c, 2, 74, 127
2, 271408, Note_off_c, 2, 74, 127
2, 271410, Note_on_c, 4, 76, 127
2, 271562, Note_off_c, 4, 76, 127
2, 271562, Note_off_c, 7, 55, 127
2, 271564, Note_on_c, 5, 53, 127
2, 271564, Note_on_c, 10, 69, 127
2, 271718, Note_on_c, 1, 61, 127
2, 271868, Note_off_c, 10, 69, 127
2, 271870, Note_off_c, 1, 61, 127
2, 271872, Note_off_c, 4, 64, 127
2, 271872, Note_on_c, 12, 71, 127
2, 271872, Note_on_c, 2, 62, 127
2, 272024, Note_off_c, 2, 62, 127
2, 272024, Note_off_c, 12, 71, 127
2, 272026, Note_on_c, 1, 73, 127
2, 272026, Note_on_c, 4, 64, 127
2, 272178, Note_off_c, 4, 64, 127
2, 272178, Note_off_c, 1, 73, 127
2, 272180, Note_on_c, 2, 74, 127
2, 272180, Note_on_c, 10, 57, 127
2, 272332, Note_off_c, 5, 53, 127
2, 272334, Note_on_c, 5, 53, 127
2, 272486, Note_off_c, 5, 53, 127
2, 272486, Note_off_c, 2, 74, 127
2, 272488, Note_on_c, 7, 55, 127
2, 272488, Note_on_c, 4, 76, 127
2, 272629, Note_off_c, 10, 57, 127
2, 272640, Note_off_c, 4, 76, 127
2, 272640, Note_off_c, 7, 55, 127
2, 272642, Note_on_c, 10, 57, 127
2, 272642, Note_on_c, 5, 77, 127
2, 272794, Note_off_c, 5, 77, 127
2, 272794, Note_off_c, 10, 57, 127
2, 272796, Note_on_c, 6, 54, 127
2, 272796, Note_on_c, 3, 51, 127
2, 272796, Note_on_c, 12, 71, 127
2, 272948, Note_off_c, 10, 81, 127
2, 272950, Note_on_c, 8, 80, 127
2, 273102, Note_off_c, 8, 80, 127
2, 273104, Note_on_c, 10, 81, 127
2, 273256, Note_off_c, 10, 81, 127
2, 273258, Note_on_c, 12, 83, 127
2, 273405, Note_off_c, 12, 71, 127
2, 273410, Note_off_c, 12, 83, 127
2, 273410, Note_off_c, 3, 51, 127
2, 273410, Note_off_c, 6, 54, 127
2, 273412, Note_on_c, 2, 50, 127
2, 273412, Note_on_c, 4, 76, 127
2, 273566, Note_on_c, 8, 68, 127
2, 273718, Note_off_c, 8, 68, 127
2, 273720, Note_on_c, 10, 69, 127
2, 273872, Note_off_c, 10, 69, 127
2, 273874, Note_on_c, 12, 71, 127
2, 274026, Note_off_c, 12, 71, 127
2, 274026, Note_off_c, 2, 50, 127
2, 274028, Note_on_c, 0, 48, 127
2, 274028, Note_on_c, 4, 64, 127
2, 274182, Note_on_c, 10, 57, 127
2, 274334, Note_off_c, 10, 57, 127
2, 274336, Note_on_c, 12, 59, 127
2, 274488, Note_off_c, 12, 59, 127
2, 274490, Note_on_c, 0, 60, 127
2, 274637, Note_off_c, 4, 64, 127
2, 274642, Note_off_c, 0, 60, 127
2, 274642, Note_off_c, 4, 76, 127
2, 274644, Note_on_c, 6, 54, 127
2, 274798, Note_on_c, 10, 69, 127
2, 274950, Note_off_c, 10, 69, 127
2, 274952, Note_on_c, 12, 71, 127
2, 275104, Note_off_c, 12, 71, 127
2, 275106, Note_on_c, 0, 72, 127
2, 275258, Note_off_c, 0, 72, 127
2, 275258, Note_off_c, 6, 54, 127
2, 275258, Note_off_c, 0, 48, 127
2, 275260, Note_on_c, 12, 47, 127
2, 275260, Note_on_c, 2, 74, 127
2, 275414, Note_on_c, 8, 56, 127
2, 275566, Note_off_c, 8, 56, 127
2, 275568, Note_on_c, 10, 57, 127
2, 275720, Note_off_c, 10, 57, 127
2, 275722, Note_on_c, 12, 59, 127
2, 275869, Note_off_c, 12, 47, 127
2, 275874, Note_off_c, 12, 59, 127
2, 275876, Note_on_c, 0, 48, 127
2, 275876, Note_on_c, 4, 52, 127
2, 276053, Note_on_c, 8, 68, 127
2, 276228, Note_off_c, 8, 68, 127
2, 276228, Note_off_c, 4, 52, 127
2, 276228, Note_off_c, 2, 74, 127
2, 276230, Note_on_c, 10, 57, 127
2, 276230, Note_on_c, 10, 69, 127
2, 276230, Note_on_c, 0, 72, 127
2, 276392, Note_off_c, 0, 48, 127
2, 276405, Note_off_c, 0, 72, 127
2, 276407, Note_on_c, 2, 50, 127
2, 276407, Note_on_c, 12, 71, 127
2, 276582, Note_off_c, 12, 71, 127
2, 276582, Note_off_c, 2, 50, 127
2, 276582, Note_off_c, 10, 69, 127
2, 276584, Note_on_c, 4, 52, 127
2, 276584, Note_on_c, 2, 62, 127
2, 276584, Note_on_c, 0, 72, 127
2, 276643, Note_on_c, 12, 71, 127
2, 276645, Note_off_c, 0, 72, 127
2, 276702, Note_on_c, 0, 72, 127
2, 276704, Note_off_c, 12, 71, 127
2, 276761, Note_on_c, 12, 71, 127
2, 276763, Note_off_c, 0, 72, 127
2, 276820, Note_on_c, 0, 72, 127
2, 276822, Note_off_c, 12, 71, 127
2, 276879, Note_on_c, 12, 71, 127
2, 276881, Note_off_c, 0, 72, 127
2, 276931, Note_off_c, 10, 57, 127
2, 276938, Note_on_c, 8, 56, 127
2, 277137, Note_off_c, 12, 71, 127
2, 277159, Note_on_c, 10, 69, 127
2, 277285, Note_off_c, 4, 52, 127
2, 277313, Note_off_c, 2, 62, 127
2, 277315, Note_off_c, 8, 56, 127
2, 277408, Note_off_c, 10, 69, 127
2, 277425, Note_on_c, 4, 64, 127
2, 277425, Note_on_c, 10, 69, 127
2, 277425, Note_on_c, 0, 60, 127
2, 277425, Note_on_c, 10, 57, 127
2, 277425, Note_on_c, 10, 45, 127
2, 279625, Note_off_c, 10, 45, 127
2, 279625, Note_off_c, 10, 57, 127
2, 279625, Note_off_c, 0, 60, 127
2, 279625, Note_off_c, 10, 69, 127
2, 279625, Note_off_c, 4, 64, 127
2, 281545, Note_on_c, 0, 60, 127
2, 281545, Note_on_c, 4, 64, 127
2, 281545, Note_on_c, 10, 57, 127
2, 282254, Note_on_c, 10, 69, 127
2, 282784, Note_off_c, 10, 69, 127
2, 282849, Note_on_c, 0, 72, 127
2, 282903, Note_on_c, 12, 71, 127
2, 282936, Note_off_c, 0, 72, 127
2, 282964, Note_on_c, 0, 72, 127
2, 282990, Note_off_c, 12, 71, 127
2, 283494, Note_off_c, 0, 72, 127
2, 283551, Note_on_c, 4, 76, 127
2, 283608, Note_on_c, 2, 74, 127
2, 283638, Note_off_c, 4, 76, 127
2, 283673, Note_on_c, 4, 76, 127
2, 283695, Note_off_c, 2, 74, 127
2, 284203, Note_off_c, 4, 76, 127
2, 284205, Note_on_c, 10, 81, 127
2, 284292, Note_off_c, 10, 81, 127
2, 284294, Note_on_c, 8, 80, 127
2, 284381, Note_off_c, 8, 80, 127
2, 284383, Note_on_c, 10, 81, 127
2, 285149, Note_off_c, 10, 81, 127
2, 285151, Note_on_c, 4, 76, 127
2, 285343, Note_on_c, 10, 81, 127
2, 285431, Note_off_c, 4, 76, 127
2, 285533, Note_off_c, 10, 81, 127
2, 285535, Note_on_c, 4, 76, 127
2, 285725, Note_off_c, 4, 76, 127
2, 285727, Note_on_c, 2, 74, 127
2, 285917, Note_off_c, 2, 74, 127
2, 285919, Note_on_c, 0, 72, 127
2, 286111, Note_on_c, 4, 76, 127
2, 286159, Note_off_c, 0, 72, 127
2, 286301, Note_off_c, 4, 76, 127
2, 286303, Note_on_c, 0, 72, 127
2, 286493, Note_off_c, 0, 72, 127
2, 286495, Note_on_c, 12, 71, 127
2, 286685, Note_off_c, 12, 71, 127
2, 286687, Note_on_c, 10, 69, 127
2, 286879, Note_on_c, 0, 72, 127
2, 286967, Note_off_c, 10, 69, 127
2, 287069, Note_off_c, 0, 72, 127
2, 287071, Note_on_c, 10, 69, 127
2, 287261, Note_off_c, 10, 69, 127
2, 287263, Note_on_c, 7, 67, 127
2, 287439, Note_off_c, 4, 64, 127
2, 287453, Note_off_c, 7, 67, 127
2, 287455, Note_on_c, 5, 65, 127
2, 287647, Note_on_c, 0, 72, 127
2, 287735, Note_off_c, 5, 65, 127
2, 287837, Note_off_c, 0, 72, 127
2, 287839, Note_on_c, 10, 69, 127
2, 288029, Note_off_c, 10, 69, 127
2, 288031, Note_on_c, 7, 67, 127
2, 288221, Note_off_c, 7, 67, 127
2, 288223, Note_on_c, 5, 65, 127
2, 288415, Note_on_c, 10, 69, 127
2, 288463, Note_off_c, 5, 65, 127
2, 288605, Note_off_c, 10, 69, 127
2, 288607, Note_on_c, 7, 67, 127
2, 288797, Note_off_c, 7, 67, 127
2, 288799, Note_on_c, 5, 65, 127
2, 288989, Note_off_c, 5, 65, 127
2, 288989, Note_off_c, 10, 57, 127
2, 288989, Note_off_c, 0, 60, 127
2, 288991, Note_on_c, 4, 64, 127
2, 288991, Note_on_c, 12, 59, 127
2, 288991, Note_on_c, 7, 55, 127
2, 289202, Note_off_c, 4, 64, 127
2, 289204, Note_on_c, 0, 72, 127
2, 289415, Note_off_c, 0, 72, 127
2, 289417, Note_on_c, 12, 71, 127
2, 289628, Note_off_c, 12, 71, 127
2, 289630, Note_on_c, 2, 74, 127
2, 289734, Note_off_c, 2, 74, 127
2, 289736, Note_on_c, 0, 72, 127
2, 289840, Note_off_c, 0, 72, 127
2, 289840, Note_off_c, 12, 59, 127
2, 289842, Note_on_c, 0, 72, 127
2, 289842, Note_on_c, 4, 64, 127
2, 290053, Note_off_c, 0, 72, 127
2, 290055, Note_on_c, 12, 71, 127
2, 290266, Note_off_c, 12, 71, 127
2, 290268, Note_on_c, 10, 69, 127
2, 290372, Note_off_c, 10, 69, 127
2, 290374, Note_on_c, 8, 68, 127
2, 290478, Note_off_c, 8, 68, 127
2, 290480, Note_on_c, 12, 71, 127
2, 290584, Note_off_c, 12, 71, 127
2, 290586, Note_on_c, 10, 69, 127
2, 290690, Note_off_c, 10, 69, 127
2, 290690, Note_off_c, 4, 64, 127
2, 290690, Note_off_c, 7, 55, 127
2, 290692, Note_on_c, 10, 69, 127
2, 290692, Note_on_c, 5, 53, 127
2, 291172, Note_on_c, 1, 61, 127
2, 291290, Note_off_c, 10, 69, 127
2, 291292, Note_on_c, 10, 69, 127
2, 291410, Note_off_c, 10, 69, 127
2, 291412, Note_on_c, 12, 71, 127
2, 291530, Note_off_c, 12, 71, 127
2, 291532, Note_on_c, 1, 73, 127
2, 291650, Note_off_c, 1, 73, 127
2, 291650, Note_off_c, 1, 61, 127
2, 291652, Note_on_c, 2, 74, 127
2, 291652, Note_on_c, 10, 57, 127
2, 291770, Note_off_c, 2, 74, 127
2, 291772, Note_on_c, 1, 73, 127
2, 291890, Note_off_c, 1, 73, 127
2, 291892, Note_on_c, 2, 74, 127
2, 292010, Note_off_c, 2, 74, 127
2, 292012, Note_on_c, 4, 76, 127
2, 292130, Note_off_c, 4, 76, 127
2, 292130, Note_off_c, 10, 57, 127
2, 292132, Note_on_c, 5, 77, 127
2, 292132, Note_on_c, 1, 61, 127
2, 292250, Note_off_c, 5, 77, 127
2, 292252, Note_on_c, 4, 76, 127
2, 292370, Note_off_c, 4, 76, 127
2, 292372, Note_on_c, 2, 74, 127
2, 292490, Note_off_c, 2, 74, 127
2, 292492, Note_on_c, 4, 76, 127
2, 292610, Note_off_c, 4, 76, 127
2, 292610, Note_off_c, 1, 61, 127
2, 292612, Note_on_c, 5, 77, 127
2, 292612, Note_on_c, 2, 62, 127
2, 293182, Note_off_c, 5, 77, 127
2, 293192, Note_on_c, 7, 79, 127
2, 293332, Note_off_c, 7, 79, 127
2, 293332, Note_on_c, 10, 81, 127
2, 293450, Note_off_c, 10, 81, 127
2, 293452, Note_on_c, 7, 79, 127
2, 293570, Note_off_c, 7, 79, 127
2, 293572, Note_on_c, 5, 77, 127
2, 293690, Note_off_c, 5, 77, 127
2, 293692, Note_on_c, 4, 76, 127
2, 293810, Note_off_c, 4, 76, 127
2, 293812, Note_on_c, 2, 74, 127
2, 293930, Note_off_c, 2, 74, 127
2, 293932, Note_on_c, 0, 72, 127
2, 294050, Note_off_c, 0, 72, 127
2, 294052, Note_on_c, 12, 71, 127
2, 294157, Note_off_c, 12, 71, 127
2, 294157, Note_on_c, 0, 72, 127
2, 294262, Note_off_c, 0, 72, 127
2, 294262, Note_on_c, 12, 71, 127
2, 294352, Note_on_c, 0, 72, 127
2, 294367, Note_off_c, 12, 71, 127
2, 294442, Note_on_c, 2, 74, 127
2, 294457, Note_off_c, 0, 72, 127
2, 294517, Note_off_c, 5, 53, 127
2, 294532, Note_on_c, 8, 68, 127
2, 294532, Note_on_c, 4, 52, 127
2, 294550, Note_off_c, 2, 74, 127
2, 294650, Note_off_c, 8, 68, 127
2, 294652, Note_on_c, 4, 76, 127
2, 294770, Note_off_c, 4, 76, 127
2, 294772, Note_on_c, 2, 74, 127
2, 294890, Note_off_c, 2, 74, 127
2, 294892, Note_on_c, 0, 72, 127
2, 295010, Note_off_c, 0, 72, 127
2, 295012, Note_on_c, 12, 71, 127
2, 295130, Note_off_c, 12, 71, 127
2, 295132, Note_on_c, 10, 69, 127
2, 295250, Note_off_c, 10, 69, 127
2, 295252, Note_on_c, 8, 68, 127
2, 295370, Note_off_c, 8, 68, 127
2, 295372, Note_on_c, 10, 69, 127
2, 295487, Note_off_c, 2, 62, 127
2, 295489, Note_off_c, 10, 69, 127
2, 295491, Note_on_c, 12, 71, 127
2, 295491, Note_on_c, 0, 60, 127
2, 295696, Note_off_c, 12, 71, 127
2, 295698, Note_on_c, 10, 69, 127
2, 295880, Note_on_c, 12, 71, 127
2, 295902, Note_off_c, 10, 69, 127
2, 295967, Note_off_c, 0, 60, 127
2, 295969, Note_on_c, 12, 59, 127
2, 295979, Note_off_c, 12, 71, 127
2, 295979, Note_on_c, 10, 69, 127
2, 296069, Note_on_c, 12, 71, 127
2, 296097, Note_off_c, 10, 69, 127
2, 296165, Note_on_c, 10, 69, 127
2, 296170, Note_off_c, 12, 71, 127
2, 296208, Note_off_c, 12, 59, 127
2, 296210, Note_on_c, 10, 57, 127
2, 296260, Note_on_c, 8, 68, 127
2, 296265, Note_off_c, 10, 69, 127
2, 296355, Note_on_c, 10, 69, 127
2, 296360, Note_off_c, 8, 68, 127
2, 296442, Note_off_c, 10, 69, 127
2, 296447, Note_off_c, 10, 57, 127
2, 296449, Note_on_c, 10, 69, 127
2, 296449, Note_on_c, 12, 59, 127
2, 296927, Note_off_c, 10, 69, 127
2, 296929, Note_on_c, 8, 68, 127
2, 297457, Note_on_c, 12, 71, 127
2, 298129, Note_off_c, 8, 68, 127
2, 298154, Note_off_c, 12, 71, 127
2, 298354, Note_off_c, 4, 52, 127
2, 298366, Note_off_c, 12, 59, 127
2, 298368, Note_on_c, 12, 71, 127
2, 298368, Note_on_c, 4, 52, 127
2, 298368, Note_on_c, 8, 56, 127
2, 298514, Note_off_c, 12, 71, 127
2, 298516, Note_on_c, 0, 72, 127
2, 298662, Note_off_c, 0, 72, 127
2, 298664, Note_on_c, 12, 71, 127
2, 298810, Note_off_c, 12, 71, 127
2, 298812, Note_on_c, 10, 69, 127
2, 298958, Note_off_c, 10, 69, 127
2, 298960, Note_on_c, 8, 68, 127
2, 299106, Note_off_c, 8, 68, 127
2, 299108, Note_on_c, 10, 69, 127
2, 299254, Note_off_c, 10, 69, 127
2, 299254, Note_off_c, 8, 56, 127
2, 299254, Note_off_c, 4, 52, 127
2, 299256, Note_on_c, 8, 68, 127
2, 299256, Note_on_c, 10, 57, 127
2, 299256, Note_on_c, 6, 54, 127
2, 299402, Note_off_c, 8, 68, 127
2, 299404, Note_on_c, 6, 66, 127
2, 299550, Note_off_c, 6, 66, 127
2, 299550, Note_off_c, 6, 54, 127
2, 299550, Note_off_c, 10, 57, 127
2, 299552, Note_on_c, 4, 64, 127
2, 299552, Note_on_c, 12, 59, 127
2, 299552, Note_on_c, 8, 56, 127
2, 299698, Note_off_c, 4, 64, 127
2, 299700, Note_on_c, 12, 71, 127
2, 299846, Note_off_c, 12, 71, 127
2, 299848, Note_on_c, 0, 72, 127
2, 299994, Note_off_c, 0, 72, 127
2, 299996, Note_on_c, 2, 74, 127
2, 300142, Note_off_c, 2, 74, 127
2, 300144, Note_on_c, 4, 76, 127
2, 300290, Note_off_c, 8, 56, 127
2, 300292, Note_on_c, 4, 52, 127
2, 300438, Note_off_c, 4, 52, 127
2, 300440, Note_on_c, 6, 54, 127
2, 300586, Note_off_c, 6, 54, 127
2, 300588, Note_on_c, 8, 56, 127
2, 300734, Note_off_c, 8, 56, 127
2, 300734, Note_off_c, 12, 59, 127
2, 300736, Note_on_c, 0, 60, 127
2, 300736, Note_on_c, 10, 57, 127
2, 300882, Note_off_c, 4, 76, 127
2, 300884, Note_on_c, 2, 74, 127
2, 301030, Note_off_c, 2, 74, 127
2, 301030, Note_off_c, 0, 60, 127
2, 301032, Note_on_c, 0, 72, 127
2, 301032, Note_on_c, 2, 62, 127
2, 301178, Note_off_c, 0, 72, 127
2, 301180, Note_on_c, 12, 71, 127
2, 301326, Note_off_c, 12, 71, 127
2, 301326, Note_off_c, 2, 62, 127
2, 301328, Note_on_c, 0, 72, 127
2, 301328, Note_on_c, 4, 64, 127
2, 301474, Note_off_c, 0, 72, 127
2, 301476, Note_on_c, 2, 74, 127
2, 301622, Note_off_c, 2, 74, 127
2, 301622, Note_off_c, 4, 64, 127
2, 301624, Note_on_c, 12, 71, 127
2, 301624, Note_on_c, 2, 62, 127
2, 301770, Note_off_c, 12, 71, 127
2, 301772, Note_on_c, 0, 72, 127
2, 301918, Note_off_c, 0, 72, 127
2, 301918, Note_off_c, 2, 62, 127
2, 301920, Note_on_c, 10, 69, 127
2, 301920, Note_on_c, 0, 60, 127
2, 302066, Note_off_c, 10, 69, 127
2, 302068, Note_on_c, 0, 72, 127
2, 302214, Note_off_c, 0, 72, 127
2, 302214, Note_off_c, 0, 60, 127
2, 302216, Note_on_c, 2, 74, 127
2, 302216, Note_on_c, 12, 59, 127
2, 302362, Note_off_c, 2, 74, 127
2, 302364, Note_on_c, 4, 76, 127
2, 302510, Note_off_c, 4, 76, 127
2, 302510, Note_off_c, 12, 59, 127
2, 302512, Note_on_c, 5, 77, 127
2, 302512, Note_on_c, 0, 60, 127
2, 302658, Note_off_c, 5, 77, 127
2, 302660, Note_on_c, 4, 76, 127
2, 302802, Note_off_c, 10, 57, 127
2, 302807, Note_off_c, 4, 76, 127
2, 302807, Note_off_c, 0, 60, 127
2, 302809, Note_on_c, 7, 79, 127
2, 302809, Note_on_c, 2, 62, 127
2, 302809, Note_on_c, 12, 59, 127
2, 302955, Note_off_c, 7, 79, 127
2, 302957, Note_on_c, 5, 77, 127
2, 303103, Note_off_c, 5, 77, 127
2, 303103, Note_off_c, 12, 59, 127
2, 303103, Note_off_c, 2, 62, 127
2, 303105, Note_on_c, 4, 76, 127
2, 303105, Note_on_c, 0, 60, 127
2, 303251, Note_off_c, 4, 76, 127
2, 303253, Note_on_c, 7, 79, 127
2, 303253, Note_on_c, 4, 64, 127
2, 303399, Note_off_c, 4, 64, 127
2, 303399, Note_off_c, 7, 79, 127
2, 303401, Note_on_c, 10, 81, 127
2, 303401, Note_on_c, 5, 65, 127
2, 303547, Note_off_c, 5, 65, 127
2, 303547, Note_off_c, 10, 81, 127
2, 303549, Note_on_c, 12, 83, 127
2, 303549, Note_on_c, 2, 62, 127
2, 303695, Note_off_c, 2, 62, 127
2, 303695, Note_off_c, 12, 83, 127
2, 303697, Note_on_c, 0, 84, 127
2, 303697, Note_on_c, 4, 64, 127
2, 303843, Note_off_c, 0, 84, 127
2, 303845, Note_on_c, 7, 79, 127
2, 303991, Note_off_c, 7, 79, 127
2, 303993, Note_on_c, 10, 81, 127
2, 304139, Note_off_c, 10, 81, 127
2, 304141, Note_on_c, 4, 76, 127
2, 304287, Note_off_c, 4, 76, 127
2, 304287, Note_off_c, 4, 64, 127
2, 304287, Note_off_c, 0, 60, 127
2, 304289, Note_on_c, 5, 77, 127
2, 304289, Note_on_c, 2, 62, 127
2, 304435, Note_off_c, 5, 77, 127
2, 304437, Note_on_c, 2, 74, 127
2, 304583, Note_off_c, 2, 74, 127
2, 304585, Note_on_c, 4, 76, 127
2, 304731, Note_off_c, 4, 76, 127
2, 304733, Note_on_c, 5, 77, 127
2, 304879, Note_off_c, 5, 77, 127
2, 304881, Note_on_c, 7, 79, 127
2, 304881, Note_on_c, 12, 59, 127
2, 305027, Note_off_c, 7, 79, 127
2, 305029, Note_on_c, 5, 77, 127
2, 305175, Note_off_c, 5, 77, 127
2, 305177, Note_on_c, 7, 79, 127
2, 305323, Note_off_c, 7, 79, 127
2, 305325, Note_on_c, 2, 74, 127
2, 305471, Note_off_c, 2, 74, 127
2, 305471, Note_off_c, 12, 59, 127
2, 305471, Note_off_c, 2, 62, 127
2, 305473, Note_on_c, 4, 76, 127
2, 305473, Note_on_c, 0, 60, 127
2, 305619, Note_off_c, 4, 76, 127
2, 305621, Note_on_c, 5, 77, 127
2, 305767, Note_off_c, 5, 77, 127
2, 305769, Note_on_c, 4, 76, 127
2, 305915, Note_off_c, 4, 76, 127
2, 305917, Note_on_c, 2, 74, 127
2, 306063, Note_off_c, 2, 74, 127
2, 306063, Note_off_c, 0, 60, 127
2, 306065, Note_on_c, 4, 76, 127
2, 306065, Note_on_c, 7, 55, 127
2, 306065, Note_on_c, 12, 59, 127
2, 306211, Note_off_c, 4, 76, 127
2, 306213, Note_on_c, 12, 71, 127
2, 306359, Note_off_c, 12, 71, 127
2, 306361, Note_on_c, 0, 72, 127
2, 306507, Note_off_c, 0, 72, 127
2, 306509, Note_on_c, 2, 74, 127
2, 306655, Note_off_c, 2, 74, 127
2, 306655, Note_off_c, 12, 59, 127
2, 306655, Note_off_c, 7, 55, 127
2, 306657, Note_on_c, 0, 72, 127
2, 306657, Note_on_c, 10, 57, 127
2, 306803, Note_off_c, 0, 72, 127
2, 306805, Note_on_c, 2, 74, 127
2, 306951, Note_off_c, 2, 74, 127
2, 306953, Note_on_c, 0, 72, 127
2, 307099, Note_off_c, 0, 72, 127
2, 307101, Note_on_c, 12, 71, 127
2, 307247, Note_off_c, 12, 71, 127
2, 307247, Note_off_c, 10, 57, 127
2, 307249, Note_on_c, 0, 72, 127
2, 307249, Note_on_c, 4, 52, 127
2, 307249, Note_on_c, 7, 55, 127
2, 307395, Note_off_c, 0, 72, 127
2, 307397, Note_on_c, 7, 67, 127
2, 307543, Note_off_c, 7, 67, 127
2, 307545, Note_on_c, 10, 69, 127
2, 307691, Note_off_c, 10, 69, 127
2, 307693, Note_on_c, 11, 70, 127
2, 307839, Note_off_c, 11, 70, 127
2, 307839, Note_off_c, 7, 55, 127
2, 307839, Note_off_c, 4, 52, 127
2, 307841, Note_on_c, 10, 69, 127
2, 307841, Note_on_c, 5, 53, 127
2, 307987, Note_off_c, 10, 69, 127
2, 307989, Note_on_c, 11, 70, 127
2, 308135, Note_off_c, 11, 70, 127
2, 308137, Note_on_c, 10, 69, 127
2, 308283, Note_off_c, 10, 69, 127
2, 308285, Note_on_c, 7, 67, 127
2, 308431, Note_off_c, 7, 67, 127
2, 308431, Note_off_c, 5, 53, 127
2, 308433, Note_on_c, 10, 69, 127
2, 308433, Note_on_c, 4, 52, 127
2, 308433, Note_on_c, 1, 49, 127
2, 308579, Note_off_c, 10, 69, 127
2, 308581, Note_on_c, 4, 64, 127
2, 308727, Note_off_c, 4, 64, 127
2, 308729, Note_on_c, 5, 65, 127
2, 308875, Note_off_c, 5, 65, 127
2, 308877, Note_on_c, 7, 67, 127
2, 309023, Note_off_c, 7, 67, 127
2, 309023, Note_off_c, 1, 49, 127
2, 309023, Note_off_c, 4, 52, 127
2, 309025, Note_on_c, 5, 65, 127
2, 309025, Note_on_c, 2, 50, 127
2, 309171, Note_off_c, 5, 65, 127
2, 309173, Note_on_c, 7, 67, 127
2, 309319, Note_off_c, 7, 67, 127
2, 309321, Note_on_c, 5, 65, 127
2, 309467, Note_off_c, 5, 65, 127
2, 309469, Note_on_c, 4, 64, 127
2, 309615, Note_off_c, 4, 64, 127
2, 309615, Note_off_c, 2, 50, 127
2, 309617, Note_on_c, 5, 65, 127
2, 309617, Note_on_c, 2, 50, 127
2, 309617, Note_on_c, 8, 44, 127
2, 309617, Note_on_c, 12, 47, 127
2, 309763, Note_off_c, 5, 65, 127
2, 309765, Note_on_c, 12, 59, 127
2, 309911, Note_off_c, 12, 59, 127
2, 309911, Note_off_c, 2, 50, 127
2, 309913, Note_on_c, 0, 60, 127
2, 309913, Note_on_c, 4, 52, 127
2, 310059, Note_off_c, 0, 60, 127
2, 310061, Note_on_c, 2, 62, 127
2, 310203, Note_off_c, 12, 47, 127
2, 310203, Note_off_c, 8, 44, 127
2, 310208, Note_off_c, 2, 62, 127
2, 310210, Note_on_c, 0, 60, 127
2, 310210, Note_on_c, 10, 45, 127
2, 310356, Note_off_c, 0, 60, 127
2, 310358, Note_on_c, 2, 62, 127
2, 310500, Note_off_c, 4, 52, 127
2, 310505, Note_off_c, 2, 62, 127
2, 310507, Note_on_c, 12, 59, 127
2, 310507, Note_on_c, 4, 52, 127
2, 310653, Note_off_c, 12, 59, 127
2, 310655, Note_on_c, 2, 62, 127
2, 310801, Note_off_c, 2, 62, 127
2, 310801, Note_off_c, 4, 52, 127
2, 310803, Note_on_c, 0, 60, 127
2, 310803, Note_on_c, 10, 57, 127
2, 310949, Note_off_c, 0, 60, 127
2, 310951, Note_on_c, 4, 64, 127
2, 311097, Note_off_c, 4, 64, 127
2, 311097, Note_off_c, 10, 45, 127
2, 311099, Note_on_c, 2, 62, 127
2, 311099, Note_on_c, 12, 47, 127
2, 311245, Note_off_c, 2, 62, 127
2, 311247, Note_on_c, 5, 65, 127
2, 311393, Note_off_c, 5, 65, 127
2, 311393, Note_off_c, 12, 47, 127
2, 311395, Note_on_c, 4, 64, 127
2, 311395, Note_on_c, 0, 48, 127
2, 311541, Note_off_c, 4, 64, 127
2, 311543, Note_on_c, 5, 65, 127
2, 311689, Note_off_c, 5, 65, 127
2, 311689, Note_off_c, 0, 48, 127
2, 311691, Note_on_c, 2, 62, 127
2, 311691, Note_on_c, 12, 47, 127
2, 311837, Note_off_c, 2, 62, 127
2, 311839, Note_on_c, 5, 65, 127
2, 311985, Note_off_c, 5, 65, 127
2, 311985, Note_off_c, 12, 47, 127
2, 311987, Note_on_c, 4, 64, 127
2, 311987, Note_on_c, 0, 48, 127
2, 312133, Note_off_c, 4, 64, 127
2, 312135, Note_on_c, 7, 67, 127
2, 312281, Note_off_c, 7, 67, 127
2, 312281, Note_off_c, 0, 48, 127
2, 312283, Note_on_c, 6, 66, 127
2, 312283, Note_on_c, 10, 45, 127
2, 312429, Note_off_c, 6, 66, 127
2, 312431, Note_on_c, 10, 69, 127
2, 312576, Note_off_c, 10, 57, 127
2, 312578, Note_off_c, 10, 69, 127
2, 312578, Note_off_c, 10, 45, 127
2, 312580, Note_on_c, 8, 68, 127
2, 312580, Note_on_c, 12, 59, 127
2, 312580, Note_on_c, 4, 52, 127
2, 312726, Note_off_c, 8, 68, 127
2, 312728, Note_on_c, 10, 69, 127
2, 312874, Note_off_c, 10, 69, 127
2, 312874, Note_off_c, 4, 52, 127
2, 312876, Note_on_c, 6, 66, 127
2, 312876, Note_on_c, 3, 51, 127
2, 313022, Note_off_c, 6, 66, 127
2, 313024, Note_on_c, 10, 69, 127
2, 313170, Note_off_c, 10, 69, 127
2, 313170, Note_off_c, 3, 51, 127
2, 313172, Note_on_c, 8, 68, 127
2, 313172, Note_on_c, 4, 52, 127
2, 313318, Note_off_c, 8, 68, 127
2, 313320, Note_on_c, 12, 71, 127
2, 313466, Note_off_c, 12, 71, 127
2, 313466, Note_off_c, 4, 52, 127
2, 313468, Note_on_c, 10, 69, 127
2, 313468, Note_on_c, 6, 54, 127
2, 313614, Note_off_c, 10, 69, 127
2, 313616, Note_on_c, 0, 72, 127
2, 313762, Note_off_c, 0, 72, 127
2, 313762, Note_off_c, 6, 54, 127
2, 313762, Note_off_c, 12, 59, 127
2, 313764, Note_on_c, 12, 71, 127
2, 313764, Note_on_c, 8, 56, 127
2, 313764, Note_on_c, 4, 64, 127
2, 313910, Note_off_c, 12, 71, 127
2, 313912, Note_on_c, 0, 72, 127
2, 314058, Note_off_c, 0, 72, 127
2, 314058, Note_off_c, 8, 56, 127
2, 314060, Note_on_c, 10, 69, 127
2, 314060, Note_on_c, 6, 54, 127
2, 314206, Note_off_c, 10, 69, 127
2, 314208, Note_on_c, 0, 72, 127
2, 314354, Note_off_c, 0, 72, 127
2, 314354, Note_off_c, 6, 54, 127
2, 314356, Note_on_c, 12, 71, 127
2, 314356, Note_on_c, 8, 56, 127
2, 314502, Note_off_c, 12, 71, 127
2, 314504, Note_on_c, 2, 74, 127
2, 314650, Note_off_c, 2, 74, 127
2, 314650, Note_off_c, 8, 56, 127
2, 314652, Note_on_c, 0, 72, 127
2, 314652, Note_on_c, 4, 52, 127
2, 314798, Note_off_c, 0, 72, 127
2, 314800, Note_on_c, 12, 71, 127
2, 314946, Note_off_c, 12, 71, 127
2, 314946, Note_off_c, 4, 52, 127
2, 314946, Note_off_c, 4, 64, 127
2, 314948, Note_on_c, 0, 72, 127
2, 314948, Note_on_c, 10, 57, 127
2, 314948, Note_on_c, 4, 64, 127
2, 315094, Note_off_c, 0, 72, 127
2, 315096, Note_on_c, 2, 74, 127
2, 315242, Note_off_c, 2, 74, 127
2, 315242, Note_off_c, 10, 57, 127
2, 315244, Note_on_c, 12, 71, 127
2, 315244, Note_on_c, 8, 56, 127
2, 315390, Note_off_c, 12, 71, 127
2, 315392, Note_on_c, 2, 74, 127
2, 315538, Note_off_c, 2, 74, 127
2, 315538, Note_off_c, 8, 56, 127
2, 315540, Note_on_c, 0, 72, 127
2, 315540, Note_on_c, 10, 57, 127
2, 315686, Note_off_c, 0, 72, 127
2, 315688, Note_on_c, 4, 76, 127
2, 315834, Note_off_c, 4, 76, 127
2, 315834, Note_off_c, 10, 57, 127
2, 315836, Note_on_c, 2, 74, 127
2, 315836, Note_on_c, 12, 59, 127
2, 315982, Note_off_c, 2, 74, 127
2, 315984, Note_on_c, 5, 77, 127
2, 316130, Note_off_c, 5, 77, 127
2, 316130, Note_off_c, 12, 59, 127
2, 316130, Note_off_c, 4, 64, 127
2, 316132, Note_on_c, 4, 76, 127
2, 316132, Note_on_c, 0, 60, 127
2, 316132, Note_on_c, 10, 69, 127
2, 316278, Note_off_c, 4, 76, 127
2, 316280, Note_on_c, 5, 77, 127
2, 316426, Note_off_c, 5, 77, 127
2, 316426, Note_off_c, 0, 60, 127
2, 316428, Note_on_c, 2, 74, 127
2, 316428, Note_on_c, 12, 59, 127
2, 316574, Note_off_c, 2, 74, 127
2, 316576, Note_on_c, 5, 77, 127
2, 316722, Note_off_c, 5, 77, 127
2, 316722, Note_off_c, 12, 59, 127
2, 316724, Note_on_c, 4, 76, 127
2, 316724, Note_on_c, 0, 60, 127
2, 316870, Note_off_c, 4, 76, 127
2, 316872, Note_on_c, 7, 79, 127
2, 317018, Note_off_c, 7, 79, 127
2, 317018, Note_off_c, 0, 60, 127
2, 317020, Note_on_c, 6, 78, 127
2, 317020, Note_on_c, 10, 57, 127
2, 317166, Note_off_c, 6, 78, 127
2, 317168, Note_on_c, 10, 81, 127
2, 317314, Note_off_c, 10, 81, 127
2, 317314, Note_off_c, 10, 57, 127
2, 317314, Note_off_c, 10, 69, 127
2, 317316, Note_on_c, 8, 80, 127
2, 317316, Note_on_c, 12, 71, 127
2, 317316, Note_on_c, 4, 64, 127
2, 317462, Note_off_c, 8, 80, 127
2, 317464, Note_on_c, 10, 81, 127
2, 317610, Note_off_c, 10, 81, 127
2, 317610, Note_off_c, 4, 64, 127
2, 317612, Note_on_c, 6, 78, 127
2, 317612, Note_on_c, 3, 63, 127
2, 317758, Note_off_c, 6, 78, 127
2, 317760, Note_on_c, 10, 81, 127
2, 317906, Note_off_c, 10, 81, 127
2, 317906, Note_off_c, 3, 63, 127
2, 317908, Note_on_c, 8, 80, 127
2, 317908, Note_on_c, 4, 64, 127
2, 318054, Note_off_c, 8, 80, 127
2, 318056, Note_on_c, 12, 83, 127
2, 318202, Note_off_c, 12, 83, 127
2, 318202, Note_off_c, 4, 64, 127
2, 318204, Note_on_c, 10, 81, 127
2, 318204, Note_on_c, 6, 66, 127
2, 318350, Note_off_c, 10, 81, 127
2, 318352, Note_on_c, 0, 84, 127
2, 318498, Note_off_c, 0, 84, 127
2, 318498, Note_off_c, 6, 66, 127
2, 318498, Note_off_c, 12, 71, 127
2, 318500, Note_on_c, 12, 83, 127
2, 318500, Note_on_c, 12, 71, 127
2, 318500, Note_on_c, 8, 68, 127
2, 318646, Note_off_c, 12, 83, 127
2, 318648, Note_on_c, 10, 81, 127
2, 318794, Note_off_c, 10, 81, 127
2, 318796, Note_on_c, 8, 80, 127
2, 318942, Note_off_c, 8, 80, 127
2, 318944, Note_on_c, 6, 78, 127
2, 319090, Note_off_c, 6, 78, 127
2, 319092, Note_on_c, 4, 76, 127
2, 319238, Note_off_c, 4, 76, 127
2, 319240, Note_on_c, 2, 74, 127
2, 319386, Note_off_c, 2, 74, 127
2, 319386, Note_off_c, 8, 68, 127
2, 319386, Note_off_c, 12, 71, 127
2, 319388, Note_on_c, 0, 72, 127
2, 319388, Note_on_c, 4, 64, 127
2, 319534, Note_off_c, 0, 72, 127
2, 319536, Note_on_c, 12, 71, 127
2, 319682, Note_off_c, 12, 71, 127
2, 319682, Note_off_c, 4, 64, 127
2, 319684, Note_on_c, 0, 72, 127
2, 319684, Note_on_c, 10, 69, 127
2, 319830, Note_off_c, 10, 69, 127
2, 319832, Note_on_c, 7, 67, 127
2, 319978, Note_off_c, 7, 67, 127
2, 319980, Note_on_c, 5, 65, 127
2, 320126, Note_off_c, 5, 65, 127
2, 320128, Note_on_c, 4, 64, 127
2, 320270, Note_off_c, 0, 72, 127
2, 320275, Note_off_c, 4, 64, 127
2, 320277, Note_on_c, 2, 62, 127
2, 320423, Note_off_c, 2, 62, 127
2, 320425, Note_on_c, 0, 72, 127
2, 320425, Note_on_c, 0, 60, 127
2, 320571, Note_off_c, 0, 60, 127
2, 320571, Note_off_c, 0, 72, 127
2, 320573, Note_on_c, 2, 74, 127
2, 320573, Note_on_c, 12, 59, 127
2, 320719, Note_off_c, 12, 59, 127
2, 320719, Note_off_c, 2, 74, 127
2, 320721, Note_on_c, 4, 76, 127
2, 320721, Note_on_c, 10, 57, 127
2, 320867, Note_off_c, 10, 57, 127
2, 320867, Note_off_c, 4, 76, 127
2, 320869, Note_on_c, 5, 77, 127
2, 320869, Note_on_c, 2, 62, 127
2, 321015, Note_off_c, 5, 77, 127
2, 321017, Note_on_c, 4, 76, 127
2, 321163, Note_off_c, 4, 76, 127
2, 321165, Note_on_c, 2, 74, 127
2, 321165, Note_on_c, 4, 64, 127
2, 321311, Note_off_c, 2, 74, 127
2, 321313, Note_on_c, 0, 72, 127
2, 321459, Note_off_c, 0, 72, 127
2, 321459, Note_off_c, 4, 64, 127
2, 321461, Note_on_c, 12, 71, 127
2, 321461, Note_on_c, 5, 65, 127
2, 321607, Note_off_c, 12, 71, 127
2, 321609, Note_on_c, 10, 69, 127
2, 321755, Note_off_c, 10, 69, 127
2, 321755, Note_off_c, 5, 65, 127
2, 321755, Note_off_c, 2, 62, 127
2, 321757, Note_on_c, 8, 68, 127
2, 321757, Note_on_c, 4, 64, 127
2, 321903, Note_off_c, 4, 64, 127
2, 321903, Note_off_c, 8, 68, 127
2, 321905, Note_on_c, 6, 66, 127
2, 321905, Note_on_c, 2, 62, 127
2, 322051, Note_off_c, 2, 62, 127
2, 322051, Note_off_c, 6, 66, 127
2, 322053, Note_on_c, 8, 68, 127
2, 322053, Note_on_c, 4, 64, 127
2, 322199, Note_off_c, 8, 68, 127
2, 322201, Note_on_c, 12, 71, 127
2, 322347, Note_off_c, 12, 71, 127
2, 322349, Note_on_c, 0, 72, 127
2, 322495, Note_off_c, 0, 72, 127
2, 322497, Note_on_c, 2, 74, 127
2, 322643, Note_off_c, 2, 74, 127
2, 322645, Note_on_c, 4, 76, 127
2, 322791, Note_off_c, 4, 76, 127
2, 322793, Note_on_c, 12, 71, 127
2, 322939, Note_off_c, 12, 71, 127
2, 322941, Note_on_c, 0, 72, 127
2, 323087, Note_off_c, 0, 72, 127
2, 323089, Note_on_c, 8, 68, 127
2, 323235, Note_off_c, 8, 68, 127
2, 323235, Note_off_c, 4, 64, 127
2, 323237, Note_on_c, 10, 69, 127
2, 323237, Note_on_c, 0, 60, 127
2, 323237, Note_on_c, 4, 64, 127
2, 323383, Note_off_c, 10, 69, 127
2, 323385, Note_on_c, 4, 76, 127
2, 323531, Note_off_c, 4, 76, 127
2, 323533, Note_on_c, 5, 77, 127
2, 323679, Note_off_c, 5, 77, 127
2, 323681, Note_on_c, 7, 79, 127
2, 323827, Note_off_c, 7, 79, 127
2, 323829, Note_on_c, 10, 81, 127
2, 323975, Note_off_c, 10, 81, 127
2, 323977, Note_on_c, 4, 76, 127
2, 324123, Note_off_c, 4, 76, 127
2, 324123, Note_off_c, 4, 64, 127
2, 324125, Note_on_c, 5, 77, 127
2, 324125, Note_on_c, 10, 69, 127
2, 324271, Note_off_c, 5, 77, 127
2, 324273, Note_on_c, 0, 72, 127
2, 324419, Note_off_c, 0, 72, 127
2, 324419, Note_off_c, 10, 69, 127
2, 324419, Note_off_c, 0, 60, 127
2, 324421, Note_on_c, 2, 74, 127
2, 324421, Note_on_c, 12, 59, 127
2, 324421, Note_on_c, 10, 69, 127
2, 324567, Note_off_c, 2, 74, 127
2, 324569, Note_on_c, 6, 78, 127
2, 324715, Note_off_c, 6, 78, 127
2, 324717, Note_on_c, 8, 80, 127
2, 324863, Note_off_c, 8, 80, 127
2, 324865, Note_on_c, 10, 81, 127
2, 325011, Note_off_c, 10, 81, 127
2, 325013, Note_on_c, 12, 83, 127
2, 325159, Note_off_c, 12, 83, 127
2, 325161, Note_on_c, 2, 74, 127
2, 325307, Note_off_c, 2, 74, 127
2, 325309, Note_on_c, 5, 77, 127
2, 325455, Note_off_c, 5, 77, 127
2, 325457, Note_on_c, 1, 73, 127
2, 325603, Note_off_c, 1, 73, 127
2, 325603, Note_off_c, 10, 69, 127
2, 325605, Note_on_c, 2, 74, 127
2, 325605, Note_on_c, 8, 68, 127
2, 325751, Note_off_c, 2, 74, 127
2, 325753, Note_on_c, 4, 76, 127
2, 325899, Note_off_c, 4, 76, 127
2, 325901, Note_on_c, 5, 77, 127
2, 326047, Note_off_c, 5, 77, 127
2, 326049, Note_on_c, 4, 76, 127
2, 326194, Note_off_c, 12, 59, 127
2, 326196, Note_off_c, 4, 76, 127
2, 326196, Note_off_c, 8, 68, 127
2, 326198, Note_on_c, 5, 77, 127
2, 326198, Note_on_c, 8, 56, 127
2, 326198, Note_on_c, 12, 59, 127
2, 326344, Note_off_c, 5, 77, 127
2, 326346, Note_on_c, 2, 74, 127
2, 326492, Note_off_c, 2, 74, 127
2, 326494, Note_on_c, 4, 76, 127
2, 326640, Note_off_c, 4, 76, 127
2, 326642, Note_on_c, 12, 71, 127
2, 326788, Note_off_c, 12, 71, 127
2, 326788, Note_off_c, 12, 59, 127
2, 326788, Note_off_c, 8, 56, 127
2, 326790, Note_on_c, 0, 72, 127
2, 326790, Note_on_c, 10, 57, 127
2, 326936, Note_off_c, 0, 72, 127
2, 326938, Note_on_c, 2, 74, 127
2, 327084, Note_off_c, 2, 74, 127
2, 327086, Note_on_c, 4, 76, 127
2, 327234, Note_on_c, 12, 71, 127
2, 327379, Note_off_c, 4, 76, 127
2, 327381, Note_off_c, 12, 71, 127
2, 327383, Note_on_c, 0, 72, 127
2, 327531, Note_on_c, 8, 68, 127
2, 327677, Note_off_c, 8, 68, 127
2, 327679, Note_on_c, 10, 69, 127
2, 327825, Note_off_c, 10, 57, 127
2, 327827, Note_on_c, 3, 51, 127
2, 327969, Note_off_c, 0, 72, 127
2, 327972, Note_off_c, 10, 69, 127
2, 327974, Note_off_c, 3, 51, 127
2, 327976, Note_on_c, 4, 52, 127
2, 328124, Note_on_c, 0, 72, 127
2, 328270, Note_off_c, 0, 72, 127
2, 328272, Note_on_c, 4, 76, 127
2, 328420, Note_on_c, 12, 71, 127
2, 328565, Note_off_c, 4, 76, 127
2, 328567, Note_off_c, 12, 71, 127
2, 328569, Note_on_c, 0, 72, 127
2, 328717, Note_on_c, 8, 68, 127
2, 328863, Note_off_c, 8, 68, 127
2, 328865, Note_on_c, 10, 69, 127
2, 329011, Note_off_c, 4, 52, 127
2, 329013, Note_on_c, 12, 47, 127
2, 329155, Note_off_c, 0, 72, 127
2, 329158, Note_off_c, 10, 69, 127
2, 329160, Note_off_c, 12, 47, 127
2, 329162, Note_on_c, 0, 48, 127
2, 329310, Note_on_c, 0, 72, 127
2, 329456, Note_off_c, 0, 72, 127
2, 329458, Note_on_c, 4, 76, 127
2, 329606, Note_on_c, 12, 71, 127
2, 329751, Note_off_c, 4, 76, 127
2, 329753, Note_off_c, 12, 71, 127
2, 329755, Note_on_c, 0, 72, 127
2, 329903, Note_on_c, 8, 68, 127
2, 330049, Note_off_c, 8, 68, 127
2, 330051, Note_on_c, 10, 69, 127
2, 330197, Note_off_c, 0, 48, 127
2, 330199, Note_on_c, 8, 44, 127
2, 330341, Note_off_c, 0, 72, 127
2, 330344, Note_off_c, 10, 69, 127
2, 330346, Note_off_c, 8, 44, 127
2, 330348, Note_on_c, 10, 45, 127
2, 330496, Note_on_c, 0, 72, 127
2, 330642, Note_off_c, 0, 72, 127
2, 330644, Note_on_c, 4, 76, 127
2, 330792, Note_on_c, 12, 71, 127
2, 330937, Note_off_c, 4, 76, 127
2, 330939, Note_off_c, 12, 71, 127
2, 330941, Note_on_c, 0, 72, 127
2, 331089, Note_on_c, 8, 68, 127
2, 331235, Note_off_c, 8, 68, 127
2, 331237, Note_on_c, 10, 69, 127
2, 331383, Note_off_c, 10, 45, 127
2, 331385, Note_on_c, 0, 36, 127
2, 331527, Note_off_c, 0, 72, 127
2, 331530, Note_off_c, 10, 69, 127
2, 331532, Note_off_c, 0, 36, 127
2, 331534, Note_on_c, 2, 38, 127
2, 331682, Note_on_c, 0, 72, 127
2, 331828, Note_off_c, 0, 72, 127
2, 331830, Note_on_c, 4, 76, 127
2, 331978, Note_on_c, 12, 71, 127
2, 332123, Note_off_c, 4, 76, 127
2, 332125, Note_off_c, 12, 71, 127
2, 332127, Note_on_c, 0, 72, 127
2, 332275, Note_on_c, 8, 68, 127
2, 332421, Note_off_c, 8, 68, 127
2, 332423, Note_on_c, 10, 69, 127
2, 332569, Note_off_c, 2, 38, 127
2, 332571, Note_on_c, 2, 38, 127
2, 332713, Note_off_c, 0, 72, 127
2, 332716, Note_off_c, 10, 69, 127
2, 332718, Note_off_c, 2, 38, 127
2, 332720, Note_on_c, 4, 40, 127
2, 332868, Note_on_c, 0, 72, 127
2, 333014, Note_off_c, 0, 72, 127
2, 333016, Note_on_c, 4, 76, 127
2, 333164, Note_on_c, 12, 71, 127
2, 333309, Note_off_c, 4, 76, 127
2, 333311, Note_off_c, 12, 71, 127
2, 333313, Note_on_c, 0, 72, 127
2, 333461, Note_on_c, 8, 68, 127
2, 333607, Note_off_c, 8, 68, 127
2, 333609, Note_on_c, 10, 69, 127
2, 333755, Note_off_c, 4, 40, 127
2, 333757, Note_on_c, 4, 40, 127
2, 333899, Note_off_c, 0, 72, 127
2, 333902, Note_off_c, 10, 69, 127
2, 333918, Note_off_c, 4, 40, 127
2, 333922, Note_on_c, 10, 45, 127
2, 334070, Note_on_c, 0, 72, 127
2, 334216, Note_off_c, 0, 72, 127
2, 334218, Note_on_c, 4, 76, 127
2, 334364, Note_off_c, 4, 76, 127
2, 334366, Note_on_c, 12, 71, 127
2, 334512, Note_off_c, 12, 71, 127
2, 334514, Note_on_c, 0, 72, 127
2, 334660, Note_off_c, 0, 72, 127
2, 334662, Note_on_c, 12, 47, 127
2, 334662, Note_on_c, 8, 68, 127
2, 334808, Note_off_c, 8, 68, 127
2, 334808, Note_off_c, 12, 47, 127
2, 334810, Note_on_c, 0, 48, 127
2, 334810, Note_on_c, 10, 69, 127
2, 334956, Note_off_c, 10, 69, 127
2, 334956, Note_off_c, 0, 48, 127
2, 334958, Note_on_c, 2, 50, 127
2, 334958, Note_on_c, 12, 71, 127
2, 335104, Note_off_c, 12, 71, 127
2, 335104, Note_off_c, 2, 50, 127
2, 335106, Note_on_c, 4, 52, 127
2, 335106, Note_on_c, 0, 72, 127
2, 335252, Note_off_c, 0, 72, 127
2, 335254, Note_on_c, 4, 64, 127
2, 335400, Note_off_c, 4, 64, 127
2, 335402, Note_on_c, 10, 69, 127
2, 335548, Note_off_c, 10, 69, 127
2, 335550, Note_on_c, 0, 60, 127
2, 335696, Note_off_c, 0, 60, 127
2, 335698, Note_on_c, 4, 64, 127
2, 335844, Note_off_c, 4, 64, 127
2, 335846, Note_on_c, 10, 57, 127
2, 336026, Note_on_c, 0, 60, 127
2, 336238, Note_on_c, 4, 64, 127
2, 336286, Note_off_c, 4, 52, 127
2, 336422, Note_off_c, 10, 45, 127
2, 336481, Note_on_c, 10, 69, 127
2, 338346, Note_off_c, 10, 57, 127
2, 338426, Note_off_c, 0, 60, 127
2, 338538, Note_off_c, 4, 64, 127
2, 338681, Note_off_c, 10, 69, 127
2, 340326, Note_on_c, 4, 64, 127
2, 340455, Note_on_c, 10, 45, 127
2, 340455, Note_on_c, 10, 57, 127
2, 340455, Note_on_c, 4, 76, 127
2, 340455, Note_on_c, 0, 72, 127
2, 340455, Note_on_c, 10, 69, 127
2, 340703, Note_off_c, 4, 64, 127
2, 340712, Note_off_c, 10, 69, 127
2, 340712, Note_off_c, 0, 72, 127
2, 340712, Note_off_c, 4, 76, 127
2, 340712, Note_off_c, 10, 57, 127
2, 340712, Note_off_c, 10, 45, 127
2, 340719, Note_on_c, 4, 76, 127
2, 340719, Note_on_c, 10, 69, 127
2, 340719, Note_on_c, 4, 64, 127
2, 340719, Note_on_c, 10, 57, 127
2, 340719, Note_on_c, 10, 45, 127
2, 340719, Note_on_c, 0, 72, 127
2, 340827, Note_off_c, 0, 72, 127
2, 340827, Note_off_c, 10, 45, 127
2, 340827, Note_off_c, 10, 57, 127
2, 340827, Note_off_c, 4, 64, 127
2, 340827, Note_off_c, 10, 69, 127
2, 340827, Note_off_c, 4, 76, 127
2, 340843, Note_on_c, 10, 45, 127
2, 340843, Note_on_c, 0, 72, 127
2, 340843, Note_on_c, 10, 69, 127
2, 340843, Note_on_c, 4, 64, 127
2, 340843, Note_on_c, 4, 76, 127
2, 340971, Note_off_c, 10, 45, 127
2, 340972, Note_on_c, 10, 57, 127
2, 341100, Note_off_c, 10, 57, 127
2, 341101, Note_on_c, 7, 55, 127
2, 341229, Note_off_c, 7, 55, 127
2, 341230, Note_on_c, 5, 53, 127
2, 341358, Note_off_c, 5, 53, 127
2, 341359, Note_on_c, 4, 52, 127
2, 341487, Note_off_c, 4, 52, 127
2, 341488, Note_on_c, 2, 50, 127
2, 341616, Note_off_c, 2, 50, 127
2, 341617, Note_on_c, 0, 48, 127
2, 341745, Note_off_c, 0, 48, 127
2, 341746, Note_on_c, 12, 47, 127
2, 341874, Note_off_c, 12, 47, 127
2, 341874, Note_off_c, 4, 64, 127
2, 341874, Note_off_c, 10, 69, 127
2, 341874, Note_off_c, 0, 72, 127
2, 341875, Note_on_c, 10, 45, 127
2, 342003, Note_off_c, 4, 76, 127
2, 342004, Note_on_c, 10, 81, 127
2, 342132, Note_off_c, 10, 81, 127
2, 342133, Note_on_c, 0, 48, 127
2, 342133, Note_on_c, 7, 79, 127
2, 342261, Note_off_c, 7, 79, 127
2, 342262, Note_on_c, 10, 81, 127
2, 342390, Note_off_c, 10, 81, 127
2, 342390, Note_off_c, 0, 48, 127
2, 342391, Note_on_c, 4, 52, 127
2, 342391, Note_on_c, 4, 76, 127
2, 342519, Note_off_c, 4, 76, 127
2, 342520, Note_on_c, 7, 79, 127
2, 342648, Note_off_c, 7, 79, 127
2, 342648, Note_off_c, 4, 52, 127
2, 342649, Note_on_c, 10, 57, 127
2, 342649, Note_on_c, 5, 77, 127
2, 342777, Note_off_c, 5, 77, 127
2, 342778, Note_on_c, 4, 76, 127
2, 342906, Note_off_c, 4, 76, 127
2, 342906, Note_off_c, 10, 57, 127
2, 342906, Note_off_c, 10, 45, 127
2, 342907, Note_on_c, 2, 50, 127
2, 342907, Note_on_c, 5, 77, 127
2, 343036, Note_on_c, 2, 74, 127
2, 343164, Note_off_c, 2, 74, 127
2, 343165, Note_on_c, 5, 53, 127
2, 343165, Note_on_c, 0, 72, 127
2, 343293, Note_off_c, 0, 72, 127
2, 343294, Note_on_c, 2, 74, 127
2, 343422, Note_off_c, 2, 74, 127
2, 343422, Note_off_c, 5, 53, 127
2, 343423, Note_on_c, 10, 57, 127
2, 343423, Note_on_c, 10, 69, 127
2, 343551, Note_off_c, 10, 69, 127
2, 343552, Note_on_c, 0, 72, 127
2, 343680, Note_off_c, 0, 72, 127
2, 343680, Note_off_c, 10, 57, 127
2, 343681, Note_on_c, 2, 62, 127
2, 343681, Note_on_c, 12, 71, 127
2, 343809, Note_off_c, 12, 71, 127
2, 343810, Note_on_c, 10, 69, 127
2, 343938, Note_off_c, 10, 69, 127
2, 343938, Note_off_c, 2, 62, 127
2, 343938, Note_off_c, 5, 77, 127
2, 343938, Note_off_c, 2, 50, 127
2, 343939, Note_on_c, 4, 52, 127
2, 343939, Note_on_c, 12, 59, 127
2, 343939, Note_on_c, 8, 68, 127
2, 344068, Note_on_c, 4, 76, 127
2, 344195, Note_off_c, 8, 68, 127
2, 344196, Note_off_c, 4, 76, 127
2, 344197, Note_on_c, 2, 74, 127
2, 344325, Note_off_c, 2, 74, 127
2, 344325, Note_off_c, 12, 59, 127
2, 344326, Note_on_c, 10, 57, 127
2, 344326, Note_on_c, 4, 76, 127
2, 344454, Note_off_c, 4, 76, 127
2, 344454, Note_off_c, 10, 57, 127
2, 344455, Note_on_c, 8, 56, 127
2, 344455, Note_on_c, 12, 71, 127
2, 344583, Note_off_c, 12, 71, 127
2, 344583, Note_off_c, 8, 56, 127
2, 344584, Note_on_c, 12, 59, 127
2, 344584, Note_on_c, 2, 74, 127
2, 344712, Note_off_c, 2, 74, 127
2, 344712, Note_off_c, 12, 59, 127
2, 344713, Note_on_c, 10, 57, 127
2, 344713, Note_on_c, 0, 72, 127
2, 344841, Note_off_c, 0, 72, 127
2, 344841, Note_off_c, 10, 57, 127
2, 344842, Note_on_c, 8, 56, 127
2, 344842, Note_on_c, 12, 71, 127
2, 344970, Note_off_c, 12, 71, 127
2, 344970, Note_off_c, 8, 56, 127
2, 344970, Note_off_c, 4, 52, 127
2, 344971, Note_on_c, 10, 45, 127
2, 344971, Note_on_c, 10, 57, 127
2, 344971, Note_on_c, 0, 72, 127
2, 345100, Note_on_c, 12, 71, 127
2, 345228, Note_off_c, 12, 71, 127
2, 345229, Note_on_c, 10, 69, 127
2, 345357, Note_off_c, 10, 69, 127
2, 345357, Note_off_c, 10, 57, 127
2, 345357, Note_off_c, 10, 45, 127
2, 345358, Note_on_c, 12, 47, 127
2, 345358, Note_on_c, 8, 68, 127
2, 345486, Note_off_c, 8, 68, 127
2, 345486, Note_off_c, 12, 47, 127
2, 345487, Note_on_c, 0, 48, 127
2, 345487, Note_on_c, 10, 69, 127
2, 345616, Note_off_c, 0, 72, 127
2, 345616, Note_on_c, 0, 72, 127
2, 345744, Note_off_c, 0, 72, 127
2, 345745, Note_on_c, 2, 74, 127
2, 345873, Note_off_c, 2, 74, 127
2, 345873, Note_off_c, 0, 48, 127
2, 345874, Note_on_c, 10, 45, 127
2, 345874, Note_on_c, 0, 72, 127
2, 346002, Note_off_c, 0, 72, 127
2, 346002, Note_off_c, 10, 45, 127
2, 346003, Note_on_c, 2, 50, 127
2, 346003, Note_on_c, 0, 72, 127
2, 346132, Note_off_c, 10, 69, 127
2, 346132, Note_on_c, 12, 71, 127
2, 346260, Note_off_c, 12, 71, 127
2, 346261, Note_on_c, 10, 69, 127
2, 346389, Note_off_c, 10, 69, 127
2, 346389, Note_off_c, 2, 50, 127
2, 346390, Note_on_c, 12, 47, 127
2, 346390, Note_on_c, 8, 68, 127
2, 346518, Note_off_c, 8, 68, 127
2, 346518, Note_off_c, 12, 47, 127
2, 346519, Note_on_c, 4, 52, 127
2, 346519, Note_on_c, 10, 69, 127
2, 346648, Note_off_c, 0, 72, 127
2, 346648, Note_on_c, 0, 72, 127
2, 346776, Note_off_c, 0, 72, 127
2, 346777, Note_on_c, 2, 74, 127
2, 346905, Note_off_c, 2, 74, 127
2, 346905, Note_off_c, 4, 52, 127
2, 346906, Note_on_c, 0, 48, 127
2, 346906, Note_on_c, 0, 72, 127
2, 347034, Note_off_c, 0, 72, 127
2, 347034, Note_off_c, 0, 48, 127
2, 347035, Note_on_c, 5, 53, 127
2, 347035, Note_on_c, 0, 72, 127
2, 347164, Note_off_c, 10, 69, 127
2, 347164, Note_on_c, 12, 71, 127
2, 347292, Note_off_c, 12, 71, 127
2, 347293, Note_on_c, 10, 69, 127
2, 347421, Note_off_c, 10, 69, 127
2, 347421, Note_off_c, 5, 53, 127
2, 347422, Note_on_c, 4, 52, 127
2, 347422, Note_on_c, 8, 68, 127
2, 347550, Note_off_c, 8, 68, 127
2, 347550, Note_off_c, 4, 52, 127
2, 347551, Note_on_c, 2, 50, 127
2, 347551, Note_on_c, 10, 69, 127
2, 347680, Note_off_c, 0, 72, 127
2, 347680, Note_on_c, 0, 72, 127
2, 347808, Note_off_c, 0, 72, 127
2, 347809, Note_on_c, 2, 74, 127
2, 347937, Note_off_c, 2, 74, 127
2, 347937, Note_off_c, 2, 50, 127
2, 347938, Note_on_c, 5, 53, 127
2, 347938, Note_on_c, 0, 72, 127
2, 348066, Note_off_c, 0, 72, 127
2, 348066, Note_off_c, 5, 53, 127
2, 348067, Note_on_c, 4, 52, 127
2, 348067, Note_on_c, 0, 72, 127
2, 348196, Note_off_c, 10, 69, 127
2, 348196, Note_on_c, 12, 71, 127
2, 348324, Note_off_c, 12, 71, 127
2, 348325, Note_on_c, 10, 69, 127
2, 348453, Note_off_c, 10, 69, 127
2, 348453, Note_off_c, 4, 52, 127
2, 348454, Note_on_c, 2, 50, 127
2, 348454, Note_on_c, 8, 68, 127
2, 348582, Note_off_c, 8, 68, 127
2, 348582, Note_off_c, 2, 50, 127
2, 348583, Note_on_c, 4, 52, 127
2, 348583, Note_on_c, 10, 69, 127
2, 348712, Note_off_c, 0, 72, 127
2, 348712, Note_on_c, 0, 72, 127
2, 348840, Note_off_c, 0, 72, 127
2, 348840, Note_off_c, 4, 52, 127
2, 348841, Note_on_c, 4, 40, 127
2, 348841, Note_on_c, 2, 74, 127
2, 348969, Note_off_c, 2, 74, 127
2, 348970, Note_on_c, 0, 72, 127
2, 349098, Note_off_c, 0, 72, 127
2, 349098, Note_off_c, 4, 40, 127
2, 349099, Note_on_c, 10, 45, 127
2, 349099, Note_on_c, 0, 72, 127
2, 349228, Note_off_c, 10, 69, 127
2, 349228, Note_on_c, 12, 71, 127
2, 349356, Note_off_c, 12, 71, 127
2, 349357, Note_on_c, 4, 52, 127
2, 349357, Note_on_c, 10, 69, 127
2, 349485, Note_off_c, 10, 69, 127
2, 349486, Note_on_c, 7, 67, 127
2, 349614, Note_off_c, 7, 67, 127
2, 349614, Note_off_c, 4, 52, 127
2, 349615, Note_on_c, 10, 57, 127
2, 349615, Note_on_c, 10, 69, 127
2, 349743, Note_off_c, 10, 69, 127
2, 349744, Note_on_c, 5, 65, 127
2, 349872, Note_off_c, 5, 65, 127
2, 349873, Note_on_c, 7, 67, 127
2, 350001, Note_off_c, 7, 67, 127
2, 350002, Note_on_c, 4, 64, 127
2, 350130, Note_off_c, 4, 64, 127
2, 350130, Note_off_c, 10, 45, 127
2, 350131, Note_on_c, 5, 65, 127
2, 350255, Note_off_c, 0, 72, 127
2, 350259, Note_off_c, 10, 57, 127
2, 350260, Note_on_c, 10, 57, 127
2, 350260, Note_on_c, 0, 72, 127
2, 350388, Note_off_c, 0, 72, 127
2, 350388, Note_off_c, 10, 57, 127
2, 350389, Note_on_c, 7, 55, 127
2, 350389, Note_on_c, 12, 71, 127
2, 350517, Note_off_c, 12, 71, 127
2, 350517, Note_off_c, 7, 55, 127
2, 350518, Note_on_c, 10, 57, 127
2, 350518, Note_on_c, 0, 72, 127
2, 350646, Note_off_c, 0, 72, 127
2, 350646, Note_off_c, 10, 57, 127
2, 350647, Note_on_c, 5, 53, 127
2, 350647, Note_on_c, 10, 69, 127
2, 350775, Note_off_c, 10, 69, 127
2, 350775, Note_off_c, 5, 53, 127
2, 350776, Note_on_c, 10, 57, 127
2, 350776, Note_on_c, 5, 77, 127
2, 350904, Note_off_c, 5, 77, 127
2, 350904, Note_off_c, 10, 57, 127
2, 350905, Note_on_c, 7, 55, 127
2, 350905, Note_on_c, 4, 76, 127
2, 351033, Note_off_c, 4, 76, 127
2, 351033, Note_off_c, 7, 55, 127
2, 351034, Note_on_c, 10, 57, 127
2, 351034, Note_on_c, 5, 77, 127
2, 351162, Note_off_c, 5, 77, 127
2, 351162, Note_off_c, 10, 57, 127
2, 351162, Note_off_c, 5, 65, 127
2, 351163, Note_on_c, 12, 47, 127
2, 351163, Note_on_c, 2, 74, 127
2, 351292, Note_on_c, 7, 67, 127
2, 351420, Note_off_c, 7, 67, 127
2, 351421, Note_on_c, 2, 50, 127
2, 351421, Note_on_c, 6, 66, 127
2, 351549, Note_off_c, 6, 66, 127
2, 351550, Note_on_c, 7, 67, 127
2, 351678, Note_off_c, 7, 67, 127
2, 351678, Note_off_c, 2, 50, 127
2, 351679, Note_on_c, 7, 55, 127
2, 351679, Note_on_c, 2, 62, 127
2, 351807, Note_off_c, 2, 62, 127
2, 351808, Note_on_c, 12, 71, 127
2, 351936, Note_off_c, 12, 71, 127
2, 351937, Note_on_c, 10, 69, 127
2, 352065, Note_off_c, 10, 69, 127
2, 352066, Note_on_c, 12, 71, 127
2, 352194, Note_off_c, 12, 71, 127
2, 352194, Note_off_c, 2, 74, 127
2, 352194, Note_off_c, 12, 47, 127
2, 352195, Note_on_c, 7, 67, 127
2, 352323, Note_off_c, 7, 55, 127
2, 352324, Note_on_c, 12, 59, 127
2, 352324, Note_on_c, 2, 74, 127
2, 352452, Note_off_c, 2, 74, 127
2, 352452, Note_off_c, 12, 59, 127
2, 352453, Note_on_c, 10, 57, 127
2, 352453, Note_on_c, 0, 72, 127
2, 352581, Note_off_c, 0, 72, 127
2, 352581, Note_off_c, 10, 57, 127
2, 352582, Note_on_c, 12, 59, 127
2, 352582, Note_on_c, 2, 74, 127
2, 352710, Note_off_c, 2, 74, 127
2, 352710, Note_off_c, 12, 59, 127
2, 352711, Note_on_c, 7, 55, 127
2, 352711, Note_on_c, 12, 71, 127
2, 352839, Note_off_c, 12, 71, 127
2, 352839, Note_off_c, 7, 55, 127
2, 352840, Note_on_c, 12, 59, 127
2, 352840, Note_on_c, 7, 79, 127
2, 352968, Note_off_c, 7, 79, 127
2, 352968, Note_off_c, 12, 59, 127
2, 352969, Note_on_c, 10, 57, 127
2, 352969, Note_on_c, 5, 77, 127
2, 353097, Note_off_c, 5, 77, 127
2, 353097, Note_off_c, 10, 57, 127
2, 353098, Note_on_c, 12, 59, 127
2, 353098, Note_on_c, 7, 79, 127
2, 353226, Note_off_c, 7, 79, 127
2, 353226, Note_off_c, 12, 59, 127
2, 353226, Note_off_c, 7, 67, 127
2, 353227, Note_on_c, 0, 48, 127
2, 353227, Note_on_c, 4, 76, 127
2, 353356, Note_on_c, 7, 67, 127
2, 353484, Note_off_c, 7, 67, 127
2, 353485, Note_on_c, 5, 65, 127
2, 353613, Note_off_c, 5, 65, 127
2, 353614, Note_on_c, 7, 67, 127
2, 353742, Note_off_c, 7, 67, 127
2, 353743, Note_on_c, 4, 64, 127
2, 353871, Note_off_c, 4, 64, 127
2, 353872, Note_on_c, 7, 67, 127
2, 354000, Note_off_c, 7, 67, 127
2, 354001, Note_on_c, 10, 69, 127
2, 354129, Note_off_c, 10, 69, 127
2, 354130, Note_on_c, 12, 71, 127
2, 354258, Note_off_c, 12, 71, 127
2, 354258, Note_off_c, 4, 76, 127
2, 354258, Note_off_c, 0, 48, 127
2, 354259, Note_on_c, 0, 72, 127
2, 354388, Note_on_c, 4, 52, 127
2, 354388, Note_on_c, 7, 79, 127
2, 354516, Note_off_c, 7, 79, 127
2, 354516, Note_off_c, 4, 52, 127
2, 354517, Note_on_c, 2, 50, 127
2, 354517, Note_on_c, 5, 77, 127
2, 354645, Note_off_c, 5, 77, 127
2, 354645, Note_off_c, 2, 50, 127
2, 354646, Note_on_c, 4, 52, 127
2, 354646, Note_on_c, 7, 79, 127
2, 354774, Note_off_c, 7, 79, 127
2, 354774, Note_off_c, 4, 52, 127
2, 354775, Note_on_c, 0, 48, 127
2, 354775, Note_on_c, 4, 76, 127
2, 354903, Note_off_c, 0, 48, 127
2, 354904, Note_on_c, 7, 55, 127
2, 354904, Note_on_c, 7, 79, 127
2, 355032, Note_off_c, 7, 79, 127
2, 355032, Note_off_c, 7, 55, 127
2, 355033, Note_on_c, 5, 53, 127
2, 355033, Note_on_c, 10, 81, 127
2, 355039, Note_off_c, 4, 76, 127
2, 355161, Note_off_c, 10, 81, 127
2, 355161, Note_off_c, 5, 53, 127
2, 355162, Note_on_c, 7, 55, 127
2, 355162, Note_on_c, 12, 83, 127
2, 355290, Note_off_c, 12, 83, 127
2, 355290, Note_off_c, 7, 55, 127
2, 355291, Note_on_c, 4, 40, 127
2, 355291, Note_on_c, 0, 84, 127
2, 355420, Note_on_c, 7, 79, 127
2, 355548, Note_off_c, 7, 79, 127
2, 355549, Note_on_c, 10, 81, 127
2, 355677, Note_off_c, 10, 81, 127
2, 355678, Note_on_c, 4, 76, 127
2, 355802, Note_off_c, 0, 84, 127
2, 355806, Note_off_c, 4, 76, 127
2, 355807, Note_on_c, 7, 79, 127
2, 355856, Note_off_c, 4, 40, 127
2, 355926, Note_off_c, 0, 72, 127
2, 355935, Note_off_c, 7, 79, 127
2, 355936, Note_on_c, 4, 52, 127
2, 355936, Note_on_c, 0, 72, 127
2, 356064, Note_off_c, 4, 52, 127
2, 356065, Note_on_c, 0, 48, 127
2, 356065, Note_on_c, 10, 81, 127
2, 356193, Note_off_c, 10, 81, 127
2, 356193, Note_off_c, 0, 48, 127
2, 356194, Note_on_c, 10, 45, 127
2, 356194, Note_on_c, 4, 76, 127
2, 356313, Note_off_c, 0, 72, 127
2, 356322, Note_off_c, 4, 76, 127
2, 356322, Note_off_c, 10, 45, 127
2, 356323, Note_on_c, 2, 38, 127
2, 356323, Note_on_c, 5, 77, 127
2, 356452, Note_on_c, 2, 74, 127
2, 356580, Note_off_c, 2, 74, 127
2, 356581, Note_on_c, 0, 72, 127
2, 356709, Note_off_c, 0, 72, 127
2, 356710, Note_on_c, 2, 74, 127
2, 356838, Note_off_c, 2, 74, 127
2, 356839, Note_on_c, 12, 71, 127
2, 356888, Note_off_c, 2, 38, 127
2, 356968, Note_off_c, 12, 71, 127
2, 356969, Note_on_c, 10, 57, 127
2, 356969, Note_on_c, 0, 72, 127
2, 357097, Note_off_c, 0, 72, 127
2, 357097, Note_off_c, 10, 57, 127
2, 357098, Note_on_c, 5, 53, 127
2, 357098, Note_on_c, 10, 69, 127
2, 357226, Note_off_c, 10, 69, 127
2, 357226, Note_off_c, 5, 53, 127
2, 357227, Note_on_c, 2, 50, 127
2, 357227, Note_on_c, 0, 72, 127
2, 357355, Note_off_c, 0, 72, 127
2, 357355, Note_off_c, 2, 50, 127
2, 357355, Note_off_c, 5, 77, 127
2, 357356, Note_on_c, 7, 43, 127
2, 357356, Note_on_c, 12, 71, 127
2, 357485, Note_on_c, 7, 79, 127
2, 357613, Note_off_c, 7, 79, 127
2, 357614, Note_on_c, 5, 77, 127
2, 357742, Note_off_c, 5, 77, 127
2, 357743, Note_on_c, 7, 79, 127
2, 357871, Note_off_c, 7, 79, 127
2, 357872, Note_on_c, 4, 76, 127
2, 357921, Note_off_c, 7, 43, 127
2, 358001, Note_off_c, 4, 76, 127
2, 358002, Note_on_c, 2, 50, 127
2, 358002, Note_on_c, 5, 77, 127
2, 358130, Note_off_c, 5, 77, 127
2, 358130, Note_off_c, 2, 50, 127
2, 358131, Note_on_c, 12, 47, 127
2, 358131, Note_on_c, 2, 74, 127
2, 358259, Note_off_c, 2, 74, 127
2, 358259, Note_off_c, 12, 47, 127
2, 358260, Note_on_c, 7, 43, 127
2, 358260, Note_on_c, 5, 77, 127
2, 358388, Note_off_c, 5, 77, 127
2, 358388, Note_off_c, 7, 43, 127
2, 358388, Note_off_c, 12, 71, 127
2, 358389, Note_on_c, 0, 36, 127
2, 358389, Note_on_c, 4, 76, 127
2, 358518, Note_on_c, 2, 74, 127
2, 358646, Note_off_c, 2, 74, 127
2, 358647, Note_on_c, 0, 72, 127
2, 358775, Note_off_c, 0, 72, 127
2, 358776, Note_on_c, 12, 71, 127
2, 358900, Note_off_c, 0, 36, 127
2, 358904, Note_off_c, 12, 71, 127
2, 358905, Note_on_c, 0, 72, 127
2, 359033, Note_off_c, 0, 72, 127
2, 359034, Note_on_c, 0, 60, 127
2, 359034, Note_on_c, 10, 69, 127
2, 359162, Note_off_c, 10, 69, 127
2, 359162, Note_off_c, 0, 60, 127
2, 359163, Note_on_c, 2, 62, 127
2, 359163, Note_on_c, 12, 71, 127
2, 359291, Note_off_c, 12, 71, 127
2, 359291, Note_off_c, 2, 62, 127
2, 359292, Note_on_c, 12, 59, 127
2, 359292, Note_on_c, 8, 68, 127
2, 359420, Note_off_c, 8, 68, 127
2, 359420, Note_off_c, 12, 59, 127
2, 359421, Note_on_c, 0, 60, 127
2, 359421, Note_on_c, 10, 69, 127
2, 359545, Note_off_c, 4, 76, 127
2, 359550, Note_on_c, 5, 77, 127
2, 359678, Note_off_c, 5, 77, 127
2, 359678, Note_off_c, 0, 60, 127
2, 359679, Note_on_c, 0, 48, 127
2, 359679, Note_on_c, 4, 76, 127
2, 359807, Note_off_c, 4, 76, 127
2, 359808, Note_on_c, 5, 77, 127
2, 359936, Note_off_c, 5, 77, 127
2, 359936, Note_off_c, 0, 48, 127
2, 359937, Note_on_c, 12, 47, 127
2, 359937, Note_on_c, 2, 74, 127
2, 360065, Note_off_c, 2, 74, 127
2, 360066, Note_on_c, 4, 76, 127
2, 360194, Note_off_c, 4, 76, 127
2, 360194, Note_off_c, 12, 47, 127
2, 360195, Note_on_c, 10, 45, 127
2, 360195, Note_on_c, 0, 72, 127
2, 360323, Note_off_c, 0, 72, 127
2, 360324, Note_on_c, 4, 76, 127
2, 360452, Note_off_c, 4, 76, 127
2, 360452, Note_off_c, 10, 45, 127
2, 360453, Note_on_c, 12, 47, 127
2, 360453, Note_on_c, 2, 74, 127
2, 360577, Note_off_c, 10, 69, 127
2, 360581, Note_off_c, 12, 47, 127
2, 360582, Note_on_c, 2, 50, 127
2, 360582, Note_on_c, 12, 71, 127
2, 360710, Note_off_c, 12, 71, 127
2, 360710, Note_off_c, 2, 50, 127
2, 360711, Note_on_c, 0, 48, 127
2, 360711, Note_on_c, 10, 69, 127
2, 360839, Note_off_c, 10, 69, 127
2, 360839, Note_off_c, 0, 48, 127
2, 360840, Note_on_c, 12, 47, 127
2, 360840, Note_on_c, 12, 71, 127
2, 360968, Note_off_c, 12, 71, 127
2, 360968, Note_off_c, 12, 47, 127
2, 360969, Note_on_c, 4, 52, 127
2, 360969, Note_on_c, 8, 68, 127
2, 361098, Note_off_c, 2, 74, 127
2, 361098, Note_on_c, 2, 74, 127
2, 361226, Note_off_c, 2, 74, 127
2, 361226, Note_off_c, 4, 52, 127
2, 361227, Note_on_c, 4, 40, 127
2, 361227, Note_on_c, 0, 72, 127
2, 361355, Note_off_c, 0, 72, 127
2, 361356, Note_on_c, 12, 71, 127
2, 361480, Note_off_c, 8, 68, 127
2, 361484, Note_off_c, 12, 71, 127
2, 361484, Note_off_c, 4, 40, 127
2, 361485, Note_on_c, 10, 45, 127
2, 361485, Note_on_c, 0, 72, 127
2, 361614, Note_on_c, 10, 69, 127
2, 361742, Note_off_c, 10, 69, 127
2, 361743, Note_on_c, 7, 67, 127
2, 361871, Note_off_c, 7, 67, 127
2, 361872, Note_on_c, 5, 65, 127
2, 361996, Note_off_c, 10, 45, 127
2, 362000, Note_off_c, 5, 65, 127
2, 362001, Note_on_c, 4, 64, 127
2, 362129, Note_off_c, 4, 64, 127
2, 362130, Note_on_c, 5, 65, 127
2, 362258, Note_off_c, 5, 65, 127
2, 362259, Note_on_c, 4, 64, 127
2, 362387, Note_off_c, 4, 64, 127
2, 362388, Note_on_c, 2, 62, 127
2, 362516, Note_off_c, 2, 62, 127
2, 362516, Note_off_c, 0, 72, 127
2, 362517, Note_on_c, 0, 60, 127
2, 362645, Note_off_c, 0, 60, 127
2, 362646, Note_on_c, 2, 62, 127
2, 362646, Note_on_c, 8, 68, 127
2, 362774, Note_off_c, 8, 68, 127
2, 362774, Note_off_c, 2, 62, 127
2, 362775, Note_on_c, 0, 60, 127
2, 362775, Note_on_c, 10, 69, 127
2, 362903, Note_off_c, 10, 69, 127
2, 362903, Note_off_c, 0, 60, 127
2, 362904, Note_on_c, 12, 59, 127
2, 362904, Note_on_c, 12, 71, 127
2, 363032, Note_off_c, 12, 71, 127
2, 363032, Note_off_c, 12, 59, 127
2, 363033, Note_on_c, 10, 57, 127
2, 363033, Note_on_c, 0, 72, 127
2, 363161, Note_off_c, 0, 72, 127
2, 363161, Note_off_c, 10, 57, 127
2, 363162, Note_on_c, 0, 60, 127
2, 363162, Note_on_c, 2, 74, 127
2, 363290, Note_off_c, 2, 74, 127
2, 363290, Note_off_c, 0, 60, 127
2, 363291, Note_on_c, 12, 59, 127
2, 363291, Note_on_c, 4, 76, 127
2, 363419, Note_off_c, 4, 76, 127
2, 363419, Note_off_c, 12, 59, 127
2, 363420, Note_on_c, 10, 57, 127
2, 363420, Note_on_c, 5, 77, 127
2, 363548, Note_off_c, 5, 77, 127
2, 363548, Note_off_c, 10, 57, 127
2, 363549, Note_on_c, 7, 55, 127
2, 363549, Note_on_c, 12, 71, 127
2, 363678, Note_on_c, 5, 65, 127
2, 363806, Note_off_c, 5, 65, 127
2, 363807, Note_on_c, 7, 67, 127
2, 363935, Note_off_c, 7, 67, 127
2, 363936, Note_on_c, 2, 62, 127
2, 364060, Note_off_c, 12, 71, 127
2, 364064, Note_off_c, 2, 62, 127
2, 364064, Note_off_c, 7, 55, 127
2, 364065, Note_on_c, 0, 60, 127
2, 364065, Note_on_c, 4, 64, 127
2, 364194, Note_on_c, 0, 72, 127
2, 364322, Note_off_c, 0, 72, 127
2, 364323, Note_on_c, 4, 76, 127
2, 364451, Note_off_c, 4, 76, 127
2, 364452, Note_on_c, 8, 68, 127
2, 364580, Note_off_c, 8, 68, 127
2, 364580, Note_off_c, 0, 60, 127
2, 364581, Note_on_c, 5, 53, 127
2, 364581, Note_on_c, 10, 69, 127
2, 364729, Note_off_c, 4, 64, 127
2, 364729, Note_on_c, 4, 64, 127
2, 364874, Note_off_c, 10, 69, 127
2, 364876, Note_off_c, 4, 64, 127
2, 364878, Note_on_c, 2, 74, 127
2, 364878, Note_on_c, 2, 62, 127
2, 364950, Note_off_c, 2, 74, 127
2, 364952, Note_on_c, 4, 76, 127
2, 365024, Note_off_c, 4, 76, 127
2, 365026, Note_on_c, 5, 77, 127
2, 365098, Note_off_c, 5, 77, 127
2, 365100, Note_on_c, 4, 76, 127
2, 365172, Note_off_c, 4, 76, 127
2, 365174, Note_on_c, 10, 57, 127
2, 365174, Note_on_c, 2, 74, 127
2, 365320, Note_off_c, 2, 74, 127
2, 365322, Note_on_c, 0, 72, 127
2, 365468, Note_off_c, 0, 72, 127
2, 365468, Note_off_c, 5, 53, 127
2, 365470, Note_on_c, 5, 53, 127
2, 365470, Note_on_c, 12, 71, 127
2, 365616, Note_off_c, 12, 71, 127
2, 365618, Note_on_c, 10, 69, 127
2, 365760, Note_off_c, 10, 57, 127
2, 365765, Note_off_c, 10, 69, 127
2, 365765, Note_off_c, 5, 53, 127
2, 365765, Note_off_c, 2, 62, 127
2, 365767, Note_on_c, 12, 59, 127
2, 365767, Note_on_c, 4, 52, 127
2, 365767, Note_on_c, 8, 68, 127
2, 365767, Note_on_c, 4, 64, 127
2, 366031, Note_off_c, 8, 68, 127
2, 366033, Note_on_c, 12, 71, 127
2, 366120, Note_off_c, 12, 71, 127
2, 366122, Note_on_c, 10, 69, 127
2, 366297, Note_off_c, 10, 69, 127
2, 366299, Note_on_c, 12, 71, 127
2, 366386, Note_off_c, 12, 71, 127
2, 366388, Note_on_c, 8, 68, 127
2, 366469, Note_off_c, 4, 64, 127
2, 366469, Note_off_c, 12, 59, 127
2, 366475, Note_off_c, 8, 68, 127
2, 366477, Note_on_c, 6, 66, 127
2, 366477, Note_on_c, 10, 69, 127
2, 366741, Note_off_c, 10, 69, 127
2, 366743, Note_on_c, 0, 72, 127
2, 366830, Note_off_c, 0, 72, 127
2, 366832, Note_on_c, 12, 71, 127
2, 367007, Note_off_c, 12, 71, 127
2, 367009, Note_on_c, 0, 72, 127
2, 367096, Note_off_c, 0, 72, 127
2, 367098, Note_on_c, 10, 69, 127
2, 367179, Note_off_c, 6, 66, 127
2, 367185, Note_off_c, 10, 69, 127
2, 367185, Note_off_c, 4, 52, 127
2, 367187, Note_on_c, 4, 64, 127
2, 367187, Note_on_c, 12, 71, 127
2, 367187, Note_on_c, 8, 68, 127
2, 367362, Note_off_c, 12, 71, 127
2, 367364, Note_on_c, 4, 76, 127
2, 367539, Note_off_c, 4, 76, 127
2, 367541, Note_on_c, 3, 75, 127
2, 367716, Note_off_c, 3, 75, 127
2, 367718, Note_on_c, 4, 76, 127
2, 367805, Note_off_c, 4, 76, 127
2, 367807, Note_on_c, 1, 73, 127
2, 367888, Note_off_c, 8, 68, 127
2, 367894, Note_off_c, 1, 73, 127
2, 367896, Note_on_c, 3, 75, 127
2, 367896, Note_on_c, 10, 69, 127
2, 367896, Note_on_c, 6, 66, 127
2, 368071, Note_off_c, 3, 75, 127
2, 368073, Note_on_c, 4, 76, 127
2, 368160, Note_off_c, 4, 76, 127
2, 368162, Note_on_c, 6, 78, 127
2, 368249, Note_off_c, 6, 78, 127
2, 368251, Note_on_c, 4, 76, 127
2, 368426, Note_off_c, 4, 76, 127
2, 368428, Note_on_c, 6, 78, 127
2, 368515, Note_off_c, 6, 78, 127
2, 368517, Note_on_c, 3, 75, 127
2, 368598, Note_off_c, 6, 66, 127
2, 368598, Note_off_c, 10, 69, 127
2, 368604, Note_off_c, 3, 75, 127
2, 368604, Note_off_c, 4, 64, 127
2, 368606, Note_on_c, 8, 68, 127
2, 368606, Note_on_c, 12, 71, 127
2, 368606, Note_on_c, 4, 76, 127
2, 368783, Note_on_c, 4, 64, 127
2, 368958, Note_off_c, 4, 64, 127
2, 368960, Note_on_c, 12, 59, 127
2, 369135, Note_off_c, 12, 59, 127
2, 369137, Note_on_c, 8, 56, 127
2, 369312, Note_off_c, 8, 56, 127
2, 369314, Note_on_c, 4, 52, 127
2, 369489, Note_off_c, 4, 76, 127
2, 369489, Note_off_c, 12, 71, 127
2, 369489, Note_off_c, 8, 68, 127
2, 369491, Note_on_c, 8, 56, 127
2, 369491, Note_on_c, 4, 76, 127
2, 369666, Note_off_c, 4, 76, 127
2, 369666, Note_off_c, 8, 56, 127
2, 369668, Note_on_c, 10, 57, 127
2, 369668, Note_on_c, 6, 78, 127
2, 369843, Note_off_c, 6, 78, 127
2, 369843, Note_off_c, 10, 57, 127
2, 369845, Note_on_c, 6, 54, 127
2, 369845, Note_on_c, 3, 75, 127
2, 370020, Note_off_c, 3, 75, 127
2, 370020, Note_off_c, 6, 54, 127
2, 370022, Note_on_c, 8, 56, 127
2, 370022, Note_on_c, 4, 76, 127
2, 370183, Note_off_c, 8, 56, 127
2, 370185, Note_on_c, 12, 59, 127
2, 370185, Note_on_c, 8, 68, 127
2, 370346, Note_off_c, 8, 68, 127
2, 370346, Note_off_c, 12, 59, 127
2, 370348, Note_on_c, 0, 60, 127
2, 370348, Note_on_c, 10, 69, 127
2, 370509, Note_off_c, 10, 69, 127
2, 370509, Note_off_c, 0, 60, 127
2, 370511, Note_on_c, 10, 57, 127
2, 370511, Note_on_c, 6, 66, 127
2, 370666, Note_off_c, 4, 76, 127
2, 370671, Note_off_c, 6, 66, 127
2, 370671, Note_off_c, 10, 57, 127
2, 370673, Note_on_c, 12, 59, 127
2, 370673, Note_on_c, 8, 68, 127
2, 370835, Note_on_c, 4, 76, 127
2, 370994, Note_off_c, 8, 68, 127
2, 370996, Note_off_c, 4, 76, 127
2, 370996, Note_off_c, 12, 59, 127
2, 370998, Note_on_c, 4, 40, 127
2, 370998, Note_on_c, 2, 74, 127
2, 371159, Note_off_c, 2, 74, 127
2, 371161, Note_on_c, 0, 72, 127
2, 371320, Note_off_c, 4, 52, 127
2, 371322, Note_off_c, 0, 72, 127
2, 371322, Note_off_c, 4, 40, 127
2, 371324, Note_on_c, 4, 52, 127
2, 371324, Note_on_c, 12, 71, 127
2, 371480, Note_on_c, 0, 60, 127
2, 371480, Note_on_c, 10, 69, 127
2, 371634, Note_off_c, 10, 69, 127
2, 371634, Note_off_c, 0, 60, 127
2, 371636, Note_on_c, 12, 59, 127
2, 371636, Note_on_c, 8, 68, 127
2, 371790, Note_off_c, 8, 68, 127
2, 371790, Note_off_c, 12, 59, 127
2, 371792, Note_on_c, 10, 57, 127
2, 371792, Note_on_c, 6, 66, 127
2, 371941, Note_off_c, 12, 71, 127
2, 371946, Note_off_c, 6, 66, 127
2, 371946, Note_off_c, 10, 57, 127
2, 371948, Note_on_c, 8, 56, 127
2, 371948, Note_on_c, 4, 64, 127
2, 372104, Note_on_c, 12, 83, 127
2, 372258, Note_off_c, 12, 83, 127
2, 372258, Note_off_c, 8, 56, 127
2, 372260, Note_on_c, 12, 59, 127
2, 372260, Note_on_c, 10, 81, 127
2, 372414, Note_off_c, 10, 81, 127
2, 372416, Note_on_c, 12, 83, 127
2, 372565, Note_off_c, 4, 64, 127
2, 372570, Note_off_c, 12, 83, 127
2, 372570, Note_off_c, 12, 59, 127
2, 372572, Note_on_c, 4, 64, 127
2, 372572, Note_on_c, 8, 80, 127
2, 372726, Note_off_c, 8, 80, 127
2, 372728, Note_on_c, 10, 81, 127
2, 372882, Note_off_c, 10, 81, 127
2, 372884, Note_on_c, 12, 83, 127
2, 373038, Note_off_c, 12, 83, 127
2, 373038, Note_off_c, 4, 64, 127
2, 373040, Note_on_c, 2, 62, 127
2, 373040, Note_on_c, 5, 77, 127
2, 373194, Note_off_c, 5, 77, 127
2, 373194, Note_off_c, 2, 62, 127
2, 373196, Note_on_c, 1, 61, 127
2, 373196, Note_on_c, 4, 76, 127
2, 373350, Note_off_c, 4, 76, 127
2, 373350, Note_off_c, 1, 61, 127
2, 373352, Note_on_c, 0, 60, 127
2, 373352, Note_on_c, 10, 81, 127
2, 373506, Note_off_c, 10, 81, 127
2, 373506, Note_off_c, 0, 60, 127
2, 373508, Note_on_c, 12, 59, 127
2, 373508, Note_on_c, 2, 74, 127
2, 373662, Note_off_c, 2, 74, 127
2, 373664, Note_on_c, 8, 80, 127
2, 373810, Note_off_c, 4, 52, 127
2, 373818, Note_off_c, 8, 80, 127
2, 373818, Note_off_c, 12, 59, 127
2, 373820, Note_on_c, 0, 60, 127
2, 373820, Note_on_c, 10, 57, 127
2, 373820, Note_on_c, 10, 81, 127
2, 373974, Note_off_c, 10, 57, 127
2, 373974, Note_off_c, 0, 60, 127
2, 373976, Note_on_c, 12, 59, 127
2, 373976, Note_on_c, 2, 74, 127
2, 374130, Note_off_c, 2, 74, 127
2, 374130, Note_off_c, 12, 59, 127
2, 374132, Note_on_c, 10, 57, 127
2, 374132, Note_on_c, 0, 72, 127
2, 374286, Note_off_c, 0, 72, 127
2, 374286, Note_off_c, 10, 57, 127
2, 374288, Note_on_c, 8, 56, 127
2, 374288, Note_on_c, 12, 71, 127
2, 374442, Note_off_c, 12, 71, 127
2, 374442, Note_off_c, 8, 56, 127
2, 374444, Note_on_c, 10, 57, 127
2, 374444, Note_on_c, 0, 72, 127
2, 374600, Note_off_c, 10, 81, 127
2, 374600, Note_on_c, 7, 79, 127
2, 374754, Note_off_c, 7, 79, 127
2, 374756, Note_on_c, 10, 45, 127
2, 374756, Note_on_c, 5, 77, 127
2, 374910, Note_off_c, 5, 77, 127
2, 374912, Note_on_c, 4, 76, 127
2, 375061, Note_off_c, 0, 72, 127
2, 375066, Note_off_c, 4, 76, 127
2, 375066, Note_off_c, 10, 45, 127
2, 375068, Note_on_c, 12, 47, 127
2, 375068, Note_on_c, 2, 74, 127
2, 375224, Note_off_c, 10, 57, 127
2, 375224, Note_on_c, 10, 57, 127
2, 375224, Note_on_c, 0, 72, 127
2, 375378, Note_off_c, 0, 72, 127
2, 375378, Note_off_c, 10, 57, 127
2, 375380, Note_on_c, 7, 55, 127
2, 375380, Note_on_c, 12, 71, 127
2, 375534, Note_off_c, 12, 71, 127
2, 375534, Note_off_c, 7, 55, 127
2, 375536, Note_on_c, 6, 54, 127
2, 375536, Note_on_c, 10, 69, 127
2, 375690, Note_off_c, 10, 69, 127
2, 375690, Note_off_c, 6, 54, 127
2, 375692, Note_on_c, 7, 55, 127
2, 375692, Note_on_c, 7, 67, 127
2, 375815, Note_off_c, 2, 74, 127
2, 375815, Note_off_c, 12, 47, 127
2, 375847, Note_on_c, 12, 47, 127
2, 375847, Note_on_c, 2, 74, 127
2, 376001, Note_off_c, 2, 74, 127
2, 376001, Note_off_c, 12, 47, 127
2, 376003, Note_on_c, 10, 45, 127
2, 376003, Note_on_c, 0, 72, 127
2, 376157, Note_off_c, 0, 72, 127
2, 376157, Note_off_c, 10, 45, 127
2, 376159, Note_on_c, 12, 47, 127
2, 376159, Note_on_c, 2, 74, 127
2, 376313, Note_off_c, 2, 74, 127
2, 376313, Note_off_c, 12, 47, 127
2, 376315, Note_on_c, 0, 48, 127
2, 376315, Note_on_c, 4, 76, 127
2, 376471, Note_off_c, 7, 67, 127
2, 376471, Note_off_c, 7, 55, 127
2, 376471, Note_on_c, 7, 55, 127
2, 376471, Note_on_c, 7, 67, 127
2, 376625, Note_off_c, 7, 67, 127
2, 376625, Note_off_c, 7, 55, 127
2, 376627, Note_on_c, 10, 57, 127
2, 376627, Note_on_c, 5, 65, 127
2, 376781, Note_off_c, 5, 65, 127
2, 376781, Note_off_c, 10, 57, 127
2, 376783, Note_on_c, 12, 59, 127
2, 376783, Note_on_c, 7, 67, 127
2, 376937, Note_off_c, 7, 67, 127
2, 376937, Note_off_c, 12, 59, 127
2, 376939, Note_on_c, 0, 60, 127
2, 376939, Note_on_c, 10, 69, 127
2, 377062, Note_off_c, 4, 76, 127
2, 377062, Note_off_c, 0, 48, 127
2, 377094, Note_on_c, 0, 48, 127
2, 377094, Note_on_c, 4, 76, 127
2, 377246, Note_off_c, 0, 60, 127
2, 377248, Note_off_c, 4, 76, 127
2, 377248, Note_off_c, 0, 48, 127
2, 377250, Note_on_c, 12, 47, 127
2, 377250, Note_on_c, 2, 74, 127
2, 377404, Note_off_c, 2, 74, 127
2, 377404, Note_off_c, 12, 47, 127
2, 377406, Note_on_c, 0, 48, 127
2, 377406, Note_on_c, 4, 76, 127
2, 377560, Note_off_c, 4, 76, 127
2, 377560, Note_off_c, 0, 48, 127
2, 377562, Note_on_c, 2, 50, 127
2, 377562, Note_on_c, 5, 77, 127
2, 377718, Note_off_c, 10, 69, 127
2, 377718, Note_on_c, 10, 57, 127
2, 377718, Note_on_c, 10, 69, 127
2, 377872, Note_off_c, 10, 69, 127
2, 377872, Note_off_c, 10, 57, 127
2, 377874, Note_on_c, 12, 59, 127
2, 377874, Note_on_c, 7, 67, 127
2, 378028, Note_off_c, 7, 67, 127
2, 378028, Note_off_c, 12, 59, 127
2, 378030, Note_on_c, 0, 60, 127
2, 378030, Note_on_c, 10, 69, 127
2, 378184, Note_off_c, 10, 69, 127
2, 378184, Note_off_c, 0, 60, 127
2, 378186, Note_on_c, 2, 62, 127
2, 378186, Note_on_c, 12, 71, 127
2, 378277, Note_off_c, 5, 77, 127
2, 378309, Note_off_c, 2, 50, 127
2, 378341, Note_on_c, 2, 50, 127
2, 378341, Note_on_c, 6, 78, 127
2, 378493, Note_off_c, 2, 62, 127
2, 378495, Note_off_c, 6, 78, 127
2, 378495, Note_off_c, 2, 50, 127
2, 378497, Note_on_c, 0, 48, 127
2, 378497, Note_on_c, 4, 76, 127
2, 378651, Note_off_c, 4, 76, 127
2, 378651, Note_off_c, 0, 48, 127
2, 378653, Note_on_c, 2, 50, 127
2, 378653, Note_on_c, 6, 78, 127
2, 378807, Note_off_c, 6, 78, 127
2, 378807, Note_off_c, 2, 50, 127
2, 378809, Note_on_c, 4, 52, 127
2, 378809, Note_on_c, 7, 79, 127
2, 378965, Note_off_c, 12, 71, 127
2, 378965, Note_on_c, 12, 59, 127
2, 378965, Note_on_c, 12, 71, 127
2, 379119, Note_off_c, 12, 71, 127
2, 379119, Note_off_c, 12, 59, 127
2, 379121, Note_on_c, 0, 60, 127
2, 379121, Note_on_c, 10, 69, 127
2, 379275, Note_off_c, 10, 69, 127
2, 379275, Note_off_c, 0, 60, 127
2, 379277, Note_on_c, 2, 62, 127
2, 379277, Note_on_c, 12, 71, 127
2, 379431, Note_off_c, 12, 71, 127
2, 379431, Note_off_c, 2, 62, 127
2, 379433, Note_on_c, 4, 64, 127
2, 379433, Note_on_c, 0, 72, 127
2, 379556, Note_off_c, 7, 79, 127
2, 379556, Note_off_c, 4, 52, 127
2, 379588, Note_on_c, 4, 52, 127
2, 379588, Note_on_c, 7, 79, 127
2, 379740, Note_off_c, 4, 64, 127
2, 379742, Note_off_c, 7, 79, 127
2, 379742, Note_off_c, 4, 52, 127
2, 379744, Note_on_c, 2, 50, 127
2, 379744, Note_on_c, 5, 77, 127
2, 379898, Note_off_c, 5, 77, 127
2, 379898, Note_off_c, 2, 50, 127
2, 379900, Note_on_c, 4, 52, 127
2, 379900, Note_on_c, 7, 79, 127
2, 380054, Note_off_c, 7, 79, 127
2, 380054, Note_off_c, 4, 52, 127
2, 380056, Note_on_c, 5, 53, 127
2, 380056, Note_on_c, 10, 81, 127
2, 380212, Note_off_c, 0, 72, 127
2, 380212, Note_on_c, 0, 60, 127
2, 380212, Note_on_c, 0, 72, 127
2, 380366, Note_off_c, 0, 72, 127
2, 380366, Note_off_c, 0, 60, 127
2, 380368, Note_on_c, 2, 62, 127
2, 380368, Note_on_c, 12, 71, 127
2, 380522, Note_off_c, 12, 71, 127
2, 380522, Note_off_c, 2, 62, 127
2, 380524, Note_on_c, 4, 64, 127
2, 380524, Note_on_c, 0, 72, 127
2, 380678, Note_off_c, 0, 72, 127
2, 380678, Note_off_c, 4, 64, 127
2, 380680, Note_on_c, 5, 65, 127
2, 380680, Note_on_c, 2, 74, 127
2, 380803, Note_off_c, 10, 81, 127
2, 380803, Note_off_c, 5, 53, 127
2, 380835, Note_on_c, 5, 53, 127
2, 380835, Note_on_c, 10, 81, 127
2, 380987, Note_off_c, 5, 65, 127
2, 380989, Note_off_c, 10, 81, 127
2, 380989, Note_off_c, 5, 53, 127
2, 380991, Note_on_c, 4, 52, 127
2, 380991, Note_on_c, 7, 79, 127
2, 381145, Note_off_c, 7, 79, 127
2, 381145, Note_off_c, 4, 52, 127
2, 381147, Note_on_c, 6, 54, 127
2, 381147, Note_on_c, 10, 81, 127
2, 381301, Note_off_c, 10, 81, 127
2, 381301, Note_off_c, 6, 54, 127
2, 381303, Note_on_c, 7, 55, 127
2, 381303, Note_on_c, 12, 83, 127
2, 381459, Note_off_c, 2, 74, 127
2, 381459, Note_on_c, 2, 62, 127
2, 381459, Note_on_c, 2, 74, 127
2, 381613, Note_off_c, 2, 74, 127
2, 381613, Note_off_c, 2, 62, 127
2, 381615, Note_on_c, 4, 64, 127
2, 381615, Note_on_c, 0, 72, 127
2, 381769, Note_off_c, 0, 72, 127
2, 381769, Note_off_c, 4, 64, 127
2, 381771, Note_on_c, 6, 66, 127
2, 381771, Note_on_c, 2, 74, 127
2, 381925, Note_off_c, 2, 74, 127
2, 381925, Note_off_c, 6, 66, 127
2, 381927, Note_on_c, 7, 67, 127
2, 381927, Note_on_c, 4, 76, 127
2, 382034, Note_off_c, 7, 55, 127
2, 382050, Note_off_c, 12, 83, 127
2, 382082, Note_on_c, 7, 55, 127
2, 382082, Note_on_c, 12, 83, 127
2, 382234, Note_off_c, 7, 67, 127
2, 382236, Note_off_c, 12, 83, 127
2, 382236, Note_off_c, 7, 55, 127
2, 382238, Note_on_c, 6, 54, 127
2, 382238, Note_on_c, 10, 81, 127
2, 382392, Note_off_c, 10, 81, 127
2, 382392, Note_off_c, 6, 54, 127
2, 382394, Note_on_c, 7, 55, 127
2, 382394, Note_on_c, 12, 83, 127
2, 382548, Note_off_c, 12, 83, 127
2, 382548, Note_off_c, 7, 55, 127
2, 382550, Note_on_c, 10, 57, 127
2, 382550, Note_on_c, 0, 84, 127
2, 382704, Note_off_c, 0, 84, 127
2, 382706, Note_on_c, 12, 59, 127
2, 382706, Note_on_c, 12, 83, 127
2, 382860, Note_off_c, 12, 83, 127
2, 382860, Note_off_c, 12, 59, 127
2, 382860, Note_off_c, 4, 76, 127
2, 382862, Note_on_c, 0, 60, 127
2, 382862, Note_on_c, 10, 81, 127
2, 383016, Note_off_c, 10, 81, 127
2, 383018, Note_on_c, 4, 64, 127
2, 383018, Note_on_c, 7, 79, 127
2, 383172, Note_off_c, 7, 79, 127
2, 383172, Note_off_c, 4, 64, 127
2, 383174, Note_on_c, 6, 78, 127
2, 383174, Note_on_c, 10, 69, 127
2, 383328, Note_off_c, 6, 78, 127
2, 383330, Note_on_c, 4, 76, 127
2, 383484, Note_off_c, 4, 76, 127
2, 383486, Note_on_c, 3, 75, 127
2, 383640, Note_off_c, 3, 75, 127
2, 383642, Note_on_c, 4, 76, 127
2, 383791, Note_off_c, 10, 69, 127
2, 383796, Note_off_c, 4, 76, 127
2, 383796, Note_off_c, 0, 60, 127
2, 383798, Note_on_c, 6, 66, 127
2, 383798, Note_on_c, 12, 71, 127
2, 383798, Note_on_c, 3, 75, 127
2, 383952, Note_off_c, 12, 71, 127
2, 383954, Note_on_c, 10, 69, 127
2, 384108, Note_off_c, 10, 69, 127
2, 384110, Note_on_c, 7, 67, 127
2, 384253, Note_off_c, 6, 66, 127
2, 384264, Note_off_c, 7, 67, 127
2, 384266, Note_on_c, 6, 66, 127
2, 384415, Note_off_c, 3, 75, 127
2, 384418, Note_off_c, 10, 57, 127
2, 384420, Note_off_c, 6, 66, 127
2, 384422, Note_on_c, 4, 64, 127
2, 384422, Note_on_c, 7, 55, 127
2, 384422, Note_on_c, 12, 71, 127
2, 384422, Note_on_c, 4, 76, 127
2, 384576, Note_off_c, 4, 64, 127
2, 384578, Note_on_c, 2, 62, 127
2, 384732, Note_off_c, 2, 62, 127
2, 384734, Note_on_c, 0, 60, 127
2, 384888, Note_off_c, 0, 60, 127
2, 384890, Note_on_c, 12, 59, 127
2, 385039, Note_off_c, 7, 55, 127
2, 385044, Note_off_c, 12, 59, 127
2, 385044, Note_off_c, 4, 76, 127
2, 385044, Note_off_c, 12, 71, 127
2, 385046, Note_on_c, 10, 57, 127
2, 385046, Note_on_c, 6, 54, 127
2, 385046, Note_on_c, 10, 81, 127
2, 385046, Note_on_c, 0, 72, 127
2, 385200, Note_off_c, 10, 81, 127
2, 385202, Note_on_c, 7, 79, 127
2, 385356, Note_off_c, 7, 79, 127
2, 385358, Note_on_c, 6, 78, 127
2, 385512, Note_off_c, 6, 78, 127
2, 385514, Note_on_c, 4, 76, 127
2, 385663, Note_off_c, 0, 72, 127
2, 385668, Note_off_c, 4, 76, 127
2, 385670, Note_on_c, 3, 75, 127
2, 385824, Note_off_c, 3, 75, 127
2, 385824, Note_off_c, 10, 57, 127
2, 385826, Note_on_c, 0, 60, 127
2, 385826, Note_on_c, 4, 76, 127
2, 385980, Note_off_c, 4, 76, 127
2, 385980, Note_off_c, 0, 60, 127
2, 385982, Note_on_c, 12, 59, 127
2, 385982, Note_on_c, 1, 73, 127
2, 386136, Note_off_c, 1, 73, 127
2, 386136, Note_off_c, 12, 59, 127
2, 386138, Note_on_c, 10, 57, 127
2, 386138, Note_on_c, 3, 75, 127
2, 386292, Note_off_c, 3, 75, 127
2, 386292, Note_off_c, 10, 57, 127
2, 386292, Note_off_c, 6, 54, 127
2, 386294, Note_on_c, 4, 52, 127
2, 386294, Note_on_c, 4, 76, 127
2, 386450, Note_on_c, 12, 59, 127
2, 386450, Note_on_c, 8, 68, 127
2, 386604, Note_off_c, 8, 68, 127
2, 386604, Note_off_c, 12, 59, 127
2, 386606, Note_on_c, 10, 57, 127
2, 386606, Note_on_c, 10, 69, 127
2, 386760, Note_off_c, 10, 69, 127
2, 386760, Note_off_c, 10, 57, 127
2, 386762, Note_on_c, 12, 59, 127
2, 386762, Note_on_c, 6, 66, 127
2, 386916, Note_off_c, 6, 66, 127
2, 386916, Note_off_c, 12, 59, 127
2, 386918, Note_on_c, 8, 56, 127
2, 386918, Note_on_c, 4, 64, 127
2, 387072, Note_off_c, 8, 56, 127
2, 387074, Note_on_c, 10, 57, 127
2, 387228, Note_off_c, 10, 57, 127
2, 387228, Note_off_c, 4, 52, 127
2, 387230, Note_on_c, 2, 50, 127
2, 387230, Note_on_c, 6, 54, 127
2, 387384, Note_off_c, 6, 54, 127
2, 387386, Note_on_c, 8, 56, 127
2, 387535, Note_off_c, 4, 64, 127
2, 387538, Note_off_c, 2, 50, 127
2, 387540, Note_off_c, 8, 56, 127
2, 387542, Note_on_c, 1, 49, 127
2, 387542, Note_on_c, 10, 57, 127
2, 387691, Note_off_c, 4, 76, 127
2, 387697, Note_on_c, 10, 81, 127
2, 387851, Note_off_c, 10, 81, 127
2, 387853, Note_on_c, 7, 79, 127
2, 388007, Note_off_c, 7, 79, 127
2, 388009, Note_on_c, 10, 81, 127
2, 388163, Note_off_c, 10, 81, 127
2, 388165, Note_on_c, 4, 76, 127
2, 388319, Note_off_c, 4, 76, 127
2, 388319, Note_off_c, 1, 49, 127
2, 388321, Note_on_c, 10, 45, 127
2, 388321, Note_on_c, 7, 79, 127
2, 388475, Note_off_c, 7, 79, 127
2, 388475, Note_off_c, 10, 45, 127
2, 388477, Note_on_c, 12, 47, 127
2, 388477, Note_on_c, 5, 77, 127
2, 388631, Note_off_c, 5, 77, 127
2, 388631, Note_off_c, 12, 47, 127
2, 388633, Note_on_c, 1, 49, 127
2, 388633, Note_on_c, 4, 76, 127
2, 388787, Note_off_c, 4, 76, 127
2, 388787, Note_off_c, 1, 49, 127
2, 388789, Note_on_c, 2, 50, 127
2, 388789, Note_on_c, 5, 77, 127
2, 388938, Note_off_c, 10, 57, 127
2, 388943, Note_off_c, 5, 77, 127
2, 388945, Note_on_c, 11, 58, 127
2, 388945, Note_on_c, 7, 79, 127
2, 389099, Note_off_c, 7, 79, 127
2, 389099, Note_off_c, 11, 58, 127
2, 389101, Note_on_c, 10, 57, 127
2, 389101, Note_on_c, 5, 77, 127
2, 389255, Note_off_c, 5, 77, 127
2, 389255, Note_off_c, 10, 57, 127
2, 389257, Note_on_c, 7, 55, 127
2, 389257, Note_on_c, 4, 76, 127
2, 389411, Note_off_c, 4, 76, 127
2, 389411, Note_off_c, 7, 55, 127
2, 389413, Note_on_c, 5, 53, 127
2, 389413, Note_on_c, 2, 74, 127
2, 389567, Note_off_c, 2, 74, 127
2, 389567, Note_off_c, 5, 53, 127
2, 389569, Note_on_c, 7, 55, 127
2, 389569, Note_on_c, 4, 76, 127
2, 389723, Note_off_c, 4, 76, 127
2, 389723, Note_off_c, 7, 55, 127
2, 389725, Note_on_c, 5, 53, 127
2, 389725, Note_on_c, 2, 74, 127
2, 389879, Note_off_c, 2, 74, 127
2, 389879, Note_off_c, 5, 53, 127
2, 389881, Note_on_c, 4, 52, 127
2, 389881, Note_on_c, 1, 73, 127
2, 390035, Note_off_c, 1, 73, 127
2, 390035, Note_off_c, 4, 52, 127
2, 390037, Note_on_c, 5, 53, 127
2, 390037, Note_on_c, 2, 74, 127
2, 390191, Note_off_c, 2, 74, 127
2, 390193, Note_on_c, 4, 76, 127
2, 390347, Note_off_c, 4, 76, 127
2, 390347, Note_off_c, 5, 53, 127
2, 390349, Note_on_c, 10, 57, 127
2, 390349, Note_on_c, 2, 74, 127
2, 390503, Note_off_c, 2, 74, 127
2, 390505, Note_on_c, 0, 72, 127
2, 390659, Note_off_c, 0, 72, 127
2, 390659, Note_off_c, 10, 57, 127
2, 390661, Note_on_c, 2, 62, 127
2, 390661, Note_on_c, 12, 71, 127
2, 390815, Note_off_c, 12, 71, 127
2, 390817, Note_on_c, 0, 72, 127
2, 390971, Note_off_c, 0, 72, 127
2, 390971, Note_off_c, 2, 62, 127
2, 390973, Note_on_c, 0, 60, 127
2, 390973, Note_on_c, 12, 71, 127
2, 391127, Note_off_c, 12, 71, 127
2, 391129, Note_on_c, 10, 69, 127
2, 391283, Note_off_c, 10, 69, 127
2, 391283, Note_off_c, 0, 60, 127
2, 391285, Note_on_c, 12, 59, 127
2, 391285, Note_on_c, 8, 68, 127
2, 391441, Note_on_c, 6, 66, 127
2, 391595, Note_off_c, 6, 66, 127
2, 391597, Note_on_c, 4, 64, 127
2, 391751, Note_off_c, 4, 64, 127
2, 391753, Note_on_c, 2, 62, 127
2, 391902, Note_off_c, 8, 68, 127
2, 391907, Note_off_c, 2, 62, 127
2, 391907, Note_off_c, 12, 59, 127
2, 391909, Note_off_c, 2, 50, 127
2, 391909, Note_on_c, 10, 57, 127
2, 391909, Note_on_c, 0, 48, 127
2, 391909, Note_on_c, 4, 64, 127
2, 392065, Note_on_c, 10, 69, 127
2, 392219, Note_off_c, 10, 69, 127
2, 392221, Note_on_c, 12, 71, 127
2, 392375, Note_off_c, 12, 71, 127
2, 392377, Note_on_c, 10, 69, 127
2, 392526, Note_off_c, 4, 64, 127
2, 392531, Note_off_c, 0, 48, 127
2, 392531, Note_off_c, 10, 57, 127
2, 392533, Note_on_c, 12, 47, 127
2, 392533, Note_on_c, 12, 59, 127
2, 392533, Note_on_c, 2, 62, 127
2, 392687, Note_off_c, 2, 62, 127
2, 392689, Note_on_c, 4, 64, 127
2, 392843, Note_off_c, 4, 64, 127
2, 392845, Note_on_c, 2, 62, 127
2, 392999, Note_off_c, 2, 62, 127
2, 393001, Note_on_c, 1, 61, 127
2, 393155, Note_off_c, 1, 61, 127
2, 393155, Note_off_c, 12, 59, 127
2, 393155, Note_off_c, 12, 47, 127
2, 393157, Note_off_c, 10, 69, 127
2, 393157, Note_on_c, 12, 59, 127
2, 393157, Note_on_c, 4, 52, 127
2, 393157, Note_on_c, 2, 62, 127
2, 393313, Note_on_c, 8, 68, 127
2, 393467, Note_off_c, 8, 68, 127
2, 393469, Note_on_c, 10, 69, 127
2, 393623, Note_off_c, 10, 69, 127
2, 393625, Note_on_c, 8, 68, 127
2, 393774, Note_off_c, 2, 62, 127
2, 393779, Note_off_c, 8, 68, 127
2, 393779, Note_off_c, 4, 52, 127
2, 393779, Note_off_c, 12, 59, 127
2, 393781, Note_on_c, 10, 45, 127
2, 393781, Note_on_c, 10, 57, 127
2, 393781, Note_on_c, 0, 60, 127
2, 393781, Note_on_c, 10, 69, 127
2, 393935, Note_off_c, 10, 69, 127
2, 393937, Note_on_c, 12, 71, 127
2, 394091, Note_off_c, 12, 71, 127
2, 394093, Note_on_c, 10, 69, 127
2, 394247, Note_off_c, 10, 69, 127
2, 394249, Note_on_c, 8, 68, 127
2, 394403, Note_off_c, 8, 68, 127
2, 394405, Note_on_c, 10, 69, 127
2, 394559, Note_off_c, 10, 69, 127
2, 394561, Note_on_c, 4, 64, 127
2, 394715, Note_off_c, 4, 64, 127
2, 394715, Note_off_c, 10, 45, 127
2, 394717, Note_on_c, 10, 45, 127
2, 394717, Note_on_c, 5, 65, 127
2, 394871, Note_off_c, 5, 65, 127
2, 394873, Note_on_c, 4, 64, 127
2, 395027, Note_off_c, 4, 64, 127
2, 395027, Note_off_c, 10, 45, 127
2, 395027, Note_off_c, 0, 60, 127
2, 395027, Note_off_c, 10, 57, 127
2, 395029, Note_on_c, 12, 47, 127
2, 395029, Note_on_c, 2, 62, 127
2, 395183, Note_off_c, 2, 62, 127
2, 395183, Note_off_c, 12, 47, 127
2, 395185, Note_on_c, 2, 50, 127
2, 395185, Note_on_c, 5, 65, 127
2, 395339, Note_off_c, 5, 65, 127
2, 395339, Note_off_c, 2, 50, 127
2, 395341, Note_on_c, 12, 47, 127
2, 395341, Note_on_c, 7, 67, 127
2, 395495, Note_off_c, 7, 67, 127
2, 395495, Note_off_c, 12, 47, 127
2, 395497, Note_on_c, 7, 43, 127
2, 395497, Note_on_c, 5, 65, 127
2, 395651, Note_off_c, 5, 65, 127
2, 395651, Note_off_c, 7, 43, 127
2, 395653, Note_on_c, 0, 48, 127
2, 395653, Note_on_c, 4, 64, 127
2, 395807, Note_off_c, 4, 64, 127
2, 395807, Note_off_c, 0, 48, 127
2, 395809, Note_on_c, 4, 52, 127
2, 395809, Note_on_c, 7, 67, 127
2, 395963, Note_off_c, 7, 67, 127
2, 395963, Note_off_c, 4, 52, 127
2, 395965, Note_on_c, 1, 49, 127
2, 395965, Note_on_c, 10, 69, 127
2, 396119, Note_off_c, 10, 69, 127
2, 396119, Note_off_c, 1, 49, 127
2, 396121, Note_on_c, 10, 45, 127
2, 396121, Note_on_c, 7, 67, 127
2, 396275, Note_off_c, 7, 67, 127
2, 396275, Note_off_c, 10, 45, 127
2, 396277, Note_on_c, 2, 50, 127
2, 396277, Note_on_c, 6, 66, 127
2, 396431, Note_off_c, 6, 66, 127
2, 396431, Note_off_c, 2, 50, 127
2, 396433, Note_on_c, 6, 54, 127
2, 396433, Note_on_c, 10, 69, 127
2, 396587, Note_off_c, 10, 69, 127
2, 396587, Note_off_c, 6, 54, 127
2, 396589, Note_on_c, 3, 51, 127
2, 396589, Note_on_c, 12, 71, 127
2, 396743, Note_off_c, 12, 71, 127
2, 396743, Note_off_c, 3, 51, 127
2, 396745, Note_on_c, 12, 47, 127
2, 396745, Note_on_c, 10, 69, 127
2, 396899, Note_off_c, 10, 69, 127
2, 396899, Note_off_c, 12, 47, 127
2, 396901, Note_on_c, 4, 52, 127
2, 396901, Note_on_c, 8, 68, 127
2, 397055, Note_off_c, 8, 68, 127
2, 397055, Note_off_c, 4, 52, 127
2, 397057, Note_on_c, 8, 56, 127
2, 397057, Note_on_c, 12, 71, 127
2, 397211, Note_off_c, 12, 71, 127
2, 397211, Note_off_c, 8, 56, 127
2, 397213, Note_on_c, 4, 52, 127
2, 397213, Note_on_c, 0, 72, 127
2, 397367, Note_off_c, 0, 72, 127
2, 397367, Note_off_c, 4, 52, 127
2, 397369, Note_on_c, 0, 48, 127
2, 397369, Note_on_c, 12, 71, 127
2, 397523, Note_off_c, 12, 71, 127
2, 397523, Note_off_c, 0, 48, 127
2, 397525, Note_on_c, 5, 53, 127
2, 397525, Note_on_c, 10, 69, 127
2, 397679, Note_off_c, 10, 69, 127
2, 397679, Note_off_c, 5, 53, 127
2, 397681, Note_on_c, 10, 57, 127
2, 397681, Note_on_c, 0, 72, 127
2, 397835, Note_off_c, 0, 72, 127
2, 397835, Note_off_c, 10, 57, 127
2, 397837, Note_on_c, 6, 54, 127
2, 397837, Note_on_c, 2, 74, 127
2, 397991, Note_off_c, 2, 74, 127
2, 397991, Note_off_c, 6, 54, 127
2, 397993, Note_on_c, 2, 50, 127
2, 397993, Note_on_c, 0, 72, 127
2, 398147, Note_off_c, 0, 72, 127
2, 398147, Note_off_c, 2, 50, 127
2, 398149, Note_on_c, 7, 55, 127
2, 398149, Note_on_c, 12, 71, 127
2, 398303, Note_off_c, 12, 71, 127
2, 398303, Note_off_c, 7, 55, 127
2, 398305, Note_on_c, 12, 59, 127
2, 398305, Note_on_c, 2, 74, 127
2, 398459, Note_off_c, 2, 74, 127
2, 398459, Note_off_c, 12, 59, 127
2, 398461, Note_on_c, 8, 56, 127
2, 398461, Note_on_c, 4, 76, 127
2, 398615, Note_off_c, 4, 76, 127
2, 398615, Note_off_c, 8, 56, 127
2, 398617, Note_on_c, 4, 52, 127
2, 398617, Note_on_c, 2, 74, 127
2, 398771, Note_off_c, 2, 74, 127
2, 398771, Note_off_c, 4, 52, 127
2, 398773, Note_on_c, 10, 57, 127
2, 398773, Note_on_c, 0, 72, 127
2, 398927, Note_off_c, 0, 72, 127
2, 398927, Note_off_c, 10, 57, 127
2, 398929, Note_on_c, 0, 60, 127
2, 398929, Note_on_c, 4, 76, 127
2, 399083, Note_off_c, 4, 76, 127
2, 399083, Note_off_c, 0, 60, 127
2, 399085, Note_on_c, 10, 57, 127
2, 399085, Note_on_c, 5, 77, 127
2, 399239, Note_off_c, 5, 77, 127
2, 399239, Note_off_c, 10, 57, 127
2, 399241, Note_on_c, 5, 53, 127
2, 399241, Note_on_c, 4, 76, 127
2, 399395, Note_off_c, 4, 76, 127
2, 399395, Note_off_c, 5, 53, 127
2, 399397, Note_on_c, 12, 59, 127
2, 399397, Note_on_c, 2, 74, 127
2, 399551, Note_off_c, 2, 74, 127
2, 399551, Note_off_c, 12, 59, 127
2, 399553, Note_on_c, 2, 62, 127
2, 399553, Note_on_c, 5, 77, 127
2, 399707, Note_off_c, 5, 77, 127
2, 399707, Note_off_c, 2, 62, 127
2, 399709, Note_on_c, 12, 59, 127
2, 399709, Note_on_c, 7, 79, 127
2, 399863, Note_off_c, 7, 79, 127
2, 399863, Note_off_c, 12, 59, 127
2, 399865, Note_on_c, 7, 55, 127
2, 399865, Note_on_c, 5, 77, 127
2, 400019, Note_off_c, 5, 77, 127
2, 400019, Note_off_c, 7, 55, 127
2, 400021, Note_on_c, 0, 60, 127
2, 400021, Note_on_c, 4, 76, 127
2, 400175, Note_off_c, 4, 76, 127
2, 400175, Note_off_c, 0, 60, 127
2, 400177, Note_on_c, 4, 64, 127
2, 400177, Note_on_c, 7, 79, 127
2, 400331, Note_off_c, 7, 79, 127
2, 400331, Note_off_c, 4, 64, 127
2, 400333, Note_on_c, 1, 61, 127
2, 400333, Note_on_c, 10, 81, 127
2, 400487, Note_off_c, 10, 81, 127
2, 400487, Note_off_c, 1, 61, 127
2, 400489, Note_on_c, 10, 57, 127
2, 400489, Note_on_c, 7, 79, 127
2, 400643, Note_off_c, 7, 79, 127
2, 400643, Note_off_c, 10, 57, 127
2, 400645, Note_on_c, 2, 62, 127
2, 400645, Note_on_c, 6, 78, 127
2, 400799, Note_off_c, 6, 78, 127
2, 400799, Note_off_c, 2, 62, 127
2, 400801, Note_on_c, 6, 66, 127
2, 400801, Note_on_c, 10, 81, 127
2, 400955, Note_off_c, 10, 81, 127
2, 400955, Note_off_c, 6, 66, 127
2, 400957, Note_on_c, 3, 63, 127
2, 400957, Note_on_c, 12, 83, 127
2, 401111, Note_off_c, 12, 83, 127
2, 401111, Note_off_c, 3, 63, 127
2, 401113, Note_on_c, 12, 59, 127
2, 401113, Note_on_c, 10, 81, 127
2, 401267, Note_off_c, 10, 81, 127
2, 401267, Note_off_c, 12, 59, 127
2, 401269, Note_on_c, 4, 64, 127
2, 401269, Note_on_c, 8, 80, 127
2, 401434, Note_off_c, 8, 80, 127
2, 401434, Note_on_c, 10, 81, 127
2, 401597, Note_off_c, 10, 81, 127
2, 401599, Note_on_c, 12, 83, 127
2, 401764, Note_on_c, 2, 74, 127
2, 401927, Note_off_c, 2, 74, 127
2, 401929, Note_on_c, 0, 72, 127
2, 402094, Note_on_c, 4, 76, 127
2, 402252, Note_off_c, 12, 83, 127
2, 402257, Note_off_c, 4, 76, 127
2, 402259, Note_on_c, 10, 81, 127
2, 402410, Note_off_c, 0, 72, 127
2, 402424, Note_on_c, 0, 72, 127
2, 402585, Note_off_c, 10, 81, 127
2, 402587, Note_off_c, 0, 72, 127
2, 402589, Note_on_c, 12, 71, 127
2, 402589, Note_on_c, 8, 80, 127
2, 402752, Note_off_c, 8, 80, 127
2, 402752, Note_off_c, 12, 71, 127
2, 402754, Note_on_c, 10, 81, 127
2, 402754, Note_on_c, 0, 72, 127
2, 402917, Note_off_c, 0, 72, 127
2, 402917, Note_off_c, 10, 81, 127
2, 402919, Note_on_c, 10, 69, 127
2, 402919, Note_on_c, 6, 78, 127
2, 403082, Note_off_c, 6, 78, 127
2, 403082, Note_off_c, 10, 69, 127
2, 403084, Note_on_c, 8, 80, 127
2, 403084, Note_on_c, 12, 71, 127
2, 403247, Note_off_c, 12, 71, 127
2, 403247, Note_off_c, 8, 80, 127
2, 403249, Note_on_c, 8, 68, 127
2, 403249, Note_on_c, 4, 76, 127
2, 403412, Note_off_c, 4, 76, 127
2, 403412, Note_off_c, 8, 68, 127
2, 403414, Note_on_c, 10, 69, 127
2, 403414, Note_on_c, 5, 77, 127
2, 403577, Note_off_c, 5, 77, 127
2, 403577, Note_off_c, 10, 69, 127
2, 403579, Note_on_c, 6, 66, 127
2, 403579, Note_on_c, 2, 74, 127
2, 403742, Note_off_c, 2, 74, 127
2, 403742, Note_off_c, 6, 66, 127
2, 403744, Note_on_c, 8, 68, 127
2, 403744, Note_on_c, 4, 76, 127
2, 403907, Note_off_c, 4, 76, 127
2, 403907, Note_off_c, 8, 68, 127
2, 403907, Note_off_c, 4, 64, 127
2, 403909, Note_on_c, 10, 57, 127
2, 403909, Note_on_c, 10, 69, 127
2, 403909, Note_on_c, 0, 72, 127
2, 404072, Note_off_c, 0, 72, 127
2, 404072, Note_off_c, 10, 57, 127
2, 404074, Note_on_c, 5, 53, 127
2, 404074, Note_on_c, 2, 74, 127
2, 404237, Note_off_c, 2, 74, 127
2, 404237, Note_off_c, 5, 53, 127
2, 404239, Note_on_c, 4, 52, 127
2, 404239, Note_on_c, 0, 72, 127
2, 404402, Note_off_c, 0, 72, 127
2, 404402, Note_off_c, 4, 52, 127
2, 404404, Note_on_c, 2, 50, 127
2, 404404, Note_on_c, 12, 71, 127
2, 404567, Note_off_c, 12, 71, 127
2, 404567, Note_off_c, 2, 50, 127
2, 404569, Note_on_c, 0, 48, 127
2, 404569, Note_on_c, 0, 72, 127
2, 404732, Note_off_c, 0, 72, 127
2, 404732, Note_off_c, 0, 48, 127
2, 404734, Note_on_c, 12, 47, 127
2, 404734, Note_on_c, 2, 74, 127
2, 404897, Note_off_c, 2, 74, 127
2, 404897, Note_off_c, 12, 47, 127
2, 404899, Note_on_c, 10, 45, 127
2, 404899, Note_on_c, 0, 72, 127
2, 405062, Note_off_c, 0, 72, 127
2, 405062, Note_off_c, 10, 45, 127
2, 405064, Note_on_c, 8, 44, 127
2, 405064, Note_on_c, 12, 71, 127
2, 405227, Note_off_c, 12, 71, 127
2, 405227, Note_off_c, 8, 44, 127
2, 405229, Note_on_c, 10, 45, 127
2, 405229, Note_on_c, 0, 72, 127
2, 405392, Note_off_c, 0, 72, 127
2, 405394, Note_on_c, 2, 74, 127
2, 405557, Note_off_c, 2, 74, 127
2, 405557, Note_off_c, 10, 45, 127
2, 405559, Note_on_c, 2, 38, 127
2, 405559, Note_on_c, 0, 72, 127
2, 405722, Note_off_c, 0, 72, 127
2, 405724, Note_on_c, 12, 71, 127
2, 405887, Note_off_c, 12, 71, 127
2, 405887, Note_off_c, 2, 38, 127
2, 405889, Note_on_c, 4, 40, 127
2, 405889, Note_on_c, 0, 72, 127
2, 406052, Note_off_c, 0, 72, 127
2, 406054, Note_on_c, 2, 74, 127
2, 406217, Note_off_c, 2, 74, 127
2, 406219, Note_on_c, 0, 72, 127
2, 406382, Note_off_c, 0, 72, 127
2, 406384, Note_on_c, 12, 71, 127
2, 406538, Note_off_c, 10, 69, 127
2, 406547, Note_off_c, 12, 71, 127
2, 406547, Note_off_c, 4, 40, 127
2, 406549, Note_on_c, 10, 45, 127
2, 406549, Note_on_c, 0, 72, 127
2, 406710, Note_off_c, 0, 72, 127
2, 406712, Note_on_c, 2, 74, 127
2, 406873, Note_off_c, 2, 74, 127
2, 406873, Note_off_c, 10, 45, 127
2, 406875, Note_on_c, 4, 52, 127
2, 406875, Note_on_c, 12, 71, 127
2, 407036, Note_off_c, 12, 71, 127
2, 407038, Note_on_c, 2, 74, 127
2, 407199, Note_off_c, 2, 74, 127
2, 407199, Note_off_c, 4, 52, 127
2, 407201, Note_on_c, 10, 57, 127
2, 407201, Note_on_c, 0, 72, 127
2, 407362, Note_off_c, 0, 72, 127
2, 407362, Note_off_c, 10, 57, 127
2, 407364, Note_on_c, 0, 60, 127
2, 407364, Note_on_c, 4, 76, 127
2, 407525, Note_off_c, 4, 76, 127
2, 407525, Note_off_c, 0, 60, 127
2, 407527, Note_on_c, 12, 59, 127
2, 407527, Note_on_c, 2, 74, 127
2, 407688, Note_off_c, 2, 74, 127
2, 407688, Note_off_c, 12, 59, 127
2, 407690, Note_on_c, 2, 62, 127
2, 407690, Note_on_c, 5, 77, 127
2, 407851, Note_off_c, 5, 77, 127
2, 407851, Note_off_c, 2, 62, 127
2, 407853, Note_on_c, 0, 60, 127
2, 407853, Note_on_c, 4, 76, 127
2, 408011, Note_off_c, 4, 76, 127
2, 408011, Note_off_c, 0, 60, 127
2, 408013, Note_on_c, 4, 64, 127
2, 408013, Note_on_c, 8, 80, 127
2, 408171, Note_off_c, 8, 80, 127
2, 408171, Note_off_c, 4, 64, 127
2, 408173, Note_on_c, 2, 62, 127
2, 408173, Note_on_c, 6, 78, 127
2, 408331, Note_off_c, 6, 78, 127
2, 408331, Note_off_c, 2, 62, 127
2, 408333, Note_on_c, 5, 65, 127
2, 408333, Note_on_c, 10, 81, 127
2, 408491, Note_off_c, 10, 81, 127
2, 408491, Note_off_c, 5, 65, 127
2, 408493, Note_on_c, 4, 64, 127
2, 408493, Note_on_c, 8, 80, 127
2, 408651, Note_off_c, 8, 80, 127
2, 408653, Note_on_c, 10, 81, 127
2, 408811, Note_off_c, 10, 81, 127
2, 408813, Note_on_c, 12, 83, 127
2, 408813, Note_on_c, 2, 74, 127
2, 408971, Note_off_c, 12, 83, 127
2, 408973, Note_on_c, 8, 80, 127
2, 409131, Note_off_c, 8, 80, 127
2, 409133, Note_on_c, 10, 81, 127
2, 409284, Note_off_c, 2, 74, 127
2, 409296, Note_off_c, 4, 64, 127
2, 409298, Note_on_c, 10, 57, 127
2, 409298, Note_on_c, 2, 74, 127
2, 409461, Note_off_c, 2, 74, 127
2, 409463, Note_on_c, 0, 60, 127
2, 409463, Note_on_c, 0, 72, 127
2, 409626, Note_off_c, 0, 72, 127
2, 409626, Note_off_c, 0, 60, 127
2, 409628, Note_on_c, 4, 64, 127
2, 409628, Note_on_c, 12, 71, 127
2, 409791, Note_off_c, 12, 71, 127
2, 409791, Note_off_c, 4, 64, 127
2, 409793, Note_on_c, 0, 72, 127
2, 409793, Note_on_c, 10, 69, 127
2, 409970, Note_off_c, 10, 81, 127
2, 409970, Note_on_c, 12, 83, 127
2, 410144, Note_off_c, 10, 69, 127
2, 410144, Note_off_c, 0, 72, 127
2, 410146, Note_off_c, 12, 83, 127
2, 410148, Note_on_c, 2, 74, 127
2, 410148, Note_on_c, 10, 81, 127
2, 410148, Note_on_c, 12, 71, 127
2, 410323, Note_off_c, 10, 81, 127
2, 410325, Note_on_c, 8, 80, 127
2, 410499, Note_off_c, 12, 71, 127
2, 410499, Note_off_c, 2, 74, 127
2, 410501, Note_off_c, 8, 80, 127
2, 410503, Note_on_c, 10, 81, 127
2, 410503, Note_on_c, 4, 76, 127
2, 410503, Note_on_c, 0, 72, 127
2, 410710, Note_off_c, 10, 57, 127
2, 410712, Note_on_c, 10, 57, 127
2, 410919, Note_off_c, 10, 57, 127
2, 410921, Note_on_c, 4, 52, 127
2, 411128, Note_off_c, 4, 52, 127
2, 411145, Note_on_c, 0, 48, 127
2, 411352, Note_off_c, 0, 48, 127
2, 411393, Note_on_c, 10, 45, 127
2, 413503, Note_off_c, 0, 72, 127
2, 413503, Note_off_c, 4, 76, 127
2, 413503, Note_off_c, 10, 81, 127
2, 413793, Note_off_c, 10, 45, 127
2, 415112, Note_on_c, 10, 45, 127
2, 415112, Note_on_c, 4, 76, 127
2, 415306, Note_off_c, 4, 76, 127
2, 415306, Note_off_c, 10, 45, 127
2, 415307, Note_on_c, 10, 45, 127
2, 415307, Note_on_c, 4, 76, 127
2, 415307, Note_on_c, 0, 72, 127
2, 415307, Note_on_c, 4, 64, 127
2, 415307, Note_on_c, 10, 69, 127
2, 415501, Note_off_c, 10, 45, 127
2, 415502, Note_on_c, 10, 57, 127
2, 415696, Note_off_c, 10, 57, 127
2, 415697, Note_on_c, 7, 55, 127
2, 415891, Note_off_c, 7, 55, 127
2, 415892, Note_on_c, 5, 53, 127
2, 416086, Note_off_c, 5, 53, 127
2, 416087, Note_on_c, 4, 52, 127
2, 416281, Note_off_c, 4, 52, 127
2, 416282, Note_on_c, 2, 50, 127
2, 416475, Note_off_c, 10, 69, 127
2, 416475, Note_off_c, 4, 64, 127
2, 416476, Note_off_c, 2, 50, 127
2, 416477, Note_on_c, 0, 48, 127
2, 416671, Note_off_c, 0, 48, 127
2, 416672, Note_on_c, 12, 47, 127
2, 416866, Note_off_c, 12, 47, 127
2, 416867, Note_on_c, 10, 45, 127
2, 417061, Note_off_c, 0, 72, 127
2, 417061, Note_off_c, 4, 76, 127
2, 417062, Note_on_c, 4, 52, 127
2, 417062, Note_on_c, 10, 81, 127
2, 417253, Note_off_c, 10, 45, 127
2, 417256, Note_off_c, 10, 81, 127
2, 417256, Note_off_c, 4, 52, 127
2, 417257, Note_on_c, 10, 57, 127
2, 417257, Note_on_c, 4, 76, 127
2, 417451, Note_off_c, 4, 76, 127
2, 417451, Note_off_c, 10, 57, 127
2, 417452, Note_on_c, 10, 45, 127
2, 417452, Note_on_c, 7, 79, 127
2, 417645, Note_off_c, 10, 45, 127
2, 417646, Note_off_c, 7, 79, 127
2, 417647, Note_on_c, 5, 77, 127
2, 417842, Note_on_c, 2, 50, 127
2, 417842, Note_on_c, 2, 74, 127
2, 418036, Note_off_c, 2, 74, 127
2, 418036, Note_off_c, 2, 50, 127
2, 418037, Note_on_c, 5, 53, 127
2, 418037, Note_on_c, 10, 69, 127
2, 418231, Note_off_c, 10, 69, 127
2, 418231, Note_off_c, 5, 53, 127
2, 418232, Note_on_c, 10, 57, 127
2, 418232, Note_on_c, 0, 72, 127
2, 418426, Note_off_c, 0, 72, 127
2, 418426, Note_off_c, 10, 57, 127
2, 418427, Note_on_c, 2, 62, 127
2, 418427, Note_on_c, 12, 71, 127
2, 418621, Note_off_c, 12, 71, 127
2, 418621, Note_off_c, 2, 62, 127
2, 418622, Note_on_c, 2, 50, 127
2, 418622, Note_on_c, 10, 69, 127
2, 418815, Note_off_c, 2, 50, 127
2, 418815, Note_off_c, 5, 77, 127
2, 418816, Note_off_c, 10, 69, 127
2, 418817, Note_on_c, 8, 68, 127
2, 419012, Note_on_c, 4, 52, 127
2, 419012, Note_on_c, 4, 76, 127
2, 419206, Note_off_c, 4, 76, 127
2, 419206, Note_off_c, 4, 52, 127
2, 419207, Note_on_c, 8, 56, 127
2, 419207, Note_on_c, 12, 71, 127
2, 419401, Note_off_c, 12, 71, 127
2, 419401, Note_off_c, 8, 56, 127
2, 419402, Note_on_c, 12, 59, 127
2, 419402, Note_on_c, 2, 74, 127
2, 419596, Note_off_c, 2, 74, 127
2, 419596, Note_off_c, 12, 59, 127
2, 419597, Note_on_c, 4, 64, 127
2, 419597, Note_on_c, 0, 72, 127
2, 419791, Note_off_c, 0, 72, 127
2, 419791, Note_off_c, 4, 64, 127
2, 419792, Note_on_c, 4, 52, 127
2, 419792, Note_on_c, 12, 71, 127
2, 419985, Note_off_c, 8, 68, 127
2, 419986, Note_off_c, 12, 71, 127
2, 419986, Note_off_c, 4, 52, 127
2, 419987, Note_on_c, 10, 57, 127
2, 419987, Note_on_c, 0, 72, 127
2, 420182, Note_on_c, 12, 71, 127
2, 420373, Note_off_c, 10, 57, 127
2, 420376, Note_off_c, 12, 71, 127
2, 420377, Note_on_c, 10, 69, 127
2, 420475, Note_on_c, 8, 44, 127
2, 420572, Note_off_c, 8, 44, 127
2, 420572, Note_off_c, 10, 69, 127
2, 420573, Note_on_c, 10, 45, 127
2, 420573, Note_on_c, 8, 68, 127
2, 420670, Note_off_c, 10, 45, 127
2, 420671, Note_on_c, 12, 47, 127
2, 420768, Note_off_c, 12, 47, 127
2, 420768, Note_off_c, 8, 68, 127
2, 420769, Note_on_c, 0, 48, 127
2, 420769, Note_on_c, 10, 69, 127
2, 420866, Note_off_c, 0, 48, 127
2, 420867, Note_on_c, 2, 50, 127
2, 420964, Note_off_c, 2, 50, 127
2, 420965, Note_off_c, 0, 72, 127
2, 420965, Note_on_c, 12, 47, 127
2, 420965, Note_on_c, 2, 74, 127
2, 421062, Note_off_c, 12, 47, 127
2, 421063, Note_on_c, 0, 48, 127
2, 421160, Note_off_c, 0, 48, 127
2, 421160, Note_off_c, 2, 74, 127
2, 421161, Note_on_c, 2, 50, 127
2, 421161, Note_on_c, 0, 72, 127
2, 421355, Note_off_c, 10, 69, 127
2, 421356, Note_on_c, 12, 71, 127
2, 421547, Note_off_c, 2, 50, 127
2, 421550, Note_off_c, 12, 71, 127
2, 421551, Note_on_c, 10, 69, 127
2, 421649, Note_on_c, 12, 47, 127
2, 421746, Note_off_c, 12, 47, 127
2, 421746, Note_off_c, 0, 72, 127
2, 421747, Note_on_c, 0, 48, 127
2, 421747, Note_on_c, 12, 71, 127
2, 421844, Note_off_c, 0, 48, 127
2, 421845, Note_on_c, 2, 50, 127
2, 421942, Note_off_c, 2, 50, 127
2, 421942, Note_off_c, 12, 71, 127
2, 421943, Note_on_c, 4, 52, 127
2, 421943, Note_on_c, 0, 72, 127
2, 422040, Note_off_c, 4, 52, 127
2, 422041, Note_on_c, 5, 53, 127
2, 422138, Note_off_c, 5, 53, 127
2, 422138, Note_off_c, 0, 72, 127
2, 422139, Note_on_c, 2, 50, 127
2, 422139, Note_on_c, 2, 74, 127
2, 422236, Note_off_c, 2, 50, 127
2, 422237, Note_on_c, 4, 52, 127
2, 422334, Note_off_c, 4, 52, 127
2, 422334, Note_off_c, 2, 74, 127
2, 422335, Note_on_c, 5, 53, 127
2, 422335, Note_on_c, 0, 72, 127
2, 422530, Note_off_c, 10, 69, 127
2, 422530, Note_on_c, 12, 71, 127
2, 422724, Note_off_c, 12, 71, 127
2, 422725, Note_on_c, 10, 69, 127
2, 422782, Note_off_c, 5, 53, 127
2, 422823, Note_on_c, 5, 53, 127
2, 422920, Note_off_c, 5, 53, 127
2, 422920, Note_off_c, 10, 69, 127
2, 422921, Note_on_c, 4, 52, 127
2, 422921, Note_on_c, 8, 68, 127
2, 423018, Note_off_c, 4, 52, 127
2, 423019, Note_on_c, 2, 50, 127
2, 423116, Note_off_c, 2, 50, 127
2, 423116, Note_off_c, 8, 68, 127
2, 423117, Note_on_c, 0, 48, 127
2, 423117, Note_on_c, 10, 69, 127
2, 423214, Note_off_c, 0, 48, 127
2, 423215, Note_on_c, 2, 50, 127
2, 423312, Note_off_c, 2, 50, 127
2, 423313, Note_off_c, 0, 72, 127
2, 423313, Note_on_c, 12, 47, 127
2, 423313, Note_on_c, 2, 74, 127
2, 423410, Note_off_c, 12, 47, 127
2, 423411, Note_on_c, 0, 48, 127
2, 423508, Note_off_c, 0, 48, 127
2, 423508, Note_off_c, 2, 74, 127
2, 423509, Note_on_c, 2, 50, 127
2, 423509, Note_on_c, 0, 72, 127
2, 423703, Note_off_c, 10, 69, 127
2, 423704, Note_on_c, 12, 71, 127
2, 423895, Note_off_c, 2, 50, 127
2, 423898, Note_off_c, 12, 71, 127
2, 423899, Note_on_c, 10, 69, 127
2, 423997, Note_on_c, 12, 47, 127
2, 424094, Note_off_c, 12, 47, 127
2, 424094, Note_off_c, 0, 72, 127
2, 424095, Note_on_c, 0, 48, 127
2, 424095, Note_on_c, 12, 71, 127
2, 424192, Note_off_c, 0, 48, 127
2, 424193, Note_on_c, 2, 50, 127
2, 424290, Note_off_c, 2, 50, 127
2, 424290, Note_off_c, 12, 71, 127
2, 424291, Note_on_c, 4, 52, 127
2, 424291, Note_on_c, 0, 72, 127
2, 424388, Note_off_c, 4, 52, 127
2, 424389, Note_on_c, 5, 53, 127
2, 424486, Note_off_c, 5, 53, 127
2, 424486, Note_off_c, 0, 72, 127
2, 424487, Note_on_c, 2, 50, 127
2, 424487, Note_on_c, 2, 74, 127
2, 424584, Note_off_c, 2, 50, 127
2, 424585, Note_on_c, 4, 52, 127
2, 424682, Note_off_c, 4, 52, 127
2, 424682, Note_off_c, 2, 74, 127
2, 424683, Note_on_c, 10, 45, 127
2, 424683, Note_on_c, 0, 72, 127
2, 424877, Note_off_c, 0, 72, 127
2, 424878, Note_off_c, 10, 69, 127
2, 424878, Note_on_c, 12, 71, 127
2, 425072, Note_off_c, 12, 71, 127
2, 425073, Note_on_c, 10, 69, 127
2, 425268, Note_on_c, 7, 67, 127
2, 425462, Note_off_c, 7, 67, 127
2, 425462, Note_off_c, 10, 45, 127
2, 425463, Note_on_c, 10, 57, 127
2, 425463, Note_on_c, 5, 65, 127
2, 425657, Note_off_c, 5, 65, 127
2, 425657, Note_off_c, 10, 69, 127
2, 425658, Note_on_c, 10, 81, 127
2, 425658, Note_on_c, 4, 64, 127
2, 425852, Note_off_c, 4, 64, 127
2, 425852, Note_off_c, 10, 81, 127
2, 425852, Note_off_c, 10, 57, 127
2, 425853, Note_on_c, 12, 59, 127
2, 425853, Note_on_c, 2, 62, 127
2, 425853, Note_on_c, 7, 79, 127
2, 426047, Note_off_c, 2, 62, 127
2, 426048, Note_on_c, 7, 67, 127
2, 426242, Note_off_c, 7, 67, 127
2, 426243, Note_on_c, 2, 74, 127
2, 426437, Note_off_c, 7, 79, 127
2, 426438, Note_on_c, 10, 81, 127
2, 426632, Note_off_c, 10, 81, 127
2, 426632, Note_off_c, 12, 59, 127
2, 426633, Note_on_c, 12, 47, 127
2, 426633, Note_on_c, 7, 79, 127
2, 426827, Note_off_c, 7, 79, 127
2, 426828, Note_on_c, 5, 77, 127
2, 427022, Note_off_c, 5, 77, 127
2, 427022, Note_off_c, 12, 47, 127
2, 427023, Note_on_c, 0, 48, 127
2, 427023, Note_on_c, 4, 76, 127
2, 427218, Note_off_c, 2, 74, 127
2, 427218, Note_on_c, 7, 67, 127
2, 427412, Note_off_c, 7, 67, 127
2, 427413, Note_on_c, 0, 72, 127
2, 427607, Note_off_c, 4, 76, 127
2, 427607, Note_off_c, 0, 48, 127
2, 427608, Note_on_c, 2, 50, 127
2, 427608, Note_on_c, 5, 77, 127
2, 427802, Note_off_c, 5, 77, 127
2, 427802, Note_off_c, 2, 50, 127
2, 427803, Note_on_c, 4, 52, 127
2, 427803, Note_on_c, 7, 79, 127
2, 427997, Note_off_c, 4, 52, 127
2, 427997, Note_off_c, 0, 72, 127
2, 427998, Note_on_c, 12, 47, 127
2, 427998, Note_on_c, 2, 74, 127
2, 428192, Note_off_c, 2, 74, 127
2, 428192, Note_off_c, 12, 47, 127
2, 428193, Note_on_c, 0, 48, 127
2, 428193, Note_on_c, 4, 76, 127
2, 428387, Note_off_c, 0, 48, 127
2, 428387, Note_off_c, 7, 79, 127
2, 428388, Note_on_c, 12, 47, 127
2, 428388, Note_on_c, 7, 79, 127
2, 428582, Note_off_c, 7, 79, 127
2, 428582, Note_off_c, 12, 47, 127
2, 428583, Note_on_c, 0, 48, 127
2, 428583, Note_on_c, 0, 84, 127
2, 428777, Note_off_c, 0, 84, 127
2, 428777, Note_off_c, 0, 48, 127
2, 428777, Note_off_c, 4, 76, 127
2, 428778, Note_on_c, 2, 50, 127
2, 428778, Note_on_c, 6, 78, 127
2, 428778, Note_on_c, 2, 74, 127
2, 428972, Note_off_c, 2, 74, 127
2, 428972, Note_off_c, 6, 78, 127
2, 428972, Note_off_c, 2, 50, 127
2, 428973, Note_on_c, 4, 52, 127
2, 428973, Note_on_c, 0, 72, 127
2, 428973, Note_on_c, 7, 79, 127
2, 429167, Note_off_c, 0, 72, 127
2, 429168, Note_on_c, 12, 71, 127
2, 429359, Note_off_c, 7, 79, 127
2, 429362, Note_off_c, 12, 71, 127
2, 429362, Note_off_c, 4, 52, 127
2, 429363, Note_on_c, 5, 53, 127
2, 429363, Note_on_c, 10, 69, 127
2, 429363, Note_on_c, 5, 77, 127
2, 429460, Note_off_c, 5, 77, 127
2, 429461, Note_on_c, 7, 79, 127
2, 429557, Note_off_c, 10, 69, 127
2, 429558, Note_off_c, 7, 79, 127
2, 429559, Note_on_c, 10, 81, 127
2, 429559, Note_on_c, 2, 62, 127
2, 429753, Note_off_c, 2, 62, 127
2, 429754, Note_on_c, 2, 74, 127
2, 429945, Note_off_c, 10, 81, 127
2, 429948, Note_off_c, 5, 53, 127
2, 429949, Note_on_c, 4, 52, 127
2, 429949, Note_on_c, 7, 79, 127
2, 430143, Note_off_c, 7, 79, 127
2, 430143, Note_off_c, 4, 52, 127
2, 430144, Note_on_c, 2, 50, 127
2, 430144, Note_on_c, 5, 77, 127
2, 430338, Note_off_c, 5, 77, 127
2, 430338, Note_off_c, 2, 74, 127
2, 430339, Note_on_c, 0, 72, 127
2, 430339, Note_on_c, 4, 76, 127
2, 430533, Note_off_c, 4, 76, 127
2, 430533, Note_off_c, 0, 72, 127
2, 430533, Note_off_c, 2, 50, 127
2, 430534, Note_on_c, 7, 55, 127
2, 430534, Note_on_c, 12, 71, 127
2, 430534, Note_on_c, 2, 74, 127
2, 430728, Note_off_c, 12, 71, 127
2, 430729, Note_on_c, 6, 66, 127
2, 430923, Note_off_c, 6, 66, 127
2, 430924, Note_on_c, 7, 67, 127
2, 431118, Note_off_c, 2, 74, 127
2, 431119, Note_on_c, 0, 72, 127
2, 431313, Note_off_c, 0, 72, 127
2, 431313, Note_off_c, 7, 55, 127
2, 431314, Note_on_c, 7, 43, 127
2, 431314, Note_on_c, 12, 71, 127
2, 431508, Note_off_c, 12, 71, 127
2, 431508, Note_off_c, 7, 67, 127
2, 431509, Note_on_c, 5, 65, 127
2, 431509, Note_on_c, 2, 74, 127
2, 431703, Note_off_c, 2, 74, 127
2, 431703, Note_off_c, 5, 65, 127
2, 431703, Note_off_c, 7, 43, 127
2, 431704, Note_on_c, 0, 48, 127
2, 431704, Note_on_c, 4, 64, 127
2, 431704, Note_on_c, 0, 72, 127
2, 431897, Note_off_c, 4, 64, 127
2, 431899, Note_on_c, 4, 52, 127
2, 432093, Note_off_c, 4, 52, 127
2, 432094, Note_on_c, 10, 57, 127
2, 432288, Note_off_c, 0, 72, 127
2, 432289, Note_on_c, 4, 76, 127
2, 432483, Note_off_c, 4, 76, 127
2, 432483, Note_off_c, 0, 48, 127
2, 432484, Note_on_c, 10, 45, 127
2, 432484, Note_on_c, 2, 74, 127
2, 432678, Note_off_c, 2, 74, 127
2, 432679, Note_on_c, 0, 72, 127
2, 432873, Note_off_c, 0, 72, 127
2, 432873, Note_off_c, 10, 45, 127
2, 432874, Note_on_c, 12, 47, 127
2, 432874, Note_on_c, 2, 74, 127
2, 433069, Note_off_c, 10, 57, 127
2, 433069, Note_on_c, 10, 57, 127
2, 433263, Note_off_c, 10, 57, 127
2, 433264, Note_on_c, 8, 56, 127
2, 433458, Note_off_c, 2, 74, 127
2, 433459, Note_on_c, 2, 74, 127
2, 433653, Note_off_c, 2, 74, 127
2, 433653, Note_off_c, 12, 47, 127
2, 433654, Note_on_c, 4, 52, 127
2, 433654, Note_on_c, 0, 72, 127
2, 433848, Note_off_c, 0, 72, 127
2, 433849, Note_on_c, 12, 71, 127
2, 434043, Note_off_c, 12, 71, 127
2, 434043, Note_off_c, 4, 52, 127
2, 434043, Note_off_c, 8, 56, 127
2, 434044, Note_on_c, 10, 57, 127
2, 434044, Note_on_c, 10, 45, 127
2, 434044, Note_on_c, 0, 72, 127
2, 434237, Note_off_c, 10, 57, 127
2, 434239, Note_on_c, 4, 64, 127
2, 434433, Note_off_c, 4, 64, 127
2, 434434, Note_on_c, 5, 65, 127
2, 434628, Note_off_c, 0, 72, 127
2, 434629, Note_on_c, 12, 71, 127
2, 434823, Note_off_c, 12, 71, 127
2, 434823, Note_off_c, 10, 45, 127
2, 434824, Note_on_c, 10, 57, 127
2, 434824, Note_on_c, 10, 69, 127
2, 435018, Note_off_c, 10, 69, 127
2, 435019, Note_on_c, 0, 72, 127
2, 435213, Note_off_c, 0, 72, 127
2, 435213, Note_off_c, 10, 57, 127
2, 435214, Note_on_c, 7, 55, 127
2, 435214, Note_on_c, 12, 71, 127
2, 435409, Note_off_c, 5, 65, 127
2, 435409, Note_on_c, 5, 65, 127
2, 435603, Note_off_c, 5, 65, 127
2, 435604, Note_on_c, 7, 67, 127
2, 435798, Note_off_c, 7, 67, 127
2, 435799, Note_on_c, 2, 62, 127
2, 435993, Note_off_c, 2, 62, 127
2, 435993, Note_off_c, 12, 71, 127
2, 435993, Note_off_c, 7, 55, 127
2, 435994, Note_on_c, 0, 60, 127
2, 435994, Note_on_c, 0, 72, 127
2, 435994, Note_on_c, 4, 64, 127
2, 436188, Note_off_c, 0, 72, 127
2, 436189, Note_on_c, 2, 74, 127
2, 436286, Note_off_c, 2, 74, 127
2, 436287, Note_on_c, 4, 76, 127
2, 436384, Note_off_c, 4, 76, 127
2, 436384, Note_off_c, 0, 60, 127
2, 436385, Note_on_c, 5, 53, 127
2, 436385, Note_on_c, 10, 69, 127
2, 436579, Note_off_c, 10, 69, 127
2, 436580, Note_on_c, 0, 72, 127
2, 436774, Note_off_c, 0, 72, 127
2, 436775, Note_on_c, 10, 81, 127
2, 436970, Note_off_c, 4, 64, 127
2, 436970, Note_on_c, 4, 64, 127
2, 437164, Note_off_c, 4, 64, 127
2, 437165, Note_on_c, 2, 62, 127
2, 437359, Note_off_c, 2, 62, 127
2, 437360, Note_on_c, 1, 61, 127
2, 437554, Note_off_c, 1, 61, 127
2, 437555, Note_on_c, 2, 62, 127
2, 437750, Note_off_c, 10, 81, 127
2, 437750, Note_on_c, 2, 74, 127
2, 437944, Note_off_c, 2, 74, 127
2, 437945, Note_on_c, 5, 77, 127
2, 438139, Note_off_c, 5, 77, 127
2, 438140, Note_on_c, 10, 69, 127
2, 438334, Note_off_c, 10, 69, 127
2, 438334, Note_off_c, 5, 53, 127
2, 438335, Note_on_c, 6, 54, 127
2, 438335, Note_on_c, 12, 71, 127
2, 438529, Note_off_c, 12, 71, 127
2, 438530, Note_off_c, 2, 62, 127
2, 438530, Note_on_c, 10, 69, 127
2, 438530, Note_on_c, 3, 63, 127
2, 438724, Note_off_c, 3, 63, 127
2, 438724, Note_off_c, 10, 69, 127
2, 438724, Note_off_c, 6, 54, 127
2, 438725, Note_on_c, 4, 52, 127
2, 438725, Note_on_c, 4, 64, 127
2, 438725, Note_on_c, 8, 68, 127
2, 438919, Note_off_c, 8, 68, 127
2, 438920, Note_on_c, 12, 71, 127
2, 439114, Note_off_c, 12, 71, 127
2, 439115, Note_on_c, 4, 76, 127
2, 439309, Note_off_c, 4, 76, 127
2, 439310, Note_on_c, 8, 68, 127
2, 439504, Note_off_c, 8, 68, 127
2, 439504, Note_off_c, 4, 64, 127
2, 439505, Note_on_c, 6, 66, 127
2, 439505, Note_on_c, 10, 69, 127
2, 439699, Note_off_c, 10, 69, 127
2, 439700, Note_on_c, 3, 75, 127
2, 439891, Note_off_c, 6, 66, 127
2, 439894, Note_off_c, 3, 75, 127
2, 439895, Note_on_c, 8, 68, 127
2, 439895, Note_on_c, 4, 76, 127
2, 439895, Note_on_c, 12, 71, 127
2, 440480, Note_off_c, 12, 71, 127
2, 440480, Note_off_c, 4, 76, 127
2, 440480, Note_off_c, 8, 68, 127
2, 440480, Note_off_c, 4, 52, 127
2, 440497, Note_on_c, 4, 76, 127
2, 440497, Note_on_c, 0, 60, 127
2, 440691, Note_off_c, 0, 60, 127
2, 440691, Note_off_c, 4, 76, 127
2, 440692, Note_on_c, 2, 74, 127
2, 440692, Note_on_c, 12, 59, 127
2, 440886, Note_off_c, 12, 59, 127
2, 440886, Note_off_c, 2, 74, 127
2, 440887, Note_on_c, 0, 72, 127
2, 440887, Note_on_c, 10, 57, 127
2, 441081, Note_off_c, 10, 57, 127
2, 441081, Note_off_c, 0, 72, 127
2, 441082, Note_on_c, 12, 71, 127
2, 441082, Note_on_c, 4, 52, 127
2, 441082, Note_on_c, 8, 56, 127
2, 441276, Note_off_c, 12, 71, 127
2, 441277, Note_on_c, 12, 83, 127
2, 441471, Note_off_c, 12, 83, 127
2, 441472, Note_on_c, 10, 81, 127
2, 441666, Note_off_c, 10, 81, 127
2, 441666, Note_off_c, 8, 56, 127
2, 441667, Note_on_c, 12, 83, 127
2, 441667, Note_on_c, 10, 57, 127
2, 441861, Note_off_c, 10, 57, 127
2, 441861, Note_off_c, 12, 83, 127
2, 441861, Note_off_c, 4, 52, 127
2, 441862, Note_on_c, 8, 80, 127
2, 441862, Note_on_c, 12, 59, 127
2, 442056, Note_off_c, 12, 59, 127
2, 442057, Note_on_c, 2, 62, 127
2, 442251, Note_off_c, 2, 62, 127
2, 442251, Note_off_c, 8, 80, 127
2, 442252, Note_on_c, 10, 81, 127
2, 442252, Note_on_c, 10, 57, 127
2, 442252, Note_on_c, 1, 61, 127
2, 442446, Note_off_c, 1, 61, 127
2, 442447, Note_on_c, 12, 59, 127
2, 442641, Note_off_c, 12, 59, 127
2, 442642, Note_on_c, 0, 60, 127
2, 442836, Note_off_c, 10, 81, 127
2, 442837, Note_on_c, 7, 79, 127
2, 443031, Note_off_c, 7, 79, 127
2, 443031, Note_off_c, 10, 57, 127
2, 443032, Note_on_c, 5, 77, 127
2, 443032, Note_on_c, 10, 57, 127
2, 443226, Note_off_c, 5, 77, 127
2, 443227, Note_on_c, 4, 76, 127
2, 443421, Note_off_c, 4, 76, 127
2, 443421, Note_off_c, 10, 57, 127
2, 443421, Note_off_c, 0, 60, 127
2, 443422, Note_on_c, 2, 74, 127
2, 443422, Note_on_c, 12, 59, 127
2, 443617, Note_on_c, 10, 69, 127
2, 443811, Note_off_c, 10, 69, 127
2, 443812, Note_on_c, 7, 67, 127
2, 444006, Note_off_c, 2, 74, 127
2, 444007, Note_on_c, 4, 76, 127
2, 444201, Note_off_c, 4, 76, 127
2, 444201, Note_off_c, 12, 59, 127
2, 444202, Note_on_c, 5, 77, 127
2, 444202, Note_on_c, 12, 47, 127
2, 444396, Note_off_c, 5, 77, 127
2, 444397, Note_on_c, 7, 79, 127
2, 444591, Note_off_c, 7, 79, 127
2, 444591, Note_off_c, 12, 47, 127
2, 444592, Note_on_c, 4, 76, 127
2, 444592, Note_on_c, 0, 48, 127
2, 444787, Note_off_c, 7, 67, 127
2, 444787, Note_on_c, 7, 67, 127
2, 444981, Note_off_c, 7, 67, 127
2, 444982, Note_on_c, 10, 69, 127
2, 445176, Note_off_c, 4, 76, 127
2, 445177, Note_on_c, 4, 76, 127
2, 445177, Note_on_c, 4, 52, 127
2, 445371, Note_off_c, 4, 52, 127
2, 445371, Note_off_c, 4, 76, 127
2, 445372, Note_on_c, 2, 74, 127
2, 445372, Note_on_c, 10, 57, 127
2, 445566, Note_off_c, 2, 74, 127
2, 445567, Note_off_c, 0, 48, 127
2, 445567, Note_on_c, 4, 76, 127
2, 445567, Note_on_c, 10, 45, 127
2, 445761, Note_off_c, 10, 45, 127
2, 445761, Note_off_c, 4, 76, 127
2, 445762, Note_on_c, 5, 77, 127
2, 445762, Note_on_c, 2, 50, 127
2, 445956, Note_off_c, 10, 57, 127
2, 445957, Note_off_c, 10, 69, 127
2, 445957, Note_on_c, 10, 69, 127
2, 445957, Note_on_c, 10, 57, 127
2, 446151, Note_off_c, 10, 57, 127
2, 446151, Note_off_c, 10, 69, 127
2, 446152, Note_on_c, 12, 71, 127
2, 446152, Note_on_c, 7, 55, 127
2, 446346, Note_off_c, 7, 55, 127
2, 446346, Note_off_c, 12, 71, 127
2, 446347, Note_on_c, 0, 72, 127
2, 446347, Note_on_c, 10, 57, 127
2, 446541, Note_off_c, 10, 57, 127
2, 446541, Note_off_c, 0, 72, 127
2, 446542, Note_on_c, 2, 74, 127
2, 446542, Note_on_c, 12, 59, 127
2, 446737, Note_off_c, 2, 50, 127
2, 446737, Note_off_c, 5, 77, 127
2, 446737, Note_on_c, 6, 78, 127
2, 446737, Note_on_c, 12, 47, 127
2, 446928, Note_off_c, 12, 59, 127
2, 446928, Note_off_c, 2, 74, 127
2, 446931, Note_off_c, 12, 47, 127
2, 446931, Note_off_c, 6, 78, 127
2, 446932, Note_on_c, 7, 79, 127
2, 446932, Note_on_c, 4, 52, 127
2, 447127, Note_on_c, 12, 71, 127
2, 447321, Note_off_c, 12, 71, 127
2, 447322, Note_on_c, 0, 72, 127
2, 447516, Note_off_c, 7, 79, 127
2, 447517, Note_on_c, 7, 79, 127
2, 447517, Note_on_c, 7, 55, 127
2, 447711, Note_off_c, 7, 55, 127
2, 447711, Note_off_c, 7, 79, 127
2, 447712, Note_on_c, 5, 77, 127
2, 447712, Note_on_c, 0, 60, 127
2, 447906, Note_off_c, 5, 77, 127
2, 447907, Note_off_c, 4, 52, 127
2, 447907, Note_on_c, 7, 79, 127
2, 447907, Note_on_c, 0, 48, 127
2, 448101, Note_off_c, 0, 48, 127
2, 448101, Note_off_c, 7, 79, 127
2, 448102, Note_on_c, 10, 81, 127
2, 448102, Note_on_c, 5, 53, 127
2, 448296, Note_off_c, 0, 60, 127
2, 448297, Note_off_c, 0, 72, 127
2, 448297, Note_on_c, 0, 72, 127
2, 448297, Note_on_c, 0, 60, 127
2, 448491, Note_off_c, 0, 60, 127
2, 448491, Note_off_c, 0, 72, 127
2, 448492, Note_on_c, 2, 74, 127
2, 448492, Note_on_c, 12, 59, 127
2, 448686, Note_off_c, 12, 59, 127
2, 448686, Note_off_c, 2, 74, 127
2, 448687, Note_on_c, 4, 76, 127
2, 448687, Note_on_c, 1, 61, 127
2, 448881, Note_off_c, 1, 61, 127
2, 448881, Note_off_c, 4, 76, 127
2, 448882, Note_on_c, 5, 77, 127
2, 448882, Note_on_c, 2, 62, 127
2, 449077, Note_off_c, 5, 53, 127
2, 449077, Note_off_c, 10, 81, 127
2, 449077, Note_on_c, 10, 81, 127
2, 449077, Note_on_c, 2, 50, 127
2, 449268, Note_off_c, 2, 62, 127
2, 449268, Note_off_c, 5, 77, 127
2, 449271, Note_off_c, 2, 50, 127
2, 449271, Note_off_c, 10, 81, 127
2, 449272, Note_on_c, 12, 83, 127
2, 449272, Note_on_c, 7, 55, 127
2, 449467, Note_on_c, 2, 74, 127
2, 449661, Note_off_c, 2, 74, 127
2, 449662, Note_on_c, 4, 76, 127
2, 449856, Note_off_c, 12, 83, 127
2, 449857, Note_on_c, 12, 83, 127
2, 449857, Note_on_c, 12, 59, 127
2, 450051, Note_off_c, 12, 59, 127
2, 450051, Note_off_c, 12, 83, 127
2, 450052, Note_on_c, 10, 81, 127
2, 450052, Note_on_c, 4, 64, 127
2, 450246, Note_off_c, 10, 81, 127
2, 450247, Note_off_c, 7, 55, 127
2, 450247, Note_on_c, 12, 83, 127
2, 450247, Note_on_c, 4, 52, 127
2, 450441, Note_off_c, 4, 52, 127
2, 450441, Note_off_c, 12, 83, 127
2, 450441, Note_off_c, 4, 76, 127
2, 450442, Note_on_c, 0, 84, 127
2, 450442, Note_on_c, 10, 57, 127
2, 450636, Note_off_c, 0, 84, 127
2, 450636, Note_off_c, 4, 64, 127
2, 450637, Note_on_c, 12, 83, 127
2, 450637, Note_on_c, 2, 62, 127
2, 450831, Note_off_c, 2, 62, 127
2, 450831, Note_off_c, 12, 83, 127
2, 450832, Note_on_c, 10, 81, 127
2, 450832, Note_on_c, 0, 60, 127
2, 451026, Note_off_c, 0, 60, 127
2, 451026, Note_off_c, 10, 81, 127
2, 451027, Note_on_c, 7, 79, 127
2, 451027, Note_on_c, 4, 64, 127
2, 451221, Note_off_c, 4, 64, 127
2, 451221, Note_off_c, 7, 79, 127
2, 451222, Note_on_c, 0, 72, 127
2, 451222, Note_on_c, 6, 78, 127
2, 451222, Note_on_c, 10, 69, 127
2, 451416, Note_off_c, 10, 69, 127
2, 451416, Note_off_c, 6, 78, 127
2, 451417, Note_on_c, 4, 76, 127
2, 451417, Note_on_c, 7, 67, 127
2, 451608, Note_off_c, 0, 72, 127
2, 451611, Note_off_c, 7, 67, 127
2, 451611, Note_off_c, 4, 76, 127
2, 451612, Note_on_c, 12, 71, 127
2, 451612, Note_on_c, 3, 75, 127
2, 451612, Note_on_c, 6, 66, 127
2, 451806, Note_off_c, 6, 66, 127
2, 451807, Note_on_c, 10, 69, 127
2, 452001, Note_off_c, 10, 69, 127
2, 452002, Note_on_c, 7, 67, 127
2, 452196, Note_off_c, 7, 67, 127
2, 452197, Note_on_c, 6, 66, 127
2, 452391, Note_off_c, 6, 66, 127
2, 452391, Note_off_c, 3, 75, 127
2, 452391, Note_off_c, 12, 71, 127
2, 452392, Note_off_c, 10, 57, 127
2, 452392, Note_on_c, 12, 71, 127
2, 452392, Note_on_c, 4, 64, 127
2, 452392, Note_on_c, 7, 55, 127
2, 452587, Note_on_c, 4, 76, 127
2, 452778, Note_off_c, 12, 71, 127
2, 452781, Note_off_c, 4, 76, 127
2, 452781, Note_off_c, 7, 55, 127
2, 452782, Note_on_c, 10, 81, 127
2, 452782, Note_on_c, 10, 69, 127
2, 452782, Note_on_c, 6, 54, 127
2, 452976, Note_off_c, 10, 81, 127
2, 452977, Note_on_c, 7, 79, 127
2, 453171, Note_off_c, 7, 79, 127
2, 453171, Note_off_c, 4, 64, 127
2, 453172, Note_on_c, 6, 78, 127
2, 453172, Note_on_c, 3, 63, 127
2, 453366, Note_off_c, 3, 63, 127
2, 453366, Note_off_c, 6, 78, 127
2, 453367, Note_on_c, 4, 76, 127
2, 453367, Note_on_c, 1, 61, 127
2, 453561, Note_off_c, 1, 61, 127
2, 453561, Note_off_c, 4, 76, 127
2, 453561, Note_off_c, 6, 54, 127
2, 453561, Note_off_c, 10, 69, 127
2, 453562, Note_on_c, 3, 75, 127
2, 453562, Note_on_c, 12, 59, 127
2, 453757, Note_on_c, 10, 69, 127
2, 453757, Note_on_c, 12, 47, 127
2, 453948, Note_off_c, 3, 75, 127
2, 453951, Note_off_c, 12, 47, 127
2, 453952, Note_on_c, 4, 76, 127
2, 453952, Note_on_c, 4, 52, 127
2, 454143, Note_off_c, 10, 69, 127
2, 454146, Note_off_c, 12, 59, 127
2, 454147, Note_on_c, 7, 67, 127
2, 454147, Note_on_c, 12, 59, 127
2, 454341, Note_off_c, 12, 59, 127
2, 454341, Note_off_c, 7, 67, 127
2, 454342, Note_on_c, 6, 66, 127
2, 454342, Note_on_c, 10, 57, 127
2, 454536, Note_off_c, 10, 57, 127
2, 454536, Note_off_c, 6, 66, 127
2, 454537, Note_on_c, 7, 67, 127
2, 454537, Note_on_c, 12, 59, 127
2, 454731, Note_off_c, 12, 59, 127
2, 454731, Note_off_c, 7, 67, 127
2, 454731, Note_off_c, 4, 52, 127
2, 454731, Note_off_c, 4, 76, 127
2, 454732, Note_on_c, 4, 64, 127
2, 454732, Note_on_c, 2, 50, 127
2, 454732, Note_on_c, 8, 56, 127
2, 454926, Note_off_c, 8, 56, 127
2, 454927, Note_on_c, 12, 59, 127
2, 455118, Note_off_c, 2, 50, 127
2, 455118, Note_off_c, 4, 64, 127
2, 455121, Note_off_c, 12, 59, 127
2, 455122, Note_on_c, 1, 49, 127
2, 455122, Note_on_c, 4, 52, 127
2, 455317, Note_on_c, 10, 81, 127
2, 455511, Note_off_c, 10, 81, 127
2, 455512, Note_on_c, 7, 79, 127
2, 455706, Note_off_c, 7, 79, 127
2, 455707, Note_on_c, 10, 81, 127
2, 455901, Note_off_c, 10, 81, 127
2, 455901, Note_off_c, 4, 52, 127
2, 455902, Note_on_c, 4, 76, 127
2, 455902, Note_on_c, 10, 57, 127
2, 456096, Note_off_c, 4, 76, 127
2, 456097, Note_on_c, 7, 79, 127
2, 456290, Note_off_c, 1, 49, 127
2, 456291, Note_off_c, 7, 79, 127
2, 456292, Note_on_c, 5, 77, 127
2, 456292, Note_on_c, 2, 50, 127
2, 456486, Note_off_c, 5, 77, 127
2, 456486, Note_off_c, 10, 57, 127
2, 456487, Note_on_c, 7, 79, 127
2, 456487, Note_on_c, 11, 58, 127
2, 456681, Note_off_c, 11, 58, 127
2, 456681, Note_off_c, 7, 79, 127
2, 456682, Note_on_c, 5, 77, 127
2, 456682, Note_on_c, 10, 57, 127
2, 456876, Note_off_c, 10, 57, 127
2, 456876, Note_off_c, 5, 77, 127
2, 456877, Note_on_c, 4, 76, 127
2, 456877, Note_on_c, 7, 55, 127
2, 457071, Note_off_c, 7, 55, 127
2, 457071, Note_off_c, 4, 76, 127
2, 457072, Note_on_c, 2, 74, 127
2, 457072, Note_on_c, 5, 53, 127
2, 457266, Note_off_c, 5, 53, 127
2, 457266, Note_off_c, 2, 74, 127
2, 457267, Note_on_c, 1, 73, 127
2, 457267, Note_on_c, 4, 52, 127
2, 457460, Note_off_c, 2, 50, 127
2, 457461, Note_off_c, 4, 52, 127
2, 457461, Note_off_c, 1, 73, 127
2, 457462, Note_on_c, 2, 74, 127
2, 457462, Note_on_c, 2, 50, 127
2, 457462, Note_on_c, 5, 53, 127
2, 457656, Note_off_c, 2, 74, 127
2, 457657, Note_on_c, 4, 76, 127
2, 457851, Note_off_c, 4, 76, 127
2, 457852, Note_on_c, 2, 74, 127
2, 458046, Note_off_c, 2, 74, 127
2, 458046, Note_off_c, 5, 53, 127
2, 458047, Note_on_c, 0, 72, 127
2, 458047, Note_on_c, 10, 57, 127
2, 458241, Note_off_c, 10, 57, 127
2, 458241, Note_off_c, 0, 72, 127
2, 458242, Note_on_c, 12, 71, 127
2, 458242, Note_on_c, 2, 62, 127
2, 458436, Note_off_c, 2, 62, 127
2, 458436, Note_off_c, 12, 71, 127
2, 458437, Note_on_c, 10, 69, 127
2, 458437, Note_on_c, 0, 60, 127
2, 458630, Note_off_c, 2, 50, 127
2, 458631, Note_off_c, 0, 60, 127
2, 458631, Note_off_c, 10, 69, 127
2, 458632, Note_on_c, 8, 68, 127
2, 458632, Note_on_c, 2, 50, 127
2, 458632, Note_on_c, 12, 59, 127
2, 458827, Note_on_c, 5, 65, 127
2, 459021, Note_off_c, 5, 65, 127
2, 459022, Note_on_c, 4, 64, 127
2, 459216, Note_off_c, 4, 64, 127
2, 459217, Note_on_c, 2, 62, 127
2, 459411, Note_off_c, 2, 62, 127
2, 459411, Note_off_c, 12, 59, 127
2, 459411, Note_off_c, 2, 50, 127
2, 459411, Note_off_c, 8, 68, 127
2, 459412, Note_on_c, 4, 64, 127
2, 459412, Note_on_c, 10, 57, 127
2, 459412, Note_on_c, 0, 48, 127
2, 459607, Note_on_c, 10, 69, 127
2, 459798, Note_off_c, 4, 64, 127
2, 459801, Note_off_c, 0, 48, 127
2, 459801, Note_off_c, 10, 57, 127
2, 459802, Note_on_c, 2, 62, 127
2, 459802, Note_on_c, 12, 59, 127
2, 459802, Note_on_c, 12, 47, 127
2, 459996, Note_off_c, 2, 62, 127
2, 459997, Note_on_c, 1, 61, 127
2, 460191, Note_off_c, 1, 61, 127
2, 460192, Note_on_c, 2, 62, 127
2, 460386, Note_off_c, 10, 69, 127
2, 460387, Note_on_c, 12, 71, 127
2, 460581, Note_off_c, 12, 71, 127
2, 460582, Note_on_c, 10, 69, 127
2, 460776, Note_off_c, 10, 69, 127
2, 460777, Note_on_c, 8, 68, 127
2, 460971, Note_off_c, 8, 68, 127
2, 460971, Note_off_c, 2, 62, 127
2, 460971, Note_off_c, 12, 47, 127
2, 460971, Note_off_c, 12, 59, 127
2, 460972, Note_on_c, 0, 60, 127
2, 460972, Note_on_c, 10, 69, 127
2, 460972, Note_on_c, 4, 52, 127
2, 460972, Note_on_c, 10, 45, 127
2, 461166, Note_off_c, 10, 69, 127
2, 461167, Note_on_c, 4, 64, 127
2, 461361, Note_off_c, 4, 64, 127
2, 461361, Note_off_c, 4, 52, 127
2, 461362, Note_on_c, 5, 65, 127
2, 461362, Note_on_c, 10, 57, 127
2, 461556, Note_off_c, 5, 65, 127
2, 461557, Note_on_c, 7, 67, 127
2, 461751, Note_off_c, 7, 67, 127
2, 461751, Note_off_c, 10, 45, 127
2, 461752, Note_on_c, 5, 65, 127
2, 461752, Note_on_c, 10, 45, 127
2, 461946, Note_off_c, 5, 65, 127
2, 461947, Note_on_c, 4, 64, 127
2, 462140, Note_off_c, 0, 60, 127
2, 462141, Note_off_c, 4, 64, 127
2, 462141, Note_off_c, 10, 45, 127
2, 462142, Note_on_c, 2, 62, 127
2, 462142, Note_on_c, 12, 47, 127
2, 462337, Note_off_c, 10, 57, 127
2, 462337, Note_on_c, 6, 66, 127
2, 462337, Note_on_c, 10, 57, 127
2, 462531, Note_off_c, 10, 57, 127
2, 462531, Note_off_c, 6, 66, 127
2, 462532, Note_on_c, 4, 64, 127
2, 462532, Note_on_c, 7, 55, 127
2, 462726, Note_off_c, 7, 55, 127
2, 462726, Note_off_c, 4, 64, 127
2, 462727, Note_on_c, 6, 66, 127
2, 462727, Note_on_c, 10, 57, 127
2, 462921, Note_off_c, 10, 57, 127
2, 462921, Note_off_c, 6, 66, 127
2, 462922, Note_on_c, 7, 67, 127
2, 462922, Note_on_c, 12, 59, 127
2, 463116, Note_off_c, 7, 67, 127
2, 463117, Note_off_c, 12, 47, 127
2, 463117, Note_off_c, 2, 62, 127
2, 463117, Note_on_c, 2, 62, 127
2, 463117, Note_on_c, 12, 47, 127
2, 463308, Note_off_c, 12, 59, 127
2, 463311, Note_off_c, 12, 47, 127
2, 463311, Note_off_c, 2, 62, 127
2, 463312, Note_on_c, 4, 64, 127
2, 463312, Note_on_c, 0, 48, 127
2, 463312, Note_on_c, 7, 55, 127
2, 463507, Note_on_c, 7, 67, 127
2, 463701, Note_off_c, 7, 67, 127
2, 463702, Note_on_c, 10, 69, 127
2, 463896, Note_off_c, 7, 55, 127
2, 463896, Note_off_c, 4, 64, 127
2, 463897, Note_on_c, 4, 64, 127
2, 463897, Note_on_c, 7, 55, 127
2, 464091, Note_off_c, 7, 55, 127
2, 464091, Note_off_c, 4, 64, 127
2, 464092, Note_on_c, 2, 62, 127
2, 464092, Note_on_c, 5, 53, 127
2, 464286, Note_off_c, 5, 53, 127
2, 464286, Note_off_c, 2, 62, 127
2, 464287, Note_off_c, 0, 48, 127
2, 464287, Note_on_c, 4, 64, 127
2, 464287, Note_on_c, 1, 49, 127
2, 464287, Note_on_c, 4, 52, 127
2, 464481, Note_off_c, 4, 52, 127
2, 464481, Note_off_c, 1, 49, 127
2, 464481, Note_off_c, 4, 64, 127
2, 464482, Note_on_c, 6, 66, 127
2, 464482, Note_on_c, 2, 50, 127
2, 464677, Note_off_c, 10, 69, 127
2, 464677, Note_on_c, 10, 69, 127
2, 464871, Note_off_c, 10, 69, 127
2, 464872, Note_on_c, 12, 71, 127
2, 465066, Note_off_c, 2, 50, 127
2, 465066, Note_off_c, 6, 66, 127
2, 465067, Note_on_c, 6, 66, 127
2, 465067, Note_on_c, 3, 51, 127
2, 465261, Note_off_c, 3, 51, 127
2, 465261, Note_off_c, 6, 66, 127
2, 465262, Note_on_c, 7, 67, 127
2, 465262, Note_on_c, 4, 52, 127
2, 465456, Note_off_c, 4, 52, 127
2, 465456, Note_off_c, 12, 71, 127
2, 465457, Note_on_c, 0, 72, 127
2, 465457, Note_on_c, 0, 48, 127
2, 465648, Note_off_c, 7, 67, 127
2, 465651, Note_off_c, 0, 48, 127
2, 465652, Note_on_c, 10, 69, 127
2, 465652, Note_on_c, 5, 53, 127
2, 465843, Note_off_c, 0, 72, 127
2, 465847, Note_on_c, 0, 72, 127
2, 466041, Note_off_c, 0, 72, 127
2, 466042, Note_on_c, 2, 74, 127
2, 466236, Note_off_c, 5, 53, 127
2, 466236, Note_off_c, 10, 69, 127
2, 466237, Note_on_c, 10, 69, 127
2, 466237, Note_on_c, 6, 54, 127
2, 466431, Note_off_c, 6, 54, 127
2, 466431, Note_off_c, 10, 69, 127
2, 466432, Note_on_c, 12, 71, 127
2, 466432, Note_on_c, 7, 55, 127
2, 466626, Note_off_c, 7, 55, 127
2, 466626, Note_off_c, 2, 74, 127
2, 466627, Note_on_c, 4, 76, 127
2, 466627, Note_on_c, 8, 56, 127
2, 466818, Note_off_c, 12, 71, 127
2, 466821, Note_off_c, 8, 56, 127
2, 466822, Note_on_c, 0, 72, 127
2, 466822, Note_on_c, 10, 57, 127
2, 467013, Note_off_c, 4, 76, 127
2, 467017, Note_on_c, 4, 76, 127
2, 467211, Note_off_c, 4, 76, 127
2, 467212, Note_on_c, 5, 77, 127
2, 467406, Note_off_c, 10, 57, 127
2, 467406, Note_off_c, 0, 72, 127
2, 467407, Note_on_c, 0, 72, 127
2, 467407, Note_on_c, 10, 57, 127
2, 467601, Note_off_c, 10, 57, 127
2, 467601, Note_off_c, 0, 72, 127
2, 467602, Note_on_c, 2, 74, 127
2, 467602, Note_on_c, 12, 59, 127
2, 467796, Note_off_c, 12, 59, 127
2, 467796, Note_off_c, 5, 77, 127
2, 467797, Note_on_c, 7, 79, 127
2, 467797, Note_on_c, 7, 55, 127
2, 467988, Note_off_c, 2, 74, 127
2, 467991, Note_off_c, 7, 55, 127
2, 467992, Note_on_c, 4, 76, 127
2, 467992, Note_on_c, 0, 60, 127
2, 468183, Note_off_c, 7, 79, 127
2, 468187, Note_on_c, 8, 80, 127
2, 468381, Note_off_c, 8, 80, 127
2, 468382, Note_on_c, 10, 81, 127
2, 468576, Note_off_c, 0, 60, 127
2, 468576, Note_off_c, 4, 76, 127
2, 468577, Note_on_c, 4, 76, 127
2, 468577, Note_on_c, 1, 61, 127
2, 468771, Note_off_c, 1, 61, 127
2, 468771, Note_off_c, 4, 76, 127
2, 468772, Note_on_c, 6, 78, 127
2, 468772, Note_on_c, 2, 62, 127
2, 468966, Note_off_c, 2, 62, 127
2, 468966, Note_off_c, 10, 81, 127
2, 468967, Note_on_c, 12, 83, 127
2, 468967, Note_on_c, 3, 63, 127
2, 469158, Note_off_c, 6, 78, 127
2, 469161, Note_off_c, 3, 63, 127
2, 469161, Note_off_c, 12, 83, 127
2, 469162, Note_on_c, 8, 80, 127
2, 469162, Note_on_c, 4, 76, 127
2, 469162, Note_on_c, 4, 64, 127
2, 469356, Note_off_c, 8, 80, 127
2, 469357, Note_on_c, 10, 81, 127
2, 469357, Note_on_c, 6, 66, 127
2, 469551, Note_off_c, 6, 66, 127
2, 469551, Note_off_c, 10, 81, 127
2, 469552, Note_on_c, 12, 83, 127
2, 469552, Note_on_c, 8, 68, 127
2, 469746, Note_off_c, 4, 76, 127
2, 469747, Note_on_c, 2, 74, 127
2, 469938, Note_off_c, 8, 68, 127
2, 469941, Note_off_c, 2, 74, 127
2, 469942, Note_on_c, 0, 72, 127
2, 470136, Note_off_c, 0, 72, 127
2, 470136, Note_off_c, 12, 83, 127
2, 470137, Note_on_c, 10, 81, 127
2, 470137, Note_on_c, 10, 69, 127
2, 470331, Note_off_c, 10, 69, 127
2, 470331, Note_off_c, 10, 81, 127
2, 470332, Note_on_c, 8, 80, 127
2, 470332, Note_on_c, 12, 71, 127
2, 470526, Note_off_c, 12, 71, 127
2, 470526, Note_off_c, 8, 80, 127
2, 470527, Note_on_c, 10, 81, 127
2, 470527, Note_on_c, 0, 72, 127
2, 470721, Note_off_c, 0, 72, 127
2, 470721, Note_off_c, 10, 81, 127
2, 470722, Note_on_c, 12, 71, 127
2, 470722, Note_on_c, 8, 80, 127
2, 470916, Note_off_c, 8, 80, 127
2, 470916, Note_off_c, 12, 71, 127
2, 470917, Note_on_c, 6, 78, 127
2, 470917, Note_on_c, 10, 69, 127
2, 471111, Note_off_c, 10, 69, 127
2, 471111, Note_off_c, 6, 78, 127
2, 471112, Note_on_c, 4, 76, 127
2, 471112, Note_on_c, 8, 68, 127
2, 471306, Note_off_c, 8, 68, 127
2, 471306, Note_off_c, 4, 76, 127
2, 471307, Note_on_c, 12, 71, 127
2, 471307, Note_on_c, 2, 74, 127
2, 471501, Note_off_c, 2, 74, 127
2, 471501, Note_off_c, 12, 71, 127
2, 471501, Note_off_c, 4, 64, 127
2, 471502, Note_on_c, 0, 72, 127
2, 471502, Note_on_c, 10, 69, 127
2, 471502, Note_on_c, 10, 57, 127
2, 471696, Note_off_c, 10, 57, 127
2, 471696, Note_off_c, 0, 72, 127
2, 471697, Note_on_c, 2, 74, 127
2, 471697, Note_on_c, 5, 53, 127
2, 471891, Note_off_c, 5, 53, 127
2, 471891, Note_off_c, 2, 74, 127
2, 471892, Note_on_c, 0, 72, 127
2, 471892, Note_on_c, 4, 52, 127
2, 472086, Note_off_c, 4, 52, 127
2, 472086, Note_off_c, 0, 72, 127
2, 472087, Note_on_c, 12, 71, 127
2, 472087, Note_on_c, 2, 50, 127
2, 472281, Note_off_c, 2, 50, 127
2, 472281, Note_off_c, 12, 71, 127
2, 472282, Note_on_c, 0, 72, 127
2, 472282, Note_on_c, 0, 48, 127
2, 472476, Note_off_c, 0, 48, 127
2, 472476, Note_off_c, 0, 72, 127
2, 472477, Note_on_c, 2, 74, 127
2, 472477, Note_on_c, 12, 47, 127
2, 472671, Note_off_c, 12, 47, 127
2, 472671, Note_off_c, 2, 74, 127
2, 472672, Note_on_c, 0, 72, 127
2, 472672, Note_on_c, 10, 45, 127
2, 472866, Note_off_c, 10, 45, 127
2, 472866, Note_off_c, 0, 72, 127
2, 472867, Note_on_c, 12, 71, 127
2, 472867, Note_on_c, 8, 44, 127
2, 473061, Note_off_c, 8, 44, 127
2, 473061, Note_off_c, 12, 71, 127
2, 473062, Note_on_c, 0, 72, 127
2, 473062, Note_on_c, 10, 45, 127
2, 473256, Note_off_c, 10, 45, 127
2, 473256, Note_off_c, 0, 72, 127
2, 473257, Note_on_c, 2, 74, 127
2, 473257, Note_on_c, 2, 50, 127
2, 473451, Note_off_c, 2, 50, 127
2, 473451, Note_off_c, 2, 74, 127
2, 473452, Note_on_c, 0, 72, 127
2, 473452, Note_on_c, 4, 52, 127
2, 473646, Note_off_c, 4, 52, 127
2, 473646, Note_off_c, 0, 72, 127
2, 473647, Note_on_c, 12, 71, 127
2, 473647, Note_on_c, 4, 40, 127
2, 473838, Note_off_c, 10, 69, 127
2, 473841, Note_off_c, 4, 40, 127
2, 473841, Note_off_c, 12, 71, 127
2, 473842, Note_on_c, 0, 72, 127
2, 473842, Note_on_c, 10, 45, 127
2, 474036, Note_off_c, 0, 72, 127
2, 474037, Note_on_c, 2, 74, 127
2, 474228, Note_off_c, 10, 45, 127
2, 474231, Note_off_c, 2, 74, 127
2, 474232, Note_on_c, 12, 71, 127
2, 474426, Note_off_c, 12, 71, 127
2, 474427, Note_on_c, 2, 74, 127
2, 474427, Note_on_c, 4, 52, 127
2, 474621, Note_off_c, 4, 52, 127
2, 474621, Note_off_c, 2, 74, 127
2, 474622, Note_on_c, 0, 72, 127
2, 474622, Note_on_c, 10, 57, 127
2, 474816, Note_off_c, 10, 57, 127
2, 474816, Note_off_c, 0, 72, 127
2, 474817, Note_on_c, 2, 74, 127
2, 474817, Note_on_c, 12, 59, 127
2, 475011, Note_off_c, 12, 59, 127
2, 475011, Note_off_c, 2, 74, 127
2, 475012, Note_on_c, 4, 76, 127
2, 475012, Note_on_c, 0, 60, 127
2, 475206, Note_off_c, 0, 60, 127
2, 475206, Note_off_c, 4, 76, 127
2, 475207, Note_on_c, 7, 79, 127
2, 475207, Note_on_c, 10, 57, 127
2, 475401, Note_off_c, 10, 57, 127
2, 475401, Note_off_c, 7, 79, 127
2, 475402, Note_on_c, 6, 78, 127
2, 475402, Note_on_c, 2, 62, 127
2, 475596, Note_off_c, 2, 62, 127
2, 475596, Note_off_c, 6, 78, 127
2, 475597, Note_on_c, 10, 81, 127
2, 475597, Note_on_c, 12, 59, 127
2, 475791, Note_off_c, 12, 59, 127
2, 475791, Note_off_c, 10, 81, 127
2, 475792, Note_on_c, 8, 80, 127
2, 475792, Note_on_c, 4, 64, 127
2, 475986, Note_off_c, 4, 64, 127
2, 475986, Note_off_c, 8, 80, 127
2, 475987, Note_on_c, 12, 83, 127
2, 475987, Note_on_c, 4, 52, 127
2, 475987, Note_on_c, 2, 62, 127
2, 476181, Note_off_c, 4, 52, 127
2, 476181, Note_off_c, 12, 83, 127
2, 476182, Note_on_c, 10, 81, 127
2, 476182, Note_on_c, 10, 57, 127
2, 476373, Note_off_c, 2, 62, 127
2, 476377, Note_on_c, 5, 77, 127
2, 476377, Note_on_c, 2, 62, 127
2, 476571, Note_off_c, 2, 62, 127
2, 476571, Note_off_c, 5, 77, 127
2, 476572, Note_on_c, 4, 76, 127
2, 476572, Note_on_c, 0, 60, 127
2, 476766, Note_off_c, 0, 60, 127
2, 476766, Note_off_c, 4, 76, 127
2, 476766, Note_off_c, 10, 81, 127
2, 476767, Note_on_c, 12, 83, 127
2, 476767, Note_on_c, 2, 74, 127
2, 476767, Note_on_c, 5, 65, 127
2, 476961, Note_off_c, 5, 65, 127
2, 476961, Note_off_c, 2, 74, 127
2, 476961, Note_off_c, 12, 83, 127
2, 476962, Note_on_c, 10, 81, 127
2, 476962, Note_on_c, 0, 72, 127
2, 476962, Note_on_c, 4, 64, 127
2, 477156, Note_off_c, 4, 64, 127
2, 477156, Note_off_c, 0, 72, 127
2, 477156, Note_off_c, 10, 81, 127
2, 477157, Note_on_c, 8, 80, 127
2, 477157, Note_on_c, 12, 71, 127
2, 477157, Note_on_c, 2, 62, 127
2, 477351, Note_off_c, 2, 62, 127
2, 477351, Note_off_c, 12, 71, 127
2, 477351, Note_off_c, 8, 80, 127
2, 477352, Note_on_c, 10, 81, 127
2, 477352, Note_on_c, 0, 72, 127
2, 477352, Note_on_c, 4, 64, 127
2, 477543, Note_off_c, 10, 57, 127
2, 477547, Note_on_c, 10, 57, 127
2, 477741, Note_off_c, 10, 57, 127
2, 477742, Note_on_c, 0, 60, 127
2, 477936, Note_off_c, 0, 60, 127
2, 477936, Note_off_c, 4, 64, 127
2, 477937, Note_on_c, 4, 64, 127
2, 478131, Note_off_c, 4, 64, 127
2, 478132, Note_on_c, 10, 69, 127
2, 478326, Note_off_c, 0, 72, 127
2, 478326, Note_off_c, 10, 81, 127
2, 478351, Note_on_c, 10, 81, 127
2, 478521, Note_off_c, 10, 69, 127
2, 478545, Note_off_c, 10, 81, 127
2, 478546, Note_on_c, 10, 45, 127
2, 478546, Note_on_c, 10, 81, 127
2, 478546, Note_on_c, 0, 72, 127
2, 478740, Note_off_c, 10, 81, 127
2, 478741, Note_on_c, 4, 76, 127
2, 478935, Note_off_c, 4, 76, 127
2, 478936, Note_on_c, 5, 77, 127
2, 479130, Note_off_c, 10, 45, 127
2, 479131, Note_on_c, 10, 57, 127
2, 479325, Note_off_c, 10, 57, 127
2, 479326, Note_on_c, 10, 45, 127
2, 479520, Note_off_c, 10, 45, 127
2, 479520, Note_off_c, 5, 77, 127
2, 479521, Note_on_c, 10, 57, 127
2, 479521, Note_on_c, 4, 76, 127
2, 479715, Note_off_c, 4, 76, 127
2, 479715, Note_off_c, 10, 57, 127
2, 479716, Note_on_c, 12, 59, 127
2, 479716, Note_on_c, 2, 74, 127
2, 479907, Note_off_c, 0, 72, 127
2, 479910, Note_off_c, 12, 59, 127
2, 479911, Note_on_c, 10, 57, 127
2, 479911, Note_on_c, 0, 72, 127
2, 480102, Note_off_c, 2, 74, 127
2, 480105, Note_off_c, 0, 72, 127
2, 480105, Note_off_c, 10, 57, 127
2, 480106, Note_on_c, 8, 56, 127
2, 480106, Note_on_c, 4, 76, 127
2, 480106, Note_on_c, 12, 71, 127
2, 480300, Note_off_c, 12, 71, 127
2, 480300, Note_off_c, 8, 56, 127
2, 480301, Note_on_c, 6, 54, 127
2, 480301, Note_on_c, 10, 69, 127
2, 480495, Note_off_c, 10, 69, 127
2, 480495, Note_off_c, 6, 54, 127
2, 480496, Note_on_c, 4, 52, 127
2, 480496, Note_on_c, 8, 68, 127
2, 480690, Note_off_c, 8, 68, 127
2, 480690, Note_off_c, 4, 76, 127
2, 480691, Note_on_c, 2, 74, 127
2, 480691, Note_on_c, 6, 66, 127
2, 480885, Note_off_c, 6, 66, 127
2, 480885, Note_off_c, 2, 74, 127
2, 480885, Note_off_c, 4, 52, 127
2, 480886, Note_on_c, 10, 57, 127
2, 480886, Note_on_c, 0, 72, 127
2, 480886, Note_on_c, 4, 64, 127
2, 481080, Note_off_c, 4, 64, 127
2, 481080, Note_off_c, 0, 72, 127
2, 481081, Note_on_c, 12, 71, 127
2, 481081, Note_on_c, 2, 62, 127
2, 481275, Note_off_c, 2, 62, 127
2, 481275, Note_off_c, 12, 71, 127
2, 481276, Note_on_c, 0, 60, 127
2, 481276, Note_on_c, 10, 69, 127
2, 481470, Note_off_c, 0, 60, 127
2, 481470, Note_off_c, 10, 57, 127
2, 481471, Note_on_c, 12, 59, 127
2, 481471, Note_on_c, 7, 55, 127
2, 481665, Note_off_c, 7, 55, 127
2, 481665, Note_off_c, 12, 59, 127
2, 481666, Note_on_c, 5, 53, 127
2, 481666, Note_on_c, 10, 57, 127
2, 481666, Note_on_c, 2, 74, 127
2, 481860, Note_off_c, 10, 57, 127
2, 481860, Note_off_c, 5, 53, 127
2, 481860, Note_off_c, 10, 69, 127
2, 481861, Note_on_c, 2, 50, 127
2, 481861, Note_on_c, 5, 53, 127
2, 481861, Note_on_c, 12, 71, 127
2, 482055, Note_off_c, 12, 71, 127
2, 482055, Note_off_c, 5, 53, 127
2, 482055, Note_off_c, 2, 50, 127
2, 482056, Note_on_c, 4, 52, 127
2, 482056, Note_on_c, 8, 68, 127
2, 482250, Note_off_c, 8, 68, 127
2, 482250, Note_off_c, 2, 74, 127
2, 482251, Note_on_c, 0, 72, 127
2, 482251, Note_on_c, 10, 69, 127
2, 482445, Note_off_c, 0, 72, 127
2, 482446, Note_on_c, 4, 40, 127
2, 482446, Note_on_c, 12, 71, 127
2, 482637, Note_off_c, 10, 69, 127
2, 482641, Note_on_c, 10, 69, 127
2, 482835, Note_off_c, 10, 69, 127
2, 482835, Note_off_c, 4, 52, 127
2, 482836, Note_on_c, 4, 52, 127
2, 482836, Note_on_c, 8, 68, 127
2, 483030, Note_off_c, 12, 71, 127
2, 483031, Note_on_c, 0, 72, 127
2, 483222, Note_off_c, 8, 68, 127
2, 483225, Note_off_c, 0, 72, 127
2, 483225, Note_off_c, 4, 52, 127
2, 483225, Note_off_c, 4, 40, 127
2, 483226, Note_on_c, 10, 45, 127
2, 483226, Note_on_c, 10, 69, 127
2, 483420, Note_off_c, 10, 45, 127
2, 483421, Note_on_c, 4, 52, 127
2, 483421, Note_on_c, 4, 64, 127
2, 483615, Note_off_c, 4, 52, 127
2, 483616, Note_on_c, 10, 57, 127
2, 483616, Note_on_c, 0, 60, 127
2, 483810, Note_off_c, 0, 60, 127
2, 483810, Note_off_c, 4, 64, 127
2, 483810, Note_off_c, 10, 69, 127
2, 483811, Note_on_c, 2, 62, 127
2, 483811, Note_on_c, 12, 71, 127
2, 483811, Note_on_c, 8, 68, 127
2, 484005, Note_off_c, 8, 68, 127
2, 484005, Note_off_c, 12, 71, 127
2, 484005, Note_off_c, 2, 62, 127
2, 484006, Note_on_c, 4, 64, 127
2, 484006, Note_on_c, 10, 69, 127
2, 484006, Note_on_c, 0, 72, 127
2, 484200, Note_off_c, 10, 57, 127
2, 484201, Note_on_c, 7, 55, 127
2, 484392, Note_off_c, 4, 64, 127
2, 484395, Note_off_c, 7, 55, 127
2, 484395, Note_off_c, 0, 72, 127
2, 484395, Note_off_c, 10, 69, 127
2, 484396, Note_on_c, 2, 62, 127
2, 484396, Note_on_c, 5, 53, 127
2, 484396, Note_on_c, 10, 69, 127
2, 484396, Note_on_c, 2, 74, 127
2, 484590, Note_off_c, 5, 53, 127
2, 484590, Note_off_c, 2, 62, 127
2, 484591, Note_on_c, 4, 64, 127
2, 484591, Note_on_c, 4, 52, 127
2, 484785, Note_off_c, 4, 52, 127
2, 484785, Note_off_c, 4, 64, 127
2, 484786, Note_on_c, 2, 50, 127
2, 484786, Note_on_c, 5, 65, 127
2, 484980, Note_off_c, 5, 65, 127
2, 484980, Note_off_c, 2, 74, 127
2, 484980, Note_off_c, 10, 69, 127
2, 484981, Note_on_c, 7, 67, 127
2, 484981, Note_on_c, 1, 73, 127
2, 484981, Note_on_c, 4, 76, 127
2, 485174, Note_off_c, 7, 67, 127
2, 485175, Note_off_c, 4, 76, 127
2, 485175, Note_off_c, 1, 73, 127
2, 485176, Note_on_c, 10, 69, 127
2, 485176, Note_on_c, 5, 77, 127
2, 485176, Note_on_c, 2, 74, 127
2, 485370, Note_off_c, 2, 50, 127
2, 485371, Note_on_c, 0, 48, 127
2, 485565, Note_off_c, 0, 48, 127
2, 485565, Note_off_c, 2, 74, 127
2, 485565, Note_off_c, 10, 69, 127
2, 485566, Note_on_c, 12, 47, 127
2, 485566, Note_on_c, 7, 67, 127
2, 485566, Note_on_c, 2, 74, 127
2, 485760, Note_off_c, 5, 77, 127
2, 485761, Note_on_c, 5, 77, 127
2, 485955, Note_off_c, 5, 77, 127
2, 485956, Note_on_c, 7, 79, 127
2, 486150, Note_off_c, 7, 79, 127
2, 486150, Note_off_c, 2, 74, 127
2, 486150, Note_off_c, 12, 47, 127
2, 486151, Note_on_c, 12, 59, 127
2, 486151, Note_on_c, 2, 74, 127
2, 486345, Note_off_c, 2, 74, 127
2, 486345, Note_off_c, 12, 59, 127
2, 486346, Note_on_c, 0, 60, 127
2, 486346, Note_on_c, 4, 76, 127
2, 486540, Note_off_c, 0, 60, 127
2, 486541, Note_off_c, 7, 67, 127
2, 486541, Note_on_c, 6, 54, 127
2, 486541, Note_on_c, 0, 72, 127
2, 486732, Note_off_c, 4, 76, 127
2, 486735, Note_off_c, 6, 54, 127
2, 486736, Note_on_c, 7, 55, 127
2, 486736, Note_on_c, 2, 74, 127
2, 486927, Note_off_c, 0, 72, 127
2, 486931, Note_on_c, 10, 69, 127
2, 487125, Note_off_c, 10, 69, 127
2, 487125, Note_off_c, 7, 55, 127
2, 487126, Note_on_c, 7, 43, 127
2, 487126, Note_on_c, 12, 71, 127
2, 487320, Note_off_c, 2, 74, 127
2, 487321, Note_on_c, 4, 76, 127
2, 487512, Note_off_c, 12, 71, 127
2, 487515, Note_off_c, 4, 76, 127
2, 487515, Note_off_c, 7, 43, 127
2, 487516, Note_on_c, 0, 48, 127
2, 487516, Note_on_c, 0, 72, 127
2, 487710, Note_off_c, 0, 72, 127
2, 487711, Note_on_c, 4, 76, 127
2, 487905, Note_off_c, 4, 76, 127
2, 487905, Note_off_c, 0, 48, 127
2, 487906, Note_on_c, 0, 48, 127
2, 487906, Note_on_c, 4, 76, 127
2, 488101, Note_on_c, 7, 67, 127
2, 488295, Note_off_c, 7, 67, 127
2, 488296, Note_on_c, 0, 72, 127
2, 488490, Note_off_c, 4, 76, 127
2, 488491, Note_on_c, 2, 74, 127
2, 488685, Note_off_c, 2, 74, 127
2, 488685, Note_off_c, 0, 48, 127
2, 488686, Note_on_c, 0, 60, 127
2, 488686, Note_on_c, 4, 76, 127
2, 488880, Note_off_c, 4, 76, 127
2, 488881, Note_on_c, 6, 78, 127
2, 489075, Note_off_c, 6, 78, 127
2, 489075, Note_off_c, 0, 60, 127
2, 489075, Note_off_c, 0, 72, 127
2, 489076, Note_on_c, 12, 59, 127
2, 489076, Note_on_c, 7, 79, 127
2, 489270, Note_off_c, 12, 59, 127
2, 489271, Note_on_c, 2, 62, 127
2, 489271, Note_on_c, 5, 77, 127
2, 489462, Note_off_c, 7, 79, 127
2, 489465, Note_off_c, 5, 77, 127
2, 489465, Note_off_c, 2, 62, 127
2, 489466, Note_on_c, 0, 60, 127
2, 489466, Note_on_c, 8, 80, 127
2, 489466, Note_on_c, 4, 76, 127
2, 489660, Note_off_c, 4, 76, 127
2, 489660, Note_off_c, 0, 60, 127
2, 489661, Note_on_c, 12, 59, 127
2, 489661, Note_on_c, 2, 74, 127
2, 489855, Note_off_c, 2, 74, 127
2, 489855, Note_off_c, 12, 59, 127
2, 489856, Note_on_c, 10, 57, 127
2, 489856, Note_on_c, 0, 72, 127
2, 490050, Note_off_c, 8, 80, 127
2, 490051, Note_on_c, 10, 81, 127
2, 490242, Note_off_c, 0, 72, 127
2, 490245, Note_off_c, 10, 81, 127
2, 490245, Note_off_c, 10, 57, 127
2, 490246, Note_on_c, 8, 56, 127
2, 490246, Note_on_c, 12, 83, 127
2, 490246, Note_on_c, 12, 71, 127
2, 490441, Note_on_c, 5, 65, 127
2, 490635, Note_off_c, 5, 65, 127
2, 490636, Note_on_c, 4, 64, 127
2, 490830, Note_off_c, 4, 64, 127
2, 490830, Note_off_c, 12, 83, 127
2, 490830, Note_off_c, 8, 56, 127
2, 490831, Note_on_c, 2, 62, 127
2, 490831, Note_on_c, 8, 56, 127
2, 490831, Note_on_c, 12, 83, 127
2, 491025, Note_off_c, 12, 83, 127
2, 491025, Note_off_c, 8, 56, 127
2, 491025, Note_off_c, 2, 62, 127
2, 491025, Note_off_c, 12, 71, 127
2, 491026, Note_on_c, 0, 60, 127
2, 491026, Note_on_c, 10, 57, 127
2, 491026, Note_on_c, 10, 69, 127
2, 491026, Note_on_c, 4, 76, 127
2, 491220, Note_off_c, 4, 76, 127
2, 491220, Note_off_c, 10, 69, 127
2, 491220, Note_off_c, 10, 57, 127
2, 491220, Note_off_c, 0, 60, 127
2, 491221, Note_on_c, 11, 58, 127
2, 491221, Note_on_c, 4, 64, 127
2, 491221, Note_on_c, 1, 73, 127
2, 491221, Note_on_c, 6, 78, 127
2, 491415, Note_off_c, 6, 78, 127
2, 491415, Note_off_c, 1, 73, 127
2, 491415, Note_off_c, 11, 58, 127
2, 491416, Note_on_c, 12, 59, 127
2, 491416, Note_on_c, 12, 71, 127
2, 491416, Note_on_c, 7, 79, 127
2, 491480, Note_off_c, 7, 79, 127
2, 491481, Note_on_c, 6, 78, 127
2, 491545, Note_off_c, 6, 78, 127
2, 491546, Note_on_c, 7, 79, 127
2, 491607, Note_off_c, 4, 64, 127
2, 491610, Note_off_c, 7, 79, 127
2, 491611, Note_on_c, 6, 78, 127
2, 491611, Note_on_c, 4, 64, 127
2, 491805, Note_off_c, 4, 64, 127
2, 491806, Note_on_c, 3, 63, 127
2, 491997, Note_off_c, 6, 78, 127
2, 492000, Note_off_c, 12, 71, 127
2, 492001, Note_on_c, 7, 79, 127
2, 492001, Note_on_c, 10, 69, 127
2, 492195, Note_off_c, 10, 69, 127
2, 492195, Note_off_c, 7, 79, 127
2, 492195, Note_off_c, 3, 63, 127
2, 492195, Note_off_c, 12, 59, 127
2, 492196, Note_on_c, 4, 64, 127
2, 492196, Note_on_c, 4, 52, 127
2, 492196, Note_on_c, 8, 68, 127
2, 492196, Note_on_c, 4, 76, 127
2, 492390, Note_off_c, 4, 52, 127
2, 492391, Note_on_c, 2, 50, 127
2, 492582, Note_off_c, 4, 64, 127
2, 492585, Note_off_c, 2, 50, 127
2, 492585, Note_off_c, 8, 68, 127
2, 492586, Note_on_c, 1, 49, 127
2, 492586, Note_on_c, 10, 69, 127
2, 492780, Note_off_c, 4, 76, 127
2, 492781, Note_on_c, 4, 76, 127
2, 492975, Note_off_c, 4, 76, 127
2, 492976, Note_on_c, 10, 81, 127
2, 493171, Note_on_c, 4, 52, 127
2, 493365, Note_off_c, 4, 52, 127
2, 493366, Note_on_c, 10, 57, 127
2, 493560, Note_off_c, 10, 81, 127
2, 493561, Note_off_c, 1, 49, 127
2, 493561, Note_on_c, 1, 49, 127
2, 493561, Note_on_c, 7, 79, 127
2, 493755, Note_off_c, 7, 79, 127
2, 493755, Note_off_c, 1, 49, 127
2, 493756, Note_on_c, 2, 50, 127
2, 493756, Note_on_c, 5, 77, 127
2, 493950, Note_off_c, 10, 57, 127
2, 493951, Note_on_c, 10, 57, 127
2, 494145, Note_off_c, 10, 57, 127
2, 494146, Note_on_c, 2, 62, 127
2, 494340, Note_off_c, 2, 62, 127
2, 494340, Note_off_c, 5, 77, 127
2, 494341, Note_on_c, 0, 60, 127
2, 494341, Note_on_c, 4, 76, 127
2, 494535, Note_off_c, 4, 76, 127
2, 494535, Note_off_c, 0, 60, 127
2, 494535, Note_off_c, 2, 50, 127
2, 494536, Note_off_c, 10, 69, 127
2, 494536, Note_on_c, 12, 59, 127
2, 494536, Note_on_c, 2, 74, 127
2, 494730, Note_off_c, 12, 59, 127
2, 494731, Note_on_c, 10, 57, 127
2, 494731, Note_on_c, 0, 72, 127
2, 494922, Note_off_c, 2, 74, 127
2, 494925, Note_off_c, 0, 72, 127
2, 494925, Note_off_c, 10, 57, 127
2, 494926, Note_on_c, 8, 56, 127
2, 494926, Note_on_c, 4, 76, 127
2, 494926, Note_on_c, 12, 71, 127
2, 495120, Note_off_c, 12, 71, 127
2, 495120, Note_off_c, 8, 56, 127
2, 495121, Note_on_c, 6, 54, 127
2, 495121, Note_on_c, 10, 69, 127
2, 495315, Note_off_c, 10, 69, 127
2, 495315, Note_off_c, 6, 54, 127
2, 495316, Note_on_c, 4, 52, 127
2, 495316, Note_on_c, 8, 68, 127
2, 495510, Note_off_c, 4, 76, 127
2, 495511, Note_on_c, 2, 74, 127
2, 495702, Note_off_c, 8, 68, 127
2, 495705, Note_off_c, 2, 74, 127
2, 495705, Note_off_c, 4, 52, 127
2, 495706, Note_on_c, 3, 51, 127
2, 495706, Note_on_c, 0, 72, 127
2, 495706, Note_on_c, 10, 69, 127
2, 495900, Note_off_c, 0, 72, 127
2, 495901, Note_on_c, 12, 71, 127
2, 496095, Note_off_c, 12, 71, 127
2, 496095, Note_off_c, 3, 51, 127
2, 496096, Note_on_c, 4, 52, 127
2, 496096, Note_on_c, 0, 72, 127
2, 496167, Note_off_c, 0, 72, 127
2, 496167, Note_on_c, 12, 71, 127
2, 496238, Note_off_c, 12, 71, 127
2, 496238, Note_on_c, 0, 72, 127
2, 496273, Note_off_c, 10, 69, 127
2, 496291, Note_on_c, 10, 69, 127
2, 496309, Note_off_c, 0, 72, 127
2, 496309, Note_on_c, 12, 71, 127
2, 496380, Note_off_c, 12, 71, 127
2, 496485, Note_off_c, 10, 69, 127
2, 496485, Note_off_c, 4, 52, 127
2, 496486, Note_on_c, 4, 40, 127
2, 496486, Note_on_c, 8, 68, 127
2, 496706, Note_on_c, 0, 72, 127
2, 496873, Note_off_c, 8, 68, 127
2, 496951, Note_off_c, 0, 72, 127
2, 496956, Note_off_c, 4, 40, 127
2, 496967, Note_on_c, 10, 45, 127
2, 496968, Note_on_c, 10, 69, 127
2, 498767, Note_off_c, 10, 45, 127
2, 498768, Note_off_c, 10, 69, 127
2, 499974, Note_on_c, 10, 69, 127
2, 500172, Note_off_c, 10, 69, 127
2, 500174, Note_on_c, 4, 76, 127
2, 500370, Note_off_c, 4, 76, 127
2, 500373, Note_on_c, 2, 74, 127
2, 500555, Note_off_c, 2, 74, 127
2, 500572, Note_on_c, 0, 72, 127
2, 500770, Note_off_c, 0, 72, 127
2, 500772, Note_on_c, 12, 71, 127
2, 500968, Note_off_c, 12, 71, 127
2, 500971, Note_on_c, 10, 69, 127
2, 501153, Note_off_c, 10, 69, 127
2, 501170, Note_on_c, 5, 77, 127
2, 501368, Note_off_c, 5, 77, 127
2, 501370, Note_on_c, 4, 76, 127
2, 501566, Note_off_c, 4, 76, 127
2, 501569, Note_on_c, 2, 74, 127
2, 501751, Note_off_c, 2, 74, 127
2, 501768, Note_on_c, 4, 76, 127
2, 501966, Note_off_c, 4, 76, 127
2, 501968, Note_on_c, 10, 69, 127
2, 502164, Note_off_c, 10, 69, 127
2, 502167, Note_on_c, 10, 81, 127
2, 502349, Note_off_c, 10, 81, 127
2, 502366, Note_on_c, 10, 81, 127
2, 502564, Note_off_c, 10, 81, 127
2, 502566, Note_on_c, 7, 79, 127
2, 502762, Note_off_c, 7, 79, 127
2, 502765, Note_on_c, 5, 77, 127
2, 502947, Note_off_c, 5, 77, 127
2, 502964, Note_on_c, 7, 79, 127
2, 503162, Note_off_c, 7, 79, 127
2, 503164, Note_on_c, 5, 77, 127
2, 503360, Note_off_c, 5, 77, 127
2, 503363, Note_on_c, 4, 76, 127
2, 503545, Note_off_c, 4, 76, 127
2, 503562, Note_on_c, 5, 77, 127
2, 503760, Note_off_c, 5, 77, 127
2, 503762, Note_on_c, 4, 76, 127
2, 503958, Note_off_c, 4, 76, 127
2, 503961, Note_on_c, 2, 74, 127
2, 504143, Note_off_c, 2, 74, 127
2, 504160, Note_on_c, 4, 76, 127
2, 504358, Note_off_c, 4, 76, 127
2, 504360, Note_on_c, 2, 74, 127
2, 504556, Note_off_c, 2, 74, 127
2, 504559, Note_on_c, 0, 72, 127
2, 504741, Note_off_c, 0, 72, 127
2, 504758, Note_on_c, 2, 74, 127
2, 504956, Note_off_c, 2, 74, 127
2, 504958, Note_on_c, 0, 72, 127
2, 505154, Note_off_c, 0, 72, 127
2, 505157, Note_on_c, 12, 71, 127
2, 505339, Note_off_c, 12, 71, 127
2, 505356, Note_on_c, 0, 72, 127
2, 505554, Note_off_c, 0, 72, 127
2, 505556, Note_on_c, 12, 71, 127
2, 505752, Note_off_c, 12, 71, 127
2, 505755, Note_on_c, 10, 69, 127
2, 505937, Note_off_c, 10, 69, 127
2, 505954, Note_on_c, 12, 71, 127
2, 506152, Note_off_c, 12, 71, 127
2, 506154, Note_on_c, 10, 69, 127
2, 506350, Note_off_c, 10, 69, 127
2, 506353, Note_on_c, 8, 68, 127
2, 506535, Note_off_c, 8, 68, 127
2, 506552, Note_on_c, 10, 69, 127
2, 506750, Note_off_c, 10, 69, 127
2, 506752, Note_on_c, 0, 72, 127
2, 506948, Note_off_c, 0, 72, 127
2, 506951, Note_on_c, 2, 74, 127
2, 507133, Note_off_c, 2, 74, 127
2, 507150, Note_on_c, 4, 76, 127
2, 507150, Note_on_c, 4, 64, 127
2, 507348, Note_off_c, 4, 64, 127
2, 507348, Note_off_c, 4, 76, 127
2, 507350, Note_on_c, 3, 75, 127
2, 507350, Note_on_c, 12, 71, 127
2, 507546, Note_off_c, 12, 71, 127
2, 507546, Note_off_c, 3, 75, 127
2, 507549, Note_on_c, 6, 78, 127
2, 507549, Note_on_c, 10, 69, 127
2, 507731, Note_off_c, 10, 69, 127
2, 507731, Note_off_c, 6, 78, 127
2, 507748, Note_on_c, 12, 71, 127
2, 507748, Note_on_c, 7, 67, 127
2, 507946, Note_off_c, 7, 67, 127
2, 507948, Note_on_c, 6, 66, 127
2, 508144, Note_off_c, 6, 66, 127
2, 508146, Note_off_c, 12, 71, 127
2, 508148, Note_on_c, 7, 79, 127
2, 508148, Note_on_c, 4, 64, 127
2, 508330, Note_off_c, 4, 64, 127
2, 508330, Note_off_c, 7, 79, 127
2, 508347, Note_on_c, 4, 76, 127
2, 508347, Note_on_c, 0, 72, 127
2, 508545, Note_off_c, 0, 72, 127
2, 508547, Note_on_c, 12, 71, 127
2, 508743, Note_off_c, 12, 71, 127
2, 508745, Note_off_c, 4, 76, 127
2, 508747, Note_on_c, 10, 81, 127
2, 508747, Note_on_c, 10, 69, 127
2, 508929, Note_off_c, 10, 69, 127
2, 508929, Note_off_c, 10, 81, 127
2, 508946, Note_on_c, 7, 79, 127
2, 508946, Note_on_c, 12, 71, 127
2, 509144, Note_off_c, 12, 71, 127
2, 509146, Note_on_c, 4, 64, 127
2, 509244, Note_off_c, 7, 79, 127
2, 509246, Note_on_c, 10, 81, 127
2, 509343, Note_off_c, 4, 64, 127
2, 509345, Note_off_c, 10, 81, 127
2, 509347, Note_on_c, 7, 79, 127
2, 509347, Note_on_c, 4, 76, 127
2, 509442, Note_off_c, 7, 79, 127
2, 509447, Note_on_c, 6, 78, 127
2, 509530, Note_off_c, 4, 76, 127
2, 509546, Note_off_c, 6, 78, 127
2, 509548, Note_on_c, 7, 79, 127
2, 509548, Note_on_c, 4, 76, 127
2, 509746, Note_off_c, 4, 76, 127
2, 509748, Note_on_c, 2, 74, 127
2, 509944, Note_off_c, 2, 74, 127
2, 509946, Note_off_c, 7, 79, 127
2, 509948, Note_on_c, 10, 81, 127
2, 509948, Note_on_c, 0, 72, 127
2, 510130, Note_off_c, 0, 72, 127
2, 510130, Note_off_c, 10, 81, 127
2, 510147, Note_on_c, 6, 78, 127
2, 510147, Note_on_c, 2, 74, 127
2, 510345, Note_off_c, 2, 74, 127
2, 510347, Note_on_c, 0, 72, 127
2, 510543, Note_off_c, 0, 72, 127
2, 510545, Note_off_c, 6, 78, 127
2, 510547, Note_on_c, 12, 83, 127
2, 510547, Note_on_c, 12, 71, 127
2, 510729, Note_off_c, 12, 71, 127
2, 510729, Note_off_c, 12, 83, 127
2, 510746, Note_on_c, 4, 76, 127
2, 510746, Note_on_c, 0, 72, 127
2, 510944, Note_off_c, 0, 72, 127
2, 510946, Note_on_c, 12, 71, 127
2, 511142, Note_off_c, 12, 71, 127
2, 511144, Note_off_c, 4, 76, 127
2, 511146, Note_on_c, 5, 77, 127
2, 511146, Note_on_c, 10, 69, 127
2, 511328, Note_off_c, 10, 69, 127
2, 511328, Note_off_c, 5, 77, 127
2, 511345, Note_on_c, 2, 74, 127
2, 511345, Note_on_c, 12, 71, 127
2, 511543, Note_off_c, 12, 71, 127
2, 511545, Note_on_c, 10, 69, 127
2, 511741, Note_off_c, 10, 69, 127
2, 511743, Note_off_c, 2, 74, 127
2, 511745, Note_on_c, 7, 79, 127
2, 511745, Note_on_c, 7, 67, 127
2, 511927, Note_off_c, 7, 67, 127
2, 511927, Note_off_c, 7, 79, 127
2, 511944, Note_on_c, 0, 72, 127
2, 511944, Note_on_c, 10, 69, 127
2, 512142, Note_off_c, 10, 69, 127
2, 512144, Note_on_c, 7, 67, 127
2, 512340, Note_off_c, 7, 67, 127
2, 512342, Note_off_c, 0, 72, 127
2, 512344, Note_on_c, 2, 74, 127
2, 512344, Note_on_c, 6, 66, 127
2, 512526, Note_off_c, 6, 66, 127
2, 512526, Note_off_c, 2, 74, 127
2, 512543, Note_on_c, 12, 71, 127
2, 512543, Note_on_c, 7, 67, 127
2, 512741, Note_off_c, 7, 67, 127
2, 512743, Note_on_c, 6, 66, 127
2, 512939, Note_off_c, 6, 66, 127
2, 512941, Note_off_c, 12, 71, 127
2, 512943, Note_on_c, 4, 76, 127
2, 512943, Note_on_c, 4, 64, 127
2, 513125, Note_off_c, 4, 64, 127
2, 513125, Note_off_c, 4, 76, 127
2, 513142, Note_on_c, 10, 81, 127
2, 513142, Note_on_c, 6, 66, 127
2, 513340, Note_off_c, 6, 66, 127
2, 513340, Note_off_c, 10, 81, 127
2, 513342, Note_on_c, 7, 79, 127
2, 513342, Note_on_c, 4, 64, 127
2, 513538, Note_off_c, 4, 64, 127
2, 513538, Note_off_c, 7, 79, 127
2, 513541, Note_on_c, 6, 78, 127
2, 513541, Note_on_c, 3, 63, 127
2, 513723, Note_off_c, 3, 63, 127
2, 513723, Note_off_c, 6, 78, 127
2, 513740, Note_on_c, 7, 79, 127
2, 513740, Note_on_c, 4, 64, 127
2, 513938, Note_off_c, 4, 64, 127
2, 513940, Note_on_c, 12, 71, 127
2, 514136, Note_off_c, 12, 71, 127
2, 514139, Note_on_c, 4, 76, 127
2, 514337, Note_off_c, 7, 79, 127
2, 514339, Note_on_c, 5, 77, 127
2, 514534, Note_off_c, 4, 76, 127
2, 514539, Note_on_c, 2, 74, 127
2, 514636, Note_off_c, 2, 74, 127
2, 514639, Note_on_c, 0, 72, 127
2, 514737, Note_off_c, 0, 72, 127
2, 514739, Note_on_c, 2, 74, 127
2, 514937, Note_off_c, 5, 77, 127
2, 514939, Note_on_c, 4, 76, 127
2, 515134, Note_off_c, 2, 74, 127
2, 515139, Note_on_c, 7, 67, 127
2, 515335, Note_off_c, 7, 67, 127
2, 515338, Note_on_c, 0, 72, 127
2, 515536, Note_off_c, 4, 76, 127
2, 515538, Note_on_c, 2, 74, 127
2, 515733, Note_off_c, 0, 72, 127
2, 515738, Note_on_c, 12, 71, 127
2, 515835, Note_off_c, 12, 71, 127
2, 515838, Note_on_c, 10, 69, 127
2, 515936, Note_off_c, 10, 69, 127
2, 515938, Note_on_c, 12, 71, 127
2, 516136, Note_off_c, 2, 74, 127
2, 516138, Note_on_c, 0, 72, 127
2, 516333, Note_off_c, 12, 71, 127
2, 516338, Note_on_c, 4, 64, 127
2, 516534, Note_off_c, 4, 64, 127
2, 516537, Note_on_c, 10, 69, 127
2, 516735, Note_off_c, 0, 72, 127
2, 516737, Note_on_c, 12, 71, 127
2, 516737, Note_on_c, 10, 57, 127
2, 516935, Note_off_c, 10, 57, 127
2, 516937, Note_on_c, 4, 64, 127
2, 517132, Note_off_c, 10, 69, 127
2, 517134, Note_off_c, 4, 64, 127
2, 517136, Note_off_c, 12, 71, 127
2, 517138, Note_on_c, 12, 71, 127
2, 517138, Note_on_c, 8, 68, 127
2, 517138, Note_on_c, 2, 62, 127
2, 517320, Note_off_c, 2, 62, 127
2, 517320, Note_off_c, 8, 68, 127
2, 517320, Note_off_c, 12, 71, 127
2, 517337, Note_on_c, 0, 72, 127
2, 517337, Note_on_c, 10, 69, 127
2, 517337, Note_on_c, 0, 60, 127
2, 517535, Note_off_c, 0, 60, 127
2, 517537, Note_on_c, 12, 59, 127
2, 517733, Note_off_c, 12, 59, 127
2, 517736, Note_on_c, 10, 57, 127
2, 517918, Note_off_c, 10, 57, 127
2, 517935, Note_on_c, 5, 65, 127
2, 518133, Note_off_c, 5, 65, 127
2, 518135, Note_on_c, 4, 64, 127
2, 518331, Note_off_c, 4, 64, 127
2, 518333, Note_off_c, 10, 69, 127
2, 518333, Note_off_c, 0, 72, 127
2, 518335, Note_on_c, 5, 77, 127
2, 518335, Note_on_c, 12, 71, 127
2, 518335, Note_on_c, 2, 62, 127
2, 518517, Note_off_c, 2, 62, 127
2, 518517, Note_off_c, 12, 71, 127
2, 518517, Note_off_c, 5, 77, 127
2, 518534, Note_on_c, 4, 76, 127
2, 518534, Note_on_c, 0, 72, 127
2, 518534, Note_on_c, 4, 64, 127
2, 518732, Note_off_c, 4, 64, 127
2, 518734, Note_on_c, 10, 57, 127
2, 518832, Note_off_c, 0, 72, 127
2, 518834, Note_on_c, 2, 74, 127
2, 518931, Note_off_c, 10, 57, 127
2, 518933, Note_off_c, 2, 74, 127
2, 518935, Note_on_c, 0, 72, 127
2, 518935, Note_on_c, 10, 69, 127
2, 519030, Note_off_c, 0, 72, 127
2, 519035, Note_on_c, 12, 71, 127
2, 519118, Note_off_c, 10, 69, 127
2, 519134, Note_off_c, 12, 71, 127
2, 519136, Note_on_c, 0, 72, 127
2, 519136, Note_on_c, 10, 69, 127
2, 519334, Note_off_c, 10, 69, 127
2, 519336, Note_on_c, 7, 67, 127
2, 519532, Note_off_c, 7, 67, 127
2, 519534, Note_off_c, 0, 72, 127
2, 519534, Note_off_c, 4, 76, 127
2, 519536, Note_on_c, 10, 81, 127
2, 519536, Note_on_c, 5, 77, 127
2, 519536, Note_on_c, 0, 72, 127
2, 519536, Note_on_c, 5, 65, 127
2, 519718, Note_off_c, 5, 65, 127
2, 519718, Note_off_c, 0, 72, 127
2, 519718, Note_off_c, 5, 77, 127
2, 519718, Note_off_c, 10, 81, 127
2, 519735, Note_on_c, 2, 74, 127
2, 519735, Note_on_c, 12, 71, 127
2, 519735, Note_on_c, 7, 67, 127
2, 519933, Note_off_c, 7, 67, 127
2, 519935, Note_on_c, 5, 65, 127
2, 520131, Note_off_c, 5, 65, 127
2, 520133, Note_off_c, 12, 71, 127
2, 520133, Note_off_c, 2, 74, 127
2, 520135, Note_on_c, 7, 79, 127
2, 520135, Note_on_c, 4, 76, 127
2, 520135, Note_on_c, 11, 70, 127
2, 520135, Note_on_c, 4, 64, 127
2, 520317, Note_off_c, 4, 64, 127
2, 520317, Note_off_c, 11, 70, 127
2, 520317, Note_off_c, 4, 76, 127
2, 520317, Note_off_c, 7, 79, 127
2, 520334, Note_on_c, 0, 72, 127
2, 520334, Note_on_c, 10, 69, 127
2, 520334, Note_on_c, 5, 65, 127
2, 520532, Note_off_c, 5, 65, 127
2, 520534, Note_on_c, 4, 64, 127
2, 520730, Note_off_c, 4, 64, 127
2, 520732, Note_off_c, 10, 69, 127
2, 520732, Note_off_c, 0, 72, 127
2, 520734, Note_on_c, 2, 74, 127
2, 520734, Note_on_c, 12, 71, 127
2, 520734, Note_on_c, 2, 62, 127
2, 520916, Note_off_c, 2, 62, 127
2, 520916, Note_off_c, 12, 71, 127
2, 520916, Note_off_c, 2, 74, 127
2, 520933, Note_on_c, 12, 71, 127
2, 520933, Note_on_c, 8, 68, 127
2, 520933, Note_on_c, 4, 64, 127
2, 521131, Note_off_c, 4, 64, 127
2, 521133, Note_on_c, 2, 62, 127
2, 521329, Note_off_c, 2, 62, 127
2, 521331, Note_off_c, 8, 68, 127
2, 521331, Note_off_c, 12, 71, 127
2, 521333, Note_on_c, 4, 76, 127
2, 521333, Note_on_c, 0, 72, 127
2, 521333, Note_on_c, 7, 67, 127
2, 521333, Note_on_c, 0, 60, 127
2, 521515, Note_off_c, 0, 60, 127
2, 521515, Note_off_c, 7, 67, 127
2, 521515, Note_off_c, 0, 72, 127
2, 521515, Note_off_c, 4, 76, 127
2, 521532, Note_on_c, 10, 69, 127
2, 521532, Note_on_c, 6, 66, 127
2, 521532, Note_on_c, 2, 62, 127
2, 521730, Note_off_c, 2, 62, 127
2, 521732, Note_on_c, 0, 60, 127
2, 521928, Note_off_c, 0, 60, 127
2, 521930, Note_off_c, 6, 66, 127
2, 521930, Note_off_c, 10, 69, 127
2, 521932, Note_on_c, 2, 74, 127
2, 521932, Note_on_c, 5, 65, 127
2, 521932, Note_on_c, 12, 59, 127
2, 522114, Note_off_c, 12, 59, 127
2, 522114, Note_off_c, 5, 65, 127
2, 522131, Note_on_c, 4, 64, 127
2, 522131, Note_on_c, 0, 60, 127
2, 522329, Note_off_c, 0, 60, 127
2, 522331, Note_on_c, 12, 59, 127
2, 522526, Note_off_c, 2, 74, 127
2, 522528, Note_off_c, 12, 59, 127
2, 522530, Note_off_c, 4, 64, 127
2, 522532, Note_on_c, 0, 72, 127
2, 522532, Note_on_c, 10, 69, 127
2, 522532, Note_on_c, 10, 57, 127
2, 522714, Note_off_c, 10, 57, 127
2, 522714, Note_off_c, 10, 69, 127
2, 522714, Note_off_c, 0, 72, 127
2, 522731, Note_on_c, 5, 77, 127
2, 522731, Note_on_c, 2, 74, 127
2, 522731, Note_on_c, 12, 59, 127
2, 522929, Note_off_c, 12, 59, 127
2, 522929, Note_off_c, 2, 74, 127
2, 522931, Note_on_c, 0, 72, 127
2, 522931, Note_on_c, 10, 57, 127
2, 523127, Note_off_c, 10, 57, 127
2, 523127, Note_off_c, 0, 72, 127
2, 523130, Note_on_c, 12, 71, 127
2, 523130, Note_on_c, 8, 56, 127
2, 523312, Note_off_c, 8, 56, 127
2, 523312, Note_off_c, 12, 71, 127
2, 523328, Note_off_c, 5, 77, 127
2, 523330, Note_on_c, 4, 76, 127
2, 523330, Note_on_c, 0, 72, 127
2, 523330, Note_on_c, 10, 57, 127
2, 523528, Note_off_c, 10, 57, 127
2, 523528, Note_off_c, 4, 76, 127
2, 523530, Note_on_c, 10, 81, 127
2, 523530, Note_on_c, 0, 60, 127
2, 523726, Note_off_c, 0, 60, 127
2, 523729, Note_on_c, 2, 62, 127
2, 523911, Note_off_c, 2, 62, 127
2, 523925, Note_off_c, 10, 81, 127
2, 523927, Note_off_c, 0, 72, 127
2, 523929, Note_on_c, 7, 79, 127
2, 523929, Note_on_c, 12, 71, 127
2, 523929, Note_on_c, 4, 64, 127
2, 523929, Note_on_c, 4, 52, 127
2, 524127, Note_off_c, 4, 52, 127
2, 524127, Note_off_c, 4, 64, 127
2, 524127, Note_off_c, 12, 71, 127
2, 524127, Note_off_c, 7, 79, 127
2, 524129, Note_on_c, 3, 75, 127
2, 524129, Note_on_c, 12, 71, 127
2, 524129, Note_on_c, 6, 66, 127
2, 524129, Note_on_c, 12, 59, 127
2, 524325, Note_off_c, 12, 59, 127
2, 524328, Note_on_c, 10, 57, 127
2, 524510, Note_off_c, 10, 57, 127
2, 524524, Note_off_c, 6, 66, 127
2, 524524, Note_off_c, 12, 71, 127
2, 524524, Note_off_c, 3, 75, 127
2, 524527, Note_on_c, 4, 76, 127
2, 524527, Note_on_c, 12, 71, 127
2, 524527, Note_on_c, 4, 64, 127
2, 524527, Note_on_c, 7, 55, 127
2, 524725, Note_off_c, 7, 55, 127
2, 524727, Note_on_c, 6, 54, 127
2, 524923, Note_off_c, 6, 54, 127
2, 524926, Note_on_c, 4, 52, 127
2, 525108, Note_off_c, 4, 52, 127
2, 525124, Note_off_c, 12, 71, 127
2, 525126, Note_on_c, 10, 69, 127
2, 525126, Note_on_c, 0, 60, 127
2, 525324, Note_off_c, 0, 60, 127
2, 525326, Note_on_c, 12, 59, 127
2, 525522, Note_off_c, 12, 59, 127
2, 525524, Note_off_c, 10, 69, 127
2, 525524, Note_off_c, 4, 76, 127
2, 525526, Note_off_c, 4, 64, 127
2, 525526, Note_on_c, 10, 81, 127
2, 525526, Note_on_c, 6, 78, 127
2, 525526, Note_on_c, 0, 72, 127
2, 525526, Note_on_c, 10, 57, 127
2, 525708, Note_off_c, 10, 57, 127
2, 525708, Note_off_c, 0, 72, 127
2, 525708, Note_off_c, 10, 81, 127
2, 525725, Note_on_c, 7, 79, 127
2, 525725, Note_on_c, 12, 71, 127
2, 525725, Note_on_c, 12, 59, 127
2, 525923, Note_off_c, 12, 59, 127
2, 525925, Note_on_c, 4, 52, 127
2, 526020, Note_off_c, 6, 78, 127
2, 526025, Note_on_c, 6, 78, 127
2, 526122, Note_off_c, 4, 52, 127
2, 526124, Note_off_c, 6, 78, 127
2, 526126, Note_on_c, 4, 76, 127
2, 526126, Note_on_c, 4, 64, 127
2, 526221, Note_off_c, 4, 76, 127
2, 526226, Note_on_c, 3, 75, 127
2, 526309, Note_off_c, 4, 64, 127
2, 526325, Note_off_c, 3, 75, 127
2, 526325, Note_off_c, 12, 71, 127
2, 526325, Note_off_c, 7, 79, 127
2, 526327, Note_on_c, 7, 79, 127
2, 526327, Note_on_c, 4, 76, 127
2, 526327, Note_on_c, 12, 71, 127
2, 526327, Note_on_c, 4, 64, 127
2, 526525, Note_off_c, 4, 64, 127
2, 526527, Note_on_c, 2, 62, 127
2, 526723, Note_off_c, 2, 62, 127
2, 526725, Note_off_c, 4, 76, 127
2, 526725, Note_off_c, 7, 79, 127
2, 526727, Note_on_c, 10, 81, 127
2, 526727, Note_on_c, 4, 76, 127
2, 526727, Note_on_c, 0, 60, 127
2, 526909, Note_off_c, 0, 60, 127
2, 526909, Note_off_c, 4, 76, 127
2, 526909, Note_off_c, 10, 81, 127
2, 526925, Note_off_c, 12, 71, 127
2, 526927, Note_on_c, 6, 78, 127
2, 526927, Note_on_c, 2, 74, 127
2, 526927, Note_on_c, 10, 69, 127
2, 526927, Note_on_c, 2, 62, 127
2, 527125, Note_off_c, 2, 62, 127
2, 527127, Note_on_c, 0, 60, 127
2, 527323, Note_off_c, 0, 60, 127
2, 527325, Note_off_c, 10, 69, 127
2, 527325, Note_off_c, 2, 74, 127
2, 527325, Note_off_c, 6, 78, 127
2, 527327, Note_on_c, 5, 77, 127
2, 527327, Note_on_c, 2, 74, 127
2, 527327, Note_on_c, 7, 67, 127
2, 527327, Note_on_c, 12, 59, 127
2, 527509, Note_off_c, 12, 59, 127
2, 527509, Note_off_c, 7, 67, 127
2, 527509, Note_off_c, 2, 74, 127
2, 527509, Note_off_c, 5, 77, 127
2, 527526, Note_on_c, 4, 76, 127
2, 527526, Note_on_c, 0, 72, 127
2, 527526, Note_on_c, 7, 67, 127
2, 527526, Note_on_c, 0, 60, 127
2, 527724, Note_off_c, 0, 60, 127
2, 527726, Note_on_c, 12, 59, 127
2, 527922, Note_off_c, 12, 59, 127
2, 527924, Note_off_c, 7, 67, 127
2, 527924, Note_off_c, 0, 72, 127
2, 527924, Note_off_c, 4, 76, 127
2, 527926, Note_on_c, 6, 78, 127
2, 527926, Note_on_c, 0, 72, 127
2, 527926, Note_on_c, 10, 69, 127
2, 527926, Note_on_c, 10, 57, 127
2, 528108, Note_off_c, 10, 57, 127
2, 528108, Note_off_c, 10, 69, 127
2, 528108, Note_off_c, 0, 72, 127
2, 528108, Note_off_c, 6, 78, 127
2, 528125, Note_on_c, 3, 75, 127
2, 528125, Note_on_c, 12, 71, 127
2, 528125, Note_on_c, 6, 66, 127
2, 528125, Note_on_c, 12, 59, 127
2, 528323, Note_off_c, 12, 59, 127
2, 528325, Note_on_c, 10, 57, 127
2, 528521, Note_off_c, 10, 57, 127
2, 528523, Note_off_c, 6, 66, 127
2, 528523, Note_off_c, 12, 71, 127
2, 528523, Note_off_c, 3, 75, 127
2, 528525, Note_on_c, 2, 74, 127
2, 528525, Note_on_c, 12, 71, 127
2, 528525, Note_on_c, 4, 64, 127
2, 528525, Note_on_c, 7, 55, 127
2, 528707, Note_off_c, 7, 55, 127
2, 528707, Note_off_c, 4, 64, 127
2, 528707, Note_off_c, 12, 71, 127
2, 528707, Note_off_c, 2, 74, 127
2, 528724, Note_on_c, 1, 73, 127
2, 528724, Note_on_c, 10, 69, 127
2, 528724, Note_on_c, 4, 64, 127
2, 528724, Note_on_c, 10, 57, 127
2, 528922, Note_off_c, 10, 57, 127
2, 528924, Note_on_c, 7, 55, 127
2, 529120, Note_off_c, 7, 55, 127
2, 529122, Note_off_c, 4, 64, 127
2, 529122, Note_off_c, 10, 69, 127
2, 529122, Note_off_c, 1, 73, 127
2, 529124, Note_on_c, 0, 72, 127
2, 529124, Note_on_c, 10, 69, 127
2, 529124, Note_on_c, 2, 62, 127
2, 529124, Note_on_c, 6, 54, 127
2, 529306, Note_off_c, 6, 54, 127
2, 529306, Note_off_c, 2, 62, 127
2, 529306, Note_off_c, 10, 69, 127
2, 529306, Note_off_c, 0, 72, 127
2, 529323, Note_on_c, 12, 71, 127
2, 529323, Note_on_c, 7, 67, 127
2, 529323, Note_on_c, 2, 62, 127
2, 529323, Note_on_c, 7, 55, 127
2, 529521, Note_off_c, 7, 55, 127
2, 529523, Note_on_c, 6, 54, 127
2, 529719, Note_off_c, 6, 54, 127
2, 529721, Note_off_c, 2, 62, 127
2, 529721, Note_off_c, 7, 67, 127
2, 529721, Note_off_c, 12, 71, 127
2, 529723, Note_on_c, 4, 76, 127
2, 529723, Note_on_c, 12, 71, 127
2, 529723, Note_on_c, 7, 67, 127
2, 529723, Note_on_c, 4, 52, 127
2, 529905, Note_off_c, 4, 52, 127
2, 529905, Note_off_c, 7, 67, 127
2, 529905, Note_off_c, 12, 71, 127
2, 529905, Note_off_c, 4, 76, 127
2, 529922, Note_on_c, 3, 75, 127
2, 529922, Note_on_c, 10, 69, 127
2, 529922, Note_on_c, 6, 54, 127
2, 530120, Note_off_c, 6, 54, 127
2, 530120, Note_off_c, 3, 75, 127
2, 530122, Note_on_c, 4, 76, 127
2, 530122, Note_on_c, 4, 52, 127
2, 530318, Note_off_c, 4, 52, 127
2, 530318, Note_off_c, 4, 76, 127
2, 530321, Note_on_c, 6, 78, 127
2, 530321, Note_on_c, 3, 51, 127
2, 530503, Note_off_c, 3, 51, 127
2, 530503, Note_off_c, 6, 78, 127
2, 530520, Note_on_c, 12, 71, 127
2, 530520, Note_on_c, 4, 52, 127
2, 530718, Note_off_c, 4, 52, 127
2, 530718, Note_off_c, 12, 71, 127
2, 530718, Note_off_c, 10, 69, 127
2, 530720, Note_on_c, 4, 76, 127
2, 530720, Note_on_c, 7, 67, 127
2, 530720, Note_on_c, 7, 55, 127
2, 530916, Note_off_c, 7, 55, 127
2, 530919, Note_on_c, 10, 57, 127
2, 531101, Note_off_c, 10, 57, 127
2, 531118, Note_on_c, 12, 59, 127
2, 531314, Note_off_c, 7, 67, 127
2, 531317, Note_on_c, 6, 66, 127
2, 531513, Note_off_c, 6, 66, 127
2, 531513, Note_off_c, 4, 76, 127
2, 531516, Note_on_c, 2, 74, 127
2, 531516, Note_on_c, 12, 71, 127
2, 531698, Note_off_c, 2, 74, 127
2, 531714, Note_off_c, 12, 59, 127
2, 531716, Note_on_c, 0, 72, 127
2, 531716, Note_on_c, 4, 52, 127
2, 531911, Note_off_c, 12, 71, 127
2, 531916, Note_on_c, 10, 69, 127
2, 532013, Note_off_c, 10, 69, 127
2, 532016, Note_on_c, 7, 67, 127
2, 532114, Note_off_c, 7, 67, 127
2, 532114, Note_off_c, 4, 52, 127
2, 532116, Note_on_c, 10, 69, 127
2, 532116, Note_on_c, 6, 54, 127
2, 532298, Note_off_c, 6, 54, 127
2, 532314, Note_off_c, 0, 72, 127
2, 532316, Note_on_c, 12, 71, 127
2, 532316, Note_on_c, 7, 55, 127
2, 532511, Note_off_c, 10, 69, 127
2, 532516, Note_on_c, 2, 62, 127
2, 532712, Note_off_c, 2, 62, 127
2, 532715, Note_on_c, 7, 67, 127
2, 532913, Note_off_c, 7, 55, 127
2, 532913, Note_off_c, 12, 71, 127
2, 532915, Note_on_c, 10, 69, 127
2, 532915, Note_on_c, 1, 49, 127
2, 533110, Note_off_c, 7, 67, 127
2, 533115, Note_on_c, 6, 66, 127
2, 533212, Note_off_c, 6, 66, 127
2, 533215, Note_on_c, 4, 64, 127
2, 533313, Note_off_c, 4, 64, 127
2, 533313, Note_off_c, 1, 49, 127
2, 533315, Note_on_c, 6, 66, 127
2, 533315, Note_on_c, 3, 51, 127
2, 533497, Note_off_c, 3, 51, 127
2, 533513, Note_off_c, 10, 69, 127
2, 533515, Note_on_c, 8, 68, 127
2, 533515, Note_on_c, 4, 52, 127
2, 533710, Note_off_c, 6, 66, 127
2, 533715, Note_on_c, 12, 59, 127
2, 533911, Note_off_c, 12, 59, 127
2, 533914, Note_on_c, 4, 64, 127
2, 534112, Note_off_c, 4, 52, 127
2, 534112, Note_off_c, 8, 68, 127
2, 534114, Note_on_c, 6, 66, 127
2, 534114, Note_on_c, 10, 45, 127
2, 534309, Note_off_c, 4, 64, 127
2, 534314, Note_on_c, 3, 63, 127
2, 534411, Note_off_c, 3, 63, 127
2, 534414, Note_on_c, 1, 61, 127
2, 534512, Note_off_c, 1, 61, 127
2, 534512, Note_off_c, 10, 45, 127
2, 534514, Note_on_c, 3, 63, 127
2, 534514, Note_on_c, 12, 47, 127
2, 534696, Note_off_c, 12, 47, 127
2, 534696, Note_off_c, 3, 63, 127
2, 534712, Note_off_c, 6, 66, 127
2, 534714, Note_on_c, 4, 64, 127
2, 534714, Note_on_c, 4, 40, 127
2, 534912, Note_off_c, 4, 40, 127
2, 534914, Note_on_c, 12, 47, 127
2, 535110, Note_off_c, 12, 47, 127
2, 535112, Note_off_c, 4, 64, 127
2, 535114, Note_on_c, 4, 64, 127
2, 535114, Note_on_c, 4, 52, 127
2, 535296, Note_off_c, 4, 64, 127
2, 535313, Note_on_c, 6, 66, 127
2, 535508, Note_off_c, 4, 52, 127
2, 535513, Note_on_c, 2, 50, 127
2, 535610, Note_off_c, 2, 50, 127
2, 535613, Note_on_c, 0, 48, 127
2, 535711, Note_off_c, 0, 48, 127
2, 535711, Note_off_c, 6, 66, 127
2, 535713, Note_on_c, 8, 68, 127
2, 535713, Note_on_c, 2, 50, 127
2, 535895, Note_off_c, 2, 50, 127
2, 535895, Note_off_c, 8, 68, 127
2, 535912, Note_on_c, 0, 72, 127
2, 535912, Note_on_c, 10, 57, 127
2, 535912, Note_on_c, 0, 48, 127
2, 536110, Note_off_c, 10, 57, 127
2, 536112, Note_on_c, 4, 64, 127
2, 536308, Note_off_c, 4, 64, 127
2, 536310, Note_off_c, 0, 48, 127
2, 536310, Note_off_c, 0, 72, 127
2, 536312, Note_on_c, 2, 74, 127
2, 536312, Note_on_c, 2, 62, 127
2, 536312, Note_on_c, 8, 44, 127
2, 536494, Note_off_c, 8, 44, 127
2, 536494, Note_off_c, 2, 62, 127
2, 536494, Note_off_c, 2, 74, 127
2, 536511, Note_on_c, 4, 64, 127
2, 536511, Note_on_c, 0, 60, 127
2, 536511, Note_on_c, 10, 45, 127
2, 536709, Note_off_c, 0, 60, 127
2, 536711, Note_on_c, 12, 59, 127
2, 536907, Note_off_c, 12, 59, 127
2, 536909, Note_off_c, 4, 64, 127
2, 536911, Note_on_c, 0, 72, 127
2, 536911, Note_on_c, 10, 57, 127
2, 537093, Note_off_c, 10, 57, 127
2, 537093, Note_off_c, 0, 72, 127
2, 537109, Note_off_c, 10, 45, 127
2, 537111, Note_on_c, 0, 72, 127
2, 537111, Note_on_c, 5, 65, 127
2, 537111, Note_on_c, 2, 50, 127
2, 537309, Note_off_c, 5, 65, 127
2, 537311, Note_on_c, 4, 64, 127
2, 537507, Note_off_c, 4, 64, 127
2, 537509, Note_off_c, 0, 72, 127
2, 537511, Note_on_c, 12, 71, 127
2, 537511, Note_on_c, 2, 62, 127
2, 537693, Note_off_c, 2, 62, 127
2, 537693, Note_off_c, 12, 71, 127
2, 537709, Note_off_c, 2, 50, 127
2, 537711, Note_on_c, 0, 72, 127
2, 537711, Note_on_c, 4, 64, 127
2, 537711, Note_on_c, 10, 45, 127
2, 537909, Note_off_c, 4, 64, 127
2, 537911, Note_on_c, 10, 57, 127
2, 538009, Note_off_c, 0, 72, 127
2, 538011, Note_on_c, 2, 74, 127
2, 538108, Note_off_c, 10, 57, 127
2, 538110, Note_off_c, 2, 74, 127
2, 538112, Note_on_c, 0, 72, 127
2, 538112, Note_on_c, 10, 69, 127
2, 538207, Note_off_c, 0, 72, 127
2, 538212, Note_on_c, 12, 71, 127
2, 538295, Note_off_c, 10, 69, 127
2, 538311, Note_off_c, 12, 71, 127
2, 538311, Note_off_c, 10, 45, 127
2, 538313, Note_on_c, 0, 72, 127
2, 538313, Note_on_c, 10, 69, 127
2, 538313, Note_on_c, 10, 57, 127
2, 538511, Note_off_c, 10, 69, 127
2, 538513, Note_on_c, 7, 67, 127
2, 538709, Note_off_c, 7, 67, 127
2, 538712, Note_on_c, 5, 65, 127
2, 538894, Note_off_c, 5, 65, 127
2, 538911, Note_on_c, 7, 67, 127
2, 539061, Note_off_c, 10, 57, 127
2, 539061, Note_off_c, 0, 72, 127
2, 539109, Note_off_c, 7, 67, 127
2, 539111, Note_on_c, 5, 65, 127
2, 539307, Note_off_c, 5, 65, 127
2, 539310, Note_on_c, 1, 73, 127
2, 539310, Note_on_c, 4, 64, 127
2, 539310, Note_on_c, 10, 45, 127
2, 539492, Note_off_c, 10, 45, 127
2, 539492, Note_off_c, 4, 64, 127
2, 539492, Note_off_c, 1, 73, 127
2, 539509, Note_on_c, 2, 74, 127
2, 539509, Note_on_c, 5, 65, 127
2, 539509, Note_on_c, 2, 50, 127
2, 539707, Note_off_c, 5, 65, 127
2, 539707, Note_off_c, 2, 74, 127
2, 539709, Note_on_c, 0, 72, 127
2, 539709, Note_on_c, 4, 64, 127
2, 539905, Note_off_c, 4, 64, 127
2, 539905, Note_off_c, 0, 72, 127
2, 539907, Note_off_c, 2, 50, 127
2, 539909, Note_on_c, 12, 71, 127
2, 539909, Note_on_c, 2, 62, 127
2, 539909, Note_on_c, 7, 55, 127
2, 540091, Note_off_c, 7, 55, 127
2, 540091, Note_off_c, 2, 62, 127
2, 540091, Note_off_c, 12, 71, 127
2, 540108, Note_on_c, 0, 72, 127
2, 540108, Note_on_c, 4, 64, 127
2, 540108, Note_on_c, 0, 48, 127
2, 540306, Note_off_c, 4, 64, 127
2, 540306, Note_off_c, 0, 72, 127
2, 540308, Note_on_c, 12, 71, 127
2, 540308, Note_on_c, 2, 62, 127
2, 540504, Note_off_c, 2, 62, 127
2, 540504, Note_off_c, 12, 71, 127
2, 540506, Note_off_c, 0, 48, 127
2, 540508, Note_on_c, 10, 69, 127
2, 540508, Note_on_c, 0, 60, 127
2, 540508, Note_on_c, 5, 53, 127
2, 540690, Note_off_c, 5, 53, 127
2, 540690, Note_off_c, 0, 60, 127
2, 540690, Note_off_c, 10, 69, 127
2, 540707, Note_on_c, 12, 71, 127
2, 540707, Note_on_c, 2, 62, 127
2, 540707, Note_on_c, 12, 47, 127
2, 540905, Note_off_c, 2, 62, 127
2, 540905, Note_off_c, 12, 71, 127
2, 540907, Note_on_c, 10, 69, 127
2, 540907, Note_on_c, 0, 60, 127
2, 541103, Note_off_c, 0, 60, 127
2, 541103, Note_off_c, 10, 69, 127
2, 541105, Note_off_c, 12, 47, 127
2, 541107, Note_on_c, 8, 68, 127
2, 541107, Note_on_c, 12, 59, 127
2, 541107, Note_on_c, 4, 52, 127
2, 541289, Note_off_c, 4, 52, 127
2, 541289, Note_off_c, 12, 59, 127
2, 541289, Note_off_c, 8, 68, 127
2, 541306, Note_on_c, 10, 69, 127
2, 541306, Note_on_c, 0, 60, 127
2, 541306, Note_on_c, 10, 45, 127
2, 541504, Note_off_c, 0, 60, 127
2, 541506, Note_on_c, 12, 59, 127
2, 541702, Note_off_c, 12, 59, 127
2, 541704, Note_off_c, 10, 45, 127
2, 541706, Note_on_c, 10, 57, 127
2, 541706, Note_on_c, 0, 48, 127
2, 541888, Note_off_c, 0, 48, 127
2, 541888, Note_off_c, 10, 57, 127
2, 541899, Note_off_c, 10, 69, 127
2, 541905, Note_on_c, 12, 59, 127
2, 541905, Note_on_c, 2, 50, 127
2, 542103, Note_off_c, 12, 59, 127
2, 542105, Note_on_c, 10, 57, 127
2, 542301, Note_off_c, 10, 57, 127
2, 542303, Note_off_c, 2, 50, 127
2, 542305, Note_on_c, 8, 56, 127
2, 542305, Note_on_c, 4, 52, 127
2, 542487, Note_off_c, 4, 52, 127
2, 542487, Note_off_c, 8, 56, 127
2, 542504, Note_on_c, 10, 57, 127
2, 542504, Note_on_c, 5, 53, 127
2, 542702, Note_off_c, 10, 57, 127
2, 542704, Note_on_c, 2, 50, 127
2, 542900, Note_off_c, 2, 50, 127
2, 542903, Note_on_c, 2, 62, 127
2, 543101, Note_off_c, 5, 53, 127
2, 543103, Note_on_c, 4, 52, 127
2, 543298, Note_off_c, 2, 62, 127
2, 543303, Note_on_c, 0, 60, 127
2, 543400, Note_off_c, 0, 60, 127
2, 543403, Note_on_c, 12, 59, 127
2, 543501, Note_off_c, 12, 59, 127
2, 543503, Note_on_c, 0, 60, 127
2, 543701, Note_off_c, 4, 52, 127
2, 543703, Note_on_c, 2, 50, 127
2, 543898, Note_off_c, 0, 60, 127
2, 543903, Note_on_c, 6, 54, 127
2, 544099, Note_off_c, 6, 54, 127
2, 544102, Note_on_c, 12, 59, 127
2, 544300, Note_off_c, 2, 50, 127
2, 544302, Note_on_c, 0, 48, 127
2, 544497, Note_off_c, 12, 59, 127
2, 544502, Note_on_c, 10, 57, 127
2, 544599, Note_off_c, 10, 57, 127
2, 544602, Note_on_c, 8, 56, 127
2, 544700, Note_off_c, 8, 56, 127
2, 544702, Note_on_c, 10, 57, 127
2, 544900, Note_off_c, 0, 48, 127
2, 544902, Note_on_c, 12, 47, 127
2, 545097, Note_off_c, 10, 57, 127
2, 545102, Note_on_c, 8, 56, 127
2, 545298, Note_off_c, 8, 56, 127
2, 545301, Note_on_c, 2, 62, 127
2, 545499, Note_off_c, 12, 47, 127
2, 545501, Note_on_c, 10, 45, 127
2, 545696, Note_off_c, 2, 62, 127
2, 545699, Note_off_c, 10, 45, 127
2, 545701, Note_on_c, 0, 60, 127
2, 545701, Note_on_c, 4, 52, 127
2, 545798, Note_off_c, 0, 60, 127
2, 545801, Note_on_c, 12, 59, 127
2, 545898, Note_off_c, 4, 52, 127
2, 545900, Note_off_c, 12, 59, 127
2, 545902, Note_on_c, 0, 60, 127
2, 545902, Note_on_c, 10, 57, 127
2, 546084, Note_off_c, 0, 60, 127
2, 546101, Note_on_c, 12, 59, 127
2, 546296, Note_off_c, 10, 57, 127
2, 546301, Note_on_c, 7, 55, 127
2, 546398, Note_off_c, 7, 55, 127
2, 546401, Note_on_c, 6, 54, 127
2, 546499, Note_off_c, 6, 54, 127
2, 546499, Note_off_c, 12, 59, 127
2, 546501, Note_on_c, 4, 64, 127
2, 546501, Note_on_c, 7, 55, 127
2, 546596, Note_off_c, 7, 55, 127
2, 546601, Note_on_c, 10, 57, 127
2, 546699, Note_off_c, 10, 57, 127
2, 546701, Note_on_c, 6, 66, 127
2, 546701, Note_on_c, 12, 59, 127
2, 546896, Note_off_c, 4, 64, 127
2, 546899, Note_off_c, 6, 66, 127
2, 546901, Note_on_c, 12, 71, 127
2, 546901, Note_on_c, 3, 63, 127
2, 546998, Note_off_c, 3, 63, 127
2, 547001, Note_on_c, 1, 61, 127
2, 547098, Note_off_c, 12, 71, 127
2, 547100, Note_off_c, 1, 61, 127
2, 547102, Note_on_c, 10, 69, 127
2, 547102, Note_on_c, 3, 63, 127
2, 547284, Note_off_c, 3, 63, 127
2, 547284, Note_off_c, 10, 69, 127
2, 547300, Note_off_c, 12, 59, 127
2, 547302, Note_on_c, 7, 67, 127
2, 547302, Note_on_c, 4, 64, 127
2, 547302, Note_on_c, 4, 52, 127
2, 547500, Note_off_c, 7, 67, 127
2, 547502, Note_on_c, 6, 66, 127
2, 547698, Note_off_c, 6, 66, 127
2, 547700, Note_off_c, 4, 64, 127
2, 547702, Note_on_c, 4, 64, 127
2, 547900, Note_off_c, 4, 52, 127
2, 547902, Note_on_c, 0, 72, 127
2, 547902, Note_on_c, 10, 45, 127
2, 548100, Note_off_c, 0, 72, 127
2, 548102, Note_on_c, 12, 71, 127
2, 548292, Note_off_c, 4, 64, 127
2, 548298, Note_off_c, 12, 71, 127
2, 548301, Note_on_c, 10, 69, 127
2, 548301, Note_on_c, 6, 66, 127
2, 548483, Note_off_c, 6, 66, 127
2, 548483, Note_off_c, 10, 69, 127
2, 548499, Note_off_c, 10, 45, 127
2, 548501, Note_on_c, 12, 71, 127
2, 548501, Note_on_c, 7, 67, 127
2, 548501, Note_on_c, 4, 52, 127
2, 548699, Note_off_c, 12, 71, 127
2, 548701, Note_on_c, 4, 64, 127
2, 548799, Note_off_c, 4, 52, 127
2, 548801, Note_on_c, 3, 51, 127
2, 548898, Note_off_c, 4, 64, 127
2, 548900, Note_off_c, 3, 51, 127
2, 548902, Note_on_c, 4, 76, 127
2, 548902, Note_on_c, 4, 52, 127
2, 548997, Note_off_c, 4, 52, 127
2, 549002, Note_on_c, 6, 54, 127
2, 549085, Note_off_c, 4, 76, 127
2, 549101, Note_off_c, 6, 54, 127
2, 549101, Note_off_c, 7, 67, 127
2, 549103, Note_on_c, 4, 76, 127
2, 549103, Note_on_c, 12, 71, 127
2, 549103, Note_on_c, 7, 55, 127
2, 549301, Note_off_c, 7, 55, 127
2, 549301, Note_off_c, 4, 76, 127
2, 549303, Note_on_c, 2, 74, 127
2, 549303, Note_on_c, 4, 52, 127
2, 549499, Note_off_c, 4, 52, 127
2, 549499, Note_off_c, 2, 74, 127
2, 549502, Note_on_c, 0, 72, 127
2, 549502, Note_on_c, 10, 57, 127
2, 549684, Note_off_c, 10, 57, 127
2, 549684, Note_off_c, 0, 72, 127
2, 549700, Note_off_c, 12, 71, 127
2, 549702, Note_on_c, 2, 74, 127
2, 549702, Note_on_c, 10, 69, 127
2, 549702, Note_on_c, 6, 54, 127
2, 549900, Note_off_c, 6, 54, 127
2, 549900, Note_off_c, 2, 74, 127
2, 549902, Note_on_c, 0, 72, 127
2, 549902, Note_on_c, 2, 50, 127
2, 550098, Note_off_c, 2, 50, 127
2, 550098, Note_off_c, 0, 72, 127
2, 550101, Note_on_c, 12, 71, 127
2, 550101, Note_on_c, 7, 55, 127
2, 550283, Note_off_c, 7, 55, 127
2, 550283, Note_off_c, 12, 71, 127
2, 550299, Note_off_c, 10, 69, 127
2, 550301, Note_on_c, 0, 72, 127
2, 550301, Note_on_c, 7, 67, 127
2, 550301, Note_on_c, 4, 52, 127
2, 550499, Note_off_c, 4, 52, 127
2, 550499, Note_off_c, 0, 72, 127
2, 550501, Note_on_c, 12, 71, 127
2, 550501, Note_on_c, 1, 49, 127
2, 550697, Note_off_c, 1, 49, 127
2, 550697, Note_off_c, 12, 71, 127
2, 550700, Note_on_c, 10, 69, 127
2, 550700, Note_on_c, 6, 54, 127
2, 550882, Note_off_c, 6, 54, 127
2, 550882, Note_off_c, 10, 69, 127
2, 550898, Note_off_c, 7, 67, 127
2, 550900, Note_on_c, 12, 71, 127
2, 550900, Note_on_c, 6, 66, 127
2, 550900, Note_on_c, 3, 51, 127
2, 551098, Note_off_c, 3, 51, 127
2, 551098, Note_off_c, 12, 71, 127
2, 551100, Note_on_c, 10, 69, 127
2, 551100, Note_on_c, 12, 47, 127
2, 551296, Note_off_c, 12, 47, 127
2, 551296, Note_off_c, 10, 69, 127
2, 551299, Note_on_c, 7, 67, 127
2, 551299, Note_on_c, 4, 52, 127
2, 551481, Note_off_c, 4, 52, 127
2, 551481, Note_off_c, 7, 67, 127
2, 551497, Note_off_c, 6, 66, 127
2, 551499, Note_on_c, 10, 69, 127
2, 551499, Note_on_c, 4, 64, 127
2, 551499, Note_on_c, 1, 49, 127
2, 551697, Note_off_c, 10, 69, 127
2, 551699, Note_on_c, 7, 67, 127
2, 551895, Note_off_c, 7, 67, 127
2, 551897, Note_off_c, 1, 49, 127
2, 551897, Note_off_c, 4, 64, 127
2, 551899, Note_on_c, 6, 66, 127
2, 551899, Note_on_c, 3, 51, 127
2, 552081, Note_off_c, 3, 51, 127
2, 552081, Note_off_c, 6, 66, 127
2, 552098, Note_on_c, 7, 67, 127
2, 552098, Note_on_c, 12, 59, 127
2, 552098, Note_on_c, 4, 52, 127
2, 552296, Note_off_c, 4, 52, 127
2, 552296, Note_off_c, 7, 67, 127
2, 552298, Note_on_c, 6, 66, 127
2, 552298, Note_on_c, 6, 54, 127
2, 552494, Note_off_c, 6, 54, 127
2, 552494, Note_off_c, 6, 66, 127
2, 552496, Note_off_c, 12, 59, 127
2, 552498, Note_on_c, 4, 64, 127
2, 552498, Note_on_c, 12, 59, 127
2, 552498, Note_on_c, 7, 55, 127
2, 552680, Note_off_c, 7, 55, 127
2, 552680, Note_off_c, 12, 59, 127
2, 552680, Note_off_c, 4, 64, 127
2, 552697, Note_on_c, 6, 66, 127
2, 552697, Note_on_c, 10, 57, 127
2, 552697, Note_on_c, 10, 45, 127
2, 552895, Note_off_c, 10, 57, 127
2, 552895, Note_off_c, 6, 66, 127
2, 552897, Note_on_c, 4, 64, 127
2, 552897, Note_on_c, 7, 55, 127
2, 553093, Note_off_c, 7, 55, 127
2, 553093, Note_off_c, 4, 64, 127
2, 553095, Note_off_c, 10, 45, 127
2, 553097, Note_on_c, 3, 63, 127
2, 553097, Note_on_c, 6, 54, 127
2, 553097, Note_on_c, 12, 47, 127
2, 553279, Note_off_c, 12, 47, 127
2, 553279, Note_off_c, 6, 54, 127
2, 553279, Note_off_c, 3, 63, 127
2, 553296, Note_on_c, 4, 64, 127
2, 553296, Note_on_c, 7, 55, 127
2, 553296, Note_on_c, 4, 40, 127
2, 553494, Note_off_c, 7, 55, 127
2, 553494, Note_off_c, 4, 64, 127
2, 553496, Note_on_c, 6, 66, 127
2, 553496, Note_on_c, 10, 57, 127
2, 553692, Note_off_c, 10, 57, 127
2, 553692, Note_off_c, 6, 66, 127
2, 553694, Note_off_c, 4, 40, 127
2, 553696, Note_on_c, 7, 67, 127
2, 553696, Note_on_c, 12, 59, 127
2, 553696, Note_on_c, 4, 52, 127
2, 553878, Note_off_c, 12, 59, 127
2, 553878, Note_off_c, 7, 67, 127
2, 553895, Note_on_c, 6, 66, 127
2, 553895, Note_on_c, 10, 57, 127
2, 554090, Note_off_c, 4, 52, 127
2, 554095, Note_on_c, 2, 50, 127
2, 554192, Note_off_c, 2, 50, 127
2, 554195, Note_on_c, 0, 48, 127
2, 554293, Note_off_c, 0, 48, 127
2, 554293, Note_off_c, 10, 57, 127
2, 554293, Note_off_c, 6, 66, 127
2, 554295, Note_on_c, 8, 68, 127
2, 554295, Note_on_c, 12, 59, 127
2, 554295, Note_on_c, 2, 50, 127
2, 554477, Note_off_c, 12, 59, 127
2, 554477, Note_off_c, 8, 68, 127
2, 554494, Note_on_c, 10, 69, 127
2, 554494, Note_on_c, 4, 52, 127
2, 554689, Note_off_c, 2, 50, 127
2, 554692, Note_off_c, 4, 52, 127
2, 554694, Note_on_c, 10, 57, 127
2, 554694, Note_on_c, 0, 48, 127
2, 554791, Note_off_c, 0, 48, 127
2, 554794, Note_on_c, 12, 47, 127
2, 554891, Note_off_c, 10, 57, 127
2, 554893, Note_off_c, 12, 47, 127
2, 554895, Note_on_c, 4, 64, 127
2, 554895, Note_on_c, 0, 48, 127
2, 555077, Note_off_c, 0, 48, 127
2, 555093, Note_off_c, 10, 69, 127
2, 555095, Note_on_c, 12, 71, 127
2, 555095, Note_on_c, 12, 47, 127
2, 555293, Note_off_c, 12, 47, 127
2, 555295, Note_on_c, 2, 62, 127
2, 555295, Note_on_c, 4, 52, 127
2, 555392, Note_off_c, 2, 62, 127
2, 555395, Note_on_c, 0, 60, 127
2, 555492, Note_off_c, 4, 52, 127
2, 555494, Note_off_c, 0, 60, 127
2, 555496, Note_on_c, 2, 62, 127
2, 555496, Note_on_c, 8, 56, 127
2, 555678, Note_off_c, 8, 56, 127
2, 555689, Note_off_c, 12, 71, 127
2, 555691, Note_off_c, 4, 64, 127
2, 555696, Note_on_c, 4, 64, 127
2, 555696, Note_on_c, 10, 57, 127
2, 555891, Note_off_c, 2, 62, 127
2, 555896, Note_on_c, 0, 60, 127
2, 555993, Note_off_c, 0, 60, 127
2, 555996, Note_on_c, 12, 59, 127
2, 556094, Note_off_c, 12, 59, 127
2, 556094, Note_off_c, 4, 64, 127
2, 556096, Note_on_c, 10, 69, 127
2, 556096, Note_on_c, 0, 60, 127
2, 556278, Note_off_c, 0, 60, 127
2, 556294, Note_off_c, 10, 57, 127
2, 556296, Note_on_c, 12, 71, 127
2, 556296, Note_on_c, 12, 59, 127
2, 556296, Note_on_c, 4, 52, 127
2, 556491, Note_off_c, 10, 69, 127
2, 556494, Note_off_c, 12, 71, 127
2, 556496, Note_on_c, 4, 76, 127
2, 556496, Note_on_c, 8, 68, 127
2, 556692, Note_off_c, 4, 76, 127
2, 556695, Note_on_c, 2, 74, 127
2, 556877, Note_off_c, 2, 74, 127
2, 556891, Note_off_c, 8, 68, 127
2, 556893, Note_off_c, 4, 52, 127
2, 556893, Note_off_c, 12, 59, 127
2, 556895, Note_on_c, 0, 72, 127
2, 556895, Note_on_c, 10, 69, 127
2, 556895, Note_on_c, 10, 57, 127
2, 556895, Note_on_c, 5, 53, 127
2, 557093, Note_off_c, 10, 57, 127
2, 557093, Note_off_c, 0, 72, 127
2, 557095, Note_on_c, 12, 71, 127
2, 557095, Note_on_c, 12, 59, 127
2, 557291, Note_off_c, 12, 59, 127
2, 557291, Note_off_c, 12, 71, 127
2, 557293, Note_off_c, 10, 69, 127
2, 557295, Note_on_c, 10, 69, 127
2, 557295, Note_on_c, 1, 61, 127
2, 557477, Note_off_c, 1, 61, 127
2, 557477, Note_off_c, 10, 69, 127
2, 557494, Note_on_c, 5, 77, 127
2, 557494, Note_on_c, 10, 69, 127
2, 557494, Note_on_c, 2, 62, 127
2, 557692, Note_off_c, 2, 62, 127
2, 557692, Note_off_c, 5, 77, 127
2, 557694, Note_on_c, 4, 76, 127
2, 557694, Note_on_c, 10, 57, 127
2, 557890, Note_off_c, 4, 76, 127
2, 557893, Note_on_c, 2, 74, 127
2, 558075, Note_off_c, 2, 74, 127
2, 558091, Note_off_c, 10, 69, 127
2, 558091, Note_off_c, 5, 53, 127
2, 558093, Note_on_c, 4, 76, 127
2, 558093, Note_on_c, 1, 49, 127
2, 558292, Note_on_c, 10, 69, 127
2, 558488, Note_off_c, 10, 69, 127
2, 558488, Note_off_c, 10, 57, 127
2, 558491, Note_on_c, 10, 81, 127
2, 558491, Note_on_c, 7, 55, 127
2, 558673, Note_off_c, 7, 55, 127
2, 558673, Note_off_c, 10, 81, 127
2, 558689, Note_off_c, 1, 49, 127
2, 558691, Note_on_c, 10, 81, 127
2, 558691, Note_on_c, 5, 53, 127
2, 558691, Note_on_c, 2, 50, 127
2, 558889, Note_off_c, 5, 53, 127
2, 558889, Note_off_c, 10, 81, 127
2, 558891, Note_on_c, 7, 79, 127
2, 558891, Note_on_c, 7, 55, 127
2, 559087, Note_off_c, 7, 55, 127
2, 559087, Note_off_c, 7, 79, 127
2, 559089, Note_off_c, 4, 76, 127
2, 559091, Note_on_c, 5, 77, 127
2, 559091, Note_on_c, 2, 74, 127
2, 559091, Note_on_c, 10, 57, 127
2, 559273, Note_off_c, 10, 57, 127
2, 559273, Note_off_c, 2, 74, 127
2, 559273, Note_off_c, 5, 77, 127
2, 559289, Note_off_c, 2, 50, 127
2, 559291, Note_on_c, 7, 79, 127
2, 559291, Note_on_c, 4, 76, 127
2, 559291, Note_on_c, 11, 58, 127
2, 559291, Note_on_c, 7, 55, 127
2, 559489, Note_off_c, 4, 76, 127
2, 559489, Note_off_c, 7, 79, 127
2, 559491, Note_on_c, 5, 77, 127
2, 559491, Note_on_c, 2, 74, 127
2, 559687, Note_off_c, 2, 74, 127
2, 559687, Note_off_c, 5, 77, 127
2, 559689, Note_off_c, 7, 55, 127
2, 559689, Note_off_c, 11, 58, 127
2, 559691, Note_on_c, 4, 76, 127
2, 559691, Note_on_c, 1, 73, 127
2, 559691, Note_on_c, 10, 57, 127
2, 559873, Note_off_c, 10, 57, 127
2, 559873, Note_off_c, 1, 73, 127
2, 559873, Note_off_c, 4, 76, 127
2, 559890, Note_on_c, 5, 77, 127
2, 559890, Note_on_c, 2, 74, 127
2, 559890, Note_on_c, 2, 50, 127
2, 560088, Note_off_c, 5, 77, 127
2, 560090, Note_on_c, 4, 76, 127
2, 560286, Note_off_c, 4, 76, 127
2, 560288, Note_off_c, 2, 74, 127
2, 560290, Note_on_c, 2, 74, 127
2, 560290, Note_on_c, 10, 69, 127
2, 560290, Note_on_c, 2, 62, 127
2, 560472, Note_off_c, 2, 62, 127
2, 560472, Note_off_c, 10, 69, 127
2, 560472, Note_off_c, 2, 74, 127
2, 560488, Note_off_c, 2, 50, 127
2, 560490, Note_on_c, 4, 76, 127
2, 560490, Note_on_c, 12, 71, 127
2, 560490, Note_on_c, 8, 56, 127
2, 560688, Note_off_c, 4, 76, 127
2, 560690, Note_on_c, 2, 74, 127
2, 560886, Note_off_c, 2, 74, 127
2, 560888, Note_off_c, 8, 56, 127
2, 560890, Note_on_c, 0, 72, 127
2, 560890, Note_on_c, 10, 57, 127
2, 561072, Note_off_c, 10, 57, 127
2, 561072, Note_off_c, 0, 72, 127
2, 561088, Note_off_c, 12, 71, 127
2, 561090, Note_on_c, 2, 74, 127
2, 561090, Note_on_c, 10, 69, 127
2, 561090, Note_on_c, 6, 54, 127
2, 561288, Note_off_c, 2, 74, 127
2, 561290, Note_on_c, 0, 72, 127
2, 561486, Note_off_c, 0, 72, 127
2, 561488, Note_off_c, 6, 54, 127
2, 561490, Note_on_c, 12, 71, 127
2, 561490, Note_on_c, 8, 56, 127
2, 561672, Note_off_c, 8, 56, 127
2, 561672, Note_off_c, 12, 71, 127
2, 561688, Note_off_c, 10, 69, 127
2, 561690, Note_on_c, 0, 72, 127
2, 561690, Note_on_c, 4, 64, 127
2, 561690, Note_on_c, 10, 57, 127
2, 561888, Note_off_c, 10, 57, 127
2, 561888, Note_off_c, 0, 72, 127
2, 561890, Note_on_c, 12, 71, 127
2, 561890, Note_on_c, 12, 59, 127
2, 562086, Note_off_c, 12, 59, 127
2, 562086, Note_off_c, 12, 71, 127
2, 562089, Note_on_c, 10, 69, 127
2, 562089, Note_on_c, 0, 60, 127
2, 562271, Note_off_c, 0, 60, 127
2, 562271, Note_off_c, 10, 69, 127
2, 562287, Note_off_c, 4, 64, 127
2, 562289, Note_on_c, 12, 71, 127
2, 562289, Note_on_c, 5, 65, 127
2, 562289, Note_on_c, 2, 62, 127
2, 562487, Note_off_c, 12, 71, 127
2, 562489, Note_on_c, 10, 69, 127
2, 562685, Note_off_c, 10, 69, 127
2, 562687, Note_off_c, 5, 65, 127
2, 562689, Note_on_c, 8, 68, 127
2, 562689, Note_on_c, 4, 64, 127
2, 562871, Note_off_c, 4, 64, 127
2, 562871, Note_off_c, 8, 68, 127
2, 562887, Note_off_c, 2, 62, 127
2, 562889, Note_on_c, 10, 69, 127
2, 562889, Note_on_c, 4, 64, 127
2, 562889, Note_on_c, 0, 60, 127
2, 563087, Note_off_c, 0, 60, 127
2, 563087, Note_off_c, 10, 69, 127
2, 563089, Note_on_c, 12, 71, 127
2, 563089, Note_on_c, 12, 59, 127
2, 563285, Note_off_c, 12, 59, 127
2, 563285, Note_off_c, 12, 71, 127
2, 563288, Note_on_c, 0, 72, 127
2, 563288, Note_on_c, 10, 57, 127
2, 563470, Note_off_c, 0, 72, 127
2, 563486, Note_off_c, 4, 64, 127
2, 563488, Note_on_c, 6, 66, 127
2, 563488, Note_on_c, 2, 62, 127
2, 563683, Note_off_c, 10, 57, 127
2, 563688, Note_on_c, 7, 55, 127
2, 563785, Note_off_c, 7, 55, 127
2, 563788, Note_on_c, 6, 54, 127
2, 563886, Note_off_c, 6, 54, 127
2, 563886, Note_off_c, 2, 62, 127
2, 563886, Note_off_c, 6, 66, 127
2, 563888, Note_on_c, 12, 71, 127
2, 563888, Note_on_c, 2, 62, 127
2, 563888, Note_on_c, 7, 55, 127
2, 564070, Note_off_c, 2, 62, 127
2, 564070, Note_off_c, 12, 71, 127
2, 564087, Note_on_c, 4, 64, 127
2, 564087, Note_on_c, 1, 61, 127
2, 564282, Note_off_c, 7, 55, 127
2, 564285, Note_off_c, 4, 64, 127
2, 564287, Note_on_c, 10, 69, 127
2, 564287, Note_on_c, 6, 54, 127
2, 564384, Note_off_c, 6, 54, 127
2, 564387, Note_on_c, 4, 52, 127
2, 564485, Note_off_c, 4, 52, 127
2, 564485, Note_off_c, 1, 61, 127
2, 564487, Note_on_c, 3, 63, 127
2, 564487, Note_on_c, 6, 54, 127
2, 564582, Note_off_c, 6, 54, 127
2, 564587, Note_on_c, 3, 51, 127
2, 564670, Note_off_c, 3, 63, 127
2, 564684, Note_off_c, 10, 69, 127
2, 564686, Note_off_c, 3, 51, 127
2, 564688, Note_on_c, 7, 67, 127
2, 564688, Note_on_c, 12, 59, 127
2, 564688, Note_on_c, 4, 52, 127
2, 564688, Note_on_c, 4, 40, 127
2, 564786, Note_off_c, 7, 67, 127
2, 564788, Note_on_c, 6, 66, 127
2, 564886, Note_off_c, 6, 66, 127
2, 564886, Note_off_c, 4, 40, 127
2, 564886, Note_off_c, 4, 52, 127
2, 564888, Note_on_c, 7, 67, 127
2, 564888, Note_on_c, 3, 51, 127
2, 564888, Note_on_c, 12, 47, 127
2, 564985, Note_off_c, 7, 67, 127
2, 564988, Note_on_c, 6, 66, 127
2, 565085, Note_off_c, 12, 47, 127
2, 565087, Note_off_c, 6, 66, 127
2, 565089, Note_on_c, 4, 64, 127
2, 565089, Note_on_c, 10, 45, 127
2, 565184, Note_off_c, 4, 64, 127
2, 565189, Note_on_c, 6, 66, 127
2, 565272, Note_off_c, 10, 45, 127
2, 565286, Note_off_c, 3, 51, 127
2, 565288, Note_off_c, 6, 66, 127
2, 565288, Note_off_c, 12, 59, 127
2, 565290, Note_on_c, 4, 64, 127
2, 565290, Note_on_c, 12, 59, 127
2, 565290, Note_on_c, 4, 52, 127
2, 565290, Note_on_c, 7, 43, 127
2, 565488, Note_off_c, 7, 43, 127
2, 565488, Note_off_c, 4, 52, 127
2, 565490, Note_on_c, 6, 54, 127
2, 565490, Note_on_c, 6, 42, 127
2, 565686, Note_off_c, 6, 42, 127
2, 565686, Note_off_c, 6, 54, 127
2, 565689, Note_on_c, 7, 55, 127
2, 565689, Note_on_c, 4, 40, 127
2, 565871, Note_off_c, 4, 40, 127
2, 565871, Note_off_c, 7, 55, 127
2, 565887, Note_off_c, 12, 59, 127
2, 565887, Note_off_c, 4, 64, 127
2, 565889, Note_on_c, 4, 64, 127
2, 565889, Note_on_c, 0, 60, 127
2, 565889, Note_on_c, 10, 57, 127
2, 565889, Note_on_c, 0, 48, 127
2, 566087, Note_off_c, 0, 48, 127
2, 566087, Note_off_c, 10, 57, 127
2, 566087, Note_off_c, 0, 60, 127
2, 566089, Note_on_c, 2, 62, 127
2, 566089, Note_on_c, 12, 59, 127
2, 566089, Note_on_c, 12, 47, 127
2, 566285, Note_off_c, 12, 47, 127
2, 566285, Note_off_c, 12, 59, 127
2, 566285, Note_off_c, 2, 62, 127
2, 566287, Note_off_c, 4, 64, 127
2, 566289, Note_on_c, 10, 69, 127
2, 566289, Note_on_c, 4, 64, 127
2, 566289, Note_on_c, 0, 60, 127
2, 566289, Note_on_c, 10, 45, 127
2, 566471, Note_off_c, 10, 45, 127
2, 566471, Note_off_c, 0, 60, 127
2, 566471, Note_off_c, 4, 64, 127
2, 566488, Note_on_c, 3, 63, 127
2, 566488, Note_on_c, 12, 59, 127
2, 566488, Note_on_c, 12, 47, 127
2, 566686, Note_off_c, 12, 47, 127
2, 566688, Note_on_c, 4, 40, 127
2, 566786, Note_off_c, 3, 63, 127
2, 566788, Note_on_c, 6, 66, 127
2, 566885, Note_off_c, 4, 40, 127
2, 566887, Note_off_c, 6, 66, 127
2, 566889, Note_on_c, 4, 64, 127
2, 566889, Note_on_c, 4, 52, 127
2, 566984, Note_off_c, 4, 64, 127
2, 566989, Note_on_c, 3, 63, 127
2, 567072, Note_off_c, 4, 52, 127
2, 567084, Note_off_c, 10, 69, 127
2, 567087, Note_off_c, 3, 63, 127
2, 567087, Note_off_c, 12, 59, 127
2, 567089, Note_on_c, 7, 67, 127
2, 567089, Note_on_c, 4, 64, 127
2, 567089, Note_on_c, 12, 59, 127
2, 567089, Note_on_c, 4, 52, 127
2, 567287, Note_off_c, 4, 52, 127
2, 567289, Note_on_c, 2, 50, 127
2, 567485, Note_off_c, 2, 50, 127
2, 567487, Note_off_c, 12, 59, 127
2, 567487, Note_off_c, 4, 64, 127
2, 567487, Note_off_c, 7, 67, 127
2, 567489, Note_on_c, 10, 69, 127
2, 567489, Note_on_c, 4, 64, 127
2, 567489, Note_on_c, 0, 60, 127
2, 567489, Note_on_c, 0, 48, 127
2, 567671, Note_off_c, 0, 48, 127
2, 567671, Note_off_c, 0, 60, 127
2, 567671, Note_off_c, 10, 69, 127
2, 567688, Note_on_c, 6, 66, 127
2, 567688, Note_on_c, 10, 57, 127
2, 567688, Note_on_c, 2, 50, 127
2, 567883, Note_off_c, 4, 64, 127
2, 567886, Note_off_c, 2, 50, 127
2, 567888, Note_on_c, 2, 62, 127
2, 567888, Note_on_c, 0, 48, 127
2, 567985, Note_off_c, 2, 62, 127
2, 567988, Note_on_c, 0, 60, 127
2, 568085, Note_off_c, 0, 48, 127
2, 568087, Note_off_c, 0, 60, 127
2, 568087, Note_off_c, 10, 57, 127
2, 568087, Note_off_c, 6, 66, 127
2, 568089, Note_on_c, 5, 65, 127
2, 568089, Note_on_c, 2, 62, 127
2, 568089, Note_on_c, 7, 55, 127
2, 568089, Note_on_c, 12, 47, 127
2, 568271, Note_off_c, 12, 47, 127
2, 568271, Note_off_c, 7, 55, 127
2, 568271, Note_off_c, 5, 65, 127
2, 568288, Note_on_c, 4, 64, 127
2, 568288, Note_on_c, 7, 55, 127
2, 568288, Note_on_c, 0, 48, 127
2, 568483, Note_off_c, 2, 62, 127
2, 568486, Note_off_c, 0, 48, 127
2, 568488, Note_on_c, 0, 60, 127
2, 568488, Note_on_c, 12, 47, 127
2, 568585, Note_off_c, 0, 60, 127
2, 568588, Note_on_c, 12, 59, 127
2, 568685, Note_off_c, 12, 47, 127
2, 568687, Note_off_c, 12, 59, 127
2, 568687, Note_off_c, 7, 55, 127
2, 568687, Note_off_c, 4, 64, 127
2, 568689, Note_on_c, 6, 66, 127
2, 568689, Note_on_c, 0, 60, 127
2, 568689, Note_on_c, 10, 57, 127
2, 568689, Note_on_c, 10, 45, 127
2, 568871, Note_off_c, 10, 45, 127
2, 568871, Note_off_c, 10, 57, 127
2, 568871, Note_off_c, 6, 66, 127
2, 568888, Note_on_c, 3, 63, 127
2, 568888, Note_on_c, 6, 54, 127
2, 568888, Note_on_c, 12, 47, 127
2, 569083, Note_off_c, 0, 60, 127
2, 569086, Note_off_c, 12, 47, 127
2, 569088, Note_on_c, 12, 59, 127
2, 569088, Note_on_c, 10, 45, 127
2, 569284, Note_off_c, 10, 45, 127
2, 569284, Note_off_c, 12, 59, 127
2, 569286, Note_off_c, 6, 54, 127
2, 569286, Note_off_c, 3, 63, 127
2, 569288, Note_on_c, 12, 71, 127
2, 569288, Note_on_c, 2, 62, 127
2, 569288, Note_on_c, 4, 52, 127
2, 569288, Note_on_c, 7, 43, 127
2, 569470, Note_off_c, 7, 43, 127
2, 569470, Note_off_c, 4, 52, 127
2, 569470, Note_off_c, 2, 62, 127
2, 569470, Note_off_c, 12, 71, 127
2, 569487, Note_on_c, 4, 64, 127
2, 569487, Note_on_c, 1, 61, 127
2, 569487, Note_on_c, 4, 52, 127
2, 569487, Note_on_c, 10, 45, 127
2, 569685, Note_off_c, 10, 45, 127
2, 569687, Note_on_c, 7, 43, 127
2, 569883, Note_off_c, 7, 43, 127
2, 569885, Note_off_c, 4, 52, 127
2, 569885, Note_off_c, 1, 61, 127
2, 569885, Note_off_c, 4, 64, 127
2, 569887, Note_on_c, 10, 69, 127
2, 569887, Note_on_c, 0, 60, 127
2, 569887, Note_on_c, 4, 52, 127
2, 569887, Note_on_c, 6, 42, 127
2, 570069, Note_off_c, 6, 42, 127
2, 570069, Note_off_c, 4, 52, 127
2, 570069, Note_off_c, 0, 60, 127
2, 570086, Note_on_c, 12, 59, 127
2, 570086, Note_on_c, 3, 51, 127
2, 570086, Note_on_c, 7, 43, 127
2, 570284, Note_off_c, 7, 43, 127
2, 570286, Note_on_c, 6, 42, 127
2, 570481, Note_off_c, 10, 69, 127
2, 570483, Note_off_c, 6, 42, 127
2, 570485, Note_off_c, 3, 51, 127
2, 570485, Note_off_c, 12, 59, 127
2, 570487, Note_on_c, 7, 67, 127
2, 570487, Note_on_c, 4, 64, 127
2, 570487, Note_on_c, 12, 59, 127
2, 570487, Note_on_c, 4, 40, 127
2, 570669, Note_off_c, 4, 40, 127
2, 570669, Note_off_c, 12, 59, 127
2, 570669, Note_off_c, 7, 67, 127
2, 570686, Note_on_c, 6, 66, 127
2, 570686, Note_on_c, 12, 59, 127
2, 570686, Note_on_c, 12, 47, 127
2, 570884, Note_off_c, 12, 47, 127
2, 570884, Note_off_c, 6, 66, 127
2, 570886, Note_on_c, 7, 67, 127
2, 570886, Note_on_c, 10, 45, 127
2, 571081, Note_off_c, 4, 64, 127
2, 571083, Note_off_c, 10, 45, 127
2, 571083, Note_off_c, 7, 67, 127
2, 571085, Note_off_c, 12, 59, 127
2, 571087, Note_on_c, 10, 69, 127
2, 571087, Note_on_c, 3, 63, 127
2, 571087, Note_on_c, 12, 59, 127
2, 571087, Note_on_c, 12, 47, 127
2, 571269, Note_off_c, 12, 47, 127
2, 571269, Note_off_c, 12, 59, 127
2, 571269, Note_off_c, 3, 63, 127
2, 571269, Note_off_c, 10, 69, 127
2, 571302, Note_on_c, 4, 40, 127
2, 571302, Note_on_c, 12, 59, 127
2, 571302, Note_on_c, 4, 64, 127
2, 571302, Note_on_c, 8, 68, 127
2, 571894, Note_off_c, 8, 68, 127
2, 571894, Note_off_c, 4, 64, 127
2, 571894, Note_off_c, 12, 59, 127
2, 571899, Note_off_c, 4, 40, 127
2, 571917, Note_on_c, 4, 52, 127
2, 572115, Note_off_c, 4, 52, 127
2, 572117, Note_on_c, 10, 45, 127
2, 572313, Note_off_c, 10, 45, 127
2, 572316, Note_on_c, 12, 47, 127
2, 572498, Note_off_c, 12, 47, 127
2, 572515, Note_on_c, 0, 48, 127
2, 572713, Note_off_c, 0, 48, 127
2, 572715, Note_on_c, 2, 50, 127
2, 572911, Note_off_c, 2, 50, 127
2, 572914, Note_on_c, 4, 52, 127
2, 573096, Note_off_c, 4, 52, 127
2, 573113, Note_on_c, 8, 44, 127
2, 573311, Note_off_c, 8, 44, 127
2, 573313, Note_on_c, 10, 45, 127
2, 573509, Note_off_c, 10, 45, 127
2, 573512, Note_on_c, 12, 47, 127
2, 573694, Note_off_c, 12, 47, 127
2, 573711, Note_on_c, 10, 45, 127
2, 573909, Note_off_c, 10, 45, 127
2, 573911, Note_on_c, 4, 52, 127
2, 574107, Note_off_c, 4, 52, 127
2, 574110, Note_on_c, 4, 40, 127
2, 574292, Note_off_c, 4, 40, 127
2, 574309, Note_on_c, 4, 40, 127
2, 574507, Note_off_c, 4, 40, 127
2, 574509, Note_on_c, 6, 42, 127
2, 574705, Note_off_c, 6, 42, 127
2, 574708, Note_on_c, 7, 43, 127
2, 574890, Note_off_c, 7, 43, 127
2, 574907, Note_on_c, 6, 42, 127
2, 575105, Note_off_c, 6, 42, 127
2, 575107, Note_on_c, 8, 44, 127
2, 575303, Note_off_c, 8, 44, 127
2, 575306, Note_on_c, 10, 45, 127
2, 575488, Note_off_c, 10, 45, 127
2, 575505, Note_on_c, 8, 44, 127
2, 575703, Note_off_c, 8, 44, 127
2, 575705, Note_on_c, 10, 45, 127
2, 575901, Note_off_c, 10, 45, 127
2, 575904, Note_on_c, 12, 47, 127
2, 576086, Note_off_c, 12, 47, 127
2, 576103, Note_on_c, 10, 45, 127
2, 576301, Note_off_c, 10, 45, 127
2, 576303, Note_on_c, 12, 47, 127
2, 576499, Note_off_c, 12, 47, 127
2, 576502, Note_on_c, 0, 48, 127
2, 576684, Note_off_c, 0, 48, 127
2, 576701, Note_on_c, 12, 47, 127
2, 576899, Note_off_c, 12, 47, 127
2, 576901, Note_on_c, 0, 48, 127
2, 577097, Note_off_c, 0, 48, 127
2, 577100, Note_on_c, 2, 50, 127
2, 577282, Note_off_c, 2, 50, 127
2, 577299, Note_on_c, 0, 48, 127
2, 577497, Note_off_c, 0, 48, 127
2, 577499, Note_on_c, 2, 50, 127
2, 577695, Note_off_c, 2, 50, 127
2, 577698, Note_on_c, 4, 52, 127
2, 577880, Note_off_c, 4, 52, 127
2, 577897, Note_on_c, 2, 50, 127
2, 578095, Note_off_c, 2, 50, 127
2, 578097, Note_on_c, 4, 52, 127
2, 578293, Note_off_c, 4, 52, 127
2, 578296, Note_on_c, 5, 53, 127
2, 578478, Note_off_c, 5, 53, 127
2, 578495, Note_on_c, 4, 52, 127
2, 578693, Note_off_c, 4, 52, 127
2, 578695, Note_on_c, 2, 50, 127
2, 578792, Note_off_c, 2, 50, 127
2, 578795, Note_on_c, 0, 48, 127
2, 578893, Note_off_c, 0, 48, 127
2, 578895, Note_on_c, 2, 50, 127
2, 578990, Note_off_c, 2, 50, 127
2, 578995, Note_on_c, 12, 47, 127
2, 579093, Note_off_c, 12, 47, 127
2, 579095, Note_on_c, 10, 57, 127
2, 579095, Note_on_c, 0, 48, 127
2, 579293, Note_off_c, 0, 48, 127
2, 579293, Note_off_c, 10, 57, 127
2, 579295, Note_on_c, 4, 52, 127
2, 579295, Note_on_c, 12, 47, 127
2, 579491, Note_off_c, 12, 47, 127
2, 579491, Note_off_c, 4, 52, 127
2, 579494, Note_on_c, 6, 54, 127
2, 579494, Note_on_c, 10, 45, 127
2, 579676, Note_off_c, 10, 45, 127
2, 579676, Note_off_c, 6, 54, 127
2, 579693, Note_on_c, 7, 55, 127
2, 579693, Note_on_c, 12, 47, 127
2, 579891, Note_off_c, 12, 47, 127
2, 579891, Note_off_c, 7, 55, 127
2, 579893, Note_on_c, 10, 57, 127
2, 579893, Note_on_c, 10, 45, 127
2, 580089, Note_off_c, 10, 45, 127
2, 580089, Note_off_c, 10, 57, 127
2, 580092, Note_on_c, 12, 59, 127
2, 580092, Note_on_c, 7, 43, 127
2, 580274, Note_off_c, 7, 43, 127
2, 580274, Note_off_c, 12, 59, 127
2, 580291, Note_on_c, 3, 51, 127
2, 580291, Note_on_c, 10, 45, 127
2, 580489, Note_off_c, 10, 45, 127
2, 580489, Note_off_c, 3, 51, 127
2, 580491, Note_on_c, 4, 52, 127
2, 580491, Note_on_c, 7, 43, 127
2, 580687, Note_off_c, 7, 43, 127
2, 580687, Note_off_c, 4, 52, 127
2, 580690, Note_on_c, 6, 54, 127
2, 580690, Note_on_c, 6, 42, 127
2, 580872, Note_off_c, 6, 42, 127
2, 580872, Note_off_c, 6, 54, 127
2, 580889, Note_on_c, 4, 52, 127
2, 580889, Note_on_c, 7, 43, 127
2, 581087, Note_off_c, 4, 52, 127
2, 581089, Note_on_c, 12, 59, 127
2, 581187, Note_off_c, 7, 43, 127
2, 581189, Note_on_c, 10, 45, 127
2, 581286, Note_off_c, 12, 59, 127
2, 581288, Note_off_c, 10, 45, 127
2, 581290, Note_on_c, 12, 47, 127
2, 581290, Note_on_c, 7, 43, 127
2, 581385, Note_off_c, 7, 43, 127
2, 581390, Note_on_c, 6, 42, 127
2, 581473, Note_off_c, 12, 47, 127
2, 581489, Note_off_c, 6, 42, 127
2, 581491, Note_on_c, 12, 47, 127
2, 581491, Note_on_c, 7, 43, 127
2, 581689, Note_off_c, 12, 47, 127
2, 581691, Note_on_c, 1, 49, 127
2, 581887, Note_off_c, 1, 49, 127
2, 581889, Note_off_c, 7, 43, 127
2, 581891, Note_on_c, 2, 50, 127
2, 581891, Note_on_c, 8, 44, 127
2, 582073, Note_off_c, 8, 44, 127
2, 582073, Note_off_c, 2, 50, 127
2, 582090, Note_on_c, 1, 49, 127
2, 582090, Note_on_c, 10, 45, 127
2, 582288, Note_off_c, 1, 49, 127
2, 582290, Note_on_c, 3, 51, 127
2, 582486, Note_off_c, 3, 51, 127
2, 582488, Note_off_c, 10, 45, 127
2, 582490, Note_on_c, 4, 52, 127
2, 582490, Note_on_c, 11, 46, 127
2, 582672, Note_off_c, 11, 46, 127
2, 582672, Note_off_c, 4, 52, 127
2, 582689, Note_on_c, 3, 51, 127
2, 582689, Note_on_c, 12, 47, 127
2, 582887, Note_off_c, 3, 51, 127
2, 582889, Note_on_c, 4, 52, 127
2, 583085, Note_off_c, 4, 52, 127
2, 583087, Note_off_c, 12, 47, 127
2, 583089, Note_on_c, 6, 54, 127
2, 583089, Note_on_c, 10, 45, 127
2, 583184, Note_off_c, 10, 45, 127
2, 583189, Note_on_c, 12, 47, 127
2, 583272, Note_off_c, 6, 54, 127
2, 583288, Note_off_c, 12, 47, 127
2, 583290, Note_on_c, 4, 52, 127
2, 583290, Note_on_c, 0, 48, 127
2, 583488, Note_off_c, 4, 52, 127
2, 583490, Note_on_c, 6, 54, 127
2, 583686, Note_off_c, 6, 54, 127
2, 583688, Note_off_c, 0, 48, 127
2, 583690, Note_on_c, 7, 55, 127
2, 583690, Note_on_c, 1, 49, 127
2, 583872, Note_off_c, 1, 49, 127
2, 583872, Note_off_c, 7, 55, 127
2, 583889, Note_on_c, 6, 54, 127
2, 583889, Note_on_c, 2, 50, 127
2, 584087, Note_off_c, 6, 54, 127
2, 584089, Note_on_c, 7, 55, 127
2, 584285, Note_off_c, 7, 55, 127
2, 584287, Note_off_c, 2, 50, 127
2, 584289, Note_on_c, 10, 57, 127
2, 584289, Note_on_c, 3, 51, 127
2, 584471, Note_off_c, 3, 51, 127
2, 584471, Note_off_c, 10, 57, 127
2, 584488, Note_on_c, 7, 55, 127
2, 584488, Note_on_c, 4, 52, 127
2, 584686, Note_off_c, 7, 55, 127
2, 584688, Note_on_c, 10, 57, 127
2, 584884, Note_off_c, 10, 57, 127
2, 584886, Note_off_c, 4, 52, 127
2, 584888, Note_on_c, 12, 59, 127
2, 584888, Note_on_c, 2, 50, 127
2, 584983, Note_off_c, 2, 50, 127
2, 584988, Note_on_c, 4, 52, 127
2, 585071, Note_off_c, 12, 59, 127
2, 585087, Note_off_c, 4, 52, 127
2, 585089, Note_on_c, 10, 57, 127
2, 585089, Note_on_c, 6, 54, 127
2, 585287, Note_off_c, 10, 57, 127
2, 585289, Note_on_c, 12, 59, 127
2, 585485, Note_off_c, 12, 59, 127
2, 585487, Note_off_c, 6, 54, 127
2, 585489, Note_on_c, 0, 60, 127
2, 585489, Note_on_c, 4, 52, 127
2, 585671, Note_off_c, 4, 52, 127
2, 585671, Note_off_c, 0, 60, 127
2, 585688, Note_on_c, 12, 59, 127
2, 585688, Note_on_c, 3, 51, 127
2, 585886, Note_off_c, 3, 51, 127
2, 585886, Note_off_c, 12, 59, 127
2, 585888, Note_on_c, 10, 57, 127
2, 585888, Note_on_c, 1, 49, 127
2, 585985, Note_off_c, 10, 57, 127
2, 585988, Note_on_c, 7, 55, 127
2, 586085, Note_off_c, 1, 49, 127
2, 586087, Note_off_c, 7, 55, 127
2, 586089, Note_on_c, 10, 57, 127
2, 586089, Note_on_c, 12, 47, 127
2, 586184, Note_off_c, 10, 57, 127
2, 586189, Note_on_c, 6, 54, 127
2, 586272, Note_off_c, 12, 47, 127
2, 586288, Note_off_c, 6, 54, 127
2, 586290, Note_on_c, 7, 55, 127
2, 586290, Note_on_c, 4, 52, 127
2, 586488, Note_off_c, 7, 55, 127
2, 586490, Note_on_c, 10, 57, 127
2, 586587, Note_off_c, 10, 57, 127
2, 586590, Note_on_c, 12, 59, 127
2, 586688, Note_off_c, 12, 59, 127
2, 586690, Note_on_c, 0, 60, 127
2, 586888, Note_off_c, 4, 52, 127
2, 586890, Note_on_c, 2, 50, 127
2, 587088, Note_off_c, 2, 50, 127
2, 587090, Note_on_c, 4, 52, 127
2, 587187, Note_off_c, 4, 52, 127
2, 587190, Note_on_c, 5, 53, 127
2, 587285, Note_off_c, 0, 60, 127
2, 587288, Note_off_c, 5, 53, 127
2, 587290, Note_on_c, 12, 59, 127
2, 587290, Note_on_c, 7, 55, 127
2, 587472, Note_off_c, 12, 59, 127
2, 587489, Note_on_c, 10, 57, 127
2, 587687, Note_off_c, 10, 57, 127
2, 587689, Note_on_c, 12, 59, 127
2, 587786, Note_off_c, 12, 59, 127
2, 587789, Note_on_c, 0, 60, 127
2, 587884, Note_off_c, 7, 55, 127
2, 587887, Note_off_c, 0, 60, 127
2, 587889, Note_on_c, 2, 62, 127
2, 587889, Note_on_c, 5, 53, 127
2, 588071, Note_off_c, 5, 53, 127
2, 588088, Note_on_c, 4, 52, 127
2, 588286, Note_off_c, 4, 52, 127
2, 588288, Note_on_c, 5, 53, 127
2, 588385, Note_off_c, 5, 53, 127
2, 588388, Note_on_c, 7, 55, 127
2, 588483, Note_off_c, 2, 62, 127
2, 588486, Note_off_c, 7, 55, 127
2, 588488, Note_on_c, 0, 60, 127
2, 588488, Note_on_c, 10, 57, 127
2, 588583, Note_off_c, 0, 60, 127
2, 588588, Note_on_c, 2, 62, 127
2, 588688, Note_on_c, 4, 64, 127
2, 588883, Note_off_c, 10, 57, 127
2, 588886, Note_off_c, 4, 64, 127
2, 588888, Note_on_c, 10, 57, 127
2, 588888, Note_on_c, 0, 48, 127
2, 589084, Note_off_c, 0, 48, 127
2, 589084, Note_off_c, 10, 57, 127
2, 589086, Note_off_c, 2, 62, 127
2, 589088, Note_on_c, 12, 59, 127
2, 589088, Note_on_c, 8, 56, 127
2, 589088, Note_on_c, 4, 52, 127
2, 589270, Note_off_c, 4, 52, 127
2, 589270, Note_off_c, 8, 56, 127
2, 589270, Note_off_c, 12, 59, 127
2, 589287, Note_on_c, 0, 60, 127
2, 589287, Note_on_c, 10, 57, 127
2, 589287, Note_on_c, 10, 45, 127
2, 589485, Note_off_c, 10, 45, 127
2, 589485, Note_off_c, 0, 60, 127
2, 589487, Note_on_c, 2, 62, 127
2, 589487, Note_on_c, 12, 47, 127
2, 589683, Note_off_c, 12, 47, 127
2, 589683, Note_off_c, 2, 62, 127
2, 589686, Note_on_c, 4, 64, 127
2, 589686, Note_on_c, 0, 48, 127
2, 589868, Note_off_c, 0, 48, 127
2, 589868, Note_off_c, 4, 64, 127
2, 589884, Note_off_c, 10, 57, 127
2, 589886, Note_on_c, 8, 56, 127
2, 589886, Note_on_c, 2, 50, 127
2, 589886, Note_on_c, 12, 47, 127
2, 590084, Note_off_c, 12, 47, 127
2, 590084, Note_off_c, 8, 56, 127
2, 590086, Note_on_c, 10, 57, 127
2, 590086, Note_on_c, 10, 45, 127
2, 590282, Note_off_c, 10, 45, 127
2, 590282, Note_off_c, 10, 57, 127
2, 590285, Note_on_c, 12, 59, 127
2, 590285, Note_on_c, 8, 44, 127
2, 590467, Note_off_c, 8, 44, 127
2, 590467, Note_off_c, 12, 59, 127
2, 590484, Note_on_c, 10, 57, 127
2, 590484, Note_on_c, 10, 45, 127
2, 590682, Note_off_c, 10, 57, 127
2, 590684, Note_on_c, 4, 64, 127
2, 590782, Note_off_c, 2, 50, 127
2, 590784, Note_on_c, 2, 50, 127
2, 590881, Note_off_c, 4, 64, 127
2, 590883, Note_off_c, 2, 50, 127
2, 590885, Note_on_c, 4, 52, 127
2, 590885, Note_on_c, 0, 48, 127
2, 590980, Note_off_c, 0, 48, 127
2, 590985, Note_on_c, 12, 47, 127
2, 591068, Note_off_c, 4, 52, 127
2, 591084, Note_off_c, 12, 47, 127
2, 591086, Note_on_c, 4, 52, 127
2, 591086, Note_on_c, 0, 48, 127
2, 591284, Note_off_c, 4, 52, 127
2, 591286, Note_on_c, 6, 54, 127
2, 591482, Note_off_c, 6, 54, 127
2, 591484, Note_off_c, 0, 48, 127
2, 591484, Note_off_c, 10, 45, 127
2, 591486, Note_on_c, 7, 55, 127
2, 591486, Note_on_c, 1, 49, 127
2, 591486, Note_on_c, 10, 45, 127
2, 591668, Note_off_c, 10, 45, 127
2, 591668, Note_off_c, 1, 49, 127
2, 591668, Note_off_c, 7, 55, 127
2, 591685, Note_on_c, 6, 54, 127
2, 591685, Note_on_c, 2, 50, 127
2, 591685, Note_on_c, 2, 38, 127
2, 591883, Note_off_c, 6, 54, 127
2, 591885, Note_on_c, 8, 56, 127
2, 592081, Note_off_c, 8, 56, 127
2, 592083, Note_off_c, 2, 38, 127
2, 592083, Note_off_c, 2, 50, 127
2, 592085, Note_on_c, 10, 57, 127
2, 592085, Note_on_c, 3, 51, 127
2, 592085, Note_on_c, 12, 47, 127
2, 592267, Note_off_c, 12, 47, 127
2, 592267, Note_off_c, 3, 51, 127
2, 592267, Note_off_c, 10, 57, 127
2, 592284, Note_on_c, 8, 56, 127
2, 592284, Note_on_c, 4, 52, 127
2, 592284, Note_on_c, 4, 40, 127
2, 592482, Note_off_c, 4, 52, 127
2, 592482, Note_off_c, 8, 56, 127
2, 592484, Note_on_c, 10, 57, 127
2, 592484, Note_on_c, 6, 54, 127
2, 592680, Note_off_c, 6, 54, 127
2, 592680, Note_off_c, 10, 57, 127
2, 592682, Note_off_c, 4, 40, 127
2, 592684, Note_on_c, 12, 59, 127
2, 592684, Note_on_c, 7, 55, 127
2, 592684, Note_on_c, 4, 40, 127
2, 592866, Note_off_c, 4, 40, 127
2, 592866, Note_off_c, 12, 59, 127
2, 592883, Note_on_c, 10, 57, 127
2, 592883, Note_on_c, 6, 42, 127
2, 593081, Note_off_c, 6, 42, 127
2, 593081, Note_off_c, 10, 57, 127
2, 593083, Note_on_c, 12, 59, 127
2, 593083, Note_on_c, 4, 40, 127
2, 593278, Note_off_c, 7, 55, 127
2, 593280, Note_off_c, 4, 40, 127
2, 593280, Note_off_c, 12, 59, 127
2, 593283, Note_on_c, 0, 60, 127
2, 593283, Note_on_c, 6, 54, 127
2, 593283, Note_on_c, 2, 38, 127
2, 593465, Note_off_c, 2, 38, 127
2, 593465, Note_off_c, 6, 54, 127
2, 593465, Note_off_c, 0, 60, 127
2, 593482, Note_on_c, 12, 59, 127
2, 593482, Note_on_c, 7, 55, 127
2, 593482, Note_on_c, 7, 43, 127
2, 593680, Note_off_c, 7, 43, 127
2, 593680, Note_off_c, 12, 59, 127
2, 593682, Note_on_c, 0, 60, 127
2, 593682, Note_on_c, 5, 41, 127
2, 593878, Note_off_c, 5, 41, 127
2, 593878, Note_off_c, 0, 60, 127
2, 593880, Note_off_c, 7, 55, 127
2, 593882, Note_on_c, 2, 62, 127
2, 593882, Note_on_c, 8, 56, 127
2, 593882, Note_on_c, 4, 40, 127
2, 594064, Note_off_c, 4, 40, 127
2, 594064, Note_off_c, 8, 56, 127
2, 594064, Note_off_c, 2, 62, 127
2, 594081, Note_on_c, 0, 60, 127
2, 594081, Note_on_c, 10, 57, 127
2, 594081, Note_on_c, 10, 45, 127
2, 594279, Note_off_c, 10, 45, 127
2, 594279, Note_off_c, 0, 60, 127
2, 594281, Note_on_c, 2, 62, 127
2, 594281, Note_on_c, 12, 47, 127
2, 594477, Note_off_c, 12, 47, 127
2, 594477, Note_off_c, 2, 62, 127
2, 594480, Note_on_c, 4, 64, 127
2, 594480, Note_on_c, 0, 48, 127
2, 594662, Note_off_c, 0, 48, 127
2, 594662, Note_off_c, 4, 64, 127
2, 594679, Note_on_c, 2, 62, 127
2, 594679, Note_on_c, 12, 47, 127
2, 594877, Note_off_c, 12, 47, 127
2, 594877, Note_off_c, 2, 62, 127
2, 594879, Note_on_c, 4, 64, 127
2, 594879, Note_on_c, 0, 48, 127
2, 595075, Note_off_c, 0, 48, 127
2, 595075, Note_off_c, 4, 64, 127
2, 595078, Note_on_c, 5, 65, 127
2, 595078, Note_on_c, 2, 50, 127
2, 595260, Note_off_c, 2, 50, 127
2, 595260, Note_off_c, 5, 65, 127
2, 595277, Note_on_c, 4, 64, 127
2, 595277, Note_on_c, 0, 48, 127
2, 595475, Note_off_c, 0, 48, 127
2, 595475, Note_off_c, 4, 64, 127
2, 595477, Note_on_c, 2, 62, 127
2, 595477, Note_on_c, 2, 50, 127
2, 595574, Note_off_c, 2, 62, 127
2, 595577, Note_on_c, 0, 60, 127
2, 595674, Note_off_c, 2, 50, 127
2, 595676, Note_off_c, 0, 60, 127
2, 595676, Note_off_c, 10, 57, 127
2, 595678, Note_on_c, 2, 62, 127
2, 595678, Note_on_c, 8, 56, 127
2, 595678, Note_on_c, 4, 52, 127
2, 595773, Note_off_c, 2, 62, 127
2, 595778, Note_on_c, 12, 59, 127
2, 595861, Note_off_c, 4, 52, 127
2, 595861, Note_off_c, 8, 56, 127
2, 595877, Note_off_c, 12, 59, 127
2, 595879, Note_on_c, 10, 69, 127
2, 595879, Note_on_c, 0, 60, 127
2, 595879, Note_on_c, 10, 57, 127
2, 595879, Note_on_c, 10, 45, 127
2, 596077, Note_off_c, 10, 69, 127
2, 596079, Note_on_c, 4, 64, 127
2, 596275, Note_off_c, 4, 64, 127
2, 596278, Note_on_c, 6, 66, 127
2, 596460, Note_off_c, 6, 66, 127
2, 596476, Note_off_c, 10, 45, 127
2, 596476, Note_off_c, 10, 57, 127
2, 596476, Note_off_c, 0, 60, 127
2, 596478, Note_on_c, 7, 67, 127
2, 596478, Note_on_c, 12, 59, 127
2, 596478, Note_on_c, 7, 55, 127
2, 596478, Note_on_c, 4, 52, 127
2, 596676, Note_off_c, 7, 55, 127
2, 596676, Note_off_c, 12, 59, 127
2, 596676, Note_off_c, 7, 67, 127
2, 596678, Note_on_c, 10, 69, 127
2, 596678, Note_on_c, 10, 57, 127
2, 596678, Note_on_c, 6, 54, 127
2, 596874, Note_off_c, 6, 54, 127
2, 596874, Note_off_c, 10, 57, 127
2, 596874, Note_off_c, 10, 69, 127
2, 596876, Note_off_c, 4, 52, 127
2, 596878, Note_on_c, 12, 71, 127
2, 596878, Note_on_c, 7, 55, 127
2, 596878, Note_on_c, 4, 52, 127
2, 597060, Note_off_c, 4, 52, 127
2, 597060, Note_off_c, 7, 55, 127
2, 597060, Note_off_c, 12, 71, 127
2, 597077, Note_on_c, 3, 63, 127
2, 597077, Note_on_c, 10, 57, 127
2, 597077, Note_on_c, 6, 54, 127
2, 597077, Note_on_c, 12, 47, 127
2, 597275, Note_off_c, 6, 54, 127
2, 597275, Note_off_c, 10, 57, 127
2, 597275, Note_off_c, 3, 63, 127
2, 597277, Note_on_c, 4, 64, 127
2, 597277, Note_on_c, 7, 55, 127
2, 597277, Note_on_c, 4, 52, 127
2, 597473, Note_off_c, 4, 52, 127
2, 597473, Note_off_c, 7, 55, 127
2, 597473, Note_off_c, 4, 64, 127
2, 597475, Note_off_c, 12, 47, 127
2, 597477, Note_on_c, 6, 66, 127
2, 597477, Note_on_c, 6, 54, 127
2, 597477, Note_on_c, 3, 51, 127
2, 597477, Note_on_c, 10, 45, 127
2, 597659, Note_off_c, 10, 45, 127
2, 597659, Note_off_c, 3, 51, 127
2, 597659, Note_off_c, 6, 54, 127
2, 597659, Note_off_c, 6, 66, 127
2, 597676, Note_on_c, 4, 64, 127
2, 597676, Note_on_c, 7, 55, 127
2, 597676, Note_on_c, 4, 52, 127
2, 597676, Note_on_c, 7, 43, 127
2, 597874, Note_off_c, 7, 55, 127
2, 597874, Note_off_c, 4, 64, 127
2, 597876, Note_on_c, 12, 71, 127
2, 597974, Note_off_c, 7, 43, 127
2, 597976, Note_on_c, 10, 45, 127
2, 598073, Note_off_c, 12, 71, 127
2, 598075, Note_off_c, 10, 45, 127
2, 598077, Note_on_c, 12, 59, 127
2, 598077, Note_on_c, 7, 43, 127
2, 598172, Note_off_c, 7, 43, 127
2, 598177, Note_on_c, 6, 42, 127
2, 598260, Note_off_c, 12, 59, 127
2, 598271, Note_off_c, 4, 52, 127
2, 598276, Note_off_c, 6, 42, 127
2, 598278, Note_on_c, 12, 59, 127
2, 598278, Note_on_c, 4, 40, 127
2, 598476, Note_off_c, 12, 59, 127
2, 598478, Note_on_c, 1, 61, 127
2, 598674, Note_off_c, 1, 61, 127
2, 598676, Note_off_c, 4, 40, 127
2, 598678, Note_on_c, 2, 62, 127
2, 598678, Note_on_c, 8, 56, 127
2, 598678, Note_on_c, 4, 52, 127
2, 598860, Note_off_c, 4, 52, 127
2, 598860, Note_off_c, 8, 56, 127
2, 598860, Note_off_c, 2, 62, 127
2, 598877, Note_on_c, 1, 61, 127
2, 598877, Note_on_c, 10, 57, 127
2, 599075, Note_off_c, 1, 61, 127
2, 599077, Note_on_c, 2, 62, 127
2, 599077, Note_on_c, 7, 55, 127
2, 599273, Note_off_c, 7, 55, 127
2, 599273, Note_off_c, 2, 62, 127
2, 599275, Note_off_c, 10, 57, 127
2, 599277, Note_on_c, 4, 64, 127
2, 599277, Note_on_c, 11, 58, 127
2, 599277, Note_on_c, 6, 54, 127
2, 599459, Note_off_c, 6, 54, 127
2, 599459, Note_off_c, 11, 58, 127
2, 599459, Note_off_c, 4, 64, 127
2, 599476, Note_on_c, 3, 63, 127
2, 599476, Note_on_c, 12, 59, 127
2, 599674, Note_off_c, 3, 63, 127
2, 599676, Note_on_c, 4, 64, 127
2, 599872, Note_off_c, 4, 64, 127
2, 599874, Note_off_c, 12, 59, 127
2, 599876, Note_on_c, 6, 66, 127
2, 599876, Note_on_c, 10, 57, 127
2, 599876, Note_on_c, 12, 47, 127
2, 600058, Note_off_c, 12, 47, 127
2, 600058, Note_off_c, 10, 57, 127
2, 600058, Note_off_c, 6, 66, 127
2, 600075, Note_on_c, 4, 64, 127
2, 600075, Note_on_c, 7, 55, 127
2, 600075, Note_on_c, 0, 48, 127
2, 600273, Note_off_c, 7, 55, 127
2, 600273, Note_off_c, 4, 64, 127
2, 600275, Note_on_c, 6, 66, 127
2, 600275, Note_on_c, 6, 54, 127
2, 600471, Note_off_c, 6, 54, 127
2, 600471, Note_off_c, 6, 66, 127
2, 600473, Note_off_c, 0, 48, 127
2, 600475, Note_on_c, 7, 67, 127
2, 600475, Note_on_c, 4, 52, 127
2, 600475, Note_on_c, 1, 49, 127
2, 600657, Note_off_c, 1, 49, 127
2, 600657, Note_off_c, 4, 52, 127
2, 600657, Note_off_c, 7, 67, 127
2, 600674, Note_on_c, 6, 66, 127
2, 600674, Note_on_c, 10, 57, 127
2, 600674, Note_on_c, 2, 50, 127
2, 600872, Note_off_c, 10, 57, 127
2, 600872, Note_off_c, 6, 66, 127
2, 600874, Note_on_c, 7, 67, 127
2, 600874, Note_on_c, 7, 55, 127
2, 601070, Note_off_c, 7, 55, 127
2, 601070, Note_off_c, 7, 67, 127
2, 601072, Note_off_c, 2, 50, 127
2, 601074, Note_on_c, 10, 69, 127
2, 601074, Note_on_c, 6, 54, 127
2, 601074, Note_on_c, 3, 51, 127
2, 601256, Note_off_c, 3, 51, 127
2, 601256, Note_off_c, 6, 54, 127
2, 601256, Note_off_c, 10, 69, 127
2, 601273, Note_on_c, 7, 67, 127
2, 601273, Note_on_c, 12, 59, 127
2, 601273, Note_on_c, 4, 52, 127
2, 601471, Note_off_c, 12, 59, 127
2, 601471, Note_off_c, 7, 67, 127
2, 601473, Note_on_c, 10, 69, 127
2, 601473, Note_on_c, 10, 57, 127
2, 601669, Note_off_c, 10, 57, 127
2, 601669, Note_off_c, 10, 69, 127
2, 601672, Note_on_c, 12, 71, 127
2, 601672, Note_on_c, 7, 55, 127
2, 601854, Note_off_c, 7, 55, 127
2, 601854, Note_off_c, 12, 71, 127
2, 601871, Note_on_c, 10, 69, 127
2, 601871, Note_on_c, 6, 54, 127
2, 602069, Note_off_c, 10, 69, 127
2, 602071, Note_on_c, 12, 71, 127
2, 602267, Note_off_c, 12, 71, 127
2, 602270, Note_on_c, 0, 72, 127
2, 602452, Note_off_c, 0, 72, 127
2, 602468, Note_off_c, 4, 52, 127
2, 602470, Note_on_c, 12, 71, 127
2, 602470, Note_on_c, 3, 51, 127
2, 602668, Note_off_c, 12, 71, 127
2, 602668, Note_off_c, 6, 54, 127
2, 602670, Note_on_c, 10, 69, 127
2, 602670, Note_on_c, 6, 54, 127
2, 602767, Note_off_c, 10, 69, 127
2, 602770, Note_on_c, 7, 67, 127
2, 602867, Note_off_c, 6, 54, 127
2, 602869, Note_off_c, 7, 67, 127
2, 602871, Note_on_c, 10, 69, 127
2, 602871, Note_on_c, 12, 59, 127
2, 602966, Note_off_c, 10, 69, 127
2, 602971, Note_on_c, 6, 66, 127
2, 603054, Note_off_c, 12, 59, 127
2, 603070, Note_off_c, 6, 66, 127
2, 603070, Note_off_c, 3, 51, 127
2, 603072, Note_on_c, 7, 67, 127
2, 603072, Note_on_c, 4, 64, 127
2, 603072, Note_on_c, 4, 52, 127
2, 603270, Note_off_c, 4, 64, 127
2, 603272, Note_on_c, 2, 62, 127
2, 603369, Note_off_c, 2, 62, 127
2, 603372, Note_on_c, 0, 60, 127
2, 603470, Note_off_c, 0, 60, 127
2, 603470, Note_off_c, 7, 67, 127
2, 603472, Note_on_c, 8, 68, 127
2, 603472, Note_on_c, 2, 62, 127
2, 603567, Note_off_c, 2, 62, 127
2, 603572, Note_on_c, 12, 59, 127
2, 603655, Note_off_c, 8, 68, 127
2, 603671, Note_off_c, 12, 59, 127
2, 603671, Note_off_c, 4, 52, 127
2, 603673, Note_on_c, 10, 69, 127
2, 603673, Note_on_c, 0, 60, 127
2, 603673, Note_on_c, 10, 57, 127
2, 603871, Note_off_c, 10, 57, 127
2, 603873, Note_on_c, 7, 55, 127
2, 603970, Note_off_c, 7, 55, 127
2, 603973, Note_on_c, 5, 53, 127
2, 604071, Note_off_c, 5, 53, 127
2, 604071, Note_off_c, 0, 60, 127
2, 604073, Note_on_c, 1, 61, 127
2, 604073, Note_on_c, 7, 55, 127
2, 604168, Note_off_c, 7, 55, 127
2, 604173, Note_on_c, 4, 52, 127
2, 604256, Note_off_c, 1, 61, 127
2, 604272, Note_off_c, 4, 52, 127
2, 604274, Note_on_c, 2, 62, 127
2, 604274, Note_on_c, 5, 53, 127
2, 604472, Note_off_c, 5, 53, 127
2, 604472, Note_off_c, 10, 69, 127
2, 604474, Note_on_c, 7, 67, 127
2, 604474, Note_on_c, 4, 52, 127
2, 604571, Note_off_c, 4, 52, 127
2, 604571, Note_off_c, 7, 67, 127
2, 604574, Note_on_c, 5, 65, 127
2, 604574, Note_on_c, 2, 50, 127
2, 604672, Note_off_c, 2, 50, 127
2, 604672, Note_off_c, 5, 65, 127
2, 604672, Note_off_c, 2, 62, 127
2, 604674, Note_on_c, 7, 67, 127
2, 604674, Note_on_c, 4, 52, 127
2, 604769, Note_off_c, 4, 52, 127
2, 604769, Note_off_c, 7, 67, 127
2, 604774, Note_on_c, 4, 64, 127
2, 604774, Note_on_c, 1, 49, 127
2, 604872, Note_off_c, 1, 49, 127
2, 604872, Note_off_c, 4, 64, 127
2, 604874, Note_on_c, 5, 65, 127
2, 604874, Note_on_c, 2, 62, 127
2, 604874, Note_on_c, 2, 50, 127
2, 605072, Note_off_c, 2, 50, 127
2, 605072, Note_off_c, 2, 62, 127
2, 605074, Note_on_c, 0, 60, 127
2, 605074, Note_on_c, 4, 52, 127
2, 605171, Note_off_c, 0, 60, 127
2, 605174, Note_on_c, 12, 59, 127
2, 605271, Note_off_c, 4, 52, 127
2, 605273, Note_off_c, 12, 59, 127
2, 605273, Note_off_c, 5, 65, 127
2, 605275, Note_on_c, 0, 60, 127
2, 605275, Note_on_c, 6, 54, 127
2, 605370, Note_off_c, 0, 60, 127
2, 605375, Note_on_c, 10, 57, 127
2, 605458, Note_off_c, 6, 54, 127
2, 605474, Note_off_c, 10, 57, 127
2, 605476, Note_on_c, 12, 71, 127
2, 605476, Note_on_c, 12, 59, 127
2, 605476, Note_on_c, 7, 55, 127
2, 605674, Note_off_c, 12, 59, 127
2, 605674, Note_off_c, 12, 71, 127
2, 605676, Note_on_c, 10, 69, 127
2, 605676, Note_on_c, 1, 61, 127
2, 605773, Note_off_c, 10, 69, 127
2, 605776, Note_on_c, 7, 67, 127
2, 605873, Note_off_c, 1, 61, 127
2, 605875, Note_off_c, 7, 67, 127
2, 605875, Note_off_c, 7, 55, 127
2, 605877, Note_on_c, 10, 69, 127
2, 605877, Note_on_c, 3, 63, 127
2, 605877, Note_on_c, 6, 54, 127
2, 605972, Note_off_c, 10, 69, 127
2, 605977, Note_on_c, 6, 66, 127
2, 606060, Note_off_c, 6, 54, 127
2, 606060, Note_off_c, 3, 63, 127
2, 606076, Note_off_c, 6, 66, 127
2, 606078, Note_on_c, 7, 67, 127
2, 606078, Note_on_c, 4, 64, 127
2, 606078, Note_on_c, 4, 52, 127
2, 606276, Note_off_c, 4, 52, 127
2, 606276, Note_off_c, 7, 67, 127
2, 606278, Note_on_c, 0, 72, 127
2, 606278, Note_on_c, 4, 52, 127
2, 606375, Note_off_c, 4, 52, 127
2, 606378, Note_on_c, 2, 50, 127
2, 606475, Note_off_c, 0, 72, 127
2, 606477, Note_off_c, 2, 50, 127
2, 606477, Note_off_c, 4, 64, 127
2, 606479, Note_on_c, 12, 71, 127
2, 606479, Note_on_c, 4, 52, 127
2, 606574, Note_off_c, 4, 52, 127
2, 606579, Note_on_c, 0, 48, 127
2, 606662, Note_off_c, 12, 71, 127
2, 606678, Note_off_c, 0, 48, 127
2, 606680, Note_on_c, 10, 69, 127
2, 606680, Note_on_c, 5, 53, 127
2, 606878, Note_off_c, 5, 53, 127
2, 606878, Note_off_c, 10, 69, 127
2, 606880, Note_on_c, 2, 74, 127
2, 606880, Note_on_c, 6, 54, 127
2, 606977, Note_off_c, 6, 54, 127
2, 606980, Note_on_c, 4, 52, 127
2, 607077, Note_off_c, 2, 74, 127
2, 607079, Note_off_c, 4, 52, 127
2, 607081, Note_on_c, 0, 72, 127
2, 607081, Note_on_c, 6, 54, 127
2, 607176, Note_off_c, 6, 54, 127
2, 607181, Note_on_c, 2, 50, 127
2, 607264, Note_off_c, 0, 72, 127
2, 607280, Note_off_c, 2, 50, 127
2, 607282, Note_on_c, 12, 71, 127
2, 607282, Note_on_c, 7, 55, 127
2, 607480, Note_off_c, 7, 55, 127
2, 607480, Note_off_c, 12, 71, 127
2, 607482, Note_on_c, 4, 76, 127
2, 607482, Note_on_c, 8, 56, 127
2, 607579, Note_off_c, 8, 56, 127
2, 607582, Note_on_c, 6, 54, 127
2, 607679, Note_off_c, 4, 76, 127
2, 607681, Note_off_c, 6, 54, 127
2, 607683, Note_on_c, 2, 74, 127
2, 607683, Note_on_c, 8, 56, 127
2, 607778, Note_off_c, 8, 56, 127
2, 607783, Note_on_c, 4, 52, 127
2, 607866, Note_off_c, 2, 74, 127
2, 607882, Note_off_c, 4, 52, 127
2, 607884, Note_on_c, 0, 72, 127
2, 607884, Note_on_c, 4, 64, 127
2, 607884, Note_on_c, 10, 57, 127
2, 608082, Note_off_c, 10, 57, 127
2, 608082, Note_off_c, 4, 64, 127
2, 608084, Note_on_c, 10, 57, 127
2, 608280, Note_off_c, 10, 57, 127
2, 608282, Note_off_c, 0, 72, 127
2, 608284, Note_on_c, 12, 71, 127
2, 608284, Note_on_c, 12, 59, 127
2, 608284, Note_on_c, 7, 55, 127
2, 608466, Note_off_c, 7, 55, 127
2, 608466, Note_off_c, 12, 59, 127
2, 608466, Note_off_c, 12, 71, 127
2, 608483, Note_on_c, 10, 69, 127
2, 608483, Note_on_c, 0, 60, 127
2, 608483, Note_on_c, 5, 53, 127
2, 608681, Note_off_c, 5, 53, 127
2, 608681, Note_off_c, 0, 60, 127
2, 608681, Note_off_c, 10, 69, 127
2, 608683, Note_on_c, 12, 71, 127
2, 608683, Note_on_c, 2, 62, 127
2, 608683, Note_on_c, 4, 52, 127
2, 608780, Note_off_c, 4, 52, 127
2, 608783, Note_on_c, 2, 50, 127
2, 608880, Note_off_c, 2, 62, 127
2, 608880, Note_off_c, 12, 71, 127
2, 608882, Note_off_c, 2, 50, 127
2, 608884, Note_on_c, 0, 72, 127
2, 608884, Note_on_c, 4, 64, 127
2, 608884, Note_on_c, 0, 48, 127
2, 608979, Note_off_c, 0, 48, 127
2, 608984, Note_on_c, 2, 50, 127
2, 609067, Note_off_c, 4, 64, 127
2, 609067, Note_off_c, 0, 72, 127
2, 609083, Note_off_c, 2, 50, 127
2, 609085, Note_on_c, 12, 71, 127
2, 609085, Note_on_c, 8, 56, 127
2, 609085, Note_on_c, 4, 52, 127
2, 609283, Note_off_c, 8, 56, 127
2, 609283, Note_off_c, 12, 71, 127
2, 609285, Note_on_c, 0, 72, 127
2, 609285, Note_on_c, 10, 57, 127
2, 609481, Note_off_c, 10, 57, 127
2, 609481, Note_off_c, 0, 72, 127
2, 609484, Note_on_c, 2, 74, 127
2, 609484, Note_on_c, 12, 59, 127
2, 609666, Note_off_c, 12, 59, 127
2, 609666, Note_off_c, 2, 74, 127
2, 609682, Note_off_c, 4, 52, 127
2, 609684, Note_on_c, 0, 72, 127
2, 609684, Note_on_c, 10, 57, 127
2, 609684, Note_on_c, 10, 45, 127
2, 609882, Note_off_c, 10, 57, 127
2, 609884, Note_on_c, 4, 64, 127
2, 609982, Note_off_c, 0, 72, 127
2, 609984, Note_on_c, 2, 74, 127
2, 610081, Note_off_c, 4, 64, 127
2, 610083, Note_off_c, 2, 74, 127
2, 610085, Note_on_c, 0, 72, 127
2, 610085, Note_on_c, 4, 52, 127
2, 610180, Note_off_c, 0, 72, 127
2, 610185, Note_on_c, 12, 71, 127
2, 610268, Note_off_c, 4, 52, 127
2, 610284, Note_off_c, 12, 71, 127
2, 610284, Note_off_c, 10, 45, 127
2, 610286, Note_on_c, 10, 69, 127
2, 610286, Note_on_c, 4, 52, 127
2, 610286, Note_on_c, 0, 48, 127
2, 610484, Note_off_c, 4, 52, 127
2, 610486, Note_on_c, 6, 54, 127
2, 610682, Note_off_c, 6, 54, 127
2, 610684, Note_off_c, 0, 48, 127
2, 610686, Note_on_c, 7, 55, 127
2, 610686, Note_on_c, 1, 49, 127
2, 610868, Note_off_c, 1, 49, 127
2, 610868, Note_off_c, 7, 55, 127
2, 610885, Note_on_c, 6, 54, 127
2, 610885, Note_on_c, 2, 50, 127
2, 611083, Note_off_c, 6, 54, 127
2, 611083, Note_off_c, 10, 69, 127
2, 611085, Note_on_c, 12, 71, 127
2, 611085, Note_on_c, 8, 56, 127
2, 611281, Note_off_c, 8, 56, 127
2, 611281, Note_off_c, 12, 71, 127
2, 611283, Note_off_c, 2, 50, 127
2, 611285, Note_on_c, 0, 72, 127
2, 611285, Note_on_c, 10, 57, 127
2, 611285, Note_on_c, 3, 51, 127
2, 611467, Note_off_c, 3, 51, 127
2, 611467, Note_off_c, 10, 57, 127
2, 611467, Note_off_c, 0, 72, 127
2, 611484, Note_on_c, 12, 71, 127
2, 611484, Note_on_c, 8, 56, 127
2, 611484, Note_on_c, 4, 52, 127
2, 611682, Note_off_c, 8, 56, 127
2, 611682, Note_off_c, 12, 71, 127
2, 611684, Note_on_c, 0, 72, 127
2, 611684, Note_on_c, 10, 57, 127
2, 611880, Note_off_c, 10, 57, 127
2, 611880, Note_off_c, 0, 72, 127
2, 611883, Note_on_c, 2, 74, 127
2, 611883, Note_on_c, 12, 59, 127
2, 612065, Note_off_c, 12, 59, 127
2, 612065, Note_off_c, 2, 74, 127
2, 612081, Note_off_c, 4, 52, 127
2, 612083, Note_on_c, 0, 72, 127
2, 612083, Note_on_c, 10, 57, 127
2, 612083, Note_on_c, 5, 53, 127
2, 612281, Note_off_c, 10, 57, 127
2, 612283, Note_on_c, 12, 59, 127
2, 612479, Note_off_c, 12, 59, 127
2, 612481, Note_off_c, 5, 53, 127
2, 612481, Note_off_c, 0, 72, 127
2, 612483, Note_on_c, 2, 74, 127
2, 612483, Note_on_c, 0, 60, 127
2, 612483, Note_on_c, 6, 54, 127
2, 612665, Note_off_c, 6, 54, 127
2, 612665, Note_off_c, 0, 60, 127
2, 612682, Note_on_c, 12, 59, 127
2, 612682, Note_on_c, 7, 55, 127
2, 612877, Note_off_c, 2, 74, 127
2, 612880, Note_off_c, 12, 59, 127
2, 612882, Note_on_c, 0, 72, 127
2, 612882, Note_on_c, 0, 60, 127
2, 613078, Note_off_c, 0, 60, 127
2, 613078, Note_off_c, 0, 72, 127
2, 613080, Note_off_c, 7, 55, 127
2, 613082, Note_on_c, 12, 71, 127
2, 613082, Note_on_c, 2, 62, 127
2, 613082, Note_on_c, 8, 56, 127
2, 613264, Note_off_c, 8, 56, 127
2, 613264, Note_off_c, 2, 62, 127
2, 613264, Note_off_c, 12, 71, 127
2, 613281, Note_on_c, 4, 76, 127
2, 613281, Note_on_c, 0, 60, 127
2, 613281, Note_on_c, 10, 57, 127
2, 613479, Note_off_c, 10, 57, 127
2, 613479, Note_off_c, 0, 60, 127
2, 613479, Note_off_c, 4, 76, 127
2, 613481, Note_on_c, 2, 74, 127
2, 613481, Note_on_c, 2, 62, 127
2, 613481, Note_on_c, 12, 59, 127
2, 613578, Note_off_c, 2, 74, 127
2, 613581, Note_on_c, 0, 72, 127
2, 613678, Note_off_c, 12, 59, 127
2, 613678, Note_off_c, 2, 62, 127
2, 613680, Note_off_c, 0, 72, 127
2, 613682, Note_on_c, 12, 71, 127
2, 613682, Note_on_c, 4, 64, 127
2, 613682, Note_on_c, 0, 60, 127
2, 613777, Note_off_c, 12, 71, 127
2, 613782, Note_on_c, 10, 69, 127
2, 613865, Note_off_c, 0, 60, 127
2, 613865, Note_off_c, 4, 64, 127
2, 613881, Note_off_c, 10, 69, 127
2, 613883, Note_on_c, 8, 68, 127
2, 613883, Note_on_c, 2, 62, 127
2, 613883, Note_on_c, 12, 59, 127
2, 614081, Note_off_c, 2, 62, 127
2, 614083, Note_on_c, 4, 64, 127
2, 614279, Note_off_c, 4, 64, 127
2, 614281, Note_off_c, 12, 59, 127
2, 614281, Note_off_c, 8, 68, 127
2, 614283, Note_on_c, 10, 69, 127
2, 614283, Note_on_c, 5, 65, 127
2, 614283, Note_on_c, 10, 57, 127
2, 614465, Note_off_c, 10, 57, 127
2, 614465, Note_off_c, 5, 65, 127
2, 614465, Note_off_c, 10, 69, 127
2, 614482, Note_on_c, 12, 71, 127
2, 614482, Note_on_c, 4, 64, 127
2, 614482, Note_on_c, 8, 56, 127
2, 614680, Note_off_c, 4, 64, 127
2, 614682, Note_on_c, 2, 62, 127
2, 614779, Note_off_c, 2, 62, 127
2, 614782, Note_on_c, 0, 60, 127
2, 614880, Note_off_c, 0, 60, 127
2, 614882, Note_on_c, 2, 62, 127
2, 614977, Note_off_c, 2, 62, 127
2, 614982, Note_on_c, 12, 59, 127
2, 615080, Note_off_c, 12, 59, 127
2, 615080, Note_off_c, 8, 56, 127
2, 615082, Note_on_c, 0, 60, 127
2, 615280, Note_off_c, 0, 60, 127
2, 615280, Note_off_c, 12, 71, 127
2, 615282, Note_on_c, 10, 69, 127
2, 615282, Note_on_c, 0, 60, 127
2, 615379, Note_off_c, 0, 60, 127
2, 615382, Note_on_c, 12, 59, 127
2, 615479, Note_off_c, 10, 69, 127
2, 615481, Note_off_c, 12, 59, 127
2, 615483, Note_on_c, 7, 67, 127
2, 615483, Note_on_c, 0, 60, 127
2, 615578, Note_off_c, 0, 60, 127
2, 615583, Note_on_c, 10, 57, 127
2, 615666, Note_off_c, 7, 67, 127
2, 615682, Note_off_c, 10, 57, 127
2, 615684, Note_on_c, 6, 66, 127
2, 615684, Note_on_c, 2, 62, 127
2, 615882, Note_off_c, 2, 62, 127
2, 615882, Note_off_c, 6, 66, 127
2, 615884, Note_on_c, 6, 66, 127
2, 615884, Note_on_c, 2, 62, 127
2, 615981, Note_off_c, 6, 66, 127
2, 615984, Note_on_c, 4, 64, 127
2, 616081, Note_off_c, 2, 62, 127
2, 616083, Note_off_c, 4, 64, 127
2, 616085, Note_on_c, 6, 66, 127
2, 616085, Note_on_c, 0, 60, 127
2, 616180, Note_off_c, 6, 66, 127
2, 616185, Note_on_c, 2, 62, 127
2, 616268, Note_off_c, 0, 60, 127
2, 616284, Note_off_c, 2, 62, 127
2, 616286, Note_on_c, 7, 67, 127
2, 616286, Note_on_c, 12, 59, 127
2, 616484, Note_off_c, 12, 59, 127
2, 616484, Note_off_c, 7, 67, 127
2, 616486, Note_on_c, 8, 68, 127
2, 616486, Note_on_c, 4, 64, 127
2, 616583, Note_off_c, 8, 68, 127
2, 616586, Note_on_c, 6, 66, 127
2, 616683, Note_off_c, 4, 64, 127
2, 616685, Note_off_c, 6, 66, 127
2, 616687, Note_on_c, 8, 68, 127
2, 616687, Note_on_c, 2, 62, 127
2, 616782, Note_off_c, 8, 68, 127
2, 616787, Note_on_c, 4, 64, 127
2, 616870, Note_off_c, 2, 62, 127
2, 616886, Note_off_c, 4, 64, 127
2, 616888, Note_on_c, 10, 69, 127
2, 616888, Note_on_c, 0, 60, 127
2, 617086, Note_off_c, 10, 69, 127
2, 617088, Note_on_c, 4, 76, 127
2, 617185, Note_off_c, 4, 76, 127
2, 617188, Note_on_c, 2, 74, 127
2, 617286, Note_off_c, 2, 74, 127
2, 617286, Note_off_c, 0, 60, 127
2, 617288, Note_on_c, 4, 76, 127
2, 617288, Note_on_c, 8, 56, 127
2, 617383, Note_off_c, 4, 76, 127
2, 617388, Note_on_c, 12, 71, 127
2, 617471, Note_off_c, 8, 56, 127
2, 617487, Note_off_c, 12, 71, 127
2, 617489, Note_on_c, 1, 73, 127
2, 617489, Note_on_c, 10, 57, 127
2, 617687, Note_off_c, 10, 57, 127
2, 617687, Note_off_c, 1, 73, 127
2, 617689, Note_on_c, 5, 77, 127
2, 617689, Note_on_c, 10, 69, 127
2, 617786, Note_off_c, 10, 69, 127
2, 617789, Note_on_c, 7, 67, 127
2, 617886, Note_off_c, 5, 77, 127
2, 617888, Note_off_c, 7, 67, 127
2, 617890, Note_on_c, 4, 76, 127
2, 617890, Note_on_c, 10, 69, 127
2, 617985, Note_off_c, 10, 69, 127
2, 617990, Note_on_c, 7, 67, 127
2, 618073, Note_off_c, 4, 76, 127
2, 618089, Note_off_c, 7, 67, 127
2, 618091, Note_on_c, 3, 75, 127
2, 618091, Note_on_c, 6, 66, 127
2, 618289, Note_off_c, 6, 66, 127
2, 618289, Note_off_c, 3, 75, 127
2, 618291, Note_on_c, 7, 79, 127
2, 618291, Note_on_c, 12, 71, 127
2, 618388, Note_off_c, 12, 71, 127
2, 618391, Note_on_c, 10, 69, 127
2, 618488, Note_off_c, 7, 79, 127
2, 618490, Note_off_c, 10, 69, 127
2, 618492, Note_on_c, 6, 78, 127
2, 618492, Note_on_c, 12, 71, 127
2, 618587, Note_off_c, 12, 71, 127
2, 618592, Note_on_c, 10, 69, 127
2, 618690, Note_off_c, 10, 69, 127
2, 618692, Note_on_c, 7, 67, 127
2, 618692, Note_on_c, 12, 59, 127
2, 618887, Note_off_c, 6, 78, 127
2, 618890, Note_off_c, 12, 59, 127
2, 618892, Note_on_c, 4, 76, 127
2, 618892, Note_on_c, 4, 52, 127
2, 619088, Note_off_c, 4, 52, 127
2, 619088, Note_off_c, 4, 76, 127
2, 619090, Note_off_c, 7, 67, 127
2, 619092, Note_on_c, 3, 75, 127
2, 619092, Note_on_c, 10, 69, 127
2, 619092, Note_on_c, 6, 54, 127
2, 619274, Note_off_c, 6, 54, 127
2, 619274, Note_off_c, 10, 69, 127
2, 619274, Note_off_c, 3, 75, 127
2, 619291, Note_on_c, 4, 76, 127
2, 619291, Note_on_c, 12, 71, 127
2, 619291, Note_on_c, 7, 55, 127
2, 619489, Note_off_c, 7, 55, 127
2, 619489, Note_off_c, 4, 76, 127
2, 619491, Note_on_c, 6, 78, 127
2, 619491, Note_on_c, 10, 57, 127
2, 619687, Note_off_c, 10, 57, 127
2, 619687, Note_off_c, 6, 78, 127
2, 619690, Note_on_c, 7, 79, 127
2, 619690, Note_on_c, 12, 59, 127
2, 619872, Note_off_c, 12, 59, 127
2, 619872, Note_off_c, 7, 79, 127
2, 619889, Note_on_c, 10, 81, 127
2, 619889, Note_on_c, 3, 51, 127
2, 620087, Note_off_c, 3, 51, 127
2, 620087, Note_off_c, 12, 71, 127
2, 620089, Note_on_c, 1, 73, 127
2, 620089, Note_on_c, 4, 52, 127
2, 620285, Note_off_c, 4, 52, 127
2, 620285, Note_off_c, 1, 73, 127
2, 620288, Note_on_c, 3, 75, 127
2, 620288, Note_on_c, 6, 54, 127
2, 620470, Note_off_c, 6, 54, 127
2, 620470, Note_off_c, 3, 75, 127
2, 620487, Note_on_c, 4, 76, 127
2, 620487, Note_on_c, 4, 52, 127
2, 620685, Note_off_c, 4, 52, 127
2, 620685, Note_off_c, 10, 81, 127
2, 620687, Note_on_c, 7, 79, 127
2, 620687, Note_on_c, 12, 59, 127
2, 620784, Note_off_c, 7, 79, 127
2, 620787, Note_on_c, 6, 78, 127
2, 620884, Note_off_c, 12, 59, 127
2, 620886, Note_off_c, 6, 78, 127
2, 620888, Note_on_c, 7, 79, 127
2, 620888, Note_on_c, 12, 47, 127
2, 620983, Note_off_c, 7, 79, 127
2, 620988, Note_on_c, 10, 81, 127
2, 621071, Note_off_c, 12, 47, 127
2, 621087, Note_off_c, 10, 81, 127
2, 621087, Note_off_c, 4, 76, 127
2, 621089, Note_on_c, 6, 78, 127
2, 621089, Note_on_c, 3, 75, 127
2, 621089, Note_on_c, 12, 47, 127
2, 621287, Note_off_c, 12, 47, 127
2, 621287, Note_off_c, 3, 75, 127
2, 621289, Note_on_c, 4, 76, 127
2, 621289, Note_on_c, 1, 49, 127
2, 621485, Note_off_c, 1, 49, 127
2, 621485, Note_off_c, 4, 76, 127
2, 621487, Note_off_c, 6, 78, 127
2, 621489, Note_on_c, 12, 83, 127
2, 621489, Note_on_c, 6, 78, 127
2, 621489, Note_on_c, 3, 51, 127
2, 621671, Note_off_c, 3, 51, 127
2, 621671, Note_off_c, 6, 78, 127
2, 621671, Note_off_c, 12, 83, 127
2, 621688, Note_on_c, 11, 82, 127
2, 621688, Note_on_c, 4, 76, 127
2, 621688, Note_on_c, 1, 49, 127
2, 621886, Note_off_c, 1, 49, 127
2, 621886, Note_off_c, 4, 76, 127
2, 621888, Note_on_c, 6, 78, 127
2, 621888, Note_on_c, 3, 51, 127
2, 622084, Note_off_c, 3, 51, 127
2, 622084, Note_off_c, 6, 78, 127
2, 622087, Note_on_c, 7, 79, 127
2, 622087, Note_on_c, 4, 52, 127
2, 622269, Note_off_c, 4, 52, 127
2, 622269, Note_off_c, 7, 79, 127
2, 622285, Note_off_c, 11, 82, 127
2, 622287, Note_on_c, 10, 81, 127
2, 622287, Note_on_c, 6, 78, 127
2, 622287, Note_on_c, 3, 51, 127
2, 622485, Note_off_c, 3, 51, 127
2, 622485, Note_off_c, 6, 78, 127
2, 622487, Note_on_c, 4, 76, 127
2, 622487, Note_on_c, 4, 52, 127
2, 622683, Note_off_c, 4, 52, 127
2, 622683, Note_off_c, 4, 76, 127
2, 622686, Note_on_c, 3, 75, 127
2, 622686, Note_on_c, 6, 54, 127
2, 622868, Note_off_c, 6, 54, 127
2, 622868, Note_off_c, 3, 75, 127
2, 622884, Note_off_c, 10, 81, 127
2, 622886, Note_on_c, 7, 79, 127
2, 622886, Note_on_c, 4, 76, 127
2, 622886, Note_on_c, 4, 52, 127
2, 623084, Note_off_c, 4, 52, 127
2, 623084, Note_off_c, 4, 76, 127
2, 623084, Note_off_c, 7, 79, 127
2, 623086, Note_on_c, 6, 78, 127
2, 623086, Note_on_c, 2, 74, 127
2, 623086, Note_on_c, 6, 54, 127
2, 623282, Note_off_c, 6, 54, 127
2, 623282, Note_off_c, 2, 74, 127
2, 623282, Note_off_c, 6, 78, 127
2, 623285, Note_on_c, 4, 76, 127
2, 623285, Note_on_c, 1, 73, 127
2, 623285, Note_on_c, 7, 55, 127
2, 623467, Note_off_c, 7, 55, 127
2, 623467, Note_off_c, 1, 73, 127
2, 623467, Note_off_c, 4, 76, 127
2, 623484, Note_on_c, 10, 81, 127
2, 623484, Note_on_c, 2, 74, 127
2, 623484, Note_on_c, 6, 54, 127
2, 623682, Note_off_c, 6, 54, 127
2, 623682, Note_off_c, 10, 81, 127
2, 623684, Note_on_c, 7, 79, 127
2, 623684, Note_on_c, 7, 55, 127
2, 623880, Note_off_c, 7, 55, 127
2, 623880, Note_off_c, 7, 79, 127
2, 623882, Note_off_c, 2, 74, 127
2, 623884, Note_on_c, 6, 78, 127
2, 623884, Note_on_c, 3, 75, 127
2, 623884, Note_on_c, 10, 57, 127
2, 624066, Note_off_c, 10, 57, 127
2, 624066, Note_off_c, 3, 75, 127
2, 624066, Note_off_c, 6, 78, 127
2, 624083, Note_on_c, 12, 83, 127
2, 624083, Note_on_c, 4, 76, 127
2, 624083, Note_on_c, 7, 55, 127
2, 624281, Note_off_c, 7, 55, 127
2, 624281, Note_off_c, 12, 83, 127
2, 624283, Note_on_c, 10, 81, 127
2, 624283, Note_on_c, 10, 57, 127
2, 624479, Note_off_c, 10, 57, 127
2, 624479, Note_off_c, 10, 81, 127
2, 624482, Note_on_c, 7, 79, 127
2, 624482, Note_on_c, 12, 59, 127
2, 624664, Note_off_c, 12, 59, 127
2, 624664, Note_off_c, 7, 79, 127
2, 624681, Note_on_c, 0, 84, 127
2, 624681, Note_on_c, 10, 57, 127
2, 624879, Note_off_c, 10, 57, 127
2, 624879, Note_off_c, 0, 84, 127
2, 624881, Note_on_c, 12, 83, 127
2, 624881, Note_on_c, 12, 59, 127
2, 625077, Note_off_c, 12, 59, 127
2, 625077, Note_off_c, 12, 83, 127
2, 625080, Note_on_c, 10, 81, 127
2, 625080, Note_on_c, 0, 60, 127
2, 625262, Note_off_c, 0, 60, 127
2, 625262, Note_off_c, 10, 81, 127
2, 625279, Note_on_c, 7, 79, 127
2, 625279, Note_on_c, 12, 59, 127
2, 625477, Note_off_c, 12, 59, 127
2, 625477, Note_off_c, 7, 79, 127
2, 625479, Note_on_c, 6, 78, 127
2, 625479, Note_on_c, 10, 57, 127
2, 625576, Note_off_c, 10, 57, 127
2, 625579, Note_on_c, 7, 55, 127
2, 625677, Note_off_c, 7, 55, 127
2, 625677, Note_off_c, 4, 76, 127
2, 625679, Note_on_c, 3, 75, 127
2, 625679, Note_on_c, 10, 57, 127
2, 625774, Note_off_c, 10, 57, 127
2, 625779, Note_on_c, 6, 54, 127
2, 625862, Note_off_c, 3, 75, 127
2, 625878, Note_off_c, 6, 54, 127
2, 625880, Note_on_c, 4, 76, 127
2, 625880, Note_on_c, 7, 55, 127
2, 626076, Note_off_c, 6, 78, 127
2, 626078, Note_off_c, 7, 55, 127
2, 626079, Note_off_c, 4, 76, 127
2, 626080, Note_on_c, 4, 76, 127
2, 626080, Note_on_c, 10, 57, 127
2, 626177, Note_off_c, 10, 57, 127
2, 626180, Note_on_c, 12, 59, 127
2, 626279, Note_off_c, 12, 59, 127
2, 626279, Note_off_c, 4, 76, 127
2, 626281, Note_on_c, 4, 76, 127
2, 626281, Note_on_c, 4, 64, 127
2, 626281, Note_on_c, 0, 60, 127
2, 626463, Note_off_c, 4, 64, 127
2, 626463, Note_off_c, 4, 76, 127
2, 626480, Note_on_c, 10, 69, 127
2, 626480, Note_on_c, 6, 66, 127
2, 626678, Note_off_c, 10, 69, 127
2, 626680, Note_on_c, 12, 71, 127
2, 626777, Note_off_c, 12, 71, 127
2, 626780, Note_on_c, 0, 72, 127
2, 626875, Note_off_c, 0, 60, 127
2, 626878, Note_off_c, 0, 72, 127
2, 626878, Note_off_c, 6, 66, 127
2, 626880, Note_on_c, 2, 74, 127
2, 626880, Note_on_c, 8, 68, 127
2, 626880, Note_on_c, 12, 59, 127
2, 627062, Note_off_c, 12, 59, 127
2, 627062, Note_off_c, 8, 68, 127
2, 627062, Note_off_c, 2, 74, 127
2, 627079, Note_on_c, 0, 72, 127
2, 627079, Note_on_c, 10, 69, 127
2, 627079, Note_on_c, 10, 57, 127
2, 627277, Note_off_c, 10, 57, 127
2, 627277, Note_off_c, 0, 72, 127
2, 627279, Note_on_c, 2, 74, 127
2, 627279, Note_on_c, 12, 59, 127
2, 627376, Note_off_c, 12, 59, 127
2, 627376, Note_off_c, 2, 74, 127
2, 627379, Note_on_c, 4, 76, 127
2, 627379, Note_on_c, 0, 60, 127
2, 627477, Note_off_c, 0, 60, 127
2, 627477, Note_off_c, 4, 76, 127
2, 627479, Note_on_c, 5, 77, 127
2, 627479, Note_on_c, 2, 62, 127
2, 627661, Note_off_c, 5, 77, 127
2, 627677, Note_off_c, 10, 69, 127
2, 627679, Note_on_c, 4, 76, 127
2, 627679, Note_on_c, 8, 68, 127
2, 627877, Note_off_c, 4, 76, 127
2, 627879, Note_on_c, 6, 78, 127
2, 627976, Note_off_c, 6, 78, 127
2, 627979, Note_on_c, 8, 80, 127
2, 628074, Note_off_c, 2, 62, 127
2, 628077, Note_off_c, 8, 80, 127
2, 628077, Note_off_c, 8, 68, 127
2, 628079, Note_on_c, 10, 81, 127
2, 628079, Note_on_c, 4, 76, 127
2, 628079, Note_on_c, 0, 60, 127
2, 628261, Note_off_c, 0, 60, 127
2, 628261, Note_off_c, 4, 76, 127
2, 628261, Note_off_c, 10, 81, 127
2, 628278, Note_on_c, 7, 79, 127
2, 628278, Note_on_c, 4, 76, 127
2, 628278, Note_on_c, 12, 59, 127
2, 628278, Note_on_c, 4, 52, 127
2, 628476, Note_off_c, 4, 52, 127
2, 628476, Note_off_c, 12, 59, 127
2, 628476, Note_off_c, 7, 79, 127
2, 628478, Note_on_c, 5, 77, 127
2, 628478, Note_on_c, 0, 60, 127
2, 628478, Note_on_c, 10, 45, 127
2, 628674, Note_off_c, 10, 45, 127
2, 628674, Note_off_c, 0, 60, 127
2, 628676, Note_off_c, 4, 76, 127
2, 628678, Note_on_c, 2, 74, 127
2, 628678, Note_on_c, 2, 62, 127
2, 628678, Note_on_c, 12, 47, 127
2, 628860, Note_off_c, 12, 47, 127
2, 628860, Note_off_c, 2, 62, 127
2, 628874, Note_off_c, 5, 77, 127
2, 628877, Note_on_c, 4, 76, 127
2, 628877, Note_on_c, 7, 55, 127
2, 628877, Note_on_c, 0, 48, 127
2, 629072, Note_off_c, 2, 74, 127
2, 629075, Note_off_c, 0, 48, 127
2, 629077, Note_on_c, 0, 72, 127
2, 629077, Note_on_c, 2, 50, 127
2, 629174, Note_off_c, 0, 72, 127
2, 629177, Note_on_c, 12, 71, 127
2, 629274, Note_off_c, 2, 50, 127
2, 629276, Note_off_c, 12, 71, 127
2, 629276, Note_off_c, 7, 55, 127
2, 629278, Note_on_c, 0, 72, 127
2, 629278, Note_on_c, 4, 52, 127
2, 629460, Note_off_c, 4, 52, 127
2, 629460, Note_off_c, 0, 72, 127
2, 629477, Note_on_c, 12, 71, 127
2, 629477, Note_on_c, 4, 52, 127
2, 629477, Note_on_c, 8, 44, 127
2, 629675, Note_off_c, 8, 44, 127
2, 629675, Note_off_c, 4, 76, 127
2, 629677, Note_on_c, 2, 74, 127
2, 629677, Note_on_c, 10, 45, 127
2, 629774, Note_off_c, 2, 74, 127
2, 629777, Note_on_c, 0, 72, 127
2, 629874, Note_off_c, 10, 45, 127
2, 629876, Note_off_c, 0, 72, 127
2, 629876, Note_off_c, 12, 71, 127
2, 629878, Note_on_c, 2, 74, 127
2, 629878, Note_on_c, 8, 68, 127
2, 629878, Note_on_c, 12, 47, 127
2, 630060, Note_off_c, 12, 47, 127
2, 630060, Note_off_c, 8, 68, 127
2, 630077, Note_on_c, 10, 69, 127
2, 630077, Note_on_c, 10, 45, 127
2, 630272, Note_off_c, 2, 74, 127
2, 630275, Note_off_c, 10, 45, 127
2, 630275, Note_off_c, 4, 52, 127
2, 630277, Note_on_c, 0, 72, 127
2, 630277, Note_on_c, 4, 52, 127
2, 630374, Note_off_c, 0, 72, 127
2, 630377, Note_on_c, 12, 71, 127
2, 630475, Note_off_c, 12, 71, 127
2, 630477, Note_on_c, 0, 72, 127
2, 630477, Note_on_c, 4, 40, 127
2, 630659, Note_off_c, 4, 40, 127
2, 630659, Note_off_c, 0, 72, 127
2, 630673, Note_off_c, 4, 52, 127
2, 630675, Note_off_c, 10, 69, 127
2, 630677, Note_on_c, 12, 71, 127
2, 630677, Note_on_c, 4, 52, 127
2, 630677, Note_on_c, 8, 68, 127
2, 630677, Note_on_c, 4, 40, 127
2, 630875, Note_off_c, 4, 40, 127
2, 630877, Note_on_c, 6, 42, 127
2, 631073, Note_off_c, 6, 42, 127
2, 631075, Note_off_c, 4, 52, 127
2, 631077, Note_on_c, 4, 64, 127
2, 631077, Note_on_c, 7, 43, 127
2, 631259, Note_off_c, 7, 43, 127
2, 631259, Note_off_c, 4, 64, 127
2, 631270, Note_off_c, 8, 68, 127
2, 631270, Note_off_c, 12, 71, 127
2, 631276, Note_on_c, 3, 63, 127
2, 631276, Note_on_c, 6, 42, 127
2, 631474, Note_off_c, 6, 42, 127
2, 631476, Note_on_c, 7, 43, 127
2, 631672, Note_off_c, 7, 43, 127
2, 631675, Note_on_c, 10, 45, 127
2, 631857, Note_off_c, 10, 45, 127
2, 631873, Note_off_c, 3, 63, 127
2, 631875, Note_on_c, 2, 62, 127
2, 631875, Note_on_c, 8, 44, 127
2, 632073, Note_off_c, 8, 44, 127
2, 632075, Note_on_c, 10, 45, 127
2, 632271, Note_off_c, 10, 45, 127
2, 632274, Note_on_c, 4, 64, 127
2, 632274, Note_on_c, 12, 47, 127
2, 632456, Note_off_c, 12, 47, 127
2, 632456, Note_off_c, 4, 64, 127
2, 632472, Note_off_c, 2, 62, 127
2, 632474, Note_on_c, 5, 65, 127
2, 632474, Note_on_c, 0, 60, 127
2, 632474, Note_on_c, 10, 45, 127
2, 632672, Note_off_c, 10, 45, 127
2, 632672, Note_off_c, 0, 60, 127
2, 632674, Note_on_c, 12, 59, 127
2, 632674, Note_on_c, 12, 47, 127
2, 632870, Note_off_c, 12, 47, 127
2, 632870, Note_off_c, 12, 59, 127
2, 632872, Note_off_c, 5, 65, 127
2, 632874, Note_on_c, 6, 66, 127
2, 632874, Note_on_c, 10, 57, 127
2, 632874, Note_on_c, 0, 48, 127
2, 633056, Note_off_c, 0, 48, 127
2, 633056, Note_off_c, 10, 57, 127
2, 633056, Note_off_c, 6, 66, 127
2, 633073, Note_on_c, 7, 67, 127
2, 633073, Note_on_c, 2, 62, 127
2, 633073, Note_on_c, 12, 47, 127
2, 633271, Note_off_c, 12, 47, 127
2, 633271, Note_off_c, 2, 62, 127
2, 633273, Note_on_c, 0, 60, 127
2, 633273, Note_on_c, 0, 48, 127
2, 633469, Note_off_c, 0, 48, 127
2, 633469, Note_off_c, 0, 60, 127
2, 633471, Note_off_c, 7, 67, 127
2, 633473, Note_on_c, 8, 68, 127
2, 633473, Note_on_c, 12, 59, 127
2, 633473, Note_on_c, 2, 50, 127
2, 633655, Note_off_c, 2, 50, 127
2, 633655, Note_off_c, 12, 59, 127
2, 633655, Note_off_c, 8, 68, 127
2, 633672, Note_on_c, 10, 69, 127
2, 633672, Note_on_c, 4, 64, 127
2, 633672, Note_on_c, 0, 48, 127
2, 633870, Note_off_c, 0, 48, 127
2, 633870, Note_off_c, 4, 64, 127
2, 633872, Note_on_c, 2, 62, 127
2, 633872, Note_on_c, 2, 50, 127
2, 634068, Note_off_c, 2, 50, 127
2, 634068, Note_off_c, 2, 62, 127
2, 634071, Note_on_c, 0, 60, 127
2, 634071, Note_on_c, 4, 52, 127
2, 634253, Note_off_c, 4, 52, 127
2, 634253, Note_off_c, 0, 60, 127
2, 634270, Note_on_c, 5, 65, 127
2, 634270, Note_on_c, 2, 50, 127
2, 634468, Note_off_c, 2, 50, 127
2, 634468, Note_off_c, 5, 65, 127
2, 634470, Note_on_c, 4, 64, 127
2, 634470, Note_on_c, 4, 52, 127
2, 634666, Note_off_c, 4, 52, 127
2, 634666, Note_off_c, 4, 64, 127
2, 634669, Note_on_c, 2, 62, 127
2, 634669, Note_on_c, 5, 53, 127
2, 634851, Note_off_c, 5, 53, 127
2, 634851, Note_off_c, 2, 62, 127
2, 634868, Note_on_c, 0, 60, 127
2, 634868, Note_on_c, 4, 52, 127
2, 635066, Note_off_c, 4, 52, 127
2, 635066, Note_off_c, 0, 60, 127
2, 635068, Note_on_c, 12, 59, 127
2, 635068, Note_on_c, 2, 50, 127
2, 635165, Note_off_c, 2, 50, 127
2, 635168, Note_on_c, 0, 48, 127
2, 635266, Note_off_c, 0, 48, 127
2, 635266, Note_off_c, 10, 69, 127
2, 635268, Note_on_c, 8, 68, 127
2, 635268, Note_on_c, 2, 50, 127
2, 635363, Note_off_c, 2, 50, 127
2, 635368, Note_on_c, 12, 47, 127
2, 635451, Note_off_c, 8, 68, 127
2, 635467, Note_off_c, 12, 47, 127
2, 635469, Note_on_c, 10, 69, 127
2, 635469, Note_on_c, 0, 48, 127
2, 635665, Note_off_c, 12, 59, 127
2, 635667, Note_off_c, 0, 48, 127
2, 635667, Note_off_c, 10, 69, 127
2, 635669, Note_on_c, 0, 72, 127
2, 635669, Note_on_c, 4, 64, 127
2, 635669, Note_on_c, 0, 60, 127
2, 635766, Note_off_c, 4, 64, 127
2, 635769, Note_on_c, 2, 62, 127
2, 635866, Note_off_c, 0, 60, 127
2, 635868, Note_off_c, 2, 62, 127
2, 635870, Note_on_c, 4, 64, 127
2, 635870, Note_on_c, 6, 54, 127
2, 635965, Note_off_c, 4, 64, 127
2, 635970, Note_on_c, 0, 60, 127
2, 636053, Note_off_c, 6, 54, 127
2, 636069, Note_off_c, 0, 60, 127
2, 636071, Note_on_c, 2, 62, 127
2, 636071, Note_on_c, 12, 59, 127
2, 636267, Note_off_c, 0, 72, 127
2, 636270, Note_on_c, 12, 71, 127
2, 636367, Note_off_c, 12, 71, 127
2, 636370, Note_on_c, 10, 69, 127
2, 636468, Note_off_c, 10, 69, 127
2, 636468, Note_off_c, 12, 59, 127
2, 636470, Note_on_c, 12, 71, 127
2, 636470, Note_on_c, 4, 52, 127
2, 636565, Note_off_c, 12, 71, 127
2, 636570, Note_on_c, 8, 68, 127
2, 636653, Note_off_c, 4, 52, 127
2, 636669, Note_off_c, 8, 68, 127
2, 636671, Note_on_c, 4, 76, 127
2, 636671, Note_on_c, 10, 69, 127
2, 636671, Note_on_c, 10, 57, 127
2, 636869, Note_off_c, 10, 69, 127
2, 636869, Note_off_c, 4, 76, 127
2, 636869, Note_off_c, 2, 62, 127
2, 636871, Note_on_c, 10, 69, 127
2, 636871, Note_on_c, 0, 60, 127
2, 637067, Note_off_c, 0, 60, 127
2, 637067, Note_off_c, 10, 69, 127
2, 637070, Note_on_c, 12, 71, 127
2, 637070, Note_on_c, 4, 64, 127
2, 637070, Note_on_c, 12, 59, 127
2, 637168, Note_off_c, 10, 57, 127
2, 637170, Note_on_c, 8, 56, 127
2, 637253, Note_off_c, 12, 59, 127
2, 637253, Note_off_c, 4, 64, 127
2, 637253, Note_off_c, 12, 71, 127
2, 637269, Note_off_c, 8, 56, 127
2, 637271, Note_on_c, 0, 72, 127
2, 637271, Note_on_c, 4, 64, 127
2, 637271, Note_on_c, 10, 57, 127
2, 637469, Note_off_c, 0, 72, 127
2, 637471, Note_on_c, 2, 74, 127
2, 637667, Note_off_c, 2, 74, 127
2, 637670, Note_on_c, 4, 76, 127
2, 637670, Note_on_c, 0, 48, 127
2, 637852, Note_off_c, 0, 48, 127
2, 637852, Note_off_c, 4, 76, 127
2, 637868, Note_off_c, 10, 57, 127
2, 637868, Note_off_c, 4, 64, 127
2, 637870, Note_on_c, 8, 68, 127
2, 637870, Note_on_c, 4, 64, 127
2, 637870, Note_on_c, 12, 59, 127
2, 637870, Note_on_c, 4, 52, 127
2, 638068, Note_off_c, 12, 59, 127
2, 638068, Note_off_c, 8, 68, 127
2, 638070, Note_on_c, 10, 69, 127
2, 638070, Note_on_c, 10, 57, 127
2, 638266, Note_off_c, 10, 57, 127
2, 638266, Note_off_c, 10, 69, 127
2, 638268, Note_off_c, 4, 52, 127
2, 638270, Note_on_c, 12, 71, 127
2, 638270, Note_on_c, 8, 56, 127
2, 638270, Note_on_c, 2, 50, 127
2, 638452, Note_off_c, 2, 50, 127
2, 638452, Note_off_c, 8, 56, 127
2, 638452, Note_off_c, 12, 71, 127
2, 638468, Note_off_c, 4, 64, 127
2, 638470, Note_on_c, 10, 69, 127
2, 638470, Note_on_c, 4, 64, 127
2, 638470, Note_on_c, 10, 57, 127
2, 638470, Note_on_c, 0, 48, 127
2, 638668, Note_off_c, 10, 69, 127
2, 638670, Note_on_c, 4, 76, 127
2, 638768, Note_off_c, 0, 48, 127
2, 638770, Note_on_c, 2, 50, 127
2, 638867, Note_off_c, 4, 76, 127
2, 638869, Note_off_c, 2, 50, 127
2, 638869, Note_off_c, 4, 64, 127
2, 638871, Note_on_c, 4, 64, 127
2, 638871, Note_on_c, 0, 48, 127
2, 638966, Note_off_c, 0, 48, 127
2, 638971, Note_on_c, 12, 47, 127
2, 639054, Note_off_c, 4, 64, 127
2, 639070, Note_off_c, 12, 47, 127
2, 639070, Note_off_c, 10, 57, 127
2, 639072, Note_on_c, 4, 64, 127
2, 639072, Note_on_c, 0, 60, 127
2, 639072, Note_on_c, 10, 57, 127
2, 639072, Note_on_c, 0, 48, 127
2, 639273, Note_off_c, 4, 64, 127
2, 639275, Note_on_c, 6, 66, 127
2, 639474, Note_off_c, 6, 66, 127
2, 639476, Note_off_c, 0, 48, 127
2, 639476, Note_off_c, 10, 57, 127
2, 639476, Note_off_c, 0, 60, 127
2, 639478, Note_on_c, 7, 67, 127
2, 639478, Note_on_c, 4, 64, 127
2, 639478, Note_on_c, 10, 57, 127
2, 639478, Note_on_c, 1, 49, 127
2, 639663, Note_off_c, 1, 49, 127
2, 639663, Note_off_c, 10, 57, 127
2, 639663, Note_off_c, 4, 64, 127
2, 639663, Note_off_c, 7, 67, 127
2, 639680, Note_on_c, 6, 66, 127
2, 639680, Note_on_c, 2, 62, 127
2, 639680, Note_on_c, 10, 57, 127
2, 639680, Note_on_c, 2, 50, 127
2, 639881, Note_off_c, 10, 57, 127
2, 639881, Note_off_c, 2, 62, 127
2, 639881, Note_off_c, 6, 66, 127
2, 639883, Note_on_c, 7, 67, 127
2, 639883, Note_on_c, 4, 64, 127
2, 639883, Note_on_c, 7, 55, 127
2, 640082, Note_off_c, 7, 55, 127
2, 640082, Note_off_c, 4, 64, 127
2, 640082, Note_off_c, 7, 67, 127
2, 640084, Note_off_c, 2, 50, 127
2, 640086, Note_on_c, 10, 69, 127
2, 640086, Note_on_c, 6, 66, 127
2, 640086, Note_on_c, 6, 54, 127
2, 640086, Note_on_c, 3, 51, 127
2, 640271, Note_off_c, 3, 51, 127
2, 640271, Note_off_c, 6, 54, 127
2, 640271, Note_off_c, 6, 66, 127
2, 640271, Note_off_c, 10, 69, 127
2, 640288, Note_on_c, 8, 68, 127
2, 640288, Note_on_c, 4, 64, 127
2, 640288, Note_on_c, 12, 59, 127
2, 640288, Note_on_c, 4, 52, 127
2, 640489, Note_off_c, 12, 59, 127
2, 640489, Note_off_c, 4, 64, 127
2, 640489, Note_off_c, 8, 68, 127
2, 640491, Note_on_c, 10, 69, 127
2, 640491, Note_on_c, 6, 66, 127
2, 640491, Note_on_c, 0, 60, 127
2, 640690, Note_off_c, 0, 60, 127
2, 640690, Note_off_c, 6, 66, 127
2, 640690, Note_off_c, 10, 69, 127
2, 640692, Note_off_c, 4, 52, 127
2, 640694, Note_on_c, 12, 71, 127
2, 640694, Note_on_c, 8, 68, 127
2, 640694, Note_on_c, 2, 62, 127
2, 640694, Note_on_c, 4, 52, 127
2, 640879, Note_off_c, 4, 52, 127
2, 640879, Note_off_c, 2, 62, 127
2, 640879, Note_off_c, 8, 68, 127
2, 640879, Note_off_c, 12, 71, 127
2, 640896, Note_on_c, 10, 69, 127
2, 640896, Note_on_c, 0, 60, 127
2, 640896, Note_on_c, 5, 53, 127
2, 641097, Note_off_c, 0, 60, 127
2, 641097, Note_off_c, 10, 69, 127
2, 641099, Note_on_c, 12, 71, 127
2, 641099, Note_on_c, 8, 68, 127
2, 641099, Note_on_c, 12, 59, 127
2, 641298, Note_off_c, 12, 59, 127
2, 641298, Note_off_c, 8, 68, 127
2, 641298, Note_off_c, 12, 71, 127
2, 641300, Note_off_c, 5, 53, 127
2, 641302, Note_on_c, 0, 72, 127
2, 641302, Note_on_c, 10, 69, 127
2, 641302, Note_on_c, 10, 57, 127
2, 641302, Note_on_c, 6, 54, 127
2, 641487, Note_off_c, 6, 54, 127
2, 641487, Note_off_c, 10, 57, 127
2, 641487, Note_off_c, 10, 69, 127
2, 641487, Note_off_c, 0, 72, 127
2, 641504, Note_on_c, 12, 71, 127
2, 641504, Note_on_c, 7, 67, 127
2, 641504, Note_on_c, 2, 62, 127
2, 641504, Note_on_c, 7, 55, 127
2, 641707, Note_off_c, 2, 62, 127
2, 641707, Note_off_c, 7, 67, 127
2, 641707, Note_off_c, 12, 71, 127
2, 641709, Note_on_c, 0, 72, 127
2, 641709, Note_on_c, 10, 69, 127
2, 641709, Note_on_c, 0, 60, 127
2, 641911, Note_off_c, 0, 60, 127
2, 641911, Note_off_c, 10, 69, 127
2, 641911, Note_off_c, 0, 72, 127
2, 641913, Note_off_c, 7, 55, 127
2, 641915, Note_on_c, 2, 74, 127
2, 641915, Note_on_c, 12, 71, 127
2, 641915, Note_on_c, 12, 59, 127
2, 641915, Note_on_c, 8, 56, 127
2, 642102, Note_off_c, 8, 56, 127
2, 642102, Note_off_c, 12, 59, 127
2, 642102, Note_off_c, 12, 71, 127
2, 642102, Note_off_c, 2, 74, 127
2, 642120, Note_on_c, 0, 72, 127
2, 642120, Note_on_c, 10, 69, 127
2, 642120, Note_on_c, 4, 64, 127
2, 642120, Note_on_c, 10, 57, 127
2, 642338, Note_off_c, 10, 57, 127
2, 642338, Note_off_c, 4, 64, 127
2, 642338, Note_off_c, 10, 69, 127
2, 642338, Note_off_c, 0, 72, 127
2, 642340, Note_on_c, 12, 71, 127
2, 642340, Note_on_c, 5, 65, 127
2, 642340, Note_on_c, 2, 50, 127
2, 642446, Note_off_c, 12, 71, 127
2, 642449, Note_on_c, 10, 69, 127
2, 642555, Note_off_c, 2, 50, 127
2, 642557, Note_off_c, 10, 69, 127
2, 642559, Note_on_c, 12, 71, 127
2, 642559, Note_on_c, 4, 52, 127
2, 642664, Note_off_c, 12, 71, 127
2, 642669, Note_on_c, 8, 68, 127
2, 642760, Note_off_c, 4, 52, 127
2, 642775, Note_off_c, 5, 65, 127
2, 642777, Note_off_c, 8, 68, 127
2, 642779, Note_on_c, 10, 69, 127
2, 642779, Note_on_c, 5, 65, 127
2, 642779, Note_on_c, 0, 60, 127
2, 642779, Note_on_c, 5, 53, 127
2, 643041, Note_off_c, 5, 53, 127
2, 643041, Note_off_c, 0, 60, 127
2, 643041, Note_off_c, 10, 69, 127
2, 643058, Note_on_c, 12, 71, 127
2, 643058, Note_on_c, 2, 62, 127
2, 643058, Note_on_c, 2, 50, 127
2, 643320, Note_off_c, 2, 50, 127
2, 643320, Note_off_c, 2, 62, 127
2, 643320, Note_off_c, 12, 71, 127
2, 643331, Note_off_c, 5, 65, 127
2, 643375, Note_on_c, 4, 52, 127
2, 643375, Note_on_c, 12, 59, 127
2, 643375, Note_on_c, 4, 64, 127
2, 643375, Note_on_c, 8, 68, 127
2, 643695, Note_off_c, 8, 68, 127
2, 643695, Note_off_c, 4, 64, 127
2, 643695, Note_off_c, 12, 59, 127
2, 643695, Note_off_c, 4, 52, 127
2, 643766, Note_on_c, 10, 45, 127
2, 643766, Note_on_c, 1, 61, 127
2, 643766, Note_on_c, 4, 64, 127
2, 643766, Note_on_c, 10, 69, 127
2, 645766, Note_off_c, 10, 69, 127
2, 645766, Note_off_c, 4, 64, 127
2, 645766, Note_off_c, 1, 61, 127
2, 645766, Note_off_c, 10, 45, 127
2, 651264, End_track
3, 0, Start_track
3, 0, Title_t, "MIDI"
3, 1536, End_track
0, 0, End_of_file
