0, 0, Header, 1, 3, 384
1, 0, Start_track
1, 0, Time_signature, 4, 2, 24, 8
1, 0, Tempo, 500000
1, 525312, End_track
2, 0, Start_track
2, 0, Text_t, "harpsichord: John Sankey. A prayer for my daughter Genevieve."
2, 0, Program_c, 0, 6
2, 0, Pitch_bend_c, 0, 8192
2, 0, Program_c, 1, 6
2, 0, Pitch_bend_c, 1, 7792
2, 0, Program_c, 2, 6
2, 0, Pitch_bend_c, 2, 7876
2, 0, Program_c, 3, 6
2, 0, Pitch_bend_c, 3, 7952
2, 0, Program_c, 4, 6
2, 0, Pitch_bend_c, 4, 7792
2, 0, Program_c, 5, 6
2, 0, Pitch_bend_c, 5, 8112
2, 0, Program_c, 6, 6
2, 0, Pitch_bend_c, 6, 7712
2, 0, Program_c, 7, 6
2, 0, Pitch_bend_c, 7, 8037
2, 0, Program_c, 8, 6
2, 0, Pitch_bend_c, 8, 7872
2, 0, Program_c, 10, 6
2, 0, Pitch_bend_c, 10, 7712
2, 0, Program_c, 11, 6
2, 0, Pitch_bend_c, 11, 8032
2, 0, Program_c, 12, 6
2, 0, Pitch_bend_c, 12, 7872
2, 0, Title_t, "Track 1"
2, 26, Note_on_c, 2, 62, 127
2, 216, Note_off_c, 2, 62, 127
2, 218, Note_on_c, 4, 64, 127
2, 293, Note_off_c, 4, 64, 127
2, 295, Note_on_c, 5, 65, 127
2, 370, Note_off_c, 5, 65, 127
2, 372, Note_on_c, 7, 67, 127
2, 446, Note_off_c, 7, 67, 127
2, 448, Note_on_c, 10, 69, 127
2, 524, Note_off_c, 10, 69, 127
2, 526, Note_on_c, 12, 71, 127
2, 600, Note_off_c, 12, 71, 127
2, 602, Note_on_c, 1, 73, 127
2, 677, Note_off_c, 1, 73, 127
2, 679, Note_on_c, 2, 74, 127
2, 765, Note_off_c, 2, 74, 127
2, 767, Note_on_c, 0, 72, 127
2, 853, Note_off_c, 0, 72, 127
2, 855, Note_on_c, 11, 70, 127
2, 941, Note_off_c, 11, 70, 127
2, 943, Note_on_c, 10, 69, 127
2, 1029, Note_off_c, 10, 69, 127
2, 1031, Note_on_c, 7, 67, 127
2, 1117, Note_off_c, 7, 67, 127
2, 1119, Note_on_c, 5, 65, 127
2, 1205, Note_off_c, 5, 65, 127
2, 1207, Note_on_c, 4, 64, 127
2, 1293, Note_off_c, 4, 64, 127
2, 1295, Note_on_c, 2, 62, 127
2, 1386, Note_off_c, 2, 62, 127
2, 1388, Note_on_c, 1, 61, 127
2, 1500, Note_off_c, 1, 61, 127
2, 1502, Note_on_c, 2, 62, 127
2, 1599, Note_off_c, 2, 62, 127
2, 1601, Note_on_c, 4, 64, 127
2, 1698, Note_off_c, 4, 64, 127
2, 1700, Note_on_c, 5, 65, 127
2, 1798, Note_off_c, 5, 65, 127
2, 1800, Note_on_c, 7, 67, 127
2, 1897, Note_off_c, 7, 67, 127
2, 1899, Note_on_c, 10, 69, 127
2, 1996, Note_off_c, 10, 69, 127
2, 1998, Note_on_c, 11, 70, 127
2, 2143, Note_off_c, 11, 70, 127
2, 2145, Note_on_c, 4, 76, 127
2, 2226, Note_off_c, 4, 76, 127
2, 2228, Note_on_c, 4, 76, 127
2, 3288, Note_off_c, 4, 76, 127
2, 3349, Note_on_c, 10, 69, 127
2, 3511, Note_off_c, 10, 69, 127
2, 3513, Note_on_c, 12, 71, 127
2, 3592, Note_off_c, 12, 71, 127
2, 3594, Note_on_c, 1, 73, 127
2, 3674, Note_off_c, 1, 73, 127
2, 3676, Note_on_c, 2, 74, 127
2, 3755, Note_off_c, 2, 74, 127
2, 3757, Note_on_c, 4, 76, 127
2, 3838, Note_off_c, 4, 76, 127
2, 3840, Note_on_c, 5, 77, 127
2, 3919, Note_off_c, 5, 77, 127
2, 3921, Note_on_c, 7, 79, 127
2, 4001, Note_off_c, 7, 79, 127
2, 4003, Note_on_c, 5, 77, 127
2, 4082, Note_off_c, 5, 77, 127
2, 4084, Note_on_c, 4, 76, 127
2, 4164, Note_off_c, 4, 76, 127
2, 4166, Note_on_c, 2, 74, 127
2, 4245, Note_off_c, 2, 74, 127
2, 4247, Note_on_c, 1, 73, 127
2, 4327, Note_off_c, 1, 73, 127
2, 4329, Note_on_c, 12, 71, 127
2, 4409, Note_off_c, 12, 71, 127
2, 4411, Note_on_c, 10, 69, 127
2, 4491, Note_off_c, 10, 69, 127
2, 4493, Note_on_c, 7, 67, 127
2, 4572, Note_off_c, 7, 67, 127
2, 4574, Note_on_c, 5, 65, 127
2, 4654, Note_off_c, 5, 65, 127
2, 4656, Note_on_c, 4, 64, 127
2, 4735, Note_off_c, 4, 64, 127
2, 4737, Note_on_c, 2, 62, 127
2, 4840, Note_off_c, 2, 62, 127
2, 4842, Note_on_c, 4, 64, 127
2, 4944, Note_off_c, 4, 64, 127
2, 4946, Note_on_c, 5, 65, 127
2, 5048, Note_off_c, 5, 65, 127
2, 5050, Note_on_c, 10, 69, 127
2, 5151, Note_off_c, 10, 69, 127
2, 5153, Note_on_c, 1, 73, 127
2, 5255, Note_off_c, 1, 73, 127
2, 5257, Note_on_c, 2, 74, 127
2, 5435, Note_off_c, 2, 74, 127
2, 5437, Note_on_c, 5, 77, 127
2, 5531, Note_off_c, 5, 77, 127
2, 5533, Note_on_c, 5, 77, 127
2, 6783, Note_off_c, 5, 77, 127
2, 6989, Note_on_c, 2, 62, 127
2, 7098, Note_on_c, 2, 74, 127
2, 7129, Note_off_c, 2, 62, 127
2, 7205, Note_off_c, 2, 74, 127
2, 7207, Note_on_c, 5, 77, 127
2, 7314, Note_off_c, 5, 77, 127
2, 7316, Note_on_c, 4, 64, 127
2, 7426, Note_on_c, 2, 74, 127
2, 7451, Note_off_c, 4, 64, 127
2, 7533, Note_off_c, 2, 74, 127
2, 7535, Note_on_c, 7, 79, 127
2, 7642, Note_off_c, 7, 79, 127
2, 7644, Note_on_c, 5, 65, 127
2, 7753, Note_on_c, 2, 74, 127
2, 7779, Note_off_c, 5, 65, 127
2, 7861, Note_off_c, 2, 74, 127
2, 7863, Note_on_c, 10, 81, 127
2, 7970, Note_off_c, 10, 81, 127
2, 7972, Note_on_c, 7, 67, 127
2, 8081, Note_on_c, 2, 74, 127
2, 8102, Note_off_c, 7, 67, 127
2, 8188, Note_off_c, 2, 74, 127
2, 8190, Note_on_c, 11, 82, 127
2, 8298, Note_off_c, 11, 82, 127
2, 8300, Note_on_c, 10, 69, 127
2, 8409, Note_on_c, 1, 73, 127
2, 8450, Note_off_c, 10, 69, 127
2, 8516, Note_off_c, 1, 73, 127
2, 8518, Note_on_c, 4, 76, 127
2, 8625, Note_off_c, 4, 76, 127
2, 8627, Note_on_c, 7, 79, 127
2, 8735, Note_off_c, 7, 79, 127
2, 8737, Note_on_c, 11, 82, 127
2, 8844, Note_off_c, 11, 82, 127
2, 8846, Note_on_c, 7, 79, 127
2, 8953, Note_off_c, 7, 79, 127
2, 8955, Note_on_c, 4, 76, 127
2, 9062, Note_off_c, 4, 76, 127
2, 9064, Note_on_c, 1, 73, 127
2, 9171, Note_off_c, 1, 73, 127
2, 9173, Note_on_c, 10, 69, 127
2, 9281, Note_off_c, 10, 69, 127
2, 9283, Note_on_c, 7, 67, 127
2, 9390, Note_off_c, 7, 67, 127
2, 9392, Note_on_c, 5, 65, 127
2, 9499, Note_off_c, 5, 65, 127
2, 9501, Note_on_c, 4, 64, 127
2, 9613, Note_off_c, 4, 64, 127
2, 9615, Note_on_c, 2, 62, 127
2, 9726, Note_off_c, 2, 62, 127
2, 9728, Note_on_c, 5, 77, 127
2, 9840, Note_off_c, 5, 77, 127
2, 9842, Note_on_c, 2, 74, 127
2, 9953, Note_off_c, 2, 74, 127
2, 9955, Note_on_c, 4, 64, 127
2, 10066, Note_off_c, 4, 64, 127
2, 10068, Note_on_c, 7, 79, 127
2, 10180, Note_off_c, 7, 79, 127
2, 10182, Note_on_c, 2, 74, 127
2, 10293, Note_off_c, 2, 74, 127
2, 10295, Note_on_c, 5, 65, 127
2, 10407, Note_off_c, 5, 65, 127
2, 10409, Note_on_c, 10, 81, 127
2, 10520, Note_off_c, 10, 81, 127
2, 10522, Note_on_c, 2, 74, 127
2, 10634, Note_off_c, 2, 74, 127
2, 10636, Note_on_c, 7, 67, 127
2, 10747, Note_off_c, 7, 67, 127
2, 10749, Note_on_c, 11, 82, 127
2, 10861, Note_off_c, 11, 82, 127
2, 10863, Note_on_c, 2, 74, 127
2, 10974, Note_off_c, 2, 74, 127
2, 10976, Note_on_c, 1, 73, 127
2, 11094, Note_off_c, 1, 73, 127
2, 11096, Note_on_c, 11, 70, 127
2, 11208, Note_off_c, 11, 70, 127
2, 11210, Note_on_c, 7, 67, 127
2, 11321, Note_off_c, 7, 67, 127
2, 11323, Note_on_c, 4, 64, 127
2, 11435, Note_off_c, 4, 64, 127
2, 11437, Note_on_c, 1, 61, 127
2, 11548, Note_off_c, 1, 61, 127
2, 11550, Note_on_c, 10, 57, 127
2, 11661, Note_off_c, 10, 57, 127
2, 11663, Note_on_c, 1, 61, 127
2, 11775, Note_off_c, 1, 61, 127
2, 11777, Note_on_c, 4, 64, 127
2, 11888, Note_off_c, 4, 64, 127
2, 11890, Note_on_c, 7, 67, 127
2, 12002, Note_off_c, 7, 67, 127
2, 12004, Note_on_c, 11, 70, 127
2, 12115, Note_off_c, 11, 70, 127
2, 12117, Note_on_c, 1, 73, 127
2, 12229, Note_off_c, 1, 73, 127
2, 12231, Note_on_c, 4, 76, 127
2, 12369, Note_off_c, 4, 76, 127
2, 12371, Note_on_c, 2, 74, 127
2, 12488, Note_on_c, 4, 76, 127
2, 12581, Note_off_c, 2, 74, 127
2, 12603, Note_off_c, 4, 76, 127
2, 12605, Note_on_c, 5, 77, 127
2, 12719, Note_off_c, 5, 77, 127
2, 12721, Note_on_c, 11, 82, 127
2, 12836, Note_off_c, 11, 82, 127
2, 12838, Note_on_c, 2, 74, 127
2, 12953, Note_off_c, 2, 74, 127
2, 12955, Note_on_c, 7, 67, 127
2, 13070, Note_off_c, 7, 67, 127
2, 13072, Note_on_c, 0, 72, 127
2, 13195, Note_on_c, 2, 74, 127
2, 13212, Note_off_c, 0, 72, 127
2, 13310, Note_off_c, 2, 74, 127
2, 13312, Note_on_c, 4, 76, 127
2, 13427, Note_off_c, 4, 76, 127
2, 13429, Note_on_c, 10, 81, 127
2, 13544, Note_off_c, 10, 81, 127
2, 13546, Note_on_c, 0, 72, 127
2, 13661, Note_off_c, 0, 72, 127
2, 13663, Note_on_c, 5, 65, 127
2, 13777, Note_off_c, 5, 65, 127
2, 13779, Note_on_c, 11, 70, 127
2, 13907, Note_on_c, 1, 73, 127
2, 13919, Note_off_c, 11, 70, 127
2, 14026, Note_off_c, 1, 73, 127
2, 14028, Note_on_c, 2, 74, 127
2, 14147, Note_off_c, 2, 74, 127
2, 14149, Note_on_c, 7, 79, 127
2, 14268, Note_off_c, 7, 79, 127
2, 14270, Note_on_c, 11, 70, 127
2, 14389, Note_off_c, 11, 70, 127
2, 14391, Note_on_c, 4, 64, 127
2, 14510, Note_off_c, 4, 64, 127
2, 14512, Note_on_c, 10, 69, 127
2, 14640, Note_on_c, 12, 71, 127
2, 14642, Note_off_c, 10, 69, 127
2, 14759, Note_off_c, 12, 71, 127
2, 14761, Note_on_c, 1, 73, 127
2, 14880, Note_off_c, 1, 73, 127
2, 14882, Note_on_c, 5, 77, 127
2, 15003, Note_on_c, 10, 69, 127
2, 15022, Note_off_c, 5, 77, 127
2, 15122, Note_off_c, 10, 69, 127
2, 15124, Note_on_c, 2, 62, 127
2, 15243, Note_off_c, 2, 62, 127
2, 15245, Note_on_c, 7, 67, 127
2, 15357, Note_on_c, 11, 70, 127
2, 15415, Note_off_c, 7, 67, 127
2, 15466, Note_off_c, 11, 70, 127
2, 15468, Note_on_c, 3, 75, 127
2, 15578, Note_off_c, 3, 75, 127
2, 15580, Note_on_c, 5, 65, 127
2, 15692, Note_on_c, 10, 69, 127
2, 15730, Note_off_c, 5, 65, 127
2, 15802, Note_off_c, 10, 69, 127
2, 15804, Note_on_c, 2, 74, 127
2, 15914, Note_off_c, 2, 74, 127
2, 15916, Note_on_c, 4, 64, 127
2, 16027, Note_on_c, 7, 67, 127
2, 16056, Note_off_c, 4, 64, 127
2, 16137, Note_off_c, 7, 67, 127
2, 16139, Note_on_c, 1, 73, 127
2, 16249, Note_off_c, 1, 73, 127
2, 16251, Note_on_c, 5, 65, 127
2, 16363, Note_on_c, 10, 69, 127
2, 16391, Note_off_c, 5, 65, 127
2, 16472, Note_off_c, 10, 69, 127
2, 16474, Note_on_c, 2, 74, 127
2, 16591, Note_off_c, 2, 74, 127
2, 16593, Note_on_c, 2, 62, 127
2, 16706, Note_on_c, 5, 65, 127
2, 16773, Note_off_c, 2, 62, 127
2, 16818, Note_off_c, 5, 65, 127
2, 16820, Note_on_c, 11, 70, 127
2, 16931, Note_off_c, 11, 70, 127
2, 16933, Note_on_c, 1, 61, 127
2, 17047, Note_on_c, 4, 64, 127
2, 17093, Note_off_c, 1, 61, 127
2, 17158, Note_off_c, 4, 64, 127
2, 17160, Note_on_c, 10, 69, 127
2, 17271, Note_off_c, 10, 69, 127
2, 17273, Note_on_c, 2, 62, 127
2, 17391, Note_off_c, 2, 62, 127
2, 17393, Note_on_c, 5, 65, 127
2, 17510, Note_off_c, 5, 65, 127
2, 17512, Note_on_c, 11, 70, 127
2, 17629, Note_off_c, 11, 70, 127
2, 17631, Note_on_c, 1, 61, 127
2, 17749, Note_off_c, 1, 61, 127
2, 17751, Note_on_c, 4, 64, 127
2, 17868, Note_off_c, 4, 64, 127
2, 17870, Note_on_c, 10, 69, 127
2, 17994, Note_off_c, 10, 69, 127
2, 17996, Note_on_c, 2, 62, 127
2, 18110, Note_on_c, 5, 65, 127
2, 18216, Note_off_c, 2, 62, 127
2, 18221, Note_off_c, 5, 65, 127
2, 18223, Note_on_c, 11, 70, 127
2, 18335, Note_off_c, 11, 70, 127
2, 18337, Note_on_c, 8, 68, 127
2, 18448, Note_off_c, 8, 68, 127
2, 18450, Note_on_c, 5, 65, 127
2, 18561, Note_off_c, 5, 65, 127
2, 18563, Note_on_c, 2, 62, 127
2, 18675, Note_off_c, 2, 62, 127
2, 18677, Note_on_c, 12, 59, 127
2, 18790, Note_on_c, 2, 62, 127
2, 18807, Note_off_c, 12, 59, 127
2, 18902, Note_off_c, 2, 62, 127
2, 18904, Note_on_c, 5, 65, 127
2, 19015, Note_off_c, 5, 65, 127
2, 19017, Note_on_c, 8, 68, 127
2, 19129, Note_off_c, 8, 68, 127
2, 19131, Note_on_c, 12, 71, 127
2, 19242, Note_off_c, 12, 71, 127
2, 19244, Note_on_c, 2, 62, 127
2, 19356, Note_off_c, 2, 62, 127
2, 19358, Note_on_c, 0, 60, 127
2, 19471, Note_on_c, 4, 64, 127
2, 19582, Note_off_c, 4, 64, 127
2, 19584, Note_on_c, 10, 69, 127
2, 19598, Note_off_c, 0, 60, 127
2, 19696, Note_off_c, 10, 69, 127
2, 19698, Note_on_c, 6, 66, 127
2, 19809, Note_off_c, 6, 66, 127
2, 19811, Note_on_c, 3, 63, 127
2, 19923, Note_off_c, 3, 63, 127
2, 19925, Note_on_c, 0, 60, 127
2, 20036, Note_off_c, 0, 60, 127
2, 20038, Note_on_c, 10, 57, 127
2, 20152, Note_on_c, 0, 60, 127
2, 20178, Note_off_c, 10, 57, 127
2, 20263, Note_off_c, 0, 60, 127
2, 20265, Note_on_c, 3, 63, 127
2, 20377, Note_off_c, 3, 63, 127
2, 20379, Note_on_c, 6, 66, 127
2, 20490, Note_off_c, 6, 66, 127
2, 20492, Note_on_c, 10, 69, 127
2, 20603, Note_off_c, 10, 69, 127
2, 20605, Note_on_c, 0, 60, 127
2, 20724, Note_off_c, 0, 60, 127
2, 20726, Note_on_c, 11, 58, 127
2, 20839, Note_on_c, 2, 62, 127
2, 20950, Note_off_c, 2, 62, 127
2, 20952, Note_on_c, 7, 67, 127
2, 20966, Note_off_c, 11, 58, 127
2, 21064, Note_off_c, 7, 67, 127
2, 21066, Note_on_c, 5, 65, 127
2, 21177, Note_off_c, 5, 65, 127
2, 21179, Note_on_c, 4, 64, 127
2, 21291, Note_off_c, 4, 64, 127
2, 21293, Note_on_c, 2, 62, 127
2, 21408, Note_off_c, 2, 62, 127
2, 21410, Note_on_c, 8, 56, 127
2, 21526, Note_on_c, 2, 62, 127
2, 21570, Note_off_c, 8, 56, 127
2, 21638, Note_off_c, 2, 62, 127
2, 21640, Note_on_c, 12, 71, 127
2, 21751, Note_off_c, 12, 71, 127
2, 21753, Note_on_c, 5, 65, 127
2, 21865, Note_off_c, 5, 65, 127
2, 21867, Note_on_c, 4, 64, 127
2, 21978, Note_off_c, 4, 64, 127
2, 21980, Note_on_c, 2, 62, 127
2, 22098, Note_off_c, 2, 62, 127
2, 22100, Note_on_c, 10, 57, 127
2, 22214, Note_on_c, 1, 61, 127
2, 22320, Note_off_c, 10, 57, 127
2, 22325, Note_off_c, 1, 61, 127
2, 22327, Note_on_c, 4, 64, 127
2, 22439, Note_off_c, 4, 64, 127
2, 22441, Note_on_c, 5, 65, 127
2, 22554, Note_on_c, 2, 62, 127
2, 22601, Note_off_c, 5, 65, 127
2, 22666, Note_off_c, 2, 62, 127
2, 22668, Note_on_c, 8, 56, 127
2, 22785, Note_off_c, 8, 56, 127
2, 22787, Note_on_c, 10, 57, 127
2, 22904, Note_off_c, 10, 57, 127
2, 22906, Note_on_c, 1, 61, 127
2, 23024, Note_off_c, 1, 61, 127
2, 23026, Note_on_c, 4, 64, 127
2, 23143, Note_off_c, 4, 64, 127
2, 23145, Note_on_c, 5, 65, 127
2, 23262, Note_off_c, 5, 65, 127
2, 23264, Note_on_c, 2, 62, 127
2, 23382, Note_off_c, 2, 62, 127
2, 23384, Note_on_c, 8, 56, 127
2, 23508, Note_off_c, 8, 56, 127
2, 23510, Note_on_c, 10, 57, 127
2, 23623, Note_on_c, 0, 60, 127
2, 23735, Note_off_c, 0, 60, 127
2, 23737, Note_on_c, 5, 65, 127
2, 23840, Note_off_c, 10, 57, 127
2, 23848, Note_off_c, 5, 65, 127
2, 23850, Note_on_c, 3, 63, 127
2, 23961, Note_off_c, 3, 63, 127
2, 23963, Note_on_c, 0, 60, 127
2, 24075, Note_off_c, 0, 60, 127
2, 24077, Note_on_c, 10, 57, 127
2, 24188, Note_off_c, 10, 57, 127
2, 24190, Note_on_c, 6, 54, 127
2, 24304, Note_on_c, 10, 57, 127
2, 24330, Note_off_c, 6, 54, 127
2, 24415, Note_off_c, 10, 57, 127
2, 24417, Note_on_c, 0, 60, 127
2, 24529, Note_off_c, 0, 60, 127
2, 24531, Note_on_c, 3, 63, 127
2, 24642, Note_off_c, 3, 63, 127
2, 24644, Note_on_c, 6, 66, 127
2, 24756, Note_off_c, 6, 66, 127
2, 24758, Note_on_c, 10, 57, 127
2, 24869, Note_off_c, 10, 57, 127
2, 24871, Note_on_c, 7, 55, 127
2, 24984, Note_on_c, 11, 58, 127
2, 25096, Note_off_c, 11, 58, 127
2, 25098, Note_on_c, 3, 63, 127
2, 25171, Note_off_c, 7, 55, 127
2, 25209, Note_off_c, 3, 63, 127
2, 25211, Note_on_c, 1, 61, 127
2, 25323, Note_off_c, 1, 61, 127
2, 25325, Note_on_c, 11, 58, 127
2, 25436, Note_off_c, 11, 58, 127
2, 25438, Note_on_c, 7, 55, 127
2, 25550, Note_off_c, 7, 55, 127
2, 25552, Note_on_c, 4, 52, 127
2, 25665, Note_on_c, 7, 55, 127
2, 25692, Note_off_c, 4, 52, 127
2, 25777, Note_off_c, 7, 55, 127
2, 25779, Note_on_c, 11, 58, 127
2, 25890, Note_off_c, 11, 58, 127
2, 25892, Note_on_c, 1, 61, 127
2, 26003, Note_off_c, 1, 61, 127
2, 26005, Note_on_c, 4, 64, 127
2, 26117, Note_off_c, 4, 64, 127
2, 26119, Note_on_c, 7, 55, 127
2, 26237, Note_off_c, 7, 55, 127
2, 26239, Note_on_c, 6, 54, 127
2, 26352, Note_on_c, 10, 57, 127
2, 26459, Note_off_c, 6, 54, 127
2, 26464, Note_off_c, 10, 57, 127
2, 26466, Note_on_c, 2, 62, 127
2, 26577, Note_off_c, 2, 62, 127
2, 26579, Note_on_c, 12, 59, 127
2, 26693, Note_on_c, 8, 56, 127
2, 26799, Note_off_c, 12, 59, 127
2, 26804, Note_off_c, 8, 56, 127
2, 26806, Note_on_c, 5, 53, 127
2, 26918, Note_off_c, 5, 53, 127
2, 26920, Note_on_c, 4, 52, 127
2, 27033, Note_on_c, 7, 55, 127
2, 27140, Note_off_c, 4, 52, 127
2, 27145, Note_off_c, 7, 55, 127
2, 27147, Note_on_c, 0, 60, 127
2, 27258, Note_off_c, 0, 60, 127
2, 27260, Note_on_c, 10, 57, 127
2, 27373, Note_on_c, 6, 54, 127
2, 27480, Note_off_c, 10, 57, 127
2, 27485, Note_off_c, 6, 54, 127
2, 27487, Note_on_c, 3, 51, 127
2, 27598, Note_off_c, 3, 51, 127
2, 27600, Note_on_c, 2, 50, 127
2, 27721, Note_on_c, 7, 55, 127
2, 27832, Note_off_c, 7, 55, 127
2, 27834, Note_on_c, 11, 58, 127
2, 27930, Note_off_c, 2, 50, 127
2, 27945, Note_off_c, 11, 58, 127
2, 27947, Note_on_c, 1, 61, 127
2, 28059, Note_off_c, 1, 61, 127
2, 28061, Note_on_c, 4, 64, 127
2, 28172, Note_off_c, 4, 64, 127
2, 28174, Note_on_c, 1, 61, 127
2, 28286, Note_off_c, 1, 61, 127
2, 28288, Note_on_c, 11, 58, 127
2, 28399, Note_off_c, 11, 58, 127
2, 28401, Note_on_c, 7, 55, 127
2, 28513, Note_off_c, 7, 55, 127
2, 28515, Note_on_c, 5, 53, 127
2, 28626, Note_off_c, 5, 53, 127
2, 28628, Note_on_c, 3, 51, 127
2, 28740, Note_off_c, 3, 51, 127
2, 28742, Note_on_c, 2, 50, 127
2, 28853, Note_off_c, 2, 50, 127
2, 28855, Note_on_c, 1, 49, 127
2, 28966, Note_off_c, 1, 49, 127
2, 28968, Note_on_c, 2, 50, 127
2, 29101, Note_on_c, 5, 53, 127
2, 29188, Note_off_c, 2, 50, 127
2, 29219, Note_off_c, 5, 53, 127
2, 29221, Note_on_c, 11, 58, 127
2, 29338, Note_off_c, 11, 58, 127
2, 29340, Note_on_c, 8, 56, 127
2, 29459, Note_on_c, 5, 53, 127
2, 29560, Note_off_c, 8, 56, 127
2, 29577, Note_off_c, 5, 53, 127
2, 29579, Note_on_c, 2, 50, 127
2, 29696, Note_off_c, 2, 50, 127
2, 29698, Note_on_c, 1, 49, 127
2, 29831, Note_on_c, 4, 52, 127
2, 29918, Note_off_c, 1, 49, 127
2, 29948, Note_off_c, 4, 52, 127
2, 29950, Note_on_c, 10, 57, 127
2, 30067, Note_off_c, 10, 57, 127
2, 30069, Note_on_c, 6, 54, 127
2, 30189, Note_on_c, 3, 51, 127
2, 30289, Note_off_c, 6, 54, 127
2, 30306, Note_off_c, 3, 51, 127
2, 30308, Note_on_c, 0, 48, 127
2, 30425, Note_off_c, 0, 48, 127
2, 30427, Note_on_c, 12, 47, 127
2, 30560, Note_on_c, 2, 50, 127
2, 30647, Note_off_c, 12, 47, 127
2, 30677, Note_off_c, 2, 50, 127
2, 30679, Note_on_c, 7, 55, 127
2, 30797, Note_off_c, 7, 55, 127
2, 30799, Note_on_c, 4, 52, 127
2, 30918, Note_on_c, 1, 49, 127
2, 30989, Note_off_c, 4, 52, 127
2, 31035, Note_off_c, 1, 49, 127
2, 31037, Note_on_c, 11, 46, 127
2, 31155, Note_off_c, 11, 46, 127
2, 31157, Note_on_c, 10, 45, 127
2, 31289, Note_on_c, 0, 48, 127
2, 31377, Note_off_c, 10, 45, 127
2, 31407, Note_off_c, 0, 48, 127
2, 31409, Note_on_c, 5, 53, 127
2, 31526, Note_off_c, 5, 53, 127
2, 31528, Note_on_c, 2, 50, 127
2, 31647, Note_on_c, 12, 47, 127
2, 31688, Note_off_c, 2, 50, 127
2, 31765, Note_off_c, 12, 47, 127
2, 31767, Note_on_c, 8, 44, 127
2, 31891, Note_off_c, 8, 44, 127
2, 31893, Note_on_c, 7, 43, 127
2, 32045, Note_on_c, 0, 48, 127
2, 32113, Note_off_c, 7, 43, 127
2, 32168, Note_off_c, 0, 48, 127
2, 32170, Note_on_c, 3, 51, 127
2, 32293, Note_off_c, 3, 51, 127
2, 32295, Note_on_c, 0, 48, 127
2, 32421, Note_on_c, 3, 51, 127
2, 32515, Note_off_c, 0, 48, 127
2, 32544, Note_off_c, 3, 51, 127
2, 32546, Note_on_c, 7, 55, 127
2, 32669, Note_off_c, 7, 55, 127
2, 32671, Note_on_c, 3, 51, 127
2, 32796, Note_on_c, 7, 55, 127
2, 32891, Note_off_c, 3, 51, 127
2, 32919, Note_off_c, 7, 55, 127
2, 32921, Note_on_c, 0, 60, 127
2, 33045, Note_off_c, 0, 60, 127
2, 33047, Note_on_c, 7, 55, 127
2, 33172, Note_on_c, 0, 60, 127
2, 33267, Note_off_c, 7, 55, 127
2, 33295, Note_off_c, 0, 60, 127
2, 33297, Note_on_c, 3, 63, 127
2, 33420, Note_off_c, 3, 63, 127
2, 33422, Note_on_c, 11, 58, 127
2, 33542, Note_on_c, 1, 61, 127
2, 33602, Note_off_c, 11, 58, 127
2, 33659, Note_off_c, 1, 61, 127
2, 33661, Note_on_c, 4, 64, 127
2, 33778, Note_off_c, 4, 64, 127
2, 33780, Note_on_c, 1, 61, 127
2, 33900, Note_on_c, 4, 64, 127
2, 33950, Note_off_c, 1, 61, 127
2, 34017, Note_off_c, 4, 64, 127
2, 34019, Note_on_c, 7, 67, 127
2, 34136, Note_off_c, 7, 67, 127
2, 34138, Note_on_c, 4, 64, 127
2, 34258, Note_on_c, 7, 67, 127
2, 34298, Note_off_c, 4, 64, 127
2, 34375, Note_off_c, 7, 67, 127
2, 34377, Note_on_c, 11, 70, 127
2, 34494, Note_off_c, 11, 70, 127
2, 34496, Note_on_c, 7, 67, 127
2, 34616, Note_on_c, 11, 70, 127
2, 34636, Note_off_c, 7, 67, 127
2, 34760, Note_off_c, 11, 70, 127
2, 34762, Note_on_c, 1, 73, 127
2, 34924, Note_off_c, 1, 73, 127
2, 34926, Note_on_c, 10, 57, 127
2, 35045, Note_on_c, 11, 70, 127
2, 35126, Note_off_c, 10, 57, 127
2, 35162, Note_off_c, 11, 70, 127
2, 35164, Note_on_c, 1, 73, 127
2, 35282, Note_off_c, 1, 73, 127
2, 35284, Note_on_c, 7, 79, 127
2, 35401, Note_off_c, 7, 79, 127
2, 35403, Note_on_c, 5, 77, 127
2, 35520, Note_off_c, 5, 77, 127
2, 35522, Note_on_c, 4, 76, 127
2, 35640, Note_off_c, 4, 76, 127
2, 35642, Note_on_c, 7, 67, 127
2, 35759, Note_off_c, 7, 67, 127
2, 35761, Note_on_c, 1, 73, 127
2, 35878, Note_off_c, 1, 73, 127
2, 35880, Note_on_c, 4, 76, 127
2, 35998, Note_off_c, 4, 76, 127
2, 36000, Note_on_c, 11, 82, 127
2, 36117, Note_off_c, 11, 82, 127
2, 36119, Note_on_c, 10, 81, 127
2, 36236, Note_off_c, 10, 81, 127
2, 36238, Note_on_c, 7, 79, 127
2, 36369, Note_off_c, 7, 79, 127
2, 36371, Note_on_c, 10, 57, 127
2, 36499, Note_on_c, 11, 70, 127
2, 36561, Note_off_c, 10, 57, 127
2, 36624, Note_off_c, 11, 70, 127
2, 36626, Note_on_c, 1, 73, 127
2, 36752, Note_off_c, 1, 73, 127
2, 36754, Note_on_c, 7, 79, 127
2, 36880, Note_off_c, 7, 79, 127
2, 36882, Note_on_c, 5, 77, 127
2, 37008, Note_off_c, 5, 77, 127
2, 37010, Note_on_c, 4, 76, 127
2, 37135, Note_off_c, 4, 76, 127
2, 37137, Note_on_c, 7, 67, 127
2, 37263, Note_off_c, 7, 67, 127
2, 37265, Note_on_c, 1, 73, 127
2, 37391, Note_off_c, 1, 73, 127
2, 37393, Note_on_c, 4, 76, 127
2, 37519, Note_off_c, 4, 76, 127
2, 37521, Note_on_c, 11, 82, 127
2, 37646, Note_off_c, 11, 82, 127
2, 37648, Note_on_c, 10, 81, 127
2, 37774, Note_off_c, 10, 81, 127
2, 37776, Note_on_c, 7, 79, 127
2, 37915, Note_off_c, 7, 79, 127
2, 37917, Note_on_c, 5, 65, 127
2, 38036, Note_on_c, 10, 69, 127
2, 38047, Note_off_c, 5, 65, 127
2, 38154, Note_off_c, 10, 69, 127
2, 38156, Note_on_c, 1, 73, 127
2, 38273, Note_off_c, 1, 73, 127
2, 38275, Note_on_c, 2, 74, 127
2, 38392, Note_off_c, 2, 74, 127
2, 38394, Note_on_c, 4, 76, 127
2, 38512, Note_off_c, 4, 76, 127
2, 38514, Note_on_c, 5, 77, 127
2, 38631, Note_off_c, 5, 77, 127
2, 38633, Note_on_c, 10, 69, 127
2, 38752, Note_on_c, 1, 73, 127
2, 38763, Note_off_c, 10, 69, 127
2, 38870, Note_off_c, 1, 73, 127
2, 38872, Note_on_c, 2, 74, 127
2, 38989, Note_off_c, 2, 74, 127
2, 38991, Note_on_c, 5, 77, 127
2, 39108, Note_off_c, 5, 77, 127
2, 39110, Note_on_c, 7, 79, 127
2, 39228, Note_off_c, 7, 79, 127
2, 39230, Note_on_c, 10, 81, 127
2, 39347, Note_off_c, 10, 81, 127
2, 39349, Note_on_c, 5, 77, 127
2, 39466, Note_off_c, 5, 77, 127
2, 39468, Note_on_c, 4, 76, 127
2, 39586, Note_off_c, 4, 76, 127
2, 39588, Note_on_c, 2, 74, 127
2, 39705, Note_off_c, 2, 74, 127
2, 39707, Note_on_c, 0, 72, 127
2, 39824, Note_off_c, 0, 72, 127
2, 39826, Note_on_c, 11, 70, 127
2, 39944, Note_off_c, 11, 70, 127
2, 39946, Note_on_c, 10, 69, 127
2, 40063, Note_off_c, 10, 69, 127
2, 40065, Note_on_c, 7, 67, 127
2, 40182, Note_off_c, 7, 67, 127
2, 40184, Note_on_c, 5, 65, 127
2, 40302, Note_off_c, 5, 65, 127
2, 40304, Note_on_c, 4, 64, 127
2, 40421, Note_off_c, 4, 64, 127
2, 40423, Note_on_c, 2, 62, 127
2, 40540, Note_off_c, 2, 62, 127
2, 40542, Note_on_c, 1, 61, 127
2, 40660, Note_off_c, 1, 61, 127
2, 40662, Note_on_c, 12, 59, 127
2, 40786, Note_off_c, 12, 59, 127
2, 40788, Note_on_c, 10, 57, 127
2, 40907, Note_on_c, 7, 67, 127
2, 40968, Note_off_c, 10, 57, 127
2, 41024, Note_off_c, 7, 67, 127
2, 41026, Note_on_c, 1, 73, 127
2, 41144, Note_off_c, 1, 73, 127
2, 41146, Note_on_c, 4, 76, 127
2, 41263, Note_off_c, 4, 76, 127
2, 41265, Note_on_c, 2, 74, 127
2, 41382, Note_off_c, 2, 74, 127
2, 41384, Note_on_c, 1, 73, 127
2, 41502, Note_off_c, 1, 73, 127
2, 41504, Note_on_c, 1, 61, 127
2, 41621, Note_off_c, 1, 61, 127
2, 41623, Note_on_c, 4, 64, 127
2, 41740, Note_off_c, 4, 64, 127
2, 41742, Note_on_c, 7, 67, 127
2, 41860, Note_off_c, 7, 67, 127
2, 41862, Note_on_c, 11, 70, 127
2, 41979, Note_off_c, 11, 70, 127
2, 41981, Note_on_c, 10, 69, 127
2, 42098, Note_off_c, 10, 69, 127
2, 42100, Note_on_c, 7, 67, 127
2, 42231, Note_off_c, 7, 67, 127
2, 42233, Note_on_c, 10, 57, 127
2, 42358, Note_on_c, 7, 67, 127
2, 42373, Note_off_c, 10, 57, 127
2, 42482, Note_off_c, 7, 67, 127
2, 42484, Note_on_c, 1, 73, 127
2, 42607, Note_off_c, 1, 73, 127
2, 42609, Note_on_c, 4, 76, 127
2, 42732, Note_off_c, 4, 76, 127
2, 42734, Note_on_c, 2, 74, 127
2, 42857, Note_off_c, 2, 74, 127
2, 42859, Note_on_c, 1, 73, 127
2, 42982, Note_off_c, 1, 73, 127
2, 42984, Note_on_c, 1, 61, 127
2, 43108, Note_off_c, 1, 61, 127
2, 43110, Note_on_c, 4, 64, 127
2, 43233, Note_off_c, 4, 64, 127
2, 43235, Note_on_c, 7, 67, 127
2, 43358, Note_off_c, 7, 67, 127
2, 43360, Note_on_c, 11, 70, 127
2, 43483, Note_off_c, 11, 70, 127
2, 43485, Note_on_c, 10, 69, 127
2, 43608, Note_off_c, 10, 69, 127
2, 43610, Note_on_c, 7, 67, 127
2, 43739, Note_off_c, 7, 67, 127
2, 43741, Note_on_c, 10, 57, 127
2, 43863, Note_on_c, 1, 61, 127
2, 43974, Note_off_c, 1, 61, 127
2, 43976, Note_on_c, 2, 62, 127
2, 43981, Note_off_c, 10, 57, 127
2, 44087, Note_off_c, 2, 62, 127
2, 44089, Note_on_c, 5, 65, 127
2, 44201, Note_off_c, 5, 65, 127
2, 44203, Note_on_c, 7, 67, 127
2, 44314, Note_off_c, 7, 67, 127
2, 44316, Note_on_c, 10, 69, 127
2, 44428, Note_off_c, 10, 69, 127
2, 44430, Note_on_c, 2, 62, 127
2, 44543, Note_on_c, 5, 65, 127
2, 44610, Note_off_c, 2, 62, 127
2, 44655, Note_off_c, 5, 65, 127
2, 44657, Note_on_c, 8, 68, 127
2, 44768, Note_off_c, 8, 68, 127
2, 44770, Note_on_c, 10, 69, 127
2, 44882, Note_off_c, 10, 69, 127
2, 44884, Note_on_c, 1, 73, 127
2, 44995, Note_off_c, 1, 73, 127
2, 44997, Note_on_c, 2, 74, 127
2, 45108, Note_off_c, 2, 74, 127
2, 45110, Note_on_c, 5, 65, 127
2, 45224, Note_on_c, 10, 69, 127
2, 45260, Note_off_c, 5, 65, 127
2, 45335, Note_off_c, 10, 69, 127
2, 45337, Note_on_c, 1, 73, 127
2, 45449, Note_off_c, 1, 73, 127
2, 45451, Note_on_c, 2, 74, 127
2, 45562, Note_off_c, 2, 74, 127
2, 45564, Note_on_c, 4, 76, 127
2, 45676, Note_off_c, 4, 76, 127
2, 45678, Note_on_c, 5, 77, 127
2, 45789, Note_off_c, 5, 77, 127
2, 45791, Note_on_c, 10, 69, 127
2, 45905, Note_on_c, 1, 73, 127
2, 45921, Note_off_c, 10, 69, 127
2, 46016, Note_off_c, 1, 73, 127
2, 46018, Note_on_c, 2, 74, 127
2, 46129, Note_off_c, 2, 74, 127
2, 46131, Note_on_c, 5, 77, 127
2, 46243, Note_off_c, 5, 77, 127
2, 46245, Note_on_c, 8, 80, 127
2, 46356, Note_off_c, 8, 80, 127
2, 46358, Note_on_c, 10, 81, 127
2, 46470, Note_off_c, 10, 81, 127
2, 46472, Note_on_c, 12, 83, 127
2, 46697, Note_off_c, 12, 83, 127
2, 46699, Note_on_c, 8, 80, 127
2, 46801, Note_off_c, 8, 80, 127
2, 46803, Note_on_c, 10, 81, 127
2, 46905, Note_off_c, 10, 81, 127
2, 46907, Note_on_c, 12, 83, 127
2, 47009, Note_off_c, 12, 83, 127
2, 47011, Note_on_c, 2, 74, 127
2, 47113, Note_off_c, 2, 74, 127
2, 47115, Note_on_c, 4, 76, 127
2, 47218, Note_off_c, 4, 76, 127
2, 47220, Note_on_c, 5, 77, 127
2, 47322, Note_off_c, 5, 77, 127
2, 47324, Note_on_c, 12, 71, 127
2, 47426, Note_off_c, 12, 71, 127
2, 47428, Note_on_c, 0, 72, 127
2, 47530, Note_off_c, 0, 72, 127
2, 47532, Note_on_c, 2, 74, 127
2, 47634, Note_off_c, 2, 74, 127
2, 47636, Note_on_c, 8, 68, 127
2, 47739, Note_off_c, 8, 68, 127
2, 47741, Note_on_c, 10, 69, 127
2, 47843, Note_off_c, 10, 69, 127
2, 47845, Note_on_c, 12, 71, 127
2, 47947, Note_off_c, 12, 71, 127
2, 47949, Note_on_c, 2, 62, 127
2, 48051, Note_off_c, 2, 62, 127
2, 48053, Note_on_c, 4, 64, 127
2, 48155, Note_off_c, 4, 64, 127
2, 48157, Note_on_c, 5, 65, 127
2, 48260, Note_off_c, 5, 65, 127
2, 48262, Note_on_c, 12, 59, 127
2, 48364, Note_off_c, 12, 59, 127
2, 48366, Note_on_c, 0, 60, 127
2, 48468, Note_off_c, 0, 60, 127
2, 48470, Note_on_c, 2, 62, 127
2, 48572, Note_off_c, 2, 62, 127
2, 48574, Note_on_c, 8, 56, 127
2, 48676, Note_off_c, 8, 56, 127
2, 48678, Note_on_c, 10, 57, 127
2, 48781, Note_off_c, 10, 57, 127
2, 48783, Note_on_c, 12, 59, 127
2, 48885, Note_off_c, 12, 59, 127
2, 48887, Note_on_c, 1, 61, 127
2, 48989, Note_off_c, 1, 61, 127
2, 48991, Note_on_c, 2, 62, 127
2, 49093, Note_off_c, 2, 62, 127
2, 49095, Note_on_c, 1, 61, 127
2, 49304, Note_on_c, 4, 64, 127
2, 49315, Note_off_c, 1, 61, 127
2, 49398, Note_off_c, 4, 64, 127
2, 49400, Note_on_c, 2, 62, 127
2, 49495, Note_off_c, 2, 62, 127
2, 49497, Note_on_c, 1, 61, 127
2, 49592, Note_off_c, 1, 61, 127
2, 49594, Note_on_c, 12, 59, 127
2, 49688, Note_off_c, 12, 59, 127
2, 49690, Note_on_c, 10, 57, 127
2, 49785, Note_off_c, 10, 57, 127
2, 49787, Note_on_c, 7, 55, 127
2, 49882, Note_off_c, 7, 55, 127
2, 49884, Note_on_c, 5, 53, 127
2, 49978, Note_off_c, 5, 53, 127
2, 49980, Note_on_c, 4, 52, 127
2, 50075, Note_off_c, 4, 52, 127
2, 50077, Note_on_c, 2, 50, 127
2, 50171, Note_off_c, 2, 50, 127
2, 50173, Note_on_c, 1, 49, 127
2, 50268, Note_off_c, 1, 49, 127
2, 50270, Note_on_c, 4, 52, 127
2, 50365, Note_off_c, 4, 52, 127
2, 50367, Note_on_c, 10, 45, 127
2, 50750, Note_on_c, 5, 65, 127
2, 50807, Note_off_c, 10, 45, 127
2, 50848, Note_off_c, 5, 65, 127
2, 50850, Note_on_c, 4, 64, 127
2, 50948, Note_off_c, 4, 64, 127
2, 50950, Note_on_c, 2, 62, 127
2, 51048, Note_off_c, 2, 62, 127
2, 51050, Note_on_c, 1, 61, 127
2, 51148, Note_off_c, 1, 61, 127
2, 51150, Note_on_c, 11, 58, 127
2, 51248, Note_off_c, 11, 58, 127
2, 51250, Note_on_c, 10, 57, 127
2, 51348, Note_off_c, 10, 57, 127
2, 51350, Note_on_c, 7, 55, 127
2, 51448, Note_off_c, 7, 55, 127
2, 51450, Note_on_c, 5, 53, 127
2, 51548, Note_off_c, 5, 53, 127
2, 51550, Note_on_c, 4, 52, 127
2, 51648, Note_off_c, 4, 52, 127
2, 51650, Note_on_c, 2, 50, 127
2, 51748, Note_off_c, 2, 50, 127
2, 51750, Note_on_c, 1, 49, 127
2, 51848, Note_off_c, 1, 49, 127
2, 51850, Note_on_c, 4, 52, 127
2, 51948, Note_off_c, 4, 52, 127
2, 51950, Note_on_c, 10, 45, 127
2, 52214, Note_on_c, 7, 67, 127
2, 52250, Note_off_c, 10, 45, 127
2, 52316, Note_off_c, 7, 67, 127
2, 52318, Note_on_c, 5, 65, 127
2, 52420, Note_off_c, 5, 65, 127
2, 52422, Note_on_c, 4, 64, 127
2, 52525, Note_off_c, 4, 64, 127
2, 52527, Note_on_c, 2, 62, 127
2, 52629, Note_off_c, 2, 62, 127
2, 52631, Note_on_c, 1, 61, 127
2, 52733, Note_off_c, 1, 61, 127
2, 52735, Note_on_c, 11, 70, 127
2, 52837, Note_off_c, 11, 70, 127
2, 52839, Note_on_c, 10, 69, 127
2, 52941, Note_off_c, 10, 69, 127
2, 52943, Note_on_c, 7, 67, 127
2, 53046, Note_off_c, 7, 67, 127
2, 53048, Note_on_c, 5, 65, 127
2, 53150, Note_off_c, 5, 65, 127
2, 53152, Note_on_c, 4, 64, 127
2, 53254, Note_off_c, 4, 64, 127
2, 53256, Note_on_c, 2, 74, 127
2, 53358, Note_off_c, 2, 74, 127
2, 53360, Note_on_c, 1, 73, 127
2, 53462, Note_off_c, 1, 73, 127
2, 53464, Note_on_c, 12, 71, 127
2, 53567, Note_off_c, 12, 71, 127
2, 53569, Note_on_c, 10, 69, 127
2, 53671, Note_off_c, 10, 69, 127
2, 53673, Note_on_c, 7, 67, 127
2, 53775, Note_off_c, 7, 67, 127
2, 53777, Note_on_c, 5, 77, 127
2, 53879, Note_off_c, 5, 77, 127
2, 53881, Note_on_c, 4, 76, 127
2, 53983, Note_off_c, 4, 76, 127
2, 53985, Note_on_c, 2, 74, 127
2, 54088, Note_off_c, 2, 74, 127
2, 54090, Note_on_c, 1, 73, 127
2, 54192, Note_off_c, 1, 73, 127
2, 54194, Note_on_c, 12, 71, 127
2, 54296, Note_off_c, 12, 71, 127
2, 54298, Note_on_c, 8, 80, 127
2, 54400, Note_off_c, 8, 80, 127
2, 54402, Note_on_c, 5, 77, 127
2, 54504, Note_off_c, 5, 77, 127
2, 54506, Note_on_c, 4, 76, 127
2, 54609, Note_off_c, 4, 76, 127
2, 54611, Note_on_c, 2, 74, 127
2, 54719, Note_off_c, 2, 74, 127
2, 54721, Note_on_c, 1, 73, 127
2, 54832, Note_on_c, 4, 76, 127
2, 54881, Note_off_c, 1, 73, 127
2, 54920, Note_off_c, 4, 76, 127
2, 54922, Note_on_c, 10, 81, 127
2, 55010, Note_off_c, 10, 81, 127
2, 55012, Note_on_c, 4, 76, 127
2, 55100, Note_off_c, 4, 76, 127
2, 55102, Note_on_c, 1, 73, 127
2, 55190, Note_off_c, 1, 73, 127
2, 55192, Note_on_c, 4, 76, 127
2, 55280, Note_off_c, 4, 76, 127
2, 55282, Note_on_c, 1, 73, 127
2, 55370, Note_off_c, 1, 73, 127
2, 55372, Note_on_c, 10, 69, 127
2, 55460, Note_off_c, 10, 69, 127
2, 55462, Note_on_c, 1, 73, 127
2, 55550, Note_off_c, 1, 73, 127
2, 55552, Note_on_c, 10, 69, 127
2, 55640, Note_off_c, 10, 69, 127
2, 55642, Note_on_c, 4, 64, 127
2, 55730, Note_off_c, 4, 64, 127
2, 55732, Note_on_c, 10, 69, 127
2, 55819, Note_off_c, 10, 69, 127
2, 55821, Note_on_c, 4, 64, 127
2, 55909, Note_off_c, 4, 64, 127
2, 55911, Note_on_c, 1, 61, 127
2, 55999, Note_off_c, 1, 61, 127
2, 56001, Note_on_c, 4, 64, 127
2, 56089, Note_off_c, 4, 64, 127
2, 56091, Note_on_c, 1, 61, 127
2, 56179, Note_off_c, 1, 61, 127
2, 56181, Note_on_c, 10, 57, 127
2, 56269, Note_off_c, 10, 57, 127
2, 56271, Note_on_c, 4, 52, 127
2, 56359, Note_off_c, 4, 52, 127
2, 56361, Note_on_c, 1, 49, 127
2, 56449, Note_off_c, 1, 49, 127
2, 56451, Note_on_c, 10, 45, 127
2, 56643, Note_on_c, 1, 49, 127
2, 56721, Note_on_c, 4, 52, 127
2, 56800, Note_on_c, 10, 57, 127
2, 56878, Note_on_c, 1, 61, 127
2, 56954, Note_off_c, 1, 61, 127
2, 56956, Note_on_c, 4, 64, 127
2, 57032, Note_off_c, 4, 64, 127
2, 57034, Note_on_c, 10, 69, 127
2, 57112, Note_on_c, 1, 73, 127
2, 57190, Note_on_c, 4, 76, 127
2, 57269, Note_on_c, 10, 81, 127
2, 57345, Note_off_c, 10, 81, 127
2, 57347, Note_on_c, 8, 80, 127
2, 57423, Note_off_c, 8, 80, 127
2, 57425, Note_on_c, 10, 81, 127
2, 57490, Note_off_c, 4, 76, 127
2, 57501, Note_off_c, 10, 81, 127
2, 57503, Note_on_c, 8, 80, 127
2, 57512, Note_off_c, 1, 73, 127
2, 57534, Note_off_c, 10, 69, 127
2, 57579, Note_off_c, 8, 80, 127
2, 57581, Note_on_c, 10, 81, 127
2, 57657, Note_off_c, 10, 81, 127
2, 57659, Note_on_c, 8, 80, 127
2, 57740, Note_off_c, 8, 80, 127
2, 57742, Note_on_c, 10, 81, 127
2, 57819, Note_off_c, 10, 81, 127
2, 57821, Note_on_c, 8, 80, 127
2, 57897, Note_off_c, 8, 80, 127
2, 57899, Note_on_c, 10, 81, 127
2, 58700, Note_off_c, 10, 57, 127
2, 58721, Note_off_c, 4, 52, 127
2, 58743, Note_off_c, 1, 49, 127
2, 58751, Note_off_c, 10, 45, 127
2, 59499, Note_off_c, 10, 81, 127
2, 59725, Note_on_c, 7, 67, 127
2, 59896, Note_off_c, 7, 67, 127
2, 59898, Note_on_c, 4, 64, 127
2, 59981, Note_off_c, 4, 64, 127
2, 59983, Note_on_c, 5, 65, 127
2, 60067, Note_off_c, 5, 65, 127
2, 60069, Note_on_c, 7, 67, 127
2, 60153, Note_off_c, 7, 67, 127
2, 60155, Note_on_c, 10, 69, 127
2, 60239, Note_off_c, 10, 69, 127
2, 60241, Note_on_c, 12, 71, 127
2, 60324, Note_off_c, 12, 71, 127
2, 60326, Note_on_c, 1, 73, 127
2, 60410, Note_off_c, 1, 73, 127
2, 60412, Note_on_c, 2, 74, 127
2, 60496, Note_off_c, 2, 74, 127
2, 60498, Note_on_c, 4, 76, 127
2, 60581, Note_off_c, 4, 76, 127
2, 60583, Note_on_c, 5, 77, 127
2, 60667, Note_off_c, 5, 77, 127
2, 60669, Note_on_c, 7, 79, 127
2, 60753, Note_off_c, 7, 79, 127
2, 60755, Note_on_c, 10, 81, 127
2, 60839, Note_off_c, 10, 81, 127
2, 60841, Note_on_c, 11, 82, 127
2, 60924, Note_off_c, 11, 82, 127
2, 60926, Note_on_c, 10, 81, 127
2, 61010, Note_off_c, 10, 81, 127
2, 61012, Note_on_c, 7, 79, 127
2, 61096, Note_off_c, 7, 79, 127
2, 61098, Note_on_c, 5, 77, 127
2, 61181, Note_off_c, 5, 77, 127
2, 61183, Note_on_c, 4, 76, 127
2, 61267, Note_off_c, 4, 76, 127
2, 61269, Note_on_c, 5, 77, 127
2, 61353, Note_off_c, 5, 77, 127
2, 61355, Note_on_c, 7, 79, 127
2, 61439, Note_off_c, 7, 79, 127
2, 61441, Note_on_c, 5, 77, 127
2, 61524, Note_off_c, 5, 77, 127
2, 61526, Note_on_c, 4, 76, 127
2, 61610, Note_off_c, 4, 76, 127
2, 61612, Note_on_c, 2, 74, 127
2, 61696, Note_off_c, 2, 74, 127
2, 61698, Note_on_c, 1, 73, 127
2, 61781, Note_off_c, 1, 73, 127
2, 61783, Note_on_c, 2, 74, 127
2, 61867, Note_off_c, 2, 74, 127
2, 61869, Note_on_c, 4, 76, 127
2, 61953, Note_off_c, 4, 76, 127
2, 61955, Note_on_c, 2, 74, 127
2, 62039, Note_off_c, 2, 74, 127
2, 62041, Note_on_c, 1, 73, 127
2, 62124, Note_off_c, 1, 73, 127
2, 62126, Note_on_c, 12, 71, 127
2, 62210, Note_off_c, 12, 71, 127
2, 62212, Note_on_c, 10, 69, 127
2, 62296, Note_off_c, 10, 69, 127
2, 62298, Note_on_c, 7, 67, 127
2, 62386, Note_off_c, 7, 67, 127
2, 62388, Note_on_c, 11, 70, 127
2, 62476, Note_off_c, 11, 70, 127
2, 62478, Note_on_c, 10, 69, 127
2, 62565, Note_off_c, 10, 69, 127
2, 62567, Note_on_c, 7, 67, 127
2, 62655, Note_off_c, 7, 67, 127
2, 62657, Note_on_c, 5, 65, 127
2, 62745, Note_off_c, 5, 65, 127
2, 62747, Note_on_c, 4, 64, 127
2, 62835, Note_off_c, 4, 64, 127
2, 62837, Note_on_c, 5, 65, 127
2, 62925, Note_off_c, 5, 65, 127
2, 62927, Note_on_c, 7, 67, 127
2, 63015, Note_off_c, 7, 67, 127
2, 63017, Note_on_c, 5, 65, 127
2, 63105, Note_off_c, 5, 65, 127
2, 63107, Note_on_c, 4, 64, 127
2, 63195, Note_off_c, 4, 64, 127
2, 63197, Note_on_c, 2, 62, 127
2, 63285, Note_off_c, 2, 62, 127
2, 63287, Note_on_c, 1, 61, 127
2, 63375, Note_off_c, 1, 61, 127
2, 63377, Note_on_c, 2, 62, 127
2, 63465, Note_off_c, 2, 62, 127
2, 63467, Note_on_c, 4, 64, 127
2, 63555, Note_off_c, 4, 64, 127
2, 63557, Note_on_c, 2, 62, 127
2, 63644, Note_off_c, 2, 62, 127
2, 63646, Note_on_c, 1, 61, 127
2, 63734, Note_off_c, 1, 61, 127
2, 63736, Note_on_c, 12, 59, 127
2, 63824, Note_off_c, 12, 59, 127
2, 63826, Note_on_c, 10, 57, 127
2, 63914, Note_off_c, 10, 57, 127
2, 63916, Note_on_c, 7, 55, 127
2, 64004, Note_off_c, 7, 55, 127
2, 64006, Note_on_c, 11, 58, 127
2, 64094, Note_off_c, 11, 58, 127
2, 64096, Note_on_c, 10, 57, 127
2, 64184, Note_off_c, 10, 57, 127
2, 64186, Note_on_c, 7, 55, 127
2, 64274, Note_off_c, 7, 55, 127
2, 64276, Note_on_c, 5, 53, 127
2, 64364, Note_off_c, 5, 53, 127
2, 64366, Note_on_c, 4, 52, 127
2, 64454, Note_off_c, 4, 52, 127
2, 64456, Note_on_c, 5, 53, 127
2, 64544, Note_off_c, 5, 53, 127
2, 64546, Note_on_c, 7, 55, 127
2, 64634, Note_off_c, 7, 55, 127
2, 64636, Note_on_c, 5, 53, 127
2, 64723, Note_off_c, 5, 53, 127
2, 64725, Note_on_c, 4, 52, 127
2, 64813, Note_off_c, 4, 52, 127
2, 64815, Note_on_c, 2, 50, 127
2, 64903, Note_off_c, 2, 50, 127
2, 64905, Note_on_c, 1, 49, 127
2, 64993, Note_off_c, 1, 49, 127
2, 64995, Note_on_c, 2, 50, 127
2, 65083, Note_off_c, 2, 50, 127
2, 65085, Note_on_c, 4, 52, 127
2, 65173, Note_off_c, 4, 52, 127
2, 65175, Note_on_c, 2, 50, 127
2, 65263, Note_off_c, 2, 50, 127
2, 65265, Note_on_c, 1, 49, 127
2, 65353, Note_off_c, 1, 49, 127
2, 65355, Note_on_c, 12, 47, 127
2, 65443, Note_off_c, 12, 47, 127
2, 65445, Note_on_c, 10, 45, 127
2, 65573, Note_off_c, 10, 45, 127
2, 65575, Note_on_c, 12, 47, 127
2, 65665, Note_off_c, 12, 47, 127
2, 65667, Note_on_c, 1, 49, 127
2, 65758, Note_off_c, 1, 49, 127
2, 65760, Note_on_c, 2, 50, 127
2, 65850, Note_off_c, 2, 50, 127
2, 65852, Note_on_c, 4, 52, 127
2, 65943, Note_off_c, 4, 52, 127
2, 65945, Note_on_c, 5, 53, 127
2, 66035, Note_off_c, 5, 53, 127
2, 66037, Note_on_c, 7, 55, 127
2, 66128, Note_off_c, 7, 55, 127
2, 66130, Note_on_c, 5, 53, 127
2, 66220, Note_off_c, 5, 53, 127
2, 66222, Note_on_c, 4, 52, 127
2, 66312, Note_off_c, 4, 52, 127
2, 66314, Note_on_c, 7, 55, 127
2, 66405, Note_off_c, 7, 55, 127
2, 66407, Note_on_c, 5, 53, 127
2, 66497, Note_off_c, 5, 53, 127
2, 66499, Note_on_c, 4, 52, 127
2, 66590, Note_off_c, 4, 52, 127
2, 66592, Note_on_c, 2, 50, 127
2, 66682, Note_off_c, 2, 50, 127
2, 66684, Note_on_c, 1, 49, 127
2, 66775, Note_off_c, 1, 49, 127
2, 66777, Note_on_c, 12, 47, 127
2, 66867, Note_off_c, 12, 47, 127
2, 66869, Note_on_c, 10, 45, 127
2, 66964, Note_off_c, 10, 45, 127
2, 66966, Note_on_c, 12, 47, 127
2, 67060, Note_off_c, 12, 47, 127
2, 67062, Note_on_c, 1, 49, 127
2, 67157, Note_off_c, 1, 49, 127
2, 67159, Note_on_c, 2, 50, 127
2, 67254, Note_off_c, 2, 50, 127
2, 67256, Note_on_c, 4, 52, 127
2, 67350, Note_off_c, 4, 52, 127
2, 67352, Note_on_c, 5, 53, 127
2, 67447, Note_off_c, 5, 53, 127
2, 67449, Note_on_c, 7, 55, 127
2, 67544, Note_off_c, 7, 55, 127
2, 67546, Note_on_c, 10, 57, 127
2, 67640, Note_off_c, 10, 57, 127
2, 67642, Note_on_c, 11, 58, 127
2, 67737, Note_off_c, 11, 58, 127
2, 67739, Note_on_c, 10, 57, 127
2, 67834, Note_off_c, 10, 57, 127
2, 67836, Note_on_c, 7, 55, 127
2, 67930, Note_off_c, 7, 55, 127
2, 67932, Note_on_c, 5, 53, 127
2, 68027, Note_off_c, 5, 53, 127
2, 68029, Note_on_c, 10, 57, 127
2, 68123, Note_off_c, 10, 57, 127
2, 68125, Note_on_c, 7, 55, 127
2, 68220, Note_off_c, 7, 55, 127
2, 68222, Note_on_c, 5, 53, 127
2, 68317, Note_off_c, 5, 53, 127
2, 68319, Note_on_c, 4, 52, 127
2, 68413, Note_off_c, 4, 52, 127
2, 68415, Note_on_c, 2, 50, 127
2, 68510, Note_off_c, 2, 50, 127
2, 68512, Note_on_c, 1, 49, 127
2, 68620, Note_off_c, 1, 49, 127
2, 68622, Note_on_c, 2, 50, 127
2, 68730, Note_off_c, 2, 50, 127
2, 68732, Note_on_c, 4, 52, 127
2, 68827, Note_off_c, 4, 52, 127
2, 68829, Note_on_c, 5, 53, 127
2, 68923, Note_off_c, 5, 53, 127
2, 68925, Note_on_c, 7, 55, 127
2, 69020, Note_off_c, 7, 55, 127
2, 69022, Note_on_c, 10, 57, 127
2, 69117, Note_off_c, 10, 57, 127
2, 69119, Note_on_c, 11, 58, 127
2, 69213, Note_off_c, 11, 58, 127
2, 69215, Note_on_c, 10, 57, 127
2, 69310, Note_off_c, 10, 57, 127
2, 69312, Note_on_c, 7, 55, 127
2, 69407, Note_off_c, 7, 55, 127
2, 69409, Note_on_c, 10, 57, 127
2, 69503, Note_off_c, 10, 57, 127
2, 69505, Note_on_c, 12, 59, 127
2, 69600, Note_off_c, 12, 59, 127
2, 69602, Note_on_c, 1, 61, 127
2, 69697, Note_off_c, 1, 61, 127
2, 69699, Note_on_c, 2, 62, 127
2, 69793, Note_off_c, 2, 62, 127
2, 69795, Note_on_c, 4, 64, 127
2, 69890, Note_off_c, 4, 64, 127
2, 69892, Note_on_c, 5, 65, 127
2, 69986, Note_off_c, 5, 65, 127
2, 69988, Note_on_c, 7, 67, 127
2, 70083, Note_off_c, 7, 67, 127
2, 70085, Note_on_c, 5, 65, 127
2, 70189, Note_off_c, 5, 65, 127
2, 70191, Note_on_c, 7, 67, 127
2, 70295, Note_off_c, 7, 67, 127
2, 70297, Note_on_c, 10, 69, 127
2, 70401, Note_off_c, 10, 69, 127
2, 70403, Note_on_c, 4, 64, 127
2, 70507, Note_off_c, 4, 64, 127
2, 70509, Note_on_c, 5, 65, 127
2, 70612, Note_off_c, 5, 65, 127
2, 70614, Note_on_c, 1, 61, 127
2, 70718, Note_off_c, 1, 61, 127
2, 70720, Note_on_c, 2, 62, 127
2, 70824, Note_off_c, 2, 62, 127
2, 70826, Note_on_c, 10, 57, 127
2, 70930, Note_off_c, 10, 57, 127
2, 70932, Note_on_c, 5, 53, 127
2, 71036, Note_off_c, 5, 53, 127
2, 71038, Note_on_c, 7, 55, 127
2, 71142, Note_off_c, 7, 55, 127
2, 71144, Note_on_c, 10, 57, 127
2, 71248, Note_off_c, 10, 57, 127
2, 71250, Note_on_c, 5, 53, 127
2, 71354, Note_off_c, 5, 53, 127
2, 71356, Note_on_c, 2, 50, 127
2, 71460, Note_off_c, 2, 50, 127
2, 71462, Note_on_c, 5, 53, 127
2, 71565, Note_off_c, 5, 53, 127
2, 71567, Note_on_c, 4, 52, 127
2, 71671, Note_off_c, 4, 52, 127
2, 71673, Note_on_c, 2, 50, 127
2, 71768, Note_off_c, 2, 50, 127
2, 71770, Note_on_c, 8, 56, 127
2, 71865, Note_off_c, 8, 56, 127
2, 71867, Note_on_c, 6, 54, 127
2, 71961, Note_off_c, 6, 54, 127
2, 71963, Note_on_c, 4, 52, 127
2, 72058, Note_off_c, 4, 52, 127
2, 72060, Note_on_c, 12, 59, 127
2, 72155, Note_off_c, 12, 59, 127
2, 72157, Note_on_c, 10, 57, 127
2, 72251, Note_off_c, 10, 57, 127
2, 72253, Note_on_c, 8, 56, 127
2, 72348, Note_off_c, 8, 56, 127
2, 72350, Note_on_c, 2, 62, 127
2, 72444, Note_off_c, 2, 62, 127
2, 72446, Note_on_c, 0, 60, 127
2, 72541, Note_off_c, 0, 60, 127
2, 72543, Note_on_c, 12, 59, 127
2, 72638, Note_off_c, 12, 59, 127
2, 72640, Note_on_c, 5, 65, 127
2, 72741, Note_off_c, 5, 65, 127
2, 72743, Note_on_c, 4, 64, 127
2, 72838, Note_off_c, 4, 64, 127
2, 72840, Note_on_c, 2, 62, 127
2, 72934, Note_off_c, 2, 62, 127
2, 72936, Note_on_c, 8, 68, 127
2, 73031, Note_off_c, 8, 68, 127
2, 73033, Note_on_c, 6, 66, 127
2, 73128, Note_off_c, 6, 66, 127
2, 73130, Note_on_c, 4, 64, 127
2, 73224, Note_off_c, 4, 64, 127
2, 73226, Note_on_c, 12, 71, 127
2, 73321, Note_off_c, 12, 71, 127
2, 73323, Note_on_c, 10, 69, 127
2, 73418, Note_off_c, 10, 69, 127
2, 73420, Note_on_c, 8, 68, 127
2, 73514, Note_off_c, 8, 68, 127
2, 73516, Note_on_c, 2, 74, 127
2, 73611, Note_off_c, 2, 74, 127
2, 73613, Note_on_c, 0, 72, 127
2, 73707, Note_off_c, 0, 72, 127
2, 73709, Note_on_c, 12, 71, 127
2, 73804, Note_off_c, 12, 71, 127
2, 73806, Note_on_c, 5, 77, 127
2, 73901, Note_off_c, 5, 77, 127
2, 73903, Note_on_c, 4, 76, 127
2, 73997, Note_off_c, 4, 76, 127
2, 73999, Note_on_c, 2, 74, 127
2, 74107, Note_off_c, 2, 74, 127
2, 74109, Note_on_c, 8, 80, 127
2, 74272, Note_off_c, 8, 80, 127
2, 74274, Note_on_c, 10, 81, 127
2, 74376, Note_off_c, 10, 81, 127
2, 74378, Note_on_c, 8, 80, 127
2, 74479, Note_off_c, 8, 80, 127
2, 74481, Note_on_c, 6, 78, 127
2, 74582, Note_off_c, 6, 78, 127
2, 74584, Note_on_c, 8, 80, 127
2, 74686, Note_off_c, 8, 80, 127
2, 74688, Note_on_c, 10, 81, 127
2, 74793, Note_off_c, 10, 81, 127
2, 74795, Note_on_c, 8, 80, 127
2, 74900, Note_off_c, 8, 80, 127
2, 74902, Note_on_c, 10, 81, 127
2, 75007, Note_off_c, 10, 81, 127
2, 75008, Note_on_c, 8, 80, 127
2, 75113, Note_off_c, 8, 80, 127
2, 75114, Note_on_c, 10, 81, 127
2, 75217, Note_on_c, 8, 80, 127
2, 75219, Note_off_c, 10, 81, 127
2, 75324, Note_off_c, 8, 80, 127
2, 75326, Note_on_c, 10, 81, 127
2, 75431, Note_off_c, 10, 81, 127
2, 75433, Note_on_c, 8, 80, 127
2, 75539, Note_off_c, 8, 80, 127
2, 75541, Note_on_c, 10, 81, 127
2, 75647, Note_off_c, 10, 81, 127
2, 75653, Note_on_c, 8, 80, 127
2, 75758, Note_off_c, 8, 80, 127
2, 75764, Note_on_c, 6, 78, 127
2, 75870, Note_off_c, 6, 78, 127
2, 75876, Note_on_c, 8, 80, 127
2, 75981, Note_off_c, 8, 80, 127
2, 75987, Note_on_c, 10, 81, 127
2, 76112, Note_off_c, 10, 81, 127
2, 76114, Note_on_c, 2, 86, 127
2, 76226, Note_off_c, 2, 86, 127
2, 76228, Note_on_c, 10, 81, 127
2, 76339, Note_off_c, 10, 81, 127
2, 76341, Note_on_c, 5, 77, 127
2, 76452, Note_off_c, 5, 77, 127
2, 76454, Note_on_c, 10, 81, 127
2, 76566, Note_off_c, 10, 81, 127
2, 76568, Note_on_c, 5, 77, 127
2, 76679, Note_off_c, 5, 77, 127
2, 76681, Note_on_c, 2, 74, 127
2, 76793, Note_off_c, 2, 74, 127
2, 76795, Note_on_c, 5, 77, 127
2, 76906, Note_off_c, 5, 77, 127
2, 76908, Note_on_c, 2, 74, 127
2, 77020, Note_off_c, 2, 74, 127
2, 77022, Note_on_c, 10, 69, 127
2, 77133, Note_off_c, 10, 69, 127
2, 77135, Note_on_c, 2, 74, 127
2, 77247, Note_off_c, 2, 74, 127
2, 77249, Note_on_c, 10, 69, 127
2, 77360, Note_off_c, 10, 69, 127
2, 77362, Note_on_c, 5, 65, 127
2, 77473, Note_off_c, 5, 65, 127
2, 77475, Note_on_c, 10, 69, 127
2, 77587, Note_off_c, 10, 69, 127
2, 77589, Note_on_c, 5, 65, 127
2, 77700, Note_off_c, 5, 65, 127
2, 77702, Note_on_c, 2, 62, 127
2, 77814, Note_off_c, 2, 62, 127
2, 77816, Note_on_c, 5, 65, 127
2, 77927, Note_off_c, 5, 65, 127
2, 77929, Note_on_c, 2, 62, 127
2, 78041, Note_off_c, 2, 62, 127
2, 78043, Note_on_c, 10, 57, 127
2, 78154, Note_off_c, 10, 57, 127
2, 78156, Note_on_c, 2, 62, 127
2, 78268, Note_off_c, 2, 62, 127
2, 78270, Note_on_c, 10, 57, 127
2, 78381, Note_off_c, 10, 57, 127
2, 78383, Note_on_c, 5, 53, 127
2, 78494, Note_off_c, 5, 53, 127
2, 78496, Note_on_c, 10, 57, 127
2, 78608, Note_off_c, 10, 57, 127
2, 78610, Note_on_c, 5, 53, 127
2, 78721, Note_off_c, 5, 53, 127
2, 78723, Note_on_c, 2, 50, 127
2, 78871, Note_on_c, 5, 53, 127
2, 78992, Note_on_c, 10, 57, 127
2, 79113, Note_on_c, 2, 62, 127
2, 79234, Note_on_c, 5, 65, 127
2, 79355, Note_on_c, 10, 69, 127
2, 79476, Note_on_c, 2, 74, 127
2, 79591, Note_off_c, 10, 69, 127
2, 79597, Note_on_c, 10, 69, 127
2, 79702, Note_off_c, 5, 65, 127
2, 79718, Note_on_c, 5, 65, 127
2, 79821, Note_off_c, 2, 62, 127
2, 79839, Note_on_c, 2, 62, 127
2, 79944, Note_off_c, 10, 57, 127
2, 79960, Note_on_c, 10, 57, 127
2, 80079, Note_off_c, 5, 53, 127
2, 80081, Note_on_c, 5, 53, 127
2, 80187, Note_off_c, 2, 50, 127
2, 80192, Note_off_c, 10, 57, 127
2, 80192, Note_off_c, 2, 74, 127
2, 80193, Note_off_c, 10, 69, 127
2, 80194, Note_off_c, 5, 65, 127
2, 80200, Note_off_c, 5, 53, 127
2, 80202, Note_on_c, 2, 50, 127
2, 80203, Note_off_c, 2, 62, 127
2, 80312, Note_on_c, 4, 52, 127
2, 80421, Note_on_c, 7, 55, 127
2, 80530, Note_on_c, 1, 61, 127
2, 80639, Note_on_c, 4, 64, 127
2, 80749, Note_on_c, 7, 67, 127
2, 80858, Note_on_c, 11, 70, 127
2, 80967, Note_on_c, 4, 76, 127
2, 81062, Note_off_c, 11, 70, 127
2, 81076, Note_on_c, 11, 70, 127
2, 81169, Note_off_c, 7, 67, 127
2, 81186, Note_on_c, 7, 67, 127
2, 81279, Note_off_c, 4, 64, 127
2, 81295, Note_on_c, 4, 64, 127
2, 81390, Note_off_c, 1, 61, 127
2, 81404, Note_on_c, 1, 61, 127
2, 81497, Note_off_c, 7, 55, 127
2, 81513, Note_on_c, 7, 55, 127
2, 81608, Note_off_c, 4, 52, 127
2, 81623, Note_on_c, 4, 52, 127
2, 81720, Note_off_c, 1, 61, 127
2, 81722, Note_off_c, 7, 67, 127
2, 81722, Note_off_c, 2, 50, 127
2, 81724, Note_off_c, 11, 70, 127
2, 81725, Note_off_c, 7, 55, 127
2, 81727, Note_off_c, 4, 64, 127
2, 81727, Note_off_c, 4, 76, 127
2, 81730, Note_off_c, 4, 52, 127
2, 81732, Note_on_c, 2, 50, 127
2, 81836, Note_on_c, 5, 53, 127
2, 81940, Note_on_c, 10, 57, 127
2, 82044, Note_on_c, 2, 62, 127
2, 82149, Note_on_c, 5, 65, 127
2, 82253, Note_on_c, 10, 69, 127
2, 82357, Note_on_c, 2, 74, 127
2, 82461, Note_on_c, 5, 77, 127
2, 82553, Note_off_c, 2, 74, 127
2, 82565, Note_on_c, 2, 74, 127
2, 82657, Note_off_c, 10, 69, 127
2, 82670, Note_on_c, 10, 69, 127
2, 82769, Note_off_c, 5, 65, 127
2, 82774, Note_on_c, 5, 65, 127
2, 82860, Note_off_c, 2, 62, 127
2, 82878, Note_on_c, 2, 62, 127
2, 82964, Note_off_c, 10, 57, 127
2, 82982, Note_on_c, 10, 57, 127
2, 83068, Note_off_c, 5, 53, 127
2, 83086, Note_on_c, 5, 53, 127
2, 83165, Note_off_c, 2, 74, 127
2, 83166, Note_off_c, 10, 69, 127
2, 83169, Note_off_c, 5, 77, 127
2, 83170, Note_off_c, 5, 65, 127
2, 83174, Note_off_c, 2, 62, 127
2, 83180, Note_off_c, 2, 50, 127
2, 83186, Note_off_c, 10, 57, 127
2, 83189, Note_off_c, 5, 53, 127
2, 83191, Note_on_c, 2, 50, 127
2, 83292, Note_on_c, 6, 54, 127
2, 83394, Note_on_c, 10, 57, 127
2, 83496, Note_on_c, 0, 60, 127
2, 83597, Note_on_c, 10, 69, 127
2, 83699, Note_on_c, 0, 72, 127
2, 83801, Note_on_c, 3, 75, 127
2, 83902, Note_on_c, 6, 78, 127
2, 83997, Note_off_c, 3, 75, 127
2, 84004, Note_on_c, 3, 75, 127
2, 84099, Note_off_c, 0, 72, 127
2, 84106, Note_on_c, 0, 72, 127
2, 84189, Note_off_c, 10, 69, 127
2, 84207, Note_on_c, 10, 69, 127
2, 84296, Note_off_c, 0, 60, 127
2, 84309, Note_on_c, 0, 60, 127
2, 84398, Note_off_c, 10, 57, 127
2, 84411, Note_on_c, 10, 57, 127
2, 84504, Note_off_c, 6, 54, 127
2, 84512, Note_on_c, 6, 54, 127
2, 84606, Note_off_c, 6, 78, 127
2, 84607, Note_off_c, 10, 57, 127
2, 84607, Note_off_c, 10, 69, 127
2, 84607, Note_off_c, 2, 50, 127
2, 84608, Note_off_c, 3, 75, 127
2, 84609, Note_off_c, 0, 60, 127
2, 84612, Note_off_c, 6, 54, 127
2, 84614, Note_off_c, 0, 72, 127
2, 84614, Note_on_c, 2, 50, 127
2, 84713, Note_on_c, 7, 55, 127
2, 84812, Note_on_c, 11, 58, 127
2, 84912, Note_on_c, 2, 62, 127
2, 85011, Note_on_c, 7, 67, 127
2, 85110, Note_on_c, 11, 70, 127
2, 85209, Note_on_c, 2, 74, 127
2, 85308, Note_on_c, 7, 79, 127
2, 85389, Note_off_c, 2, 74, 127
2, 85407, Note_on_c, 2, 74, 127
2, 85494, Note_off_c, 11, 70, 127
2, 85507, Note_on_c, 11, 70, 127
2, 85591, Note_off_c, 7, 67, 127
2, 85606, Note_on_c, 7, 67, 127
2, 85688, Note_off_c, 2, 62, 127
2, 85705, Note_on_c, 2, 62, 127
2, 85788, Note_off_c, 11, 58, 127
2, 85804, Note_on_c, 11, 58, 127
2, 85889, Note_off_c, 7, 55, 127
2, 85903, Note_on_c, 7, 55, 127
2, 85980, Note_off_c, 7, 79, 127
2, 85982, Note_off_c, 7, 67, 127
2, 85983, Note_off_c, 2, 74, 127
2, 85987, Note_off_c, 11, 70, 127
2, 85993, Note_off_c, 2, 62, 127
2, 85994, Note_off_c, 2, 50, 127
2, 85996, Note_off_c, 11, 58, 127
2, 86000, Note_off_c, 7, 55, 127
2, 86002, Note_on_c, 2, 50, 127
2, 86099, Note_on_c, 5, 53, 127
2, 86196, Note_on_c, 8, 56, 127
2, 86292, Note_on_c, 12, 59, 127
2, 86389, Note_on_c, 12, 71, 127
2, 86486, Note_on_c, 2, 74, 127
2, 86582, Note_on_c, 5, 77, 127
2, 86679, Note_on_c, 8, 80, 127
2, 86758, Note_off_c, 5, 77, 127
2, 86775, Note_on_c, 5, 77, 127
2, 86854, Note_off_c, 2, 74, 127
2, 86872, Note_on_c, 2, 74, 127
2, 86953, Note_off_c, 12, 71, 127
2, 86969, Note_on_c, 12, 71, 127
2, 87048, Note_off_c, 12, 59, 127
2, 87065, Note_on_c, 12, 59, 127
2, 87144, Note_off_c, 8, 56, 127
2, 87162, Note_on_c, 8, 56, 127
2, 87251, Note_off_c, 5, 53, 127
2, 87259, Note_on_c, 5, 53, 127
2, 87320, Note_off_c, 2, 74, 127
2, 87321, Note_off_c, 12, 71, 127
2, 87323, Note_off_c, 5, 77, 127
2, 87327, Note_off_c, 8, 80, 127
2, 87333, Note_off_c, 12, 59, 127
2, 87342, Note_off_c, 8, 56, 127
2, 87342, Note_off_c, 2, 50, 127
2, 87353, Note_off_c, 5, 53, 127
2, 87355, Note_on_c, 2, 50, 127
2, 87450, Note_off_c, 2, 50, 127
2, 87452, Note_on_c, 1, 49, 127
2, 87640, Note_on_c, 4, 52, 127
2, 87728, Note_on_c, 10, 57, 127
2, 87815, Note_on_c, 4, 64, 127
2, 87901, Note_off_c, 4, 64, 127
2, 87903, Note_on_c, 10, 69, 127
2, 87990, Note_on_c, 1, 73, 127
2, 88077, Note_on_c, 4, 76, 127
2, 88165, Note_on_c, 10, 81, 127
2, 88533, Note_off_c, 4, 76, 127
2, 88542, Note_off_c, 1, 73, 127
2, 88543, Note_off_c, 10, 69, 127
2, 88640, Note_off_c, 10, 57, 127
2, 88640, Note_off_c, 4, 52, 127
2, 88647, Note_off_c, 10, 81, 127
2, 88649, Note_on_c, 11, 82, 127
2, 88652, Note_off_c, 1, 49, 127
2, 88766, Note_off_c, 11, 82, 127
2, 88768, Note_on_c, 10, 81, 127
2, 88885, Note_off_c, 10, 81, 127
2, 88887, Note_on_c, 11, 82, 127
2, 89005, Note_off_c, 11, 82, 127
2, 89007, Note_on_c, 10, 81, 127
2, 89124, Note_off_c, 10, 81, 127
2, 89126, Note_on_c, 11, 82, 127
2, 89243, Note_off_c, 11, 82, 127
2, 89245, Note_on_c, 10, 81, 127
2, 89371, Note_off_c, 10, 81, 127
2, 89373, Note_on_c, 11, 82, 127
2, 89505, Note_off_c, 11, 82, 127
2, 89507, Note_on_c, 10, 81, 127
2, 89640, Note_on_c, 7, 79, 127
2, 89642, Note_off_c, 10, 81, 127
2, 89772, Note_off_c, 7, 79, 127
2, 89774, Note_on_c, 10, 81, 127
2, 89868, Note_on_c, 7, 43, 127
2, 89909, Note_off_c, 10, 81, 127
2, 89964, Note_on_c, 11, 46, 127
2, 90061, Note_on_c, 1, 49, 127
2, 90158, Note_on_c, 4, 52, 127
2, 90254, Note_on_c, 7, 55, 127
2, 90351, Note_on_c, 1, 61, 127
2, 90446, Note_off_c, 1, 61, 127
2, 90448, Note_on_c, 4, 64, 127
2, 90542, Note_off_c, 4, 64, 127
2, 90544, Note_on_c, 7, 67, 127
2, 90639, Note_off_c, 7, 67, 127
2, 90641, Note_on_c, 11, 70, 127
2, 90737, Note_on_c, 1, 73, 127
2, 90834, Note_on_c, 4, 76, 127
2, 90931, Note_on_c, 7, 79, 127
2, 91027, Note_on_c, 11, 82, 127
2, 91441, Note_off_c, 1, 73, 127
2, 91445, Note_off_c, 11, 70, 127
2, 91450, Note_off_c, 4, 76, 127
2, 91451, Note_off_c, 7, 79, 127
2, 91538, Note_off_c, 7, 55, 127
2, 91540, Note_off_c, 7, 43, 127
2, 91544, Note_off_c, 11, 46, 127
2, 91545, Note_off_c, 1, 49, 127
2, 91550, Note_off_c, 4, 52, 127
2, 91699, Note_on_c, 10, 81, 127
2, 91716, Note_off_c, 11, 82, 127
2, 91807, Note_off_c, 10, 81, 127
2, 91809, Note_on_c, 7, 79, 127
2, 91916, Note_off_c, 7, 79, 127
2, 91918, Note_on_c, 5, 77, 127
2, 92025, Note_off_c, 5, 77, 127
2, 92027, Note_on_c, 4, 76, 127
2, 92134, Note_off_c, 4, 76, 127
2, 92136, Note_on_c, 5, 77, 127
2, 92244, Note_off_c, 5, 77, 127
2, 92246, Note_on_c, 7, 79, 127
2, 92353, Note_off_c, 7, 79, 127
2, 92355, Note_on_c, 4, 76, 127
2, 92462, Note_off_c, 4, 76, 127
2, 92464, Note_on_c, 1, 73, 127
2, 92571, Note_off_c, 1, 73, 127
2, 92573, Note_on_c, 2, 74, 127
2, 92680, Note_off_c, 2, 74, 127
2, 92682, Note_on_c, 4, 76, 127
2, 92790, Note_off_c, 4, 76, 127
2, 92792, Note_on_c, 1, 73, 127
2, 92899, Note_off_c, 1, 73, 127
2, 92901, Note_on_c, 7, 67, 127
2, 93008, Note_off_c, 7, 67, 127
2, 93010, Note_on_c, 10, 69, 127
2, 93117, Note_off_c, 10, 69, 127
2, 93119, Note_on_c, 11, 70, 127
2, 93227, Note_off_c, 11, 70, 127
2, 93229, Note_on_c, 7, 67, 127
2, 93336, Note_off_c, 7, 67, 127
2, 93338, Note_on_c, 4, 64, 127
2, 93445, Note_off_c, 4, 64, 127
2, 93447, Note_on_c, 5, 65, 127
2, 93554, Note_off_c, 5, 65, 127
2, 93556, Note_on_c, 7, 67, 127
2, 93664, Note_off_c, 7, 67, 127
2, 93666, Note_on_c, 4, 64, 127
2, 93773, Note_off_c, 4, 64, 127
2, 93775, Note_on_c, 1, 61, 127
2, 93882, Note_off_c, 1, 61, 127
2, 93884, Note_on_c, 2, 62, 127
2, 93991, Note_off_c, 2, 62, 127
2, 93993, Note_on_c, 4, 64, 127
2, 94101, Note_off_c, 4, 64, 127
2, 94103, Note_on_c, 1, 61, 127
2, 94210, Note_off_c, 1, 61, 127
2, 94212, Note_on_c, 7, 55, 127
2, 94319, Note_off_c, 7, 55, 127
2, 94321, Note_on_c, 10, 57, 127
2, 94428, Note_off_c, 10, 57, 127
2, 94430, Note_on_c, 11, 58, 127
2, 94538, Note_off_c, 11, 58, 127
2, 94540, Note_on_c, 7, 55, 127
2, 94647, Note_off_c, 7, 55, 127
2, 94649, Note_on_c, 4, 52, 127
2, 94756, Note_off_c, 4, 52, 127
2, 94758, Note_on_c, 5, 53, 127
2, 94865, Note_off_c, 5, 53, 127
2, 94867, Note_on_c, 7, 55, 127
2, 94975, Note_off_c, 7, 55, 127
2, 94977, Note_on_c, 4, 52, 127
2, 95084, Note_off_c, 4, 52, 127
2, 95086, Note_on_c, 1, 49, 127
2, 95193, Note_off_c, 1, 49, 127
2, 95195, Note_on_c, 2, 50, 127
2, 95302, Note_off_c, 2, 50, 127
2, 95304, Note_on_c, 4, 52, 127
2, 95412, Note_off_c, 4, 52, 127
2, 95414, Note_on_c, 1, 49, 127
2, 95521, Note_off_c, 1, 49, 127
2, 95523, Note_on_c, 10, 45, 127
2, 95625, Note_off_c, 10, 45, 127
2, 95627, Note_on_c, 12, 47, 127
2, 95729, Note_off_c, 12, 47, 127
2, 95731, Note_on_c, 1, 49, 127
2, 95833, Note_off_c, 1, 49, 127
2, 95835, Note_on_c, 2, 50, 127
2, 95938, Note_off_c, 2, 50, 127
2, 95940, Note_on_c, 4, 52, 127
2, 96042, Note_off_c, 4, 52, 127
2, 96044, Note_on_c, 5, 53, 127
2, 96146, Note_off_c, 5, 53, 127
2, 96148, Note_on_c, 7, 55, 127
2, 96250, Note_off_c, 7, 55, 127
2, 96252, Note_on_c, 4, 52, 127
2, 96354, Note_off_c, 4, 52, 127
2, 96356, Note_on_c, 1, 49, 127
2, 96459, Note_off_c, 1, 49, 127
2, 96461, Note_on_c, 2, 50, 127
2, 96563, Note_off_c, 2, 50, 127
2, 96565, Note_on_c, 4, 52, 127
2, 96667, Note_off_c, 4, 52, 127
2, 96669, Note_on_c, 5, 53, 127
2, 96771, Note_off_c, 5, 53, 127
2, 96773, Note_on_c, 7, 55, 127
2, 96875, Note_off_c, 7, 55, 127
2, 96877, Note_on_c, 10, 57, 127
2, 96980, Note_off_c, 10, 57, 127
2, 96982, Note_on_c, 11, 58, 127
2, 97084, Note_off_c, 11, 58, 127
2, 97086, Note_on_c, 7, 55, 127
2, 97188, Note_off_c, 7, 55, 127
2, 97190, Note_on_c, 4, 52, 127
2, 97292, Note_off_c, 4, 52, 127
2, 97294, Note_on_c, 5, 53, 127
2, 97396, Note_off_c, 5, 53, 127
2, 97398, Note_on_c, 7, 55, 127
2, 97501, Note_off_c, 7, 55, 127
2, 97503, Note_on_c, 4, 52, 127
2, 97605, Note_off_c, 4, 52, 127
2, 97607, Note_on_c, 1, 49, 127
2, 97709, Note_off_c, 1, 49, 127
2, 97711, Note_on_c, 2, 50, 127
2, 97813, Note_off_c, 2, 50, 127
2, 97815, Note_on_c, 4, 52, 127
2, 97917, Note_off_c, 4, 52, 127
2, 97919, Note_on_c, 1, 49, 127
2, 98022, Note_off_c, 1, 49, 127
2, 98024, Note_on_c, 10, 45, 127
2, 98126, Note_off_c, 10, 45, 127
2, 98128, Note_on_c, 12, 47, 127
2, 98230, Note_off_c, 12, 47, 127
2, 98232, Note_on_c, 1, 49, 127
2, 98341, Note_off_c, 1, 49, 127
2, 98343, Note_on_c, 10, 45, 127
2, 98462, Note_off_c, 10, 45, 127
2, 98464, Note_on_c, 6, 42, 127
2, 98792, Note_on_c, 10, 45, 127
2, 98905, Note_on_c, 0, 48, 127
2, 99019, Note_on_c, 3, 51, 127
2, 99132, Note_on_c, 6, 54, 127
2, 99246, Note_on_c, 10, 57, 127
2, 99357, Note_off_c, 10, 57, 127
2, 99359, Note_on_c, 0, 60, 127
2, 99471, Note_off_c, 0, 60, 127
2, 99473, Note_on_c, 3, 63, 127
2, 99584, Note_off_c, 3, 63, 127
2, 99586, Note_on_c, 6, 66, 127
2, 99697, Note_off_c, 6, 66, 127
2, 99699, Note_on_c, 10, 69, 127
2, 99811, Note_off_c, 10, 69, 127
2, 99813, Note_on_c, 0, 72, 127
2, 99924, Note_off_c, 0, 72, 127
2, 99926, Note_on_c, 3, 75, 127
2, 99940, Note_off_c, 3, 51, 127
2, 100171, Note_off_c, 3, 75, 127
2, 100173, Note_on_c, 2, 74, 127
2, 100393, Note_off_c, 0, 48, 127
2, 100396, Note_off_c, 6, 54, 127
2, 100400, Note_off_c, 10, 45, 127
2, 100408, Note_off_c, 6, 42, 127
2, 100420, Note_on_c, 6, 54, 127
2, 100513, Note_on_c, 10, 57, 127
2, 100605, Note_on_c, 2, 62, 127
2, 100698, Note_on_c, 6, 66, 127
2, 100790, Note_on_c, 10, 69, 127
2, 100877, Note_off_c, 2, 74, 127
2, 100895, Note_on_c, 2, 74, 127
2, 101541, Note_on_c, 0, 72, 127
2, 101545, Note_off_c, 2, 74, 127
2, 101605, Note_off_c, 2, 62, 127
2, 101614, Note_off_c, 6, 66, 127
2, 101615, Note_off_c, 10, 69, 127
2, 101629, Note_off_c, 10, 57, 127
2, 101632, Note_off_c, 6, 54, 127
2, 102372, Note_off_c, 0, 72, 127
2, 102450, Note_on_c, 3, 51, 127
2, 102564, Note_on_c, 6, 54, 127
2, 102677, Note_on_c, 10, 57, 127
2, 102791, Note_on_c, 12, 59, 127
2, 102904, Note_on_c, 3, 63, 127
2, 103017, Note_on_c, 6, 66, 127
2, 103131, Note_on_c, 10, 69, 127
2, 103244, Note_on_c, 12, 71, 127
2, 103351, Note_off_c, 10, 69, 127
2, 103358, Note_on_c, 10, 69, 127
2, 103465, Note_off_c, 6, 66, 127
2, 103471, Note_on_c, 6, 66, 127
2, 103576, Note_off_c, 3, 63, 127
2, 103585, Note_on_c, 3, 63, 127
2, 103691, Note_off_c, 12, 59, 127
2, 103698, Note_on_c, 12, 59, 127
2, 103805, Note_off_c, 10, 57, 127
2, 103812, Note_on_c, 10, 57, 127
2, 103912, Note_off_c, 6, 54, 127
2, 103925, Note_on_c, 6, 54, 127
2, 103994, Note_off_c, 12, 59, 127
2, 104020, Note_off_c, 12, 71, 127
2, 104026, Note_off_c, 3, 51, 127
2, 104038, Note_on_c, 3, 51, 127
2, 104141, Note_off_c, 6, 54, 127
2, 104150, Note_on_c, 6, 54, 127
2, 104248, Note_off_c, 10, 57, 127
2, 104262, Note_on_c, 10, 57, 127
2, 104374, Note_on_c, 0, 60, 127
2, 104477, Note_off_c, 3, 63, 127
2, 104486, Note_on_c, 3, 63, 127
2, 104595, Note_off_c, 6, 66, 127
2, 104597, Note_on_c, 6, 66, 127
2, 104698, Note_off_c, 10, 69, 127
2, 104709, Note_on_c, 10, 69, 127
2, 104821, Note_on_c, 0, 72, 127
2, 104913, Note_off_c, 10, 69, 127
2, 104933, Note_on_c, 10, 69, 127
2, 105037, Note_off_c, 6, 66, 127
2, 105044, Note_on_c, 6, 66, 127
2, 105150, Note_off_c, 3, 63, 127
2, 105156, Note_on_c, 3, 63, 127
2, 105258, Note_off_c, 0, 60, 127
2, 105268, Note_on_c, 0, 60, 127
2, 105374, Note_off_c, 10, 57, 127
2, 105380, Note_on_c, 10, 57, 127
2, 105474, Note_off_c, 6, 54, 127
2, 105491, Note_on_c, 6, 54, 127
2, 105564, Note_off_c, 0, 60, 127
2, 105568, Note_off_c, 3, 63, 127
2, 105572, Note_off_c, 6, 66, 127
2, 105576, Note_off_c, 10, 57, 127
2, 105581, Note_off_c, 10, 69, 127
2, 105581, Note_off_c, 0, 72, 127
2, 105586, Note_off_c, 3, 51, 127
2, 105601, Note_off_c, 6, 54, 127
2, 105603, Note_on_c, 4, 52, 127
2, 105712, Note_on_c, 7, 55, 127
2, 105822, Note_on_c, 11, 58, 127
2, 105931, Note_on_c, 1, 61, 127
2, 106040, Note_on_c, 4, 64, 127
2, 106149, Note_on_c, 7, 67, 127
2, 106259, Note_on_c, 11, 70, 127
2, 106368, Note_on_c, 1, 73, 127
2, 106475, Note_off_c, 11, 70, 127
2, 106477, Note_on_c, 11, 70, 127
2, 106479, Note_off_c, 4, 52, 127
2, 106573, Note_off_c, 7, 67, 127
2, 106586, Note_on_c, 7, 67, 127
2, 106688, Note_off_c, 4, 64, 127
2, 106696, Note_on_c, 4, 64, 127
2, 106799, Note_off_c, 1, 61, 127
2, 106805, Note_on_c, 1, 61, 127
2, 106902, Note_off_c, 11, 58, 127
2, 106914, Note_on_c, 11, 58, 127
2, 107004, Note_off_c, 1, 73, 127
2, 107004, Note_off_c, 7, 55, 127
2, 107009, Note_off_c, 11, 70, 127
2, 107016, Note_off_c, 4, 64, 127
2, 107018, Note_off_c, 7, 67, 127
2, 107021, Note_off_c, 11, 58, 127
2, 107023, Note_on_c, 7, 55, 127
2, 107025, Note_off_c, 1, 61, 127
2, 107131, Note_off_c, 7, 55, 127
2, 107133, Note_on_c, 8, 56, 127
2, 107242, Note_on_c, 12, 59, 127
2, 107351, Note_on_c, 2, 62, 127
2, 107460, Note_on_c, 5, 65, 127
2, 107570, Note_on_c, 8, 68, 127
2, 107679, Note_on_c, 12, 71, 127
2, 107788, Note_on_c, 2, 74, 127
2, 107887, Note_off_c, 12, 71, 127
2, 107897, Note_on_c, 12, 71, 127
2, 107998, Note_off_c, 8, 68, 127
2, 108007, Note_on_c, 8, 68, 127
2, 108104, Note_off_c, 5, 65, 127
2, 108116, Note_on_c, 5, 65, 127
2, 108211, Note_off_c, 2, 62, 127
2, 108223, Note_off_c, 5, 65, 127
2, 108225, Note_on_c, 2, 62, 127
2, 108314, Note_off_c, 12, 59, 127
2, 108332, Note_off_c, 2, 62, 127
2, 108334, Note_on_c, 12, 59, 127
2, 108429, Note_off_c, 8, 56, 127
2, 108444, Note_on_c, 8, 56, 127
2, 108566, Note_on_c, 0, 48, 127
2, 108699, Note_on_c, 4, 52, 127
2, 108808, Note_off_c, 8, 56, 127
2, 108818, Note_on_c, 8, 56, 127
2, 108922, Note_off_c, 12, 59, 127
2, 108938, Note_on_c, 12, 59, 127
2, 109057, Note_on_c, 4, 64, 127
2, 109167, Note_off_c, 8, 68, 127
2, 109176, Note_on_c, 8, 68, 127
2, 109281, Note_off_c, 12, 71, 127
2, 109296, Note_on_c, 12, 71, 127
2, 109396, Note_off_c, 2, 74, 127
2, 109415, Note_on_c, 2, 74, 127
2, 109516, Note_off_c, 12, 71, 127
2, 109534, Note_on_c, 12, 71, 127
2, 109640, Note_off_c, 8, 68, 127
2, 109654, Note_on_c, 8, 68, 127
2, 109737, Note_off_c, 4, 64, 127
2, 109773, Note_on_c, 4, 64, 127
2, 109874, Note_off_c, 12, 59, 127
2, 109892, Note_on_c, 12, 59, 127
2, 110002, Note_off_c, 8, 56, 127
2, 110012, Note_on_c, 8, 56, 127
2, 110115, Note_off_c, 4, 52, 127
2, 110131, Note_on_c, 4, 52, 127
2, 110215, Note_off_c, 2, 74, 127
2, 110218, Note_off_c, 12, 71, 127
2, 110228, Note_off_c, 8, 56, 127
2, 110228, Note_off_c, 12, 59, 127
2, 110230, Note_off_c, 8, 68, 127
2, 110242, Note_off_c, 0, 48, 127
2, 110250, Note_on_c, 0, 48, 127
2, 110363, Note_off_c, 4, 52, 127
2, 110370, Note_on_c, 4, 52, 127
2, 110489, Note_on_c, 10, 57, 127
2, 110608, Note_on_c, 0, 60, 127
2, 110717, Note_off_c, 4, 64, 127
2, 110728, Note_on_c, 4, 64, 127
2, 110847, Note_on_c, 10, 69, 127
2, 110966, Note_on_c, 0, 72, 127
2, 111079, Note_off_c, 10, 69, 127
2, 111086, Note_on_c, 10, 69, 127
2, 111192, Note_off_c, 4, 64, 127
2, 111205, Note_on_c, 4, 64, 127
2, 111312, Note_off_c, 0, 60, 127
2, 111324, Note_on_c, 0, 60, 127
2, 111341, Note_off_c, 4, 64, 127
2, 111358, Note_off_c, 10, 69, 127
2, 111358, Note_off_c, 0, 72, 127
2, 111433, Note_off_c, 10, 57, 127
2, 111444, Note_on_c, 10, 57, 127
2, 111550, Note_off_c, 4, 52, 127
2, 111563, Note_on_c, 4, 52, 127
2, 111674, Note_off_c, 0, 48, 127
2, 111680, Note_off_c, 4, 52, 127
2, 111682, Note_on_c, 0, 48, 127
2, 111813, Note_off_c, 0, 48, 127
2, 111815, Note_on_c, 6, 54, 127
2, 111904, Note_off_c, 10, 57, 127
2, 111924, Note_on_c, 10, 57, 127
2, 112016, Note_off_c, 0, 60, 127
2, 112033, Note_on_c, 0, 60, 127
2, 112143, Note_on_c, 3, 63, 127
2, 112252, Note_on_c, 6, 66, 127
2, 112361, Note_on_c, 10, 69, 127
2, 112470, Note_on_c, 0, 72, 127
2, 112565, Note_off_c, 10, 69, 127
2, 112580, Note_on_c, 10, 69, 127
2, 112680, Note_off_c, 6, 66, 127
2, 112689, Note_on_c, 6, 66, 127
2, 112783, Note_off_c, 3, 63, 127
2, 112798, Note_on_c, 3, 63, 127
2, 112893, Note_off_c, 0, 60, 127
2, 112907, Note_on_c, 0, 60, 127
2, 113004, Note_off_c, 10, 57, 127
2, 113017, Note_on_c, 10, 57, 127
2, 113107, Note_off_c, 6, 54, 127
2, 113126, Note_on_c, 6, 54, 127
2, 113205, Note_off_c, 10, 57, 127
2, 113211, Note_off_c, 0, 60, 127
2, 113217, Note_off_c, 6, 66, 127
2, 113218, Note_off_c, 0, 72, 127
2, 113220, Note_off_c, 10, 69, 127
2, 113222, Note_off_c, 3, 63, 127
2, 113233, Note_off_c, 6, 54, 127
2, 113235, Note_on_c, 7, 55, 127
2, 113344, Note_on_c, 11, 58, 127
2, 113454, Note_on_c, 1, 61, 127
2, 113563, Note_on_c, 4, 64, 127
2, 113672, Note_on_c, 11, 70, 127
2, 113781, Note_on_c, 1, 73, 127
2, 113880, Note_off_c, 11, 70, 127
2, 113891, Note_on_c, 11, 70, 127
2, 113995, Note_off_c, 4, 64, 127
2, 114000, Note_on_c, 4, 64, 127
2, 114102, Note_off_c, 1, 61, 127
2, 114109, Note_on_c, 1, 61, 127
2, 114204, Note_off_c, 11, 58, 127
2, 114218, Note_on_c, 11, 58, 127
2, 114319, Note_off_c, 7, 55, 127
2, 114328, Note_on_c, 7, 55, 127
2, 114427, Note_off_c, 11, 70, 127
2, 114428, Note_off_c, 4, 64, 127
2, 114429, Note_off_c, 1, 73, 127
2, 114430, Note_off_c, 11, 58, 127
2, 114435, Note_off_c, 7, 55, 127
2, 114437, Note_off_c, 1, 61, 127
2, 114437, Note_on_c, 5, 53, 127
2, 114549, Note_on_c, 10, 57, 127
2, 114660, Note_on_c, 0, 60, 127
2, 114772, Note_on_c, 5, 65, 127
2, 114884, Note_on_c, 10, 69, 127
2, 114996, Note_on_c, 0, 72, 127
2, 115107, Note_on_c, 3, 75, 127
2, 115204, Note_off_c, 0, 72, 127
2, 115219, Note_on_c, 0, 72, 127
2, 115320, Note_off_c, 10, 69, 127
2, 115331, Note_on_c, 10, 69, 127
2, 115428, Note_off_c, 5, 65, 127
2, 115443, Note_on_c, 5, 65, 127
2, 115540, Note_off_c, 0, 60, 127
2, 115554, Note_on_c, 0, 60, 127
2, 115653, Note_off_c, 10, 57, 127
2, 115666, Note_on_c, 10, 57, 127
2, 115765, Note_off_c, 5, 53, 127
2, 115778, Note_on_c, 5, 53, 127
2, 115855, Note_off_c, 10, 69, 127
2, 115863, Note_off_c, 0, 72, 127
2, 115867, Note_off_c, 5, 65, 127
2, 115870, Note_off_c, 10, 57, 127
2, 115871, Note_off_c, 3, 75, 127
2, 115874, Note_off_c, 0, 60, 127
2, 115890, Note_on_c, 7, 55, 127
2, 116002, Note_on_c, 11, 58, 127
2, 116113, Note_on_c, 1, 61, 127
2, 116225, Note_on_c, 4, 64, 127
2, 116337, Note_on_c, 7, 67, 127
2, 116449, Note_on_c, 11, 70, 127
2, 116560, Note_on_c, 1, 73, 127
2, 116653, Note_off_c, 11, 70, 127
2, 116672, Note_on_c, 11, 70, 127
2, 116781, Note_off_c, 7, 67, 127
2, 116784, Note_on_c, 7, 67, 127
2, 116885, Note_off_c, 4, 64, 127
2, 116896, Note_on_c, 4, 64, 127
2, 116993, Note_off_c, 1, 61, 127
2, 117007, Note_on_c, 1, 61, 127
2, 117106, Note_off_c, 11, 58, 127
2, 117119, Note_on_c, 11, 58, 127
2, 117222, Note_off_c, 7, 55, 127
2, 117231, Note_on_c, 7, 55, 127
2, 117330, Note_off_c, 5, 53, 127
2, 117343, Note_on_c, 5, 53, 127
2, 117427, Note_off_c, 11, 58, 127
2, 117431, Note_off_c, 7, 55, 127
2, 117435, Note_off_c, 1, 61, 127
2, 117436, Note_off_c, 7, 67, 127
2, 117440, Note_off_c, 11, 70, 127
2, 117448, Note_off_c, 1, 73, 127
2, 117452, Note_on_c, 10, 57, 127
2, 117456, Note_off_c, 4, 64, 127
2, 117561, Note_on_c, 2, 62, 127
2, 117670, Note_on_c, 5, 65, 127
2, 117780, Note_on_c, 10, 69, 127
2, 117889, Note_on_c, 2, 74, 127
2, 117980, Note_off_c, 10, 69, 127
2, 117998, Note_on_c, 10, 69, 127
2, 118094, Note_off_c, 5, 65, 127
2, 118107, Note_on_c, 5, 65, 127
2, 118209, Note_off_c, 2, 62, 127
2, 118217, Note_on_c, 2, 62, 127
2, 118316, Note_off_c, 10, 57, 127
2, 118326, Note_on_c, 10, 57, 127
2, 118419, Note_off_c, 5, 53, 127
2, 118435, Note_on_c, 5, 53, 127
2, 118517, Note_off_c, 2, 74, 127
2, 118525, Note_off_c, 2, 62, 127
2, 118526, Note_off_c, 10, 69, 127
2, 118527, Note_off_c, 5, 65, 127
2, 118534, Note_off_c, 10, 57, 127
2, 118542, Note_off_c, 5, 53, 127
2, 118544, Note_on_c, 6, 54, 127
2, 118654, Note_on_c, 10, 57, 127
2, 118763, Note_on_c, 2, 62, 127
2, 118872, Note_on_c, 6, 66, 127
2, 118981, Note_on_c, 10, 69, 127
2, 119091, Note_on_c, 0, 72, 127
2, 119193, Note_off_c, 10, 69, 127
2, 119200, Note_on_c, 10, 69, 127
2, 119296, Note_off_c, 6, 66, 127
2, 119309, Note_on_c, 6, 66, 127
2, 119407, Note_off_c, 2, 62, 127
2, 119418, Note_on_c, 2, 62, 127
2, 119514, Note_off_c, 10, 57, 127
2, 119528, Note_on_c, 10, 57, 127
2, 119620, Note_off_c, 6, 54, 127
2, 119637, Note_on_c, 6, 54, 127
2, 119700, Note_off_c, 10, 69, 127
2, 119707, Note_off_c, 0, 72, 127
2, 119721, Note_off_c, 6, 66, 127
2, 119730, Note_off_c, 2, 62, 127
2, 119740, Note_off_c, 10, 57, 127
2, 119744, Note_off_c, 6, 54, 127
2, 119759, Note_on_c, 7, 55, 127
2, 119899, Note_on_c, 11, 58, 127
2, 120018, Note_on_c, 3, 63, 127
2, 120137, Note_on_c, 7, 67, 127
2, 120257, Note_on_c, 11, 70, 127
2, 120365, Note_off_c, 7, 67, 127
2, 120376, Note_on_c, 7, 67, 127
2, 120482, Note_off_c, 3, 63, 127
2, 120495, Note_on_c, 3, 63, 127
2, 120607, Note_off_c, 11, 58, 127
2, 120615, Note_on_c, 11, 58, 127
2, 120719, Note_off_c, 7, 55, 127
2, 120732, Note_off_c, 11, 58, 127
2, 120734, Note_on_c, 7, 55, 127
2, 120853, Note_on_c, 3, 51, 127
2, 121019, Note_on_c, 7, 43, 127
2, 121144, Note_on_c, 11, 46, 127
2, 121253, Note_off_c, 3, 51, 127
2, 121269, Note_on_c, 3, 51, 127
2, 121386, Note_off_c, 7, 55, 127
2, 121395, Note_on_c, 7, 55, 127
2, 121515, Note_off_c, 3, 63, 127
2, 121520, Note_on_c, 3, 63, 127
2, 121632, Note_off_c, 7, 67, 127
2, 121645, Note_on_c, 7, 67, 127
2, 121757, Note_off_c, 11, 70, 127
2, 121770, Note_on_c, 11, 70, 127
2, 122009, Note_off_c, 7, 67, 127
2, 122011, Note_off_c, 7, 55, 127
2, 122013, Note_off_c, 3, 51, 127
2, 122016, Note_off_c, 3, 63, 127
2, 122016, Note_off_c, 11, 46, 127
2, 122019, Note_off_c, 11, 70, 127
2, 122019, Note_off_c, 7, 43, 127
2, 122021, Note_on_c, 7, 43, 127
2, 122152, Note_on_c, 11, 46, 127
2, 122283, Note_on_c, 3, 51, 127
2, 122414, Note_on_c, 7, 55, 127
2, 122545, Note_on_c, 2, 62, 127
2, 122676, Note_on_c, 7, 67, 127
2, 122807, Note_on_c, 11, 70, 127
2, 123060, Note_off_c, 11, 46, 127
2, 123064, Note_off_c, 7, 67, 127
2, 123065, Note_off_c, 7, 43, 127
2, 123066, Note_off_c, 7, 55, 127
2, 123067, Note_off_c, 3, 51, 127
2, 123068, Note_off_c, 11, 70, 127
2, 123069, Note_off_c, 2, 62, 127
2, 123070, Note_on_c, 10, 45, 127
2, 123190, Note_on_c, 1, 49, 127
2, 123309, Note_on_c, 4, 52, 127
2, 123428, Note_on_c, 7, 55, 127
2, 123548, Note_on_c, 1, 61, 127
2, 123667, Note_on_c, 4, 64, 127
2, 123786, Note_on_c, 7, 67, 127
2, 123906, Note_on_c, 11, 70, 127
2, 124018, Note_off_c, 7, 67, 127
2, 124025, Note_on_c, 7, 67, 127
2, 124139, Note_off_c, 4, 64, 127
2, 124144, Note_on_c, 4, 64, 127
2, 124256, Note_off_c, 1, 61, 127
2, 124264, Note_on_c, 1, 61, 127
2, 124368, Note_off_c, 7, 55, 127
2, 124383, Note_on_c, 7, 55, 127
2, 124485, Note_off_c, 4, 52, 127
2, 124500, Note_off_c, 7, 55, 127
2, 124502, Note_on_c, 4, 52, 127
2, 124606, Note_off_c, 1, 49, 127
2, 124621, Note_on_c, 1, 49, 127
2, 124734, Note_off_c, 10, 45, 127
2, 124741, Note_on_c, 10, 45, 127
2, 124849, Note_off_c, 1, 49, 127
2, 124860, Note_on_c, 1, 49, 127
2, 124966, Note_off_c, 4, 52, 127
2, 124979, Note_on_c, 4, 52, 127
2, 125074, Note_off_c, 11, 70, 127
2, 125081, Note_off_c, 7, 67, 127
2, 125099, Note_on_c, 5, 53, 127
2, 125212, Note_off_c, 1, 61, 127
2, 125218, Note_on_c, 1, 61, 127
2, 125324, Note_off_c, 4, 64, 127
2, 125337, Note_on_c, 4, 64, 127
2, 125457, Note_on_c, 5, 65, 127
2, 125576, Note_on_c, 10, 69, 127
2, 125685, Note_off_c, 5, 65, 127
2, 125695, Note_on_c, 5, 65, 127
2, 125797, Note_off_c, 4, 64, 127
2, 125815, Note_on_c, 4, 64, 127
2, 125918, Note_off_c, 1, 61, 127
2, 125934, Note_on_c, 1, 61, 127
2, 126039, Note_off_c, 5, 53, 127
2, 126053, Note_on_c, 5, 53, 127
2, 126159, Note_off_c, 4, 52, 127
2, 126173, Note_on_c, 4, 52, 127
2, 126276, Note_off_c, 1, 49, 127
2, 126292, Note_on_c, 1, 49, 127
2, 126401, Note_off_c, 10, 45, 127
2, 126411, Note_on_c, 10, 45, 127
2, 126508, Note_off_c, 10, 69, 127
2, 126511, Note_off_c, 4, 64, 127
2, 126513, Note_off_c, 4, 52, 127
2, 126515, Note_off_c, 5, 65, 127
2, 126518, Note_off_c, 1, 61, 127
2, 126520, Note_off_c, 1, 49, 127
2, 126525, Note_off_c, 5, 53, 127
2, 126537, Note_off_c, 10, 45, 127
2, 126539, Note_on_c, 11, 46, 127
2, 126711, Note_on_c, 2, 50, 127
2, 126830, Note_on_c, 5, 53, 127
2, 126949, Note_on_c, 2, 62, 127
2, 127069, Note_on_c, 5, 65, 127
2, 127188, Note_on_c, 10, 69, 127
2, 127670, Note_off_c, 5, 53, 127
2, 127675, Note_off_c, 11, 46, 127
2, 127679, Note_off_c, 2, 50, 127
2, 127763, Note_on_c, 7, 67, 127
2, 127765, Note_off_c, 10, 69, 127
2, 127765, Note_off_c, 5, 65, 127
2, 127769, Note_off_c, 2, 62, 127
2, 127900, Note_off_c, 7, 67, 127
2, 127902, Note_on_c, 5, 65, 127
2, 128040, Note_off_c, 5, 65, 127
2, 128042, Note_on_c, 4, 64, 127
2, 128179, Note_off_c, 4, 64, 127
2, 128181, Note_on_c, 5, 65, 127
2, 128319, Note_off_c, 5, 65, 127
2, 128321, Note_on_c, 1, 61, 127
2, 128458, Note_off_c, 1, 61, 127
2, 128460, Note_on_c, 2, 62, 127
2, 128598, Note_off_c, 2, 62, 127
2, 128600, Note_on_c, 10, 57, 127
2, 128737, Note_off_c, 10, 57, 127
2, 128739, Note_on_c, 11, 58, 127
2, 128877, Note_off_c, 11, 58, 127
2, 128879, Note_on_c, 8, 56, 127
2, 129016, Note_off_c, 8, 56, 127
2, 129018, Note_on_c, 10, 57, 127
2, 129156, Note_off_c, 10, 57, 127
2, 129158, Note_on_c, 4, 52, 127
2, 129295, Note_off_c, 4, 52, 127
2, 129297, Note_on_c, 5, 53, 127
2, 129435, Note_off_c, 5, 53, 127
2, 129437, Note_on_c, 1, 49, 127
2, 129574, Note_off_c, 1, 49, 127
2, 129576, Note_on_c, 2, 50, 127
2, 129714, Note_off_c, 2, 50, 127
2, 129716, Note_on_c, 10, 45, 127
2, 129853, Note_off_c, 10, 45, 127
2, 129855, Note_on_c, 11, 46, 127
2, 129993, Note_off_c, 11, 46, 127
2, 129995, Note_on_c, 2, 50, 127
2, 130132, Note_off_c, 2, 50, 127
2, 130134, Note_on_c, 5, 53, 127
2, 130272, Note_off_c, 5, 53, 127
2, 130274, Note_on_c, 10, 57, 127
2, 130411, Note_off_c, 10, 57, 127
2, 130413, Note_on_c, 2, 62, 127
2, 130551, Note_off_c, 2, 62, 127
2, 130553, Note_on_c, 5, 65, 127
2, 130690, Note_off_c, 5, 65, 127
2, 130692, Note_on_c, 10, 69, 127
2, 130830, Note_off_c, 10, 69, 127
2, 130832, Note_on_c, 8, 68, 127
2, 130969, Note_off_c, 8, 68, 127
2, 130971, Note_on_c, 10, 69, 127
2, 131109, Note_off_c, 10, 69, 127
2, 131111, Note_on_c, 6, 66, 127
2, 131258, Note_off_c, 6, 66, 127
2, 131260, Note_on_c, 3, 63, 127
2, 131406, Note_off_c, 3, 63, 127
2, 131408, Note_on_c, 0, 60, 127
2, 131555, Note_off_c, 0, 60, 127
2, 131557, Note_on_c, 12, 59, 127
2, 131704, Note_off_c, 12, 59, 127
2, 131706, Note_on_c, 10, 57, 127
2, 131852, Note_off_c, 10, 57, 127
2, 131854, Note_on_c, 6, 54, 127
2, 132021, Note_off_c, 6, 54, 127
2, 132023, Note_on_c, 4, 52, 127
2, 132190, Note_off_c, 4, 52, 127
2, 132192, Note_on_c, 3, 51, 127
2, 132357, Note_on_c, 6, 54, 127
2, 132473, Note_on_c, 10, 57, 127
2, 132589, Note_on_c, 0, 60, 127
2, 132705, Note_on_c, 6, 66, 127
2, 132818, Note_off_c, 6, 66, 127
2, 132820, Note_on_c, 10, 69, 127
2, 133507, Note_off_c, 0, 60, 127
2, 133517, Note_off_c, 10, 57, 127
2, 133523, Note_on_c, 12, 59, 127
2, 134476, Note_off_c, 10, 69, 127
2, 134490, Note_off_c, 3, 51, 127
2, 134493, Note_off_c, 6, 54, 127
2, 134505, Note_off_c, 12, 59, 127
2, 134507, Note_on_c, 4, 40, 127
2, 134612, Note_on_c, 10, 45, 127
2, 134716, Note_on_c, 0, 48, 127
2, 134820, Note_on_c, 4, 52, 127
2, 134924, Note_on_c, 10, 57, 127
2, 135028, Note_on_c, 0, 60, 127
2, 135133, Note_on_c, 4, 64, 127
2, 135237, Note_on_c, 10, 69, 127
2, 135325, Note_off_c, 4, 64, 127
2, 135341, Note_on_c, 4, 64, 127
2, 135436, Note_off_c, 0, 60, 127
2, 135445, Note_on_c, 0, 60, 127
2, 135536, Note_off_c, 10, 57, 127
2, 135549, Note_on_c, 10, 57, 127
2, 135640, Note_off_c, 4, 52, 127
2, 135654, Note_on_c, 4, 52, 127
2, 135744, Note_off_c, 0, 48, 127
2, 135758, Note_on_c, 0, 48, 127
2, 135852, Note_off_c, 10, 45, 127
2, 135862, Note_on_c, 10, 45, 127
2, 135951, Note_off_c, 4, 40, 127
2, 135966, Note_on_c, 4, 40, 127
2, 136046, Note_off_c, 0, 48, 127
2, 136048, Note_off_c, 10, 45, 127
2, 136053, Note_off_c, 10, 69, 127
2, 136069, Note_off_c, 0, 60, 127
2, 136070, Note_on_c, 12, 47, 127
2, 136071, Note_off_c, 10, 57, 127
2, 136152, Note_off_c, 4, 52, 127
2, 136175, Note_on_c, 4, 52, 127
2, 136279, Note_on_c, 12, 59, 127
2, 136383, Note_on_c, 2, 62, 127
2, 136469, Note_off_c, 4, 64, 127
2, 136487, Note_on_c, 4, 64, 127
2, 136591, Note_on_c, 8, 68, 127
2, 136691, Note_off_c, 4, 64, 127
2, 136696, Note_on_c, 4, 64, 127
2, 136785, Note_off_c, 2, 62, 127
2, 136800, Note_on_c, 2, 62, 127
2, 136879, Note_off_c, 12, 59, 127
2, 136902, Note_off_c, 2, 62, 127
2, 136904, Note_on_c, 12, 59, 127
2, 136985, Note_off_c, 4, 52, 127
2, 137008, Note_on_c, 4, 52, 127
2, 137102, Note_off_c, 12, 47, 127
2, 137112, Note_off_c, 4, 40, 127
2, 137112, Note_on_c, 12, 47, 127
2, 137194, Note_off_c, 4, 52, 127
2, 137214, Note_off_c, 12, 47, 127
2, 137217, Note_on_c, 4, 52, 127
2, 137317, Note_on_c, 8, 56, 127
2, 137402, Note_off_c, 12, 59, 127
2, 137417, Note_on_c, 12, 59, 127
2, 137517, Note_on_c, 0, 60, 127
2, 137596, Note_off_c, 4, 64, 127
2, 137617, Note_on_c, 4, 64, 127
2, 137695, Note_off_c, 8, 68, 127
2, 137717, Note_on_c, 8, 68, 127
2, 137817, Note_on_c, 12, 71, 127
2, 137917, Note_on_c, 0, 72, 127
2, 138015, Note_off_c, 12, 71, 127
2, 138017, Note_on_c, 12, 71, 127
2, 138107, Note_off_c, 8, 68, 127
2, 138117, Note_on_c, 8, 68, 127
2, 138199, Note_off_c, 4, 64, 127
2, 138217, Note_on_c, 4, 64, 127
2, 138309, Note_off_c, 0, 60, 127
2, 138317, Note_on_c, 0, 60, 127
2, 138401, Note_off_c, 12, 59, 127
2, 138417, Note_on_c, 12, 59, 127
2, 138499, Note_off_c, 8, 56, 127
2, 138517, Note_on_c, 8, 56, 127
2, 138609, Note_off_c, 4, 52, 127
2, 138617, Note_on_c, 4, 52, 127
2, 138707, Note_off_c, 12, 71, 127
2, 138711, Note_off_c, 8, 68, 127
2, 138715, Note_off_c, 8, 56, 127
2, 138717, Note_on_c, 0, 48, 127
2, 138729, Note_off_c, 12, 59, 127
2, 138797, Note_off_c, 4, 52, 127
2, 138817, Note_on_c, 4, 52, 127
2, 138917, Note_on_c, 10, 57, 127
2, 138989, Note_off_c, 0, 60, 127
2, 139017, Note_on_c, 0, 60, 127
2, 139099, Note_off_c, 4, 64, 127
2, 139117, Note_on_c, 4, 64, 127
2, 139217, Note_on_c, 10, 69, 127
2, 139291, Note_off_c, 0, 72, 127
2, 139317, Note_on_c, 0, 72, 127
2, 139477, Note_off_c, 4, 64, 127
2, 139487, Note_off_c, 10, 69, 127
2, 139493, Note_off_c, 10, 57, 127
2, 139495, Note_off_c, 4, 52, 127
2, 139497, Note_off_c, 0, 60, 127
2, 139497, Note_off_c, 0, 48, 127
2, 139515, Note_off_c, 0, 72, 127
2, 139517, Note_on_c, 10, 45, 127
2, 139617, Note_on_c, 0, 48, 127
2, 139717, Note_on_c, 4, 52, 127
2, 139817, Note_on_c, 10, 57, 127
2, 139917, Note_on_c, 0, 60, 127
2, 140017, Note_on_c, 4, 64, 127
2, 140117, Note_on_c, 10, 69, 127
2, 140217, Note_on_c, 0, 72, 127
2, 140345, Note_off_c, 10, 69, 127
2, 140345, Note_off_c, 0, 60, 127
2, 140345, Note_off_c, 10, 57, 127
2, 140345, Note_off_c, 4, 52, 127
2, 140348, Note_off_c, 0, 72, 127
2, 140349, Note_off_c, 4, 64, 127
2, 140349, Note_off_c, 0, 48, 127
2, 140349, Note_off_c, 10, 45, 127
2, 140350, Note_on_c, 5, 41, 127
2, 140454, Note_on_c, 10, 45, 127
2, 140559, Note_on_c, 0, 48, 127
2, 140663, Note_on_c, 5, 53, 127
2, 140767, Note_on_c, 0, 60, 127
2, 140871, Note_on_c, 4, 64, 127
2, 140975, Note_on_c, 5, 65, 127
2, 141080, Note_on_c, 10, 69, 127
2, 141184, Note_on_c, 0, 72, 127
2, 141276, Note_off_c, 10, 69, 127
2, 141278, Note_off_c, 5, 41, 127
2, 141288, Note_on_c, 10, 69, 127
2, 141391, Note_off_c, 5, 65, 127
2, 141392, Note_on_c, 5, 65, 127
2, 141483, Note_off_c, 4, 64, 127
2, 141496, Note_on_c, 4, 64, 127
2, 141591, Note_off_c, 0, 60, 127
2, 141601, Note_on_c, 0, 60, 127
2, 141695, Note_off_c, 5, 53, 127
2, 141705, Note_on_c, 5, 53, 127
2, 141791, Note_off_c, 0, 48, 127
2, 141809, Note_on_c, 0, 48, 127
2, 141898, Note_off_c, 10, 45, 127
2, 141913, Note_on_c, 10, 45, 127
2, 141973, Note_off_c, 0, 48, 127
2, 141976, Note_off_c, 4, 64, 127
2, 141985, Note_off_c, 5, 53, 127
2, 141985, Note_off_c, 0, 60, 127
2, 141992, Note_off_c, 5, 65, 127
2, 142000, Note_off_c, 10, 69, 127
2, 142008, Note_off_c, 0, 72, 127
2, 142017, Note_on_c, 12, 71, 127
2, 142017, Note_on_c, 6, 42, 127
2, 142101, Note_off_c, 10, 45, 127
2, 142122, Note_on_c, 10, 45, 127
2, 142226, Note_on_c, 12, 47, 127
2, 142328, Note_off_c, 12, 47, 127
2, 142330, Note_on_c, 3, 51, 127
2, 142434, Note_on_c, 6, 54, 127
2, 142538, Note_on_c, 12, 59, 127
2, 142643, Note_on_c, 3, 63, 127
2, 142747, Note_on_c, 6, 66, 127
2, 142829, Note_off_c, 12, 71, 127
2, 142838, Note_off_c, 12, 59, 127
2, 142841, Note_off_c, 6, 42, 127
2, 142849, Note_off_c, 6, 66, 127
2, 142851, Note_on_c, 10, 69, 127
2, 142851, Note_on_c, 6, 42, 127
2, 142946, Note_off_c, 10, 45, 127
2, 142955, Note_on_c, 10, 45, 127
2, 143060, Note_on_c, 0, 48, 127
2, 143154, Note_off_c, 3, 51, 127
2, 143164, Note_on_c, 3, 51, 127
2, 143254, Note_off_c, 6, 54, 127
2, 143268, Note_on_c, 6, 54, 127
2, 143372, Note_on_c, 10, 57, 127
2, 143476, Note_on_c, 0, 60, 127
2, 143571, Note_off_c, 3, 63, 127
2, 143581, Note_on_c, 3, 63, 127
2, 143691, Note_off_c, 10, 45, 127
2, 143699, Note_off_c, 10, 69, 127
2, 143700, Note_off_c, 3, 51, 127
2, 143700, Note_off_c, 0, 48, 127
2, 143703, Note_off_c, 3, 63, 127
2, 143703, Note_off_c, 6, 42, 127
2, 143704, Note_off_c, 0, 60, 127
2, 143705, Note_on_c, 10, 69, 127
2, 143705, Note_on_c, 4, 40, 127
2, 143712, Note_off_c, 10, 57, 127
2, 143712, Note_off_c, 6, 54, 127
2, 143805, Note_on_c, 10, 45, 127
2, 143905, Note_on_c, 0, 48, 127
2, 144005, Note_on_c, 4, 52, 127
2, 144105, Note_on_c, 10, 57, 127
2, 144203, Note_off_c, 10, 57, 127
2, 144205, Note_on_c, 0, 60, 127
2, 144303, Note_off_c, 0, 60, 127
2, 144305, Note_on_c, 4, 64, 127
2, 144385, Note_off_c, 10, 69, 127
2, 144403, Note_off_c, 4, 64, 127
2, 144405, Note_on_c, 10, 69, 127
2, 144505, Note_on_c, 0, 72, 127
2, 144605, Note_on_c, 4, 76, 127
2, 144705, Note_on_c, 10, 81, 127
2, 144797, Note_off_c, 4, 76, 127
2, 144805, Note_on_c, 4, 76, 127
2, 144893, Note_off_c, 0, 72, 127
2, 144905, Note_on_c, 0, 72, 127
2, 144985, Note_off_c, 4, 76, 127
2, 144993, Note_off_c, 10, 81, 127
2, 144997, Note_off_c, 10, 69, 127
2, 145003, Note_off_c, 0, 72, 127
2, 145005, Note_on_c, 10, 69, 127
2, 145105, Note_on_c, 4, 64, 127
2, 145205, Note_on_c, 0, 60, 127
2, 145305, Note_on_c, 10, 57, 127
2, 145389, Note_off_c, 4, 52, 127
2, 145405, Note_on_c, 4, 52, 127
2, 145489, Note_off_c, 0, 48, 127
2, 145505, Note_on_c, 0, 48, 127
2, 145589, Note_off_c, 10, 45, 127
2, 145605, Note_on_c, 10, 45, 127
2, 145681, Note_off_c, 10, 57, 127
2, 145689, Note_off_c, 4, 40, 127
2, 145697, Note_off_c, 0, 60, 127
2, 145705, Note_on_c, 4, 40, 127
2, 145789, Note_off_c, 0, 48, 127
2, 145793, Note_off_c, 10, 45, 127
2, 145805, Note_on_c, 12, 47, 127
2, 145889, Note_off_c, 4, 52, 127
2, 145905, Note_on_c, 4, 52, 127
2, 146005, Note_on_c, 12, 59, 127
2, 146105, Note_on_c, 2, 62, 127
2, 146189, Note_off_c, 4, 64, 127
2, 146205, Note_on_c, 4, 64, 127
2, 146285, Note_off_c, 10, 69, 127
2, 146305, Note_on_c, 10, 69, 127
2, 146485, Note_off_c, 4, 64, 127
2, 146485, Note_off_c, 2, 62, 127
2, 146485, Note_off_c, 12, 59, 127
2, 146489, Note_off_c, 4, 52, 127
2, 146493, Note_off_c, 12, 47, 127
2, 146497, Note_off_c, 4, 40, 127
2, 146503, Note_off_c, 10, 69, 127
2, 146505, Note_on_c, 4, 40, 127
2, 146605, Note_on_c, 12, 47, 127
2, 146705, Note_on_c, 4, 52, 127
2, 146805, Note_on_c, 12, 59, 127
2, 146905, Note_on_c, 2, 62, 127
2, 147005, Note_on_c, 4, 64, 127
2, 147105, Note_on_c, 8, 68, 127
2, 147297, Note_off_c, 4, 64, 127
2, 147297, Note_off_c, 2, 62, 127
2, 147305, Note_on_c, 2, 62, 127
2, 147541, Note_off_c, 8, 68, 127
2, 147545, Note_off_c, 12, 59, 127
2, 147545, Note_off_c, 4, 52, 127
2, 147545, Note_off_c, 12, 47, 127
2, 147545, Note_off_c, 4, 40, 127
2, 147551, Note_off_c, 2, 62, 127
2, 147553, Note_on_c, 10, 45, 127
2, 147653, Note_on_c, 4, 52, 127
2, 147753, Note_on_c, 10, 57, 127
2, 147853, Note_on_c, 2, 62, 127
2, 147953, Note_on_c, 4, 64, 127
2, 148053, Note_on_c, 10, 69, 127
2, 148858, Note_on_c, 1, 61, 127
2, 148953, Note_off_c, 2, 62, 127
2, 150153, Note_off_c, 10, 57, 127
2, 150153, Note_off_c, 10, 45, 127
2, 150157, Note_off_c, 4, 52, 127
2, 150158, Note_off_c, 1, 61, 127
2, 150160, Note_off_c, 10, 69, 127
2, 150163, Note_off_c, 4, 64, 127
2, 150643, Note_on_c, 11, 70, 127
2, 150828, Note_off_c, 11, 70, 127
2, 150830, Note_on_c, 10, 69, 127
2, 151014, Note_off_c, 10, 69, 127
2, 151016, Note_on_c, 7, 67, 127
2, 151201, Note_off_c, 7, 67, 127
2, 151203, Note_on_c, 6, 66, 127
2, 151388, Note_off_c, 6, 66, 127
2, 151390, Note_on_c, 7, 67, 127
2, 151574, Note_off_c, 7, 67, 127
2, 151576, Note_on_c, 6, 66, 127
2, 151761, Note_off_c, 6, 66, 127
2, 151763, Note_on_c, 7, 67, 127
2, 151947, Note_off_c, 7, 67, 127
2, 151949, Note_on_c, 10, 69, 127
2, 152089, Note_off_c, 10, 69, 127
2, 152097, Note_on_c, 7, 67, 127
2, 152237, Note_off_c, 7, 67, 127
2, 152245, Note_on_c, 10, 69, 127
2, 152377, Note_on_c, 7, 67, 127
2, 152385, Note_off_c, 10, 69, 127
2, 152517, Note_off_c, 7, 67, 127
2, 152525, Note_on_c, 10, 69, 127
2, 152665, Note_off_c, 10, 69, 127
2, 152673, Note_on_c, 7, 67, 127
2, 152813, Note_off_c, 7, 67, 127
2, 152820, Note_on_c, 6, 66, 127
2, 152982, Note_off_c, 6, 66, 127
2, 152984, Note_on_c, 7, 67, 127
2, 153146, Note_off_c, 7, 67, 127
2, 153148, Note_on_c, 10, 69, 127
2, 153310, Note_off_c, 10, 69, 127
2, 153312, Note_on_c, 6, 66, 127
2, 153474, Note_off_c, 6, 66, 127
2, 153476, Note_on_c, 2, 62, 127
2, 153634, Note_on_c, 1, 61, 127
2, 153638, Note_off_c, 2, 62, 127
2, 153968, Note_on_c, 0, 60, 127
2, 153970, Note_off_c, 1, 61, 127
2, 154255, Note_off_c, 0, 60, 127
2, 154257, Note_on_c, 3, 51, 127
2, 154257, Note_on_c, 6, 42, 127
2, 154257, Note_on_c, 0, 48, 127
2, 154257, Note_on_c, 6, 54, 127
2, 154257, Note_on_c, 0, 60, 127
2, 154257, Note_on_c, 3, 63, 127
2, 154257, Note_on_c, 11, 70, 127
2, 154583, Note_off_c, 11, 70, 127
2, 154585, Note_on_c, 10, 69, 127
2, 155304, Note_off_c, 10, 69, 127
2, 155304, Note_off_c, 3, 63, 127
2, 155304, Note_off_c, 0, 60, 127
2, 155304, Note_off_c, 6, 54, 127
2, 155304, Note_off_c, 0, 48, 127
2, 155304, Note_off_c, 6, 42, 127
2, 155304, Note_off_c, 3, 51, 127
2, 155790, Note_on_c, 4, 64, 127
2, 155978, Note_off_c, 4, 64, 127
2, 155980, Note_on_c, 5, 65, 127
2, 156168, Note_off_c, 5, 65, 127
2, 156170, Note_on_c, 7, 67, 127
2, 156358, Note_off_c, 7, 67, 127
2, 156360, Note_on_c, 10, 69, 127
2, 156548, Note_off_c, 10, 69, 127
2, 156550, Note_on_c, 11, 70, 127
2, 156738, Note_off_c, 11, 70, 127
2, 156740, Note_on_c, 0, 72, 127
2, 156928, Note_off_c, 0, 72, 127
2, 156930, Note_on_c, 1, 73, 127
2, 157118, Note_off_c, 1, 73, 127
2, 157120, Note_on_c, 0, 72, 127
2, 157308, Note_off_c, 0, 72, 127
2, 157310, Note_on_c, 1, 73, 127
2, 157498, Note_off_c, 1, 73, 127
2, 157500, Note_on_c, 3, 75, 127
2, 157640, Note_off_c, 3, 75, 127
2, 157650, Note_on_c, 1, 73, 127
2, 157790, Note_off_c, 1, 73, 127
2, 157800, Note_on_c, 3, 75, 127
2, 157940, Note_off_c, 3, 75, 127
2, 157950, Note_on_c, 1, 73, 127
2, 158090, Note_off_c, 1, 73, 127
2, 158100, Note_on_c, 3, 75, 127
2, 158240, Note_off_c, 3, 75, 127
2, 158250, Note_on_c, 1, 73, 127
2, 158390, Note_off_c, 1, 73, 127
2, 158401, Note_on_c, 0, 72, 127
2, 158574, Note_off_c, 0, 72, 127
2, 158586, Note_on_c, 1, 73, 127
2, 158750, Note_off_c, 1, 73, 127
2, 158761, Note_on_c, 3, 75, 127
2, 158925, Note_off_c, 3, 75, 127
2, 158927, Note_on_c, 3, 75, 127
2, 158927, Note_on_c, 3, 51, 127
2, 158927, Note_on_c, 0, 48, 127
2, 158927, Note_on_c, 3, 63, 127
2, 158927, Note_on_c, 6, 66, 127
2, 158927, Note_on_c, 0, 60, 127
2, 158927, Note_on_c, 6, 54, 127
2, 159385, Note_on_c, 10, 69, 127
2, 160168, Note_off_c, 6, 54, 127
2, 160168, Note_off_c, 0, 60, 127
2, 160168, Note_off_c, 6, 66, 127
2, 160168, Note_off_c, 3, 63, 127
2, 160168, Note_off_c, 0, 48, 127
2, 160168, Note_off_c, 3, 51, 127
2, 160168, Note_off_c, 3, 75, 127
2, 160172, Note_off_c, 10, 69, 127
2, 160457, Note_on_c, 3, 75, 127
2, 160733, Note_off_c, 3, 75, 127
2, 160735, Note_on_c, 6, 78, 127
2, 161011, Note_off_c, 6, 78, 127
2, 161013, Note_on_c, 5, 77, 127
2, 161289, Note_off_c, 5, 77, 127
2, 161291, Note_on_c, 3, 75, 127
2, 161568, Note_off_c, 3, 75, 127
2, 161570, Note_on_c, 1, 73, 127
2, 161846, Note_off_c, 1, 73, 127
2, 161848, Note_on_c, 0, 72, 127
2, 162124, Note_off_c, 0, 72, 127
2, 162126, Note_on_c, 1, 73, 127
2, 162321, Note_off_c, 1, 73, 127
2, 162323, Note_on_c, 11, 70, 127
2, 162519, Note_off_c, 11, 70, 127
2, 162521, Note_on_c, 11, 70, 127
2, 163075, Note_off_c, 11, 70, 127
2, 163077, Note_on_c, 10, 69, 127
2, 163618, Note_off_c, 10, 69, 127
2, 163620, Note_on_c, 10, 69, 127
2, 163620, Note_on_c, 3, 63, 127
2, 163620, Note_on_c, 0, 60, 127
2, 163620, Note_on_c, 6, 66, 127
2, 163620, Note_on_c, 10, 57, 127
2, 163620, Note_on_c, 6, 54, 127
2, 164048, Note_off_c, 6, 54, 127
2, 164048, Note_off_c, 10, 57, 127
2, 164048, Note_off_c, 6, 66, 127
2, 164048, Note_off_c, 0, 60, 127
2, 164048, Note_off_c, 3, 63, 127
2, 164048, Note_off_c, 10, 69, 127
2, 164050, Note_on_c, 1, 61, 127
2, 164050, Note_on_c, 11, 70, 127
2, 164188, Note_off_c, 11, 70, 127
2, 164188, Note_off_c, 1, 61, 127
2, 164190, Note_on_c, 0, 60, 127
2, 164190, Note_on_c, 10, 69, 127
2, 164327, Note_off_c, 10, 69, 127
2, 164327, Note_off_c, 0, 60, 127
2, 164329, Note_on_c, 1, 61, 127
2, 164329, Note_on_c, 11, 70, 127
2, 164467, Note_off_c, 11, 70, 127
2, 164467, Note_off_c, 1, 61, 127
2, 164469, Note_on_c, 0, 72, 127
2, 164469, Note_on_c, 3, 63, 127
2, 164606, Note_off_c, 3, 63, 127
2, 164606, Note_off_c, 0, 72, 127
2, 164608, Note_on_c, 1, 61, 127
2, 164608, Note_on_c, 11, 70, 127
2, 164746, Note_off_c, 11, 70, 127
2, 164746, Note_off_c, 1, 61, 127
2, 164748, Note_on_c, 3, 63, 127
2, 164748, Note_on_c, 0, 72, 127
2, 164885, Note_off_c, 0, 72, 127
2, 164885, Note_off_c, 3, 63, 127
2, 164887, Note_on_c, 1, 61, 127
2, 164887, Note_on_c, 11, 70, 127
2, 165025, Note_off_c, 11, 70, 127
2, 165025, Note_off_c, 1, 61, 127
2, 165027, Note_on_c, 3, 63, 127
2, 165027, Note_on_c, 0, 72, 127
2, 165164, Note_off_c, 0, 72, 127
2, 165164, Note_off_c, 3, 63, 127
2, 165166, Note_on_c, 1, 61, 127
2, 165166, Note_on_c, 11, 70, 127
2, 165304, Note_off_c, 11, 70, 127
2, 165304, Note_off_c, 1, 61, 127
2, 165306, Note_on_c, 10, 69, 127
2, 165306, Note_on_c, 0, 60, 127
2, 165443, Note_off_c, 0, 60, 127
2, 165443, Note_off_c, 10, 69, 127
2, 165445, Note_on_c, 1, 61, 127
2, 165445, Note_on_c, 11, 70, 127
2, 165583, Note_off_c, 11, 70, 127
2, 165583, Note_off_c, 1, 61, 127
2, 165585, Note_on_c, 0, 72, 127
2, 165585, Note_on_c, 3, 63, 127
2, 166123, Note_off_c, 3, 63, 127
2, 166123, Note_off_c, 0, 72, 127
2, 166141, Note_on_c, 10, 45, 127
2, 166141, Note_on_c, 3, 51, 127
2, 166141, Note_on_c, 6, 54, 127
2, 166141, Note_on_c, 10, 57, 127
2, 166141, Note_on_c, 0, 60, 127
2, 166141, Note_on_c, 6, 66, 127
2, 166141, Note_on_c, 0, 72, 127
2, 166141, Note_on_c, 3, 63, 127
2, 166556, Note_off_c, 3, 63, 127
2, 166556, Note_off_c, 0, 72, 127
2, 166556, Note_off_c, 6, 66, 127
2, 166556, Note_off_c, 0, 60, 127
2, 166556, Note_off_c, 10, 57, 127
2, 166556, Note_off_c, 6, 54, 127
2, 166556, Note_off_c, 3, 51, 127
2, 166556, Note_off_c, 10, 45, 127
2, 166558, Note_on_c, 5, 65, 127
2, 166558, Note_on_c, 1, 73, 127
2, 166695, Note_off_c, 1, 73, 127
2, 166695, Note_off_c, 5, 65, 127
2, 166697, Note_on_c, 0, 72, 127
2, 166697, Note_on_c, 3, 63, 127
2, 166835, Note_off_c, 3, 63, 127
2, 166835, Note_off_c, 0, 72, 127
2, 166837, Note_on_c, 1, 73, 127
2, 166837, Note_on_c, 5, 65, 127
2, 166974, Note_off_c, 5, 65, 127
2, 166974, Note_off_c, 1, 73, 127
2, 166976, Note_on_c, 3, 75, 127
2, 166976, Note_on_c, 6, 66, 127
2, 167114, Note_off_c, 6, 66, 127
2, 167114, Note_off_c, 3, 75, 127
2, 167116, Note_on_c, 5, 65, 127
2, 167116, Note_on_c, 1, 73, 127
2, 167253, Note_off_c, 1, 73, 127
2, 167253, Note_off_c, 5, 65, 127
2, 167255, Note_on_c, 6, 66, 127
2, 167255, Note_on_c, 3, 75, 127
2, 167393, Note_off_c, 3, 75, 127
2, 167393, Note_off_c, 6, 66, 127
2, 167395, Note_on_c, 5, 65, 127
2, 167395, Note_on_c, 1, 73, 127
2, 167532, Note_off_c, 1, 73, 127
2, 167532, Note_off_c, 5, 65, 127
2, 167534, Note_on_c, 6, 66, 127
2, 167534, Note_on_c, 3, 75, 127
2, 167672, Note_off_c, 3, 75, 127
2, 167672, Note_off_c, 6, 66, 127
2, 167674, Note_on_c, 1, 73, 127
2, 167674, Note_on_c, 5, 65, 127
2, 167811, Note_off_c, 5, 65, 127
2, 167811, Note_off_c, 1, 73, 127
2, 167813, Note_on_c, 0, 72, 127
2, 167813, Note_on_c, 3, 63, 127
2, 167951, Note_off_c, 3, 63, 127
2, 167951, Note_off_c, 0, 72, 127
2, 167953, Note_on_c, 5, 65, 127
2, 167953, Note_on_c, 1, 73, 127
2, 168090, Note_off_c, 1, 73, 127
2, 168090, Note_off_c, 5, 65, 127
2, 168092, Note_on_c, 3, 75, 127
2, 168092, Note_on_c, 6, 66, 127
2, 168331, Note_off_c, 3, 75, 127
2, 168333, Note_on_c, 0, 72, 127
2, 168573, Note_off_c, 0, 72, 127
2, 168575, Note_on_c, 10, 69, 127
2, 168578, Note_off_c, 6, 66, 127
2, 168814, Note_off_c, 10, 69, 127
2, 168816, Note_on_c, 11, 70, 127
2, 169055, Note_off_c, 11, 70, 127
2, 169057, Note_on_c, 11, 70, 127
2, 169510, Note_off_c, 11, 70, 127
2, 169512, Note_on_c, 10, 69, 127
2, 169964, Note_off_c, 10, 69, 127
2, 169966, Note_on_c, 0, 48, 127
2, 169966, Note_on_c, 5, 53, 127
2, 169966, Note_on_c, 10, 45, 127
2, 169966, Note_on_c, 0, 60, 127
2, 169966, Note_on_c, 3, 63, 127
2, 169966, Note_on_c, 5, 41, 127
2, 169966, Note_on_c, 10, 69, 127
2, 169966, Note_on_c, 5, 65, 127
2, 171224, Note_off_c, 5, 65, 127
2, 171224, Note_off_c, 10, 69, 127
2, 171224, Note_off_c, 5, 41, 127
2, 171224, Note_off_c, 3, 63, 127
2, 171224, Note_off_c, 0, 60, 127
2, 171224, Note_off_c, 10, 45, 127
2, 171224, Note_off_c, 5, 53, 127
2, 171224, Note_off_c, 0, 48, 127
2, 171441, Note_on_c, 5, 65, 127
2, 171689, Note_off_c, 5, 65, 127
2, 171691, Note_on_c, 10, 69, 127
2, 171938, Note_off_c, 10, 69, 127
2, 171940, Note_on_c, 0, 72, 127
2, 172188, Note_off_c, 0, 72, 127
2, 172190, Note_on_c, 3, 75, 127
2, 172438, Note_off_c, 3, 75, 127
2, 172440, Note_on_c, 6, 78, 127
2, 172761, Note_off_c, 6, 78, 127
2, 172763, Note_on_c, 5, 77, 127
2, 173085, Note_off_c, 5, 77, 127
2, 173087, Note_on_c, 3, 75, 127
2, 173334, Note_off_c, 3, 75, 127
2, 173336, Note_on_c, 1, 73, 127
2, 173584, Note_off_c, 1, 73, 127
2, 173586, Note_on_c, 1, 73, 127
2, 174084, Note_off_c, 1, 73, 127
2, 174086, Note_on_c, 1, 73, 127
2, 174086, Note_on_c, 11, 70, 127
2, 174086, Note_on_c, 6, 66, 127
2, 174086, Note_on_c, 1, 61, 127
2, 174086, Note_on_c, 6, 54, 127
2, 174086, Note_on_c, 1, 49, 127
2, 174086, Note_on_c, 11, 46, 127
2, 174086, Note_on_c, 5, 41, 127
2, 175200, Note_off_c, 1, 73, 127
2, 175202, Note_on_c, 1, 73, 127
2, 175352, Note_off_c, 5, 41, 127
2, 175352, Note_off_c, 11, 46, 127
2, 175352, Note_off_c, 1, 49, 127
2, 175352, Note_off_c, 6, 54, 127
2, 175352, Note_off_c, 1, 61, 127
2, 175352, Note_off_c, 6, 66, 127
2, 175352, Note_off_c, 11, 70, 127
2, 175428, Note_off_c, 1, 73, 127
2, 175430, Note_on_c, 4, 76, 127
2, 175657, Note_off_c, 4, 76, 127
2, 175659, Note_on_c, 3, 75, 127
2, 175865, Note_off_c, 3, 75, 127
2, 175867, Note_on_c, 1, 73, 127
2, 176074, Note_off_c, 1, 73, 127
2, 176076, Note_on_c, 12, 71, 127
2, 176282, Note_off_c, 12, 71, 127
2, 176284, Note_on_c, 11, 70, 127
2, 176490, Note_off_c, 11, 70, 127
2, 176492, Note_on_c, 12, 71, 127
2, 176699, Note_off_c, 12, 71, 127
2, 176701, Note_on_c, 1, 73, 127
2, 176877, Note_off_c, 1, 73, 127
2, 176879, Note_on_c, 12, 71, 127
2, 177055, Note_off_c, 12, 71, 127
2, 177057, Note_on_c, 1, 73, 127
2, 177233, Note_off_c, 1, 73, 127
2, 177235, Note_on_c, 12, 71, 127
2, 177411, Note_off_c, 12, 71, 127
2, 177413, Note_on_c, 1, 73, 127
2, 177590, Note_off_c, 1, 73, 127
2, 177592, Note_on_c, 12, 71, 127
2, 177768, Note_off_c, 12, 71, 127
2, 177770, Note_on_c, 11, 70, 127
2, 177946, Note_off_c, 11, 70, 127
2, 177948, Note_on_c, 12, 71, 127
2, 178124, Note_off_c, 12, 71, 127
2, 178126, Note_on_c, 1, 73, 127
2, 178302, Note_off_c, 1, 73, 127
2, 178304, Note_on_c, 8, 68, 127
2, 178669, Note_off_c, 8, 68, 127
2, 178671, Note_on_c, 7, 67, 127
2, 179011, Note_off_c, 7, 67, 127
2, 179018, Note_on_c, 3, 39, 127
2, 179018, Note_on_c, 3, 51, 127
2, 179018, Note_on_c, 7, 43, 127
2, 179018, Note_on_c, 11, 46, 127
2, 179018, Note_on_c, 11, 58, 127
2, 179018, Note_on_c, 1, 61, 127
2, 179018, Note_on_c, 3, 63, 127
2, 179018, Note_on_c, 7, 67, 127
2, 180096, Note_off_c, 7, 67, 127
2, 180098, Note_on_c, 7, 67, 127
2, 180332, Note_off_c, 3, 63, 127
2, 180332, Note_off_c, 1, 61, 127
2, 180332, Note_off_c, 11, 58, 127
2, 180332, Note_off_c, 11, 46, 127
2, 180332, Note_off_c, 3, 51, 127
2, 180338, Note_off_c, 7, 43, 127
2, 180344, Note_off_c, 3, 39, 127
2, 180346, Note_off_c, 7, 67, 127
2, 180348, Note_on_c, 3, 63, 127
2, 180595, Note_off_c, 3, 63, 127
2, 180597, Note_on_c, 5, 65, 127
2, 180845, Note_off_c, 5, 65, 127
2, 180847, Note_on_c, 7, 67, 127
2, 181095, Note_off_c, 7, 67, 127
2, 181097, Note_on_c, 8, 68, 127
2, 181237, Note_off_c, 8, 68, 127
2, 181239, Note_on_c, 7, 67, 127
2, 181365, Note_off_c, 7, 67, 127
2, 181367, Note_on_c, 5, 65, 127
2, 181615, Note_off_c, 5, 65, 127
2, 181617, Note_on_c, 8, 68, 127
2, 181757, Note_off_c, 8, 68, 127
2, 181759, Note_on_c, 7, 67, 127
2, 181926, Note_off_c, 7, 67, 127
2, 181928, Note_on_c, 8, 68, 127
2, 182054, Note_off_c, 8, 68, 127
2, 182056, Note_on_c, 7, 67, 127
2, 182169, Note_off_c, 7, 67, 127
2, 182171, Note_on_c, 8, 68, 127
2, 182750, Note_off_c, 8, 68, 127
2, 182752, Note_on_c, 2, 38, 127
2, 182752, Note_on_c, 12, 47, 127
2, 182752, Note_on_c, 4, 52, 127
2, 182752, Note_on_c, 12, 59, 127
2, 182752, Note_on_c, 8, 56, 127
2, 182752, Note_on_c, 4, 64, 127
2, 182752, Note_on_c, 8, 68, 127
2, 183541, Note_off_c, 8, 68, 127
2, 183541, Note_off_c, 4, 64, 127
2, 183541, Note_off_c, 8, 56, 127
2, 183541, Note_off_c, 12, 59, 127
2, 183541, Note_off_c, 4, 52, 127
2, 183541, Note_off_c, 12, 47, 127
2, 183541, Note_off_c, 2, 38, 127
2, 183591, Note_on_c, 12, 59, 127
2, 183728, Note_off_c, 12, 59, 127
2, 183730, Note_on_c, 1, 61, 127
2, 183868, Note_off_c, 1, 61, 127
2, 183870, Note_on_c, 3, 63, 127
2, 184007, Note_off_c, 3, 63, 127
2, 184009, Note_on_c, 4, 64, 127
2, 184147, Note_off_c, 4, 64, 127
2, 184149, Note_on_c, 6, 66, 127
2, 184286, Note_off_c, 6, 66, 127
2, 184288, Note_on_c, 8, 68, 127
2, 184426, Note_off_c, 8, 68, 127
2, 184428, Note_on_c, 10, 69, 127
2, 184565, Note_off_c, 10, 69, 127
2, 184567, Note_on_c, 12, 71, 127
2, 184786, Note_off_c, 12, 71, 127
2, 184788, Note_on_c, 2, 74, 127
2, 185006, Note_off_c, 2, 74, 127
2, 185008, Note_on_c, 1, 73, 127
2, 185226, Note_off_c, 1, 73, 127
2, 185228, Note_on_c, 4, 76, 127
2, 185365, Note_off_c, 4, 76, 127
2, 185367, Note_on_c, 2, 74, 127
2, 185505, Note_off_c, 2, 74, 127
2, 185507, Note_on_c, 2, 74, 127
2, 185783, Note_off_c, 2, 74, 127
2, 185785, Note_on_c, 1, 49, 127
2, 185898, Note_on_c, 5, 53, 127
2, 186012, Note_on_c, 8, 56, 127
2, 186125, Note_on_c, 1, 61, 127
2, 186239, Note_on_c, 5, 65, 127
2, 186352, Note_on_c, 8, 68, 127
2, 186466, Note_on_c, 12, 71, 127
2, 186579, Note_on_c, 2, 74, 127
2, 186954, Note_off_c, 2, 74, 127
2, 186956, Note_on_c, 1, 73, 127
2, 187672, Note_off_c, 8, 68, 127
2, 187673, Note_off_c, 5, 65, 127
2, 187678, Note_off_c, 12, 71, 127
2, 187685, Note_off_c, 1, 61, 127
2, 187686, Note_off_c, 8, 56, 127
2, 187692, Note_off_c, 5, 53, 127
2, 187693, Note_off_c, 1, 49, 127
2, 187700, Note_off_c, 1, 73, 127
2, 187702, Note_on_c, 2, 62, 127
2, 187702, Note_on_c, 12, 71, 127
2, 188074, Note_off_c, 12, 71, 127
2, 188074, Note_off_c, 2, 62, 127
2, 188076, Note_on_c, 2, 62, 127
2, 188076, Note_on_c, 12, 71, 127
2, 188448, Note_off_c, 12, 71, 127
2, 188448, Note_off_c, 2, 62, 127
2, 188450, Note_on_c, 1, 61, 127
2, 188450, Note_on_c, 10, 69, 127
2, 188822, Note_off_c, 10, 69, 127
2, 188822, Note_off_c, 1, 61, 127
2, 188824, Note_on_c, 10, 69, 127
2, 188824, Note_on_c, 1, 61, 127
2, 189196, Note_off_c, 1, 61, 127
2, 189196, Note_off_c, 10, 69, 127
2, 189198, Note_on_c, 8, 68, 127
2, 189198, Note_on_c, 12, 59, 127
2, 189570, Note_off_c, 12, 59, 127
2, 189570, Note_off_c, 8, 68, 127
2, 189572, Note_on_c, 12, 59, 127
2, 189572, Note_on_c, 8, 68, 127
2, 189797, Note_off_c, 8, 68, 127
2, 189799, Note_on_c, 10, 69, 127
2, 190025, Note_off_c, 10, 69, 127
2, 190027, Note_on_c, 12, 71, 127
2, 190253, Note_off_c, 12, 71, 127
2, 190255, Note_on_c, 1, 73, 127
2, 190376, Note_off_c, 12, 59, 127
2, 190480, Note_off_c, 1, 73, 127
2, 190482, Note_on_c, 2, 74, 127
2, 190482, Note_on_c, 1, 61, 127
2, 190708, Note_off_c, 2, 74, 127
2, 190710, Note_on_c, 12, 71, 127
2, 190926, Note_off_c, 1, 61, 127
2, 190936, Note_off_c, 12, 71, 127
2, 190938, Note_on_c, 2, 62, 127
2, 190938, Note_on_c, 8, 68, 127
2, 191070, Note_off_c, 8, 68, 127
2, 191072, Note_on_c, 5, 65, 127
2, 191217, Note_off_c, 5, 65, 127
2, 191219, Note_on_c, 6, 66, 127
2, 191466, Note_off_c, 2, 62, 127
2, 191483, Note_off_c, 6, 66, 127
2, 191485, Note_on_c, 12, 47, 127
2, 191485, Note_on_c, 8, 56, 127
2, 191485, Note_on_c, 6, 66, 127
2, 191485, Note_on_c, 2, 62, 127
2, 191958, Note_off_c, 6, 66, 127
2, 191960, Note_on_c, 5, 65, 127
2, 192583, Note_off_c, 2, 62, 127
2, 192583, Note_off_c, 8, 56, 127
2, 192587, Note_off_c, 5, 65, 127
2, 192589, Note_off_c, 12, 47, 127
2, 192589, Note_on_c, 5, 65, 127
2, 192726, Note_off_c, 5, 65, 127
2, 192728, Note_on_c, 6, 66, 127
2, 192864, Note_off_c, 6, 66, 127
2, 192866, Note_on_c, 8, 68, 127
2, 193003, Note_off_c, 8, 68, 127
2, 193005, Note_on_c, 6, 66, 127
2, 193249, Note_off_c, 6, 66, 127
2, 193251, Note_on_c, 5, 65, 127
2, 193509, Note_off_c, 5, 65, 127
2, 193511, Note_on_c, 12, 71, 127
2, 193511, Note_on_c, 5, 53, 127
2, 193511, Note_on_c, 8, 56, 127
2, 193894, Note_off_c, 12, 71, 127
2, 193896, Note_on_c, 1, 73, 127
2, 194086, Note_off_c, 1, 73, 127
2, 194088, Note_on_c, 2, 74, 127
2, 194273, Note_off_c, 5, 53, 127
2, 194279, Note_off_c, 2, 74, 127
2, 194279, Note_off_c, 8, 56, 127
2, 194281, Note_on_c, 10, 57, 127
2, 194281, Note_on_c, 6, 54, 127
2, 194281, Note_on_c, 1, 73, 127
2, 194281, Note_on_c, 10, 69, 127
2, 194664, Note_off_c, 10, 69, 127
2, 194664, Note_off_c, 1, 73, 127
2, 194664, Note_off_c, 10, 57, 127
2, 194665, Note_off_c, 6, 54, 127
2, 194666, Note_on_c, 2, 62, 127
2, 194666, Note_on_c, 12, 59, 127
2, 194666, Note_on_c, 12, 71, 127
2, 194666, Note_on_c, 8, 68, 127
2, 195049, Note_off_c, 8, 68, 127
2, 195049, Note_off_c, 12, 71, 127
2, 195049, Note_off_c, 12, 59, 127
2, 195049, Note_off_c, 2, 62, 127
2, 195051, Note_on_c, 10, 69, 127
2, 195051, Note_on_c, 6, 66, 127
2, 195051, Note_on_c, 1, 61, 127
2, 195051, Note_on_c, 1, 49, 127
2, 195433, Note_off_c, 6, 66, 127
2, 195433, Note_off_c, 10, 69, 127
2, 195435, Note_on_c, 8, 68, 127
2, 195626, Note_off_c, 8, 68, 127
2, 195628, Note_on_c, 12, 71, 127
2, 195795, Note_off_c, 1, 49, 127
2, 195813, Note_off_c, 1, 61, 127
2, 195818, Note_off_c, 12, 71, 127
2, 195820, Note_on_c, 1, 49, 127
2, 195820, Note_on_c, 12, 59, 127
2, 195820, Note_on_c, 5, 65, 127
2, 195820, Note_on_c, 10, 69, 127
2, 196203, Note_off_c, 10, 69, 127
2, 196203, Note_off_c, 5, 65, 127
2, 196205, Note_on_c, 8, 68, 127
2, 196396, Note_off_c, 8, 68, 127
2, 196398, Note_on_c, 6, 66, 127
2, 196570, Note_off_c, 1, 49, 127
2, 196576, Note_off_c, 12, 59, 127
2, 196588, Note_off_c, 6, 66, 127
2, 196590, Note_on_c, 3, 63, 127
2, 196590, Note_on_c, 6, 66, 127
2, 196590, Note_on_c, 3, 75, 127
2, 196590, Note_on_c, 10, 69, 127
2, 196590, Note_on_c, 0, 48, 127
2, 196590, Note_on_c, 6, 54, 127
2, 196590, Note_on_c, 10, 57, 127
2, 197429, Note_off_c, 10, 57, 127
2, 197429, Note_off_c, 6, 54, 127
2, 197429, Note_off_c, 0, 48, 127
2, 197429, Note_off_c, 10, 69, 127
2, 197429, Note_off_c, 3, 75, 127
2, 197429, Note_off_c, 6, 66, 127
2, 197429, Note_off_c, 3, 63, 127
2, 197479, Note_on_c, 4, 76, 127
2, 197614, Note_off_c, 4, 76, 127
2, 197616, Note_on_c, 3, 75, 127
2, 197751, Note_off_c, 3, 75, 127
2, 197753, Note_on_c, 1, 73, 127
2, 197875, Note_off_c, 1, 73, 127
2, 197877, Note_on_c, 0, 72, 127
2, 198039, Note_off_c, 0, 72, 127
2, 198041, Note_on_c, 1, 73, 127
2, 198202, Note_off_c, 1, 73, 127
2, 198204, Note_on_c, 3, 75, 127
2, 198366, Note_off_c, 3, 75, 127
2, 198368, Note_on_c, 4, 76, 127
2, 198530, Note_off_c, 4, 76, 127
2, 198532, Note_on_c, 6, 78, 127
2, 198694, Note_off_c, 6, 78, 127
2, 198696, Note_on_c, 8, 80, 127
2, 198858, Note_off_c, 8, 80, 127
2, 198860, Note_on_c, 10, 81, 127
2, 199186, Note_off_c, 10, 81, 127
2, 199188, Note_on_c, 10, 81, 127
2, 199515, Note_off_c, 10, 81, 127
2, 199517, Note_on_c, 8, 44, 127
2, 199517, Note_on_c, 3, 51, 127
2, 199517, Note_on_c, 6, 54, 127
2, 199517, Note_on_c, 0, 60, 127
2, 199701, Note_on_c, 0, 72, 127
2, 199845, Note_off_c, 0, 60, 127
2, 199853, Note_off_c, 0, 72, 127
2, 199855, Note_on_c, 3, 75, 127
2, 199999, Note_on_c, 6, 78, 127
2, 200007, Note_off_c, 3, 75, 127
2, 200151, Note_off_c, 6, 78, 127
2, 200152, Note_on_c, 10, 81, 127
2, 200304, Note_off_c, 10, 81, 127
2, 200307, Note_on_c, 8, 80, 127
2, 200597, Note_off_c, 3, 51, 127
2, 200603, Note_off_c, 6, 54, 127
2, 200609, Note_off_c, 8, 44, 127
2, 200665, Note_on_c, 10, 81, 127
2, 200667, Note_off_c, 8, 80, 127
2, 200827, Note_off_c, 10, 81, 127
2, 200829, Note_on_c, 6, 78, 127
2, 200991, Note_off_c, 6, 78, 127
2, 200993, Note_on_c, 8, 68, 127
2, 200993, Note_on_c, 1, 73, 127
2, 200993, Note_on_c, 6, 78, 127
2, 200993, Note_on_c, 1, 49, 127
2, 200993, Note_on_c, 8, 56, 127
2, 200993, Note_on_c, 1, 61, 127
2, 200993, Note_on_c, 6, 66, 127
2, 201303, Note_off_c, 6, 66, 127
2, 201303, Note_off_c, 1, 61, 127
2, 201303, Note_off_c, 6, 78, 127
2, 201303, Note_off_c, 1, 73, 127
2, 201303, Note_off_c, 8, 68, 127
2, 201305, Note_on_c, 4, 76, 127
2, 201305, Note_on_c, 4, 64, 127
2, 202091, Note_off_c, 8, 56, 127
2, 202096, Note_off_c, 4, 64, 127
2, 202096, Note_off_c, 4, 76, 127
2, 202109, Note_off_c, 1, 49, 127
2, 202290, Note_on_c, 1, 73, 127
2, 202409, Note_off_c, 1, 73, 127
2, 202411, Note_on_c, 0, 72, 127
2, 202529, Note_off_c, 0, 72, 127
2, 202531, Note_on_c, 1, 73, 127
2, 202650, Note_off_c, 1, 73, 127
2, 202652, Note_on_c, 8, 68, 127
2, 202770, Note_off_c, 8, 68, 127
2, 202772, Note_on_c, 7, 67, 127
2, 202891, Note_off_c, 7, 67, 127
2, 202893, Note_on_c, 8, 68, 127
2, 203012, Note_off_c, 8, 68, 127
2, 203014, Note_on_c, 4, 64, 127
2, 203132, Note_off_c, 4, 64, 127
2, 203134, Note_on_c, 3, 63, 127
2, 203253, Note_off_c, 3, 63, 127
2, 203255, Note_on_c, 4, 64, 127
2, 203373, Note_off_c, 4, 64, 127
2, 203375, Note_on_c, 1, 61, 127
2, 203494, Note_off_c, 1, 61, 127
2, 203496, Note_on_c, 0, 60, 127
2, 203615, Note_off_c, 0, 60, 127
2, 203617, Note_on_c, 1, 61, 127
2, 203736, Note_off_c, 1, 61, 127
2, 203738, Note_on_c, 4, 64, 127
2, 203856, Note_off_c, 4, 64, 127
2, 203858, Note_on_c, 3, 63, 127
2, 203977, Note_off_c, 3, 63, 127
2, 203979, Note_on_c, 4, 64, 127
2, 204097, Note_off_c, 4, 64, 127
2, 204099, Note_on_c, 10, 69, 127
2, 204218, Note_off_c, 10, 69, 127
2, 204220, Note_on_c, 8, 68, 127
2, 204338, Note_off_c, 8, 68, 127
2, 204340, Note_on_c, 10, 69, 127
2, 204459, Note_off_c, 10, 69, 127
2, 204461, Note_on_c, 1, 73, 127
2, 204579, Note_off_c, 1, 73, 127
2, 204581, Note_on_c, 0, 72, 127
2, 204700, Note_off_c, 0, 72, 127
2, 204702, Note_on_c, 1, 73, 127
2, 204820, Note_off_c, 1, 73, 127
2, 204822, Note_on_c, 4, 76, 127
2, 204941, Note_off_c, 4, 76, 127
2, 204943, Note_on_c, 3, 75, 127
2, 205062, Note_off_c, 3, 75, 127
2, 205064, Note_on_c, 4, 76, 127
2, 205220, Note_off_c, 4, 76, 127
2, 205222, Note_on_c, 6, 78, 127
2, 205341, Note_off_c, 6, 78, 127
2, 205343, Note_on_c, 7, 79, 127
2, 205462, Note_off_c, 7, 79, 127
2, 205464, Note_on_c, 10, 81, 127
2, 205568, Note_off_c, 10, 81, 127
2, 205570, Note_on_c, 7, 79, 127
2, 205673, Note_off_c, 7, 79, 127
2, 205675, Note_on_c, 10, 81, 127
2, 205778, Note_off_c, 10, 81, 127
2, 205780, Note_on_c, 7, 79, 127
2, 205883, Note_off_c, 7, 79, 127
2, 205885, Note_on_c, 10, 81, 127
2, 205988, Note_off_c, 10, 81, 127
2, 205990, Note_on_c, 7, 79, 127
2, 206093, Note_off_c, 7, 79, 127
2, 206095, Note_on_c, 6, 78, 127
2, 206198, Note_off_c, 6, 78, 127
2, 206200, Note_on_c, 7, 79, 127
2, 206303, Note_off_c, 7, 79, 127
2, 206305, Note_on_c, 10, 81, 127
2, 206408, Note_off_c, 10, 81, 127
2, 206410, Note_on_c, 3, 75, 127
2, 206630, Note_off_c, 3, 75, 127
2, 206632, Note_on_c, 2, 74, 127
2, 206865, Note_off_c, 2, 74, 127
2, 206867, Note_on_c, 10, 69, 127
2, 206867, Note_on_c, 2, 74, 127
2, 206867, Note_on_c, 6, 66, 127
2, 206867, Note_on_c, 2, 62, 127
2, 206867, Note_on_c, 10, 57, 127
2, 206867, Note_on_c, 6, 54, 127
2, 206867, Note_on_c, 0, 48, 127
2, 207413, Note_off_c, 0, 48, 127
2, 207413, Note_off_c, 6, 54, 127
2, 207413, Note_off_c, 10, 57, 127
2, 207413, Note_off_c, 2, 62, 127
2, 207413, Note_off_c, 6, 66, 127
2, 207413, Note_off_c, 2, 74, 127
2, 207413, Note_off_c, 10, 69, 127
2, 207431, Note_on_c, 2, 74, 127
2, 207523, Note_off_c, 2, 74, 127
2, 207525, Note_on_c, 0, 72, 127
2, 207616, Note_off_c, 0, 72, 127
2, 207618, Note_on_c, 11, 70, 127
2, 207710, Note_off_c, 11, 70, 127
2, 207712, Note_on_c, 10, 69, 127
2, 207805, Note_off_c, 10, 69, 127
2, 207807, Note_on_c, 11, 70, 127
2, 207898, Note_off_c, 11, 70, 127
2, 207900, Note_on_c, 0, 72, 127
2, 207992, Note_off_c, 0, 72, 127
2, 207994, Note_on_c, 3, 75, 127
2, 208085, Note_off_c, 3, 75, 127
2, 208087, Note_on_c, 0, 72, 127
2, 208179, Note_off_c, 0, 72, 127
2, 208181, Note_on_c, 11, 70, 127
2, 208273, Note_off_c, 11, 70, 127
2, 208275, Note_on_c, 10, 69, 127
2, 208367, Note_off_c, 10, 69, 127
2, 208369, Note_on_c, 7, 67, 127
2, 208461, Note_off_c, 7, 67, 127
2, 208463, Note_on_c, 6, 66, 127
2, 208555, Note_off_c, 6, 66, 127
2, 208557, Note_on_c, 7, 67, 127
2, 208648, Note_off_c, 7, 67, 127
2, 208650, Note_on_c, 10, 69, 127
2, 208742, Note_off_c, 10, 69, 127
2, 208744, Note_on_c, 0, 72, 127
2, 208836, Note_off_c, 0, 72, 127
2, 208838, Note_on_c, 10, 69, 127
2, 208930, Note_off_c, 10, 69, 127
2, 208932, Note_on_c, 7, 67, 127
2, 209024, Note_off_c, 7, 67, 127
2, 209026, Note_on_c, 6, 66, 127
2, 209118, Note_off_c, 6, 66, 127
2, 209120, Note_on_c, 4, 64, 127
2, 209211, Note_off_c, 4, 64, 127
2, 209213, Note_on_c, 2, 62, 127
2, 209302, Note_off_c, 2, 62, 127
2, 209304, Note_on_c, 4, 64, 127
2, 209393, Note_off_c, 4, 64, 127
2, 209395, Note_on_c, 6, 66, 127
2, 209484, Note_off_c, 6, 66, 127
2, 209486, Note_on_c, 10, 69, 127
2, 209573, Note_off_c, 10, 69, 127
2, 209575, Note_on_c, 7, 67, 127
2, 209664, Note_off_c, 7, 67, 127
2, 209666, Note_on_c, 6, 66, 127
2, 209755, Note_off_c, 6, 66, 127
2, 209757, Note_on_c, 4, 64, 127
2, 209846, Note_off_c, 4, 64, 127
2, 209848, Note_on_c, 2, 62, 127
2, 209936, Note_off_c, 2, 62, 127
2, 209938, Note_on_c, 0, 60, 127
2, 210026, Note_off_c, 0, 60, 127
2, 210028, Note_on_c, 2, 62, 127
2, 210117, Note_off_c, 2, 62, 127
2, 210119, Note_on_c, 3, 63, 127
2, 210208, Note_off_c, 3, 63, 127
2, 210210, Note_on_c, 6, 66, 127
2, 210298, Note_off_c, 6, 66, 127
2, 210300, Note_on_c, 3, 63, 127
2, 210389, Note_off_c, 3, 63, 127
2, 210391, Note_on_c, 2, 62, 127
2, 210479, Note_off_c, 2, 62, 127
2, 210481, Note_on_c, 0, 60, 127
2, 210570, Note_off_c, 0, 60, 127
2, 210572, Note_on_c, 11, 58, 127
2, 210661, Note_off_c, 11, 58, 127
2, 210663, Note_on_c, 10, 57, 127
2, 210751, Note_off_c, 10, 57, 127
2, 210753, Note_on_c, 11, 58, 127
2, 210842, Note_off_c, 11, 58, 127
2, 210844, Note_on_c, 0, 60, 127
2, 210932, Note_off_c, 0, 60, 127
2, 210934, Note_on_c, 3, 63, 127
2, 211023, Note_off_c, 3, 63, 127
2, 211025, Note_on_c, 0, 60, 127
2, 211113, Note_off_c, 0, 60, 127
2, 211115, Note_on_c, 11, 58, 127
2, 211204, Note_off_c, 11, 58, 127
2, 211206, Note_on_c, 10, 57, 127
2, 211294, Note_off_c, 10, 57, 127
2, 211296, Note_on_c, 7, 55, 127
2, 211385, Note_off_c, 7, 55, 127
2, 211387, Note_on_c, 6, 54, 127
2, 211475, Note_off_c, 6, 54, 127
2, 211477, Note_on_c, 7, 55, 127
2, 211566, Note_off_c, 7, 55, 127
2, 211568, Note_on_c, 10, 57, 127
2, 211657, Note_off_c, 10, 57, 127
2, 211659, Note_on_c, 0, 60, 127
2, 211747, Note_off_c, 0, 60, 127
2, 211749, Note_on_c, 10, 57, 127
2, 211838, Note_off_c, 10, 57, 127
2, 211840, Note_on_c, 7, 55, 127
2, 211928, Note_off_c, 7, 55, 127
2, 211930, Note_on_c, 6, 54, 127
2, 212019, Note_off_c, 6, 54, 127
2, 212021, Note_on_c, 4, 52, 127
2, 212123, Note_off_c, 4, 52, 127
2, 212125, Note_on_c, 2, 50, 127
2, 212209, Note_off_c, 2, 50, 127
2, 212211, Note_on_c, 4, 52, 127
2, 212294, Note_off_c, 4, 52, 127
2, 212296, Note_on_c, 6, 54, 127
2, 212380, Note_off_c, 6, 54, 127
2, 212382, Note_on_c, 7, 55, 127
2, 212466, Note_off_c, 7, 55, 127
2, 212468, Note_on_c, 10, 57, 127
2, 212552, Note_off_c, 10, 57, 127
2, 212554, Note_on_c, 11, 58, 127
2, 212637, Note_off_c, 11, 58, 127
2, 212639, Note_on_c, 10, 57, 127
2, 212723, Note_off_c, 10, 57, 127
2, 212725, Note_on_c, 11, 58, 127
2, 212809, Note_off_c, 11, 58, 127
2, 212811, Note_on_c, 0, 60, 127
2, 212894, Note_off_c, 0, 60, 127
2, 212896, Note_on_c, 6, 54, 127
2, 212978, Note_off_c, 6, 54, 127
2, 212980, Note_on_c, 7, 55, 127
2, 213061, Note_off_c, 7, 55, 127
2, 213063, Note_on_c, 10, 57, 127
2, 213144, Note_off_c, 10, 57, 127
2, 213146, Note_on_c, 11, 58, 127
2, 213227, Note_off_c, 11, 58, 127
2, 213229, Note_on_c, 0, 60, 127
2, 213310, Note_off_c, 0, 60, 127
2, 213312, Note_on_c, 2, 62, 127
2, 213394, Note_off_c, 2, 62, 127
2, 213396, Note_on_c, 3, 63, 127
2, 213477, Note_off_c, 3, 63, 127
2, 213479, Note_on_c, 0, 60, 127
2, 213560, Note_off_c, 0, 60, 127
2, 213562, Note_on_c, 2, 62, 127
2, 213643, Note_off_c, 2, 62, 127
2, 213645, Note_on_c, 3, 63, 127
2, 213726, Note_off_c, 3, 63, 127
2, 213728, Note_on_c, 10, 57, 127
2, 213807, Note_off_c, 10, 57, 127
2, 213809, Note_on_c, 11, 58, 127
2, 213888, Note_off_c, 11, 58, 127
2, 213890, Note_on_c, 0, 60, 127
2, 213968, Note_off_c, 0, 60, 127
2, 213970, Note_on_c, 2, 62, 127
2, 214049, Note_off_c, 2, 62, 127
2, 214051, Note_on_c, 4, 64, 127
2, 214130, Note_off_c, 4, 64, 127
2, 214132, Note_on_c, 6, 66, 127
2, 214210, Note_off_c, 6, 66, 127
2, 214212, Note_on_c, 7, 67, 127
2, 214291, Note_off_c, 7, 67, 127
2, 214293, Note_on_c, 10, 69, 127
2, 214372, Note_off_c, 10, 69, 127
2, 214374, Note_on_c, 6, 66, 127
2, 214452, Note_off_c, 6, 66, 127
2, 214454, Note_on_c, 7, 67, 127
2, 214533, Note_off_c, 7, 67, 127
2, 214535, Note_on_c, 10, 69, 127
2, 214614, Note_off_c, 10, 69, 127
2, 214616, Note_on_c, 2, 62, 127
2, 214692, Note_off_c, 2, 62, 127
2, 214694, Note_on_c, 4, 64, 127
2, 214770, Note_off_c, 4, 64, 127
2, 214772, Note_on_c, 6, 66, 127
2, 214848, Note_off_c, 6, 66, 127
2, 214850, Note_on_c, 7, 67, 127
2, 214926, Note_off_c, 7, 67, 127
2, 214928, Note_on_c, 10, 69, 127
2, 215005, Note_off_c, 10, 69, 127
2, 215007, Note_on_c, 11, 70, 127
2, 215083, Note_off_c, 11, 70, 127
2, 215085, Note_on_c, 0, 72, 127
2, 215161, Note_off_c, 0, 72, 127
2, 215163, Note_on_c, 10, 69, 127
2, 215239, Note_off_c, 10, 69, 127
2, 215241, Note_on_c, 11, 70, 127
2, 215317, Note_off_c, 11, 70, 127
2, 215319, Note_on_c, 0, 72, 127
2, 215395, Note_off_c, 0, 72, 127
2, 215397, Note_on_c, 6, 66, 127
2, 215471, Note_off_c, 6, 66, 127
2, 215473, Note_on_c, 7, 67, 127
2, 215547, Note_off_c, 7, 67, 127
2, 215549, Note_on_c, 10, 69, 127
2, 215622, Note_off_c, 10, 69, 127
2, 215624, Note_on_c, 11, 70, 127
2, 215698, Note_off_c, 11, 70, 127
2, 215700, Note_on_c, 0, 72, 127
2, 215773, Note_off_c, 0, 72, 127
2, 215775, Note_on_c, 2, 74, 127
2, 215849, Note_off_c, 2, 74, 127
2, 215851, Note_on_c, 3, 75, 127
2, 215925, Note_off_c, 3, 75, 127
2, 215927, Note_on_c, 0, 72, 127
2, 216000, Note_off_c, 0, 72, 127
2, 216002, Note_on_c, 2, 74, 127
2, 216076, Note_off_c, 2, 74, 127
2, 216078, Note_on_c, 3, 75, 127
2, 216152, Note_off_c, 3, 75, 127
2, 216154, Note_on_c, 10, 69, 127
2, 216226, Note_off_c, 10, 69, 127
2, 216228, Note_on_c, 11, 70, 127
2, 216299, Note_off_c, 11, 70, 127
2, 216301, Note_on_c, 0, 72, 127
2, 216373, Note_off_c, 0, 72, 127
2, 216375, Note_on_c, 2, 74, 127
2, 216447, Note_off_c, 2, 74, 127
2, 216449, Note_on_c, 4, 76, 127
2, 216521, Note_off_c, 4, 76, 127
2, 216523, Note_on_c, 6, 78, 127
2, 216595, Note_off_c, 6, 78, 127
2, 216597, Note_on_c, 7, 79, 127
2, 216669, Note_off_c, 7, 79, 127
2, 216671, Note_on_c, 10, 81, 127
2, 216743, Note_off_c, 10, 81, 127
2, 216745, Note_on_c, 6, 78, 127
2, 216817, Note_off_c, 6, 78, 127
2, 216819, Note_on_c, 7, 79, 127
2, 216891, Note_off_c, 7, 79, 127
2, 216893, Note_on_c, 10, 81, 127
2, 216965, Note_off_c, 10, 81, 127
2, 216967, Note_on_c, 2, 74, 127
2, 217091, Note_off_c, 2, 74, 127
2, 217093, Note_on_c, 4, 76, 127
2, 217156, Note_off_c, 4, 76, 127
2, 217158, Note_on_c, 6, 78, 127
2, 217220, Note_off_c, 6, 78, 127
2, 217222, Note_on_c, 7, 79, 127
2, 217285, Note_off_c, 7, 79, 127
2, 217287, Note_on_c, 10, 81, 127
2, 217350, Note_off_c, 10, 81, 127
2, 217352, Note_on_c, 11, 82, 127
2, 217415, Note_off_c, 11, 82, 127
2, 217417, Note_on_c, 0, 84, 127
2, 217477, Note_off_c, 0, 84, 127
2, 217479, Note_on_c, 11, 82, 127
2, 217539, Note_off_c, 11, 82, 127
2, 217541, Note_on_c, 10, 81, 127
2, 217601, Note_off_c, 10, 81, 127
2, 217603, Note_on_c, 7, 79, 127
2, 217663, Note_off_c, 7, 79, 127
2, 217665, Note_on_c, 6, 78, 127
2, 217726, Note_off_c, 6, 78, 127
2, 217728, Note_on_c, 4, 76, 127
2, 217788, Note_off_c, 4, 76, 127
2, 217790, Note_on_c, 2, 74, 127
2, 217850, Note_off_c, 2, 74, 127
2, 217852, Note_on_c, 0, 72, 127
2, 217912, Note_off_c, 0, 72, 127
2, 217914, Note_on_c, 11, 70, 127
2, 217974, Note_off_c, 11, 70, 127
2, 217976, Note_on_c, 10, 69, 127
2, 218036, Note_off_c, 10, 69, 127
2, 218038, Note_on_c, 7, 67, 127
2, 218099, Note_off_c, 7, 67, 127
2, 218101, Note_on_c, 6, 66, 127
2, 218161, Note_off_c, 6, 66, 127
2, 218163, Note_on_c, 4, 64, 127
2, 218223, Note_off_c, 4, 64, 127
2, 218225, Note_on_c, 2, 62, 127
2, 218285, Note_off_c, 2, 62, 127
2, 218287, Note_on_c, 0, 60, 127
2, 218347, Note_off_c, 0, 60, 127
2, 218349, Note_on_c, 11, 58, 127
2, 218410, Note_off_c, 11, 58, 127
2, 218412, Note_on_c, 10, 57, 127
2, 218472, Note_off_c, 10, 57, 127
2, 218474, Note_on_c, 7, 55, 127
2, 218534, Note_off_c, 7, 55, 127
2, 218536, Note_on_c, 6, 54, 127
2, 218596, Note_off_c, 6, 54, 127
2, 218598, Note_on_c, 4, 52, 127
2, 218658, Note_off_c, 4, 52, 127
2, 218660, Note_on_c, 2, 50, 127
2, 218720, Note_off_c, 2, 50, 127
2, 218722, Note_on_c, 0, 48, 127
2, 218783, Note_off_c, 0, 48, 127
2, 218785, Note_on_c, 11, 46, 127
2, 218845, Note_off_c, 11, 46, 127
2, 218847, Note_on_c, 10, 45, 127
2, 218907, Note_off_c, 10, 45, 127
2, 218909, Note_on_c, 7, 43, 127
2, 218969, Note_off_c, 7, 43, 127
2, 218971, Note_on_c, 6, 42, 127
2, 219031, Note_off_c, 6, 42, 127
2, 219033, Note_on_c, 4, 40, 127
2, 219094, Note_off_c, 4, 40, 127
2, 219096, Note_on_c, 2, 38, 127
2, 219341, Note_on_c, 0, 72, 127
2, 219584, Note_off_c, 0, 72, 127
2, 219586, Note_on_c, 2, 62, 127
2, 219586, Note_on_c, 6, 66, 127
2, 219586, Note_on_c, 11, 70, 127
2, 219586, Note_on_c, 2, 50, 127
2, 219586, Note_on_c, 6, 54, 127
2, 219586, Note_on_c, 10, 57, 127
2, 219588, Note_off_c, 2, 38, 127
2, 219830, Note_off_c, 11, 70, 127
2, 219832, Note_on_c, 0, 72, 127
2, 219952, Note_off_c, 0, 72, 127
2, 219954, Note_on_c, 10, 69, 127
2, 220054, Note_off_c, 10, 57, 127
2, 220054, Note_off_c, 2, 62, 127
2, 220072, Note_off_c, 6, 54, 127
2, 220072, Note_off_c, 2, 50, 127
2, 220072, Note_off_c, 6, 66, 127
2, 220075, Note_off_c, 10, 69, 127
2, 220077, Note_on_c, 10, 69, 127
2, 220077, Note_on_c, 7, 43, 127
2, 220077, Note_on_c, 11, 46, 127
2, 220077, Note_on_c, 2, 50, 127
2, 220077, Note_on_c, 7, 55, 127
2, 220077, Note_on_c, 2, 62, 127
2, 220077, Note_on_c, 7, 67, 127
2, 220320, Note_off_c, 10, 69, 127
2, 220322, Note_on_c, 11, 70, 127
2, 220403, Note_off_c, 11, 70, 127
2, 220405, Note_on_c, 10, 69, 127
2, 220485, Note_off_c, 10, 69, 127
2, 220487, Note_on_c, 11, 70, 127
2, 220568, Note_off_c, 11, 70, 127
2, 220570, Note_on_c, 10, 69, 127
2, 220650, Note_off_c, 10, 69, 127
2, 220652, Note_on_c, 11, 70, 127
2, 220732, Note_off_c, 11, 70, 127
2, 220734, Note_on_c, 10, 69, 127
2, 220815, Note_off_c, 10, 69, 127
2, 220817, Note_on_c, 11, 70, 127
2, 220897, Note_off_c, 11, 70, 127
2, 220899, Note_on_c, 10, 69, 127
2, 220979, Note_off_c, 10, 69, 127
2, 220981, Note_on_c, 11, 70, 127
2, 221463, Note_off_c, 7, 43, 127
2, 221553, Note_off_c, 11, 46, 127
2, 221649, Note_off_c, 2, 50, 127
2, 221751, Note_off_c, 7, 55, 127
2, 221841, Note_off_c, 2, 62, 127
2, 221925, Note_off_c, 7, 67, 127
2, 222385, Note_off_c, 11, 70, 127
2, 222387, Note_on_c, 11, 70, 127
2, 222524, Note_off_c, 11, 70, 127
2, 222526, Note_on_c, 0, 72, 127
2, 222664, Note_off_c, 0, 72, 127
2, 222666, Note_on_c, 2, 74, 127
2, 222803, Note_off_c, 2, 74, 127
2, 222805, Note_on_c, 3, 75, 127
2, 222943, Note_off_c, 3, 75, 127
2, 222945, Note_on_c, 2, 74, 127
2, 223082, Note_off_c, 2, 74, 127
2, 223084, Note_on_c, 3, 75, 127
2, 223222, Note_off_c, 3, 75, 127
2, 223224, Note_on_c, 2, 74, 127
2, 223361, Note_off_c, 2, 74, 127
2, 223363, Note_on_c, 3, 75, 127
2, 223501, Note_off_c, 3, 75, 127
2, 223503, Note_on_c, 2, 74, 127
2, 223640, Note_off_c, 2, 74, 127
2, 223642, Note_on_c, 0, 72, 127
2, 223780, Note_off_c, 0, 72, 127
2, 223782, Note_on_c, 2, 74, 127
2, 223919, Note_off_c, 2, 74, 127
2, 223921, Note_on_c, 3, 75, 127
2, 224197, Note_off_c, 3, 75, 127
2, 224199, Note_on_c, 10, 69, 127
2, 224337, Note_off_c, 10, 69, 127
2, 224339, Note_on_c, 11, 70, 127
2, 224476, Note_off_c, 11, 70, 127
2, 224478, Note_on_c, 0, 72, 127
2, 224616, Note_off_c, 0, 72, 127
2, 224618, Note_on_c, 11, 70, 127
2, 224755, Note_off_c, 11, 70, 127
2, 224757, Note_on_c, 0, 72, 127
2, 224895, Note_off_c, 0, 72, 127
2, 224897, Note_on_c, 11, 70, 127
2, 225034, Note_off_c, 11, 70, 127
2, 225036, Note_on_c, 0, 72, 127
2, 225174, Note_off_c, 0, 72, 127
2, 225176, Note_on_c, 11, 70, 127
2, 225313, Note_off_c, 11, 70, 127
2, 225315, Note_on_c, 10, 69, 127
2, 225453, Note_off_c, 10, 69, 127
2, 225455, Note_on_c, 11, 70, 127
2, 225592, Note_off_c, 11, 70, 127
2, 225594, Note_on_c, 0, 72, 127
2, 225870, Note_off_c, 0, 72, 127
2, 225872, Note_on_c, 6, 66, 127
2, 226010, Note_off_c, 6, 66, 127
2, 226012, Note_on_c, 7, 67, 127
2, 226149, Note_off_c, 7, 67, 127
2, 226151, Note_on_c, 10, 69, 127
2, 226289, Note_off_c, 10, 69, 127
2, 226291, Note_on_c, 7, 67, 127
2, 226428, Note_off_c, 7, 67, 127
2, 226430, Note_on_c, 10, 69, 127
2, 226568, Note_off_c, 10, 69, 127
2, 226570, Note_on_c, 7, 67, 127
2, 226707, Note_off_c, 7, 67, 127
2, 226709, Note_on_c, 10, 69, 127
2, 226847, Note_off_c, 10, 69, 127
2, 226849, Note_on_c, 7, 67, 127
2, 226986, Note_off_c, 7, 67, 127
2, 226988, Note_on_c, 6, 66, 127
2, 227126, Note_off_c, 6, 66, 127
2, 227128, Note_on_c, 7, 67, 127
2, 227265, Note_off_c, 7, 67, 127
2, 227267, Note_on_c, 10, 69, 127
2, 227682, Note_off_c, 10, 69, 127
2, 227684, Note_on_c, 10, 69, 127
2, 227684, Note_on_c, 6, 66, 127
2, 227684, Note_on_c, 3, 63, 127
2, 227684, Note_on_c, 0, 48, 127
2, 227684, Note_on_c, 3, 51, 127
2, 227684, Note_on_c, 6, 54, 127
2, 227684, Note_on_c, 10, 57, 127
2, 228534, Note_off_c, 10, 57, 127
2, 228534, Note_off_c, 6, 54, 127
2, 228534, Note_off_c, 3, 51, 127
2, 228534, Note_off_c, 0, 48, 127
2, 228534, Note_off_c, 3, 63, 127
2, 228534, Note_off_c, 6, 66, 127
2, 228534, Note_off_c, 10, 69, 127
2, 228536, Note_on_c, 10, 69, 127
2, 228762, Note_off_c, 10, 69, 127
2, 228764, Note_on_c, 0, 72, 127
2, 228990, Note_off_c, 0, 72, 127
2, 228992, Note_on_c, 11, 70, 127
2, 229217, Note_off_c, 11, 70, 127
2, 229219, Note_on_c, 10, 69, 127
2, 229445, Note_off_c, 10, 69, 127
2, 229447, Note_on_c, 7, 67, 127
2, 229673, Note_off_c, 7, 67, 127
2, 229675, Note_on_c, 10, 69, 127
2, 229793, Note_off_c, 10, 69, 127
2, 229795, Note_on_c, 6, 66, 127
2, 229913, Note_off_c, 6, 66, 127
2, 229915, Note_on_c, 7, 67, 127
2, 230368, Note_off_c, 7, 67, 127
2, 230370, Note_on_c, 1, 49, 127
2, 230370, Note_on_c, 4, 52, 127
2, 230370, Note_on_c, 7, 55, 127
2, 230370, Note_on_c, 4, 64, 127
2, 230370, Note_on_c, 7, 67, 127
2, 230370, Note_on_c, 11, 58, 127
2, 231277, Note_off_c, 11, 58, 127
2, 231277, Note_off_c, 7, 67, 127
2, 231277, Note_off_c, 4, 64, 127
2, 231277, Note_off_c, 7, 55, 127
2, 231277, Note_off_c, 4, 52, 127
2, 231277, Note_off_c, 1, 49, 127
2, 231279, Note_on_c, 10, 69, 127
2, 231381, Note_off_c, 10, 69, 127
2, 231383, Note_on_c, 8, 68, 127
2, 231485, Note_off_c, 8, 68, 127
2, 231487, Note_on_c, 10, 69, 127
2, 231590, Note_off_c, 10, 69, 127
2, 231592, Note_on_c, 12, 71, 127
2, 231694, Note_off_c, 12, 71, 127
2, 231696, Note_on_c, 1, 73, 127
2, 231798, Note_off_c, 1, 73, 127
2, 231800, Note_on_c, 2, 74, 127
2, 231902, Note_off_c, 2, 74, 127
2, 231904, Note_on_c, 4, 76, 127
2, 232006, Note_off_c, 4, 76, 127
2, 232008, Note_on_c, 5, 77, 127
2, 232111, Note_off_c, 5, 77, 127
2, 232113, Note_on_c, 7, 79, 127
2, 232215, Note_off_c, 7, 79, 127
2, 232217, Note_on_c, 5, 77, 127
2, 232319, Note_off_c, 5, 77, 127
2, 232321, Note_on_c, 7, 79, 127
2, 232423, Note_off_c, 7, 79, 127
2, 232425, Note_on_c, 4, 76, 127
2, 232527, Note_off_c, 4, 76, 127
2, 232529, Note_on_c, 2, 62, 127
2, 232529, Note_on_c, 10, 57, 127
2, 232529, Note_on_c, 5, 53, 127
2, 232529, Note_on_c, 2, 50, 127
2, 232529, Note_on_c, 10, 69, 127
2, 232529, Note_on_c, 5, 65, 127
2, 232529, Note_on_c, 2, 74, 127
2, 232529, Note_on_c, 5, 77, 127
2, 232764, Note_off_c, 5, 77, 127
2, 232764, Note_off_c, 2, 74, 127
2, 232766, Note_on_c, 2, 74, 127
2, 233001, Note_off_c, 2, 74, 127
2, 233003, Note_on_c, 4, 76, 127
2, 233238, Note_off_c, 4, 76, 127
2, 233240, Note_on_c, 5, 77, 127
2, 233457, Note_off_c, 2, 50, 127
2, 233457, Note_off_c, 5, 53, 127
2, 233471, Note_off_c, 2, 62, 127
2, 233473, Note_off_c, 10, 57, 127
2, 233482, Note_off_c, 5, 77, 127
2, 233484, Note_on_c, 0, 60, 127
2, 233484, Note_on_c, 7, 79, 127
2, 233712, Note_off_c, 7, 79, 127
2, 233714, Note_on_c, 5, 77, 127
2, 233869, Note_off_c, 5, 77, 127
2, 233871, Note_on_c, 4, 76, 127
2, 234025, Note_off_c, 4, 76, 127
2, 234027, Note_on_c, 5, 77, 127
2, 234248, Note_off_c, 5, 77, 127
2, 234250, Note_on_c, 7, 79, 127
2, 234395, Note_off_c, 10, 69, 127
2, 234407, Note_off_c, 5, 65, 127
2, 234450, Note_off_c, 0, 60, 127
2, 234459, Note_off_c, 7, 79, 127
2, 234460, Note_on_c, 11, 58, 127
2, 234461, Note_on_c, 2, 74, 127
2, 234461, Note_on_c, 10, 81, 127
2, 234461, Note_on_c, 7, 67, 127
2, 234606, Note_off_c, 10, 81, 127
2, 234608, Note_on_c, 7, 79, 127
2, 234726, Note_off_c, 7, 79, 127
2, 234728, Note_on_c, 10, 81, 127
2, 234846, Note_off_c, 10, 81, 127
2, 234848, Note_on_c, 7, 79, 127
2, 234966, Note_off_c, 7, 79, 127
2, 234968, Note_on_c, 4, 64, 127
2, 234968, Note_on_c, 10, 81, 127
2, 235086, Note_off_c, 10, 81, 127
2, 235088, Note_on_c, 7, 79, 127
2, 235206, Note_off_c, 7, 79, 127
2, 235208, Note_on_c, 10, 81, 127
2, 235327, Note_off_c, 10, 81, 127
2, 235329, Note_on_c, 7, 79, 127
2, 235446, Note_off_c, 7, 79, 127
2, 235448, Note_off_c, 4, 64, 127
2, 235448, Note_on_c, 10, 81, 127
2, 235448, Note_on_c, 1, 61, 127
2, 235566, Note_off_c, 10, 81, 127
2, 235568, Note_on_c, 7, 79, 127
2, 235686, Note_off_c, 7, 79, 127
2, 235688, Note_on_c, 10, 81, 127
2, 235806, Note_off_c, 10, 81, 127
2, 235808, Note_on_c, 7, 79, 127
2, 235927, Note_off_c, 7, 79, 127
2, 235928, Note_off_c, 1, 61, 127
2, 235929, Note_on_c, 10, 81, 127
2, 235929, Note_on_c, 2, 62, 127
2, 236047, Note_off_c, 10, 81, 127
2, 236049, Note_on_c, 7, 79, 127
2, 236167, Note_off_c, 7, 79, 127
2, 236169, Note_on_c, 5, 77, 127
2, 236314, Note_off_c, 5, 77, 127
2, 236316, Note_on_c, 7, 79, 127
2, 236413, Note_off_c, 7, 67, 127
2, 236417, Note_off_c, 2, 62, 127
2, 236420, Note_off_c, 11, 58, 127
2, 236445, Note_off_c, 2, 74, 127
2, 236469, Note_off_c, 7, 79, 127
2, 236471, Note_on_c, 10, 81, 127
2, 236471, Note_on_c, 4, 76, 127
2, 236471, Note_on_c, 10, 69, 127
2, 236471, Note_on_c, 1, 73, 127
2, 236471, Note_on_c, 10, 45, 127
2, 236471, Note_on_c, 1, 49, 127
2, 236471, Note_on_c, 4, 52, 127
2, 236471, Note_on_c, 10, 57, 127
2, 237685, Note_off_c, 10, 57, 127
2, 237685, Note_off_c, 4, 52, 127
2, 237685, Note_off_c, 1, 49, 127
2, 237685, Note_off_c, 10, 45, 127
2, 237685, Note_off_c, 1, 73, 127
2, 237685, Note_off_c, 10, 69, 127
2, 237685, Note_off_c, 4, 76, 127
2, 237685, Note_off_c, 10, 81, 127
2, 237687, Note_on_c, 11, 82, 127
2, 237794, Note_off_c, 11, 82, 127
2, 237796, Note_on_c, 10, 81, 127
2, 237903, Note_off_c, 10, 81, 127
2, 237905, Note_on_c, 7, 79, 127
2, 238013, Note_off_c, 7, 79, 127
2, 238015, Note_on_c, 5, 77, 127
2, 238122, Note_off_c, 5, 77, 127
2, 238124, Note_on_c, 4, 76, 127
2, 238231, Note_off_c, 4, 76, 127
2, 238233, Note_on_c, 2, 74, 127
2, 238340, Note_off_c, 2, 74, 127
2, 238342, Note_on_c, 1, 73, 127
2, 238450, Note_off_c, 1, 73, 127
2, 238452, Note_on_c, 12, 71, 127
2, 238559, Note_off_c, 12, 71, 127
2, 238561, Note_on_c, 10, 69, 127
2, 238668, Note_off_c, 10, 69, 127
2, 238670, Note_on_c, 12, 71, 127
2, 238777, Note_off_c, 12, 71, 127
2, 238779, Note_on_c, 1, 73, 127
2, 238887, Note_off_c, 1, 73, 127
2, 238889, Note_on_c, 2, 74, 127
2, 238996, Note_off_c, 2, 74, 127
2, 238998, Note_on_c, 4, 76, 127
2, 239105, Note_off_c, 4, 76, 127
2, 239107, Note_on_c, 5, 77, 127
2, 239214, Note_off_c, 5, 77, 127
2, 239216, Note_on_c, 7, 79, 127
2, 239344, Note_off_c, 7, 79, 127
2, 239346, Note_on_c, 4, 76, 127
2, 239453, Note_off_c, 4, 76, 127
2, 239455, Note_on_c, 1, 73, 127
2, 239562, Note_off_c, 1, 73, 127
2, 239564, Note_on_c, 11, 70, 127
2, 239672, Note_off_c, 11, 70, 127
2, 239674, Note_on_c, 7, 67, 127
2, 239781, Note_off_c, 7, 67, 127
2, 239783, Note_on_c, 4, 64, 127
2, 239890, Note_off_c, 4, 64, 127
2, 239892, Note_on_c, 1, 61, 127
2, 239999, Note_off_c, 1, 61, 127
2, 240001, Note_on_c, 11, 58, 127
2, 240108, Note_off_c, 11, 58, 127
2, 240110, Note_on_c, 7, 55, 127
2, 240218, Note_off_c, 7, 55, 127
2, 240220, Note_on_c, 4, 52, 127
2, 240327, Note_off_c, 4, 52, 127
2, 240329, Note_on_c, 1, 49, 127
2, 240436, Note_off_c, 1, 49, 127
2, 240438, Note_on_c, 4, 52, 127
2, 240545, Note_off_c, 4, 52, 127
2, 240547, Note_on_c, 6, 42, 127
2, 240977, Note_off_c, 6, 42, 127
2, 240979, Note_on_c, 10, 69, 127
2, 240979, Note_on_c, 6, 66, 127
2, 240979, Note_on_c, 3, 63, 127
2, 240979, Note_on_c, 0, 60, 127
2, 240979, Note_on_c, 6, 54, 127
2, 240979, Note_on_c, 10, 57, 127
2, 240979, Note_on_c, 0, 72, 127
2, 240979, Note_on_c, 3, 75, 127
2, 241198, Note_off_c, 3, 75, 127
2, 241198, Note_off_c, 0, 72, 127
2, 241198, Note_off_c, 0, 60, 127
2, 241198, Note_off_c, 3, 63, 127
2, 241200, Note_on_c, 2, 62, 127
2, 241200, Note_on_c, 2, 74, 127
2, 241795, Note_off_c, 6, 66, 127
2, 241795, Note_off_c, 10, 69, 127
2, 241803, Note_off_c, 10, 57, 127
2, 241811, Note_off_c, 6, 54, 127
2, 241833, Note_off_c, 2, 74, 127
2, 241833, Note_off_c, 2, 62, 127
2, 241883, Note_on_c, 2, 50, 127
2, 241978, Note_off_c, 2, 50, 127
2, 241980, Note_on_c, 4, 52, 127
2, 242074, Note_off_c, 4, 52, 127
2, 242076, Note_on_c, 6, 54, 127
2, 242171, Note_off_c, 6, 54, 127
2, 242173, Note_on_c, 7, 55, 127
2, 242267, Note_off_c, 7, 55, 127
2, 242269, Note_on_c, 10, 57, 127
2, 242364, Note_off_c, 10, 57, 127
2, 242366, Note_on_c, 11, 58, 127
2, 242461, Note_off_c, 11, 58, 127
2, 242463, Note_on_c, 0, 60, 127
2, 242557, Note_off_c, 0, 60, 127
2, 242559, Note_on_c, 2, 62, 127
2, 242654, Note_off_c, 2, 62, 127
2, 242656, Note_on_c, 3, 63, 127
2, 242751, Note_off_c, 3, 63, 127
2, 242753, Note_on_c, 2, 62, 127
2, 242847, Note_off_c, 2, 62, 127
2, 242849, Note_on_c, 0, 60, 127
2, 242944, Note_off_c, 0, 60, 127
2, 242946, Note_on_c, 11, 58, 127
2, 243041, Note_off_c, 11, 58, 127
2, 243043, Note_on_c, 10, 57, 127
2, 243137, Note_off_c, 10, 57, 127
2, 243139, Note_on_c, 7, 55, 127
2, 243234, Note_off_c, 7, 55, 127
2, 243236, Note_on_c, 6, 54, 127
2, 243347, Note_off_c, 6, 54, 127
2, 243349, Note_on_c, 10, 57, 127
2, 243461, Note_off_c, 10, 57, 127
2, 243463, Note_on_c, 0, 60, 127
2, 243574, Note_off_c, 0, 60, 127
2, 243576, Note_on_c, 3, 63, 127
2, 243688, Note_off_c, 3, 63, 127
2, 243690, Note_on_c, 6, 66, 127
2, 243801, Note_off_c, 6, 66, 127
2, 243803, Note_on_c, 10, 69, 127
2, 243914, Note_off_c, 10, 69, 127
2, 243916, Note_on_c, 0, 72, 127
2, 244028, Note_off_c, 0, 72, 127
2, 244030, Note_on_c, 3, 75, 127
2, 244141, Note_off_c, 3, 75, 127
2, 244143, Note_on_c, 6, 78, 127
2, 244255, Note_off_c, 6, 78, 127
2, 244257, Note_on_c, 10, 81, 127
2, 244482, Note_off_c, 10, 81, 127
2, 244484, Note_on_c, 0, 84, 127
2, 244595, Note_off_c, 0, 84, 127
2, 244597, Note_on_c, 10, 81, 127
2, 244709, Note_off_c, 10, 81, 127
2, 244711, Note_on_c, 6, 78, 127
2, 244935, Note_off_c, 6, 78, 127
2, 244937, Note_on_c, 10, 81, 127
2, 245049, Note_off_c, 10, 81, 127
2, 245051, Note_on_c, 6, 78, 127
2, 245162, Note_off_c, 6, 78, 127
2, 245164, Note_on_c, 2, 74, 127
2, 245389, Note_off_c, 2, 74, 127
2, 245391, Note_on_c, 6, 78, 127
2, 245503, Note_off_c, 6, 78, 127
2, 245505, Note_on_c, 2, 74, 127
2, 245616, Note_off_c, 2, 74, 127
2, 245618, Note_on_c, 0, 72, 127
2, 245910, Note_off_c, 0, 72, 127
2, 245912, Note_on_c, 12, 71, 127
2, 246204, Note_off_c, 12, 71, 127
2, 246206, Note_on_c, 5, 41, 127
2, 246206, Note_on_c, 7, 43, 127
2, 246206, Note_on_c, 2, 50, 127
2, 246206, Note_on_c, 7, 55, 127
2, 246206, Note_on_c, 2, 62, 127
2, 246206, Note_on_c, 7, 67, 127
2, 246206, Note_on_c, 12, 59, 127
2, 246206, Note_on_c, 12, 71, 127
2, 247057, Note_off_c, 12, 71, 127
2, 247059, Note_on_c, 12, 71, 127
2, 247126, Note_off_c, 12, 59, 127
2, 247126, Note_off_c, 2, 62, 127
2, 247134, Note_off_c, 7, 55, 127
2, 247134, Note_off_c, 7, 43, 127
2, 247142, Note_off_c, 7, 67, 127
2, 247142, Note_off_c, 2, 50, 127
2, 247142, Note_off_c, 5, 41, 127
2, 247196, Note_off_c, 12, 71, 127
2, 247198, Note_on_c, 1, 73, 127
2, 247336, Note_off_c, 1, 73, 127
2, 247338, Note_on_c, 2, 74, 127
2, 247475, Note_off_c, 2, 74, 127
2, 247477, Note_on_c, 4, 76, 127
2, 247615, Note_off_c, 4, 76, 127
2, 247617, Note_on_c, 5, 77, 127
2, 247754, Note_off_c, 5, 77, 127
2, 247756, Note_on_c, 1, 73, 127
2, 247756, Note_on_c, 7, 79, 127
2, 247756, Note_on_c, 4, 76, 127
2, 247756, Note_on_c, 10, 69, 127
2, 247756, Note_on_c, 4, 52, 127
2, 247756, Note_on_c, 7, 55, 127
2, 247756, Note_on_c, 1, 61, 127
2, 248310, Note_off_c, 1, 61, 127
2, 248310, Note_off_c, 7, 55, 127
2, 248310, Note_off_c, 4, 52, 127
2, 248310, Note_off_c, 10, 69, 127
2, 248310, Note_off_c, 4, 76, 127
2, 248310, Note_off_c, 7, 79, 127
2, 248310, Note_off_c, 1, 73, 127
2, 248312, Note_on_c, 10, 81, 127
2, 248312, Note_on_c, 2, 74, 127
2, 248312, Note_on_c, 10, 69, 127
2, 248312, Note_on_c, 5, 77, 127
2, 248312, Note_on_c, 2, 50, 127
2, 248312, Note_on_c, 5, 53, 127
2, 248312, Note_on_c, 2, 62, 127
2, 248576, Note_off_c, 5, 53, 127
2, 248591, Note_on_c, 7, 55, 127
2, 248840, Note_off_c, 2, 62, 127
2, 248840, Note_off_c, 2, 74, 127
2, 248840, Note_off_c, 10, 81, 127
2, 248848, Note_off_c, 5, 77, 127
2, 248848, Note_off_c, 10, 69, 127
2, 248867, Note_off_c, 7, 55, 127
2, 248869, Note_on_c, 10, 69, 127
2, 248869, Note_on_c, 5, 77, 127
2, 248869, Note_on_c, 2, 74, 127
2, 248869, Note_on_c, 10, 57, 127
2, 248872, Note_off_c, 2, 50, 127
2, 249423, Note_off_c, 10, 57, 127
2, 249423, Note_off_c, 2, 74, 127
2, 249423, Note_off_c, 5, 77, 127
2, 249423, Note_off_c, 10, 69, 127
2, 249425, Note_on_c, 10, 45, 127
2, 249425, Note_on_c, 1, 73, 127
2, 249425, Note_on_c, 7, 67, 127
2, 249425, Note_on_c, 10, 69, 127
2, 249425, Note_on_c, 4, 76, 127
2, 249701, Note_off_c, 4, 76, 127
2, 249701, Note_off_c, 1, 73, 127
2, 249703, Note_on_c, 2, 74, 127
2, 249961, Note_off_c, 10, 69, 127
2, 249961, Note_off_c, 7, 67, 127
2, 249977, Note_off_c, 10, 45, 127
2, 249979, Note_off_c, 2, 74, 127
2, 249981, Note_on_c, 2, 74, 127
2, 249981, Note_on_c, 10, 69, 127
2, 249981, Note_on_c, 7, 67, 127
2, 250259, Note_on_c, 2, 50, 127
2, 250536, Note_off_c, 2, 50, 127
2, 250538, Note_on_c, 6, 54, 127
2, 250814, Note_off_c, 6, 54, 127
2, 250816, Note_on_c, 10, 57, 127
2, 251077, Note_off_c, 7, 67, 127
2, 251092, Note_off_c, 10, 57, 127
2, 251094, Note_on_c, 0, 60, 127
2, 251094, Note_on_c, 6, 66, 127
2, 251370, Note_off_c, 0, 60, 127
2, 251372, Note_on_c, 3, 63, 127
2, 251648, Note_off_c, 3, 63, 127
2, 251650, Note_on_c, 2, 62, 127
2, 251926, Note_off_c, 2, 62, 127
2, 251928, Note_on_c, 0, 60, 127
2, 252205, Note_off_c, 10, 69, 127
2, 252213, Note_off_c, 2, 74, 127
2, 252218, Note_off_c, 0, 60, 127
2, 252220, Note_on_c, 2, 62, 127
2, 252220, Note_on_c, 11, 58, 127
2, 252220, Note_on_c, 7, 67, 127
2, 252222, Note_off_c, 6, 66, 127
2, 252540, Note_on_c, 2, 74, 127
2, 252746, Note_off_c, 2, 74, 127
2, 252748, Note_on_c, 3, 75, 127
2, 252955, Note_off_c, 3, 75, 127
2, 252957, Note_on_c, 2, 74, 127
2, 253163, Note_off_c, 2, 74, 127
2, 253165, Note_on_c, 1, 73, 127
2, 253371, Note_off_c, 1, 73, 127
2, 253373, Note_on_c, 2, 74, 127
2, 253580, Note_off_c, 2, 74, 127
2, 253582, Note_on_c, 4, 76, 127
2, 253788, Note_off_c, 4, 76, 127
2, 253790, Note_on_c, 6, 78, 127
2, 253997, Note_off_c, 6, 78, 127
2, 253999, Note_on_c, 7, 79, 127
2, 254205, Note_off_c, 7, 79, 127
2, 254207, Note_on_c, 10, 81, 127
2, 254413, Note_off_c, 10, 81, 127
2, 254415, Note_on_c, 11, 82, 127
2, 254604, Note_off_c, 7, 67, 127
2, 254612, Note_off_c, 11, 58, 127
2, 254612, Note_off_c, 2, 62, 127
2, 254622, Note_off_c, 11, 82, 127
2, 254624, Note_on_c, 2, 50, 127
2, 254624, Note_on_c, 7, 55, 127
2, 254624, Note_on_c, 11, 58, 127
2, 254624, Note_on_c, 1, 61, 127
2, 254624, Note_on_c, 4, 64, 127
2, 254624, Note_on_c, 7, 67, 127
2, 254624, Note_on_c, 2, 74, 127
2, 255533, Note_off_c, 2, 74, 127
2, 255535, Note_on_c, 1, 73, 127
2, 256248, Note_off_c, 7, 67, 127
2, 256248, Note_off_c, 4, 64, 127
2, 256248, Note_off_c, 1, 61, 127
2, 256248, Note_off_c, 11, 58, 127
2, 256248, Note_off_c, 7, 55, 127
2, 256248, Note_off_c, 2, 50, 127
2, 256360, Note_off_c, 1, 73, 127
2, 256362, Note_on_c, 6, 66, 127
2, 256362, Note_on_c, 3, 63, 127
2, 256362, Note_on_c, 0, 60, 127
2, 256362, Note_on_c, 10, 57, 127
2, 256578, Note_on_c, 0, 72, 127
2, 256792, Note_off_c, 0, 72, 127
2, 256794, Note_on_c, 2, 74, 127
2, 257008, Note_off_c, 2, 74, 127
2, 257010, Note_on_c, 0, 72, 127
2, 257224, Note_off_c, 0, 72, 127
2, 257226, Note_on_c, 12, 71, 127
2, 257440, Note_off_c, 12, 71, 127
2, 257442, Note_on_c, 0, 72, 127
2, 257656, Note_off_c, 0, 72, 127
2, 257658, Note_on_c, 3, 75, 127
2, 257872, Note_off_c, 3, 75, 127
2, 257874, Note_on_c, 6, 78, 127
2, 258088, Note_off_c, 6, 78, 127
2, 258090, Note_on_c, 10, 81, 127
2, 258304, Note_off_c, 10, 81, 127
2, 258306, Note_on_c, 6, 78, 127
2, 258520, Note_off_c, 6, 78, 127
2, 258522, Note_on_c, 3, 75, 127
2, 258714, Note_off_c, 0, 60, 127
2, 258714, Note_off_c, 3, 63, 127
2, 258714, Note_off_c, 6, 66, 127
2, 258730, Note_off_c, 10, 57, 127
2, 258736, Note_off_c, 3, 75, 127
2, 258738, Note_on_c, 5, 53, 127
2, 258738, Note_on_c, 2, 50, 127
2, 258738, Note_on_c, 8, 56, 127
2, 258738, Note_on_c, 12, 59, 127
2, 258738, Note_on_c, 5, 65, 127
2, 258738, Note_on_c, 2, 62, 127
2, 258738, Note_on_c, 0, 72, 127
2, 259505, Note_off_c, 0, 72, 127
2, 259507, Note_on_c, 12, 71, 127
2, 260088, Note_off_c, 2, 62, 127
2, 260088, Note_off_c, 5, 65, 127
2, 260088, Note_off_c, 12, 59, 127
2, 260088, Note_off_c, 8, 56, 127
2, 260088, Note_off_c, 2, 50, 127
2, 260088, Note_off_c, 5, 53, 127
2, 260206, Note_off_c, 12, 71, 127
2, 260208, Note_on_c, 7, 55, 127
2, 260208, Note_on_c, 11, 58, 127
2, 260208, Note_on_c, 1, 61, 127
2, 260208, Note_on_c, 4, 64, 127
2, 260435, Note_on_c, 11, 70, 127
2, 260661, Note_off_c, 11, 70, 127
2, 260663, Note_on_c, 0, 72, 127
2, 260889, Note_off_c, 0, 72, 127
2, 260891, Note_on_c, 11, 70, 127
2, 261116, Note_off_c, 11, 70, 127
2, 261118, Note_on_c, 10, 69, 127
2, 261344, Note_off_c, 10, 69, 127
2, 261346, Note_on_c, 11, 70, 127
2, 261572, Note_off_c, 11, 70, 127
2, 261574, Note_on_c, 1, 73, 127
2, 261800, Note_off_c, 1, 73, 127
2, 261802, Note_on_c, 4, 76, 127
2, 262027, Note_off_c, 4, 76, 127
2, 262029, Note_on_c, 7, 79, 127
2, 262255, Note_off_c, 7, 79, 127
2, 262257, Note_on_c, 11, 70, 127
2, 262456, Note_off_c, 4, 64, 127
2, 262464, Note_off_c, 1, 61, 127
2, 262464, Note_off_c, 11, 58, 127
2, 262472, Note_off_c, 7, 55, 127
2, 262483, Note_off_c, 11, 70, 127
2, 262485, Note_on_c, 10, 57, 127
2, 262485, Note_on_c, 0, 60, 127
2, 262485, Note_on_c, 6, 54, 127
2, 262485, Note_on_c, 2, 50, 127
2, 262485, Note_on_c, 11, 70, 127
2, 262485, Note_on_c, 3, 63, 127
2, 263239, Note_off_c, 11, 70, 127
2, 263241, Note_on_c, 10, 69, 127
2, 263832, Note_off_c, 3, 63, 127
2, 263832, Note_off_c, 2, 50, 127
2, 263832, Note_off_c, 6, 54, 127
2, 263832, Note_off_c, 0, 60, 127
2, 263832, Note_off_c, 10, 57, 127
2, 263975, Note_off_c, 10, 69, 127
2, 263977, Note_on_c, 2, 62, 127
2, 263977, Note_on_c, 10, 57, 127
2, 263977, Note_on_c, 5, 53, 127
2, 264179, Note_on_c, 10, 69, 127
2, 264379, Note_off_c, 10, 69, 127
2, 264381, Note_on_c, 11, 70, 127
2, 264580, Note_off_c, 11, 70, 127
2, 264582, Note_on_c, 10, 69, 127
2, 264782, Note_off_c, 10, 69, 127
2, 264784, Note_on_c, 8, 68, 127
2, 264984, Note_off_c, 8, 68, 127
2, 264986, Note_on_c, 10, 69, 127
2, 265185, Note_off_c, 10, 69, 127
2, 265187, Note_on_c, 11, 70, 127
2, 265387, Note_off_c, 11, 70, 127
2, 265389, Note_on_c, 12, 71, 127
2, 265589, Note_off_c, 12, 71, 127
2, 265591, Note_on_c, 0, 72, 127
2, 265790, Note_off_c, 0, 72, 127
2, 265792, Note_on_c, 1, 73, 127
2, 265992, Note_off_c, 1, 73, 127
2, 265994, Note_on_c, 2, 74, 127
2, 266194, Note_off_c, 2, 74, 127
2, 266196, Note_on_c, 3, 75, 127
2, 266395, Note_off_c, 3, 75, 127
2, 266397, Note_on_c, 4, 76, 127
2, 266597, Note_off_c, 4, 76, 127
2, 266599, Note_on_c, 5, 77, 127
2, 266799, Note_off_c, 5, 77, 127
2, 266801, Note_on_c, 10, 69, 127
2, 266961, Note_off_c, 2, 62, 127
2, 266985, Note_off_c, 5, 53, 127
2, 266985, Note_off_c, 10, 57, 127
2, 267000, Note_off_c, 10, 69, 127
2, 267002, Note_on_c, 12, 59, 127
2, 267002, Note_on_c, 8, 56, 127
2, 267002, Note_on_c, 5, 53, 127
2, 267002, Note_on_c, 2, 50, 127
2, 267002, Note_on_c, 10, 69, 127
2, 267002, Note_on_c, 2, 62, 127
2, 267760, Note_off_c, 10, 69, 127
2, 267762, Note_on_c, 8, 68, 127
2, 268344, Note_off_c, 2, 62, 127
2, 268344, Note_off_c, 2, 50, 127
2, 268344, Note_off_c, 5, 53, 127
2, 268344, Note_off_c, 8, 56, 127
2, 268344, Note_off_c, 12, 59, 127
2, 268500, Note_off_c, 8, 68, 127
2, 268502, Note_on_c, 1, 61, 127
2, 268502, Note_on_c, 11, 58, 127
2, 268502, Note_on_c, 7, 55, 127
2, 268502, Note_on_c, 4, 52, 127
2, 268725, Note_on_c, 7, 67, 127
2, 268947, Note_off_c, 7, 67, 127
2, 268949, Note_on_c, 10, 69, 127
2, 269170, Note_off_c, 10, 69, 127
2, 269172, Note_on_c, 7, 67, 127
2, 269394, Note_off_c, 7, 67, 127
2, 269396, Note_on_c, 6, 66, 127
2, 269617, Note_off_c, 6, 66, 127
2, 269619, Note_on_c, 7, 67, 127
2, 269841, Note_off_c, 7, 67, 127
2, 269843, Note_on_c, 11, 70, 127
2, 270064, Note_off_c, 11, 70, 127
2, 270066, Note_on_c, 1, 73, 127
2, 270288, Note_off_c, 1, 73, 127
2, 270290, Note_on_c, 4, 76, 127
2, 270511, Note_off_c, 4, 76, 127
2, 270513, Note_on_c, 1, 73, 127
2, 270735, Note_off_c, 1, 73, 127
2, 270737, Note_on_c, 11, 70, 127
2, 270958, Note_off_c, 11, 70, 127
2, 270960, Note_on_c, 7, 67, 127
2, 271158, Note_off_c, 11, 58, 127
2, 271166, Note_off_c, 7, 55, 127
2, 271174, Note_off_c, 1, 61, 127
2, 271182, Note_off_c, 7, 67, 127
2, 271182, Note_off_c, 4, 52, 127
2, 271184, Note_on_c, 3, 63, 127
2, 271184, Note_on_c, 3, 51, 127
2, 271184, Note_on_c, 10, 57, 127
2, 271184, Note_on_c, 0, 60, 127
2, 271184, Note_on_c, 7, 67, 127
2, 271184, Note_on_c, 6, 54, 127
2, 271927, Note_off_c, 7, 67, 127
2, 271929, Note_on_c, 6, 66, 127
2, 272472, Note_off_c, 6, 54, 127
2, 272472, Note_off_c, 0, 60, 127
2, 272472, Note_off_c, 10, 57, 127
2, 272472, Note_off_c, 3, 51, 127
2, 272472, Note_off_c, 3, 63, 127
2, 272651, Note_off_c, 6, 66, 127
2, 272653, Note_on_c, 12, 59, 127
2, 272653, Note_on_c, 8, 56, 127
2, 272653, Note_on_c, 5, 53, 127
2, 272653, Note_on_c, 2, 50, 127
2, 272893, Note_on_c, 5, 65, 127
2, 273132, Note_off_c, 5, 65, 127
2, 273134, Note_on_c, 7, 67, 127
2, 273372, Note_off_c, 7, 67, 127
2, 273374, Note_on_c, 5, 65, 127
2, 273612, Note_off_c, 5, 65, 127
2, 273614, Note_on_c, 4, 64, 127
2, 273853, Note_off_c, 4, 64, 127
2, 273855, Note_on_c, 5, 65, 127
2, 274093, Note_off_c, 5, 65, 127
2, 274095, Note_on_c, 2, 74, 127
2, 274333, Note_off_c, 2, 74, 127
2, 274335, Note_on_c, 12, 71, 127
2, 274574, Note_off_c, 12, 71, 127
2, 274576, Note_on_c, 8, 68, 127
2, 274814, Note_off_c, 8, 68, 127
2, 274816, Note_on_c, 5, 65, 127
2, 275054, Note_off_c, 5, 65, 127
2, 275056, Note_on_c, 2, 62, 127
2, 275261, Note_off_c, 5, 53, 127
2, 275269, Note_off_c, 2, 50, 127
2, 275277, Note_off_c, 8, 56, 127
2, 275285, Note_off_c, 12, 59, 127
2, 275295, Note_off_c, 2, 62, 127
2, 275297, Note_on_c, 2, 62, 127
2, 275297, Note_on_c, 7, 55, 127
2, 275297, Note_on_c, 11, 58, 127
2, 275297, Note_on_c, 4, 52, 127
2, 275297, Note_on_c, 1, 49, 127
2, 276090, Note_off_c, 2, 62, 127
2, 276092, Note_on_c, 4, 64, 127
2, 276696, Note_off_c, 1, 49, 127
2, 276696, Note_off_c, 4, 52, 127
2, 276696, Note_off_c, 11, 58, 127
2, 276696, Note_off_c, 7, 55, 127
2, 276866, Note_off_c, 4, 64, 127
2, 276868, Note_on_c, 0, 48, 127
2, 276868, Note_on_c, 3, 51, 127
2, 276868, Note_on_c, 6, 54, 127
2, 276868, Note_on_c, 10, 57, 127
2, 277118, Note_on_c, 3, 75, 127
2, 277365, Note_off_c, 3, 75, 127
2, 277367, Note_on_c, 5, 77, 127
2, 277615, Note_off_c, 5, 77, 127
2, 277617, Note_on_c, 2, 74, 127
2, 277864, Note_off_c, 2, 74, 127
2, 277866, Note_on_c, 0, 72, 127
2, 278114, Note_off_c, 0, 72, 127
2, 278116, Note_on_c, 11, 70, 127
2, 278364, Note_off_c, 11, 70, 127
2, 278366, Note_on_c, 10, 69, 127
2, 278613, Note_off_c, 10, 69, 127
2, 278615, Note_on_c, 0, 72, 127
2, 278863, Note_off_c, 0, 72, 127
2, 278865, Note_on_c, 10, 69, 127
2, 279112, Note_off_c, 10, 69, 127
2, 279114, Note_on_c, 7, 67, 127
2, 279362, Note_off_c, 7, 67, 127
2, 279364, Note_on_c, 6, 66, 127
2, 279611, Note_off_c, 6, 66, 127
2, 279613, Note_on_c, 10, 69, 127
2, 279861, Note_off_c, 10, 69, 127
2, 279863, Note_on_c, 6, 66, 127
2, 280111, Note_off_c, 6, 66, 127
2, 280113, Note_on_c, 3, 63, 127
2, 280260, Note_off_c, 0, 48, 127
2, 280276, Note_off_c, 3, 51, 127
2, 280300, Note_off_c, 6, 54, 127
2, 280308, Note_off_c, 10, 57, 127
2, 280374, Note_off_c, 3, 63, 127
2, 280376, Note_on_c, 3, 63, 127
2, 280664, Note_off_c, 3, 63, 127
2, 280666, Note_on_c, 0, 60, 127
2, 280967, Note_off_c, 0, 60, 127
2, 280969, Note_on_c, 2, 62, 127
2, 281578, Note_on_c, 12, 47, 127
2, 281578, Note_on_c, 2, 50, 127
2, 281578, Note_on_c, 5, 53, 127
2, 281578, Note_on_c, 8, 56, 127
2, 282778, Note_off_c, 8, 56, 127
2, 282778, Note_off_c, 5, 53, 127
2, 282778, Note_off_c, 2, 50, 127
2, 282778, Note_off_c, 12, 47, 127
2, 282783, Note_on_c, 11, 46, 127
2, 282783, Note_on_c, 2, 50, 127
2, 282783, Note_on_c, 7, 55, 127
2, 283224, Note_off_c, 2, 62, 127
2, 283321, Note_on_c, 2, 62, 127
2, 283539, Note_off_c, 2, 62, 127
2, 283541, Note_on_c, 3, 63, 127
2, 283746, Note_off_c, 3, 63, 127
2, 283748, Note_on_c, 2, 62, 127
2, 283966, Note_off_c, 2, 62, 127
2, 283968, Note_on_c, 1, 61, 127
2, 284186, Note_off_c, 1, 61, 127
2, 284188, Note_on_c, 2, 62, 127
2, 284490, Note_off_c, 2, 62, 127
2, 284492, Note_on_c, 4, 64, 127
2, 284742, Note_off_c, 4, 64, 127
2, 284744, Note_on_c, 6, 66, 127
2, 284995, Note_off_c, 6, 66, 127
2, 284997, Note_on_c, 7, 67, 127
2, 285255, Note_off_c, 7, 67, 127
2, 285257, Note_on_c, 10, 69, 127
2, 285516, Note_off_c, 10, 69, 127
2, 285518, Note_on_c, 11, 70, 127
2, 285864, Note_off_c, 7, 55, 127
2, 285864, Note_off_c, 2, 50, 127
2, 285864, Note_off_c, 11, 46, 127
2, 285888, Note_off_c, 11, 70, 127
2, 285890, Note_on_c, 10, 69, 127
2, 286158, Note_off_c, 10, 69, 127
2, 286160, Note_on_c, 7, 67, 127
2, 286418, Note_off_c, 7, 67, 127
2, 286420, Note_on_c, 5, 65, 127
2, 286679, Note_off_c, 5, 65, 127
2, 286681, Note_on_c, 4, 64, 127
2, 286994, Note_off_c, 4, 64, 127
2, 286996, Note_on_c, 5, 65, 127
2, 287220, Note_off_c, 5, 65, 127
2, 287222, Note_on_c, 7, 67, 127
2, 287469, Note_off_c, 7, 67, 127
2, 287471, Note_on_c, 11, 46, 127
2, 287471, Note_on_c, 4, 52, 127
2, 287471, Note_on_c, 7, 55, 127
2, 287471, Note_on_c, 11, 58, 127
2, 287471, Note_on_c, 2, 62, 127
2, 288063, Note_off_c, 2, 62, 127
2, 288065, Note_on_c, 1, 61, 127
2, 289039, Note_off_c, 7, 55, 127
2, 289047, Note_off_c, 11, 58, 127
2, 289055, Note_off_c, 4, 52, 127
2, 289055, Note_off_c, 11, 46, 127
2, 289080, Note_off_c, 1, 61, 127
2, 289082, Note_on_c, 2, 62, 127
2, 289378, Note_off_c, 2, 62, 127
2, 289380, Note_on_c, 1, 61, 127
2, 289675, Note_off_c, 1, 61, 127
2, 289677, Note_on_c, 2, 62, 127
2, 289973, Note_off_c, 2, 62, 127
2, 289975, Note_on_c, 1, 61, 127
2, 290270, Note_off_c, 1, 61, 127
2, 290272, Note_on_c, 2, 62, 127
2, 290568, Note_off_c, 2, 62, 127
2, 290570, Note_on_c, 1, 61, 127
2, 290865, Note_off_c, 1, 61, 127
2, 290867, Note_on_c, 2, 62, 127
2, 291162, Note_off_c, 2, 62, 127
2, 291164, Note_on_c, 1, 61, 127
2, 291460, Note_off_c, 1, 61, 127
2, 291462, Note_on_c, 12, 59, 127
2, 291784, Note_off_c, 12, 59, 127
2, 291786, Note_on_c, 1, 61, 127
2, 292136, Note_off_c, 1, 61, 127
2, 292138, Note_on_c, 2, 50, 127
2, 292546, Note_on_c, 6, 54, 127
2, 292954, Note_on_c, 10, 57, 127
2, 293363, Note_on_c, 2, 62, 127
2, 296802, Note_off_c, 2, 50, 127
2, 296834, Note_off_c, 10, 57, 127
2, 296839, Note_off_c, 6, 54, 127
2, 297463, Note_off_c, 2, 62, 127
2, 297616, Note_on_c, 10, 69, 127
2, 298056, Note_off_c, 10, 69, 127
2, 298057, Note_on_c, 11, 70, 127
2, 298497, Note_off_c, 11, 70, 127
2, 298499, Note_on_c, 12, 71, 127
2, 298939, Note_off_c, 12, 71, 127
2, 298940, Note_on_c, 0, 72, 127
2, 299380, Note_off_c, 0, 72, 127
2, 299382, Note_on_c, 0, 72, 127
2, 299601, Note_off_c, 0, 72, 127
2, 299603, Note_on_c, 12, 71, 127
2, 299822, Note_off_c, 12, 71, 127
2, 299824, Note_on_c, 0, 72, 127
2, 300264, Note_off_c, 0, 72, 127
2, 300265, Note_on_c, 4, 64, 127
2, 300705, Note_off_c, 4, 64, 127
2, 300707, Note_on_c, 5, 65, 127
2, 301147, Note_off_c, 5, 65, 127
2, 301148, Note_on_c, 6, 66, 127
2, 301588, Note_off_c, 6, 66, 127
2, 301590, Note_on_c, 7, 67, 127
2, 302030, Note_off_c, 7, 67, 127
2, 302032, Note_on_c, 7, 67, 127
2, 302251, Note_off_c, 7, 67, 127
2, 302252, Note_on_c, 6, 66, 127
2, 302471, Note_off_c, 6, 66, 127
2, 302473, Note_on_c, 7, 67, 127
2, 302692, Note_off_c, 7, 67, 127
2, 302694, Note_on_c, 10, 69, 127
2, 302913, Note_off_c, 10, 69, 127
2, 302915, Note_on_c, 11, 70, 127
2, 303355, Note_off_c, 11, 70, 127
2, 303356, Note_on_c, 10, 69, 127
2, 303796, Note_off_c, 10, 69, 127
2, 303798, Note_on_c, 7, 67, 127
2, 304238, Note_off_c, 7, 67, 127
2, 304240, Note_on_c, 5, 65, 127
2, 304680, Note_off_c, 5, 65, 127
2, 304681, Note_on_c, 7, 67, 127
2, 304900, Note_off_c, 7, 67, 127
2, 304902, Note_on_c, 5, 65, 127
2, 305121, Note_off_c, 5, 65, 127
2, 305123, Note_on_c, 4, 64, 127
2, 305342, Note_off_c, 4, 64, 127
2, 305344, Note_on_c, 2, 62, 127
2, 305563, Note_off_c, 2, 62, 127
2, 305564, Note_on_c, 4, 64, 127
2, 306004, Note_off_c, 4, 64, 127
2, 306006, Note_on_c, 10, 57, 127
2, 306446, Note_off_c, 10, 57, 127
2, 306448, Note_on_c, 1, 61, 127
2, 306888, Note_off_c, 1, 61, 127
2, 306889, Note_on_c, 2, 62, 127
2, 307108, Note_off_c, 2, 62, 127
2, 307110, Note_on_c, 2, 62, 127
2, 307219, Note_off_c, 2, 62, 127
2, 307220, Note_on_c, 4, 64, 127
2, 307329, Note_off_c, 4, 64, 127
2, 307331, Note_on_c, 5, 65, 127
2, 307550, Note_off_c, 5, 65, 127
2, 307552, Note_on_c, 5, 65, 127
2, 307661, Note_off_c, 5, 65, 127
2, 307662, Note_on_c, 7, 67, 127
2, 307771, Note_off_c, 7, 67, 127
2, 307772, Note_on_c, 10, 69, 127
2, 307991, Note_off_c, 10, 69, 127
2, 307993, Note_on_c, 10, 69, 127
2, 308102, Note_off_c, 10, 69, 127
2, 308104, Note_on_c, 12, 71, 127
2, 308213, Note_off_c, 12, 71, 127
2, 308214, Note_on_c, 0, 72, 127
2, 308214, Note_on_c, 4, 64, 127
2, 308654, Note_off_c, 4, 64, 127
2, 308656, Note_on_c, 5, 65, 127
2, 309096, Note_off_c, 5, 65, 127
2, 309097, Note_on_c, 6, 66, 127
2, 309537, Note_off_c, 6, 66, 127
2, 309539, Note_on_c, 7, 67, 127
2, 309758, Note_off_c, 0, 72, 127
2, 309760, Note_on_c, 10, 69, 127
2, 309869, Note_off_c, 10, 69, 127
2, 309870, Note_on_c, 11, 70, 127
2, 309979, Note_off_c, 11, 70, 127
2, 309979, Note_off_c, 7, 67, 127
2, 309980, Note_on_c, 0, 72, 127
2, 309980, Note_on_c, 7, 67, 127
2, 310199, Note_off_c, 7, 67, 127
2, 310199, Note_off_c, 0, 72, 127
2, 310201, Note_on_c, 0, 72, 127
2, 310201, Note_on_c, 6, 66, 127
2, 310310, Note_off_c, 0, 72, 127
2, 310312, Note_on_c, 2, 74, 127
2, 310420, Note_off_c, 6, 66, 127
2, 310421, Note_off_c, 2, 74, 127
2, 310422, Note_on_c, 4, 76, 127
2, 310422, Note_on_c, 7, 67, 127
2, 310641, Note_off_c, 4, 76, 127
2, 310643, Note_on_c, 4, 76, 127
2, 310752, Note_off_c, 4, 76, 127
2, 310753, Note_on_c, 6, 78, 127
2, 310862, Note_off_c, 6, 78, 127
2, 310862, Note_off_c, 7, 67, 127
2, 310864, Note_on_c, 7, 79, 127
2, 310864, Note_on_c, 12, 59, 127
2, 311304, Note_off_c, 12, 59, 127
2, 311305, Note_on_c, 0, 60, 127
2, 311745, Note_off_c, 0, 60, 127
2, 311747, Note_on_c, 1, 61, 127
2, 312187, Note_off_c, 1, 61, 127
2, 312188, Note_on_c, 2, 62, 127
2, 312408, Note_off_c, 7, 79, 127
2, 312409, Note_on_c, 10, 81, 127
2, 312518, Note_off_c, 10, 81, 127
2, 312520, Note_on_c, 7, 79, 127
2, 312628, Note_off_c, 2, 62, 127
2, 312629, Note_off_c, 7, 79, 127
2, 312630, Note_on_c, 5, 77, 127
2, 312630, Note_on_c, 2, 62, 127
2, 312849, Note_off_c, 2, 62, 127
2, 312849, Note_off_c, 5, 77, 127
2, 312851, Note_on_c, 5, 77, 127
2, 312851, Note_on_c, 1, 61, 127
2, 312960, Note_off_c, 5, 77, 127
2, 312961, Note_on_c, 4, 76, 127
2, 313070, Note_off_c, 4, 76, 127
2, 313070, Note_off_c, 1, 61, 127
2, 313072, Note_on_c, 2, 74, 127
2, 313072, Note_on_c, 2, 62, 127
2, 313291, Note_off_c, 2, 62, 127
2, 313291, Note_off_c, 2, 74, 127
2, 313292, Note_on_c, 0, 72, 127
2, 313292, Note_on_c, 4, 64, 127
2, 313401, Note_off_c, 0, 72, 127
2, 313403, Note_on_c, 12, 71, 127
2, 313511, Note_off_c, 4, 64, 127
2, 313512, Note_off_c, 12, 71, 127
2, 313513, Note_on_c, 10, 81, 127
2, 313513, Note_on_c, 5, 65, 127
2, 313622, Note_off_c, 10, 81, 127
2, 313624, Note_on_c, 8, 80, 127
2, 313733, Note_off_c, 8, 80, 127
2, 313734, Note_on_c, 10, 81, 127
2, 313843, Note_off_c, 10, 81, 127
2, 313844, Note_on_c, 8, 80, 127
2, 313953, Note_off_c, 8, 80, 127
2, 313953, Note_off_c, 5, 65, 127
2, 313955, Note_on_c, 10, 81, 127
2, 313955, Note_on_c, 4, 64, 127
2, 314064, Note_off_c, 10, 81, 127
2, 314065, Note_on_c, 8, 80, 127
2, 314174, Note_off_c, 8, 80, 127
2, 314176, Note_on_c, 10, 81, 127
2, 314285, Note_off_c, 10, 81, 127
2, 314286, Note_on_c, 8, 80, 127
2, 314395, Note_off_c, 8, 80, 127
2, 314395, Note_off_c, 4, 64, 127
2, 314396, Note_on_c, 10, 81, 127
2, 314396, Note_on_c, 2, 62, 127
2, 314505, Note_off_c, 10, 81, 127
2, 314507, Note_on_c, 8, 80, 127
2, 314616, Note_off_c, 8, 80, 127
2, 314617, Note_on_c, 6, 78, 127
2, 314726, Note_off_c, 6, 78, 127
2, 314728, Note_on_c, 8, 80, 127
2, 314836, Note_off_c, 2, 62, 127
2, 314837, Note_off_c, 8, 80, 127
2, 314838, Note_on_c, 10, 81, 127
2, 314838, Note_on_c, 0, 60, 127
2, 315278, Note_off_c, 0, 60, 127
2, 315280, Note_on_c, 2, 62, 127
2, 315499, Note_off_c, 2, 62, 127
2, 315500, Note_on_c, 0, 60, 127
2, 315719, Note_off_c, 0, 60, 127
2, 315721, Note_on_c, 12, 59, 127
2, 315940, Note_off_c, 12, 59, 127
2, 315942, Note_on_c, 10, 57, 127
2, 316161, Note_off_c, 10, 57, 127
2, 316163, Note_on_c, 12, 59, 127
2, 316382, Note_off_c, 10, 81, 127
2, 316384, Note_on_c, 12, 83, 127
2, 316493, Note_off_c, 12, 83, 127
2, 316494, Note_on_c, 10, 81, 127
2, 316603, Note_off_c, 10, 81, 127
2, 316603, Note_off_c, 12, 59, 127
2, 316604, Note_on_c, 8, 80, 127
2, 316604, Note_on_c, 4, 52, 127
2, 316823, Note_off_c, 8, 80, 127
2, 316825, Note_on_c, 8, 80, 127
2, 316934, Note_off_c, 8, 80, 127
2, 316936, Note_on_c, 6, 78, 127
2, 317044, Note_off_c, 4, 52, 127
2, 317045, Note_off_c, 6, 78, 127
2, 317046, Note_on_c, 4, 76, 127
2, 317046, Note_on_c, 8, 56, 127
2, 317265, Note_off_c, 4, 76, 127
2, 317267, Note_on_c, 4, 76, 127
2, 317376, Note_off_c, 4, 76, 127
2, 317377, Note_on_c, 2, 74, 127
2, 317486, Note_off_c, 2, 74, 127
2, 317486, Note_off_c, 8, 56, 127
2, 317488, Note_on_c, 0, 72, 127
2, 317488, Note_on_c, 10, 57, 127
2, 317707, Note_off_c, 10, 57, 127
2, 317707, Note_off_c, 0, 72, 127
2, 317708, Note_on_c, 4, 64, 127
2, 317708, Note_on_c, 10, 57, 127
2, 317817, Note_off_c, 10, 57, 127
2, 317819, Note_on_c, 12, 59, 127
2, 317927, Note_off_c, 4, 64, 127
2, 317928, Note_off_c, 12, 59, 127
2, 317929, Note_on_c, 10, 69, 127
2, 317929, Note_on_c, 0, 60, 127
2, 318148, Note_off_c, 0, 60, 127
2, 318148, Note_off_c, 10, 69, 127
2, 318150, Note_on_c, 10, 69, 127
2, 318150, Note_on_c, 0, 60, 127
2, 318259, Note_off_c, 0, 60, 127
2, 318259, Note_off_c, 10, 69, 127
2, 318260, Note_on_c, 12, 71, 127
2, 318260, Note_on_c, 2, 62, 127
2, 318369, Note_off_c, 2, 62, 127
2, 318369, Note_off_c, 12, 71, 127
2, 318371, Note_on_c, 0, 72, 127
2, 318371, Note_on_c, 4, 64, 127
2, 318590, Note_off_c, 4, 64, 127
2, 318592, Note_on_c, 4, 64, 127
2, 318701, Note_off_c, 4, 64, 127
2, 318702, Note_on_c, 6, 66, 127
2, 318811, Note_off_c, 6, 66, 127
2, 318812, Note_on_c, 7, 67, 127
2, 318921, Note_off_c, 0, 72, 127
2, 318923, Note_on_c, 11, 70, 127
2, 319032, Note_off_c, 11, 70, 127
2, 319033, Note_on_c, 10, 69, 127
2, 319142, Note_off_c, 10, 69, 127
2, 319144, Note_on_c, 11, 70, 127
2, 319253, Note_off_c, 11, 70, 127
2, 319254, Note_on_c, 0, 72, 127
2, 319363, Note_off_c, 0, 72, 127
2, 319364, Note_on_c, 2, 74, 127
2, 319473, Note_off_c, 2, 74, 127
2, 319475, Note_on_c, 3, 75, 127
2, 319584, Note_off_c, 3, 75, 127
2, 319585, Note_on_c, 2, 74, 127
2, 319694, Note_off_c, 2, 74, 127
2, 319696, Note_on_c, 0, 72, 127
2, 319805, Note_off_c, 0, 72, 127
2, 319806, Note_on_c, 11, 70, 127
2, 319915, Note_off_c, 11, 70, 127
2, 319916, Note_on_c, 0, 72, 127
2, 320025, Note_off_c, 0, 72, 127
2, 320027, Note_on_c, 10, 69, 127
2, 320136, Note_off_c, 10, 69, 127
2, 320137, Note_on_c, 11, 70, 127
2, 320356, Note_off_c, 11, 70, 127
2, 320356, Note_off_c, 7, 67, 127
2, 320358, Note_on_c, 2, 62, 127
2, 320358, Note_on_c, 7, 55, 127
2, 320467, Note_off_c, 7, 55, 127
2, 320468, Note_on_c, 10, 57, 127
2, 320577, Note_off_c, 10, 57, 127
2, 320577, Note_off_c, 2, 62, 127
2, 320579, Note_on_c, 7, 67, 127
2, 320579, Note_on_c, 11, 58, 127
2, 320798, Note_off_c, 11, 58, 127
2, 320798, Note_off_c, 7, 67, 127
2, 320800, Note_on_c, 7, 67, 127
2, 320800, Note_on_c, 11, 58, 127
2, 320909, Note_off_c, 11, 58, 127
2, 320909, Note_off_c, 7, 67, 127
2, 320910, Note_on_c, 10, 69, 127
2, 320910, Note_on_c, 0, 60, 127
2, 321019, Note_off_c, 0, 60, 127
2, 321019, Note_off_c, 10, 69, 127
2, 321020, Note_on_c, 11, 70, 127
2, 321020, Note_on_c, 2, 62, 127
2, 321239, Note_off_c, 2, 62, 127
2, 321239, Note_off_c, 11, 70, 127
2, 321241, Note_on_c, 0, 72, 127
2, 321241, Note_on_c, 2, 62, 127
2, 321350, Note_off_c, 2, 62, 127
2, 321350, Note_off_c, 0, 72, 127
2, 321352, Note_on_c, 11, 70, 127
2, 321352, Note_on_c, 4, 64, 127
2, 321461, Note_off_c, 4, 64, 127
2, 321461, Note_off_c, 11, 70, 127
2, 321462, Note_on_c, 10, 69, 127
2, 321462, Note_on_c, 10, 57, 127
2, 321462, Note_on_c, 5, 65, 127
2, 321681, Note_off_c, 10, 69, 127
2, 321683, Note_on_c, 11, 70, 127
2, 321792, Note_off_c, 11, 70, 127
2, 321793, Note_on_c, 0, 72, 127
2, 321902, Note_off_c, 0, 72, 127
2, 321902, Note_off_c, 10, 57, 127
2, 321904, Note_on_c, 2, 74, 127
2, 321904, Note_on_c, 11, 58, 127
2, 322013, Note_off_c, 2, 74, 127
2, 322014, Note_on_c, 3, 75, 127
2, 322123, Note_off_c, 3, 75, 127
2, 322124, Note_on_c, 2, 74, 127
2, 322233, Note_off_c, 2, 74, 127
2, 322235, Note_on_c, 0, 72, 127
2, 322344, Note_off_c, 0, 72, 127
2, 322344, Note_off_c, 11, 58, 127
2, 322345, Note_on_c, 2, 74, 127
2, 322345, Note_on_c, 12, 59, 127
2, 322454, Note_off_c, 2, 74, 127
2, 322456, Note_on_c, 12, 71, 127
2, 322565, Note_off_c, 12, 71, 127
2, 322566, Note_on_c, 0, 72, 127
2, 322675, Note_off_c, 0, 72, 127
2, 322676, Note_on_c, 2, 74, 127
2, 322785, Note_off_c, 2, 74, 127
2, 322785, Note_off_c, 12, 59, 127
2, 322787, Note_on_c, 7, 67, 127
2, 322787, Note_on_c, 0, 60, 127
2, 323006, Note_off_c, 5, 65, 127
2, 323008, Note_on_c, 2, 62, 127
2, 323117, Note_off_c, 2, 62, 127
2, 323118, Note_on_c, 4, 64, 127
2, 323227, Note_off_c, 4, 64, 127
2, 323227, Note_off_c, 0, 60, 127
2, 323228, Note_on_c, 0, 60, 127
2, 323228, Note_on_c, 5, 65, 127
2, 323447, Note_off_c, 5, 65, 127
2, 323447, Note_off_c, 0, 60, 127
2, 323449, Note_on_c, 12, 59, 127
2, 323449, Note_on_c, 5, 65, 127
2, 323520, Note_off_c, 7, 67, 127
2, 323558, Note_off_c, 5, 65, 127
2, 323560, Note_on_c, 7, 67, 127
2, 323668, Note_off_c, 12, 59, 127
2, 323670, Note_on_c, 0, 60, 127
2, 323670, Note_on_c, 10, 69, 127
2, 323889, Note_off_c, 10, 69, 127
2, 323891, Note_on_c, 10, 69, 127
2, 324000, Note_off_c, 10, 69, 127
2, 324001, Note_on_c, 12, 71, 127
2, 324110, Note_off_c, 12, 71, 127
2, 324110, Note_off_c, 0, 60, 127
2, 324112, Note_on_c, 4, 52, 127
2, 324112, Note_on_c, 0, 72, 127
2, 324221, Note_off_c, 7, 67, 127
2, 324222, Note_on_c, 7, 67, 127
2, 324331, Note_off_c, 7, 67, 127
2, 324332, Note_on_c, 10, 69, 127
2, 324441, Note_off_c, 10, 69, 127
2, 324443, Note_on_c, 11, 70, 127
2, 324552, Note_off_c, 11, 70, 127
2, 324552, Note_off_c, 4, 52, 127
2, 324553, Note_on_c, 10, 69, 127
2, 324553, Note_on_c, 5, 53, 127
2, 324662, Note_off_c, 10, 69, 127
2, 324664, Note_on_c, 11, 70, 127
2, 324773, Note_off_c, 11, 70, 127
2, 324774, Note_on_c, 10, 69, 127
2, 324883, Note_off_c, 10, 69, 127
2, 324884, Note_on_c, 7, 67, 127
2, 324993, Note_off_c, 7, 67, 127
2, 324993, Note_off_c, 5, 53, 127
2, 324995, Note_on_c, 10, 69, 127
2, 324995, Note_on_c, 6, 54, 127
2, 325104, Note_off_c, 10, 69, 127
2, 325105, Note_on_c, 6, 66, 127
2, 325214, Note_off_c, 6, 66, 127
2, 325216, Note_on_c, 7, 67, 127
2, 325325, Note_off_c, 7, 67, 127
2, 325326, Note_on_c, 10, 69, 127
2, 325435, Note_off_c, 10, 69, 127
2, 325435, Note_off_c, 6, 54, 127
2, 325436, Note_on_c, 2, 62, 127
2, 325436, Note_on_c, 7, 55, 127
2, 325656, Note_off_c, 0, 72, 127
2, 325657, Note_on_c, 2, 74, 127
2, 325766, Note_off_c, 2, 74, 127
2, 325768, Note_on_c, 0, 72, 127
2, 325876, Note_off_c, 7, 55, 127
2, 325876, Note_off_c, 2, 62, 127
2, 325877, Note_off_c, 0, 72, 127
2, 325878, Note_on_c, 2, 74, 127
2, 325878, Note_on_c, 7, 55, 127
2, 325878, Note_on_c, 11, 70, 127
2, 326097, Note_off_c, 11, 70, 127
2, 326097, Note_off_c, 7, 55, 127
2, 326099, Note_on_c, 6, 54, 127
2, 326099, Note_on_c, 11, 70, 127
2, 326208, Note_off_c, 11, 70, 127
2, 326209, Note_on_c, 10, 69, 127
2, 326318, Note_off_c, 10, 69, 127
2, 326318, Note_off_c, 6, 54, 127
2, 326320, Note_on_c, 7, 55, 127
2, 326320, Note_on_c, 7, 67, 127
2, 326539, Note_off_c, 7, 67, 127
2, 326539, Note_off_c, 7, 55, 127
2, 326540, Note_on_c, 10, 57, 127
2, 326540, Note_on_c, 5, 65, 127
2, 326649, Note_off_c, 5, 65, 127
2, 326651, Note_on_c, 4, 64, 127
2, 326759, Note_off_c, 10, 57, 127
2, 326760, Note_off_c, 4, 64, 127
2, 326760, Note_off_c, 2, 74, 127
2, 326761, Note_on_c, 2, 74, 127
2, 326761, Note_on_c, 11, 58, 127
2, 326761, Note_on_c, 4, 76, 127
2, 326854, Note_off_c, 2, 74, 127
2, 326855, Note_on_c, 1, 73, 127
2, 326948, Note_off_c, 1, 73, 127
2, 326950, Note_on_c, 2, 74, 127
2, 327043, Note_off_c, 2, 74, 127
2, 327044, Note_on_c, 1, 73, 127
2, 327137, Note_off_c, 1, 73, 127
2, 327139, Note_on_c, 2, 74, 127
2, 327201, Note_off_c, 11, 58, 127
2, 327203, Note_on_c, 10, 57, 127
2, 327232, Note_off_c, 2, 74, 127
2, 327234, Note_on_c, 1, 73, 127
2, 327327, Note_off_c, 1, 73, 127
2, 327328, Note_on_c, 2, 74, 127
2, 327421, Note_off_c, 2, 74, 127
2, 327422, Note_on_c, 1, 73, 127
2, 327515, Note_off_c, 1, 73, 127
2, 327517, Note_on_c, 2, 74, 127
2, 327610, Note_off_c, 2, 74, 127
2, 327611, Note_on_c, 1, 73, 127
2, 327643, Note_off_c, 10, 57, 127
2, 327644, Note_on_c, 7, 55, 127
2, 327704, Note_off_c, 1, 73, 127
2, 327705, Note_on_c, 2, 74, 127
2, 327798, Note_off_c, 2, 74, 127
2, 327801, Note_on_c, 1, 73, 127
2, 327894, Note_off_c, 1, 73, 127
2, 327895, Note_on_c, 12, 71, 127
2, 327988, Note_off_c, 12, 71, 127
2, 327989, Note_on_c, 1, 73, 127
2, 328082, Note_off_c, 1, 73, 127
2, 328084, Note_off_c, 7, 55, 127
2, 328084, Note_off_c, 4, 76, 127
2, 328086, Note_on_c, 5, 53, 127
2, 328086, Note_on_c, 2, 74, 127
2, 328196, Note_on_c, 10, 81, 127
2, 328305, Note_off_c, 10, 81, 127
2, 328307, Note_on_c, 7, 79, 127
2, 328416, Note_off_c, 7, 79, 127
2, 328417, Note_on_c, 5, 77, 127
2, 328526, Note_off_c, 5, 77, 127
2, 328526, Note_off_c, 5, 53, 127
2, 328528, Note_on_c, 4, 76, 127
2, 328528, Note_on_c, 7, 55, 127
2, 328637, Note_off_c, 4, 76, 127
2, 328638, Note_on_c, 5, 77, 127
2, 328747, Note_off_c, 5, 77, 127
2, 328747, Note_off_c, 7, 55, 127
2, 328748, Note_on_c, 4, 76, 127
2, 328748, Note_on_c, 5, 53, 127
2, 328857, Note_off_c, 4, 76, 127
2, 328859, Note_on_c, 5, 77, 127
2, 328967, Note_off_c, 5, 53, 127
2, 328968, Note_off_c, 5, 77, 127
2, 328969, Note_on_c, 7, 79, 127
2, 328969, Note_on_c, 4, 52, 127
2, 329078, Note_off_c, 7, 79, 127
2, 329080, Note_on_c, 5, 77, 127
2, 329188, Note_off_c, 4, 52, 127
2, 329189, Note_off_c, 5, 77, 127
2, 329190, Note_on_c, 4, 76, 127
2, 329190, Note_on_c, 2, 50, 127
2, 329299, Note_off_c, 4, 76, 127
2, 329300, Note_on_c, 5, 77, 127
2, 329409, Note_off_c, 5, 77, 127
2, 329409, Note_off_c, 2, 50, 127
2, 329411, Note_on_c, 7, 79, 127
2, 329411, Note_on_c, 4, 52, 127
2, 329630, Note_off_c, 2, 74, 127
2, 329632, Note_on_c, 4, 76, 127
2, 329741, Note_off_c, 4, 76, 127
2, 329742, Note_on_c, 2, 74, 127
2, 329851, Note_off_c, 2, 74, 127
2, 329851, Note_off_c, 4, 52, 127
2, 329851, Note_off_c, 7, 79, 127
2, 329852, Note_on_c, 4, 76, 127
2, 329852, Note_on_c, 10, 45, 127
2, 329852, Note_on_c, 1, 73, 127
2, 330071, Note_off_c, 1, 73, 127
2, 330073, Note_on_c, 1, 73, 127
2, 330182, Note_off_c, 1, 73, 127
2, 330184, Note_on_c, 12, 71, 127
2, 330292, Note_off_c, 10, 45, 127
2, 330293, Note_off_c, 12, 71, 127
2, 330294, Note_on_c, 1, 49, 127
2, 330294, Note_on_c, 10, 69, 127
2, 330513, Note_off_c, 10, 69, 127
2, 330515, Note_on_c, 10, 69, 127
2, 330624, Note_off_c, 10, 69, 127
2, 330625, Note_on_c, 7, 67, 127
2, 330734, Note_off_c, 7, 67, 127
2, 330734, Note_off_c, 1, 49, 127
2, 330734, Note_off_c, 4, 76, 127
2, 330736, Note_on_c, 2, 50, 127
2, 330736, Note_on_c, 5, 65, 127
2, 330956, Note_on_c, 5, 77, 127
2, 331065, Note_off_c, 5, 77, 127
2, 331067, Note_on_c, 4, 76, 127
2, 331176, Note_off_c, 4, 76, 127
2, 331176, Note_off_c, 2, 50, 127
2, 331177, Note_on_c, 2, 74, 127
2, 331177, Note_on_c, 2, 38, 127
2, 331396, Note_off_c, 2, 74, 127
2, 331398, Note_on_c, 2, 74, 127
2, 331507, Note_off_c, 2, 74, 127
2, 331508, Note_on_c, 0, 72, 127
2, 331617, Note_off_c, 0, 72, 127
2, 331617, Note_off_c, 2, 38, 127
2, 331619, Note_on_c, 11, 70, 127
2, 331619, Note_on_c, 2, 50, 127
2, 331838, Note_off_c, 11, 70, 127
2, 331840, Note_on_c, 11, 70, 127
2, 331949, Note_off_c, 11, 70, 127
2, 331950, Note_on_c, 10, 69, 127
2, 332058, Note_off_c, 5, 65, 127
2, 332059, Note_off_c, 10, 69, 127
2, 332059, Note_off_c, 2, 50, 127
2, 332060, Note_on_c, 7, 67, 127
2, 332060, Note_on_c, 4, 52, 127
2, 332279, Note_off_c, 4, 52, 127
2, 332281, Note_on_c, 7, 55, 127
2, 332281, Note_on_c, 12, 59, 127
2, 332390, Note_off_c, 7, 55, 127
2, 332392, Note_on_c, 5, 53, 127
2, 332500, Note_off_c, 12, 59, 127
2, 332501, Note_off_c, 5, 53, 127
2, 332502, Note_on_c, 4, 52, 127
2, 332502, Note_on_c, 0, 60, 127
2, 332721, Note_off_c, 0, 60, 127
2, 332721, Note_off_c, 4, 52, 127
2, 332723, Note_on_c, 4, 52, 127
2, 332723, Note_on_c, 2, 62, 127
2, 332832, Note_off_c, 4, 52, 127
2, 332833, Note_on_c, 2, 50, 127
2, 332942, Note_off_c, 2, 50, 127
2, 332942, Note_off_c, 2, 62, 127
2, 332944, Note_on_c, 0, 48, 127
2, 332944, Note_on_c, 4, 64, 127
2, 333162, Note_off_c, 7, 67, 127
2, 333163, Note_off_c, 0, 48, 127
2, 333164, Note_on_c, 7, 67, 127
2, 333164, Note_on_c, 0, 48, 127
2, 333273, Note_off_c, 0, 48, 127
2, 333275, Note_on_c, 11, 46, 127
2, 333383, Note_off_c, 7, 67, 127
2, 333384, Note_off_c, 11, 46, 127
2, 333385, Note_on_c, 0, 72, 127
2, 333385, Note_on_c, 10, 45, 127
2, 333604, Note_off_c, 10, 45, 127
2, 333605, Note_off_c, 4, 64, 127
2, 333606, Note_on_c, 0, 60, 127
2, 333606, Note_on_c, 4, 64, 127
2, 333715, Note_off_c, 0, 60, 127
2, 333716, Note_on_c, 11, 58, 127
2, 333825, Note_off_c, 11, 58, 127
2, 333825, Note_off_c, 4, 64, 127
2, 333827, Note_on_c, 10, 57, 127
2, 333827, Note_on_c, 5, 65, 127
2, 334046, Note_off_c, 5, 65, 127
2, 334046, Note_off_c, 10, 57, 127
2, 334048, Note_on_c, 10, 57, 127
2, 334048, Note_on_c, 7, 67, 127
2, 334157, Note_off_c, 10, 57, 127
2, 334158, Note_on_c, 7, 55, 127
2, 334267, Note_off_c, 7, 55, 127
2, 334267, Note_off_c, 7, 67, 127
2, 334268, Note_on_c, 5, 53, 127
2, 334268, Note_on_c, 10, 69, 127
2, 334487, Note_off_c, 5, 53, 127
2, 334487, Note_off_c, 0, 72, 127
2, 334489, Note_on_c, 0, 72, 127
2, 334489, Note_on_c, 5, 53, 127
2, 334598, Note_off_c, 5, 53, 127
2, 334600, Note_on_c, 4, 52, 127
2, 334708, Note_off_c, 0, 72, 127
2, 334709, Note_off_c, 4, 52, 127
2, 334710, Note_on_c, 5, 77, 127
2, 334710, Note_on_c, 2, 50, 127
2, 334929, Note_off_c, 2, 50, 127
2, 334929, Note_off_c, 10, 69, 127
2, 334931, Note_on_c, 5, 53, 127
2, 334931, Note_on_c, 10, 69, 127
2, 335040, Note_off_c, 5, 53, 127
2, 335041, Note_on_c, 4, 52, 127
2, 335150, Note_off_c, 4, 52, 127
2, 335150, Note_off_c, 10, 69, 127
2, 335152, Note_on_c, 2, 50, 127
2, 335152, Note_on_c, 11, 70, 127
2, 335371, Note_off_c, 11, 70, 127
2, 335371, Note_off_c, 2, 50, 127
2, 335372, Note_on_c, 2, 50, 127
2, 335372, Note_on_c, 0, 72, 127
2, 335481, Note_off_c, 2, 50, 127
2, 335483, Note_on_c, 0, 48, 127
2, 335591, Note_off_c, 0, 72, 127
2, 335592, Note_off_c, 0, 48, 127
2, 335593, Note_on_c, 11, 46, 127
2, 335593, Note_on_c, 2, 74, 127
2, 335812, Note_off_c, 11, 46, 127
2, 335812, Note_off_c, 5, 77, 127
2, 335814, Note_on_c, 5, 77, 127
2, 335814, Note_on_c, 11, 46, 127
2, 335923, Note_off_c, 11, 46, 127
2, 335924, Note_on_c, 10, 45, 127
2, 336033, Note_off_c, 10, 45, 127
2, 336033, Note_off_c, 5, 77, 127
2, 336035, Note_on_c, 11, 82, 127
2, 336035, Note_on_c, 7, 43, 127
2, 336254, Note_off_c, 7, 43, 127
2, 336254, Note_off_c, 2, 74, 127
2, 336256, Note_on_c, 11, 58, 127
2, 336256, Note_on_c, 2, 74, 127
2, 336365, Note_off_c, 11, 58, 127
2, 336366, Note_on_c, 10, 57, 127
2, 336475, Note_off_c, 10, 57, 127
2, 336475, Note_off_c, 2, 74, 127
2, 336476, Note_on_c, 7, 55, 127
2, 336476, Note_on_c, 4, 76, 127
2, 336695, Note_off_c, 4, 76, 127
2, 336695, Note_off_c, 7, 55, 127
2, 336697, Note_on_c, 7, 55, 127
2, 336697, Note_on_c, 5, 77, 127
2, 336806, Note_off_c, 7, 55, 127
2, 336808, Note_on_c, 5, 53, 127
2, 336916, Note_off_c, 5, 77, 127
2, 336917, Note_off_c, 5, 53, 127
2, 336918, Note_on_c, 4, 52, 127
2, 336918, Note_on_c, 7, 79, 127
2, 337137, Note_off_c, 7, 79, 127
2, 337137, Note_off_c, 4, 52, 127
2, 337139, Note_on_c, 4, 52, 127
2, 337139, Note_on_c, 5, 77, 127
2, 337248, Note_off_c, 4, 52, 127
2, 337249, Note_on_c, 2, 50, 127
2, 337357, Note_off_c, 11, 82, 127
2, 337358, Note_off_c, 2, 50, 127
2, 337358, Note_off_c, 5, 77, 127
2, 337360, Note_on_c, 0, 48, 127
2, 337360, Note_on_c, 4, 76, 127
2, 337580, Note_on_c, 0, 84, 127
2, 337689, Note_off_c, 0, 84, 127
2, 337691, Note_on_c, 11, 82, 127
2, 337797, Note_off_c, 4, 76, 127
2, 337797, Note_off_c, 0, 48, 127
2, 337800, Note_off_c, 11, 82, 127
2, 337801, Note_on_c, 10, 81, 127
2, 338020, Note_off_c, 10, 81, 127
2, 338022, Note_on_c, 10, 81, 127
2, 338022, Note_on_c, 5, 53, 127
2, 338022, Note_on_c, 10, 57, 127
2, 338131, Note_off_c, 10, 81, 127
2, 338132, Note_on_c, 7, 79, 127
2, 338241, Note_off_c, 7, 79, 127
2, 338241, Note_off_c, 10, 57, 127
2, 338241, Note_off_c, 5, 53, 127
2, 338243, Note_on_c, 5, 77, 127
2, 338243, Note_on_c, 7, 55, 127
2, 338243, Note_on_c, 11, 58, 127
2, 338462, Note_off_c, 11, 58, 127
2, 338462, Note_off_c, 7, 55, 127
2, 338462, Note_off_c, 5, 77, 127
2, 338464, Note_on_c, 5, 77, 127
2, 338464, Note_on_c, 10, 57, 127
2, 338464, Note_on_c, 0, 60, 127
2, 338573, Note_off_c, 5, 77, 127
2, 338574, Note_on_c, 3, 75, 127
2, 338683, Note_off_c, 3, 75, 127
2, 338683, Note_off_c, 0, 60, 127
2, 338683, Note_off_c, 10, 57, 127
2, 338684, Note_on_c, 2, 74, 127
2, 338684, Note_on_c, 11, 58, 127
2, 338684, Note_on_c, 2, 62, 127
2, 338903, Note_off_c, 2, 62, 127
2, 338903, Note_off_c, 11, 58, 127
2, 338903, Note_off_c, 2, 74, 127
2, 338905, Note_on_c, 5, 77, 127
2, 338905, Note_on_c, 10, 57, 127
2, 338905, Note_on_c, 0, 60, 127
2, 339014, Note_off_c, 5, 77, 127
2, 339016, Note_on_c, 3, 75, 127
2, 339124, Note_off_c, 0, 60, 127
2, 339124, Note_off_c, 10, 57, 127
2, 339125, Note_off_c, 3, 75, 127
2, 339126, Note_on_c, 2, 74, 127
2, 339126, Note_on_c, 11, 58, 127
2, 339126, Note_on_c, 2, 62, 127
2, 339345, Note_off_c, 2, 62, 127
2, 339345, Note_off_c, 11, 58, 127
2, 339345, Note_off_c, 2, 74, 127
2, 339347, Note_on_c, 2, 74, 127
2, 339347, Note_on_c, 0, 60, 127
2, 339347, Note_on_c, 3, 63, 127
2, 339456, Note_off_c, 2, 74, 127
2, 339457, Note_on_c, 0, 72, 127
2, 339566, Note_off_c, 0, 72, 127
2, 339566, Note_off_c, 3, 63, 127
2, 339566, Note_off_c, 0, 60, 127
2, 339568, Note_on_c, 11, 70, 127
2, 339568, Note_on_c, 2, 62, 127
2, 339568, Note_on_c, 5, 65, 127
2, 339787, Note_off_c, 5, 65, 127
2, 339787, Note_off_c, 2, 62, 127
2, 339787, Note_off_c, 11, 70, 127
2, 339788, Note_on_c, 11, 70, 127
2, 339788, Note_on_c, 0, 60, 127
2, 339788, Note_on_c, 3, 63, 127
2, 339897, Note_off_c, 11, 70, 127
2, 339899, Note_on_c, 10, 69, 127
2, 340007, Note_off_c, 3, 63, 127
2, 340007, Note_off_c, 0, 60, 127
2, 340008, Note_off_c, 10, 69, 127
2, 340009, Note_on_c, 7, 67, 127
2, 340009, Note_on_c, 11, 58, 127
2, 340009, Note_on_c, 2, 62, 127
2, 340228, Note_off_c, 11, 58, 127
2, 340228, Note_off_c, 7, 67, 127
2, 340230, Note_on_c, 2, 74, 127
2, 340230, Note_on_c, 10, 57, 127
2, 340339, Note_off_c, 2, 74, 127
2, 340340, Note_on_c, 0, 72, 127
2, 340449, Note_off_c, 0, 72, 127
2, 340449, Note_off_c, 10, 57, 127
2, 340451, Note_on_c, 11, 70, 127
2, 340451, Note_on_c, 7, 55, 127
2, 340670, Note_off_c, 7, 55, 127
2, 340670, Note_off_c, 11, 70, 127
2, 340672, Note_on_c, 11, 70, 127
2, 340672, Note_on_c, 10, 57, 127
2, 340781, Note_off_c, 11, 70, 127
2, 340782, Note_on_c, 10, 69, 127
2, 340891, Note_off_c, 10, 69, 127
2, 340891, Note_off_c, 10, 57, 127
2, 340892, Note_on_c, 7, 67, 127
2, 340892, Note_on_c, 11, 58, 127
2, 341111, Note_off_c, 7, 67, 127
2, 341113, Note_on_c, 7, 67, 127
2, 341222, Note_off_c, 7, 67, 127
2, 341224, Note_on_c, 5, 65, 127
2, 341332, Note_off_c, 2, 62, 127
2, 341333, Note_off_c, 5, 65, 127
2, 341334, Note_on_c, 4, 64, 127
2, 341334, Note_on_c, 0, 60, 127
2, 341430, Note_off_c, 0, 60, 127
2, 341443, Note_off_c, 4, 64, 127
2, 341444, Note_on_c, 0, 60, 127
2, 341553, Note_off_c, 11, 58, 127
2, 341555, Note_on_c, 2, 62, 127
2, 341555, Note_on_c, 11, 58, 127
2, 341664, Note_off_c, 2, 62, 127
2, 341665, Note_on_c, 4, 64, 127
2, 341774, Note_off_c, 4, 64, 127
2, 341774, Note_off_c, 11, 58, 127
2, 341774, Note_off_c, 0, 60, 127
2, 341776, Note_on_c, 5, 65, 127
2, 341776, Note_on_c, 10, 57, 127
2, 341776, Note_on_c, 0, 60, 127
2, 341885, Note_off_c, 5, 65, 127
2, 341886, Note_on_c, 7, 67, 127
2, 341995, Note_off_c, 7, 67, 127
2, 341995, Note_off_c, 0, 60, 127
2, 341995, Note_off_c, 10, 57, 127
2, 341996, Note_on_c, 10, 69, 127
2, 341996, Note_on_c, 7, 55, 127
2, 341996, Note_on_c, 11, 58, 127
2, 342105, Note_off_c, 10, 69, 127
2, 342107, Note_on_c, 11, 70, 127
2, 342215, Note_off_c, 11, 58, 127
2, 342215, Note_off_c, 7, 55, 127
2, 342216, Note_off_c, 11, 70, 127
2, 342217, Note_on_c, 0, 72, 127
2, 342217, Note_on_c, 5, 53, 127
2, 342217, Note_on_c, 10, 57, 127
2, 342326, Note_off_c, 0, 72, 127
2, 342328, Note_on_c, 11, 70, 127
2, 342436, Note_off_c, 10, 57, 127
2, 342436, Note_off_c, 5, 53, 127
2, 342437, Note_off_c, 11, 70, 127
2, 342438, Note_on_c, 0, 72, 127
2, 342438, Note_on_c, 4, 52, 127
2, 342438, Note_on_c, 7, 55, 127
2, 342547, Note_off_c, 0, 72, 127
2, 342548, Note_on_c, 2, 74, 127
2, 342657, Note_off_c, 2, 74, 127
2, 342657, Note_off_c, 7, 55, 127
2, 342657, Note_off_c, 4, 52, 127
2, 342659, Note_on_c, 0, 72, 127
2, 342659, Note_on_c, 5, 53, 127
2, 342659, Note_on_c, 10, 57, 127
2, 342768, Note_off_c, 0, 72, 127
2, 342769, Note_on_c, 11, 70, 127
2, 342878, Note_off_c, 11, 70, 127
2, 342878, Note_off_c, 10, 57, 127
2, 342878, Note_off_c, 5, 53, 127
2, 342880, Note_on_c, 0, 72, 127
2, 342880, Note_on_c, 11, 46, 127
2, 342880, Note_on_c, 5, 53, 127
2, 342989, Note_off_c, 0, 72, 127
2, 342990, Note_on_c, 2, 74, 127
2, 343099, Note_off_c, 2, 74, 127
2, 343099, Note_off_c, 11, 46, 127
2, 343100, Note_on_c, 10, 69, 127
2, 343100, Note_on_c, 0, 48, 127
2, 343188, Note_off_c, 10, 69, 127
2, 343189, Note_on_c, 7, 67, 127
2, 343277, Note_off_c, 7, 67, 127
2, 343277, Note_on_c, 10, 69, 127
2, 343320, Note_off_c, 5, 53, 127
2, 343321, Note_on_c, 4, 52, 127
2, 343365, Note_off_c, 10, 69, 127
2, 343365, Note_on_c, 7, 67, 127
2, 343430, Note_off_c, 4, 52, 127
2, 343432, Note_on_c, 2, 50, 127
2, 343453, Note_off_c, 7, 67, 127
2, 343453, Note_on_c, 10, 69, 127
2, 343541, Note_off_c, 10, 69, 127
2, 343541, Note_off_c, 2, 50, 127
2, 343542, Note_on_c, 7, 67, 127
2, 343542, Note_on_c, 4, 52, 127
2, 343630, Note_off_c, 7, 67, 127
2, 343630, Note_on_c, 10, 69, 127
2, 343718, Note_off_c, 10, 69, 127
2, 343719, Note_on_c, 7, 67, 127
2, 343761, Note_off_c, 4, 52, 127
2, 343763, Note_on_c, 11, 58, 127
2, 343806, Note_on_c, 5, 65, 127
2, 343807, Note_off_c, 7, 67, 127
2, 343894, Note_off_c, 5, 65, 127
2, 343895, Note_on_c, 7, 67, 127
2, 343982, Note_off_c, 0, 48, 127
2, 343983, Note_off_c, 7, 67, 127
2, 343984, Note_on_c, 5, 65, 127
2, 343984, Note_on_c, 5, 53, 127
2, 344093, Note_off_c, 11, 58, 127
2, 344094, Note_on_c, 11, 58, 127
2, 344203, Note_off_c, 11, 58, 127
2, 344204, Note_on_c, 10, 57, 127
2, 344313, Note_off_c, 10, 57, 127
2, 344315, Note_on_c, 7, 55, 127
2, 344424, Note_off_c, 7, 55, 127
2, 344425, Note_on_c, 10, 57, 127
2, 344534, Note_off_c, 5, 53, 127
2, 344536, Note_on_c, 7, 55, 127
2, 344645, Note_off_c, 7, 55, 127
2, 344646, Note_on_c, 5, 53, 127
2, 344755, Note_off_c, 5, 53, 127
2, 344756, Note_on_c, 4, 52, 127
2, 344865, Note_off_c, 4, 52, 127
2, 344867, Note_on_c, 2, 50, 127
2, 344976, Note_off_c, 2, 50, 127
2, 344977, Note_on_c, 7, 55, 127
2, 345086, Note_off_c, 7, 55, 127
2, 345086, Note_off_c, 10, 57, 127
2, 345088, Note_on_c, 5, 53, 127
2, 345088, Note_on_c, 12, 59, 127
2, 345197, Note_off_c, 5, 53, 127
2, 345198, Note_on_c, 7, 55, 127
2, 345307, Note_off_c, 7, 55, 127
2, 345307, Note_off_c, 12, 59, 127
2, 345308, Note_on_c, 0, 48, 127
2, 345308, Note_on_c, 0, 60, 127
2, 345418, Note_off_c, 5, 65, 127
2, 345419, Note_on_c, 5, 65, 127
2, 345528, Note_off_c, 5, 65, 127
2, 345529, Note_on_c, 4, 64, 127
2, 345638, Note_off_c, 4, 64, 127
2, 345640, Note_on_c, 2, 62, 127
2, 345749, Note_off_c, 2, 62, 127
2, 345750, Note_on_c, 4, 64, 127
2, 345858, Note_off_c, 0, 60, 127
2, 345860, Note_on_c, 2, 62, 127
2, 345969, Note_off_c, 2, 62, 127
2, 345969, Note_off_c, 0, 48, 127
2, 345971, Note_on_c, 10, 45, 127
2, 345971, Note_on_c, 0, 60, 127
2, 346080, Note_off_c, 0, 60, 127
2, 346081, Note_on_c, 11, 58, 127
2, 346190, Note_off_c, 11, 58, 127
2, 346190, Note_off_c, 10, 45, 127
2, 346192, Note_on_c, 2, 50, 127
2, 346192, Note_on_c, 10, 57, 127
2, 346301, Note_off_c, 10, 57, 127
2, 346302, Note_on_c, 11, 58, 127
2, 346411, Note_off_c, 11, 58, 127
2, 346411, Note_off_c, 2, 50, 127
2, 346412, Note_on_c, 2, 38, 127
2, 346412, Note_on_c, 0, 60, 127
2, 346521, Note_off_c, 4, 64, 127
2, 346523, Note_on_c, 6, 66, 127
2, 346631, Note_off_c, 2, 38, 127
2, 346632, Note_off_c, 6, 66, 127
2, 346633, Note_on_c, 7, 67, 127
2, 346633, Note_on_c, 7, 43, 127
2, 346742, Note_off_c, 0, 60, 127
2, 346744, Note_on_c, 0, 60, 127
2, 346852, Note_off_c, 7, 43, 127
2, 346853, Note_off_c, 0, 60, 127
2, 346854, Note_on_c, 2, 50, 127
2, 346854, Note_on_c, 12, 59, 127
2, 346963, Note_off_c, 12, 59, 127
2, 346964, Note_on_c, 10, 57, 127
2, 347073, Note_off_c, 10, 57, 127
2, 347073, Note_off_c, 2, 50, 127
2, 347075, Note_on_c, 7, 55, 127
2, 347075, Note_on_c, 12, 59, 127
2, 347183, Note_off_c, 7, 67, 127
2, 347185, Note_on_c, 10, 69, 127
2, 347294, Note_off_c, 10, 69, 127
2, 347294, Note_off_c, 7, 55, 127
2, 347296, Note_on_c, 7, 67, 127
2, 347296, Note_on_c, 4, 52, 127
2, 347405, Note_off_c, 7, 67, 127
2, 347406, Note_on_c, 5, 65, 127
2, 347515, Note_off_c, 5, 65, 127
2, 347515, Note_off_c, 4, 52, 127
2, 347516, Note_on_c, 4, 64, 127
2, 347516, Note_on_c, 10, 57, 127
2, 347625, Note_off_c, 4, 64, 127
2, 347627, Note_on_c, 10, 69, 127
2, 347735, Note_off_c, 10, 57, 127
2, 347736, Note_off_c, 10, 69, 127
2, 347736, Note_off_c, 12, 59, 127
2, 347737, Note_on_c, 7, 67, 127
2, 347737, Note_on_c, 10, 45, 127
2, 347737, Note_on_c, 1, 61, 127
2, 347846, Note_off_c, 7, 67, 127
2, 347848, Note_on_c, 10, 69, 127
2, 347956, Note_off_c, 1, 61, 127
2, 347956, Note_off_c, 10, 45, 127
2, 347957, Note_off_c, 10, 69, 127
2, 347958, Note_on_c, 5, 65, 127
2, 347958, Note_on_c, 2, 50, 127
2, 347958, Note_on_c, 2, 62, 127
2, 348067, Note_off_c, 5, 65, 127
2, 348068, Note_on_c, 10, 69, 127
2, 348177, Note_off_c, 10, 69, 127
2, 348179, Note_on_c, 12, 71, 127
2, 348288, Note_off_c, 12, 71, 127
2, 348289, Note_on_c, 1, 73, 127
2, 348398, Note_off_c, 1, 73, 127
2, 348398, Note_off_c, 2, 50, 127
2, 348400, Note_on_c, 2, 74, 127
2, 348400, Note_on_c, 6, 54, 127
2, 348508, Note_off_c, 2, 62, 127
2, 348510, Note_on_c, 4, 64, 127
2, 348619, Note_off_c, 4, 64, 127
2, 348620, Note_on_c, 2, 62, 127
2, 348729, Note_off_c, 2, 62, 127
2, 348731, Note_on_c, 0, 60, 127
2, 348840, Note_off_c, 0, 60, 127
2, 348840, Note_off_c, 6, 54, 127
2, 348841, Note_on_c, 8, 56, 127
2, 348841, Note_on_c, 12, 59, 127
2, 348950, Note_off_c, 12, 59, 127
2, 348952, Note_on_c, 4, 64, 127
2, 349061, Note_off_c, 4, 64, 127
2, 349062, Note_on_c, 2, 62, 127
2, 349171, Note_off_c, 2, 62, 127
2, 349172, Note_on_c, 4, 64, 127
2, 349281, Note_off_c, 8, 56, 127
2, 349283, Note_on_c, 10, 57, 127
2, 349392, Note_off_c, 2, 74, 127
2, 349393, Note_on_c, 2, 74, 127
2, 349502, Note_off_c, 2, 74, 127
2, 349502, Note_off_c, 4, 64, 127
2, 349504, Note_on_c, 0, 72, 127
2, 349504, Note_on_c, 4, 64, 127
2, 349613, Note_off_c, 0, 72, 127
2, 349614, Note_on_c, 12, 71, 127
2, 349723, Note_off_c, 12, 71, 127
2, 349723, Note_off_c, 4, 64, 127
2, 349724, Note_on_c, 0, 72, 127
2, 349724, Note_on_c, 10, 69, 127
2, 349833, Note_off_c, 10, 57, 127
2, 349835, Note_on_c, 12, 59, 127
2, 349944, Note_off_c, 12, 59, 127
2, 349945, Note_on_c, 10, 57, 127
2, 350054, Note_off_c, 10, 57, 127
2, 350056, Note_on_c, 7, 55, 127
2, 350164, Note_off_c, 0, 72, 127
2, 350165, Note_off_c, 7, 55, 127
2, 350166, Note_on_c, 2, 74, 127
2, 350166, Note_on_c, 6, 54, 127
2, 350275, Note_off_c, 6, 54, 127
2, 350276, Note_on_c, 12, 59, 127
2, 350385, Note_off_c, 12, 59, 127
2, 350387, Note_on_c, 10, 57, 127
2, 350496, Note_off_c, 10, 57, 127
2, 350497, Note_on_c, 12, 59, 127
2, 350606, Note_off_c, 12, 59, 127
2, 350608, Note_on_c, 4, 52, 127
2, 350826, Note_off_c, 10, 69, 127
2, 350828, Note_on_c, 12, 71, 127
2, 350937, Note_off_c, 12, 71, 127
2, 350939, Note_on_c, 10, 69, 127
2, 351048, Note_off_c, 10, 69, 127
2, 351049, Note_on_c, 8, 68, 127
2, 351268, Note_off_c, 8, 68, 127
2, 351269, Note_off_c, 4, 52, 127
2, 351270, Note_on_c, 4, 52, 127
2, 351270, Note_on_c, 8, 68, 127
2, 351379, Note_off_c, 8, 68, 127
2, 351380, Note_on_c, 6, 66, 127
2, 351489, Note_off_c, 6, 66, 127
2, 351489, Note_off_c, 4, 52, 127
2, 351491, Note_on_c, 8, 56, 127
2, 351491, Note_on_c, 4, 64, 127
2, 351710, Note_off_c, 8, 56, 127
2, 351710, Note_off_c, 2, 74, 127
2, 351712, Note_on_c, 2, 74, 127
2, 351712, Note_on_c, 4, 52, 127
2, 351931, Note_off_c, 4, 52, 127
2, 351931, Note_off_c, 2, 74, 127
2, 351932, Note_on_c, 0, 72, 127
2, 351932, Note_on_c, 10, 57, 127
2, 352151, Note_off_c, 0, 72, 127
2, 352153, Note_on_c, 4, 76, 127
2, 352262, Note_off_c, 4, 76, 127
2, 352264, Note_on_c, 2, 74, 127
2, 352373, Note_off_c, 2, 74, 127
2, 352373, Note_off_c, 4, 64, 127
2, 352374, Note_on_c, 0, 72, 127
2, 352374, Note_on_c, 5, 65, 127
2, 352593, Note_off_c, 0, 72, 127
2, 352595, Note_on_c, 0, 72, 127
2, 352704, Note_off_c, 0, 72, 127
2, 352705, Note_on_c, 12, 71, 127
2, 352814, Note_off_c, 12, 71, 127
2, 352814, Note_off_c, 5, 65, 127
2, 352814, Note_off_c, 10, 57, 127
2, 352816, Note_on_c, 10, 69, 127
2, 352816, Note_on_c, 10, 45, 127
2, 352816, Note_on_c, 6, 66, 127
2, 353035, Note_off_c, 10, 69, 127
2, 353036, Note_on_c, 10, 69, 127
2, 353108, Note_off_c, 10, 69, 127
2, 353110, Note_on_c, 12, 71, 127
2, 353182, Note_off_c, 12, 71, 127
2, 353184, Note_on_c, 0, 72, 127
2, 353256, Note_off_c, 0, 72, 127
2, 353256, Note_off_c, 6, 66, 127
2, 353256, Note_off_c, 10, 45, 127
2, 353257, Note_on_c, 12, 71, 127
2, 353257, Note_on_c, 4, 52, 127
2, 353257, Note_on_c, 7, 67, 127
2, 353476, Note_off_c, 12, 71, 127
2, 353478, Note_on_c, 10, 69, 127
2, 353587, Note_off_c, 10, 69, 127
2, 353588, Note_on_c, 12, 71, 127
2, 353697, Note_off_c, 12, 71, 127
2, 353697, Note_off_c, 7, 67, 127
2, 353699, Note_on_c, 0, 72, 127
2, 353699, Note_on_c, 7, 67, 127
2, 353918, Note_off_c, 7, 67, 127
2, 353918, Note_off_c, 0, 72, 127
2, 353920, Note_on_c, 0, 72, 127
2, 353920, Note_on_c, 6, 66, 127
2, 354029, Note_off_c, 0, 72, 127
2, 354030, Note_on_c, 2, 74, 127
2, 354139, Note_off_c, 2, 74, 127
2, 354139, Note_off_c, 6, 66, 127
2, 354140, Note_on_c, 4, 76, 127
2, 354140, Note_on_c, 7, 67, 127
2, 354359, Note_off_c, 4, 76, 127
2, 354361, Note_on_c, 4, 76, 127
2, 354470, Note_off_c, 4, 76, 127
2, 354472, Note_on_c, 6, 78, 127
2, 354580, Note_off_c, 7, 67, 127
2, 354581, Note_off_c, 6, 78, 127
2, 354582, Note_on_c, 7, 79, 127
2, 354582, Note_on_c, 12, 59, 127
2, 354691, Note_off_c, 4, 52, 127
2, 354692, Note_on_c, 4, 52, 127
2, 354801, Note_off_c, 4, 52, 127
2, 354803, Note_on_c, 5, 53, 127
2, 354912, Note_off_c, 5, 53, 127
2, 354913, Note_on_c, 7, 55, 127
2, 355022, Note_off_c, 7, 55, 127
2, 355022, Note_off_c, 12, 59, 127
2, 355024, Note_on_c, 10, 57, 127
2, 355024, Note_on_c, 0, 60, 127
2, 355243, Note_off_c, 10, 57, 127
2, 355244, Note_on_c, 10, 57, 127
2, 355353, Note_off_c, 10, 57, 127
2, 355355, Note_on_c, 7, 55, 127
2, 355464, Note_off_c, 7, 55, 127
2, 355464, Note_off_c, 0, 60, 127
2, 355465, Note_on_c, 5, 53, 127
2, 355465, Note_on_c, 1, 61, 127
2, 355684, Note_off_c, 5, 53, 127
2, 355686, Note_on_c, 5, 53, 127
2, 355795, Note_off_c, 5, 53, 127
2, 355796, Note_on_c, 4, 52, 127
2, 355905, Note_off_c, 4, 52, 127
2, 355905, Note_off_c, 1, 61, 127
2, 355907, Note_on_c, 2, 50, 127
2, 355907, Note_on_c, 2, 62, 127
2, 356126, Note_off_c, 7, 79, 127
2, 356128, Note_on_c, 10, 81, 127
2, 356237, Note_off_c, 10, 81, 127
2, 356238, Note_on_c, 7, 79, 127
2, 356347, Note_off_c, 7, 79, 127
2, 356347, Note_off_c, 2, 62, 127
2, 356348, Note_on_c, 5, 77, 127
2, 356348, Note_on_c, 2, 62, 127
2, 356567, Note_off_c, 2, 62, 127
2, 356567, Note_off_c, 5, 77, 127
2, 356569, Note_on_c, 5, 77, 127
2, 356569, Note_on_c, 1, 61, 127
2, 356678, Note_off_c, 5, 77, 127
2, 356680, Note_on_c, 4, 76, 127
2, 356788, Note_off_c, 1, 61, 127
2, 356789, Note_off_c, 4, 76, 127
2, 356790, Note_on_c, 2, 74, 127
2, 356790, Note_on_c, 2, 62, 127
2, 357009, Note_off_c, 2, 62, 127
2, 357009, Note_off_c, 2, 74, 127
2, 357011, Note_on_c, 2, 74, 127
2, 357011, Note_on_c, 4, 64, 127
2, 357120, Note_off_c, 2, 74, 127
2, 357121, Note_on_c, 0, 72, 127
2, 357230, Note_off_c, 0, 72, 127
2, 357230, Note_off_c, 4, 64, 127
2, 357230, Note_off_c, 2, 50, 127
2, 357232, Note_on_c, 12, 71, 127
2, 357232, Note_on_c, 8, 56, 127
2, 357232, Note_on_c, 2, 62, 127
2, 357341, Note_off_c, 2, 62, 127
2, 357342, Note_on_c, 4, 64, 127
2, 357451, Note_off_c, 4, 64, 127
2, 357452, Note_on_c, 5, 65, 127
2, 357671, Note_off_c, 5, 65, 127
2, 357673, Note_on_c, 5, 65, 127
2, 357892, Note_off_c, 5, 65, 127
2, 357894, Note_on_c, 4, 64, 127
2, 358113, Note_off_c, 4, 64, 127
2, 358115, Note_on_c, 4, 64, 127
2, 358334, Note_off_c, 4, 64, 127
2, 358336, Note_on_c, 2, 62, 127
2, 358554, Note_off_c, 12, 71, 127
2, 358555, Note_off_c, 2, 62, 127
2, 358555, Note_off_c, 8, 56, 127
2, 358556, Note_on_c, 10, 57, 127
2, 358556, Note_on_c, 2, 62, 127
2, 358775, Note_off_c, 2, 62, 127
2, 358777, Note_on_c, 10, 81, 127
2, 358777, Note_on_c, 0, 60, 127
2, 358886, Note_off_c, 10, 81, 127
2, 358888, Note_on_c, 7, 79, 127
2, 358996, Note_off_c, 0, 60, 127
2, 358997, Note_off_c, 7, 79, 127
2, 358998, Note_on_c, 5, 77, 127
2, 358998, Note_on_c, 2, 62, 127
2, 359217, Note_off_c, 2, 62, 127
2, 359217, Note_off_c, 5, 77, 127
2, 359219, Note_on_c, 5, 77, 127
2, 359219, Note_on_c, 0, 60, 127
2, 359328, Note_off_c, 5, 77, 127
2, 359329, Note_on_c, 4, 76, 127
2, 359438, Note_off_c, 4, 76, 127
2, 359438, Note_off_c, 0, 60, 127
2, 359440, Note_on_c, 2, 74, 127
2, 359440, Note_on_c, 12, 59, 127
2, 359656, Note_off_c, 10, 57, 127
2, 359659, Note_off_c, 12, 59, 127
2, 359659, Note_off_c, 2, 74, 127
2, 359660, Note_on_c, 2, 74, 127
2, 359660, Note_on_c, 10, 57, 127
2, 359769, Note_off_c, 2, 74, 127
2, 359771, Note_on_c, 0, 72, 127
2, 359880, Note_off_c, 0, 72, 127
2, 359881, Note_on_c, 2, 74, 127
2, 359881, Note_on_c, 12, 59, 127
2, 360100, Note_off_c, 2, 74, 127
2, 360102, Note_on_c, 2, 74, 127
2, 360211, Note_off_c, 2, 74, 127
2, 360212, Note_on_c, 5, 77, 127
2, 360321, Note_off_c, 5, 77, 127
2, 360321, Note_off_c, 12, 59, 127
2, 360321, Note_off_c, 10, 57, 127
2, 360323, Note_on_c, 4, 76, 127
2, 360323, Note_on_c, 4, 52, 127
2, 360323, Note_on_c, 8, 56, 127
2, 360542, Note_off_c, 4, 76, 127
2, 360544, Note_on_c, 4, 76, 127
2, 360653, Note_off_c, 4, 76, 127
2, 360654, Note_on_c, 2, 74, 127
2, 360763, Note_off_c, 2, 74, 127
2, 360763, Note_off_c, 8, 56, 127
2, 360763, Note_off_c, 4, 52, 127
2, 360764, Note_on_c, 0, 72, 127
2, 360764, Note_on_c, 8, 56, 127
2, 360764, Note_on_c, 4, 64, 127
2, 360983, Note_off_c, 0, 72, 127
2, 360985, Note_on_c, 0, 72, 127
2, 361094, Note_off_c, 0, 72, 127
2, 361096, Note_on_c, 12, 71, 127
2, 361204, Note_off_c, 8, 56, 127
2, 361205, Note_off_c, 12, 71, 127
2, 361206, Note_on_c, 0, 72, 127
2, 361206, Note_on_c, 10, 57, 127
2, 361316, Note_off_c, 4, 64, 127
2, 361316, Note_on_c, 10, 69, 127
2, 361425, Note_off_c, 10, 69, 127
2, 361427, Note_on_c, 4, 64, 127
2, 361536, Note_off_c, 4, 64, 127
2, 361537, Note_on_c, 0, 60, 127
2, 361643, Note_off_c, 10, 57, 127
2, 361646, Note_off_c, 0, 60, 127
2, 361648, Note_on_c, 10, 57, 127
2, 361758, Note_on_c, 4, 64, 127
2, 361867, Note_off_c, 4, 64, 127
2, 361868, Note_on_c, 0, 60, 127
2, 361977, Note_off_c, 0, 60, 127
2, 361979, Note_off_c, 10, 57, 127
2, 361979, Note_on_c, 10, 57, 127
2, 362088, Note_off_c, 0, 72, 127
2, 362089, Note_on_c, 6, 54, 127
2, 362200, Note_on_c, 2, 62, 127
2, 362309, Note_off_c, 2, 62, 127
2, 362310, Note_on_c, 10, 69, 127
2, 362416, Note_off_c, 10, 57, 127
2, 362419, Note_off_c, 10, 69, 127
2, 362420, Note_on_c, 0, 72, 127
2, 362526, Note_off_c, 6, 54, 127
2, 362529, Note_off_c, 0, 72, 127
2, 362531, Note_on_c, 12, 71, 127
2, 362531, Note_on_c, 7, 55, 127
2, 362641, Note_on_c, 7, 67, 127
2, 362750, Note_off_c, 7, 67, 127
2, 362752, Note_on_c, 2, 62, 127
2, 362861, Note_off_c, 2, 62, 127
2, 362862, Note_on_c, 12, 59, 127
2, 362968, Note_off_c, 7, 55, 127
2, 362971, Note_off_c, 12, 59, 127
2, 362972, Note_on_c, 7, 55, 127
2, 363083, Note_on_c, 2, 62, 127
2, 363192, Note_off_c, 2, 62, 127
2, 363193, Note_on_c, 12, 59, 127
2, 363302, Note_off_c, 12, 59, 127
2, 363303, Note_off_c, 7, 55, 127
2, 363304, Note_on_c, 7, 55, 127
2, 363413, Note_off_c, 7, 55, 127
2, 363413, Note_off_c, 12, 71, 127
2, 363414, Note_on_c, 4, 52, 127
2, 363524, Note_on_c, 0, 60, 127
2, 363633, Note_off_c, 0, 60, 127
2, 363635, Note_on_c, 7, 67, 127
2, 363744, Note_off_c, 7, 67, 127
2, 363745, Note_on_c, 11, 70, 127
2, 363854, Note_off_c, 11, 70, 127
2, 363854, Note_off_c, 4, 52, 127
2, 363856, Note_on_c, 10, 69, 127
2, 363856, Note_on_c, 5, 53, 127
2, 363965, Note_off_c, 10, 69, 127
2, 363966, Note_on_c, 5, 65, 127
2, 364075, Note_off_c, 5, 65, 127
2, 364076, Note_on_c, 10, 69, 127
2, 364185, Note_off_c, 10, 69, 127
2, 364187, Note_on_c, 0, 72, 127
2, 364296, Note_off_c, 0, 72, 127
2, 364297, Note_on_c, 5, 77, 127
2, 364406, Note_off_c, 5, 53, 127
2, 364408, Note_on_c, 10, 69, 127
2, 364517, Note_off_c, 10, 69, 127
2, 364518, Note_on_c, 5, 65, 127
2, 364627, Note_off_c, 5, 65, 127
2, 364628, Note_on_c, 2, 62, 127
2, 364737, Note_off_c, 2, 62, 127
2, 364739, Note_on_c, 12, 59, 127
2, 364847, Note_off_c, 5, 77, 127
2, 364849, Note_on_c, 7, 67, 127
2, 364958, Note_off_c, 7, 67, 127
2, 364958, Note_off_c, 12, 59, 127
2, 364960, Note_on_c, 2, 74, 127
2, 364960, Note_on_c, 7, 55, 127
2, 365069, Note_off_c, 2, 74, 127
2, 365070, Note_on_c, 5, 77, 127
2, 365179, Note_off_c, 5, 77, 127
2, 365179, Note_off_c, 7, 55, 127
2, 365180, Note_on_c, 4, 76, 127
2, 365180, Note_on_c, 0, 60, 127
2, 365289, Note_off_c, 4, 76, 127
2, 365291, Note_on_c, 7, 67, 127
2, 365400, Note_off_c, 7, 67, 127
2, 365401, Note_on_c, 0, 72, 127
2, 365510, Note_off_c, 0, 72, 127
2, 365512, Note_on_c, 4, 76, 127
2, 365621, Note_off_c, 4, 76, 127
2, 365622, Note_on_c, 7, 79, 127
2, 365730, Note_off_c, 0, 60, 127
2, 365732, Note_on_c, 11, 70, 127
2, 365841, Note_off_c, 11, 70, 127
2, 365843, Note_on_c, 7, 67, 127
2, 365952, Note_off_c, 7, 67, 127
2, 365953, Note_on_c, 4, 64, 127
2, 366062, Note_off_c, 4, 64, 127
2, 366064, Note_on_c, 1, 61, 127
2, 366172, Note_off_c, 7, 79, 127
2, 366174, Note_on_c, 10, 69, 127
2, 366283, Note_off_c, 10, 69, 127
2, 366283, Note_off_c, 1, 61, 127
2, 366284, Note_on_c, 4, 76, 127
2, 366284, Note_on_c, 10, 57, 127
2, 366393, Note_off_c, 4, 76, 127
2, 366395, Note_on_c, 7, 79, 127
2, 366502, Note_off_c, 10, 57, 127
2, 366504, Note_off_c, 7, 79, 127
2, 366505, Note_on_c, 7, 79, 127
2, 366505, Note_on_c, 2, 62, 127
2, 366616, Note_on_c, 2, 74, 127
2, 366680, Note_off_c, 7, 79, 127
2, 366682, Note_on_c, 5, 77, 127
2, 366725, Note_off_c, 2, 74, 127
2, 366726, Note_on_c, 0, 72, 127
2, 366770, Note_off_c, 5, 77, 127
2, 366770, Note_on_c, 4, 76, 127
2, 366835, Note_off_c, 0, 72, 127
2, 366836, Note_on_c, 11, 70, 127
2, 366858, Note_off_c, 4, 76, 127
2, 366858, Note_on_c, 5, 77, 127
2, 366945, Note_off_c, 11, 70, 127
2, 366946, Note_off_c, 5, 77, 127
2, 366947, Note_on_c, 7, 79, 127
2, 366947, Note_on_c, 10, 69, 127
2, 367019, Note_off_c, 7, 79, 127
2, 367020, Note_on_c, 5, 77, 127
2, 367056, Note_off_c, 10, 69, 127
2, 367057, Note_on_c, 11, 70, 127
2, 367092, Note_off_c, 5, 77, 127
2, 367094, Note_on_c, 7, 79, 127
2, 367166, Note_off_c, 7, 79, 127
2, 367166, Note_off_c, 11, 70, 127
2, 367168, Note_on_c, 5, 77, 127
2, 367168, Note_on_c, 7, 67, 127
2, 367240, Note_off_c, 5, 77, 127
2, 367241, Note_on_c, 7, 79, 127
2, 367277, Note_off_c, 7, 67, 127
2, 367278, Note_on_c, 5, 65, 127
2, 367313, Note_off_c, 7, 79, 127
2, 367315, Note_on_c, 5, 77, 127
2, 367387, Note_off_c, 5, 77, 127
2, 367387, Note_off_c, 5, 65, 127
2, 367387, Note_off_c, 2, 62, 127
2, 367388, Note_on_c, 7, 79, 127
2, 367388, Note_on_c, 2, 62, 127
2, 367460, Note_off_c, 7, 79, 127
2, 367462, Note_on_c, 5, 77, 127
2, 367497, Note_off_c, 2, 62, 127
2, 367499, Note_on_c, 5, 65, 127
2, 367534, Note_off_c, 5, 77, 127
2, 367536, Note_on_c, 7, 79, 127
2, 367608, Note_off_c, 7, 79, 127
2, 367608, Note_off_c, 5, 65, 127
2, 367609, Note_on_c, 5, 77, 127
2, 367609, Note_on_c, 0, 60, 127
2, 367681, Note_off_c, 5, 77, 127
2, 367683, Note_on_c, 7, 79, 127
2, 367718, Note_off_c, 0, 60, 127
2, 367720, Note_on_c, 5, 65, 127
2, 367755, Note_off_c, 7, 79, 127
2, 367756, Note_on_c, 5, 77, 127
2, 367828, Note_off_c, 5, 77, 127
2, 367829, Note_off_c, 5, 65, 127
2, 367830, Note_on_c, 7, 79, 127
2, 367830, Note_on_c, 12, 59, 127
2, 367902, Note_off_c, 7, 79, 127
2, 367904, Note_on_c, 5, 77, 127
2, 367939, Note_off_c, 12, 59, 127
2, 367940, Note_on_c, 2, 62, 127
2, 367976, Note_off_c, 5, 77, 127
2, 367977, Note_on_c, 7, 79, 127
2, 368049, Note_off_c, 7, 79, 127
2, 368049, Note_off_c, 2, 62, 127
2, 368051, Note_on_c, 5, 77, 127
2, 368051, Note_on_c, 4, 64, 127
2, 368123, Note_off_c, 5, 77, 127
2, 368124, Note_on_c, 7, 79, 127
2, 368160, Note_off_c, 4, 64, 127
2, 368161, Note_on_c, 7, 67, 127
2, 368196, Note_off_c, 7, 79, 127
2, 368198, Note_on_c, 5, 77, 127
2, 368270, Note_off_c, 5, 77, 127
2, 368270, Note_off_c, 7, 67, 127
2, 368272, Note_on_c, 7, 79, 127
2, 368272, Note_on_c, 5, 65, 127
2, 368344, Note_off_c, 7, 79, 127
2, 368345, Note_on_c, 5, 77, 127
2, 368381, Note_off_c, 5, 65, 127
2, 368382, Note_on_c, 4, 64, 127
2, 368417, Note_off_c, 5, 77, 127
2, 368419, Note_on_c, 7, 79, 127
2, 368491, Note_off_c, 7, 79, 127
2, 368491, Note_off_c, 4, 64, 127
2, 368492, Note_on_c, 5, 77, 127
2, 368492, Note_on_c, 2, 62, 127
2, 368564, Note_off_c, 5, 77, 127
2, 368566, Note_on_c, 7, 79, 127
2, 368601, Note_off_c, 2, 62, 127
2, 368603, Note_on_c, 0, 60, 127
2, 368638, Note_off_c, 7, 79, 127
2, 368640, Note_on_c, 5, 77, 127
2, 368712, Note_off_c, 5, 77, 127
2, 368712, Note_off_c, 0, 60, 127
2, 368713, Note_on_c, 7, 79, 127
2, 368713, Note_on_c, 12, 59, 127
2, 368785, Note_off_c, 7, 79, 127
2, 368787, Note_on_c, 5, 77, 127
2, 368822, Note_off_c, 12, 59, 127
2, 368824, Note_on_c, 2, 62, 127
2, 368859, Note_off_c, 5, 77, 127
2, 368860, Note_on_c, 7, 79, 127
2, 368932, Note_off_c, 7, 79, 127
2, 368933, Note_off_c, 2, 62, 127
2, 368934, Note_on_c, 5, 77, 127
2, 368934, Note_on_c, 10, 57, 127
2, 369006, Note_off_c, 5, 77, 127
2, 369008, Note_on_c, 7, 79, 127
2, 369043, Note_off_c, 10, 57, 127
2, 369044, Note_on_c, 2, 62, 127
2, 369080, Note_off_c, 7, 79, 127
2, 369081, Note_on_c, 5, 77, 127
2, 369153, Note_off_c, 5, 77, 127
2, 369153, Note_off_c, 2, 62, 127
2, 369155, Note_on_c, 7, 79, 127
2, 369155, Note_on_c, 8, 56, 127
2, 369227, Note_off_c, 7, 79, 127
2, 369228, Note_on_c, 5, 77, 127
2, 369264, Note_off_c, 8, 56, 127
2, 369265, Note_on_c, 12, 59, 127
2, 369300, Note_off_c, 5, 77, 127
2, 369302, Note_on_c, 7, 79, 127
2, 369374, Note_off_c, 7, 79, 127
2, 369374, Note_off_c, 12, 59, 127
2, 369376, Note_on_c, 5, 77, 127
2, 369376, Note_on_c, 0, 60, 127
2, 369485, Note_off_c, 0, 60, 127
2, 369486, Note_on_c, 4, 64, 127
2, 369595, Note_off_c, 4, 64, 127
2, 369596, Note_on_c, 2, 62, 127
2, 369698, Note_off_c, 5, 77, 127
2, 369705, Note_off_c, 2, 62, 127
2, 369707, Note_on_c, 4, 76, 127
2, 369707, Note_on_c, 0, 60, 127
2, 369816, Note_off_c, 0, 60, 127
2, 369816, Note_off_c, 4, 76, 127
2, 369817, Note_on_c, 2, 74, 127
2, 369817, Note_on_c, 12, 59, 127
2, 369926, Note_off_c, 12, 59, 127
2, 369926, Note_off_c, 2, 74, 127
2, 369928, Note_on_c, 0, 72, 127
2, 369928, Note_on_c, 10, 57, 127
2, 370037, Note_off_c, 10, 57, 127
2, 370037, Note_off_c, 0, 72, 127
2, 370038, Note_on_c, 12, 71, 127
2, 370038, Note_on_c, 8, 56, 127
2, 370147, Note_off_c, 8, 56, 127
2, 370147, Note_off_c, 12, 71, 127
2, 370148, Note_on_c, 2, 74, 127
2, 370148, Note_on_c, 12, 59, 127
2, 370257, Note_off_c, 12, 59, 127
2, 370257, Note_off_c, 2, 74, 127
2, 370259, Note_on_c, 10, 69, 127
2, 370259, Note_on_c, 6, 54, 127
2, 370368, Note_off_c, 6, 54, 127
2, 370368, Note_off_c, 10, 69, 127
2, 370369, Note_on_c, 2, 74, 127
2, 370369, Note_on_c, 12, 59, 127
2, 370478, Note_off_c, 12, 59, 127
2, 370478, Note_off_c, 2, 74, 127
2, 370480, Note_on_c, 8, 68, 127
2, 370480, Note_on_c, 4, 52, 127
2, 370589, Note_off_c, 4, 52, 127
2, 370589, Note_off_c, 8, 68, 127
2, 370590, Note_on_c, 12, 71, 127
2, 370590, Note_on_c, 8, 56, 127
2, 370699, Note_off_c, 8, 56, 127
2, 370699, Note_off_c, 12, 71, 127
2, 370700, Note_on_c, 0, 72, 127
2, 370700, Note_on_c, 10, 57, 127
2, 370809, Note_off_c, 10, 57, 127
2, 370809, Note_off_c, 0, 72, 127
2, 370811, Note_on_c, 4, 76, 127
2, 370811, Note_on_c, 0, 60, 127
2, 370920, Note_off_c, 0, 60, 127
2, 370920, Note_off_c, 4, 76, 127
2, 370921, Note_on_c, 2, 74, 127
2, 370921, Note_on_c, 12, 59, 127
2, 371030, Note_off_c, 12, 59, 127
2, 371030, Note_off_c, 2, 74, 127
2, 371032, Note_on_c, 0, 72, 127
2, 371032, Note_on_c, 10, 57, 127
2, 371141, Note_off_c, 10, 57, 127
2, 371141, Note_off_c, 0, 72, 127
2, 371142, Note_on_c, 12, 71, 127
2, 371142, Note_on_c, 8, 56, 127
2, 371251, Note_off_c, 8, 56, 127
2, 371251, Note_off_c, 12, 71, 127
2, 371252, Note_on_c, 10, 69, 127
2, 371252, Note_on_c, 6, 54, 127
2, 371361, Note_off_c, 6, 54, 127
2, 371361, Note_off_c, 10, 69, 127
2, 371363, Note_on_c, 8, 68, 127
2, 371363, Note_on_c, 4, 52, 127
2, 371472, Note_off_c, 4, 52, 127
2, 371472, Note_off_c, 8, 68, 127
2, 371473, Note_on_c, 12, 71, 127
2, 371473, Note_on_c, 8, 56, 127
2, 371582, Note_off_c, 8, 56, 127
2, 371582, Note_off_c, 12, 71, 127
2, 371584, Note_on_c, 5, 65, 127
2, 371584, Note_on_c, 2, 50, 127
2, 371693, Note_off_c, 2, 50, 127
2, 371693, Note_off_c, 5, 65, 127
2, 371694, Note_on_c, 12, 71, 127
2, 371694, Note_on_c, 8, 56, 127
2, 371803, Note_off_c, 8, 56, 127
2, 371803, Note_off_c, 12, 71, 127
2, 371804, Note_on_c, 4, 64, 127
2, 371804, Note_on_c, 0, 48, 127
2, 371913, Note_off_c, 0, 48, 127
2, 371913, Note_off_c, 4, 64, 127
2, 371915, Note_on_c, 8, 68, 127
2, 371915, Note_on_c, 4, 52, 127
2, 372024, Note_off_c, 4, 52, 127
2, 372024, Note_off_c, 8, 68, 127
2, 372025, Note_on_c, 10, 69, 127
2, 372025, Note_on_c, 6, 54, 127
2, 372134, Note_off_c, 6, 54, 127
2, 372134, Note_off_c, 10, 69, 127
2, 372136, Note_on_c, 0, 72, 127
2, 372136, Note_on_c, 10, 57, 127
2, 372245, Note_off_c, 10, 57, 127
2, 372245, Note_off_c, 0, 72, 127
2, 372246, Note_on_c, 6, 66, 127
2, 372246, Note_on_c, 2, 50, 127
2, 372355, Note_off_c, 2, 50, 127
2, 372355, Note_off_c, 6, 66, 127
2, 372356, Note_on_c, 10, 69, 127
2, 372356, Note_on_c, 6, 54, 127
2, 372465, Note_off_c, 6, 54, 127
2, 372465, Note_off_c, 10, 69, 127
2, 372467, Note_on_c, 12, 71, 127
2, 372467, Note_on_c, 8, 56, 127
2, 372576, Note_off_c, 8, 56, 127
2, 372576, Note_off_c, 12, 71, 127
2, 372577, Note_on_c, 2, 74, 127
2, 372577, Note_on_c, 12, 59, 127
2, 372686, Note_off_c, 12, 59, 127
2, 372686, Note_off_c, 2, 74, 127
2, 372688, Note_on_c, 8, 68, 127
2, 372688, Note_on_c, 4, 52, 127
2, 372797, Note_off_c, 4, 52, 127
2, 372797, Note_off_c, 8, 68, 127
2, 372798, Note_on_c, 12, 71, 127
2, 372798, Note_on_c, 8, 56, 127
2, 372907, Note_off_c, 8, 56, 127
2, 372907, Note_off_c, 12, 71, 127
2, 372908, Note_on_c, 0, 72, 127
2, 372908, Note_on_c, 10, 57, 127
2, 373017, Note_off_c, 10, 57, 127
2, 373017, Note_off_c, 0, 72, 127
2, 373019, Note_on_c, 4, 76, 127
2, 373019, Note_on_c, 0, 60, 127
2, 373128, Note_off_c, 0, 60, 127
2, 373128, Note_off_c, 4, 76, 127
2, 373129, Note_on_c, 10, 69, 127
2, 373129, Note_on_c, 6, 54, 127
2, 373238, Note_off_c, 6, 54, 127
2, 373238, Note_off_c, 10, 69, 127
2, 373240, Note_on_c, 12, 71, 127
2, 373240, Note_on_c, 8, 56, 127
2, 373349, Note_off_c, 8, 56, 127
2, 373349, Note_off_c, 12, 71, 127
2, 373350, Note_on_c, 0, 72, 127
2, 373350, Note_on_c, 10, 57, 127
2, 373459, Note_off_c, 10, 57, 127
2, 373459, Note_off_c, 0, 72, 127
2, 373460, Note_on_c, 4, 76, 127
2, 373460, Note_on_c, 0, 60, 127
2, 373569, Note_off_c, 0, 60, 127
2, 373569, Note_off_c, 4, 76, 127
2, 373571, Note_on_c, 12, 71, 127
2, 373571, Note_on_c, 8, 56, 127
2, 373680, Note_off_c, 8, 56, 127
2, 373680, Note_off_c, 12, 71, 127
2, 373681, Note_on_c, 0, 72, 127
2, 373681, Note_on_c, 10, 57, 127
2, 373790, Note_off_c, 10, 57, 127
2, 373790, Note_off_c, 0, 72, 127
2, 373792, Note_on_c, 2, 74, 127
2, 373792, Note_on_c, 12, 59, 127
2, 373901, Note_off_c, 12, 59, 127
2, 373901, Note_off_c, 2, 74, 127
2, 373902, Note_on_c, 5, 77, 127
2, 373902, Note_on_c, 2, 62, 127
2, 374011, Note_off_c, 2, 62, 127
2, 374011, Note_off_c, 5, 77, 127
2, 374012, Note_on_c, 4, 76, 127
2, 374012, Note_on_c, 0, 60, 127
2, 374121, Note_off_c, 0, 60, 127
2, 374121, Note_off_c, 4, 76, 127
2, 374123, Note_on_c, 2, 74, 127
2, 374123, Note_on_c, 12, 59, 127
2, 374232, Note_off_c, 12, 59, 127
2, 374232, Note_off_c, 2, 74, 127
2, 374233, Note_on_c, 0, 72, 127
2, 374233, Note_on_c, 10, 57, 127
2, 374342, Note_off_c, 10, 57, 127
2, 374342, Note_off_c, 0, 72, 127
2, 374344, Note_on_c, 12, 71, 127
2, 374344, Note_on_c, 8, 56, 127
2, 374453, Note_off_c, 8, 56, 127
2, 374453, Note_off_c, 12, 71, 127
2, 374454, Note_on_c, 0, 72, 127
2, 374454, Note_on_c, 10, 57, 127
2, 374563, Note_off_c, 0, 72, 127
2, 374564, Note_on_c, 4, 76, 127
2, 374673, Note_off_c, 4, 76, 127
2, 374673, Note_off_c, 10, 57, 127
2, 374675, Note_on_c, 10, 81, 127
2, 374675, Note_on_c, 4, 52, 127
2, 374784, Note_off_c, 10, 81, 127
2, 374785, Note_on_c, 8, 80, 127
2, 374894, Note_off_c, 8, 80, 127
2, 374894, Note_off_c, 4, 52, 127
2, 374896, Note_on_c, 10, 81, 127
2, 374896, Note_on_c, 5, 53, 127
2, 375005, Note_off_c, 10, 81, 127
2, 375006, Note_on_c, 2, 74, 127
2, 375115, Note_off_c, 2, 74, 127
2, 375115, Note_off_c, 5, 53, 127
2, 375116, Note_on_c, 4, 76, 127
2, 375116, Note_on_c, 2, 50, 127
2, 375225, Note_off_c, 4, 76, 127
2, 375227, Note_on_c, 5, 77, 127
2, 375335, Note_off_c, 2, 50, 127
2, 375336, Note_off_c, 5, 77, 127
2, 375337, Note_on_c, 8, 68, 127
2, 375337, Note_on_c, 4, 52, 127
2, 375446, Note_off_c, 8, 68, 127
2, 375448, Note_on_c, 12, 71, 127
2, 375556, Note_off_c, 4, 52, 127
2, 375557, Note_off_c, 12, 71, 127
2, 375558, Note_on_c, 4, 76, 127
2, 375558, Note_on_c, 4, 40, 127
2, 375667, Note_off_c, 4, 76, 127
2, 375668, Note_on_c, 2, 74, 127
2, 375777, Note_off_c, 2, 74, 127
2, 375777, Note_off_c, 4, 40, 127
2, 375779, Note_on_c, 0, 72, 127
2, 375779, Note_on_c, 10, 45, 127
2, 375779, Note_on_c, 10, 69, 127
2, 375888, Note_off_c, 0, 72, 127
2, 375889, Note_on_c, 0, 72, 127
2, 375998, Note_off_c, 0, 72, 127
2, 376000, Note_on_c, 4, 76, 127
2, 376109, Note_off_c, 4, 76, 127
2, 376110, Note_on_c, 10, 81, 127
2, 376219, Note_off_c, 10, 69, 127
2, 376220, Note_on_c, 11, 70, 127
2, 376329, Note_off_c, 10, 81, 127
2, 376331, Note_on_c, 2, 74, 127
2, 376440, Note_off_c, 2, 74, 127
2, 376441, Note_on_c, 5, 77, 127
2, 376550, Note_off_c, 5, 77, 127
2, 376552, Note_on_c, 10, 81, 127
2, 376660, Note_off_c, 11, 70, 127
2, 376662, Note_on_c, 12, 71, 127
2, 376771, Note_off_c, 10, 81, 127
2, 376772, Note_on_c, 2, 74, 127
2, 376881, Note_off_c, 2, 74, 127
2, 376883, Note_on_c, 5, 77, 127
2, 376992, Note_off_c, 5, 77, 127
2, 376993, Note_on_c, 8, 80, 127
2, 377102, Note_off_c, 8, 80, 127
2, 377102, Note_off_c, 12, 71, 127
2, 377104, Note_on_c, 10, 81, 127
2, 377104, Note_on_c, 0, 72, 127
2, 377323, Note_off_c, 10, 45, 127
2, 377324, Note_on_c, 10, 45, 127
2, 377433, Note_off_c, 10, 45, 127
2, 377435, Note_on_c, 12, 47, 127
2, 377544, Note_off_c, 12, 47, 127
2, 377544, Note_off_c, 0, 72, 127
2, 377544, Note_off_c, 10, 81, 127
2, 377545, Note_on_c, 10, 81, 127
2, 377545, Note_on_c, 0, 48, 127
2, 377545, Note_on_c, 0, 72, 127
2, 377764, Note_off_c, 0, 72, 127
2, 377764, Note_off_c, 0, 48, 127
2, 377764, Note_off_c, 10, 81, 127
2, 377766, Note_on_c, 8, 80, 127
2, 377766, Note_on_c, 0, 48, 127
2, 377766, Note_on_c, 12, 71, 127
2, 377875, Note_off_c, 0, 48, 127
2, 377876, Note_on_c, 2, 50, 127
2, 377985, Note_off_c, 2, 50, 127
2, 377985, Note_off_c, 12, 71, 127
2, 377985, Note_off_c, 8, 80, 127
2, 377987, Note_on_c, 10, 81, 127
2, 377987, Note_on_c, 4, 52, 127
2, 377987, Note_on_c, 0, 72, 127
2, 378206, Note_off_c, 4, 52, 127
2, 378208, Note_on_c, 4, 52, 127
2, 378317, Note_off_c, 4, 52, 127
2, 378318, Note_on_c, 6, 54, 127
2, 378427, Note_off_c, 6, 54, 127
2, 378427, Note_off_c, 0, 72, 127
2, 378428, Note_on_c, 8, 56, 127
2, 378428, Note_on_c, 4, 64, 127
2, 378537, Note_off_c, 10, 81, 127
2, 378539, Note_on_c, 2, 74, 127
2, 378648, Note_off_c, 2, 74, 127
2, 378649, Note_on_c, 4, 76, 127
2, 378758, Note_off_c, 4, 76, 127
2, 378760, Note_on_c, 12, 83, 127
2, 378868, Note_off_c, 4, 64, 127
2, 378868, Note_off_c, 8, 56, 127
2, 378870, Note_on_c, 10, 57, 127
2, 378870, Note_on_c, 5, 65, 127
2, 378979, Note_off_c, 12, 83, 127
2, 378980, Note_on_c, 0, 72, 127
2, 379089, Note_off_c, 0, 72, 127
2, 379091, Note_on_c, 4, 76, 127
2, 379200, Note_off_c, 4, 76, 127
2, 379201, Note_on_c, 10, 81, 127
2, 379310, Note_off_c, 5, 65, 127
2, 379312, Note_on_c, 6, 66, 127
2, 379420, Note_off_c, 10, 81, 127
2, 379422, Note_on_c, 10, 69, 127
2, 379531, Note_off_c, 10, 69, 127
2, 379532, Note_on_c, 0, 72, 127
2, 379641, Note_off_c, 0, 72, 127
2, 379643, Note_on_c, 3, 75, 127
2, 379752, Note_off_c, 3, 75, 127
2, 379752, Note_off_c, 6, 66, 127
2, 379752, Note_off_c, 10, 57, 127
2, 379753, Note_on_c, 4, 76, 127
2, 379753, Note_on_c, 4, 52, 127
2, 379753, Note_on_c, 7, 67, 127
2, 379972, Note_off_c, 4, 52, 127
2, 379974, Note_on_c, 4, 40, 127
2, 380083, Note_off_c, 4, 40, 127
2, 380084, Note_on_c, 6, 42, 127
2, 380193, Note_off_c, 6, 42, 127
2, 380193, Note_off_c, 7, 67, 127
2, 380193, Note_off_c, 4, 76, 127
2, 380195, Note_on_c, 4, 76, 127
2, 380195, Note_on_c, 7, 43, 127
2, 380195, Note_on_c, 7, 67, 127
2, 380414, Note_off_c, 7, 67, 127
2, 380414, Note_off_c, 7, 43, 127
2, 380414, Note_off_c, 4, 76, 127
2, 380416, Note_on_c, 3, 75, 127
2, 380416, Note_on_c, 7, 43, 127
2, 380416, Note_on_c, 6, 66, 127
2, 380525, Note_off_c, 7, 43, 127
2, 380526, Note_on_c, 10, 45, 127
2, 380635, Note_off_c, 10, 45, 127
2, 380635, Note_off_c, 6, 66, 127
2, 380635, Note_off_c, 3, 75, 127
2, 380636, Note_on_c, 4, 76, 127
2, 380636, Note_on_c, 12, 47, 127
2, 380636, Note_on_c, 7, 67, 127
2, 380855, Note_off_c, 12, 47, 127
2, 380857, Note_on_c, 12, 47, 127
2, 380929, Note_off_c, 12, 47, 127
2, 380931, Note_on_c, 1, 49, 127
2, 381003, Note_off_c, 1, 49, 127
2, 381004, Note_on_c, 2, 50, 127
2, 381076, Note_off_c, 2, 50, 127
2, 381076, Note_off_c, 7, 67, 127
2, 381078, Note_on_c, 1, 49, 127
2, 381078, Note_on_c, 7, 67, 127
2, 381187, Note_off_c, 7, 67, 127
2, 381188, Note_on_c, 10, 69, 127
2, 381297, Note_off_c, 10, 69, 127
2, 381299, Note_on_c, 11, 70, 127
2, 381518, Note_off_c, 11, 70, 127
2, 381518, Note_off_c, 1, 49, 127
2, 381520, Note_on_c, 2, 62, 127
2, 381520, Note_on_c, 11, 70, 127
2, 381607, Note_off_c, 2, 62, 127
2, 381608, Note_on_c, 1, 61, 127
2, 381695, Note_off_c, 1, 61, 127
2, 381697, Note_on_c, 2, 62, 127
2, 381739, Note_off_c, 11, 70, 127
2, 381740, Note_on_c, 10, 69, 127
2, 381784, Note_off_c, 2, 62, 127
2, 381784, Note_on_c, 1, 61, 127
2, 381871, Note_off_c, 1, 61, 127
2, 381873, Note_on_c, 2, 62, 127
2, 381959, Note_off_c, 10, 69, 127
2, 381960, Note_off_c, 2, 62, 127
2, 381961, Note_on_c, 1, 61, 127
2, 381961, Note_on_c, 10, 69, 127
2, 382048, Note_off_c, 1, 61, 127
2, 382050, Note_on_c, 2, 62, 127
2, 382137, Note_off_c, 2, 62, 127
2, 382138, Note_on_c, 1, 61, 127
2, 382180, Note_off_c, 10, 69, 127
2, 382182, Note_on_c, 7, 67, 127
2, 382225, Note_off_c, 1, 61, 127
2, 382226, Note_on_c, 12, 59, 127
2, 382313, Note_off_c, 12, 59, 127
2, 382314, Note_on_c, 1, 61, 127
2, 382401, Note_off_c, 1, 61, 127
2, 382401, Note_off_c, 7, 67, 127
2, 382403, Note_on_c, 2, 62, 127
2, 382403, Note_on_c, 7, 67, 127
2, 382622, Note_off_c, 7, 67, 127
2, 382622, Note_off_c, 4, 76, 127
2, 382624, Note_on_c, 1, 73, 127
2, 382624, Note_on_c, 5, 65, 127
2, 382733, Note_off_c, 1, 73, 127
2, 382734, Note_on_c, 2, 74, 127
2, 382843, Note_off_c, 2, 74, 127
2, 382843, Note_off_c, 5, 65, 127
2, 382844, Note_on_c, 4, 76, 127
2, 382844, Note_on_c, 7, 67, 127
2, 383063, Note_off_c, 7, 67, 127
2, 383063, Note_off_c, 4, 76, 127
2, 383065, Note_on_c, 4, 76, 127
2, 383065, Note_on_c, 5, 65, 127
2, 383174, Note_off_c, 4, 76, 127
2, 383176, Note_on_c, 5, 77, 127
2, 383284, Note_off_c, 5, 65, 127
2, 383285, Note_off_c, 5, 77, 127
2, 383286, Note_on_c, 7, 79, 127
2, 383286, Note_on_c, 4, 64, 127
2, 383505, Note_off_c, 4, 64, 127
2, 383505, Note_off_c, 7, 79, 127
2, 383507, Note_off_c, 2, 62, 127
2, 383507, Note_on_c, 7, 79, 127
2, 383507, Note_on_c, 2, 62, 127
2, 383616, Note_off_c, 7, 79, 127
2, 383617, Note_on_c, 10, 81, 127
2, 383726, Note_off_c, 10, 81, 127
2, 383726, Note_off_c, 2, 62, 127
2, 383728, Note_on_c, 7, 79, 127
2, 383728, Note_on_c, 4, 64, 127
2, 383837, Note_off_c, 7, 79, 127
2, 383838, Note_on_c, 10, 81, 127
2, 383947, Note_off_c, 10, 81, 127
2, 383948, Note_on_c, 11, 82, 127
2, 383948, Note_on_c, 4, 52, 127
2, 384057, Note_off_c, 4, 52, 127
2, 384059, Note_on_c, 5, 53, 127
2, 384167, Note_off_c, 11, 82, 127
2, 384168, Note_off_c, 5, 53, 127
2, 384168, Note_off_c, 4, 64, 127
2, 384169, Note_on_c, 11, 82, 127
2, 384169, Note_on_c, 7, 55, 127
2, 384169, Note_on_c, 4, 76, 127
2, 384388, Note_off_c, 7, 55, 127
2, 384388, Note_off_c, 11, 82, 127
2, 384390, Note_on_c, 10, 81, 127
2, 384390, Note_on_c, 7, 55, 127
2, 384499, Note_off_c, 7, 55, 127
2, 384500, Note_on_c, 10, 57, 127
2, 384609, Note_off_c, 10, 57, 127
2, 384609, Note_off_c, 10, 81, 127
2, 384611, Note_on_c, 10, 81, 127
2, 384611, Note_on_c, 12, 59, 127
2, 384830, Note_off_c, 12, 59, 127
2, 384830, Note_off_c, 10, 81, 127
2, 384832, Note_on_c, 7, 79, 127
2, 384832, Note_on_c, 12, 59, 127
2, 384941, Note_off_c, 12, 59, 127
2, 384942, Note_on_c, 1, 61, 127
2, 385051, Note_off_c, 1, 61, 127
2, 385051, Note_off_c, 7, 79, 127
2, 385052, Note_on_c, 7, 79, 127
2, 385052, Note_on_c, 2, 62, 127
2, 385271, Note_off_c, 2, 62, 127
2, 385271, Note_off_c, 7, 79, 127
2, 385273, Note_on_c, 5, 77, 127
2, 385273, Note_on_c, 2, 62, 127
2, 385382, Note_off_c, 2, 62, 127
2, 385384, Note_on_c, 0, 60, 127
2, 385492, Note_off_c, 5, 77, 127
2, 385492, Note_off_c, 4, 76, 127
2, 385493, Note_off_c, 0, 60, 127
2, 385494, Note_on_c, 7, 79, 127
2, 385494, Note_on_c, 11, 58, 127
2, 385494, Note_on_c, 2, 74, 127
2, 385713, Note_off_c, 11, 58, 127
2, 385713, Note_off_c, 7, 79, 127
2, 385715, Note_on_c, 5, 77, 127
2, 385715, Note_on_c, 11, 58, 127
2, 385824, Note_off_c, 11, 58, 127
2, 385825, Note_on_c, 10, 57, 127
2, 385934, Note_off_c, 10, 57, 127
2, 385934, Note_off_c, 5, 77, 127
2, 385936, Note_on_c, 4, 76, 127
2, 385936, Note_on_c, 7, 55, 127
2, 386154, Note_off_c, 2, 74, 127
2, 386155, Note_off_c, 7, 55, 127
2, 386155, Note_off_c, 4, 76, 127
2, 386156, Note_on_c, 2, 74, 127
2, 386156, Note_on_c, 7, 55, 127
2, 386265, Note_off_c, 7, 55, 127
2, 386267, Note_on_c, 5, 53, 127
2, 386376, Note_off_c, 5, 53, 127
2, 386377, Note_on_c, 4, 76, 127
2, 386377, Note_on_c, 7, 55, 127
2, 386596, Note_off_c, 7, 55, 127
2, 386598, Note_on_c, 7, 55, 127
2, 386707, Note_off_c, 7, 55, 127
2, 386708, Note_on_c, 11, 58, 127
2, 386817, Note_off_c, 11, 58, 127
2, 386817, Note_off_c, 2, 74, 127
2, 386819, Note_on_c, 10, 57, 127
2, 386819, Note_on_c, 0, 72, 127
2, 387038, Note_off_c, 10, 57, 127
2, 387038, Note_off_c, 4, 76, 127
2, 387040, Note_on_c, 4, 76, 127
2, 387040, Note_on_c, 10, 57, 127
2, 387149, Note_off_c, 10, 57, 127
2, 387150, Note_on_c, 7, 55, 127
2, 387259, Note_off_c, 7, 55, 127
2, 387259, Note_off_c, 4, 76, 127
2, 387260, Note_on_c, 10, 81, 127
2, 387260, Note_on_c, 5, 53, 127
2, 387369, Note_off_c, 10, 81, 127
2, 387371, Note_on_c, 7, 79, 127
2, 387479, Note_off_c, 5, 53, 127
2, 387480, Note_off_c, 7, 79, 127
2, 387481, Note_on_c, 10, 81, 127
2, 387481, Note_on_c, 5, 53, 127
2, 387590, Note_off_c, 5, 53, 127
2, 387592, Note_on_c, 4, 52, 127
2, 387700, Note_off_c, 10, 81, 127
2, 387701, Note_off_c, 4, 52, 127
2, 387702, Note_on_c, 2, 74, 127
2, 387702, Note_on_c, 6, 54, 127
2, 387920, Note_off_c, 6, 54, 127
2, 387923, Note_on_c, 6, 54, 127
2, 388032, Note_off_c, 6, 54, 127
2, 388033, Note_on_c, 10, 57, 127
2, 388142, Note_off_c, 10, 57, 127
2, 388142, Note_off_c, 0, 72, 127
2, 388144, Note_on_c, 7, 55, 127
2, 388144, Note_on_c, 11, 70, 127
2, 388252, Note_off_c, 2, 74, 127
2, 388254, Note_on_c, 2, 74, 127
2, 388363, Note_off_c, 2, 74, 127
2, 388363, Note_off_c, 7, 55, 127
2, 388364, Note_on_c, 4, 76, 127
2, 388364, Note_on_c, 7, 55, 127
2, 388473, Note_off_c, 7, 55, 127
2, 388473, Note_off_c, 4, 76, 127
2, 388475, Note_on_c, 5, 77, 127
2, 388475, Note_on_c, 5, 53, 127
2, 388584, Note_off_c, 5, 53, 127
2, 388584, Note_off_c, 5, 77, 127
2, 388585, Note_on_c, 7, 79, 127
2, 388585, Note_on_c, 4, 52, 127
2, 388694, Note_off_c, 7, 79, 127
2, 388696, Note_on_c, 4, 76, 127
2, 388804, Note_off_c, 4, 52, 127
2, 388805, Note_off_c, 4, 76, 127
2, 388806, Note_on_c, 5, 77, 127
2, 388806, Note_on_c, 4, 52, 127
2, 388915, Note_off_c, 4, 52, 127
2, 388915, Note_off_c, 5, 77, 127
2, 388916, Note_on_c, 7, 79, 127
2, 388916, Note_on_c, 2, 50, 127
2, 389025, Note_off_c, 2, 50, 127
2, 389025, Note_off_c, 7, 79, 127
2, 389027, Note_on_c, 1, 73, 127
2, 389027, Note_on_c, 4, 52, 127
2, 389246, Note_off_c, 11, 70, 127
2, 389248, Note_on_c, 11, 70, 127
2, 389357, Note_off_c, 11, 70, 127
2, 389358, Note_on_c, 10, 69, 127
2, 389467, Note_off_c, 10, 69, 127
2, 389468, Note_on_c, 7, 67, 127
2, 389687, Note_off_c, 7, 67, 127
2, 389688, Note_off_c, 4, 52, 127
2, 389689, Note_on_c, 4, 52, 127
2, 389689, Note_on_c, 7, 67, 127
2, 389798, Note_off_c, 7, 67, 127
2, 389800, Note_on_c, 5, 65, 127
2, 389908, Note_off_c, 4, 52, 127
2, 389909, Note_off_c, 5, 65, 127
2, 389910, Note_on_c, 10, 57, 127
2, 389910, Note_on_c, 4, 64, 127
2, 390129, Note_off_c, 4, 64, 127
2, 390129, Note_off_c, 10, 57, 127
2, 390131, Note_on_c, 10, 45, 127
2, 390131, Note_on_c, 7, 67, 127
2, 390350, Note_off_c, 7, 67, 127
2, 390350, Note_off_c, 10, 45, 127
2, 390350, Note_off_c, 1, 73, 127
2, 390352, Note_on_c, 2, 74, 127
2, 390352, Note_on_c, 2, 50, 127
2, 390352, Note_on_c, 5, 65, 127
2, 390461, Note_off_c, 5, 65, 127
2, 390462, Note_on_c, 10, 69, 127
2, 390571, Note_off_c, 10, 69, 127
2, 390571, Note_off_c, 2, 50, 127
2, 390572, Note_on_c, 10, 57, 127
2, 390572, Note_on_c, 2, 62, 127
2, 390681, Note_off_c, 2, 62, 127
2, 390683, Note_on_c, 4, 64, 127
2, 390791, Note_off_c, 10, 57, 127
2, 390792, Note_off_c, 4, 64, 127
2, 390793, Note_on_c, 2, 62, 127
2, 390793, Note_on_c, 5, 65, 127
2, 390902, Note_off_c, 5, 65, 127
2, 390904, Note_on_c, 7, 67, 127
2, 391012, Note_off_c, 2, 62, 127
2, 391013, Note_off_c, 7, 67, 127
2, 391014, Note_on_c, 0, 60, 127
2, 391014, Note_on_c, 5, 65, 127
2, 391123, Note_off_c, 5, 65, 127
2, 391124, Note_on_c, 7, 67, 127
2, 391233, Note_off_c, 7, 67, 127
2, 391233, Note_off_c, 0, 60, 127
2, 391235, Note_on_c, 0, 60, 127
2, 391235, Note_on_c, 10, 69, 127
2, 391344, Note_off_c, 10, 69, 127
2, 391344, Note_off_c, 0, 60, 127
2, 391345, Note_on_c, 11, 58, 127
2, 391345, Note_on_c, 7, 67, 127
2, 391454, Note_off_c, 7, 67, 127
2, 391454, Note_off_c, 11, 58, 127
2, 391456, Note_on_c, 10, 57, 127
2, 391456, Note_on_c, 5, 65, 127
2, 391565, Note_off_c, 5, 65, 127
2, 391565, Note_off_c, 10, 57, 127
2, 391566, Note_on_c, 11, 58, 127
2, 391566, Note_on_c, 7, 67, 127
2, 391675, Note_off_c, 7, 67, 127
2, 391675, Note_off_c, 11, 58, 127
2, 391675, Note_off_c, 2, 74, 127
2, 391676, Note_on_c, 0, 72, 127
2, 391676, Note_on_c, 10, 57, 127
2, 391676, Note_on_c, 10, 69, 127
2, 391895, Note_off_c, 10, 69, 127
2, 391895, Note_off_c, 0, 72, 127
2, 391897, Note_on_c, 0, 72, 127
2, 391897, Note_on_c, 10, 69, 127
2, 392006, Note_off_c, 10, 69, 127
2, 392006, Note_off_c, 0, 72, 127
2, 392008, Note_on_c, 2, 74, 127
2, 392008, Note_on_c, 12, 71, 127
2, 392117, Note_off_c, 12, 71, 127
2, 392117, Note_off_c, 2, 74, 127
2, 392118, Note_on_c, 4, 76, 127
2, 392118, Note_on_c, 0, 72, 127
2, 392337, Note_off_c, 0, 72, 127
2, 392337, Note_off_c, 10, 57, 127
2, 392339, Note_on_c, 10, 57, 127
2, 392339, Note_on_c, 0, 72, 127
2, 392448, Note_off_c, 0, 72, 127
2, 392449, Note_on_c, 11, 70, 127
2, 392558, Note_off_c, 11, 70, 127
2, 392558, Note_off_c, 10, 57, 127
2, 392558, Note_off_c, 4, 76, 127
2, 392560, Note_on_c, 6, 78, 127
2, 392560, Note_on_c, 2, 62, 127
2, 392560, Note_on_c, 10, 69, 127
2, 392779, Note_off_c, 10, 69, 127
2, 392779, Note_off_c, 2, 62, 127
2, 392780, Note_on_c, 2, 50, 127
2, 392780, Note_on_c, 2, 74, 127
2, 392889, Note_off_c, 2, 74, 127
2, 392891, Note_on_c, 0, 72, 127
2, 392999, Note_off_c, 2, 50, 127
2, 393000, Note_off_c, 0, 72, 127
2, 393000, Note_off_c, 6, 78, 127
2, 393001, Note_on_c, 7, 79, 127
2, 393001, Note_on_c, 7, 55, 127
2, 393001, Note_on_c, 11, 70, 127
2, 393220, Note_off_c, 11, 70, 127
2, 393220, Note_off_c, 7, 55, 127
2, 393222, Note_on_c, 7, 43, 127
2, 393222, Note_on_c, 2, 74, 127
2, 393331, Note_off_c, 2, 74, 127
2, 393332, Note_on_c, 0, 72, 127
2, 393441, Note_off_c, 0, 72, 127
2, 393441, Note_off_c, 7, 43, 127
2, 393441, Note_off_c, 7, 79, 127
2, 393443, Note_on_c, 7, 79, 127
2, 393443, Note_on_c, 11, 46, 127
2, 393443, Note_on_c, 11, 70, 127
2, 393662, Note_off_c, 11, 70, 127
2, 393662, Note_off_c, 11, 46, 127
2, 393662, Note_off_c, 7, 79, 127
2, 393664, Note_on_c, 7, 79, 127
2, 393664, Note_on_c, 2, 50, 127
2, 393664, Note_on_c, 11, 70, 127
2, 393773, Note_off_c, 11, 70, 127
2, 393773, Note_off_c, 7, 79, 127
2, 393774, Note_on_c, 6, 78, 127
2, 393774, Note_on_c, 10, 69, 127
2, 393883, Note_off_c, 10, 69, 127
2, 393883, Note_off_c, 6, 78, 127
2, 393883, Note_off_c, 2, 50, 127
2, 393884, Note_on_c, 7, 79, 127
2, 393884, Note_on_c, 7, 55, 127
2, 393884, Note_on_c, 11, 70, 127
2, 393993, Note_off_c, 11, 70, 127
2, 393995, Note_on_c, 0, 72, 127
2, 394103, Note_off_c, 7, 55, 127
2, 394104, Note_off_c, 0, 72, 127
2, 394105, Note_on_c, 5, 53, 127
2, 394105, Note_on_c, 2, 74, 127
2, 394214, Note_off_c, 2, 74, 127
2, 394216, Note_on_c, 11, 70, 127
2, 394324, Note_off_c, 5, 53, 127
2, 394325, Note_off_c, 11, 70, 127
2, 394326, Note_on_c, 4, 52, 127
2, 394326, Note_on_c, 7, 67, 127
2, 394545, Note_off_c, 7, 79, 127
2, 394547, Note_on_c, 4, 76, 127
2, 394656, Note_off_c, 4, 76, 127
2, 394656, Note_off_c, 7, 67, 127
2, 394657, Note_on_c, 5, 77, 127
2, 394657, Note_on_c, 10, 69, 127
2, 394766, Note_off_c, 10, 69, 127
2, 394766, Note_off_c, 5, 77, 127
2, 394768, Note_on_c, 7, 79, 127
2, 394768, Note_on_c, 12, 71, 127
2, 394987, Note_off_c, 7, 79, 127
2, 394987, Note_off_c, 4, 52, 127
2, 394988, Note_on_c, 7, 79, 127
2, 394988, Note_on_c, 4, 52, 127
2, 395097, Note_off_c, 7, 79, 127
2, 395099, Note_on_c, 5, 77, 127
2, 395207, Note_off_c, 4, 52, 127
2, 395208, Note_off_c, 5, 77, 127
2, 395208, Note_off_c, 12, 71, 127
2, 395209, Note_on_c, 4, 76, 127
2, 395209, Note_on_c, 10, 57, 127
2, 395209, Note_on_c, 1, 73, 127
2, 395428, Note_off_c, 10, 57, 127
2, 395428, Note_off_c, 4, 76, 127
2, 395430, Note_on_c, 10, 81, 127
2, 395430, Note_on_c, 10, 45, 127
2, 395539, Note_off_c, 10, 81, 127
2, 395540, Note_on_c, 7, 79, 127
2, 395649, Note_off_c, 7, 79, 127
2, 395649, Note_off_c, 10, 45, 127
2, 395649, Note_off_c, 1, 73, 127
2, 395651, Note_on_c, 5, 77, 127
2, 395651, Note_on_c, 2, 50, 127
2, 395651, Note_on_c, 2, 74, 127
2, 395870, Note_off_c, 2, 50, 127
2, 395870, Note_off_c, 5, 77, 127
2, 395872, Note_on_c, 10, 81, 127
2, 395872, Note_on_c, 2, 38, 127
2, 395981, Note_off_c, 10, 81, 127
2, 395982, Note_on_c, 7, 79, 127
2, 396091, Note_off_c, 7, 79, 127
2, 396091, Note_off_c, 2, 38, 127
2, 396091, Note_off_c, 2, 74, 127
2, 396092, Note_on_c, 5, 77, 127
2, 396092, Note_on_c, 5, 41, 127
2, 396092, Note_on_c, 2, 74, 127
2, 396311, Note_off_c, 2, 74, 127
2, 396311, Note_off_c, 5, 41, 127
2, 396311, Note_off_c, 5, 77, 127
2, 396313, Note_on_c, 5, 77, 127
2, 396313, Note_on_c, 10, 45, 127
2, 396313, Note_on_c, 2, 74, 127
2, 396422, Note_off_c, 2, 74, 127
2, 396422, Note_off_c, 5, 77, 127
2, 396424, Note_on_c, 4, 76, 127
2, 396424, Note_on_c, 1, 73, 127
2, 396532, Note_off_c, 10, 45, 127
2, 396533, Note_off_c, 1, 73, 127
2, 396533, Note_off_c, 4, 76, 127
2, 396534, Note_on_c, 5, 77, 127
2, 396534, Note_on_c, 2, 50, 127
2, 396534, Note_on_c, 2, 74, 127
2, 396643, Note_off_c, 5, 77, 127
2, 396644, Note_on_c, 7, 79, 127
2, 396753, Note_off_c, 7, 79, 127
2, 396753, Note_off_c, 2, 50, 127
2, 396755, Note_on_c, 10, 81, 127
2, 396755, Note_on_c, 4, 52, 127
2, 396864, Note_off_c, 10, 81, 127
2, 396865, Note_on_c, 5, 77, 127
2, 396971, Note_off_c, 2, 74, 127
2, 396974, Note_off_c, 5, 77, 127
2, 396974, Note_off_c, 4, 52, 127
2, 396976, Note_on_c, 2, 74, 127
2, 396976, Note_on_c, 5, 53, 127
2, 397086, Note_on_c, 10, 69, 127
2, 397195, Note_off_c, 10, 69, 127
2, 397195, Note_off_c, 5, 53, 127
2, 397196, Note_on_c, 6, 54, 127
2, 397196, Note_on_c, 12, 71, 127
2, 397305, Note_off_c, 12, 71, 127
2, 397307, Note_on_c, 0, 72, 127
2, 397415, Note_off_c, 6, 54, 127
2, 397416, Note_off_c, 0, 72, 127
2, 397417, Note_on_c, 7, 55, 127
2, 397417, Note_on_c, 12, 71, 127
2, 397526, Note_off_c, 12, 71, 127
2, 397528, Note_on_c, 10, 69, 127
2, 397637, Note_off_c, 10, 69, 127
2, 397638, Note_on_c, 7, 67, 127
2, 397747, Note_off_c, 7, 67, 127
2, 397748, Note_on_c, 5, 65, 127
2, 397857, Note_off_c, 5, 65, 127
2, 397857, Note_off_c, 7, 55, 127
2, 397859, Note_on_c, 8, 56, 127
2, 397859, Note_on_c, 4, 64, 127
2, 397968, Note_off_c, 2, 74, 127
2, 397969, Note_on_c, 8, 68, 127
2, 398078, Note_off_c, 8, 68, 127
2, 398080, Note_on_c, 12, 71, 127
2, 398189, Note_off_c, 12, 71, 127
2, 398190, Note_on_c, 2, 74, 127
2, 398299, Note_off_c, 2, 74, 127
2, 398299, Note_off_c, 8, 56, 127
2, 398300, Note_on_c, 0, 72, 127
2, 398300, Note_on_c, 10, 57, 127
2, 398409, Note_off_c, 0, 72, 127
2, 398411, Note_on_c, 10, 81, 127
2, 398520, Note_off_c, 10, 81, 127
2, 398521, Note_on_c, 7, 79, 127
2, 398630, Note_off_c, 7, 79, 127
2, 398632, Note_on_c, 5, 77, 127
2, 398740, Note_off_c, 10, 57, 127
2, 398741, Note_off_c, 5, 77, 127
2, 398742, Note_on_c, 4, 76, 127
2, 398742, Note_on_c, 10, 57, 127
2, 398851, Note_off_c, 4, 76, 127
2, 398852, Note_on_c, 2, 74, 127
2, 398961, Note_off_c, 2, 74, 127
2, 398961, Note_off_c, 10, 57, 127
2, 398963, Note_on_c, 0, 72, 127
2, 398963, Note_on_c, 8, 56, 127
2, 399072, Note_off_c, 0, 72, 127
2, 399073, Note_on_c, 12, 71, 127
2, 399182, Note_off_c, 12, 71, 127
2, 399182, Note_off_c, 8, 56, 127
2, 399184, Note_on_c, 10, 69, 127
2, 399184, Note_on_c, 10, 57, 127
2, 399293, Note_off_c, 10, 69, 127
2, 399294, Note_on_c, 8, 68, 127
2, 399403, Note_off_c, 8, 68, 127
2, 399404, Note_on_c, 6, 66, 127
2, 399456, Note_off_c, 4, 64, 127
2, 399513, Note_off_c, 6, 66, 127
2, 399515, Note_on_c, 4, 64, 127
2, 399624, Note_off_c, 4, 64, 127
2, 399624, Note_off_c, 10, 57, 127
2, 399625, Note_on_c, 10, 69, 127
2, 399625, Note_on_c, 0, 48, 127
2, 399736, Note_on_c, 4, 64, 127
2, 399844, Note_off_c, 0, 48, 127
2, 399845, Note_off_c, 4, 64, 127
2, 399846, Note_on_c, 1, 49, 127
2, 399846, Note_on_c, 6, 66, 127
2, 399955, Note_off_c, 6, 66, 127
2, 399956, Note_on_c, 7, 67, 127
2, 400065, Note_off_c, 7, 67, 127
2, 400065, Note_off_c, 1, 49, 127
2, 400067, Note_on_c, 2, 50, 127
2, 400067, Note_on_c, 6, 66, 127
2, 400176, Note_off_c, 6, 66, 127
2, 400177, Note_on_c, 4, 64, 127
2, 400286, Note_off_c, 4, 64, 127
2, 400288, Note_on_c, 2, 62, 127
2, 400397, Note_off_c, 2, 62, 127
2, 400398, Note_on_c, 0, 60, 127
2, 400507, Note_off_c, 0, 60, 127
2, 400507, Note_off_c, 2, 50, 127
2, 400508, Note_on_c, 3, 51, 127
2, 400508, Note_on_c, 12, 59, 127
2, 400617, Note_off_c, 10, 69, 127
2, 400619, Note_on_c, 3, 63, 127
2, 400728, Note_off_c, 3, 63, 127
2, 400729, Note_on_c, 6, 66, 127
2, 400838, Note_off_c, 6, 66, 127
2, 400840, Note_on_c, 10, 69, 127
2, 400948, Note_off_c, 3, 51, 127
2, 400949, Note_off_c, 10, 69, 127
2, 400950, Note_on_c, 7, 67, 127
2, 400950, Note_on_c, 4, 52, 127
2, 401059, Note_off_c, 7, 67, 127
2, 401060, Note_on_c, 4, 76, 127
2, 401169, Note_off_c, 4, 76, 127
2, 401171, Note_on_c, 2, 74, 127
2, 401280, Note_off_c, 2, 74, 127
2, 401281, Note_on_c, 0, 72, 127
2, 401390, Note_off_c, 0, 72, 127
2, 401390, Note_off_c, 4, 52, 127
2, 401392, Note_on_c, 12, 71, 127
2, 401392, Note_on_c, 4, 52, 127
2, 401501, Note_off_c, 12, 71, 127
2, 401502, Note_on_c, 10, 69, 127
2, 401611, Note_off_c, 10, 69, 127
2, 401611, Note_off_c, 4, 52, 127
2, 401612, Note_on_c, 7, 67, 127
2, 401612, Note_on_c, 3, 51, 127
2, 401721, Note_off_c, 7, 67, 127
2, 401723, Note_on_c, 6, 66, 127
2, 401830, Note_off_c, 12, 59, 127
2, 401831, Note_off_c, 3, 51, 127
2, 401832, Note_off_c, 6, 66, 127
2, 401833, Note_on_c, 4, 64, 127
2, 401833, Note_on_c, 4, 52, 127
2, 401942, Note_off_c, 4, 64, 127
2, 401944, Note_on_c, 2, 62, 127
2, 402052, Note_off_c, 4, 52, 127
2, 402053, Note_off_c, 2, 62, 127
2, 402054, Note_on_c, 1, 61, 127
2, 402054, Note_on_c, 6, 54, 127
2, 402163, Note_off_c, 1, 61, 127
2, 402164, Note_on_c, 12, 59, 127
2, 402273, Note_off_c, 6, 54, 127
2, 402275, Note_on_c, 7, 55, 127
2, 402275, Note_on_c, 12, 71, 127
2, 402356, Note_on_c, 11, 70, 127
2, 402357, Note_off_c, 12, 71, 127
2, 402382, Note_off_c, 12, 59, 127
2, 402438, Note_off_c, 11, 70, 127
2, 402438, Note_on_c, 12, 71, 127
2, 402494, Note_off_c, 7, 55, 127
2, 402496, Note_on_c, 6, 54, 127
2, 402519, Note_on_c, 11, 70, 127
2, 402520, Note_off_c, 12, 71, 127
2, 402600, Note_on_c, 12, 71, 127
2, 402601, Note_off_c, 11, 70, 127
2, 402682, Note_off_c, 12, 71, 127
2, 402682, Note_on_c, 11, 70, 127
2, 402715, Note_off_c, 6, 54, 127
2, 402716, Note_on_c, 6, 54, 127
2, 402763, Note_on_c, 12, 71, 127
2, 402764, Note_off_c, 11, 70, 127
2, 402845, Note_off_c, 12, 71, 127
2, 402845, Note_on_c, 11, 70, 127
2, 402926, Note_on_c, 12, 71, 127
2, 402927, Note_off_c, 11, 70, 127
2, 402935, Note_off_c, 6, 54, 127
2, 402937, Note_on_c, 4, 52, 127
2, 403007, Note_on_c, 11, 70, 127
2, 403008, Note_off_c, 12, 71, 127
2, 403089, Note_off_c, 11, 70, 127
2, 403089, Note_on_c, 12, 71, 127
2, 403156, Note_off_c, 4, 52, 127
2, 403158, Note_on_c, 4, 52, 127
2, 403171, Note_off_c, 12, 71, 127
2, 403171, Note_on_c, 11, 70, 127
2, 403252, Note_on_c, 12, 71, 127
2, 403253, Note_off_c, 11, 70, 127
2, 403333, Note_on_c, 11, 70, 127
2, 403334, Note_off_c, 12, 71, 127
2, 403377, Note_off_c, 4, 52, 127
2, 403379, Note_on_c, 2, 50, 127
2, 403414, Note_on_c, 8, 68, 127
2, 403415, Note_off_c, 11, 70, 127
2, 403496, Note_off_c, 8, 68, 127
2, 403503, Note_on_c, 11, 70, 127
2, 403590, Note_off_c, 11, 70, 127
2, 403598, Note_off_c, 2, 50, 127
2, 403600, Note_on_c, 12, 71, 127
2, 403600, Note_on_c, 2, 50, 127
2, 403819, Note_off_c, 2, 50, 127
2, 403820, Note_on_c, 1, 49, 127
2, 403820, Note_on_c, 6, 66, 127
2, 403929, Note_off_c, 6, 66, 127
2, 403931, Note_on_c, 10, 69, 127
2, 404039, Note_off_c, 1, 49, 127
2, 404040, Note_off_c, 10, 69, 127
2, 404041, Note_on_c, 4, 52, 127
2, 404041, Note_on_c, 7, 67, 127
2, 404260, Note_off_c, 7, 67, 127
2, 404260, Note_off_c, 4, 52, 127
2, 404262, Note_on_c, 2, 50, 127
2, 404262, Note_on_c, 7, 67, 127
2, 404371, Note_off_c, 7, 67, 127
2, 404372, Note_on_c, 6, 66, 127
2, 404481, Note_off_c, 6, 66, 127
2, 404481, Note_off_c, 2, 50, 127
2, 404483, Note_on_c, 1, 49, 127
2, 404483, Note_on_c, 4, 64, 127
2, 404702, Note_off_c, 4, 64, 127
2, 404702, Note_off_c, 1, 49, 127
2, 404704, Note_on_c, 12, 47, 127
2, 404704, Note_on_c, 4, 64, 127
2, 404813, Note_off_c, 4, 64, 127
2, 404814, Note_on_c, 2, 62, 127
2, 404922, Note_off_c, 12, 71, 127
2, 404923, Note_off_c, 2, 62, 127
2, 404923, Note_off_c, 12, 47, 127
2, 404924, Note_on_c, 1, 49, 127
2, 404924, Note_on_c, 4, 64, 127
2, 405143, Note_off_c, 1, 49, 127
2, 405145, Note_on_c, 4, 76, 127
2, 405145, Note_on_c, 12, 47, 127
2, 405254, Note_off_c, 4, 76, 127
2, 405255, Note_off_c, 4, 64, 127
2, 405256, Note_on_c, 7, 79, 127
2, 405364, Note_off_c, 12, 47, 127
2, 405365, Note_off_c, 7, 79, 127
2, 405366, Note_on_c, 6, 78, 127
2, 405366, Note_on_c, 11, 46, 127
2, 405585, Note_off_c, 11, 46, 127
2, 405585, Note_off_c, 6, 78, 127
2, 405587, Note_on_c, 6, 78, 127
2, 405587, Note_on_c, 1, 49, 127
2, 405696, Note_off_c, 6, 78, 127
2, 405697, Note_on_c, 4, 76, 127
2, 405806, Note_off_c, 4, 76, 127
2, 405806, Note_off_c, 1, 49, 127
2, 405808, Note_on_c, 2, 74, 127
2, 405808, Note_on_c, 6, 42, 127
2, 405808, Note_on_c, 6, 66, 127
2, 406027, Note_off_c, 6, 42, 127
2, 406027, Note_off_c, 2, 74, 127
2, 406028, Note_on_c, 2, 74, 127
2, 406028, Note_on_c, 11, 46, 127
2, 406137, Note_off_c, 2, 74, 127
2, 406139, Note_on_c, 1, 73, 127
2, 406247, Note_off_c, 11, 46, 127
2, 406248, Note_off_c, 1, 73, 127
2, 406249, Note_on_c, 2, 74, 127
2, 406249, Note_on_c, 12, 47, 127
2, 406468, Note_off_c, 2, 74, 127
2, 406470, Note_on_c, 12, 71, 127
2, 406579, Note_off_c, 12, 71, 127
2, 406580, Note_on_c, 1, 73, 127
2, 406689, Note_off_c, 1, 73, 127
2, 406690, Note_off_c, 6, 66, 127
2, 406691, Note_on_c, 2, 74, 127
2, 406910, Note_off_c, 2, 74, 127
2, 406910, Note_off_c, 12, 47, 127
2, 406912, Note_on_c, 2, 74, 127
2, 406912, Note_on_c, 12, 47, 127
2, 407021, Note_off_c, 12, 47, 127
2, 407021, Note_off_c, 2, 74, 127
2, 407022, Note_on_c, 4, 76, 127
2, 407022, Note_on_c, 1, 49, 127
2, 407131, Note_off_c, 1, 49, 127
2, 407131, Note_off_c, 4, 76, 127
2, 407132, Note_on_c, 6, 78, 127
2, 407132, Note_on_c, 2, 50, 127
2, 407351, Note_off_c, 2, 50, 127
2, 407351, Note_off_c, 6, 78, 127
2, 407353, Note_on_c, 6, 78, 127
2, 407353, Note_on_c, 2, 50, 127
2, 407462, Note_off_c, 2, 50, 127
2, 407462, Note_off_c, 6, 78, 127
2, 407464, Note_on_c, 8, 80, 127
2, 407464, Note_on_c, 4, 52, 127
2, 407573, Note_off_c, 4, 52, 127
2, 407573, Note_off_c, 8, 80, 127
2, 407574, Note_on_c, 10, 81, 127
2, 407574, Note_on_c, 6, 54, 127
2, 407795, Note_on_c, 6, 66, 127
2, 407904, Note_off_c, 6, 66, 127
2, 407905, Note_off_c, 6, 54, 127
2, 407905, Note_on_c, 8, 68, 127
2, 408014, Note_off_c, 8, 68, 127
2, 408016, Note_on_c, 10, 69, 127
2, 408235, Note_off_c, 10, 69, 127
2, 408235, Note_off_c, 10, 81, 127
2, 408236, Note_on_c, 10, 81, 127
2, 408236, Note_on_c, 10, 69, 127
2, 408345, Note_off_c, 10, 69, 127
2, 408345, Note_off_c, 10, 81, 127
2, 408347, Note_on_c, 8, 80, 127
2, 408347, Note_on_c, 12, 71, 127
2, 408456, Note_off_c, 12, 71, 127
2, 408456, Note_off_c, 8, 80, 127
2, 408457, Note_on_c, 10, 81, 127
2, 408457, Note_on_c, 1, 73, 127
2, 408676, Note_off_c, 1, 73, 127
2, 408676, Note_off_c, 10, 81, 127
2, 408678, Note_on_c, 12, 83, 127
2, 408678, Note_on_c, 1, 73, 127
2, 408787, Note_off_c, 1, 73, 127
2, 408787, Note_off_c, 12, 83, 127
2, 408788, Note_on_c, 10, 81, 127
2, 408788, Note_on_c, 3, 75, 127
2, 408897, Note_off_c, 3, 75, 127
2, 408897, Note_off_c, 10, 81, 127
2, 408899, Note_on_c, 8, 80, 127
2, 408899, Note_on_c, 4, 76, 127
2, 409118, Note_off_c, 4, 76, 127
2, 409120, Note_on_c, 4, 52, 127
2, 409120, Note_on_c, 12, 71, 127
2, 409229, Note_off_c, 4, 52, 127
2, 409230, Note_on_c, 6, 54, 127
2, 409339, Note_off_c, 6, 54, 127
2, 409339, Note_off_c, 12, 71, 127
2, 409340, Note_on_c, 8, 56, 127
2, 409340, Note_on_c, 4, 76, 127
2, 409449, Note_off_c, 8, 56, 127
2, 409451, Note_on_c, 4, 52, 127
2, 409559, Note_off_c, 4, 76, 127
2, 409560, Note_off_c, 4, 52, 127
2, 409560, Note_off_c, 8, 80, 127
2, 409561, Note_on_c, 8, 80, 127
2, 409561, Note_on_c, 8, 56, 127
2, 409561, Note_on_c, 4, 76, 127
2, 409670, Note_off_c, 4, 76, 127
2, 409670, Note_off_c, 8, 56, 127
2, 409670, Note_off_c, 8, 80, 127
2, 409672, Note_on_c, 6, 78, 127
2, 409672, Note_on_c, 10, 57, 127
2, 409672, Note_on_c, 3, 75, 127
2, 409781, Note_off_c, 3, 75, 127
2, 409781, Note_off_c, 10, 57, 127
2, 409781, Note_off_c, 6, 78, 127
2, 409782, Note_on_c, 7, 79, 127
2, 409782, Note_on_c, 12, 59, 127
2, 409782, Note_on_c, 4, 76, 127
2, 409891, Note_off_c, 12, 59, 127
2, 409892, Note_on_c, 4, 52, 127
2, 410001, Note_off_c, 4, 52, 127
2, 410001, Note_off_c, 7, 79, 127
2, 410003, Note_on_c, 10, 81, 127
2, 410003, Note_on_c, 12, 59, 127
2, 410112, Note_off_c, 12, 59, 127
2, 410112, Note_off_c, 10, 81, 127
2, 410113, Note_on_c, 7, 79, 127
2, 410113, Note_on_c, 1, 61, 127
2, 410222, Note_off_c, 1, 61, 127
2, 410222, Note_off_c, 7, 79, 127
2, 410224, Note_on_c, 6, 78, 127
2, 410224, Note_on_c, 2, 62, 127
2, 410443, Note_off_c, 2, 62, 127
2, 410443, Note_off_c, 4, 76, 127
2, 410444, Note_on_c, 2, 50, 127
2, 410444, Note_on_c, 10, 69, 127
2, 410553, Note_off_c, 2, 50, 127
2, 410555, Note_on_c, 4, 52, 127
2, 410663, Note_off_c, 10, 69, 127
2, 410664, Note_off_c, 4, 52, 127
2, 410665, Note_on_c, 6, 54, 127
2, 410665, Note_on_c, 2, 74, 127
2, 410774, Note_off_c, 6, 54, 127
2, 410776, Note_on_c, 2, 50, 127
2, 410884, Note_off_c, 2, 74, 127
2, 410885, Note_off_c, 2, 50, 127
2, 410885, Note_off_c, 6, 78, 127
2, 410886, Note_on_c, 6, 78, 127
2, 410886, Note_on_c, 6, 54, 127
2, 410886, Note_on_c, 2, 74, 127
2, 410995, Note_off_c, 2, 74, 127
2, 410995, Note_off_c, 6, 54, 127
2, 410995, Note_off_c, 6, 78, 127
2, 410996, Note_on_c, 4, 76, 127
2, 410996, Note_on_c, 7, 55, 127
2, 410996, Note_on_c, 1, 73, 127
2, 411105, Note_off_c, 1, 73, 127
2, 411105, Note_off_c, 7, 55, 127
2, 411105, Note_off_c, 4, 76, 127
2, 411107, Note_on_c, 5, 77, 127
2, 411107, Note_on_c, 10, 57, 127
2, 411107, Note_on_c, 2, 74, 127
2, 411216, Note_off_c, 10, 57, 127
2, 411217, Note_on_c, 2, 50, 127
2, 411326, Note_off_c, 2, 50, 127
2, 411326, Note_off_c, 5, 77, 127
2, 411328, Note_on_c, 7, 79, 127
2, 411328, Note_on_c, 10, 57, 127
2, 411437, Note_off_c, 10, 57, 127
2, 411437, Note_off_c, 7, 79, 127
2, 411438, Note_on_c, 5, 77, 127
2, 411438, Note_on_c, 12, 59, 127
2, 411547, Note_off_c, 12, 59, 127
2, 411547, Note_off_c, 5, 77, 127
2, 411548, Note_on_c, 4, 76, 127
2, 411548, Note_on_c, 0, 60, 127
2, 411657, Note_off_c, 0, 60, 127
2, 411659, Note_on_c, 2, 62, 127
2, 411768, Note_off_c, 2, 62, 127
2, 411768, Note_off_c, 2, 74, 127
2, 411769, Note_on_c, 4, 64, 127
2, 411769, Note_on_c, 7, 67, 127
2, 411878, Note_off_c, 4, 64, 127
2, 411880, Note_on_c, 2, 62, 127
2, 411988, Note_off_c, 7, 67, 127
2, 411989, Note_off_c, 2, 62, 127
2, 411990, Note_on_c, 0, 60, 127
2, 411990, Note_on_c, 10, 69, 127
2, 412099, Note_off_c, 0, 60, 127
2, 412100, Note_on_c, 4, 64, 127
2, 412209, Note_off_c, 4, 64, 127
2, 412209, Note_off_c, 10, 69, 127
2, 412211, Note_on_c, 0, 60, 127
2, 412211, Note_on_c, 12, 71, 127
2, 412320, Note_off_c, 0, 60, 127
2, 412321, Note_on_c, 12, 59, 127
2, 412430, Note_off_c, 12, 59, 127
2, 412430, Note_off_c, 12, 71, 127
2, 412432, Note_on_c, 10, 57, 127
2, 412432, Note_on_c, 0, 72, 127
2, 412541, Note_off_c, 10, 57, 127
2, 412542, Note_on_c, 0, 60, 127
2, 412650, Note_off_c, 4, 76, 127
2, 412651, Note_off_c, 0, 60, 127
2, 412652, Note_on_c, 4, 76, 127
2, 412652, Note_on_c, 10, 57, 127
2, 412761, Note_off_c, 10, 57, 127
2, 412763, Note_on_c, 7, 55, 127
2, 412871, Note_off_c, 4, 76, 127
2, 412872, Note_off_c, 7, 55, 127
2, 412873, Note_on_c, 3, 75, 127
2, 412873, Note_on_c, 6, 54, 127
2, 412982, Note_off_c, 6, 54, 127
2, 412984, Note_on_c, 4, 64, 127
2, 413093, Note_off_c, 4, 64, 127
2, 413093, Note_off_c, 0, 72, 127
2, 413094, Note_on_c, 3, 63, 127
2, 413094, Note_on_c, 6, 66, 127
2, 413203, Note_off_c, 3, 63, 127
2, 413204, Note_on_c, 1, 61, 127
2, 413313, Note_off_c, 1, 61, 127
2, 413313, Note_off_c, 6, 66, 127
2, 413315, Note_on_c, 12, 59, 127
2, 413315, Note_on_c, 8, 68, 127
2, 413424, Note_off_c, 12, 59, 127
2, 413425, Note_on_c, 2, 62, 127
2, 413534, Note_off_c, 2, 62, 127
2, 413534, Note_off_c, 8, 68, 127
2, 413536, Note_on_c, 12, 59, 127
2, 413536, Note_on_c, 10, 69, 127
2, 413645, Note_off_c, 12, 59, 127
2, 413646, Note_on_c, 10, 57, 127
2, 413755, Note_off_c, 10, 57, 127
2, 413755, Note_off_c, 10, 69, 127
2, 413756, Note_on_c, 8, 56, 127
2, 413756, Note_on_c, 12, 71, 127
2, 413865, Note_off_c, 8, 56, 127
2, 413867, Note_on_c, 12, 59, 127
2, 413975, Note_off_c, 3, 75, 127
2, 413976, Note_off_c, 12, 59, 127
2, 413977, Note_on_c, 2, 74, 127
2, 413977, Note_on_c, 8, 56, 127
2, 414086, Note_off_c, 8, 56, 127
2, 414088, Note_on_c, 6, 54, 127
2, 414196, Note_off_c, 2, 74, 127
2, 414197, Note_off_c, 6, 54, 127
2, 414198, Note_on_c, 1, 73, 127
2, 414198, Note_on_c, 4, 52, 127
2, 414307, Note_off_c, 4, 52, 127
2, 414308, Note_on_c, 2, 62, 127
2, 414417, Note_off_c, 2, 62, 127
2, 414417, Note_off_c, 12, 71, 127
2, 414419, Note_on_c, 1, 61, 127
2, 414419, Note_on_c, 4, 64, 127
2, 414528, Note_off_c, 1, 61, 127
2, 414529, Note_on_c, 12, 59, 127
2, 414638, Note_off_c, 12, 59, 127
2, 414638, Note_off_c, 4, 64, 127
2, 414640, Note_on_c, 10, 57, 127
2, 414640, Note_on_c, 6, 66, 127
2, 414749, Note_off_c, 10, 57, 127
2, 414750, Note_on_c, 0, 60, 127
2, 414859, Note_off_c, 0, 60, 127
2, 414859, Note_off_c, 6, 66, 127
2, 414860, Note_on_c, 10, 57, 127
2, 414860, Note_on_c, 7, 67, 127
2, 414969, Note_off_c, 10, 57, 127
2, 414971, Note_on_c, 7, 55, 127
2, 415079, Note_off_c, 7, 67, 127
2, 415080, Note_off_c, 7, 55, 127
2, 415081, Note_on_c, 6, 54, 127
2, 415081, Note_on_c, 10, 69, 127
2, 415190, Note_off_c, 6, 54, 127
2, 415192, Note_on_c, 10, 57, 127
2, 415300, Note_off_c, 1, 73, 127
2, 415301, Note_off_c, 10, 57, 127
2, 415302, Note_on_c, 0, 72, 127
2, 415302, Note_on_c, 6, 54, 127
2, 415411, Note_off_c, 6, 54, 127
2, 415412, Note_on_c, 4, 52, 127
2, 415521, Note_off_c, 4, 52, 127
2, 415521, Note_off_c, 0, 72, 127
2, 415523, Note_on_c, 12, 71, 127
2, 415523, Note_on_c, 3, 51, 127
2, 415631, Note_off_c, 10, 69, 127
2, 415633, Note_on_c, 7, 67, 127
2, 415742, Note_off_c, 7, 67, 127
2, 415744, Note_on_c, 6, 66, 127
2, 415853, Note_off_c, 6, 66, 127
2, 415854, Note_on_c, 10, 69, 127
2, 415963, Note_off_c, 10, 69, 127
2, 415963, Note_off_c, 3, 51, 127
2, 415963, Note_off_c, 12, 71, 127
2, 415964, Note_on_c, 0, 72, 127
2, 415964, Note_on_c, 4, 52, 127
2, 415964, Note_on_c, 7, 67, 127
2, 416073, Note_off_c, 7, 67, 127
2, 416075, Note_on_c, 10, 69, 127
2, 416183, Note_off_c, 4, 52, 127
2, 416184, Note_off_c, 10, 69, 127
2, 416185, Note_on_c, 3, 51, 127
2, 416185, Note_on_c, 12, 71, 127
2, 416294, Note_off_c, 12, 71, 127
2, 416296, Note_on_c, 10, 69, 127
2, 416404, Note_off_c, 3, 51, 127
2, 416404, Note_off_c, 0, 72, 127
2, 416405, Note_off_c, 10, 69, 127
2, 416406, Note_on_c, 1, 73, 127
2, 416406, Note_on_c, 4, 52, 127
2, 416406, Note_on_c, 7, 67, 127
2, 416515, Note_off_c, 7, 67, 127
2, 416516, Note_on_c, 6, 66, 127
2, 416625, Note_off_c, 6, 66, 127
2, 416625, Note_off_c, 4, 52, 127
2, 416627, Note_on_c, 11, 46, 127
2, 416627, Note_on_c, 4, 64, 127
2, 416736, Note_off_c, 4, 64, 127
2, 416737, Note_on_c, 7, 67, 127
2, 416846, Note_off_c, 7, 67, 127
2, 416846, Note_off_c, 11, 46, 127
2, 416846, Note_off_c, 1, 73, 127
2, 416848, Note_on_c, 2, 74, 127
2, 416848, Note_on_c, 12, 47, 127
2, 416848, Note_on_c, 6, 66, 127
2, 416957, Note_off_c, 6, 66, 127
2, 416958, Note_on_c, 12, 71, 127
2, 417067, Note_off_c, 12, 71, 127
2, 417068, Note_on_c, 10, 69, 127
2, 417177, Note_off_c, 10, 69, 127
2, 417179, Note_on_c, 7, 67, 127
2, 417288, Note_off_c, 7, 67, 127
2, 417288, Note_off_c, 2, 74, 127
2, 417289, Note_on_c, 2, 74, 127
2, 417289, Note_on_c, 6, 66, 127
2, 417398, Note_off_c, 6, 66, 127
2, 417400, Note_on_c, 12, 71, 127
2, 417508, Note_off_c, 2, 74, 127
2, 417509, Note_off_c, 12, 71, 127
2, 417510, Note_on_c, 1, 73, 127
2, 417510, Note_on_c, 4, 64, 127
2, 417619, Note_off_c, 4, 64, 127
2, 417620, Note_on_c, 11, 70, 127
2, 417729, Note_off_c, 11, 70, 127
2, 417729, Note_off_c, 1, 73, 127
2, 417731, Note_on_c, 2, 74, 127
2, 417731, Note_on_c, 6, 66, 127
2, 417840, Note_off_c, 6, 66, 127
2, 417841, Note_on_c, 12, 71, 127
2, 417950, Note_off_c, 12, 71, 127
2, 417952, Note_on_c, 6, 66, 127
2, 418061, Note_off_c, 6, 66, 127
2, 418062, Note_on_c, 4, 64, 127
2, 418171, Note_off_c, 4, 64, 127
2, 418171, Note_off_c, 2, 74, 127
2, 418171, Note_off_c, 12, 47, 127
2, 418172, Note_on_c, 6, 66, 127
2, 418172, Note_on_c, 12, 47, 127
2, 418172, Note_on_c, 12, 59, 127
2, 418172, Note_on_c, 2, 62, 127
2, 418281, Note_off_c, 2, 62, 127
2, 418283, Note_on_c, 4, 64, 127
2, 418392, Note_off_c, 4, 64, 127
2, 418393, Note_on_c, 2, 62, 127
2, 418502, Note_off_c, 2, 62, 127
2, 418504, Note_on_c, 1, 61, 127
2, 418560, Note_off_c, 12, 59, 127
2, 418612, Note_off_c, 6, 66, 127
2, 418613, Note_off_c, 1, 61, 127
2, 418614, Note_on_c, 7, 67, 127
2, 418614, Note_on_c, 12, 59, 127
2, 418724, Note_on_c, 2, 62, 127
2, 418833, Note_off_c, 2, 62, 127
2, 418835, Note_on_c, 1, 61, 127
2, 418919, Note_off_c, 12, 59, 127
2, 418944, Note_off_c, 1, 61, 127
2, 418945, Note_on_c, 12, 59, 127
2, 419054, Note_off_c, 7, 67, 127
2, 419056, Note_on_c, 8, 68, 127
2, 419056, Note_on_c, 4, 64, 127
2, 419165, Note_off_c, 4, 64, 127
2, 419166, Note_on_c, 5, 65, 127
2, 419275, Note_off_c, 5, 65, 127
2, 419276, Note_on_c, 4, 64, 127
2, 419385, Note_off_c, 4, 64, 127
2, 419387, Note_on_c, 2, 62, 127
2, 419495, Note_off_c, 12, 59, 127
2, 419495, Note_off_c, 12, 47, 127
2, 419496, Note_off_c, 2, 62, 127
2, 419496, Note_off_c, 8, 68, 127
2, 419497, Note_on_c, 10, 69, 127
2, 419497, Note_on_c, 12, 59, 127
2, 419497, Note_on_c, 12, 47, 127
2, 419497, Note_on_c, 1, 61, 127
2, 419606, Note_off_c, 1, 61, 127
2, 419608, Note_on_c, 4, 64, 127
2, 419717, Note_off_c, 4, 64, 127
2, 419718, Note_on_c, 2, 62, 127
2, 419827, Note_off_c, 2, 62, 127
2, 419828, Note_on_c, 1, 61, 127
2, 419937, Note_off_c, 1, 61, 127
2, 419937, Note_off_c, 10, 69, 127
2, 419939, Note_on_c, 10, 69, 127
2, 419939, Note_on_c, 6, 66, 127
2, 420048, Note_off_c, 6, 66, 127
2, 420049, Note_on_c, 7, 67, 127
2, 420158, Note_off_c, 7, 67, 127
2, 420158, Note_off_c, 10, 69, 127
2, 420160, Note_on_c, 8, 68, 127
2, 420160, Note_on_c, 6, 66, 127
2, 420269, Note_off_c, 6, 66, 127
2, 420270, Note_on_c, 4, 64, 127
2, 420379, Note_off_c, 4, 64, 127
2, 420379, Note_off_c, 8, 68, 127
2, 420380, Note_on_c, 10, 69, 127
2, 420380, Note_on_c, 3, 63, 127
2, 420489, Note_off_c, 3, 63, 127
2, 420491, Note_on_c, 4, 64, 127
2, 420599, Note_off_c, 10, 69, 127
2, 420600, Note_off_c, 4, 64, 127
2, 420601, Note_on_c, 12, 71, 127
2, 420601, Note_on_c, 3, 63, 127
2, 420710, Note_off_c, 3, 63, 127
2, 420712, Note_on_c, 1, 61, 127
2, 420820, Note_off_c, 12, 71, 127
2, 420820, Note_off_c, 12, 47, 127
2, 420820, Note_off_c, 12, 59, 127
2, 420821, Note_off_c, 1, 61, 127
2, 420822, Note_on_c, 10, 69, 127
2, 420822, Note_on_c, 0, 72, 127
2, 420822, Note_on_c, 12, 59, 127
2, 420822, Note_on_c, 3, 51, 127
2, 420822, Note_on_c, 6, 54, 127
2, 420822, Note_on_c, 12, 47, 127
2, 421041, Note_off_c, 12, 47, 127
2, 421041, Note_off_c, 6, 54, 127
2, 421041, Note_off_c, 3, 51, 127
2, 421041, Note_off_c, 12, 59, 127
2, 421043, Note_on_c, 12, 59, 127
2, 421153, Note_on_c, 10, 57, 127
2, 421262, Note_off_c, 10, 57, 127
2, 421262, Note_off_c, 12, 59, 127
2, 421262, Note_off_c, 0, 72, 127
2, 421262, Note_off_c, 10, 69, 127
2, 421264, Note_on_c, 7, 67, 127
2, 421264, Note_on_c, 12, 71, 127
2, 421264, Note_on_c, 7, 55, 127
2, 421264, Note_on_c, 4, 64, 127
2, 421483, Note_off_c, 7, 55, 127
2, 421484, Note_on_c, 7, 55, 127
2, 421593, Note_off_c, 7, 55, 127
2, 421595, Note_on_c, 6, 54, 127
2, 421704, Note_off_c, 6, 54, 127
2, 421704, Note_off_c, 4, 64, 127
2, 421704, Note_off_c, 12, 71, 127
2, 421704, Note_off_c, 7, 67, 127
2, 421705, Note_on_c, 10, 69, 127
2, 421705, Note_on_c, 6, 66, 127
2, 421705, Note_on_c, 4, 52, 127
2, 421705, Note_on_c, 12, 59, 127
2, 421924, Note_off_c, 4, 52, 127
2, 421926, Note_on_c, 4, 52, 127
2, 422035, Note_off_c, 4, 52, 127
2, 422036, Note_on_c, 3, 51, 127
2, 422145, Note_off_c, 3, 51, 127
2, 422145, Note_off_c, 12, 59, 127
2, 422145, Note_off_c, 6, 66, 127
2, 422145, Note_off_c, 10, 69, 127
2, 422147, Note_on_c, 7, 67, 127
2, 422147, Note_on_c, 4, 52, 127
2, 422147, Note_on_c, 4, 64, 127
2, 422366, Note_off_c, 4, 52, 127
2, 422368, Note_on_c, 4, 52, 127
2, 422477, Note_off_c, 4, 52, 127
2, 422478, Note_on_c, 2, 50, 127
2, 422587, Note_off_c, 2, 50, 127
2, 422587, Note_off_c, 7, 67, 127
2, 422588, Note_on_c, 10, 69, 127
2, 422588, Note_on_c, 0, 48, 127
2, 422807, Note_off_c, 0, 48, 127
2, 422807, Note_off_c, 10, 69, 127
2, 422809, Note_on_c, 7, 67, 127
2, 422809, Note_on_c, 0, 48, 127
2, 422918, Note_off_c, 0, 48, 127
2, 422920, Note_on_c, 12, 47, 127
2, 423028, Note_off_c, 7, 67, 127
2, 423029, Note_off_c, 12, 47, 127
2, 423030, Note_on_c, 6, 66, 127
2, 423030, Note_on_c, 10, 45, 127
2, 423220, Note_off_c, 4, 64, 127
2, 423249, Note_off_c, 10, 45, 127
2, 423249, Note_off_c, 6, 66, 127
2, 423251, Note_on_c, 4, 64, 127
2, 423251, Note_on_c, 10, 45, 127
2, 423360, Note_off_c, 10, 45, 127
2, 423361, Note_on_c, 7, 43, 127
2, 423470, Note_off_c, 7, 43, 127
2, 423472, Note_on_c, 6, 66, 127
2, 423472, Note_on_c, 10, 45, 127
2, 423581, Note_off_c, 6, 66, 127
2, 423582, Note_on_c, 7, 67, 127
2, 423691, Note_off_c, 7, 67, 127
2, 423692, Note_on_c, 10, 69, 127
2, 423801, Note_off_c, 10, 69, 127
2, 423803, Note_on_c, 12, 71, 127
2, 423912, Note_off_c, 12, 71, 127
2, 423913, Note_on_c, 0, 72, 127
2, 424022, Note_off_c, 0, 72, 127
2, 424022, Note_off_c, 10, 45, 127
2, 424024, Note_on_c, 10, 69, 127
2, 424024, Note_on_c, 6, 42, 127
2, 424133, Note_off_c, 6, 42, 127
2, 424133, Note_off_c, 10, 69, 127
2, 424134, Note_on_c, 12, 71, 127
2, 424134, Note_on_c, 7, 43, 127
2, 424243, Note_off_c, 7, 43, 127
2, 424243, Note_off_c, 12, 71, 127
2, 424244, Note_on_c, 0, 72, 127
2, 424244, Note_on_c, 10, 45, 127
2, 424353, Note_off_c, 10, 45, 127
2, 424353, Note_off_c, 4, 64, 127
2, 424355, Note_on_c, 12, 47, 127
2, 424355, Note_on_c, 3, 63, 127
2, 424463, Note_off_c, 0, 72, 127
2, 424465, Note_on_c, 0, 72, 127
2, 424574, Note_off_c, 0, 72, 127
2, 424576, Note_on_c, 12, 71, 127
2, 424685, Note_off_c, 12, 71, 127
2, 424686, Note_on_c, 10, 69, 127
2, 424792, Note_off_c, 3, 63, 127
2, 424795, Note_off_c, 10, 69, 127
2, 424795, Note_off_c, 12, 47, 127
2, 424796, Note_on_c, 7, 67, 127
2, 424796, Note_on_c, 4, 40, 127
2, 424907, Note_on_c, 4, 64, 127
2, 425016, Note_off_c, 4, 64, 127
2, 425017, Note_on_c, 12, 59, 127
2, 425126, Note_off_c, 12, 59, 127
2, 425128, Note_on_c, 7, 55, 127
2, 425237, Note_off_c, 7, 55, 127
2, 425238, Note_on_c, 4, 52, 127
2, 425346, Note_off_c, 4, 40, 127
2, 425348, Note_on_c, 12, 59, 127
2, 425457, Note_off_c, 12, 59, 127
2, 425459, Note_on_c, 7, 55, 127
2, 425568, Note_off_c, 7, 55, 127
2, 425569, Note_off_c, 4, 52, 127
2, 425569, Note_on_c, 4, 52, 127
2, 425678, Note_off_c, 7, 67, 127
2, 425680, Note_on_c, 1, 49, 127
2, 425790, Note_on_c, 10, 57, 127
2, 425899, Note_off_c, 10, 57, 127
2, 425900, Note_on_c, 4, 64, 127
2, 426006, Note_off_c, 4, 52, 127
2, 426009, Note_off_c, 4, 64, 127
2, 426011, Note_on_c, 7, 67, 127
2, 426120, Note_off_c, 7, 67, 127
2, 426120, Note_off_c, 1, 49, 127
2, 426121, Note_on_c, 2, 50, 127
2, 426121, Note_on_c, 6, 66, 127
2, 426232, Note_on_c, 2, 62, 127
2, 426341, Note_off_c, 2, 62, 127
2, 426342, Note_on_c, 10, 57, 127
2, 426451, Note_off_c, 10, 57, 127
2, 426452, Note_on_c, 6, 54, 127
2, 426528, Note_off_c, 2, 50, 127
2, 426561, Note_off_c, 6, 54, 127
2, 426563, Note_on_c, 2, 50, 127
2, 426671, Note_off_c, 6, 66, 127
2, 426673, Note_on_c, 10, 57, 127
2, 426782, Note_off_c, 10, 57, 127
2, 426784, Note_on_c, 6, 54, 127
2, 426852, Note_off_c, 2, 50, 127
2, 426893, Note_off_c, 6, 54, 127
2, 426894, Note_on_c, 2, 50, 127
2, 427004, Note_on_c, 12, 47, 127
2, 427113, Note_off_c, 2, 50, 127
2, 427115, Note_on_c, 7, 55, 127
2, 427224, Note_off_c, 7, 55, 127
2, 427225, Note_on_c, 2, 62, 127
2, 427334, Note_off_c, 2, 62, 127
2, 427336, Note_on_c, 5, 65, 127
2, 427444, Note_off_c, 12, 47, 127
2, 427445, Note_off_c, 5, 65, 127
2, 427446, Note_on_c, 4, 64, 127
2, 427446, Note_on_c, 0, 48, 127
2, 427555, Note_off_c, 4, 64, 127
2, 427556, Note_on_c, 0, 60, 127
2, 427665, Note_off_c, 0, 60, 127
2, 427667, Note_on_c, 4, 64, 127
2, 427776, Note_off_c, 4, 64, 127
2, 427777, Note_on_c, 7, 67, 127
2, 427886, Note_off_c, 7, 67, 127
2, 427888, Note_on_c, 0, 72, 127
2, 427993, Note_off_c, 0, 48, 127
2, 427998, Note_on_c, 4, 64, 127
2, 428107, Note_off_c, 4, 64, 127
2, 428108, Note_on_c, 0, 60, 127
2, 428217, Note_off_c, 0, 60, 127
2, 428219, Note_on_c, 10, 57, 127
2, 428328, Note_off_c, 10, 57, 127
2, 428329, Note_on_c, 6, 54, 127
2, 428438, Note_off_c, 0, 72, 127
2, 428440, Note_on_c, 2, 62, 127
2, 428548, Note_off_c, 6, 54, 127
2, 428549, Note_off_c, 2, 62, 127
2, 428550, Note_on_c, 10, 69, 127
2, 428550, Note_on_c, 2, 50, 127
2, 428659, Note_off_c, 10, 69, 127
2, 428660, Note_on_c, 0, 72, 127
2, 428769, Note_off_c, 0, 72, 127
2, 428769, Note_off_c, 2, 50, 127
2, 428771, Note_on_c, 12, 71, 127
2, 428771, Note_on_c, 7, 55, 127
2, 428880, Note_off_c, 12, 71, 127
2, 428881, Note_on_c, 2, 62, 127
2, 428990, Note_off_c, 2, 62, 127
2, 428992, Note_on_c, 7, 67, 127
2, 429101, Note_off_c, 7, 67, 127
2, 429102, Note_on_c, 12, 71, 127
2, 429211, Note_off_c, 12, 71, 127
2, 429212, Note_on_c, 2, 74, 127
2, 429321, Note_off_c, 7, 55, 127
2, 429323, Note_on_c, 5, 65, 127
2, 429432, Note_off_c, 5, 65, 127
2, 429433, Note_on_c, 2, 62, 127
2, 429542, Note_off_c, 2, 62, 127
2, 429544, Note_on_c, 12, 59, 127
2, 429653, Note_off_c, 12, 59, 127
2, 429654, Note_on_c, 8, 56, 127
2, 429762, Note_off_c, 2, 74, 127
2, 429764, Note_on_c, 4, 64, 127
2, 429873, Note_off_c, 4, 64, 127
2, 429873, Note_off_c, 8, 56, 127
2, 429875, Note_on_c, 12, 71, 127
2, 429875, Note_on_c, 4, 52, 127
2, 429984, Note_off_c, 12, 71, 127
2, 429985, Note_on_c, 2, 74, 127
2, 430094, Note_off_c, 2, 74, 127
2, 430094, Note_off_c, 4, 52, 127
2, 430096, Note_on_c, 2, 74, 127
2, 430096, Note_on_c, 10, 57, 127
2, 430206, Note_on_c, 10, 69, 127
2, 430240, Note_off_c, 2, 74, 127
2, 430240, Note_on_c, 0, 72, 127
2, 430315, Note_off_c, 10, 69, 127
2, 430316, Note_on_c, 7, 67, 127
2, 430336, Note_off_c, 0, 72, 127
2, 430339, Note_on_c, 12, 71, 127
2, 430425, Note_off_c, 7, 67, 127
2, 430427, Note_on_c, 5, 65, 127
2, 430435, Note_off_c, 12, 71, 127
2, 430438, Note_on_c, 0, 72, 127
2, 430534, Note_off_c, 0, 72, 127
2, 430536, Note_off_c, 5, 65, 127
2, 430537, Note_on_c, 2, 74, 127
2, 430537, Note_on_c, 4, 64, 127
2, 430609, Note_off_c, 2, 74, 127
2, 430611, Note_on_c, 0, 72, 127
2, 430646, Note_off_c, 4, 64, 127
2, 430648, Note_on_c, 2, 62, 127
2, 430683, Note_off_c, 0, 72, 127
2, 430684, Note_on_c, 2, 74, 127
2, 430756, Note_off_c, 2, 74, 127
2, 430757, Note_off_c, 2, 62, 127
2, 430758, Note_on_c, 0, 72, 127
2, 430758, Note_on_c, 0, 60, 127
2, 430830, Note_off_c, 0, 72, 127
2, 430832, Note_on_c, 2, 74, 127
2, 430867, Note_off_c, 0, 60, 127
2, 430868, Note_on_c, 12, 59, 127
2, 430904, Note_off_c, 2, 74, 127
2, 430905, Note_on_c, 0, 72, 127
2, 430977, Note_off_c, 0, 72, 127
2, 430977, Note_off_c, 12, 59, 127
2, 430978, Note_off_c, 10, 57, 127
2, 430979, Note_on_c, 2, 74, 127
2, 430979, Note_on_c, 10, 57, 127
2, 431051, Note_off_c, 2, 74, 127
2, 431052, Note_on_c, 0, 72, 127
2, 431088, Note_off_c, 10, 57, 127
2, 431089, Note_on_c, 0, 60, 127
2, 431124, Note_off_c, 0, 72, 127
2, 431126, Note_on_c, 2, 74, 127
2, 431198, Note_off_c, 2, 74, 127
2, 431198, Note_off_c, 0, 60, 127
2, 431200, Note_on_c, 0, 72, 127
2, 431200, Note_on_c, 7, 55, 127
2, 431272, Note_off_c, 0, 72, 127
2, 431273, Note_on_c, 2, 74, 127
2, 431309, Note_off_c, 7, 55, 127
2, 431310, Note_on_c, 0, 60, 127
2, 431345, Note_off_c, 2, 74, 127
2, 431347, Note_on_c, 0, 72, 127
2, 431419, Note_off_c, 0, 72, 127
2, 431419, Note_off_c, 0, 60, 127
2, 431420, Note_on_c, 2, 74, 127
2, 431420, Note_on_c, 6, 54, 127
2, 431492, Note_off_c, 2, 74, 127
2, 431494, Note_on_c, 0, 72, 127
2, 431529, Note_off_c, 6, 54, 127
2, 431531, Note_on_c, 10, 57, 127
2, 431566, Note_off_c, 0, 72, 127
2, 431568, Note_on_c, 2, 74, 127
2, 431640, Note_off_c, 2, 74, 127
2, 431640, Note_off_c, 10, 57, 127
2, 431641, Note_on_c, 0, 72, 127
2, 431641, Note_on_c, 11, 58, 127
2, 431713, Note_off_c, 0, 72, 127
2, 431715, Note_on_c, 2, 74, 127
2, 431750, Note_off_c, 11, 58, 127
2, 431752, Note_on_c, 2, 62, 127
2, 431787, Note_off_c, 2, 74, 127
2, 431788, Note_on_c, 0, 72, 127
2, 431860, Note_off_c, 0, 72, 127
2, 431861, Note_off_c, 2, 62, 127
2, 431862, Note_on_c, 2, 74, 127
2, 431862, Note_on_c, 0, 60, 127
2, 431934, Note_off_c, 2, 74, 127
2, 431936, Note_on_c, 0, 72, 127
2, 431971, Note_off_c, 0, 60, 127
2, 431972, Note_on_c, 11, 58, 127
2, 432008, Note_off_c, 0, 72, 127
2, 432009, Note_on_c, 2, 74, 127
2, 432081, Note_off_c, 2, 74, 127
2, 432081, Note_off_c, 11, 58, 127
2, 432083, Note_on_c, 0, 72, 127
2, 432083, Note_on_c, 10, 57, 127
2, 432155, Note_off_c, 0, 72, 127
2, 432156, Note_on_c, 2, 74, 127
2, 432192, Note_off_c, 10, 57, 127
2, 432193, Note_on_c, 7, 55, 127
2, 432228, Note_off_c, 2, 74, 127
2, 432230, Note_on_c, 0, 72, 127
2, 432302, Note_off_c, 0, 72, 127
2, 432302, Note_off_c, 7, 55, 127
2, 432304, Note_on_c, 2, 74, 127
2, 432304, Note_on_c, 6, 54, 127
2, 432376, Note_off_c, 2, 74, 127
2, 432377, Note_on_c, 0, 72, 127
2, 432413, Note_off_c, 6, 54, 127
2, 432414, Note_on_c, 10, 57, 127
2, 432449, Note_off_c, 0, 72, 127
2, 432451, Note_on_c, 2, 74, 127
2, 432523, Note_off_c, 2, 74, 127
2, 432523, Note_off_c, 10, 57, 127
2, 432524, Note_on_c, 0, 72, 127
2, 432524, Note_on_c, 4, 52, 127
2, 432633, Note_off_c, 4, 52, 127
2, 432635, Note_on_c, 10, 57, 127
2, 432744, Note_off_c, 10, 57, 127
2, 432745, Note_on_c, 2, 50, 127
2, 432854, Note_off_c, 2, 50, 127
2, 432855, Note_off_c, 0, 72, 127
2, 432856, Note_on_c, 10, 69, 127
2, 432856, Note_on_c, 6, 54, 127
2, 432965, Note_off_c, 6, 54, 127
2, 432965, Note_off_c, 10, 69, 127
2, 432966, Note_on_c, 11, 70, 127
2, 432966, Note_on_c, 7, 55, 127
2, 433075, Note_off_c, 7, 55, 127
2, 433075, Note_off_c, 11, 70, 127
2, 433076, Note_on_c, 2, 74, 127
2, 433076, Note_on_c, 11, 58, 127
2, 433185, Note_off_c, 11, 58, 127
2, 433185, Note_off_c, 2, 74, 127
2, 433187, Note_on_c, 0, 72, 127
2, 433187, Note_on_c, 10, 57, 127
2, 433296, Note_off_c, 10, 57, 127
2, 433296, Note_off_c, 0, 72, 127
2, 433297, Note_on_c, 11, 70, 127
2, 433297, Note_on_c, 7, 55, 127
2, 433406, Note_off_c, 7, 55, 127
2, 433406, Note_off_c, 11, 70, 127
2, 433408, Note_on_c, 10, 69, 127
2, 433408, Note_on_c, 6, 54, 127
2, 433517, Note_off_c, 6, 54, 127
2, 433517, Note_off_c, 10, 69, 127
2, 433518, Note_on_c, 7, 67, 127
2, 433518, Note_on_c, 4, 52, 127
2, 433627, Note_off_c, 4, 52, 127
2, 433627, Note_off_c, 7, 67, 127
2, 433628, Note_on_c, 6, 66, 127
2, 433628, Note_on_c, 2, 50, 127
2, 433737, Note_off_c, 2, 50, 127
2, 433737, Note_off_c, 6, 66, 127
2, 433739, Note_on_c, 10, 69, 127
2, 433739, Note_on_c, 6, 54, 127
2, 433848, Note_off_c, 6, 54, 127
2, 433848, Note_off_c, 10, 69, 127
2, 433849, Note_on_c, 3, 63, 127
2, 433849, Note_on_c, 0, 48, 127
2, 433958, Note_off_c, 0, 48, 127
2, 433958, Note_off_c, 3, 63, 127
2, 433960, Note_on_c, 10, 69, 127
2, 433960, Note_on_c, 6, 54, 127
2, 434069, Note_off_c, 6, 54, 127
2, 434069, Note_off_c, 10, 69, 127
2, 434070, Note_on_c, 2, 62, 127
2, 434070, Note_on_c, 11, 46, 127
2, 434179, Note_off_c, 11, 46, 127
2, 434179, Note_off_c, 2, 62, 127
2, 434180, Note_on_c, 6, 66, 127
2, 434180, Note_on_c, 2, 50, 127
2, 434289, Note_off_c, 2, 50, 127
2, 434289, Note_off_c, 6, 66, 127
2, 434291, Note_on_c, 7, 67, 127
2, 434291, Note_on_c, 4, 52, 127
2, 434400, Note_off_c, 4, 52, 127
2, 434400, Note_off_c, 7, 67, 127
2, 434401, Note_on_c, 11, 70, 127
2, 434401, Note_on_c, 7, 55, 127
2, 434510, Note_off_c, 7, 55, 127
2, 434510, Note_off_c, 11, 70, 127
2, 434512, Note_on_c, 4, 64, 127
2, 434512, Note_on_c, 0, 48, 127
2, 434621, Note_off_c, 0, 48, 127
2, 434621, Note_off_c, 4, 64, 127
2, 434622, Note_on_c, 7, 67, 127
2, 434622, Note_on_c, 4, 52, 127
2, 434731, Note_off_c, 4, 52, 127
2, 434731, Note_off_c, 7, 67, 127
2, 434732, Note_on_c, 10, 69, 127
2, 434732, Note_on_c, 6, 54, 127
2, 434841, Note_off_c, 6, 54, 127
2, 434841, Note_off_c, 10, 69, 127
2, 434843, Note_on_c, 0, 72, 127
2, 434843, Note_on_c, 10, 57, 127
2, 434952, Note_off_c, 10, 57, 127
2, 434952, Note_off_c, 0, 72, 127
2, 434953, Note_on_c, 6, 66, 127
2, 434953, Note_on_c, 2, 50, 127
2, 435062, Note_off_c, 2, 50, 127
2, 435062, Note_off_c, 6, 66, 127
2, 435064, Note_on_c, 10, 69, 127
2, 435064, Note_on_c, 6, 54, 127
2, 435173, Note_off_c, 6, 54, 127
2, 435173, Note_off_c, 10, 69, 127
2, 435174, Note_on_c, 11, 70, 127
2, 435174, Note_on_c, 7, 55, 127
2, 435283, Note_off_c, 7, 55, 127
2, 435283, Note_off_c, 11, 70, 127
2, 435284, Note_on_c, 2, 74, 127
2, 435284, Note_on_c, 11, 58, 127
2, 435393, Note_off_c, 11, 58, 127
2, 435393, Note_off_c, 2, 74, 127
2, 435395, Note_on_c, 7, 67, 127
2, 435395, Note_on_c, 4, 52, 127
2, 435504, Note_off_c, 4, 52, 127
2, 435504, Note_off_c, 7, 67, 127
2, 435505, Note_on_c, 11, 70, 127
2, 435505, Note_on_c, 7, 55, 127
2, 435614, Note_off_c, 7, 55, 127
2, 435614, Note_off_c, 11, 70, 127
2, 435616, Note_on_c, 0, 72, 127
2, 435616, Note_on_c, 10, 57, 127
2, 435725, Note_off_c, 10, 57, 127
2, 435725, Note_off_c, 0, 72, 127
2, 435726, Note_on_c, 2, 74, 127
2, 435726, Note_on_c, 11, 58, 127
2, 435835, Note_off_c, 11, 58, 127
2, 435835, Note_off_c, 2, 74, 127
2, 435836, Note_on_c, 10, 69, 127
2, 435836, Note_on_c, 6, 54, 127
2, 435945, Note_off_c, 6, 54, 127
2, 435945, Note_off_c, 10, 69, 127
2, 435947, Note_on_c, 0, 72, 127
2, 435947, Note_on_c, 10, 57, 127
2, 436056, Note_off_c, 10, 57, 127
2, 436056, Note_off_c, 0, 72, 127
2, 436057, Note_on_c, 2, 74, 127
2, 436057, Note_on_c, 11, 58, 127
2, 436166, Note_off_c, 11, 58, 127
2, 436166, Note_off_c, 2, 74, 127
2, 436168, Note_on_c, 3, 75, 127
2, 436168, Note_on_c, 0, 60, 127
2, 436277, Note_off_c, 0, 60, 127
2, 436277, Note_off_c, 3, 75, 127
2, 436278, Note_on_c, 2, 74, 127
2, 436278, Note_on_c, 11, 58, 127
2, 436387, Note_off_c, 11, 58, 127
2, 436387, Note_off_c, 2, 74, 127
2, 436388, Note_on_c, 0, 72, 127
2, 436388, Note_on_c, 10, 57, 127
2, 436497, Note_off_c, 10, 57, 127
2, 436497, Note_off_c, 0, 72, 127
2, 436499, Note_on_c, 11, 70, 127
2, 436499, Note_on_c, 7, 55, 127
2, 436608, Note_off_c, 7, 55, 127
2, 436608, Note_off_c, 11, 70, 127
2, 436609, Note_on_c, 10, 69, 127
2, 436609, Note_on_c, 6, 54, 127
2, 436718, Note_off_c, 6, 54, 127
2, 436718, Note_off_c, 10, 69, 127
2, 436720, Note_on_c, 11, 70, 127
2, 436720, Note_on_c, 7, 55, 127
2, 436829, Note_off_c, 11, 70, 127
2, 436830, Note_on_c, 2, 74, 127
2, 436939, Note_off_c, 2, 74, 127
2, 436939, Note_off_c, 7, 55, 127
2, 436940, Note_on_c, 7, 79, 127
2, 436940, Note_on_c, 2, 50, 127
2, 437049, Note_off_c, 7, 79, 127
2, 437051, Note_on_c, 6, 78, 127
2, 437159, Note_off_c, 2, 50, 127
2, 437160, Note_off_c, 6, 78, 127
2, 437161, Note_on_c, 7, 79, 127
2, 437161, Note_on_c, 3, 51, 127
2, 437270, Note_off_c, 7, 79, 127
2, 437272, Note_on_c, 0, 72, 127
2, 437380, Note_off_c, 3, 51, 127
2, 437381, Note_off_c, 0, 72, 127
2, 437382, Note_on_c, 2, 74, 127
2, 437382, Note_on_c, 0, 48, 127
2, 437491, Note_off_c, 2, 74, 127
2, 437492, Note_on_c, 3, 75, 127
2, 437601, Note_off_c, 3, 75, 127
2, 437601, Note_off_c, 0, 48, 127
2, 437603, Note_on_c, 6, 66, 127
2, 437603, Note_on_c, 2, 50, 127
2, 437712, Note_off_c, 6, 66, 127
2, 437713, Note_on_c, 3, 75, 127
2, 437822, Note_off_c, 3, 75, 127
2, 437824, Note_on_c, 2, 74, 127
2, 437824, Note_on_c, 2, 38, 127
2, 437933, Note_off_c, 2, 74, 127
2, 437934, Note_on_c, 0, 72, 127
2, 438043, Note_off_c, 0, 72, 127
2, 438043, Note_off_c, 2, 38, 127
2, 438043, Note_off_c, 2, 50, 127
2, 438044, Note_on_c, 11, 70, 127
2, 438044, Note_on_c, 7, 43, 127
2, 438044, Note_on_c, 7, 67, 127
2, 438153, Note_off_c, 11, 70, 127
2, 438155, Note_on_c, 2, 74, 127
2, 438264, Note_off_c, 2, 74, 127
2, 438265, Note_on_c, 7, 79, 127
2, 438374, Note_off_c, 7, 67, 127
2, 438376, Note_on_c, 10, 69, 127
2, 438485, Note_off_c, 10, 69, 127
2, 438486, Note_on_c, 11, 70, 127
2, 438595, Note_off_c, 7, 79, 127
2, 438596, Note_on_c, 0, 72, 127
2, 438705, Note_off_c, 0, 72, 127
2, 438707, Note_on_c, 2, 74, 127
2, 438816, Note_off_c, 2, 74, 127
2, 438817, Note_on_c, 3, 75, 127
2, 438926, Note_off_c, 3, 75, 127
2, 438926, Note_off_c, 11, 70, 127
2, 438928, Note_on_c, 5, 77, 127
2, 438928, Note_on_c, 12, 71, 127
2, 439037, Note_off_c, 5, 77, 127
2, 439038, Note_on_c, 8, 80, 127
2, 439147, Note_off_c, 8, 80, 127
2, 439148, Note_on_c, 7, 79, 127
2, 439257, Note_off_c, 7, 79, 127
2, 439259, Note_on_c, 5, 77, 127
2, 439367, Note_off_c, 7, 43, 127
2, 439368, Note_off_c, 5, 77, 127
2, 439368, Note_off_c, 12, 71, 127
2, 439369, Note_on_c, 3, 75, 127
2, 439369, Note_on_c, 7, 43, 127
2, 439369, Note_on_c, 0, 72, 127
2, 439588, Note_off_c, 3, 75, 127
2, 439590, Note_on_c, 7, 79, 127
2, 439699, Note_off_c, 7, 79, 127
2, 439700, Note_on_c, 5, 77, 127
2, 439809, Note_off_c, 5, 77, 127
2, 439809, Note_off_c, 0, 72, 127
2, 439811, Note_on_c, 3, 75, 127
2, 439811, Note_on_c, 0, 72, 127
2, 440030, Note_off_c, 0, 72, 127
2, 440030, Note_off_c, 3, 75, 127
2, 440032, Note_on_c, 3, 75, 127
2, 440032, Note_on_c, 12, 71, 127
2, 440141, Note_off_c, 3, 75, 127
2, 440142, Note_on_c, 2, 74, 127
2, 440251, Note_off_c, 2, 74, 127
2, 440251, Note_off_c, 12, 71, 127
2, 440252, Note_on_c, 3, 75, 127
2, 440252, Note_on_c, 0, 72, 127
2, 440361, Note_off_c, 0, 72, 127
2, 440363, Note_on_c, 8, 68, 127
2, 440472, Note_off_c, 8, 68, 127
2, 440473, Note_on_c, 7, 67, 127
2, 440582, Note_off_c, 7, 67, 127
2, 440584, Note_on_c, 5, 65, 127
2, 440692, Note_off_c, 3, 75, 127
2, 440692, Note_off_c, 7, 43, 127
2, 440693, Note_off_c, 5, 65, 127
2, 440694, Note_on_c, 3, 63, 127
2, 440694, Note_on_c, 7, 43, 127
2, 440804, Note_on_c, 7, 67, 127
2, 440913, Note_off_c, 7, 67, 127
2, 440915, Note_on_c, 0, 72, 127
2, 441024, Note_off_c, 3, 63, 127
2, 441025, Note_on_c, 4, 64, 127
2, 441134, Note_off_c, 4, 64, 127
2, 441136, Note_on_c, 5, 65, 127
2, 441245, Note_off_c, 0, 72, 127
2, 441246, Note_on_c, 7, 67, 127
2, 441355, Note_off_c, 7, 67, 127
2, 441356, Note_on_c, 10, 69, 127
2, 441465, Note_off_c, 10, 69, 127
2, 441467, Note_on_c, 11, 70, 127
2, 441576, Note_off_c, 11, 70, 127
2, 441576, Note_off_c, 5, 65, 127
2, 441577, Note_on_c, 0, 72, 127
2, 441577, Note_on_c, 6, 66, 127
2, 441686, Note_off_c, 0, 72, 127
2, 441688, Note_on_c, 3, 75, 127
2, 441797, Note_off_c, 3, 75, 127
2, 441798, Note_on_c, 2, 74, 127
2, 441907, Note_off_c, 2, 74, 127
2, 441908, Note_on_c, 0, 72, 127
2, 442017, Note_off_c, 0, 72, 127
2, 442017, Note_off_c, 6, 66, 127
2, 442017, Note_off_c, 7, 43, 127
2, 442019, Note_on_c, 11, 70, 127
2, 442019, Note_on_c, 7, 43, 127
2, 442019, Note_on_c, 7, 67, 127
2, 442238, Note_off_c, 11, 70, 127
2, 442240, Note_on_c, 2, 74, 127
2, 442349, Note_off_c, 2, 74, 127
2, 442350, Note_on_c, 0, 72, 127
2, 442459, Note_off_c, 0, 72, 127
2, 442459, Note_off_c, 7, 67, 127
2, 442460, Note_on_c, 11, 70, 127
2, 442460, Note_on_c, 7, 67, 127
2, 442679, Note_off_c, 7, 67, 127
2, 442679, Note_off_c, 11, 70, 127
2, 442681, Note_on_c, 11, 70, 127
2, 442681, Note_on_c, 6, 66, 127
2, 442790, Note_off_c, 11, 70, 127
2, 442792, Note_on_c, 10, 69, 127
2, 442900, Note_off_c, 6, 66, 127
2, 442901, Note_off_c, 10, 69, 127
2, 442902, Note_on_c, 11, 70, 127
2, 442902, Note_on_c, 7, 67, 127
2, 443011, Note_off_c, 11, 70, 127
2, 443012, Note_on_c, 2, 74, 127
2, 443121, Note_off_c, 2, 74, 127
2, 443123, Note_on_c, 7, 79, 127
2, 443232, Note_off_c, 7, 67, 127
2, 443233, Note_on_c, 10, 69, 127
2, 443342, Note_off_c, 10, 69, 127
2, 443342, Note_off_c, 7, 79, 127
2, 443344, Note_on_c, 2, 74, 127
2, 443344, Note_on_c, 11, 70, 127
2, 443507, Note_off_c, 2, 74, 127
2, 443508, Note_on_c, 1, 73, 127
2, 443563, Note_off_c, 11, 70, 127
2, 443563, Note_off_c, 7, 43, 127
2, 443564, Note_on_c, 11, 58, 127
2, 443564, Note_on_c, 10, 69, 127
2, 443595, Note_off_c, 1, 73, 127
2, 443601, Note_on_c, 2, 74, 127
2, 443673, Note_off_c, 11, 58, 127
2, 443675, Note_on_c, 10, 57, 127
2, 443688, Note_off_c, 2, 74, 127
2, 443693, Note_on_c, 1, 73, 127
2, 443780, Note_off_c, 1, 73, 127
2, 443783, Note_off_c, 10, 69, 127
2, 443784, Note_off_c, 10, 57, 127
2, 443785, Note_on_c, 2, 74, 127
2, 443785, Note_on_c, 7, 55, 127
2, 443785, Note_on_c, 10, 69, 127
2, 443872, Note_off_c, 2, 74, 127
2, 443874, Note_on_c, 1, 73, 127
2, 443961, Note_off_c, 1, 73, 127
2, 443962, Note_on_c, 2, 74, 127
2, 444004, Note_off_c, 7, 55, 127
2, 444006, Note_on_c, 7, 55, 127
2, 444049, Note_off_c, 2, 74, 127
2, 444050, Note_on_c, 1, 73, 127
2, 444115, Note_off_c, 7, 55, 127
2, 444116, Note_on_c, 5, 53, 127
2, 444138, Note_on_c, 2, 74, 127
2, 444159, Note_off_c, 1, 73, 127
2, 444225, Note_off_c, 5, 53, 127
2, 444225, Note_off_c, 10, 69, 127
2, 444227, Note_on_c, 1, 73, 127
2, 444227, Note_on_c, 4, 52, 127
2, 444227, Note_on_c, 7, 67, 127
2, 444247, Note_off_c, 2, 74, 127
2, 444314, Note_off_c, 1, 73, 127
2, 444315, Note_on_c, 2, 74, 127
2, 444336, Note_off_c, 4, 52, 127
2, 444337, Note_on_c, 10, 57, 127
2, 444402, Note_off_c, 2, 74, 127
2, 444404, Note_on_c, 1, 73, 127
2, 444446, Note_off_c, 10, 57, 127
2, 444448, Note_on_c, 7, 55, 127
2, 444491, Note_off_c, 1, 73, 127
2, 444491, Note_on_c, 12, 71, 127
2, 444557, Note_off_c, 7, 55, 127
2, 444558, Note_on_c, 10, 57, 127
2, 444578, Note_off_c, 12, 71, 127
2, 444580, Note_on_c, 1, 73, 127
2, 444667, Note_off_c, 1, 73, 127
2, 444667, Note_off_c, 10, 57, 127
2, 444667, Note_off_c, 7, 67, 127
2, 444668, Note_on_c, 2, 74, 127
2, 444668, Note_on_c, 2, 50, 127
2, 444668, Note_on_c, 5, 65, 127
2, 444777, Note_off_c, 2, 50, 127
2, 444779, Note_on_c, 10, 57, 127
2, 444888, Note_off_c, 10, 57, 127
2, 444889, Note_on_c, 2, 62, 127
2, 444998, Note_off_c, 2, 62, 127
2, 445000, Note_on_c, 0, 60, 127
2, 445108, Note_off_c, 5, 65, 127
2, 445109, Note_off_c, 0, 60, 127
2, 445110, Note_on_c, 11, 58, 127
2, 445110, Note_on_c, 7, 67, 127
2, 445219, Note_off_c, 11, 58, 127
2, 445220, Note_on_c, 0, 60, 127
2, 445329, Note_off_c, 0, 60, 127
2, 445329, Note_off_c, 7, 67, 127
2, 445331, Note_on_c, 2, 62, 127
2, 445331, Note_on_c, 5, 65, 127
2, 445440, Note_off_c, 2, 62, 127
2, 445441, Note_on_c, 11, 58, 127
2, 445550, Note_off_c, 11, 58, 127
2, 445550, Note_off_c, 5, 65, 127
2, 445552, Note_on_c, 7, 55, 127
2, 445552, Note_on_c, 4, 64, 127
2, 445661, Note_off_c, 7, 55, 127
2, 445662, Note_on_c, 10, 57, 127
2, 445771, Note_off_c, 10, 57, 127
2, 445771, Note_off_c, 4, 64, 127
2, 445772, Note_on_c, 11, 58, 127
2, 445772, Note_on_c, 2, 62, 127
2, 445881, Note_off_c, 11, 58, 127
2, 445883, Note_on_c, 7, 55, 127
2, 445991, Note_off_c, 2, 62, 127
2, 445991, Note_off_c, 2, 74, 127
2, 445992, Note_off_c, 7, 55, 127
2, 445993, Note_on_c, 11, 70, 127
2, 445993, Note_on_c, 1, 49, 127
2, 445993, Note_on_c, 4, 64, 127
2, 446212, Note_off_c, 4, 64, 127
2, 446214, Note_on_c, 7, 67, 127
2, 446323, Note_off_c, 7, 67, 127
2, 446324, Note_on_c, 5, 65, 127
2, 446433, Note_off_c, 5, 65, 127
2, 446433, Note_off_c, 11, 70, 127
2, 446435, Note_on_c, 10, 69, 127
2, 446435, Note_on_c, 4, 64, 127
2, 446544, Note_off_c, 4, 64, 127
2, 446545, Note_on_c, 5, 65, 127
2, 446654, Note_off_c, 5, 65, 127
2, 446654, Note_off_c, 1, 49, 127
2, 446656, Note_on_c, 4, 52, 127
2, 446656, Note_on_c, 7, 67, 127
2, 446765, Note_off_c, 7, 67, 127
2, 446766, Note_on_c, 4, 64, 127
2, 446875, Note_off_c, 4, 64, 127
2, 446875, Note_off_c, 4, 52, 127
2, 446875, Note_off_c, 10, 69, 127
2, 446876, Note_on_c, 7, 67, 127
2, 446876, Note_on_c, 10, 45, 127
2, 446876, Note_on_c, 1, 61, 127
2, 446985, Note_off_c, 1, 61, 127
2, 446987, Note_on_c, 2, 62, 127
2, 447095, Note_off_c, 10, 45, 127
2, 447096, Note_off_c, 2, 62, 127
2, 447097, Note_on_c, 1, 49, 127
2, 447097, Note_on_c, 4, 64, 127
2, 447206, Note_off_c, 4, 64, 127
2, 447208, Note_on_c, 1, 61, 127
2, 447316, Note_off_c, 1, 49, 127
2, 447316, Note_off_c, 7, 67, 127
2, 447317, Note_off_c, 1, 61, 127
2, 447318, Note_on_c, 5, 65, 127
2, 447318, Note_on_c, 2, 50, 127
2, 447318, Note_on_c, 10, 57, 127
2, 447427, Note_off_c, 2, 50, 127
2, 447428, Note_on_c, 4, 52, 127
2, 447537, Note_off_c, 4, 52, 127
2, 447537, Note_off_c, 10, 57, 127
2, 447539, Note_on_c, 5, 53, 127
2, 447539, Note_on_c, 2, 62, 127
2, 447648, Note_off_c, 2, 62, 127
2, 447648, Note_off_c, 5, 53, 127
2, 447649, Note_on_c, 2, 50, 127
2, 447649, Note_on_c, 1, 61, 127
2, 447758, Note_off_c, 1, 61, 127
2, 447758, Note_off_c, 2, 50, 127
2, 447758, Note_off_c, 5, 65, 127
2, 447760, Note_on_c, 7, 67, 127
2, 447760, Note_on_c, 11, 46, 127
2, 447760, Note_on_c, 2, 62, 127
2, 447979, Note_off_c, 2, 62, 127
2, 447979, Note_off_c, 11, 46, 127
2, 447979, Note_off_c, 7, 67, 127
2, 447980, Note_on_c, 5, 65, 127
2, 447980, Note_on_c, 10, 45, 127
2, 447980, Note_on_c, 2, 62, 127
2, 448089, Note_off_c, 2, 62, 127
2, 448091, Note_on_c, 1, 61, 127
2, 448199, Note_off_c, 10, 45, 127
2, 448199, Note_off_c, 5, 65, 127
2, 448200, Note_off_c, 1, 61, 127
2, 448201, Note_on_c, 4, 64, 127
2, 448201, Note_on_c, 7, 43, 127
2, 448201, Note_on_c, 2, 62, 127
2, 448420, Note_off_c, 2, 62, 127
2, 448420, Note_off_c, 7, 43, 127
2, 448420, Note_off_c, 4, 64, 127
2, 448422, Note_on_c, 5, 41, 127
2, 448422, Note_on_c, 2, 62, 127
2, 448532, Note_on_c, 1, 61, 127
2, 448641, Note_off_c, 1, 61, 127
2, 448641, Note_off_c, 2, 62, 127
2, 448641, Note_off_c, 5, 41, 127
2, 448643, Note_on_c, 4, 64, 127
2, 448643, Note_on_c, 7, 43, 127
2, 448643, Note_on_c, 2, 62, 127
2, 448862, Note_off_c, 7, 43, 127
2, 448862, Note_off_c, 4, 64, 127
2, 448864, Note_on_c, 4, 64, 127
2, 448864, Note_on_c, 7, 55, 127
2, 448973, Note_off_c, 7, 55, 127
2, 448973, Note_off_c, 4, 64, 127
2, 448974, Note_on_c, 5, 65, 127
2, 448974, Note_on_c, 5, 53, 127
2, 449083, Note_off_c, 5, 53, 127
2, 449083, Note_off_c, 5, 65, 127
2, 449084, Note_on_c, 7, 67, 127
2, 449084, Note_on_c, 4, 52, 127
2, 449193, Note_off_c, 7, 67, 127
2, 449195, Note_on_c, 10, 69, 127
2, 449303, Note_off_c, 4, 52, 127
2, 449304, Note_off_c, 10, 69, 127
2, 449305, Note_on_c, 11, 70, 127
2, 449305, Note_on_c, 7, 55, 127
2, 449414, Note_off_c, 11, 70, 127
2, 449416, Note_on_c, 7, 67, 127
2, 449524, Note_off_c, 7, 55, 127
2, 449525, Note_off_c, 2, 62, 127
2, 449526, Note_on_c, 10, 57, 127
2, 449526, Note_on_c, 0, 60, 127
2, 449635, Note_off_c, 7, 67, 127
2, 449636, Note_on_c, 11, 70, 127
2, 449745, Note_off_c, 11, 70, 127
2, 449745, Note_off_c, 10, 57, 127
2, 449747, Note_on_c, 10, 69, 127
2, 449747, Note_on_c, 10, 45, 127
2, 449856, Note_off_c, 10, 69, 127
2, 449857, Note_on_c, 7, 67, 127
2, 449966, Note_off_c, 7, 67, 127
2, 449966, Note_off_c, 10, 45, 127
2, 449968, Note_on_c, 6, 66, 127
2, 449968, Note_on_c, 2, 50, 127
2, 450077, Note_off_c, 6, 66, 127
2, 450078, Note_on_c, 2, 62, 127
2, 450187, Note_off_c, 2, 62, 127
2, 450187, Note_off_c, 0, 60, 127
2, 450188, Note_on_c, 6, 66, 127
2, 450188, Note_on_c, 11, 58, 127
2, 450297, Note_off_c, 6, 66, 127
2, 450299, Note_on_c, 7, 67, 127
2, 450407, Note_off_c, 11, 58, 127
2, 450408, Note_off_c, 7, 67, 127
2, 450409, Note_on_c, 10, 69, 127
2, 450409, Note_on_c, 10, 57, 127
2, 450518, Note_off_c, 10, 69, 127
2, 450520, Note_on_c, 6, 66, 127
2, 450628, Note_off_c, 10, 57, 127
2, 450629, Note_off_c, 6, 66, 127
2, 450630, Note_on_c, 10, 69, 127
2, 450630, Note_on_c, 7, 55, 127
2, 450739, Note_off_c, 10, 69, 127
2, 450740, Note_on_c, 12, 71, 127
2, 450849, Note_off_c, 12, 71, 127
2, 450849, Note_off_c, 7, 55, 127
2, 450851, Note_on_c, 0, 72, 127
2, 450851, Note_on_c, 6, 54, 127
2, 450960, Note_off_c, 0, 72, 127
2, 450961, Note_on_c, 10, 69, 127
2, 451070, Note_off_c, 10, 69, 127
2, 451070, Note_off_c, 6, 54, 127
2, 451072, Note_off_c, 2, 50, 127
2, 451072, Note_on_c, 12, 71, 127
2, 451072, Note_on_c, 5, 53, 127
2, 451181, Note_off_c, 12, 71, 127
2, 451182, Note_on_c, 0, 72, 127
2, 451291, Note_off_c, 0, 72, 127
2, 451291, Note_off_c, 5, 53, 127
2, 451292, Note_on_c, 8, 68, 127
2, 451292, Note_on_c, 4, 52, 127
2, 451511, Note_off_c, 8, 68, 127
2, 451513, Note_on_c, 12, 71, 127
2, 451513, Note_on_c, 8, 56, 127
2, 451622, Note_off_c, 8, 56, 127
2, 451622, Note_off_c, 12, 71, 127
2, 451624, Note_on_c, 0, 72, 127
2, 451624, Note_on_c, 10, 57, 127
2, 451733, Note_off_c, 10, 57, 127
2, 451733, Note_off_c, 0, 72, 127
2, 451734, Note_on_c, 2, 74, 127
2, 451734, Note_on_c, 12, 59, 127
2, 451953, Note_off_c, 12, 59, 127
2, 451953, Note_off_c, 2, 74, 127
2, 451955, Note_on_c, 2, 74, 127
2, 451955, Note_on_c, 12, 59, 127
2, 452064, Note_off_c, 12, 59, 127
2, 452064, Note_off_c, 2, 74, 127
2, 452065, Note_on_c, 4, 76, 127
2, 452065, Note_on_c, 0, 60, 127
2, 452174, Note_off_c, 0, 60, 127
2, 452174, Note_off_c, 4, 76, 127
2, 452174, Note_off_c, 4, 52, 127
2, 452176, Note_on_c, 5, 77, 127
2, 452176, Note_on_c, 8, 56, 127
2, 452176, Note_on_c, 2, 62, 127
2, 452395, Note_off_c, 2, 62, 127
2, 452395, Note_off_c, 5, 77, 127
2, 452396, Note_on_c, 4, 76, 127
2, 452396, Note_on_c, 0, 60, 127
2, 452505, Note_off_c, 0, 60, 127
2, 452505, Note_off_c, 4, 76, 127
2, 452507, Note_on_c, 2, 74, 127
2, 452507, Note_on_c, 12, 59, 127
2, 452616, Note_off_c, 12, 59, 127
2, 452616, Note_off_c, 2, 74, 127
2, 452616, Note_off_c, 8, 56, 127
2, 452617, Note_on_c, 0, 72, 127
2, 452617, Note_on_c, 10, 57, 127
2, 452728, Note_on_c, 11, 70, 127
2, 452836, Note_off_c, 10, 57, 127
2, 452837, Note_off_c, 11, 70, 127
2, 452838, Note_on_c, 11, 58, 127
2, 452838, Note_on_c, 10, 69, 127
2, 452947, Note_off_c, 10, 69, 127
2, 452947, Note_off_c, 11, 58, 127
2, 452948, Note_on_c, 0, 60, 127
2, 452948, Note_on_c, 7, 67, 127
2, 453057, Note_off_c, 7, 67, 127
2, 453057, Note_off_c, 0, 60, 127
2, 453059, Note_on_c, 2, 62, 127
2, 453059, Note_on_c, 6, 66, 127
2, 453167, Note_off_c, 0, 72, 127
2, 453169, Note_on_c, 7, 67, 127
2, 453278, Note_off_c, 7, 67, 127
2, 453278, Note_off_c, 2, 62, 127
2, 453280, Note_on_c, 10, 69, 127
2, 453280, Note_on_c, 0, 60, 127
2, 453389, Note_off_c, 10, 69, 127
2, 453390, Note_on_c, 11, 70, 127
2, 453499, Note_off_c, 11, 70, 127
2, 453499, Note_off_c, 0, 60, 127
2, 453500, Note_on_c, 0, 72, 127
2, 453500, Note_on_c, 11, 58, 127
2, 453609, Note_off_c, 0, 72, 127
2, 453611, Note_on_c, 3, 75, 127
2, 453719, Note_off_c, 11, 58, 127
2, 453720, Note_off_c, 3, 75, 127
2, 453721, Note_on_c, 2, 74, 127
2, 453721, Note_on_c, 10, 57, 127
2, 453830, Note_off_c, 2, 74, 127
2, 453832, Note_on_c, 0, 72, 127
2, 453940, Note_off_c, 10, 57, 127
2, 453941, Note_off_c, 0, 72, 127
2, 453942, Note_on_c, 11, 70, 127
2, 453942, Note_on_c, 7, 55, 127
2, 454051, Note_off_c, 6, 66, 127
2, 454052, Note_on_c, 10, 69, 127
2, 454161, Note_off_c, 10, 69, 127
2, 454161, Note_off_c, 7, 55, 127
2, 454163, Note_on_c, 10, 57, 127
2, 454163, Note_on_c, 7, 67, 127
2, 454272, Note_off_c, 7, 67, 127
2, 454272, Note_off_c, 10, 57, 127
2, 454273, Note_on_c, 11, 58, 127
2, 454273, Note_on_c, 5, 65, 127
2, 454382, Note_off_c, 5, 65, 127
2, 454382, Note_off_c, 11, 58, 127
2, 454384, Note_on_c, 0, 60, 127
2, 454384, Note_on_c, 4, 64, 127
2, 454492, Note_off_c, 11, 70, 127
2, 454494, Note_on_c, 5, 65, 127
2, 454603, Note_off_c, 5, 65, 127
2, 454603, Note_off_c, 0, 60, 127
2, 454604, Note_on_c, 7, 67, 127
2, 454604, Note_on_c, 11, 58, 127
2, 454713, Note_off_c, 7, 67, 127
2, 454715, Note_on_c, 10, 69, 127
2, 454823, Note_off_c, 11, 58, 127
2, 454824, Note_off_c, 10, 69, 127
2, 454825, Note_on_c, 11, 70, 127
2, 454825, Note_on_c, 10, 57, 127
2, 454934, Note_off_c, 11, 70, 127
2, 454936, Note_on_c, 2, 74, 127
2, 455044, Note_off_c, 10, 57, 127
2, 455045, Note_off_c, 2, 74, 127
2, 455046, Note_on_c, 0, 72, 127
2, 455046, Note_on_c, 7, 55, 127
2, 455155, Note_off_c, 0, 72, 127
2, 455156, Note_on_c, 11, 70, 127
2, 455265, Note_off_c, 11, 70, 127
2, 455265, Note_off_c, 7, 55, 127
2, 455267, Note_on_c, 10, 69, 127
2, 455267, Note_on_c, 5, 53, 127
2, 455376, Note_off_c, 5, 53, 127
2, 455376, Note_off_c, 4, 64, 127
2, 455377, Note_on_c, 4, 52, 127
2, 455377, Note_on_c, 7, 67, 127
2, 455486, Note_off_c, 7, 67, 127
2, 455486, Note_off_c, 4, 52, 127
2, 455488, Note_on_c, 2, 50, 127
2, 455488, Note_on_c, 5, 65, 127
2, 455597, Note_off_c, 5, 65, 127
2, 455597, Note_off_c, 2, 50, 127
2, 455598, Note_on_c, 0, 48, 127
2, 455598, Note_on_c, 4, 64, 127
2, 455707, Note_off_c, 4, 64, 127
2, 455707, Note_off_c, 0, 48, 127
2, 455708, Note_on_c, 12, 47, 127
2, 455708, Note_on_c, 2, 62, 127
2, 455817, Note_off_c, 12, 47, 127
2, 455817, Note_off_c, 10, 69, 127
2, 455819, Note_on_c, 10, 69, 127
2, 455819, Note_on_c, 1, 49, 127
2, 455928, Note_off_c, 1, 49, 127
2, 455928, Note_off_c, 10, 69, 127
2, 455929, Note_on_c, 12, 71, 127
2, 455929, Note_on_c, 2, 50, 127
2, 456038, Note_off_c, 2, 50, 127
2, 456038, Note_off_c, 12, 71, 127
2, 456040, Note_on_c, 1, 73, 127
2, 456040, Note_on_c, 4, 52, 127
2, 456149, Note_off_c, 4, 52, 127
2, 456149, Note_off_c, 1, 73, 127
2, 456150, Note_on_c, 2, 74, 127
2, 456150, Note_on_c, 5, 53, 127
2, 456254, Note_off_c, 2, 62, 127
2, 456259, Note_off_c, 5, 53, 127
2, 456259, Note_off_c, 2, 74, 127
2, 456260, Note_on_c, 5, 77, 127
2, 456260, Note_on_c, 10, 57, 127
2, 456369, Note_off_c, 10, 57, 127
2, 456369, Note_off_c, 5, 77, 127
2, 456371, Note_on_c, 4, 76, 127
2, 456371, Note_on_c, 7, 55, 127
2, 456480, Note_off_c, 7, 55, 127
2, 456480, Note_off_c, 4, 76, 127
2, 456481, Note_on_c, 2, 74, 127
2, 456481, Note_on_c, 5, 53, 127
2, 456590, Note_off_c, 5, 53, 127
2, 456590, Note_off_c, 2, 74, 127
2, 456592, Note_on_c, 1, 73, 127
2, 456592, Note_on_c, 4, 52, 127
2, 456701, Note_off_c, 4, 52, 127
2, 456701, Note_off_c, 1, 73, 127
2, 456702, Note_on_c, 2, 74, 127
2, 456702, Note_on_c, 2, 50, 127
2, 456811, Note_off_c, 2, 50, 127
2, 456811, Note_off_c, 2, 74, 127
2, 456812, Note_on_c, 4, 76, 127
2, 456812, Note_on_c, 1, 49, 127
2, 456921, Note_off_c, 1, 49, 127
2, 456921, Note_off_c, 4, 76, 127
2, 456923, Note_on_c, 5, 77, 127
2, 456923, Note_on_c, 12, 47, 127
2, 457032, Note_off_c, 12, 47, 127
2, 457032, Note_off_c, 5, 77, 127
2, 457033, Note_on_c, 7, 79, 127
2, 457033, Note_on_c, 10, 45, 127
2, 457142, Note_off_c, 10, 45, 127
2, 457142, Note_off_c, 7, 79, 127
2, 457144, Note_on_c, 5, 77, 127
2, 457144, Note_on_c, 12, 47, 127
2, 457253, Note_off_c, 12, 47, 127
2, 457253, Note_off_c, 5, 77, 127
2, 457254, Note_on_c, 4, 76, 127
2, 457254, Note_on_c, 1, 49, 127
2, 457363, Note_off_c, 1, 49, 127
2, 457363, Note_off_c, 4, 76, 127
2, 457364, Note_on_c, 5, 77, 127
2, 457364, Note_on_c, 2, 50, 127
2, 457473, Note_off_c, 2, 50, 127
2, 457473, Note_off_c, 5, 77, 127
2, 457475, Note_on_c, 7, 79, 127
2, 457475, Note_on_c, 4, 52, 127
2, 457584, Note_off_c, 4, 52, 127
2, 457584, Note_off_c, 7, 79, 127
2, 457585, Note_on_c, 11, 82, 127
2, 457585, Note_on_c, 7, 55, 127
2, 457694, Note_off_c, 7, 55, 127
2, 457694, Note_off_c, 11, 82, 127
2, 457696, Note_on_c, 10, 81, 127
2, 457696, Note_on_c, 5, 53, 127
2, 457805, Note_off_c, 5, 53, 127
2, 457805, Note_off_c, 10, 81, 127
2, 457806, Note_on_c, 7, 79, 127
2, 457806, Note_on_c, 4, 52, 127
2, 457915, Note_off_c, 4, 52, 127
2, 457915, Note_off_c, 7, 79, 127
2, 457916, Note_on_c, 5, 77, 127
2, 457916, Note_on_c, 2, 50, 127
2, 458027, Note_on_c, 4, 76, 127
2, 458135, Note_off_c, 2, 50, 127
2, 458136, Note_off_c, 4, 76, 127
2, 458137, Note_on_c, 4, 52, 127
2, 458137, Note_on_c, 2, 74, 127
2, 458246, Note_off_c, 2, 74, 127
2, 458246, Note_off_c, 4, 52, 127
2, 458248, Note_on_c, 5, 53, 127
2, 458248, Note_on_c, 0, 72, 127
2, 458357, Note_off_c, 0, 72, 127
2, 458357, Note_off_c, 5, 53, 127
2, 458358, Note_on_c, 7, 55, 127
2, 458358, Note_on_c, 12, 71, 127
2, 458466, Note_off_c, 5, 77, 127
2, 458468, Note_on_c, 0, 72, 127
2, 458577, Note_off_c, 0, 72, 127
2, 458577, Note_off_c, 7, 55, 127
2, 458579, Note_on_c, 2, 74, 127
2, 458579, Note_on_c, 5, 53, 127
2, 458688, Note_off_c, 2, 74, 127
2, 458689, Note_on_c, 4, 76, 127
2, 458798, Note_off_c, 4, 76, 127
2, 458798, Note_off_c, 5, 53, 127
2, 458800, Note_on_c, 5, 77, 127
2, 458800, Note_on_c, 4, 52, 127
2, 458909, Note_off_c, 5, 77, 127
2, 458910, Note_on_c, 10, 81, 127
2, 459019, Note_off_c, 10, 81, 127
2, 459019, Note_off_c, 4, 52, 127
2, 459020, Note_on_c, 7, 79, 127
2, 459020, Note_on_c, 2, 50, 127
2, 459129, Note_off_c, 7, 79, 127
2, 459131, Note_on_c, 5, 77, 127
2, 459239, Note_off_c, 2, 50, 127
2, 459240, Note_off_c, 5, 77, 127
2, 459241, Note_on_c, 4, 76, 127
2, 459241, Note_on_c, 0, 48, 127
2, 459350, Note_off_c, 12, 71, 127
2, 459352, Note_on_c, 2, 74, 127
2, 459460, Note_off_c, 0, 48, 127
2, 459461, Note_off_c, 2, 74, 127
2, 459462, Note_on_c, 2, 50, 127
2, 459462, Note_on_c, 0, 72, 127
2, 459571, Note_off_c, 0, 72, 127
2, 459571, Note_off_c, 2, 50, 127
2, 459572, Note_on_c, 4, 52, 127
2, 459572, Note_on_c, 11, 70, 127
2, 459681, Note_off_c, 11, 70, 127
2, 459681, Note_off_c, 4, 52, 127
2, 459683, Note_on_c, 5, 53, 127
2, 459683, Note_on_c, 10, 69, 127
2, 459791, Note_off_c, 4, 76, 127
2, 459793, Note_on_c, 11, 70, 127
2, 459902, Note_off_c, 11, 70, 127
2, 459902, Note_off_c, 5, 53, 127
2, 459904, Note_on_c, 0, 72, 127
2, 459904, Note_on_c, 3, 51, 127
2, 460013, Note_off_c, 0, 72, 127
2, 460014, Note_on_c, 2, 74, 127
2, 460123, Note_off_c, 2, 74, 127
2, 460123, Note_off_c, 3, 51, 127
2, 460124, Note_on_c, 3, 75, 127
2, 460124, Note_on_c, 2, 50, 127
2, 460233, Note_off_c, 3, 75, 127
2, 460235, Note_on_c, 7, 79, 127
2, 460343, Note_off_c, 2, 50, 127
2, 460344, Note_off_c, 7, 79, 127
2, 460345, Note_on_c, 5, 77, 127
2, 460345, Note_on_c, 0, 48, 127
2, 460454, Note_off_c, 5, 77, 127
2, 460456, Note_on_c, 3, 75, 127
2, 460564, Note_off_c, 0, 48, 127
2, 460565, Note_off_c, 3, 75, 127
2, 460566, Note_on_c, 2, 74, 127
2, 460566, Note_on_c, 11, 46, 127
2, 460675, Note_off_c, 11, 46, 127
2, 460675, Note_off_c, 10, 69, 127
2, 460676, Note_on_c, 10, 45, 127
2, 460676, Note_on_c, 0, 72, 127
2, 460785, Note_off_c, 0, 72, 127
2, 460785, Note_off_c, 10, 45, 127
2, 460787, Note_on_c, 7, 43, 127
2, 460787, Note_on_c, 11, 70, 127
2, 460896, Note_off_c, 11, 70, 127
2, 460896, Note_off_c, 7, 43, 127
2, 460897, Note_on_c, 5, 41, 127
2, 460897, Note_on_c, 10, 69, 127
2, 461006, Note_off_c, 10, 69, 127
2, 461006, Note_off_c, 5, 41, 127
2, 461008, Note_on_c, 4, 40, 127
2, 461008, Note_on_c, 7, 67, 127
2, 461116, Note_off_c, 2, 74, 127
2, 461117, Note_off_c, 4, 40, 127
2, 461118, Note_on_c, 10, 69, 127
2, 461118, Note_on_c, 6, 42, 127
2, 461227, Note_off_c, 6, 42, 127
2, 461227, Note_off_c, 10, 69, 127
2, 461228, Note_on_c, 11, 70, 127
2, 461228, Note_on_c, 7, 43, 127
2, 461337, Note_off_c, 7, 43, 127
2, 461337, Note_off_c, 11, 70, 127
2, 461339, Note_on_c, 0, 72, 127
2, 461339, Note_on_c, 10, 45, 127
2, 461448, Note_off_c, 10, 45, 127
2, 461448, Note_off_c, 0, 72, 127
2, 461449, Note_on_c, 2, 74, 127
2, 461449, Note_on_c, 11, 46, 127
2, 461558, Note_off_c, 11, 46, 127
2, 461558, Note_off_c, 2, 74, 127
2, 461560, Note_on_c, 5, 77, 127
2, 461560, Note_on_c, 2, 50, 127
2, 461669, Note_off_c, 2, 50, 127
2, 461669, Note_off_c, 5, 77, 127
2, 461670, Note_on_c, 3, 75, 127
2, 461670, Note_on_c, 0, 48, 127
2, 461779, Note_off_c, 0, 48, 127
2, 461779, Note_off_c, 3, 75, 127
2, 461780, Note_on_c, 2, 74, 127
2, 461780, Note_on_c, 11, 46, 127
2, 461889, Note_off_c, 11, 46, 127
2, 461889, Note_off_c, 2, 74, 127
2, 461891, Note_on_c, 0, 72, 127
2, 461891, Note_on_c, 10, 45, 127
2, 462000, Note_off_c, 7, 67, 127
2, 462001, Note_on_c, 11, 70, 127
2, 462110, Note_off_c, 11, 70, 127
2, 462110, Note_off_c, 10, 45, 127
2, 462112, Note_on_c, 11, 46, 127
2, 462112, Note_on_c, 10, 69, 127
2, 462221, Note_off_c, 10, 69, 127
2, 462221, Note_off_c, 11, 46, 127
2, 462222, Note_on_c, 0, 48, 127
2, 462222, Note_on_c, 7, 67, 127
2, 462331, Note_off_c, 7, 67, 127
2, 462331, Note_off_c, 0, 48, 127
2, 462332, Note_on_c, 2, 50, 127
2, 462332, Note_on_c, 6, 66, 127
2, 462441, Note_off_c, 2, 50, 127
2, 462441, Note_off_c, 0, 72, 127
2, 462443, Note_on_c, 7, 67, 127
2, 462443, Note_on_c, 4, 52, 127
2, 462552, Note_off_c, 4, 52, 127
2, 462552, Note_off_c, 7, 67, 127
2, 462553, Note_on_c, 10, 69, 127
2, 462553, Note_on_c, 6, 54, 127
2, 462662, Note_off_c, 6, 54, 127
2, 462662, Note_off_c, 10, 69, 127
2, 462664, Note_on_c, 11, 70, 127
2, 462664, Note_on_c, 7, 55, 127
2, 462773, Note_off_c, 7, 55, 127
2, 462773, Note_off_c, 11, 70, 127
2, 462774, Note_on_c, 0, 72, 127
2, 462774, Note_on_c, 10, 57, 127
2, 462883, Note_off_c, 10, 57, 127
2, 462883, Note_off_c, 0, 72, 127
2, 462884, Note_on_c, 10, 69, 127
2, 462884, Note_on_c, 6, 54, 127
2, 462993, Note_off_c, 6, 54, 127
2, 462993, Note_off_c, 10, 69, 127
2, 462995, Note_on_c, 2, 74, 127
2, 462995, Note_on_c, 4, 52, 127
2, 463104, Note_off_c, 4, 52, 127
2, 463104, Note_off_c, 2, 74, 127
2, 463105, Note_on_c, 10, 69, 127
2, 463105, Note_on_c, 2, 50, 127
2, 463214, Note_off_c, 2, 50, 127
2, 463214, Note_off_c, 10, 69, 127
2, 463214, Note_off_c, 6, 66, 127
2, 463216, Note_on_c, 11, 70, 127
2, 463216, Note_on_c, 7, 55, 127
2, 463216, Note_on_c, 7, 67, 127
2, 463325, Note_off_c, 7, 55, 127
2, 463326, Note_on_c, 2, 50, 127
2, 463435, Note_off_c, 2, 50, 127
2, 463435, Note_off_c, 11, 70, 127
2, 463436, Note_on_c, 2, 74, 127
2, 463436, Note_on_c, 7, 55, 127
2, 463545, Note_off_c, 7, 55, 127
2, 463547, Note_on_c, 10, 57, 127
2, 463655, Note_off_c, 2, 74, 127
2, 463656, Note_off_c, 10, 57, 127
2, 463657, Note_on_c, 7, 79, 127
2, 463657, Note_on_c, 11, 58, 127
2, 463766, Note_off_c, 11, 58, 127
2, 463768, Note_on_c, 7, 55, 127
2, 463876, Note_off_c, 7, 79, 127
2, 463877, Note_off_c, 7, 55, 127
2, 463877, Note_off_c, 7, 67, 127
2, 463878, Note_on_c, 7, 79, 127
2, 463878, Note_on_c, 11, 58, 127
2, 463878, Note_on_c, 11, 70, 127
2, 463987, Note_off_c, 11, 70, 127
2, 463987, Note_off_c, 11, 58, 127
2, 463987, Note_off_c, 7, 79, 127
2, 463988, Note_on_c, 6, 78, 127
2, 463988, Note_on_c, 0, 60, 127
2, 463988, Note_on_c, 10, 69, 127
2, 464097, Note_off_c, 10, 69, 127
2, 464097, Note_off_c, 0, 60, 127
2, 464097, Note_off_c, 6, 78, 127
2, 464099, Note_on_c, 7, 79, 127
2, 464099, Note_on_c, 2, 62, 127
2, 464099, Note_on_c, 11, 70, 127
2, 464208, Note_off_c, 2, 62, 127
2, 464209, Note_on_c, 7, 55, 127
2, 464318, Note_off_c, 7, 55, 127
2, 464318, Note_off_c, 11, 70, 127
2, 464320, Note_on_c, 2, 62, 127
2, 464320, Note_on_c, 0, 72, 127
2, 464429, Note_off_c, 0, 72, 127
2, 464429, Note_off_c, 2, 62, 127
2, 464430, Note_on_c, 4, 64, 127
2, 464430, Note_on_c, 11, 70, 127
2, 464539, Note_off_c, 11, 70, 127
2, 464539, Note_off_c, 4, 64, 127
2, 464540, Note_on_c, 5, 65, 127
2, 464540, Note_on_c, 10, 69, 127
2, 464759, Note_off_c, 5, 65, 127
2, 464760, Note_off_c, 7, 79, 127
2, 464761, Note_on_c, 0, 72, 127
2, 464761, Note_on_c, 5, 53, 127
2, 464870, Note_off_c, 5, 53, 127
2, 464872, Note_on_c, 7, 55, 127
2, 464980, Note_off_c, 0, 72, 127
2, 464981, Note_off_c, 7, 55, 127
2, 464982, Note_on_c, 5, 77, 127
2, 464982, Note_on_c, 10, 57, 127
2, 465091, Note_off_c, 10, 57, 127
2, 465092, Note_on_c, 5, 53, 127
2, 465201, Note_off_c, 5, 53, 127
2, 465201, Note_off_c, 5, 77, 127
2, 465201, Note_off_c, 10, 69, 127
2, 465203, Note_on_c, 5, 77, 127
2, 465203, Note_on_c, 10, 57, 127
2, 465203, Note_on_c, 10, 69, 127
2, 465312, Note_off_c, 10, 69, 127
2, 465312, Note_off_c, 10, 57, 127
2, 465312, Note_off_c, 5, 77, 127
2, 465313, Note_on_c, 4, 76, 127
2, 465313, Note_on_c, 11, 58, 127
2, 465313, Note_on_c, 7, 67, 127
2, 465422, Note_off_c, 7, 67, 127
2, 465422, Note_off_c, 11, 58, 127
2, 465422, Note_off_c, 4, 76, 127
2, 465424, Note_on_c, 5, 77, 127
2, 465424, Note_on_c, 0, 60, 127
2, 465424, Note_on_c, 8, 68, 127
2, 465533, Note_off_c, 0, 60, 127
2, 465534, Note_on_c, 5, 53, 127
2, 465643, Note_off_c, 5, 53, 127
2, 465643, Note_off_c, 8, 68, 127
2, 465644, Note_on_c, 0, 60, 127
2, 465644, Note_on_c, 11, 70, 127
2, 465753, Note_off_c, 11, 70, 127
2, 465753, Note_off_c, 0, 60, 127
2, 465755, Note_on_c, 2, 62, 127
2, 465755, Note_on_c, 8, 68, 127
2, 465864, Note_off_c, 8, 68, 127
2, 465864, Note_off_c, 2, 62, 127
2, 465865, Note_on_c, 3, 63, 127
2, 465865, Note_on_c, 7, 67, 127
2, 465974, Note_off_c, 3, 63, 127
2, 465976, Note_on_c, 5, 65, 127
2, 466085, Note_off_c, 5, 65, 127
2, 466085, Note_off_c, 7, 67, 127
2, 466085, Note_off_c, 5, 77, 127
2, 466086, Note_on_c, 11, 70, 127
2, 466086, Note_on_c, 7, 67, 127
2, 466196, Note_on_c, 5, 65, 127
2, 466305, Note_off_c, 5, 65, 127
2, 466305, Note_off_c, 11, 70, 127
2, 466307, Note_on_c, 0, 72, 127
2, 466307, Note_on_c, 3, 63, 127
2, 466368, Note_off_c, 7, 67, 127
2, 466416, Note_off_c, 3, 63, 127
2, 466417, Note_on_c, 7, 67, 127
2, 466526, Note_off_c, 0, 72, 127
2, 466528, Note_on_c, 2, 74, 127
2, 466528, Note_on_c, 3, 63, 127
2, 466637, Note_off_c, 3, 63, 127
2, 466638, Note_on_c, 2, 62, 127
2, 466747, Note_off_c, 2, 62, 127
2, 466747, Note_off_c, 2, 74, 127
2, 466748, Note_on_c, 3, 75, 127
2, 466748, Note_on_c, 0, 60, 127
2, 466857, Note_off_c, 0, 60, 127
2, 466859, Note_on_c, 3, 63, 127
2, 466967, Note_off_c, 7, 67, 127
2, 466968, Note_off_c, 3, 63, 127
2, 466969, Note_on_c, 0, 60, 127
2, 466969, Note_on_c, 7, 67, 127
2, 467078, Note_off_c, 0, 60, 127
2, 467080, Note_on_c, 11, 58, 127
2, 467188, Note_off_c, 7, 67, 127
2, 467189, Note_off_c, 11, 58, 127
2, 467190, Note_on_c, 10, 57, 127
2, 467190, Note_on_c, 6, 66, 127
2, 467299, Note_off_c, 10, 57, 127
2, 467300, Note_on_c, 0, 60, 127
2, 467409, Note_off_c, 0, 60, 127
2, 467409, Note_off_c, 3, 75, 127
2, 467411, Note_on_c, 10, 69, 127
2, 467411, Note_on_c, 11, 58, 127
2, 467520, Note_off_c, 11, 58, 127
2, 467521, Note_on_c, 0, 60, 127
2, 467630, Note_off_c, 0, 60, 127
2, 467630, Note_off_c, 10, 69, 127
2, 467632, Note_on_c, 12, 71, 127
2, 467632, Note_on_c, 2, 62, 127
2, 467741, Note_off_c, 2, 62, 127
2, 467742, Note_on_c, 5, 65, 127
2, 467851, Note_off_c, 5, 65, 127
2, 467851, Note_off_c, 12, 71, 127
2, 467852, Note_on_c, 0, 72, 127
2, 467852, Note_on_c, 2, 62, 127
2, 467961, Note_off_c, 2, 62, 127
2, 467963, Note_on_c, 0, 60, 127
2, 468071, Note_off_c, 0, 72, 127
2, 468072, Note_off_c, 0, 60, 127
2, 468073, Note_on_c, 2, 74, 127
2, 468073, Note_on_c, 12, 59, 127
2, 468182, Note_off_c, 12, 59, 127
2, 468184, Note_on_c, 2, 62, 127
2, 468240, Note_off_c, 6, 66, 127
2, 468293, Note_off_c, 2, 62, 127
2, 468294, Note_on_c, 12, 59, 127
2, 468294, Note_on_c, 5, 65, 127
2, 468403, Note_off_c, 12, 59, 127
2, 468404, Note_on_c, 10, 57, 127
2, 468513, Note_off_c, 10, 57, 127
2, 468513, Note_off_c, 5, 65, 127
2, 468515, Note_on_c, 7, 55, 127
2, 468515, Note_on_c, 4, 64, 127
2, 468624, Note_off_c, 7, 55, 127
2, 468625, Note_on_c, 12, 59, 127
2, 468734, Note_off_c, 12, 59, 127
2, 468734, Note_off_c, 2, 74, 127
2, 468736, Note_on_c, 7, 67, 127
2, 468736, Note_on_c, 10, 57, 127
2, 468845, Note_off_c, 10, 57, 127
2, 468846, Note_on_c, 12, 59, 127
2, 468955, Note_off_c, 12, 59, 127
2, 468955, Note_off_c, 7, 67, 127
2, 468956, Note_on_c, 10, 69, 127
2, 468956, Note_on_c, 0, 60, 127
2, 469065, Note_off_c, 0, 60, 127
2, 469067, Note_on_c, 3, 63, 127
2, 469175, Note_off_c, 10, 69, 127
2, 469176, Note_off_c, 3, 63, 127
2, 469177, Note_on_c, 11, 70, 127
2, 469177, Note_on_c, 0, 60, 127
2, 469286, Note_off_c, 0, 60, 127
2, 469288, Note_on_c, 11, 58, 127
2, 469396, Note_off_c, 11, 70, 127
2, 469397, Note_off_c, 11, 58, 127
2, 469398, Note_on_c, 0, 72, 127
2, 469398, Note_on_c, 10, 57, 127
2, 469507, Note_off_c, 10, 57, 127
2, 469508, Note_on_c, 0, 60, 127
2, 469565, Note_off_c, 4, 64, 127
2, 469617, Note_off_c, 0, 60, 127
2, 469619, Note_on_c, 10, 57, 127
2, 469619, Note_on_c, 3, 63, 127
2, 469728, Note_off_c, 10, 57, 127
2, 469729, Note_on_c, 7, 55, 127
2, 469838, Note_off_c, 7, 55, 127
2, 469838, Note_off_c, 3, 63, 127
2, 469840, Note_on_c, 6, 54, 127
2, 469840, Note_on_c, 2, 62, 127
2, 469948, Note_off_c, 0, 72, 127
2, 469950, Note_on_c, 3, 75, 127
2, 470059, Note_off_c, 3, 75, 127
2, 470059, Note_off_c, 6, 54, 127
2, 470060, Note_on_c, 2, 74, 127
2, 470060, Note_on_c, 2, 50, 127
2, 470169, Note_off_c, 2, 74, 127
2, 470171, Note_on_c, 0, 72, 127
2, 470279, Note_off_c, 2, 50, 127
2, 470280, Note_off_c, 0, 72, 127
2, 470280, Note_off_c, 2, 62, 127
2, 470281, Note_on_c, 11, 70, 127
2, 470281, Note_on_c, 7, 55, 127
2, 470281, Note_on_c, 3, 63, 127
2, 470390, Note_off_c, 11, 70, 127
2, 470392, Note_on_c, 10, 69, 127
2, 470500, Note_off_c, 7, 55, 127
2, 470501, Note_off_c, 10, 69, 127
2, 470502, Note_on_c, 7, 67, 127
2, 470502, Note_on_c, 5, 53, 127
2, 470611, Note_off_c, 7, 67, 127
2, 470612, Note_on_c, 10, 69, 127
2, 470721, Note_off_c, 10, 69, 127
2, 470721, Note_off_c, 5, 53, 127
2, 470721, Note_off_c, 3, 63, 127
2, 470723, Note_on_c, 11, 70, 127
2, 470723, Note_on_c, 7, 55, 127
2, 470723, Note_on_c, 4, 64, 127
2, 470832, Note_off_c, 11, 70, 127
2, 470833, Note_on_c, 2, 74, 127
2, 470942, Note_off_c, 2, 74, 127
2, 470942, Note_off_c, 7, 55, 127
2, 470944, Note_on_c, 0, 72, 127
2, 470944, Note_on_c, 7, 43, 127
2, 471053, Note_off_c, 0, 72, 127
2, 471054, Note_on_c, 11, 70, 127
2, 471163, Note_off_c, 11, 70, 127
2, 471163, Note_off_c, 7, 43, 127
2, 471163, Note_off_c, 4, 64, 127
2, 471164, Note_on_c, 10, 69, 127
2, 471164, Note_on_c, 2, 50, 127
2, 471164, Note_on_c, 5, 65, 127
2, 471273, Note_off_c, 10, 69, 127
2, 471275, Note_on_c, 2, 74, 127
2, 471384, Note_off_c, 2, 74, 127
2, 471385, Note_on_c, 0, 72, 127
2, 471494, Note_off_c, 0, 72, 127
2, 471496, Note_on_c, 11, 70, 127
2, 471604, Note_off_c, 5, 65, 127
2, 471605, Note_off_c, 11, 70, 127
2, 471606, Note_on_c, 10, 69, 127
2, 471606, Note_on_c, 5, 65, 127
2, 471715, Note_off_c, 10, 69, 127
2, 471716, Note_on_c, 2, 74, 127
2, 471825, Note_off_c, 2, 74, 127
2, 471825, Note_off_c, 5, 65, 127
2, 471827, Note_on_c, 7, 67, 127
2, 471827, Note_on_c, 4, 64, 127
2, 471936, Note_off_c, 7, 67, 127
2, 471937, Note_on_c, 1, 73, 127
2, 472046, Note_off_c, 1, 73, 127
2, 472046, Note_off_c, 4, 64, 127
2, 472048, Note_on_c, 10, 69, 127
2, 472048, Note_on_c, 5, 65, 127
2, 472157, Note_off_c, 10, 69, 127
2, 472158, Note_on_c, 2, 74, 127
2, 472267, Note_off_c, 2, 74, 127
2, 472268, Note_on_c, 10, 69, 127
2, 472377, Note_off_c, 10, 69, 127
2, 472379, Note_on_c, 7, 67, 127
2, 472487, Note_off_c, 2, 50, 127
2, 472488, Note_off_c, 7, 67, 127
2, 472488, Note_off_c, 5, 65, 127
2, 472489, Note_on_c, 5, 65, 127
2, 472489, Note_on_c, 2, 50, 127
2, 472489, Note_on_c, 10, 57, 127
2, 472598, Note_off_c, 5, 65, 127
2, 472600, Note_on_c, 7, 67, 127
2, 472709, Note_off_c, 7, 67, 127
2, 472710, Note_on_c, 5, 65, 127
2, 472819, Note_off_c, 5, 65, 127
2, 472820, Note_on_c, 4, 64, 127
2, 472929, Note_off_c, 4, 64, 127
2, 472929, Note_off_c, 10, 57, 127
2, 472931, Note_on_c, 2, 62, 127
2, 472931, Note_on_c, 11, 58, 127
2, 473040, Note_off_c, 2, 62, 127
2, 473041, Note_on_c, 5, 65, 127
2, 473150, Note_off_c, 5, 65, 127
2, 473152, Note_on_c, 4, 64, 127
2, 473261, Note_off_c, 4, 64, 127
2, 473262, Note_on_c, 2, 62, 127
2, 473371, Note_off_c, 2, 62, 127
2, 473371, Note_off_c, 11, 58, 127
2, 473372, Note_on_c, 7, 67, 127
2, 473372, Note_on_c, 12, 59, 127
2, 473481, Note_off_c, 7, 67, 127
2, 473483, Note_on_c, 10, 69, 127
2, 473592, Note_off_c, 10, 69, 127
2, 473593, Note_on_c, 7, 67, 127
2, 473702, Note_off_c, 7, 67, 127
2, 473704, Note_on_c, 5, 65, 127
2, 473812, Note_off_c, 12, 59, 127
2, 473812, Note_off_c, 2, 50, 127
2, 473813, Note_off_c, 5, 65, 127
2, 473814, Note_on_c, 4, 64, 127
2, 473814, Note_on_c, 2, 50, 127
2, 473814, Note_on_c, 0, 60, 127
2, 473923, Note_off_c, 4, 64, 127
2, 473924, Note_on_c, 7, 67, 127
2, 474033, Note_off_c, 7, 67, 127
2, 474035, Note_on_c, 5, 65, 127
2, 474144, Note_off_c, 5, 65, 127
2, 474145, Note_on_c, 4, 64, 127
2, 474254, Note_off_c, 4, 64, 127
2, 474254, Note_off_c, 0, 60, 127
2, 474256, Note_on_c, 10, 69, 127
2, 474256, Note_on_c, 0, 60, 127
2, 474365, Note_off_c, 10, 69, 127
2, 474366, Note_on_c, 11, 70, 127
2, 474475, Note_off_c, 11, 70, 127
2, 474475, Note_off_c, 0, 60, 127
2, 474476, Note_on_c, 10, 69, 127
2, 474476, Note_on_c, 12, 59, 127
2, 474585, Note_off_c, 10, 69, 127
2, 474587, Note_on_c, 7, 67, 127
2, 474695, Note_off_c, 12, 59, 127
2, 474696, Note_off_c, 7, 67, 127
2, 474697, Note_on_c, 6, 66, 127
2, 474697, Note_on_c, 0, 60, 127
2, 474806, Note_off_c, 6, 66, 127
2, 474808, Note_on_c, 7, 67, 127
2, 474917, Note_off_c, 7, 67, 127
2, 474918, Note_on_c, 6, 66, 127
2, 475027, Note_off_c, 6, 66, 127
2, 475028, Note_on_c, 4, 64, 127
2, 475134, Note_off_c, 0, 60, 127
2, 475137, Note_off_c, 4, 64, 127
2, 475137, Note_off_c, 2, 50, 127
2, 475139, Note_on_c, 3, 75, 127
2, 475139, Note_on_c, 0, 72, 127
2, 475139, Note_on_c, 6, 66, 127
2, 475139, Note_on_c, 10, 69, 127
2, 475139, Note_on_c, 10, 57, 127
2, 475139, Note_on_c, 2, 62, 127
2, 475139, Note_on_c, 6, 54, 127
2, 475139, Note_on_c, 2, 50, 127
2, 475358, Note_off_c, 2, 50, 127
2, 475358, Note_off_c, 6, 54, 127
2, 475358, Note_off_c, 2, 62, 127
2, 475358, Note_off_c, 10, 57, 127
2, 475360, Note_on_c, 2, 62, 127
2, 475469, Note_off_c, 2, 62, 127
2, 475470, Note_on_c, 0, 60, 127
2, 475579, Note_off_c, 0, 60, 127
2, 475579, Note_off_c, 10, 69, 127
2, 475579, Note_off_c, 6, 66, 127
2, 475579, Note_off_c, 0, 72, 127
2, 475579, Note_off_c, 3, 75, 127
2, 475580, Note_on_c, 2, 74, 127
2, 475580, Note_on_c, 7, 67, 127
2, 475580, Note_on_c, 11, 70, 127
2, 475580, Note_on_c, 11, 58, 127
2, 475799, Note_off_c, 11, 58, 127
2, 475801, Note_on_c, 11, 58, 127
2, 475910, Note_off_c, 11, 58, 127
2, 475912, Note_on_c, 10, 57, 127
2, 476020, Note_off_c, 11, 70, 127
2, 476020, Note_off_c, 7, 67, 127
2, 476020, Note_off_c, 2, 74, 127
2, 476021, Note_off_c, 10, 57, 127
2, 476022, Note_on_c, 2, 62, 127
2, 476022, Note_on_c, 0, 72, 127
2, 476022, Note_on_c, 10, 69, 127
2, 476022, Note_on_c, 7, 55, 127
2, 476241, Note_off_c, 7, 55, 127
2, 476243, Note_on_c, 7, 55, 127
2, 476352, Note_off_c, 7, 55, 127
2, 476353, Note_on_c, 6, 54, 127
2, 476462, Note_off_c, 6, 54, 127
2, 476462, Note_off_c, 10, 69, 127
2, 476462, Note_off_c, 0, 72, 127
2, 476462, Note_off_c, 2, 62, 127
2, 476464, Note_on_c, 7, 67, 127
2, 476464, Note_on_c, 2, 62, 127
2, 476464, Note_on_c, 11, 70, 127
2, 476464, Note_on_c, 7, 55, 127
2, 476683, Note_off_c, 7, 55, 127
2, 476684, Note_on_c, 7, 55, 127
2, 476793, Note_off_c, 7, 55, 127
2, 476795, Note_on_c, 5, 53, 127
2, 476904, Note_off_c, 5, 53, 127
2, 476904, Note_off_c, 11, 70, 127
2, 476904, Note_off_c, 2, 62, 127
2, 476904, Note_off_c, 7, 67, 127
2, 476905, Note_on_c, 0, 72, 127
2, 476905, Note_on_c, 7, 67, 127
2, 476905, Note_on_c, 3, 51, 127
2, 477124, Note_off_c, 3, 51, 127
2, 477124, Note_off_c, 7, 67, 127
2, 477124, Note_off_c, 0, 72, 127
2, 477126, Note_on_c, 11, 70, 127
2, 477126, Note_on_c, 3, 51, 127
2, 477235, Note_off_c, 3, 51, 127
2, 477236, Note_on_c, 2, 50, 127
2, 477345, Note_off_c, 2, 50, 127
2, 477345, Note_off_c, 11, 70, 127
2, 477347, Note_on_c, 10, 69, 127
2, 477347, Note_on_c, 0, 48, 127
2, 477566, Note_off_c, 0, 48, 127
2, 477566, Note_off_c, 10, 69, 127
2, 477568, Note_on_c, 7, 67, 127
2, 477568, Note_on_c, 0, 48, 127
2, 477677, Note_off_c, 0, 48, 127
2, 477678, Note_on_c, 11, 46, 127
2, 477787, Note_off_c, 11, 46, 127
2, 477787, Note_off_c, 7, 67, 127
2, 477788, Note_on_c, 1, 73, 127
2, 477788, Note_on_c, 11, 70, 127
2, 477788, Note_on_c, 10, 45, 127
2, 478009, Note_on_c, 10, 57, 127
2, 478118, Note_off_c, 10, 57, 127
2, 478120, Note_on_c, 7, 55, 127
2, 478225, Note_off_c, 10, 45, 127
2, 478228, Note_off_c, 11, 70, 127
2, 478228, Note_off_c, 1, 73, 127
2, 478229, Note_off_c, 7, 55, 127
2, 478230, Note_on_c, 2, 74, 127
2, 478230, Note_on_c, 10, 69, 127
2, 478230, Note_on_c, 5, 53, 127
2, 478449, Note_off_c, 5, 53, 127
2, 478451, Note_on_c, 5, 53, 127
2, 478560, Note_off_c, 5, 53, 127
2, 478561, Note_on_c, 4, 52, 127
2, 478670, Note_off_c, 4, 52, 127
2, 478670, Note_off_c, 10, 69, 127
2, 478670, Note_off_c, 2, 74, 127
2, 478672, Note_on_c, 7, 67, 127
2, 478672, Note_on_c, 4, 76, 127
2, 478672, Note_on_c, 2, 50, 127
2, 478891, Note_off_c, 2, 50, 127
2, 478892, Note_on_c, 2, 50, 127
2, 479001, Note_off_c, 2, 50, 127
2, 479003, Note_on_c, 1, 49, 127
2, 479112, Note_off_c, 1, 49, 127
2, 479112, Note_off_c, 4, 76, 127
2, 479112, Note_off_c, 7, 67, 127
2, 479113, Note_on_c, 5, 65, 127
2, 479113, Note_on_c, 2, 50, 127
2, 479332, Note_off_c, 2, 50, 127
2, 479334, Note_on_c, 2, 50, 127
2, 479443, Note_off_c, 2, 50, 127
2, 479444, Note_on_c, 0, 48, 127
2, 479553, Note_off_c, 0, 48, 127
2, 479553, Note_off_c, 5, 65, 127
2, 479555, Note_on_c, 2, 74, 127
2, 479555, Note_on_c, 7, 67, 127
2, 479555, Note_on_c, 11, 46, 127
2, 479774, Note_off_c, 11, 46, 127
2, 479774, Note_off_c, 7, 67, 127
2, 479774, Note_off_c, 2, 74, 127
2, 479776, Note_on_c, 5, 65, 127
2, 479776, Note_on_c, 11, 46, 127
2, 479885, Note_off_c, 11, 46, 127
2, 479886, Note_on_c, 10, 45, 127
2, 479995, Note_off_c, 10, 45, 127
2, 479995, Note_off_c, 5, 65, 127
2, 479996, Note_on_c, 4, 64, 127
2, 479996, Note_on_c, 7, 43, 127
2, 480215, Note_off_c, 7, 43, 127
2, 480215, Note_off_c, 4, 64, 127
2, 480217, Note_on_c, 2, 62, 127
2, 480217, Note_on_c, 7, 43, 127
2, 480326, Note_off_c, 7, 43, 127
2, 480328, Note_on_c, 5, 41, 127
2, 480436, Note_off_c, 2, 62, 127
2, 480437, Note_off_c, 5, 41, 127
2, 480438, Note_on_c, 2, 74, 127
2, 480438, Note_on_c, 12, 71, 127
2, 480438, Note_on_c, 8, 68, 127
2, 480438, Note_on_c, 5, 77, 127
2, 480438, Note_on_c, 4, 40, 127
2, 480657, Note_off_c, 4, 40, 127
2, 480659, Note_on_c, 4, 52, 127
2, 480768, Note_off_c, 4, 52, 127
2, 480769, Note_on_c, 2, 50, 127
2, 480878, Note_off_c, 2, 50, 127
2, 480878, Note_off_c, 5, 77, 127
2, 480878, Note_off_c, 8, 68, 127
2, 480878, Note_off_c, 12, 71, 127
2, 480878, Note_off_c, 2, 74, 127
2, 480880, Note_on_c, 4, 76, 127
2, 480880, Note_on_c, 0, 72, 127
2, 480880, Note_on_c, 10, 69, 127
2, 480880, Note_on_c, 4, 64, 127
2, 480880, Note_on_c, 0, 48, 127
2, 481099, Note_off_c, 0, 48, 127
2, 481100, Note_on_c, 0, 48, 127
2, 481209, Note_off_c, 0, 48, 127
2, 481211, Note_on_c, 12, 47, 127
2, 481320, Note_off_c, 12, 47, 127
2, 481320, Note_off_c, 4, 64, 127
2, 481320, Note_off_c, 10, 69, 127
2, 481320, Note_off_c, 0, 72, 127
2, 481320, Note_off_c, 4, 76, 127
2, 481321, Note_on_c, 2, 74, 127
2, 481321, Note_on_c, 4, 64, 127
2, 481321, Note_on_c, 12, 71, 127
2, 481321, Note_on_c, 10, 45, 127
2, 481540, Note_off_c, 10, 45, 127
2, 481542, Note_on_c, 10, 45, 127
2, 481651, Note_off_c, 10, 45, 127
2, 481652, Note_on_c, 8, 44, 127
2, 481761, Note_off_c, 8, 44, 127
2, 481761, Note_off_c, 12, 71, 127
2, 481761, Note_off_c, 4, 64, 127
2, 481761, Note_off_c, 2, 74, 127
2, 481763, Note_on_c, 1, 73, 127
2, 481763, Note_on_c, 10, 45, 127
2, 481763, Note_on_c, 10, 57, 127
2, 481872, Note_off_c, 1, 73, 127
2, 481873, Note_on_c, 10, 69, 127
2, 481982, Note_off_c, 10, 69, 127
2, 481984, Note_on_c, 12, 71, 127
2, 482093, Note_off_c, 12, 71, 127
2, 482094, Note_on_c, 1, 73, 127
2, 482203, Note_off_c, 1, 73, 127
2, 482203, Note_off_c, 10, 57, 127
2, 482203, Note_off_c, 10, 45, 127
2, 482204, Note_on_c, 2, 74, 127
2, 482204, Note_on_c, 11, 58, 127
2, 482204, Note_on_c, 11, 46, 127
2, 482313, Note_off_c, 2, 74, 127
2, 482315, Note_on_c, 0, 72, 127
2, 482424, Note_off_c, 0, 72, 127
2, 482425, Note_on_c, 11, 70, 127
2, 482534, Note_off_c, 11, 70, 127
2, 482536, Note_on_c, 10, 69, 127
2, 482644, Note_off_c, 11, 46, 127
2, 482644, Note_off_c, 11, 58, 127
2, 482645, Note_off_c, 10, 69, 127
2, 482646, Note_on_c, 7, 67, 127
2, 482646, Note_on_c, 12, 59, 127
2, 482646, Note_on_c, 12, 47, 127
2, 482755, Note_off_c, 7, 67, 127
2, 482756, Note_on_c, 12, 71, 127
2, 482865, Note_off_c, 12, 71, 127
2, 482867, Note_on_c, 2, 74, 127
2, 482976, Note_off_c, 2, 74, 127
2, 482977, Note_on_c, 5, 77, 127
2, 483086, Note_off_c, 5, 77, 127
2, 483086, Note_off_c, 12, 47, 127
2, 483086, Note_off_c, 12, 59, 127
2, 483088, Note_on_c, 4, 76, 127
2, 483088, Note_on_c, 0, 48, 127
2, 483088, Note_on_c, 0, 72, 127
2, 483197, Note_off_c, 0, 72, 127
2, 483197, Note_off_c, 4, 76, 127
2, 483198, Note_on_c, 0, 84, 127
2, 483198, Note_on_c, 4, 76, 127
2, 483307, Note_off_c, 4, 76, 127
2, 483307, Note_off_c, 0, 84, 127
2, 483308, Note_on_c, 12, 83, 127
2, 483308, Note_on_c, 2, 74, 127
2, 483417, Note_off_c, 2, 74, 127
2, 483417, Note_off_c, 12, 83, 127
2, 483419, Note_on_c, 10, 81, 127
2, 483419, Note_on_c, 0, 72, 127
2, 483528, Note_off_c, 0, 72, 127
2, 483528, Note_off_c, 10, 81, 127
2, 483528, Note_off_c, 0, 48, 127
2, 483529, Note_on_c, 7, 79, 127
2, 483529, Note_on_c, 0, 48, 127
2, 483529, Note_on_c, 12, 71, 127
2, 483638, Note_off_c, 12, 71, 127
2, 483638, Note_off_c, 7, 79, 127
2, 483640, Note_on_c, 5, 77, 127
2, 483640, Note_on_c, 10, 69, 127
2, 483748, Note_off_c, 0, 48, 127
2, 483749, Note_off_c, 10, 69, 127
2, 483749, Note_off_c, 5, 77, 127
2, 483750, Note_on_c, 4, 76, 127
2, 483750, Note_on_c, 12, 47, 127
2, 483750, Note_on_c, 7, 67, 127
2, 483859, Note_off_c, 7, 67, 127
2, 483859, Note_off_c, 4, 76, 127
2, 483860, Note_on_c, 2, 74, 127
2, 483860, Note_on_c, 5, 65, 127
2, 483969, Note_off_c, 5, 65, 127
2, 483969, Note_off_c, 2, 74, 127
2, 483969, Note_off_c, 12, 47, 127
2, 483971, Note_on_c, 0, 72, 127
2, 483971, Note_on_c, 0, 48, 127
2, 483971, Note_on_c, 4, 64, 127
2, 484080, Note_off_c, 0, 72, 127
2, 484081, Note_on_c, 12, 71, 127
2, 484190, Note_off_c, 12, 71, 127
2, 484192, Note_on_c, 10, 69, 127
2, 484301, Note_off_c, 10, 69, 127
2, 484302, Note_on_c, 7, 67, 127
2, 484411, Note_off_c, 7, 67, 127
2, 484411, Note_off_c, 0, 48, 127
2, 484412, Note_on_c, 0, 72, 127
2, 484412, Note_on_c, 4, 40, 127
2, 484521, Note_off_c, 4, 64, 127
2, 484523, Note_on_c, 7, 67, 127
2, 484632, Note_off_c, 7, 67, 127
2, 484633, Note_on_c, 10, 69, 127
2, 484742, Note_off_c, 10, 69, 127
2, 484744, Note_on_c, 11, 70, 127
2, 484852, Note_off_c, 4, 40, 127
2, 484853, Note_off_c, 11, 70, 127
2, 484854, Note_on_c, 5, 41, 127
2, 484854, Note_on_c, 10, 69, 127
2, 484963, Note_off_c, 10, 69, 127
2, 484964, Note_on_c, 7, 67, 127
2, 485073, Note_off_c, 7, 67, 127
2, 485075, Note_on_c, 5, 65, 127
2, 485184, Note_off_c, 5, 65, 127
2, 485185, Note_on_c, 3, 63, 127
2, 485294, Note_off_c, 3, 63, 127
2, 485294, Note_off_c, 5, 41, 127
2, 485296, Note_on_c, 6, 42, 127
2, 485296, Note_on_c, 2, 62, 127
2, 485404, Note_off_c, 0, 72, 127
2, 485406, Note_on_c, 6, 66, 127
2, 485515, Note_off_c, 6, 66, 127
2, 485516, Note_on_c, 10, 69, 127
2, 485625, Note_off_c, 10, 69, 127
2, 485627, Note_on_c, 0, 72, 127
2, 485736, Note_off_c, 0, 72, 127
2, 485736, Note_off_c, 6, 42, 127
2, 485737, Note_on_c, 11, 70, 127
2, 485737, Note_on_c, 7, 43, 127
2, 485846, Note_off_c, 2, 62, 127
2, 485848, Note_on_c, 7, 67, 127
2, 485957, Note_off_c, 7, 67, 127
2, 485958, Note_on_c, 5, 65, 127
2, 486067, Note_off_c, 5, 65, 127
2, 486068, Note_on_c, 3, 63, 127
2, 486177, Note_off_c, 3, 63, 127
2, 486177, Note_off_c, 7, 43, 127
2, 486179, Note_on_c, 7, 43, 127
2, 486179, Note_on_c, 2, 62, 127
2, 486288, Note_off_c, 2, 62, 127
2, 486289, Note_on_c, 0, 60, 127
2, 486398, Note_off_c, 0, 60, 127
2, 486398, Note_off_c, 7, 43, 127
2, 486400, Note_on_c, 6, 42, 127
2, 486400, Note_on_c, 11, 58, 127
2, 486509, Note_off_c, 11, 58, 127
2, 486510, Note_on_c, 10, 57, 127
2, 486619, Note_off_c, 10, 57, 127
2, 486619, Note_off_c, 6, 42, 127
2, 486619, Note_off_c, 11, 70, 127
2, 486620, Note_on_c, 11, 58, 127
2, 486620, Note_on_c, 7, 43, 127
2, 486620, Note_on_c, 7, 55, 127
2, 486729, Note_off_c, 7, 55, 127
2, 486731, Note_on_c, 5, 53, 127
2, 486839, Note_off_c, 7, 43, 127
2, 486840, Note_off_c, 5, 53, 127
2, 486841, Note_on_c, 10, 45, 127
2, 486841, Note_on_c, 4, 52, 127
2, 486950, Note_off_c, 4, 52, 127
2, 486952, Note_on_c, 2, 50, 127
2, 487060, Note_off_c, 10, 45, 127
2, 487060, Note_off_c, 11, 58, 127
2, 487062, Note_on_c, 2, 62, 127
2, 487062, Note_on_c, 11, 46, 127
2, 487264, Note_off_c, 2, 62, 127
2, 487265, Note_on_c, 1, 61, 127
2, 487281, Note_off_c, 11, 46, 127
2, 487283, Note_off_c, 2, 50, 127
2, 487283, Note_on_c, 10, 45, 127
2, 487343, Note_off_c, 1, 61, 127
2, 487345, Note_on_c, 2, 62, 127
2, 487423, Note_off_c, 2, 62, 127
2, 487424, Note_on_c, 1, 61, 127
2, 487502, Note_off_c, 1, 61, 127
2, 487502, Note_off_c, 10, 45, 127
2, 487504, Note_on_c, 2, 62, 127
2, 487504, Note_on_c, 10, 45, 127
2, 487576, Note_off_c, 2, 62, 127
2, 487577, Note_on_c, 1, 61, 127
2, 487649, Note_off_c, 1, 61, 127
2, 487651, Note_on_c, 2, 62, 127
2, 487723, Note_off_c, 2, 62, 127
2, 487723, Note_off_c, 10, 45, 127
2, 487724, Note_on_c, 1, 61, 127
2, 487724, Note_on_c, 7, 43, 127
2, 487796, Note_off_c, 1, 61, 127
2, 487798, Note_on_c, 2, 62, 127
2, 487870, Note_off_c, 2, 62, 127
2, 487872, Note_on_c, 1, 61, 127
2, 487943, Note_off_c, 7, 43, 127
2, 487944, Note_off_c, 1, 61, 127
2, 487945, Note_on_c, 2, 62, 127
2, 487945, Note_on_c, 7, 43, 127
2, 488017, Note_off_c, 2, 62, 127
2, 488019, Note_on_c, 1, 61, 127
2, 488091, Note_off_c, 1, 61, 127
2, 488092, Note_on_c, 2, 62, 127
2, 488164, Note_off_c, 2, 62, 127
2, 488164, Note_off_c, 7, 43, 127
2, 488166, Note_on_c, 1, 61, 127
2, 488166, Note_on_c, 5, 41, 127
2, 488238, Note_off_c, 1, 61, 127
2, 488240, Note_on_c, 12, 59, 127
2, 488312, Note_off_c, 12, 59, 127
2, 488313, Note_on_c, 1, 61, 127
2, 488385, Note_off_c, 1, 61, 127
2, 488385, Note_off_c, 5, 41, 127
2, 488387, Note_on_c, 2, 62, 127
2, 488387, Note_on_c, 5, 41, 127
2, 488606, Note_off_c, 5, 41, 127
2, 488608, Note_on_c, 10, 69, 127
2, 488608, Note_on_c, 4, 40, 127
2, 488717, Note_off_c, 10, 69, 127
2, 488718, Note_on_c, 0, 72, 127
2, 488827, Note_off_c, 0, 72, 127
2, 488827, Note_off_c, 4, 40, 127
2, 488828, Note_on_c, 11, 70, 127
2, 488828, Note_on_c, 7, 43, 127
2, 489047, Note_off_c, 7, 43, 127
2, 489047, Note_off_c, 11, 70, 127
2, 489049, Note_on_c, 11, 70, 127
2, 489049, Note_on_c, 5, 41, 127
2, 489158, Note_off_c, 11, 70, 127
2, 489160, Note_on_c, 10, 69, 127
2, 489268, Note_off_c, 5, 41, 127
2, 489269, Note_off_c, 10, 69, 127
2, 489270, Note_on_c, 7, 67, 127
2, 489270, Note_on_c, 4, 40, 127
2, 489489, Note_off_c, 4, 40, 127
2, 489489, Note_off_c, 7, 67, 127
2, 489491, Note_on_c, 7, 67, 127
2, 489491, Note_on_c, 2, 38, 127
2, 489600, Note_off_c, 7, 67, 127
2, 489601, Note_on_c, 5, 65, 127
2, 489710, Note_off_c, 5, 65, 127
2, 489710, Note_off_c, 2, 38, 127
2, 489712, Note_on_c, 7, 67, 127
2, 489712, Note_on_c, 4, 40, 127
2, 489931, Note_off_c, 7, 67, 127
2, 489932, Note_on_c, 7, 67, 127
2, 490041, Note_off_c, 7, 67, 127
2, 490043, Note_on_c, 11, 70, 127
2, 490146, Note_off_c, 2, 62, 127
2, 490152, Note_off_c, 11, 70, 127
2, 490153, Note_on_c, 10, 69, 127
2, 490153, Note_on_c, 1, 61, 127
2, 490262, Note_off_c, 4, 40, 127
2, 490264, Note_on_c, 4, 40, 127
2, 490372, Note_off_c, 10, 69, 127
2, 490373, Note_off_c, 4, 40, 127
2, 490374, Note_on_c, 10, 69, 127
2, 490374, Note_on_c, 5, 41, 127
2, 490483, Note_off_c, 5, 41, 127
2, 490483, Note_off_c, 10, 69, 127
2, 490484, Note_on_c, 7, 67, 127
2, 490484, Note_on_c, 7, 43, 127
2, 490593, Note_off_c, 7, 43, 127
2, 490593, Note_off_c, 7, 67, 127
2, 490595, Note_on_c, 5, 65, 127
2, 490595, Note_on_c, 10, 45, 127
2, 490704, Note_off_c, 10, 45, 127
2, 490705, Note_on_c, 7, 43, 127
2, 490814, Note_off_c, 7, 43, 127
2, 490814, Note_off_c, 5, 65, 127
2, 490816, Note_on_c, 5, 65, 127
2, 490816, Note_on_c, 10, 45, 127
2, 490925, Note_off_c, 5, 65, 127
2, 490926, Note_on_c, 4, 64, 127
2, 491035, Note_off_c, 4, 64, 127
2, 491035, Note_off_c, 10, 45, 127
2, 491035, Note_off_c, 1, 61, 127
2, 491036, Note_on_c, 5, 65, 127
2, 491036, Note_on_c, 2, 38, 127
2, 491145, Note_off_c, 2, 38, 127
2, 491147, Note_on_c, 2, 50, 127
2, 491147, Note_on_c, 4, 64, 127
2, 491256, Note_off_c, 4, 64, 127
2, 491256, Note_off_c, 2, 50, 127
2, 491257, Note_on_c, 4, 52, 127
2, 491257, Note_on_c, 2, 62, 127
2, 491366, Note_off_c, 2, 62, 127
2, 491366, Note_off_c, 4, 52, 127
2, 491368, Note_on_c, 5, 53, 127
2, 491368, Note_on_c, 0, 60, 127
2, 491477, Note_off_c, 0, 60, 127
2, 491477, Note_off_c, 5, 53, 127
2, 491478, Note_on_c, 7, 55, 127
2, 491478, Note_on_c, 12, 59, 127
2, 491586, Note_off_c, 5, 65, 127
2, 491588, Note_on_c, 0, 60, 127
2, 491697, Note_off_c, 0, 60, 127
2, 491697, Note_off_c, 7, 55, 127
2, 491699, Note_on_c, 2, 62, 127
2, 491699, Note_on_c, 5, 53, 127
2, 491808, Note_off_c, 2, 62, 127
2, 491809, Note_on_c, 4, 64, 127
2, 491918, Note_off_c, 4, 64, 127
2, 491918, Note_off_c, 5, 53, 127
2, 491920, Note_on_c, 5, 65, 127
2, 491920, Note_on_c, 4, 52, 127
2, 492029, Note_off_c, 5, 65, 127
2, 492030, Note_on_c, 10, 69, 127
2, 492139, Note_off_c, 10, 69, 127
2, 492139, Note_off_c, 4, 52, 127
2, 492140, Note_on_c, 7, 67, 127
2, 492140, Note_on_c, 2, 50, 127
2, 492249, Note_off_c, 7, 67, 127
2, 492251, Note_on_c, 5, 65, 127
2, 492359, Note_off_c, 2, 50, 127
2, 492360, Note_off_c, 5, 65, 127
2, 492360, Note_off_c, 12, 59, 127
2, 492361, Note_on_c, 4, 64, 127
2, 492361, Note_on_c, 0, 48, 127
2, 492472, Note_on_c, 2, 62, 127
2, 492580, Note_off_c, 0, 48, 127
2, 492581, Note_off_c, 2, 62, 127
2, 492582, Note_on_c, 2, 50, 127
2, 492582, Note_on_c, 0, 60, 127
2, 492691, Note_off_c, 0, 60, 127
2, 492691, Note_off_c, 2, 50, 127
2, 492692, Note_on_c, 4, 52, 127
2, 492692, Note_on_c, 11, 58, 127
2, 492801, Note_off_c, 11, 58, 127
2, 492801, Note_off_c, 4, 52, 127
2, 492803, Note_on_c, 5, 53, 127
2, 492803, Note_on_c, 10, 57, 127
2, 492911, Note_off_c, 4, 64, 127
2, 492913, Note_on_c, 11, 58, 127
2, 493022, Note_off_c, 11, 58, 127
2, 493022, Note_off_c, 5, 53, 127
2, 493024, Note_on_c, 0, 60, 127
2, 493024, Note_on_c, 3, 51, 127
2, 493133, Note_off_c, 0, 60, 127
2, 493134, Note_on_c, 2, 62, 127
2, 493243, Note_off_c, 2, 62, 127
2, 493243, Note_off_c, 3, 51, 127
2, 493244, Note_on_c, 3, 63, 127
2, 493244, Note_on_c, 2, 50, 127
2, 493353, Note_off_c, 3, 63, 127
2, 493355, Note_on_c, 7, 67, 127
2, 493463, Note_off_c, 2, 50, 127
2, 493464, Note_off_c, 7, 67, 127
2, 493465, Note_on_c, 5, 65, 127
2, 493465, Note_on_c, 0, 48, 127
2, 493574, Note_off_c, 5, 65, 127
2, 493576, Note_on_c, 3, 63, 127
2, 493684, Note_off_c, 0, 48, 127
2, 493685, Note_off_c, 3, 63, 127
2, 493685, Note_off_c, 10, 57, 127
2, 493686, Note_on_c, 2, 62, 127
2, 493686, Note_on_c, 11, 46, 127
2, 493795, Note_off_c, 11, 46, 127
2, 493796, Note_on_c, 10, 45, 127
2, 493796, Note_on_c, 0, 60, 127
2, 493905, Note_off_c, 0, 60, 127
2, 493905, Note_off_c, 10, 45, 127
2, 493907, Note_on_c, 7, 43, 127
2, 493907, Note_on_c, 11, 58, 127
2, 494016, Note_off_c, 11, 58, 127
2, 494016, Note_off_c, 7, 43, 127
2, 494017, Note_on_c, 5, 41, 127
2, 494017, Note_on_c, 10, 57, 127
2, 494126, Note_off_c, 10, 57, 127
2, 494126, Note_off_c, 5, 41, 127
2, 494128, Note_on_c, 4, 40, 127
2, 494128, Note_on_c, 7, 55, 127
2, 494236, Note_off_c, 2, 62, 127
2, 494237, Note_off_c, 4, 40, 127
2, 494238, Note_on_c, 2, 62, 127
2, 494238, Note_on_c, 6, 42, 127
2, 494347, Note_off_c, 6, 42, 127
2, 494347, Note_off_c, 2, 62, 127
2, 494348, Note_on_c, 4, 64, 127
2, 494348, Note_on_c, 7, 43, 127
2, 494457, Note_off_c, 7, 43, 127
2, 494457, Note_off_c, 4, 64, 127
2, 494459, Note_on_c, 6, 66, 127
2, 494459, Note_on_c, 10, 45, 127
2, 494568, Note_off_c, 10, 45, 127
2, 494568, Note_off_c, 6, 66, 127
2, 494569, Note_on_c, 7, 67, 127
2, 494569, Note_on_c, 11, 46, 127
2, 494677, Note_off_c, 7, 55, 127
2, 494678, Note_off_c, 11, 46, 127
2, 494678, Note_off_c, 7, 67, 127
2, 494680, Note_on_c, 11, 70, 127
2, 494680, Note_on_c, 2, 50, 127
2, 494789, Note_off_c, 2, 50, 127
2, 494789, Note_off_c, 11, 70, 127
2, 494790, Note_on_c, 10, 69, 127
2, 494790, Note_on_c, 0, 48, 127
2, 494899, Note_off_c, 0, 48, 127
2, 494899, Note_off_c, 10, 69, 127
2, 494900, Note_on_c, 7, 67, 127
2, 494900, Note_on_c, 11, 46, 127
2, 495009, Note_off_c, 11, 46, 127
2, 495009, Note_off_c, 7, 67, 127
2, 495011, Note_on_c, 6, 66, 127
2, 495011, Note_on_c, 10, 45, 127
2, 495120, Note_off_c, 10, 45, 127
2, 495120, Note_off_c, 6, 66, 127
2, 495121, Note_on_c, 7, 67, 127
2, 495121, Note_on_c, 7, 43, 127
2, 495230, Note_off_c, 7, 43, 127
2, 495230, Note_off_c, 7, 67, 127
2, 495232, Note_on_c, 10, 69, 127
2, 495232, Note_on_c, 6, 42, 127
2, 495341, Note_off_c, 6, 42, 127
2, 495341, Note_off_c, 10, 69, 127
2, 495342, Note_on_c, 11, 70, 127
2, 495342, Note_on_c, 4, 40, 127
2, 495451, Note_off_c, 4, 40, 127
2, 495451, Note_off_c, 11, 70, 127
2, 495452, Note_on_c, 0, 72, 127
2, 495452, Note_on_c, 2, 38, 127
2, 495561, Note_off_c, 0, 72, 127
2, 495562, Note_off_c, 2, 38, 127
2, 495563, Note_on_c, 11, 70, 127
2, 495563, Note_on_c, 4, 40, 127
2, 495672, Note_off_c, 4, 40, 127
2, 495672, Note_off_c, 11, 70, 127
2, 495673, Note_on_c, 10, 69, 127
2, 495673, Note_on_c, 6, 42, 127
2, 495782, Note_off_c, 6, 42, 127
2, 495782, Note_off_c, 10, 69, 127
2, 495784, Note_on_c, 11, 70, 127
2, 495784, Note_on_c, 7, 43, 127
2, 495893, Note_off_c, 7, 43, 127
2, 495893, Note_off_c, 11, 70, 127
2, 495894, Note_on_c, 0, 72, 127
2, 495894, Note_on_c, 10, 45, 127
2, 496003, Note_off_c, 10, 45, 127
2, 496003, Note_off_c, 0, 72, 127
2, 496004, Note_on_c, 3, 75, 127
2, 496004, Note_on_c, 0, 48, 127
2, 496113, Note_off_c, 0, 48, 127
2, 496113, Note_off_c, 3, 75, 127
2, 496115, Note_on_c, 2, 74, 127
2, 496115, Note_on_c, 11, 46, 127
2, 496224, Note_off_c, 11, 46, 127
2, 496224, Note_off_c, 2, 74, 127
2, 496225, Note_on_c, 0, 72, 127
2, 496225, Note_on_c, 10, 45, 127
2, 496334, Note_off_c, 10, 45, 127
2, 496334, Note_off_c, 0, 72, 127
2, 496336, Note_on_c, 11, 70, 127
2, 496336, Note_on_c, 7, 43, 127
2, 496446, Note_on_c, 10, 69, 127
2, 496555, Note_off_c, 10, 69, 127
2, 496555, Note_off_c, 7, 43, 127
2, 496556, Note_on_c, 10, 45, 127
2, 496556, Note_on_c, 7, 67, 127
2, 496665, Note_off_c, 7, 67, 127
2, 496665, Note_off_c, 10, 45, 127
2, 496667, Note_on_c, 11, 46, 127
2, 496667, Note_on_c, 5, 65, 127
2, 496776, Note_off_c, 5, 65, 127
2, 496776, Note_off_c, 11, 46, 127
2, 496777, Note_on_c, 0, 48, 127
2, 496777, Note_on_c, 4, 64, 127
2, 496886, Note_off_c, 11, 70, 127
2, 496888, Note_on_c, 5, 65, 127
2, 496996, Note_off_c, 0, 48, 127
2, 496997, Note_off_c, 5, 65, 127
2, 496998, Note_on_c, 7, 67, 127
2, 496998, Note_on_c, 11, 46, 127
2, 497107, Note_off_c, 7, 67, 127
2, 497108, Note_on_c, 10, 69, 127
2, 497217, Note_off_c, 10, 69, 127
2, 497217, Note_off_c, 11, 46, 127
2, 497219, Note_on_c, 11, 70, 127
2, 497219, Note_on_c, 10, 45, 127
2, 497328, Note_off_c, 11, 70, 127
2, 497329, Note_on_c, 2, 74, 127
2, 497438, Note_off_c, 2, 74, 127
2, 497438, Note_off_c, 10, 45, 127
2, 497440, Note_on_c, 0, 72, 127
2, 497440, Note_on_c, 7, 43, 127
2, 497549, Note_off_c, 0, 72, 127
2, 497550, Note_on_c, 11, 70, 127
2, 497659, Note_off_c, 11, 70, 127
2, 497659, Note_off_c, 7, 43, 127
2, 497659, Note_off_c, 4, 64, 127
2, 497660, Note_on_c, 10, 69, 127
2, 497660, Note_on_c, 5, 41, 127
2, 497769, Note_off_c, 5, 41, 127
2, 497771, Note_on_c, 4, 52, 127
2, 497771, Note_on_c, 7, 67, 127
2, 497880, Note_off_c, 7, 67, 127
2, 497880, Note_off_c, 4, 52, 127
2, 497881, Note_on_c, 2, 50, 127
2, 497881, Note_on_c, 5, 65, 127
2, 497990, Note_off_c, 5, 65, 127
2, 497990, Note_off_c, 2, 50, 127
2, 497992, Note_on_c, 0, 48, 127
2, 497992, Note_on_c, 4, 64, 127
2, 498101, Note_off_c, 4, 64, 127
2, 498101, Note_off_c, 0, 48, 127
2, 498102, Note_on_c, 12, 47, 127
2, 498102, Note_on_c, 2, 62, 127
2, 498210, Note_off_c, 10, 69, 127
2, 498211, Note_off_c, 12, 47, 127
2, 498212, Note_on_c, 10, 69, 127
2, 498212, Note_on_c, 1, 49, 127
2, 498321, Note_off_c, 1, 49, 127
2, 498321, Note_off_c, 10, 69, 127
2, 498323, Note_on_c, 12, 71, 127
2, 498323, Note_on_c, 2, 50, 127
2, 498432, Note_off_c, 2, 50, 127
2, 498432, Note_off_c, 12, 71, 127
2, 498433, Note_on_c, 1, 73, 127
2, 498433, Note_on_c, 4, 52, 127
2, 498542, Note_off_c, 4, 52, 127
2, 498542, Note_off_c, 1, 73, 127
2, 498544, Note_on_c, 2, 74, 127
2, 498544, Note_on_c, 5, 53, 127
2, 498653, Note_off_c, 5, 53, 127
2, 498653, Note_off_c, 2, 74, 127
2, 498654, Note_off_c, 2, 62, 127
2, 498654, Note_on_c, 5, 77, 127
2, 498654, Note_on_c, 10, 57, 127
2, 498763, Note_off_c, 10, 57, 127
2, 498763, Note_off_c, 5, 77, 127
2, 498764, Note_on_c, 4, 76, 127
2, 498764, Note_on_c, 7, 55, 127
2, 498873, Note_off_c, 7, 55, 127
2, 498873, Note_off_c, 4, 76, 127
2, 498875, Note_on_c, 2, 74, 127
2, 498875, Note_on_c, 5, 53, 127
2, 498984, Note_off_c, 5, 53, 127
2, 498984, Note_off_c, 2, 74, 127
2, 498985, Note_on_c, 1, 73, 127
2, 498985, Note_on_c, 4, 52, 127
2, 499094, Note_off_c, 1, 73, 127
2, 499096, Note_on_c, 2, 74, 127
2, 499096, Note_on_c, 2, 50, 127
2, 499098, Note_off_c, 4, 52, 127
2, 499205, Note_off_c, 2, 50, 127
2, 499205, Note_off_c, 2, 74, 127
2, 499206, Note_on_c, 4, 76, 127
2, 499206, Note_on_c, 1, 49, 127
2, 499315, Note_off_c, 1, 49, 127
2, 499315, Note_off_c, 4, 76, 127
2, 499316, Note_on_c, 5, 77, 127
2, 499316, Note_on_c, 12, 47, 127
2, 499425, Note_off_c, 12, 47, 127
2, 499425, Note_off_c, 5, 77, 127
2, 499427, Note_on_c, 7, 79, 127
2, 499427, Note_on_c, 10, 45, 127
2, 499536, Note_off_c, 10, 45, 127
2, 499536, Note_off_c, 7, 79, 127
2, 499537, Note_on_c, 5, 77, 127
2, 499537, Note_on_c, 12, 47, 127
2, 499646, Note_off_c, 12, 47, 127
2, 499646, Note_off_c, 5, 77, 127
2, 499648, Note_on_c, 4, 76, 127
2, 499648, Note_on_c, 1, 49, 127
2, 499757, Note_off_c, 1, 49, 127
2, 499757, Note_off_c, 4, 76, 127
2, 499758, Note_on_c, 5, 77, 127
2, 499758, Note_on_c, 2, 50, 127
2, 499867, Note_off_c, 2, 50, 127
2, 499867, Note_off_c, 5, 77, 127
2, 499868, Note_on_c, 7, 79, 127
2, 499868, Note_on_c, 4, 52, 127
2, 499977, Note_off_c, 4, 52, 127
2, 499977, Note_off_c, 7, 79, 127
2, 499979, Note_on_c, 11, 82, 127
2, 499979, Note_on_c, 7, 55, 127
2, 500088, Note_off_c, 7, 55, 127
2, 500088, Note_off_c, 11, 82, 127
2, 500089, Note_on_c, 10, 81, 127
2, 500089, Note_on_c, 5, 53, 127
2, 500198, Note_off_c, 5, 53, 127
2, 500198, Note_off_c, 10, 81, 127
2, 500200, Note_on_c, 7, 79, 127
2, 500200, Note_on_c, 4, 52, 127
2, 500309, Note_off_c, 4, 52, 127
2, 500309, Note_off_c, 7, 79, 127
2, 500310, Note_on_c, 10, 81, 127
2, 500310, Note_on_c, 2, 50, 127
2, 500310, Note_on_c, 5, 77, 127
2, 500422, Note_off_c, 5, 77, 127
2, 500424, Note_on_c, 5, 77, 127
2, 500536, Note_off_c, 5, 77, 127
2, 500538, Note_on_c, 4, 76, 127
2, 500650, Note_off_c, 4, 76, 127
2, 500651, Note_on_c, 7, 79, 127
2, 500763, Note_off_c, 7, 79, 127
2, 500764, Note_off_c, 10, 81, 127
2, 500765, Note_on_c, 11, 82, 127
2, 500765, Note_on_c, 5, 77, 127
2, 500877, Note_off_c, 5, 77, 127
2, 500878, Note_off_c, 2, 50, 127
2, 500879, Note_on_c, 4, 52, 127
2, 500879, Note_on_c, 7, 79, 127
2, 500991, Note_off_c, 7, 79, 127
2, 500991, Note_off_c, 4, 52, 127
2, 500993, Note_on_c, 5, 53, 127
2, 500993, Note_on_c, 10, 81, 127
2, 501105, Note_off_c, 10, 81, 127
2, 501105, Note_off_c, 5, 53, 127
2, 501107, Note_on_c, 4, 52, 127
2, 501107, Note_on_c, 7, 79, 127
2, 501219, Note_off_c, 7, 79, 127
2, 501219, Note_off_c, 4, 52, 127
2, 501219, Note_off_c, 11, 82, 127
2, 501221, Note_on_c, 12, 83, 127
2, 501221, Note_on_c, 2, 50, 127
2, 501221, Note_on_c, 5, 77, 127
2, 501333, Note_off_c, 5, 77, 127
2, 501333, Note_off_c, 2, 50, 127
2, 501335, Note_on_c, 4, 52, 127
2, 501335, Note_on_c, 4, 76, 127
2, 501447, Note_off_c, 4, 76, 127
2, 501447, Note_off_c, 4, 52, 127
2, 501448, Note_on_c, 5, 53, 127
2, 501448, Note_on_c, 2, 74, 127
2, 501560, Note_off_c, 2, 74, 127
2, 501560, Note_off_c, 5, 53, 127
2, 501562, Note_on_c, 8, 56, 127
2, 501562, Note_on_c, 5, 77, 127
2, 501674, Note_off_c, 5, 77, 127
2, 501674, Note_off_c, 8, 56, 127
2, 501675, Note_off_c, 12, 83, 127
2, 501676, Note_on_c, 0, 84, 127
2, 501676, Note_on_c, 10, 57, 127
2, 501676, Note_on_c, 4, 76, 127
2, 501791, Note_off_c, 4, 76, 127
2, 501792, Note_on_c, 10, 81, 127
2, 501907, Note_off_c, 10, 81, 127
2, 501908, Note_on_c, 7, 79, 127
2, 502023, Note_off_c, 7, 79, 127
2, 502025, Note_on_c, 5, 77, 127
2, 502139, Note_off_c, 0, 84, 127
2, 502140, Note_off_c, 5, 77, 127
2, 502141, Note_on_c, 0, 84, 127
2, 502141, Note_on_c, 10, 45, 127
2, 502141, Note_on_c, 4, 76, 127
2, 502256, Note_off_c, 4, 76, 127
2, 502257, Note_on_c, 10, 81, 127
2, 502372, Note_off_c, 10, 81, 127
2, 502372, Note_off_c, 0, 84, 127
2, 502373, Note_on_c, 12, 83, 127
2, 502373, Note_on_c, 2, 74, 127
2, 502488, Note_off_c, 2, 74, 127
2, 502489, Note_on_c, 8, 80, 127
2, 502604, Note_off_c, 8, 80, 127
2, 502604, Note_off_c, 12, 83, 127
2, 502605, Note_on_c, 0, 84, 127
2, 502605, Note_on_c, 4, 76, 127
2, 502720, Note_off_c, 4, 76, 127
2, 502721, Note_on_c, 10, 81, 127
2, 502836, Note_off_c, 10, 81, 127
2, 502838, Note_on_c, 4, 76, 127
2, 502953, Note_off_c, 4, 76, 127
2, 502954, Note_on_c, 2, 74, 127
2, 503067, Note_off_c, 10, 57, 127
2, 503068, Note_off_c, 0, 84, 127
2, 503069, Note_off_c, 2, 74, 127
2, 503069, Note_off_c, 10, 45, 127
2, 503070, Note_on_c, 4, 76, 127
2, 503070, Note_on_c, 10, 57, 127
2, 503070, Note_on_c, 10, 45, 127
2, 503070, Note_on_c, 0, 72, 127
2, 503185, Note_off_c, 0, 72, 127
2, 503186, Note_on_c, 2, 74, 127
2, 503301, Note_off_c, 2, 74, 127
2, 503302, Note_on_c, 0, 72, 127
2, 503417, Note_off_c, 0, 72, 127
2, 503418, Note_on_c, 11, 70, 127
2, 503533, Note_off_c, 11, 70, 127
2, 503533, Note_off_c, 4, 76, 127
2, 503535, Note_on_c, 5, 77, 127
2, 503535, Note_on_c, 10, 69, 127
2, 503650, Note_off_c, 10, 69, 127
2, 503651, Note_on_c, 0, 72, 127
2, 503766, Note_off_c, 0, 72, 127
2, 503767, Note_on_c, 11, 70, 127
2, 503882, Note_off_c, 11, 70, 127
2, 503883, Note_on_c, 10, 69, 127
2, 503998, Note_off_c, 10, 69, 127
2, 503998, Note_off_c, 5, 77, 127
2, 503999, Note_on_c, 6, 78, 127
2, 503999, Note_on_c, 2, 74, 127
2, 504114, Note_off_c, 2, 74, 127
2, 504115, Note_on_c, 3, 75, 127
2, 504230, Note_off_c, 3, 75, 127
2, 504231, Note_on_c, 2, 74, 127
2, 504346, Note_off_c, 2, 74, 127
2, 504348, Note_on_c, 0, 72, 127
2, 504462, Note_off_c, 6, 78, 127
2, 504462, Note_off_c, 10, 45, 127
2, 504462, Note_off_c, 10, 57, 127
2, 504463, Note_off_c, 0, 72, 127
2, 504464, Note_on_c, 7, 79, 127
2, 504464, Note_on_c, 10, 57, 127
2, 504464, Note_on_c, 10, 45, 127
2, 504464, Note_on_c, 12, 71, 127
2, 504579, Note_off_c, 12, 71, 127
2, 504580, Note_on_c, 2, 74, 127
2, 504695, Note_off_c, 2, 74, 127
2, 504696, Note_on_c, 0, 72, 127
2, 504811, Note_off_c, 0, 72, 127
2, 504812, Note_on_c, 12, 71, 127
2, 504927, Note_off_c, 12, 71, 127
2, 504927, Note_off_c, 7, 79, 127
2, 504928, Note_on_c, 7, 79, 127
2, 504928, Note_on_c, 4, 76, 127
2, 505043, Note_off_c, 4, 76, 127
2, 505044, Note_on_c, 5, 77, 127
2, 505159, Note_off_c, 5, 77, 127
2, 505159, Note_off_c, 7, 79, 127
2, 505161, Note_on_c, 6, 78, 127
2, 505161, Note_on_c, 4, 76, 127
2, 505276, Note_off_c, 4, 76, 127
2, 505277, Note_on_c, 2, 74, 127
2, 505392, Note_off_c, 2, 74, 127
2, 505392, Note_off_c, 6, 78, 127
2, 505393, Note_on_c, 7, 79, 127
2, 505393, Note_on_c, 1, 73, 127
2, 505508, Note_off_c, 1, 73, 127
2, 505509, Note_on_c, 2, 74, 127
2, 505624, Note_off_c, 2, 74, 127
2, 505624, Note_off_c, 7, 79, 127
2, 505625, Note_on_c, 10, 81, 127
2, 505625, Note_on_c, 1, 73, 127
2, 505740, Note_off_c, 1, 73, 127
2, 505741, Note_on_c, 12, 71, 127
2, 505856, Note_off_c, 12, 71, 127
2, 505856, Note_off_c, 10, 81, 127
2, 505856, Note_off_c, 10, 45, 127
2, 505856, Note_off_c, 10, 57, 127
2, 505858, Note_on_c, 11, 82, 127
2, 505858, Note_on_c, 7, 79, 127
2, 505858, Note_on_c, 1, 73, 127
2, 505858, Note_on_c, 4, 76, 127
2, 505858, Note_on_c, 10, 57, 127
2, 505858, Note_on_c, 10, 69, 127
2, 506100, Note_off_c, 10, 69, 127
2, 506100, Note_off_c, 10, 57, 127
2, 506101, Note_on_c, 10, 57, 127
2, 506101, Note_on_c, 10, 69, 127
2, 506221, Note_off_c, 10, 69, 127
2, 506221, Note_off_c, 10, 57, 127
2, 506223, Note_on_c, 7, 55, 127
2, 506223, Note_on_c, 7, 67, 127
2, 506343, Note_off_c, 7, 67, 127
2, 506343, Note_off_c, 7, 55, 127
2, 506344, Note_off_c, 4, 76, 127
2, 506344, Note_off_c, 1, 73, 127
2, 506344, Note_off_c, 7, 79, 127
2, 506344, Note_off_c, 11, 82, 127
2, 506345, Note_on_c, 10, 69, 127
2, 506345, Note_on_c, 2, 74, 127
2, 506345, Note_on_c, 10, 81, 127
2, 506345, Note_on_c, 5, 77, 127
2, 506345, Note_on_c, 5, 53, 127
2, 506345, Note_on_c, 5, 65, 127
2, 506587, Note_off_c, 5, 65, 127
2, 506587, Note_off_c, 5, 53, 127
2, 506589, Note_on_c, 5, 53, 127
2, 506589, Note_on_c, 5, 65, 127
2, 506709, Note_off_c, 5, 65, 127
2, 506709, Note_off_c, 5, 53, 127
2, 506711, Note_on_c, 4, 52, 127
2, 506711, Note_on_c, 4, 64, 127
2, 506831, Note_off_c, 4, 64, 127
2, 506831, Note_off_c, 4, 52, 127
2, 506831, Note_off_c, 5, 77, 127
2, 506831, Note_off_c, 10, 81, 127
2, 506831, Note_off_c, 2, 74, 127
2, 506831, Note_off_c, 10, 69, 127
2, 506833, Note_on_c, 11, 70, 127
2, 506833, Note_on_c, 7, 79, 127
2, 506833, Note_on_c, 4, 76, 127
2, 506833, Note_on_c, 2, 50, 127
2, 506833, Note_on_c, 2, 62, 127
2, 507075, Note_off_c, 2, 62, 127
2, 507075, Note_off_c, 2, 50, 127
2, 507077, Note_on_c, 2, 50, 127
2, 507077, Note_on_c, 2, 62, 127
2, 507197, Note_off_c, 2, 62, 127
2, 507197, Note_off_c, 2, 50, 127
2, 507198, Note_on_c, 1, 49, 127
2, 507198, Note_on_c, 1, 61, 127
2, 507318, Note_off_c, 1, 61, 127
2, 507318, Note_off_c, 1, 49, 127
2, 507319, Note_off_c, 4, 76, 127
2, 507319, Note_off_c, 7, 79, 127
2, 507319, Note_off_c, 11, 70, 127
2, 507320, Note_on_c, 10, 69, 127
2, 507320, Note_on_c, 2, 74, 127
2, 507320, Note_on_c, 5, 77, 127
2, 507320, Note_on_c, 2, 50, 127
2, 507320, Note_on_c, 2, 62, 127
2, 507570, Note_off_c, 2, 62, 127
2, 507570, Note_off_c, 2, 50, 127
2, 507572, Note_on_c, 2, 50, 127
2, 507572, Note_on_c, 2, 62, 127
2, 507696, Note_off_c, 2, 62, 127
2, 507696, Note_off_c, 2, 50, 127
2, 507698, Note_on_c, 0, 48, 127
2, 507698, Note_on_c, 0, 60, 127
2, 507821, Note_off_c, 5, 77, 127
2, 507821, Note_off_c, 2, 74, 127
2, 507821, Note_off_c, 10, 69, 127
2, 507822, Note_off_c, 0, 60, 127
2, 507822, Note_off_c, 0, 48, 127
2, 507823, Note_on_c, 7, 67, 127
2, 507823, Note_on_c, 2, 74, 127
2, 507823, Note_on_c, 7, 79, 127
2, 507823, Note_on_c, 11, 46, 127
2, 507823, Note_on_c, 11, 58, 127
2, 508073, Note_off_c, 11, 58, 127
2, 508073, Note_off_c, 11, 46, 127
2, 508073, Note_off_c, 7, 79, 127
2, 508073, Note_off_c, 2, 74, 127
2, 508073, Note_off_c, 7, 67, 127
2, 508075, Note_on_c, 10, 69, 127
2, 508075, Note_on_c, 5, 77, 127
2, 508075, Note_on_c, 2, 74, 127
2, 508075, Note_on_c, 11, 46, 127
2, 508075, Note_on_c, 11, 58, 127
2, 508199, Note_off_c, 11, 58, 127
2, 508199, Note_off_c, 11, 46, 127
2, 508200, Note_on_c, 10, 45, 127
2, 508200, Note_on_c, 10, 57, 127
2, 508324, Note_off_c, 10, 57, 127
2, 508324, Note_off_c, 10, 45, 127
2, 508324, Note_off_c, 2, 74, 127
2, 508324, Note_off_c, 5, 77, 127
2, 508324, Note_off_c, 10, 69, 127
2, 508325, Note_on_c, 11, 70, 127
2, 508325, Note_on_c, 4, 76, 127
2, 508325, Note_on_c, 1, 73, 127
2, 508325, Note_on_c, 7, 43, 127
2, 508325, Note_on_c, 7, 55, 127
2, 508655, Note_off_c, 7, 55, 127
2, 508655, Note_off_c, 7, 43, 127
2, 508655, Note_off_c, 1, 73, 127
2, 508655, Note_off_c, 4, 76, 127
2, 508655, Note_off_c, 11, 70, 127
2, 508658, Note_on_c, 2, 74, 127
2, 508658, Note_on_c, 10, 69, 127
2, 508658, Note_on_c, 7, 43, 127
2, 508658, Note_on_c, 7, 55, 127
2, 508848, Note_off_c, 7, 55, 127
2, 508848, Note_off_c, 7, 43, 127
2, 508851, Note_on_c, 5, 41, 127
2, 508851, Note_on_c, 5, 53, 127
2, 509041, Note_off_c, 5, 53, 127
2, 509041, Note_off_c, 5, 41, 127
2, 509042, Note_off_c, 10, 69, 127
2, 509042, Note_off_c, 2, 74, 127
2, 509044, Note_on_c, 4, 76, 127
2, 509044, Note_on_c, 2, 74, 127
2, 509044, Note_on_c, 11, 70, 127
2, 509044, Note_on_c, 4, 64, 127
2, 509044, Note_on_c, 11, 46, 127
2, 509044, Note_on_c, 7, 43, 127
2, 509044, Note_on_c, 7, 55, 127
2, 509044, Note_on_c, 4, 52, 127
2, 510544, Note_off_c, 4, 52, 127
2, 510544, Note_off_c, 7, 55, 127
2, 510544, Note_off_c, 7, 43, 127
2, 510544, Note_off_c, 11, 46, 127
2, 510544, Note_off_c, 4, 64, 127
2, 510544, Note_off_c, 11, 70, 127
2, 510544, Note_off_c, 2, 74, 127
2, 510544, Note_off_c, 4, 76, 127
2, 510789, Note_on_c, 10, 45, 127
2, 510789, Note_on_c, 10, 33, 127
2, 511109, Note_off_c, 10, 33, 127
2, 511109, Note_off_c, 10, 45, 127
2, 511110, Note_on_c, 12, 47, 127
2, 511110, Note_on_c, 12, 35, 127
2, 511173, Note_off_c, 12, 35, 127
2, 511173, Note_off_c, 12, 47, 127
2, 511174, Note_on_c, 1, 49, 127
2, 511174, Note_on_c, 1, 37, 127
2, 511237, Note_off_c, 1, 37, 127
2, 511237, Note_off_c, 1, 49, 127
2, 511239, Note_on_c, 2, 50, 127
2, 511239, Note_on_c, 2, 38, 127
2, 511302, Note_off_c, 2, 38, 127
2, 511302, Note_off_c, 2, 50, 127
2, 511303, Note_on_c, 4, 52, 127
2, 511303, Note_on_c, 4, 40, 127
2, 511366, Note_off_c, 4, 40, 127
2, 511366, Note_off_c, 4, 52, 127
2, 511368, Note_on_c, 5, 53, 127
2, 511368, Note_on_c, 5, 41, 127
2, 511431, Note_off_c, 5, 41, 127
2, 511431, Note_off_c, 5, 53, 127
2, 511432, Note_on_c, 7, 55, 127
2, 511432, Note_on_c, 7, 43, 127
2, 511495, Note_off_c, 7, 43, 127
2, 511495, Note_off_c, 7, 55, 127
2, 511496, Note_on_c, 10, 57, 127
2, 511496, Note_on_c, 10, 45, 127
2, 511559, Note_off_c, 10, 45, 127
2, 511559, Note_off_c, 10, 57, 127
2, 511561, Note_on_c, 12, 59, 127
2, 511561, Note_on_c, 12, 47, 127
2, 511624, Note_off_c, 12, 47, 127
2, 511624, Note_off_c, 12, 59, 127
2, 511625, Note_on_c, 1, 61, 127
2, 511625, Note_on_c, 1, 49, 127
2, 511688, Note_off_c, 1, 49, 127
2, 511688, Note_off_c, 1, 61, 127
2, 511690, Note_on_c, 2, 62, 127
2, 511690, Note_on_c, 2, 50, 127
2, 511753, Note_off_c, 2, 50, 127
2, 511753, Note_off_c, 2, 62, 127
2, 511754, Note_on_c, 4, 64, 127
2, 511754, Note_on_c, 4, 52, 127
2, 511817, Note_off_c, 4, 52, 127
2, 511817, Note_off_c, 4, 64, 127
2, 511818, Note_on_c, 5, 65, 127
2, 511818, Note_on_c, 5, 53, 127
2, 511881, Note_off_c, 5, 53, 127
2, 511881, Note_off_c, 5, 65, 127
2, 511883, Note_on_c, 7, 67, 127
2, 511883, Note_on_c, 7, 55, 127
2, 511946, Note_off_c, 7, 55, 127
2, 511946, Note_off_c, 7, 67, 127
2, 511947, Note_on_c, 10, 69, 127
2, 511947, Note_on_c, 10, 57, 127
2, 512010, Note_off_c, 10, 57, 127
2, 512010, Note_off_c, 10, 69, 127
2, 512012, Note_on_c, 12, 71, 127
2, 512012, Note_on_c, 12, 59, 127
2, 512075, Note_off_c, 12, 59, 127
2, 512075, Note_off_c, 12, 71, 127
2, 512076, Note_on_c, 1, 73, 127
2, 512076, Note_on_c, 1, 61, 127
2, 512139, Note_off_c, 1, 61, 127
2, 512139, Note_off_c, 1, 73, 127
2, 512140, Note_on_c, 2, 74, 127
2, 512140, Note_on_c, 2, 62, 127
2, 512203, Note_off_c, 2, 62, 127
2, 512203, Note_off_c, 2, 74, 127
2, 512205, Note_on_c, 4, 76, 127
2, 512205, Note_on_c, 4, 64, 127
2, 512268, Note_off_c, 4, 64, 127
2, 512268, Note_off_c, 4, 76, 127
2, 512269, Note_on_c, 5, 77, 127
2, 512269, Note_on_c, 5, 65, 127
2, 512332, Note_off_c, 5, 65, 127
2, 512332, Note_off_c, 5, 77, 127
2, 512334, Note_on_c, 7, 79, 127
2, 512334, Note_on_c, 7, 67, 127
2, 512734, Note_off_c, 7, 67, 127
2, 512734, Note_off_c, 7, 79, 127
2, 512735, Note_on_c, 4, 76, 127
2, 512735, Note_on_c, 4, 64, 127
2, 512862, Note_off_c, 4, 64, 127
2, 512862, Note_off_c, 4, 76, 127
2, 512864, Note_on_c, 2, 74, 127
2, 512864, Note_on_c, 2, 62, 127
2, 512991, Note_off_c, 2, 62, 127
2, 512991, Note_off_c, 2, 74, 127
2, 512993, Note_on_c, 1, 73, 127
2, 512993, Note_on_c, 1, 61, 127
2, 513056, Note_off_c, 1, 61, 127
2, 513056, Note_off_c, 1, 73, 127
2, 513057, Note_on_c, 2, 74, 127
2, 513057, Note_on_c, 2, 62, 127
2, 513120, Note_off_c, 2, 62, 127
2, 513120, Note_off_c, 2, 74, 127
2, 513122, Note_on_c, 1, 73, 127
2, 513122, Note_on_c, 1, 61, 127
2, 513185, Note_off_c, 1, 61, 127
2, 513185, Note_off_c, 1, 73, 127
2, 513186, Note_on_c, 2, 74, 127
2, 513186, Note_on_c, 2, 62, 127
2, 513249, Note_off_c, 2, 62, 127
2, 513249, Note_off_c, 2, 74, 127
2, 513253, Note_on_c, 1, 73, 127
2, 513253, Note_on_c, 1, 61, 127
2, 513316, Note_off_c, 1, 61, 127
2, 513316, Note_off_c, 1, 73, 127
2, 513317, Note_on_c, 2, 74, 127
2, 513317, Note_on_c, 2, 62, 127
2, 513378, Note_on_c, 1, 61, 127
2, 513378, Note_on_c, 1, 73, 127
2, 513380, Note_off_c, 2, 62, 127
2, 513380, Note_off_c, 2, 74, 127
2, 513441, Note_off_c, 1, 73, 127
2, 513441, Note_off_c, 1, 61, 127
2, 513443, Note_on_c, 2, 62, 127
2, 513443, Note_on_c, 2, 74, 127
2, 513506, Note_off_c, 2, 74, 127
2, 513506, Note_off_c, 2, 62, 127
2, 513507, Note_on_c, 1, 61, 127
2, 513507, Note_on_c, 1, 73, 127
2, 514022, Note_on_c, 10, 57, 127
2, 514022, Note_on_c, 7, 55, 127
2, 514022, Note_on_c, 4, 52, 127
2, 514022, Note_on_c, 10, 45, 127
2, 514805, Note_on_c, 2, 74, 127
2, 514805, Note_on_c, 2, 62, 127
2, 514807, Note_off_c, 1, 73, 127
2, 514807, Note_off_c, 1, 61, 127
2, 515051, Note_off_c, 10, 45, 127
2, 515051, Note_off_c, 4, 52, 127
2, 515051, Note_off_c, 7, 55, 127
2, 515051, Note_off_c, 10, 57, 127
2, 515085, Note_off_c, 2, 62, 127
2, 515085, Note_off_c, 2, 74, 127
2, 515085, Note_on_c, 2, 50, 127
2, 515085, Note_on_c, 2, 62, 127
2, 515085, Note_on_c, 6, 54, 127
2, 515085, Note_on_c, 10, 57, 127
2, 515085, Note_on_c, 10, 69, 127
2, 515085, Note_on_c, 2, 74, 127
2, 515085, Note_on_c, 6, 66, 127
2, 516373, Note_off_c, 10, 57, 127
2, 516373, Note_off_c, 2, 50, 127
2, 516373, Note_on_c, 2, 50, 127
2, 516373, Note_on_c, 2, 38, 127
2, 520736, Note_off_c, 2, 38, 127
2, 520736, Note_off_c, 2, 50, 127
2, 520736, Note_off_c, 6, 66, 127
2, 520736, Note_off_c, 2, 74, 127
2, 520736, Note_off_c, 10, 69, 127
2, 520736, Note_off_c, 6, 54, 127
2, 520736, Note_off_c, 2, 62, 127
2, 525312, End_track
3, 0, Start_track
3, 0, Title_t, "MIDI"
3, 1536, End_track
0, 0, End_of_file
